<svg width="76.111" height="16.516" viewBox="0 0 76.111 16.516" xmlns="http://www.w3.org/2000/svg"><path transform="translate(0 11.758) scale(.013672 -.013672)" d="m613 0q0 22-16 25-5 1-10 1h-34l-229 574h-37l-224-574h-63v-26h178q0 22-16 25-5 1-10 1h-49l75 194h209l75-194h-65v-26zm-237 249h-187l93 242z"/><path transform="translate(8.3809 11.758) scale(.013672 -.013672)" d="m306-10q88 0 148 66 56 64 56 162 0 110-60 172-45 45-111 45-109 0-155-98-5-9-8-18v331h-150v-25h75v-540q0-46-26-55-15-5-49-5v-25h126l9 66q43-69 130-75 8-1 15-1zm2 405q82 0 107-100 10-37 10-84 0-141-76-183-24-13-53-13-75 0-106 80-15 42-15 97 0 121 60 175 32 28 73 28z"/><path transform="translate(15.9 11.758) scale(.013672 -.013672)" d="m232 25h-50v216q0 91 63 132 26 17 54 17 61 0 85-57 11-27 11-60v-188q0-46-22-55-14-5-48-5v-25h220q0 22-15 24-4 1-10 1h-50v248q0 109-72 148-28 14-60 14-74 0-124-54-21-23-32-52v321h-150v-25h75v-540q0-46-26-55-15-5-49-5v-25h225q0 22-15 24-4 1-10 1z"/><path transform="translate(23.707 11.758) scale(.013672 -.013672)" d="m391-10q77 0 85 93 1 6 1 11l-26 1q-7-73-39-74-26 2-27 52v211q0 143-143 151-9 0-18 0-112 0-150-52-12-17-12-34 0-31 29-36 5-1 10-1 23 0 34 29 14 37 19 44 19 25 59 25 94-6 97-103v-63q-235 0-269-98-6-19-6-41 0-76 67-104 27-11 57-11 73 0 123 50 18 19 27 40 12-89 82-90zm-199 40q-61 0-75 61-3 14-3 31 0 67 77 85 41 9 119 10v-80q-15-69-73-97-23-10-45-10z"/><path transform="translate(30.297 11.758) scale(.013672 -.013672)" d="m103-159q-16 0-24 24-11 30-21 37-9 6-21 6-32 0-37-28-1-4-1-7 0-38 44-55 20-8 42-8 79 0 137 97 24 39 46 93l148 365q10 28 22 32 7 2 16 2 20 0 23 11 2 6 2 15h-152v-26h73l-128-320-137 320h67v26h-195v-26h49l180-399q-56-132-105-153-14-6-28-6z"/><path transform="translate(36.914 11.758) scale(.013672 -.013672)" d="m391-10q77 0 85 93 1 6 1 11l-26 1q-7-73-39-74-26 2-27 52v211q0 143-143 151-9 0-18 0-112 0-150-52-12-17-12-34 0-31 29-36 5-1 10-1 23 0 34 29 14 37 19 44 19 25 59 25 94-6 97-103v-63q-235 0-269-98-6-19-6-41 0-76 67-104 27-11 57-11 73 0 123 50 18 19 27 40 12-89 82-90zm-199 40q-61 0-75 61-3 14-3 31 0 67 77 85 41 9 119 10v-80q-15-69-73-97-23-10-45-10z"/><path transform="translate(46.17 11.758) scale(.013672 -.013672)" d="m478 0 5 200h-20l-17-67q-24-92-80-105-12-2-23-2h-137v548h84v26h-250v-26h80v-548h-80v-26z"/><path transform="translate(52.91 11.758) scale(.013672 -.013672)" d="m235 25h-50v400h-155v-25h80v-315q0-46-31-56-15-4-49-4v-25h230q0 22-15 24-5 1-10 1zm-38 546q0 35-31 50-12 5-23 5-35 0-50-32-5-11-5-23 0-37 33-51 11-4 22-4 35 0 49 32 5 11 5 23z"/><path transform="translate(56.875 11.758) scale(.013672 -.013672)" d="m306-10q88 0 148 66 56 64 56 162 0 110-60 172-45 45-111 45-109 0-155-98-5-9-8-18v331h-150v-25h75v-540q0-46-26-55-15-5-49-5v-25h126l9 66q43-69 130-75 8-1 15-1zm2 405q82 0 107-100 10-37 10-84 0-141-76-183-24-13-53-13-75 0-106 80-15 42-15 97 0 121 60 175 32 28 73 28z"/><path transform="translate(64.395 11.758) scale(.013672 -.013672)" d="m254 25h-72v199q0 91 56 146 22 21 37 22 17 0 31-25 16-28 30-32 6-2 12-2 30 0 38 29 2 6 2 12 0 45-46 55-10 2-19 2-60 0-107-51-22-24-35-54l-4 99h-145v-25h75v-315q0-46-26-55-15-5-49-5v-25h247q0 22-15 24-4 1-10 1z"/><path transform="translate(69.768 11.758) scale(.013672 -.013672)" d="m249 410q70 0 93-59 8-19 8-41 0-50-48-61-25-5-71-4l-106 3q5 115 75 150 23 12 49 12zm174-314-25 9q-35-76-113-86-10-1-19-1-105 0-132 125-8 35-9 77l120-2q122-2 157 23 27 20 27 57 0 68-69 108-49 29-113 29-125 0-179-104-28-54-28-122 0-124 89-184 53-35 121-35 108 0 159 78 8 14 14 28z"/></svg>