<svg width="68.026" height="16.24" viewBox="0 0 68.026 16.24" xmlns="http://www.w3.org/2000/svg"><path transform="translate(0 13.02) scale(.014 -.014)" d="M26 0 295 700H357L626 0H553L429 328H202L99 0ZM302 648 209 352H420L308 648Z"/><path transform="translate(9.212 13.02) scale(.014 -.014)" d="m130 0v700h139q108 0 168-45t60-125q0-59-35-100.5t-98-56.5v-6q86-11 134.5-59.5t48.5-122.5q0-87-67-136t-188-49zm140 676h-72v-300h71q158 0 158 150t-157 150zm22-324h-94v-328h94q183 0 183 164t-183 164z"/><path transform="translate(17.85 13.02) scale(.014 -.014)" d="m80 350q0 77 27.5 143.5t77 116 116 77 143.5 27.5 143.5-27.5 116-77 77-116 27.5-143.5-27.5-143.5-77-116-116-77-143.5-27.5-143.5 27.5-116 77-77 116-27.5 143.5zm76 0q0-102 36-178.5t101-119 151-42.5 151 42.5 101 119.5 36 178-36 177.5-101 119.5-151 43-150.5-42.5-101-119-36.5-178.5z"/><path transform="translate(30.282 13.02) scale(.014 -.014)" d="m130 700h134q106 0 164.5-44.5t58.5-124.5q0-62-36.5-103t-105.5-55v-6q66-13 108-62t63-121q19-66 37.5-102.5t41-52.5 53.5-23v-6h-41q-44 0-72.5 16t-48.5 54-38 105q-29 103-77 146t-117 43h-6v18h6q161 0 161 148 0 146-151 146h-66v-676h-68z"/><path transform="translate(39.27 13.02) scale(.014 -.014)" d="m130 0v700h305v-49l-175 23q-46 6-62 6v-305q13 0 62 3l164 10v-46l-164 10q-49 3-62 3v-335q18 0 63 6l177 23v-49z"/><path transform="translate(46.522 13.02) scale(.014 -.014)" d="m290 0v680q-15 0-62-6l-196-25v51h584v-51l-196 25q-47 6-62 6v-680z"/><path transform="translate(55.594 13.02) scale(.014 -.014)" d="m80 350q0 77 27.5 143.5t77 116 116 77 143.5 27.5 143.5-27.5 116-77 77-116 27.5-143.5-27.5-143.5-77-116-116-77-143.5-27.5-143.5 27.5-116 77-77 116-27.5 143.5zm76 0q0-102 36-178.5t101-119 151-42.5 151 42.5 101 119.5 36 178-36 177.5-101 119.5-151 43-150.5-42.5-101-119-36.5-178.5z"/></svg>