<svg width="96.896" height="21.584" viewBox="0 0 96.896 21.584" xmlns="http://www.w3.org/2000/svg"><path transform="translate(0 16.928) scale(.016 -.016)" d="M432 19 359 235H161L84 19H159V0H6V19H53L308 706H390L642 19H688V0H361V19ZM264 519 170 257H351Z"/><path transform="translate(11.104 16.928) scale(.016 -.016)" d="m251 308v-186q0-43 17.5-73t50-30 44.5 44 12 154v52q0 103-10 138.5t-39 35.5-52-36-23-99zm0 442v-350q38 86 130 86 187 0 187-249 0-127-51.5-187t-154.5-60q-52 0-79.5 16t-37.5 53l-7-59h-228v18h55v714h-55v18z"/><path transform="translate(20.512 16.928) scale(.016 -.016)" d="m344 448q-37 0-65-48t-28-114v-268h71v-18h-312v18h55v440h-55v18h241v-96q13 51 50 78.5t84 27.5 76.5-26.5 29.5-75-22-74.5-67.5-26-67 30-5.5 83h36q25 51-21 51z"/><path transform="translate(28.432 16.928) scale(.016 -.016)" d="m157 545q-53 0-75.5 27t-22.5 67 24.5 66 74.5 26 76-23.5 26-67-25-69.5-78-26zm-151-69h245v-458h56v-18h-297v18h55v440h-59z"/><path transform="translate(33.504 16.928) scale(.016 -.016)" d="M6 750H251V18H307V0H10V18H65V732H6Z"/><path transform="translate(41.44 16.928) scale(.016 -.016)" d="m21 700h520l10-208h-18q-37 108-85.5 147t-144.5 39h-28v-325h45q48 0 80 35t44 96h15v-296h-17q-16 75-44.5 107t-77.5 32h-45v-305h124v-22h-378v22h59v656h-59z"/><path transform="translate(50.912 16.928) scale(.016 -.016)" d="m250 235h29v77q0 95-10.5 127.5t-40.5 32.5q-18 0-32.5-9.5t-14.5-26 6-33.5h25q8-21 8-50.5t-25-51-63-21.5q-86 0-86 83 0 123 209 123 119 0 164.5-40.5t45.5-148.5v-203q0-52 29-52 34 0 40 103l15-1q-4-88-33-121t-95-33q-120 0-138 74-13-38-39-56t-76-18q-148 0-148 121 0 71 56.5 97.5t173.5 26.5zm29-109v93h-7q-62 0-62-91v-16q0-52 5.5-67t21-15 29 25.5 13.5 70.5z"/><path transform="translate(59.696 16.928) scale(.016 -.016)" d="m60 143v315h-55v18h55v129l186 46v-175h130v-18h-130v-337q0-47 9.5-69t39.5-22 52.5 30 29.5 82l17-2q-8-69-44-109.5t-119-40.5-127 33-44 120z"/><path transform="translate(66 16.928) scale(.016 -.016)" d="m313 756q-38 0-50-28.5t-12-91.5v-160h132v-18h-132v-440h122v-18h-363v18h55v440h-58v18h58v4q0 144 55 218.5t184 74.5q85 0 122-33.5t37-77.5-23-66-61-22-58.5 19.5-20.5 45 6 49.5h38q20 68-31 68z"/><path transform="translate(72.128 16.928) scale(.016 -.016)" d="m250 235h29v77q0 95-10.5 127.5t-40.5 32.5q-18 0-32.5-9.5t-14.5-26 6-33.5h25q8-21 8-50.5t-25-51-63-21.5q-86 0-86 83 0 123 209 123 119 0 164.5-40.5t45.5-148.5v-203q0-52 29-52 34 0 40 103l15-1q-4-88-33-121t-95-33q-120 0-138 74-13-38-39-56t-76-18q-148 0-148 121 0 71 56.5 97.5t173.5 26.5zm29-109v93h-7q-62 0-62-91v-16q0-52 5.5-67t21-15 29 25.5 13.5 70.5z"/><path transform="translate(80.912 16.928) scale(.016 -.016)" d="m290 468q-44 0-63-48t-19-159v-52q0-99 22-142t81-43 94 40 45 91l18-2q-19-86-70-124-52-39-143-39-116 0-178 62.5t-62 183 70.5 185.5 196.5 65q89 0 136-34.5t47-86.5-22.5-76-62-24-63.5 21-24 62q0 18 5 36h33q7 20 7 36 0 48-48 48z"/><path transform="translate(88.64 16.928) scale(.016 -.016)" d="m272 486q227 0 218-228h-282v-39q0-98 25-148t87-50q116 0 152 124l18-3q-19-72-68.5-112t-148.5-40q-129 0-193.5 66.5t-64.5 185 72.5 181.5 184.5 63zm-63-208h103v49q0 81-9.5 110.5t-38 29.5-42-31.5-13.5-108.5z"/></svg>