<svg width="104.56" height="21.219" viewBox="0 0 104.56 21.219" xmlns="http://www.w3.org/2000/svg"><path transform="translate(0 15.891) scale(.0078125 -.0078125)" d="m1370 0h-487v88l118 10q8 0 15 10.5t7 19.5q0 4-1 5l-141 375h-473l-136-369q-1-2-1-6 0-12 10.5-23.5t19.5-11.5l121-10v-88h-412v88l119 25 477 1294h154l475-1264q8-21 14-28t29-11l92-16zm-526 606-201 537-199-537z"/><path transform="translate(10.781 15.891) scale(.0078125 -.0078125)" d="m1067 541q0-154-61-276.5t-191-193.5-336-71h-295v1362h-155v68l264 79h82v-573q35 17 113.5 46.5t168.5 29.5q135 0 226-65t137.5-172.5 46.5-233.5zm-209-41q0 194-82 292.5t-231 98.5q-34 0-86.5-11t-83.5-22v-760t35.5-1 64.5-1q182 0 282.5 90t100.5 314z"/><path transform="translate(19.664 15.891) scale(.0078125 -.0078125)" d="m1065 907-107-12-393-958q-13-33-40.5-94.5t-65-126-80.5-107.5q-37-37-81.5-57.5t-96.5-20.5q-73 0-111.5 35.5t-38.5 81.5q0 68 66 123l192-88q34 34 68 92t61.5 120 42.5 107l-348 893-113 12v80h453v-80l-98-6q-33-3-33-33 0-8 2-12l238-604 243 604q3 6 3 13 0 30-31 32l-97 6v80h365z"/><path transform="translate(28.141 15.891) scale(.0078125 -.0078125)" d="m745 297q0-151-104-236.5t-287-85.5q-94 0-173.5 19.5t-110.5 32.5v272h104l25-174q31-20 76.5-38.5t105.5-18.5q88 0 136 49t48 110q0 81-58 122.5t-165 92.5l-27 13q-112 53-171.5 110.5t-59.5 149.5q0 137 96 217t273 80q90 0 160.5-16.5t101.5-30.5v-242h-107l-16 143q-22 17-65 32t-91 15q-84 0-125-38.5t-41-98.5q0-69 49.5-109.5t179.5-99.5q107-49 176.5-109.5t69.5-160.5z"/><path transform="translate(34.508 15.891) scale(.0078125 -.0078125)" d="m745 297q0-151-104-236.5t-287-85.5q-94 0-173.5 19.5t-110.5 32.5v272h104l25-174q31-20 76.5-38.5t105.5-18.5q88 0 136 49t48 110q0 81-58 122.5t-165 92.5l-27 13q-112 53-171.5 110.5t-59.5 149.5q0 137 96 217t273 80q90 0 160.5-16.5t101.5-30.5v-242h-107l-16 143q-22 17-65 32t-91 15q-84 0-125-38.5t-41-98.5q0-69 49.5-109.5t179.5-99.5q107-49 176.5-109.5t69.5-160.5z"/><path transform="translate(40.875 15.891) scale(.0078125 -.0078125)" d="m446 1325q0-52-36-89.5t-88-37.5-89.5 37.5-37.5 89.5q0 53 37.5 89t89.5 36 88-36 36-89zm105-1325h-481v80l100 6q43 3 43 45v731h-141v72l250 78h81v-881q0-19 12.5-31t30.5-14l105-6z"/><path transform="translate(45.727 15.891) scale(.0078125 -.0078125)" d="m1120 0h-452v80l86 6q18 2 30.5 14t12.5 31v533q0 97-45 147.5t-152 50.5q-58 0-115.5-16.5t-109.5-42.5v-672q0-42 43-45l86-6v-80h-463v80l100 6q43 3 43 45v711h-143v67l250 78h84v-102q86 49 176.5 88t161.5 39q134 0 204-83.5t70-232.5v-565q0-19 12.5-31t30.5-14l90-6z"/><path transform="translate(54.797 15.891) scale(.0078125 -.0078125)" d="m446 1325q0-52-36-89.5t-88-37.5-89.5 37.5-37.5 89.5q0 53 37.5 89t89.5 36 88-36 36-89zm105-1325h-481v80l100 6q43 3 43 45v731h-141v72l250 78h81v-881q0-19 12.5-31t30.5-14l105-6z"/><path transform="translate(59.648 15.891) scale(.0078125 -.0078125)" d="m885 193v-117q-69-37-155.5-69t-190.5-32q-143 0-248.5 67t-163 182.5-57.5 262.5q0 172 68.5 289t181 176.5 243.5 59.5q135 0 226.5-52.5t91.5-152.5q0-60-37.5-90.5t-83.5-30.5q-34 0-59 11.5t-44 23.5v178q-47 27-86 27-91 0-156.5-53.5t-100.5-146.5-35-212q0-113 38-206.5t113.5-148.5 187.5-55q71 0 136 23t131 66z"/><path transform="translate(67.102 15.891) scale(.0078125 -.0078125)" d="m1008 0h-303l-27 121t-30.5-22-80.5-51-110.5-51-120.5-22q-111 0-188.5 74t-77.5 203q0 57 20.5 106t82 93.5 183 87 322.5 86.5v88q0 202-191 202-53 0-91.5-10t-53.5-16v-178h-149q-28 0-52 10.5t-24 48.5q0 84 64 137.5t162.5 79 199.5 25.5q127 0 197-39.5t98-109 28-158.5v-574q0-19 12.5-31t30.5-14l99-6zm-330 193v354q-138-34-219.5-68.5t-121.5-69-52.5-70-12.5-73.5q0-63 40.5-116.5t113.5-53.5q41 0 85 14.5t82 34 61.5 34 23.5 14.5z"/><path transform="translate(82.445 15.891) scale(.0078125 -.0078125)" d="m987 385q0-103-55.5-199t-175-157.5-312.5-61.5q-110 0-192 19t-127 38-45 19v363h129l27-232q2-12 13-26t21-19q5-1 58.5-24t148.5-23q131 0 216 64t85 178q0 62-34.5 108.5t-89.5 82.5-117.5 65.5-118.5 56.5q-84 40-156 85.5t-116 112.5-44 171q0 122 62 212t169 139.5 242 49.5q110 0 194-21.5t149-42.5l18-6v-319h-117l-31 196q-2 14-12.5 20.5t-19.5 15.5q-8 6-49.5 26t-128.5 20q-123 0-194-68.5t-71-172.5q0-94 73.5-156t211.5-115q186-70 287.5-157.5t101.5-241.5z"/><path transform="translate(90.781 15.891) scale(.0078125 -.0078125)" d="m608 0h-540v88l122 8q22 2 32.5 16t10.5 29v1092q0 15-10.5 28.5t-32.5 14.5l-122 8v90h540v-90l-125-8q-21-1-32-14.5t-11-28.5v-1092q0-15 11-29t32-16l125-8z"/><path transform="translate(96.062 15.891) scale(.0078125 -.0078125)" d="m1051 0h-996v88l119 8q22 2 32.5 16t10.5 29v1092q0 15-10.5 29.5t-32.5 15.5l-119 8v88h523v-88l-109-8q-22-1-33.5-15.5t-11.5-29.5v-1133h430q14 0 29 11t16 24l33 246h119z"/></svg>