<svg width="75.672" height="17.344" viewBox="0 0 75.672 17.344" xmlns="http://www.w3.org/2000/svg"><path transform="translate(0 13.18) scale(.0078125 -.0078125)" d="m1534 689v-19q-2-84-17.5-174t-43.5-180-67-178-87.5-168.5-104.5-151-118-124.5l-149 86q35 59 63.5 128.5t51.5 145.5 39.5 156 27.5 159 16.5 155.5 5.5 145.5q0 54-0.5 122.5t-8 139.5-24.5 138.5-50.5 120.5-86 85-130.5 32q-69 0-118.5-23.5t-84-63-55-91.5-32-109.5-15-116-3.5-110.5v-279h431v-165h-431v-350h-397v732q0 157 50 292t141.5 234.5 220 156 286.5 56.5q107 0 200.5-30.5t170.5-84 137.5-127 101-160.5 61.5-184 19-196z"/><path transform="translate(12.727 13.18) scale(.0078125 -.0078125)" d="m1207 869-146-58q-35 110-117 169t-197 59q-62 0-110.5-19.5t-85-53.5-62-79-41.5-96-23-105.5-7-105.5q0-55 6-111t20.5-107.5 38.5-96 60.5-77.5 87-52 116.5-19q53 0 101 16t88 45 71 69 49 89l147-54q-33-79-87.5-136.5t-123.5-95-148-55.5-160-18q-131 0-243 44.5t-193.5 125-127.5 191-46 242.5q0 133 45.5 244t126.5 191 193 124 245 44q84 0 164-18.5t148.5-57 123-97.5 87.5-141z"/><path transform="translate(22.617 13.18) scale(.0078125 -.0078125)" d="m479 0h-338v1687h130l208-351z"/><path transform="translate(27.461 13.18) scale(.0078125 -.0078125)" d="m1361 580q0-90-24-169t-66.5-146-102.5-120.5-131.5-90.5-153-57-167.5-20-167 20-152.5 57-131.5 90.5-102.5 120.5-66.5 146.5-24 168.5 24 168.5 66.5 146.5 102.5 120.5 131.5 90.5 152.5 57 167 20 167.5-20 153-57 131.5-90.5 102.5-120.5 66.5-146.5 24-168.5zm-344 0q0 48-5.5 101.5t-18.5 105-35.5 99-55.5 83-79 57-107 21.5q-58 0-103-22t-78.5-58.5-56-84.5-36.5-99.5-20-104-6-98.5 6-98.5 20-104.5 36.5-99.5 56-84 78.5-58.5 103-22q60 0 106 21.5t79.5 57.5 55.5 83 35.5 99 19 105 5.5 101z"/><path transform="translate(38.656 13.18) scale(.0078125 -.0078125)" d="m1322 662q0-117-28.5-244t-79.5-249-122-229.5-156-185.5l-127 69q27 50 51 112t43.5 131.5 35 143.5 26 146.5 16 141 5.5 127.5q0 39-3 83.5t-12.5 89-25.5 85.5-42.5 72-64 50-88.5 19q-50 0-89-22.5t-69-59-51.5-83.5-35-96.5-19.5-97.5-6-86v-579h-339v1155h130l155-269q28 67 70 122t95 94 117.5 60 139.5 21q120 0 209-39t148-108.5 88-165 29-208.5z"/><path transform="translate(49.625 13.18) scale(.0078125 -.0078125)" d="m496 1434q0-38-14.5-72t-39.5-59-59-39.5-72-14.5-71.5 14.5-58.5 39.5-39.5 59-14.5 72 14.5 71.5 39.5 58.5 58.5 39.5 71.5 14.5 72-14.5 59-39.5 39.5-58.5 14.5-71.5zm-15-1434h-339v1154h339z"/><path transform="translate(54.492 13.18) scale(.0078125 -.0078125)" d="m1207 869-146-58q-35 110-117 169t-197 59q-62 0-110.5-19.5t-85-53.5-62-79-41.5-96-23-105.5-7-105.5q0-55 6-111t20.5-107.5 38.5-96 60.5-77.5 87-52 116.5-19q53 0 101 16t88 45 71 69 49 89l147-54q-33-79-87.5-136.5t-123.5-95-148-55.5-160-18q-131 0-243 44.5t-193.5 125-127.5 191-46 242.5q0 133 45.5 244t126.5 191 193 124 245 44q84 0 164-18.5t148.5-57 123-97.5 87.5-141z"/><path transform="translate(64.383 13.18) scale(.0078125 -.0078125)" d="m1304 0h-338v138q-60-82-144.5-121.5t-185.5-39.5q-132 0-236 47t-176 128.5-110 191.5-38 236 38 236 110 191.5 176 128.5 236 47q67 0 127.5-20t111-56.5 89-88 60.5-114.5l150 251h130zm-340 580q0 45-4.5 95t-15.5 99-30.5 93.5-50 79-73.5 54.5-100 20-99-20.5-72-55-49.5-79.5-30.5-94-15.5-98.5-4.5-93.5 4.5-94 15.5-99 30.5-94 49.5-79.5 72-55 99-20.5q52 0 92.5 21.5t71 57.5 51.5 82 34 95 19 97.5 6 88.5z"/></svg>