<svg width="31.878" height="17.724" viewBox="0 0 31.878 17.724" xmlns="http://www.w3.org/2000/svg"><path transform="translate(0 13.426) scale(.014 -.014)" d="M484 -5 435 190H196L143 0L15 10L103 253L237 683L416 696L545 268L628 17ZM326 566H313L227 296H405Z"/><path transform="translate(9.002 13.426) scale(.014 -.014)" d="m234 113q24 0 47 15t35 30l11 16 50-52q-3-5-7.5-14t-22-32-37-40.5-50.5-32-65-14.5q-75 0-122 61t-47 159q0 122 71 214t166 92q29 0 58-8.5t59-26.5l-70-123q-36 28-80 28t-68-31.5-24-96.5 24.5-104.5 71.5-39.5z"/><path transform="translate(14.392 13.426) scale(.014 -.014)" d="m180 333v-73l11-235-134-25 12 243q-4 134-22 240l121 26q7-58 10-113 15 20 34 39.5t60 44 83 24.5 71-27 37-74q83 101 168 101 53 0 84-35.5t31-96.5l-6-112 11-240-135-25 12 258q0 69-12 92t-55 23-97-33l-4-75 11-240-135-25 12 258q0 69-12 92t-56 23-100-35z"/><path transform="translate(25.634 13.426) scale(.014 -.014)" d="m238 102q29 0 61 15t50 30l18 15 46-56q-10-17-31-39t-42.5-37.5-57-28-73.5-12.5q-81 0-132 61.5t-51 158.5q0 122 71 214t166 92q73 0 113.5-41t40.5-115q0-44-15-100l-20-21-250-23q17-113 106-113zm0 310q-44 0-74-35.5t-35-90.5l170 21q3 23 3 38 0 67-64 67z"/></svg>