<svg width="116.08" height="20.875" viewBox="0 0 116.08 20.875" xmlns="http://www.w3.org/2000/svg"><path transform="translate(0 16.719) scale(.0078125 -.0078125)" d="m932 1355q55-77 112.5-198.5t111.5-266.5 97.5-296.5 71.5-291.5 32-249q1-53-48-53h-242q-47 0-49 47-4 112-36 272h-546q-28-156-32-272-2-47-51-47h-237q-18 0-30 10.5t-11 36.5q5 111 32.5 252.5t71.5 293.5 98 297.5 112 266.5 113 198q29 41 61.5 60t80.5 19h144q49 0 82-19t62-60zm-226-237q-66-105-121-251t-95-300h434q-42 154-97 300t-115 251z"/><path transform="translate(11.188 16.719) scale(.0078125 -.0078125)" d="m407 0q-103 0-156.5 26t-72 85-18.5 157v898q0 100 18.5 158.5t72 84 156.5 25.5h307q215 0 376.5-64t251.5-216.5 90-418.5-90-427.5-251.5-234.5-376.5-73zm190 1171q-66 0-90-28t-24-96v-660q0-67 24-96t90-29h46q214 0 331.5 105t117.5 364q0 173-53.5 268.5t-154.5 133.5-243 38z"/><path transform="translate(23.078 16.719) scale(.0078125 -.0078125)" d="m407 0q-103 0-156.5 26t-72 85-18.5 157v1006q0 29 10 44 45 66 126 139 15 12 26 12 12 0 25-12 44-38 74-72.5t52-66.5q10-16 10-44v-887q0-67 24-96t90-29l307 1q24 0 36-8 26-18 54-43t59-60q10-13 10-21 0-9-10-20-31-35-59-60t-54-43q-14-8-36-8z"/><path transform="translate(31.227 16.719) scale(.0078125 -.0078125)" d="m400-25q-147 0-233.5 82.5t-86.5 227.5q0 75 27.5 139.5t96 114 192 79.5 315.5 35q0 91-45.5 131t-136.5 40q-82 0-134-28t-65-38q-14-12-34-9-27 4-57.5 14t-65.5 23q-5 2-11 6.5t-7 13.5q0 5 1 12.5t5 27.5 12 49.5 15 45.5q9 17 30 32 17 14 103 45t249 31q449 0 449-437v-566q0-19-10.5-32.5t-35.5-13.5h-150q-16 0-28.5 4.5t-23.5 17.5l-62 80h-7q-46-67-123.5-97t-178.5-30zm110 232q92 0 139 47t60 97v111q-139 0-208.5-21.5t-92.5-56-23-74.5q0-58 36-80.5t89-22.5z"/><path transform="translate(40.242 16.719) scale(.0078125 -.0078125)" d="m972 574q14 54 30.5 106.5t40.5 117.5q21 58 51 133.5t63.5 153.5 65.5 145 58 107q32 49 69.5 73t110.5 24h131q52 0 87.5-15.5t50.5-73.5q11-43 21-126t17-230 11-377.5 4-569.5q0-18-12-30t-29-12h-228q-17 0-29 12t-12 31q0 264 0 448t-1 305-2.5 192.5-4.5 110.5h-6q-53-122-113-271.5t-117-308-102-309.5q-13-45-32.5-62.5t-88.5-17.5h-115q-59 0-78.5 15t-33.5 65q-33 114-73 241t-82.5 249.5-82 226-70.5 172.5h-6q-8-118-14-287t-9.5-367-4.5-404q0-18-12-29.5t-29-11.5h-205q-17 0-29 12t-12 31q1 533 21.5 851t44.5 426q16 71 56.5 92.5t92.5 21.5h162q55 0 80.5-19.5t62.5-75.5q22-33 52.5-99t63.5-146.5 62.5-159 48.5-136.5q20-59 37-114.5t30-109.5z"/><path transform="translate(59.758 16.719) scale(.0078125 -.0078125)" d="m407 0q-103 0-156.5 26t-72 85-18.5 157v898q0 100 18.5 158.5t72 84 156.5 25.5h307q215 0 376.5-64t251.5-216.5 90-418.5-90-427.5-251.5-234.5-376.5-73zm190 1171q-66 0-90-28t-24-96v-660q0-67 24-96t90-29h46q214 0 331.5 105t117.5 364q0 173-53.5 268.5t-154.5 133.5-243 38z"/><path transform="translate(71.648 16.719) scale(.0078125 -.0078125)" d="m89 1360q0 13 8 23t21 26q28 32 65 67.5t75 68.5q24 19 36 19t37-19q81-70 138-136 13-15 21.5-25.5t8.5-23.5-8.5-23-22.5-27q-27-31-63-66.5t-74-67.5q-14-12-22-15.5t-15-3.5-14.5 3.5-23.5 15.5q-40 32-75 67.5t-63 68.5q-13 16-21 25.5t-8 22.5zm362-1307q0-30-12.5-41.5t-42.5-11.5h-206q-30 0-42.5 11.5t-12.5 41.5v918q0 30 12.5 41.5t42.5 11.5h206q30 0 42.5-11.5t12.5-41.5z"/><path transform="translate(76.242 16.719) scale(.0078125 -.0078125)" d="m420-25q-107 0-177.5 18t-113 43.5-66.5 46.5q-18 17-4 38l102 151q22 32 50 4 29-28 78.5-54.5t123.5-26.5q66 0 108.5 22.5t42.5 65.5q0 30-19 49t-67 39-134 51q-127 46-192 111t-65 190q0 115 63.5 187t163 105.5 207.5 33.5q137 0 192.5-25.5t71.5-39.5q15-13 21-30 13-39 20-103 4-37-19-49-12-7-38-15t-52-14-39-6q-4 0-8.5 2.5t-15.5 12.5q-13 13-44.5 30t-86.5 17q-54 0-90.5-17.5t-36.5-61.5q0-48 46.5-72t153.5-62q84-29 146.5-63.5t96.5-90 34-149.5q0-122-66.5-196.5t-170-108-216.5-33.5z"/><path transform="translate(83.531 16.719) scale(.0078125 -.0078125)" d="m772 1049q146 0 240.5-65.5t141-180 46.5-262.5q0-160-54.5-288t-160.5-203-263-75q-81 0-133.5 18.5t-84 44-49.5 46.5h-4v-426q0-24-10-37-42-55-123-119-14-10-25-10-12 0-25 10-43 33-72.5 62t-50.5 57q-10 13-10 37v1233q0 24 10 37 21 28 50.5 57t72.5 62q13 10 27 10 13 0 27-10 42-33 72-63t53-62h5q17 21 52 51t99.5 53 168.5 23zm-123-819q108 0 167.5 75.5t59.5 218.5q0 270-222 270-94 0-139-38.5t-64-81.5v-217q0-97 50-162t148-65z"/><path transform="translate(93.531 16.719) scale(.0078125 -.0078125)" d="m266-21q-21-9-30-9t-19 7q-23 16-52.5 78.5t-29.5 192.5v1158q0 24 10 37 42 55 123 119 14 10 25 10 13 0 25-10 43-33 72.5-62t50.5-57q10-13 10-37v-1097q0-66 11-112.5t26-74.5q17-33-13-47z"/><path transform="translate(98.141 16.719) scale(.0078125 -.0078125)" d="m400-25q-147 0-233.5 82.5t-86.5 227.5q0 75 27.5 139.5t96 114 192 79.5 315.5 35q0 91-45.5 131t-136.5 40q-82 0-134-28t-65-38q-14-12-34-9-27 4-57.5 14t-65.5 23q-5 2-11 6.5t-7 13.5q0 5 1 12.5t5 27.5 12 49.5 15 45.5q9 17 30 32 17 14 103 45t249 31q449 0 449-437v-566q0-19-10.5-32.5t-35.5-13.5h-150q-16 0-28.5 4.5t-23.5 17.5l-62 80h-7q-46-67-123.5-97t-178.5-30zm110 232q92 0 139 47t60 97v111q-139 0-208.5-21.5t-92.5-56-23-74.5q0-58 36-80.5t89-22.5z"/><path transform="translate(107.16 16.719) scale(.0078125 -.0078125)" d="m167-481q-37 0-56 7.5t-32 18.5q-26 25-56 70-7 11-15 25.5t-8 24.5q0 11 5 20t12 17q16 21 39 43.5t39 35.5q11 9 18 11.5t12 2.5 15-2 30-2q69 0 144 45t148 169q-76 70-149.5 175.5t-132.5 229-94.5 246.5-35.5 227q0 22 11 35 46 57 131 119 15 10 27 10 13 0 27-10 46-33 77.5-62t53.5-57q11-13 11-37v4q0-79 19-167t52-171.5 74-151 85-107.5h5q20 38 44.5 109.5t46.5 159 36 174 14 153.5v-3q0 24 10 37 23 28 54 57t75 62q14 10 26 10 14 0 26-10 45-33 76-62t53-57q10-13 10-36-1-91-35-237.5t-99-317.5-158-335q-139-247-300-360t-335-113zm927 1365v-3 1q0 1 0 2zm-1044 0v-3z"/></svg>