<svg width="42.335" height="16.577" viewBox="0 0 42.335 16.577" xmlns="http://www.w3.org/2000/svg"><path transform="translate(0 13.774) scale(.0068359 -.0068359)" d="M182 0H40L266 1428H552L780 0H638L576 396H244ZM302 835 257 524H563L520 836L450 1300H371Z"/><path transform="translate(5.5986 13.774) scale(.0068359 -.0068359)" d="m368-281q-136 0-219 34t-88 107q0 8-1 19t-1 23q4 44 44.5 71t93.5 33v25q-99 21-102 86-1 17 0 34 1 34 31.5 57t68.5 27v25q-104 45-111 199-3 60-4.5 104.5t-0.5 90 5 107.5q5 119 69.5 172t206.5 53q104 0 165-24t88-75h28q7 86 129 86v-112h-35q-89 0-93-103l-2-79q2-58 2-105t-6-115q-5-121-68-173t-208-52q-84 1-122-13t-38-46v-8q2-29 42-41t133-14q149-4 228.5-42.5t86.5-127.5v-52q-7-94-96-132.5t-226-38.5zm-8 628q80 0 113.5 22t36.5 72q5 71 5 165.5t-5 172.5q-3 53-37 74t-113 21-113-21.5-38-74.5q-11-190 0-335 4-49 39-72.5t112-23.5zm11-522q86 0 140.5 16t58.5 57q1 11 0.5 20.5t-0.5 19.5q-4 43-57.5 55.5t-141.5 14.5q-85 2-135.5-13t-55.5-58v-39q5-44 56-58.5t135-14.5z"/><path transform="translate(10.876 13.774) scale(.0068359 -.0068359)" d="m309-12q-113 0-168 50t-58 165q-4 82-5.5 180t0 199 5.5 189q3 116 59.5 165.5t168.5 49.5q83 0 130.5-25.5t82.5-78.5h26v416h128v-1298h-128v92h-29q-34-50-81.5-77t-130.5-27zm37 109q151 0 204 91v598q-52 91-203 91-70 0-101.5-22.5t-32.5-72.5q-6-150-5-304.5t5-285.5q2-49 32.5-72t100.5-23z"/><path transform="translate(16.153 13.774) scale(.0068359 -.0068359)" d="m320-11q-122 0-180.5 48t-68.5 150q-1 20-2.5 40t0.5 39q7 89 56 149.5t186 110.5q56 20 118 36t123 31v185q0 49-37 72.5t-129 23.5q-80 0-121.5-20t-45.5-73q-2-25-2-71.5t2-78.5h-125q-2 25-4 65t1 71q5 116 75.5 167.5t224.5 51.5q161 0 223.5-56t63.5-184v-746h-126v92h-28q-25-50-71.5-76.5t-132.5-26.5zm32 108q144 0 199 86v303q-48-10-98.5-23.5t-118.5-36.5q-81-30-108-69t-31-91q1-15 1.5-32.5t2.5-36.5q7-48 48-74t105-26z"/><path transform="translate(21.403 13.774) scale(.0068359 -.0068359)" d="m362-12q-161 0-223.5 52t-67.5 170q-2 31-2.5 69.5t3.5 67.5h117q-2-46-1.5-84.5t1.5-65.5q1-55 38.5-76t134.5-21q99 0 139.5 21t43.5 76q3 34 4 50.5t0 47.5q-3 51-27 79t-104 40l-117 27q-90 19-139 48t-69 75.5-24 117.5q-3 36 5 79 2 121 65.5 173t231.5 52q161 0 223.5-51t68.5-168q0-30-0.5-68.5t-3.5-67.5h-121q5 35 4.5 80t-2.5 70q-1 53-36.5 73t-132.5 20q-98 0-133.5-20t-39.5-73q-1-25-3-41.5t-1-45.5q3-35 10.5-62t34-44.5 86.5-26.5l112-23q122-25 178-77.5t56-158.5q0-22-0.5-47t-2.5-48q-7-117-73.5-168t-232.5-51z"/><path transform="translate(26.428 13.774) scale(.0068359 -.0068359)" d="M248 1154H119V1298H248ZM248 0H118V973H248Z"/><path transform="translate(28.923 13.774) scale(.0068359 -.0068359)" d="m223 0h-129v973h129v-91h25q34 53 79.5 78.5t125.5 25.5q161 0 198-112h27q33 52 84 82t131 30q107 0 160-49.5t53-165.5v-771h-128v782q-2 50-31 72.5t-96 22.5q-133 0-185-94v-783h-128v782q-2 50-31 72.5t-94 22.5q-142 0-190-91z"/><path transform="translate(37.085 13.774) scale(.0068359 -.0068359)" d="m320-11q-122 0-180.5 48t-68.5 150q-1 20-2.5 40t0.5 39q7 89 56 149.5t186 110.5q56 20 118 36t123 31v185q0 49-37 72.5t-129 23.5q-80 0-121.5-20t-45.5-73q-2-25-2-71.5t2-78.5h-125q-2 25-4 65t1 71q5 116 75.5 167.5t224.5 51.5q161 0 223.5-56t63.5-184v-746h-126v92h-28q-25-50-71.5-76.5t-132.5-26.5zm32 108q144 0 199 86v303q-48-10-98.5-23.5t-118.5-36.5q-81-30-108-69t-31-91q1-15 1.5-32.5t2.5-36.5q7-48 48-74t105-26z"/></svg>