<svg width="111.98" height="19.136" viewBox="0 0 111.98 19.136" xmlns="http://www.w3.org/2000/svg"><path transform="translate(0 14.72) scale(.016 -.016)" d="m514-11q-31 0-52.5 26.5t-41.5 87.5q-10 30-16.5 58.5t-9.5 55.5q-13-20-23.5-26.5t-30.5-6.5q-49 0-104 1.5t-98 2.5q-2-18-3.5-36.5t-1.5-36.5q0-16 1.5-32t2.5-31q3-28-22-45t-62-17q-32 0-32 28 0 17 9 51 5 23 8 39.5t3 26.5q0 28-17 38-14 8-14 21 0 12 5.5 29t14.5 31.5 17 20.5q7 4 17 7t25 4q39 112 87.5 193.5t103.5 126 112 44.5q35 0 51-23.5t16-78.5v-45q0-101 15-186t37-138q22-56 61-92 12-10 16-17.5t4-15.5q0-15-11.5-30t-29.5-25-37-10zm-346 303q49 2 86 3.5t62 1.5h70q-2 28-3.5 59t-1.5 65v58q0 29-6.5 38.5t-24.5 9.5q-49 0-98-64t-84-171z"/><path transform="translate(9.584 14.72) scale(.016 -.016)" d="m76-11q-11 0-21 6.5t-8 17.5q15 80 25.5 162.5t10.5 166.5q0 74-5 134t-32 115q-5 11-8 19t-3 15q0 19 22 37t47 18q36 0 49-44t13-130q0-103-12-179.5t-21-116.5l4-2q20 49 51 94.5t71.5 75.5 88.5 30q47 0 72.5-28t25.5-67q0-46-33-82t-86-60q13-34 37-53.5t61-19.5q12 0 20 2 13 3 13-25 0-16-6-36t-23.5-34.5-52.5-14.5q-47 0-76.5 27.5t-46 68-25.5 80.5q-8 37 25 39 35 4 59 21t24 45q0 32-31 32-20 0-40.5-14.5t-38-34.5-28.5-39q-15-26-26-51t-18-50v-40q0-37-21.5-61t-56.5-24z"/><path transform="translate(17.584 14.72) scale(.016 -.016)" d="m162-13q-60 0-96.5 37.5t-36.5 107.5q0 50 19.5 99.5t56.5 89.5 89 64 117 24q60 0 102.5-20.5t42.5-55.5q0-9-2-23.5t-5-23.5q-3-8-8.5-14.5t-14.5-6.5q-4 0-15 3-4-21-6-41t-2-40q0-38 11.5-67.5t45.5-36.5q9-2 14.5-6t5.5-17q0-11-5.5-28t-21-30.5-44.5-13.5q-39 0-60 28.5t-21 81.5q-27-49-68.5-80t-97.5-31zm32 104q40 0 70.5 25t47.5 63q11 24 17 52.5t8 56.5q-17 8-39 13t-46 5q-61 0-100.5-36t-39.5-90q0-40 22-64.5t60-24.5z"/><path transform="translate(25.648 14.72) scale(.016 -.016)" d="m66-276q-41 0-70.5 22t-29.5 59q0 29 17.5 49.5t43.5 20.5q12 0 17-4t8-9q8-13 18.5-22.5t28.5-9.5q24 0 46.5 17t41.5 39q17 19 41 54.5t48 80.5q-22-19-41-27.5t-36-8.5q-21 0-41 15.5t-25 58.5q-3 33-11.5 73t-21 77.5-30.5 63.5q-7 12-16 18t-26 8q-12 1-15.5 7t-3.5 19q0 36 20 58t54 22q41 0 59-31.5t31-76.5q5-18 10.5-47.5t10-63.5 6.5-65q1-22 25-22 32 0 61 20t47.5 52 18.5 67q0 20-5 36t-17 28q-10 12-16 19.5t-6 17.5q0 17 16 32t38.5 25 39.5 10q30 0 40-28.5t5-62.5q-6-47-24-111t-46.5-134-65-135.5-77.5-114.5q-35-43-78-69.5t-90-26.5z"/><path transform="translate(33.376 14.72) scale(.016 -.016)" d="m162-13q-60 0-96.5 37.5t-36.5 107.5q0 50 19.5 99.5t56.5 89.5 89 64 117 24q60 0 102.5-20.5t42.5-55.5q0-9-2-23.5t-5-23.5q-3-8-8.5-14.5t-14.5-6.5q-4 0-15 3-4-21-6-41t-2-40q0-38 11.5-67.5t45.5-36.5q9-2 14.5-6t5.5-17q0-11-5.5-28t-21-30.5-44.5-13.5q-39 0-60 28.5t-21 81.5q-27-49-68.5-80t-97.5-31zm32 104q40 0 70.5 25t47.5 63q11 24 17 52.5t8 56.5q-17 8-39 13t-46 5q-61 0-100.5-36t-39.5-90q0-40 22-64.5t60-24.5z"/><path transform="translate(45.76 14.72) scale(.016 -.016)" d="m92-11q-27 0-34 12t-3 34q15 74 26 161t11 175q0 60-4.5 107t-29.5 88q-4 6-6.5 11.5t-2.5 9.5q0 13 14.5 25.5t34.5 21.5 38 9q24 0 34.5-16t12.5-39.5 2-47.5-2.5-53.5-5.5-64.5q-5-46-10-100.5t-5-113.5q0-67 5-109.5t7-55.5q3-17-10-29t-33-18.5-39-6.5zm381 2q-40 0-76.5 20t-68.5 52-57.5 70-44 75-27.5 65q-9 27-9 47 0 22 16 53 13 24 38 58t57.5 71 68 69 71.5 52 67 20q28 0 40.5-16.5t12.5-37.5q0-17-7-36t-19-32-28-13q-10 0-18.5 2.5t-21.5 2.5-30.5-5-38.5-19q-17-12-42-35.5t-51-53.5-48-64q14-34 38-68.5t50-64.5q47-54 90.5-79t106.5-25q13 0 17.5-6t4.5-19q0-29-21.5-56t-69.5-27z"/><path transform="translate(54.96 14.72) scale(.016 -.016)" d="m162-13q-60 0-96.5 37.5t-36.5 107.5q0 50 19.5 99.5t56.5 89.5 89 64 117 24q60 0 102.5-20.5t42.5-55.5q0-9-2-23.5t-5-23.5q-3-8-8.5-14.5t-14.5-6.5q-4 0-15 3-4-21-6-41t-2-40q0-38 11.5-67.5t45.5-36.5q9-2 14.5-6t5.5-17q0-11-5.5-28t-21-30.5-44.5-13.5q-39 0-60 28.5t-21 81.5q-27-49-68.5-80t-97.5-31zm32 104q40 0 70.5 25t47.5 63q11 24 17 52.5t8 56.5q-17 8-39 13t-46 5q-61 0-100.5-36t-39.5-90q0-40 22-64.5t60-24.5z"/><path transform="translate(63.024 14.72) scale(.016 -.016)" d="m94-11q-36 0-32 24 11 43 18.5 87.5t7.5 85.5q0 53-6.5 77.5t-17.5 34-27 14.5q-7 3-12.5 8t-5.5 14q0 14 11 31t31.5 29.5 46.5 12.5q34 0 47-23.5t13-61.5q0-25-5-56t-10-56l3-1q20 53 48.5 98.5t66.5 73.5 88 28q53 0 81-32t28-80q0-20-4.5-38t-9.5-35q-5-16-8.5-33t-3.5-34q0-57 54-77 14-6 14-18 0-9-6-26t-22-31.5-47-14.5q-40 0-62 28.5t-22 72.5q0 25 5.5 50.5t11.5 47.5q4 17 7.5 33.5t3.5 29.5q0 46-48 46-41 0-72-30.5t-53-76.5-36-93v-24q0-37-20.5-61t-55.5-24z"/><path transform="translate(71.6 14.72) scale(.016 -.016)" d="m162-13q-60 0-96.5 37.5t-36.5 107.5q0 50 19.5 99.5t56.5 89.5 89 64 117 24q60 0 102.5-20.5t42.5-55.5q0-9-2-23.5t-5-23.5q-3-8-8.5-14.5t-14.5-6.5q-4 0-15 3-4-21-6-41t-2-40q0-38 11.5-67.5t45.5-36.5q9-2 14.5-6t5.5-17q0-11-5.5-28t-21-30.5-44.5-13.5q-39 0-60 28.5t-21 81.5q-27-49-68.5-80t-97.5-31zm32 104q40 0 70.5 25t47.5 63q11 24 17 52.5t8 56.5q-17 8-39 13t-46 5q-61 0-100.5-36t-39.5-90q0-40 22-64.5t60-24.5z"/><path transform="translate(79.664 14.72) scale(.016 -.016)" d="m163-13q-60 0-94.5 40t-34.5 109q0 51 16.5 100t46.5 88 70 62 87 23q30 0 53.5-9t41.5-23q-1 68-7 122t-29 100q-4 8-6.5 14.5t-2.5 12.5q0 14 11.5 26t28.5 20 32 8q27 0 40.5-23.5t17.5-64 4-92.5q0-76-7-137t-13-107q-4-30-7-52t-3-36q0-71 61-84 16-3 16-21 0-11-6.5-28t-23.5-30.5-49-13.5q-43 0-58 29t-15 88q-28-51-71-86t-99-35zm31 107q28 0 56 18t50 49q13 19 23.5 43.5t19.5 49.5q-51 46-113 46-54 0-86-32.5t-32-80.5q0-41 24-67t58-26z"/><path transform="translate(87.856 14.72) scale(.016 -.016)" d="m162-13q-60 0-96.5 37.5t-36.5 107.5q0 50 19.5 99.5t56.5 89.5 89 64 117 24q60 0 102.5-20.5t42.5-55.5q0-9-2-23.5t-5-23.5q-3-8-8.5-14.5t-14.5-6.5q-4 0-15 3-4-21-6-41t-2-40q0-38 11.5-67.5t45.5-36.5q9-2 14.5-6t5.5-17q0-11-5.5-28t-21-30.5-44.5-13.5q-39 0-60 28.5t-21 81.5q-27-49-68.5-80t-97.5-31zm32 104q40 0 70.5 25t47.5 63q11 24 17 52.5t8 56.5q-17 8-39 13t-46 5q-61 0-100.5-36t-39.5-90q0-40 22-64.5t60-24.5z"/><path transform="translate(95.92 14.72) scale(.016 -.016)" d="m76-11q-11 0-21 6.5t-8 17.5q15 80 25.5 162.5t10.5 166.5q0 74-5 134t-32 115q-5 11-8 19t-3 15q0 19 22 37t47 18q36 0 49-44t13-130q0-103-12-179.5t-21-116.5l4-2q20 49 51 94.5t71.5 75.5 88.5 30q47 0 72.5-28t25.5-67q0-46-33-82t-86-60q13-34 37-53.5t61-19.5q12 0 20 2 13 3 13-25 0-16-6-36t-23.5-34.5-52.5-14.5q-47 0-76.5 27.5t-46 68-25.5 80.5q-8 37 25 39 35 4 59 21t24 45q0 32-31 32-20 0-40.5-14.5t-38-34.5-28.5-39q-15-26-26-51t-18-50v-40q0-37-21.5-61t-56.5-24z"/><path transform="translate(103.92 14.72) scale(.016 -.016)" d="m162-13q-60 0-96.5 37.5t-36.5 107.5q0 50 19.5 99.5t56.5 89.5 89 64 117 24q60 0 102.5-20.5t42.5-55.5q0-9-2-23.5t-5-23.5q-3-8-8.5-14.5t-14.5-6.5q-4 0-15 3-4-21-6-41t-2-40q0-38 11.5-67.5t45.5-36.5q9-2 14.5-6t5.5-17q0-11-5.5-28t-21-30.5-44.5-13.5q-39 0-60 28.5t-21 81.5q-27-49-68.5-80t-97.5-31zm32 104q40 0 70.5 25t47.5 63q11 24 17 52.5t8 56.5q-17 8-39 13t-46 5q-61 0-100.5-36t-39.5-90q0-40 22-64.5t60-24.5z"/></svg>