<svg width="106.51" height="19.136" viewBox="0 0 106.51 19.136" xmlns="http://www.w3.org/2000/svg"><path transform="translate(0 14.72) scale(.016 -.016)" d="m514-11q-31 0-52.5 26.5t-41.5 87.5q-10 30-16.5 58.5t-9.5 55.5q-13-20-23.5-26.5t-30.5-6.5q-49 0-104 1.5t-98 2.5q-2-18-3.5-36.5t-1.5-36.5q0-16 1.5-32t2.5-31q3-28-22-45t-62-17q-32 0-32 28 0 17 9 51 5 23 8 39.5t3 26.5q0 28-17 38-14 8-14 21 0 12 5.5 29t14.5 31.5 17 20.5q7 4 17 7t25 4q39 112 87.5 193.5t103.5 126 112 44.5q35 0 51-23.5t16-78.5v-45q0-101 15-186t37-138q22-56 61-92 12-10 16-17.5t4-15.5q0-15-11.5-30t-29.5-25-37-10zm-346 303q49 2 86 3.5t62 1.5h70q-2 28-3.5 59t-1.5 65v58q0 29-6.5 38.5t-24.5 9.5q-49 0-98-64t-84-171z"/><path transform="translate(9.584 14.72) scale(.016 -.016)" d="m76-11q-11 0-21 6.5t-8 17.5q15 80 25.5 162.5t10.5 166.5q0 74-5 134t-32 115q-5 11-8 19t-3 15q0 19 22 37t47 18q36 0 49-44t13-130q0-103-12-179.5t-21-116.5l4-2q20 49 51 94.5t71.5 75.5 88.5 30q47 0 72.5-28t25.5-67q0-46-33-82t-86-60q13-34 37-53.5t61-19.5q12 0 20 2 13 3 13-25 0-16-6-36t-23.5-34.5-52.5-14.5q-47 0-76.5 27.5t-46 68-25.5 80.5q-8 37 25 39 35 4 59 21t24 45q0 32-31 32-20 0-40.5-14.5t-38-34.5-28.5-39q-15-26-26-51t-18-50v-40q0-37-21.5-61t-56.5-24z"/><path transform="translate(17.584 14.72) scale(.016 -.016)" d="m162-13q-60 0-96.5 37.5t-36.5 107.5q0 50 19.5 99.5t56.5 89.5 89 64 117 24q60 0 102.5-20.5t42.5-55.5q0-9-2-23.5t-5-23.5q-3-8-8.5-14.5t-14.5-6.5q-4 0-15 3-4-21-6-41t-2-40q0-38 11.5-67.5t45.5-36.5q9-2 14.5-6t5.5-17q0-11-5.5-28t-21-30.5-44.5-13.5q-39 0-60 28.5t-21 81.5q-27-49-68.5-80t-97.5-31zm32 104q40 0 70.5 25t47.5 63q11 24 17 52.5t8 56.5q-17 8-39 13t-46 5q-61 0-100.5-36t-39.5-90q0-40 22-64.5t60-24.5z"/><path transform="translate(25.648 14.72) scale(.016 -.016)" d="m66-276q-41 0-70.5 22t-29.5 59q0 29 17.5 49.5t43.5 20.5q12 0 17-4t8-9q8-13 18.5-22.5t28.5-9.5q24 0 46.5 17t41.5 39q17 19 41 54.5t48 80.5q-22-19-41-27.5t-36-8.5q-21 0-41 15.5t-25 58.5q-3 33-11.5 73t-21 77.5-30.5 63.5q-7 12-16 18t-26 8q-12 1-15.5 7t-3.5 19q0 36 20 58t54 22q41 0 59-31.5t31-76.5q5-18 10.5-47.5t10-63.5 6.5-65q1-22 25-22 32 0 61 20t47.5 52 18.5 67q0 20-5 36t-17 28q-10 12-16 19.5t-6 17.5q0 17 16 32t38.5 25 39.5 10q30 0 40-28.5t5-62.5q-6-47-24-111t-46.5-134-65-135.5-77.5-114.5q-35-43-78-69.5t-90-26.5z"/><path transform="translate(33.376 14.72) scale(.016 -.016)" d="m162-13q-60 0-96.5 37.5t-36.5 107.5q0 50 19.5 99.5t56.5 89.5 89 64 117 24q60 0 102.5-20.5t42.5-55.5q0-9-2-23.5t-5-23.5q-3-8-8.5-14.5t-14.5-6.5q-4 0-15 3-4-21-6-41t-2-40q0-38 11.5-67.5t45.5-36.5q9-2 14.5-6t5.5-17q0-11-5.5-28t-21-30.5-44.5-13.5q-39 0-60 28.5t-21 81.5q-27-49-68.5-80t-97.5-31zm32 104q40 0 70.5 25t47.5 63q11 24 17 52.5t8 56.5q-17 8-39 13t-46 5q-61 0-100.5-36t-39.5-90q0-40 22-64.5t60-24.5z"/><path transform="translate(46.08 14.72) scale(.016 -.016)" d="m231-10q-12 0-24.5 4t-20.5 19-8 46q0 22 3.5 54t9.5 69q8 50 13.5 105.5t5.5 113.5q0 47-4.5 81.5t-11.5 53.5q-38-1-72-5t-69-13q-9-1-15.5-2.5t-12.5-1.5q-9 0-13 3.5t-4 17.5q0 17 5 35.5t15 31.5q10 14 23.5 20.5t29.5 8.5q25 3 64 5.5t85.5 4.5 91.5 2q73 0 104.5-1t42.5-3q14-2 19.5-8.5t5.5-20.5q0-27-24-54-10-12-21-18.5t-29-5.5q-16 2-47 3t-69 1q-1-35-5.5-81.5t-10.5-93.5q-6-46-10-92t-4-84q0-35 6.5-61.5t26.5-45.5q14-14 14-30 0-22-25-40t-65-18z"/><path transform="translate(53.92 14.72) scale(.016 -.016)" d="m195-13q-76 0-118.5 43.5t-42.5 121.5q0 71 31 129t83.5 92.5 115.5 34.5q60 0 96-29.5t36-78.5q0-39-24-72t-64-52.5-89-19.5q-60 0-98 27 1-46 31.5-74t78.5-28q29 0 59.5 10.5t52.5 28.5q14 12 26 12 10 0 16.5-6.5t6.5-16.5q0-22-38-58-67-64-159-64zm15 235q36 0 60 15t24 38q0 19-16 29.5t-44 10.5q-37 0-64.5-19.5t-39.5-54.5q14-9 36-14t44-5z"/><path transform="translate(60.88 14.72) scale(.016 -.016)" d="m112-10q-29 0-43 16t-14 56q0 19 3 49t7 65q6 43 10.5 90t4.5 90q0 61-5.5 126.5t-30.5 114.5q-9 20-9 29 0 13 11.5 25t28.5 20.5 33 8.5q26 0 39-23.5t17-64 4-92.5q0-79-6.5-137t-12.5-102q-4-29-7.5-55t-3.5-47q0-35 11.5-50.5t37.5-30.5q7-4 10.5-7.5t3.5-10.5q0-8-8-25t-27.5-31-53.5-14z"/><path transform="translate(64.528 14.72) scale(.016 -.016)" d="m122 497q-28 1-45 17t-17 45q1 31 21 50.5t51 18.5q29-1 45.5-17t15.5-45q-1-30-20-49.5t-51-19.5zm1-507q-30 0-47 16.5t-17 56.5q0 23 4.5 45t10.5 43q7 22 11.5 45t4.5 49q0 18-5 34.5t-22 24.5q-13 7-22.5 14.5t-9.5 19.5q0 14 13 30t34.5 27.5 44.5 11.5q25 0 36.5-13t15.5-33 4-41q0-32-5-62.5t-10-56.5q-4-19-6-35t-2-30q0-25 12-37.5t34-23.5q9-5 9-15 0-8-8-25t-27.5-31-52.5-14z"/><path transform="translate(68.496 14.72) scale(.016 -.016)" d="m179-14q-27 0-46.5 16.5t-23.5 61.5q-2 34-8.5 75t-16.5 78-23 58q-7 11-15.5 16.5t-25.5 7.5q-11 1-15 7t-4 19q0 41 22.5 60.5t51.5 19.5q30 0 50-19.5t31-51.5 15.5-70.5 4.5-77.5q0-16-0.5-33.5t-0.5-29.5q0-11 4.5-17t17.5-6q16 0 37 9.5t41.5 27.5 34 42.5 13.5 54.5q0 17-5.5 36t-17.5 32-17.5 20.5-5.5 17.5q0 18 16.5 33t39 24 39.5 9q29 0 37-24t8-53q0-55-20-115t-54-112-76.5-84-87.5-32z"/><path transform="translate(75.648 14.72) scale(.016 -.016)" d="m122 497q-28 1-45 17t-17 45q1 31 21 50.5t51 18.5q29-1 45.5-17t15.5-45q-1-30-20-49.5t-51-19.5zm1-507q-30 0-47 16.5t-17 56.5q0 23 4.5 45t10.5 43q7 22 11.5 45t4.5 49q0 18-5 34.5t-22 24.5q-13 7-22.5 14.5t-9.5 19.5q0 14 13 30t34.5 27.5 44.5 11.5q25 0 36.5-13t15.5-33 4-41q0-32-5-62.5t-10-56.5q-4-19-6-35t-2-30q0-25 12-37.5t34-23.5q9-5 9-15 0-8-8-25t-27.5-31-52.5-14z"/><path transform="translate(79.616 14.72) scale(.016 -.016)" d="m168-276q-75 0-119 31t-44 80q0 36 22.5 64t59.5 28q21 0 21-12 0-7-2.5-16t-2.5-18q0-28 32-41.5t77-13.5q28 0 57 6t48.5 18.5 19.5 33.5q0 23-23 34t-58 16.5-71.5 10-62.5 14.5q-33 11-49 27t-16 41q0 47 57 75-33 17-49.5 48t-16.5 69q0 49 25.5 92t76 70.5 126.5 27.5q34 0 69-6.5t58.5-24 23.5-50.5q0-12-5-26.5t-19-14.5q-6 0-16 2.5t-18 4.5q2-10 3.5-22t1.5-25q0-59-40-106.5t-117-56.5q-28-2-41.5-6.5t-13.5-15.5q0-10 12-14.5t31-6.5q61-5 108-17t73.5-38.5 26.5-75.5q0-57-33.5-98.5t-89.5-64.5-122-23zm38 447q46 0 72 25t26 65q0 11-2 22.5t-4 19.5q-16 5-31 6.5t-29 1.5q-53 0-83-20t-30-55q0-31 22-48t59-17z"/><path transform="translate(86.736 14.72) scale(.016 -.016)" d="m162-13q-60 0-96.5 37.5t-36.5 107.5q0 50 19.5 99.5t56.5 89.5 89 64 117 24q60 0 102.5-20.5t42.5-55.5q0-9-2-23.5t-5-23.5q-3-8-8.5-14.5t-14.5-6.5q-4 0-15 3-4-21-6-41t-2-40q0-38 11.5-67.5t45.5-36.5q9-2 14.5-6t5.5-17q0-11-5.5-28t-21-30.5-44.5-13.5q-39 0-60 28.5t-21 81.5q-27-49-68.5-80t-97.5-31zm32 104q40 0 70.5 25t47.5 63q11 24 17 52.5t8 56.5q-17 8-39 13t-46 5q-61 0-100.5-36t-39.5-90q0-40 22-64.5t60-24.5z"/><path transform="translate(94.8 14.72) scale(.016 -.016)" d="m112-10q-29 0-43 16t-14 56q0 19 3 49t7 65q6 43 10.5 90t4.5 90q0 61-5.5 126.5t-30.5 114.5q-9 20-9 29 0 13 11.5 25t28.5 20.5 33 8.5q26 0 39-23.5t17-64 4-92.5q0-79-6.5-137t-12.5-102q-4-29-7.5-55t-3.5-47q0-35 11.5-50.5t37.5-30.5q7-4 10.5-7.5t3.5-10.5q0-8-8-25t-27.5-31-53.5-14z"/><path transform="translate(98.448 14.72) scale(.016 -.016)" d="m162-13q-60 0-96.5 37.5t-36.5 107.5q0 50 19.5 99.5t56.5 89.5 89 64 117 24q60 0 102.5-20.5t42.5-55.5q0-9-2-23.5t-5-23.5q-3-8-8.5-14.5t-14.5-6.5q-4 0-15 3-4-21-6-41t-2-40q0-38 11.5-67.5t45.5-36.5q9-2 14.5-6t5.5-17q0-11-5.5-28t-21-30.5-44.5-13.5q-39 0-60 28.5t-21 81.5q-27-49-68.5-80t-97.5-31zm32 104q40 0 70.5 25t47.5 63q11 24 17 52.5t8 56.5q-17 8-39 13t-46 5q-61 0-100.5-36t-39.5-90q0-40 22-64.5t60-24.5z"/></svg>