<svg width="40.922" height="15.386" viewBox="0 0 40.922 15.386" xmlns="http://www.w3.org/2000/svg"><path transform="translate(0 10.99) scale(.014 -.014)" d="m347 716q-2 3-5.5 9.5t-1.5 8.5 6.5-1 5.5-4q18-13 33.5-36t28-50.5 22.5-57.5 16-57q15-66 25.5-130t10.5-132q0-2 0.5-12t-3.5-12q-3 2-6.5 10t-4.5 11q-12 37-21.5 84.5t-17.5 86.5q-6 30-11 57.5t-11.5 53.5-15 52.5-20.5 55.5q-2 4-6.5 14t-9.5 20-9 18.5-5 10.5zm240-741q-11 6-15 7.5t-15 8.5q-24 14-44 36.5t-36 49.5-28.5 57.5-21.5 60.5q-20-13-47.5-15.5t-50.5-2.5q-29 0-57.5 2t-57.5 2q-28-52-52.5-100.5t-38.5-90.5q0-1-1-4.5t-3-3.5q-3 0-3 7t0 9q0 40 19.5 89.5t43.5 97.5l-15 1q-6-14-16.5-39t-20-52-17-52-7.5-40q0-3-3-3-4 0-6 6.5t-3.5 14.5-2 16.5-0.5 11.5q0 35 9 73.5t24 70.5l-13 2q-9-22-17-43.5t-14-44.5q0-2-1-5t-3-2q-2 4-2.5 9.5t-0.5 9.5q0 42 15 81 5 10 10 10 21 6 42.5 7t44.5 1q50 0 99-7.5t98-7.5q24 0 44 4l-2 16q-11-3-23.5-4t-23.5-1q-39 0-80.5 8t-79.5 19q-2 2-8 3.5t-6 4.5q0 2 6 3.5t8 1.5q14 1 27.5 1.5t27.5 0.5q23 0 46-0.5t47-0.5q12 0 25 0t25 1l-2 11h-13q-48 0-95.5 9t-95.5 9q-41 0-72.5-10t-54-23-36.5-26-20-19q-2-1-2-1-1 0-1 2 0 1 1 2 18 35 44 58.5t64 35.5q38 81 78.5 161t85.5 158q1 2 4 6.5t6 4.5q1-1 1-2v-2q0-8-1-12-19-81-56-156t-76-148l19 1q3 6 15.5 26t27 41.5 26.5 39 15 17.5l1-3q0-5-6-22t-14-37-15.5-37.5-10.5-24.5q6 0 12-0.5t12-0.5q18 36 38.5 75.5t35.5 80.5 20.5 83-6.5 83q0-5-2.5-20t-6.5-31.5-8-29-8-12.5q-3 0-2.5 4t0.5 5q0 26 3.5 51.5t3.5 51.5q0 35-11 68 0 1-3 8.5t2 7.5q2 0 7-5 10-10 19.5-27t17.5-36.5 15-38.5 11-32q13-43 21.5-86.5t15-87 13.5-87.5 16-87q9-42 21.5-82t30.5-76 41.5-66.5 54.5-53.5q5-5 3.5-6.5t-9.5 3.5zm-2 85q1-6-1-5.5t-4.5 3.5-5 7-2.5 5q-24 44-38 89.5t-22 92-13.5 94-13 97-19.5 100.5-34 104q-1 2-3 7t0 6q2 0 5-3l4-4q22-26 39-69t30-92 21.5-97 13.5-84q8-57 17-120t23-119zm-297 254q29-3 57.5-7t57.5-6q-11 53-19 105t-15 106q-13-52-35.5-101t-45.5-97zm329-328q-20 9-35 17.5t-26 23.5q-17 23-26.5 46t-15.5 43q-2 8-3.5 18t0.5 10q4 0 10-13t11-22q15-31 38-62.5t50-51.5q8-7 5-9t-8 0zm-591 192t-2 0h-1q0 3 1 6t2 6q8 17 15.5 25.5t24.5 18.5q10 6 28 12t29 6q2 0 5.5-0.5t3.5-3.5-10.5-8-13.5-7q-38-23-56-35t-26-20z"/><path transform="translate(8.68 10.99) scale(.014 -.014)" d="m391 467q4-16 1.5-32t-8-30-14-24.5-16.5-16.5q-24-17-54-31.5t-59-25.5q-2-1-7-2.5t-7 1.5q-1 1 1.5 5t3.5 5q10 12 27 26t30 22q4 3 19.5 15t32 28.5 30.5 33.5 15 29q0 2 0.5 2.5t0.5 1.5 1 1q2-1 2.5-3.5t0.5-4.5zm-188 81q-14-61-37-123.5t-49-116.5q-2-5-5.5-13.5t-6.5-8.5q-2 2-1.5 10.5t1.5 11.5q3 15 8 38t11.5 49 13 51 12.5 44q20 67 26 132.5t-5 125.5q-1 4-0.5 6t0.5 3q5 2 9-6 12-16 19-41.5t9.5-54 1-57-6.5-50.5zm-58 225q20-49 18-104.5t-16-114.5-34.5-119.5-37.5-119.5q-11-37-17.5-78.5t-6.5-83 8-80.5 27-72q3-5-0.5-4t-5.5 3q-25 31-37.5 71.5t-15 85.5 3.5 92 18 89q18 59 36.5 117t32.5 113 20.5 106.5-0.5 98.5q0 2-0.5 4.5t1.5 2.5 3.5-2.5 2.5-4.5zm265-748q8-2 6-5t-5-4q-31-8-60-3t-48 19q-25 18-43.5 47t-35.5 55q-1 2-3 5.5t-1 5.5q2 3 5.5 1.5t4.5-2.5q13-6 31.5-19t27.5-24q8-9 22-21.5t30.5-23.5 34.5-20 34-11zm32 22q5-1 2.5-3t-6.5-2q-32-6-57 6.5t-46.5 33-42 44.5-43.5 43q-29 23-71.5 33t-91.5-9q-5-2-4 1t3 5q9 6 19 11.5t19 8.5q12 53 29 105.5t34 107.5q16 51 29 107t11 119q0 6 2 6t2.5-3 2.5-5q10-21 10-56t-6-75.5-16-82.5-20-76q20 21 44.5 35.5t49 28 45.5 30.5 34 43q0 1 0.5 2t1.5-1q0-1 0.5-3t0.5-4q-2-32-19-53.5t-41-38.5-52-32-52-33q-29-22-39-53t-17-61q5 7 10.5 15.5t10.5 16 9 11.5 6 2q1-1-0.5-6.5t-3.5-12.5-4-14-3-11q5-1 8.5-1t6.5-1q23 33 54 55.5t65 42.5q23 14 44.5 30t38.5 42q1 3 3 1 1-1 0.5-2.5t0.5-4.5q1-21-12-40t-32-35-39-29-31-22q-16-12-35-22.5t-36-19.5q30-10 56-32 23-18 43-40.5t40-43.5 40.5-37 44.5-21zm-314 95q-2-6-5.5-17t-5.5-21q-2-5-2.5-10t-2.5-4q-3 1-4.5 8t-1.5 12q0 7 0 16t1.5 16.5 6 12.5 13.5 5q13-1 28.5-9.5t31.5-22 32-30 32-33.5q17-19 37.5-38.5t49.5-27.5q4-2 4-3.5t-5-1.5q-20 0-40.5 8.5t-40 21-36 26.5-28.5 25q-17 16-33.5 34t-30.5 33zm-12-141q2-3-0.5-4t-7.5 3q-12 11-22 26.5t-15 47.5q-4 19-5.5 40.5t3.5 38.5 19 28.5 41 11.5q7 0 16-2t16.5-4.5 12-6 1.5-6.5q-1-3-10.5-2t-11.5 1q-12 2-23.5 2.5t-20.5-2.5-14.5-11.5-5.5-24.5q0-34 6-64 4-20 8.5-37.5t12.5-34.5z"/><path transform="translate(14.49 10.99) scale(.014 -.014)" d="m145 333q-8-34-22.5-71.5t-32.5-69.5q0-2-2.5-6.5t-6.5-4.5q-2 0-2.5 6t0.5 8q0 16 4 42.5t10 43.5q2 6 6.5 29t8 51.5 4 55-6.5 39.5v4q4 3 9-2 13-11 20.5-27t11-33.5 3-34.5-3.5-30zm39 4q11 14 21 20t20 10q1 0 5 1t6-2-1-7-5-6q-7-7-15.5-15.5t-15.5-16.5q-10-11-16-25.5t-9-29.5q17 18 32.5 34t33.5 30q23 17 40 44t24 79q2 5 5 6t3-7q3-58-12-92t-45-57q-16-12-32-26t-30.5-31-26.5-40-21-53q-7-23-14-43.5t-15-39.5q-2-7-6-7-3 1-3 10-5 48 6.5 95.5t27.5 98.5q7 25 16.5 50t8.5 57q0 11 9 23t22 22.5 27 18 24 10.5q9 3 9-1t-6-10q-21-19-42.5-45t-24.5-55zm-87-336q-1-1-1.5-0.5t-5.5 3.5q-30 22-47 48t-24.5 53.5-6.5 55 7 53.5q8 35 19.5 69.5t21.5 67 15 64 0 60.5q0 2 3 3 1 0 2-1.5t2-2.5q19-32 19-65.5t-9-68-22.5-70-21.5-71.5q-10-46-1.5-98t46.5-93q2-3 4-4t0-3zm30-1q-2 0-4 1l-4 2q-14 9-25 19.5t-19 30.5q-3 7-5 18.5t-2.5 21.5 1 17 5.5 6q3 0 6.5-8t5.5-16q2-11 4.5-21t6.5-18q11-25 29-48 2-5 1-5zm163 449q0-21-12-37t-29-27q-3-2-4 0.5t-1 3.5q0 6 5 14.5t11.5 18 12.5 19.5 8 18q3 5 6 0t3-10z"/><path transform="translate(18.55 10.99) scale(.014 -.014)" d="m336 277q3 27 1 57t-12.5 55.5-32 42.5-56.5 17q-47 0-82-25.5t-60-63-39-80-18-77.5q-6-48-1.5-83t16.5-57.5 30.5-33.5 40.5-11q31-1 65.5 17.5t64.5 52 52.5 82 30.5 107.5zm-322-69q4 40 20 88t44.5 89 68.5 68.5 93 27.5q40 0 66-19t40-48.5 18-64 0-65.5q-9-72-35-125t-61-88.5-74-53-75-17.5q-27 0-48.5 12t-36 37.5-20 65-0.5 93.5zm112-141q-5 0-10 3.5t-8 8.5-4 10 4 7q3 1 8-7t11-8q10 0 23.5 13t26 30.5 22 34.5 13.5 25 8 20.5 7.5 25.5 6 25.5 3.5 21.5q5 45-2 69.5t-23 24.5q-12 0-25-7.5t-24.5-19.5-20.5-26.5-13-29.5q-5-17-7-17-3 0-3 17 3 19 13 37.5t25 33 33 24 37 9.5 28.5-13.5 13.5-33 3.5-40-2.5-32.5q-4-27-12.5-52.5t-20.5-51.5q-6-12-18-29.5t-27.5-33.5-33-27.5-32.5-11.5zm32-19q1-6-9.5-10t-21.5-4q-31 1-47.5 20t-23 45-6 54 2.5 47q4 33 16 74t34 77 54 60.5 76 24.5q29 0 46.5-15t26-37 10-47.5-1.5-46.5q-2-23-7-42t-14-42q-3-7-8-16t-11-8q-3 1-1.5 8t4 17.5 5.5 22 4 21.5q2 17 2.5 42.5t-4 49.5-16.5 41-36 17q-35 0-64.5-22.5t-51.5-55-35.5-68-16.5-62.5q-2-16-1-40t7.5-47.5 21.5-40.5 41-18q8-1 15.5 1.5t9.5-0.5z"/><path transform="translate(23.688 10.99) scale(.014 -.014)" d="m352 359q2-31-4-59.5t-15-52.5q-2-5-6.5-11t-8.5-4q-2 0-1 7t1 10q1 11 1.5 27.5t0.5 33.5-1.5 32.5-4.5 26.5q-9 32-28.5 35.5t-39.5-10.5-38-39-24-49q6 9 15.5 21.5t21.5 24 25.5 19 25.5 6.5q13-1 18.5-14t6.5-32-2-41-7-41q-7-31-12-64t-3.5-64.5 11-61 32.5-54.5q2-3 3-5t-5 1q-26 15-41.5 35t-23.5 43-9.5 48 0.5 50q4 36 12 63t12 61q2 21-3 27.5t-12 7.5q-10 1-22.5-10.5t-26-32.5-26-49-21.5-59q-8-31-19.5-64.5t-21.5-57.5q-4-9-6-9t-3.5 4-1.5 6q-4 50 9 99t30 99q10 31 18 55t8 61q0 16 8 33.5t23.5 32 38.5 23.5 52 8q48-1 74-22.5t36.5-54.5 9-71.5-8.5-74.5q-6-27-14-49t-17-41-17-36-13-34q-1-3-2-6.5t-3-3.5-3 4-1 9q-2 34 7 65.5t19 65 15 70.5-4 82q-9 48-44 64t-80-2q-6-3-16-9t-19.5-16-17.5-23.5-10-29.5q12 18 28 34t34 25.5 36.5 11.5 36.5-7q21-11 29-30.5t9-36.5zm-204-27q-11-38-29.5-75t-30.5-71q-1-2-3.5-7.5t-6.5-4.5q-2 1-2.5 6.5t-0.5 8.5q0 16 5.5 42.5t11.5 43.5q2 6 7.5 30.5t10 53.5 6 56-5.5 39q-4 7 0 7 3 0 8-5 12-11 19.5-27t11-33.5 3-34.5-3.5-29zm204-331q-2-1-8 1-3 1-5 2-14 9-24 20.5t-20 39.5q-3 10-4.5 25.5t-0.5 30.5 3.5 25.5 7.5 10.5q2 0 4.5-11.5t5-26.5 5.5-30 5-22q5-15 10-30t16-26q2-2 4-5.5t1-3.5zm-270-2q-31 21-47.5 46t-22.5 52-4.5 55 7.5 55q8 36 20.5 71.5t24 69 18 65.5 1.5 61q0 4 1 4 2 0 5-5 18-32 17-66t-11-69.5-24.5-72-22.5-73.5q-5-23-6.5-48.5t3.5-50.5 16.5-49 31.5-43q4-2 2-4t-4.5-0.5-4.5 2.5zm38-4q-3-2-8 3-11 8-21.5 17t-20.5 29q-4 7-6 18t-2 21.5 1.5 17.5 4.5 7q4-1 6.5-11t4.5-13q4-11 7-20.5t7-18.5q6-14 12-24t14-20q1-1 2-3t-1-3z"/><path transform="translate(29.456 10.99) scale(.014 -.014)" d="m165 330q3 13 3.5 30t-2.5 35-10.5 34.5-19.5 28.5q-6 4-7 4-4 0 0-6 6-13 4.5-40.5t-6.5-57-10.5-53-6.5-28.5q-7-18-12.5-45t-5.5-44q-1-2-1-8t3-7q1 0 4 5t5 7q18 32 34.5 70t27.5 75zm4-151q4 18 13 46.5t15 59 6 60-12 48.5q-4 4-6 4t-1-4q0-38-8.5-70.5t-18.5-63.5q-17-51-31-99.5t-12-99.5q0-3 0.5-6.5t3.5-3.5q2 0 3 2t3 6q10 24 23 56.5t22 64.5zm-71-179q-19 20-29 44.5t-14 50-2 51.5 8 49q9 36 23 72t24 71.5 11.5 70-14.5 67.5q-3 5-4 5t-1-1.5 1-2.5q3-30-4-62t-18-65.5-24.5-69-22.5-72.5q-7-27-9.5-55t3.5-55.5 22-52.5 46-46q2-2 5-2.5t-1 3.5zm8 38q-3 8-6.5 20t-5.5 23q-2 4-5 15t-5 11q-4 0-5.5-7t-1.5-17.5 1.5-22 4.5-19.5q6-20 14.5-28t22.5-13q6-3 9-3 1 0 0.5 1.5t-1.5 1.5q-7 8-12.5 17t-9.5 21zm78 517q-5 0-15.5 1.5t-10.5 9.5q0 3 9 7.5t20 13 20 22 9 34.5q0 26-10 39-2 3-5 6.5t-2 4.5q2 0 4.5-1.5t3.5-2.5q20-11 30.5-28.5t10.5-33.5q0-32-15-52t-49-20zm-37 40q-12-5-12 6 0 8 6 15.5t11.5 16.5 7.5 20.5-6 28.5q-2 5-7 11t-3 7 8.5-1.5 8.5-3.5q17-8 25.5-24t8.5-28q0-19-15.5-31.5t-32.5-16.5zm-29 54q0 5 3 11.5t10 6.5q5 0 8-6.5t3-11.5q0-4-3-10.5t-8-6.5q-7 0-10 6t-3 11z"/><path transform="translate(32.354 10.99) scale(.014 -.014)" d="m279 253q-14-60-19-125t8-126q1-2-0.5-4.5t-3.5 2.5q-17 33-23.5 67t-6.5 67.5 5 67.5 13 67q1 4 4 16.5t4.5 25-0.5 19.5-12 0q-23-17-42.5-42.5t-31.5-49.5q-1-2-4.5-11.5t-7-20.5-6.5-21.5-4-13.5q-8-31-20-59t-20-52q-3-10-4-9-5 0-5 9-5 49 8.5 94.5t29.5 93.5q10 31 18.5 61.5t7.5 67.5q-1 26 19.5 51t61.5 42q24 10 45 9t39-9 32-23 23-33q6 11 18 23.5t28.5 21.5 37 13.5 45.5 0.5q18-3 31.5-12t24-20.5 16.5-23.5 9-20q11-33 11.5-74t-8.5-74q-15-54-35.5-96t-27.5-75q-3-11-4-11-4 0-4.5 4t-1.5 8q-2 21 5.5 53.5t17.5 70 18 76.5 7 72.5-15 58.5-48 34q-27 7-47.5 0.5t-34.5-14.5q-21-14-27-29.5t-6-29.5q17 31 45 49.5t66 6.5q25-8 35.5-30t11.5-49-5.5-54-15.5-45q-1-2-5-9.5t-9-6.5q-1 0-0.5 8t0.5 12q3 12 4 28t0.5 33-2.5 33-6 27q-5 14-15.5 18.5t-22.5 2.5-23.5-8-19.5-13q-22-19-27-34.5t-8-35.5q12 20 29.5 37.5t34.5 28.5q9 4 15.5 3t11-5.5 6.5-11 3-11.5q3-33-2.5-58t-13-51.5-12-59 1.5-80.5q5-35 21-63t40-35q7-2 3.5-3t-5.5-1q-18 2-34 14t-28.5 30-20.5 40-9 44q-3 45 5.5 85.5t16.5 69.5q2 8 4.5 20.5t2 21.5-6.5 10.5-20-11.5q-20-18-35-39t-22-47q-23-83-66-159-2-4-5-7.5t-4-2.5q-2 0-1 5t2 10q6 35 15 68t17.5 67.5 15 71 7.5 78.5q-2 14-5.5 29t-20.5 35q-20 22-47 23t-44-5q-11-3-23.5-11t-23-19-17-25.5-3.5-31.5q11 20 25.5 39t37.5 29q7 3 18 5.5t23 3 24-3.5 21-15q16-20 17.5-36t0.5-32q-2-29-9-54.5t-18-48.5q-1-3-5-9.5t-6-6.5q-2 1-2.5 8.5t1.5 10.5q1 11 3 32.5t2.5 45-2.5 43-13 27.5q-9 7-27 4t-32-14-23.5-21-15.5-20.5-10.5-23-7.5-29.5q12 23 28 43t39 34q16 11 25 9t12.5-11 3-23-1.5-26q-2-16-5-33t-7-32zm286-255t-5 0q-2 0-5 1-14 3-30 12.5t-27 35.5q-4 10-6 26t-2 31 2 26 6 10q1 0 2.5-4.5t2.5-10.5 2-12 1-9q2-14 5-27.5t8-24.5q5-15 18.5-31.5t24.5-18.5q5-2 3-4zm-269 2q2-7 0-7-5 0-8 5-5 6-10 17.5t-4 39.5q0 11 2 26.5t4.5 29 5.5 22.5 7 8q1 0 1.5-4.5t1-10.5 0.5-11.5 0-7.5q0-16-1-28.5t-1-26.5q0-19 0-32t2-20zm-148 332q-11-38-29.5-75t-30.5-71q-1-2-3.5-7.5t-6.5-4.5q-2 1-2.5 6.5t-0.5 8.5q0 16 5.5 42.5t11.5 43.5q2 6 7.5 30.5t10 53.5 6 56-5.5 39q-4 7 0 7 3 0 8-5 12-11 19.5-27t11-33.5 3-34.5-3.5-29zm-66-333q-31 21-47.5 46t-22.5 52-4.5 55 7.5 55q8 36 20.5 71.5t24 69 18 65.5 1.5 61q0 4 1 4 2 0 5-5 18-32 17-66t-11-69.5-24.5-72-22.5-73.5q-5-23-6.5-48.5t3.5-50.5 16.5-49 31.5-43q4-2 2-4t-4.5-0.5-4.5 2.5zm38-4q-3-2-8 3-11 8-21.5 17t-20.5 29q-4 7-6 18t-2 21.5 1.5 17.5 4.5 7q4-1 6.5-11t4.5-13q4-11 7-20.5t7-18.5q6-14 12-24t14-20q1-1 2-3t-1-3z"/></svg>