<svg width="36.876" height="19.32" viewBox="0 0 36.876 19.32" xmlns="http://www.w3.org/2000/svg"><path transform="translate(0 13.86) scale(.014 -.014)" d="M131 141V219H387V141ZM292 705 120 0H30L202 705ZM294 705 466 0H377L204 705Z"/><path transform="translate(6.944 13.86) scale(.014 -.014)" d="M314 0 135 279 222 308 409 0ZM138 180 68 227 287 505H397ZM60 0V720H151V0Z"/><path transform="translate(13.02 13.86) scale(.014 -.014)" d="m299 130q0 25-18 41.5t-46.5 30-60 27.5-60 32.5-46.5 47-18 69.5q0 0 8.5 0t22 0 26.5 0 22 0 9 0q0-25 18-41.5t46.5-29.5 60.5-27.5 60-33.5 46.5-46.5 18.5-69.5q0 0-9 0t-22.5 0-26.5 0-22 0-9 0zm-85-145v79q37 0 61 18.5t24 47.5h89q0-42-22.5-75t-61.5-51.5-90-18.5zm-164 393q0 41 20.5 73.5t57.5 51 82 18.5v-79q-31 0-51.5-18t-20.5-46zm69-227q5-44 32-65.5t63-21.5v-79q-46 0-85 19t-63.5 53-30.5 77zm185 204q-5 45-31.5 66t-62.5 21v79q47 0 85-19t63-52.5 31-77.5z"/><path transform="translate(18.956 13.86) scale(.014 -.014)" d="m60 0v505h91v-505zm281 0v344h91v-344zm0 344q0 42-26 68.5t-67 26.5l23 81q46 0 82.5-23t57.5-63 21-90zm-230-2q0 51 21 91.5t57 63.5 82 23l-23-81q-43 0-70-27t-27-70zm-51-342v720h91v-720z"/><path transform="translate(25.634 13.86) scale(.014 -.014)" d="m330 0v344h91v-344zm-122-15 7 75q36 0 61.5 18t39.5 53 14 83l45 2q0-68-22-120t-59.5-81.5-85.5-29.5zm0 0q-45 0-82 21t-59 57.5-22 81.5l86 3q0-38 25.5-63t58.5-25zm-163 160q0 47 23.5 82.5t63.5 56.5 91 21l5-70q-42 0-69.5-24.5t-27.5-62.5zm183 90-5 70h154v-70zm102-21v129h45v-127zm91 128h-91q0 44-26.5 72t-68.5 28v78q54 0 95.5-23t66-63.5 24.5-91.5zm-280 12-84 17q6 45 30.5 78t63 52 85.5 19v-78q-37 0-63.5-21.5t-31.5-66.5z"/><path transform="translate(32.158 13.86) scale(.014 -.014)" d="m60 0v505h91v-505zm50 338q0 51 17 91.5t46.5 63.5 65.5 23l-8-85q-35 0-57.5-26.5t-22.5-66.5zm181 70q-12 10-28.5 16.5t-31.5 6.5l8 85q23 0 45-8.5t38-23.5z"/></svg>