<svg width="26.88" height="19.2" viewBox="0 0 26.88 19.2" xmlns="http://www.w3.org/2000/svg"><path transform="translate(0 15.2) scale(.016 -.016)" d="M408 700 670 0H560L498 174H196L134 0H30L290 700ZM230 266H466L348 598Z"/><path transform="translate(11.2 15.2) scale(.016 -.016)" d="M70 0V700H166V266L408 500H534L328 296L534 0H416L246 234L166 156V0Z"/><path transform="translate(20.16 15.2) scale(.016 -.016)" d="m144 600h96v-100h132v-88h-132v-268q0-30 13-43t43-13h76v-88h-94q-66 0-100 34t-34 100v278h-114v88h114z"/></svg>