<svg width="72.736" height="20.8" viewBox="0 0 72.736 20.8" xmlns="http://www.w3.org/2000/svg"><path transform="translate(0 15.84) scale(.016 -.016)" d="m16 0 248 624q13 34 32.5 51t46.5 17q28 0 47.5-17t32.5-51l246-624h-108l-235 618h34l-236-618zm150 174v87h356v-87z"/><path transform="translate(10.96 15.84) scale(.016 -.016)" d="m176 720v-581q0-38 11.5-52t37.5-14q11 0 21.5 2t21.5 6v-77q-34-16-72-16-62 0-88 37.5t-26 98.5v596z"/><path transform="translate(15.632 15.84) scale(.016 -.016)" d="m484 0h-95q-7 15-11.5 44t-4.5 62l-7 23v220q0 48-28 65.5t-73 17.5q-41 0-65.5-10t-39.5-23.5-27.5-23.5-28.5-10q-18 0-28.5 9.5t-10.5 27.5q0 13 6.5 27t22.5 28q57 55 171 55 60 0 103.5-16t68-54 24.5-100v-195q0-47 6.5-85t16.5-62zm-279-12q-71 0-114 38t-43 104q0 60 38 94.5t113 49.5l91 17q47 10 61.5 21t14.5 34v-86q-7-7-21.5-14t-43.5-14l-69-14q-37-7-60.5-25.5t-23.5-55.5q0-36 23.5-56.5t62.5-20.5q34 0 64.5 16t49 47.5 18.5 73.5l18-83q-22-66-71-96t-108-30z"/><path transform="translate(24.192 15.84) scale(.016 -.016)" d="m427 0v291q0 47-16 76t-42.5 42.5-58.5 13.5q-34 0-64.5-15t-50-45.5-19.5-79.5l-23 95q17 47 46.5 76.5t66.5 43.5 74 14q49 0 90.5-22t66.5-68 25-120v-302zm-345 0v500h94v-500z"/><path transform="translate(37.52 15.84) scale(.016 -.016)" d="m294-12q-72 0-134 17t-107 46v94q63-39 124-58t120-19q84 0 122 31.5t38 74.5q0 35-22 57t-58.5 35.5-80 24.5-87 24.5-79.5 35-58 55.5-22 86q0 59 29.5 104t87 70.5 140.5 25.5q70 0 118.5-18t79.5-47q14-13 22.5-26.5t8.5-31.5q0-19-11.5-31t-30.5-12-34.5 12.5-34 30-47.5 30.5-77 13q-72 0-110-31t-38-77q0-35 22-56.5t58-35 79.5-24 87-24 80-35 58.5-56 22-88.5q0-60-30.5-104.5t-89.5-68.5-146-24z"/><path transform="translate(47.104 15.84) scale(.016 -.016)" d="m484 0h-95q-7 15-11.5 44t-4.5 62l-7 23v220q0 48-28 65.5t-73 17.5q-41 0-65.5-10t-39.5-23.5-27.5-23.5-28.5-10q-18 0-28.5 9.5t-10.5 27.5q0 13 6.5 27t22.5 28q57 55 171 55 60 0 103.5-16t68-54 24.5-100v-195q0-47 6.5-85t16.5-62zm-279-12q-71 0-114 38t-43 104q0 60 38 94.5t113 49.5l91 17q47 10 61.5 21t14.5 34v-86q-7-7-21.5-14t-43.5-14l-69-14q-37-7-60.5-25.5t-23.5-55.5q0-36 23.5-56.5t62.5-20.5q34 0 64.5 16t49 47.5 18.5 73.5l18-83q-22-66-71-96t-108-30z"/><path transform="translate(55.664 15.84) scale(.016 -.016)" d="m427 0v291q0 47-16 76t-42.5 42.5-58.5 13.5q-34 0-64.5-15t-50-45.5-19.5-79.5l-23 95q17 47 46.5 76.5t66.5 43.5 74 14q49 0 90.5-22t66.5-68 25-120v-302zm-345 0v500h94v-500z"/><path transform="translate(65.088 15.84) scale(.016 -.016)" d="m234-12q-59 0-105 14.5t-77 34.5v86q46-33 93.5-50t91.5-17q54 0 78 21t24 50q0 28-20.5 44.5t-53 27.5-68.5 21-68 25.5-53 42.5-21 71q0 43 22 77.5t65.5 55 107.5 20.5q52 0 90.5-13t60.5-35 22-49q0-18-9.5-27.5t-25.5-9.5-27.5 10-24.5 23-34 23-55 10q-49 0-72-22t-23-50q0-27 20.5-43.5t53-27 68.5-20.5 68.5-26.5 53-44 20.5-73.5q0-41-22-75.5t-66.5-54-113.5-19.5z"/></svg>