<svg width="57.156" height="14.883" viewBox="0 0 57.156 14.883" xmlns="http://www.w3.org/2000/svg"><path transform="translate(0 11.523) scale(.0078125 -.0078125)" d="M819 1434 1372 0H1167L1040 330H393L266 0H61L614 1434ZM471 535H961L717 1167Z"/><path transform="translate(11.203 11.523) scale(.0078125 -.0078125)" d="M360 1475V0H164V1475Z"/><path transform="translate(15.297 11.523) scale(.0078125 -.0078125)" d="m164 868q0 41 15.5 77t42 62.5 62.5 42 76 15.5h549v410h197v-1475h-197v180q-3-37-20-70t-43.5-57.5-60.5-38.5-72-14h-353q-40 0-76 15.5t-62.5 42-42 62.5-15.5 77zm196-671h549v671h-549z"/><path transform="translate(25.219 11.523) scale(.0078125 -.0078125)" d="m360 868v-868h-196v1065h196v-188q2 39 18 73.5t42.5 60 61.5 40 75 14.5h209q41 0 76.5-15.5t62.5-42 42.5-62.5 15.5-77v-180h-197v180z"/><path transform="translate(33.375 11.523) scale(.0078125 -.0078125)" d="M371 1065V0H174V1065ZM164 1475H381V1270H164Z"/><path transform="translate(37.633 11.523) scale(.0078125 -.0078125)" d="m360 868v-671h508v180h197v-180q0-41-15.5-77t-42-62.5-62.5-42-77-15.5h-508q-40 0-76 15.5t-62.5 42-42 62.5-15.5 77v671q0 41 15.5 77t42 62.5 62.5 42 76 15.5h508q41 0 77-15.5t62.5-42 42-62.5 15.5-77v-180h-197v180z"/><path transform="translate(47.234 11.523) scale(.0078125 -.0078125)" d="m1106 0h-197v868h-549v-868h-196v1475h196v-598q2 39 18 73.5t42.5 60 61.5 40 75 14.5h352q41 0 77-15.5t62.5-42 42-62.5 15.5-77z"/></svg>