<svg width="33.616" height="19.2" viewBox="0 0 33.616 19.2" xmlns="http://www.w3.org/2000/svg"><path transform="translate(0 14.48) scale(.016 -.016)" d="m42 0 287 717h98l287-717h-75q-13 0-21 6.5t-12 16.5l-207 535q-5 14-10.5 30.5t-10.5 36.5q-6-20-11-37t-10-31l-207-534q-3-9-11.5-16t-21.5-7zm74 0v62h53v-62zm89 212 27 70h295l27-70zm385-212v62h53v-62zm-577 0v41q0 9 4 14.5t12 6.5l75 16 11-78zm107 0 11 78 75-16q8-1 12-6.5t4-14.5v-41zm414 0v41q0 9 4 14.5t12 6.5l75 16 11-78zm107 0 11 78 75-16q8-1 12-6.5t4-14.5v-41z"/><path transform="translate(12.096 14.48) scale(.016 -.016)" d="m100 0v737h89v-737zm-72 0v41q0 9 4 14.5t12 6.5l75 16 11-78zm131 0 11 78 75-16q8-1 12-6.5t4-14.5v-41zm-29 737-11-78-75 16q-8 2-12 7t-4 14v41z"/><path transform="translate(16.56 14.48) scale(.016 -.016)" d="m276-7q-73 0-127.5 33t-84.5 94-30 144q0 71 29 128t82.5 90 125.5 33q63 0 110-28t73.5-78.5 26.5-120.5q0-21-4.5-28t-17.5-7h-337q0-3 0-6.5t0-6.5q5-84 47-130.5t114-46.5q31 0 61.5 12.5t54 24.5 33.5 12q11 0 17-8l25-33q-20-26-53.5-43.5t-71.5-26-73-8.5zm-151 316h276q0 62-34 101t-94 39q-65 0-102-37t-46-103z"/><path transform="translate(24.8 14.48) scale(.016 -.016)" d="m276 515q76 0 129.5-32.5t82.5-91.5 29-137-29-137-82.5-91.5-129.5-32.5q-74 0-128.5 32.5t-84 91.5-29.5 137 29.5 137 84 91.5 128.5 32.5zm0-452q75 0 112 50t37 140q0 61-16.5 103.5t-49.5 65.5-83 23q-51 0-84.5-23.5t-49.5-66.5-16-102q0-87 37-138.5t113-51.5z"/></svg>