<svg width="85.92" height="19.504" viewBox="0 0 85.92 19.504" xmlns="http://www.w3.org/2000/svg"><path transform="translate(0 15.488) scale(.016 -.016)" d="M310 700H431L737 0H611L367 581L124 0H1ZM155 262H574V162H155Z"/><path transform="translate(11.808 15.488) scale(.016 -.016)" d="M90 742H205V0H90Z"/><path transform="translate(16.528 15.488) scale(.016 -.016)" d="m453 304q-2 45-20.5 76.5t-51.5 49-76 17.5q-48 0-83.5-22t-55.5-61.5-20-92.5q0-57 21.5-99t60-65 88.5-23q89 0 150 63l61-61q-39-43-95-66.5t-125-23.5q-82 0-143 34t-95 94.5-34 140.5 34 140.5 95 94.5 140 35q94 0 151-38.5t81-108.5 17-166h-425v82z"/><path transform="translate(25.936 15.488) scale(.016 -.016)" d="M27 531H159L278 345L399 531H525L354 272L537 0H405L278 199L142 0H14L202 272Z"/><path transform="translate(34.8 15.488) scale(.016 -.016)" d="m259 237q-56 0-83-17t-27-56q0-37 27.5-59t75.5-22q43 0 77 15t54 40.5 21 57.5l22-97q-25-52-76-78t-122-26q-57 0-99 22t-65 59.5-23 83.5q0 72 52.5 115t148.5 44h176v-82zm144 100q0 52-32 81t-95 29q-38 0-77.5-14t-79.5-41l-47 74q37 23 70 38t70.5 23 88.5 8q103 0 158.5-49.5t56.5-136.5l1-349h-113z"/><path transform="translate(44.176 15.488) scale(.016 -.016)" d="m479 300q0 62-34 97.5t-94 35.5q-71-1-111.5-50t-40.5-122h-32q0 99 28 159t79.5 87.5 121.5 27.5q62 0 106.5-25t68-70.5 23.5-109.5v-330h-115zm-394 231h115v-531h-115z"/><path transform="translate(54.784 15.488) scale(.016 -.016)" d="m288 536q74 0 125.5-32.5t79-93 26.5-144.5q1-84-26-145t-78.5-93.5-124.5-32.5q-76 0-133.5 34.5t-89.5 96-32 141.5 32 140.5 89 94.5 132 34zm26-93q-48 0-85-23t-57.5-63.5-21.5-92.5q1-52 21.5-92t57.5-63 85-23 85 23 57.5 63 20.5 92q0 53-20.5 93t-57.5 63-85 23zm163 299h115v-742h-115z"/><path transform="translate(65.696 15.488) scale(.016 -.016)" d="m384 431q-57 3-98.5-19.5t-64-62.5-22.5-92l-32 4q0 89 26 150t75 92.5 116 31.5zm-299 100h115v-531h-115z"/><path transform="translate(72 15.488) scale(.016 -.016)" d="m85 531h114v-531h-114zm57 219q29 0 48-19t19-48q0-28-19-47.5t-48-19.5q-28 0-47.5 19.5t-19.5 47.5q0 29 19.5 48t47.5 19z"/><path transform="translate(76.544 15.488) scale(.016 -.016)" d="m259 237q-56 0-83-17t-27-56q0-37 27.5-59t75.5-22q43 0 77 15t54 40.5 21 57.5l22-97q-25-52-76-78t-122-26q-57 0-99 22t-65 59.5-23 83.5q0 72 52.5 115t148.5 44h176v-82zm144 100q0 52-32 81t-95 29q-38 0-77.5-14t-79.5-41l-47 74q37 23 70 38t70.5 23 88.5 8q103 0 158.5-49.5t56.5-136.5l1-349h-113z"/></svg>