<svg width="72.288" height="20" viewBox="0 0 72.288 20" xmlns="http://www.w3.org/2000/svg"><path transform="translate(0 13.2) scale(.016 -.016)" d="m153-116q-154 13-154 158 0 86 54 182 32 58 80.5 113t106 99.5 118 70.5 116.5 26q99 0 99-73 0-49-30-109t-61-76q-3-1-7-1-3 0-3 2l33 54q34 56 34 98 0 30-16 57t-57 27q-50 0-102.5-28t-101.5-74-89-101.5-64-109.5q-51-115-51-186 0-107 109-107 104 0 282 134 41 31 105.5 87t151.5 136q-12-1-30-2.5t-42-5.5q-10-2-19-3.5t-17-1.5q-20 2-17 10 4 37 38 37 31-4 58.5-6t52.5-2q39 36 103.5 100.5t153.5 158.5q115 121 140 121 11 0 11-20 0-8-2-20t-6-28q-10-38-21-46-31-22-51.5-56.5t-41.5-76.5q-21-43-38.5-76.5t-31.5-59.5l97 2q36 0 36-5 0-1-2-3-17-11-144-20-93-181-93-248 0-46 29-46 11 0 28 14 16 13 20 13 0 2 1 1t-1-1q-5-18-29.5-32.5t-51.5-14.5q-25 0-33 16t-8 44q0 101 77 257l-120-3q-134-131-269-230-215-156-330-146zm728 405q12 23 48 83.5t97 157.5l-256-240z"/><path transform="translate(16.32 13.2) scale(.016 -.016)" d="m76-2q-29 0-54 14.5t-25 48.5q0 47 33.5 112t76.5 135q117 190 166 190 10 0 20.5-7.5t11.5-16.5l-70-94q-41-55-74-101.5t-57-83.5q-12-19-27-43t-26.5-49.5-11.5-51.5q0-12 7-21.5t25-9.5q32 0 84 34.5t103 95.5q5 6 11 11t10 5q5 0 5-6 0-3-6.5-11.5t-10.5-13.5l-24-27q-20-22-47.5-48t-58-44-61.5-18z"/><path transform="translate(20.208 13.2) scale(.016 -.016)" d="m51-13q-32 0-58 20.5t-26 54.5q0 71 87 162 89 92 159 92 23 0 37.5-12.5t14.5-30.5q0-56-89-110-79-48-133-48-8 0-14 2-15-27-15-57 0-52 49-52 50 0 129 67 61 49 104 104 9 12 16 12 6 0 6-6t-8-17q-28-37-60-68t-69-57q-77-56-130-56zm6 150q38 0 99 38 20 14 39.5 31.5t32 35.5 12.5 32q0 13-21 13-30 0-84-45-26-22-50-48t-41-55q6-2 13-2z"/><path transform="translate(24.32 13.2) scale(.016 -.016)" d="m-18-102q-12 0-12 11 0 3 2 5 93 147 201 258 1 24 2 62.5t3 91.5q-11-2-37-33.5t-61-82.5q-34-50-63.5-83t-33.5-36q-7-6-13-6-5 0-5 5 0 4 3.5 8.5t16.5 18.5q18 20 31 35.5t25.5 33.5 29.5 44q11 16 27.5 40.5t34 47.5 30.5 34q10 9 21.5 13t21.5 4q12 0 22.5-5t7.5-22q0-1-4.5-31.5t-8.5-89.5q19 18 75.5 67.5t145.5 125.5q2 2 5 2 7 0 15-8.5t8-17.5q0-8-8-16-31-25-120-90-40-28-71.5-54t-51.5-45q-1-10-1-20t0-19q0-62 12.5-92.5t40.5-30.5q31 0 78.5 39.5t97.5 97.5q10 10 15 10t5-6q0-2-1.5-6t-6.5-10q-32-37-69.5-75t-75.5-63.5-73-25.5q-30 0-45 22.5t-19.5 57.5-5.5 73q-122-130-183-235-3-4-8-4z"/><path transform="translate(34.32 13.2) scale(.016 -.016)" d="m424-47q-158 0-215 108-103-86-147-86-21 0-32.5 20t-11.5 45q0 60 46 140 20 35 44 64t54 29q29 0 44-48l30-96q16 17 35.5 41.5t43.5 57.5l89 120q164 213 215 233 18 7 36 7 20 0 32.5-8.5t12.5-19.5q0-18-29-21-30-17-117-101-40-39-64.5-64.5t-33.5-38.5q-112-156-207-240 61-121 183-121 46 0 93.5 19.5t88 51.5 65.5 71.5 25 78.5q0 41-29 74t-71 47q0 0-15 2t-46 6q-47 6-47 19 0 9 11.5 16t23.5 7q9 0 21-4t21.5-7.5 9.5-3.5q8-1 18-1.5t20-0.5q66 0 120 21 52 21 76 58t24 86q0 50-31.5 79t-83 41.5-111.5 12.5q-117 0-222.5-34t-182.5-113q-59-61-59-102 0-29 15-49 4-5 9-10t12-10q5-3-6-3-62 14-62 83t70 130q54 47 123.5 76t147 42 153.5 13q54 0 104-8t90-26.5 63.5-48.5 23.5-74q0-62-33-99t-89-57q-66-23-142-24 42-2 73.5-22t49-52 17.5-70q0-51-30.5-94.5t-81.5-75-112-49-122-17.5zm-349 45q32 0 123 91l-3 4q-40 133-64 133-1 0-5-2-74-107-74-172 0-14 5.5-34t17.5-20z"/><path transform="translate(47.424 13.2) scale(.016 -.016)" d="m204-5q-43 0-59 22.5t-16 60.5q0 42 26 100 10 23 21 41.5t23 34.5q-4-1-7-1t-6 0q-24 0-40 34l-74-96q-59-77-72-77-5 0-5 4 0 5 5 13 3 6 12 16 38 44 70 87t53 84q23 87 58 87 23 0 23-21 0-19-25-50-24-31-24-32 0-21 31-21 18 0 40 13l26 16q2 1 6 1 12 0 21-10t6-18l-69-87q-64-82-64-132 0-45 44-45 30 0 64.5 18t67 44.5 54.5 51.5l24 28q2 2 5 5t5 3q7 0 7-7 0-2-2-7t-7-11l-32-36q-23-26-56.5-52.5t-69-43.5-64.5-17z"/><path transform="translate(53.728 13.2) scale(.016 -.016)" d="m47-11q-45 0-45 57 0 22 13.5 52.5t38.5 64.5q0 0-18-17t-41-43q-4-4-10-4-4 0-4 5t9 17l138 162q26 30 57 30 23 0 23-18 0-7-6-13-19-18-46.5-51t-53.5-71-43.5-72.5-17.5-55.5q0-18 12-18 7 0 22 5.5t40 23 60 54.5q6 6 32 36t70 86q78 97 102 97 33 0 36-27 2-9-42-59-57-69-78-99-39-57-39-89 0-22 15-22t38.5 14.5 49.5 37 50.5 47 42.5 45.5q6 7 12 7t6-6q0-2-1-6t-6-9q-16-18-41-44.5t-54-52.5-56-43-46-17q-23 0-40 12.5t-17 34.5 7 44.5 11 38.5q-47-55-82.5-84t-59.5-39.5-38-10.5z"/><path transform="translate(60.528 13.2) scale(.016 -.016)" d="m115-2q-47 0-69.5 31t-36.5 86q-18-18-25-18-5 0-5 8 0 6 5 11 0 0 25.5 31t86.5 87l126 118q26 25 41.5 38t22.5 13q32 0 32-24 0-12-13-28-10-12-14.5-18.5t-5.5-7.5q-18-31-33-111-11-59-19-97t-13-55q42 1 83 26t88 82q2 2 6 6t8 4q6 0 6-5t-3-10-6-9q-31-37-58-60.5t-57-37-71-22.5l-32-21q-13-9-31-13t-38-4zm12 51q23 0 38 11 11 6 21.5 33.5t20.5 68.5q8 35 12.5 68.5t8.5 64.5l4 34q-23-17-58-49t-69-67-44-51.5-11-24.5q-4-40 19.5-64t57.5-24z"/><path transform="translate(66.272 13.2) scale(.016 -.016)" d="m-27-5q-29 0-29 17 0 10 12 32 46 82 82.5 145.5t64.5 107.5q119 191 168 207 2 0 3 0.5t2 0.5q13 0 17-21-3-21-104-152-53-67-82.5-110.5t-36.5-63.5q33 24 71 51t74 51.5 65 40 45 17.5q2 0 5 0.5t4 0.5q28 0 28-26 0-7-18-31t-55-74q-66-88-66-132 0-23 17-23 18 1 41.5 16t47.5 37 43.5 43.5 29.5 33.5q9 9 14 9 4 0 4-4 0-8-8-19-12-15-35.5-39t-51-48.5-52-41-36.5-16.5q-59 0-59 69 0 39 36 102 14 24 29 48t30 48q-128-64-232-189-13-18-27-38.5t-25-34.5-16-14z"/></svg>