<svg width="30.968" height="16.002" viewBox="0 0 30.968 16.002" xmlns="http://www.w3.org/2000/svg"><path transform="translate(0 12.726) scale(.014 -.014)" d="m6-3q-10 0-14 7t-4 15q1 17 8 19t17 2q27 0 41 11t22.5 29 16.5 37l175 414q10 24 4 36.5t-20 18-31 8.5q-15 3-20 5.5t-5 17.5q0 17 12 18.5t28 1.5q41 0 70-8t50-30.5 39-67.5l168-414q7-17 15-35t21.5-29.5 34.5-12.5q11 0 17.5-2t7.5-19q0-8-4.5-15t-13.5-7q-32 2-56 2.5t-54 0.5q-59 0-124-3-10 0-14 7t-4 15q1 17 8 19t17 2q49 0 53.5 18t-9.5 59l-34 83h-247q-15-38-21.5-55t-8-22-2.5-6q-11-34-11.5-50.5t16-21.5 55.5-5q11 0 17.5-2t7.5-19q0-8-4.5-15t-13.5-7q-32 2-55.5 2.5t-53.5 0.5q-20 0-33.5-0.5t-27.5-1-36-1.5zm190 246h210l-101 257h-3z"/><path transform="translate(9.142 12.726) scale(.014 -.014)" d="m39-3q-7 0-11.5 6.5t-4.5 13.5q1 15 7.5 16.5t15.5 1.5q28 0 38.5 9.5t12 25.5 1.5 33v488q0 18-1.5 33.5t-11.5 25-38 9.5q-9 0-16.5 2.5t-7.5 17.5 16 18q46 7 70.5 14t37.5 12 23 6q8 1 13.5-3t5.5-16v-607q0-17 1.5-33t12-25.5 38.5-9.5q9 0 15.5-1.5t7.5-16.5q0-7-4-13.5t-12-6.5q-29 2-53.5 2.5t-51.5 0.5-51-0.5-53-2.5z"/><path transform="translate(13.146 12.726) scale(.014 -.014)" d="m49-3q-7 0-11.5 6.5t-4.5 13.5q2 15 8 16.5t16 1.5q28 0 38 9.5t11.5 25.5 1.5 33v229q0 18-1.5 33.5t-11.5 25-38 9.5q-9 0-16.5 2.5t-7.5 17.5 16 18q46 7 70.5 14t37.5 12 23 6q8 1 13.5-3t5.5-16v-348q0-17 1.5-33t12-25.5 38.5-9.5q9 0 15.5-1.5t7.5-16.5q0-7-4-13.5t-12-6.5q-29 2-53.5 2.5t-51.5 0.5-51-0.5-53-2.5zm99 584q-28 0-47 17.5t-19 43.5q0 23 23 41t52 18q25 0 41-17.5t16-44.5q0-24-19-41t-47-17z"/><path transform="translate(17.29 12.726) scale(.014 -.014)" d="m259-12q-103 0-160.5 65.5t-57.5 173.5q3 69 34.5 122t84 83.5 116.5 32.5q35 0 71.5-8.5t61-31 24.5-64.5q0-29-18-53.5t-50-24.5q-22 0-34 11t-12 16q0 2 8.5 8.5t16.5 18 8 28.5q0 32-23 47t-52 16q-44 0-70.5-18t-40.5-47.5-18.5-64.5-4.5-68q0-55 17-98.5t48-68.5 74-25q44 0 74 19t55 56q7 10 21 2 7-4 10-11t-2-14q-33-47-82-74.5t-99-27.5z"/><path transform="translate(23.94 12.726) scale(.014 -.014)" d="m275-12q-77 0-129.5 33t-78.5 88-26 120q0 44 15.5 85.5t44.5 76 70 54.5 93 20q92 0 138.5-47.5t53.5-120.5q0-35-19.5-46t-50.5-11h-243q0-58 16-103.5t50.5-72 91.5-26.5q42 0 72 18t58 63q8 10 22 1 8-4 10-12.5t-2-14.5q-31-49-78-77t-108-28zm-132 290h163q24 0 38.5 9.5t15.5 32.5q0 43-23.5 76.5t-72.5 33.5q-50 0-83.5-40t-37.5-112z"/></svg>