<svg width="126" height="20.8" viewBox="0 0 126 20.8" xmlns="http://www.w3.org/2000/svg"><path transform="translate(0 16.16) scale(.016 -.016)" d="m735 0h-720v370q0 75 28 140t77.5 114.5 114.5 77.5 140 28 140-28 114.5-77.5 77.5-114.5 28-140z"/><path transform="translate(12 16.16) scale(.016 -.016)" d="m735 0h-720v180h90v360h-90v180h490q39 0 70.5-19t50.5-50.5 19-70.5v-400h90z"/><path transform="translate(24 16.16) scale(.016 -.016)" d="m645 400v-220h90v-180h-720v180h90v180h-90v180h210q-33 0-60 16.5t-43.5 43.5-16.5 60v60h540v-60q0-33-16-60t-43.5-43.5-60.5-16.5h-20q39 0 70.5-19t50.5-50.5 19-70.5z"/><path transform="translate(36 16.16) scale(.016 -.016)" d="m735 0h-450q-56 0-105 21t-86 58-58 86-21 105 21 105 58 86 86 58 105 21h315q38 0 68.5-18t48.5-48.5 18-68.5q0-37-18-68t-48.5-49-68.5-18h135z"/><path transform="translate(48 16.16) scale(.016 -.016)" d="m735 0h-720v540h450q56 0 105-21t86-58 58-86 21-105z"/><path transform="translate(66 16.16) scale(.016 -.016)" d="m548 0h-533v720h533q52 0 94-25.5t67.5-67.5 25.5-94q0-58-32.5-105t-83.5-68q51-21 83.5-67.5t32.5-105.5q0-51-25.5-93.5t-67.5-68-94-25.5z"/><path transform="translate(78 16.16) scale(.016 -.016)" d="m735 0h-720v180h90v360h-90v180h490q39 0 70.5-19t50.5-50.5 19-70.5v-400h90z"/><path transform="translate(90 16.16) scale(.016 -.016)" d="m465-10h-180q-58 0-109 21.5t-89.5 60-60 89.5-21.5 109 21.5 109 60 89.5 89.5 60 109 21.5h180q58 0 109-21.5t89.5-60 60-89.5 21.5-109-21.5-109-60-89.5-89.5-60-109-21.5z"/><path transform="translate(102 16.16) scale(.016 -.016)" d="m735 0h-450q-56 0-105 21t-86 58-58 86-21 105 21 105 58 86 86 58 105 21h450z"/><path transform="translate(114 16.16) scale(.016 -.016)" d="m735 0h-720v720h540v-180h180v-140q0-36-17.5-65.5t-47-47-65.5-17.5q36 0 65.5-17.5t47-47 17.5-65.5z"/></svg>