<svg width="22.791" height="15.996" viewBox="0 0 22.791 15.996" xmlns="http://www.w3.org/2000/svg"><path transform="translate(0 13.18) scale(.0068359 -.0068359)" d="m322 592h301l49 711zm-71-148-199-403q-23-47-76-41l-47 4q-35 2-46 26.5t3 51.5l682 1315q43 82 113 82l82 2q81 0 75-99l-71-1337q-4-43-62-45l-69 2q-52 0-48 55l27 387z"/><path transform="translate(6.4395 13.18) scale(.0068359 -.0068359)" d="m513 1507-373-1462q-12-45-62-45h-34q-76 0-60 66l375 1443q12 45 61 45h47q58 0 46-47z"/><path transform="translate(9.0234 13.18) scale(.0068359 -.0068359)" d="m513 1507-373-1462q-12-45-62-45h-34q-76 0-60 66l375 1443q12 45 61 45h47q58 0 46-47z"/><path transform="translate(11.607 13.18) scale(.0068359 -.0068359)" d="m604 999q8 48 47 48l47 2q75-2 55-74l-246-819q64 47 127 135 23 33 51 14l50-33q32-22 10-51-84-98-154.5-152.5t-167.5-76.5q-28-4-37 22l-38 113q-58-76-99-104.5t-63-28.5h-4q-17 0-50.5 23.5t-66.5 61.5-47.5 83 2 163.5 93.5 331.5 158 297 203 82q68 0 130-37zm-31-114q-109 61-177.5 2.5t-134-238.5-85-282.5-16.5-139.5 36-54 109.5 67 134 230 133.5 415z"/><path transform="translate(16.871 13.18) scale(.0068359 -.0068359)" d="m246 465 213 352q68 111 139.5 167t122.5 56h43q33 0 51.5-11t30-50-11.5-115l-229-835q-6-29-33-29h-107q-30 0-16 49l215 703q16 55 16 72.5t-14 17.5-33.5-18.5-52.5-67.5q-39-56-94-145t-139-220q-158-241-224-362-16-29-49-29h-57q-12 0-20.5 16.5t-2.5 36.5l248 934q10 53 41 53h84q49 0 33-59z"/></svg>