<svg width="115.38" height="20.453" viewBox="0 0 115.38 20.453" xmlns="http://www.w3.org/2000/svg"><path transform="translate(0 16.516) scale(.015625 -.015625)" d="M696 0H572L381 552L188 0H63L321 736H440ZM447 234 476 153H285L313 234Z"/><path transform="translate(11.859 16.516) scale(.015625 -.015625)" d="m206 172q0-34 9-53.5t25-29 36.5-12.5 44.5-3v-74q-13-2-27-3-11-1-26-1.5t-30-0.5-30 1-27 3q-34 7-53 30t-29 51.5-12.5 55.5-2.5 42v599h122z"/><path transform="translate(17.531 16.516) scale(.015625 -.015625)" d="m206 172q0-34 9-53.5t25-29 36.5-12.5 44.5-3v-74q-13-2-27-3-11-1-26-1.5t-30-0.5-30 1-27 3q-34 7-53 30t-29 51.5-12.5 55.5-2.5 42v599h122z"/><path transform="translate(23.203 16.516) scale(.015625 -.015625)" d="m348 569q54-5 97.5-29t74.5-62 47.5-87 16.5-102q0-24-3-48h-343v88h231q0 26-8.5 50t-25 44.5-38.5 34.5-49 17zm-4-475q11 0 27.5 2.5t35 9 37 16.5 32.5 24l44-67q-33-41-77-62t-112-21q-55 0-103 22.5t-82 61.5-54 91-20 112q0 57 18.5 108t50.5 89.5 74.5 62.5 91.5 27v-96q-37-7-61-30t-37.5-52.5-19-60.5-5.5-53q0-39 9.5-72.5t29.5-58 49.5-39 71.5-14.5z"/><path transform="translate(33.578 16.516) scale(.015625 -.015625)" d="m194 564 13-58v-506h-121v564zm54-25q25 14 60 21.5t95 7.5v-126q-28 8-68 9-22 0-44.5-3.5t-42.5-10.5z"/><path transform="translate(40.547 16.516) scale(.015625 -.015625)" d="m247 171q0-34 9-53t25.5-29 37-12.5 43.5-2.5v-74q-13-2-26-3-11-1-26.5-1.5t-30.5-0.5-30.5 1-26.5 3q-34 6-53 29.5t-28.5 52-12 55.5-2.5 42v304h-74v82h74v160h121v-160h90v-82h-90z"/><path transform="translate(47.078 16.516) scale(.015625 -.015625)" d="m184 170q0-45 18.5-67t53.5-26v-81q-4-1-13-1-34 0-65.5 9t-55.5 29-37.5 53-13.5 81q0 46 19.5 79.5t50 55 69.5 32 79 10.5h44v-71h-22q-20 0-42-4t-41-15-31.5-31.5-12.5-52.5zm311-3q0-8 1-23.5t4-31.5 9.5-29 17.5-17l-32-67q-13 0-27.5 6t-28 17-23 24.5-14.5 29.5q-10-25-39.5-44.5t-65.5-28.5v76q24 5 43.5 19.5t33.5 34.5v211q0 49-5 78t-17 42.5-29.5 17-41.5 3.5q-22 0-41.5-5.5t-36-13-29-16.5-18.5-14l-45 69q10 11 30 22.5t46 20.5 56.5 14.5 63.5 5.5q30 0 58.5-6t52-20 41-37.5 24.5-58.5 9.5-70.5 2.5-70.5v-130z"/><path transform="translate(60.734 16.516) scale(.015625 -.015625)" d="m431 623q-5 2-12 7t-20 9.5-33 7.5-51 1v101q44-1 89.5-9.5t73.5-26.5q-6-13-14-28.5t-15-29-12-22.5-6-10zm-345-80q0 44 15 79t40.5 61.5 60 42 72.5 20.5v-105q-32-11-53-38.5t-21-55.5q0-39 21-63t53-42v-114q-33 16-66 34.5t-60 43.5-44.5 58-17.5 79zm16-408q14-8 35.5-15.5t44.5-14 46-10.5 43-4h3v-95h-2q-24 0-49.5 2.5t-51.5 8.5-49.5 16.5-40.5 25.5zm213 287q33-15 67.5-32t62.5-41.5 46-59.5 18-87q0-36-13.5-70t-38-61.5-60.5-46.5-82-25v96q82 20 82 109 0 35-23 58t-59 43z"/><path transform="translate(69.203 16.516) scale(.015625 -.015625)" d="m247 171q0-34 9-53t25.5-29 37-12.5 43.5-2.5v-74q-13-2-26-3-11-1-26.5-1.5t-30.5-0.5-30.5 1-26.5 3q-34 6-53 29.5t-28.5 52-12 55.5-2.5 42v304h-74v82h74v160h121v-160h90v-82h-90z"/><path transform="translate(75.734 16.516) scale(.015625 -.015625)" d="m348 569q54-5 97.5-29t74.5-62 47.5-87 16.5-102q0-24-3-48h-343v88h231q0 26-8.5 50t-25 44.5-38.5 34.5-49 17zm-4-475q11 0 27.5 2.5t35 9 37 16.5 32.5 24l44-67q-33-41-77-62t-112-21q-55 0-103 22.5t-82 61.5-54 91-20 112q0 57 18.5 108t50.5 89.5 74.5 62.5 91.5 27v-96q-37-7-61-30t-37.5-52.5-19-60.5-5.5-53q0-39 9.5-72.5t29.5-58 49.5-39 71.5-14.5z"/><path transform="translate(86.109 16.516) scale(.015625 -.015625)" d="m194 564 13-57v-507h-121v564zm312-62q17-17 26.5-39.5t14-47 5.5-49.5 1-49v-317h-122v307q0 34-3 65t-14 55-30 37.5-53 13.5q-14 0-37.5-4.5t-45.5-14.5v77q27 14 58.5 24t61.5 10q45 0 76-18.5t62-49.5z"/><path transform="translate(96.016 16.516) scale(.015625 -.015625)" d="m461 418q-15 18-41.5 33.5t-70.5 18.5v96q55-3 94.5-23.5t71.5-59.5zm-112-323q36 4 61.5 17.5t48.5 31.5l45-65q-31-39-67-59.5t-88-23.5zm-279 187q0 57 16.5 107t48.5 88 75.5 61.5 97.5 27.5v-97q-50-11-80-61.5t-30-122.5q0-37 7.5-69.5t21.5-57.5 34.5-42 46.5-21v-99q-55 3-99 26.5t-75 62-47.5 89.5-16.5 108z"/><path transform="translate(105.16 16.516) scale(.015625 -.015625)" d="m207 0h-122v564h122zm11 744q0-30-21-50.5t-51-20.5-50.5 21-20.5 50q0 30 21 51t50 21q30 0 51-21t21-51z"/><path transform="translate(109.7 16.516) scale(.015625 -.015625)" d="m206 172q0-34 9-53.5t25-29 36.5-12.5 44.5-3v-74q-13-2-27-3-11-1-26-1.5t-30-0.5-30 1-27 3q-34 7-53 30t-29 51.5-12.5 55.5-2.5 42v599h122z"/></svg>