<svg width="40.416" height="20" viewBox="0 0 40.416 20" xmlns="http://www.w3.org/2000/svg"><path transform="translate(0 12.8) scale(.016 -.016)" d="m142-83q-33 0-63 11t-49 35-19 61q0 9 4.5 16.5t8.5 7.5q8 0 8-24 0-34 29-53 23-15 62-15t81 14 80 40q45 30 100.5 86.5t115.5 123.5q-48 5-95.5 11t-95.5 6q-32 0-64-6.5t-58-24.5-39-53q-1-4-2.5-9t-1.5-10q0-10 5-18 2-6 2-7 0-9-8-9-7 0-11 7-10 18-10 46 0 53 19.5 81t52.5 38 71 10q17 0 35.5-1.5t36.5-3.5q44-4 91-13.5t94-19.5q52 61 102.5 123t94.5 117.5 75 95.5q1 3 4 4 2 2 3 2 11 6 28 10.5t23 4.5q10 0 10-11 0-3-5-11-50-85-85.5-174t-62.5-183l-2-7q6 0 12.5-0.5t11.5-0.5q43-3 73 9 22 8 30 23 3 4 5 4 5 0 7-5.5t-1-10.5q-11-19-39-28-16-7-36.5-9t-42.5-1h-6l-12 1h-6q-15-55-21-114-1-5-1-9.5t0-9.5q0-57 31-57 20 0 47.5 18t56 44 51.5 51.5 34 40.5q2 2 6 2 10 0 6-11-2-3-17-23.5t-41-49-61-56.5q-28-22-55.5-28.5t-41.5-6.5q-28 0-44.5 25.5t-16.5 65.5q0 29 6 60t14 62q-29 3-59 6.5t-60 7.5q-60-73-119.5-136.5t-111.5-102.5q-39-28-80.5-43.5t-83.5-15.5zm518 303q18 70 42.5 140.5t48.5 128.5l5 12q-43-60-94.5-128t-104.5-135q26-5 52-9.5t51-8.5z"/><path transform="translate(13.552 12.8) scale(.016 -.016)" d="m104-10q-42 0-58.5 21t-16.5 52q0 29 13.5 73t35.5 95 47.5 101.5 51 93 44.5 68.5q19 25 41 50t49 42 61 17q23 0 39.5-12.5t16.5-37.5q0-10-3.5-23t-11.5-27q-61-106-145.5-196t-178.5-167q-4-15-7.5-27t-5.5-19q-1-5-1-10.5t0-10.5q0-24 8-42t27-18q18 0 44.5 17.5t53.5 43 49 49.5 31 37q3 3 6 3 4 0 6.5-4t-0.5-10q-10-17-32-42t-49-50.5-52-44.5q-31-22-63-22zm-1 190q38 26 79 67.5t80.5 90.5 72 97 52.5 87q6 11 8.5 19.5t2.5 15.5q0 19-16 19-14 0-35-15-54-42-100-107.5t-82-137.5-62-136z"/><path transform="translate(17.296 12.8) scale(.016 -.016)" d="m104-10q-42 0-58.5 21t-16.5 52q0 29 13.5 73t35.5 95 47.5 101.5 51 93 44.5 68.5q19 25 41 50t49 42 61 17q23 0 39.5-12.5t16.5-37.5q0-10-3.5-23t-11.5-27q-61-106-145.5-196t-178.5-167q-4-15-7.5-27t-5.5-19q-1-5-1-10.5t0-10.5q0-24 8-42t27-18q18 0 44.5 17.5t53.5 43 49 49.5 31 37q3 3 6 3 4 0 6.5-4t-0.5-10q-10-17-32-42t-49-50.5-52-44.5q-31-22-63-22zm-1 190q38 26 79 67.5t80.5 90.5 72 97 52.5 87q6 11 8.5 19.5t2.5 15.5q0 19-16 19-14 0-35-15-54-42-100-107.5t-82-137.5-62-136z"/><path transform="translate(21.04 12.8) scale(.016 -.016)" d="m307-10q-18 0-32 8t-21 30q-1 5-2.5 11.5t-1.5 13.5q0 24 6.5 54t14.5 50q-4-3-14-20t-25-39.5-33.5-45-40-37-45.5-14.5q-16 0-38.5 9t-32.5 25-10 40q0 29 13 63.5t33 64.5q7 10 16 24t18 24.5 13 11.5q12 4 28 4 17 0 25-4 7-3 7-7 0-5-8-13-11-10-30-30t-37.5-48-30.5-62q-10-27-10-47 0-35 28-35 24 0 51 20t52.5 49 46 57.5 31.5 45.5q10 14 22.5 36t24.5 43 19 31q7 0 21.5-2.5t25-8.5 5.5-15q-6-10-18.5-31t-25-42.5-19.5-34.5q-24-46-31-99-1-4-1-7.5t0-7.5q0-40 27-40 15 0 40 18t51.5 43 48 48.5 29.5 35.5q2 3 6 3t6.5-3-0.5-8q-9-17-30.5-42.5t-47.5-51-51-43.5q-13-10-33-17.5t-40-7.5z"/><path transform="translate(28.144 12.8) scale(.016 -.016)" d="m172-12q-17 0-30 7.5t-18 28.5q-3 11-3 22 0 30 15.5 58.5t36.5 53 36 41.5q8 8 18.5 21t10.5 26q0 8-8 15.5t-29 10.5q-12 2-22.5 3.5t-21.5 1.5q-28-38-54.5-76.5t-56.5-75.5q-7-7-12-7-6 0-6 6t6 12q54 66 93 141-5 0-15 0.5t-16 1.5q-7 2-11 6t-4 8q0 6 5 7 13 4 28 12t28 21q14 14 26 29.5t19 23.5q7 5 15 5 5 0 9.5-3t4.5-9q0-7-6-18-9-14-19.5-31t-19.5-31q18-1 36-2t37-1q10 0 19.5 0.5t19.5 0.5q30 0 30-15 0-10-10.5-24.5t-25.5-31.5q-34-39-58-82t-32-66q-8-24-8-36 0-24 19-24 17 0 41.5 17t50.5 41.5 47 48 30 35.5q2 3 6 3t7-3.5 0-8.5q-11-17-32-42.5t-47-50.5-51-43q-13-10-35.5-18.5t-42.5-8.5z"/><path transform="translate(33.168 12.8) scale(.016 -.016)" d="m319-10q-17 0-31.5 8t-21.5 30q-3 9-3 25 0 22 6 49t13 46q-5-2-18.5-17.5t-33-37-43-43-48.5-35.5-49-14q-16 0-34 9.5t-29 24.5q-15 20-15 41 0 27 18.5 56t48 56.5 63 50 64 38 49.5 20.5q20 6 45 6 14 0 29-3.5t25-11.5q8-4 13-11t5-15-7-5q-8 12-21.5 15.5t-27.5 3.5q-40 0-88-26t-86-61q-12-10-32.5-34.5t-37.5-53.5-17-53q0-13 7-23 4-7 13-7 14 0 37.5 15t48.5 36.5 45.5 41.5 29.5 29q5 5 19.5 20.5t31.5 33.5 30.5 31 17.5 13q5 0 16.5-2.5t19.5-7.5 3-13q-26-38-41.5-79.5t-18.5-65.5q-1-4-1-7.5t0-7.5q0-40 28-40 15 0 40 18t51 43 47.5 48.5 29.5 35.5q3 3 6 3 4 0 7-3.5t0-8.5q-11-18-32-43t-47-50-51-43q-13-10-33-17.5t-40-7.5z"/></svg>