<svg width="46.592" height="15.624" viewBox="0 0 46.592 15.624" xmlns="http://www.w3.org/2000/svg"><path transform="translate(0 12.67) scale(.014 -.014)" d="M466 215H190L114 0H17L272 716H390L641 0H540ZM440 292 330 617 213 292Z"/><path transform="translate(9.17 12.67) scale(.014 -.014)" d="M149 716V0H67V716Z"/><path transform="translate(12.222 12.67) scale(.014 -.014)" d="m69 514h76v-74q60 85 158 85 95 0 138-76 37 43 71.5 59.5t85.5 16.5q150 0 150-141v-384h-82v352q0 102-96 102-50 0-85-39t-35-93v-322h-82v352q0 102-95 102-51 0-86.5-38.5t-35.5-93.5v-322h-82z"/><path transform="translate(23.674 12.67) scale(.014 -.014)" d="m525 69v-66q-34-12-53-12-80 0-87 73-55-75-175-75-83 0-129 46-40 40-40 103 0 72 51 111 29 22 121 43l168 38 1 43q0 77-116 77-111 0-119-90h-83q3 68 34 104 53 61 172 61 193 0 193-140v-287q0-38 33-38 4 0 21 6 6 2 8 3zm-143 194-132-34q-71-18-97.5-37t-26.5-53q0-79 102-79 72 0 122 47 32 29 32 66z"/><path transform="translate(31.318 12.67) scale(.014 -.014)" d="m68 514h76v-94q45 106 142 106 12 0 29-3v-84q-80-1-110-23-55-40-55-149v-267h-82z"/><path transform="translate(35.896 12.67) scale(.014 -.014)" d="m525 69v-66q-34-12-53-12-80 0-87 73-55-75-175-75-83 0-129 46-40 40-40 103 0 72 51 111 29 22 121 43l168 38 1 43q0 77-116 77-111 0-119-90h-83q3 68 34 104 53 61 172 61 193 0 193-140v-287q0-38 33-38 4 0 21 6 6 2 8 3zm-143 194-132-34q-71-18-97.5-37t-26.5-53q0-79 102-79 72 0 122 47 32 29 32 66z"/><path transform="translate(43.54 12.67) scale(.014 -.014)" d="m146 514v-514h-81v514zm-39 201q21 0 35.5-14.5t14.5-34.5q0-21-14.5-35.5t-35.5-14.5q-20 0-34.5 14.5t-14.5 35.5q0 20 14.5 34.5t34.5 14.5z"/></svg>