<svg width="58.416" height="19.2" viewBox="0 0 58.416 19.2" xmlns="http://www.w3.org/2000/svg"><path transform="translate(0 14.4) scale(.016 -.016)" d="M15 0 146 591H227L356 0H288L256 137H111L81 0ZM113 172H255L185 514Z"/><path transform="translate(5.936 14.4) scale(.016 -.016)" d="M53 0V634H114V0Z"/><path transform="translate(8.608 14.4) scale(.016 -.016)" d="m162-8q-52 0-77 18.5t-32 48.5-7 64v372h62v-364q0-22 2.5-43.5t18.5-35 53-13.5q26 0 41 9t23 21.5 10 22.5v403h62v-495h-53l-5 54q-8-24-32.5-43t-65.5-19z"/><path transform="translate(14.544 14.4) scale(.016 -.016)" d="m53 0v495h52l7-55q11 29 36.5 46t62.5 17q58 0 81.5-24t24.5-70l-11-1q10 43 38.5 69t73.5 26q62 0 84.5-29t22.5-89v-385h-62v374q0 48-14.5 65.5t-49.5 17.5q-33 0-55-19.5t-24-48.5v-389h-62v382q0 41-14.5 58t-51.5 17q-34 0-51.5-16t-25.5-38v-403z"/><path transform="translate(23.664 14.4) scale(.016 -.016)" d="m53 0v495h51l8-53q8 30 37 46t60 16q53 0 77.5-18.5t31.5-48 7-64.5v-373h-62v364q0 18-1 35t-7.5 30.5-21.5 21.5-44 8q-25 0-40.5-9.5t-23-22-10.5-23.5v-404z"/><path transform="translate(29.584 14.4) scale(.016 -.016)" d="m53 0v495h61v-495zm31 556q-15 0-25.5 10.5t-10.5 24.5q0 15 10.5 24.5t25.5 9.5q14 0 25-9.5t11-24.5q0-14-11-24.5t-25-10.5z"/><path transform="translate(35.216 14.4) scale(.016 -.016)" d="m183-7q-45 0-77.5 16t-50.5 53.5-18 104.5v33q16 0 32.5 0t31.5 0v-37q0-50 10.5-77.5t29-38.5 42.5-11q39 0 63.5 24.5t24.5 87.5q0 45-13 67.5t-40 36-66 29.5q-32 13-57.5 31.5t-39.5 48.5-14 76q0 52 14 86.5t46 51.5 85 17q69 0 106.5-34.5t37.5-97.5v-65q-15 0-30.5 0t-31.5 0v50q0 48-20.5 72.5t-60.5 24.5q-44 0-63.5-25.5t-19.5-77.5q0-39 15-61.5t39-35 51-22.5q45-17 73-35.5t41-47.5 13-81q0-61-19.5-96.5t-54-51-79.5-15.5z"/><path transform="translate(41.2 14.4) scale(.016 -.016)" d="m143-7q-23 0-46.5 6.5t-40 30-16.5 73.5v48q0 50 30.5 80.5t83.5 54.5q34 17 55.5 30t32.5 29 11 43v21q0 24-10 37t-26.5 18-34.5 5q-45 0-59-24.5t-14-72.5v-42h-57v48q0 37 10 65.5t38 45 82 16.5q57 0 85.5-13t38-37 9.5-57v-398h-61l-1 62q-12-34-43-51.5t-67-17.5zm23 42q45 0 65.5 32t20.5 85v158q-10-16-33-29t-47-26q-34-20-52.5-41.5t-18.5-59.5v-39q0-36 10-53t25-22 30-5z"/><path transform="translate(46.944 14.4) scale(.016 -.016)" d="m53 0v495h51l8-53q8 30 37 46t60 16q53 0 77.5-18.5t31.5-48 7-64.5v-373h-62v364q0 18-1 35t-7.5 30.5-21.5 21.5-44 8q-25 0-40.5-9.5t-23-22-10.5-23.5v-404z"/><path transform="translate(52.864 14.4) scale(.016 -.016)" d="m173-7q-54 0-84 13.5t-42 43-12 78.5v43h63v-57q0-47 16-65t58-18q37 0 54.5 18t17.5 61v28q0 23-7 39.5t-26.5 30.5-54.5 28q-33 13-58 28t-39.5 38-14.5 59v30q0 53 30.5 82.5t103.5 29.5q48 0 76.5-13t42-42 13.5-75v-42h-61v48q0 50-17 68.5t-54 18.5q-42 0-56.5-20t-14.5-50v-27q0-28 12.5-46t35.5-30 55-25q29-12 51.5-25.5t35.5-36.5 13-63v-23q0-40-12.5-68.5t-42.5-43.5-82-15z"/></svg>