<svg width="128.46" height="19.2" viewBox="0 0 128.46 19.2" xmlns="http://www.w3.org/2000/svg"><path transform="translate(0 14.4) scale(.016 -.016)" d="m1 0 82 591h250l80-591zm20 18h169l6 78h15l8-78h174l-75 555h-220zm10 9 74 537h205l72-537h-156l-7 78h-32l-5-78zm157 148h31l-15 275zm9 9 7 107 7-107z"/><path transform="translate(6.624 14.4) scale(.016 -.016)" d="M9 0V630H165V0ZM23 18H151V612H23ZM31 27V603H143V27Z"/><path transform="translate(9.408 14.4) scale(.016 -.016)" d="m125-6q-67 0-90 35.5t-23 108.5v357h346v-495h-160l-3 18q-14-11-30.5-17.5t-39.5-6.5zm2 18q27 0 46.5 11.5t31.5 30.5l7-36h129v460h-150v-349q-2-2-5-2-7 0-7 12v339h-150v-340q0-63 20-94.5t78-31.5zm-1 9q-52 0-70.5 29.5t-18.5 87.5v331h133v-332q0-19 17-19 8 0 12 4v347h133v-442h-113l-10 58q-8-28-29.5-46t-53.5-18z"/><path transform="translate(15.28 14.4) scale(.016 -.016)" d="m9 1v494h167l3-18q14 11 32.5 17.5t42.5 6.5q26 0 48.5-8t37.5-25q16 16 37.5 24.5t50.5 8.5q58 0 86.5-34t28.5-109v-357zm18 18h156v351h7q4 0 6-3t2-14v-334h156v351h7q4 0 6-3t2-14v-334h156v339q0 68-24.5 96.5t-82.5 28.5q-24 0-45-12.5t-33-32.5q-25 45-93 45-50 0-79-45l-7 39h-134zm8 8v442h119l11-58q8 28 30.5 46t51.5 18q41 0 62-14t30-42q9 24 30.5 40t48.5 16q59 0 79-29.5t20-87.5v-331h-140v326q0 25-16 25-3 0-7.5-0.5t-7.5-2.5v-348h-140v326q0 25-16 25-3 0-7.5-0.5t-7.5-2.5v-348z"/><path transform="translate(24.08 14.4) scale(.016 -.016)" d="m9 0v496h159l3-18q29 24 72 24 65 0 88.5-35.5t23.5-108.5v-358zm17 18h149v350q2 1 7 1 6 0 6-10v-341h150v340q0 62-20 94t-76 32q-28 0-48.5-11.5t-32.5-31.5l-6 37h-129zm8 9v442h114l10-58q8 28 30 46t55 18q50 0 68-29.5t18-87.5v-331h-133v329q0 14-4 18t-12 4q-7 0-13-3v-348z"/><path transform="translate(29.872 14.4) scale(.016 -.016)" d="m9 0v495h156v-495zm14 18h128v459h-128zm8 9v441h112v-441zm56 501q-29 0-50.5 21.5t-21.5 49.5q0 31 20.5 52.5t51.5 21.5q29 0 50.5-19.5t21.5-54.5q0-28-21.5-49.5t-50.5-21.5zm0 16q23 0 39.5 16.5t16.5 38.5q0 26-16.5 41t-39.5 15q-24 0-40-16t-16-40q0-22 16-38.5t40-16.5zm0 8q-21 0-34.5 15t-13.5 32q0 19 13.5 33.5t34.5 14.5q19 0 33.5-14.5t14.5-33.5q0-17-14.5-32t-33.5-15z"/><path transform="translate(35.056 14.4) scale(.016 -.016)" d="m188-7q-64 0-104 17t-59.5 57.5-19.5 113.5v42h116q-43 16-67.5 38.5t-34.5 58-10 91.5q0 69 17 109t57 57 110 17q183 0 183-158v-88h-76q31-16 48.5-36t25.5-50.5 8-78.5q0-103-50-146.5t-144-43.5zm0 18q85 0 131 39t46 133q0 54-9 83t-34 46.5-73 35.5q-16 6-24 10t-14 8h148v70q0 140-166 140-63 0-99-16t-51.5-52-15.5-97q0-64 18-104t70-64q23-11 38.5-19t26.5-17h-158v-26q0-97 39.5-133.5t126.5-36.5zm0 9q-82 0-119.5 34t-37.5 127v17h144v-53q0-26 4.5-35t13.5-9q10 0 13.5 11t3.5 39q0 30-9.5 46t-29.5 27.5-53 26.5q-49 23-66 60.5t-17 99.5q0 58 14.5 92t49 48.5 94.5 14.5q157 0 157-130v-61h-137v15q0 19-0.5 32.5t-1.5 23.5q-1 19-16 19-7 0-12-8t-5-36q0-29 8.5-43t24.5-21 37-16q41-16 64.5-33t33.5-45.5 10-79.5q0-89-44-126t-124-37zm16 351q-8 7-13 18t-5 32 2.5 28 6.5 7q6 0 8-17 1-8 1-20.5t0-28.5zm-11-261q-6 0-7.5 8t-1.5 30v57q9-10 13.5-23t4.5-34q0-23-2-30.5t-7-7.5z"/><path transform="translate(41.248 14.4) scale(.016 -.016)" d="m114-6q-24 0-49.5 7t-42.5 31-17 75v72q0 76 66 108h-57v85q0 67 34 100.5t127 33.5q64 0 102-10.5t55-39.5 17-84v-372h-184v4q-21-10-51-10zm0 18q26 0 42 7t26 19v-20h150v354q0 49-15 73.5t-49.5 33.5-92.5 9q-82 0-113-28.5t-31-87.5v-67h124q-6-4-16.5-7.5t-23.5-8.5q-19-7-41-18.5t-37-32.5-15-59v-72q0-42 14.5-62.5t35.5-26.5 42-6zm0 9q-19 0-38 5.5t-32 24-13 56.5v72q0 38 16.5 59t43.5 33 56 22q26 9 33.5 22t7.5 39v28q0 11-2.5 17.5t-11.5 6.5-12-9-3-26v-57h-120v58q0 53 29 80t107 27q55 0 87.5-8.5t47-31.5 14.5-67v-345h-133v44q-5-17-22.5-33.5t-54.5-16.5zm54 292v58q0 26 6 26t6-15v-28q0-29-12-41zm6-215q12 0 13 12 1 6 1 13.5t0 17.5v106q-13-8-21-20.5t-8-33.5v-58q0-15 2-26t13-11zm0 9q-5 0-5 9l-1 19v58q0 23 12 36v-112q0-10-6-10z"/><path transform="translate(46.944 14.4) scale(.016 -.016)" d="m9 0v496h159l3-18q29 24 72 24 65 0 88.5-35.5t23.5-108.5v-358zm17 18h149v350q2 1 7 1 6 0 6-10v-341h150v340q0 62-20 94t-76 32q-28 0-48.5-11.5t-32.5-31.5l-6 37h-129zm8 9v442h114l10-58q8 28 30 46t55 18q50 0 68-29.5t18-87.5v-331h-133v329q0 14-4 18t-12 4q-7 0-13-3v-348z"/><path transform="translate(52.736 14.4) scale(.016 -.016)" d="m182-13q-100 0-138.5 40.5t-38.5 128.5v57h70q-24 16-41.5 42t-17.5 72v25q0 82 40 118t137 36q98 0 134-38.5t36-124.5v-55h-60q26-15 43-40t17-69v-32q0-85-40.5-122.5t-140.5-37.5zm0 18q89 0 126.5 33.5t37.5 108.5v32q0 47-25 73.5t-63 37.5l-17 5q-8 2-15.5 4.5t-13.5 6.5h134v37q0 77-33 111.5t-120 34.5q-88 0-124-32t-36-105v-25q0-50 28.5-77.5t65.5-40.5q5-2 16-7t15-7h-136v-39q0-79 34.5-115t125.5-36zm0 9q-86 0-118.5 34.5t-32.5 107.5v30h134v-68q0-17 4-23.5t11-6.5q8 0 11 7t3 17v41q0 32-20.5 43.5t-50.5 23.5q-32 14-56.5 37t-24.5 70v25q0 68 34.5 98t116.5 30 113-32.5 31-104.5v-28h-129v67q0 24-14 24-7 0-11-4.5t-4-18.5v-42q0-22 16-34.5t60-26.5q35-11 58.5-33.5t23.5-67.5v-32q0-70-35-101.5t-120-31.5zm18 300q-12 9-12 27v42q0 14 6 14t6-14zm-20-217q-3 0-4.5 3.5t-1.5 13.5v72q12-12 12-33v-41q0-15-6-15z"/><path transform="translate(61.024 14.4) scale(.016 -.016)" d="m189-10q-61 0-101.5 16.5t-60.5 59-20 120.5v267q0 81 50 115.5t132 34.5 128.5-34 46.5-116v-152h-163v-18h163v-96q0-79-18.5-121.5t-57-59-99.5-16.5zm0 18q55 0 89.5 15t51.5 54 17 110v78h-153v-149q0-8-6-8-5 0-5 8v344q0 18 6 18 5 0 5-18v-141h153v134q0 72-42 102t-116 30-119.5-30-45.5-102v-267q0-70 18.5-109t55-54 91.5-15zm0 9q-53 0-87.5 14t-51.5 51-17 104v267q0 67 42.5 95t113.5 28q70 0 109.5-27.5t39.5-95.5v-125h-136v132q0 11-2.5 19t-10.5 8q-9 0-11.5-8t-2.5-19v-343q0-5 3-10.5t10-5.5q8 0 11 5.5t3 10.5v139h136v-69q0-67-15.5-104t-48-51.5-85.5-14.5z"/><path transform="translate(66.944 14.4) scale(.016 -.016)" d="m180-11q-60 0-98 14.5t-56.5 54.5-18.5 118v185q0 81 45 112t128 31 128-31 45-112v-185q0-78-19-118t-57-54.5-97-14.5zm0 18q54 0 88.5 13t51 49.5 16.5 106.5v185q0 72-40.5 98.5t-115.5 26.5-115.5-26.5-40.5-98.5v-185q0-70 16.5-106.5t51.5-49.5 88-13zm0 9q-51 0-84 12.5t-48.5 47-15.5 100.5v185q0 67 38 91.5t110 24.5q71 0 109-24.5t38-91.5v-185q0-66-15.5-100.5t-48-47-83.5-12.5zm0 72q11 0 13 8.5t2 15.5v270q0 14-3.5 19t-11.5 5q-7 0-11-4.5t-4-19.5v-270q0-10 2.5-17t12.5-7zm0 9q-6 0-6 15v270q0 15 6 15t6-15v-270q0-15-6-15z"/><path transform="translate(72.704 14.4) scale(.016 -.016)" d="M9 0V630H165V0ZM23 18H151V612H23ZM31 27V603H143V27Z"/><path transform="translate(75.488 14.4) scale(.016 -.016)" d="M9 0V630H165V0ZM23 18H151V612H23ZM31 27V603H143V27Z"/><path transform="translate(78.272 14.4) scale(.016 -.016)" d="m180-11q-60 0-98 14.5t-56.5 54.5-18.5 118v185q0 81 45 112t128 31 128-31 45-112v-185q0-78-19-118t-57-54.5-97-14.5zm0 18q54 0 88.5 13t51 49.5 16.5 106.5v28h-150v-89q0-11-1.5-14.5t-4.5-3.5q-6 0-6 18v112h162v134q0 72-40.5 98.5t-115.5 26.5-115.5-26.5-40.5-98.5v-185q0-70 16.5-106.5t51.5-49.5 88-13zm0 9q-51 0-84 12.5t-48.5 47-15.5 100.5v185q0 67 38 91.5t110 24.5q71 0 109-24.5t38-91.5v-125h-162v-121q0-16 4-21.5t11-5.5q14 0 14 27v80h133v-19q0-66-15.5-100.5t-48-47-83.5-12.5zm-15 280h29v85q0 25-14 25-7 0-11-5t-4-20zm9 9v77q0 15 6 15t6-15v-77z"/><path transform="translate(83.952 14.4) scale(.016 -.016)" d="m187-104q-18 0-42 3.5t-47 8.5-38 8v122q-31 17-42 58.5t-11 109.5v178q0 49 17 76.5t43.5 38.5 54.5 11q42 0 65-16l5 12h161v-382q0-44-5-85t-21.5-73-49.5-51-90-19zm0 18q51 0 81 18t44.5 48 19 67.5 4.5 76.5v363h-133l-10-23q-10 11-27 19.5t-44 8.5q-23 0-45.5-9.5t-37.5-32.5-15-66v-178q0-63 9.5-97.5t30.5-48.5 55-14q28 0 43.5 7.5t23.5 18.5v-23q0-24-14-31t-34-7q-23 0-61 11v-92q17-5 48.5-10.5t61.5-5.5zm0 9q-29 0-57.5 4.5t-44.5 9.5v73q27-8 53-8 23 0 39.5 9t16.5 38v59q-7-20-20.5-36t-54.5-16q-32 0-51 12.5t-27.5 45.5-8.5 92v178q0 39 13.5 60.5t34 30 42.5 8.5q34 0 49-11.5t23-25.5l14 32h119v-354q0-37-4-73t-17.5-65-42-46-76.5-17zm-7 215q14 0 14 28v230q-6 3-14 3-15 0-15-24v-209q0-28 15-28zm0 10q-6 0-6 14v210q0 11 2 14.5t6 3.5h4v-228q0-14-6-14z"/><path transform="translate(89.792 14.4) scale(.016 -.016)" d="m9 0v495h156v-495zm14 18h128v459h-128zm8 9v441h112v-441zm56 501q-29 0-50.5 21.5t-21.5 49.5q0 31 20.5 52.5t51.5 21.5q29 0 50.5-19.5t21.5-54.5q0-28-21.5-49.5t-50.5-21.5zm0 16q23 0 39.5 16.5t16.5 38.5q0 26-16.5 41t-39.5 15q-24 0-40-16t-16-40q0-22 16-38.5t40-16.5zm0 8q-21 0-34.5 15t-13.5 32q0 19 13.5 33.5t34.5 14.5q19 0 33.5-14.5t14.5-33.5q0-17-14.5-32t-33.5-15z"/><path transform="translate(92.576 14.4) scale(.016 -.016)" d="m114-6q-24 0-49.5 7t-42.5 31-17 75v72q0 76 66 108h-57v85q0 67 34 100.5t127 33.5q64 0 102-10.5t55-39.5 17-84v-372h-184v4q-21-10-51-10zm0 18q26 0 42 7t26 19v-20h150v354q0 49-15 73.5t-49.5 33.5-92.5 9q-82 0-113-28.5t-31-87.5v-67h124q-6-4-16.5-7.5t-23.5-8.5q-19-7-41-18.5t-37-32.5-15-59v-72q0-42 14.5-62.5t35.5-26.5 42-6zm0 9q-19 0-38 5.5t-32 24-13 56.5v72q0 38 16.5 59t43.5 33 56 22q26 9 33.5 22t7.5 39v28q0 11-2.5 17.5t-11.5 6.5-12-9-3-26v-57h-120v58q0 53 29 80t107 27q55 0 87.5-8.5t47-31.5 14.5-67v-345h-133v44q-5-17-22.5-33.5t-54.5-16.5zm54 292v58q0 26 6 26t6-15v-28q0-29-12-41zm6-215q12 0 13 12 1 6 1 13.5t0 17.5v106q-13-8-21-20.5t-8-33.5v-58q0-15 2-26t13-11zm0 9q-5 0-5 9l-1 19v58q0 23 12 36v-112q0-10-6-10z"/><path transform="translate(98.272 14.4) scale(.016 -.016)" d="m191-5q-40 0-74 10t-54.5 39.5-20.5 87.5v236h-41v107l57 22 18 88h145v-81h69v-136h-69v-212q0-15 18-15 10 0 24 2.5t27 3.5v-132q-8-3-17-5.5t-18-4.5q-15-4-32-7t-32-3zm0 19q15 0 29.5 2t26.5 5q7 2 13.5 3.5t13.5 3.5v101q-14-1-25-2.5t-16-1.5q-14 0-21.5 6.5t-7.5 24.5v230h70v100h-70v81h-115l-18-84-53-21v-76h40v-254q0-50 18.5-75.5t49-34 65.5-8.5zm0 9q-33 0-61 7.5t-45.5 31-17.5 70.5v263h-41v61l52 21 18 81h100v-81h69v-82h-69v-239q0-25 10-33t27-8q8 0 17 1.5t15 2.5v-84l-23-6q-22-6-51-6z"/><path transform="translate(102.98 14.4) scale(.016 -.016)" d="m180-11q-60 0-98 14.5t-56.5 54.5-18.5 118v185q0 81 45 112t128 31 128-31 45-112v-185q0-78-19-118t-57-54.5-97-14.5zm0 18q54 0 88.5 13t51 49.5 16.5 106.5v28h-150v-89q0-11-1.5-14.5t-4.5-3.5q-6 0-6 18v112h162v134q0 72-40.5 98.5t-115.5 26.5-115.5-26.5-40.5-98.5v-185q0-70 16.5-106.5t51.5-49.5 88-13zm0 9q-51 0-84 12.5t-48.5 47-15.5 100.5v185q0 67 38 91.5t110 24.5q71 0 109-24.5t38-91.5v-125h-162v-121q0-16 4-21.5t11-5.5q14 0 14 27v80h133v-19q0-66-15.5-100.5t-48-47-83.5-12.5zm-15 280h29v85q0 25-14 25-7 0-11-5t-4-20zm9 9v77q0 15 6 15t6-15v-77z"/><path transform="translate(111.06 14.4) scale(.016 -.016)" d="m189-11q-61 0-101.5 16.5t-60.5 59-20 120.5v267q0 81 50 115.5t132 34.5 128.5-34 46.5-116v-266q0-79-18.5-121.5t-57-59-99.5-16.5zm0 17q55 0 89.5 15t51.5 54.5 17 110.5v266q0 73-42 103t-116 30-119.5-30-45.5-103v-267q0-71 18.5-110t55-54 91.5-15zm0 9q-53 0-87.5 14t-51.5 51-17 105v267q0 68 42.5 96t113.5 28q70 0 109.5-27.5t39.5-96.5v-266q0-68-15.5-105t-48-51.5-85.5-14.5zm0 85q7 0 10 4.5t3 20.5v336q0 14-2.5 19.5t-10.5 5.5q-7 0-10.5-5.5t-3.5-19.5v-336q0-25 14-25zm0 8q-6 0-6 14v343q0 12 6 12 5 0 5-12v-343q0-14-5-14z"/><path transform="translate(116.99 14.4) scale(.016 -.016)" d="m9 0v496h159l3-18q29 24 72 24 65 0 88.5-35.5t23.5-108.5v-358zm17 18h149v350q2 1 7 1 6 0 6-10v-341h150v340q0 62-20 94t-76 32q-28 0-48.5-11.5t-32.5-31.5l-6 37h-129zm8 9v442h114l10-58q8 28 30 46t55 18q50 0 68-29.5t18-87.5v-331h-133v329q0 14-4 18t-12 4q-7 0-13-3v-348z"/><path transform="translate(122.78 14.4) scale(.016 -.016)" d="m180-11q-60 0-98 14.5t-56.5 54.5-18.5 118v185q0 81 45 112t128 31 128-31 45-112v-185q0-78-19-118t-57-54.5-97-14.5zm0 18q54 0 88.5 13t51 49.5 16.5 106.5v28h-150v-89q0-11-1.5-14.5t-4.5-3.5q-6 0-6 18v112h162v134q0 72-40.5 98.5t-115.5 26.5-115.5-26.5-40.5-98.5v-185q0-70 16.5-106.5t51.5-49.5 88-13zm0 9q-51 0-84 12.5t-48.5 47-15.5 100.5v185q0 67 38 91.5t110 24.5q71 0 109-24.5t38-91.5v-125h-162v-121q0-16 4-21.5t11-5.5q14 0 14 27v80h133v-19q0-66-15.5-100.5t-48-47-83.5-12.5zm-15 280h29v85q0 25-14 25-7 0-11-5t-4-20zm9 9v77q0 15 6 15t6-15v-77z"/></svg>