<svg width="68.88" height="19.392" viewBox="0 0 68.88 19.392" xmlns="http://www.w3.org/2000/svg"><path transform="translate(0 15.616) scale(.016 -.016)" d="m255 677h94l261-677h-127l-62 177h-244l-64-177h-118zm135-412q-32 90-55 163.5t-35 115.5q-14-45-37-118t-54-161z"/><path transform="translate(9.68 15.616) scale(.016 -.016)" d="m636 0v326q0 42-13 66.5t-45 24.5q-19 0-38.5-10.5t-35.5-30.5-26-48-10-62v-266h-113v326q0 42-13 66.5t-45 24.5q-20 0-39.5-11.5t-35-33.5-25-53.5-9.5-70.5v-248h-114v252q0 60-8 100.5t-17 65.5q-11 29-24 47l90 36q10-11 20-27 8-14 16-34.5t13-46.5q25 60 70.5 86.5t96.5 26.5 79.5-26 42.5-67q27 50 69.5 71.5t89.5 21.5q39 0 65.5-12.5t42-35 22.5-54 7-70.5v-334z"/><path transform="translate(22.624 15.616) scale(.016 -.016)" d="m467 241q0-60 7.5-100.5t16.5-65.5q11-30 24-47l-89-36q-13 13-24 31-9 16-17 38.5t-10 53.5q-17-60-54.5-90.5t-101.5-30.5q-47 0-81.5 17.5t-57.5 50-34 78.5-11 102q0 57 17.5 105.5t49 83.5 75.5 55 97 20q30 0 62.5-4.5t60.5-9.5 47.5-9.5 22.5-5.5zm-114 30v144q-10 3-30 7t-36 4q-38 0-62.5-13t-39.5-36-21-55-6-70q0-35 2-67t10.5-57 24.5-39.5 43-14.5q25 0 46 17t36.5 44.5 24 63 8.5 72.5z"/><path transform="translate(31.2 15.616) scale(.016 -.016)" d="m188 274v-274h-114v252q0 60-8 100.5t-17 65.5q-11 29-24 47l90 36q9-11 19-27 8-14 16-33t13-45q20 58 58 83.5t86 25.5q23 0 43-5.5t19-5.5l-32-111q1 0-11.5 5.5t-37.5 5.5q-18 0-36-9t-32-24.5-23-37.5-9-49z"/><path transform="translate(37.104 15.616) scale(.016 -.016)" d="m467 241q0-60 7.5-100.5t16.5-65.5q11-30 24-47l-89-36q-13 13-24 31-9 16-17 38.5t-10 53.5q-17-60-54.5-90.5t-101.5-30.5q-47 0-81.5 17.5t-57.5 50-34 78.5-11 102q0 57 17.5 105.5t49 83.5 75.5 55 97 20q30 0 62.5-4.5t60.5-9.5 47.5-9.5 22.5-5.5zm-114 30v144q-10 3-30 7t-36 4q-38 0-62.5-13t-39.5-36-21-55-6-70q0-35 2-67t10.5-57 24.5-39.5 43-14.5q25 0 46 17t36.5 44.5 24 63 8.5 72.5z"/><path transform="translate(45.68 15.616) scale(.016 -.016)" d="m375 0v323q0 42-15 67.5t-51 25.5q-23 0-44.5-11.5t-38.5-33.5-27.5-53.5-10.5-70.5v-247h-114v252q0 60-8 100.5t-17 65.5q-11 29-24 47l90 36q10-11 20-27 8-14 16-34.5t13-46.5q26 60 75 86.5t103 26.5q77 0 111.5-46.5t34.5-125.5v-334z"/><path transform="translate(54.464 15.616) scale(.016 -.016)" d="m10 498h90l20 117 94 21v-138h123l-14-81h-109v-296q0-26 14-33.5t31-7.5q14 0 28 2t25 5q13 3 25 7l19-75-9-3q-9-4-26.5-8.5t-41-8-51.5-3.5-51.5 6-40.5 19.5-26.5 34.5-9.5 52v309h-90z"/><path transform="translate(60.24 15.616) scale(.016 -.016)" d="m179 434q29 38 69.5 55t85.5 17q77 0 111.5-46.5t34.5-125.5v-334h-114v326q0 42-15 66.5t-51 24.5q-21 0-42.5-11t-39-31.5-28.5-48.5-11-62v-264h-114v705l114 20z"/></svg>