<svg width="39.984" height="17.654" viewBox="0 0 39.984 17.654" xmlns="http://www.w3.org/2000/svg"><path transform="translate(0 14.224) scale(.014 -.014)" d="m244 17v131q0 12-51 22t-84 10q-2 0-6.5-15t-6.5-22q-13-52-26-111l-5-22q-2-8-10-8t-14.5 5-6.5 12l1 2v1l11 50q12 47 21 92 10 51 15 66 8 33 32 165l6 33q26 154 36 194 5 24 18 71 5 20 14 40 9 17 15 17 16 0 23-10 5-9 15.5-99t18.5-182l13-166q0-43 6-130 6-88 6-131v-4q0-11-3-20-4-8-19-8-8 0-13.5 5t-5.5 12zm-1 186q0 62-7 169.5t-15 189.5q-2 35-8 77l-4 39q0-1-2 11l-2 12q-8-22-15.5-61t-15.5-92q-24-149-41-224l-9-34q-15-50-15-76v-6q44-14 101-14h6q3-1 7-1 20 0 20 10z"/><path transform="translate(4.942 14.224) scale(.014 -.014)" d="m447 12v66q0 144-6 225l-3 37q-4 25-4 44 0 34 2 62l2 62q0 31-4 47-20-14-121-421l-1-15q-3-25-8-40-3-11-8.5-17t-12.5-6q-16 0-23 8t-7 25q0 27-25.5 140t-55 217-40.5 115q-1-35-8-165-14-230-14-362l1-40q-4-13-21-13-3 0-10 5.5t-7 8.5q0 90 16 316 15 210 15 315 0 5-2 10-3 6-3 9 0 15 26 15 17 0 20-15 4-20 4-30l1-12q5-26 29-80 19-43 29-75 6-24 11-39 16-58 21-86l13-26q3-15 12-49 9-38 13-62t4-46q11 17 62.5 204.5t60.5 239.5q1 2 1.5 5.5t1.5 9.5q2 13 9 39 8 20 24 20 7 0 16-6t9-12q0-417 13-441v-52q-1-23-1-53 0-64 7-96 1-1 1.5-3t1.5-5q1-4 1-9 0-11-6.5-22t-15.5-11q-20 0-20 64zm-13 549h-1l-2-1 3-1z"/><path transform="translate(12.88 14.224) scale(.014 -.014)" d="m244 13q-9 73-11 91l-5 40q-22 5-50 5l-36 2q-24 3-35 3-6 0-7-5 0-3-1-3l-2-20q-1-18-11-72-5-27-12-42-8-17-15-17-6 0-13 5.5t-7 11.5l2 6q18 71 30 141l12 62 12 76t11 66q5 27 18 87 14 68 17 93 1 3 4 37 4 38 7 56 3 26 6 30h7q3-1 7-1 12 0 18 6 7 0 12.5-4.5t5.5-10.5q0-48 7-110 4-32 6-53 11-129 56-484v-3q0-10-8-15-15 0-19 3.5t-6 18.5zm-21 158q-10 144-38 425l-54-267q-23-115-23-145 0-5 38-9t67-4z"/><path transform="translate(17.262 14.224) scale(.014 -.014)" d="m138 14-1 37q-1 16-1 36 0 10 1 17l1 18q0 10-4 24 0 67-10 249-10 176-11 239-62 0-83 3-20 5-20 16 5 11 19 11 30 0 87-4 52-5 87-5h21l21 1q18 0 18-13 0-6-6.5-9.5t-15.5-3.5q-20 0-42 2l-43 2q-4 0-4-3-1-3-1-19 0-97 12-294 11-204 11-293 0-7-8.5-13t-16.5-6z"/><path transform="translate(21.42 14.224) scale(.014 -.014)" d="m99 10q-5 0-8-1h-8q-22 0-28 10 0 7 8 12l5 5h29l4 4 2 9 1 12q0 61-3 109l-2 37-2 73q0 39 3 117l2 116q0 76-5 116-9 3-30 3l-11-1q-6-1-13-1-19 0-19 17 0 4 9 8t15 4q38 0 76-4 23-1 46-9 18-6 18-17 0-2-3-8l-23-2q-7 6-29 6l-5-3q3-9 3-53 0-66-1-119l-2-119q0-45 4-109 3-73 3-110v-13q-1-7-1-18 0-23 3-28l-1-2q0-10 22-10 9 0 15 1h15q29 0 29-14 0-9-6-14.5t-16-5.5q-9 0-16 2-8 1-17 1-6 0-18-5-12-6-18-6-23 0-27 10z"/><path transform="translate(24.738 14.224) scale(.014 -.014)" d="m146-7q-19 6-32.5 17t-25.5 33q-21 40-25 115-2 34-2 60v114q0 65 4 126 3 45 9 76t19 62q14 32 31 45 7 6 27 14 13 5 25 11h43q1-1 3-1l5-1 4-3q3-3 3-4 1-2 1-6l-13-15h-42q-19 0-34.5-18.5t-23.5-46.5q-8-25-13-59t-6-59q-2-32-2-44l-2-5q0-56-2-101l-2-101q0-44 6-81 5-40 29-72 23-32 71-32 15 0 25 9 15 0 15-11 0-7-12.5-16.5t-25.5-14.5h-33z"/><path transform="translate(31.122 14.224) scale(.014 -.014)" d="m67-14q-12 6-18 17 0 12 11 12t28-7q16-8 27-8 22 0 40.5 18t28.5 47q20 57 20 101 0 49-14 99t-37 94q-5 11-17 33-25 50-38 78t-23 62q-14 45-14 97 0 33 10.5 63.5t33.5 52.5q25 23 56 23 12 0 29-9.5t17-18.5q0-8-6-8t-16 5q-9 5-17 5-23 0-40.5-17t-25.5-42q-7-21-7-46 0-39 10-80.5t27-77.5l35-73 10-21q21-43 32.5-71t19.5-63q11-47 11-90 0-58-30-118-15-29-40-47t-55-18q-18 0-27.5 1.5t-20.5 6.5z"/><path transform="translate(35.364 14.224) scale(.014 -.014)" d="m99 56q-12 26-24.5 165t-12.5 207v53q-1 23-1 51 0 52 6 103 4 25 10.5 43t18.5 35q22 34 66 45 23 6 51 6 19 0 38.5-11t19.5-26q0-11-16-11-6 0-23 7-15 7-27 7-28 0-50.5-11.5t-35.5-30.5q-11-16-19-44t-10-56q-3-25-3-60l1-56q1-24 1-52 0-69 14-203t27-155q12-19 35.5-29t49.5-10q46 0 70 29 9 12 19 12 9 0 9-14 0-18-11-31.5t-30-20.5q-32-14-70-14-28 0-59 22t-44 50z"/></svg>