<svg width="82.773" height="20.195" viewBox="0 0 82.773 20.195" xmlns="http://www.w3.org/2000/svg"><path transform="translate(0 15.797) scale(.0078125 -.0078125)" d="M979 485H451L305 94L473 41V0H-4V41L170 113L692 1475H784L1319 113L1483 41V0H971V41L1133 94ZM707 1169 492 592H938L715 1169Z"/><path transform="translate(11.344 15.797) scale(.0078125 -.0078125)" d="m614 41v-41h-542v41l184 72v751l-184 72v41l348 72 20-21v-119q69 66 159.5 103t182.5 37q90 0 163-42.5t110-127.5q69 79 168.5 124.5t201.5 45.5q60 0 113-19t95.5-57.5 67.5-102.5 25-147v-610l185-72v-41h-543v41l174 72v549q0 143-49.5 199.5t-167.5 56.5q-149 0-252-97 10-50 10-98v-610l174-72v-41h-532v41l174 72v549q0 143-49.5 199.5t-167.5 56.5q-142 0-242-89v-716z"/><path transform="translate(26.516 15.797) scale(.0078125 -.0078125)" d="m946 506h-647q1-112 32-195t84-130 116.5-69 138.5-22q104 0 223 70l31-60q-84-74-168-99.5t-191-25.5q-93 0-179 39.5t-151 109-104 170.5-39 218q0 111 28.5 202.5t75.5 152.5 109.5 103 128 60.5 133.5 18.5q85 0 157.5-31.5t129-93 89-161.5 32.5-228zm-375 446q-115 0-183.5-91t-84.5-249h477q0 160-54 250t-155 90z"/><path transform="translate(34.773 15.797) scale(.0078125 -.0078125)" d="m399 885v-557q0-68 10.5-114t31-68.5 43.5-31 55-8.5q60 0 100.5 10.5t87.5 39.5l31-64q-141-117-309-117-98 0-166 77.5t-68 217.5v615l-186 51v41l194 41 74 276h102v-276h293l35-12v-60z"/><path transform="translate(41.289 15.797) scale(.0078125 -.0078125)" d="m604 41v-41h-543v41l185 72v1263l-185 72v41l349 72 20-21v-633q70 66 165 104t187 38q135 0 223.5-82t88.5-244v-610l184-72v-41h-543v41l174 72v549q0 144-51 200t-176 56q-149 0-252-89v-716z"/><path transform="translate(51.516 15.797) scale(.0078125 -.0078125)" d="m-41 983v41h530v-41l-155-61 295-670 241 674-147 57v41h436v-41l-184-72-328-911-225-537-170 31-19 41 318 500-408 883v-7z"/><path transform="translate(60.328 15.797) scale(.0078125 -.0078125)" d="m174 338 107-227q13-8 32-14.5t41-11.5 45-8 45-3q51 0 92.5 10.5t71.5 30 46 48 16 64.5q0 47-38.5 89.5t-108.5 82.5l-107 60q-57 30-106.5 62t-86.5 70-58.5 84-21.5 103q0 69 27 120t77 84.5 120.5 50 156.5 16.5q132 0 264-43l-4-289h-41l-106 235q-38 5-65.5 8t-45.5 3q-54 0-93.5-12.5t-65-33-38-46.5-12.5-54q0-33 12.5-59.5t37-50.5 61.5-47.5 86-49.5q70-38 115.5-62t65.5-38q157-105 157-242 0-74-35.5-129.5t-93-93-129.5-56-145-18.5q-38 0-82 5t-88 14-84.5 21.5-71.5 27.5v299z"/><path transform="translate(67.781 15.797) scale(.0078125 -.0078125)" d="m399 885v-557q0-68 10.5-114t31-68.5 43.5-31 55-8.5q60 0 100.5 10.5t87.5 39.5l31-64q-141-117-309-117-98 0-166 77.5t-68 217.5v615l-186 51v41l194 41 74 276h102v-276h293l35-12v-60z"/><path transform="translate(74.297 15.797) scale(.0078125 -.0078125)" d="m1055 88v-37l-217-67q-64-14-108 14.5t-44 97.5q-130-121-305-121-145 0-217 75t-72 188q0 85 38 150.5t97 104.5 141 65 158 36 160 12v96q0 140-44 195t-146 55q-77 0-181-24l-106-232h-49v285q90 32 190 50t176 18q165 0 254.5-66.5t89.5-218.5v-625zm-590 4q57 0 117 27.5t104 75.5v329q-200-9-305-81.5t-105-184.5q0-86 55-126t134-40z"/></svg>