<svg width="81.904" height="39.184" viewBox="0 0 81.904 39.184" xmlns="http://www.w3.org/2000/svg"><path transform="translate(0 29.04) scale(.016 -.016)" d="m93 136t9.5 24.5 25.5 66.5 36.5 93.5 41.5 106 40.5 104.5 34.5 88q4 8 17.5 18t20.5 10q2 0 2.5-0.5t2.5-1.5l199-522q22-58 25-64 5-11 19.5-19t29-11.5 18.5-3.5q4-5 3-15.5t-2-12.5q-29 2-52 3.5t-55 1.5q-34 0-56.5-1.5t-56.5-3.5q-4 4-3.5 14t4.5 14q9 0 28 3.5t26 9.5q4 4 4 14 0 9-6.5 30.5t-16.5 48.5-20 52.5-16.5 42-6.5 16.5-2 2-4 2q-15 1-37 1t-41 0q-5 0-10 0t-9 0q-30 0-51-0.5t-54-2.5q-1 0-3-1.5t-2-1.5-7.5-20-18-47.5-18.5-51.5q-9-25-11.5-42t-2.5-27q0-11 15.5-17.5t32-8.5 20.5-2q2-2 3-12.5t-1-15.5q-19 1-32.5 2t-27 2-35.5 1-37-1-30-2-38-2q-2 2-2 12.5t2 15.5q9 0 30.5 4.5t28.5 14.5q15 19 25.5 42.5t20.5 49.5zm191 393-89-238t0.5-2 1.5-2q19-1 45.5-1.5t42.5-0.5q23 0 41.5 1t40.5 2q2 0 2.5 2.5t0.5 2.5z"/><path transform="translate(9.792 29.04) scale(.016 -.016)" d="m312 428q44 0 71.5-18.5t39.5-62.5q32 29 70.5 55t73.5 26q53 0 80-22t36.5-68 9.5-117v-108q0-22 0.5-41t4.5-31q2-5 14.5-9t26.5-5.5 20-1.5q3-4 3.5-14t-3.5-14q-30 2-52.5 3.5t-51.5 1.5q-28 0-51-1.5t-53-3.5q-4 4-3.5 14t3.5 14q6 0 20.5 1.5t27.5 5.5 14 9q3 10 3.5 25.5t0.5 34.5q0 3 0 6t0 6v105q0 49-6.5 83t-25.5 52-59 18q-24 0-46-12.5t-36-26-14-17.5q0-1 0.5-5.5t0.5-6.5q2-14 3-35t1-35v-120q0-22 0.5-41t4.5-31q2-5 14.5-9t26.5-5.5 20-1.5q3-4 3.5-14t-3.5-14q-30 2-52.5 3.5t-51.5 1.5q-28 0-51-1.5t-53-3.5q-4 4-3.5 14t3.5 14q6 0 20.5 1.5t27.5 5.5 14 9q4 12 4.5 31t0.5 41v100q0 89-19.5 123.5t-72.5 34.5q-22 0-43-11t-34.5-23.5-13.5-19.5v-204q0-22 0.5-41t4.5-31q2-5 14.5-9t26.5-5.5 20-1.5q3-4 3.5-14t-3.5-14q-30 2-52.5 3.5t-51.5 1.5q-28 0-51-1.5t-53-3.5q-4 4-3.5 14t3.5 14q6 0 20.5 1.5t27.5 5.5 14 9q4 12 4.5 31t0.5 41v178q0 10-0.5 28t-4.5 27q-3 9-17 12.5t-28 4-18 0.5q-1 2-2 12t2 14q38 5 74 15t65 26q4 0 7.5-6t3.5-10q0-3-1.5-14t-3-22-1.5-15 2-4q1 0 3 2 12 11 32 26.5t45.5 28 51.5 12.5z"/><path transform="translate(22.128 29.04) scale(.016 -.016)" d="m83 579q0 20 14.5 34.5t34.5 14.5 34.5-14.5 14.5-34.5-14.5-34.5-34.5-14.5-34.5 14.5-14.5 34.5zm94-466q0-22 0.5-41t4.5-31q2-5 14.5-9t26.5-5.5 20-1.5q3-4 3.5-14t-3.5-14q-30 2-52.5 3.5t-51.5 1.5q-28 0-51-1.5t-53-3.5q-4 4-3.5 14t3.5 14q6 0 20.5 1.5t27.5 5.5 14 9q4 12 4.5 31t0.5 41v182q0 10-0.5 26t-4.5 25q-3 9-17 12.5t-28 4-18 0.5q-1 2-2 12t2 14q38 5 74 15t65 26q4 0 7.5-6t3.5-10q0-3-2-17t-3.5-28-1.5-19z"/><path transform="translate(26.336 29.04) scale(.016 -.016)" d="m296 427q19 0 36-8.5t24-20.5q2-4 3-11t1-15q0-27-12.5-39t-20.5-12q-10 0-19 7t-17 12q-7 5-14.5 8.5t-21.5 3.5q-21 0-38.5-17.5t-28.5-38.5-11-32v-151q0-22 0.5-41t4.5-31q2-5 20-9t38-5.5 26-1.5q3-4 3.5-14t-3.5-14q-30 2-61 3.5t-60 1.5q-28 0-54-1.5t-56-3.5q-4 4-3.5 14t3.5 14q6 0 20.5 1.5t27.5 5.5 14 9q4 12 4.5 31t0.5 41v182q0 10-0.5 26t-4.5 25q-3 9-17 12.5t-28 4-18 0.5q-1 2-2 12t2 14q38 5 74 15t65 26q4 0 7.5-6t3.5-10q0-3-2-23t-3.5-40.5-1.5-26.5q0-3 1.5-3t2.5 1q10 21 28.5 45.5t41.5 42 45 17.5z"/><path transform="translate(32.32 29.04) scale(.016 -.016)" d="m83 579q0 20 14.5 34.5t34.5 14.5 34.5-14.5 14.5-34.5-14.5-34.5-34.5-14.5-34.5 14.5-14.5 34.5zm94-466q0-22 0.5-41t4.5-31q2-5 14.5-9t26.5-5.5 20-1.5q3-4 3.5-14t-3.5-14q-30 2-52.5 3.5t-51.5 1.5q-28 0-51-1.5t-53-3.5q-4 4-3.5 14t3.5 14q6 0 20.5 1.5t27.5 5.5 14 9q4 12 4.5 31t0.5 41v182q0 10-0.5 26t-4.5 25q-3 9-17 12.5t-28 4-18 0.5q-1 2-2 12t2 14q38 5 74 15t65 26q4 0 7.5-6t3.5-10q0-3-2-17t-3.5-28-1.5-19z"/><path transform="translate(41.2 29.04) scale(.016 -.016)" d="m364 651q65 0 122.5-24t101.5-68.5 69.5-105 25.5-133.5q0-75-30-139t-81.5-110-116.5-67q35-17 59-32t45-26.5 46.5-18 63.5-6.5q29 0 46.5 2.5t22.5 3.5q5 0 10.5-2t7.5-5q1-1 1-3-40-21-78.5-35.5t-83.5-14.5q-39 0-74.5 16t-71.5 38.5-75.5 44.5-87.5 34q-68 17-122 61.5t-85 111-31 147.5q0 69 25 129t68.5 105.5 101 71 121.5 25.5zm-14-33q-55 0-94-24.5t-63.5-64.5-36-89-11.5-98q0-57 15.5-113.5t45.5-103 73.5-74.5 100.5-28q55 0 94 24.5t64 65.5 36.5 90.5 11.5 98.5q0 57-15.5 113t-46 102-74 73.5-100.5 27.5z"/><path transform="translate(52.864 29.04) scale(.016 -.016)" d="m341 312q0 1 0 4 0 10-1 24.5t-6 24.5q-7 14-26 17t-29 3q-2 2-2.5 11.5t2.5 13.5q38 2 73 7t61 13q4 0 7-10t3-14q-3-6-4.5-24t-1.5-39v-205q0-8 1-31.5t5-43.5q3-12 22.5-14t29.5-3q5 0 6 0 2-1 2.5-5t0.5-6q0-1-2-8t-6-7q-25-1-54.5-8t-50.5-13.5-22-6.5q-4 0-6 5.5t-2 10.5v45q0 4-1 4.5t-1 0.5q-13-14-36-29.5t-50-25.5-52-10q-39 0-63 18.5t-37 48-17.5 63.5-4.5 65v124q0 10-1 26t-7 27q-7 14-26 17t-29 3q-2 2-2.5 11.5t2.5 13.5q38 2 73 7t61 13q4 0 7.5-8t3.5-12q-3-6-5-26t-2-41v-144q0-78 23.5-114.5t74.5-36.5q22 0 42 8.5t33.5 21.5 13.5 24z"/><path transform="translate(60.896 29.04) scale(.016 -.016)" d="m296 427q19 0 36-8.5t24-20.5q2-4 3-11t1-15q0-27-12.5-39t-20.5-12q-10 0-19 7t-17 12q-7 5-14.5 8.5t-21.5 3.5q-21 0-38.5-17.5t-28.5-38.5-11-32v-151q0-22 0.5-41t4.5-31q2-5 20-9t38-5.5 26-1.5q3-4 3.5-14t-3.5-14q-30 2-61 3.5t-60 1.5q-28 0-54-1.5t-56-3.5q-4 4-3.5 14t3.5 14q6 0 20.5 1.5t27.5 5.5 14 9q4 12 4.5 31t0.5 41v182q0 10-0.5 26t-4.5 25q-3 9-17 12.5t-28 4-18 0.5q-1 2-2 12t2 14q38 5 74 15t65 26q4 0 7.5-6t3.5-10q0-3-2-23t-3.5-40.5-1.5-26.5q0-3 1.5-3t2.5 1q10 21 28.5 45.5t41.5 42 45 17.5z"/><path transform="translate(66.88 29.04) scale(.016 -.016)" d="m235 426q28 0 52.5-18t39.5-48 15-68v-201q0-19 7-32.5t23-13.5q14 0 22 6t10 7q2 0 3-3t1-5q0-11-5-19-6-5-19.5-14t-28-16-25.5-7q-21 0-37.5 21t-21.5 43q-4-4-18.5-15t-33.5-22.5-37.5-20-31.5-8.5q-48 0-81 32.5t-33 79.5q0 30 16.5 51.5t32.5 27.5q28 10 62.5 21.5t64.5 22.5 44 17q8 3 10 7.5t2 17.5v26q0 22-11 43.5t-30 36-43 14.5q-25 0-37-16t-17-45q-9-47-46-47-16 0-24.5 13t-8.5 28q0 3 2 11.5t5 12.5q15 14 43 33t63.5 33 70.5 14zm-52-381q17 0 37 8t34 17.5 14 14.5v133q-19-6-48-15t-43-14q-26-10-43-29t-17-47q0-27 19-47.5t47-20.5z"/><path transform="translate(73.6 29.04) scale(.016 -.016)" d="m315 428q53 0 80-22t36.5-68 9.5-117v-108q0-22 0.5-41t4.5-31q2-5 14.5-9t26.5-5.5 20-1.5q3-4 3.5-14t-3.5-14q-30 2-52.5 3.5t-51.5 1.5q-28 0-51-1.5t-53-3.5q-4 4-3.5 14t3.5 14q6 0 20.5 1.5t27.5 5.5 14 9q4 12 4.5 31t0.5 41v98q0 61-8 95.5t-29 49.5-59 15q-18 0-39.5-11.5t-37.5-24.5-16-18v-204q0-22 0.5-41t4.5-31q2-5 14.5-9t26.5-5.5 20-1.5q3-4 3.5-14t-3.5-14q-30 2-52.5 3.5t-51.5 1.5q-28 0-51-1.5t-53-3.5q-4 4-3.5 14t3.5 14q6 0 20.5 1.5t27.5 5.5 14 9q4 12 4.5 31t0.5 41v178q0 10-0.5 28t-4.5 27q-3 9-17 12.5t-28 4-18 0.5q-1 2-2 12t2 14q38 5 74 15t65 26q4 0 7.5-6t3.5-10q0-3-1.5-15.5t-3-24.5-1.5-16 2-4q1 0 3 2 10 11 32.5 28t49.5 30.5 50 13.5z"/></svg>