<svg width="56.008" height="20.625" viewBox="0 0 56.008 20.625" xmlns="http://www.w3.org/2000/svg"><path transform="translate(0 15.375) scale(.0078125 -.0078125)" d="m190-13-130 22 397 1275h187l379-1275-121-22-116 380 58-47h-593l59 47zm116 390-32 44h536l-32-44-245 840h26z"/><path transform="translate(8.4609 15.375) scale(.0078125 -.0078125)" d="m150 0v985h96l18-64q101 48 167 63.5t139 15.5q102 0 167.5-37t97.5-111.5 32-188.5v-663h-128v668q0 119-39.5 173t-136.5 54q-61 0-139.5-15t-182.5-80l37 67v-867z"/><path transform="translate(16.289 15.375) scale(.0078125 -.0078125)" d="m415-10q-138 0-227 70t-89 209q0 67 36 138.5t117.5 120.5 216.5 49q43 1 111.5-6t143.5-31l-52-32v101q0 115-25.5 176.5t-72 85.5-109.5 24q-61 0-135.5-14t-148.5-38l-25 99q78 26 160 42t155 16q107 0 180.5-34.5t111-116 37.5-222.5v-627h-96l-31 113 24-36q-19-16-63.5-36.5t-102-35.5-116.5-15zm20 102q74 0 146 23.5t109 54.5l-18-58v390l36-58q-59 24-108 31.5t-89 7.5q-133 0-208.5-52t-75.5-153q0-100 54.5-143t153.5-43z"/><path transform="translate(23.594 15.375) scale(.0078125 -.0078125)" d="m150 0v1358h128v-430q95 44 158.5 58t133.5 14q102 0 167.5-37t97.5-111.5 32-188.5v-663h-128v668q0 119-39.5 173t-136.5 54q-61 0-139.5-15t-182.5-80l37 67v-867z"/><path transform="translate(31.422 15.375) scale(.0078125 -.0078125)" d="m508-10q-193 0-299.5 119.5t-106.5 386.5q0 130 29.5 225t83 157 126.5 92 160 30q111 0 190.5-49.5t122-138.5 42.5-208q0-22-2-56.5t-6-78.5h-663l46 54q-6-178 34-270t108-125 146-33q83 0 149.5 18.5t129.5 47.5l43-91q-66-37-153.5-58.5t-179.5-21.5zm228 524v56q8 148-53 236.5t-181 88.5q-138 0-209.5-101t-61.5-274l-46 39h597z"/><path transform="translate(38.844 15.375) scale(.0078125 -.0078125)" d="m90 0v100h192v785h-188v100h316v-885h192v-100zm255 1176q-38 0-64 26t-26 64 26 64 64 26 64-26 26-64-26-64-64-26z"/><path transform="translate(44.016 15.375) scale(.0078125 -.0078125)" d="m150 0v985h96l18-64q97 48 159.5 63.5t132.5 15.5q73 0 133-22.5t106-93.5l-41 7q87 55 182 82t171 27q102 0 167-37t95.5-111.5 30.5-188.5v-663h-128v668q0 119-37.5 173t-128.5 54q-58 0-132-15t-172-80l13 32q11-24 17.5-76.5t6.5-92.5v-663h-128v668q0 119-37.5 173t-128.5 54q-58 0-132-15t-172-80l37 68v-868z"/></svg>