<svg width="85.216" height="19.2" viewBox="0 0 85.216 19.2" xmlns="http://www.w3.org/2000/svg"><path transform="translate(0 14.4) scale(.016 -.016)" d="M0 0V18L68 58L296 605L350 630L573 58L632 18V0H395V18L479 58L412 232H193L122 57L193 18V0ZM208 270H398L305 512Z"/><path transform="translate(10.112 14.4) scale(.016 -.016)" d="m26 0v18l70 35v332l-71 20v18l126 39h31v-59q43 26 80.5 42.5t68.5 16.5q36 0 65.5-12.5t47-37.5 17.5-64v-295l70-35v-18h-186v18l30 35v256q0 27-12 47t-33 31-47 11q-23 0-49-6t-52-19v-320l65-35v-18z"/><path transform="translate(18.832 14.4) scale(.016 -.016)" d="m247-12q-48 0-85.5 15t-64 43.5-40.5 69.5-14 93q0 79 29.5 135.5t80.5 87 114 30.5q28 0 60-4t55-15l-17-101h-23l-66 72q-6 2-21 2.5t-22 0.5q-36 0-61-15t-38-49.5-13-94.5q0-76 22-121t59.5-64.5 81.5-19.5q26 0 54.5 6.5t57.5 19.5l10-25q-24-17-45.5-29t-40.5-20-37.5-12.5-35.5-4.5z"/><path transform="translate(25.728 14.4) scale(.016 -.016)" d="m26 0v18l70 35v332l-71 20v18l126 39h31v-409l70-35v-18zm116 541q-7 0-17.5 4.5t-20 12-16.5 16-7 16.5q0 9 5.5 18.5t14.5 19 18.5 15.5 16.5 6q6 0 16.5-4.5t20.5-12.5 17-16 7-17q0-8-6-18t-15-19-18.5-15-15.5-6z"/><path transform="translate(30.112 14.4) scale(.016 -.016)" d="M31 0V23L292 414H134L55 313H37L60 450H399V425L139 36H318L404 147H422L397 0Z"/><path transform="translate(37.168 14.4) scale(.016 -.016)" d="m157-12q-32 0-60 14t-44.5 39-16.5 56q0 39 31 72t87.5 54.5 133.5 22.5v80q0 25-10.5 46.5t-33 35.5-56.5 14q-3 0-8.5-0.5t-8.5-1.5l-81-90h-22l-9 84q42 17 72.5 27.5t55.5 15.5 50 5q37 0 67-13t48-37.5 18-60.5v-288l71-21v-17l-122-37h-31v55q-25-16-47-28.5t-42-19.5-42-7zm41 59q19 0 41 6t49 20v120q-13 3-35.5 5t-48.5 2q-40 0-65.5-18t-25.5-56q0-40 26-59.5t59-19.5z"/><path transform="translate(44.512 14.4) scale(.016 -.016)" d="m26 0v18l70 35v332l-71 20v18l126 39h31v-63q44 33 74.5 48t52.5 15q29 0 48-10l-17-100h-22l-76 43q-17-3-32.5-10t-27.5-15v-317l90-35v-18z"/><path transform="translate(54.208 14.4) scale(.016 -.016)" d="m217-12q-50 0-90.5 6.5t-72.5 18.5l23 134h27l42-97q28-10 59-13.5t61-3.5q28 0 52 10t38.5 33 14.5 57q0 45-24.5 78t-89.5 58l-55 23q-42 17-71.5 39.5t-45 52.5-15.5 68q0 48 26.5 86.5t76.5 62 120 23.5q50 0 87.5-7.5t63.5-18.5l-22-130h-26l-48 95q-25 10-52.5 13.5t-53.5 3.5q-44 0-69-22.5t-25-66.5q0-51 29-79t77-48l55-23q55-23 86-48t43.5-54 12.5-64q0-54-31-96t-83.5-66.5-119.5-24.5z"/><path transform="translate(62.32 14.4) scale(.016 -.016)" d="m254-12q-57 0-105 23.5t-76 74-28 133.5q0 54 16 98t45 76.5 67 50.5 82 18q57 0 92-22t52-55 20.5-69.5-2.5-66.5h-285q-1-69 21-112.5t60-63 86-19.5q24 0 55.5 8t64.5 28l10-25q-41-29-85.5-53t-89.5-24zm-122 296h198q0 43-12 73t-35.5 45.5-60.5 15.5q-29 0-48-11.5t-28.5-40-13.5-82.5z"/><path transform="translate(69.872 14.4) scale(.016 -.016)" d="m26 0v18l70 35v332l-71 20v18l126 39h31v-63q44 33 74.5 48t52.5 15q29 0 48-10l-17-100h-22l-76 43q-17-3-32.5-10t-27.5-15v-317l90-35v-18z"/><path transform="translate(75.728 14.4) scale(.016 -.016)" d="m26 0v18l70 35v332l-71 20v18l126 39h31v-409l70-35v-18zm116 541q-7 0-17.5 4.5t-20 12-16.5 16-7 16.5q0 9 5.5 18.5t14.5 19 18.5 15.5 16.5 6q6 0 16.5-4.5t20.5-12.5 17-16 7-17q0-8-6-18t-15-19-18.5-15-15.5-6z"/><path transform="translate(80.112 14.4) scale(.016 -.016)" d="m26 0v18l70 35v360h-61v37h61v30q0 58 16.5 100.5t44.5 69.5 63 40 73 13q17 0 35.5-2t32.5-7l-14-80h-20l-70 52q-35 0-55-33.5t-20-115.5v-67h28l98 5-10-50-88 8h-28v-360l100-35v-18z"/></svg>