<svg width="78.704" height="19.2" viewBox="0 0 78.704 19.2" xmlns="http://www.w3.org/2000/svg"><path transform="translate(0 14.4) scale(.016 -.016)" d="M10 0 231 612H334L553 0H457L389 190H166L100 0ZM188 258H367L276 516Z"/><path transform="translate(9.008 14.4) scale(.016 -.016)" d="m72 0v449l62 13 16-50q20 11 46 22.5t53 19.5 50 8q42 0 73-16t48-46 17-71v-329h-86v297q0 43-22 69t-63 26q-27 0-55-9.5t-53-20.5v-362z"/><path transform="translate(17.04 14.4) scale(.016 -.016)" d="m247-13q-47 0-85.5 15.5t-66.5 45-43.5 71.5-15.5 95q0 58 16.5 103.5t46.5 78 69.5 49.5 86.5 17q43 0 72.5-6t50.5-14l-16-67q-22 9-49 16t-60 7q-57 0-92.5-40.5t-35.5-128.5q0-60 20-98t53-56.5 71-18.5q32 0 57 5.5t48 15.5l13-58q-25-11-63-21.5t-77-10.5z"/><path transform="translate(23.568 14.4) scale(.016 -.016)" d="m72 0v449l86 13v-462zm48 548q-7 0-17.5 4.5t-20.5 12-17 16.5-7 17 6 18 15 20 18.5 16 16.5 6 17.5-4.5 20.5-12 17-17 7-17.5-6.5-18-15-19.5-18-15.5-16.5-6z"/><path transform="translate(27.248 14.4) scale(.016 -.016)" d="m36 0v59l228 326-225-3 7 68h324v-59l-232-327 247 3-7-67z"/><path transform="translate(33.888 14.4) scale(.016 -.016)" d="m168-13q-55 0-92.5 32.5t-37.5 86.5q0 63 59 104t195 44q0 13 0 25.5t-1 24.5q-1 43-24 66t-61 23q-30 0-65.5-8.5t-70.5-22.5l-18 61q47 18 88.5 28.5t92.5 10.5q66 0 104.5-35.5t38.5-109.5v-317l-59-13-18 53q-17-11-40-23.5t-46.5-21-44.5-8.5zm23 64q23 0 48 9.5t54 24.5v107q-17 2-34.5 2.5t-36.5 0.5q-45 0-75.5-18.5t-30.5-53.5q0-25 11.5-41t29-23.5 34.5-7.5z"/><path transform="translate(40.944 14.4) scale(.016 -.016)" d="m72 0v449l62 13 19-60q26 23 59.5 41.5t71.5 18.5q8 0 14.5-1t14.5-2l-10-81q-7 2-16 3t-21 1q-28 0-55-9.5t-53-26.5v-346z"/><path transform="translate(49.632 14.4) scale(.016 -.016)" d="m194-13q-23 0-51 3.5t-54.5 9.5-44.5 13l21 82q28-11 54-19.5t53-13 55-4.5q49 0 81 23t32 67q0 27-9.5 48t-36.5 40-79 40q-84 34-120.5 76.5t-36.5 102.5q0 48 25 86t71.5 60.5 111.5 22.5q52 0 91.5-7.5t62.5-15.5l-22-79q-27 10-52 17t-51 11-54 4q-96 0-96-83 0-27 12-47t39-36.5 71-36.5q65-26 100-53t48.5-56.5 13.5-65.5q0-58-27.5-100.5t-80.5-65.5-127-23z"/><path transform="translate(57.296 14.4) scale(.016 -.016)" d="m168-13q-55 0-92.5 32.5t-37.5 86.5q0 63 59 104t195 44q0 13 0 25.5t-1 24.5q-1 43-24 66t-61 23q-30 0-65.5-8.5t-70.5-22.5l-18 61q47 18 88.5 28.5t92.5 10.5q66 0 104.5-35.5t38.5-109.5v-317l-59-13-18 53q-17-11-40-23.5t-46.5-21-44.5-8.5zm23 64q23 0 48 9.5t54 24.5v107q-17 2-34.5 2.5t-36.5 0.5q-45 0-75.5-18.5t-30.5-53.5q0-25 11.5-41t29-23.5 34.5-7.5z"/><path transform="translate(64.352 14.4) scale(.016 -.016)" d="m72 0v449l62 13 16-50q20 11 46 22.5t53 19.5 50 8q42 0 73-16t48-46 17-71v-329h-86v297q0 43-22 69t-63 26q-27 0-55-9.5t-53-20.5v-362z"/><path transform="translate(72.384 14.4) scale(.016 -.016)" d="m180-13q-42 0-80.5 8.5t-63.5 17.5l15 68q39-13 75-22t79-9q30 0 51.5 17.5t21.5 48.5q0 19-10 31.5t-25.5 21.5-33.5 16l-66 26q-23 9-45 23t-36.5 37.5-14.5 58.5q0 37 22.5 67t59.5 47.5 79 17.5q48 0 86.5-6.5t56.5-14.5l-17-68q-36 11-72 18.5t-62 7.5q-33 0-53.5-13.5t-20.5-40.5q0-28 17-42t51-30l58-22q26-10 50.5-24.5t40.5-38 16-59.5q0-42-23-74t-63.5-50-92.5-18z"/></svg>