<svg width="90.643" height="16.8" viewBox="0 0 90.643 16.8" xmlns="http://www.w3.org/2000/svg"><path transform="translate(0 10.5) scale(.007 -.007)" d="M49 0 449 1278H711L1112 0H944L593 1166H568L217 0ZM289 377V515H871V377Z"/><path transform="translate(8.127 10.5) scale(.007 -.007)" d="m785 0v607q0 79-21.5 136t-70 88.5-132.5 31.5q-77 0-133.5-29t-91.5-78.5-49-112.5l-29 115h35q16 66 56 120.5t107.5 87 165.5 32.5q116 0 187.5-44t104.5-126.5 33-202.5v-625zm-653 0v976h162l-7-234 7-9v-733z"/><path transform="translate(15.589 10.5) scale(.007 -.007)" d="m542-22q-223 0-336 109t-113 312v174q0 206 105 317.5t307 111.5q136 0 227-50.5t137-143.5 46-222v-36q0-32-2.5-64t-6.5-63h-149q2 48 2.5 91t0.5 79q0 89-28.5 150.5t-85 94-141.5 32.5q-126 0-189-73t-63-209v-93l1-20v-93q0-61 18-110t56.5-84.5 98-54 141.5-18.5q95 0 177 25t154 68l-15-140q-65-41-151-65.5t-191-24.5zm-364 445v122h694v-122z"/><path transform="translate(22.582 10.5) scale(.007 -.007)" d="M766 0 380 455H277V581H380L750 976H942L499 505V544L960 0ZM132 0V1325H293V0Z"/><path transform="translate(33.397 10.5) scale(.007 -.007)" d="m544-24q-145 0-243 58.5t-147.5 170.5-49.5 271v302q0 252 129.5 387.5t380.5 135.5q90 0 163.5-14.5t130.5-38 98-49.5l15-150q-69 44-162.5 77t-216.5 33q-186 0-277.5-99t-91.5-285v-298q0-172 80.5-265.5t241.5-93.5q82 0 140.5 28t96 74 54.5 101v315l27-59h-301v138h436v-505l-163 1q-16-62-55-116t-109-86.5-177-32.5zm349 288h155v-264h-162z"/><path transform="translate(41.657 10.5) scale(.007 -.007)" d="m281 976v-607q0-77 21.5-134.5t70.5-89 132-31.5q78 0 134 28.5t91.5 78.5 48.5 113l29-115h-35q-15-66-55-120.5t-107.5-87-166.5-32.5q-115 0-186.5 43.5t-104.5 127-33 201.5v625zm653 0v-976h-162l7 234-7 10v732z"/><path transform="translate(49.119 10.5) scale(.007 -.007)" d="m286 597-37 125 40 2q32 124 110 195.5t207 71.5q32 0 57.5-5t45.5-12l10-157q-25 8-55.5 13t-67.5 5q-110 0-191.5-61t-118.5-177zm-154-597v976h158l-8-288 12-12v-676z"/><path transform="translate(54.341 10.5) scale(.007 -.007)" d="m1351 0v611q0 77-19.5 133.5t-64 87.5-119.5 31q-71 0-123-29t-84-77.5-45-110.5l-25 115h20q16 63 54 117t103 87 161 33q109 0 175.5-43t97.5-125.5 31-200.5v-629zm-1219 0v976h162l-7-234 7-10v-732zm610 0v611q0 77-19.5 133.5t-63.5 87.5-119 31q-72 0-124-29t-84-78.5-45-112.5l-30 115h36q15 66 52 120.5t100.5 87 154.5 32.5q135 0 205.5-70t88.5-204q5-20 7-43.5t2-46.5v-634z"/><path transform="translate(65.765 10.5) scale(.007 -.007)" d="m281 976v-607q0-77 21.5-134.5t70.5-89 132-31.5q78 0 134 28.5t91.5 78.5 48.5 113l29-115h-35q-15-66-55-120.5t-107.5-87-166.5-32.5q-115 0-186.5 43.5t-104.5 127-33 201.5v625zm653 0v-976h-162l7 234-7 10v732z"/><path transform="translate(73.227 10.5) scale(.007 -.007)" d="M766 0 380 455H277V581H380L750 976H942L499 505V544L960 0ZM132 0V1325H293V0Z"/><path transform="translate(80.15 10.5) scale(.007 -.007)" d="m785 0v607q0 79-21.5 136t-70 88.5-132.5 31.5q-77 0-133-29t-90.5-78.5-48.5-112.5l-36 115h42q15 66 55 120.5t107.5 87 164.5 32.5q116 0 187.5-44t104.5-126.5 33-202.5v-625zm-653 0v1325h161v-318l-5-280 6-13v-714z"/><path transform="translate(87.612 10.5) scale(.007 -.007)" d="m135 0v976h162v-976zm81 1136q-50 0-74.5 26.5t-24.5 72.5v5q0 47 24.5 73t74.5 26 75-26 25-73v-5q0-47-25-73t-75-26z"/></svg>