<svg width="83.398" height="19.981" viewBox="0 0 83.398 19.981" xmlns="http://www.w3.org/2000/svg"><path transform="translate(0 13.255) scale(.0068359 -.0068359)" d="m1233 40h-439v79l107 9q9 0 15 13t4 19l-127 337h-426l-122-332q-1-2-1-5 0-30 27-32l109-9v-79h-371v79l107 23 429 1164h139l427-1137q8-21 14-26 6-6 25-9l83-15zm-473 545-181 483-179-483z"/><path transform="translate(8.4902 13.255) scale(.0068359 -.0068359)" d="m1008 40h-407v72l78 5q38 3 38 41v479q0 180-177 180-95 0-203-54v-605q0-38 39-41l78-5v-72h-417v72l91 5q38 1 38 41v640h-129v61l225 69h75v-92q200 114 305 114 246 0 246-283v-509q0-38 39-41l81-5z"/><path transform="translate(15.634 13.255) scale(.0068359 -.0068359)" d="m1008 40h-407v72l78 5q38 3 38 41v479q0 180-177 180-95 0-203-54v-605q0-38 39-41l78-5v-72h-417v72l91 5q38 1 38 41v640h-129v61l225 69h75v-92q200 114 305 114 246 0 246-283v-509q0-38 39-41l81-5z"/><path transform="translate(22.777 13.255) scale(.0068359 -.0068359)" d="m907 40h-273l-25 109q-175-131-307-131-100 0-169.5 66t-69.5 183q0 85 54 142.5t138.5 94.5 179 59.5 174.5 38.5v80q0 182-170 182-71 0-131-24v-160h-134q-69 0-69 53 0 60 36.5 101.5t94.5 67 125 37 128 11.5q291 0 291-276v-516q0-39 39-41l88-5zm-298 174v318q-226-57-306-123-57-48-57-130 0-60 36-104 40-49 101-49 92 0 226 88z"/><path transform="translate(29.196 13.255) scale(.0068359 -.0068359)" d="m967 497q0-217-123-348t-343-131q-57 0-164 17v-276q0-36 41-39l109-9v-72h-447v72l88 9q38 4 38 39v1039h-126v61l225 69h72v-92q146 114 279 114 107 0 186-61.5t122-164 43-227.5zm-184-25q0 90-27 170t-83.5 130-146.5 50q-85 0-189-56v-633q81-30 150-30 100 0 165.5 51t98 135 32.5 183z"/><path transform="translate(36.237 13.255) scale(.0068359 -.0068359)" d="m1010 40h-293v105q-166-127-295-127-255 0-255 298v500h-128v63l226 71h73v-599q0-208 179-208 91 0 200 55v618h-129v63l225 71h75v-792q0-38 41-41l81-5z"/><path transform="translate(43.401 13.255) scale(.0068359 -.0068359)" d="m703 740h-72q-46 51-100 51-85 0-185-115v-518q0-39 39-41l122-5v-72h-461v70l91 7q38 3 38 41v640h-133v61l229 69h75v-164q27 33 68 77t87.5 76.5 88.5 32.5q64 0 113-27z"/><path transform="translate(48.33 13.255) scale(.0068359 -.0068359)" d="m1008 40h-407v72l78 5q38 3 38 41v479q0 180-177 180-95 0-203-54v-605q0-38 39-41l78-5v-72h-417v72l91 5q38 1 38 41v640h-129v61l225 69h75v-92q200 114 305 114 246 0 246-283v-509q0-38 39-41l81-5z"/><path transform="translate(55.474 13.255) scale(.0068359 -.0068359)" d="m907 40h-273l-25 109q-175-131-307-131-100 0-169.5 66t-69.5 183q0 85 54 142.5t138.5 94.5 179 59.5 174.5 38.5v80q0 182-170 182-71 0-131-24v-160h-134q-69 0-69 53 0 60 36.5 101.5t94.5 67 125 37 128 11.5q291 0 291-276v-516q0-39 39-41l88-5zm-298 174v318q-226-57-306-123-57-48-57-130 0-60 36-104 40-49 101-49 92 0 226 88z"/><path transform="translate(65.994 13.255) scale(.0068359 -.0068359)" d="m888 386q0-127-67.5-210.5t-178.5-124.5-242-41q-184 0-328 69v326h116l24-208q3-30 32-41 107-42 185-42 72 0 134 23.5t99.5 71.5 37.5 123q0 58-45 106.5t-119 91-160 83.5q-80 39-144.5 81.5t-101.5 102-37 148.5q0 116 57.5 196.5t154.5 122.5 213 42q63 0 144-15.5t180-47.5v-287h-105l-27 177q-3 24-40 40t-81 24.5-69 8.5q-108 0-172.5-59.5t-64.5-157.5q0-145 255-243 94-36 173.5-81t128-111.5 48.5-167.5z"/><path transform="translate(72.557 13.255) scale(.0068359 -.0068359)" d="m547 40h-486v79l110 7q39 3 39 41v983q0 35-39 38l-110 8v81h486v-81l-112-8q-39-3-39-38v-983q0-38 39-41l112-7z"/><path transform="translate(76.713 13.255) scale(.0068359 -.0068359)" d="m49 40v79l108 7q38 3 38 41v983q0 37-38 40l-108 7v80h471v-80l-98-7q-40-3-40-40v-1020h387q35 0 40 31l30 222h107v-343z"/></svg>