<svg width="113.55" height="16" viewBox="0 0 113.55 16" xmlns="http://www.w3.org/2000/svg"><path transform="translate(0 13.086) scale(.0078125 -.0078125)" d="M995 0H848L725 373H209L88 0H-59L375 1305H561ZM686 494 467 1167 248 494Z"/><path transform="translate(8.7344 13.086) scale(.0078125 -.0078125)" d="m883 0h-138v575q0 125-54 194t-175 69q-76 0-137.5-35t-104.5-93.5-65.5-134-22.5-157.5v-418h-137v932h137v-234q99 256 353 256 344 0 344-379z"/><path transform="translate(17.469 13.086) scale(.0078125 -.0078125)" d="m956 463q0-109-34.5-198t-99-152.5-154.5-99.5-201-36q-109 0-199 36t-154.5 99.5-99 152.5-34.5 198q0 106 34.5 197.5t99 156 154.5 101 199 36.5q111 0 201-36.5t154.5-101 99-156 34.5-197.5zm-137 0q0 80-23.5 147.5t-69.5 118.5-111.5 80-147.5 29-147.5-29-110.5-80-68.5-118.5-23.5-147.5 23.5-147.5 68.5-116.5 110.5-77 147.5-28 147.5 28 111.5 77 69.5 116.5 23.5 147.5z"/><path transform="translate(26.203 13.086) scale(.0078125 -.0078125)" d="m883 0h-138v575q0 125-54 194t-175 69q-76 0-137.5-35t-104.5-93.5-65.5-134-22.5-157.5v-418h-137v932h137v-234q99 256 353 256 344 0 344-379z"/><path transform="translate(34.938 13.086) scale(.0078125 -.0078125)" d="m961 932-504-1168q-39-98-110-128.5t-157-30.5q-96 0-192 35l27 118q47-20 92-28.5t73-8.5q68 0 93.5 33t44.5 78l57 141-416 959h162l336-815 330 815z"/><path transform="translate(43.672 13.086) scale(.0078125 -.0078125)" d="m932 0h-137v670q0 80-28 124t-81 44q-78 0-114.5-82t-36.5-230v-526h-138v670q0 80-28.5 124t-81.5 44q-49 0-78-29t-45.5-74-21.5-100-5-109v-526h-137v932h137v-135q43 157 187 157 137 0 186-137 68 137 192 137 119 0 174.5-70.5t55.5-213.5z"/><path transform="translate(52.406 13.086) scale(.0078125 -.0078125)" d="m956 463q0-109-34.5-198t-99-152.5-154.5-99.5-201-36q-109 0-199 36t-154.5 99.5-99 152.5-34.5 198q0 106 34.5 197.5t99 156 154.5 101 199 36.5q111 0 201-36.5t154.5-101 99-156 34.5-197.5zm-137 0q0 80-23.5 147.5t-69.5 118.5-111.5 80-147.5 29-147.5-29-110.5-80-68.5-118.5-23.5-147.5 23.5-147.5 68.5-116.5 110.5-77 147.5-28 147.5 28 111.5 77 69.5 116.5 23.5 147.5z"/><path transform="translate(61.141 13.086) scale(.0078125 -.0078125)" d="m49 932h137v-576q0-125 54.5-193.5t175.5-68.5q76 0 137 35t104 93.5 65.5 134 22.5 157.5v418h138v-932h-138v233q-98-256-352-256-344 0-344 379z"/><path transform="translate(69.875 13.086) scale(.0078125 -.0078125)" d="m907 258q0-82-41-136t-105.5-86-144-45.5-155.5-13.5q-127 0-253 37t-218 97l61 118q103-65 203-100t207-35q309 0 309 160 0 39-25.5 63.5t-68.5 40-98.5 24.5-116.5 17q-78 11-155 26t-140.5 45-102 80-38.5 132q0 70 35.5 121t95 85 139.5 50 166 16q123 0 220-28.5t175-81.5l-55-107q-80 56-162 78.5t-178 22.5q-43 0-95.5-7.5t-97.5-26-75.5-48-30.5-74.5q0-39 25.5-62.5t68.5-39 98.5-24.5 116.5-17q76-11 153.5-26t141-44 102.5-79 39-132z"/><path transform="translate(87.344 13.086) scale(.0078125 -.0078125)" d="m930 932q0-189-118-281t-331-92h-295v-559h-137v1305h430q215 0 333-93.5t118-279.5zm-137 0q0 135-85 195.5t-227 60.5h-295v-512h295q142 0 227 60.5t85 195.5z"/><path transform="translate(96.078 13.086) scale(.0078125 -.0078125)" d="m881 801q-74 37-176 37-84 0-150-36t-112-94.5-70.5-134-24.5-155.5v-301h211v-117h-559v117h211v698h-211v117h348v-234q94 256 357 256 71 0 123.5-9t97.5-32z"/><path transform="translate(104.81 13.086) scale(.0078125 -.0078125)" d="m956 463q0-109-34.5-198t-99-152.5-154.5-99.5-201-36q-109 0-199 36t-154.5 99.5-99 152.5-34.5 198q0 106 34.5 197.5t99 156 154.5 101 199 36.5q111 0 201-36.5t154.5-101 99-156 34.5-197.5zm-137 0q0 80-23.5 147.5t-69.5 118.5-111.5 80-147.5 29-147.5-29-110.5-80-68.5-118.5-23.5-147.5 23.5-147.5 68.5-116.5 110.5-77 147.5-28 147.5 28 111.5 77 69.5 116.5 23.5 147.5z"/></svg>