<svg width="31.035" height="17.09" viewBox="0 0 31.035 17.09" xmlns="http://www.w3.org/2000/svg"><path transform="translate(0 13.439) scale(.0068359 -.0068359)" d="M549 1422H812L1321 0H1096L941 428H544L620 638H865L681 1146L265 0H40Z"/><path transform="translate(9.3037 13.439) scale(.0068359 -.0068359)" d="m120 826q0 87 62.5 148.5t150.5 61.5h365q103 0 188-50.5t135.5-135.5 50.5-188v-662h-211v659q0 70-47.5 119t-115.5 49h-367v-827h-211z"/><path transform="translate(17.452 13.439) scale(.0068359 -.0068359)" d="m70 1036h135v386h211v-386h319v-211h-319v-531q0-34 26.5-58.5t63.5-24.5h229v-211h-232q-82 0-149.5 39.5t-108 106-40.5 147.5v532h-135z"/><path transform="translate(22.955 13.439) scale(.0068359 -.0068359)" d="m110 664q0 103 50.5 187t135.5 134.5 188 50.5h578v-1036h-211v825h-367q-67 0-115-47.5t-48-115.5v-286q0-68 48-116.5t115-48.5h247v-211h-247q-103 0-188 50.5t-135.5 135.5-50.5 188z"/></svg>