<svg width="83.552" height="16.66" viewBox="0 0 83.552 16.66" xmlns="http://www.w3.org/2000/svg"><path transform="translate(0 13.16) scale(.014 -.014)" d="m15-1 1 14 52 7q7 1 12 13l216 667h66l230-681 69-4q0-1-1-15l-200-1q0 9 1 14l52 7q8 1 8 12l-55 163h-312l-53-174 116-6q0-1-1-15zm288 682-143-466h299z"/><path transform="translate(9.38 13.16) scale(.014 -.014)" d="m55-1 1 14 52 7q9 1 9 14v433q-2 8-6 8l-61 2 1 14q63 9 85 9 40 0 45-35h1v-21q82 56 157 59 73 0 111-29 17-13 30.5-40.5t13.5-65.5v-348l75-5q0-1-1-15l-200-1q0 9 1 14l52 7q8 1 8 14v309q0 40-10.5 68t-23.5 41-32 20q-22 8-46 8-60-1-135-47v-413l75-5q0-1-1-15z"/><path transform="translate(18.2 13.16) scale(.014 -.014)" d="m268 19 39 2 3-10q-1 0-14-3-30-7-67-7-34 2-62 11.5t-52 40-24 78.5v351h-51l8 8 44 9 8 96 56 5v-100h121v-18h-121v-334q0-76 32-102.5t80-26.5z"/><path transform="translate(23.1 13.16) scale(.014 -.014)" d="m191 459v-439l75-5q0-1-1-15l-200-1q0 9 1 14l52 7q6 0 8 9v439q-2 7-6 7l-60 2 1 14q54 9 82 9t38-13 10-28zm-34 175q-20 0-31 12.5t-11 33 11.5 33 31.5 12.5 32.5-12.5 12.5-34-13-33-33-11.5z"/><path transform="translate(27.524 13.16) scale(.014 -.014)" d="m300 486q-85 0-137.5-66.5t-52.5-188.5q0-217 165-217 65 0 111 12.5t50 15.5l7-11q-23-15-76-25t-96-10-78 9-70.5 32-56.5 72.5-21 120.5q0 131 67 198 75 77 189 77 36 0 76.5-9.5t62.5-29.5v-131l-19-7-5 105q-22 23-53.5 38t-62.5 15z"/><path transform="translate(38.402 13.16) scale(.014 -.014)" d="m46 685 1 15h244q135 0 216.5-78.5t81.5-255.5q0-175-57-262-50-76-156-96-47-8-110-8h-19l-201-1 1 14 52 7q10 1 12 13v632q-2 13-12 14zm240 0h-107v-670h82q48 0 81.5 5.5t70 26 57.5 56.5q51 85 51 258 0 180-71 255-65 69-164 69z"/><path transform="translate(47.208 13.16) scale(.014 -.014)" d="m191 459v-439l75-5q0-1-1-15l-200-1q0 9 1 14l52 7q6 0 8 9v439q-2 7-6 7l-60 2 1 14q54 9 82 9t38-13 10-28zm-34 175q-20 0-31 12.5t-11 33 11.5 33 31.5 12.5 32.5-12.5 12.5-34-13-33-33-11.5z"/><path transform="translate(51.632 13.16) scale(.014 -.014)" d="m453 709v-657q0-31 16-31l60-3-1-15q-48-8-100-8-11 1-23.5 11t-14.5 26q-57-36-132-36-73 0-135 41-35 23-56.5 72.5t-21.5 120.5q0 131 67 200 71 74 162 74 56 0 114-29v239q0 11-6 11l-61 2 1 14q63 9 86.5 9t34-13 10.5-28zm-182-695q61 0 117 27v418q-44 27-87 27-86 0-138.5-66t-52.5-189q0-217 161-217z"/><path transform="translate(59.738 13.16) scale(.014 -.014)" d="m278.5-4q-104.5 0-169 60t-64.5 183.5 68.5 194 172.5 70.5 169-60 65-183.5-68.5-194-173-70.5zm6.5 490q-75 0-125-65t-50-176.5 47.5-171 122.5-59.5 125 65 50 176-47.5 171-122.5 60z"/><path transform="translate(67.648 13.16) scale(.014 -.014)" d="m55-1 1 14 52 7q9 1 9 14v433q-2 8-6 8l-61 2 1 14q63 9 85 9 40 0 45-35h1v-21q82 56 157 59 73 0 111-29 17-13 30.5-40.5t13.5-65.5v-348l75-5q0-1-1-15l-200-1q0 9 1 14l52 7q8 1 8 14v309q0 40-10.5 68t-23.5 41-32 20q-22 8-46 8-60-1-135-47v-413l75-5q0-1-1-15z"/><path transform="translate(76.468 13.16) scale(.014 -.014)" d="m110 230q0-216 168-216 44 0 94 9.5t64 17.5l7-10q-23-15-75.5-25t-96-10-78 9-70.5 32-57 72-21 120q0 132 68 202 71 73 165 73t143.5-52 49.5-146q0-20-3-43h-357q-1-11-1-33zm302 83q0 75-33 122.5t-90 47.5q-74 0-125-65-41-51-51-136h298q1 11 1 31z"/></svg>