<svg width="31.052" height="16.674" viewBox="0 0 31.052 16.674" xmlns="http://www.w3.org/2000/svg"><path transform="translate(0 13.16) scale(.014 -.014)" d="M482 185H174L110 0H45L298 700H359L621 0H548ZM191 235H464L325 624Z"/><path transform="translate(9.408 13.16) scale(.014 -.014)" d="m125 445q75 55 142 58 61 0 94-15t54.5-42.5 21.5-77.5v-368h-65v351q0 37-16 57-32 37-98 37-63-3-133-41v-404h-65v500l65 5z"/><path transform="translate(16.506 13.16) scale(.014 -.014)" d="m289 18q-18-18-65-18-66 0-89 34-39 37-39 100v308h-56l9 58h47v99l65 6v-105h116v-58h-116v-324q0-58 60-58 26 0 56 12z"/><path transform="translate(21.154 13.16) scale(.014 -.014)" d="m146 505v-505h-65v500zm-35 129q-20 0-30.5 13t-10.5 33 11.5 32.5 31.5 12.5 32.5-12.5 12.5-34.5-13.5-33-33.5-11z"/><path transform="translate(24.206 13.16) scale(.014 -.014)" d="m391 433q-41 13-84 13-87 0-139.5-56t-52.5-158q0-178 165-178 66 0 136 22 14 4 17 6l16-54q-35-21-127-30-26-2-55-2-85 0-140 42-77 58-77 191t71.5 204.5 184.5 71.5q36 0 76.5-9.5t62.5-29.5v-131l-49-7z"/></svg>