<svg width="31.979" height="21.075" viewBox="0 0 31.979 21.075" xmlns="http://www.w3.org/2000/svg"><path transform="translate(0 16.468) scale(.0068359 -.0068359)" d="M30 0 200 1760H797L964 0H631L606 284H394L372 0ZM419 565H579L502 1460H486Z"/><path transform="translate(6.7949 16.468) scale(.0068359 -.0068359)" d="m72 0v1500h358v-191q20 86 74.5 146.5t151.5 60.5q156 0 226.5-96t70.5-263v-1157h-353v1120q0 44-18 81.5t-62 37.5q-41 0-60.5-28.5t-24.5-71-5-84.5v-1055z"/><path transform="translate(13.774 16.468) scale(.0068359 -.0068359)" d="m380-16q-145 0-195.5 61.5t-50.5 188.5v935h-101v273h101v318h348v-318h101v-273h-101v-851q0-37 12-52t46-15q24 0 43 4v-244q-12-4-75-15.5t-128-11.5z"/><path transform="translate(18.047 16.468) scale(.0068359 -.0068359)" d="m508-16q-448 0-448 465v602q0 212 119 338.5t329 126.5q211 0 330-126.5t119-338.5v-602q0-465-449-465zm0 276q45 0 64.5 32.5t19.5 82.5v733q0 131-84 131t-84-131v-733q0-50 19.5-82.5t64.5-32.5z"/><path transform="translate(24.999 16.468) scale(.0068359 -.0068359)" d="m72 0v1500h358v-191q20 86 74.5 146.5t151.5 60.5q156 0 226.5-96t70.5-263v-1157h-353v1120q0 44-18 81.5t-62 37.5q-41 0-60.5-28.5t-24.5-71-5-84.5v-1055z"/></svg>