<svg width="64.4" height="20.8" viewBox="0 0 64.4 20.8" xmlns="http://www.w3.org/2000/svg"><path transform="translate(0 16.4) scale(.016 -.016)" d="M23 0 267 698H374L618 0H530L460 206H178L108 0ZM198 280H439L321 620H316Z"/><path transform="translate(10.256 16.4) scale(.016 -.016)" d="m85 0v516h80v-84h4q19 44 53.5 70t92.5 26q80 0 126.5-51.5t46.5-145.5v-331h-80v317q0 69-29.5 104t-87.5 35q-32 0-61-10.5t-47-32.5-18-55v-358z"/><path transform="translate(19.344 16.4) scale(.016 -.016)" d="m252-12q-79 0-126.5 51.5t-47.5 145.5v331h80v-317q0-69 30-104t88-35q32 0 60.5 10.5t46.5 32.5 18 56v357h80v-516h-80v84h-4q-15-37-47.5-66.5t-97.5-29.5z"/><path transform="translate(28.4 16.4) scale(.016 -.016)" d="m85-200v716h80v-84h4q20 49 59 72.5t92 23.5q65 0 112-33t72.5-93.5 25.5-143.5q0-82-25.5-143t-72.5-94-112-33q-53 0-90.5 24t-60.5 72h-4v-284zm213 260q68 0 107 42.5t39 111.5v88q0 69-39 111.5t-107 42.5q-36 0-66.5-13t-48.5-35-18-51v-192q0-33 18-56.5t48.5-36 66.5-12.5z"/><path transform="translate(37.68 16.4) scale(.016 -.016)" d="m85 0v740h80v-308h4q19 44 53.5 70t92.5 26q80 0 126.5-51.5t46.5-145.5v-331h-80v317q0 69-29.5 104t-87.5 35q-32 0-61-10.5t-47-32.5-18-55v-358z"/><path transform="translate(46.768 16.4) scale(.016 -.016)" d="m217-12q-82 0-127.5 42t-45.5 114q0 49 24 82.5t72.5 51 123.5 17.5h102v51q0 55-30 84t-92 29q-46 0-78-21t-53-56l-48 45q21 41 67 71t116 30q93 0 145.5-46t52.5-128v-284h59v-70h-45q-43 0-63 22t-25 56l-1 6h-5q-16-47-55.5-71.5t-93.5-24.5zm13 68q40 0 70.5 12.5t48 34 17.5 47.5v85h-106q-68 0-100-20t-32-58v-21q0-38 28-59t74-21z"/><path transform="translate(55.312 16.4) scale(.016 -.016)" d="m85 0v516h80v-84h4q19 44 53.5 70t92.5 26q80 0 126.5-51.5t46.5-145.5v-331h-80v317q0 69-29.5 104t-87.5 35q-32 0-61-10.5t-47-32.5-18-55v-358z"/></svg>