<svg width="65.952" height="16.56" viewBox="0 0 65.952 16.56" xmlns="http://www.w3.org/2000/svg"><path transform="translate(0 12.72) scale(.008 -.008)" d="m64 0h211l119 375h537l118-375h212l-452 1353h-293zm366 513 232 718h2l232-718z"/><path transform="translate(10.6 12.72) scale(.008 -.008)" d="m101 0h202v956l-43 229h-159zm743 0h202v678q0 242-85.5 380.5t-291.5 138.5q-207 0-338.5-129t-131.5-275l98-62q0 140 87 232t212 92 186.5-86 61.5-292z"/><path transform="translate(19.912 12.72) scale(.008 -.008)" d="m381 0h309l343 1185h-212l-285-1046h-2l-288 1046h-211zm-298-461q230 0 378 91.5t229 369.5h-188q-57-195-153-258.5t-266-63.5z"/><path transform="translate(28.6 12.72) scale(.008 -.008)" d="m101 0h185l18 190v1380h-203zm580-8q213 0 318 151.5t105 451.5q0 301-105 451t-318 150q-194 0-330-97.5t-136-203.5l88-106q0 103 92 184.5t218 81.5q134 0 210.5-99t76.5-362q0-264-76.5-362.5t-210.5-98.5q-126 0-218 81.5t-92 186.5l-88-109q0-105 136-202.5t330-97.5z"/><path transform="translate(38.192 12.72) scale(.008 -.008)" d="m586-8q266 0 393.5 147.5t127.5 456.5-127.5 455.5-393.5 146.5q-265 0-393-146.5t-128-455.5 128-456.5 393-147.5zm0 139q-139 0-229 97.5t-90 366.5 90 366 229 97 229-97 90-366-90-366.5-229-97.5z"/><path transform="translate(47.808 12.72) scale(.008 -.008)" d="m879 0h188v1570h-201v-1375zm-388-8q194 0 328 97.5t134 202.5l-87 109q0-104-90.5-186t-216.5-82q-134 0-212 97.5t-78 363.5 78 363.5 212 97.5q126 0 216.5-81.5t90.5-184.5l87 106q0 106-134 203.5t-328 97.5q-213 0-319.5-149t-106.5-452 106.5-453 319.5-150z"/><path transform="translate(57.264 12.72) scale(.008 -.008)" d="m381 0h309l343 1185h-212l-285-1046h-2l-288 1046h-211zm-298-461q230 0 378 91.5t229 369.5h-188q-57-195-153-258.5t-266-63.5z"/></svg>