<svg width="99.84" height="23.168" viewBox="0 0 99.84 23.168" xmlns="http://www.w3.org/2000/svg"><path transform="translate(0 18.56) scale(.016 -.016)" d="m783 28q3-9 24-9v-19h-203v19q13 0 18 6t2 12l-55 141h-326l-55-141-1-3q0-6 5.5-10.5t14.5-4.5v-19h-197v19q20 0 24 9l278 676q3 6 3 11 0 9-8 12.5t-17 3.5v19h233v-19q-9 0-17-3.5t-8-12.5q0-5 3-11zm-377 566-118-301h236z"/><path transform="translate(13.072 18.56) scale(.016 -.016)" d="m35 230q0 68 31.5 124t88.5 88.5 130 32.5q70 0 127-31.5t90-87 33-126.5q0-62-29.5-117.5t-86.5-90-134-34.5q-74 0-130.5 31.5t-88 86.5-31.5 124zm382-3q0 57-36.5 94t-95.5 37q-55 0-92-36.5t-37-91.5q0-58 37-92.5t92-34.5q59 0 95.5 34.5t36.5 89.5z"/><path transform="translate(22.192 18.56) scale(.016 -.016)" d="m592 229q0-73-33-127.5t-90.5-84.5-130.5-30q-84 0-146 50v-37h-146v19q7 0 14.5 3t7.5 8v690q0 5-7.5 8t-14.5 3v19h168v-19q-7 0-14.5-3t-7.5-8v-295q60 47 146 47 71 0 129-30.5t91.5-85.5 33.5-127zm-121 0q0 58-40 96.5t-101 38.5q-62 0-102-39t-40-99q0-35 18.5-65.5t51.5-49 72-18.5q60 0 100.5 37t40.5 99z"/><path transform="translate(32.224 18.56) scale(.016 -.016)" d="m35 230q0 68 31.5 124t88.5 88.5 130 32.5q70 0 127-31.5t90-87 33-126.5q0-62-29.5-117.5t-86.5-90-134-34.5q-74 0-130.5 31.5t-88 86.5-31.5 124zm382-3q0 57-36.5 94t-95.5 37q-55 0-92-36.5t-37-91.5q0-58 37-92.5t92-34.5q59 0 95.5 34.5t36.5 89.5z"/><path transform="translate(41.344 18.56) scale(.016 -.016)" d="m46 66q-2 2-5 2-8 0-17-9l-14 12 100 114 14-13q-4-5-6.5-12t1.5-11q33-30 61.5-44.5t59.5-14.5q77 0 77 51 0 23-23.5 35.5t-78.5 27.5q-71 19-103 49.5t-32 83.5q0 63 41 102.5t112 39.5q36 0 65-11t70-39q1-1 4-1 5 0 10 3t7 6l15-13-90-102-14 12q4 4 5.5 10.5t-2.5 10.5q-18 14-34.5 21t-36.5 7q-21 0-33-8t-12-24q0-13 7-21t25.5-16 56.5-20q70-21 110-58.5t40-92.5q0-81-51-119.5t-135-38.5q-51 0-98.5 21t-95.5 60z"/><path transform="translate(48.56 18.56) scale(.016 -.016)" d="m542 30q0-5 7.5-8t15.5-3v-19h-176v19q8 0 15.5 3t7.5 8v208q0 51-25 87.5t-75 36.5q-51 0-85-34t-34-98v-200q0-5 7.5-8t14.5-3v-19h-169v19q7 0 14.5 3t7.5 8v690q0 5-7.5 8t-14.5 3v19h169v-19q-7 0-14.5-3t-7.5-8v-305q26 25 63.5 40t75.5 15q65 0 112.5-27t72.5-72.5 25-101.5z"/><path transform="translate(58.336 18.56) scale(.016 -.016)" d="m70 621q0 31 22.5 53.5t54.5 22.5 54-22.5 22-53.5q0-33-22-55t-54-22-54.5 22-22.5 55zm-10-180v19h172v-19q-7 0-14.5-3t-7.5-8v-400q0-5 7.5-8t14.5-3v-19h-172v19q7 0 14.5 3t7.5 8v400q0 5-7.5 8t-14.5 3z"/><path transform="translate(67.488 18.56) scale(.016 -.016)" d="m30 367q0 100 48 192.5t139 150.5 213 58q119 0 209-55t138-146.5 48-199.5q0-96-47.5-184.5t-137.5-143.5-210-55q-116 0-207.5 53.5t-142 142-50.5 187.5zm662 0q0 77-32 138t-92 96.5-142 35.5q-75 0-133.5-35.5t-91.5-97.5-33-137q0-78 38.5-135t99-86.5 125.5-29.5q75 0 134.5 31.5t93 89 33.5 130.5z"/><path transform="translate(81.168 18.56) scale(.016 -.016)" d="m542 30q0-5 7.5-8t15.5-3v-19h-176v19q8 0 15.5 3t7.5 8v208q0 51-25 87.5t-75 36.5q-51 0-82.5-34t-31.5-98v-200q0-5 7.5-8t15.5-3v-19h-175v19q8 0 15.5 3t7.5 8v400q0 5-7.5 8t-14.5 3v19h151v-41q26 24 61.5 37.5t72.5 13.5q64 0 111.5-27t73-72.5 25.5-101.5z"/><path transform="translate(90.944 18.56) scale(.016 -.016)" d="m526 231q0-21-3-42h-366q4-48 42-75t91-27q36 0 60.5 10t43.5 30q2 4 2 5 0 4-3 8.5t-6 6.5l12 15 111-87-11-15q-15 9-21 2-70-84-188-84-76 0-134 33.5t-89.5 90-31.5 125.5q0 73 31 131t86.5 90.5 126.5 32.5q77 0 133-33.5t85-90.5 29-126zm-120 51q-4 41-41.5 69.5t-84.5 28.5-81-28.5-41-69.5z"/></svg>