<svg width="79.992" height="20" viewBox="0 0 79.992 20" xmlns="http://www.w3.org/2000/svg"><path transform="translate(0 15.703) scale(.0078125 -.0078125)" d="m8 0q6 25 9 61.5t3 75.5q0 36-2.5 67.5t-7.5 55.5q51 2 87 18.5t59 36.5q24 37 49 83t45.5 94.5 33.5 97 13 90.5q0 17-5 34t-17 21q30 8 60 44t58 89 52 118 42 131.5 28 129.5 10 112q0 17-2 33t-2 27q0 5 0.5 9t0.5 12q23-9 57.5-15.5t77.5-11 92-6.5 102-2q46 0 94 2t93 6.5 84 11 65 15.5v-13q0-11-2.5-27.5t-2.5-36.5q0-46 8.5-108t23.5-128.5 36.5-132 47.5-120 56-92 63-47.5q-14-5-19.5-19.5t-5.5-35.5q0-42 12.5-90.5t33-97 45-93.5 48.5-81q15-9 36-19t44-19 46-14.5 43-5.5q-5-24-7.5-55.5t-2.5-67.5q0-39 3-75.5t9-61.5q-36 4-83 8.5t-101 8-112 6-116 2.5q-106 0-201.5-6.5t-161.5-18.5q3 17 5.5 53.5t2.5 81.5q0 19-1 38.5t-2 36.5-2.5 30.5-2.5 19.5q18 0 38 1.5t39.5 5.5 37.5 11 32 19q-2 40-13 68.5t-41.5 47.5-85 28-142.5 9q-79 0-131.5-6t-85-22.5-48-46-19.5-77.5q15-12 36-19t43.5-11.5 45-6 40.5-1.5q-2-6-3.5-19t-2.5-30.5-1.5-37.5-0.5-38q0-45 2.5-81.5t5.5-53.5q-76 14-154 19.5t-159 5.5q-94 0-182.5-5.5t-169.5-19.5zm640 743q0-29 6.5-48t23-30 45-15.5 72.5-4.5 72.5 4.5 45 15.5 23 30 6.5 48q0 35-18 86t-42 107-49 112-38 101q-15-45-40-101t-48.5-112-41-107-17.5-86z"/><path transform="translate(13.336 15.703) scale(.0078125 -.0078125)" d="m110 0q8 26 11 62t3 71q0 32-4 64t-10 63q56 0 92.5 5t58.5 17.5 30.5 35.5 8.5 59v278q-1 43-11 68.5t-27.5 39-43 18-57.5 4.5h-31q8 20 14 55.5t6 74.5q0 38-5.5 72.5t-14.5 55.5q29-4 69.5-6t87.5-2q48 0 99.5 2.5t100.5 7.5 92.5 14 75.5 21q-7-20-9.5-40.5t-2.5-42.5q0-31 4.5-62t9.5-60q43 12 90.5 34.5t89 50.5 70.5 59 36 61q29-17 75.5-26t106.5-9q24 0 50 1.5t50.5 5 45 10.5 33.5 18q-8-20-12.5-50t-7-64.5-3.5-70-1-66.5 2-70.5 5-76 7.5-63.5 9.5-34q-33 8-82.5 13.5t-103.5 5.5-102-5.5-78-13.5q0 107-24.5 150t-72.5 43q-24 0-52.5-13.5t-53-39.5-42.5-63.5-21-85.5l1-199q0-36 20.5-59t56.5-35.5 86-17.5 109-5q-6-21-9.5-52t-3.5-66q0-38 3-76.5t10-65.5q-32 5-79 9.5t-103 8-119 5.5-126 2q-48 0-107.5-1.5t-117.5-5-107.5-8-75.5-10.5z"/><path transform="translate(23.977 15.703) scale(.0078125 -.0078125)" d="m177 0q7 10 11 26.5t6 35.5 2.5 37.5 0.5 33.5-1 32.5-3 35-6 33-10 26.5q50 0 80.5 8.5t47 27 21.5 47.5 5 70v122q0 34-4.5 67.5t-13.5 60.5-23 46-32 24q41 14 56.5 68t15.5 157q1 11 0.5 22t-0.5 23l-3 207q-1 43-10.5 68.5t-27.5 39-43.5 18-57.5 4.5h-31q8 20 14 55.5t6 74.5q0 38-5.5 73.5t-14.5 56.5q19-3 46-5t59-3.5 68-2.5 74-1q51 0 103 2t99.5 6 88 11 67.5 18q-20-39-32.5-87t-19.5-102-9-113-2-120v-251q48 17 82.5 50t57.5 78q11-8 33-14.5t50-11 60.5-7 65.5-2.5q28 0 55 2t50.5 6 42 10.5 29.5 16.5q17-36 52-71.5t81-65 100-49.5 110-24q-12-26-28.5-106.5t-16.5-220.5q0-71 5-126t11.5-95.5 14.5-67 14-39.5q-56-4-110-26.5t-100-55-81-70.5-52-73q-35 14-90.5 24.5t-128.5 10.5q-75 0-132-10.5t-95-24.5q-5 21-15.5 45.5t-26.5 48.5-37 45.5-47 35.5q-34-35-55.5-80t-24.5-85q-16 4-35 8.5t-43.5 8-55.5 6-70 2.5q-77 0-120.5-7.5t-71.5-17.5zm537 542q0-63 8-118t29-96 58-64.5 95-23.5q110 0 155 74.5t45 227.5q0 77-10.5 131.5t-34.5 89.5-62 51-93 16q-58 0-95-21.5t-58-60-29-91-8-115.5z"/><path transform="translate(37.289 15.703) scale(.0078125 -.0078125)" d="m161 206q32 40 44 102t11 149l-2 198q-1 43-10 68.5t-26 39-42 18-57 4.5h-31q8 20 14 55.5t6 74.5q0 38-5.5 73.5t-14.5 56.5q31-5 80-7t108-2q56 0 116.5 2.5t116.5 7.5 104 13.5 80 20.5q-20-39-32.5-88.5t-19.5-105.5-9-116.5-2-121.5v-174q0-39 5-75t20-64.5 42-45.5 71-17q45 0 91.5 9t85 31.5 62.5 60.5 24 95v187q-1 38-6.5 63t-21.5 40-44.5 21-76.5 6h-21q8 20 14 55.5t6 74.5q0 38-5.5 73.5t-14.5 56.5q31-5 80-7t108-2q56 0 116.5 2.5t116.5 7.5 104 13.5 80 20.5q-21-24-34-57.5t-19.5-74-8.5-86.5-2-93q0-31 0.5-61.5t0.5-59.5l-1-258q0-41 2.5-66.5t17.5-39.5 47.5-19 92.5-5q-8-23-12.5-56.5t-4.5-67.5q0-38 3.5-75.5t13.5-60.5q-24 11-78 18t-118 7q-72 0-131-7t-91-18q0 35-6.5 62t-16.5 48-23 36-26 26q-42-8-81-27t-71.5-43.5-55.5-51.5-32-50q-8 6-30.5 10.5t-52 8-62.5 5-63 1.5-62.5-1.5-63.5-5-56.5-8-40.5-10.5q-9 35-27.5 68.5t-44.5 61.5-58.5 48-69.5 28z"/><path transform="translate(49.305 15.703) scale(.0078125 -.0078125)" d="m197 206q33 40 44 102t11 149v289q-1 18-5.5 32.5t-15 25-28.5 16.5-45 6q-15 0-32.5-2t-39.5-6q5 29 7 63t2 69q0 32-2 63t-7 57q10-7 25-11.5t30-7.5 28-4.5 20-1.5q29 0 43.5 22.5t14.5 78.5q0 9-0.5 25t-1.5 33-3.5 32-6.5 23q8-2 16-2t17 0q51 0 107.5 17t110 37 99.5 37 76 17q-8-24-13-53t-8-58-4.5-56.5-1.5-46.5q0-33 8-53.5t28.5-32 57-16 93.5-4.5q24 0 56.5 0.5t67.5 3 69.5 7.5 63.5 14q-10-26-14-61t-4-72q0-42 4-78t14-64q-34 3-74.5 7t-80.5 7.5-74 6-55 2.5q-50 0-82.5-4.5t-51.5-14-26.5-24-7.5-33.5v-268q0-39 4.5-82.5t16.5-80.5 33-61.5 54-24.5q36 0 60.5 14.5t39.5 40.5 21.5 61.5 6.5 78.5q22-5 59-10t76-5q38 0 71.5 5t51.5 10q-8-22-11.5-61.5t-3.5-84.5 3-84 12-58h-10q-37 0-79.5-11.5t-81.5-30.5-71.5-42.5-49.5-47.5q-8 6-30.5 10.5t-52 8-62.5 5-63 1.5-62.5-1.5-63.5-5-56.5-8-40.5-10.5q-9 35-27.5 68.5t-44.5 61.5-58.5 48-69.5 28z"/><path transform="translate(58.641 15.703) scale(.0078125 -.0078125)" d="m161 206q32 40 44 102t11 149l-2 198q-1 43-10 68.5t-26 39-42 18-57 4.5h-31q8 20 14 55.5t6 74.5q0 38-5.5 73.5t-14.5 56.5q31-5 80-7t108-2q56 0 116.5 2.5t116.5 7.5 104 13.5 80 20.5q-20-39-32.5-88.5t-19.5-105.5-9-116.5-2-121.5v-174q0-39 5-75t20-64.5 42-45.5 71-17q45 0 91.5 9t85 31.5 62.5 60.5 24 95v187q-1 38-6.5 63t-21.5 40-44.5 21-76.5 6h-21q8 20 14 55.5t6 74.5q0 38-5.5 73.5t-14.5 56.5q31-5 80-7t108-2q56 0 116.5 2.5t116.5 7.5 104 13.5 80 20.5q-21-24-34-57.5t-19.5-74-8.5-86.5-2-93q0-31 0.5-61.5t0.5-59.5l-1-258q0-41 2.5-66.5t17.5-39.5 47.5-19 92.5-5q-8-23-12.5-56.5t-4.5-67.5q0-38 3.5-75.5t13.5-60.5q-24 11-78 18t-118 7q-72 0-131-7t-91-18q0 35-6.5 62t-16.5 48-23 36-26 26q-42-8-81-27t-71.5-43.5-55.5-51.5-32-50q-8 6-30.5 10.5t-52 8-62.5 5-63 1.5-62.5-1.5-63.5-5-56.5-8-40.5-10.5q-9 35-27.5 68.5t-44.5 61.5-58.5 48-69.5 28z"/><path transform="translate(70.656 15.703) scale(.0078125 -.0078125)" d="m115 22q8 21 12.5 63.5t4.5 94.5q0 42-5 85t-12 70q12-6 34.5-10.5t50-8 58-5 58.5-1.5q54 0 100.5 6.5t74.5 18.5q0-29 8.5-54.5t27-45 48-31 70.5-11.5q54 0 86.5 21t32.5 69q0 38-25.5 66t-71 46.5-108.5 27.5-137 9q-23 0-50.5-0.5t-53.5-2.5-47.5-5.5-31.5-8.5q0 26-18.5 55t-44.5 54-54.5 43-48.5 22q8 9 14 25t10 36.5 6 43 2 43.5q0 45-7.5 88.5t-24.5 69.5q36 7 72 24.5t67.5 42 56 55 36.5 63.5q10-6 40-12t71-11 88-8 91-3q81 0 129 14t61 40q14-19 42.5-33.5t63-24 71.5-14 70-4.5q20 0 36.5 2t29.5 5q-3-21-5.5-38.5t-4-34-2.5-33.5-1-37q0-38 2.5-75t10.5-66q-17 11-57.5 15.5t-91.5 4.5q-28 0-57.5-1.5t-55-4-45-6-27.5-8.5q0 66-46 103.5t-122 37.5q-63 0-88.5-22.5t-25.5-56.5q0-33 33.5-63t88.5-52.5 124-35.5 141-13q18 0 36.5 1t35.5 3 31.5 5.5 23.5 8.5q3-30 22.5-59t46-54 54-43.5 47.5-26.5q-13-20-20.5-60.5t-7.5-86.5q0-42 6-80.5t22-60.5q-36-10-70.5-27t-64.5-40-54.5-51.5-39.5-61.5q-40 14-112 24t-166 10q-42 0-72-3t-51-8.5-35-13.5-23-19q-15 9-37.5 15.5t-50 10.5-57 6-57.5 2q-51 0-93-2t-68-12z"/></svg>