<svg width="133.41" height="19.455" viewBox="0 0 133.41 19.455" xmlns="http://www.w3.org/2000/svg"><path transform="translate(0 13.809) scale(.013672 -.013672)" d="m549 366h28q17 0 32.5-3t15.5-22q7-40-47-39-15 1-27.5 2t-20.5 0.5-7-5.5q10-29 21.5-65t25.5-72q36-89 68-128-17-21-39.5-35t-24-14-2.5 1l-141 297-273-67-10-42q-29-115-65-160-6-10-25-2-32 12-32 20 0 2 21 58t42.5 113.5 45 120.5 44.5 120 38 102.5 24 66 9.5 36 7.5 26.5q10 23 50 23 43-24 66.5-62.5t40-82.5 32.5-89 43-82q9-14 27-15t32-1zm-250 216q-8-61-36-125t-45-99.5-29-65.5q68 0 167 40 25 11 48 20-47 201-105 230z"/><path transform="translate(8.9688 13.809) scale(.013672 -.013672)" d="m518 365q-42 30-108 30-62 0-115-23-100-42-137-108-16-30-16-64 0-6 0-33.5t10-74 10-94.5q-21-1-34-5t-22-4-15.5 8-14.5 31q-1 6-4 34t-7.5 68-10 87.5-10.5 93.5q-11 100-17 147 0 24 35 24 21 0 33-17.5t19-40 9.5-44.5 4.5-31q132 118 328 118 22 0 46-1 6 1 15 1t18-12q11-14 11-34 0-50-28-56z"/><path transform="translate(16.693 13.809) scale(.013672 -.013672)" d="m621 128q0-5-2.5-15.5t-27-25-60-27.5-77.5-24-82-19q-83-17-118-17t-75.5 8-75.5 26q-81 42-81 124 0 6 0 24t15 51.5 45 67 70 61.5q84 60 176 78 32 7 53.5 7t35.5-0.5 29-2 26-7.5q26-13 26-51 0-24-34-47-9-6-16-11-5 23-13 39t-35 16q-118-25-203-75-96-57-96-120 0-7 1-15 0-64 49-91 37-20 95.5-20t101.5 13.5 83.5 30 79.5 30.5 74.5 14 35.5-22z"/><path transform="translate(25.553 13.809) scale(.013672 -.013672)" d="m497 14q-9-17-46.5-17t-37.5 27q0 118-5 162-9 97-38 104-72 14-117.5 14t-75-27.5-45-91-22.5-178.5h-77q2 57 2 106t-2 116.5-5 147.5q-5 92-5 155.5t8 116.5q10 19 29 19 23 0 36-16.5t14-29.5l-5-165q0-93 9-139 90 60 186 60 31 0 66-5 75-39 98-83 11-23 14-49t4-59q6-114 15-168z"/><path transform="translate(32.484 13.809) scale(.013672 -.013672)" d="m117 470q13-187 22-433-6-31-48-31-11 0-22.5 4.5t-14.5 12.5v447zm-93 136q0 35 41 35 27 0 44-12 3-11 3-21.5t-8-20.5-24-10-32 7.5-24 21.5z"/><path transform="translate(34.604 13.809) scale(.013672 -.013672)" d="m178 96 2 160q0 38-7 65h-155l-2 69h150v258q3 9 12 18 14 14 23.5 14t16.5-2 15-14q16-66 16-199 0-33 3-65 32 4 64 4 0 0 52 0 19 0 35 2l-3-72-146 4 5-345q-18-8-31-8-50 0-50 111z"/><path transform="translate(40.264 13.809) scale(.013672 -.013672)" d="m231 70q88 0 265 80 11 0 18-7.5t7-17.5q-40-68-153-106t-211-13q-111 29-135 125-2 19-2 51t16.5 84.5 56.5 99.5 94 74 115 27q58 0 130-40 34-19 54-43t20-49q0-7-1-14-2-61-59-77-25-7-58-7l-144 6q-72 0-110-31-22-17-31-51 25-91 128-91zm-24 305q-69-32-69-67 80-7 120-7 111 0 150 19 24 10 24 25 0 18-22.5 34t-46.5 23-40 7-52-10.5-64-23.5z"/><path transform="translate(47.838 13.809) scale(.013672 -.013672)" d="m621 128q0-5-2.5-15.5t-27-25-60-27.5-77.5-24-82-19q-83-17-118-17t-75.5 8-75.5 26q-81 42-81 124 0 6 0 24t15 51.5 45 67 70 61.5q84 60 176 78 32 7 53.5 7t35.5-0.5 29-2 26-7.5q26-13 26-51 0-24-34-47-9-6-16-11-5 23-13 39t-35 16q-118-25-203-75-96-57-96-120 0-7 1-15 0-64 49-91 37-20 95.5-20t101.5 13.5 83.5 30 79.5 30.5 74.5 14 35.5-22z"/><path transform="translate(56.697 13.809) scale(.013672 -.013672)" d="m178 96 2 160q0 38-7 65h-155l-2 69h150v258q3 9 12 18 14 14 23.5 14t16.5-2 15-14q16-66 16-199 0-33 3-65 32 4 64 4 0 0 52 0 19 0 35 2l-3-72-146 4 5-345q-18-8-31-8-50 0-50 111z"/><path transform="translate(62.357 13.809) scale(.013672 -.013672)" d="m369 258q110 0 110-56 0-42-61-98-91-83-245-133-7 0-15.5 14t-13 21.5-6.5 9.5q115 38 189 92 50 36 50 59t-59 23-173-28q-52 2-90 37-33 31-33 62.5t18 58 48 49.5 70 42q98 47 203 47 31 0 60-6 24 0 28-21t4-69q-59 27-133 27-92 0-152-37-62-36-64-94 0-28 41-28l73 8q94 20 151 20z"/><path transform="translate(74.99 13.809) scale(.013672 -.013672)" d="m105 614q74 26 196 26 223 0 305-110 32-42 32-107 1-9 1-18 0-100-117-203-107-97-264-156-104-40-172-40-28 0-48 8v624h14q23 0 37-7.5t16-16.5zm466-199q-9 89-99 132-67 32-168 32l-18-1q-95-2-164-30v-477q70 0 175 51 182 90 250 209 24 42 24 84z"/><path transform="translate(84.068 13.809) scale(.013672 -.013672)" d="m420 166q-75-118-200-146-29-6-52.5-6t-39 0.5-34.5 4.5-35 13q-37 21-37 59-4 18-4 40.5t10 59.5 36.5 80 64.5 79q79 76 171 98 27 6 49.5 6t40.5-3q58 0 78-79 13-50 15.5-139.5t5-138 12.5-88.5h-59q-4 27-6 48t-4 39q-5 42-12 73zm-4 155q0 58-57 58-7 1-14 1-73 0-154-70-38-32-65-72-40-57-40-102 0-59 68-70 90 2 172 82 35 35 58 76 32 55 32 97z"/><path transform="translate(91.191 13.809) scale(.013672 -.013672)" d="m22 133q0 16-2.5 44.5t-4.5 62.5-2 69 6 64q13 65 54 65 28-8 37.5-20t9.5-29.5-9-43.5q-33-87-33-157 0-23 3-49 16-67 110-67 49 0 93 17 84 31 114 73 9 46 9 80.5t-2.5 61.5-6 59.5-4.5 71.5q13 6 25.5 6t26-13 23-49 12.5-84.5 3.5-100.5 0.5-100.5 4-83.5q-12-11-23-11-40 0-59 80-13-11-44-27-66-36-156-48-17-2-38-2t-52.5 8-59.5 37-35 86z"/><path transform="translate(98.301 13.809) scale(.013672 -.013672)" d="m316-428-14 1q-30 0-64-4h-38q-60 0-94 23-18 12-18 36l230 11q106 3 106 114 0 4 0 13.5t0 41.5l5 322q0 17-1 28-162-151-312-151-13 0-26 1-67 0-67 59 2 46 27 101.5t64.5 107 89.5 92.5q77 63 149 63 84 0 138-89 16-238 16-338t-3-164-13.5-117-27.5-84-40-45q-38-22-107-22zm60 786q-12 4-33.5 4t-55.5-18-65-46.5-58-63.5q-66-86-66-137 0-16 9-24 7-4 17.5-4t30.5 3.5 54.5 18 71.5 37.5 67 51q70 64 70 125 0 37-42 54z"/><path transform="translate(105.52 13.809) scale(.013672 -.013672)" d="m497 14q-9-17-46.5-17t-37.5 27q0 118-5 162-9 97-38 104-72 14-117.5 14t-75-27.5-45-91-22.5-178.5h-77q2 57 2 106t-2 116.5-5 147.5q-5 92-5 155.5t8 116.5q10 19 29 19 23 0 36-16.5t14-29.5l-5-165q0-93 9-139 90 60 186 60 31 0 66-5 75-39 98-83 11-23 14-49t4-59q6-114 15-168z"/><path transform="translate(112.45 13.809) scale(.013672 -.013672)" d="m178 96 2 160q0 38-7 65h-155l-2 69h150v258q3 9 12 18 14 14 23.5 14t16.5-2 15-14q16-66 16-199 0-33 3-65 32 4 64 4 0 0 52 0 19 0 35 2l-3-72-146 4 5-345q-18-8-31-8-50 0-50 111z"/><path transform="translate(118.11 13.809) scale(.013672 -.013672)" d="m231 70q88 0 265 80 11 0 18-7.5t7-17.5q-40-68-153-106t-211-13q-111 29-135 125-2 19-2 51t16.5 84.5 56.5 99.5 94 74 115 27q58 0 130-40 34-19 54-43t20-49q0-7-1-14-2-61-59-77-25-7-58-7l-144 6q-72 0-110-31-22-17-31-51 25-91 128-91zm-24 305q-69-32-69-67 80-7 120-7 111 0 150 19 24 10 24 25 0 18-22.5 34t-46.5 23-40 7-52-10.5-64-23.5z"/><path transform="translate(125.69 13.809) scale(.013672 -.013672)" d="m518 365q-42 30-108 30-62 0-115-23-100-42-137-108-16-30-16-64 0-6 0-33.5t10-74 10-94.5q-21-1-34-5t-22-4-15.5 8-14.5 31q-1 6-4 34t-7.5 68-10 87.5-10.5 93.5q-11 100-17 147 0 24 35 24 21 0 33-17.5t19-40 9.5-44.5 4.5-31q132 118 328 118 22 0 46-1 6 1 15 1t18-12q11-14 11-34 0-50-28-56z"/></svg>