<svg width="54.32" height="17.408" viewBox="0 0 54.32 17.408" xmlns="http://www.w3.org/2000/svg"><path transform="translate(0 14.048) scale(.016 -.016)" d="m7 0 271 686h125l272-686h-103l-67 170h-334l-66-170zm195 251h271l-83 215q-3 9-9 25t-13 35.5-14 40-13 37.5h-6q-7-20-16-46t-18-50.5-15-41.5z"/><path transform="translate(10.912 14.048) scale(.016 -.016)" d="m69 0v526h71l8-87h7q8 25 22 47.5t38 37 59 14.5q15 0 27.5-2.5t18.5-5.5v-81h-33q-34 0-58.5-11.5t-40.5-32.5-23.5-50-7.5-62v-293z"/><path transform="translate(16.224 14.048) scale(.016 -.016)" d="m269-12q-76 0-127.5 29.5t-78 91-26.5 154.5 26.5 154 79 91 129.5 30q54 0 93.5-14t65.5-41 38.5-65 12.5-87h-89q0 46-12.5 75.5t-39.5 44-71 14.5-76-19.5-49-61.5-17-111v-21q0-65 16.5-108t48.5-63 78-20q45 0 72.5 16t40 46 12.5 72h86q0-44-12.5-82t-38.5-66-66-43.5-96-15.5z"/><path transform="translate(24.528 14.048) scale(.016 -.016)" d="m69 0v723h88v-263h7q20 27 45 44t55.5 25.5 66.5 8.5q50 0 87.5-17t59-55 21.5-103v-363h-88v351q0 33-8.5 54t-23 33-35 17-45.5 5q-37 0-70-17.5t-52.5-51-19.5-82.5v-309z"/><path transform="translate(33.536 14.048) scale(.016 -.016)" d="M69 625V723H157V625ZM69 0V526H157V0Z"/><path transform="translate(37.136 14.048) scale(.016 -.016)" d="m208 0-195 526h92l96-263q7-19 16-47.5t18.5-58 15.5-52.5h5q7 22 16 51.5t18.5 58 16.5 48.5l95 263h89l-195-526z"/><path transform="translate(45.2 14.048) scale(.016 -.016)" d="m285-12q-80 0-134.5 29.5t-83 90.5-28.5 155q0 95 28.5 155.5t83 90 134.5 29.5 134.5-29.5 82.5-90 28-155.5q0-94-28-155t-82.5-90.5-134.5-29.5zm0 74q51 0 85 20t51.5 62.5 17.5 107.5v22q0 66-17.5 108t-51.5 62-85 20-85.5-20-51.5-62-17-108v-22q0-65 17-107.5t51.5-62.5 85.5-20z"/></svg>