<svg width="77.84" height="23.44" viewBox="0 0 77.84 23.44" xmlns="http://www.w3.org/2000/svg"><path transform="translate(0 19.536) scale(.016 -.016)" d="m514 76-54 188q-4 9-11 9h-225q-6 0-10-8l-117-248-91-19-3 10q89 150 174.5 303t164.5 309q1 3 1 7 0 2-2.5 6t-9.5 5l-90 15v27h194q8-41 23.5-103.5t34.5-131 35-128.5q17-61 37.5-127t47.5-111q10-16 27-23t37-7q11 0 22 1t21 2l1-26-104-30q-22-6-45-6-25 0-37 26.5t-21 59.5zm-154 496-116-244q-1-1-1-4.5t0-4.5q0-7 7-7h188q7 0 7 7 0 0-1 4t-1 5l-70 244q-2 4-7 4-6 0-6-4z"/><path transform="translate(11.552 19.536) scale(.016 -.016)" d="m352 339-12 5q-4 21-16 39.5t-37 18.5q-31 0-50-21t-27-41q-7-16-8-46t0-63.5 1-60.5q0-75 3-152l-70-21-15 9q5 53 8.5 115t3.5 122q0 39-1 78t-10 65-32 26q-17 0-38-10t-40-21l-12 17q20 16 43.5 33t47.5 29.5 44 12.5q34 0 51-20t21-52l10-4q15 14 33.5 30.5t38.5 28 38 11.5q71 0 79-79z"/><path transform="translate(18.208 19.536) scale(.016 -.016)" d="m417 319-282-122q3-31 16.5-64t41-55 71.5-22q41 0 80.5 21t73.5 47l11-2 13-18q-31-29-67.5-55.5t-77-43.5-83.5-17q-50 0-82.5 21t-50.5 55.5-25.5 77-7.5 84.5q0 44 11 86t40 76q37 43 88.5 66.5t108.5 23.5q65 0 103.5-40t38.5-98q0-9-6.5-13t-14.5-8zm-240 77q-29-31-37.5-65t-8.5-71q0-4 0.5-8.5t1.5-9.5l4-4 202 80q5 2 9 8t4 18q0 21-11 43t-31.5 36.5-48.5 14.5q-25 0-46.5-11t-37.5-31z"/><path transform="translate(25.6 19.536) scale(.016 -.016)" d="m10 434h105l6 6q0 26 3 60.5t15 61.5q23 53 64.5 80t88.5 27q41 0 62-17t31-37l-58-54-12 4q-2 11-6.5 26t-16 26.5-35.5 11.5q-21 0-34.5-26t-19.5-69-6-94l4-6h124l5-7-7-22-7-6h-115l-6-6v-111q0-70 2.5-139.5t7.5-130.5l-79-24-17 11q5 74 9 145t4 139v108l-6 8h-112l-5 7 4 22z"/><path transform="translate(33.2 19.536) scale(.016 -.016)" d="m275 331-2-8 263-296v-9l-99-26q-35 45-74 94.5t-74.5 95-62.5 78-38 43.5q-9 9-20 9 0-72 0.5-144.5t4.5-144.5l-83-29-11 9q6 109 7.5 218t1.5 218q0 6-0.5 25t-1 45-1 53.5-0.5 48.5q0 16-17.5 26t-36 14.5-23.5 4.5l1 17 6 6h272q92 0 147.5-35t55.5-105q0-69-29-113t-77.5-66-108.5-29zm-108 39q0-4 2-9.5t7-5.5q55 0 104.5 17t80.5 54.5 31 96.5q0 48-25.5 73.5t-64 34.5-77.5 9h-40q-11 0-12-26-1-19-1.5-49t-1.5-63-1.5-62.5-1-48.5-0.5-21z"/><path transform="translate(41.968 19.536) scale(.016 -.016)" d="m635 105 11-19q-23-20-51-42t-56-37-54-15q-34 0-50 20.5t-19 51.5l-8 1q-28-17-60.5-34.5t-65-29-62.5-11.5q-43 0-65.5 19t-31 47-8.5 56q0 12 0.5 35t1.5 48 1.5 47 0.5 33q0 46-1.5 69.5t-5 34-10.5 17.5q-8 9-28 9-10 0-32-10t-39-20l-13 20q20 15 43.5 32t47.5 29 45 12q38 0 51-21t14-69.5 1-133.5q0-51 3.5-95t22-71 64.5-27q34 0 68 17.5t63 35.5q0 49 0.5 110.5t0.5 114.5q0 35 0 62.5t-1 43.5l77 35 13-11q-12-139-12-278 0-30 2-56.5t12.5-43 34.5-16.5q20 0 44 14t43 28z"/><path transform="translate(52.176 19.536) scale(.016 -.016)" d="m370-243-16 16q1 15 2 47t2 73 2 83 2 78l-7 5q-38-28-81.5-47t-90.5-19q-39 0-66.5 18t-44.5 47-24.5 63-7.5 65q0 52 14 102.5t43 92 74.5 66 108.5 24.5q23 0 50.5-8.5t48.5-19.5l9 2 44 59 21-4q-7-87-10.5-187.5t-3.5-199.5q0-91 3-175.5t9-151.5zm-8 348v226q0 19-2 39t-14 32q-13 14-30 23t-37 9q-56 0-88.5-32t-45.5-82.5-13-106.5q0-41 11.5-77.5t36.5-58.5 66-22q29 0 60 14t56 36z"/><path transform="translate(60.304 19.536) scale(.016 -.016)" d="m385 431 53 31 5-5q-6-109-6-218 0-23-1.5-55t0.5-62 11-50 29-20q11 0 30 6t35 12l7-24q-20-12-43-25.5t-45-23-38-9.5q-28 0-40 17t-17 42l-15 4q-37-24-78-43.5t-85-19.5q-42 0-70 18t-45 47-24.5 63.5-7.5 68.5q0 53 13.5 103t42 90.5 73.5 64 109 23.5q24 0 53.5-9t53.5-26zm-22-332v230q0 20-2 38t-14 31q-13 14-31 23.5t-37 9.5q-55 0-95-38-17-16-34.5-59t-19.5-119q-1-31 5-62.5t23-57.5q16-25 43.5-33t55.5-8q29 0 56.5 14t49.5 31z"/><path transform="translate(69.072 19.536) scale(.016 -.016)" d="m385 431 53 31 5-5q-6-109-6-218 0-23-1.5-55t0.5-62 11-50 29-20q11 0 30 6t35 12l7-24q-20-12-43-25.5t-45-23-38-9.5q-28 0-40 17t-17 42l-15 4q-37-24-78-43.5t-85-19.5q-42 0-70 18t-45 47-24.5 63.5-7.5 68.5q0 53 13.5 103t42 90.5 73.5 64 109 23.5q24 0 53.5-9t53.5-26zm-22-332v230q0 20-2 38t-14 31q-13 14-31 23.5t-37 9.5q-55 0-95-38-17-16-34.5-59t-19.5-119q-1-31 5-62.5t23-57.5q16-25 43.5-33t55.5-8q29 0 56.5 14t49.5 31z"/></svg>