<svg width="36.559" height="15.641" viewBox="0 0 36.559 15.641" xmlns="http://www.w3.org/2000/svg"><path transform="translate(0 12.674) scale(.0068359 -.0068359)" d="m364 412-162-412h-198l575 1409h217l566-1409h-195l-161 412zm321 853q-17-56-40.5-124.5t-43.5-120.5l-179-459h527l-181 465q-14 35-37 99t-46 140z"/><path transform="translate(9.3379 12.674) scale(.0068359 -.0068359)" d="m322 564v-564h-180v830q0 57-1.5 120t-4.5 132h170q2-46 3.5-83t2.5-64.5 1.5-46 0.5-27.5h4q30 98 66 152 35 50 80 69.5t111 19.5q37 0 73-10v-165q-34 10-96 10-112 0-171-96.5t-59-276.5z"/><path transform="translate(14 12.674) scale(.0068359 -.0068359)" d="M317 1484V1312H137V1484ZM317 1082V0H137V1082Z"/><path transform="translate(17.11 12.674) scale(.0068359 -.0068359)" d="m321 627v-627h-179v851q0 95-1.5 152.5t-4.5 78.5h170q2-22 4-54t3-66.5 1-64.5h3q58 115 133 160t183 45q123 0 194.5-49t99.5-156h3q56 109 135.5 157t192.5 48q164 0 238.5-89t74.5-292v-721h-178v686q0 157-43 217t-155 60q-118 0-183.5-87.5t-65.5-248.5v-627h-178v686q0 157-43 217t-155 60q-115 0-182-88t-67-248z"/><path transform="translate(28.772 12.674) scale(.0068359 -.0068359)" d="m1053 542q0-284-125-423t-363-139q-237 0-358 144.5t-121 417.5q0 280 121.5 420t363.5 140q248 0 365-136.5t117-423.5zm-189 0q0 224-66.5 325.5t-223.5 101.5q-158 0-228.5-103.5t-70.5-323.5q0-214 69.5-321.5t218.5-107.5q162 0 231.5 104t69.5 325z"/></svg>