<svg width="38.01" height="22.862" viewBox="0 0 38.01 22.862" xmlns="http://www.w3.org/2000/svg"><path transform="translate(0 15.022) scale(.014 -.014)" d="m319 706q17 0 30.5-6.5t17.5-23.5l201-621q4-12 10-24.5t14-22.5q-6-7-17-13t-30-6q-18 0-32.5 8t-17.5 25l-201 652 13-1-186-620q-2-8-4-16.5t-2-16.5q0-7 1.5-13t4.5-10q-9-3-19-5.5t-25-2.5q-22 0-34 9t-11 28q0 8 3 20.5t6 24.5l212 622q33 13 66 13zm-165-438h317v-48h-317z"/><path transform="translate(8.288 15.022) scale(.014 -.014)" d="m138-9q-18 0-32 12.5t-14 34.5v368q0 29-6.5 40.5t-21.5 11.5q-5 0-13-3t-13-13q-12 15-12 32 0 20 16 33t44 13q38 0 58-27t19-82v-66h-12q10 87 48 131.5t97 44.5q51 0 83-27t32-77q0-33-18-54t-41-22q-24-1-35 10 12 19 15.5 33.5t3.5 30.5q0 32-15 47t-43 15q-27 0-51.5-23t-39.5-74.5-15-138.5q0-59 0-98t1.5-63.5 4-40.5 7.5-30q-6-6-17.5-12t-29.5-6z"/><path transform="translate(14.462 15.022) scale(.014 -.014)" d="m127 603q-22 0-38 16t-16 38q0 23 16 38.5t38 15.5q23 0 38.5-15.5t15.5-38.5q0-22-15.5-38t-38.5-16zm44-489q0-29 2.5-57t10.5-50q-6-5-17.5-11.5t-28.5-6.5q-19 0-32 12t-13 32l-1 363q0 29-2.5 57t-10.5 50q6 5 17.5 11.5t28.5 6.5q20 0 32.5-11.5t12.5-32.5z"/><path transform="translate(18.102 15.022) scale(.014 -.014)" d="m795 114q0-26 2.5-55.5t10.5-51.5q-8-7-19-12.5t-27-5.5q-20 0-33 12t-13 32v270q0 53-8 92t-28.5 60.5-58.5 21.5q-22 0-45-12.5t-42.5-38.5-32.5-69-14-103l1-140q0-26 2.5-55.5t9.5-51.5q-7-7-18-12.5t-27-5.5q-19 0-31.5 12t-12.5 32l-1 270q0 85-20.5 129.5t-77.5 44.5q-23 0-46-13t-41.5-41.5-30.5-74.5-12-113q0-58 0-96.5t1.5-62 4-39.5 8.5-30q-6-5-17-11.5t-29-6.5q-20 0-33 13t-13 35l-1 368q0 26-9 39.5t-26 13.5q-9 0-17.5-5.5t-13.5-15.5q-11 14-11 31 0 24 18 38t44 14q40 0 63-27.5t23-83.5v-67l-9 15q14 75 59 119.5t111 44.5q72 0 108-42.5t42-123.5l-12 4q8 49 31.5 85.5t59 56.5 79.5 20q79 0 115.5-53t36.5-155z"/><path transform="translate(30.31 15.022) scale(.014 -.014)" d="m470-10q-43 0-65 29.5t-22 94.5v89l19-9q-17-60-51.5-106.5t-80.5-72.5-100-26q-59 0-92 31.5t-33 84.5q0 41 21.5 73t59 54 85.5 35q42 11 86.5 15t81.5 2v26q0 87-29 131t-98 44q-24 0-48.5-7.5t-40-24.5-15.5-49q0-20 10-41.5t33-29.5q-9-11-22-15.5t-26-4.5q-35 0-55 27t-20 61q0 59 52 89.5t139 30.5q104 0 152.5-53t48.5-163v-200q0-53 36-53 8 0 18 5t15 16q6-8 8.5-16.5t2.5-14.5q0-22-20-37t-50-15zm-264 55q29 0 59.5 17.5t56.5 46.5 42.5 66 16.5 77q-23 2-51.5 0t-55.5-7-48-13q-44-16-69-43.5t-25-66.5q0-30 17-54.5t57-22.5z"/></svg>