<svg width="57.968" height="20" viewBox="0 0 57.968 20" xmlns="http://www.w3.org/2000/svg"><path transform="translate(0 14.4) scale(.016 -.016)" d="m199-40q-62 0-109 13t-67 29q-50 39-50 90 0 43 37.5 86.5t114.5 80 194 57.5q50 9 101.5 14t103.5 5q44 0 88.5-4t87.5-13q14-3 32-7.5t37-10.5q83 85 162 169t153 142q52 41 97 56t80 15q41 0 67.5-12.5t34.5-20.5q3-3 0-6t-6 0q-5 6-24 13t-49 7q-37 0-87-17t-111-64q-75-59-148.5-135.5t-149.5-153.5q39-14 71.5-38t37.5-59v-4q0-4-2-4-3 0-6 6-4 11-22.5 19t-42.5 13-46 8-33 4l-11 1q-83-80-171.5-147.5t-187.5-101.5q-47-16-91.5-23t-84.5-7zm773-49q-45 32-66 77t-21 97 18 104q18 53 52.5 110t75.5 111.5 79.5 100 65 75.5 31.5 37q6 8 9 8 4 0 6-6.5t2-14.5q0-16-5-23-26-33-62-84t-73-113.5-69-128.5-51.5-129-19.5-115q0-30 8-55t26-44q1-1 1-3t-2-4-5 0zm-770 66q37 0 80 6.5t89 20.5q86 27 171 92t167 145q-13 1-26 1t-27 0q-70 0-145.5-7t-143.5-20q-110-19-179.5-47.5t-102-59.5-32.5-59q0-27 27-47 14-10 46-17.5t76-7.5z"/><path transform="translate(16.48 14.4) scale(.016 -.016)" d="m150-1q-43 0-58 16.5t-15 36.5q0 26 20 55 12 17 27 38.5t28 40.5 18 27q7 10 8.5 13.5t1.5 7.5q0 6-7.5 11.5t-24.5 5.5q-5 0-8.5-0.5t-7.5-0.5q-8 0-9 1l-3-4q-28-37-60-72.5t-70-65.5q-4-3-6-3-4 0-4 4 0 8 12 18 31 26 61 58.5t54 68.5q-9 6-9 24 0 27 17 58 12 21 26.5 31.5t25.5 10.5q21 0 21-25 0-16-12-40-5-12-19.5-30.5t-28.5-26.5q21 7 53.5 9.5t54.5 2.5q13 0 32-7.5t19-26.5q0-13-12-28-3-4-16-19t-28.5-36-28.5-42q-13-19-20.5-35t-7.5-27q0-16 18-16 21 0 56 20t75.5 51.5 74.5 65.5q4 4 7 4 4 0 4-5 0-6-5-11-35-35-77.5-71.5t-88-61.5-88.5-25z"/><path transform="translate(22.256 14.4) scale(.016 -.016)" d="m223 306q-14 0-21 9t-7 19q0 20 19 39.5t40 19.5q14 0 21-9t7-19q0-21-18.5-40t-40.5-19zm-153-307q-41 0-55.5 17.5t-14.5 39.5q0 18 6 34.5t10 23.5q6 10 16.5 23t23.5 28q-20-17-37.5-33t-28.5-24q-3-3-6-3-4 0-4 5 0 8 11 16 26 22 50.5 48t46.5 48.5 39 31.5q18 10 29 13t18 3q11 0 16-3.5t2-7.5q-17-17-33.5-43.5t-30.5-55.5-22.5-55-8.5-44q0-25 20-25 19 0 49.5 17.5t64 44.5 62.5 53q4 4 7 4 5 0 5.5-5t-2.5-7q-33-31-74.5-64.5t-83-56.5-75.5-23z"/><path transform="translate(26.656 14.4) scale(.016 -.016)" d="m-187-299q-51 0-76.5 14.5t-25.5 37.5q0 32 47.5 73t141.5 76q48 19 99 30.5t100 11.5q15 0 30-1.5t29-3.5q18-4 31-12.5t13-15.5q0-6-8-4-7 2-15.5 3t-18.5 1q-31 0-71-7.5t-82-20-80-27.5q-60-22-96-53.5t-36-54.5q0-12 12.5-20t40.5-8q29 0 67.5 8.5t77 22 69.5 26.5q59 25 108.5 63.5t79 81 29.5 77.5q0 32-29.5 52.5t-97.5 20.5q-34 0-67.5-4.5t-57-9.5-26.5-5q-10 0-10 8 0 10 12 23t23 17q24 8 57.5 16t88.5 30q33 14 60.5 28t27.5 24q0 7-12.5 9.5t-30 3.5-33.5 1q-24 0-52-3t-49-11-27-25q-15 9-15 28 0 34 36 55 21 13 52.5 20t71.5 7q59 0 85.5-15t26.5-37q0-32-45-61-20-13-49.5-24.5t-64.5-22.5q10 1 19.5 1.5t18.5 0.5q74 0 115-27t41-72q0-34-27.5-77.5t-86.5-89.5q-43-34-88.5-59.5t-74.5-37.5q-60-26-129.5-44t-128.5-18z"/><path transform="translate(33.216 14.4) scale(.016 -.016)" d="m77-9q-39 0-58.5 19.5t-19.5 50.5q0 19 5 37t11 32q-7-7-13.5-12.5t-10.5-8.5-7-3q-4 0-4 5 0 7 10 16 35 29 55 51.5t42 41.5q37 32 79 50t84 18q44 0 69-21t25-62q0-23-13.5-53t-42.5-62q-12-13-27-25.5t-26-18.5q49 5 92 34.5t77 58.5q5 3 7 3 5 0 5-5 0-4-5-9-43-41-92.5-69t-109.5-27q-35-19-68.5-30t-63.5-11zm45 28q14 0 30 5t32 13q-6 0-11.5 6t-5.5 16q0 20 15 41t37 36 43 15q12 0 22.5-6.5t11.5-17.5q17 19 23.5 41t6.5 41q0 26-16.5 39.5t-44.5 13.5q-27 0-59.5-19t-61-49-47-65-18.5-67q0-43 43-43z"/><path transform="translate(39.6 14.4) scale(.016 -.016)" d="m-5-5q-10 0-24 4.5t-28 16.5q11 15 31.5 40.5t43.5 56.5 43 62q-16-16-35-34t-38-33q-4-4-9-4-4 0-4 4 0 5 8 12 28 25 62.5 57.5t50.5 66.5q5 12 5 22 0 13-5 16-4 3-4 8 0 9 9 9 5 0 8-2 11-5 21-19t10-42q0-16-4-36.5t-14-46.5q15 20 30.5 39t28.5 34q27 31 54.5 44.5t49.5 13.5q26 0 42-15t16-39q0-19-10-39-3-8-14-24.5t-24-35.5-24-34q-13-16-18-27.5t-5-18.5q0-10 11-10 14 0 39 15 15 9 34.5 24.5t39 32 31.5 27.5q4 4 7 4 4 0 4-5 0-6-5-11-30-28-69.5-61t-77.5-51q-31-15-57-15-22 0-35 11.5t-13 33.5q0 16 8 38 10 27 28.5 54t39 51.5 35.5 41.5q13 14 13 24 0 9-12 9t-35.5-13.5-52.5-43.5q-41-43-72-93t-71-94q-22-25-43-25z"/><path transform="translate(45.952 14.4) scale(.016 -.016)" d="m223 306q-14 0-21 9t-7 19q0 20 19 39.5t40 19.5q14 0 21-9t7-19q0-21-18.5-40t-40.5-19zm-153-307q-41 0-55.5 17.5t-14.5 39.5q0 18 6 34.5t10 23.5q6 10 16.5 23t23.5 28q-20-17-37.5-33t-28.5-24q-3-3-6-3-4 0-4 5 0 8 11 16 26 22 50.5 48t46.5 48.5 39 31.5q18 10 29 13t18 3q11 0 16-3.5t2-7.5q-17-17-33.5-43.5t-30.5-55.5-22.5-55-8.5-44q0-25 20-25 19 0 49.5 17.5t64 44.5 62.5 53q4 4 7 4 5 0 5.5-5t-2.5-7q-33-31-74.5-64.5t-83-56.5-75.5-23z"/><path transform="translate(50.352 14.4) scale(.016 -.016)" d="m55-1q-31 0-48 19.5t-17 50.5q0 29 15.5 64t49.5 71q35 38 87 61.5t99 23.5q38 0 65-16.5t36-41.5q11 0 27.5-6t16.5-22q0-11-11-25-7-10-24.5-30t-32.5-43q-12-18-19-33.5t-7-26.5q0-15 15-15 17 0 51 19 37 21 71 48t53 43q5 4 7 4 4 0 4-5 0-6-5-11-9-8-35-30t-59.5-46-65.5-39q-16-7-29.5-10.5t-24.5-3.5q-27 0-41 15.5t-14 40.5q0 10 3 21t7 22l7 17q-26-32-52-53.5t-52-37.5q-22-13-41.5-19t-35.5-6zm31 26q18 0 52 21.5t79 66.5q6 6 22.5 21.5t35.5 35 32.5 39 13.5 32.5q0 19-33 19-29 0-69.5-22.5t-77.5-66.5q-38-45-55.5-77.5t-17.5-49.5q0-19 18-19z"/></svg>