<svg width="29.616" height="28.944" viewBox="0 0 29.616 28.944" xmlns="http://www.w3.org/2000/svg"><path transform="translate(0 20.24) scale(.016 -.016)" d="M373 183H129L71 0H13L211 613H333L531 0H432ZM357 232 251 565 145 232Z"/><path transform="translate(8.64 20.24) scale(.016 -.016)" d="m338 484v-74q-154 0-154-120h-1v-290h-101v480h44l48-91q23 43 64.5 69t99.5 26z"/><path transform="translate(14.08 20.24) scale(.016 -.016)" d="m452 480-245-683-82 12 93 172-208 499h101l153-379 130 379z"/><path transform="translate(21.44 20.24) scale(.016 -.016)" d="m47 113q0 62 44.5 97.5t135.5 51.5l111 18v49q0 113-86 113-51 0-74-29t-26-89l-84 9q6 79 48 119t138 40q93 0 139-41.5t46-125.5v-325h-64l-31 70q-31-40-74-61t-91-21q-61 0-96.5 33.5t-35.5 91.5zm291-5v131l-98-19q-50-11-75.5-35t-25.5-65q0-36 20.5-57.5t55.5-21.5q34 0 67.5 20t55.5 47z"/></svg>