<svg width="34.304" height="18.336" viewBox="0 0 34.304 18.336" xmlns="http://www.w3.org/2000/svg"><path transform="translate(0 14.944) scale(.016 -.016)" d="m55-2q-22 0-32.5 4.5t-10.5 12.5q0 3 1 6.5t2 7.5l237 657q3 8 13 12t27 4h29q17 0 27-4t13-12l237-658q2-4 2.5-7t0.5-6q0-7-10-12t-33-5h-8q-15 0-26 3.5t-14 12.5l-189 538q-4 14-8.5 29t-6.5 29h-2q-3-14-6-29t-8-29l-190-538q-3-9-14-12.5t-26-3.5zm70 182v74h359v-74z"/><path transform="translate(9.808 14.944) scale(.016 -.016)" d="m198-9q-34 0-63 6.5t-50.5 16.5-33.5 20.5-12 19.5q0 6 6 18t14 22 15 10q4 0 18-10t39.5-20 60.5-10q48 0 73 19t25 55q0 27-13 43.5t-35.5 27.5-51.5 20q-26 9-51 20t-45 28-31.5 43-11.5 65q0 42 21.5 75t59 51.5 85.5 18.5q26 0 49.5-3.5t42-9.5 29.5-14 11-16-5.5-21-12.5-23-14-10q-4 0-27 13t-64 13q-37 0-63-17.5t-26-49.5q0-19 7-32t24-23.5 47-20.5q34-11 63-25t51-33.5 34-46.5 12-64q0-45-23.5-80t-63.5-55.5-90-20.5z"/><path transform="translate(16.416 14.944) scale(.016 -.016)" d="m220-6q-73 0-122 36.5t-49 113.5q0 51 17 86t55.5 56 102 30.5 155.5 9.5v47q0 23-10 42t-33.5 30.5-64.5 11.5q-45 0-79.5-10t-56-20-28.5-10q-5 0-9.5 5t-8.5 13.5-6.5 17.5-2.5 16q0 8 17 18t45.5 19.5 63 16 69.5 6.5q45 0 80.5-10.5t59.5-31 37-49.5 13-66v-222q0-41 2.5-67t5-40.5 2.5-21.5q0-5-6-9t-15-6.5-19-4-18-1.5q-9 0-14 6.5t-9 22-9 40.5q-18-21-42.5-38t-55-27-67.5-10zm4 73q36 0 63.5 10t50 25.5 41.5 33.5v118q-74 0-121-5.5t-73-17.5-36-32.5-10-49.5q0-40 21.5-61t63.5-21z"/><path transform="translate(25.136 14.944) scale(.016 -.016)" d="m129-208q-22 0-30.5 6t-8.5 16v559q0 41-2.5 67t-5 41-2.5 21q0 5 6 9t15 6.5 19 3.5 18 1q9 0 13.5-5.5t8.5-18.5 8-35q24 23 49.5 37.5t52.5 21.5 54 7q63 0 106-30.5t65.5-89 22.5-144.5q0-79-23-140t-66-96-103-35q-27 0-54.5 8t-52 21.5-43.5 31.5v-241q0-10-8.5-16t-30.5-6zm180 275q58 0 89.5 52t31.5 146q0 99-36 144.5t-96 45.5q-32 0-63.5-15t-58.5-45v-259q31-34 65.5-51.5t67.5-17.5z"/></svg>