<svg width="72.128" height="20.8" viewBox="0 0 72.128 20.8" xmlns="http://www.w3.org/2000/svg"><path transform="translate(0 16) scale(.016 -.016)" d="m70 0v700h116q55 0 111.5-9t109-30.5 94-60 65.5-96 24-139.5v-365h-116v233h-288v-233zm116 343h288v21q0 75-26.5 121t-69.5 70.5-93.5 33.5-98.5 9z"/><path transform="translate(10.24 16) scale(.016 -.016)" d="m42 0v105h99q13 0 32.5 3t34.5 15 15 38q0 23-13 36.5t-31.5 23-35.5 19.5q-54 31-76.5 65t-22.5 74q0 21 10.5 48t32.5 52.5 55.5 42 78.5 16.5h67v-103h-40q-13 0-35-3t-39.5-14.5-17.5-38.5q0-22 16-37.5t38-26.5 38-21q54-31 70.5-64.5t16.5-68.5q0-21-9.5-48.5t-30.5-53-54.5-42.5-82.5-17z"/><path transform="translate(15.92 16) scale(.016 -.016)" d="M71 645V754H180V645ZM70 0V535H182V0Z"/><path transform="translate(19.952 16) scale(.016 -.016)" d="m68 0v535h109q49 0 97.5-16.5t88.5-49.5v66h111q51 0 102.5-13.5t94-44.5 68.5-82.5 26-127.5v-267h-112v251q0 72-23 110t-64 53.5-94 17.5v-432h-109v230q0 72-24.5 116.5t-66 65-92.5 20.5v-432z"/><path transform="translate(32.864 16) scale(.016 -.016)" d="m298-7q-52 0-97.5 21.5t-79 58.5-52.5 84-19 99v38q0 69 33 125.5t89 90 126 33.5 126-33.5 89-90 33-125.5v-38q0-52-19-99t-52.5-84-78.5-58.5-98-21.5zm0 102q41 0 70.5 23t46 59.5 16.5 78.5v38q0 66-36 106.5t-97 40.5-97-40.5-36-106.5v-38q0-42 16.5-78.5t46.5-59.5 70-23z"/><path transform="translate(42.272 16) scale(.016 -.016)" d="m119-3-79 538h110l64-431q40 7 73 19.5t53.5 43 20.5 88.5v280h107v-281q0-70-22.5-118t-60-76.5-84-42.5-93.5-17z"/><path transform="translate(50.432 16) scale(.016 -.016)" d="M71 645V754H180V645ZM70 0V535H182V0Z"/><path transform="translate(54.464 16) scale(.016 -.016)" d="m487 255v-255h-455q-7 98 10.5 162t52 102 78.5 56.5 91 24.5 89 6q-22 35-57 52.5t-73.5 23.5-71.5 7h-93v103h98q59-1 117.5-13t106.5-42.5 77.5-85.5 29.5-141zm-345-153h235v151q-125-1-180-33t-55-118z"/><path transform="translate(62.96 16) scale(.016 -.016)" d="m68 0v535h108q68 0 131.5-14t114-50 80-101.5 29.5-169.5v-200h-116v199q0 80-19 126.5t-51.5 70-75 30.5-89.5 7v-433z"/></svg>