<svg width="59.76" height="20.928" viewBox="0 0 59.76 20.928" xmlns="http://www.w3.org/2000/svg"><path transform="translate(0 16.336) scale(.016 -.016)" d="m4 0 225 657h82l224-657h-78l-119 372q-18 56-34.5 110.5t-33.5 112.5h-4q-15-58-31.5-112.5t-35.5-110.5l-120-372zm114 207v59h300v-59z"/><path transform="translate(8.624 16.336) scale(.016 -.016)" d="m209-12q-52 0-99 19.5t-81 47.5l37 49q31-25 65.5-42t80.5-17q50 0 75 24t25 57q0 26-17 43.5t-42.5 30-53.5 22.5q-34 12-68 29t-56.5 43-22.5 67q0 57 43.5 96.5t121.5 39.5q44 0 82-16t65-38l-35-47q-25 18-51.5 30.5t-60.5 12.5q-48 0-71-22.5t-23-51.5q0-24 15.5-39.5t40.5-26.5 53-22q36-13 70.5-29.5t57.5-43.5 23-74q0-38-20-70.5t-59-52-95-19.5z"/><path transform="translate(15.28 16.336) scale(.016 -.016)" d="m209-12q-52 0-99 19.5t-81 47.5l37 49q31-25 65.5-42t80.5-17q50 0 75 24t25 57q0 26-17 43.5t-42.5 30-53.5 22.5q-34 12-68 29t-56.5 43-22.5 67q0 57 43.5 96.5t121.5 39.5q44 0 82-16t65-38l-35-47q-25 18-51.5 30.5t-60.5 12.5q-48 0-71-22.5t-23-51.5q0-24 15.5-39.5t40.5-26.5 53-22q36-13 70.5-29.5t57.5-43.5 23-74q0-38-20-70.5t-59-52-95-19.5z"/><path transform="translate(21.936 16.336) scale(.016 -.016)" d="m85 0v485h72v-485zm37 589q-21 0-35.5 14t-14.5 37q0 21 14.5 35t35.5 14q22 0 36-14t14-35q0-23-14-37t-36-14z"/><path transform="translate(25.808 16.336) scale(.016 -.016)" d="m209-12q-52 0-99 19.5t-81 47.5l37 49q31-25 65.5-42t80.5-17q50 0 75 24t25 57q0 26-17 43.5t-42.5 30-53.5 22.5q-34 12-68 29t-56.5 43-22.5 67q0 57 43.5 96.5t121.5 39.5q44 0 82-16t65-38l-35-47q-25 18-51.5 30.5t-60.5 12.5q-48 0-71-22.5t-23-51.5q0-24 15.5-39.5t40.5-26.5 53-22q36-13 70.5-29.5t57.5-43.5 23-74q0-38-20-70.5t-59-52-95-19.5z"/><path transform="translate(32.464 16.336) scale(.016 -.016)" d="m232-12q-76 0-105 44t-29 114v279h-73v55l76 5 9 137h61v-137h133v-60h-133v-281q0-45 16.5-70.5t60.5-25.5q13 0 28.5 4t27.5 9l15-55q-20-7-43.5-12.5t-43.5-5.5z"/><path transform="translate(37.76 16.336) scale(.016 -.016)" d="m195-12q-40 0-72 16t-51 46.5-19 73.5q0 80 72.5 122.5t229.5 59.5q0 32-8.5 62.5t-31 49-64.5 18.5q-44 0-81.5-17t-65.5-36l-29 50q21 14 50 29t64 25 74 10q58 0 94.5-25t53-69 16.5-103v-300h-60l-6 59h-3q-35-29-76-50t-87-21zm19 59q37 0 70 17.5t71 50.5v142q-86-10-136-27.5t-72-42.5-22-58q0-43 26.5-62.5t62.5-19.5z"/><path transform="translate(45.776 16.336) scale(.016 -.016)" d="m85 0v485h60l6-72h3q35 36 74.5 60t88.5 24q77 0 112.5-48t35.5-141v-308h-73v299q0 70-22.5 102t-73.5 32q-39 0-69.5-19.5t-69.5-58.5v-355z"/><path transform="translate(54.464 16.336) scale(.016 -.016)" d="m232-12q-76 0-105 44t-29 114v279h-73v55l76 5 9 137h61v-137h133v-60h-133v-281q0-45 16.5-70.5t60.5-25.5q13 0 28.5 4t27.5 9l15-55q-20-7-43.5-12.5t-43.5-5.5z"/></svg>