<svg width="71.472" height="19.088" viewBox="0 0 71.472 19.088" xmlns="http://www.w3.org/2000/svg"><path transform="translate(0 15.232) scale(.016 -.016)" d="M326 599H321L107 0H22L281 707H369L629 0H539ZM498 196H150V271H498Z"/><path transform="translate(10.4 15.232) scale(.016 -.016)" d="m363 372q-6 39-31.5 56.5t-76.5 17.5q-55 0-83.5-19.5t-28.5-50.5q0-32 22.5-48t68.5-27l80-20q71-17 105-51t34-90q0-65-51-107.5t-155-42.5q-93 0-143 37t-59 114h86q6-41 30-60.5t84-19.5q68 0 96.5 20.5t28.5 53.5q0 31-21 49.5t-68 30.5l-80 20q-69 17-104 50.5t-35 85.5q0 67 49.5 106t143.5 39q87 0 134.5-36.5t53.5-107.5z"/><path transform="translate(18.368 15.232) scale(.016 -.016)" d="m303 435h-116v-365h114v-70h-68q-61 0-94.5 24.5t-33.5 91.5v319h-87v70h87v151h82v-151h116z"/><path transform="translate(23.536 15.232) scale(.016 -.016)" d="m521 0h-54q-37 0-57 25t-21 82l11-3q-19-52-62.5-83t-116.5-31q-56 0-95.5 17t-60 51-20.5 86q0 41 15 69.5t41.5 46 61.5 26 74 8.5h153v48q0 53-28.5 79t-92.5 26q-57 0-86-21t-35-62h-83q5 49 31 82.5t71 51.5 105 18q39 0 75-9t64-30 44.5-56 16.5-87v-263h49zm-395 144q0-43 26-64t79-21q74 0 116.5 35t42.5 93v43h-152q-54 0-82.5-22t-29.5-64z"/><path transform="translate(36.192 15.232) scale(.016 -.016)" d="m461 539q-6 56-47 80t-112 24q-79 0-117-30.5t-38-87.5q0-32 13.5-52.5t35-33.5 45-20.5 43.5-13.5l72-20q29-8 64-20.5t67-34.5 52-55.5 20-83.5q0-60-28-106t-85.5-72-145.5-26q-121 0-185 50.5t-71 138.5h87q5-44 27-69t58.5-35.5 83.5-10.5q83 0 128.5 33t45.5 99q0 38-19.5 60.5t-51.5 35.5-70 24l-90 25q-85 24-132.5 67t-47.5 116q0 62 30 105.5t85 67 127 23.5q74 0 126.5-22.5t82-62.5 31.5-93z"/><path transform="translate(45.68 15.232) scale(.016 -.016)" d="m521 0h-54q-37 0-57 25t-21 82l11-3q-19-52-62.5-83t-116.5-31q-56 0-95.5 17t-60 51-20.5 86q0 41 15 69.5t41.5 46 61.5 26 74 8.5h153v48q0 53-28.5 79t-92.5 26q-57 0-86-21t-35-62h-83q5 49 31 82.5t71 51.5 105 18q39 0 75-9t64-30 44.5-56 16.5-87v-263h49zm-395 144q0-43 26-64t79-21q74 0 116.5 35t42.5 93v43h-152q-54 0-82.5-22t-29.5-64z"/><path transform="translate(54.4 15.232) scale(.016 -.016)" d="m160 0h-82v505h82v-77q24 39 59.5 63.5t96.5 24.5q83 0 131-46.5t48-153.5v-316h-83v313q0 72-30 102t-87 30q-41 0-71.5-15t-47-47-16.5-86z"/><path transform="translate(63.504 15.232) scale(.016 -.016)" d="m363 372q-6 39-31.5 56.5t-76.5 17.5q-55 0-83.5-19.5t-28.5-50.5q0-32 22.5-48t68.5-27l80-20q71-17 105-51t34-90q0-65-51-107.5t-155-42.5q-93 0-143 37t-59 114h86q6-41 30-60.5t84-19.5q68 0 96.5 20.5t28.5 53.5q0 31-21 49.5t-68 30.5l-80 20q-69 17-104 50.5t-35 85.5q0 67 49.5 106t143.5 39q87 0 134.5-36.5t53.5-107.5z"/></svg>