<svg width="154.19" height="19.84" viewBox="0 0 154.19 19.84" xmlns="http://www.w3.org/2000/svg"><path transform="translate(0 15.2) scale(.016 -.016)" d="M10 0 261 669H366L616 0H516L465 146H161L110 0ZM190 227H436L313 574Z"/><path transform="translate(10.016 15.2) scale(.016 -.016)" d="m221 0q-47 0-72.5 9.5t-35 36.5-9.5 78v305h-84v67h84v125h84v-125h96v-67h-96v-291q0-38 7.5-51t43.5-13h45v-74z"/><path transform="translate(15.2 15.2) scale(.016 -.016)" d="M70 0V668H154V273L354 496H455L268 291L480 0H377L212 229L154 166V0Z"/><path transform="translate(23.04 15.2) scale(.016 -.016)" d="m156 590q-25 0-43.5 18.5t-18.5 44.5 18.5 44 43.5 18q26 0 44.5-18t18.5-44-18.5-44.5-44.5-18.5zm-42-590v429h-69v67h153v-496z"/><path transform="translate(27.488 15.2) scale(.016 -.016)" d="m70 0v496h62l22-75q21 35 59 59t101 24q90 0 127-52.5t37-137.5v-314h-84v289q0 38-7 70.5t-30.5 52.5-71.5 20q-61 0-96-41.5t-35-121.5v-269z"/><path transform="translate(36.224 15.2) scale(.016 -.016)" d="m239-12q-43 0-84.5 13.5t-74 41-49.5 69.5l81 30q11-44 48.5-63.5t78.5-19.5q30 0 56.5 9t43.5 26 17 39q0 41-32.5 58t-77.5 26l-69 14q-36 8-67 22.5t-50 41.5-19 72 28 75.5 71.5 46.5 91.5 16q59 0 111.5-24.5t74.5-76.5l-79-29q-13 30-45.5 44.5t-67.5 14.5q-38 0-69-17t-31-49 26.5-46.5 65.5-22.5l65-13q40-8 76-23t59-44.5 23-82.5q0-47-29-80t-75-50.5-98-17.5z"/><path transform="translate(43.76 15.2) scale(.016 -.016)" d="m276-12q-43 0-85 15t-76.5 46.5-55.5 80.5-21 116 21 116 55.5 80.5 76.5 46.5 85 15 85.5-15 77-46.5 55-80.5 20.5-116-20.5-116-55-80.5-77-46.5-85.5-15zm0 74q36 0 70 19.5t56 60 22 104.5-22 104.5-56 60-70 19.5q-35 0-69.5-19.5t-56.5-60-22-104.5 22-104.5 56.5-60 69.5-19.5z"/><path transform="translate(52.592 15.2) scale(.016 -.016)" d="m70 0v496h62l22-75q21 35 59 59t101 24q90 0 127-52.5t37-137.5v-314h-84v289q0 38-7 70.5t-30.5 52.5-71.5 20q-61 0-96-41.5t-35-121.5v-269z"/><path transform="translate(65.808 15.2) scale(.016 -.016)" d="M76 0V668H170V384H520V668H614V0H520V303H170V0Z"/><path transform="translate(76.848 15.2) scale(.016 -.016)" d="m37-161v74h34q36 0 55 5.5t30.5 24 22.5 56.5l-179 496h93l122-382 122 382h92l-176-517q-18-53-36.5-83.5t-49.5-43-87-12.5z"/><path transform="translate(83.712 15.2) scale(.016 -.016)" d="m70-161v657h61l23-78q23 39 63 62.5t98 23.5q57 0 105.5-30.5t78-88 29.5-139.5q0-81-29.5-139t-78-88.5-105.5-30.5q-58 0-98 23.5t-63 63.5v-236zm223 221q64 0 102.5 49t38.5 137q0 89-38.5 137.5t-102.5 48.5-102.5-48.5-38.5-137.5q0-88 38.5-137t102.5-49z"/><path transform="translate(92.768 15.2) scale(.016 -.016)" d="m281-12q-78 0-132 34.5t-82.5 93-28.5 131.5q0 79 32 136.5t86.5 89 122.5 31.5q59 0 104-23.5t74.5-63 43-89.5 9.5-103h-382q2-62 27.5-98t60.5-50.5 65-14.5q42 0 70.5 13.5t45.5 35.5l81-24q-27-43-77-71t-120-28zm-152 304h292q0 35-17.5 67t-49 52.5-75.5 20.5q-37 0-70-14t-54.5-45-25.5-81z"/><path transform="translate(101.39 15.2) scale(.016 -.016)" d="m70 0v496h61l27-92q26 45 70.5 72.5t106.5 27.5v-87q-7 0-14.5 0t-14.5-1q-85-7-118.5-59t-33.5-144v-213z"/><path transform="translate(106.83 15.2) scale(.016 -.016)" d="m187 0q-47 0-72.5 9.5t-35 36.5-9.5 78v543h84v-529q0-38 8-51t43-13h19v-74z"/><path transform="translate(110.66 15.2) scale(.016 -.016)" d="m281-12q-78 0-132 34.5t-82.5 93-28.5 131.5q0 79 32 136.5t86.5 89 122.5 31.5q59 0 104-23.5t74.5-63 43-89.5 9.5-103h-382q2-62 27.5-98t60.5-50.5 65-14.5q42 0 70.5 13.5t45.5 35.5l81-24q-27-43-77-71t-120-28zm-152 304h292q0 35-17.5 67t-49 52.5-75.5 20.5q-37 0-70-14t-54.5-45-25.5-81z"/><path transform="translate(119.28 15.2) scale(.016 -.016)" d="m274-192q-40 0-79.5 11.5t-70 37.5-43.5 67l84 23q14-39 46-52t63-13q77 0 104.5 37t27.5 109v66q-23-39-61-62t-97-23q-55 0-103 28.5t-77.5 84-29.5 134.5q0 80 29.5 135t77.5 84 103 29q59 0 97-23.5t61-62.5l23 78h61v-449q0-118-47.5-178.5t-168.5-60.5zm-5 271q38 0 69.5 18t51 57 19.5 102-19.5 102-51 56.5-69.5 17.5q-61 0-100.5-45.5t-39.5-130.5 39.5-131 100.5-46z"/><path transform="translate(128.24 15.2) scale(.016 -.016)" d="m156 590q-25 0-43.5 18.5t-18.5 44.5 18.5 44 43.5 18q26 0 44.5-18t18.5-44-18.5-44.5-44.5-18.5zm-42-590v429h-69v67h153v-496z"/><path transform="translate(132.69 15.2) scale(.016 -.016)" d="m315-12q-58 0-98 23.5t-63 63.5l-22-75h-62v668h84v-250q23 39 63 62.5t98 23.5q57 0 105.5-30.5t78-88 29.5-139.5-29.5-139.5-78-88-105.5-30.5zm-22 72q64 0 102.5 49t38.5 137q0 89-38.5 137.5t-102.5 48.5-102.5-48.5-38.5-137.5q0-88 38.5-137t102.5-49z"/><path transform="translate(141.74 15.2) scale(.016 -.016)" d="m187 0q-47 0-72.5 9.5t-35 36.5-9.5 78v543h84v-529q0-38 8-51t43-13h19v-74z"/><path transform="translate(145.57 15.2) scale(.016 -.016)" d="m281-12q-78 0-132 34.5t-82.5 93-28.5 131.5q0 79 32 136.5t86.5 89 122.5 31.5q59 0 104-23.5t74.5-63 43-89.5 9.5-103h-382q2-62 27.5-98t60.5-50.5 65-14.5q42 0 70.5 13.5t45.5 35.5l81-24q-27-43-77-71t-120-28zm-152 304h292q0 35-17.5 67t-49 52.5-75.5 20.5q-37 0-70-14t-54.5-45-25.5-81z"/></svg>