<svg width="230.05" height="18.2" viewBox="0 0 230.05 18.2" xmlns="http://www.w3.org/2000/svg"><path transform="translate(0 13.776) scale(.014 -.014)" d="M34 0 270 668H363L598 0H513L461 153H169L116 0ZM191 226H438L317 577H313Z"/><path transform="translate(8.848 13.776) scale(.014 -.014)" d="m349 0q-47 0-74 9.5t-38.5 36-11.5 78.5v305h-107v67h107v124h85v-124h211v-67h-211v-293q0-41 11.5-53t46.5-12h103v-71z"/><path transform="translate(17.696 13.776) scale(.014 -.014)" d="M129 0V708H214V261L453 496H558L348 292L584 0H479L290 235L214 161V0Z"/><path transform="translate(26.544 13.776) scale(.014 -.014)" d="m110 0v67h175v362h-149v67h235v-429h175v-67zm207 593q-25 0-43 18t-18 43 18 43 43 18q26 0 43.5-18t17.5-43-17.5-43-43.5-18z"/><path transform="translate(35.392 13.776) scale(.014 -.014)" d="m103 0v496h70l14-75q11 18 33.5 38.5t56 34 77.5 13.5q62 0 101.5-23t58-64 18.5-95v-325h-86v303q0 60-26 97t-89 37q-65 0-104-44t-39-126v-267z"/><path transform="translate(44.24 13.776) scale(.014 -.014)" d="m323-12q-49 0-94.5 13.5t-80 41-50.5 70.5l77 28q12-41 51.5-63.5t97.5-22.5q60 0 94.5 22t34.5 58q0 37-29.5 53.5t-80.5 27.5l-82 17q-67 13-107 43.5t-40 87.5q0 45 27 77t73 49 102 17q71 0 124.5-26t76.5-78l-75-28q-12 32-47 48.5t-81 16.5q-52 0-85.5-18.5t-33.5-52.5q0-28 23.5-43.5t65.5-24.5l84-17q82-16 124-47.5t42-95.5q0-49-28-83t-75.5-52-107.5-18z"/><path transform="translate(53.088 13.776) scale(.014 -.014)" d="m316-12q-46 0-90.5 15.5t-81 47-58.5 80.5-22 117 22 117 58.5 80.5 81 46.5 90.5 15q47 0 91.5-15t81-46.5 58-80.5 21.5-117-21.5-117-58-80.5-81-47-91.5-15.5zm0 70q44 0 81.5 20.5t60.5 63 23 106.5q0 66-23.5 107.5t-61 61.5-80.5 20-80.5-20-61-61.5-23.5-107.5q0-64 23-106.5t61-63 81-20.5z"/><path transform="translate(61.936 13.776) scale(.014 -.014)" d="m103 0v496h70l14-75q11 18 33.5 38.5t56 34 77.5 13.5q62 0 101.5-23t58-64 18.5-95v-325h-86v303q0 60-26 97t-89 37q-65 0-104-44t-39-126v-267z"/><path transform="translate(79.632 13.776) scale(.014 -.014)" d="M61 0V668H149V383H483V668H571V0H483V306H149V0Z"/><path transform="translate(88.48 13.776) scale(.014 -.014)" d="m91-162v68h76q37 0 53.5 9.5t29.5 39.5l25 54-215 487h92l164-388h4l160 388h92l-245-549q-12-30-24.5-50.5t-28.5-34-40-19-61-5.5z"/><path transform="translate(97.328 13.776) scale(.014 -.014)" d="m89-162v658h70l16-82q17 28 43.5 49t59.5 32.5 71 11.5q68 0 120-30.5t81-89 29-140.5q0-81-29-139.5t-81-89-120-30.5q-39 0-73 12t-60 33-42 47v-242zm241 220q72 0 117 49t45 140-45 140.5-117 49.5q-70 0-114-50t-44-139q0-90 44-140t114-50z"/><path transform="translate(106.18 13.776) scale(.014 -.014)" d="m326-12q-78 0-134 33.5t-86 92-30 133.5q0 80 32.5 138t88 90 125.5 32q60 0 105.5-22t75.5-60.5 44-88 10-103.5h-396q1-50 17-83.5t41-54 54-29 57-8.5q47 0 76.5 16t47.5 40l75-27q-29-42-78-70.5t-125-28.5zm-164 304h312q-1 36-18 69.5t-50 55.5-82 22q-38 0-72.5-14t-58-46-31.5-87z"/><path transform="translate(115.02 13.776) scale(.014 -.014)" d="m148 0v496h65l19-115q35 63 95.5 93.5t130.5 30.5q20 0 42-3t37-6v-88q-23 7-48 11t-49 4q-60 0-106.5-24t-73.5-71.5-27-120.5v-207z"/><path transform="translate(123.87 13.776) scale(.014 -.014)" d="m343 0q-46 0-72 9.5t-37 33-11 66.5v532h-115v67h200v-583q0-32 9.5-43t45.5-11h181v-71z"/><path transform="translate(132.72 13.776) scale(.014 -.014)" d="m326-12q-78 0-134 33.5t-86 92-30 133.5q0 80 32.5 138t88 90 125.5 32q60 0 105.5-22t75.5-60.5 44-88 10-103.5h-396q1-50 17-83.5t41-54 54-29 57-8.5q47 0 76.5 16t47.5 40l75-27q-29-42-78-70.5t-125-28.5zm-164 304h312q-1 36-18 69.5t-50 55.5-82 22q-38 0-72.5-14t-58-46-31.5-87z"/><path transform="translate(141.57 13.776) scale(.014 -.014)" d="m312-191q-44 0-87 11.5t-75.5 36-46.5 65.5l75 27q12-33 47-52t89-19q40 0 73 13t52 40.5 19 71.5v94q-28-40-72-64t-102-24q-63 0-114 29t-81 84.5-30 133.5q0 81 30 137t80.5 85 112.5 29q60 0 105-26t71-68l16 83h69v-487q0-65-28.5-110t-80.5-67.5-122-22.5zm-7 270q46 0 81 21t54.5 60.5 19.5 95.5q0 86-43 133.5t-112 47.5q-70 0-114.5-46t-44.5-133 44.5-133 114.5-46z"/><path transform="translate(150.42 13.776) scale(.014 -.014)" d="m110 0v67h175v362h-149v67h235v-429h175v-67zm207 593q-25 0-43 18t-18 43 18 43 43 18q26 0 43.5-18t17.5-43-17.5-43-43.5-18z"/><path transform="translate(159.26 13.776) scale(.014 -.014)" d="m349-12q-39 0-73 12t-60 32.5-43 47.5l-14-80h-70v708h85v-296q18 29 44 50.5t59.5 33 71.5 11.5q68 0 120-30.5t81-88.5 29-139q0-82-29-140.5t-81-89.5-120-31zm-19 70q72 0 117 50t45 141-45 139.5-117 48.5q-70 0-114-49t-44-140q0-60 20-102.5t56-65 82-22.5z"/><path transform="translate(168.11 13.776) scale(.014 -.014)" d="m343 0q-46 0-72 9.5t-37 33-11 66.5v532h-115v67h200v-583q0-32 9.5-43t45.5-11h181v-71z"/><path transform="translate(176.96 13.776) scale(.014 -.014)" d="m326-12q-78 0-134 33.5t-86 92-30 133.5q0 80 32.5 138t88 90 125.5 32q60 0 105.5-22t75.5-60.5 44-88 10-103.5h-396q1-50 17-83.5t41-54 54-29 57-8.5q47 0 76.5 16t47.5 40l75-27q-29-42-78-70.5t-125-28.5zm-164 304h312q-1 36-18 69.5t-50 55.5-82 22q-38 0-72.5-14t-58-46-31.5-87z"/><path transform="translate(194.66 13.776) scale(.014 -.014)" d="M46 0V668H173L316 114H320L461 668H586V0H510V578H506L356 0H277L125 578H121V0Z"/><path transform="translate(203.5 13.776) scale(.014 -.014)" d="m316-12q-46 0-90.5 15.5t-81 47-58.5 80.5-22 117 22 117 58.5 80.5 81 46.5 90.5 15q47 0 91.5-15t81-46.5 58-80.5 21.5-117-21.5-117-58-80.5-81-47-91.5-15.5zm0 70q44 0 81.5 20.5t60.5 63 23 106.5q0 66-23.5 107.5t-61 61.5-80.5 20-80.5-20-61-61.5-23.5-107.5q0-64 23-106.5t61-63 81-20.5z"/><path transform="translate(212.35 13.776) scale(.014 -.014)" d="m103 0v496h70l14-75q11 18 33.5 38.5t56 34 77.5 13.5q62 0 101.5-23t58-64 18.5-95v-325h-86v303q0 60-26 97t-89 37q-65 0-104-44t-39-126v-267z"/><path transform="translate(221.2 13.776) scale(.014 -.014)" d="m316-12q-46 0-90.5 15.5t-81 47-58.5 80.5-22 117 22 117 58.5 80.5 81 46.5 90.5 15q47 0 91.5-15t81-46.5 58-80.5 21.5-117-21.5-117-58-80.5-81-47-91.5-15.5zm0 70q44 0 81.5 20.5t60.5 63 23 106.5q0 66-23.5 107.5t-61 61.5-80.5 20-80.5-20-61-61.5-23.5-107.5q0-64 23-106.5t61-63 81-20.5z"/></svg>