<svg width="88.48" height="22.4" viewBox="0 0 88.48 22.4" xmlns="http://www.w3.org/2000/svg"><path transform="translate(0 16.8) scale(.016 -.016)" d="m596 171q0-80-49.5-121t-174.5-41h-312v633h302q83 0 129.5-17.5t65.5-51.5 19-85q0-70-33.5-108.5t-125.5-46.5v-3q68-5 107-22.5t55.5-50.5 16.5-86zm-278 345h-98v-124h98q49 0 71 12.5t22 49.5q0 36-22 49t-71 13zm20-255h-118v-127h118q49 0 71 13.5t22 50.5q0 38-22 50.5t-71 12.5z"/><path transform="translate(10.016 16.8) scale(.016 -.016)" d="m245 501q96 0 155-20t86.5-73.5 27.5-154.5v-244h-145l-5 46h-3q-19-25-59-40t-104-15q-173 0-173 162 0 69 45.5 108.5t143.5 39.5h148q-7 42-36 56.5t-99 14.5q-44 0-86.5-6.5t-74.5-14.5l-3 2 1 116q20 6 51 11.5t65.5 8.5 64.5 3zm-6-383q62 0 93 15.5t32 49.5v25h-113q-44 0-61.5-12.5t-17.5-33.5q0-25 18-34.5t49-9.5z"/><path transform="translate(18.96 16.8) scale(.016 -.016)" d="m220 9h-160v673h160v-392h2l126 206h176v-4l-148-230v-4l172-249h-184l-141 225-3 1z"/><path transform="translate(27.552 16.8) scale(.016 -.016)" d="m554 274q0-135-55-204.5t-187-69.5q-74 0-137.5 5.5t-111.5 13.5l-3 2v661h160v-261h4q14 36 46.5 58t92.5 22q191 0 191-227zm-334-17v-117q24-4 56-4 47 0 73.5 8.5t37.5 33.5 11 72q0 59-17 87t-70 28q-40 0-65.5-24.5t-25.5-83.5z"/><path transform="translate(36.816 16.8) scale(.016 -.016)" d="m245 501q96 0 155-20t86.5-73.5 27.5-154.5v-244h-145l-5 46h-3q-19-25-59-40t-104-15q-173 0-173 162 0 69 45.5 108.5t143.5 39.5h148q-7 42-36 56.5t-99 14.5q-44 0-86.5-6.5t-74.5-14.5l-3 2 1 116q20 6 51 11.5t65.5 8.5 64.5 3zm-6-383q62 0 93 15.5t32 49.5v25h-113q-44 0-61.5-12.5t-17.5-33.5q0-25 18-34.5t49-9.5z"/><path transform="translate(45.76 16.8) scale(.016 -.016)" d="m220 9h-160v673h160v-392h2l126 206h176v-4l-148-230v-4l172-249h-184l-141 225-3 1z"/><path transform="translate(59.152 16.8) scale(.016 -.016)" d="m40 326q0 121 27.5 192t95 102 188.5 31q91 0 151-17t95-55 49.5-100.5 14.5-152.5q0-91-14.5-153.5t-49.5-100.5-95-55-151-17-151 17-95 55-50 100.5-15 153.5zm311-186q64 0 96 16t43 56.5 11 113.5q0 72-11 112t-43 56.5-96 16.5q-63 0-95.5-16.5t-44-56.5-11.5-112q0-73 11.5-113.5t44-56.5 95.5-16z"/><path transform="translate(70.368 16.8) scale(.016 -.016)" d="m220 9h-160v487h152l8-89h3q14 45 50 69.5t100 24.5q87 0 128.5-49t41.5-170v-273h-160l-1 242q0 56-17 80t-64 24q-44 0-62-21.5t-19-73.5z"/><path transform="translate(79.856 16.8) scale(.016 -.016)" d="m489 25q-28-10-77.5-17.5t-117.5-7.5q-86 0-146.5 22.5t-91.5 77-31 151.5q0 132 60.5 191t187.5 59q91 0 143.5-26t75-73.5 22.5-112.5q0-19-1.5-41t-5.5-43l-4-4h-329q7-44 41.5-58t112.5-14q52 0 86.5 2.5t70.5 7.5l4-3zm-114 281q0 24-7.5 41.5t-29.5 27-65 9.5q-63 0-82.5-21.5t-19.5-56.5z"/></svg>