<svg width="32.928" height="26.6" viewBox="0 0 32.928 26.6" xmlns="http://www.w3.org/2000/svg"><path transform="translate(0 15.82) scale(.014 -.014)" d="m652 540q-75-1-138-27.5t-100.5-69-37.5-93.5q0-43 28.5-82t87-63.5 148.5-24.5 160.5 23.5 119.5 63.5 75 92 26 109q0 64-32 112t-86.5 79.5-124.5 47.5-146 16q-126 0-230-29.5t-184.5-81-136-119.5-84-145.5-28.5-157.5q0-86 34.5-168.5t104.5-149.5 177.5-107 253.5-40q54 0 115.5 9t124 27.5 118.5 46.5 99 67l8-8q-42-38-98-66.5t-119-47.5-126.5-28.5-121.5-9.5q-148 0-257.5 41t-181.5 110-107 153.5-35 172.5q0 82 29.5 160.5t86 147.5 138.5 121 187.5 82 232.5 30q77 0 148-16.5t128-49.5 90-82.5 33-116.5q0-58-26.5-112t-77.5-96-123-66.5-164-24.5q-95 0-155.5 26t-89.5 67.5-29 87.5q0 54 39 99t104 72.5 143 28.5q54 0 86.5-13.5t47-33.5 14.5-40q0-28-27-58.5t-79.5-51-131.5-20.5q-55 0-108 17t-96 48.5-68 76.5-25 100q0 68 38 135.5t110 123.5 174 90 229 34q116 0 204-31t147.5-83 90-116 30.5-131q0-49-18.5-97t-55-87.5-90-63.5-123.5-24q-32 0-52.5 9t-20.5 24q0 13 11.5 20.5t30.5 7.5q36 0 61.5-19.5t38.5-50 13-65.5q0-47-28.5-97t-84.5-93.5-137-70-186-26.5q-67 0-125 15t-108.5 35-94.5 35-83 15q-30 0-46-8.5t-16-25.5q0-44 103-44 88 0 158 27t133 78 131 123 150.5 161.5 192.5 192.5q35 35 69.5 62t68.5 46h51q-38-12-89-44t-92-72q-54-55-100-120.5t-90-133.5-91.5-130-104-111.5-128-78.5-164.5-29q-70 0-116 7.5t-69 23-23 40.5q0 23 17.5 35t50.5 12q40 0 86-15.5t98-35 110-35 121-15.5q89 0 164.5 29t131.5 74.5 87 96.5 31 95q0 25-8.5 49.5t-27 41-50.5 16.5q-15 0-25-5.5t-10-14.5q0-10 16.5-16t44.5-6q67 0 118.5 23t86.5 61.5 53 85 18 93.5q0 65-29.5 127.5t-88 113-145 80.5-200.5 30q-118 0-217-32.5t-171-86.5-111.5-119.5-39.5-132.5q0-55 24.5-98.5t65.5-73.5 92-46 105-16q76 0 126.5 19t76 47 25.5 54q0 18-13.5 35.5t-43.5 29.5-81 12z"/><path transform="translate(15.904 15.82) scale(.014 -.014)" d="m-23-7q-33 0-33 51 0 34 20 72t54 73.5 76 64.5 86.5 46 84.5 17q34 0 34-26 0-24-31-61.5t-78-86.5q-37-38-78-72.5t-76.5-56-58.5-21.5zm1 7q19 0 51.5 19t73 52.5 82.5 76.5q47 49 76 84.5t29 57.5q0 17-22 17-20 0-50.5-16t-65-42.5-68.5-58.5-62-65-45-61.5-17-47.5q0-16 18-16zm406 169-9-10q-41-47-83.5-85.5t-78-60.5-56.5-22q-11 0-19.5 8.5t-8.5 21.5q0 34 37 91t103 125h5l60 66h77q-18-10-37-25t-36-32q-74-74-116.5-118.5t-60.5-69.5-18-41q0-20 16-20 18 0 50 20.5t72.5 56.5 81.5 82l11 13z"/><path transform="translate(21.14 15.82) scale(.014 -.014)" d="m-34-9q-35 0-35 39 0 61 69 139l624 705h82q-21-10-63.5-48.5t-97.5-95.5-115-124l-373-421q-59-67-82.5-103.5t-23.5-61.5q0-23 18-23 34 0 92.5 42.5t123.5 116.5l11 13h10l-9-10q-71-81-130.5-124.5t-100.5-43.5z"/><path transform="translate(23.884 15.82) scale(.014 -.014)" d="m-34-9q-35 0-35 39 0 61 69 139l624 705h82q-21-10-63.5-48.5t-97.5-95.5-115-124l-373-421q-59-67-82.5-103.5t-23.5-61.5q0-23 18-23 34 0 92.5 42.5t123.5 116.5l11 13h10l-9-10q-71-81-130.5-124.5t-100.5-43.5z"/><path transform="translate(26.628 15.82) scale(.014 -.014)" d="m10-3q33 0 77 21t91 57 87 81l12 13h10l-9-10q-42-47-91.5-85.5t-96-60.5-80.5-22q-26 0-41.5 18.5t-15.5 50.5 19 67 50.5 68.5 71 60.5 81 43 79.5 16q17 0 27-7t10-18q0-21-23.5-44t-60.5-43-79-33-80-13l9 9q36 2 74.5 14t71.5 31 54 40 21 39q0 16-21 16-24 0-59.5-21t-73.5-54-71-71.5-53.5-74-20.5-60.5q0-28 31-28z"/><path transform="translate(30.506 15.82) scale(.014 -.014)" d="m52 393v9h515v-9zm5-208q-58-65-82-102.5t-24-62.5q0-23 18-23 19 0 43 15t59.5 49.5 89.5 94.5l12 13h10l-9-10q-81-92-128.5-130t-79.5-38q-35 0-35 39 0 61 69 139 20 24 38 45.5t41 47 57 62 86 91.5 128 135q17 0 39 3t44 9q-32-23-91-79.5t-133-133.5-152-164z"/></svg>