<svg width="83.968" height="25.952" viewBox="0 0 83.968 25.952" xmlns="http://www.w3.org/2000/svg"><path transform="translate(0 17.248) scale(.016 -.016)" d="m420 349v-66h-275v66zm-115-66 32 50q68 0 113-22.5t67.5-59.5 22.5-83q0-91-65.5-135t-186.5-44q-27 0-54 1.5t-53 5.5-50 10q-42 12-42 46v512q0 16 8.5 25t24.5 13q34 10 72.5 13.5t82.5 3.5q113 0 176-40.5t63-123.5q0-42-20.5-77.5t-66-57-121.5-21.5l-9 50q66 0 100 27.5t34 76.5q0 50-39.5 74.5t-116.5 24.5q-34 0-60-2.5t-48-6.5v-476q24-5 55.5-8t63.5-3q83 0 126 28t43 86q0 52-38.5 82.5t-113.5 30.5z"/><path transform="translate(9.584 17.248) scale(.016 -.016)" d="m240-14q-94 0-145.5 37t-51.5 107q0 65 43.5 99.5t120.5 41.5l142 14v28q0 50-30 73t-81 23q-41 0-78.5-12t-66.5-27q-8 7-14.5 16.5t-6.5 19.5q0 26 29 40 27 14 62.5 21.5t75.5 7.5q87 0 138-39t51-123v-237q0-22-8.5-33.5t-25.5-21.5q-24-13-64-24t-90-11zm0 66q42 0 69.5 8.5t39.5 16.5v145l-124-13q-52-4-77-23t-25-55q0-37 29.5-58t87.5-21z"/><path transform="translate(17.568 17.248) scale(.016 -.016)" d="m83 264 80-12v-250q-5-2-15-4.5t-22-2.5q-21 0-32 8.5t-11 27.5zm80-50-80 11v423q5 2 15.5 4.5t21.5 2.5q22 0 32.5-8.5t10.5-27.5z"/><path transform="translate(21.504 17.248) scale(.016 -.016)" d="m504 231q0-74-28-129t-79-85-120-30-120.5 30-79.5 85-28 129q0 75 28.5 129.5t80 84.5 119.5 30 119-30 79.5-84.5 28.5-129.5zm-227 178q-67 0-106.5-47.5t-39.5-130.5q0-84 38.5-131t107.5-47q68 0 106.5 47.5t38.5 130.5-38.5 130.5-106.5 47.5z"/><path transform="translate(30.352 17.248) scale(.016 -.016)" d="m504 231q0-74-28-129t-79-85-120-30-120.5 30-79.5 85-28 129q0 75 28.5 129.5t80 84.5 119.5 30 119-30 79.5-84.5 28.5-129.5zm-227 178q-67 0-106.5-47.5t-39.5-130.5q0-84 38.5-131t107.5-47q68 0 106.5 47.5t38.5 130.5-38.5 130.5-106.5 47.5z"/><path transform="translate(42.4 17.248) scale(.016 -.016)" d="m420 349v-66h-275v66zm-115-66 32 50q68 0 113-22.5t67.5-59.5 22.5-83q0-91-65.5-135t-186.5-44q-27 0-54 1.5t-53 5.5-50 10q-42 12-42 46v512q0 16 8.5 25t24.5 13q34 10 72.5 13.5t82.5 3.5q113 0 176-40.5t63-123.5q0-42-20.5-77.5t-66-57-121.5-21.5l-9 50q66 0 100 27.5t34 76.5q0 50-39.5 74.5t-116.5 24.5q-34 0-60-2.5t-48-6.5v-476q24-5 55.5-8t63.5-3q83 0 126 28t43 86q0 52-38.5 82.5t-113.5 30.5z"/><path transform="translate(51.984 17.248) scale(.016 -.016)" d="m476 199h-80v92q0 60-33.5 89t-86.5 29q-39 0-72.5-15t-56.5-36l-15 65q24 17 63.5 34.5t91.5 17.5q83 0 136-45t53-137zm-399 65h80v-262q-5-2-15-4.5t-22-2.5q-21 0-32 8.5t-11 27.5zm319-1 80-1v-260q-5-2-15.5-4.5t-21.5-2.5q-22 0-32.5 8.5t-10.5 27.5zm-239-38h-80v423q5 2 15.5 4.5t22.5 2.5q21 0 31.5-8.5t10.5-27.5z"/><path transform="translate(60.8 17.248) scale(.016 -.016)" d="m240-14q-94 0-145.5 37t-51.5 107q0 65 43.5 99.5t120.5 41.5l142 14v28q0 50-30 73t-81 23q-41 0-78.5-12t-66.5-27q-8 7-14.5 16.5t-6.5 19.5q0 26 29 40 27 14 62.5 21.5t75.5 7.5q87 0 138-39t51-123v-237q0-22-8.5-33.5t-25.5-21.5q-24-13-64-24t-90-11zm0 66q42 0 69.5 8.5t39.5 16.5v145l-124-13q-52-4-77-23t-25-55q0-37 29.5-58t87.5-21z"/><path transform="translate(68.784 17.248) scale(.016 -.016)" d="m68 608q0 21 15 35.5t37 14.5q23 0 37-14.5t14-35.5-14-35.5-37-14.5q-22 0-37 14.5t-15 35.5zm12-344h80v-262q-5-2-15-4.5t-22-2.5q-21 0-32 8.5t-11 27.5zm80-39h-80v235q5 2 15.5 4.5t22.5 2.5q21 0 31.5-8.5t10.5-28.5z"/><path transform="translate(75.84 17.248) scale(.016 -.016)" d="m57 545q0 18 23 35.5t62 28.5 85 11q64 0 110-21.5t71-60.5 25-92q0-55-30.5-108t-104.5-121l-163-151h297q4-4 7-12.5t3-19.5q0-16-8.5-25t-22.5-9h-353q-10 7-15 17.5t-5 22.5q0 16 6 28.5t18 23.5l180 173q62 58 85 97.5t23 82.5q0 47-32 77t-97 30q-44 0-78.5-15t-57.5-32q-11 5-19.5 15t-8.5 25z"/></svg>