<svg width="48.432" height="17.024" viewBox="0 0 48.432 17.024" xmlns="http://www.w3.org/2000/svg"><path transform="translate(0 14.128) scale(.016 -.016)" d="m68-4q-37 0-69 6 48 175 76.5 352.5t54.5 357.5q52 11 108 19.5t116 8.5q33 0 70-11.5t62.5-41 25.5-83.5q0-50-21-92t-53-72-66-43q14-7 33-25t33-48 14-73q0-60-35.5-108.5t-94.5-80.5q-57-32-123-49t-131-17zm178 483q31 6 59 16t45.5 23 17.5 28q0 19-15 30t-36 16-39 5h-10q-7-40-13-69.5t-9-48.5zm-51-281q20 2 44 7t46 15.5 36.5 28 14.5 42.5q0 24-16 38t-38.5 20.5-42.5 6.5h-8q-5 0-8-1-6-37-14-78t-14-79z"/><path transform="translate(6.848 14.128) scale(.016 -.016)" d="m259 2q2 17 4 33t4 32l6 56q1 14 2 26t2 22h-87l-40-144q-22-3-52-6.5t-56-6.5q-16-2-31.5-4t-31.5-4l79 262q14 47 32 107t36.5 123 35 118.5 26.5 93.5q68 5 138.5 12t137.5 19q-5-56-9.5-126.5t-8-145.5-7.5-148q-2-69-5-142.5t-6-150.5q-15-2-30-4t-30-4q-25-4-55-9t-54-9zm-45 269q6 0 22.5 1t31.5 2 18 1q0 13 4 53t8 84q2 26 4.5 53.5t5.5 56.5l6 87-15-1-23-86z"/><path transform="translate(13.776 14.128) scale(.016 -.016)" d="m5-5q30 144 57 279 22 127 43 244t30 215q7-1 12.5-1t9.5 0h21q26 0 58 1.5t59 2.5q7-35 13.5-69t11.5-66q5-28 11-57.5t12-59.5q5-30 10.5-55.5t9.5-46.5q12 59 22.5 116t20.5 103l29 134 122 15q-17-76-32-149t-28-141q-25-122-44-230t-29-188q11 0-3.5-2.5t-42.5-7-60-11.5-57-17q-3 40-6 78t-7 74q-6 64-14 127t-16 100q-7-44-17-100.5t-22-113.5l-28-140z"/><path transform="translate(21.008 14.128) scale(.016 -.016)" d="m223-24q-37 0-70.5 16t-57.5 49q-25 32-39 81t-14 115q0 129 37 225t94 160q56 64 120.5 95t120.5 31q54 0 88-23.5t50-62.5 16-87l-137-26q-9 40-24 57t-34 17q-22 0-45.5-24t-46-64.5-40.5-90.5-29.5-103-13.5-100q0-62 18.5-88.5t47.5-26.5q28 0 55.5 18t46 48.5 19.5 68.5l-107-16 19 99 92 12q38 5 80.5 12t74.5 13q-7-102-39.5-178.5t-80.5-126.5-100.5-75-100.5-25z"/><path transform="translate(28.992 14.128) scale(.016 -.016)" d="m8-1 131 711 316 27q-7-22-12-45-5-19-9.5-39.5t-7.5-36.5q-13-1-37-1.5t-49-1-43-0.5-19 0l-35-179 58 3q11 1 22.5 1t22.5 0 20 0 14 1q-2-14-3.5-27.5t-3.5-27.5l-9-55q-5-1-13-1t-19 0q-11-1-23-1t-23-1q-13-1-27-1t-30-1l-34-184 146 23-10-114z"/><path transform="translate(34.448 14.128) scale(.016 -.016)" d="m4-1 52 260q12 72 26 148t26.5 150 19.5 139q57 18 123 26.5t131 8.5q76 0 103.5-33t27.5-89q0-51-24-102.5t-62.5-93-84.5-65.5q18-40 38.5-87.5t38.5-90.5q10-25 20.5-50t20.5-50l-155-54-36 120q-15 50-27.5 96.5t-14.5 65.5l-13-4q-3-16-6.5-34.5t-7.5-40.5-8-42.5-8-40.5l-18-95zm235 434q18 2 44.5 15.5t53 33.5 44.5 41 18 37q0 20-23.5 26.5t-61.5 6.5h-22q-6-1-11-1t-10 0z"/><path transform="translate(41.552 14.128) scale(.016 -.016)" d="m171-2q-40 0-80 21.5t-77 68.5l74 145q11-19 32.5-36t45.5-27 41-10q26 0 49.5 16t23.5 43q0 35-32 64t-72 57q-39 28-71.5 63.5t-32.5 81.5q0 52 30 96.5t78 78 102.5 52 103.5 18.5q35 0 65-11.5t48-37.5 18-70q0-7-0.5-14t-1.5-14-2.5-14.5-2.5-15.5l-145-42q2 8 3.5 16t1.5 16q0 30-10.5 43.5t-27.5 13.5q-9 0-26-9.5t-30.5-26-13.5-36.5q0-33 27.5-54.5t63.5-43.5q17-10 38-31.5t36.5-58 15.5-93.5q0-74-36.5-130t-98.5-87.5-137-31.5z"/></svg>