<svg width="56.014" height="16.8" viewBox="0 0 56.014 16.8" xmlns="http://www.w3.org/2000/svg"><path transform="translate(0 13.468) scale(.014 -.014)" d="m62 31 1 222v48q0 38 3 69l3 122q0 21 1 62.5t2 52.5q1 8 1 28 0 35-3 50-1 2-1 5 0 6 11 9 10 3 53 8.5t78 5.5q95 0 150.5-38t55.5-144q0-96-58-150-26-22-57-33 58-21 119.5-70.5t61.5-147.5q0-64-45.5-93.5t-92-35-97.5-5.5l-97-2-61-1q-16 0-22 10t-6 28zm318 492q0 72-25 107t-62.5 44.5-95.5 9.5l-2-64q-2-72-2-107v-114q0-10-1-17.5t-1-11.5q0-6 1-7.5t6-1.5q20 0 62 11t81 47 39 104zm40-392q0 134-115 182-51 19-115 18-1-3-1-8-1-5-1-23l2-64 2-54q0-14-1-20l-1-26 2-59 2-46q0-12 4.5-14.5t13-2 12.5 0.5q98 0 147 31.5t49 84.5z"/><path transform="translate(7.168 13.468) scale(.014 -.014)" d="m30 121q5 48 71 71t148 23q26 0 62 4t66 4q-4 108-13.5 169.5t-32 92.5-63.5 31q-30 0-57-14t-67-44q-33-24-33-24-1 0-6.5-3.5t-10.5-2.5q-9 2-9 9-4 6-9.5 27t-5.5 30q0 6 12 14 51 38 86.5 56.5t61 23.5 59.5 5q100 0 134.5-64.5t34.5-171.5q0-28-2-76 0-29-4-85l-1-24 1-59q2-40 2-61l-1-30q-2-23-18-23l-8 1h-41q-4 0-7.5 3.5t-3.5 8.5v8q-60-17-96-24t-88-7q-73 0-117 29t-44 103zm345-39 3 93q-47 4-81 4l-59-1q-48 0-86-18.5t-41-51.5q0-36 17-49t64-13q107 0 183 36z"/><path transform="translate(14.588 13.468) scale(.014 -.014)" d="m151 1-77-1q-15 0-15 12 0 4 0.5 27t0.5 79q0 57 3.5 110t3.5 59l6 181 1 103q0 11 5 12 5 0 22-1t43-1q20 0 39.5 1t23.5 1q3 0 5.5-3.5t2.5-5.5l2-28q34 22 79.5 37.5t69.5 15.5q6 0 8-1t4.5-8.5 4.5-12.5q10-25 13-60 1-16 5-37 2-9 2-22 0-8-1-9-8-12-24-16.5t-47-8.5q-39-4-67-12l-44-10 1-40q0-33 1-34l1-85q2-66 2-180 0-44-4-59 0-7-16-7-1 0-15.5 2t-38.5 2z"/><path transform="translate(20.398 13.468) scale(.014 -.014)" d="m151 1-77-1q-15 0-15 12 0 4 0.5 27t0.5 79q0 57 3.5 110t3.5 59l6 181 1 103q0 11 5 12 5 0 22-1t43-1q20 0 39.5 1t23.5 1q3 0 5.5-3.5t2.5-5.5l2-28q34 22 79.5 37.5t69.5 15.5q6 0 8-1t4.5-8.5 4.5-12.5q10-25 13-60 1-16 5-37 2-9 2-22 0-8-1-9-8-12-24-16.5t-47-8.5q-39-4-67-12l-44-10 1-40q0-33 1-34l1-85q2-66 2-180 0-44-4-59 0-7-16-7-1 0-15.5 2t-38.5 2z"/><path transform="translate(26.208 13.468) scale(.014 -.014)" d="m56 0q0 3 0.5 9.5t0.5 17.5l1 109 2 174q0 28 4 120 4 103 3 113l-1 17q0 11 3 16.5t11 5.5l42-1q9 0 9-11 0-5-1-10t-1-10q-2-21-4-92 0-23-4-117-1-31-2-60.5t-1-51.5q0-48 1.5-121.5t3.5-87.5q1-4 1-11t-1.5-9.5-7.5-3.5q-8-4-25.5-4t-21.5 0q-8 0-10 1.5t-2 6.5zm-11 675q0 21 15.5 37.5t36.5 16.5q25 0 45-13t20-36q0-28-20-44.5t-41-16.5-38.5 16-17.5 40z"/><path transform="translate(29.008 13.468) scale(.014 -.014)" d="m25 297q0 112 34 179.5t82.5 94.5 97.5 27q92 0 138.5-53t60-123.5 13.5-152.5q0-7-10-9-33 0-152-11-19-2-46-4.5t-60-4.5q9-97 105-97 32 0 49.5 6t56.5 25q7 0 12.5-8t15.5-33q3-5 7.5-19t8.5-21q19-48 18-50-2-4-11-11-21-21-67.5-37.5t-102.5-16.5q-150 0-200 101.5t-50 217.5zm274 11q-8 114-55 114-28 0-43-32.5t-18-91.5z"/><path transform="translate(35.756 13.468) scale(.014 -.014)" d="m37 297q0 87 28 154t78.5 104 116.5 37q64 0 104-23t55-44q1-1 5.5-6.5t4.5-10.5-10-14q-9-9-24-28-10-16-16-16-3 0-7 4.5t-6 6.5q-18 19-44.5 36t-52.5 17q-55 0-92-17.5t-59-69-22-147.5q0-149 49.5-193.5t105.5-44.5q26 0 62.5 22.5t64.5 74.5q9 11 14 11t10-4l15-12q9-8 19.5-21t10.5-19q0-4-3-9-20-32-62-64.5t-116-32.5q-111 0-170 85.5t-59 223.5z"/><path transform="translate(42.322 13.468) scale(.014 -.014)" d="m56 0q0 3 0.5 9.5t0.5 17.5l1 109 2 174q0 28 4 120 4 103 3 113l-1 17q0 11 3 16.5t11 5.5l42-1q9 0 9-11 0-5-1-10t-1-10q-2-21-4-92 0-23-4-117-1-31-2-60.5t-1-51.5q0-48 1.5-121.5t3.5-87.5q1-4 1-11t-1.5-9.5-7.5-3.5q-8-4-25.5-4t-21.5 0q-8 0-10 1.5t-2 6.5zm-11 675q0 21 15.5 37.5t36.5 16.5q25 0 45-13t20-36q0-28-20-44.5t-41-16.5-38.5 16-17.5 40z"/><path transform="translate(45.122 13.468) scale(.014 -.014)" d="m64 100 1 62 5 118 3 88v146q-48 0-55 16-3 8-3 17 0 10 1.5 19t1.5 17q18-1 55-1l1 4 1 38v43q-1 24 3.5 32.5t13.5 8.5q5 0 8-1h2q2 0 7 0.5t9-1.5q20-3 20-17 0-3-2-23-5-35-7-84h96q8 0 13-13.5t5-28.5q0-20-9-23-19-6-46-6-24 0-60 4v-237l-1-40q-3-39-3-81v-20q0-32 14-47.5t37-15.5q22 0 38 1.5t23 1.5q11 0 11-39l4-16q3-7-1-8-32-12-47.5-15t-46.5-3q-40 0-60 12t-26 33.5-6 58.5z"/><path transform="translate(48.93 13.468) scale(.014 -.014)" d="m40 297q0 112 34 179.5t82.5 94.5 97.5 27q92 0 139-48.5t60-115 13-149.5q0-67-22.5-138.5t-69-120-114.5-48.5q-132 0-176 101.5t-44 217.5zm277-19q0 57-14.5 80.5t-43.5 23.5q-62 0-62-112 0-42 11-70t45-28q33 0 48.5 31t15.5 75z"/></svg>