<svg width="30.413" height="17.616" viewBox="0 0 30.413 17.616" xmlns="http://www.w3.org/2000/svg"><path transform="translate(0 14.123) scale(.0068359 -.0068359)" d="m158 1358h500q79 0 148-21.5t119-65 79-108 29-149.5q0-45-15.5-89t-43-82.5-64.5-68-80-44.5q45-8 90-34t81-69 58.5-100.5 22.5-126.5q0-95-28.5-169t-85.5-125.5-141-78.5-195-27h-474zm450-1188q55 0 99.5 12t76.5 39 49.5 70 17.5 105q0 63-17.5 105.5t-48 69-72 37.5-89.5 11h-239v-449zm59 600q70 21 102.5 80.5t32.5 159.5q0 85-50 132.5t-138 47.5h-229v-420z"/><path transform="translate(7.9775 14.123) scale(.0068359 -.0068359)" d="m64 292q0 83 24 141t70.5 95 113 55.5 152.5 23.5l223 12v80q0 54-9.5 89t-31.5 56-58.5 29.5-90.5 8.5-102.5-12-84.5-26q-43-17-79-38-22 31-35 59.5t-20 51.5q-9 26-12 50 48 24 103 42 48 16 110.5 29t131.5 13q114 0 189-20t119.5-60.5 62-102 17.5-145.5v-558l84-102v-63h-185l-77 89h-36q-5-5-26.5-22.5t-55-37-76-34.5-90.5-15q-75 0-136 22.5t-104.5 64-67 99-23.5 126.5zm218 18q0-46 13-76.5t36.5-48.5 57-25 74.5-7q38 0 71.5 9.5t58.5 21.5q29 13 54 31v269l-201-13q-47-3-78.5-16t-50.5-34-27-49.5-8-61.5z"/><path transform="translate(14.759 14.123) scale(.0068359 -.0068359)" d="m86 46q0 23 4 50 3 23 9.5 52.5t19.5 61.5q44-17 92-30 41-11 89-20.5t95-9.5q42 0 78 3t62.5 16.5 41.5 41 15 76.5q0 59-36.5 93t-126.5 51q-93 18-156.5 48t-103 69.5-57 88.5-17.5 105q0 84 27 143t78.5 95.5 128 53 175.5 16.5q69 0 122.5-9.5t89.5-20.5q42-13 73-30-3-22-11-48-7-22-18.5-50t-30.5-57q-27 16-62 28-30 11-72 19.5t-96 8.5q-42 0-77.5-4t-61-18-39.5-42.5-14-77.5q0-24 6.5-43.5t26-35.5 55-29.5 94.5-26.5q92-20 153.5-46t98-63 52-86.5 15.5-117.5q0-73-23-132t-72-101-126-65-186-23q-70 0-127.5 10t-99.5 23q-49 14-88 33z"/><path transform="translate(20.986 14.123) scale(.0068359 -.0068359)" d="m256 1195q-28 0-52.5 10t-43 27-29.5 39.5-11 48.5q0 27 11 50t29.5 40 43 26.5 52.5 9.5 53-9.5 43.5-26.5 29.5-40 11-50q0-26-11-48.5t-29.5-39.5-43.5-27-53-10zm-115-173h208v-854l59-42v-126h-57l-2 2v-2q-99 0-153.5 40t-54.5 132z"/><path transform="translate(24.548 14.123) scale(.0068359 -.0068359)" d="m79 513q0 132 32 232.5t93.5 168.5 151 102.5 204.5 34.5q42 0 85-8t78-17q40-11 78-25-3-28-9-58-5-26-14.5-56.5t-23.5-59.5q-27 11-58 21-27 8-62 15t-74 7q-67 0-116.5-24.5t-82.5-71-49-112.5-16-148q0-180 69.5-273t204.5-93q40 0 76 6.5t65 14.5q33 10 62 22 10-22 18-48 7-23 12.5-52.5t4.5-63.5q-37-13-77-24-34-9-76.5-16t-84.5-7q-235 0-363 134t-128 399z"/></svg>