<svg width="92.188" height="28.906" viewBox="0 0 92.188 28.906" xmlns="http://www.w3.org/2000/svg"><path transform="translate(0 19.531) scale(.0078125 -.0078125)" d="m771 0h-690v126l163 28v1147l-163 28v127h628q228 0 356.5-98.5t128.5-295.5q0-97-61.5-173.5t-162.5-113.5q89-18 151-70 132-110 132-294 0-200-130-305.5t-352-105.5zm-62 1301h-268v-464h319q106 0 171.5 61.5t65.5 167.5q0 118-74 176.5t-214 58.5zm92-618h-360v-529h330q135 0 209.5 66.5t74.5 188.5q0 86-27 147-28 61-84.5 94t-142.5 33z"/><path transform="translate(10.328 19.531) scale(.0078125 -.0078125)" d="m424-21q-169 0-257 82.5t-88 232.5q0 104 57 180 56 77 163 119t256 42h193v106q0 98-59.5 152t-167.5 54q-68 0-118-16.5t-91-45.5l-21-151h-152v248q147 120 385 120 197 0 309-94t112-269v-521q0-21 0.5-41t2.5-40l105-11v-126h-283q-17 82-21 149-57-73-142.5-121.5t-182.5-48.5zm29 165q98 0 179 47t116 113v196h-200q-136 0-204-65t-68-145q0-146 177-146z"/><path transform="translate(19.172 19.531) scale(.0078125 -.0078125)" d="m456-17q-120 0-190.5 70.5t-70.5 225.5v657h-171v146h171v261h197v-261h235v-146h-235v-657q0-78 31-115t83-37q35 0 78 6.5t67 11.5l27-129q-43-13-105.5-23t-116.5-10z"/><path transform="translate(24.875 19.531) scale(.0078125 -.0078125)" d="m456-17q-120 0-190.5 70.5t-70.5 225.5v657h-171v146h171v261h197v-261h235v-146h-235v-657q0-78 31-115t83-37q35 0 78 6.5t67 11.5l27-129q-43-13-105.5-23t-116.5-10z"/><path transform="translate(30.578 19.531) scale(.0078125 -.0078125)" d="m424-21q-169 0-257 82.5t-88 232.5q0 104 57 180 56 77 163 119t256 42h193v106q0 98-59.5 152t-167.5 54q-68 0-118-16.5t-91-45.5l-21-151h-152v248q147 120 385 120 197 0 309-94t112-269v-521q0-21 0.5-41t2.5-40l105-11v-126h-283q-17 82-21 149-57-73-142.5-121.5t-182.5-48.5zm29 165q98 0 179 47t116 113v196h-200q-136 0-204-65t-68-145q0-146 177-146z"/><path transform="translate(39.422 19.531) scale(.0078125 -.0078125)" d="m434 801v-647l163-28v-126h-523v126l163 28v773l-163 28v127h340l13-141q52 77 134 119t190 42 185.5-50 116.5-150q51 92 135 146t196 54q166 0 262-113.5t96-341.5v-493l163-28v-126h-524v126l163 28v495q0 160-55 226.5t-163 66.5q-103 0-165.5-72.5t-72.5-182.5v-533l163-28v-126h-523v126l163 28v495q0 152-56.5 222.5t-163.5 70.5q-90 0-148-37t-89-104z"/><path transform="translate(54.867 19.531) scale(.0078125 -.0078125)" d="m649-21q-209 0-314 160l-18-139h-170v1405l-163 28v127h360v-606q51 72 126.5 110t176.5 38q135 0 229-72 95-73 145-204t50-305v-21q0-155-50-273-51-117-145.5-182.5t-226.5-65.5zm-50 160q139 0 206.5 99t67.5 262v21q0 126-30 220-30 95-91 148t-155 53q-91 0-153.5-44t-99.5-118v-478q37-75 100.5-119t154.5-44z"/><path transform="translate(63.812 19.531) scale(.0078125 -.0078125)" d="m424-21q-169 0-257 82.5t-88 232.5q0 104 57 180 56 77 163 119t256 42h193v106q0 98-59.5 152t-167.5 54q-68 0-118-16.5t-91-45.5l-21-151h-152v248q147 120 385 120 197 0 309-94t112-269v-521q0-21 0.5-41t2.5-40l105-11v-126h-283q-17 82-21 149-57-73-142.5-121.5t-182.5-48.5zm29 165q98 0 179 47t116 113v196h-200q-136 0-204-65t-68-145q0-146 177-146z"/><path transform="translate(72.656 19.531) scale(.0078125 -.0078125)" d="m434 789v-635l163-28v-126h-523v126l163 28v773l-163 28v127h339l14-161q54 86 135.5 133.5t185.5 47.5q175 0 271-102.5t96-316.5v-529l163-28v-126h-523v126l163 28v525q0 143-56.5 203t-172.5 60q-85 0-150.5-41t-104.5-112z"/><path transform="translate(83.148 19.531) scale(.0078125 -.0078125)" d="m1133 1082v-126l-134-29v-913q0-141-52-241-52-101-153-155.5t-245-54.5q-78 0-169 21.5t-160 58.5l51 153q55-29 130-48t146-19q132 0 193.5 74t61.5 211v103q-108-138-297-138-132 0-228 66-96 65-147.5 182.5t-51.5 272.5v21q0 176 52 305 51 131 147 203.5t230 72.5q201 0 308-156l18 136zm-331-788v498q-38 69-99 109.5t-147 40.5q-94 0-156-54-63-54-94-148.5t-31-218.5v-21q0-163 69-262t210-99q89 0 149 40.5t99 114.5z"/></svg>