<svg width="193.66" height="19.2" viewBox="0 0 193.66 19.2" xmlns="http://www.w3.org/2000/svg"><path transform="translate(0 15.2) scale(.016 -.016)" d="m58 0v700h997q108 0 164.5-48.5t56.5-129.5q0-64-39-104t-122-55v-20q89-8 136-50.5t47-113.5q0-80-56.5-129.5t-154.5-49.5zm310 427h549q19 0 30 11t11 29q0 19-11.5 29.5t-29.5 10.5h-549zm0-234h565q19 0 30 11t11 29q0 19-11.5 29.5t-29.5 10.5h-565z"/><path transform="translate(21.152 15.2) scale(.016 -.016)" d="m58 0v700h997q108 0 164.5-48.5t56.5-129.5q0-64-39-104t-122-55v-20q89-8 136-50.5t47-113.5q0-80-56.5-129.5t-154.5-49.5zm310 427h549q19 0 30 11t11 29q0 19-11.5 29.5t-29.5 10.5h-549zm0-234h565q19 0 30 11t11 29q0 19-11.5 29.5t-29.5 10.5h-565z"/><path transform="translate(42.304 15.2) scale(.016 -.016)" d="M58 0V700H368V471H988V700H1298V0H988V249H368V0Z"/><path transform="translate(68.864 15.2) scale(.016 -.016)" d="m58 0v700h997q108 0 164.5-48.5t56.5-129.5q0-64-39-104t-122-55v-20q89-8 136-50.5t47-113.5q0-80-56.5-129.5t-154.5-49.5zm310 427h549q19 0 30 11t11 29q0 19-11.5 29.5t-29.5 10.5h-549zm0-234h565q19 0 30 11t11 29q0 19-11.5 29.5t-29.5 10.5h-565z"/><path transform="translate(90.016 15.2) scale(.016 -.016)" d="M-6 0 431 700H798L1234 0H901L841 109H390L327 0ZM523 341 489 281H746L713 341L630 511H610Z"/><path transform="translate(109.66 15.2) scale(.016 -.016)" d="m58 0v700h997q107 0 164-47.5t57-130.5q0-64-39-104t-122-55v-20q91-8 137-51.5t46-112.5v-179h-324v169q0 18-11 29t-30 11h-565v-209zm310 399h545q19 0 30 12t11 32q0 22-12 33t-29 11h-545z"/><path transform="translate(130.94 15.2) scale(.016 -.016)" d="M480 0V468H15V700H1255V468H790V0Z"/><path transform="translate(151.26 15.2) scale(.016 -.016)" d="M58 0V700H368V232H1298V0Z"/><path transform="translate(172.27 15.2) scale(.016 -.016)" d="M58 0V700H1298V498H368V436H1190V264H368V202H1298V0Z"/></svg>