<svg width="59.536" height="19.2" viewBox="0 0 59.536 19.2" xmlns="http://www.w3.org/2000/svg"><path transform="translate(0 15.2) scale(.016 -.016)" d="m38 0v700h187q100 0 151.5-45.5t51.5-134.5v-34q0-49-26.5-82t-79.5-45v-16q110-21 110-128v-34q0-89-51.5-135t-151.5-46zm145 416h28q70 0 70 58v33q0 57-70 57h-28zm0-281h32q70 0 70 57v40q0 58-70 58h-32z"/><path transform="translate(7.152 15.2) scale(.016 -.016)" d="m38 0v700h187q100 0 151.5-45.5t51.5-134.5v-34q0-49-26.5-82t-79.5-45v-16q110-21 110-128v-34q0-89-51.5-135t-151.5-46zm145 416h28q70 0 70 58v33q0 57-70 57h-28zm0-281h32q70 0 70 57v40q0 58-70 58h-32z"/><path transform="translate(14.304 15.2) scale(.016 -.016)" d="M38 0V700H183V436H286V700H432V0H286V298H183V0Z"/><path transform="translate(24.064 15.2) scale(.016 -.016)" d="m38 0v700h187q100 0 151.5-45.5t51.5-134.5v-34q0-49-26.5-82t-79.5-45v-16q110-21 110-128v-34q0-89-51.5-135t-151.5-46zm145 416h28q70 0 70 58v33q0 57-70 57h-28zm0-281h32q70 0 70 57v40q0 58-70 58h-32z"/><path transform="translate(31.216 15.2) scale(.016 -.016)" d="m220-16q-58 0-102.5 30.5t-70 84.5-25.5 124v255q0 70 25.5 123.5t70 84 102.5 30.5 102.5-30.5 70-84 25.5-123.5v-255q0-70-25.5-124t-70-84.5-102.5-30.5zm0 140q50 0 50 86v280q0 86-50 86t-50-86v-280q0-86 50-86z"/><path transform="translate(38.256 15.2) scale(.016 -.016)" d="m180-16q-43 0-78.5 22.5t-57 75-21.5 141.5v255q0 70 25 123.5t69.5 84 102.5 30.5 102.5-30.5 69.5-84 25-123.5v-50h-148v66q0 86-50 86t-50-86v-288q0-86 50-86t50 86v42h-60v124h208v-372h-114l3 74h-17q-8-43-35-66.5t-74-23.5z"/><path transform="translate(45.424 15.2) scale(.016 -.016)" d="M38 0V700H184V138H432V0Z"/><path transform="translate(52.384 15.2) scale(.016 -.016)" d="M38 0V700H432V562H184V423H371V284H184V138H432V0Z"/></svg>