<svg width="115.57" height="19.2" viewBox="0 0 115.57 19.2" xmlns="http://www.w3.org/2000/svg"><path transform="translate(0 15.2) scale(.016 -.016)" d="m40 0v700h529q110 0 165.5-48t55.5-126q0-39-17-74.5t-56.5-59.5-107.5-29v-20q106-6 154.5-50.5t48.5-112.5q0-79-56.5-129.5t-154.5-50.5zm276 427h145q19 0 30 11t11 29-11 29-30 11h-145zm0-234h161q19 0 30 11t11 29-11 29-30 11h-161z"/><path transform="translate(13.024 15.2) scale(.016 -.016)" d="m40 0v700h529q110 0 165.5-48t55.5-126q0-39-17-74.5t-56.5-59.5-107.5-29v-20q106-6 154.5-50.5t48.5-112.5q0-79-56.5-129.5t-154.5-50.5zm276 427h145q19 0 30 11t11 29-11 29-30 11h-145zm0-234h161q19 0 30 11t11 29-11 29-30 11h-161z"/><path transform="translate(26.048 15.2) scale(.016 -.016)" d="M40 0V700H320V471H520V700H800V0H520V249H320V0Z"/><path transform="translate(42.208 15.2) scale(.016 -.016)" d="M40 0V700H320V471H520V700H800V0H520V249H320V0Z"/><path transform="translate(55.648 15.2) scale(.016 -.016)" d="m331-16q-93 0-164 31t-111 86.5-40 126.5v44q0 71 40 126t111 86.5 164 31.5q92 0 162.5-31.5t110.5-86.5 40-126v-59h-388q3-29 24.5-48.5t54.5-19.5q26 0 49.5 11.5t38.5 31.5l221-45q-46-77-127.5-118t-185.5-41zm0 371q-27 0-47-16t-26-40h145q-6 24-25.5 40t-46.5 16z"/><path transform="translate(66.208 15.2) scale(.016 -.016)" d="m240 20q-63 0-114 31.5t-80.5 86.5-29.5 126v8q0 72 29.5 127t80.5 86 114 31q58 0 103-28t71-81h8v93h250v-493q0-67-39-117.5t-110.5-78-169.5-27.5q-136 0-218 45t-99 127l239 32q9-20 27-31.5t40-11.5q24 0 47 12.5t23 49.5v116q-26-47-70.5-75t-101.5-28zm103 181q30 0 49.5 18.5t19.5 44.5v8q0 26-19.5 44.5t-49.5 18.5q-28 0-48.5-18.5t-20.5-44.5v-8q0-26 20.5-44.5t48.5-18.5z"/><path transform="translate(77.504 15.2) scale(.016 -.016)" d="m241-16q-63 0-114 31t-80.5 86.5-29.5 126.5v44q0 72 29.5 127t80.5 86 114 31q58 0 103-28t71-81h8v93h250v-500h-250v93h-8q-26-53-71-81t-103-28zm103 181q30 0 49.5 18.5t19.5 44.5v44q0 26-19.5 44.5t-49.5 18.5q-28 0-48.5-18.5t-20.5-44.5v-44q0-26 20.5-44.5t48.5-18.5z"/><path transform="translate(88.816 15.2) scale(.016 -.016)" d="m34 0v500h250v-142h8q15 60 44.5 94.5t68.5 49 80 14.5v-241q-191 30-191-122v-153z"/><path transform="translate(96.8 15.2) scale(.016 -.016)" d="m13 310v190h80v100l260 100v-200h135v-190h-135v-84q0-28 16-40t39-12q19 0 40 6t40 15v-177q-45-17-88.5-25.5t-83.5-8.5q-64 0-114.5 22.5t-79.5 68-29 112.5v123z"/><path transform="translate(104.96 15.2) scale(.016 -.016)" d="m193-216q-32 0-73.5 5.5t-85.5 19.5v168q29-9 58-16.5t55-7.5q17 0 32 4t28 14l-213 529h269l67-218 70 218h270l-224-552q-35-87-98.5-125.5t-154.5-38.5z"/></svg>