<svg width="77.016" height="17.586" viewBox="0 0 77.016 17.586" xmlns="http://www.w3.org/2000/svg"><path transform="translate(0 14.336) scale(.0078125 -.0078125)" d="m126 1360q0 42 41 42h405q88 0 180.5-15t171-53.5 127-108 48.5-177.5q0-98-41.5-171.5t-121.5-127.5q-3-2-7-4.5t-4-7.5q0-4 4.5-7t7.5-5q102-51 171-126t69-197q0-115-48-192.5t-127.5-123.5-176-66-193.5-20h-466q-41 0-41 42 0 56 2 112.5t3 112.5q3 225 3 450 0 210-3 420-1 56-2.5 112t-1.5 111zm257-544h233q55 0 106.5 18.5t84.5 58.5 33 102q0 69-41 104.5t-100 48.5-114 13h-203q1-86 1-172.5t0-172.5zm-1-583h244q42 0 92 7t95.5 26 75 53.5 29.5 88.5q0 56-33 89.5t-83.5 50.5-104.5 22.5-95 5.5h-219q0-85 0-171t-1-172z"/><path transform="translate(9.7734 14.336) scale(.0078125 -.0078125)" d="m541-24q-146 0-254.5 58t-168.5 165-60 254q0 137 57 246t161 172.5 244 63.5q173 0 271.5-97t133.5-258q1-3 1-10 0-15-7.5-22.5t-19.5-12.5q-34-16-72-28t-74-26q-105-39-211-76.5t-210-79.5q-8-4-8-10 0-3 2-7 40-72 110-107t150-35q63 0 117.5 20t107.5 50q7 4 14 7t14 3q14 0 21.5-8.5t12.5-19.5q4-7 15.5-31.5t22-49 10.5-31.5q0-11-6-18t-14-13q-71-49-172.5-74t-187.5-25zm-251 487q101 35 202 70t201 70q-25 55-69.5 96t-109.5 41q-76 0-126-41t-74-104.5-24-131.5z"/><path transform="translate(17.484 14.336) scale(.0078125 -.0078125)" d="m106 1401q0 41 41 41h158q41 0 41-41 0-170-1-340t-1-340 1-340 1-340q0-41-41-41h-158q-41 0-41 41 0 170 1 340t1 340-1 340-1 340z"/><path transform="translate(21.008 14.336) scale(.0078125 -.0078125)" d="m453-19q-130 0-218 62t-132.5 164.5-44.5 222.5v16q2 126 52.5 237t146.5 179.5 232 68.5q84 0 156.5-31.5t135.5-85.5q7-7 12-7 12 0 11.5 25t7 50 39.5 25h141q41 0 41-41 0-43-0.5-86t-0.5-86q0-110 1.5-221t2.5-221q1-52 2.5-104.5t1.5-105.5q0-42-41-42h-157q-27 0-35 17.5t-7 41.5 0 43q0 3-1 10t-6 7q-4 0-7.5-3t-6.5-5q-70-59-151-94.5t-175-35.5zm102 213q71 0 131.5 29.5t94.5 93.5q2 4 9.5 20.5t7.5 20.5q0 35-0.5 70t-0.5 69q0 16 1 35.5t-1 34.5q-1 7-7.5 21t-9.5 20q-35 63-99 94t-134 31q-74 0-130-37t-87.5-97.5-31.5-132.5 33-134 91.5-100 132.5-38z"/><path transform="translate(29.875 14.336) scale(.0078125 -.0078125)" d="m278 907q37 0 41-36 3-20 5-40t4-40q0-2 2-11.5t7-9.5 9.5 6 6.5 9q60 77 146 111t181 34q78 0 143.5-32.5t105.5-92 40-141.5q0-155 3.5-311t3.5-311q0-42-41-42h-157q-38 0-41 41-3 43-2 86.5t0 86.5q-1 92-1 183t0 182q0 71-41 106.5t-109 35.5q-85 0-139.5-52t-81-128-26.5-149q0-88-1-175.5t-2-175.5q0-41-41-41h-157q-41 0-41 42 0 56 1.5 111.5t2.5 110.5q3 234 3 468v134q0 41 41 41z"/><path transform="translate(38.242 14.336) scale(.0078125 -.0078125)" d="m58 449q0 139 59.5 248t166.5 172.5 247 63.5q138 0 241-62.5t160.5-170.5 57.5-243q0-139-57-246.5t-160.5-168.5-245.5-61q-141 0-246.5 58.5t-164 163.5-58.5 246zm468 282q-76 0-127-40.5t-77-103.5-26-132q0-65 27.5-125t78.5-98 121-38q76 0 126.5 38.5t76 99.5 25.5 130q0 67-25.5 128.5t-75.5 101-124 39.5z"/><path transform="translate(46.422 14.336) scale(.0078125 -.0078125)" d="m285-26q-57 0-119 21t-103 63q-12 12-12 26 0 6 6.5 30.5t14.5 50.5 10 34q4 12 11 23.5t22 11.5q19 0 59-25t92-25q91 0 91 88 0 57-36.5 79t-78.5 44q-84 45-128 110t-44 162q0 123 72.5 192t193.5 69q15 0 46.5-4t65.5-12.5 58-23 24-34.5q0-19-8-41.5t-13-41.5q-4-13-11-25t-24-12q-21 0-45 11t-52 11q-38 0-67-22.5t-29-63.5q0-47 28.5-73t70.5-46 84-49 70.5-80.5 28.5-141.5q0-128-71.5-217t-206.5-89z"/><path transform="translate(51.203 14.336) scale(.0078125 -.0078125)" d="m92 1248q0 55 41 94.5t96 39.5q56 0 98.5-40.5t42.5-97.5q0-55-40.5-95.5t-96.5-40.5q-57 0-99 41.5t-42 98.5zm15-603v221q0 41 41 41h154q41 0 41-41 0-206 1-412.5t1-412.5q0-41-41-41h-158q-41 0-41 41 0 151 1 302t1 302z"/><path transform="translate(54.727 14.336) scale(.0078125 -.0078125)" d="m148 907h136q34 0 40-36 2-8 4-32t5.5-45 9.5-21q5 0 9 4.5t6 7.5q66 79 151.5 112.5t186.5 33.5q82 0 159.5-30t114.5-110q2-3 4-8t7-5q4 0 7 3.5t5 5.5q62 68 144 105.5t174 37.5q122 0 210.5-67.5t88.5-198.5q0-105 2-210.5t4-210.5q2-50 4.5-100.5t2.5-100.5q0-42-41-42h-156q-22 0-30.5 10t-10.5 30q-4 42-3 85.5t-1 85.5q-1 90-2.5 180t-1.5 180q0 70-33.5 109.5t-105.5 39.5q-83 0-141-51t-88.5-126.5-30.5-148.5q0-88 1-176t1-177q0-41-41-41h-158q-41 0-41 41 0 133 2 265t0 265q-1 67-33.5 108t-103.5 41q-85 0-143-50.5t-88-126.5-32-151q-1-61-2-122t-3-123q0-26 0.5-53.5t-2.5-53.5q-2-20-10.5-30t-30.5-10h-157q-41 0-41 43 0 52 2.5 103.5t3.5 103.5q6 219 6 437 0 41-2 90t1 89q3 41 41 41z"/><path transform="translate(68.148 14.336) scale(.0078125 -.0078125)" d="m453-19q-130 0-218 62t-132.5 164.5-44.5 222.5v16q2 126 52.5 237t146.5 179.5 232 68.5q84 0 156.5-31.5t135.5-85.5q7-7 12-7 12 0 11.5 25t7 50 39.5 25h141q41 0 41-41 0-43-0.5-86t-0.5-86q0-110 1.5-221t2.5-221q1-52 2.5-104.5t1.5-105.5q0-42-41-42h-157q-27 0-35 17.5t-7 41.5 0 43q0 3-1 10t-6 7q-4 0-7.5-3t-6.5-5q-70-59-151-94.5t-175-35.5zm102 213q71 0 131.5 29.5t94.5 93.5q2 4 9.5 20.5t7.5 20.5q0 35-0.5 70t-0.5 69q0 16 1 35.5t-1 34.5q-1 7-7.5 21t-9.5 20q-35 63-99 94t-134 31q-74 0-130-37t-87.5-97.5-31.5-132.5 33-134 91.5-100 132.5-38z"/></svg>