<svg width="71.152" height="20.288" viewBox="0 0 71.152 20.288" xmlns="http://www.w3.org/2000/svg"><path transform="translate(0 15.84) scale(.016 -.016)" d="m398 0h-347v44l91 33v552l-91 33v44h293q134 0 198-78 36-44 36-108 0-94-64-143 118-43 118-174 0-54-22-95t-58-64q-70-44-154-44zm-155 75h108q92 0 137.5 28t45.5 97-39 99-100 30h-152zm1 320h97q139 0 139 124 0 64-46 88t-137 24h-53z"/><path transform="translate(10.928 15.84) scale(.016 -.016)" d="m301-10q-113 0-183.5 64.5t-70.5 188.5 72 196.5 168 72.5q228 0 228-270h-371v-5q0-71 50-120t136-49q37 0 70 8.5t48 17.5l14 8 29-52q-3-2-8.5-6.5t-23.5-14.5-39-18q-53-21-119-21zm-153 316h274q-5 62-40.5 94.5t-92 32.5-93.5-31.5-48-95.5z"/><path transform="translate(19.808 15.84) scale(.016 -.016)" d="m292 0h-263v43l84 33v617h-84v60q39 19 90.5 19t69.5-24.5 18-74.5v-597l85-33z"/><path transform="translate(24.928 15.84) scale(.016 -.016)" d="m503 323q0-84-64.5-135t-155.5-51q-50 0-95 17l-46-83h194q107 0 155-41t48-120-69-134-193-55-188 48-64 121.5 72 105.5q-42 14-42 60l4 25q57 87 69 107-65 52-65 135.5t65 136 155 52.5q57 0 110-24l175 23-3-87-101 9q39-47 39-110zm-390-422q0-46 42.5-73.5t119.5-27.5 122.5 29 45.5 80q0 82-105 82l-178-1q-47-26-47-89zm170 311q62 0 97 33t35 79-35 80-97.5 34-96.5-33.5-34-80 34.5-79.5 96.5-33z"/><path transform="translate(34.352 15.84) scale(.016 -.016)" d="m304 0h-263v43l84 33v357h-84v60q39 19 88 19t68-21 21-62q10 30 41 54 37 29 98 29 27 0 51.5-7t35.5-14l12-7v-118h-60l-13 60q-6 6-33 6t-52-7.5-39-18.5q-28-24-40-49v-281l85-33z"/><path transform="translate(41.984 15.84) scale(.016 -.016)" d="m542 68v-60q-39-19-86-19t-67.5 18-23.5 52q-55-70-144.5-70t-135.5 36-46 101q0 125 174 144l151 16v29q0 58-24 88t-76 30q-96 0-156-21l-20-7-18 64q28 16 85 29.5t106 13.5q107 0 152-42.5t45-119.5v-282zm-314 0q83 0 136 45v108l-146-16q-38-5-60.5-23t-22.5-48.5 24.5-48 68.5-17.5z"/><path transform="translate(50.976 15.84) scale(.016 -.016)" d="m639 0h-263v43l80 33v239q0 59-19.5 88t-70.5 29q-82 0-147-65v-291l85-33v-43h-263v43l84 33v357h-84v60q39 19 89 19t68.5-22 20.5-66q14 18 42 41 59 47 135 47t115-43.5 39-118.5v-274l89-33z"/><path transform="translate(61.456 15.84) scale(.016 -.016)" d="m487 61.5q-73-72.5-184-72.5t-184 72.5-73 188.5 73 189 184 73 184-73 73-189-73-188.5zm-299 55q45-48.5 115-48.5t115 48.5 45 130.5-45.5 134-114.5 52-114.5-52-45.5-134 45-130.5z"/></svg>