<svg width="82.176" height="20.128" viewBox="0 0 82.176 20.128" xmlns="http://www.w3.org/2000/svg"><path transform="translate(0 15.488) scale(.016 -.016)" d="m553 185q0-62-34.5-111t-99.5-70q-43-14-117-14-106 0-150 5l-52 6v694h220q46 0 82-13 57-20 88.5-64t31.5-104q0-46-18.5-81t-57.5-54q-10-5-30-11 25-6 32-10 49-30 77-74t28-99zm-393 454v-249h159q64 0 103.5 33t39.5 95q0 55-33.5 85.5t-94.5 35.5zm333-454q0 66-44 108t-123 42h-166v-285l85-3 67-2q85 0 133 36t48 104z"/><path transform="translate(9.744 15.488) scale(.016 -.016)" d="m269 43q43 0 79.5 11t79.5 36l26-42q-40-27-89-43t-100-16q-105 0-163.5 67.5t-58.5 177.5q0 71 26 133.5t77 101.5 120 39q58 0 105.5-27.5t75-75 27.5-105.5q0-16-1-28.5t-2-21.5l-2-21h-366q1-70 34-128t132-58zm144 240q1 7 1 20 0 42-20 76.5t-54 54.5-75 20q-61 0-104.5-44.5t-54.5-126.5z"/><path transform="translate(17.984 15.488) scale(.016 -.016)" d="M80 726H140V0H80Z"/><path transform="translate(21.504 15.488) scale(.016 -.016)" d="M80 726H140V0H80Z"/><path transform="translate(25.024 15.488) scale(.016 -.016)" d="m46 249q0 75 31.5 134.5t87 93 126.5 33.5q70 0 125.5-33.5t87-92.5 31.5-134-31.5-134-87-92.5-126.5-33.5-126.5 33-86.5 92-31 134zm429 1q0 61-23 107.5t-65 72.5-96 26q-55 0-97-26t-65-73.5-23-107.5 23-106.5 65-72.5 97-26q83 0 133.5 57t50.5 149z"/><path transform="translate(34.32 15.488) scale(.016 -.016)" d="m72 144v481h60v-125h157v-54h-157v-302q0-63 23.5-83.5t58.5-20.5q21 0 35 2.5t31 12.5l27-46q-37-23-92-23-72 0-107.5 38t-35.5 120z"/><path transform="translate(39.632 15.488) scale(.016 -.016)" d="m365 72q-20-39-59.5-60.5t-95.5-21.5q-79 0-126.5 42t-47.5 114q0 76 53.5 118t151.5 42h116v36q0 60-26 89t-80 29q-40 0-82-14.5t-75-39.5l-27 44q37 31 85.5 47.5t99.5 16.5q81 0 123-41.5t42-119.5v-209q0-77 39-119l-39-33q-19 15-30.5 33t-21.5 47zm-8 105v75h-102q-85 0-122-24.5t-37-80.5q0-50 30-76.5t85-26.5q67 0 106.5 37t39.5 96z"/><path transform="translate(52.032 15.488) scale(.016 -.016)" d="M267 628H33V684H561V628H327V0H267Z"/><path transform="translate(61.536 15.488) scale(.016 -.016)" d="m269 43q43 0 79.5 11t79.5 36l26-42q-40-27-89-43t-100-16q-105 0-163.5 67.5t-58.5 177.5q0 71 26 133.5t77 101.5 120 39q58 0 105.5-27.5t75-75 27.5-105.5q0-16-1-28.5t-2-21.5l-2-21h-366q1-70 34-128t132-58zm144 240q1 7 1 20 0 42-20 76.5t-54 54.5-75 20q-61 0-104.5-44.5t-54.5-126.5z"/><path transform="translate(69.776 15.488) scale(.016 -.016)" d="m333 24-112 182-129-206h-65l158 250-160 250h67l129-206 125 206h66l-153-248 122-198q10-16 34-16l2-57q-28 0-47.5 10.5t-36.5 32.5z"/><path transform="translate(76.864 15.488) scale(.016 -.016)" d="m72 144v481h60v-125h157v-54h-157v-302q0-63 23.5-83.5t58.5-20.5q21 0 35 2.5t31 12.5l27-46q-37-23-92-23-72 0-107.5 38t-35.5 120z"/></svg>