<svg width="48.64" height="18.336" viewBox="0 0 48.64 18.336" xmlns="http://www.w3.org/2000/svg"><path transform="translate(0 13.904) scale(.016 -.016)" d="m250 0h-165q13 3 28 22.5t15 75.5v495q0 52-14 71.5t-28 23.5h164q64 0 97.5-5.5t58.5-16.5q44-21 68-59t24-82q0-67-40.5-115.5t-106.5-62.5q45-5 85.5-26t66-57 25.5-82q0-64-34-104.5t-92-60.5q-26-9-59.5-13t-92.5-4zm19 648h-69v-284h81q36 0 60 11t42 29q19 19 30 46t11 55q0 34-12.5 64t-37.5 49q-20 15-43 22.5t-62 7.5zm3-324h-72v-284h95q72 0 112.5 34t40.5 108q0 69-53 113-19 15-47 22t-76 7z"/><path transform="translate(9.472 13.904) scale(.016 -.016)" d="m40 174q0 62 24.5 107t63.5 68 81 23q60 0 103.5-43.5t47.5-120.5h-260q0-48 18-84.5t48.5-56 66.5-19.5q94 0 127 60-9-54-49-87t-98-33q-54 0-93 26.5t-59.5 69-20.5 90.5zm61 66h182q0 46-24.5 72.5t-56.5 26.5q-39 0-67-27.5t-34-71.5z"/><path transform="translate(15.872 13.904) scale(.016 -.016)" d="m36 688h-6l114 52v-640q0-44 9-66t20-29.5 11-4.5h-144q0-3 11 4.5t20 30 9 65.5v515q0 42-13.5 57.5t-30.5 15.5z"/><path transform="translate(19.456 13.904) scale(.016 -.016)" d="m36 688h-6l114 52v-640q0-44 9-66t20-29.5 11-4.5h-144q0-3 11 4.5t20 30 9 65.5v515q0 42-13.5 57.5t-30.5 15.5z"/><path transform="translate(23.04 13.904) scale(.016 -.016)" d="m40 174q0 62 24.5 107t63.5 68 81 23q60 0 103.5-43.5t47.5-120.5h-260q0-48 18-84.5t48.5-56 66.5-19.5q94 0 127 60-9-54-49-87t-98-33q-54 0-93 26.5t-59.5 69-20.5 90.5zm61 66h182q0 46-24.5 72.5t-56.5 26.5q-39 0-67-27.5t-34-71.5z"/><path transform="translate(29.44 13.904) scale(.016 -.016)" d="m240 692q-50 0-73-35.5t-23-91.5v-201h104v-40h-104v-224q0-43 9-65.5t20-30 11-4.5h-145q0-3 11.5 4.5t20.5 30 9 65.5v224h-56v40h56v139q0 70 23.5 123.5t66 83.5 97.5 30q43 0 68-9v-78q-18 18-43.5 28.5t-51.5 10.5z"/><path transform="translate(33.536 13.904) scale(.016 -.016)" d="m262 42q-18-26-47.5-40t-58.5-14q-46 0-77 26.5t-31 69.5q0 111 208 111v11q0 55-16 81-22 37-72 37-39 0-64.5-23t-25.5-60q-6 10-9.5 18t-3.5 22q0 36 34 63.5t89 27.5q78 0 111-52 11-16 16-40t5-63v-119q0-31 17.5-48t49.5-17h13l-59-45q-32 1-54 17t-25 37zm-142 49q0-28 15-44t40-16q19 0 36 9t29 25q16 21 16 57v43q-80 0-108-20t-28-54z"/><path transform="translate(39.936 13.904) scale(.016 -.016)" d="m36 324 108 48v-272q0-44 9-66t20-29.5 11-4.5h-144q0-3 11 4.5t20 29.5 9 66v151q0 42-13.5 57.5t-30.5 15.5zm28 217q0 19 12.5 33.5t34.5 14.5 34.5-14.5 12.5-33.5-12.5-33.5-34.5-14.5-34.5 14.5-12.5 33.5z"/><path transform="translate(43.52 13.904) scale(.016 -.016)" d="m263 372q22 0 33-6v-82q-22 27-62 27-42 0-66-36.5t-24-93.5v-81q0-56 13-77t25-23h-141q12 2 25.5 22.5t13.5 77.5v151q0 42-13.5 57.5t-30.5 15.5l108 48v-91q15 32 49.5 61.5t69.5 29.5z"/></svg>