<svg width="47.008" height="18.432" viewBox="0 0 47.008 18.432" xmlns="http://www.w3.org/2000/svg"><path transform="translate(0 14.848) scale(.016 -.016)" d="m90 0v662h189q73 0 129.5-16.5t89-50.5 32.5-89-39-96-107-61q95-18 139.5-63.5t44.5-99.5q0-51-26.5-87t-68.5-57.5-88.5-31.5-86.5-10zm97 359h72q66 0 103 20.5t52 53.5 15 68q0 38-26 72.5t-86 52.5q-28 0-66-6t-64-14zm91-324q46 0 87 15.5t66.5 47.5 25.5 80q0 42-26 76.5t-70 55-98 20.5h-76v-285q14-4 40.5-7t50.5-3z"/><path transform="translate(10.304 14.848) scale(.016 -.016)" d="m243-12q-62 0-111.5 26t-77.5 76-28 122q0 83 32 139t84 84.5 111 28.5q47 0 85.5-24.5t62-73 23.5-120.5h-319q0-78 24.5-122.5t64-62.5 82.5-18q39 0 69 8t55 19v-35q-31-18-71-32.5t-86-14.5zm-134 288h234q-3 45-19.5 73t-39 42.5-45 20-37.5 5.5q-34-16-59.5-53.5t-33.5-87.5z"/><path transform="translate(17.808 14.848) scale(.016 -.016)" d="M75 0V683H159V0Z"/><path transform="translate(21.552 14.848) scale(.016 -.016)" d="M75 0V683H159V0Z"/><path transform="translate(25.296 14.848) scale(.016 -.016)" d="m243-12q-62 0-111.5 26t-77.5 76-28 122q0 83 32 139t84 84.5 111 28.5q47 0 85.5-24.5t62-73 23.5-120.5h-319q0-78 24.5-122.5t64-62.5 82.5-18q39 0 69 8t55 19v-35q-31-18-71-32.5t-86-14.5zm-134 288h234q-3 45-19.5 73t-39 42.5-45 20-37.5 5.5q-34-16-59.5-53.5t-33.5-87.5z"/><path transform="translate(32.8 14.848) scale(.016 -.016)" d="m45 0v30l267 389-246-9-10 42h347v-28l-266-388 269 11 10-47z"/><path transform="translate(39.904 14.848) scale(.016 -.016)" d="m367-13-81 73q-36-33-70.5-52.5t-75.5-19.5-74 27-33 77q0 39 26 65.5t66 42.5 83 24 77 10v94q0 83-96 83-25 0-57.5-5.5t-72.5-18.5l-9 25q11 9 37 21t60 21.5 69 9.5q57 0 88-16.5t44-42 16-53 3-49.5v-170q0-34 9.5-56t22-34 20.5-18zm-189 47q24 5 48.5 19.5t41.5 30 17 22.5v103q-75-5-119.5-32.5t-44.5-58.5 16.5-53.5 40.5-30.5z"/></svg>