<svg width="99.777" height="17.391" viewBox="0 0 99.777 17.391" xmlns="http://www.w3.org/2000/svg"><path transform="translate(0 13.72) scale(.0068359 -.0068359)" d="m842 178q0-23 4.5-43.5t18-35.5 37-24 61.5-9q55 0 101 31.5t79 81 51 111 18 122.5q0 91-24.5 160.5t-68.5 117.5-104 74.5-130 30.5l20 51q44-2 84 12t70.5 49 48.5 94.5 18 149.5q0 61-15 110t-39.5 82.5-57 51.5-66.5 18q-21 0-40.5-5t-34-17-23-31.5-8.5-48.5zm20 1317q290 0 426.5-90.5t136.5-263.5q0-43-9.5-79t-24.5-65.5-34-52.5-39-40q-47-41-106-64v-15q93-11 167-56 31-19 61-47.5t53.5-69 38-94 14.5-122.5q0-105-38-189t-113-142.5-187-89.5-260-31q-137 0-223 17t-134 49.5-65.5 78.5-17.5 104v1094q0 55-76 55-55 0-111.5-16.5t-102-45-74.5-68-29-85.5q0-32 8.5-51t19.5-28.5 22.5-12 16.5-2.5q25 0 41 8.5t29 18 24.5 18 26.5 8.5q12 0 25.5-5.5t25-17.5 19.5-31.5 8-47.5q0-40-15.5-69t-40-48.5-56-29-62.5-9.5q-48 0-86.5 16.5t-65.5 45.5-41 68-14 83q0 83 31 146.5t87.5 109.5 135.5 76.5 175 48.5 205.5 25.5 227.5 7.5z"/><path transform="translate(10.992 13.72) scale(.0068359 -.0068359)" d="m383 459q0-32 9.5-69.5t27.5-75.5 44.5-72.5 61-61.5 76.5-43 92-16q35 0 65 8t56 22 50 32.5 48 39.5l25-24q-23-31-59-68t-87-69.5-119-54-155-21.5-169.5 31.5-146.5 94.5-102.5 157-38.5 220q0 91 23 167t62.5 137 92 107 110.5 76.5 118.5 46 116.5 15.5q74 0 129-16t91.5-43 54.5-62.5 18-74.5q0-47-27-84.5t-72-65.5zm201 203q13 8 21.5 15.5t13.5 18 7.5 26 2.5 38.5q0 25-5.5 55.5t-18.5 57.5-33 45-48 18q-36 0-61.5-21.5t-42-55.5-26-77.5-14.5-87.5-6-84.5-1-68.5z"/><path transform="translate(17.473 13.72) scale(.0068359 -.0068359)" d="m444 827q38 58 81 105 18 20 39 39t43.5 34 46.5 24 48 9q51 0 80-30.5t29-85.5q0-34-5.5-65.5t-21.5-76.5h-28q-6 31-28 51.5t-64 20.5q-31 0-61-11.5t-58.5-28.5-54-37-46.5-38v-649q0-13-4-31t-19.5-34-46-27.5-83.5-11.5-83.5 12.5-46.5 29.5-20 35-4 29v772q0 29-13.5 50.5t-45.5 21.5q-17 0-29-6t-26-17l-21 25q23 19 51.5 37.5t61.5 32.5 71 23 80 9q43 0 73.5-11.5t50-30 30.5-41.5 16.5-46.5 6.5-45 1-36.5z"/><path transform="translate(23.03 13.72) scale(.0068359 -.0068359)" d="m434 766q35 47 75 95.5t86 87.5 100 64 118 25q57 0 95-22.5t61.5-54 33-65.5 9.5-58q0-44-11.5-91.5t-39-94-73.5-90-116-79.5q94-199 183-342.5t171.5-236 158.5-136.5 145-44q12 0 24 3t22 7q11 4 23 10l19-35q-27-15-55-28.5t-64-23.5-83-16-112-6q-59 0-116.5 14t-115.5 50-117.5 96-122 152-128.5 219-137 297q96 71 151 131.5t83 109.5 35 87 7 65q0 4-1 13.5t-6.5 18.5-16 16-29.5 7q-37 0-75-31.5t-72.5-78-62.5-100-46-97.5v-516q0-13-4.5-31t-21-34-48-27.5-84.5-11.5-83 12.5-44.5 29.5-18 35-3.5 29v1290q0 29-13.5 50.5t-45.5 21.5q-17 0-29.5-5.5t-26.5-16.5l-20 24q23 19 51 37.5t61.5 32.5 71.5 23 80 9q65 0 101-17.5t53-43 20.5-54 3.5-50.5z"/><path transform="translate(30.461 13.72) scale(.0068359 -.0068359)" d="m446 958q-23 0-43.5-6t-36.5-19.5-25-34-9-48.5q0-39 28.5-77.5t71-80 92-86 92-94 71-105.5 28.5-120q0-72-24.5-128t-70-95-110-59.5-143.5-20.5q-69 0-125 19.5t-99.5 48-74.5 60.5-48 58l35 25q13-15 33-32.5t44.5-32.5 52.5-24.5 57-9.5q72 0 118 34.5t46 102.5q0 38-25 78.5t-63 83.5-82 89-82 95-63 101-25 108q0 63 25.5 110t68 78 97 46.5 112.5 15.5q67 0 122-12t94.5-36.5 61-61.5 21.5-86q0-38-25-66t-70-28q-43 0-65.5 18.5t-22.5 50.5q0 21 10.5 33t23.5 19.5 23.5 13 10.5 14.5q0 28-30 44.5t-77 16.5z"/><path transform="translate(35.766 13.72) scale(.0068359 -.0068359)" d="m434 848q37 53 84 95 19 18 42.5 35t50 30.5 56 21.5 60.5 8q67 0 120-26t89-87 55-161.5 19-249.5q0-145-26-252t-68-182-95-122.5-107-74.5-104-37.5-86-11.5l-10 41q45 11 80 41t59 98.5 36.5 184.5 12.5 299q0 126-11.5 201.5t-30 115-42 52-47.5 12.5q-29 0-51-15.5t-38.5-35.5-28-40-19.5-30v-668q0-13-4-31.5t-19.5-35-46-28-83.5-11.5-84 12.5-46.5 29.5-19.5 35-4 29v1290q0 29-13.5 50.5t-45.5 21.5q-17 0-29.5-5.5t-26.5-16.5l-20 24q23 19 51 37.5t61.5 32.5 71.5 23 80 9q65 0 101-17.5t53-43 20.5-54 3.5-50.5z"/><path transform="translate(43.23 13.72) scale(.0068359 -.0068359)" d="m444 90q0-13-4.5-31.5t-21-35-47.5-28-84-11.5-83 12.5-45 29.5-18.5 35-3.5 29v772q0 29-13.5 50.5t-45.5 21.5q-17 0-29-6t-26-17l-21 25q23 19 51.5 37.5t61.5 32.5 71 23 80 9q65 0 101-17.5t53-43 20.5-54.5 3.5-51zm-338 1176q0 28 12.5 53.5t35 44.5 52 30 64.5 11q34 0 63.5-11t51.5-30 34.5-44.5 12.5-53.5q0-29-12.5-54t-34.5-43.5-51.5-29.5-63.5-11q-35 0-64.5 11t-52 29.5-35 43.5-12.5 54z"/><path transform="translate(47.134 13.72) scale(.0068359 -.0068359)" d="m444 827q38 58 81 105 18 20 39 39t43.5 34 46.5 24 48 9q51 0 80-30.5t29-85.5q0-34-5.5-65.5t-21.5-76.5h-28q-6 31-28 51.5t-64 20.5q-31 0-61-11.5t-58.5-28.5-54-37-46.5-38v-649q0-13-4-31t-19.5-34-46-27.5-83.5-11.5-83.5 12.5-46.5 29.5-20 35-4 29v772q0 29-13.5 50.5t-45.5 21.5q-17 0-29-6t-26-17l-21 25q23 19 51.5 37.5t61.5 32.5 71 23 80 9q43 0 73.5-11.5t50-30 30.5-41.5 16.5-46.5 6.5-45 1-36.5z"/><path transform="translate(52.691 13.72) scale(.0068359 -.0068359)" d="m383 459q0-32 9.5-69.5t27.5-75.5 44.5-72.5 61-61.5 76.5-43 92-16q35 0 65 8t56 22 50 32.5 48 39.5l25-24q-23-31-59-68t-87-69.5-119-54-155-21.5-169.5 31.5-146.5 94.5-102.5 157-38.5 220q0 91 23 167t62.5 137 92 107 110.5 76.5 118.5 46 116.5 15.5q74 0 129-16t91.5-43 54.5-62.5 18-74.5q0-47-27-84.5t-72-65.5zm201 203q13 8 21.5 15.5t13.5 18 7.5 26 2.5 38.5q0 25-5.5 55.5t-18.5 57.5-33 45-48 18q-36 0-61.5-21.5t-42-55.5-26-77.5-14.5-87.5-6-84.5-1-68.5z"/><path transform="translate(62.323 13.72) scale(.0068359 -.0068359)" d="m436-145q40 0 79 14.5t69.5 48 49.5 87.5 19 132q0 84-41.5 163t-104 155.5-135 152-135 154-104 162-41.5 174.5 33.5 164.5 91 125 134 79.5 163.5 28q93 0 165.5-19.5t123-53 76.5-79 26-96.5q0-24-7-49.5t-22-46.5-38-35-54-14q-37 0-54.5 22.5t-26 55.5-14.5 72.5-19 72.5-39 55.5-76 22.5q-27 0-53.5-12t-48-36.5-34.5-62.5-13-90q0-60 25-117t66-112.5 93.5-111 107-112 107-116 93.5-123.5 66-134 25-147q0-113-43.5-201.5t-118-149-174.5-92.5-213-32q-102 0-180.5 25.5t-132.5 67.5-81.5 95.5-27.5 110.5q0 24 7.5 51.5t22 50.5 36.5 38.5 51 15.5q30 0 48.5-15t29.5-40 18-57 15-65 20-65 33-57 54-40 83-15z"/><path transform="translate(69.521 13.72) scale(.0068359 -.0068359)" d="m1343 721q0 66-9 109t-19.5 71.5-19.5 47-9 34.5q0 15 12 25t28.5 17 34 10 28.5 3q29 0 42-8t21-31q9-29 12.5-76.5t3.5-101.5q0-77-9-169t-28.5-185-50-180-73.5-154.5-99-108-127-40.5q-56 0-100.5 22.5t-79.5 61.5-61.5 91.5-46.5 112.5q-23-61-53-113.5t-66.5-91.5-80.5-61-95-22q-63 0-111.5 27.5t-85.5 75-64 110.5-46.5 133-32.5 144-22 143-15 129-12 104q-7 40-20.5 62t-45.5 22q-17 0-29-6t-26-17l-21 25q23 19 51.5 37.5t61.5 32.5 71 23 80 9q60 0 97-20.5t58.5-51 30.5-65.5 13-63q18-151 35.5-266t37.5-192.5 43.5-117 55.5-39.5q21 0 41 18t38 50 34 77.5 28 100.5q-10 55-17 109t-12.5 103.5-10.5 92.5-11 76q-15 94 17.5 141t130.5 47q43 0 72.5-7.5t49-28 31.5-56 19-90.5q19-150 37-268t38-199 43.5-123.5 55.5-42.5q34 0 63 42t50 111 32.5 159 11.5 186z"/><path transform="translate(80.035 13.72) scale(.0068359 -.0068359)" d="m575 518q0 25-16 38t-41 13q-35 0-66.5-16t-55.5-47-38-76.5-14-105.5q0-58 8.5-96t23-60.5 33.5-31.5 40-9q26 0 49 13.5t40 34.5 27 47 10 52zm-159 438q-34 0-63-8t-50-20-33-26.5-12-27.5q0-15 15.5-21.5t34.5-15 34.5-24 15.5-47.5q0-21-8.5-38.5t-23-31-34-21-40.5-7.5q-56 0-90.5 38t-34.5 101q0 61 32 104.5t83.5 71.5 116.5 41.5 130 13.5q78 0 149-17t125.5-54 87-94 32.5-138v-565q0-9 1-20t5-20 12-15 23-6q18 0 33.5 13.5t27.5 27.5l25-21q-15-21-36-46t-51-47-70-37-91-15q-63 0-112 37.5t-64 115.5q-32-43-66.5-72t-70.5-47-72.5-26-73.5-8q-48 0-93 15t-80.5 47.5-57 84.5-21.5 127q0 91 36 149t94.5 97.5 133 67.5 152.5 59q58 23 84.5 68.5t26.5 93.5q0 74-43.5 118.5t-118.5 44.5z"/><path transform="translate(87.008 13.72) scale(.0068359 -.0068359)" d="m446 958q-23 0-43.5-6t-36.5-19.5-25-34-9-48.5q0-39 28.5-77.5t71-80 92-86 92-94 71-105.5 28.5-120q0-72-24.5-128t-70-95-110-59.5-143.5-20.5q-69 0-125 19.5t-99.5 48-74.5 60.5-48 58l35 25q13-15 33-32.5t44.5-32.5 52.5-24.5 57-9.5q72 0 118 34.5t46 102.5q0 38-25 78.5t-63 83.5-82 89-82 95-63 101-25 108q0 63 25.5 110t68 78 97 46.5 112.5 15.5q67 0 122-12t94.5-36.5 61-61.5 21.5-86q0-38-25-66t-70-28q-43 0-65.5 18.5t-22.5 50.5q0 21 10.5 33t23.5 19.5 23.5 13 10.5 14.5q0 28-30 44.5t-77 16.5z"/><path transform="translate(92.312 13.72) scale(.0068359 -.0068359)" d="m434 848q37 53 84 95 19 18 42.5 35t50 30.5 56 21.5 60.5 8q67 0 120-26t89-87 55-161.5 19-249.5q0-145-26-252t-68-182-95-122.5-107-74.5-104-37.5-86-11.5l-10 41q45 11 80 41t59 98.5 36.5 184.5 12.5 299q0 126-11.5 201.5t-30 115-42 52-47.5 12.5q-29 0-51-15.5t-38.5-35.5-28-40-19.5-30v-668q0-13-4-31.5t-19.5-35-46-28-83.5-11.5-84 12.5-46.5 29.5-19.5 35-4 29v1290q0 29-13.5 50.5t-45.5 21.5q-17 0-29.5-5.5t-26.5-16.5l-20 24q23 19 51 37.5t61.5 32.5 71.5 23 80 9q65 0 101-17.5t53-43 20.5-54 3.5-50.5z"/></svg>