<svg width="146.56" height="20.8" viewBox="0 0 146.56 20.8" xmlns="http://www.w3.org/2000/svg"><path transform="translate(0 16.608) scale(.016 -.016)" d="m117 0 15 775h197q20 0 50-3.5t60-18.5 50.5-48 20.5-91q0-74-32-122.5t-86-76.5q69-14 104-49.5t35-110.5q0-74-29-123t-77.5-78-109.5-41.5-125-12.5zm212 715h-133l-6-286q77 3 134.5 21.5t89 58.5 31.5 105q0 49-18.5 70t-45 26-52.5 5zm137-460q0 52-25.5 76.5t-86 31.5-165.5 7l-6-310h7q76 0 138.5 17.5t100 60 37.5 117.5z"/><path transform="translate(10.032 16.608) scale(.016 -.016)" d="m0-5q-13 0-21.5 8.5t-8.5 21.5 8.5 21.5 21.5 8.5q71 0 137 38-24 38-31.5 82t-5.5 84q3 45 19.5 82.5t45.5 60 67 22.5q42 0 69.5-22t38.5-59.5 4-82.5-33.5-92-74.5-88q18-12 43.5-18.5t57.5-6.5q13 0 21.5-8.5t8.5-21.5-8.5-21.5-21.5-8.5q-54 0-93.5 14t-67.5 37q-38-23-84-37t-92-14zm164 260q-1-34 5-68t23-63q45 38 66.5 79.5t23.5 78-11.5 59.5-38.5 23q-24 0-44-29.5t-24-79.5z"/><path transform="translate(15.424 16.608) scale(.016 -.016)" d="m0-5q-13 0-21.5 8.5t-8.5 21.5 8.5 21.5 21.5 8.5q81 0 127.5 44t68 121 24.5 174v25h-72q-13 0-22.5 9.5t-9.5 22.5q0 14 9.5 23.5t22.5 9.5h72v259q0 14 9.5 23.5t22.5 9.5q14 0 23.5-9.5t9.5-23.5v-259h152q14 0 23.5-9.5t9.5-23.5q0-13-9.5-22.5t-23.5-9.5h-152v-42q0-102 5-166t19-97.5 40.5-46 68.5-12.5q13 0 21.5-8.5t8.5-21.5-8.5-21.5-21.5-8.5q-83 0-125 33.5t-58 116.5q-31-68-87.5-109t-147.5-41z"/><path transform="translate(22.112 16.608) scale(.016 -.016)" d="m0-5q-13 0-21.5 8.5t-8.5 21.5 8.5 21.5 21.5 8.5q53 0 94 41t54 119q2 109 60.5 159t148.5 50q20 0 47.5-2.5t51.5-7.5q2-1 4-1 10-3 17-12t7-20v-181q0-67 20.5-106t76.5-39q13 0 21.5-8.5t8.5-21.5-8.5-21.5-21.5-8.5q-52 0-84.5 20t-50.5 54q-25-36-60-55t-73-19q-44 0-83 22t-61 74q-29-46-72.5-71t-96.5-25zm213 215q0-59 14-93t37-48 49-14q35 0 67 32t39 96v177q-33 4-62 4-67 0-105.5-35t-38.5-119z"/><path transform="translate(31.408 16.608) scale(.016 -.016)" d="m0-5q-13 0-21.5 8.5t-8.5 21.5 8.5 21.5 21.5 8.5q45 0 71.5 21.5t43 58 30.5 81.5q18 57 38 104t53.5 75 93.5 28h2q34 0 63-17t45-52q25 33 58.5 51.5t67.5 18.5q50 0 87.5-38t37.5-115v-71q0-67 20.5-106t76.5-39q13 0 21.5-8.5t8.5-21.5-8.5-21.5-21.5-8.5q-62 0-97.5 28.5t-50 75.5-14.5 101v71q0 50-18.5 71.5t-41.5 21.5-48.5-20-43-55.5-17.5-83.5v-178q0-13-9.5-22.5t-23.5-9.5q-13 0-22.5 9.5t-9.5 22.5v244q0 50-18.5 71t-41.5 21h-2q-35 0-55.5-17.5t-35-54-32.5-93.5q-10-34-25-69.5t-38-66-58-49-86-18.5z"/><path transform="translate(44.016 16.608) scale(.016 -.016)" d="m0-5q-13 0-21.5 8.5t-8.5 21.5 8.5 21.5 21.5 8.5q70 0 102.5 42t42 117.5 9.5 176.5q0 9 5 17 9 15 27 15 14 0 23.5-9.5t9.5-23.5v-160q0-81 27-128t100-47q13 0 21.5-8.5t8.5-21.5-8.5-21.5-21.5-8.5q-68 0-109.5 28.5t-60.5 77.5q-23-49-64.5-77.5t-111.5-28.5zm192 534q-20 0-30.5 13.5t-10.5 34.5q0 20 10.5 33.5t30.5 13.5 30-13.5 10-33.5q0-21-10-34.5t-30-13.5z"/><path transform="translate(49.552 16.608) scale(.016 -.016)" d="m0-5q-13 0-21.5 8.5t-8.5 21.5 8.5 21.5 21.5 8.5q53 0 94 41t54 119q2 109 60.5 159t148.5 50q20 0 47.5-2.5t51.5-7.5q2-1 4-1 10-3 17-12t7-20v-181q0-67 20.5-106t76.5-39q13 0 21.5-8.5t8.5-21.5-8.5-21.5-21.5-8.5q-52 0-84.5 20t-50.5 54q-25-36-60-55t-73-19q-44 0-83 22t-61 74q-29-46-72.5-71t-96.5-25zm213 215q0-59 14-93t37-48 49-14q35 0 67 32t39 96v177q-33 4-62 4-67 0-105.5-35t-38.5-119z"/><path transform="translate(62.688 16.608) scale(.016 -.016)" d="m150-5q-14 0-23.5 10t-9.5 23l16 747h205q101 0 156.5-48.5t55.5-138.5q0-78-44-137t-125.5-94-191.5-39l-7-291q0-13-9.5-22.5t-22.5-9.5zm188 720h-141l-7-337q142 6 218.5 64t76.5 146q0 65-35.5 96t-111.5 31z"/><path transform="translate(72.816 16.608) scale(.016 -.016)" d="m0-5q-13 0-21.5 8.5t-8.5 21.5 8.5 21.5 21.5 8.5q53 0 94 41t54 119q2 109 60.5 159t148.5 50q20 0 47.5-2.5t51.5-7.5q2-1 4-1 10-3 17-12t7-20v-181q0-67 20.5-106t76.5-39q13 0 21.5-8.5t8.5-21.5-8.5-21.5-21.5-8.5q-52 0-84.5 20t-50.5 54q-25-36-60-55t-73-19q-44 0-83 22t-61 74q-29-46-72.5-71t-96.5-25zm213 215q0-59 14-93t37-48 49-14q35 0 67 32t39 96v177q-33 4-62 4-67 0-105.5-35t-38.5-119z"/><path transform="translate(82.112 16.608) scale(.016 -.016)" d="m0-5q-13 0-21.5 8.5t-8.5 21.5 8.5 21.5 21.5 8.5q81 0 127.5 44t68 121 24.5 174v25h-72q-13 0-22.5 9.5t-9.5 22.5q0 14 9.5 23.5t22.5 9.5h72v259q0 14 9.5 23.5t22.5 9.5q14 0 23.5-9.5t9.5-23.5v-259h152q14 0 23.5-9.5t9.5-23.5q0-13-9.5-22.5t-23.5-9.5h-152v-42q0-102 5-166t19-97.5 40.5-46 68.5-12.5q13 0 21.5-8.5t8.5-21.5-8.5-21.5-21.5-8.5q-83 0-125 33.5t-58 116.5q-31-68-87.5-109t-147.5-41z"/><path transform="translate(88.8 16.608) scale(.016 -.016)" d="m0-5q-13 0-21.5 8.5t-8.5 21.5 8.5 21.5 21.5 8.5q45 0 71.5 21.5t43 58 30.5 81.5q18 57 38 104t53.5 75 93.5 28h2q34 0 63-17t45-52q25 33 58.5 51.5t67.5 18.5 63-17.5 45-52.5q26 33 59 51.5t67 18.5q50 0 87.5-38t37.5-115v-71q0-67 20.5-106t76.5-39q13 0 21.5-8.5t8.5-21.5-8.5-21.5-21.5-8.5q-62 0-97.5 28.5t-50 75.5-14.5 101v71q0 50-18.5 71.5t-41.5 21.5-48.5-20-43-55.5-17.5-83.5v-178q0-13-9.5-22.5t-23.5-9.5q-13 0-22.5 9.5t-9.5 22.5v244q0 50-18.5 71.5t-41.5 21.5-48.5-20-43-55.5-17.5-83.5v-178q0-13-9.5-22.5t-23.5-9.5q-13 0-22.5 9.5t-9.5 22.5v244q0 50-18.5 71t-41.5 21h-2q-35 0-55.5-17.5t-35-54-32.5-93.5q-10-34-25-69.5t-38-66-58-49-86-18.5z"/><path transform="translate(105.15 16.608) scale(.016 -.016)" d="m0-5q-13 0-21.5 8.5t-8.5 21.5 8.5 21.5 21.5 8.5q53 0 94 41t54 119q2 60 24.5 107t63.5 74.5 98 27.5q11 0 23-2t18-4q33-3 65.5-30t54.5-72.5 22-105.5q0-31-6-59 14-1 29-1 13 0 21.5-8.5t8.5-21.5-8.5-21.5-21.5-8.5q-26 0-50 3-25-48-67.5-73.5t-88.5-25.5q-58 0-98.5 29.5t-62.5 73.5q-29-48-74-75t-99-27zm343 311q0-53 27.5-89t76.5-53q5 22 5 46 0 47-16 80.5t-36 51-34 17.5h-2q-4 0-12.5-13.5t-8.5-39.5zm-130-98q0-39 14-74.5t41-57.5 66-22q25 0 49.5 13.5t41.5 40.5q-67 23-107 73t-40 125q0 26 7 48-34-16-53-54t-19-92z"/><path transform="translate(113.79 16.608) scale(.016 -.016)" d="m0-5q-13 0-21.5 8.5t-8.5 21.5 8.5 21.5 21.5 8.5q46 0 76 25t51 70.5 39 108.5 39 139q1 3 2 6t2 6q0 1 1 2 0 1 1 1 8 17 27 17 10 0 18-6 44-30 90-58.5t85-59 61.5-68.5 20.5-88q-1-30-8-53.5t-18-41.5q7 0 16 0 16 0 27-10t3-48q-19-2-55-3t-78 2-81.5 12.5-66.5 28.5q-10 7-10 23 0 11 8 21t23 10q6 0 12-2.5t10-5.5q11-7 32-15t42-8q29 0 53.5 19.5t26.5 72.5q2 41-23.5 72.5t-69.5 60.5-98 64q-19-71-38.5-134.5t-46.5-113-68.5-78-104.5-28.5z"/><path transform="translate(125.65 16.608) scale(.016 -.016)" d="m147 0q-13 0-21.5 8.5t-8.5 21.5 8.5 21.5 21.5 8.5h77l13 655h-73q-13 0-21.5 8.5t-8.5 21.5 8.5 21.5 21.5 8.5h208q13 0 21.5-8.5t8.5-21.5-8.5-21.5-21.5-8.5h-71l-13-655h77q13 0 21.5-8.5t8.5-21.5-8.5-21.5-21.5-8.5z"/><path transform="translate(133.95 16.608) scale(.016 -.016)" d="m0-5q-13 0-21.5 8.5t-8.5 21.5 8.5 21.5 21.5 8.5q45 0 71.5 21.5t43 58 30.5 81.5q18 57 38 104t53.5 75 93.5 28h2q34 0 63-17t45-52q25 33 58.5 51.5t67.5 18.5q50 0 87.5-38t37.5-115v-71q0-67 20.5-106t76.5-39q13 0 21.5-8.5t8.5-21.5-8.5-21.5-21.5-8.5q-62 0-97.5 28.5t-50 75.5-14.5 101v71q0 50-18.5 71.5t-41.5 21.5-48.5-20-43-55.5-17.5-83.5v-178q0-13-9.5-22.5t-23.5-9.5q-13 0-22.5 9.5t-9.5 22.5v244q0 50-18.5 71t-41.5 21h-2q-35 0-55.5-17.5t-35-54-32.5-93.5q-10-34-25-69.5t-38-66-58-49-86-18.5z"/></svg>