<svg width="158.75" height="20.8" viewBox="0 0 158.75 20.8" xmlns="http://www.w3.org/2000/svg"><path transform="translate(0 16.608) scale(.016 -.016)" d="m0-7v18h117l8 406h-125v7h125l7 349h-132v7h630v-7h-261q30-3 63-17t55.5-47 22.5-95q0-68-27.5-115t-74.5-75h222v-7h-234q-2-1-4-2 69-14 104-49.5t35-110.5-30-124.5-80-78.5-111-41h320v-18zm329 722h-133l-6-286q77 3 134.5 21.5t89 58.5 31.5 105q0 49-18.5 70t-45 26-52.5 5zm137-460q0 52-25.5 76.5t-86 31.5-165.5 7l-6-310h7q76 0 138.5 17.5t100 60 37.5 117.5zm-466-625v7h630v-7z"/><path transform="translate(10.032 16.608) scale(.016 -.016)" d="m0 773v7h338v-7zm0-778q-13 0-21.5 8.5t-8.5 21.5 8.5 21.5 21.5 8.5q71 0 137 38-24 38-31.5 82t-5.5 84q3 55 28 98.5t66 59.5h-194v7h338v-7h-65q38-14 57-50.5t16.5-86-29.5-102-81-98.5q18-12 43.5-18.5t57.5-6.5q13 0 21.5-8.5t8.5-21.5-8.5-21.5-20.5-8.5v-2h-338zm164 260q-1-34 5-68t23-63q45 38 66.5 79.5t23.5 78-11.5 59.5-38.5 23q-24 0-44-29.5t-24-79.5zm12-209q-35-22-77-35h139q-35 13-62 35zm-176-416v7h338v-7z"/><path transform="translate(15.424 16.608) scale(.016 -.016)" d="m0-5q-13 0-21.5 8.5t-8.5 21.5 8.5 21.5 21.5 8.5q81 0 127.5 44t68 121 24.5 174v23h-220v7h131q-15 9-15 27 0 14 9.5 23.5t22.5 9.5h72v259q0 21 19 30h-239v7h418v-7h-153q20-9 20-30v-259h152q14 0 23.5-9.5t9.5-23.5q0-13-9.5-22.5t-23.5-9.5h-19v-2h-133v-40q0-102 5-166t19-97.5 40.5-46 68.5-12.5q13 0 21.5-8.5t8.5-21.5-8.5-21.5-21.5-8.5v-2h-418zm235 150q-22-47-55.5-81.5t-81.5-52.5h225q-67 29-88 134zm-235-515v7h418v-7z"/><path transform="translate(22.112 16.608) scale(.016 -.016)" d="m0 773v7h583v-7zm0-778q-13 0-21.5 8.5t-8.5 21.5 8.5 21.5 21.5 8.5q53 0 94 41t54 119q2 89 41 138t103 64h-292v7h583v-7h-143q9-1 16-3 2-1 4-1 10-3 17-12t7-20v-181q0-67 20.5-106t76.5-39q13 0 21.5-8.5t8.5-21.5-8.5-21.5-19.5-8.5v-2h-583zm213 215q0-59 14-93t37-48 49-14q35 0 67 32t39 96v177q-33 4-62 4-67 0-105.5-35t-38.5-119zm-44-119q-36-56-91-80h163q-22 11-40.5 30.5t-31.5 49.5zm277-22q-27-39-66-58h124q-19 10-33.5 24.5t-24.5 33.5zm-446-439v7h583v-7z"/><path transform="translate(31.408 16.608) scale(.016 -.016)" d="m0 773v7h790v-7zm0-778q-13 0-21.5 8.5t-8.5 21.5 8.5 21.5 21.5 8.5q45 0 71.5 21.5t43 58 30.5 81.5q15 48 31.5 90t41 71 64.5 40h-282v7h790v-7h-183q36-13 60-49.5t24-96.5v-71q0-67 20.5-106t76.5-39q13 0 21.5-8.5t8.5-21.5-8.5-21.5-19.5-8.5v-2h-790zm440 359q36 47 85 63h-154q21-7 39.5-22.5t29.5-40.5zm17-327q0-9-5-16h259q-48 24-66.5 75.5t-18.5 113.5v71q0 50-18.5 71.5t-41.5 21.5-48.5-20-43-55.5-17.5-83.5zm-250 171q-11-35-26-71.5t-39-67.5-62-48h316q-4 7-4 16v244q0 50-18.5 71t-41.5 21h-2q-35 0-55.5-17.5t-35-54-32.5-93.5zm-207-568v7h790v-7z"/><path transform="translate(44.016 16.608) scale(.016 -.016)" d="m0 773v7h348v-7zm0-778q-13 0-21.5 8.5t-8.5 21.5 8.5 21.5 21.5 8.5q70 0 102.5 42t42 117.5 9.5 176.5q0 9 5 17 4 5 9 9h-168v7h348v-7h-143q14-10 14-27v-160q0-81 27-128t100-47q13 0 21.5-8.5t8.5-21.5-8.5-21.5-19.5-8.5v-2h-348zm176 106q-15-31-36-54t-52-36h172q-30 13-51 36t-33 54zm-176-471v7h348v-7zm192 899q-20 0-30.5 13.5t-10.5 34.5q0 20 10.5 33.5t30.5 13.5 30-13.5 10-33.5q0-21-10-34.5t-30-13.5z"/><path transform="translate(49.552 16.608) scale(.016 -.016)" d="m0 773v7h583v-7zm0-778q-13 0-21.5 8.5t-8.5 21.5 8.5 21.5 21.5 8.5q53 0 94 41t54 119q2 89 41 138t103 64h-292v7h583v-7h-143q9-1 16-3 2-1 4-1 10-3 17-12t7-20v-181q0-67 20.5-106t76.5-39q13 0 21.5-8.5t8.5-21.5-8.5-21.5-19.5-8.5v-2h-583zm213 215q0-59 14-93t37-48 49-14q35 0 67 32t39 96v177q-33 4-62 4-67 0-105.5-35t-38.5-119zm-44-119q-36-56-91-80h163q-22 11-40.5 30.5t-31.5 49.5zm277-22q-27-39-66-58h124q-19 10-33.5 24.5t-24.5 33.5zm-446-439v7h583v-7z"/><path transform="translate(58.848 16.608) scale(.016 -.016)" d="m-5 773v7h250v-7zm0-356v7h250v-7zm0-424v18h250v-18zm0-363v7h250v-7z"/><path transform="translate(62.688 16.608) scale(.016 -.016)" d="m0-7v18h122q-5 8-5 17l9 389h-126v7h126l7 349h-133v7h645v-7h-268q83-9 128-56.5t45-128.5q0-96-67-164h162v-7h-170q-46-44-119-69.5t-167-29.5l-7-291q0-9-5-16h468v-18zm338 722h-141l-6-291h190q104 57 104 164 0 65-35.5 96t-111.5 31zm-147-298-1-39q53 2 97.5 12t79.5 27zm-191-787v7h645v-7z"/><path transform="translate(72.816 16.608) scale(.016 -.016)" d="m0 773v7h583v-7zm0-778q-13 0-21.5 8.5t-8.5 21.5 8.5 21.5 21.5 8.5q53 0 94 41t54 119q2 89 41 138t103 64h-292v7h583v-7h-143q9-1 16-3 2-1 4-1 10-3 17-12t7-20v-181q0-67 20.5-106t76.5-39q13 0 21.5-8.5t8.5-21.5-8.5-21.5-19.5-8.5v-2h-583zm213 215q0-59 14-93t37-48 49-14q35 0 67 32t39 96v177q-33 4-62 4-67 0-105.5-35t-38.5-119zm-44-119q-36-56-91-80h163q-22 11-40.5 30.5t-31.5 49.5zm277-22q-27-39-66-58h124q-19 10-33.5 24.5t-24.5 33.5zm-446-439v7h583v-7z"/><path transform="translate(82.112 16.608) scale(.016 -.016)" d="m0-5q-13 0-21.5 8.5t-8.5 21.5 8.5 21.5 21.5 8.5q81 0 127.5 44t68 121 24.5 174v23h-220v7h131q-15 9-15 27 0 14 9.5 23.5t22.5 9.5h72v259q0 21 19 30h-239v7h418v-7h-153q20-9 20-30v-259h152q14 0 23.5-9.5t9.5-23.5q0-13-9.5-22.5t-23.5-9.5h-19v-2h-133v-40q0-102 5-166t19-97.5 40.5-46 68.5-12.5q13 0 21.5-8.5t8.5-21.5-8.5-21.5-21.5-8.5v-2h-418zm235 150q-22-47-55.5-81.5t-81.5-52.5h225q-67 29-88 134zm-235-515v7h418v-7z"/><path transform="translate(88.8 16.608) scale(.016 -.016)" d="m0 773v7h1024v-7zm0-778q-13 0-21.5 8.5t-8.5 21.5 8.5 21.5 21.5 8.5q45 0 71.5 21.5t43 58 30.5 81.5q15 48 31.5 90t41 71 64.5 40h-282v7h1024v-7h-183q36-13 60-49.5t24-96.5v-71q0-67 20.5-106t76.5-39q13 0 21.5-8.5t8.5-21.5-8.5-21.5-19.5-8.5v-2h-1024zm674 359q36 47 85 63h-152q21-8 38.5-23.5t28.5-39.5zm-234 0q36 47 85 63h-154q21-7 39.5-22.5t29.5-40.5zm17-327q0-9-5-16h178q-4 7-4 16v244q0 50-18.5 71.5t-41.5 21.5-48.5-20-43-55.5-17.5-83.5zm234 0q0-9-5-16h259q-48 24-66.5 75.5t-18.5 113.5v71q0 50-18.5 71.5t-41.5 21.5-48.5-20-43-55.5-17.5-83.5zm-484 171q-11-35-26-71.5t-39-67.5-62-48h316q-4 7-4 16v244q0 50-18.5 71t-41.5 21h-2q-35 0-55.5-17.5t-35-54-32.5-93.5zm-207-568v7h1024v-7z"/><path transform="translate(105.15 16.608) scale(.016 -.016)" d="m0 773v7h540v-7zm0-778q-13 0-21.5 8.5t-8.5 21.5 8.5 21.5 21.5 8.5q53 0 94 41t54 119q2 75 37 130t97 72h-282v7h540v-7h-156q32-7 62.5-34t50.5-71.5 20-101.5q0-31-6-59 14-1 29-1 13 0 21.5-8.5t8.5-21.5-8.5-21.5-21.5-8.5q-26 0-50 3-15-28-36.5-49t-46.5-33h133v-18h-540zm343 311q0-53 27.5-89t76.5-53q5 22 5 46 0 47-16 80.5t-36 51-34 17.5h-2q-4 0-12.5-13.5t-8.5-39.5zm-130-98q0-39 14-74.5t41-57.5 66-22q25 0 49.5 13.5t41.5 40.5q-67 23-107 73t-40 125q0 26 7 48-34-16-53-54t-19-92zm-40-111q-36-60-95-86h179q-28 14-49 36t-35 50zm-173-467v7h540v-7z"/><path transform="translate(113.79 16.608) scale(.016 -.016)" d="m0 773v7h510v-7zm0-778q-13 0-21.5 8.5t-8.5 21.5 8.5 21.5 21.5 8.5q46 0 76 25t51 70.5 39 108.5 39 139q1 3 2 6t2 6q0 1 1 2 0 1 1 1 1 3 2 4h-213v7h220q8 6 18 6t18-6h254v-7h-244q44-29 88.5-56.5t81-57.5 58-67.5 19.5-85.5q-1-30-8-53.5t-18-41.5q7 0 16 0 16 0 27-10t3-48q-10-1-23-2v-2h-510zm449 157q2 41-23.5 72.5t-69.5 60.5-98 64q-20-77-41.5-145.5t-53-119-82.5-73.5h230q-17 5-32 11.5t-27 14.5q-10 7-10 23 0 11 8 21t23 10q6 0 12-2.5t10-5.5q11-7 32-15t42-8q29 0 53.5 19.5t26.5 72.5zm-449-522v7h510v-7z"/><path transform="translate(121.81 16.608) scale(.016 -.016)" d="m-5 773v7h250v-7zm0-356v7h250v-7zm0-424v18h250v-18zm0-363v7h250v-7z"/><path transform="translate(125.65 16.608) scale(.016 -.016)" d="m0-7v18h273q-57 22-95 73.5t-57 123-19 154.5q0 29 1 55h-103v7h104q8 154 61.5 241t161.5 108h-327v7h710v-7h-222q20-3 41-7t43-9q10-2 16.5-10t6.5-19q0-14-11.5-23.5t-25.5-5.5q-46 11-84 16t-70 5q-115 0-171-69.5t-64-226.5h541v-7h-98q9-93-11.5-176.5t-64.5-144-105-85.5h279v-18zm0-363v7h710v-7zm306 757q0 13 8.5 21.5t21.5 8.5h-168q-1-26-1-55 0-90 22-159t64-108 102-39q53 0 96.5 40t70.5 108 28 153h-214q-13 0-21.5 8.5t-8.5 21.5z"/><path transform="translate(136.99 16.608) scale(.016 -.016)" d="m0-7v18h119l6 406h-125v7h126l6 349h-132v7h760v-7h-386q98-9 161-52t93.5-107 30.5-138q0-26-2-52h103v-7h-104q-11-105-58.5-189t-126.5-140-186-77h475v-18zm328 722h-132l-6-291h401q3 25 3 52 0 66-27.5 120t-86.5 86.5-152 32.5zm-138-298-6-357q117 4 204 49.5t139 124.5 64 183zm-190-787v7h760v-7z"/><path transform="translate(149.09 16.608) scale(.016 -.016)" d="m0-7v18h118l8 406h-126v7h126l7 324q0 15 13 25h-146v7h605v-7h-420q13-10 13-26l-7-323h414v-7h-414l-7-356h273q13 0 21.5-8.5t8.5-21.5q0-12-7-20h125v-18zm0-363v7h605v-7z"/></svg>