<svg width="235.51" height="14.112" viewBox="0 0 235.51 14.112" xmlns="http://www.w3.org/2000/svg"><path transform="translate(0 11.564) scale(.014 -.014)" d="m676-1h-620v23h183v474h-183v24h613q77 0 119.5-35t42.5-94q0-47-27.5-80.5t-83.5-44.5q66-8 105-39.5t39-91.5q0-69-50-102.5t-138-33.5zm-9 497h-403v-218h399q63 0 103 28.5t40 84.5-40 80.5-99 24.5zm-9-243-394 1v-232h405q77 0 123.5 26t46.5 87q0 43-24.5 69t-65.5 37.5-91 11.5z"/><path transform="translate(13.496 11.564) scale(.014 -.014)" d="m398-1h-368v23h184v474h-183v24h208v-299q25 21 58.5 46t73.5 47.5 85 37 93 14.5q78 0 122.5-32.5t63.5-85.5 19-114v-112h173v-23h-359v23h161v112q0 38-8 75.5t-27.5 67.5-54.5 48-90 18q-48 0-93-15t-85-37.5-73.5-47.5-58.5-45v-176h159z"/><path transform="translate(26.656 11.564) scale(.014 -.014)" d="m853 18q-19-13-39-21t-45-8q-36 0-60 24.5t-27 69.5q-72-35-144.5-64.5t-155.5-29.5q-91 0-144 40.5t-53 134.5v169h-171v24h197v-193q0-79 44.5-115t126.5-37q73 0 150 28.5t150 64.5v228h-161v24h186v-264q0-42 19.5-61.5t44.5-19.5q20 0 37 6.5t35 19.5z"/><path transform="translate(39.438 11.564) scale(.014 -.014)" d="M116 336H90V520H864V336H839V497H490V22H682V-1H272V22H465V497H116Z"/><path transform="translate(52.808 11.564) scale(.014 -.014)" d="m853 18q-19-13-39-21t-45-8q-36 0-60 24.5t-27 69.5q-72-35-144.5-64.5t-155.5-29.5q-91 0-144 40.5t-53 134.5v169h-171v24h197v-193q0-79 44.5-115t126.5-37q73 0 150 28.5t150 64.5v228h-161v24h186v-264q0-42 19.5-61.5t44.5-19.5q20 0 37 6.5t35 19.5z"/><path transform="translate(65.59 11.564) scale(.014 -.014)" d="m420-1h-390v23h182v474h-182v24h207v-280q84 55 173.5 90.5t173.5 35.5q81 0 127.5-27t46.5-76q0-62-70.5-94.5t-191.5-35.5q49-61 91-96t100-35q44 0 79 26t45 75l21-5q-10-51-48-85t-98-34q-65 0-118 44.5t-98 109.5q-69 0-131.5 8t-101.5 15v-134h183zm158 344q-83 0-170-35t-171-89v-45q26-3 65.5-7t84.5-7 86-3q76 0 134.5 12t92 35 33.5 57q0 41-42 61.5t-113 20.5z"/><path transform="translate(78.078 11.564) scale(.014 -.014)" d="m794 18q-17-13-38-21t-44-8q-34 0-57.5 21t-28.5 60q-81-40-169.5-60.5t-169.5-20.5q-94 0-145.5 27.5t-51.5 76.5q0 56 64 85.5t175 29.5q88 0 160.5-10t134.5-23v21q0 64-49.5 105.5t-158.5 41.5q-78 0-152.5-16.5t-151.5-41.5l-7 24q82 28 159 42.5t152 14.5q119 0 176-47t57-123v-104q0-41 19.5-60.5t44.5-19.5q21 0 37.5 6.5t30.5 18.5zm-678 76q0-39 44.5-60.5t126.5-21.5q79 0 166.5 21t170.5 59v62q-62 13-137.5 22t-157.5 9q-99 0-156-24t-57-67z"/><path transform="translate(94.444 11.564) scale(.014 -.014)" d="M598 152H573V260H264V22H840V183H864V-1H56V22H239V496H56V520H864V336H839V496H264V284H573V392H598Z"/><path transform="translate(108.37 11.564) scale(.014 -.014)" d="M365 -1H55V22H165L402 178L165 333H55V357H365V333H207L423 190L639 333H477V357H787V333H674L440 179L678 22H787V-1H477V22H637L419 167L201 22H365Z"/><path transform="translate(120.16 11.564) scale(.014 -.014)" d="m429-167h-399v24h181v476h-181v24h206v-130q84 60 173 99.5t184 39.5q107 0 173-45t66-127q0-64-42-110t-111-70.5-152-24.5q-90 0-163.5 23t-127.5 51v-206h193zm164 510q-84 0-174.5-38.5t-182.5-101.5v-117q56-28 132-51.5t159-22.5q77-1 140.5 21.5t101.5 64 38 96.5q0 67-56.5 108t-157.5 41z"/><path transform="translate(132.94 11.564) scale(.014 -.014)" d="m794 18q-17-13-38-21t-44-8q-34 0-57.5 21t-28.5 60q-81-40-169.5-60.5t-169.5-20.5q-94 0-145.5 27.5t-51.5 76.5q0 56 64 85.5t175 29.5q88 0 160.5-10t134.5-23v21q0 64-49.5 105.5t-158.5 41.5q-78 0-152.5-16.5t-151.5-41.5l-7 24q82 28 159 42.5t152 14.5q119 0 176-47t57-123v-104q0-41 19.5-60.5t44.5-19.5q21 0 37.5 6.5t30.5 18.5zm-678 76q0-39 44.5-60.5t126.5-21.5q79 0 166.5 21t170.5 59v62q-62 13-137.5 22t-157.5 9q-99 0-156-24t-57-67z"/><path transform="translate(144.24 11.564) scale(.014 -.014)" d="m418-1h-368v23h183v311h-183v24h208v-136q25 20 58.5 45t73.5 48 85 37.5 93 14.5q79 0 124-32.5t63.5-85.5 18.5-114v-112h173v-23h-359v23h161v112q0 38-7.5 75.5t-27.5 67.5-55 48-91 18q-48 0-93-15t-85-38-73.5-47.5-58.5-45.5v-175h160z"/><path transform="translate(157.68 11.564) scale(.014 -.014)" d="m846 18q-18-13-39-21t-44-8q-38 0-62.5 27.5t-24.5 76.5v34q-84-60-173-99.5t-184-39.5q-107 0-172.5 45.5t-65.5 126.5q0 65 41.5 111t111 70.5 151.5 24.5q89 0 163-23t128-51v205h-184v23h209v-427q0-42 19.5-61.5t43.5-19.5q21 0 37.5 6.5t34.5 19.5zm-740 142q0-66 56.5-107t156.5-41q83 0 174 38.5t183 102.5v114q-56 29-132.5 52.5t-158.5 22.5q-76 1-139.5-21.5t-101.5-63.5-38-97z"/><path transform="translate(170.37 11.564) scale(.014 -.014)" d="m668 68q-57-35-126-57t-171-22q-81 0-146.5 21.5t-104.5 62-39 97.5q0 48 27 84.5t73 61.5 103 37.5 117 12.5q114 0 183.5-30.5t69.5-86.5q0-39-31.5-63t-85.5-35.5-122-11.5q-80 0-155 14t-152 39q-2-11-2-22 0-47 34.5-82.5t94.5-55 136-20.5q94-1 162.5 20.5t123.5 55.5zm-267 275q-65 0-124.5-15.5t-103.5-44.5-60-71q149-49 302-49 60 0 108.5 8.5t77 27.5 28.5 50q0 45-61 69.5t-167 24.5z"/><path transform="translate(180.91 11.564) scale(.014 -.014)" d="m846 18q-18-13-39-21t-44-8q-38 0-62.5 27.5t-24.5 76.5v34q-84-60-173-99.5t-184-39.5q-107 0-172.5 45.5t-65.5 126.5q0 65 41.5 111t111 70.5 151.5 24.5q89 0 163-23t128-51v205h-184v23h209v-427q0-42 19.5-61.5t43.5-19.5q21 0 37.5 6.5t34.5 19.5zm-740 142q0-66 56.5-107t156.5-41q83 0 174 38.5t183 102.5v114q-56 29-132.5 52.5t-158.5 22.5q-76 1-139.5-21.5t-101.5-63.5-38-97z"/><path transform="translate(198.66 11.564) scale(.014 -.014)" d="m844 259q0-85-51-145.5t-138-92.5-195-32q-109 0-196 32t-138 92.5-51 145.5q0 86 51 147t138 93 196 32q108 0 195-32t138-93 51-147zm-744 0q0-77 46.5-132.5t128-85 185.5-29.5q103 0 184 29.5t128 85 47 132.5q0 78-47 133.5t-128 85-184 29.5q-104 0-185.5-29.5t-128-85-46.5-133.5z"/><path transform="translate(211.53 11.564) scale(.014 -.014)" d="m418-1h-368v23h183v311h-183v24h208v-136q25 20 58.5 45t73.5 48 85 37.5 93 14.5q79 0 124-32.5t63.5-85.5 18.5-114v-112h173v-23h-359v23h161v112q0 38-7.5 75.5t-27.5 67.5-55 48-91 18q-48 0-93-15t-85-38-73.5-47.5-58.5-45.5v-175h160z"/><path transform="translate(224.97 11.564) scale(.014 -.014)" d="m668 68q-57-35-126-57t-171-22q-81 0-146.5 21.5t-104.5 62-39 97.5q0 48 27 84.5t73 61.5 103 37.5 117 12.5q114 0 183.5-30.5t69.5-86.5q0-39-31.5-63t-85.5-35.5-122-11.5q-80 0-155 14t-152 39q-2-11-2-22 0-47 34.5-82.5t94.5-55 136-20.5q94-1 162.5 20.5t123.5 55.5zm-267 275q-65 0-124.5-15.5t-103.5-44.5-60-71q149-49 302-49 60 0 108.5 8.5t77 27.5 28.5 50q0 45-61 69.5t-167 24.5z"/></svg>