<svg width="90.24" height="20" viewBox="0 0 90.24 20" xmlns="http://www.w3.org/2000/svg"><path transform="translate(0 13.6) scale(.016 -.016)" d="m315-61q0-18-7-18t-12.5 12-7 23-1.5 18q-24 11-51 29t-27 34q0 6 5 6 3 0 18-9.5t32.5-21 22.5-13.5q0 110 61.5 294t127.5 319q-121 29-206 29-42 0-80-7.5t-73-24-56-49.5-21-78q0-102 97-192 4 20 10 20 7 0 17.5-21.5t10.5-29.5q0-13-18-13-37 0-74.5 42.5t-59 95.5-21.5 90q0 55 24.5 94.5t66.5 59.5 87 29 96 9q92 0 213-26 14 33 30 47 1 0 2 0 4 0 9 1t11 2.5 10 1.5q28 0 28-12 0-1-0.5-2t-0.5-2q-11-15-29-49 37-10 75-24.5t81-37.5 69.5-56 26.5-71q0-35-22.5-64.5t-60-50-70-33.5-67.5-22q36-2 78-11t87-26 74.5-48 29.5-70q0-38-35-75-101-106-287-106-123 0-214 33 0-4 0.5-12.5t0.5-13.5zm439 497q0 31-24 59.5t-62.5 48.5-70.5 33-63 22h-1q-81-141-144-334 16 5 44.5 7.5t37.5 4.5q36 6 75.5 16.5t91 29.5 84 48.5 32.5 64.5zm-239-192q-11 0-42-3.5t-59.5-6.5-34.5-3q-1 0-1 0-51-158-62-242 86-34 213-34 166 0 232 67 42 42 42 82t-32.5 69.5-82 43.5-93.5 20.5-80 6.5z"/><path transform="translate(13.76 13.6) scale(.016 -.016)" d="m255 550q0-13-19-33t-24-31q-13-33-28-37-20 0-20 33 0 21 31 46t54 25q5 0 6-3zm-57-171q-2-3-13.5-25t-19.5-38-22-47-25-59-23-67-21-78q-1-3-1-8 0-12 10-12 6 0 32.5 15t34.5 15q7 0 8-4 0-12-51-44.5t-70-32.5-19 18q0 9 4 21 11 31 22.5 64t17.5 51 12.5 37 9.5 28.5 5.5 19 3.5 14.5 1 10q0 4-1.5 7.5t-1.5 5.5q0 4 3 13 22 63 39 84t50 21q13 0 15-9z"/><path transform="translate(16.448 13.6) scale(.016 -.016)" d="m269 623q-55-114-112-275.5t-84-282.5q-1-3-1-8 0-12 10-12 6 0 32.5 15t33.5 15q6 0 9-4 0-12-50-44.5t-71-32.5q-19 0-19 18 0 10 4 21 26 71 48.5 141t51.5 166.5 43 142.5q3 9 3 18 0 4-1.5 7.5t-1.5 6.5 3 12q20 63 37 84t50 21q14 0 15-9z"/><path transform="translate(19.312 13.6) scale(.016 -.016)" d="m39 11q-5-12-10-12-9 0-20 12t-11 28q0 15 24 76 3 8 9.5 12t7.5 7q108 281 171 497l8 6q7 6 17.5 12t17.5 6q10 0 10-15-11-41-70-201t-97-252q38 57 100.5 127.5t93.5 70.5q20 0 20-37v-7q-1-20-19-90 22 11 30 11 3 0 3-2 0-5-12.5-15t-25.5-15q-39-129-76-170-14-15-57-41.5t-53-26.5q-41 0-61 19zm197 195q-118-62-152-99-6-12-14.5-31t-11.5-25q24-27 49-27 41 0 76.5 61t52.5 121zm8 22q16 42 18 87 0 21-10 21-33 0-161-204 60 49 153 96z"/><path transform="translate(23.984 13.6) scale(.016 -.016)" d="m261 264q0-117-61-200t-121-83q-58 0-58 84 0 23 4 46 5 26 18 67t34 89 51.5 81.5 61.5 33.5h7q0 14 8 24t22 10q14-1 25-58.5t32-59.5q19-3 19-11t-15-15.5-27-7.5zm-28 8q-9 5-22 35.5t-18 30.5q-31 0-72-91.5t-51-144.5q-4-23-4-42 0-49 28-49 40 0 89.5 81.5t49.5 179.5z"/><path transform="translate(31.36 13.6) scale(.016 -.016)" d="m157-54q47 0 97.5 11t90 36 39.5 57q0 5-1 9-5 33-48 55t-99.5 37.5-112 34.5-94 57-38.5 95q0 73 40.5 135.5t105 104 137 68.5 145.5 36q43 6 81 6 171 0 171-113 0-59-56-114t-131-55q-7 0-10.5 2.5t-3.5 5.5q0 2 1 4.5t3.5 4 5.5 2.5 7 1q51 0 97 38.5t46 95.5q0 29-12.5 49.5t-34.5 32-47.5 16.5-55.5 5q-15 0-29.5-1t-28.5-3q-95-12-178.5-48.5t-140.5-102-57-145.5q0-48 27-82.5t67.5-50.5 88.5-31 90.5-25 73.5-31 36-51l1-12q0-41-44.5-80t-116.5-63.5-148-24.5q-102 0-102 74 0 40 27 40 3 0 5-6.5t5-17 7-17.5q7-12 16.5-20t21.5-12 25.5-5.5 30.5-1.5z"/><path transform="translate(38.72 13.6) scale(.016 -.016)" d="m534 361q0-6-18-46t-50-101-63-111q-12-19-18.5-31.5t-8.5-18-7.5-24.5-9.5-33q-4-7-11-7-10 0-20.5 12.5t-10.5 23.5q0 4 0.5 12.5t0.5 13.5q0 137-55 270-36-21-102.5-152.5t-66.5-176.5q-3-11-11-11-10 0-22 14t-12 25q0 3 1 4 42 103 42 190 0 43-7 70.5t-16 37.5-19 10q-2 0-14-8t-16-8q-3 0-3 3 0 14 26 37t40 23q41 0 41-141 0-30-3-81 31 57 83.5 137t73.5 80q8 11 20 11 19 0 19-22 0-3-1-8.5t-1-8.5q0-6 9-32 8-24 20-75.5t21-90 10-38.5q14 0 62 94t51 145q0 6-4 18t-4 19q0 12 10 23h1q11 9 17 9 13 0 19.5-19.5t6.5-37.5z"/><path transform="translate(46.608 13.6) scale(.016 -.016)" d="m332 80q-1-1-9-8.5t-13-11.5-14.5-12.5-16.5-13.5-17-12-17.5-10.5-15.5-6.5-15-3q-21 0-25 25 0 42 33 155-134-185-192-185-24 0-24 36 0 46 27.5 124.5t67.5 142 70 63.5h3l11 8q9 10 28 10 15 0 42-8t30-8q4 0 10.5 8t15.5 8q25 0 25-22 0-9-3.5-20t-10-25.5-7.5-17.5q-1-2-9.5-6t-9.5-7q-22-62-39-132.5t-17-86.5q0-25 14-25t34.5 17 35.5 34 16 17q2 0 2-4 0-15-10-23zm-66 266q-6 0-20.5 2t-24.5 2q-14 0-30-4-25-7-82-118.5t-57-166.5q0-17 10-17 21 0 74.5 61t70.5 87q25 40 46 86.5t21 61.5q0 6-5 6z"/><path transform="translate(51.872 13.6) scale(.016 -.016)" d="m287 343q-2-20-26-57t-37-37q-4 0-4 6 0 9 11 36.5t11 35.5q0 15-18 15-3 0-33-5-25-6-65.5-32t-40.5-57q0-11 5-20 13-26 45.5-44t56-34 23.5-42q0-44-67.5-84.5t-115.5-40.5q-8 0-13 6.5t-5 13.5q0 12 11 12 33 0 92.5 20.5t59.5 44.5q0 14-22.5 33t-49 35-49 38.5-22.5 43.5q0 17 12 32 9 11 19 21.5t19 18.5 20.5 16 20.5 14 21 12 19 9.5 18.5 8.5 16 6.5 14.5 5.5 11 4q17 5 26 5 36 0 36-40z"/><path transform="translate(55.936 13.6) scale(.016 -.016)" d="m334 354q-54-87-100.5-193.5t-46.5-165.5q0-14 8-14 3 0 17.5 9t17.5 9q5 0 5-6 0-12-19-25.5t-37-13.5q-25 0-25 37 0 43 28 121.5t56 143 28 72.5q0 2-1 2-4 0-18-15-63-71-106-138.5t-57.5-103.5-30-57.5-36.5-21.5q-9 0-9 10 0 9 5 20 27 70 52 145t53.5 167.5 46.5 146.5q3 9 3 18 0 4-1 7.5t-1 5.5q0 4 3 13 23 64 39 84.5t49 20.5q13 0 15-9-109-220-177-468 149 233 225 233 21 0 21-14 0-9-7-20z"/><path transform="translate(64.096 13.6) scale(.016 -.016)" d="m740 139q4 0 4-9t-4.5-22-10.5-23-11-15q-62-63-167-104t-201-41q-158 0-241 76t-83 209q0 11 1 23 6 112 83.5 215.5t190.5 164 224 60.5 149-50q9 27 9 39 0 2-2 8t-1 9.5 8 3.5q8 0 16-4t8-10q0-12-3.5-24.5t-9-29-7.5-23.5q9-24 9-55 0-68-30-68-17 0-24 7t-7 22q0 9 1 17.5t3.5 17.5 4.5 15.5 5.5 17 5.5 15.5q-17 28-53 46t-82 18q-106 0-207.5-57.5t-167.5-154.5-72-204q0-8 0-16 0-117 81.5-189.5t202.5-72.5q53 0 101 10t79.5 23 63.5 34.5 47 35.5 36 35 24 24q3 5 13 15.5t14 10.5z"/><path transform="translate(76.144 13.6) scale(.016 -.016)" d="m332 80q-1-1-9-8.5t-13-11.5-14.5-12.5-16.5-13.5-17-12-17.5-10.5-15.5-6.5-15-3q-21 0-25 25 0 42 33 155-134-185-192-185-24 0-24 36 0 46 27.5 124.5t67.5 142 70 63.5h3l11 8q9 10 28 10 15 0 42-8t30-8q4 0 10.5 8t15.5 8q25 0 25-22 0-9-3.5-20t-10-25.5-7.5-17.5q-1-2-9.5-6t-9.5-7q-22-62-39-132.5t-17-86.5q0-25 14-25t34.5 17 35.5 34 16 17q2 0 2-4 0-15-10-23zm-66 266q-6 0-20.5 2t-24.5 2q-14 0-30-4-25-7-82-118.5t-57-166.5q0-17 10-17 21 0 74.5 61t70.5 87q25 40 46 86.5t21 61.5q0 6-5 6z"/><path transform="translate(81.408 13.6) scale(.016 -.016)" d="m268 215q6 2 19 7t24 8 22 3q7 0 7-3 0-7-10-12.5t-30.5-11.5-27.5-9q5-26 5-57 0-78-39.5-113.5t-93.5-35.5q-58 0-90 26-9-26-34-98.5t-36-104.5q-1-2-1-4 0-3 3.5-9t3.5-12q0-12-15-38.5t-31-26.5q-12 0-12 25 0 21 16.5 73t48 135.5 32.5 87.5q-3 7-3 17 0 23 22 37 67 207 78 247 0 1-11 2.5t-11 6.5q0 8 16 15l15 6q-4 4-4 8 0 14 19 30.5t32 16.5q8 0 8-10 0-9-5-19l-11-24q71-50 94-163zm-39-32q-17 0-69-31.5t-72-49.5l-22-63q35-23 68-23 51 0 75.5 33.5t24.5 81.5q0 22-5 52zm-5 16q-7 36-19 67t-22.5 47-17.5 16q-3 0-13-28.5t-27-82.5-26-81q48 33 125 62z"/><path transform="translate(86.176 13.6) scale(.016 -.016)" d="m287 343q-2-20-26-57t-37-37q-4 0-4 6 0 9 11 36.5t11 35.5q0 15-18 15-3 0-33-5-25-6-65.5-32t-40.5-57q0-11 5-20 13-26 45.5-44t56-34 23.5-42q0-44-67.5-84.5t-115.5-40.5q-8 0-13 6.5t-5 13.5q0 12 11 12 33 0 92.5 20.5t59.5 44.5q0 14-22.5 33t-49 35-49 38.5-22.5 43.5q0 17 12 32 9 11 19 21.5t19 18.5 20.5 16 20.5 14 21 12 19 9.5 18.5 8.5 16 6.5 14.5 5.5 11 4q17 5 26 5 36 0 36-40z"/></svg>