<svg width="84" height="14" viewBox="0 0 84 14" xmlns="http://www.w3.org/2000/svg"><path transform="translate(0 12.318) scale(.0068359 -.0068359)" d="m102 1556h397q165 0 258-94 108-108 108-273 0-140-67-236-62-87-176-114v-8q162-49 236-187 50-93 50-217 0-206-119-321-110-106-278-106h-409v74q104 11 104 100v1214q0 45-24 64-23 18-80 30zm233-680h123q133 0 208 107 56 81 56 206 0 141-77 215-52 50-152 50h-74q-84 0-84-101zm0-102v-579q0-49 18-68 25-25 80-25h70q117 0 190 91 70 86 70 236 0 164-81 256-77 89-199 89z"/><path transform="translate(7 12.318) scale(.0068359 -.0068359)" d="m313 1556h397v-74q-76-6-104-26-27-19-27-78v-1200q0-53 31-78 21-16 100-26v-74h-397v74q80 10 105 30 26 23 26 74v1200q0 59-27 78-28 20-104 26z"/><path transform="translate(14 12.318) scale(.0068359 -.0068359)" d="m184 1556h680v-118l-582-1336h281q156 0 208 116 31 68 54 238h68l-19-456h-733v110l582 1344h-260q-111 0-160-78-46-71-68-225h-65z"/><path transform="translate(28 12.318) scale(.0068359 -.0068359)" d="m72 1556h327v-74q-51-6-73-28-21-21-21-72v-805q0-258 38-358 49-131 190-131 138 0 184 130 41 115 41 368v796q0 48-18 69-21 24-74 31v74h276v-74q-57-10-76-28-18-19-18-72v-796q0-225-23-333-63-292-298-292-192 0-287 164-47 80-60 215-8 89-8 237v805q0 58-21 78-18 18-79 22z"/><path transform="translate(35 12.318) scale(.0068359 -.0068359)" d="m72 1556h368q230 0 362-224 117-199 117-551 0-396-150-610-120-171-329-171h-368v74q53 8 76 30 20 21 20 72v1208q0 53-23 74-19 18-73 24zm229-182v-1179q0-54 18-74 17-19 72-19h55q155 0 240 176 86 178 86 519 0 287-46 422-80 235-286 235h-61q-45 0-62-17-16-16-16-63z"/><path transform="translate(42 12.318) scale(.0068359 -.0068359)" d="m27 1556h258l225-1126 218 1126h262v-74q-53-10-66-22-16-16-16-74v-1212q0-54 16-74 18-20 66-26v-74h-295v74q53 9 69 28 19 22 19 72v1177h-8l-238-1195h-96l-238 1222h-8v-1204q0-51 20-74 16-16 72-26v-74h-260v74q49 8 64 26 16 19 16 74v1210q0 51-12 69-16 22-68 29z"/><path transform="translate(49 12.318) scale(.0068359 -.0068359)" d="m512 1653q36 0 68-20 59-38 59-107 0-50-35-87-37-40-92-40-32 0-60 15-67 37-67 112 0 58 44 96 36 31 83 31zm-201-1653v74q85 12 110 32 31 26 31 91v731q0 56-25 76-27 21-102 28v74q122 1 256 41v-950q0-66 29-91 28-23 108-32v-74z"/><path transform="translate(56 12.318) scale(.0068359 -.0068359)" d="m109 0v74q70 12 92 39 21 25 21 84v747q0 48-23 64-26 18-88 24v74q125 1 240 41v-174q33 74 87 119 67 55 145 55 161 0 221-190 32-101 32-261v-499q0-67 24-93 24-25 86-30v-74h-325v74q49 9 65 32 19 28 19 91v505q0 326-145 326-51 0-104-53-60-60-105-176v-602q0-67 20-93 16-21 68-30v-74z"/><path transform="translate(63 12.318) scale(.0068359 -.0068359)" d="m848 272q-88-313-315-313-174 0-279 181-94 161-94 414 0 226 86 386 112 207 303 207 121 0 197-76 76-75 76-161 0-46-26-76-29-33-75-33-64 0-91 57-9 18-9 39 0 59 49 90-26 62-113 62-88 0-152-103-89-141-89-393 0-218 72-352 68-127 166-127 151 0 229 248z"/><path transform="translate(70 12.318) scale(.0068359 -.0068359)" d="m109 0v74q70 12 92 39 21 25 21 84v1198q0 48-23 63-26 18-88 25v74q125 0 240 41v-625q33 74 87 119 67 55 145 55 161 0 221-190 32-101 32-261v-499q0-67 24-93 24-25 86-30v-74h-325v74q49 9 65 32 19 28 19 91v505q0 326-145 326-51 0-104-53-60-60-105-176v-602q0-67 20-93 16-21 68-30v-74z"/><path transform="translate(77 12.318) scale(.0068359 -.0068359)" d="m513 1147q149 0 252-152 115-170 115-446 0-224-76-379-103-211-294-211-165 0-268 169-99 162-99 421 0 309 140 480 97 118 230 118zm-2-98q-85 0-145-108-76-136-76-386 0-224 74-371 64-127 148-127 73 0 134 103 87 149 87 393 0 261-81 397-59 99-141 99z"/></svg>