<svg width="84" height="14" viewBox="0 0 84 14" xmlns="http://www.w3.org/2000/svg"><path transform="translate(0 12.318) scale(.0068359 -.0068359)" d="m123 1608h342q149 0 250-64 170-106 170-347 0-300-262-380v-8q303-92 303-410 0-264-176-381-105-69-248-69h-379zm160-145v-578h170q98 0 170 59 88 74 88 242 0 146-78 219-60 58-170 58zm0-722v-645h207q116 0 187 81 69 80 69 230 0 193-119 280-75 54-176 54z"/><path transform="translate(7 12.318) scale(.0068359 -.0068359)" d="M256 1608H770V1465H598V92H770V-51H256V92H428V1465H256Z"/><path transform="translate(14 12.318) scale(.0068359 -.0068359)" d="m119 1608h772v-140l-471-1031q-90-198-160-320v-8h674v-160h-862v135l481 1038q61 132 158 322v6h-592z"/><path transform="translate(28 12.318) scale(.0068359 -.0068359)" d="m100 1608h164v-1094q0-438 246-438 249 0 249 438v1094h166v-1110q0-210-57-342-29-68-75-119-110-123-282-123-239 0-347 227-64 133-64 357z"/><path transform="translate(35 12.318) scale(.0068359 -.0068359)" d="m80 1608h281q217 0 373-134 239-205 239-695 0-463-215-685-141-145-406-145h-272zm168-156v-1345h127q175 0 278 131 144 183 144 541 0 364-150 548-101 125-264 125z"/><path transform="translate(42 12.318) scale(.0068359 -.0068359)" d="m822-60-23 203q-80-225-285-225-213 0-336 244-108 214-108 606 0 356 106 585 133 288 387 288 199 0 357-201l-108-121q-100 160-250 160-141 0-217-158-95-199-95-562 0-334 66-482 87-195 207-195 114 0 186 111 42 64 59 109 23 64 23 87v219h-258v150h422v-818z"/><path transform="translate(49 12.318) scale(.0068359 -.0068359)" d="m515 1188q193 0 300-182 99-168 99-452 0-265-83-429-107-211-319-211-189 0-295 173-104 170-104 468 0 283 98 451 107 182 304 182zm-4-145q-101 0-160-120-62-128-62-372 0-220 51-345 59-142 173-142 94 0 151 97 74 126 74 390 0 257-69 384-58 108-158 108z"/><path transform="translate(56 12.318) scale(.0068359 -.0068359)" d="m553 1528v-371h279v-139h-279v-776q0-102 11-128 20-49 79-49 66 0 129 58l53-119q-85-80-206-80-158 0-209 123-23 56-23 180v791h-225v139h225v287z"/><path transform="translate(63 12.318) scale(.0068359 -.0068359)" d="m156 1700h162v-737q48 112 133 170 69 47 139 47 116 0 195-102 86-112 86-365v-764h-162v756q0 321-141 321-66 0-131-72-78-87-119-233v-772h-162z"/><path transform="translate(70 12.318) scale(.0068359 -.0068359)" d="M418 1638H608V1421H418ZM430 1157H596V-51H430Z"/><path transform="translate(77 12.318) scale(.0068359 -.0068359)" d="m910 119q-126-205-348-205-201 0-323 165-124 169-124 463 0 227 77 387 50 103 126 167 109 92 247 92 191 0 308-166l-84-125q-50 74-92 103-53 36-128 36-114 0-190-115-92-138-92-380 0-186 59-310 78-163 219-163 60 0 122 39 70 45 120 126z"/></svg>