<svg width="51.977" height="19.375" viewBox="0 0 51.977 19.375" xmlns="http://www.w3.org/2000/svg"><path transform="translate(0 16.25) scale(.0078125 -.0078125)" d="m94 0v71q110 0 148 6t49 21q10 13 11.5 29.5t1.5 90.5v960q0 49-0.5 71t-3 31-9.5 18q-10 15-48.5 20.5t-148.5 5.5v71h695q129 0 235-34t168.5-109 62.5-199q0-94-45.5-159t-117-105-149.5-60q199-35 294-120t95-231q0-178-145.5-278t-390.5-100zm553 1304q-76 0-108.5-19.5t-32.5-76.5v-441h261q130 0 198.5 60.5t68.5 204.5q0 120-45.5 178t-131.5 76-210 18zm-15-1213h151q147 0 233.5 62t86.5 232q0 159-83.5 225t-235.5 66h-278v-464q0-76 26.5-98.5t99.5-22.5z"/><path transform="translate(10.898 16.25) scale(.0078125 -.0078125)" d="m408-29q-129 0-213 53t-124.5 131-40.5 154q0 104 49.5 169.5t133.5 65.5q66 0 108.5-41.5t42.5-106.5q0-49-34.5-87t-84.5-38q-18 0-40.5 9t-37.5 9q-10 0-22-14.5t-12-34.5q0-50 33-94.5t87.5-71.5 120.5-27q72 0 126 28.5t83 76.5q21 35 30.5 69t12 84.5 2.5 134.5v738q0 74-2 92.5t-12 31.5q-10 14-57.5 18t-156.5 4v71h616v-71q-73 0-107.5-2.5t-46.5-8-19-15.5q-10-13-11.5-29.5t-1.5-90.5v-755q0-82-6.5-133.5t-22-87-42.5-70.5q-60-79-144-120t-207-41z"/><path transform="translate(19.289 16.25) scale(.0078125 -.0078125)" d="m1281 850h-63q-41 136-92 249t-132.5 181.5-214.5 68.5q-126 0-207.5-58.5t-127-155.5-63.5-215-18-238q0-313 106-472.5t335-159.5q167 0 282.5 106t155.5 326h74q-33-238-175-374.5t-357-136.5q-197 0-345 91.5t-230 252.5-82 369q0 151 49 284.5t136.5 236 205 160.5 254.5 58q65 0 119-12.5t110.5-44.5 129.5-91l56 133h60z"/><path transform="translate(30.188 16.25) scale(.0078125 -.0078125)" d="m75 0v69q68 0 100.5 6t42.5 19q5 8 8 18.5t3 31.5v551q0 41-8.5 61t-42.5 27-111 7v71l294 21v-336q49 165 124 260t171 95q77 0 121.5-43.5t44.5-120.5q0-55-24.5-89.5t-72.5-34.5q-49 0-73.5 34.5t-24.5 71.5q0 33 19 63 11 16 9 28t-16 12q-40 0-77.5-35t-69.5-94q-48-88-78-210t-30-231v-102q0-34 11-51.5t49.5-23.5 120.5-6v-69z"/><path transform="translate(36.883 16.25) scale(.0078125 -.0078125)" d="m503-28q-196 0-309.5 122.5t-113.5 322.5q0 142 53 253.5t147.5 175.5 217.5 64q118 0 205-59.5t135-166 48-248.5h-630q1-108 30.5-194t91-136 161.5-50q98 0 167.5 51t128.5 160l67-36q-60-134-160-196.5t-239-62.5zm-7 882q-80 0-130.5-53.5t-76-134-31.5-163.5h366q47 0 63.5 29.5t16.5 72.5q0 113-60.5 181t-147.5 68z"/><path transform="translate(44.43 16.25) scale(.0078125 -.0078125)" d="m503-28q-196 0-309.5 122.5t-113.5 322.5q0 142 53 253.5t147.5 175.5 217.5 64q118 0 205-59.5t135-166 48-248.5h-630q1-108 30.5-194t91-136 161.5-50q98 0 167.5 51t128.5 160l67-36q-60-134-160-196.5t-239-62.5zm-7 882q-80 0-130.5-53.5t-76-134-31.5-163.5h366q47 0 63.5 29.5t16.5 72.5q0 113-60.5 181t-147.5 68z"/></svg>