<svg width="135.6" height="16" viewBox="0 0 135.6 16" xmlns="http://www.w3.org/2000/svg"><path transform="translate(0 12.64) scale(.016 -.016)" d="m491 0h-431v750h389q108 0 154-42t46-122q0-81-29-124.5t-79-57.5v-7q145-25 145-198 0-90-47.5-144.5t-147.5-54.5zm-97 299h-94v-123h92q51 0 51 62 0 61-49 61zm-18 287h-76v-112h74q46 0 46 56t-44 56z"/><path transform="translate(11.36 12.64) scale(.016 -.016)" d="m60 780 240 18v-626q19-4 34-6t25-3l-11-176q-153 0-203 18-42 15-63.5 39t-21.5 69z"/><path transform="translate(17.296 12.64) scale(.016 -.016)" d="m344 618q288 0 288-198v-420h-120l-68 68q-18-20-42.5-36t-52.5-27-57-17-56-6q-51 0-91.5 10.5t-68.5 33.5-43 61-15 93q0 216 326 216h48v43q-19 1-34.5 2t-28.5 1q-135 0-233-33l-29 172q120 37 277 37zm-84-412v-49h50q52 0 68 12 14 13 14 31v57h-49q-43 0-63-9t-20-42z"/><path transform="translate(28.176 12.64) scale(.016 -.016)" d="m500 180 15-173q-62-25-161-25-168 0-243 78.5t-75 239.5 75 239.5 243 78.5q107 0 161-25l-29-163q-32 6-57 9.5t-44 3.5q-91 0-91-64v-215q17-3 39.5-5t50.5-2q56 0 116 23z"/><path transform="translate(36.992 12.64) scale(.016 -.016)" d="M660 0 515 314 654 600H395L308 402H300V798L60 780V0H300V238H308L401 0Z"/><path transform="translate(52.544 12.64) scale(.016 -.016)" d="M720 0V750H480V485H300V750H60V0H300V265H480V0Z"/><path transform="translate(65.024 12.64) scale(.016 -.016)" d="m344 618q288 0 288-198v-420h-120l-68 68q-18-20-42.5-36t-52.5-27-57-17-56-6q-51 0-91.5 10.5t-68.5 33.5-43 61-15 93q0 216 326 216h48v43q-19 1-34.5 2t-28.5 1q-135 0-233-33l-29 172q120 37 277 37zm-84-412v-49h50q52 0 68 12 14 13 14 31v57h-49q-43 0-63-9t-20-42z"/><path transform="translate(75.904 12.64) scale(.016 -.016)" d="m60 600h120l60-60q111 78 240 78 85 0 132.5-36.5t47.5-101.5v-480h-240v420h-37q-41 0-62-8.5t-21-37.5v-374h-240z"/><path transform="translate(92.128 12.64) scale(.016 -.016)" d="m30 13 34 198q110-27 199-27 45 0 79.5 1.5t61.5 5.5v60l-108 9q-73 7-122 24t-78.5 46.5-42 71-12.5 97.5q0 77 16 128.5t51 83 90.5 44.5 135.5 13q159 0 288-30l-30-192q-112 18-179 18t-114-6v-59l86-8q79-8 132-26.5t85.5-48.5 46-71 13.5-94q0-76-20-128t-48-79q-23-22-57-34.5t-72-18.5-76.5-7.5-69.5-1.5q-78 0-150 8t-139 23z"/><path transform="translate(103.2 12.64) scale(.016 -.016)" d="m344 618q288 0 288-198v-420h-120l-68 68q-18-20-42.5-36t-52.5-27-57-17-56-6q-51 0-91.5 10.5t-68.5 33.5-43 61-15 93q0 216 326 216h48v43q-19 1-34.5 2t-28.5 1q-135 0-233-33l-29 172q120 37 277 37zm-84-412v-49h50q52 0 68 12 14 13 14 31v57h-49q-43 0-63-9t-20-42z"/><path transform="translate(114.08 12.64) scale(.016 -.016)" d="m60 600h120l60-60q111 78 240 78 85 0 132.5-36.5t47.5-101.5v-480h-240v420h-37q-41 0-62-8.5t-21-37.5v-374h-240z"/><path transform="translate(125.5 12.64) scale(.016 -.016)" d="m118 576q77 42 211 42 135 0 247-37l-28-163q-47 14-93 20t-94 6q-14 0-34.5-1t-46.5-4v-38q55 0 113-5.5t105.5-26 78-61 30.5-110.5q0-49-11-87.5t-34-61.5q-24-23-49.5-37t-66.5-20q-32-5-68.5-7.5t-78.5-2.5q-147 0-269 35l30 170q51-15 105-23t113-8q27 0 51.5 1t47.5 4v38q-96 0-160.5 12.5t-104 38.5-56 68-16.5 100q0 116 78 158z"/></svg>