<svg width="64.638" height="16.338" viewBox="0 0 64.638 16.338" xmlns="http://www.w3.org/2000/svg"><path transform="translate(0 13.048) scale(.014 -.014)" d="m15 59 40 146 24-6v291h119l-140 38 40 146 357-98v-201l-79-22 79-22v-255l-160-93zm107 519 248-68v-99l20 6v87l15-4 5 19-283 78zm182-117-74 20v-167l20 74 54-15zm-139-8h-20v-343l-61 17-5-20 218-59 25 14-157 43zm205-188v-175l20 12v157l15-4 5 19-133 37-5-19zm-191-94 125-34v79l-74 20v-65z"/><path transform="translate(6.58 13.048) scale(.014 -.014)" d="m10 48 31 116v458l151 37v-504l33-9-39-146zm116 545-20-5v-479l-28 9-5-21 82-22 6 20-35 10z"/><path transform="translate(9.87 13.048) scale(.014 -.014)" d="m206-3-191 52 11 41v302h79l30 118 297-78-38-147-20 5v-133l52-14-39-146-169 46zm83 378v-265l-24 7-5-21 97-25 5 19-53 15v264l52-15 5 19-201 56-5-18zm-177-270v251h-20v-246l-9 3-6-21 98-25 5 19zm65 57 46-13v182l-46 12z"/><path transform="translate(16.128 13.048) scale(.014 -.014)" d="m15 48 31 116v415l151 61v-170l203 120v-175l-68-40-64 14 132-77v-251l-151-61v226l-52 30v-101l33-9-39-146zm97 61-29 8-5-20 82-22 5 20-33 9v458l-20-8zm157 328 29-6 57 33v23zm-73-104 119-70v-185l20 8v188l-129 76z"/><path transform="translate(21.938 13.048) scale(.014 -.014)" d="m206-3-191 52 11 41v302h79l30 118 297-78-38-147-20 5v-133l52-14-39-146-169 46zm83 378v-265l-24 7-5-21 97-25 5 19-53 15v264l52-15 5 19-201 56-5-18zm-177-270v251h-20v-246l-9 3-6-21 98-25 5 19zm65 57 46-13v182l-46 12z"/><path transform="translate(30.296 13.048) scale(.014 -.014)" d="m15 49 39 146 15-4v275l-44 12 40 146 176-48-21-77v-120l74-21v168h151v-370l33-9-39-146-176 48 31 116v161l-20-74-54 15v-102h-56l81-22-39-146zm67 50 92-25 5 20-26 7v229l86-24 5 20-91 25v161l19-5 5 21-83 21-5-20 44-12v-411l-46 13zm247-2 81-21 4 20-34 9v372h-20v-367l-26 7z"/><path transform="translate(37.198 13.048) scale(.014 -.014)" d="m14 49 11 41v302h46l36 135 301-83-23-84v-274h-107l-27-101zm286 87h20v243l21-6 4 19-208 59-5-19 168-47zm-124 26 58-16v189l-58 16zm-65-57v238h-20v-233l-11 3-5-20 145-37 5 17z"/><path transform="translate(43.12 13.048) scale(.014 -.014)" d="m10 48 31 116v458l151 37v-504l33-9-39-146zm116 545-20-5v-479l-28 9-5-21 82-22 6 20-35 10z"/><path transform="translate(46.41 13.048) scale(.014 -.014)" d="m10 48 31 116v458l151 37v-504l33-9-39-146zm116 545-20-5v-479l-28 9-5-21 82-22 6 20-35 10z"/><path transform="translate(49.7 13.048) scale(.014 -.014)" d="m14 49 11 41v302h46l36 135 301-83-23-84v-274h-107l-27-101zm286 87h20v243l21-6 4 19-208 59-5-19 168-47zm-124 26 58-16v189l-58 16zm-65-57v238h-20v-233l-11 3-5-20 145-37 5 17z"/><path transform="translate(55.622 13.048) scale(.014 -.014)" d="m15 60 33 124v157l-33 9 39 146 167-46-22-81v-203l55-15 9 33v157l-33 9 39 146 167-46-22-81v-203l64-18v143l-28 157 149 28 30-177v-192l-39-146-200 55-15-55zm67 340 32-10v-268l-26 7-5-19 261-72 5 19v39l210-58 5 19v242l-19 115-20-4 19-114v-234l-195 54v290l-47 13-5-19 32-10v-328l-195 54v290l-47 13z"/></svg>