<svg width="92.64" height="30.72" viewBox="0 0 92.64 30.72" xmlns="http://www.w3.org/2000/svg"><path transform="translate(0 24.32) scale(.016 -.016)" d="m685 902q0-121-54-182.5t-174-81.5v-16q47-6 86.5-21t70.5-42q30-26 51-63t30-78q10-45 10-100 0-58-12.5-108t-37.5-89q-27-41-63-67.5t-79-39.5q-46-14-100-14h-353v1190h344q51 0 95.5-12.5t78.5-36.5q33-25 56.5-58t38.5-81q6-23 9-48t3-52zm-341 68h-49v-247h49q41 0 67 22 12 10 20.5 24t14.5 35q2 10 3 20.5t1 21.5q0 46-18 77-9 14-22 25.5t-29 16.5q-19 5-37 5zm-49-750h61q43 0 71 24 15 12 24 29.5t14 39.5q5 24 5 49 0 24-5.5 47.5t-14.5 40.5q-21 36-55 47-18 6-39 6h-61z"/><path transform="translate(11.76 24.32) scale(.016 -.016)" d="m465-10q-76 0-142 23.5t-118 63.5q-54 40-94.5 94t-63.5 126q-22 66-22 141 0 72 22 139t62 122q42 57 97.5 97t118.5 61q33 11 68 17t72 6q71 0 138.5-23t121.5-62q53-40 94.5-95.5t63.5-122.5q10-33 16-68t6-71q0-60-18.5-129t-66.5-136q-40-56-96-97t-120-63q-33-11-68-17t-71-6zm1 215q33 0 66.5 11t59.5 33q33 26 51.5 56.5t25.5 56.5q5 17 8 35.5t3 37.5q0 39-11 73.5t-30 63.5q-17 24-43 46.5t-63 35.5q-33 11-67 11-72 0-127-43-26-20-47-49.5t-31-63.5q-5-17-8-36t-3-38q0-31 9-66t33-70q19-28 45-49t61-33q33-12 68-12z"/><path transform="translate(26.64 24.32) scale(.016 -.016)" d="M275 0H50V1200H275Z"/><path transform="translate(31.84 24.32) scale(.016 -.016)" d="m640 0h-225q0 6 1.5 15.5t6.5 23.5q5 13 8 22t12 25q3 5 6 10.5t6 10.5l-12 10q-11-22-29-43.5t-37-35.5q-20-16-44-27t-49-15q-13-3-27-4.5t-28-1.5q-189 0-189 253v387q0 98 37 160 17 29 41 49t58 31q30 10 66 10 16 0 37.5-3.5t36.5-8.5q22-10 34.5-17.5t32.5-21.5q16-13 32-31v402h225zm-215 296v278q0 33-13 57-4 7-14.5 16.5t-23.5 13.5-29 4q-14 0-27-3.5t-23-12.5q-10-8-16.5-17.5t-9.5-26.5q-4-16-4-31v-278q0-33 13-56 4-8 14.5-17.5t24.5-13.5q12-4 28-4 14 0 27 3.5t24 12.5q9 8 15.5 17.5t10.5 26.5q3 16 3 31z"/><path transform="translate(42.88 24.32) scale(.016 -.016)" d="m465-10q-76 0-142 23.5t-118 63.5q-54 40-94.5 94t-63.5 126q-22 66-22 141 0 72 22 139t62 122q42 57 97.5 97t118.5 61q33 11 68 17t72 6q71 0 138.5-23t121.5-62q53-40 94.5-95.5t63.5-122.5q10-33 16-68t6-71q0-60-18.5-129t-66.5-136q-40-56-96-97t-120-63q-33-11-68-17t-71-6zm1 215q33 0 66.5 11t59.5 33q33 26 51.5 56.5t25.5 56.5q5 17 8 35.5t3 37.5q0 39-11 73.5t-30 63.5q-17 24-43 46.5t-63 35.5q-33 11-67 11-72 0-127-43-26-20-47-49.5t-31-63.5q-5-17-8-36t-3-38q0-31 9-66t33-70q19-28 45-49t61-33q33-12 68-12z"/><path transform="translate(57.76 24.32) scale(.016 -.016)" d="m50 870h225q0-4-2-16.5t-5-19.5q-4-11-8-22t-12-26q-3-6-6-11.5t-7-11.5l12-10q19 28 36 45.5t38 34.5q19 15 42 26t45 16q11 2 22.5 3.5t23.5 1.5q30 0 59.5-9.5t51.5-28.5q44-40 58-112 3-18 5-38t2-42v-650h-225v610q0 12-2 18.5t-8 17.5q-4 6-12 11t-14 6q-10 2-18 2t-15-1.5-15-3.5q-9-2-15-5.5t-16-8.5q-4-2-7.5-4.5t-7.5-5.5v-636h-225z"/><path transform="translate(68.64 24.32) scale(.016 -.016)" d="m370 610v38q0 47-59 47-51 0-51-49 0-5 1-10.5t7-13.5q6-10 19-23.5t33-30.5q10-9 23.5-20t30.5-23q55-43 89-71t65-61q23-25 39-52.5t22-53.5q6-28 6-58 0-116-73.5-177.5t-214.5-61.5q-110 0-179 39-40 22-61.5 53.5t-29.5 60.5q-12 40-12 84v78h195v-58q0-27 14-44 9-12 16.5-16.5t20.5-7.5q6-2 12.5-3t13.5-1q12 0 22.5 2t23.5 9q18 10 24 28 3 12 3 20 0 10-3 20t-11 21q-7 9-24.5 25t-34.5 30q-11 9-24 19t-29 22q-47 36-84.5 68t-60.5 59q-24 28-38 53t-20 53q-6 27-6 56 0 220 268 220 50 0 93.5-8.5t73.5-24.5q63-35 85-99 10-31 10-73v-65z"/><path transform="translate(78.56 24.32) scale(.016 -.016)" d="m855 438v-73h-608q6-30 19.5-55.5t30.5-43.5q19-20 40-33t51-20q13-4 27.5-6t30.5-2q48 0 88 16t65 45q6 7 11 15t9 16h229q-14-62-41-108t-60-77q-38-38-85.5-65t-103.5-42q-27-7-56-11t-59-4q-77 0-139.5 22.5t-111.5 60.5q-107 82-147 219-20 68-20 146 0 75 21 144t59 123q39 55 91.5 94t115.5 60q64 21 133 21 67 0 131-22.5t113-62.5q51-42 88.5-96t57.5-122q20-66 20-139zm-604 77h383q-16 53-54 91-37 37-87 52-13 3-26 5t-27 2q-51 0-98-27-17-10-35.5-28t-33.5-45q-14-25-22-50z"/></svg>