<svg width="110.15" height="25.062" viewBox="0 0 110.15 25.062" xmlns="http://www.w3.org/2000/svg"><path transform="translate(0 17.781) scale(.0078125 -.0078125)" d="m109 1116-1 20v62q0 129 5 296l-2 2 54 3q261 14 339 14h466q239 0 397-99 56-48 91-129t35-183q0-197-264-335 149-41 228.5-131.5t79.5-221.5q0-232-208-352-153-90-387-90l-298 4q-193 0-512-9-28 59-28 467t5 682zm622-837q259 0 259 181 0 115-70 154-63 34-193 38h-29l-18-56q-7-103-7-202.5t21-114.5zm215 669q20 38 20 92 0 105-75 141t-157 36-82-60q0-107 5-219l2-53q2-38 44-45l49 6q152 18 194 102z"/><path transform="translate(12.273 17.781) scale(.0078125 -.0078125)" d="m1513 605q-2-10-2-12v-8q-3-165-76-297h1q-102-156-284.5-240t-359.5-84-293.5 34.5-215.5 100.5-147 127q-114 144-114 407 0 9 3 15v16q-3 4-3 8l2 11h-1q19 175 74 230 0 11 14 25v-1l15 24q118 151 270 207l35 13q66 32 185 48l32 3q7 1 28.5 2t30.5 4l43-1q3 1 7 1t9-1l-1 1q6-3 18-3 4 4 14 4 217 0 369-89l20-9q327-157 327-536zm-622-6q-4 199-57 269-22 29-53.5 29t-55.5-36.5-38.5-114.5-14.5-138.5 5.5-104 16.5-92 34-81 52-32.5q111 0 111 301z"/><path transform="translate(24.531 17.781) scale(.0078125 -.0078125)" d="m1141 1186 74-478h2q14 76 36 218l16 104 14 74q7 68 14 94h655q-58-271-214-979l-56-220h-636l-22 167q-17 110-35.5 263.5t-20.5 153.5l-88-584h-677q-34 158-69 383.5t-42 269.5l-21 133q0 1-70 414h335l333 1q2-27 5-40l6-43q36-315 44-420h4q4 24 12 80.5t13 87.5l49 293 2 26q109 2 337 2z"/><path transform="translate(39.891 17.781) scale(.0078125 -.0078125)" d="m62 1570 254 1q116 0 360-2v-1570h-612z"/><path transform="translate(45.906 17.781) scale(.0078125 -.0078125)" d="m1476 677 2-18v-6l-1-51q-5-474-305-600-92-38-212-38-164 0-320 147l-46-32-43-84h-512l-1 780v780q205 2 599 2 2-94 2-226.5t-2-250.5q88 75 187 117t188 42q171 0 287-116 23-19 35-38t18-24v1l10-8q61-81 97-212 18-77 18-116t-1-49zm-618-118q0 96-19 175-36 148-110 148-60 0-93-94t-33-264q0-116 59-202 32-45 67.5-45t61.5 26.5 46.5 88 20.5 100-1 41.5v2q1 4 1 11z"/><path transform="translate(57.812 17.781) scale(.0078125 -.0078125)" d="m238-139q93 32 93 181 0 56-38 177l-16 50q-117 375-293 926h305l301 1 45-259q5-43 16-122t16-119l97 500h591v2l20-2-5-20h-2l-264-732q-41-103-61-172.5t-45-130.5-87.5-239.5-119.5-280.5q-90-153-287-166l-94-1-81-4q-23 0-39 3-7-2-21-2l-61 3-39-3q-5 0-25 2-42 0-84 0l-19 51q-2 6-2 15.5t1 13.5v7l1 10v114q0 118-1 175 14 2 30.5 2t26.5-3q14 3 37 3h8q8 5 36 9t43 8 17 4z"/><path transform="translate(74.367 17.781) scale(.0078125 -.0078125)" d="m610 760q0-1-1-5v-3q-4-42-4-94t8.5-110 28-116 60.5-94q44-38 98.5-38t92 15.5 63 39.5 44.5 65q48 109 48 338 0 233-53.5 326.5t-161.5 93.5q-54 0-94.5-26t-61-54-42-119-21.5-168zm-575-8 2 22q12 125 32 221.5t65 180.5q107 185 298.5 280.5t413 95.5 402.5-89q108-53 169-134 117-146 154-269t37-284q0-358-148-546l-46-61q-93-108-263-166.5t-337-60.5q-286 0-469 120-310 201-310 690z"/><path transform="translate(87.219 17.781) scale(.0078125 -.0078125)" d="m316 1196 268 1q5-21 18-66t25-90l19-75q40 101 49 112l16 20q101 142 310 142 99 0 188.5-59.5t139.5-155 50-201.5q0-12-3-19v-615l1-191h-585l-2 500 4 102q0 153-81 153-87 0-87-145 0-32 1-44v-15l1-17v-533l-298-1h-299l-1 600v598z"/><path transform="translate(98.625 17.781) scale(.0078125 -.0078125)" d="m553 1226q45 13 96 13t97-4l42-4q99-9 152-23v1l21-9q210-65 327-198v1q27-32 66.5-96.5t39.5-89.5l8-27 5-29q19-67 19-112t1-69h-824v-33q6-23 6-48t0.5-39.5 2.5-28 2.5-22 4.5-20 4.5-15.5 6-16 9-22.5 13.5-20.5v1l11-21q19-21 52-30 55 12 74.5 57t32.5 112q36 10 102 10l128-3h369q-12-122-72-224h1q-52-82-162-141-311-109-399-109-16 0-26 2h-23l-9-1h-9q-8 0-20 2-10-6-24-6l-87 10q-7-3-28.5-3t-112.5 27v-1l-24 7-24 8q-150 44-257 154.5t-137 257.5q-3 18-11 54.5t-8 49.5v48q0 17 1 26v15q0 212 126 366.5t338 217.5l24 7q53 9 76 19zm299-514 21 13q-17 108-32 138.5t-29 52.5q-26 42-68.5 42t-72.5-42q-53-74-67-208 64 4 118 4z"/></svg>