<svg width="90.352" height="17.92" viewBox="0 0 90.352 17.92" xmlns="http://www.w3.org/2000/svg"><path transform="translate(0 15.04) scale(.016 -.016)" d="m106 625q-13 4-26.5 18t-13.5 25q0 8 7 11 15 6 44 11.5t64.5 10.5 72 7.5 66.5 2.5q80 0 129-20.5t71.5-55.5 22.5-78q0-41-19.5-73t-48-53.5-56.5-32.5q48-5 89-29.5t66-64 25-89.5q0-65-27-107t-72-66-98-35-106.5-14-97.5-3q-22 0-60 2.5t-65 6.5q-20 4-20 18 0 6 6 11.5t16 5.5q7 0 17 0.5t14 1.5zm83-217q29 0 66 2.5t59 6.5q37 7 73 24.5t60.5 45.5 24.5 64q0 50-40 74.5t-124 24.5q-70 0-132-17v-225zm138-50q-34 0-76-2t-75-5v-312q95 0 158.5 11.5t102 30.5 58.5 42 26.5 46 6.5 43q0 41-17 68.5t-44.5 44.5-59.5 24.5-61 8.5z"/><path transform="translate(10.4 15.04) scale(.016 -.016)" d="m92 368q0 31-1 59t-2 45q0 10 19 10 17 0 36-7.5t19-20.5q0-6-1-22t-1.5-33.5-1.5-29.5q40 68 86.5 92.5t101.5 24.5q75 0 123-53t48-155q0-84-31.5-151t-85.5-105.5-122-38.5q-35 0-70 17t-51 38v-94q0-31 2.5-60t2.5-46q0-10-20-10-16 0-34.5 7.5t-18.5 20.5q0 12 1 37.5t1 51.5zm65-267q4 2 7 2 11 0 21-16 20-28 43-37t48-9q27 0 57 15.5t57 45.5 43.5 74 16.5 100q0 52-15 85t-38.5 49-49.5 16q-42 0-79.5-22t-64.5-61-38-90q-3-16-5-44t-2.5-57-0.5-51z"/><path transform="translate(19.552 15.04) scale(.016 -.016)" d="m658 293q0 60-20 96.5t-64 36.5q-30 0-61.5-22t-53-58-21.5-78v-163q0-28 2.5-58.5t2.5-47.5q0-5-6-7.5t-14-2.5q-16 0-34 7.5t-18 20.5q0 8 1 24.5t2 34.5 1 29v188q0 59-16.5 96t-57.5 37q-21 0-45-10t-46-36.5-37-76.5q-12-40-13.5-93.5t-2.5-104.5q0-31 2.5-60t2.5-46q0-10-20-10-16 0-34.5 7.5t-18.5 20.5q0 8 0.5 26.5t1 36.5 0.5 25v251q0 10-1 33t-1.5 47.5-0.5 35.5q0 10 20 10 16 0 34.5-7.5t18.5-20.5q0-10-0.5-23.5t-0.5-33.5q20 41 58.5 65t82.5 24q56 0 85-28t38-65q26 46 68 69.5t85 23.5q52 0 84.5-27.5t47.5-71 15-90.5v-192q0-6 0.5-27t1.5-44 1-35q0-10-20-10-16 0-34.5 7.5t-18.5 20.5q0 8 1 24.5t2 34.5 1 29z"/><path transform="translate(32.608 15.04) scale(.016 -.016)" d="m127 423h-13q-22 0-34.5-1.5t-29.5-2.5h-1q-12 0-22 15t-10 28q0 14 12 14h74l24 1v112q0 39 17 65.5t44.5 40 56.5 13.5q37 0 61-11t36.5-25.5 12.5-25.5q0-15-10-30.5t-21-15.5q-8 0-15 11-11 21-30 28.5t-35 7.5q-19 0-34-15t-15-47v-106l21 1q12 1 29.5 2t33.5 2.5 23 1.5h1q13 0 22.5-15t9.5-28q0-15-12-15-7 0-25 0t-38 0-33-1l-32-1v-321q0-31 1.5-60t1.5-46q0-10-20-10-16 0-34.5 7.5t-18.5 20.5q0 12 1 42.5t1 56.5z"/><path transform="translate(44.128 15.04) scale(.016 -.016)" d="m277 58q8 0 18-9.5t10-23.5q1-10-2.5-17t-11.5-7q-23-1-46.5-1t-43.5-2q-20-1-48-1.5t-48-2.5q-9-1-21.5 9.5t-13.5 23.5q0 10 3 17t12 7 27 0.5 36 0.5q1 14 1.5 34.5t0.5 40.5v442q0 21-1 42t-1 38q-11-1-21.5-1t-19.5-1-21.5 9.5-13.5 23.5q0 10 3 17t12 7q10 0 28.5 0.5t38 1 33.5 0.5q30 2 52.5 3.5t35.5 1.5q8 0 18-9.5t10-23.5q1-10-2.5-17t-11.5-7q-16-1-32-1t-31-1q0-13-1-36.5t-1-47.5v-442q0-18 0.5-36.5t1.5-34.5q17 1 30 2t21 1z"/><path transform="translate(50.128 15.04) scale(.016 -.016)" d="m63 118q0 80 72 140 32 26 77.5 40t93 9.5 85.5-35.5q3 60-13.5 93.5t-44.5 47-62 13.5q-45 0-75-13t-48.5-32-28.5-36q-4-7-11-7-13 0-28 17t-15 34q0 8 13 23.5t39 32.5 63.5 29 86.5 12q78 0 121.5-31.5t61-80.5 14.5-102q-4-97 5.5-150t30.5-87q1-2 1-6 0-11-13.5-26.5t-30.5-15.5q-12 0-22.5 17t-18 39-11.5 37q-30-41-74-69.5t-110-28.5q-55 0-90 21t-51.5 52.5-16.5 62.5zm321 70q-31 43-69.5 54.5t-76 0.5-66.5-36q-24-21-33-44t-9-46q0-36 26-55t66-19q41 0 77 18t59.5 51 25.5 76z"/><path transform="translate(59.136 15.04) scale(.016 -.016)" d="m428 17q0 8 0.5 27t1 39.5 0.5 31.5v178q0 59-16 94.5t-66 35.5q-34 0-68.5-13t-62.5-43-43-80q-7-25-10.5-58.5t-4.5-66.5-1-57v-16q0-24 1-47t2-43q0-10-19-10-16 0-34 7.5t-18 20.5q0 8 0.5 29t1 41.5 0.5 27.5v249q0 10-1 31t-1.5 43-0.5 33q0 10 19 10 16 0 34-7.5t18-20.5q0 0-0.5-14t-1-32-0.5-31q32 53 83.5 81t106.5 28q48 0 77.5-17.5t45-45.5 20.5-61 5-64v-192q0-6 1-27t1.5-44 0.5-35q0-10-19-10-16 0-34 7.5t-18 19.5z"/><path transform="translate(68.544 15.04) scale(.016 -.016)" d="m195 242q-56 13-84 40.5t-28 73.5q0 39 25 68t67 45.5 91 16.5q58 0 95-16.5t65-46.5q2-2 2-9 0-13-10.5-29t-21.5-16q-6 0-16 13-15 23-37.5 33.5t-43.5 13-33 2.5q-58 0-88-22.5t-30-54.5q0-20 13.5-34t54.5-24l96-23q65-15 102.5-49t37.5-96q0-40-23.5-73t-66.5-53-102-20q-58 0-96.5 14t-61.5 33-33 35-10 21q0 15 14.5 31.5t25.5 16.5q7 0 10-7 8-20 22.5-40t44.5-33 84-13q61 0 93.5 26t32.5 60q0 35-18 57t-73 35z"/><path transform="translate(76.704 15.04) scale(.016 -.016)" d="m500 457q0-18-6-76t-6-144q0-8 0.5-31.5t4-54.5 11.5-62 22-54q1-2 1-6 0-11-13.5-26.5t-30.5-15.5q-13 0-22 13.5t-15 34.5-9.5 42.5-4.5 36.5q-27-55-77.5-93.5t-112.5-38.5q-58 0-90.5 27t-46 70-13.5 92v197q0 6-1 27t-1.5 44.5-0.5 34.5q0 10 20 10 16 0 34.5-7.5t18.5-20.5q0-8-0.5-24.5t-1-34-0.5-29.5v-193q0-58 21-95.5t61-37.5q41 0 81.5 33t69 91.5 32.5 134.5q1 16 1 41.5t0 52.5v80q0 10 21 10 17 0 35-7t18-19z"/><path transform="translate(86.144 15.04) scale(.016 -.016)" d="m180 636q0-19-13-32.5t-36-13.5q-19 0-34.5 19.5t-15.5 40.5q0 20 12.5 34t37.5 14q18 0 33.5-20t15.5-42zm-83-268q0 10-1 31t-1.5 43-0.5 33q0 9 19 9 17 0 36-7.5t19-19.5q0-8-0.5-24.5t-1-34.5-0.5-30v-263q0-6 1-27t1.5-44 0.5-35q0-9-19-9-16 0-35.5 7.5t-19.5 19.5q0 8 0.5 26.5t1 36.5 0.5 25z"/></svg>