<svg width="135.55" height="17.92" viewBox="0 0 135.55 17.92" xmlns="http://www.w3.org/2000/svg"><path transform="translate(0 15.04) scale(.016 -.016)" d="m52 0v36l104 11q3 96 3 291v55q0 194-3 290l-104 11v35h301q112 0 175-49 60-47 60-127 0-62-40-106-44-48-131-67 105-14 159-64 49-46 49-118 0-83-65-137-75-61-214-61zm274 41q104 0 157 40.5t53 116.5q0 160-224 160h-70q0-219 3-317zm-21 357q199 0 199 152 0 72-43 105t-135 33h-81q-3-94-3-290z"/><path transform="translate(10.8 15.04) scale(.016 -.016)" d="m40-262v32l91 13q2 120 2 183v316q0 90-4 153l-90 7v32l145 53 14-10 6-72q74 83 169 83 89 0 147-72 59-74 59-195 0-125-62-201-62-74-159-74-91 0-153 75v-93q0-94 3-185l103-13v-32zm412 350q47 57 47 164.5t-42 168.5q-40 57-107 57-69 0-141-65v-316q60-60 132-60 69 0 111 51z"/><path transform="translate(20.88 15.04) scale(.016 -.016)" d="m45 0v32l84 12q3 84 3 184v55q0 60-4 144 0 5 0 8l-89 7v32l144 53 14-10 8-92q44 48 93 75 51 28 100 28 103 0 127-105 86 105 199 105 137 0 137-188v-112q0-73 2-183l79-13v-32h-243v32l85 12q2 112 2 184v102q0 75-24 107-23 28-72 28-78 0-159-80 3-24 3-53v-104q0-73 2-183l79-13v-32h-243v32l85 12q2 110 2 184v100q0 75-23 107-22 30-70 30-73 0-158-78v-159q0-73 2-183l79-13v-32z"/><path transform="translate(36.496 15.04) scale(.016 -.016)" d="m38 0v32l93 13q2 122 2 183v240h-96v37l97 12q5 88 23 143 17 55 53 92 58 65 145 65 38 0 63-13 28-14 36-40-2-19-16.5-30.5t-39.5-11.5q-35 0-75 31l-29 23q-29-15-47-44-44-65-40-218h157v-46h-155v-240q0-61 2-183l102-13v-32z"/><path transform="translate(46.784 15.04) scale(.016 -.016)" d="M24 0V35L456 685H121L90 539H37L46 729H552V696L123 45H490L522 192H574L566 0Z"/><path transform="translate(56.368 15.04) scale(.016 -.016)" d="m41 0v32l86 13q2 110 2 183v56q0 102-2 152l-92 6v33l157 52 15-10-3-142v-147q0-73 2-183l79-13v-32zm123 785q28 0 46-17t18-44-18.5-44-45.5-17-45 17-18 44 18 44 45 17z"/><path transform="translate(61.568 15.04) scale(.016 -.016)" d="m37 0v32l86 13q2 110 2 183v498l-91 8v31l153 42 15-9-4-154v-221q44 49 97 77 55 28 106 28 70 0 103-45 34-47 34-151v-104q0-73 2-183l80-13v-32h-244v32l85 12q2 112 2 184v100q0 76-24 108-22 30-72 30-82 0-166-80v-158q0-72 2-184l79-12v-32z"/><path transform="translate(72.048 15.04) scale(.016 -.016)" d="m41 0v32l86 13q2 110 2 183v56q0 102-2 152l-92 6v33l157 52 15-10-3-142v-147q0-73 2-183l79-13v-32zm123 785q28 0 46-17t18-44-18.5-44-45.5-17-45 17-18 44 18 44 45 17z"/><path transform="translate(81.376 15.04) scale(.016 -.016)" d="m52 0v36l104 11q3 95 3 290v55q0 195-3 291l-104 11v35h297v-35l-107-12q-2-94-2-290v-84l305 372-93 14v35h249v-35l-101-14-192-231 226-403 88-10v-36h-272v36l96 10-188 343-118-142q0-127 2-200l107-11v-36z"/><path transform="translate(92.944 15.04) scale(.016 -.016)" d="m94 20q-42 36-42 98 0 53 37 89 40 41 138 76 78 24 133 36v32q0 80-26 110-24 27-83 27-38 0-70-11l-22-74q-12-44-49-44-41 0-44 38 16 61 70.5 96t134.5 35q85 0 124-41 41-43 41-139v-237q0-76 43-76 23 0 45 24l17-21q-33-50-87-50-38 0-61.5 23.5t-30.5 65.5q-49-50-81-69-39-22-85-22-63 0-102 34zm190 40q26 14 76 54v173q-69-19-112-36-67-25-94-58-21-26-21-61 0-43 26-66 24-21 66-21 30 0 59 15z"/><path transform="translate(101.78 15.04) scale(.016 -.016)" d="m41 0v32l86 13q2 110 2 183v56q0 102-2 152l-92 6v33l157 52 15-10-3-142v-147q0-73 2-183l79-13v-32zm123 785q28 0 46-17t18-44-18.5-44-45.5-17-45 17-18 44 18 44 45 17z"/><path transform="translate(111.1 15.04) scale(.016 -.016)" d="m140 1q-52 16-91 41l5 150h51l24-132q54-31 123-31 84 0 132 36 50 38 50 106 0 53-34 86-32 32-112 64l-41 16q-89 36-133 84-50 54-50 129 0 91 69 145 65 51 167 51 98 0 176-57l-5-140h-53l-24 127q-42 25-96 25-71 0-113-33-45-34-45-97 0-53 34-89 30-34 93-58l43-16q110-44 155-94t45-126q0-94-72-150-69-54-181-54-58 0-117 17z"/><path transform="translate(120.02 15.04) scale(.016 -.016)" d="m108 112q0 11 0 34 1 31 1 53v269h-98v37l102 12 24 148h55l-6-151h150v-46h-151v-352q0-84 65-84 35 0 76 29l20-25q-44-50-120-50-118 0-118 126z"/><path transform="translate(125.68 15.04) scale(.016 -.016)" d="m51 252q0 124 66 201 64 75 166 75 84 0 146-73v271l-94 8v31l156 42 14-9-3-153v-602l96-11v-32l-164-10-6 76q-63-80-156-80-98 0-159.5 74.5t-61.5 191.5zm375-146v310q-66 62-131 62-71 0-114-53-49-59-49-171 0-109 46-166 42-52 114-52 39 0 70 16t64 54z"/></svg>