<svg width="61.124" height="19.012" viewBox="0 0 61.124 19.012" xmlns="http://www.w3.org/2000/svg"><path transform="translate(0 15.078) scale(.014 -.014)" d="m39 665h282q216 0 216-167 0-92-92-140 59-15 92.5-55t33.5-104q0-97-65.5-148t-190.5-51h-281v81l33 3q29 3 29 28v465l-57 3zm179-362v-209h94q130 0 130 106 0 50-32.5 76.5t-92.5 26.5zm0 270v-181h74q62 0 91.5 25.5t29.5 71.5-29.5 65-84.5 19z"/><path transform="translate(8.428 15.078) scale(.014 -.014)" d="m95 112v277q0 16-5.5 22.5t-19.5 7.5l-42 3v81h169v-75q18 39 56 64.5t87.5 25.5 94.5-22v-149l-93-7v46q0 20-10 25-11 5-27 5-40 0-65.5-28.5t-25.5-72.5v-232l87-4v-79h-268v76l33 3q15 2 22 8.5t7 24.5z"/><path transform="translate(14.896 15.078) scale(.014 -.014)" d="m284 518q75 0 119-36.5t44-102.5q0-44-19-77.5t-47-52.5-68-31q-67-20-151-20 3-53 33-85.5t92-32.5 124 44l38-81q-20-18-67.5-37t-108.5-19q-122 0-179 67.5t-57 185.5 65 198 182 80zm53-146q0 61-60 61-56 0-86-44.5t-33-106.5q44 1 80.5 7.5t67.5 29 31 53.5z"/><path transform="translate(21.672 15.078) scale(.014 -.014)" d="m284 518q75 0 119-36.5t44-102.5q0-44-19-77.5t-47-52.5-68-31q-67-20-151-20 3-53 33-85.5t92-32.5 124 44l38-81q-20-18-67.5-37t-108.5-19q-122 0-179 67.5t-57 185.5 65 198 182 80zm53-146q0 61-60 61-56 0-86-44.5t-33-106.5q44 1 80.5 7.5t67.5 29 31 53.5z"/><path transform="translate(31.248 15.078) scale(.014 -.014)" d="m241 90q120 0 120 96 0 50-53 74-28 14-72.5 26t-74 24.5-59.5 34.5q-59 44-59 135.5t63.5 144 166 52.5 190.5-41v-150l-102-7v58q0 15-4 22-11 19-70.5 19t-88-21-28.5-65q0-32 24-56 16-16 47.5-26.5t67-21.5 63-24 57.5-36q61-45 61-139t-67.5-148-178-54-198.5 41v158l102 7v-61q0-15 4-22t24.5-13.5 64.5-6.5z"/><path transform="translate(38.556 15.078) scale(.014 -.014)" d="m284 518q75 0 119-36.5t44-102.5q0-44-19-77.5t-47-52.5-68-31q-67-20-151-20 3-53 33-85.5t92-32.5 124 44l38-81q-20-18-67.5-37t-108.5-19q-122 0-179 67.5t-57 185.5 65 198 182 80zm53-146q0 61-60 61-56 0-86-44.5t-33-106.5q44 1 80.5 7.5t67.5 29 31 53.5z"/><path transform="translate(45.332 15.078) scale(.014 -.014)" d="m95 112v277q0 16-5.5 22.5t-19.5 7.5l-42 3v81h169v-75q18 39 56 64.5t87.5 25.5 94.5-22v-149l-93-7v46q0 20-10 25-11 5-27 5-40 0-65.5-28.5t-25.5-72.5v-232l87-4v-79h-268v76l33 3q15 2 22 8.5t7 24.5z"/><path transform="translate(51.8 15.078) scale(.014 -.014)" d="m214 503v-420l57-3v-80h-238v76l33 3q29 3 29 32v278q0 17-5.5 23t-19.5 6l-35 2v83zm-126 86.5q-21 20.5-21 52.5t21 53.5 55 21.5 55.5-21.5 21.5-53.5-21.5-52.5-55.5-20.5-55 20.5z"/><path transform="translate(55.944 15.078) scale(.014 -.014)" d="m96 112v307h-86v84h86v38q0 98 45 141 42 41 123 41t144-35l-29-80q-48 25-90 25t-58-20.5-16-62.5v-47h148v-84h-148v-335l84-4v-80h-265v76l33 3q15 2 22 8.5t7 24.5z"/></svg>