<svg width="86.814" height="16.38" viewBox="0 0 86.814 16.38" xmlns="http://www.w3.org/2000/svg"><path transform="translate(0 12.88) scale(.014 -.014)" d="m414 343v12q65 0 117-19.5t83-55.5 31-89q0-54-24-90.5t-62-58.5-81.5-32-82.5-10h-345v35h80l5 5v590l-5 5h-80v35h305q43 0 87-7.5t81-25 59.5-48 22.5-76.5q0-65-54-107.5t-137-62.5zm-184 292-5-5v-274l-45 9h155q49 0 88.5 12.5t63 43.5 23.5 84q0 45-24 73.5t-64 42.5-87 14zm145-600q49 0 88.5 14.5t63 47.5 23.5 86q0 45-24 78t-64 51-87 18h-195l45 11v-301l5-5z"/><path transform="translate(9.52 12.88) scale(.014 -.014)" d="m212 350q29 51 71.5 86t91.5 34q25 0 40.5-9t22.5-23.5 7-32.5q0-26-17-43t-43-17-43 17-17 43q0 9 6 24t13 22l-1-26q-19-6-39-20t-42.5-43-49.5-82zm0-310 5-5h115v-35h-280v35h75l5 5v380l-5 5h-75v35q26 0 50.5 0.5t49 1.5 50.5 3l5-5v-110h5z"/><path transform="translate(16.03 12.88) scale(.014 -.014)" d="m238-30-174 455h-70v35h231v-35h-65l-5-5 121-330h5l122 330-5 5h-70v35h182v-35h-60l-159-425zm-143-230q-37 0-57.5 16t-28.5 36.5-8 34.5q0 24 14.5 39.5t35.5 15.5 35.5-14.5 14.5-35.5-15-33.5-35-12.5q-11 0-21 5.5t-16 14.5-6 21h30q0-10 4.5-23.5t17-23.5 35.5-10q32 0 57 29t46 75 40 96l53 30q-20-49-39-95.5t-40.5-83.5-50-59-66.5-22z"/><path transform="translate(23.226 12.88) scale(.014 -.014)" d="m258 470q47 0 93.5-17.5t77.5-53 31-89.5-31-89.5-77.5-53-93.5-17.5q-46 0-92 17.5t-76 53-30 89.5 30 89.5 76 53 92 17.5zm6-285q45 0 78 32t33 87q0 44-18.5 73t-46.5 43.5-58 14.5q-47 0-77-33t-30-86q0-43 17.5-72t44.5-44 57-15zm-134-77q0-24 20.5-35.5t54.5-16 74.5-6.5 81-6.5 74.5-17 54.5-38 20.5-69.5q0-82-68-130.5t-183-48.5q-33 0-69.5 5.5t-68.5 20.5-51.5 41.5-19.5 68.5q0 41 25 71t68 51l30-9q-25-21-34-46.5t-9-50.5q0-51 35.5-84t103.5-33q52 0 95 13.5t69.5 40 26.5 65.5q0 30-21 45t-56 21.5-76.5 9-83 6.5-76.5 14-56 31.5-21 59.5q0 40 21.5 65t49.5 40l25-13q-19-15-27.5-33t-8.5-32zm200 344q24 41 58 67t68 26q28 0 41-15t13-34q0-20-13.5-33t-31.5-13q-19 0-32 13t-13 32q0 8 4.5 18t10.5 16l-1-27q-16-5-36-22t-38-49z"/><path transform="translate(30.786 12.88) scale(.014 -.014)" d="m434-10q-34 0-58 15t-31 45v250q0 61-22.5 95.5t-79.5 34.5q-31 0-57.5-6.5t-49.5-23.5q16-9 22.5-22t6.5-28q0-22-15-36t-35-14q-21 0-35.5 15t-14.5 41 16 47 43 36 60.5 23 67.5 8q48 0 87-13.5t62.5-47 23.5-94.5v-238q0-14 6.5-28t25.5-14q14 0 25 10t21 23l27-23q-12-17-26-29.5t-31-19-39-6.5zm-234 0q-79 0-122 39t-43 93q0 55 43 93.5t122 38.5q50 0 86-17t59-43v-45q-32 34-65 47t-62 13q-47 0-75-23.5t-28-63.5q0-39 28-63t75-24q29 0 62 13t65 47v-45q-23-26-59-43t-86-17z"/><path transform="translate(38.136 12.88) scale(.014 -.014)" d="m495 40 5-5h75v-35q-26 0-51.5-0.5t-51.5-1.5-52-3l-5 5v85q-19-35-59.5-65t-99.5-30q-60 0-106.5 29.5t-73 83-26.5 125.5 26.5 126.5 73 85 106.5 30.5q63 0 101.5-28t57.5-67v315l-5 5h-75v35q26 0 52 0.5t51.5 1.5 51.5 3l5-5zm-80 115v150q-28 64-66 92t-79 28q-57 0-93.5-43.5t-36.5-141.5 36.5-151.5 93.5-53.5q41 0 79 28t66 92z"/><path transform="translate(46.634 12.88) scale(.014 -.014)" d="m434-10q-34 0-58 15t-31 45v250q0 61-22.5 95.5t-79.5 34.5q-31 0-57.5-6.5t-49.5-23.5q16-9 22.5-22t6.5-28q0-22-15-36t-35-14q-21 0-35.5 15t-14.5 41 16 47 43 36 60.5 23 67.5 8q48 0 87-13.5t62.5-47 23.5-94.5v-238q0-14 6.5-28t25.5-14q14 0 25 10t21 23l27-23q-12-17-26-29.5t-31-19-39-6.5zm-234 0q-79 0-122 39t-43 93q0 55 43 93.5t122 38.5q50 0 86-17t59-43v-45q-32 34-65 47t-62 13q-47 0-75-23.5t-28-63.5q0-39 28-63t75-24q29 0 62 13t65 47v-45q-23-26-59-43t-86-17z"/><path transform="translate(57.204 12.88) scale(.014 -.014)" d="m225 0v571q-19-22-52.5-45.5t-64.5-40.5l-18 33q12 6 35.5 21.5t50 37 49.5 45.5 35 48h55v-670zm-135 0v35h130l5 5h90l5-5h130v-35z"/><path transform="translate(64.204 12.88) scale(.014 -.014)" d="m258-10q-50 0-93 17.5t-69.5 49-26.5 71.5q0 28 16.5 45t39.5 17 38.5-16 15.5-40q0-14-9-29t-34-24q18-27 53-39t69-12q64 0 100.5 41t51.5 116.5 15 178.5q0 111-20.5 170t-55.5 81.5-78 22.5q-59 0-95-40.5t-36-125.5 37.5-126 91.5-41q49 0 94 31t82 92v-55q-26-44-71.5-76t-112.5-32q-37 0-75.5 12t-70 36.5-51 62-19.5 88.5q0 71 34 118.5t87 71.5 109 24q44 0 87.5-14.5t79-49.5 57-94.5 21.5-149.5q0-117-31-202.5t-89.5-132.5-141.5-47z"/><path transform="translate(72.114 12.88) scale(.014 -.014)" d="m225 0v571q-19-22-52.5-45.5t-64.5-40.5l-18 33q12 6 35.5 21.5t50 37 49.5 45.5 35 48h55v-670zm-135 0v35h130l5 5h90l5-5h130v-35z"/><path transform="translate(79.114 12.88) scale(.014 -.014)" d="m270-10q-38 0-77.5 9t-73 29-54 53-20.5 81q0 52 23 90t59.5 64 74.5 40l49-15q-41-15-78-38t-60-56-23-78q0-40 17.5-66.5t45-42.5 58.5-23 58-7q42 0 79 14.5t59.5 42 22.5 67.5q0 37-20 62.5t-53 43-72.5 32.5-79 31.5-72.5 38.5-53 55-20 81q0 57 29 97.5t77.5 62.5 108.5 22q51 0 96.5-17t74.5-52 29-90q0-50-29-90t-92-75l-57 10q72 35 102.5 71.5t30.5 80.5-23.5 70.5-59.5 39-72 12.5q-60 0-100-30t-40-83q0-37 20-61.5t53-42 72.5-31.5 79-30.5 72.5-39.5 53-58 20-86q0-43-14.5-75t-38.5-53.5-54.5-34.5-63.5-19-64-6z"/></svg>