<svg width="32.297" height="20" viewBox="0 0 32.297 20" xmlns="http://www.w3.org/2000/svg"><path transform="translate(0 14.344) scale(.0078125 -.0078125)" d="m216 0v1400h430q225 0 344.5-86.5t119.5-247.5q0-135-89.5-227t-208.5-121q392-25 392-348 0-98-39-171t-109.5-115.5-159.5-63-198-20.5zm120 680v-560h340q209 0 303.5 68t94.5 212q0 145-93 212.5t-315 67.5zm0 50h264q103 0 179.5 23.5t118.5 63.5 62 88 20 103q0 132-78.5 202t-267.5 70h-298z"/><path transform="translate(10.438 14.344) scale(.0078125 -.0078125)" d="m854 862v-726q0-27 2-40t12.5-29 35.5-22.5 68-6.5v-38h-218v182q-119-98-206.5-145t-185.5-47q-196 0-196 242v630h102v-582q0-121 33-161.5t109-40.5q86 0 184 51t160 113v620z"/><path transform="translate(18.297 14.344) scale(.0078125 -.0078125)" d="m688 0v187q-6-14-11.5-25t-30.5-47-52.5-59.5-75-44.5-100.5-21q-46 0-90 14t-87.5 47.5-76 82.5-52.5 125.5-20 170.5q0 95 21.5 171t56 123.5 81 79 93 44 94.5 12.5q54 0 100-13.5t72-30 46-38.5 25-30.5 7-13.5v528q0 27-2 40t-12.5 29-35.5 22.5-68 6.5v40h220v-1258q0-27 2-40t12.5-29 35.5-22.5 68-6.5v-44zm-242 758q-125 0-185.5-91t-60.5-249q0-180 66-278t178-98q54 0 102.5 34t78 82 46.5 95.5 17 78.5v232q0 23-16 54.5t-44.5 63.5-77 54-104.5 22z"/><path transform="translate(25.75 14.344) scale(.0078125 -.0078125)" d="m412 872q77 0 133-15t87.5-38 50-60 24-72 5.5-83v-604h-90l-10 160q-49-79-137-121.5t-159-42.5q-97 0-168.5 56.5t-71.5 171.5q0 63 24 112t68 79 94 50 116 29.5 118.5 12.5 115.5 3q0 8-2 90-1 44-8 73t-27 55.5-60.5 39-102.5 12.5q-116 0-232-48l-18 86 29 14q29 13 91.5 26.5t129.5 13.5zm200-576t0 170q-426 0-426-230 0-78 47.5-126t126.5-48q97 0 174.5 74.5t77.5 159.5z"/></svg>