<svg width="67.84" height="21.12" viewBox="0 0 67.84 21.12" xmlns="http://www.w3.org/2000/svg"><path transform="translate(0 16.32) scale(.016 -.016)" d="m489 0h-384q-36 0-36 36v648q0 36 36 36h319q98 0 145-37t47-116v-48q0-83-59-108 65-6 95.5-43.5t30.5-111.5v-92q0-84-47-124t-147-40zm-195 288v-118h130q38 0 38 40v39q0 39-38 39zm0 262v-108h85q38 0 38 40v28q0 40-38 40z"/><path transform="translate(11.6 16.32) scale(.016 -.016)" d="m682 189q0-46-13.5-83.5t-48-64.5-94.5-41.5-153-14.5-153 14.5-94.5 41.5-48 64.5-13.5 83.5v495q0 36 36 36h157q36 0 36-36v-456q0-20 15-33.5t67-13.5q53 0 68 13.5t15 33.5v456q0 36 36 36h152q36 0 36-36z"/><path transform="translate(23.536 16.32) scale(.016 -.016)" d="m255 0h-150q-36 0-36 36v648q0 36 36 36h104q36 0 59-27l194-222v213q0 36 36 36h150q36 0 36-36v-648q0-36-36-36h-150q-36 0-36 36v123l-171 207v-330q0-36-36-36z"/><path transform="translate(35.584 16.32) scale(.016 -.016)" d="m619 0h-315q-126 0-186 50t-60 154v312q0 104 60 154t186 50h250q36 0 36-36v-121q0-36-36-36h-208q-61 0-61-50v-239q0-49 46-49h97v156q0 36 36 36h155q36 0 36-36v-309q0-36-36-36z"/><path transform="translate(46.912 16.32) scale(.016 -.016)" d="m569 0h-464q-36 0-36 36v648q0 36 36 36h464q36 0 36-36v-117q0-36-36-36h-276v-77h195q36 0 36-36v-107q0-36-36-36h-195v-86h276q36 0 36-36v-117q0-36-36-36z"/><path transform="translate(57.376 16.32) scale(.016 -.016)" d="m569 0h-464q-36 0-36 36v648q0 36 36 36h464q36 0 36-36v-117q0-36-36-36h-276v-77h195q36 0 36-36v-107q0-36-36-36h-195v-86h276q36 0 36-36v-117q0-36-36-36z"/></svg>