<svg width="128.86" height="18.48" viewBox="0 0 128.86 18.48" xmlns="http://www.w3.org/2000/svg"><path transform="translate(0 14.28) scale(.014 -.014)" d="m91-119q-46 0-46 46v648q0 25 14 37l129 109q11 9 32 9h319q105 0 153.5-40t48.5-123v-48q0-70-38-100l-3-2q55-12 81.5-51t26.5-110v-92q0-89-52-132l-129-109q-49-42-152-42zm513 119q100 0 147 40t47 124v92q0 74-30.5 111.5t-95.5 43.5q59 25 59 108v48q0 79-47 116t-145 37h-319q-36 0-36-36v-648q0-36 36-36zm-309 630h203q56 0 84-14.5t37.5-38.5 9.5-53v-64q0-30-10.5-55t-53.5-36q56 0 83.5-15t37-41 9.5-59v-64q0-29-9.5-52t-37.5-35.5-84-12.5h-269zm10-271v-259h259q50 0 76 11t35.5 31.5 9.5 47.5v64q0 30-9 53.5t-34.5 37.5-76.5 14zm193 10q55 0 80.5 13t33 33.5 7.5 44.5v64q0 27-9 49t-35 34.5-77 12.5h-193v-251zm-89-81h130q38 0 38-39v-39q0-40-38-40h-130zm0 262h85q38 0 38-40v-28q0-40-38-40h-85z"/><path transform="translate(11.55 14.28) scale(.014 -.014)" d="m359-134q-97 0-159.5 20t-97.5 54.5-48.5 78.5-13.5 91v465q0 25 14 37l129 109q11 9 32 9h157q46 0 46-46v-456q0-9 3-16t13-12v375q0 26 12 36l1 1 130 109q11 9 32 9h152q46 0 46-46v-495q0-46-13-84.5t-47-67.5l-130-108q-35-30-97-46.5t-161-16.5zm438 323v495q0 36-36 36h-152q-36 0-36-36v-456q0-20-15-33.5t-68-13.5q-52 0-67 13.5t-15 33.5v456q0 36-36 36h-157q-36 0-36-36v-495q0-46 13.5-83.5t48-64.5 94.5-41.5 153-14.5 153 14.5 94.5 41.5 48 64.5 13.5 83.5zm-508 441h10v-417q0-37 16.5-65.5t58-44 115.5-15.5q75 0 116.5 15.5t58 44 16.5 65.5v417h10v-417q0-40-17.5-70.5t-61-47.5-122.5-17q-78 0-121.5 17t-61 47.5-17.5 70.5z"/><path transform="translate(23.394 14.28) scale(.014 -.014)" d="m402-1-130-108q-10-10-31-10h-150q-46 0-46 46v648q0 25 14 37l129 109q11 9 32 9h104q40 0 67-30l69-80 121 101q11 9 32 9h150q46 0 46-46v-648q0-25-14-37l-130-108q-10-10-31-10h-150q-46 0-46 46v119l-22 27v-37q0-25-14-37zm-32 1q36 0 36 36v330l171-207v-123q0-36 36-36h150q36 0 36 36v648q0 36-36 36h-150q-36 0-36-36v-213l-194 222q-23 27-59 27h-104q-36 0-36-36v-648q0-36 36-36zm-54 622 368-414v422h10v-540h-10v103l-378 424q-3 3-5 3t-2-3v-527h-10v529q0 12 12 12 6 0 15-9z"/><path transform="translate(35.336 14.28) scale(.014 -.014)" d="m605-119h-315q-88 0-144.5 31t-84 86-27.5 127v282q0 108 63 162l129 109q62 52 193 52h250q46 0 46-46v-121q0-25-14-37l-130-108q-10-10-31-10h-130v-144q2 3 8 9l129 109q11 9 32 9h155q46 0 46-46v-309q0-25-14-37l-130-108q-10-10-31-10zm129 119q36 0 36 36v309q0 36-36 36h-155q-36 0-36-36v-156h-97q-46 0-46 49v239q0 50 61 50h208q36 0 36 36v121q0 36-36 36h-250q-126 0-186-50t-60-154v-312q0-104 60-154t186-50zm-73 291v-201h-199q-73 0-112 13t-53.5 41.5-14.5 74.5v280q0 48 13.5 76.5t48 41.5 98.5 13h173v-10h-173q-59 0-91.5-11.5t-45.5-38-13-71.5v-280q0-43 14.5-69.5t51.5-38 104-11.5h189v191z"/><path transform="translate(46.648 14.28) scale(.014 -.014)" d="m555-119h-464q-46 0-46 46v648q0 25 14 37l129 109q11 9 32 9h464q46 0 46-46v-117q0-25-14-37l-86-71q19-10 19-41v-107q0-25-14-37l-89-75h138q46 0 46-46v-117q0-25-14-37l-130-108q-10-10-31-10zm129 119q36 0 36 36v117q0 36-36 36h-276v86h195q36 0 36 36v107q0 36-36 36h-195v77h276q36 0 36 36v117q0 36-36 36h-464q-36 0-36-36v-648q0-36 36-36zm-54 100v-10h-337v540h337v-10h-327v-251h246v-10h-246v-259z"/><path transform="translate(57.204 14.28) scale(.014 -.014)" d="m555-119h-464q-46 0-46 46v648q0 25 14 37l129 109q11 9 32 9h464q46 0 46-46v-117q0-25-14-37l-86-71q19-10 19-41v-107q0-25-14-37l-89-75h138q46 0 46-46v-117q0-25-14-37l-130-108q-10-10-31-10zm129 119q36 0 36 36v117q0 36-36 36h-276v86h195q36 0 36 36v107q0 36-36 36h-195v77h276q36 0 36 36v117q0 36-36 36h-464q-36 0-36-36v-648q0-36 36-36zm-54 100v-10h-337v540h337v-10h-327v-251h246v-10h-246v-259z"/><path transform="translate(72.31 14.28) scale(.014 -.014)" d="m73-119q-46 0-46 46v117q0 25 14 37l100 84q-53 17-83.5 54.5t-30.5 110.5v105q0 90 58 139l130 109q56 47 158 47h280q46 0 46-46v-119q0-25-14-37l-90-75q64-14 102-52.5t38-119.5v-105q0-91-59-139l-129-108q-57-48-158-48zm445 119q97 0 152 45.5t55 130.5v105q0 56-19.5 90t-54.5 51.5-82 24.5l-149 20q-27 3-27 32 0 30 27 30h233q36 0 36 36v119q0 36-36 36h-280q-97 0-152-45t-55-131v-105q0-84 42.5-119.5t112.5-46.5l150-21q13-1 19.5-9t6.5-25q0-12-6.5-20.5t-19.5-8.5h-269q-36 0-36-36v-117q0-36 36-36zm81 620h-222q-42 0-67-23t-25-58v-82q0-35 14-48.5t37-18.5l211-43q30-6 49.5-25.5t19.5-72.5v-58q0-44-30-72.5t-81-28.5h-249v10h249q47 0 74 25.5t27 65.5v58q0 47-16.5 64.5t-44.5 23.5l-211 43q-26 5-42.5 20.5t-16.5 56.5v82q0 40 28 65.5t74 25.5h222z"/><path transform="translate(82.81 14.28) scale(.014 -.014)" d="m407-1-130-108q-10-10-31-10h-155q-46 0-46 46v648q0 25 14 37l129 109q11 9 32 9h155q46 0 46-46v-207h18v98q0 25 14 37l129 109q11 9 32 9h155q46 0 46-46v-648q0-25-14-37l-130-108q-10-10-31-10h-155q-46 0-46 46v212h-18v-103q0-25-14-37zm-32 1q36 0 36 36v222h167v-222q0-36 36-36h155q36 0 36 36v648q0 36-36 36h-155q-36 0-36-36v-217h-167v217q0 36-36 36h-155q-36 0-36-36v-648q0-36 36-36zm321 630v-540h-10v265h-384v-265h-10v540h10v-265h384v265z"/><path transform="translate(94.836 14.28) scale(.014 -.014)" d="m254-109q-10-10-31-10h-147q-46 0-46 46v264q0 31 9.5 70.5t30.5 93.5l86 226q3 9 7.5 15.5t9.5 11.5l1 1 128 107q15 14 44 14h269q46 0 59-39l87-227q21-54 30.5-93.5t9.5-70.5v-264q0-25-14-37l-130-108q-10-10-31-10h-151q-49 0-49 46v130h-28v-21q0-25-14-37zm134 145v140h177v-140q0-36 39-36h151q36 0 36 36v264q0 30-9.5 69t-29.5 91l-87 227q-11 33-50 33h-269q-40 0-51-33l-87-227q-20-52-29.5-91t-9.5-69v-264q0-36 36-36h147q36 0 36 36zm297 54h-10v172h-390v-172h-10v213q0 28 4.5 51.5t12.5 45.5l64 164q11 28 25 47t48 19h98q33 0 46.5-19t25.5-48l69-163q8-22 12.5-45.5t4.5-51.5zm-400 182h390v31q0 27-4 50t-12 43l-69 163q-11 26-23 43.5t-40 17.5h-98q-30 0-42-17t-22-43l-64-164q-7-20-11.5-43t-4.5-50zm160 238q7 17 19 17h25q12 0 19-17l47-152h-157z"/><path transform="translate(106.46 14.28) scale(.014 -.014)" d="m620-66q-62-53-192-53h-337q-46 0-46 46v648q0 25 14 37l129 109q11 9 32 9h337q132 0 194-52.5t62-161.5v-312q0-108-63-162zm-63 66q126 0 186 50t60 154v312q0 104-60 154t-186 50h-337q-36 0-36-36v-648q0-36 36-36zm-264 90v540h242q68 0 102.5-18.5t46-50 11.5-70.5v-265q0-38-11-69t-45.5-49-103.5-18zm242 530h-232v-520h232q64 0 96 16.5t43 45 11 64.5v265q0 37-11 66t-43.5 46-95.5 17zm-124-91h119q47 0 47-48v-243q0-49-47-49h-119zm27-157q0 28-17 35v-208h17z"/><path transform="translate(118.3 14.28) scale(.014 -.014)" d="m555-119h-464q-46 0-46 46v648q0 25 14 37l129 109q11 9 32 9h464q46 0 46-46v-117q0-25-14-37l-86-71q19-10 19-41v-107q0-25-14-37l-89-75h138q46 0 46-46v-117q0-25-14-37l-130-108q-10-10-31-10zm129 119q36 0 36 36v117q0 36-36 36h-276v86h195q36 0 36 36v107q0 36-36 36h-195v77h276q36 0 36 36v117q0 36-36 36h-464q-36 0-36-36v-648q0-36 36-36zm-54 100v-10h-337v540h337v-10h-327v-251h246v-10h-246v-259z"/></svg>