<svg width="88.696" height="27.091" viewBox="0 0 88.696 27.091" xmlns="http://www.w3.org/2000/svg"><path transform="translate(0 17.773) scale(.0068359 -.0068359)" d="m697-84-10 3v23l-15-19q-11 5-30 17-44 25-66 25-35-38-38-61-16 0-18 30l-2 1-16 30q0-45-41-54-7 102-61 102-47 0-61-48l-18-31q-44 15-44 99l3 235q-24 0-24 70.5t4 90.5q-24 0-24 141l4 136q0 90-10.5 203t-30.5 170l41 22v22l-41-22v22h22q0 116-182 326l35-4q5 7 210.5 39.5t238.5 32.5h51q174 0 266-38 76-32 100-62 49-61 49-139 0-150-79-560l-26-131q-11 0-15 13 0-41-19-61t-62-41q44 0 62.5-42t18.5-96l-20-279q-4-6-23-49-43-95-76-95h-5l6-7q-34-14-54-14zm-175 337-1-56v-45q4 0 25 0 42 0 83-24h-7l7-12q0 34 19 58v81q0 13 9 13h11q0 9-11 22.5t-11 35 2 34.5q-13 17-47.5 19.5t-44.5 26.5q0-15-5.5-18.5t-12.5-1.5q-17 5-17-49h-19v-25q20 0 20-59zm144 579 2 13q-17 20-55 23t-57 24v-24h-35l17-23h-17v-8q0-11 3-15l4 2q10 0 10-84v-34l-17-21h17v-24q6 0 46.5-15t44.5-23v14l21-5-6-12 4-5q0 18 10.5 18t10.5 46l-5 94q0 18 12 23-10 9-10 36z"/><path transform="translate(7.2393 17.773) scale(.0068359 -.0068359)" d="m870 19 34 4-54 23-53-46v31q-4 17-18 17v-19q-4 34-19.5 54t-54.5 20q-9-14-20.5-14t-14.5 2l3-40q0-75-21-75-15 51-40 70-13 0-17-2l17-18-41-33-38 23q0 29-26 38-33 13-96 13 0 12-28.5 143.5t-30.5 135.5q-4-4-8.5-4t-10 6.5-5.5 12 4 9.5l-21 24 21 46h-21q-22 26-23.5 72t18.5 56l-15 10v22q0 118-34 286.5t-42 225.5h-13l13 21q-39 45-39 147v40q-16 19-34.5 44t-26.5 34.5-24 20.5q-25 17-95 17 38 9 186 27.5t210 41.5v-23l19 23h259l-18-23v-71l-20-22q1 1 8 1 16 0 16-15 0-4-4-8l-20-25q22-34 22-73t-22-65q43-50 43-286 0-104-5-156h-18v-162q0-36 18.5-109.5t18.5-101.5l-2-65q0-71 73-71l37 25v22l18 22-18 24q36 54 36 180v52l8 6-26 41 18 22v49h17l20 462-20 22v24h20q4 5 4 10.5t-15.5 11-15.5 10 7 14.5l-17 20 3-1q4 0 9 6t5 10-4 6q25 25 25 90t-1 78l-20 23h109q78 0 181-46l17 23q52 0 154-46t160-46q-80-47-162-141l20-19h-4q-7 0-13-6.5t-6-12.5 3-8l22-22h-22q-131-261-131-641 0-38-21-77v-46h-17l2-29q0-43-20-43l18-44-36-93q2 4 6.5 4t9.5-6.5 5-12-3-8.5l-18 23-19-47 19-22h-19l-37-70v-23q-6-2-38-2t-69 25q-7-19-23.5-45t-31.5-27z"/><path transform="translate(17.158 17.773) scale(.0068359 -.0068359)" d="m900-36 5-234-21-24v93h-60v-47h-21q-20 20-20 72h-140l-20 22 2 86q0 70-21 123l19-24v164h-19l-21 257v20l-14 16 14 5v48l-17 23 17 68q-18 26-18 58t1 36q-19 24-19 75v34q-10-22-115-51t-119-36l-18 25v-25l-40-44q0 190-34 339-63 275-186 376 90 0 161 49 11-2 43.5-2t115 24.5 121.5 24.5h429q98 0 237.5-32t185.5-40q0-12-56.5-118.5t-64.5-112.5h-18v-24h18q0-167-39-440h-20l-40 47q-27-6-48-6-57 0-137 53h-18l18-69-18-47q20-24 20-97t-1-112-1-45q-1 0-5 5-4 0-4-7l13-64-20-149q0-37 16-62-23-93-23-231z"/><path transform="translate(26.722 17.773) scale(.0068359 -.0068359)" d="m824 600q-23 0-113 27l-17-25-18 25q0 12 9 23.5t9 25.5-12 47.5-24 40.5l18 25-14-3-4 20-18-17q-21 36-21 50.5t2 18.5q-23 0-43.5-16.5t-24.5-42.5l-3 14-18 16v-16q-22 0-22-30 0-5 3-23l-20-18-2-9q0-21 13.5-61t13.5-62q-4-4-16.5-35t-12.5-34q0-85 23-218t57-182q12 0 25 22t27 22v24q21 28 26 60.5t14.5 64.5 42.5 64q45 0 116.5-21.5t99.5-52.5v3l22-3q-36-52-42-91h20l-20-24 3-26q0-66-58-138-21-26-24-42l-19 21q-15-20-43.5-67t-47.5-70v22l-35-47q-9 42-34 79t-57 37l20-24v-45l-27-3q-28-2-28 48h-37q-18 26-38 36 3-11 9-26 9-26 9-55l-41-22-20 22 2 35q0 14-13.5 24t-25.5 10-32-12-30-12q-21 0-35 34.5t-24 69-21 34.5l21 26q-73 0-81 231h-21q0 44-20 127t-20 126l26 35-5 12-21-21v21q-7 34-32 127-47 180-47 272t34.5 176.5 84.5 142.5l41-23v33q48 50 115 89.5t124 40.5v-23q14 18 37.5 31t66 13 84-3.5 95.5-16.5q102-23 185-118h-20v-23h20l22 23 39-46q0-41 37-75t42-40q0-47-44-87 28-9 28-105t-43-457q-38 22-99 22zm-255-628q-2-11-16-18 16 0 16 18zm-229 8q-2 2-4 2t-2-4q0 2 6 2z"/><path transform="translate(34.2 17.773) scale(.0068359 -.0068359)" d="m1155 510-20-161-38-32 18 7q0-66-20.5-195t-20.5-197h2q0-33-25-51.5t-56-18.5l30 70-9 22-4 1-49-25-9 2-38 40 3-27q0-58-44-58-2 2-10 9-18 14-18 22t7 14l-39 22-21-30q1 19 11 59.5t10 62.5l-40-22-17 45q38 0 38 169l-2 89q0 18 11.5 51.5t11.5 48.5-14 15l-9-2-19 24q-24 0-71.5-12t-72.5-12v-22l-27-31 16 9q15-105 15-108l-4-264-79-46 2 15-7 5h-76l-40-20q-3-36-80-46l-44 40q0 6 16 6t28-8q-1 75-20.5 231.5t-19.5 254-30 241-60 284.5-30 238-57 155.5-138 63.5q168 0 289 21.5t146 47.5l5-25 4-2q13 0 13 20l-2 7q45 0 129.5 10.5t123.5 10.5q-32-44-91-161l18-23-18-648 91 21v-21l131 21v-11q26 34 26 182l-7 247q0 27 20 83.5t40 56.5q0 20-20 37-40 33-40 102l-19 114q101 0 160-21l24 21 96-21v21l24-28 137 7q15-22 67.5-24t71.5-23h56q-73-12-172-286-44-112-46-154l-2-46h-14l18-22q-52-176-81-238l22-41q-45 0-45-86z"/><path transform="translate(44.427 17.773) scale(.0068359 -.0068359)" d="m699-66-44 1-30-24-40 46v25q-20 21-59 21h-40l-21-21v-25q-18 0-30-35t-29-35v-21q-10 54-40 198-63 294-63 449 0 31 2 46l-19 23-98 580h20v24h-20q-3 5-12.5 24.5t-12.5 25.5-12 23.5-13.5 24.5-14 21.5-16 21.5-16.5 18.5-19 18.5q-30 21-46 29h22q54 46 188 73 194 39 446.5 39t556.5-66q-40-44-100.5-156.5t-60.5-163.5-20-73l2-33q0-80-42-268-83 46-127 46t-64 22q-53 0-90.5 5.5t-72 10.5-53.5 8q18-10 18-101l-4-108h301v-162q0-30-13-93.5t-28-68.5l-58 47h-181l-21-22v-165l21-16 18 16-18 48q47-1 152.5-12t163.5-11v-25l-18-91-18-25 18-22v-23h-18v-21l18-25q-18-25-18-53v-62l-18 24h-23v68l-20 23h-99q-20-23-67-23z"/><path transform="translate(53.279 17.773) scale(.0068359 -.0068359)" d="m739 34-2 12q0 5 2 7h16v24h-20l20 23q-24 7-24 82.5t4 101.5l-21 25v37q-5-19-34.5-19t-56.5 3l19-70-19-22-4-27 23-19h2q0-46-10.5-139.5t-10.5-139.5l-19 24v25h-35q-64 0-66-46-12 2-39 11.5t-42 9.5l-19-40v16l-20-47q-43 0-43 191l2 87q0 69-20 94h7q13 18 13 55.5t-20 83.5l20 70q-23 30-41 92l21 23v24l-41 22q0 35 11 44t11 29-20 172-20 218.5-29 116.5-66 88q-105 110-126 165 195 0 280 47l40-22q44 46 161 46v-24q32 24 40 24 45 0 125-12t117-12l8 17q11-8 60.5-23t106-34.5 113.5-47 94.5-71 37.5-95.5q0-121-50.5-341.5t-50.5-330.5q-67-83-55-131 0-10 5-17l-19 10-19-25q-62 0-62-69 23 0 23-129l-2-95q0-147 20-215l-20-69-100 69q-14 0-19 11t-21 11-25-3.5-12-8-10-15.5-14-20q0 34 22 43 0 3-35 31l-7-3v-34q-1 12-11 24-28 34-28 102 4 0 4 5zm-97 690-3-53q0-63 108-63h27q21 0 35.5 46.5t14.5 70 20 45.5q-32 71-59.5 94.5t-86.5 23.5q-12 0-18.5-15t-8.5-15l-10 7h-35q6-1 11-9.5t5-16.5v-91l-19-24zm-239-858q-2 7-2 17.5t2 13.5zm100 50 14-3h-14z"/><path transform="translate(61.906 17.773) scale(.0068359 -.0068359)" d="m233 762-20 212h-41v19q0 16 12 54.5t12 58-2 27.5h-22l22 25v22q0 34-25 68t-55 56q-80 61-82 85l22-22q97 46 508 129 132 26 138 31v-22l37 22-37-45v-71q0-18 10-55t10-55.5-2-27.5q21-30 27-78.5t9.5-91 18.5-60.5l55 207h-18v23l18-18q18 23 18 52t-2 35l37 69q2 7 2 22t-11 45-11 40l1 9 19 24 18-24v24h36l19-46h71q10 23 61.5 23t129.5-15.5 177.5-41.5 144.5-35l-20-25h-39l-61-44v-25h-26l-55-69v-69h9l-29-46q0-19-6-40l-9-16-5-1q-4 12-9 12t-9-1l18-48q-18-69-46-270-70-500-136-587l10-22-27-23 17-24h-17v-92q-24-34-36-133l-18 17v70l-19 23v-47l-16-24q-6 13-13 33t-10.5 28-11.5 17q-14 16-57 16-18-26-18-70h-37v47h-18l73 577h-18q-18-25-18-92l-37-68v-12q0-59-16-82 0-43-18-68v-47l-20-24q0-31-18-88t-18-74 2-31q-47-8-73-38h-12l12 24q-11 31-19 135.5t-35 142.5l-1 10q0 21 14 65-7 11-33 130.5t-35 146.5v-352h19v-47h-19l19-24q-23-27-23-94t4-113h-41l-38 23v44l-21-21-20 21v-4q0-6-4-12.5t-6.5-6.5-6.5 4l-44-25v-139l-20-24h-39v46h-3q-8 0-8 12t8 12h3v93l-22 23v70l-18 22 2 97q1 62-21 183.5t-22 181.5h-20l20 25v10q0 23-8 29.5t-32 6.5q14 51 40 69h-40q-4 4-4 8 0 6 5.5 12t10 6 8.5-4z"/><path transform="translate(72.687 17.773) scale(.0068359 -.0068359)" d="m827 1145v-107q0-193-42-278 19 0 19 23v8l18 15q-16-16-16-54.5t14.5-112.5 15.5-88h-19v39q-18-36-18-75v-10l23-28-4 52h20v-8q0-85-23-254.5t-23-291-31-125.5l-15 16-24-4-16 22-44-19 3 3-44 41-37-27-24 2 21 25q0 21 5.5 63t5.5 64l-18-12-18 22h16q-25 33-43 70l-30-6-23 18-18-37h18l2-22-15 3 1-17q0-21-8.5-52t-19-31-14.5 16q-6-90-28-151l-23 23v-14q0-16-11-24-14-8-46-8l-2 23q-29-10-75-17-35 41-35.5 127t-1.5 99l16-2 4 25q-18 5-26.5 78.5t-10.5 80.5q37 0 37 74v18l-20-22-4 77q0 47 7.5 120t18.5 105h-18l35 100q0 40-16.5 120t-16.5 124 36 64q-35 113-36 245l16 24q-18 8-96.5 92.5t-102.5 84.5h-6q0 26 215 49.5t369 23.5q15 0 42-24 75 25 209 25l169-1q-123-77-161-170-33-79-33-212zm-359-662 2-23h-18l7-77q0-37-19-63l1-22 18 22h110l-5 94-11 23 7 46q0 93-24 93l17 24h-17l15 20h-17l-2 25q17 0 17 22h-18l-5 112q-5-37-31.5-137.5t-26.5-158.5zm352-120-9 4q-2 0-2-12v-16q0 2 15 26-2-2-4-2zm-53-518-10 5zm-107 17q0 3 2 3z"/><path transform="translate(79.399 17.773) scale(.0068359 -.0068359)" d="m617 337q-37 48-37 92l18 23h-18q0 22-17 50.5t-20 35.5v-177q-18-26-18-61.5t18-100.5l-16-25v-299q-20 23-20 69h-35q-3 0-19.5-11t-17.5-12v-24l-17-22h-17v46q-21-24-55-24l-18-22-18 22-56 532 19 23q-32 16-57 187-43 304-43 558l-18 12 18 22q-6 10-32 63-65 132-86 147v23l-41 24q89 0 261 15t252 15q17-23 53-23v23h53v-116l38-46-18-22q0-33 22-55 13-13 11.5-16t-1.5-8.5 5-11 10-5.5l6 3q0-40 36-174t56-134v1q0 62 17 177t17 177q-11 17-32 122.5t-21 107.5h19q27-32 227-32t335 9q-26-5-74.5-89t-59.5-96v-24q-62-77-96-368-39-332-63-418h-18l18-23v-25q-22-29-22-65t4-72h-30l13-23q-22-28-22-68.5t2-49.5q-7-10-12-35-13-57-41-57v-49q0-65-18-89-10-119-35-119l-20 2v26q0 3 10.5 27t10.5 42-1 22l-20 23-18-23v-91l-35-72v94l-72 22-19-70-17 26v44h-19v-44q-14 19-23.5 99.5t-9.5 126.5-40 95l20 25q-36 59-36 138z"/></svg>