<svg width="89.248" height="18.736" viewBox="0 0 89.248 18.736" xmlns="http://www.w3.org/2000/svg"><path transform="translate(0 13.968) scale(.016 -.016)" d="m548 79q0-29-5.5-52.5t-13.5-23.5l-18 1q-53-9-90.5-14t-76.5-5l-24 1q-3-5-15.5-9t-21.5-4q-70 5-129.5 50.5t-95 113.5-35.5 138q0 102 44 190t123.5 141 181.5 53q51 0 85.5-4t62.5-24.5 28-64.5q0-7-4-16t-11-9q-11 0-26 4.5t-30 9.5q-27 9-42.5 13t-31.5 4q-34 0-67-8t-72-23q-76-28-103-101t-27-171l1-25q10-3 14-45 2-18 4-22 28-65 97.5-88t159.5-23q18 0 35.5 5.5t45.5 17.5q28 14 39 14 8 0 13-5.5t5-18.5zm-124 535q8 0 15.5 4t7.5 11q-10-1-16.5-8t-6.5-7zm43-6h12q-6-10-6-21 10 0 18 6t8 15-6.5 14.5-15.5 5.5q-3 0-6.5-7.5t-3.5-12.5zm-142 19q0-8 14-19l18 19zm57-7q8 0 12 7h-12zm30 7-24-24 6-1q8 0 13 8t5 17zm47-5q-9 0-16.5-11.5t-7.5-19.5q11 0 18 9t9 21zm-201-25 6-13q49 35 49 37h-11q-8 0-26-10.5t-18-13.5zm105 19q-7 0-10.5-5t-8.5-14l7-1q11 0 19 19zm-46-13q-14 0-40-31 22 1 43 31zm188-22q0-10 13-10v32q-6-4-9.5-10t-3.5-12zm-310-24q10 0 19 9.5t9 19.5q-12 0-20-8t-8-21zm44 27-17-25q18 18 18 22zm-123-100q15 10 34 16 12 5 17.5 9t8 15 2.5 35l-62-61zm-19-27 1-3q3 1 12 5.5t15.5 10 6.5 11.5q-11 0-23-7.5t-12-16.5zm39 0-1 3q-9-2-17-9.5t-14-14.5q2-1 4.5-1.5t4.5-0.5q10 0 16.5 6.5t6.5 16.5zm-64-70 39 24v6h-32q-7 0-7-22zm0-19q23 0 33.5 3.5t10.5 21.5q0 1-2 3t-3 3q-6 0-18-9.5t-21-21.5zm-12-50 1-11q21 13 36.5 25.5t15.5 25.5q-28 0-40.5-7.5t-12.5-32.5zm52 4q0 8-1 10-27-11-39-25l17-1q23 0 23 16zm-47-60q7 0 19 10.5t20 20.5h-52v-6q0-25 13-25zm36 14q-9 0-21-10.5t-13-21.5q22 0 33 4t11 21q0 2-4 4t-6 3zm-34-75h12l32 31v7q-50 0-50-13 0-7 2.5-16t3.5-9zm444-141q-83-26-123-26-11 0-57 7-20 4-99 28-20 6-48 14t-31 8l12 11q-3 7-7 7-3 0-6-1t-6-1q0 17-3.5 25t-20.5 8q9 5 13 18-17 0-17 22h-20q6 4 15 8t9 8-2 11.5-4 12.5q-10-2-23.5-13.5t-13.5-20.5q2-8 6.5-21.5t7.5-19.5q7 0 18 8-2-1-4.5-5.5t-2.5-7.5q0-42 31-62.5t63-30.5 41-13h1q4 0 9.5 3t8.5 4q-1-12 39.5-18t65.5-6q40 0 85.5 6.5t62.5 17.5z"/><path transform="translate(9.072 13.968) scale(.016 -.016)" d="m413 77q21-6 31-12.5t10-19.5q0-43-25-57-31 10-43 12t-45 26q-17 12-19 12-8 0-22.5-10t-18.5-10q-24-11-43-17t-40-6q-39 0-79 16t-67 48.5-27 80.5q0 13 7.5 41.5t13.5 41.5q19 27 55 40t94 23q46 9 66 16.5t20 22.5q0 30-19.5 50.5t-54.5 20.5q-14 0-27-4t-34-13q-30-14-44-14-26 0-26 53 0 36 29 47.5t75 11.5q9 0 23.5-2t21.5-3q27-5 44-5l23 1q25 0 25-19 12 0 18-3.5t6-14.5q28 0 40-46t12-86q0-27-8-77t-8-74q0-6 2-17.5t2-17.5l-1-9 6-11q0-6 6-9t21-7zm-186 352q13-5 29-5 0 23-11 23-4 0-8.5-1.5t-9.5-1.5l-26 1q-33 0-51-2.5t-48-12.5q0-4 2.5-12t4.5-10q11 0 35.5 7.5t31.5 17.5l10-8q1 0 6 4t9 4q12 0 26-4zm85-6q0 10-27 10-9 0-16-7.5t-7-17.5l10-1q10 0 25 4.5t15 11.5zm-12-42q0-3 4-7t9-4q14 0 19.5 4t5.5 14q0 7-5.5 16t-12.5 9zm11-45q19 0 38 29-3-1-14-4t-17.5-9.5-6.5-15.5zm41 7q-6 0-17.5-7.5t-16.5-14.5l37-6q0 2 3 7t3 7q0 4-3.5 9t-5.5 5zm-23-40-26 6-9-11zm13-43q-6-10-15-14-5-3-7.5-7t-2.5-16q0-14 5-29 4-18 4-29 0-10-3-24 22 5 32 44t10 83q0 26-3 36-10 0-29.5-9t-32.5-17q2-6 7.5-8t17.5-4.5 17-5.5zm-91 0q5-2 14.5-4t15.5-3q3 1 9 3t10 4q-5 3-14 6.5t-13 4.5q-6 0-13-3t-9-8zm-28 9-28-14 37 5zm-107-65h-27q4 6 15.5 11t24.5 9q21 7 34 13.5t19 15.5h-4q-19 0-31.5-3t-13.5-15q-8-3-21.5-7.5t-22-11-12.5-17.5q2-3 12-8t13-5q2 0 8 7.5t6 10.5zm178-70v4q0 46-9.5 72t-45.5 26q-5 0-15-4.5t-14-4.5q-11 0-28.5-12t-23.5-16-10.5-12.5-8.5-16.5q-6-14-11.5-21.5t-14.5-7.5q0-31 16-49t47-18q16 0 45 8t51 21.5 22 30.5zm-236 32q7 0 14 4t12 9q-4 2-9.5 4t-9.5 3q-3 0-5-8t-2-12zm41-1q0 1-5 1-9 0-20.5-3t-14.5-8h37q3 3 3 10zm229-43q13 0 18 5t5 18q-8 0-15.5-7.5t-7.5-15.5zm-276 11 1-3q3 0 8 3t5 5l-1 5q-3 0-8-4t-5-6zm13-16q21 0 21 15-13 0-21-15zm263-24q4 2 12 8.5t8 9.5-4 3q-6 0-14.5-4.5t-11.5-9.5q1-2 4-4.5t6-2.5zm-243 16q-10 0-19.5-4t-12.5-12q1-4 6.5-8.5t8.5-5.5q7 0 12 12t5 18zm262-43q17 0 17 26-6 0-15-5t-9-12q0-3 2.5-6t4.5-3zm-248 23q-13 0-15-14 15 2 15 14zm202-11-1 9q-3-1-7.5-6t-5.5-7q0-2 1-3.5t1-1.5h-14v-21q10 0 18 9.5t8 20.5zm-38-15q-16 0-33-10.5t-17-26.5l43 11q2 0 4 10.5t3 15.5zm103-8h-15q0-9 7-13 8 5 8 13zm29-9q-5 8-9 8-5 0-8-5t-3-10q17 0 20 7zm-245-16q0 5-7.5 13t-11.5 8q-7 0-11-8 4-2 14.5-7.5t15.5-5.5zm44 7-5 1q-12 0-19-12 13-8 15-8 4 0 6.5 6.5t2.5 12.5zm230-21q0 9-1.5 15t-8.5 6q-8 0-16.5-3t-11.5-8q0-10 38-10z"/><path transform="translate(17.072 13.968) scale(.016 -.016)" d="m51 95q0 53 1 98t2 81q4 144 4 230v37q0 37 2 68t10 73q2 12 10.5 15.5t22.5 3.5q31 0 42-7.5t11-27.5q0-6-3-12.5t-9-9.5l7-5q-1-4-1-23 0-4 10-151l2-24 7-7q35 19 78.5 25.5t94.5 6.5q1-4 11.5-8.5t23.5-8.5q32-12 50-22t18-25q17 0 27-21t20-59q7-27 11.5-39t11.5-15q-1-3-1-21 0-8 1.5-16.5t1.5-12.5q3-15 3-30l-5-25q1-1 2.5-3t2.5-3q0-16-19-43-34-61-86.5-89t-125.5-28q-24 0-64 16-37 15-59 15-3 0-8-9.5t-10-15.5-15-6q-20 0-41 4.5t-34 13.5zm93 290q-13 20-17.5 42.5t-4.5 51.5l1 55h-4l7 12v112q0 6-9 11.5t-16 5.5q-9 0-11.5-5t-2.5-16q0-22 3.5-24t3.5-4q0-3-5.5-15t-5.5-16q0-1 5.5-6t5.5-6q0-4-3.5-11.5t-3.5-23.5q0-27 14-27l-13-25 13-5-4 1q-10 0-10-18 0-13 3.5-16.5t3.5-5.5q0-3-2-8.5t-4-9.5l20-8h-20v-41zm270-306q0-2 3-5t6-3q7 9 17 15 8 6 11.5 12t3.5 18q13 0 21 3t8 14q-1 2-3 6t-4 6h13q6 0 6 43 0 164-73 210l1 2q0 6-28 13.5t-58.5 13.5-42.5 7q-42 0-71.5-13t-61.5-42l7-6 37 31q5 0 47 6 58 7 65 7l35-1q22-26 34-26l4 1 24-55 12 7v-32q9 0 14-9.5t10-29.5q4-16 7-22-2 0-4-4t-2-6 6-8q-1-5-2.5-11t-2.5-9q0-7 3-10.5t10.5-8.5 7.5-13h-7q-4 0-6.5-2t-2.5-9q0-5 1.5-7.5t6.5-4.5q-8-4-11-8t-3-11q0-9 6-12-14 0-28.5-16.5t-14.5-29.5zm-306 319-14-7q4 7 11 7zm147-327v-6h63l5-6 6 12q6 3 24 10.5t23 7.5q29 0 40.5 39t11.5 78q0 32-11 74.5t-35 73.5-59 31q-8 0-92-6-25-6-44.5-34.5t-31-64-11.5-55.5q0-32 13-53.5t37-46.5q13-14 19.5-23t6.5-17q7 0 21-5.5t14-8.5zm-167 296 6-1q6 0 9 1t5 6l-7 1q-10 0-13-7zm13-13h7q3 0 20.5 8.5t22.5 10.5h-4q-13 0-25.5-5t-20.5-14zm-8-38q59 0 59 29l-1 9q-17-4-37.5-13.5t-20.5-24.5zm-5-54h6l32 31v6h-38zm18-8q8 0 13 8l-7 6q-6-6-6-14zm8-34q-9 0-20-8 0 4 9.5 15t9.5 13q0 4-9 7t-16 3v-46q26 0 26 16zm-27-39 1-5q7 2 14.5 7t7.5 12q-23 0-23-14zm35-24v3q0 19-10 21l-24-24zm-35-26q14 0 32 14h-9q-23 0-23-14zm1-17v-7q20 0 38 8t18 11q0 8-3 10t-9 2q-7 0-25.5-10t-18.5-14zm99-38q-5 5-10.5 14.5t-10 14-12.5 4.5q-10 0-15.5-3t-12.5-11q2 0 27-9.5t34-9.5zm-100-21q18 0 32 21h-9q-16 0-16 8l14 18q-15-6-18-14t-3-18.5 0-14.5zm120-5q0 7-3.5 11.5t-9.5 4.5l-7-1q13-15 20-15zm158-7 1-2q28 3 44 24h-4q-9 0-25-6.5t-16-15.5zm-266-12h4q11 0 17 2.5t6 11.5q0 6-1 9t-6 5q-10-9-15-14.5t-5-13.5zm221-4q29 0 33 14l-43-13zm-51 0 30 1q-9 4-17 5t-18 1l-15-1q6-6 20-6z"/><path transform="translate(25.872 13.968) scale(.016 -.016)" d="m136 676q8 0 19.5-4.5t11.5-8.5v-74q0-13-18-13-24 0-52.5 4t-28.5 15v63l13 11q1 2 21 4.5t34 2.5zm-29-62q18 0 25.5 3t7.5 15q0 5-4 13-3-1-7.5-4t-10.5-3l7 7h-35q0-10 4-20.5t13-10.5zm-32-568q-14 58-18 121.5t-4 150.5v32q0 63 11 96t48 33 50.5-31.5 13.5-81.5q0-55-8-121-7-51-7-90 0-25 4-73 1-12 2-29t1-40q0-16-13-16-12 2-30.5 6t-31.5 7q-2 7-9 17t-9 19zm28 370q40 0 40 12t-2.5 16-9.5 4q-2 0-9-3.5t-10-3.5q-2 0-5 3.5t-8 3.5q-7 0-10.5-2.5t-7.5-10.5q8-8 15-8l3 1-6-12zm-23-29q0-2 2.5-4.5t4.5-2.5q9 0 22 13.5t16 16.5h-4q-8 0-24-5t-16-17zm13-25q14 5 32 5 9 0 13 2t5.5 10.5 1.5 28.5q-26 0-52-46zm-6-44q22 12 43 36l-9 1q-16 0-28-7.5t-12-22.5q0-2 2.5-4.5t3.5-2.5zm19-6 9-1q7 0 17.5 1.5t10.5 5.5v30q-27-14-37-36zm45-13h-8l-37-37v-7q45 0 45 44zm-65-22 1-10 25 26-6 1q-20 0-20-17zm-4-60q11 0 24 8.5t13 19.5q-13 0-25-8t-12-20zm5-23h49q6 0 7.5 12.5t1.5 31.5h-9q-4-2-21.5-18t-27.5-26zm6-37 32 25v6q-38-5-38-18t6-13zm44 19h-7l-37-37v-8q25 0 34.5 10t9.5 35zm-38-80 26 24-10 1q-19 0-22-13 0-3 2-6.5t4-5.5zm40-60q0 9-5.5 15.5t-5.5 7.5q0 0 6 3t6 46h-15q-2 0-14.5-16t-12.5-20v-1h27l-32-19q4-11 16.5-13.5t29.5-2.5z"/><path transform="translate(29.792 13.968) scale(.016 -.016)" d="m393 30 1 34q2 46 2 69 0 107-21 188-14 12-24 23-14 15-27 21t-44 6q-22 0-43-6.5t-53-25.5q-12-7-16-21.5t-4-36.5q0-54 2-85.5t12-59.5v-129q0-6-9-6-30 2-55 4t-28 2l-19 12q-1 1-3.5 56t-2.5 98q0 41 3 77 4 58 4 111l-1 89q7 5 18.5 8.5t18.5 3.5q14 0 22-7t15-20q9-15 16-15 13 0 25 5.5t33 16.5q25 14 40.5 20.5t33.5 6.5q31 0 96-28l22-9q59-23 79.5-105.5t20.5-174.5q0-26-5-58-4-38-4-56 0-13 1-19-10 0-11-10t-8-16.5-37-6.5q2 6 2 11 0 2-1 2-2-1-7.5-5.5t-10.5-5.5q-11 0-19 5l-5 8q0 17-9 29zm-55 365q4-1 19-14 2-1 11.5-9t16.5-8q8 0 8 7l-5 5q2 4 10.5 8t8.5 8q0 10-22 10-7 0-12.5-3.5t-9.5-3.5q-5 7-9 7l-2-1 5 12q-7 7-20 7-6 0-15-1.5t-14-1.5v20q-38 0-43-17v12q-4-3-12-4.5t-10-2.5q-17-3-25.5-7.5t-8.5-15.5q0-1 3-3t3-4l13 12t6-6h3q3 1 9 5t6 7l6-6q15 0 41-3.5t39-8.5zm-196-214q0 13-1 22.5t-2 16.5q-4 24-4 38 0 8 1 13l-13-5q7 10 9.5 16.5t4.5 17.5l4 21q5 19 15.5 32t25.5 24q16 12 16 19 0 3-1 5-7-2-23-16-2-1-10-7.5t-13-6.5q-9 0-13 4.5t-9 15.5q-4 8-7.5 12.5t-10.5 4.5q-4 0-7-1 2 2 4 6t2 7-4.5 4.5-5.5 2.5q-1 0-4.5-8t-3.5-12q0-18 4-48 3-18 3-29l-1-21q2 0 4-2.5t2-3.5q0-8-6-24-6-18-6-26h25l-19-18 6-7q-12-9-16-19t-4-27q19 0 26 16 0-4 2-4 0-1-10.5-15t-10.5-17h32l-31-14v-45q9 0 29.5 32t20.5 46zm284 177v4q0 13-7 14-26-10-26-31h20l-13-12 7-7q13 6 16 12.5t3 19.5zm-12-76q13 0 27.5 13t14.5 26q0 4-5 11t-10 7q-11 0-20-9.5t-9-20.5h32q-12-2-21-9t-9-18zm7-23q18 0 29.5 3.5t11.5 15.5q0 5-1 9.5t-5 9.5q-13-4-24-15t-11-23zm3-18 1-6q4 1 8 6.5t5 8.5l-1 3q-13 0-13-12zm7-29q0-15-2-21 17 0 29 15t12 33l-2 14q-15-6-26-12.5t-11-14.5zm3-115q16 0 31.5 15t15.5 30q0 4-1 6-6 58-8 58t-19-12.5-17-18.5q0-2 3-5t5-3q-8 0-12-6t-4-13q10 0 22 10 10 8 18 8v-4q-29-16-36-41h18q-16-4-16-24zm-325 14h32q4 0 6.5 13.5t2.5 28.5q-10 0-25.5-16t-15.5-26zm326-92h37q0 32-16 37 3 1 10.5 5.5t7.5 6.5v43q-27-20-33-37t-6-55zm-352 49h15l31 31h-6q-20 0-30-6t-10-25zm12-38h53q2 1 4 4t2 5q0 4-3.5 11.5t-3.5 9.5 5 5 8 3q-4 2-5.5 9t-3 11.5-6.5 4.5q-12 0-28.5-17.5t-18.5-19.5h19q-3-5-9.5-8t-9.5-6.5-3-11.5z"/><path transform="translate(42.624 13.968) scale(.016 -.016)" d="m116-3q-3 0-5-1t-4-1q-26 0-45.5 18.5t-28.5 42.5q15 0 21.5 12.5t12.5 34.5q4 21 9 21l86-50q2 0 6.5 1t11.5 1q12 0 13-6l24 1q18 0 26-4t12-4q60 0 116.5 21.5t56.5 73.5q0 22-13 49t-31 34l-271 118q-38 16-56 51.5t-18 81.5q0 21 8.5 39.5t19 34 14.5 21.5q31 41 87.5 58t121.5 17q8 0 24.5-3.5t45.5-3.5q25-4 58.5-10.5t34.5-7.5l18-19v-74q0-5-9-18.5t-13-13.5q-11 5-52 25-46 23-74.5 34.5t-58.5 11.5q-55 0-99.5-23.5t-44.5-74.5q0-15 15.5-34.5t36.5-34 33-14.5l13 1q26-8 57-29 24-17 44.5-25t52.5-8q34-7 68.5-29t57.5-53.5 23-65.5q0-15-4-28.5t-5-16.5q-6-13-9-30-13-48-19.5-63.5t-23.5-25.5-57-16q-1-1-3-3t-3-3q-34-13-63-19.5t-60-6.5q-36 0-82 4.5t-72 9.5q-2 2-4 2zm324 559 13 49q0 8-68.5 20t-98.5 12q-2-1-4.5-4.5t-2.5-5.5q0-10 15-10h5q16 0 17 8 2-9 9-15t15-6q7 0 9.5 1.5t3.5 6.5l19-18 19 18v-20q3 1 11.5 4.5t18.5 8.5l7-1q0-5-3.5-15t-3.5-14q0-8 4-12t15-7zm-192 62q6 0 14 3.5t8 8.5q-5 0-15-1.5t-19-3.5q2-2 6-4t6-3zm-110-23q0-2 8-2 10 0 26.5 8.5t16.5 17.5q-13 0-32-7.5t-19-16.5zm264-12 1-2 12 13h-3q-3-1-6.5-4.5t-3.5-6.5zm-308-41q14 0 22.5 11t8.5 28q-12-4-21.5-15.5t-9.5-23.5zm-18-17h24v9q-22 0-24-9zm5-32q7 0 11 6.5t4 13.5h-27q0-7 3.5-13.5t8.5-6.5zm-2-36q11 0 11 20h-22q0-20 11-20zm2-12q6 0 10.5 2.5t4.5 7.5l-1 2-19-11zm0-18h14v6h-14zm19-13 7-1q10 0 13 7-2 4-5 6t-5 2-5.5-4.5-4.5-9.5zm11-16q0-2 6-4.5t8-4.5q15 0 15 20-9 0-18.5-3t-9.5-7zm33-13h27q0 5-6 8.5t-12 3.5q-5 0-6.5-5t-2.5-7zm56-26q2 0 7 4.5t5 7.5l-7 6-31-6q3-3 12.5-7.5t13.5-4.5zm51-9q0 16-34 16 0-12 8.5-14t25.5-2zm54-29 6 1q-26 12-32 12 13-13 26-13zm43-18 5 7h-13zm55-33v9h-6q2 2 4 5t2 5q0 15-22 15h-5q-15 0-16-7 8-10 20-18.5t23-8.5zm10-9h43q0 12-25 12-18 0-18-12zm37-60q9 0 18 5.5t15 12.5 6 9q0 10-8 15t-17 5q-6-1-18-5t-12-7v-7l30-12q-14-2-14-16zm22-28q19 0 22.5 8.5t3.5 31.5q-10 0-25-10.5t-15-19.5q0-10 14-10zm-22-64q18 0 26.5 14t8.5 34q-7 0-17-5.5t-10-11.5 6-16q-14-2-14-15zm-140-97h3q14 0 16 8 56 8 93.5 22t41.5 52q-7 6-19 6-4 0-12-17-7-16-14.5-25t-18.5-9q-2 0-7 3.5t-9 3.5q-14 0-40-4-7-1-15-2t-16-1q-18 0-21 1-3-2-7.5-5.5t-5.5-6.5q0-11 10-18.5t21-7.5zm-203 13q7 0 13 5.5t6 17.5l-1 2-25-12-5 2v4q2 1 14.5 6.5t15.5 12.5q-1 2-6.5 4.5t-10.5 2.5q-10 0-15.5-10t-5.5-18q0-10 5-13.5t15-3.5zm23 1h14l-6 5q7 5 13 13t6 12q-14 0-20.5-8.5t-6.5-21.5zm52-7q11 0 18 10t7 22q-50 0-50-25 3-1 9.5-4t15.5-3zm33-6h52q1 1 3 3t3 4q0 14-6 19t-19 5q-21 0-27-6.5t-6-24.5zm99 19q2 0 8-6h-11v5z"/><path transform="translate(51.584 13.968) scale(.016 -.016)" d="m335 120q57-76 64-86 4-5 5-9.5t1-9.5q0-13-6-13h-81q-2 9-23 9-37 38-59.5 66t-34.5 67l-37 37h-7l1-74q0-35-4-73t-14-38h-68q-1 2-3 6t-3 7q-7 87-7 268v145q1 2 4 7t3 9q0 3-9.5 16t-9.5 14q0 2 2 7.5t5 8.5q0 41 4.5 119t7.5 78h80l6-6q-1-10-1-30 0-33 3-72t4-51q7-72 7-122l-1-49q0-37 7-71 32 29 77 83 45 55 77 83 4 2 16.5 4.5t20.5 2.5q21 0 32-4t11-19q0-9-2-13t-10-14q-76-84-136-178 31-45 78-105zm-246 485q33 0 33 27 0 11-3 14.5t-15 3.5q-10 0-12.5-12t-2.5-21.5 0-11.5zm32-65q1 1 3 5t3 7q0 27-6 55l-31-13v-112q38 0 38 30 0 15-3.5 20.5t-3.5 7.5zm215-127q0-3 3.5-6.5t6.5-3.5q7 0 16 13-2 5-4.5 6t-7.5 1q-14 0-14-10zm-232 3h-14v-18q14 8 14 18zm12-31 11-6v12zm190 0h26q-1 2-3 3.5t-4 2.5q-1 0-19-6zm49-351q-14 0-14 12 0 2 2 6-2 4-12.5 24t-25.5 35-30 15q2 1 4.5 2.5t2.5 4.5q0 12-15.5 18.5t-28.5 8.5h26q-3 6-7 13t-7 9q-2 0-7-3t-7-3q0 25-5.5 34.5t-27.5 18.5h2q13 0 37 29t47 65 29 49h-18q-27-36-45-55.5t-41-30.5l6-6q-8-4-17-13-6-6-12-9t-16-3q-7 2-21 8.5t-20 10.5q0 0-7-7 0-5 19-25t39-40q35-33 35-36 0-8 17.5-30t21.5-27q27-33 29-39 4-15 17-29t26-14q8 0 24 7zm-258 308h-7v-6zm24-25q7 1 11 4.5t4 8.5q-15 0-15-13zm-35-51q15 0 17 20-9 0-13-6t-4-14zm115-36 2-1zm-85-24q-5 0-5-6t5-6q2 0 3 2t1 4-1 4-3 2zm1-73q-10 0-18.5-5t-8.5-14q0-20 10-20 3 0 10 17t7 22zm10-99q0 1-2.5 6t-3.5 6q-13-9-13-29 8 0 13.5 4.5t5.5 12.5z"/><path transform="translate(59.328 13.968) scale(.016 -.016)" d="m94 432 2-1q6 0 25 13 18 12 23 12 7 2 36.5 9t55.5 7v-9q14 5 25.5 6t23.5 1q31 0 60.5-6t29.5-21q25 0 39.5-17.5t28.5-47.5q5-11 10.5-20t10.5-12v-86l-18-13 5-6q-27-21-118-21h-52q-50 0-65.5 1t-60.5 8q-1 6-6 6-2 0-5-1t-6-1q0-29 7.5-64t22.5-51q8-9 44-22 18-6 24-9 18-13 31-13 23 0 50 6t31 7q48 13 77 13 13 0 17.5-11.5t4.5-29.5q0-19-3-24t-11-6.5-13-8.5q-6-2-117-20-42 0-74.5 2t-60.5 11q-31 10-62.5 47t-52.5 82-21 77q0 50 18 110t44 103zm296-62q6 0 16 4t10 9q0 6-4 17.5t-4 13.5q0-3-4.5-4.5t-7.5-1.5q-8 1-18.5 8t-10.5 16q-29 0-29 14-2 0-8-7t-22-7q-5 0-10 4t-13 4l-13-1q2-1 9.5-13t12.5-13q2 0 7.5 3.5t9.5 3.5q4-1 15-5.5t22-4.5q0-8 18-24t24-16zm-311-167q9 0 18.5 4.5t9.5 12.5q0 2-3 6.5t-3 8.5q2 7 7 17.5t5 21.5q0 8-3.5 11.5t-10 6.5-6.5 7 6.5 18.5 6.5 19.5q0 10 19 33 11 15 17 24t6 18q4 0 11-2t14-2q3 0 4 5.5t3 6.5q8 3 32 3 23 1 35 2.5t13 6.5q-11 5-21 6.5t-26 1.5q-68 0-103.5-46t-35.5-116h32v-6l-37-37v-19l12 7-12-19zm206 100q18 0 48 4 28 4 46 4 0 5-7 20.5t-11 15.5l-2-1q-7 21-44.5 35t-63.5 14q-40 0-70-19t-44-56q5-10 58.5-13.5t89.5-3.5zm92-28q-16-1-24-4t-8-13q33 0 52 2t23 12q5-8 14-8 0 8-3.5 17.5t-3.5 14.5q0 4 4.5 7t7 7 2.5 16q0 39-23 39-10 0-12.5-5.5t-2.5-20.5q11-33 13-36v-4q0-15-10-19.5t-29-4.5zm-254-11q13 0 17.5 5t4.5 18q-9 0-15.5-7t-6.5-16zm14-11 21 4q2 0 13.5 2.5t27.5 12.5q-3 1-31 6h-4q-2 0-11.5-9t-15.5-16zm97 0q9 0 15.5 6t6.5 15q-50 0-57-14 20-7 35-7zm60 13q-14 0-27.5-3.5t-13.5-12.5l1-3q2 0 35.5 2.5t38.5 16.5h-28zm-221-103q12 0 20.5 9.5t8.5 21.5q-19 0-24-5.5t-5-25.5zm14-23q29 0 38 8-3 7-10 16.5t-9 15.5q-2-3-10.5-15.5t-8.5-24.5zm19-41q23 12 23 38-28 0-35-13 5-3 8-11.5t4-13.5zm50-8-1 3-36 5-7-5 32-26q12 18 12 23zm6-35q9 2 20 9t11 10q0 5-3.5 8.5t-5.5 3.5q-9 0-19-8.5t-10-16.5q1-2 3-3.5t4-2.5zm43-19q5-5 6-5 15 0 26.5 9.5t11.5 23.5q-38 0-38-9 0 3-3.5 8t-5.5 5-12.5-9.5-10.5-12.5l1-3q22-5 25-7zm49-5q17 0 40 4t29 5q42 8 55 8l12-5q12 0 22 5t10 16q-20 0-54-8-5-1-17-4t-23-4q-20 0-42.5-1.5t-31.5-3.5l-6-7q5-5 6-5z"/><path transform="translate(67.232 13.968) scale(.016 -.016)" d="m337 477v-74l-7-6q-7 0-47.5 0t-75.5-6l1-7q0-13-7-32-6-20-6-29 0-2 2.5-4.5t3.5-2.5v-104q7-7 7-31l-1-25q5-1 6-23.5t15.5-40.5 58.5-22q3 0 14-1.5t17-7 6-16.5q0-18-3-27t-11-22l-10-18q-17 1-38 7t-40 12q-48 16-69 17-20 0-26.5 43.5t-6.5 83.5q0 28 5 53 1 7 2 16t1 20q0 48-13 161-9 1-17.5 3t-14.5 3q-26 7-37 7-5 0-12 14.5t-7 23.5q0 20 13 26t37 7q13 0 19 1.5t7 6.5q0 23 3.5 49t8.5 31q13-5 13-47l-1-27 6-6q2 1 23 11t21 18l-1 8q0 3 3 22t3 28h-2q-5 0-25-9.5t-22-9.5q5 5 25 19-20 4-31 12 9 7 18.5 9.5t23.5 3.5q18 0 32 5 0-4 6-9.5t6-8.5q-1-4-3-11.5t-3-13.5q0-34 7-50t21.5-20 45.5-4q7 0 20 3t22 3q3 0 8.5-4.5t5.5-7.5zm-161 44v-1zm31-62q-7 3-19 17-1 1-6.5 7.5t-10.5 6.5q-14 0-14-13h7q-8-13-30-20t-53-12q-11-2-19.5-4t-8.5-4q0-6 22.5-11t32.5-5l56 44h13l-32-31v-6zm6-19q5 1 16.5 7.5t14.5 11.5h-6q-8 0-13.5-4.5t-11.5-14.5zm99 12-30 1-31-1q-8-1-23-10.5t-15-13.5v-8q5 0 19 8t19 12l-13-19q12 0 34 4 6 1 14 2t19 1zm-130-24v6q-5-3-9.5-5.5t-8.5-5.5q-32-16-32-26h13zm-12-37q-12 0-21.5-10.5t-9.5-19.5v-5q0-14 6-15 11 8 18.5 19.5t7.5 23.5zm25-303-9-1 3 38q-2 17-6 35.5t-6 26.5l-7 6 7 6 1 23q0 23-4 63-5 35-5 65-12 0-18-14.5t-6-28.5 3-16.5 3-4.5q0-4-3.5-9t-3.5-14q0-21 10-21h2q-4-4-7.5-18t-3.5-25q7 0 7-5 0-4-7-13.5t-7-10.5q0-12 5-22t5-14q0-8-9-21 1-3 5-10.5t7-7.5q6 0 14.5 2t11.5 4q-4-6-15.5-12t-16.5-7q0-47 58-47 0-21 15-21 5 0 11 3.5t9 9.5q2 0 3-1.5t3-1.5v-11q24 0 43 26-2 12-43 12-4 0-9.5-2t-9.5-4q1 1 1 4 0 6-11 10.5t-17 4.5-16.5-3-17.5-3q2 4 17 10.5t20 8.5l1 2q0 9-7 9zm-37 155-2-1zm129-216q-5-3-9.5-8.5t-4.5-10.5h23q0 16-9 19z"/><path transform="translate(73.232 13.968) scale(.016 -.016)" d="m35 207q0 77 30 134.5t84 88.5 125 31l22-1-13-6q3 0 24 3 11 3 21 3 66 0 79-17l1-26q0-12-4-34-5-18-5-35-43 0-97 33h-86q-9 0-25-15.5t-30.5-37.5-18.5-40q-1-6-3.5-23.5t-9.5-26.5q10-59 28.5-92t64.5-62v-7q10 0 26-2 14-3 26-3 36 0 65.5 5t55.5 20q2-8 10.5-33t8.5-39q0-17-19.5-22.5t-53.5-5.5q-61 0-108.5 4.5t-92.5 25-66 63.5q-2 4-3.5 12.5t-4 13-11.5 5.5q-13 25-16.5 42t-3.5 44zm69-104 25 18 1 3q0 16-9.5 42.5t-21.5 35.5l5 5q-1 4-1 13 0 39 12 87t27 48q10 22 23.5 33t27.5 14.5 38 6.5q41 2 65 15-5 1-12.5 3t-12.5 2q-26 0-65.5-11t-63.5-25-50-74q-6-16-18-70-11-47-13-47 7-27 21.5-63t21.5-36zm220 302 39-12v26l-21 3q-18-11-18-17zm-194-321q9 0 13 4t10 15q0 2-4 6t-7 5l-3 1q-6 0-14.5-10t-8.5-12q0-9 14-9zm37-31q8 0 12.5 4t11.5 15q-1 5-4 6t-9 1q-10 0-20.5-4t-10.5-12q0-10 20-10zm42-18q3 0 7.5 2t5.5 4q0 8-2.5 10.5t-9.5 2.5q-19 0-19-10 0-4 6.5-6.5t11.5-2.5zm124-6 9-1q15 0 23.5 5t8.5 19q-15-1-25-6t-16-17zm-98 6 41-4q-1 5-9 10t-12 5q-6 0-12.5-3t-7.5-8zm63-6q6 0 12.5 3.5t9.5 8.5h-31q0-5 2.5-8.5t6.5-3.5z"/><path transform="translate(80.368 13.968) scale(.016 -.016)" d="m430 67q0-3 6-26t6-36q0-11-17.5-14t-39-3.5-21.5-1.5q-2 1-8 5t-6 7v198q0 46-3 84t-15 64h-1q-5 0-32.5 16.5t-29.5 20.5q0-1-32.5-6.5t-62-20-34.5-41.5q-2-11-4-28t-2-28q-2-24-2-38-6-80-6-121 0-25 1-37l-6-6q2-3 10.5-15.5t8.5-23.5q0-6-3-12t-10-6h-73q-3 6-9.5 7t-8.5 6l-1 82q0 67 10 201 1 16 5 80t4 119q0 22-1 51.5t-2 45.5q-4 66-4 99h74l13-6v-52q0-169 6-169l6-13q33 11 76.5 21t68.5 10q45 0 82.5-28.5t59-72.5 21.5-87q0-25-4-56t-5-40q-10-66-10-100 0-16 1-24-2 0-4-1.5t-2-3.5zm-358 586q0-15 10-51 8-32 8-41 0-3-2-7t-4-6v-99l6-6q-4 0-6.5-10t-2.5-21h16q-15-11-15-20 6 0 17.5 5.5t15.5 8.5q0 8-4 22t-8 15q1 2 3 8t3 11q0 13-4 37-5 22-5 42h-3q5 9 6 16.5t1 21.5q0 17-3.5 19.5t-3.5 4.5q0 5 3.5 14.5t3.5 22.5q0 14-1.5 19t-5.5 5q-7 0-16-4t-9-7zm260-216q-9 6-25.5 6t-18.5 0l-31-38 6-5q9 0 69 37zm-160-45q84 30 91 45l-6 6q-76-19-73-19l-13 1q-4-2-15-15-7-9-12.5-13.5t-12.5-4.5q-4 0-6.5 3.5t-3.5 4.5q-21-7-32-14.5t-11-22.5q0-12 12-12 26 5 35 9.5t12.5 11.5 8.5 9zm160 0q9 0 20 6t16 14l-13 13-30-32zm-87 26-25-13 9-1q8 0 12 2.5t4 11.5zm80 0q-1-1-14.5-5t-28.5-13q2-2 7-4.5t7-3.5q3 0 12.5 9t16.5 17zm55-74-7-13 14-5-14-13q10 0 27.5 8.5t17.5 22.5q0 6-4 10t-10 4l-5-1 6 11q0 10-5 18t-13 8q-10 0-20.5-8t-16.5-18l12-5q-1-5-3.5-11t-3.5-8q0-2 2.5-3.5t4.5-1.5q3 0 9 2.5t9 2.5zm-279-82q0 51 8 82-2-1-6-2.5t-6-2.5q-17-8-21.5-13.5t-4.5-20.5q0-4 1-4l12-7-12-11v-80l12-7q-8-2-14-8.5t-6-14.5q7 0 18.5-4.5t14.5-9.5q7 10 7 25h-14q5 13 13 19-2 30-2 59zm327 59q-24 0-42-15t-18-39q26 0 43 14t17 40zm-4-44q-11 0-28-10t-17-21h14q-3-5-8.5-7.5t-9-5-3.5-9.5q17 0 34.5 17.5t17.5 35.5zm-21-118q0 8 8 24 1 2 6.5 15t5.5 31q0 3-1.5 6.5t-4.5 3.5l-37-24v-2q0-10 7-10-7-6-13-13.5t-6-11.5l12 6q-1-1-1-3 0-3 2.5-6t5.5-4q-2-2-4.5-4t-2.5-8q1-2 3-3.5t4-2.5l-7-6v-132h8q11 0 17 3t6 12q0 16-1 27.5t-2 19.5q-4 32-4 52h-5q15 15 15 30zm-325-18 6 12q-7 0-13-3t-6-7q0-6 4.5-7.5t11.5-1.5q8 0 12.5 1t9.5 6q0 2-2.5 4t-3.5 2q-3 0-10-3t-9-3zm26-86q0 6-1 12.5t-6 11.5q-3-1-9-4t-10-3l25 25q-4 20-10 20l-3-1 7 13q-29-2-38-20 0-1 2.5-3t4.5-2q3 0 6.5 2t5.5 3l-12-18 6-6q-5-2-6-4.5t-1-7.5q1-4 4-12.5t3-12.5q-1-1-4-3t-3-7q0-2 7-5t12-3q10 0 15 7.5t5 17.5z"/></svg>