<svg width="71.104" height="21.648" viewBox="0 0 71.104 21.648" xmlns="http://www.w3.org/2000/svg"><path transform="translate(0 15.968) scale(.016 -.016)" d="m633 611q-9 0-57 13-65 10-84 10-91 0-142-20-39-14-73.5-41.5t-55.5-54-37.5-69-17.5-91.5q0-114 79-196.5t233-88.5q50 0 147 19 36 12 42 12 8-3 13.5-14.5t5.5-22.5q0-24-71.5-50.5t-154.5-28.5q-114 2-218 56-116 59-162 162-25 58-25 125 0 163 121 272t301 109q47-1 115-18t68-29.5-11-32-16-21.5z"/><path transform="translate(11.504 15.968) scale(.016 -.016)" d="m346-1q-30 0-28 33 0 11-3 11-8-3-32-17-119-73-209-9-41 29-41 80 0 77 71.5 112t177.5 35q19 0 28-1 0 17 1 24 0 57-31.5 85.5t-87.5 28.5q-27 0-58-8t-40-8-14.5 11-5.5 29 44.5 28.5 85.5 10.5q97 0 147.5-51t50.5-149v-206q0-27-10-33t-46-6zm-37 105q2 28 2 60t-1 36q-138-13-168-50-16-19-16-44 0-53 79-53 40 0 71.5 18.5t32.5 32.5z"/><path transform="translate(18.992 15.968) scale(.016 -.016)" d="m166 300q0-88 79-88 38 0 58.5 26t20.5 70.5-20.5 66-56.5 21.5-58.5-25.5-22.5-70.5zm62-337h-20q-18 0-54 8-31 0-31-77 0-95 142-100 65 0 103 25.5t38 74.5q0 46-47 58-40 11-131 11zm170 388q4-24 4-31 0-67-47-118-14-15-50-31t-78-18q-39 0-49-4.5t-16.5-8.5-9.5-10q-8-14-8-29.5t6.5-25 13-14 22.5-7.5q24-3 96-4.5t111-9.5q111-25 111-127 0-52-38.5-93t-94-60.5-104-19.5-82.5 6-67.5 20-53.5 41.5-20 64.5 18 68.5 41 47.5q-44 38-44 81 0 23 9 41t18.5 26 26 18 22.5 15q-19 15-29.5 26t-23 38.5-12.5 61.5q0 67 53.5 108t135 41 114.5-39q64 44 109 44 14 0 21.5-19t7.5-37.5-5-23-18-4.5q-54 0-90-14z"/><path transform="translate(27.184 15.968) scale(.016 -.016)" d="m79 339-2 204q0 20 0.5 38.5t0.5 32.5v47q0 45 6.5 61t39 16 40.5-4.5 8-20.5l1-369 1-220q0-30 18-48t41-18 46.5 5.5 29.5 5.5q13 0 13-16 0-34-47-50-33-10-70.5-10t-60.5 13-35.5 32-19.5 54q-10 49-10 142z"/><path transform="translate(32.352 15.968) scale(.016 -.016)" d="m142 677q46 0 46-44 0-31-19.5-46t-35-15-25.5 3-23.5 20.5-13 33 20 32 50.5 16.5zm28-460 3-198q0-12-3-15-10-5-42-5t-39.5 4.5-7.5 27.5l-4 183q0 96 1 122l3 59q0 28 9 33t34.5 5 43.5-3q2-44 2-69z"/><path transform="translate(36.288 15.968) scale(.016 -.016)" d="m511 226q0-103-70.5-170.5t-169-67.5-163 62-64.5 167.5 68.5 166 188.5 60.5q67 0 133-42 34-23 55.5-68.5t21.5-107.5zm-226-164q63 0 101.5 45.5t38.5 112.5-33.5 111-98 44-108-40-43.5-114 40-116.5 103-42.5z"/><path transform="translate(45.168 15.968) scale(.016 -.016)" d="m40 49 36-4q40 0 72 17.5t32 50.5q0 12-4.5 25.5t-32 39-50.5 58.5-23 74q0 40 36 84 17 21 51 35.5t66.5 14.5 40-7.5 5.5-21.5l-8-29q-15 4-34.5 4t-40.5-15.5-21-39.5 18-48.5 40-42.5 40-49 18-67q0-69-61-104.5t-145-35.5q-22 0-32 8.5t-10 27 7 25.5z"/><path transform="translate(50.544 15.968) scale(.016 -.016)" d="m195 289-2-144q0-41 14-62.5t47-21.5 56 6q43 12 43-12 0-67-124-67-70 0-109 63-19 40-19 95l2 116 2 84q0 14-4 17.5t-15 3.5l-39-3q-25 0-25 16 0 28 6.5 39.5t24.5 11.5l39-3q14 0 14 34 0 4 0 5v57q0 26 1 30 12 6 79 6 18 0 18-19l-3-110q12-1 39-1l80 6q16 0 16-19 0-55-54-55l-65 4q-16 0-20-2-2-18-2-75z"/><path transform="translate(56.544 15.968) scale(.016 -.016)" d="m77 106 7 222q1 8 1 28t1.5 30 4.5 24q6 25 29 25 50 0 50-22 0-17 1-24 6 0 58 27t89 27q15 0 20.5-7.5t5.5-34.5-7-41q-6-1-21.5-3t-23-3-21.5-3.5-22-4-19.5-4-19-5.5-15.5-6q-16-6-22-16v-65l2-170v-15q0-4 0-16.5t-0.5-20.5-4.5-16q-8-13-41.5-13t-39.5 4q-12 8-12 103z"/><path transform="translate(62.224 15.968) scale(.016 -.016)" d="m511 226q0-103-70.5-170.5t-169-67.5-163 62-64.5 167.5 68.5 166 188.5 60.5q67 0 133-42 34-23 55.5-68.5t21.5-107.5zm-226-164q63 0 101.5 45.5t38.5 112.5-33.5 111-98 44-108-40-43.5-114 40-116.5 103-42.5z"/></svg>