<svg width="34.288" height="29.984" viewBox="0 0 34.288 29.984" xmlns="http://www.w3.org/2000/svg"><path transform="translate(0 20.848) scale(.016 -.016)" d="m312-10q-78 0-127.5 23t-77.5 68-38.5 111-10.5 152q0 88 10.5 155t38.5 112 77.5 68 127.5 23q36 0 71.5-3.5t66.5-9 53-10.5l-3-67q-22 4-54 8t-65 7-60 3q-57 0-92.5-17t-54.5-52.5-26-89-7-127.5q0-72 7-125.5t25.5-88 54.5-51.5 94-17q42 0 92.5 5.5t85.5 11.5l3-68q-24-5-56-10t-67-8-68-3z"/><path transform="translate(8.704 20.848) scale(.016 -.016)" d="m181-10q-69 0-105 39t-36 114q0 49 17 80t51.5 47.5 85.5 20.5l154 15v43q0 51-22.5 72t-66.5 21q-25 0-59.5-2t-68.5-5-60-6l-4 59q24 5 58 10t71 8.5 68 3.5q57 0 93-17.5t52.5-53 16.5-90.5v-253q2-22 17.5-32t39.5-13l-3-61q-14 0-27 1t-24.5 3.5-22.5 5.5q-13 5-24.5 12t-22.5 17q-19-8-48.5-17t-63-15.5-66.5-6.5zm13 65q27 0 56 5t55 12 43 13v163l-145-14q-45-4-64.5-26t-19.5-63q0-42 19-66t56-24z"/><path transform="translate(16.736 20.848) scale(.016 -.016)" d="m72 0v500h77v-500zm0 610v90h77v-90z"/><path transform="translate(20.272 20.848) scale(.016 -.016)" d="m72 0v500h77v-67q19 13 48 28.5t64 29.5 70 20v-79q-34-7-69-18.5t-64.5-24.5-48.5-23v-366z"/><path transform="translate(25.824 20.848) scale(.016 -.016)" d="m264-10q-84 0-130.5 29t-65 88-18.5 149q0 86 20.5 142t67.5 84 126 28q80 0 127-28t67.5-84 20.5-142q0-90-18.5-149t-65-88-131.5-29zm0 67q58 0 87 20.5t38.5 64.5 9.5 114q0 69-12 110t-41 59-82 18q-52 0-81.5-18t-41.5-59-12-110q0-70 9.5-114t38.5-64.5 87-20.5z"/></svg>