<svg width="77.156" height="24.891" viewBox="0 0 77.156 24.891" xmlns="http://www.w3.org/2000/svg"><path transform="translate(0 15.406) scale(.015625 -.015625)" d="m663 728q-1-6-5.5-11t-11.5-5q-9 0-18 1t-19 1q-74 0-145-28t-130.5-76-103.5-112-65-136q-7-23-11.5-47t-7.5-47q-4-27-5-55t3-55 12.5-52 24.5-46q6-8 13-15.5t15-12.5q15-9 38-13t42-4q54 0 108 23t94 64q11 11 19 21.5t17 22.5q5 7 13 7 6 0 10.5-4t3.5-11q0-1-2-5-21-36-52-65.5t-67-50-75.5-32-79.5-11.5q-11 0-24 1t-26 3.5-25 6-21 8.5q-8 5-16 13t-15 15q-45 50-54 116.5t0 135.5q3 24 8 48t11 48q19 74 63 143.5t105.5 123 135 86 150.5 32.5q18 0 43-2.5t41-8.5q10-4 9-15z"/><path transform="translate(9.0781 15.406) scale(.015625 -.015625)" d="m477 156q-26-53-54-94.5t-73-80.5q-22-20-50-20-15 0-28.5 8.5t-18.5 23.5q-2 5-2.5 14t-1 19 0 19.5 0.5 15.5q-35-42-82.5-71.5t-104.5-29.5q-3 0-8.5 2t-8.5 3q-23 11-34.5 35t-11.5 48q0 33 8.5 65.5t23 63 33.5 58.5 40 53q54 67 124 116.5t152 79.5q1 1 4 1 7 0 10.5-5t3.5-11q0-9-7-12-17-9-33.5-16.5t-32.5-16.5q-111-64-187-164-15-20-31-45t-29-51.5-21.5-54.5-8.5-54q0-4 1-11.5t3-15 6.5-13 10.5-5.5q29 0 56.5 15t51.5 38 43 49 31 49q23 42 41 84.5t36 85.5q7 18 16.5 42t18.5 41q4 7 13 7 7 0 12-4t5-11l-1-2q-8-36-18-72.5t-22-71.5q-5-14-12-31t-11-29q-2-7-2.5-14t-1.5-14q-3-16-6.5-31.5t-7.5-31.5q-5-20-8.5-40.5t-3.5-41.5q0-5 0-9t1-8q7 0 16.5 6t19.5 14.5 18.5 17.5 13.5 14q30 32 57 71 7 8 12.5 17.5t12.5 17.5q3 5 9 5 7 0 12-5t5-12z"/><path transform="translate(16.219 15.406) scale(.015625 -.015625)" d="m361 65q0-5-4-9-16-15-39-34t-48.5-35-52-27-48.5-11q-32 0-50 16t-27.5 39.5-12 51-2.5 51.5q0 56 11 110t24 108q25 105 60.5 205t89.5 194q10 18 20.5 36t22.5 34q4 6 11 6 6 0 11.5-4t5.5-11q0-3-1-5-45-116-93-231t-78-236q-14-54-25.5-109.5t-11.5-112.5q0-15 0.5-32.5t5-32.5 15-25.5 30.5-10.5q22 0 49.5 14t53 31.5 44.5 31.5 23 14q6 0 11-5t5-11z"/><path transform="translate(20.984 15.406) scale(.015625 -.015625)" d="m361 65q0-5-4-9-16-15-39-34t-48.5-35-52-27-48.5-11q-32 0-50 16t-27.5 39.5-12 51-2.5 51.5q0 56 11 110t24 108q25 105 60.5 205t89.5 194q10 18 20.5 36t22.5 34q4 6 11 6 6 0 11.5-4t5.5-11q0-3-1-5-45-116-93-231t-78-236q-14-54-25.5-109.5t-11.5-112.5q0-15 0.5-32.5t5-32.5 15-25.5 30.5-10.5q22 0 49.5 14t53 31.5 44.5 31.5 23 14q6 0 11-5t5-11z"/><path transform="translate(25.75 15.406) scale(.015625 -.015625)" d="m296 745q0-6-5-14l-1-3q2-6 2-9-7-5-10-10.5t-14-5.5q-9 0-18 7.5t-9 18.5q0 18 3.5 29.5t26.5 11.5q9 0 17-8t8-17zm-7-638q0-5-3-8-19-23-36.5-45.5t-37-41.5-43.5-32.5-55-19.5q-27 12-37 31.5t-10 47.5v36q0 26 5.5 54t11.5 54q9 39 20.5 84t27 89.5 35.5 86 45 72.5q5 5 10 5 6 0 12-4.5t6-11.5v-2q-17-53-38.5-111.5t-41-119-33-120.5-13.5-116q0-6 0.5-17t6.5-14q22 4 46.5 23t46 40 37.5 38 22 17q5 0 10.5-5t5.5-10z"/><path transform="translate(29.891 15.406) scale(.015625 -.015625)" d="m433 456q0-2-2-6-2-17-3.5-32.5t-4.5-31.5q-5-33-11-65t-13-64q-25-115-61.5-226t-80.5-220q-16-39-33.5-78.5t-39-77-47.5-71.5-59-62q-46-41-106-41-32 0-62 11t-56 29.5-46.5 44-31.5 54.5q-1 1-1 5 0 6 5 10t11 4q7 0 12-7 5-9 9.5-18t11.5-17q26-32 63.5-53.5t78.5-21.5q47 0 83 33 28 25 53 61t47.5 78 42 88 36 91.5 30.5 88.5 26 79q-36-35-78-55t-93-20q-1 0-3 0t-3 1q-23 5-38.5 18t-25 30.5-13.5 38-4 41.5q0 60 17.5 119t52.5 109q22 30 50 58.5t61 50 70 35 76 13.5q6 0 19-1t26.5-3.5 24-7.5 10.5-12zm-35-12q-15 4-34 4-35 0-69-13t-64-34.5-55-48.5-44-54q-28-42-42.5-93t-14.5-102q0-11 1.5-26t6-28.5 14-23 24.5-9.5q31 0 60.5 15t54.5 38 44.5 51.5 31.5 54.5q30 65 48.5 133t37.5 136z"/><path transform="translate(36.656 15.406) scale(.015625 -.015625)" d="m422 400q0-8-1-15t-3-15-11-8q-4 0-11.5 3.5t-7.5 7.5l1 9q0 7-1.5 17t-5 19.5-9.5 16-16 6.5q-24 0-51-14.5t-46-28.5q-8-6-22-18t-29-26-27.5-27-17.5-21q-3-4-7.5-14.5t-9-22.5-9-23-7.5-17q-20-48-38.5-96t-34.5-97q-8-23-14.5-47.5t-14.5-47.5q-4-8-10-8-4 0-11.5 4.5t-7.5 8.5q0 11 3.5 25t5.5 25q13 65 32 128t44 124q9 24 21.5 57t26.5 67.5 29.5 65 31.5 48.5q4 4 9 4 4 0 11.5-4.5t7.5-9.5q0-3-2-10.5t-4-16-4.5-16-3.5-10.5q32 24 67 43t77 19q18 0 31-7.5t22-19.5 13-27 4-31z"/><path transform="translate(42.203 15.406) scale(.015625 -.015625)" d="m477 156q-26-53-54-94.5t-73-80.5q-22-20-50-20-15 0-28.5 8.5t-18.5 23.5q-2 5-2.5 14t-1 19 0 19.5 0.5 15.5q-35-42-82.5-71.5t-104.5-29.5q-3 0-8.5 2t-8.5 3q-23 11-34.5 35t-11.5 48q0 33 8.5 65.5t23 63 33.5 58.5 40 53q54 67 124 116.5t152 79.5q1 1 4 1 7 0 10.5-5t3.5-11q0-9-7-12-17-9-33.5-16.5t-32.5-16.5q-111-64-187-164-15-20-31-45t-29-51.5-21.5-54.5-8.5-54q0-4 1-11.5t3-15 6.5-13 10.5-5.5q29 0 56.5 15t51.5 38 43 49 31 49q23 42 41 84.5t36 85.5q7 18 16.5 42t18.5 41q4 7 13 7 7 0 12-4t5-11l-1-2q-8-36-18-72.5t-22-71.5q-5-14-12-31t-11-29q-2-7-2.5-14t-1.5-14q-3-16-6.5-31.5t-7.5-31.5q-5-20-8.5-40.5t-3.5-41.5q0-5 0-9t1-8q7 0 16.5 6t19.5 14.5 18.5 17.5 13.5 14q30 32 57 71 7 8 12.5 17.5t12.5 17.5q3 5 9 5 7 0 12-5t5-12z"/><path transform="translate(49.344 15.406) scale(.015625 -.015625)" d="m581 792q0-11-11-15-17-7-31.5-11.5t-31.5-12.5q-40-20-72.5-49.5t-59-64.5-47-74-36.5-79l-1-3q20 3 39.5 6t39.5 3q10 0 27-1.5t26-5.5q4-2 6.5-8t2.5-10q0-3-1.5-6.5t-5.5-5.5q-35-16-77-19.5t-80-7.5q-35-88-65-176t-60-178q-21-63-39-127t-39-126.5-48-123-65-115.5q-18-25-40.5-47.5t-49-39.5-56.5-27-61-10q-38 0-75.5 13.5t-71 35.5-61.5 51-47 61q-2 6-2 8 0 6 4.5 10t10.5 4q7 0 13-6 8-11 15-20.5t15-19.5q34-36 77-62t93-34q6-1 12-1.5t12-0.5q39 0 72.5 16.5t61.5 44 50.5 63.5 41 74 32 75.5 23.5 68.5q20 63 37 125.5t37 125.5q28 84 54.5 166.5t57.5 164.5q-33-3-66-5t-66-2q-4 0-7.5 6.5t-3.5 10.5q0 10 8 13 12 3 24.5 5t24.5 4q26 5 53 9.5t54 9.5q3 9 6.5 17.5t7.5 16.5q21 53 51 104.5t69.5 93 89.5 69.5 110 34h4q6 0 10.5-4.5t4.5-10.5z"/><path transform="translate(53.938 15.406) scale(.015625 -.015625)" d="m581 792q0-11-11-15-17-7-31.5-11.5t-31.5-12.5q-40-20-72.5-49.5t-59-64.5-47-74-36.5-79l-1-3q20 3 39.5 6t39.5 3q10 0 27-1.5t26-5.5q4-2 6.5-8t2.5-10q0-3-1.5-6.5t-5.5-5.5q-35-16-77-19.5t-80-7.5q-35-88-65-176t-60-178q-21-63-39-127t-39-126.5-48-123-65-115.5q-18-25-40.5-47.5t-49-39.5-56.5-27-61-10q-38 0-75.5 13.5t-71 35.5-61.5 51-47 61q-2 6-2 8 0 6 4.5 10t10.5 4q7 0 13-6 8-11 15-20.5t15-19.5q34-36 77-62t93-34q6-1 12-1.5t12-0.5q39 0 72.5 16.5t61.5 44 50.5 63.5 41 74 32 75.5 23.5 68.5q20 63 37 125.5t37 125.5q28 84 54.5 166.5t57.5 164.5q-33-3-66-5t-66-2q-4 0-7.5 6.5t-3.5 10.5q0 10 8 13 12 3 24.5 5t24.5 4q26 5 53 9.5t54 9.5q3 9 6.5 17.5t7.5 16.5q21 53 51 104.5t69.5 93 89.5 69.5 110 34h4q6 0 10.5-4.5t4.5-10.5z"/><path transform="translate(58.531 15.406) scale(.015625 -.015625)" d="m296 745q0-6-5-14l-1-3q2-6 2-9-7-5-10-10.5t-14-5.5q-9 0-18 7.5t-9 18.5q0 18 3.5 29.5t26.5 11.5q9 0 17-8t8-17zm-7-638q0-5-3-8-19-23-36.5-45.5t-37-41.5-43.5-32.5-55-19.5q-27 12-37 31.5t-10 47.5v36q0 26 5.5 54t11.5 54q9 39 20.5 84t27 89.5 35.5 86 45 72.5q5 5 10 5 6 0 12-4.5t6-11.5v-2q-17-53-38.5-111.5t-41-119-33-120.5-13.5-116q0-6 0.5-17t6.5-14q22 4 46.5 23t46 40 37.5 38 22 17q5 0 10.5-5t5.5-10z"/><path transform="translate(62.672 15.406) scale(.015625 -.015625)" d="m352 655q0-2-0.5-3t-0.5-2q-31-69-64-136.5t-59-139.5q11 0 21 0.5t21 0.5q5 0 11.5 0.5t12-1 9.5-5 4-11.5q0-10-8-13-7-2-18.5-4.5t-24-4.5-24-3.5-19.5-2.5q-9-26-17-57.5t-14-65-10-66-4-59.5q0-7 0.5-21.5t3-28.5 8-25 15.5-11q14 0 32 14t35.5 32.5 33 37 25.5 28.5q4 4 9 4 6 0 11.5-5t5.5-11q0-3-3-7-11-16-28.5-39.5t-38-45-43-36.5-43.5-15q-23 0-37 16t-21.5 38.5-10 47-2.5 41.5q0 24 3.5 54t8.5 61 12 60.5 13 53.5q-8 0-15.5-0.5t-15.5-0.5q-21 0-43 1t-43 4.5-41 12-36 23.5q-4 3-4 9 0 2 6 10.5t8 8.5q37 0 73-8t73-10q12-1 24.5-1t25.5 0h3q11 34 27 74t36 79 42.5 75.5 46.5 63.5q6 4 10 4 6 0 12-4.5t6-10.5z"/><path transform="translate(67.844 15.406) scale(.015625 -.015625)" d="m352 655q0-2-0.5-3t-0.5-2q-31-69-64-136.5t-59-139.5q11 0 21 0.5t21 0.5q5 0 11.5 0.5t12-1 9.5-5 4-11.5q0-10-8-13-7-2-18.5-4.5t-24-4.5-24-3.5-19.5-2.5q-9-26-17-57.5t-14-65-10-66-4-59.5q0-7 0.5-21.5t3-28.5 8-25 15.5-11q14 0 32 14t35.5 32.5 33 37 25.5 28.5q4 4 9 4 6 0 11.5-5t5.5-11q0-3-3-7-11-16-28.5-39.5t-38-45-43-36.5-43.5-15q-23 0-37 16t-21.5 38.5-10 47-2.5 41.5q0 24 3.5 54t8.5 61 12 60.5 13 53.5q-8 0-15.5-0.5t-15.5-0.5q-21 0-43 1t-43 4.5-41 12-36 23.5q-4 3-4 9 0 2 6 10.5t8 8.5q37 0 73-8t73-10q12-1 24.5-1t25.5 0h3q11 34 27 74t36 79 42.5 75.5 46.5 63.5q6 4 10 4 6 0 12-4.5t6-10.5z"/><path transform="translate(73.016 15.406) scale(.015625 -.015625)" d="m296 745q0-6-5-14l-1-3q2-6 2-9-7-5-10-10.5t-14-5.5q-9 0-18 7.5t-9 18.5q0 18 3.5 29.5t26.5 11.5q9 0 17-8t8-17zm-7-638q0-5-3-8-19-23-36.5-45.5t-37-41.5-43.5-32.5-55-19.5q-27 12-37 31.5t-10 47.5v36q0 26 5.5 54t11.5 54q9 39 20.5 84t27 89.5 35.5 86 45 72.5q5 5 10 5 6 0 12-4.5t6-11.5v-2q-17-53-38.5-111.5t-41-119-33-120.5-13.5-116q0-6 0.5-17t6.5-14q22 4 46.5 23t46 40 37.5 38 22 17q5 0 10.5-5t5.5-10z"/></svg>