<svg width="61.232" height="20.8" viewBox="0 0 61.232 20.8" xmlns="http://www.w3.org/2000/svg"><path transform="translate(0 16) scale(.016 -.016)" d="m390-13q-78 0-144.5 28t-116 78-77 115.5-27.5 140.5 26.5 141 75 116 115.5 78.5 148 28.5q86 0 147.5-27t108.5-83l-99-86q-63 66-157 66-67 0-116.5-32t-76.5-85-27-117 27-116.5 77-84 119-31.5q51 0 90 17t70 51l102-87q-40-48-106.5-79.5t-158.5-31.5z"/><path transform="translate(10.592 16) scale(.016 -.016)" d="m277-13q-71 0-129.5 36.5t-93 98-34.5 136.5q0 56 20 105.5t55 87 81.5 59 100.5 21.5q68 0 106-25.5t59-67.5v82h134v-520h-131v85q-21-44-59.5-71t-108.5-27zm22 122q45 0 77.5 20.5t50.5 54.5 18 74q0 41-18 75t-50.5 55-77.5 21q-43 0-75.5-20.5t-50.5-54.5-18-75q0-39 18-73.5t50.5-55.5 75.5-21z"/><path transform="translate(20.448 16) scale(.016 -.016)" d="M40 0V730H175V0Z"/><path transform="translate(26.512 16) scale(.016 -.016)" d="m278-13q-83 0-152.5 35.5t-115.5 115.5l121 77q27-54 68-78.5t87-24.5q49 0 77 22t28 58q0 35-22 56t-58.5 34-79.5 24q-81 21-129 69.5t-48 127.5q0 63 31 110t86.5 73 129.5 26q82 0 137-34t94-96l-120-74q-25 41-52 60t-66 19q-42 0-69.5-21t-27.5-56q0-39 32.5-56.5t78.5-31.5q31-10 69.5-23.5t74.5-37 59-62.5 23-99q0-63-31-111t-88-75-137-27z"/><path transform="translate(35.408 16) scale(.016 -.016)" d="m277-13q-71 0-129.5 36.5t-93 98-34.5 136.5q0 56 20 105.5t55 87 81.5 59 100.5 21.5q68 0 106-25.5t59-67.5v82h134v-520h-131v85q-21-44-59.5-71t-108.5-27zm22 122q45 0 77.5 20.5t50.5 54.5 18 74q0 41-18 75t-50.5 55-77.5 21q-43 0-75.5-20.5t-50.5-54.5-18-75q0-39 18-73.5t50.5-55.5 75.5-21z"/><path transform="translate(45.264 16) scale(.016 -.016)" d="m40 0v520h133v-76q41 88 159 88 56 0 101-26t71-74 26-114v-318h-135v285q0 68-31 98.5t-81 30.5q-43 0-75.5-30.5t-32.5-98.5v-285z"/><path transform="translate(54.304 16) scale(.016 -.016)" d="m218-13q-131 0-216 91l91 83q57-64 122-64 35 0 53.5 15.5t18.5 38.5q0 14-6.5 24t-27 19-61.5 18q-70 17-104 42t-45 56-11 64q0 68 51.5 113.5t142.5 45.5q63 0 108-19t85-71l-98-75q-19 30-42.5 43t-49.5 13q-28 0-46.5-11t-18.5-35q0-13 12-25.5t58-24.5q76-19 116-44.5t55-57.5 15-71q0-48-26.5-86t-72-60-103.5-22z"/></svg>