<svg width="42.644" height="15.708" viewBox="0 0 42.644 15.708" xmlns="http://www.w3.org/2000/svg"><path transform="translate(0 12.306) scale(.014 -.014)" d="m354-7q-159 0-232.5 83t-73.5 260q0 346 306 346 120 0 182-59 34-33 34-75t-18.5-66-42-24-41 11.5-22.5 30.5q20 29 20 59.5t-30.5 49-80.5 18.5q-107 0-154-68.5t-47-222.5 46-221 154-67q35 0 74 14 75 28 105 111l50-18q-16-43-43-75.5t-53-48.5-57-25q-44-13-76-13z"/><path transform="translate(8.47 12.306) scale(.014 -.014)" d="m187-8q-64 0-99.5 32.5t-35.5 97 49.5 104.5 144.5 47l85 6v88q0 54-21.5 78.5t-68.5 24.5q-85 0-85-49 0-27 33-40 0-51-62-51-28 0-45 17t-17 45q0 56 47.5 88.5t131 32.5 131.5-38.5 48-107.5v-301q25-19 75-29l-4-37h-149l-11 48q-59-56-147-56zm-40 133q0-88 68-88 54 0 116 62v136l-81-7q-48-4-75.5-32t-27.5-71z"/><path transform="translate(15.582 12.306) scale(.014 -.014)" d="m109 374q0 40-16.5 54.5t-58.5 16.5l3 32q22 4 132 36l19-10 8-56q8 10 20.5 22t44 28 63.5 16q97 0 138-70 70 70 141 70t116.5-39 45.5-123v-285q25-19 75-29l-4-37h-237l3 37q40 6 71 29v288q0 107-81 107-36 0-67.5-26.5t-41.5-57.5v-311q25-19 75-29l-4-37h-237l3 37q40 6 71 29v288q0 107-81 107-36 0-67.5-26.5t-41.5-57.5v-311q27-20 75-29l-4-37h-238l4 39q43 7 71 27z"/><path transform="translate(27.552 12.306) scale(.014 -.014)" d="m89 0v598q0 34-17.5 47.5t-57.5 15.5l3 32q41 7 143 37l21-11v-281q43 75 124 75 106 0 155-69t49-187.5-58-191.5-167-73q-67 0-122 53-15-22-22-45zm92 221v-129q58-54 102-54t70 18.5 38 53.5q20 58 20 126t-3 100-13 65q-20 66-90 66-79 0-104-79-20-65-20-167z"/><path transform="translate(35.252 12.306) scale(.014 -.014)" d="m137 253q0-112 30-161.5t97.5-49.5 97.5 49.5 30 161-30 161-98 49.5-97.5-49-29.5-161zm293.5-194.5q-56.5-66.5-166.5-66.5t-166.5 66.5-56.5 194 56.5 194 166.5 66.5 166.5-66.5 56.5-194-56.5-194z"/></svg>