<svg width="48.807" height="22.803" viewBox="0 0 48.807 22.803" xmlns="http://www.w3.org/2000/svg"><path transform="translate(0 14) scale(.0175 -.0175)" d="m407 551q-36 7-92 7-55 0-113-23-50-20-86-57-34-34-53-85.5t-19-116.5q0-127 75-205 36-36 89-58t116-22q92 0 165 36l-16 52q-71-27-129-27-70 0-123 29-48 28-76 78.5t-28 117.5q0 69 24.5 119.5t70.5 77.5q44 24 122 24 39 0 66.5-5.5t63.5-17.5l19 54q-52 17-76 22z"/><path transform="translate(9.065 14) scale(.0175 -.0175)" d="m77 317-13 48q67 23 125 23 65 0 99-20 30-22 41.5-47t11.5-73v-248h-49l-14 36q-57-46-117-46-52 0-87.5 30t-35.5 76q0 45 27.5 74.5t67.5 39.5q51 13 143 15v3q0 41-8 60-16 45-88 45-21 0-50.5-4.5t-52.5-11.5zm199-231v92q-69-1-102-8-37-8-55-23.5t-18-43.5q0-29 20.5-45t48.5-16q33 0 58 11.5t48 32.5z"/><path transform="translate(15.943 14) scale(.0175 -.0175)" d="m440 338q-37 0-92-34 3-11 3-44v-260h-65v244q0 94-76 94-36 0-89-29v-309h-65v384h45l14-32q34 23 63 32 23 6 53 6 33 0 58.5-13t41.5-36q33 24 63 36.5t66 12.5q59 0 90.5-35.5t31.5-94.5v-260h-67v244q0 94-75 94z"/><path transform="translate(27.038 14) scale(.0175 -.0175)" d="m58 0v532h65v-158q39 18 93 18 81 0 132-48 53-53 53-156 0-89-45.5-142.5t-130.5-53.5q-56 0-109 35l-12-27zm275 192q0 67-31.5 107t-93.5 40q-47 0-85-15v-254q23-12 41.5-17.5t44.5-5.5q64 0 94 35t30 110z"/><path transform="translate(34.72 14) scale(.0175 -.0175)" d="m77 317-13 48q67 23 125 23 65 0 99-20 30-22 41.5-47t11.5-73v-248h-49l-14 36q-57-46-117-46-52 0-87.5 30t-35.5 76q0 45 27.5 74.5t67.5 39.5q51 13 143 15v3q0 41-8 60-16 45-88 45-21 0-50.5-4.5t-52.5-11.5zm199-231v92q-69-1-102-8-37-8-55-23.5t-18-43.5q0-29 20.5-45t48.5-16q33 0 58 11.5t48 32.5z"/><path transform="translate(41.598 14) scale(.0175 -.0175)" d="m169-206h-67l74 186-154 404h68l118-318 118 318h62z"/></svg>