<svg width="66.961" height="22.656" viewBox="0 0 66.961 22.656" xmlns="http://www.w3.org/2000/svg"><path transform="translate(0 17.5) scale(.0078125 -.0078125)" d="m986 1431q194 0 386-76l-52-141q-194 67-339 67-120 0-222.5-47.5t-170-127-105.5-182-38-214.5q0-116 40.5-220.5t113.5-183 181.5-124.5 237.5-46q154 0 321 60l52-126q-209-90-416-90-128 0-240 37t-195.5 103.5-143.5 157.5-90.5 200.5-30.5 230.5q0 205 85.5 368t248.5 258.5 377 95.5z"/><path transform="translate(11.336 17.5) scale(.0078125 -.0078125)" d="m507 1007q110 0 186.5-25.5t118-74.5 59.5-109 18-138v-660h-116l-38 90q-121-110-278-110-140 0-237 84.5t-97 197.5q0 60 22 108t63.5 80 94.5 54.5 123.5 34.5 141.5 17 156 5v78q0 34-2.5 59t-16.5 60-38 57.5-72 39-114 16.5q-102 0-264-45l-31 120q164 61 321 61zm217-570h-61q-57 0-99-2t-98.5-11.5-92.5-26.5-61.5-49.5-25.5-77.5q0-63 63.5-112t151.5-49q129 0 223 101z"/><path transform="translate(19.688 17.5) scale(.0078125 -.0078125)" d="m180 988h115l36-84q191 104 348 104 81 0 141-25.5t93-64 52.5-97 25-111.5 5.5-121v-589h-164v600q0 260-224 260-116 0-264-77v-783h-164z"/><path transform="translate(28.875 17.5) scale(.0078125 -.0078125)" d="m705 17q-145-37-226-37t-137 26-85 74-41.5 103.5-12.5 127.5v548h-133v129h133v283h164v-283h301v-129h-301v-546q0-205 162-205 29 0 153 21z"/><path transform="translate(34.93 17.5) scale(.0078125 -.0078125)" d="m507 1007q110 0 186.5-25.5t118-74.5 59.5-109 18-138v-660h-116l-38 90q-121-110-278-110-140 0-237 84.5t-97 197.5q0 60 22 108t63.5 80 94.5 54.5 123.5 34.5 141.5 17 156 5v78q0 34-2.5 59t-16.5 60-38 57.5-72 39-114 16.5q-102 0-264-45l-31 120q164 61 321 61zm217-570h-61q-57 0-99-2t-98.5-11.5-92.5-26.5-61.5-49.5-25.5-77.5q0-63 63.5-112t151.5-49q129 0 223 101z"/><path transform="translate(43.281 17.5) scale(.0078125 -.0078125)" d="m326 914q125 93 276 93 104 0 189-39l-50-131q-78 30-162 30-125 0-235-69v-798h-164v988h115z"/><path transform="translate(49.539 17.5) scale(.0078125 -.0078125)" d="m605 1007q72 0 129.5-17.5t95.5-44.5 65.5-70.5 42-84 22.5-97.5 10-99 2-99v-78h-679q0-54 24.5-107.5t69-98 117-72.5 160.5-28q104 0 225 36l29-112q-161-55-316-55-109 0-193.5 29t-136 75.5-84.5 111.5-45.5 129.5-12.5 136.5q0 111 27 203t73 154.5 107.5 105.5 129 62.5 138.5 19.5zm-35-142q-88 0-151.5-48.5t-92.5-120.5-29-155h516q0 324-243 324z"/><path transform="translate(58.148 17.5) scale(.0078125 -.0078125)" d="M200 1511H364V0H200Z"/><path transform="translate(62.555 17.5) scale(.0078125 -.0078125)" d="M200 1511H364V0H200Z"/></svg>