<svg width="38.448" height="19.2" viewBox="0 0 38.448 19.2" xmlns="http://www.w3.org/2000/svg"><path transform="translate(0 14.4) scale(.016 -.016)" d="m222-36q-54 0-100.5 20t-74.5 59.5-28 97.5q0 61 29 116t77.5 100.5 108 79 121.5 51.5 117 18q25 0 51.5-8t45-26 18.5-48q0-34-25.5-64t-52.5-49q-3-2-7.5-5t-8.5-3q-5 0-5 6 0 8 11 22t22 34.5 11 47.5q0 40-28 55t-63 15q-66 0-129.5-25.5t-116-69.5-86.5-101q-16-28-27.5-60t-11.5-65q0-54 29-84.5t73-43 90-12.5q78 0 142.5 19.5t123.5 72.5q2 2 4 2 3 0 3-6 0-4-2-5-32-43-85.5-74.5t-113-49-112.5-17.5z"/><path transform="translate(9.264 14.4) scale(.016 -.016)" d="m218-4q-19 0-32 12t-13 32q0 21 11.5 47.5t20.5 44.5q-12-15-31-37.5t-41-44.5-45-36.5-44-14.5q-22 0-31.5 16t-9.5 35q0 12 3 24 7 26 27 54.5t46.5 55 54.5 49.5 50 38q10 7 21.5 12.5t24.5 5.5q16 0 29.5-8.5t24.5-19.5q3 5 4.5 8t7.5 3q4 0 18.5-3t27.5-7 13-8q0-1-1-1-7-10-15-20t-16-20q-25-34-48.5-71t-40.5-77q-2-6-4-12.5t-2-13.5q0-18 18-18 14 0 34 15t41.5 37 40.5 44.5 32 37.5 15 15q3 0 3-4 0-2-15-19.5t-36-40.5-38-41.5-22-23.5q-16-15-38-30t-45-15zm-163 26q8 0 16.5 4.5t14.5 7.5q39 23 74 60t65 79 54 80q-2 1-7 1-10 0-21-7-57-29-108.5-78.5t-85.5-105.5q-4-6-7.5-14.5t-3.5-16.5q0-10 9-10z"/><path transform="translate(14.72 14.4) scale(.016 -.016)" d="m144-4q-20 0-32.5 12t-12.5 32 12.5 49 30.5 61 36 60.5 29 46.5q-7-3-17-3-11 0-23 3.5t-23 7.5q-3-5-14.5-21.5t-27-38-31.5-41.5-27.5-33.5-15.5-13.5q-3 0-3 3 0 2 3 5 11 14 22.5 27t22.5 27q17 21 32 44t27 48q-6 4-16 12t-10 16q0 11 13 21.5t29 18.5 24 12q4 1 18.5 7.5t15.5 6.5q4 0 4-4 0-1-12.5-12.5t-25-27.5-12.5-32q0-14 12-20t24-6q11 0 18 4 3 5 8 5 8 0 20-2.5t22-8 10-15.5q0-7-4-13.5t-9-11.5q-10-12-29.5-35.5t-40-51.5-34.5-53-14-39q0-10 7-16.5t17-6.5q16 0 37 15.5t42.5 38 40.5 44.5 32 37.5 15 15.5q4 0 4-4 0-2-10-14t-25.5-29.5-32-35-28.5-30.5-16-16q-16-15-37.5-30t-44.5-15z"/><path transform="translate(18.976 14.4) scale(.016 -.016)" d="m218-4q-19 0-32 12t-13 32q0 21 11.5 47.5t20.5 44.5q-12-15-31-37.5t-41-44.5-45-36.5-44-14.5q-22 0-31.5 16t-9.5 35q0 12 3 24 7 26 27 54.5t46.5 55 54.5 49.5 50 38q10 7 21.5 12.5t24.5 5.5q16 0 29.5-8.5t24.5-19.5q3 5 4.5 8t7.5 3q4 0 18.5-3t27.5-7 13-8q0-1-1-1-7-10-15-20t-16-20q-25-34-48.5-71t-40.5-77q-2-6-4-12.5t-2-13.5q0-18 18-18 14 0 34 15t41.5 37 40.5 44.5 32 37.5 15 15q3 0 3-4 0-2-15-19.5t-36-40.5-38-41.5-22-23.5q-16-15-38-30t-45-15zm-163 26q8 0 16.5 4.5t14.5 7.5q39 23 74 60t65 79 54 80q-2 1-7 1-10 0-21-7-57-29-108.5-78.5t-85.5-105.5q-4-6-7.5-14.5t-3.5-16.5q0-10 9-10z"/><path transform="translate(24.432 14.4) scale(.016 -.016)" d="m331-4q-19 0-28.5 11t-9.5 29 11 45.5 27 58 31.5 57.5 25.5 43q-26-12-48.5-32t-42.5-40q-23-24-40.5-51t-31.5-56q-4-9-7.5-17.5t-8.5-16.5q-4-10-21.5-19t-27.5-9q-11 0-11 12 0 18 9 45.5t22.5 57.5 27 57 22.5 45 9 20-2 2q-3 0-7-2.5t-6-4.5q-30-21-62.5-57t-61-75-47.5-71q-11-19-25.5-23.5t-34.5-4.5q7 16 15 31t15 29q12 24 22 47.5t20 47.5q8 21 17 49.5t9 50.5q0 6-1 12t-4 11q-3 3-3 3 0 6 7 6 6 0 21-7t28.5-16.5 13.5-17.5q0-15-11.5-43t-26-54.5-24.5-39.5q-1-1-2.5-3t-1.5-4l1-1q2 0 16 17.5t35.5 43.5 47.5 52.5 52 44 48 17.5q11 0 25-5.5t14-19.5q0-4-2-7.5t-4-7.5q-21-28-41-56t-37-60q12 16 36 42t52.5 52 56.5 44 49 18q11 0 25-5.5t14-19.5q0-4-2-7.5t-4-7.5q-11-15-30.5-40.5t-40-55.5-35-57-14.5-44q0-18 18-18 15 0 35 15t41.5 37 40.5 44.5 31.5 37.5 15.5 15 3-4q0-1-8.5-11.5t-17.5-20.5-12-13q-13-15-32.5-36.5t-42-41.5-46-33.5-44.5-13.5z"/><path transform="translate(31.84 14.4) scale(.016 -.016)" d="m91-1q-28 0-54 14t-26 46q0 4 0.5 7.5t1.5 7.5q8 34 29.5 67t52 62 64 51.5 64.5 34.5q3 2 6 3t7 1q9 0 15-9.5t9-21.5 3-19q0-18-10.5-36.5t-23.5-30.5q6 0 12-0.5t12-0.5q2 0 2-2 0-1-2-2t-4-2l-30-3q-28-3-58-9t-57-16q-13-18-26-45t-13-50q0-13 6-22.5t21-9.5q9 0 18.5 3.5t17.5 7.5q48 24 86 57.5t74 72.5q2 2 3 2 2 0 2-2 0-3-2-6.5t-4-5.5q-27-34-62-68.5t-71-57.5q-28-18-63-18zm38 172q23 2 46 3.5t46 1.5q6 8 10.5 21.5t4.5 23.5q0 5-2 10.5t-9 5.5h-3q-12-4-30.5-16t-35.5-26-27-24z"/><path transform="translate(35.568 14.4) scale(.016 -.016)" d="m60-4q-22 0-33.5 14.5t-11.5 35.5q0 16 17 53t43 83 54.5 93 52 84 35.5 55q10 15 20 29.5t30 14.5q6 0 21.5-4t30-9.5 15.5-11.5q-19-7-46.5-38.5t-59-76-61-92-52.5-87-33-60.5q-4-9-8.5-20t-4.5-22q0-16 17-16 15 0 35 15t41 37 40 44.5 32 37.5 15 15q4 0 4-4 0-1-8.5-11.5t-18-20.5-11.5-13q-13-15-31-36t-38.5-41.5-42.5-34-43-13.5z"/></svg>