<svg width="118.75" height="16.688" viewBox="0 0 118.75 16.688" xmlns="http://www.w3.org/2000/svg"><path transform="translate(0 12.908) scale(.014 -.014)" d="m531 119q-28-60-77-97t-129-37q-40 0-84.5 15.5t-82.5 57.5-63 115-25 187q0 112 24 185t61.5 115 82.5 58.5 88 16.5q39 0 70.5-10t55.5-26.5 41.5-38.5 28.5-46l-75-29q-16 41-44.5 62t-76.5 21q-34 0-64.5-14.5t-53.5-50-36.5-94.5-13.5-149q0-89 14-148t37.5-94 54-50 63.5-15q55 0 84 27.5t47 69.5z"/><path transform="translate(8.148 12.908) scale(.014 -.014)" d="M438 0 391 135H141L93 0H10L220 560H318L527 0ZM163 199H369L268 494Z"/><path transform="translate(15.666 12.908) scale(.014 -.014)" d="m423 0-146 206h-106v-206h-81v560h149q51 0 93-10t72-32 47-55.5 17-79.5q0-70-31-108t-79-55l161-220zm-252 498v-230h66q75 0 111.5 26.5t36.5 88.5q0 59-36.5 87t-107.5 28z"/><path transform="translate(23.142 12.908) scale(.014 -.014)" d="m423 0-146 206h-106v-206h-81v560h149q51 0 93-10t72-32 47-55.5 17-79.5q0-70-31-108t-79-55l161-220zm-252 498v-230h66q75 0 111.5 26.5t36.5 88.5q0 59-36.5 87t-107.5 28z"/><path transform="translate(30.618 12.908) scale(.014 -.014)" d="m70 280q0 78 21 134t56 92 80.5 52.5 93.5 16.5 93.5-16.5 80.5-52.5 56-92 21-134-21-134-56.5-92-80.5-52.5-93-16.5-93 16.5-80.5 52.5-56.5 92-21 134zm84 0q0-114 44.5-171.5t122.5-57.5 122.5 57.5 44.5 171.5-44.5 172-122.5 58-122.5-57.5-44.5-172.5z"/><path transform="translate(39.606 12.908) scale(.014 -.014)" d="M172 560V0H90V560Z"/><path transform="translate(43.274 12.908) scale(.014 -.014)" d="m119 136q6-14 18-29.5t30-28.5 42.5-21 54.5-8q22 0 44 5t39 16 28 28.5 11 42.5-7.5 41.5-25.5 29-48 24-75 26.5q-72 24-113.5 60t-41.5 99q0 28 13 54.5t37.5 47 60 32.5 81.5 12q69 0 117.5-29t74.5-77l-70-28q-18 35-46.5 53.5t-73.5 18.5q-22 0-43-4.5t-37-14-26-24-10-35.5 7.5-35.5 23.5-26.5 42-22.5 64-24.5q44-16 77-30.5t55.5-33.5 33.5-45 11-65q0-35-14.5-64t-41-50-64-33-83.5-12q-45 0-80.5 11t-62 28.5-44.5 38.5-27 41z"/><path transform="translate(54.852 12.908) scale(.014 -.014)" d="m521 0h-66l-5 45q-27-31-63.5-45t-76.5-14q-50 0-93.5 19t-76 62.5-51.5 115.5-19 178q0 107 21.5 179t57.5 115.5 82.5 62 96.5 18.5q74 0 120-29.5t72-83.5l-72-33q-17 38-44 59.5t-73 21.5q-39 0-71.5-17t-55-54-35-96-12.5-143q0-89 11.5-148t33.5-95 52-51 68-15q83 0 123 60v217h-123v68h199z"/><path transform="translate(63.224 12.908) scale(.014 -.014)" d="m70 280q0 78 21 134t56 92 80.5 52.5 93.5 16.5 93.5-16.5 80.5-52.5 56-92 21-134-21-134-56.5-92-80.5-52.5-93-16.5-93 16.5-80.5 52.5-56.5 92-21 134zm84 0q0-114 44.5-171.5t122.5-57.5 122.5 57.5 44.5 171.5-44.5 172-122.5 58-122.5-57.5-44.5-172.5z"/><path transform="translate(72.212 12.908) scale(.014 -.014)" d="M437 489H271V0H189V489H25V560H437Z"/><path transform="translate(78.68 12.908) scale(.014 -.014)" d="M517 560V0H434V251H172V0H90V560H172V318H434V560Z"/><path transform="translate(87.178 12.908) scale(.014 -.014)" d="M172 560V0H90V560Z"/><path transform="translate(90.846 12.908) scale(.014 -.014)" d="m507 96q-25-48-74.5-79.5t-124.5-31.5q-39 0-81 14t-77 47.5-57.5 90.5-22.5 143q0 84 23 141t58.5 91 78.5 48.5 82 14.5q70 0 115-29.5t71-71.5l-69-34q-16 31-45.5 50t-71.5 19q-27 0-55-10.5t-50.5-37-37-70.5-14.5-111q0-66 14.5-110t37-70.5 50-37 54.5-10.5q46 0 78.5 21.5t49.5 59.5z"/><path transform="translate(102.93 12.908) scale(.014 -.014)" d="m284 669q-56 0-92-26.5t-36-83.5q0-26 7-46t23.5-36 43.5-30.5 67-29.5q39-15 74-33t61.5-44 42-63 15.5-90q0-41-16.5-78t-46-64.5-70.5-43.5-90-16q-50 0-87.5 12.5t-64.5 33-44.5 46.5-27.5 54l72 27q7-20 18.5-39t29.5-33.5 43.5-23.5 61.5-9q24 0 48 6.5t43.5 21.5 31.5 40 12 61q0 38-9.5 63t-30 44-53.5 34-79 34q-81 33-119.5 80t-38.5 116q0 38 14 71.5t41 58 65.5 38.5 88.5 14q85 0 133-34.5t74-93.5l-74-26q-17 42-47 65t-84 23z"/><path transform="translate(110.6 12.908) scale(.014 -.014)" d="m531 119q-28-60-77-97t-129-37q-40 0-84.5 15.5t-82.5 57.5-63 115-25 187q0 112 24 185t61.5 115 82.5 58.5 88 16.5q39 0 70.5-10t55.5-26.5 41.5-38.5 28.5-46l-75-29q-16 41-44.5 62t-76.5 21q-34 0-64.5-14.5t-53.5-50-36.5-94.5-13.5-149q0-89 14-148t37.5-94 54-50 63.5-15q55 0 84 27.5t47 69.5z"/></svg>