<svg width="121.88" height="18.594" viewBox="0 0 121.88 18.594" xmlns="http://www.w3.org/2000/svg"><path transform="translate(0 14.844) scale(.0078125 -.0078125)" d="m748-20q-662 0-662 732 0 347 167 537.5t471 190.5q147 0 256-46.5t159-132.5l-148-147q-45 68-114.5 105t-150.5 37q-193 0-309.5-139t-116.5-395q0-558 482-558 145 0 286 60l46-176q-174-68-366-68z"/><path transform="translate(9.375 14.844) scale(.0078125 -.0078125)" d="m818-10-14 314-28 88v274q0 106-74.5 155.5t-221.5 53.5l-254 7 20 188 214-3q263-4 390.5-113.5t127.5-319.5v-442l180-22v-170zm-374-10q-166 0-257 80t-91 226q0 168 125.5 258t354.5 90q95 0 169.5-11.5t132.5-34.5l-44-144q-67 15-131 17.5t-131 2.5q-276 0-276-168 0-70 47.5-108t134.5-38q99 0 165.5 34t99.5 87 33 109v116l62-272h-84l34 32q0-92-42.5-153.5t-119.5-92-182-30.5z"/><path transform="translate(18.75 14.844) scale(.0078125 -.0078125)" d="m518-20q-120 0-205.5 7t-156.5 23l24 192q105-16 185.5-24t152.5-8q161 0 233.5 31.5t72.5 100.5q0 48-25.5 71.5t-78.5 36.5l-244 62q-157 40-230.5 99t-73.5 179q0 174 133.5 252t430.5 78q77 0 143.5-4.5t136.5-15.5l-22-184q-81 8-143 11t-121 3q-178 0-258-30.5t-80-99.5q0-46 33-66.5t101-37.5l196-48q167-40 244.5-107t77.5-195q0-171-125-248.5t-401-77.5z"/><path transform="translate(28.125 14.844) scale(.0078125 -.0078125)" d="m702-20q-271 0-418.5 142.5t-147.5 409.5q0 260 139.5 404t398.5 144q155 0 265.5-57.5t157.5-162.5l-163-123q-45 73-115 113t-153 40q-150 0-233-90.5t-83-257.5q0-181 97.5-276.5t278.5-95.5q74 0 148 7t144 19l24-186q-82-18-169.5-24t-170.5-6z"/><path transform="translate(37.5 14.844) scale(.0078125 -.0078125)" d="m818-10-14 314-28 88v274q0 106-74.5 155.5t-221.5 53.5l-254 7 20 188 214-3q263-4 390.5-113.5t127.5-319.5v-442l180-22v-170zm-374-10q-166 0-257 80t-91 226q0 168 125.5 258t354.5 90q95 0 169.5-11.5t132.5-34.5l-44-144q-67 15-131 17.5t-131 2.5q-276 0-276-168 0-70 47.5-108t134.5-38q99 0 165.5 34t99.5 87 33 109v116l62-272h-84l34 32q0-92-42.5-153.5t-119.5-92-182-30.5z"/><path transform="translate(46.875 14.844) scale(.0078125 -.0078125)" d="m519-20q-208 0-315.5 137t-107.5 403q0 276 107.5 418t315.5 142q119 0 193.5-56t87.5-156h82l-62-302q0 164-64.5 249t-189.5 85q-128 0-194-96t-66-284q0-178 66-269t194-91q125 0 189.5 85t64.5 249l72-302h-92q-10-100-84.5-156t-196.5-56zm323 10-22 208v1302h212v-1500z"/><path transform="translate(56.25 14.844) scale(.0078125 -.0078125)" d="m564 0v1e3h212v-1e3zm-404 0v186h424v-186zm596 0v186h346v-186zm-536 874v186h556v-186zm443 354q-61 0-104.5 43.5t-43.5 104.5q0 62 43.5 105t104.5 43q62 0 105-43t43-105q0-61-43-104.5t-105-43.5z"/><path transform="translate(65.625 14.844) scale(.0078125 -.0078125)" d="m818-10-14 314-28 88v274q0 106-74.5 155.5t-221.5 53.5l-254 7 20 188 214-3q263-4 390.5-113.5t127.5-319.5v-442l180-22v-170zm-374-10q-166 0-257 80t-91 226q0 168 125.5 258t354.5 90q95 0 169.5-11.5t132.5-34.5l-44-144q-67 15-131 17.5t-131 2.5q-276 0-276-168 0-70 47.5-108t134.5-38q99 0 165.5 34t99.5 87 33 109v116l62-272h-84l34 32q0-92-42.5-153.5t-119.5-92-182-30.5z"/><path transform="translate(84.375 14.844) scale(.0078125 -.0078125)" d="m748-20q-662 0-662 732 0 347 167 537.5t471 190.5q147 0 256-46.5t159-132.5l-148-147q-45 68-114.5 105t-150.5 37q-193 0-309.5-139t-116.5-395q0-558 482-558 145 0 286 60l46-176q-174-68-366-68z"/><path transform="translate(93.75 14.844) scale(.0078125 -.0078125)" d="m600-20q-220 0-342 144t-122 406q0 263 122 406.5t342 143.5q221 0 342.5-143.5t121.5-406.5q0-262-121.5-406t-342.5-144zm0 190q117 0 180.5 94t63.5 266q0 173-63.5 266.5t-180.5 93.5-180.5-93.5-63.5-266.5q0-172 63.5-266t180.5-94z"/><path transform="translate(103.12 14.844) scale(.0078125 -.0078125)" d="m519-20q-208 0-315.5 137t-107.5 403q0 276 107.5 418t315.5 142q119 0 193.5-56t87.5-156h82l-62-302q0 164-64.5 249t-189.5 85q-128 0-194-96t-66-284q0-178 66-269t194-91q125 0 189.5 85t64.5 249l72-302h-92q-10-100-84.5-156t-196.5-56zm323 10-22 208v1302h212v-1500z"/><path transform="translate(112.5 14.844) scale(.0078125 -.0078125)" d="m692-20q-271 0-418.5 142.5t-147.5 409.5q0 260 125 404t353 144q215 0 332.5-130t117.5-378q0-73-6-136h-744v162h558q0 143-68 219.5t-188 76.5q-135 0-209.5-92t-74.5-260q0-184 102.5-280t291.5-96q66 0 130 7.5t130 20.5l26-186q-94-18-172-23t-138-5z"/></svg>