<svg width="71.984" height="26.24" viewBox="0 0 71.984 26.24" xmlns="http://www.w3.org/2000/svg"><path transform="translate(0 17.6) scale(.016 -.016)" d="m533 655q-23 14-54.5 22.5t-63 12.5-52.5 4q-74 0-133.5-27t-101-76-63.5-114-22-141q0-71 19.5-134t59-111.5 98.5-76.5 137-28q29 0 62 5t63.5 14 51.5 20l-30 59q-28-12-63-21t-87-9q-54 0-96.5 22t-72 61.5-44.5 90.5-15 109q0 85 31.5 150t85 102 120.5 37q34 0 58-3.5t44.5-10 42.5-15.5z"/><path transform="translate(8.896 17.6) scale(.016 -.016)" d="m123 138q0 38 25.5 66.5t74.5 28.5h127v-111q-25-29-60-50t-77-21q-31 0-51 13t-29.5 33.5-9.5 40.5zm-19 258q27 11 59.5 22t79.5 11q58 0 82.5-33t24.5-83v-27h-125q-78 0-127-38.5t-49-109.5q0-64 41-107t126-43q40 0 80.5 19t63.5 42l10-49h60v334q0 48-24 85t-66.5 58-98.5 21q-20 0-51-5.5t-60.5-15-48.5-22.5z"/><path transform="translate(16.704 17.6) scale(.016 -.016)" d="m254 477h-88v145l-80-22v-123h-70l1-60h69v-291q0-46 17-77t48-47.5 72-16.5q14 0 28 2.5t26 6.5 20 8l-19 62q-7-3-19.5-6.5t-24.5-3.5q-36 0-52 23t-16 60v280h113z"/><path transform="translate(21.824 17.6) scale(.016 -.016)" d="m123 138q0 38 25.5 66.5t74.5 28.5h127v-111q-25-29-60-50t-77-21q-31 0-51 13t-29.5 33.5-9.5 40.5zm-19 258q27 11 59.5 22t79.5 11q58 0 82.5-33t24.5-83v-27h-125q-78 0-127-38.5t-49-109.5q0-64 41-107t126-43q40 0 80.5 19t63.5 42l10-49h60v334q0 48-24 85t-66.5 58-98.5 21q-20 0-51-5.5t-60.5-15-48.5-22.5z"/><path transform="translate(29.632 17.6) scale(.016 -.016)" d="m141 0v344q24 25 51.5 44.5t54.5 31.5 49 12q32 0 49-14.5t24-40 7-59.5v-318h79v329q0 49-15 87.5t-47 61-84 22.5q-28 0-60-11t-61.5-30-52.5-43l-14 69h-58v-485zm305 344q24 25 51 44.5t54 31.5 50 12q31 0 48-14.5t24.5-40 7.5-59.5v-318h79v329q0 49-15 87.5t-47.5 61-83.5 22.5q-28 0-60.5-11t-62-30-52.5-43z"/><path transform="translate(42.72 17.6) scale(.016 -.016)" d="m123 138q0 38 25.5 66.5t74.5 28.5h127v-111q-25-29-60-50t-77-21q-31 0-51 13t-29.5 33.5-9.5 40.5zm-19 258q27 11 59.5 22t79.5 11q58 0 82.5-33t24.5-83v-27h-125q-78 0-127-38.5t-49-109.5q0-64 41-107t126-43q40 0 80.5 19t63.5 42l10-49h60v334q0 48-24 85t-66.5 58-98.5 21q-20 0-51-5.5t-60.5-15-48.5-22.5z"/><path transform="translate(50.528 17.6) scale(.016 -.016)" d="m141 0v334q22 22 51 42t61.5 33 60.5 13l-19 63q-26 0-56.5-13t-58-31.5-46.5-33.5l-24 78h-47v-485z"/><path transform="translate(55.712 17.6) scale(.016 -.016)" d="m123 138q0 38 25.5 66.5t74.5 28.5h127v-111q-25-29-60-50t-77-21q-31 0-51 13t-29.5 33.5-9.5 40.5zm-19 258q27 11 59.5 22t79.5 11q58 0 82.5-33t24.5-83v-27h-125q-78 0-127-38.5t-49-109.5q0-64 41-107t126-43q40 0 80.5 19t63.5 42l10-49h60v334q0 48-24 85t-66.5 58-98.5 21q-20 0-51-5.5t-60.5-15-48.5-22.5z"/><path transform="translate(63.52 17.6) scale(.016 -.016)" d="m141 0v344q24 25 52 44.5t57.5 31.5 53.5 12q50 0 68.5-32t18.5-82v-318h79v328q0 50-16 88.5t-49.5 61-86.5 22.5q-32 0-66-11t-64-30-53-43l-14 69h-58v-485z"/></svg>