<svg width="42.736" height="19.2" viewBox="0 0 42.736 19.2" xmlns="http://www.w3.org/2000/svg"><path transform="translate(0 15.2) scale(.016 -.016)" d="m333-10q-84 0-147.5 45.5t-99.5 126-36 186.5q0 108 35.5 189.5t98.5 127 147 45.5q64 0 113-27.5t80-81.5q8-13 6-25.5t-11-20.5-24-8q-20 0-30 19-18 35-57 56.5t-84 21.5q-60 0-106-36t-72-100-26-148q0-88 28.5-156.5t77.5-108 112-39.5q29 0 55.5 10t47 29 32.5 45q11 24 34 24 18 0 26.5-15.5t1.5-35.5q-19-56-73.5-89.5t-128.5-33.5z"/><path transform="translate(9.408 15.2) scale(.016 -.016)" d="m484 28q1-15-9-24.5t-26-9.5q-11 0-19 5.5t-12 17.5q-5 10-6 27-29-26-63.5-40t-72.5-14q-62 0-112 33.5t-79 91-29 129.5q0 80 34.5 140t97.5 93 148 33q49 0 103-12 22-5 32-20t8-39q-9-90-8-191t13-220zm-78 89q-9 154 4 319-38 9-74 9-62 0-109.5-25.5t-74-72-26.5-106.5q0-53 20.5-94.5t56-66 80.5-24.5q34 0 65.5 16t57.5 45z"/><path transform="translate(18.272 15.2) scale(.016 -.016)" d="m484 35q1-16-9-27t-26-11q-28 0-35 44-1 7-2 16.5t-1 19.5q-54-84-153-84-96 0-146.5 72.5t-50.5 210.5q0 34 4 78t14 121q2 16 11.5 25.5t22.5 9.5q17 0 26.5-12t6.5-30q-8-51-12.5-103.5t-4.5-94.5q0-100 35-155.5t99-55.5q101 0 144 140-1 68 0.5 137.5t6.5 138.5q1 16 10.5 25t24.5 9 25-9.5 9-23.5q-4-70-5.5-143t0-147.5 6.5-150.5z"/><path transform="translate(27.136 15.2) scale(.016 -.016)" d="m202-10q-40 0-78.5 15t-64.5 41q-14 14-14 30 0 14 10 24t24.5 11.5 27.5-10.5q18-16 34-26t31.5-14.5 31.5-4.5q41 0 68 25t27 62q0 29-17 46.5t-44.5 29.5-57.5 23.5-57.5 27-44.5 40-17 64.5 19.5 70.5 54.5 48 80 17.5q35 0 70-9.5t55-25.5q13-10 13-25 0-13-9.5-23t-24.5-10q-13 0-26.5 7t-31.5 13.5-45 6.5q-40 0-62.5-17.5t-22.5-46.5q0-26 17-42.5t44.5-28 57.5-23.5 57.5-28.5 44.5-42.5 17-68q0-45-21.5-80.5t-59-56-86.5-20.5z"/><path transform="translate(33.776 15.2) scale(.016 -.016)" d="m294-10q-69 0-123 34t-85 94-31 136q0 75 29 133t80.5 90.5 118.5 32.5q65 0 115-32t78.5-88 28.5-129q0-35-36-35h-343q6-50 28.5-88.5t58.5-60 81-21.5q42 0 78 19.5t59 54.5q11 16 30 16 12 0 20-5.5t12-14 2.5-19-8.5-20.5q-33-46-83.5-71.5t-109.5-25.5zm139 302q-5 47-25 81t-52 52.5-72 18.5q-42 0-74.5-18.5t-54-53-27.5-80.5z"/></svg>