<svg width="65.24" height="17.64" viewBox="0 0 65.24 17.64" xmlns="http://www.w3.org/2000/svg"><path transform="translate(0 13.44) scale(.014 -.014)" d="m187 612q14 6 58 4.5t63-8.5l25-8q31-21 35-21 41-32 47-84 6-22 2-40 0-6-4-26l-10-23-12-17q-6-1-7-1-37-6-57-1.5t-35 21.5q-3 6-3 11 1 5 3 9l5 16q13 32-2 54 0 3-10 11t-15.5 12-19.5 1q-24-10-41-61-20-26-28-68-12-75-12-85l-1-22v-9q-2-2 2-87 1-5 4-14 3-11 9-36l13-22q5-3 13-18 5 0 8-7 7-7 6-8 5-1 15-6 27-14 47 6 7 7 17.5 19.5t16 20 17.5 14.5q33 25 57-2 5-8 1.5-38.5t-28.5-63.5q-2-6-13-19.5t-23-21.5q-2-7-76-10-4 0-16 2-11-3-29.5 3t-20.5 6l-13 3q-8 0-16 5t-26.5 17.5-28.5 20.5q-30 24-43 55-4 7-5 19.5t-4 18.5q-8 8-7.5 26t-2.5 44q0 12 1 14-5 5-4 17.5t1 34.5q3 6 2.5 35.5t1.5 44.5q-4 9-1 26l1 30q1 18 9 38 1 9 4 21.5t26 50.5q0 8 15 20 0 4 8 12t18 20q14 17 31 25t32 19z"/><path transform="translate(6.202 13.44) scale(.014 -.014)" d="m238 287q-1 22-10 33.5t-33 13.5q-7-5-18.5-33.5t-14.5-60.5q-10-48-10-96 1-49 16-72 2-4 4-3 5 0 16 20 53 96 50 198zm31-191-15-39q0-2-29-43-9-19-33.5-21t-47.5 5q-31 11-47 26t-31.5 50.5-16.5 58.5q-5 33-5 42v24q0 36 3 42 1 4 5 21 5 42 24 80 37 73 76 75h5q2-1 6-1h13q35-3 43-6 15-4 26-4l26-5q12 1 31.5-5t21-9 5.5-22 5.5-27.5 2.5-17.5q8-73 26-136 1-3 2-9t7-23.5 9-29.5 11-32q6-15 18-35 22-31-23-48-6-2-21-2-3 0-19 10-10 0-19 11l-8 2q-7 7-12 7-2 2-36 81-3-11-3-20z"/><path transform="translate(12.236 13.44) scale(.014 -.014)" d="m182 108 13 75q0 6 1.5 9.5t1.5 9.5q1 8 5 26 0 8 4 13 2 16 25 63 4 14 13 24 0 6 6 14l12 21q0 2 7 15 6 3 8 10.5t12 21.5q3 9 23 17h16l22-7 15-10q5-5 7-14 2 2 2 0-1-9-12-45-10-33-14-46.5t-9-27.5q0-1-8-28.5t-14-37.5l-19-70q-11-26-14-46-22-98-22-102t-8-25q-2-16-35-16-5 5-13 9-3-4-27-1-43-5-73 12-7 12-12 38-13 22-14 35l-10 18q0 13-4.5 24t-5.5 22q-3 7-3 16-2 8-2 17-4 19-3 39.5t-2 49.5q0 17-1 21l1 26q0 19 1 23-4 16-4 28l-1 19q0 12-2 23t2 22q7 8 15 13 12 10 36 1l25-11 9-7q2-2-1-10l5-48q0-23 6-58.5t8-59 7.5-65 6.5-51.5q0-19 4-21 9 15 14 32z"/><path transform="translate(17.654 13.44) scale(.014 -.014)" d="m247 320q4 15-1 38-7 6-19 6-15 0-27-28-16-24-24-53h-1q-11-42-11-45 16-4 26-3.5t23 10.5q23 22 34 75zm-3-144-37-3q-31 0-49 6l3-19q3-83 46-109 12-5 20-5t21 8q4 4 7 11 1 9 10 8 41 52 62 41 21-14 21-22 0-4-5-9v-6q0-10-12.5-36t-26.5-44q-7-15-18-21-32-20-68-16-8 1-11 4-8 2-12 1l-8 1q-9 0-15 4-10 6-14 6-26 10-31.5 15t-9.5 7-19 21q-13 11-15 14-6 9-10.5 13t-5.5 18q-4 5-4 13l-4 8q0 7-6 11-6 6-6 15v8q-4 2-2 12v26l-1 9v7q-1 4 2 17l-1 9q1 1 3 16 4 21 9 26v9q1 3 1 8t2.5 11 15.5 45l16 35q7 15 22 33 1 5 8 18l13 12q6 9 18 13 14 7 21 7l28 4q5-1 7-1h13q22-2 36-9 30-9 44-23 31-35 31-67t-10-55q-25-57-36-72-18-33-43-33z"/><path transform="translate(22.974 13.44) scale(.014 -.014)" d="m238 287q-1 22-10 33.5t-33 13.5q-7-5-18.5-33.5t-14.5-60.5q-10-48-10-96 1-49 16-72 2-4 4-3 5 0 16 20 53 96 50 198zm31-191-15-39q0-2-29-43-9-19-33.5-21t-47.5 5q-31 11-47 26t-31.5 50.5-16.5 58.5q-5 33-5 42v24q0 36 3 42 1 4 5 21 5 42 24 80 37 73 76 75h5q2-1 6-1h13q35-3 43-6 15-4 26-4l26-5q12 1 31.5-5t21-9 5.5-22 5.5-27.5 2.5-17.5q8-73 26-136 1-3 2-9t7-23.5 9-29.5 11-32q6-15 18-35 22-31-23-48-6-2-21-2-3 0-19 10-10 0-19 11l-8 2q-7 7-12 7-2 2-36 81-3-11-3-20z"/><path transform="translate(29.008 13.44) scale(.014 -.014)" d="m114 353 1 9q-21 2-29.5 3.5t-27.5 3.5-30 6q-21 7-24 36.5t19 36.5q20 5 28 5t30 2q11 6 30 7l15 4q0-1 8 2l5 21q0 16 9 32 0 7 13 39 0 4 18 58 4 5 30 23 16 8 45-11 16-7 22-19-6-6-6-28-1-7-14-74v-28q8-1 26.5-5t44.5-9q50-10 63-40 5-22-2-31t-34-13q-22-1-57.5-1t-52.5-5q-2-18-2-28l-1-15q0-7-9-74-6-9-10-93v-73q0-18 3-34 1-22 5-31 0-9 5-38-12-29-39.5-29t-48.5 20l-11 16q-3 8-4.5 11t-2.5 7q-7 20-11 25-6 8-6 12t0 10q-2 17-5 29-5 5-5 34 2 53 0 61 3 3 1 38l3 22q0 4 4 30-2 4-1 21.5t3 24.5q2 12 2 30z"/><path transform="translate(36.862 13.44) scale(.014 -.014)" d="m290 414 16 34q5 14 4.5 22t-0.5 13-1 12.5-6.5 15-11 10-20.5 8.5l-22 1q-30 6-51-5 0-22-11-92l-6-69-5-36q7 0 36 11l14 12q4 1 25 22 5 2 11 10l10 12q3-1 11 10zm-116-267 2-24q4-9 0-26t-1-26q0-17 1-20 9 0 27.5 8t23.5 9 13 8q25 13 52 30l23 21q29 35 40 51l6 18q13 28-25 53-8 12-33 16h-1q-35 10-41 8l-44-10q-12-6-21.5-6t-20.5 9l1-28q-7-19-4-37 4-18 2-54zm44-178h-9q-10-2-39 3-51 8-82 32-9 8-20.5 21.5t-11.5 18.5 0.5 13-1.5 16v8q-3 6 1 21.5t2 25.5q-2 13-3 28-3 4 3 22 8 135 8 148l5 30q-5 30 2 52v22q-1 14 8 81-4 12-27 31-5 5-10 15.5t4 33.5q6 8 35 26 2 6 54 23l19 8q14 5 56 4 23-3 37-9 51-25 94-57 13-6 18-16 18-12 33.5-38.5t17.5-33.5q5-32-10-77-7-23-66-96 10-3 34-17 3-4 21-14 2-3 5.5-7t5.5-7l8-5 10-15 15-13q10-10 16-22 15-14 16-23l2-19q-1-11-30-72-11-22-28-34l-15-18q-6-8-22.5-20t-27.5-23q-5-2-15.5-9t-31-17-27.5-12q-20-6-54-9z"/><path transform="translate(43.61 13.44) scale(.014 -.014)" d="m52 295q0 9-2 21v7q1 7-1 15 0 10 2 18 0 20 5 26 0 5 14 23 4 4 15 13 16 5 22 6 4 4 27-3 10-1 31-7 7-2 18-16-2-4-6.5-29.5t-3.5-41.5q6 5 21 21t16 17q26 12 51 17 36 3 47-5 9-3 14-9 9-8 15-27.5t-1-24.5q-6-5-40-8-2 0-14-8l-52-41q-16-8-22-14l-19-35q-1-2-2-26t0-34.5 0-67.5v-43q0-35-1-40.5t-8-19.5q-3-5-19-5-39-29-50 3l-13 8q-8 4-10 10-8 11-8 13l-4 14-6 12q-3 1-5 38.5t-2 46-2 18.5q7 7 6.5 24t-2.5 26.5 0 12-1 27.5q-3 4-1 15z"/><path transform="translate(48.37 13.44) scale(.014 -.014)" d="m366 277 1-19q0-3 6-63v-12q0-24 8-72 0-21 21-73 5-3 7-14l-1-10q2-5-5-11 0-7-19-7t-24-2-16 2q-4-2-24 8-9 2-14 18l-8 19q0 18-10 32 0 5-4.5 18t-6.5 14q-10-40-25-62 0-5-6-12l-10-19q0-2-9-11-6-13-27-13-19 0-46 10-7 1-28 9-6-1-18.5 3.5t-14.5 4.5q-3 3-14 10l-17 18q-1 1-3.5 9.5t-1.5 12 0 10.5 1 14q0 20 4 44-1 3-1 7t4 15q-1 5-1 7l5 39q0 14 1 20v15q1 4 1 11l5 48q0 11 1 14v10q2 2 2 16l9 28 7 12q1 4 11 9 16 10 46 10 12-2 26-10 3 1 14-4 20-9 2-51-4-27-4-28-4-8-4-13-6-32-6-34 4 4-3-12l-4-37q-7-24-6-53l-4-13q1-5-1-31 2-3 2-7l1-8q-1-3 1-5.5t11.5-2 16.5 4.5q14 17 19 35.5t5 21.5q17 43 21 50 5 27 17 62-2 5 0 20l13 53q9 15 9 18.5t12 27.5q0 4 6 16 7 11 25 21h3q22 2 38-6 2-4 2-14 2-10 4-36v-10l-4-22q8-25 2-50z"/><path transform="translate(54.516 13.44) scale(.014 -.014)" d="m78 388q27 33 74 35 77 3 114.5-38t40-81-20.5-43q-33-1-43 9-9-1-23 13-6 3-16 23l-11 25q-8 18-20 20-15-6-15-30 4-47 45-90 0 0 1.5-2.5t14.5-16.5q79-87 82-140 0-34-14-45-43-51-112-53t-114 43q-12 12-12 23-6 19-4 25-3 28 0 42 6 32 47 33 15 0 19-18 13-51 24.5-67t37.5-15q33 2 31.5 37t-33.5 65q-10 12-19.5 18.5t-12.5 9.5q-1 3-5 6-20 16-50.5 53t-32.5 69q-4 57 27 90z"/><path transform="translate(59.276 13.44) scale(.014 -.014)" d="m166 389-11-136 6 14q4 9 29 42 0 3 31 53l17 20 9 14q19 15 32 15 27 4 58-16 7-1 18-15 17-13 15-37 0-2-1-6-19-156-20-218.5t10-104.5q8-35-26-49-9-6-28-2-17 0-25.5 4.5t-17.5 20.5l-5 20q-4 8-4 22l-4 29q1 2 1 26l1 26q-3 14 1 55l2 43v25q1 3-6 14-26-20-58-134l-26-80q-18-64-39-69l-11-2q-14 0-38 8-19 21-19 42 2 4 1 9-3 13 2 36-1 3-1 8l1 15q-2 5-4 28.5t0 35.5q-2 4 6 27-8 12-9 27-4 41-2.5 61.5t1.5 38.5q-2 18-1 43l7 81 7 58q0 7-4.5 21.5t-2.5 34.5 4.5 25.5 7.5 29.5q0 20 4 30l6 18q1 7 26 23h11q39-3 57-13 8-5 4-35-2-42-3-52t-5-87-4-87z"/></svg>