<svg width="68.384" height="16.688" viewBox="0 0 68.384 16.688" xmlns="http://www.w3.org/2000/svg"><path transform="translate(0 12.896) scale(.016 -.016)" d="m207-40q-121 48-164 122 0 110 65 240t146 172q34 0 76-4 111 6 190 24l27 6q-40-132-64-281-88 39-152 107-77-113-93-248l266 71q0-20-19.5-54.5t-47.5-60-88.5-53-141.5-41.5z"/><path transform="translate(7.68 12.896) scale(.016 -.016)" d="m194 78q11-1 34-1t70 11.5 78 25.5l30 15q2-10 2-19 0-39-34-78-44-49-147-70-15 2-38.5 7t-75 30.5-77.5 61.5q5 64 27.5 131.5t42.5 102.5l20 35q56 3 111 18t81 28l27 14q37-21 58.5-57t24.5-61l4-26q-28-63-94-97t-138-39q-3-13-6-32zm91 127q13 20 13 33t-8.5 20.5-20.5 7.5-23-2q-7-25-36-109 47 7 75 50z"/><path transform="translate(14.144 12.896) scale(.016 -.016)" d="m275 408q-49-81-49-183 0-13 1.5-46.5t17.5-89.5q36 52 60 116t30 102l6 38q28-3 67-22t59-42q0-15-7.5-45t-18-54.5-33.5-56-53.5-56.5-80-46.5-110.5-30.5q-39 39-61.5 88t-27.5 90-5 60q0 57 6 82l4 21q8 7 22.5 18.5t65 32 107.5 24.5z"/><path transform="translate(20.88 12.896) scale(.016 -.016)" d="m194-32q-46 21-80 43t-46 34l-11 12q0 91 11 169t22 110l11 33q90-16 161-46l24-10q-9-11-29-53t-32-79.5-21.5-93-9.5-85 0-34.5zm58 394q-12 5-30.5 15t-56 44-51.5 72q25 11 47.5 30.5t32.5 32.5l10 14q61-10 104-32l15-8q-2-13-5.5-33t-22-65.5-43.5-69.5z"/><path transform="translate(24.624 12.896) scale(.016 -.016)" d="m398 376 35 21q1-18 1-53 0-80-50-159-79 22-135 65-38-65-40-164 26 0 151 42l41 14q0-18-11.5-44.5t-30.5-47.5-62-44.5-102-36.5q-40 6-90 32.5t-71 58.5q7 65 24.5 120.5t37.5 89.5q43 69 72 90l12 10q59-23 116-23t102 29z"/><path transform="translate(30.928 12.896) scale(.016 -.016)" d="m368 377q59 0 116-133-48-64-72-175-10-43-11-86h-6q-79 0-103 71-9 26-9 53 0 59 28 144-67-58-128-185-4-23-8-73-57 12-85 33-26 19-31 31 2 92 18.5 207t31.5 184.5 17 70.5q48 15 97.5 23.5t74.5 9.5h25q-64-143-108-322 38 68 78.5 107.5t74.5 39.5z"/><path transform="translate(38.064 12.896) scale(.016 -.016)" d="m194 78q11-1 34-1t70 11.5 78 25.5l30 15q2-10 2-19 0-39-34-78-44-49-147-70-15 2-38.5 7t-75 30.5-77.5 61.5q5 64 27.5 131.5t42.5 102.5l20 35q56 3 111 18t81 28l27 14q37-21 58.5-57t24.5-61l4-26q-28-63-94-97t-138-39q-3-13-6-32zm91 127q13 20 13 33t-8.5 20.5-20.5 7.5-23-2q-7-25-36-109 47 7 75 50z"/><path transform="translate(46.608 12.896) scale(.016 -.016)" d="m531 389q10-36 10-86.5t-15.5-101-40.5-85-55-63-60-45.5q-65-34-96-44l-16-4q-86 24-138 72-47 43-58 68l-6 11q0 90 19.5 160.5t47.5 106 56 58 47 28.5l20 5q32-36 99-47l103 80q60-30 83-113zm-274-306q28 0 61 31.5t52 89.5q10 27 10 62t-12 78q-111-121-111-261z"/><path transform="translate(54.72 12.896) scale(.016 -.016)" d="m279 34q34 124 34 190 0 5 0 9l-2 18q-57-49-113-154-5-36-10-100-39 9-71 24t-45 25l-13 11q6 143 23 260l5 39 174 38q-20-54-39-152 36 63 75 99t71 36q59 0 116-133-7-14-18-39.5t-30-99-21-141.5q-93 29-136 70z"/><path transform="translate(61.92 12.896) scale(.016 -.016)" d="m194 78q11-1 34-1t70 11.5 78 25.5l30 15q2-10 2-19 0-39-34-78-44-49-147-70-15 2-38.5 7t-75 30.5-77.5 61.5q5 64 27.5 131.5t42.5 102.5l20 35q56 3 111 18t81 28l27 14q37-21 58.5-57t24.5-61l4-26q-28-63-94-97t-138-39q-3-13-6-32zm91 127q13 20 13 33t-8.5 20.5-20.5 7.5-23-2q-7-25-36-109 47 7 75 50z"/></svg>