<svg width="84.736" height="30.4" viewBox="0 0 84.736 30.4" xmlns="http://www.w3.org/2000/svg"><path transform="translate(0 19.2) scale(.016 -.016)" d="m75 255q0 116 58 222.5t157.5 172.5 217.5 66q64 0 120-19.5t78-52.5q-10-26-17.5-65.5t-8.5-74.5l-25-4q0 15-1.5 37t-4.5 40q-7 47-39.5 72t-98.5 25q-107 0-193.5-62t-135.5-159-49-196q0-76 29.5-126.5t79-75 110.5-24.5q105 0 196 68.5t138 195.5q27 0 27-37 0-52-52-117.5t-137.5-111.5-180.5-46q-73 0-134 29.5t-97.5 90.5-36.5 152z"/><path transform="translate(12.16 19.2) scale(.016 -.016)" d="m787 907-7-12q-22 68-69 100.5t-113 32.5q-139 0-236-156.5t-168-451.5l-26-113-13-58q41 58 104 112.5t95 54.5q8 0 23.5-15t15.5-22q-19-55-45-161t-26-135q0-28 9-40.5t37-12.5q50 0 97 38t81.5 86.5 52.5 85.5q7-2 11-7t5-15v-3q0-12-8-28-46-84-118-141.5t-140-57.5q-35 0-56 22t-21 62q0 39 12.5 96t33.5 134q-1-5 11 41-1 4-5 7t-7 3q-10 0-47-33t-75-79-57-86q-10-40-20-100-1-7-2-15t-3-16q-3-18-5.5-24.5t-8.5-6.5q-12 0-27 6t-15 15q0 13 6 38l87 369q73 312 186 489.5t265 177.5q86 0 136-47.5t50-133.5z"/><path transform="translate(19.904 19.2) scale(.016 -.016)" d="m648 205q0-46-40.5-97t-98-85.5-105.5-34.5q-39 0-60 24t-25 62q-25-36-63-59t-68-23q-26 0-51.5 17.5t-41.5 43-17 48.5l49 202q6 24 30.5 51.5t59.5 45.5 71 18q46 0 81-31 9 24 13.5 30t13.5 7l49 5 3-2q-20-16-29-50-31-116-42.5-171t-11.5-97 11-61.5 37-19.5q32 0 76.5 26t84.5 72.5 61 104.5q13 0 13-26zm-339-68 19 82q4 20 14 64.5t16 68.5q-28 28-68 28-31 0-56-16.5t-41-40-20-41.5l-40-178q2-25 20-45t39-20q17 0 41.5 12t46 34.5 29.5 51.5z"/><path transform="translate(28.224 19.2) scale(.016 -.016)" d="m533 340q0-21-19.5-40.5t-51-31.5-63.5-12q-50 0-85.5 26t-45.5 73q-45-5-82.5-57t-52.5-113q-2-10-15-61.5t-25-121.5q-1-3-2.5-4.5t-6.5-1.5q-7 0-21 6t-14 13q0 14 5 37 61 282 79 349 2 9 4.5 12t8.5 3q4 0 17-6.5t21-13.5l-18-58-6-20q23 36 53 58t64 22q10 0 20-2t14-5q0-49 25.5-72.5t71.5-23.5q41 0 68 14t47 48q4-1 7-6t3-11z"/><path transform="translate(34.144 19.2) scale(.016 -.016)" d="m532-2q-38 0-62.5 24.5t-24.5 74.5q0 41 13.5 92.5t36.5 122.5q7 19 13 40 0 3-4 5.5t-8 2.5q-13 0-51.5-37.5t-78-86-52.5-73.5q-10-31-33-130-4-17-6.5-23t-8.5-6q-9 0-20.5 11t-11.5 22 10 48q42 154 68 267-6 8-15 8-15 0-51-37t-75-93.5-64-111.5q-15-49-27-113-10 0-26 7t-16 14q0 8 10 45l85 331q2 9 5 13t9 4 20.5-6 18.5-10l-9-32q-3-12-13.5-49.5t-19.5-77.5q31 54 64.5 89.5t61.5 52 43 16.5q11 0 28-12t17-20q-9-55-26-124 41 56 98 111.5t87 55.5q14 0 30-11t17-26q-32-99-49.5-163t-17.5-115q0-30 10-43.5t36-13.5q61 0 118 66.5t87 156.5q11 0 18.5-10t7.5-23q1-31-37.5-88t-94.5-101-110-44z"/><path transform="translate(44.4 19.2) scale(.016 -.016)" d="m621 333q0-25-20-51.5t-54.5-43.5-75.5-17q-55 0-97 30-6-29-15-59-3-11-13-50.5t-14-70.5q-7-16-28-34.5t-50-31.5-57-13q-31 0-60 16t-47.5 43-18.5 60q14 42 23 79t17 75l10 50q5 23 27 45.5t53.5 37 63.5 14.5q12 0 34-4 3 23 10.5 32t24.5 9q10 0 23-3-5-28-5-48 0-58 35-98t95-40q45 0 77.5 24t51.5 69q10-3 10-20zm-310-154q20 67 26 108-22 28-30 68 0 4-1.5 6.5t-6.5 3.5q-15 6-34 6-37 0-64-20t-34-48q-3-12-22-94-9-48-22-95 0-37 25-57.5t53-20.5q24 0 51.5 17t35.5 35q8 40 23 91z"/><path transform="translate(51.92 19.2) scale(.016 -.016)" d="m574 216q0-36-38-91t-96.5-96-115.5-41q-36 0-55.5 18t-19.5 55q0 51 28 138.5t51 145.5q-4 6-8 6t-9-3q-18-11-59-49t-80-80-53-68q-16-43-20-54.5t-8-37.5l-9-45q-1-3-2-7.5t-2.5-5.5-4.5-1q-9 0-23.5 2t-14.5 6q0 12 7 39t14 49 11 34l9 28q29 100 39.5 145.5t20.5 101.5q1 10 14 10 9 0 20.5-4.5t13.5-12.5q-4-18-14.5-61t-25.5-95q58 65 120.5 118t83.5 53q10 0 24-10t17-19q-32-86-61-187.5t-29-133.5q0-35 40-35 59 0 119.5 66t96.5 150q10 0 14.5-8.5t4.5-19.5z"/><path transform="translate(59.04 19.2) scale(.016 -.016)" d="m532-2q-38 0-62.5 24.5t-24.5 74.5q0 41 13.5 92.5t36.5 122.5q7 19 13 40 0 3-4 5.5t-8 2.5q-13 0-51.5-37.5t-78-86-52.5-73.5q-10-31-33-130-4-17-6.5-23t-8.5-6q-9 0-20.5 11t-11.5 22 10 48q42 154 68 267-6 8-15 8-15 0-51-37t-75-93.5-64-111.5q-15-49-27-113-10 0-26 7t-16 14q0 8 10 45l85 331q2 9 5 13t9 4 20.5-6 18.5-10l-9-32q-3-12-13.5-49.5t-19.5-77.5q31 54 64.5 89.5t61.5 52 43 16.5q11 0 28-12t17-20q-9-55-26-124 41 56 98 111.5t87 55.5q14 0 30-11t17-26q-32-99-49.5-163t-17.5-115q0-30 10-43.5t36-13.5q61 0 118 66.5t87 156.5q11 0 18.5-10t7.5-23q1-31-37.5-88t-94.5-101-110-44z"/><path transform="translate(69.296 19.2) scale(.016 -.016)" d="m648 205q0-46-40.5-97t-98-85.5-105.5-34.5q-39 0-60 24t-25 62q-25-36-63-59t-68-23q-26 0-51.5 17.5t-41.5 43-17 48.5l49 202q6 24 30.5 51.5t59.5 45.5 71 18q46 0 81-31 9 24 13.5 30t13.5 7l49 5 3-2q-20-16-29-50-31-116-42.5-171t-11.5-97 11-61.5 37-19.5q32 0 76.5 26t84.5 72.5 61 104.5q13 0 13-26zm-339-68 19 82q4 20 14 64.5t16 68.5q-28 28-68 28-31 0-56-16.5t-41-40-20-41.5l-40-178q2-25 20-45t39-20q17 0 41.5 12t46 34.5 29.5 51.5z"/><path transform="translate(77.616 19.2) scale(.016 -.016)" d="m574 216q0-36-38-91t-96.5-96-115.5-41q-36 0-55.5 18t-19.5 55q0 51 28 138.5t51 145.5q-4 6-8 6t-9-3q-18-11-59-49t-80-80-53-68q-16-43-20-54.5t-8-37.5l-9-45q-1-3-2-7.5t-2.5-5.5-4.5-1q-9 0-23.5 2t-14.5 6q0 12 7 39t14 49 11 34l9 28q29 100 39.5 145.5t20.5 101.5q1 10 14 10 9 0 20.5-4.5t13.5-12.5q-4-18-14.5-61t-25.5-95q58 65 120.5 118t83.5 53q10 0 24-10t17-19q-32-86-61-187.5t-29-133.5q0-35 40-35 59 0 119.5 66t96.5 150q10 0 14.5-8.5t4.5-19.5z"/></svg>