<svg width="127.36" height="21.872" viewBox="0 0 127.36 21.872" xmlns="http://www.w3.org/2000/svg"><path transform="translate(0 16.528) scale(.016 -.016)" d="m436 118q25 0 25-32t-1-48q-4-36-32-41-89-13-132-13-149 0-205 84t-56 303q0 160 24.5 244.5t79 118.5 163 34 158.5-34q10-7 10-17t-9.5-37.5-18-39-17.5-11.5-14 1q-75 15-129.5 15t-71-60-16.5-194.5 7-187.5 26-74 60.5-21 94 5 54.5 5z"/><path transform="translate(7.968 16.528) scale(.016 -.016)" d="m302 512q74 0 108.5-46t34.5-162v-304q0-6-1-8-5-8-38.5-8t-68.5 5-35 11l-1 304q0 112-16 112-36 0-96-36v-380q0-6-1-8-5-8-38.5-8t-69 5-35.5 11v752q0 16 35.5 16t61.5-4.5 27-11.5l18-289q76 49 115 49z"/><path transform="translate(15.392 16.528) scale(.016 -.016)" d="m274 31q-52-47-92.5-47t-65.5 5.5-45 24-28 53.5-8 93q0 81 79 111l143 37q-1 65-13 84t-52 19-69-13l-35-14h-1q-9-5-16 8-18 38-18 59.5t3.5 24 3.5 3.5q50 33 129.5 33t122.5-21 62.5-76.5 19.5-164.5l-2-250q0-6-2-8-4-8-38-8-62 0-62 16zm-128 127q0-72 42-76 29 0 42 10 28 19 28 142-52-7-82-28.5t-30-47.5z"/><path transform="translate(22.352 16.528) scale(.016 -.016)" d="m185-16q-74 0-108.5 46t-34.5 162v304q0 16 36.5 16t71.5-5 35-11l1-304q0-112 16-112 36 0 96 36v380q0 16 36.5 16t72-5 35.5-11v-496q0-6-2-8-4-8-51.5-8t-58.5 16l-21 31q-70-47-124-47z"/><path transform="translate(34.4 16.528) scale(.016 -.016)" d="m45 22v730q101 16 178 16 136 0 189.5-57t53.5-179q0-144-72-197-47-34-92-42-58-9-132-9v-261q0-19-2-25-3-14-38-14-85 0-85 38zm259 424q18 30 18 83t-16 86.5-34 33.5q-72 0-87-3t-15-20v-190q0-11 3.5-12.5t6-2 23-0.5 37.5 1 36.5 6.5 27.5 17.5z"/><path transform="translate(42.032 16.528) scale(.016 -.016)" d="m302 512q74 0 108.5-46t34.5-162v-304q0-6-1-8-5-8-38.5-8t-68.5 5-35 11l-1 304q0 112-16 112-36 0-96-36v-380q0-6-1-8-5-8-38.5-8t-69 5-35.5 11v752q0 16 35.5 16t61.5-4.5 27-11.5l18-289q76 49 115 49z"/><path transform="translate(49.456 16.528) scale(.016 -.016)" d="m47 0v496q0 16 36 16t68-5 32-11v-496q0-6-1-8-5-8-38-8t-65 5-32 11zm62 624q-72 0-72 72t72 72 72-72-72-72z"/><path transform="translate(53.088 16.528) scale(.016 -.016)" d="m180 0q0-6-2-8-4-8-37-8t-64.5 5-31.5 11v752q0 16 35 16t58-4.5 24-11.5l18-321z"/><path transform="translate(56.64 16.528) scale(.016 -.016)" d="m37 250q0 109 19 165t60 76.5 121 20.5 121-20.5 60-76.5 19-165q0-150-43-208t-157-58-157 58-43 208zm136 0q0-168 32-168 44 0 65 14 11 8 15 29 8 42 8 125 0 166-32 166-60 0-74-27.5t-14-138.5z"/><path transform="translate(64.224 16.528) scale(.016 -.016)" d="m557 0v304q0 112-16 112-35 0-101-39 5-37 5-73v-304q0-6-1-8-5-8-38.5-8t-69 5-35.5 11v341q-2 75-16 75-36 0-96-36v-380q0-6-1-8-5-8-38.5-8t-69 5-35.5 11v496q0 16 40 16 63 0 72-16 0-2 1-2l19-38q84 56 125 56 88 0 119-64 92 64 137 64 74 0 108.5-46t34.5-162v-304q0-6-1-8-5-8-38.5-8t-69 5-35.5 11z"/><path transform="translate(76.144 16.528) scale(.016 -.016)" d="m227-16q-107 0-148.5 58t-41.5 208q0 108 19 164.5t57.5 77 113.5 20.5 113.5-21 56.5-78 18-162q0-6 0-12t-23.5-11-56.5-5h-154q2-117 17-133 9-8 29-8 131 0 179 13 2 1 3 1 7 2 11.5-8t4.5-47-16-41q-41-16-182-16zm-46 397v-78h101q-4 116-23 116-34 0-56-10t-22-28z"/><path transform="translate(83.408 16.528) scale(.016 -.016)" d="m302 512q74 0 108.5-46t34.5-162v-304q0-6-1-8-5-8-38.5-8t-68.5 5-35 11l-1 304q0 112-16 112-36 0-96-36v-380q0-6-1-8-5-8-38.5-8t-69 5-35.5 11v496q0 16 40 16 63 0 72-16 0-2 1-2l19-38q84 56 125 56z"/><path transform="translate(91.216 16.528) scale(.016 -.016)" d="m227-16q-107 0-148.5 58t-41.5 208q0 108 19 164.5t57.5 77 113.5 20.5 113.5-21 56.5-78 18-162q0-6 0-12t-23.5-11-56.5-5h-154q2-117 17-133 9-8 29-8 131 0 179 13 2 1 3 1 7 2 11.5-8t4.5-47-16-41q-41-16-182-16zm-46 397v-78h101q-4 116-23 116-34 0-56-10t-22-28z"/><path transform="translate(102.74 16.528) scale(.016 -.016)" d="m37 371q0 159 25 244t79.5 119 157.5 34 157.5-34 79-118.5 24.5-244.5q0-219-56-303t-205-84-205.5 84-56.5 303zm208-275q88 0 115 18 10 7 19.5 23t13.5 33 7 50q4 43 4 154.5t-5.5 176-16 88-27.5 23.5q-40 0-64.5-3.5t-43.5-17-28-30-15-54-7-76-1-130.5 6-154 16-81.5 27-19.5z"/><path transform="translate(112.29 16.528) scale(.016 -.016)" d="m302 512q74 0 108.5-46t34.5-162v-304q0-6-1-8-5-8-38.5-8t-68.5 5-35 11l-1 304q0 112-16 112-36 0-96-36v-380q0-6-1-8-5-8-38.5-8t-69 5-35.5 11v496q0 16 40 16 63 0 72-16 0-2 1-2l19-38q84 56 125 56z"/><path transform="translate(120.1 16.528) scale(.016 -.016)" d="m227-16q-107 0-148.5 58t-41.5 208q0 108 19 164.5t57.5 77 113.5 20.5 113.5-21 56.5-78 18-162q0-6 0-12t-23.5-11-56.5-5h-154q2-117 17-133 9-8 29-8 131 0 179 13 2 1 3 1 7 2 11.5-8t4.5-47-16-41q-41-16-182-16zm-46 397v-78h101q-4 116-23 116-34 0-56-10t-22-28z"/></svg>