<svg width="26.864" height="18.72" viewBox="0 0 26.864 18.72" xmlns="http://www.w3.org/2000/svg"><path transform="translate(0 13.6) scale(.016 -.016)" d="m112-58q-16 0-25.5 9.5t-13.5 9.5q-2 11-11.5 16t-16.5 11q-4 3-6.5 7t-5.5 8q-10 14-15 21t-5 25q0 19 7 41.5t15 38.5q2 4 6.5 11.5t5.5 10.5h1q-1-7-5-12.5t-4-12.5q4 3 14 17t11 18q-1 0-1 0.5t0 0.5h-2q-1-1-1-3t-2-4q-2 4-2 6 0 7 5 12.5t7 10.5v7q8 5 13 16.5t10 18.5q3 3 7 4.5t6 5.5q3 5 4.5 10.5t5.5 9.5q4 3 10 4t6 8l-3-1 1 5q16 18 30.5 37t30.5 36q5 4 9 7t8 7q10 9 20 18.5t20 18.5q18 17 36 35.5t38 31.5q5 4 10.5 7t10.5 6q20 14 40 27t40 26q14 8 29 14.5t29 13.5q16 8 33 14.5t34 12.5q14 5 33.5 12t33.5 7q12 0 20-4t16-12q8-7 22.5-18t26.5-23 12-23q0-13-9.5-23t-20.5-16q-11-7-21-15.5t-23-15.5q-6-10-24-20t-29-10v-2q-7-5-16.5-13t-17.5-10q-1-1-4-1-1-1-3-3.5t-3-3.5v-1q-5-1-9-3.5t-9-2.5q-3-5-9-5-1-2-4-3.5t-4-4.5h-1l-3 1q-3-4-7-4t-9-2q-1-1-6-4t-7-3h-1l1 2q24 15 46.5 32.5t45.5 33.5q9 6 27 20t38 31 33.5 33.5 13.5 26.5-11 14.5-19 4.5q-19 0-30-8t-22-8l-1-3q-7 0-13-5.5t-14-5.5q-2-2-11.5-7t-19.5-10-14-8q-18-10-36-20t-35-22q-4-2-8-5.5t-8-6.5l-26-14q-1 0-10-7t-17.5-14-8.5-7q-5-3-20-15t-34.5-29-38-34-31-30-13.5-16q-10-5-19-18t-16-21q-41-52-74-98.5t-53-112.5q-2-7-4-14.5t-2-15.5q0-17 9-20.5t22-3.5q30 0 63.5 9t56.5 34q17 9 30 14.5t29 14.5q6 4 12.5 12.5t13.5 11.5q6 3 6.5 2t1.5-0.5 8 4.5v2l2-2h2q8 4 25.5 18.5t33.5 27.5 20 14q2 2 6 5t8 4q10 5 20.5 20t19.5 15q3 0 3-5-7-10-24-26t-35.5-32-32-27-13.5-12q-3 0-14.5-9.5t-26.5-21.5-28-23-18-14q-12-9-34-21t-47.5-23.5-45.5-19-27-7.5z"/><path transform="translate(6.56 13.6) scale(.016 -.016)" d="m184-44q-4-1-11.5-2t-16.5-1q-10 0-20 2t-14 6q-1 4-1 5t-2 5q-3 6-3.5 4t-2.5 4q-1 3-1 11 0 12 1.5 26.5t1.5 19.5q0 14 3.5 25t6.5 22q5 21 14 40t19 37q8 14 17 28.5t19 27.5l3 4q-6-1-9.5-5.5t-6.5-8.5q-8-10-18-18-18-16-41.5-40t-46.5-50-41.5-49-26.5-37-11-10.5-6 2.5q-6 4-10 8t-4 9q0 7 4 12 10 17 23.5 36t38.5 58q13 20 23.5 39t20.5 37q11 13 12 18.5t1 10 7 13.5q2 2 6 12t5 11q5 8 9.5 16.5t9.5 16.5q10 15 15.5 25.5t16.5 24.5q3 3 11 17.5t16.5 29 9.5 14.5q1 5 6.5 11t8.5 10q6 8 11 16.5t11 16.5q5 8 10.5 14t10.5 13q13 18 24 30.5t26 28.5q4 4 11.5 12t12.5 10l30 12q5 3 2 7t1 7q6 5 12.5 9t13.5 8q5 3 10 7t12 5q3 3 16.5 10t17.5 8l33 18q4 2 8 2.5t7 2.5l22 3 4 1q2 3 12 4.5t20.5 2.5 14.5 1h9q1 1 4 1 13 0 23.5-1t20.5-4q4-1 8-1.5t8-2.5q4-3 16-9t13-10l-3-4-5 5q-6 3-12 7.5t-13 5.5q-4 2-7.5 2t-7.5 0q-13 0-25.5-3t-24.5-5l-18-2-16-9-4 1q-1-2-11.5-4t-9.5-5q-4 0-4 1-10-7-16.5-14t-18.5-14q-6-3-18.5-6t-20.5-5q-4-9-18-14.5t-22-11.5q-28-22-55-44t-53-45l-13-17q-40-40-73-90.5t-47-88.5l-3-8q-1-3-4.5-5.5t-5.5-5.5l-1-7q-17-31-24.5-46.5t-10-22-5.5-10.5l-13-20-17-31-8-11-7-15-7-7-4-12q-1-4-7-13t-11-17q4 3 6.5 7t7.5 8l15 16 8 12q9 14 21.5 25t23.5 24q1 1 8.5 8.5t8.5 7.5q2 7 10.5 13.5t12.5 10.5l24 25 1 1 1-1v1q2 5 8.5 9.5t10.5 8.5q5 5 17 19.5t28 14.5q8 0 15-4 3-1 10.5-8t13-13 2.5-8q-4-4-7-5-4-3-13-12t-14-8q0 0-4.5-7t-24.5-32q-2 2-10-11t-10-18q-5-11-11.5-18.5t-12.5-17.5v-1q0-4-2-5.5t-4-3.5v-7q0-3-5-12.5t-8-20.5q1-3 1-9 0-11-7.5-18.5t-6.5-21.5q1-4 0-22.5t9-27.5q3-3 8-3 9 0 21.5 6.5t16.5 8.5l6 4q0-1-1-1-1-2-5.5-7.5t-3.5-7.5q-3 0-3 0z"/><path transform="translate(10.272 13.6) scale(.016 -.016)" d="m61-14q-8-4-22-4-13 0-26 5-17 7-24 24-3 5-5 11t-2 13q0 13 6.5 23.5t11.5 20.5q13 23 22.5 44t28.5 40q3 3 13.5 14t21 21.5 13.5 10.5q-1 1 2.5 4t4.5 3l28 30 1-1q2 0 3 4.5t5 5.5l6 1 3 8q3 8 6.5 10.5t9.5 6.5l27 19 33 24q2 2 1 3.5t2 2.5q8 1 8 1t0 1q5 2 11.5 3.5t12.5 1.5q8 0 18.5-9t19-19.5 8.5-18.5l-1-10q3-12-10.5-25t-30-22.5-25.5-14.5l-15-13-15-8h-6l-6-5q0 2-3 2-6-6-13-6h-1q-4-4-9-7t-10-6l-15-9q-4-2-8.5-3t-9.5-3l-7-4-25-6-3-2q-3-3-4-1t1.5 3.5 3.5 2.5q8 6 17 11.5t17 10.5q5 3 11 8t13 5q1 2 8 7t15 9.5 10 4.5q1 0 1 1 5 7 13 10.5t14 7.5l21 16q11 8 23.5 18.5t19.5 23.5q2 2 3 5t2 6v1h-2q-6-6-14-8t-16-6l-9-8q-15-8-30-17t-29-20q-4 0-4-4-2 0-13-8t-20.5-15.5-9.5-8.5q-3-4-10-7t-7-10h-7v-8h-4v-1q-1-2-3.5-5t-5.5-4q-2-2-2 0-1-3-3-3.5t-4-2.5l-7-12h-1l3-8q-1 0-8-5t-7-6h-1v-5q-7-1-8.5-6t-4.5-10l-11-12-10-15-8-10q-1-1-2.5-4.5t0.5-3.5h1l3 8q2-4-5-17t-9-18q-1-2-1-5t0-5q0-7-1-11l-2-6q0-1-0.5-1.5t-0.5-1.5q0-7 8.5-8.5t13.5-0.5q3 1 13 6t19 10.5 9 7.5l1-1h3q4 5 11 9t12 8q16 12 32 26 28 23 55.5 51t51.5 53q5 5 7 5t2-3-3-8q-3-6-14.5-16.5t-25.5-27.5l-41-46q-16-19-34-35.5t-37-30.5q-8-6-16.5-11.5t-17.5-9.5zm196 186q-2 0-2 4t2 4q1 0 4 1.5t4 1.5 1-1-4-5.5-5-4.5z"/><path transform="translate(13.712 13.6) scale(.016 -.016)" d="m14-47q-7 2-16 5.5t-12 12.5q-1 2-1 8 0 8 4 14t7 12q10 17 21.5 33t23.5 32q8 11 16 23t16 22q0 0 3 4t16 19h-1q0 4 1 4 3 3 3 8 3 2 7.5 9t6.5 7l-2 3q6 5 12 15.5t10 17.5q11 14 22.5 26.5t18.5 28.5l1 2h-1q-4-3-10-3-5 0-10.5 3t-10.5 6l-7 4q-5-6-11-11.5t-12-12.5l-56-64-22-23q-5-5-9-5t-4 3q0 4 8 12 11 11 22 21.5t21 21.5q8 10 16 19.5t15 19.5q6 8 13 15.5t11 16.5v1q0 2-1.5 4.5t-1.5 5.5q0 6 2 13.5t4 12.5q11 21 26.5 39t31.5 36q6 7 13 14t14 12l13 9 10 5q7-1 19.5-10t10.5-17q0-5-9.5-14.5t-13.5-14.5l-15-18-8-6-12-13q-3-4-6.5-7t-6.5-6q-2-4-6-4-4-7-18.5-16.5t-14.5-17.5q-1-1-4-9t4-8v1h1q2 0 9 2.5t7 3.5h3q3 3 6.5 4t6.5 2q4 2 6.5 4t6.5 3q3 1 9 1 12 0 22.5-7.5t15.5-17.5l1-2q0-3-3-5l-13-7-8-6-6-2-14-13-1-1q-3 0-3-2-4-6-8-6h-1v-5q-1-1-3-3.5t-4-2.5q-3 0-3-1h-1l1-3q-7-2-11-6-3-3-4-6t-3-5q-3-4-10-11t-8-11q0-1-1-1v-1l-7-4q0-4-7-11.5t-13.5-14-6.5-9.5l1-3h-1q-4-3-12-13t-8-15h-1t-3.5-1.5-8.5-13.5q-3-2-11.5-13t-8.5-15q0-1-1-1-5-7-9.5-20t-0.5-13q17 11 34 26 14 14 29.5 28t29.5 28q10 11 21.5 23.5t21.5 22.5l19 18q3 3 4 3 2 0-3-8t-7-10q-7-7-13.5-16.5t-11.5-14.5q-9-9-16.5-19.5t-16.5-19.5q-3-4-7-7t-8-7q-7-7-13.5-16.5t-12.5-17.5q-2-3-7-9.5t-5-9.5l-1-1-11-15q-4-5-6.5-4.5t-5.5-4.5l-5-5q-12-21-33-30-1 0-5-0.5t-4-2.5zm196 217q-3 0-3 4t3 4q1 0 3.5 1.5t3.5 1.5 1-1q0-2-3.5-6t-4.5-4z"/><path transform="translate(16.448 13.6) scale(.016 -.016)" d="m275 350t-11 2-23 9q-3 3-9.5 7t-2.5 9q2 3 5 3 3 4 6.5 7t5.5 7q19 24 40.5 44.5t44.5 39.5q8 7 15 14t16 11q11 5 14 2t3-3q0-1-1-1-2-6-4-10-4-5-10-9.5t-8-10.5q0-3-1-3-4-4-14.5-14t-10.5-15q-3 0-3-1h-1q-1-7-6-11t-10-9q-4-4-6-9.5t-5-10.5q-3-4-6.5-6.5t-5.5-6.5q-4-7-2-15.5t0-16.5q-1-3-5.5-3.5t-4.5 0.5zm-269-371q-26 10-23 40l4 8q5 8 8 16t7 15q21 36 42.5 71.5t45.5 69.5q1 1 1.5 2.5t1.5 1.5v2q5 4 14 17.5t19.5 29 17.5 23.5q-7-5-14.5-11t-13.5-14q-3-4-14.5-16.5t-25.5-28-25-28-14-16.5q-12-13-17-13-2 0-2 2 0 4 7 13l32 36q7 8 13.5 14.5t12.5 13.5q5 5 9.5 11t9.5 11l16 17q5 5 9.5 11.5t9.5 11.5q30 31 42 39t19 3q2 2 5 2t6-1.5 5-2.5q4-2 12-7.5t13-12-1-12.5q-6-7-14-10t-15-10q-5-4-10.5-9t-8.5-11l-1-1q1-11-14-22.5t-23-19.5q-3-3-5-10h-1l-5-1q-2-7-8.5-11.5t-6.5-12.5q-6-2-10.5-13t-9.5-11v-3q0-5-6-11.5t-10-6.5q0-1 0-3t-1-2q-4-3-4-11h-3v-1l2-5-6-1q-1-4-7-13.5t-11-9.5v-1h-1l5-5h-1v-1h-1q-4 2-6 2v-1q2-4 2-6 0-6-7-6 0-1 0-1l2-2v-1q-7-1-7-11h-2l-2 1q-2-7-4.5-14.5t-5.5-14.5q-1-5-3.5-9.5t-2.5-10.5h1v1q11 8 26 16.5t25 18.5l78 74 30 29q2 2 8 7t10 7q2 1 6-0.5t2-3.5l-28-24q-13-10-18-20t-18-21q-9-8-17-17t-17-17l-27-24q-9-8-17.5-18t-18.5-18l-13-11q-4-3-10.5-6t-12.5-3q-3 0-9 2zm210 185q-2 0-2 4t2 4 4.5 1.5 3.5 1.5 1-1q0-2-3.5-6t-5.5-4z"/><path transform="translate(19.376 13.6) scale(.016 -.016)" d="m-4-115q-6 4-12.5 9.5t-8.5 11.5l-6 16q-2 7-6 14t-4 15q2 33 18.5 59t35.5 51q17 23 36 44.5t41 38.5q8 6 15.5 10.5t15.5 8.5l8 4 2-2q-6-6-13-10t-14-9l-5-6-11-7q-3-3-5.5-6t-5.5-5q-7-7-14-14.5t-12-15.5q-3-3-7-9-7-10-13-20t-12-21q-4-7-8-13.5t-6-14.5q-4-9-6.5-18t-5.5-19v-11q0-6-1-16.5t-1-21.5q0-14 4-25.5t17-11.5q7 4 18 4l19 8 33 26q22 17 38.5 38t31.5 42q17 23 32 47.5t15 55.5q0 7-1 14t-6 11q-3 3-12 17t-13 18q-7 5-13.5 16.5t-16.5 29.5q-3 5-7 14t-6 13q-1 0-4-3.5t-3-4.5l-7-6q-7-6-14-13t-13-15q-11-12-24-23.5t-25-23.5q-2-3-10-10t-14-14l-1-1q-2 0-3.5 4.5t0.5 6.5q3 5 9.5 12t7.5 8q12 11 20.5 19t18.5 20q8 9 17 17.5t18 16.5q12 11 16 20.5t8 16.5q-2 8-2 16 0 10 4 22t16 25 32 31.5 41 30.5q10 5 22.5 11t21.5 7q4 1 4-1t3-2 6 1.5 6 1.5q8 0 16-11t10-18q1-2 5.5-9.5t2.5-9.5q0 0-1-1.5t-5-1.5q-6 0-18 8-15-3-17-5.5t-10-5.5q0 0-3.5-3t-8.5-6h-1q-2-4-5-4l-3-5q-5-8-20-19t-23-19l-32-32q-4-4-11-10.5t-9-11.5q-2-9 7.5-26t21.5-33.5 17-24.5q8-11 14-21t11-23l8-29q1-4 1.5-7.5t0.5-7.5q0-7-1-14.5t-2-15.5q0-4-0.5-8t-1.5-8q-1-1-1.5-1.5t-0.5-0.5q-2 0-4 2.5t-6-5.5q-2-4-2-5 0-3 4-2.5t-1-6.5q-1-2-7.5-9.5t-12.5-14.5-6-10l-3 1v-5q-6-1-7-5.5t-6-8.5q-3-3-7.5-4t-6.5-5l-2-7h-3l1-3h-1v-1q-4-1-8.5-4.5t-5.5-7.5q0-2-1-2l-7 2v1h-1q-1-7-13.5-13.5t-12.5-8.5l1-4q-9 0-19.5-6t-18.5-9q-7-4-19.5-7t-24.5-3-20 5zm146 382v1h1q10 14 26.5 28t29.5 27q5 5 10.5 9.5t7.5 10.5h1l6 7q3 8 3 9t-0.5 1.5-0.5 0.5q-2 0-7-3t-10-7l-14-12q-13-11-23-23l-18-16q-5-4-6.5-9t-6.5-10q0-1 0-7.5t1-6.5z"/><path transform="translate(23.152 13.6) scale(.016 -.016)" d="m184-44q-4-1-11.5-2t-16.5-1q-10 0-20 2t-14 6q-1 4-1 5t-2 5q-3 6-3.5 4t-2.5 4q-1 3-1 11 0 12 1.5 26.5t1.5 19.5q0 14 3.5 25t6.5 22q5 21 14 40t19 37q8 14 17 28.5t19 27.5l3 4q-6-1-9.5-5.5t-6.5-8.5q-8-10-18-18-18-16-41.5-40t-46.5-50-41.5-49-26.5-37-11-10.5-6 2.5q-6 4-10 8t-4 9q0 7 4 12 10 17 23.5 36t38.5 58q13 20 23.5 39t20.5 37q11 13 12 18.5t1 10 7 13.5q2 2 6 12t5 11q5 8 9.5 16.5t9.5 16.5q10 15 15.5 25.5t16.5 24.5q3 3 11 17.5t16.5 29 9.5 14.5q1 5 6.5 11t8.5 10q6 8 11 16.5t11 16.5q5 8 10.5 14t10.5 13q13 18 24 30.5t26 28.5q4 4 11.5 12t12.5 10l30 12q5 3 2 7t1 7q6 5 12.5 9t13.5 8q5 3 10 7t12 5q3 3 16.5 10t17.5 8l33 18q4 2 8 2.5t7 2.5l22 3 4 1q2 3 12 4.5t20.5 2.5 14.5 1h9q1 1 4 1 13 0 23.5-1t20.5-4q4-1 8-1.5t8-2.5q4-3 16-9t13-10l-3-4-5 5q-6 3-12 7.5t-13 5.5q-4 2-7.5 2t-7.5 0q-13 0-25.5-3t-24.5-5l-18-2-16-9-4 1q-1-2-11.5-4t-9.5-5q-4 0-4 1-10-7-16.5-14t-18.5-14q-6-3-18.5-6t-20.5-5q-4-9-18-14.5t-22-11.5q-28-22-55-44t-53-45l-13-17q-40-40-73-90.5t-47-88.5l-3-8q-1-3-4.5-5.5t-5.5-5.5l-1-7q-17-31-24.5-46.5t-10-22-5.5-10.5l-13-20-17-31-8-11-7-15-7-7-4-12q-1-4-7-13t-11-17q4 3 6.5 7t7.5 8l15 16 8 12q9 14 21.5 25t23.5 24q1 1 8.5 8.5t8.5 7.5q2 7 10.5 13.5t12.5 10.5l24 25 1 1 1-1v1q2 5 8.5 9.5t10.5 8.5q5 5 17 19.5t28 14.5q8 0 15-4 3-1 10.5-8t13-13 2.5-8q-4-4-7-5-4-3-13-12t-14-8q0 0-4.5-7t-24.5-32q-2 2-10-11t-10-18q-5-11-11.5-18.5t-12.5-17.5v-1q0-4-2-5.5t-4-3.5v-7q0-3-5-12.5t-8-20.5q1-3 1-9 0-11-7.5-18.5t-6.5-21.5q1-4 0-22.5t9-27.5q3-3 8-3 9 0 21.5 6.5t16.5 8.5l6 4q0-1-1-1-1-2-5.5-7.5t-3.5-7.5q-3 0-3 0z"/></svg>