<svg width="31.856" height="19.344" viewBox="0 0 31.856 19.344" xmlns="http://www.w3.org/2000/svg"><path transform="translate(0 14.64) scale(.016 -.016)" d="m413 174q0-87-54-141t-141-54q-93 0-140 63-46 65-57 132-11 71-11 115t3.5 88 12.5 97.5 26.5 98 42.5 83 64.5 60.5 78 22 56-5 25-5 25 8 43 8 25.5-21q0-1-8-43.5t-8-87 8-59 8-27.5q0-25-23-39t-50-14q-70 0-70 72 0 16 6 43t6 35q0 21-23 21-32 0-64-58-37-67-37-196 0-56 12-100 23-83 76-83 46 0 71 50 11 24 37 24t43-29 17-58z"/><path transform="translate(6.608 14.64) scale(.016 -.016)" d="m160 461 1-26q2-7 6-7t8 4q13 20 43 36.5t57 16.5q41 0 62.5-32t27.5-73q6-70 6-117.5t-2-87.5q0-71 32-91 16-9 16-22.5t-7-24.5q-16-24-47.5-38t-54.5-15l-23-2q-30 1-40 17t-10 50l9 172q1 13 1 34 0 82-37 82-24 0-37.5-28t-15-62.5-1.5-75.5l6-124q0-33-23-49-35-24-85.5-24t-50.5 33l3 18q32 155 32 412 1 36 1 79.5t-1.5 59-9.5 28-23 22.5q-13 10-13 23 0 34 56 64t89 30q37 0 37-56 0-41-6-116t-6-110z"/><path transform="translate(13.136 14.64) scale(.016 -.016)" d="m45 327q0 16-7.5 30t-19.5 25-12 24q0 34 52 60.5t87.5 26.5 36.5-36q0-25-4.5-89.5t-4.5-119.5q0-133 24-167 14-8 14-25 0-33-36.5-52t-82.5-19q-61 0-61 41 0 2 3 23 14 80 14 179zm147 318q0-37-35.5-59.5t-68.5-22.5-51.5 12.5-18.5 33.5q0 38 36 61.5t68.5 23.5 51-13 18.5-36z"/><path transform="translate(16.592 14.64) scale(.016 -.016)" d="m308 190q54 0 54-66-1-40-17-69.5t-35.5-44-47.5-22.5q-37-11-81-11t-79.5 21-54.5 57q-36 68-36 164 0 105 47 185 23 41 64.5 65t98.5 24 97.5-29.5 40.5-91.5q0-74-67-74-17 0-28.5 12.5t-11.5 25-1.5 21-12 23-26.5 14.5q-63 0-63-126 0-38 7-75 15-70 56-70 31 0 42 32 3 14 19 24.5t35 10.5z"/><path transform="translate(22.4 14.64) scale(.016 -.016)" d="m182 707q0-59-6.5-152.5t-6.5-199.5 2.5-176.5 34.5-93.5q17-10 17-31t-26-39q-48-33-108-33-41 0-51 34-3 14-3 33.5t1.5 44.5 3.5 65q9 180 9 284.5t-3 126.5q-4 36-25 51l-7 5q-13 9-13 24 0 33 56.5 63t88.5 30q36 0 36-36z"/><path transform="translate(25.984 14.64) scale(.016 -.016)" d="m146 300q0-6 4-10 4-5 10-5 57 5 76 54 5 11 7 26-1 35-28 35-31 0-47.5-30t-21.5-70zm18-104q-12 0-12-12 0-24 17.5-41.5t48-17.5 55 28 43 28 29.5-16 11-45.5-14.5-59-34.5-44.5-45-24q-37-14-78.5-14t-77.5 20-56 54q-39 68-39 150.5t20 143.5 68.5 103.5 115 42.5 104-34 37.5-103-54.5-114-137.5-45z"/></svg>