<svg width="102.99" height="18.88" viewBox="0 0 102.99 18.88" xmlns="http://www.w3.org/2000/svg"><path transform="translate(0 15.52) scale(.016 -.016)" d="m375-24q-68 0-126 25t-101 74-67 118.5-24 157.5 24.5 157.5 68 118.5 102 75 127.5 26q65 0 116.5-26.5t83.5-63.5l-51-56q-28 30-65.5 47t-81.5 17q-68 0-119.5-35.5t-80-101-28.5-156.5q0-90 28-156.5t79.5-102.5 120.5-36q51 0 91.5 19t74.5 56l48-53q-44-51-97-77.5t-123-26.5z"/><path transform="translate(10.096 15.52) scale(.016 -.016)" d="m91-11v788h91v-216l-4-110q38 37 81 62.5t98 25.5q85 0 124.5-53.5t39.5-155.5v-341h-91v328q0 76-24 110t-77 34q-42 0-74.5-20.5t-72.5-62.5v-389z"/><path transform="translate(19.728 15.52) scale(.016 -.016)" d="m91-11v537h91v-537zm45 648q-27 0-44 16t-17 44q0 27 17 43t44 16q26 0 43.5-16t17.5-43q0-28-17.5-44t-43.5-16z"/><path transform="translate(24.08 15.52) scale(.016 -.016)" d="m91-11v537h75l8-97h3q27 50 66.5 80t85.5 30q18 0 31.5-2t26.5-9l-20-77q-12 3-22.5 4.5t-26.5 1.5q-34 0-71-27.5t-65-95.5v-345z"/><path transform="translate(30.224 15.52) scale(.016 -.016)" d="m300-24q-49 0-94 18.5t-80 55-55 88.5-20 119q0 90 35 153t91.5 96 122.5 33 122.5-33 91.5-96 35-153q0-89-35-152t-91.5-96-122.5-33zm0 75q46 0 81 26t54.5 72.5 19.5 107.5-19.5 108-54.5 73-81 26-81-26-54.5-73-19.5-108 19.5-107.5 54.5-72.5 81-26z"/><path transform="translate(39.824 15.52) scale(.016 -.016)" d="m91-11v537h75l8-77h3q39 38 82 64t98 26q85 0 124.5-53.5t39.5-155.5v-341h-91v328q0 76-24 110t-77 34q-42 0-74.5-20.5t-72.5-62.5v-389z"/><path transform="translate(53.024 15.52) scale(.016 -.016)" d="M99 -11V715H192V411H529V715H622V-11H529V330H192V-11Z"/><path transform="translate(64.56 15.52) scale(.016 -.016)" d="m308-24q-72 0-130.5 33.5t-93 96-34.5 151.5q0 66 20.5 118t55 88.5 77.5 56 89 19.5q69 0 116.5-30.5t73-87 25.5-134.5q0-14-1-27.5t-4-24.5h-385v67h309q0 80-34.5 122.5t-97.5 42.5q-37 0-73.5-22t-59.5-67.5-23-119.5q1-69 26-116t66-70.5 89-23.5q39 0 72.5 11.5t62.5 29.5l32-58q-35-23-79-39t-99-16z"/><path transform="translate(73.328 15.52) scale(.016 -.016)" d="m91-11v537h91v-537zm45 648q-27 0-44 16t-17 44q0 27 17 43t44 16q26 0 43.5-16t17.5-43q0-28-17.5-44t-43.5-16z"/><path transform="translate(81.216 15.52) scale(.016 -.016)" d="M99 -11V715H192V411H529V715H622V-11H529V330H192V-11Z"/><path transform="translate(92.752 15.52) scale(.016 -.016)" d="M99 -11V715H192V351H195L496 715H601L374 438L636 -11H533L317 365L192 218V-11Z"/></svg>