<svg width="96" height="19.04" viewBox="0 0 96 19.04" xmlns="http://www.w3.org/2000/svg"><path transform="translate(0 15.04) scale(.016 -.016)" d="m294-10q-55 0-101.5 16t-81.5 51.5-54.5 94.5-19.5 145v92q0 86 20 145t55 94.5 81.5 51.5 99.5 16h14q78 0 133.5-30t84.5-90.5 29-151.5h-101q0 66-14.5 107.5t-48.5 61-91 19.5q-33 0-60.5-9.5t-48.5-32-33-61.5-12-98v-135q0-59 12-98.5t33-62 48.5-32 60.5-9.5q86 0 121.5 44.5t35.5 142.5h98q0-88-29-148t-84-91.5-133-31.5z"/><path transform="translate(9.6 15.04) scale(.016 -.016)" d="m86 0v720h100v-277q26 39 68 58.5t87 19.5q51 0 91.5-20t63.5-60 23-101v-340h-100v318q0 63-30 94.5t-82 31.5q-34 0-62-16.5t-43.5-45-15.5-64.5v-318z"/><path transform="translate(19.2 15.04) scale(.016 -.016)" d="M278 0V433H95V511H378V0ZM95 0V77H551V0ZM274 616V712H368V616Z"/><path transform="translate(28.8 15.04) scale(.016 -.016)" d="M246 0 47 511H154L303 119H306L455 511H553L352 0Z"/><path transform="translate(38.4 15.04) scale(.016 -.016)" d="m300-10q-74 0-127 33t-81 91.5-28 132.5v17q0 76 28 134t81 90.5 126 32.5q75 0 128-33t81-91 28-133v-17q0-76-28-134t-81-90.5-127-32.5zm0 71q58 0 95 42.5t37 118.5v67q0 76-37 118.5t-95 42.5q-57 0-94.5-42.5t-37.5-118.5v-67q0-76 37.5-118.5t94.5-42.5z"/><path transform="translate(57.6 15.04) scale(.016 -.016)" d="M60 0V686H202L297 146H301L400 686H540V0H446V564H441L340 0H247L149 564H144V0Z"/><path transform="translate(67.2 15.04) scale(.016 -.016)" d="m300-10q-74 0-127 33t-81 91.5-28 132.5v17q0 76 28 134t81 90.5 126 32.5q75 0 128-33t81-91 28-133v-17q0-76-28-134t-81-90.5-127-32.5zm0 71q58 0 95 42.5t37 118.5v67q0 76-37 118.5t-95 42.5q-57 0-94.5-42.5t-37.5-118.5v-67q0-76 37.5-118.5t94.5-42.5z"/><path transform="translate(76.8 15.04) scale(.016 -.016)" d="m86 0v511h81l10-73q23 43 65 63t93 20q84 0 134-47t50-139v-335h-100v306q0 72-29.5 105t-82.5 33q-37 0-64-18.5t-42-51-15-74.5v-300z"/><path transform="translate(86.4 15.04) scale(.016 -.016)" d="m300-10q-74 0-127 33t-81 91.5-28 132.5v17q0 76 28 134t81 90.5 126 32.5q75 0 128-33t81-91 28-133v-17q0-76-28-134t-81-90.5-127-32.5zm0 71q58 0 95 42.5t37 118.5v67q0 76-37 118.5t-95 42.5q-57 0-94.5-42.5t-37.5-118.5v-67q0-76 37.5-118.5t94.5-42.5z"/></svg>