<svg width="37.198" height="16.66" viewBox="0 0 37.198 16.66" xmlns="http://www.w3.org/2000/svg"><path transform="translate(0 13.16) scale(.014 -.014)" d="m339-10q-58 0-108 16.5t-87.5 54.5-59 100.5-21.5 155.5v53q0 91 22 153.5t60 100.5 87.5 55 106.5 17h13q52 0 99.5-14t83.5-46 57.5-84 21.5-128h-101q0 75-22.5 115.5t-60.5 56.5-86 16q-37 0-68-10.5t-54-35.5-35.5-67.5-12.5-106.5v-98q0-85 21.5-133t59.5-67.5 88-19.5 89 16 61.5 56.5 22.5 114.5h98q0-72-21-124t-57.5-84-84-47.5-100.5-15.5z"/><path transform="translate(9.38 13.16) scale(.014 -.014)" d="m79 0v720h100v-277q27 39 69.5 58.5t87.5 19.5q52 0 92-20t63.5-59.5 23.5-98.5v-343h-100v326q0 63-29.5 90.5t-82.5 27.5q-34 0-62.5-17t-45-45.5-16.5-65.5v-316z"/><path transform="translate(17.724 13.16) scale(.014 -.014)" d="M87 0V511H187V0ZM84 636V720H190V636Z"/><path transform="translate(21.56 13.16) scale(.014 -.014)" d="M210 0 18 511H125L266 122H270L413 511H510L316 0Z"/><path transform="translate(28.952 13.16) scale(.014 -.014)" d="m288-10q-66 0-118.5 31t-82.5 89-30 137v17q0 81 30 138.5t82.5 88 118.5 30.5h13q67 0 119-31t82-88.5 30-137.5v-17q0-79-30-137t-82.5-89-118.5-31zm6 71q38 0 68 18t48 54 18 89v67q0 54-18 89.5t-48 53.5-68 18q-37 0-67-18t-48-53.5-18-89.5v-67q0-53 18-89t48-54 67-18z"/></svg>