<svg width="86.08" height="19.2" viewBox="0 0 86.08 19.2" xmlns="http://www.w3.org/2000/svg"><path transform="translate(0 15.2) scale(.016 -.016)" d="m690 106 20-22q-44-41-114.5-68.5t-155.5-27.5q-168 0-276 88.5t-108 283.5q0 181 107.5 266.5t281.5 85.5q70 0 138-13t107-32l-14-172h-28q-28 85-75.5 136.5t-126.5 51.5q-91 0-130.5-74.5t-39.5-222.5q0-175 51-261.5t179-86.5q55 0 99.5 18t84.5 50z"/><path transform="translate(12.064 15.2) scale(.016 -.016)" d="m693 26 35-8v-18h-208q-27 0-39 14t-12 42v304q0 45-14.5 64t-48.5 19q-60 0-123-50v-345q0-11 4.5-15.5t18.5-7.5l34-7v-18h-316v18l35 8q15 3 19.5 7t4.5 15v604q0 11-4.5 15t-19.5 7l-35 8v18l240 30h19v-306q38 31 92 52.5t121 21.5q93 0 133-39t40-117v-294q0-11 4.5-15t19.5-7z"/><path transform="translate(24.064 15.2) scale(.016 -.016)" d="m362-12q-151 0-231.5 63t-80.5 192 80.5 192 231.5 63 231.5-63 80.5-192-80.5-192-231.5-63zm0 26q43 0 65 22t30.5 70 8.5 137-8.5 137-30.5 70-65 22-65-22-30.5-70-8.5-137 8.5-137 30.5-70 65-22z"/><path transform="translate(35.648 15.2) scale(.016 -.016)" d="m693 26 35-8v-18h-208q-27 0-39 14t-12 42v304q0 45-14.5 64t-48.5 19q-60 0-123-50v-345q0-11 4.5-15.5t18.5-7.5l34-7v-18h-316v18l35 8q15 3 19.5 7t4.5 15v378q0 11-4.5 15t-19.5 7l-35 8v18l240 30h17v-81q38 31 93 53t122 22q93 0 133-39t40-117v-294q0-11 4.5-15t19.5-7z"/><path transform="translate(47.648 15.2) scale(.016 -.016)" d="m59 674-35 8v18l240 30h19v-282q67 50 172 50 111 0 176-60.5t65-189.5q0-134-65.5-197t-175.5-63q-112 0-174 68v-56h-257v18l35 8q15 3 19.5 7t4.5 15v604q0 11-4.5 15t-19.5 7zm224-256v-331q23-25 52-40.5t61-15.5q36 0 56.5 22.5t29 69 8.5 125.5q0 111-22 159.5t-77 48.5q-62 0-108-38z"/><path transform="translate(59.584 15.2) scale(.016 -.016)" d="m439 448-35 8v18l242 30h17v-456q0-11 4.5-15t19.5-7l35-8v-18h-203q-29 0-41.5 12.5t-12.5 39.5v11q-36-31-91-53t-122-22q-93 0-133 39t-40 117v282q0 11-4.5 15t-19.5 7l-35 8v18l242 30h17v-378q0-45 14.5-64t48.5-19q60 0 121 50v333q0 11-4.5 15t-19.5 7z"/><path transform="translate(71.52 15.2) scale(.016 -.016)" d="m458 495q33 0 52-8l-15-156h-7l-205 45v-328q0-11 4.5-15.5t18.5-7.5l34-7v-18h-316v18l35 8q15 3 19.5 7t4.5 15v378q0 11-4.5 15t-19.5 7l-35 8v18l240 30h17v-98q87 89 177 89z"/><path transform="translate(80.16 15.2) scale(.016 -.016)" d="m82 646q0 41 28 62.5t75 21.5 75-21.5 28-62.5-28-62.5-75-21.5-75 21.5-28 62.5zm-56-628 35 8q15 3 19.5 7t4.5 15v378q0 11-4.5 15t-19.5 7l-35 8v18l240 30h19v-456q0-11 4.5-15t19.5-7l35-8v-18h-318z"/></svg>