<svg width="171.6" height="21.568" viewBox="0 0 171.6 21.568" xmlns="http://www.w3.org/2000/svg"><path transform="translate(0 15.616) scale(.016 -.016)" d="m797 351q0-172-92.5-268.5t-261.5-96.5q-114 0-205.5 48t-142 131-50.5 185.5 50 185.5 138 130.5 196 47.5q68 0 138.5-18.5t117.5-49.5l20-141h-9q-21 84-97 131.5t-169 47.5q-133 0-221.5-94.5t-88.5-237.5 91.5-239.5 239.5-96.5 241.5 96 93.5 263h10q1-12 1-24z"/><path transform="translate(13.136 15.616) scale(.016 -.016)" d="m73 10q26 0 44.5 18.5t19.5 44.5v555q-1 26-19.5 44t-44.5 18h-13v10h219v-10h-13q-26 0-44.5-18t-19.5-44v-555q0-26 19-44.5t45-18.5h13v-10h-219v10z"/><path transform="translate(18.544 15.616) scale(.016 -.016)" d="m778 690q-25 0-43-17.5t-19-42.5v-516q0-58 7-110l2-18h-9l-545 582v-498q0-25 18-42.5t43-17.5h19v-10h-206v10h19q25 0 43 17.5t18 43.5v519q0 61-7 109l-2 16h10l545-582v496q-1 26-19 43.5t-43 17.5h-19v10h206v-10z"/><path transform="translate(32 15.616) scale(.016 -.016)" d="m84 611v-18h-10v126q15-6 53-12t52.5-6 15.5 0h279q49 0 75 5.5t31 7.5v-9l-428-675h318q53 0 87.5 34t49.5 90h10l-33-154h-524v9l420 662h-337q-25-1-42-18t-17-42z"/><path transform="translate(42.416 15.616) scale(.016 -.016)" d="m73 10q26 0 44.5 18.5t19.5 44.5v560q0 24-19 40.5t-45 16.5h-12l-1 10h293q31 0 67.5 6t51.5 12v-126h-10v18q0 24-16.5 41t-39.5 18h-204v-309h169q20 1 34 15t14 35v14h10v-158h-10v15q0 20-13.5 34t-33.5 15h-170v-299h143q74 0 113 33t65 98h10l-58-162h-415v10z"/><path transform="translate(51.648 15.616) scale(.016 -.016)" d="m73 10q26 0 44.5 18.5t19.5 44.5v554q-1 26-19.5 44.5t-44.5 18.5h-13v10h219v-10h-13q-36 0-55-31-9-15-9-32v-596h143q74 0 113 33t65 98h10l-58-162h-415v10z"/><path transform="translate(64.64 15.616) scale(.016 -.016)" d="m-100 554q29 85 97 117t241 32q36 0 182-3 106-3 187-46t126.5-121.5 45.5-182.5q0-157-99.5-253.5t-259.5-96.5h-339l1 10h12q25 0 43 16.5t21 40.5v603q-125-3-177-39-27-19-41-36.5t-29-44.5zm323 116v-640h197q127 0 205.5 88t78.5 232q0 95-35.5 167.5t-100 112.5-148.5 40z"/><path transform="translate(78.048 15.616) scale(.016 -.016)" d="m73 10q26 0 44.5 18.5t19.5 44.5v560q0 24-19 40.5t-45 16.5h-12l-1 10h293q31 0 67.5 6t51.5 12v-126h-10v18q0 24-16.5 41t-39.5 18h-204v-309h169q20 1 34 15t14 35v14h10v-158h-10v15q0 20-13.5 34t-33.5 15h-170v-299h143q74 0 113 33t65 98h10l-58-162h-415v10z"/><path transform="translate(87.28 15.616) scale(.016 -.016)" d="m423 714q134 0 237-68l20-141h-9q-22 86-89 132.5t-159 46.5q-131 0-209.5-91t-78.5-241 77.5-241.5 204.5-94.5q112 0 187 61 81 66 98 215h8l-12-157q-91-149-281-149-158 1-257.5 101t-99.5 263.5 99.5 263.5 263.5 100z"/><path transform="translate(99.44 15.616) scale(.016 -.016)" d="m147 613.5q107 100.5 277.5 100.5t277.5-100.5 107-263.5-107-263.5-277.5-100.5-277.5 100.5-107 263.5 107 263.5zm54.5-505.5q84.5-92 222.5-92t222.5 92 84.5 242-84.5 242-222.5 92-222.5-92-84.5-242 84.5-242z"/><path transform="translate(113.01 15.616) scale(.016 -.016)" d="m266 669h-64v-596q0-26 18.5-44.5t45.5-18.5h12l1-10h-219v10h13q26 0 44.5 18t19.5 44v555q-1 26-19.5 44.5t-44.5 18.5h-13v10h270q91 0 143-50.5t52-131-49.5-139-120.5-58.5q15-7 35.5-27.5t36.5-42.5q86-123 112-151.5t37-39 24-20.5 26-16q29-14 62-14v-10h-55q-43 0-80 15.5t-55.5 32-32 32-74.5 103.5-71 100.5-21 24.5q-32 34-64 34v10q8-1 21-1t32 1q124 3 156 104 6 20 6 37.5t0 22.5q-2 67-35 108t-89 44q-24 1-60 1z"/><path transform="translate(123.84 15.616) scale(.016 -.016)" d="m716 10h8v-10h-225v10h9q21 0 31.5 13.5t10.5 25.5-4 24l-64 170h-270l-67-171q-4-12-4-23.5t10.5-25 31.5-13.5h9v-10h-201v10h9q25 0 49 16t39 47l226 538q37 81 37 103h9l268-641q14-31 38-47t50-16zm-492 263h246l-120 321z"/><path transform="translate(135.23 15.616) scale(.016 -.016)" d="m589 611q0 24-17 41.5t-40 18.5h-190v-599q1-26 19.5-44t44.5-18h13v-10h-219v10h13q26 0 44.5 18t19.5 43v600h-190q-24-1-40.5-18.5t-16.5-41.5v-17l-10-1v126q15-6 52-12t68-6h338q49 0 81.5 7.5t39.5 10.5v-126l-10 1z"/><path transform="translate(145.12 15.616) scale(.016 -.016)" d="m73 10q26 0 44.5 18.5t19.5 44.5v555q-1 26-19.5 44t-44.5 18h-13v10h219v-10h-13q-26 0-44.5-18t-19.5-44v-555q0-26 19-44.5t45-18.5h13v-10h-219v10z"/><path transform="translate(150.53 15.616) scale(.016 -.016)" d="m550 700h201v-10h-9q-25 0-49-15.5t-38-46.5l-241-539q-37-81-37-103h-9l-281 641q-14 32-38.5 47.5t-49.5 15.5h-8v10h225v-10h-9q-21 0-31.5-13.5t-10.5-25 5-23.5l209-524 218 524q4 12 4 23.5t-10.5 25-31.5 13.5h-9z"/><path transform="translate(162.37 15.616) scale(.016 -.016)" d="m73 10q26 0 44.5 18.5t19.5 44.5v560q0 24-19 40.5t-45 16.5h-12l-1 10h293q31 0 67.5 6t51.5 12v-126h-10v18q0 24-16.5 41t-39.5 18h-204v-309h169q20 1 34 15t14 35v14h10v-158h-10v15q0 20-13.5 34t-33.5 15h-170v-299h143q74 0 113 33t65 98h10l-58-162h-415v10z"/></svg>