<svg width="85.938" height="18.875" viewBox="0 0 85.938 18.875" xmlns="http://www.w3.org/2000/svg"><path transform="translate(0 14.891) scale(.015625 -.015625)" d="m648 637q0-15-8.5-19.5t-21.5-4.5q-2 7-6 9t-4 10q0 9 6.5 15.5t15.5 6.5q7 0 12.5-5t5.5-12zm-57 46-1-14q-6-4-9.5-6t-7.5-7q-10 3-16 8-2 4-4.5 7.5t-2.5 8.5q0 2 2 6 5 5 11 8t14 3h8q0-8 2-8t4-6zm-64 46q-3-8-4-14t-9-11h-18q-3 4-4.5 8t-4.5 7q2 10 4 14l3 9q5 1 7 1t7 0q7 0 10.5-4.5t8.5-9.5zm-84 15q0-9-5.5-15t-14.5-6q-8 0-13.5 4.5t-5.5 12.5q0 9 9 14.5t17 5.5h7q2-4 4-7.5t2-8.5zm-89-3q-3-4-2.5-4.5t0.5-5.5q0-6-3.5-9.5t-5.5-8.5q-5 2-11 1t-11 2q-3 6-6 8t-3 10q0 13 12 17t22 5q0-8 1.5-9t6.5-6zm-96-45q-2-5-8-12t-12-7q-2 0-8.5 2t-8.5 3q-2 4-4.5 7.5t-2.5 8.5q1 2 3 7.5t4 7.5q4 3 6 3t2 6q6-1 12-4t12-3q1-5 1.5-10.5t3.5-8.5zm-73-64q-4-8-8.5-14t-12.5-9q-5 2-9.5 3t-8.5 5q-4 10-4 15 0 8 5.5 11t9.5 9q17-6 28-20zm468-530q0-6-3-12-5-3-9-6.5t-10-3.5q-8 0-14 7t-6 15q0 10 4.5 13t11.5 8q7-1 11.5-0.5t12.5-2.5q0-5 1-9t1-9zm-513 448q0-9-6.5-14.5t-15.5-5.5q-18 0-18 18 0 5 1.5 11t3.5 11h10q10 0 17.5-4.5t7.5-15.5zm448-509q0-5-2.5-9t-4.5-9q-5 0-8.5-1t-8.5-1q-8 0-12.5 5t-4.5 13 4.5 14 12.5 6 16-5 8-13zm-489 426q0-10-8-20-5-2-11-3t-12-4q-3 8-7 13.5t-4 13.5q3 3 10.5 10t12.5 7q2 0 4.5-0.5t4.5-0.5zm409-465v-9q-4-3-8.5-6t-9.5-3q-8 0-13 5t-9 12q0 8 2.5 8.5t0.5 8.5q6 2 7.5 3.5t6.5 6.5q5-2 10-5t11-3q1-5 1.5-9t0.5-9zm-411 361q0-5-2-15-6-5-10-7t-12-2q-17 0-17 17 0 9 5 16.5t15 7.5q8 0 14.5-4.5t6.5-12.5zm309-378-5-7h-6q-3 0-5.5-0.5t-5.5-0.5q-4 4-7 8t-7 9q2 7 5.5 13t8.5 11q5 0 8.5-0.5t8.5-0.5q5-8 11-13-2-6-2-8 0-8-2-10-1-1-2-1zm-291 283q0-8-2.5-12t-5.5-11q-4-2-7-3t-7-1q-7 0-12.5 5t-9.5 10q2 5 2 11 0 4 2 8 5 2 11 4.5t10 2.5q2 0 9.5-6t9.5-8zm200-256q-2-5-3.5-7.5t-0.5-7.5q-5-3-11-6t-12-3q-7 0-13 5t-6 12q0 6 6 14t12 10q2-2 4-1.5t5 0.5h6q3-6 5.5-8.5t7.5-7.5zm-167 145q-2-10-7-17t-16-7h-8q-2 4-5 7.5t-4 7.5q-2 6-2 7 0 3 1 5.5t2 4.5q10 7 20 7 3 0 9-2 2-4 4-7t6-6zm83-97q-3-7-6.5-11.5t-11.5-7.5q-6 2-14.5 5.5t-8.5 11.5q0 6 4 12 5 3 9.5 5.5t9.5 2.5q8 0 11.5-6t6.5-12z"/><path transform="translate(11.094 14.891) scale(.015625 -.015625)" d="m699 602q-5-8-8.5-12.5t-10.5-11.5h-6q-4 0-7 0.5t-6-0.5q-2 6-7 9.5t-5 10.5q0 11 5.5 13t13.5 4q6 2 10 2 2 0 9.5-6.5t11.5-8.5zm-78 67q0-6-4.5-11.5t-6.5-11.5q-10 2-21 4.5t-11 16.5q0 4 1.5 7.5t1.5 7.5q10 7 20 7 5 0 9.5-2.5t9.5-5.5q0-3 0.5-6t0.5-6zm-86 63q-1-5-2.5-10t-7.5-7q0-14-14-14-6 0-13 3-2 5-5 9.5t-3 9.5q0 4 2 8l11 9h6q7 0 15-6zm211-245q-6-11-19-11-8 0-12.5 2.5t-10.5 7.5v13q0 5 1 8 5 3 9.5 6.5t10.5 3.5q2 0 8-2 8-10 8-14t5-14zm-326 248q0-9-9.5-12.5t-16.5-4.5q-6 5-9.5 8t-11.5 5q2 3 3.5 6.5t1.5 6.5q0 5 9.5 10t12.5 10q5-5 9-8.5t9-6.5q0-4 1-7t1-7zm345-356q-8-15-25-15-2 0-5 0.5t-5 0.5q-3 5-6 10t-3 10q0 6 4 14 5 4 11 4t11 3q5-5 15-7zm-10-121q0-3-2-9-8-8-19-8-4 0-7.5 1t-7.5 2q-2 4-3.5 7.5t-1.5 8.5q0 3 0.5 5.5t0.5 5.5q3 2 6.5 3t4.5 6q4 2 8 2 5 0 8-3t8-4q2-4 3.5-8t1.5-9zm-454 435q-7-4-11.5-8t-12.5-4h-6q-3 3-6 6t-5 7q-1 4-1.5 6.5t-0.5 4.5q0 4 2 6.5t2 6.5q8 4 13 4 7 0 12.5-3t10.5-6v-6q0-4 1-7.5t2-6.5zm400-549q-3-22-23-22-10 0-13 5.5t-7 12.5q2 8 7.5 15t14.5 7q5 0 13-4 0-6 2.5-7.5t5.5-6.5zm-501 494q0-11-8-17t-18-6q-6 0-12 7t-6 12q0 7 3.5 12t8.5 9l8 1q8-2 16-5.5t8-12.5zm413-592v-10q-5-2-10.5-3t-11.5-1q-7 0-12.5 4t-10.5 8q4 9 9.5 17t16.5 8q8 0 13.5-8t5.5-15zm-484 485q0-3-0.5-6t-0.5-6q-5-3-11-5.5t-12-2.5q-5 0-11 2-2 5-4 7t-5 7q2 12 7 20 5 2 10 3t10 1h9q3-5 5.5-9.5t2.5-10.5zm-30-114q0-15-5.5-25t-22.5-10q-4 4-9.5 7.5t-5.5 9.5q0 4 1 7t1 6q5 3 10 8t10 5 8-4 13-4zm391-422q0-7-2-10-4-5-9.5-6.5t-10.5-3.5q-5 4-8.5 5.5t-8.5 3.5q0 3-0.5 5.5t-0.5 5.5 2 9q2 3 7 7.5t9 4.5q8 0 9.5-2t7.5-3q5-8 5-16zm-387 278v-4q-5-7-7.5-12t-12.5-5q-12 0-21 9-2 8-2 14t3.5 10 6.5 9q4-2 7.5-1t8.5 0q5-6 11-6.5t6-13.5zm265-283q0-8-6-13.5t-14-5.5q-9 0-13 3.5t-6 8.5-3 11-5 11q6 1 9 2t5 2 3.5 2.5 6.5 3.5q9-2 16-8.5t7-16.5zm-220 155q0-5-2-8t-4-7q-2-1-7.5-3t-7.5-2q-3 0-5.5 1.5t-5.5 1.5q-2 0-3-0.5t-3-0.5q-3 7-3.5 9.5t-0.5 10.5l-2 4 11 16q1-1 5-3 2 0 4 0.5t4 0.5q3 0 9.5-4t8.5-6q2-8 2-10zm96-94q0-6-4-9t-6-8q-4-2-7-3t-7-1q-6 0-11.5 6t-11.5 8q2 8 4.5 15t8.5 13q9 0 21.5-5t12.5-16z"/><path transform="translate(23.922 14.891) scale(.015625 -.015625)" d="m623 671q-3-5-3-8t0-9q-5-3-10.5-7t-10.5-6q-8 0-17 7-2 8-2 12 0 10 4.5 16.5t15.5 6.5q7 0 12-4.5t11-7.5zm67-85q-4-4-6-7 1-1 1-4 0-2-1-4-3-1-6-2t-7-1q-15 0-23 15 5 9 9 18t16 9q7-4 12-10t5-14zm-161 116q0-2-2-10-9-9-18-9t-15 6q-4 8-4 15 0 4 2 10 5 2 6 5.5t9 3.5 15-6.5 7-14.5zm187-190-2-27q-4-1-7.5-2t-7.5-1q-5 0-11.5 2.5t-8.5 5.5q-2 4-2 13 0 4 1 7t2 7q7 4 10.5 6t11.5 2q2-5 6-7.5t8-5.5zm-280 207q0-2-2-8-3-3-6.5-7t-7.5-6q-11 0-18 6t-7 17v5q3 3 6.5 5.5t5.5 4.5q6 2 9 2 5 0 8.5-2t8.5-3q0-4 1.5-7t1.5-7zm301-309q0-5-1.5-9t-1.5-9q-3-3-7.5-5.5t-9.5-2.5q-8 0-12.5 6t-4.5 14q0 10 8 18 8 2 10 2 9 0 17-5 2-6 2-9zm-397 317q-5-8-7.5-15t-14.5-8q-8 4-13.5 8.5t-5.5 14.5q0 3 2 9 5 2 10.5 4t11.5 2q8 0 11-4.5t6-10.5zm396-422q-1-8-10-17-4-1-7-1.5t-7-0.5q-5 0-6 3-3 3-6.5 5.5t-5.5 6.5q0 14 4 18l22 9q2-4 4.5-6.5t7.5-4.5zm-487 418q0-3-0.5-5.5t-0.5-4.5q-5-3-6.5-6.5t-8.5-6.5q-3 0-6-1t-6-1q-7 0-12 8.5t-5 14.5q0 8 7.5 12.5t14.5 4.5q6 0 14.5-4t8.5-11zm472-502q0-9-6-16.5t-16-7.5q-5 0-11 4-1 4-4.5 6t-6.5 4q2 5 2.5 7.5t-0.5 7.5q7 7 14.5 9t16.5 6l-3-4q8-4 12-5 2-6 2-11zm-579 494q0-7-4.5-11.5t-8.5-8.5q-6 1-11.5 2.5t-9.5 6.5q-9 4-9 11 0 8 8 13.5t16 5.5 13.5-5.5 5.5-13.5zm543-589q-3-8-9-16.5t-15-8.5q-8 0-12.5 6t-8.5 12q0 5 2 11 1 3 1 5 1 2 3 3 4 2 6 2 8 4 13 4h4zm-541 494q0-4-0.5-7t0.5-7q-6-2-11-6t-11-4q-8 0-13 6.5t-5 14.5q0 9 7 13.5t16 4.5q5 0 9.5-3t7.5-7zm457-561q-2-7-3.5-13.5t-4.5-13.5q-1 1-4 1-4-1-6.5-2t-6.5-1q-3 2-7 3.5t-7 3.5q-3 7-3 16 6 5 7.5 12.5t12.5 7.5q3 0 9-2 4-2 7-5.5t6-6.5zm-461 462q-2-4-1.5-7.5t-1.5-7.5q-5-3-10-6t-10-6q-8 0-14 6t-10 14q3 4 4 8t4 8q6 1 9.5 3t10.5 2q5-4 9.5-6.5t9.5-7.5zm7-97q0-7-2-10t-3-9q-5-1-11-3t-9-2q-7 0-11 8t-4 13q0 8 5 15t14 7q5 0 11-4.5t10-6.5zm347-404-9-21q-8-3-16-3-3 0-6.5 0.5t-6.5 0.5l-7 28q9 11 22 11 9 0 16-7 1-5 1-6t6-3zm-362 315 3-9q2-6 2-8 0-5-4-10t-7-9q-6-2-10-2-5 0-15 4-5 6-5 16 0 9 3 15 10 7 19 8 5-1 6.5-2t7.5-3zm228-322q-1-7-3.5-8t-0.5-9q-5-1-11.5-4t-9.5-3q-6 0-11 8.5t-5 14.5q0 7 7.5 13t13.5 6h8q6-4 7.5-8.5t4.5-9.5zm-213 195q-2-8-8-14t-14-10q-5 5-11.5 8.5t-6.5 11.5q0 4 0.5 7t0.5 7q4 3 9 6.5t10 3.5q8 0 13-6.5t7-13.5zm114-192q0-7-3-12.5t-4-11.5q-6 0-8.5-2t-6.5-2q-10 0-15.5 7t-5.5 16q0 8 5 12t9 10q11-2 16.5-5t12.5-12zm-116 95q0-8-8-10-3-4-7.5-7t-9.5-3q-4 0-10 4l-10 20 12 14q7 3 15 3 11 0 17-10 0-2 0.5-5t0.5-6zm-1-99q0-5-3.5-9.5t-4.5-9.5h-5q-2-1-5-2t-5-1-8 2q-2 5-4 6t-5 4q-2 5-2 7.5t-3 7.5q2 4 5.5 7.5t8.5 5.5q3 3 10 3h5q5-5 10.5-9t5.5-12z"/><path transform="translate(36.328 14.891) scale(.015625 -.015625)" d="m558 729q-3-5-5-10t-7-9q-3 0-5.5-0.5t-4.5-0.5q-8 0-11.5 3t-9.5 5q0 4-1 7.5t-1 7.5q0 6 8.5 11.5t14.5 5.5q9 0 10-3.5t6-5.5zm-56-92q-3-8-8-12t-11-9q-7 4-17 6-3 5-6.5 9.5t-3.5 9.5 3.5 10.5 7.5 8.5h8q4 0 7.5-1t8.5 0q8-12 11-22zm-63-92q-5-3-6.5-6t-4.5-7q-6-2-10-2-17 0-27 15 0 4 0.5 8t0.5 8q7 7 16 9.5t18 3.5q3-3 5-7t6-7q-1-2-1-3t-1-3q2-3 4-9zm-66-86q0-5-2-9.5t-2-9.5q-3 1-8 1-2-1-4.5-2t-4.5-1q-7 0-12 5t-11 8v6q0 15 10 16.5t21 5.5q3-8 5.5-9t7.5-7zm-320 258v-10q-10-2-16-2t-12 1-12 3q-3 5-4.5 12t-5.5 12q5 5 11.5 8t11.5 8q7-2 13-6.5t13-7.5q0-5 0.5-9t0.5-9zm65-77q0-3-1-6t-1-6q-12-7-23-7-8 0-15 3-2 5-3.5 10t-1.5 10q0 14 8.5 15.5t18.5 2.5q6-4 12-9t6-13zm56-69q-4-10-4-16-5-9-9-14.5t-15-5.5q-5 0-9 3t-9 5v8q0 13 6.5 21t20.5 8q7-7 19-9zm65-114q-4-5-7-13-4-2-7.5-4t-8.5-2q-7 0-12.5 4.5t-10.5 8.5q1 1 3 5-1 2-1 7 0 11 11.5 14t19.5 3q5-5 9-10.5t4-12.5zm70-89q-2-6-3.5-12t-3.5-12l-5 1q-2 0-4-1.5t-4-2.5q-7 1-11 3.5t-10 5.5q0 5-2 8t-2 8q4 6 9 12t13 6q3 0 5.5-0.5t5.5-0.5q4-3 6-7t6-8zm2-98q-2-8-4-14.5t-2-14.5q-5-1-9.5-3.5t-9.5-2.5q-10 0-20 7 0 4-0.5 7t-4.5 5q4 25 32 25 7-8 18-9zm1-145q-5-5-10-11.5t-13-6.5q-11 0-15.5 3t-6.5 7.5-3 11-6 12.5q12 3 16 6t13 9q5-3 10.5-7t7.5-9q3-5 2.5-7.5t4.5-7.5zm0-106q-2-2-4-6 0-2 0.5-4.5t0.5-5.5l-9-13q-4 0-7-2t-7-2q-5 0-10 2.5t-9 5.5q-2 4-3 7.5t-1 8.5 3 13q5 2 9.5 5.5t10.5 3.5q13 0 18-9z"/><path transform="translate(45.109 14.891) scale(.015625 -.015625)" d="m465 670q0-5-2-9t-3-9q-10-4-17-4-22 0-22 22 0 6 3.5 10t5.5 9l15 1 18-11q2-6 2-9zm60-62q0-5-2-5.5t0-5.5q-5-5-7-5.5t-8-1.5q-3-2-10-2-2-1-2.5-1.5t-2.5-1.5q-3 4-6 7t-8 3v25q8 0 11 4t12 4q8 0 13.5-5t9.5-12zm-131 114q0-6-3-11.5t-7-9.5q-8-2-10-2-6 0-11.5 2.5t-10.5 4.5q0 4-1 7t-1 7q0 7 8.5 13.5t14.5 6.5 11-4 10-6zm-90 10q-5-4-10.5-7.5t-10.5-8.5l-24 4-6 25q6 5 12 8.5t14 3.5q3 0 9-2 5-5 7.5-11.5t8.5-11.5zm-103-16q0-3-2-7-7-5-9.5-6t-10.5-2q-2 0-4.5-1.5t-5.5-1.5h-6q0 8-1.5 10.5t-5.5 8.5q5 8 11 14.5t16 6.5q5 0 7-1 4-4 7.5-9t3.5-12zm271-397q0-8-6.5-12t-11.5-9q-8 3-15.5 5t-12.5 10v9q0 5 2 11l13 10 13 2 12-9q2-8 6-10zm-353 329q-10-4-15-4.5t-15-2.5q-6 4-11 8.5t-5 11.5q0 8 6 14t13 9l8-8q2 1 6 1 9 0 9.5-7t0.5-12q0-6 3-10zm413-427q0-5-1-7-2-2-4.5-5t-5.5-5q-2 0-4.5-0.5t-4.5-0.5q-4 0-8 2-2 1-8 3.5t-6 6.5q-3 6-3 8 0 6 3.5 9.5t3.5 8.5q5 2 9.5 2.5t9.5 3.5q7-5 13-11t6-15zm-169 151q0-4-1-8t-1-8q-5-2-10-5.5t-10-3.5-10 2.5-10 4.5l3 5q-2 2-3.5 4.5t-1.5 5.5q0 4 1 7.5t2 7.5q10 7 20 7 6 0 12-4 2-5 5.5-6.5t3.5-8.5zm-109 26q-2-11-8-19-8-3-15-3-6 0-16 4-4 7-4 15 0 12 5 18 3 1 6 2t6 1h5q9-6 12-6.5t9-11.5zm-159 159q-1-4-1-11 0-8-6.5-12.5t-13.5-4.5q-9 0-15.5 6.5t-6.5 15.5 4.5 11 9.5 8q9-1 15-4.5t14-8.5zm417-451q-1-5-2.5-10.5t-1.5-10.5q-5 0-9-1.5t-9-1.5q-2 0-8 4-3 0-7-2-4 14-12 19l11 21q4-2 6-2t4 2 4 4q4-4 7-6 2 1 6 1 4-5 6.5-8.5t4.5-8.5zm-368 337q0-9-5.5-14t-13.5-8q-13 5-18 10-4 8-4 13t2.5 10 2.5 10q2 0 4.5-0.5t4.5-0.5q3 0 6 0.5t5 0.5q5-3 7-5t9-4zm284-415q0-11-6.5-16t-14.5-8q-5 1-8.5 3t-8.5 3q-3 5-5.5 8.5t-4.5 8.5q2 5 4.5 9t4.5 9q5 2 9 3.5t9 1.5q3 0 9-2 4-5 8-9t4-11zm-121-28q0-8-6-14.5t-14-6.5q-5 0-10 1.5t-10 1.5q-2 5-3.5 10t-1.5 10v9q7 4 13.5 5t12.5 5l17-13q2-6 2-8zm-113 19q-8-22-27-22h-5q-6 4-8 8.5t-7 9.5q3 9 3 16 7 7 14 7 5 0 9.5-1t9.5-1zm-101 39q-5-4-10.5-8t-12.5-4q-3 0-6 1t-5 1q-9 8-9 11.5t-5 8.5q6 7 10.5 14t15.5 7q6 0 11-3.5t10-5.5q1-5 1-10.5t0-11.5z"/><path transform="translate(54.156 14.891) scale(.015625 -.015625)" d="m655 725q0-3-2-9l-11-10h-6q-4 0-7.5 0.5t-8.5 0.5q-3 5-5.5 10t-2.5 11q10 16 22 16 3 0 6-0.5t5-0.5q4-4 7-8.5t3-9.5zm-97 0q0-6-3-10.5t-6-9.5q-5 0-8.5-0.5t-7.5-0.5-10 2l-12 13q4 4 3.5 5t-0.5 6q0 3 1 5l10 10q6 0 11.5 0t11.5-1q2-4 4.5-7.5t5.5-6.5zm-96 1q-1-11-8-16.5t-18-5.5q-2 0-10 2-1 1-6.5 7.5t-3.5 8.5q1 1 1 4 0 7 6.5 13.5t13.5 6.5q5 0 8-2t8-3q3-4 4.5-8t4.5-7zm-103-8q-4-4-7-5v-5q-4-2-8.5-3t-9.5-4q-5 3-10 6.5t-11 6.5q0 5-0.5 10t-0.5 10q6 3 11.5 7t11.5 8l16-7q2-7 5-12t3-12zm-98 5q0-6-3-7-2-5-4-6.5t-4-6.5h-10q-17 0-20.5 6t-5.5 20q1 5 3.5 7t3.5 7q5 2 8.5 3t8.5 1 8.5-1.5 7.5-2.5q0-7 3.5-10.5t3.5-9.5zm101-113q-5-8-9-14.5t-14-10.5q-5 2-6.5 1.5t-6.5-0.5l-4 2q-4 5-6 9t-6 9q6 6 6 14 10 7 20 7 3 0 5.5-0.5t5.5-1.5q3-3 3.5-5.5t1.5-4.5 3-3 7-2zm-203 106q-8-8-14-9.5t-17-1.5q-10 0-13 9.5t-3 17.5q6 5 11.5 10t13.5 4l5 3q4-6 7-9t5-6 3-7 2-11zm203-230q-2-2-4-7t-3-7q-3-2-6.5-4t-6.5-5q-5 3-8 3t-8 1q-4 5-5.5 6t-7.5 2q2 10 5 22.5t17 12.5q12 0 16.5-8t10.5-16zm-308 237q0-7-6-15-4-2-7.5-3t-8.5-1q-9 0-13 5.5t-9 12.5q2 10 2 15 5 3 11 5.5t12 2.5q3 0 6.5-1t6.5-1q2-5 4-10t2-10zm306-355q-4-8-7.5-15t-14.5-7q-5 0-8 1.5t-7 1.5q-4 4-5 8t-6 6q0 8 2 12t7 10l18 6q5-5 6.5-6t9.5-3q0-7 0.5-8t4.5-6zm-1-118q0-7-2.5-7t-0.5-7q-5-3-9.5-6t-10.5-3q-3 0-6 1t-7 2q-1 2-6 8.5t-5 8.5q0 8 8.5 15t16.5 7q4 0 10.5-6.5t11.5-9.5zm-4-126q-2-5-5-8t-5-8l-24 2q-3 7-7.5 9.5t-5.5 10.5q5 8 9 14.5t15 6.5q12 0 20-10zm4-115q0-2-2-8-3-3-8.5-7.5t-10.5-4.5-6.5 2-7.5 1q-4 5-7.5 9.5t-3.5 11.5 5 10.5 8 8.5h8q5 0 15-2 2-5 6-9.5t4-11.5z"/><path transform="translate(64.562 14.891) scale(.015625 -.015625)" d="m390 732q0-8-3-13t-5-13h-16q-6 4-11 5t-5 10q0 4 1 7.5t1 6.5q6 9 17 9 4 0 12-2 2-4 3-6t6-4zm56-97q-2-4-7-9.5t-6-8.5l-5-2q-8 0-13 3t-12 8q2 8 4.5 17.5t13.5 9.5q10 0 16.5-3.5t8.5-14.5zm46-129-12-14q-6-2-8-2-5 0-9.5 2t-9.5 4q-1 3-2 6t-1 7q0 1 2 7 10 10 26 10 8-8 14-20zm-150 110q0-8-7-13.5t-15-5.5q-4 0-8 2-2-1-4-1.5t-4-1.5q-1 6-2.5 12.5t-1.5 12.5 3.5 8.5 7.5 7.5q5 0 11-0.5t11-0.5q2-5 5.5-9.5t3.5-10.5zm197-217q0-4-1.5-8t-1.5-8q-5-1-9-3.5t-9-2.5-10 3.5-10 4.5q0 2 1 3.5t1 3.5-1 4.5-2 4.5q5 6 11 11.5t14 5.5q7 0 12-6t5-13zm31-112q0-13-7.5-14.5t-16.5-6.5q-4 4-8 6t-7 7q-1 5-2 10.5t-3 10.5q6 3 12.5 5.5t14.5 2.5q10 0 13.5-6t3.5-15zm43-80q0-8-3-17-5-2-10-3.5t-10-1.5q-17 0-17 17 0 3 0.5 5.5t0.5 4.5l10 12q5-2 9.5-2t9.5-1q7-7 10-14zm-324 298q-6-6-13.5-11t-16.5-5q-5 0-11 6-3 7-3 15 0 3 1 6t1 6q4 2 7.5 4.5t8.5 2.5q4 0 7-3 4 0 7-1t6-1q2-6 2.5-10t3.5-9zm183-238q0-10-9-16-8-1-19-6l-16 11q2 4 1.5 7.5t-0.5 8.5q5 9 8 12t5.5 3.5 5 1 5.5 3.5l15-8v-5q0-3 2-5.5t2-6.5zm171-168q-3-11-9.5-16.5t-17.5-8.5q-5 5-9.5 8.5t-8.5 8.5q1 4 2 7.5t1 8.5q5 2 7 5t6 6q6-2 12-3t12-4q0-5 1-7zm35-101q-2-4-5.5-7t-6.5-5q-8 2-14 2t-11 1q-1 5-2.5 10t-1.5 10q0 6 7 10t13 4q8 0 17-3 2-5 2.5-10.5t1.5-11.5zm-293 275q0-5-0.5-9t-0.5-9l-5-3q-11-4-24-4-8 8-8 13.5t-2 15.5q11 11 24 11h7q2-4 4-8t5-7zm-149 107q-5-3-10.5-6.5t-11.5-3.5q-8 5-13 9t-5 13l-2 6q11 7 15.5 7t15.5 1l4-2q5-5 5-11.5t2-12.5zm62-116-11-14q-4-2-8-2t-7.5 1-7.5 2q-2 4-3 7.5t-6 5.5q2 9 6 13.5t11 10.5q5-2 10-2t10-1q2-5 2.5-10.5t3.5-10.5zm-105 17q-4-6-8-12t-12-6q-7 0-14.5 6t-7.5 13q0 6 5 13.5t12 7.5q5 0 8.5-2t8.5-3q4-4 4.5-8t3.5-9zm-44-96q0-9-8-14.5t-16-7.5q-7 6-17 9 0 4-1 6.5t-1 6.5q0 5 4 10t7 8q14 0 25-4 2-4 3-7t3-7zm-42-102q0-6-6-11.5t-12-5.5q-4 0-8 4-5 2-9 6t-4 9v7q3 3 5.5 4.5t3.5 6.5h9q5 0 9-1.5t8-3.5q4-10 4-15zm-29-78q0-3-2-9-3-3-6-3t-3-5h-11q-8 0-14.5 5t-6.5 13q0 12 12 22 2-1 5-2t5-1 3 0.5 3 0.5q5 0 8-2.5t6-4.5q0-4 0.5-7.5t0.5-6.5z"/><path transform="translate(75.719 14.891) scale(.015625 -.015625)" d="m561 656q-3-6-3-8t-1-8q-7-2-8.5-5.5t-10.5-3.5q-5 0-9 2.5t-9 3.5q-2 5-3.5 9.5t-1.5 9.5q0 3 0.5 5.5t1.5 5.5q6 2 12.5 3.5t11.5 6.5zm-94 69q0-4-0.5-7.5t-0.5-7.5q-5-3-11-6.5t-12-3.5q-8 0-11 4t-7 9q-5 8-2.5 9.5t0.5 10.5q4 3 8 5.5t9 2.5q8 0 15.5-4.5t11.5-11.5zm117-183q0-4-3.5-7t-4.5-8l-21-5q-5 5-7.5 10.5t-7.5 10.5q2 7 5.5 13t7.5 12q5 0 8.5-1t8.5-1q4-4 7.5-6.5t6.5-7.5zm-222 194q0-7-2.5-11t-7.5-9q-3 0-6.5-0.5t-7.5-0.5q-10 0-13.5 8t-8.5 14q8 8 9 17 4 0 7.5 0.5t7.5 0.5q6 0 10-3t10-4q2-8 2-12zm187-294q0-5-0.5-9.5t-0.5-9.5l-15-3q-7 0-12.5 0t-13.5 5q-2 7-0.5 8.5t-0.5 10.5q8 13 13 14.5t19 6.5l11-14zm-300 293q0-6-5-9 0-3 2-7-5-1-9.5-3.5t-9.5-2.5-8.5 1-8.5 2q-5 4-6 8.5t-5 8.5q7 7 8 15 6 5 19 5h6q2-2 4.5-5t4.5-3q4-2 5-4.5t3-5.5zm-116-3q-3-9-3-17-5-2-11-3.5t-12-1.5q-9 0-16 7 0 4-1.5 7t-1.5 8q3 5 4.5 10t5.5 10l3-4q6 2 8 2 4 0 8.5-2.5t8.5-4.5q0-5 1.5-6.5t5.5-4.5zm326-362q0-25-24-25-11 0-19 8 1 10 1.5 15.5t5.5 14.5q3 1 6 2t7 1q7 0 12.5-5.5t10.5-10.5zm-326 244q-6-6-13.5-10t-16.5-4q-7 7-13 16-3 9-3 11.5t0.5 3.5 2 1.5 1.5 3.5q5 2 9.5 4.5t9.5 2.5 11-3.5 10-7.5zm291-333q0-7-3-12t-4-11q-4 0-8 0.5t-9 0.5q-2 0-5.5-1.5t-5.5-2.5q-1 6-4 12t-3 13v12l22 9q5-2 9.5-4.5t9.5-4.5q0-3 0.5-6t0.5-5zm-86 75q1-7 1.5-8.5t0.5-9.5q0-9-7.5-13t-15.5-4q-6 0-12 3-2 5-4.5 8.5t-4.5 8.5q0 6 3 10.5t5 9.5q5 0 8.5 1t8.5 1q8 0 9-1.5t8-5.5zm124-194q-7 0-11.5 4t-9.5 9q1 7 2 14t6 13q5 3 10.5 3t11.5 1q2-2 5-4.5t5-5.5q7-8 1-21t-20-13zm87-69q0-8-6-12l-6-7q-8 1-15 1.5t-13 5.5q-2 5-3.5 9.5t-1.5 9.5 7.5 10.5 12.5 5.5 10-3.5 10-5.5q5-7 5-14zm-416 411q0-7-4-12.5t-8-11.5q-3 0-6-0.5t-6-0.5q-17 0-22 18 2 6 1 13 5 2 6.5 5t4.5 6q8 0 16-2.5t16-4.5q2-6 2-10zm475-489q0-6-4.5-19t-12.5-13q-5 0-9 1.5t-9 1.5q-3 4-6.5 6t-6.5 5q1 10 2.5 15.5t5 8.5 9 4.5 14.5 3.5q9-6 17-14zm-376 331q-2-8-3-12t-6-10q-6-3-13-3-8 0-14 7.5t-6 15.5q0 4 1.5 7.5t3.5 6.5q7 3 13 3 4 0 7-0.5t7-0.5zm-98 39q-2-7-6-15t-16-8q-6 0-10.5 1t-9.5 3q-2 5-2 8.5t-5 8.5q6 6 11.5 11.5t15.5 5.5h8q5-3 7-7.5t7-7.5zm-1-132q-2-4-11.5-11.5t-14.5-7.5q-2 3-10 7t-11 5q3 6 3 7t0 8v7q8 2 12 4.5t12 2.5q3 0 6-0.5t6-0.5q7-12 8-21zm0-120q0-5-3-9.5t-7-7.5q-8-3-16-3-11 0-12 4t-7 10v4q0 3 0.5 6t0.5 6q5 3 10 6.5t11 3.5q4 0 7.5-1t7.5-1q2-4 5-9t3-9zm0-128q0-4-2-10-5-2-7-5.5t-7-5.5q-6 2-12.5 3t-12.5 3q-2 5-3.5 9t-1.5 9q0 8 6 11 2 3 5 6t7 3q11 0 19.5-5.5t8.5-17.5z"/></svg>