<svg width="82.944" height="18.4" viewBox="0 0 82.944 18.4" xmlns="http://www.w3.org/2000/svg"><path transform="translate(0 14.4) scale(.016 -.016)" d="m48 291q0 98 44.5 187.5t116 143.5 147.5 54q43 0 74-10.5t59-28.5q3 6 10 10t16 4q13 0 22-9t9-22v-64q0-13-9.5-22.5t-22.5-9.5-22.5 9-9.5 22v8q-22 21-51 35.5t-75 14.5q-59 0-115-45t-91.5-119.5-35.5-157.5q0-71 31-124t82-81.5 110-28.5q115 0 187 94 6 7 11.5 9.5t13.5 2.5q13 0 22.5-8.5t9.5-23.5q0-12-6-19-42-57-104-87.5t-134-30.5q-79 0-145 37t-105 104.5-39 155.5z"/><path transform="translate(9.824 14.4) scale(.016 -.016)" d="m46 224q0 68 30.5 130t84.5 100.5 119 38.5q56 0 102.5-30.5t73-83 26.5-115.5q0-72-32-134t-85.5-99-115.5-37q-57 0-103.5 30.5t-73 83-26.5 116.5zm372 35q0 47-19 87.5t-51.5 65-72.5 24.5q-44 0-81.5-29.5t-60-78-22.5-102.5q0-52 19.5-91.5t52.5-61.5 70-22q43 0 81 29t61 77 23 102z"/><path transform="translate(18.288 14.4) scale(.016 -.016)" d="m78 24v438q0 12 9.5 21.5t22.5 9.5 22-9.5 9-21.5v-115q33 65 85.5 105.5t103.5 40.5q43 0 77.5-25.5t47.5-87.5q36 58 81 85.5t89 27.5q61 0 97.5-45t36.5-140v-284q0-12-9.5-21t-22.5-9-22 9-9 21v291q0 62-20 90.5t-59 28.5q-30 0-66.5-23t-62.5-65-26-96v-226q0-12-9-21t-22-9-22.5 9-9.5 21v291q0 63-18 91t-59 28q-34 0-70-28.5t-66-69.5q-27-38-36-71t-9-92v-149q0-12-9-21t-22-9-22.5 9-9.5 21z"/><path transform="translate(31.52 14.4) scale(.016 -.016)" d="m86 603 1 41q0 12 10 21t22 9 21-9.5 9-21.5l-1-41q0-13-9.5-21.5t-21.5-8.5q-13 0-22 9t-9 22zm-8-577 6 434q0 13 10 23t23 10 22.5-9.5 9.5-23.5l-6-434q0-13-9.5-22.5t-22.5-9.5-23 9.5-10 22.5z"/><path transform="translate(35.152 14.4) scale(.016 -.016)" d="m46 211q0 68 31.5 133.5t83.5 107 108 41.5q52 0 85.5-17t64.5-53q8-8 8-21t-8.5-22-21.5-9q-14 0-23 11-22 26-45 39.5t-58 13.5q-40 0-78-32t-62-83.5-24-106.5q0-50 23.5-86.5t60-55.5 73.5-19q86 0 134 69 13 18 28 18 13 0 22-9t9-21q0-10-10-23-26-38-75-65t-108-27q-58 0-108.5 28.5t-80 78.5-29.5 110z"/><path transform="translate(48.208 14.4) scale(.016 -.016)" d="m83 26 1 618q0 12 9 21.5t22 9.5q16 0 27-13l369-536v518q0 13 9.5 22.5t22.5 9.5 22.5-9.5 9.5-22.5v-618q0-13-9-22.5t-23-9.5q-6 0-14 4t-12 10l-369 534-1-516q0-13-9.5-22.5t-22.5-9.5-22.5 9.5-9.5 22.5z"/><path transform="translate(58.736 14.4) scale(.016 -.016)" d="m46 234q0 68 28.5 127.5t79.5 95.5 117 36q60 0 102.5-23t64-55 21.5-57q0-18-24-32l-310-177q25-48 68-72.5t101-24.5q32 0 67.5 16t56.5 38q7 10 20 10t21.5-8.5 8.5-21.5q0-10-8-20-27-31-73.5-51.5t-91.5-20.5q-73 0-130 32.5t-88 87.5-31 120zm226 200q-48 0-86-26.5t-59.5-71.5-22.5-99q0-20 2-32l291 161q-14 34-44 51t-81 17z"/><path transform="translate(66.752 14.4) scale(.016 -.016)" d="m63 268q0 115 12 189 3 20 10.5 28.5t21.5 8.5q12 0 20.5-8t8.5-22q0-15-3-39-9-72-9-181 0-105 21-151t70-46q45 0 90.5 23.5t64.5 45.5q12 14 12 45l4 305q0 12 9 20t21 8 21-8 9-20v-441q0-12-10-21.5t-23-9.5q-16 0-25.5 10t-9.5 25v38q-22-29-67.5-52.5t-96.5-23.5q-56 0-88.5 25t-47.5 85-15 167z"/><path transform="translate(74.928 14.4) scale(.016 -.016)" d="m46 234q0 68 28.5 127.5t79.5 95.5 117 36q60 0 102.5-23t64-55 21.5-57q0-18-24-32l-310-177q25-48 68-72.5t101-24.5q32 0 67.5 16t56.5 38q7 10 20 10t21.5-8.5 8.5-21.5q0-10-8-20-27-31-73.5-51.5t-91.5-20.5q-73 0-130 32.5t-88 87.5-31 120zm226 200q-48 0-86-26.5t-59.5-71.5-22.5-99q0-20 2-32l291 161q-14 34-44 51t-81 17z"/></svg>