<svg width="95.484" height="24.234" viewBox="0 0 95.484 24.234" xmlns="http://www.w3.org/2000/svg"><path transform="translate(0 16.453) scale(.015625 -.015625)" d="m537 118q8 8 20 8t19-7q9-9 9-21 0-11-8-19-1-1-15.5-14t-40-28-61.5-27.5-81-12.5q-53 0-113.5 20.5t-113 66.5-87 119.5-34.5 180.5q0 33 2 57.5t6.5 44 11 35.5 15.5 31q1 2 14.5 24.5t33.5 51.5 45.5 56.5 50.5 39.5q29 13 58 19t55 6q28 0 49-6 10-2 26-7.5t32.5-12.5 30.5-15 20-15q8-11 10.5-26.5t2.5-29.5q0-11-8-19.5t-20-8.5q-11 0-19.5 8.5t-8.5 19.5q0 5 0 11t-1 10q-10 5-33.5 15.5t-44.5 15.5q-8 2-16.5 3t-18.5 1q-21 0-44.5-4.5t-44.5-15.5q-14-6-30.5-23t-33-38.5-31.5-44.5-25-42q-7-13-12.5-26t-9-29-5-37-1.5-49q0-68 16-118.5t41.5-87.5 58-61 65-38.5 62-20 49.5-5.5q36 0 65 10t49.5 22 32.5 23z"/><path transform="translate(9.2188 16.453) scale(.015625 -.015625)" d="m259 35q19 0 48.5 18.5t57.5 52 48 80.5 20 105q0 56-13.5 98.5t-31 72-35 44.5-25.5 17q-17 0-30.5-2.5t-18.5-3.5q-12 0-22 10-25-10-52-45t-50-81.5-38-99-15-96.5q0-46 16-78.5t40-52.5 51-29.5 50-9.5zm70 544q21 0 48.5-20.5t52-58 42-90.5 17.5-119q0-67-23-124t-57.5-99-75-65.5-74.5-23.5q-39 0-77 15t-68 43.5-49 70.5-19 97q0 35 9 77t24.5 84.5 37 82 46.5 70.5 53 49.5 57 18.5q11 0 19.5-2.5t15.5-6.5q5 0 10 0.5t11 0.5z"/><path transform="translate(17.344 16.453) scale(.015625 -.015625)" d="m916 131q0-12-1-24t-3-23-3-21-1-20q0-18 6-33 1-3 1.5-5.5t0.5-5.5q0-18-18-26-8-2-10-2-19 0-27 18-5 14-7 27t-2 27q0 13 1 25t3 23 3 20.5 1 19.5q0 14-2 26t-5 25q-2 15-4.5 31t-2.5 35q0 14 0.5 25t1.5 22q1 18 2 47t1 86q0 46-22 68-18 18-44 21t-41 3q-14 0-31-6t-34.5-15-32.5-18-25-15q-5-3-9-5t-7-4q-5-3-16-17.5t-20-31.5q-6-9-15-12 0-26 2.5-49t4.5-43 4-38.5 2-35.5q0-21 1-36.5t2-28.5q3-18 3-32t3.5-29 8-28.5 9.5-24.5 8-17q4-5 4-13t-3.5-14.5-11.5-10.5q-6-3-13-3-17 0-25 14 0 1-6 12.5t-12.5 29.5-12 40-5.5 44q0 5-0.5 12t-1.5 15q-2 13-3 30t-1 40q0 14-2 31t-4 36q-2 26-5 54t-3 61q0 20-8.5 43.5t-24.5 43-39.5 32.5-54.5 13q-39 0-69.5-15t-53-37-37.5-48-24.5-48.5-13.5-37.5l-4-16q-1-8-8-15v-17q0-25 7.5-56t15.5-66q12-45 22.5-94t10.5-100q0-11-8.5-19.5t-19.5-8.5q-12 0-20 8.5t-8 19.5q0 46-10 92t-21 88q-10 38-17.5 72t-7.5 64q0 29-4 72.5t-9.5 85-9.5 72-4 32.5q0 11 7 18.5t21 9.5q10 0 17.5-6.5t9.5-17.5q0-2 2-12.5t4.5-27.5 5-39.5 5.5-46.5q15 28 36 55t48.5 48 61.5 34 75 13q32 0 60-10.5t50-28 38-41 25-49.5q8 11 17 20.5t18 14.5q5 2 13 8 13 8 31.5 18.5t39 20.5 42.5 16.5 42 6.5q9 0 23.5-0.5t31.5-4.5 35-12 33-23q38-40 38-108 0-59-1.5-88.5t-2.5-48.5q-1-11-1-20.5t0-22.5q0-15 2-28t4-27q3-14 5.5-29.5t2.5-32.5z"/><path transform="translate(32.688 16.453) scale(.015625 -.015625)" d="m86 598q-17 0-28.5 11.5t-11.5 28.5 11.5 28 28.5 11q16 0 27.5-11t11.5-28-11.5-28.5-27.5-11.5zm13-42q11 0 18.5-6.5t9.5-16.5q0-3 4.5-31t10.5-68 11.5-85.5 7.5-81.5q2-35 7-82t11-89.5 10.5-73 4.5-32.5q0-11-7-18.5t-21-9.5q-11 0-18.5 6.5t-9.5 17.5q0 3-4.5 33t-10.5 72.5-11 89.5-7 83q-2 35-7.5 80t-11 85-10 68.5-4.5 30.5q0 10 6 18t17 10z"/><path transform="translate(36.516 16.453) scale(.015625 -.015625)" d="m552 120q0-14 3.5-29t8.5-28.5 10-24.5 8-17 3-14q0-16-14-24-4-2-7-3t-7-1q-16 0-24 15-1 1-7 12.5t-12.5 29.5-12 40-5.5 44q0 5-0.5 11.5t-1.5 14.5q-1 14-2 30.5t-1 39.5q0 15-2 31.5t-4 36.5q-3 25-5.5 53.5t-2.5 60.5q0 20-8.5 43.5t-24.5 43.5-39.5 33-54.5 13q-39 0-69.5-14.5t-52.5-36.5-37.5-47.5-24.5-48-13.5-38.5-4.5-18q-3-9-8-14v-18q0-24 7-55t16-66q11-45 21.5-94t10.5-100q0-12-8-20t-20-8q-11 0-19.5 8t-8.5 20q0 46-9.5 92t-20.5 88q-10 37-17.5 71.5t-7.5 63.5-4 73-9.5 85.5-10 72-4.5 32.5q0 10 7 18t21 10q11 0 18.5-6.5t9.5-17.5q0-2 2-12.5t4-28 5-39.5 6-46q15 28 35.5 55t48 48 61.5 34 76 13q41 0 74.5-16.5t57.5-43.5 37.5-61 13.5-68q0-30 2.5-57t5.5-50q2-20 4-39t2-36q0-40 3-64 1-9 1.5-16.5t0.5-15.5z"/><path transform="translate(46.062 16.453) scale(.015625 -.015625)" d="m418 149q3 9 13 14-7 69-11.5 128t-4.5 96v12q-10 5-14 13-21 39-41.5 56t-26.5 18q-17 0-30.5-2t-18.5-3q-13 0-21 10-25-10-52.5-45t-50.5-81.5-38-99-15-96.5q0-47 16-79t40-52.5 51.5-29.5 50.5-9q15 0 35.5 10.5t42 30 41.5 47 34 62.5zm53 238q0-23 2-57.5t5.5-75 7.5-86 9-91.5q4-45 8.5-87.5t7.5-80 5-68.5 2-52q0-36-14-71.5t-41-63.5-66.5-45.5-91.5-17.5q-148 0-212 162-2 4-2 11 0 18 17 26 3 1 5.5 1.5t5.5 0.5q18 0 26-19 5-13 15.5-34.5t28.5-41.5 46.5-35 69.5-15q43 0 73 14t48.5 35.5 27 46.5 8.5 46q0 20-2 50.5t-5 67.5-7 78.5-8 83.5q-19-30-41.5-53t-46-39.5-46-25-41.5-8.5q-39 0-77.5 14.5t-68.5 43-49 71-19 97.5q0 35 9 77t24.5 84 37 82 46.5 70.5 53 49 57 18.5q21 0 35-9 5 1 10 1t11 0q18 0 40-14t42-39q2 12 6.5 22t20.5 11l26 2 4-26q0-2 0-3.5t-1-8.5q0-6-0.5-27t-0.5-72z"/><path transform="translate(59.938 16.453) scale(.015625 -.015625)" d="m369 497q48-13 86-42.5t64-67 40-78 14-75.5l-1-15q-1-27-4-57.5t-18-60-47.5-55-90.5-41.5q-29-9-52.5-12.5t-45.5-3.5q-32 0-63.5 7t-76.5 19q-41 10-70 32.5t-48 45-28 40-10 19.5q-3 4-3 11 0 17 17 26 8 2 11 2 8 0 15.5-4.5t10.5-12.5l7-13q7-14 22-31.5t38-35 55-26.5q42-11 69.5-17t53.5-6q34 0 83 13 43 13 67 30t35 38 13.5 45 3.5 50l1 18q0 21-10.5 52t-30.5 61-50.5 55-70.5 35q-27 8-57.5 11t-60.5 6q-35 3-68.5 7t-60.5 14.5-44.5 29-20.5 50.5q0 4-0.5 7t-0.5 6q0 39 15.5 66.5t38 46.5 47 31 42.5 20q23 11 55.5 15.5t70.5 4.5q34 0 68.5-4t67.5-12q22-5 21-33-2-10-11-16t-23-5q-29 8-61.5 11t-62.5 3q-32 0-58.5-3.5t-44.5-11.5q-21-9-41-19.5t-35-24.5-23.5-33-8.5-45q2-26 39.5-35t102.5-14q32-3 64.5-6.5t63.5-11.5z"/><path transform="translate(69.688 16.453) scale(.015625 -.015625)" d="m259 35q19 0 48.5 18.5t57.5 52 48 80.5 20 105q0 56-13.5 98.5t-31 72-35 44.5-25.5 17q-17 0-30.5-2.5t-18.5-3.5q-12 0-22 10-25-10-52-45t-50-81.5-38-99-15-96.5q0-46 16-78.5t40-52.5 51-29.5 50-9.5zm70 544q21 0 48.5-20.5t52-58 42-90.5 17.5-119q0-67-23-124t-57.5-99-75-65.5-74.5-23.5q-39 0-77 15t-68 43.5-49 70.5-19 97q0 35 9 77t24.5 84.5 37 82 46.5 70.5 53 49.5 57 18.5q11 0 19.5-2.5t15.5-6.5q5 0 10 0.5t11 0.5z"/><path transform="translate(77.812 16.453) scale(.015625 -.015625)" d="m259 35q19 0 48.5 18.5t57.5 52 48 80.5 20 105q0 56-13.5 98.5t-31 72-35 44.5-25.5 17q-17 0-30.5-2.5t-18.5-3.5q-12 0-22 10-25-10-52-45t-50-81.5-38-99-15-96.5q0-46 16-78.5t40-52.5 51-29.5 50-9.5zm70 544q21 0 48.5-20.5t52-58 42-90.5 17.5-119q0-67-23-124t-57.5-99-75-65.5-74.5-23.5q-39 0-77 15t-68 43.5-49 70.5-19 97q0 35 9 77t24.5 84.5 37 82 46.5 70.5 53 49.5 57 18.5q11 0 19.5-2.5t15.5-6.5q5 0 10 0.5t11 0.5z"/><path transform="translate(85.938 16.453) scale(.015625 -.015625)" d="m552 120q0-14 3.5-29t8.5-28.5 10-24.5 8-17 3-14q0-16-14-24-4-2-7-3t-7-1q-16 0-24 15-1 1-7 12.5t-12.5 29.5-12 40-5.5 44q0 5-0.5 11.5t-1.5 14.5q-1 14-2 30.5t-1 39.5q0 15-2 31.5t-4 36.5q-3 25-5.5 53.5t-2.5 60.5q0 20-8.5 43.5t-24.5 43.5-39.5 33-54.5 13q-39 0-69.5-14.5t-52.5-36.5-37.5-47.5-24.5-48-13.5-38.5-4.5-18q-3-9-8-14v-18q0-24 7-55t16-66q11-45 21.5-94t10.5-100q0-12-8-20t-20-8q-11 0-19.5 8t-8.5 20q0 46-9.5 92t-20.5 88q-10 37-17.5 71.5t-7.5 63.5-4 73-9.5 85.5-10 72-4.5 32.5q0 10 7 18t21 10q11 0 18.5-6.5t9.5-17.5q0-2 2-12.5t4-28 5-39.5 6-46q15 28 35.5 55t48 48 61.5 34 76 13q41 0 74.5-16.5t57.5-43.5 37.5-61 13.5-68q0-30 2.5-57t5.5-50q2-20 4-39t2-36q0-40 3-64 1-9 1.5-16.5t0.5-15.5z"/></svg>