<svg width="46.406" height="28.906" viewBox="0 0 46.406 28.906" xmlns="http://www.w3.org/2000/svg"><path transform="translate(0 19.531) scale(.0078125 -.0078125)" d="m1020 780v183q0 106-200 168 20 101 95.5 235t129.5 134q44 0 115-43l70-43q31-19 73-19 22 0 47 5-10-70-40.5-114.5t-81.5-49.5q-5-1-10-1-50 0-135 53-26 15-48 15-63 0-109-115 274-88 274-168v-820q-100-200-500-200t-500 200v763q0 106-200 168 20 101 95.5 235t129.5 134q44 0 115-43l70-43q31-19 73-19 22 0 47 5-10-70-40.5-114.5t-81.5-49.5q-5-1-10-1-50 0-135 53-26 15-48 15-63 0-109-115 274-88 274-168v-240zm0-120h-640v-420q60-120 320-120t320 120z"/><path transform="translate(10.938 19.531) scale(.0078125 -.0078125)" d="m380 1050v-1050h-180v1050q0 80-115.5 175t-184.5 95q-63 0-201-117l-66 92q161 205 267 205 123 0 301.5-128.5t178.5-321.5z"/><path transform="translate(15.469 19.531) scale(.0078125 -.0078125)" d="m380 150q100 0 100 150 0 100-100 100zm-280 1056q0 69 234 294 210 0 393-174 189 174 236 174 86 0 185-91 62-58 106-58 26 0 46 20 0-83-33-140-34-57-91-57t-249 148h-1q-70 0-265-177-110 104-183.5 139t-143.5 40l-100-94q18-107 129-162l-78-39q-82 11-133.5 59.5t-51.5 117.5zm280-706q200 0 200-200 0-100-52.5-200t-177.5-100q-150 0-150 100v800q100 200 500 200t500-200v-900h-180v860q-60 120-320 120t-320-120z"/><path transform="translate(26.406 19.531) scale(.0078125 -.0078125)" d="m-1150 2e3q0 250 300 250 260 0 515-225 85-75 85-125t-100-50h-600q-200 0-200 150zm150 0q0-50 50-50h520q-130 97-219.5 123.5t-200.5 26.5q-150 0-150-100z"/><path transform="translate(26.406 19.531) scale(.0078125 -.0078125)" d="m200 900q100 200 500 200t500-200v-900h-180v860q-60 120-320 120t-320-120v-860h-180zm-100 306q0 69 234 294 210 0 393-174 189 174 236 174 86 0 185-91 62-58 106-58 26 0 46 20 0-83-33-140-34-57-91-57t-249 148h-1q-70 0-265-177-110 104-183.5 139t-143.5 40l-100-94q18-107 129-162l-78-39q-82 11-133.5 59.5t-51.5 117.5z"/><path transform="translate(37.344 19.531) scale(.0078125 -.0078125)" d="m380 1050v-1050h-180v1050q0 80-115.5 175t-184.5 95q-63 0-201-117l-66 92q161 205 267 205 123 0 301.5-128.5t178.5-321.5z"/><path transform="translate(41.875 19.531) scale(.0078125 -.0078125)" d="m200 400q-80 0-80-100 0-150 80-150zm180-300q0-100-130-100-125 0-177.5 100t-52.5 200q0 200 180 200v463q0 106-200 168 20 101 95.5 235t129.5 134q44 0 115-43l70-43q31-19 73-19 22 0 47 5-10-70-40.5-114.5t-81.5-49.5q-5-1-10-1-50 0-135 53-26 15-48 15-63 0-109-115 274-88 274-168z"/></svg>