<svg width="69.576" height="17.527" viewBox="0 0 69.576 17.527" xmlns="http://www.w3.org/2000/svg"><path transform="translate(0 13.255) scale(.0068359 -.0068359)" d="m460-11q-156 0-239 101t-83 275q0 309 74 718 39 220 96 309 60 93 144 130 105 46 224.5 46t160-6.5 45.5-7.5q13-4 13-25l-23-186q-4-26-20-26t-74 8.5-94 8.5q-96 0-146-48.5t-74.5-186-47.5-369-23-354.5q0-145 128-145 37 0 129 12.5t105 12.5q21 0 21-25l-23-186q-2-12-7-17t-98-22-188-17z"/><path transform="translate(5.9746 13.255) scale(.0068359 -.0068359)" d="m131 406q0 95 21 248t39 222.5 51 136 78 109.5q99 96 268 96 240 0 311-176 38-94 38-227.5t-20.5-276.5-38.5-211.5-50.5-134-77.5-108.5q-99-95-276.5-95t-260 106.5-82.5 310.5zm519 21q11 53 28.5 198.5t17.5 215.5q0 170-123 170-58 0-95.5-55t-60.5-183q-46-260-46-422t122-162q58 0 96.5 55.5t60.5 182.5z"/><path transform="translate(12.968 13.255) scale(.0068359 -.0068359)" d="m486 1183-11-92q144 127 276 127 168 0 212-184 12-50 12-94.5t-3-71.5l-96-838q-4-25-25-27l-202-7q-22 2-22 19l91 792q3 26 3 47 0 82-38.5 111.5t-97.5 29.5-123-25l-107-940q-4-25-25-27l-202-7q-22 2-22 19l132 1163q4 22 25 24l196 7q27-1 27-26z"/><path transform="translate(20.262 13.255) scale(.0068359 -.0068359)" d="m264 1205q23 220 30 227.5t21 8.5l191 7q27-2 27-25-19-111-32-213l233 8q24-1 24-26l-28-159q-4-24-25-25l-229-9q-68-612-68-675 0-117 100-117 51 0 99 16t60 16q21 0 21-26l-21-175q-2-15-7.5-22t-49-17-148.5-10q-154 0-228 71.5t-74 213.5 79 722l-98-4q-25 1-25 25l27 161q3 23 26 24z"/><path transform="translate(25.354 13.255) scale(.0068359 -.0068359)" d="m779 954-107 11q-130 0-218-52l-99-882q-4-25-25-27l-202-8q-22 2-22 19l132 1163q4 22 25 24l195 7q27-1 27-26l-12-103q64 65 124 101.5t120.5 36.5 92.5-5q21-4 21-28 0-69-23-205-5-26-29-26z"/><path transform="translate(30.782 13.255) scale(.0068359 -.0068359)" d="m993 1183-130-1153q-3-26-26-27l-202-7q-21 2-21 19l19 136q-46-78-100.5-120t-122.5-42-116 23.5-78.5 62-49.5 92.5q-35 96-35 262.5t22.5 282.5 39.5 176.5 45.5 124.5 64.5 107q82 98 207 98 93 0 142-44.5t82-131.5l12 136q2 22 25 24l196 7q26-2 26-26zm-610-725q0-239 128-239 56 0 91 51.5t60.5 206.5 25.5 226-1 90-4 50.5-11 53-21 43.5q-26 43-84 43t-92-51.5-53-137.5q-39-184-39-336z"/><path transform="translate(37.987 13.255) scale(.0068359 -.0068359)" d="m374 1318q-62 0-99 39t-37 100.5 49.5 110 111.5 48.5 100.5-39 38.5-100.5-51-110-113-48.5zm111-135-130-1153q-2-14-7-20t-19-7l-201-7q-22 2-22 19l132 1163q4 22 25 24l195 7q27-2 27-26z"/><path transform="translate(41.72 13.255) scale(.0068359 -.0068359)" d="m539 1665-184-1634q-2-14-7-20t-19-7l-201-8q-22 2-22 19l185 1643q2 14 7 20t19 7l196 7q26-3 26-27z"/><path transform="translate(48.316 13.255) scale(.0068359 -.0068359)" d="m138 335q0 382 77 755 61 293 169 392 102 92 269.5 92t254-101 86.5-248.5-19-357-47-350-47.5-205-53.5-130.5-79-106q-101-91-269.5-91t-254.5 100-86 250zm366-114q127 0 163 234 24 155 48 386t24 325-30.5 133-86.5 39q-116 0-157-235-24-138-48-374.5t-24-333.5 31.5-135.5 79.5-38.5z"/><path transform="translate(55.474 13.255) scale(.0068359 -.0068359)" d="m486 1183-11-92q144 127 276 127 168 0 212-184 12-50 12-94.5t-3-71.5l-96-838q-4-25-25-27l-202-7q-22 2-22 19l91 792q3 26 3 47 0 82-38.5 111.5t-97.5 29.5-123-25l-107-940q-4-25-25-27l-202-7q-22 2-22 19l132 1163q4 22 25 24l196 7q27-1 27-26z"/><path transform="translate(62.768 13.255) scale(.0068359 -.0068359)" d="m153 718q73 500 454 500 147 0 225-101t78-262-20-313q-3-27-31-28l-494-17q-1-15-1-40 0-113 39.5-179t119.5-66 148.5 23.5 80.5 23.5 21-8 9-22l-20-176q-1-15-5.5-19.5t-17.5-9.5q-121-35-233-35t-174 27-99.5 69.5-61 102-32 118-8.5 160.5 22 252zm236 30-9-64 261 13q17 1 22 6 15 15 15 82.5t-4.5 95-15.5 56.5q-23 64-78.5 64t-87.5-19q-71-44-103-234z"/></svg>