<svg width="87.936" height="22.16" viewBox="0 0 87.936 22.16" xmlns="http://www.w3.org/2000/svg"><path transform="translate(0 16.624) scale(.016 -.016)" d="M0 77V539H77V616H154V693H539V616H616V539H539V462H385V616H308V539H231V154H308V77H385V154H616V77H539V0H462V-77H231V0H77V77Z"/><path transform="translate(9.856 16.624) scale(.016 -.016)" d="M308 77V385H231V77ZM0 77V462H77V539H462V462H539V77H462V0H308V-77H231V0H77V77Z"/><path transform="translate(18.48 16.624) scale(.016 -.016)" d="M0 0V77H77V385H0V539H462V385H385V308H231V77H385V0Z"/><path transform="translate(25.872 16.624) scale(.016 -.016)" d="M308 308V385H231V308ZM231 231V154H308V231ZM0 0V231H77V385H0V462H77V539H385V462H462V77H539V0H231V-77H154V0Z"/><path transform="translate(34.496 16.624) scale(.016 -.016)" d="M0 77V154H77V616H-77V693H0V770H231V77H308V0H-77V77Z"/><path transform="translate(43.584 16.624) scale(.016 -.016)" d="M0 0V77H77V616H0V693H462V616H539V539H616V462H539V308H462V231H308V77H385V0ZM385 385V539H308V385Z"/><path transform="translate(53.44 16.624) scale(.016 -.016)" d="M0 0V77H77V385H0V539H77V770H231V77H308V0Z"/><path transform="translate(58.368 16.624) scale(.016 -.016)" d="M-77 0V77H77V231H154V308H77V385H0V539H539V385H462V308H385V231H462V77H616V0Z"/><path transform="translate(66.992 16.624) scale(.016 -.016)" d="M0 77V462H77V539H385V462H462V308H539V231H231V77H308V154H462V0H308V-77H231V0H77V77ZM308 308V385H231V308Z"/><path transform="translate(75.616 16.624) scale(.016 -.016)" d="M0 77V154H77V616H-77V693H0V770H231V77H308V0H-77V77Z"/><path transform="translate(80.544 16.624) scale(.016 -.016)" d="M0 0V154H154V77H231V154H154V231H0V462H77V539H385V231H462V77H385V0H308V-77H77V0Z"/></svg>