<svg width="40.48" height="19.2" viewBox="0 0 40.48 19.2" xmlns="http://www.w3.org/2000/svg"><path transform="translate(0 12.16) scale(.016 -.016)" d="m220-42q-73 0-118 30-53 35-53 104 0 55 25 109t65.5 103 88.5 89.5 93 68.5q136 83 266 83 113 0 113-78 0-68-75-125-72-55-141-55-73 0-73 56 0 40 18 40 7 0 7-9 0-1 0-3.5t-1-5.5-1-5 0-4q0-39 51-39 53 0 120 51t67 101q0 49-83 49-8 0-16.5-0.5t-16.5-1.5q-87-9-196-72-44-25-89.5-60.5t-83.5-78.5-61.5-92-23.5-102q0-28 9.5-53t28.5-40q32-26 89-26 181 0 352 144 4 4 8 4 6 0 6.5 0t0.5-7q0-5-4-9-39-36-82-63.5t-91-50.5q-108-52-199-52z"/><path transform="translate(9.088 12.16) scale(.016 -.016)" d="m59-12q-35 0-35 41 0 57 50 134-1 5-1.5 11t-0.5 11q0 36 24 70t59 34q30 0 40.5-21t10.5-47q0-22-5-42-5-21-15-47t-25-55q15-9 34-9 17 0 32 4.5t28 17.5 20.5 23 6.5 9q2 2 4 2 4 0 6.5-5t-1.5-10q-16-23-41.5-40.5t-55.5-17.5q-23 0-40 10-46-73-95-73zm89 98q13 32 20 55t7 43v8q0 27-9 50.5t-26 23.5q-23 0-36-28-9-19-9-42v-6q16 19 32 19 15 0 22-10 3-4 3-7 0-6-12-6-18 0-38-38 14-39 46-62zm-73-74q13 0 37 24 10 10 17 19t11 17q-34 23-50 51-30-63-30-91 0-20 15-20z"/><path transform="translate(12.752 12.16) scale(.016 -.016)" d="m203-16q-34 0-47.5 18t-13.5 46q0 23 7.5 48.5t18.5 47.5 19 35q-3-1-6-1.5t-7-0.5q-14 0-31 10-18 12-18 25-6-14-16.5-32t-24.5-39q-37-58-49-58-4 0-4 4t6 12q19 26 38.5 60t39.5 76q-1 5-1.5 10t-0.5 12q0 23 9 53 11 38 27 38 10 0 19-18 3-7 5-13.5t2-13.5q0-24-41-73 9-31 35-31 19 0 35 19 17 20 24 20 9 0 16-7t7-18q0 1-12.5-18t-28.5-53-22.5-58-6.5-43q0-35 33-35 32 0 81 49 16 17 37 43 26 32 26 32 4 0 4-6 0-8-6-17-14-22-30.5-43.5t-30.5-34.5q-46-45-92-45z"/><path transform="translate(17.472 12.16) scale(.016 -.016)" d="m139 255q-24 0-24 24 0 12 9 21 10 10 23 10 24 0 24-24 0-12-9-21-10-10-23-10zm-58-272q-55 0-55 59 0 28 20 82 9 25 18.5 42.5t19.5 32.5q6 9 14 9t16-8q5-5 5-13 0-7-4-14-22-34-36-68.5t-14-61.5q0-36 26-36 14 0 32 7.5t36 23.5q12 11 25.5 25t27.5 33q26 32 26 32 5 0 5-8t-7-16q-91-121-155-121z"/><path transform="translate(20.336 12.16) scale(.016 -.016)" d="m196-6q-57 0-57 72 0 32 10.5 62t24.5 55q-35-31-73.5-76.5t-75.5-101.5q-6-9-9-9-9 0-9 18 0 4 2 8 11 27 22 62.5t22 83.5q2 10 4 20t6 26q2 6 14 14 10 7 20 7 7 0 7-6 0-5-12-43t-35-109q6 8 25 29.5t50 55.5l62 68q7 7 16 7 23 0 23-23 0-5-4-12-56-92-56-146 0-38 36-38 26 0 60 29 14 11 24.5 24.5t22.5 29.5q21 29 24 29t3-6-6-17q-68-113-141-113z"/><path transform="translate(24.784 12.16) scale(.016 -.016)" d="m108-5q-31 0-44 21t-13 52q0 38 13 79.5t28 68.5h-6q-35 0-46.5 5.5t-11.5 18.5q0 7 11 7l64-4q25 50 50.5 93t42.5 60q14 14 39 14 22 0 22-9 0-2-1-3l-43-51q-15-18-33-46t-36-60q11-1 20.5-1t16.5 0q4 0 9 0.5t12 0.5h21q12 0 12-6 0-15-103-18-11-21-22-48.5t-17.5-54.5-6.5-49q0-46 39-46 32 0 75 39 17 16 29.5 32.5t24.5 33.5q6 9 11 9t5-6q0-4-1.5-7.5t-2.5-5.5q-13-17-28.5-37t-36.5-39q-49-43-93-43z"/><path transform="translate(27.984 12.16) scale(.016 -.016)" d="m229-6q-54 0-54 65 0 22 8.5 52.5t21.5 56.5q-14-13-35-34t-41-46q-39-48-60-83-11-8-26-8-27 0-27 13 0 11 11 41t32 78q32 73 67.5 140.5t75.5 129.5q121 193 199 193 43 0 43-49 0-64-104-179-22-24-59.5-61.5t-93.5-88.5q-13-12-37.5-33t-49.5-46q-3-4-8-16t-13-31q-16-39-16-49 1-1 1-3 11 14 32.5 37.5t46.5 51.5q23 25 44 47t33 30q9 6 16 6 20 0 20-21l-24-52q-24-52-24-82 0-35 34-35 28 0 60 29 23 20 47 54l22 31q2 3 5 3t5.5-3 0.5-7q-2-6-9-16-34-50-70-82.5t-74-32.5zm-117 176q35 26 81.5 69t98.5 104q117 135 117 192 0 33-22 33-54 0-153-166-34-57-66.5-117t-55.5-115z"/><path transform="translate(32.96 12.16) scale(.016 -.016)" d="m139 255q-24 0-24 24 0 12 9 21 10 10 23 10 24 0 24-24 0-12-9-21-10-10-23-10zm-58-272q-55 0-55 59 0 28 20 82 9 25 18.5 42.5t19.5 32.5q6 9 14 9t16-8q5-5 5-13 0-7-4-14-22-34-36-68.5t-14-61.5q0-36 26-36 14 0 32 7.5t36 23.5q12 11 25.5 25t27.5 33q26 32 26 32 5 0 5-8t-7-16q-91-121-155-121z"/><path transform="translate(35.824 12.16) scale(.016 -.016)" d="m49-3q-31 0-31 34 0 51 50 125 49 73 97 90 9 3 17 5t16 2q36 0 52-25 3-4 3-7 0-2-7-3-6-1-10-7-24-39-24-117 0-72 31-72 21 0 61 44 6 6 17 21t22 30.5 15 20.5q3 3 5 3 4 0 4-7 0-5-6-14-22-35-50-68t-48-43q-18-9-36-9-61 0-61 86 0 7 0.5 14.5t1.5 15.5q-68-119-119-119zm17 30q11 0 26 12.5t31 33.5q24 32 45 68t37 78q-3 1-9 1-41 0-83-51-61-73-61-121 0-21 14-21z"/></svg>