<svg width="105.01" height="16.954" viewBox="0 0 105.01 16.954" xmlns="http://www.w3.org/2000/svg"><path transform="translate(0 12.936) scale(.014 -.014)" d="m42 318q0 93 48 165.5t126.5 112.5 168.5 40q49 0 98-9.5t79-25.5q8-5 10-9t3-15l11-111q0-4-4.5-4.5t-6.5 2.5q-24 77-82.5 113.5t-143.5 36.5q-72 0-124.5-33t-80.5-93.5-28-141.5q0-94 36-173t97.5-125 136.5-46q63 0 115 39.5t83 118.5q1 4 6 3t5-4l-10-111q-2-13-4-16t-11-7q-90-37-188-37-117 0-193.5 48.5t-111.5 123.5-35 158z"/><path transform="translate(8.862 12.936) scale(.014 -.014)" d="m31 180q0 62 25 112t69.5 78.5 101.5 28.5q76 0 123.5-50.5t47.5-139.5q0-68-27-119t-72-77.5-97-26.5-90.5 25.5-59.5 69.5-21 99zm314-17q0 54-18.5 103t-52 79-75.5 30q-49 0-82-40t-33-110q0-53 19-102.5t53-80.5 76-31q49 0 81 41t32 111z"/><path transform="translate(14.84 12.936) scale(.014 -.014)" d="m338 347q0-14-10-23.5t-23-9.5q-11 0-18 4t-15 11q-5 5-10.5 8.5t-12.5 3.5q-23 0-45-57t-36.5-136.5-15.5-140.5q0-7-8.5-11t-23.5-4-20 1.5-6 4.5q0 4 1 22.5t1 53.5l2 185q0 97-38 97-30 0-64-36l-2-1q-3 0-5.5 3t-1.5 5q25 32 54.5 50t55.5 18q28 0 42.5-28t13.5-106v-116q15 105 46 178t73 73q23 0 44.5-15t21.5-34z"/><path transform="translate(19.908 12.936) scale(.014 -.014)" d="m736 78q4 0 7.5-3.5t1.5-5.5q-32-41-55.5-59.5t-48.5-18.5q-56 0-56 79l1 178q0 112-56 112-36 0-66.5-42.5t-48.5-122.5-18-188q0-7-8.5-11t-23.5-4-20 1.5-6 4.5q0 4 1 22.5t1 53.5l1 174q-1 112-55 112-35 0-65-42t-48.5-120.5-18.5-182.5v-8q0-7-8.5-11t-24.5-4q-14 0-19 1.5t-7 4.5l3 71 2 228q0 30-8 44.5t-22 14.5q-22 0-67-48-2-2-4-2-3 0-5.5 3.5t-1.5 6.5q30 40 56 59.5t54 19.5 40.5-19 12.5-58v-133q18 101 59.5 157.5t100.5 56.5q42 0 62.5-31.5t19.5-100.5v-84q18 103 59.5 159.5t100.5 56.5q43 0 63-32t21-100l-1-178q0-58 28-58 25 0 64 46 1 1 3 1z"/><path transform="translate(30.17 12.936) scale(.014 -.014)" d="m31 180q0 62 25 112t69.5 78.5 101.5 28.5q76 0 123.5-50.5t47.5-139.5q0-68-27-119t-72-77.5-97-26.5-90.5 25.5-59.5 69.5-21 99zm314-17q0 54-18.5 103t-52 79-75.5 30q-49 0-82-40t-33-110q0-53 19-102.5t53-80.5 76-31q49 0 81 41t32 111z"/><path transform="translate(36.148 12.936) scale(.014 -.014)" d="m338 347q0-14-10-23.5t-23-9.5q-11 0-18 4t-15 11q-5 5-10.5 8.5t-12.5 3.5q-23 0-45-57t-36.5-136.5-15.5-140.5q0-7-8.5-11t-23.5-4-20 1.5-6 4.5q0 4 1 22.5t1 53.5l2 185q0 97-38 97-30 0-64-36l-2-1q-3 0-5.5 3t-1.5 5q25 32 54.5 50t55.5 18q28 0 42.5-28t13.5-106v-116q15 105 46 178t73 73q23 0 44.5-15t21.5-34z"/><path transform="translate(41.216 12.936) scale(.014 -.014)" d="m470 78q3 0 6-3.5t2-5.5q-29-40-53.5-59t-49.5-19q-56 0-56 79l2 124q-33-93-86.5-150t-113.5-57q-38 0-61.5 26.5t-23.5 84.5q0 69 33.5 139.5t87.5 116 110 45.5q21 0 41.5-7t36.5-21q16 16 19 35 1 2 7.5 2t5.5-2l-2-317q-1-58 28-58 25 0 64 46 1 1 3 1zm-153 204q0 37-21.5 59.5t-56.5 22.5q-40 0-74-29t-54-80-20-114q0-54 15.5-79.5t46.5-25.5q41 0 79 39.5t61.5 97.5 23.5 109z"/><path transform="translate(47.74 12.936) scale(.014 -.014)" d="m504 78q4 0 7.5-3.5t1.5-5.5q-31-40-54.5-59t-49.5-19q-57 0-55 79l1 178q0 112-59 112-38 0-69.5-41t-50.5-121-20-191q0-7-8.5-11t-24.5-4q-15 0-20 1.5t-7 4.5q0 4 1.5 27.5t1.5 48.5l2 223q0 30-8 44.5t-22 14.5q-22 0-67-48-2-2-3-2-4 0-7 3.5t-1 6.5q30 40 56 59.5t54 19.5 40.5-19 12.5-58v-142q19 105 62.5 164t105.5 59q44 0 66-31.5t21-100.5l-1-178q0-30 6.5-44t21.5-14q23 0 64 46z"/><path transform="translate(54.754 12.936) scale(.014 -.014)" d="m303 71q3 0 6-3.5t1-5.5q-42-39-75.5-56.5t-67.5-17.5q-38 0-63 20t-24 65l1 233q-1 26-4 37t-12.5 14.5-32.5 3.5q-4 0-4.5 6t3.5 6q38 0 61.5 21.5t27.5 55.5q0 3 8 3 10 0 10-3v-74q37 1 139 7 4 0 6.5-2.5t2.5-6.5q-1-10-10.5-22t-21.5-10q-69 9-116 10l-1-248q0-41 14.5-59.5t51.5-18.5q28 0 51 11.5t48 33.5z"/><path transform="translate(62.412 12.936) scale(.014 -.014)" d="m719 0-86 1-54-1q-11 0-14 3.5t-3 15.5v67q-55-52-107.5-75t-112.5-23q-66 0-118 24t-81.5 69-29.5 105v358q0 30-6 44t-22 19.5-51 5.5q-2 0-2 6t2 6l45-1q38-2 64-2t68 2l46 1q2 0 2-6t-2-6q-35 0-51.5-6t-22-20.5-6.5-44.5l1-321q-1-98 48.5-152t140.5-54q52 0 97.5 21t97.5 70l-1 436q1 30-4.5 44.5t-22 20.5-51.5 6q-2 0-2 6t2 6l45-1q40-2 65-2 24 0 66 2l47 1q2 0 2-6t-2-6q-35 0-51.5-5.5t-22.5-19.5-6-44v-463q0-30 6.5-44.5t26-19.5 60.5-5q3 0 3.5-6t-3.5-6z"/><path transform="translate(72.982 12.936) scale(.014 -.014)" d="m128 2v-180q0-35 10-48.5t37-13.5q7 0 27 2h1q3 0 4-5t-3-6l-184-26q-4-1-5.5 5t2.5 7q24 4 34.5 10.5t14 20.5 3.5 47l1 475q-5-3-43-34l-2-1q-4 0-7 4t-1 6q17 16 53 46v75q0 2 13 14t23 26 10 32q0 4 6 4t6-4v-108q74 43 141 43 63 0 97-38t34-111q0-68-27-124t-76.5-88.5-114.5-32.5q-24 0-54 3zm0 326v-284q43-17 83-17 73 0 103.5 47t30.5 131q0 152-116 152-49 0-101-29z"/><path transform="translate(79.086 12.936) scale(.014 -.014)" d="m338 347q0-14-10-23.5t-23-9.5q-11 0-18 4t-15 11q-5 5-10.5 8.5t-12.5 3.5q-23 0-45-57t-36.5-136.5-15.5-140.5q0-7-8.5-11t-23.5-4-20 1.5-6 4.5q0 4 1 22.5t1 53.5l2 185q0 97-38 97-30 0-64-36l-2-1q-3 0-5.5 3t-1.5 5q25 32 54.5 50t55.5 18q28 0 42.5-28t13.5-106v-116q15 105 46 178t73 73q23 0 44.5-15t21.5-34z"/><path transform="translate(84.154 12.936) scale(.014 -.014)" d="m103 70 3 227q1 59-29 59-24 0-67-48-2-2-3-2-4 0-7 3.5t-1 6.5q30 40 56 59.5t54 19.5 41-19 13-58l-3-229q0-58 28-58 25 0 64 46 1 1 3 1 4 0 7.5-3.5t1.5-5.5q-31-40-55-59t-50-19q-28 0-42.5 20t-13.5 59zm-24 486q0 19 12 30t33 11q19 0 30.5-11t11.5-30q0-21-11-32.5t-31-11.5q-21 0-33 11.5t-12 32.5z"/><path transform="translate(87.794 12.936) scale(.014 -.014)" d="m377 406-2-468q0-99-51.5-159t-142.5-60q-55 0-92 22.5t-37 55.5q0 28 31 28 13 0 22-7.5t20-23.5q17-25 36.5-39t58.5-14q45 0 72 37.5t27 135.5v278q-33-93-85.5-149t-110.5-56q-80 0-87 104-2 71 31.5 143t88 118.5 111.5 46.5q46 0 77-27 17 15 20 35 1 3 7 3t6-4zm-142-42q-37-1-70.5-30t-53.5-79-20-111q0-108 62-108 40 0 78 38.5t62 96.5 24 113q0 35-21.5 57.5t-60.5 22.5z"/><path transform="translate(93.926 12.936) scale(.014 -.014)" d="m482 78q4 0 7.5-3.5t1.5-5.5q-32-41-55.5-59.5t-48.5-18.5q-57 0-55 79l1 178q1 112-60 112-38 0-69-41t-50-121-21-191q0-15-32-15-15 0-20 1.5t-6 4.5l1 24 1 52 7 545q0 47-33 47-18 0-51-15h-2q-4 0-5.5 4.5t1.5 6.5l131 63h2q3 0 7-3t4-5l-4-542q19 105 62.5 164.5t105.5 59.5q44 0 65.5-32t20.5-100l-1-178q0-30 7-44t22-14q25 0 63 46 1 1 3 1z"/><path transform="translate(100.63 12.936) scale(.014 -.014)" d="m303 71q3 0 6-3.5t1-5.5q-42-39-75.5-56.5t-67.5-17.5q-38 0-63 20t-24 65l1 233q-1 26-4 37t-12.5 14.5-32.5 3.5q-4 0-4.5 6t3.5 6q38 0 61.5 21.5t27.5 55.5q0 3 8 3 10 0 10-3v-74q37 1 139 7 4 0 6.5-2.5t2.5-6.5q-1-10-10.5-22t-21.5-10q-69 9-116 10l-1-248q0-41 14.5-59.5t51.5-18.5q28 0 51 11.5t48 33.5z"/></svg>