<svg width="62.077" height="19.66" viewBox="0 0 62.077 19.66" xmlns="http://www.w3.org/2000/svg"><path transform="translate(0 14.321) scale(.0068359 -.0068359)" d="m1243 994h-83q-9 0-23 18.5t-32.5 47.5-42.5 64.5-56.5 70.5-69 64-86 47.5-102.5 18.5q-93 0-172-33.5t-134-90-94.5-132-58-159.5-18.5-172q0-84 22.5-163.5t69-150.5 112-124.5 158.5-85 202-31.5q233 0 430 147 39-52 39-102 0-72-77.5-132.5t-190.5-91.5-228-31q-154 0-283.5 43t-219.5 116-153.5 170.5-93 206.5-29.5 225q0 157 51 299t141 248 223 168.5 287 62.5q98 0 198.5-43.5t162.5-128.5q0 150 39 150h112q48 0 48-104v-267q0-57-5.5-83.5t-14-33-28.5-8.5z"/><path transform="translate(9.1328 14.321) scale(.0068359 -.0068359)" d="m596 1095q107 0 206-36t178.5-103.5 127.5-176.5 48-244-48-244.5-127.5-177.5-178.5-104-206-36q-108 0-207 36t-179 104-128 177.5-48 244.5 48 244 128 176.5 179 103.5 207 36zm-2-951q63 0 121 25t104.5 72.5 74.5 123.5 28 170-28 170-74.5 123-104.5 72-121 25q-132 0-229-103t-97-287 97-287.5 229-103.5z"/><path transform="translate(17.295 14.321) scale(.0068359 -.0068359)" d="m1116 1006v-733q0-26 1-37t5.5-24.5 15-18 28.5-8 48-3.5q45 0 57.5-11t12.5-45q0-50-11.5-88.5t-21.5-45.5q-73 8-135 8-41 0-85.5-4t-54.5-4q-40 0-48.5 24t-8.5 128q-70-81-168.5-126t-200.5-45q-74 0-138.5 24.5t-116.5 72.5-82 129-30 185v401q0 95-50 99-8 1-22.5 2t-23 2-20.5 2.5-19 3-16.5 4-14.5 5.5-10 7-7 9.5-2 12.5q0 116 33 146 94-11 173-11 55 0 112.5 5.5t59.5 5.5q34 0 34-72v-634q0-110 57-165t146-55q76 0 151.5 40t124.5 109v484q0 95-50 99-8 1-22.5 2t-23 2-20.5 2.5-19 3-16.5 4-14.5 5.5-10 7-7 9.5-2 12.5q0 117 33 146 94-11 173-11 66 0 134.5 5.5t70.5 5.5q1 0 1-72z"/><path transform="translate(26.284 14.321) scale(.0068359 -.0068359)" d="m946 265q0-101-61.5-167.5t-162.5-95.5-239-29q-212 0-331.5 61t-119.5 187q0 143 175 143 28 0 37-11t9-42v-136q37-20 109.5-31t146.5-11q88 0 145.5 36.5t57.5 100.5q0 45-29 80.5t-76 57.5-107.5 44.5-123 41.5-123 48-107.5 63-76 89-29 124q0 89 66 154t161.5 94 204.5 29q448 0 448-260 0-16-5.5-34t-21-42-52-39.5-89.5-15.5q-10 0-16.5 2t-10 4.5-6 9-3 9.5-2 13.5-1.5 14.5l-14 140q-14 14-86.5 31t-124.5 17q-102 0-151.5-38t-49.5-96q0-42 36.5-74t94.5-54.5 128-44.5 140-52.5 128-69.5 94.5-103.5 36.5-147.5z"/><path transform="translate(32.97 14.321) scale(.0068359 -.0068359)" d="m740 200q30-57 30-107 0-28-24.5-48.5t-63.5-31.5-78-16-76-5q-56 0-104 16t-91.5 52.5-68.5 106-25 165.5v580h-43q-118 0-129-1-33 12-33 77 0 79 50 79h155q4 32 7.5 83.5t6.5 81.5 9.5 71 18 64.5 29.5 46.5 46.5 33.5 67.5 10.5q27 0 42-9v-382h133q119 0 125 5 50 0 50-86 0-65-33-77-33 3-129 3h-146v-574q0-166 108-166 70 0 166 28z"/><path transform="translate(38.562 14.321) scale(.0068359 -.0068359)" d="m772 136q-73-77-184.5-120t-226.5-43q-143 0-236 76t-93 220q0 154 149 232 112 60 384 104 51 9 166 26 0 170-43 234t-165 64q-89 0-198-40t-174-111q-81 68-81 133 0 56 77 99.5t181.5 64 209.5 20.5q99 0 173.5-24.5t131.5-80.5 86.5-154 29.5-238v-320q0-41 6.5-61.5t14.5-25 26-6.5q31-3 46-5.5t35-7.5 28.5-13 8.5-20q0-118-33-147-48 8-125 8-70 0-130-7-7 5-17.5 14t-28.5 46-18 83zm-365 15q91 0 197 50.5t128 91.5v177q-273-49-368.5-88t-95.5-110q0-121 139-121z"/><path transform="translate(46.471 14.321) scale(.0068359 -.0068359)" d="m403 980v-65q45 72 134 126t170 54q53 0 101-17.5t83.5-62.5 35.5-110q0-178-189-178-4 0-8 1t-6.5 3-4.5 4-3.5 6-2.5 7-2 9.5-1.5 10.5-1 11.5-1.5 12.5l-12 104q-27 13-59 13-58 0-116.5-42.5t-86.5-98.5v-506q0-15 1.5-23.5t7-19.5 19.5-16.5 36-5.5q38 0 65-12t27-36q0-48-16-95t-47-62q-70 8-205 8t-207-8q-33 15-48 61.5t-15 95.5q0 24 27 36t65 12q39 0 51 16.5t12 46.5v526q0 53-30.5 75t-117.5 26q-13 3-16.5 13t-3.5 43q0 51 11 90t22 45q71-11 139-11 42 0 88.5 5.5t49.5 5.5q35 0 45-17.5t10-80.5z"/><path transform="translate(53.081 14.321) scale(.0068359 -.0068359)" d="m892 464v261q-53 95-140 148t-180 53q-128 0-215.5-100.5t-87.5-292.5q0-184 94-287t223-103q56 0 110 20.5t98 59.5 71 101.5 27 139.5zm227 884v-1097q0-14 2-23.5t8.5-20 21.5-16.5 39-7q94-4 94-42 0-120-34-150-55 8-119 8-90 0-176-8-63 29-63 139v9q-54-80-153-123.5t-204-43.5q-96 0-184 36t-159.5 103.5-114.5 176.5-43 244 45 244 120.5 176.5 168.5 103.5 194 37h6q197 0 324-147v262q0 53-30.5 75t-117.5 26q-13 3-16.5 13t-3.5 43q0 51 11 90t22 45q83-11 159-11 45 0 95 5.5t53 5.5q35 0 45.5-17.5t10.5-80.5q0-7-0.5-25.5t-0.5-29.5z"/></svg>