<svg width="54.182" height="16.365" viewBox="0 0 54.182 16.365" xmlns="http://www.w3.org/2000/svg"><path transform="translate(0 13.316) scale(.013672 -.013672)" d="m346 706q29-2 52-30 4-6 8-11.5t6-12.5q6-15 4-43t3-45.5 10-33.5q9-28-11-75-15-43-37-51l-18-6q-26-9-44.5-6.5t-25.5 10.5q-20 26-10 60 2 7 0 22t-17 19q-8 2-10.5 7t-4 8.5-3 5-9.5-4.5-9-6.5-6.5 1.5-10.5-1-10-11q-18-31-7-101 4-21 8-39 8-45 7.5-60t-6-31.5-9.5-32.5q-12-41 3-70 18-36 23-42 9-9 22-7.5t20 13 13 25 13 25.5 16.5 14 24.5 0.5 20.5-1.5 13.5-6.5 8.5-29 1.5-36-7-24-10.5-19-3.5-16.5q-1-21-7.5-31t-12-16.5-29-6.5-42.5-22-36-19.5-24 20.5q-7 16-31 17-7 1-13 3.5t-14 4-16 6.5q-20 11-33 35-8 15-15.5 25t-12.5 19q-13 20-10 38 6 48-13 63-11 7-11 11t-4 17q-6 18 0.5 42t4.5 39.5-5 32.5q-6 44-1 58t2.5 40-2.5 42.5-2.5 43.5-0.5 58q7 78 53 107 69 41 88 39 6 0 14.5-1.5t16.5 0.5 14 6 12 9q24 22 43 5 18-21 28-28 17-13 51-15z"/><path transform="translate(6.0293 13.316) scale(.013672 -.013672)" d="m292 719 32 2q34 0 48.5-11t22-20 13.5-18.5 16.5-19.5 10.5-23.5 7.5-21.5 7.5-26-0.5-34.5-3.5-27-3-21 4.5-19 1-41-11-65.5-19.5-57q-24-45-78-71 5-12 11.5-26.5t12.5-29.5q13-37 13-53.5t1.5-24 3.5-11.5 5.5-6 10.5-7.5 11-18.5 4-27q0-32-7.5-39.5t-16-10-17.5-3.5q-23-3-29 6-8 8-8.5 16.5t-3.5 15-9 8-8.5 12.5-7 14.5-18.5 1.5q-25-5-37 30-3 8-6 21t-7 25q-8 29-18.5 31.5t-15.5-2.5-7.5-13.5-2.5-19 2.5-22.5 0.5-20-5.5-13-7.5-9q-8-5-9.5-20t-4.5-26q-6-27-16-34t-20-8.5-20 0.5q-25 5-31 17.5t-7 19-0.5 12.5 1.5 13 0.5 16.5-4.5 25.5-5 38l-1 26q0 4 7 13.5t4.5 22-11.5 16-9 8.5 2 25-1.5 50-4.5 53q-4 50-17.5 56.5t-15.5 16 0 21.5 4.5 30 5.5 36.5 5.5 34.5 3.5 22 0.5 11.5-0.5 10.5q-2 16 0 28 4 23 2 32.5t3.5 29 9.5 27.5 15 12 21.5 11.5 19.5 15 16 14 17 9.5q29 6 42.5 1.5t19.5-9.5 14.5-10 18-7.5 17.5-2.5q21-2 25.5-5.5t10.5-3.5zm-83-279 6-91q0-9-1-17.5t-2-15.5q-1-15 11-18 10-2 16 5.5t11 20.5q12 25 8 32-8 10-4.5 17.5t15 29.5 17 38 2.5 34.5-3 25.5v11q0 8-7.5 14.5t-10.5 7-5 0.5q-9-2-17 1.5t-15 3-16-9.5-10-18.5 0-21.5q5-36 5-49z"/><path transform="translate(12.455 13.316) scale(.013672 -.013672)" d="m50 188-1 51q0 14 1 26 1 13-2 32-5 33-4.5 48.5t0 25-2.5 17.5q-3 12-14.5 38t-11.5 56 13 48q12 18 9 37t-4.5 40.5-0.5 44 10 43.5q22 51 88 49 41-1 71-8t44-6 43 10q42 16 67-2 7-5 13.5-7.5t11.5-7.5q17-19 10-83-2-19-4-38-5-45 0-67t5.5-38.5-1.5-29.5q-6-29-23-29-15 1-21.5 9.5t-10.5 19-8.5 19-19.5 8.5q-44 0-58.5 9.5t-25.5 11-21-2.5q-21-9-24.5-33t-4.5-42 0-33q2-35 13.5-39.5t19.5-1 16 8.5q24 16 49.5 15.5t38-20.5 10.5-38.5-3.5-36.5-4.5-34q-14-62-58-24-57 4-71-14-3-5-6-21t-1-34q5-47 45-50 26-2 47.5 7t28.5 20q6 12 15 13.5t16 3 14 1.5 14-2q18-6 21.5-28t-4.5-40-10.5-32.5-4.5-21.5-11.5-17.5-15-17.5-17.5 3q-22 17-53-20-8-11-17-16t-28-4-30 10-20 18q-15 19-52 14-22-3-36 19-3 3-4.5 11t-3.5 18q-7 26-12.5 33.5t-6 19.5-2.5 25.5-3 20 1.5 15.5 2.5 20z"/><path transform="translate(18.102 13.316) scale(.013672 -.013672)" d="m50 188-1 51q0 14 1 26 1 13-2 32-5 33-4.5 48.5t0 25-2.5 17.5q-3 12-14.5 38t-11.5 56 13 48q12 18 9 37t-4.5 40.5-0.5 44 10 43.5q22 51 88 49 41-1 71-8t44-6 43 10q42 16 67-2 7-5 13.5-7.5t11.5-7.5q17-19 10-83-2-19-4-38-5-45 0-67t5.5-38.5-1.5-29.5q-6-29-23-29-15 1-21.5 9.5t-10.5 19-8.5 19-19.5 8.5q-44 0-58.5 9.5t-25.5 11-21-2.5q-21-9-24.5-33t-4.5-42 0-33q2-35 13.5-39.5t19.5-1 16 8.5q24 16 49.5 15.5t38-20.5 10.5-38.5-3.5-36.5-4.5-34q-14-62-58-24-57 4-71-14-3-5-6-21t-1-34q5-47 45-50 26-2 47.5 7t28.5 20q6 12 15 13.5t16 3 14 1.5 14-2q18-6 21.5-28t-4.5-40-10.5-32.5-4.5-21.5-11.5-17.5-15-17.5-17.5 3q-22 17-53-20-8-11-17-16t-28-4-30 10-20 18q-15 19-52 14-22-3-36 19-3 3-4.5 11t-3.5 18q-7 26-12.5 33.5t-6 19.5-2.5 25.5-3 20 1.5 15.5 2.5 20z"/><path transform="translate(23.748 13.316) scale(.013672 -.013672)" d="m134-15q-14 1-28.5 30t-20 74-7.5 61-4 24q-3 15-11.5 26.5t-10.5 17.5q-2 9-1 45 2 77-7 102-4 11-3 18t0.5 15-5.5 17-10 21q-16 32-16 44 0 15 10 34 22 37 25.5 51.5t3 37-0.5 45.5q-2 59 10 74 8 8 19 11t28 9q34 12 51.5 12t28-9.5 24.5-11 19.5 0 9.5 2.5q12 5 20 5 13 0 19-10t11-16.5 16.5-3.5 17.5 3 10 0q15-2 26 1 22 7 34-7 3-7 14-10t19-8q19-10 26-35 14-46 4-95-4-17-6.5-27t-4-17.5-2-14.5-1-17-0.5-22v-27q0-31 2-49 6-50-45-72-17-7-24-13t-12-18-18.5-30-41-28.5-47.5-17.5-25-17q-7-13-3.5-61.5t2.5-61.5-3-21.5-10-13.5-14-5-12.5-6-11.5-12-11-11q-14-13-33-13zm68 560q-6-6-12-35t-6-46 7-30.5 6.5-22-2-18-1.5-19.5q-2-24 4-30t13.5-4.5 15.5 5.5 14.5 8.5 13 6.5 9.5 9 9 12q7 5 9.5 13.5t5 18-0.5 18-11 25.5q-6 17-4 27 8 42-10 58-23 14-38.5 12t-21.5-8z"/><path transform="translate(30.229 13.316) scale(.013672 -.013672)" d="m366 456q-1-22-24-30-20-8-31 1t-18 23.5-10.5 25-11.5 11.5q-14 3-21.5-3t-11.5-10q-8-8-16.5-11t-13.5-6q-10-7-8-23 4-31 69-94 12-12 28.5-26t32.5-32q36-43 40-97 4-55-16-96-16-33-38-43-17-9-23-23.5t-9-21-12.5-11-21.5-3.5-22.5 4.5-19 8-14 5.5-10.5-3.5-10-9.5q-15-15-27-11.5t-28 11.5-31 20q-54 42-37 86 11 29 24.5 41t21.5 12q13 0 17.5-9.5t7.5-16 7-10.5 12.5-8 18.5-5q25-2 38 20t10 48q-7 47-20 40-11-7-27-0.5t-17 17-4 20.5-7 19q-9 23-16 25-8 2-21.5 2t-29.5 17.5-23 44-12 46-9 30.5-7 23q-10 38-1 98 6 35 22 61.5t36 52.5q38 51 70 71t49 4q15-13 32.5-10.5t27.5 5.5l18 4q17 4 34.5-1t31.5-34q7-15 14.5-26t14.5-21q15-24 17.5-39.5t7-22.5 7-13 1.5-13-14-24-15.5-36.5-1.5-32 0-21.5z"/><path transform="translate(35.807 13.316) scale(.013672 -.013672)" d="m146 732q58-3 82 8 49 25 79 6 14-8 27-10t37 12q26 11 43 5t25-15 10.5-31.5 1-44.5-4.5-41q-6-51-4.5-67t4-33 1.5-33q-2-39-32-44-22-3-32 10.5t-16.5 30-13 29.5-18.5 9.5-15-26-2-53 4-63 4-55 2.5-45.5 1.5-43q0-43-12-59-6-8-6-19t2.5-23 5.5-24 3-29q0-40-36-56-13-6-24-20t-16.5-18.5-13-3-11 7-6.5 11.5q-6 16-17 21-13 3-15.5 22t-3 33.5-2.5 35.5-13 34-18 16.5-9 17 0.5 27.5 6.5 31q12 49 13 92 3 80 0 106-4 52-28 52-12-1-17-10.5t-11-22.5q-14-33-51-18-13 6-16.5 19t-4 30.5-1 37-7 37-12.5 33.5-5 32 7.5 31 4 30 6 29.5 31 12.5 40-1.5 52.5-0.5z"/><path transform="translate(42.109 13.316) scale(.013672 -.013672)" d="m50 188-1 51q0 14 1 26 1 13-2 32-5 33-4.5 48.5t0 25-2.5 17.5q-3 12-14.5 38t-11.5 56 13 48q12 18 9 37t-4.5 40.5-0.5 44 10 43.5q22 51 88 49 41-1 71-8t44-6 43 10q42 16 67-2 7-5 13.5-7.5t11.5-7.5q17-19 10-83-2-19-4-38-5-45 0-67t5.5-38.5-1.5-29.5q-6-29-23-29-15 1-21.5 9.5t-10.5 19-8.5 19-19.5 8.5q-44 0-58.5 9.5t-25.5 11-21-2.5q-21-9-24.5-33t-4.5-42 0-33q2-35 13.5-39.5t19.5-1 16 8.5q24 16 49.5 15.5t38-20.5 10.5-38.5-3.5-36.5-4.5-34q-14-62-58-24-57 4-71-14-3-5-6-21t-1-34q5-47 45-50 26-2 47.5 7t28.5 20q6 12 15 13.5t16 3 14 1.5 14-2q18-6 21.5-28t-4.5-40-10.5-32.5-4.5-21.5-11.5-17.5-15-17.5-17.5 3q-22 17-53-20-8-11-17-16t-28-4-30 10-20 18q-15 19-52 14-22-3-36 19-3 3-4.5 11t-3.5 18q-7 26-12.5 33.5t-6 19.5-2.5 25.5-3 20 1.5 15.5 2.5 20z"/><path transform="translate(47.756 13.316) scale(.013672 -.013672)" d="m292 719 32 2q34 0 48.5-11t22-20 13.5-18.5 16.5-19.5 10.5-23.5 7.5-21.5 7.5-26-0.5-34.5-3.5-27-3-21 4.5-19 1-41-11-65.5-19.5-57q-24-45-78-71 5-12 11.5-26.5t12.5-29.5q13-37 13-53.5t1.5-24 3.5-11.5 5.5-6 10.5-7.5 11-18.5 4-27q0-32-7.5-39.5t-16-10-17.5-3.5q-23-3-29 6-8 8-8.5 16.5t-3.5 15-9 8-8.5 12.5-7 14.5-18.5 1.5q-25-5-37 30-3 8-6 21t-7 25q-8 29-18.5 31.5t-15.5-2.5-7.5-13.5-2.5-19 2.5-22.5 0.5-20-5.5-13-7.5-9q-8-5-9.5-20t-4.5-26q-6-27-16-34t-20-8.5-20 0.5q-25 5-31 17.5t-7 19-0.5 12.5 1.5 13 0.5 16.5-4.5 25.5-5 38l-1 26q0 4 7 13.5t4.5 22-11.5 16-9 8.5 2 25-1.5 50-4.5 53q-4 50-17.5 56.5t-15.5 16 0 21.5 4.5 30 5.5 36.5 5.5 34.5 3.5 22 0.5 11.5-0.5 10.5q-2 16 0 28 4 23 2 32.5t3.5 29 9.5 27.5 15 12 21.5 11.5 19.5 15 16 14 17 9.5q29 6 42.5 1.5t19.5-9.5 14.5-10 18-7.5 17.5-2.5q21-2 25.5-5.5t10.5-3.5zm-83-279 6-91q0-9-1-17.5t-2-15.5q-1-15 11-18 10-2 16 5.5t11 20.5q12 25 8 32-8 10-4.5 17.5t15 29.5 17 38 2.5 34.5-3 25.5v11q0 8-7.5 14.5t-10.5 7-5 0.5q-9-2-17 1.5t-15 3-16-9.5-10-18.5 0-21.5q5-36 5-49z"/></svg>