<svg width="77.854" height="17.864" viewBox="0 0 77.854 17.864" xmlns="http://www.w3.org/2000/svg"><path transform="translate(0 13.86) scale(.014 -.014)" d="m43 336q0 96 28.5 169t75.5 113q92 78 208.5 78t209.5-51q13-7 13-20v-129q0-15-15-15h-56q-15 0-14 15l3 70q-62 42-141 42-192 0-192-256 0-80 19-139.5t67-98.5 128-39 120 32l-4 70q-1 15 14 15h57q15 0 15-15v-127q0-14-10-19-88-43-201-43-164 0-244.5 93t-80.5 255z"/><path transform="translate(8.806 13.86) scale(.014 -.014)" d="m407 498q12-4 12-18v-135q0-15-15-15h-65q-15 0-14 15l4 58q-5 1-17 1-46 0-76-37.5t-30-100.5v-187h110q15 0 15-15v-49q0-15-15-15h-275q-15 0-15 15v49q0 15 15 15h53v334h-54q-15 0-15 15v52q0 15 15 15h132q14 0 17-15l11-71q17 40 55 68.5t83 28.5 69-8z"/><path transform="translate(15.12 13.86) scale(.014 -.014)" d="m265-12q-119 0-174.5 69.5t-55.5 184 59 189.5 170 75q55 0 94.5-20.5t60.5-55.5q40-68 40-157 0-42-4-46t-15-4h-294q5-72 35.5-111.5t105.5-39.5q55 0 113 26 14 7 20-8l19-46q5-12-9-20-66-36-165-36zm-119 309h208q2 125-98 125-59 0-83.5-37.5t-26.5-87.5z"/><path transform="translate(21.966 13.86) scale(.014 -.014)" d="m199 413v-252q0-47 12-68t45-21 64 14q11 4 16-8l18-46q1-3 1-8.5t-10-11.5q-48-24-114-24-89 0-117 46-20 30-23 58-4 38-4 80v241h-57q-15 0-15 15v52q0 15 15 15h57v135q0 15 15 15h82q15 0 15-15v-135h101q15 0 15-15v-52q0-15-15-15z"/><path transform="translate(27.132 13.86) scale(.014 -.014)" d="m265-12q-119 0-174.5 69.5t-55.5 184 59 189.5 170 75q55 0 94.5-20.5t60.5-55.5q40-68 40-157 0-42-4-46t-15-4h-294q5-72 35.5-111.5t105.5-39.5q55 0 113 26 14 7 20-8l19-46q5-12-9-20-66-36-165-36zm-119 309h208q2 125-98 125-59 0-83.5-37.5t-26.5-87.5z"/><path transform="translate(36.778 13.86) scale(.014 -.014)" d="m40 15v49q0 15 15 15h52v520h-52q-15 0-15 15v50q0 15 15 15 128 6 213 6 260 0 260-186 0-65-33-114.5t-88-75.5l117-230h62q15 0 15-15v-49q0-15-15-15h-132q-15 0-22 13l-136 269h-20q-32 0-57 3v-206h63q15 0 15-15v-49q0-15-15-15h-227q-15 0-15 15zm179 587v-241q8-1 23-1 81 0 126 32t45 96q0 114-158 114z"/><path transform="translate(45.402 13.86) scale(.014 -.014)" d="m35 240q0 75 23 130t60 83q71 53 154 53 61 0 103-19t65.5-44 40-72 16.5-110q0-134-67.5-203.5t-172.5-69.5-163.5 63.5-58.5 188.5zm230-170q60 0 87.5 44.5t27.5 132.5-27.5 132.5-89.5 44.5q-115 0-115-162 0-192 117-192z"/><path transform="translate(52.85 13.86) scale(.014 -.014)" d="m510 79h44q15 0 15-15v-49q0-15-15-15h-112q-12 0-15 15l-9 56q-64-83-168-83-162 0-162 170v255h-53q-15 0-15 15v52q0 15 15 15h150q15 0 15-15v-292q0-60 15.5-85.5t66-25.5 83.5 30 33 68v238h-63q-15 0-15 15v52q0 15 15 15h160q15 0 15-15z"/><path transform="translate(61.236 13.86) scale(.014 -.014)" d="m25 427v53q0 15 15 15h136q13 0 16-15l9-58q56 84 160 84 155 0 155-170v-257h58q15 0 15-15v-49q0-15-15-15h-218q-15 0-15 15v49q0 15 15 15h48v207q0 63-16 92t-66 29-83-30-33-68v-230h62q15 0 15-15v-49q0-15-15-15h-227q-15 0-15 15v49q0 15 15 15h53v334h-54q-15 0-15 14z"/><path transform="translate(69.692 13.86) scale(.014 -.014)" d="m495 79h43q15 0 15-15v-49q0-15-15-15h-113q-13 0-15 15l-8 59q-51-86-163-86-98 0-151 61.5t-53 191 61.5 197.5 158.5 68q44 0 78-16.5t50-39.5v213h-53q-15 0-15 15v53q0 15 15 15h150q15 0 15-15zm-112 109v176q-13 20-45.5 37t-65.5 17q-124 0-124-168 0-129 56-161 24-14 66-14t77.5 31 35.5 82z"/></svg>