<svg width="79.641" height="17.781" viewBox="0 0 79.641 17.781" xmlns="http://www.w3.org/2000/svg"><path transform="translate(0 14.344) scale(.015625 -.015625)" d="m368-9q-87 0-158.5 33.5t-114.5 100-43 164.5q0 63 22 118.5t64.5 98 103.5 66.5 139 24q41 0 87-8t82-23l7-137-45-4-30 95q-19 13-50 19.5t-60 6.5q-75 0-122.5-32.5t-70-86.5-22.5-119q0-85 29.5-144t80-89 111.5-30q32 0 58 7t50 21l44 94 46-5-28-126q-34-18-81-31t-99-13z"/><path transform="translate(9.4375 14.344) scale(.015625 -.015625)" d="m33 0-3 36 62 15q1 5 2 18t1.5 35 0.5 54l1 78q0 33-2.5 65t-5.5 51l-64 14v33l134 37 14-14-4-84 3-1q30 58 61 78.5t58 20.5q23 0 38.5-11.5t15.5-34.5q0-24-16.5-36.5t-41.5-12.5q-18 0-34.5 8t-31.5 22l18-6q-19-12-36-33.5t-31-53.5l1-93q1-25 2-52t2-48.5 2-33.5l87-13-2-38z"/><path transform="translate(15.125 14.344) scale(.015625 -.015625)" d="m27 0-2 37 67 14q1 4 1.5 14t1.5 32 1 61v66q0 41-2 75t-5 53l-67 14v33l142 37 15-14q-3-31-4.5-61t-1.5-70v-126q0-46 1.5-76t3.5-38l67-14-2-37zm108 549q-25 0-43.5 17t-18.5 42 18.5 42 43.5 17q26 0 43-17t17-42-17-42-43-17z"/><path transform="translate(19.312 14.344) scale(.015625 -.015625)" d="m32 0-2 36 62 15q1 7 1.5 18t1.5 32 1 57l1 78q1 21-0.5 43t-3.5 41.5-4 31.5l-64 14v33l134 37 17-16-5-54 3-1q31 39 64.5 56t68.5 17 68-19 54.5-58 21.5-100l1-106q0-36 1.5-64.5t4.5-39.5l60-15-3-36h-195l-3 36 55 15q1 8 2 20t1.5 30.5 0.5 46.5l-1 110q0 43-13.5 69t-35.5 38-47 12q-31 0-58-15t-48-47v-150q0-46 1.5-74.5t3.5-39.5l59-15-3-36zm564 0-3 36 57 15q1 8 1.5 20t1.5 30.5 1 46.5v109q0 44-15 70t-37.5 38-45.5 12q-34 0-63-17t-52-52l-19 37q35 48 74.5 70.5t83.5 22.5q42 0 76-20t54-58 20-92v-113q0-36 1.5-64.5t3.5-39.5l62-15-2-36z"/><path transform="translate(32.172 14.344) scale(.015625 -.015625)" d="m196-8q-37 0-74 8.5t-63 22.5l-5 107h49l20-72q35-24 80-24 34 0 55 16.5t21 44.5q0 26-19 45.5t-74 42.5q-71 31-100 59.5t-29 73.5q0 36 21.5 63.5t59.5 43 88 15.5q28 0 57-5t48-13l11-104h-47l-24 68q-10 6-24 9.5t-30 3.5q-35 0-56-16.5t-21-42.5q0-30 23-48.5t81-45.5q66-30 92-59t26-70q0-54-47-88.5t-119-34.5z"/><path transform="translate(38.453 14.344) scale(.015625 -.015625)" d="m257-8q-65 0-113.5 28t-75.5 78.5-27 115.5q0 68 30 118t80 78 110 28q62 0 108.5-27.5t72-77 25.5-115.5q0-63-28-114t-75.5-81.5-106.5-30.5zm10 47q34 0 59 20.5t39 57 14 83.5q0 86-35.5 139.5t-93.5 53.5q-54 0-86.5-45t-32.5-119q0-56 17.5-99t48.5-67 70-24z"/><path transform="translate(46.391 14.344) scale(.015625 -.015625)" d="m31 0-2 36 62 15q1 7 1.5 19t1.5 33 1 55l1 77q0 33-2.5 65.5t-5.5 51.5l-64 14v33l134 37 17-16-5-53 3-1q35 38 69 55t74 17q37 0 69.5-18.5t53-56.5 20.5-97v-111q0-36 1.5-65t4.5-39l62-15-3-36h-201l-2 36 58 15q1 8 2 20t1.5 30.5 0.5 46.5v108q0 45-15.5 71.5t-38.5 38-47 11.5q-33 0-61.5-16.5t-48.5-45.5v-150q0-46 1.5-74.5t3.5-39.5l62-15-3-36z"/><path transform="translate(57.984 14.344) scale(.015625 -.015625)" d="m53 0-3 38 58 14q1 4 2 17.5t1.5 43.5 0.5 81l1 203q0 50-1 78.5t-1.5 42-1.5 16.5l-62 15 3 38h213q99 0 154-43.5t55-125.5q0-56-28.5-97t-76.5-63.5-107-22.5q-22 0-41.5 2.5t-36.5 5.5v54q23-7 40.5-10t34.5-3q59 0 92 29.5t33 91.5q0 71-37 104.5t-93 33.5h-53q0-6-0.5-28t-1-52.5-0.5-65.5l1-203q0-51 1-80.5t2-43 1-17.5l83-13-3-40z"/><path transform="translate(66.016 14.344) scale(.015625 -.015625)" d="m33 0-3 36 62 15q1 5 2 18t1.5 35 0.5 54l1 78q0 33-2.5 65t-5.5 51l-64 14v33l134 37 14-14-4-84 3-1q30 58 61 78.5t58 20.5q23 0 38.5-11.5t15.5-34.5q0-24-16.5-36.5t-41.5-12.5q-18 0-34.5 8t-31.5 22l18-6q-19-12-36-33.5t-31-53.5l1-93q1-25 2-52t2-48.5 2-33.5l87-13-2-38z"/><path transform="translate(71.703 14.344) scale(.015625 -.015625)" d="m257-8q-65 0-113.5 28t-75.5 78.5-27 115.5q0 68 30 118t80 78 110 28q62 0 108.5-27.5t72-77 25.5-115.5q0-63-28-114t-75.5-81.5-106.5-30.5zm10 47q34 0 59 20.5t39 57 14 83.5q0 86-35.5 139.5t-93.5 53.5q-54 0-86.5-45t-32.5-119q0-56 17.5-99t48.5-67 70-24z"/></svg>