<svg width="103.68" height="19.81" viewBox="0 0 103.68 19.81" xmlns="http://www.w3.org/2000/svg"><path transform="translate(0 14.994) scale(.014 -.014)" d="m382 668q-87 0-132-89.5t-45-223.5 47.5-219 136.5-85q50 0 92 21t63.5 44 45.5 58l35-25q-48-77-107.5-120.5t-152.5-43.5q-139 0-227 105t-88 261 88 260 244 104q81 0 156-32t75-76q0-17-11-39l-60-116-36 11 9 62q4 24 4 46 0 39-38 68t-99 29z"/><path transform="translate(9.1 14.994) scale(.014 -.014)" d="m393 515q30 0 30-57v-347q0-27 13-42.5t40-15.5 62 29l18-24q-80-73-160-73-123 0-123 147v281q-47-19-114-26-8-92-53-184l-41 12q28 71 30 169-38 0-61.5 22t-23.5 54.5 22.5 55 55 22.5 54.5-23 22-59h19q79 0 168 44 29 15 42 15z"/><path transform="translate(16.604 14.994) scale(.014 -.014)" d="m138.5 61.5q-73.5 76.5-73.5 188.5t73.5 188.5 191.5 76.5 191.5-76.5 73.5-188.5-73.5-188.5-191.5-76.5-191.5 76.5zm109.5 349q-28-62.5-28-160.5t28-160.5 83-62.5 83 62.5 28 160.5-28 160.5-83 62.5-83-62.5z"/><path transform="translate(25.844 14.994) scale(.014 -.014)" d="m154.5 613.5q-23.5 23.5-23.5 56.5t23.5 56.5 56.5 23.5 56.5-23.5 23.5-56.5-23.5-56.5-56.5-23.5-56.5 23.5zm37.5-98.5q94 0 94-81v-323q0-27 13-42.5t40-15.5 62 29l18-24q-80-73-160-73-123 0-123 147v335q-55-14-84-49l-27 31q29 30 73.5 48t93.5 18z"/><path transform="translate(31.43 14.994) scale(.014 -.014)" d="m175 418q-24 37-24 66t22.5 51.5 54.5 22.5 54.5-22.5 22.5-53.5-31-66q82-60 126-117.5t44-133-57-128-162-52.5q-48 0-96.5 21t-73.5 52l23 24q44-35 95-35t83.5 27.5 32.5 85.5q0 92-68 192l-151-189-25 22q76 123 130 233z"/><path transform="translate(38.066 14.994) scale(.014 -.014)" d="m175 418q-24 37-24 66t22.5 51.5 54.5 22.5 54.5-22.5 22.5-53.5-31-66q82-60 126-117.5t44-133-57-128-162-52.5q-48 0-96.5 21t-73.5 52l23 24q44-35 95-35t83.5 27.5 32.5 85.5q0 92-68 192l-151-189-25 22q76 123 130 233z"/><path transform="translate(44.702 14.994) scale(.014 -.014)" d="m597 500v-389q0-27 13-42.5t40-15.5 62 29l18-24q-80-73-160-73-95 0-117 89-52-89-153-89-115 0-175 74.5t-60 190 64.5 190.5 180.5 75q89 0 137-71v56zm-349-98q-28-56-28-152t28-152 85.5-56 88 56.5 30.5 151.5-30.5 151.5-88 56.5-85.5-56z"/><path transform="translate(54.642 14.994) scale(.014 -.014)" d="m124 500q82 0 148-50 38 36 78 50.5t102.5 14.5 102-39.5 39.5-107.5v-257q0-27 13-42.5t40-15.5 62 29l18-24q-80-73-160-73-123 0-123 147v257q0 31-19 48t-52.5 17-66-27-32.5-70v-357h-150v460q-45 0-80-15l-14 37q43 18 94 18z"/><path transform="translate(64.54 14.994) scale(.014 -.014)" d="m39 445v41h82v144h150v-144h113v-41h-113v-334q0-27 13-42.5t40-15.5 62 29l18-24q-80-73-160-73-123 0-123 147v313z"/><path transform="translate(74.676 14.994) scale(.014 -.014)" d="m50 349q0 159 86.5 262.5t247 103.5 247.5-103 87-262.5-87-262-247.5-102.5-247 102.5-86.5 261.5zm334 319q-59 0-100-46-79-86-79-273 0-186 79-271 42-46 100-46 86 0 132.5 92t46.5 225.5-46.5 226-132.5 92.5z"/><path transform="translate(85.428 14.994) scale(.014 -.014)" d="m124 500q82 0 148-50 38 36 78 50.5t102.5 14.5 102-39.5 39.5-107.5v-257q0-27 13-42.5t40-15.5 62 29l18-24q-80-73-160-73-123 0-123 147v257q0 31-19 48t-52.5 17-66-27-32.5-70v-357h-150v460q-45 0-80-15l-14 37q43 18 94 18z"/><path transform="translate(95.326 14.994) scale(.014 -.014)" d="m351 47q96 0 163 75l28-18q-34-54-90-86.5t-126-32.5q-119 0-190 78.5t-71 189.5 75.5 186.5 209.5 75.5q88 0 138-41t50-104-55.5-116.5-146.5-53.5q-31 0-60 7l-2 24q65 6 100.5 49.5t35.5 88-19.5 68.5-59 24-75.5-56-36-150 34-151 97-57z"/></svg>