<svg width="47.328" height="17.992" viewBox="0 0 47.328 17.992" xmlns="http://www.w3.org/2000/svg"><path transform="translate(0 14.219) scale(.0078125 -.0078125)" d="m242 686q0-144 23-254.5t65.5-185.5 102-113.5 132.5-38.5q44 0 78 11t61.5 27.5 51.5 37 47 39.5v-201q-56-14-112.5-22.5t-125.5-8.5q-107 0-198 43t-157.5 130.5-104 221-37.5 314.5 39.5 314.5 107 221 158 130.5 192.5 43q69 0 125.5-8.5t112.5-22.5v-201q-23 19-47 39.5t-51.5 37-61.5 27.5-78 11q-73 0-132.5-38.5t-102-113.5-65.5-185.5-23-254.5z"/><path transform="translate(6.6562 14.219) scale(.0078125 -.0078125)" d="m646 1215q-132 0-230-37t-144-112q-6-194-6-391 0-93 1-177t3-165 6-162.5 9-170.5h-185q5 89 8.5 170.5t6 162.5 3.5 165 1 177-1 180.5-3.5 173-6 171-8.5 174.5h186q-3-47-5.5-84t-4.5-83q32 37 78.5 72t97.5 61.5 102 42.5 92 16z"/><path transform="translate(11.859 14.219) scale(.0078125 -.0078125)" d="m263 716q1-73 2-139.5t3-125 5-106.5 8-83q13-87 50-125.5t95-38.5q33 0 68 17t67.5 45 62 64 52.5 74q6 198 6 401 0 93-1 177t-3.5 165-6 162.5-8.5 170.5h185q-5-89-8.5-170.5t-6-162.5-3.5-165-1-177 1-180.5 3.5-173 6-171 8.5-174.5h-186q2 39 4 77.5t4 76.5q-29-36-61.5-68.5t-70.5-57-81.5-39-94.5-14.5q-119 0-184.5 94.5t-65.5 281.5q0 46 0.5 98.5t1.5 103 1.5 93.5 0.5 70q0 93-1 174t-3 159-5.5 157-8.5 168h184q-5-89-9-168t-6.5-157-3.5-159 0-174z"/><path transform="translate(19.266 14.219) scale(.0078125 -.0078125)" d="m332 86q40 0 78.5 12.5t68.5 40.5 48 71.5 18 106.5q0 54-21.5 100t-56.5 88-80 81.5-92 79.5-92 82.5-80 90-56.5 102.5-21.5 120q0 95 35 160t89 104.5 119.5 56.5 127.5 17q65 0 125.5-10.5t116.5-22.5v-199q-32 27-60.5 49t-57 37.5-58.5 24-64 8.5q-42 0-79.5-11.5t-65-35.5-44-61-16.5-88q0-71 37-129.5t93-111.5 121-106 121-114 93-133.5 37-165.5q0-70-16-123.5t-43.5-93-63.5-66.5-77-43.5-84.5-23.5-84.5-7q-49 0-90 3.5t-76.5 10-66 15-59.5 18.5v205q31-29 62-54.5t64.5-44.5 70.5-29.5 81-10.5z"/><path transform="translate(25.242 14.219) scale(.0078125 -.0078125)" d="m852 1374q-5-85-8.5-174t-5.5-177-3-173-1-162 1-162 2.5-173.5 4.5-178 8-174.5h-186q5 85 8.5 174.5t5.5 178 3 173.5 1 162h-412q0-77 1-162t3-173.5 5-178 8-174.5h-187q6 85 9.5 174.5t5.5 178 3 173.5 1 162-1 162-3 173-5.5 177-9.5 174h189q-10-140-13.5-286.5t-5.5-282.5h411q-1 136-5 282.5t-12 286.5z"/><path transform="translate(32.688 14.219) scale(.0078125 -.0078125)" d="m547 90q44 0 79.5 11t65.5 27.5 55 37 48 39.5v-197q-26-5-52.5-11t-59-11-72.5-9-92-4q-105 0-188.5 48.5t-142 140-89.5 223-31 297.5q0 160 26 292.5t76.5 226.5 125 146 172.5 52q101 0 173.5-46.5t119-135 68-217.5 21.5-295v-37h-604q6-159 25.5-269t55.5-179 90.5-99.5 129.5-30.5zm131 694q-2 58-6 118t-12.5 116-23 105-37.5 85-56 57-78 21q-60 0-99.5-44t-64-115-36.5-161-17-182z"/><path transform="translate(39.797 14.219) scale(.0078125 -.0078125)" d="m413 1374q107 0 196-33t152.5-112.5 99-211.5 35.5-329q0-198-35.5-330.5t-99.5-212-153-112.5-197-33h-311q6 85 9.5 174.5t5.5 178 3 173.5 1 162-1 162-3 173-5.5 177-9.5 174zm-131-114q-7-148-9.5-295.5t-2.5-276.5 2-277.5 9-295.5h134q43 0 82.5 9.5t73 33.5 61.5 65.5 47.5 105 30 152 10.5 207.5-10.5 207.5-30 152-47.5 104.5-61.5 65-73 33.5-82.5 9.5z"/></svg>