<svg width="40.334" height="14" viewBox="0 0 40.334 14" xmlns="http://www.w3.org/2000/svg"><path transform="translate(0 9.94) scale(.014 -.014)" d="m308 91q0 10 8 17t27 7q35 0 35-32v-17q0-66-76-66h-180q-73 0-73 71v285q0 73 74 73h179q76 0 76-66v-15q0-36-35-36t-35 23q0 55-61 55h-68q-60 0-60-52v-250q0-51 59-51h71q59 0 59 54z"/><path transform="translate(5.992 9.94) scale(.014 -.014)" d="m214 93v169q0 52 35 52 37 0 37-46v-198q0-38-19.5-54t-56.5-16h-86q-40 0-59 15.5t-19 52.5v199q0 47 38 47 35 0 35-52v-170q0-57 41-57h14q40 0 40 58z"/><path transform="translate(10.668 9.94) scale(.014 -.014)" d="m84 450q35 0 35-52v-33q0-53 58-53h19q40 0 40-17 0-18-40-18h-19q-58 0-58-70v-110q0-59 57-59h24q39 0 39-19t-36-19h-83q-73 0-73 73v330q0 47 37 47z"/><path transform="translate(14.182 9.94) scale(.014 -.014)" d="m147 34h101q38 0 38-18 0-16-36-16h-125q-78 0-78 73v221q0 72 80 72h83q37 0 56.5-15.5t19.5-44.5v-115q0-37-19.5-53t-56.5-16h-61q-30 0-30-45 0-43 28-43zm-28 248v-75q0-50 49-50 46 0 46 50v75q0 50-46 50-49 0-49-50z"/><path transform="translate(21.938 9.94) scale(.014 -.014)" d="m120 43q0-52-35-52t-35 51v320q0 67 81 67h209q39 0 39-20 0-19-41-19h-162q-56 0-56-58v-31q0-59 55-59h165q39 0 39-16 0-22-32-22h-171q-56 0-56-52z"/><path transform="translate(27.468 9.94) scale(.014 -.014)" d="m286 69q0-37-19.5-53t-56.5-16h-83q-80 0-80 69v173q0 32 19 51t59 19h85q37 0 56.5-19t19.5-52zm-72 26v122q0 59-42 59h-13q-39 0-39-64v-118q0-60 40-60h15q39 0 39 61z"/><path transform="translate(32.144 9.94) scale(.014 -.014)" d="m214 220q0 56-42 56h-13q-40 0-40-60v-167q0-53-35-53-38 0-38 46v200q0 32 19.5 51t59.5 19h85q37 0 56.5-18.5t19.5-50.5v-199q0-48-37-48-35 0-35 53z"/><path transform="translate(36.82 9.94) scale(.014 -.014)" d="m84 450q35 0 35-52v-33q0-53 58-53h19q40 0 40-17 0-18-40-18h-19q-58 0-58-70v-110q0-59 57-59h24q39 0 39-19t-36-19h-83q-73 0-73 73v330q0 47 37 47z"/></svg>