<svg width="85.728" height="19.2" viewBox="0 0 85.728 19.2" xmlns="http://www.w3.org/2000/svg"><path transform="translate(0 14.72) scale(.016 -.016)" d="m163-87q-31 0-59 8.5t-48 36.5q10 48 24.5 103.5t31.5 114 34.5 115 33.5 105.5 29 86 20 56q3 8 10 23.5t17 31.5 23 27.5 28 11.5q14 0 28-10-31-72-62.5-159t-60.5-179.5-53-180.5-40-160q14-2 23.5-3t19.5-1q64 0 123.5 29.5t111 81 90.5 118 60.5 141 21.5 148.5q0 81-26 133.5t-72 77.5-107 25q-65 0-117-26t-82-70-30-99q0-12 1.5-21t3.5-16q-33 0-46.5 16.5t-13.5 39.5q0 35 24.5 70.5t68 65.5 100.5 48.5 121 18.5q90 0 144.5-36.5t79.5-98.5 25-139q0-87-27-166.5t-74.5-146-108.5-116-130.5-77-139.5-27.5z"/><path transform="translate(10.448 14.72) scale(.016 -.016)" d="m48-47q-31 0-52.5 20.5t-21.5 62.5q0 36 16 77.5t44 82 63.5 74 75 53.5 78.5 20 65-20.5 26-54.5q0-25-13.5-34t-35.5-9q2 8 3.5 17.5t1.5 17.5q0 23-11 39.5t-38 16.5q-28 0-57-19.5t-56-52-48-70.5-33-75-12-66q0-39 27-39 23 0 50 21.5t55.5 55 54.5 69.5 46 66q4 6 5 6 6-1 15.5-4t16.5-8 7-13q0-9-9-24.5t-20-35.5-20-40.5-9-38.5q0-15 8-29.5t26-14.5q27 0 71 39.5t89 118.5l10-10q-21-54-54-95t-70.5-64-73.5-23q-37 0-54.5 22t-17.5 48q0 6 1 13.5t2 15.5q-43-58-78.5-87t-72.5-29z"/><path transform="translate(17.424 14.72) scale(.016 -.016)" d="m323-20q-35 0-52.5 18t-17.5 46q0 21 7.5 44t14.5 47.5 7 47.5q0 28-11.5 38.5t-28.5 10.5q-31 0-63-25.5t-62-65-56-81.5-46-75q-16 0-30.5 5.5t-22.5 16.5q0 5 10.5 31t24.5 64 25 78 11 73q6 7 19 14t27 7q27 0 27-26 0-16-9-53.5t-23-78.5q27 41 60.5 81.5t71.5 67.5 76 27q39 0 56.5-28t17.5-62q0-31-10-57.5t-20.5-51-10.5-49.5q0-21 8.5-29.5t21.5-8.5q25 0 50 23.5t48.5 59.5 41.5 73l11-13q-21-49-47-87t-57-60-69-22z"/><path transform="translate(24.88 14.72) scale(.016 -.016)" d="m107-56q-48 0-80 32t-32 96q0 50 19.5 97.5t51.5 85.5 71 60.5 77 22.5q41 0 56-24t15-50q0-29-13.5-51t-36.5-22q-17 0-29 15 15 8 26 32.5t11 46.5q0 12-4.5 18.5t-17.5 6.5q-27 0-55.5-24t-53-62-40-80-15.5-79q0-31 15-57t58-26q40 0 80.5 22t75.5 63 56 96l13-10q-23-60-63-107.5t-88-74.5-97-27z"/><path transform="translate(30.048 14.72) scale(.016 -.016)" d="m72-26q-39 0-58 24.5t-19 59.5q0 23 8.5 58t22.5 73.5 32.5 72.5 39.5 55.5 41 21.5q9 0 15.5-5.5t6.5-16.5q0-12-15.5-39t-36.5-62-36.5-73.5-15.5-73.5q0-36 12-48t37-12q34 0 72.5 34t81.5 119l9-10q-29-86-83.5-132t-113.5-46zm120 458q-16 0-28.5 8t-12.5 25q0 21 24.5 36.5t48.5 15.5q15 0 24-7t9-24q0-19-20.5-36.5t-44.5-17.5z"/><path transform="translate(33.904 14.72) scale(.016 -.016)" d="m323-20q-35 0-52.5 18t-17.5 46q0 21 7.5 44t14.5 47.5 7 47.5q0 28-11.5 38.5t-28.5 10.5q-31 0-63-25.5t-62-65-56-81.5-46-75q-16 0-30.5 5.5t-22.5 16.5q0 5 10.5 31t24.5 64 25 78 11 73q6 7 19 14t27 7q27 0 27-26 0-16-9-53.5t-23-78.5q27 41 60.5 81.5t71.5 67.5 76 27q39 0 56.5-28t17.5-62q0-31-10-57.5t-20.5-51-10.5-49.5q0-21 8.5-29.5t21.5-8.5q25 0 50 23.5t48.5 59.5 41.5 73l11-13q-21-49-47-87t-57-60-69-22z"/><path transform="translate(41.36 14.72) scale(.016 -.016)" d="m38-280q-22 0-40 13.5t-18 44.5q0 30 18.5 55.5t47.5 47 63.5 39.5 65.5 34q14 35 26.5 75.5t24.5 89.5q-38-55-79.5-91.5t-83.5-36.5q-36 0-55.5 27t-19.5 70q0 52 25.5 99t66.5 83 87 56.5 86 20.5q29 0 41.5-9.5t12.5-22.5q0-9-5-14t-7-6q-5 8-15 11.5t-25 3.5q-39 0-75.5-23t-64.5-59-44.5-74.5-16.5-70.5q0-24 9.5-36.5t25.5-12.5q29 0 69.5 38.5t78.5 93.5q3 14 5.5 25t6.5 28q3 14 14.5 32.5t36.5 18.5q5 0 10-0.5t11-2.5q0-16-9.5-58.5t-27-99-40.5-116.5q33 16 64.5 41t57.5 57.5 41 70.5l13-10q-15-45-48-82t-70.5-64-68.5-42q-28-67-59-122.5t-64.5-88.5-71.5-33zm-3 32q20 0 54.5 39.5t74.5 135.5q-40-20-74.5-41.5t-56.5-45.5-22-53q0-16 7-25.5t17-9.5z"/><path transform="translate(51.744 14.72) scale(.016 -.016)" d="m203-87q-54 0-102 19.5t-77.5 59.5-29.5 100q0 52 20.5 81t50.5 41 57 12q-27-29-41-64t-14-70q0-37 16.5-69t50.5-51.5 86-19.5q45 0 88 16.5t70.5 49 27.5 80.5q0 43-22 74t-56.5 55-73.5 46-73.5 46.5-56.5 56.5-22 77q0 42 20 88t57.5 87 90 66.5 117.5 25.5q59 0 82-28.5t23-71.5q0-36-12.5-77.5t-30.5-79-34-63.5q-18 4-25.5 15.5t-7.5 27.5q0 21 9 48t20.5 56 20.5 56.5 9 49.5q0 20-12 31.5t-44 11.5q-47 0-87-22t-70-56.5-46.5-72.5-16.5-69q0-37 21.5-63.5t55.5-48 72.5-43 72.5-47.5 55.5-61.5 21.5-86.5q0-52-23-91.5t-61.5-66.5-84.5-41-92-14z"/><path transform="translate(60.32 14.72) scale(.016 -.016)" d="m107-56q-48 0-80 32t-32 96q0 50 19.5 97.5t51.5 85.5 71 60.5 77 22.5q41 0 56-24t15-50q0-29-13.5-51t-36.5-22q-17 0-29 15 15 8 26 32.5t11 46.5q0 12-4.5 18.5t-17.5 6.5q-27 0-55.5-24t-53-62-40-80-15.5-79q0-31 15-57t58-26q40 0 80.5 22t75.5 63 56 96l13-10q-23-60-63-107.5t-88-74.5-97-27z"/><path transform="translate(65.488 14.72) scale(.016 -.016)" d="m173-26q-34 0-53.5 18t-19.5 47q0 30 14 63t27.5 65.5 13.5 58.5q0 32-18.5 47.5t-37.5 28.5q-23-59-48-112t-41-80l-9 17q14 26 36.5 76t44.5 114q-10 10-10 24 0 30 17 49t25 19q11 0 12.5-9.5t1.5-14.5-5.5-19.5-5.5-17.5q0-14 15.5-25.5t35.5-26 35.5-35 15.5-52.5q0-30-12.5-61t-25-59-12.5-49q0-18 9-24t21-6q24 0 49.5 15t49.5 38 43 48.5 28 47.5l13-10q-19-42-52-82.5t-73.5-66.5-83.5-26z"/><path transform="translate(71.056 14.72) scale(.016 -.016)" d="m72-26q-39 0-58 24.5t-19 59.5q0 23 8.5 58t22.5 73.5 32.5 72.5 39.5 55.5 41 21.5q9 0 15.5-5.5t6.5-16.5q0-12-15.5-39t-36.5-62-36.5-73.5-15.5-73.5q0-36 12-48t37-12q34 0 72.5 34t81.5 119l9-10q-29-86-83.5-132t-113.5-46zm120 458q-16 0-28.5 8t-12.5 25q0 21 24.5 36.5t48.5 15.5q15 0 24-7t9-24q0-19-20.5-36.5t-44.5-17.5z"/><path transform="translate(74.912 14.72) scale(.016 -.016)" d="m-63-280q-8 0-15.5 8.5t-11.5 18-4 11.5q14 49 27.5 87.5t27 79 26.5 95 27 135.5 28 201q1 9 4 13t15 4q26 0 37-14.5t11-31.5q0-14-6-50t-17-85q17 33 42.5 67t58.5 57 72 23q44 0 72.5-31.5t28.5-82.5q0-39-17.5-82.5t-49-82-74.5-62.5-95-24q-26 0-42 6t-16 12q0 4 7.5 4.5t17.5 0.5q40 0 76.5 19.5t65.5 51.5 45.5 71 16.5 77q0 32-13.5 54.5t-43.5 22.5q-26 0-51.5-16.5t-48-42-40-53-26.5-49.5q-18-75-36-144.5t-34.5-126-30-92.5-22.5-44q-5-5-12-5z"/><path transform="translate(81.168 14.72) scale(.016 -.016)" d="m85-46q-43 0-66 25t-23 74q0 44 16.5 108.5t41.5 132.5q-10 2-19 3.5t-17 4.5v18q8-1 19-2t25-2q21 54 45 104.5t47.5 90 45 63 36.5 23.5q8 0 14.5-5.5t6.5-16.5q0-17-21-55.5t-52-91.5-60-115q9 0 18.5 0t18.5 0q33 0 69.5 1t73.5 5v-18q-55-6-98.5-9t-77.5-3q-4 0-7.5 0t-7.5 0q-23-53-39-109t-16-109q0-43 13-61.5t43-18.5q52 0 102 46t88 125l13-10q-24-56-60.5-101t-80.5-71-91-26z"/></svg>