<svg width="55.188" height="28.906" viewBox="0 0 55.188 28.906" xmlns="http://www.w3.org/2000/svg"><path transform="translate(0 19.531) scale(.0078125 -.0078125)" d="m286 1400h290q189 0 307-91 59-46 92-114t33-159v-620q0-78-17-137t-44-103q-28-43-63-74t-71-50q-84-46-195-52h-332q-72 0-104 30t-40 82-8 118v942q0 65 8 116.5t40 81.5 104 30zm282-234h-130v-928h130q41 1 77 20 34 17 55.5 51.5t21.5 88.5v590q0 59-21.5 98t-55.5 58-77 22z"/><path transform="translate(8.5469 19.531) scale(.0078125 -.0078125)" d="m912 772v-546q0-62-9-113.5t-40.5-82-100.5-30.5q-65 0-98 25.5t-44.5 64-11.5 78.5q-20-66-72-117t-144-51q-55 0-110 18t-99 60-71.5 109.5-27.5 166.5v290q0 100 27.5 167.5t71.5 109.5q44 41 99 59t110 18q92 0 144-50t72-118q0 92 45 131t109 39q65 0 97-31t42.5-83 10.5-114zm-520-150v-242q0-58 14-102t74-44q74 0 102 72 14 36 19.5 91.5t6.5 132.5q0 47-11 101.5t-39 93.5-78 39q-60 0-74-43t-14-99z"/><path transform="translate(16.516 19.531) scale(.0078125 -.0078125)" d="m966 644v-416q0-61-11.5-113t-45-83.5-99.5-31.5q-65 0-98 31t-43.5 83-10.5 114v390q0 60-14.5 104t-73.5 44q-41 0-66-27t-39-74q-15-47-20-110.5t-5-136.5v-190q0-61-11.5-113t-45-83.5-99.5-31.5q-65 0-98 31t-43.5 83-10.5 114v546q0 63 8.5 114t41 81.5 102.5 30.5q65 0 98.5-25.5t45.5-64 12-78.5q18 66 73 117t145 51q55 0 110-18t99-60 71.5-110 27.5-168z"/><path transform="translate(24.969 19.531) scale(.0078125 -.0078125)" d="m922 774v-804q0-90-24-152-25-62-62.5-103t-84.5-64q-48-23-91-35-45-11-82-13.5t-56-2.5q-71 0-141.5 10t-129.5 37q-58 27-97 73t-44 118q0 36 30.5 62t109.5 26q88 0 116-18.5t48-71.5q15-38 96-38 45 0 68.5 24t31.5 58.5 8 63.5v224q-20-67-72-117.5t-144-50.5q-55 0-110 18t-99 60q-45 41-73 109t-28 169v290q0 99 28 166.5t73 109.5q44 42 99 60t110 18q92 0 144-51t72-117q0 40 11.5 78.5t44.5 64 98 25.5q69 0 100.5-30.5t40.5-82 9-113.5zm-520-154v-242q0-57 14-100.5t74-43.5q50 0 77.5 39t39 94.5 11.5 102.5q-1 76-6.5 132t-19.5 93q-28 71-102 71-60 0-74-43.5t-14-102.5z"/><path transform="translate(33.109 19.531) scale(.0078125 -.0078125)" d="m770 850q0-150-148-150-22 0-51.5-5.5t-58.5-22.5q-22-13-40-34-18-22-29-55t-11-79v-286q0-59-11-108.5t-43.5-79.5-97.5-30q-63 0-95 30t-42.5 80-10.5 108v560q0 61 10.5 110.5t42.5 79.5 95 30q66 0 94.5-35.5t35-91 6.5-117.5h16q26 102 84 173t128 71q77 0 101.5-35t24.5-113z"/><path transform="translate(39.297 19.531) scale(.0078125 -.0078125)" d="m936 632v-62q0-49-24.5-87.5t-117.5-38.5h-398v-96q0-55 28.5-101.5t95.5-46.5q53 0 77 17.5t41 45.5q11 17 27 30 17 14 46 23.5t81 9.5q54 0 92-20.5t38-79.5q0-65-41-108.5t-103-69.5-134.5-37-135.5-11q-83 1-158 21t-132 64q-58 44-92 115t-34 174v234q0 94 23 161 23 66 58.5 110t80.5 69q45 24 91 36t87.5 15 71.5 3q101 0 173-18 71-18 119-47t76-67q29-37 42-78 14-40 18-82t4-78zm-540 32v-70h250q0 65-6.5 108.5t-34 65.5-91.5 22q-73 0-95.5-39.5t-22.5-86.5z"/><path transform="translate(47.266 19.531) scale(.0078125 -.0078125)" d="m150 224v954q0 61 8 111.5t38.5 80.5 95.5 30q66 0 96-30t38-80 8-112v-394h16l206 242q34 40 92 40 53 0 96.5-37.5t43.5-96.5q0-40-28-74l-180-212 196-374q18-36 31-72.5t13-69.5q0-62-48.5-97t-105.5-35q-41 0-73 25t-54 61-37 70l-112 238h-56v-168q0-62-8-113t-38-81-96-30q-65 0-95.5 30t-38.5 81-8 113z"/></svg>