<svg width="64" height="20.8" viewBox="0 0 64 20.8" xmlns="http://www.w3.org/2000/svg"><path transform="translate(0 16) scale(.016 -.016)" d="m79 0h162q106 0 159 88.5t53 260.5-53 260.5-159 88.5h-162zm70 73v552h89q69 0 105-58.5t36-163.5v-108q0-105-36-163.5t-105-58.5z"/><path transform="translate(8 16) scale(.016 -.016)" d="m458 0v70h-60v284q0 82-45 128t-120 46q-66 0-107-31.5t-57-72.5l45-40q17 35 44.5 55.5t70.5 20.5q48 0 75-29t27-85v-51h-91q-97 0-141-39.5t-44-110.5q0-73 40-115t107-42q53 0 84 26t45 70h4q4-36 21-60t56-24zm-244 55q-42 0-65.5 20.5t-23.5 60.5v21q0 38 27.5 58t87.5 20h91v-85q0-40-33-67.5t-84-27.5z"/><path transform="translate(16 16) scale(.016 -.016)" d="m438 0v68h-196v380h196v68h-196v182h-64v-135q0-26-9-36.5t-30-10.5h-107v-68h143v-330q0-52 23.5-85t71.5-33z"/><path transform="translate(24 16) scale(.016 -.016)" d="m458 0v70h-60v284q0 82-45 128t-120 46q-66 0-107-31.5t-57-72.5l45-40q17 35 44.5 55.5t70.5 20.5q48 0 75-29t27-85v-51h-91q-97 0-141-39.5t-44-110.5q0-73 40-115t107-42q53 0 84 26t45 70h4q4-36 21-60t56-24zm-244 55q-42 0-65.5 20.5t-23.5 60.5v21q0 38 27.5 58t87.5 20h91v-85q0-40-33-67.5t-84-27.5z"/><path transform="translate(32 16) scale(.016 -.016)" d="m438 0v68h-196v380h196v68h-196v182h-64v-135q0-26-9-36.5t-30-10.5h-107v-68h143v-330q0-52 23.5-85t71.5-33z"/><path transform="translate(40 16) scale(.016 -.016)" d="m316 300-64-196h-3l-64 196-73 216h-68l173-506-48-142h-100v-68h63q49 0 72 21.5t38 65.5l213 629h-66z"/><path transform="translate(48 16) scale(.016 -.016)" d="m79-200h66v284h4q42-96 132-96 79 0 124 71.5t45 198.5-45 198.5-124 71.5q-90 0-132-96h-4v84h-66zm176 259q-44 0-77 27t-33 79v186q0 52 33 79t77 27q58 0 90.5-42.5t32.5-112.5v-88q0-70-32.5-112.5t-90.5-42.5z"/><path transform="translate(56 16) scale(.016 -.016)" d="m257-12q64 0 108.5 33.5t64.5 85.5l-50 40q-17-42-48.5-66t-74.5-24q-61 0-96.5 44.5t-35.5 112.5v24h319v38q0 73-23.5 130t-66.5 89.5-101 32.5q-59 0-103.5-33.5t-69.5-94-25-143.5q0-81 25-141.5t70-94 107-33.5zm-4 474q53 0 86-42.5t33-110.5v-11h-247v7q0 45 17 80.5t45.5 56 65.5 20.5z"/></svg>