<svg width="72.864" height="17.821" viewBox="0 0 72.864 17.821" xmlns="http://www.w3.org/2000/svg"><path transform="translate(0 13.945) scale(.0068359 -.0068359)" d="m143 92v1245q0 41 28 69t67 28h559q434 0 631.5-173.5t197.5-544-197.5-543.5-631.5-173h-559q-39 0-67 26.5t-28 65.5zm377 191h266q269 0 366 98t97 335.5-97 336-366 98.5h-266z"/><path transform="translate(11.539 13.945) scale(.0068359 -.0068359)" d="m535 680h331q0 117-49 163t-171.5 46-172-60.5-121.5-60.5h-149q-27 0-44.5 17.5t-17.5 43.5q0 287 545 287 238 0 382-106.5t144-329.5v-619q0-27-17-44t-44-17h-193q-27 0-44 17.5t-17 43.5v31q-158-113-364.5-112.5t-339 92.5-132.5 260 132.5 258 341.5 90zm34-473q154 0 297 90v156h-307q-70 0-110.5-34t-40.5-88 42-89 119-35z"/><path transform="translate(20.528 13.945) scale(.0068359 -.0068359)" d="m336-104 131-17q141 0 197 207-170 0-284 102.5t-196 364.5l-149 483q-3 8-3 18.5t12.5 25.5 37.5 16h209q29 0 55.5-19.5t34.5-48.5l131-424q49-156 99.5-216t119.5-60l199 700q8 29 31.5 48.5t52.5 19.5h211q25 0 37-16t12-26.5-2-17.5l-262-934q-70-248-173.5-354t-266.5-106-230.5 12-84.5 29.5-17 40.5v110q0 27 17 44.5t44 17.5z"/><path transform="translate(29.374 13.945) scale(.0068359 -.0068359)" d="m61 793q0 323 521 323 548 0 548-287 0-26-17-43.5t-44-17.5h-149q-72 0-121 60.5t-193 60.5q-198 0-198-96 0-45 77.5-75t189-52.5 222.5-57.5 188.5-111.5 77.5-193.5q0-323-550-323t-550 286q0 27 17.5 44.5t44.5 17.5h149q72 0 121-60.5t193-60.5q229 0 229 96 0 45-77.5 75t-189.5 53.5-222.5 58-188.5 111.5-78 192z"/><path transform="translate(42.649 13.945) scale(.0068359 -.0068359)" d="m1466.5 148.5q-204.5-179.5-600-179.5t-600.5 179.5-205 568.5 205 568 600.5 179 600-179 204.5-568-204.5-568.5zm-273.5 925.5q-101 120-326.5 120t-327-120-101.5-357.5 101.5-357 327-119.5 326.5 119.5 101 357-101 357.5z"/><path transform="translate(54.496 13.945) scale(.0068359 -.0068359)" d="m123 61v973q0 27 17.5 44.5t43.5 17.5h224q26 0 43.5-17.5t17.5-44.5v-63q172 145 366.5 145t316.5-118.5 122-362.5v-574q0-26-17.5-43.5t-44.5-17.5h-223q-26 0-43.5 17.5t-17.5 43.5v574q0 239-191 239-125 0-268-143v-670q0-26-17.5-43.5t-43.5-17.5h-224q-26 0-43.5 17.5t-17.5 43.5z"/><path transform="translate(64.046 13.945) scale(.0068359 -.0068359)" d="m1229 561v-57q0-27-17.5-44.5t-44.5-17.5h-753q10-123 70.5-179t193.5-56 182 60 121 61h149q27 0 44.5-17.5t17.5-44.5q0-287-547-286-276 0-430 146t-154 420.5 155 422 430 147.5 429-143.5 154-411.5zm-817 92h465q-10 236-231.5 236t-233.5-236z"/></svg>