<svg width="162.43" height="19.472" viewBox="0 0 162.43 19.472" xmlns="http://www.w3.org/2000/svg"><path transform="translate(0 14.88) scale(.016 -.016)" d="m70 0v43h120q45 0 77 24.5t32 84.5v346q0 30-14.5 54.5t-39.5 39.5-55 15h-120v43h763q92 0 181-10.5t167-33 137.5-59.5 93.5-89 34-121q0-70-25.5-122t-68.5-89.5-97-62-112.5-38.5-115-19.5-102.5-5.5zm296 43h65v564h-65zm406 0h91q47 0 79 24t51 64 28 90.5 9 102.5q0 80-20 144t-68.5 101-134.5 37q-55 0-87-26.5t-32-71.5v-363q0-45 19-73.5t65-28.5zm262 7q76 43 121 108t45 166-45 166-121 108l-2-3q42-57 64.5-125.5t22.5-145.5q0-76-22.5-145t-64.5-126z"/><path transform="translate(23.504 14.88) scale(.016 -.016)" d="m379 615q-56 0-103 17t-74.5 45.5-27.5 62.5q0 35 27.5 63.5t74.5 45.5 103 17q57 0 103.5-17t74-45.5 27.5-63.5q0-34-27.5-62.5t-74-45.5-103.5-17zm-80 38q-16 17-26 39.5t-10 47.5q0 26 10 48.5t26 38.5q-37-13-61-36t-24-51 24-51 61-36zm-239-653v43h66q37 0 63.5 20t26.5 69v294q0 36-26.5 62.5t-63.5 26.5h-66v43h493v-426q0-49 26.5-69t63.5-20h66v-43zm218 43h51v472h-51z"/><path transform="translate(35.328 14.88) scale(.016 -.016)" d="m30-200v43h65q37 0 63.5 20t26.5 69v494q0 50-26 69.5t-63 19.5h-66v43h493v-68q33 28 78 48t95.5 31 99.5 11q87 0 152-23.5t107.5-64 63.5-91.5 21-105q0-58-23.5-115t-70-102.5-114.5-73-157-27.5q-70 0-136 20t-116 63v-129q0-49 23.5-69t56.5-20h99v-43zm696 241q62 18 96.5 55.5t49 88.5 14.5 111q0 86-41.5 146t-119.5 83l-3-10q54-26 83-83.5t29-135.5q0-55-10-104t-34.5-86-68.5-58zm-479-198h51v672h-51zm400 219q49 0 75.5 30t37.5 83 11 121q0 103-32.5 155.5t-91.5 52.5q-40 0-72-23.5t-52-53.5v-301q9-11 27-26t43-26.5 54-11.5z"/><path transform="translate(54.368 14.88) scale(.016 -.016)" d="m50 0v43h66q37 0 63.5 20t26.5 69v456q0 36-26.5 62.5t-63.5 26.5h-66v43h493v-588q0-49 26.5-69t63.5-20h66v-43zm218 43h51v634h-51z"/><path transform="translate(66.032 14.88) scale(.016 -.016)" d="m550-22q-106 0-198.5 23.5t-162.5 65-109.5 96-39.5 117.5q0 66 37.5 120.5t106 95 162 62.5 204.5 22 204.5-22 161.5-62.5 105.5-95 37.5-120.5q0-63-39.5-117.5t-109.5-96-162-65-198-23.5zm-148 44 2 10q-109 32-171 97.5t-62 150.5 61.5 149.5 172.5 97.5l-2 9q-93-21-160.5-59t-103.5-88-36-109q0-88 80-156.5t219-101.5zm148 0q75 0 107 59t32 198q0 140-32 198.5t-107 58.5-107-58.5-32-198.5q0-139 32-198t107-59zm158 13q54 46 83.5 110t29.5 135-29 134-83 109l-4-3q47-120 47-240 0-122-48-242z"/><path transform="translate(83.616 14.88) scale(.016 -.016)" d="m60 0v43h66q44 0 67 23t23 66v294q0 36-26.5 62.5t-63.5 26.5h-66v43h493v-128q51 71 134 110.5t183 39.5q122 0 179-35.5t59-114.5q51 71 134 110.5t183 39.5q125 0 181.5-37t56.5-120v-291q0-43 23.5-66t66.5-23h66v-43h-493v364q0 92-82 92-35 0-72-24t-64-65v-235q0-43 23.5-66t66.5-23h36v-43h-463v364q0 92-82 92-35 0-72-24t-64-65v-235q0-43 23.5-66t66.5-23h36v-43zm218 43h51v472h-51zm555 0h51v314q0 48-32.5 82t-91.5 47l-2-7q35-15 55-47t20-75zm555 0h51v314q0 48-32.5 82t-91.5 47l-2-7q35-14 55-46t20-76z"/><path transform="translate(113.2 14.88) scale(.016 -.016)" d="m337-22q-101 0-162 30.5t-88 78.5-27 100q0 51 28 97.5t89 76 160 29.5q66 0 117.5-1t96-2.5 88.5-3.5v3q0 18-4.5 41.5t-20 46-47.5 37-88 14.5q-66 0-127.5-17.5t-109-40.5-74.5-42h-41v154h42q2-8 6.5-25.5t7.5-26.5q96 29 199 41t224 12q126 0 208-12.5t122-46.5 40-98v-291q0-49 26.5-69t63.5-20h66v-43h-493v52q-69-35-148.5-54.5t-153.5-19.5zm364 65h51v366q0 20-8.5 43.5t-35 44-80.5 31.5l-2-7q33-13 49-32.5t21-40.5 5-39zm-332-35v6q-61 0-102.5 25.5t-62.5 65.5-21 82q0 41 20.5 79.5t62.5 63.5 104 25v6q-85 0-142-25.5t-85-65-28-83.5q0-45 28.5-86t85-67 140.5-26zm48 199q0-29 11.5-55.5t37-43 65.5-16.5q49 0 108 21v219q-28 2-55 2.5t-52 0.5q-39 0-64.5-19.5t-38-48.5-12.5-60z"/><path transform="translate(131.79 14.88) scale(.016 -.016)" d="m417-22q-66 0-120 12t-86 46-32 100v290q0 50-26.5 69.5t-63.5 19.5h-69v43h40q53 0 98 17t78.5 39 52.5 39 19 17h208v-112h227v-43h-227v-310q0-66 32.5-97t81.5-31q50 0 107 27l16-40q-62-35-147-60.5t-189-25.5zm-245 544q32-11 51-34.5t19-61.5v-290q0-60 28.5-87.5t74.5-35.5l1 8q-24 12-38.5 39t-14.5 76v290q0 44-33 68.5t-86 34.5z"/><path transform="translate(143.84 14.88) scale(.016 -.016)" d="m337-22q-101 0-162 30.5t-88 78.5-27 100q0 51 28 97.5t89 76 160 29.5q66 0 117.5-1t96-2.5 88.5-3.5v3q0 18-4.5 41.5t-20 46-47.5 37-88 14.5q-66 0-127.5-17.5t-109-40.5-74.5-42h-41v154h42q2-8 6.5-25.5t7.5-26.5q96 29 199 41t224 12q126 0 208-12.5t122-46.5 40-98v-291q0-49 26.5-69t63.5-20h66v-43h-493v52q-69-35-148.5-54.5t-153.5-19.5zm364 65h51v366q0 20-8.5 43.5t-35 44-80.5 31.5l-2-7q33-13 49-32.5t21-40.5 5-39zm-332-35v6q-61 0-102.5 25.5t-62.5 65.5-21 82q0 41 20.5 79.5t62.5 63.5 104 25v6q-85 0-142-25.5t-85-65-28-83.5q0-45 28.5-86t85-67 140.5-26zm48 199q0-29 11.5-55.5t37-43 65.5-16.5q49 0 108 21v219q-28 2-55 2.5t-52 0.5q-39 0-64.5-19.5t-38-48.5-12.5-60z"/></svg>