<svg width="95.952" height="21.936" viewBox="0 0 95.952 21.936" xmlns="http://www.w3.org/2000/svg"><path transform="translate(0 16.576) scale(.016 -.016)" d="m23 0v21l20 7q32 10 32 50 1 57 1 116.5t0 121.5v35q0 58 0 116t-1 116q0 41-31 51l-21 6v21h263q105 0 181-39t117-112.5 41-177.5q0-106-44.5-180t-125-113-187.5-39zm197 29h51q71 0 115.5 28t65.5 94.5 21 179.5-21 179-64.5 94-112.5 28h-55q-1-69-1-139.5t0-141.5v-34q0-75 0-146.5t1-141.5z"/><path transform="translate(10.336 16.576) scale(.016 -.016)" d="m21 0v22l20 6q19 6 26 19.5t7 35.5v495q0 20-5 32.5t-25 19.5l-23 9v22h191l188-489 177 489h195v-22l-16-5q-19-6-26-18.5t-7-32.5q-1-58-1-115.5t0-116.5v-41q0-58 0-116t1-115q0-21 5-32t24-18l20-7v-22h-243v22l22 7q19 7 23.5 18.5t4.5 31.5v217l2 268-204-564h-56l-215 558 4-228v-248q0-22 6-35t25-18l20-7v-22z"/><path transform="translate(26.576 16.576) scale(.016 -.016)" d="m236-17q-55 0-111.5 13.5t-94.5 35.5l6 139h29l31-69q14-29 29-48t40-29q17-7 32.5-9.5t34.5-2.5q61 0 96.5 31.5t35.5 83.5q0 47-24.5 74t-78.5 52l-41 18q-84 37-132.5 86t-48.5 130q0 60 30.5 102.5t84.5 65.5 126 23q53 0 99.5-14t81.5-38l-7-124h-29l-37 75q-16 33-30.5 47.5t-35.5 18.5q-12 2-20.5 3t-22.5 1q-49 0-84.5-28.5t-35.5-78.5q0-48 27-78t78-53l45-19q97-42 139-89.5t42-121.5q0-88-66.5-142.5t-187.5-54.5z"/><path transform="translate(34.88 16.576) scale(.016 -.016)" d="m271 495q63 0 108-26t69.5-71.5 24.5-104.5q0-13-1-24.5t-4-21.5h-301q1-103 38.5-148t109.5-45q50 0 81 16.5t57 46.5l16-15q-30-55-81.5-85.5t-122.5-30.5-125 30-84.5 86.5-30.5 135.5q0 82 35.5 139t92 87.5 118.5 30.5zm-5-29q-29 0-50.5-16.5t-34-58-14.5-116.5h179q11 101-8 146t-72 45z"/><path transform="translate(42.928 16.576) scale(.016 -.016)" d="m21 0v19l15 5q20 5 27.5 17t7.5 32v293q-1 22-8 33.5t-27 15.5l-15 4v18l163 58 12-11 9-88v-7q15 28 38 52t50 39 54 15q38 0 57-20t19-51q0-34-19-51.5t-46-17.5q-40 0-69 36l-2 2q-10 12-22.5 13.5t-24.5-12.5q-10-10-18.5-23.5t-15.5-31.5v-262q0-19 8-31.5t27-17.5l30-9v-19z"/><path transform="translate(49.888 16.576) scale(.016 -.016)" d="m137 550q-33 0-56 21t-23 53q0 33 23 53.5t56 20.5 56-20.5 23-53.5q0-32-23-53t-56-21zm-115-550v19l15 4q20 6 27 18t8 32v184q0 31 0 57.5t-1 54.5q0 20-7.5 31.5t-27.5 15.5l-14 3v18l175 58 12-11-3-142v-270q0-20 7.5-32t26.5-18l11-3v-19z"/><path transform="translate(54.272 16.576) scale(.016 -.016)" d="m22 0v19l15 4q40 11 41 49 0 35 0.5 69.5t0.5 68.5v239h-57v22l22 4q20 3 29 14.5t13 32.5q11 40 29.5 69.5t44.5 54.5q37 36 79 50t82 14q39 0 71.5-15.5t32.5-52.5q0-26-15.5-41.5t-44.5-15.5q-46 0-81 54l-12 14q-12 15-24 12t-17-20q-8-32-12.5-75t-5.5-90h115v-31h-115v-239q0-34 0.5-67.5t0.5-67.5q0-40 40-49l26-7v-19z"/><path transform="translate(63.248 16.576) scale(.016 -.016)" d="m158 0v21l40 8q42 9 42 49v273q0 70 0 140t-1 140h-79q-32 0-47-17t-30-48l-35-74h-28l5 169h574l5-169h-28l-35 74q-15 31-30 48t-47 17h-80v-553q0-41 42-49l41-8v-21z"/><path transform="translate(73.232 16.576) scale(.016 -.016)" d="m271 495q63 0 108-26t69.5-71.5 24.5-104.5q0-13-1-24.5t-4-21.5h-301q1-103 38.5-148t109.5-45q50 0 81 16.5t57 46.5l16-15q-30-55-81.5-85.5t-122.5-30.5-125 30-84.5 86.5-30.5 135.5q0 82 35.5 139t92 87.5 118.5 30.5zm-5-29q-29 0-50.5-16.5t-34-58-14.5-116.5h179q11 101-8 146t-72 45z"/><path transform="translate(81.28 16.576) scale(.016 -.016)" d="m13 0v19l27 6q22 5 35.5 14t26.5 27l109 152-129 204q-10 15-19.5 23t-26.5 12l-17 4v19h250v-19l-15-4q-18-4-21.5-15.5t6.5-27.5l77-117 82 114q11 16 10.5 28t-19.5 16l-22 6v19h154v-19l-24-5q-21-5-33-14.5t-25-27.5l-107-141 131-204q23-34 64-45l20-5v-19h-269v19l15 3q18 5 22.5 17t-6.5 27l-81 126-88-125q-11-16-7-28t21-16l18-4v-19z"/><path transform="translate(90.224 16.576) scale(.016 -.016)" d="m209-14q-62 0-97.5 30.5t-35.5 99.5q0 24 0.5 45.5t0.5 50.5v237h-71v22l27 4q29 5 49.5 18t37.5 36l65 90h30l-3-139h114v-31h-115v-341q0-36 15.5-54t38.5-18q20 0 36 9.5t32 25.5l13-15q-19-33-53-51.5t-84-18.5z"/></svg>