<svg width="31.584" height="23.168" viewBox="0 0 31.584 23.168" xmlns="http://www.w3.org/2000/svg"><path transform="translate(0 13.6) scale(.016 -.016)" d="m103 0q-21 0-39.5 14t-18.5 40v294q0 23 15.5 37.5t36.5 14.5h90q60 0 105.5-24.5t71-69.5 25.5-108q0-55-23.5-100t-65-71.5-95.5-26.5zm41 62h44q65 0 99 34.5t33 101.5q-1 68-35 104t-98 36h-42q-30 0-30-30v-216q0-30 29-30z"/><path transform="translate(6.624 13.6) scale(.016 -.016)" d="m175-10q-44 0-79.5 20t-55.5 55.5-20 79.5q0 43 20 77t55.5 53.5 79.5 19.5 79-19.5 55.5-53.5 20.5-77q0-44-20.5-79.5t-55.5-55.5-79-20zm0 62q39 0 63 25.5t24 67.5q0 40-24 64t-63 24q-40 0-63.5-24t-23.5-64q0-42 23.5-67.5t63.5-25.5z"/><path transform="translate(12.224 13.6) scale(.016 -.016)" d="m291-10q-13 0-23.5 8t-10.5 23v126q0 44-19.5 65t-51.5 21q-41 0-59.5-26.5t-18.5-58.5v-127q0-15-10.5-23t-23.5-8-23.5 8-10.5 23v235q0 17 10.5 25.5t23.5 8.5 23.5-8.5 10.5-25.5q17 17 44 28t51 11q56 0 89-36t33-106v-132q0-15-11-23t-23-8z"/><path transform="translate(17.984 13.6) scale(.016 -.016)" d="m163-140q-21 0-47 4t-51 17q-19 10-19 31 0 12 8.5 22t21.5 10q9 0 18-5 19-10 38-14t37-4q36 0 62 18.5t26 58.5v28q-17-17-39.5-26.5t-50.5-9.5q-41 0-74.5 20t-53 55-19.5 79 19 79 52 55 75 17q29-2 51.5-11.5t39.5-25.5q0 14 9.5 23t24.5 9 24.5-9 9.5-23v-262q0-46-21.5-76.5t-58.5-45-82-14.5zm12 192q38 0 60 25.5t22 67.5q0 40-22 64t-60 24q-39 0-63-24t-24-65q0-40 23.5-66t63.5-26z"/><path transform="translate(23.824 13.6) scale(.016 -.016)" d="m74-10q-13 0-23.5 8t-10.5 23v380q0 17 10.5 25.5t23.5 8.5 23.5-8.5 10.5-25.5v-380q0-15-10.5-23t-23.5-8z"/><path transform="translate(26.224 13.6) scale(.016 -.016)" d="m179-10q-75 0-117 43t-42 116q0 64 42.5 105t109.5 41q65 0 104-37.5t39-92.5q0-22-11.5-33t-29.5-11h-174q-10 0-7-11 8-28 32.5-43.5t55.5-15.5q23 0 44.5 6t37.5 18q5 4 13 4 11 0 20-9.5t9-22.5q0-6-2-12t-9-12q-26-19-55.5-26t-59.5-7zm58 183q6 0 6 6 0 23-20.5 40t-50.5 17q-26 0-49.5-14t-28.5-37q0 0 0-1-1-4-0.5-7t8.5-3z"/></svg>