<svg width="15.36" height="16.912" viewBox="0 0 15.36 16.912" xmlns="http://www.w3.org/2000/svg"><path transform="translate(0 13.712) scale(.016 -.016)" d="m104 700q67-4 67-62v-574q0-64-73-64h-78v700zm-49-15v-671h43q24 0 31 12t7 41v568q0 27-8 37.5t-28 12.5z"/><path transform="translate(3.072 13.712) scale(.016 -.016)" d="m171 57q0-62-75.5-62t-75.5 64v387q0 62 75.5 62t75.5-64zm-35 383q0 30-7 41.5t-31 11.5-33.5-10.5-9.5-39.5v-381q0-29 7-41t31-12 33.5 11 9.5 40z"/><path transform="translate(6.144 13.712) scale(.016 -.016)" d="m54 500v-1q17 7 43 7 74 0 74-66v-69h-35v68q0 31-8 43.5t-32 12.5-32.5-13.5-8.5-42.5v-439h-35v500z"/><path transform="translate(9.216 13.712) scale(.016 -.016)" d="m21 443q0 63 75.5 63t75.5-66v-63h-35v62q0 29-8 42.5t-32 13.5-32.5-13.5-8.5-42.5v-72q0-30 10-47 14-22 34.5-41.5t31.5-32 20-28.5q20-36 20-79v-81q0-63-75.5-63t-75.5 66v69h35v-68q0-29 8-42.5t32-13.5 32.5 13.5 8.5 42.5v70q0 63-31 100-10 12-28.5 29t-37.5 41.5-19 60.5z"/><path transform="translate(12.288 13.712) scale(.016 -.016)" d="m21 254q0 62 78 62 21 0 38-6v129q0 29-8 42.5t-32 13.5-32.5-13.5-8.5-42.5v-63h-35v67q0 63 75.5 63t75.5-66v-440h-35v2q-17-7-43-7-73 0-73 64zm116-203v193q0 32-6.5 44.5t-31 12.5-34-10.5-9.5-39.5v-189q0-29 7-41t30-12 32.5 9 11.5 33z"/></svg>