<svg width="38.4" height="19.2" viewBox="0 0 38.4 19.2" xmlns="http://www.w3.org/2000/svg"><path transform="translate(0 15.2) scale(.016 -.016)" d="m25 676q-1 0-1 0t0-1v-50q0-1 0-1t1 0h50q1 0 1 0t0 1v50q0 1 0 1t-1 0zm100 0q-1 0-1 0t0-1v-50q0-1 0-1t1 0h50q1 0 1 0t0 1v50q0 1 0 1t-1 0zm100 0q-1 0-1 0t0-1v-50q0-1 0-1t1 0h50q1 0 1 0t0 1v50q0 1 0 1t-1 0zm100 0q-1 0-1 0t0-1v-50q0-1 0-1t1 0h50q1 0 1 0t0 1v50q0 1 0 1t-1 0zm-200-100q-1 0-1 0t0-1v-50q0-1 0-1t1 0h50q1 0 1 0t0 1v50q0 1 0 1t-1 0zm300 0q-1 0-1 0t0-1v-50q0-1 0-1t1 0h50q1 0 1 0t0 1v50q0 1 0 1t-1 0zm-300-100q-1 0-1 0t0-1v-50q0-1 0-1t1 0h50q1 0 1 0t0 1v50q0 1 0 1t-1 0zm300 0q-1 0-1 0t0-1v-50q0-1 0-1t1 0h50q1 0 1 0t0 1v50q0 1 0 1t-1 0zm-300-100q-1 0-1 0t0-1v-50q0-1 0-1t1 0h50q1 0 1 0t0 1v50q0 1 0 1t-1 0zm300 0q-1 0-1 0t0-1v-50q0-1 0-1t1 0h50q1 0 1 0t0 1v50q0 1 0 1t-1 0zm-300-100q-1 0-1 0t0-1v-50q0-1 0-1t1 0h50q1 0 1 0t0 1v50q0 1 0 1t-1 0zm300 0q-1 0-1 0t0-1v-50q0-1 0-1t1 0h50q1 0 1 0t0 1v50q0 1 0 1t-1 0zm-300-100q-1 0-1 0t0-1v-50q0-1 0-1t1 0h50q1 0 1 0t0 1v50q0 1 0 1t-1 0zm300 0q-1 0-1 0t0-1v-50q0-1 0-1t1 0h50q1 0 1 0t0 1v50q0 1 0 1t-1 0zm-400-100q-1 0-1 0t0-1v-50q0-1 0-1t1 0h50q1 0 1 0t0 1v50q0 1 0 1t-1 0zm100 0q-1 0-1 0t0-1v-50q0-1 0-1t1 0h50q1 0 1 0t0 1v50q0 1 0 1t-1 0zm100 0q-1 0-1 0t0-1v-50q0-1 0-1t1 0h50q1 0 1 0t0 1v50q0 1 0 1t-1 0zm100 0q-1 0-1 0t0-1v-50q0-1 0-1t1 0h50q1 0 1 0t0 1v50q0 1 0 1t-1 0z"/><path transform="translate(9.6 15.2) scale(.016 -.016)" d="m125 476q-1 0-1 0t0-1v-50q0-1 0-1t1 0h50q1 0 1 0t0 1v50q0 1 0 1t-1 0zm100 0q-1 0-1 0t0-1v-50q0-1 0-1t1 0h50q1 0 1 0t0 1v50q0 1 0 1t-1 0zm100 0q-1 0-1 0t0-1v-50q0-1 0-1t1 0h50q1 0 1 0t0 1v50q0 1 0 1t-1 0zm-300-100q-1 0-1 0t0-1v-50q0-1 0-1t1 0h50q1 0 1 0t0 1v50q0 1 0 1t-1 0zm400 0q-1 0-1 0t0-1v-50q0-1 0-1t1 0h50q1 0 1 0t0 1v50q0 1 0 1t-1 0zm-400-100q-1 0-1 0t0-1v-50q0-1 0-1t1 0h50q1 0 1 0t0 1v50q0 1 0 1t-1 0zm400 0q-1 0-1 0t0-1v-50q0-1 0-1t1 0h50q1 0 1 0t0 1v50q0 1 0 1t-1 0zm-400-100q-1 0-1 0t0-1v-50q0-1 0-1t1 0h50q1 0 1 0t0 1v50q0 1 0 1t-1 0zm400 0q-1 0-1 0t0-1v-50q0-1 0-1t1 0h50q1 0 1 0t0 1v50q0 1 0 1t-1 0zm-300-100q-1 0-1 0t0-1v-50q0-1 0-1t1 0h50q1 0 1 0t0 1v50q0 1 0 1t-1 0zm100 0q-1 0-1 0t0-1v-50q0-1 0-1t1 0h50q1 0 1 0t0 1v50q0 1 0 1t-1 0zm100 0q-1 0-1 0t0-1v-50q0-1 0-1t1 0h50q1 0 1 0t0 1v50q0 1 0 1t-1 0z"/><path transform="translate(19.2 15.2) scale(.016 -.016)" d="m125 676q-1 0-1 0t0-1v-50q0-1 0-1t1 0h50q1 0 1 0t0 1v50q0 1 0 1t-1 0zm0-100q-1 0-1 0t0-1v-50q0-1 0-1t1 0h50q1 0 1 0t0 1v50q0 1 0 1t-1 0zm-100-100q-1 0-1 0t0-1v-50q0-1 0-1t1 0h50q1 0 1 0t0 1v50q0 1 0 1t-1 0zm100 0q-1 0-1 0t0-1v-50q0-1 0-1t1 0h50q1 0 1 0t0 1v50q0 1 0 1t-1 0zm100 0q-1 0-1 0t0-1v-50q0-1 0-1t1 0h50q1 0 1 0t0 1v50q0 1 0 1t-1 0zm100 0q-1 0-1 0t0-1v-50q0-1 0-1t1 0h50q1 0 1 0t0 1v50q0 1 0 1t-1 0zm-200-100q-1 0-1 0t0-1v-50q0-1 0-1t1 0h50q1 0 1 0t0 1v50q0 1 0 1t-1 0zm0-100q-1 0-1 0t0-1v-50q0-1 0-1t1 0h50q1 0 1 0t0 1v50q0 1 0 1t-1 0zm0-100q-1 0-1 0t0-1v-50q0-1 0-1t1 0h50q1 0 1 0t0 1v50q0 1 0 1t-1 0zm300 0q-1 0-1 0t0-1v-50q0-1 0-1t1 0h50q1 0 1 0t0 1v50q0 1 0 1t-1 0zm-200-100q-1 0-1 0t0-1v-50q0-1 0-1t1 0h50q1 0 1 0t0 1v50q0 1 0 1t-1 0zm100 0q-1 0-1 0t0-1v-50q0-1 0-1t1 0h50q1 0 1 0t0 1v50q0 1 0 1t-1 0z"/><path transform="translate(28.8 15.2) scale(.016 -.016)" d="m125 476q-1 0-1 0t0-1v-50q0-1 0-1t1 0h50q1 0 1 0t0 1v50q0 1 0 1t-1 0zm100 0q-1 0-1 0t0-1v-50q0-1 0-1t1 0h50q1 0 1 0t0 1v50q0 1 0 1t-1 0zm100 0q-1 0-1 0t0-1v-50q0-1 0-1t1 0h50q1 0 1 0t0 1v50q0 1 0 1t-1 0zm-300-100q-1 0-1 0t0-1v-50q0-1 0-1t1 0h50q1 0 1 0t0 1v50q0 1 0 1t-1 0zm400 0q-1 0-1 0t0-1v-50q0-1 0-1t1 0h50q1 0 1 0t0 1v50q0 1 0 1t-1 0zm-400-100q-1 0-1 0t0-1v-50q0-1 0-1t1 0h50q1 0 1 0t0 1v50q0 1 0 1t-1 0zm400 0q-1 0-1 0t0-1v-50q0-1 0-1t1 0h50q1 0 1 0t0 1v50q0 1 0 1t-1 0zm-400-100q-1 0-1 0t0-1v-50q0-1 0-1t1 0h50q1 0 1 0t0 1v50q0 1 0 1t-1 0zm400 0q-1 0-1 0t0-1v-50q0-1 0-1t1 0h50q1 0 1 0t0 1v50q0 1 0 1t-1 0zm-300-100q-1 0-1 0t0-1v-50q0-1 0-1t1 0h50q1 0 1 0t0 1v50q0 1 0 1t-1 0zm100 0q-1 0-1 0t0-1v-50q0-1 0-1t1 0h50q1 0 1 0t0 1v50q0 1 0 1t-1 0zm100 0q-1 0-1 0t0-1v-50q0-1 0-1t1 0h50q1 0 1 0t0 1v50q0 1 0 1t-1 0z"/></svg>