<svg width="78.128" height="19.2" viewBox="0 0 78.128 19.2" xmlns="http://www.w3.org/2000/svg"><path transform="translate(0 15.44) scale(.016 -.016)" d="m201-23q-63 0-97.5 8t-47.5 22.5-14 32.5q0 28 33.5 47t123.5 24l-16-19q-11 51-16 119t-4 141 7 139.5 17 113.5l87 6q-22-9-55-15.5t-68-6.5q-64 0-94.5 14t-30.5 39q0 44 53.5 68.5t164.5 24.5q132 0 222.5-43.5t137.5-121 47-180.5q0-90-32-165.5t-91.5-131-142-86-184.5-30.5zm142 154q34 0 72.5 27.5t65.5 81 27 132.5q0 58-16.5 101.5t-42.5 72.5-55 43.5-55 14.5q-21 0-32.5-26t-16.5-77.5-5-127.5q0-118 12-180t46-62z"/><path transform="translate(11.2 15.44) scale(.016 -.016)" d="m160-199q-54 0-54 58 0 32 22 76t64.5 95 103.5 104l-1-8q-133 132-201.5 232t-68.5 173q0 36 18.5 56t49.5 20q66 0 131-96t123-292h4q38 206 81 302.5t102 96.5q28 0 41.5-19.5t13.5-54.5q0-29-12.5-76.5t-35-107-52-123.5-64.5-126q-89-161-152-235.5t-113-74.5z"/><path transform="translate(21.024 15.44) scale(.016 -.016)" d="m163 622q32 0 43.5-26t11.5-77q0-12-1.5-25.5t-4.5-24.5l-2 20q24 65 74 101.5t106 36.5q62 0 103.5-35t62-98 20.5-149q0-53-4.5-104.5t-12-94-16.5-69.5q-12-34-31-50.5t-45-16.5-40 19-14 51q0 34 5 82.5t9.5 99 4.5 91.5q0 140-92 140-49 0-82-43.5t-44-123.5q-3-27-3-67t0.5-79.5-2.5-66.5q-4-60-22.5-86t-50.5-26q-37 0-56 34.5t-19 116.5q0 42 2 94t5.5 104.5 8.5 95.5q10 81 29 128.5t57 47.5z"/><path transform="translate(31.216 15.44) scale(.016 -.016)" d="m498-10q-34 0-46.5 26.5t-14.5 84.5l10-5q-56-109-212-109-71 0-118 25.5t-69.5 68-22.5 92.5q0 86 60 136.5t159 50.5q65 0 113-19t82-53l-17 2q-7 101-43.5 144.5t-103.5 43.5q-39 0-72-12t-60.5-24.5-51.5-12.5-37.5 16-13.5 41q0 36 34.5 68t91.5 52 124 20q81 0 139-39t88-114q26-64 37-143t11-169q0-68-7-105t-21.5-51.5-38.5-14.5zm-221 112q33 0 67 9.5t57 28.5 23 47q0 24-19.5 39.5t-51 23.5-67.5 8q-61 0-92.5-21t-31.5-56q0-38 29.5-58.5t85.5-20.5z"/><path transform="translate(41.232 15.44) scale(.016 -.016)" d="m343 719q119 0 175.5-61t56.5-160q0-68-31.5-118t-85.5-77.5-122-27.5q-32 0-67.5 7t-73.5 27l5 13q8-25 13.5-61.5t9-75 3.5-70.5q0-59-19.5-90.5t-57.5-31.5q-32 0-50.5 20t-25.5 66-7 123q0 148 13.5 252.5t46.5 164.5q26 46 80.5 73t136.5 27zm-19-326q60 0 97.5 32t37.5 93q0 40-26.5 66.5t-82.5 26.5q-41 0-71-18.5t-45.5-51-15.5-74.5q0-39 25.5-56.5t80.5-17.5z"/><path transform="translate(50.832 15.44) scale(.016 -.016)" d="m511 6q-27 0-41.5 18.5t-19.5 48-5 62.5l5 4q-10-43-39-74t-67-47.5-76-16.5q-51 0-93 24t-65 74q-23 53-36 133.5t-13 165.5q0 46 4 85t13 64q8 26 24 38.5t41 12.5q29 0 45.5-22.5t20.5-62.5q4-33 5.5-81.5t3-97 4.5-81.5q6-60 31-88.5t61-28.5q53 0 81 40t28 112q0 36-4 81.5t-8.5 88.5-4.5 71q0 47 16 67.5t44 20.5q24 0 40.5-13t26.5-36q14-30 24-82t16-118 6-139q0-112-15-167.5t-53-55.5z"/><path transform="translate(61.072 15.44) scale(.016 -.016)" d="m234 562h-11q-9 44-9 85 0 73 38.5 115t130.5 42q56 0 80.5-17.5t24.5-52.5q0-64-73-70-37-4-57.5-14t-30-31.5-12.5-60.5l-18 2q25 9 57 14t63 5q43 0 69.5-16t26.5-54q0-37-28-56t-69-19q-25 0-52.5 4t-54.5 11l5 15q10-51 17-111.5t11-121 4-113.5q0-34-9-63.5t-27.5-47-46.5-17.5q-42 0-60 33.5t-18 83.5q0 48 4.5 108.5t14 125 22.5 124.5l12-9q-51-22-130-22-42 0-65 16t-23 49q0 36 28 55.5t75 19.5q32 0 60.5-3.5t50.5-8.5z"/><path transform="translate(69.6 15.44) scale(.016 -.016)" d="m234 562h-11q-9 44-9 85 0 73 38.5 115t130.5 42q56 0 80.5-17.5t24.5-52.5q0-64-73-70-37-4-57.5-14t-30-31.5-12.5-60.5l-18 2q25 9 57 14t63 5q43 0 69.5-16t26.5-54q0-37-28-56t-69-19q-25 0-52.5 4t-54.5 11l5 15q10-51 17-111.5t11-121 4-113.5q0-34-9-63.5t-27.5-47-46.5-17.5q-42 0-60 33.5t-18 83.5q0 48 4.5 108.5t14 125 22.5 124.5l12-9q-51-22-130-22-42 0-65 16t-23 49q0 36 28 55.5t75 19.5q32 0 60.5-3.5t50.5-8.5z"/></svg>