<svg width="84.301" height="22.866" viewBox="0 0 84.301 22.866" xmlns="http://www.w3.org/2000/svg"><path transform="translate(0 16.543) scale(.0068359 -.0068359)" d="m1298 1249q24 19 22 36t-14 30q-14 15-40 28-48 23-124 33t-161 10q-121 0-228.5-22t-191-80.5-137.5-161-68-262.5q62-2 122.5-2t119.5 0q71 0 158.5 3.5t179 8 179.5 9.5 159 8.5 118.5 3.5 57.5-4q12-6 4.5-19.5t-29-31-53-37.5-66.5-38.5-70.5-34-64.5-24.5q23 39 8.5 55.5t-79.5 16.5q-29 0-53-1t-55-3.5-77-6-119-9-181-13-263-16.5q5-162 56.5-275t140.5-186 212.5-111.5 272.5-50.5q86-4 170 8 36 5 75.5 14t79 23.5 77.5 35.5 71 50q-74-63-154.5-114.5t-166-89-173.5-58-175-20.5q-76 0-160.5 12.5t-167 42-157 78-129 121-84.5 171-23 226.5q7 149 56.5 275t129.5 227.5 185 179 224.5 129.5 248.5 78.5 256 26.5q56 0 103-5t84.5-12 64.5-15.5 42-15.5q45-20 45-47 0-16-16.5-34t-42-36-56-34.5-59-30.5-51.5-24-33-15z"/><path transform="translate(11.272 16.543) scale(.0068359 -.0068359)" d="m1491 154q-42-42-90.5-76.5t-97.5-59.5-95-40-84-17q-21-2-54 0.5t-63.5 17.5-52.5 47-22 91v119q-55-54-116-103.5t-125.5-88-130.5-61-130-22.5q-82 0-144 36.5t-104 94.5-63 130-21 143q0 53 8 104.5t20.5 97.5 29 83 34.5 61q33 45 84 87t111.5 79 128.5 67 135.5 52 131.5 34 118 12q56 0 132-5.5t173-22.5q-4-115-7-203t-5-157.5-3-126.5-1-111q0-55-2-108t8-95 39.5-68 91.5-26q37 0 79 9.5t87 25.5zm-557 716q-60 16-128 22.5t-130 6.5q-34 0-64.5-2t-55.5-5-44-7.5-29-10.5q-18-9-42-43.5t-46-85.5-37.5-115-15.5-132q0-65 19-130.5t55.5-117.5 90-84.5 122.5-32.5q65 0 115 21t87 57.5 61.5 85.5 39.5 106q0 42 0 89.5t0 104.5 0.5 124.5 1.5 148.5z"/><path transform="translate(21.171 16.543) scale(.0068359 -.0068359)" d="m1204 1006q-3-128-5-229.5t-3.5-181.5-2.5-139.5-1-102.5q-1-100 0-142-2-111-3-195t-10.5-150-32-116.5-67.5-93.5q-78-75-162.5-149.5t-175-134-188.5-96-203-36.5q-63 0-133 18.5t-129.5 54.5-98 90-38.5 126q0 57 33.5 110.5t99.5 98.5q38 27 86 61 42 29 100.5 69t132.5 89q-76 6-133 44t-95.5 95-57.5 125.5-19 136.5q0 53 8 105t20.5 97.5 29 83 34.5 61.5q35 48 86.5 91.5t112.5 80 128 65.5 133 49.5 128 31.5 113 11q56 0 134.5-5.5t178.5-22.5zm-270-140q-60 14-128 20.5t-130 6.5q-84 0-146.5-17t-104-62-62.5-123-21-199q0-66 19-131t55.5-117 90-84.5 122.5-32.5q67 0 117.5 21t86.5 57 59.5 84 37.5 102q0 85 1 200.5t3 274.5zm-703-1099q-53-52-53-109 0-44 23.5-78t61-60 84.5-43.5 94.5-28.5 90.5-16 72-5q66 0 122 12t87 35q34 26 56 95.5t35 170 18.5 225.5 7.5 262q-51-50-106.5-96t-114.5-82.5-120-60.5-122-31q-60-45-104.5-79.5t-73.5-59.5q-34-29-58-51z"/><path transform="translate(30.604 16.543) scale(.0068359 -.0068359)" d="m846 184q-100-69-168-113.5t-118.5-71-91-36.5-85.5-10q-39 0-75.5 18.5t-65 68-45.5 136-17 223.5q0 135 3 283t6.5 297 6.5 292 3 267q0 122-37 190t-113 68q-23 0-51-6.5t-59-22.5q39 28 82 57.5t87.5 53.5 90 39.5 90.5 15.5q57 0 89.5-28.5t48-70.5 19-91.5 3.5-91.5q-1-64-2.5-154t-3.5-193.5-4-214.5-4-217.5-3.5-202.5-3.5-169q-2-98 14-169.5t46-117.5 72-68 93-22q92 0 193 61z"/><path transform="translate(35.588 16.543) scale(.0068359 -.0068359)" d="m1399 954q-115-56-213.5-99.5t-173.5-73.5q-87-35-160-62-45-19-99.5-38.5t-113.5-38-120.5-37-121.5-36.5v-20q0-103 32.5-185t90.5-139.5 139-88 179-30.5q51 0 101.5 8t96 21.5 85.5 32.5 71 41q-76-68-156.5-114t-161-74.5-159-41.5-150.5-14q-73-2-143.5 22.5t-128.5 74.5-98 124.5-52 173.5q-5 35-4.5 67.5t6.5 64.5q-35-13-63.5-24t-46.5-22q29 20 58 37.5t57 32.5q17 78 58.5 149t100 132 130.5 110.5 149.5 84.5 157.5 54 155 19q50 0 84.5-15t46.5-53q6-40-29-86-15-20-40.5-42.5t-66-47.5-97-52-133.5-54zm-793-243q43 19 77.5 41t54 46 20.5 50-21 55q-15 22-41.5 30.5t-54.5 8.5q-26 0-50-5.5t-42-14.5q-12-7-33-30.5t-43-61-41.5-87-28.5-108.5q63 23 114 41t89 35z"/><path transform="translate(48.029 16.543) scale(.0068359 -.0068359)" d="m1303 168q-111-70-217-112.5t-213-65-218-27.5-231 0q-39 1-69 3t-49.5 13.5-29.5 37.5-10 75q0 25 0.5 87t1 147.5 1.5 187 2 205.5 2 203.5 2 180.5 2 136.5 2 71.5q1 18-7.5 30t-23 19.5-34.5 10.5-42 3q-35 0-75.5-6.5t-76.5-15.5q51 33 100.5 61.5t99.5 49 102 32.5 108 12q22 0 42-2.5t35-8 24-15 8-23.5q0-38-2-190-1-65-2-161t-2.5-232-3-316.5-3.5-413.5q94-11 177-15.5t157-4.5q104 0 186 6.5t139 14.5q67 10 118 22z"/><path transform="translate(56.902 16.543) scale(.0068359 -.0068359)" d="m1491 154q-42-42-90.5-76.5t-97.5-59.5-95-40-84-17q-21-2-54 0.5t-63.5 17.5-52.5 47-22 91v119q-55-54-116-103.5t-125.5-88-130.5-61-130-22.5q-82 0-144 36.5t-104 94.5-63 130-21 143q0 53 8 104.5t20.5 97.5 29 83 34.5 61q33 45 84 87t111.5 79 128.5 67 135.5 52 131.5 34 118 12q56 0 132-5.5t173-22.5q-4-115-7-203t-5-157.5-3-126.5-1-111q0-55-2-108t8-95 39.5-68 91.5-26q37 0 79 9.5t87 25.5zm-557 716q-60 16-128 22.5t-130 6.5q-34 0-64.5-2t-55.5-5-44-7.5-29-10.5q-18-9-42-43.5t-46-85.5-37.5-115-15.5-132q0-65 19-130.5t55.5-117.5 90-84.5 122.5-32.5q65 0 115 21t87 57.5 61.5 85.5 39.5 106q0 42 0 89.5t0 104.5 0.5 124.5 1.5 148.5z"/><path transform="translate(66.801 16.543) scale(.0068359 -.0068359)" d="m412 111-240-172q4 260 8 467t6.5 368.5 4.5 280.5 3 204q3 199 3 279 3 122-34.5 190t-115.5 68q-25 0-52.5-6.5t-57.5-22.5q39 28 82 57.5t87.5 53.5 90 39.5 90.5 15.5q40 0 68-15t46.5-39.5 28.5-56 14.5-65.5 5.5-68 1-63l-23-856q54 61 122.5 113.5t142.5 89.5 148.5 55 139.5 10q39-5 73-22.5t59-46 39.5-66 14.5-80.5q0-71-33-127t-84.5-98-114-69.5-120.5-41.5q27-29 63.5-68t78.5-80.5 88-82 92.5-72.5 91.5-51.5 86-19.5q80 0 162 51-72-51-126.5-91.5t-102-67.5-94.5-40-105-8q-59 4-114.5 38.5t-106.5 81.5-98 100-89 95q-18 21-40 39-19 15-45.5 30t-59.5 21q35 29 70.5 51.5t64.5 39.5q34 19 67 34 34 15 71.5 35t69 46.5 52 61 20.5 79.5q0 37-12.5 72.5t-35.5 63-54.5 44-69.5 16.5-73-12-58-25q-20-11-51.5-63t-62.5-146-54.5-231-27.5-317zm1065 53 10 8z"/><path transform="translate(76.029 16.543) scale(.0068359 -.0068359)" d="m1399 954q-115-56-213.5-99.5t-173.5-73.5q-87-35-160-62-45-19-99.5-38.5t-113.5-38-120.5-37-121.5-36.5v-20q0-103 32.5-185t90.5-139.5 139-88 179-30.5q51 0 101.5 8t96 21.5 85.5 32.5 71 41q-76-68-156.5-114t-161-74.5-159-41.5-150.5-14q-73-2-143.5 22.5t-128.5 74.5-98 124.5-52 173.5q-5 35-4.5 67.5t6.5 64.5q-35-13-63.5-24t-46.5-22q29 20 58 37.5t57 32.5q17 78 58.5 149t100 132 130.5 110.5 149.5 84.5 157.5 54 155 19q50 0 84.5-15t46.5-53q6-40-29-86-15-20-40.5-42.5t-66-47.5-97-52-133.5-54zm-793-243q43 19 77.5 41t54 46 20.5 50-21 55q-15 22-41.5 30.5t-54.5 8.5q-26 0-50-5.5t-42-14.5q-12-7-33-30.5t-43-61-41.5-87-28.5-108.5q63 23 114 41t89 35z"/></svg>