<svg width="33.516" height="24.878" viewBox="0 0 33.516 24.878" xmlns="http://www.w3.org/2000/svg"><path transform="translate(0 16.002) scale(.014 -.014)" d="m36 0-6 32q23 11 48.5 19.5t50.5 15.5l1-67zm466 0-75 40 34 143 53-4q1-26-0.5-60t-4.5-65.5-7-53.5zm-362 596-96 6 1 48h93zm298-111-16 120 80 45q2-16 1.5-43.5t-3-59-8.5-62.5zm-323-485v650h93v-650zm322 284-240 10v59l240 18zm48 289-301 21-75 56h393zm-376-573 75 64 301 13 17-77z"/><path transform="translate(7.882 16.002) scale(.014 -.014)" d="m258-15q-59-1-103.5 18.5t-74.5 54-45 80-15 96.5q0 75 29.5 132t81.5 89.5 117 32.5q31 0 57-7.5t49.5-22 45.5-36.5l-53-71q-38 30-83 50.5t-89 23.5q-31-37-46.5-79t-15.5-92q0-56 18.5-100t54.5-69.5 87-25.5q22 0 49.5 5.5t54.5 17.5l17-42z"/><path transform="translate(13.692 16.002) scale(.014 -.014)" d="m74-15-44 36 315 426 26 8 50 35 34-30-293-396-34-30zm360 5-353 32 39 62 265-13 21 76 51-7q-1-44-8-83t-15-67zm-375 312q-8 38-10.5 83.5t1.5 82.5l72-48-14-118zm-5 98-4 68h341l-43-59z"/><path transform="translate(20.44 16.002) scale(.014 -.014)" d="m391-15q-11 1-27 13.5t-30 31.5-19 38v251q0 47-11 70.5t-38 36.5q-28-1-60.5-6t-52.5-11l-8-104-53-4q-13 25-20 57t-9 63q23 13 54.5 25.5t64.5 23 61 17 43 6.5q22 0 43.5-11.5t39-28 24.5-30.5q7-13 9.5-32t2.5-72v-233q0-11 7.5-15.5t18.5-4.5 23.5 3 22.5 6l15-44zm-184 1q-55-6-89.5 12t-51 47.5-16.5 58.5 16.5 57.5 53.5 49.5l220 6-4-54-16 1q-28 3-58.5 2.5t-57-6-43.5-19-17-37.5q0-13 6.5-25.5t19.5-20.5q29-1 60 7t57.5 19 41.5 18v-42z"/><path transform="translate(27.538 16.002) scale(.014 -.014)" d="m102 0v447l49 37 40-35v-449zm60 248-20 58 154 164q34 14 62.5 11t52.5-18q1-19 0-39.5t-3-41.5-6-41.5-9-39.5h-54l-11 110q-25-14-55.5-38t-60-55.5-50.5-69.5zm-135 158-12 47q30 14 67.5 22t68.5 9l13-25-44-46zm7-406-5 33q18 9 48.5 19t49.5 15l-14-67zm141 0 1 67q17 0 40.5-3t45-7 32.5-9l-6-48z"/></svg>