<svg width="155.27" height="24.353" viewBox="0 0 155.27 24.353" xmlns="http://www.w3.org/2000/svg"><path transform="translate(0 18.032) scale(.007 -.007)" d="m247 0q-34 0-46 16t-7 46l306 1729q5 33 19 49.5t55 16.5h935q38 0 50-16.5t12-39.5q0-24-11.5-35.5t-50.5-11.5h-895l-124-699h764q38 0 50-15t12-40q0-23-12-37.5t-50-14.5h-782l-148-842h899q39 0 51-10.5t12-32.5q0-24-13-43.5t-50-19.5z"/><path transform="translate(9.94 18.032) scale(.007 -.007)" d="m271-12q-116 0-169.5 111.5t-17.5 311.5q33 179 107.5 311.5t184 205.5 248.5 73h212l145 815q4 25 21.5 34t39.5 7q28-1 44-17t11-45l-308-1745q-4-28-18.5-39t-35.5-11q-18 0-34 8t-24.5 23-4.5 36l69 390q-105-219-226-344t-244-125zm24 106q64 0 130 59t130.5 156.5 125.5 215.5 114 236l24 138h-185q-112 0-199-61t-145-170-84-253q-24-147 1-234t88-87z"/><path transform="translate(17.22 18.032) scale(.007 -.007)" d="m375-18q-147 0-216 97t-40 260l109 613q2 12 11 30.5t56 18.5q38 0 46.5-19t5.5-36l-107-611q-18-103 20-174.5t125-71.5q83 0 171 87t203 259l90 509q2 11 12.5 34t56.5 23q39 0 46.5-18t4.5-35l-155-881q-4-24-13.5-39t-26.5-21.5-44-6.5q-28 0-35.5 14t-1.5 48l35 203q-97-155-178-219t-175-64z"/><path transform="translate(27.174 18.032) scale(.007 -.007)" d="m0-5q-19 0-33 8t-16.5 24.5 10.5 40.5l901 1730q17 33 26.5 48.5t48.5 15.5q32 0 44.5-11t13.5-31l149-1764q3-29-8-45t-44-16q-39 0-49.5 18.5t-12.5 40.5l-71 894h-420l-453-887q-20-40-34-53t-52-13zm594 1060h357l-31 384v287l-120-268z"/><path transform="translate(35.987 18.032) scale(.007 -.007)" d="m394-18q-122 0-175 123.5t-4 405.5l224 1271q4 22 13.5 39t25 26.5 35.5 9.5q28-1 40.5-18.5t7.5-45.5l-226-1283q-12-71-22-145t-6.5-136.5 29-101 82.5-38.5q110 0 236 104.5t254 293 245 442 209 551.5l56 320q5 24 19.5 40.5t48.5 16.5q37 0 48.5-15t6.5-44l-307-1742q-4-29-22.5-42.5t-41.5-13.5q-28 0-46 15.5t-12 49.5l164 928q-134-342-288-566.5t-307.5-334.5-286.5-110z"/><path transform="translate(49.308 18.032) scale(.007 -.007)" d="m392-5q-31 0-46 22t-19 47l-95 1736q-1 31 9.5 46.5t42.5 15.5q42 0 55-17.5t13-37.5l74-1598 769 1590q18 35 35.5 49t55.5 14q29 0 42-17.5t-6-55.5l-854-1728q-15-31-28-48.5t-48-17.5z"/><path transform="translate(56.427 18.032) scale(.007 -.007)" d="m165 0q-36 0-47.5 14.5t-11.5 37.5q0 25 11.5 39.5t47.5 14.5h84l291 1648h-60q-37 0-49.5 15.5t-12.5 37.5q0 23 12 36.5t50 13.5h260q37 0 48-13.5t11-36.5q0-22-11.5-37.5t-47.5-15.5h-80l-290-1648h67q38 0 50-14.5t12-39.5q0-23-12-37.5t-50-14.5z"/><path transform="translate(61.628 18.032) scale(.007 -.007)" d="m680-5q-103 0-202.5 56.5t-173.5 167.5-103 273.5 9 375.5q22 124 58 261t95 267 151 235.5 224 168 315 62.5q133 0 257.5-60t229.5-172q19-17 22-40.5t-13-38.5q-13-17-34.5-19t-47.5 23q-99 104-206 153.5t-211 49.5q-157 0-271-59t-192.5-156.5-130-215-81.5-237-48-220.5q-32-187-12-330t75.5-240.5 132.5-147.5 159-50q148 0 267 77t239 192q47 41 65.5 69t47.5 28q24 0 36.5-9.5t16.5-30.5q2-13-9-40t-62-83q-125-137-271.5-223.5t-331.5-86.5z"/><path transform="translate(74.207 18.032) scale(.007 -.007)" d="m388-5q-34 0-50.5 18.5t-19.5 50.5l-95 1736q-2 31 8.5 46.5t43.5 15.5q42 0 54-17.5t12-37.5l79-1594 766 1588q7 14 26.5 37.5t48.5 23.5q44 0 57.5-18t16.5-38l81-1584 763 1577q17 33 35.5 48t45.5 15q24 0 39-8t17.5-24-9.5-41l-853-1728q-15-34-32.5-50t-40.5-16q-34 0-47 9.5t-15 34.5l-82 1624-774-1599q-10-24-27.5-46.5t-47.5-22.5z"/><path transform="translate(88.214 18.032) scale(.007 -.007)" d="m0-5q-19 0-33 8t-16.5 24.5 10.5 40.5l901 1730q17 33 26.5 48.5t48.5 15.5q32 0 44.5-11t13.5-31l149-1764q3-29-8-45t-44-16q-39 0-49.5 18.5t-12.5 40.5l-71 894h-420l-453-887q-20-40-34-53t-52-13zm594 1060h357l-31 384v287l-120-268z"/><path transform="translate(99.547 18.032) scale(.007 -.007)" d="m248 0q-32 0-45.5 16.5t-9.5 45.5l306 1728q6 34 19.5 50.5t52.5 16.5q34 0 53-15.5t25-34.5l561-1557 275 1541q5 32 20.5 49t51.5 17q34 0 42-18t0-56l-304-1721q-4-22-12.5-42t-45.5-20q-27 0-42.5 12.5t-22.5 30.5l-583 1583-273-1557q-4-25-15.5-47t-52.5-22z"/><path transform="translate(110.77 18.032) scale(.007 -.007)" d="m590 0q-35 0-46.5 16t-6.5 46l294 1692h-508q-38 0-50 14t-12 38q0 23 12 37t50 14h1129q36 0 47.5-14t11.5-37q0-24-11.5-38t-47.5-14h-503l-296-1692q-3-22-14-42t-49-20z"/><path transform="translate(121.84 18.032) scale(.007 -.007)" d="m246 0q-33 0-45 16t-7 46l305 1728q5 33 21.5 50t53.5 17q29 0 39-18.5t4-55.5l-128-728h861l132 750q4 21 18 36.5t48 15.5q36 0 46.5-16.5t4.5-49.5l-306-1738q-3-19-16-36t-48-17q-40 0-49 19t-5 43l155 886h-860l-156-886q-4-22-15.5-42t-52.5-20z"/><path transform="translate(133.04 18.032) scale(.007 -.007)" d="m267-18q-68 0-118.5 52.5t-70 150 4.5 231.5q33 181 115 312t189.5 202 216.5 71h321q25 0 30-22.5t-2-61.5l-152-861q-2-10-13.5-33t-59.5-23q-38 0-44.5 18t-3.5 33l74 419q-67-138-151-248.5t-171-175-165-64.5zm24 107q68 0 156.5 91t182.5 246.5 178 348.5l22 124h-216q-82 0-166.5-59t-150.5-166-93-252q-25-149 7-241t80-92z"/><path transform="translate(140.36 18.032) scale(.007 -.007)" d="m141 0q-38 0-45 17.5t-4 31.5l156 885q4 24 13 38.5t25.5 21.5 42.5 7q29 0 37.5-14t2.5-48l-36-201q96 146 182 213.5t198 67.5q100 0 162-51.5t85.5-133.5 7.5-173l-109-612q-1-12-10-30.5t-56-18.5q-37 0-46.5 18.5t-6.5 36.5l108 611q10 52 2.5 109t-41.5 97.5-105 40.5q-89 0-184-84.5t-217-261.5l-90-512q-2-12-13.5-33.5t-58.5-21.5z"/><path transform="translate(147.99 18.032) scale(.007 -.007)" d="m271-12q-116 0-169.5 111.5t-17.5 311.5q33 179 107.5 311.5t184 205.5 248.5 73h212l145 815q4 25 21.5 34t39.5 7q28-1 44-17t11-45l-308-1745q-4-28-18.5-39t-35.5-11q-18 0-34 8t-24.5 23-4.5 36l69 390q-105-219-226-344t-244-125zm24 106q64 0 130 59t130.5 156.5 125.5 215.5 114 236l24 138h-185q-112 0-199-61t-145-170-84-253q-24-147 1-234t88-87z"/></svg>