<svg width="192.76" height="27.832" viewBox="0 0 192.76 27.832" xmlns="http://www.w3.org/2000/svg"><path transform="translate(0 20.608) scale(.008 -.008)" d="m266 0q-43 0-61 25t-12 62l298 1687q6 35 25 59t70 24h908q47 0 64.5-25t17.5-52q0-30-17.5-50t-64.5-20h-854l-113-637h718q49 0 65.5-23.5t17.5-52.5q1-22-16.5-44.5t-65.5-22.5h-744l-138-780h853q47 0 65-19.5t18-47.5q0-27-17.5-55t-65.5-28zm0 19h951q38 0 52 20.5t14 43.5-13 35.5-53 12.5h-874l143 817h760q39 0 51.5 15t12.5 34q-1 25-13 41.5t-52 16.5h-740l119 674h870q39 0 51.5 13t12.5 38q0 23-13 41t-51 18h-908q-42 0-56.5-18t-20.5-51l-298-1687q-6-30 7.5-47t47.5-17zm248 1420-9 65 12-2 34 195 16-2-34-196 12-1zm59 294q-17 0-29 12.5t-12 29.5 12 29.5 29 12.5 29.5-12.5 12.5-29.5-12.5-29.5-29.5-12.5z"/><path transform="translate(11.36 20.608) scale(.008 -.008)" d="m289-12q-125 0-183.5 118.5t-21.5 320.5q33 178 109 308.5t188 202 253 71.5h188l139 788q6 35 33.5 48.5t52.5 11.5q34-2 58-25.5t17-61.5l-305-1702q-7-37-28.5-52.5t-47.5-15.5q-22 0-42.5 11t-32 32-6.5 49l46 255q-56-93-124.5-175t-143-133-149.5-51zm0 18q72 0 144.5 51.5t139.5 133.5 123 175q23 38 30 34t1-41l-48-271q-6-33 14-51t48-18q22 0 37.5 11t20.5 40l305 1703q6 30-12 47t-47 19q-21 2-40.5-8t-24.5-36l-142-804h-204q-204 0-344-152t-188-414q-35-196 18-307.5t169-111.5zm24 113q-58 0-83.5 83t-2.5 225q38 209 146.5 330t269.5 121h175l-20-111q-52-115-112-230t-123-209.5-126.5-151.5-123.5-57zm0 19q56 0 116 55t121 147 119.5 204.5 111.5 227.5l15 88h-153q-154 0-257-116t-141-319q-22-138-0.5-212.5t68.5-74.5zm238 764-65 4 54 35 4-12q48 12 100 13.5t101 1.5v-15q-49 0-99.5-1t-97.5-14zm276-8q-17 0-29.5 12t-12.5 29 12.5 29.5 29.5 12.5 29.5-12.5 12.5-29.5-12.5-29-29.5-12z"/><path transform="translate(19.68 20.608) scale(.008 -.008)" d="m388-18q-151 0-225 100t-44 267l104 585q2 7 6 23t22 30 59 14q52 0 62.5-30t6.5-49l-103-586q-16-91 16.5-148.5t105.5-57.5q72 0 152 76.5t189 239.5l85 481q2 7 7.5 25t24 33.5 57.5 15.5q54 0 65-29t7-48l-149-842q-4-27-17-45t-34.5-27.5-52.5-9.5q-40 0-52 24t-5 62l18 101q-77-105-149.5-155t-155.5-50zm0 18q79 0 149 49t146 156q23 32 29 28.5t1-35.5l-20-115q-7-34 1.5-49.5t37.5-15.5q27 0 44.5 7t27.5 22 14 39l149 841q3 17-5 36t-49 19q-47 0-58-23.5t-13-34.5l-86-486q-110-165-195-246t-163-81q-82 0-119 65.5t-20 162.5l103 586q2 17-5.5 37t-46.5 20q-49 0-58.5-20t-11.5-31l-103-586q-28-160 40-252.5t211-92.5zm-147 585-9 64 12-1 34 195 16-3-34-195 12-2zm59 294q-18 0-30 12t-12 29q0 18 12 30t30 12q17 0 29-12t12-30q0-17-12-29t-29-12z"/><path transform="translate(31.056 20.608) scale(.008 -.008)" d="m22 0q-24 0-44 12.5t-25.5 36.5 11.5 56l874 1678q14 28 27.5 51t65.5 23q40 0 58.5-17.5t20.5-42.5l144-1713q3-36-13.5-60t-59.5-24q-51 0-65.5 28t-16.5 50l-68 854h-370l-436-855q-20-40-39-58.5t-64-18.5zm0 19q38 0 52.5 13.5t34.5 52.5l441 866h398l69-872q2-21 13-40.5t51-19.5q34 0 46 16.5t9 46.5l-145 1713q-1 19-14.5 31.5t-45.5 12.5q-40 0-50-16.5t-27-47.5l-875-1679q-20-38-3.5-57.5t46.5-19.5zm611 1053h286l-37 490zm-30-17 270 530q13 26 18 25t7-30l41-525zm156 421 10 65 11-5 90 176 14-7-90-177 11-5zm167 257q-17 0-29 12.5t-12 29.5 12 29.5 29 12.5q18 0 30-12.5t12-29.5-12-29.5-30-12.5z"/><path transform="translate(41.128 20.608) scale(.008 -.008)" d="m412-13q-87 0-143 57t-72 176 18 306l224 1239q4 24 16 45t31.5 33.5 44.5 12.5q37-2 56.5-28.5t12.5-60.5l-227-1250q-12-68-21-135.5t-6-123 23.5-89 66.5-33.5q100 0 218 99t239.5 279 234 423 201.5 531l55 314q6 28 25.5 51t62.5 23q47 0 64.5-24.5t11.5-60.5l-300-1703q-6-35-32-53.5t-53-18.5q-34 0-57 23t-16 67l127 733q-73-174-170-325t-205.5-265-218.5-178-211-64zm0 19q126 0 268 105.5t279.5 294.5 249.5 440q26 59 32.5 52t-1.5-55l-133-761q-6-34 11-50.5t45-16.5q22 0 42 14t24 43l301 1702q6 30-7 47t-51 17q-35 0-50-17.5t-20-41.5l-55-315q-90-289-203.5-534.5t-237-427.5-244.5-283-226-101q-54 0-78.5 36.5t-28.5 96 5 130.5 21 139l227 1250q5 28-9 47t-43 21q-30 0-49-22t-25-54l-223-1239q-32-183-18.5-297t65-167 132.5-53zm46 1433-9 65 12-2 34 195 16-2-34-196 12-1zm59 294q-17 0-29 12.5t-12 29.5 12 29.5 29 12.5 29.5-12.5 12.5-29.5-12.5-29.5-29.5-12.5z"/><path transform="translate(56.352 20.608) scale(.008 -.008)" d="m410 0q-41 0-62 29.5t-23 57.5l-93 1686q-1 35 15 59.5t59 24.5q53 0 69.5-26t17.5-49l69-1461 708 1462q18 38 41 56t67 18q24 0 42.5-12t24-35-11.5-56l-829-1677q-14-30-31-53.5t-63-23.5zm0 19q37 0 49.5 17.5t28.5 48.5l829 1676q19 39 4.5 58.5t-43.5 19.5q-39 0-57-14.5t-35-49.5l-719-1486q-13-27-16.5-27t-5.5 28l-69 1491q-1 20-13.5 39t-56.5 19q-34 0-45-17t-10-48l92-1685q2-25 18.5-47.5t48.5-22.5zm-79 1416-24 61 13 1-11 198 16 1 11-198 12 1zm-20 298q-17 0-29.5 12.5t-12.5 29.5 12.5 29.5 29.5 12.5 29.5-12.5 12.5-29.5-12.5-29.5-29.5-12.5z"/><path transform="translate(64.488 20.608) scale(.008 -.008)" d="m272 0q-46 0-63 23t-17 50q0 29 17 53t63 24h63l272 1560h-28q-48 0-65 24.5t-17 51.5q0 28 17 49.5t65 21.5h253q46 0 63-21.5t17-49.5q0-27-17-51.5t-63-24.5h-59l-275-1560h38q49 0 66-23.5t17-53.5q0-27-17-50t-66-23zm0 19h264q40 0 52.5 16t12.5 38q0 25-12.5 41.5t-52.5 16.5h-59l280 1598h75q37 0 49.5 17t12.5 40q0 24-12 38.5t-50 14.5h-253q-38 0-51-14.5t-13-38.5q0-23 13-40t51-17h50l-278-1598h-79q-37 0-49.5-16.5t-12.5-41.5q0-22 12.5-38t49.5-16zm362 1371-9 65 12-2 34 195 16-2-35-196 12-1zm57 295q-17 0-29 12.5t-12 29.5 12 29.5 29 12.5 29.5-12.5 12.5-29.5-12.5-29.5-29.5-12.5z"/><path transform="translate(69.36 20.608) scale(.008 -.008)" d="m688 0q-104 0-205 57t-176.5 168.5-105.5 274 8 373.5q22 121 57.5 256t94.5 264.5 150.5 234 224 167 314.5 62.5q134 0 261-63t227-169q24-25 27.5-54.5t-16.5-52.5q-19-21-50-25t-63 28q-94 98-193 143.5t-196 45.5q-146 0-253-55.5t-181-147-122-203-77-225-46-211.5q-30-176-12-310.5t69-225 121-136.5 144-46q137 0 248.5 72t226.5 182q42 37 64 69t61 32q30 0 50.5-14.5t25.5-43.5q2-16-10.5-48t-65.5-91q-122-134-269.5-221t-332.5-87zm0 19q180 0 323.5 84t264.5 217q51 56 62.5 83.5t9.5 40.5q-4 22-18 32.5t-40 10.5q-30 0-48.5-28.5t-64.5-67.5q-115-111-229.5-185.5t-257.5-74.5q-78 0-151.5 48t-127 141.5-73 231.5 11.5 318q17 98 46.5 213.5t79 229.5 125.5 208 185.5 151 260.5 57q100 0 203.5-47.5t198.5-148.5q26-25 49-22.5t37 19.5q17 16 13.5 40.5t-21.5 41.5q-103 110-224.5 168.5t-252.5 58.5q-178 0-307-61t-218.5-164-147.5-230-93-260-57-254q-37-207-8.5-366t101.5-267 170.5-163 197.5-55zm740 1598q-32 32-60 53.5t-66 40.5l-5-10-46 43 63-8-5-11q39-19 68.5-41.5t61.5-55.5zm64-91q-17 0-29.5 12.5t-12.5 29.5 12.5 29.5 29.5 12.5 29.5-12.5 12.5-29.5-12.5-29.5-29.5-12.5z"/><path transform="translate(83.736 20.608) scale(.008 -.008)" d="m406 0q-41 0-64.5 25t-25.5 62l-93 1686q-1 35 15 59.5t59 24.5q54 0 70.5-26t17.5-49l71-1457 704 1460q5 11 17.5 28t32 30.5 44.5 13.5q56 0 75-26t20-49l74-1449 702 1450q17 37 41.5 55.5t57.5 18.5q29 0 49.5-12t26.5-35-10-56l-827-1677q-18-37-40-57t-52-20q-40 0-60.5 15.5t-22.5 48.5l-75 1487-713-1471q-11-23-32-51.5t-62-28.5zm0 19q32 0 49 23t28 45l722 1490q13 27 18 28.5t6-27.5l77-1513q2-25 16-35.5t49-10.5q25 0 42 16t33 49l827 1677q20 39 3.5 58.5t-52.5 19.5q-28 0-47.5-15.5t-35.5-48.5l-708-1462q-13-28-19.5-29t-8.5 30l-74 1467q-1 20-16.5 39t-60.5 19q-30 0-50-24t-27-38l-714-1480q-12-25-16.5-26t-6.5 23l-73 1487q-1 20-13.5 39t-56.5 19q-34 0-45-17t-10-48l92-1685q5-70 72-70zm-86 1416-24 61 13 1-11 198 16 1 11-198 12 1zm-20 298q-17 0-29.5 12.5t-12.5 29.5 12.5 29.5 29.5 12.5 29.5-12.5 12.5-29.5-12.5-29.5-29.5-12.5z"/><path transform="translate(99.744 20.608) scale(.008 -.008)" d="m22 0q-24 0-44 12.5t-25.5 36.5 11.5 56l874 1678q14 28 27.5 51t65.5 23q40 0 58.5-17.5t20.5-42.5l144-1713q3-36-13.5-60t-59.5-24q-51 0-65.5 28t-16.5 50l-68 854h-370l-436-855q-20-40-39-58.5t-64-18.5zm0 19q38 0 52.5 13.5t34.5 52.5l441 866h398l69-872q2-21 13-40.5t51-19.5q34 0 46 16.5t9 46.5l-145 1713q-1 19-14.5 31.5t-45.5 12.5q-40 0-50-16.5t-27-47.5l-875-1679q-20-38-3.5-57.5t46.5-19.5zm611 1053h286l-37 490zm-30-17 270 530q13 26 18 25t7-30l41-525zm156 421 10 65 11-5 90 176 14-7-90-177 11-5zm167 257q-17 0-29 12.5t-12 29.5 12 29.5 29 12.5q18 0 30-12.5t12-29.5-12-29.5-30-12.5z"/><path transform="translate(112.7 20.608) scale(.008 -.008)" d="m266 0q-42 0-60.5 25.5t-12.5 61.5l295 1687q6 35 24 59t67 24q42 0 66.5-21t32.5-41l514-1436 251 1414q6 36 26.5 60t65.5 24q47 0 59-29t5-70l-295-1678q-4-22-16-51t-63-29q-33 0-54.5 17t-29.5 39l-536 1467-251-1436q-5-26-20.5-56.5t-67.5-30.5zm0 19q41 0 53 23t16 48l257 1460q4 26 9 26t14-26l544-1487q7-19 23-31.5t43-12.5q39 0 48.5 21t12.5 42l295 1679q8 38-1.5 58t-44.5 20q-37 0-53-18.5t-21-50.5l-256-1441q-4-23-9-23t-13 23l-523 1459q-6 18-25.5 34.5t-55.5 16.5q-39 0-53.5-17.5t-20.5-51.5l-295-1687q-4-29 9-46.5t47-17.5zm4 16q-18 0-30 12.5t-12 29.5 12 29 30 12q17 0 29-12t12-29-12-29.5-29-12.5zm22 120-16 3 34 195-12 2 31 58 9-64-12 2z"/><path transform="translate(125.52 20.608) scale(.008 -.008)" d="m601 0q-43 0-62 25.5t-11 61.5l281 1623h-465q-48 0-65.5 23t-17.5 51q0 27 17 50t66 23h1095q47 0 63.5-23t16.5-50q0-28-17-51t-63-23h-468l-285-1630q-4-22-18.5-51t-66.5-29zm0 19q41 0 52.5 21t14.5 42l287 1647h484q38 0 50 16t12 39-12.5 39-49.5 16h-1095q-39 0-52-16t-13-39 12.5-39 52.5-16h487l-285-1646q-7-29 6.5-46.5t48.5-17.5zm232 1371-9 65 12-2 34 195 16-2-34-196 12-1zm58 297q-17 0-29 12.5t-12 29.5 12 29 29 12q18 0 30-12t12-29-12-29.5-30-12.5z"/><path transform="translate(138.17 20.608) scale(.008 -.008)" d="m22 0q-24 0-44 12.5t-25.5 36.5 11.5 56l874 1678q14 28 27.5 51t65.5 23q40 0 58.5-17.5t20.5-42.5l144-1713q3-36-13.5-60t-59.5-24q-51 0-65.5 28t-16.5 50l-68 854h-370l-436-855q-20-40-39-58.5t-64-18.5zm0 19q38 0 52.5 13.5t34.5 52.5l441 866h398l69-872q2-21 13-40.5t51-19.5q34 0 46 16.5t9 46.5l-145 1713q-1 19-14.5 31.5t-45.5 12.5q-40 0-50-16.5t-27-47.5l-875-1679q-20-38-3.5-57.5t46.5-19.5zm611 1053h286l-37 490zm-30-17 270 530q13 26 18 25t7-30l41-525zm156 421 10 65 11-5 90 176 14-7-90-177 11-5zm167 257q-17 0-29 12.5t-12 29.5 12 29.5 29 12.5q18 0 30-12.5t12-29.5-12-29.5-30-12.5z"/><path transform="translate(148.24 20.608) scale(.008 -.008)" d="m162 0q-21 0-38.5 10t-26.5 29.5-4 46.5l148 832q7 40 34 61.5t55 21.5q30 0 52.5-24.5t14.5-71.5l-19-111q45 72 95 120.5t100.5 73.5 96.5 25q51 0 72-20t32-40 33-20q20 0 44 12.5t38 22.5q31 21 65 24.5t58-11 24-48.5q0-24-11.5-44t-31-36-42.5-30q-38-23-80-33t-67-10q-45 0-74 20.5t-48 41-36 20.5q-21 0-60-24.5t-100.5-93.5-151.5-204l-81-457q-5-40-33.5-61.5t-57.5-21.5zm0 19q24 0 46.5 16.5t27.5 50.5l80 461q93 138 157.5 210t106.5 98 66 26q23 0 44.5-21t48-42 65.5-21q23 0 62 9.5t75 32.5q34 20 55 42t21 52q0 25-18 35.5t-45 7-54-21.5q-15-10-42.5-24.5t-50.5-14.5q-32 0-46.5 20t-32 39.5-58.5 19.5q-67 0-144.5-57t-142.5-171q-18-29-25.5-27.5t-1.5 32.5l24 137q7 39-10 57t-40 18-44-17-27-51l-147-832q-7-33 8.5-48.5t41.5-15.5zm102 566-9 64 12-1 34 195 16-3-34-195 12-2zm59 294q-17 0-29 12t-12 29q0 18 12 30t29 12q18 0 30-12t12-30q0-17-12-29t-30-12z"/><path transform="translate(155.41 20.608) scale(.008 -.008)" d="m162 0q-21 0-38.5 10t-26.5 29.5-4 46.5l148 832q7 40 34 61.5t55 21.5q30 0 52.5-24.5t14.5-71.5l-19-111q45 72 95 120.5t100.5 73.5 96.5 25q51 0 72-20t32-40 33-20q20 0 44 12.5t38 22.5q31 21 65 24.5t58-11 24-48.5q0-24-11.5-44t-31-36-42.5-30q-38-23-80-33t-67-10q-45 0-74 20.5t-48 41-36 20.5q-21 0-60-24.5t-100.5-93.5-151.5-204l-81-457q-5-40-33.5-61.5t-57.5-21.5zm0 19q24 0 46.5 16.5t27.5 50.5l80 461q93 138 157.5 210t106.5 98 66 26q23 0 44.5-21t48-42 65.5-21q23 0 62 9.5t75 32.5q34 20 55 42t21 52q0 25-18 35.5t-45 7-54-21.5q-15-10-42.5-24.5t-50.5-14.5q-32 0-46.5 20t-32 39.5-58.5 19.5q-67 0-144.5-57t-142.5-171q-18-29-25.5-27.5t-1.5 32.5l24 137q7 39-10 57t-40 18-44-17-27-51l-147-832q-7-33 8.5-48.5t41.5-15.5zm102 566-9 64 12-1 34 195 16-3-34-195 12-2zm59 294q-17 0-29 12t-12 29q0 18 12 30t29 12q18 0 30-12t12-30q0-17-12-29t-30-12z"/><path transform="translate(162.58 20.608) scale(.008 -.008)" d="m421-12q-152 0-242 102t-90 274q0 185 59.5 331.5t162.5 232 234 85.5q161 0 254.5-97.5t93.5-266.5q0-141-35-261.5t-99-210-150-139.5-188-50zm0 18q98 0 181 48t144 135 95 204 34 256q0 163-87.5 254t-242.5 91q-125 0-224.5-82t-156.5-224.5-57-323.5q0-166 84.5-262t229.5-96zm0 112q-89 0-140 76t-51 197q0 137 41 248t112.5 177 161.5 66q95 0 152.5-65.5t57.5-169.5q0-148-43.5-267.5t-119-190.5-171.5-71zm0 18q90 0 161 67.5t112.5 183 41.5 260.5q0 99-51 158.5t-140 59.5q-84 0-151-62.5t-106-170-39-241.5q0-116 46-185.5t126-69.5zm24 786 56 31 1-12q44 9 83 4t81-26l-7-14q-42 20-77 24.5t-77-3.5l4-10zm287-93q-18 0-30 12t-12 29q0 18 12 30t30 12q17 0 29-12t12-30q0-17-12-29t-29-12z"/><path transform="translate(170.27 20.608) scale(.008 -.008)" d="m293-12q-79 0-123.5 47.5t-58.5 118.5-1 143l110 621q7 41 36 62t56 21q32 0 54-24.5t14-71.5l-109-612q-15-80 9.5-118.5t53.5-38.5q52 0 110.5 53t119 139.5 118.5 188.5 108.5 202 89.5 178q24 46 46.5 75t65.5 29q30 0 54-24.5t15-71.5l-111-612q-10-52 6.5-87t43-52.5 44.5-17.5q55 0 111.5 54t112 141.5 107.5 190 98.5 201.5 84.5 174q27 45 47.5 74.5t63.5 29.5q6 0 33.5-5t79-15 127.5-25q41-8 58-30t17-50q0-51-39-70.5t-90-9.5l-151 35-9-18q-12-27-44-97t-80.5-163.5-110.5-192-134.5-183-153-137-165.5-52.5q-79 0-132.5 47.5t-76 118.5-8.5 143l42 220q-78-137-161.5-258t-177-196-200.5-75zm0 18q106 0 198.5 78t176.5 203.5 164 267.5q17 29 23.5 24.5t1.5-27.5l-50-259q-13-68 7.5-134.5t70-109.5 122.5-43q82 0 159.5 52t148 135.5 130.5 180.5 107.5 189.5 80 162 46.5 95.5l15 30 165-37q46-10 76.5 5t30.5 57q0 23-13 39t-48 23q-76 15-127 24.5t-77.5 14.5-31.5 5q-34 0-51-24t-44-70q-38-75-84.5-175t-99.5-204-110.5-193-117-144-118.5-55q-22 0-53 20.5t-50.5 60.5-9.5 99l111 611q8 39-8.5 56.5t-41.5 17.5q-34 0-53-24t-42-69q-39-78-90.5-179t-110-204.5-121-192-124-142.5-117.5-54q-37 0-67 46t-14 134l109 611q8 39-8 56.5t-42 17.5q-22 0-44.5-16.5t-28.5-50.5l-111-622q-12-69 0-135t52.5-109 112.5-43zm-54 579-10 64 12-1 35 195 15-3-34-195 12-2zm63 294q-17 0-29 12t-12 29q0 18 12 30t29 12 29.5-12 12.5-30q0-17-12.5-29t-29.5-12z"/><path transform="translate(185.76 20.608) scale(.008 -.008)" d="m418-12q-58 0-136.5 24.5t-150.5 79.5q-35 26-60.5 56t-0.5 70q11 20 33.5 27t49 1.5 49.5-22.5q32-23 91-55.5t125-32.5q74 0 118.5 37t44.5 92q0 38-18.5 63t-44.5 48q-29 23-77.5 53.5t-107.5 65.5q-61 38-118 105t-57 153q0 116 91.5 182t246.5 66q57 0 124-13.5t145-58.5q44-25 60.5-60.5t-3.5-67.5q-18-29-55-33t-77 15q-25 14-77 42t-117 28q-85 0-132.5-27t-47.5-73q0-37 38.5-70.5t84.5-65.5q56-40 110.5-69t101.5-79q38-36 64-84t26-128q0-77-42.5-138t-115.5-96-165-35zm0 18q132 0 218.5 71t86.5 180q0 76-24 120t-61 79q-45 47-98 76.5t-111 69.5q-46 32-88.5 69.5t-42.5 81.5q0 55 54.5 86.5t143.5 31.5q69 0 123.5-29t78.5-43q35-16 65-13.5t44 24.5q16 26 1.5 53.5t-52.5 49.5q-75 44-139.5 56.5t-120.5 12.5q-151 0-235.5-60.5t-84.5-168.5q0-80 53.5-142.5t112.5-99.5q59-36 108-67t80-55q27-23 48-51.5t21-72.5q0-64-51-106t-130-42q-70 0-132.5 35t-95.5 58q-29 22-60.5 22t-43.5-22q-19-31 1-54t55-50q71-52 145.5-76t130.5-24zm261 864q-43 24-91.5 36t-98.5 13v-12l-61 17 62 22-1-12q106 0 196-51zm77-71q-17 0-29.5 12.5t-12.5 29.5 12.5 29 29.5 12 29-12 12-29-12-29.5-29-12.5z"/></svg>