<svg width="111.97" height="20.16" viewBox="0 0 111.97 20.16" xmlns="http://www.w3.org/2000/svg"><path transform="translate(0 16.256) scale(.016 -.016)" d="m46 0q-16 0-22 10.5t-3 23.5l176 709q4 14 11.5 21.5t26.5 7.5q20 0 22-12.5t-2-28.5l-173-700q-3-9-9.5-20t-26.5-11zm2 0 14 53h337q14 0 22.5-6t8.5-17q0-13-8.5-21.5t-22.5-8.5zm86 366 13 53h234q14 0 22.5-6.5t8.5-19.5q0-12-8.5-19.5t-22.5-7.5zm87 353 14 53h317q14 0 22.5-6.5t8.5-19.5-8.5-20-22.5-7z"/><path transform="translate(9.072 16.256) scale(.016 -.016)" d="m293 0q-30 0-47 20.5t-20 59 10 91.5l144 572q5 16 14.5 22.5t26.5 6.5q15 0 19.5-9.5t0.5-23.5l-146-581q-12-48-11-76.5t15-28.5q10 0 28.5 20t46.5 58q17 21 25.5 30t19.5 9 17.5-7.5 6.5-19.5q0-10-5.5-19.5t-22.5-32.5q-36-45-66-68t-56-23zm-190 0q-59 0-84.5 56t-3.5 148q17 65 47.5 113.5t71.5 76 88 27.5q36 0 55.5-25t22-71-13.5-109q-16-67-44-115.5t-63.5-74.5-75.5-26zm13 53q43 0 79.5 49t55.5 125q17 70 5.5 105t-47.5 35q-43 0-79-48.5t-55-124.5q-17-70-5.5-105.5t46.5-35.5z"/><path transform="translate(16.944 16.256) scale(.016 -.016)" d="m82 0q-28 0-46 11t-24.5 35-3 61.5 16.5 89.5l47 189q5 16 14.5 23t26.5 7q15 0 19.5-9.5t0.5-23.5l-49-192q-12-48-15-78t4-44 23-14 39.5 17 50 44.5 50.5 60.5 42 65.5 25 58.5l-29-135q-27-48-60-85.5t-67-59-65-21.5zm177 0q-19 0-22 13t1 29l86 344q5 16 14.5 23t26.5 7q15 0 19.5-9.5t0.5-23.5l-87-345q-4-16-10-27t-29-11z"/><path transform="translate(29.008 16.256) scale(.016 -.016)" d="m188 0q-16 0-22.5 12t-3.5 25l177 707h61l-179-717q-1-9-9-18t-24-9zm-30 719q-18 0-24.5 8t-6.5 18q0 11 6.5 19t24.5 8h421q17 0 23.5-8t6.5-19q0-10-6.5-18t-23.5-8z"/><path transform="translate(37.712 16.256) scale(.016 -.016)" d="m-31 0q-9 0-15.5 5t-7.5 14 6 20l435 706q8 11 14.5 19t23.5 8q13 0 20.5-7.5t7.5-16.5l9-719q0-13-6.5-21t-23.5-8q-12 0-18 4t-8 9.5-2 11.5l-7 663 19-5-404-656q-10-16-17.5-21.5t-25.5-5.5zm233 388 30 54h196l1-54z"/><path transform="translate(46.912 16.256) scale(.016 -.016)" d="m209 0q-80 0-132.5 52t-62.5 142q-2 26 28 28 14 1 22.5-4.5t9.5-17.5q7-67 44-106t95-39q60 0 104.5 40t60.5 109q17 74-9 115t-102 61q-93 25-131.5 74t-21.5 121q14 57 54 101.5t94.5 70 110.5 25.5q61 0 99.5-38t59.5-114q3-9-2.5-20t-19.5-13q-11-2-21.5 2t-14.5 16q-19 57-44 85t-63 28q-41 0-82-21t-71.5-56-41.5-79q-11-43 15.5-74t90.5-48q109-28 146-86t13-159q-15-60-48-104t-78.5-67.5-101.5-23.5z"/><path transform="translate(60.736 16.256) scale(.016 -.016)" d="m158 410 13 39q126-9 197 16t85 85q13 53-7.5 90.5t-71 58-127.5 20.5l-13 53q103 1 171-26.5t95.5-78.5 10.5-123q-19-82-108-113t-245-21zm-109-410 32 52q101 0 171.5 14.5t111.5 44 52 73.5q14 57-12.5 101t-88.5 71.5-156 33.5l12 41q167-11 248.5-79.5t53.5-180.5q-22-85-128-128t-296-43zm0 0q-15 1-22.5 12.5t-3.5 26.5l174 704q5 17 13.5 23.5t23.5 5.5q17-1 22.5-10t0.5-29l-175-701q-4-18-12.5-25.5t-20.5-6.5z"/><path transform="translate(69.616 16.256) scale(.016 -.016)" d="m103 0q-39 0-64 25.5t-32 71.5 8 107q17 65 47.5 113.5t71.5 76 88 27.5q37 0 61.5-22t24.5-54q0-37-36.5-77t-99-75.5-141.5-60.5l12 65q59 17 105 41t73 51 27 52q0 11-11 18.5t-28 7.5q-28 0-54-22t-46.5-61-33.5-90q-17-70-5.5-105.5t46.5-35.5 79.5 34 103.5 101q8 10 21 10.5t23-7.5q9-7 9.5-18.5t-7.5-22.5q-65-75-124-112.5t-118-37.5z"/><path transform="translate(76.208 16.256) scale(.016 -.016)" d="m103 0q-59 0-84.5 56t-3.5 148q17 65 47.5 113.5t71.5 76 88 27.5q36 0 55.5-25t22-71-13.5-109q-16-67-44-115.5t-63.5-74.5-75.5-26zm13 53q43 0 79.5 49t55.5 125q17 70 5.5 105t-47.5 35q-43 0-79-48.5t-55-124.5q-17-70-5.5-105.5t46.5-35.5zm-47-409q-42 0-75.5 23t-58.5 69q-5 9-2 17.5t10.5 14 14.5 6.5q11 2 18.5-1t11.5-9q20-33 42-50t44-17q23 0 39 19.5t26 58.5l154 618q2 9 12 16t23 7q13-1 21-8t5-18l-154-619q-16-64-49-95.5t-82-31.5z"/><path transform="translate(82.4 16.256) scale(.016 -.016)" d="m20 0q-19 0-22 13t1 29l87 344q4 16 13.5 23t26.5 7q15 0 19.5-9.5t0.5-23.5l-87-345q-4-16-10-27t-29-11zm139 520q-15 0-25 11.5t-10 24.5 9.5 23.5 25.5 10.5q14 0 25.5-9.5t11.5-24.5q0-13-11-24.5t-26-11.5z"/><path transform="translate(85.504 16.256) scale(.016 -.016)" d="m272 0q-19 0-22 13t1 29l46 181q13 49 15.5 80.5t-4.5 47-23 15.5-40.5-17.5-52.5-46-54-62.5-45-67-26-59l28 134q28 49 64 88t73 62 67 23q29 0 46.5-12t24-37 3.5-63.5-17-91.5l-45-179q-4-16-10-27t-29-11zm-264 0q-19 0-22 13t1 29l87 344q5 16 14 23t26 7q15 0 19.5-9.5t0.5-23.5l-86-345q-4-16-10.5-27t-29.5-11z"/><path transform="translate(92.416 16.256) scale(.016 -.016)" d="m272 0q-19 0-22 13t1 29l46 181q13 49 15.5 80.5t-4.5 47-23 15.5-40.5-17.5-52.5-46-54-62.5-45-67-26-59l28 134q28 49 64 88t73 62 67 23q29 0 46.5-12t24-37 3.5-63.5-17-91.5l-45-179q-4-16-10-27t-29-11zm-264 0q-19 0-22 13t1 29l87 344q5 16 14 23t26 7q15 0 19.5-9.5t0.5-23.5l-86-345q-4-16-10.5-27t-29.5-11z"/><path transform="translate(99.328 16.256) scale(.016 -.016)" d="m103 0q-39 0-64 25.5t-32 71.5 8 107q17 65 47.5 113.5t71.5 76 88 27.5q37 0 61.5-22t24.5-54q0-37-36.5-77t-99-75.5-141.5-60.5l12 65q59 17 105 41t73 51 27 52q0 11-11 18.5t-28 7.5q-28 0-54-22t-46.5-61-33.5-90q-17-70-5.5-105.5t46.5-35.5 79.5 34 103.5 101q8 10 21 10.5t23-7.5q9-7 9.5-18.5t-7.5-22.5q-65-75-124-112.5t-118-37.5z"/><path transform="translate(105.92 16.256) scale(.016 -.016)" d="m8 0q-19 0-22 13t1 29l87 344q5 16 14 23.5t26 6.5q15-1 19.5-10t0.5-23l-86-345q-4-16-10.5-27t-29.5-11zm59 114 28 134q28 49 62 88t69 62 66 23q54 0 74-76 2-12-5-20.5t-18-10.5q-15-4-25 1t-13 18q-6 33-27 33-16 0-40-17.5t-51-46-52-62.5-43-67-25-59z"/></svg>