<svg width="157.6" height="20.16" viewBox="0 0 157.6 20.16" xmlns="http://www.w3.org/2000/svg"><path transform="translate(0 16.256) scale(.016 -.016)" d="m69 0q-16 0-23 9.5t-4 22.5l124 708q3 14 10 23t26 9h381q18 0 24.5-9t6.5-20-6.5-18-24.5-7h-361l-115-663h360q18 0 24.5-6.5t6.5-17.5q0-10-6.5-20.5t-24.5-10.5zm62 361 9 55h334q18 0 24.5-8.5t6.5-19.5q0-10-6.5-18.5t-24.5-8.5z"/><path transform="translate(9.408 16.256) scale(.016 -.016)" d="m129-5q-58 0-85.5 48.5t-12.5 131.5q14 74 51.5 128t94.5 83.5 128 29.5h62l-9-55h-49q-85 0-143.5-50t-74.5-136q-10-58 4.5-91.5t43.5-33.5q41 0 89.5 72.5t95.5 198.5l-14-133q-35-97-84.5-145t-96.5-48zm174 5q-13 0-22.5 9t-7.5 25l126 716q3 13 12.5 18t19.5 4q13-1 21.5-9.5t6.5-22.5l-128-715q-2-13-10-19t-18-6z"/><path transform="translate(16.368 16.256) scale(.016 -.016)" d="m147-5q-62 0-92 39.5t-18 108.5l44 248q1 5 5.5 15t27.5 10q20 0 23.5-10.5t2.5-18.5l-44-248q-7-40 8-64.5t47-24.5q35 0 73.5 38.5t91.5 120.5l-12-85q-43-69-79.5-99t-77.5-30zm146 5q-15 0-18.5 8.5t-2.5 23.5l63 356q1 5 6.5 16.5t27.5 11.5q20 0 24-10t3-18l-63-356q-2-10-7-17.5t-13-11-20-3.5z"/><path transform="translate(27.568 16.256) scale(.016 -.016)" d="m179 0q-16 0-23 11t-9 22l-39 708q-1 14 5 22.5t22 8.5q20 0 26.5-9.5t6.5-18.5l30-644-7 3 310 640q8 15 16.5 22t25.5 7q14 0 21.5-10t-1.5-28l-348-704q-6-13-12.5-21.5t-23.5-8.5z"/><path transform="translate(35.488 16.256) scale(.016 -.016)" d="m97 29 126 719 61-1-126-718zm-25-29q-17 0-23.5 8.5t-6.5 18.5q0 11 6.5 19.5t23.5 8.5h111q18 0 24.5-8.5t6.5-19.5q0-10-6.5-18.5t-24.5-8.5zm129 718q-18 0-24.5 9t-6.5 19q0 11 6.5 18.5t24.5 7.5h106q17 0 23.5-7.5t6.5-18.5q0-10-6.5-19t-23.5-9z"/><path transform="translate(40.736 16.256) scale(.016 -.016)" d="m273 0q-43 0-84.5 23.5t-72.5 69.5-43.5 113.5 3.5 155.5q9 51 24 107t39.5 110 62.5 97.5 92.5 69.5 130.5 26q56 0 108-25t95-71q8-8 10-20t-6-20q-7-8-18.5-9.5t-23.5 10.5q-40 42-82.5 61.5t-83.5 19.5q-62 0-107.5-23.5t-77-62.5-52-86.5-33-95.5-19.5-89q-17-99 1.5-167.5t57-103.5 80.5-35q59 0 106 31t96 77q18 16 27 28.5t23 12.5q11 0 18.5-5t9.5-16q1-6-4-18.5t-27-36.5q-51-56-112-92t-138-36z"/><path transform="translate(55.088 16.256) scale(.016 -.016)" d="m181 0q-16 0-24 9.5t-10 23.5l-39 708q-1 14 5 22.5t22 8.5q20 0 26.5-9.5t6.5-18.5l32-647-9 4 310 643q3 6 12.5 17t23.5 11q21 0 28-9.5t8-18.5l33-642-8 4 308 637q8 14 16.5 21.5t21.5 7.5q17 0 25-10t-1-28l-347-704q-7-15-15.5-22.5t-19.5-7.5q-16 0-23 5.5t-8 17.5l-33 658 8-4-313-646q-4-10-12.5-20.5t-23.5-10.5z"/><path transform="translate(69.504 16.256) scale(.016 -.016)" d="m10 0q-13 0-21.5 10t0.5 28l367 705q7 12 12 20.5t24 8.5q15 0 21.5-6.5t7.5-15.5l61-719q2-13-4.5-22t-22.5-9q-19 0-24.5 10t-6.5 19l-45 565v90l-38-85-291-569q-8-16-15.5-23t-24.5-7zm182 361 27 51h200l6-51z"/><path transform="translate(82.512 16.256) scale(.016 -.016)" d="m69 0q-16 0-23 9.5t-4 22.5l124 708q3 14 9.5 23t25.5 9q16 0 25-8t12-16l232-647-17-2 114 641q2 14 10 23t25 9 21-10 2-27l-124-705q-1-9-5.5-19.5t-23.5-10.5q-13 0-21 6.5t-11 14.5l-242 662 18 2-114-652q-1-10-7-21.5t-26-11.5z"/><path transform="translate(92.352 16.256) scale(.016 -.016)" d="m271 0q-16 0-23 9.5t-4 22.5l122 703h60l-123-705q-1-9-6.5-19.5t-25.5-10.5zm-108 718q-18 0-24.5 8.5t-6.5 18.5q0 11 6.5 19t24.5 8h460q17 0 23.5-8t6.5-19q0-10-6.5-18.5t-23.5-8.5z"/><path transform="translate(106.5 16.256) scale(.016 -.016)" d="m65 0q-12 0-18.5 12t-3.5 25l123 703q4 18 12 25t23 7q191 0 282-50t77-155q-6-46-25.5-80t-64-56-124.5-32.5-209-10.5l7 38q91 0 152.5 6t100 17 60 28.5 30.5 40.5 13 51q7 53-25.5 85.5t-97 47.5-155.5 16l-116-663q105 1 181 13.5t119.5 44 50.5 88.5q7 47-24.5 88t-106 66-197.5 25l10 46q133 0 220-29.5t127-81.5 30-121q-7-49-31.5-85.5t-75.5-60.5-134.5-36-209.5-12z"/><path transform="translate(115.71 16.256) scale(.016 -.016)" d="m131-5q-48 0-76 35.5t-28 96.5q0 58 18 111t48.5 94 70 65 82.5 24q40 0 64-18.5t24-56.5q0-27-14.5-49.5t-36-40.5-45-32-41.5-24q-22-12-51-27.5t-52.5-27.5-32.5-17l14 68q13 7 28 15t30.5 17 30.5 17q44 26 76.5 52t32.5 45q0 9-8.5 16.5t-25.5 7.5q-40 0-74.5-35.5t-55.5-92.5-21-122q0-29 12-47.5t32-18.5q23 0 48.5 17t49.5 45q17 22 30.5 26t23.5-4q9-6 10.5-19t-18.5-39q-28-37-67.5-59t-77.5-22z"/><path transform="translate(121.62 16.256) scale(.016 -.016)" d="m129-5q-58 0-85.5 48.5t-12.5 131.5q14 74 51.5 128t94.5 83.5 128 29.5h62l-9-55h-49q-85 0-143.5-50t-74.5-136q-10-58 4.5-91.5t43.5-33.5q41 0 89.5 72.5t95.5 198.5l-14-133q-35-97-84.5-145t-96.5-48zm-21-351q-37 0-70.5 10.5t-55.5 28.5q-9 7-9.5 18.5t7.5 21.5q6 8 17 8t21-7q17-12 42-19t50-7q39 0 65.5 19t43.5 59 27 102l94 538h26q18 0 24.5-8.5t3.5-24.5l-90-510q-22-122-69-175.5t-127-53.5z"/><path transform="translate(128.37 16.256) scale(.016 -.016)" d="m55 0q-19 0-23 10t-3 17l62 357q3 11 7.5 18t12.5 10.5 20 3.5q15 0 19-8.5t2-23.5l-63-357q-1-4-6-15.5t-28-11.5zm96 520q-15 0-25.5 11t-10.5 25 10 24 26 10q14 0 25.5-9.5t11.5-24.5q0-14-11-25t-26-11z"/><path transform="translate(131.42 16.256) scale(.016 -.016)" d="m43 0q-19 0-23 10t-3 17l63 357q2 11 6.5 18t12.5 10.5 20 3.5q15 0 19-8.5t2-23.5l-63-357q-1-4-6-15.5t-28-11.5zm267 0q-19 0-23 11t-3 18l44 248q4 20 1 40.5t-16 34.5-40 14q-37 0-79-36.5t-98-122.5l12 85q41 65 80.5 97t88.5 32q43 0 69.5-21t37-55 3.5-72l-44-248q-1-4-5.5-14.5t-27.5-10.5z"/><path transform="translate(138.37 16.256) scale(.016 -.016)" d="m43 0q-19 0-23 10t-3 17l63 357q2 11 6.5 18t12.5 10.5 20 3.5q15 0 19-8.5t2-23.5l-63-357q-1-4-6-15.5t-28-11.5zm267 0q-19 0-23 11t-3 18l44 248q4 20 1 40.5t-16 34.5-40 14q-37 0-79-36.5t-98-122.5l12 85q41 65 80.5 97t88.5 32q43 0 69.5-21t37-55 3.5-72l-44-248q-1-4-5.5-14.5t-27.5-10.5z"/><path transform="translate(145.31 16.256) scale(.016 -.016)" d="m131-5q-48 0-76 35.5t-28 96.5q0 58 18 111t48.5 94 70 65 82.5 24q40 0 64-18.5t24-56.5q0-27-14.5-49.5t-36-40.5-45-32-41.5-24q-22-12-51-27.5t-52.5-27.5-32.5-17l14 68q13 7 28 15t30.5 17 30.5 17q44 26 76.5 52t32.5 45q0 9-8.5 16.5t-25.5 7.5q-40 0-74.5-35.5t-55.5-92.5-21-122q0-29 12-47.5t32-18.5q23 0 48.5 17t49.5 45q17 22 30.5 26t23.5-4q9-6 10.5-19t-18.5-39q-28-37-67.5-59t-77.5-22z"/><path transform="translate(151.22 16.256) scale(.016 -.016)" d="m43 0q-12 0-20 8t-5 24l62 352q2 16 13 24t21 8q11 0 19.5-9t5.5-27l-61-348q-2-16-13-24t-22-8zm58 209 18 87q20 41 44 69t48.5 42 46.5 14q20 0 28-8.5t13.5-17 16.5-8.5q9 0 20 6t17 10q12 8 25 9.5t22-3.5 9-18q0-14-10-24.5t-24-18.5q-16-10-33-14t-27-4q-18 0-29.5 9t-20 17.5-17.5 8.5q-10 0-28.5-12t-47.5-45.5-71-98.5z"/></svg>