<svg width="76.192" height="18.976" viewBox="0 0 76.192 18.976" xmlns="http://www.w3.org/2000/svg"><path transform="translate(0 14.576) scale(.016 -.016)" d="M548 70V0H100V700H548V630H184V390H492V320H184V70Z"/><path transform="translate(9.968 14.576) scale(.016 -.016)" d="m65 740h84v-615q0-23 2-28.5t14-13.5q13-10 15.5-15.5t2.5-28.5v-39h-30q-19 0-25 2t-21 12l-22 15q-15 10-17.5 16t-2.5 29z"/><path transform="translate(13.936 14.576) scale(.016 -.016)" d="m436 90 60-50-24-20q-18-15-24.5-17.5t-24.5-2.5h-267q-24 0-48 20l-24 20q-24 20-24 50v320q0 30 24 50l24 20q24 20 48 20h233q20 0 48-20l25-20q24-18 24-50v-205h-342v-94q0-15 1.5-19.5t10.5-11.5 14-8.5 23-1.5h194q18 0 24.5 2.5t24.5 17.5zm-34 180v119q0 15-1.5 19.5t-10.5 11.5-14 8.5-23 1.5h-160q-18 0-23-1.5t-14-8.5-10.5-11.5-1.5-19.5v-119z"/><path transform="translate(22.672 14.576) scale(.016 -.016)" d="m460 370h-84v19q0 15-1.5 19.5t-10.5 11.5-14 8.5-23 1.5h-134q-18 0-23-1.5t-14-8.5-10.5-11.5-1.5-19.5v-278q0-15 1.5-19.5t10.5-11.5 14-8.5 23-1.5h134q18 0 23 1.5t14 8.5 10.5 11.5 1.5 19.5v19h84v-40q0-30-24-50l-24-20q-24-20-48-20h-208q-24 0-48 20l-24 20q-24 20-24 50v320q0 30 24 50l24 20q24 20 48 20h208q24 0 48-20l24-20q24-20 24-50z"/><path transform="translate(30.912 14.576) scale(.016 -.016)" d="m175 640v-140h128q13-10 15.5-15.5t2.5-28.5v-26h-146v-319q0-15 1.5-19.5t10.5-11.5 14-8.5 23-1.5h91q13-10 15.5-15.5t2.5-28.5v-26h-146q-24 0-48 20l-24 20q-24 20-24 50v340h-48q-13 10-15.5 15.5t-2.5 28.5v26h66v140z"/><path transform="translate(36.96 14.576) scale(.016 -.016)" d="m60 500h35q18 0 24.5-2.5t18.5-12.5q16-13 16-25h4q0 12 22 25 18 11 24.5 13t24.5 2h92q24 0 48-20l24-20-60-50-12 10q-9 7-14 8.5t-23 1.5h-43q-18 0-24.5-2t-24.5-13-21-16-3-20v-379h-84v389q0 15-1.5 19.5t-10.5 11.5-10.5 11.5-1.5 19.5z"/><path transform="translate(43.648 14.576) scale(.016 -.016)" d="m157 500h240q24 0 48-20l24-20q24-20 24-50v-320q0-30-24-50l-24-20q-24-20-48-20h-240q-24 0-48 20l-24 20q-24 20-24 50v320q0 30 24 50l24 20q24 20 48 20zm252-389v278q0 15-1.5 19.5t-10.5 11.5-14 8.5-23 1.5h-166q-18 0-23-1.5t-14-8.5-10.5-11.5-1.5-19.5v-278q0-15 1.5-19.5t10.5-11.5 14-8.5 23-1.5h166q18 0 23 1.5t14 8.5 10.5 11.5 1.5 19.5z"/><path transform="translate(52.512 14.576) scale(.016 -.016)" d="m65 740h84v-615q0-23 2-28.5t14-13.5q13-10 15.5-15.5t2.5-28.5v-39h-30q-19 0-25 2t-21 12l-22 15q-15 10-17.5 16t-2.5 29z"/><path transform="translate(56.48 14.576) scale(.016 -.016)" d="m148 0h-84v500h84zm9 656v-8q0-19-1.5-24t-9.5-12q-8-8-37-8h-5q-22 0-27 1t-12 7q-7 7-8.5 12t-1.5 24v8q0 19 1.5 24t9.5 12q6 6 11 7t27 1h4q30 0 39-8 7-7 8.5-12t1.5-24z"/><path transform="translate(59.872 14.576) scale(.016 -.016)" d="m136 70h275q13-10 15.5-15.5t2.5-28.5v-26h-384v74l260 335q12 13 21 16v5h-259q-13 10-15.5 15.5t-2.5 28.5v26h370v-76l-262-333q-12-13-21-16z"/><path transform="translate(67.456 14.576) scale(.016 -.016)" d="m436 90 60-50-24-20q-18-15-24.5-17.5t-24.5-2.5h-267q-24 0-48 20l-24 20q-24 20-24 50v320q0 30 24 50l24 20q24 20 48 20h233q20 0 48-20l25-20q24-18 24-50v-205h-342v-94q0-15 1.5-19.5t10.5-11.5 14-8.5 23-1.5h194q18 0 24.5 2.5t24.5 17.5zm-34 180v119q0 15-1.5 19.5t-10.5 11.5-14 8.5-23 1.5h-160q-18 0-23-1.5t-14-8.5-10.5-11.5-1.5-19.5v-119z"/></svg>