<svg width="76.336" height="20.8" viewBox="0 0 76.336 20.8" xmlns="http://www.w3.org/2000/svg"><path transform="translate(0 16) scale(.016 -.016)" d="m78 0v700h73v-700zm47 0v68h419v-68zm0 328v67h399v-67zm-1 306v66h412v-66z"/><path transform="translate(9.312 16) scale(.016 -.016)" d="M62 0V720H132V0Z"/><path transform="translate(12.416 16) scale(.016 -.016)" d="m68 0v480h73v-94l-11 13q24 44 66 70.5t92 26.5q61 0 109.5-35.5t68.5-90.5l-16-1q19 57 64.5 92t105.5 35q54 0 98-26t69.5-70 25.5-99v-301h-73v301q0 36-17.5 66t-47.5 47.5-66 17.5q-37 0-67-17.5t-47.5-47.5-17.5-66v-301h-73v301q0 36-17.5 66t-47.5 47.5-66 17.5q-37 0-67-18t-47.5-49.5-17.5-73.5v-291z"/><path transform="translate(26.464 16) scale(.016 -.016)" d="m229-16q-57 0-104 23.5t-74.5 63.5-27.5 89h72q0-30 18.5-55.5t49.5-40 70-14.5q34 0 62 11.5t44.5 32.5 16.5 46q0 26-16 40t-43 22.5-59 15.5q-31 7-64.5 15t-61.5 21-45.5 36-17.5 60q0 41 22.5 74t60.5 52.5 84 19.5q51 0 92.5-19.5t66-52.5 24.5-74h-72q0 23-15 41t-40 29-56 11q-27 0-49.5-10t-35.5-26-13-36q0-19 12-30.5t31-18.5 44-12.5 52-10.5q30-7 60-16t54.5-24 39-40 14.5-64q0-44-26-80.5t-70.5-57.5-99.5-21z"/><path transform="translate(40.496 16) scale(.016 -.016)" d="m286-16q-72 0-130.5 28.5t-92.5 81-34 123.5h75q0-52 26-88.5t68-55.5 88-19q48 0 87.5 18.5t63 50.5 23.5 74q0 44-17 69.5t-43.5 39.5-57 22-57.5 15q-23 7-52 14t-58 18-53.5 30-39.5 49-15 74q0 56 28.5 98.5t77 66 104.5 23.5q59 0 109.5-25t81-68.5 30.5-97.5h-75q0 35-19.5 62.5t-51.5 44-70 16.5q-37 0-69.5-12.5t-51.5-37-19-60.5q0-38 18.5-60t47-34 60-18 56.5-13q18-5 44.5-12.5t55.5-20 54.5-34.5 41-55.5 15.5-82.5q0-67-33.5-117.5t-90-78.5-125.5-28z"/><path transform="translate(49.52 16) scale(.016 -.016)" d="m487 0v480h69v-480zm-199-16q-71 0-129 34t-92 92.5-34 129.5q0 72 34 130t92 92 129 34q68 0 123-34t88-92 33-130q0-71-33-129.5t-88-92.5-123-34zm7 65q55 0 98 25t68.5 68.5 25.5 97.5-25.5 97.5-68.5 69-98 25.5q-54 0-97-25.5t-69-69-26-97.5 26-97.5 69-68.5 97-25z"/><path transform="translate(59.504 16) scale(.016 -.016)" d="m68 0v480h73v-115l-10 12q26 54 75.5 86.5t110.5 32.5q63 0 113-30.5t79.5-81.5 29.5-115v-269h-73v269q0 46-22 82.5t-58.5 58.5-82.5 22q-45 0-82-22.5t-58.5-61-21.5-86.5v-262z"/><path transform="translate(69.168 16) scale(.016 -.016)" d="m229-16q-57 0-104 23.5t-74.5 63.5-27.5 89h72q0-30 18.5-55.5t49.5-40 70-14.5q34 0 62 11.5t44.5 32.5 16.5 46q0 26-16 40t-43 22.5-59 15.5q-31 7-64.5 15t-61.5 21-45.5 36-17.5 60q0 41 22.5 74t60.5 52.5 84 19.5q51 0 92.5-19.5t66-52.5 24.5-74h-72q0 23-15 41t-40 29-56 11q-27 0-49.5-10t-35.5-26-13-36q0-19 12-30.5t31-18.5 44-12.5 52-10.5q30-7 60-16t54.5-24 39-40 14.5-64q0-44-26-80.5t-70.5-57.5-99.5-21z"/></svg>