<svg width="30.394" height="16.128" viewBox="0 0 30.394 16.128" xmlns="http://www.w3.org/2000/svg"><path transform="translate(0 12.292) scale(.014 -.014)" d="m52 0v16h73v618h-73v16h481v-208h-16q0 121-37.5 156.5t-160.5 35.5h-90v-287h53q72 0 99 27.5t27 100.5h17v-275h-17q0 74-27 102.5t-99 28.5h-53v-315h81q76 0 117 8t67 35 34.5 67.5 12.5 118.5h16l-10-245z"/><path transform="translate(8.666 12.292) scale(.014 -.014)" d="m195 15h66v-15h-221v15h66v660h-71v15h21q78 0 139 13z"/><path transform="translate(12.74 12.292) scale(.014 -.014)" d="m250 480q152 0 152-103 0-30-19.5-50.5t-46-20.5-43 15.5-16.5 38 13 38 35 15.5q34 0 40-26 1-9 9.5-9t8.5 9q0 28-27.5 50.5t-84 22.5-93-21-36.5-58.5 29-60.5 70-38 82.5-31.5 70.5-47.5 29-75q0-75-53.5-111.5t-132.5-36.5-127 28-48 85q0 30 19.5 50.5t46 20.5 43-15.5 16.5-38-13-38-35-15.5q-34 0-40 26-1 9-9.5 9t-8.5-9q0-30 33.5-56.5t99.5-26.5q145 0 145 94 0 58-99 94-42 15-83 31.5t-70 47.5-29 75q0 64 50.5 101t121.5 37z"/><path transform="translate(19.39 12.292) scale(.014 -.014)" d="m197 15h66v-15h-221v15h66v430h-71v15h21q78 0 139 13zm-89.5 554.5q-16.5 16.5-16.5 41.5t16.5 42 41.5 17 42-17 17-42-17-41.5-42-16.5-41.5 16.5z"/><path transform="translate(23.534 12.292) scale(.014 -.014)" d="m276 480q75 0 125.5-32t50.5-96q0-99-113-122-57-11-142-11h-47v-29q0-81 33.5-131.5t98-50.5 101 38 51.5 98l18-2q-16-73-64.5-117.5t-122.5-44.5q-104 0-158 68.5t-54 181.5 58 181.5 165 68.5zm-126-243h35q81 0 113.5 16t44.5 39.5 12 66.5-21.5 73.5-65.5 30.5-71.5-31.5-37-73.5-9.5-93z"/></svg>