<svg width="103.49" height="17.5" viewBox="0 0 103.49 17.5" xmlns="http://www.w3.org/2000/svg"><path transform="translate(0 14.42) scale(.007 -.007)" d="M169 0V1480H1085V1343H330V137H1095V0ZM271 691V828H987V691Z"/><path transform="translate(8.162 14.42) scale(.007 -.007)" d="M171 0V1190H334L1039 187H1006V1190H1158V0H994L289 1003H322V0Z"/><path transform="translate(17.465 14.42) scale(.007 -.007)" d="m682-15q-180 0-311.5 60t-203 193.5-71.5 354.5q0 212 71.5 347.5t205.5 200 323 64.5q72 0 140.5-8t131.5-25v-135q-65 17-130 25t-133 8q-143 0-241-46.5t-148-151-50-277.5q0-179 50.5-283t146.5-148 232-44q69 0 134.5 10.5t138.5 32.5v-135q-62-20-134.5-31.5t-151.5-11.5z"/><path transform="translate(24.521 14.42) scale(.007 -.007)" d="m632-15q-162 0-282.5 64t-187 198.5-66.5 346.5q0 213 67 348t187.5 199 281.5 64 282-64 187.5-199 66.5-348q0-212-67-346.5t-188-198.5-281-64zm0 131q112 0 195.5 46.5t129.5 150.5 46 278q0 178-46 284t-129.5 152.5-195.5 46.5-195-46-129-150.5-46-278.5q0-178 45.5-284t128.5-152.5 196-46.5z"/><path transform="translate(33.362 14.42) scale(.007 -.007)" d="m478-10q-73 0-150 4t-157 13v1162q52 11 109.5 18.5t116.5 11.5 114 4q319 0 481-149t162-460q0-210-76-343t-226-197-374-64zm36 131q158 0 263.5 48.5t158.5 153 53 272.5q0 167-52 272t-156 155-260 50q-48 0-98-4.5t-90-11.5v-925q42-5 86.5-7.5t94.5-2.5z"/><path transform="translate(42.112 14.42) scale(.007 -.007)" d="M171 0V1190H970V1063H330V127H979V0ZM271 546V672H887V546Z"/><path transform="translate(52.892 14.42) scale(.007 -.007)" d="m462-19q-88 0-183.5 15t-181.5 45v140q62-21 125.5-34.5t124.5-20.5 117-7q184 0 272 69.5t88 202.5q0 113-66.5 172.5t-226.5 101.5l-80 21q-189 48-283 145.5t-94 257.5q0 191 132.5 300.5t394.5 109.5q86 0 170-11.5t153-33.5v-140q-76 24-156.5 35.5t-162.5 11.5q-127 0-208-31t-120-90-39-142q0-109 61-169t211-100l81-20q136-35 224-89.5t131-133 43-185.5q0-134-62-227.5t-180-143-285-49.5z"/><path transform="translate(60.333 14.42) scale(.007 -.007)" d="M31 0 476 1190H706L1153 0H989L578 1120H602L190 0ZM275 371 312 499H870L906 371Z"/><path transform="translate(68.614 14.42) scale(.007 -.007)" d="M171 0V1190H334L1039 187H1006V1190H1158V0H994L289 1003H322V0Z"/><path transform="translate(77.917 14.42) scale(.007 -.007)" d="m415-15q-78 0-161.5 12t-155.5 35v133q54-16 109.5-27t108.5-16.5 100-5.5q104 0 170.5 23.5t98 69 31.5 110.5q0 55-21.5 93t-73.5 65-143 48l-63 14q-179 40-259.5 118.5t-80.5 211.5q0 100 50.5 175.5t154 118 262.5 42.5q72 0 144.5-9t131.5-25v-134q-67 19-135.5 28.5t-138.5 9.5q-110 0-178-24t-99.5-68-31.5-106q0-83 48.5-128.5t182.5-77.5l63-14q123-27 199-70t111.5-107 35.5-152q0-105-52-181.5t-154.5-119-253.5-42.5z"/><path transform="translate(87.99 14.42) scale(.007 -.007)" d="m462-19q-88 0-183.5 15t-181.5 45v140q62-21 125.5-34.5t124.5-20.5 117-7q184 0 272 69.5t88 202.5q0 113-66.5 172.5t-226.5 101.5l-80 21q-189 48-283 145.5t-94 257.5q0 191 132.5 300.5t394.5 109.5q86 0 170-11.5t153-33.5v-140q-76 24-156.5 35.5t-162.5 11.5q-127 0-208-31t-120-90-39-142q0-109 61-169t211-100l81-20q136-35 224-89.5t131-133 43-185.5q0-134-62-227.5t-180-143-285-49.5z"/><path transform="translate(95.431 14.42) scale(.007 -.007)" d="m775-19q-153 0-276.5 40.5t-211.5 129.5-135 234-47 352q0 268 82 436t235.5 247 368.5 79q86 0 164.5-11t155.5-32v-142q-78 24-155.5 34t-158.5 10q-168 0-284.5-59.5t-176.5-195-60-362.5q0-234 61-369.5t175.5-192.5 274.5-57q82 0 159 13t165 42v-141q-74-26-158.5-40.5t-177.5-14.5z"/></svg>