<svg width="73.57" height="18.214" viewBox="0 0 73.57 18.214" xmlns="http://www.w3.org/2000/svg"><path transform="translate(0 13.79) scale(.014 -.014)" d="M76 667H469V594H159V384H419L408 311H159V73H468V0H76Z"/><path transform="translate(7.098 13.79) scale(.014 -.014)" d="m148 440v-640h-80v630zm0 0-80-10v70h50zm-41-93-27 8t9.5 15.5 27.5 38 42 45.5 53.5 38.5 62.5 15.5l-10-65q-30 0-58.5-14.5t-51.5-33.5-35.5-33.5-12.5-14.5zm0-194t12.5-14.5 35.5-33 51.5-33 58.5-14.5l10-66q-33 0-62.5 15.5t-53.5 38.5-42 45.5-27.5 38-9.5 15.5zm158-95q39 0 64 16.5t39 44.5 20.5 62 6.5 69-6.5 69.5-20.5 62.5-39 44.5-64 16.5l10 65q54 0 92-22t62.5-59 36-83 11.5-94-11.5-94-36-83-62.5-59-92-22z"/><path transform="translate(14.294 13.79) scale(.014 -.014)" d="m68 250h80q0-73 10.5-115.5t33-60 59.5-17.5l-10-65q-82 0-126 53.5t-46 152.5zm379-110-80-80v440h80zm-299 110h-80v250h80zm219-190 80 80v-140h-50zm41 90 27-8t-9.5-15.5-27.5-37.5-42-44.5-53.5-37.5-62.5-15l10 65q32 0 60.5 14t50.5 32.5 34.5 32.5 12.5 14z"/><path transform="translate(21.448 13.79) scale(.014 -.014)" d="m447 250h-80q0 72-11 113.5t-33.5 59-58.5 17.5l10 68q82 0 126-53.5t46-152.5zm-379 110 80 80v-440h-80zm299-110h80v-250h-80zm-219 190-80-80v140h50zm-41-93-27 8t9.5 15.5 27.5 38 42 45.5 53.5 38.5 62.5 15.5l-10-68q-30 0-58.5-14t-51.5-32.5-35.5-32.5-12.5-14z"/><path transform="translate(28.658 13.79) scale(.014 -.014)" d="m366 60v640h80v-630zm0 0 80 10v-70h-50zm42 93 26-8t-9.5-15.5-27-38-42-45.5-54-38.5-62.5-15.5l10 65q31 0 59.5 14.5t51 33.5 35.5 33.5 13 14.5zm0 194t-13 14.5-35.5 33-51 33-59.5 14.5l-10 66q33 0 62.5-15.5t54-38.5 42-45.5 27-38 9.5-15.5zm-159 95q-39 0-64-16.5t-39-44.5-20-62-6-69 6-69.5 20-62.5 39-44.5 64-16.5l-10-65q-54 0-92 22t-62.5 59-36 83-11.5 94 11.5 94 36 83 62.5 59 92 22z"/><path transform="translate(35.854 13.79) scale(.014 -.014)" d="m219-8q-89 0-135.5 46t-46.5 115q0 80 69 116t215 36h25v-60q-124 0-176-21.5t-52-70.5q0-42 28-69t83-27zm-126 411-30 57t13.5 7 36.5 17 53 17 62 7l-5-66q-31 0-61-10t-49.5-19.5-19.5-9.5zm333-158-80 60q0 77-26.5 107t-96.5 30l5 66q105 0 151.5-49t46.5-157zm-38-82 26-16t-8.5-16-25-39-40.5-46-54.5-38.5-66.5-15.5l10 65q29 0 56.5 16t51 37 37.5 37 14 16zm38-118-80 15v245l80-60zm-80 15 80 80v-140h-50z"/><path transform="translate(46.34 13.79) scale(.014 -.014)" d="m457 197q0-58-25-105t-78.5-74.5-136.5-27.5v72q70 0 109 35t39 97q0 37-20.5 60.5t-55.5 37.5-79 21q-82 16-126 62.5t-44 121.5q0 44 16.5 77.5t43 56 57.5 34 60 11.5l6-70q-45 0-73.5-30.5t-28.5-75.5q0-29 11.5-51.5t34.5-36.5 56-20q123-21 178.5-68t55.5-127zm-234 409-6 70q52 0 96.5-13.5t81.5-32.5l-29-62q-36 16-70.5 27t-72.5 11zm-6-544v-72q-53 0-97 14t-82 32l29 64q37-16 73-27t77-11z"/><path transform="translate(53.27 13.79) scale(.014 -.014)" d="m219-8q-89 0-135.5 46t-46.5 115q0 80 69 116t215 36h25v-60q-124 0-176-21.5t-52-70.5q0-42 28-69t83-27zm-126 411-30 57t13.5 7 36.5 17 53 17 62 7l-5-66q-31 0-61-10t-49.5-19.5-19.5-9.5zm333-158-80 60q0 77-26.5 107t-96.5 30l5 66q105 0 151.5-49t46.5-157zm-38-82 26-16t-8.5-16-25-39-40.5-46-54.5-38.5-66.5-15.5l10 65q29 0 56.5 16t51 37 37.5 37 14 16zm38-118-80 15v245l80-60zm-80 15 80 80v-140h-50z"/><path transform="translate(60.186 13.79) scale(.014 -.014)" d="m447 250h-80q0 72-11 113.5t-33.5 59-58.5 17.5l10 68q82 0 126-53.5t46-152.5zm-379 110 80 80v-440h-80zm299-110h80v-250h-80zm-219 190-80-80v140h50zm-41-93-27 8t9.5 15.5 27.5 38 42 45.5 53.5 38.5 62.5 15.5l-10-68q-30 0-58.5-14t-51.5-32.5-35.5-32.5-12.5-14z"/><path transform="translate(67.396 13.79) scale(.014 -.014)" d="m211-8v65q56 0 84 27t28 69q0 34-28 50t-87 24l8 68q98-11 142.5-43t44.5-99q0-71-48-116t-144-45zm0 516 5-65q-36 0-61.5-18.5t-25.5-51.5q0-67 87-78l-8-68q-74 10-116.5 47t-42.5 99q0 42 21.5 72t58.5 46.5 82 16.5zm-173-453 42 54q22-17 53-34.5t78-17.5v-65q-40 0-73 11t-58.5 26-41.5 26zm304 340q-20 15-51 31.5t-75 16.5l-5 65q37 0 70-10.5t59.5-25.5 43.5-28z"/></svg>