<svg width="58.016" height="24.4" viewBox="0 0 58.016 24.4" xmlns="http://www.w3.org/2000/svg"><path transform="translate(0 16.4) scale(.016 -.016)" d="M107 0V655H499V584H191V361H473V295H191V69H499V0Z"/><path transform="translate(8.544 16.4) scale(.016 -.016)" d="m247-6q-63 0-109 18t-69.5 50-22.5 74h90q1-34 29-56.5t83-22.5q57 0 87 23.5t29 54.5q0 18-11 31t-36.5 23-68.5 19q-64 13-106 32t-62.5 46.5-20.5 66.5q0 62 50 102.5t143 40.5q62 0 106-18.5t67.5-51 21.5-75.5h-90q1 34-25.5 57.5t-79.5 23.5q-54 0-78.5-23.5t-24.5-55.5q0-21 11.5-36.5t39-26.5 73.5-21q92-19 136.5-50t44.5-85q0-41-25-72.5t-71-49.5-111-18z"/><path transform="translate(16.512 16.4) scale(.016 -.016)" d="m263-6q-40 0-71.5 12.5t-50 40-18.5 71.5v302h-93v70h93v135h84v-135h125v-70h-125v-283q0-38 21-55.5t57-17.5q14 0 29.5 2t25.5 4l13-63q-20-6-43-9.5t-47-3.5z"/><path transform="translate(22.832 16.4) scale(.016 -.016)" d="m270-6q-107 0-169.5 66t-62.5 185q0 80 28.5 136t80 85.5 120.5 29.5q82 0 134.5-35.5t76-98 18.5-143.5h-369q1-72 37-117t106-45q49 0 80 22.5t42 51.5h93q-15-39-44-70t-71.5-49-99.5-18zm-142 287h278q-2 43-16 77t-43.5 54-79.5 20q-64 0-100-42t-39-109z"/><path transform="translate(31.328 16.4) scale(.016 -.016)" d="m414 0v74h-6q-25-40-65-60t-91-20q-66 0-114 30t-74 86.5-26 134.5 26 134 74 86.5 114 30.5q51 0 91-19.5t65-60.5h6v266h84v-682zm-144 433q-66 0-104-50.5t-38-137.5q0-88 38-137.5t104-49.5q67 0 105.5 49.5t38.5 137.5q0 58-17.5 100t-49.5 65-77 23z"/><path transform="translate(40.528 16.4) scale(.016 -.016)" d="m194-6q-64 0-104 33.5t-40 101.5q0 72 49 109.5t137 40.5l132 6v63q0 26-15.5 44.5t-41.5 28.5-58 10q-48 0-81.5-22.5t-33.5-60.5h-78q-2 46 23.5 79t70.5 51 102 18q58 0 102-18t69-51 25-79v-348h-84v72h-4q-19-32-62.5-55t-107.5-23zm-54 140q0-40 23.5-58.5t64.5-18.5q44 0 75.5 17.5t48 45 16.5 56.5v52l-116-5q-57-2-84.5-25.5t-27.5-63.5z"/><path transform="translate(48.816 16.4) scale(.016 -.016)" d="m414 0v74h-6q-25-40-65-60t-91-20q-66 0-114 30t-74 86.5-26 134.5 26 134 74 86.5 114 30.5q51 0 91-19.5t65-60.5h6v266h84v-682zm-144 433q-66 0-104-50.5t-38-137.5q0-88 38-137.5t104-49.5q67 0 105.5 49.5t38.5 137.5q0 58-17.5 100t-49.5 65-77 23z"/></svg>