<svg width="23.086" height="17.36" viewBox="0 0 23.086 17.36" xmlns="http://www.w3.org/2000/svg"><path transform="translate(0 12.6) scale(.014 -.014)" d="m76-1q-4 0-7.5 0t-7.5 1q-5 1-11.5 2t-12.5 2q-4 0-8-2-4-1-8 0-2 4-5 7.5t-6 7.5q-1 2 1 9 2 4 2.5 7t1.5 5q2 7 4 8l6 3q4 0 6 2 3 0 7 6 2 3 5 14 0 5 1 9t2 6q4 0 7 3l3 14q0 9 1 13 2 5 4 10.5t4 10.5 4 10.5 4 10.5q1 4 0 8v2q0 4 2 8l3 7q2 6 2 6 1 3 3 14 2 13 3 14 2 5 3 15 0 12 1 15 0 7-3 14 0 5 2 13l4 11q2 3 2 12-1 4-1.5 7.5t-1.5 5.5l3 9 4 9q1 4 0 8-2 6-2 6 0 2 0.5 4t1.5 4q3 6 3 12 0 1 0 3t-1 4q0 5-1 6l-2 2q1 1 0 4l2 3q-4 9-4 18-2 5-8 10-6 7-2 14 14 21 30 21 8 0 19 0.5t22 1.5q6 0 9-1h20q2 0 5 0t5 1q27 0 49-3l19-3h6q9 0 13 1h18q3 1 5.5 1t4.5 1q2 0 4 0.5t4 1.5l4-1q3-3 5-1h2q1 1 3 3t6 5q4 0 4-1 0 0 2-2v-1q-1-1-1-4v-1q0-7-18-16-20-11-43-14-2 0-4-0.5t-4-0.5q-6 0-9 3-9-2-10-1 0 2-9 0-1 1-6 1t-6 1q-4-1-12 0-12 0-15-1t-6-1-6 0-6.5 0.5-6.5 1.5-5.5 1.5-4.5 0.5q-6 0-11-3-1-1-1-2t-2-3q-1-1-3 0-1 0-3-2 0-9-2-12 0-2-1-3.5t-2-3.5q-4-4-4-6-2-4-1-11 4-6 1-10 0-3-1-5.5t-2-4.5q-3-6-5-8-4-1-4 0-2-4-2-14-1-6-1.5-9.5t-0.5-4.5q2-5-1-11-4-6-3-10-1-2-1.5-5t-2.5-7q-4-7-6-12 5 0 7-2 1-1 2.5-1.5t2.5-2.5q2 0 5 0.5t7 1.5q9 0 12 1-2-2 0-4v-1q3-3 6 0 3 5 7 4 2-3 5 0 2 1 7 1 2-1 4.5-1t4.5-2q2-1 4.5-1t4.5-1l2 2q1 0 2 2h2q1 0 0-2-1-1 1-1 6 0 10 3 4 0 7.5 1t5.5 2q4 1 6-1 1-3 7-1 5 2 8 5t10 5q2-2 2-4v-2q-1-2-3-4.5t-4-3.5-4.5-2-5.5-3q-2-1-9-8-1-1-5-3-3-1-4 0-2-1-3-2.5t-2-2.5l-16-8q-7-3-15-1-7 1-13 0l-10-2-9-2-6 3q-4 2-8 1l-12-3q-3-1-6-1t-5-1q-4-1-6-8-1-3-2.5-6t-1.5-7q-1-4-1.5-7.5t-1.5-7.5-1-7 0-6q4-4 1-9-4-7-2-9 0-1 0-3.5t-1-6.5q-1-3 1-5 0-3-1-4 0-1 0.5-3t0.5-4q0-3-2-9-1-1-1-2t-1-3q0-3-2-9 1-1 1-4 0-1-2-3t-1-4q1 0 3-2-2-5-3-9.5t-2-8.5q0-2-0.5-4.5t-0.5-4.5q0-4 0.5-7.5t1.5-7.5q3-14 10-18 1-1 2.5-1t2.5-1q4-2 5-3 2-1 5-4 0 0 1.5-1t2.5-2q3-2 5 0 4 2 7 1 7-1 14.5-1.5t16.5-0.5 16.5 0 14.5 1q5-1 10-1t9-1h20q1 0 1.5 0.5t1.5 0.5q1 2 1.5 2t1.5 1q4 2 9 4t10 4q6 2 10.5 5t8.5 5q5 3 6 7 2 5 6 6 5-1 6-3v-4q-6-6-9-7-2-1-5-3t-5-4l-3-7q-1-1-3.5-3t-5.5-4l-14-9q-4-2-7.5-4.5t-7.5-4.5-7-3-5-2q0 0-7-2-2 0-5 0t-5-1q-4-1-7.5-1t-7.5-1q-1 1-1.5 1.5t-2.5 1.5q0 0-1 0t-3-1q-6-1-13.5-1.5t-16.5-0.5-17 0.5-13 1.5q-7 2-12 0-7-3-13-2h-7q-6 0-9-1z"/><path transform="translate(4.732 12.6) scale(.014 -.014)" d="m192 198q-1 1-1 5 1 1 1 6 0 12-2 14-1 1-1.5 1t-0.5 0q-2 0-2 2-1 1-1.5 2t-2.5 2q0 1-3 4-2 3-4 1-1 0-3 2-1 1-1 3 0 1-1 2-2 3-5 0-5 0-7 1l-3 4-3 3q-2 2-5.5 2.5t-7.5 0.5q-9 0-11 5-2 3-1 4 0 1 1 2v1q2 2 5 2 2 0 6 2 2 1 6 5t8 5q5 0 6 1 4-1 8-1t8-1q11 0 15-3 4-2 5-6t6-7h1l2-2q0-1 1-2v-1q0-1 0.5-1t0.5-1q2-1 2-1.5t1-1.5v-7q3-10 1-16l-5-13-3-10q-1-6-8-7 0-1-2-1zm-138-203q-19 4-32 13-5 3-9 13-2 5-4 9t-4 7q0 1 0 3t1 4q1 3 1 5t1 3q2 3 5 5 5 3 6 6 5 9 19 11 1-1 2-1 0 0 0-0.5t1-1.5q4-6 1-11 0-8 1-11l5-14q3-10 6-11 1-1 5-3l6-3q2-1 5-4 2-4 6-5h5q4 0 7.5-1t6.5-1q10 0 15 4 11 7 20 19 1 1 2 2.5t2 2.5q0 2 3 5 2 3 0 5 0 1 2 7l4 4q4 7 4 19-3 0-4-1-1 20-13 31-6 5-12.5 11t-13.5 11q-4 2-5 6t-5 6q-18 12-25 21l-3 7q0 2-0.5 4t-1.5 4q-4 4-5 7 0 1-0.5 2.5t-0.5 2.5q0 6 3 13l6 16 8 9 9 9q3 3 7 6t8 7q9 9 19 9 1-1 2.5-2t1.5-3v-1q-1-2-6-4l-7-3q-11-5-14-21-2-5 0-10 2-6 3-9 0-2 1-3v-2q2-4 4-7t4-7 5-6.5 6-4.5l6-4q2-1 4-2t3-2q5-3 8-8 2-2 3.5-5t3.5-5q3-5 7-6 5-2 8-6 8-10 15-27 4-8 4-19 0-3-0.5-6.5t-1.5-7.5q-1-2-1-6 0-3-2-7-1-1-2-2t-2-3q-2 0-5-3-2-4-4-6 0-2-3-5-1-1-2 0-1 0-3-2l-3-4q-2-4-4-5-2-2-5-2t-5-2q-4-4-5-7-6-6-8-7-4-1-9-6l-2-2q0-2-1-3-3-3-7-2-3 0-9-2l-4-1q-1-2-4-2h-27q-5 0-7-1z"/><path transform="translate(7.658 12.6) scale(.014 -.014)" d="m54-4q-17 0-24 9-3 4-6 20-2 8-2.5 14t0.5 10q1 3 2.5 6t2.5 6q2 3 3 6t2 6q2 5 4.5 10.5t3.5 10.5q2 5 4 10.5t4 10.5l4 10q2 3 2.5 6t1.5 5v12q1 3 2 6t2 6 2 6 2 6v13q1 2 2 4.5t2 4.5 2 4.5 2 4.5q2 6 2 9t2 9q0 1 0 3t1 5q1 4-1 10-1 3-5 3-1 0-7 2-4 1-9.5 2t-12.5 2q-13 0-16 10 4 2 5 4 2 0 3.5 1t2.5 2q6 2 8 1 3-1 9 1 7 2 12.5 3t10.5 2l4 4 3 4v11q1 2 2 3.5t1 2.5q2 2 2 3.5t1 2.5l3 9q0 6 1 9v36q0 1-1 2-1 0-1 1-2 4-2 7 0 4 2 8 4 2 8 5t8 5 7 2q4 0 6 2h17q3-3 4-5t4-5q0-5-0.5-9.5t-1.5-8.5-2-7-2-7-2.5-7-2.5-7q-3-7-3-18-6-1-6-9-2-5-3-14-1-5-1-9.5t0-8.5h2q4-2 9-2h13q5 0 11-0.5t13-0.5h7q5 0 9.5 0.5t8.5 1.5q5 2 7 4l8 3 2-3q1-1 1-3l-12-9q-3-2-6-3t-7-3q-4 0-8-1t-8-2-7 1q-2 2-5 1-4-1-8.5-1.5t-9.5-0.5-9.5-0.5-8.5-1.5q-3-1-6 0t-5-1q-4-3-6-8-1-6-5-11-3-5-6-11t-6-12-5.5-12.5-4.5-13.5v-14q-2-7-6-11-2-3-4-6t-4-6q0-5-1-7-1-3-1-9l-4-16q-1-4-2-8.5t-2-8.5v-17q2-2 2-4 2 0 2-3v-40q3-3 3-3l3-2q13 0 20 6 4 3 7.5 6t5.5 7l9 9q4 4 8 9.5t8 9.5l3 3q1 0 3 2t3.5 4.5 2.5 6.5q3 8 7 9l2-2q0-2 0-5t-1-5q0-4-2-8-4-7-14-16-9-7-16-15-2-4-4.5-7t-4.5-6q-2-4-5-7t-5-7q-2-3-5-5-4-3-6-6-7-10-12-14-6-3-16-3z"/><path transform="translate(9.884 12.6) scale(.014 -.014)" d="m73-2q-7 4-16 4t-16 5q-6 3-14 15-8 11-9 19-1 5 0 9 1 3-1 9-5 9-6 16-3 8-3 22v10l6 9v16l3 2 1 1v15l2 2q1 0 2 1 2 2 3 6 0 4 2 6l10 15q14 20 35 41 22 22 50 29h20l2 3v2q-9 5-9 7-2 2-2 15 1 1 1 1.5t0 0.5q0 1 2 3t4 4 5 4q8 6 13 6 1-1 5-3 4 0 6-2 2-1 5-3t6-4 5.5-4.5 4.5-4.5q1-1 2-3t2-4q0-4 4-6 2-2 14-2 15 0 18 1 6 2 11 2 9 0 13 1 2 1 6-1 0-2 6 0 3 1 6.5 1.5t7.5-1.5q5 0 8.5 0t7.5 1q2 1 3 1t2 1h6v-3q-4-4-8-6.5t-9-4.5l-10-3q-6 0-9-1h-33q-5-2-10-5-1-1-2.5-1t-3.5-1-4-3v-17q2-2 1-11v-14q0-4 0-8.5t-1-8.5q0-4-0.5-8t-1.5-8v-9q-1-4-4-7 0-2-1-3.5t-2-3.5q-4-10-9-20t-10-20-10.5-19-11.5-17q-2-2-4-5t-4-5q-2-3-5-6t-5-5q-8-13-24-23l-4-4q-5-2-8-1-3 0-9-2-4-2-7.5-4.5t-5.5-4.5q-1-1-2-2.5t-3-3.5zm26 23 14 6q1 1 2 2t2 2q0 1 3 4 7 6 13 13 2 2 4 3.5t5 3.5q2 4 5 7t5 7q3 4 5.5 7.5t4.5 7.5 1 6q-1 3 1 8l18 44v9l4 3v26q-6 7-8 16-1 5-2.5 10t-3.5 9q-1 2-2 4.5t-3 5.5-3.5 5.5-3.5 3.5q-2 2-3 4-1 0-3 4h-14q-4-2-10-2-7-2-11.5-4t-8.5-4q-20-13-33-28-15-18-22-41-1-2-2-5.5t-2-8.5q-3-9-1-18 5-17 6-32 1-8 1.5-17t0.5-19q2-2 5-2 1-1 1-4v-7q0-3 2-5.5t5-6.5 5-6.5 3-4.5q2-2 2-4t2-2z"/><path transform="translate(13.272 12.6) scale(.014 -.014)" d="m31-3q-5 0-8 3l-3 3q0 2-2 4 0 16 4 25l9 22q1 4 2 7t2 7 2.5 7 2.5 6q2 2 3.5 5t3.5 5q4 6 6 11 2 6 2 10 0 3 0.5 6t1.5 6q2 7 2.5 14.5t1.5 15.5 1 16.5 1 16.5q-4 1-4 6v47l-8 8q-2 2-4 2t-4 3q-1 1 1 6 3 3 5 4l6 3h26q2 1 4 1t4 1q3 1 9-1 7-1 9-11 1-4 1.5-9.5t0.5-10.5v-10q-3-1-4-4 0-3 0-6t1-6 1-6 0-6q0 0 4-2h4q8 9 14 13 2 2 4.5 4t3.5 4q2 2 4 4t4 4 4.5 4.5 5.5 6.5q3 3 6.5 6t7.5 6 8 5.5 8 4.5q5 2 10 4t10 2h8q2 1 4.5 1.5t4.5 1.5q2 0 4.5 1t3.5 2q9 0 16-4 9-5 10-9l3-12q0-4 0-7.5t-2-5.5q-3-8-8-16-2-4-4-8.5t-4-9.5q-1-1-3-5t-3-5q-2-2 0-4 1-1 1-2t1-2q-6-6-7-12l-4-16q-1-7-3.5-13t-4.5-13-3.5-13.5-3.5-13.5q-1-2-1-7 0-4 0.5-7t0.5-6v-13q0-4 0-8t1-8l3-13q2-6 7-6 6 4 9 5 2 2 5 3.5t5 3.5 2 3q0 0 0 1t1 2l12 12q4 4 7 5 4 3 6 8l1-1q2-2 2-12l-3-4-3-6q0-1-8-9l-10-10h-2l-7-4-7-5q0-2-1-4-1-3-1-5-2-3-8-7t-11-6q-3-1-6 0-2 1-3.5 2t-3.5 2q-7 2-11.5 4t-6.5 3q-5 2-10 16-1 1-1 3t-2 6q0 8 2 11 2 5 4 6 3 2 5 5 0 4 1 6v6q1 2 1.5 3.5t1.5 2.5q1 0 3 4 2 6 1 12t1 12q1 3 2 6t2 6l6 12q2 2 2 5 2 2 2 3t1 2v17l7 7 7 9v20q-5 7-5 18 0 7-0.5 12t-1.5 9 0 8q0 3-2 7-3 5-10 2-4 0-6-1t-4-2q-13-7-23-17l-20-20q-17-17-28-32l-4-4q-4-4-5-6 0-2-1-3v-2q-2-4-4-6 0-2-1-3.5t-2-3.5l-4-4q-2-1-5-4l-7-8q-5-6-6-10-1-2-2-5t-2-5q0-4-2-10-4-9-6-20l-6-22q-1-4 0-9 1-2 1-4t1-4v-8q1-2 1-5t1-7q0-9 1-12-2-2-3-4t-2-2q-1-2-11-1-4-4-12-6-2-1-5-1z"/><path transform="translate(17.22 12.6) scale(.014 -.014)" d="m147 385q-3 0-4 1t-3 1q-6 0-9 1h-8q-6 2-7 3-1 2-5 6v1q5 2 5 5 2 2 2.5 4t1.5 4q0 2 1 4.5t2 3.5q3 4 8 4 1 1 1.5 1t0.5 0q2 0 3 1 4 0 7.5-0.5t7.5-1.5q2-3 3-5t2-4q2-6 2-9h-1v-10q-3-3-5-4-4-4-5-6zm-90-393q-7 0-17 8-1 1-2 2t-2 2q-1 0-4 3 0 0-2 6 0 2 0 5t-1 5q-1 3-1 6t0 5q0 7 1 8l2 2q2 0 2 1v11q2 4 2 7 2 2 2 4t1 3q1 2 2 4.5t2 4.5l3 10v7q3 12 9 19 6 9 9 19v7q1 3 5 9 5 5 6 9v14q2 2 2 4 2 1 2 2t1 2q1 4 1.5 7.5t-0.5 7.5v16l-6 4q0 1 1 1v1q3 3 3 8v11l-5 2t-4 2q-2-2-5-3-2-1-4-2t-4-1q-2-1-4.5-1.5t-4.5-1.5q-4 0-5 1t-1 4q1 0 1 3 4 1 8 4 2 0 4 1t3 2q2 2 4.5 3t3.5 2q4 4 7 6 1 2 1.5 3t0.5 1q3 2 5 0 3 0 4 1l6 4 9 3q2 0 3.5 0.5t2.5 0.5q2 0 5-0.5t7-1.5q12-3 14-8v-20q-4-4-4-8v-6q-1-1-3-6-1-4-4-7-4-5-7-11t-6-11q-4-5-7-11t-5-11q-2-4-4-8t-3-9l-6-17q-1-2-2-5t-1-6q-1-3-1.5-6t-1.5-6q2-1 2.5-2.5t1.5-2.5l-4-8v-17t-2-4q-1 0-1-1t-1-2v-25q3-3 3-4 2-4 1-7v-9l3-3 3-2q2 2 6 3 5 0 8 1 0 3 1 4h6l10 8q8 7 9 7l1-1q2-4-3-9-3-5-8-9l-10-9q-3-2-6-4.5t-7-6.5q-7-7-15-12-7-4-16-6z"/><path transform="translate(19.292 12.6) scale(.014 -.014)" d="m195-4q-4-1-8 1l-6 3q-2-2-8-2l-14 14v33q1 1 1 4t1 4q1 4 2 8t2 8q0 4 1.5 8t2.5 8q4 13 9 22 7 10 7 24h-1q-1-4-6-6-4-3-7-7-2-4-3-5 0-2-2-6l-12-18q-3-4-6-8.5t-7-8.5q-2-2-4-5t-5-6l-11-11q-1-1-2.5-2t-3.5-3q-2-3-6-7t-6-7q-1-1-2.5-2t-3.5-3l-6-8q-5-5-8-7-4-2-8-4.5t-9-4.5q-6-2-11-2-3 0-5.5 0.5t-5.5 1.5q-4 1-6 5-4 4-6 5l-6 4-3 11q0 3-0.5 6t-1.5 6q-3 15-3 34 0 10 1 18.5t3 15.5q1 2 2 5t2 7q0 4 1 7.5t2 5.5q2 5 5 10 2 2 4 5t3 5l14 21 15 21q4 6 7 8 2 2 4 4t4 4q8 11 19 22 11 12 23 17 1 1 2.5 1t2.5 1q4 0 5 1 2 1 5.5 2t7.5 2q8 3 12 3l24 2q7 0 7-4-3-4 6-4 4 1 7 2t4 2q4 4 14 8 1 1 1.5 1.5t1.5 1.5q0 0 3 3h13q2-2 5-1t5-1q1-1 2-3t2-5q0-6 3-9-2-8-5-13-4-6-6-8l-6-8q-2-2-3.5-5.5t-3.5-7.5q-1-6-3-6-1 0-0.5 0.5t-1.5 0.5q-1 0-3-6-1-4-3-8t-4-8q-4-7-6-16-1-2-1-4.5t-1-4.5-1-4.5-1-4.5q-1-7-6-13t-6-13l-3-21q-2-5-3-13-1-4-1.5-6.5t-0.5-4.5q0-4 1-5.5t2-2.5v-8l3-12q1-4 2-7t2-6v-8q1-3 4-6h1q2 3 5 5 2 1 4 2t3 2q6 4 8 6l9 8q1 1 2 1t1 0q1 0 3 2 1 2 3 4.5t4 5.5q6 7 11 9 1-1 1-2t1-2q0-4-2-7t-3-4q-1-3-4-6l-7-8-8-9q-2-2-3-2-4 0-5-1l-5-5q-2-2-3-3.5t-2-2.5q-3-3-5.5-6t-4.5-6q-6-6-14-8zm-111 34 7 8q2 2 4 4t4 4q7 6 13 13 4 4 7 7.5t7 5.5q1 1 5 3 2 1 5 4l4 7q0 2 1 4t2 3q1 2 5 6t5 7q1 1 1 2t1 2q1 2 1 3t1 2q1 2 4 5 4 4 5 6 1 4 2 7.5t2 6.5q0 4 1 7.5t2 7.5q2 2 3.5 5t2.5 6q5 8 6 13v5t2 4q1 0 1 1t1 2v42q-1 1-1 2t-1 2-1 2-1 2q-2 4-3 5 0 2-3 3-2 2-6 1h-8q-1-1-5-3-2-1-3.5-1t-3.5-1l-14-8q-7-4-14-7l-14-6q-1-1-2-2t-2-3q-6-6-10-12l-8-13q-7-13-12.5-27t-10.5-28v-32q-1-1-1-2.5t-1-3.5-1-3.5-1-3.5q0-1 0-3.5t-1-6.5-1-6.5 0-3.5q0-6 1-8 1-3 1-10l3-8q3-4 3-10 2-1 4-2t3-2q2-2 9-4z"/></svg>