<svg width="23.394" height="18.606" viewBox="0 0 23.394 18.606" xmlns="http://www.w3.org/2000/svg"><path transform="translate(0 14.028) scale(.014 -.014)" d="m233-4q-24 0-51 4.5t-51 18.5-39 42.5-15 77.5v449q0 43 12.5 71.5t33.5 45 47 24 52 7.5q62-1 115-2.5t100.5-3 92.5-3.5v-64h-288q-39 0-62-21t-23-67v-174l329-5v-61l-329-5v-173q0-37 12.5-56t33.5-25 43-6h284v-64q-46-3-96.5-5t-101-3-99.5-2z"/><path transform="translate(8.218 14.028) scale(.014 -.014)" d="m404 0-382 534h81l383-534zm-382 0 201 289 30-71-151-218zm262 243-35 63 155 227 82 1z"/><path transform="translate(15.316 14.028) scale(.014 -.014)" d="m288-6q-58 0-101.5 12t-72.5 42-43 83.5-14 136.5q0 84 14 137.5t43 83 72.5 41 101.5 11.5 101.5-12 72.5-41.5 43.5-83 14.5-136.5q0-84-14.5-137.5t-43-83-72.5-41.5-102-12zm0 65q37 0 65.5 7t47.5 28 29 63 10 111q0 70-10 111t-29 62-47.5 28-65.5 7q-38 0-66-7t-47-28-29-62-10-111q0-69 10-111t29-63 47-28 66-7z"/></svg>