<svg width="34.174" height="16.8" viewBox="0 0 34.174 16.8" xmlns="http://www.w3.org/2000/svg"><path transform="translate(0 13.986) scale(.014 -.014)" d="m214 691q50 0 100.5 0t100-1.5 95.5-4.5l-4-69h-277q-31 0-45.5-15.5t-14.5-50.5v-410q0-35 14.5-51t45.5-16h277l4-68q-46-3-95.5-4t-100-1.5-100.5-0.5q-61 0-96.5 32.5t-36.5 87.5v452q1 56 36.5 88t96.5 32zm-115-291h368v-71h-368z"/><path transform="translate(7.84 13.986) scale(.014 -.014)" d="M493 487 342 251 505 0H413L254 251L401 487ZM127 487 274 251 116 0H23L186 251L35 487ZM317 286V220H212V286Z"/><path transform="translate(15.232 13.986) scale(.014 -.014)" d="m284 499q84 0 134.5-25t72.5-81.5 22-149.5-22-149.5-72.5-81.5-134.5-25q-83 0-133.5 25t-73 81.5-22.5 149.5 22.5 149.5 73 81.5 133.5 25zm0-72q-53 0-83.5-16.5t-43.5-56.5-13-111 13-111 43.5-56.5 83.5-16.5 84 16.5 44 56.5 13 111-13 111-44 56.5-84 16.5z"/><path transform="translate(26.306 13.986) scale(.014 -.014)" d="m271 702q66 0 113.5-11t73-43 25.5-95q0-43-11.5-81t-38.5-78.5-73-91.5l-198-221q26 2 55.5 3t56.5 1h234v-85h-453v55q0 11 3 20.5t10 17.5l200 226q66 71 97 126t29 104q-1 34-16.5 49.5t-44 20.5-68.5 5q-32 0-61-1t-61.5-4.5-75.5-10.5l-6 68q47 11 82.5 16.5t66 7.5 61.5 2z"/></svg>