<svg width="116.85" height="20.784" viewBox="0 0 116.85 20.784" xmlns="http://www.w3.org/2000/svg"><path transform="translate(0 16.592) scale(.016 -.016)" d="m521 775 24-118q-27 14-56.5 22.5t-67.5 12-93 3.5h-140v-269h85q56 0 112 2.5t110 15.5v-116q-54 13-110 15.5t-112 2.5h-85v-124q0-56 2.5-112t15.5-110h-136q13 54 15.5 110t2.5 112v331q0 56-2.5 112t-15.5 110z"/><path transform="translate(9.36 16.592) scale(.016 -.016)" d="m30 158q0 70 40.5 115.5t114.5 63.5 175 5q-6 74-33 107.5t-80 33.5q-47 0-91-22.5t-76-59.5h-7l-3 104q81 58 191 58 102 0 148-61.5t47-198.5v-83q0-49 3.5-83t12-59.5 22.5-50.5v-6l-134-28v84h-4q-19-44-57-67.5t-88-23.5q-51 0-92 22.5t-65 61.5-24 88zm98 0q0-44 27-68t76-24q35 0 63.5 15.5t46.5 42 20 58.5v97q-106 12-169.5-19.5t-63.5-101.5z"/><path transform="translate(17.744 16.592) scale(.016 -.016)" d="m515 108q-11-22-35.5-50.5t-67-50-107.5-21.5q-56 0-105.5 22t-88 61-60 91.5-21.5 113.5 21.5 114 60 92.5 88 61.5 105.5 22q62 0 106.5-17t73.5-41l-3-114h-7q-22 37-62.5 64.5t-107.5 27.5q-54 0-93.5-27t-61.5-74-22-109q0-63 28.5-110t74.5-72.5 97-25.5q56 0 92.5 20t58.5 53z"/><path transform="translate(26.224 16.592) scale(.016 -.016)" d="m143 252q0-31 2.5-64t11.5-60 30.5-44 58.5-17q58 0 88.5 28t42.5 71.5 14 89.5v73q0 56-2.5 112t-15.5 110h113v-330q0-54 3.5-86.5t13-55.5 25.5-48v-6l-127-31-10 81h-7q-14-24-31-44t-45-32-76-12q-59 0-95.5 22.5t-55.5 60.5-26 85.5-7 96.5v77q0 56-2.5 112t-15.5 110h113z"/><path transform="translate(35.232 16.592) scale(.016 -.016)" d="m78 222v331q0 54-4 88.5t-12 58.5-22 46v6l133 28v-558q0-56 2.5-112t15.5-110h-131q13 54 15.5 110t2.5 112z"/><path transform="translate(39.088 16.592) scale(.016 -.016)" d="m244-14q-141 0-141 180v315t-14-1.5-33-4-36-5.5v11l168 185h10v-116h141l10-80q-20 4-39.5 6t-45.5 3.5-66 1.5v-311q0-56 15.5-78t54.5-22q25 0 41 10t29 29l28-38q-15-37-45-61t-77-24z"/><path transform="translate(45.264 16.592) scale(.016 -.016)" d="m350 0q-37-88-58-151.5t-29-107.5h-136q30 45 62 109t69 154l-142 346q-31 75-53.5 119t-47.5 81h134q6-36 20-78.5t42-113.5l95-246 99 246q29 71 42.5 113.5t20.5 78.5h127q-25-37-47-81t-54-119z"/><path transform="translate(58.864 16.592) scale(.016 -.016)" d="m727 70q-69-45-140-64.5t-149-19.5q-89 0-163 30.5t-127.5 85.5-83 128-29.5 158 28.5 158 81 127.5 124 85 158.5 30.5q99 0 161-19t111-57l16-145h-3q-40 61-107.5 101t-177.5 40q-86 0-150-44t-99-116.5-35-160.5q0-66 22-124t63-102.5 97-70 124-25.5q53 0 100 13t78 33v219q-45-1-89-4t-88-14v99h277z"/><path transform="translate(71.616 16.592) scale(.016 -.016)" d="m78 222v331q0 54-4 88.5t-12 58.5-22 46v6l133 28v-558q0-56 2.5-112t15.5-110h-131q13 54 15.5 110t2.5 112z"/><path transform="translate(75.472 16.592) scale(.016 -.016)" d="m350 0q-37-88-58-151.5t-29-107.5h-136q30 45 62 109t69 154l-142 346q-31 75-53.5 119t-47.5 81h134q6-36 20-78.5t42-113.5l95-246 99 246q29 71 42.5 113.5t20.5 78.5h127q-25-37-47-81t-54-119z"/><path transform="translate(85.232 16.592) scale(.016 -.016)" d="m336-14q-42 0-72.5 12t-50.5 29.5-31.5 34.5-16.5 27h-2v-127q0-56 2.5-112t15.5-110h-131q13 54 15.5 110t2.5 112v369q0 54-4 88.5t-12 58.5-22 46v6l133 28-1-82h7q52 88 160 88 73 0 130-37.5t90-103 33-149.5q0-83-32-148t-87.5-102.5-126.5-37.5zm-173 242q0-73 41-117.5t111-44.5q78 0 123.5 56t45.5 152-42.5 153-113.5 57q-53 0-89-28t-54.5-71-21.5-90z"/><path transform="translate(95.024 16.592) scale(.016 -.016)" d="m431 299q0 32-3 64.5t-13 59.5-32 44-60 17q-59 0-90.5-28t-44-71-15.5-90v-73q0-56 2.5-112t15.5-110h-131q13 54 15.5 110t2.5 112v331q0 54-4 88.5t-12 58.5-22 46v6l133 28v-304h7q15 25 32.5 44.5t46.5 31.5 78 12q60 0 97.5-22.5t57-60.5 27-85 7.5-97v-77q0-56 2.5-112t15.5-110h-131q13 54 15.5 110t2.5 112z"/><path transform="translate(104.37 16.592) scale(.016 -.016)" d="m122 788 83-82-83-83-82 83zm-37-566v108q0 54-4 88.5t-12 58.5-22 46v6l133 28v-335q0-56 2.5-112t15.5-110h-131q13 54 15.5 110t2.5 112z"/><path transform="translate(108.37 16.592) scale(.016 -.016)" d="m515 108q-11-22-35.5-50.5t-67-50-107.5-21.5q-56 0-105.5 22t-88 61-60 91.5-21.5 113.5 21.5 114 60 92.5 88 61.5 105.5 22q62 0 106.5-17t73.5-41l-3-114h-7q-22 37-62.5 64.5t-107.5 27.5q-54 0-93.5-27t-61.5-74-22-109q0-63 28.5-110t74.5-72.5 97-25.5q56 0 92.5 20t58.5 53z"/></svg>