<svg width="77.336" height="17.22" viewBox="0 0 77.336 17.22" xmlns="http://www.w3.org/2000/svg"><path transform="translate(0 13.818) scale(.014 -.014)" d="m73 0v52l62 7v611l-62 8v52h424q31 0 31-31v-136h-53l-7 112h-253v-287h267v-55h-267v-274l82-8v-51z"/><path transform="translate(8.19 13.818) scale(.014 -.014)" d="m199-14q-67 0-107 41.5t-40 111.5q0 101 84.5 148t266.5 47v38q0 82-29 118t-95 36q-37 0-80.5-12.5t-82.5-35.5l-26 60q47 22 100 35t96 13q100 0 148-50t48-154v-274q0-55 42-55 22 0 41 6l9-60q-39-13-76-13-95 0-95 113v18q-32-63-85.5-97t-118.5-34zm25 61q54 0 94 29.5t62.5 83 22.5 123.5q-140-1-208-35t-68-104q0-45 26-71t71-26z"/><path transform="translate(16.758 13.818) scale(.014 -.014)" d="m281-14q-85 0-124.5 43t-39.5 136v347l-70 8v52h115q34 0 34-31v-376q0-64 23-91.5t77-27.5q94 0 190 78v388l-60 8v52h108q30 0 30-31v-433q0-55 44-55 11 0 22.5 1.5t18.5 4.5l10-60q-40-13-77-13-81 0-94 77-50-37-103.5-57t-103.5-20z"/><path transform="translate(26.572 13.818) scale(.014 -.014)" d="m596-14q-96 0-96 113v308q0 64-23 91t-77 27q-96 0-185-74v-392l70-7v-52h-219v52l70 7v453l-70 8v52h106q31 0 31-30v-39q49 39 105 61t107 22q85 0 124.5-43t39.5-136v-299q0-55 43-55 18 0 42 6l9-60q-38-13-77-13z"/><path transform="translate(36.554 13.818) scale(.014 -.014)" d="m199-14q-67 0-107 41.5t-40 111.5q0 101 84.5 148t266.5 47v38q0 82-29 118t-95 36q-37 0-80.5-12.5t-82.5-35.5l-26 60q47 22 100 35t96 13q100 0 148-50t48-154v-274q0-55 42-55 22 0 41 6l9-60q-39-13-76-13-95 0-95 113v18q-32-63-85.5-97t-118.5-34zm25 61q54 0 94 29.5t62.5 83 22.5 123.5q-140-1-208-35t-68-104q0-45 26-71t71-26z"/><path transform="translate(49.182 13.818) scale(.014 -.014)" d="m353-14q-138 0-214.5 99.5t-76.5 279.5 76.5 279.5 214.5 99.5q140 0 216.5-99.5t76.5-279.5-76.5-279.5-216.5-99.5zm0 61q101 0 157 83.5t56 234.5-56 234.5-157 83.5q-100 0-156-84t-56-234q0-151 56-234.5t156-83.5z"/><path transform="translate(59.08 13.818) scale(.014 -.014)" d="m596-14q-96 0-96 113v308q0 64-23 91t-77 27q-96 0-185-74v-392l70-7v-52h-219v52l70 7v453l-70 8v52h106q31 0 31-30v-39q49 39 105 61t107 22q85 0 124.5-43t39.5-136v-299q0-55 43-55 18 0 42 6l9-60q-38-13-77-13z"/><path transform="translate(69.062 13.818) scale(.014 -.014)" d="m315-14q-76 0-133 36.5t-88.5 102-31.5 152.5q0 146 64.5 227.5t179.5 81.5q70 0 121-32.5t79-92.5 28-143v-49h-394q1-103 48.5-162.5t129.5-59.5q74 0 163 45l25-58q-49-23-98-35.5t-93-12.5zm-173 339h313q0 92-40.5 146t-108.5 54q-71 0-113.5-51.5t-50.5-148.5z"/></svg>