<svg width="36.864" height="17.872" viewBox="0 0 36.864 17.872" xmlns="http://www.w3.org/2000/svg"><path transform="translate(0 14.064) scale(.016 -.016)" d="m205 306v-248l89-36-6-22h-248l-6 22 55 23q18 7 24.5 15t6.5 23v510l-86 35 6 22h465v-137l-30-7-48 88-195 4q-27 0-27-31v-208h160l32 69 22-6v-186l-22-6-19 45q-7 18-15 24.5t-23 6.5z"/><path transform="translate(8.432 14.064) scale(.016 -.016)" d="m418 273v-33l-15-15h-280q2-77 43-123t105.5-46 123.5 26l14-26q-12-12-29-24.5t-54.5-26-78.5-13.5q-93 0-151 61.5t-58 171.5 63 171.5 147 61.5 127-49.5 43-135.5zm-181 121q-47 0-77-15-12-15-23.5-48t-12.5-63l214 6q0 120-101 120z"/><path transform="translate(15.712 14.064) scale(.016 -.016)" d="m384 293q0 51-23.5 73.5t-75.5 22.5-104-13v-322l79-32-6-22h-224l-6 22 45 19q18 7 24.5 15t6.5 23v299l-70 11-6 22 129 47 20-8 2-28 4-2q69 38 142 38 144 0 144-153v-251l79-32-6-22h-224l-6 22 45 19q18 7 24.5 15t6.5 23z"/><path transform="translate(24.464 14.064) scale(.016 -.016)" d="m100 79v299l-70 11-6 22 137 47 20-8v-396l79-32-6-22h-224l-6 22 45 19q18 7 24.5 15t6.5 23zm35.5 483q-23.5 0-39 15.5t-15.5 39 15.5 39.5 39 16 39.5-16 16-39.5-16-39-39.5-15.5z"/><path transform="translate(28.8 14.064) scale(.016 -.016)" d="m394 373-98-135 128-186 75-30-6-22h-130l-126 181-88-127 76-32-6-22h-205l-6 22 49 21q29 12 44 34l105 146-118 173-76 32 6 22h128l117-171 84 117-76 32 6 22h205l6-22-49-21q-29-12-45-34z"/></svg>