<svg width="36.208" height="27.04" viewBox="0 0 36.208 27.04" xmlns="http://www.w3.org/2000/svg"><path transform="translate(0 17.6) scale(.016 -.016)" d="m378-32-39 16q0-1-1-1t-2 2l-21 8q0 15 0.5 30.5t1.5 30.5q-8 29-20.5 64.5t-26.5 70-28 61.5q-28 8-41.5 19.5t-13.5 21.5q0 7 5.5 11.5t12.5 4.5q9 0 22-15.5t21-29.5q39-11 99-9 20 93 47 178.5t50 163.5l-27 5q-65 12-123 18.5t-106 6.5q-40 0-80.5-5.5t-67.5-20-27-43.5q0-28 28-54t80-43.5 122-21.5q38-2 69 6t31 33q0 22-22 40t-55 29-66 11q-26 0-43.5-7.5t-17.5-24.5q0-6 5-13l12-9q6 2 6-4 0-5-7-4-29 15-29 34 0 21 25.5 28.5t54.5 7.5q40 0 78-13.5t63.5-37 25.5-52.5q0-32-24.5-51t-61-26.5-72.5-7.5q-56 0-109 18t-87.5 51.5-34.5 79.5q0 24 10 48 21 51 60 70.5t93 19.5q56 0 125.5-14t148.5-28q5-2 12.5-2.5t16.5-2.5l10 32 26-38q38-5 84-9.5t86-4.5q25 0 45.5 2.5t33.5 7.5q10 5 12 8t2 5q3 14 9 14 5 0 8-11 4-26-31.5-36t-86.5-10q-36 0-74.5 3.5t-71.5 7.5l12-16q-24-55-51-137t-48-176q36 4 72 10.5t68 14.5q5 2 8.5 2t6.5 0q13 0 13-6 0-5-15-10-45-14-84-21t-74-10q-14-69-23.5-138t-8.5-132zm-147 300q-6 11-12.5 18t-11.5 11q-10-3-2-12t26-17zm89-181q4 38 9.5 75t13.5 74q-24 1-45.5 3t-39.5 7q17-33 33.5-75t28.5-84z"/><path transform="translate(9.44 17.6) scale(.016 -.016)" d="m128-14q-34 0-57 23t-35 61-12 83q0 36 5 76.5t16.5 76 30.5 55.5q25 30 81 30 47 0 64.5-20t17.5-51q0-15-4-32.5t-9-34.5q-8-25-20.5-49.5t-32.5-41-51-18.5q-4 0-16.5 2.5t-23.5 11.5q2-27 7-54.5t18-46 38-18.5q24 0 47 21.5t42 49 31 45.5q17 25 34 50.5t32 42.5q5 6 7 6 6 0-1-9-31-41-65-99-33-54-55-89.5t-42-53-47-17.5zm-8 170q12 0 22.5 14t18.5 34 13 38 6 27q1 14 3.5 33t2.5 35q0 17-4.5 29t-17.5 12q-11 0-25.5-14.5t-25.5-34.5q-15-28-22.5-67.5t-8.5-80.5q7-9 15.5-17t22.5-8z"/><path transform="translate(14.176 17.6) scale(.016 -.016)" d="m74-23q-24 0-43 10t-26 31q-22-6-45-6-3 0-2.5 3.5t3.5 3.5q11-1 21 1t21 5q-1 4-1.5 8.5t-0.5 8.5q0 17 6 36 12 41 42 83.5t64 68.5q15 12 31.5 18t30.5 6q19 0 31.5-10t12.5-30q0-13-6.5-29.5t-20.5-37.5q-14-20-40-44.5t-59.5-46.5-72.5-34q6-33 37-33 28 0 64 24 27 18 53 47.5t47.5 64 34 69 12.5 62.5q0 18-9 29t-32 11q-4 0-8.5-0.5t-9.5-1.5q-28-4-56.5-14t-51.5-21.5-35-21.5q-1-5-9-5-9 0-20 6t-12 11q6 38 37.5 75.5t83 65.5 116.5 36q2 1 5.5 1t6.5 0q14 0 29.5-5.5t15.5-22.5q0-16-13.5-33.5t-29.5-23.5q-1-1-4-1-2 0-2 2.5t4 5.5q4 2 10.5 6.5t10.5 7.5q3 5 3 8 0 6-11 6-29-1-70.5-15t-81.5-42-64-72q19 12 48 25.5t62 23 62 9.5q44 0 59.5-21.5t15.5-49.5q0-45-25.5-92t-64.5-86-82-61q-35-19-72-19zm-54 53q34 12 66.5 34t58 45.5 38.5 41.5q14 21 20.5 37.5t6.5 28.5q0 29-30 29-12 0-27-6t-31-19q-32-26-58-69t-38-81q-8-24-6-41z"/><path transform="translate(19.824 17.6) scale(.016 -.016)" d="m85-33q-3-3-19 6t-31 21.5-17 19.5q-9 29-12.5 71t-3.5 91q0 51 3.5 105t9.5 103.5 13 87.5q-47 0-89.5 0.5t-72 2-37.5 3.5q-4 2 2 13t16 21.5 19 8.5q26-5 70-12t98-12q18 75 48 137.5t69 95.5q16 13 38 13 17 0 33-9.5t23-29.5q5-2 5-13 0-16-10-45.5t-16-49.5q-8-23-19.5-50.5t-26.5-57.5q32 0 65 3t65 11q2 0 2.5 0.5t1.5 0.5q8 0 8-6 0-4-7-7-15-8-40-8.5t-48-2.5l-53-3q-23-47-52.5-95.5t-60.5-90.5q-2-25-3-53t-1-57q0-58 5-106t15-60q13 24 39.5 66t59 89 64.5 85q5 6 8 4t-1-7q-11-14-22-31.5t-23-36.5q-40-66-72-123.5t-43-92.5zm71 522q17 34 29.5 65.5t22.5 60.5q10 33 10 54 0 25-12 25-5 0-10-5-39-36-64.5-88t-41.5-109q12-1 24-1.5t25-0.5q4-1 8-1t9 0zm-97-174q23 36 46.5 77t43.5 83q-16 0-32-0.5t-33-1.5q-11-42-16.5-82t-8.5-76z"/><path transform="translate(23.024 17.6) scale(.016 -.016)" d="m115 349q-19 0-29 13t-10 32 8 26 27 7q10 0 20 1.5t19 1.5q20 0 20-15 0-12-8.5-27.5t-21-27-25.5-11.5zm-30-382q-3-3-19 6t-31 21.5-17 19.5q-9 30-9 78 0 42 7.5 86.5t21.5 82.5 34 57q4 4 14 0.5t21.5-10.5 18-14 2.5-11q-19-21-34.5-58t-24-77.5-8.5-73.5q0-19 3.5-35t10.5-25q13 24 39.5 66t59 89 64.5 85q5 6 8 4t-1-7q-11-14-22-31.5t-23-36.5q-40-66-72-123.5t-43-92.5z"/><path transform="translate(26.224 17.6) scale(.016 -.016)" d="m106-8q1 7 1.5 18.5t0.5 26.5q0 29-2.5 65.5t-9 72-18 62.5-29.5 37q-2 1-4 1.5t-4 0.5q-10 0-21-15-6-7-9-7-5 0-5 7 0 9 8 16 17 11 44 11 36 0 57-24.5t30.5-62 12-78.5 2.5-74l4 15q8 29 14.5 54.5t14.5 48.5q6 20 15 48t22.5 56 32.5 46.5 44 18.5q10 0 20-2t20-8q5-3 3.5-5.5t-6.5 0.5q-5 4-12 4-19 0-41-26.5t-44.5-67.5-41.5-84.5-31.5-78-14.5-48.5v-6h-1q-2-5-16-12.5t-26-11-10 1.5z"/><path transform="translate(31.472 17.6) scale(.016 -.016)" d="m128-14q-34 0-57 23t-35 61-12 83q0 36 5 76.5t16.5 76 30.5 55.5q25 30 81 30 47 0 64.5-20t17.5-51q0-15-4-32.5t-9-34.5q-8-25-20.5-49.5t-32.5-41-51-18.5q-4 0-16.5 2.5t-23.5 11.5q2-27 7-54.5t18-46 38-18.5q24 0 47 21.5t42 49 31 45.5q17 25 34 50.5t32 42.5q5 6 7 6 6 0-1-9-31-41-65-99-33-54-55-89.5t-42-53-47-17.5zm-8 170q12 0 22.5 14t18.5 34 13 38 6 27q1 14 3.5 33t2.5 35q0 17-4.5 29t-17.5 12q-11 0-25.5-14.5t-25.5-34.5q-15-28-22.5-67.5t-8.5-80.5q7-9 15.5-17t22.5-8z"/></svg>