<svg width="44.38" height="16.8" viewBox="0 0 44.38 16.8" xmlns="http://www.w3.org/2000/svg"><path transform="translate(0 13.3) scale(.014 -.014)" d="M93 0V700H509V623H178V384H470V307H178V0Z"/><path transform="translate(7.602 13.3) scale(.014 -.014)" d="m75 0v500h80v-500zm41 616q-20 0-35 15t-15 35q0 21 15 35.5t35 14.5q21 0 35.5-14.5t14.5-35.5q0-20-14.5-35t-35.5-15z"/><path transform="translate(10.85 13.3) scale(.014 -.014)" d="m270-212q-48 0-87.5 9.5t-67 21-39.5 19.5l30 65q13-7 37-17.5t56.5-18 69.5-7.5q48 0 86.5 19.5t60 61 21.5 106.5v53q-27-45-71-70.5t-99-25.5q-67 0-118 32t-79.5 89.5-28.5 131.5q0 76 28.5 133.5t79.5 89.5 118 32q55 0 99-25t71-71v84h80v-452q0-86-32-144t-88-87-127-29zm16 285q44 0 78 24t53 65.5 19 96.5q0 53-19.5 94.5t-53 65-78.5 23.5q-47 0-83.5-23.5t-57-65-20.5-94.5q0-55 21-96.5t57.5-65.5 83.5-24z"/><path transform="translate(19.068 13.3) scale(.014 -.014)" d="m258-12q-73 0-113 38t-40 107v296h-87v71h87v156h80v-156h150v-71h-150v-288q0-38 20.5-58.5t57.5-20.5q12 0 23.5 3.5t30.5 17.5l31-65q-26-17-47-23.5t-43-6.5z"/><path transform="translate(24.36 13.3) scale(.014 -.014)" d="m70 0v500h80v-89q30 47 77.5 69t99.5 22v-75q-44 0-84.5-14.5t-66.5-47.5-26-90v-275z"/><path transform="translate(29.092 13.3) scale(.014 -.014)" d="m289-12q-73 0-129 33.5t-87.5 92.5-31.5 136 31.5 136 87 92.5 127.5 33.5q70 0 121-34.5t79-96.5 28-146h-393q5-82 52-128t119-46q53 0 89.5 25t56.5 66l69-35q-19-39-50.5-68t-74-45-94.5-16zm-161 314h301q-3 43-22.5 74t-50.5 48-70 17q-38 0-73-16.5t-58-48-27-74.5z"/><path transform="translate(36.736 13.3) scale(.014 -.014)" d="m289-12q-73 0-129 33.5t-87.5 92.5-31.5 136 31.5 136 87 92.5 127.5 33.5q70 0 121-34.5t79-96.5 28-146h-393q5-82 52-128t119-46q53 0 89.5 25t56.5 66l69-35q-19-39-50.5-68t-74-45-94.5-16zm-161 314h301q-3 43-22.5 74t-50.5 48-70 17q-38 0-73-16.5t-58-48-27-74.5z"/></svg>