<svg width="87.444" height="20.636" viewBox="0 0 87.444 20.636" xmlns="http://www.w3.org/2000/svg"><path transform="translate(0 15.358) scale(.014 -.014)" d="m121 753q23 0 45.5 3.5t45.5 3.5q25 0 49.5-2.5t49.5-4.5q-29 5-58 6.5t-58 1.5q-18 0-35.5-0.5t-35.5-1.5q8 13 23 18t29 5h5l25-1 4-10q8 2 15 2h16q24 0 48-3.5t50-3.5h12q6 0 13 2l2 5q39-2 79-2 15 0 26.5-6t25.5-6v-23q0-6-2-10.5t-7-4.5l-6 1v-9q10-7 17-18t7-23q0-9-4.5-14t-11.5-8-15-3.5-15-0.5q-63 0-130 6.5t-133 17.5l-19-5q1-4 2.5-18.5t3.5-35 4.5-43.5 4.5-42.5 3-33 1-14.5h40v-10q18 5 31 5 16 0 31-3t33-3q8 0 15.5 1t15.5 3v7q-15-1-30-1.5t-30-0.5q-10 0-19.5 0.5t-18.5 1.5q42 0 82.5 3t82.5 3q17 0 31-9t14-28q0-5-2-9t-7-4l-6 1v-9q10-8 16-19.5t6-23.5q0-10-9.5-16t-23.5-9.5-31.5-4.5-32.5-1q-44 0-81.5 7.5t-75.5 7.5q-6 0-16-2 3-33 3-67 0-46-3-92.5t-3-92.5q0-7 1-18t1-22q0-14-3.5-25t-16.5-11v266q-3-30-3.5-59.5t-0.5-58.5v-104q0-21-2-44l-15 3v-18q-4-7-10.5-12.5t-14.5-5.5q-10 0-16 4.5t-9.5 11.5-4.5 15.5-1 15.5q0 43 4 87t4 88q0 27-3 54t-7 54q1-42 2.5-82.5t1.5-81.5q0-35-2-68.5t-8-67.5q-13 16-13 34 0 23 1.5 47t1.5 47h13q-6 33-7 66l-2 67q-1 34-3 67.5t-10 66.5l-6-3q14-118 15-238-3 96-14 190-11 100-19 201-2 5-2.5 11.5t-0.5 12.5q0 19 1.5 36.5t1.5 37.5l25 2q11 0 12.5-11.5t1.5-18.5h13q2 13 9.5 28.5t21.5 20.5l-1 3-9-3q-10 5-14.5 14.5t-4.5 20.5q0 5 2 10t2 10zm80-298q17 0 33.5-1.5t33.5-1.5h9l40 1q-29 4-58 3t-58 3zm96 323q-33 4-66 6 52-2 105-8 13-1 25-2-33 0-64 4zm-125-94q6 2 21.5 3t22.5 2h-24q-16 0-23-1zm68-298q11-2 22-3 8-1 16-3-8 2-15 4-9 2-20 2zm126 388h-5q2 0 5-1zm-83-394q-2 0-5 0 3 0 5 0z"/><path transform="translate(7.224 15.358) scale(.014 -.014)" d="m76 52q4 28 7.5 65.5t6.5 75.5 6 74.5 6 63.5q-5-27-9-62t-8-72-8-73.5-7-65.5q-15 10-15 27 0 20 1 33.5t3 31.5l11 10q-1 5-1 9v10q0 23 5 52.5t11.5 60 11.5 59 5 49.5l-12 3q-2-24-6-54.5t-8.5-63-8.5-64.5q-2-17-4-32 2 28 5 60 5 46 10.5 91.5t10.5 89.5 10 81q0 15 7.5 32.5t10.5 36.5q6-2 10-2h7q10 0 13-4.5t3-12.5v-5l9-3q8 15 19 24t22 9q24 0 24-51 0-27-5.5-57.5t-5.5-59.5v-13q0-32-7-69.5t-15.5-76-15.5-74.5-7-66q0-7 1-15t1-15q0-15-5.5-18.5t-13.5-3.5q0 13-1 32t-1 34q-2-11-2-30t-2-36h-15v-12q-9-16-24-16-7 0-16 4t-14 9zm206 768q-17-10-31-26t-29-31q9 6 16 13t14.5 14 16 14 19.5 13q3-4 5.5-7t2.5-6l-23-23q0 2-3.5 4t-5.5 2q-3-10-10-16t-14-11-14-11-10-16v-2q0-1 3-1l50 47-19-19q-14-14-29.5-28.5t-29-25.5-16.5-11l-1 1q-7 2-14.5 2t-15.5 1q0 8-2.5 17t-2.5 14 5 5q0 3-3.5 9.5t-7.5 15-7.5 18-3.5 19.5 8.5 19.5 20 16.5 22.5 12 16 7q4 0 3 4.5t3 4.5l18-6q-2-5-12.5-16.5t-15.5-16.5q7 5 16.5 15t14.5 15q5-2 9-4t6-2l3 3q7 0 15.5-3t15.5-7 12-9 5-8zm-221-655q1 11 2 22-1-12-2-22z"/><path transform="translate(11.788 15.358) scale(.014 -.014)" d="m60 64q0 5 3 12t3 15q3 24 4 34.5t1 18.5q0 42-2.5 90.5t-5.5 93.5q0 14-0.5 33t-2.5 30q3 35 5 69t2 69v25q0 13-1 26 3-3 6-3 4 0 8.5 3t8.5 3q7 0 11.5-15t4.5-66h9q5 56 15.5 89t21.5 33q5 0 16-21.5t11-67.5l11 18q11 13 24.5 27t30.5 25 38 18.5 48 7.5q52 0 90.5-23.5t64.5-61 42.5-85 25.5-96 12-93.5 3-77q0-29-3.5-34.5t-12.5-6.5q-2 77-10 157t-38 155q27-79 34.5-155.5t7.5-153.5q-6 3-11 3-4 0-7-3 0-8 1-17 1-8 1.5-16t0.5-15q-6-23-12-33t-11-10q-6 0-10 5.5t-7.5 13.5-7 17.5-9.5 18.5q2 17 3 27.5t1 17.5q0 27-1 65t-5.5 79.5-14 83-26 74-41.5 53-60 20.5q-24 0-42.5-16t-32-41-23.5-54.5-16-56.5q9 28 18.5 57t23 53 31.5 39.5 42 15.5q31 0 53.5-17t38-44 25-61.5 14.5-70 6.5-69 1.5-57.5q0-19-0.5-38t-1.5-39q-9 38-13.5 79.5t-9.5 82-12.5 78-21.5 69.5l7 10q-10 23-22.5 35.5t-24.5 18.5-22 7-13 1q-25 0-44.5-18t-34-48.5-25.5-70.5-19-84-14-88.5-10-83.5h9q5 34 10.5 75t12 83.5 15.5 82.5 21.5 72 29.5 52q16 19 39 22-22-5-37-28-16-24-28-59t-21.5-76.5-17.5-79.5l-20-146q-4-14-6-25l-4-21q-2-10-4-21.5t-5-26.5l-3-12h-6l-101 34q-5 1-7.5 3t-5.5 5zm174 513q-20-17-31.5-36.5t-21.5-39.5v-1q14 29 39 59 24 28 64 42-13-4-25-8-14-5-25-16zm120 33q-5 1-14 1 32-8 60-17.5t53-37.5q-17 23-44.5 36t-54.5 18zm27-114q-8 6-18.5 9.5t-25.5 9.5l-1 2q17-1 30-7.5t25-22.5zm74 58q14-17 26-39t21-39q-10 23-19 42t-28 36z"/><path transform="translate(20.44 15.358) scale(.014 -.014)" d="m444 352v2l-26 8 17 29 117-36q0-33 3.5-67.5t8-70.5 8-73.5 3.5-75.5q0-51-9-103t-29.5-99-54-87-83.5-66q-27-18-69.5-33.5t-83.5-17.5h-12q-40 0-67 8.5t-43 19-22.5 20-6.5 11.5q0 4 4 4 31-23 67-33t72-10q61 0 113 24 50 24 90 60-40-35-91-58-52-23-111-23-35 0-68.5 10t-62.5 33q3 0 7 1.5t4 5.5l-8 7q-7 7-16.5 18t-17 26-7.5 32 13 17q10 0 23-13t31-28.5 43.5-28.5 60.5-13q50 0 90 19.5t70 53.5q-29-32-67.5-50t-87.5-18q-30 0-56.5 10t-42.5 27q17-5 42.5-11t55.5-6q54 0 95.5 27.5t71.5 69.5l14-2q23 40 32.5 85.5t9.5 95.5q0 34-3 69t-8 71l-5-7q5-35 7.5-68.5t2.5-65.5q0-40-8-79.5t-25-72.5q17 35 24 74.5t7 84.5q-5 26-5 52t-2 52l-2 20q-7-10-21-28t-33-35.5-42.5-30.5-49.5-13l-25-3q-53 0-95 27t-72 68.5-46 91-16 95.5q-1 5-1 8v9q0 61 22 105.5t60.5 72.5 90.5 41.5 112 13.5q70 0 142-19-6-2-6-7 0-4 1.5-7.5t1.5-7.5v-2q-3-5-14-5t-32 3-59 8v-12q34-4 58-12.5t39-18.5 21.5-19 6.5-15q0-4-4.5-5.5t-9.5-1.5q-11 0-39.5 4t-71.5 4q-41 0-77-5t-62.5-19-41.5-39-15-65q0-33 10.5-63t26-53 34.5-36.5 37-13.5q12 0 29.5 17t37 42 37.5 53 31 50zm-36-201q-10-10-22-21.5t-26.5-21-32.5-17-39-9.5l7-3q30 4 55 17.5t44.5 31.5 34.5 37 26 33l-2 12q-9-13-21.5-29t-23.5-30zm73-97q0-44-9-86-9-40-25-75 17 36 27 79 11 44 11 90 0 23-1.5 47t-3.5 48l-5 59-5-6q4-39 7.5-78t3.5-78zm74 6q0 53-4.5 103t-10.5 99q4-46 9-91.5t5-93.5q0-33-3.5-69.5t-12.5-72.5-25-70q-15-32-38-60 40 46 57 104 18 60 23 119z"/><path transform="translate(29.19 15.358) scale(.014 -.014)" d="m414-18q-38-13-58-14.5t-35-2.5q-56 0-101 21t-77 57-49.5 84.5-17.5 103.5q0 32 6 66.5t18 68 31 62.5q18 29 43 52-26-21-44-50-19-29-32-62.5t-19-69-6-68.5q0-42 13.5-89.5t43.5-88 77.5-67.5 115.5-27q32 0 67 9-38-25-85-25-38 0-71.5 11.5t-62 32-51.5 48.5-39 60l9 8q-17 34-24.5 68t-7.5 69q0 51 14.5 98t38.5 89l24 33q6 11 17.5 22t25.5 21.5 29.5 19 29.5 15.5q36 18 72 32.5t84 21.5l-4 3q-92-9-156-44.5t-104-86.5-58-111.5-18-118.5q0-31 5.5-62.5t16.5-62.5q-25 60-25 127 0 66 22 131t69 120q60 55 131 84.5t137 29.5q21 0 43-7t40-21.5 29.5-37.5 11.5-56q0-27-13-66t-38.5-75.5-63.5-62-88-25.5h-33q-37 8-67.5 18.5t-57.5 16.5q-4-16-4.5-30.5t-0.5-28.5q0-29 6.5-56.5t20.5-50.5 35.5-38.5 52.5-19.5q19-4 33-4.5t23.5-1 14-3 4.5-9.5q-10-3-20.5-4t-21.5-1q-35 0-63 11.5t-48 26.5q23-23 55-32.5t63-9.5q17 0 35 3-2-6-2-7 0-6 5-8 4 1 14 5.5t20.5 9 20.5 8 14 3.5q5 0 9-1.5t4-11.5-7-24-21-28zm-138 396 22-4q11-2 20-2 10 0 23.5 6.5t27 18.5 24 30 15.5 41l2 6q-14 0-42-7t-58-18.5-56-27-36-33.5q15-3 29.5-5.5t28.5-4.5zm-46-74q2 2 2.5 6t0.5 6l-47 17-5-14zm-28-227q-7 8-14 16-6 7-10 14 9-17 24-30z"/><path transform="translate(37.212 15.358) scale(.014 -.014)" d="m223-11q-10-2-22-2h-29q-26 0-36.5-6t-12.5-6l-4 18v18l-5 94q-2 27-11 58t-14 63q-3 21-5 40l-4 39q-2 20-4.5 41t-7.5 45q0 6 0.5 12t0.5 12q0 31-5 61t-14 59q7 3 13 5.5t11 2.5 11-11.5 13-47.5q2 0 6 1.5t6 1.5q-1 17-5 36.5t-8 37.5-7.5 32.5-3.5 23.5q0 2 0.5 5t4.5 3q5 0 13-11t17-28 17.5-36.5 15.5-36.5q27 51 61.5 77.5t90.5 26.5q41 0 67-9.5t40.5-21 19.5-21.5l6-10q0-6-6-8-26 25-59 38t-68 13q-34 0-51-9-16-8-34-20 19 12 35 19 17 7 49 7 35 0 67-13.5t55-34.5q-5-2-8.5-4.5t-3.5-7.5q5 0 11-6.5t11-15.5 8.5-18.5 3.5-15.5q0-17-13-17-10 0-24 7-3 1-12.5 11t-23.5 20.5-32 19.5-40 9q-18 0-31.5-7.5t-24.5-20-20-28.5l-13-24q15 27 33 49 20 26 50 26 26 0 48-11.5t36-28.5q-17 7-40 14t-44 7q-11 0-19-5t-13.5-12.5-10-16.5-9.5-17l-13-2q-17-29-27.5-67.5t-10.5-80.5q0-25 2.5-45t7.5-41l12-31-2 29q-2 34-4 60.5t-2 58.5q2 29 8 55 5 22 15 41-12-24-16-55-5-34-5-72 0-30 3-57t7.5-54 9.5-55.5 8-62.5l3-19 6-57zm12 447-3-5z"/><path transform="translate(48.398 15.358) scale(.014 -.014)" d="m230 201v-21q0-17 0.5-33.5t4.5-30.5q-5-49-7.5-98t-2.5-98l-22-1q-5 0-7.5 6.5t-4 16-2 20.5-0.5 20v20h-10q0-6-3-26t-7.5-42-11.5-39.5-16-17.5q-7 0-12 13.5t-8 30.5-5 32.5-2 20.5q-9 88-9 176.5t-8 176.5q-3 30-9 58.5t-12.5 57.5-11 58-4.5 61q0 45 23 70.5t57.5 38.5 74.5 16 74 3q69 0 135.5-10t118.5-39 83.5-81.5 31.5-136.5q0-71-21.5-124t-60.5-88-94.5-52.5-123.5-17.5q-3 0-13 0.5t-21 2-19.5 5-8.5 9.5l3 7q17-1 34-1.5t34-0.5q30 0 59.5 3t57.5 12 52 25q22 15 41 38-20-23-43-38-25-16-53.5-24t-59-10.5-61.5-2.5q-14 0-29 0.5t-29 1.5l-1 19q-8-1-14-1.5t-11-0.5q-12 0-22 3.5t-24 12.5zm91 375q-34 0-72-2.5t-70-13.5l-5-8q38 11 70 13t61 2h4q43 0 85-2.5t75-17 53.5-45 20.5-86.5q0-17-3-32t-8-30q4 14 6.5 28.5t2.5 29.5q0 38-13 69t-42 56l-7 4q-15 7-37.5 11t-47.5 6.5-50.5 3-47.5 0.5h-28q-18 0-41.5-3t-40.5-8q0-25 4.5-49.5t9.5-48.5l11-48q6-24 8-48l9-125q7 5 15.5 8.5t22.5 3.5h5q22-7 45.5-8t46.5-1q48 0 85.5 9t63.5 30.5 39.5 57 13.5 87.5q0 23-7.5 50.5t-22.5 51.5-38 40q-22 16-51 17 28-3 50-18t37-38 22.5-50.5 7.5-53.5q0-91-44-134t-135-43q-22 0-44 2l-44 4q33 8 67.5 9.5t66 7.5 57 22.5 41.5 55.5l9-3q12 33 12 69 0 55-18.5 88t-49.5 51-72.5 23.5-87.5 5.5zm317-151q0 41-11 75.5t-34 67.5q21-33 31.5-70.5t10.5-76.5q0-63-25-121 13 28 20 59 8 33 8 66zm-168 226q14-5 27.5-8.5t27.5-9.5q-25 13-55 18zm95-48q-4 8-18 17-13 8-21 12 10-8 19-13 10-6 20-16z"/><path transform="translate(58.03 15.358) scale(.014 -.014)" d="m401 262q-27 0-40.5 1t-24.5 1q-30 0-53-3t-39-12-24-26-8-45q0-41 9.5-60.5t27-28 42.5-10.5 56-9q18-2 36-2.5t36-0.5h72q-50 3-99.5 3.5t-89 8.5-64 28-24.5 61q0 33 8.5 50.5t23 26 34.5 10 43 1.5q28 0 57-3-23-7-46.5-10.5t-43.5-7-34.5-9-19.5-15.5v-45l-8-4q4-25 7.5-37.5t19.5-19 51.5-10.5 103.5-13h72q19 0 22.5 1.5t4.5 1.5l-9 54q-2 20-5 36t-8 34q-1-3-6-3 5-17 8.5-36t6-36 4-29 3.5-14l-6-2q-2-1-6-1h-6q-7 0-16 1.5t-23 1.5h-33q-39 0-72 4-31 4-54 10 23-5 56-8 35-4 65-4 13 0 27.5 0.5t31.5 0.5h33q-3 3-7 3h-2q-4 69-18 132t-45 110.5-81 76-125 28.5q-21 0-42-3t-43-8q2 2 2 4 0 5-4 9.5t-4 9.5q0 6 12.5 11.5t53.5 10.5q-2 2-2.5 6t-0.5 6q-54 0-84 2.5t-30 14.5q0 5 12.5 14t35.5 17.5 55.5 15 72.5 6.5q77 0 132-23.5t92.5-62 61-87.5 38-98.5 21.5-96 13-80.5q0-6 0.5-12t0.5-14q0-29-10.5-50.5t-29-36-43-22-52.5-7.5q-22 0-57 1t-67 6q-21 5-46 7.5t-51 8.5-50.5 17-44 33.5-31 58.5-11.5 91q0 52 24 83.5t57.5 49 68.5 23 57 5.5q28 0 37-4t9-8q0-3-1-5-25 0-64-2t-75.5-13-62.5-33.5-26-63.5q9 37 30.5 58.5t49.5 32 57.5 13 53.5 2.5h34q-4-4-4-8t4-7h39q16-3 23-10.5t7-13.5q0-9-9-16t-30-14zm-168-242q28-11 57.5-17t58.5-8q29-3 54-3-20 2-40 7-21 5-37 9-17 4-33.5 5.5t-34 4.5-35.5 9.5-36 19.5q19-17 46-27zm10 105q-1 1 6-6 6-6 16-9-5 2-15 5-11 4-11 12zm25-15q-1 0-3 0 1 0 3 0z"/><path transform="translate(67.55 15.358) scale(.014 -.014)" d="m76 52q4 28 7.5 65.5t6.5 75.5 6 74.5 6 63.5q-5-27-9-62t-8-72-8-73.5-7-65.5q-15 10-15 27 0 20 1 33.5t3 31.5l11 10q-1 5-1 9v10q0 23 5 52.5t11.5 60 11.5 59 5 49.5l-12 3q-2-24-6-54.5t-8.5-63-8.5-64.5q-2-17-4-32 2 28 5 60 5 46 10.5 91.5t10.5 89.5 10 81q0 15 7.5 32.5t10.5 36.5q6-2 10-2h7q10 0 13-4.5t3-12.5v-5l9-3q8 15 19 24t22 9q24 0 24-51 0-27-5.5-57.5t-5.5-59.5v-13q0-32-7-69.5t-15.5-76-15.5-74.5-7-66q0-7 1-15t1-15q0-15-5.5-18.5t-13.5-3.5q0 13-1 32t-1 34q-2-11-2-30t-2-36h-15v-12q-9-16-24-16-7 0-16 4t-14 9zm206 768q-17-10-31-26t-29-31q9 6 16 13t14.5 14 16 14 19.5 13q3-4 5.5-7t2.5-6l-23-23q0 2-3.5 4t-5.5 2q-3-10-10-16t-14-11-14-11-10-16v-2q0-1 3-1l50 47-19-19q-14-14-29.5-28.5t-29-25.5-16.5-11l-1 1q-7 2-14.5 2t-15.5 1q0 8-2.5 17t-2.5 14 5 5q0 3-3.5 9.5t-7.5 15-7.5 18-3.5 19.5 8.5 19.5 20 16.5 22.5 12 16 7q4 0 3 4.5t3 4.5l18-6q-2-5-12.5-16.5t-15.5-16.5q7 5 16.5 15t14.5 15q5-2 9-4t6-2l3 3q7 0 15.5-3t15.5-7 12-9 5-8zm-221-655q1 11 2 22-1-12-2-22z"/><path transform="translate(72.114 15.358) scale(.014 -.014)" d="m60 64q0 5 3 12t3 15q3 24 4 34.5t1 18.5q0 42-2.5 90.5t-5.5 93.5q0 14-0.5 33t-2.5 30q3 35 5 69t2 69v25q0 13-1 26 3-3 6-3 4 0 8.5 3t8.5 3q7 0 11.5-15t4.5-66h9q5 56 15.5 89t21.5 33q5 0 16-21.5t11-67.5l11 18q11 13 24.5 27t30.5 25 38 18.5 48 7.5q52 0 90.5-23.5t64.5-61 42.5-85 25.5-96 12-93.5 3-77q0-29-3.5-34.5t-12.5-6.5q-2 77-10 157t-38 155q27-79 34.5-155.5t7.5-153.5q-6 3-11 3-4 0-7-3 0-8 1-17 1-8 1.5-16t0.5-15q-6-23-12-33t-11-10q-6 0-10 5.5t-7.5 13.5-7 17.5-9.5 18.5q2 17 3 27.5t1 17.5q0 27-1 65t-5.5 79.5-14 83-26 74-41.5 53-60 20.5q-24 0-42.5-16t-32-41-23.5-54.5-16-56.5q9 28 18.5 57t23 53 31.5 39.5 42 15.5q31 0 53.5-17t38-44 25-61.5 14.5-70 6.5-69 1.5-57.5q0-19-0.5-38t-1.5-39q-9 38-13.5 79.5t-9.5 82-12.5 78-21.5 69.5l7 10q-10 23-22.5 35.5t-24.5 18.5-22 7-13 1q-25 0-44.5-18t-34-48.5-25.5-70.5-19-84-14-88.5-10-83.5h9q5 34 10.5 75t12 83.5 15.5 82.5 21.5 72 29.5 52q16 19 39 22-22-5-37-28-16-24-28-59t-21.5-76.5-17.5-79.5l-20-146q-4-14-6-25l-4-21q-2-10-4-21.5t-5-26.5l-3-12h-6l-101 34q-5 1-7.5 3t-5.5 5zm174 513q-20-17-31.5-36.5t-21.5-39.5v-1q14 29 39 59 24 28 64 42-13-4-25-8-14-5-25-16zm120 33q-5 1-14 1 32-8 60-17.5t53-37.5q-17 23-44.5 36t-54.5 18zm27-114q-8 6-18.5 9.5t-25.5 9.5l-1 2q17-1 30-7.5t25-22.5zm74 58q14-17 26-39t21-39q-10 23-19 42t-28 36z"/><path transform="translate(80.766 15.358) scale(.014 -.014)" d="m422 500q-9 0-24.5-3t-31-7-28-8-15.5-6q26 4 48 9.5t48 5.5q-5-9-13-14t-17.5-7.5-20.5-4-23-4.5l-7 9q-19-7-29-8.5t-21-1.5q-12 0-24.5 0.5t-27.5 0.5q0-5-1-8 23 0 39 0.5t39 3.5q-22-4-38.5-6t-39.5-2q-4-23-7-45t-3-43q0-12 1-28t2.5-32.5 2.5-31 1-21.5v-60q5-20 29-30t69-10h32q17 0 23.5-3.5t6.5-9.5q0-5-8-5.5t-16-0.5q-29 0-61 4-30 4-59 9 29-7 61-13 33-5 64-5h9q4 0 9 1 0-5 0.5-9t2.5-9l8 2q3 1 7 1.5t6 2.5q32-3 32-22 0-11-6-18t-15-11-20-5.5-21-1.5q-35 0-68.5 4.5t-65.5 9.5q28-10 71-16t87-6q-11-7-26-11t-31-4l-72 9q-14 2-21.5 4t-14.5 4.5-15.5 5.5-23.5 7v11q-26 7-42 24t-25 37-12 40.5-3 36.5q0 17 0.5 31.5t0.5 29.5q0 11-0.5 28t-1.5 36-1.5 39-0.5 38q0 11 0.5 21t1.5 18h-10q-1-7-1-16v-18q0-29 1-57.5t1.5-52.5 1.5-41.5 1-25.5v-48q-3 27-6 77-3 58-3 128v18q0 11 0.5 21t2.5 15l-34 2q-11 7-22 11t-20 4v20q0 6 1.5 10.5t9.5 4.5q2 0 10-2v12q-11 6-18 16.5t-7 21.5q0 26 37 26 14 0 29-2t31-3q4 22 7 39.5t6 34 7 33 10 34.5q9 20 14 43.5t7 46.5l21-1q5 0 8.5-3t3.5-14q0-9-3-24l12-3q8 27 19.5 44t22.5 17q17 0 21-43v-18q0-26-3.5-48.5t-8.5-44.5-10-45-9-50q22-3 43-3 10 0 20 0.5t20 0.5 21 8 20 8q8 0 12-5t4-11q-18-5-35.5-10.5t-33.5-10.5q16 2 34 7.5t38 10.5q0-5 0.5-9t2.5-9q2 0 5 1 6 2 7 2 10-5 13-12.5t3-16.5q0-7-2-12.5t-2-9.5zm-265-369q-14 27-15 53t-3 49l-9 152-3-18q0-67 4.5-121.5t13.5-84.5q0-9-0.5-12t-0.5-5 2.5-5 10.5-8zm57 54q-2 8-2 17v49q-1-10-2-19.5t-1-19.5q0-26 3-40 3-12 12-20-5 6-7 13-1 8-3 20zm-97 1-1 7zm109-35q-1 1-2 1 1 0 2-1z"/></svg>