<svg width="129.65" height="19.2" viewBox="0 0 129.65 19.2" xmlns="http://www.w3.org/2000/svg"><path transform="translate(0 15.2) scale(.016 -.016)" d="M92 0V700H481V631H168V384H455V316H168V0Z"/><path transform="translate(8.368 15.2) scale(.016 -.016)" d="m108 0v436h-68v63h141v-499zm0 601v99h73v-99z"/><path transform="translate(12.56 15.2) scale(.016 -.016)" d="m80 0v499h74v-42q11 13 29 25t42.5 20.5 55.5 8.5q39 0 69.5-11t52-30.5 32.5-47 11-59.5v-363h-74v346q0 28-11 50.5t-35 35.5-64 13q-34 0-58.5-12.5t-37-33.5-12.5-48v-351z"/><path transform="translate(20.912 15.2) scale(.016 -.016)" d="m181 0q-45 0-73 26.5t-28 69.5v654h72v-647q0-18 10.5-28t27.5-10h39v-65z"/><path transform="translate(25.136 15.2) scale(.016 -.016)" d="m373-10-31 46q-4 5-7.5 5.5t-8.5-3.5q-21-19-52.5-33.5t-77.5-14.5q-47 0-81 18t-53 50-19 74q0 44 19.5 74.5t56 46.5 85.5 16h120v81q0 43-28 70t-85 27q-39 0-72-12.5t-63-37.5l-22 59q36 28 75.5 41.5t86.5 13.5q89 0 132.5-44.5t43.5-111.5v-263l43-64zm-168 58q32 0 59 10.5t43.5 29.5 16.5 44v79q0 6-3.5 8.5t-11.5 1.5l-40-10h-62q-44 0-70-20t-26-57q0-38 25.5-62t68.5-24z"/><path transform="translate(32.704 15.2) scale(.016 -.016)" d="m80 0v499h74v-42q11 13 29 25t42.5 20.5 55.5 8.5q39 0 69.5-11t52-30.5 32.5-47 11-59.5v-363h-74v346q0 28-11 50.5t-35 35.5-64 13q-34 0-58.5-12.5t-37-33.5-12.5-48v-351z"/><path transform="translate(41.056 15.2) scale(.016 -.016)" d="m236-10q-54 0-92.5 22t-59.5 61-26 89q-2 27-2.5 48t-0.5 40q0 21 1 41.5t2 45.5q5 51 26.5 90t60.5 60 94 21q41 0 74.5-14t49.5-34v290h74v-750h-74v30q0 7-4 9.5t-11-2.5l-40-26q-14-10-31.5-15.5t-40.5-5.5zm14 62q34 0 59.5 12.5t39.5 33.5 14 46v208q0 29-14 49.5t-39 32.5-60 12q-38 0-63.5-15.5t-39-41.5-16.5-56q-4-41-3.5-82.5t3.5-82.5q2-27 14.5-54t38.5-44.5 66-17.5z"/><path transform="translate(49.344 15.2) scale(.016 -.016)" d="m108 0v436h-68v63h141v-499zm0 601v99h73v-99z"/><path transform="translate(53.536 15.2) scale(.016 -.016)" d="m252-12q-58 0-99 23t-64.5 63-28.5 89q-3 24-4 45t-1 41q0 19 1 40t4 45q5 50 28.5 89.5t64.5 62.5 98 23q44 0 78-10.5t62-31.5l-20-57q-26 19-53.5 28t-63.5 9q-38 0-64.5-16.5t-42-43-18.5-58.5q-3-39-3.5-79.5t3.5-81.5q3-31 18.5-57.5t42-42.5 65.5-16q34 0 65.5 8.5t59.5 27.5l20-54q-34-23-68-34.5t-80-11.5z"/><path transform="translate(60.336 15.2) scale(.016 -.016)" d="m373-10-31 46q-4 5-7.5 5.5t-8.5-3.5q-21-19-52.5-33.5t-77.5-14.5q-47 0-81 18t-53 50-19 74q0 44 19.5 74.5t56 46.5 85.5 16h120v81q0 43-28 70t-85 27q-39 0-72-12.5t-63-37.5l-22 59q36 28 75.5 41.5t86.5 13.5q89 0 132.5-44.5t43.5-111.5v-263l43-64zm-168 58q32 0 59 10.5t43.5 29.5 16.5 44v79q0 6-3.5 8.5t-11.5 1.5l-40-10h-62q-44 0-70-20t-26-57q0-38 25.5-62t68.5-24z"/><path transform="translate(72.096 15.2) scale(.016 -.016)" d="M92 0V700H168V384H450V700H526V0H450V316H168V0Z"/><path transform="translate(81.984 15.2) scale(.016 -.016)" d="m254-10q-61 0-101.5 22t-63 61-28.5 89q-3 24-4.5 45t-1.5 42q0 40 6 89 5 49 28 88t63 61 96 22q48 0 80-15t52.5-39.5 30.5-54 13.5-58 3.5-52.5l-20-52h-318v57h270q0 27-4.5 54t-16.5 49.5-34 35.5-57 13q-55 0-84.5-33.5t-34.5-78.5q-2-16-3.5-41.5t-1-57 4.5-64.5q3-31 16.5-58.5t40-44.5 68.5-17q26 0 49.5 5.5t45.5 16.5 43 25l21-55q-27-20-53-32t-52-17-54-5z"/><path transform="translate(89.504 15.2) scale(.016 -.016)" d="m373-10-31 46q-4 5-7.5 5.5t-8.5-3.5q-21-19-52.5-33.5t-77.5-14.5q-47 0-81 18t-53 50-19 74q0 44 19.5 74.5t56 46.5 85.5 16h120v81q0 43-28 70t-85 27q-39 0-72-12.5t-63-37.5l-22 59q36 28 75.5 41.5t86.5 13.5q89 0 132.5-44.5t43.5-111.5v-263l43-64zm-168 58q32 0 59 10.5t43.5 29.5 16.5 44v79q0 6-3.5 8.5t-11.5 1.5l-40-10h-62q-44 0-70-20t-26-57q0-38 25.5-62t68.5-24z"/><path transform="translate(97.072 15.2) scale(.016 -.016)" d="m236-10q-54 0-92.5 22t-59.5 61-26 89q-2 27-2.5 48t-0.5 40q0 21 1 41.5t2 45.5q5 51 26.5 90t60.5 60 94 21q41 0 74.5-14t49.5-34v290h74v-750h-74v30q0 7-4 9.5t-11-2.5l-40-26q-14-10-31.5-15.5t-40.5-5.5zm14 62q34 0 59.5 12.5t39.5 33.5 14 46v208q0 29-14 49.5t-39 32.5-60 12q-38 0-63.5-15.5t-39-41.5-16.5-56q-4-41-3.5-82.5t3.5-82.5q2-27 14.5-54t38.5-44.5 66-17.5z"/><path transform="translate(105.36 15.2) scale(.016 -.016)" d="m181 0q-45 0-73 26.5t-28 69.5v654h72v-647q0-18 10.5-28t27.5-10h39v-65z"/><path transform="translate(109.58 15.2) scale(.016 -.016)" d="m108 0v436h-68v63h141v-499zm0 601v99h73v-99z"/><path transform="translate(113.78 15.2) scale(.016 -.016)" d="m80 0v499h74v-42q11 13 29 25t42.5 20.5 55.5 8.5q39 0 69.5-11t52-30.5 32.5-47 11-59.5v-363h-74v346q0 28-11 50.5t-35 35.5-64 13q-34 0-58.5-12.5t-37-33.5-12.5-48v-351z"/><path transform="translate(122.13 15.2) scale(.016 -.016)" d="m254-10q-61 0-101.5 22t-63 61-28.5 89q-3 24-4.5 45t-1.5 42q0 40 6 89 5 49 28 88t63 61 96 22q48 0 80-15t52.5-39.5 30.5-54 13.5-58 3.5-52.5l-20-52h-318v57h270q0 27-4.5 54t-16.5 49.5-34 35.5-57 13q-55 0-84.5-33.5t-34.5-78.5q-2-16-3.5-41.5t-1-57 4.5-64.5q3-31 16.5-58.5t40-44.5 68.5-17q26 0 49.5 5.5t45.5 16.5 43 25l21-55q-27-20-53-32t-52-17-54-5z"/></svg>