<svg width="139.23" height="16.8" viewBox="0 0 139.23 16.8" xmlns="http://www.w3.org/2000/svg"><path transform="translate(0 13.09) scale(.014 -.014)" d="M76 0V689H385L375 616H167V377H347V305H167V0Z"/><path transform="translate(5.628 13.09) scale(.014 -.014)" d="m161 527v-527h-88v527zm14 189q0-25-16.5-42t-42.5-17-42.5 17-16.5 42q0 26 16.5 43.5t42.5 17.5q27 0 43-17t16-44z"/><path transform="translate(8.904 13.09) scale(.014 -.014)" d="m315 532-15-85q-20 5-36 5-39 0-64-35t-39-107v-310h-88v527h76l7-98q37 109 119 109 22 0 40-6z"/><path transform="translate(13.426 13.09) scale(.014 -.014)" d="m411 49-19-61q-37 6-58.5 23.5t-30.5 52.5q-43-76-126-76-65 0-103.5 43.5t-38.5 115.5q0 84 52 128.5t151 44.5h52v48q0 52-20.5 76t-63.5 24q-51 0-119-27l-22 62q81 35 152 35 81 0 120.5-43.5t39.5-122.5v-260q0-28 8-41.5t26-21.5zm-121 89v123h-42q-63 0-92.5-27t-29.5-83q0-48 18-72.5t51-24.5q62 0 95 84z"/><path transform="translate(22.708 13.09) scale(.014 -.014)" d="m402 621-48-52q-31 30-61 43.5t-66 13.5q-43 0-69.5-27.5t-26.5-72.5q0-44 25.5-72t96.5-55q82-31 124-77t42-131q0-55-25.5-101.5t-72.5-74-109-27.5-110 23-87 66l49 52q35-32 69.5-49t76.5-17q52 0 83 34t31 92q0 50-25 80t-93 55q-87 33-127.5 80t-40.5 118q0 49 24 90t67 64.5 97 23.5q55 0 97.5-19.5t78.5-59.5z"/><path transform="translate(29.008 13.09) scale(.014 -.014)" d="m411 49-19-61q-37 6-58.5 23.5t-30.5 52.5q-43-76-126-76-65 0-103.5 43.5t-38.5 115.5q0 84 52 128.5t151 44.5h52v48q0 52-20.5 76t-63.5 24q-51 0-119-27l-22 62q81 35 152 35 81 0 120.5-43.5t39.5-122.5v-260q0-28 8-41.5t26-21.5zm-121 89v123h-42q-63 0-92.5-27t-29.5-83q0-48 18-72.5t51-24.5q62 0 95 84z"/><path transform="translate(35.322 13.09) scale(.014 -.014)" d="m413 387v-387h-88v375q0 51-14.5 72.5t-43.5 21.5q-57 0-106-98v-371h-88v527h76l7-79q26 44 57 67t75 23q57 0 91-41t34-110z"/><path transform="translate(42.07 13.09) scale(.014 -.014)" d="m350 479-38-51q-28 21-54 31.5t-55 10.5q-35 0-55.5-19.5t-20.5-53.5q0-33 20-52t76-39q72-26 106-62t34-98q0-75-50.5-116.5t-125.5-41.5q-100 0-167 69l46 49q56-49 119-49 40 0 64 22t24 62q0 27-9 44t-31 31-64 29q-70 26-100 61.5t-30 87.5q0 40 20.5 73t57.5 52 84 19q87 0 149-59z"/><path transform="translate(50.54 13.09) scale(.014 -.014)" d="M392 689 382 616H167V387H354V314H167V73H396V0H76V689Z"/><path transform="translate(56.63 13.09) scale(.014 -.014)" d="M256 282 405 0H310L203 227L96 0H5L154 278L21 527H114L205 330L296 527H386Z"/><path transform="translate(62.37 13.09) scale(.014 -.014)" d="m306 24q-45-36-101-36-59 0-91.5 35t-32.5 94v341h-71v69h71v119l88 11v-130h102l-9-69h-93v-342q0-55 47-55 16 0 28 4t28 14z"/><path transform="translate(66.654 13.09) scale(.014 -.014)" d="m315 532-15-85q-20 5-36 5-39 0-64-35t-39-107v-310h-88v527h76l7-98q37 109 119 109 22 0 40-6z"/><path transform="translate(71.176 13.09) scale(.014 -.014)" d="m411 49-19-61q-37 6-58.5 23.5t-30.5 52.5q-43-76-126-76-65 0-103.5 43.5t-38.5 115.5q0 84 52 128.5t151 44.5h52v48q0 52-20.5 76t-63.5 24q-51 0-119-27l-22 62q81 35 152 35 81 0 120.5-43.5t39.5-122.5v-260q0-28 8-41.5t26-21.5zm-121 89v123h-42q-63 0-92.5-27t-29.5-83q0-48 18-72.5t51-24.5q62 0 95 84z"/><path transform="translate(80.458 13.09) scale(.014 -.014)" d="m446 633-47-55q-28 25-54 36.5t-57 11.5q-147 0-147-281 0-280 150-280 34 0 59.5 13.5t52.5 38.5l49-53q-30-33-71-54.5t-92-21.5q-111 0-177.5 90t-66.5 267q0 119 31.5 198.5t86 118 123.5 38.5q49 0 86-16.5t74-50.5z"/><path transform="translate(86.982 13.09) scale(.014 -.014)" d="m440 264q0-127-52.5-201.5t-145.5-74.5-145 73-52 202q0 133 52 204t146 71 145.5-69.5 51.5-204.5zm-302-1q0-108 26-156t78-48q53 0 79 48t26 157q0 108-26 155.5t-78 47.5q-53 0-79-47.5t-26-156.5z"/><path transform="translate(93.772 13.09) scale(.014 -.014)" d="m413 387v-387h-88v375q0 51-14.5 72.5t-43.5 21.5q-57 0-106-98v-371h-88v527h76l7-79q26 44 57 67t75 23q57 0 91-41t34-110z"/><path transform="translate(100.52 13.09) scale(.014 -.014)" d="m418 739v-739h-78l-6 67q-47-79-120-79-82 0-125.5 72.5t-43.5 200.5q0 83 22 146t61 97 89 34q69 0 113-61v272zm-88-606v267q-41 68-95 68-46 0-71.5-50t-25.5-155q0-205 93-205 57 0 99 75z"/><path transform="translate(107.39 13.09) scale(.014 -.014)" d="m412 233h-276q4-95 31.5-134t78.5-39q33 0 59 10.5t54 33.5l39-53q-66-63-155-63-94 0-146 69.5t-52 200.5 49.5 205.5 139.5 74.5q87 0 133.5-65.5t46.5-193.5q0-22-2-46zm-83 72q0 86-23 125t-72 39q-44 0-69-39.5t-29-131.5h193z"/><path transform="translate(113.75 13.09) scale(.014 -.014)" d="m413 387v-387h-88v375q0 51-14.5 72.5t-43.5 21.5q-57 0-106-98v-371h-88v527h76l7-79q26 44 57 67t75 23q57 0 91-41t34-110z"/><path transform="translate(120.5 13.09) scale(.014 -.014)" d="m350 479-38-51q-28 21-54 31.5t-55 10.5q-35 0-55.5-19.5t-20.5-53.5q0-33 20-52t76-39q72-26 106-62t34-98q0-75-50.5-116.5t-125.5-41.5q-100 0-167 69l46 49q56-49 119-49 40 0 64 22t24 62q0 27-9 44t-31 31-64 29q-70 26-100 61.5t-30 87.5q0 40 20.5 73t57.5 52 84 19q87 0 149-59z"/><path transform="translate(126 13.09) scale(.014 -.014)" d="m412 233h-276q4-95 31.5-134t78.5-39q33 0 59 10.5t54 33.5l39-53q-66-63-155-63-94 0-146 69.5t-52 200.5 49.5 205.5 139.5 74.5q87 0 133.5-65.5t46.5-193.5q0-22-2-46zm-83 72q0 86-23 125t-72 39q-44 0-69-39.5t-29-131.5h193z"/><path transform="translate(132.36 13.09) scale(.014 -.014)" d="m418 739v-739h-78l-6 67q-47-79-120-79-82 0-125.5 72.5t-43.5 200.5q0 83 22 146t61 97 89 34q69 0 113-61v272zm-88-606v267q-41 68-95 68-46 0-71.5-50t-25.5-155q0-205 93-205 57 0 99 75z"/></svg>