<svg width="136.22" height="19.2" viewBox="0 0 136.22 19.2" xmlns="http://www.w3.org/2000/svg"><path transform="translate(0 14.96) scale(.016 -.016)" d="M85 0V688H419L409 616H178V376H378V304H178V0Z"/><path transform="translate(7.008 14.96) scale(.016 -.016)" d="m171 526v-526h-90v526zm14 189q0-25-16-41.5t-43-16.5q-26 0-42.5 16.5t-16.5 41.5 16.5 42 42.5 17 42.5-17 16.5-42z"/><path transform="translate(11.04 14.96) scale(.016 -.016)" d="m342 532-15-87q-19 6-41 6-44 0-71.5-35t-43.5-107v-309h-90v526h78l7-104q39 116 131 116 26 0 45-6z"/><path transform="translate(16.624 14.96) scale(.016 -.016)" d="m446 49-19-61q-39 6-61 24t-31 55q-51-80-143-80-70 0-111 43.5t-41 116.5q0 84 55 128t157 44h68v45q0 55-22.5 79.5t-73.5 24.5q-55 0-128-28l-22 63q88 36 164 36 171 0 171-171v-248q0-32 9-47.5t28-23.5zm-126 88v124h-58q-130 0-130-109 0-47 21-72t60-25q70 0 107 82z"/><path transform="translate(28.224 14.96) scale(.016 -.016)" d="m440 621-47-53q-34 30-67.5 44.5t-72.5 14.5q-50 0-80.5-27.5t-30.5-72.5q0-30 12-51.5t41-39 82-35.5q61-22 100-47t60-64 21-98-27-105.5-77.5-73-118.5-26.5q-125 0-213 90l49 53q37-33 75.5-50.5t85.5-17.5q59 0 94.5 33.5t35.5 92.5q0 51-28.5 81t-104.5 56q-97 34-139.5 79t-42.5 117q0 51 25.5 92.5t71.5 64.5 104 23q61 0 106.5-20t85.5-60z"/><path transform="translate(36.16 14.96) scale(.016 -.016)" d="m446 49-19-61q-39 6-61 24t-31 55q-51-80-143-80-70 0-111 43.5t-41 116.5q0 84 55 128t157 44h68v45q0 55-22.5 79.5t-73.5 24.5q-55 0-128-28l-22 63q88 36 164 36 171 0 171-171v-248q0-32 9-47.5t28-23.5zm-126 88v124h-58q-130 0-130-109 0-47 21-72t60-25q70 0 107 82z"/><path transform="translate(44 14.96) scale(.016 -.016)" d="m450 383v-383h-90v372q0 51-17 73.5t-52 22.5q-66 0-120-94v-374h-90v526h78l7-78q61 91 150 91 63 0 98.5-41.5t35.5-114.5z"/><path transform="translate(52.432 14.96) scale(.016 -.016)" d="m379 479-38-53q-32 22-60 33t-59 11q-41 0-64.5-19.5t-23.5-53.5q0-33 22.5-52t85.5-39q79-25 115-61t36-99q0-74-54-116.5t-135-42.5q-107 0-181 71l46 50q63-51 133-51 44 0 71 22t27 61q0 28-9.5 45t-34 30.5-71.5 28.5q-75 25-108 60t-33 89q0 42 22 75t61 52 90 19q91 0 162-60z"/><path transform="translate(63.024 14.96) scale(.016 -.016)" d="m486 633-48-56q-29 25-57.5 37t-62.5 12q-78 0-124-66.5t-46-214.5q0-144 46-212.5t124-68.5q39 0 67 14t61 41l47-55q-75-77-180-77-77 0-136.5 40t-93 120.5-33.5 197.5q0 116 34.5 196t94 120 134.5 40q54 0 94-16.5t79-51.5z"/><path transform="translate(71.152 14.96) scale(.016 -.016)" d="m477 264q0-128-57-202.5t-157-74.5q-101 0-157.5 73t-56.5 203q0 131 57 203.5t158 72.5 157-71 56-204zm-334-1q0-205 120-205t120 206q0 105-30 154t-89 49-90-49.5-31-154.5z"/><path transform="translate(79.568 14.96) scale(.016 -.016)" d="m450 383v-383h-90v372q0 51-17 73.5t-52 22.5q-66 0-120-94v-374h-90v526h78l7-78q61 91 150 91 63 0 98.5-41.5t35.5-114.5z"/><path transform="translate(88 14.96) scale(.016 -.016)" d="m455 739v-739h-80l-6 69q-51-82-137-82t-133.5 73-47.5 201q0 83 23.5 146t66.5 97.5 99 34.5q75 0 125-63v273zm-90-602v264q-45 67-105 67-53 0-84-51t-30-154q0-105 28-155t79-50q36 0 62.5 20t49.5 59z"/><path transform="translate(96.576 14.96) scale(.016 -.016)" d="m448 232h-306q4-92 37-132.5t90-40.5q36 0 64.5 11t59.5 36l40-53q-74-66-168-66-103 0-159.5 71.5t-56.5 200.5 54 204.5 150 75.5q95 0 146-67.5t51-192.5q0-21-2-47zm-85 74q0 165-109 165-50 0-79-41.5t-33-134.5h221z"/><path transform="translate(104.48 14.96) scale(.016 -.016)" d="m450 383v-383h-90v372q0 51-17 73.5t-52 22.5q-66 0-120-94v-374h-90v526h78l7-78q61 91 150 91 63 0 98.5-41.5t35.5-114.5z"/><path transform="translate(112.91 14.96) scale(.016 -.016)" d="m379 479-38-53q-32 22-60 33t-59 11q-41 0-64.5-19.5t-23.5-53.5q0-33 22.5-52t85.5-39q79-25 115-61t36-99q0-74-54-116.5t-135-42.5q-107 0-181 71l46 50q63-51 133-51 44 0 71 22t27 61q0 28-9.5 45t-34 30.5-71.5 28.5q-75 25-108 60t-33 89q0 42 22 75t61 52 90 19q91 0 162-60z"/><path transform="translate(119.74 14.96) scale(.016 -.016)" d="m448 232h-306q4-92 37-132.5t90-40.5q36 0 64.5 11t59.5 36l40-53q-74-66-168-66-103 0-159.5 71.5t-56.5 200.5 54 204.5 150 75.5q95 0 146-67.5t51-192.5q0-21-2-47zm-85 74q0 165-109 165-50 0-79-41.5t-33-134.5h221z"/><path transform="translate(127.65 14.96) scale(.016 -.016)" d="m455 739v-739h-80l-6 69q-51-82-137-82t-133.5 73-47.5 201q0 83 23.5 146t66.5 97.5 99 34.5q75 0 125-63v273zm-90-602v264q-45 67-105 67-53 0-84-51t-30-154q0-105 28-155t79-50q36 0 62.5 20t49.5 59z"/></svg>