<svg width="59.516" height="20.109" viewBox="0 0 59.516 20.109" xmlns="http://www.w3.org/2000/svg"><path transform="translate(0 16.141) scale(.0078125 -.0078125)" d="M141 1708H794V1496H400V993H709V789H400V0H141Z"/><path transform="translate(6.375 16.141) scale(.0078125 -.0078125)" d="m254 1568q-70 0-112.5 44t-42.5 124q0 89 42.5 126t113.5 37q74 0 115.5-40t41.5-123q0-78-42-123t-116-45zm-125-191h253v-1461q0-150-38.5-227.5t-100.5-105-133-27.5q-30 0-61 5.5t-61 18.5v147q8-1 16-1.5t16-0.5q44 0 76.5 34.5t32.5 124.5z"/><path transform="translate(10.367 16.141) scale(.0078125 -.0078125)" d="m372 765q38 19 82 39t81 33v167q0 52-4.5 97t-27 73.5-76.5 28.5-97-44-43-163v-55h-193q-18 78-18 136 0 154 101 234.5t258 80.5q137 0 214-38.5t108-116 31-196.5v-1041h-195l-18 118q-40-58-106-96t-153-38q-90 0-148 46t-86.5 121.5-28.5 164.5q0 170 81 270.5t238 178.5zm56-588q32 0 59 16.5t48 40.5v434q-19-8-41-19t-51-29q-53-33-99-98.5t-46-166.5q0-79 31-128.5t99-49.5z"/><path transform="translate(17.508 16.141) scale(.0078125 -.0078125)" d="M129 1819H382V0H129Z"/><path transform="translate(21.5 16.141) scale(.0078125 -.0078125)" d="M129 1819H382V0H129Z"/><path transform="translate(25.492 16.141) scale(.0078125 -.0078125)" d="m372 765q38 19 82 39t81 33v167q0 52-4.5 97t-27 73.5-76.5 28.5-97-44-43-163v-55h-193q-18 78-18 136 0 154 101 234.5t258 80.5q137 0 214-38.5t108-116 31-196.5v-1041h-195l-18 118q-40-58-106-96t-153-38q-90 0-148 46t-86.5 121.5-28.5 164.5q0 170 81 270.5t238 178.5zm56-588q32 0 59 16.5t48 40.5v434q-19-8-41-19t-51-29q-53-33-99-98.5t-46-166.5q0-79 31-128.5t99-49.5z"/><path transform="translate(36.086 16.141) scale(.0078125 -.0078125)" d="m539-15q-62 0-135.5 18t-139.5 75-108 171.5-42 306.5v605q0 154 28.5 256.5t75 164 103 92 113.5 40 105 9.5q46 0 102.5-9t112.5-38.5 102.5-90.5 75-164 28.5-260v-605q0-190-44-304t-111-171.5-138.5-76.5-127.5-19zm0 203q77 0 114 58t37 217v770q0 164-37 225.5t-114 61.5q-79 0-116.5-61.5t-37.5-225.5v-770q0-159 37.5-217t116.5-58z"/><path transform="translate(44.477 16.141) scale(.0078125 -.0078125)" d="m129 1377h193l25-147v-1q59 95 134 129.5t151 34.5q120 0 186-85t66-253v-1055h-253v1025q0 91-28 126.5t-82 35.5q-38 0-74-25t-65-69v-1093h-253z"/><path transform="translate(52.375 16.141) scale(.0078125 -.0078125)" d="m95 564v260q0 158 27 262t71.5 166 98 92 106.5 39.5 97 9.5q91 0 168-38.5t123.5-132 46.5-259.5q0-83-9-169.5t-24-152.5h-451v-140q0-180 30.5-254t116.5-74q47 0 85 40.5t38 149.5v60h208v-63q0-196-93.5-285.5t-270.5-89.5q-178 0-273 136t-95 443zm502 247q2 22 3 66.5t1 71.5q0 137-29 196t-92 60q-67 0-99-67.5t-32-245.5v-81z"/></svg>