<svg width="52.976" height="14.434" viewBox="0 0 52.976 14.434" xmlns="http://www.w3.org/2000/svg"><path transform="translate(0 11.2) scale(.014 -.014)" d="m102 561h-59q-10 0-16.5 6.5t-6.5 16.5 6.5 17 16.5 7h442q26 0 26-24v-82q0-10-8-16.5t-19-6.5-19 6.5-8 16.5v59h-301v-232h253v37q0 10 7.5 16.5t18.5 6.5 18.5-6.5 7.5-16.5v-122q0-10-7.5-16.5t-18.5-6.5-18.5 6.5-7.5 16.5v38h-253v-269q0-10-8-16.5t-19-6.5-19 6.5-8 16.5z"/><path transform="translate(7.532 11.2) scale(.014 -.014)" d="m153 47h39q10 0 16.5-7t6.5-17-6.5-16.5-16.5-6.5h-39q-81 0-81 65v638h-66q-10 0-16.5 6.5t-6.5 16.5 6.5 17 16.5 7h93q11 0 19-7t8-17v-660q0-19 27-19z"/><path transform="translate(10.696 11.2) scale(.014 -.014)" d="m314 155q-66 18-112.5 18t-76-18-29.5-50.5 19-50.5 52-18q92 0 147 100zm80-108h39q10 0 16.5-7t6.5-17-6.5-16.5-16.5-6.5h-44q-36 0-55.5 16t-19.5 45q0 5 1 11-53-82-154-82-56 0-87.5 30t-31.5 83.5 42.5 84 106 30.5 123.5-21v69q0 48-35 62-27 10-74.5 10t-87.5-16v-63q0-10-8-16.5t-19-6.5-19 6.5-8 16.5v76q0 13 13 20 49 29 130 29t121-26.5 40-91.5v-200q0-19 27-19z"/><path transform="translate(16.996 11.2) scale(.014 -.014)" d="m636 276v-210q0-19 27-19h39q10 0 16.5-7t6.5-17-6.5-16.5-16.5-6.5h-39q-81 0-81 65v211q0 62-58 62-78 0-129-87v-238q0-10-8-16.5t-19-6.5-19 6.5-8 16.5v263q0 62-58 62-45 0-75.5-23t-58.5-72v-230q0-10-8-16.5t-19-6.5-19 6.5-8 16.5v295q0 19-19 19h-47q-10 0-16.5 6.5t-6.5 16.5 6.5 17 16.5 7h54q62 0 62-68 31 40 62.5 59t76.5 19q86 0 106-72 30 36 61 54t78 18 77-27.5 30-80.5z"/><path transform="translate(27.16 11.2) scale(.014 -.014)" d="m98 220h248q-3 54-31.5 86t-82 32-89.5-32.5-45-85.5zm250-124q7 12 16 12t18-4.5 12.5-14-1.5-17.5q-51-82-162-82-88 0-138.5 56.5t-50.5 142.5 52 140.5 137 54.5 126.5-51 41.5-136q0-23-26-23l-277-1q4-62 40.5-99.5t94.5-37.5q78 0 117 60z"/><path transform="translate(33.32 11.2) scale(.014 -.014)" d="m76 327h-47q-10 0-16.5 6.5t-6.5 16.5 6.5 17 16.5 7h54q62 0 62-68 60 78 151 78 54 0 88.5-27.5t34.5-80.5v-210q0-19 27-19h39q10 0 16.5-7t6.5-17-6.5-16.5-16.5-6.5h-39q-81 0-81 65v211q0 30-18.5 46t-51.5 16q-92 0-146-96v-229q0-10-8-16.5t-19-6.5-19 6.5-8 16.5v295q0 19-19 19z"/><path transform="translate(40.446 11.2) scale(.014 -.014)" d="m346 96q8 12 16.5 12t17.5-4q14-6 14-16.5t-3-15.5q-51-82-162-82-85 0-136 57.5t-51 141.5 53.5 139.5 133 55.5 138.5-37q12-8 12-19v-84q0-10-8-16.5t-19-6.5-19 6.5-8 16.5v71q-40 23-96 23t-95-42-39-108.5 37.5-109 96.5-42.5q78 0 117 60z"/><path transform="translate(46.466 11.2) scale(.014 -.014)" d="m233 36q61 0 99.5 42t38.5 108.5-38.5 109-99.5 42.5-99.5-42.5-38.5-109 38.5-108.5 99.5-42zm-138.5 9.5q-53.5 55.5-53.5 141.5t54 141.5 138 55.5 137.5-55.5 53.5-142-53.5-141.5-138-55-138 55.5z"/></svg>