<svg width="88.48" height="16.8" viewBox="0 0 88.48 16.8" xmlns="http://www.w3.org/2000/svg"><path transform="translate(0 14) scale(.014 -.014)" d="m-90 395q0 32 21 53t53 21h318q32 0 53-21t21-53v-151q0-32-21-53t-53-21h-318q-32 0-53 21t-21 53z"/><path transform="translate(4.004 14) scale(.014 -.014)" d="m-90 395q0 32 21 53t53 21h318q32 0 53-21t21-53v-151q0-32-21-53t-53-21h-318q-32 0-53 21t-21 53z"/><path transform="translate(8.008 14) scale(.014 -.014)" d="m-90 396q0 32 21 53t53 21h604q32 0 53-21t21-53v-152q0-32-21-53t-53-21h-604q-32 0-53 21t-21 53z"/><path transform="translate(16.016 14) scale(.014 -.014)" d="m-90 396q0 32 21 53t53 21h604q32 0 53-21t21-53v-152q0-32-21-53t-53-21h-604q-32 0-53 21t-21 53z"/><path transform="translate(32.424 14) scale(.014 -.014)" d="m-90 396q0 32 21 53t53 21h604q32 0 53-21t21-53v-152q0-32-21-53t-53-21h-604q-32 0-53 21t-21 53z"/><path transform="translate(40.432 14) scale(.014 -.014)" d="m-90 396q0 32 21 53t53 21h604q32 0 53-21t21-53v-152q0-32-21-53t-53-21h-604q-32 0-53 21t-21 53z"/><path transform="translate(48.44 14) scale(.014 -.014)" d="m-90 396q0 32 21 53t53 21h604q32 0 53-21t21-53v-152q0-32-21-53t-53-21h-604q-32 0-53 21t-21 53z"/><path transform="translate(56.448 14) scale(.014 -.014)" d="m-90 396q0 32 21 53t53 21h604q32 0 53-21t21-53v-152q0-32-21-53t-53-21h-604q-32 0-53 21t-21 53z"/><path transform="translate(64.456 14) scale(.014 -.014)" d="m-90 396q0 32 21 53t53 21h604q32 0 53-21t21-53v-152q0-32-21-53t-53-21h-604q-32 0-53 21t-21 53z"/><path transform="translate(72.464 14) scale(.014 -.014)" d="m-90 396q0 32 21 53t53 21h604q32 0 53-21t21-53v-152q0-32-21-53t-53-21h-604q-32 0-53 21t-21 53z"/><path transform="translate(80.472 14) scale(.014 -.014)" d="m-90 396q0 32 21 53t53 21h604q32 0 53-21t21-53v-152q0-32-21-53t-53-21h-604q-32 0-53 21t-21 53z"/></svg>