<svg width="101.12" height="19.2" viewBox="0 0 101.12 19.2" xmlns="http://www.w3.org/2000/svg"><path transform="translate(0 16) scale(.016 -.016)" d="m-90 395q0 32 21 53t53 21h318q32 0 53-21t21-53v-151q0-32-21-53t-53-21h-318q-32 0-53 21t-21 53z"/><path transform="translate(4.576 16) scale(.016 -.016)" d="m-90 395q0 32 21 53t53 21h318q32 0 53-21t21-53v-151q0-32-21-53t-53-21h-318q-32 0-53 21t-21 53z"/><path transform="translate(9.152 16) scale(.016 -.016)" d="m-90 396q0 32 21 53t53 21h604q32 0 53-21t21-53v-152q0-32-21-53t-53-21h-604q-32 0-53 21t-21 53z"/><path transform="translate(18.304 16) scale(.016 -.016)" d="m-90 396q0 32 21 53t53 21h604q32 0 53-21t21-53v-152q0-32-21-53t-53-21h-604q-32 0-53 21t-21 53z"/><path transform="translate(37.056 16) scale(.016 -.016)" d="m-90 396q0 32 21 53t53 21h604q32 0 53-21t21-53v-152q0-32-21-53t-53-21h-604q-32 0-53 21t-21 53z"/><path transform="translate(46.208 16) scale(.016 -.016)" d="m-90 396q0 32 21 53t53 21h604q32 0 53-21t21-53v-152q0-32-21-53t-53-21h-604q-32 0-53 21t-21 53z"/><path transform="translate(55.36 16) scale(.016 -.016)" d="m-90 396q0 32 21 53t53 21h604q32 0 53-21t21-53v-152q0-32-21-53t-53-21h-604q-32 0-53 21t-21 53z"/><path transform="translate(64.512 16) scale(.016 -.016)" d="m-90 396q0 32 21 53t53 21h604q32 0 53-21t21-53v-152q0-32-21-53t-53-21h-604q-32 0-53 21t-21 53z"/><path transform="translate(73.664 16) scale(.016 -.016)" d="m-90 396q0 32 21 53t53 21h604q32 0 53-21t21-53v-152q0-32-21-53t-53-21h-604q-32 0-53 21t-21 53z"/><path transform="translate(82.816 16) scale(.016 -.016)" d="m-90 396q0 32 21 53t53 21h604q32 0 53-21t21-53v-152q0-32-21-53t-53-21h-604q-32 0-53 21t-21 53z"/><path transform="translate(91.968 16) scale(.016 -.016)" d="m-90 396q0 32 21 53t53 21h604q32 0 53-21t21-53v-152q0-32-21-53t-53-21h-604q-32 0-53 21t-21 53z"/></svg>