<svg width="91.008" height="19.2" viewBox="0 0 91.008 19.2" xmlns="http://www.w3.org/2000/svg"><path transform="translate(0 16) scale(.016 -.016)" d="m-150 321q0 43 19.5 76.5t53 53 76.5 19.5h288q43 0 76.5-19.5t53-53 19.5-76.5v-2q0-43-19.5-76.5t-53-53-76.5-19.5h-288q-43 0-76.5 19.5t-53 53-19.5 76.5z"/><path transform="translate(4.576 16) scale(.016 -.016)" d="m-150 321q0 43 19.5 76.5t53 53 76.5 19.5h288q43 0 76.5-19.5t53-53 19.5-76.5v-2q0-43-19.5-76.5t-53-53-76.5-19.5h-288q-43 0-76.5 19.5t-53 53-19.5 76.5z"/><path transform="translate(9.152 16) scale(.016 -.016)" d="m-150 321q0 43 19.5 76.5t53 53 76.5 19.5h564q43 0 76.5-19.5t53-53 19.5-76.5v-2q0-43-19.5-76.5t-53-53-76.5-19.5h-564q-43 0-76.5 19.5t-53 53-19.5 76.5z"/><path transform="translate(18.144 16) scale(.016 -.016)" d="m-150 321q0 43 19.5 76.5t53 53 76.5 19.5h564q43 0 76.5-19.5t53-53 19.5-76.5v-2q0-43-19.5-76.5t-53-53-76.5-19.5h-564q-43 0-76.5 19.5t-53 53-19.5 76.5z"/><path transform="translate(36.736 16) scale(.016 -.016)" d="m-150 321q0 43 19.5 76.5t53 53 76.5 19.5h564q43 0 76.5-19.5t53-53 19.5-76.5v-2q0-43-19.5-76.5t-53-53-76.5-19.5h-564q-43 0-76.5 19.5t-53 53-19.5 76.5z"/><path transform="translate(45.728 16) scale(.016 -.016)" d="m-150 321q0 43 19.5 76.5t53 53 76.5 19.5h288q43 0 76.5-19.5t53-53 19.5-76.5v-2q0-43-19.5-76.5t-53-53-76.5-19.5h-288q-43 0-76.5 19.5t-53 53-19.5 76.5z"/><path transform="translate(50.304 16) scale(.016 -.016)" d="m-150 321q0 43 19.5 76.5t53 53 76.5 19.5h288q43 0 76.5-19.5t53-53 19.5-76.5v-2q0-43-19.5-76.5t-53-53-76.5-19.5h-288q-43 0-76.5 19.5t-53 53-19.5 76.5z"/><path transform="translate(54.88 16) scale(.016 -.016)" d="m-150 321q0 43 19.5 76.5t53 53 76.5 19.5h564q43 0 76.5-19.5t53-53 19.5-76.5v-2q0-43-19.5-76.5t-53-53-76.5-19.5h-564q-43 0-76.5 19.5t-53 53-19.5 76.5z"/><path transform="translate(63.872 16) scale(.016 -.016)" d="m-150 321q0 43 19.5 76.5t53 53 76.5 19.5h564q43 0 76.5-19.5t53-53 19.5-76.5v-2q0-43-19.5-76.5t-53-53-76.5-19.5h-564q-43 0-76.5 19.5t-53 53-19.5 76.5z"/><path transform="translate(72.864 16) scale(.016 -.016)" d="m-150 321q0 43 19.5 76.5t53 53 76.5 19.5h288q43 0 76.5-19.5t53-53 19.5-76.5v-2q0-43-19.5-76.5t-53-53-76.5-19.5h-288q-43 0-76.5 19.5t-53 53-19.5 76.5z"/><path transform="translate(77.44 16) scale(.016 -.016)" d="m-150 321q0 43 19.5 76.5t53 53 76.5 19.5h564q43 0 76.5-19.5t53-53 19.5-76.5v-2q0-43-19.5-76.5t-53-53-76.5-19.5h-564q-43 0-76.5 19.5t-53 53-19.5 76.5z"/><path transform="translate(86.432 16) scale(.016 -.016)" d="m-150 321q0 43 19.5 76.5t53 53 76.5 19.5h288q43 0 76.5-19.5t53-53 19.5-76.5v-2q0-43-19.5-76.5t-53-53-76.5-19.5h-288q-43 0-76.5 19.5t-53 53-19.5 76.5z"/></svg>