<svg width="85.216" height="22.688" viewBox="0 0 85.216 22.688" xmlns="http://www.w3.org/2000/svg"><path transform="translate(0 17.424) scale(.016 -.016)" d="M70 -6V750H451L439 632H217V436H374V312H217V6Z"/><path transform="translate(7.36 17.424) scale(.016 -.016)" d="m61 551 140 12v-91q30 43 74.5 69.5t113.5 26.5v-137q-36 0-94.5-12.5t-93.5-43.5v-369l-140-12z"/><path transform="translate(13.824 17.424) scale(.016 -.016)" d="m27 157q0 109 74.5 153.5t173.5 50.5q0 54-7 80t-34 26q-23 0-35-18t-15-46l-137 24q10 77 63 110t124 33q91 0 136.5-48t45.5-125v-291q0-47 15-100l-137-12-16 69q-18-32-53-54t-72-22q-36 0-65 22.5t-45 61-16 86.5zm248-36v156q-50 0-80-27t-30-84q0-38 13.5-58.5t39.5-20.5q17 0 28.5 8t28.5 26z"/><path transform="translate(21.36 17.424) scale(.016 -.016)" d="m61 551 140 12v-72q43 38 84.5 58.5t76.5 20.5q53 0 86.5-38.5t33.5-103.5v-422l-140-12v381q0 75-51 75-17 0-37.5-10t-52.5-29v-405l-140-12z"/><path transform="translate(29.984 17.424) scale(.016 -.016)" d="m34 276q0 76 22.5 143t68.5 109 113 42q51 0 91.5-25.5t63.5-71.5 25-105l-133-6q0 4-3.5 32t-15 46-29.5 18q-40 0-51-54.5t-11-122.5q0-67 11.5-121.5t54.5-54.5q54 0 56 106l118-13q-13-104-52-157.5t-128-53.5q-64 0-109.5 40t-68.5 106-23 143z"/><path transform="translate(37.104 17.424) scale(.016 -.016)" d="m34 280q0 132 54 211t156 79q101 0 156.5-79t55.5-211-55.5-212.5-156.5-80.5-155.5 80-54.5 213zm281 1q0 80-13 135t-58 55-57-52-12-127q0-92 12-146.5t57-54.5 58 55 13 135z"/><path transform="translate(44.944 17.424) scale(.016 -.016)" d="M62 635V780L202 790V641ZM61 -6V551L201 563V6Z"/><path transform="translate(49.152 17.424) scale(.016 -.016)" d="m29 129 109 36q4-19 15-34 23-33 67-33 25 0 48 11t23 34q0 31-43 48l-118 48q-47 20-72 60t-25 98q0 54 26.5 93t70 59.5 93.5 20.5q63 0 116-36.5t71-99.5l-116-36q-4 17-14 34-22 34-56 34-25 0-43-11.5t-18-33.5q0-26 49-48l100-41q53-25 83-63t30-102q0-58-28-98.5t-73-61-95-20.5q-83 0-134 37.5t-66 104.5z"/><path transform="translate(60.272 17.424) scale(.016 -.016)" d="m42 379q0 185 55 285t177 100q233 0 233-381 0-171-52.5-284t-182.5-113q-127 0-178.5 109.5t-51.5 283.5zm319 5q0 113-16.5 187.5t-70.5 74.5-70-74-16-187q0-142 16.5-211.5t69.5-69.5 70 69.5 17 210.5z"/><path transform="translate(69.056 17.424) scale(.016 -.016)" d="m61 551 140 12v-72q43 38 84.5 58.5t76.5 20.5q53 0 86.5-38.5t33.5-103.5v-422l-140-12v381q0 75-51 75-17 0-37.5-10t-52.5-29v-405l-140-12z"/><path transform="translate(77.68 17.424) scale(.016 -.016)" d="m34 278q0 134 54 213t157 79q98 0 150-79t52-213q0-8-3-11.5t-3-4.5h-267q0-65 17-118.5t52-53.5q39 0 58 45t20 47l106-40q-21-72-67-113.5t-120-41.5q-100 0-153 79.5t-53 211.5zm275 65q0 60-16 95t-50 35q-17 0-33-17t-26-47-10-66z"/></svg>