<svg width="68.88" height="19.728" viewBox="0 0 68.88 19.728" xmlns="http://www.w3.org/2000/svg"><path transform="translate(0 15.648) scale(.008 -.008)" d="m867 1400q35 0 56 10.5t38 20 36 9.5q24 0 36.5-12t20.5-42l78-286q6-20-3.5-33t-28.5-16q-17-4-31.5 3t-24.5 28q-45 101-83 152t-81 68-105 17h-276v-1177q0-22 12-36t37-18l102-12q22-3 31.5-12.5t9.5-27.5q0-16-11.5-26t-36.5-10h-482q-25 0-37 10t-12 26q0 30 38 40l66 12q24 6 37 19t13 35v1116q0 22-13 35t-37 19l-66 12q-38 10-38 40 0 17 12 26.5t37 9.5zm-470-694h348q63 0 87.5 24.5t35.5 94.5q4 19 13 28t24 11q34 4 43-34l73-288q5-21-1-33t-22-17q-16-4-30 2t-26 23q-24 44-44.5 68t-47 33-67.5 9h-386z"/><path transform="translate(9.52 15.648) scale(.008 -.008)" d="m387 521q0 142 42 240t109 148.5 143 50.5q90 0 140-50t50-138q0-69-29.5-104.5t-75.5-35.5q-47 0-73 26.5t-26 73.5v34q0 34-16 50.5t-52 16.5q-43 0-84-34.5t-67-103-26-173.5zm24 379 11-235v-527q0-25 11.5-38.5t39.5-17.5l90-12q20-3 30.5-12t10.5-25q0-15-12-24t-34-9h-424q-23 0-33.5 9t-10.5 24q0 12 8 20.5t26 14.5l47 10q20 5 30 18.5t10 40.5v620q0 23-7.5 33t-24.5 12l-68 3q-17 2-24.5 9.5t-7.5 18.5q0 13 8.5 21.5t30.5 16.5l164 57q39 15 58 19.5t31 4.5q18 0 27.5-12t12.5-40z"/><path transform="translate(16.744 15.648) scale(.008 -.008)" d="m697 123v20l-13 6v571q0 87-43.5 133t-122.5 46q-76 0-114-31.5t-38-75.5v-78q0-49-32-74.5t-87-25.5q-49 0-74.5 25t-25.5 68q0 61 48 119t139.5 95.5 222.5 37.5q170 0 253-73t83-196v-541q0-33 12.5-47.5t34.5-14.5q24 0 35 11t19 22q5 7 10 11.5t13 4.5q11 0 16-7.5t5-20.5q0-29-20-59t-58-51-94-21q-79 0-124 37.5t-45 108.5zm-595 85q0 118 105.5 194t293.5 76q68 0 125-12.5t100-32.5l-16-54q-41 17-84.5 28.5t-95.5 11.5q-99 0-155-47.5t-56-129.5q0-80 46-123t117-43q66 0 128 30t106 86l21-46q-59-81-152-125t-197-44q-127 0-206.5 62.5t-79.5 168.5z"/><path transform="translate(25.408 15.648) scale(.008 -.008)" d="m812 116v65l-5 6v571q0 23-7.5 33t-25.5 12l-68 2q-17 3-24 10t-7 19q0 13 8.5 21.5t30.5 15.5l166 59q31 11 51 16t36 5q25 0 37.5-13.5t12.5-37.5v-763q0-27 10-40.5t30-18.5l45-10q18-5 26.5-13.5t8.5-21.5q0-15-11-24t-34-9h-177q-46 0-74.5 30.5t-28.5 85.5zm-629 156v486q0 23-7.5 33t-25.5 12l-68 2q-17 3-24 10t-7 19q0 13 8.5 21.5t30.5 15.5l166 59q33 12 52.5 16.5t32.5 4.5q27 0 39.5-13.5t12.5-37.5v-596q0-100 49-149.5t129-49.5q50 0 107 25.5t123 81.5l43 36 38-39-43-38q-119-107-208-150.5t-170-43.5q-125 0-201.5 79.5t-76.5 215.5z"/><path transform="translate(35.112 15.648) scale(.008 -.008)" d="m422 900v-763q0-27 10-40t29-19l45-10q31-11 31-34 0-34-46-34h-357q-23 0-33.5 9t-10.5 24q0 12 8 20.5t25 13.5l48 11q20 6 30 19t10 40v622q0 22-7.5 32t-24.5 12l-68 3q-17 3-24.5 10t-7.5 18q0 13 8.5 21.5t30.5 16.5l167 59q31 11 50.5 16t35.5 5q25 0 38-14t13-38zm-29-212-39 39 44 38q118 105 203 150t165 45q120 0 186-80t81-215l61-524q4-29 13.5-43.5t30.5-20.5l42-10q17-5 25.5-13.5t8.5-20.5q0-15-10.5-24t-34.5-9h-360q-46 0-46 34 0 23 30 34l47 10q22 6 33.5 20.5t7.5 42.5l-58 492q-12 99-52 149t-116 50q-47 0-101-26.5t-118-80.5z"/><path transform="translate(44.976 15.648) scale(.008 -.008)" d="m945 700q0-47-31.5-79t-82.5-32q-50 0-77.5 28.5t-27.5 76.5v30q0 71-49 114t-135 43q-77 0-136.5-43t-93.5-122.5-34-187.5q0-130 44.5-220.5t122-137 177.5-46.5q95 0 164.5 44t99.5 116q13 17 21.5 23t18.5 6q14 0 20-11.5t5-26.5q-7-82-59-150t-138.5-108-197.5-40q-140 0-247 58.5t-167 165.5-60 251q0 143 61 258t171 182.5 258 67.5q115 0 198.5-36t129-95.5 45.5-128.5z"/><path transform="translate(53.096 15.648) scale(.008 -.008)" d="m961 584q0-45-27-69.5t-79-24.5h-639v64h480q50 0 50 44 0 134-58 208.5t-155 74.5q-76 0-133.5-43t-90.5-122.5-33-187.5q0-199 95.5-302t249.5-103q99 0 172 45t103 119q13 16 21.5 22.5t18.5 6.5q13 0 19.5-12t5.5-28q-6-82-59.5-150t-142.5-108.5-203-40.5q-140 0-247.5 59t-167 165.5-59.5 250.5q0 146 58 260.5t165.5 181 255.5 66.5q123 0 212.5-48t138.5-132.5 49-195.5z"/><path transform="translate(61.424 15.648) scale(.008 -.008)" d="m497 50q75 0 118 39t43 101q0 39-18 69.5t-65.5 56-135.5 48.5q-138 31-216 77.5t-110 106-32 130.5q0 127 91 204t261 77q63 0 103.5-10.5t67.5-22 48-11.5q20 0 30.5 11.5t20.5 22.5 28 11q12 0 21.5-8t16.5-30l73-211q10-27 6.5-45t-22.5-26q-19-7-32.5 0.5t-25.5 26.5q-44 83-96 130.5t-109.5 67.5-119.5 20q-94 0-141.5-39.5t-47.5-106.5q0-39 20-71.5t73-60 151-52.5q122-29 194-71.5t103.5-101 31.5-136.5q0-79-39.5-140t-112-95.5-169.5-34.5q-61 0-99 13t-63.5 25.5-48.5 12.5q-20 0-32-12.5t-22.5-25.5-26.5-13q-12 0-20 8.5t-12 28.5l-43 200q-7 35-4 52t20 23q18 7 31.5-2.5t28.5-33.5q57-108 130.5-155t151.5-47z"/></svg>