<svg width="46.128" height="22.72" viewBox="0 0 46.128 22.72" xmlns="http://www.w3.org/2000/svg"><path transform="translate(0 16) scale(.016 -.016)" d="m80 0v700h75v-700zm39 313v73h362v-73zm0 314v73h392v-73z"/><path transform="translate(8.816 16) scale(.016 -.016)" d="m501 500v-500h-73v145l22-19q-13-42-42.5-73t-70.5-48-87-17q-54 0-95.5 23t-65.5 68-24 112v309h75v-292q0-56 17-88t46-45 64-13q42 0 78 20t58.5 58 22.5 90v270z"/><path transform="translate(17.952 16) scale(.016 -.016)" d="m230-12q-77 0-130 37.5t-70 105.5l69 17 11-2q11-40 46-62.5t82-22.5 80.5 21.5 33.5 56.5q0 29-19.5 46.5t-58.5 26.5l-92 21q-70 16-102.5 51.5t-32.5 84.5q0 42 23 74t63.5 50.5 92.5 18.5q76 0 128-38t69-107l-70-15-11 2q-10 41-43.5 63t-74.5 22q-43 0-71.5-19t-28.5-48q0-25 18.5-41.5t59.5-25.5l93-21q69-16 101.5-51t32.5-89q0-48-26-83t-70.5-54-102.5-19z"/><path transform="translate(25.36 16) scale(.016 -.016)" d="m253 0q-62 0-102 40t-40 108v488h75v-483q0-44 18.5-62t61.5-18h62l5-11v-62zm-228 427v73h308v-73z"/><path transform="translate(31.408 16) scale(.016 -.016)" d="m228-12q-51 0-91.5 20t-63.5 55-23 81q0 65 46.5 105.5t128.5 46.5l192 14v-70l-175-13q-58-4-86.5-25t-28.5-58q0-36 29.5-59.5t76.5-23.5 85.5 21.5 61 58 22.5 81.5v81q0 60-36.5 98.5t-98.5 38.5q-47 0-81-22.5t-48-65.5h-11l-66 24q24 67 78 102t129 35q101 0 155-60.5t54-171.5v-281h-73v145l26-19q-12-40-42-71.5t-71-49-89-17.5z"/><path transform="translate(40.08 16) scale(.016 -.016)" d="m253 0q-62 0-102 40t-40 108v488h75v-483q0-44 18.5-62t61.5-18h62l5-11v-62zm-228 427v73h308v-73z"/></svg>