<svg width="99.526" height="17.5" viewBox="0 0 99.526 17.5" xmlns="http://www.w3.org/2000/svg"><path transform="translate(0 12.6) scale(.014 -.014)" d="m133 22q-19 0-25 30-7 6-13 34t-9.5 69-3.5 85q0 15 0.5 29.5t1.5 28.5q-39 15-39 37 0 19 7.5 27.5t18.5 13.5 22 12q2 12 6.5 40.5t10 63 11.5 65 12 46.5q4 19 23 38t61 32.5 115 13.5h44q34 0 65.5-3t52.5-12.5 21-31.5q0-11-6.5-19t-14.5-8h-150q-3 0-19.5-1.5t-38-4.5-41-8-29.5-13q-13-10-22.5-43.5t-14-77-4.5-84.5q9 1 31.5 2t49.5 2 51.5 1.5 38.5 0.5h40q23 0 31.5-10t8.5-27q0-34-38-37l-178-11q-28-1-37.5-7.5t-12.5-15.5q0-36 6-86t13-117q-7-25-20-39.5t-26-14.5z"/><path transform="translate(7.7 12.6) scale(.014 -.014)" d="m193 10q-51 0-80 28.5t-41.5 74-12.5 96.5q0 35 1 56.5t4.5 44.5 10.5 63q4 20 8 40.5t11 39.5q8 23 17.5 32.5t16.5 9.5q19 0 28.5-10.5t9.5-26.5q0-22-6-41t-10-36q-7-45-12-71.5t-7.5-48-2.5-52.5q0-15 2.5-36t9.5-41 21-33.5 37-13.5q24 0 45.5 17.5t30.5 28.5q68 86 121 168t105 179q7 11 11.5 14t11.5 3q23 0 32-8t9-27q0-12-3-29-15-75-15-149 0-50 9-93t29-71q15-19 15-33 0-17-9.5-27t-23.5-10q-38 0-60 60-7 21-15.5 53.5t-15.5 65.5-9 55q-13-21-23.5-41.5t-26.5-43.5q-11-16-26-36.5t-32-42.5q-35-43-77-75.5t-88-32.5z"/><path transform="translate(16.842 12.6) scale(.014 -.014)" d="m125-5q-15 0-34 2t-33 10-17 26q0 18 1 31t17 32q27 34 64 74.5t76.5 81 77 76.5 65.5 61q14 14 14 25 0 18-36 18h-57q-28 0-46.5-0.5t-35-1.5-38.5-4q-4-1-8-1t-8 0q-9 0-15 4.5t-6 18.5q0 23 20 28.5t38 8.5q17 2 42.5 3t55.5 1q29 0 60-1.5t58-6.5q35-7 53.5-21t18.5-40q0-21-18-41t-43-40.5-47-42.5q-24-23-59-58t-69-70.5-54-62.5q-7-10-11-16.5t-4-11.5q0-7 15-7 62 0 117.5 6.5t100.5 10.5q5 1 10 1t9 0q22 0 37.5-7t15.5-27q0-21-17.5-30.5t-41-12.5-41.5-5q-9 0-37.5-2t-65-4-70.5-3.5-54-1.5z"/><path transform="translate(23.87 12.6) scale(.014 -.014)" d="m125-5q-15 0-34 2t-33 10-17 26q0 18 1 31t17 32q27 34 64 74.5t76.5 81 77 76.5 65.5 61q14 14 14 25 0 18-36 18h-57q-28 0-46.5-0.5t-35-1.5-38.5-4q-4-1-8-1t-8 0q-9 0-15 4.5t-6 18.5q0 23 20 28.5t38 8.5q17 2 42.5 3t55.5 1q29 0 60-1.5t58-6.5q35-7 53.5-21t18.5-40q0-21-18-41t-43-40.5-47-42.5q-24-23-59-58t-69-70.5-54-62.5q-7-10-11-16.5t-4-11.5q0-7 15-7 62 0 117.5 6.5t100.5 10.5q5 1 10 1t9 0q22 0 37.5-7t15.5-27q0-21-17.5-30.5t-41-12.5-41.5-5q-9 0-37.5-2t-65-4-70.5-3.5-54-1.5z"/><path transform="translate(30.898 12.6) scale(.014 -.014)" d="m195-262q-3 0-9 8t-6 24q0 14 3.5 28t9.5 28q7 15 14 30t14 30q6 15 14.5 38t16.5 46.5 13.5 40.5 5.5 19v26q-62 0-103 23t-65 61-35 84.5-14.5 95-3.5 90.5q0 20 1 39t5 38q5 23 12.5 30.5t14.5 7.5q23 0 32.5-17.5t9.5-50.5q0-23-3-43.5t-3-44.5v-10q0-9 3.5-34.5t7.5-51.5 6-39q5-22 15-46.5t28.5-41.5 47.5-17q39 0 69.5 28.5t56 74 46.5 95.5q8 17 15 34t14 33q8 16 15 30t15 27q16 26 29.5 37t26.5 11 19.5-7 6.5-24q0-31-10.5-61t-26.5-60q-17-31-36-61t-33-60q-8-18-21.5-48.5t-28-63-25-57.5-12.5-31q-1-5-8-22.5t-15.5-41.5-17.5-48.5-15.5-42-8.5-22.5q-6-18-17-44t-27.5-46.5-42.5-20.5z"/><path transform="translate(44.478 12.6) scale(.014 -.014)" d="m279-5q-62 0-98.5 17t-36.5 49q-21 3-29 16.5t-9.5 32.5-1.5 37v20q7 55 13.5 102.5t6.5 102.5q0 44-0.5 76t-4.5 75q3 20-23 30-4 2-10 3.5t-13 4.5q-10 4-16.5 10.5t-6.5 21.5q0 24 24 43t61 32.5 78.5 22.5 77.5 13 56 4q50 0 92-18.5t68-53.5 26-85q0-45-17-79.5t-57-51.5q58-8 99-27.5t63.5-59 22.5-107.5q0-79-48.5-130t-131.5-76-185-25zm-11 78q39 0 82 3.5t84.5 18 76.5 47.5q25 23 42 44.5t17 59.5q0 31-18 52t-44.5 34-54.5 20q-10 3-21.5 4t-22.5 1q-30 0-58.5-5t-47.5-5q-12 0-19 5-6 6-6 13 0 17 4 28.5t17 21.5q12 8 25 15 8 5 16 8.5t16 7.5q27 12 50.5 27t38 36 14.5 52q0 27-19.5 43.5t-45.5 23.5-47 7q-24 0-53.5-4t-56.5-16.5-44-36.5v-48q0-52 2.5-103t2.5-101v-48q0-8-1-27.5t-2.5-39.5-1.5-28q0-7-2.5-16t-5.5-20q-3-13-5.5-26.5t-2.5-29.5q13-13 38-15.5t53-2.5z"/><path transform="translate(54.18 12.6) scale(.014 -.014)" d="m193 10q-51 0-80 28.5t-41.5 74-12.5 96.5q0 35 1 56.5t4.5 44.5 10.5 63q4 20 8 40.5t11 39.5q8 23 17.5 32.5t16.5 9.5q19 0 28.5-10.5t9.5-26.5q0-22-6-41t-10-36q-7-45-12-71.5t-7.5-48-2.5-52.5q0-15 2.5-36t9.5-41 21-33.5 37-13.5q24 0 45.5 17.5t30.5 28.5q68 86 121 168t105 179q7 11 11.5 14t11.5 3q23 0 32-8t9-27q0-12-3-29-15-75-15-149 0-50 9-93t29-71q15-19 15-33 0-17-9.5-27t-23.5-10q-38 0-60 60-7 21-15.5 53.5t-15.5 65.5-9 55q-13-21-23.5-41.5t-26.5-43.5q-11-16-26-36.5t-32-42.5q-35-43-77-75.5t-88-32.5z"/><path transform="translate(63.322 12.6) scale(.014 -.014)" d="m267 10q-36 0-68 10.5t-54 21.5q-15-18-30.5-22.5t-28.5-4.5q-27 0-27 42 0 22 1.5 37.5t8.5 41.5q17 117 26.5 241.5t9.5 246.5q0 63-3 124 0 10 7 12t14 2q23 0 34.5-5.5t13.5-26.5v-55q0-67-2.5-133.5t-2.5-144.5q0-10 1.5-19t6.5-9q4 0 11 6t18 22q44 51 99 85.5t135 34.5q26 0 54.5-6.5t53.5-25 40.5-55 15.5-96.5q0-70-26-129.5t-72-103-106.5-67.5-129.5-24zm0 67q47 0 94 22t86.5 59 63.5 82.5 24 93.5q0 28-13.5 54t-38 43.5-56.5 17.5-69-20-73-52-65.5-70.5-47-76.5-17.5-69q0-23 12.5-39t31.5-26 37.5-14.5 30.5-4.5z"/><path transform="translate(72.198 12.6) scale(.014 -.014)" d="m267 10q-36 0-68 10.5t-54 21.5q-15-18-30.5-22.5t-28.5-4.5q-27 0-27 42 0 22 1.5 37.5t8.5 41.5q17 117 26.5 241.5t9.5 246.5q0 63-3 124 0 10 7 12t14 2q23 0 34.5-5.5t13.5-26.5v-55q0-67-2.5-133.5t-2.5-144.5q0-10 1.5-19t6.5-9q4 0 11 6t18 22q44 51 99 85.5t135 34.5q26 0 54.5-6.5t53.5-25 40.5-55 15.5-96.5q0-70-26-129.5t-72-103-106.5-67.5-129.5-24zm0 67q47 0 94 22t86.5 59 63.5 82.5 24 93.5q0 28-13.5 54t-38 43.5-56.5 17.5-69-20-73-52-65.5-70.5-47-76.5-17.5-69q0-23 12.5-39t31.5-26 37.5-14.5 30.5-4.5z"/><path transform="translate(81.074 12.6) scale(.014 -.014)" d="m141-5q-19 0-29 15t-14 37-4.5 44-0.5 35q0 8-0.5 18t-0.5 20q0 50 3 121.5t8.5 151 13 155.5 16.5 135q8 29 21.5 42t26.5 13q12 0 21.5-11t9.5-31q0-4 0-7t-1-7q-25-121-32-253t-7-254q0-50 1.5-88.5t1.5-79.5q0-22-9.5-39t-24.5-17z"/><path transform="translate(84.728 12.6) scale(.014 -.014)" d="m321-15q-76 0-137.5 22.5t-97.5 71-36 125.5q0 61 20.5 119t58.5 105 91 74.5 118 27.5q45 0 81.5-17t58.5-48 22-74q0-46-19.5-87.5t-52.5-73.5-74.5-50.5-86.5-18.5q-39 0-73 6.5t-63 20.5q0-38 18-64.5t46-43 58.5-24 56.5-7.5q21 0 42 2.5t46 2.5q37 0 37-32 0-25-35-32-19-4-39-4.5t-40-0.5zm-54 256q35 0 73 14t64.5 44 26.5 76q0 41-25.5 66.5t-67.5 25.5q-38 0-74.5-17.5t-66.5-47-48-66.5-18-76q23-12 58-15.5t78-3.5z"/><path transform="translate(92.484 12.6) scale(.014 -.014)" d="m249-15q-27 0-63 3t-70.5 13-57 32-22.5 59q0 48 38 48 13 0 20-9l9-12q3-4 5.5-8.5t6.5-9.5q14-21 40-39t78-18q30 0 66 9.5t61.5 30.5 25.5 56q0 29-18 46t-40 27q-10 5-22.5 10t-26.5 9q-13 4-26 8t-27 8q-36 12-65.5 27.5t-47 39.5-17.5 61q0 46 30.5 77t77 46.5 94.5 15.5q18 0 42-3t47-11 38.5-22.5 15.5-38.5q0-12-4.5-20.5t-13.5-8.5q-6 0-10 2-44 20-73.5 29t-51.5 9q-13 0-33.5-3.5t-40.5-11-33.5-21-13.5-34.5q0-38 58-63 21-8 47-16t54-19q36-13 66-31t47.5-43.5 17.5-63.5q0-57-29-92.5t-76-51.5-103-16z"/></svg>