<svg width="65.104" height="20.496" viewBox="0 0 65.104 20.496" xmlns="http://www.w3.org/2000/svg"><path transform="translate(0 15.776) scale(.016 -.016)" d="m373-278q-61 0-101.5 21t-60.5 54-20 68q0 31 14.5 58.5t43 45 69.5 17.5q11 0 15-3.5t4-7.5q0-6-12-17.5t-24.5-32.5-12.5-58q0-38 26.5-65.5t75.5-27.5q63 0 97 48.5t34 165.5v94q-36-30-79.5-47.5t-96.5-17.5q-105 0-173.5 48.5t-102.5 130-34 180.5q0 71 20 135t61.5 113.5 103.5 78.5 146 29q71 0 125-20t85-55 31-82q0-52-30.5-84.5t-76.5-32.5q-16 0-18.5 2.5t-2.5 9.5q0 5 7.5 15.5t15 29 7.5 46.5q0 51-39 83t-104 32q-63 0-106-27.5t-68.5-72-37-96-11.5-99.5q0-82 25-150.5t72.5-109 113.5-40.5q52 0 93.5 18t73.5 50v51q0 47-13 65t-51 28l-23 6 12 34h210l13-16-13-18q-24-34-34.5-70t-10.5-97v-116q0-106-29.5-171t-82.5-94-126-29z"/><path transform="translate(11.056 15.776) scale(.016 -.016)" d="m224-14q-47 0-88 27t-66 81-25 135q0 87 31.5 150t90 97 137.5 34q47 0 98-10.5t102-14.5l11-13-12-18q-6-9-9.5-17.5t-3.5-21.5v-327q0-31 30-31 25 0 50 18l19-26q-26-29-55.5-46t-55.5-17q-41 0-59 25t-18 81q-43-61-86.5-83.5t-90.5-22.5zm40 77q38 0 73.5 22t63.5 69v270q-46 31-98 31-73 0-113-54.5t-40-152.5q0-68 16-108.5t42.5-58.5 55.5-18z"/><path transform="translate(20.72 15.776) scale(.016 -.016)" d="m285-14q-58 0-108 17t-79 46v625q0 22-20 22h-44l-9 26q29 26 66.5 43t65.5 17q14 0 23-9t9-23v-676q23-16 48-24t57-8q67 0 106 56t39 150q0 61-17.5 107.5t-48.5 72.5-72 26q-31 0-43.5-6.5t-20.5-6.5q-6 0-10.5 7t-4.5 15q0 12 9 18 25 16 50.5 22.5t50.5 6.5q63 0 111-31t75-85.5 27-125.5q0-81-34-144.5t-92.5-100.5-133.5-37z"/><path transform="translate(30.16 15.776) scale(.016 -.016)" d="m61 0-11 31 21 5q26 6 34 22t8 53v281q0 22-20 22h-44l-9 26q29 26 66.5 43t65.5 17q14 0 23-9t9-23v-107h6q17 67 52.5 108t77.5 41q41 0 69-27t28-75q0-38-27.5-64t-70.5-26q-19 0-19 11 0 5 7 14t14 23 7 32-9.5 28.5-23.5 10.5q-21 0-47-26.5t-45-88-19-166.5q0-45 7-72.5t25-52.5l12-16-12-15z"/><path transform="translate(37.152 15.776) scale(.016 -.016)" d="m185-14q-41 0-59 25t-18 81v310q0 22-20 22h-44l-9 26q29 26 66.5 43t65.5 17q14 0 22.5-9t8.5-23v-390q0-34 30-34 25 0 50 21l19-26q-26-29-56-46t-56-17zm-30 607q-11 0-25.5 11t-25 26-10.5 28 10.5 28.5 24.5 26.5 26 11q13 0 27.5-11t25-26.5 10.5-28.5-10.5-28-25-26-27.5-11z"/><path transform="translate(42.144 15.776) scale(.016 -.016)" d="m275-14q-70 0-121.5 32t-80 89.5-28.5 134.5q0 81 32 141t90.5 93.5 136.5 33.5q58 0 95.5-21t56-54.5 18.5-71.5q0-41-21.5-80t-64-64-105.5-25q-10 0-28.5 2.5t-37 8-31.5 14.5-13 22q0 8 4.5 15t10.5 7q8 0 20.5-6.5t43.5-6.5q43 0 71 16.5t42 43 14 54.5q0 37-24 66.5t-71 29.5q-64 0-100-56t-36-162q0-88 37.5-139t110.5-51q42 0 79 14t67 43q4 4 9 4 8 0 17-9.5t9-19.5q0-5-4-9-77-89-198-89z"/><path transform="translate(50.608 15.776) scale(.016 -.016)" d="m175-14q-41 0-59 25t-18 81v582q0 22-20 22h-44l-9 26q29 26 66.5 43t65.5 17q14 0 22.5-9t8.5-23v-662q0-34 30-34 25 0 50 21l19-26q-26-29-56-46t-56-17z"/><path transform="translate(55.44 15.776) scale(.016 -.016)" d="m224-14q-47 0-88 27t-66 81-25 135q0 87 31.5 150t90 97 137.5 34q47 0 98-10.5t102-14.5l11-13-12-18q-6-9-9.5-17.5t-3.5-21.5v-327q0-31 30-31 25 0 50 18l19-26q-26-29-55.5-46t-55.5-17q-41 0-59 25t-18 81q-43-61-86.5-83.5t-90.5-22.5zm40 77q38 0 73.5 22t63.5 69v270q-46 31-98 31-73 0-113-54.5t-40-152.5q0-68 16-108.5t42.5-58.5 55.5-18z"/></svg>