<svg width="40.944" height="16" viewBox="0 0 40.944 16" xmlns="http://www.w3.org/2000/svg"><path transform="translate(0 12.16) scale(.016 -.016)" d="m516-56q-9-15-29-15-16 0-23.5 5.5t-10.5 15.5-3 23.5-1 29.5q1 20 1.5 35t0.5 25v12q-72-60-119-65-21-2-37-3t-27-2q-12-1-21-2h1q-34 0-67.5 14.5t-60.5 39.5-43.5 58.5-16.5 71.5q0 19 4.5 50t12 63 16.5 60.5 17 43.5q15 27 53 62 50 29 130 65 20 4 47.5 8.5t63.5 10.5q63-5 90.5-20t27.5-41-29-26q-14 0-32.5 6.5t-38.5 7.5q-28 1-42 1.5t-16 0.5q-65-12-104-36-24-4-48-24.5t-43-53.5-30.5-75.5-11.5-89.5q0-48 19.5-79.5t76.5-50.5q9-3 24-3 34 0 57 3.5t41.5 11.5 35 21 37.5 33q18 16 23 16 3 0 4-1-1 5-1 18 0 6 0 12t1 14q-15 9-41.5 14.5t-51.5 8-42.5 3-15.5 0.5q-16 15-16 32 0 24 22 28h-1q0 2 19-2t52-4q10 0 16 2 13-1 30.5-5t34-9.5 30.5-12 21-11.5q15-11 15-54 0-27-8-48 5-18 5-62 0-29 1-43.5t0-15.5q-2-6-2-11 0-7 2.5-23.5t2.5-24.5q0-7-2-13z"/><path transform="translate(9.952 12.16) scale(.016 -.016)" d="m432 100q14-9 14-22 0-14-14-27t-27-13q-31 11-53.5 41t-30.5 65q-7-15-16.5-37.5t-24.5-42.5-37-34.5-55-14.5q-17 0-45 6-31 22-48.5 35.5t-26.5 25.5-11 27-2 40q0 21 6.5 46.5t18.5 51.5 30 51 42 46q44 15 69 22t34 7q20 23 42 23 12 0 21-14t16.5-36.5 12-49.5 7.5-52q3-5 5-11.5t4-16.5l6-28q6-29 23-50t40-38zm-141 132q-2 9-7 30t-13 54q-12-3-26-2.5t-30-5.5-34.5-22-37.5-50q-24-44-24-93 6-13 11-22.5t12.5-17 18.5-14.5 28-15q15 3 25.5 7t18.5 12.5 15 21.5 17 34q26 58 26 83z"/><path transform="translate(17.408 12.16) scale(.016 -.016)" d="m417 40q-32-32-75-55t-88-23q-19 0-87 14-18 12-38 30t-36.5 41.5-27 50-10.5 55.5v-1q1 9 2 21 1 11 2 25.5t3 34.5q20 32 41.5 63t63.5 55q64 15 96 15 15 0 26.5-1.5t22-7 21-14.5 25.5-24q11-12 17-17.5t9-8.5 3-5 0-6q0-36-7.5-58t-28-36-56.5-24.5-93-23.5h-6q-18 0-64-8 36-106 115-106 56 0 127 57 7 6 18 6 31 0 31-30 0-10-6-19zm-96 224q-27 45-61 45-15 0-32-4t-32.5-11-29-17-22.5-23q-4-8-7.5-23t-8.5-36q27 5 59.5 7t62 8 49.5 18 22 36z"/><path transform="translate(25.056 12.16) scale(.016 -.016)" d="m424 341q3-14 3-35 0-35-9-92 1-4 1-16 0-11-1.5-26t-3.5-35q1-5 1-10.5t0-12.5q0-24-3-60t-8-84q-14-113-93-167-59-21-122-21-27 0-62 11l-53 21-49 39q-14 11-20 17.5t-6 13.5q0 17 9.5 28t23.5 11q11 0 22-6l57-46q39-25 92-27 8 0 38 8l36 9q21 12 39 41.5t22 62.5v5q-1 7 1 19.5t4 31.5l7 69q-2-1-14.5-9.5t-35.5-18.5-56-18-74-8q-11 0-27 11.5t-48 38.5l-24 44q-9 16-12.5 33.5t-3.5 34.5q0 26 22 53t54 49 69.5 36 69.5 14q14 0 40-2t49-18q0 3 1.5 8t4.5 10 9.5 8.5 17.5 3.5q28 0 32-19zm-72-78q-13 12-31 16.5t-34 8.5q-28-3-80-17-79-45-79-87 0-7 5.5-18.5t14-24 19-23.5 21.5-17q41 0 100 24 28 5 59 50 2 20 3.5 39t1.5 36z"/><path transform="translate(33.12 12.16) scale(.016 -.016)" d="m409 366q1-11 1.5-21t0.5-21q0-24-2-40.5t-5-37-7.5-50-8.5-78.5q0-3-0.5-5.5t-0.5-5.5q0-16 3-35l4-37q0-26-33-26-14 0-21 7.5t-10 18-3 22 0 19.5q0 10 1 15-24-24-42.5-37.5t-34-19.5-30-7-30.5-1q-54 0-82.5 30t-28.5 89q0 7 0 16t1 21q-1 4-1 13 0 13 1 24.5t4.5 28 10 41 17.5 63.5q11 11 25 11 13 0 22-7t9-21q0-5-3.5-21t-7.5-35-7.5-37.5-3.5-28.5v-5q-2-14-3.5-26t-1.5-20q0-31 12.5-53.5t47.5-22.5q23 0 43 10t36 24.5 28 32 18 32.5q2 19 7 45.5t13 61.5q-1 6-1 12t0 11q0 12 1.5 24.5t5 22 10.5 16 19 6.5q22 0 27-18z"/></svg>