<svg width="47.168" height="26.032" viewBox="0 0 47.168 26.032" xmlns="http://www.w3.org/2000/svg"><path transform="translate(0 16.56) scale(.016 -.016)" d="m289 192q30 0 50 9t35 28l43 190 129-1-82-376q-29-136-89-192.5t-167-56.5q-63 0-101 39t-38 99q0 58 34 97.5t88 39.5 76-16.5 22-50.5q0-8-1.5-18.5t-4.5-21.5q-17 14-30 20t-30 6q-31 0-50.5-22t-19.5-54q0-30 17-49t46-19q41 0 63 28.5t37 94.5l40 179q-31-17-66-26.5t-56-9.5q-106 0-160.5 65.5t-54.5 190.5q0 74 25.5 144.5t71.5 123.5q49 57 114.5 87t142.5 30q84 0 135-35.5t51-98.5q0-45-18-68.5t-52-23.5q-21 0-39.5 7t-29.5 19q17 5 30.5 32t13.5 50q0 32-18 51.5t-51 19.5q-43 0-86.5-35.5t-77.5-98.5q-28-49-43-104.5t-15-107.5q0-77 30.5-121t85.5-44z"/><path transform="translate(9.248 16.56) scale(.016 -.016)" d="m325 454v-7l11 53h144l-72-340q-2-9-3-16.5t-1-15.5q0-22 10-32.5t31-10.5q26 0 47 24.5t34 69.5h42q-32-92-83-138.5t-118-46.5q-43 0-68.5 24t-29.5 68q-31-46-68.5-69t-80.5-23q-62 0-97.5 42t-35.5 119q0 56 17 117t47 111q37 59 86 90.5t107 31.5q39 0 60-13.5t21-37.5zm-9-49q0 15-11 26.5t-30 11.5q-55 0-97.5-92t-42.5-182q0-39 11-58.5t39-19.5q26 0 50.5 25t32.5 63z"/><path transform="translate(17.664 16.56) scale(.016 -.016)" d="m-8 114q0 13 2 29.5t6 35.5l107 501 148 20-115-540q-2-9-3-16.5t-1-15.5q0-20 9.5-28.5t31.5-8.5q28 0 53 24.5t37 63.5h42q-32-91-86-138t-124-47q-50 0-78.5 31.5t-28.5 88.5z"/><path transform="translate(21.936 16.56) scale(.016 -.016)" d="m325 454v-7l11 53h144l-72-340q-2-9-3-16.5t-1-15.5q0-22 10-32.5t31-10.5q26 0 47 24.5t34 69.5h42q-32-92-83-138.5t-118-46.5q-43 0-68.5 24t-29.5 68q-31-46-68.5-69t-80.5-23q-62 0-97.5 42t-35.5 119q0 56 17 117t47 111q37 59 86 90.5t107 31.5q39 0 60-13.5t21-37.5zm-9-49q0 15-11 26.5t-30 11.5q-55 0-97.5-92t-42.5-182q0-39 11-58.5t39-19.5q26 0 50.5 25t32.5 63z"/><path transform="translate(30.352 16.56) scale(.016 -.016)" d="m135 169q0-39 11-58.5t39-19.5q25 0 49 23.5t33 59.5v5l49 229q-3 16-13.5 25.5t-27.5 9.5q-55 0-97.5-92t-42.5-182zm190 285v-4l49 230 148 20-115-540q-2-9-3-16.5t-1-15.5q0-20 9.5-28.5t31.5-8.5q26 0 47 23t34 65h42q-31-89-80.5-134t-120.5-45q-41 0-66.5 22.5t-31.5 63.5q-30-46-67-69t-81-23q-62 0-97.5 42t-35.5 119q0 56 17 117t47 111q37 59 86 90.5t107 31.5q39 0 60-13.5t21-37.5z"/><path transform="translate(38.752 16.56) scale(.016 -.016)" d="m325 454v-7l11 53h144l-72-340q-2-9-3-16.5t-1-15.5q0-22 10-32.5t31-10.5q26 0 47 24.5t34 69.5h42q-32-92-83-138.5t-118-46.5q-43 0-68.5 24t-29.5 68q-31-46-68.5-69t-80.5-23q-62 0-97.5 42t-35.5 119q0 56 17 117t47 111q37 59 86 90.5t107 31.5q39 0 60-13.5t21-37.5zm-9-49q0 15-11 26.5t-30 11.5q-55 0-97.5-92t-42.5-182q0-39 11-58.5t39-19.5q26 0 50.5 25t32.5 63z"/></svg>