<svg width="71.012" height="14" viewBox="0 0 71.012 14" xmlns="http://www.w3.org/2000/svg"><path transform="translate(0 10.938) scale(.013672 -.013672)" d="m400 60q-30-11-65-17t-69-6q-39 0-79 8.5t-72.5 32.5-53.5 68.5-21 116.5q0 44 14.5 92.5t44 89.5 73 68 100.5 27q28 0 61-8t61.5-22 48-33.5 19.5-43.5q0-18-14-28t-28-10q-17 0-20 12-7 14-19.5 24.5t-28.5 17-33.5 10-33.5 3.5q-39 0-69.5-18t-52-46.5-32.5-64.5-11-71q0-53 14.5-83t37-46 49.5-20 52-4q36 0 71.5 9t59.5 21v41q0 16 0 32.5t-2 34.5q-27 0-51-1.5t-42 0.5-28.5 10.5-10.5 28.5q0 14 5.5 25t18.5 11q23 0 55-0.5t65.5-1 64.5-1 53 0.5q12-2 17-13t5-24-6-24-16-11h-54q1-32 1-56.5t0-46.5q0-42-1.5-75t-5.5-74q-2-17-12.5-25t-22.5-8q-17 0-29 9t-12 26q0 16 1 31.5t3 31.5z"/><path transform="translate(7.7383 10.938) scale(.013672 -.013672)" d="m163 312q6 5 17 5 34-3 61-18.5t45.5-38 28-49.5 9.5-52v-5q7-23 15-36t17.5-20 19-8.5 19.5-1.5q9 0 19.5 4t24.5 4q13 0 21.5-10.5t8.5-22.5q0-11-6.5-19.5t-17-14-23-8-24.5-2.5q-38 0-66 16t-44 37q-20-23-48-36t-59-13q-28 0-56 9t-50 27-36 44.5-14 62.5q0 21 7.5 44t22.5 44 36.5 37 50.5 22h6q10 0 15-1zm6-63q-35-11-51-31.5t-16-47.5q0-32 16.5-54.5t61.5-22.5q26 0 46 19t20 51q0 22-6.5 36.5t-17 24-24.5 15-29 10.5z"/><path transform="translate(14.355 10.938) scale(.013672 -.013672)" d="m40 293q-8 11-8 20 0 15 14 26t29 11q10 0 18.5-6t14.5-14.5 11-18 9-16.5q17 6 36 10t42 4q20 0 42.5-3.5t46.5-17.5q20 10 46 15t54 5q19 0 43-3t45-19.5 35-51 14-96.5q0-30-1-58t-5.5-49.5-13.5-34.5-25-13q-13 0-25.5 8t-12.5 22q0 17 4 42t4 51q0 33-1 58t-8 41.5-21 24.5-40 8q-27 0-52-9l3-12q3-15 4.5-35.5t1.5-43.5q0-25 0-52.5t-3-50-11.5-37.5-25.5-15-28.5 10-11.5 26q0 28 3 65t3 67q0 40-14 63.5t-55 23.5q-23 0-45-8v-1q1-26 1.5-55.5t0.5-59.5q0-27 0-51t-4-42-13.5-29-28.5-11q-14 2-23 10t-9 21q0 30 2 63t2 71q0 19-0.5 34t-1.5 29q-11 17-19.5 38.5t-22.5 45.5z"/><path transform="translate(22.176 10.938) scale(.013672 -.013672)" d="m270 483q-5-25-20-38t-36-13q-8 0-19 2.5t-20.5 9-16.5 18-7 29.5q0 32 18 46.5t47 14.5 42-18 13-41q0-2-0.5-5t-0.5-5zm-66-650q-29-23-67-23-33 0-65.5 16t-51.5 43q-4 4-4 11 0 13 9.5 27.5t22.5 14.5q5 0 10-3 18-15 37.5-25.5t37.5-10.5q38 0 52 61t14 176q0 51-2.5 102.5t-6.5 96.5q0 11 11 18.5t27 7.5q12 0 23-4.5t15-15.5q4-51 7-101.5t3-100.5q0-48-4-93.5t-12.5-83.5-22-67.5-33.5-45.5z"/><path transform="translate(27.098 10.938) scale(.013672 -.013672)" d="m163 312q6 5 17 5 34-3 61-18.5t45.5-38 28-49.5 9.5-52v-5q7-23 15-36t17.5-20 19-8.5 19.5-1.5q9 0 19.5 4t24.5 4q13 0 21.5-10.5t8.5-22.5q0-11-6.5-19.5t-17-14-23-8-24.5-2.5q-38 0-66 16t-44 37q-20-23-48-36t-59-13q-28 0-56 9t-50 27-36 44.5-14 62.5q0 21 7.5 44t22.5 44 36.5 37 50.5 22h6q10 0 15-1zm6-63q-35-11-51-31.5t-16-47.5q0-32 16.5-54.5t61.5-22.5q26 0 46 19t20 51q0 22-6.5 36.5t-17 24-24.5 15-29 10.5z"/><path transform="translate(37.27 10.938) scale(.013672 -.013672)" d="m356 215q-15-2-36.5-3t-45.5-1-47.5 0.5-42.5 1.5q-9 0-14.5 11.5t-5.5 24.5q0 14 5.5 25t18.5 11q24 0 44.5-1t40.5-1q19 0 39 0.5t42 3.5q12-2 17.5-13.5t5.5-24.5-5.5-23.5-15.5-10.5zm-36 240q-27-1-50.5-1.5t-43.5-0.5-43.5 0.5-50.5 1.5q1-38 1-80t0-84q0-38-0.5-75t-1-71-2-62-3.5-48q-2-17-12.5-25t-22.5-8q-17 0-29 9t-12 26q1 26 2.5 60.5t3 73.5 2 80.5 0.5 81.5q0 51-2 95t-2 76q0 14 12 20t27 6q17 0 37.5-2t43.5-2q42 0 80 0.5t66 0.5q12-5 17.5-15.5t5.5-22.5-7-21.5-16-12.5z"/><path transform="translate(42.902 10.938) scale(.013672 -.013672)" d="m52 513q-8 11-8 20 0 15 14 26t29 11q14 0 27.5-14t24.5-33.5 20-40 15-33.5q3-43 4-86.5t1-88.5q0-72-1.5-138.5t-3.5-126.5q-1-15-10-22.5t-22-7.5q-15 0-29.5 9t-14.5 25q0 42 3.5 95.5t3.5 111.5q0 55-1 109.5t-4 99.5q-9 19-21 41t-27 43z"/><path transform="translate(46.238 10.938) scale(.013672 -.013672)" d="m194 311q4 3 9 5.5t11 2.5q26-2 54-14t51-34 38-53 15-71q-1-42-14.5-73.5t-36-52.5-53-31.5-66.5-10.5q-28 0-57 10.5t-52 31-38 49.5-15 67q0 34 13 66.5t32.5 57.5 43 40 44.5 15q11 0 21-5zm6-59q-18-9-32.5-18.5t-25-22.5-16-32-5.5-47q0-25 8.5-41t22-25.5 30-13 32.5-3.5q34 0 57 27t23 66q0 30-8.5 49t-22 30.5-30.5 18-33 12.5z"/><path transform="translate(51.844 10.938) scale(.013672 -.013672)" d="m294 331q9-33 16.5-69t14.5-71.5 13.5-67.5 13.5-58q10 34 19.5 66t18.5 65 17.5 70.5 14.5 82.5q2 12 10.5 17.5t18.5 5.5q16 0 28.5-10t12.5-25q-12-69-27.5-134.5t-33-117-37-82.5-40.5-31q-18 0-33 22.5t-27 58-21 80.5-15 90q-8-45-18-89.5t-22-80-26-57.5-31-22q-23 0-43 34.5t-37 88.5-31 120.5-24 131.5v4q0 12 12 21.5t27 9.5q11 0 20.5-6t12.5-19q10-83 24-152t38-144q6 48 25 112.5t37 155.5q3 15 13 22.5t22 7.5 22.5-7.5 14.5-22.5z"/><path transform="translate(58.926 10.938) scale(.013672 -.013672)" d="m354 277q31-43 31-75 0-34-35-45l-209-62q13-20 33.5-31t41.5-11q33 0 62.5 10.5t55.5 37.5q7 7 16 7 12 0 24.5-11.5t12.5-25.5-13.5-29-35.5-28.5-50-22-57-8.5-61.5 9-60.5 28.5-46 50.5-18 76q0 48 31 110 20 39 61.5 57.5t87.5 18.5q38 0 72.5-14t56.5-42zm-230-115 182 53q-5 26-26.5 38.5t-47.5 12.5q-29 0-49.5-10.5t-33.5-26.5-19-34-6-33z"/><path transform="translate(64.75 10.938) scale(.013672 -.013672)" d="m169 239q40 40 95 64.5t116 27.5q15-2 22.5-13.5t7.5-24.5q0-11-5.5-20.5t-16.5-9.5q-66-15-115.5-38t-79.5-61q0-20 2.5-39.5t2.5-40.5q0-26-1.5-52t-6.5-51q-1-13-13-18t-26-5-25.5 6.5-11.5 18.5q3 28 5.5 57.5t2.5 58.5q0 39-9.5 65t-17.5 43q-3 5-11.5 14.5t-17.5 20-16 21.5-7 19q0 17 13.5 29.5t30.5 12.5 40-25 42-60z"/></svg>