<svg width="102.75" height="23.168" viewBox="0 0 102.75 23.168" xmlns="http://www.w3.org/2000/svg"><path transform="translate(0 18.56) scale(.016 -.016)" d="m756 558v-30l-315-36v18q0 36-36 36t-36-36v-246q0-36 36-36t36 36v31h-36v170h351v-247q0-110-95-172t-265-62q-157 0-254.5 61.5t-114.5 170.5q-4 28-6.5 73t-2.5 100q0 52 2.5 95.5t6.5 69.5q17 110 115 171t254 61q166 0 261-60.5t99-167.5z"/><path transform="translate(12.384 18.56) scale(.016 -.016)" d="m630 0h-256q-4 19-6.5 39.5t-2.5 49.5h-9q0-21-14.5-45.5t-46.5-42-86-17.5q-74 0-117 25t-61 64.5-18 85.5v48q0 96 60 140t203 44q20 0 40.5-1t43.5-3q2 17-5.5 25t-18.5 9q-19 2-36.5 3.5t-34.5 1.5q-80 0-134.5-19t-85.5-37l-18 216q88 26 164.5 38t140.5 12q138 0 213.5-55.5t75.5-161.5v-303q3-59 9-116zm-290 188v63q0 4-3.5 15.5t-23.5 11.5-23.5-11.5-3.5-15.5v-63q0-3 3.5-15t23.5-12 23.5 12 3.5 15z"/><path transform="translate(22.608 18.56) scale(.016 -.016)" d="m559 347q-44 27-94.5 40t-120.5 18q-7 0-12 0.5t-10 0.5q-18 0-18-14 0-8 10-10.5t26-5.5q41-4 87-11.5t86-26.5 65-57.5 25-104.5q0-55-25-92t-68.5-58.5-98.5-31-115-9.5q-76 0-152.5 11.5t-134.5 24.5l24 279q19-13 46.5-29.5t73.5-30.5 122-21q4-1 7.5-1t7.5 0q18 0 18 13 0 9-8 12t-25 5q-45 6-89.5 15t-81.5 28-59.5 53.5-22.5 89.5q0 75 37.5 119t101.5 63.5 142 19.5q67 0 139-10.5t142-27.5z"/><path transform="translate(32.368 18.56) scale(.016 -.016)" d="m650 217q-9-118-93-175.5t-222-57.5q-139 0-222.5 57.5t-92.5 175.5q-1 17-2.5 43.5t-1.5 54.5q0 29 1.5 52t2.5 41q9 117 93 172.5t222 55.5 222-56 93-172q3-34 3-89 0-29-0.5-56.5t-2.5-45.5zm-288 31v133q0 3-3.5 15t-23.5 12-23.5-12-3.5-15v-133q0-4 3.5-15.5t23.5-11.5 23.5 11.5 3.5 15.5z"/><path transform="translate(43.056 18.56) scale(.016 -.016)" d="m327 634q144 0 229-63t89-176v-114h-336v-56q0-27 27-27t27 27v26l279-15v-21q0-109-83-169.5t-232-60.5q-132 0-210.5 60t-95.5 168q-3 13-4.5 40t-1.5 63q0 35 1.5 62.5t4.5 40.5q16 101 95 158t211 57zm-18-245v-36h54v36q0 27-27 27t-27-27z"/><path transform="translate(53.632 18.56) scale(.016 -.016)" d="M311 0H23V804H320V524L311 403H320L373 620H671L543 327L683 0H370L319 241H310V140Z"/><path transform="translate(68.848 18.56) scale(.016 -.016)" d="m747 208q-16-105-111-164.5t-249-59.5-248.5 59-111.5 163q-4 28-6.5 75.5t-2.5 102.5q0 53 2.5 98.5t6.5 71.5q17 110 112 171t248 61q154 0 249-60.5t111-167.5q4-26 6.5-71.5t2.5-99.5q0-57-2.5-104t-6.5-75zm-333 46v262q0 27-27 27t-27-27v-262q0-27 27-27t27 27z"/><path transform="translate(81.232 18.56) scale(.016 -.016)" d="m454 636q75 0 118-19t63.5-52.5 26.5-77.5 6-94v-393l-293-1v371q0 3-3.5 15t-23.5 12-23.5-12-3.5-15v-370h-296v402q0 32 0.5 93t-7.5 125h254q12-63 12-130h9q0 39 16 72t51.5 53.5 93.5 20.5z"/><path transform="translate(92.176 18.56) scale(.016 -.016)" d="m327 634q144 0 229-63t89-176v-114h-336v-56q0-27 27-27t27 27v26l279-15v-21q0-109-83-169.5t-232-60.5q-132 0-210.5 60t-95.5 168q-3 13-4.5 40t-1.5 63q0 35 1.5 62.5t4.5 40.5q16 101 95 158t211 57zm-18-245v-36h54v36q0 27-27 27t-27-27z"/></svg>