<svg width="96" height="20.8" viewBox="0 0 96 20.8" xmlns="http://www.w3.org/2000/svg"><path transform="translate(0 16.08) scale(.016 -.016)" d="m298-16q-75 0-133.5 41.5t-92.5 124-34 204.5q0 115 31.5 198t90.5 128.5 142 45.5q65 0 115.5-29t84.5-80.5 49-118.5l-90-6q-17 66-56.5 108t-102.5 42q-55 0-94-33.5t-59.5-98-20.5-156.5q0-91 21-155t60.5-97.5 96.5-33.5q51 0 87.5 26.5t57.5 74 23 108.5h-170v82h250v-359h-80l-4 168 24-8q-14-51-38.5-91t-63-62.5-94.5-22.5z"/><path transform="translate(9.6 16.08) scale(.016 -.016)" d="m309-12q-75 0-129.5 34t-84 96.5-29.5 146.5 29.5 146 83 96.5 126.5 34.5q69 0 122-32.5t83-94.5 30-151v-25h-386q5-85 45.5-128t109.5-43q52 0 85.5 24.5t46.5 64.5l90-7q-21-71-79.5-116.5t-142.5-45.5zm-155 325h294q-6 77-45 113t-98 36q-61 0-100.5-37.5t-50.5-111.5z"/><path transform="translate(19.2 16.08) scale(.016 -.016)" d="M293 0V530H377V0ZM80 0V74H560V0ZM90 456V530H377V456ZM285 613V711H373V613Z"/><path transform="translate(28.8 16.08) scale(.016 -.016)" d="m310-12q-69 0-119 24t-78.5 64.5-32.5 90.5l88 6q8-49 43.5-77t98.5-28q59 0 91.5 17t32.5 53q0 23-11 38t-41 25.5-88 20.5q-77 14-120.5 34.5t-61.5 51.5-18 74q0 46 23 82t68 57 110 21q66 0 110.5-23.5t70.5-62 34-84.5l-88-6q-6 28-22.5 49.5t-43 34-62.5 12.5q-58 0-86-23t-28-57q0-27 13-43t42-25.5 77-17.5q82-13 127-33.5t63-50.5 18-74q0-47-27.5-80.5t-75-51.5-107.5-18z"/><path transform="translate(38.4 16.08) scale(.016 -.016)" d="m378 0q-77 0-115 36t-38 110v508h84v-508q0-37 17-54.5t52-17.5h142v-74zm-328 456v74h470v-74z"/><path transform="translate(57.6 16.08) scale(.016 -.016)" d="M262 80 128 630H136V0H50V710H180L320 126H280L420 710H550V0H464V630H472L338 80Z"/><path transform="translate(67.2 16.08) scale(.016 -.016)" d="m300-12q-73 0-127.5 34t-84.5 96.5-30 146.5q0 85 30 147t84.5 96 127.5 34 127.5-34 84.5-96 30-147q0-84-30-146.5t-84.5-96.5-127.5-34zm0 80q73 0 113.5 52.5t40.5 144.5-40.5 144.5-113.5 52.5-113.5-52.5-40.5-144.5 40.5-144.5 113.5-52.5z"/><path transform="translate(76.8 16.08) scale(.016 -.016)" d="m84 0v530h77l3-135-10 9q10 47 36.5 77.5t63.5 45.5 78 15q61 0 101.5-27t61.5-72.5 21-101.5v-341h-84v317q0 74-29 112.5t-89 38.5q-41 0-74-17.5t-52.5-51-19.5-82.5v-317z"/><path transform="translate(86.4 16.08) scale(.016 -.016)" d="m300-12q-73 0-127.5 34t-84.5 96.5-30 146.5q0 85 30 147t84.5 96 127.5 34 127.5-34 84.5-96 30-147q0-84-30-146.5t-84.5-96.5-127.5-34zm0 80q73 0 113.5 52.5t40.5 144.5-40.5 144.5-113.5 52.5-113.5-52.5-40.5-144.5 40.5-144.5 113.5-52.5z"/></svg>