<svg width="83.904" height="20.8" viewBox="0 0 83.904 20.8" xmlns="http://www.w3.org/2000/svg"><path transform="translate(0 16.08) scale(.016 -.016)" d="m209 646q-4 0-9 0t-10 0q0 5 0 10t0 9q0 3 0 6.5t0 6.5 0 6q5 0 10 0t9 0q5 0 9.5 0t9.5 0q0-3 0-6t0-6.5 0-6.5q0-4 0-9t0-10q-5 0-9.5 0t-9.5 0zm38 0q-4 0-9 0t-10 0q0 5 0 10t0 9q0 3 0 6.5t0 6.5 0 6q5 0 10 0t9 0q5 0 9.5 0t9.5 0q0-3 0-6t0-6.5 0-6.5q0-4 0-9t0-10q-5 0-9.5 0t-9.5 0zm38 0q-4 0-9 0t-10 0q0 5 0 10t0 9q0 3 0 6.5t0 6.5 0 6q5 0 10 0t9 0q5 0 9.5 0t9.5 0q0-3 0-6t0-6.5 0-6.5q0-4 0-9t0-10q-5 0-9.5 0t-9.5 0zm-38 38q-4 0-9 0t-10 0q0 5 0 10t0 9q0 3 0 6.5t0 6.5 0 6q5 0 10 0t9 0q5 0 9.5 0t9.5 0q0-3 0-6t0-6.5 0-6.5q0-4 0-9t0-10q-5 0-9.5 0t-9.5 0zm-38-76q-4 0-9 0t-10 0q0 5 0 10t0 9q0 3 0 6.5t0 6.5 0 6q5 0 10 0t9 0q5 0 9.5 0t9.5 0q0-3 0-6t0-6.5 0-6.5q0-4 0-9t0-10q-5 0-9.5 0t-9.5 0zm-38 0q-4 0-9 0t-10 0q0 5 0 10t0 9q0 3 0 6.5t0 6.5 0 6q5 0 10 0t9 0q5 0 9.5 0t9.5 0q0-3 0-6t0-6.5 0-6.5q0-4 0-9t0-10q-5 0-9.5 0t-9.5 0zm0-38q-4 0-9 0t-10 0q0 5 0 10t0 9q0 3 0 6.5t0 6.5 0 6q5 0 10 0t9 0q5 0 9.5 0t9.5 0q0-3 0-6t0-6.5 0-6.5q0-4 0-9t0-10q-5 0-9.5 0t-9.5 0zm-38 0q-4 0-9 0t-10 0q0 5 0 10t0 9q0 3 0 6.5t0 6.5 0 6q5 0 10 0t9 0q5 0 9.5 0t9.5 0q0-3 0-6t0-6.5 0-6.5q0-4 0-9t0-10q-5 0-9.5 0t-9.5 0zm0-38q-4 0-9 0t-10 0q0 5 0 10t0 9q0 3 0 6.5t0 6.5 0 6q5 0 10 0t9 0q5 0 9.5 0t9.5 0q0-3 0-6t0-6.5 0-6.5q0-4 0-9t0-10q-5 0-9.5 0t-9.5 0zm-38 0q-4 0-9 0t-10 0q0 5 0 10t0 9q0 3 0 6.5t0 6.5 0 6q5 0 10 0t9 0q5 0 9.5 0t9.5 0q0-3 0-6t0-6.5 0-6.5q0-4 0-9t0-10q-5 0-9.5 0t-9.5 0zm38-38q-4 0-9 0t-10 0q0 5 0 10t0 9q0 3 0 6.5t0 6.5 0 6q5 0 10 0t9 0q5 0 9.5 0t9.5 0q0-3 0-6t0-6.5 0-6.5q0-4 0-9t0-10q-5 0-9.5 0t-9.5 0zm-38 0q-4 0-9 0t-10 0q0 5 0 10t0 9q0 3 0 6.5t0 6.5 0 6q5 0 10 0t9 0q5 0 9.5 0t9.5 0q0-3 0-6t0-6.5 0-6.5q0-4 0-9t0-10q-5 0-9.5 0t-9.5 0zm0-38q-4 0-9 0t-10 0q0 5 0 10t0 9q0 3 0 6.5t0 6.5 0 6q5 0 10 0t9 0q5 0 9.5 0t9.5 0q0-3 0-6t0-6.5 0-6.5q0-4 0-9t0-10q-5 0-9.5 0t-9.5 0zm0-38q-4 0-9 0t-10 0q0 5 0 10t0 9q0 3 0 6.5t0 6.5 0 6q5 0 10 0t9 0q5 0 9.5 0t9.5 0q0-3 0-6t0-6.5 0-6.5q0-4 0-9t0-10q-5 0-9.5 0t-9.5 0zm0-38q-4 0-9 0t-10 0q0 5 0 10t0 9q0 3 0 6.5t0 6.5 0 6q5 0 10 0t9 0q5 0 9.5 0t9.5 0q0-3 0-6t0-6.5 0-6.5q0-4 0-9t0-10q-5 0-9.5 0t-9.5 0zm0-38q-4 0-9 0t-10 0q0 5 0 10t0 9q0 3 0 6.5t0 6.5 0 6q5 0 10 0t9 0q5 0 9.5 0t9.5 0q0-3 0-6t0-6.5 0-6.5q0-4 0-9t0-10q-5 0-9.5 0t-9.5 0zm0-38q-4 0-9 0t-10 0q0 5 0 10t0 9q0 3 0 6.5t0 6.5 0 6q5 0 10 0t9 0q5 0 9.5 0t9.5 0q0-3 0-6t0-6.5 0-6.5q0-4 0-9t0-10q-5 0-9.5 0t-9.5 0zm0-38q-4 0-9 0t-10 0q0 5 0 10t0 9q0 3 0 6.5t0 6.5 0 6q5 0 10 0t9 0q5 0 9.5 0t9.5 0q0-3 0-6t0-6.5 0-6.5q0-4 0-9t0-10q-5 0-9.5 0t-9.5 0zm0-38q-4 0-9 0t-10 0q0 5 0 10t0 9q0 3 0 6.5t0 6.5 0 6q5 0 10 0t9 0q5 0 9.5 0t9.5 0q0-3 0-6t0-6.5 0-6.5q0-4 0-9t0-10q-5 0-9.5 0t-9.5 0zm0-38q-4 0-9 0t-10 0q0 5 0 10t0 9q0 3 0 6.5t0 6.5 0 6q5 0 10 0t9 0q5 0 9.5 0t9.5 0q0-3 0-6t0-6.5 0-6.5q0-4 0-9t0-10q-5 0-9.5 0t-9.5 0zm0-38q-4 0-9 0t-10 0q0 5 0 10t0 9q0 3 0 6.5t0 6.5 0 6q5 0 10 0t9 0q5 0 9.5 0t9.5 0q0-3 0-6t0-6.5 0-6.5q0-4 0-9t0-10q-5 0-9.5 0t-9.5 0zm38 38q-4 0-9 0t-10 0q0 5 0 10t0 9q0 3 0 6.5t0 6.5 0 6q5 0 10 0t9 0q5 0 9.5 0t9.5 0q0-3 0-6t0-6.5 0-6.5q0-4 0-9t0-10q-5 0-9.5 0t-9.5 0zm0-38q-4 0-9 0t-10 0q0 5 0 10t0 9q0 3 0 6.5t0 6.5 0 6q5 0 10 0t9 0q5 0 9.5 0t9.5 0q0-3 0-6t0-6.5 0-6.5q0-4 0-9t0-10q-5 0-9.5 0t-9.5 0zm38 494q-4 0-9 0t-10 0q0 5 0 10t0 9q0 3 0 6.5t0 6.5 0 6q5 0 10 0t9 0q5 0 9.5 0t9.5 0q0-3 0-6t0-6.5 0-6.5q0-4 0-9t0-10q-5 0-9.5 0t-9.5 0zm-38-38q-4 0-9 0t-10 0q0 5 0 10t0 9q0 3 0 6.5t0 6.5 0 6q5 0 10 0t9 0q5 0 9.5 0t9.5 0q0-3 0-6t0-6.5 0-6.5q0-4 0-9t0-10q-5 0-9.5 0t-9.5 0zm152 76q-4 0-9 0t-10 0q0 5 0 10t0 9q0 3 0 6.5t0 6.5 0 6q5 0 10 0t9 0q5 0 9.5 0t9.5 0q0-3 0-6t0-6.5 0-6.5q0-4 0-9t0-10q-5 0-9.5 0t-9.5 0zm-152-570q-4 0-9 0t-10 0q0 5 0 10t0 9q0 3 0 6.5t0 6.5 0 6q5 0 10 0t9 0q5 0 9.5 0t9.5 0q0-3 0-6t0-6.5 0-6.5q0-4 0-9t0-10q-5 0-9.5 0t-9.5 0zm38 0q-4 0-9 0t-10 0q0 5 0 10t0 9q0 3 0 6.5t0 6.5 0 6q5 0 10 0t9 0q5 0 9.5 0t9.5 0q0-3 0-6t0-6.5 0-6.5q0-4 0-9t0-10q-5 0-9.5 0t-9.5 0zm0-38q-4 0-9 0t-10 0q0 5 0 10t0 9q0 3 0 6.5t0 6.5 0 6q5 0 10 0t9 0q5 0 9.5 0t9.5 0q0-3 0-6t0-6.5 0-6.5q0-4 0-9t0-10q-5 0-9.5 0t-9.5 0zm-38 0q-4 0-9 0t-10 0q0 5 0 10t0 9q0 3 0 6.5t0 6.5 0 6q5 0 10 0t9 0q5 0 9.5 0t9.5 0q0-3 0-6t0-6.5 0-6.5q0-4 0-9t0-10q-5 0-9.5 0t-9.5 0zm38-38q-4 0-9 0t-10 0q0 5 0 10t0 9q0 3 0 6.5t0 6.5 0 6q5 0 10 0t9 0q5 0 9.5 0t9.5 0q0-3 0-6t0-6.5 0-6.5q0-4 0-9t0-10q-5 0-9.5 0t-9.5 0zm38 0q-4 0-9 0t-10 0q0 5 0 10t0 9q0 3 0 6.5t0 6.5 0 6q5 0 10 0t9 0q5 0 9.5 0t9.5 0q0-3 0-6t0-6.5 0-6.5q0-4 0-9t0-10q-5 0-9.5 0t-9.5 0zm0 38q-4 0-9 0t-10 0q0 5 0 10t0 9q0 3 0 6.5t0 6.5 0 6q5 0 10 0t9 0q5 0 9.5 0t9.5 0q0-3 0-6t0-6.5 0-6.5q0-4 0-9t0-10q-5 0-9.5 0t-9.5 0zm38-38q-4 0-9 0t-10 0q0 5 0 10t0 9q0 3 0 6.5t0 6.5 0 6q5 0 10 0t9 0q5 0 9.5 0t9.5 0q0-3 0-6t0-6.5 0-6.5q0-4 0-9t0-10q-5 0-9.5 0t-9.5 0zm0-38q-4 0-9 0t-10 0q0 5 0 10t0 9q0 3 0 6.5t0 6.5 0 6q5 0 10 0t9 0q5 0 9.5 0t9.5 0q0-3 0-6t0-6.5 0-6.5q0-4 0-9t0-10q-5 0-9.5 0t-9.5 0zm38 0q-4 0-9 0t-10 0q0 5 0 10t0 9q0 3 0 6.5t0 6.5 0 6q5 0 10 0t9 0q5 0 9.5 0t9.5 0q0-3 0-6t0-6.5 0-6.5q0-4 0-9t0-10q-5 0-9.5 0t-9.5 0zm0 38q-4 0-9 0t-10 0q0 5 0 10t0 9q0 3 0 6.5t0 6.5 0 6q5 0 10 0t9 0q5 0 9.5 0t9.5 0q0-3 0-6t0-6.5 0-6.5q0-4 0-9t0-10q-5 0-9.5 0t-9.5 0zm228 608q-4 0-9 0t-10 0q0 5 0 10t0 9q0 3 0 6.5t0 6.5 0 6q5 0 10 0t9 0q5 0 9.5 0t9.5 0q0-3 0-6t0-6.5 0-6.5q0-4 0-9t0-10q-5 0-9.5 0t-9.5 0zm-152 0q-4 0-9 0t-10 0q0 5 0 10t0 9q0 3 0 6.5t0 6.5 0 6q5 0 10 0t9 0q5 0 9.5 0t9.5 0q0-3 0-6t0-6.5 0-6.5q0-4 0-9t0-10q-5 0-9.5 0t-9.5 0zm38 0q-4 0-9 0t-10 0q0 5 0 10t0 9q0 3 0 6.5t0 6.5 0 6q5 0 10 0t9 0q5 0 9.5 0t9.5 0q0-3 0-6t0-6.5 0-6.5q0-4 0-9t0-10q-5 0-9.5 0t-9.5 0zm-38 38q-4 0-9 0t-10 0q0 5 0 10t0 9q0 3 0 6.5t0 6.5 0 6q5 0 10 0t9 0q5 0 9.5 0t9.5 0q0-3 0-6t0-6.5 0-6.5q0-4 0-9t0-10q-5 0-9.5 0t-9.5 0zm190-76q-4 0-9 0t-10 0q0 5 0 10t0 9q0 3 0 6.5t0 6.5 0 6q5 0 10 0t9 0q5 0 9.5 0t9.5 0q0-3 0-6t0-6.5 0-6.5q0-4 0-9t0-10q-5 0-9.5 0t-9.5 0zm0-38q-4 0-9 0t-10 0q0 5 0 10t0 9q0 3 0 6.5t0 6.5 0 6q5 0 10 0t9 0q5 0 9.5 0t9.5 0q0-3 0-6t0-6.5 0-6.5q0-4 0-9t0-10q-5 0-9.5 0t-9.5 0zm38-38q-4 0-9 0t-10 0q0 5 0 10t0 9q0 3 0 6.5t0 6.5 0 6q5 0 10 0t9 0q5 0 9.5 0t9.5 0q0-3 0-6t0-6.5 0-6.5q0-4 0-9t0-10q-5 0-9.5 0t-9.5 0zm0-38q-4 0-9 0t-10 0q0 5 0 10t0 9q0 3 0 6.5t0 6.5 0 6q5 0 10 0t9 0q5 0 9.5 0t9.5 0q0-3 0-6t0-6.5 0-6.5q0-4 0-9t0-10q-5 0-9.5 0t-9.5 0zm0-304q-4 0-9 0t-10 0q0 5 0 10t0 9q0 3 0 6.5t0 6.5 0 6q5 0 10 0t9 0q5 0 9.5 0t9.5 0q0-3 0-6t0-6.5 0-6.5q0-4 0-9t0-10q-5 0-9.5 0t-9.5 0zm0-38q-4 0-9 0t-10 0q0 5 0 10t0 9q0 3 0 6.5t0 6.5 0 6q5 0 10 0t9 0q5 0 9.5 0t9.5 0q0-3 0-6t0-6.5 0-6.5q0-4 0-9t0-10q-5 0-9.5 0t-9.5 0zm-114 494q-4 0-9 0t-10 0q0 5 0 10t0 9q0 3 0 6.5t0 6.5 0 6q5 0 10 0t9 0q5 0 9.5 0t9.5 0q0-3 0-6t0-6.5 0-6.5q0-4 0-9t0-10q-5 0-9.5 0t-9.5 0zm38-38q-4 0-9 0t-10 0q0 5 0 10t0 9q0 3 0 6.5t0 6.5 0 6q5 0 10 0t9 0q5 0 9.5 0t9.5 0q0-3 0-6t0-6.5 0-6.5q0-4 0-9t0-10q-5 0-9.5 0t-9.5 0zm-114 76q-4 0-9 0t-10 0q0 5 0 10t0 9q0 3 0 6.5t0 6.5 0 6q5 0 10 0t9 0q5 0 9.5 0t9.5 0q0-3 0-6t0-6.5 0-6.5q0-4 0-9t0-10q-5 0-9.5 0t-9.5 0zm76-646q-4 0-9 0t-10 0q0 5 0 10t0 9q0 3 0 6.5t0 6.5 0 6q5 0 10 0t9 0q5 0 9.5 0t9.5 0q0-3 0-6t0-6.5 0-6.5q0-4 0-9t0-10q-5 0-9.5 0t-9.5 0zm-114 0q-4 0-9 0t-10 0q0 5 0 10t0 9q0 3 0 6.5t0 6.5 0 6q5 0 10 0t9 0q5 0 9.5 0t9.5 0q0-3 0-6t0-6.5 0-6.5q0-4 0-9t0-10q-5 0-9.5 0t-9.5 0zm0-38q-4 0-9 0t-10 0q0 5 0 10t0 9q0 3 0 6.5t0 6.5 0 6q5 0 10 0t9 0q5 0 9.5 0t9.5 0q0-3 0-6t0-6.5 0-6.5q0-4 0-9t0-10q-5 0-9.5 0t-9.5 0zm38 0q-4 0-9 0t-10 0q0 5 0 10t0 9q0 3 0 6.5t0 6.5 0 6q5 0 10 0t9 0q5 0 9.5 0t9.5 0q0-3 0-6t0-6.5 0-6.5q0-4 0-9t0-10q-5 0-9.5 0t-9.5 0zm0 38q-4 0-9 0t-10 0q0 5 0 10t0 9q0 3 0 6.5t0 6.5 0 6q5 0 10 0t9 0q5 0 9.5 0t9.5 0q0-3 0-6t0-6.5 0-6.5q0-4 0-9t0-10q-5 0-9.5 0t-9.5 0zm-76 608q-4 0-9 0t-10 0q0 5 0 10t0 9q0 3 0 6.5t0 6.5 0 6q5 0 10 0t9 0q5 0 9.5 0t9.5 0q0-3 0-6t0-6.5 0-6.5q0-4 0-9t0-10q-5 0-9.5 0t-9.5 0zm0 38q-4 0-9 0t-10 0q0 5 0 10t0 9q0 3 0 6.5t0 6.5 0 6q5 0 10 0t9 0q5 0 9.5 0t9.5 0q0-3 0-6t0-6.5 0-6.5q0-4 0-9t0-10q-5 0-9.5 0t-9.5 0zm0-646q-4 0-9 0t-10 0q0 5 0 10t0 9q0 3 0 6.5t0 6.5 0 6q5 0 10 0t9 0q5 0 9.5 0t9.5 0q0-3 0-6t0-6.5 0-6.5q0-4 0-9t0-10q-5 0-9.5 0t-9.5 0zm0-38q-4 0-9 0t-10 0q0 5 0 10t0 9q0 3 0 6.5t0 6.5 0 6q5 0 10 0t9 0q5 0 9.5 0t9.5 0q0-3 0-6t0-6.5 0-6.5q0-4 0-9t0-10q-5 0-9.5 0t-9.5 0zm-266 456q-4 0-9 0t-10 0q0 5 0 10t0 9q0 3 0 6.5t0 6.5 0 6q5 0 10 0t9 0q5 0 9.5 0t9.5 0q0-3 0-6t0-6.5 0-6.5q0-4 0-9t0-10q-5 0-9.5 0t-9.5 0zm0-38q-4 0-9 0t-10 0q0 5 0 10t0 9q0 3 0 6.5t0 6.5 0 6q5 0 10 0t9 0q5 0 9.5 0t9.5 0q0-3 0-6t0-6.5 0-6.5q0-4 0-9t0-10q-5 0-9.5 0t-9.5 0zm0-38q-4 0-9 0t-10 0q0 5 0 10t0 9q0 3 0 6.5t0 6.5 0 6q5 0 10 0t9 0q5 0 9.5 0t9.5 0q0-3 0-6t0-6.5 0-6.5q0-4 0-9t0-10q-5 0-9.5 0t-9.5 0zm0-38q-4 0-9 0t-10 0q0 5 0 10t0 9q0 3 0 6.5t0 6.5 0 6q5 0 10 0t9 0q5 0 9.5 0t9.5 0q0-3 0-6t0-6.5 0-6.5q0-4 0-9t0-10q-5 0-9.5 0t-9.5 0zm0-38q-4 0-9 0t-10 0q0 5 0 10t0 9q0 3 0 6.5t0 6.5 0 6q5 0 10 0t9 0q5 0 9.5 0t9.5 0q0-3 0-6t0-6.5 0-6.5q0-4 0-9t0-10q-5 0-9.5 0t-9.5 0zm0-38q-4 0-9 0t-10 0q0 5 0 10t0 9q0 3 0 6.5t0 6.5 0 6q5 0 10 0t9 0q5 0 9.5 0t9.5 0q0-3 0-6t0-6.5 0-6.5q0-4 0-9t0-10q-5 0-9.5 0t-9.5 0zm0-38q-4 0-9 0t-10 0q0 5 0 10t0 9q0 3 0 6.5t0 6.5 0 6q5 0 10 0t9 0q5 0 9.5 0t9.5 0q0-3 0-6t0-6.5 0-6.5q0-4 0-9t0-10q-5 0-9.5 0t-9.5 0zm380 418q-4 0-9 0t-10 0q0 5 0 10t0 9q0 3 0 6.5t0 6.5 0 6q5 0 10 0t9 0q5 0 9.5 0t9.5 0q0-3 0-6t0-6.5 0-6.5q0-4 0-9t0-10q-5 0-9.5 0t-9.5 0zm0-608q-4 0-9 0t-10 0q0 5 0 10t0 9q0 3 0 6.5t0 6.5 0 6q5 0 10 0t9 0q5 0 9.5 0t9.5 0q0-3 0-6t0-6.5 0-6.5q0-4 0-9t0-10q-5 0-9.5 0t-9.5 0zm0-38q-4 0-9 0t-10 0q0 5 0 10t0 9q0 3 0 6.5t0 6.5 0 6q5 0 10 0t9 0q5 0 9.5 0t9.5 0q0-3 0-6t0-6.5 0-6.5q0-4 0-9t0-10q-5 0-9.5 0t-9.5 0zm0 684q-4 0-9 0t-10 0q0 5 0 10t0 9q0 3 0 6.5t0 6.5 0 6q5 0 10 0t9 0q5 0 9.5 0t9.5 0q0-3 0-6t0-6.5 0-6.5q0-4 0-9t0-10q-5 0-9.5 0t-9.5 0zm152-456q-4 0-9 0t-10 0q0 5 0 10t0 9q0 3 0 6.5t0 6.5 0 6q5 0 10 0t9 0q5 0 9.5 0t9.5 0q0-3 0-6t0-6.5 0-6.5q0-4 0-9t0-10q-5 0-9.5 0t-9.5 0zm0-114q-4 0-9 0t-10 0q0 5 0 10t0 9q0 3 0 6.5t0 6.5 0 6q5 0 10 0t9 0q5 0 9.5 0t9.5 0q0-3 0-6t0-6.5 0-6.5q0-4 0-9t0-10q-5 0-9.5 0t-9.5 0zm0-38q-4 0-9 0t-10 0q0 5 0 10t0 9q0 3 0 6.5t0 6.5 0 6q5 0 10 0t9 0q5 0 9.5 0t9.5 0q0-3 0-6t0-6.5 0-6.5q0-4 0-9t0-10q-5 0-9.5 0t-9.5 0zm0-38q-4 0-9 0t-10 0q0 5 0 10t0 9q0 3 0 6.5t0 6.5 0 6q5 0 10 0t9 0q5 0 9.5 0t9.5 0q0-3 0-6t0-6.5 0-6.5q0-4 0-9t0-10q-5 0-9.5 0t-9.5 0zm0-38q-4 0-9 0t-10 0q0 5 0 10t0 9q0 3 0 6.5t0 6.5 0 6q5 0 10 0t9 0q5 0 9.5 0t9.5 0q0-3 0-6t0-6.5 0-6.5q0-4 0-9t0-10q-5 0-9.5 0t-9.5 0zm38 0q-4 0-9 0t-10 0q0 5 0 10t0 9q0 3 0 6.5t0 6.5 0 6q5 0 10 0t9 0q5 0 9.5 0t9.5 0q0-3 0-6t0-6.5 0-6.5q0-4 0-9t0-10q-5 0-9.5 0t-9.5 0zm0 38q-4 0-9 0t-10 0q0 5 0 10t0 9q0 3 0 6.5t0 6.5 0 6q5 0 10 0t9 0q5 0 9.5 0t9.5 0q0-3 0-6t0-6.5 0-6.5q0-4 0-9t0-10q-5 0-9.5 0t-9.5 0zm0 38q-4 0-9 0t-10 0q0 5 0 10t0 9q0 3 0 6.5t0 6.5 0 6q5 0 10 0t9 0q5 0 9.5 0t9.5 0q0-3 0-6t0-6.5 0-6.5q0-4 0-9t0-10q-5 0-9.5 0t-9.5 0zm0 38q-4 0-9 0t-10 0q0 5 0 10t0 9q0 3 0 6.5t0 6.5 0 6q5 0 10 0t9 0q5 0 9.5 0t9.5 0q0-3 0-6t0-6.5 0-6.5q0-4 0-9t0-10q-5 0-9.5 0t-9.5 0zm0 38q-4 0-9 0t-10 0q0 5 0 10t0 9q0 3 0 6.5t0 6.5 0 6q5 0 10 0t9 0q5 0 9.5 0t9.5 0q0-3 0-6t0-6.5 0-6.5q0-4 0-9t0-10q-5 0-9.5 0t-9.5 0zm0 38q-4 0-9 0t-10 0q0 5 0 10t0 9q0 3 0 6.5t0 6.5 0 6q5 0 10 0t9 0q5 0 9.5 0t9.5 0q0-3 0-6t0-6.5 0-6.5q0-4 0-9t0-10q-5 0-9.5 0t-9.5 0zm0 38q-4 0-9 0t-10 0q0 5 0 10t0 9q0 3 0 6.5t0 6.5 0 6q5 0 10 0t9 0q5 0 9.5 0t9.5 0q0-3 0-6t0-6.5 0-6.5q0-4 0-9t0-10q-5 0-9.5 0t-9.5 0zm-38 38q-4 0-9 0t-10 0q0 5 0 10t0 9q0 3 0 6.5t0 6.5 0 6q5 0 10 0t9 0q5 0 9.5 0t9.5 0q0-3 0-6t0-6.5 0-6.5q0-4 0-9t0-10q-5 0-9.5 0t-9.5 0zm0 38q-4 0-9 0t-10 0q0 5 0 10t0 9q0 3 0 6.5t0 6.5 0 6q5 0 10 0t9 0q5 0 9.5 0t9.5 0q0-3 0-6t0-6.5 0-6.5q0-4 0-9t0-10q-5 0-9.5 0t-9.5 0zm38 0q-4 0-9 0t-10 0q0 5 0 10t0 9q0 3 0 6.5t0 6.5 0 6q5 0 10 0t9 0q5 0 9.5 0t9.5 0q0-3 0-6t0-6.5 0-6.5q0-4 0-9t0-10q-5 0-9.5 0t-9.5 0zm0-38q-4 0-9 0t-10 0q0 5 0 10t0 9q0 3 0 6.5t0 6.5 0 6q5 0 10 0t9 0q5 0 9.5 0t9.5 0q0-3 0-6t0-6.5 0-6.5q0-4 0-9t0-10q-5 0-9.5 0t-9.5 0zm-76 38q-4 0-9 0t-10 0q0 5 0 10t0 9q0 3 0 6.5t0 6.5 0 6q5 0 10 0t9 0q5 0 9.5 0t9.5 0q0-3 0-6t0-6.5 0-6.5q0-4 0-9t0-10q-5 0-9.5 0t-9.5 0zm-38 0q-4 0-9 0t-10 0q0 5 0 10t0 9q0 3 0 6.5t0 6.5 0 6q5 0 10 0t9 0q5 0 9.5 0t9.5 0q0-3 0-6t0-6.5 0-6.5q0-4 0-9t0-10q-5 0-9.5 0t-9.5 0zm-38 0q-4 0-9 0t-10 0q0 5 0 10t0 9q0 3 0 6.5t0 6.5 0 6q5 0 10 0t9 0q5 0 9.5 0t9.5 0q0-3 0-6t0-6.5 0-6.5q0-4 0-9t0-10q-5 0-9.5 0t-9.5 0zm-38 0q-4 0-9 0t-10 0q0 5 0 10t0 9q0 3 0 6.5t0 6.5 0 6q5 0 10 0t9 0q5 0 9.5 0t9.5 0q0-3 0-6t0-6.5 0-6.5q0-4 0-9t0-10q-5 0-9.5 0t-9.5 0zm-38 0q-4 0-9 0t-10 0q0 5 0 10t0 9q0 3 0 6.5t0 6.5 0 6q5 0 10 0t9 0q5 0 9.5 0t9.5 0q0-3 0-6t0-6.5 0-6.5q0-4 0-9t0-10q-5 0-9.5 0t-9.5 0zm-38 0q-4 0-9 0t-10 0q0 5 0 10t0 9q0 3 0 6.5t0 6.5 0 6q5 0 10 0t9 0q5 0 9.5 0t9.5 0q0-3 0-6t0-6.5 0-6.5q0-4 0-9t0-10q-5 0-9.5 0t-9.5 0zm0-38q-4 0-9 0t-10 0q0 5 0 10t0 9q0 3 0 6.5t0 6.5 0 6q5 0 10 0t9 0q5 0 9.5 0t9.5 0q0-3 0-6t0-6.5 0-6.5q0-4 0-9t0-10q-5 0-9.5 0t-9.5 0zm38 0q-4 0-9 0t-10 0q0 5 0 10t0 9q0 3 0 6.5t0 6.5 0 6q5 0 10 0t9 0q5 0 9.5 0t9.5 0q0-3 0-6t0-6.5 0-6.5q0-4 0-9t0-10q-5 0-9.5 0t-9.5 0zm38 0q-4 0-9 0t-10 0q0 5 0 10t0 9q0 3 0 6.5t0 6.5 0 6q5 0 10 0t9 0q5 0 9.5 0t9.5 0q0-3 0-6t0-6.5 0-6.5q0-4 0-9t0-10q-5 0-9.5 0t-9.5 0zm38 0q-4 0-9 0t-10 0q0 5 0 10t0 9q0 3 0 6.5t0 6.5 0 6q5 0 10 0t9 0q5 0 9.5 0t9.5 0q0-3 0-6t0-6.5 0-6.5q0-4 0-9t0-10q-5 0-9.5 0t-9.5 0zm38 0q-4 0-9 0t-10 0q0 5 0 10t0 9q0 3 0 6.5t0 6.5 0 6q5 0 10 0t9 0q5 0 9.5 0t9.5 0q0-3 0-6t0-6.5 0-6.5q0-4 0-9t0-10q-5 0-9.5 0t-9.5 0zm38 0q-4 0-9 0t-10 0q0 5 0 10t0 9q0 3 0 6.5t0 6.5 0 6q5 0 10 0t9 0q5 0 9.5 0t9.5 0q0-3 0-6t0-6.5 0-6.5q0-4 0-9t0-10q-5 0-9.5 0t-9.5 0zm38 304q-4 0-9 0t-10 0q0 5 0 10t0 9q0 3 0 6.5t0 6.5 0 6q5 0 10 0t9 0q5 0 9.5 0t9.5 0q0-3 0-6t0-6.5 0-6.5q0-4 0-9t0-10q-5 0-9.5 0t-9.5 0zm38-76q-4 0-9 0t-10 0q0 5 0 10t0 9q0 3 0 6.5t0 6.5 0 6q5 0 10 0t9 0q5 0 9.5 0t9.5 0q0-3 0-6t0-6.5 0-6.5q0-4 0-9t0-10q-5 0-9.5 0t-9.5 0zm0 38q-4 0-9 0t-10 0q0 5 0 10t0 9q0 3 0 6.5t0 6.5 0 6q5 0 10 0t9 0q5 0 9.5 0t9.5 0q0-3 0-6t0-6.5 0-6.5q0-4 0-9t0-10q-5 0-9.5 0t-9.5 0zm-152 152q-4 0-9 0t-10 0q0 5 0 10t0 9q0 3 0 6.5t0 6.5 0 6q5 0 10 0t9 0q5 0 9.5 0t9.5 0q0-3 0-6t0-6.5 0-6.5q0-4 0-9t0-10q-5 0-9.5 0t-9.5 0zm76-38q-4 0-9 0t-10 0q0 5 0 10t0 9q0 3 0 6.5t0 6.5 0 6q5 0 10 0t9 0q5 0 9.5 0t9.5 0q0-3 0-6t0-6.5 0-6.5q0-4 0-9t0-10q-5 0-9.5 0t-9.5 0zm38-38q-4 0-9 0t-10 0q0 5 0 10t0 9q0 3 0 6.5t0 6.5 0 6q5 0 10 0t9 0q5 0 9.5 0t9.5 0q0-3 0-6t0-6.5 0-6.5q0-4 0-9t0-10q-5 0-9.5 0t-9.5 0zm-76-570q-4 0-9 0t-10 0q0 5 0 10t0 9q0 3 0 6.5t0 6.5 0 6q5 0 10 0t9 0q5 0 9.5 0t9.5 0q0-3 0-6t0-6.5 0-6.5q0-4 0-9t0-10q-5 0-9.5 0t-9.5 0zm38 38q-4 0-9 0t-10 0q0 5 0 10t0 9q0 3 0 6.5t0 6.5 0 6q5 0 10 0t9 0q5 0 9.5 0t9.5 0q0-3 0-6t0-6.5 0-6.5q0-4 0-9t0-10q-5 0-9.5 0t-9.5 0zm-76-76q-4 0-9 0t-10 0q0 5 0 10t0 9q0 3 0 6.5t0 6.5 0 6q5 0 10 0t9 0q5 0 9.5 0t9.5 0q0-3 0-6t0-6.5 0-6.5q0-4 0-9t0-10q-5 0-9.5 0t-9.5 0z"/><path transform="translate(10.944 16.08) scale(.016 -.016)" d="m57 266q-4 0-9 0t-10 0q0 5 0 10t0 9q0 3 0 6.5t0 6.5 0 6q5 0 10 0t9 0q5 0 9.5 0t9.5 0q0-3 0-6t0-6.5 0-6.5q0-4 0-9t0-10q-5 0-9.5 0t-9.5 0zm0-38q-4 0-9 0t-10 0q0 5 0 10t0 9q0 3 0 6.5t0 6.5 0 6q5 0 10 0t9 0q5 0 9.5 0t9.5 0q0-3 0-6t0-6.5 0-6.5q0-4 0-9t0-10q-5 0-9.5 0t-9.5 0zm38 152q-4 0-9 0t-10 0q0 5 0 10t0 9q0 3 0 6.5t0 6.5 0 6q5 0 10 0t9 0q5 0 9.5 0t9.5 0q0-3 0-6t0-6.5 0-6.5q0-4 0-9t0-10q-5 0-9.5 0t-9.5 0zm-38-38q-4 0-9 0t-10 0q0 5 0 10t0 9q0 3 0 6.5t0 6.5 0 6q5 0 10 0t9 0q5 0 9.5 0t9.5 0q0-3 0-6t0-6.5 0-6.5q0-4 0-9t0-10q-5 0-9.5 0t-9.5 0zm38 0q-4 0-9 0t-10 0q0 5 0 10t0 9q0 3 0 6.5t0 6.5 0 6q5 0 10 0t9 0q5 0 9.5 0t9.5 0q0-3 0-6t0-6.5 0-6.5q0-4 0-9t0-10q-5 0-9.5 0t-9.5 0zm0-38q-4 0-9 0t-10 0q0 5 0 10t0 9q0 3 0 6.5t0 6.5 0 6q5 0 10 0t9 0q5 0 9.5 0t9.5 0q0-3 0-6t0-6.5 0-6.5q0-4 0-9t0-10q-5 0-9.5 0t-9.5 0zm-38 0q-4 0-9 0t-10 0q0 5 0 10t0 9q0 3 0 6.5t0 6.5 0 6q5 0 10 0t9 0q5 0 9.5 0t9.5 0q0-3 0-6t0-6.5 0-6.5q0-4 0-9t0-10q-5 0-9.5 0t-9.5 0zm0-152q-4 0-9 0t-10 0q0 5 0 10t0 9q0 3 0 6.5t0 6.5 0 6q5 0 10 0t9 0q5 0 9.5 0t9.5 0q0-3 0-6t0-6.5 0-6.5q0-4 0-9t0-10q-5 0-9.5 0t-9.5 0zm0 38q-4 0-9 0t-10 0q0 5 0 10t0 9q0 3 0 6.5t0 6.5 0 6q5 0 10 0t9 0q5 0 9.5 0t9.5 0q0-3 0-6t0-6.5 0-6.5q0-4 0-9t0-10q-5 0-9.5 0t-9.5 0zm38 76q-4 0-9 0t-10 0q0 5 0 10t0 9q0 3 0 6.5t0 6.5 0 6q5 0 10 0t9 0q5 0 9.5 0t9.5 0q0-3 0-6t0-6.5 0-6.5q0-4 0-9t0-10q-5 0-9.5 0t-9.5 0zm0-38q-4 0-9 0t-10 0q0 5 0 10t0 9q0 3 0 6.5t0 6.5 0 6q5 0 10 0t9 0q5 0 9.5 0t9.5 0q0-3 0-6t0-6.5 0-6.5q0-4 0-9t0-10q-5 0-9.5 0t-9.5 0zm0-38q-4 0-9 0t-10 0q0 5 0 10t0 9q0 3 0 6.5t0 6.5 0 6q5 0 10 0t9 0q5 0 9.5 0t9.5 0q0-3 0-6t0-6.5 0-6.5q0-4 0-9t0-10q-5 0-9.5 0t-9.5 0zm0-38q-4 0-9 0t-10 0q0 5 0 10t0 9q0 3 0 6.5t0 6.5 0 6q5 0 10 0t9 0q5 0 9.5 0t9.5 0q0-3 0-6t0-6.5 0-6.5q0-4 0-9t0-10q-5 0-9.5 0t-9.5 0zm0-38q-4 0-9 0t-10 0q0 5 0 10t0 9q0 3 0 6.5t0 6.5 0 6q5 0 10 0t9 0q5 0 9.5 0t9.5 0q0-3 0-6t0-6.5 0-6.5q0-4 0-9t0-10q-5 0-9.5 0t-9.5 0zm0-38q-4 0-9 0t-10 0q0 5 0 10t0 9q0 3 0 6.5t0 6.5 0 6q5 0 10 0t9 0q5 0 9.5 0t9.5 0q0-3 0-6t0-6.5 0-6.5q0-4 0-9t0-10q-5 0-9.5 0t-9.5 0zm38 0q-4 0-9 0t-10 0q0 5 0 10t0 9q0 3 0 6.5t0 6.5 0 6q5 0 10 0t9 0q5 0 9.5 0t9.5 0q0-3 0-6t0-6.5 0-6.5q0-4 0-9t0-10q-5 0-9.5 0t-9.5 0zm0 38q-4 0-9 0t-10 0q0 5 0 10t0 9q0 3 0 6.5t0 6.5 0 6q5 0 10 0t9 0q5 0 9.5 0t9.5 0q0-3 0-6t0-6.5 0-6.5q0-4 0-9t0-10q-5 0-9.5 0t-9.5 0zm0 304q-4 0-9 0t-10 0q0 5 0 10t0 9q0 3 0 6.5t0 6.5 0 6q5 0 10 0t9 0q5 0 9.5 0t9.5 0q0-3 0-6t0-6.5 0-6.5q0-4 0-9t0-10q-5 0-9.5 0t-9.5 0zm-38 0q-4 0-9 0t-10 0q0 5 0 10t0 9q0 3 0 6.5t0 6.5 0 6q5 0 10 0t9 0q5 0 9.5 0t9.5 0q0-3 0-6t0-6.5 0-6.5q0-4 0-9t0-10q-5 0-9.5 0t-9.5 0zm38 38q-4 0-9 0t-10 0q0 5 0 10t0 9q0 3 0 6.5t0 6.5 0 6q5 0 10 0t9 0q5 0 9.5 0t9.5 0q0-3 0-6t0-6.5 0-6.5q0-4 0-9t0-10q-5 0-9.5 0t-9.5 0zm38 38q-4 0-9 0t-10 0q0 5 0 10t0 9q0 3 0 6.5t0 6.5 0 6q5 0 10 0t9 0q5 0 9.5 0t9.5 0q0-3 0-6t0-6.5 0-6.5q0-4 0-9t0-10q-5 0-9.5 0t-9.5 0zm38 0q-4 0-9 0t-10 0q0 5 0 10t0 9q0 3 0 6.5t0 6.5 0 6q5 0 10 0t9 0q5 0 9.5 0t9.5 0q0-3 0-6t0-6.5 0-6.5q0-4 0-9t0-10q-5 0-9.5 0t-9.5 0zm38 0q-4 0-9 0t-10 0q0 5 0 10t0 9q0 3 0 6.5t0 6.5 0 6q5 0 10 0t9 0q5 0 9.5 0t9.5 0q0-3 0-6t0-6.5 0-6.5q0-4 0-9t0-10q-5 0-9.5 0t-9.5 0zm38 0q-4 0-9 0t-10 0q0 5 0 10t0 9q0 3 0 6.5t0 6.5 0 6q5 0 10 0t9 0q5 0 9.5 0t9.5 0q0-3 0-6t0-6.5 0-6.5q0-4 0-9t0-10q-5 0-9.5 0t-9.5 0zm-38-38q-4 0-9 0t-10 0q0 5 0 10t0 9q0 3 0 6.5t0 6.5 0 6q5 0 10 0t9 0q5 0 9.5 0t9.5 0q0-3 0-6t0-6.5 0-6.5q0-4 0-9t0-10q-5 0-9.5 0t-9.5 0zm-38 0q-4 0-9 0t-10 0q0 5 0 10t0 9q0 3 0 6.5t0 6.5 0 6q5 0 10 0t9 0q5 0 9.5 0t9.5 0q0-3 0-6t0-6.5 0-6.5q0-4 0-9t0-10q-5 0-9.5 0t-9.5 0zm76 0q-4 0-9 0t-10 0q0 5 0 10t0 9q0 3 0 6.5t0 6.5 0 6q5 0 10 0t9 0q5 0 9.5 0t9.5 0q0-3 0-6t0-6.5 0-6.5q0-4 0-9t0-10q-5 0-9.5 0t-9.5 0zm0-418q-4 0-9 0t-10 0q0 5 0 10t0 9q0 3 0 6.5t0 6.5 0 6q5 0 10 0t9 0q5 0 9.5 0t9.5 0q0-3 0-6t0-6.5 0-6.5q0-4 0-9t0-10q-5 0-9.5 0t-9.5 0zm0-38q-4 0-9 0t-10 0q0 5 0 10t0 9q0 3 0 6.5t0 6.5 0 6q5 0 10 0t9 0q5 0 9.5 0t9.5 0q0-3 0-6t0-6.5 0-6.5q0-4 0-9t0-10q-5 0-9.5 0t-9.5 0zm-38 0q-4 0-9 0t-10 0q0 5 0 10t0 9q0 3 0 6.5t0 6.5 0 6q5 0 10 0t9 0q5 0 9.5 0t9.5 0q0-3 0-6t0-6.5 0-6.5q0-4 0-9t0-10q-5 0-9.5 0t-9.5 0zm0 38q-4 0-9 0t-10 0q0 5 0 10t0 9q0 3 0 6.5t0 6.5 0 6q5 0 10 0t9 0q5 0 9.5 0t9.5 0q0-3 0-6t0-6.5 0-6.5q0-4 0-9t0-10q-5 0-9.5 0t-9.5 0zm-38 0q-4 0-9 0t-10 0q0 5 0 10t0 9q0 3 0 6.5t0 6.5 0 6q5 0 10 0t9 0q5 0 9.5 0t9.5 0q0-3 0-6t0-6.5 0-6.5q0-4 0-9t0-10q-5 0-9.5 0t-9.5 0zm0-38q-4 0-9 0t-10 0q0 5 0 10t0 9q0 3 0 6.5t0 6.5 0 6q5 0 10 0t9 0q5 0 9.5 0t9.5 0q0-3 0-6t0-6.5 0-6.5q0-4 0-9t0-10q-5 0-9.5 0t-9.5 0zm-38 0q-4 0-9 0t-10 0q0 5 0 10t0 9q0 3 0 6.5t0 6.5 0 6q5 0 10 0t9 0q5 0 9.5 0t9.5 0q0-3 0-6t0-6.5 0-6.5q0-4 0-9t0-10q-5 0-9.5 0t-9.5 0zm0 38q-4 0-9 0t-10 0q0 5 0 10t0 9q0 3 0 6.5t0 6.5 0 6q5 0 10 0t9 0q5 0 9.5 0t9.5 0q0-3 0-6t0-6.5 0-6.5q0-4 0-9t0-10q-5 0-9.5 0t-9.5 0zm266 38q-4 0-9 0t-10 0q0 5 0 10t0 9q0 3 0 6.5t0 6.5 0 6q5 0 10 0t9 0q5 0 9.5 0t9.5 0q0-3 0-6t0-6.5 0-6.5q0-4 0-9t0-10q-5 0-9.5 0t-9.5 0zm-76-38q-4 0-9 0t-10 0q0 5 0 10t0 9q0 3 0 6.5t0 6.5 0 6q5 0 10 0t9 0q5 0 9.5 0t9.5 0q0-3 0-6t0-6.5 0-6.5q0-4 0-9t0-10q-5 0-9.5 0t-9.5 0zm0-38q-4 0-9 0t-10 0q0 5 0 10t0 9q0 3 0 6.5t0 6.5 0 6q5 0 10 0t9 0q5 0 9.5 0t9.5 0q0-3 0-6t0-6.5 0-6.5q0-4 0-9t0-10q-5 0-9.5 0t-9.5 0zm-38 0q-4 0-9 0t-10 0q0 5 0 10t0 9q0 3 0 6.5t0 6.5 0 6q5 0 10 0t9 0q5 0 9.5 0t9.5 0q0-3 0-6t0-6.5 0-6.5q0-4 0-9t0-10q-5 0-9.5 0t-9.5 0zm0 38q-4 0-9 0t-10 0q0 5 0 10t0 9q0 3 0 6.5t0 6.5 0 6q5 0 10 0t9 0q5 0 9.5 0t9.5 0q0-3 0-6t0-6.5 0-6.5q0-4 0-9t0-10q-5 0-9.5 0t-9.5 0zm0 456q-4 0-9 0t-10 0q0 5 0 10t0 9q0 3 0 6.5t0 6.5 0 6q5 0 10 0t9 0q5 0 9.5 0t9.5 0q0-3 0-6t0-6.5 0-6.5q0-4 0-9t0-10q-5 0-9.5 0t-9.5 0zm0-38q-4 0-9 0t-10 0q0 5 0 10t0 9q0 3 0 6.5t0 6.5 0 6q5 0 10 0t9 0q5 0 9.5 0t9.5 0q0-3 0-6t0-6.5 0-6.5q0-4 0-9t0-10q-5 0-9.5 0t-9.5 0zm38 38q-4 0-9 0t-10 0q0 5 0 10t0 9q0 3 0 6.5t0 6.5 0 6q5 0 10 0t9 0q5 0 9.5 0t9.5 0q0-3 0-6t0-6.5 0-6.5q0-4 0-9t0-10q-5 0-9.5 0t-9.5 0zm0-38q-4 0-9 0t-10 0q0 5 0 10t0 9q0 3 0 6.5t0 6.5 0 6q5 0 10 0t9 0q5 0 9.5 0t9.5 0q0-3 0-6t0-6.5 0-6.5q0-4 0-9t0-10q-5 0-9.5 0t-9.5 0zm38 0q-4 0-9 0t-10 0q0 5 0 10t0 9q0 3 0 6.5t0 6.5 0 6q5 0 10 0t9 0q5 0 9.5 0t9.5 0q0-3 0-6t0-6.5 0-6.5q0-4 0-9t0-10q-5 0-9.5 0t-9.5 0zm0-38q-4 0-9 0t-10 0q0 5 0 10t0 9q0 3 0 6.5t0 6.5 0 6q5 0 10 0t9 0q5 0 9.5 0t9.5 0q0-3 0-6t0-6.5 0-6.5q0-4 0-9t0-10q-5 0-9.5 0t-9.5 0zm38 0q-4 0-9 0t-10 0q0 5 0 10t0 9q0 3 0 6.5t0 6.5 0 6q5 0 10 0t9 0q5 0 9.5 0t9.5 0q0-3 0-6t0-6.5 0-6.5q0-4 0-9t0-10q-5 0-9.5 0t-9.5 0zm0-38q-4 0-9 0t-10 0q0 5 0 10t0 9q0 3 0 6.5t0 6.5 0 6q5 0 10 0t9 0q5 0 9.5 0t9.5 0q0-3 0-6t0-6.5 0-6.5q0-4 0-9t0-10q-5 0-9.5 0t-9.5 0zm0-38q-4 0-9 0t-10 0q0 5 0 10t0 9q0 3 0 6.5t0 6.5 0 6q5 0 10 0t9 0q5 0 9.5 0t9.5 0q0-3 0-6t0-6.5 0-6.5q0-4 0-9t0-10q-5 0-9.5 0t-9.5 0zm0-38q-4 0-9 0t-10 0q0 5 0 10t0 9q0 3 0 6.5t0 6.5 0 6q5 0 10 0t9 0q5 0 9.5 0t9.5 0q0-3 0-6t0-6.5 0-6.5q0-4 0-9t0-10q-5 0-9.5 0t-9.5 0zm0-38q-4 0-9 0t-10 0q0 5 0 10t0 9q0 3 0 6.5t0 6.5 0 6q5 0 10 0t9 0q5 0 9.5 0t9.5 0q0-3 0-6t0-6.5 0-6.5q0-4 0-9t0-10q-5 0-9.5 0t-9.5 0zm0-38q-4 0-9 0t-10 0q0 5 0 10t0 9q0 3 0 6.5t0 6.5 0 6q5 0 10 0t9 0q5 0 9.5 0t9.5 0q0-3 0-6t0-6.5 0-6.5q0-4 0-9t0-10q-5 0-9.5 0t-9.5 0zm38 0q-4 0-9 0t-10 0q0 5 0 10t0 9q0 3 0 6.5t0 6.5 0 6q5 0 10 0t9 0q5 0 9.5 0t9.5 0q0-3 0-6t0-6.5 0-6.5q0-4 0-9t0-10q-5 0-9.5 0t-9.5 0zm0 38q-4 0-9 0t-10 0q0 5 0 10t0 9q0 3 0 6.5t0 6.5 0 6q5 0 10 0t9 0q5 0 9.5 0t9.5 0q0-3 0-6t0-6.5 0-6.5q0-4 0-9t0-10q-5 0-9.5 0t-9.5 0zm0 38q-4 0-9 0t-10 0q0 5 0 10t0 9q0 3 0 6.5t0 6.5 0 6q5 0 10 0t9 0q5 0 9.5 0t9.5 0q0-3 0-6t0-6.5 0-6.5q0-4 0-9t0-10q-5 0-9.5 0t-9.5 0zm0 38q-4 0-9 0t-10 0q0 5 0 10t0 9q0 3 0 6.5t0 6.5 0 6q5 0 10 0t9 0q5 0 9.5 0t9.5 0q0-3 0-6t0-6.5 0-6.5q0-4 0-9t0-10q-5 0-9.5 0t-9.5 0zm-342-76q-4 0-9 0t-10 0q0 5 0 10t0 9q0 3 0 6.5t0 6.5 0 6q5 0 10 0t9 0q5 0 9.5 0t9.5 0q0-3 0-6t0-6.5 0-6.5q0-4 0-9t0-10q-5 0-9.5 0t-9.5 0zm38 0q-4 0-9 0t-10 0q0 5 0 10t0 9q0 3 0 6.5t0 6.5 0 6q5 0 10 0t9 0q5 0 9.5 0t9.5 0q0-3 0-6t0-6.5 0-6.5q0-4 0-9t0-10q-5 0-9.5 0t-9.5 0zm38 0q-4 0-9 0t-10 0q0 5 0 10t0 9q0 3 0 6.5t0 6.5 0 6q5 0 10 0t9 0q5 0 9.5 0t9.5 0q0-3 0-6t0-6.5 0-6.5q0-4 0-9t0-10q-5 0-9.5 0t-9.5 0zm38 0q-4 0-9 0t-10 0q0 5 0 10t0 9q0 3 0 6.5t0 6.5 0 6q5 0 10 0t9 0q5 0 9.5 0t9.5 0q0-3 0-6t0-6.5 0-6.5q0-4 0-9t0-10q-5 0-9.5 0t-9.5 0zm38 0q-4 0-9 0t-10 0q0 5 0 10t0 9q0 3 0 6.5t0 6.5 0 6q5 0 10 0t9 0q5 0 9.5 0t9.5 0q0-3 0-6t0-6.5 0-6.5q0-4 0-9t0-10q-5 0-9.5 0t-9.5 0zm38 0q-4 0-9 0t-10 0q0 5 0 10t0 9q0 3 0 6.5t0 6.5 0 6q5 0 10 0t9 0q5 0 9.5 0t9.5 0q0-3 0-6t0-6.5 0-6.5q0-4 0-9t0-10q-5 0-9.5 0t-9.5 0zm38 0q-4 0-9 0t-10 0q0 5 0 10t0 9q0 3 0 6.5t0 6.5 0 6q5 0 10 0t9 0q5 0 9.5 0t9.5 0q0-3 0-6t0-6.5 0-6.5q0-4 0-9t0-10q-5 0-9.5 0t-9.5 0zm38 0q-4 0-9 0t-10 0q0 5 0 10t0 9q0 3 0 6.5t0 6.5 0 6q5 0 10 0t9 0q5 0 9.5 0t9.5 0q0-3 0-6t0-6.5 0-6.5q0-4 0-9t0-10q-5 0-9.5 0t-9.5 0zm-266-38q-4 0-9 0t-10 0q0 5 0 10t0 9q0 3 0 6.5t0 6.5 0 6q5 0 10 0t9 0q5 0 9.5 0t9.5 0q0-3 0-6t0-6.5 0-6.5q0-4 0-9t0-10q-5 0-9.5 0t-9.5 0zm38 0q-4 0-9 0t-10 0q0 5 0 10t0 9q0 3 0 6.5t0 6.5 0 6q5 0 10 0t9 0q5 0 9.5 0t9.5 0q0-3 0-6t0-6.5 0-6.5q0-4 0-9t0-10q-5 0-9.5 0t-9.5 0zm38 0q-4 0-9 0t-10 0q0 5 0 10t0 9q0 3 0 6.5t0 6.5 0 6q5 0 10 0t9 0q5 0 9.5 0t9.5 0q0-3 0-6t0-6.5 0-6.5q0-4 0-9t0-10q-5 0-9.5 0t-9.5 0zm38 0q-4 0-9 0t-10 0q0 5 0 10t0 9q0 3 0 6.5t0 6.5 0 6q5 0 10 0t9 0q5 0 9.5 0t9.5 0q0-3 0-6t0-6.5 0-6.5q0-4 0-9t0-10q-5 0-9.5 0t-9.5 0zm38 0q-4 0-9 0t-10 0q0 5 0 10t0 9q0 3 0 6.5t0 6.5 0 6q5 0 10 0t9 0q5 0 9.5 0t9.5 0q0-3 0-6t0-6.5 0-6.5q0-4 0-9t0-10q-5 0-9.5 0t-9.5 0zm38 0q-4 0-9 0t-10 0q0 5 0 10t0 9q0 3 0 6.5t0 6.5 0 6q5 0 10 0t9 0q5 0 9.5 0t9.5 0q0-3 0-6t0-6.5 0-6.5q0-4 0-9t0-10q-5 0-9.5 0t-9.5 0zm38 0q-4 0-9 0t-10 0q0 5 0 10t0 9q0 3 0 6.5t0 6.5 0 6q5 0 10 0t9 0q5 0 9.5 0t9.5 0q0-3 0-6t0-6.5 0-6.5q0-4 0-9t0-10q-5 0-9.5 0t-9.5 0zm38 0q-4 0-9 0t-10 0q0 5 0 10t0 9q0 3 0 6.5t0 6.5 0 6q5 0 10 0t9 0q5 0 9.5 0t9.5 0q0-3 0-6t0-6.5 0-6.5q0-4 0-9t0-10q-5 0-9.5 0t-9.5 0zm-266-190q-4 0-9 0t-10 0q0 5 0 10t0 9q0 3 0 6.5t0 6.5 0 6q5 0 10 0t9 0q5 0 9.5 0t9.5 0q0-3 0-6t0-6.5 0-6.5q0-4 0-9t0-10q-5 0-9.5 0t-9.5 0zm266 38q-4 0-9 0t-10 0q0 5 0 10t0 9q0 3 0 6.5t0 6.5 0 6q5 0 10 0t9 0q5 0 9.5 0t9.5 0q0-3 0-6t0-6.5 0-6.5q0-4 0-9t0-10q-5 0-9.5 0t-9.5 0zm-266 304q-4 0-9 0t-10 0q0 5 0 10t0 9q0 3 0 6.5t0 6.5 0 6q5 0 10 0t9 0q5 0 9.5 0t9.5 0q0-3 0-6t0-6.5 0-6.5q0-4 0-9t0-10q-5 0-9.5 0t-9.5 0zm266-342q-4 0-9 0t-10 0q0 5 0 10t0 9q0 3 0 6.5t0 6.5 0 6q5 0 10 0t9 0q5 0 9.5 0t9.5 0q0-3 0-6t0-6.5 0-6.5q0-4 0-9t0-10q-5 0-9.5 0t-9.5 0zm0 342q-4 0-9 0t-10 0q0 5 0 10t0 9q0 3 0 6.5t0 6.5 0 6q5 0 10 0t9 0q5 0 9.5 0t9.5 0q0-3 0-6t0-6.5 0-6.5q0-4 0-9t0-10q-5 0-9.5 0t-9.5 0zm76-266q-4 0-9 0t-10 0q0 5 0 10t0 9q0 3 0 6.5t0 6.5 0 6q5 0 10 0t9 0q5 0 9.5 0t9.5 0q0-3 0-6t0-6.5 0-6.5q0-4 0-9t0-10q-5 0-9.5 0t-9.5 0zm0-38q-4 0-9 0t-10 0q0 5 0 10t0 9q0 3 0 6.5t0 6.5 0 6q5 0 10 0t9 0q5 0 9.5 0t9.5 0q0-3 0-6t0-6.5 0-6.5q0-4 0-9t0-10q-5 0-9.5 0t-9.5 0zm-38-38q-4 0-9 0t-10 0q0 5 0 10t0 9q0 3 0 6.5t0 6.5 0 6q5 0 10 0t9 0q5 0 9.5 0t9.5 0q0-3 0-6t0-6.5 0-6.5q0-4 0-9t0-10q-5 0-9.5 0t-9.5 0zm0 76q-4 0-9 0t-10 0q0 5 0 10t0 9q0 3 0 6.5t0 6.5 0 6q5 0 10 0t9 0q5 0 9.5 0t9.5 0q0-3 0-6t0-6.5 0-6.5q0-4 0-9t0-10q-5 0-9.5 0t-9.5 0zm-266 342q-4 0-9 0t-10 0q0 5 0 10t0 9q0 3 0 6.5t0 6.5 0 6q5 0 10 0t9 0q5 0 9.5 0t9.5 0q0-3 0-6t0-6.5 0-6.5q0-4 0-9t0-10q-5 0-9.5 0t-9.5 0zm0-38q-4 0-9 0t-10 0q0 5 0 10t0 9q0 3 0 6.5t0 6.5 0 6q5 0 10 0t9 0q5 0 9.5 0t9.5 0q0-3 0-6t0-6.5 0-6.5q0-4 0-9t0-10q-5 0-9.5 0t-9.5 0zm190 0q-4 0-9 0t-10 0q0 5 0 10t0 9q0 3 0 6.5t0 6.5 0 6q5 0 10 0t9 0q5 0 9.5 0t9.5 0q0-3 0-6t0-6.5 0-6.5q0-4 0-9t0-10q-5 0-9.5 0t-9.5 0zm-190-342q-4 0-9 0t-10 0q0 5 0 10t0 9q0 3 0 6.5t0 6.5 0 6q5 0 10 0t9 0q5 0 9.5 0t9.5 0q0-3 0-6t0-6.5 0-6.5q0-4 0-9t0-10q-5 0-9.5 0t-9.5 0z"/><path transform="translate(19.456 16.08) scale(.016 -.016)" d="m57 38q-4 0-9 0t-10 0q0 5 0 10t0 9q0 3 0 6.5t0 6.5 0 6q5 0 10 0t9 0q5 0 9.5 0t9.5 0q0-3 0-6t0-6.5 0-6.5q0-4 0-9t0-10q-5 0-9.5 0t-9.5 0zm0-38q-4 0-9 0t-10 0q0 5 0 10t0 9q0 3 0 6.5t0 6.5 0 6q5 0 10 0t9 0q5 0 9.5 0t9.5 0q0-3 0-6t0-6.5 0-6.5q0-4 0-9t0-10q-5 0-9.5 0t-9.5 0zm38 0q-4 0-9 0t-10 0q0 5 0 10t0 9q0 3 0 6.5t0 6.5 0 6q5 0 10 0t9 0q5 0 9.5 0t9.5 0q0-3 0-6t0-6.5 0-6.5q0-4 0-9t0-10q-5 0-9.5 0t-9.5 0zm0 38q-4 0-9 0t-10 0q0 5 0 10t0 9q0 3 0 6.5t0 6.5 0 6q5 0 10 0t9 0q5 0 9.5 0t9.5 0q0-3 0-6t0-6.5 0-6.5q0-4 0-9t0-10q-5 0-9.5 0t-9.5 0zm38 0q-4 0-9 0t-10 0q0 5 0 10t0 9q0 3 0 6.5t0 6.5 0 6q5 0 10 0t9 0q5 0 9.5 0t9.5 0q0-3 0-6t0-6.5 0-6.5q0-4 0-9t0-10q-5 0-9.5 0t-9.5 0zm0-38q-4 0-9 0t-10 0q0 5 0 10t0 9q0 3 0 6.5t0 6.5 0 6q5 0 10 0t9 0q5 0 9.5 0t9.5 0q0-3 0-6t0-6.5 0-6.5q0-4 0-9t0-10q-5 0-9.5 0t-9.5 0zm38 0q-4 0-9 0t-10 0q0 5 0 10t0 9q0 3 0 6.5t0 6.5 0 6q5 0 10 0t9 0q5 0 9.5 0t9.5 0q0-3 0-6t0-6.5 0-6.5q0-4 0-9t0-10q-5 0-9.5 0t-9.5 0zm38 0q-4 0-9 0t-10 0q0 5 0 10t0 9q0 3 0 6.5t0 6.5 0 6q5 0 10 0t9 0q5 0 9.5 0t9.5 0q0-3 0-6t0-6.5 0-6.5q0-4 0-9t0-10q-5 0-9.5 0t-9.5 0zm0 38q-4 0-9 0t-10 0q0 5 0 10t0 9q0 3 0 6.5t0 6.5 0 6q5 0 10 0t9 0q5 0 9.5 0t9.5 0q0-3 0-6t0-6.5 0-6.5q0-4 0-9t0-10q-5 0-9.5 0t-9.5 0zm-38 0q-4 0-9 0t-10 0q0 5 0 10t0 9q0 3 0 6.5t0 6.5 0 6q5 0 10 0t9 0q5 0 9.5 0t9.5 0q0-3 0-6t0-6.5 0-6.5q0-4 0-9t0-10q-5 0-9.5 0t-9.5 0zm76 0q-4 0-9 0t-10 0q0 5 0 10t0 9q0 3 0 6.5t0 6.5 0 6q5 0 10 0t9 0q5 0 9.5 0t9.5 0q0-3 0-6t0-6.5 0-6.5q0-4 0-9t0-10q-5 0-9.5 0t-9.5 0zm38 0q-4 0-9 0t-10 0q0 5 0 10t0 9q0 3 0 6.5t0 6.5 0 6q5 0 10 0t9 0q5 0 9.5 0t9.5 0q0-3 0-6t0-6.5 0-6.5q0-4 0-9t0-10q-5 0-9.5 0t-9.5 0zm0-38q-4 0-9 0t-10 0q0 5 0 10t0 9q0 3 0 6.5t0 6.5 0 6q5 0 10 0t9 0q5 0 9.5 0t9.5 0q0-3 0-6t0-6.5 0-6.5q0-4 0-9t0-10q-5 0-9.5 0t-9.5 0zm-38 0q-4 0-9 0t-10 0q0 5 0 10t0 9q0 3 0 6.5t0 6.5 0 6q5 0 10 0t9 0q5 0 9.5 0t9.5 0q0-3 0-6t0-6.5 0-6.5q0-4 0-9t0-10q-5 0-9.5 0t-9.5 0zm-76 76q-4 0-9 0t-10 0q0 5 0 10t0 9q0 3 0 6.5t0 6.5 0 6q5 0 10 0t9 0q5 0 9.5 0t9.5 0q0-3 0-6t0-6.5 0-6.5q0-4 0-9t0-10q-5 0-9.5 0t-9.5 0zm38 0q-4 0-9 0t-10 0q0 5 0 10t0 9q0 3 0 6.5t0 6.5 0 6q5 0 10 0t9 0q5 0 9.5 0t9.5 0q0-3 0-6t0-6.5 0-6.5q0-4 0-9t0-10q-5 0-9.5 0t-9.5 0zm0 38q-4 0-9 0t-10 0q0 5 0 10t0 9q0 3 0 6.5t0 6.5 0 6q5 0 10 0t9 0q5 0 9.5 0t9.5 0q0-3 0-6t0-6.5 0-6.5q0-4 0-9t0-10q-5 0-9.5 0t-9.5 0zm-38 0q-4 0-9 0t-10 0q0 5 0 10t0 9q0 3 0 6.5t0 6.5 0 6q5 0 10 0t9 0q5 0 9.5 0t9.5 0q0-3 0-6t0-6.5 0-6.5q0-4 0-9t0-10q-5 0-9.5 0t-9.5 0zm0 38q-4 0-9 0t-10 0q0 5 0 10t0 9q0 3 0 6.5t0 6.5 0 6q5 0 10 0t9 0q5 0 9.5 0t9.5 0q0-3 0-6t0-6.5 0-6.5q0-4 0-9t0-10q-5 0-9.5 0t-9.5 0zm38 0q-4 0-9 0t-10 0q0 5 0 10t0 9q0 3 0 6.5t0 6.5 0 6q5 0 10 0t9 0q5 0 9.5 0t9.5 0q0-3 0-6t0-6.5 0-6.5q0-4 0-9t0-10q-5 0-9.5 0t-9.5 0zm0 38q-4 0-9 0t-10 0q0 5 0 10t0 9q0 3 0 6.5t0 6.5 0 6q5 0 10 0t9 0q5 0 9.5 0t9.5 0q0-3 0-6t0-6.5 0-6.5q0-4 0-9t0-10q-5 0-9.5 0t-9.5 0zm0 38q-4 0-9 0t-10 0q0 5 0 10t0 9q0 3 0 6.5t0 6.5 0 6q5 0 10 0t9 0q5 0 9.5 0t9.5 0q0-3 0-6t0-6.5 0-6.5q0-4 0-9t0-10q-5 0-9.5 0t-9.5 0zm-38-38q-4 0-9 0t-10 0q0 5 0 10t0 9q0 3 0 6.5t0 6.5 0 6q5 0 10 0t9 0q5 0 9.5 0t9.5 0q0-3 0-6t0-6.5 0-6.5q0-4 0-9t0-10q-5 0-9.5 0t-9.5 0zm0 38q-4 0-9 0t-10 0q0 5 0 10t0 9q0 3 0 6.5t0 6.5 0 6q5 0 10 0t9 0q5 0 9.5 0t9.5 0q0-3 0-6t0-6.5 0-6.5q0-4 0-9t0-10q-5 0-9.5 0t-9.5 0zm0 38q-4 0-9 0t-10 0q0 5 0 10t0 9q0 3 0 6.5t0 6.5 0 6q5 0 10 0t9 0q5 0 9.5 0t9.5 0q0-3 0-6t0-6.5 0-6.5q0-4 0-9t0-10q-5 0-9.5 0t-9.5 0zm0 38q-4 0-9 0t-10 0q0 5 0 10t0 9q0 3 0 6.5t0 6.5 0 6q5 0 10 0t9 0q5 0 9.5 0t9.5 0q0-3 0-6t0-6.5 0-6.5q0-4 0-9t0-10q-5 0-9.5 0t-9.5 0zm0 38q-4 0-9 0t-10 0q0 5 0 10t0 9q0 3 0 6.5t0 6.5 0 6q5 0 10 0t9 0q5 0 9.5 0t9.5 0q0-3 0-6t0-6.5 0-6.5q0-4 0-9t0-10q-5 0-9.5 0t-9.5 0zm0 38q-4 0-9 0t-10 0q0 5 0 10t0 9q0 3 0 6.5t0 6.5 0 6q5 0 10 0t9 0q5 0 9.5 0t9.5 0q0-3 0-6t0-6.5 0-6.5q0-4 0-9t0-10q-5 0-9.5 0t-9.5 0zm0 38q-4 0-9 0t-10 0q0 5 0 10t0 9q0 3 0 6.5t0 6.5 0 6q5 0 10 0t9 0q5 0 9.5 0t9.5 0q0-3 0-6t0-6.5 0-6.5q0-4 0-9t0-10q-5 0-9.5 0t-9.5 0zm0 38q-4 0-9 0t-10 0q0 5 0 10t0 9q0 3 0 6.5t0 6.5 0 6q5 0 10 0t9 0q5 0 9.5 0t9.5 0q0-3 0-6t0-6.5 0-6.5q0-4 0-9t0-10q-5 0-9.5 0t-9.5 0zm0 38q-4 0-9 0t-10 0q0 5 0 10t0 9q0 3 0 6.5t0 6.5 0 6q5 0 10 0t9 0q5 0 9.5 0t9.5 0q0-3 0-6t0-6.5 0-6.5q0-4 0-9t0-10q-5 0-9.5 0t-9.5 0zm38 0q-4 0-9 0t-10 0q0 5 0 10t0 9q0 3 0 6.5t0 6.5 0 6q5 0 10 0t9 0q5 0 9.5 0t9.5 0q0-3 0-6t0-6.5 0-6.5q0-4 0-9t0-10q-5 0-9.5 0t-9.5 0zm0-38q-4 0-9 0t-10 0q0 5 0 10t0 9q0 3 0 6.5t0 6.5 0 6q5 0 10 0t9 0q5 0 9.5 0t9.5 0q0-3 0-6t0-6.5 0-6.5q0-4 0-9t0-10q-5 0-9.5 0t-9.5 0zm0-38q-4 0-9 0t-10 0q0 5 0 10t0 9q0 3 0 6.5t0 6.5 0 6q5 0 10 0t9 0q5 0 9.5 0t9.5 0q0-3 0-6t0-6.5 0-6.5q0-4 0-9t0-10q-5 0-9.5 0t-9.5 0zm0-38q-4 0-9 0t-10 0q0 5 0 10t0 9q0 3 0 6.5t0 6.5 0 6q5 0 10 0t9 0q5 0 9.5 0t9.5 0q0-3 0-6t0-6.5 0-6.5q0-4 0-9t0-10q-5 0-9.5 0t-9.5 0zm0-38q-4 0-9 0t-10 0q0 5 0 10t0 9q0 3 0 6.5t0 6.5 0 6q5 0 10 0t9 0q5 0 9.5 0t9.5 0q0-3 0-6t0-6.5 0-6.5q0-4 0-9t0-10q-5 0-9.5 0t-9.5 0zm0-38q-4 0-9 0t-10 0q0 5 0 10t0 9q0 3 0 6.5t0 6.5 0 6q5 0 10 0t9 0q5 0 9.5 0t9.5 0q0-3 0-6t0-6.5 0-6.5q0-4 0-9t0-10q-5 0-9.5 0t-9.5 0zm0-38q-4 0-9 0t-10 0q0 5 0 10t0 9q0 3 0 6.5t0 6.5 0 6q5 0 10 0t9 0q5 0 9.5 0t9.5 0q0-3 0-6t0-6.5 0-6.5q0-4 0-9t0-10q-5 0-9.5 0t-9.5 0zm-76 228q-4 0-9 0t-10 0q0 5 0 10t0 9q0 3 0 6.5t0 6.5 0 6q5 0 10 0t9 0q5 0 9.5 0t9.5 0q0-3 0-6t0-6.5 0-6.5q0-4 0-9t0-10q-5 0-9.5 0t-9.5 0zm0-38q-4 0-9 0t-10 0q0 5 0 10t0 9q0 3 0 6.5t0 6.5 0 6q5 0 10 0t9 0q5 0 9.5 0t9.5 0q0-3 0-6t0-6.5 0-6.5q0-4 0-9t0-10q-5 0-9.5 0t-9.5 0zm-38 38q-4 0-9 0t-10 0q0 5 0 10t0 9q0 3 0 6.5t0 6.5 0 6q5 0 10 0t9 0q5 0 9.5 0t9.5 0q0-3 0-6t0-6.5 0-6.5q0-4 0-9t0-10q-5 0-9.5 0t-9.5 0zm0-38q-4 0-9 0t-10 0q0 5 0 10t0 9q0 3 0 6.5t0 6.5 0 6q5 0 10 0t9 0q5 0 9.5 0t9.5 0q0-3 0-6t0-6.5 0-6.5q0-4 0-9t0-10q-5 0-9.5 0t-9.5 0zm-38 38q-4 0-9 0t-10 0q0 5 0 10t0 9q0 3 0 6.5t0 6.5 0 6q5 0 10 0t9 0q5 0 9.5 0t9.5 0q0-3 0-6t0-6.5 0-6.5q0-4 0-9t0-10q-5 0-9.5 0t-9.5 0zm0-38q-4 0-9 0t-10 0q0 5 0 10t0 9q0 3 0 6.5t0 6.5 0 6q5 0 10 0t9 0q5 0 9.5 0t9.5 0q0-3 0-6t0-6.5 0-6.5q0-4 0-9t0-10q-5 0-9.5 0t-9.5 0zm266-418q-4 0-9 0t-10 0q0 5 0 10t0 9q0 3 0 6.5t0 6.5 0 6q5 0 10 0t9 0q5 0 9.5 0t9.5 0q0-3 0-6t0-6.5 0-6.5q0-4 0-9t0-10q-5 0-9.5 0t-9.5 0zm0-38q-4 0-9 0t-10 0q0 5 0 10t0 9q0 3 0 6.5t0 6.5 0 6q5 0 10 0t9 0q5 0 9.5 0t9.5 0q0-3 0-6t0-6.5 0-6.5q0-4 0-9t0-10q-5 0-9.5 0t-9.5 0zm-114 684q-4 0-9 0t-10 0q0 5 0 10t0 9q0 3 0 6.5t0 6.5 0 6q5 0 10 0t9 0q5 0 9.5 0t9.5 0q0-3 0-6t0-6.5 0-6.5q0-4 0-9t0-10q-5 0-9.5 0t-9.5 0zm-38 0q-4 0-9 0t-10 0q0 5 0 10t0 9q0 3 0 6.5t0 6.5 0 6q5 0 10 0t9 0q5 0 9.5 0t9.5 0q0-3 0-6t0-6.5 0-6.5q0-4 0-9t0-10q-5 0-9.5 0t-9.5 0zm0-38q-4 0-9 0t-10 0q0 5 0 10t0 9q0 3 0 6.5t0 6.5 0 6q5 0 10 0t9 0q5 0 9.5 0t9.5 0q0-3 0-6t0-6.5 0-6.5q0-4 0-9t0-10q-5 0-9.5 0t-9.5 0zm38 0q-4 0-9 0t-10 0q0 5 0 10t0 9q0 3 0 6.5t0 6.5 0 6q5 0 10 0t9 0q5 0 9.5 0t9.5 0q0-3 0-6t0-6.5 0-6.5q0-4 0-9t0-10q-5 0-9.5 0t-9.5 0zm-38-38q-4 0-9 0t-10 0q0 5 0 10t0 9q0 3 0 6.5t0 6.5 0 6q5 0 10 0t9 0q5 0 9.5 0t9.5 0q0-3 0-6t0-6.5 0-6.5q0-4 0-9t0-10q-5 0-9.5 0t-9.5 0zm38 0q-4 0-9 0t-10 0q0 5 0 10t0 9q0 3 0 6.5t0 6.5 0 6q5 0 10 0t9 0q5 0 9.5 0t9.5 0q0-3 0-6t0-6.5 0-6.5q0-4 0-9t0-10q-5 0-9.5 0t-9.5 0z"/><path transform="translate(25.536 16.08) scale(.016 -.016)" d="m171 0q-4 0-9 0t-10 0q0 5 0 10t0 9q0 3 0 6.5t0 6.5 0 6q5 0 10 0t9 0q5 0 9.5 0t9.5 0q0-3 0-6t0-6.5 0-6.5q0-4 0-9t0-10q-5 0-9.5 0t-9.5 0zm38 0q-4 0-9 0t-10 0q0 5 0 10t0 9q0 3 0 6.5t0 6.5 0 6q5 0 10 0t9 0q5 0 9.5 0t9.5 0q0-3 0-6t0-6.5 0-6.5q0-4 0-9t0-10q-5 0-9.5 0t-9.5 0zm38 0q-4 0-9 0t-10 0q0 5 0 10t0 9q0 3 0 6.5t0 6.5 0 6q5 0 10 0t9 0q5 0 9.5 0t9.5 0q0-3 0-6t0-6.5 0-6.5q0-4 0-9t0-10q-5 0-9.5 0t-9.5 0zm38 0q-4 0-9 0t-10 0q0 5 0 10t0 9q0 3 0 6.5t0 6.5 0 6q5 0 10 0t9 0q5 0 9.5 0t9.5 0q0-3 0-6t0-6.5 0-6.5q0-4 0-9t0-10q-5 0-9.5 0t-9.5 0zm38 0q-4 0-9 0t-10 0q0 5 0 10t0 9q0 3 0 6.5t0 6.5 0 6q5 0 10 0t9 0q5 0 9.5 0t9.5 0q0-3 0-6t0-6.5 0-6.5q0-4 0-9t0-10q-5 0-9.5 0t-9.5 0zm38 0q-4 0-9 0t-10 0q0 5 0 10t0 9q0 3 0 6.5t0 6.5 0 6q5 0 10 0t9 0q5 0 9.5 0t9.5 0q0-3 0-6t0-6.5 0-6.5q0-4 0-9t0-10q-5 0-9.5 0t-9.5 0zm-228 38q-4 0-9 0t-10 0q0 5 0 10t0 9q0 3 0 6.5t0 6.5 0 6q5 0 10 0t9 0q5 0 9.5 0t9.5 0q0-3 0-6t0-6.5 0-6.5q0-4 0-9t0-10q-5 0-9.5 0t-9.5 0zm38 0q-4 0-9 0t-10 0q0 5 0 10t0 9q0 3 0 6.5t0 6.5 0 6q5 0 10 0t9 0q5 0 9.5 0t9.5 0q0-3 0-6t0-6.5 0-6.5q0-4 0-9t0-10q-5 0-9.5 0t-9.5 0zm38 0q-4 0-9 0t-10 0q0 5 0 10t0 9q0 3 0 6.5t0 6.5 0 6q5 0 10 0t9 0q5 0 9.5 0t9.5 0q0-3 0-6t0-6.5 0-6.5q0-4 0-9t0-10q-5 0-9.5 0t-9.5 0zm38 0q-4 0-9 0t-10 0q0 5 0 10t0 9q0 3 0 6.5t0 6.5 0 6q5 0 10 0t9 0q5 0 9.5 0t9.5 0q0-3 0-6t0-6.5 0-6.5q0-4 0-9t0-10q-5 0-9.5 0t-9.5 0zm38 0q-4 0-9 0t-10 0q0 5 0 10t0 9q0 3 0 6.5t0 6.5 0 6q5 0 10 0t9 0q5 0 9.5 0t9.5 0q0-3 0-6t0-6.5 0-6.5q0-4 0-9t0-10q-5 0-9.5 0t-9.5 0zm38 0q-4 0-9 0t-10 0q0 5 0 10t0 9q0 3 0 6.5t0 6.5 0 6q5 0 10 0t9 0q5 0 9.5 0t9.5 0q0-3 0-6t0-6.5 0-6.5q0-4 0-9t0-10q-5 0-9.5 0t-9.5 0zm38 0q-4 0-9 0t-10 0q0 5 0 10t0 9q0 3 0 6.5t0 6.5 0 6q5 0 10 0t9 0q5 0 9.5 0t9.5 0q0-3 0-6t0-6.5 0-6.5q0-4 0-9t0-10q-5 0-9.5 0t-9.5 0zm38 0q-4 0-9 0t-10 0q0 5 0 10t0 9q0 3 0 6.5t0 6.5 0 6q5 0 10 0t9 0q5 0 9.5 0t9.5 0q0-3 0-6t0-6.5 0-6.5q0-4 0-9t0-10q-5 0-9.5 0t-9.5 0zm-304 38q-4 0-9 0t-10 0q0 5 0 10t0 9q0 3 0 6.5t0 6.5 0 6q5 0 10 0t9 0q5 0 9.5 0t9.5 0q0-3 0-6t0-6.5 0-6.5q0-4 0-9t0-10q-5 0-9.5 0t-9.5 0zm0 38q-4 0-9 0t-10 0q0 5 0 10t0 9q0 3 0 6.5t0 6.5 0 6q5 0 10 0t9 0q5 0 9.5 0t9.5 0q0-3 0-6t0-6.5 0-6.5q0-4 0-9t0-10q-5 0-9.5 0t-9.5 0zm0-76q-4 0-9 0t-10 0q0 5 0 10t0 9q0 3 0 6.5t0 6.5 0 6q5 0 10 0t9 0q5 0 9.5 0t9.5 0q0-3 0-6t0-6.5 0-6.5q0-4 0-9t0-10q-5 0-9.5 0t-9.5 0zm-38 38q-4 0-9 0t-10 0q0 5 0 10t0 9q0 3 0 6.5t0 6.5 0 6q5 0 10 0t9 0q5 0 9.5 0t9.5 0q0-3 0-6t0-6.5 0-6.5q0-4 0-9t0-10q-5 0-9.5 0t-9.5 0zm0 38q-4 0-9 0t-10 0q0 5 0 10t0 9q0 3 0 6.5t0 6.5 0 6q5 0 10 0t9 0q5 0 9.5 0t9.5 0q0-3 0-6t0-6.5 0-6.5q0-4 0-9t0-10q-5 0-9.5 0t-9.5 0zm342-38q-4 0-9 0t-10 0q0 5 0 10t0 9q0 3 0 6.5t0 6.5 0 6q5 0 10 0t9 0q5 0 9.5 0t9.5 0q0-3 0-6t0-6.5 0-6.5q0-4 0-9t0-10q-5 0-9.5 0t-9.5 0zm0 38q-4 0-9 0t-10 0q0 5 0 10t0 9q0 3 0 6.5t0 6.5 0 6q5 0 10 0t9 0q5 0 9.5 0t9.5 0q0-3 0-6t0-6.5 0-6.5q0-4 0-9t0-10q-5 0-9.5 0t-9.5 0zm38 0q-4 0-9 0t-10 0q0 5 0 10t0 9q0 3 0 6.5t0 6.5 0 6q5 0 10 0t9 0q5 0 9.5 0t9.5 0q0-3 0-6t0-6.5 0-6.5q0-4 0-9t0-10q-5 0-9.5 0t-9.5 0zm0-38q-4 0-9 0t-10 0q0 5 0 10t0 9q0 3 0 6.5t0 6.5 0 6q5 0 10 0t9 0q5 0 9.5 0t9.5 0q0-3 0-6t0-6.5 0-6.5q0-4 0-9t0-10q-5 0-9.5 0t-9.5 0zm0 76q-4 0-9 0t-10 0q0 5 0 10t0 9q0 3 0 6.5t0 6.5 0 6q5 0 10 0t9 0q5 0 9.5 0t9.5 0q0-3 0-6t0-6.5 0-6.5q0-4 0-9t0-10q-5 0-9.5 0t-9.5 0zm-38 0q-4 0-9 0t-10 0q0 5 0 10t0 9q0 3 0 6.5t0 6.5 0 6q5 0 10 0t9 0q5 0 9.5 0t9.5 0q0-3 0-6t0-6.5 0-6.5q0-4 0-9t0-10q-5 0-9.5 0t-9.5 0zm0 38q-4 0-9 0t-10 0q0 5 0 10t0 9q0 3 0 6.5t0 6.5 0 6q5 0 10 0t9 0q5 0 9.5 0t9.5 0q0-3 0-6t0-6.5 0-6.5q0-4 0-9t0-10q-5 0-9.5 0t-9.5 0zm38 0q-4 0-9 0t-10 0q0 5 0 10t0 9q0 3 0 6.5t0 6.5 0 6q5 0 10 0t9 0q5 0 9.5 0t9.5 0q0-3 0-6t0-6.5 0-6.5q0-4 0-9t0-10q-5 0-9.5 0t-9.5 0zm-76 0q-4 0-9 0t-10 0q0 5 0 10t0 9q0 3 0 6.5t0 6.5 0 6q5 0 10 0t9 0q5 0 9.5 0t9.5 0q0-3 0-6t0-6.5 0-6.5q0-4 0-9t0-10q-5 0-9.5 0t-9.5 0zm0 38q-4 0-9 0t-10 0q0 5 0 10t0 9q0 3 0 6.5t0 6.5 0 6q5 0 10 0t9 0q5 0 9.5 0t9.5 0q0-3 0-6t0-6.5 0-6.5q0-4 0-9t0-10q-5 0-9.5 0t-9.5 0zm38 0q-4 0-9 0t-10 0q0 5 0 10t0 9q0 3 0 6.5t0 6.5 0 6q5 0 10 0t9 0q5 0 9.5 0t9.5 0q0-3 0-6t0-6.5 0-6.5q0-4 0-9t0-10q-5 0-9.5 0t-9.5 0zm-228 266q-4 0-9 0t-10 0q0 5 0 10t0 9q0 3 0 6.5t0 6.5 0 6q5 0 10 0t9 0q5 0 9.5 0t9.5 0q0-3 0-6t0-6.5 0-6.5q0-4 0-9t0-10q-5 0-9.5 0t-9.5 0zm38 0q-4 0-9 0t-10 0q0 5 0 10t0 9q0 3 0 6.5t0 6.5 0 6q5 0 10 0t9 0q5 0 9.5 0t9.5 0q0-3 0-6t0-6.5 0-6.5q0-4 0-9t0-10q-5 0-9.5 0t-9.5 0zm38 0q-4 0-9 0t-10 0q0 5 0 10t0 9q0 3 0 6.5t0 6.5 0 6q5 0 10 0t9 0q5 0 9.5 0t9.5 0q0-3 0-6t0-6.5 0-6.5q0-4 0-9t0-10q-5 0-9.5 0t-9.5 0zm38 0q-4 0-9 0t-10 0q0 5 0 10t0 9q0 3 0 6.5t0 6.5 0 6q5 0 10 0t9 0q5 0 9.5 0t9.5 0q0-3 0-6t0-6.5 0-6.5q0-4 0-9t0-10q-5 0-9.5 0t-9.5 0zm38 0q-4 0-9 0t-10 0q0 5 0 10t0 9q0 3 0 6.5t0 6.5 0 6q5 0 10 0t9 0q5 0 9.5 0t9.5 0q0-3 0-6t0-6.5 0-6.5q0-4 0-9t0-10q-5 0-9.5 0t-9.5 0zm76-38q-4 0-9 0t-10 0q0 5 0 10t0 9q0 3 0 6.5t0 6.5 0 6q5 0 10 0t9 0q5 0 9.5 0t9.5 0q0-3 0-6t0-6.5 0-6.5q0-4 0-9t0-10q-5 0-9.5 0t-9.5 0zm-38 0q-4 0-9 0t-10 0q0 5 0 10t0 9q0 3 0 6.5t0 6.5 0 6q5 0 10 0t9 0q5 0 9.5 0t9.5 0q0-3 0-6t0-6.5 0-6.5q0-4 0-9t0-10q-5 0-9.5 0t-9.5 0zm-38 0q-4 0-9 0t-10 0q0 5 0 10t0 9q0 3 0 6.5t0 6.5 0 6q5 0 10 0t9 0q5 0 9.5 0t9.5 0q0-3 0-6t0-6.5 0-6.5q0-4 0-9t0-10q-5 0-9.5 0t-9.5 0zm-38 0q-4 0-9 0t-10 0q0 5 0 10t0 9q0 3 0 6.5t0 6.5 0 6q5 0 10 0t9 0q5 0 9.5 0t9.5 0q0-3 0-6t0-6.5 0-6.5q0-4 0-9t0-10q-5 0-9.5 0t-9.5 0zm-38 0q-4 0-9 0t-10 0q0 5 0 10t0 9q0 3 0 6.5t0 6.5 0 6q5 0 10 0t9 0q5 0 9.5 0t9.5 0q0-3 0-6t0-6.5 0-6.5q0-4 0-9t0-10q-5 0-9.5 0t-9.5 0zm-38 0q-4 0-9 0t-10 0q0 5 0 10t0 9q0 3 0 6.5t0 6.5 0 6q5 0 10 0t9 0q5 0 9.5 0t9.5 0q0-3 0-6t0-6.5 0-6.5q0-4 0-9t0-10q-5 0-9.5 0t-9.5 0zm-38 0q-4 0-9 0t-10 0q0 5 0 10t0 9q0 3 0 6.5t0 6.5 0 6q5 0 10 0t9 0q5 0 9.5 0t9.5 0q0-3 0-6t0-6.5 0-6.5q0-4 0-9t0-10q-5 0-9.5 0t-9.5 0zm-38 0q-4 0-9 0t-10 0q0 5 0 10t0 9q0 3 0 6.5t0 6.5 0 6q5 0 10 0t9 0q5 0 9.5 0t9.5 0q0-3 0-6t0-6.5 0-6.5q0-4 0-9t0-10q-5 0-9.5 0t-9.5 0zm-38 0q-4 0-9 0t-10 0q0 5 0 10t0 9q0 3 0 6.5t0 6.5 0 6q5 0 10 0t9 0q5 0 9.5 0t9.5 0q0-3 0-6t0-6.5 0-6.5q0-4 0-9t0-10q-5 0-9.5 0t-9.5 0zm0-38q-4 0-9 0t-10 0q0 5 0 10t0 9q0 3 0 6.5t0 6.5 0 6q5 0 10 0t9 0q5 0 9.5 0t9.5 0q0-3 0-6t0-6.5 0-6.5q0-4 0-9t0-10q-5 0-9.5 0t-9.5 0zm38 0q-4 0-9 0t-10 0q0 5 0 10t0 9q0 3 0 6.5t0 6.5 0 6q5 0 10 0t9 0q5 0 9.5 0t9.5 0q0-3 0-6t0-6.5 0-6.5q0-4 0-9t0-10q-5 0-9.5 0t-9.5 0zm-76-76q-4 0-9 0t-10 0q0 5 0 10t0 9q0 3 0 6.5t0 6.5 0 6q5 0 10 0t9 0q5 0 9.5 0t9.5 0q0-3 0-6t0-6.5 0-6.5q0-4 0-9t0-10q-5 0-9.5 0t-9.5 0zm38 0q-4 0-9 0t-10 0q0 5 0 10t0 9q0 3 0 6.5t0 6.5 0 6q5 0 10 0t9 0q5 0 9.5 0t9.5 0q0-3 0-6t0-6.5 0-6.5q0-4 0-9t0-10q-5 0-9.5 0t-9.5 0zm-38 38q-4 0-9 0t-10 0q0 5 0 10t0 9q0 3 0 6.5t0 6.5 0 6q5 0 10 0t9 0q5 0 9.5 0t9.5 0q0-3 0-6t0-6.5 0-6.5q0-4 0-9t0-10q-5 0-9.5 0t-9.5 0zm38 0q-4 0-9 0t-10 0q0 5 0 10t0 9q0 3 0 6.5t0 6.5 0 6q5 0 10 0t9 0q5 0 9.5 0t9.5 0q0-3 0-6t0-6.5 0-6.5q0-4 0-9t0-10q-5 0-9.5 0t-9.5 0zm0-76q-4 0-9 0t-10 0q0 5 0 10t0 9q0 3 0 6.5t0 6.5 0 6q5 0 10 0t9 0q5 0 9.5 0t9.5 0q0-3 0-6t0-6.5 0-6.5q0-4 0-9t0-10q-5 0-9.5 0t-9.5 0zm38 0q-4 0-9 0t-10 0q0 5 0 10t0 9q0 3 0 6.5t0 6.5 0 6q5 0 10 0t9 0q5 0 9.5 0t9.5 0q0-3 0-6t0-6.5 0-6.5q0-4 0-9t0-10q-5 0-9.5 0t-9.5 0zm0-38q-4 0-9 0t-10 0q0 5 0 10t0 9q0 3 0 6.5t0 6.5 0 6q5 0 10 0t9 0q5 0 9.5 0t9.5 0q0-3 0-6t0-6.5 0-6.5q0-4 0-9t0-10q-5 0-9.5 0t-9.5 0zm-38 0q-4 0-9 0t-10 0q0 5 0 10t0 9q0 3 0 6.5t0 6.5 0 6q5 0 10 0t9 0q5 0 9.5 0t9.5 0q0-3 0-6t0-6.5 0-6.5q0-4 0-9t0-10q-5 0-9.5 0t-9.5 0zm76 0q-4 0-9 0t-10 0q0 5 0 10t0 9q0 3 0 6.5t0 6.5 0 6q5 0 10 0t9 0q5 0 9.5 0t9.5 0q0-3 0-6t0-6.5 0-6.5q0-4 0-9t0-10q-5 0-9.5 0t-9.5 0zm0-38q-4 0-9 0t-10 0q0 5 0 10t0 9q0 3 0 6.5t0 6.5 0 6q5 0 10 0t9 0q5 0 9.5 0t9.5 0q0-3 0-6t0-6.5 0-6.5q0-4 0-9t0-10q-5 0-9.5 0t-9.5 0zm38 0q-4 0-9 0t-10 0q0 5 0 10t0 9q0 3 0 6.5t0 6.5 0 6q5 0 10 0t9 0q5 0 9.5 0t9.5 0q0-3 0-6t0-6.5 0-6.5q0-4 0-9t0-10q-5 0-9.5 0t-9.5 0zm0 38q-4 0-9 0t-10 0q0 5 0 10t0 9q0 3 0 6.5t0 6.5 0 6q5 0 10 0t9 0q5 0 9.5 0t9.5 0q0-3 0-6t0-6.5 0-6.5q0-4 0-9t0-10q-5 0-9.5 0t-9.5 0zm38 0q-4 0-9 0t-10 0q0 5 0 10t0 9q0 3 0 6.5t0 6.5 0 6q5 0 10 0t9 0q5 0 9.5 0t9.5 0q0-3 0-6t0-6.5 0-6.5q0-4 0-9t0-10q-5 0-9.5 0t-9.5 0zm0-38q-4 0-9 0t-10 0q0 5 0 10t0 9q0 3 0 6.5t0 6.5 0 6q5 0 10 0t9 0q5 0 9.5 0t9.5 0q0-3 0-6t0-6.5 0-6.5q0-4 0-9t0-10q-5 0-9.5 0t-9.5 0zm38 0q-4 0-9 0t-10 0q0 5 0 10t0 9q0 3 0 6.5t0 6.5 0 6q5 0 10 0t9 0q5 0 9.5 0t9.5 0q0-3 0-6t0-6.5 0-6.5q0-4 0-9t0-10q-5 0-9.5 0t-9.5 0zm0 38q-4 0-9 0t-10 0q0 5 0 10t0 9q0 3 0 6.5t0 6.5 0 6q5 0 10 0t9 0q5 0 9.5 0t9.5 0q0-3 0-6t0-6.5 0-6.5q0-4 0-9t0-10q-5 0-9.5 0t-9.5 0zm38-38q-4 0-9 0t-10 0q0 5 0 10t0 9q0 3 0 6.5t0 6.5 0 6q5 0 10 0t9 0q5 0 9.5 0t9.5 0q0-3 0-6t0-6.5 0-6.5q0-4 0-9t0-10q-5 0-9.5 0t-9.5 0zm0-38q-4 0-9 0t-10 0q0 5 0 10t0 9q0 3 0 6.5t0 6.5 0 6q5 0 10 0t9 0q5 0 9.5 0t9.5 0q0-3 0-6t0-6.5 0-6.5q0-4 0-9t0-10q-5 0-9.5 0t-9.5 0zm76 228q-4 0-9 0t-10 0q0 5 0 10t0 9q0 3 0 6.5t0 6.5 0 6q5 0 10 0t9 0q5 0 9.5 0t9.5 0q0-3 0-6t0-6.5 0-6.5q0-4 0-9t0-10q-5 0-9.5 0t-9.5 0zm38 0q-4 0-9 0t-10 0q0 5 0 10t0 9q0 3 0 6.5t0 6.5 0 6q5 0 10 0t9 0q5 0 9.5 0t9.5 0q0-3 0-6t0-6.5 0-6.5q0-4 0-9t0-10q-5 0-9.5 0t-9.5 0zm0-38q-4 0-9 0t-10 0q0 5 0 10t0 9q0 3 0 6.5t0 6.5 0 6q5 0 10 0t9 0q5 0 9.5 0t9.5 0q0-3 0-6t0-6.5 0-6.5q0-4 0-9t0-10q-5 0-9.5 0t-9.5 0zm-38 0q-4 0-9 0t-10 0q0 5 0 10t0 9q0 3 0 6.5t0 6.5 0 6q5 0 10 0t9 0q5 0 9.5 0t9.5 0q0-3 0-6t0-6.5 0-6.5q0-4 0-9t0-10q-5 0-9.5 0t-9.5 0zm-266-304q-4 0-9 0t-10 0q0 5 0 10t0 9q0 3 0 6.5t0 6.5 0 6q5 0 10 0t9 0q5 0 9.5 0t9.5 0q0-3 0-6t0-6.5 0-6.5q0-4 0-9t0-10q-5 0-9.5 0t-9.5 0zm228 418q-4 0-9 0t-10 0q0 5 0 10t0 9q0 3 0 6.5t0 6.5 0 6q5 0 10 0t9 0q5 0 9.5 0t9.5 0q0-3 0-6t0-6.5 0-6.5q0-4 0-9t0-10q-5 0-9.5 0t-9.5 0zm-228 0q-4 0-9 0t-10 0q0 5 0 10t0 9q0 3 0 6.5t0 6.5 0 6q5 0 10 0t9 0q5 0 9.5 0t9.5 0q0-3 0-6t0-6.5 0-6.5q0-4 0-9t0-10q-5 0-9.5 0t-9.5 0zm0-494q-4 0-9 0t-10 0q0 5 0 10t0 9q0 3 0 6.5t0 6.5 0 6q5 0 10 0t9 0q5 0 9.5 0t9.5 0q0-3 0-6t0-6.5 0-6.5q0-4 0-9t0-10q-5 0-9.5 0t-9.5 0z"/><path transform="translate(33.44 16.08) scale(.016 -.016)" d="m133 608q-4 0-9 0t-10 0q0 5 0 10t0 9q0 3 0 6.5t0 6.5 0 6q5 0 10 0t9 0q5 0 9.5 0t9.5 0q0-3 0-6t0-6.5 0-6.5q0-4 0-9t0-10q-5 0-9.5 0t-9.5 0zm38 0q-4 0-9 0t-10 0q0 5 0 10t0 9q0 3 0 6.5t0 6.5 0 6q5 0 10 0t9 0q5 0 9.5 0t9.5 0q0-3 0-6t0-6.5 0-6.5q0-4 0-9t0-10q-5 0-9.5 0t-9.5 0zm0-38q-4 0-9 0t-10 0q0 5 0 10t0 9q0 3 0 6.5t0 6.5 0 6q5 0 10 0t9 0q5 0 9.5 0t9.5 0q0-3 0-6t0-6.5 0-6.5q0-4 0-9t0-10q-5 0-9.5 0t-9.5 0zm-38 0q-4 0-9 0t-10 0q0 5 0 10t0 9q0 3 0 6.5t0 6.5 0 6q5 0 10 0t9 0q5 0 9.5 0t9.5 0q0-3 0-6t0-6.5 0-6.5q0-4 0-9t0-10q-5 0-9.5 0t-9.5 0zm0-38q-4 0-9 0t-10 0q0 5 0 10t0 9q0 3 0 6.5t0 6.5 0 6q5 0 10 0t9 0q5 0 9.5 0t9.5 0q0-3 0-6t0-6.5 0-6.5q0-4 0-9t0-10q-5 0-9.5 0t-9.5 0zm38 0q-4 0-9 0t-10 0q0 5 0 10t0 9q0 3 0 6.5t0 6.5 0 6q5 0 10 0t9 0q5 0 9.5 0t9.5 0q0-3 0-6t0-6.5 0-6.5q0-4 0-9t0-10q-5 0-9.5 0t-9.5 0zm-38-38q-4 0-9 0t-10 0q0 5 0 10t0 9q0 3 0 6.5t0 6.5 0 6q5 0 10 0t9 0q5 0 9.5 0t9.5 0q0-3 0-6t0-6.5 0-6.5q0-4 0-9t0-10q-5 0-9.5 0t-9.5 0zm38 0q-4 0-9 0t-10 0q0 5 0 10t0 9q0 3 0 6.5t0 6.5 0 6q5 0 10 0t9 0q5 0 9.5 0t9.5 0q0-3 0-6t0-6.5 0-6.5q0-4 0-9t0-10q-5 0-9.5 0t-9.5 0zm0-38q-4 0-9 0t-10 0q0 5 0 10t0 9q0 3 0 6.5t0 6.5 0 6q5 0 10 0t9 0q5 0 9.5 0t9.5 0q0-3 0-6t0-6.5 0-6.5q0-4 0-9t0-10q-5 0-9.5 0t-9.5 0zm-38 0q-4 0-9 0t-10 0q0 5 0 10t0 9q0 3 0 6.5t0 6.5 0 6q5 0 10 0t9 0q5 0 9.5 0t9.5 0q0-3 0-6t0-6.5 0-6.5q0-4 0-9t0-10q-5 0-9.5 0t-9.5 0zm0-38q-4 0-9 0t-10 0q0 5 0 10t0 9q0 3 0 6.5t0 6.5 0 6q5 0 10 0t9 0q5 0 9.5 0t9.5 0q0-3 0-6t0-6.5 0-6.5q0-4 0-9t0-10q-5 0-9.5 0t-9.5 0zm38-38q-4 0-9 0t-10 0q0 5 0 10t0 9q0 3 0 6.5t0 6.5 0 6q5 0 10 0t9 0q5 0 9.5 0t9.5 0q0-3 0-6t0-6.5 0-6.5q0-4 0-9t0-10q-5 0-9.5 0t-9.5 0zm-38 0q-4 0-9 0t-10 0q0 5 0 10t0 9q0 3 0 6.5t0 6.5 0 6q5 0 10 0t9 0q5 0 9.5 0t9.5 0q0-3 0-6t0-6.5 0-6.5q0-4 0-9t0-10q-5 0-9.5 0t-9.5 0zm0-38q-4 0-9 0t-10 0q0 5 0 10t0 9q0 3 0 6.5t0 6.5 0 6q5 0 10 0t9 0q5 0 9.5 0t9.5 0q0-3 0-6t0-6.5 0-6.5q0-4 0-9t0-10q-5 0-9.5 0t-9.5 0zm0-38q-4 0-9 0t-10 0q0 5 0 10t0 9q0 3 0 6.5t0 6.5 0 6q5 0 10 0t9 0q5 0 9.5 0t9.5 0q0-3 0-6t0-6.5 0-6.5q0-4 0-9t0-10q-5 0-9.5 0t-9.5 0zm0-38q-4 0-9 0t-10 0q0 5 0 10t0 9q0 3 0 6.5t0 6.5 0 6q5 0 10 0t9 0q5 0 9.5 0t9.5 0q0-3 0-6t0-6.5 0-6.5q0-4 0-9t0-10q-5 0-9.5 0t-9.5 0zm0-38q-4 0-9 0t-10 0q0 5 0 10t0 9q0 3 0 6.5t0 6.5 0 6q5 0 10 0t9 0q5 0 9.5 0t9.5 0q0-3 0-6t0-6.5 0-6.5q0-4 0-9t0-10q-5 0-9.5 0t-9.5 0zm0-38q-4 0-9 0t-10 0q0 5 0 10t0 9q0 3 0 6.5t0 6.5 0 6q5 0 10 0t9 0q5 0 9.5 0t9.5 0q0-3 0-6t0-6.5 0-6.5q0-4 0-9t0-10q-5 0-9.5 0t-9.5 0zm38 228q-4 0-9 0t-10 0q0 5 0 10t0 9q0 3 0 6.5t0 6.5 0 6q5 0 10 0t9 0q5 0 9.5 0t9.5 0q0-3 0-6t0-6.5 0-6.5q0-4 0-9t0-10q-5 0-9.5 0t-9.5 0zm0-76q-4 0-9 0t-10 0q0 5 0 10t0 9q0 3 0 6.5t0 6.5 0 6q5 0 10 0t9 0q5 0 9.5 0t9.5 0q0-3 0-6t0-6.5 0-6.5q0-4 0-9t0-10q-5 0-9.5 0t-9.5 0zm0-38q-4 0-9 0t-10 0q0 5 0 10t0 9q0 3 0 6.5t0 6.5 0 6q5 0 10 0t9 0q5 0 9.5 0t9.5 0q0-3 0-6t0-6.5 0-6.5q0-4 0-9t0-10q-5 0-9.5 0t-9.5 0zm0-38q-4 0-9 0t-10 0q0 5 0 10t0 9q0 3 0 6.5t0 6.5 0 6q5 0 10 0t9 0q5 0 9.5 0t9.5 0q0-3 0-6t0-6.5 0-6.5q0-4 0-9t0-10q-5 0-9.5 0t-9.5 0zm0-38q-4 0-9 0t-10 0q0 5 0 10t0 9q0 3 0 6.5t0 6.5 0 6q5 0 10 0t9 0q5 0 9.5 0t9.5 0q0-3 0-6t0-6.5 0-6.5q0-4 0-9t0-10q-5 0-9.5 0t-9.5 0zm0-38q-4 0-9 0t-10 0q0 5 0 10t0 9q0 3 0 6.5t0 6.5 0 6q5 0 10 0t9 0q5 0 9.5 0t9.5 0q0-3 0-6t0-6.5 0-6.5q0-4 0-9t0-10q-5 0-9.5 0t-9.5 0zm-38-38q-4 0-9 0t-10 0q0 5 0 10t0 9q0 3 0 6.5t0 6.5 0 6q5 0 10 0t9 0q5 0 9.5 0t9.5 0q0-3 0-6t0-6.5 0-6.5q0-4 0-9t0-10q-5 0-9.5 0t-9.5 0zm38 0q-4 0-9 0t-10 0q0 5 0 10t0 9q0 3 0 6.5t0 6.5 0 6q5 0 10 0t9 0q5 0 9.5 0t9.5 0q0-3 0-6t0-6.5 0-6.5q0-4 0-9t0-10q-5 0-9.5 0t-9.5 0zm0-38q-4 0-9 0t-10 0q0 5 0 10t0 9q0 3 0 6.5t0 6.5 0 6q5 0 10 0t9 0q5 0 9.5 0t9.5 0q0-3 0-6t0-6.5 0-6.5q0-4 0-9t0-10q-5 0-9.5 0t-9.5 0zm-38 0q-4 0-9 0t-10 0q0 5 0 10t0 9q0 3 0 6.5t0 6.5 0 6q5 0 10 0t9 0q5 0 9.5 0t9.5 0q0-3 0-6t0-6.5 0-6.5q0-4 0-9t0-10q-5 0-9.5 0t-9.5 0zm0-38q-4 0-9 0t-10 0q0 5 0 10t0 9q0 3 0 6.5t0 6.5 0 6q5 0 10 0t9 0q5 0 9.5 0t9.5 0q0-3 0-6t0-6.5 0-6.5q0-4 0-9t0-10q-5 0-9.5 0t-9.5 0zm38-38q-4 0-9 0t-10 0q0 5 0 10t0 9q0 3 0 6.5t0 6.5 0 6q5 0 10 0t9 0q5 0 9.5 0t9.5 0q0-3 0-6t0-6.5 0-6.5q0-4 0-9t0-10q-5 0-9.5 0t-9.5 0zm38-38q-4 0-9 0t-10 0q0 5 0 10t0 9q0 3 0 6.5t0 6.5 0 6q5 0 10 0t9 0q5 0 9.5 0t9.5 0q0-3 0-6t0-6.5 0-6.5q0-4 0-9t0-10q-5 0-9.5 0t-9.5 0zm-38 76q-4 0-9 0t-10 0q0 5 0 10t0 9q0 3 0 6.5t0 6.5 0 6q5 0 10 0t9 0q5 0 9.5 0t9.5 0q0-3 0-6t0-6.5 0-6.5q0-4 0-9t0-10q-5 0-9.5 0t-9.5 0zm38-38q-4 0-9 0t-10 0q0 5 0 10t0 9q0 3 0 6.5t0 6.5 0 6q5 0 10 0t9 0q5 0 9.5 0t9.5 0q0-3 0-6t0-6.5 0-6.5q0-4 0-9t0-10q-5 0-9.5 0t-9.5 0zm38 0q-4 0-9 0t-10 0q0 5 0 10t0 9q0 3 0 6.5t0 6.5 0 6q5 0 10 0t9 0q5 0 9.5 0t9.5 0q0-3 0-6t0-6.5 0-6.5q0-4 0-9t0-10q-5 0-9.5 0t-9.5 0zm0-38q-4 0-9 0t-10 0q0 5 0 10t0 9q0 3 0 6.5t0 6.5 0 6q5 0 10 0t9 0q5 0 9.5 0t9.5 0q0-3 0-6t0-6.5 0-6.5q0-4 0-9t0-10q-5 0-9.5 0t-9.5 0zm38 38q-4 0-9 0t-10 0q0 5 0 10t0 9q0 3 0 6.5t0 6.5 0 6q5 0 10 0t9 0q5 0 9.5 0t9.5 0q0-3 0-6t0-6.5 0-6.5q0-4 0-9t0-10q-5 0-9.5 0t-9.5 0zm0-38q-4 0-9 0t-10 0q0 5 0 10t0 9q0 3 0 6.5t0 6.5 0 6q5 0 10 0t9 0q5 0 9.5 0t9.5 0q0-3 0-6t0-6.5 0-6.5q0-4 0-9t0-10q-5 0-9.5 0t-9.5 0zm-190 494q-4 0-9 0t-10 0q0 5 0 10t0 9q0 3 0 6.5t0 6.5 0 6q5 0 10 0t9 0q5 0 9.5 0t9.5 0q0-3 0-6t0-6.5 0-6.5q0-4 0-9t0-10q-5 0-9.5 0t-9.5 0zm0-38q-4 0-9 0t-10 0q0 5 0 10t0 9q0 3 0 6.5t0 6.5 0 6q5 0 10 0t9 0q5 0 9.5 0t9.5 0q0-3 0-6t0-6.5 0-6.5q0-4 0-9t0-10q-5 0-9.5 0t-9.5 0zm-38 0q-4 0-9 0t-10 0q0 5 0 10t0 9q0 3 0 6.5t0 6.5 0 6q5 0 10 0t9 0q5 0 9.5 0t9.5 0q0-3 0-6t0-6.5 0-6.5q0-4 0-9t0-10q-5 0-9.5 0t-9.5 0zm0 38q-4 0-9 0t-10 0q0 5 0 10t0 9q0 3 0 6.5t0 6.5 0 6q5 0 10 0t9 0q5 0 9.5 0t9.5 0q0-3 0-6t0-6.5 0-6.5q0-4 0-9t0-10q-5 0-9.5 0t-9.5 0zm152 0q-4 0-9 0t-10 0q0 5 0 10t0 9q0 3 0 6.5t0 6.5 0 6q5 0 10 0t9 0q5 0 9.5 0t9.5 0q0-3 0-6t0-6.5 0-6.5q0-4 0-9t0-10q-5 0-9.5 0t-9.5 0zm0-38q-4 0-9 0t-10 0q0 5 0 10t0 9q0 3 0 6.5t0 6.5 0 6q5 0 10 0t9 0q5 0 9.5 0t9.5 0q0-3 0-6t0-6.5 0-6.5q0-4 0-9t0-10q-5 0-9.5 0t-9.5 0zm38 0q-4 0-9 0t-10 0q0 5 0 10t0 9q0 3 0 6.5t0 6.5 0 6q5 0 10 0t9 0q5 0 9.5 0t9.5 0q0-3 0-6t0-6.5 0-6.5q0-4 0-9t0-10q-5 0-9.5 0t-9.5 0zm0 38q-4 0-9 0t-10 0q0 5 0 10t0 9q0 3 0 6.5t0 6.5 0 6q5 0 10 0t9 0q5 0 9.5 0t9.5 0q0-3 0-6t0-6.5 0-6.5q0-4 0-9t0-10q-5 0-9.5 0t-9.5 0zm38 0q-4 0-9 0t-10 0q0 5 0 10t0 9q0 3 0 6.5t0 6.5 0 6q5 0 10 0t9 0q5 0 9.5 0t9.5 0q0-3 0-6t0-6.5 0-6.5q0-4 0-9t0-10q-5 0-9.5 0t-9.5 0zm0-38q-4 0-9 0t-10 0q0 5 0 10t0 9q0 3 0 6.5t0 6.5 0 6q5 0 10 0t9 0q5 0 9.5 0t9.5 0q0-3 0-6t0-6.5 0-6.5q0-4 0-9t0-10q-5 0-9.5 0t-9.5 0zm38 38q-4 0-9 0t-10 0q0 5 0 10t0 9q0 3 0 6.5t0 6.5 0 6q5 0 10 0t9 0q5 0 9.5 0t9.5 0q0-3 0-6t0-6.5 0-6.5q0-4 0-9t0-10q-5 0-9.5 0t-9.5 0zm0-38q-4 0-9 0t-10 0q0 5 0 10t0 9q0 3 0 6.5t0 6.5 0 6q5 0 10 0t9 0q5 0 9.5 0t9.5 0q0-3 0-6t0-6.5 0-6.5q0-4 0-9t0-10q-5 0-9.5 0t-9.5 0zm0-418q-4 0-9 0t-10 0q0 5 0 10t0 9q0 3 0 6.5t0 6.5 0 6q5 0 10 0t9 0q5 0 9.5 0t9.5 0q0-3 0-6t0-6.5 0-6.5q0-4 0-9t0-10q-5 0-9.5 0t-9.5 0zm0-38q-4 0-9 0t-10 0q0 5 0 10t0 9q0 3 0 6.5t0 6.5 0 6q5 0 10 0t9 0q5 0 9.5 0t9.5 0q0-3 0-6t0-6.5 0-6.5q0-4 0-9t0-10q-5 0-9.5 0t-9.5 0z"/><path transform="translate(45.6 16.08) scale(.016 -.016)" d="m95 684q-4 0-9 0t-10 0q0 5 0 10t0 9q0 3 0 6.5t0 6.5 0 6q5 0 10 0t9 0q5 0 9.5 0t9.5 0q0-3 0-6t0-6.5 0-6.5q0-4 0-9t0-10q-5 0-9.5 0t-9.5 0zm0-38q-4 0-9 0t-10 0q0 5 0 10t0 9q0 3 0 6.5t0 6.5 0 6q5 0 10 0t9 0q5 0 9.5 0t9.5 0q0-3 0-6t0-6.5 0-6.5q0-4 0-9t0-10q-5 0-9.5 0t-9.5 0zm0-38q-4 0-9 0t-10 0q0 5 0 10t0 9q0 3 0 6.5t0 6.5 0 6q5 0 10 0t9 0q5 0 9.5 0t9.5 0q0-3 0-6t0-6.5 0-6.5q0-4 0-9t0-10q-5 0-9.5 0t-9.5 0zm0-38q-4 0-9 0t-10 0q0 5 0 10t0 9q0 3 0 6.5t0 6.5 0 6q5 0 10 0t9 0q5 0 9.5 0t9.5 0q0-3 0-6t0-6.5 0-6.5q0-4 0-9t0-10q-5 0-9.5 0t-9.5 0zm0-38q-4 0-9 0t-10 0q0 5 0 10t0 9q0 3 0 6.5t0 6.5 0 6q5 0 10 0t9 0q5 0 9.5 0t9.5 0q0-3 0-6t0-6.5 0-6.5q0-4 0-9t0-10q-5 0-9.5 0t-9.5 0zm0-38q-4 0-9 0t-10 0q0 5 0 10t0 9q0 3 0 6.5t0 6.5 0 6q5 0 10 0t9 0q5 0 9.5 0t9.5 0q0-3 0-6t0-6.5 0-6.5q0-4 0-9t0-10q-5 0-9.5 0t-9.5 0zm0-38q-4 0-9 0t-10 0q0 5 0 10t0 9q0 3 0 6.5t0 6.5 0 6q5 0 10 0t9 0q5 0 9.5 0t9.5 0q0-3 0-6t0-6.5 0-6.5q0-4 0-9t0-10q-5 0-9.5 0t-9.5 0zm0-38q-4 0-9 0t-10 0q0 5 0 10t0 9q0 3 0 6.5t0 6.5 0 6q5 0 10 0t9 0q5 0 9.5 0t9.5 0q0-3 0-6t0-6.5 0-6.5q0-4 0-9t0-10q-5 0-9.5 0t-9.5 0zm0-38q-4 0-9 0t-10 0q0 5 0 10t0 9q0 3 0 6.5t0 6.5 0 6q5 0 10 0t9 0q5 0 9.5 0t9.5 0q0-3 0-6t0-6.5 0-6.5q0-4 0-9t0-10q-5 0-9.5 0t-9.5 0zm0-38q-4 0-9 0t-10 0q0 5 0 10t0 9q0 3 0 6.5t0 6.5 0 6q5 0 10 0t9 0q5 0 9.5 0t9.5 0q0-3 0-6t0-6.5 0-6.5q0-4 0-9t0-10q-5 0-9.5 0t-9.5 0zm0-38q-4 0-9 0t-10 0q0 5 0 10t0 9q0 3 0 6.5t0 6.5 0 6q5 0 10 0t9 0q5 0 9.5 0t9.5 0q0-3 0-6t0-6.5 0-6.5q0-4 0-9t0-10q-5 0-9.5 0t-9.5 0zm0-38q-4 0-9 0t-10 0q0 5 0 10t0 9q0 3 0 6.5t0 6.5 0 6q5 0 10 0t9 0q5 0 9.5 0t9.5 0q0-3 0-6t0-6.5 0-6.5q0-4 0-9t0-10q-5 0-9.5 0t-9.5 0zm0-38q-4 0-9 0t-10 0q0 5 0 10t0 9q0 3 0 6.5t0 6.5 0 6q5 0 10 0t9 0q5 0 9.5 0t9.5 0q0-3 0-6t0-6.5 0-6.5q0-4 0-9t0-10q-5 0-9.5 0t-9.5 0zm0-38q-4 0-9 0t-10 0q0 5 0 10t0 9q0 3 0 6.5t0 6.5 0 6q5 0 10 0t9 0q5 0 9.5 0t9.5 0q0-3 0-6t0-6.5 0-6.5q0-4 0-9t0-10q-5 0-9.5 0t-9.5 0zm0-38q-4 0-9 0t-10 0q0 5 0 10t0 9q0 3 0 6.5t0 6.5 0 6q5 0 10 0t9 0q5 0 9.5 0t9.5 0q0-3 0-6t0-6.5 0-6.5q0-4 0-9t0-10q-5 0-9.5 0t-9.5 0zm0-38q-4 0-9 0t-10 0q0 5 0 10t0 9q0 3 0 6.5t0 6.5 0 6q5 0 10 0t9 0q5 0 9.5 0t9.5 0q0-3 0-6t0-6.5 0-6.5q0-4 0-9t0-10q-5 0-9.5 0t-9.5 0zm0-38q-4 0-9 0t-10 0q0 5 0 10t0 9q0 3 0 6.5t0 6.5 0 6q5 0 10 0t9 0q5 0 9.5 0t9.5 0q0-3 0-6t0-6.5 0-6.5q0-4 0-9t0-10q-5 0-9.5 0t-9.5 0zm0-38q-4 0-9 0t-10 0q0 5 0 10t0 9q0 3 0 6.5t0 6.5 0 6q5 0 10 0t9 0q5 0 9.5 0t9.5 0q0-3 0-6t0-6.5 0-6.5q0-4 0-9t0-10q-5 0-9.5 0t-9.5 0zm0-38q-4 0-9 0t-10 0q0 5 0 10t0 9q0 3 0 6.5t0 6.5 0 6q5 0 10 0t9 0q5 0 9.5 0t9.5 0q0-3 0-6t0-6.5 0-6.5q0-4 0-9t0-10q-5 0-9.5 0t-9.5 0zm38 684q-4 0-9 0t-10 0q0 5 0 10t0 9q0 3 0 6.5t0 6.5 0 6q5 0 10 0t9 0q5 0 9.5 0t9.5 0q0-3 0-6t0-6.5 0-6.5q0-4 0-9t0-10q-5 0-9.5 0t-9.5 0zm0-38q-4 0-9 0t-10 0q0 5 0 10t0 9q0 3 0 6.5t0 6.5 0 6q5 0 10 0t9 0q5 0 9.5 0t9.5 0q0-3 0-6t0-6.5 0-6.5q0-4 0-9t0-10q-5 0-9.5 0t-9.5 0zm0-38q-4 0-9 0t-10 0q0 5 0 10t0 9q0 3 0 6.5t0 6.5 0 6q5 0 10 0t9 0q5 0 9.5 0t9.5 0q0-3 0-6t0-6.5 0-6.5q0-4 0-9t0-10q-5 0-9.5 0t-9.5 0zm0-38q-4 0-9 0t-10 0q0 5 0 10t0 9q0 3 0 6.5t0 6.5 0 6q5 0 10 0t9 0q5 0 9.5 0t9.5 0q0-3 0-6t0-6.5 0-6.5q0-4 0-9t0-10q-5 0-9.5 0t-9.5 0zm0-38q-4 0-9 0t-10 0q0 5 0 10t0 9q0 3 0 6.5t0 6.5 0 6q5 0 10 0t9 0q5 0 9.5 0t9.5 0q0-3 0-6t0-6.5 0-6.5q0-4 0-9t0-10q-5 0-9.5 0t-9.5 0zm0-38q-4 0-9 0t-10 0q0 5 0 10t0 9q0 3 0 6.5t0 6.5 0 6q5 0 10 0t9 0q5 0 9.5 0t9.5 0q0-3 0-6t0-6.5 0-6.5q0-4 0-9t0-10q-5 0-9.5 0t-9.5 0zm0-38q-4 0-9 0t-10 0q0 5 0 10t0 9q0 3 0 6.5t0 6.5 0 6q5 0 10 0t9 0q5 0 9.5 0t9.5 0q0-3 0-6t0-6.5 0-6.5q0-4 0-9t0-10q-5 0-9.5 0t-9.5 0zm0-38q-4 0-9 0t-10 0q0 5 0 10t0 9q0 3 0 6.5t0 6.5 0 6q5 0 10 0t9 0q5 0 9.5 0t9.5 0q0-3 0-6t0-6.5 0-6.5q0-4 0-9t0-10q-5 0-9.5 0t-9.5 0zm0-38q-4 0-9 0t-10 0q0 5 0 10t0 9q0 3 0 6.5t0 6.5 0 6q5 0 10 0t9 0q5 0 9.5 0t9.5 0q0-3 0-6t0-6.5 0-6.5q0-4 0-9t0-10q-5 0-9.5 0t-9.5 0zm0-38q-4 0-9 0t-10 0q0 5 0 10t0 9q0 3 0 6.5t0 6.5 0 6q5 0 10 0t9 0q5 0 9.5 0t9.5 0q0-3 0-6t0-6.5 0-6.5q0-4 0-9t0-10q-5 0-9.5 0t-9.5 0zm0-38q-4 0-9 0t-10 0q0 5 0 10t0 9q0 3 0 6.5t0 6.5 0 6q5 0 10 0t9 0q5 0 9.5 0t9.5 0q0-3 0-6t0-6.5 0-6.5q0-4 0-9t0-10q-5 0-9.5 0t-9.5 0zm0-38q-4 0-9 0t-10 0q0 5 0 10t0 9q0 3 0 6.5t0 6.5 0 6q5 0 10 0t9 0q5 0 9.5 0t9.5 0q0-3 0-6t0-6.5 0-6.5q0-4 0-9t0-10q-5 0-9.5 0t-9.5 0zm0-38q-4 0-9 0t-10 0q0 5 0 10t0 9q0 3 0 6.5t0 6.5 0 6q5 0 10 0t9 0q5 0 9.5 0t9.5 0q0-3 0-6t0-6.5 0-6.5q0-4 0-9t0-10q-5 0-9.5 0t-9.5 0zm0-38q-4 0-9 0t-10 0q0 5 0 10t0 9q0 3 0 6.5t0 6.5 0 6q5 0 10 0t9 0q5 0 9.5 0t9.5 0q0-3 0-6t0-6.5 0-6.5q0-4 0-9t0-10q-5 0-9.5 0t-9.5 0zm0-38q-4 0-9 0t-10 0q0 5 0 10t0 9q0 3 0 6.5t0 6.5 0 6q5 0 10 0t9 0q5 0 9.5 0t9.5 0q0-3 0-6t0-6.5 0-6.5q0-4 0-9t0-10q-5 0-9.5 0t-9.5 0zm0-38q-4 0-9 0t-10 0q0 5 0 10t0 9q0 3 0 6.5t0 6.5 0 6q5 0 10 0t9 0q5 0 9.5 0t9.5 0q0-3 0-6t0-6.5 0-6.5q0-4 0-9t0-10q-5 0-9.5 0t-9.5 0zm0-38q-4 0-9 0t-10 0q0 5 0 10t0 9q0 3 0 6.5t0 6.5 0 6q5 0 10 0t9 0q5 0 9.5 0t9.5 0q0-3 0-6t0-6.5 0-6.5q0-4 0-9t0-10q-5 0-9.5 0t-9.5 0zm0-38q-4 0-9 0t-10 0q0 5 0 10t0 9q0 3 0 6.5t0 6.5 0 6q5 0 10 0t9 0q5 0 9.5 0t9.5 0q0-3 0-6t0-6.5 0-6.5q0-4 0-9t0-10q-5 0-9.5 0t-9.5 0zm0-38q-4 0-9 0t-10 0q0 5 0 10t0 9q0 3 0 6.5t0 6.5 0 6q5 0 10 0t9 0q5 0 9.5 0t9.5 0q0-3 0-6t0-6.5 0-6.5q0-4 0-9t0-10q-5 0-9.5 0t-9.5 0zm38 684q-4 0-9 0t-10 0q0 5 0 10t0 9q0 3 0 6.5t0 6.5 0 6q5 0 10 0t9 0q5 0 9.5 0t9.5 0q0-3 0-6t0-6.5 0-6.5q0-4 0-9t0-10q-5 0-9.5 0t-9.5 0zm0-38q-4 0-9 0t-10 0q0 5 0 10t0 9q0 3 0 6.5t0 6.5 0 6q5 0 10 0t9 0q5 0 9.5 0t9.5 0q0-3 0-6t0-6.5 0-6.5q0-4 0-9t0-10q-5 0-9.5 0t-9.5 0zm38 0q-4 0-9 0t-10 0q0 5 0 10t0 9q0 3 0 6.5t0 6.5 0 6q5 0 10 0t9 0q5 0 9.5 0t9.5 0q0-3 0-6t0-6.5 0-6.5q0-4 0-9t0-10q-5 0-9.5 0t-9.5 0zm0 38q-4 0-9 0t-10 0q0 5 0 10t0 9q0 3 0 6.5t0 6.5 0 6q5 0 10 0t9 0q5 0 9.5 0t9.5 0q0-3 0-6t0-6.5 0-6.5q0-4 0-9t0-10q-5 0-9.5 0t-9.5 0zm38-38q-4 0-9 0t-10 0q0 5 0 10t0 9q0 3 0 6.5t0 6.5 0 6q5 0 10 0t9 0q5 0 9.5 0t9.5 0q0-3 0-6t0-6.5 0-6.5q0-4 0-9t0-10q-5 0-9.5 0t-9.5 0zm0 38q-4 0-9 0t-10 0q0 5 0 10t0 9q0 3 0 6.5t0 6.5 0 6q5 0 10 0t9 0q5 0 9.5 0t9.5 0q0-3 0-6t0-6.5 0-6.5q0-4 0-9t0-10q-5 0-9.5 0t-9.5 0zm38 0q-4 0-9 0t-10 0q0 5 0 10t0 9q0 3 0 6.5t0 6.5 0 6q5 0 10 0t9 0q5 0 9.5 0t9.5 0q0-3 0-6t0-6.5 0-6.5q0-4 0-9t0-10q-5 0-9.5 0t-9.5 0zm0-38q-4 0-9 0t-10 0q0 5 0 10t0 9q0 3 0 6.5t0 6.5 0 6q5 0 10 0t9 0q5 0 9.5 0t9.5 0q0-3 0-6t0-6.5 0-6.5q0-4 0-9t0-10q-5 0-9.5 0t-9.5 0zm-114-304q-4 0-9 0t-10 0q0 5 0 10t0 9q0 3 0 6.5t0 6.5 0 6q5 0 10 0t9 0q5 0 9.5 0t9.5 0q0-3 0-6t0-6.5 0-6.5q0-4 0-9t0-10q-5 0-9.5 0t-9.5 0zm0-38q-4 0-9 0t-10 0q0 5 0 10t0 9q0 3 0 6.5t0 6.5 0 6q5 0 10 0t9 0q5 0 9.5 0t9.5 0q0-3 0-6t0-6.5 0-6.5q0-4 0-9t0-10q-5 0-9.5 0t-9.5 0zm38 0q-4 0-9 0t-10 0q0 5 0 10t0 9q0 3 0 6.5t0 6.5 0 6q5 0 10 0t9 0q5 0 9.5 0t9.5 0q0-3 0-6t0-6.5 0-6.5q0-4 0-9t0-10q-5 0-9.5 0t-9.5 0zm0 38q-4 0-9 0t-10 0q0 5 0 10t0 9q0 3 0 6.5t0 6.5 0 6q5 0 10 0t9 0q5 0 9.5 0t9.5 0q0-3 0-6t0-6.5 0-6.5q0-4 0-9t0-10q-5 0-9.5 0t-9.5 0zm38 0q-4 0-9 0t-10 0q0 5 0 10t0 9q0 3 0 6.5t0 6.5 0 6q5 0 10 0t9 0q5 0 9.5 0t9.5 0q0-3 0-6t0-6.5 0-6.5q0-4 0-9t0-10q-5 0-9.5 0t-9.5 0zm0-38q-4 0-9 0t-10 0q0 5 0 10t0 9q0 3 0 6.5t0 6.5 0 6q5 0 10 0t9 0q5 0 9.5 0t9.5 0q0-3 0-6t0-6.5 0-6.5q0-4 0-9t0-10q-5 0-9.5 0t-9.5 0zm38 0q-4 0-9 0t-10 0q0 5 0 10t0 9q0 3 0 6.5t0 6.5 0 6q5 0 10 0t9 0q5 0 9.5 0t9.5 0q0-3 0-6t0-6.5 0-6.5q0-4 0-9t0-10q-5 0-9.5 0t-9.5 0zm0 38q-4 0-9 0t-10 0q0 5 0 10t0 9q0 3 0 6.5t0 6.5 0 6q5 0 10 0t9 0q5 0 9.5 0t9.5 0q0-3 0-6t0-6.5 0-6.5q0-4 0-9t0-10q-5 0-9.5 0t-9.5 0zm38 0q-4 0-9 0t-10 0q0 5 0 10t0 9q0 3 0 6.5t0 6.5 0 6q5 0 10 0t9 0q5 0 9.5 0t9.5 0q0-3 0-6t0-6.5 0-6.5q0-4 0-9t0-10q-5 0-9.5 0t-9.5 0zm0-38q-4 0-9 0t-10 0q0 5 0 10t0 9q0 3 0 6.5t0 6.5 0 6q5 0 10 0t9 0q5 0 9.5 0t9.5 0q0-3 0-6t0-6.5 0-6.5q0-4 0-9t0-10q-5 0-9.5 0t-9.5 0zm0 380q-4 0-9 0t-10 0q0 5 0 10t0 9q0 3 0 6.5t0 6.5 0 6q5 0 10 0t9 0q5 0 9.5 0t9.5 0q0-3 0-6t0-6.5 0-6.5q0-4 0-9t0-10q-5 0-9.5 0t-9.5 0zm0-38q-4 0-9 0t-10 0q0 5 0 10t0 9q0 3 0 6.5t0 6.5 0 6q5 0 10 0t9 0q5 0 9.5 0t9.5 0q0-3 0-6t0-6.5 0-6.5q0-4 0-9t0-10q-5 0-9.5 0t-9.5 0zm38 0q-4 0-9 0t-10 0q0 5 0 10t0 9q0 3 0 6.5t0 6.5 0 6q5 0 10 0t9 0q5 0 9.5 0t9.5 0q0-3 0-6t0-6.5 0-6.5q0-4 0-9t0-10q-5 0-9.5 0t-9.5 0zm38 0q-4 0-9 0t-10 0q0 5 0 10t0 9q0 3 0 6.5t0 6.5 0 6q5 0 10 0t9 0q5 0 9.5 0t9.5 0q0-3 0-6t0-6.5 0-6.5q0-4 0-9t0-10q-5 0-9.5 0t-9.5 0zm38 0q-4 0-9 0t-10 0q0 5 0 10t0 9q0 3 0 6.5t0 6.5 0 6q5 0 10 0t9 0q5 0 9.5 0t9.5 0q0-3 0-6t0-6.5 0-6.5q0-4 0-9t0-10q-5 0-9.5 0t-9.5 0zm0-38q-4 0-9 0t-10 0q0 5 0 10t0 9q0 3 0 6.5t0 6.5 0 6q5 0 10 0t9 0q5 0 9.5 0t9.5 0q0-3 0-6t0-6.5 0-6.5q0-4 0-9t0-10q-5 0-9.5 0t-9.5 0zm-76-266q-4 0-9 0t-10 0q0 5 0 10t0 9q0 3 0 6.5t0 6.5 0 6q5 0 10 0t9 0q5 0 9.5 0t9.5 0q0-3 0-6t0-6.5 0-6.5q0-4 0-9t0-10q-5 0-9.5 0t-9.5 0zm38 0q-4 0-9 0t-10 0q0 5 0 10t0 9q0 3 0 6.5t0 6.5 0 6q5 0 10 0t9 0q5 0 9.5 0t9.5 0q0-3 0-6t0-6.5 0-6.5q0-4 0-9t0-10q-5 0-9.5 0t-9.5 0zm38 38q-4 0-9 0t-10 0q0 5 0 10t0 9q0 3 0 6.5t0 6.5 0 6q5 0 10 0t9 0q5 0 9.5 0t9.5 0q0-3 0-6t0-6.5 0-6.5q0-4 0-9t0-10q-5 0-9.5 0t-9.5 0zm0-38q-4 0-9 0t-10 0q0 5 0 10t0 9q0 3 0 6.5t0 6.5 0 6q5 0 10 0t9 0q5 0 9.5 0t9.5 0q0-3 0-6t0-6.5 0-6.5q0-4 0-9t0-10q-5 0-9.5 0t-9.5 0zm38 304q-4 0-9 0t-10 0q0 5 0 10t0 9q0 3 0 6.5t0 6.5 0 6q5 0 10 0t9 0q5 0 9.5 0t9.5 0q0-3 0-6t0-6.5 0-6.5q0-4 0-9t0-10q-5 0-9.5 0t-9.5 0zm0-38q-4 0-9 0t-10 0q0 5 0 10t0 9q0 3 0 6.5t0 6.5 0 6q5 0 10 0t9 0q5 0 9.5 0t9.5 0q0-3 0-6t0-6.5 0-6.5q0-4 0-9t0-10q-5 0-9.5 0t-9.5 0zm0-228q-4 0-9 0t-10 0q0 5 0 10t0 9q0 3 0 6.5t0 6.5 0 6q5 0 10 0t9 0q5 0 9.5 0t9.5 0q0-3 0-6t0-6.5 0-6.5q0-4 0-9t0-10q-5 0-9.5 0t-9.5 0zm0-38q-4 0-9 0t-10 0q0 5 0 10t0 9q0 3 0 6.5t0 6.5 0 6q5 0 10 0t9 0q5 0 9.5 0t9.5 0q0-3 0-6t0-6.5 0-6.5q0-4 0-9t0-10q-5 0-9.5 0t-9.5 0zm76 190q-4 0-9 0t-10 0q0 5 0 10t0 9q0 3 0 6.5t0 6.5 0 6q5 0 10 0t9 0q5 0 9.5 0t9.5 0q0-3 0-6t0-6.5 0-6.5q0-4 0-9t0-10q-5 0-9.5 0t-9.5 0zm0-38q-4 0-9 0t-10 0q0 5 0 10t0 9q0 3 0 6.5t0 6.5 0 6q5 0 10 0t9 0q5 0 9.5 0t9.5 0q0-3 0-6t0-6.5 0-6.5q0-4 0-9t0-10q-5 0-9.5 0t-9.5 0zm0-38q-4 0-9 0t-10 0q0 5 0 10t0 9q0 3 0 6.5t0 6.5 0 6q5 0 10 0t9 0q5 0 9.5 0t9.5 0q0-3 0-6t0-6.5 0-6.5q0-4 0-9t0-10q-5 0-9.5 0t-9.5 0zm-38 114q-4 0-9 0t-10 0q0 5 0 10t0 9q0 3 0 6.5t0 6.5 0 6q5 0 10 0t9 0q5 0 9.5 0t9.5 0q0-3 0-6t0-6.5 0-6.5q0-4 0-9t0-10q-5 0-9.5 0t-9.5 0zm-38 0q-4 0-9 0t-10 0q0 5 0 10t0 9q0 3 0 6.5t0 6.5 0 6q5 0 10 0t9 0q5 0 9.5 0t9.5 0q0-3 0-6t0-6.5 0-6.5q0-4 0-9t0-10q-5 0-9.5 0t-9.5 0zm38-152q-4 0-9 0t-10 0q0 5 0 10t0 9q0 3 0 6.5t0 6.5 0 6q5 0 10 0t9 0q5 0 9.5 0t9.5 0q0-3 0-6t0-6.5 0-6.5q0-4 0-9t0-10q-5 0-9.5 0t-9.5 0zm-38 0q-4 0-9 0t-10 0q0 5 0 10t0 9q0 3 0 6.5t0 6.5 0 6q5 0 10 0t9 0q5 0 9.5 0t9.5 0q0-3 0-6t0-6.5 0-6.5q0-4 0-9t0-10q-5 0-9.5 0t-9.5 0zm38-38q-4 0-9 0t-10 0q0 5 0 10t0 9q0 3 0 6.5t0 6.5 0 6q5 0 10 0t9 0q5 0 9.5 0t9.5 0q0-3 0-6t0-6.5 0-6.5q0-4 0-9t0-10q-5 0-9.5 0t-9.5 0zm0 228q-4 0-9 0t-10 0q0 5 0 10t0 9q0 3 0 6.5t0 6.5 0 6q5 0 10 0t9 0q5 0 9.5 0t9.5 0q0-3 0-6t0-6.5 0-6.5q0-4 0-9t0-10q-5 0-9.5 0t-9.5 0zm0-76q-4 0-9 0t-10 0q0 5 0 10t0 9q0 3 0 6.5t0 6.5 0 6q5 0 10 0t9 0q5 0 9.5 0t9.5 0q0-3 0-6t0-6.5 0-6.5q0-4 0-9t0-10q-5 0-9.5 0t-9.5 0zm0-38q-4 0-9 0t-10 0q0 5 0 10t0 9q0 3 0 6.5t0 6.5 0 6q5 0 10 0t9 0q5 0 9.5 0t9.5 0q0-3 0-6t0-6.5 0-6.5q0-4 0-9t0-10q-5 0-9.5 0t-9.5 0zm0-38q-4 0-9 0t-10 0q0 5 0 10t0 9q0 3 0 6.5t0 6.5 0 6q5 0 10 0t9 0q5 0 9.5 0t9.5 0q0-3 0-6t0-6.5 0-6.5q0-4 0-9t0-10q-5 0-9.5 0t-9.5 0zm-152 228q-4 0-9 0t-10 0q0 5 0 10t0 9q0 3 0 6.5t0 6.5 0 6q5 0 10 0t9 0q5 0 9.5 0t9.5 0q0-3 0-6t0-6.5 0-6.5q0-4 0-9t0-10q-5 0-9.5 0t-9.5 0zm38 0q-4 0-9 0t-10 0q0 5 0 10t0 9q0 3 0 6.5t0 6.5 0 6q5 0 10 0t9 0q5 0 9.5 0t9.5 0q0-3 0-6t0-6.5 0-6.5q0-4 0-9t0-10q-5 0-9.5 0t-9.5 0zm-38-380q-4 0-9 0t-10 0q0 5 0 10t0 9q0 3 0 6.5t0 6.5 0 6q5 0 10 0t9 0q5 0 9.5 0t9.5 0q0-3 0-6t0-6.5 0-6.5q0-4 0-9t0-10q-5 0-9.5 0t-9.5 0zm38 0q-4 0-9 0t-10 0q0 5 0 10t0 9q0 3 0 6.5t0 6.5 0 6q5 0 10 0t9 0q5 0 9.5 0t9.5 0q0-3 0-6t0-6.5 0-6.5q0-4 0-9t0-10q-5 0-9.5 0t-9.5 0z"/><path transform="translate(55.328 16.08) scale(.016 -.016)" d="m57 38q-4 0-9 0t-10 0q0 5 0 10t0 9q0 3 0 6.5t0 6.5 0 6q5 0 10 0t9 0q5 0 9.5 0t9.5 0q0-3 0-6t0-6.5 0-6.5q0-4 0-9t0-10q-5 0-9.5 0t-9.5 0zm0-38q-4 0-9 0t-10 0q0 5 0 10t0 9q0 3 0 6.5t0 6.5 0 6q5 0 10 0t9 0q5 0 9.5 0t9.5 0q0-3 0-6t0-6.5 0-6.5q0-4 0-9t0-10q-5 0-9.5 0t-9.5 0zm38 0q-4 0-9 0t-10 0q0 5 0 10t0 9q0 3 0 6.5t0 6.5 0 6q5 0 10 0t9 0q5 0 9.5 0t9.5 0q0-3 0-6t0-6.5 0-6.5q0-4 0-9t0-10q-5 0-9.5 0t-9.5 0zm0 38q-4 0-9 0t-10 0q0 5 0 10t0 9q0 3 0 6.5t0 6.5 0 6q5 0 10 0t9 0q5 0 9.5 0t9.5 0q0-3 0-6t0-6.5 0-6.5q0-4 0-9t0-10q-5 0-9.5 0t-9.5 0zm38 0q-4 0-9 0t-10 0q0 5 0 10t0 9q0 3 0 6.5t0 6.5 0 6q5 0 10 0t9 0q5 0 9.5 0t9.5 0q0-3 0-6t0-6.5 0-6.5q0-4 0-9t0-10q-5 0-9.5 0t-9.5 0zm0-38q-4 0-9 0t-10 0q0 5 0 10t0 9q0 3 0 6.5t0 6.5 0 6q5 0 10 0t9 0q5 0 9.5 0t9.5 0q0-3 0-6t0-6.5 0-6.5q0-4 0-9t0-10q-5 0-9.5 0t-9.5 0zm38 0q-4 0-9 0t-10 0q0 5 0 10t0 9q0 3 0 6.5t0 6.5 0 6q5 0 10 0t9 0q5 0 9.5 0t9.5 0q0-3 0-6t0-6.5 0-6.5q0-4 0-9t0-10q-5 0-9.5 0t-9.5 0zm38 0q-4 0-9 0t-10 0q0 5 0 10t0 9q0 3 0 6.5t0 6.5 0 6q5 0 10 0t9 0q5 0 9.5 0t9.5 0q0-3 0-6t0-6.5 0-6.5q0-4 0-9t0-10q-5 0-9.5 0t-9.5 0zm0 38q-4 0-9 0t-10 0q0 5 0 10t0 9q0 3 0 6.5t0 6.5 0 6q5 0 10 0t9 0q5 0 9.5 0t9.5 0q0-3 0-6t0-6.5 0-6.5q0-4 0-9t0-10q-5 0-9.5 0t-9.5 0zm-38 0q-4 0-9 0t-10 0q0 5 0 10t0 9q0 3 0 6.5t0 6.5 0 6q5 0 10 0t9 0q5 0 9.5 0t9.5 0q0-3 0-6t0-6.5 0-6.5q0-4 0-9t0-10q-5 0-9.5 0t-9.5 0zm76 0q-4 0-9 0t-10 0q0 5 0 10t0 9q0 3 0 6.5t0 6.5 0 6q5 0 10 0t9 0q5 0 9.5 0t9.5 0q0-3 0-6t0-6.5 0-6.5q0-4 0-9t0-10q-5 0-9.5 0t-9.5 0zm38 0q-4 0-9 0t-10 0q0 5 0 10t0 9q0 3 0 6.5t0 6.5 0 6q5 0 10 0t9 0q5 0 9.5 0t9.5 0q0-3 0-6t0-6.5 0-6.5q0-4 0-9t0-10q-5 0-9.5 0t-9.5 0zm0-38q-4 0-9 0t-10 0q0 5 0 10t0 9q0 3 0 6.5t0 6.5 0 6q5 0 10 0t9 0q5 0 9.5 0t9.5 0q0-3 0-6t0-6.5 0-6.5q0-4 0-9t0-10q-5 0-9.5 0t-9.5 0zm-38 0q-4 0-9 0t-10 0q0 5 0 10t0 9q0 3 0 6.5t0 6.5 0 6q5 0 10 0t9 0q5 0 9.5 0t9.5 0q0-3 0-6t0-6.5 0-6.5q0-4 0-9t0-10q-5 0-9.5 0t-9.5 0zm-76 76q-4 0-9 0t-10 0q0 5 0 10t0 9q0 3 0 6.5t0 6.5 0 6q5 0 10 0t9 0q5 0 9.5 0t9.5 0q0-3 0-6t0-6.5 0-6.5q0-4 0-9t0-10q-5 0-9.5 0t-9.5 0zm38 0q-4 0-9 0t-10 0q0 5 0 10t0 9q0 3 0 6.5t0 6.5 0 6q5 0 10 0t9 0q5 0 9.5 0t9.5 0q0-3 0-6t0-6.5 0-6.5q0-4 0-9t0-10q-5 0-9.5 0t-9.5 0zm0 38q-4 0-9 0t-10 0q0 5 0 10t0 9q0 3 0 6.5t0 6.5 0 6q5 0 10 0t9 0q5 0 9.5 0t9.5 0q0-3 0-6t0-6.5 0-6.5q0-4 0-9t0-10q-5 0-9.5 0t-9.5 0zm-38 0q-4 0-9 0t-10 0q0 5 0 10t0 9q0 3 0 6.5t0 6.5 0 6q5 0 10 0t9 0q5 0 9.5 0t9.5 0q0-3 0-6t0-6.5 0-6.5q0-4 0-9t0-10q-5 0-9.5 0t-9.5 0zm0 38q-4 0-9 0t-10 0q0 5 0 10t0 9q0 3 0 6.5t0 6.5 0 6q5 0 10 0t9 0q5 0 9.5 0t9.5 0q0-3 0-6t0-6.5 0-6.5q0-4 0-9t0-10q-5 0-9.5 0t-9.5 0zm38 0q-4 0-9 0t-10 0q0 5 0 10t0 9q0 3 0 6.5t0 6.5 0 6q5 0 10 0t9 0q5 0 9.5 0t9.5 0q0-3 0-6t0-6.5 0-6.5q0-4 0-9t0-10q-5 0-9.5 0t-9.5 0zm0 38q-4 0-9 0t-10 0q0 5 0 10t0 9q0 3 0 6.5t0 6.5 0 6q5 0 10 0t9 0q5 0 9.5 0t9.5 0q0-3 0-6t0-6.5 0-6.5q0-4 0-9t0-10q-5 0-9.5 0t-9.5 0zm0 38q-4 0-9 0t-10 0q0 5 0 10t0 9q0 3 0 6.5t0 6.5 0 6q5 0 10 0t9 0q5 0 9.5 0t9.5 0q0-3 0-6t0-6.5 0-6.5q0-4 0-9t0-10q-5 0-9.5 0t-9.5 0zm-38-38q-4 0-9 0t-10 0q0 5 0 10t0 9q0 3 0 6.5t0 6.5 0 6q5 0 10 0t9 0q5 0 9.5 0t9.5 0q0-3 0-6t0-6.5 0-6.5q0-4 0-9t0-10q-5 0-9.5 0t-9.5 0zm0 38q-4 0-9 0t-10 0q0 5 0 10t0 9q0 3 0 6.5t0 6.5 0 6q5 0 10 0t9 0q5 0 9.5 0t9.5 0q0-3 0-6t0-6.5 0-6.5q0-4 0-9t0-10q-5 0-9.5 0t-9.5 0zm0 38q-4 0-9 0t-10 0q0 5 0 10t0 9q0 3 0 6.5t0 6.5 0 6q5 0 10 0t9 0q5 0 9.5 0t9.5 0q0-3 0-6t0-6.5 0-6.5q0-4 0-9t0-10q-5 0-9.5 0t-9.5 0zm0 38q-4 0-9 0t-10 0q0 5 0 10t0 9q0 3 0 6.5t0 6.5 0 6q5 0 10 0t9 0q5 0 9.5 0t9.5 0q0-3 0-6t0-6.5 0-6.5q0-4 0-9t0-10q-5 0-9.5 0t-9.5 0zm0 38q-4 0-9 0t-10 0q0 5 0 10t0 9q0 3 0 6.5t0 6.5 0 6q5 0 10 0t9 0q5 0 9.5 0t9.5 0q0-3 0-6t0-6.5 0-6.5q0-4 0-9t0-10q-5 0-9.5 0t-9.5 0zm0 38q-4 0-9 0t-10 0q0 5 0 10t0 9q0 3 0 6.5t0 6.5 0 6q5 0 10 0t9 0q5 0 9.5 0t9.5 0q0-3 0-6t0-6.5 0-6.5q0-4 0-9t0-10q-5 0-9.5 0t-9.5 0zm0 38q-4 0-9 0t-10 0q0 5 0 10t0 9q0 3 0 6.5t0 6.5 0 6q5 0 10 0t9 0q5 0 9.5 0t9.5 0q0-3 0-6t0-6.5 0-6.5q0-4 0-9t0-10q-5 0-9.5 0t-9.5 0zm0 38q-4 0-9 0t-10 0q0 5 0 10t0 9q0 3 0 6.5t0 6.5 0 6q5 0 10 0t9 0q5 0 9.5 0t9.5 0q0-3 0-6t0-6.5 0-6.5q0-4 0-9t0-10q-5 0-9.5 0t-9.5 0zm0 38q-4 0-9 0t-10 0q0 5 0 10t0 9q0 3 0 6.5t0 6.5 0 6q5 0 10 0t9 0q5 0 9.5 0t9.5 0q0-3 0-6t0-6.5 0-6.5q0-4 0-9t0-10q-5 0-9.5 0t-9.5 0zm38 0q-4 0-9 0t-10 0q0 5 0 10t0 9q0 3 0 6.5t0 6.5 0 6q5 0 10 0t9 0q5 0 9.5 0t9.5 0q0-3 0-6t0-6.5 0-6.5q0-4 0-9t0-10q-5 0-9.5 0t-9.5 0zm0-38q-4 0-9 0t-10 0q0 5 0 10t0 9q0 3 0 6.5t0 6.5 0 6q5 0 10 0t9 0q5 0 9.5 0t9.5 0q0-3 0-6t0-6.5 0-6.5q0-4 0-9t0-10q-5 0-9.5 0t-9.5 0zm0-38q-4 0-9 0t-10 0q0 5 0 10t0 9q0 3 0 6.5t0 6.5 0 6q5 0 10 0t9 0q5 0 9.5 0t9.5 0q0-3 0-6t0-6.5 0-6.5q0-4 0-9t0-10q-5 0-9.5 0t-9.5 0zm0-38q-4 0-9 0t-10 0q0 5 0 10t0 9q0 3 0 6.5t0 6.5 0 6q5 0 10 0t9 0q5 0 9.5 0t9.5 0q0-3 0-6t0-6.5 0-6.5q0-4 0-9t0-10q-5 0-9.5 0t-9.5 0zm0-38q-4 0-9 0t-10 0q0 5 0 10t0 9q0 3 0 6.5t0 6.5 0 6q5 0 10 0t9 0q5 0 9.5 0t9.5 0q0-3 0-6t0-6.5 0-6.5q0-4 0-9t0-10q-5 0-9.5 0t-9.5 0zm0-38q-4 0-9 0t-10 0q0 5 0 10t0 9q0 3 0 6.5t0 6.5 0 6q5 0 10 0t9 0q5 0 9.5 0t9.5 0q0-3 0-6t0-6.5 0-6.5q0-4 0-9t0-10q-5 0-9.5 0t-9.5 0zm0-38q-4 0-9 0t-10 0q0 5 0 10t0 9q0 3 0 6.5t0 6.5 0 6q5 0 10 0t9 0q5 0 9.5 0t9.5 0q0-3 0-6t0-6.5 0-6.5q0-4 0-9t0-10q-5 0-9.5 0t-9.5 0zm-76 228q-4 0-9 0t-10 0q0 5 0 10t0 9q0 3 0 6.5t0 6.5 0 6q5 0 10 0t9 0q5 0 9.5 0t9.5 0q0-3 0-6t0-6.5 0-6.5q0-4 0-9t0-10q-5 0-9.5 0t-9.5 0zm0-38q-4 0-9 0t-10 0q0 5 0 10t0 9q0 3 0 6.5t0 6.5 0 6q5 0 10 0t9 0q5 0 9.5 0t9.5 0q0-3 0-6t0-6.5 0-6.5q0-4 0-9t0-10q-5 0-9.5 0t-9.5 0zm-38 38q-4 0-9 0t-10 0q0 5 0 10t0 9q0 3 0 6.5t0 6.5 0 6q5 0 10 0t9 0q5 0 9.5 0t9.5 0q0-3 0-6t0-6.5 0-6.5q0-4 0-9t0-10q-5 0-9.5 0t-9.5 0zm0-38q-4 0-9 0t-10 0q0 5 0 10t0 9q0 3 0 6.5t0 6.5 0 6q5 0 10 0t9 0q5 0 9.5 0t9.5 0q0-3 0-6t0-6.5 0-6.5q0-4 0-9t0-10q-5 0-9.5 0t-9.5 0zm-38 38q-4 0-9 0t-10 0q0 5 0 10t0 9q0 3 0 6.5t0 6.5 0 6q5 0 10 0t9 0q5 0 9.5 0t9.5 0q0-3 0-6t0-6.5 0-6.5q0-4 0-9t0-10q-5 0-9.5 0t-9.5 0zm0-38q-4 0-9 0t-10 0q0 5 0 10t0 9q0 3 0 6.5t0 6.5 0 6q5 0 10 0t9 0q5 0 9.5 0t9.5 0q0-3 0-6t0-6.5 0-6.5q0-4 0-9t0-10q-5 0-9.5 0t-9.5 0zm266-418q-4 0-9 0t-10 0q0 5 0 10t0 9q0 3 0 6.5t0 6.5 0 6q5 0 10 0t9 0q5 0 9.5 0t9.5 0q0-3 0-6t0-6.5 0-6.5q0-4 0-9t0-10q-5 0-9.5 0t-9.5 0zm0-38q-4 0-9 0t-10 0q0 5 0 10t0 9q0 3 0 6.5t0 6.5 0 6q5 0 10 0t9 0q5 0 9.5 0t9.5 0q0-3 0-6t0-6.5 0-6.5q0-4 0-9t0-10q-5 0-9.5 0t-9.5 0zm-114 684q-4 0-9 0t-10 0q0 5 0 10t0 9q0 3 0 6.5t0 6.5 0 6q5 0 10 0t9 0q5 0 9.5 0t9.5 0q0-3 0-6t0-6.5 0-6.5q0-4 0-9t0-10q-5 0-9.5 0t-9.5 0zm-38 0q-4 0-9 0t-10 0q0 5 0 10t0 9q0 3 0 6.5t0 6.5 0 6q5 0 10 0t9 0q5 0 9.5 0t9.5 0q0-3 0-6t0-6.5 0-6.5q0-4 0-9t0-10q-5 0-9.5 0t-9.5 0zm0-38q-4 0-9 0t-10 0q0 5 0 10t0 9q0 3 0 6.5t0 6.5 0 6q5 0 10 0t9 0q5 0 9.5 0t9.5 0q0-3 0-6t0-6.5 0-6.5q0-4 0-9t0-10q-5 0-9.5 0t-9.5 0zm38 0q-4 0-9 0t-10 0q0 5 0 10t0 9q0 3 0 6.5t0 6.5 0 6q5 0 10 0t9 0q5 0 9.5 0t9.5 0q0-3 0-6t0-6.5 0-6.5q0-4 0-9t0-10q-5 0-9.5 0t-9.5 0zm-38-38q-4 0-9 0t-10 0q0 5 0 10t0 9q0 3 0 6.5t0 6.5 0 6q5 0 10 0t9 0q5 0 9.5 0t9.5 0q0-3 0-6t0-6.5 0-6.5q0-4 0-9t0-10q-5 0-9.5 0t-9.5 0zm38 0q-4 0-9 0t-10 0q0 5 0 10t0 9q0 3 0 6.5t0 6.5 0 6q5 0 10 0t9 0q5 0 9.5 0t9.5 0q0-3 0-6t0-6.5 0-6.5q0-4 0-9t0-10q-5 0-9.5 0t-9.5 0z"/><path transform="translate(61.408 16.08) scale(.016 -.016)" d="m209 304q-4 0-9 0t-10 0q0 5 0 10t0 9q0 3 0 6.5t0 6.5 0 6q5 0 10 0t9 0q5 0 9.5 0t9.5 0q0-3 0-6t0-6.5 0-6.5q0-4 0-9t0-10q-5 0-9.5 0t-9.5 0zm-38 38q-4 0-9 0t-10 0q0 5 0 10t0 9q0 3 0 6.5t0 6.5 0 6q5 0 10 0t9 0q5 0 9.5 0t9.5 0q0-3 0-6t0-6.5 0-6.5q0-4 0-9t0-10q-5 0-9.5 0t-9.5 0zm38 0q-4 0-9 0t-10 0q0 5 0 10t0 9q0 3 0 6.5t0 6.5 0 6q5 0 10 0t9 0q5 0 9.5 0t9.5 0q0-3 0-6t0-6.5 0-6.5q0-4 0-9t0-10q-5 0-9.5 0t-9.5 0zm-114 76q-4 0-9 0t-10 0q0 5 0 10t0 9q0 3 0 6.5t0 6.5 0 6q5 0 10 0t9 0q5 0 9.5 0t9.5 0q0-3 0-6t0-6.5 0-6.5q0-4 0-9t0-10q-5 0-9.5 0t-9.5 0zm-38 38q-4 0-9 0t-10 0q0 5 0 10t0 9q0 3 0 6.5t0 6.5 0 6q5 0 10 0t9 0q5 0 9.5 0t9.5 0q0-3 0-6t0-6.5 0-6.5q0-4 0-9t0-10q-5 0-9.5 0t-9.5 0zm38 0q-4 0-9 0t-10 0q0 5 0 10t0 9q0 3 0 6.5t0 6.5 0 6q5 0 10 0t9 0q5 0 9.5 0t9.5 0q0-3 0-6t0-6.5 0-6.5q0-4 0-9t0-10q-5 0-9.5 0t-9.5 0zm-38 38q-4 0-9 0t-10 0q0 5 0 10t0 9q0 3 0 6.5t0 6.5 0 6q5 0 10 0t9 0q5 0 9.5 0t9.5 0q0-3 0-6t0-6.5 0-6.5q0-4 0-9t0-10q-5 0-9.5 0t-9.5 0zm38 0q-4 0-9 0t-10 0q0 5 0 10t0 9q0 3 0 6.5t0 6.5 0 6q5 0 10 0t9 0q5 0 9.5 0t9.5 0q0-3 0-6t0-6.5 0-6.5q0-4 0-9t0-10q-5 0-9.5 0t-9.5 0zm190-190q-4 0-9 0t-10 0q0 5 0 10t0 9q0 3 0 6.5t0 6.5 0 6q5 0 10 0t9 0q5 0 9.5 0t9.5 0q0-3 0-6t0-6.5 0-6.5q0-4 0-9t0-10q-5 0-9.5 0t-9.5 0zm0 38q-4 0-9 0t-10 0q0 5 0 10t0 9q0 3 0 6.5t0 6.5 0 6q5 0 10 0t9 0q5 0 9.5 0t9.5 0q0-3 0-6t0-6.5 0-6.5q0-4 0-9t0-10q-5 0-9.5 0t-9.5 0zm38 0q-4 0-9 0t-10 0q0 5 0 10t0 9q0 3 0 6.5t0 6.5 0 6q5 0 10 0t9 0q5 0 9.5 0t9.5 0q0-3 0-6t0-6.5 0-6.5q0-4 0-9t0-10q-5 0-9.5 0t-9.5 0zm0 38q-4 0-9 0t-10 0q0 5 0 10t0 9q0 3 0 6.5t0 6.5 0 6q5 0 10 0t9 0q5 0 9.5 0t9.5 0q0-3 0-6t0-6.5 0-6.5q0-4 0-9t0-10q-5 0-9.5 0t-9.5 0zm-152-76q-4 0-9 0t-10 0q0 5 0 10t0 9q0 3 0 6.5t0 6.5 0 6q5 0 10 0t9 0q5 0 9.5 0t9.5 0q0-3 0-6t0-6.5 0-6.5q0-4 0-9t0-10q-5 0-9.5 0t-9.5 0zm152 0q-4 0-9 0t-10 0q0 5 0 10t0 9q0 3 0 6.5t0 6.5 0 6q5 0 10 0t9 0q5 0 9.5 0t9.5 0q0-3 0-6t0-6.5 0-6.5q0-4 0-9t0-10q-5 0-9.5 0t-9.5 0zm38 76q-4 0-9 0t-10 0q0 5 0 10t0 9q0 3 0 6.5t0 6.5 0 6q5 0 10 0t9 0q5 0 9.5 0t9.5 0q0-3 0-6t0-6.5 0-6.5q0-4 0-9t0-10q-5 0-9.5 0t-9.5 0zm38 76q-4 0-9 0t-10 0q0 5 0 10t0 9q0 3 0 6.5t0 6.5 0 6q5 0 10 0t9 0q5 0 9.5 0t9.5 0q0-3 0-6t0-6.5 0-6.5q0-4 0-9t0-10q-5 0-9.5 0t-9.5 0zm0-38q-4 0-9 0t-10 0q0 5 0 10t0 9q0 3 0 6.5t0 6.5 0 6q5 0 10 0t9 0q5 0 9.5 0t9.5 0q0-3 0-6t0-6.5 0-6.5q0-4 0-9t0-10q-5 0-9.5 0t-9.5 0zm0 76q-4 0-9 0t-10 0q0 5 0 10t0 9q0 3 0 6.5t0 6.5 0 6q5 0 10 0t9 0q5 0 9.5 0t9.5 0q0-3 0-6t0-6.5 0-6.5q0-4 0-9t0-10q-5 0-9.5 0t-9.5 0zm38 0q-4 0-9 0t-10 0q0 5 0 10t0 9q0 3 0 6.5t0 6.5 0 6q5 0 10 0t9 0q5 0 9.5 0t9.5 0q0-3 0-6t0-6.5 0-6.5q0-4 0-9t0-10q-5 0-9.5 0t-9.5 0zm0-38q-4 0-9 0t-10 0q0 5 0 10t0 9q0 3 0 6.5t0 6.5 0 6q5 0 10 0t9 0q5 0 9.5 0t9.5 0q0-3 0-6t0-6.5 0-6.5q0-4 0-9t0-10q-5 0-9.5 0t-9.5 0zm-266-304q-4 0-9 0t-10 0q0 5 0 10t0 9q0 3 0 6.5t0 6.5 0 6q5 0 10 0t9 0q5 0 9.5 0t9.5 0q0-3 0-6t0-6.5 0-6.5q0-4 0-9t0-10q-5 0-9.5 0t-9.5 0zm-38-38q-4 0-9 0t-10 0q0 5 0 10t0 9q0 3 0 6.5t0 6.5 0 6q5 0 10 0t9 0q5 0 9.5 0t9.5 0q0-3 0-6t0-6.5 0-6.5q0-4 0-9t0-10q-5 0-9.5 0t-9.5 0zm-38-38q-4 0-9 0t-10 0q0 5 0 10t0 9q0 3 0 6.5t0 6.5 0 6q5 0 10 0t9 0q5 0 9.5 0t9.5 0q0-3 0-6t0-6.5 0-6.5q0-4 0-9t0-10q-5 0-9.5 0t-9.5 0zm0-38q-4 0-9 0t-10 0q0 5 0 10t0 9q0 3 0 6.5t0 6.5 0 6q5 0 10 0t9 0q5 0 9.5 0t9.5 0q0-3 0-6t0-6.5 0-6.5q0-4 0-9t0-10q-5 0-9.5 0t-9.5 0zm-38 0q-4 0-9 0t-10 0q0 5 0 10t0 9q0 3 0 6.5t0 6.5 0 6q5 0 10 0t9 0q5 0 9.5 0t9.5 0q0-3 0-6t0-6.5 0-6.5q0-4 0-9t0-10q-5 0-9.5 0t-9.5 0zm0-38q-4 0-9 0t-10 0q0 5 0 10t0 9q0 3 0 6.5t0 6.5 0 6q5 0 10 0t9 0q5 0 9.5 0t9.5 0q0-3 0-6t0-6.5 0-6.5q0-4 0-9t0-10q-5 0-9.5 0t-9.5 0zm38 0q-4 0-9 0t-10 0q0 5 0 10t0 9q0 3 0 6.5t0 6.5 0 6q5 0 10 0t9 0q5 0 9.5 0t9.5 0q0-3 0-6t0-6.5 0-6.5q0-4 0-9t0-10q-5 0-9.5 0t-9.5 0zm76 190q-4 0-9 0t-10 0q0 5 0 10t0 9q0 3 0 6.5t0 6.5 0 6q5 0 10 0t9 0q5 0 9.5 0t9.5 0q0-3 0-6t0-6.5 0-6.5q0-4 0-9t0-10q-5 0-9.5 0t-9.5 0zm114 0q-4 0-9 0t-10 0q0 5 0 10t0 9q0 3 0 6.5t0 6.5 0 6q5 0 10 0t9 0q5 0 9.5 0t9.5 0q0-3 0-6t0-6.5 0-6.5q0-4 0-9t0-10q-5 0-9.5 0t-9.5 0zm38 0q-4 0-9 0t-10 0q0 5 0 10t0 9q0 3 0 6.5t0 6.5 0 6q5 0 10 0t9 0q5 0 9.5 0t9.5 0q0-3 0-6t0-6.5 0-6.5q0-4 0-9t0-10q-5 0-9.5 0t-9.5 0zm0-38q-4 0-9 0t-10 0q0 5 0 10t0 9q0 3 0 6.5t0 6.5 0 6q5 0 10 0t9 0q5 0 9.5 0t9.5 0q0-3 0-6t0-6.5 0-6.5q0-4 0-9t0-10q-5 0-9.5 0t-9.5 0zm38-38q-4 0-9 0t-10 0q0 5 0 10t0 9q0 3 0 6.5t0 6.5 0 6q5 0 10 0t9 0q5 0 9.5 0t9.5 0q0-3 0-6t0-6.5 0-6.5q0-4 0-9t0-10q-5 0-9.5 0t-9.5 0zm38-38q-4 0-9 0t-10 0q0 5 0 10t0 9q0 3 0 6.5t0 6.5 0 6q5 0 10 0t9 0q5 0 9.5 0t9.5 0q0-3 0-6t0-6.5 0-6.5q0-4 0-9t0-10q-5 0-9.5 0t-9.5 0zm0-38q-4 0-9 0t-10 0q0 5 0 10t0 9q0 3 0 6.5t0 6.5 0 6q5 0 10 0t9 0q5 0 9.5 0t9.5 0q0-3 0-6t0-6.5 0-6.5q0-4 0-9t0-10q-5 0-9.5 0t-9.5 0zm38 0q-4 0-9 0t-10 0q0 5 0 10t0 9q0 3 0 6.5t0 6.5 0 6q5 0 10 0t9 0q5 0 9.5 0t9.5 0q0-3 0-6t0-6.5 0-6.5q0-4 0-9t0-10q-5 0-9.5 0t-9.5 0zm0-38q-4 0-9 0t-10 0q0 5 0 10t0 9q0 3 0 6.5t0 6.5 0 6q5 0 10 0t9 0q5 0 9.5 0t9.5 0q0-3 0-6t0-6.5 0-6.5q0-4 0-9t0-10q-5 0-9.5 0t-9.5 0zm-38 0q-4 0-9 0t-10 0q0 5 0 10t0 9q0 3 0 6.5t0 6.5 0 6q5 0 10 0t9 0q5 0 9.5 0t9.5 0q0-3 0-6t0-6.5 0-6.5q0-4 0-9t0-10q-5 0-9.5 0t-9.5 0zm-342 418q-4 0-9 0t-10 0q0 5 0 10t0 9q0 3 0 6.5t0 6.5 0 6q5 0 10 0t9 0q5 0 9.5 0t9.5 0q0-3 0-6t0-6.5 0-6.5q0-4 0-9t0-10q-5 0-9.5 0t-9.5 0zm76 0q-4 0-9 0t-10 0q0 5 0 10t0 9q0 3 0 6.5t0 6.5 0 6q5 0 10 0t9 0q5 0 9.5 0t9.5 0q0-3 0-6t0-6.5 0-6.5q0-4 0-9t0-10q-5 0-9.5 0t-9.5 0zm304 0q-4 0-9 0t-10 0q0 5 0 10t0 9q0 3 0 6.5t0 6.5 0 6q5 0 10 0t9 0q5 0 9.5 0t9.5 0q0-3 0-6t0-6.5 0-6.5q0-4 0-9t0-10q-5 0-9.5 0t-9.5 0zm-380-342q-4 0-9 0t-10 0q0 5 0 10t0 9q0 3 0 6.5t0 6.5 0 6q5 0 10 0t9 0q5 0 9.5 0t9.5 0q0-3 0-6t0-6.5 0-6.5q0-4 0-9t0-10q-5 0-9.5 0t-9.5 0zm380 0q-4 0-9 0t-10 0q0 5 0 10t0 9q0 3 0 6.5t0 6.5 0 6q5 0 10 0t9 0q5 0 9.5 0t9.5 0q0-3 0-6t0-6.5 0-6.5q0-4 0-9t0-10q-5 0-9.5 0t-9.5 0zm-342 38q-4 0-9 0t-10 0q0 5 0 10t0 9q0 3 0 6.5t0 6.5 0 6q5 0 10 0t9 0q5 0 9.5 0t9.5 0q0-3 0-6t0-6.5 0-6.5q0-4 0-9t0-10q-5 0-9.5 0t-9.5 0zm38-38q-4 0-9 0t-10 0q0 5 0 10t0 9q0 3 0 6.5t0 6.5 0 6q5 0 10 0t9 0q5 0 9.5 0t9.5 0q0-3 0-6t0-6.5 0-6.5q0-4 0-9t0-10q-5 0-9.5 0t-9.5 0zm76 114q-4 0-9 0t-10 0q0 5 0 10t0 9q0 3 0 6.5t0 6.5 0 6q5 0 10 0t9 0q5 0 9.5 0t9.5 0q0-3 0-6t0-6.5 0-6.5q0-4 0-9t0-10q-5 0-9.5 0t-9.5 0zm152-114q-4 0-9 0t-10 0q0 5 0 10t0 9q0 3 0 6.5t0 6.5 0 6q5 0 10 0t9 0q5 0 9.5 0t9.5 0q0-3 0-6t0-6.5 0-6.5q0-4 0-9t0-10q-5 0-9.5 0t-9.5 0zm38 38q-4 0-9 0t-10 0q0 5 0 10t0 9q0 3 0 6.5t0 6.5 0 6q5 0 10 0t9 0q5 0 9.5 0t9.5 0q0-3 0-6t0-6.5 0-6.5q0-4 0-9t0-10q-5 0-9.5 0t-9.5 0zm-190 38q-4 0-9 0t-10 0q0 5 0 10t0 9q0 3 0 6.5t0 6.5 0 6q5 0 10 0t9 0q5 0 9.5 0t9.5 0q0-3 0-6t0-6.5 0-6.5q0-4 0-9t0-10q-5 0-9.5 0t-9.5 0zm76 0q-4 0-9 0t-10 0q0 5 0 10t0 9q0 3 0 6.5t0 6.5 0 6q5 0 10 0t9 0q5 0 9.5 0t9.5 0q0-3 0-6t0-6.5 0-6.5q0-4 0-9t0-10q-5 0-9.5 0t-9.5 0zm-152 228q-4 0-9 0t-10 0q0 5 0 10t0 9q0 3 0 6.5t0 6.5 0 6q5 0 10 0t9 0q5 0 9.5 0t9.5 0q0-3 0-6t0-6.5 0-6.5q0-4 0-9t0-10q-5 0-9.5 0t-9.5 0zm-38 0q-4 0-9 0t-10 0q0 5 0 10t0 9q0 3 0 6.5t0 6.5 0 6q5 0 10 0t9 0q5 0 9.5 0t9.5 0q0-3 0-6t0-6.5 0-6.5q0-4 0-9t0-10q-5 0-9.5 0t-9.5 0zm266 38q-4 0-9 0t-10 0q0 5 0 10t0 9q0 3 0 6.5t0 6.5 0 6q5 0 10 0t9 0q5 0 9.5 0t9.5 0q0-3 0-6t0-6.5 0-6.5q0-4 0-9t0-10q-5 0-9.5 0t-9.5 0zm38-38q-4 0-9 0t-10 0q0 5 0 10t0 9q0 3 0 6.5t0 6.5 0 6q5 0 10 0t9 0q5 0 9.5 0t9.5 0q0-3 0-6t0-6.5 0-6.5q0-4 0-9t0-10q-5 0-9.5 0t-9.5 0zm-228 0q-4 0-9 0t-10 0q0 5 0 10t0 9q0 3 0 6.5t0 6.5 0 6q5 0 10 0t9 0q5 0 9.5 0t9.5 0q0-3 0-6t0-6.5 0-6.5q0-4 0-9t0-10q-5 0-9.5 0t-9.5 0zm-38-228q-4 0-9 0t-10 0q0 5 0 10t0 9q0 3 0 6.5t0 6.5 0 6q5 0 10 0t9 0q5 0 9.5 0t9.5 0q0-3 0-6t0-6.5 0-6.5q0-4 0-9t0-10q-5 0-9.5 0t-9.5 0zm228 0q-4 0-9 0t-10 0q0 5 0 10t0 9q0 3 0 6.5t0 6.5 0 6q5 0 10 0t9 0q5 0 9.5 0t9.5 0q0-3 0-6t0-6.5 0-6.5q0-4 0-9t0-10q-5 0-9.5 0t-9.5 0zm-228 190q-4 0-9 0t-10 0q0 5 0 10t0 9q0 3 0 6.5t0 6.5 0 6q5 0 10 0t9 0q5 0 9.5 0t9.5 0q0-3 0-6t0-6.5 0-6.5q0-4 0-9t0-10q-5 0-9.5 0t-9.5 0zm228 0q-4 0-9 0t-10 0q0 5 0 10t0 9q0 3 0 6.5t0 6.5 0 6q5 0 10 0t9 0q5 0 9.5 0t9.5 0q0-3 0-6t0-6.5 0-6.5q0-4 0-9t0-10q-5 0-9.5 0t-9.5 0zm-114-76q-4 0-9 0t-10 0q0 5 0 10t0 9q0 3 0 6.5t0 6.5 0 6q5 0 10 0t9 0q5 0 9.5 0t9.5 0q0-3 0-6t0-6.5 0-6.5q0-4 0-9t0-10q-5 0-9.5 0t-9.5 0zm0-38q-4 0-9 0t-10 0q0 5 0 10t0 9q0 3 0 6.5t0 6.5 0 6q5 0 10 0t9 0q5 0 9.5 0t9.5 0q0-3 0-6t0-6.5 0-6.5q0-4 0-9t0-10q-5 0-9.5 0t-9.5 0zm38 38q-4 0-9 0t-10 0q0 5 0 10t0 9q0 3 0 6.5t0 6.5 0 6q5 0 10 0t9 0q5 0 9.5 0t9.5 0q0-3 0-6t0-6.5 0-6.5q0-4 0-9t0-10q-5 0-9.5 0t-9.5 0zm0-38q-4 0-9 0t-10 0q0 5 0 10t0 9q0 3 0 6.5t0 6.5 0 6q5 0 10 0t9 0q5 0 9.5 0t9.5 0q0-3 0-6t0-6.5 0-6.5q0-4 0-9t0-10q-5 0-9.5 0t-9.5 0zm-76 38q-4 0-9 0t-10 0q0 5 0 10t0 9q0 3 0 6.5t0 6.5 0 6q5 0 10 0t9 0q5 0 9.5 0t9.5 0q0-3 0-6t0-6.5 0-6.5q0-4 0-9t0-10q-5 0-9.5 0t-9.5 0zm0-38q-4 0-9 0t-10 0q0 5 0 10t0 9q0 3 0 6.5t0 6.5 0 6q5 0 10 0t9 0q5 0 9.5 0t9.5 0q0-3 0-6t0-6.5 0-6.5q0-4 0-9t0-10q-5 0-9.5 0t-9.5 0z"/><path transform="translate(69.312 16.08) scale(.016 -.016)" d="m57 266q-4 0-9 0t-10 0q0 5 0 10t0 9q0 3 0 6.5t0 6.5 0 6q5 0 10 0t9 0q5 0 9.5 0t9.5 0q0-3 0-6t0-6.5 0-6.5q0-4 0-9t0-10q-5 0-9.5 0t-9.5 0zm0-38q-4 0-9 0t-10 0q0 5 0 10t0 9q0 3 0 6.5t0 6.5 0 6q5 0 10 0t9 0q5 0 9.5 0t9.5 0q0-3 0-6t0-6.5 0-6.5q0-4 0-9t0-10q-5 0-9.5 0t-9.5 0zm38 152q-4 0-9 0t-10 0q0 5 0 10t0 9q0 3 0 6.5t0 6.5 0 6q5 0 10 0t9 0q5 0 9.5 0t9.5 0q0-3 0-6t0-6.5 0-6.5q0-4 0-9t0-10q-5 0-9.5 0t-9.5 0zm-38-38q-4 0-9 0t-10 0q0 5 0 10t0 9q0 3 0 6.5t0 6.5 0 6q5 0 10 0t9 0q5 0 9.5 0t9.5 0q0-3 0-6t0-6.5 0-6.5q0-4 0-9t0-10q-5 0-9.5 0t-9.5 0zm38 0q-4 0-9 0t-10 0q0 5 0 10t0 9q0 3 0 6.5t0 6.5 0 6q5 0 10 0t9 0q5 0 9.5 0t9.5 0q0-3 0-6t0-6.5 0-6.5q0-4 0-9t0-10q-5 0-9.5 0t-9.5 0zm0-38q-4 0-9 0t-10 0q0 5 0 10t0 9q0 3 0 6.5t0 6.5 0 6q5 0 10 0t9 0q5 0 9.5 0t9.5 0q0-3 0-6t0-6.5 0-6.5q0-4 0-9t0-10q-5 0-9.5 0t-9.5 0zm-38 0q-4 0-9 0t-10 0q0 5 0 10t0 9q0 3 0 6.5t0 6.5 0 6q5 0 10 0t9 0q5 0 9.5 0t9.5 0q0-3 0-6t0-6.5 0-6.5q0-4 0-9t0-10q-5 0-9.5 0t-9.5 0zm0-152q-4 0-9 0t-10 0q0 5 0 10t0 9q0 3 0 6.5t0 6.5 0 6q5 0 10 0t9 0q5 0 9.5 0t9.5 0q0-3 0-6t0-6.5 0-6.5q0-4 0-9t0-10q-5 0-9.5 0t-9.5 0zm0 38q-4 0-9 0t-10 0q0 5 0 10t0 9q0 3 0 6.5t0 6.5 0 6q5 0 10 0t9 0q5 0 9.5 0t9.5 0q0-3 0-6t0-6.5 0-6.5q0-4 0-9t0-10q-5 0-9.5 0t-9.5 0zm38 76q-4 0-9 0t-10 0q0 5 0 10t0 9q0 3 0 6.5t0 6.5 0 6q5 0 10 0t9 0q5 0 9.5 0t9.5 0q0-3 0-6t0-6.5 0-6.5q0-4 0-9t0-10q-5 0-9.5 0t-9.5 0zm0-38q-4 0-9 0t-10 0q0 5 0 10t0 9q0 3 0 6.5t0 6.5 0 6q5 0 10 0t9 0q5 0 9.5 0t9.5 0q0-3 0-6t0-6.5 0-6.5q0-4 0-9t0-10q-5 0-9.5 0t-9.5 0zm0-38q-4 0-9 0t-10 0q0 5 0 10t0 9q0 3 0 6.5t0 6.5 0 6q5 0 10 0t9 0q5 0 9.5 0t9.5 0q0-3 0-6t0-6.5 0-6.5q0-4 0-9t0-10q-5 0-9.5 0t-9.5 0zm0-38q-4 0-9 0t-10 0q0 5 0 10t0 9q0 3 0 6.5t0 6.5 0 6q5 0 10 0t9 0q5 0 9.5 0t9.5 0q0-3 0-6t0-6.5 0-6.5q0-4 0-9t0-10q-5 0-9.5 0t-9.5 0zm0-38q-4 0-9 0t-10 0q0 5 0 10t0 9q0 3 0 6.5t0 6.5 0 6q5 0 10 0t9 0q5 0 9.5 0t9.5 0q0-3 0-6t0-6.5 0-6.5q0-4 0-9t0-10q-5 0-9.5 0t-9.5 0zm0-38q-4 0-9 0t-10 0q0 5 0 10t0 9q0 3 0 6.5t0 6.5 0 6q5 0 10 0t9 0q5 0 9.5 0t9.5 0q0-3 0-6t0-6.5 0-6.5q0-4 0-9t0-10q-5 0-9.5 0t-9.5 0zm38 0q-4 0-9 0t-10 0q0 5 0 10t0 9q0 3 0 6.5t0 6.5 0 6q5 0 10 0t9 0q5 0 9.5 0t9.5 0q0-3 0-6t0-6.5 0-6.5q0-4 0-9t0-10q-5 0-9.5 0t-9.5 0zm0 38q-4 0-9 0t-10 0q0 5 0 10t0 9q0 3 0 6.5t0 6.5 0 6q5 0 10 0t9 0q5 0 9.5 0t9.5 0q0-3 0-6t0-6.5 0-6.5q0-4 0-9t0-10q-5 0-9.5 0t-9.5 0zm0 304q-4 0-9 0t-10 0q0 5 0 10t0 9q0 3 0 6.5t0 6.5 0 6q5 0 10 0t9 0q5 0 9.5 0t9.5 0q0-3 0-6t0-6.5 0-6.5q0-4 0-9t0-10q-5 0-9.5 0t-9.5 0zm-38 0q-4 0-9 0t-10 0q0 5 0 10t0 9q0 3 0 6.5t0 6.5 0 6q5 0 10 0t9 0q5 0 9.5 0t9.5 0q0-3 0-6t0-6.5 0-6.5q0-4 0-9t0-10q-5 0-9.5 0t-9.5 0zm38 38q-4 0-9 0t-10 0q0 5 0 10t0 9q0 3 0 6.5t0 6.5 0 6q5 0 10 0t9 0q5 0 9.5 0t9.5 0q0-3 0-6t0-6.5 0-6.5q0-4 0-9t0-10q-5 0-9.5 0t-9.5 0zm38 38q-4 0-9 0t-10 0q0 5 0 10t0 9q0 3 0 6.5t0 6.5 0 6q5 0 10 0t9 0q5 0 9.5 0t9.5 0q0-3 0-6t0-6.5 0-6.5q0-4 0-9t0-10q-5 0-9.5 0t-9.5 0zm38 0q-4 0-9 0t-10 0q0 5 0 10t0 9q0 3 0 6.5t0 6.5 0 6q5 0 10 0t9 0q5 0 9.5 0t9.5 0q0-3 0-6t0-6.5 0-6.5q0-4 0-9t0-10q-5 0-9.5 0t-9.5 0zm38 0q-4 0-9 0t-10 0q0 5 0 10t0 9q0 3 0 6.5t0 6.5 0 6q5 0 10 0t9 0q5 0 9.5 0t9.5 0q0-3 0-6t0-6.5 0-6.5q0-4 0-9t0-10q-5 0-9.5 0t-9.5 0zm38 0q-4 0-9 0t-10 0q0 5 0 10t0 9q0 3 0 6.5t0 6.5 0 6q5 0 10 0t9 0q5 0 9.5 0t9.5 0q0-3 0-6t0-6.5 0-6.5q0-4 0-9t0-10q-5 0-9.5 0t-9.5 0zm-38-38q-4 0-9 0t-10 0q0 5 0 10t0 9q0 3 0 6.5t0 6.5 0 6q5 0 10 0t9 0q5 0 9.5 0t9.5 0q0-3 0-6t0-6.5 0-6.5q0-4 0-9t0-10q-5 0-9.5 0t-9.5 0zm-38 0q-4 0-9 0t-10 0q0 5 0 10t0 9q0 3 0 6.5t0 6.5 0 6q5 0 10 0t9 0q5 0 9.5 0t9.5 0q0-3 0-6t0-6.5 0-6.5q0-4 0-9t0-10q-5 0-9.5 0t-9.5 0zm76 0q-4 0-9 0t-10 0q0 5 0 10t0 9q0 3 0 6.5t0 6.5 0 6q5 0 10 0t9 0q5 0 9.5 0t9.5 0q0-3 0-6t0-6.5 0-6.5q0-4 0-9t0-10q-5 0-9.5 0t-9.5 0zm0-418q-4 0-9 0t-10 0q0 5 0 10t0 9q0 3 0 6.5t0 6.5 0 6q5 0 10 0t9 0q5 0 9.5 0t9.5 0q0-3 0-6t0-6.5 0-6.5q0-4 0-9t0-10q-5 0-9.5 0t-9.5 0zm0-38q-4 0-9 0t-10 0q0 5 0 10t0 9q0 3 0 6.5t0 6.5 0 6q5 0 10 0t9 0q5 0 9.5 0t9.5 0q0-3 0-6t0-6.5 0-6.5q0-4 0-9t0-10q-5 0-9.5 0t-9.5 0zm-38 0q-4 0-9 0t-10 0q0 5 0 10t0 9q0 3 0 6.5t0 6.5 0 6q5 0 10 0t9 0q5 0 9.5 0t9.5 0q0-3 0-6t0-6.5 0-6.5q0-4 0-9t0-10q-5 0-9.5 0t-9.5 0zm0 38q-4 0-9 0t-10 0q0 5 0 10t0 9q0 3 0 6.5t0 6.5 0 6q5 0 10 0t9 0q5 0 9.5 0t9.5 0q0-3 0-6t0-6.5 0-6.5q0-4 0-9t0-10q-5 0-9.5 0t-9.5 0zm-38 0q-4 0-9 0t-10 0q0 5 0 10t0 9q0 3 0 6.5t0 6.5 0 6q5 0 10 0t9 0q5 0 9.5 0t9.5 0q0-3 0-6t0-6.5 0-6.5q0-4 0-9t0-10q-5 0-9.5 0t-9.5 0zm0-38q-4 0-9 0t-10 0q0 5 0 10t0 9q0 3 0 6.5t0 6.5 0 6q5 0 10 0t9 0q5 0 9.5 0t9.5 0q0-3 0-6t0-6.5 0-6.5q0-4 0-9t0-10q-5 0-9.5 0t-9.5 0zm-38 0q-4 0-9 0t-10 0q0 5 0 10t0 9q0 3 0 6.5t0 6.5 0 6q5 0 10 0t9 0q5 0 9.5 0t9.5 0q0-3 0-6t0-6.5 0-6.5q0-4 0-9t0-10q-5 0-9.5 0t-9.5 0zm0 38q-4 0-9 0t-10 0q0 5 0 10t0 9q0 3 0 6.5t0 6.5 0 6q5 0 10 0t9 0q5 0 9.5 0t9.5 0q0-3 0-6t0-6.5 0-6.5q0-4 0-9t0-10q-5 0-9.5 0t-9.5 0zm266 38q-4 0-9 0t-10 0q0 5 0 10t0 9q0 3 0 6.5t0 6.5 0 6q5 0 10 0t9 0q5 0 9.5 0t9.5 0q0-3 0-6t0-6.5 0-6.5q0-4 0-9t0-10q-5 0-9.5 0t-9.5 0zm-76-38q-4 0-9 0t-10 0q0 5 0 10t0 9q0 3 0 6.5t0 6.5 0 6q5 0 10 0t9 0q5 0 9.5 0t9.5 0q0-3 0-6t0-6.5 0-6.5q0-4 0-9t0-10q-5 0-9.5 0t-9.5 0zm0-38q-4 0-9 0t-10 0q0 5 0 10t0 9q0 3 0 6.5t0 6.5 0 6q5 0 10 0t9 0q5 0 9.5 0t9.5 0q0-3 0-6t0-6.5 0-6.5q0-4 0-9t0-10q-5 0-9.5 0t-9.5 0zm-38 0q-4 0-9 0t-10 0q0 5 0 10t0 9q0 3 0 6.5t0 6.5 0 6q5 0 10 0t9 0q5 0 9.5 0t9.5 0q0-3 0-6t0-6.5 0-6.5q0-4 0-9t0-10q-5 0-9.5 0t-9.5 0zm0 38q-4 0-9 0t-10 0q0 5 0 10t0 9q0 3 0 6.5t0 6.5 0 6q5 0 10 0t9 0q5 0 9.5 0t9.5 0q0-3 0-6t0-6.5 0-6.5q0-4 0-9t0-10q-5 0-9.5 0t-9.5 0zm0 456q-4 0-9 0t-10 0q0 5 0 10t0 9q0 3 0 6.5t0 6.5 0 6q5 0 10 0t9 0q5 0 9.5 0t9.5 0q0-3 0-6t0-6.5 0-6.5q0-4 0-9t0-10q-5 0-9.5 0t-9.5 0zm0-38q-4 0-9 0t-10 0q0 5 0 10t0 9q0 3 0 6.5t0 6.5 0 6q5 0 10 0t9 0q5 0 9.5 0t9.5 0q0-3 0-6t0-6.5 0-6.5q0-4 0-9t0-10q-5 0-9.5 0t-9.5 0zm38 38q-4 0-9 0t-10 0q0 5 0 10t0 9q0 3 0 6.5t0 6.5 0 6q5 0 10 0t9 0q5 0 9.5 0t9.5 0q0-3 0-6t0-6.5 0-6.5q0-4 0-9t0-10q-5 0-9.5 0t-9.5 0zm0-38q-4 0-9 0t-10 0q0 5 0 10t0 9q0 3 0 6.5t0 6.5 0 6q5 0 10 0t9 0q5 0 9.5 0t9.5 0q0-3 0-6t0-6.5 0-6.5q0-4 0-9t0-10q-5 0-9.5 0t-9.5 0zm38 0q-4 0-9 0t-10 0q0 5 0 10t0 9q0 3 0 6.5t0 6.5 0 6q5 0 10 0t9 0q5 0 9.5 0t9.5 0q0-3 0-6t0-6.5 0-6.5q0-4 0-9t0-10q-5 0-9.5 0t-9.5 0zm0-38q-4 0-9 0t-10 0q0 5 0 10t0 9q0 3 0 6.5t0 6.5 0 6q5 0 10 0t9 0q5 0 9.5 0t9.5 0q0-3 0-6t0-6.5 0-6.5q0-4 0-9t0-10q-5 0-9.5 0t-9.5 0zm38 0q-4 0-9 0t-10 0q0 5 0 10t0 9q0 3 0 6.5t0 6.5 0 6q5 0 10 0t9 0q5 0 9.5 0t9.5 0q0-3 0-6t0-6.5 0-6.5q0-4 0-9t0-10q-5 0-9.5 0t-9.5 0zm0-38q-4 0-9 0t-10 0q0 5 0 10t0 9q0 3 0 6.5t0 6.5 0 6q5 0 10 0t9 0q5 0 9.5 0t9.5 0q0-3 0-6t0-6.5 0-6.5q0-4 0-9t0-10q-5 0-9.5 0t-9.5 0zm0-38q-4 0-9 0t-10 0q0 5 0 10t0 9q0 3 0 6.5t0 6.5 0 6q5 0 10 0t9 0q5 0 9.5 0t9.5 0q0-3 0-6t0-6.5 0-6.5q0-4 0-9t0-10q-5 0-9.5 0t-9.5 0zm0-38q-4 0-9 0t-10 0q0 5 0 10t0 9q0 3 0 6.5t0 6.5 0 6q5 0 10 0t9 0q5 0 9.5 0t9.5 0q0-3 0-6t0-6.5 0-6.5q0-4 0-9t0-10q-5 0-9.5 0t-9.5 0zm0-38q-4 0-9 0t-10 0q0 5 0 10t0 9q0 3 0 6.5t0 6.5 0 6q5 0 10 0t9 0q5 0 9.5 0t9.5 0q0-3 0-6t0-6.5 0-6.5q0-4 0-9t0-10q-5 0-9.5 0t-9.5 0zm0-38q-4 0-9 0t-10 0q0 5 0 10t0 9q0 3 0 6.5t0 6.5 0 6q5 0 10 0t9 0q5 0 9.5 0t9.5 0q0-3 0-6t0-6.5 0-6.5q0-4 0-9t0-10q-5 0-9.5 0t-9.5 0zm38 0q-4 0-9 0t-10 0q0 5 0 10t0 9q0 3 0 6.5t0 6.5 0 6q5 0 10 0t9 0q5 0 9.5 0t9.5 0q0-3 0-6t0-6.5 0-6.5q0-4 0-9t0-10q-5 0-9.5 0t-9.5 0zm0 38q-4 0-9 0t-10 0q0 5 0 10t0 9q0 3 0 6.5t0 6.5 0 6q5 0 10 0t9 0q5 0 9.5 0t9.5 0q0-3 0-6t0-6.5 0-6.5q0-4 0-9t0-10q-5 0-9.5 0t-9.5 0zm0 38q-4 0-9 0t-10 0q0 5 0 10t0 9q0 3 0 6.5t0 6.5 0 6q5 0 10 0t9 0q5 0 9.5 0t9.5 0q0-3 0-6t0-6.5 0-6.5q0-4 0-9t0-10q-5 0-9.5 0t-9.5 0zm0 38q-4 0-9 0t-10 0q0 5 0 10t0 9q0 3 0 6.5t0 6.5 0 6q5 0 10 0t9 0q5 0 9.5 0t9.5 0q0-3 0-6t0-6.5 0-6.5q0-4 0-9t0-10q-5 0-9.5 0t-9.5 0zm-342-76q-4 0-9 0t-10 0q0 5 0 10t0 9q0 3 0 6.5t0 6.5 0 6q5 0 10 0t9 0q5 0 9.5 0t9.5 0q0-3 0-6t0-6.5 0-6.5q0-4 0-9t0-10q-5 0-9.5 0t-9.5 0zm38 0q-4 0-9 0t-10 0q0 5 0 10t0 9q0 3 0 6.5t0 6.5 0 6q5 0 10 0t9 0q5 0 9.5 0t9.5 0q0-3 0-6t0-6.5 0-6.5q0-4 0-9t0-10q-5 0-9.5 0t-9.5 0zm38 0q-4 0-9 0t-10 0q0 5 0 10t0 9q0 3 0 6.5t0 6.5 0 6q5 0 10 0t9 0q5 0 9.5 0t9.5 0q0-3 0-6t0-6.5 0-6.5q0-4 0-9t0-10q-5 0-9.5 0t-9.5 0zm38 0q-4 0-9 0t-10 0q0 5 0 10t0 9q0 3 0 6.5t0 6.5 0 6q5 0 10 0t9 0q5 0 9.5 0t9.5 0q0-3 0-6t0-6.5 0-6.5q0-4 0-9t0-10q-5 0-9.5 0t-9.5 0zm38 0q-4 0-9 0t-10 0q0 5 0 10t0 9q0 3 0 6.5t0 6.5 0 6q5 0 10 0t9 0q5 0 9.5 0t9.5 0q0-3 0-6t0-6.5 0-6.5q0-4 0-9t0-10q-5 0-9.5 0t-9.5 0zm38 0q-4 0-9 0t-10 0q0 5 0 10t0 9q0 3 0 6.5t0 6.5 0 6q5 0 10 0t9 0q5 0 9.5 0t9.5 0q0-3 0-6t0-6.5 0-6.5q0-4 0-9t0-10q-5 0-9.5 0t-9.5 0zm38 0q-4 0-9 0t-10 0q0 5 0 10t0 9q0 3 0 6.5t0 6.5 0 6q5 0 10 0t9 0q5 0 9.5 0t9.5 0q0-3 0-6t0-6.5 0-6.5q0-4 0-9t0-10q-5 0-9.5 0t-9.5 0zm38 0q-4 0-9 0t-10 0q0 5 0 10t0 9q0 3 0 6.5t0 6.5 0 6q5 0 10 0t9 0q5 0 9.5 0t9.5 0q0-3 0-6t0-6.5 0-6.5q0-4 0-9t0-10q-5 0-9.5 0t-9.5 0zm-266-38q-4 0-9 0t-10 0q0 5 0 10t0 9q0 3 0 6.5t0 6.5 0 6q5 0 10 0t9 0q5 0 9.5 0t9.5 0q0-3 0-6t0-6.5 0-6.5q0-4 0-9t0-10q-5 0-9.5 0t-9.5 0zm38 0q-4 0-9 0t-10 0q0 5 0 10t0 9q0 3 0 6.5t0 6.5 0 6q5 0 10 0t9 0q5 0 9.5 0t9.5 0q0-3 0-6t0-6.5 0-6.5q0-4 0-9t0-10q-5 0-9.5 0t-9.5 0zm38 0q-4 0-9 0t-10 0q0 5 0 10t0 9q0 3 0 6.5t0 6.5 0 6q5 0 10 0t9 0q5 0 9.5 0t9.5 0q0-3 0-6t0-6.5 0-6.5q0-4 0-9t0-10q-5 0-9.5 0t-9.5 0zm38 0q-4 0-9 0t-10 0q0 5 0 10t0 9q0 3 0 6.5t0 6.5 0 6q5 0 10 0t9 0q5 0 9.5 0t9.5 0q0-3 0-6t0-6.5 0-6.5q0-4 0-9t0-10q-5 0-9.5 0t-9.5 0zm38 0q-4 0-9 0t-10 0q0 5 0 10t0 9q0 3 0 6.5t0 6.5 0 6q5 0 10 0t9 0q5 0 9.5 0t9.5 0q0-3 0-6t0-6.5 0-6.5q0-4 0-9t0-10q-5 0-9.5 0t-9.5 0zm38 0q-4 0-9 0t-10 0q0 5 0 10t0 9q0 3 0 6.5t0 6.5 0 6q5 0 10 0t9 0q5 0 9.5 0t9.5 0q0-3 0-6t0-6.5 0-6.5q0-4 0-9t0-10q-5 0-9.5 0t-9.5 0zm38 0q-4 0-9 0t-10 0q0 5 0 10t0 9q0 3 0 6.5t0 6.5 0 6q5 0 10 0t9 0q5 0 9.5 0t9.5 0q0-3 0-6t0-6.5 0-6.5q0-4 0-9t0-10q-5 0-9.5 0t-9.5 0zm38 0q-4 0-9 0t-10 0q0 5 0 10t0 9q0 3 0 6.5t0 6.5 0 6q5 0 10 0t9 0q5 0 9.5 0t9.5 0q0-3 0-6t0-6.5 0-6.5q0-4 0-9t0-10q-5 0-9.5 0t-9.5 0zm-266-190q-4 0-9 0t-10 0q0 5 0 10t0 9q0 3 0 6.5t0 6.5 0 6q5 0 10 0t9 0q5 0 9.5 0t9.5 0q0-3 0-6t0-6.5 0-6.5q0-4 0-9t0-10q-5 0-9.5 0t-9.5 0zm266 38q-4 0-9 0t-10 0q0 5 0 10t0 9q0 3 0 6.5t0 6.5 0 6q5 0 10 0t9 0q5 0 9.5 0t9.5 0q0-3 0-6t0-6.5 0-6.5q0-4 0-9t0-10q-5 0-9.5 0t-9.5 0zm-266 304q-4 0-9 0t-10 0q0 5 0 10t0 9q0 3 0 6.5t0 6.5 0 6q5 0 10 0t9 0q5 0 9.5 0t9.5 0q0-3 0-6t0-6.5 0-6.5q0-4 0-9t0-10q-5 0-9.5 0t-9.5 0zm266-342q-4 0-9 0t-10 0q0 5 0 10t0 9q0 3 0 6.5t0 6.5 0 6q5 0 10 0t9 0q5 0 9.5 0t9.5 0q0-3 0-6t0-6.5 0-6.5q0-4 0-9t0-10q-5 0-9.5 0t-9.5 0zm0 342q-4 0-9 0t-10 0q0 5 0 10t0 9q0 3 0 6.5t0 6.5 0 6q5 0 10 0t9 0q5 0 9.5 0t9.5 0q0-3 0-6t0-6.5 0-6.5q0-4 0-9t0-10q-5 0-9.5 0t-9.5 0zm76-266q-4 0-9 0t-10 0q0 5 0 10t0 9q0 3 0 6.5t0 6.5 0 6q5 0 10 0t9 0q5 0 9.5 0t9.5 0q0-3 0-6t0-6.5 0-6.5q0-4 0-9t0-10q-5 0-9.5 0t-9.5 0zm0-38q-4 0-9 0t-10 0q0 5 0 10t0 9q0 3 0 6.5t0 6.5 0 6q5 0 10 0t9 0q5 0 9.5 0t9.5 0q0-3 0-6t0-6.5 0-6.5q0-4 0-9t0-10q-5 0-9.5 0t-9.5 0zm-38-38q-4 0-9 0t-10 0q0 5 0 10t0 9q0 3 0 6.5t0 6.5 0 6q5 0 10 0t9 0q5 0 9.5 0t9.5 0q0-3 0-6t0-6.5 0-6.5q0-4 0-9t0-10q-5 0-9.5 0t-9.5 0zm0 76q-4 0-9 0t-10 0q0 5 0 10t0 9q0 3 0 6.5t0 6.5 0 6q5 0 10 0t9 0q5 0 9.5 0t9.5 0q0-3 0-6t0-6.5 0-6.5q0-4 0-9t0-10q-5 0-9.5 0t-9.5 0zm-266 342q-4 0-9 0t-10 0q0 5 0 10t0 9q0 3 0 6.5t0 6.5 0 6q5 0 10 0t9 0q5 0 9.5 0t9.5 0q0-3 0-6t0-6.5 0-6.5q0-4 0-9t0-10q-5 0-9.5 0t-9.5 0zm0-38q-4 0-9 0t-10 0q0 5 0 10t0 9q0 3 0 6.5t0 6.5 0 6q5 0 10 0t9 0q5 0 9.5 0t9.5 0q0-3 0-6t0-6.5 0-6.5q0-4 0-9t0-10q-5 0-9.5 0t-9.5 0zm190 0q-4 0-9 0t-10 0q0 5 0 10t0 9q0 3 0 6.5t0 6.5 0 6q5 0 10 0t9 0q5 0 9.5 0t9.5 0q0-3 0-6t0-6.5 0-6.5q0-4 0-9t0-10q-5 0-9.5 0t-9.5 0zm-190-342q-4 0-9 0t-10 0q0 5 0 10t0 9q0 3 0 6.5t0 6.5 0 6q5 0 10 0t9 0q5 0 9.5 0t9.5 0q0-3 0-6t0-6.5 0-6.5q0-4 0-9t0-10q-5 0-9.5 0t-9.5 0z"/><path transform="translate(77.824 16.08) scale(.016 -.016)" d="m171 646q-4 0-9 0t-10 0q0 5 0 10t0 9q0 3 0 6.5t0 6.5 0 6q5 0 10 0t9 0q5 0 9.5 0t9.5 0q0-3 0-6t0-6.5 0-6.5q0-4 0-9t0-10q-5 0-9.5 0t-9.5 0zm38-38q-4 0-9 0t-10 0q0 5 0 10t0 9q0 3 0 6.5t0 6.5 0 6q5 0 10 0t9 0q5 0 9.5 0t9.5 0q0-3 0-6t0-6.5 0-6.5q0-4 0-9t0-10q-5 0-9.5 0t-9.5 0zm-38 0q-4 0-9 0t-10 0q0 5 0 10t0 9q0 3 0 6.5t0 6.5 0 6q5 0 10 0t9 0q5 0 9.5 0t9.5 0q0-3 0-6t0-6.5 0-6.5q0-4 0-9t0-10q-5 0-9.5 0t-9.5 0zm0-38q-4 0-9 0t-10 0q0 5 0 10t0 9q0 3 0 6.5t0 6.5 0 6q5 0 10 0t9 0q5 0 9.5 0t9.5 0q0-3 0-6t0-6.5 0-6.5q0-4 0-9t0-10q-5 0-9.5 0t-9.5 0zm38 0q-4 0-9 0t-10 0q0 5 0 10t0 9q0 3 0 6.5t0 6.5 0 6q5 0 10 0t9 0q5 0 9.5 0t9.5 0q0-3 0-6t0-6.5 0-6.5q0-4 0-9t0-10q-5 0-9.5 0t-9.5 0zm0-38q-4 0-9 0t-10 0q0 5 0 10t0 9q0 3 0 6.5t0 6.5 0 6q5 0 10 0t9 0q5 0 9.5 0t9.5 0q0-3 0-6t0-6.5 0-6.5q0-4 0-9t0-10q-5 0-9.5 0t-9.5 0zm-38 0q-4 0-9 0t-10 0q0 5 0 10t0 9q0 3 0 6.5t0 6.5 0 6q5 0 10 0t9 0q5 0 9.5 0t9.5 0q0-3 0-6t0-6.5 0-6.5q0-4 0-9t0-10q-5 0-9.5 0t-9.5 0zm0-38q-4 0-9 0t-10 0q0 5 0 10t0 9q0 3 0 6.5t0 6.5 0 6q5 0 10 0t9 0q5 0 9.5 0t9.5 0q0-3 0-6t0-6.5 0-6.5q0-4 0-9t0-10q-5 0-9.5 0t-9.5 0zm38 0q-4 0-9 0t-10 0q0 5 0 10t0 9q0 3 0 6.5t0 6.5 0 6q5 0 10 0t9 0q5 0 9.5 0t9.5 0q0-3 0-6t0-6.5 0-6.5q0-4 0-9t0-10q-5 0-9.5 0t-9.5 0zm-38-38q-4 0-9 0t-10 0q0 5 0 10t0 9q0 3 0 6.5t0 6.5 0 6q5 0 10 0t9 0q5 0 9.5 0t9.5 0q0-3 0-6t0-6.5 0-6.5q0-4 0-9t0-10q-5 0-9.5 0t-9.5 0zm38 0q-4 0-9 0t-10 0q0 5 0 10t0 9q0 3 0 6.5t0 6.5 0 6q5 0 10 0t9 0q5 0 9.5 0t9.5 0q0-3 0-6t0-6.5 0-6.5q0-4 0-9t0-10q-5 0-9.5 0t-9.5 0zm0-38q-4 0-9 0t-10 0q0 5 0 10t0 9q0 3 0 6.5t0 6.5 0 6q5 0 10 0t9 0q5 0 9.5 0t9.5 0q0-3 0-6t0-6.5 0-6.5q0-4 0-9t0-10q-5 0-9.5 0t-9.5 0zm-38 0q-4 0-9 0t-10 0q0 5 0 10t0 9q0 3 0 6.5t0 6.5 0 6q5 0 10 0t9 0q5 0 9.5 0t9.5 0q0-3 0-6t0-6.5 0-6.5q0-4 0-9t0-10q-5 0-9.5 0t-9.5 0zm0-38q-4 0-9 0t-10 0q0 5 0 10t0 9q0 3 0 6.5t0 6.5 0 6q5 0 10 0t9 0q5 0 9.5 0t9.5 0q0-3 0-6t0-6.5 0-6.5q0-4 0-9t0-10q-5 0-9.5 0t-9.5 0zm0-38q-4 0-9 0t-10 0q0 5 0 10t0 9q0 3 0 6.5t0 6.5 0 6q5 0 10 0t9 0q5 0 9.5 0t9.5 0q0-3 0-6t0-6.5 0-6.5q0-4 0-9t0-10q-5 0-9.5 0t-9.5 0zm0-38q-4 0-9 0t-10 0q0 5 0 10t0 9q0 3 0 6.5t0 6.5 0 6q5 0 10 0t9 0q5 0 9.5 0t9.5 0q0-3 0-6t0-6.5 0-6.5q0-4 0-9t0-10q-5 0-9.5 0t-9.5 0zm0-38q-4 0-9 0t-10 0q0 5 0 10t0 9q0 3 0 6.5t0 6.5 0 6q5 0 10 0t9 0q5 0 9.5 0t9.5 0q0-3 0-6t0-6.5 0-6.5q0-4 0-9t0-10q-5 0-9.5 0t-9.5 0zm0-38q-4 0-9 0t-10 0q0 5 0 10t0 9q0 3 0 6.5t0 6.5 0 6q5 0 10 0t9 0q5 0 9.5 0t9.5 0q0-3 0-6t0-6.5 0-6.5q0-4 0-9t0-10q-5 0-9.5 0t-9.5 0zm0-38q-4 0-9 0t-10 0q0 5 0 10t0 9q0 3 0 6.5t0 6.5 0 6q5 0 10 0t9 0q5 0 9.5 0t9.5 0q0-3 0-6t0-6.5 0-6.5q0-4 0-9t0-10q-5 0-9.5 0t-9.5 0zm0-38q-4 0-9 0t-10 0q0 5 0 10t0 9q0 3 0 6.5t0 6.5 0 6q5 0 10 0t9 0q5 0 9.5 0t9.5 0q0-3 0-6t0-6.5 0-6.5q0-4 0-9t0-10q-5 0-9.5 0t-9.5 0zm38 228q-4 0-9 0t-10 0q0 5 0 10t0 9q0 3 0 6.5t0 6.5 0 6q5 0 10 0t9 0q5 0 9.5 0t9.5 0q0-3 0-6t0-6.5 0-6.5q0-4 0-9t0-10q-5 0-9.5 0t-9.5 0zm0-38q-4 0-9 0t-10 0q0 5 0 10t0 9q0 3 0 6.5t0 6.5 0 6q5 0 10 0t9 0q5 0 9.5 0t9.5 0q0-3 0-6t0-6.5 0-6.5q0-4 0-9t0-10q-5 0-9.5 0t-9.5 0zm0-38q-4 0-9 0t-10 0q0 5 0 10t0 9q0 3 0 6.5t0 6.5 0 6q5 0 10 0t9 0q5 0 9.5 0t9.5 0q0-3 0-6t0-6.5 0-6.5q0-4 0-9t0-10q-5 0-9.5 0t-9.5 0zm0-38q-4 0-9 0t-10 0q0 5 0 10t0 9q0 3 0 6.5t0 6.5 0 6q5 0 10 0t9 0q5 0 9.5 0t9.5 0q0-3 0-6t0-6.5 0-6.5q0-4 0-9t0-10q-5 0-9.5 0t-9.5 0zm0-38q-4 0-9 0t-10 0q0 5 0 10t0 9q0 3 0 6.5t0 6.5 0 6q5 0 10 0t9 0q5 0 9.5 0t9.5 0q0-3 0-6t0-6.5 0-6.5q0-4 0-9t0-10q-5 0-9.5 0t-9.5 0zm0-38q-4 0-9 0t-10 0q0 5 0 10t0 9q0 3 0 6.5t0 6.5 0 6q5 0 10 0t9 0q5 0 9.5 0t9.5 0q0-3 0-6t0-6.5 0-6.5q0-4 0-9t0-10q-5 0-9.5 0t-9.5 0zm0-38q-4 0-9 0t-10 0q0 5 0 10t0 9q0 3 0 6.5t0 6.5 0 6q5 0 10 0t9 0q5 0 9.5 0t9.5 0q0-3 0-6t0-6.5 0-6.5q0-4 0-9t0-10q-5 0-9.5 0t-9.5 0zm0-38q-4 0-9 0t-10 0q0 5 0 10t0 9q0 3 0 6.5t0 6.5 0 6q5 0 10 0t9 0q5 0 9.5 0t9.5 0q0-3 0-6t0-6.5 0-6.5q0-4 0-9t0-10q-5 0-9.5 0t-9.5 0zm0-38q-4 0-9 0t-10 0q0 5 0 10t0 9q0 3 0 6.5t0 6.5 0 6q5 0 10 0t9 0q5 0 9.5 0t9.5 0q0-3 0-6t0-6.5 0-6.5q0-4 0-9t0-10q-5 0-9.5 0t-9.5 0zm0-38q-4 0-9 0t-10 0q0 5 0 10t0 9q0 3 0 6.5t0 6.5 0 6q5 0 10 0t9 0q5 0 9.5 0t9.5 0q0-3 0-6t0-6.5 0-6.5q0-4 0-9t0-10q-5 0-9.5 0t-9.5 0zm-38 38q-4 0-9 0t-10 0q0 5 0 10t0 9q0 3 0 6.5t0 6.5 0 6q5 0 10 0t9 0q5 0 9.5 0t9.5 0q0-3 0-6t0-6.5 0-6.5q0-4 0-9t0-10q-5 0-9.5 0t-9.5 0zm0 38q-4 0-9 0t-10 0q0 5 0 10t0 9q0 3 0 6.5t0 6.5 0 6q5 0 10 0t9 0q5 0 9.5 0t9.5 0q0-3 0-6t0-6.5 0-6.5q0-4 0-9t0-10q-5 0-9.5 0t-9.5 0zm76-76q-4 0-9 0t-10 0q0 5 0 10t0 9q0 3 0 6.5t0 6.5 0 6q5 0 10 0t9 0q5 0 9.5 0t9.5 0q0-3 0-6t0-6.5 0-6.5q0-4 0-9t0-10q-5 0-9.5 0t-9.5 0zm38 0q-4 0-9 0t-10 0q0 5 0 10t0 9q0 3 0 6.5t0 6.5 0 6q5 0 10 0t9 0q5 0 9.5 0t9.5 0q0-3 0-6t0-6.5 0-6.5q0-4 0-9t0-10q-5 0-9.5 0t-9.5 0zm0-38q-4 0-9 0t-10 0q0 5 0 10t0 9q0 3 0 6.5t0 6.5 0 6q5 0 10 0t9 0q5 0 9.5 0t9.5 0q0-3 0-6t0-6.5 0-6.5q0-4 0-9t0-10q-5 0-9.5 0t-9.5 0zm-38 0q-4 0-9 0t-10 0q0 5 0 10t0 9q0 3 0 6.5t0 6.5 0 6q5 0 10 0t9 0q5 0 9.5 0t9.5 0q0-3 0-6t0-6.5 0-6.5q0-4 0-9t0-10q-5 0-9.5 0t-9.5 0zm-76 38q-4 0-9 0t-10 0q0 5 0 10t0 9q0 3 0 6.5t0 6.5 0 6q5 0 10 0t9 0q5 0 9.5 0t9.5 0q0-3 0-6t0-6.5 0-6.5q0-4 0-9t0-10q-5 0-9.5 0t-9.5 0zm38-38q-4 0-9 0t-10 0q0 5 0 10t0 9q0 3 0 6.5t0 6.5 0 6q5 0 10 0t9 0q5 0 9.5 0t9.5 0q0-3 0-6t0-6.5 0-6.5q0-4 0-9t0-10q-5 0-9.5 0t-9.5 0zm114 38q-4 0-9 0t-10 0q0 5 0 10t0 9q0 3 0 6.5t0 6.5 0 6q5 0 10 0t9 0q5 0 9.5 0t9.5 0q0-3 0-6t0-6.5 0-6.5q0-4 0-9t0-10q-5 0-9.5 0t-9.5 0zm0-38q-4 0-9 0t-10 0q0 5 0 10t0 9q0 3 0 6.5t0 6.5 0 6q5 0 10 0t9 0q5 0 9.5 0t9.5 0q0-3 0-6t0-6.5 0-6.5q0-4 0-9t0-10q-5 0-9.5 0t-9.5 0zm-152 0q-4 0-9 0t-10 0q0 5 0 10t0 9q0 3 0 6.5t0 6.5 0 6q5 0 10 0t9 0q5 0 9.5 0t9.5 0q0-3 0-6t0-6.5 0-6.5q0-4 0-9t0-10q-5 0-9.5 0t-9.5 0zm-38 0q-4 0-9 0t-10 0q0 5 0 10t0 9q0 3 0 6.5t0 6.5 0 6q5 0 10 0t9 0q5 0 9.5 0t9.5 0q0-3 0-6t0-6.5 0-6.5q0-4 0-9t0-10q-5 0-9.5 0t-9.5 0zm0 38q-4 0-9 0t-10 0q0 5 0 10t0 9q0 3 0 6.5t0 6.5 0 6q5 0 10 0t9 0q5 0 9.5 0t9.5 0q0-3 0-6t0-6.5 0-6.5q0-4 0-9t0-10q-5 0-9.5 0t-9.5 0zm-38 0q-4 0-9 0t-10 0q0 5 0 10t0 9q0 3 0 6.5t0 6.5 0 6q5 0 10 0t9 0q5 0 9.5 0t9.5 0q0-3 0-6t0-6.5 0-6.5q0-4 0-9t0-10q-5 0-9.5 0t-9.5 0zm0-38q-4 0-9 0t-10 0q0 5 0 10t0 9q0 3 0 6.5t0 6.5 0 6q5 0 10 0t9 0q5 0 9.5 0t9.5 0q0-3 0-6t0-6.5 0-6.5q0-4 0-9t0-10q-5 0-9.5 0t-9.5 0zm-38 0q-4 0-9 0t-10 0q0 5 0 10t0 9q0 3 0 6.5t0 6.5 0 6q5 0 10 0t9 0q5 0 9.5 0t9.5 0q0-3 0-6t0-6.5 0-6.5q0-4 0-9t0-10q-5 0-9.5 0t-9.5 0zm0 38q-4 0-9 0t-10 0q0 5 0 10t0 9q0 3 0 6.5t0 6.5 0 6q5 0 10 0t9 0q5 0 9.5 0t9.5 0q0-3 0-6t0-6.5 0-6.5q0-4 0-9t0-10q-5 0-9.5 0t-9.5 0zm0 608q-4 0-9 0t-10 0q0 5 0 10t0 9q0 3 0 6.5t0 6.5 0 6q5 0 10 0t9 0q5 0 9.5 0t9.5 0q0-3 0-6t0-6.5 0-6.5q0-4 0-9t0-10q-5 0-9.5 0t-9.5 0zm38 0q-4 0-9 0t-10 0q0 5 0 10t0 9q0 3 0 6.5t0 6.5 0 6q5 0 10 0t9 0q5 0 9.5 0t9.5 0q0-3 0-6t0-6.5 0-6.5q0-4 0-9t0-10q-5 0-9.5 0t-9.5 0zm38 0q-4 0-9 0t-10 0q0 5 0 10t0 9q0 3 0 6.5t0 6.5 0 6q5 0 10 0t9 0q5 0 9.5 0t9.5 0q0-3 0-6t0-6.5 0-6.5q0-4 0-9t0-10q-5 0-9.5 0t-9.5 0zm-38 38q-4 0-9 0t-10 0q0 5 0 10t0 9q0 3 0 6.5t0 6.5 0 6q5 0 10 0t9 0q5 0 9.5 0t9.5 0q0-3 0-6t0-6.5 0-6.5q0-4 0-9t0-10q-5 0-9.5 0t-9.5 0zm-38 0q-4 0-9 0t-10 0q0 5 0 10t0 9q0 3 0 6.5t0 6.5 0 6q5 0 10 0t9 0q5 0 9.5 0t9.5 0q0-3 0-6t0-6.5 0-6.5q0-4 0-9t0-10q-5 0-9.5 0t-9.5 0zm76 0q-4 0-9 0t-10 0q0 5 0 10t0 9q0 3 0 6.5t0 6.5 0 6q5 0 10 0t9 0q5 0 9.5 0t9.5 0q0-3 0-6t0-6.5 0-6.5q0-4 0-9t0-10q-5 0-9.5 0t-9.5 0z"/></svg>