<svg width="75.592" height="20" viewBox="0 0 75.592 20" xmlns="http://www.w3.org/2000/svg"><path transform="translate(0 15.6) scale(.008 -.008)" d="m877-30q-167 0-309 51t-248.5 146.5-165.5 229.5-59 301q0 166 57 300.5t159.5 231 241 148.5 302.5 52q76 0 154-12t153.5-39.5 143.5-74.5l-98-176q-76 48-164.5 72t-182.5 24q-122 0-221-36.5t-169-105-107.5-165.5-37.5-218q0-170 72-289t198.5-180.5 291.5-61.5q81 0 146 15.5t105 35.5v338h-318v186h519v-654q-55-37-137.5-64t-170-41-155.5-14z"/><path transform="translate(12.016 15.6) scale(.008 -.008)" d="m605-30q-160 0-281 65.5t-188.5 183.5-67.5 274q0 114 39 210.5t110 167.5 166.5 110 208.5 39q123 0 219-43.5t159.5-121.5 90-182.5 8.5-226.5h-790q-2-89 39-155.5t117.5-103.5 180.5-37q84 0 162.5 25.5t142.5 75.5l85-158q-48-39-116-66.5t-142-42-143-14.5zm-313 638h561q-3 112-71.5 176t-194.5 64q-122 0-202.5-64t-92.5-176z"/><path transform="translate(21.176 15.6) scale(.008 -.008)" d="m604-30q-155 0-276.5 71.5t-190.5 191-69 262.5q0 106 39.5 200.5t112 167.5 170.5 115 215 42q155 0 276.5-71.5t190.5-191 69-262.5q0-105-39.5-200t-111.5-168-170-115-216-42zm0 195q92 0 163.5 40.5t112.5 114.5 41 175-41 175.5-112.5 114.5-163.5 40-163.5-40-112-114.5-40.5-175.5 41-175 112.5-114.5 162.5-40.5z"/><path transform="translate(30.848 15.6) scale(.008 -.008)" d="M153 0V1440H373V0Z"/><path transform="translate(35.056 15.6) scale(.008 -.008)" d="m604-30q-155 0-276.5 71.5t-190.5 191-69 262.5q0 106 39.5 200.5t112 167.5 170.5 115 215 42q155 0 276.5-71.5t190.5-191 69-262.5q0-105-39.5-200t-111.5-168-170-115-216-42zm0 195q92 0 163.5 40.5t112.5 114.5 41 175-41 175.5-112.5 114.5-163.5 40-163.5-40-112-114.5-40.5-175.5 41-175 112.5-114.5 162.5-40.5z"/><path transform="translate(44.728 15.6) scale(.008 -.008)" d="m543-450q-111 0-200 19.5t-151.5 56.5-95.5 89-33 116q0 51 27.5 96t82 77.5 133.5 48.5q-59 30-87.5 68t-28.5 87q0 42 24.5 79.5t70 67 107.5 48.5 137 22l48-96q-62 1-105.5-9.5t-67-29-23.5-44.5q0-34 39-49.5t110-21.5l170-13q125-10 213.5-41t136-87 47.5-142q0-73-39.5-135.5t-113-108.5-175.5-72-226-26zm22 152q149 0 234.5 44.5t85.5 115.5q0 54-57 84t-174 38l-182 14q-64-5-110.5-24t-70.5-49-24-68q0-46 36-81t103-54.5 159-19.5zm-7 612q-124 0-222.5 47t-155.5 127-57 179 57.5 179 156 127 221.5 47 221-47 155.5-127 57.5-179q0-98-57-178t-155-127.5-222-47.5zm0 165q68 0 121 23.5t83 66 30 98.5q0 84-65.5 136.5t-168.5 52.5q-69 0-121.5-24t-82.5-66.5-30-98.5q0-83 65.5-135.5t168.5-52.5zm154 337-82 153 531 21-2-182z"/><path transform="translate(54.304 15.6) scale(.008 -.008)" d="m153 0v990h220v-990zm110 1167q-59 0-102 38t-43 100q0 61 43 99.5t102 38.5 102-38.5 43-99.5q0-62-43-100t-102-38z"/><path transform="translate(58.512 15.6) scale(.008 -.008)" d="m607-30q-156 0-278 68.5t-191.5 187-69.5 269.5q0 114 41 209.5t116 166.5 176.5 110 220.5 39q100 0 185.5-26.5t157.5-81.5l-106-168q-46 41-105.5 61t-126.5 20q-104 0-179-39t-116.5-112.5-41.5-177.5q0-155 90.5-243t246.5-88q74 0 140 27.5t110 72.5l105-167q-79-60-176-94t-199-34z"/><path transform="translate(66.76 15.6) scale(.008 -.008)" d="m428-30q-103 0-181 38.5t-121.5 109-43.5 166.5q0 81 41 146.5t127.5 108.5 222.5 57.5 327-4.5l4-152q-136 19-234 16t-160.5-24.5-92-57-29.5-81.5q0-72 51.5-111t141.5-39q77 0 138 28t96.5 79 35.5 120v263q0 66-28 114.5t-85 75.5-142 27q-78 0-154-23.5t-145-73.5l-62 162q93 63 194 89t194 26q138 0 236.5-43.5t151.5-131 53-220.5v-635h-198v117q-50-71-139-109t-199-38z"/></svg>