<svg width="45.152" height="20" viewBox="0 0 45.152 20" xmlns="http://www.w3.org/2000/svg"><path transform="translate(0 16.24) scale(.016 -.016)" d="m416-16q-79 0-146.5 28.5t-116.5 79-76.5 117-27.5 143.5 29.5 143 81.5 116.5 121.5 78.5 148.5 28q58 0 115-15t108-50v-113q-38 38-92.5 62t-123.5 24q-58 0-109.5-21.5t-90.5-60-61.5-87.5-22.5-105q0-78 35.5-140.5t96.5-98.5 137-36q70 0 127 29t90.5 81.5 33.5 124.5h-199v89h296v-29q0-84-22.5-155t-67.5-123.5-111-81-153-28.5z"/><path transform="translate(13.104 16.24) scale(.016 -.016)" d="m290-12q-73 0-131 33t-91.5 91-33.5 132 30 132.5 84.5 93 125.5 34.5q54 0 96-19t72-52.5 48-77.5 23-93l-372-91q17-45 55-73.5t98-28.5q33 0 63.5 8.5t58.5 25 51 39.5v-98q-33-25-79-40.5t-98-15.5zm-156 257 278 72q-12 45-48 75t-90 30q-47 0-79-25t-48-63.5-16-81.5z"/><path transform="translate(21.84 16.24) scale(.016 -.016)" d="m297-11q-76 0-135.5 34t-93.5 92.5-34 129.5q0 54 19.5 101t55 82.5 84 55.5 105.5 20q77 0 137-34.5t94.5-92.5 34.5-130q0-55-20.5-102t-57.5-82-85-54.5-104-19.5zm1 85q48 0 85.5 24t59 63 21.5 85q0 47-21 86.5t-58.5 63.5-87.5 24q-49 0-86-23.5t-57-62.5-20-87q0-49 21.5-88t59-62 83.5-23z"/><path transform="translate(31.408 16.24) scale(.016 -.016)" d="m64 0v491l98-60q27 37 67.5 54.5t85.5 17.5q49 0 88.5-20.5t59.5-68.5q26 43 69.5 66t98.5 23q58 0 95.5-25t56-68 18.5-97v-313h-100v282q0 70-27.5 101.5t-75.5 31.5q-38 0-64-18.5t-39-48.5-13-66v-282h-100v282q0 57-23 95t-79 38q-37 0-63-18t-39.5-48-13.5-67v-282z"/></svg>