<svg width="83.328" height="18.368" viewBox="0 0 83.328 18.368" xmlns="http://www.w3.org/2000/svg"><path transform="translate(0 14.752) scale(.016 -.016)" d="M902 510V650H298V45H902V325H519V370H947V0H31V45H131V650H31V695H947V510ZM252 650H176V45H252Z"/><path transform="translate(16.144 14.752) scale(.016 -.016)" d="M60 469H684V212H227V45H639V122H684V0H60ZM227 424V257H639V424ZM105 45H182V424H105Z"/><path transform="translate(27.968 14.752) scale(.016 -.016)" d="M684 0H60V469H684ZM639 424H227V45H639ZM182 424H105V45H182Z"/><path transform="translate(39.872 14.752) scale(.016 -.016)" d="M679 469V347H634V424H222V257H679V0H55V122H100V45H512V212H55V469ZM557 212V45H634V212ZM177 424H100V257H177Z"/><path transform="translate(51.616 14.752) scale(.016 -.016)" d="M479 45V0H119V424H20V469H119V695H286V469H479V424H286V45ZM241 650H164V45H241Z"/><path transform="translate(59.616 14.752) scale(.016 -.016)" d="M679 45H778V0H55V257H512V424H100V347H55V469H679ZM512 45V212H100V45ZM634 424H557V45H634Z"/><path transform="translate(72.208 14.752) scale(.016 -.016)" d="M35 469H671V348H626V424H301V45H400V0H35V45H134V424H35ZM256 45V424H179V45Z"/></svg>