<svg width="75.264" height="19.584" viewBox="0 0 75.264 19.584" xmlns="http://www.w3.org/2000/svg"><path transform="translate(0 15.152) scale(.016 -.016)" d="m647 271v-32h-34v-204q-21-6-59-18.5t-45-14.5q-66-16-149-16-125 0-218 104-88 106-87 260.5t90 256.5q88 97 215 97 86 0 135-12 20-4 74-25v-157h-30q-7 87-48 127t-126 36q-195-12-195-328 0-143 51-232.5t136-90.5q50-1 109 22 52 18 57 36 5 10 5 40v119h-113v32z"/><path transform="translate(11.12 15.152) scale(.016 -.016)" d="m609 689 2-203h-31q-7 87-47.5 127.5t-134.5 42.5l-171 2v-290h122q44 0 63 25 23 32 23 93h32v-277h-32q0 59-24 92t-62 33h-122v-303h93v-31h-276v31h94v627h-94v31z"/><path transform="translate(21.456 15.152) scale(.016 -.016)" d="m491 220q0-116-93-177-80-53-201-53-73 0-163 34l1 159h30q6-79 47-114 19-16 56-27t67-10q69 1 121 37 51 37 53 99 0 65-45.5 104t-125.5 48q-213 26-213 178 0 106 81 161 69 48 168 48 29 0 69-8.5t51.5-8.5 15.5 15h28v-179h-30q-7 74-44.5 107t-111.5 32q-146-2-144-131 2-115 160-131 223-24 223-183z"/><path transform="translate(35.296 15.152) scale(.016 -.016)" d="m691 336q0-140-92.5-241t-213.5-97q-182 6-341 2v31h94v627h-94v31q89-5 158-4t186 0q141-2 222-95.5t81-253.5zm-153-209q49 78 47.5 215.5t-39.5 211.5q-47 95-158 104-90 5-161-4v-623q68-6 102.5-6t56.5 2q103 15 152 100z"/><path transform="translate(47.36 15.152) scale(.016 -.016)" d="m144 666q22 0 37.5-15t16-37.5-16.5-38.5-38-16-37.5 16-16.5 36.5 16.5 37.5 38.5 17zm45-210v-406q0-23 22-23h58v-27h-242v27h58q22 0 22 23v356q-3 23-22 23h-58v27z"/><path transform="translate(51.904 15.152) scale(.016 -.016)" d="m588 27v-27h-165l4 88q-18-37-60-65-49-36-113-36-100 0-153 68.5t-53 177 74 179.5 182 67q42-5 78-20 32-17 42-35v216q-1 35-36 35h-47v28h165v-652q2-24 22-24zm-164 204v127q-11 34-51 59t-92.5 25-92.5-42q-47-51-54-151-6-77 37-137 46-67 118-67t107 61q28 49 28 125z"/><path transform="translate(61.584 15.152) scale(.016 -.016)" d="m442 402q64-63 64-166.5t-71-173.5-186-72q-91-1-154 63-60 65-60 171.5t67 174.5 182 68q95 0 158-65zm-153-380q63 0 94.5 53t31.5 137.5-43 153.5q-44 68-109 68-137 0-137-175 0-93 34-157 43-80 129-80z"/><path transform="translate(70.16 15.152) scale(.016 -.016)" d="m129 541h51v-123l125 2-2-46h-123v-258q0-67 52-67 23 0 57 18l7-11q-34-69-104-69-96 2-96 105v282l-75-2v27q7 2 19 5 46 11 67 43.5t22 93.5z"/></svg>