<svg width="107.81" height="25.703" viewBox="0 0 107.81 25.703" xmlns="http://www.w3.org/2000/svg"><path transform="translate(0 15.938) scale(.015625 -.015625)" d="m201-23q-72 18-111.5 71t-53.5 124.5-6 154 32 159.5 59.5 141.5 77 100 84.5 33.5 82-56q35-48 51.5-104t11.5-116q-17-21-36-26.5t-37.5-1.5-34.5 14-26.5 21-13 19.5 6.5 8.5h86q1 10-0.5 30.5t-6.5 45.5-13 50-20 44-27.5 28.5-35.5 3.5q-34-12-59.5-45t-44-74.5-31-84.5-21.5-73q-44-145-37-240t47.5-144.5 106.5-56 140 25 147 98.5 128 164q12 20 27 41t20 45q-6 2-32-6.5t-60.5-21-73-25-69.5-19-50-4-14 20.5q3 12 18.5 26.5t36 25 40.5 15 31-3.5q25 4 53.5 16t57.5 24 57 21.5 52 9.5q30 0 38.5-9.5t5.5-23-12.5-28.5-15.5-25q-32-56-65.5-112t-71-105.5-80-90.5-93.5-66-111.5-31.5-133.5 11.5z"/><path transform="translate(12.438 15.938) scale(.015625 -.015625)" d="m24 24q-2 6-3 40.5t-1.5 83.5 0.5 106.5 2.5 108 4 87.5 5.5 47q6 3 13 0t12.5-8 9.5-12 4-12v-441q0-11-6-16.5t-14.5-5.5-16 5.5-10.5 16.5zm8 629q-1 3-1.5 8.5t-0.5 12 0.5 12 1.5 7.5q8 4 18 7t21 1q17-22 21.5-35.5t0.5-21-13.5-9-19.5 0.5-18.5 6.5-9.5 10.5z"/><path transform="translate(14.172 15.938) scale(.015625 -.015625)" d="m324 24q-38 49-70.5 102.5t-66.5 106-73 100.5-90 85q-23 16-22.5 26.5t14 14 34-0.5 37.5-17q30-36 64-82.5t66.5-94 62-92.5 51.5-78q2-4 6.5-6.5t9.5-0.5q8 14 17 51.5t18.5 85.5 20 99 23 92 26 64.5 29.5 17.5q4-2 16-8.5t15-8.5q10-6 7-14.5t-11-18-17-19.5-10-18q-1-5-4-21t-7-37-8.5-45-8.5-45-7.5-36.5-4.5-20.5q0-3-4-17.5t-9-33.5-10-38-8-29q-5-17-12.5-37t-18.5-33-24.5-14-30.5 21z"/><path transform="translate(22.672 15.938) scale(.015625 -.015625)" d="m220 8q-38 16-57.5 41t-28.5 55-11 64-5 69q-23-4-45-3.5t-38.5 4-23.5 10-1.5 14 27.5 15.5 65 15q6 0 17.5 6t13.5 9q7 10 13 34.5t12.5 54.5 16 60.5 24 52.5 35 31 50.5-4q3-2 8.5-7.5t11.5-11.5 11.5-11.5 7.5-8.5q4-49-6-83t-27-57.5-38-39.5-40-30.5-32.5-29.5-14.5-37q-2-26-2-47.5t5-40.5 17-36 35-33q17-12 42-6t51 21 51 34 43 32.5 26 17.5 0-12q-14-33-33-66t-45-56-59.5-30.5-75.5 10.5zm-32 363q-1-5-4-20t-3-20q1-1 3.5-1t3.5 1q3 2 9 6.5t12 9 11.5 9 7.5 6.5q30 30 42.5 55.5t12.5 41.5-10.5 21.5-25-3.5-30.5-34.5-29-71.5z"/><path transform="translate(37.688 15.938) scale(.015625 -.015625)" d="m465 15q-16 16-22 49t-5.5 74.5 5 88 10 90.5 9.5 80.5 3 59.5h-8q-38-62-73.5-88.5t-68-27.5-61.5 18-53.5 47-44 60.5-33.5 57.5l-106 159q-6 13-6 25.5t5.5 20.5 15.5 9 24-8q13-9 25.5-32.5t27.5-55 33.5-66.5 44-66 59-54.5 78.5-30.5q31-5 54.5 9.5t43 41 34.5 62.5 28 73 25 72.5 24 61.5 26 39 31 6q-5-50-14.5-113.5t-19.5-132-19-139.5-15-138-7.5-125.5 5.5-102.5q3-14-2-22.5t-14-11.5-19.5-1-19.5 11z"/><path transform="translate(47.781 15.938) scale(.015625 -.015625)" d="m79 8q-29 22-43 48.5t-18.5 56 0 61 13.5 63.5q6 20 11.5 48t13.5 56.5 19 53 27 38.5q10 9 26 13.5t33 5 33-0.5 26-2q44-3 68-29.5t32-65.5 2.5-87-22-94.5-41.5-87.5-54.5-66.5-62-30.5-63.5 20zm15 55q25-20 54-9t55.5 41 47.5 72.5 30 85 3 79-32 54.5q-37 25-70 15.5t-58-39-41.5-73.5-21.5-88 2.5-82 30.5-56z"/><path transform="translate(53.188 15.938) scale(.015625 -.015625)" d="m512 8q-24 7-44 25.5t-36 44-28 55-21.5 59-16.5 55.5-12 45h-8q-12-26-36.5-62.5t-54.5-70.5-63.5-59-63.5-29.5-54 18-35 84.5q-5 95-7 189t0 189q3 4 10.5 10t15.5 8 14.5-2.5 6.5-22.5v-331q0-9 2.5-21t8-23.5 12.5-21 16-13.5q36-15 65 0.5t52.5 49.5 43 80.5 35.5 91.5 29.5 83.5 26.5 57.5q2-1 4.5-4.5t3.5-4.5q3-4 12-15.5t11-15.5q0-18 0.5-49.5t3.5-69 9-78 16.5-77.5 27-66.5 40-45 55-14 73.5 27.5q21 13 25 24t3 22.5-1.5 23.5 13.5 29q25 8 38-6t14.5-39-10-54.5-37-51.5-65-31.5-94.5 6.5z"/><path transform="translate(71.547 15.938) scale(.015625 -.015625)" d="m201-23q-72 18-111.5 71t-53.5 124.5-6 154 32 159.5 59.5 141.5 77 100 84.5 33.5 82-56q35-48 51.5-104t11.5-116q-17-21-36-26.5t-37.5-1.5-34.5 14-26.5 21-13 19.5 6.5 8.5h86q1 10-0.5 30.5t-6.5 45.5-13 50-20 44-27.5 28.5-35.5 3.5q-34-12-59.5-45t-44-74.5-31-84.5-21.5-73q-44-145-37-240t47.5-144.5 106.5-56 140 25 147 98.5 128 164q12 20 27 41t20 45q-6 2-32-6.5t-60.5-21-73-25-69.5-19-50-4-14 20.5q3 12 18.5 26.5t36 25 40.5 15 31-3.5q25 4 53.5 16t57.5 24 57 21.5 52 9.5q30 0 38.5-9.5t5.5-23-12.5-28.5-15.5-25q-32-56-65.5-112t-71-105.5-80-90.5-93.5-66-111.5-31.5-133.5 11.5z"/><path transform="translate(83.984 15.938) scale(.015625 -.015625)" d="m62 15q-4 16-6 44t-2 62.5 0.5 72.5 1.5 74 0.5 67-2.5 51q-1 15-2.5 44.5t-3.5 66.5-4.5 78-3.5 78.5-1 69 2 48.5q15 13 24.5-6.5t14.5-56 6.5-82.5 1.5-87-1-69-1-29q5-94 6.5-185.5t9.5-184.5q10-19 10.5-40.5t-6-34.5-18.5-11-26 30z"/><path transform="translate(86.188 15.938) scale(.015625 -.015625)" d="m79 8q-29 22-43 48.5t-18.5 56 0 61 13.5 63.5q6 20 11.5 48t13.5 56.5 19 53 27 38.5q10 9 26 13.5t33 5 33-0.5 26-2q44-3 68-29.5t32-65.5 2.5-87-22-94.5-41.5-87.5-54.5-66.5-62-30.5-63.5 20zm15 55q25-20 54-9t55.5 41 47.5 72.5 30 85 3 79-32 54.5q-37 25-70 15.5t-58-39-41.5-73.5-21.5-88 2.5-82 30.5-56z"/><path transform="translate(91.594 15.938) scale(.015625 -.015625)" d="m343 27q-40 23-62.5 46.5t-42.5 46-46 43-72 36.5q-7-20-11-47t-6.5-54.5-4-52-3.5-37.5q-13-16-25-14t-21.5 12.5-16 25-7.5 22.5q23 54 31.5 109t8 113-6.5 120-10 130q5 8 13.5 13t18.5 1q13 15 34 33.5t45.5 34 51 25.5 49.5 8.5 40.5-17.5 25.5-52q8-52-3-97t-35.5-85.5-61.5-76-82-68.5q-3-6 2.5-11.5t14-10 17.5-7.5 13-4q20-14 44-37.5t50.5-48 54-44.5 54.5-25.5 52.5 7.5 48.5 55h16q4-30-9.5-55.5t-38-39.5-56.5-15-64 18zm-231 329q1-4 2-14.5t2.5-22 2.5-21.5 1-14q43 17 75 53t52 77.5 26.5 83-0.5 68.5-29.5 33.5-60.5-20.5q-36-26-52.5-50.5t-22-51-2.5-56 6-65.5z"/><path transform="translate(98.703 15.938) scale(.015625 -.015625)" d="m267-614q-34 17-46.5 70t-8.5 124 22.5 150 48 148 68 117.5 82.5 59.5q1 6 2 19.5t2 28.5 2 28.5 1 19.5q1 22 1 56.5t0 67 0 56-1 24.5l-7 7q-8-14-32-48t-57-74-73-79.5-81-65-80-29-71 28.5q-16 15-21.5 46.5t-5 70 6 81 12.5 81 13.5 69 9.5 45.5q5 12 15.5 15.5t20.5 1 16.5-11 3.5-20.5q-11-42-19.5-81t-14-78-7-79 1.5-84q20-27 49-23.5t62 25 67 56.5 63 71 50.5 67.5 30.5 46.5 14.5 34 12 37.5 15 35.5 22.5 27l31-31v-410q5-1 23.5 1t32.5 2 16.5-5.5-24.5-21.5q-14-8-27.5-16.5t-28.5-14.5q-9-85-17-149.5t-18-123.5-24-121-35-142q-8-18-17.5-42.5t-23-44-32.5-28-46 4.5zm32 63q10-7 24 26t28.5 88.5 28 123.5 24 131 16.5 111 5 64q-45-39-79-90.5t-55.5-110-29.5-120-2-121.5q1-9 3.5-23.5t5-28.5 4.5-24 3-11z"/></svg>