<svg width="63.924" height="16.8" viewBox="0 0 63.924 16.8" xmlns="http://www.w3.org/2000/svg"><path transform="translate(0 12.6) scale(.014 -.014)" d="m253 0q-71 0-111 20t-56 60-16 99v223q0 96 43 141.5t140 45.5h301q69 0 105.5-7.5t36.5-15.5l-20-83q-17 3-100.5 6.5t-242.5 3.5h-51q-80 0-80-71v-255q0-34 17.5-52.5t62.5-18.5h41q96 0 162 1.5t109 2.5v136l-60-1-131-10v98h322v-281l10-21q0-8-42-14.5t-142-6.5z"/><path transform="translate(11.13 12.6) scale(.014 -.014)" d="m182 0q-67 0-99.5 27t-32.5 88v205q0 15 2.5 36.5t14 42.5 39 35 76.5 14h276q50 0 77-14t38.5-35 14-42.5 2.5-36.5v-192q0-18-2.5-40t-14.5-42-39-33-76-13zm38 86h200q49 0 49 40v196q0 40-49 40h-200q-48 0-48-40v-196q0-40 48-40z"/><path transform="translate(20.09 12.6) scale(.014 -.014)" d="M70 0V554L60 634H192V0Z"/><path transform="translate(23.618 12.6) scale(.014 -.014)" d="m182 0q-50 0-77 13t-38.5 33-14 42-2.5 40v192q0 15 2.5 36.5t14 42.5 39 35 76.5 14h51q92 0 148.5-3.5t86.5-7.5v197h122v-634h-82l-39 20q-42-7-101-13.5t-136-6.5zm38 86h217q21 0 26 5t5 25v239q-34 2-86 4.5t-111 2.5h-51q-48 0-48-40v-196q0-40 48-40z"/><path transform="translate(32.858 12.6) scale(.014 -.014)" d="m60 0v448h82l25-12q29 5 71 8.5t100 3.5h50q29 0 56-7.5t40-21.5q26 13 72 21t120 8h50q50 0 77-14t38.5-35 14-42.5 2.5-36.5v-320h-122v322q0 40-48 40h-140q-16 0-22-4t-6-18v-340h-122v322q0 40-48 40h-138q-19 0-24.5-3.5t-5.5-18.5v-340z"/><path transform="translate(45.64 12.6) scale(.014 -.014)" d="m189 0q-76 0-110 35.5t-34 97.5q0 65 35.5 100t108.5 35h51q75 0 135-4t99-8v66q0 9-2 18.5t-12 15.5-34 6h-50q-109 0-182-3.5t-99-6.5l-11 76q0 14 76 17t254 3h50q50 0 77-14t38.5-35 14-42.5 2.5-36.5v-320h-82l-39 20q-42-7-101-13.5t-135-6.5zm26 86h229q22 0 26 4t4 25v77h-259q-27 0-37.5-13t-10.5-41 12-40 36-12z"/><path transform="translate(54.754 12.6) scale(.014 -.014)" d="m60 0v448h82l40-20q42 8 101 14t135 6h50q50 0 77-14t38.5-35 14-42.5 2.5-36.5v-320h-122v322q0 40-48 40h-218q-19 0-24.5-3.5t-5.5-18.5v-340z"/></svg>