<svg width="82.48" height="19.2" viewBox="0 0 82.48 19.2" xmlns="http://www.w3.org/2000/svg"><path transform="translate(0 15.68) scale(.016 -.016)" d="m365-10q-82 0-151.5 37t-111.5 115.5-42 202.5v20q0 90 24 155t66.5 107 97.5 62.5 117 20.5q51 0 95-14.5t79-41.5 59.5-66 36.5-88h-100q-14 44-40.5 72t-60 41-69.5 13q-54 0-101-25t-75.5-82.5-28.5-153.5v-20q0-76 18-128t47.5-83.5 66-45.5 73.5-14q56 0 97.5 20.5t67 65 30.5 115.5h-175v80h265v-30q0-81-19.5-143.5t-57-105-90-64.5-118.5-22z"/><path transform="translate(11.28 15.68) scale(.016 -.016)" d="m300-10q-67 0-125.5 29.5t-94 89.5-35.5 151v20q0 86 35.5 144t94 87 125.5 29q68 0 126-29t93.5-87 35.5-144v-20q0-91-35.5-151t-93.5-89.5-126-29.5zm0 80q41 0 78.5 18.5t62 60.5 24.5 111v20q0 64-24.5 103.5t-62 58-78.5 18.5q-40 0-78-18.5t-62.5-58-24.5-103.5v-20q0-69 24.5-111t62.5-60.5 78-18.5z"/><path transform="translate(20.88 15.68) scale(.016 -.016)" d="m240-5q-55 0-89.5 17.5t-50 55-15.5 97.5v535h88v-535q0-52 17-71t60-19q11 0 19 0.5t16 1.5v-78q-5-1-13.5-2t-17-1.5-14.5-0.5z"/><path transform="translate(26 15.68) scale(.016 -.016)" d="m300-10q-67 0-125.5 29.5t-94 89.5-35.5 151v20q0 86 35.5 144t94 87 125.5 29q68 0 126-29t93.5-87 35.5-144v-20q0-91-35.5-151t-93.5-89.5-126-29.5zm0 80q41 0 78.5 18.5t62 60.5 24.5 111v20q0 64-24.5 103.5t-62 58-78.5 18.5q-40 0-78-18.5t-62.5-58-24.5-103.5v-20q0-69 24.5-111t62.5-60.5 78-18.5z"/><path transform="translate(35.6 15.68) scale(.016 -.016)" d="m265-10q-53 0-92 12.5t-65 33.5-41.5 49.5-21.5 59.5h88q7-32 37.5-55.5t94.5-23.5q74 0 103 23.5t29 55.5q0 22-12.5 38.5t-44 28.5-89.5 20q-44 6-79 17.5t-60 30.5-38.5 46-13.5 64q0 40 23 74t69 55 113 21q63 0 104.5-21.5t64.5-56.5 31-77h-88q-8 35-34 57t-78 22q-65 0-91-21.5t-26-52.5q0-36 28.5-54t104.5-28q49-6 87-17.5t64-31 39.5-47.5 13.5-67q0-42-24-77t-72.5-56.5-123.5-21.5z"/><path transform="translate(48.08 15.68) scale(.016 -.016)" d="M263 0V618H20V700H600V618H357V0Z"/><path transform="translate(58 15.68) scale(.016 -.016)" d="m300-10q-67 0-125.5 29t-94 89-35.5 152v20q0 88 34 145.5t90 86 121 28.5q117 0 181-64t64-181v-56h-402q0-62 25.5-99t64-53.5 77.5-16.5q60 0 92.5 20t46.5 55h86q-16-76-78.5-115.5t-146.5-39.5zm-5 470q-41 0-78-15.5t-60.5-48.5-23.5-85h319q-1 55-22.5 87.5t-56.5 47-78 14.5z"/><path transform="translate(67.28 15.68) scale(.016 -.016)" d="M25 0 224 269 35 530H137L277 337L417 530H515L326 274L525 0H421L273 207L125 0Z"/><path transform="translate(76.08 15.68) scale(.016 -.016)" d="m275-5q-56 0-91.5 17t-52 51.5-16.5 86.5v302h-80v78h80v120h88v-120h142v-78h-142v-292q0-45 19-65t73-20q30 0 60 3v-78q-19-2-38-3.5t-42-1.5z"/></svg>