<svg width="91.312" height="20.032" viewBox="0 0 91.312 20.032" xmlns="http://www.w3.org/2000/svg"><path transform="translate(0 15.456) scale(.016 -.016)" d="m415-16q-76 0-143.5 28t-118.5 79-80 119-29 148 29 148 80 119 118.5 79 143.5 28q79 0 148.5-28t114.5-79l-60-60q-23 28-55 47t-69 29-78 10q-57 0-109-20.5t-91.5-59-62.5-92.5-23-121 23.5-121 63.5-92.5 91.5-59 107.5-20.5q48 0 93.5 13.5t82 42 60.5 73.5 29 108h-264v79h344q2-13 3.5-25t1.5-26v-1q0-77-26-140.5t-73-109-111-70.5-141-25z"/><path transform="translate(12.896 15.456) scale(.016 -.016)" d="m297-16q-77 0-136 36t-92.5 97.5-33.5 137.5 33.5 137.5 92.5 97.5 136 36 136-36.5 92.5-98 33.5-136.5q0-76-33.5-137.5t-92.5-97.5-136-36zm0 77q46 0 86.5 23t65.5 66.5 25 104.5-25 104.5-65.5 66.5-86.5 23-87-23-66-66.5-25-104.5 25-104.5 66-66.5 87-23z"/><path transform="translate(22.4 15.456) scale(.016 -.016)" d="m297-16q-77 0-136 36t-92.5 97.5-33.5 137.5 33.5 137.5 92.5 97.5 136 36 136-36.5 92.5-98 33.5-136.5q0-76-33.5-137.5t-92.5-97.5-136-36zm0 77q46 0 86.5 23t65.5 66.5 25 104.5-25 104.5-65.5 66.5-86.5 23-87-23-66-66.5-25-104.5 25-104.5 66-66.5 87-23z"/><path transform="translate(31.904 15.456) scale(.016 -.016)" d="m286-232q-65 0-111.5 21.5t-75 54.5-40.5 67l78 33q16-42 54.5-70.5t94.5-28.5q80 0 123 46.5t43 129.5v57h-4q-24-37-69-62.5t-105-25.5q-66 0-120.5 34t-86.5 94.5-32 139.5 32 139.5 86.5 94.5 120.5 34q60 0 105-25.5t69-63.5h4v73h81v-490q0-85-32.5-141t-88-83.5-126.5-27.5zm0 299q45 0 83 22.5t60.5 65.5 22.5 103q0 62-22.5 104.5t-60.5 64.5-83 22-83-22.5-61-65-23-103.5 23-103.5 61-65 83-22.5z"/><path transform="translate(41.424 15.456) scale(.016 -.016)" d="M62 0V716H147V0Z"/><path transform="translate(44.768 15.456) scale(.016 -.016)" d="m289-16q-74 0-131.5 35t-90 96-32.5 139q0 73 30.5 135t86 99.5 130.5 37.5q76 0 130.5-33.5t84-92.5 29.5-135q0-7-0.5-14t-1.5-12h-439v70h351q-1 21-9.5 45.5t-27 46-47 35-70.5 13.5q-50 0-86.5-25.5t-56-69.5-19.5-100q0-65 25-108t64.5-64 82.5-21q56 0 92.5 26.5t58.5 65.5l72-35q-30-58-86-96t-140-38z"/><path transform="translate(57.456 15.456) scale(.016 -.016)" d="m279-16q-52 0-103 22t-90 65-57 107l81 33q17-62 62-104t109-42q40 0 73.5 14.5t54 42.5 20.5 68q0 36-17.5 61t-52.5 44.5-86 37.5l-45 16q-30 11-60.5 26.5t-56 38-40.5 54-15 74.5q0 52 28 95t77 69 113 26q67 0 112.5-24.5t72-58 35.5-61.5l-79-34q-6 21-23 43.5t-45.5 38-71.5 15.5q-35 0-65.5-14t-49-38.5-18.5-56.5q0-45 36-71t97-47l47-16q32-11 65.5-27t62.5-41 47-61.5 18-87.5q0-55-21.5-94.5t-56.5-64.5-76.5-36.5-81.5-11.5z"/><path transform="translate(66.336 15.456) scale(.016 -.016)" d="m227-16q-57 0-100 22t-67.5 60.5-24.5 87.5q0 56 29 94.5t78 58 108 19.5q34 0 63-5.5t50.5-13 32.5-14.5v31q0 58-41 92t-100 34q-42 0-78.5-18.5t-57.5-51.5l-64 48q20 30 50 52t68.5 34 81.5 12q104 0 163-55t59-148v-323h-81v73h-4q-13-22-37-42.5t-56.5-33.5-71.5-13zm8 75q44 0 80.5 22t58.5 59 22 81q-23 16-57.5 26t-75.5 10q-73 0-107-30t-34-74q0-42 32-68t81-26z"/><path transform="translate(74.832 15.456) scale(.016 -.016)" d="m62 0v510h81v-75h4q20 37 65.5 64t99.5 27q94 0 141.5-54.5t47.5-144.5v-327h-85v314q0 74-35.5 104.5t-91.5 30.5q-42 0-74-23.5t-50-60.5-18-78v-287z"/><path transform="translate(83.776 15.456) scale(.016 -.016)" d="m240-16q-57 0-100.5 18.5t-72 50-42.5 68.5l76 34q20-46 58-71t87-25q47 0 78.5 19t31.5 56q0 23-13 38.5t-38 26.5-61 20l-62 16q-36 10-68 28t-51.5 46.5-19.5 69.5q0 46 27 79t71 50.5 94 17.5q44 0 82.5-12.5t67.5-37 44-60.5l-74-34q-19 38-51 53t-71 15q-42 0-73-18.5t-31-50.5 25.5-48 62.5-26l74-19q75-19 113-56.5t38-91.5q0-48-27-83t-73-54-102-19z"/></svg>