<svg width="123.38" height="20.032" viewBox="0 0 123.38 20.032" xmlns="http://www.w3.org/2000/svg"><path transform="translate(0 15.456) scale(.008 -.008)" d="m832-32q-310 5-526 222t-216 530q0 315 217 529.5t525 214.5q177 0 311-60t221-160l-118-121q-102 109-203 144t-207 35q-242 0-408-162t-166-419 166-424 406-167q226 0 369 125t161 349h-528v158h689q5-37 7-60t2-42q0-306-197-499t-505-193z"/><path transform="translate(12.624 15.456) scale(.008 -.008)" d="m596-32q-226 0-375 155t-149 388q0 237 149.5 389t374.5 152q224 0 374-153.5t150-387.5q0-233-148.5-388t-375.5-155zm0 154q150 0 252 109t102 280q0 174-103 280.5t-251 106.5q-150 0-252.5-107t-102.5-280q0-171 101.5-280t253.5-109z"/><path transform="translate(22.16 15.456) scale(.008 -.008)" d="m596-32q-226 0-375 155t-149 388q0 237 149.5 389t374.5 152q224 0 374-153.5t150-387.5q0-233-148.5-388t-375.5-155zm0 154q150 0 252 109t102 280q0 174-103 280.5t-251 106.5q-150 0-252.5-107t-102.5-280q0-171 101.5-280t253.5-109z"/><path transform="translate(31.696 15.456) scale(.008 -.008)" d="m574-464q-162 0-280 75t-172 204l140 71q49-98 125.5-147t186.5-49q154 0 242.5 89t88.5 280v97h-6q-52-82-144.5-129t-204.5-47q-204 0-341 152t-137 387q0 229 138 381t340 152q110 0 204-48t146-130h46l-40-50v196h162v-950q0-264-127-399t-367-135zm0 598q144 0 238 106t94 282q0 172-94 274t-238 102q-143 0-238.5-105t-95.5-274q0-175 94-280t240-105z"/><path transform="translate(41.248 15.456) scale(.008 -.008)" d="m126 0v1432h170v-1432z"/><path transform="translate(44.624 15.456) scale(.008 -.008)" d="m580-32q-222 0-365 153t-143 391q0 233 140 386.5t354 153.5q220 0 353-144.5t133-373.5q0-18-1-27.5t-3-28.5h-876v140h702q-10 118-91 199t-217 81q-144 0-234-105t-90-281q0-178 99.5-284t247.5-106q98 0 168 42t131 142l143-70q-64-136-177-202t-274-66z"/><path transform="translate(57.232 15.456) scale(.008 -.008)" d="m565-32q-172 0-302 92t-203 296l163 62q59-150 142-219t205-69q130 0 211 69t81 181q0 89-63 155.5t-260 133.5q-248 84-335.5 181t-87.5 225q0 168 125.5 278.5t313.5 110.5q150 0 260-71t178-217l-156-68q-49 103-115.5 148.5t-172.5 45.5q-101 0-181.5-61t-80.5-157q0-75 56-131.5t293-133.5q205-67 301.5-172t96.5-263q0-195-145.5-305.5t-323.5-110.5z"/><path transform="translate(66.04 15.456) scale(.008 -.008)" d="m452-32q-170 0-277 96.5t-107 248.5q0 153 120.5 246t309.5 93q84 0 165-19t127-47v62q0 112-79 182t-203 70q-89 0-151-32.5t-123-105.5l-129 96q95 110 184 152t219 42q206 0 325-109t119-297v-646h-162v247l60-100h-66q-48-80-138-129.5t-194-49.5zm16 151q133 0 227.5 94t94.5 229q-50 34-120 53t-146 19q-130 0-206-51t-76-153q0-85 64-138t162-53z"/><path transform="translate(74.6 15.456) scale(.008 -.008)" d="m126 0v1020h162v-180l-27 30h33q44 78 137 130t195 52q180 0 279-105t99-293v-654h-170v628q0 134-64 202t-190 68q-120 0-202-96t-82-228v-574h-170z"/><path transform="translate(83.576 15.456) scale(.008 -.008)" d="m482-32q-154 0-264 67t-172 207l153 68q45-99 119-145.5t176-46.5q100 0 157 39t57 115q0 57-49 96.5t-200 76.5q-199 49-288 121t-89 191q0 134 113.5 214.5t276.5 80.5q137 0 234.5-56t148.5-163l-148-68q-35 69-95.5 102.5t-144.5 33.5q-88 0-150-37t-62-100q0-57 46-94.5t214-76.5q209-49 287.5-126t78.5-186q0-143-111.5-228t-287.5-85z"/><path transform="translate(94.72 15.456) scale(.008 -.008)" d="m160 0v1432h786v-162h-616v-1270zm90 620v160h674v-160z"/><path transform="translate(103.22 15.456) scale(.008 -.008)" d="m126 0v1432h170v-1432z"/><path transform="translate(106.59 15.456) scale(.008 -.008)" d="m580-32q-222 0-365 153t-143 391q0 233 140 386.5t354 153.5q220 0 353-144.5t133-373.5q0-18-1-27.5t-3-28.5h-876v140h702q-10 118-91 199t-217 81q-144 0-234-105t-90-281q0-178 99.5-284t247.5-106q98 0 168 42t131 142l143-70q-64-136-177-202t-274-66z"/><path transform="translate(115.6 15.456) scale(.008 -.008)" d="m756 0-300 452h-28l-403 568h195l314-454h18l398-566zm-742 0 411 586h36l299 434h195l-404-562h-30l-312-458z"/></svg>