<svg width="88.97" height="20.272" viewBox="0 0 88.97 20.272" xmlns="http://www.w3.org/2000/svg"><path transform="translate(0 16.24) scale(.014 -.014)" d="m45 429q0 109 42 190t118.5 126 178.5 45q68 0 127-20t99-56q4-4 0-9l-31-39q-3-5-9-1-34 33-82.5 51t-105.5 18q-85 0-146-38t-93.5-106.5-32.5-159.5q0-93 33.5-162.5t93.5-108 140-38.5q55 0 105 11t88 37v203h-157q-6 0-6 6v45q0 6 6 6h216q6 0 6-6v-276q-43-38-111.5-60t-148.5-22q-103 0-177 48t-113.5 130.5-39.5 185.5z"/><path transform="translate(10.08 16.24) scale(.014 -.014)" d="m260 65q-101 0-160.5 66t-59.5 178q0 113 59.5 179.5t160.5 66.5 160.5-66.5 59.5-179.5q0-112-59.5-178t-160.5-66zm0 55q74 0 115.5 50.5t41.5 139.5q0 90-41.5 140.5t-115.5 50.5-115.5-50.5-41.5-140.5q0-89 41.5-139.5t115.5-50.5z"/><path transform="translate(17.36 16.24) scale(.014 -.014)" d="m646 540q6 0 4-7l-152-448q-1-5-7-5h-47q-6 0-7 5l-95 288-115-288q-2-5-7-5h-47q-6 0-7 5l-146 448q-2 7 4 7h52q6 0 7-5l117-375 115 295-26 78q-2 7 4 7h51q6 0 7-5l117-366 119 366q1 5 7 5z"/><path transform="translate(26.74 16.24) scale(.014 -.014)" d="m475 74q0-4-5-4-26 0-48 15.5t-32 43.5q-29-28-69-46t-90-18q-74 0-112.5 43t-38.5 136v291q0 5 5 5h52q5 0 5-5v-289q0-70 27.5-97t77.5-27q38 0 74.5 17.5t61.5 52.5v343q0 5 5 5h52q5 0 5-5v-376q0-17 9-23.5t22-11.5q4-1 4-6z"/><path transform="translate(34.09 16.24) scale(.014 -.014)" d="m147 85q0-5-5-5h-52q-5 0-5 5v450q0 5 5 5h42q5 0 5-5l7-50q29 30 70.5 50t94.5 20q74 0 112.5-43t38.5-136v-291q0-5-5-5h-52q-5 0-5 5v289q0 70-27.5 97t-77.5 27q-42 0-82-21.5t-64-64.5z"/><path transform="translate(45.99 16.24) scale(.014 -.014)" d="m105 86v683q0 6 6 6h157q187 0 282-89.5t95-252.5q0-112-46.5-191t-129.5-120.5-193-41.5h-165q-6 0-6 6zm65 51h106q91 0 159 32.5t106.5 98.5 38.5 164q0 140-75 213.5t-237 73.5h-98z"/><path transform="translate(55.65 16.24) scale(.014 -.014)" d="m260 65q-101 0-160.5 66t-59.5 178q0 113 59.5 179.5t160.5 66.5 160.5-66.5 59.5-179.5q0-112-59.5-178t-160.5-66zm0 55q74 0 115.5 50.5t41.5 139.5q0 90-41.5 140.5t-115.5 50.5-115.5-50.5-41.5-140.5q0-89 41.5-139.5t115.5-50.5z"/><path transform="translate(62.93 16.24) scale(.014 -.014)" d="m470 74q0-4-5-4-27 0-50.5 18t-32.5 49q-22-28-58.5-50t-90.5-22q-90 0-141.5 67.5t-51.5 180.5q0 77 26.5 131t73 82.5 105.5 28.5q40 0 73.5-10.5t59.5-25.5v276q0 5 5 5h52q5 0 5-5v-636q0-17 9-25t22-10q4-1 4-6zm-92 161v211q-27 22-60.5 37t-71.5 15q-67 0-105-49t-38-133q0-91 38.5-141.5t98.5-50.5q61 0 94.5 34t43.5 77z"/><path transform="translate(70.14 16.24) scale(.014 -.014)" d="m475 74q0-4-5-4-26 0-48 15.5t-32 43.5q-29-28-69-46t-90-18q-74 0-112.5 43t-38.5 136v291q0 5 5 5h52q5 0 5-5v-289q0-70 27.5-97t77.5-27q38 0 74.5 17.5t61.5 52.5v343q0 5 5 5h52q5 0 5-5v-376q0-17 9-23.5t22-11.5q4-1 4-6z"/><path transform="translate(77.49 16.24) scale(.014 -.014)" d="m147 85q0-5-5-5h-52q-5 0-5 5v450q0 5 5 5h42q5 0 5-5l8-56q25 32 64.5 54t91.5 22q100 0 131-87 25 36 66 61.5t98 25.5q71 0 107.5-44.5t36.5-130.5v-295q0-5-5-5h-52q-5 0-5 5v293q0 62-24.5 91t-71.5 29q-42 0-78.5-24t-59.5-67q1-13 1-27v-295q0-5-5-5h-52q-5 0-5 5v293q0 62-24.5 91t-71.5 29q-43 0-80.5-25t-59.5-71z"/></svg>