<svg width="84.464" height="18.224" viewBox="0 0 84.464 18.224" xmlns="http://www.w3.org/2000/svg"><path transform="translate(0 15.248) scale(.016 -.016)" d="M470 305H332V385H550V110L446 0H184L80 110V640L184 750H446L550 640V514H470V599L407 664H224L172 611V139L223 86H406L470 151Z"/><path transform="translate(9.92 15.248) scale(.016 -.016)" d="M80 650H480L584 540V340L483 234L576 80H629V0H451V80H479L389 230H242V80H302V0H80V80H150V570H80ZM242 564V316H440L498 375V505L441 564Z"/><path transform="translate(21.104 15.248) scale(.016 -.016)" d="M430 0V80H496L453 204H203L160 80H227V0H15V80H68L237 570H195V650H462V570H419L588 80H642V0ZM328 567 230 284H426Z"/><path transform="translate(31.616 15.248) scale(.016 -.016)" d="M80 650H506L610 540V110L506 0H80V80H150V570H80ZM242 86H466L518 139V511L467 564H242Z"/><path transform="translate(42.656 15.248) scale(.016 -.016)" d="M448 650H670V570H610V110L506 0H234L130 110V570H70V650H292V570H222V139L273 86H466L518 139V570H448Z"/><path transform="translate(54.496 15.248) scale(.016 -.016)" d="M430 0V80H496L453 204H203L160 80H227V0H15V80H68L237 570H195V650H462V570H419L588 80H642V0ZM328 567 230 284H426Z"/><path transform="translate(65.008 15.248) scale(.016 -.016)" d="M436 0H144V80H244V570H106V454H30V650H550V454H474V570H336V80H436Z"/><path transform="translate(74.288 15.248) scale(.016 -.016)" d="M80 650H556V454H476V570H242V365H476V285H242V80H476V196H556V0H80V80H150V570H80Z"/></svg>