<svg width="63.248" height="20.032" viewBox="0 0 63.248 20.032" xmlns="http://www.w3.org/2000/svg"><path transform="translate(0 13.616) scale(.016 -.016)" d="m82-376q-59 0-93.5 22t-34.5 56q0 32 24 60t62.5 50.5 84 40 89 29 76.5 15.5q31 5 68.5 8t76 5.5 69.5 2.5q37 63 60.5 119t41.5 129l4 16q-19-18-53.5-43.5t-80-51-97-42.5-105.5-17q-71 0-122.5 34t-79 94.5-27.5 139.5q0 47 12 100.5t39 109.5q-31 32-48.5 71t-17.5 80q0 36 15 71.5t47 68.5q9 10 17 10 4 0 4-4 0-6-7-14-23-28-34-59t-11-62q0-35 13.5-69t38.5-63q26 55 71.5 107t106.5 93.5 133 66 150 24.5q104 0 164.5-45t60.5-136q0-43-23.5-86t-71-79-118-58-163.5-24q-73-1-144 18.5t-120 51.5q-25-53-36.5-103.5t-11.5-94.5q0-101 49.5-154t132.5-53q45 0 90.5 13.5t84.5 35.5 66.5 46.5 36.5 45.5q23 52 45.5 72.5t40.5 20.5q15 0 25.5-13.5t7.5-36.5q-10-83-45.5-161t-91.5-169q68-1 122.5-7.5t98.5-17.5q12-3 16.5-7.5t4.5-7.5q0-7-12-7-6 0-17 3-23 6-61 10.5t-81.5 6.5-83.5 2q-42-60-99.5-108.5t-122-83.5-126-53.5-110.5-18.5zm314 800q68 0 132 18t115 50 81.5 74.5 30.5 90.5q0 44-24.5 75.5t-62.5 48.5-81 17q-68 0-130-26t-115-69.5-96.5-98.5-73.5-113q41-31 99.5-49t124.5-18zm-316-774q39 0 92 15.5t111 45.5 111.5 74 93.5 101q-48-1-94.5-4.5t-92.5-11.5q-25-4-61.5-15t-75.5-28-73.5-38-56-45-21.5-49q0-18 15.5-31.5t51.5-13.5z"/><path transform="translate(11.232 13.616) scale(.016 -.016)" d="m60 196q8 17 21 54.5t27 83.5 21 87q3 16 11 23.5t17 7.5q13 0 24-12.5t11-35.5q0-28-16.5-48t-40.5-38q10-1 21-1.5t24-0.5q47 0 93 6 2-6 2-9 0-13-7.5-33t-15.5-36q-4-9-16-32.5t-26-53-23.5-58-9.5-48.5q0-26 20-26 19 0 53 44.5t68 122.5q12 0 12-9-11-27-27.5-59t-36.5-60.5-43-47-48-18.5q-19 0-38 15.5t-19 50.5q0 31 12 60.5t27 55.5 27 46 12 32q0 18-22.5 26t-58.5 9q-18-46-27-68t-17-42q-16 0-11 12z"/><path transform="translate(15.376 13.616) scale(.016 -.016)" d="m131-4q-37 0-66.5 24t-29.5 73q0 41 18.5 87t49 86.5 68 66 75.5 25.5q19 0 37-11t18-38q0-25-19-55t-54-56q-15-11-38-21t-46-16.5-38-6.5q-5-12-9.5-32t-4.5-41q0-25 10-45t37-20q33 0 61.5 19t51 48 38.5 59 25 51q12 0 12-9-13-28-29.5-61t-39-61.5-54-47-73.5-18.5zm-18 176q14 0 47 10.5t60 33.5q26 23 40 50.5t14 46.5q0 22-16 22-12 0-33-16t-52-54q-19-24-36-52t-24-41z"/><path transform="translate(19.472 13.616) scale(.016 -.016)" d="m276-3q-23 0-40.5 13t-17.5 53q0 17 2.5 32t6.5 32q-9-15-25-37t-35.5-43-40-35-38.5-14q-26 0-42 23.5t-16 61.5q0 41 19 88t52 90 76 70 90 27q23 0 44-7.5t37-24.5q7-7 7-16 0-6-5-10t-13-2q-11 35-47 35-17 0-39-11-27-14-57.5-44.5t-57-69-43.5-77.5-17-71q0-33 25-33 22 0 45.5 21t45 52.5 39.5 62.5 28 50q15 27 28 45t37 18q11 0 22-3t23-1q-30-30-52.5-71t-34.5-80.5-12-66.5q0-30 20-30 16 0 34.5 18t36 45.5 32.5 56 24 49.5q5 0 8.5-1t3.5-8q-1-4-3.5-8.5t-7.5-15.5q-8-16-22-43t-33-54.5-41-46.5-46-19z"/><path transform="translate(25.2 13.616) scale(.016 -.016)" d="m266 528q-13-19-29-48t-29.5-56-20.5-41h92q0-4-3.5-13t-13.5-13h-87q-12-27-27.5-65t-30-79-24-76.5-9.5-57.5q0-30 8-44.5t29-14.5q27 0 52 26.5t47.5 66.5 39.5 80q12 0 12-9-11-27-27-59t-36.5-61.5-46-48-56.5-18.5q-42 0-57 23.5t-15 60.5q0 27 10 65.5t24.5 79.5 28.5 76.5 22 54.5h-64q0 8 7 17t15 9h53q8 16 18.5 40t28.5 53q15 24 38.5 38t50.5 14z"/><path transform="translate(31.152 13.616) scale(.016 -.016)" d="m747 659q0-38-14.5-93.5t-38-121-49.5-133.5-49.5-131.5-38-115-14.5-82.5q0-47 31-47 30 0 73 27.5t91.5 74 95.5 106 85.5 123.5 61.5 126.5 23 114.5q0 35-9.5 63t-39.5 28q-13 0-20.5 5.5t-7.5 10.5q0 10 17 10 12 0 30.5-8.5t37-26 31.5-44.5 13-64q0-46-24.5-106.5t-66-125-94-126-109.5-111-111.5-79-100.5-29.5q-39 0-52 24t-13 63q0 61 20.5 133t51 149.5 61 154.5 51 148 20.5 131q0 68-38.5 92t-100.5 24q-61 0-129.5-23t-134-65-118.5-100.5-84.5-130-31.5-153.5q0-48 16.5-89.5t53.5-67 97-25.5q45 0 86.5 19t73.5 51.5 51 72.5 19 82q0 34-14 59.5t-47 25.5q-13 0-27-4t-19-4-5 6q0 2 2 5t7 6q11 6 27 9.5t28 3.5q44 0 68-31t24-75q0-48-25-93t-66.5-81-93-57-105.5-21q-67 0-113.5 33t-70 86.5-23.5 114.5q0 79 31.5 150.5t86.5 130 125 101.5 147.5 66.5 154.5 23.5q58 0 104.5-19t74-60.5 27.5-110.5z"/><path transform="translate(46.832 13.616) scale(.016 -.016)" d="m87 0q-37 0-52 21.5t-15 49.5q0 15 3.5 30.5t8.5 28.5l67 171q3 8 3 14 0 10-5 17.5t-7 10.5l55 2q15 1 21.5-3.5t6.5-10.5-7-22q-10-24-27-60t-33.5-74-28-71-11.5-51q0-13 6.5-22t22.5-9q21 0 41.5 16.5t38.5 42.5 33.5 56 26.5 56q12 0 12-9-10-25-26-57t-36.5-60.5-45-47.5-52.5-19zm89 407q-13 0-22.5 10t-9.5 24q0 17 14 30.5t31 13.5q14 0 24-9t10-23q0-18-14-32t-33-14z"/><path transform="translate(49.648 13.616) scale(.016 -.016)" d="m120-5q-41 0-58 25t-17 61q0 25 5.5 47t16.5 50h-2q-8 0-8 8 0 4 8.5 23t22 46 28 55 26.5 50q20 37 44 76.5t47.5 75.5 39.5 59q36 50 67 50h5q9 0 20.5-3t21.5-1q-15-16-45.5-57.5t-66.5-94.5q-15-22-37.5-59t-47.5-83-46.5-93.5-35.5-92-14-79.5q0-23 8-32t20-9q15 0 35.5 17.5t42 46 39.5 63 29.5 70 11.5 65.5q0 29-10.5 42t-27.5 13q-7 0-14-3.5t-12-3.5-5 5 10.5 11 31.5 6q19 0 38.5-10t32.5-32.5 13-58.5q0-43-20-87.5t-52-82-70.5-60.5-74.5-23z"/><path transform="translate(54.88 13.616) scale(.016 -.016)" d="m131-4q-37 0-66.5 24t-29.5 73q0 41 18.5 87t49 86.5 68 66 75.5 25.5q19 0 37-11t18-38q0-25-19-55t-54-56q-15-11-38-21t-46-16.5-38-6.5q-5-12-9.5-32t-4.5-41q0-25 10-45t37-20q33 0 61.5 19t51 48 38.5 59 25 51q12 0 12-9-13-28-29.5-61t-39-61.5-54-47-73.5-18.5zm-18 176q14 0 47 10.5t60 33.5q26 23 40 50.5t14 46.5q0 22-16 22-12 0-33-16t-52-54q-19-24-36-52t-24-41z"/><path transform="translate(58.976 13.616) scale(.016 -.016)" d="m80-4q-41 0-66.5 25.5t-25.5 53.5q0 23 11.5 42.5t30.5 19.5l1 2q22 40 42.5 81.5t45.5 88.5q21 39 45.5 64t57.5 25q8 0 22-3.5t14-14.5q0-8-9-8-7 0-15.5 4t-13.5 4q-19 0-32-22t-13-47q0-27 9-48.5t21-41.5 21-40.5 9-44.5q0-48-18.5-77.5t-48.5-44.5h1q53 0 87.5 49.5t68.5 129.5q12 0 12-9-19-45-42-88t-54-71-76-28q-19 0-35 4-23-5-50-5zm-15 106q0-24 11-46t40-33q26 15 40.5 46.5t14.5 65.5q0 28-6 57t-12.5 57-6.5 50q0 7 0.5 12.5t1.5 10.5q-18-27-36.5-63t-35.5-69-31-54q20-3 20-34zm-33-50q0-16 11-28t33-12q10 0 19 2-21 13-33.5 33t-12.5 46q-9-10-13-20.5t-4-20.5z"/></svg>