<svg width="40.336" height="23.68" viewBox="0 0 40.336 23.68" xmlns="http://www.w3.org/2000/svg"><path transform="translate(0 17.6) scale(.016 -.016)" d="m43 277q0 68 8 125.5t22 91.5q15 24 49 51.5t68 46.5 49 19q32-1 91-4.5t114-7.5l-12-171h-54l-12 99q-26 5-75 9.5t-67 4.5q-20 0-32-6-24-13-37-72t-13-151q0-141 31.5-197t86.5-56l109 10v159l-93 17v46h231v-39l-52-13v-180q-21-15-101.5-41.5t-97.5-26.5q-61 0-109 32t-76 96-28 158z"/><path transform="translate(8.544 17.6) scale(.016 -.016)" d="m69 24v368l-35 12v37q76 15 85 15 5 0 22.5-16t17.5-20l-2-35q72 76 78 76 16 0 67-16 3-7 4.5-16t1.5-15-11.5-28-15.5-24q-33 13-53 13-13 0-68-32v-280l51-15v-41q-99-16-108-16-5 0-19.5 14t-14.5 19z"/><path transform="translate(13.504 17.6) scale(.016 -.016)" d="m38 203q0 50 6.5 92.5t17.5 62.5q10 15 41.5 40t64 44 44.5 19q54 0 87.5-17t52-65 18.5-138l-236-20q0-60 16-95.5t37.5-49.5 39.5-14l47 2 82 3v-41q-37-12-87.5-23.5t-64.5-11.5q-43 0-81 23t-61.5 71-23.5 118zm235 77q0 60-16 90.5t-53 30.5q-22 0-38-7-13-6-21.5-46t-8.5-86z"/><path transform="translate(19.984 17.6) scale(.016 -.016)" d="m69 24v365l-35 15v37q82 15 91 15 5 0 18.5-13.5t13.5-18.5v-38q30 22 64.5 46t38.5 24q72 0 108-37.5t36-130.5v-229l35-15v-37q-83-16-91-16-5 0-20 14t-15 19v264q0 62-18 78t-40 16q-11 0-49.5-17.5t-45.5-20.5v-285l34-15v-37q-82-16-91-16-5 0-19.5 14t-14.5 19z"/><path transform="translate(27.568 17.6) scale(.016 -.016)" d="m38 46q47 76 109 188l80 140-2 12-110 6-9-66h-52l-8 122h275q18-29 23-45-84-151-185-323v-14l134-6 12 84h51l3-144h-298q-5 6-12.5 21.5t-10.5 24.5z"/><path transform="translate(33.856 17.6) scale(.016 -.016)" d="m38 203q0 50 6.5 92.5t17.5 62.5q10 15 41.5 40t64 44 44.5 19q54 0 87.5-17t52-65 18.5-138l-236-20q0-60 16-95.5t37.5-49.5 39.5-14l47 2 82 3v-41q-37-12-87.5-23.5t-64.5-11.5q-43 0-81 23t-61.5 71-23.5 118zm235 77q0 60-16 90.5t-53 30.5q-22 0-38-7-13-6-21.5-46t-8.5-86z"/></svg>