<svg width="57.5" height="15.461" viewBox="0 0 57.5 15.461" xmlns="http://www.w3.org/2000/svg"><path transform="translate(0 12.805) scale(.0078125 -.0078125)" d="m873-21q-372 0-561 133.5t-189 444.5 189 444.5 561 133.5q129 0 252-23.5t248-75.5q30-13 30-38 0-30-32-30-7 0-19 5-115 48-239 72t-240 24q-356 0-510.5-121.5t-154.5-390.5 154.5-390.5 510.5-121.5q148 0 288 20t276 53v418h-510q-24 0-47.5 4.5t-23.5 30.5 23 30.5 48 4.5h510q42 0 57-16t15-54v-418q0-31-23-47.5t-49-21.5q-148-29-287-49.5t-277-20.5z"/><path transform="translate(12.68 12.805) scale(.0078125 -.0078125)" d="m199 0q-28 0-34.5 22t-6.5 48v640q0 23 8.5 39.5t36.5 16.5q22 0 28.5-16t6.5-40v-116q22 82 81.5 123t129.5 55 122 14q77 0 113-8t64-16q21-6 21-30 0-13-8.5-24t-25.5-11q-4 0-5.5 0.5t-6.5 1.5q-39 11-75 17t-77 6q-118 0-209.5-46.5t-123.5-145.5v-460q0-26-7-48t-32-22z"/><path transform="translate(19 12.805) scale(.0078125 -.0078125)" d="m545-10q-214 0-306 84.5t-92 273.5v346q0 26 7 49t33 23q29 0 34.5-23t5.5-49v-346q0-111 26.5-176.5t95.5-94 196-28.5q140 0 238.5 43t155.5 86v516q0 26 5.5 49t31.5 23q30 0 36.5-23t6.5-49v-624q0-26-7-48t-31-22q-25 0-33.5 16t-8.5 54v71q-28-33-78-68t-127-59-189-24z"/><path transform="translate(28.203 12.805) scale(.0078125 -.0078125)" d="m198-337q-29 0-34 23.5t-5 52.5v978q0 32 12 40.5t26 8.5q17 0 27-8.5t10-40.5v-132q18 64 71 103.5t122 60.5 139.5 29 122.5 8q120 0 220.5-35t161.5-119.5 61-235.5q0-224-115.5-315t-327.5-91q-162 0-273 35t-179 72v-364q0-26-5-48t-34-22zm491 386q192 0 277.5 82.5t85.5 264.5q0 126-49 198.5t-131 102.5-183 30q-60-1-130.5-9.5t-136.5-30.5-115.5-61-67.5-102v-384q86-32 198.5-61.5t251.5-29.5z"/><path transform="translate(38.008 12.805) scale(.0078125 -.0078125)" d="m198-337q-29 0-34 23.5t-5 52.5v978q0 32 12 40.5t26 8.5q17 0 27-8.5t10-40.5v-132q18 64 71 103.5t122 60.5 139.5 29 122.5 8q120 0 220.5-35t161.5-119.5 61-235.5q0-224-115.5-315t-327.5-91q-162 0-273 35t-179 72v-364q0-26-5-48t-34-22zm491 386q192 0 277.5 82.5t85.5 264.5q0 126-49 198.5t-131 102.5-183 30q-60-1-130.5-9.5t-136.5-30.5-115.5-61-67.5-102v-384q86-32 198.5-61.5t251.5-29.5z"/><path transform="translate(47.812 12.805) scale(.0078125 -.0078125)" d="m620-10q-184 0-293 48t-156.5 136.5-47.5 210.5q0 212 120.5 306.5t376.5 94.5 376.5-94.5 120.5-306.5q0-122-47.5-210.5t-156.5-136.5-293-48zm0 59q136 0 219 29t125.5 78 57.5 108.5 15 120.5q0 186-99 264t-318 78-318-78-99-264q0-61 15-120.5t57.5-108.5 125.5-78 219-29z"/></svg>