<svg width="43.792" height="19.776" viewBox="0 0 43.792 19.776" xmlns="http://www.w3.org/2000/svg"><path transform="translate(0 15.552) scale(.016 -.016)" d="m362-6q-145 0-230.5 98t-85.5 261.5 81 260 226 96.5q92 0 187-36l-18-62q-34 14-89 23.5t-85 9.5q-105 0-166-77t-61-208 64.5-216 165.5-85q71 0 134 20v211h-146v65h221v-307q-94-54-198-54z"/><path transform="translate(10.336 15.552) scale(.016 -.016)" d="m377 127v373h76v-500h-44l-25 59q-80-65-153-65t-111.5 42.5-38.5 120.5v343h75v-331q0-59 17.5-85t58-26 82.5 22 63 47z"/><path transform="translate(19.04 15.552) scale(.016 -.016)" d="m376 700h75v-700h-44l-25 57q-92-65-160-65-180 0-180 259 0 147 64 205 57 53 129 53t141-49zm0-576v260q-21 25-55.5 43t-63.5 18q-78 0-109-46t-31-144 31-148 79-50q72 0 149 67z"/><path transform="translate(27.712 15.552) scale(.016 -.016)" d="m438 234h-319q0-96 45.5-136t114.5-40q35 0 49 3.5t26.5 7 17.5 5.5q25 7 43 13l12-58q-100-35-156-35-103 0-165 62.5t-62 188 58.5 195.5 148 70 139.5-58 50-157q0-27-2-61zm-314 57h244q0 74-26 114t-90.5 40-94.5-43-33-111z"/><path transform="translate(35.536 15.552) scale(.016 -.016)" d="m307 299h41q0 91-23 118.5t-102 27.5-134-21l-14 58q84 28 174 28 176 0 176-176v-334h-44l-26 59q-46-38-79.5-51.5t-77.5-13.5q-70 0-109 41.5t-39 109.5q0 154 257 154zm42-63h-45q-102 0-140.5-20t-38.5-62.5 22-69.5 57.5-27 68 16.5 76.5 57.5z"/></svg>