<svg width="30.198" height="14" viewBox="0 0 30.198 14" xmlns="http://www.w3.org/2000/svg"><path transform="translate(0 12.012) scale(.014 -.014)" d="m491 361q0 49 60 49 59 0 59-47v-203q0-81-54-121-26-19-53.5-29.5t-53.5-10.5h-208q-26 0-53.5 10.5t-53.5 29.5q-26 20-40 49.5t-14 71.5v475q0 41 14.5 71t39.5 49h-1q26 17 54 28t54 11h198q26 0 54-11t54-28h-1q53-39 53-120v-69q0-48-59-48t-59 48v60q0 25-15 46t-52 21h-147q-38 0-53-21t-15-46v-458q0-13 3.5-25t11.5-21.5 21-15.5 32-6h157q37 0 52 21t15 47zm-47 11q0-17-6.5-32.5t-18-26.5-26.5-17.5-33-6.5q-34 0-58 24t-24 59q0 34 24 58t58 24q18 0 33-6.5t26.5-17.5 18-26 6.5-32z"/><path transform="translate(9.576 12.012) scale(.014 -.014)" d="m552 159q0-40-14-71t-40-50h1q-25-17-53-27.5t-54-10.5h-161q-25 0-53.5 10.5t-53.5 27.5h1q-26 19-40 50t-14 71v401q0 48 55 48t55-48v-393q0-28 14-49 13-24 54-24h125q40 0 53 24l-1-1q16 24 16 50v393q0 48 55 48t55-48z"/><path transform="translate(18.06 12.012) scale(.014 -.014)" d="m232 70q-26 0-53.5 9t-53.5 26q-54 35-54 118v226q0 42 14.5 72t39.5 47q26 16 53 25t53 9h168q25 0 52-11t50-28q23-19 37-50t14-70v-424q0-42-13.5-71.5t-37.5-49.5q-23-19-49.5-29.5t-52.5-10.5h-168q-53 0-107 31-28 16-40.5 41t-12.5 58v12q0 20 13 32t41 12q56-6 56-44v-11q0-11 15.5-24t52.5-13h125q37 0 52.5 21t15.5 47v422q0 25-15.5 45.5t-52.5 20.5h-125q-37 0-52.5-20.5t-15.5-45.5v-211q0-25 15.5-46.5t52.5-21.5h104q36 0 36-46 0-21-8.5-34t-27.5-13z"/><path transform="translate(26.67 12.012) scale(.014 -.014)" d="m184 42q0-48-55-48-56 0-56 48v516q0 48 56 48 55 0 55-48zm21 690q0-32-22-54t-54-22-54.5 22-22.5 54q0 33 22.5 55t54.5 22 54-22 22-55z"/></svg>