<svg width="45.44" height="43.2" viewBox="0 0 45.44 43.2" xmlns="http://www.w3.org/2000/svg"><path transform="translate(0 24) scale(.016 -.016)" d="m371-15q-112 0-187 46t-112 124-37 174q0 74 27 138.5t76.5 113 118 76 151.5 27.5q70 0 123.5-12.5t79.5-26.5l12-187h-30q-27 56-53 95t-61 59-90 20q-116 0-176.5-80.5t-60.5-217.5 66-214 177-77q41 0 73 5.5t59 15.5v204l-110 4v43h278v-39l-46-3q-27-1-27-36v-106l24-26v-11q-25-24-64-49t-91.5-42.5-119.5-17.5z"/><path transform="translate(11.36 24) scale(.016 -.016)" d="m373-5v74h-6q-34-45-75-62t-82-17q-59 0-94.5 31t-35.5 101v233l-53 45v14l138 36h8v-297q0-46 23-69.5t60-23.5q57 0 117 38v257l-53 45v14l138 36h8v-408h67v-33l-150-14z"/><path transform="translate(20.24 24) scale(.016 -.016)" d="m25 0v32l37 4q27 3 27 36v553l-53 45v14l138 36h8v-684l65-4v-32z"/><path transform="translate(24.544 24) scale(.016 -.016)" d="m45 0v27l259 374h-156l-64-117h-25v157h355v-27l-258-374h117q36 0 51 15t34 53l33 67h29l-17-175z"/><path transform="translate(32.064 24) scale(.016 -.016)" d="m142-9q-51 0-79.5 27.5t-28.5 72.5q0 33 19.5 64.5t77.5 51.5q29 10 74 20t80 16v56q0 47-21 70.5t-50 23.5q-21 0-37.5-3t-39.5-11v-96q-16-3-30-3-30 0-43.5 12.5t-13.5 28.5q0 9 3.5 19t11.5 19q17 19 47 40t63.5 36 61.5 15q67 0 104-31t37-101v-231q0-22 7.5-33t26.5-11q10 0 21 4t21 14l9-9q-13-34-41.5-47.5t-54.5-13.5q-28 0-49.5 14t-28.5 45h-11q-29-25-60.5-42t-75.5-17zm-10 122q0-25 14-45t47-20q25 0 44.5 8t47.5 23v133q-16-2-40.5-8.5t-51.5-17.5q-33-13-47-31t-14-42z"/><path transform="translate(39.472 24) scale(.016 -.016)" d="m30 0v32l37 4q27 3 27 36v283l-53 45v14l138 36h8v-79h7q24 33 57 56t63 23q24 0 39-14t15-41q0-26-15-43.5t-36-26.5l-43 52q-17 0-42-11t-45-24v-306l65-4v-32z"/></svg>