<svg width="41.525" height="31.462" viewBox="0 0 41.525 31.462" xmlns="http://www.w3.org/2000/svg"><path transform="translate(0 19.35) scale(.014953 -.014953)" d="m383 366q-69 40-131 40t-93.5-39.5-31.5-130.5q0-115 54-146 28-16 65.5-16t71.5 10l2 41-2 75 94 6-2-65 2-118q-90-30-166-30-112 0-168.5 61.5t-56.5 181.5 65.5 186.5 185.5 66.5q79-1 142-30l-21-91z"/><path transform="translate(6.6841 19.35) scale(.014953 -.014953)" d="m351 68q9 0 21 3l7-6-9-52q-24-15-55-19-47 4-59 56h-8q-43-41-88-54-56 0-86 25.5t-30 74.5l2 88-3 158 96 8-3-221q0-53 45-53 32 0 65 29v237l95 8-6-260q0-22 16-22z"/><path transform="translate(12.516 19.35) scale(.014953 -.014953)" d="m256 347v-91l-10-4q-13 5-28 5-43 0-79-55v-49l6-153h-100l5 144-4 198 95 8-1-69h6q36 67 91 68 7-1 19-2z"/><path transform="translate(16.389 19.35) scale(.014953 -.014953)" d="m306 257q0-13-5-85 0 0-3-82 0-13 3-17.5t12-4.5 21 3l8-6-10-52q-24-15-54-19-48 4-58 55h-5q-38-40-77-56-54 1-85 29t-31 75q0 73 77 88l115 21v31q0 49-46 49t-108-43l-8 4-11 66q66 42 132.5 42t99.5-26 33-72zm-172-118q-23-5-23-28 0-45 39-45 29 0 62 35l2 56z"/><path transform="translate(21.757 19.35) scale(.014953 -.014953)" d="m104 413q-24 0-38 13.5t-14 37.5 15 39.5 39 15.5 37.5-13.5 13.5-38-14.5-39.5-38.5-15zm55-260 4-133q0-60-28.5-98.5t-93.5-67.5l-35 44v9q34 19 48.5 45t14.5 66l1 126-4 142h-59l-6 5 4 54h64l93 6 2-2z"/><path transform="translate(24.927 19.35) scale(.014953 -.014953)" d="m306 257q0-13-5-85 0 0-3-82 0-13 3-17.5t12-4.5 21 3l8-6-10-52q-24-15-54-19-48 4-58 55h-5q-38-40-77-56-54 1-85 29t-31 75q0 73 77 88l115 21v31q0 49-46 49t-108-43l-8 4-11 66q66 42 132.5 42t99.5-26 33-72zm-172-118q-23-5-23-28 0-45 39-45 29 0 62 35l2 56z"/><path transform="translate(30.295 19.35) scale(.014953 -.014953)" d="m337 90q1-13 4-17.5t12-4.5 21 3l7-6-9-52q-24-15-55-19-48 4-61 52h-6q-36-34-75-51-74 0-114 46.5t-40 132.5 46.5 133 128.5 47q22 0 48-4l-1 168 99 8-7-373zm-223 100q0-117 71-117 32 0 61 31l1 41-2 129q-29 13-55 13-76 0-76-97z"/><path transform="translate(36.157 19.35) scale(.014953 -.014953)" d="m306 257q0-13-5-85 0 0-3-82 0-13 3-17.5t12-4.5 21 3l8-6-10-52q-24-15-54-19-48 4-58 55h-5q-38-40-77-56-54 1-85 29t-31 75q0 73 77 88l115 21v31q0 49-46 49t-108-43l-8 4-11 66q66 42 132.5 42t99.5-26 33-72zm-172-118q-23-5-23-28 0-45 39-45 29 0 62 35l2 56z"/></svg>