<svg width="138.32" height="20.272" viewBox="0 0 138.32 20.272" xmlns="http://www.w3.org/2000/svg"><path transform="translate(0 16.24) scale(.014 -.014)" d="m158-76q-30-5-36 24-22 111-32 216.5t-10 217.5q0 61 2.5 125t6.5 133q0 16 11 23t21 5q13-1 21.5-9.5t6.5-22.5q-2-33-4-83t-3.5-102.5-1.5-92.5q0-13 0-25t1-20h537q17 0 23.5-9.5t6.5-20.5q0-13-8-21.5t-22-8.5h-534q5-73 14.5-152.5t22.5-140.5q3-15-5-24t-18-12zm590 0q-12 2-21 11t-6 22q9 111 13 227t4 243q0 48-0.5 98t-1.5 102q0 15 10 22.5t20 8.5q13 0 21.5-8t8.5-22q1-52 1.5-102.5t0.5-97.5q0-128-4-244.5t-14-231.5q0-16-10.5-22t-21.5-6z"/><path transform="translate(12.292 16.24) scale(.014 -.014)" d="m382-81q-8-1-16.5-1t-16.5 0q-89 0-159 37.5t-110 103.5-40 151q0 80 31.5 147.5t89.5 112.5 137 57q11 2 24 3t26 1q54 0 112.5-14.5t98.5-40.5q5 11 16 13.5t18 0.5q11-1 17-10t6-21q-1-23-1.5-45t-0.5-44q0-112 16.5-199t62.5-152q6-9 6-18 0-12-9.5-20t-20.5-8q-15 0-25 13-10 14-19.5 31t-15.5 30q-41-57-100-88.5t-127-39.5zm-20 58q68 0 125.5 38t93.5 104q-15 56-22 130t-6 154q-20 22-53 37t-72 23-77 8q-25 0-47-3t-41-11q-76-28-120.5-93.5t-44.5-149.5q0-74 35.5-127t95.5-81.5 133-28.5z"/><path transform="translate(22.638 16.24) scale(.014 -.014)" d="m258-78q-70 22-119 66.5t-74 103-25 123.5q0 71 29.5 140t83.5 112q43 36 105 54.5t126 18.5q62 0 119-17t96-52q11-11 11-23 0-9-9-20-10-10-22-10t-21 9q-26 26-77 39.5t-104 13.5q-37 0-71.5-6.5t-59.5-19.5q-70-34-107.5-99.5t-37.5-139.5q0-76 43.5-139.5t122.5-91.5q51-18 104-18t103.5 17.5 87.5 49.5q11 8 21 8 13 0 23-10 8-11 8-21 0-12-11-21-48-42-108-63t-123-21q-57 0-114 17z"/><path transform="translate(31.794 16.24) scale(.014 -.014)" d="m132-83q-28 0-34 27-10 47-14 118t-4 152q0 73 3 147.5t8.5 141.5 12.5 116q2 16 12.5 22t20.5 4q13-1 21-10t6-23q-4-34-8-80.5t-7.5-97-5.5-96.5-2-79q33 70 93.5 113t134.5 43q96-1 160.5-41.5t96.5-112 32-165.5q0-79-20-154-7-23-28-23-14 0-24 10.5t-6 26.5q17 65 17 131 0 116-54.5 187.5t-165.5 73.5q-61 0-104.5-33t-70.5-86q-25-50-37-100t-12-104q0-17 1.5-35.5t3.5-37.5q2-16-7-24.5t-19-10.5z"/><path transform="translate(41.566 16.24) scale(.014 -.014)" d="m182 300q-64 0-103 40t-39 98q0 62 39 100t103 38q42 0 74-18.5t49.5-49.5 17.5-70-18-70-50-49.5-73-18.5zm0 60q40 0 61 22t21 56q0 37-22 57.5t-60 20.5q-40 0-61-21.5t-21-56.5q0-36 22-57t60-21zm0-428q-16 0-23 8.5t-8 19.5q-3 74-3 152 0 66 3 123 1 16 11.5 22.5t20.5 4.5q12 0 20-9t8-23q-2-10-3-43t-1-73q0-32 0.5-63.5t1.5-54.5 2-31q0-17-9-25t-20-8z"/><path transform="translate(55.048 16.24) scale(.014 -.014)" d="m799-65q-7 0-10 2-21 8-21 27 0 2 0.5 5t1.5 6q29 86 48 178t19 174q0 9 0 18t-1 17q-3 57-20.5 105t-48 79.5-74.5 36.5q-40 4-73.5-15t-56-53.5-31.5-78.5q-3-14-11.5-21t-17.5-6q-11 0-19.5 9t-10.5 22q-11 48-35.5 86.5t-58 61-74.5 22.5q-48 0-81.5-33t-52.5-84.5-25-106.5q-2-17-3-34.5t-1-36.5q0-79 16.5-167t41.5-174q1-3 1.5-5.5t0.5-4.5q0-11-7-18t-15-9q-2-1-5-1t-5 0q-19 0-27 21-28 89-45.5 183.5t-17.5 181.5q0 22 1.5 43t3.5 40q7 64 31.5 121.5t65 96.5 93.5 46q17 3 34 3 65 0 118.5-38t81.5-97q26 55 73 84.5t99 29.5q51 0 98.5-29.5t80-91 37.5-159.5q1-9 1-18.5t0-19.5q0-89-20-189t-52-189q-3-10-11-15t-16-5z"/><path transform="translate(68.74 16.24) scale(.014 -.014)" d="m382-81q-8-1-16.5-1t-16.5 0q-89 0-159 37.5t-110 103.5-40 151q0 80 31.5 147.5t89.5 112.5 137 57q11 2 24 3t26 1q54 0 112.5-14.5t98.5-40.5q5 11 16 13.5t18 0.5q11-1 17-10t6-21q-1-23-1.5-45t-0.5-44q0-112 16.5-199t62.5-152q6-9 6-18 0-12-9.5-20t-20.5-8q-15 0-25 13-10 14-19.5 31t-15.5 30q-41-57-100-88.5t-127-39.5zm-20 58q68 0 125.5 38t93.5 104q-15 56-22 130t-6 154q-20 22-53 37t-72 23-77 8q-25 0-47-3t-41-11q-76-28-120.5-93.5t-44.5-149.5q0-74 35.5-127t95.5-81.5 133-28.5z"/><path transform="translate(79.086 16.24) scale(.014 -.014)" d="m184-68q-13 0-21.5 8.5t-8.5 21.5q-3 55-9.5 119t-16 130.5-21.5 127-25 107.5q-2 8-2 11 0 13 9.5 20t20.5 7q10 0 18.5-5.5t11.5-15.5q11-35 21-83t18-96.5 12-85.5q19 79 64.5 136.5t111 88.5 142.5 31q63 0 127-23 20-9 20-27 0-30-29-30-7 0-11 1-48 16-105 16-82 0-138-33t-90.5-92-50.5-136-18-166q0-16-9.5-24t-20.5-8z"/><path transform="translate(88.69 16.24) scale(.014 -.014)" d="m643-68q-8 0-16 4.5t-12 14.5q-16 37-25 81t-14 84q-22-50-59-90.5t-84-64.5-101-27q-102-5-166.5 32.5t-95 106-30.5 154.5q0 62 14 128.5t40 133.5q7 19 27 19 14 0 23-8t9-20q0-5-3-13-25-64-38.5-126t-13.5-118q0-67 22-120t69-82.5 122-26.5q74 3 131.5 49t90.5 126.5 33 183.5q0 18-1.5 37t-3.5 38q-2 17 8.5 23t21.5 6q14-1 23.5-9.5t9.5-22.5q0-40 2.5-91t7-106 10.5-106 14-90.5 18-59.5q2-3 2-6t0-6q0-13-11-20.5t-24-7.5z"/><path transform="translate(107.14 16.24) scale(.014 -.014)" d="m133-73q-13 0-21.5 7.5t-8.5 21.5l-23 681q0 31 32 31 21 0 27-21 117 47 210 53 11 1 22.5 1.5t22.5 0.5q110 0 196.5-44t134.5-133q37-72 37-147 0-54-19.5-105t-57.5-94q-55-63-137-90t-174-27q-47 0-94.5 6.5t-94.5 17.5q-12 2-17.5 10.5t-5.5 16.5q0 4 2 10 6 22 31 22 4 0 7-0.5t7-1.5q44-12 90-18.5t89-6.5q76 0 142 22t112 73q64 73 64 164 0 68-36 129-43 71-114.5 105t-157.5 34q-16 0-33.5-1.5t-34.5-3.5q-85-11-188-57l21-625q0-16-9.5-23.5t-20.5-7.5z"/><path transform="translate(118.37 16.24) scale(.014 -.014)" d="m359-87q-97 0-168.5 40t-111 110.5-39.5 163.5q0 96 39 166.5t110.5 109.5 169.5 39q100 0 171.5-38.5t109.5-109 38-167.5q0-95-39-166t-110.5-109.5-169.5-38.5zm0 63q123 0 189.5 67t66.5 184q0 122-69 187t-187 65-187-67-69-185q0-78 33-134t91-86.5 132-30.5z"/><path transform="translate(128.42 16.24) scale(.014 -.014)" d="m128-188q-10 0-19 7t-9 20q-8 115-14 219.5t-6 199.5q0 62 3 120.5t10 113.5q2 16 12.5 22t20.5 4q13-1 20.5-10t5.5-23q-6-46-9-121t-3-152q0-54 1.5-103t5.5-82q48-16 96-26t94-10q75 0 135.5 28.5t95.5 82 35 127.5q0 71-32 124t-86.5 82.5-122.5 29.5q-40 0-81-10.5t-77-27.5q-7-4-16-4-17 0-24 16-4 7-4 15 0 15 16 26 38 21 88 31.5t101 10.5q89 0 157-38.5t106.5-104.5 38.5-150q0-92-46-159t-124.5-103-175.5-36q-88 0-170 32l8-119q2-17-9-24.5t-22-7.5z"/></svg>