<svg width="48.296" height="18.218" viewBox="0 0 48.296 18.218" xmlns="http://www.w3.org/2000/svg"><path transform="translate(0 14.52) scale(.0068359 -.0068359)" d="m1245 637q2-12 3-23.5t1-23.5q0-30-5.5-57.5t-12.5-49-12.5-35-6.5-14.5l-8-14q-15 2-32 3t-37 1q-8 0-15.5 0t-15.5-2q-3-20-3.5-41t-0.5-41q0-57 8-113t20-104l2-8-4-9q-1-2-12-19t-34.5-36.5-61.5-35-92-15.5q-55 0-93.5 14t-63 31.5-36 32-12.5 16.5l-6 10 4 11q18 49 30 110t15 117q-30-6-60-15.5t-57-20.5-50.5-22.5-41.5-21.5l-12-4q-20 0-49.5-1t-57.5-1q5-51 13-88.5t16-54.5l4-11-4-8q-1-2-11-17.5t-33-33.5-62.5-32.5-98.5-14.5-97.5 15.5-61 35-31.5 35.5-9 18l-4 11 4 8q23 56 34 113.5t11 119.5q0 42-4.5 84.5t-15.5 87.5v13q12 49 19.5 96.5t7.5 95.5q0 54-9 105t-24 102l-2 8 4 8q43 110 43 219 0 44-6.5 87t-20.5 88l-4 12 8 10q1 1 12 12.5t33.5 25 56.5 24 81 10.5q48 0 83-12.5t58.5-27.5 35.5-28 13-14l10-10-6-13q-18-55-27.5-107.5t-9.5-105.5q0-42 5.5-81.5t17.5-79.5v-15q-14-48-20.5-92t-6.5-90q0-43 5-88.5t16-97.5l33 18 14 2q5-1 13-2 7-1 16-1.5t22-0.5q37 0 92.5 10.5t120.5 44.5q2 19 3 38t1 38q0 56-8 108t-21 97v16q31 92 31 182 0 53-9.5 103.5t-29.5 101.5l-6 13 6 10q1 1 12 16t34 32.5 59.5 31.5 87.5 14 90-14 66-30.5 41.5-30.5 15.5-15l10-12-4-13q-22-60-31.5-118t-9.5-115q0-40 4.5-80t15.5-78v-14q-12-35-21-74.5t-11-87.5q6 5 12 9.5t12 10.5l10-4q2-1 17.5-7.5t34.5-23 37-44.5 26-72zm-817 700q-7 6-19 15t-30 17.5-41.5 14-52.5 5.5q-28 0-50-5t-38.5-11.5-27.5-14-17-12.5q12-45 18-88.5t6-88.5q0-46-7.5-93t-23.5-93q23 6 45.5 9t42.5 3q55 0 83-7t39-15q13-10 12-21 0-9-6.5-14.5t-14.5-5.5q-2 0-5.5 2.5t-13.5 5.5-28 5.5-49 2.5q-25 0-54-5t-61-17q14-48 21.5-96t7.5-99q0-42-5.5-85.5t-15.5-86.5q16 2 30 3t30 1q23 0 53-2.5t57-7.5 45.5-12.5 18.5-18.5q0-8-6.5-14t-14.5-6q-23 0-52.5 7t-63.5 7q-25 0-50.5-1.5t-50.5-6.5q10-42 13.5-82t3.5-78q0-122-43-237 4-7 13.5-18.5t27-22 43.5-18 63-7.5 64 7 45.5 16.5 29 20 15.5 17.5q-35 107-35 207 0 56 9.5 110.5t29.5 108.5q-17 51-25 102t-8 105q0 51 7.5 104.5t23.5 108.5q-25 82-25 168 0 109 37 217zm649-399q-9 40-14.5 80t-5.5 82q0 59 10 118t29 119q-8 7-22.5 17.5t-35.5 20.5-48 17-60 7q-32 0-56-6.5t-41-16-28-20-17-17.5q20-52 29.5-104t9.5-105q0-38-4.5-77.5t-15.5-77.5q17 5 35.5 6.5t38.5 1.5q19 0 45-2.5t49.5-8 40-14 16.5-20.5q0-9-7-14.5t-13-5.5q-23 0-52.5 10t-60.5 10q-26 0-51.5-4.5t-46.5-13.5q9-41 15.5-86t6.5-95q0-15 0-29.5t-2-29.5l6 6h19q51 0 99.5 11.5t96.5 37.5q2 56 11.5 107t23.5 96zm-540-629q85 48 166 69t161 21q73 42 148 58t162 16q8 16 17 48t9 69q0 34-8.5 59t-20.5 42-24.5 26.5-20.5 13.5q-74-48-136-70t-122-22q13-25 19-53t6-54q0-14-1.5-30t-5-29.5-10-23-16.5-9.5q-8 0-13 5.5t-5 11.5q0 12 4 27t4 30q0 29-7.5 59.5t-23.5 53.5q-66-41-136.5-60.5t-139.5-19.5q14-25 19-54.5t5-58.5q0-12-1-28t-4-29.5-9-23-16-9.5-15.5 4.5-5.5 9.5q0 13 5 27.5t5 30.5q0 32-9 65t-28 58q-3-3-9.5-5.5t-12.5-5.5v-4q-19-51-26-101.5t-7-98.5v-17q26 2 55 2t48 0zm333 39q-9 2-17 2t-17 0q-7 0-13 0t-12-2q0-59-11-122.5t-30-114.5q6-7 18-17.5t31.5-20 45.5-16 61-6.5 61 8.5 44.5 19.5 29.5 23 16 19q-12 46-19 100.5t-7 110.5q0 42 6 86-45-6-90-22t-82-44z"/><path transform="translate(8.5654 14.52) scale(.0068359 -.0068359)" d="m1069 522q6-33 6-61 0-31-6-55.5t-13.5-42-14-28-7.5-11.5l-8-11-14 2q-14 2-28 2t-28 0q14-49 35-95t47-89l11-16-13-15q-1-1-10.5-10.5t-28.5-22-48.5-26.5-69.5-23q-19-5-37.5-7.5t-36.5-2.5q-26 0-47.5 4t-36.5 9.5-23.5 9.5-9.5 4l-14 8 2 16q0 13 1 25t1 25q0 69-12 137-4-4-7-4l-14-4q-63 0-129-8t-131-29v-31q0-43 6-86l2-10-6-8q-1-1-10-11t-28-22-48-21.5-70-9.5q-80 0-126.5 23t-71.5 52q-29 33-39 75l-2 8 6 8q51 78 75.5 166.5t24.5 191.5v35l4 12q39 78 57.5 155.5t18.5 156.5q0 20-1 40t-3 40l-2 10 6 8q96 147 96 318 0 15-1 31.5t-3 33.5v12l9 9q1 1 10.5 7.5t26.5 14 41.5 13.5 56.5 6q62 0 105.5-19t70.5-42 39.5-42 13.5-20l6-13-6-12q-4-4-4-6h14q44 0 69.5-6t27.5-6l12-9-2-14q-2-12-2-23.5t0-23.5q0-178 84-326l4-12v-27q0-52 4-99.5t16-90.5q20 8 39 17t37 20l10 6 13-4q1-1 13.5-9t29-26 34-47.5 27.5-73.5zm-477 772q-6 9-20 23t-35.5 27.5-52 23.5-70.5 10q-35 0-58-7t-34-13q2-14 2-27.5t0-27.5q0-82-20-156t-58-146q8 0 15 1.5t15 1.5q39 0 70-8t53.5-18 35.5-18.5 14-9.5q10-7 10-16 0-11-7.5-16t-15.5-5q-7 0-10 5-1 1-11.5 6.5t-29 12-44 12-56.5 5.5q-27 0-58-6 0-14 1-26.5t1-26.5q0-158-67-307 28-2 66-9.5t73-18.5 59.5-24.5 24.5-27.5q0-9-6-14t-14-5q-4 0-6 1.5t-5 1.5q-37 20-93 32.5t-111 12.5q0-112-25.5-205.5t-79.5-179.5q3-7 13-23.5t31.5-33 56-29.5 85.5-13q48 0 74 14t35 23q-3 20-3.5 40t-0.5 40q0 90 22 173.5t68 164.5q-6 40-6 80 0 83 21.5 165t64.5 169q-2 12-2 24t0 25q0 83 21.5 164t66.5 159zm49-1005q69 38 145.5 58t159.5 20q14 0 28 0t30-2q6 11 15 35.5t9 58.5q0 37-9 66.5t-21.5 50.5-25.5 33.5-20 17.5q-142-80-295-80-12 0-23 0t-22 2q23-43 31-81.5t8-66.5q0-24-2-37.5t-5.5-20-8.5-8-10-1.5q-8 0-12.5 5t-4.5 13v27q0 12-1.5 30.5t-7 40-15.5 46-27 49.5q-11-11-35-20t-47-15q0-2 1-2t1-2l2-8-6-9q-34-55-54.5-113t-29.5-120q66 20 130.5 26.5t121.5 6.5zm113 557q-2-8-8.5-12.5t-12.5-4.5q-2 0-4 1-2 0-4.5 0.5t-5.5 0.5q-20 0-56-8.5t-73-36.5q-2 0-3-1t-3-1q42-99 63-188h6q87 0 168 25-14 52-20 109t-6 120q-88 161-88 342 0 8 1 16.5t1 18.5q-3 2-15.5 3t-29.5 1q-13 0-25 0t-25-2q-32-66-46.5-131t-14.5-131q0-13 0-25t2-24l2-7-4-6q-1-2-1-2h-1q6-22 13-46t7-28q38 25 72.5 32t58.5 7q36 0 44-4.5t8-15.5zm-41-576q8-38 11-75.5t3-75.5v-43q12-6 33-10.5t49-4.5q32 0 61 7.5t52 17.5 39 21 24 18q-26 46-46 93.5t-34 96.5q-51-3-99-14t-93-31zm-197 555q-23-60-34-119t-11-116v-27q43 15 82 35l16 4q7-2 14-3t13-1q-11 43-27.5 87.5t-38.5 92.5z"/><path transform="translate(15.675 14.52) scale(.0068359 -.0068359)" d="m1167 1343-4-12q-18-56-28.5-109t-10.5-106q0-40 6.5-79.5t18.5-80.5v-14q-31-106-31-207 0-52 8-101t25-97v-17q-20-52-29.5-105t-9.5-106q0-101 35-200l4-11-4-8q-1-2-11-17.5t-33-33.5-62-32.5-97-14.5q-48 0-82 9.5t-57 25.5h-10q-27 0-48 5.5t-35 12-21.5 13-8.5 8.5l-8 6v10q-5 102-42 195t-108 184l-4 10q-12 68-33.5 128t-52.5 116q2-47 9.5-91t23.5-87l4-9-4-8q-19-51-28-102.5t-9-104.5q0-52 8-102.5t27-101.5l4-11-4-8q-1-2-11-17.5t-33-33.5-62.5-32.5-98.5-14.5-97.5 15.5-61 35-31.5 35.5-9 18l-4 10 4 9q23 55 34 113t11 120q0 42-4.5 84.5t-15.5 87.5v12q12 50 19.5 98.5t7.5 94.5q0 54-9 105t-24 102l-2 8 4 8q43 110 43 219 0 44-6.5 86.5t-20.5 87.5l-4 13 8 10q1 1 12 12.5t33.5 25 56.5 24 81 10.5q45 0 77.5-10.5t55.5-24.5h16q42 0 67-9.5t27-11.5l13-6 2-12q21-206 143-346l6-6v-6q26-164 103-283v2q0 54-8 105t-23 104v16q43 110 43 223 0 86-25 170l-4 13 8 10q1 1 12 12.5t33.5 25 56.5 24 81 10.5 82-12.5 59-27.5 36-28 13-14zm-739-10q-7 6-19 15t-30 17-41.5 13.5-52.5 5.5q-28 0-50-4.5t-38.5-11.5-27.5-14-17-13q12-45 18-88t6-88q0-46-7.5-93t-23.5-93q23 6 45.5 9t42.5 3q55 0 83-7t39-15q13-10 12-21 0-9-6.5-14.5t-14.5-5.5q-2 0-5.5 2.5t-13.5 5.5-28 5.5-49 2.5q-25 0-54-5t-61-17q14-48 21.5-96t7.5-99q0-42-5.5-85.5t-15.5-86.5q16 2 32 3t32 1q23 0 52.5-2.5t55.5-7.5 44-12.5 18-18.5q0-8-6.5-14t-14.5-6q-23 0-54 7t-66 7q-23 0-48.5-1.5t-48.5-6.5q10-42 13.5-82t3.5-78q0-62-11-121.5t-32-116.5q4-7 13.5-18t27-21.5 43.5-18 63-7.5 64 7.5 45.5 17 29 20 15.5 16.5q-35 107-35 207 0 56 9.5 110.5t29.5 108.5q-17 51-25 102t-8 105q0 104 31 213-25 82-25 168 0 109 37 217zm57 10-6-12q-18-56-27.5-108t-9.5-105q0-42 5.5-81.5t17.5-80.5v-4q23 10 43.5 15.5t36.5 8 25.5 3 11.5 0.5q8 0 14-6.5t6-14.5-6-14-14-6q-2 0-13.5-1.5t-29.5-7-41-15.5-47-27q-5-22-8.5-43t-6.5-41q47-63 78-134.5t49-152.5q23 15 51 28.5t56.5 24 55 17 46.5 6.5q8 0 13.5-5t7.5-12q0-9-5-15.5t-14-6.5q-40-6-93-29t-99-55q66-90 100.5-181.5t40.5-191.5q8-6 26-13t46-7q58 0 97 21t62.5 47.5 33.5 49 11 25.5q-154 167-176 389-71 76-115.5 168.5t-64.5 210.5q-62 74-99.5 162.5t-49.5 191.5q-4 0-6 1t-5 1zm574-831q-4-14-21-14-23 0-52.5 7t-61.5 7h-33q20-75 57-142t94-124l9-6v-11q0-2-2.5-20t-16-44.5-43-56.5-82.5-55l-16-8q11-2 24.5-3t28.5-1q37 0 63.5 7.5t44.5 17 28.5 20 15.5 16.5q-17 53-25 105t-8 104q0 112 37 217-17 50-25 100.5t-8 104.5q0 103 31 215-25 82-25 168 0 109 37 217-7 6-19 15t-29 17-40.5 13.5-52.5 5.5-51-4.5-39-11.5-28-14-17-13q24-86 24-172 0-100-31-190 23 6 45.5 9t42.5 3q57 0 85-7t39-15.5 10.5-15-0.5-5.5q0-9-6.5-14.5t-14.5-5.5q-2 0-5 2.5t-12.5 5.5-27.5 5.5-49 2.5q-25 0-54.5-5t-60.5-17q13-48 20-95.5t7-95.5q0-18-1-35.5t-3-36.5l22-24 8-14q3-30 9-62 26 0 57-2.5t58-7.5 45-13 18-20z"/><path transform="translate(24.049 14.52) scale(.0068359 -.0068359)" d="m1069 522q6-33 6-61 0-31-6-55.5t-13.5-42-14-28-7.5-11.5l-8-11-14 2q-14 2-28 2t-28 0q14-49 35-95t47-89l11-16-13-15q-1-1-10.5-10.5t-28.5-22-48.5-26.5-69.5-23q-19-5-37.5-7.5t-36.5-2.5q-26 0-47.5 4t-36.5 9.5-23.5 9.5-9.5 4l-14 8 2 16q0 13 1 25t1 25q0 69-12 137-4-4-7-4l-14-4q-63 0-129-8t-131-29v-31q0-43 6-86l2-10-6-8q-1-1-10-11t-28-22-48-21.5-70-9.5q-80 0-126.5 23t-71.5 52q-29 33-39 75l-2 8 6 8q51 78 75.5 166.5t24.5 191.5v35l4 12q39 78 57.5 155.5t18.5 156.5q0 20-1 40t-3 40l-2 10 6 8q96 147 96 318 0 15-1 31.5t-3 33.5v12l9 9q1 1 10.5 7.5t26.5 14 41.5 13.5 56.5 6q62 0 105.5-19t70.5-42 39.5-42 13.5-20l6-13-6-12q-4-4-4-6h14q44 0 69.5-6t27.5-6l12-9-2-14q-2-12-2-23.5t0-23.5q0-178 84-326l4-12v-27q0-52 4-99.5t16-90.5q20 8 39 17t37 20l10 6 13-4q1-1 13.5-9t29-26 34-47.5 27.5-73.5zm-477 772q-6 9-20 23t-35.5 27.5-52 23.5-70.5 10q-35 0-58-7t-34-13q2-14 2-27.5t0-27.5q0-82-20-156t-58-146q8 0 15 1.5t15 1.5q39 0 70-8t53.5-18 35.5-18.5 14-9.5q10-7 10-16 0-11-7.5-16t-15.5-5q-7 0-10 5-1 1-11.5 6.5t-29 12-44 12-56.5 5.5q-27 0-58-6 0-14 1-26.5t1-26.5q0-158-67-307 28-2 66-9.5t73-18.5 59.5-24.5 24.5-27.5q0-9-6-14t-14-5q-4 0-6 1.5t-5 1.5q-37 20-93 32.5t-111 12.5q0-112-25.5-205.5t-79.5-179.5q3-7 13-23.5t31.5-33 56-29.5 85.5-13q48 0 74 14t35 23q-3 20-3.5 40t-0.5 40q0 90 22 173.5t68 164.5q-6 40-6 80 0 83 21.5 165t64.5 169q-2 12-2 24t0 25q0 83 21.5 164t66.5 159zm49-1005q69 38 145.5 58t159.5 20q14 0 28 0t30-2q6 11 15 35.5t9 58.5q0 37-9 66.5t-21.5 50.5-25.5 33.5-20 17.5q-142-80-295-80-12 0-23 0t-22 2q23-43 31-81.5t8-66.5q0-24-2-37.5t-5.5-20-8.5-8-10-1.5q-8 0-12.5 5t-4.5 13v27q0 12-1.5 30.5t-7 40-15.5 46-27 49.5q-11-11-35-20t-47-15q0-2 1-2t1-2l2-8-6-9q-34-55-54.5-113t-29.5-120q66 20 130.5 26.5t121.5 6.5zm113 557q-2-8-8.5-12.5t-12.5-4.5q-2 0-4 1-2 0-4.5 0.5t-5.5 0.5q-20 0-56-8.5t-73-36.5q-2 0-3-1t-3-1q42-99 63-188h6q87 0 168 25-14 52-20 109t-6 120q-88 161-88 342 0 8 1 16.5t1 18.5q-3 2-15.5 3t-29.5 1q-13 0-25 0t-25-2q-32-66-46.5-131t-14.5-131q0-13 0-25t2-24l2-7-4-6q-1-2-1-2h-1q6-22 13-46t7-28q38 25 72.5 32t58.5 7q36 0 44-4.5t8-15.5zm-41-576q8-38 11-75.5t3-75.5v-43q12-6 33-10.5t49-4.5q32 0 61 7.5t52 17.5 39 21 24 18q-26 46-46 93.5t-34 96.5q-51-3-99-14t-93-31zm-197 555q-23-60-34-119t-11-116v-27q43 15 82 35l16 4q7-2 14-3t13-1q-11 43-27.5 87.5t-38.5 92.5z"/><path transform="translate(31.158 14.52) scale(.0068359 -.0068359)" d="m999 195q0-45-12-79t-27-57-28-35.5-14-13.5l-11-8-12 4q-107 37-209 37-85 0-166-25h-14q-20 7-44 11.5t-48 9.5q-25-17-61.5-30t-92.5-13q-59 0-97.5 15.5t-61 35-31.5 35.5-9 18l-4 11 4 8q23 56 34 113.5t11 119.5q0 42-4.5 84.5t-15.5 87.5v13q12 49 19.5 96.5t7.5 95.5q0 54-9 105t-24 102l-2 8 4 8q43 110 43 219 0 44-6.5 87t-20.5 88l-4 12 8 10q1 1 12 12.5t33.5 25 56.5 24 81 10.5q48 0 83-12.5t58.5-27.5 35.5-28 13-14l10-10-6-13q-18-55-27.5-107.5t-9.5-105.5q0-42 5.5-81.5t17.5-79.5v-15q-31-109-31-209 0-51 8-99.5t25-96.5l4-9-4-8q-14-35-22-71.5t-13-73.5q10 2 21 3.5t20 3.5q11 2 21 3l8 4 8-4q54-20 107.5-30.5t109.5-10.5q43 0 87 6.5t89 20.5l15 4 10-8q1-1 12-11.5t23.5-32 23.5-54.5 12-78zm-571 1142q-7 6-19 15t-30 17.5-41.5 14-52.5 5.5q-28 0-50-5t-38.5-11.5-27.5-14-17-12.5q12-45 18-88.5t6-88.5q0-46-7.5-93t-23.5-93q23 6 45.5 9t42.5 3q55 0 83-7t39-15q13-10 12-21 0-9-6.5-14.5t-14.5-5.5q-2 0-5.5 2.5t-13.5 5.5-28 5.5-49 2.5q-25 0-54-5t-61-17q14-48 21.5-96t7.5-99q0-42-5.5-85.5t-15.5-86.5q16 2 30 3t30 1q23 0 53-2.5t57-7.5 45.5-12.5 18.5-18.5q0-8-6.5-14t-14.5-6q-23 0-52.5 7t-63.5 7q-25 0-50.5-1.5t-50.5-6.5q10-42 13.5-82t3.5-78q0-122-43-237 4-7 13.5-18.5t27-22 43.5-18 63-7.5 64 7 45.5 16.5 29 20 15.5 17.5q-35 107-35 207 0 56 9.5 110.5t29.5 108.5q-17 51-25 102t-8 105q0 51 7.5 104.5t23.5 108.5q-25 82-25 168 0 109 37 217zm41-1235-4-8q0-2-2.5-5.5t-5.5-8.5l55-12q42 12 84.5 17t85.5 5q53 0 106-8t109-25q6 7 14.5 19t17 29.5 14 39.5 5.5 50q0 27-4.5 48t-11.5 37.5-14 28-13 17.5q-90-25-178-25-48 0-94 6.5t-92 20.5q8-25 10-46.5t2-41.5q0-53-6.5-79.5t-14.5-36.5-14.5-9.5-5.5 0.5q-9 0-14.5 6t-5.5 14q0 2 2 5t5 12 5 25.5 2 45.5q0 25-4.5 53.5t-18.5 59.5q-14 0-27.5-2.5t-25.5-5.5v-11q0-52 8-102.5t27-101.5z"/><path transform="translate(37.707 14.52) scale(.0068359 -.0068359)" d="m809 707q0-45-12-78.5t-27-56.5-27.5-35-13.5-13l-10-8-14 4q-56 19-98.5 28t-84.5 9q-31 0-61-6l6-12 4-9-4-8q-24-68-33-135 16 4 36 7t38 5 30 3 13 1l8 3 8-5q57-23 97-35t81-12q28 0 61 6t75 17l12 4 10-8q1-2 11.5-12.5t22.5-32 22-54 10-77.5q-1-45-14-78t-28-55.5-28-34.5-14-13l-13-6-12 4q-59 22-98 31.5t-76 9.5q-26 0-54-4.5t-65-13.5h-14q-28 5-55.5 11.5t-55.5 12.5q-10-11-25.5-23.5t-38-22.5-52-16.5-66.5-6.5q-59 0-97.5 16t-61 35.5-31.5 36-9 18.5l-4 8 4 11q23 55 34 113t11 118q0 42-4.5 85t-15.5 89v13q12 49 19.5 96.5t7.5 95.5q0 53-9 104t-24 101l-2 10 4 8q22 54 32.5 108.5t10.5 108.5q0 44-6.5 87.5t-20.5 88.5l-4 13 8 10q1 1 12 12.5t33.5 25 56.5 24 81 10.5q54 0 92-15t61-32q29 3 61 9t64 17l8 4 11-2q48-15 83.5-22.5t67.5-7.5q35 0 73 9t89 27l12 5 11-7q1-1 13-11t26-30.5 26.5-52 15.5-76.5v-18q0-40-10-71t-22.5-52.5-23-32.5-11.5-12l-10-8-15 4q-48 11-82 16.5t-63 5.5q-34 0-67.5-7.5t-80.5-22.5l-14-2q-42 8-80.5 12t-77.5 4q3-28 8.5-55.5t14.5-55.5v-14q-6-18-9.5-35.5t-6.5-36.5q29-8 54.5-11t53.5-3q37 0 75 6.5t83 20.5l12 4 10-8q1-1 12.5-11.5t25-32 24-54 10.5-76.5zm-381 628q-7 6-19 15t-30 17-41.5 13.5-52.5 5.5q-28 0-50-4.5t-38.5-11.5-27.5-14-17-13q12-45 18-88t6-88q0-95-31-188 25 8 48 10t43 2q54 0 81-6.5t38-14.5q13-9 12-20 0-9-6.5-14.5t-14.5-5.5q-2 0-5.5 2.5t-13.5 5.5-28 5.5-49 2.5q-25 0-54-5t-61-17q14-48 21.5-96t7.5-99q0-42-5.5-85.5t-15.5-86.5q16 2 30 3t30 1q23 0 53-2.5t57-7.5 45.5-12.5 18.5-18.5-9-15.5-18-4.5q-23 6-52.5 10t-61.5 4q-23 0-48.5-2.5t-48.5-5.5q10-42 13.5-82t3.5-78q0-122-43-237 4-7 13.5-18.5t27-22 43.5-18 63-7.5 64 7 45.5 16.5 29 20 15.5 17.5q-17 53-26 104t-9 103q0 56 9.5 110t29.5 109q-17 51-25 102t-8 105q0 51 7.5 104.5t23.5 108.5q-25 82-25 168 0 109 37 217zm57 11-6-13q-18-55-27.5-108.5t-9.5-104.5v-2q39 0 78.5-5t81.5-11q50 17 85.5 25t72.5 8q31 0 66-6t81-17q5 6 12.5 17t14 27 11.5 36.5 5 46.5q0 28-6 51t-14.5 40-17.5 28.5-15 17.5q-53-18-88.5-26.5t-69.5-8.5q-26 0-56 5t-69 14q11-28 16-55t5-50q0-45-5.5-67.5t-12.5-31.5-12.5-9-6.5 0q-8 0-14 6t-6 14q0 1 1.5 4t3.5 10 3.5 20 1.5 36q0 26-6 59t-25 68q-19 0-39-4.5t-39-9.5zm-55-1033q0-51 8-101t27-101v-5q25-5 49-9.5t47-12.5q38 9 67.5 13.5t57.5 4.5q20 0 39.5-2.5t40.5-7 45-12 53-17.5q6 6 15.5 18t18.5 30 15.5 41.5 6.5 52.5q0 49-15 79.5t-26 43.5q-42-11-72.5-16t-56.5-5q-36 0-70.5 8t-83.5 25q6-22 8-40.5t2-37.5q0-54-7.5-81t-16-38-15.5-11.5-6-0.5q-9 0-14.5 6t-5.5 13q0 1 3 5t6 14.5 6 29.5 3 49q0 21-4 47.5t-16 54.5q-29 0-56.5-3.5t-52.5-6.5zm90 291q44 0 87.5-8t99.5-25q7 6 16 18t17 29 14 39 6 50q0 27-5 48t-12 36.5-15 26-13 16.5q-45-13-80.5-18t-69.5-5q-31 0-61 3.5t-64 12.5q-3-23-4.5-46.5t-1.5-45.5q0-35 3.5-69t11.5-68q36 6 71 6z"/><path transform="translate(44.57 14.52) scale(.0068359 -.0068359)" d="m485 1348-6-13q-18-55-27.5-107.5t-9.5-105.5q0-42 5.5-81.5t17.5-79.5v-15q-31-109-31-209 0-51 8-99.5t25-96.5l4-9-4-8q-19-51-28-102.5t-9-104.5q0-52 8-102.5t27-101.5l4-11-4-8q-1-2-11-17.5t-33-33.5-62.5-32.5-98.5-14.5-97.5 15.5-61 35-31.5 35.5-9 18l-4 11 4 8q23 56 34 113.5t11 119.5q0 42-4.5 84.5t-15.5 87.5v13q12 49 19.5 96.5t7.5 95.5q0 54-9 105t-24 102l-2 8 4 8q43 110 43 219 0 44-6.5 87t-20.5 88l-4 12 8 10q1 1 12 12.5t33.5 25 56.5 24 81 10.5q48 0 83-12.5t58.5-27.5 35.5-28 13-14zm-57-11q-7 6-19 15t-30 17.5-41.5 14-52.5 5.5q-28 0-50-5t-38.5-11.5-27.5-14-17-12.5q12-45 18-88.5t6-88.5q0-46-7.5-93t-23.5-93q23 6 45.5 9t42.5 3q55 0 83-7t39-15q13-10 12-21 0-9-6.5-14.5t-14.5-5.5q-2 0-5.5 2.5t-13.5 5.5-28 5.5-49 2.5q-25 0-54-5t-61-17q14-48 21.5-96t7.5-99q0-42-5.5-85.5t-15.5-86.5q16 2 30 3t30 1q23 0 53-2.5t57-7.5 45.5-12.5 18.5-18.5q0-8-6.5-14t-14.5-6q-23 0-52.5 7t-63.5 7q-25 0-50.5-1.5t-50.5-6.5q10-42 13.5-82t3.5-78q0-122-43-237 4-7 13.5-18.5t27-22 43.5-18 63-7.5 64 7 45.5 16.5 29 20 15.5 17.5q-35 107-35 207 0 56 9.5 110.5t29.5 108.5q-17 51-25 102t-8 105q0 51 7.5 104.5t23.5 108.5q-25 82-25 168 0 109 37 217z"/></svg>