<svg width="52.848" height="21.36" viewBox="0 0 52.848 21.36" xmlns="http://www.w3.org/2000/svg"><path transform="translate(0 14.944) scale(.016 -.016)" d="m563 684q15 24 46 24 12 0 22-6 7-109 7-215t-4.5-269-5.5-211q-24-16-39-16t-23 3q-6 53-6 108l6 228q-86 8-192 8t-221-21q-8-198-8-292-25-20-40.5-20t-24.5 5q-3 49-3 138t12.5 294.5 13.5 237.5q13 21 45 21 10 0 19-4 3-28 3-71t-6-131.5-6-122.5q121 20 224 20t182-7q3 37 3 109t-4 190z"/><path transform="translate(11.536 14.944) scale(.016 -.016)" d="m375 288-5-115q0-87 20-117 12-20 33-20 6 0 17 3 21 6 35-6-7-35-70-35-43 0-57 36-11 27-16 67.5t-8 55.5q-65-124-126-151-31-14-72-14t-63.5 39.5-22.5 115.5 25 159.5 73 141 105 57.5q82 0 109-68 23-58 23-149zm-217-248q54 0 104 102t50 190q0 57-30 94-20 24-52.5 24t-59-37.5-40.5-92-21-103-7-86 15.5-64.5 40.5-27z"/><path transform="translate(18.72 14.944) scale(.016 -.016)" d="m470 28q-18-19-41-19-43 0-64 46t-24.5 112-4.5 132-10.5 112-35.5 46q-35 0-59.5-63t-34.5-140q-28-215-54-241-18-9-31-9t-22 3q-21 92-27 317-2 112-4 145 21 14 36 14t24-3q5-43 5.5-176t1.5-153q5 21 12.5 68t13.5 77.5 19 71.5 29 65.5 44 42 63 17.5q47 0 68.5-42.5t23.5-105.5 2.5-128 16-119 53.5-70z"/><path transform="translate(26.336 14.944) scale(.016 -.016)" d="m435 801q-38-344-38-490.5t27-292.5q-20-20-35-20t-25 4q-21 74-25 161-24-38-35.5-54t-39.5-47q-51-60-121-60-53 0-76.5 49.5t-23.5 127 17.5 148 60.5 122 106 51.5q38 0 70-16t44-43q2 27 4 83t4.5 99.5 8.5 88.5q11 96 49 96 13 0 28-7zm-270-392q-59-77-59-223 0-47 15-93.5t44-46.5q42 0 82 55t62 126.5 22 128.5q0 27-12.5 49t-33.5 32.5-55.5 10.5-64.5-39z"/><path transform="translate(33.904 14.944) scale(.016 -.016)" d="m92 598q0 99-27 133 13 19 45 19 6 0 13-1 25-25 25-145 0-65-6-151-12-150-12-220 0-189 73-189 0 0 37 7 9 0 15-8-3-36-58.5-36t-85.5 33.5-37.5 84-7.5 83.5 1 72.5 9 113.5q16 150 16 204z"/><path transform="translate(37.712 14.944) scale(.016 -.016)" d="m110 203q-2-20-2-27 0-60 36.5-93t86.5-33 81.5 14 45.5 30q36 45 66 45 11 0 26-6-10-49-75.5-89.5t-164.5-40.5q-70 0-120.5 44.5t-50.5 121.5 30.5 149.5 88 124 117 51.5 96-24.5 36.5-71.5q0-87-77.5-143.5t-164.5-56.5q-23 0-55 5zm76 33q47 0 84 30t52.5 63 15.5 60-21 47.5-49 20.5q-50 0-92.5-69t-60.5-143q44-9 71-9z"/><path transform="translate(45.28 14.944) scale(.016 -.016)" d="m110 203q-2-20-2-27 0-60 36.5-93t86.5-33 81.5 14 45.5 30q36 45 66 45 11 0 26-6-10-49-75.5-89.5t-164.5-40.5q-70 0-120.5 44.5t-50.5 121.5 30.5 149.5 88 124 117 51.5 96-24.5 36.5-71.5q0-87-77.5-143.5t-164.5-56.5q-23 0-55 5zm76 33q47 0 84 30t52.5 63 15.5 60-21 47.5-49 20.5q-50 0-92.5-69t-60.5-143q44-9 71-9z"/></svg>