<svg width="76.172" height="23.438" viewBox="0 0 76.172 23.438" xmlns="http://www.w3.org/2000/svg"><path transform="translate(0 15.625) scale(.0078125 -.0078125)" d="m81 0v126l163 28v1147l-163 28v127h523v-127l-163-28v-503h696v503l-163 28v127h523v-127l-163-28v-1147l163-28v-126h-523v126l163 28v489h-696v-489l163-28v-126z"/><path transform="translate(12.328 15.625) scale(.0078125 -.0078125)" d="m424-21q-169 0-257 82.5t-88 232.5q0 103 57 180 56 76 163 118.5t256 42.5h193v106q0 98-59.5 152t-167.5 54q-68 0-118-16.5t-91-45.5l-21-151h-152v248q73 59 170 89.5t215 30.5q197 0 309-94t112-269v-521q0-21 0.5-41t2.5-40l105-11v-126h-283q-9 44-14 79t-7 70q-57-73-142.5-121.5t-182.5-48.5zm29 165q98 0 179 47t116 113v196h-200q-136 0-204-65t-68-145q0-71 44-108.5t133-37.5z"/><path transform="translate(21.172 15.625) scale(.0078125 -.0078125)" d="m74 0v126l163 28v773l-163 28v127h339l14-161q54 86 135.5 133.5t185.5 47.5q175 0 271-102.5t96-316.5v-529l163-28v-126h-523v126l163 28v525q0 143-56.5 203t-172.5 60q-85 0-150.5-41t-104.5-112v-635l163-28v-126z"/><path transform="translate(31.664 15.625) scale(.0078125 -.0078125)" d="m550-21q-176 0-275 113t-99 352v483l-124 28v127h321v-640q0-173 51-238t159-65q105 0 173.5 42.5t103.5 120.5v625l-145 28v127h342v-928l124-28v-126h-301l-13 160q-51-87-131.5-134t-185.5-47z"/><path transform="translate(41.391 15.625) scale(.0078125 -.0078125)" d="m74 0v126l163 28v773l-163 28v127h340l13-141q52 77 134 119t190 42 185.5-50 116.5-150q51 92 135 146t196 54q166 0 262-113.5t96-341.5v-493l163-28v-126h-524v126l163 28v495q0 160-55 226.5t-163 66.5q-103 0-165.5-72.5t-72.5-182.5v-533l163-28v-126h-523v126l163 28v495q0 152-56.5 222.5t-163.5 70.5q-90 0-148-37t-89-104v-647l163-28v-126z"/><path transform="translate(56.836 15.625) scale(.0078125 -.0078125)" d="m424-21q-169 0-257 82.5t-88 232.5q0 103 57 180 56 76 163 118.5t256 42.5h193v106q0 98-59.5 152t-167.5 54q-68 0-118-16.5t-91-45.5l-21-151h-152v248q73 59 170 89.5t215 30.5q197 0 309-94t112-269v-521q0-21 0.5-41t2.5-40l105-11v-126h-283q-9 44-14 79t-7 70q-57-73-142.5-121.5t-182.5-48.5zm29 165q98 0 179 47t116 113v196h-200q-136 0-204-65t-68-145q0-71 44-108.5t133-37.5z"/><path transform="translate(65.68 15.625) scale(.0078125 -.0078125)" d="m74 0v126l163 28v773l-163 28v127h339l14-161q54 86 135.5 133.5t185.5 47.5q175 0 271-102.5t96-316.5v-529l163-28v-126h-523v126l163 28v525q0 143-56.5 203t-172.5 60q-85 0-150.5-41t-104.5-112v-635l163-28v-126z"/></svg>