<svg width="120.78" height="19.28" viewBox="0 0 120.78 19.28" xmlns="http://www.w3.org/2000/svg"><path transform="translate(0 15.2) scale(.016 -.016)" d="m73 28v645q0 27 38 27 15 0 25.5-7t10.5-20v-244h424v244q0 27 38 27 15 0 25.5-7t10.5-20v-645q0-13-11-20.5t-26-7.5q-37 0-37 28v327h-424v-327q0-13-11-20.5t-26-7.5q-37 0-37 28z"/><path transform="translate(11.488 15.2) scale(.016 -.016)" d="m38 182q0 134 105 231t238 97q91 0 155-69t64-157l-1-262q0-13-12.5-20.5t-27.5-7.5q-33 0-33 28v169q-81-105-154.5-152t-151.5-47q-72 0-127 58.5t-55 131.5zm72-2q0-57 40-86.5t85-29.5q52 0 119 51.5t111.5 115 44.5 99.5q0 30-17.5 53.5t-43 34.5-46.5 16.5-35 5.5q-98 0-178-78.5t-80-181.5z"/><path transform="translate(21.92 15.2) scale(.016 -.016)" d="m60-223v695q0 13 11 20.5t26 7.5q37 0 37-28v-109q95 145 281 145 85 0 144.5-56.5t59.5-132.5q0-89-49-163.5t-127.5-115.5-164.5-41q-83 0-144 55v-277q0-27-38-27-15 0-25.5 7t-10.5 20zm73 420q0-61 48.5-92t96.5-31q58 0 118 28t102.5 83.5 42.5 121.5q0 68-42.5 98t-102.5 30q-56 0-118.5-37.5t-103.5-94-41-106.5z"/><path transform="translate(32.432 15.2) scale(.016 -.016)" d="m60-223v695q0 13 11 20.5t26 7.5q37 0 37-28v-109q95 145 281 145 85 0 144.5-56.5t59.5-132.5q0-89-49-163.5t-127.5-115.5-164.5-41q-83 0-144 55v-277q0-27-38-27-15 0-25.5 7t-10.5 20zm73 420q0-61 48.5-92t96.5-31q58 0 118 28t102.5 83.5 42.5 121.5q0 68-42.5 98t-102.5 30q-56 0-118.5-37.5t-103.5-94-41-106.5z"/><path transform="translate(42.944 15.2) scale(.016 -.016)" d="m54 204v270q0 13 10.5 20.5t24.5 7.5q37 0 37-28v-261q0-37 20-66t50.5-44 60-22.5 54.5-7.5q71 0 134 44t89 117v240q0 27 38 27 15 0 25.5-7t10.5-20v-479q0-59-26.5-108.5t-68.5-79.5-91-46-97-16q-82 0-160.5 38t-79.5 102q0 16 10.5 24.5t25.5 8.5q16 0 28-9t12-23q0-32 57-49.5t112-17.5q45 0 89.5 16.5t79.5 57 35 95.5v116q-91-104-232-104-98 0-173 56.5t-75 147.5z"/><path transform="translate(57.488 15.2) scale(.016 -.016)" d="m73 28v645q0 13 15.5 21.5t34.5 8.5q21 0 28-12l236-349 237 349q7 12 25 12t35-9 17-21v-645q0-13-11-20.5t-26-7.5q-37 0-37 28v537l-182-264q-24-35-59-35-32 0-57 35l-182 264v-537q0-13-11-20.5t-26-7.5q-37 0-37 28z"/><path transform="translate(69.872 15.2) scale(.016 -.016)" d="m38 248q0 86 45.5 148.5t110 90.5 135.5 28q100 0 184.5-75.5t84.5-190.5q0-109-75-186.5t-196-77.5q-119 0-204 77.5t-85 185.5zm74-1q0-71 65-129.5t151-58.5q81 0 138.5 59t57.5 131q0 70-55 131t-142 61q-102 0-158.5-62t-56.5-132z"/><path transform="translate(80.048 15.2) scale(.016 -.016)" d="m60 26v447q0 13 10.5 20t25.5 7q38 0 38-27v-79q50 54 121 85.5t144 31.5q94 0 157.5-58.5t63.5-152.5q0-9-0.5-91.5t-0.5-180.5q0-13-11-20.5t-26-7.5q-37 0-37 28v263q0 71-50.5 109t-104.5 38q-73 0-149.5-48.5t-106.5-122.5v-241q0-27-38-27-15 0-25.5 7t-10.5 20z"/><path transform="translate(90.816 15.2) scale(.016 -.016)" d="m60 28v695q0 27 38 27 15 0 25.5-7t10.5-20v-427l343 197q11 7 21 7 15 0 24.5-14.5t9.5-30.5q0-15-8-20l-225-129 309-255q4-7 4-14 0-17-20-29-13-8-26-8-14 0-22 12l-314 254-96-55v-183q0-13-11-20.5t-26-7.5q-37 0-37 28z"/><path transform="translate(100.56 15.2) scale(.016 -.016)" d="m38 264q0 64 28 114t74 79 99 43.5 108 14.5q98 0 152-42.5t54-104.5q0-67-63-114t-179-47q-104 0-198 30 11-74 69-124t143-50q45 0 93.5 14t76.5 40q4 8 16 8 14 0 30-12.5t16-25.5q-25-51-97.5-74.5t-140.5-23.5q-123 0-202 81t-79 194zm79 50q75-33 186-33 87 0 132 27.5t45 61.5q0 30-37.5 50.5t-111.5 20.5q-80 0-133.5-35.5t-80.5-91.5z"/><path transform="translate(110.1 15.2) scale(.016 -.016)" d="m54 204v270q0 13 10.5 20.5t24.5 7.5q37 0 37-28v-261q0-37 20-66t50.5-44 60-22.5 54.5-7.5q71 0 134 44t89 117v240q0 27 38 27 15 0 25.5-7t10.5-20v-479q0-59-26.5-108.5t-68.5-79.5-91-46-97-16q-82 0-160.5 38t-79.5 102q0 16 10.5 24.5t25.5 8.5q16 0 28-9t12-23q0-32 57-49.5t112-17.5q45 0 89.5 16.5t79.5 57 35 95.5v116q-91-104-232-104-98 0-173 56.5t-75 147.5z"/></svg>