<svg width="98.602" height="28.352" viewBox="0 0 98.602 28.352" xmlns="http://www.w3.org/2000/svg"><path transform="translate(0 18.156) scale(.0078125 -.0078125)" d="m88 1794q18 0 47.5-10t70-24.5 91-30 109.5-27.5q58-12 122.5-19.5t121.5-12 100.5-7.5 58.5-4q14-2 22.5-5.5t8.5-13.5q0-11-9-14.5t-20-3.5q-22 0-64.5 3t-89.5 3q-35 0-61.5-6.5t-44-21.5-27.5-39.5-12-61.5q-2-21-2.5-54.5t-1-74.5-0.5-87.5 0-94.5q0-58 0-113t0-101 0.5-78 1.5-44q1-26 6-42t14-25 21-12 27-3q28 0 68 2.5t85.5 6.5 91.5 9.5 85.5 10 69.5 8.5 42 6q34 6 54 23t29.5 41 12 54.5 2.5 63.5q0 45-3.5 92.5t-8.5 90.5-10.5 78-8.5 53q-6 39-18 60.5t-26.5 32-30 13-27.5 2.5q-34 0-69.5-2t-55.5-2-30.5 8-10.5 21q0 11 8.5 21t40.5 12q30 1 67.5 3.5t79 7 84.5 10.5 85 15q38 9 81.5 21.5t85 24 77.5 20 59 8.5 29-7 6-15q0-14-11.5-19.5t-25.5-5.5q-7 0-19-1t-25-3.5-26-6.5-22-11q-16-13-29.5-35.5t-20.5-67.5q-5-36-7.5-90.5t-4.5-114.5-3.5-120-2.5-107q-1-24-2.5-70.5t-2.5-107-2.5-132-2.5-145-1.5-147-0.5-137.5q0-54 0-99t2-77q1-32 8.5-52.5t17.5-33 21.5-19 21.5-10.5q22-8 47-12t54-11q14-3 18-7.5t4-10.5q0-2-1-5.5t-4.5-6.5-11.5-5-22-2q-12 0-42.5 2.5t-68.5 6-78 6-71 2.5q-41 0-81-3.5t-76-8-68-8-57-3.5q-42 0-54 10.5t-12 22.5q0 16 12.5 20.5t30.5 4.5q57 2 95.5 5.5t72.5 18.5q25 12 40.5 28.5t23 36 10 40 2.5 39.5q0 15-2 54t-5.5 91.5-8 112-9.5 116-9.5 103.5-8.5 74q-5 30-12.5 47.5t-18 26.5-24.5 11.5-31 2.5q-18 0-54.5-3t-82-7.5-95-10.5-93-12-77.5-12-47-11q-19-6-30-16t-16-21.5-6.5-24-2.5-24.5q0-29 0.5-79t1-110.5 1.5-127 1.5-128.5 1-114.5 0.5-85.5q0-47 6-76t16-46.5 24-28 30-19.5q17-9 32-16.5t15-20.5q0-8-6.5-11t-15.5-3q-21 0-43.5 6t-52.5 12.5-71.5 12.5-99.5 6q-60 0-110.5-7t-90.5-15.5-69-15.5-47-7q-37 0-37 26 0 16 8.5 23t22.5 12q6 2 20 5t33.5 6.5 42.5 8.5 47 11q32 8 50 22t26.5 31.5 10.5 37.5 3 40q0 6 1 40.5t3 87 4 120 4 140 3 145 2 137.5q0 15 0.5 49.5t0.5 82.5 0.5 107 0.5 123q0 85-0.5 173t-2 164.5-4 134.5-6.5 83q-4 29-11 51.5t-19 40.5-28.5 33-39.5 29q-22 13-42 23t-35.5 18-24.5 16.5-9 18.5q0 9 6 14.5t21 5.5z"/><path transform="translate(11.891 18.156) scale(.0078125 -.0078125)" d="m819 530q14-23 25.5-62t11.5-79q0-73-24-130.5t-69-97-108.5-60.5-142.5-21q-114 0-203.5 38.5t-150.5 107.5-93 164.5-32 209.5q0 103 22 187t60 150 88 115 106 81 114 47.5 112 15.5q53 0 110-14t104.5-48 78-89.5 30.5-139.5q0-73-21.5-128t-56.5-95-79.5-66-91-41.5-91-21.5-78.5-6q-49 0-95.5 7t-72.5 15q4-78 24.5-150.5t58.5-127.5 94.5-88 132.5-33q53 0 91.5 18t63.5 48.5 37 70.5 12 84q0 26-3.5 54t-12.5 53q-6 15-10 28t-4 21q0 20 18 20 9 0 21.5-9t23.5-28zm-551 105q26-8 59-13.5t83-5.5q58 0 107 22t84 61.5 55 95.5 20 125q0 61-13.5 102.5t-35.5 66.5-50.5 35.5-58.5 10.5q-38 0-82-23t-81.5-80-62-153.5-24.5-243.5z"/><path transform="translate(18.836 18.156) scale(.0078125 -.0078125)" d="m344 1288q8 0 16-25.5t16-66.5 16-94.5 16-108.5l36-252q5 33 17.5 76t33.5 89 51 90 69.5 79 89 56.5 110.5 21.5q75 0 130-28.5t91-79 53-120.5 17-153q0-75-8.5-150.5t-18-148.5-18-141-8.5-127q0-35 6-61t18-48q14-21 34.5-36.5t39-29 32-27 13.5-28.5q0-9-5-15.5t-17-6.5q-18 0-39.5 13.5t-53 34-75.5 44-107 43.5q-47 16-94.5 25t-110.5 12q-35 3-35 20 0 19 23 19 14 0 39 0t51 2q40 3 66 24.5t39 79.5q4 23 8 58.5t7 76 5 82.5 2 80q0 34-1 78.5t-6.5 92.5-17 94-33.5 82-56 58.5-83 22.5q-42 0-76.5-21t-61.5-58.5-46-88.5-29-112q-11-62-14.5-127.5t-3.5-130.5q0-55 4-105.5t11-93 17-75.5 23-52q19-26 41-39t37-18q20-6 28.5-10.5t8.5-12.5q0-6-9.5-11t-31.5-5q-21 0-46 3.5t-52 7.5-56 7.5-57 3.5-57-2-55.5-4-48.5-4-35-2q-39 0-39 25 0 9 6.5 15.5t23.5 8.5q14 1 25 2t22.5 1.5 24 1.5 29.5 3q32 5 43.5 23.5t11.5 50.5q0 55-9.5 134t-25.5 174-38.5 201.5-47.5 217.5q-12 57-27.5 85t-44.5 28q-15 0-31-5.5t-31.5-12-29.5-12-26-5.5q-19 0-19 16 0 13 10.5 18.5t22.5 10.5q28 11 60.5 28t70.5 46q37 29 66 62t50 61 34 46.5 20 18.5z"/><path transform="translate(28.195 18.156) scale(.0078125 -.0078125)" d="m344 1288q8 0 16-25.5t16-66.5 16-94.5 16-108.5l36-252q5 33 17.5 76t33.5 89 51 90 69.5 79 89 56.5 110.5 21.5q75 0 130-28.5t91-79 53-120.5 17-153q0-75-8.5-150.5t-18-148.5-18-141-8.5-127q0-35 6-61t18-48q14-21 34.5-36.5t39-29 32-27 13.5-28.5q0-9-5-15.5t-17-6.5q-18 0-39.5 13.5t-53 34-75.5 44-107 43.5q-47 16-94.5 25t-110.5 12q-35 3-35 20 0 19 23 19 14 0 39 0t51 2q40 3 66 24.5t39 79.5q4 23 8 58.5t7 76 5 82.5 2 80q0 34-1 78.5t-6.5 92.5-17 94-33.5 82-56 58.5-83 22.5q-42 0-76.5-21t-61.5-58.5-46-88.5-29-112q-11-62-14.5-127.5t-3.5-130.5q0-55 4-105.5t11-93 17-75.5 23-52q19-26 41-39t37-18q20-6 28.5-10.5t8.5-12.5q0-6-9.5-11t-31.5-5q-21 0-46 3.5t-52 7.5-56 7.5-57 3.5-57-2-55.5-4-48.5-4-35-2q-39 0-39 25 0 9 6.5 15.5t23.5 8.5q14 1 25 2t22.5 1.5 24 1.5 29.5 3q32 5 43.5 23.5t11.5 50.5q0 55-9.5 134t-25.5 174-38.5 201.5-47.5 217.5q-12 57-27.5 85t-44.5 28q-15 0-31-5.5t-31.5-12-29.5-12-26-5.5q-19 0-19 16 0 13 10.5 18.5t22.5 10.5q28 11 60.5 28t70.5 46q37 29 66 62t50 61 34 46.5 20 18.5z"/><path transform="translate(37.555 18.156) scale(.0078125 -.0078125)" d="m592 1098q8 0 14-4t6-15q0-14-14-24-12-10-38-25t-68-47q-26-19-40.5-42t-21.5-50-8.5-59.5-1.5-69.5q1-75 10-147t23-134.5 31-113 34-84.5q35-72 87-115t126-43q52 0 90.5 25t65.5 65.5 44 92 27 104.5 13.5 103 3.5 87q0 99-16 151t-48 72q-13 9-30 15t-34 10.5-32 8-24 5.5q-22 5-30.5 13t-8.5 22 9.5 22.5 24.5 8.5q29 0 78-5t115-5q36 0 79.5 4.5t84.5 11 75 14 52 13.5q14 5 23 6.5t14 1.5q12 0 20-6t8-17-4.5-17.5-13.5-12.5q-23-16-45-29.5t-33-38.5q-9-21-14-51t-8.5-73.5-7-103.5-9.5-143q-7-91-19-195t-31.5-216.5-48.5-232.5-69-243q-41-124-95-222.5t-121-167.5-145-105.5-165-36.5q-62 0-113 19t-87.5 53.5-56.5 82.5-20 107q0 63 18.5 115.5t51 91 77 59.5 97.5 21q43 0 75.5-14t54.5-37 33-52.5 11-60.5q0-27-8.5-50.5t-24.5-41-39.5-27.5-52.5-10q-34 0-55.5 11t-35.5 27-23 35.5-17 35.5-17 27-24 11q-16 0-29-12t-22.5-31.5-14.5-44-5-49.5q0-48 17-88t47.5-68 72.5-43.5 92-15.5q84 0 147.5 38t110.5 96 79.5 127.5 52.5 132.5 29.5 110.5 12.5 62.5q28 177 36.5 306t8.5 204q0 25-0.5 43.5t-1.5 31.5q-1 15-2 26-7-21-17-44-8-20-19-44.5t-25-48.5q-18-31-45.5-60.5t-64-53-81-38-96.5-14.5q-89 0-154 37t-112 99-78.5 142.5-53 167.5-37 174-30.5 162q-6 31-18 41t-29 10q-19 0-39-4t-31-4q-9 0-14.5 5t-5.5 13q0 17 20 23 45 12 80.5 23t65 22 55.5 22.5 53 24.5q62 30 108 58t80 49 57.5 34 41.5 13z"/><path transform="translate(52.422 18.156) scale(.0078125 -.0078125)" d="m895 1532q62 0 129.5-14.5t123.5-54 92-109.5 36-180q0-102-23.5-178.5t-62.5-132-89.5-91.5-104.5-57.5-108-30-100-8.5q-66 0-113 6.5t-79 15.5q1-51 1.5-105.5t1-103 1-86 0.5-53.5q1-35 4-87.5t9.5-108.5 17-109.5 26.5-89.5q17-38 44-65t58.5-45 65.5-29 66-17q16-3 32.5-5.5t29.5-6 21.5-9 8.5-14.5q0-12-10-19t-41-7q-32 0-81 9.5t-109.5 21-128.5 21-136 9.5q-74 0-139.5-8t-117-17.5-87.5-17.5-51-8q-4 0-9.5 0.5t-11 2.5-9 6-3.5 12q0 11 13.5 18t36 14 51 16.5 57.5 24.5q57 31 86 81t43 116q6 30 12.5 87t12.5 130.5 11.5 158 9.5 169 6.5 163 2.5 140.5q0 122-7 215t-30 145q-18 41-48.5 65.5t-67 37.5-76.5 17.5-78 6.5q-50 1-67 7.5t-17 25.5q0 29 51 29 22 0 70-3t115-3q49 0 107 3t120 11q52 6 92.5 15.5t75 19 64.5 19 61 17.5 64.5 12.5 74.5 4.5zm-287-305q-4-42-6-96.5t-3.5-116.5-2-129-0.5-133q32-10 72-14.5t96-4.5q75 0 127.5 36t85 95.5 47 135 14.5 153.5q0 64-11.5 124t-37.5 105.5-70 73-108 27.5q-50 0-86-18t-60-51.5-37.5-81-19.5-105.5z"/><path transform="translate(62.391 18.156) scale(.0078125 -.0078125)" d="m819 530q14-23 25.5-62t11.5-79q0-73-24-130.5t-69-97-108.5-60.5-142.5-21q-114 0-203.5 38.5t-150.5 107.5-93 164.5-32 209.5q0 103 22 187t60 150 88 115 106 81 114 47.5 112 15.5q53 0 110-14t104.5-48 78-89.5 30.5-139.5q0-73-21.5-128t-56.5-95-79.5-66-91-41.5-91-21.5-78.5-6q-49 0-95.5 7t-72.5 15q4-78 24.5-150.5t58.5-127.5 94.5-88 132.5-33q53 0 91.5 18t63.5 48.5 37 70.5 12 84q0 26-3.5 54t-12.5 53q-6 15-10 28t-4 21q0 20 18 20 9 0 21.5-9t23.5-28zm-551 105q26-8 59-13.5t83-5.5q58 0 107 22t84 61.5 55 95.5 20 125q0 61-13.5 102.5t-35.5 66.5-50.5 35.5-58.5 10.5q-38 0-82-23t-81.5-80-62-153.5-24.5-243.5z"/><path transform="translate(69.336 18.156) scale(.0078125 -.0078125)" d="m344 1288q8 0 16-25.5t16-66.5 16-94.5 16-108.5l36-252q5 33 17.5 76t33.5 89 51 90 69.5 79 89 56.5 110.5 21.5q75 0 130-28.5t91-79 53-120.5 17-153q0-75-8.5-150.5t-18-148.5-18-141-8.5-127q0-35 6-61t18-48q14-21 34.5-36.5t39-29 32-27 13.5-28.5q0-9-5-15.5t-17-6.5q-18 0-39.5 13.5t-53 34-75.5 44-107 43.5q-47 16-94.5 25t-110.5 12q-35 3-35 20 0 19 23 19 14 0 39 0t51 2q40 3 66 24.5t39 79.5q4 23 8 58.5t7 76 5 82.5 2 80q0 34-1 78.5t-6.5 92.5-17 94-33.5 82-56 58.5-83 22.5q-42 0-76.5-21t-61.5-58.5-46-88.5-29-112q-11-62-14.5-127.5t-3.5-130.5q0-55 4-105.5t11-93 17-75.5 23-52q19-26 41-39t37-18q20-6 28.5-10.5t8.5-12.5q0-6-9.5-11t-31.5-5q-21 0-46 3.5t-52 7.5-56 7.5-57 3.5-57-2-55.5-4-48.5-4-35-2q-39 0-39 25 0 9 6.5 15.5t23.5 8.5q14 1 25 2t22.5 1.5 24 1.5 29.5 3q32 5 43.5 23.5t11.5 50.5q0 55-9.5 134t-25.5 174-38.5 201.5-47.5 217.5q-12 57-27.5 85t-44.5 28q-15 0-31-5.5t-31.5-12-29.5-12-26-5.5q-19 0-19 16 0 13 10.5 18.5t22.5 10.5q28 11 60.5 28t70.5 46q37 29 66 62t50 61 34 46.5 20 18.5z"/><path transform="translate(78.695 18.156) scale(.0078125 -.0078125)" d="m344 1288q8 0 16-25.5t16-66.5 16-94.5 16-108.5l36-252q5 33 17.5 76t33.5 89 51 90 69.5 79 89 56.5 110.5 21.5q75 0 130-28.5t91-79 53-120.5 17-153q0-75-8.5-150.5t-18-148.5-18-141-8.5-127q0-35 6-61t18-48q14-21 34.5-36.5t39-29 32-27 13.5-28.5q0-9-5-15.5t-17-6.5q-18 0-39.5 13.5t-53 34-75.5 44-107 43.5q-47 16-94.5 25t-110.5 12q-35 3-35 20 0 19 23 19 14 0 39 0t51 2q40 3 66 24.5t39 79.5q4 23 8 58.5t7 76 5 82.5 2 80q0 34-1 78.5t-6.5 92.5-17 94-33.5 82-56 58.5-83 22.5q-42 0-76.5-21t-61.5-58.5-46-88.5-29-112q-11-62-14.5-127.5t-3.5-130.5q0-55 4-105.5t11-93 17-75.5 23-52q19-26 41-39t37-18q20-6 28.5-10.5t8.5-12.5q0-6-9.5-11t-31.5-5q-21 0-46 3.5t-52 7.5-56 7.5-57 3.5-57-2-55.5-4-48.5-4-35-2q-39 0-39 25 0 9 6.5 15.5t23.5 8.5q14 1 25 2t22.5 1.5 24 1.5 29.5 3q32 5 43.5 23.5t11.5 50.5q0 55-9.5 134t-25.5 174-38.5 201.5-47.5 217.5q-12 57-27.5 85t-44.5 28q-15 0-31-5.5t-31.5-12-29.5-12-26-5.5q-19 0-19 16 0 13 10.5 18.5t22.5 10.5q28 11 60.5 28t70.5 46q37 29 66 62t50 61 34 46.5 20 18.5z"/><path transform="translate(88.055 18.156) scale(.0078125 -.0078125)" d="m592 1098q8 0 14-4t6-15q0-14-14-24-12-10-38-25t-68-47q-26-19-40.5-42t-21.5-50-8.5-59.5-1.5-69.5q1-75 10-147t23-134.5 31-113 34-84.5q35-72 87-115t126-43q52 0 90.5 25t65.5 65.5 44 92 27 104.5 13.5 103 3.5 87q0 99-16 151t-48 72q-13 9-30 15t-34 10.5-32 8-24 5.5q-22 5-30.5 13t-8.5 22 9.5 22.5 24.5 8.5q29 0 78-5t115-5q36 0 79.5 4.5t84.5 11 75 14 52 13.5q14 5 23 6.5t14 1.5q12 0 20-6t8-17-4.5-17.5-13.5-12.5q-23-16-45-29.5t-33-38.5q-9-21-14-51t-8.5-73.5-7-103.5-9.5-143q-7-91-19-195t-31.5-216.5-48.5-232.5-69-243q-41-124-95-222.5t-121-167.5-145-105.5-165-36.5q-62 0-113 19t-87.5 53.5-56.5 82.5-20 107q0 63 18.5 115.5t51 91 77 59.5 97.5 21q43 0 75.5-14t54.5-37 33-52.5 11-60.5q0-27-8.5-50.5t-24.5-41-39.5-27.5-52.5-10q-34 0-55.5 11t-35.5 27-23 35.5-17 35.5-17 27-24 11q-16 0-29-12t-22.5-31.5-14.5-44-5-49.5q0-48 17-88t47.5-68 72.5-43.5 92-15.5q84 0 147.5 38t110.5 96 79.5 127.5 52.5 132.5 29.5 110.5 12.5 62.5q28 177 36.5 306t8.5 204q0 25-0.5 43.5t-1.5 31.5q-1 15-2 26-7-21-17-44-8-20-19-44.5t-25-48.5q-18-31-45.5-60.5t-64-53-81-38-96.5-14.5q-89 0-154 37t-112 99-78.5 142.5-53 167.5-37 174-30.5 162q-6 31-18 41t-29 10q-19 0-39-4t-31-4q-9 0-14.5 5t-5.5 13q0 17 20 23 45 12 80.5 23t65 22 55.5 22.5 53 24.5q62 30 108 58t80 49 57.5 34 41.5 13z"/></svg>