<svg width="79.282" height="19.908" viewBox="0 0 79.282 19.908" xmlns="http://www.w3.org/2000/svg"><path transform="translate(0 12.95) scale(.014 -.014)" d="m240-94q29 0 61.5 64.5t56.5 157.5q-123-170-123-213 0-7 5-9zm110 439q0-102 20-168 23 103 23 167.5t-23 64.5q-20 0-20-64zm-289-334 14 8q3 0 3-3 0-8-25-26t-39-18-14 14q0 53 145.5 249t245.5 304l2 4q0 2-3 2-39-26-163-80.5t-178-54.5q-30 0-30 20 0 6 8.5 16.5t12 10.5 10.5-6.5 43.5-6.5 123.5 32.5 181 86.5q32 19 53 38t48.5 48 36 37.5 32 34 37.5 39.5q39 37 64 37 8 0 8-7 0-40-129-134-49-37-57-46-113-124-272-334.5t-160-261.5q0-3 2-3zm510 139-72-44q-38-24-67.5-24t-52.5 21q-28-89-67.5-149t-77.5-60q-13 0-13 12 0 63 130 243-26 63-26 178 0 39 12 65t33 26q48 0 48-100 0-42-9-90 139 181 317 377t238 240q14 9 34 9t20-7q0-5-4-9-5-5-16-15t-19-18q-350-350-566-607l-12-15q-1-3-5-21.5t-7-27.5q21-36 54-36 19 0 37 10 30 17 71 44 7 4 15 4t8-2-3-4z"/><path transform="translate(6.496 12.95) scale(.014 -.014)" d="m252 257q0 3-4 3-27 0-84-47t-99-103q50 16 118.5 72t68.5 75zm-231-236q0-13 10-13 12 0 54 16.5t69 32.5l98 62 1-13q-105-70-156.5-89t-68.5-19q-28 0-28 35 0 47 34 94t79.5 77 88 49 64.5 19 22-15q0-37-87.5-90t-145.5-70q-34-49-34-76z"/><path transform="translate(9.548 12.95) scale(.014 -.014)" d="m338 149 8-9q-46-28-75-47t-44-19q-22 0-22 19 0 14 15.5 55.5t21.5 58.5l-3 3q-4 0-9-4-101-81-130.5-109t-57-60-30-35-3.5-4q-3-3-20.5-3t-17.5 3q2 3 25 28 56 61 101 117l-29-17q-46-28-67-42l-4 11 63 40q34 22 58.5 46t33.5 39 16 25 13 10 19-7q0-10-16-35t-32-45l-16-19q0-2 1-2 3 0 7 3.5t33.5 28 51.5 42 50.5 33.5 41.5 16 13-6q0-8-49-34-11-6-33.5-57.5t-22.5-75.5q0-5 9.5-5t37.5 18z"/><path transform="translate(13.118 12.95) scale(.014 -.014)" d="m338 149 8-9q-46-28-75-47t-44-19q-22 0-22 19 0 14 15.5 55.5t21.5 58.5l-3 3q-4 0-9-4-101-81-130.5-109t-57-60-30-35-3.5-4q-3-3-20.5-3t-17.5 3q2 3 25 28 56 61 101 117l-29-17q-46-28-67-42l-4 11 63 40q34 22 58.5 46t33.5 39 16 25 13 10 19-7q0-10-16-35t-32-45l-16-19q0-2 1-2 3 0 7 3.5t33.5 28 51.5 42 50.5 33.5 41.5 16 13-6q0-8-49-34-11-6-33.5-57.5t-22.5-75.5q0-5 9.5-5t37.5 18z"/><path transform="translate(19.768 12.95) scale(.014 -.014)" d="m329 404q-43-61-138.5-129t-158.5-68q-17 0-24.5 9.5t-7.5 31.5q0 55 43.5 138.5t110.5 163.5 161.5 137.5 183.5 57.5q61 0 61-75 0-50-52-151t-115-193.5-115-168-52-79.5q24 28 114.5 119t161 157 165 146.5 175.5 138.5 163 97.5 138 39.5q19 0 19-8 0-10-55.5-45.5t-59.5-35.5-4 3 7.5 11 7.5 10-3 2q-61 0-229-118t-364.5-298-329.5-341q-21-26-67-26-8 0-8 3t12 14 67 83 71.5 98.5 77.5 115.5 104.5 156 90 157 56.5 146q-2 34-39 34-54 0-138.5-55t-160.5-131-131-162.5-55-142.5q0-29 25-29 59 0 136.5 56.5t147.5 138.5q5 6 9 6t4-4-5-10z"/><path transform="translate(25.466 12.95) scale(.014 -.014)" d="m238 225v1q-20-10-44-47.5t-28-64.5q72 74 72 111zm-213-209q38 0 123 80v5q0 31 30.5 76.5t55.5 58.5q-3 3-8 3-37 0-122.5-85t-85.5-132q0-6 7-6zm-31 14q0 75 86.5 149.5t143.5 74.5q28 0 28-25 0-71-76-142 6-2 12-2 28 0 81 35l5-10q-64-43-97-43-13 0-19 5-39-32-82-52t-62.5-20-19.5 30z"/><path transform="translate(28.714 12.95) scale(.014 -.014)" d="m22 98-3 12 33 21q75 50 94 70.5t23 25.5q26 33 29 37 12-4 12-24-20-29-54-69.5t-56-67-22-30.5 1.5-4 15 10.5 73.5 52.5q121 84 154 106.5t42.5 22.5 9.5-19.5-30-58.5-66-72q-96-88-96-97 0-1 4-1 12 0 135 79l41 27 1-13q-161-107-196-107-6 0-6 6 0 37 46.5 87.5t92.5 91 46 53.5q0 2-2 2-29-14-134.5-88.5t-123.5-87.5q-47-35-49.5-36.5t-10.5-10.5q-18-19-33-19-24 2-25 3t-1 2 17 19q16 17 32 34 53 59 73 84z"/><path transform="translate(36.386 12.95) scale(.014 -.014)" d="m27 5q-23 0-27 12 0 13 86 116t189 223.5 189 245 86 175.5q0 32-33 32-54 0-114-28.5t-112.5-74-101.5-101.5-83-111q-77-120-77-175 0-29 24-29 33 0 107 56t131 112l57 55q2 2 6.5 2t4.5-3l-2-4q-9-9-24.5-25t-58.5-55.5-80.5-70-80.5-55.5-68-25q-36 0-36 43.5t25.5 106 74 130.5 109 128 139.5 99 157 39q20 0 39-14.5t19-44-21.5-77.5-64.5-112-79.5-115.5-97-125.5-84.5-102.5-71-84.5q1-1 9 5 426 386 481 435t59.5 54 6.5 7q8 8 20.5 8t12.5-12q0-30-87.5-152t-174.5-233-87-115l1-1q61 53 250.5 229.5t331 304.5 157.5 128q11 0 11-14 0-27-45.5-96t-162.5-217q-5-6-162-194-346-413-346-477 0-4 6.5-4t50 22.5 60.5 37.5 20 15 3-4.5-2-6.5q-11-14-67.5-46t-71.5-32-15 13q0 63 107 222 168 251 407 515 30 34 111 134t81 108q0 2-1 2-6 0-369.5-334t-470.5-436q-12-12-23-12-29 0-29 7t14 24.5 150 183.5q320 391 320 410l-1 1q-9-4-262-234-370-334-420-388z"/><path transform="translate(46.312 12.95) scale(.014 -.014)" d="m166 216q9 11 21 28t20 17 17-15q0-18-90.5-118t-90.5-109q0-2 6-2t70 41q134 86 231 189 24 22 42 22 1 0 2 0 19-1 19-5l-1-2q-43-40-128-135t-85-112q0-4 6.5-4t136.5 82l41 26 1-12q-12-8-31-20-149-94-174-94-9 0-9 10t24.5 57 35.5 60l-16-9q-151-108-181-108-12 0-12 13.5t11 35 20.5 34.5 28.5 35.5 20 23.5l-78-46-3 11 34 21q87 56 112 85z"/><path transform="translate(51.184 12.95) scale(.014 -.014)" d="m252 257q0 3-4 3-27 0-84-47t-99-103q50 16 118.5 72t68.5 75zm-231-236q0-13 10-13 12 0 54 16.5t69 32.5l98 62 1-13q-105-70-156.5-89t-68.5-19q-28 0-28 35 0 47 34 94t79.5 77 88 49 64.5 19 22-15q0-37-87.5-90t-145.5-70q-34-49-34-76z"/><path transform="translate(54.236 12.95) scale(.014 -.014)" d="m574 658q-30 0-221-192t-290-329q92 70 302.5 274.5t210.5 243.5q0 2-2 3zm19 18q9 0 9-11 0-48-214.5-255.5t-340.5-295.5q-44-63-44-91 0-9 4-9 41 0 147 66l60 39 1-13q-25-16-57-36-116-72-161-72-12 0-12 19 0 58 81 171.5t185.5 220 205 187 136.5 80.5z"/><path transform="translate(56.77 12.95) scale(.014 -.014)" d="m574 658q-30 0-221-192t-290-329q92 70 302.5 274.5t210.5 243.5q0 2-2 3zm19 18q9 0 9-11 0-48-214.5-255.5t-340.5-295.5q-44-63-44-91 0-9 4-9 41 0 147 66l60 39 1-13q-25-16-57-36-116-72-161-72-12 0-12 19 0 58 81 171.5t185.5 220 205 187 136.5 80.5z"/><path transform="translate(59.304 12.95) scale(.014 -.014)" d="m252 257q0 3-4 3-27 0-84-47t-99-103q50 16 118.5 72t68.5 75zm-231-236q0-13 10-13 12 0 54 16.5t69 32.5l98 62 1-13q-105-70-156.5-89t-68.5-19q-28 0-28 35 0 47 34 94t79.5 77 88 49 64.5 19 22-15q0-37-87.5-90t-145.5-70q-34-49-34-76z"/><path transform="translate(62.356 12.95) scale(.014 -.014)" d="m338 149 8-9q-46-28-75-47t-44-19q-22 0-22 19 0 14 15.5 55.5t21.5 58.5l-3 3q-4 0-9-4-101-81-130.5-109t-57-60-30-35-3.5-4q-3-3-20.5-3t-17.5 3q2 3 25 28 56 61 101 117l-29-17q-46-28-67-42l-4 11 63 40q34 22 58.5 46t33.5 39 16 25 13 10 19-7q0-10-16-35t-32-45l-16-19q0-2 1-2 3 0 7 3.5t33.5 28 51.5 42 50.5 33.5 41.5 16 13-6q0-8-49-34-11-6-33.5-57.5t-22.5-75.5q0-5 9.5-5t37.5 18z"/><path transform="translate(65.926 12.95) scale(.014 -.014)" d="m318 426-145-169q79 53 243 220t164 199q0 5-5 5t-11-3q-65-36-158-147-4-4-41.5-49.5t-46.5-55.5zm286 261q0-47-173.5-219.5t-290.5-249.5l-16-19q-25-23-101-125-6-10-6-11t1.5-1 11.5 6.5 75 53.5q150 109 219 143 6 2 8 2 11 0 11-18.5t-29-57-64-71.5q-94-89-94-100 0-6 4-6 56 18 98 43l98 62 1-13q-105-70-156.5-89t-66-19-14.5 9q0 18 51 72t101.5 105.5 50.5 61.5q0 2-3 2-13 0-124-75t-166.5-117.5-61.5-49-31-9.5q-10 0-10 5t14 24q72 88 232 274.5t172 198 34.5 34.5 40 40.5 45 43 47.5 42.5q51 42 75 42 7 0 12-4.5t5-9.5z"/><path transform="translate(70.434 12.95) scale(.014 -.014)" d="m238 225v1q-20-10-44-47.5t-28-64.5q72 74 72 111zm-213-209q38 0 123 80v5q0 31 30.5 76.5t55.5 58.5q-3 3-8 3-37 0-122.5-85t-85.5-132q0-6 7-6zm-31 14q0 75 86.5 149.5t143.5 74.5q28 0 28-25 0-71-76-142 6-2 12-2 28 0 81 35l5-10q-64-43-97-43-13 0-19 5-39-32-82-52t-62.5-20-19.5 30z"/><path transform="translate(73.682 12.95) scale(.014 -.014)" d="m75 91q0 4-2 4-14 0-24.5-23t-10.5-38.5 3-20.5q34 62 34 78zm495 592q0 2-3 2-35 0-405-450 101 73 254.5 235.5t153.5 212.5zm-812-986q0-3 4-3 50 0 130.5 98t141.5 208q-10 4-10 29.5t21 60.5q-287-359-287-393zm828 1011q9 0 9-8 0-41-56-116t-137-152q-175-170-279-245l-64-80q8 6 14 6 16 0 16-23t-21-71q37 18 79 44l87 56 1-13q-118-78-174-100-53-112-148-219.5t-165-107.5q-11 0-11 13 0 37 189 288t400 489.5 260 238.5z"/><path transform="translate(76.482 12.95) scale(.014 -.014)" d="m75 91q0 4-2 4-14 0-24.5-23t-10.5-38.5 3-20.5q34 62 34 78zm495 592q0 2-3 2-35 0-405-450 101 73 254.5 235.5t153.5 212.5zm-812-986q0-3 4-3 50 0 130.5 98t141.5 208q-10 4-10 29.5t21 60.5q-287-359-287-393zm828 1011q9 0 9-8 0-41-56-116t-137-152q-175-170-279-245l-64-80q8 6 14 6 16 0 16-23t-21-71q37 18 79 44l87 56 1-13q-118-78-174-100-53-112-148-219.5t-165-107.5q-11 0-11 13 0 37 189 288t400 489.5 260 238.5z"/></svg>