<svg width="43.887" height="14" viewBox="0 0 43.887 14" xmlns="http://www.w3.org/2000/svg"><path transform="translate(0 9.2832) scale(.013672 -.013672)" d="m122 473q-5-39-7-95.5t-2-116.5q0-62 4.5-122t4.5-105q0-19-9-29.5t-22-10.5q-8 0-15.5 7.5t-9.5 23.5q-7 57-9.5 128t-2.5 143q0 53 2 101.5t6 89.5q2 15 9 22t18 7q13 0 23-10t10-27zm212-6q-1 3-1 9 0 17 9.5 26.5t20.5 9.5q9 0 18-7.5t11-21.5q8-49 10.5-103t2.5-110q0-24-1-55.5t-4-64-7.5-64-10.5-56-15-39.5-20-15-19.5 8-8.5 25q0 8 1 12 11 51 17 99t9 96q-60-12-125-12-35 0-54 4t-19 27q0 11 10 18.5t28 7.5q8-1 16-1t16 0q32 0 65 3.5t65 11.5q0 54-4 102t-10 90z"/><path transform="translate(6.3164 9.2832) scale(.013672 -.013672)" d="m116 285q-2-23-3.5-48t-1.5-51q0-37 3.5-74t3.5-72q0-20-9.5-30t-20.5-10q-10 0-16.5 7.5t-7.5 23.5q-3 45-5.5 82.5t-2.5 75.5q0 15-0.5 38.5t2 45 10 37 23.5 15.5q10 0 17.5-9t7.5-24zm-48 228q4 2 7 2 4 0 7.5-1t5.5-1q5 1 9 1.5t9 0.5q33 0 49.5-22t16.5-47q0-12-5.5-26t-16-25.5-26.5-19.5-37-8q-14 0-26 7t-21 17.5-14 24-5 26.5q0 20 13.5 42t33.5 29zm24-52h-8q-5-2-7-7t-2-10q0-9 7-16.5t13-7.5q15 0 20 9.5t5 17.5q-5 16-20 16-2 0-8-2z"/><path transform="translate(12.688 9.2832) scale(.013672 -.013672)" d="m280 239q-14-17-32-17t-36 25-35 56l-39 72q-3 6-3 12 0 13 9.5 23t20.5 10q10 0 22-18.5t23.5-41 22.5-41 20-18.5q6 0 11 8 42 60 67.5 95.5t40 55 20 27 8.5 10.5q3 12 11.5 18.5t17.5 6.5 18-7 11-22q9-54 12.5-117.5t3.5-129.5q0-36-2.5-82.5t-8.5-88-17-70.5-27-29q-11 0-19.5 8t-8.5 25q0 8 1 12 13 57 18.5 118.5t5.5 118.5q0 44-2 84t-4 75l-71-101q-19-25-34.5-46t-24.5-31zm-158 220q-5-39-7-93t-2-114 3.5-118.5 3.5-103.5q0-20-8.5-29t-19.5-9q-9 0-16.5 8t-9.5 25q-7 57-9.5 125t-2.5 134q0 50 1.5 96t6.5 87q1 18 11.5 25t21.5 7 19-9.5 8-24.5z"/><path transform="translate(19.879 9.2832) scale(.013672 -.013672)" d="m296 49q17 0 25-7.5t8-19.5q0-13-6.5-19.5t-16-9.5-21-3-20.5 0q-42 0-83.5 10.5t-74.5 31.5-54 52-21 71q0 43 23.5 74.5t58.5 52.5 75 31 74 10q17 0 34.5-4t31.5-14 23-27 9-43q0-31-20-53t-48-37-59-22-52-8q-11 0-16.5 8.5t-5.5 19.5q0 9 5 18.5t17 9.5q19 0 40.5 4t40 12.5 30.5 21.5 12 31q0 27-41 27-27 0-57-7.5t-55-22.5-41.5-37.5-16.5-52.5q0-23 14.5-41t38-31.5 54-20.5 63.5-7q8 0 16 0.5t16 1.5z"/><path transform="translate(25.184 9.2832) scale(.013672 -.013672)" d="m148 53q11-3 17-11.5t6-18.5q0-12-7-21.5t-20-9.5q-7 0-14 3-41 10-61 28.5t-28 44.5-8 60.5 0 78.5q0 35 1 72t3 73.5 5 70.5 6 62q1 15 8.5 22t17.5 7q11 0 21.5-8t10.5-25q-3-29-5.5-70.5t-4-87.5-2.5-92-1-83q0-20 0.5-35.5t6-27 16.5-19.5 32-13z"/><path transform="translate(27.973 9.2832) scale(.013672 -.013672)" d="m140 323q12 5 18 5 8 0 16-5 7 1 15.5 2.5t14.5 1.5q33 0 60-13.5t46.5-36.5 30.5-54 11-66q0-31-11.5-59.5t-32-50.5-47.5-35-57-13q-37 0-68 12t-53 33-34.5 50-12.5 63q0 27 6 55.5t19 52.5 32.5 40 46.5 18zm12-52q-21-3-32-15.5t-16.5-29.5-6.5-35.5-1-33.5q0-18 6-36.5t19.5-33 33.5-23.5 49-9q22 0 39.5 8.5t29 23 17.5 32.5 6 38q0 52-25 85.5t-67 36.5h-19q-8 0-17-4t-16-4z"/><path transform="translate(33.277 9.2832) scale(.013672 -.013672)" d="m276 479q-1 3-1 8 0 14 8 22t18 8q11 0 21-8.5t12-25.5q5-48 7-105t2-117-4-117.5-9-108.5q-2-14-10-20t-16-6q-6 0-14 4-15-6-41-10t-51-4q-33 0-63 6t-52.5 21-35.5 40.5-13 64.5q0 32 9 65.5t28.5 61 50 45 72.5 17.5q11 0 23-1t22-5 16.5-12 6.5-21q0-10-5-16.5t-12-6.5q-12 0-23 4t-22 4q-44 0-75-33.5t-31-101.5q0-35 24.5-55.5t81.5-20.5q18 0 39 4t41 6q3 45 4 102t1 114-2.5 109-6.5 89z"/><path transform="translate(38.555 9.2832) scale(.013672 -.013672)" d="m100 247q-8-29-8-50 0-27 10.5-49t29-37 43.5-23 53-8q3 0 6 0.5t6 0.5q8 0 15.5-8.5t7.5-19.5q0-14-7.5-21t-29.5-7q-52 0-88 15t-59 40.5-33.5 58-10.5 67.5q0 10 0.5 22.5t3.5 23 9.5 18 18.5 7.5q10 0 21.5-6.5t11.5-19.5zm234 34q5-55 7.5-106t2.5-102q0-29 0-56.5t-6-54.5-22-53.5-48-52.5q-14-11-31.5-23t-36.5-21.5-38-15.5-36-6q-12 0-19.5 11t-7.5 24q0 9 4.5 16.5t14.5 9.5q27 7 55.5 21t52 33 39.5 41.5 19 46.5q3 27 3 61-1 19-1 39.5t-2 40.5l-10 147q0 2-0.5 2.5t-0.5 2.5q0 12 8.5 19.5t19.5 7.5 21-7.5 12-24.5z"/></svg>