<svg width="89.068" height="20.972" viewBox="0 0 89.068 20.972" xmlns="http://www.w3.org/2000/svg"><path transform="translate(0 15.75) scale(.014 -.014)" d="M566 0H485V305H158V0H77V674H158V378H485V674H566Z"/><path transform="translate(9.002 15.75) scale(.014 -.014)" d="m156 0h-79v507h79zm-3 703q15-15 15-37t-15-36.5-37-14.5-36.5 14.5-14.5 36.5 14.5 37 36.5 15 37-15z"/><path transform="translate(12.264 15.75) scale(.014 -.014)" d="m473 0h-79v328q0 56-28.5 85.5t-74.5 29.5q-57 0-98.5-44t-41.5-122v-277h-78v507h78v-88q45 95 160 95 74 0 118-45t44-120z"/><path transform="translate(19.824 15.75) scale(.014 -.014)" d="m125 248q0-82 40-133t101-51q62 0 105.5 46t43.5 147q0 96-45 141t-99 45q-63 0-104.5-50.5t-41.5-144.5zm369-248h-79v75q-54-83-156-83-101 0-158.5 75t-57.5 182q0 119 61 192.5t157 73.5q99 0 154-85v277h79z"/><path transform="translate(31.178 15.75) scale(.014 -.014)" d="m366 0h-102l-228 674h87l88-267 105-334q39 126 108 334l90 267h87z"/><path transform="translate(40.096 15.75) scale(.014 -.014)" d="m228 61q54 0 86 30.5t32 77.5v65h-88q-64 0-96-25t-32-63 25-61.5 73-23.5zm119-1q-39-65-142-65-71 0-114.5 42t-43.5 106q0 73 55.5 113.5t151.5 40.5h92v26q0 60-27 90.5t-91 30.5q-81 0-144-43v79q57 35 150 35 191 0 191-194v-321h-78z"/><path transform="translate(46.984 15.75) scale(.014 -.014)" d="m125 248q0-82 40-133t101-51q62 0 105.5 46t43.5 147q0 96-45 141t-99 45q-63 0-104.5-50.5t-41.5-144.5zm369-248h-79v75q-54-83-156-83-101 0-158.5 75t-57.5 182q0 119 61 192.5t157 73.5q99 0 154-85v277h79z"/><path transform="translate(54.922 15.75) scale(.014 -.014)" d="m519 252q0-113-64-187t-176-74q-109 0-172.5 73.5t-63.5 185.5q0 113 65.5 188.5t170.5 75.5q115 0 177.5-74t62.5-188zm-394-1q0-79 42-134.5t112-55.5q76 0 117 54.5t41 135.5q0 84-39 138.5t-119 54.5q-72 0-113-56t-41-137z"/><path transform="translate(62.79 15.75) scale(.014 -.014)" d="m125 248q0-82 40-133t101-51q62 0 105.5 46t43.5 147q0 96-45 141t-99 45q-63 0-104.5-50.5t-41.5-144.5zm369-248h-79v75q-54-83-156-83-101 0-158.5 75t-57.5 182q0 119 61 192.5t157 73.5q99 0 154-85v277h79z"/><path transform="translate(70.728 15.75) scale(.014 -.014)" d="m228 61q54 0 86 30.5t32 77.5v65h-88q-64 0-96-25t-32-63 25-61.5 73-23.5zm119-1q-39-65-142-65-71 0-114.5 42t-43.5 106q0 73 55.5 113.5t151.5 40.5h92v26q0 60-27 90.5t-91 30.5q-81 0-144-43v79q57 35 150 35 191 0 191-194v-321h-78z"/><path transform="translate(77.616 15.75) scale(.014 -.014)" d="m151 0h-79l1 507h78v-89q40 94 138 94 18 0 28-2v-78q-21 7-43 7-53 0-88-49t-35-113z"/><path transform="translate(82.18 15.75) scale(.014 -.014)" d="m228 61q54 0 86 30.5t32 77.5v65h-88q-64 0-96-25t-32-63 25-61.5 73-23.5zm119-1q-39-65-142-65-71 0-114.5 42t-43.5 106q0 73 55.5 113.5t151.5 40.5h92v26q0 60-27 90.5t-91 30.5q-81 0-144-43v79q57 35 150 35 191 0 191-194v-321h-78z"/></svg>