<svg width="31.728" height="25.616" viewBox="0 0 31.728 25.616" xmlns="http://www.w3.org/2000/svg"><path transform="translate(0 16.88) scale(.016 -.016)" d="M485 674H566V0H485V305H158V0H77V674H158V378H485Z"/><path transform="translate(10.288 16.88) scale(.016 -.016)" d="m77 0v507h79v-507zm2.5 629.5q-14.5 14.5-14.5 36.5t14.5 37 36.5 15 37-15 15-37-15-36.5-37-14.5-36.5 14.5z"/><path transform="translate(14.016 16.88) scale(.016 -.016)" d="m151 507v-88q45 95 160 95 74 0 118-45t44-120v-349h-79v328q0 56-28.5 85.5t-74.5 29.5q-57 0-98.5-44t-41.5-122v-277h-78v507z"/><path transform="translate(22.656 16.88) scale(.016 -.016)" d="m266 64q62 0 105.5 46t43.5 147q0 96-45 141t-99 45q-63 0-104.5-50.5t-41.5-144.5q0-82 40-133t101-51zm149 643h79v-707h-79v75q-54-83-156-83-101 0-158.5 75t-57.5 182q0 119 61 192.5t157 73.5q99 0 154-85z"/></svg>