<svg width="81.28" height="25.872" viewBox="0 0 81.28 25.872" xmlns="http://www.w3.org/2000/svg"><path transform="translate(0 17.856) scale(.016 -.016)" d="M566 0H485V305H158V0H77V674H158V378H485V674H566Z"/><path transform="translate(10.288 17.856) scale(.016 -.016)" d="m156 0h-79v507h79zm-3 703q15-15 15-37t-15-36.5-37-14.5-36.5 14.5-14.5 36.5 14.5 37 36.5 15 37-15z"/><path transform="translate(14.016 17.856) scale(.016 -.016)" d="m473 0h-79v328q0 56-28.5 85.5t-74.5 29.5q-57 0-98.5-44t-41.5-122v-277h-78v507h78v-88q45 95 160 95 74 0 118-45t44-120z"/><path transform="translate(22.656 17.856) scale(.016 -.016)" d="m125 248q0-82 40-133t101-51q62 0 105.5 46t43.5 147q0 96-45 141t-99 45q-63 0-104.5-50.5t-41.5-144.5zm369-248h-79v75q-54-83-156-83-101 0-158.5 75t-57.5 182q0 119 61 192.5t157 73.5q99 0 154-85v277h79z"/><path transform="translate(35.344 17.856) scale(.016 -.016)" d="m467 179q0-89-61-137.5t-157-48.5q-106 0-180 43v87q73-55 178-55 63 0 99 28t36 81q0 22-8.5 39.5t-28 32-37 24-47.5 23.5q-6 3-18 8-43 19-65.5 31t-53 35.5-44.5 54.5-14 72q0 86 61.5 134.5t154.5 48.5q87 0 148-31v-85q-61 40-146 40-61 0-97-28.5t-36-74.5q0-24 9.5-43t33.5-35.5 41-25 53-24.5q34-15 52-23.5t46.5-27 43-36 26-46 11.5-61.5z"/><path transform="translate(43.728 17.856) scale(.016 -.016)" d="m156 0h-79v507h79zm-3 703q15-15 15-37t-15-36.5-37-14.5-36.5 14.5-14.5 36.5 14.5 37 36.5 15 37-15z"/><path transform="translate(47.456 17.856) scale(.016 -.016)" d="m156 0h-79v707h79z"/><path transform="translate(51.184 17.856) scale(.016 -.016)" d="m156 0h-79v507h79zm-3 703q15-15 15-37t-15-36.5-37-14.5-36.5 14.5-14.5 36.5 14.5 37 36.5 15 37-15z"/><path transform="translate(54.912 17.856) scale(.016 -.016)" d="m482 41q0-116-64-174.5t-165-58.5q-92 0-157 31v79q64-37 150-37 73 0 115 39t42 122v57q-50-86-149-86-87 0-148.5 64t-61.5 178q0 113 57 186t149 73q104 0 153-91v84h79zm-356 216q0-85 42-129.5t95-44.5q55 0 97.5 42.5t42.5 126.5q0 97-41 144t-95 47q-65 0-103-51.5t-38-134.5z"/><path transform="translate(63.696 17.856) scale(.016 -.016)" d="m467 0h-79v88q-40-94-159-94-75 0-118.5 44.5t-43.5 119.5v349h79v-329q0-55 28-84t76-29q63 0 100.5 44t37.5 119v279h79z"/><path transform="translate(72.336 17.856) scale(.016 -.016)" d="m151 0h-79l1 507h78v-89q40 94 138 94 18 0 28-2v-78q-21 7-43 7-53 0-88-49t-35-113z"/><path transform="translate(77.552 17.856) scale(.016 -.016)" d="m156 0h-79v507h79zm-3 703q15-15 15-37t-15-36.5-37-14.5-36.5 14.5-14.5 36.5 14.5 37 36.5 15 37-15z"/></svg>