<svg width="44.842" height="15.344" viewBox="0 0 44.842 15.344" xmlns="http://www.w3.org/2000/svg"><path transform="translate(0 12.488) scale(.014 -.014)" d="M73 0V700H161V404H360V700H448V0H360V338H161V0Z"/><path transform="translate(7.294 12.488) scale(.014 -.014)" d="m40 127v266q0 63 38.5 98.5t108.5 35.5 108.5-35.5 38.5-98.5v-266q0-63-38.5-98.5t-108.5-35.5-108.5 35.5-38.5 98.5zm216 0v266q0 35-18.5 53.5t-50.5 18.5-50.5-18.5-18.5-53.5v-266q0-35 18.5-53.5t50.5-18.5 50.5 18.5 18.5 53.5z"/><path transform="translate(12.53 12.488) scale(.014 -.014)" d="m60 520h62l9-29 41 12q42 13 66.5 18.5t46.5 5.5q43 0 60-38 28 10 79 24t75 14q36 0 53.5-25t17.5-65v-437h-80v411q0 29-4 40.5t-20 11.5q-8 0-110-32v-431h-80v411q0 29-4 40.5t-20 11.5q-8 0-112-32v-431h-80z"/><path transform="translate(21.21 12.488) scale(.014 -.014)" d="m44 122v266q0 65 36 102t107 37 106.5-37 35.5-102v-46q0-42-24-63.5t-63-32.5l-118-33v-98q0-24 14.5-39.5t37.5-15.5h108v-60h-120q-55 0-87.5 33t-32.5 89zm141 171q33 9 44.5 13.5t15.5 13.5 4 30v55q0 32-16.5 47t-45.5 15q-28 0-45.5-16t-17.5-46v-129z"/><path transform="translate(26.096 12.488) scale(.014 -.014)" d="m60 520h62l9-29 41 12q42 13 66.5 18.5t46.5 5.5q36 0 53-25t17-65v-437h-80v411q0 29-4 40.5t-20 11.5q-8 0-111-32v-431h-80z"/><path transform="translate(31.78 12.488) scale(.014 -.014)" d="m34 137v52q0 47 23.5 79t58.5 45l124 46v47q0 24-14.5 39.5t-37.5 15.5h-113v59h120q55 0 87.5-32.5t32.5-88.5v-399h-149q-36 0-66.5 18t-48 49-17.5 70zm206-76v235l-88-33q-26-10-36.5-27t-10.5-54v-56q0-27 20-46t48-19z"/><path transform="translate(36.89 12.488) scale(.014 -.014)" d="m78 605v80h80v-80zm-73-705h24q23 0 36.5 15.5t13.5 39.5v565h80v-558q0-56-32-89t-87-33h-35z"/><path transform="translate(39.956 12.488) scale(.014 -.014)" d="m44 122v266q0 65 36 102t107 37 106.5-37 35.5-102v-46q0-42-24-63.5t-63-32.5l-118-33v-98q0-24 14.5-39.5t37.5-15.5h108v-60h-120q-55 0-87.5 33t-32.5 89zm141 171q33 9 44.5 13.5t15.5 13.5 4 30v55q0 32-16.5 47t-45.5 15q-28 0-45.5-16t-17.5-46v-129z"/></svg>