<svg width="153.41" height="34.266" viewBox="0 0 153.41 34.266" xmlns="http://www.w3.org/2000/svg"><path transform="translate(0 20.734) scale(.015625 -.015625)" d="m963 371q-51-23-104.5-37.5t-107.5-27.5q-2 0-10.5-2t-17.5-4.5-16.5-4-7.5-1.5q-12 4-23.5 0.5t-23-8.5-24.5-7.5-29 4.5q-3 1-11-1.5t-16-6.5-14-9.5-7-9.5l6-6q1-3-3-11.5t-9-18-10.5-17.5-8.5-10q1-9-4.5-21.5t-12-26.5-12-29-5.5-28q0-4 1-8t0-7l-1-2q-10-8-14.5-20.5t-7-26-6-26.5-11.5-23v-1l-1-1q-13-6-21.5-2t-15 12-12 18.5-12.5 18.5q-4 13-3 22.5t9 19.5l2 1q-6 8-3.5 14.5t6 12.5 5 12.5-6.5 15.5l2 2q13 13 14 29.5t-1.5 33.5-3 34 9.5 31l1 1q1 6-8 16t-14 15q-6-15-15.5-15.5t-21 2.5-22.5 5-20-7l-5-4-2 4q-4 9-10.5 9.5t-14.5-0.5q-12-1-22.5-1.5t-21.5-0.5q-6 5-13.5 4t-15-2-15-0.5-14.5 8.5q-7-3-22-23.5t-31.5-45.5-31-48.5-19.5-32.5q-4-6-9.5-15t-11.5-18.5-11-18-8-14.5l1-3q0-10-3-15.5t-7.5-9-8.5-6-7-5.5q-8 0-12-4t-7-9-7.5-9-14.5-4q-4-5-5-7t-3-8q-2-7-3.5-10t-3-4.5-3.5-3-4-4.5q-6-1-9 2t-6 7.5-5.5 9-6.5 6.5l1 3q20 59 48 112.5t60 106.5q2 4 3 8t3 8q5 13 10.5 25t13.5 23q7 11 12.5 21t10.5 21l-2 2q-32 26-55.5 53.5t-44.5 62.5q-5 9-10 18.5t-10 17.5l-1 1q0 20 3 40t18 35l1 1v1q5 10 11 15t12.5 8 13.5 5.5 14 8.5v1q23 10 45 17t47-6l2 1q9 5 22 5.5t23 0.5q6-3 12.5-7.5t13-8.5 13.5-6 13 1h1v1q10 10 16 28.5t12.5 39.5 14.5 41.5 22 35.5q0 3 4 13.5t8.5 24 7 27-0.5 22.5l9-1q4 4 5 7l-1 3q-4 4-3 10t3 11h-1l-1 4q3 1 11.5 4t17.5 7 16.5 7 8.5 3q14-8 15.5-18t-1.5-24q-1-7-0.5-11.5t0.5-10.5q0-10-5-24.5t-11.5-30.5-14.5-30-14-23v-6q0-21-6-43.5t-15-44.5-19.5-43-20.5-40q-7-12-15-27.5t-15.5-31.5-13-32.5-7.5-29.5v-1l-25-47q4-5 12.5-8.5t18-6.5 19-4.5 16.5-1.5q11 0 18.5-1.5t15.5-10.5l2-2h2q8 2 14 2t14 0q8-2 15.5-1t15.5 2l-1-7q5-5 8-7 5 8 12 16 4-6 7-9 3 2 7.5 8t6.5 6l1 1 1-1q18-6 33-4t33 2q3 7 8.5 11t10 8.5 5.5 9.5-5 14l-1 2t3.5 6 7.5 13.5 7.5 13.5 4.5 8q20 33 35 67.5t15 73.5v7q2 1 4 1 15 6 16 16.5t-1 22.5 0.5 24 20.5 21l2 1 1 2q6 15 10.5 30.5t10.5 30.5q19 45 28 97 2 12 9.5 21.5t15.5 19 14.5 20 6.5 23.5q0 8-2 11v3l2 1q20 10 31 25t11 38q0 3-0.5 11t-2.5 10q9 6 19 16l2-1q19-14 23.5-28.5t2-29.5-7.5-31-5-33l-1-1q-15-26-24-59t-9-64q-11 0-13.5-5t-4-12.5-4-15.5-12.5-14l2-3q0-2 0.5-3t0.5-3q0-6-3-10.5t-6-9-3.5-9.5 4.5-11q4-6 5-7h-11q-16-31-29-63t-24-65q-9-28-19-55t-24-53v-3q9-17 1.5-27t-16-17.5-11.5-14.5 14-18q13 13 24 9t27-8q3 3 5.5 5.5t8.5 0.5q1-1 2-1.5t2-1.5q6 9 11 10t10-1 10-4 10 1q3 2 4 6.5t3 8.5q15-15 25.5-14.5t20 6 19 10.5 22.5-1q11 0 22.5 2.5t22.5 4.5q29 5 57 8t57-2zm-769 192q-9 0-16.5-1t-13.5-7q-1 1-2 1-39 11-75-4t-62-43l-2-8q-1-3-1-6.5t0-5.5q0-19 9-35 6-12 14.5-20t19-15 21-14 19.5-17q20 0 27.5 10.5t11 25 7.5 29.5 17 24q1 0 1 0.5t1 0.5q-4 10 0.5 20t11 20 11 21 1.5 24z"/><path transform="translate(12.484 20.734) scale(.015625 -.015625)" d="m673 314q4-15-3-25.5t-18.5-18.5-25-14.5-22.5-14.5q-45-10-81.5-14.5t-80.5-11.5q-13-2-24.5 0.5t-23.5 1.5q-7 0-13 0.5t-12-0.5q-23-2-30-15.5t-11.5-31-11-33-27.5-21.5q-2-5 1.5-9t5.5-7q-17-5-22.5-18t-9.5-26-11.5-22-28.5-6q-31-33-73-53.5t-87-26.5q-8 4-15.5 10t-15 11-16 7.5-19.5 0.5q-1 21-8.5 39t-19.5 34q-2 18 4.5 33.5t13.5 30.5 11.5 30.5-1.5 35.5q10 6 13.5 14t5 16.5 4.5 16 14 12.5q-8 24 2.5 35.5t25.5 20.5 28 20 10 33q6 6 14 10t15.5 7.5 14.5 7.5 13 11q-7 5-6.5 10t2.5 10.5 4.5 11.5-0.5 12q27-4 47.5 7.5t39 23.5 37.5 17 44-12q2-7 6.5-20.5t9-27.5 8.5-27 5-19q0-5 0-16t0-23.5 0-23.5 0-17q29-17 58-20.5t58 13.5q11-10 21-5.5t19.5 10.5 19.5 6.5 20-16.5q14 13 29 16.5t31 4 31.5 2.5 30.5 13zm-384-17q0 15 5 32t8 33.5-0.5 31.5-19.5 27q-11-6-18-16.5t-14-21-16.5-17.5-24.5-4q-5-12 0-19.5t12-14 13.5-13.5 4.5-18q4-3 11-5.5t14.5-3 14.5 1.5 10 7zm-7-80q-20 0-34.5 9.5t-29 21.5-30 22.5-37.5 12.5q-9-12-21-22.5t-21-22.5-12.5-26 4.5-32q-23-11-31-31.5t-10.5-44.5-4.5-48-13-43l22 15q4-2 6.5-6t0.5-9q8 8 18 12.5t20.5 7 21 4.5 20.5 6q25-14 36-6t18 24 15 33.5 26 21.5l-7 7q17 21 30.5 43.5t12.5 50.5z"/><path transform="translate(21.109 20.734) scale(.015625 -.015625)" d="m1104 174q-9-8-24.5-20.5t-20.5-22.5q-6-10-9.5-18t-8-13.5-12-8.5-20.5-3q0-3-10.5-12.5t-22.5-20-22-20-10-12.5l-9 5q-2 1-11.5-0.5t-22-6-24.5-12.5-19-21l-4 1q-15 4-30.5 1.5t-30.5-2.5q-32-2-47 9.5t-32 43.5q-4 7-7 15t-5 16v4q14 8 15 21.5t-1 28.5-2.5 29 10.5 23q-6 16 1.5 30.5t14.5 27.5 7 25-22 25q-23-9-43.5-22.5t-41-28-41-28.5-43.5-23q-21-23-44-39.5t-44.5-34.5-39-40.5-26.5-55.5q-5 6-10 8t-13 4q-11 3-16 6.5t-13 10.5l1 2q9 26 21 53t12 54q0 10-2 18.5t-2 18.5q0 18 6 33t13.5 28 14 25.5 6.5 26.5q0 11-5 22t-13 19q-15 1-28-3.5t-26-10.5-27-10.5-30-3.5q-21-21-43-41.5t-44-40.5q-46-41-89.5-85t-69.5-100q-5-11-8.5-22.5t-8.5-22.5q0-2-2-4h-5q-11 0-14.5-6t-5-13.5-3.5-14.5-9-9q-8-2-15.5 3t-12.5 10l-1 1q-10 16-11 33t3.5 33.5 13 32.5 16.5 30q12 21 22.5 43.5t10.5 47.5q0 11-2.5 19.5t-4.5 17.5l22 15q-5 7-5.5 12.5t0 10.5 1 9.5-1.5 9.5v3l8 9q-2 33-2 62t-12 61q14 13 27 6.5t26-14.5v-1l1-1q8-12 14-29t9.5-35.5 5.5-36.5 2-32q0-4-0.5-7.5t-0.5-7.5l-6-6q5-5 11-10t13-4q6 18 19 23.5t26.5 8.5 24 8.5 10.5 23.5q0 4-1 6l2 2q28 28 57.5 50.5t62 33.5 68 9 76.5-22l2-1 11-41-7-7q10-14 7.5-32.5t-8.5-36.5-11-33.5 1-22.5q5-7 18.5-6t21.5 2q8 11 22.5 19t29 15 25.5 14.5 12 16.5q16-3 26 1.5t16 13.5 11 19.5 11.5 20 16.5 14.5 27 3q23 23 54.5 33.5t63.5 11.5q23 1 32-13.5t9-34.5q0-26-12-50t-27-49-27-52-12-60q0-3 0-10.5t1-15 2.5-14 4.5-8.5q4-2 7-3l-5-4q23-3 41-8.5t39 3.5q6 2 12.5 3t12.5 3q9 1 11 7.5t7.5 13 18 12 41.5 5.5v16q20 6 34 15.5t27.5 17.5 30 12 41.5 0z"/><path transform="translate(37.562 20.734) scale(.015625 -.015625)" d="m741 306q-9-9-13.5-14t-8-9.5-8-9.5-13.5-15q-8-8-15-17t-16-16q-12 3-18.5-3t-12-13.5-10-14-11.5-5.5q-24-13-48-22.5t-46-27.5l-8 8-104-50q-5-2-10-6t-10-7q-22-12-45.5-21.5t-46.5-17.5l-13-4q8-20 0-28t-23-11.5-33-4.5-28-7q-12 2-24.5 1.5t-25.5-2.5q-14-2-26-2t-26 3h-2q-17-8-29.5-3.5t-22.5 15-18.5 25-17.5 26.5q-6 8-15 23t-15.5 32-8 34.5 7.5 30.5 14.5 28 5.5 35q0 7-0.5 13t-0.5 13q5 0 11-0.5t11.5 0 9 4 3.5 12.5q0 5-3.5 8t-4.5 6q6 9 11.5 14.5t9.5 11 6 13-1 20.5q12 21 28.5 37.5t34.5 31 37 28.5 36 30q19-8 30.5 0t20.5 17.5 18 15.5 24-5l2-2q27 27 54.5 24t47-18 25.5-34.5-11-26.5q11-11 11-26t-8-26q-9-12-15.5-24.5t-13.5-26.5q-10-23-22-43.5t-34-34.5q-18 5-24.5-4t-9.5-19.5-7-16.5-17 4l-2 2-2-2q-8-8-12.5-18t-12.5-15q-9 3-19 5t-19 4q0-21-8-33t-20.5-19.5-28.5-12-31.5-11-29-16-21.5-26.5q10-11 25-12.5t31 0 31.5 1.5 27.5-8l1-1 1 1q24 3 46.5 11.5t44 18 44 18 46.5 12.5q5-8 13.5-9t16.5 1l1 2q2 7 4 12.5t6 12.5q7 11 17 17t21.5 9 24.5 4 26 3h2l1 3q4 12 10.5 16.5t14 6.5 16 3 16.5 6q18-6 30 4t23 21l8-10 3 4q15 14 22.5 21t14.5 12.5 16.5 11 26.5 16.5q14 9 27.5 18t26.5 20q5-2 5-7.5t0-10.5q-1-2-1.5-6t1.5-6zm-414 125q-1 1-1.5 1t-1.5 1q-21 11-35 10.5t-25.5-8-21-19-20-21-24.5-14.5-34 1q-3-16-5.5-31.5t-3.5-31.5q-17-6-26.5-17t-16-24-12-27.5-14.5-27.5l4-5q4 2 9-3t7-7q11 16 29.5 27t38 20.5 37.5 20.5 27 29q32 9 48 36t27 56q2 6 7.5 17.5t6.5 16.5z"/><path transform="translate(47.062 20.734) scale(.015625 -.015625)" d="m1104 174q-9-8-24.5-20.5t-20.5-22.5q-6-10-9.5-18t-8-13.5-12-8.5-20.5-3q0-3-10.5-12.5t-22.5-20-22-20-10-12.5l-9 5q-2 1-11.5-0.5t-22-6-24.5-12.5-19-21l-4 1q-15 4-30.5 1.5t-30.5-2.5q-32-2-47 9.5t-32 43.5q-4 7-7 15t-5 16v4q14 8 15 21.5t-1 28.5-2.5 29 10.5 23q-6 16 1.5 30.5t14.5 27.5 7 25-22 25q-23-9-43.5-22.5t-41-28-41-28.5-43.5-23q-21-23-44-39.5t-44.5-34.5-39-40.5-26.5-55.5q-5 6-10 8t-13 4q-11 3-16 6.5t-13 10.5l1 2q9 26 21 53t12 54q0 10-2 18.5t-2 18.5q0 18 6 33t13.5 28 14 25.5 6.5 26.5q0 11-5 22t-13 19q-15 1-28-3.5t-26-10.5-27-10.5-30-3.5q-21-21-43-41.5t-44-40.5q-46-41-89.5-85t-69.5-100q-5-11-8.5-22.5t-8.5-22.5q0-2-2-4h-5q-11 0-14.5-6t-5-13.5-3.5-14.5-9-9q-8-2-15.5 3t-12.5 10l-1 1q-10 16-11 33t3.5 33.5 13 32.5 16.5 30q12 21 22.5 43.5t10.5 47.5q0 11-2.5 19.5t-4.5 17.5l22 15q-5 7-5.5 12.5t0 10.5 1 9.5-1.5 9.5v3l8 9q-2 33-2 62t-12 61q14 13 27 6.5t26-14.5v-1l1-1q8-12 14-29t9.5-35.5 5.5-36.5 2-32q0-4-0.5-7.5t-0.5-7.5l-6-6q5-5 11-10t13-4q6 18 19 23.5t26.5 8.5 24 8.5 10.5 23.5q0 4-1 6l2 2q28 28 57.5 50.5t62 33.5 68 9 76.5-22l2-1 11-41-7-7q10-14 7.5-32.5t-8.5-36.5-11-33.5 1-22.5q5-7 18.5-6t21.5 2q8 11 22.5 19t29 15 25.5 14.5 12 16.5q16-3 26 1.5t16 13.5 11 19.5 11.5 20 16.5 14.5 27 3q23 23 54.5 33.5t63.5 11.5q23 1 32-13.5t9-34.5q0-26-12-50t-27-49-27-52-12-60q0-3 0-10.5t1-15 2.5-14 4.5-8.5q4-2 7-3l-5-4q23-3 41-8.5t39 3.5q6 2 12.5 3t12.5 3q9 1 11 7.5t7.5 13 18 12 41.5 5.5v16q20 6 34 15.5t27.5 17.5 30 12 41.5 0z"/><path transform="translate(63.516 20.734) scale(.015625 -.015625)" d="m694 105q-14-24-21.5-38.5t-15-24-17-17-26.5-18.5q-11-10-22-17-9-7-17.5-12t-13.5-5q-2 0-4 0.5t-4 0.5q-6 0-11.5-0.5t-9.5 7.5q-3-3-5-7t-4-7.5-5.5-5.5-9.5 0l-5 6-15-13q-28 14-53.5 23.5t-45.5 22.5-34 33.5-20 56.5q-5 6-11 10.5t-14 2.5q-10-17-24-29t-28-26q-5-5-8-11t-8-11q-8-9-19-12.5t-22-6.5-20.5-10-13.5-24q-12 7-24 4-9-2-19-4.5t-19.5-3-18.5 2.5-16 13q-14-6-26 0.5t-22.5 18-20.5 24.5-19 19q-6 16 0.5 27.5t14 22 10.5 21-9 25.5q10 15 18 31.5t16.5 33 18 32 23.5 26.5q-6 7-6 13.5t3 13 7 13 6 12.5l29 14-7 24q11-2 16.5 1t8 9 4 13.5 4.5 13.5q5 9 15 13 21 16 41.5 34t41 35 42.5 32.5 48 26.5q18-3 28.5-11t16-19 8.5-24.5 6-26.5q5-17 12-29t24-20q-14-24-11-47.5t6-49.5q3-24-0.5-47t-29.5-41q-2-7-1-15t1-16-3-15-11-11q9-11 9.5-22t1-21 5-18 21.5-12q3-13 5.5-19.5t6-10.5 9.5-7.5 16-10.5q8-2 18 0t16-6q5 5 12 5.5t13-0.5l13-22q11 8 25 14t27 10q15 4 30 7zm-384 342q-9-8-22-16t-25.5-17-21.5-19.5-11-24.5q-23-4-32-19t-15-33-13-35.5-25-27.5q-6-4-11-4 1 0-6-4-11-8-19-20t-13.5-26-10-28.5-8.5-26.5q-14-2-21-6t-8.5-8.5 0.5-10.5 6-13q4-6 8.5-14t7.5-16 3.5-16-4.5-15q14-11 27-4.5t24 14.5q4 3 8.5 6.5t9.5 5.5q23-5 42 3t35 22 31 30 30 28l-8 8q18 5 25.5 13.5t9.5 19.5 0 23.5-3 26.5q-1 8-0.5 15.5t3.5 15.5q-8 23-2.5 44t15 40.5 18.5 39.5 9 42z"/><path transform="translate(73.891 20.734) scale(.015625 -.015625)" d="m772 218q-22-50-40-77.5t-39.5-45.5-49.5-33.5-69-43.5q-17-1-37-7.5t-34-17.5q-30 3-55 13t-47 32q-5 5-9 11t-9 11q-11 13-14 23t-5 26q-4 23-12 33t-31-10l-9 8-2-2q-9-7-14.5-12t-11-10.5-10.5-11.5-12-15q-12-15-26.5-31t-33.5-22q-3-3-5-5.5t-7-3.5q-6-2-14 1t-13 8q-11 0-19.5-5.5t-16-14-14-17.5-14.5-15q-16 6-29.5 2t-26.5-7.5-26-3-26 15.5q-6 30-10 55-4 21-7 40t-3 23q5 5 4.5 13.5t-2.5 14.5q-2 1-2 2t-2 2q5 4 7.5 10t7.5 10q-3 8-7 18t-4 20q3 8 5.5 9t11.5 3q-1 5-2.5 9.5t-0.5 9.5q0 10 4.5 17.5t9.5 15 9 16.5 4 21v5q15 0 20 8.5t6 19.5 1 22 6 16q4 4 7.5 3.5t8.5-0.5q6 7 8 10.5t-1 13.5q7 0 11 3t6.5 8 5 10 6.5 9q0 25 13 35t29.5 16.5 33 15.5 24.5 32q13-8 22-1.5t17 14 18 10 25-13.5q6 19 24.5 20t33.5-8v-1h1q16-3 24-15.5t13.5-28 12-30.5 18.5-24q6 26 11.5 53t18.5 51q9-11 19-4l-1 2q0 16 6.5 29t13 25.5 8 26-9.5 30.5q17 5 24.5 19t12 30.5 10 33.5 17.5 29q0 3-0.5 6t-0.5 6q1 8 6 14t11 12 10.5 13.5 3.5 18.5q10 13 18 34.5t17 40.5 21 28.5 31-1.5q4-12 3-21.5t-11-19.5q6-6 9-10-3-31-11.5-61.5t-16.5-59.5q2-2 4-4t4-4q-17-24-27.5-48t-18.5-52q-3-11-5.5-23t-6.5-22q-5-10-12-21.5t-12-22.5q-11-23-19.5-46.5t-16.5-47.5q-10-29-20.5-57t-25.5-55v-16q-1-11-7-15.5t-13.5-8-14.5-10-10-21.5v-1l1-1q10-22 4.5-40.5t-12.5-36-9.5-34.5 13.5-35q-1-20 8-31.5t21-19.5 24.5-14.5 18.5-16.5q10 10 21.5 15.5t23 8.5 23 5.5 22.5 6.5q26 7 36 17t10 13q1 14 10.5 18t22 5.5 25 4.5 18.5 15q11-1 19.5 7.5t15.5 17.5 14 15 15-1zm-411 154q-16 12-21.5 27.5t-9 31.5-9 30.5-21.5 24.5l-2 1q-1 0-11-2t-12-3q8-7 10-12t0.5-10-5-10.5-5.5-13.5q-2-2-8 1.5t-9 5.5q-14-21-39.5-27.5t-48.5-12.5q2-5 4-9t4-9q-30-20-43.5-48.5t-24-59-25-59-44.5-48.5q5-8 7-16t13-12q3-11 2.5-22.5t-2.5-22.5-2.5-22.5 2.5-23.5l2-2q31-11 48.5-2t31 23 29.5 26 45 6l4 6q-2 5-3 9t-1 9q1 11 6 17.5t13 14.5q7 8 13.5 17t12.5 19q6 9 14 15.5t21 1.5l19 72q1 5 9.5 9t15 9 8 13-11.5 21q2 4 3 10t3 11 5 8 10 1z"/><path transform="translate(84.672 20.734) scale(.015625 -.015625)" d="m741 306q-9-9-13.5-14t-8-9.5-8-9.5-13.5-15q-8-8-15-17t-16-16q-12 3-18.5-3t-12-13.5-10-14-11.5-5.5q-24-13-48-22.5t-46-27.5l-8 8-104-50q-5-2-10-6t-10-7q-22-12-45.5-21.5t-46.5-17.5l-13-4q8-20 0-28t-23-11.5-33-4.5-28-7q-12 2-24.5 1.5t-25.5-2.5q-14-2-26-2t-26 3h-2q-17-8-29.5-3.5t-22.5 15-18.5 25-17.5 26.5q-6 8-15 23t-15.5 32-8 34.5 7.5 30.5 14.5 28 5.5 35q0 7-0.5 13t-0.5 13q5 0 11-0.5t11.5 0 9 4 3.5 12.5q0 5-3.5 8t-4.5 6q6 9 11.5 14.5t9.5 11 6 13-1 20.5q12 21 28.5 37.5t34.5 31 37 28.5 36 30q19-8 30.5 0t20.5 17.5 18 15.5 24-5l2-2q27 27 54.5 24t47-18 25.5-34.5-11-26.5q11-11 11-26t-8-26q-9-12-15.5-24.5t-13.5-26.5q-10-23-22-43.5t-34-34.5q-18 5-24.5-4t-9.5-19.5-7-16.5-17 4l-2 2-2-2q-8-8-12.5-18t-12.5-15q-9 3-19 5t-19 4q0-21-8-33t-20.5-19.5-28.5-12-31.5-11-29-16-21.5-26.5q10-11 25-12.5t31 0 31.5 1.5 27.5-8l1-1 1 1q24 3 46.5 11.5t44 18 44 18 46.5 12.5q5-8 13.5-9t16.5 1l1 2q2 7 4 12.5t6 12.5q7 11 17 17t21.5 9 24.5 4 26 3h2l1 3q4 12 10.5 16.5t14 6.5 16 3 16.5 6q18-6 30 4t23 21l8-10 3 4q15 14 22.5 21t14.5 12.5 16.5 11 26.5 16.5q14 9 27.5 18t26.5 20q5-2 5-7.5t0-10.5q-1-2-1.5-6t1.5-6zm-414 125q-1 1-1.5 1t-1.5 1q-21 11-35 10.5t-25.5-8-21-19-20-21-24.5-14.5-34 1q-3-16-5.5-31.5t-3.5-31.5q-17-6-26.5-17t-16-24-12-27.5-14.5-27.5l4-5q4 2 9-3t7-7q11 16 29.5 27t38 20.5 37.5 20.5 27 29q32 9 48 36t27 56q2 6 7.5 17.5t6.5 16.5z"/><path transform="translate(99.766 20.734) scale(.015625 -.015625)" d="m1005 257q-2-27-10.5-40.5t-18-24.5-19-25-14.5-42q-33-13-48-30.5t-25.5-32.5-25-23-47.5-3q-5 6-10.5 11t-12.5 10q-8-21-20.5-28t-27.5-9.5-31-6.5-31-20q-38 5-60.5 17t-35.5 26.5-20.5 31-15.5 31.5-19.5 27.5-33.5 19.5q-10 3-16.5 1t-11.5-7-9.5-11.5-10.5-11.5l-11 11q-9-24-26.5-37.5t-40-20-47-8-46.5-1.5q-11-24-27-36t-35.5-18-40.5-9-43-9q-9 2-19.5-1t-21-6.5-21-5.5-17.5 2q-9 5-9 12t-5 13h-2q-21 2-34 13.5t-22.5 27.5-16.5 34-14 33q0 22-2.5 48.5t-0.5 53 11 49.5 30 37l3 2-11 9q13 11 15.5 21.5t1.5 25.5q7 11 15.5 19.5t17.5 16.5q25 26 45 54t20 66q0 5-0.5 9t-0.5 9q14 4 26.5 13.5t24.5 19 25 15.5 27 3q-2 6-4 11t-2 11q0 17 12.5 30t22.5 23q8 8 18 19.5t15 16.5l-6 6q15 1 22 9.5t13.5 17.5 14.5 16.5 24 7.5h3q8 16 24 28.5t33.5 24.5 34.5 25 26 32q15 5 26 13.5t21.5 16 23 13.5 30.5 7q5 5 13 13t13 8 6.5-3.5 3.5-6.5q6 5 16.5 3.5t21.5-6.5 21-11 16-9q25-62 6-127-5 0-11-0.5t-12-0.5q0 4 5 9t7 7q-12 6-18 16.5t-11 21-12.5 19-23.5 10.5q-22 3-41-7.5t-35-23-30-23-27-8.5q-6-12-13.5-20t-14-16-10-18 0.5-26q-36-34-73.5-65.5t-69.5-70.5l-11 11q0-7-4.5-12.5t-8.5-11.5-6.5-13.5 0.5-16.5q-8-5-13.5-11.5t-10.5-14.5q-6-9-12.5-16.5t-16.5-14.5l-1-1q1-10 1-19t0-20q-11-17-27-32t-31-30.5-26.5-33.5-13.5-40q-17-6-24-20t-11-29-7-29-12-21l9-9q-26-15-38-37t-4-52l1-1v-1q29-25 59-27t65 3q16 2 30.5 2.5t28.5 0.5h2q14 14 30 17.5t35 3.5q16 0 31 2t26 15q4 4 6 8t5 8q2 2 4 4t4 4q22-5 41 5.5t36.5 25.5 35 30.5 35.5 21.5q23 23 30.5 50t9.5 57q1 15 2.5 28t5 24.5 10.5 22 20 21.5l2 2q-2 8-4 14t-2 15q0 19 7 36t15.5 34.5 15.5 37.5 7 45q14 24 31 49t37 48 43 41 50 28q13-1 26.5-2.5t25.5-3.5q-6-14-6-32.5t-1.5-36-8.5-31.5-26-20q2-3 2.5-11.5t0.5-12.5q0-30-13-57t-29.5-53.5-32-53.5-21.5-55q-3-13-13.5-24t-21-22-17-23.5-1.5-27.5q-8-13-18.5-21.5t-18.5-17-11-20.5 4-31h1v-1q11-17 17-35t13.5-35 20-31 35.5-21q2 11 9 11.5t15 0.5q5-5 10-9.5t10-9.5q44 0 70 3t44.5 11 36.5 23.5 47 40.5q27 23 54 45.5t56 42.5zm-332 285q-5 11-17 11t-22-1q8-8 14.5-18t12.5-19q5 5 10.5 12t1.5 15z"/><path transform="translate(114.03 20.734) scale(.015625 -.015625)" d="m750 245q-2-25-13.5-45t-28.5-36-37-29-39-24q-9 4-17.5-1t-17.5-10.5-18.5-8-19.5 6.5q-8-17-19.5-16.5t-24 3-23.5 1-17-22.5l-7 8q-18-11-35-28.5t-35.5-33.5-39-26-43.5-5q-6-12-16.5-12t-21.5 7-21 16-15 15q-5-8-10.5-7t-11.5 5.5-12 9.5-13 4q-14 42-36.5 70.5t-50.5 58.5q-3-11-8.5-20t-11-17.5-10-17.5-5.5-21l-6-8q11-16 7.5-26.5t-12.5-19.5-17-19.5-6-26.5q-7-6-10-16.5t-5.5-22.5-5-24-8.5-21q3-12-2.5-18.5t-13-13-14.5-15-5-22.5q1-10 1.5-9.5t0.5-9.5q0-14-7.5-27.5t-23.5-15.5q10-25 8-38.5t-10.5-22-20.5-14-22.5-13.5-16.5-21.5-2-36.5q4-26-7-40t-24-26.5-21.5-27.5 1.5-43q-3-12-8.5-14t-11.5 0.5-13 6.5-13 4q0 8-4 15t-8 14-4.5 14 6.5 16q-9 9-9.5 21t3 25.5 8 26.5 5.5 24q10 12 14.5 25.5t7 28 6 28.5 12.5 26q-7 22-1 37.5t15.5 28.5 18 27.5 5.5 35.5q20 47 48 91.5t46 94.5q23 23 37 53t16 62q13 9 18.5 21.5t11 24.5 13.5 23 25 18q-4 14-3 22.5t7 22.5q9 3 10.5 9.5t0.5 14-1 15.5 6 14q4 4 4.5 4.5t0.5 0.5 1 0.5 4 4.5q6 8 11 18.5t11 19.5 14.5 14.5 22.5 2.5q6-5 10-13t7.5-16 8.5-13 14-3q4 0 9 3 13 9 25.5 19t24.5 21q8-9 14.5-7.5t13 7 14 11.5 17.5 7q43 4 74.5-7t60.5-44q5-6 11.5-13.5t10.5-15.5q8-15 9.5-38t0-48.5-3.5-50-2-42.5l35-28q65 11 124 35t109 69zm-321-65q-12 17-10.5 33t6 32 7.5 31.5-5 31.5q-7 14-14 26t-15 24q-26 16-48 11.5t-43.5-16.5-43.5-24.5-48-11.5q-8-11-17-18.5t-18.5-13.5-20-11.5-20.5-13.5q-8-28 4-43.5t32-27 41-23.5 30-34q19 10 36 5.5t33.5-10 32-5.5 30.5 18q10-8 18-4.5t13.5 11 10 17.5 9.5 16zm-59-115q-5 0-11.5-0.5t-9.5 6.5l-6-8q-9-3-17 0.5t-17 5.5q-10-5-21.5-3.5t-23 6.5-22.5 11-20 10q2-17 9.5-22.5t17.5-8.5 20-7 16-18q25-6 46.5-0.5t38.5 28.5z"/><path transform="translate(124.78 20.734) scale(.015625 -.015625)" d="m750 245q-2-25-13.5-45t-28.5-36-37-29-39-24q-9 4-17.5-1t-17.5-10.5-18.5-8-19.5 6.5q-8-17-19.5-16.5t-24 3-23.5 1-17-22.5l-7 8q-18-11-35-28.5t-35.5-33.5-39-26-43.5-5q-6-12-16.5-12t-21.5 7-21 16-15 15q-5-8-10.5-7t-11.5 5.5-12 9.5-13 4q-14 42-36.5 70.5t-50.5 58.5q-3-11-8.5-20t-11-17.5-10-17.5-5.5-21l-6-8q11-16 7.5-26.5t-12.5-19.5-17-19.5-6-26.5q-7-6-10-16.5t-5.5-22.5-5-24-8.5-21q3-12-2.5-18.5t-13-13-14.5-15-5-22.5q1-10 1.5-9.5t0.5-9.5q0-14-7.5-27.5t-23.5-15.5q10-25 8-38.5t-10.5-22-20.5-14-22.5-13.5-16.5-21.5-2-36.5q4-26-7-40t-24-26.5-21.5-27.5 1.5-43q-3-12-8.5-14t-11.5 0.5-13 6.5-13 4q0 8-4 15t-8 14-4.5 14 6.5 16q-9 9-9.5 21t3 25.5 8 26.5 5.5 24q10 12 14.5 25.5t7 28 6 28.5 12.5 26q-7 22-1 37.5t15.5 28.5 18 27.5 5.5 35.5q20 47 48 91.5t46 94.5q23 23 37 53t16 62q13 9 18.5 21.5t11 24.5 13.5 23 25 18q-4 14-3 22.5t7 22.5q9 3 10.5 9.5t0.5 14-1 15.5 6 14q4 4 4.5 4.5t0.5 0.5 1 0.5 4 4.5q6 8 11 18.5t11 19.5 14.5 14.5 22.5 2.5q6-5 10-13t7.5-16 8.5-13 14-3q4 0 9 3 13 9 25.5 19t24.5 21q8-9 14.5-7.5t13 7 14 11.5 17.5 7q43 4 74.5-7t60.5-44q5-6 11.5-13.5t10.5-15.5q8-15 9.5-38t0-48.5-3.5-50-2-42.5l35-28q65 11 124 35t109 69zm-321-65q-12 17-10.5 33t6 32 7.5 31.5-5 31.5q-7 14-14 26t-15 24q-26 16-48 11.5t-43.5-16.5-43.5-24.5-48-11.5q-8-11-17-18.5t-18.5-13.5-20-11.5-20.5-13.5q-8-28 4-43.5t32-27 41-23.5 30-34q19 10 36 5.5t33.5-10 32-5.5 30.5 18q10-8 18-4.5t13.5 11 10 17.5 9.5 16zm-59-115q-5 0-11.5-0.5t-9.5 6.5l-6-8q-9-3-17 0.5t-17 5.5q-10-5-21.5-3.5t-23 6.5-22.5 11-20 10q2-17 9.5-22.5t17.5-8.5 20-7 16-18q25-6 46.5-0.5t38.5 28.5z"/><path transform="translate(135.53 20.734) scale(.015625 -.015625)" d="m658 328q1-15-5.5-29t-11.5-25l-32-34-19-57q-11-8-23.5-15.5t-22.5-15.5q-11-9-19.5-20t-18.5-19-23.5-13.5-24.5-12.5q-20-12-37.5-25t-36.5-25q-5-2-7.5-4.5t-7.5-4.5q-3-2-26-8t-50.5-13.5-51.5-13.5-27-6q-18-2-37-2t-38-1l-15-9q-11 8-24 15t-22 15q-10 9-20 20.5t-18 21.5q-5 14-10 27.5t-8 26.5l-5 38q-2 19-3.5 37t-3.5 37q17 47 30.5 94.5t33.5 93.5q5 11 9.5 22.5t9.5 22.5q6 12 13 22.5t12 21.5q5 12 8 24.5t8 23.5q3 6 10 17.5t15 24 15.5 24.5 12.5 19q8 10 16 19t13 20q10 17 19 43t20 46q12 22 28.5 41.5t30.5 40.5q15 21 29 46l44 32 20-20 48 8 30-45q-2-15-4.5-34t-4-38.5-2-38 1.5-32.5q-5-18-14.5-37.5t-21.5-33.5l-4-54-40-36-5-51-34-40q-3-14-6-28.5t-8-27.5q-5-12-12-24.5t-14-25.5q-20-17-41-38t-38-42q-9-11-16.5-23.5t-15.5-23.5q-26-33-56-62t-59-60l22-39q21-7 43-13t44-11q10 2 23 4.5t27 6 27.5 7.5 22.5 8q20 8 46 23.5t44 27.5q32 20 65 41t63 44q20 15 42 38t41.5 43.5 35 33.5 21.5 10zm-272 473q-21-35-44.5-67.5t-43.5-67.5q-7-12-12-24.5t-13-24.5q-7-11-15-22t-14-24q-12-23-21.5-48.5t-20.5-49.5q-12-24-28-45t-29-45l-16-32q-2-5-4-7.5t-4-7.5q-4-11-4-24t-3-24q-3-12-9-23t-11-22-8-22.5-7-22.5q8 8 17.5 14.5t18.5 14.5q9 9 17 19t18 18q9 8 19.5 14.5t20.5 13.5q16 22 28 45 6 11 10.5 25t11.5 25q6 11 15.5 21t16.5 21q8 11 13.5 23t12.5 23q14 22 31 42l5 63 36 42 5 38 25 35 3 56z"/><path transform="translate(143.91 20.734) scale(.015625 -.015625)" d="m741 306q-9-9-13.5-14t-8-9.5-8-9.5-13.5-15q-8-8-15-17t-16-16q-12 3-18.5-3t-12-13.5-10-14-11.5-5.5q-24-13-48-22.5t-46-27.5l-8 8-104-50q-5-2-10-6t-10-7q-22-12-45.5-21.5t-46.5-17.5l-13-4q8-20 0-28t-23-11.5-33-4.5-28-7q-12 2-24.5 1.5t-25.5-2.5q-14-2-26-2t-26 3h-2q-17-8-29.5-3.5t-22.5 15-18.5 25-17.5 26.5q-6 8-15 23t-15.5 32-8 34.5 7.5 30.5 14.5 28 5.5 35q0 7-0.5 13t-0.5 13q5 0 11-0.5t11.5 0 9 4 3.5 12.5q0 5-3.5 8t-4.5 6q6 9 11.5 14.5t9.5 11 6 13-1 20.5q12 21 28.5 37.5t34.5 31 37 28.5 36 30q19-8 30.5 0t20.5 17.5 18 15.5 24-5l2-2q27 27 54.5 24t47-18 25.5-34.5-11-26.5q11-11 11-26t-8-26q-9-12-15.5-24.5t-13.5-26.5q-10-23-22-43.5t-34-34.5q-18 5-24.5-4t-9.5-19.5-7-16.5-17 4l-2 2-2-2q-8-8-12.5-18t-12.5-15q-9 3-19 5t-19 4q0-21-8-33t-20.5-19.5-28.5-12-31.5-11-29-16-21.5-26.5q10-11 25-12.5t31 0 31.5 1.5 27.5-8l1-1 1 1q24 3 46.5 11.5t44 18 44 18 46.5 12.5q5-8 13.5-9t16.5 1l1 2q2 7 4 12.5t6 12.5q7 11 17 17t21.5 9 24.5 4 26 3h2l1 3q4 12 10.5 16.5t14 6.5 16 3 16.5 6q18-6 30 4t23 21l8-10 3 4q15 14 22.5 21t14.5 12.5 16.5 11 26.5 16.5q14 9 27.5 18t26.5 20q5-2 5-7.5t0-10.5q-1-2-1.5-6t1.5-6zm-414 125q-1 1-1.5 1t-1.5 1q-21 11-35 10.5t-25.5-8-21-19-20-21-24.5-14.5-34 1q-3-16-5.5-31.5t-3.5-31.5q-17-6-26.5-17t-16-24-12-27.5-14.5-27.5l4-5q4 2 9-3t7-7q11 16 29.5 27t38 20.5 37.5 20.5 27 29q32 9 48 36t27 56q2 6 7.5 17.5t6.5 16.5z"/></svg>