<svg width="96.56" height="21.28" viewBox="0 0 96.56 21.28" xmlns="http://www.w3.org/2000/svg"><path transform="translate(0 16.24) scale(.016 -.016)" d="M516 0V700H606V0ZM69 0V700H159V0ZM143 320V393H537V320Z"/><path transform="translate(10.8 16.24) scale(.016 -.016)" d="m287-12q-73 0-131 32.5t-91 91-33 136.5q0 79 33.5 137t92 90.5 131.5 32.5 131-32.5 91-90.5 33-137q0-78-33.5-136.5t-91.5-91-132-32.5zm0 77q45 0 82.5 20.5t60 61.5 22.5 101q0 61-22.5 101.5t-59.5 61-81 20.5-81.5-21-60.5-61-23-101q0-60 22.5-101t59.5-61.5 81-20.5z"/><path transform="translate(20.016 16.24) scale(.016 -.016)" d="m253-12q-91 0-152 42.5t-71 124.5h93q8-43 43-68t90-25q52 0 80 22t28 56q0 25-17.5 38.5t-64.5 21.5q-19 4-40.5 8t-40.5 7q-34 7-67.5 23t-55.5 45-22 75q0 64 49 107t134 43q82 0 136-37.5t61-116.5h-89q-4 43-34.5 61.5t-74.5 18.5q-43 0-70.5-19t-27.5-50q0-54 81-70 12-1 25.5-3.5t27.5-5 25-4.5q24-4 50-11.5t49-22 37.5-39 14.5-62.5q0-46-24-82t-68-56.5-105-20.5z"/><path transform="translate(27.936 16.24) scale(.016 -.016)" d="m226 0q-42 0-71 10.5t-43.5 39.5-14.5 82v288h-86v76h86v121h90v-121h140v-76h-140v-274q0-32 5-47t21-18.5 46-3.5h61v-77z"/><path transform="translate(38.528 16.24) scale(.016 -.016)" d="m384-12q-108 0-186.5 45t-121 125.5-42.5 185.5q0 109 42 192t118.5 129.5 181.5 46.5q118 0 197-57t102-158h-103q-15 61-65.5 96.5t-130.5 35.5q-77 0-132.5-34t-86.5-98.5-31-153.5q0-85 32-146.5t89.5-95 135.5-33.5q103 0 162.5 61.5t62.5 172.5h-215v74h304v-35q0-114-39.5-192.5t-110-119.5-163.5-41z"/><path transform="translate(50.256 16.24) scale(.016 -.016)" d="m60 0v496h90v-78q17 39 46 60.5t71 21.5h74v-84h-83q-32 0-56.5-18t-38-57.5-13.5-104.5v-236z"/><path transform="translate(56.352 16.24) scale(.016 -.016)" d="m287-12q-73 0-131 32.5t-91 91-33 136.5q0 79 33.5 137t92 90.5 131.5 32.5 131-32.5 91-90.5 33-137q0-78-33.5-136.5t-91.5-91-132-32.5zm0 77q45 0 82.5 20.5t60 61.5 22.5 101q0 61-22.5 101.5t-59.5 61-81 20.5-81.5-21-60.5-61-23-101q0-60 22.5-101t59.5-61.5 81-20.5z"/><path transform="translate(65.568 16.24) scale(.016 -.016)" d="m226 0q-42 0-71 10.5t-43.5 39.5-14.5 82v288h-86v76h86v121h90v-121h140v-76h-140v-274q0-32 5-47t21-18.5 46-3.5h61v-77z"/><path transform="translate(71.248 16.24) scale(.016 -.016)" d="m278-12q-72 0-127.5 32.5t-87 90.5-31.5 136q0 79 31 137.5t87 91 129 32.5 125.5-32.5 81-85.5 28.5-116q0-10 0-21.5t-1-24.5h-414v66h326q-3 65-44.5 102t-103.5 37q-42 0-78-18.5t-57.5-55-21.5-90.5v-27q0-59 22-99t58-60 77-20q50 0 84 23t50 63h89q-13-45-43-82t-75.5-58-103.5-21z"/><path transform="translate(80.16 16.24) scale(.016 -.016)" d="m253-12q-91 0-152 42.5t-71 124.5h93q8-43 43-68t90-25q52 0 80 22t28 56q0 25-17.5 38.5t-64.5 21.5q-19 4-40.5 8t-40.5 7q-34 7-67.5 23t-55.5 45-22 75q0 64 49 107t134 43q82 0 136-37.5t61-116.5h-89q-4 43-34.5 61.5t-74.5 18.5q-43 0-70.5-19t-27.5-50q0-54 81-70 12-1 25.5-3.5t27.5-5 25-4.5q24-4 50-11.5t49-22 37.5-39 14.5-62.5q0-46-24-82t-68-56.5-105-20.5z"/><path transform="translate(88.08 16.24) scale(.016 -.016)" d="M136 166 110 242 368 496H478ZM57 0V720H147V0ZM392 0 187 264 244 323 506 0Z"/></svg>