<svg width="118.16" height="20" viewBox="0 0 118.16 20" xmlns="http://www.w3.org/2000/svg"><path transform="translate(0 15.2) scale(.016 -.016)" d="m40 0v18l61 11q41 8 52.5 18t11.5 41v497q0 32-11.5 42t-52.5 17l-61 11v18h340v-18l-61-11q-41-7-52.5-17t-11.5-42v-497q0-31 11.5-41t52.5-18l61-11v-18z"/><path transform="translate(6.72 15.2) scale(.016 -.016)" d="m104-12-9 2v616q0 20-5 28t-19 12l-46 12v10q36 8 71 17.5t68 26.5l9-6q-8-22-10-45.5t-2-58.5v-225l91 46q7 3 17 7t20 4q72 0 118.5-30t69-78 22.5-104-23-109-70-87-120-34q-38 0-75 15.5t-60 38.5q-14-12-25-26t-22-32zm184 30q49 0 80 24.5t46 63.5 15 84q0 50-17 94t-52 71.5-90 27.5q-52 0-80.5-26.5t-28.5-62.5v-141q0-37 18-68t47-49 62-18z"/><path transform="translate(15.424 15.2) scale(.016 -.016)" d="m178-7q-30 0-57 19t-44 49.5-17 62.5q0 17 3.5 24t10.5 10l191 69q24 9 33 20.5t9 31.5v18q0 46-22 80t-68 34q-30 0-49.5-14t-19.5-38q0-6 3-11.5t7-10.5q6-8 10-17t4-19q0-19-13.5-30.5t-33.5-11.5q-22 0-34.5 13.5t-12.5 38.5q0 34 22.5 62t58.5 44.5 74 16.5q48 0 79.5-19t47-50 15.5-68v-210q0-21 4.5-35.5t24.5-14.5q22 0 47 10v-15q-19-12-47.5-25.5t-46.5-13.5q-22 0-32.5 11.5t-13.5 29-3 35.5v12l10-14q-20-16-44-33t-48.5-29-47.5-12zm28 48q20 0 41.5 10t43.5 26q17 14 17 39v92q0 3-2.5 5t-5.5 0l-157-59q-6-2-8.5-9.5t-2.5-23.5q0-19 12-37.5t29.5-30.5 32.5-12z"/><path transform="translate(22.88 15.2) scale(.016 -.016)" d="m35 0v15l42 11q15 4 20.5 11t5.5 21v273q0 20-5 28t-19 12l-43 12v10q23 5 45.5 11t44 14 41.5 19l9-6q-5-13-8.5-28.5t-3.5-29.5v-10l6-15v-290q0-14 5.5-21t20.5-11l48-11v-15zm135 282-18 81 116 66q6 3 12.5 4.5t12.5 1.5q18 0 32-12t14-35q0-18-13-32t-36-14q-14 0-23 6t-16 13q-5 6-10.5 11t-12.5 5-21-8.5-25.5-29.5-11.5-57z"/><path transform="translate(28.464 15.2) scale(.016 -.016)" d="m35 0v15l42 11q15 4 20.5 11t5.5 21v273q0 20-5 28t-19 12l-43 12v10q23 5 45.5 11t44 14 41.5 19l9-6q-5-13-8.5-28.5t-3.5-29.5v-10l6-15v-290q0-14 5.5-21t20.5-11l48-11v-15zm135 282-18 81 116 66q6 3 12.5 4.5t12.5 1.5q18 0 32-12t14-35q0-18-13-32t-36-14q-14 0-23 6t-16 13q-5 6-10.5 11t-12.5 5-21-8.5-25.5-29.5-11.5-57z"/><path transform="translate(34.048 15.2) scale(.016 -.016)" d="m178-7q-30 0-57 19t-44 49.5-17 62.5q0 17 3.5 24t10.5 10l191 69q24 9 33 20.5t9 31.5v18q0 46-22 80t-68 34q-30 0-49.5-14t-19.5-38q0-6 3-11.5t7-10.5q6-8 10-17t4-19q0-19-13.5-30.5t-33.5-11.5q-22 0-34.5 13.5t-12.5 38.5q0 34 22.5 62t58.5 44.5 74 16.5q48 0 79.5-19t47-50 15.5-68v-210q0-21 4.5-35.5t24.5-14.5q22 0 47 10v-15q-19-12-47.5-25.5t-46.5-13.5q-22 0-32.5 11.5t-13.5 29-3 35.5v12l10-14q-20-16-44-33t-48.5-29-47.5-12zm28 48q20 0 41.5 10t43.5 26q17 14 17 39v92q0 3-2.5 5t-5.5 0l-157-59q-6-2-8.5-9.5t-2.5-23.5q0-19 12-37.5t29.5-30.5 32.5-12z"/><path transform="translate(45.744 15.2) scale(.016 -.016)" d="m718-13q-51 0-87.5 22t-66 57.5-59.5 73.5q-30 40-57.5 77t-63.5 60.5-93 23.5h-36v-213q0-31 11.5-41t52.5-18l61-11v-18h-340v18l61 11q41 8 52.5 18t11.5 41v497q0 32-11.5 42t-52.5 17l-61 11v18h280q135 0 208-50.5t73-135.5q0-46-25-81.5t-66.5-57-90.5-27.5v-3q46 0 78-23.5t57.5-59.5 52.5-76q26-37 52-70.5t53.5-54.5 56.5-21v-18q-24-8-51-8zm-463 342h65q59 0 99.5 19t62 53.5 21.5 81.5q0 82-52.5 124.5t-143.5 42.5h-52z"/><path transform="translate(58.128 15.2) scale(.016 -.016)" d="m244-8q-58 0-103 29t-70.5 77.5-25.5 108.5q0 67 27 118t73.5 80 104.5 29q47 0 81.5-22.5t54-61 19.5-86.5q0-6-3.5-11t-12.5-5h-289v23l205 6q19 0 19 18 0 47-20.5 80t-64.5 33q-55 0-89-49.5t-34-129.5q0-58 21-98t56-60.5 77-20.5q63 0 127 53l12-10q-37-53-81.5-77t-83.5-24z"/><path transform="translate(65.312 15.2) scale(.016 -.016)" d="m178-7q-30 0-57 19t-44 49.5-17 62.5q0 17 3.5 24t10.5 10l191 69q24 9 33 20.5t9 31.5v18q0 46-22 80t-68 34q-30 0-49.5-14t-19.5-38q0-6 3-11.5t7-10.5q6-8 10-17t4-19q0-19-13.5-30.5t-33.5-11.5q-22 0-34.5 13.5t-12.5 38.5q0 34 22.5 62t58.5 44.5 74 16.5q48 0 79.5-19t47-50 15.5-68v-210q0-21 4.5-35.5t24.5-14.5q22 0 47 10v-15q-19-12-47.5-25.5t-46.5-13.5q-22 0-32.5 11.5t-13.5 29-3 35.5v12l10-14q-20-16-44-33t-48.5-29-47.5-12zm28 48q20 0 41.5 10t43.5 26q17 14 17 39v92q0 3-2.5 5t-5.5 0l-157-59q-6-2-8.5-9.5t-2.5-23.5q0-19 12-37.5t29.5-30.5 32.5-12z"/><path transform="translate(72.768 15.2) scale(.016 -.016)" d="m35 0v15l42 11q15 4 20.5 11t5.5 21l2 548q0 20-5 28t-19 12l-46 12v10q36 8 71.5 17.5t68.5 26.5l9-6q-8-22-10-45.5t-2-58.5l-2-544q0-14 5.5-21t20.5-11l42-11v-15z"/><path transform="translate(81.344 15.2) scale(.016 -.016)" d="m696-16-501 572v-461q0-31 11.5-44.5t52.5-21.5l61-11v-18h-279v18l61 11q41 8 52.5 20t11.5 43v486q0 23-4 35.5t-20.5 19.5-54.5 14l-47 9v17h171l467-520-1 425q0 32-11.5 45.5t-52.5 20.5l-61 11v18h279v-18l-61-11q-41-7-52.5-19t-11.5-44v-597z"/><path transform="translate(95.04 15.2) scale(.016 -.016)" d="m254-8q-62 0-109.5 28.5t-73.5 78-26 110.5q0 66 26 117t73.5 79.5 109.5 28.5q63 0 110-28.5t73-77.5 26-111q0-66-26-116.5t-73-79.5-110-29zm1 24q62 0 97 49.5t35 140.5q0 94-35 149t-99 55q-62 0-97-49t-35-141q0-94 35-149t99-55z"/><path transform="translate(103.17 15.2) scale(.016 -.016)" d="m237-12-170 391q-5 12-11 17t-20 8l-31 7v15h212v-15l-56-13q-13-3-17.5-8.5t-1.5-13.5l123-286h-11l121 292q2 5-0.5 9t-17.5 8l-47 12v15h156v-15l-32-8q-13-3-19.5-8t-11.5-17l-156-390z"/><path transform="translate(110.7 15.2) scale(.016 -.016)" d="m178-7q-30 0-57 19t-44 49.5-17 62.5q0 17 3.5 24t10.5 10l191 69q24 9 33 20.5t9 31.5v18q0 46-22 80t-68 34q-30 0-49.5-14t-19.5-38q0-6 3-11.5t7-10.5q6-8 10-17t4-19q0-19-13.5-30.5t-33.5-11.5q-22 0-34.5 13.5t-12.5 38.5q0 34 22.5 62t58.5 44.5 74 16.5q48 0 79.5-19t47-50 15.5-68v-210q0-21 4.5-35.5t24.5-14.5q22 0 47 10v-15q-19-12-47.5-25.5t-46.5-13.5q-22 0-32.5 11.5t-13.5 29-3 35.5v12l10-14q-20-16-44-33t-48.5-29-47.5-12zm28 48q20 0 41.5 10t43.5 26q17 14 17 39v92q0 3-2.5 5t-5.5 0l-157-59q-6-2-8.5-9.5t-2.5-23.5q0-19 12-37.5t29.5-30.5 32.5-12z"/></svg>