<svg width="124.8" height="20.8" viewBox="0 0 124.8 20.8" xmlns="http://www.w3.org/2000/svg"><path transform="translate(0 16.4) scale(.016 -.016)" d="M84 0V67H258V631H84V698H516V631H342V67H516V0Z"/><path transform="translate(9.6 16.4) scale(.016 -.016)" d="m88 698h237q90 0 141-49t51-131q0-63-30.5-99t-78.5-51v-3q59-14 97-52.5t38-111.5q0-42-14-79t-39.5-64-60-42.5-74.5-15.5h-267zm242-625q58 0 91 26t33 80v41q0 53-33 79.5t-91 26.5h-158v-253zm-14 322q53 0 83 23.5t30 71.5v39q0 48-30 72t-83 24h-144v-230z"/><path transform="translate(19.2 16.4) scale(.016 -.016)" d="m455 350v221h-8l-147-359-147 359h-8v-571h-77v698h108l123-308h6l123 308h104v-698h-77z"/><path transform="translate(38.4 16.4) scale(.016 -.016)" d="m90 0v698h254q97 0 148-53t51-148-51-148-148-53h-170v-296zm84 369h168q53 0 82.5 26.5t29.5 75.5v52q0 49-29.5 75.5t-82.5 26.5h-168z"/><path transform="translate(48 16.4) scale(.016 -.016)" d="M80 68H260V672H80V740H340V68H520V0H80Z"/><path transform="translate(57.6 16.4) scale(.016 -.016)" d="m309-12q-56 0-100.5 19t-76 54.5-48.5 85-17 110.5q0 62 17.5 112t48.5 85.5 74.5 54.5 96.5 19q52 0 94.5-19t72.5-52.5 46-79.5 16-101v-38h-382v-24q0-34 11-63t31.5-50 50-32.5 65.5-11.5q52 0 90 24t58 66l59-40q-23-52-76.5-85.5t-130.5-33.5zm-5 474q-33 0-61-12t-48.5-33-32-49.5-11.5-62.5v-7h296v11q0 34-10.5 62t-29 48.5-45 31.5-58.5 11z"/><path transform="translate(67.2 16.4) scale(.016 -.016)" d="m61 0 192 262-187 254h96l78-109 62-86h4l60 86 77 109h92l-189-253 194-263h-96l-87 121-59 82h-4l-57-82-84-121z"/><path transform="translate(86.4 16.4) scale(.016 -.016)" d="m455 350v221h-8l-147-359-147 359h-8v-571h-77v698h108l123-308h6l123 308h104v-698h-77z"/><path transform="translate(96 16.4) scale(.016 -.016)" d="m300-12q-54 0-97.5 19t-74 54.5-46.5 85-16 111.5q0 61 16 111t46.5 85.5 74 54.5 97.5 19 97.5-19 74-54.5 46.5-85.5 16-111q0-62-16-111.5t-46.5-85-74-54.5-97.5-19zm0 69q67 0 108 40t41 124v74q0 84-41 124t-108 40-108-40-41-124v-74q0-84 41-124t108-40z"/><path transform="translate(105.6 16.4) scale(.016 -.016)" d="m98 0v516h80v-84h4q8 19 20 36.5t29.5 30.5 41.5 21 56 8q81 0 130-51.5t49-145.5v-331h-80v317q0 71-31 105.5t-91 34.5q-24 0-47-6t-41-18-29-31-11-44v-358z"/><path transform="translate(115.2 16.4) scale(.016 -.016)" d="m300-12q-54 0-97.5 19t-74 54.5-46.5 85-16 111.5q0 61 16 111t46.5 85.5 74 54.5 97.5 19 97.5-19 74-54.5 46.5-85.5 16-111q0-62-16-111.5t-46.5-85-74-54.5-97.5-19zm0 69q67 0 108 40t41 124v74q0 84-41 124t-108 40-108-40-41-124v-74q0-84 41-124t108-40z"/></svg>