<svg width="163.15" height="20.8" viewBox="0 0 163.15 20.8" xmlns="http://www.w3.org/2000/svg"><path transform="translate(0 16.4) scale(.016 -.016)" d="M60 0V70H158V628H60V698H340V628H242V70H340V0Z"/><path transform="translate(6.4 16.4) scale(.016 -.016)" d="m93 698h287q87 0 136.5-49t49.5-131q0-39-11-66t-28-44.5-37-26-37-11.5v-6q19-1 42.5-10t44.5-28.5 35.5-50 14.5-73.5-13.5-80-37.5-64-57-42.5-72-15.5h-317zm84-624h207q54 0 85 27.5t31 80.5v34q0 53-31 80.5t-85 27.5h-207zm0 322h193q50 0 78 25t28 72v34q0 47-28 72t-78 25h-193z"/><path transform="translate(16.848 16.4) scale(.016 -.016)" d="M637 588H632L573 471L406 167L239 471L180 588H175V0H93V698H205L405 322H410L611 698H719V0H637Z"/><path transform="translate(33.616 16.4) scale(.016 -.016)" d="m93 0v698h278q94 0 144.5-53.5t50.5-146.5-50.5-146.5-144.5-53.5h-194v-298zm84 372h194q50 0 77.5 26t27.5 74v52q0 48-27.5 74t-77.5 26h-194z"/><path transform="translate(43.312 16.4) scale(.016 -.016)" d="m170 0q-42 0-63.5 23.5t-21.5 59.5v657h80v-670h76v-70z"/><path transform="translate(47.664 16.4) scale(.016 -.016)" d="m279-12q-53 0-95.5 19t-73 54.5-47 85-16.5 111.5q0 61 16.5 111t47 85.5 73 54.5 95.5 19q52 0 93-19t70-52.5 44.5-79.5 15.5-101v-38h-371v-24q0-33 10.5-61.5t30-49.5 48-33 64.5-12q49 0 85.5 23t56.5 66l57-41q-25-53-78-85.5t-126-32.5zm0 473q-33 0-60-11.5t-46.5-32.5-30.5-49.5-11-62.5v-7h285v11q0 69-37.5 110.5t-99.5 41.5z"/><path transform="translate(56.448 16.4) scale(.016 -.016)" d="M21 0 212 260 29 516H123L254 324H257L393 516H482L300 266L486 0H392L258 202H255L110 0Z"/><path transform="translate(68.336 16.4) scale(.016 -.016)" d="m289-12q-85 0-145 32.5t-102 89.5l62 52q37-49 82-74.5t106-25.5q75 0 114.5 36t39.5 96q0 50-30 77t-99 43l-57 13q-96 22-146.5 66.5t-50.5 125.5q0 46 17 82t47.5 60 73 36.5 93.5 12.5q79 0 135.5-29t95.5-85l-63-46q-29 40-70 63t-102 23q-67 0-105.5-28.5t-38.5-85.5q0-50 32.5-75.5t98.5-40.5l57-13q103-23 149-70t46-125q0-48-16.5-87t-47.5-66-75.5-42-100.5-15z"/><path transform="translate(77.632 16.4) scale(.016 -.016)" d="m460 0q-45 0-64.5 24t-24.5 60h-5q-17-48-56-72t-93-24q-82 0-127.5 42t-45.5 114q0 73 53.5 112t166.5 39h102v51q0 55-30 84t-92 29q-47 0-78.5-21t-52.5-56l-48 45q21 42 67 71.5t116 29.5q94 0 146-46t52-128v-284h59v-70zm-230 56q30 0 55 7t43 20 28 30 10 37v85h-106q-69 0-100.5-20t-31.5-58v-21q0-38 27.5-59t74.5-21z"/><path transform="translate(86.176 16.4) scale(.016 -.016)" d="m85 0v516h80v-84h4q19 44 53.5 70t92.5 26q80 0 126.5-51.5t46.5-145.5v-331h-80v317q0 139-117 139-24 0-46.5-6t-40.5-18-28.5-30.5-10.5-43.5v-358z"/><path transform="translate(95.264 16.4) scale(.016 -.016)" d="m240-12q-72 0-120.5 27.5t-83.5 73.5l57 46q30-38 67-58.5t86-20.5q51 0 79.5 22t28.5 62q0 30-19.5 51.5t-70.5 29.5l-41 6q-36 5-66 15.5t-52.5 28-35 43.5-12.5 62q0 38 14 66.5t38.5 47.5 58.5 28.5 73 9.5q63 0 105.5-22t74.5-61l-53-48q-17 24-50 43.5t-83 19.5-75.5-21.5-25.5-58.5q0-38 25.5-55t73.5-25l40-6q86-13 122-49.5t36-95.5q0-75-51-118t-140-43z"/><path transform="translate(106.83 16.4) scale(.016 -.016)" d="M530 316H177V0H93V698H177V390H530V698H614V0H530Z"/><path transform="translate(118.14 16.4) scale(.016 -.016)" d="m279-12q-53 0-95.5 19t-73 54.5-47 85-16.5 111.5q0 61 16.5 111t47 85.5 73 54.5 95.5 19q52 0 93-19t70-52.5 44.5-79.5 15.5-101v-38h-371v-24q0-33 10.5-61.5t30-49.5 48-33 64.5-12q49 0 85.5 23t56.5 66l57-41q-25-53-78-85.5t-126-32.5zm0 473q-33 0-60-11.5t-46.5-32.5-30.5-49.5-11-62.5v-7h285v11q0 69-37.5 110.5t-99.5 41.5z"/><path transform="translate(126.93 16.4) scale(.016 -.016)" d="m85 740h80v-308h4q20 49 58.5 72.5t92.5 23.5q48 0 87-19t66.5-54 42-85 14.5-112-14.5-112-42-85-66.5-54-87-19q-105 0-151 96h-4v-84h-80zm213-680q68 0 107 42.5t39 111.5v88q0 69-39 111.5t-107 42.5q-27 0-51.5-7.5t-42.5-20.5-28.5-31.5-10.5-39.5v-192q0-25 10.5-44.5t28.5-33 42.5-20.5 51.5-7z"/><path transform="translate(136.21 16.4) scale(.016 -.016)" d="m85 0v516h80v-95h5q14 37 50 66t99 29h31v-80h-47q-65 0-101.5-24.5t-36.5-61.5v-350z"/><path transform="translate(142.08 16.4) scale(.016 -.016)" d="m279-12q-53 0-95.5 19t-73 54.5-47 85-16.5 111.5q0 61 16.5 111t47 85.5 73 54.5 95.5 19q52 0 93-19t70-52.5 44.5-79.5 15.5-101v-38h-371v-24q0-33 10.5-61.5t30-49.5 48-33 64.5-12q49 0 85.5 23t56.5 66l57-41q-25-53-78-85.5t-126-32.5zm0 473q-33 0-60-11.5t-46.5-32.5-30.5-49.5-11-62.5v-7h285v11q0 69-37.5 110.5t-99.5 41.5z"/><path transform="translate(150.86 16.4) scale(.016 -.016)" d="m31 516h78l55-223 55-226h2l63 226 65 223h71l67-223 64-226h2l53 226 56 223h75l-137-516h-99l-72 248-45 157h-2l-44-157-72-248h-97z"/></svg>