<svg width="105.57" height="20.8" viewBox="0 0 105.57 20.8" xmlns="http://www.w3.org/2000/svg"><path transform="translate(0 16.4) scale(.016 -.016)" d="M55 46H130V652H55V698H291V652H216V46H291V0H55Z"/><path transform="translate(5.536 16.4) scale(.016 -.016)" d="m55 46h75v606h-75v46h334q88 0 137.5-45t49.5-120q0-37-11-66t-29.5-50-42-34-48.5-17v-3q26-2 54-13t51-32 38-52 15-72q0-44-13.5-80t-38-61.5-58.5-39-74-13.5h-364zm161 3h172q58 0 90.5 34t32.5 88v44q0 53-32.5 87t-90.5 34h-172zm0 336h156q54 0 83 31t29 79v44q0 48-29 79t-83 31h-156z"/><path transform="translate(16.256 16.4) scale(.016 -.016)" d="M55 46H130V652H55V698H231L435 266H438L652 698H817V652H742V46H817V0H581V46H656V597H652L608 500L416 117L245 475L189 597H185V46H260V0H55Z"/><path transform="translate(33.92 16.4) scale(.016 -.016)" d="m55 46h75v606h-75v46h326q95 0 145.5-47.5t50.5-139.5q0-91-52-141t-146-50h-163v-274h95v-46h-256zm161 323h158q54 0 82.5 34t28.5 83v46q0 49-28.5 83t-82.5 34h-158z"/><path transform="translate(43.92 16.4) scale(.016 -.016)" d="M35 46H109V683L35 696V731L191 760V46H265V0H35Z"/><path transform="translate(48.72 16.4) scale(.016 -.016)" d="m279-12q-55 0-98.5 19.5t-73.5 54.5-46 85-16 111q0 60 17.5 109.5t48 85.5 72.5 55.5 92 19.5q51 0 91-18t67.5-50.5 42.5-77.5 15-98v-23h-355v-26q0-85 42.5-134t113.5-49q62 0 98.5 25.5t57.5 66.5l33-21q-10-26-27.5-50.5t-42.5-43-58-30-74-11.5zm-143 319h269v10q0 35-7.5 65t-23.5 52-40.5 34.5-58.5 12.5-60-12-43.5-34-26.5-51.5-9-64.5z"/><path transform="translate(57.296 16.4) scale(.016 -.016)" d="M31 46H88L239 252L86 470H34V516H244V470H185L297 306H301L407 470H345V516H526V470H469L326 267L479 46H531V0H320V46H379L268 213H264L150 46H212V0H31Z"/><path transform="translate(69.984 16.4) scale(.016 -.016)" d="m295-12q-63 0-102.5 19.5t-55.5 52.5h-5v-60h-72v205h72v-46q0-25 7.5-46.5t25-37.5 46-25 69.5-9q87 0 125.5 37t38.5 99q0 53-29.5 83t-92.5 47l-55 14q-93 24-144 72t-51 132q0 42 16 76.5t45 58.5 69.5 37 89.5 13q57 0 93.5-17.5t51.5-48.5h6v54h72v-195h-72v46q0 25-7.5 45t-25.5 34-47 21.5-71 7.5q-70 0-105-32t-35-84q0-54 31.5-84.5t99.5-48.5l51-13q91-24 140-72t49-126q0-45-15-83.5t-44-66.5-71.5-43.5-97.5-15.5z"/><path transform="translate(79.392 16.4) scale(.016 -.016)" d="m279-12q-55 0-98.5 19.5t-73.5 54.5-46 85-16 111q0 60 17.5 109.5t48 85.5 72.5 55.5 92 19.5q51 0 91-18t67.5-50.5 42.5-77.5 15-98v-23h-355v-26q0-85 42.5-134t113.5-49q62 0 98.5 25.5t57.5 66.5l33-21q-10-26-27.5-50.5t-42.5-43-58-30-74-11.5zm-143 319h269v10q0 35-7.5 65t-23.5 52-40.5 34.5-58.5 12.5-60-12-43.5-34-26.5-51.5-9-64.5z"/><path transform="translate(87.968 16.4) scale(.016 -.016)" d="m50 46h74v405l-74 13v34l154 30v-90h5q7 16 17.5 32t26 29 36 21 47.5 8q44 0 70.5-21t26.5-61q0-30-15-47t-39-17q-27 0-43 14.5t-16 37.5q0 20 8.5 32.5t19.5 14.5v2q-4 1-10 1.5t-15 0.5q-21 0-42-10.5t-37.5-27-27-37.5-10.5-42v-322h94v-46h-250z"/><path transform="translate(95.056 16.4) scale(.016 -.016)" d="m165 635q-26 0-39.5 15.5t-13.5 37.5v5q0 22 13.5 37.5t39.5 15.5 40-15.5 14-37.5v-5q0-22-14-37.5t-40-15.5zm-115-589h74v405l-74 13v34l156 30v-482h74v-46h-230z"/><path transform="translate(100.1 16.4) scale(.016 -.016)" d="m45 46h74v421h-74v49h74v81q0 36 12 66t33.5 51.5 51 33.5 64.5 12q54 0 85.5-21t31.5-60q0-26-14.5-41.5t-37.5-15.5q-22 0-35.5 14t-13.5 34q0 35 27 46v2q-7 2-16 3t-20 1q-42 0-64-30t-22-84v-92h112v-49h-112v-421h94v-46h-250z"/></svg>