<svg width="148.32" height="18.2" viewBox="0 0 148.32 18.2" xmlns="http://www.w3.org/2000/svg"><path transform="translate(0 14.35) scale(.014 -.014)" d="M53 0V66H141V632H53V698H309V632H221V66H309V0Z"/><path transform="translate(5.068 14.35) scale(.014 -.014)" d="m83 698h264q79 0 121.5-44.5t42.5-135.5q0-42-10-69.5t-25.5-44-34.5-24.5-37-9v-10q18 0 40.5-7.5t42-26 33-49 13.5-76.5q0-96-44-149t-115-53h-291zm80-628h187q48 0 72.5 25.5t24.5 79.5v46q0 54-24.5 79.5t-72.5 25.5h-187zm0 326h174q43 0 66 22.5t23 70.5v46q0 48-23 70.5t-66 22.5h-174z"/><path transform="translate(13.314 14.35) scale(.014 -.014)" d="m570 479 7 120h-10l-52-120-150-308-150 308-52 118h-10l7-118v-479h-78v698h106l126-271 47-129h8l47 129 126 271h106v-698h-78z"/><path transform="translate(26.502 14.35) scale(.014 -.014)" d="m83 0v698h257q173 0 173-199t-173-199h-177v-300zm80 370h175q89 0 89 96v66q0 96-89 96h-175z"/><path transform="translate(34.174 14.35) scale(.014 -.014)" d="M154 0Q113 0 94.5 18.5Q76 37 76 78V740H152V67H217V0Z"/><path transform="translate(37.632 14.35) scale(.014 -.014)" d="m252-12q-45 0-84 15t-67 48-44 84-16 123 16 123 44 84 67 48 84 15 82.5-15 63.5-48 40.5-84 14.5-123v-19h-331v-33q0-76 34.5-113.5t95.5-37.5q52 0 85 22.5t52 67.5l52-38q-24-53-70.5-86t-118.5-33zm0 476q-62 0-96-39t-34-115v-13h250v13q0 154-120 154z"/><path transform="translate(44.562 14.35) scale(.014 -.014)" d="M19 0 189 263 26 516H112L227 328H237L354 516H437L275 266L442 0H356L237 202H227L102 0Z"/><path transform="translate(53.956 14.35) scale(.014 -.014)" d="m261-12q-75 0-131 31.5t-93 87.5l58 48q32-47 72-72.5t94-25.5q142 0 142 133 0 54-26 82t-90 44l-52 13q-92 23-135.5 67.5t-43.5 125.5q0 93 58 140.5t154 47.5q73 0 122.5-27t86.5-85l-59-42q-27 42-61.5 63.5t-91.5 21.5q-64 0-97.5-28t-33.5-91q0-51 27.5-77t88.5-41l52-13q49-12 83-28.5t55.5-40.5 31-56.5 9.5-75.5q0-99-58.5-150.5t-161.5-51.5z"/><path transform="translate(61.306 14.35) scale(.014 -.014)" d="m402 0q-74 0-74 74v10h-10q-13-47-47.5-71.5t-82.5-24.5q-75 0-112 38t-37 112q0 72 47.5 114t148.5 42h93v57q0 57-25.5 84t-80.5 27q-45 0-72.5-19.5t-47.5-56.5l-45 42q20 42 64 70.5t104 28.5q88 0 133.5-42.5t45.5-125.5v-292h52v-67zm-195 54q26 0 48.5 9t38.5 23.5 25 33 9 38.5v78h-95q-60 0-87.5-20t-27.5-58v-28q0-39 24-57.5t65-18.5z"/><path transform="translate(68.068 14.35) scale(.014 -.014)" d="m76 0v516h76v-84h10q15 48 46.5 72t85.5 24q69 0 108.5-47t39.5-145v-336h-76v331q0 62-25.5 95t-78.5 33q-46 0-78-28t-32-79v-352z"/><path transform="translate(75.25 14.35) scale(.014 -.014)" d="m219-12q-64 0-109.5 26t-77.5 72l53 44q27-38 58.5-58t75.5-20q45 0 71.5 22.5t26.5 64.5q0 34-17 55t-63 29l-39 7q-75 14-111.5 47t-36.5 100q0 39 12 67.5t34 47 52.5 27 66.5 8.5q58 0 97.5-20.5t68.5-59.5l-49-45q-17 24-45 42.5t-72 18.5q-91 0-91-83 0-38 19.5-55.5t63.5-25.5l39-7q79-14 112-49t33-95q0-75-43.5-117.5t-128.5-42.5z"/><path transform="translate(84.364 14.35) scale(.014 -.014)" d="m305-12q-59 0-106 21.5t-79.5 65.5-50 112.5-17.5 161.5 17.5 161.5 50 112.5 79.5 65.5 106 21.5q86 0 138-36.5t82-111.5l-64-39q-19 57-54.5 86.5t-101.5 29.5q-80 0-123.5-57.5t-43.5-154.5v-156q0-97 43.5-154.5t123.5-57.5q68 0 105 31.5t56 91.5l64-40q-30-75-84.5-114.5t-140.5-39.5z"/><path transform="translate(92.218 14.35) scale(.014 -.014)" d="m252-12q-45 0-84 15t-67 48-44 84-16 123 16 123 44 84 67 48 84 15 84-15 67-48 44-84 16-123-16-123-44-84-67-48-84-15zm0 68q62 0 95.5 37t33.5 113v104q0 76-33.5 113t-95.5 37-95.5-37-33.5-113v-104q0-76 33.5-113t95.5-37z"/><path transform="translate(99.274 14.35) scale(.014 -.014)" d="m76 0v516h76v-84h10q15 48 46.5 72t85.5 24q69 0 108.5-47t39.5-145v-336h-76v331q0 62-25.5 95t-78.5 33q-46 0-78-28t-32-79v-352z"/><path transform="translate(106.46 14.35) scale(.014 -.014)" d="m372 84h-10q-15-51-48.5-73.5t-81.5-22.5q-46 0-81 19t-59 54-36 85-12 112 12 112 36 85 59 54 81 19q48 0 81.5-22.5t48.5-73.5h10v308h76v-740h-76zm-117-28q24 0 45.5 7t37 20 25 31 9.5 40v208q0 22-9.5 40t-25 31-37 20-45.5 7q-63 0-96-39.5t-33-110.5v-104q0-71 33-110.5t96-39.5z"/><path transform="translate(113.79 14.35) scale(.014 -.014)" d="m252-12q-45 0-84 15t-67 48-44 84-16 123 16 123 44 84 67 48 84 15 82.5-15 63.5-48 40.5-84 14.5-123v-19h-331v-33q0-76 34.5-113.5t95.5-37.5q52 0 85 22.5t52 67.5l52-38q-24-53-70.5-86t-118.5-33zm0 476q-62 0-96-39t-34-115v-13h250v13q0 154-120 154z"/><path transform="translate(120.72 14.35) scale(.014 -.014)" d="m76 0v516h76v-84h10q15 48 46.5 72t85.5 24q69 0 108.5-47t39.5-145v-336h-76v331q0 62-25.5 95t-78.5 33q-46 0-78-28t-32-79v-352z"/><path transform="translate(127.9 14.35) scale(.014 -.014)" d="m219-12q-64 0-109.5 26t-77.5 72l53 44q27-38 58.5-58t75.5-20q45 0 71.5 22.5t26.5 64.5q0 34-17 55t-63 29l-39 7q-75 14-111.5 47t-36.5 100q0 39 12 67.5t34 47 52.5 27 66.5 8.5q58 0 97.5-20.5t68.5-59.5l-49-45q-17 24-45 42.5t-72 18.5q-91 0-91-83 0-38 19.5-55.5t63.5-25.5l39-7q79-14 112-49t33-95q0-75-43.5-117.5t-128.5-42.5z"/><path transform="translate(134.05 14.35) scale(.014 -.014)" d="m252-12q-45 0-84 15t-67 48-44 84-16 123 16 123 44 84 67 48 84 15 82.5-15 63.5-48 40.5-84 14.5-123v-19h-331v-33q0-76 34.5-113.5t95.5-37.5q52 0 85 22.5t52 67.5l52-38q-24-53-70.5-86t-118.5-33zm0 476q-62 0-96-39t-34-115v-13h250v13q0 154-120 154z"/><path transform="translate(140.98 14.35) scale(.014 -.014)" d="m372 84h-10q-15-51-48.5-73.5t-81.5-22.5q-46 0-81 19t-59 54-36 85-12 112 12 112 36 85 59 54 81 19q48 0 81.5-22.5t48.5-73.5h10v308h76v-740h-76zm-117-28q24 0 45.5 7t37 20 25 31 9.5 40v208q0 22-9.5 40t-25 31-37 20-45.5 7q-63 0-96-39.5t-33-110.5v-104q0-71 33-110.5t96-39.5z"/></svg>