<svg width="50.64" height="19.52" viewBox="0 0 50.64 19.52" xmlns="http://www.w3.org/2000/svg"><path transform="translate(0 14.976) scale(.016 -.016)" d="m198 0h-99v691h99z"/><path transform="translate(4.752 14.976) scale(.016 -.016)" d="M410 432 311 332V432H176V87H398V0H163L77 87V432L163 519H323Z"/><path transform="translate(11.472 14.976) scale(.016 -.016)" d="m434 0h-271l-86 87v345l86 87h185l86-87v-173l-86-86h-160l88 86h60v173h-160v-345h258z"/><path transform="translate(19.264 14.976) scale(.016 -.016)" d="m451 87-87-87h-173v86l-99-98v710l99 104v-345l62 62h111l87-87zm-99 0v345h-161v-345z"/><path transform="translate(27.696 14.976) scale(.016 -.016)" d="m434 0h-271l-86 87v345l86 87h185l86-87v-173l-86-86h-160l88 86h60v173h-160v-345h258z"/><path transform="translate(35.488 14.976) scale(.016 -.016)" d="m432 346-99-99v185h-147v-432h-99v519h99v-75l72 75h88l86-87z"/><path transform="translate(42.896 14.976) scale(.016 -.016)" d="m459 519-86-87h-210v-345h160v259h99v-519l-86-86h-284l85 86h186v249l-99-76h-73l-87 87v345l87 87z"/></svg>