<svg width="44.56" height="15.52" viewBox="0 0 44.56 15.52" xmlns="http://www.w3.org/2000/svg"><path transform="translate(0 12) scale(.016 -.016)" d="m170 0h-80v490h80z"/><path transform="translate(4.16 12) scale(.016 -.016)" d="m370 350-61-60h-169v-230h210v-60h-210q-29 0-49.5 20.5t-20.5 49.5v210q0 29 20.5 49.5t49.5 20.5z"/><path transform="translate(10.08 12) scale(.016 -.016)" d="m420 0h-280q-29 0-49.5 20.5t-20.5 49.5v210q0 29 20.5 49.5t49.5 20.5h210q29 0 49.5-20.5t20.5-49.5v-70l-70-70h-200l60 60h140v90h-210v-230h280z"/><path transform="translate(17.44 12) scale(.016 -.016)" d="m150 0h-70v510l70 70z"/><path transform="translate(21.12 12) scale(.016 -.016)" d="m405 0h-70v51l-60-51h-150q-29 0-49.5 20.5t-20.5 49.5v70q0 29 20.5 49.5t49.5 20.5h200l-60-59h-140v-91h210v230h-280l60 60h220q29 0 49.5-20.5t20.5-49.5z"/><path transform="translate(28.72 12) scale(.016 -.016)" d="m420 0h-70v290h-210v-290h-70v350h70v-50l50 50h160q29 0 49.5-20.5t20.5-49.5z"/><path transform="translate(36.56 12) scale(.016 -.016)" d="m420 0h-70v50l-50-50h-160q-29 0-49.5 20.5t-20.5 49.5v210q0 29 20.5 49.5t49.5 20.5h210v160l70 70zm-70 60v280l-50-50h-160v-230z"/></svg>