<svg width="52.219" height="26.109" viewBox="0 0 52.219 26.109" xmlns="http://www.w3.org/2000/svg"><path transform="translate(0 17.445) scale(.0078125 -.0078125)" d="m84 0-6 115 144 36q6 14 11 115.5t5 237.5v324q0 140-5 242t-11 112l-144 36 6 117h624l6-117-144-36q-5-9-8.5-59.5t-5.5-127.5-2-167v-324q0-131 4.5-233t11.5-120l144-36-6-115z"/><path transform="translate(6.2109 17.445) scale(.0078125 -.0078125)" d="m863-29-65 32 4 149-8 5q-58-100-128-139t-143-39q-119 0-221 60.5t-164.5 170-62.5 256.5q0 127 47.5 228.5t127.5 173 179.5 109 202.5 37.5q41 0 85.5-7.5t72.5-21.5q0 60-1 132t-3 135-5 96l-169 24-5 99 441 115 63-41q-6-141-12-259.5t-6-248.5l-3-528q0-111 5-178t10-124l152-32v-99zm-226 231q34 0 79 21.5t78 72.5v511q-31 38-71.5 53.5t-82.5 15.5q-105 0-172.5-88.5t-67.5-240.5q0-169 70.5-257t166.5-88z"/><path transform="translate(16.211 17.445) scale(.0078125 -.0078125)" d="m32 0-6 109 151 35q1 15 5 81t6 146l1 168q0 70-4.5 123t-12.5 111l-154 32v104l424 105 65-41q-6-73-10.5-146.5t-4.5-165.5v-290q0-74 4.5-142t8.5-85l151-35-7-109zm314 1192q-94 0-148 57t-54 133q0 75 54 132t148 57q95 0 146.5-57t51.5-132q0-76-51.5-133t-146.5-57z"/><path transform="translate(21.539 17.445) scale(.0078125 -.0078125)" d="m633-499-6 105 163 41q2 27 3.5 81.5t1.5 141.5l2 282-7 5q-57-103-126-140.5t-141-37.5q-120 0-221 60.5t-162.5 170-61.5 256.5q0 172 80.5 294.5t210 188 277.5 65.5q144 0 256-52l102 89h92q-3-60-5-142.5t-2.5-172-0.5-171.5l4-604q2-135 4.5-214.5t6.5-99.5l141-41-7-105zm2 701q32 0 77.5 21.5t76.5 72.5l1 515q-30 35-70.5 50t-79.5 15q-102 0-170-85.5t-68-243.5q0-169 70.5-257t162.5-88z"/><path transform="translate(31.344 17.445) scale(.0078125 -.0078125)" d="m32 0-6 109 147 35q3 27 6.5 91.5t6 144 2.5 150.5v288q0 105-1.5 207t-5 186.5-8.5 136.5l-167 22-4 101 443 115 65-41q-5-94-7.5-183.5t-3.5-203-2-279.5l-1-330q0-161 2-270.5t6-134.5l149-35-5-109z"/><path transform="translate(36.68 17.445) scale(.0078125 -.0078125)" d="m428-16q-106 0-182 44.5t-116.5 108.5-40.5 121q0 165 211 226l358 104v78q0 48-31 90.5t-80.5 69-104.5 26.5q-36 0-51-17.5t-17-63.5l-13-143q-114-22-188 8.5t-74 102.5q0 45 46 91t115 86.5 140.5 68 122.5 34.5q206 0 326-92.5t120-249.5l-7-311q0-64 4-99.5t14-57.5l151-28v-100l-153-65q-41-14-76-23t-68-9q-92 0-126 89l-41 105 47-10q-69-88-143.5-136t-142.5-48zm121 205q61 0 110 49v220l-146-26q-57-7-81-34t-24-69q0-52 42-96t99-44z"/><path transform="translate(45.625 17.445) scale(.0078125 -.0078125)" d="m852 193q-35-100-126-157t-203-57q-160 0-262 91t-102 277l6 505h-159v71l401 314h69l-5-325-5-538q0-94 46-133.5t128-39.5q83 0 154 60zm-489 659v146h427v-146z"/></svg>