<svg width="25.508" height="16.8" viewBox="0 0 25.508 16.8" xmlns="http://www.w3.org/2000/svg"><path transform="translate(0 13.3) scale(.007 -.007)" d="M66 0V68H161V1333H66V1400H407V1333H311V68H407V0Z"/><path transform="translate(3.304 13.3) scale(.007 -.007)" d="m34 0v68h97v912h-97v67h244v-113q2 18 21 47t56.5 52 92.5 23q57 0 90.5-28.5t49.5-62 18-48.5q6 28 31.5 60.5t67 55.5 95.5 23q88 0 131.5-74t43.5-182v-732h94v-68h-325v68h81v623q0 84-4.5 143.5t-21.5 90.5-56 31q-40 0-66-32.5t-38.5-85-13.5-111.5v-659h82v-68h-311v68h80v623q0 126-12 195.5t-71 69.5q-39 0-64-33t-36-87.5-12-116.5v-651h79v-68z"/><path transform="translate(10.871 13.3) scale(.007 -.007)" d="m404-20q-48 0-77 25.5t-43.5 59.5-17.5 59l-11-124h-238v68h106v1365h-106v67h258v-563q4 16 19 44.5t45 51.5 78 23q65 0 117-54t82.5-172.5 30.5-311.5q0-198-32.5-316t-87.5-170-123-52zm-25 99q30 0 52 27.5t36 82 21 136 7 189.5q0 99-6 179t-19.5 136.5-34.5 87-52 30.5q-30 0-53-30t-37-75-18-90v-400q3-63 16-126t36-105 52-42z"/><path transform="translate(15.869 13.3) scale(.007 -.007)" d="m324-22q-53 0-99.5 23t-75 87-28.5 186v706h-103v66h253v-756q0-91 12-139t33-65 48-17q38 0 65 38.5t41.5 102 14.5 139.5v631h-98v66h248v-978h91v-68h-223l-8 119q-4-28-25-60.5t-57.5-56.5-88.5-24z"/><path transform="translate(21.098 13.3) scale(.007 -.007)" d="m327-21q-72 0-124.5 43t-85.5 118.5-49 174.5-16 211q0 134 22.5 234t61 166 87.5 98.5 103 32.5q63 0 109.5-37.5t76.5-101.5 45-144.5 15-166.5q0-21-0.5-41.5t-1.5-40.5h-379v67h234q0 126-9 214.5t-30.5 135.5-59.5 47q-36 0-63.5-47t-42.5-142.5-15-243.5q0-109 6-201t21-160 42-105.5 68-37.5q62 0 96.5 36t47.5 70l59-34q-19-56-78.5-100.5t-139.5-44.5z"/></svg>