<svg width="187.12" height="19.562" viewBox="0 0 187.12 19.562" xmlns="http://www.w3.org/2000/svg"><path transform="translate(0 15.172) scale(.0078125 -.0078125)" d="m399 0q-8 0-22.5 0t-29.5-0.5-27.5-1-15.5-1.5q-7-1-14-2-6-1-12-2t-10-2q-2 0-6.5-1t-9.5-2.5-9-2.5-5-1h-60q-12 0-21.5-1.5t-18.5-1.5q-25 0-46.5 7.5t-38.5 32.5q7 18 19.5 24t29.5 14q1 1 7.5 4.5t14 7.5 14 7 7.5 3h22q3 0 9.5 3.5t8.5 3.5q4 2 15.5 4.5t25 5.5 25.5 5 17 3q25 18 32 39t15 52v182q0 3 1 8.5t2.5 12 2.5 12 2 8.5v270q2 64 3.5 104.5t3 65 2 37.5 0.5 22q0 20-1 40.5t-1 24.5q3 48 9.5 89.5t6.5 89.5q0 21-0.5 38.5t-2.5 33-6.5 31.5-13.5 35q-3 4-11.5 8.5t-18 9-18 8-12.5 3.5q-3 1-12 2.5t-19.5 2.5-20 2-11.5 2q-1 0-10.5 2.5t-11.5 4.5h-36q-15 0-20 1t-17 6q-14 5-25 14.5t-11 18.5v12q11 21 27 26t33 5q8 0 14-1t12-1q7 0 16 4t14 7h21q5-2 22-4t36.5-4.5 36.5-4 22-1.5q11-2 40.5-4.5t62-5 61.5-4.5 40-2q48 12 93.5 14t90.5 2h86q11-8 13.5-20.5t2.5-22.5q0-16-7.5-24t-19-11.5-24.5-4.5-25-2q-7 0-24.5-3t-24.5-6q-1 0-5-2t-9-4.5-9.5-5-5.5-3.5q-1 0-5.5-1t-9.5-2-10-3-6-3q-2 0-5.5-1t-7.5-2l-10-2q-3-3-8-7.5t-9.5-9.5-8.5-9-5-5q0-2-1-8t-2.5-13.5-2.5-14-1-9.5q-1-12-1.5-42t-1-63-0.5-62 0-41l-2-24v-152q-2-74-3.5-116.5t-3-65.5-2.5-32.5-1-15.5q-3-25-4-50t-3-51q-1-1-2-6.5t-2-12-2-12-1-7.5q0-5 1-22.5t2.5-38 2.5-38.5 1-22q0-5-1-21t-2.5-34-2.5-34-1-20v-45q0-15 0.5-32t5-32.5 13.5-27.5 26-17q3-1 12.5-2t21-1.5 22-1.5 13.5-2q5 0 18-4t27.5-8.5 27.5-9 19-7.5 7-8.5 1-10.5q0-14-7-24.5t-17-18-22.5-13.5-22.5-10h-9q-7 1-36.5 5.5t-63.5 10-63 10-36 4.5q0 1-9.5 1.5t-22 1-25 0.5-19.5 0z"/><path transform="translate(6.8594 15.172) scale(.0078125 -.0078125)" d="m1354 40q0 24 13 37.5t33.5 19 46 6.5 51 1 48 1.5 36.5 8.5q0 6 1.5 22.5t3.5 34.5 3.5 34.5 2.5 22.5q0 1 1 5.5t2.5 9.5 2.5 10 1 6v7q0 3-3.5 17.5t-3.5 48.5v80q5 9 7 19.5t2 21.5q0 28-4.5 54t-4.5 54v12q1 3 3 6 4 6 4 7 1 1 2 10t1.5 20 1.5 22 2 18v3q0 14-2.5 33.5t-11.5 32.5v175q2 1 4.5 6t2.5 9q0 3-3.5 12t-3.5 11v31q0 3 3 8l4 6q0 1-1 2t-3 5q-2 3-3 6v70q-1 3-3 11.5t-5 18.5-5 18.5-3 11.5q0 3-3.5 6t-4.5 5h-7q-3-3-8-8t-9.5-10-8.5-9-5-5q0 0-1-4.5t-2.5-9.5-2.5-9.5-1-5.5q-16-47-39-91.5t-48-84.5q-18-35-36-73t-38-73q-23-42-47.5-82.5t-42.5-85.5q-2-1-5.5-11t-3.5-13q-1-1-4.5-7.5t-7.5-14-7.5-14-4.5-7.5q-5-16-9-35t-14-36q-9-16-25.5-39t-27.5-44q0-2-2.5-11.5t-2.5-10.5q-2-3-8.5-12t-14.5-20-15.5-22-12.5-17l-5-6q0-2-1-7.5t-2-12-2.5-12-2.5-6.5q0-1-6-9.5t-8-12.5q-16-23-19.5-45t-11.5-47q0-2-3-8t-3-7q-2-2-5.5-12.5t-7.5-22.5-7.5-22-4.5-13q-2-9-9-12t-16-3q-7 0-16 9.5t-18 22-15.5 24.5-9.5 18q-10 34-17 68t-19 64q-3 3-8.5 14.5t-11.5 24.5-11.5 24.5-6.5 14.5q-2 2-5.5 11.5t-7.5 21-7.5 21.5-5.5 13q-4 12-8 19.5t-8.5 14.5-9 15-8.5 20q-12 18-18 38t-14 37q0 0-3 4t-7 9.5-7.5 10.5-6.5 8l-7 7q-1 2-4.5 12.5t-7.5 22.5-7 22.5-3 12.5q-8 15-20.5 30.5t-19.5 29.5q0 3-3.5 15t-3.5 15q-2 2-8 10.5t-6 13.5q-12 14-20 32t-15 37-13.5 38.5-15.5 37.5q0 2-3.5 7.5t-3.5 8.5q-15 29-25.5 63.5t-27.5 65.5l-7 6q-13 18-21.5 35t-16 34.5-14.5 35-17 35.5h-9q-2 0-7-4.5t-7-6.5q-16-23-29-56.5t-18-62.5v-156q0-1-1-7.5t-2.5-14-2.5-14-1-7.5v-7q0-3 1-14.5t2.5-24.5 2.5-24.5 1-14.5q0-11 2-34t2-50q0-28-2-51t-2-33q3-2 5.5-10.5t5.5-13.5v-5q0-18-9-33.5t-9-35.5q0-4 1-16t2.5-24.5 2.5-23 1-12.5q0-7 2-18t2-19q0-29-2.5-54t-2.5-55q0-34 2-66t10-62q1-9 7-15.5t13.5-11 15.5-7.5 14-5q3 0 15.5-1t27-2.5 27-3.5 15.5-4q12-1 26.5-3t27-7 21.5-15 9-27q0-10-8.5-16.5t-20-11-23-6.5-17.5-2h-342q-16-5-24-7t-21-2q-17 0-36 2t-34 7q-6 2-14 7t-8 7q-12 13-12 26 0 6 2.5 13.5t9.5 13.5q0 6 24 9.5t54.5 9.5 58.5 16 36 28q2 3 3 8t2.5 11 4 12 6.5 9q2 2 4.5 11.5t5 20 4 20 1.5 12.5q1 8 2.5 29t3.5 44 3.5 44 1.5 30q0 4 2.5 12t2.5 10v9q-2 3-3 7-2 8-2 8v7q10 32 10.5 64t2.5 64q0 3 1 8.5t2.5 12 2.5 12 1 7.5q1 9 2 33t2 51 2 50.5 1 31.5l7 19q3 70 12.5 136t11.5 137l7 6v29q0 22-3.5 41.5t-3.5 41.5v2q0 4 3.5 9.5t3.5 7.5v36q0 26-7 41.5t-20 24.5-31 14.5-39 11.5q-5 3-16.5 6.5t-24.5 7.5-25 8.5-18 7.5q-5 2-9.5 11.5t-4.5 14.5q0 6 4 11t9.5 9.5 11 7 9.5 3.5h101q57 0 112.5-5.5t112.5-5.5q10 0 20 1t21 1q20 0 35-14t25.5-33.5 18.5-40.5 15-35q0-1 3-7.5t7-14 7.5-14.5 4.5-9q0-1 1-5.5t2.5-9.5 2.5-9 1-5q0-2 3.5-8t7.5-12.5 7.5-12 3.5-5.5q1-3 4.5-15t7.5-24.5 7-23.5 4-13q3-5 9-18.5t13.5-28.5 14.5-28.5 11-20.5q0-1 6-6.5t8-6.5q1-3 3-6 4-6 4-8 9-25 18-50.5t22-50.5q0-1 6-7t8-8 6-9.5 8.5-17.5 9-19.5 7.5-14.5q0-1 3.5-10t3.5-14q4-16 8.5-27t10.5-20 13-19 15-24q0-1 2.5-5.5t5-9 4.5-9 3-5.5q14-35 32.5-72t29.5-74q0-1 1-6.5t2-12 2.5-12.5 1.5-7 3.5-6 8.5-11 10-12 9-9q8-11 16.5-17.5t22.5-6.5q4 0 10.5 7t13 16 12.5 18 8 14q14 23 21 47.5t16 51.5l8 5q0 3 1 8t2.5 10 2.5 9 1 4q0 3 2 9t5 12 5.5 11 3.5 6 4.5 5.5 7 10.5 7 10.5 3.5 5.5q1 0 2.5 5t2.5 10.5 1.5 10 0.5 5.5q2 3 6.5 11t9.5 17.5 9.5 18 6.5 13.5q29 52 55 107.5t52 107.5q1 1 4.5 6.5t7.5 12 7.5 12 4.5 7.5 4 8.5 7 14 7 14 3 8.5q16 30 28 61.5t25 61.5q0 2 3.5 11t3.5 11q2 2 12.5 11t12.5 13q0 1 1 5t2 8.5 2 9 1 5.5q3 7 8.5 16t11.5 17.5 11 16 8 12.5q7 12 12 25t11 25.5 13 23.5 19 18q5 4 17 9t14 5h189q4 2 15.5 5.5t15.5 3.5h7q11 0 23-4.5t23-4.5q9 0 18.5 4.5t18.5 4.5h8q4 0 14-1t21-2.5 21-3 14-2.5q6-2 7-7t1-9q0-11-2-18t-6-18q-3-1-9.5-3.5t-13.5-4.5-13.5-4-8.5-2q-8-1-26.5-2.5t-39-3-39-2.5-25.5-1q-14-13-27-30.5t-13-39.5v-212q2-29 9-56t7-56v-22q0-7-0.5-13.5t-5.5-12.5v-213q5-12 5.5-19.5t0.5-18.5v-18q-5-38-15-75t-10-80q0-11 3-20t6.5-18 6.5-19 3-23v-244q1-2 5.5-7.5t9-11.5 9-11.5 6.5-7.5q10-12 29-16t41-5 45-1.5 41.5-6.5 30.5-19.5 12-39.5q0-23-18.5-32.5t-38.5-9.5h-21q-2 0-7.5 1t-12 2.5-11.5 3-5 2.5q-5 0-20.5 0.5t-34 1.5-35.5 2.5-25 2.5q-14 0-23 1t-27 6h-50q-55 0-109-3.5t-109-3.5h-81q-8 0-17.5 2.5t-17.5 7.5-13.5 12.5-5.5 17.5z"/><path transform="translate(26.797 15.172) scale(.0078125 -.0078125)" d="m85 31q0 16 8.5 26t22 15 31.5 7 37 2q14 0 27.5-0.5t27.5-0.5q21 0 38 4.5t28 21.5v51q0 9 1 31t2.5 46.5 3 46 1.5 30.5q2 3 4.5 10t2.5 9-1 10-2 9l-4 113q2 7 3 18.5t1 17.5q0 8-0.5 12t-1.5 7.5-1.5 8-0.5 14.5v65q0 4-1.5 22t-3 38.5-2.5 39-1 23.5v135q0 1-1.5 8t-3 15-3 14.5-1.5 7.5v30q0 3 1.5 10.5t3 16.5 3 16.5 1.5 9.5v242q-2 38-13.5 59t-45.5 31q0 2-3.5 2t-5.5 0q-11 0-20-4t-20-4h-12q-7 0-20 1t-26.5 2-24 2-12.5 1q-11 5-18.5 15t-7.5 24q0 5 1.5 12.5t3.5 12.5q3 5 9.5 15.5t11.5 12.5q2 0 9 0.5t14.5 0.5 14.5 0.5 9 0.5q23 0 44.5-1t43.5-8h142q125 0 251 3.5t254 3.5h147q4 0 22.5-1t39.5-2.5 39-2.5 22-1h74q3 0 10.5-1t16.5-2.5 16.5-3 10.5-3.5q6-1 9.5-6.5t5-12.5 2-14.5 0.5-11.5q0-5-1.5-16.5t-1.5-13.5q0-6-2-32t-4.5-55-4.5-54.5-3-31.5v-74q0-11-7.5-18.5t-16.5-7.5q-12 0-19.5 9t-13.5 21-11 25-10 21q0 2-2.5 4t-4.5 4q-4 3-7 6-1 3-4 9t-6.5 12-6.5 11-5 6q-11 26-27 56t-39 46q-1 0-6 1t-10.5 1.5-10.5 1.5-6 1q0 1-5.5 4.5t-12.5 7.5-13 7.5-7 5.5q0 1-6 3t-8 4q-6 0-24.5 2.5t-39.5 5-39.5 5-25.5 4.5q-3 0-13.5 2.5t-14.5 4.5q-32 1-64 2t-64 1-62.5-1-62.5-2q-7-2-14-6-6-3-12-6.5t-10-5.5q-15-6-25.5-20.5t-17-31.5-9-35.5-2.5-33.5v-4q0-3 2-3 0-1 1-7.5t2.5-14.5 2.5-15 1-8q1-10 1.5-34.5t1-52.5 1-52.5 0.5-34.5l1-23v-173l9-22q1 0 8-1t16.5-2.5 19-2.5 15.5-1h17q52 0 106 7t105 14q34 6 63 15t56 24q9 13 15.5 37t11.5 52 9.5 57 9.5 52.5 11 39.5 14 18h21q16 0 25-6.5t14-17.5 6.5-24.5 1.5-27.5q0-2-1-8.5t-2.5-14.5-2.5-14.5-1-8.5v-128q0-2-1-11t-2.5-19-3-18.5-2.5-10.5v-184q1-3 2-11.5t2-18.5 2-19 3-13q1-2 3-5 1-5 4-7v-7q-1-2-2-7.5t-2-12-2-12-1-8.5q-2-10-2-21.5t-3-21.5-10.5-17-22.5-7q-21 0-30.5 14.5t-12.5 34-2.5 39.5-1.5 31q0 0-2 4-1 1-1 3-8 17-11 37.5t-14 33.5q-2 4-8 10t-12.5 12-11.5 10.5-6 5.5q-3 2-14 5t-23.5 7-25 7-18.5 5q-6 0-26.5 1.5t-45 4-48.5 4.5-36 2h-51q-3 0-12 3.5t-11 5.5h-9q-1-2-6.5-5.5t-6.5-3.5q-4-1-14-4t-20.5-6.5-20-6.5-13.5-5v-76q0-2 4.5-11t4.5-12v-83q0-1 2.5-13.5t2.5-13.5q0-2-2.5-9t-2.5-9q-3-4-6-12t-3-10v-267q0-5 5.5-16t8.5-13q1-1 7-2t13.5-2.5 15-2.5 11.5-2h72q10 0 23.5-3.5t25.5-9.5 20.5-14.5 8.5-20.5q0-18-17.5-29t-35.5-11h-239q-3 0-9 1t-13.5 2-15 2-11.5 2l-6 4q-2 2-4.5 3.5t-3.5 1.5h-6q-55-14-107-18.5t-106-4.5h-45q-17 2-25 16.5t-8 28.5z"/><path transform="translate(36.938 15.172) scale(.0078125 -.0078125)" d="m64 0q0 4-5.5 11.5t-6.5 12.5v5q2 4 9 12t15.5 16.5 16 15.5 10.5 10q2 2 13.5 4.5t16.5 2.5h71q3 0 8.5 1.5t11 3 10 3.5 4.5 2q14 7 16.5 22.5t2.5 29.5v16q0 35-1.5 66.5t-1.5 66.5v7q0 3 1 11t2.5 17.5 3.5 17.5 3 11v436q0 20-7 32t-18 18.5-25.5 8.5-30.5 2h-41q-28 0-47 7t-19 34q0 9 0.5 16t4.5 19q48-2 94 3t93 5h26q4-1 16.5-2t26-2 25.5-2 17-2h470q30 0 43-15.5t19-38.5v-116q0-6-2-21.5t-4.5-33-5-34-3.5-23.5q-2-3-7-8.5t-7-5.5q0-2-2-2h-4q-3 0-3 2-17 12-26 27.5t-15 32.5-11 34-15 32q-2 4-12.5 13.5t-11.5 10.5q-2 2-8.5 11t-14 19.5-14 19.5-8.5 11q-4 9-9 9-1 0-6.5 1t-12 2.5-12 2.5-5.5 2q-3 0-11 2t-17.5 4-17.5 4.5-10 3.5h-5q-4 0-11-2.5t-10-2.5h-3q-3 1-16.5 2t-29.5 1.5-29.5 1-16.5 0.5h-3q-18 0-30-7t-19.5-18-13-24.5-10.5-26.5q-1-11-3.5-36t-5-53-4.5-53-2-35v-13q0-5 1-17t2-25.5 2.5-26 2.5-16.5q7-9 16.5-18t20.5-12h55q34 0 59.5 1t61.5 6q1 2 3 7t5 10 5 9 3 5q4 7 10 20.5t12 27 10.5 23.5 5.5 11q2 4 4 17.5t4 15.5q8 9 21 12t26 3q14 0 17.5-10.5t3.5-23.5v-37q0-9-2-17.5t-7-16.5q-1-9-2-30t-2-44-2-43.5-1-28.5v-86q-1-2-2-9t-1.5-15.5-1.5-16.5-2-11q-11-8-19.5-12t-20.5-4q-8 0-15 6.5t-13 16.5-10 20.5-5 19.5q-1 3-2.5 13.5t-2.5 23-2 23.5-1 16q-3 4-10.5 7.5t-14.5 7.5q-6 2-19 5t-27.5 5.5-27 4-16.5 1.5q-3 0-10.5 0.5t-17 0.5-18.5 0.5-14 0.5q-3 0-9.5-0.5t-13-0.5-11.5-0.5-6-0.5l-14-16v-34q0-59-4-113.5t-4-113.5q0-30 5-44t16-20 28-9 42-10q2 0 7-3t7-6h152q2 0 9 1.5t15 3 14.5 3 8.5 1.5h67q2 0 7 3.5t10.5 8 9.5 8.5 5 4q7 3 11.5 3.5t7.5 1 6 3 6 8.5q11 16 16 33t13 34q4 3 10 12.5t7 12.5q1 0 6 3.5t10 8 9 9 5 6.5q1 3 4.5 8.5t7.5 12 7.5 12 4.5 7.5q0 1 3 4 2 1 4 3 0 2 1 2h2q15 0 18-11.5t3-23.5v-21q0-5 1-24t1.5-40.5 1.5-40.5 1-23v-3q0-13-5-29.5t-14-31.5-21.5-25-26.5-11q-7 1-25.5 2t-39.5 2-40 2-27 3h-36q-5-2-23-3.5t-38.5-2.5-39-2-22.5-1h-379q-3-1-9.5-2t-14-1.5-14.5-1-10-0.5q0-2-7-2t-13 1-8 1q-4-3-16-7t-17-4-16.5 2-24.5 4.5-25 5-18 4.5z"/><path transform="translate(45.312 15.172) scale(.0078125 -.0078125)" d="m157 0q-2 0-11.5-2.5t-10.5-2.5h-4q-13 0-25.5 1t-22 5-15.5 12-6 22v15q1 10 24.5 14.5t52.5 6 55 3 31 7.5q1 5 2 9t2 7 1 5q0 4 1.5 12.5t3 18 2.5 17.5 1 11q0 8 1 33.5t2 55.5 2 58 1 40q0 5 0.5 18.5t0.5 29.5-0.5 29-0.5 20l5 13q0 1 1 20.5t2.5 46.5 3 55 1.5 46v139q0 4-1.5 12t-2.5 16.5-2.5 15-1.5 8.5q-5 15-19.5 21.5t-34 9.5-41 3.5-39.5 3.5-29.5 10.5-11.5 23.5q0 9 6 16.5t14 13.5 17.5 9.5 16.5 3.5q14 0 34-4t31-2q3 0 12 1t19.5 2 20 2 12.5 1q5 0 23-1t38.5-2 38.5-2.5 23-2.5h21q2 1 9 2.5t14.5 2.5 14 2 7.5 1h50q1 0 7 1t12.5 2 12 2 6.5 1h4q2 0 3.5 0.5t3.5 0.5q12 0 24-1t22-4.5 16.5-11.5 6.5-22q0-3-2-8.5t-2-7.5q-8-5-25-14.5t-28-11.5q-4 0-17.5-1.5t-28.5-3-28-3-16-1.5q-8-1-13.5-6.5t-7.5-13.5q-9-45-11.5-89t-2.5-90v-128q0-1-1.5-11.5t-3-23-3-23.5-1.5-14v-210q0-3-1-13t-2-21-2-20-1-11v-14q0-2 3-10.5t3-10.5-3-6.5-3-7.5q-1-3-1-6-1-2-1-4.5t0-4.5q0-19 11.5-35.5t29.5-16.5h6q29 5 60.5 9.5t60.5 4.5h169q4 0 13.5 1t18.5 2 16 2.5 8 2.5q2 1 8 6.5t13.5 13 14 14.5 9.5 11q0 1 2 5.5t4 9 4 8.5 3 5q0 1 3.5 3.5t7.5 5.5 7.5 5 4.5 2l5 5q2 1 8 11.5t6 12.5q4 4 10.5 12.5t14 18 13.5 18 9 11.5q4 5 5.5 6t9.5 1q16 0 25-12.5t13-29.5 4.5-34.5 0.5-28.5q0-5 0-12t0-14-0.5-12-0.5-5q0-2-3-10.5t-3-10.5q-2-23-2-39.5t-4.5-28.5-16-20-37.5-14q-9-1-33-1.5t-51.5-0.5-52 0-34.5 0q-18 0-46 0t-54.5 0-46.5 0.5-21 1.5q-5 0-19.5 0.5t-32 1-34 1.5-25.5 2q-1 0-6 1t-11 2-11 2-6 2h-16q-5-1-20-2t-32-2-32.5-2-19.5-1h-67q-2 0-13.5-2.5t-12.5-2.5q-7-4-16.5-4.5t-14.5-0.5q-3 0-12 1.5t-19.5 3.5-19.5 3.5-10 1.5z"/><path transform="translate(53.516 15.172) scale(.0078125 -.0078125)" d="m157 0q-2 0-11.5-2.5t-10.5-2.5h-4q-13 0-25.5 1t-22 5-15.5 12-6 22v15q1 10 24.5 14.5t52.5 6 55 3 31 7.5q1 5 2 9t2 7 1 5q0 4 1.5 12.5t3 18 2.5 17.5 1 11q0 8 1 33.5t2 55.5 2 58 1 40q0 5 0.5 18.5t0.5 29.5-0.5 29-0.5 20l5 13q0 1 1 20.5t2.5 46.5 3 55 1.5 46v139q0 4-1.5 12t-2.5 16.5-2.5 15-1.5 8.5q-5 15-19.5 21.5t-34 9.5-41 3.5-39.5 3.5-29.5 10.5-11.5 23.5q0 9 6 16.5t14 13.5 17.5 9.5 16.5 3.5q14 0 34-4t31-2q3 0 12 1t19.5 2 20 2 12.5 1q5 0 23-1t38.5-2 38.5-2.5 23-2.5h21q2 1 9 2.5t14.5 2.5 14 2 7.5 1h50q1 0 7 1t12.5 2 12 2 6.5 1h4q2 0 3.5 0.5t3.5 0.5q12 0 24-1t22-4.5 16.5-11.5 6.5-22q0-3-2-8.5t-2-7.5q-8-5-25-14.5t-28-11.5q-4 0-17.5-1.5t-28.5-3-28-3-16-1.5q-8-1-13.5-6.5t-7.5-13.5q-9-45-11.5-89t-2.5-90v-128q0-1-1.5-11.5t-3-23-3-23.5-1.5-14v-210q0-3-1-13t-2-21-2-20-1-11v-14q0-2 3-10.5t3-10.5-3-6.5-3-7.5q-1-3-1-6-1-2-1-4.5t0-4.5q0-19 11.5-35.5t29.5-16.5h6q29 5 60.5 9.5t60.5 4.5h169q4 0 13.5 1t18.5 2 16 2.5 8 2.5q2 1 8 6.5t13.5 13 14 14.5 9.5 11q0 1 2 5.5t4 9 4 8.5 3 5q0 1 3.5 3.5t7.5 5.5 7.5 5 4.5 2l5 5q2 1 8 11.5t6 12.5q4 4 10.5 12.5t14 18 13.5 18 9 11.5q4 5 5.5 6t9.5 1q16 0 25-12.5t13-29.5 4.5-34.5 0.5-28.5q0-5 0-12t0-14-0.5-12-0.5-5q0-2-3-10.5t-3-10.5q-2-23-2-39.5t-4.5-28.5-16-20-37.5-14q-9-1-33-1.5t-51.5-0.5-52 0-34.5 0q-18 0-46 0t-54.5 0-46.5 0.5-21 1.5q-5 0-19.5 0.5t-32 1-34 1.5-25.5 2q-1 0-6 1t-11 2-11 2-6 2h-16q-5-1-20-2t-32-2-32.5-2-19.5-1h-67q-2 0-13.5-2.5t-12.5-2.5q-7-4-16.5-4.5t-14.5-0.5q-3 0-12 1.5t-19.5 3.5-19.5 3.5-10 1.5z"/><path transform="translate(65.164 15.172) scale(.0078125 -.0078125)" d="m98 761q1 8 3 27.5t3 41.5q3 20 5.5 37t5.5 33q2 1 2.5 3t2.5 4q1 2 4 11.5t6.5 21 7 21 5.5 11.5q9 23 19 40t19 33q5 8 10 16t12 19q7 8 12 25 5 14 13 27.5t22 24.5q16 9 23 19t15 21q4 5 11.5 13t28.5 30q6 7 12.5 14.5t13.5 11.5q8 6 12 8t7 4q4 3 8 7t10 10 15 16q4 5 17 11t45 22q-2 2 9 8.5t22 14.5q12 6 22.5 10.5t22.5 6.5q1 0 6 1.5t11 4 12 5.5 9 6q2 0 3.5 0.5t12.5 3.5h22l33 5q43 7 82.5 12t81.5 5h11q22 0 49-1t48-7q0 0 4-1t8.5-2.5 9-3 5.5-2.5q2-1 11-2.5t20-3 20.5-3.5 12.5-3q2-2 8.5-4t17.5-7q8-4 15-7t9-5q3-1 5.5-1t6.5-2q5-2 8-3t5-1q6-4 21.5-11.5t32.5-16.5 33.5-17 24.5-12q2-1 5.5-2t8.5-1q8 0 12 5.5t7 11.5q5 14 11 25t13 22q7 8 10.5 10t17.5 2q16 0 25.5-12t14.5-28.5 6.5-34.5 1.5-29q0-25-1-50.5t-4-51.5q-3-44-3-93v-25q-2-4-4.5-9.5t-11.5-12.5q-7-7-12-11.5t-16-4.5q-10 0-24 5.5t-19 17.5q-17 36-33 67.5t-34.5 60.5-41 56.5-52.5 55.5q-30 25-66 38.5t-74 24.5q-5 2-10 5-23 5-41.5 6t-41.5 1q-51 0-100-21.5t-96-46.5q-5-6-15.5-11.5t-22.5-10.5q-11-7-18-11t-10-6l-31-30q-6-9-13-15.5t-9-8.5q-3 0-4.5-2t-6.5-3q-6-4-7-4.5t-3-0.5q-11-12-23-29.5t-20-33.5q-1-1-11-19-6-9-13-21t-14-23.5-13.5-22-9.5-16.5q-21-39-34-88t-20.5-100-10-101-2.5-91q0-55 5.5-108t23.5-107q1-1 4-6t5.5-11.5 5-12 2.5-6.5q5-14 10-26.5t8-23.5q5-16 11.5-31.5t14.5-29.5q17-33 47-65.5t66-60.5 74.5-49 73.5-29q4 0 15-1t23-1h35q9 0 27.5 1t32.5 1h16q2 0 13 3.5t25 8.5 28.5 10.5 23.5 8.5q15 6 27.5 17t22.5 24.5 16 29.5 6 31v178q0 1 1 9.5t2.5 20.5 3 25 2.5 25q2 23 3.5 42t1.5 24v55q0 9-1.5 18.5t-3.5 14.5q-4 2-20.5 10.5t-29.5 13.5q-3 2-5.5 2.5t-5.5 2.5q-8 2-18.5 3t-24.5 2q-15 1-30.5 3t-28.5 5.5-21 10-8 18.5q0 2 1 4t1 4l5 14q2 4 9 10.5t10 8.5h145q1 0 8 1t14.5 2.5 14 2.5 8.5 1h9q2 0 12.5-3.5t16.5-3.5h61l29-3q16-2 29.5-3.5t17.5-1.5q9-2 33-2t50 0q27 0 50.5 0t32.5 2q8-1 18-5.5t18.5-11 14.5-15.5 6-19l-10-12q-4-1-12.5-5.5t-10.5-6.5q-6-2-21-2.5t-31-2.5q-13-2-24.5-2.5t-16.5-0.5q-26-3-41.5-9t-20.5-33q-10-48-11.5-97t-1.5-97q0-18 0-38t-1-40q-2-4-3.5-19.5t-2.5-33.5-2-34-1-20q0-5 0.5-13.5t3-17 7.5-15 13-6.5 15.5 2.5 15.5 4.5q10 2 18.5 4.5t19.5 2.5q16 0 18.5-8t2.5-20-7.5-23-18.5-21-23.5-17-22.5-11q-2 0-5-1t-11-3q-7-1-13-3t-8-2q-9-4-19.5-7.5t-21.5-7.5q-9-3-18-7.5t-17-6.5q-4 0-15-2.5t-13-4.5q-86-17-175.5-31t-183.5-14q-3 1-6 3-2 2-4.5 2.5t-3.5 2.5q-4 0-12.5 1t-17.5 1q-10 2-19.5 3t-11.5 1q-11 1-30.5 4.5t-40.5 8.5q-22 3-40 6t-20 5q-20 4-41.5 16t-41.5 24q-9 5-19 10t-18 12q-26 9-46 20t-45 34q-6 4-17 15t-24 24-26 26.5-23 24.5l-16 14q3 0-6 9t-13 18q-2 5-2.5 8.5t-2.5 5.5q0 2-5 13t-7 13-7 6.5-10 10.5q-7 8-10.5 14t-5.5 9q-39 79-56.5 161t-17.5 171z"/><path transform="translate(76.797 15.172) scale(.0078125 -.0078125)" d="m393 661q0-10 0-27t0.5-33.5 1-30 2.5-15.5q0 0 0.5-6.5t1-15 1.5-17 2-13.5q1-13 4-29t20-24q3-1 9-1.5t12.5-0.5 12.5 0 9 0q52 0 99.5 28t85.5 67q22 32 26.5 74t4.5 80v59q-8 29-26 59.5t-43 47.5q-2 0-10.5 2.5t-10.5 4.5q-6 3-17 7.5t-15 6.5q-14 2-27.5 3.5t-26.5 1.5-26.5-1.5-27.5-3.5q-7-1-14.5-6t-13.5-11.5-10-14-5-13.5q-1-7-3.5-20t-5-26.5-4.5-24-2-12.5q-2-1-2.5-12t-1-26-0.5-31 0-26zm-332-642q0 16 22.5 22.5t50.5 11 53.5 10.5 30.5 20q1 9 3 31t5 46.5 5.5 45.5 4.5 29v11q0 35-3.5 71t-3.5 72v14q0 3 1 16t2.5 27.5 2.5 26.5 1 15q0 1 0 17.5t0.5 38.5 0.5 45 0 37q0 8 0 27t-0.5 40.5-0.5 41 0 28.5q0 25-10 43.5t-22 39.5q-7 12-28.5 17.5t-44 9-40.5 9-18 19.5q0 5 5.5 14.5t11.5 13.5h61q4 1 19 2.5t31.5 3 31 2.5 18.5 1h69q1 0 6.5 1t12 2.5 12 3 7.5 1.5h23q2 0 8.5-0.5t14-1 14-1 8.5-0.5q3 0 14 0.5t24 1 25 1 15 0.5h74q1 0 7-1.5t12.5-2.5 12-2 6.5-1q2 0 11 0t19.5-0.5 20-0.5 12.5 0q9-2 25.5-11t25.5-14q2 0 9.5-1.5t15.5-3.5 15-4 9-3q38-29 57.5-69.5t30.5-85.5q2 0 2-4t0-8q0-24-2.5-50t-8.5-51.5-16.5-48.5-26.5-41q-16-20-38-41t-47-28q-5-3-14.5-5t-20-6-18-10.5-7.5-16.5q0-12 14-36.5t32-51 36-49.5 27-33q1-3 10-15t21-26.5 24-28.5 19-21q5-5 7-9 10-7 25-19.5t29.5-24.5 26-21 13.5-9q0-1 4.5-4t10.5-7 12-7.5 11-4.5q5-3 15.5-8t20.5-11.5 17-14 5-14.5q0-5-5.5-9t-13-6.5-15-4-11.5-1.5h-297q-9 0-20.5 0.5t-22 3.5-18 10-7.5 21q0 7 8 14.5t18.5 14.5 21 14 15.5 14v8q-3 4-7 11t-7.5 14.5-6.5 13-3 6.5q-3 3-13 16.5t-22 28.5-22 28-13 17q-18 25-35 45t-35 38-38.5 34.5-45.5 36.5q-8 7-14.5 15t-18.5 8h-5q-2-2-3-4-2-4-2-5-1-11-3.5-39t-5-59.5-4.5-60-2-38.5q-3 0-3.5-7t-0.5-9q0-4 0.5-9.5t3.5-5.5q0-5 2-17t4.5-25.5 5-25 3.5-15.5q0-3 2.5-9t6-12 7-11 5.5-5h71q0-2 1-4 3-5 4-6 7-9 8-12t1-12q0-11-10.5-15t-21.5-6h-43q-65 0-128-3.5t-130-3.5h-88q-14 0-25 5t-11 21z"/><path transform="translate(85.07 15.172) scale(.0078125 -.0078125)" d="m64 0q0 4-5.5 11.5t-6.5 12.5v5q2 4 9 12t15.5 16.5 16 15.5 10.5 10q2 2 13.5 4.5t16.5 2.5h71q3 0 8.5 1.5t11 3 10 3.5 4.5 2q14 7 16.5 22.5t2.5 29.5v16q0 35-1.5 66.5t-1.5 66.5v7q0 3 1 11t2.5 17.5 3.5 17.5 3 11v436q0 20-7 32t-18 18.5-25.5 8.5-30.5 2h-41q-28 0-47 7t-19 34q0 9 0.5 16t4.5 19q48-2 94 3t93 5h26q4-1 16.5-2t26-2 25.5-2 17-2h470q30 0 43-15.5t19-38.5v-116q0-6-2-21.5t-4.5-33-5-34-3.5-23.5q-2-3-7-8.5t-7-5.5q0-2-2-2h-4q-3 0-3 2-17 12-26 27.5t-15 32.5-11 34-15 32q-2 4-12.5 13.5t-11.5 10.5q-2 2-8.5 11t-14 19.5-14 19.5-8.5 11q-4 9-9 9-1 0-6.5 1t-12 2.5-12 2.5-5.5 2q-3 0-11 2t-17.5 4-17.5 4.5-10 3.5h-5q-4 0-11-2.5t-10-2.5h-3q-3 1-16.5 2t-29.5 1.5-29.5 1-16.5 0.5h-3q-18 0-30-7t-19.5-18-13-24.5-10.5-26.5q-1-11-3.5-36t-5-53-4.5-53-2-35v-13q0-5 1-17t2-25.5 2.5-26 2.5-16.5q7-9 16.5-18t20.5-12h55q34 0 59.5 1t61.5 6q1 2 3 7t5 10 5 9 3 5q4 7 10 20.5t12 27 10.5 23.5 5.5 11q2 4 4 17.5t4 15.5q8 9 21 12t26 3q14 0 17.5-10.5t3.5-23.5v-37q0-9-2-17.5t-7-16.5q-1-9-2-30t-2-44-2-43.5-1-28.5v-86q-1-2-2-9t-1.5-15.5-1.5-16.5-2-11q-11-8-19.5-12t-20.5-4q-8 0-15 6.5t-13 16.5-10 20.5-5 19.5q-1 3-2.5 13.5t-2.5 23-2 23.5-1 16q-3 4-10.5 7.5t-14.5 7.5q-6 2-19 5t-27.5 5.5-27 4-16.5 1.5q-3 0-10.5 0.5t-17 0.5-18.5 0.5-14 0.5q-3 0-9.5-0.5t-13-0.5-11.5-0.5-6-0.5l-14-16v-34q0-59-4-113.5t-4-113.5q0-30 5-44t16-20 28-9 42-10q2 0 7-3t7-6h152q2 0 9 1.5t15 3 14.5 3 8.5 1.5h67q2 0 7 3.5t10.5 8 9.5 8.5 5 4q7 3 11.5 3.5t7.5 1 6 3 6 8.5q11 16 16 33t13 34q4 3 10 12.5t7 12.5q1 0 6 3.5t10 8 9 9 5 6.5q1 3 4.5 8.5t7.5 12 7.5 12 4.5 7.5q0 1 3 4 2 1 4 3 0 2 1 2h2q15 0 18-11.5t3-23.5v-21q0-5 1-24t1.5-40.5 1.5-40.5 1-23v-3q0-13-5-29.5t-14-31.5-21.5-25-26.5-11q-7 1-25.5 2t-39.5 2-40 2-27 3h-36q-5-2-23-3.5t-38.5-2.5-39-2-22.5-1h-379q-3-1-9.5-2t-14-1.5-14.5-1-10-0.5q0-2-7-2t-13 1-8 1q-4-3-16-7t-17-4-16.5 2-24.5 4.5-25 5-18 4.5z"/><path transform="translate(93.445 15.172) scale(.0078125 -.0078125)" d="m314 396q0-14 13-20t24-6h53q11 0 22-1t22-1q26 0 45 8.5t19 38.5v17q-9 46-27 91.5t-34 88.5q-2 7-5.5 15.5t-8.5 16-11 12.5-13 5q-13 0-20.5-11t-12-26-7.5-30.5-7-24.5q-3-9-10.5-32t-15.5-48.5-15.5-48.5-10.5-32zm-233-391h-5q-2 0-10-1.5t-18-3-18.5-2.5-10.5-1h-6q-6 0-10 5t-6 11.5-2.5 13-0.5 8.5v3q0 18 12.5 24t24.5 11q2 0 10 3.5t17.5 7.5 17.5 7.5 10 5.5q1 1 6 5.5t11 10.5 11.5 12 9.5 10q1 2 3 5 4 6 4 9 0 2 2.5 12t4.5 12q27 54 54 109.5t51 111.5q3 3 8.5 17.5t7.5 20.5q1 2 5 12.5t8 22 7.5 21.5 3.5 12q1 3 6.5 14t12 24 12 25 7.5 15q8 18 15.5 32.5t14.5 34.5q4 8 10.5 18t12.5 21.5 10.5 22.5 4.5 21v14q0 4-2.5 13.5t-2.5 10.5q0 7 8 18t12 14q2 1 9.5 4t15.5 7 14.5 7 7.5 4q2 2 8 8t13.5 13.5 14 15 9.5 10.5q1 1 4 6.5t7 11 9 10 11 3.5q10-3 17.5-18t13-32.5 9.5-34 7-22.5q1-5 3.5-14t5-18 4.5-16 2-8q1-3 3-14t4.5-24 4.5-23.5 2-12.5q1-3 5.5-19t10.5-37 12-41.5 10-32.5q8-27 20-53.5t18-53.5q5-23 6.5-36.5t9.5-32.5q1-2 4.5-8.5t7.5-14 7-14.5 4-10q0-2 1-7t2.5-11.5 2.5-12 2-7.5q0-1 2-6.5t5-12 5.5-12 3.5-5.5q5-26 13-56t25-53q8-12 29.5-20t44-16 39.5-18 17-26q0-17-8.5-26.5t-21.5-14.5-29-6-30-1h-41q-16 0-56 1t-85.5 2.5-86 3-56.5 1.5q-11 4-13 9.5t-2 16.5v7q0 2 1 4 9 19 25 25.5t33.5 10.5 34.5 9.5 28 23.5l2 7-2 7q-1 9-4.5 25t-7 32-6.5 28.5-4 14.5q-2 2-6 10t-8.5 18-9 19.5-7.5 14.5q-11 17-30.5 20.5t-38.5 3.5h-20q-36 0-67.5-5t-66.5-5q-7 0-14 1t-14 1q-7-7-7-11-2-1-4.5-7.5t-5-14-5-14-2.5-7.5q0-2-6.5-12t-9.5-12q-12-25-14-51.5t-2-54.5q0-16 10-23.5t25-11.5 32-6.5 32-7 25-13.5 10-26q0-33-31-41-4 0-14.5 1t-21.5 2-21 2-14 2h-99q-3 0-16 1t-29 2.5-29 3-16 1.5z"/><path transform="translate(100.52 15.172) scale(.0078125 -.0078125)" d="m328 7q0 13 6 20.5t15 12.5q10 5 29 8.5t38.5 8 34.5 12 18 21.5v31q0 7 0.5 31.5t1 57 1.5 69.5 1.5 70 1 57.5 0.5 32.5v345q-5 18-23.5 31.5t-38.5 13.5h-128q-7 0-20-6t-18-8q-38-23-61-49.5t-46-57.5q-2-2-5.5-7t-7-11.5-7-12-4.5-7.5q-2-5-7-13t-11-16-12.5-14-11.5-6q-10 0-16.5 5t-10 13-5 17.5-1.5 18.5q0 22 4 42t8 42q3 13 6.5 40.5t9.5 55 17 48.5 30 21q1 0 4-0.5t5-0.5q3-1 6-1 3-2 12-6.5t19.5-9.5 19.5-9 11-4q1-1 6.5-1.5t12-0.5 12.5 0 8 0q0 0 5.5-1.5t12-3.5 12-3.5 6.5-1.5q50 0 99.5 9.5t99.5 9.5q88 0 174.5-9.5t173.5-9.5h51q2 1 10 3.5t17 5 18 5.5 13 5q9 3 15 7.5t11.5 9.5 12.5 8.5 18 3.5q19 0 30.5-17.5t18-41.5 10-48.5 8.5-37.5q4-21 12.5-43t8.5-46q0-7-1.5-16t-5.5-16.5-11-12.5-17-5-24 15.5-29.5 35-30 38.5-26.5 25q-2 1-8.5 5t-14 8-14 7.5-8.5 4.5q-19 11-36.5 24t-38.5 21q-3 0-10.5 0t-15.5 0.5-14.5 0.5-9.5 0h-19q-21 0-43-3t-33-19q0-8 1-25t1-37-1-37-1-24q0-2-1.5-6.5t-3.5-9.5-3.5-9.5-2.5-5.5v-305q-9-18-11-28t-2-27v-15q0-2 1.5-8.5t3-14 2.5-14 1-8.5v-113q3-21 10-37t30-18q4-1 16.5-2t27-2 28-2 18.5-1q7-5 11.5-13.5t4.5-17.5q0-8-3.5-12t-12.5-11q-49 1-103.5-0.5t-110-3-109.5-3-101-1.5q-8 0-14.5 1t-6.5 9z"/><path transform="translate(112.59 15.172) scale(.0078125 -.0078125)" d="m518 787q11-16 32.5-20t36.5-4h7q2 1 9 3.5t15 4.5 14.5 4 8.5 2q21 6 50 9.5t49 14.5q2 2 11 8t20.5 13.5 22 15 15.5 10.5q2 1 8 7.5t7 7.5q9 14 18.5 31t19.5 30q2 4 6 8 5 6 10 9 1 0 2.5 5t2.5 12 1.5 13 0.5 8q9 39 15.5 77.5t6.5 80.5v55q-8 6-13.5 14.5t-10 17.5-9.5 18.5-12 18.5q-4 4-13.5 15t-20.5 23-21.5 22.5-15.5 15.5q-14 3-35.5 6t-38.5 8q-21 7-39 15t-41 8q-17 0-39-2t-33-12q-23-18-34-35.5t-15.5-36-5-40.5-1.5-49q0-4-1-18.5t-2-31-2-31.5-1-19q0-12-0.5-35t-0.5-49-0.5-51-0.5-40q0-34 3-66t14-71zm-154-787q-59 0-117-3.5t-115-3.5q-34 0-34 31 0 11 2.5 21.5t14.5 16.5q35 3 76 8.5t76 22.5q7 4 12.5 15.5t9 25.5 5.5 27.5 3 21.5v47q0 4 1 12.5t2.5 18.5 2.5 18.5 1 11.5q0 15 0 46.5t0.5 70.5 1 82.5 1 83 0.5 70.5 0 46q0 27 0 66t-0.5 82.5-1 87-1 79-0.5 59.5 0 28q0 13-0.5 44.5t-1 66.5-2 65.5-3.5 42.5q-5 10-20 16t-33 9.5-35.5 5-26.5 2.5q-6 0-21 1t-32 2-32 2-20 2q-4 2-12.5 11.5t-10.5 11.5v10q0 16 7 21.5t23 7.5q13 1 45.5 3t69 4.5 69.5 4.5 46 2q4 0 12 0.5t17 0.5 18 0.5 15 0.5q12 2 20 3.5t15 1.5q15 0 59 0t103.5-1 126.5-2 128-4q3 0 10-2t15-4.5 15-4.5 10-3q1 0 6.5-1.5t11.5-2.5 11.5-2.5 6.5-1.5q3-1 11.5-7.5t17.5-14 16.5-14.5 10.5-9q0-3 5.5-5t7.5-4q34-14 55-29t34-34.5 20-45 14-59.5q3-17 9.5-39.5t6.5-39.5q0-4-1-7.5t-1-4.5q-4-45-14-89t-20-86q-3-3-6-8.5t-5-7.5q-1-2-7.5-10t-14.5-17-15-17-8-9q0-2-4-8l-4-6q-15-27-38-39t-52-23q-2-3-16-5t-16-4q-1 0-5.5-3t-9.5-7-10-7-6-4q-11-7-27-12.5t-33-9.5-34-6-29-3h-205q-16-6-23.5-16t-10.5-22.5-3.5-26-0.5-27.5q0-3-1-13t-2-21.5-2-21.5-1-13v-17q0-11 0.5-17.5t5.5-17.5q0-4 0-12.5t0.5-18 0.5-17.5 0-11q0-31-3.5-61t-3.5-60v-3q0-2 1-9.5t1-9.5q3-57 7-103t21-93q1-5 11-11.5t22.5-12.5 24.5-10 18-4h40q26 0 51 2.5t51 2.5q7 0 16-5t16.5-13 12.5-17 5-16q0-10-2-17.5t-15-12.5h-77q-6 0-20.5 1t-30.5 2.5-29.5 3-17.5 2.5q-2 0-6.5 1t-9.5 1.5-9.5 1.5-5.5 1h-7q-23-2-46-3t-48-4q-3 0-11.5 1t-18 2.5-18 2.5-12.5 1z"/><path transform="translate(121.74 15.172) scale(.0078125 -.0078125)" d="m393 661q0-10 0-27t0.5-33.5 1-30 2.5-15.5q0 0 0.5-6.5t1-15 1.5-17 2-13.5q1-13 4-29t20-24q3-1 9-1.5t12.5-0.5 12.5 0 9 0q52 0 99.5 28t85.5 67q22 32 26.5 74t4.5 80v59q-8 29-26 59.5t-43 47.5q-2 0-10.5 2.5t-10.5 4.5q-6 3-17 7.5t-15 6.5q-14 2-27.5 3.5t-26.5 1.5-26.5-1.5-27.5-3.5q-7-1-14.5-6t-13.5-11.5-10-14-5-13.5q-1-7-3.5-20t-5-26.5-4.5-24-2-12.5q-2-1-2.5-12t-1-26-0.5-31 0-26zm-332-642q0 16 22.5 22.5t50.5 11 53.5 10.5 30.5 20q1 9 3 31t5 46.5 5.5 45.5 4.5 29v11q0 35-3.5 71t-3.5 72v14q0 3 1 16t2.5 27.5 2.5 26.5 1 15q0 1 0 17.5t0.5 38.5 0.5 45 0 37q0 8 0 27t-0.5 40.5-0.5 41 0 28.5q0 25-10 43.5t-22 39.5q-7 12-28.5 17.5t-44 9-40.5 9-18 19.5q0 5 5.5 14.5t11.5 13.5h61q4 1 19 2.5t31.5 3 31 2.5 18.5 1h69q1 0 6.5 1t12 2.5 12 3 7.5 1.5h23q2 0 8.5-0.5t14-1 14-1 8.5-0.5q3 0 14 0.5t24 1 25 1 15 0.5h74q1 0 7-1.5t12.5-2.5 12-2 6.5-1q2 0 11 0t19.5-0.5 20-0.5 12.5 0q9-2 25.5-11t25.5-14q2 0 9.5-1.5t15.5-3.5 15-4 9-3q38-29 57.5-69.5t30.5-85.5q2 0 2-4t0-8q0-24-2.5-50t-8.5-51.5-16.5-48.5-26.5-41q-16-20-38-41t-47-28q-5-3-14.5-5t-20-6-18-10.5-7.5-16.5q0-12 14-36.5t32-51 36-49.5 27-33q1-3 10-15t21-26.5 24-28.5 19-21q5-5 7-9 10-7 25-19.5t29.5-24.5 26-21 13.5-9q0-1 4.5-4t10.5-7 12-7.5 11-4.5q5-3 15.5-8t20.5-11.5 17-14 5-14.5q0-5-5.5-9t-13-6.5-15-4-11.5-1.5h-297q-9 0-20.5 0.5t-22 3.5-18 10-7.5 21q0 7 8 14.5t18.5 14.5 21 14 15.5 14v8q-3 4-7 11t-7.5 14.5-6.5 13-3 6.5q-3 3-13 16.5t-22 28.5-22 28-13 17q-18 25-35 45t-35 38-38.5 34.5-45.5 36.5q-8 7-14.5 15t-18.5 8h-5q-2-2-3-4-2-4-2-5-1-11-3.5-39t-5-59.5-4.5-60-2-38.5q-3 0-3.5-7t-0.5-9q0-4 0.5-9.5t3.5-5.5q0-5 2-17t4.5-25.5 5-25 3.5-15.5q0-3 2.5-9t6-12 7-11 5.5-5h71q0-2 1-4 3-5 4-6 7-9 8-12t1-12q0-11-10.5-15t-21.5-6h-43q-65 0-128-3.5t-130-3.5h-88q-14 0-25 5t-11 21z"/><path transform="translate(130.02 15.172) scale(.0078125 -.0078125)" d="m72 26q0 17 14 26.5t31 9.5q4 0 10-0.5t9-0.5h21q1 0 9.5 0.5t12.5 2.5q2 2 8.5 3.5t8.5 1.5h7l26-3q12 0 14 2t9 10q4 5 6.5 10.5t7.5 10.5v46q0 29-3 55.5t-3 55.5q0 23 2 34.5t2 29.5v7q0 4 0 13t-1 25.5-3 42.5-5 64q3 14 4 24.5t1 24.5v26q0 1-1 6t-1.5 11-1.5 10.5-1 5.5v64q0 7-1 30.5t-2.5 50.5-2.5 50.5-1 32.5q-2 11-12 22t-19 18q-10 7-15 7-3 0-6-1t-8-1h-9q-2 2-11 5.5t-11 3.5q-3 1-15.5 3.5t-26.5 4.5-26.5 4-15.5 3q-9 2-15.5 8.5t-6.5 17.5q0 8 3 20t11 15q8 5 24.5 7.5t36.5 4 42 1.5 42 0q2 2 7.5 2t11.5 0q14 0 30-1t20-1q3 0 15 0.5t26.5 0.5 27.5 0.5 16 0.5q1 0 12.5 1.5t27.5 3 34 3 32 1.5h129q9-4 22.5-7t26-7 21-10.5 8.5-18.5q0-14-14-24.5t-33-17-38-10.5-29-5h-69q-2 0-11-6.5t-13-7.5q-14-7-22.5-12t-8.5-13v-19q0-10 1-21.5t9-19.5v-45q0-60-8-119.5t-8-119.5q-1-3-1.5-24t-1-48.5-0.5-56.5 0-47q0-9 0-33.5t0.5-52.5 1-52.5 1.5-34.5q-3-20 7.5-31.5t27-18.5 37-11 38-8.5 29.5-11.5 12-20-14.5-21.5-23.5-12.5q-3-2-11-2.5t-16.5-1-15.5-0.5-9 0q-6 0-15 0t-17.5 0.5-15 1-7.5 2.5q-1 0-5 1t-9 1.5-10 1.5-6 1h-9q-15 0-29.5-8t-28.5-8q-3 0-15 1t-24.5 3-23.5 3.5-13 3.5h-26q-21 0-39.5-5.5t-40.5-5.5q-9 0-24 1t-29 5-24.5 12.5-10.5 23.5z"/><path transform="translate(135.48 15.172) scale(.0078125 -.0078125)" d="m61 7-14 7q-4 5-7 12t-3 14q0 11 10 22 4 1 8 2t8 1.5 8 1.5q11 3 24 4.5t25.5 4 24.5 6 21 10.5q21 13 32 32t16 40 6 43.5 2 43.5q1 7 2.5 26.5t2.5 41.5 2 41.5 1 27.5q16 26 20.5 53t10.5 56q0 1 3 6t3 7-3 11-3 12v7q0 2 3 11.5t3 14.5q0 4 1.5 23t2.5 41 2.5 40.5 1.5 23.5q0 2 2.5 9.5t5.5 16.5 5.5 16.5 2.5 9.5q2 25-7 43.5t-24.5 33-34 26.5-34.5 22.5-27 22-11 25.5v12q1 1 6.5 4.5t6.5 2.5q4 0 11.5 0.5t15.5 0.5 15 0 10 0q4 0 12 0t16 0 14-0.5 7-0.5 11.5-3.5 12.5-3.5h85q24-4 44-28.5t35-56 25-63.5 15-51q1-2 3-8t3.5-12.5 2.5-12 1-5.5q2-3 10.5-8.5t10.5-7.5q18-40 31.5-80t29.5-81q5-11 11.5-17.5t10.5-20.5q4-2 6.5-10t4.5-12q4-14 4-22t11-15q0-1 6-4.5t10-5.5q0-2 3.5-11.5t3.5-10.5q3-7 11-24.5t17.5-37 18-36.5 11.5-24q5-6 8.5-7t7.5-1q9 0 19 4t14 13q11 22 25 47t25 50q1 1 4 6.5t5.5 12 5 12 2.5 7.5q4 11 7.5 17t7.5 11.5 7.5 11 7.5 15.5q0 1 1 5.5t2.5 10.5 3 10.5 1.5 5.5q1 2 7 13t12.5 24 12.5 24 8 13q5 14 9.5 30.5t11.5 28.5q17 34 33.5 67.5t33.5 63.5q3 5 9.5 18t14 28 14 28.5 9.5 19.5q4 7 7.5 17t7.5 19.5 9.5 17 15.5 11.5q10 7 23 11t27.5 6 29 4 26.5 4q3 1 11.5 2t18 1.5 18.5 1 12 0.5q2 2 6 2.5t6 0.5q3 0 7.5-0.5t4.5-2.5q2 0 8-0.5t13.5-1 14-1.5 9.5-2v-7q-2-3-8-9.5t-6-8.5q-5-2-15-7.5t-21-11.5-21-11-14-6l-5-16v-83q0-2-4-11.5t-6-12.5l3-233v-26q8-63 12-130t4-133q0-37-1-72.5t-3-69.5q5-4 11.5-8t11.5-6q3-1 14.5-3.5t24-5 23.5-4.5 14-3q3 0 12.5-4t20-9 20.5-10 16-8q8-2 9.5-5.5t1.5-8.5q0-9-4.5-11t-13.5-4q-3-2-10-3t-14.5-2-13.5-1.5-8-0.5h-405q-14 3-14 19 0 8 3.5 16t10.5 10q13 5 24 9 10 4 19.5 7.5t16.5 5.5q12 4 24.5 8t22.5 10.5 16.5 16.5 6.5 26v329q-2 4-4.5 12t-2.5 10q0 3-1 14t-2 24-2.5 24-1.5 14-3.5 13-3.5 12q-1 3-2.5 11.5t-3 18-2.5 18.5-1 14q-2 5-6 6t-9 1q-10 0-15.5-8t-8.5-18.5-4.5-21-3.5-15.5l-3-3q-2-2-2-2l-1-1q-5-7-16-21.5t-16-18.5q0-1-2-4.5t-4.5-7.5-5-7.5-3.5-3.5q-8-11-12.5-19.5t-7.5-16.5-6.5-17.5-8.5-22.5q-20-40-39-83.5t-39-82.5q-3-6-8.5-14.5t-11.5-17.5-11-17-7-13q-6-18-10.5-38.5t-13.5-37.5q0-1-3.5-5.5t-7-10-7-10.5-3.5-5-1.5-4.5-3-10-3-11-2.5-6.5q-8-23-23-38.5t-38-28.5h-6q-3 2-8.5 3.5t-5.5 3.5q-3 6-7 12-3 5-6 10t-5 9q-26 57-53 114t-54 116q-21 47-40.5 95t-42.5 95l-3 3q-4 4-6 4-10 17-19 43t-20.5 52.5-27 48.5-36.5 31q-2-2-4-8t-4.5-13-4.5-14-3-10q-9-51-14-96t-5-93q0-19 0-39.5t2-41.5q0-2-3-12.5t-6-15.5q0-2-1-4t-2-4q-1-3-2-5v-49q0-1-1-6t-2-11.5-3-12-3-6.5v-16q1-5 2.5-17t2.5-25.5 2-25.5 2-16q7-24 30.5-32.5t45.5-11.5q2-1 12-2.5t22-2.5 22.5-2.5 12.5-2.5q2 0 13.5-11.5t17.5-18.5v-3q0-9-11.5-17.5t-19.5-8.5q-5 0-16 1t-23 2-22.5 2-14.5 2h-138q-3 0-12 1t-19.5 2.5-19 2.5-10.5 1z"/><path transform="translate(146.91 15.172) scale(.0078125 -.0078125)" d="m64 0q0 4-5.5 11.5t-6.5 12.5v5q2 4 9 12t15.5 16.5 16 15.5 10.5 10q2 2 13.5 4.5t16.5 2.5h71q3 0 8.5 1.5t11 3 10 3.5 4.5 2q14 7 16.5 22.5t2.5 29.5v16q0 35-1.5 66.5t-1.5 66.5v7q0 3 1 11t2.5 17.5 3.5 17.5 3 11v436q0 20-7 32t-18 18.5-25.5 8.5-30.5 2h-41q-28 0-47 7t-19 34q0 9 0.5 16t4.5 19q48-2 94 3t93 5h26q4-1 16.5-2t26-2 25.5-2 17-2h470q30 0 43-15.5t19-38.5v-116q0-6-2-21.5t-4.5-33-5-34-3.5-23.5q-2-3-7-8.5t-7-5.5q0-2-2-2h-4q-3 0-3 2-17 12-26 27.5t-15 32.5-11 34-15 32q-2 4-12.5 13.5t-11.5 10.5q-2 2-8.5 11t-14 19.5-14 19.5-8.5 11q-4 9-9 9-1 0-6.5 1t-12 2.5-12 2.5-5.5 2q-3 0-11 2t-17.5 4-17.5 4.5-10 3.5h-5q-4 0-11-2.5t-10-2.5h-3q-3 1-16.5 2t-29.5 1.5-29.5 1-16.5 0.5h-3q-18 0-30-7t-19.5-18-13-24.5-10.5-26.5q-1-11-3.5-36t-5-53-4.5-53-2-35v-13q0-5 1-17t2-25.5 2.5-26 2.5-16.5q7-9 16.5-18t20.5-12h55q34 0 59.5 1t61.5 6q1 2 3 7t5 10 5 9 3 5q4 7 10 20.5t12 27 10.5 23.5 5.5 11q2 4 4 17.5t4 15.5q8 9 21 12t26 3q14 0 17.5-10.5t3.5-23.5v-37q0-9-2-17.5t-7-16.5q-1-9-2-30t-2-44-2-43.5-1-28.5v-86q-1-2-2-9t-1.5-15.5-1.5-16.5-2-11q-11-8-19.5-12t-20.5-4q-8 0-15 6.5t-13 16.5-10 20.5-5 19.5q-1 3-2.5 13.5t-2.5 23-2 23.5-1 16q-3 4-10.5 7.5t-14.5 7.5q-6 2-19 5t-27.5 5.5-27 4-16.5 1.5q-3 0-10.5 0.5t-17 0.5-18.5 0.5-14 0.5q-3 0-9.5-0.5t-13-0.5-11.5-0.5-6-0.5l-14-16v-34q0-59-4-113.5t-4-113.5q0-30 5-44t16-20 28-9 42-10q2 0 7-3t7-6h152q2 0 9 1.5t15 3 14.5 3 8.5 1.5h67q2 0 7 3.5t10.5 8 9.5 8.5 5 4q7 3 11.5 3.5t7.5 1 6 3 6 8.5q11 16 16 33t13 34q4 3 10 12.5t7 12.5q1 0 6 3.5t10 8 9 9 5 6.5q1 3 4.5 8.5t7.5 12 7.5 12 4.5 7.5q0 1 3 4 2 1 4 3 0 2 1 2h2q15 0 18-11.5t3-23.5v-21q0-5 1-24t1.5-40.5 1.5-40.5 1-23v-3q0-13-5-29.5t-14-31.5-21.5-25-26.5-11q-7 1-25.5 2t-39.5 2-40 2-27 3h-36q-5-2-23-3.5t-38.5-2.5-39-2-22.5-1h-379q-3-1-9.5-2t-14-1.5-14.5-1-10-0.5q0-2-7-2t-13 1-8 1q-4-3-16-7t-17-4-16.5 2-24.5 4.5-25 5-18 4.5z"/><path transform="translate(155.29 15.172) scale(.0078125 -.0078125)" d="m393 661q0-10 0-27t0.5-33.5 1-30 2.5-15.5q0 0 0.5-6.5t1-15 1.5-17 2-13.5q1-13 4-29t20-24q3-1 9-1.5t12.5-0.5 12.5 0 9 0q52 0 99.5 28t85.5 67q22 32 26.5 74t4.5 80v59q-8 29-26 59.5t-43 47.5q-2 0-10.5 2.5t-10.5 4.5q-6 3-17 7.5t-15 6.5q-14 2-27.5 3.5t-26.5 1.5-26.5-1.5-27.5-3.5q-7-1-14.5-6t-13.5-11.5-10-14-5-13.5q-1-7-3.5-20t-5-26.5-4.5-24-2-12.5q-2-1-2.5-12t-1-26-0.5-31 0-26zm-332-642q0 16 22.5 22.5t50.5 11 53.5 10.5 30.5 20q1 9 3 31t5 46.5 5.5 45.5 4.5 29v11q0 35-3.5 71t-3.5 72v14q0 3 1 16t2.5 27.5 2.5 26.5 1 15q0 1 0 17.5t0.5 38.5 0.5 45 0 37q0 8 0 27t-0.5 40.5-0.5 41 0 28.5q0 25-10 43.5t-22 39.5q-7 12-28.5 17.5t-44 9-40.5 9-18 19.5q0 5 5.5 14.5t11.5 13.5h61q4 1 19 2.5t31.5 3 31 2.5 18.5 1h69q1 0 6.5 1t12 2.5 12 3 7.5 1.5h23q2 0 8.5-0.5t14-1 14-1 8.5-0.5q3 0 14 0.5t24 1 25 1 15 0.5h74q1 0 7-1.5t12.5-2.5 12-2 6.5-1q2 0 11 0t19.5-0.5 20-0.5 12.5 0q9-2 25.5-11t25.5-14q2 0 9.5-1.5t15.5-3.5 15-4 9-3q38-29 57.5-69.5t30.5-85.5q2 0 2-4t0-8q0-24-2.5-50t-8.5-51.5-16.5-48.5-26.5-41q-16-20-38-41t-47-28q-5-3-14.5-5t-20-6-18-10.5-7.5-16.5q0-12 14-36.5t32-51 36-49.5 27-33q1-3 10-15t21-26.5 24-28.5 19-21q5-5 7-9 10-7 25-19.5t29.5-24.5 26-21 13.5-9q0-1 4.5-4t10.5-7 12-7.5 11-4.5q5-3 15.5-8t20.5-11.5 17-14 5-14.5q0-5-5.5-9t-13-6.5-15-4-11.5-1.5h-297q-9 0-20.5 0.5t-22 3.5-18 10-7.5 21q0 7 8 14.5t18.5 14.5 21 14 15.5 14v8q-3 4-7 11t-7.5 14.5-6.5 13-3 6.5q-3 3-13 16.5t-22 28.5-22 28-13 17q-18 25-35 45t-35 38-38.5 34.5-45.5 36.5q-8 7-14.5 15t-18.5 8h-5q-2-2-3-4-2-4-2-5-1-11-3.5-39t-5-59.5-4.5-60-2-38.5q-3 0-3.5-7t-0.5-9q0-4 0.5-9.5t3.5-5.5q0-5 2-17t4.5-25.5 5-25 3.5-15.5q0-3 2.5-9t6-12 7-11 5.5-5h71q0-2 1-4 3-5 4-6 7-9 8-12t1-12q0-11-10.5-15t-21.5-6h-43q-65 0-128-3.5t-130-3.5h-88q-14 0-25 5t-11 21z"/><path transform="translate(167.01 15.172) scale(.0078125 -.0078125)" d="m131 73v22q0 1 2 8t5 14.5 5 14 2 8.5q1 4 2.5 19.5t3.5 33.5 3.5 35.5 1.5 25.5v184q0 6 1.5 16t5 19.5 9 17 13.5 7.5q18 0 27.5-9t15-21.5 7.5-27.5 4-27q15-75 54.5-141t99.5-120q5-4 13.5-11t16.5-14q10-9 20-18 5-3 18-7.5t28-9.5 28-9 19-5q3 0 15.5-0.5t26.5-1 26-1 15-1.5q2 0 12.5-1.5t11.5-1.5h13q13 0 24.5 5.5t25.5 8.5q14 4 27 5.5t25 9.5q17 12 33.5 22.5t30.5 22.5 25.5 27.5 19.5 36.5q0 1 1 8t1.5 14.5 1.5 14 1 8.5q1 2 4.5 9t8 14.5 8 14 3.5 7.5q0 2 1 16t1 22q0 35-11 67t-29.5 59.5-44 50-55.5 38.5q-2 2-15 3.5t-15 3.5q-3 1-14.5 6.5t-24.5 12-24.5 12-14.5 7.5q0 1-6.5 3t-14.5 4.5-15.5 5-8.5 2.5q-1 1-7.5 4.5t-14 6.5-14 5.5-9.5 2.5q-8 2-18.5 3t-12.5 1q-56 13-118.5 37.5t-109.5 54.5q-2 1-6.5 6t-9.5 10.5-9.5 10.5-5.5 5q-2 0-9 3t-7 4q-2 0-4 3.5t-4 3.5q-1 2-5.5 10t-9.5 17-9.5 17-5.5 10q-16 26-34 52t-26 55q-8 32-13 67t-5 66q0 23 1 49t6 47q2 2 10 11.5t8 12.5q2 3 5 8.5t6.5 11.5 6.5 10.5 4 5.5q39 69 96 120t134 74q2 0 11 2.5t12 2.5q4 2 15.5 5.5t13.5 3.5q1 0 10 0.5t20.5 1 23.5 1 19 0.5q4 0 13-1t19.5-1.5 20-1.5 14.5-1q7-2 16.5-4.5t11.5-2.5q17-1 29.5-1.5t25.5-3 28.5-8 39.5-16.5q25-12 46.5-23t29.5-15q2-2 12-8.5t10-9.5h14q11 0 19 5t14.5 12 12.5 15.5 13 14.5q2 3 8.5 11t15 17 16 16.5 10.5 10.5h9q11 0 16-10t6-21q0-1 1-10.5t2-21.5 2-24.5 2-19.5v-9q-3-21-6-59t-6.5-76-6-67.5-3.5-34.5q-3-26-14.5-47.5t-41.5-21.5q-6 0-18.5 1t-17.5 8q-12 15-19.5 32t-14.5 33.5-15 33.5-20 32q-14 17-28.5 36t-30.5 37.5-33 35.5-36 30q-2 0-6.5 1.5t-9.5 3.5-9.5 4-5.5 3q-2 1-7 5.5t-11.5 10-12.5 9.5-9 4q0 1-5 2.5t-12 2.5-14.5 2-11.5 2q-5 1-15.5 2t-21.5 2.5-20.5 2.5-13.5 2h-11q-59 0-98.5-23.5t-70.5-68.5q-13-18-23-29.5t-16.5-22-9.5-24-3-35.5q0-5 0-10.5t1-10.5q1-6 2-12 1-5 7-18t14-27.5 15.5-28 12.5-19.5q0-2 5.5-8t12.5-13.5 13.5-14 9.5-9.5q40-36 87.5-58.5t97-38 100-28 98.5-29.5q8-13 22-14.5t28-8.5q8-6 21-13t26.5-15 27-16.5 22.5-17.5q3-2 8-7t11-10.5 11-10.5 8-8q0-3 7-12t8-11q23-26 47.5-50.5t37.5-58.5q2-8 5.5-19t7.5-22q4-12 10-26 4-21 5-40.5t1-39.5q0-26-2-51.5t-4-51.5q-9-22-17-41t-16-37-17-36.5-20-38.5q-2-1-7.5-4.5t-7.5-5.5q-16-14-28-26t-23.5-24-25-24-32.5-25q-32-22-71-36.5t-80-25.5q-20-4-31.5-4t-28.5-8q-5 0-16.5-0.5t-23.5-0.5-22-0.5-14-0.5q-48 0-94.5 1.5t-91.5 12.5q-19 7-40.5 12.5t-43.5 13.5q-3 1-6 3-6 2-8 4-1 0-6 1t-11 1.5-12 1.5-9 1h-11q-4-2-16-8t-26.5-13.5-28-13.5-19.5-8q-4-3-13-5t-11-2q-4 0-6.5 11t-4 25.5-2.5 28.5-1 20z"/><path transform="translate(176.21 15.172) scale(.0078125 -.0078125)" d="m104 798q2 2 5 18.5t7 51.5q1 20 4 38.5t8 34.5q1 1 4 9t6.5 17.5 6.5 17.5 4 10q1 4 4.5 16.5t7.5 26.5 7.5 26.5 4.5 15.5q6 23 22 43.5t30 40.5l15 19q42 58 95.5 105t115.5 79 131 49.5 141 17.5q54 0 102-5t93.5-14.5 90.5-23.5 95-33h12q15 0 25 11.5t16 24.5q8 14 19.5 27t34.5 13q13 0 22-7t14.5-18 8.5-23.5 3-23.5q-1-2-1-4-1-2-1-4.5t-1-4.5q-2-3-4-8 0-3-1.5-10.5t-1.5-15.5q-2-14-3.5-28t-3.5-22v-21q9-57 13-116t4-116v-43q-5-7-14-13t-17-6q-12 0-22 9.5t-17.5 23.5-13 30-9.5 30q-4 11-6.5 18.5t-4.5 12.5q-1 2-5.5 9t-10 15-9.5 14.5-4 8.5q-3 3-11 16t-17 27.5-17 27.5-9 17q-6 4-7 5t-1 6q-17 7-28 19-43 31-85.5 59t-94.5 39h-31q-2 0-5.5 1t-8.5 3q-2 0-3.5 0.5t-5 1-9.5 1-18 2.5q-37 0-70-6.5t-67-17.5q-3-1-7-2-3-1-5.5-2t-4.5-1q-7-2-8.5-2t-5.5 0q-4-2-6.5-3t-15.5-6q-5-2-15-11.5t-32-29.5q-5-5-11.5-10.5t-9.5-7.5q-5-5-11-10t-8-7-9.5-10-7.5-9q-2-3-6-12t-9-19-9.5-18-6.5-10-4.5-7-6.5-10q-5-8-12-17.5t-13.5-18.5-11-15.5-4.5-7.5q-1-1-2-5.5t-2-10-2-11-1-6.5q-2-2-6.5-12t-10-22-10-22-4.5-13q-3-5-4-11l-2-8q-2-9-5.5-27.5t-6.5-38-5-35.5-2-20v-151q2-2 5.5-16.5t3.5-28.5q0 4-9-45 7-15 8.5-33.5t4.5-37.5q2-15 4.5-33.5t7.5-38.5q4-16 17-38t26-42q4-6 10.5-15t17.5-31q10-20 20.5-39.5t27.5-28.5q4-2 5-2.5t5-2.5q5-3 15.5-11t33.5-31q13-14 26.5-26.5t20.5-16.5q1 0 2-2t8-5q0-1 5-3t12-4.5 16-7.5q12-5 24.5-10.5t24.5-10.5 21.5-8.5 14.5-3.5h62q4-2 6-2.5t13-4.5h26q37 0 74.5 15t72.5 38.5 65.5 52 52.5 55.5q14 17 20.5 29t13.5 26l14 29q4 11 8.5 21.5t8.5 22.5q9 26 20 52t25 52q4 6 24 6 17 0 23-7t16-24v-43q0-47-6-93-2-24-3.5-46t-1.5-51q0-5 1-24.5t3-41 3.5-40 3.5-22.5v-12q0-7-3.5-17t-9-19.5-12.5-16-14-6.5q-14 0-19.5 9t-7.5 20q-2 2-2 4t-2 5q0 3-4.5 12t-10 19.5-10.5 19-6 11.5q-6 4-14 4-20 0-36.5-12.5t-30.5-25.5q-9-10-17.5-18.5t-15.5-11.5q-3 0-7-2-4-1-8.5-2t-6.5-1q-7-8-16.5-11.5t-20.5-7.5-25-7.5-30-8.5q-25-6-49-14.5t-45-21.5q-27-2-55-3.5t-57-1.5q-23 0-47.5 1.5t-49.5 3.5q-2 1-8 3t-13 4.5-13 4-9 2.5q2 0-6.5 1.5t-17.5 1.5q-10 3-16 4t-9 3q-9 5-10.5 6t-2.5 1q-10 6-25 9-25 9-49.5 19.5t-47.5 23.5q-35 22-65 51.5t-56 60.5q-3 4-14 18t-24 29.5-24 29.5-14 17q-1 3-6 12.5t-11.5 21.5-12 23.5-8.5 16.5q-2 4-5 11.5t-5 16.5q-4 11-7.5 20.5t-4.5 14.5q-4 14-10.5 39t-12.5 49-10 42.5-4 19.5q-2 27-4.5 56.5t-2.5 61.5q0 48 6 104z"/></svg>