<svg width="181.24" height="18.734" viewBox="0 0 181.24 18.734" xmlns="http://www.w3.org/2000/svg"><path transform="translate(0 14.594) scale(.0078125 -.0078125)" d="m283 145v1127q0 42-15 63.5t-37.5 31-48.5 10.5-48.5 2.5-37.5 7.5-15 25q0 13 12.5 16.5t23.5 3.5h56q25 0 45.5-1.5t39-3.5 38-3.5 43.5-1.5q49 0 86 2.5t71 5.5 68 5.5 76 2.5h67q14 0 23-5.5t14-6.5q4-11 5-12t1-9q0-11-17.5-18t-40-11.5-45.5-7-33-5.5q-16-3-34-5.5t-33-8-25-16-10-29.5v-1188q0-21 15.5-32.5t38.5-17 50.5-7.5 50.5-5 38.5-9.5 15.5-20.5q0-11-6-14t-11-5q-14-4-34-7t-35-3q-36 0-66 2t-58 4-56 4-61 2q-16 0-44.5-1t-61-2.5-64.5-2.5-55-1h-79q-5 0-14 5t-9 16q0 20 17 24 22 6 39.5 9.5t36.5 7 42 7.5 57 11q17 5 20.5 22t3.5 43z"/><path transform="translate(6.2422 14.594) scale(.0078125 -.0078125)" d="m305 9q-54 0-103-4.5t-108-4.5h-40q-9 0-13 11.5t-4 17.5q0 10 2.5 17.5t9.5 8.5q11 3 26 5t31 3.5 30.5 2 25.5 0.5q24 0 46.5 11t36.5 27q10 13 17 25.5t12.5 34.5 9 57 7.5 92l47 858q0 31-7 62.5t-22.5 59-40.5 47.5-61 28q-3 1-16 2.5t-28 3.5-28 3.5-17 1.5q-20 4-31.5 8t-11.5 25q0 9 1 17.5t8 8.5h41q26 0 48.5-2t45.5-5 48.5-5 56.5-2h95q17 0 31.5 2.5t38.5 2.5q18 0 38-4.5t29-18.5q17-20 29-44.5t21-51.5l336-884q4-10 8-16.5t9-6.5q7 0 11 8t6 15l378 991q6 11 17.5 14t25.5 3q50 0 96.5 2t93 5 94 5 100.5 2q3 0 8.5 0t11-1.5 9.5-4.5 4-8q0-14-12-28.5t-30-14.5q-50 0-83-12t-67-49q-15-15-24-34t-14.5-40.5-7-44-1.5-43.5l16-1068q7-21 34-29t60-10.5 64.5-4 48.5-9.5q12-5 14-12.5t2-13.5q0-16-16.5-19.5t-44.5-3.5q-32 0-60 1t-55.5 1.5-57.5 1.5-67 1h-153q-29 0-56-0.5t-54-2.5q-32-3-64-3-8 0-16.5 0.5t-16 3.5-12 9.5-4.5 17.5q0 20 25 26.5t60 6.5h42q21 0 39.5 1t32.5 6 22.5 14.5 8.5 26.5l-13 1062q0 5-2 14t-7 9q-7 0-10.5-2.5t-5.5-4.5l-448-1166q-4-16-12-16t-14 16l-446 1176q-3 12-12 12-4 0-6.5-2t-2.5-10l-26-955q0-12 1.5-31.5t5-40.5 9-41 14.5-34q13-21 39.5-30.5t57-13 61-4.5 51.5-4q12-1 16.5-9t4.5-17q0-6-6.5-10t-16-6.5-21.5-3-22-0.5q-37 0-69 2t-62 4-59 4-61 2z"/><path transform="translate(24.312 14.594) scale(.0078125 -.0078125)" d="m284 83v1265q0 11-14.5 19t-37.5 13.5-50.5 9-53.5 6-48 4.5-32 5q-13 1-13 15 0 7 9.5 9.5t16.5 2.5h297q28 0 71 3t92 6 100 6 95 3h260q1 1 12 1h21q15 0 19.5-14.5t4.5-26.5q4-52 9-106.5t5-106.5q0-11-6.5-18.5t-18.5-7.5q-8 0-16 3.5t-15 19.5q-8 17-18 38t-22 41-25 36.5-25 24.5q-33 23-68 36t-72.5 19-76.5 7.5-80 1.5h-69q-25 0-41.5-7.5t-16.5-37.5v-562q0-11 9-16t14-7q21 3 45 4t47 1q36 0 72.5 1t68.5 5.5 57.5 13.5 38.5 25q4 6 8.5 19t8.5 28 7.5 28 6.5 19q5 15 6 32.5t3 32.5 9 25 25 10q22 0 26.5-17t4.5-35v-384q0-5 0-10.5t2-11.5q2-16 2.5-28.5t0.5-16.5q0-11-5.5-20t-16.5-12q-13 0-21 20-10 26-13 55.5t-10 57-21.5 51-47.5 38.5q-12 6-30 10t-37.5 6.5-38.5 4-32 1.5q-5 0-29.5 1t-51.5 1q-29 0-53-1.5t-29-5.5q-9-8-12-14t-3-22v-594q1-14 18.5-20.5t43-9.5 54.5-4 54-3.5 41.5-9.5 16.5-22q0-8-5.5-12t-13.5-5.5-16.5-2-14.5-0.5q-53 0-95 1t-80 2.5-74 3-76 1.5q-23 0-46-1.5t-48-3.5q-47-3-95-3h-50q-5 0-11 1.5t-6 10.5q0 10 6 14t23 8q28 6 58 8.5t55 6 41 11.5 16 26z"/><path transform="translate(32.891 14.594) scale(.0078125 -.0078125)" d="m418 500 171 7q40 3 61 19.5t31.5 40 16 51.5 16.5 55q3 12 10 12 14 0 14-7v-40q0-40-3.5-86.5t-3.5-79.5q0-32 5.5-68t5.5-74q0-5-1-16t-3-23-5.5-21-9.5-9q-11 0-13.5 10.5t-4.5 19.5q-2 12-7 29t-11 34.5-11 31.5-7 19q-9 18-35 28.5t-58.5 16-67 7-60.5 1.5h-30q-16 0-20-6.5t-4-20.5v-351q0-30 19-38h304q20 0 41.5 0.5t28.5 4.5q15 4 25.5 17.5t17.5 25.5q3 5 11.5 21t18 34.5 18 34.5 12.5 21q6 12 20 12 9 0 13-7v-149q0-9-1.5-16.5t-3.5-18.5q-4-14-10-18.5t-23-8.5q-101 0-191.5 1t-183.5 1.5-196 1.5-230 1q-17 0-17 17 0 11 11 17t20 8q6 0 19.5 1t29.5 1.5 31 1.5 26 1q24 0 24 38v738q0 17-3.5 42t-13.5 42q-7 5-7 5l-140 14q-19 0-19 19 0 5 2 12.5t13 7.5h164q96 0 189 1t171 1h142q16 0 33.5-0.5t33.5-1 29-1 20-0.5q7-1 11-7t5.5-14.5 2-17 0.5-13.5v-163q0-9-7-9-11 0-16.5 14.5t-16.5 34.5q-9 22-22 44t-19 34q-9 17-27.5 26.5t-41.5 15-47 8.5-42 7q-6 0-31 1t-56.5 1.5-62 1.5-47.5 1q-21 0-26-12t-5-36v-357q0-9 6.5-16.5t17.5-7.5z"/><path transform="translate(40.641 14.594) scale(.0078125 -.0078125)" d="m73 19q0 23 20 26h38q18 0 33 0.5t26 3.5 17.5 10 6.5 19v806q0 11-9 18.5t-20 7.5h-90q-5 0-12 1t-16 2q-5 2-8.5 8t-3.5 11q0 19 24 19h246q3 0 15.5 1t26.5 2 25 2 13 1q14 1 31.5 2t28.5 1q3 0 11-0.5t17-1 17.5-1 11.5-0.5q14-3 14-16 0-11-7-22-6-7-19-7h-110q-7 0-11-7.5t-6.5-18-3-21.5-0.5-19q0-52 5-103.5t5-117.5v-552q0-7 3.5-16.5t12.5-9.5h320q27 0 51 24t44.5 56 36 63.5 25.5 46.5q6 7 12 7 5 0 9-9 4-14 4.5-24.5t0.5-30.5q0-8-2.5-23.5t-6-32.5-6-32.5-2.5-24.5q0-5 0-13.5t-0.5-17.5-1.5-16.5-3-10.5q-14-9-25-9-125 0-267 2.5t-283 2.5q-25 0-52-1t-52-2.5-47.5-2.5-38.5-1q-21 0-34.5 2.5t-13.5 18.5z"/><path transform="translate(47.961 14.594) scale(.0078125 -.0078125)" d="m73 19q0 23 20 26h38q18 0 33 0.5t26 3.5 17.5 10 6.5 19v806q0 11-9 18.5t-20 7.5h-90q-5 0-12 1t-16 2q-5 2-8.5 8t-3.5 11q0 19 24 19h246q3 0 15.5 1t26.5 2 25 2 13 1q14 1 31.5 2t28.5 1q3 0 11-0.5t17-1 17.5-1 11.5-0.5q14-3 14-16 0-11-7-22-6-7-19-7h-110q-7 0-11-7.5t-6.5-18-3-21.5-0.5-19q0-52 5-103.5t5-117.5v-552q0-7 3.5-16.5t12.5-9.5h320q27 0 51 24t44.5 56 36 63.5 25.5 46.5q6 7 12 7 5 0 9-9 4-14 4.5-24.5t0.5-30.5q0-8-2.5-23.5t-6-32.5-6-32.5-2.5-24.5q0-5 0-13.5t-0.5-17.5-1.5-16.5-3-10.5q-14-9-25-9-125 0-267 2.5t-283 2.5q-25 0-52-1t-52-2.5-47.5-2.5-38.5-1q-21 0-34.5 2.5t-13.5 18.5z"/><path transform="translate(58.711 14.594) scale(.0078125 -.0078125)" d="m284 83v1265q0 11-14.5 19t-37.5 13.5-50.5 9-53.5 6-48 4.5-32 5q-13 1-13 15 0 7 9.5 9.5t16.5 2.5h297q28 0 71 3t92 6 100 6 95 3h260q1 1 12 1h21q15 0 19.5-14.5t4.5-26.5q4-52 9-106.5t5-106.5q0-11-6.5-18.5t-18.5-7.5q-8 0-16 3.5t-15 19.5q-8 17-18 38t-22 41-25 36.5-25 24.5q-33 23-68 36t-72.5 19-76.5 7.5-80 1.5h-69q-25 0-41.5-7.5t-16.5-37.5v-562q0-11 9-16t14-7q21 3 45 4t47 1q36 0 72.5 1t68.5 5.5 57.5 13.5 38.5 25q4 6 8.5 19t8.5 28 7.5 28 6.5 19q5 15 6 32.5t3 32.5 9 25 25 10q22 0 26.5-17t4.5-35v-384q0-5 0-10.5t2-11.5q2-16 2.5-28.5t0.5-16.5q0-11-5.5-20t-16.5-12q-13 0-21 20-10 26-13 55.5t-10 57-21.5 51-47.5 38.5q-12 6-30 10t-37.5 6.5-38.5 4-32 1.5q-5 0-29.5 1t-51.5 1q-29 0-53-1.5t-29-5.5q-9-8-12-14t-3-22v-594q1-14 18.5-20.5t43-9.5 54.5-4 54-3.5 41.5-9.5 16.5-22q0-8-5.5-12t-13.5-5.5-16.5-2-14.5-0.5q-53 0-95 1t-80 2.5-74 3-76 1.5q-23 0-46-1.5t-48-3.5q-47-3-95-3h-50q-5 0-11 1.5t-6 10.5q0 10 6 14t23 8q28 6 58 8.5t55 6 41 11.5 16 26z"/><path transform="translate(67.289 14.594) scale(.0078125 -.0078125)" d="m376 900q0-4 1-20t2.5-34 2.5-34 1-20v-263q0-18 12-24 2 0 11-1t19.5-1.5 21-1.5 16.5-1q34 0 64 10 50 12 87 27.5t61.5 41.5 36.5 66 12 102q0 82-55 137-42 43-98 58t-131 15q-27 0-45.5-14t-18.5-43zm301-878q0 16 19 21h75q9 2 18 2.5t13 4.5q5 3 5 7t-5 12q-69 93-138.5 186t-141.5 188q-4 4-9.5 9t-9.5 5l-101 12h-3q-16 0-16-19v-306q0-39 9.5-59.5t23.5-29 31.5-9.5 32.5-1q17 0 29.5-3t12.5-23q0-12-11-15.5t-22-3.5h-400q-9 0-16.5 5t-7.5 14q0 11 14 19 10 3 33.5 4.5t47.5 3.5 42.5 6.5 18.5 14.5v35q0 47-1 86t-1.5 79.5-1.5 86.5-1 106v445q-2 4-2.5 12.5t-4.5 13.5q-2 2-4.5 3t-4.5 2q-3 1-4 2h-93q-11 0-22.5 5t-15.5 14q-1 1-1 3-1 1-1 4 0 6 3.5 14t12.5 8h505q69 0 129.5-14.5t105.5-46.5 71-83.5 26-125.5q0-49-7-80.5t-22-53.5-38-39-54-38q-6-5-17.5-10t-22.5-9.5-19-9.5-8-11q0-5 14.5-26.5t36-51.5 48-63.5 50-63.5 41-51.5 22.5-26.5q27-27 54.5-50.5t58-42.5 64.5-32.5 73-18.5q8-14 8-24 0-9-3.5-11.5t-17.5-2.5h-441q-3 0-12.5 0.5t-20 2.5-18.5 6.5-8 12.5z"/><path transform="translate(76.281 14.594) scale(.0078125 -.0078125)" d="m418 500 171 7q40 3 61 19.5t31.5 40 16 51.5 16.5 55q3 12 10 12 14 0 14-7v-40q0-40-3.5-86.5t-3.5-79.5q0-32 5.5-68t5.5-74q0-5-1-16t-3-23-5.5-21-9.5-9q-11 0-13.5 10.5t-4.5 19.5q-2 12-7 29t-11 34.5-11 31.5-7 19q-9 18-35 28.5t-58.5 16-67 7-60.5 1.5h-30q-16 0-20-6.5t-4-20.5v-351q0-30 19-38h304q20 0 41.5 0.5t28.5 4.5q15 4 25.5 17.5t17.5 25.5q3 5 11.5 21t18 34.5 18 34.5 12.5 21q6 12 20 12 9 0 13-7v-149q0-9-1.5-16.5t-3.5-18.5q-4-14-10-18.5t-23-8.5q-101 0-191.5 1t-183.5 1.5-196 1.5-230 1q-17 0-17 17 0 11 11 17t20 8q6 0 19.5 1t29.5 1.5 31 1.5 26 1q24 0 24 38v738q0 17-3.5 42t-13.5 42q-7 5-7 5l-140 14q-19 0-19 19 0 5 2 12.5t13 7.5h164q96 0 189 1t171 1h142q16 0 33.5-0.5t33.5-1 29-1 20-0.5q7-1 11-7t5.5-14.5 2-17 0.5-13.5v-163q0-9-7-9-11 0-16.5 14.5t-16.5 34.5q-9 22-22 44t-19 34q-9 17-27.5 26.5t-41.5 15-47 8.5-42 7q-6 0-31 1t-56.5 1.5-62 1.5-47.5 1q-21 0-26-12t-5-36v-357q0-9 6.5-16.5t17.5-7.5z"/><path transform="translate(84.031 14.594) scale(.0078125 -.0078125)" d="m150 0q-10 0-22 1t-22.5 4.5-17.5 10.5-7 19q0 9 1.5 16t10.5 11q32 5 53.5 7t36.5 9 24.5 24.5 16.5 53.5q0 85 1.5 175t5.5 174q2 61 10.5 118.5t8.5 118.5q0 11-1 16t-6 19q-3 5-12 18.5t-20 28-21.5 28-15.5 18.5q-10 12-29 19.5t-37.5 15-32 17-13.5 26.5q0 9 6.5 14.5t16 8.5 19 4 15.5 1q2 0 8-1t13-2.5 13-2.5 9-1h106q5-2 16-8.5t15-10.5q76-83 149-163t144.5-158 143-155 144.5-156q5-5 9-9 4-3 8-5.5t7-2.5q9 0 14 8.5t5 10.5v327q0 35-1.5 71t-4.5 67.5-8 56.5-12 37q-14 23-43 32t-58 13.5-50.5 9.5-21.5 19q0 28 33 28h379q19 0 19-23 0-10-22-16.5t-50-16.5-54.5-26-35.5-44q-11-25-15-54t-4-80v-700q0-9-7-15t-11-6q-13 0-29 19-4 5-25.5 29t-55.5 61-78 84-92 99-98 106-96 104-86.5 93.5-68.5 74.5q-10 8-18 8-16 0-20-20t-4-42q0-10 0.5-29.5t1.5-45 2.5-54 2.5-55 1.5-48.5 0.5-35v-48q0-23 0.5-52t3-57 7-51 13.5-35q10-16 26-23t34-9.5 36.5-3 33-3.5 23.5-11.5 9-26.5q0-9-1.5-14.5t-11.5-14.5z"/><path transform="translate(93.398 14.594) scale(.0078125 -.0078125)" d="m815 938v-220q0-12-6.5-21.5t-17.5-9.5q-15 0-26.5 14t-20.5 32.5-16.5 37.5-14.5 30q-11 15-20.5 26.5t-20.5 21-24 17.5-29 16q-24 12-54.5 19t-71.5 7q-40 0-81-19.5t-66-54.5q-19-26-34.5-60t-27-73.5-17.5-82-6-83.5q0-12 2-42.5t7.5-68.5 16-78 28.5-71q38-75 101.5-123t147.5-50q25 0 48.5 6t43.5 15q4 2 13 8t19 13.5 19.5 15.5 14.5 13q13 15 24 33t18.5 35.5 12.5 32 7 22.5q3 12 19 12 5 0 8-5t4.5-11.5 2-12.5 0.5-9q0-61-26.5-110t-71.5-84q-43-35-93-55.5t-106-20.5q-69 0-126.5 16.5t-104 45-82 68-61.5 85.5q-32 56-50.5 128t-18.5 140q0 109 49 203.5t143 178.5q56 47 113.5 73t130.5 26q29 0 54.5-2.5t52-9 55.5-17.5 65-27q1-1 6-1 12 0 18 7t10.5 16 9.5 16 16 7q4 0 9-5t5-10z"/><path transform="translate(100.52 14.594) scale(.0078125 -.0078125)" d="m62 22q0 20 14.5 26t34.5 7q6 0 17.5-0.5t24.5-1 26-1 22-0.5q17 0 17 26v809q0 7-9.5 16t-18.5 9h-91q-7 0-19 9t-12 18q0 12 10 17.5t19 5.5q42 0 92.5-0.5t105.5-1.5 110.5-1.5 108.5-0.5q11 0 16.5-7.5t5.5-12.5q0-10-10-14.5t-26-6.5-34.5-2.5-35.5-2-30-6-18-13.5v-371q0-13 19-13h397q9 0 20 7.5t11 18.5v351q0 18-16 21-26 4-52 4.5t-52 7.5q-11 5-20 12.5t-9 11.5q0 11 11 15t15 4q5 0 15-1t21.5-2.5 21.5-2.5 16-1h125q18 0 41.5 1t48 2.5 49 2.5 43.5 1q15 0 18.5-9.5t3.5-25.5q0-5-4.5-12.5t-9.5-7.5h-79q-23 0-23-14v-810q0-11 10-18.5t21-7.5h88q5 0 9-6t4-11q-2-16-10.5-26.5t-22.5-10.5q-25 0-54 1t-59 1q-27 0-52 1t-39 1q-28 0-50.5-1t-43.5-2.5-42.5-2.5-47.5-1q-11 0-21 5t-10 19q0 5 7 14.5t12 9.5h95q14 0 28 11t14 31v308q0 22-7 38t-17 17h-398q-25 0-25-24v-353q7-16 14-20.5t23-8.5q9-2 19.5-3t23.5-1h43q24 0 24-24 0-19-25-19-10 0-33.5 1t-55.5 1q-30 0-62.5 0.5t-60.5 0.5q-47 0-77.5-0.5t-60.5-2.5q-16 0-28.5-1.5t-28.5-1.5q-17 0-26 3t-9 22z"/><path transform="translate(113.33 14.594) scale(.0078125 -.0078125)" d="m90 702v14q0 59 11.5 124.5t32.5 130.5 51 126 68 112q42 55 94.5 98.5t113 74.5 128.5 47.5 141 16.5q61 0 126-11.5t120-34.5q45-21 81.5-50.5t77.5-58.5q4-5 8.5-6t8.5-1q9 0 16 13 11 19 20 48.5t20 50.5q4 9 9 10.5t11 1.5q7 0 10.5-5t3.5-7q8-35 9.5-70t1.5-73v-58q0-13 0-26t1-27q4-38 10-66t6-54q0-15-4.5-31.5t-18.5-16.5q-6 0-16.5 15t-21.5 33.5-21.5 36.5-14.5 24q-28 40-53.5 76t-52 67.5-56 58-65.5 47.5q-31 19-59 29.5t-54.5 15.5-52.5 6-53 1q-42 0-77.5-11.5t-66.5-31.5-57.5-46-51.5-55q-72-85-108.5-226.5t-36.5-338.5q0-98 17.5-177.5t43.5-141 57.5-106 59.5-72.5q30-32 57.5-55.5t57.5-38.5 65-22.5 79-7.5q67 0 131 29t125 76q13 10 27 24t27.5 28 25 27.5 19.5 24.5q32 50 56 97t44 97q10 15 35 15 11 0 15-8t4-19q-16-55-28-99.5t-26-94.5q-9-36-13-70.5t-8-61-9-42.5-16-16q-8 0-13 6t-10 19q-2 10-6.5 17.5t-15.5 7.5-20.5-4-23.5-12.5-35-20-56-26.5q-64-26-137-41.5t-145-15.5q-105 0-192 27.5t-165 93.5q-62 53-111 121.5t-83.5 145.5-53 159.5-18.5 163.5z"/><path transform="translate(124.1 14.594) scale(.0078125 -.0078125)" d="m-19 28q0 4 5.5 12t16.5 8q16 0 34.5 5t36 15.5 33 27 26.5 39.5l265 628q1 2 4.5 9.5t3.5 12.5q0 11-5 22t-11.5 20.5-11.5 17-5 13.5q0 10 7 16t16.5 9.5 20.5 4.5 19 3q9 4 20 13.5t18 15.5q3 5 5 13t4.5 15 7 12 12.5 5q20 0 24-17l286-856q6-19 13.5-29.5t18.5-15.5 24.5-6 31.5-1h36q9 0 14-2 5 0 11.5-7t6.5-12q0-16-18-17-2-2-14-2h-57q-29 0-67 3.5t-76 3.5q-62 0-120-3.5t-103-3.5q-5 0-10.5 2t-5.5 8 5 12 12 11.5 15.5 8.5 15.5 3q10 0 20-1t22-1q32 0 52 7 17 6 17 24 0 2-1 5t-2 9q-4 9-13 33.5t-19 53.5-19.5 56-14.5 42q-4 9-8.5 17.5t-15.5 8.5h-281q-25 0-32-24l-40-145q-2-7-3-12t-1-14q0-16 2.5-25.5t8-15.5 15-8.5 24.5-4.5q5 0 16.5-1.5t24.5-3.5 24.5-3.5 16.5-1.5q5-2 14.5-9.5t9.5-16.5q0-5-4-9.5t-15-4.5h-31q-16 0-43.5 1t-55.5 1q-27 0-65-1t-78-1q-5 0-20 1.5t-30.5 5-27.5 9-12 12.5zm309 360q-1-2-1-11v-5q0-11 6.5-18.5t17.5-7.5q61 0 115.5-4.5t105.5-4.5q11 0 17 6.5t6 12.5v11q0 2-1 4-2 3-3 10l-107 304q-8 21-19 21-5 0-11-4t-8-8z"/><path transform="translate(131.58 14.594) scale(.0078125 -.0078125)" d="m150 0q-10 0-22 1t-22.5 4.5-17.5 10.5-7 19q0 9 1.5 16t10.5 11q32 5 53.5 7t36.5 9 24.5 24.5 16.5 53.5q0 85 1.5 175t5.5 174q2 61 10.5 118.5t8.5 118.5q0 11-1 16t-6 19q-3 5-12 18.5t-20 28-21.5 28-15.5 18.5q-10 12-29 19.5t-37.5 15-32 17-13.5 26.5q0 9 6.5 14.5t16 8.5 19 4 15.5 1q2 0 8-1t13-2.5 13-2.5 9-1h106q5-2 16-8.5t15-10.5q76-83 149-163t144.5-158 143-155 144.5-156q5-5 9-9 4-3 8-5.5t7-2.5q9 0 14 8.5t5 10.5v327q0 35-1.5 71t-4.5 67.5-8 56.5-12 37q-14 23-43 32t-58 13.5-50.5 9.5-21.5 19q0 28 33 28h379q19 0 19-23 0-10-22-16.5t-50-16.5-54.5-26-35.5-44q-11-25-15-54t-4-80v-700q0-9-7-15t-11-6q-13 0-29 19-4 5-25.5 29t-55.5 61-78 84-92 99-98 106-96 104-86.5 93.5-68.5 74.5q-10 8-18 8-16 0-20-20t-4-42q0-10 0.5-29.5t1.5-45 2.5-54 2.5-55 1.5-48.5 0.5-35v-48q0-23 0.5-52t3-57 7-51 13.5-35q10-16 26-23t34-9.5 36.5-3 33-3.5 23.5-11.5 9-26.5q0-9-1.5-14.5t-11.5-14.5z"/><path transform="translate(140.95 14.594) scale(.0078125 -.0078125)" d="m81 471q0 59 11 107.5t33 90.5 54.5 79.5 74.5 73.5q33 28 71 46t78.5 28.5 83.5 14.5 85 4q36 0 76.5-11t78.5-28.5 70-38 53-39.5q73-69 113-149.5t40-176.5q0-52-7.5-95.5t-22-81.5-36-72-49.5-67q-26-29-61.5-57t-78.5-50-92.5-35.5-102.5-13.5q-91 0-167.5 24.5t-142.5 86.5q-162 141-162 360zm463 401q-45 0-76.5-9.5t-56-27-44.5-42.5-41-56q-38-59-50-125.5t-12-134.5q0-78 15.5-155.5t60.5-150.5q12-21 34-43.5t48-41 53.5-31 51.5-12.5q47 0 82.5 16t63.5 42.5 49.5 61 41.5 71.5q25 49 36.5 105.5t11.5 122.5q0 47-6.5 88t-20 79-33.5 74.5-47 74.5q-27 41-68.5 67.5t-92.5 26.5z"/><path transform="translate(149.41 14.594) scale(.0078125 -.0078125)" d="m150 0q-10 0-22 1t-22.5 4.5-17.5 10.5-7 19q0 9 1.5 16t10.5 11q32 5 53.5 7t36.5 9 24.5 24.5 16.5 53.5q0 85 1.5 175t5.5 174q2 61 10.5 118.5t8.5 118.5q0 11-1 16t-6 19q-3 5-12 18.5t-20 28-21.5 28-15.5 18.5q-10 12-29 19.5t-37.5 15-32 17-13.5 26.5q0 9 6.5 14.5t16 8.5 19 4 15.5 1q2 0 8-1t13-2.5 13-2.5 9-1h106q5-2 16-8.5t15-10.5q76-83 149-163t144.5-158 143-155 144.5-156q5-5 9-9 4-3 8-5.5t7-2.5q9 0 14 8.5t5 10.5v327q0 35-1.5 71t-4.5 67.5-8 56.5-12 37q-14 23-43 32t-58 13.5-50.5 9.5-21.5 19q0 28 33 28h379q19 0 19-23 0-10-22-16.5t-50-16.5-54.5-26-35.5-44q-11-25-15-54t-4-80v-700q0-9-7-15t-11-6q-13 0-29 19-4 5-25.5 29t-55.5 61-78 84-92 99-98 106-96 104-86.5 93.5-68.5 74.5q-10 8-18 8-16 0-20-20t-4-42q0-10 0.5-29.5t1.5-45 2.5-54 2.5-55 1.5-48.5 0.5-35v-48q0-23 0.5-52t3-57 7-51 13.5-35q10-16 26-23t34-9.5 36.5-3 33-3.5 23.5-11.5 9-26.5q0-9-1.5-14.5t-11.5-14.5z"/><path transform="translate(162.2 14.594) scale(.0078125 -.0078125)" d="m116 1071q0 50 16.5 101t44.5 96.5 65.5 83 79.5 60.5q40 23 81.5 28t89.5 5q54 0 106-12.5t101-38.5q4-3 15-10t24.5-17 27.5-20.5 25-19.5q4-4 7-4 1 0 5 4 3 4 7.5 12.5t9.5 18 9.5 18 6.5 11.5q2 5 5.5 9t4.5 4q0 1 4 1 6 0 9-4.5t4.5-10.5 1.5-12.5 0-10.5v-7q0-2-0.5-8t-1.5-13.5-1.5-13.5-1.5-8v-247q0-8-7-11t-12-3q-11 0-13 4.5t-6 16.5q-11 26-14.5 53.5t-14.5 56.5q-11 33-37 71.5t-60 71.5-71 55-71 22q-63 0-97-9-51-15-85.5-48.5t-63.5-75.5q-8-12-15-30.5t-11.5-39-7-39.5-2.5-31q0-48 20.5-87t53.5-69.5 74.5-54 83.5-40.5q36-15 74.5-29t76-29 72-33 61.5-41q34-27 67-66.5t59.5-86 42.5-96.5 16-98q0-93-32.5-168t-90-127.5-135.5-81-168-28.5q-53 0-102.5 5.5t-94.5 19.5-85 39-76 64q-4 5-10.5 6t-10.5 1q-17 0-24-9t-11.5-20.5-10.5-20.5-21-9l26 275q2 13 3 31t5 24q3 14 11 14 12 0 17-15 6-17 10-33.5t7-32.5 6.5-30 9.5-25q23-41 44.5-73t48-59 61.5-49 85-41q31-11 59-12.5t51-1.5q28 0 56 10.5t67 32.5q57 34 91 81.5t34 119.5q0 51-18.5 95t-50.5 82q-46 51-88 79.5t-82.5 45.5-80.5 29-81.5 30-84.5 48-90 84q-102 120-102 291z"/><path transform="translate(170.47 14.594) scale(.0078125 -.0078125)" d="m90 702v14q0 59 11.5 124.5t32.5 130.5 51 126 68 112q42 55 94.5 98.5t113 74.5 128.5 47.5 141 16.5q61 0 126-11.5t120-34.5q45-21 81.5-50.5t77.5-58.5q4-5 8.5-6t8.5-1q9 0 16 13 11 19 20 48.5t20 50.5q4 9 9 10.5t11 1.5q7 0 10.5-5t3.5-7q8-35 9.5-70t1.5-73v-58q0-13 0-26t1-27q4-38 10-66t6-54q0-15-4.5-31.5t-18.5-16.5q-6 0-16.5 15t-21.5 33.5-21.5 36.5-14.5 24q-28 40-53.5 76t-52 67.5-56 58-65.5 47.5q-31 19-59 29.5t-54.5 15.5-52.5 6-53 1q-42 0-77.5-11.5t-66.5-31.5-57.5-46-51.5-55q-72-85-108.5-226.5t-36.5-338.5q0-98 17.5-177.5t43.5-141 57.5-106 59.5-72.5q30-32 57.5-55.5t57.5-38.5 65-22.5 79-7.5q67 0 131 29t125 76q13 10 27 24t27.5 28 25 27.5 19.5 24.5q32 50 56 97t44 97q10 15 35 15 11 0 15-8t4-19q-16-55-28-99.5t-26-94.5q-9-36-13-70.5t-8-61-9-42.5-16-16q-8 0-13 6t-10 19q-2 10-6.5 17.5t-15.5 7.5-20.5-4-23.5-12.5-35-20-56-26.5q-64-26-137-41.5t-145-15.5q-105 0-192 27.5t-165 93.5q-62 53-111 121.5t-83.5 145.5-53 159.5-18.5 163.5z"/></svg>