<svg width="110.67" height="20" viewBox="0 0 110.67 20" xmlns="http://www.w3.org/2000/svg"><path transform="translate(0 14.594) scale(.0078125 -.0078125)" d="m391 7q-53 0-104.5-4.5t-103.5-4.5h-7q-12 2-30 4.5t-34.5 9-28 17.5-11.5 30q0 4 1 11t6 11q2 3 10 5t11 2q28 3 56 4t55 6 51.5 17 44.5 36q-1 44 3 86.5t4 84.5q0 17-3.5 31t-3.5 29v18q0 3 1 10t2.5 15.5 2.5 15.5 1 9v150q0 2 1 7.5t2.5 11.5 2.5 10.5 1 5.5q0 2 0.5 10.5t0.5 19.5 0.5 22 0.5 17q0 4-0.5 14.5t-0.5 21.5-0.5 20.5-0.5 12.5q0 4-2.5 15t-4.5 15v8q0 16 8 30t8 33v12q0 9-2 17.5t-7 16.5v70q0 36 4.5 70t4.5 68v14q-1 1-2.5 5.5t-3 9-2.5 8.5-1 4q0 5 3.5 15.5t5.5 12.5v7q0 18-14 35t-29 22q-9 1-32 5t-48 8.5-47.5 8.5-31.5 6q-24 5-36.5 19t-12.5 40q0 21 17.5 32.5t40.5 17 47 6.5 37 1h10q4 0 19.5-2t33-4 32.5-4 19-2q5-2 19-2t30 0q15 0 29 0t21 2q11-7 24.5-8t20.5-1q41 0 79 8t83 8h56q12-8 25-13.5t24.5-12 19-16.5 7.5-28q0-8-3-17.5t-8.5-18.5-13.5-15-17-6q-22-4-44-6t-46-2q-25 0-49 2t-49 6q-2 0-3.5-4.5t-1.5-7.5q0-2 1-7.5t1.5-11 1.5-10.5 1-5v-16q0-11-3.5-20t-7-18-7-17.5-3.5-18.5v-14q2-3 4.5-12t4.5-11v-55q1-5 3-9 4-10 4-12 2-27 3.5-51t1.5-53q0-32-10.5-63.5t-10.5-65.5v-2q1-2 3.5-7.5t5.5-12.5 5-13.5 2-8.5v-36q0-38-8-74.5t-8-74.5q0-49 4.5-96.5t4.5-95.5v-86q-2-5-4.5-18.5t-4.5-16.5q0-1-1-5.5t-2.5-9-2.5-9-1-5.5q0-2 1-10.5t2-19 2-20 2-13.5q3-14 10-22t16-12.5 20-6.5 23-5q1-2 7.5-4t13.5-4.5 13.5-4.5 8.5-3q5-1 18.5-2t29-2 29.5-2 20-1q9-6 11.5-12t2.5-15v-9q0-23-8.5-34t-25.5-27q-3 0-8-3.5t-6-3.5h-9q-75 5-148.5 14t-148.5 9z"/><path transform="translate(6.5938 14.594) scale(.0078125 -.0078125)" d="m276 7h-189q-4 0-8.5 6.5t-8.5 15-7 15.5-3 8q0 20 14.5 36t31.5 16q5 0 20 1t31 1q15 0 29-1t19-1q3 2 7.5 4.5t6.5 3.5q3 1 8.5 7t12 13 12.5 13 8 9q0 5 1 18.5t2.5 29 2.5 29.5 1 20q2 2 4.5 16t4.5 18v63q0 2 2 9t4 15 4 15 2 9q7 34 15 73t8 74q0 2-4.5 13t-4.5 15v64q0 45 3 90t13 88q0 1 2 7t4 13 4 13.5 2 8.5q0 5 2.5 25t5 43.5 5 44.5 2.5 27q0 1 1 8t2.5 15 2.5 15 1 8q0 2-2 7.5t-5 11-5.5 10.5-2.5 6q0 3 3.5 12t4.5 11q1 3 2 9.5t2 13 2 12 1 6.5q0 4-1 13.5t-2 20.5-2 20.5-2 14.5q-14 17-36.5 18t-41.5 3q-2 0-8 2t-12.5 5-12.5 5-8 2q-22 6-39 9t-30.5 8-23.5 16.5-18 35.5q0 3 6 7.5t8 6.5h21q3 0 12 2t20 5 20 5 12 2h116q2 0 7.5-1t11-2.5 10.5-2.5 5-1h147q34-14 55.5-37.5t41.5-52.5q1-2 4.5-6t7.5-8.5 6.5-9 2.5-6.5q2-1 4-12t5-15q8-21 21.5-39.5t17.5-42.5q0-2 1-11.5t2.5-20 2.5-20 1-12.5q5-14 14.5-32t13.5-30q0-2 3.5-14t3.5-14q1-2 5-7t9-10.5 9-10.5 5-6q1-2 2.5-9t2.5-15 1.5-15.5 0.5-9.5q10-34 26.5-58.5t30.5-58.5q0-2 1-9t2-15 1.5-15.5 0.5-9.5 3.5-13.5 3.5-13.5q4-12 13-17.5t19-11 17.5-12.5 7.5-20v-17q0-2-3.5-13t-3.5-13q0-1 1.5-6.5t3.5-12 4-13.5 3-11q3-7 8-16.5t11.5-18.5 14.5-15.5 16-6.5q6 0 10 4t6.5 10 5 12.5 6.5 11.5q11 13 28.5 27.5t26.5 34.5q1 5 2 10t2 9 1 7q5 19 11 32.5t13 26 15.5 25 17.5 28.5q12 19 18 38.5t17 37.5q1 1 5 6.5t9 11.5 9 11 5 6q3 4 5 12t3.5 16 2.5 15.5 3 11.5q15 43 37 80.5t40 80.5q8 17 10.5 37.5t8.5 37.5q3 4 10.5 20.5t15.5 35.5 15.5 35 9.5 21q1 3 3 10.5t2 10.5v5q0 3-2.5 8.5t-2.5 7.5v7q7 14 15 28t18 25.5 24 19.5 33 11q4 0 24.5-0.5t39.5-0.5q20 0 24 1 2 0 8.5 1.5t14 4 13.5 4.5 7 2q32 8 61 12t65 4q6 0 16-0.5t19.5-0.5 17-0.5 8.5-0.5q11 0 24.5-5t25.5-14 20-20.5 8-24.5q0-8-6.5-17t-15.5-17-18-13.5-14-5.5q-17 0-32 3.5t-32 3.5-34-2.5-37-11.5q-12-6-19-18t-10.5-26.5-4-30.5-0.5-29v-17q0-12 1-19.5t3-14.5 4.5-14 4.5-18q0-5 0.5-17t0.5-24.5 0.5-24 0.5-15.5q0-92-5-182.5t-3-182.5q0-2-3.5-10t-3.5-10v-8q5-26 10-55t5-56q0-26-7.5-48.5t-7.5-48.5v-12q0-8 1-14.5t6-14.5q0-3 0-11.5t0.5-18 0.5-18 0-11.5q0-6 0-16t-0.5-19.5-0.5-17 0-8.5-3.5-12-3.5-15v-26q0-3 5.5-14t7.5-14q1-2 5.5-7.5t9-11.5 8.5-10.5 5-5.5q2-1 4.5-7t2.5-8q2-2 4-4.5t5-2.5h27q1 0 7.5-2t13.5-4 13-4 8-2q1-1 7-2t12.5-2.5 12.5-2.5 8-2q3-1 9-3.5t13-5.5 12.5-6 6.5-4q0-2 1-8t1-7q0-14-13-24.5t-30-10.5h-332q-5 0-15.5-3.5t-12.5-3.5h-14q-1 0-6.5-2t-11.5-4-11-4-6-2h-71q-13 0-27 13t-14 27v7q7 0 25 3.5t25 3.5q2 0 9.5 3.5t9.5 3.5 7.5 1 11.5 2 10.5 2.5 5.5 2.5q12 4 18.5 16.5t10 27 4.5 29 1 24.5q11 64 15.5 128t12.5 130q0 10 0.5 36.5t1.5 56 1.5 55.5 0.5 37q0 19-0.5 49.5t-1.5 60.5-1.5 53-0.5 25q0 7-0.5 26.5t-1.5 41.5-1.5 42-1.5 29q0 3-2 12t-5.5 18.5-8 17-8.5 7.5q-9 0-14.5-4.5t-9.5-10.5-7.5-13-8.5-12q-1-2-5.5-7t-10.5-11-11.5-10.5-7.5-5.5q0-3-2.5-8t-2.5-8q-12-27-28.5-51.5t-28.5-52.5q-9-26-14.5-54.5t-13.5-55.5q-1-12-8.5-18t-10.5-17q-1-1-2.5-6.5t-2.5-11.5-2-11.5-1-6.5q-2-2-8-8t-13-12.5-13.5-13-7.5-8.5q-7-6-9-20.5t-5-20.5q-1-3-3-11t-2-10q-2-2-8-9.5t-8-9.5q-10-26-14-53.5t-13-53.5q-3-5-7.5-15.5t-9-22-8.5-20.5-5-11q0-2-5-12t-10.5-22-11-22.5-7.5-13.5q0-1-0.5-8t-1.5-15-2-15-1-8q0-5-3.5-15.5t-3.5-12.5q-3-5-8.5-17.5t-12.5-26-12.5-25.5-8.5-16q-11-6-22-14t-25-8q-13 0-26 12.5t-23.5 29.5-18 35-9.5 30q-5 18-8.5 33t-6.5 29.5-7.5 29.5-12.5 33q-1 2-6.5 11.5t-11.5 20-11 19.5-6 11q-18 32-27 64.5t-23 68.5q-18 50-42 99t-41 102q-1 1-2 7t-1.5 13-1 13-0.5 8q-2 2-8 10.5t-8 10.5q0 2-3 9.5t-3 9.5q-1 2-3 7.5t-4.5 11.5-5 10.5-3.5 5.5q0 3-0.5 10.5t-1.5 15.5-2 15-1 9q-2 3-4.5 8.5t-5.5 12-6 12-5 8.5l-21 21q-9 12-15 28.5t-13.5 32.5-19 27-31.5 11h-6q-5-18-6.5-33t-2.5-29.5-1.5-30-1.5-34.5q0 0-1-4.5t-2.5-9-2.5-9-1-4.5v-11q0-11 3.5-22t3.5-24v-6q-5-24-10-48t-5-50q0-34 7.5-66t7.5-66q0 0-1-4t-2.5-8.5-2.5-9-1-5.5v-104q0-2-2-9t-4.5-15-5-15.5-3.5-9.5v-10q0-9 2-15.5t7-17.5v-150q5-9 8-20t6-22 7.5-20.5 12.5-15.5q21-2 51.5-6t52.5-13q2-3 9.5-8.5t9.5-7.5q8-4 16-6t14-5 9.5-9 3.5-16q0-14-6-22t-15-12-20-5-21-1q-42 0-84 3.5t-84 3.5h-26q-1 0-5.5-1t-9-2.5-9-2.5-5.5-1q-2 0-8.5 1.5t-14 4-14.5 4.5-10 4z"/><path transform="translate(24.648 14.594) scale(.0078125 -.0078125)" d="m96 73q0 11 5 21.5t13.5 19 19.5 14 23 5.5q16 0 30-4t32-4q6 0 15 1t18 3 16.5 6.5 11.5 11.5q0 3 2 9.5t4.5 13.5 4 12.5 1.5 7.5v42q0 1-1 8t-1.5 15-1.5 15-1 9q0 5 1.5 18.5t3.5 17.5v465q-4 20-4.5 31.5t-0.5 29.5v15q0 5 0.5 10.5t4.5 10.5v168q11 27 13 59t2 62v23q0 8-5 25t-13 34.5-17.5 31.5-19.5 16q-7-2-20-3t-27-1-27 1-18 3q-18 0-34 14t-16 32q0 8 2.5 11t6.5 12q11 20 25 32t39 15q3 0 17 1.5t31.5 2.5 34.5 2.5 26 1.5h69q69 0 136-7.5t136-7.5q29 0 53 1t59 6q2 1 10 4t11 4h242q14-6 36-9.5t33-5.5q4 0 22 0.5t33 0.5q8 0 14.5 0t8.5-1q1 0 6.5-3t12-7.5 13.5-9.5 10-8q1-2 3-5 1-2 2-4t1-3q1-5 3.5-14t4.5-18 4-16 2-9v-62q0-3 1-12t2.5-19.5 2.5-20 1-11.5v-20q-1-10-3-25t-4.5-29.5-4.5-25-3-10.5l-35-35h-12q-9 7-19 13-8 5-17 11t-14 11-11 13.5-8 13.5q-2 2-6.5 9t-9 15.5-8 15.5-4.5 9q-17 27-34.5 56t-43.5 49q-1 0-5 1.5t-8.5 4-8 4.5-4.5 2q-5 5-16 15.5t-13 14.5q-4 0-14 1t-21.5 2-21 1.5-12.5 0.5h-187q-3 0-14.5 1t-24.5 2.5-24.5 2.5-14.5 1h-7q-25 0-39.5-12.5t-22-31.5-10-41-4.5-40q-5-59-10.5-119.5t-5.5-118.5q0-38 1-66t8-64q4-21 22.5-28t36.5-7q26 0 48.5 8t48.5 8q18 0 35-4.5t34-4.5q12 0 28 5.5t31 15.5 25.5 22 10.5 26q0 1-1.5 6.5t-3 11.5-3 11-1.5 6q0 45 17.5 83.5t46.5 70.5q7 7 12 9.5t16 2.5q13 0 22-12t15-28.5 9-32.5 4-24q0-4-1-26.5t-1-42.5q0-11 0-18t2-10q0-1 2-6t4-11 4-11 2-6v-26q0-4-3.5-15.5t-3.5-14.5v-117q0-3-2-14.5t-4-24.5-4.5-24-2.5-13v-28q-3-23-5.5-34.5t-8.5-29.5q-2-5-5-14.5t-6.5-18.5-6-15.5-3.5-7.5q-4-10-16.5-11.5t-21.5-1.5q-17 0-27 7.5t-16 19-10 25-8 24.5q0 2-1.5 7.5t-3.5 11-4 10.5-3 5q-7 19-9.5 37t-7 33.5-14.5 28-31 21.5h-24q-24 0-44 2.5t-39.5 5-39.5 5-43 2.5q-3 0-10-0.5t-14.5-1-13.5-1-9-0.5q-5-8-10-20.5t-9-26.5-6.5-28-2.5-24q0-25 1.5-47.5t5.5-47.5q0-2 3.5-13.5t3.5-14.5-1-15-2.5-26-2.5-26.5-1-15.5v-77q0-6 1-21t2.5-31.5 2.5-31 1-20.5q4-14 19.5-26t29.5-16h55q2 0 10-1.5t11-3.5q1-2 7.5-4.5t7.5-2.5q4-1 15-2.5t23-3 22.5-2.5 15.5-1q14-5 17.5-22.5t3.5-34.5v-10q0-7-1-15t-8-14q-1-3-11.5-8t-15.5-6q-1-1-6-2t-11-2-11.5-2-6.5-1q-20-7-39.5-14t-39.5-7q-26 0-54 9.5t-54 11.5q-8 0-31 1t-51 2-54 2-38 2h-104q-17 0-34.5 4t-32 12.5-23.5 21.5-9 33z"/><path transform="translate(34.062 14.594) scale(.0078125 -.0078125)" d="m295 716q0-24 11-34.5t27.5-13.5 36-2.5 35.5-1.5q2 0 8-3.5t8-3.5q20-6 30-7t30-1q19 0 39 1.5t36.5 7.5 27 19 10.5 36q0 29-9.5 60.5t-32.5 49.5q-5 0-15.5 1t-22.5 2-23.5 2.5-16.5 1.5q-2 1-5 3-6 4-7 4h-17q-21 0-47.5-10.5t-49-27.5-38-38.5-15.5-44.5zm-229-247q0 59 13.5 119.5t48.5 110.5q7 10 20 26.5t25.5 33 21.5 29.5 10 15q13 16 34 30t44 27 46 25.5 40 24.5q20 4 40 6.5t40 2.5q33 0 60-7 21-14 45-17.5t47-10.5q19-5 37.5-15.5t34-25 29-31 23.5-32.5q1-1 3-5t4.5-8.5 4.5-8.5 2-5q5-7 13.5-15.5t16.5-18 13.5-20 5.5-21.5q0-8-1-19.5t-4-23-8.5-21.5-14.5-14q-2 0-7.5-2t-12.5-4.5-13.5-4.5-8.5-3q-1 0-6.5-2.5t-6.5-3.5q-13 0-39.5-0.5t-60-1-70.5-1.5-70.5-2-60.5-1.5-40-0.5q-4 0-15-0.5t-23-1.5-22.5-2.5-14.5-2.5q-26-21-34.5-50.5t-8.5-62.5q0-36 7-62.5t21-60.5q2-2 4.5-7.5t2.5-7.5q1-1 5.5-4.5t9-8 8.5-9 4-6.5q1-1 6.5-6.5t11.5-12.5 11-13.5 6-8.5q2 0 4.5-3t4.5-3q9-8 22.5-19t26.5-21q15-12 32-24 43-12 83-12t85 12q26 16 53.5 24.5t55.5 17.5q2 2 8 4.5t7 4.5h7q7-3 17.5-8t10.5-8q2-2 4.5-15t2.5-20q0-17-9.5-40t-18.5-34q0-2-11.5-10t-17.5-12q-32-21-63-44.5t-67-37.5q-2-1-9.5-2.5t-15.5-2.5-15-2-8-1q-19-5-32.5-9.5t-31.5-4.5q-17 0-31 4.5t-32 9.5q-9 2-25.5 6.5t-34.5 10.5-33.5 13-22.5 13q-3 1-11 9t-17.5 17-17.5 17-11 10q-1 2-10 8t-10 8q-5 2-12 9.5t-9 9.5q-3 4-12.5 18.5t-20.5 31.5-21.5 33-14.5 23q-14 20-18.5 40t-9.5 43q0 1-3.5 9.5t-3.5 10.5q-13 30-17 67.5t-4 71.5z"/><path transform="translate(40.688 14.594) scale(.0078125 -.0078125)" d="m241 9h-7q-35-7-71-11.5t-73-4.5q-29 0-45.5 12t-31.5 38q-5 7-6 10t-1 11 6 15 14.5 13 18 9.5 16.5 4.5h83q4 0 12 5.5t17 12 16.5 13.5 9.5 10q2 1 4.5 7t4.5 13 3.5 13 1.5 9q-1 15-2 31t-1 33q0 58 5 117t5 116v69q1 3 2 13t2 22 2 22 3 13v15q0 20-4.5 39.5t-4.5 40.5q0 14 1.5 22t12.5 21q-2 7-2 24.5t0 37.5 0 38 2 26q0 2 3.5 13t3.5 15v10q0 8-1 14.5t-6 16.5v139q-1 2-3 7.5t-4 12-4 12.5-3 8v12q0 20 4.5 39.5t4.5 39.5q0 25-4.5 39.5t-11.5 36.5q-6 24-14 35t-34 14q-5 0-16.5 1t-25 2.5-25.5 2.5-16 1q-4 2-14.5 12.5t-15.5 14.5v30q3 2 11.5 8.5t17.5 14 17 14.5 11 10q2 1 8 3.5t8 2.5q2 1 12 1.5t22 1.5 22 2 13 2q1 1 8 6t15.5 11.5 15 12 8.5 7.5q2 0 8 0.5t12.5 1.5 12.5 2 8 3q3 0 11 4.5t17.5 9 17.5 9 10 4.5h8q19 0 27-9t22-18q6-5 14-8.5t15.5-8.5 12.5-12 5-18v-4q-7-33-14-68t-7-70q0-13 4.5-26t4.5-26v-5q-2-2-4.5-9.5t-4.5-9.5v-194q0-2-1-7t-2.5-10.5-2.5-10.5-1-6q0-5-0.5-25t-1.5-42.5-2.5-42-2.5-24.5q0-1-2.5-12t-2.5-15v-132q0-2-1-10t-2.5-17-2.5-17-1-9q0-3-1-9t-1-9q0-36 4.5-71.5t4.5-71.5v-28q0-2-2-7t-5-11-5.5-11-3.5-6q0-4-1-19t-2-32.5-2-32.5-2-19q0-2-1-7.5t-2.5-11-2.5-10.5-1-6v-10q0-25 5-48t9-46q1-2 2-9.5t2.5-15.5 2.5-15.5 2-9.5q2-5 9.5-14.5t9.5-9.5h126q2 0 15-6t20-11q2 0 3.5-2t1.5-4q2-3 5.5-8.5t7-12 6.5-12 4-8.5v-5q0-5-0.5-13.5t-2.5-17-6.5-16-13.5-10.5q-39-5-80.5-10.5t-83.5-5.5q-10 0-17.5 2.5t-14 5.5-13.5 5.5-16 2.5q-8 0-14-4.5t-12-10.5-12.5-10.5-14.5-4.5-15 3.5-14.5 8-15 8-16.5 3.5z"/><path transform="translate(45.492 14.594) scale(.0078125 -.0078125)" d="m241 9h-7q-35-7-71-11.5t-73-4.5q-29 0-45.5 12t-31.5 38q-5 7-6 10t-1 11 6 15 14.5 13 18 9.5 16.5 4.5h83q4 0 12 5.5t17 12 16.5 13.5 9.5 10q2 1 4.5 7t4.5 13 3.5 13 1.5 9q-1 15-2 31t-1 33q0 58 5 117t5 116v69q1 3 2 13t2 22 2 22 3 13v15q0 20-4.5 39.5t-4.5 40.5q0 14 1.5 22t12.5 21q-2 7-2 24.5t0 37.5 0 38 2 26q0 2 3.5 13t3.5 15v10q0 8-1 14.5t-6 16.5v139q-1 2-3 7.5t-4 12-4 12.5-3 8v12q0 20 4.5 39.5t4.5 39.5q0 25-4.5 39.5t-11.5 36.5q-6 24-14 35t-34 14q-5 0-16.5 1t-25 2.5-25.5 2.5-16 1q-4 2-14.5 12.5t-15.5 14.5v30q3 2 11.5 8.5t17.5 14 17 14.5 11 10q2 1 8 3.5t8 2.5q2 1 12 1.5t22 1.5 22 2 13 2q1 1 8 6t15.5 11.5 15 12 8.5 7.5q2 0 8 0.5t12.5 1.5 12.5 2 8 3q3 0 11 4.5t17.5 9 17.5 9 10 4.5h8q19 0 27-9t22-18q6-5 14-8.5t15.5-8.5 12.5-12 5-18v-4q-7-33-14-68t-7-70q0-13 4.5-26t4.5-26v-5q-2-2-4.5-9.5t-4.5-9.5v-194q0-2-1-7t-2.5-10.5-2.5-10.5-1-6q0-5-0.5-25t-1.5-42.5-2.5-42-2.5-24.5q0-1-2.5-12t-2.5-15v-132q0-2-1-10t-2.5-17-2.5-17-1-9q0-3-1-9t-1-9q0-36 4.5-71.5t4.5-71.5v-28q0-2-2-7t-5-11-5.5-11-3.5-6q0-4-1-19t-2-32.5-2-32.5-2-19q0-2-1-7.5t-2.5-11-2.5-10.5-1-6v-10q0-25 5-48t9-46q1-2 2-9.5t2.5-15.5 2.5-15.5 2-9.5q2-5 9.5-14.5t9.5-9.5h126q2 0 15-6t20-11q2 0 3.5-2t1.5-4q2-3 5.5-8.5t7-12 6.5-12 4-8.5v-5q0-5-0.5-13.5t-2.5-17-6.5-16-13.5-10.5q-39-5-80.5-10.5t-83.5-5.5q-10 0-17.5 2.5t-14 5.5-13.5 5.5-16 2.5q-8 0-14-4.5t-12-10.5-12.5-10.5-14.5-4.5-15 3.5-14.5 8-15 8-16.5 3.5z"/><path transform="translate(53.727 14.594) scale(.0078125 -.0078125)" d="m504 362q1-7 2-24t2-35.5 2-35.5 2-23q2-21 5-41t9-38.5 17.5-34 29.5-26.5h84q2 1 8.5 3t13 4 12.5 4.5 8 3.5q3 0 11 1t17 2 17 2 10 1q32 6 57 17.5t47.5 27 44 34.5 47.5 40q10 8 19 14t17 11.5 16.5 12 16.5 16.5q2 2 4.5 7.5t2.5 7.5q2 3 12 13t22 21.5 22 21.5 13 13q1 2 5 7t8.5 10 8.5 10 6 8q11 17 12.5 35t8.5 34q1 2 4.5 7t7 11 6.5 10.5 4 6.5q7 16 12.5 38t9 45.5 5 46 1.5 39.5q0 4-0.5 12t-0.5 15.5-0.5 13-0.5 6.5q0 2-3.5 9.5t-3.5 9.5v12q0 14 4.5 27t4.5 27q0 25-11 47.5t-25.5 44-28.5 43-20 45.5q-1 0-2 5t-1.5 10.5-1 11-0.5 7.5q-3 4-8.5 13t-12.5 19-13 19-9 12q-35 9-59 30t-52 39q-3 1-9 4t-11.5 6.5-9.5 6-5 2.5q-14 11-29.5 27t-32.5 23q-3 1-12 4t-20 6.5-20 6.5-12 4q-2 0-8.5 3t-15 7-15.5 7-8 3h-85q-1 0-13 3t-14 3-4 1q-4 2-7 2-15 0-31.5-2.5t-30.5-9-24.5-17.5-13.5-28q-1-3-2-12t-2-19.5-2-21-1-16.5q0-2-1-4.5t-1-4.5q0-3 1-4 0-2 1-3 0-1 2.5-9t4.5-10l-3-188v-35l-4-175q5-6 6-12t1-14q0-22-6.5-44.5t-8.5-45.5v-69q0-18-1.5-36.5t-4.5-32.5q0-2-2-8.5t-5-14-5-13.5-2-7v-9q0-17 6.5-32t13.5-28zm-201-353q-14 0-24-1t-23-8h-142q-1 0-5.5 1.5t-10 4-10.5 5.5-8 5q-9 8-10.5 18.5t-1.5 20.5v9q0 5 0.5 11t5.5 10q2 1 14 5.5t14 6.5q1 1 5 5t8.5 9 8.5 9 6 5h14q11 0 20-3t19-3q19 0 36 1.5t37 4.5q27 5 38.5 23t15.5 46q0 2 1.5 14.5t2.5 29 2.5 33 1.5 27.5v8q0 7-1 10.5t-7 10.5v104q0 4 2.5 21.5t5.5 37.5 5 37 2 21v134t1 4.5 2 9 2 9 1 4.5v7q-7 39-14 73.5t-7 75.5v52q0 1 1 5.5t2.5 9 3 8.5 1.5 5v96q0 3 1 12.5t2.5 20 2.5 20 1 11.5v118q-1 3-3.5 12t-6 18.5-6.5 18.5-6 12q-6 2-21 4t-31.5 4.5-31 4-20.5 2.5q-19 2-38.5 2t-36 4.5-27 17-10.5 39.5v6q0 5 1 9.5t7 4.5q5 1 18 4.5t27.5 7 27.5 6 19 3.5h28q4 0 9 1t11 1q8 0 15-2t11-7q11-1 38-3t57-4 56.5-4 37.5-3h7q34 0 65.5 5t65.5 9h7q10-1 37-3t57-4 57-4 38-3q1 0 9-2.5t10-4.5h15q2 0 13 3.5t15 3.5l2 2q1 0 1.5-0.5t1.5-0.5q1-1 2-1 2 0 10.5-3.5t10.5-3.5q4 0 20-3t35-6 35-6 20-4q2-2 10.5-4.5t10.5-3.5q1 0 5-2t8.5-5 8-5 4.5-2q4-2 15.5-4.5t14.5-2.5q1-2 9.5-6.5t10.5-7.5q2-1 8.5-6t13-11 12.5-11.5 8-6.5q13-10 27.5-13t27.5-16q6-5 17.5-16t23.5-23 22-22 13-13 12-15.5 19.5-26.5 20-26 11.5-15q2-2 7.5-7.5t7.5-8.5q12-15 18-31t9.5-32.5 6.5-33.5 8-34q0-1 2-5t4-8.5 4-9 2-5.5q2-2 4.5-9.5t3.5-9.5q8-21 15.5-34t13.5-25 9.5-26.5 3.5-39.5q0-14-4.5-26t-9.5-24-9.5-24.5-4.5-25.5q0-23 3.5-45t3.5-45v-28t-2-4-5-8.5-5-9-2-5.5v-42q-1-2-7-10.5t-8-10.5q-11-20-16-45t-12-45q-7-26-27-46.5t-33-43.5q-23-38-54-75t-66-63q-1-2-7-5t-13-6.5-13-6.5-7-4q-17-10-31-22t-33-18q-34-16-69-27.5t-62-36.5q-9-1-31-2.5t-46-4-46-4.5-31-3q-2 0-13-3.5t-15-3.5q-7-1-27-2t-43.5-2-44.5-2-30-1h-175q-34 2-68 9t-70 7z"/><path transform="translate(65.5 14.594) scale(.0078125 -.0078125)" d="m143 1202q-3 3-12 12t-18.5 19.5-18.5 19.5-12 12q-8 6-18.5 8t-22 4-23 8-21.5 21v4q0 9 6 15.5t15 8.5q46 8 90.5 12t89.5 10q2 0 11 3t12 3h12q2 0 8.5-1t13.5-2 12.5-2 6.5-1q7-1 22-2t34-1q18 0 34 1t23 2q20-6 31.5-25.5t11.5-39.5q0-2-0.5-5t-0.5-6q-1-4-1-8-1-2-6.5-7.5t-11.5-11-11-10.5-5-6q-5-8-6-17.5t-1-18.5v-40q0-2 2-6t4-8.5 4-8.5 2-5q1-2 2.5-7.5t2.5-11 1.5-10.5 0.5-5q10-33 22.5-63.5t20.5-63.5q5-20 7.5-45t11.5-45q1 0 4.5-4t7-8.5 7-9 3.5-5.5q1-3 4.5-8.5t7-12.5 6-12.5 3.5-8.5q0-2 2-9t4.5-15 4.5-15 3-9 4-7 6.5-11 6.5-11.5 4-7.5q6-13 7.5-26.5t6.5-26.5q5-19 16.5-33t17.5-30q2-2 4.5-11t2.5-11q1-3 5.5-12t9-19 8.5-19 5-12q1-2 2-9.5t2-15.5 2-15 1-9q1-3 5.5-11t10-16.5 11.5-16.5 9-11q19-14 45-14 12 0 21.5 11t17 26 12.5 30.5 8 24.5q3 6 9 23t13.5 36.5 14.5 37.5 10 26q5 13 14.5 24.5t14.5 25.5q2 2 3.5 13.5t1.5 13.5q1 2 2.5 10.5t2.5 17.5 1.5 17 0.5 9q1 2 3 7.5t5 11.5 5 10.5 3 5.5q9 26 12 47.5t3 50.5v21q0 16-1.5 29.5t-6.5 27.5q-2 1-5.5 7t-7 13-6.5 12.5-4 7.5q0 3-0.5 12t-1.5 20-2.5 20-2.5 12q0 1-2.5 9t-5.5 17.5-6 19.5-5 16q-2 2-4.5 6.5t-3.5 5.5q-3 5-10 16.5t-14.5 24-14 23-8.5 14.5q-7 10-23 16t-36 10-42 7.5-40 7.5-29.5 10.5-11.5 17.5q1 3 3 6 2 2 3 4.5t3 3.5q17 22 39 33.5t46.5 16.5 50 7 49.5 5q2 0 7.5 1t11.5 2.5 10.5 2.5 5.5 1h29q7 0 13.5-1t14.5-6h64q52 0 103-1t102-5q12-5 14-20.5t2-26.5v-9q-6-13-16-18t-21.5-6.5-24-1.5-23.5-2q-1 0-6-2.5t-8-3.5q-3-3-8.5-8t-10.5-11-9.5-10.5-5.5-5.5q-7-8-8-18.5t-1-21.5q0-2 0.5-8.5t3.5-8.5q1-7 6.5-25t12-37.5 12.5-37.5 8-25q1-2 4.5-8t7.5-12.5 6.5-12.5 2.5-8q11-25 11.5-48t2.5-49q2-13 8.5-23t14.5-19 15-19 10-22q1-2 2-12t2.5-22 2.5-22 2-13q0-3 2.5-13.5t4.5-14.5q1-4 4.5-14.5t8-22.5 8.5-23.5 7-17.5q0-2 2-6t5-6q5-10 14.5-32t21-44.5 23.5-39.5 22-17q8 0 10.5 1t11.5 6q4 2 10.5 6t11.5 8q6 4 13 8 2 2 3.5 13t1.5 15q17 45 30.5 91.5t26.5 93.5q7 25 19 49.5t16 49.5q1 3 2 14.5t2 24 2 24 1 14.5 2.5 16.5 2.5 18.5q3 10 9.5 19t13.5 17.5 12.5 17.5 7.5 20v51t2 5 5 11 5 11.5 2 6.5q5 17 7 28.5t2 28.5q0 36-16 51t-39 22.5-48 13.5-44 22q-3 2-8 7t-10.5 10.5-10.5 10.5-6 7v7q0 18 11 27.5t26.5 14 32 5.5 27.5 1q8 1 28.5 2t44 2 44 2 28.5 3q3 0 11 1.5t10 3.5q2 0 7 2t11 5 10.5 5 6.5 2 8-2 13-5 13-5 7-2q19-5 37-5.5t36.5-0.5 36.5-1.5 37-6.5q2 0 13-4.5t15-9.5q7-5 21.5-12t19.5-15v-24q0-27-9-39t-23-16.5-33-5.5-38-7q-2 0-8-2.5t-13.5-6-14-6.5-8.5-4q-1-2-9-4.5t-10-2.5q-14-8-22.5-21.5t-15.5-29.5-12.5-32-11.5-29q-2-2-8-10t-7-9q-11-20-17.5-42t-13.5-44-16-43-23-39q-4-50-10-91.5t-24-88.5q-6-16-14-29t-15.5-26-14-26.5-10.5-29.5q-2-2-2-15 0-11 1-22t1-13q-5-14-13.5-30t-18-32.5-18.5-32.5-14-30q-2-4-4-11.5t-5-7.5q0-3-0.5-12t-1.5-20-1.5-20-1.5-12q0-1-3.5-6.5t-3.5-6.5q-1-3-4-11t-3-10-2-10.5-4.5-18-5-18-3.5-9.5q0 0-1.5-4.5t-4-9-4.5-9-2-4.5q-3-5-6.5-13.5t-7.5-16.5q-4-10-9-19 0-3-1-12t-1.5-19-1.5-19-1-12q-3-17-8-42t-14.5-48.5-23.5-40-35-16.5h-12q-7 0-13.5 1t-12.5 6q-7 7-20 19.5t-15 16.5q-1 1-5 11t-9.5 23-11.5 26.5-9 21.5q-13 34-14.5 66t-10.5 67q-11 30-20.5 54.5t-23.5 54.5q-12 32-21 65.5t-18.5 66.5-21.5 65-30 61q-5 10-8 12.5t-11 2.5-12.5-2.5-8.5-12.5q-2-2-5.5-9t-8-16-9-17-7.5-12q-1-5-4-13t-6.5-15.5-6-13.5-2.5-8-1.5-8-2.5-13-2-13-1-8q-1-1-6-7t-11-12.5-11.5-13-7.5-7.5q-11-20-15-38.5t-11-38.5q-9-25-16.5-53t-17.5-51q-1-2-4-9t-6.5-15-6.5-15.5-4-9.5q-13-32-20.5-64t-17-63-24.5-59-42-51q-2 0-13-6t-16-8h-6q-4 0-8.5 3.5t-6.5 3.5q-3 3-10 9.5t-13.5 13.5-12 12-6.5 7q0 2-3 10.5t-7 18-7 17.5-3 9q-17 41-35 80t-35 81q-11 27-18 55t-16 54q-25 66-46 130t-46 128q0 2-2.5 8.5t-6 14-6.5 13.5-4 7q-2 4-8 19.5t-8 22.5q0 1-1.5 9t-3.5 17.5-4 17.5-3 9q-1 3-6.5 11.5t-11.5 18-11 17.5-5 10q-3 3-5 8t-2 6q-1 2-2 9t-2.5 15.5-2.5 15.5-2 9q-11 42-29 83t-31 83q-1 2-2 8.5t-2.5 13.5-2.5 13-2 6q0 2-2.5 7t-4.5 9q-18 34-32.5 63.5t-22.5 67.5z"/><path transform="translate(83.57 14.594) scale(.0078125 -.0078125)" d="m537 659q25-2 51.5-7t51.5-5h10q3 3 9.5 10t14.5 14.5 14.5 14 9.5 9.5q2 0 15 8.5t20 12.5q9 4 25 12t25 16q6 6 19 19.5t26 27.5 23.5 26.5 12.5 16.5q16 21 26.5 47.5t15.5 55 7 56.5 2 52q0 17-10 30t-18 30q-2 1-4.5 7.5t-6 13.5-7 13-5.5 6q0 4-8.5 12.5t-10.5 10.5q0 1-3 7t-6.5 13.5-7 13.5-5.5 7q0 1-5 4.5t-11.5 8-13 8.5-10.5 7q-2 2-8 4.5t-7 2.5q-1 1-4 5.5t-6 9-6 8.5-3 5q-2 0-5 3-1 1-2 3-3 1-10 3t-15 4.5-15.5 4.5-10.5 2q-1 0-7 1t-13 2.5-13 2.5-8 1q-2 1-9 3t-15 5-15.5 5-9.5 3h-20q-2-3-8-11.5t-13-17.5-13.5-17-9.5-11q-2-4-5-9.5t-6-11.5q-4-7-8-14v-124q-10-19-13.5-41t-3.5-44q0-9 0-18t2-17q-2-2-6.5-9.5t-5.5-9.5v-15q0-11 1.5-29.5t2.5-36 2-31 1-14.5q0-2 2-7.5t4.5-12.5 4.5-13 3-7v-57q0-2-3.5-6.5t-5.5-9.5q0-1-6-9t-6-10v-7q0-1 3-4l4-4q1 0 10 4t10 4q14 0 14-12 0-4-0.5-6.5t-0.5-6.5q0-9 6-11zm-429-581q-1 4 6.5 13t18.5 17.5 22 15.5 16 7q3 1 13 2t21.5 2 21.5 2 13 1q2 2 12.5 9.5t15.5 11.5q1 3 7 8t8 8q0 4 0.5 14.5t1.5 23 2.5 23.5 2.5 15q0 1 2 9t4 17.5 4 18 2 10.5v4q0 15-6 30t-6 32q0 21 6 42t6 44v9q0 4-1 25.5t-2.5 46-2.5 46-1 27.5v13q0 9 4.5 18t10.5 17.5 10.5 18 4.5 20.5q0 9-4.5 19t-4.5 19q0 13 7 24t7 24q0 21-6 51t-6 55q-2 9-2 31t0 47 0 47.5 2 31.5q-8 12-12 26.5t-4 27.5v3q1 1 3 6.5t5 11.5 5 11 3 6v36q0 25-7 50t-28 39q-5 0-16.5 2t-23.5 4-23 4-15 3q-1 2-9 5.5t-10 3.5-12-1-19-1q-10 0-12 2-8 1-15.5 7t-13.5 14-9.5 17-3.5 16q0 12 6 23t15 19.5 20 13.5 22 6q3 1 16.5 2t30.5 2.5 33 2.5 24 2h34q3-1 14.5-2.5t24.5-3 24.5-2.5 14.5-1h230q2 0 12-3.5t14-3.5h4q18 0 32 4.5t37 4.5q8 0 22.5-1t17.5-1q1 0 12-3.5t15-3.5q18-2 41.5-3.5t40.5-8.5q38-14 69.5-33t63.5-45q20-15 43-45.5t43.5-66.5 35.5-72.5 18-64.5v-43q0-2 3.5-13t3.5-13v-9q-7-37-15.5-73t-21-70.5-31-66.5-45.5-60q0 0-2.5-2.5t-6-5-7-4.5-4.5-2q-2-1-9-10t-16-20-18-22.5-13-17.5q-2-2-8-10t-6-10q-22-1-35-2.5t-27-12.5q-12-6-29-12.5t-35.5-11.5-36.5-8-32-3q-26 0-49 9.5t-46 13.5h-30q-20 2-35 11.5t-36 9.5h-8q-8 0-17-2t-16-7q0-3-1.5-10t-4-14.5-4.5-14-2-8.5q-1-2-3-7.5t-4.5-11-4.5-10.5-2-5q-2 0-2-4v-3q0-2 0-4.5t2-4.5q0-2 7-13t7-13 1.5-8.5 2.5-14 2-13.5 1-7l5-14 3-5q0-13-6.5-29.5t-8.5-27.5q-1-2-3-8t-4.5-13-4.5-13-2-8q0-3 2-13t4.5-22 4.5-22.5 3-13.5q3-14 4-29t4.5-30 11-28 21.5-23q4-3 15-8t13-5h90q5 0 16-7.5t21.5-17 18.5-17.5 8-9v-6q-8-14-14.5-23t-14-15.5-17-10-23.5-6.5q-9 0-30.5 1t-44.5 1-43.5-1-28.5-1q-5 0-18.5-2.5t-16.5-4.5h-237q-13 9-24 9-5 0-10-1t-13-1h-8q-30 5-45 26.5t-18 51.5z"/><path transform="translate(92.859 14.594) scale(.0078125 -.0078125)" d="m155 1211q0 39 21.5 75.5t56.5 54.5q4 0 16 1t25 2 25 1.5 17 0.5q0 3 3 3 16 0 27.5-6.5t20.5-16.5 16.5-22.5 13.5-23.5q3-5 6.5-11.5t7-13.5 6-12 2.5-6q0-3 1-18.5t1-23.5q0-30-9-57.5t-26.5-49-42-34.5-55.5-13q-3 0-10.5 1t-12.5 1q-19 19-38.5 37t-35.5 37.5-26 42-10 51.5zm-82-1150q0 18 11 30.5t26 23.5 30 22.5 23 28.5q5 12 7 25t2 27q0 13-1 25t-1 23v11q0 2 3.5 14t3.5 13v77q0 1 1 7t2.5 12.5 2.5 12.5 1 7q0 3-3.5 15t-3.5 15v5q0 2 2 8t4 13 4 13 2 8q0 1 2 15.5t2 23.5q0 28-3 52t-20 47q-3 3-11.5 13.5t-17.5 22-17 21-9 12.5q0 2-6 15t-8 20v5q0 8 6 16t13 13q20 14 42 27t43 23q2 0 13.5 2.5t14.5 4.5q2 1 12 6t21 11 21 11.5 13 6.5q4 0 16 1t17 1 13.5-1 10.5-1l12-22q1 0 2-9t2.5-21 2.5-25 2-22v-10q0-9-1-14.5t-8-14.5q0-7 1-23t1-36-1-37-1-24q0-2-2-10t-4-17-4-17-2-9v-18q0-11 3.5-18.5t7-14 7-12.5 3.5-14q0-17-2-36t-14-33q2-11 2-21.5t0-21.5q0-27-2-54.5t-5-56.5q0-1-3.5-12.5t-3.5-13.5v-27q0-8 1-15.5t6-12.5l90-90q0-2 2.5-10t4.5-11v-7q0-10-4.5-21t-12.5-20-18-15-22-6h-109q-10 0-31.5 1t-44.5 2.5-43 2.5-26 1q-30 2-50 15.5t-20 45.5z"/><path transform="translate(96.984 14.594) scale(.0078125 -.0078125)" d="m66 434v54q1 2 6.5 10t5.5 12q2 4 7.5 19.5t11 33 10.5 32.5 5 19q16 39 36 71.5t49 60.5q7 6 18.5 16.5t23.5 22 21.5 20 12.5 10.5q12 8 25.5 10.5t25.5 11.5q0 1 5 4.5t10.5 8 11 9 7.5 6.5q2 1 5 2 5 2 7 5 6 2 14.5 5t16 6 13.5 5.5 6 2.5q69-1 107-1.5t56-1.5 22-1.5 6-0.5q9-3 18-4t20-5q1 0 5-2t8.5-4 8-4 4.5-2q9-4 22-6.5t21-9.5q19-17 38-34t33.5-36.5 23.5-42.5 9-51q0-16-10.5-32.5t-26.5-30-34.5-22-34.5-8.5h-12q-2 1-10 5.5t-18 9.5-20 10.5-16 8.5q-5 4-8 12t-5 16-3 16-3 13q-6 20-15 40.5t-22 36.5-31.5 26-43.5 10q-28 0-56-12.5t-48-30.5q-3-3-14-12.5t-24-20-24-19.5-14-11q-14-11-17.5-28.5t-10.5-35.5q0 0-2-3.5t-4-8-4-9-2-5.5q-16-36-19.5-74.5t-3.5-77.5v-64q7-11 11-24t7.5-27 7-27.5 9.5-25.5q12-23 25.5-38.5t28-28.5 30.5-24.5 35-25.5l2-4q1-3 5-3 2-3 7-4 3-2 5-3h175q5 1 9 3 4 1 7 2t5 2q20 8 38.5 11t35.5 9q9 3 20 8.5t22 11.5 22 10.5 21 4.5q2 0 4.5-1.5t2.5-3.5q0-3-2.5-10.5t-4.5-12.5q-13-35-36.5-65t-54-53.5-65.5-39.5-72-22q-2 0-10-1t-17.5-2-18-2.5-11.5-2.5q-2 0-10-6t-9-6h-28q-31 0-65.5 8t-68 22-64 32.5-53.5 40.5q-1 1-7 8.5t-13.5 17-15 20-12.5 17.5q-51 66-74 134t-23 151z"/><path transform="translate(103.88 14.594) scale(.0078125 -.0078125)" d="m261 254q0-21 14.5-32.5t34.5-17.5 42-8.5 36-6.5h1q20 0 42 12.5t31 26.5q3 5 8 14t9.5 18 8 16 3.5 9v132l-6 14q-2 0-8.5 0.5t-9.5 0.5q-27 0-50-13.5t-45-29.5q-5-3-14-9.5t-17.5-13.5-15-12.5-7.5-5.5q-1-1-5-6t-8.5-11.5-8.5-13.5-7-11q-2-2-3.5-7t-1.5-7q-2-1-5.5-5t-7-8.5-6.5-9-4-6.5zm213-148q-9 0-17-5t-15.5-12-14-14.5-12.5-12.5q-1 0-6-2t-9-5q-18-7-35-16.5t-34-18-35.5-14.5-37.5-6h-31q-2 2-10.5 4.5t-10.5 4.5q-1 0-6 0.5t-11 1.5-11.5 2-6.5 3q-5 1-16 3t-13 2q-12 8-26 27t-26 42-20.5 46-8.5 39q0 23 8 45t12 43q30 45 59 78t75 60q0 1 5 3.5t10.5 5 11 4.5 7.5 3q10 5 21 13.5t22 17 21 15 18 8.5q2 1 10.5 2t18 2 17.5 2 11 2q1 0 9 7t10 7q3 1 15.5 7t26.5 13 26.5 13.5 15.5 8.5q10 6 16 17t8.5 23 3 24 0.5 22q0 48-12.5 87t-44.5 77q-2 5-10.5 12t-10.5 7h-60q-12-11-28-19.5t-22-21.5q-12-22-24.5-47t-17.5-50q-3-3-12-9.5t-18.5-12.5-18.5-11.5-13-7.5q-1 0-6-0.5t-11.5-0.5-13.5-0.5-11-0.5q-2 0-8 0.5t-13 0.5-13 0.5-9 0.5q-10 6-21 14.5t-20 18-15 21-6 25.5q0 15 3.5 26t9 21 13.5 19.5 17 20.5q8 11 12.5 18.5t15.5 15.5q6 5 11 6.5t10.5 2 11.5 1.5 15 4q4 1 18 8.5t30.5 16 30.5 16 18 9.5q2 1 8 1.5t12.5 1.5 12.5 1.5 8 0.5q28 7 53.5 18.5t54.5 11.5h12q42-7 89-18.5t84-38.5q3-3 9.5-8.5t13-12.5 11.5-12.5 6-8.5q1-1 2.5-7t2.5-12.5 1.5-13 0.5-7.5q0-3 3.5-12t7.5-20 7.5-20 3.5-12q0 0 0.5-17t1-40 1.5-47 2-39v-9q-2-3-3-6-2-6-2-8-2-2-4.5-10.5t-2.5-9.5q-1-3-2-18.5t-2-33-2-33-1-19.5q0-3-3.5-11t-4.5-10q-3-18-4-31.5t-2-26.5-1-26 0-30v-52q2-5 7.5-18t7.5-17q7-17 22.5-24.5t35-11 39.5-5.5 37-6.5 28-15.5 11-32q0-16-15.5-38t-37.5-42-46-34-41-14h-19q-2 0-11.5 3.5t-10.5 3.5q-3 1-13 2t-22 1.5-22 1.5-13 2q-16 6-34 23.5t-35.5 35.5-34 32.5-29.5 14.5z"/></svg>