<svg width="59.84" height="18.528" viewBox="0 0 59.84 18.528" xmlns="http://www.w3.org/2000/svg"><path transform="translate(0 14.704) scale(.016 -.016)" d="M90 0V680H170V0Z"/><path transform="translate(4.16 14.704) scale(.016 -.016)" d="m85 0v400l-10 100 66 5 19-103q29 52 70 82t90 30q121 0 150-126 28 58 72 92t96 34q78 0 118.5-53t40.5-157v-304h-76v304q0 142-95 142-41 0-74.5-31t-53-84.5-19.5-120.5v-210h-76v304q0 142-95 142-40 0-73.5-29.5t-53.5-80.5-20-116v-220z"/><path transform="translate(18.112 14.704) scale(.016 -.016)" d="m85-225v625l-10 100 66 5 17-93q27 48 67.5 75t92.5 27q91 0 143.5-68.5t52.5-186.5q0-79-31.5-141t-87-97-127.5-35q-26 0-53.5 5t-53.5 14v-230zm183 279q50 0 88 26.5t60 72.5 22 106q0 86-36.5 136.5t-98.5 50.5q-41 0-73.5-27.5t-50.5-77-18-116.5v-143q50-28 107-28z"/><path transform="translate(27.136 14.704) scale(.016 -.016)" d="m85 0v400l-10 100 66 5 20-121q29 60 74 93.5t102 33.5l5-76q-87-7-134-76t-47-195v-164z"/><path transform="translate(32.768 14.704) scale(.016 -.016)" d="m90 0v500h76v-500zm38 586q-27 0-42.5 15.5t-15.5 42.5q0 26 15.5 42t42.5 16q26 0 42-16t16-42q0-25-16-41.5t-42-16.5z"/><path transform="translate(36.864 14.704) scale(.016 -.016)" d="m85 0v400l-10 100 66 5 19-103q29 52 70 82t90 30q121 0 150-126 28 58 72 92t96 34q78 0 118.5-53t40.5-157v-304h-76v304q0 142-95 142-41 0-74.5-31t-53-84.5-19.5-120.5v-210h-76v304q0 142-95 142-40 0-73.5-29.5t-53.5-80.5-20-116v-220z"/><path transform="translate(50.816 14.704) scale(.016 -.016)" d="m241-14q-91 0-143.5 68.5t-52.5 186.5q0 80 31.5 141.5t87.5 96.5 127 35q46 0 95.5-16t87.5-42v-356l10-100-66-5-18 90q-26-47-67-73t-92-26zm15 68q64 0 103 62.5t39 165.5v139q-50 25-107 25-49 0-87.5-26t-60.5-72.5-22-106.5q0-86 36.5-136.5t98.5-50.5z"/></svg>