<svg width="88" height="16.784" viewBox="0 0 88 16.784" xmlns="http://www.w3.org/2000/svg"><path transform="translate(0 13.744) scale(.016 -.016)" d="M81 0V59H204V564H88V623H397V564H274V58H403V0Z"/><path transform="translate(8 13.744) scale(.016 -.016)" d="m72 0v457h70v-81q18 28 42 48.5t53 32 60 11.5q38 0 68-19t48-61 18-111v-277h-70v275q0 48-11 76.5t-30 41-43 12.5q-23 0-46.5-10t-43.5-28.5-32.5-44.5-12.5-59v-263z"/><path transform="translate(16 13.744) scale(.016 -.016)" d="m285-11q-50 0-92 18t-72.5 50-47.5 75.5-17 95.5q0 51 17 94.5t47.5 75.5 72.5 50 91 18q56 0 100.5-22.5t72.5-62.5l-45-44-7-7-5 5q0 8-3.5 15t-15.5 19q-22 20-47 28t-58 8q-29 0-55-12t-46.5-34.5-32.5-54.5-12-71 12-71.5 33-56.5 50.5-37.5 63.5-13.5q23 0 44 6.5t40 19 35 30.5l42-49q-34-36-75.5-54t-89.5-18z"/><path transform="translate(24 13.744) scale(.016 -.016)" d="m250-8q-62 0-109.5 30.5t-74.5 84-27 122.5q0 70 27 123.5t74.5 84 109.5 30.5 109.5-30.5 74.5-84 27-123.5q0-69-27-122.5t-74.5-84-109.5-30.5zm0 60q40 0 70 23t47.5 63 17.5 92-17.5 92-47.5 62.5-70 22.5q-39 0-69.5-22.5t-48-62.5-17.5-92 17.5-92 48-63 69.5-23z"/><path transform="translate(32 13.744) scale(.016 -.016)" d="m72 0v457h70v-81q18 28 42 48.5t53 32 60 11.5q38 0 68-19t48-61 18-111v-277h-70v275q0 48-11 76.5t-30 41-43 12.5q-23 0-46.5-10t-43.5-28.5-32.5-44.5-12.5-59v-263z"/><path transform="translate(40 13.744) scale(.016 -.016)" d="m251-10q-38 0-72.5 8t-65 24-56.5 40l40 68 6 9 6-4q2-8 4.5-16.5t13.5-20.5q21-21 50.5-34.5t75.5-13.5q37 0 62.5 9t39.5 25.5 14 38.5q0 15-6 26.5t-19.5 21.5-35.5 20-54 20q-52 15-91 35t-60 46.5-21 60.5q0 35 19 60.5t56.5 40 92.5 14.5q32 0 58-4.5t48-13.5 40.5-22.5 35.5-31.5l-41-50-7-8-5 5q-1 8-4.5 15.5t-14.5 18.5q-23 18-52 27.5t-56 9.5q-40 0-69-14t-29-43q0-15 10.5-29.5t38.5-29 80-29.5q57-18 91.5-36.5t50-42.5 15.5-57q0-38-20.5-71t-62.5-52.5-106-19.5z"/><path transform="translate(48 13.744) scale(.016 -.016)" d="m250-8q-62 0-109.5 30.5t-74.5 84-27 122.5q0 70 27 123.5t74.5 84 109.5 30.5 109.5-30.5 74.5-84 27-123.5q0-69-27-122.5t-74.5-84-109.5-30.5zm0 60q40 0 70 23t47.5 63 17.5 92-17.5 92-47.5 62.5-70 22.5q-39 0-69.5-22.5t-48-62.5-17.5-92 17.5-92 48-63 69.5-23z"/><path transform="translate(56 13.744) scale(.016 -.016)" d="M79 0V58H214V607H85V665H287V58H421V0Z"/><path transform="translate(64 13.744) scale(.016 -.016)" d="m211-11q-78 0-120 35.5t-42 90.5q0 37 18 66.5t49.5 50 73.5 31.5 89 11q17 0 34.5-0.5t37-2 40.5-4.5l2-55q-18 3-36.5 4.5t-36.5 2.5-35 1q-36 0-66-6t-52-18-34-31-12-46q0-21 7.5-35.5t20.5-23 30.5-12.5 38.5-4q39 0 69.5 12.5t52 36.5 32.5 59 11 80q0 68-16 106t-47.5 54-80.5 16q-33 0-65-12.5t-58-38.5l-35 46q32 32 74 48t89 16q45 0 82-11t63.5-36.5 41-68.5 14.5-108v-243h-78v70q-13-25-31.5-41t-39.5-24.5-43-12-42-3.5z"/><path transform="translate(72 13.744) scale(.016 -.016)" d="m299-7q-44 0-72 15t-43 46.5-19.5 79.5-2.5 114l12 326 75 9 10 1 1-7q-5-7-8.5-14t-5.5-24l-9-113 3-18-7-165q-3-76 4-117.5t25-57 48-15.5q33 0 58.5 13t53.5 33l22-57q-34-25-70-37t-75-12zm-229 464h329v-59h-329z"/><path transform="translate(80 13.744) scale(.016 -.016)" d="m211-11q-78 0-120 35.5t-42 90.5q0 37 18 66.5t49.5 50 73.5 31.5 89 11q17 0 34.5-0.5t37-2 40.5-4.5l2-55q-18 3-36.5 4.5t-36.5 2.5-35 1q-36 0-66-6t-52-18-34-31-12-46q0-21 7.5-35.5t20.5-23 30.5-12.5 38.5-4q39 0 69.5 12.5t52 36.5 32.5 59 11 80q0 68-16 106t-47.5 54-80.5 16q-33 0-65-12.5t-58-38.5l-35 46q32 32 74 48t89 16q45 0 82-11t63.5-36.5 41-68.5 14.5-108v-243h-78v70q-13-25-31.5-41t-39.5-24.5-43-12-42-3.5z"/></svg>