<svg width="37.336" height="20" viewBox="0 0 37.336 20" xmlns="http://www.w3.org/2000/svg"><path transform="translate(0 15.938) scale(.0078125 -.0078125)" d="M156 1392H356V0H156Z"/><path transform="translate(4 15.938) scale(.0078125 -.0078125)" d="m620 876q-149 0-265-101v-775h-200v1032h185l14-112q163 128 337 128 184 0 270-110 90-116 90-374v-564h-200v564q0 248-134 296-43 16-97 16z"/><path transform="translate(13.336 15.938) scale(.0078125 -.0078125)" d="m821 1044v444h199v-1488h-179l-8 119q-61-81-185-120-48-15-97.5-15t-97.5 10-95.5 33.5-90.5 62-77 94.5q-72 123-72 291t53.5 272.5 140 171.5 195 98 189.5 31 125-4zm-404-836q69-70 166-70 125 0 207 92 21 23 30 41v615l-20 2q-46 6-109.5 6t-135.5-22.5-123-71-78.5-124-27.5-183 26-177 65-108.5z"/><path transform="translate(22.664 15.938) scale(.0078125 -.0078125)" d="m637-16q-566 0-566 553 0 238 157 381 141 130 322 130 197 0 308-132 103-123 103-329v-78h-682q0-283 231-346 55-15 169.5-15t224.5 31v-169q-110-26-267-26zm124 672q0 96-53 162-62 76-171 76-115 0-187-73-66-68-66-165z"/><path transform="translate(30.672 15.938) scale(.0078125 -.0078125)" d="m811 849q-55 16-131.5 16t-125.5-15.5-86-37.5q-68-40-99-90v-722h-200v1032h192l8-143q75 94 219 141 52 18 119 18t104-10z"/></svg>