<svg width="64.792" height="16.786" viewBox="0 0 64.792 16.786" xmlns="http://www.w3.org/2000/svg"><path transform="translate(0 13.664) scale(.014 -.014)" d="m48 653v27h241v-27l-55-5q-16-2-19-8t-3-41v-518q0-35 3-41t19-8l55-6v-26h-241v26l55 6q16 2 19 8t3 41v518q0 35-3 41t-19 8z"/><path transform="translate(4.718 13.664) scale(.014 -.014)" d="m594 26v-26h-236v26l55 6q16 2 19 8t3 41v249q0 74-24 104.5t-69 30.5q-33 0-73-20t-75-78v-286q0-35 3-41t19-8l55-6v-26h-236v26l55 6q16 2 19 8t3 41v333q0 35-3 41t-19 8l-55 5v27h154v-81q36 48 81.5 69.5t91.5 21.5q74 0 114.5-45.5t40.5-128.5v-250q0-35 3-41t19-8z"/><path transform="translate(13.356 13.664) scale(.014 -.014)" d="m35 468v27h154v-80q35 47 70.5 68.5t72.5 21.5q32 0 60-19t47-61l-65-39q-15 36-34 50t-42 14q-25 0-49.5-16t-54.5-60v-293q0-35 3-41.5t19-7.5l75-6v-26h-256v26l55 6q16 2 19 8t3 41v333q0 35-3 41t-19 8z"/><path transform="translate(19.502 13.664) scale(.014 -.014)" d="m152 607q-24 0-39.5 15.5t-15.5 40.5q0 24 15.5 39t39.5 15 39.5-15 15.5-39q0-25-15.5-40.5t-39.5-15.5zm-117-139v27h159v-414q0-35 3-41t19-8l55-6v-26h-236v26l55 6q16 2 19 8t3 41v333q0 35-3 41t-19 8z"/><path transform="translate(23.688 13.664) scale(.014 -.014)" d="m447-7q-78 0-92 72-35-40-77-57.5t-83-17.5q-70 0-103 39t-33 94q0 59 40.5 93.5t140.5 34.5h113v81q0 80-27.5 110.5t-74.5 30.5q-30 0-54-12t-34.5-43.5-2.5-91.5l-79 12q-5 47 12.5 84.5t58 60 101.5 22.5q73 0 112-24.5t54.5-63.5 15.5-85v-225q0-51 11.5-64t25.5-13q9 0 19 4.5t22 14.5l18-25q-15-13-35.5-22t-48.5-9zm-224 39q28 0 60.5 15.5t69.5 62.5v109h-102q-56 0-81.5-22.5t-25.5-69.5q0-45 19.5-70t59.5-25z"/><path transform="translate(34.426 13.664) scale(.014 -.014)" d="m270 22q67 0 108.5 33t41.5 97q0 51-31 85.5t-108 55.5l-69 20q-76 21-116 71t-40 122q0 48 22.5 90t69 68 118.5 26q80 0 129-29.5t68-76.5 9-101l-84-18q13 93-18.5 143t-108.5 50q-61 0-96-32.5t-35-94.5q0-49 28-83.5t99-54.5l69-20q167-46 167-195 0-53-24.5-95.5t-74-67.5-124.5-25q-52 0-99.5 16t-81 55-44.5 108l60 20q5-66 29-102t60-50.5 76-14.5z"/><path transform="translate(42.098 13.664) scale(.014 -.014)" d="m461 114q-18-68-67.5-96t-109.5-28q-111 0-166 67.5t-55 180.5v20q0 112 53 179.5t154 67.5q54 0 98.5-22t71-65 26.5-107q0-30-6-63h-307v-30q0-105 32.5-150.5t105.5-45.5q46 0 76.5 24t40.5 83zm-191 359q-59 0-88-45t-29-148h225v3q2 13 3 25.5t1 22.5q0 75-31 108.5t-81 33.5z"/><path transform="translate(49.448 13.664) scale(.014 -.014)" d="m35 468v27h154v-80q35 47 70.5 68.5t72.5 21.5q32 0 60-19t47-61l-65-39q-15 36-34 50t-42 14q-25 0-49.5-16t-54.5-60v-293q0-35 3-41.5t19-7.5l75-6v-26h-256v26l55 6q16 2 19 8t3 41v333q0 35-3 41t-19 8z"/><path transform="translate(55.594 13.664) scale(.014 -.014)" d="m152 607q-24 0-39.5 15.5t-15.5 40.5q0 24 15.5 39t39.5 15 39.5-15 15.5-39q0-25-15.5-40.5t-39.5-15.5zm-117-139v27h159v-414q0-35 3-41t19-8l55-6v-26h-236v26l55 6q16 2 19 8t3 41v333q0 35-3 41t-19 8z"/><path transform="translate(59.78 13.664) scale(.014 -.014)" d="m291 26v-26h-256v26l55 6q16 2 19 8t3 41v333q0 35-2.5 41t-19.5 8l-55 5v27h77v72q0 47 14.5 89t50.5 68 99 26q83 0 123-45t29-110l-78-11q9 69-9.5 101.5t-64.5 32.5q-26 0-44.5-11.5t-28-41-9.5-84.5v-86h159v-32h-159v-382q0-35 3-41.5t19-7.5z"/></svg>