<svg width="89.712" height="20.8" viewBox="0 0 89.712 20.8" xmlns="http://www.w3.org/2000/svg"><path transform="translate(0 15.84) scale(.016 -.016)" d="m34 0q-15 0-15 11 0 9 13 12l23 4q21 4 27.5 11t6.5 28v588q0 21-6.5 28t-27.5 11l-23 4q-13 3-13 12 0 11 15 11h181q15 0 15-11 0-9-13-12l-23-4q-21-4-27.5-11t-6.5-28v-588q0-21 6.5-28t27.5-11l23-4q13-3 13-12 0-11-15-11z"/><path transform="translate(3.984 15.84) scale(.016 -.016)" d="m30 0q-15 0-15 11 0 9 13 12l12 2q21 4 27.5 12.5t6.5 29.5v336q0 18-5.5 24.5t-19.5 8.5l-21 3q-13 1-13 11 0 8 16 11 31 5 47.5 16t34.5 27q9 9 15 9 9 0 9-12v-45q0-9 6.5-11.5t14.5 5.5q40 38 70.5 52t64.5 14q45 0 72-31.5t27-92.5v-325q0-21 6.5-29.5t27.5-11.5l22-3q11-2 11-12 0-11-12-11h-168q-14 0-14 11 0 10 11 12l14 2q21 3 27.5 12t6.5 30v314q0 49-18 69t-51 20q-32 0-57.5-18.5t-40.5-49-15-67.5v-268q0-21 6.5-30t27.5-11l27-3q11-2 11-11 0-12-15-12z"/><path transform="translate(11.504 15.84) scale(.016 -.016)" d="m131-9q-23 0-49 5.5t-42 13.5q-9 5-9 17l-3 112q0 17 13 17 11 0 15-16 17-71 41.5-97t59.5-26q29 0 48 22.5t19 62.5-22 71-74 68q-52 35-76 70.5t-24 77.5q0 57 40 92t106 35q20 0 39-4.5t34-14.5q9-6 9-16l2-110q0-15-12-15-7 0-10 4.5t-5 11.5q-20 65-40 90.5t-49 25.5q-26 0-43-18t-17-45q0-35 21-61t76-64q50-36 75.5-77.5t25.5-90.5q0-64-41-102.5t-108-38.5z"/><path transform="translate(16.432 15.84) scale(.016 -.016)" d="m147-9q-35 0-57.5 24.5t-22.5 80.5v374q0 12-12 12h-29q-16 0-16 12 0 8 9 14 33 23 53 49.5t35 72.5q7 21 17 21 11 0 11-16v-111q0-14 14-14h65q16 0 16-14t-16-14h-65q-14 0-14-14v-373q0-22 7-34.5t26-12.5q21 0 34.5 21t17.5 68q2 14 13 14 12 0 12-15-3-77-31.5-111t-66.5-34z"/><path transform="translate(20.576 15.84) scale(.016 -.016)" d="m154 446q41 70 99 70 33 0 49-19.5t16-43.5q0-19-9.5-31t-29.5-12q-16 0-23.5 7.5t-12 17.5-10.5 17.5-20 7.5q-18 0-34-21.5t-26.5-57.5-10.5-82v-232q0-21 6.5-30t27.5-11l27-3q11-2 11-11 0-12-15-12h-169q-15 0-15 11 0 9 13 12l12 2q21 4 27.5 12.5t6.5 29.5v336q0 18-5.5 24.5t-19.5 8.5l-21 3q-13 1-13 11 0 8 16 11 31 5 47.5 16t34.5 27q9 9 15 9 9 0 9-12v-54q0-7 6-8.5t11 7.5z"/><path transform="translate(25.664 15.84) scale(.016 -.016)" d="m171-9q-25 0-48 11t-38 35-15 64v348q0 18-5.5 25t-19.5 8l-17 2q-17 2-17 13 0 13 19 13h93q15 0 15-15v-373q0-46 17.5-65.5t48.5-19.5 55 17.5 38.5 47 14.5 64.5v283q0 18-5.5 25t-19.5 8l-17 2q-17 2-17 13 0 13 19 13h93q15 0 15-15v-388q0-18 5.5-24.5t19.5-8.5l21-3q13-1 13-10t-16-12q-31-4-49.5-16t-32.5-29q-9-9-15-9-9 0-9 12v46q0 8-5.5 9.5t-11.5-4.5q-37-37-65.5-52t-63.5-15z"/><path transform="translate(32.928 15.84) scale(.016 -.016)" d="m30 0q-15 0-15 11 0 9 13 12l12 2q21 4 27.5 12.5t6.5 29.5v336q0 18-5.5 24.5t-19.5 8.5l-21 3q-13 1-13 11 0 8 16 11 31 5 47.5 16t34.5 27q9 9 15 9 9 0 9-12v-45q0-7 6-10.5t13 3.5q41 39 71.5 53t61.5 14q29 0 51.5-15.5t33.5-46.5q3-8 10.5-9.5t14.5 5.5q41 38 71 52t61 14q42 0 68.5-31.5t26.5-92.5v-325q0-21 6.5-29.5t27.5-11.5l22-3q11-2 11-12 0-11-12-11h-171q-14 0-14 11 0 10 11 12l14 2q23 3 30 12t7 30v314q0 49-17.5 69t-47.5 20-54.5-18.5-39.5-49-15-67.5v-268q0-21 7-29.5t29-11.5l22-3q11-2 11-12 0-11-12-11h-170q-14 0-14 11 0 10 11 12l14 2q21 3 27.5 12t6.5 30v314q0 49-17.5 69t-47.5 20-54.5-18.5-39.5-49-15-67.5v-268q0-21 6.5-30t27.5-11l27-3q11-2 11-11 0-12-15-12z"/><path transform="translate(44.192 15.84) scale(.016 -.016)" d="m192-9q-48 0-86 32t-60.5 90.5-22.5 135.5q0 79 23 139t63 94 89 34q59 0 95.5-48.5t36.5-157.5q0-33-25-33h-190q-20 0-20-23 0-106 31-159t79-53q38 0 62 27t39 91q3 11 13 11 12 0 9-20-16-89-51-124.5t-85-35.5zm-80 311h101q48 0 48 50 0 65-16 102t-48 37q-39 0-65.5-45t-34.5-128q-2-16 15-16z"/><path transform="translate(49.872 15.84) scale(.016 -.016)" d="m30 0q-15 0-15 11 0 9 13 12l12 2q21 4 27.5 12.5t6.5 29.5v336q0 18-5.5 24.5t-19.5 8.5l-21 3q-13 1-13 11 0 8 16 11 31 5 47.5 16t34.5 27q9 9 15 9 9 0 9-12v-45q0-9 6.5-11.5t14.5 5.5q40 38 70.5 52t64.5 14q45 0 72-31.5t27-92.5v-325q0-21 6.5-29.5t27.5-11.5l22-3q11-2 11-12 0-11-12-11h-168q-14 0-14 11 0 10 11 12l14 2q21 3 27.5 12t6.5 30v314q0 49-18 69t-51 20q-32 0-57.5-18.5t-40.5-49-15-67.5v-268q0-21 6.5-30t27.5-11l27-3q11-2 11-11 0-12-15-12z"/><path transform="translate(57.392 15.84) scale(.016 -.016)" d="m147-9q-35 0-57.5 24.5t-22.5 80.5v374q0 12-12 12h-29q-16 0-16 12 0 8 9 14 33 23 53 49.5t35 72.5q7 21 17 21 11 0 11-16v-111q0-14 14-14h65q16 0 16-14t-16-14h-65q-14 0-14-14v-373q0-22 7-34.5t26-12.5q21 0 34.5 21t17.5 68q2 14 13 14 12 0 12-15-3-77-31.5-111t-66.5-34z"/><path transform="translate(64.256 15.84) scale(.016 -.016)" d="m184-9q-20 0-44.5 4t-46 10-33.5 13q-7 4-10.5 8.5t-3.5 15.5l-5 157q0 20 13 20 11 0 15-18l9-38q34-143 127-143 50 0 79.5 33.5t29.5 94.5q0 59-30.5 110t-97.5 101q-74 53-108 102.5t-34 105.5q0 74 51.5 118.5t131.5 44.5q30 0 58-7t46-20q6-4 9.5-9t3.5-13l3-151q0-17-13-17-9 0-13 14l-7 25q-22 77-45.5 112.5t-67.5 35.5q-43 0-68.5-28t-25.5-79q0-43 28-82t98-95q75-61 109.5-117.5t34.5-120.5q0-56-25-98t-68.5-65.5-99.5-23.5z"/><path transform="translate(70.768 15.84) scale(.016 -.016)" d="m192-9q-48 0-86 32t-60.5 90.5-22.5 135.5q0 79 23 139t63 94 89 34q59 0 95.5-48.5t36.5-157.5q0-33-25-33h-190q-20 0-20-23 0-106 31-159t79-53q38 0 62 27t39 91q3 11 13 11 12 0 9-20-16-89-51-124.5t-85-35.5zm-80 311h101q48 0 48 50 0 65-16 102t-48 37q-39 0-65.5-45t-34.5-128q-2-16 15-16z"/><path transform="translate(76.448 15.84) scale(.016 -.016)" d="m154 446q41 70 99 70 33 0 49-19.5t16-43.5q0-19-9.5-31t-29.5-12q-16 0-23.5 7.5t-12 17.5-10.5 17.5-20 7.5q-18 0-34-21.5t-26.5-57.5-10.5-82v-232q0-21 6.5-30t27.5-11l27-3q11-2 11-11 0-12-15-12h-169q-15 0-15 11 0 9 13 12l12 2q21 4 27.5 12.5t6.5 29.5v336q0 18-5.5 24.5t-19.5 8.5l-21 3q-13 1-13 11 0 8 16 11 31 5 47.5 16t34.5 27q9 9 15 9 9 0 9-12v-54q0-7 6-8.5t11 7.5z"/><path transform="translate(81.536 15.84) scale(.016 -.016)" d="m114 605q-21 0-35.5 15t-14.5 38 14.5 37.5 35.5 14.5 35-14.5 14-37.5-14-38-35-15zm-84-605q-15 0-15 11 0 9 13 12l12 2q25 4 32 12.5t7 29.5v336q0 18-5.5 24.5t-19.5 8.5l-21 3q-13 1-13 11 0 8 16 11 31 5 50 16t37 27q9 9 15 9 9 0 9-12v-434q0-21 6-30t23-11l25-3q11-2 11-11 0-12-15-12z"/><path transform="translate(85.104 15.84) scale(.016 -.016)" d="m85 67v391q0 24-24 24h-23q-12 0-12 10t12 11q47 5 47 41v6q0 52 15.5 97t45 73 72.5 28q40 0 67-23t27-55q0-19-9.5-28.5t-25.5-9.5q-20 0-28.5 13t-13.5 29.5-12.5 29.5-26.5 13q-20 0-31.5-22.5t-11.5-84.5v-88q0-12 12-12h86q15 0 15-14t-15-14h-86q-12 0-12-12v-403q0-21 6.5-29t27.5-10l53-5q11-2 11-11 0-12-15-12h-208q-15 0-15 11t13 12l25 2q21 2 27.5 11.5t6.5 30.5z"/></svg>