<svg width="137.54" height="22.08" viewBox="0 0 137.54 22.08" xmlns="http://www.w3.org/2000/svg"><path transform="translate(0 17.44) scale(.016 -.016)" d="M131 43 264 66V589L131 612V655H483V612L351 589V66L483 43V0H131Z"/><path transform="translate(9.824 17.44) scale(.016 -.016)" d="m168 465 9-104q44 41 77.5 65.5t64 35 62.5 10.5q71 0 106-39.5t35-108.5v-324h-86v309q0 43-18.5 64t-60.5 21q-22 0-46-10t-55-33.5-75-64.5v-286h-86v465z"/><path transform="translate(19.648 17.44) scale(.016 -.016)" d="m219 177v216h-157v72h158v173h83v-173h207v-72h-206v-204q0-65 19.5-88.5t73.5-26.5l141-8-6-73-155 7q-61 3-95.5 20t-48.5 54-14 103z"/><path transform="translate(29.472 17.44) scale(.016 -.016)" d="m357 63 96-3-3-67-118 2q-135 2-196 62t-61 168q0 74 31.5 131.5t86 90.5 124.5 33q102 0 162.5-61.5t60.5-180.5q0-11-1-20t-2-16h-377q7-70 53.5-103.5t143.5-35.5zm-40 349q-59 0-102-38t-53-108h294q-6 76-43 111t-96 35z"/><path transform="translate(39.296 17.44) scale(.016 -.016)" d="m242 165v473h-183v72h268v-536q0-54 21-76t71-24l109-7-5-74-119 7q-60 4-95.5 20t-51 51-15.5 94z"/><path transform="translate(58.944 17.44) scale(.016 -.016)" d="m558 329q0-169-68.5-256.5t-183.5-87.5q-114 0-182 86t-68 254 68.5 256.5 183.5 88.5q114 0 182-87t68-254zm-413-2q0-140 43.5-205t118.5-65q76 0 119 65.5t43 204.5q0 140-43.5 205.5t-118.5 65.5q-76 0-119-65.5t-43-205.5z"/><path transform="translate(68.768 17.44) scale(.016 -.016)" d="m168 465 9-104q44 41 77.5 65.5t64 35 62.5 10.5q71 0 106-39.5t35-108.5v-324h-86v309q0 43-18.5 64t-60.5 21q-22 0-46-10t-55-33.5-75-64.5v-286h-86v465z"/><path transform="translate(78.592 17.44) scale(.016 -.016)" d="m357 63 96-3-3-67-118 2q-135 2-196 62t-61 168q0 74 31.5 131.5t86 90.5 124.5 33q102 0 162.5-61.5t60.5-180.5q0-11-1-20t-2-16h-377q7-70 53.5-103.5t143.5-35.5zm-40 349q-59 0-102-38t-53-108h294q-6 76-43 111t-96 35z"/><path transform="translate(98.24 17.44) scale(.016 -.016)" d="M525 655 552 0H470L453 555L317 179H297L160 545L144 0H62L89 655H186L309 328L429 655Z"/><path transform="translate(108.06 17.44) scale(.016 -.016)" d="m305-15q-71 0-125.5 31t-85 87-30.5 131q0 71 31 127t86.5 87.5 127.5 31.5q71 0 125.5-31.5t85-87.5 30.5-130q0-73-31-128.5t-86.5-86.5-127.5-31zm2 72q69 0 112.5 45.5t43.5 129.5q0 80-43 128.5t-113 48.5q-69 0-112.5-47.5t-43.5-128.5q0-82 43-129t113-47z"/><path transform="translate(117.89 17.44) scale(.016 -.016)" d="m168 465 9-104q44 41 77.5 65.5t64 35 62.5 10.5q71 0 106-39.5t35-108.5v-324h-86v309q0 43-18.5 64t-60.5 21q-22 0-46-10t-55-33.5-75-64.5v-286h-86v465z"/><path transform="translate(127.71 17.44) scale(.016 -.016)" d="m305-15q-71 0-125.5 31t-85 87-30.5 131q0 71 31 127t86.5 87.5 127.5 31.5q71 0 125.5-31.5t85-87.5 30.5-130q0-73-31-128.5t-86.5-86.5-127.5-31zm2 72q69 0 112.5 45.5t43.5 129.5q0 80-43 128.5t-113 48.5q-69 0-112.5-47.5t-43.5-128.5q0-82 43-129t113-47z"/></svg>