<svg width="104.67" height="20.48" viewBox="0 0 104.67 20.48" xmlns="http://www.w3.org/2000/svg"><path transform="translate(0 16.24) scale(.016 -.016)" d="M40 0V70H86V665H40V735H210V665H164V70H210V0Z"/><path transform="translate(4 16.24) scale(.016 -.016)" d="m250-8q-27 0-53.5 5.5t-50 18.5-42 33.5-29.5 45-15 51.5-4 54v120q0 27 4 54t15 51.5 29.5 45 42 33.5 50 18.5 53.5 5.5 53.5-5.5 50-18.5 42-33.5 29.5-45 15-51.5 4-54v-120q0-27-4-54t-15-51.5-29.5-45-42-33.5-50-18.5-53.5-5.5zm0 70q17 0 34 4t31 13.5 24.5 23.5 16.5 30 8 33 2 34v120q0 17-2 34t-8 33-16.5 30-24.5 23.5-31 13.5-34 4-34-4-31-13.5-24.5-23.5-16.5-30-8-33-2-34v-120q0-17 2-34t8-33 16.5-30 24.5-23.5 31-13.5 34-4z"/><path transform="translate(12 16.24) scale(.016 -.016)" d="m249-8q-22 0-43.5 2.5t-42.5 9-39.5 18-32.5 28-21.5 37.5-7.5 43v5h78v-3q0-18 11-33t27.5-23.5 34.5-11 36-2.5 36.5 3 34.5 11 27.5 23.5 11.5 33.5-10 32.5-24.5 24-30.5 15.5-32.5 11-33 10.5-32.5 12-31 14.5-29 18.5-26 23-20.5 27-13 31.5-4.5 34q0 21 6.5 42t19.5 38 31 29 38 19.5 41.5 10 42.5 2.5 42-2.5 41-9.5 38-18.5 31-28 20-37 7-41.5v-6h-78v3q0 17-9.5 32t-24.5 23.5-32.5 11.5-34.5 3-34.5-3-32.5-11.5-25-24-10-32.5 10-32 24-24.5 30.5-15.5 33-11 32.5-10.5 32-12 31.5-14.5 29-18 25.5-22.5 21-27.5 13.5-31.5 4.5-34.5q0-22-7.5-43t-21-38-32.5-29-39.5-19-42.5-9.5-44-2.5z"/><path transform="translate(20 16.24) scale(.016 -.016)" d="m250-8q-27 0-53.5 5.5t-50 18.5-42 33.5-29.5 45-15 51.5-4 54v120q0 27 4 54t15.5 51.5 29.5 45 41.5 34 50.5 18.5 54 5q23 0 47-3t46-11.5 41.5-22.5 33-33.5 19.5-43 6-47.5-6-47-20.5-42-35-32-43-21-46-10.5-47.5-2.5h-112v-12q0-17 2-34t8-33 16.5-30 24.5-23.5 31-13.5 34-4q20 0 39.5 3.5t36.5 14 27.5 28 10.5 37.5h78q0-23-7.5-45t-21-40.5-32.5-32-40.5-21.5-44.5-11-46-3zm-116 290h112q14 0 28 1.5t27 5 25.5 10.5 22 17.5 13.5 24 4 27.5q0 20-9.5 39.5t-26.5 31-38 15.5-41 4q-17 0-34-4t-31.5-13.5-25-23.5-16.5-30-8-33-2-34z"/><path transform="translate(28 16.24) scale(.016 -.016)" d="m295 0h-90q-16 38-31.5 75.5t-30 76-27.5 77.5-24 78-19.5 79.5-8.5 81.5v52h78v-52q0-36 6-71t14.5-70 18.5-69 21-68 23-67.5 25-66.5q13 33 25 66.5t23 67.5 21 68 18.5 69 14.5 70 6 71v52h78v-52q0-41-8.5-81.5t-19.5-79.5-24-78-27.5-77.5-30-76-31.5-75.5z"/><path transform="translate(36 16.24) scale(.016 -.016)" d="m64 0v735h78v-459q16 13 33 25.5t33 25.5 32 26.5 31.5 28 29.5 30 26.5 32 21.5 36 9 40.5h78q0-24-9.5-46t-23-41.5-29.5-37-32.5-34.5-34.5-32.5-36-30.5q14-17 28-34t27.5-34 26.5-34.5 25-36 23-37 20.5-38.5 16-41 6.5-43h-78q0 25-9 48.5t-20.5 45.5-25.5 43-29 41-30.5 39.5-31.5 38.5q-20-16-39.5-31t-38.5-30v-195z"/><path transform="translate(44 16.24) scale(.016 -.016)" d="m214-8q-30 0-60.5 8t-53.5 28.5-33.5 50-10.5 60.5q0 25 6.5 50t22 45.5 37.5 34.5 46 22.5 49.5 11.5 51.5 3h89v49q0 21-7 42t-23 35-37 20-42 6q-19 0-38-3.5t-35.5-14-26-27.5-9.5-36v-2h-78v3q0 23 7 44.5t20 40 31.5 31.5 40 20.5 43.5 10.5 45 3q24 0 48-3.5t46-13.5 40.5-26 30.5-37 17-45 5-48v-355h-78v86q-8-21-22.5-39.5t-33.5-31.5-42-18-46-5zm31 70q24 0 46.5 7.5t38 24.5 22 40 6.5 46v56h-89q-16 0-31-1.5t-29.5-5.5-28.5-10.5-25-17.5-16-25.5-5-29.5q0-20 9.5-38t26-28.5 36.5-14 39-3.5z"/><path transform="translate(56.672 16.24) scale(.016 -.016)" d="m247-8q-26 0-52.5 5t-49.5 18-41 33-29 44-15 50.5-4 52.5v345q0 26 4 52.5t15 50.5 29 44 41 33 49.5 18 52.5 5q25 0 49.5-4t47-15 41-28.5 30.5-39 17.5-46 5.5-49.5v-6h-78v4q0 23-7 45t-23 38.5-38 23.5-45 7q-25 0-48.5-10t-38.5-29.5-20.5-44-5.5-49.5v-345q0-25 5.5-49.5t20.5-44 38.5-29.5 48.5-10q23 0 45 7t38 23.5 23 38.5 7 45v4h78v-6q0-25-5.5-49.5t-17.5-46-30.5-39-41-28.5-47-15-49.5-4z"/><path transform="translate(64.672 16.24) scale(.016 -.016)" d="m64 0v735h78v-310q8 22 20.5 42t31 34 41.5 20.5 46 6.5q25 0 48.5-7t42.5-23 31.5-37 20-44.5 10-48 2.5-48.5v-320h-78v320q0 17-2 33.5t-7 32-14.5 29.5-22.5 24-29 14.5-33 4.5-33-4.5-29-14.5-22.5-24-14.5-29.5-7-32-2-33.5v-320z"/><path transform="translate(72.672 16.24) scale(.016 -.016)" d="m214-8q-30 0-60.5 8t-53.5 28.5-33.5 50-10.5 60.5q0 25 6.5 50t22 45.5 37.5 34.5 46 22.5 49.5 11.5 51.5 3h89v49q0 21-7 42t-23 35-37 20-42 6q-19 0-38-3.5t-35.5-14-26-27.5-9.5-36v-2h-78v3q0 23 7 44.5t20 40 31.5 31.5 40 20.5 43.5 10.5 45 3q24 0 48-3.5t46-13.5 40.5-26 30.5-37 17-45 5-48v-355h-78v86q-8-21-22.5-39.5t-33.5-31.5-42-18-46-5zm31 70q24 0 46.5 7.5t38 24.5 22 40 6.5 46v56h-89q-16 0-31-1.5t-29.5-5.5-28.5-10.5-25-17.5-16-25.5-5-29.5q0-20 9.5-38t26-28.5 36.5-14 39-3.5z"/><path transform="translate(80.672 16.24) scale(.016 -.016)" d="m124 0v520h78v-112q6 22 16.5 44t26.5 39.5 38.5 27 46.5 9.5q18 0 36.5-4.5t33.5-15.5 25.5-26.5 16-33 7.5-36 2-37.5h-78q0 15-2.5 29.5t-10 27.5-21 19.5-28.5 6.5q-20 0-38.5-8.5t-31-23.5-20.5-33.5-12-38-5.5-39.5-1.5-39v-276z"/><path transform="translate(88.672 16.24) scale(.016 -.016)" d="m250-8q-27 0-53.5 5.5t-50 18.5-42 33.5-29.5 45-15 51.5-4 54v120q0 27 4 54t15 51.5 29.5 45 42 33.5 50 18.5 53.5 5.5 53.5-5.5 50-18.5 42-33.5 29.5-45 15-51.5 4-54v-120q0-27-4-54t-15-51.5-29.5-45-42-33.5-50-18.5-53.5-5.5zm0 70q17 0 34 4t31 13.5 24.5 23.5 16.5 30 8 33 2 34v120q0 17-2 34t-8 33-16.5 30-24.5 23.5-31 13.5-34 4-34-4-31-13.5-24.5-23.5-16.5-30-8-33-2-34v-120q0-17 2-34t8-33 16.5-30 24.5-23.5 31-13.5 34-4z"/><path transform="translate(96.672 16.24) scale(.016 -.016)" d="m64 0v520h78v-95q8 22 20.5 42t31 34 41.5 20.5 46 6.5q25 0 48.5-7t42.5-23 31.5-37 20-44.5 10-48 2.5-48.5v-320h-78v320q0 17-2 33.5t-7 32-14.5 29.5-22.5 24-29 14.5-33 4.5-33-4.5-29-14.5-22.5-24-14.5-29.5-7-32-2-33.5v-320z"/></svg>