<svg width="125.66" height="21.102" viewBox="0 0 125.66 21.102" xmlns="http://www.w3.org/2000/svg"><path transform="translate(0 16.367) scale(.0078125 -.0078125)" d="m147 1470q226-8 355-8 122 0 348 8 4-16 4-22 0-11-4-25-46-4-75-8.5t-71-14.5-64-28.5-22-44.5q-1-65-2.5-305t-3.5-449q-2-167-5.5-273.5t-14-236-29-208-50.5-161-77.5-126.5-111.5-72-152-28q-145 0-225 71t-80 168q0 83 44 128.5t116 45.5q59 0 101-32t42-95q0-34-17-60.5t-37.5-39-37.5-23-17-14.5q0-38 29.5-62t81.5-24q56 0 94.5 21t63 59 37.5 106 17.5 145 4.5 193q0 988-10 1272-1 26-23 44.5t-64 28.5-70.5 14.5-74.5 8.5q-4 18-4 25 0 10 4 22z"/><path transform="translate(7.0703 16.367) scale(.0078125 -.0078125)" d="m170 657q0 110 100.5 181t237.5 71q168 0 236.5-67t68.5-226v-415q0-56 41-56 33 0 84 80 36-3 49-32-7-10-24-36t-25-37-25-33.5-27.5-33.5-28-26-32-22.5-33.5-13-38-5.5q-50 0-82.5 36t-38.5 111q-1-1-31-29t-41.5-37.5-43-33-53.5-33.5-55-19.5-65-9.5q-51 0-90.5 14t-61.5 34-36 46.5-18.5 48.5-4.5 44q0 67 22.5 113t84 86 151.5 71 242 70v139q0 101-44.5 151t-119.5 50q-67 0-112.5-26.5t-55.5-61.5q98-15 98-107 0-42-30-74t-84-32q-45 0-80 31.5t-35 88.5zm463-432v209q-92-21-152-45.5t-91.5-53.5-43.5-59.5-12-70.5q0-50 29.5-78.5t72.5-28.5q100 0 197 127z"/><path transform="translate(15.18 16.367) scale(.0078125 -.0078125)" d="m883 260q24-5 39-22-50-134-155-200.5t-228-66.5q-61 0-119 15.5t-112.5 50.5-95 86.5-65 129-24.5 171.5q0 217 133 351t332 134q140 0 228.5-60.5t88.5-154.5q0-53-35-88t-86-35q-54 0-87 31.5t-33 73.5q0 76 77 96-7 23-45 47.5t-108 24.5q-36 0-68-8.5t-68.5-35.5-62-71-42.5-122.5-17-182.5q0-70 14.5-127t45.5-103 85-72 127-26q46 0 87 12.5t66.5 26.5 55 42.5 39.5 41 33 41.5z"/><path transform="translate(22.859 16.367) scale(.0078125 -.0078125)" d="m969-395q0-18 6.5-32t21-24 26-16.5 34-12 31-7 30.5-5.5q6-12 6-24t-6-23q-154 7-256 7-130 0-315-7-4 18-4 23 0 4 4 24 32 3 48 5t49 7.5 51.5 12 40.5 16.5 32 24 10 32q4 98 4 442v103q-169-179-311-179-154 0-251 116t-97 316q0 69 16 138t53 136 91 118 137 82.5 184 31.5q63 0 176.5-30t149.5-35q22-11 31-35 0-981 8-1204zm-402 497q94 0 215 125-2 197-2 488-70 129-211 129-30 0-60-9t-64-36-59.5-69-42.5-116.5-17-171.5q0-148 61.5-244t179.5-96z"/><path transform="translate(31.805 16.367) scale(.0078125 -.0078125)" d="m59 887q36-2 72-4t57-3 39-1q15 0 35 1t54.5 3 66.5 4q18-6 29-31-1-8-3.5-23.5t-4-37-1.5-52.5l-2-475q0-180 109-180 101 0 287 133 0 298-9 522 0 18-7 32t-21.5 24-26 16.5-33.5 12-31 7-30 5.5q-4 16-4 24 0 7 4 23 35-2 71.5-4t57.5-3 39-1q15 0 35 1t54.5 3 66.5 4q5-3 8.5-5.5t6-6 3.5-5 3-7 3-7.5q-8-54-8-113-6-147-6-239 0-48 2-161t2-198q57-33 192-41 5-25 5-26 0-6-5-21-189-18-338-82-26 11-34 27v156q-100-86-188.5-136.5t-178.5-50.5q-114 0-161.5 64t-49.5 201l-8 507q-2 23-8.5 34.5t-21 21.5-26.5 16.5-34 12-31 7-31 5.5q-4 16-4 24 0 7 4 23z"/><path transform="translate(41.531 16.367) scale(.0078125 -.0078125)" d="m860 530h-545q-4-60-4-106 3-149 87-238.5t225-89.5q38 0 71 8.5t54.5 19.5 44.5 32 33.5 33.5 28.5 38 24 32.5q24-5 39-22-50-134-155-200.5t-228-66.5q-61 0-118.5 15.5t-111.5 50.5-94 86.5-64 129-24 171.5q0 211 129 348t317 137q83 0 144.5-23.5t96-63.5 51-87.5 16.5-101.5q0-50-17-103zm-315 314q-69 0-130.5-61t-88.5-185h360q10 38 10 66 0 78-36 129t-115 51z"/><path transform="translate(49.336 16.367) scale(.0078125 -.0078125)" d="m463-29q-49 0-88.5 8t-61 17-57.5 27q-39 0-115-29-13 8-18 18 5 16 12.5 109t7.5 166q13 6 47 6 18-58 37.5-99t50-79.5 74-58 99.5-19.5q87 0 136.5 45t49.5 102q0 43-14 73t-62.5 63.5-138.5 66.5q-56 20-95 37t-80.5 42-66.5 51.5-41 63.5-16 81q0 32 7.5 63.5t29 65.5 54 59.5 87 42 123.5 16.5q28 0 49.5-3t52-10.5 33.5-8.5q22 5 45.5 13t26.5 9h26q24-144 62-245-12-13-39-13-83 100-141.5 146.5t-132.5 46.5q-58 0-102-26t-44-79q0-67 53.5-105t198.5-97q67-27 105.5-45t77.5-43 57.5-51.5 30.5-63.5 12-86q0-106-97.5-191.5t-234.5-85.5z"/><path transform="translate(60.5 16.367) scale(.0078125 -.0078125)" d="m78 1468q168-6 350-6h115q73 1 252.5 1.5t307 1.5 253.5 5q8-69 34-143.5t50-122 63-114.5q-8-17-35-27-36 68-87 121t-128.5 100-193 77-262.5 40h-254q-13-432-13-653h285q25 0 47 4.5t41.5 15.5 34 21.5 31 32 26.5 35.5 25 44.5 23 46.5 24.5 53 24.5 54q35-15 38-25-59-154-59-313 0-158 59-314-7-14-38-26-61 147-93 197-74 111-184 112h-285q0-215 11-549 1-26 23-44.5t63.5-28.5 70-14.5 74.5-8.5q4-20 4-27 0-8-4-20-170 6-348 6-180 0-348-6-4 12-4 20 0 7 4 27 30 3 48 5t49.5 7 51 11.5 40.5 16.5 31.5 24 10.5 32q12 313 12 631 0 324-10 559-1 26-22.5 44t-64.5 28-69 13.5-75 8.5q-4 18-4 25 0 6 4 22z"/><path transform="translate(72.242 16.367) scale(.0078125 -.0078125)" d="m76 823q194 20 338 82 25-10 35-26v-172q37 70 110.5 136t153.5 66q60 0 97.5-35.5t37.5-97.5q0-59-35-92t-88-33q-49 0-80.5 31.5t-34.5 83.5q-42-18-95.5-80t-65.5-123q0-223 8-426 1-26 19-44.5t53-28.5 58-14.5 60-8.5q6-12 6-25 0-10-6-22-150 6-297 6-122 0-254-6-4 16-4 22 0 5 4 25 33 4 54 8.5t52 14.5 47 28.5 17 44.5q4 99 4 240 0 47-1 160t-1 198q-57 35-192 41-4 16-4 25 0 6 4 22z"/><path transform="translate(79.266 16.367) scale(.0078125 -.0078125)" d="m170 657q0 110 100.5 181t237.5 71q168 0 236.5-67t68.5-226v-415q0-56 41-56 33 0 84 80 36-3 49-32-7-10-24-36t-25-37-25-33.5-27.5-33.5-28-26-32-22.5-33.5-13-38-5.5q-50 0-82.5 36t-38.5 111q-1-1-31-29t-41.5-37.5-43-33-53.5-33.5-55-19.5-65-9.5q-51 0-90.5 14t-61.5 34-36 46.5-18.5 48.5-4.5 44q0 67 22.5 113t84 86 151.5 71 242 70v139q0 101-44.5 151t-119.5 50q-67 0-112.5-26.5t-55.5-61.5q98-15 98-107 0-42-30-74t-84-32q-45 0-80 31.5t-35 88.5zm463-432v209q-92-21-152-45.5t-91.5-53.5-43.5-59.5-12-70.5q0-50 29.5-78.5t72.5-28.5q100 0 197 127z"/><path transform="translate(87.375 16.367) scale(.0078125 -.0078125)" d="m606 41q6-12 6-25 0-10-6-22-132 6-256 6-122 0-254-6-4 16-4 22 0 5 4 25 33 4 54 8.5t52 14.5 47 28.5 17 44.5q4 99 4 240 0 47-1 160t-1 198q-57 35-192 41-4 16-4 25 0 6 4 22 194 20 338 82 25-10 35-26v-158q97 85 186 136.5t180 51.5q114 0 161.5-64t49.5-200l10-508q1-26 15.5-44.5t42-28.5 45.5-14.5 47-8.5q4-20 4-27 0-8-4-20-129 6-238 6-106 0-235-6-4 16-4 24 0 7 4 23 26 4 43.5 8.5t40 14.5 34 28.5 11.5 44.5l2 475q0 181-109 181-102 0-286-136 0-291 8-520 1-26 15.5-44.5t41.5-28.5 45-14.5 47-8.5z"/><path transform="translate(97.07 16.367) scale(.0078125 -.0078125)" d="m883 260q24-5 39-22-50-134-155-200.5t-228-66.5q-61 0-119 15.5t-112.5 50.5-95 86.5-65 129-24.5 171.5q0 217 133 351t332 134q140 0 228.5-60.5t88.5-154.5q0-53-35-88t-86-35q-54 0-87 31.5t-33 73.5q0 76 77 96-7 23-45 47.5t-108 24.5q-36 0-68-8.5t-68.5-35.5-62-71-42.5-122.5-17-182.5q0-70 14.5-127t45.5-103 85-72 127-26q46 0 87 12.5t66.5 26.5 55 42.5 39.5 41 33 41.5z"/><path transform="translate(104.75 16.367) scale(.0078125 -.0078125)" d="m553 909q99 0 178.5-35t135.5-97 86-148.5 30-188.5q0-208-117-338-116-131-313-131-98 0-177.5 34.5t-135.5 97-86.5 148.5-30.5 189q0 102 30 188.5t85.5 148.5 135.5 97 179 35zm0-65q-102 0-163-99-60-99-60-305t60.5-304.5 162.5-98.5 162.5 99 60.5 304q0 103-16 179t-45 126-70 74.5-92 24.5z"/><path transform="translate(113.39 16.367) scale(.0078125 -.0078125)" d="m76 823q194 20 338 82 25-10 35-26 0-519 8-742 1-26 15.5-44.5t41.5-28.5 45-14.5 47-8.5q6-12 6-25t-6-22q-132 6-256 6-122 0-254-6-4 16-4 22 0 5 4 25 33 4 54 8.5t52 14.5 47 28.5 17 44.5q4 99 4 240 0 47-1 160t-1 198q-57 35-192 41-4 16-4 25 0 6 4 22zm157 418q0 51 36.5 87t86.5 36q51 0 87-36t36-87q0-50-36-86.5t-87-36.5q-50 0-86.5 36.5t-36.5 86.5z"/><path transform="translate(118.66 16.367) scale(.0078125 -.0078125)" d="m463-29q-49 0-88.5 8t-61 17-57.5 27q-39 0-115-29-13 8-18 18 5 16 12.5 109t7.5 166q13 6 47 6 18-58 37.5-99t50-79.5 74-58 99.5-19.5q87 0 136.5 45t49.5 102q0 43-14 73t-62.5 63.5-138.5 66.5q-56 20-95 37t-80.5 42-66.5 51.5-41 63.5-16 81q0 32 7.5 63.5t29 65.5 54 59.5 87 42 123.5 16.5q28 0 49.5-3t52-10.5 33.5-8.5q22 5 45.5 13t26.5 9h26q24-144 62-245-12-13-39-13-83 100-141.5 146.5t-132.5 46.5q-58 0-102-26t-44-79q0-67 53.5-105t198.5-97q67-27 105.5-45t77.5-43 57.5-51.5 30.5-63.5 12-86q0-106-97.5-191.5t-234.5-85.5z"/></svg>