<svg width="27.616" height="21.024" viewBox="0 0 27.616 21.024" xmlns="http://www.w3.org/2000/svg"><path transform="translate(0 16.768) scale(.016 -.016)" d="m222 10q-41 0-78 13.5t-65.5 34.5-45 44-16.5 42q0 32 2 60t8 62l99-18q-4-28-6-56t-2-63q0-19 7.5-27t25.5-8q41 0 61.5 21t20.5 86q0 25-1 55t-1 80v53q0 48 3.5 94t11.5 73h-67l-51 66 7 17h159l56-78q-18-64-18-177v-42q0-62 1-107t1-83q0-142-112-142z"/><path transform="translate(6.16 16.768) scale(.016 -.016)" d="m393 5q-24 8-44 16.5t-38 18.5q-14-14-33.5-22.5t-44.5-8.5q-17 0-49.5 11t-66.5 28.5-57.5 39-23.5 42.5q0 26 0.5 46.5t0.5 24.5q0 59 30.5 83.5t85.5 24.5q28 0 60-4t52-9q1 28 1.5 53.5t0.5 38.5q0 11-6 16t-22 5q-39 0-66-6t-51-20h-19l-65 95 8 16h167q20 0 45.5-15.5t50.5-38.5 41-47 16-42q0-33-2-78t-4-91.5-2-84.5q0-30 10-41.5t38-22.5zm-258 125q0-25 9-31.5t22-6.5q41 0 68.5 21.5t27.5 67.5q0 9 0.5 22t0.5 29q-11 3-27 4t-29 1q-36 0-54-16t-18-56z"/><path transform="translate(12.768 16.768) scale(.016 -.016)" d="m111 561-66 71v10q27 36 73 63l66-69-1-12q-20-14-37.5-31t-34.5-32zm89-563q-64 24-98.5 43.5t-34.5 35.5q0 14 3.5 43.5t3.5 57.5v143q0 26 2.5 48.5t8.5 39.5h-33l-53 68 7 17h128l58-78q-12-16-15.5-40t-3.5-61v-148q0-36-3-63.5t-3-41.5q0-10 7.5-15.5t37.5-21.5z"/><path transform="translate(16.592 16.768) scale(.016 -.016)" d="m190 0q-64 24-98.5 43.5t-34.5 35.5q0 14 3.5 43.5t3.5 57.5v128q0 20 1.5 50t6.5 51h-37l-52 69 7 16h94q4 0 17.5-13.5t27.5-30.5q19 26 47.5 38.5t55.5 12.5h21q20 0 44.5-16t48-39 38.5-45.5 15-36.5q0-25-2-62t-2-60v-73q0-36-3-63.5t-3-41.5q0-10 7.5-15.5t37.5-21.5l-12-27q-64 24-98.5 43.5t-34.5 35.5q0 14 3.5 43.5t3.5 57.5v52q0 32 2 73t2 72q0 20-5 27t-22 7q-56 0-83-28.5t-27-78.5v-135q0-36-3-63.5t-3-41.5q0-10 7.5-15.5t37.5-21.5z"/><path transform="translate(23.792 16.768) scale(.016 -.016)" d="m111 561-66 71v10q27 36 73 63l66-69-1-12q-20-14-37.5-31t-34.5-32zm89-563q-64 24-98.5 43.5t-34.5 35.5q0 14 3.5 43.5t3.5 57.5v143q0 26 2.5 48.5t8.5 39.5h-33l-53 68 7 17h128l58-78q-12-16-15.5-40t-3.5-61v-148q0-36-3-63.5t-3-41.5q0-10 7.5-15.5t37.5-21.5z"/></svg>