<svg width="31.12" height="20.672" viewBox="0 0 31.12 20.672" xmlns="http://www.w3.org/2000/svg"><path transform="translate(0 16) scale(.016 -.016)" d="m46-263q19 17 42 46.5t44.5 70 33.5 87.5q5 20 7 40t3 39v641q-22 10-48 13t-40 3v30h264v-30q-14 0-39.5-3t-48.5-13v-661q-16-66-45-116.5t-60.5-86.5-56.5-56.5-34-26.5z"/><path transform="translate(6.432 16) scale(.016 -.016)" d="m266-8q-64 0-116.5 31.5t-84 84.5-31.5 118 30.5 119 82.5 86.5 116 32.5q66 0 119-32.5t83.5-85.5 30.5-115q0-65-30.5-119.5t-82.5-87-117-32.5zm16 44q40 0 67.5 24t42.5 62.5 15 81.5q0 54-21 103.5t-56.5 81.5-81.5 32q-38 0-66.5-23.5t-44-61.5-15.5-82q0-53 21-103.5t57-82.5 82-32z"/><path transform="translate(14.752 16) scale(.016 -.016)" d="m152-8q-52 0-86 33t-34 86q0 19 3.5 37t10.5 31q9 5 36.5 15.5t63.5 23.5 69.5 25 54.5 19v77q0 20-1.5 32t-8.5 23q-6 10-19 18t-33 8q-36 0-57.5-25.5t-15.5-63.5l-80-32q-1 53 23 90t65.5 56 89.5 19q52 0 84-24.5t32-76.5v-256q0-28 1.5-39.5t11.5-19.5q10-7 24-5t23 5l12-26q-18-13-38.5-21.5t-45.5-8.5q-27 0-43 15.5t-20 37.5q-32-19-60-36t-62-17zm30 62q16 0 38 6t50 20v138q-30-10-63.5-23t-59-23.5-33.5-15.5q-10-44 9.5-73t58.5-29z"/><path transform="translate(21.84 16) scale(.016 -.016)" d="m26 0v30q13 0 36 3t43 13v339q-13 5-30.5 5.5t-31.5-1.5l-9 26 132 55 20-14v-67q22 17 49.5 34t57 29 57.5 12q18 0 41.5-6t46.5-27q18-16 29.5-44t11.5-73v-268q20-10 43-13t36-3v-30h-231v30q11 0 32 3t39 13v243q0 25-2 43t-12 34q-11 18-29.5 27t-41.5 9q-39 0-71.5-19t-55.5-37v-300q20-10 43-13t36-3v-30z"/></svg>