<svg width="42.112" height="16.1" viewBox="0 0 42.112 16.1" xmlns="http://www.w3.org/2000/svg"><path transform="translate(0 12.628) scale(.014 -.014)" d="m323 172q0-35-8-65t-25.5-57.5-51.5-43.5-81-16q-71 0-110.5 28.5t-39.5 61.5q0 23 12 36.5t31 13.5q18 0 31.5-9t13.5-26q0-34-25-42 27-27 77-27 23 0 39 8.5t25 22 13.5 39 5.5 49 1 63.5v336q-9 20-63 20v21h218v-21q-54 0-63-20z"/><path transform="translate(5.768 12.628) scale(.014 -.014)" d="m465 61t63-5v-23q-19 0-74.5-21.5t-78.5-21.5v46q-54-46-119-46-93 0-134.5 34.5t-41.5 107.5v267q-9 20-63 20v21h153v-315q0-101 92-101 63 0 113 44v331q-9 20-63 20v21h153z"/><path transform="translate(13.468 12.628) scale(.014 -.014)" d="m363 430v129t-63 5v23q19 0 74.5 21.5t78.5 21.5v-569l63-5v-23q-19 0-74.5-21.5t-78.5-21.5v33q-48-33-120-33-33 0-65.5 11.5t-65 36-53 72.5-20.5 112q0 112 62.5 172t163.5 60q57 0 98-24zm0-31q-36 21-92 21-55 0-96-53t-41-145q0-61 35.5-129.5t83.5-68.5q66 0 110 32z"/><path transform="translate(20.986 12.628) scale(.014 -.014)" d="m207 20q28 0 61.5 18t33.5 54q0 58-119 100-29 10-47.5 19t-40.5 25-33 39-11 54q0 56 41 88.5t99 32.5q34 0 69.5-15t40.5-15q12 0 12 20h23v-120h-22q-6 42-40.5 71t-79.5 29q-32 0-53.5-15t-21.5-41q0-15 6-27.5t12-20 22.5-16.5 25-12.5 31-11.5 30.5-11q52-20 89-56.5t37-84.5q0-61-49-97.5t-124-36.5q-36 0-70 17t-38 17q-6 0-14-8t-8-16h-24v141h22q7-51 47.5-86t92.5-35z"/><path transform="translate(26.656 12.628) scale(.014 -.014)" d="m135 248q0-114 43.5-171t111.5-57q54 0 87 48.5t33 124.5q0 226-157 226-53 0-85.5-50.5t-32.5-120.5zm142-258q-112 0-175 65.5t-63 172.5q0 97 57 159.5t174 62.5q118 0 177-62.5t59-171.5q0-97-56.5-161.5t-172.5-64.5z"/><path transform="translate(34.286 12.628) scale(.014 -.014)" d="m31 0v21q54 0 63 20v338q-62 5-63 5v23q19 0 74.5 21.5t78.5 21.5v-46q54 46 119 46 93 0 134.5-34.5t41.5-107.5v-267q9-20 63-20v-21h-216v21q54 0 63 20v274q0 101-92 101-63 0-113-44v-331q9-20 63-20v-21z"/></svg>