<svg width="28.028" height="16.492" viewBox="0 0 28.028 16.492" xmlns="http://www.w3.org/2000/svg"><path transform="translate(0 12.516) scale(.014 -.014)" d="m48-216q-40 0-71 34.5t-36 107.5l74 36 23-14q0-37 14.5-61t34.5-24q23 0 48 37t42.5 123.5 17.5 233.5q0 30-1.5 80t-4 105-6.5 100q-9-1-18.5-1.5t-18.5-0.5q-37 0-75 9l-11 26 26 86q26-19 58-26.5t69-7.5q44 0 85.5 9t69.5 18q4 0 4-9 0-7-4-19.5t-11-18.5q-16-10-32-18.5t-32-15.5q-2-49-5-110.5t-8-129-11.5-133-15-122.5-19.5-97q-17-63-48-107t-67-67-71-23z"/><path transform="translate(5.558 12.516) scale(.014 -.014)" d="m450-28q-7 0-19.5 4t-18.5 10q-17 41-30 100.5t-21 116.5q-27-66-63-116.5t-74-79.5-73-29q-43 0-61.5 32t-18.5 81q0 89 13 179.5t25 187.5q6 6 21 10t22 4 7-4q-6-57-10-112t-4-101q0-70 12.5-113.5t46.5-43.5q35 0 75.5 49t71.5 146q-1 12-1 22t0 18q0 49 2.5 74.5t6.5 50.5l80 35 25-14q-15-44-24-106t-9-118q0-27 2.5-67t6-82.5 8.5-78 9-52.5q0-3-7-3z"/><path transform="translate(12.712 12.516) scale(.014 -.014)" d="m68-31q-8 0-8 5 27 115 37 217.5t10 187.5q0 66-6 127t-15 110.5-18 79.5l25 16 80-38q12-80 10.5-173t-11.5-187.5-25.5-179.5-32.5-148q-7-7-22-12t-24-5z"/><path transform="translate(16.1 12.516) scale(.014 -.014)" d="m172-22q-63 0-97 46t-34 120q0 47 13.5 97.5t45 97.5 85.5 83 135 55q35-12 48-44t13-65q-12-49-44.5-84t-73.5-57.5-78-35-58-16.5q5-52 27.5-75t51.5-23q46 0 86 39.5t73 108.5q2 6 7 6t14-4.5 16-9.5q-27-66-64.5-120.5t-80-86.5-85.5-32zm-45 237q60 16 98 41.5t56 54 18 52.5q0 14-9 24.5t-26 10.5q-23 0-53.5-19.5t-55-59.5-28.5-104z"/><path transform="translate(22.064 12.516) scale(.014 -.014)" d="m172-22q-63 0-97 46t-34 120q0 47 13.5 97.5t45 97.5 85.5 83 135 55q35-12 48-44t13-65q-12-49-44.5-84t-73.5-57.5-78-35-58-16.5q5-52 27.5-75t51.5-23q46 0 86 39.5t73 108.5q2 6 7 6t14-4.5 16-9.5q-27-66-64.5-120.5t-80-86.5-85.5-32zm-45 237q60 16 98 41.5t56 54 18 52.5q0 14-9 24.5t-26 10.5q-23 0-53.5-19.5t-55-59.5-28.5-104z"/></svg>