<svg width="117.68" height="15.274" viewBox="0 0 117.68 15.274" xmlns="http://www.w3.org/2000/svg"><path transform="translate(0 12.082) scale(.014 -.014)" d="m132 80v635h48v-603q0-134-56-214-28-41-57-68.5t-71-57.5l-21 31q157 115 157 277z"/><path transform="translate(4.368 12.082) scale(.014 -.014)" d="m114 280v369h46v-369q0-249 221-249t221 249v369h46v-369q0-136-66-213t-201-77-201 77-66 213z"/><path transform="translate(15.036 12.082) scale(.014 -.014)" d="M120 0V649H166V42H464V0Z"/><path transform="translate(21.756 12.082) scale(.014 -.014)" d="M120 0V649H166V0Z"/><path transform="translate(25.76 12.082) scale(.014 -.014)" d="m114 280v369h46v-369q0-249 221-249t221 249v369h46v-369q0-136-66-213t-201-77-201 77-66 213z"/><path transform="translate(36.428 12.082) scale(.014 -.014)" d="m251 621q-54 0-88-26t-34-73q0-54 45-97 32-31 82.5-65.5t69.5-49.5 46-41q49-49 49-113 0-83-55.5-125.5t-155-42.5-166.5 52l24 35q68-46 144-46t118.5 32 42.5 90q0 50-43 92-30 30-80.5 65t-70.5 50.5-47 41.5q-51 51-51 118t47.5 105 131.5 38 151-33l-17-37q-62 30-143 30z"/><path transform="translate(48.258 12.082) scale(.014 -.014)" d="m441 652q-73 31-145 31-146 0-146-108 0-47 33-87.5t80-72 94-64.5 80-79 33-100q0-91-61-137.5t-168.5-46.5-183.5 55l24 36q72-47 158-47t132 34.5 46 99.5q0 45-33 85.5t-80 73-94 66.5-80 81-33 101q0 71 52.5 112.5t142 41.5 166.5-36z"/><path transform="translate(55.916 12.082) scale(.014 -.014)" d="m152 225-93-225h-47l272 653h27l274-653h-51l-94 225zm143 354q-15-45-27-75l-100-240h256l-99 239q-23 56-30 76z"/><path transform="translate(64.274 12.082) scale(.014 -.014)" d="m120 0v653h22l426-490q23-26 42.5-51.5t20.5-26.5q-2 24-2 94v470h46v-653h-22l-434 498-55 67q2-20 2-94v-467z"/><path transform="translate(75.404 12.082) scale(.014 -.014)" d="m251 621q-54 0-88-26t-34-73q0-54 45-97 32-31 82.5-65.5t69.5-49.5 46-41q49-49 49-113 0-83-55.5-125.5t-155-42.5-166.5 52l24 35q68-46 144-46t118.5 32 42.5 90q0 50-43 92-30 30-80.5 65t-70.5 50.5-47 41.5q-51 51-51 118t47.5 105 131.5 38 151-33l-17-37q-62 30-143 30z"/><path transform="translate(87.234 12.082) scale(.014 -.014)" d="m189.5 95q-99.5 107-99.5 263t99.5 262.5 251.5 106.5 252-106.5 100-262.5-100-263-252-107-251.5 107zm35.5 494.5q-83-93.5-83-231.5t83.5-232 216-94 216 94 83.5 232-83.5 231.5-216.5 93.5-216-93.5z"/><path transform="translate(99.596 12.082) scale(.014 -.014)" d="m120 0v653h22l426-490q23-26 42.5-51.5t20.5-26.5q-2 24-2 94v470h46v-653h-22l-434 498-55 67q2-20 2-94v-467z"/><path transform="translate(110.73 12.082) scale(.014 -.014)" d="M120 0V649H423V609H166V373H398V334H166V42H433V0Z"/></svg>