<svg width="33.856" height="18.928" viewBox="0 0 33.856 18.928" xmlns="http://www.w3.org/2000/svg"><path transform="translate(0 15.44) scale(.008 -.008)" d="m424 0q-184 0-273.5 77t-100.5 245q-2 26 11 40.5t40 14.5q50 0 54-53 8-124 68.5-171.5t200.5-47.5h82q103 0 162 25t84.5 84.5 25.5 162.5v859q0 53 52 53 53 0 53-53v-859q0-198-89.5-287.5t-287.5-89.5z"/><path transform="translate(8.48 15.44) scale(.008 -.008)" d="m981 945q53 0 53-52v-840q0-53-53-53-52 0-52 53v95q-95-148-344-148h-56q-187 0-273.5 87t-86.5 274v532q0 52 52 52 53 0 53-52v-532q0-143 56.5-199.5t198.5-56.5h56q155 0 244 50t100 153v585q0 52 52 52z"/><path transform="translate(18.248 15.44) scale(.008 -.008)" d="m240 0q-53 0-53 53v840q0 52 53 52 52 0 52-52v-154q52 100 150.5 153t233.5 53q53 0 53-52 0-53-53-53-178 0-276-80.5t-108-229.5v-477q0-53-52-53z"/><path transform="translate(24.28 15.44) scale(.008 -.008)" d="m468 0q-156 0-228.5 72.5t-72.5 228.5 73 229 228 73h455q-2 132-59.5 184.5t-195.5 52.5h-116q-127 0-186-27t-73-92q-7-25-18.5-36.5t-36.5-11.5q-26 0-40.5 14.5t-10.5 39.5q13 114 103.5 166t261.5 52h116q187 0 273.5-86.5t86.5-273.5v-532q0-53-52-53-53 0-53 53v99q-96-152-343-152zm0 105h112q97 0 170.5 21.5t118.5 69.5 54 128v174h-455q-111 0-153.5-42.5t-42.5-154.5q0-111 42.5-153.5t153.5-42.5z"/></svg>