<svg width="127.62" height="23.968" viewBox="0 0 127.62 23.968" xmlns="http://www.w3.org/2000/svg"><path transform="translate(0 17.104) scale(.016 -.016)" d="m312 637h17q31-6 31-31 0-7-19-29v-50q0-72 34-437 0-140-84-140-70 0-206 196-44 0-56 31l-7 25q9 38 34 38 56-23 163-178 53-53 72-53h6q15 7 15 47v63l-31 375-2 65q0 78 33 78z"/><path transform="translate(6.56 17.104) scale(.016 -.016)" d="m59 301 18 10q24 0 35-29-16-74-16-152 0-39 23-85h6q29 0 69 229 14 12 27 12 31 0 31-110 13-121 29-121l15 6q29-11 29-31-18-38-50-38-36 0-69 72-40-84-81-84-61 0-85 127l-3 32v10q0 80 22 152z"/><path transform="translate(11.792 17.104) scale(.016 -.016)" d="m220 405q27 0 37-91-10-25-33-25-16 3-32 37l-18 6q-47 0-85-62v-9q0-15 141-50 59-35 59-85 0-82-132-140l-37-6q-84 9-84 84v3q0 24 31 28 24 0 32-50l8-6h17q57 0 106 78v13q0 30-131 56-69 28-69 78 0 65 109 122 48 6 81 19z"/><path transform="translate(16.704 17.104) scale(.016 -.016)" d="m137 607q28-6 28-28l-6-44v-13q0-44 10-93h2q116 35 144 35 29-8 29-29 0-34-69-34l-104-37q0-135 29-367-6-27-29-27h-2q-35 0-35 90-13 67-22 291h-18q-94 6-94 44 0 11 21 27h10l46-12h32l-9 125q0 72 37 72z"/><path transform="translate(28.416 17.104) scale(.016 -.016)" d="m307 730h3q25-13 25-29l-25-190q0-104 62-431l50-125q0-13-21-29h-19q-20 6-60 123-26 94-52 290h-6q-58-172-82-178l-16-4q-21 0-52 82h-7q-12-247-47-247h-3q-32 0-35 50 25 96 25 200l-27 265v19q0 38 27 38 39 0 69-153 44-139 54-150 23 36 46 128 18 47 35 147l-4 3 4 16v6q9 169 56 169z"/><path transform="translate(35.376 17.104) scale(.016 -.016)" d="m109 359q40-1 135-140l2-17q0-28-137-43l-3-3v-4q21-90 44-90h12q32 0 97 69h6q20 0 31-29 0-24-84-83-22-13-53-19-81 0-113 152-46 7-46 38 0 22 34 29v-4l10 4v25q0 115 65 115zm6-72h-9l-4-37v-31h4q56 2 56 12-26 39-47 56z"/><path transform="translate(46.448 17.104) scale(.016 -.016)" d="m227 594 25 8q34 0 34-90l31-231 4-4 115 42q23 0 25-35 0-26-127-63l-4-2v-4q0-21 66-219v-2q0-19-31-32-29 0-38 69-23 50-56 165h-4q-131-27-131-46-72-156-109-156-21 0-25 27 0 24 53 94l16 35h-25l-19-4q-37 9-37 38 15 35 44 35l25-10q56 0 56 41 51 120 112 344zm9-182-59-178q82 16 82 31-15 147-23 147z"/><path transform="translate(54 17.104) scale(.016 -.016)" d="m180 384q46 0 46-44 6 0 6-15h4l-4-29 4-202-6-160q90 0 121-132 0-27-37-31-17 0-38 75-20 29-46 29h-4q-32-213-56-213-29-53-84-53-81 19-81 81v6q0 94 134 204l31 19 4 108v25h-4q-34-43-65-43h-6q-69 0-79 106v22q0 128 94 222 29 25 66 25zm-100-234v-48q4-33 15-33h10q28 0 69 206v50q-60 0-94-175zm-16-456q4-25 28-25 48 0 69 171h-6q-91-79-91-146z"/><path transform="translate(58.32 17.104) scale(.016 -.016)" d="m206 386q44 0 44-35l-9-19-6-183q0-124 50-154l2-15q-3-29-27-29h-6q-75 51-75 156h-7q-40-112-97-112-53 15-53 79 0 141 113 281 38 31 71 31zm-121-272-4-28v-19h10q75 187 75 228h-4q-58-65-77-181z"/><path transform="translate(62.992 17.104) scale(.016 -.016)" d="m31 521q38-8 38-34-10-28-32-28-37 7-37 37 10 25 31 25zm38-140q16 0 27-29l-9-71v-47q0-82 28-215-10-19-34-19-41 0-54 240v35q0 106 42 106z"/><path transform="translate(65.344 17.104) scale(.016 -.016)" d="m149 337q85-7 85-83l2-13-2-156q0-27 31-73v-2q-8-29-29-29-62 26-62 110v13l-3 2 3 4v2l3 138q0 29-25 29h-12q-50-20-50-219 0-69-35-69-27 0-28 34v100q0 194 34 194l10 3 21-3q27 18 57 18z"/><path transform="translate(75.808 17.104) scale(.016 -.016)" d="m115 584q141 0 272-150 40-79 40-153 0-174-177-256-57-25-123-25h-25q-37 1-37 31h-3q0 27 34 28h23v6h2q-62 263-62 391h-3l-25-16q-26 0-31 35 0 55 62 96 25 13 53 13zm12-59h-8v-48q0-164 62-412h3q185 50 185 216 0 178-207 238-12 6-35 6z"/><path transform="translate(82.96 17.104) scale(.016 -.016)" d="m179 377q74 0 112-110l4-21q0-107-100-219-40-37-81-37-60 0-85 69-9 32-9 56v12q0 158 115 240 20 10 44 10zm-100-260q0-68 35-68 73 0 121 187v19q-17 62-63 62-18 0-18-25 0-17-40-27-35-59-35-148z"/><path transform="translate(88.08 17.104) scale(.016 -.016)" d="m302 314q69-46 69-142 0-130-87-177l-38-6q-34 0-72 33h-7q-31-40-58-40-71 0-82 134v54q7 127 53 127 25 0 29-31-23-40-23-112v-19q4-90 19-90t31 52l-2 69q0 69 33 69 38 0 38-75h4l-10-63q17-50 47-50h6q44 0 57 94v56q0 32-38 79l-4 9q0 21 35 29z"/><path transform="translate(94.48 17.104) scale(.016 -.016)" d="m149 337q85-7 85-83l2-13-2-156q0-27 31-73v-2q-8-29-29-29-62 26-62 110v13l-3 2 3 4v2l3 138q0 29-25 29h-12q-50-20-50-219 0-69-35-69-27 0-28 34v100q0 194 34 194l10 3 21-3q27 18 57 18z"/><path transform="translate(104.94 17.104) scale(.016 -.016)" d="m99 557q35 0 35-122l6-156h2l160 62q24 204 44 204l13 2q17 0 31-27-35-172-35-298v-43q0-92 44-175-10-28-32-28-48 0-71 194v102h-6q-150-53-150-68 0-238-44-238h-4q-21 0-27 35 15 109 15 169l-44-23-9-2q-25 9-25 31t78 69v2q-3 172-13 285 0 22 32 25z"/><path transform="translate(111.7 17.104) scale(.016 -.016)" d="m109 359q40-1 135-140l2-17q0-28-137-43l-3-3v-4q21-90 44-90h12q32 0 97 69h6q20 0 31-29 0-24-84-83-22-13-53-19-81 0-113 152-46 7-46 38 0 22 34 29v-4l10 4v25q0 115 65 115zm6-72h-9l-4-37v-31h4q56 2 56 12-26 39-47 56z"/><path transform="translate(116.74 17.104) scale(.016 -.016)" d="m151 394q63 0 75-88v-9q0-97-100-178 58-57 203-57 22-7 22-31 0-27-35-27-98 0-206 50v-29q0-103-44-103-31 0-31 119v78l-3 28 7 32-7 96v4q0 27 28 37 39 78 91 78zm-50-219q29 0 65 104v43l-12 13h-9q-44-30-44-160z"/><path transform="translate(122.58 17.104) scale(.016 -.016)" d="m109 359q40-1 135-140l2-17q0-28-137-43l-3-3v-4q21-90 44-90h12q32 0 97 69h6q20 0 31-29 0-24-84-83-22-13-53-19-81 0-113 152-46 7-46 38 0 22 34 29v-4l10 4v25q0 115 65 115zm6-72h-9l-4-37v-31h4q56 2 56 12-26 39-47 56z"/></svg>