<svg width="85.424" height="23.168" viewBox="0 0 85.424 23.168" xmlns="http://www.w3.org/2000/svg"><path transform="translate(0 18.56) scale(.016 -.016)" d="m722 16q0-4-2-9t-7-5q-31 0-62.5-0.5t-63.5-0.5q-16 0-30.5 1.5t-26.5 12.5q-4 3-7 7t-6 8q-124 173-260 341l-35-29v-289q0-17 16-22t36-4.5 30 0.5q13 0 13-13t-11-13q-34 0-67 2t-67 2q-33 0-66.5-1t-66.5-3q-8 5-8 14 0 7 1.5 9t8.5 3q6 1 12 0.5t12-0.5q9 0 22.5 1t24 6.5 10.5 18.5v628q0 10-13.5 18t-21.5 8h-22q-7 0-13-0.5t-13-0.5q-10 0-11 6t-1 13q0 8 7 8 35 0 69.5-2t68.5-2q32 0 63.5 2t62.5 2q12 0 12-14 0-4-2.5-8.5t-7.5-4.5q-11 0-22 0.5t-22 0.5-22.5-7-11.5-19v-152q0-39 0-78t-1-78q100 94 196 193 36 38 70 75.5t65 78.5q7 10 16 10 15 0 30-0.5t30-0.5q13 0 25.5 0.5t25.5 0.5q5 0 6.5-4.5t1.5-8.5-2.5-8.5-7.5-4.5q-28 0-53-8t-46-28l-248-236q75-96 152.5-191.5t159.5-186.5q15-16 33.5-20t32.5-6 14-12z"/><path transform="translate(11.552 18.56) scale(.016 -.016)" d="m362 117q-4 45-4.5 90.5t-1.5 91.5h-14q-31 0-68.5-9.5t-71.5-28.5-55.5-47.5-21.5-65.5q0-48 27-72.5t73-24.5q22 0 48 10.5t50 25.5 39 30zm175-64q0-4-1-6-10-22-33.5-33.5t-46.5-11.5q-42 0-60.5 24.5t-29.5 60.5q-38-35-84-58.5t-99-23.5q-37 0-69.5 14.5t-52.5 42.5-20 68q0 42 21.5 72.5t55 52 72 35 72.5 20.5q23 5 47 9t47 8q0 28-2.5 65t-15.5 61q-13 23-35 41t-49 18q-46 0-72-24t-37-68q-1-5-1.5-10.5t-1.5-10.5q-1-6-7.5-10.5t-13.5-4.5q-19 0-34.5 9t-15.5 30q0 12 4 21 13 31 42 51.5t64.5 31.5 66.5 11q54 0 98-20t70.5-58.5 26.5-96.5q0-65-0.5-131t3.5-132q1-22 9-38.5t33-16.5q13 0 27.5 6.5t18.5 6.5q3 0 3-5z"/><path transform="translate(20.256 18.56) scale(.016 -.016)" d="m317 15q0-5-3-9.5t-8-4.5q-28 0-55.5 1.5t-56.5 1.5h-27q-30 0-59.5-1.5t-58.5-1.5q-4 0-5.5 5t-1.5 8q0 5 1 7.5t6 3.5q5 2 11.5 1.5t12.5-0.5q7 0 13-0.5t13-0.5q14 0 25.5 6.5t11.5 22.5v400q0 17-6 26.5t-25 9.5q-14 0-28.5-1.5t-28.5-3.5q-8 0-8 9 0 10 8 13 12 4 25.5 5.5t25.5 3.5q28 5 56 11t55 13q3 1 8 1 11 0 11-12 0-118-0.5-237t-0.5-238q0-16 14.5-22.5t27.5-6.5q10 0 20.5 1t20.5 1q4 0 5-5t1-7zm-81 692q0-25-18-42.5t-43-17.5-43 17.5-18 42.5 18 42.5 43 17.5 43-17.5 18-42.5z"/><path transform="translate(25.76 18.56) scale(.016 -.016)" d="m414 143q0-45-20-73.5t-52-43.5-70-21-74-6q-33 0-65.5 7t-65.5 10q-7 27-13.5 54t-14.5 53q-1 3-4.5 14t-3.5 12q0 8 5 11.5t12 3.5 10-5q6-7 10.5-19t8.5-21q8-16 14-24.5t19-21.5q39-41 97-41 32 0 58.5 7t42.5 26.5 16 56.5q0 32-20 53.5t-51.5 38.5-66.5 33-66.5 35.5-51.5 47.5-20 68q0 49 25.5 80t65.5 46.5 83 15.5q28 0 50.5-7t47.5-16q8-3 16-4t16-1q5 0 9 0t8 1q3-18 5.5-36.5t4.5-37.5q1-7 2.5-16.5t1.5-17.5q0-7-3-14.5t-12-7.5q-7 0-11.5 1.5t-7.5 8.5q-5 10-8.5 21.5t-7.5 21.5q-13 35-45 56.5t-69 21.5q-47 0-71-27.5t-24-73.5q0-16 8.5-31t19.5-26q21-20 49.5-31t54.5-22q34-15 70.5-36t62-51 25.5-73z"/><path transform="translate(32.896 18.56) scale(.016 -.016)" d="m408 351q-1 41-7 78.5t-29 62-75 24.5q-47 0-76.5-25.5t-45.5-64-24-78.5q25-1 49-1.5t48-0.5q40 0 80 1.5t80 3.5zm115-229q0-5-2-6-3-10-14.5-24t-25.5-26.5-23-18.5q-33-23-74.5-37t-82.5-14q-34 0-75.5 11t-70.5 30q-56 37-82 97t-26 125q0 74 29 137t93 102q29 17 65 28.5t69 11.5q59 0 104-24t70.5-67.5 25.5-103.5q0-17-7.5-22t-22.5-5q-20 0-40 1t-40 2q-28 2-55.5 2t-55.5 0q-34 0-68 0t-68-2q-1-16-2-31t-1-31q0-37 9-76.5t29-73 51-54 75-20.5q45 0 86 14t75 45q9 9 16.5 19.5t16.5 18.5q5 5 11 5 5 0 8-4t3-9z"/><path transform="translate(41.616 18.56) scale(.016 -.016)" d="m317 15q0-5-3-9.5t-8-4.5q-28 0-55.5 1.5t-56.5 1.5h-27q-30 0-59.5-1.5t-58.5-1.5q-4 0-5.5 5t-1.5 8q0 5 1 7.5t6 3.5q5 2 11.5 1.5t12.5-0.5q7 0 13-0.5t13-0.5q14 0 25.5 6.5t11.5 22.5v400q0 17-6 26.5t-25 9.5q-14 0-28.5-1.5t-28.5-3.5q-8 0-8 9 0 10 8 13 12 4 25.5 5.5t25.5 3.5q28 5 56 11t55 13q3 1 8 1 11 0 11-12 0-118-0.5-237t-0.5-238q0-16 14.5-22.5t27.5-6.5q10 0 20.5 1t20.5 1q4 0 5-5t1-7zm-81 692q0-25-18-42.5t-43-17.5-43 17.5-18 42.5 18 42.5 43 17.5 43-17.5 18-42.5z"/><path transform="translate(51.12 18.56) scale(.016 -.016)" d="m655 368q0 58-12.5 118t-40.5 111-75 82.5-116 31.5q-67 0-114-33t-76-85.5-42.5-113-13.5-116.5q0-59 12-118.5t40-109 75.5-79.5 118.5-30 118 31 74.5 81.5 39.5 110.5 12 119zm109 3q0-111-40.5-195.5t-119-131.5-193.5-47q-112 0-191.5 45.5t-121.5 128-42 192.5q0 77 25 145t72 120 112.5 81.5 145.5 29.5q112 0 190.5-46.5t120.5-129 42-192.5z"/><path transform="translate(64.24 18.56) scale(.016 -.016)" d="m467 286q0 34-4 71.5t-17 70.5-39 53.5-71 20.5q-27 0-57.5-13.5t-53-36.5-25.5-53q-2-31-2-63t0-64q0-28 0.5-56.5t1.5-57.5q3-51 33-86.5t85-35.5q52 0 82 23.5t44.5 61.5 18.5 81.5 4 83.5zm103-1q0-78-28-141t-83.5-99.5-138.5-36.5q-32 0-65.5 16.5t-56.5 38.5v-213q0-14 11.5-16t21.5-2q9 0 18 1t18 1q13 0 13-13 0-15-15-15-31 0-62 2t-62 2q-26 0-51.5-2t-51.5-2q-7 0-8.5 5t-1.5 9q0 14 14 14 8 0 16-0.5t16-0.5q7 0 20.5 2t13.5 12q0 104 0.5 209t0.5 209q0 47-0.5 93t-1.5 92q-1 22-8 30.5t-30 8.5q-10 0-20-2.5t-20-2.5q-11 0-11 10 0 9 9 12 2 1 18 4t38.5 7.5 44.5 8.5 37 7 16 3q8 0 11-10 2-6 2.5-21.5t0.5-31 0-23.5q28 37 71.5 61.5t90.5 24.5q69 0 116.5-36.5t72-94 24.5-120.5z"/><path transform="translate(73.968 18.56) scale(.016 -.016)" d="m364 46q0-9-13.5-18t-32.5-16-36.5-11-25.5-4q-52 0-80.5 13t-40 43-11.5 81q0 83 0.5 166.5t1.5 166.5h-72q-7 0-11.5-3.5t-9.5-3.5-5 7q0 4 5.5 16t7.5 16q3-1 9-1h78l1 127q23 15 42 33.5t38 37.5q2 2 4 3.5t4 1.5q9 0 9-7l-6-195q32 0 63.5 1t62.5 1q13 0 13-15 0-19-17-19h-122q0-76-0.5-152.5t-0.5-153.5v-77q0-25 21-34.5t41-9.5q28 0 55 9 3 2 9 4t9 2q10 0 10-9z"/><path transform="translate(79.92 18.56) scale(.016 -.016)" d="m317 15q0-5-3-9.5t-8-4.5q-28 0-55.5 1.5t-56.5 1.5h-27q-30 0-59.5-1.5t-58.5-1.5q-4 0-5.5 5t-1.5 8q0 5 1 7.5t6 3.5q5 2 11.5 1.5t12.5-0.5q7 0 13-0.5t13-0.5q14 0 25.5 6.5t11.5 22.5v400q0 17-6 26.5t-25 9.5q-14 0-28.5-1.5t-28.5-3.5q-8 0-8 9 0 10 8 13 12 4 25.5 5.5t25.5 3.5q28 5 56 11t55 13q3 1 8 1 11 0 11-12 0-118-0.5-237t-0.5-238q0-16 14.5-22.5t27.5-6.5q10 0 20.5 1t20.5 1q4 0 5-5t1-7zm-81 692q0-25-18-42.5t-43-17.5-43 17.5-18 42.5 18 42.5 43 17.5 43-17.5 18-42.5z"/></svg>