<svg width="142.72" height="23.168" viewBox="0 0 142.72 23.168" xmlns="http://www.w3.org/2000/svg"><path transform="translate(0 18.56) scale(.016 -.016)" d="m722 16q0-4-2-9t-7-5q-31 0-62.5-0.5t-63.5-0.5q-16 0-30.5 1.5t-26.5 12.5q-4 3-7 7t-6 8q-124 173-260 341l-35-29v-289q0-17 16-22t36-4.5 30 0.5q13 0 13-13t-11-13q-34 0-67 2t-67 2q-33 0-66.5-1t-66.5-3q-8 5-8 14 0 7 1.5 9t8.5 3q6 1 12 0.5t12-0.5q9 0 22.5 1t24 6.5 10.5 18.5v628q0 10-13.5 18t-21.5 8h-22q-7 0-13-0.5t-13-0.5q-10 0-11 6t-1 13q0 8 7 8 35 0 69.5-2t68.5-2q32 0 63.5 2t62.5 2q12 0 12-14 0-4-2.5-8.5t-7.5-4.5q-11 0-22 0.5t-22 0.5-22.5-7-11.5-19v-152q0-39 0-78t-1-78q100 94 196 193 36 38 70 75.5t65 78.5q7 10 16 10 15 0 30-0.5t30-0.5q13 0 25.5 0.5t25.5 0.5q5 0 6.5-4.5t1.5-8.5-2.5-8.5-7.5-4.5q-28 0-53-8t-46-28l-248-236q75-96 152.5-191.5t159.5-186.5q15-16 33.5-20t32.5-6 14-12z"/><path transform="translate(11.552 18.56) scale(.016 -.016)" d="m362 117q-4 45-4.5 90.5t-1.5 91.5h-14q-31 0-68.5-9.5t-71.5-28.5-55.5-47.5-21.5-65.5q0-48 27-72.5t73-24.5q22 0 48 10.5t50 25.5 39 30zm175-64q0-4-1-6-10-22-33.5-33.5t-46.5-11.5q-42 0-60.5 24.5t-29.5 60.5q-38-35-84-58.5t-99-23.5q-37 0-69.5 14.5t-52.5 42.5-20 68q0 42 21.5 72.5t55 52 72 35 72.5 20.5q23 5 47 9t47 8q0 28-2.5 65t-15.5 61q-13 23-35 41t-49 18q-46 0-72-24t-37-68q-1-5-1.5-10.5t-1.5-10.5q-1-6-7.5-10.5t-13.5-4.5q-19 0-34.5 9t-15.5 30q0 12 4 21 13 31 42 51.5t64.5 31.5 66.5 11q54 0 98-20t70.5-58.5 26.5-96.5q0-65-0.5-131t3.5-132q1-22 9-38.5t33-16.5q13 0 27.5 6.5t18.5 6.5q3 0 3-5z"/><path transform="translate(20.256 18.56) scale(.016 -.016)" d="m317 15q0-5-3-9.5t-8-4.5q-28 0-55.5 1.5t-56.5 1.5h-27q-30 0-59.5-1.5t-58.5-1.5q-4 0-5.5 5t-1.5 8q0 5 1 7.5t6 3.5q5 2 11.5 1.5t12.5-0.5q7 0 13-0.5t13-0.5q14 0 25.5 6.5t11.5 22.5v400q0 17-6 26.5t-25 9.5q-14 0-28.5-1.5t-28.5-3.5q-8 0-8 9 0 10 8 13 12 4 25.5 5.5t25.5 3.5q28 5 56 11t55 13q3 1 8 1 11 0 11-12 0-118-0.5-237t-0.5-238q0-16 14.5-22.5t27.5-6.5q10 0 20.5 1t20.5 1q4 0 5-5t1-7zm-81 692q0-25-18-42.5t-43-17.5-43 17.5-18 42.5 18 42.5 43 17.5 43-17.5 18-42.5z"/><path transform="translate(25.76 18.56) scale(.016 -.016)" d="m414 143q0-45-20-73.5t-52-43.5-70-21-74-6q-33 0-65.5 7t-65.5 10q-7 27-13.5 54t-14.5 53q-1 3-4.5 14t-3.5 12q0 8 5 11.5t12 3.5 10-5q6-7 10.5-19t8.5-21q8-16 14-24.5t19-21.5q39-41 97-41 32 0 58.5 7t42.5 26.5 16 56.5q0 32-20 53.5t-51.5 38.5-66.5 33-66.5 35.5-51.5 47.5-20 68q0 49 25.5 80t65.5 46.5 83 15.5q28 0 50.5-7t47.5-16q8-3 16-4t16-1q5 0 9 0t8 1q3-18 5.5-36.5t4.5-37.5q1-7 2.5-16.5t1.5-17.5q0-7-3-14.5t-12-7.5q-7 0-11.5 1.5t-7.5 8.5q-5 10-8.5 21.5t-7.5 21.5q-13 35-45 56.5t-69 21.5q-47 0-71-27.5t-24-73.5q0-16 8.5-31t19.5-26q21-20 49.5-31t54.5-22q34-15 70.5-36t62-51 25.5-73z"/><path transform="translate(32.896 18.56) scale(.016 -.016)" d="m408 351q-1 41-7 78.5t-29 62-75 24.5q-47 0-76.5-25.5t-45.5-64-24-78.5q25-1 49-1.5t48-0.5q40 0 80 1.5t80 3.5zm115-229q0-5-2-6-3-10-14.5-24t-25.5-26.5-23-18.5q-33-23-74.5-37t-82.5-14q-34 0-75.5 11t-70.5 30q-56 37-82 97t-26 125q0 74 29 137t93 102q29 17 65 28.5t69 11.5q59 0 104-24t70.5-67.5 25.5-103.5q0-17-7.5-22t-22.5-5q-20 0-40 1t-40 2q-28 2-55.5 2t-55.5 0q-34 0-68 0t-68-2q-1-16-2-31t-1-31q0-37 9-76.5t29-73 51-54 75-20.5q45 0 86 14t75 45q9 9 16.5 19.5t16.5 18.5q5 5 11 5 5 0 8-4t3-9z"/><path transform="translate(41.616 18.56) scale(.016 -.016)" d="m317 15q0-5-3-9.5t-8-4.5q-28 0-55.5 1.5t-56.5 1.5h-27q-30 0-59.5-1.5t-58.5-1.5q-4 0-5.5 5t-1.5 8q0 5 1 7.5t6 3.5q5 2 11.5 1.5t12.5-0.5q7 0 13-0.5t13-0.5q14 0 25.5 6.5t11.5 22.5v400q0 17-6 26.5t-25 9.5q-14 0-28.5-1.5t-28.5-3.5q-8 0-8 9 0 10 8 13 12 4 25.5 5.5t25.5 3.5q28 5 56 11t55 13q3 1 8 1 11 0 11-12 0-118-0.5-237t-0.5-238q0-16 14.5-22.5t27.5-6.5q10 0 20.5 1t20.5 1q4 0 5-5t1-7zm-81 692q0-25-18-42.5t-43-17.5-43 17.5-18 42.5 18 42.5 43 17.5 43-17.5 18-42.5z"/><path transform="translate(51.12 18.56) scale(.016 -.016)" d="m817 721q0-7-2.5-10.5t-10.5-3.5q-10 0-20 0.5t-20 0.5q-11 0-25-6t-14-20v-631q0-14 14-20t25-6 21.5 1 20.5 1q9 0 9-10 0-3 0-5.5t0-5.5q0-7-7-7-35 0-70.5 2t-71.5 2q-20 0-40.5-1t-40.5-2q-13-1-25.5-2t-25.5-1q-6 0-6 10 0 4 1 11.5t6 7.5q11 0 23-0.5t23-0.5 26 6 15 20v317h-403v-317q0-14 14-20t25-6 21.5 1 21.5 1q7 0 8-5 1-1 1-5.5t0-6.5q0-3-2-9-4-2-6-2-35 0-69.5 2t-69.5 2q-21 0-41.5-1t-40.5-2q-13-1-25-2t-25-1q-7 0-5 5-2 6-2 7 0 4 1 10.5t7 6.5q11 0 22.5-0.5t22.5-0.5q12 0 26.5 6t14.5 20q0 86 0.5 172t0.5 171q0 71-0.5 143t-0.5 143q0 14-14.5 20t-26.5 6q-11 0-22.5-0.5t-22.5-0.5q-7 0-8 8t-1 12q0 9 8 9 13 0 25-1t25-2q20-1 40.5-2t41.5-1q35 0 70.5 2t70.5 2q7 0 7-6t0-11q0-11-10-11-11 0-21.5 1t-21.5 1-25-6-14-20v-279h403v271q0 20-11 27t-30 7q-11 0-23-0.5t-23-0.5q-6 0-6.5 6.5t-0.5 10.5q0 12 8 12 24 0 49.5-2t50.5-2h30q36 0 71.5 2t70.5 2q5 0 7-4t2-9z"/><path transform="translate(64.512 18.56) scale(.016 -.016)" d="m362 117q-4 45-4.5 90.5t-1.5 91.5h-14q-31 0-68.5-9.5t-71.5-28.5-55.5-47.5-21.5-65.5q0-48 27-72.5t73-24.5q22 0 48 10.5t50 25.5 39 30zm175-64q0-4-1-6-10-22-33.5-33.5t-46.5-11.5q-42 0-60.5 24.5t-29.5 60.5q-38-35-84-58.5t-99-23.5q-37 0-69.5 14.5t-52.5 42.5-20 68q0 42 21.5 72.5t55 52 72 35 72.5 20.5q23 5 47 9t47 8q0 28-2.5 65t-15.5 61q-13 23-35 41t-49 18q-46 0-72-24t-37-68q-1-5-1.5-10.5t-1.5-10.5q-1-6-7.5-10.5t-13.5-4.5q-19 0-34.5 9t-15.5 30q0 12 4 21 13 31 42 51.5t64.5 31.5 66.5 11q54 0 98-20t70.5-58.5 26.5-96.5q0-65-0.5-131t3.5-132q1-22 9-38.5t33-16.5q13 0 27.5 6.5t18.5 6.5q3 0 3-5z"/><path transform="translate(73.216 18.56) scale(.016 -.016)" d="m435 445q0-10-7.5-18.5t-18.5-8.5q-15 0-21.5 10t-11 23-13.5 23-30 10q-4 0-7.5 0t-7.5-1q-17-3-37-21t-38.5-42.5-30.5-48.5-13-40-1-31.5 0-30.5q0-54 0.5-108t0.5-107q0-15 12.5-21.5t25.5-6.5q10 0 20 1t20 1q5 0 7-4.5t2-8.5q0-16-16-16-30 0-60 1.5t-60 1.5q-31 0-62.5-2t-63.5-2q-4 0-5.5 6t-1.5 10q0 10 8 11 11 2 23 1t22-1q15 0 24.5 6.5t10.5 22.5q2 32 2.5 65t0.5 66v97q-1 43-0.5 85.5t-3.5 84.5q-1 20-11 28.5t-30 8.5q-8 0-16.5-1.5t-17.5-1.5q-8 0-8 12 0 7 7 10 10 3 21 4.5t21 2.5q27 5 54 10t54 12q9-3 13-11 2-4 3-22t1-41.5 0-44 0-28.5q22 35 50 70t64 58 81 23q24 0 31-15t9-35q2-11 3.5-23t1.5-23z"/><path transform="translate(80.32 18.56) scale(.016 -.016)" d="m618 27q0-12-17.5-18t-38.5-8-30-2q-34 0-54 27t-30 56q-34-43-85-64t-106-21q-90 0-124.5 46.5t-34.5 131.5q0 75 0.5 150.5t1.5 150.5q0 30-29 30-8 0-16-1t-16-1q-3 0-4.5 3.5t-1.5 5.5q0 11 10 12 35 4 70.5 5.5t70.5 5.5q8-8 8-20 0-25-1-51t-1-52q-1-61-1.5-122.5t-0.5-123.5q0-19 1-40.5t8-39.5q11-28 41.5-39.5t58.5-11.5q31 0 62.5 11.5t54 34 25.5 56.5q2 17 2.5 34.5t0.5 34.5l-1 272q0 13-8.5 19t-19.5 6q-10 0-19.5-1t-19.5-1q-9 0-9 10t9 11q12 2 25 2.5t26 1.5l69 7q7 1 14.5 2t14.5 1q5 0 7-5.5t2-8.5q-3-217-3-433 0-25 11.5-41t38.5-16q8 0 14.5 2t13.5 2q11 0 11-10z"/><path transform="translate(90.368 18.56) scale(.016 -.016)" d="m617 15q0-13-15-13-22 0-45 1.5t-46 1.5q-34 0-69.5-1.5t-70.5-1.5q-4 0-5 6.5t-1 10.5q0 8 10 8t16 0q5 0 10.5-0.5t10.5-0.5q29 0 32 29 3 59 2.5 119t-0.5 119q0 11 0 22.5t0 22.5q-1 23-3 56.5t-9 54.5q-16 52-70 52-49 0-90-25t-71-63q-1-73-1-145t0-144v-69q0-15 13-22t26-7q8 0 15.5 1.5t14.5 1.5q4 0 5-5t1-8q0-4-2.5-9t-8.5-5q-22 0-43.5 1.5t-43.5 1.5q-34 0-68-1.5t-69-1.5q-5 0-5.5 6.5t-0.5 10.5q0 8 9 8t14 0 10-0.5 10-0.5q29 0 32 29 1 14 1 28t0 28q0 86 0 172.5t-1 172.5q0 14-6 28t-23 14q-13 0-25-4t-25-4q-7 0-7 10 0 2 0.5 4.5t1.5 3.5 3 1.5 3 1.5q18 5 37.5 7t37.5 6q17 3 33 8.5t32 5.5q7 0 11-7 5-9 8-25.5t4.5-33.5 1.5-28q22 22 52.5 43.5t64 36 65.5 14.5q92 0 124.5-40.5t32.5-127.5q0-78-0.5-156t-0.5-156q0-19 11.5-25.5t27.5-6.5q8 0 16 1.5t15 1.5q6 0 8.5-4.5t2.5-9.5z"/><path transform="translate(100.48 18.56) scale(.016 -.016)" d="m471 264q0 43-6.5 86.5t-24 80.5-50.5 59.5-86 22.5q-50 0-81.5-24t-49-62-24-82-6.5-83q0-43 6.5-86t24.5-77.5 51.5-55.5 86.5-21q52 0 83.5 22t48 58 22 78.5 5.5 83.5zm103-3q0-75-35.5-135t-96-95-135.5-35q-73 0-132 35.5t-94 95-35 132.5q0 75 34 138.5t93.5 102.5 137.5 39q84 0 143-35.5t89.5-98 30.5-144.5z"/><path transform="translate(110.4 18.56) scale(.016 -.016)" d="m743 717q0-10-5-12t-13-2q-7 0-14 0.5t-14 0.5q-14 0-27.5-4.5t-15.5-21.5q-1-17-1-35t0-36q0-82 1.5-164.5t1.5-165.5q0-85-25-148.5t-80.5-98.5-147.5-35q-133 0-209.5 64.5t-76.5 202.5v398q0 5 0.5 10.5t-0.5 9.5q-1 19-19.5 23t-33.5 4q-7 0-14.5-0.5t-15.5-0.5q-3 0-7 4-1 4-1 11 0 11 13 11 11 0 21-0.5t20-1.5q23-1 45-1.5t44-0.5q35 0 69.5 2t69.5 2q13 0 13-12 0-4-2-9.5t-8-5.5q-13 0-25 0.5t-25 0.5q-11 0-25-6t-16-19q-3-16-2-34.5t1-35.5q0-91-1-182t-1-182q0-72 15-120t56-72.5 120-24.5q77 0 122.5 32t65.5 87 20 125q0 101-0.5 202t-0.5 202q0 14-15 20t-27 6-24-1-25-1q-6 0-6 9 0 8 0.5 14t10.5 6q14 0 29-1.5t29-1.5q50 0 99 3 13 0 25.5 1t24.5 1q6 0 6.5-6t0.5-10z"/><path transform="translate(122.5 18.56) scale(.016 -.016)" d="m911 13q0-14-11-14-28 0-57 2t-58 2-58.5-2-58.5-2q-4 0-5.5 5t-1.5 8q0 9 9.5 11t21 1 17.5-1q14 0 23 7t9 21q0 67 1.5 133t1.5 132q0 11 0 22t-1 22q-1 24-2.5 49.5t-8.5 48-24 36.5-49 14q-23 0-50.5-13.5t-52.5-31.5-42-34q2-14 2-28.5t0-28.5q0-29 0.5-58.5t0.5-58.5q0-51-0.5-102t-0.5-102q0-15 13-21t26-6q8 0 16.5 1t15.5 1q5 0 6.5-5t1.5-8q0-5-3-9.5t-9-4.5q-28 0-56.5 2t-57.5 2q-28 0-57-2t-58-2q-4 0-6 5t-2 8q0 8 8 11 8 2 19.5 1t19.5-1q14 0 23.5 6.5t9.5 21.5v255q0 21-0.5 52t-4 61.5-11.5 48.5q-7 18-23.5 28t-36.5 10q-26 0-53-13t-51-32-41-38v-371q0-15 11-21.5t24-6.5q8 0 16 1.5t15 1.5q4 0 5-5.5t1-7.5q0-5-2.5-9.5t-8.5-4.5q-19 0-38 1.5t-38 1.5q-38 0-76-1.5t-76-1.5q-4 0-6 5t-2 8q0 12 10 12 11 0 21-0.5t20-0.5q14 0 24 6.5t10 21.5q0 101-0.5 202.5t-0.5 202.5q0 11-2 22t-13 15q-7 3-15 3-13 0-26-3.5t-27-3.5q-9 0-9 12 0 8 6 10 5 2 11.5 2.5t12.5 1.5q23 3 46.5 7.5t45.5 9.5q8 2 17 4t18 2q12 0 16.5-17.5t5-37.5 0.5-29q21 18 47 37.5t55 33.5 58 14q51 0 86-17t60-64q22 19 50 38.5t58.5 33 60.5 13.5q66 0 100.5-19t47-58.5 12.5-101.5q0-78-1-156.5t-1-157.5q0-15 13.5-21t26.5-6q8 0 15.5 1t14.5 1q4 0 5.5-5t1.5-8z"/><path transform="translate(137.22 18.56) scale(.016 -.016)" d="m317 15q0-5-3-9.5t-8-4.5q-28 0-55.5 1.5t-56.5 1.5h-27q-30 0-59.5-1.5t-58.5-1.5q-4 0-5.5 5t-1.5 8q0 5 1 7.5t6 3.5q5 2 11.5 1.5t12.5-0.5q7 0 13-0.5t13-0.5q14 0 25.5 6.5t11.5 22.5v400q0 17-6 26.5t-25 9.5q-14 0-28.5-1.5t-28.5-3.5q-8 0-8 9 0 10 8 13 12 4 25.5 5.5t25.5 3.5q28 5 56 11t55 13q3 1 8 1 11 0 11-12 0-118-0.5-237t-0.5-238q0-16 14.5-22.5t27.5-6.5q10 0 20.5 1t20.5 1q4 0 5-5t1-7zm-81 692q0-25-18-42.5t-43-17.5-43 17.5-18 42.5 18 42.5 43 17.5 43-17.5 18-42.5z"/></svg>