<svg width="41.12" height="25.504" viewBox="0 0 41.12 25.504" xmlns="http://www.w3.org/2000/svg"><path transform="translate(0 17.008) scale(.016 -.016)" d="m105 20q-14 0-32.5 23.5t-18.5 49 65 277.5 65 316q0 18 4 25t18.5 7 34.5-31 20-71-52-237q91 124 192 228.5t128 104.5q20 0 37.5-13t17.5-25.5-47.5-56-127.5-121.5-137-156q0-41 22-89 35-80 144-133 47-23 73.5-39t26.5-33q0-26-39-26t-82 16.5-86 46.5-78.5 79.5-48.5 108.5q-31-55-58-145-33-106-40-106z"/><path transform="translate(9.456 17.008) scale(.016 -.016)" d="m393 309q12-15 12-26 0-28-12.5-96t-15-89-4.5-33.5-5-24.5q-4-25-18-25-18 0-29.5 31.5t-13.5 81.5q-89-113-165-113-46 0-90.5 39.5t-44.5 81.5q0 60 44 148.5t114 157.5 132 69q45 0 83-45.5t38-82-25-74.5zm-50 26q0 93-37 93-39 0-91-55.5t-88-125.5-36-111q0-17 14-27.5t33-10.5q47 0 106 63.5t82 154.5q3 15 17 18z"/><path transform="translate(16.96 17.008) scale(.016 -.016)" d="m228 707q0-188-78-488-50-204-70-204-14 0-32.5 22t-18.5 34 29 124 58 275.5 29 294.5q0 14 4 20t17 6 37.5-28.5 24.5-55.5z"/><path transform="translate(20.88 17.008) scale(.016 -.016)" d="m393 309q12-15 12-26 0-28-12.5-96t-15-89-4.5-33.5-5-24.5q-4-25-18-25-18 0-29.5 31.5t-13.5 81.5q-89-113-165-113-46 0-90.5 39.5t-44.5 81.5q0 60 44 148.5t114 157.5 132 69q45 0 83-45.5t38-82-25-74.5zm-50 26q0 93-37 93-39 0-91-55.5t-88-125.5-36-111q0-17 14-27.5t33-10.5q47 0 106 63.5t82 154.5q3 15 17 18z"/><path transform="translate(28.384 17.008) scale(.016 -.016)" d="m678 511q30 0 53.5-41.5t23.5-94-18.5-136.5-49.5-154-61-70q-21 0-21 27.5t34.5 135 34.5 171-20 63.5q-25 0-57.5-44t-69.5-106-40-66.5-7.5-12.5-10-17-28-54-39.5-70.5-29.5-25.5-27.5 16-15 30 18 58q52 130 52 242 0 21-9 35.5t-20 14.5-23-9.5-30-34-32-46.5-42.5-68.5-43-69-33.5-52-29.5-45.5-23.5-35q-27-37-39.5-37t-32.5 22.5-20 34 4 28.5 8.5 33 14 47.5 22 74 19 117 9.5 109 17 34.5q22 0 43.5-23t21.5-46q0-88-66-290 112 210 141 249t50 63q39 43 79 43 24 0 57.5-41.5t33.5-83.5-12-104q118 229 214 229z"/></svg>