<svg width="102.38" height="21.52" viewBox="0 0 102.38 21.52" xmlns="http://www.w3.org/2000/svg"><path transform="translate(0 16.72) scale(.016 -.016)" d="m617-15q-26 0-48.5 13.5t-45.5 45.5-52 87q-18 35-37.5 65t-42 56-50 48.5-60.5 43.5h-51v-321l61-13v-10h-237v10l61 13v662l-61 13v10h176v-350q16 0 31 1t30 2q31 3 59 20t52.5 43.5 44.5 56.5q17 28 29.5 56.5t19 54.5 6.5 46q0 27-18 43.5t-55 16.5v10h240v-10l-59-13q0-33-12-69.5t-32.5-73.5-49.5-69q-29-33-63.5-58t-67-41-60.5-20v-5q46-2 81.5-12t63.5-29.5 50-50 42-73.5q26-58 45-92.5t36-52 33-22.5q10-3 21 0v-10q-13-10-27-14.5t-27.5-6-25.5-1.5zm-141 711q19-6 28.5-22t9.5-36q0-22-7-49.5t-20-56.5-30-56q-24-38-52.5-65t-61.5-42q41 11 84.5 40t80.5 72q42 49 67 105t23 110zm-148-360q33-28 59.5-58.5t49.5-65 44-75.5q27-52 49-82.5t43.5-44 43.5-13.5q41 0 61 12-2 0-6 1t-8 2q-16 6-33 24.5t-36.5 53.5-43.5 89q-23 52-51.5 85t-66.5 50.5-91 21.5zm-201-324h92v684h-92z"/><path transform="translate(11.328 16.72) scale(.016 -.016)" d="m315 515q58 0 99.5-13.5t68.5-41.5 39-70.5 12-100.5v-254q0-15 6.5-22t17.5-7q12 0 27.5 7t30.5 18v-11q-12-11-28.5-19t-34.5-12-35-4q-44 0-69 23.5t-25 76.5q0 20 0 29.5t0 14.5 0 11l-8 6q-19-38-45.5-68t-59-50.5-66.5-31.5-68-11q-37 0-67 12.5t-48 37-18 60.5q0 85 97 129.5t283 44.5q0 85-13 134.5t-45 71.5-88 22q-37 0-65.5-6.5t-44-15.5-15.5-16q0-5 9.5-10.5t34.5-15.5q46-18 46-51 0-30-26-45.5t-63-15.5q-36 0-61.5 16t-25.5 46q0 24 20.5 47.5t55 42.5 79 30.5 93.5 11.5zm109-258q-95 0-157-20.5t-92-55.5-30-78q0-26 10.5-42.5t28.5-24.5 41-8q25 0 53.5 9.5t56.5 29.5 51.5 50.5 37.5 72.5zm-247-260q37 0 73.5 12.5t66.5 34.5q-24-13-49-20t-48-7q-29 0-49 11t-29.5 31-9.5 44q0 57 47 96.5t129 53.5q-119-11-185.5-52.5t-66.5-105.5q0-30 14.5-52t42-34 64.5-12zm155 506q23-6 41-18t30-32q17-26 25.5-66.5t8.5-97.5v-212q0-25 10.5-41t27-24.5 32.5-10.5q8-2 16-2t15 1q-9 5-12.5 13.5t-3.5 23.5v252q0 64-17.5 108t-52.5 70q-18 12-38.5 19.5t-41.5 11-40 5.5zm-178-169q35 0 55.5 13.5t20.5 34.5q0 19-15.5 28.5t-33.5 16.5q-10 3-20 8t-13 11q-7 8-4 15-19-10-33.5-23.5t-23-27.5-8.5-27q0-22 20.5-35.5t54.5-13.5z"/><path transform="translate(21.504 16.72) scale(.016 -.016)" d="m210 20 55-10v-10h-221v10l56 10v680h-62v11l172 34zm-99-8h87v718l-87-13z"/><path transform="translate(26.272 16.72) scale(.016 -.016)" d="m645 10v-10h-228v10l57 10v334q0 60-21 90t-61 30q-27 0-53.5-17t-51-44-44.5-58-33-59v-276l57-10v-10h-222v10l55 10v450h-61v11l171 34v-164l8-7q28 52 61.5 90.5t74 59.5 86.5 21q40 0 67-12.5t44-35.5 25-55 8-73v-319zm-533 2h87v488l-87-13zm373 0h87v327q0 55-13.5 91.5t-42.5 54.5-76 18q-39 0-76.5-17t-72.5-54q28 27 56.5 39t54.5 11q43-4 63-36t20-92z"/><path transform="translate(37.024 16.72) scale(.016 -.016)" d="m149 596q-26 0-46 8t-31 22-11 32q0 19 11 32.5t31 21.5 46 8 46-8 31.5-21.5 11.5-32.5q0-18-11.5-32t-31.5-22-46-8zm-105-596v10l56 10v450h-62v11l172 34v-495l55-10v-10zm67 12h87v488l-87-13zm38 598q22 0 38.5 6t26 17 9.5 25-9.5 25-26 17-38.5 6q-21 0-38-6t-27-17-10-25 10-25 27-17 38-6z"/><path transform="translate(41.968 16.72) scale(.016 -.016)" d="m315 515q58 0 99.5-13.5t68.5-41.5 39-70.5 12-100.5v-254q0-15 6.5-22t17.5-7q12 0 27.5 7t30.5 18v-11q-12-11-28.5-19t-34.5-12-35-4q-44 0-69 23.5t-25 76.5q0 20 0 29.5t0 14.5 0 11l-8 6q-19-38-45.5-68t-59-50.5-66.5-31.5-68-11q-37 0-67 12.5t-48 37-18 60.5q0 85 97 129.5t283 44.5q0 85-13 134.5t-45 71.5-88 22q-37 0-65.5-6.5t-44-15.5-15.5-16q0-5 9.5-10.5t34.5-15.5q46-18 46-51 0-30-26-45.5t-63-15.5q-36 0-61.5 16t-25.5 46q0 24 20.5 47.5t55 42.5 79 30.5 93.5 11.5zm109-258q-95 0-157-20.5t-92-55.5-30-78q0-26 10.5-42.5t28.5-24.5 41-8q25 0 53.5 9.5t56.5 29.5 51.5 50.5 37.5 72.5zm-247-260q37 0 73.5 12.5t66.5 34.5q-24-13-49-20t-48-7q-29 0-49 11t-29.5 31-9.5 44q0 57 47 96.5t129 53.5q-119-11-185.5-52.5t-66.5-105.5q0-30 14.5-52t42-34 64.5-12zm155 506q23-6 41-18t30-32q17-26 25.5-66.5t8.5-97.5v-212q0-25 10.5-41t27-24.5 32.5-10.5q8-2 16-2t15 1q-9 5-12.5 13.5t-3.5 23.5v252q0 64-17.5 108t-52.5 70q-18 12-38.5 19.5t-41.5 11-40 5.5zm-178-169q35 0 55.5 13.5t20.5 34.5q0 19-15.5 28.5t-33.5 16.5q-10 3-20 8t-13 11q-7 8-4 15-19-10-33.5-23.5t-23-27.5-8.5-27q0-22 20.5-35.5t54.5-13.5z"/><path transform="translate(56.944 16.72) scale(.016 -.016)" d="m440 296v10h229v-224q-27-26-60.5-44t-70-29.5-73-17.5-70.5-6q-59 0-111 16.5t-93.5 48-71 77.5-45.5 104.5-16 130.5q0 82 24.5 148.5t69 114 107 73 139.5 25.5q44 0 83-6.5t74-18.5 65-28 55-35l-53-251h-17l-15 123q-7 55-25 94t-45.5 62.5-64 34.5-79.5 11q-46 0-83.5-24t-64.5-67-41.5-100-14.5-123q0-57 10.5-114t30.5-107.5 51-89.5 73-61.5 93-22.5q28 0 59.5 6.5t65.5 20.5v250zm-87-294q-59 21-102.5 75.5t-67 136-23.5 181.5q0 66 14 124t39.5 101.5 60.5 65.5q-96-33-150-117.5t-54-206.5q0-79 20-142.5t57-109.5 89.5-73.5 116.5-34.5zm213 33q30 6 53 19t39 33v207h-92zm48 368 46 226q-17 12-38 23t-44 20.5-47 16.5-50 11q34-12 60.5-40.5t43.5-68.5 22-88z"/><path transform="translate(68.88 16.72) scale(.016 -.016)" d="m210 20 55-10v-10h-221v10l56 10v680h-62v11l172 34zm-99-8h87v718l-87-13z"/><path transform="translate(73.648 16.72) scale(.016 -.016)" d="m315 515q58 0 99.5-13.5t68.5-41.5 39-70.5 12-100.5v-254q0-15 6.5-22t17.5-7q12 0 27.5 7t30.5 18v-11q-12-11-28.5-19t-34.5-12-35-4q-44 0-69 23.5t-25 76.5q0 20 0 29.5t0 14.5 0 11l-8 6q-19-38-45.5-68t-59-50.5-66.5-31.5-68-11q-37 0-67 12.5t-48 37-18 60.5q0 85 97 129.5t283 44.5q0 85-13 134.5t-45 71.5-88 22q-37 0-65.5-6.5t-44-15.5-15.5-16q0-5 9.5-10.5t34.5-15.5q46-18 46-51 0-30-26-45.5t-63-15.5q-36 0-61.5 16t-25.5 46q0 24 20.5 47.5t55 42.5 79 30.5 93.5 11.5zm109-258q-95 0-157-20.5t-92-55.5-30-78q0-26 10.5-42.5t28.5-24.5 41-8q25 0 53.5 9.5t56.5 29.5 51.5 50.5 37.5 72.5zm-247-260q37 0 73.5 12.5t66.5 34.5q-24-13-49-20t-48-7q-29 0-49 11t-29.5 31-9.5 44q0 57 47 96.5t129 53.5q-119-11-185.5-52.5t-66.5-105.5q0-30 14.5-52t42-34 64.5-12zm155 506q23-6 41-18t30-32q17-26 25.5-66.5t8.5-97.5v-212q0-25 10.5-41t27-24.5 32.5-10.5q8-2 16-2t15 1q-9 5-12.5 13.5t-3.5 23.5v252q0 64-17.5 108t-52.5 70q-18 12-38.5 19.5t-41.5 11-40 5.5zm-178-169q35 0 55.5 13.5t20.5 34.5q0 19-15.5 28.5t-33.5 16.5q-10 3-20 8t-13 11q-7 8-4 15-19-10-33.5-23.5t-23-27.5-8.5-27q0-22 20.5-35.5t54.5-13.5z"/><path transform="translate(83.824 16.72) scale(.016 -.016)" d="m34 0 350 485h-170q-47 0-76.5-23.5t-32.5-80.5l-3-81h-10l-40 200h467l-352-485h195q37 0 61.5 22t27.5 77l9 73h10l47-187zm65 325-3 57q0 33 8 54t22 34 31 18h-91zm-43-313h94l346 476h-94zm351 0h96l-38 150-2-50q-1-48-16.5-70t-39.5-30z"/><path transform="translate(92.736 16.72) scale(.016 -.016)" d="m312 515q80 0 132.5-32t79-86.5 26.5-124.5h-395v10l293 11q0 66-15 112.5t-45 71.5-76 25q-47 0-82-27t-54-81-19-134q0-47 13-89.5t37-76 59-52.5 80-19q30 0 59 8t54 23.5 45.5 38 35.5 52.5l10-10q-22-44-50-73t-61-46-68-24-71-7q-60 0-107 21t-80 56.5-50.5 82.5-17.5 100q0 61 20 110.5t55.5 85.5 84.5 55 107 19zm-255-270q0-72 31.5-128t86.5-88 125-32q41 0 71.5 6.5t56.5 21.5q-16-7-37-10.5t-45-3.5q-48 0-85.5 20.5t-63 55.5-38.5 80-13 93q0 80 19.5 136.5t56.5 86.5q-50-16-87.5-49t-57.5-80.5-20-108.5zm403 38h79q0 51-16 90.5t-46.5 67.5-74.5 42q27-27 42.5-74t15.5-126z"/></svg>