<svg width="37.6" height="18.704" viewBox="0 0 37.6 18.704" xmlns="http://www.w3.org/2000/svg"><path transform="translate(0 14.672) scale(.008 -.008)" d="M924 1256H1140L338 430V650ZM564 726 1174 0H970L452 624ZM202 1256H360V0H202Z"/><path transform="translate(9.72 14.672) scale(.008 -.008)" d="m794 0-20 210v410q0 129-55 185.5t-165 56.5q-62 0-112.5-18t-80-55.5-29.5-96.5h-174q0 104 51 167.5t140.5 92 204.5 28.5q110 0 195-37t133-117.5 48-209.5v-616zm-326-24q-118 0-195 42t-115 109-38 141q0 97 48.5 158t132.5 89.5 189 28.5q75 0 150.5-15t147.5-41v-98q-60 24-135.5 38t-138.5 14q-96 0-162-39.5t-66-134.5q0-70 50.5-120t161.5-50q78 0 140.5 36.5t99 91.5 36.5 110h38q0-96-41.5-178t-118.5-132-184-50z"/><path transform="translate(18.528 14.672) scale(.008 -.008)" d="m202 0v958h156v-958zm108 432q0 182 35 302.5t102.5 180 164.5 59.5q32 0 58.5-4.5t53.5-13.5l-10-154q-28 9-61 15.5t-59 6.5q-85 0-137-48.5t-75.5-136.5-23.5-207z"/><path transform="translate(24.312 14.672) scale(.008 -.008)" d="M202 0V1364H358V0Z"/><path transform="translate(28.792 14.672) scale(.008 -.008)" d="m794 0-20 210v410q0 129-55 185.5t-165 56.5q-62 0-112.5-18t-80-55.5-29.5-96.5h-174q0 104 51 167.5t140.5 92 204.5 28.5q110 0 195-37t133-117.5 48-209.5v-616zm-326-24q-118 0-195 42t-115 109-38 141q0 97 48.5 158t132.5 89.5 189 28.5q75 0 150.5-15t147.5-41v-98q-60 24-135.5 38t-138.5 14q-96 0-162-39.5t-66-134.5q0-70 50.5-120t161.5-50q78 0 140.5 36.5t99 91.5 36.5 110h38q0-96-41.5-178t-118.5-132-184-50z"/></svg>