<svg width="39.088" height="16" viewBox="0 0 39.088 16" xmlns="http://www.w3.org/2000/svg"><path transform="translate(0 7.84) scale(.016 -.016)" d="m469 34q-22-23-45-33t-51-10q-39 0-60 19.5t-40 69.5l-38 98q-12 27-23 39.5t-36 12.5v-108q0-46 7.5-65.5t35.5-44.5l-7-12h-180l-7 18q25 7 36 13.5t15 17.5 4 34v260q0 48-7.5 67.5t-35.5 43.5l8 13h174l7-16q-32-17-41-32t-9-51v-124h3l119 135q9 11 12.5 19.5t4.5 19.5q0 7-8 27l-6 11 13 11h118l6-18-23-7q-28-12-53-40l-140-160q52-4 82-21.5t44-51.5l46-116q5-13 12-18.5t18-5.5q16 0 37 16z"/><path transform="translate(7.264 7.84) scale(.016 -.016)" d="m88 209q-21 0-33 12.5t-12 35.5q0 34 33.5 54.5t87.5 20.5q64 0 100.5-28t36.5-76v-173q0-28 20-28 19 0 37 15l8-10q-37-41-88-41-30 0-45.5 15t-18.5 47h-4q-16-29-42.5-45.5t-60.5-16.5q-38 0-61 23.5t-23 61.5q0 43 41 68t111 25q13 0 37-2v50q0 49-12 70.5t-39 21.5q-19 0-30-12t-11-31q0-30 18-45-21-12-50-12zm124-61q-50 0-75-16.5t-25-46.5q0-20 11-32t30-12q59 0 59 107z"/><path transform="translate(13.104 7.84) scale(.016 -.016)" d="m57 70v212h-50q0 17 2 22t12 8q33 9 52 28t31 55q3 11 10 13.5t34 2.5v-90h82q0-13-4-23.5t-11-15.5h-67v-225q0-30 25-30 11 0 24.5 7t24.5 19l8-10q-43-52-96-52-41 0-59 18.5t-18 60.5z"/><path transform="translate(16.896 7.84) scale(.016 -.016)" d="m168 27q19 0 37 15l8-10q-37-41-87-41-36 0-52 18.5t-16 60.5v198q0 14-13 14h-31l-3 11q20 17 50 28t60 11q12 0 20-6t8-16v-253q0-30 19-30zm-63 463q18 0 38.5-22t20.5-40q0-19-20.5-40.5t-38.5-21.5q-17 0-37 21.5t-20 40.5q0 18 20 40t37 22z"/><path transform="translate(20.288 7.84) scale(.016 -.016)" d="m371 174q0-52-24.5-93.5t-67.5-65.5-96-24q-36 0-72 11t-59 30v395q0 8-3 11t-10 3h-31l-3 10q19 18 49.5 28.5t60.5 10.5q13 0 20.5-5.5t7.5-15.5v-168q15 15 37.5 23t48.5 8q40 0 72.5-20.5t51-56.5 18.5-81zm-100-17q0 71-20.5 108.5t-60.5 37.5q-25 0-47-15v-264q22-10 45-10 83 0 83 143z"/><path transform="translate(26.608 7.84) scale(.016 -.016)" d="m308 70 12-9q-23-33-58.5-51.5t-77.5-18.5q-46 0-82.5 22t-57.5 60.5-21 87.5q0 78 47.5 124.5t126.5 46.5q56 0 91.5-26.5t35.5-68.5q0-48-40.5-76.5t-110.5-28.5q-28 0-51 4 5-52 30-82t62-30q29 0 51 10.5t43 35.5zm-188 96v-16q11 0 27 2 42 5 64.5 27.5t22.5 59.5q0 30-13.5 49.5t-34.5 19.5q-31 0-48.5-37.5t-17.5-104.5z"/><path transform="translate(32.128 7.84) scale(.016 -.016)" d="m383 27q19 0 37 15l8-10q-37-41-87-41-36 0-51.5 18.5t-15.5 60.5v153q0 58-37 58-36 0-58-49t-22-128q0-31 4.5-49.5t15.5-34.5l8-10-8-10h-145l-6 17 14 3q16 4 21 12.5t5 33.5v357q0 8-3.5 13t-9.5 5h-31l-4 10q19 18 49.5 28.5t60.5 10.5q13 0 21-5.5t8-15.5v-247q14 47 49.5 78.5t75.5 31.5q43 0 62.5-28t19.5-89v-158q0-30 19-30z"/></svg>