<svg width="105.53" height="21.644" viewBox="0 0 105.53 21.644" xmlns="http://www.w3.org/2000/svg"><path transform="translate(0 16.044) scale(.014 -.014)" d="m93 0v793h126v-338h163q7 0 9 3.5t5 10.5l137 324h126l-124-287q-19-44-33.5-68.5t-39.5-36.5q28-11 44.5-36t38.5-70l144-295h-134l-159 333q-3 7-5 10t-10 3h-162v-346z"/><path transform="translate(9.744 16.044) scale(.014 -.014)" d="m499 842v-842h-107l-12 70q-8-39-34.5-59t-75.5-20h-70q-75 0-109.5 29.5t-34.5 105.5v347q0 80 36.5 111.5t121.5 30.5l163-1v228zm-310-753h175q13 0 13 14v413l-188 2q-13 0-13-14v-401q0-14 13-14z"/><path transform="translate(17.738 16.044) scale(.014 -.014)" d="m181-9q-75 0-109.5 29.5t-34.5 105.5v90q0 80 36.5 111.5t121.5 31.5h157v139q0 13-13 13l-265-1v103h238q86 1 124-32.5t38-116.5v-464h-109l-10 69q-8-39-34.5-58.5t-75.5-19.5zm171 98v182h-182q-13 0-13-13v-155q0-14 13-14z"/><path transform="translate(25.172 16.044) scale(.014 -.014)" d="m345 621q59 0 93-18t46-61q18 79 114 79h56q76 0 110.5-30t34.5-106v-485h-121v509q0 14-13 14h-161q-13 0-13-14l-1-4q1-10 1-20v-485h-122v509q0 14-13 14h-163q-13 0-13-14l2-509h-122l-1 612h108l9-62q20 71 111 71z"/><path transform="translate(40.362 16.044) scale(.014 -.014)" d="M199 0V684H6V793H517V684H325V0Z"/><path transform="translate(47.712 16.044) scale(.014 -.014)" d="m362 621q76 0 111-30t35-106v-485h-122v509q0 14-13 14h-175q-13 0-13-14l1-509h-121l-1 842h121v-278q24 57 107 57z"/><path transform="translate(55.622 16.044) scale(.014 -.014)" d="m345 621q59 0 93-18t46-61q18 79 114 79h56q76 0 110.5-30t34.5-106v-485h-121v509q0 14-13 14h-161q-13 0-13-14l-1-4q1-10 1-20v-485h-122v509q0 14-13 14h-163q-13 0-13-14l2-509h-122l-1 612h108l9-62q20 71 111 71z"/><path transform="translate(67.536 16.044) scale(.014 -.014)" d="m56 469q0 83 40 117.5t131 34.5h109q92 0 132-34.5t40-117.5v-326q0-83-40-117.5t-132-34.5h-109q-91 0-131 34.5t-40 117.5zm136 51q-14 0-14-14v-400q0-14 14-14h181q13 0 13 14v400q0 14-13 14z"/><path transform="translate(75.432 16.044) scale(.014 -.014)" d="m354 621v-98h-151q-14 0-14-14l1-509h-120l-2 612h108l9-62q20 71 111 71z"/><path transform="translate(83.65 16.044) scale(.014 -.014)" d="m90 0v793l335 5q93 2 140-41.5t47-128.5v-162q0-80-47-126.5t-140-46.5h-209v-293zm377 688h-251v-286h251q16 0 16 16v254q0 16-16 16z"/><path transform="translate(92.694 16.044) scale(.014 -.014)" d="m354 621v-98h-151q-14 0-14-14l1-509h-120l-2 612h108l9-62q20 71 111 71z"/><path transform="translate(97.636 16.044) scale(.014 -.014)" d="m56 469q0 83 40 117.5t131 34.5h109q92 0 132-34.5t40-117.5v-326q0-83-40-117.5t-132-34.5h-109q-91 0-131 34.5t-40 117.5zm136 51q-14 0-14-14v-400q0-14 14-14h181q13 0 13 14v400q0 14-13 14z"/></svg>