<svg width="68.488" height="17.038" viewBox="0 0 68.488 17.038" xmlns="http://www.w3.org/2000/svg"><path transform="translate(0 13.846) scale(.014 -.014)" d="m71 723h105q34 0 44.5-11t10.5-46v-666h-105q-34 0-44.5 11t-10.5 46zm268-424h114q30 0 43-16.5t13-53.5v-229h-134q-16 0-26 11t-10 29zm3 424h115q29 0 37-11t8-46v-212q0-60-21.5-89.5t-86.5-29.5h-123v95h44q18 0 22.5 6.5t4.5 22.5z"/><path transform="translate(7.98 13.846) scale(.014 -.014)" d="m206 0h-2q-99 0-122 34-11 16-17.5 31t-8.5 47q-5 58-5 129t1 102.5 6.5 64 14.5 47 27 26.5 42 15.5 62 3.5h2zm266 158v-51q0-107-109-107h-126v75h54q21 0 26 6.5t5 23.5v32q0 15 3.5 17t4.5 2.5 5.5 1 6.5 0.5q65 0 130 0zm-235 342h116q69 0 94-27t25-80v-88q0-90-98-90h-147v75h54q24 0 32.5 6t8.5 23v76q0 17-5 23.5t-26 6.5h-54z"/><path transform="translate(15.26 13.846) scale(.014 -.014)" d="m301 425h-54q-31 0-35-11-6-13-6-37v-254q0-2 0-12t2-17q4-19 39-19h54v-75h-97q-38 0-62 3.5t-42 15.5-27 26.5-15 46.5q-7 45-7 126t1 109.5 3.5 60.5 9 47 17 30.5 27.5 21.5q37 13 95 13h97zm225-418q0-7-4-7h-82q-56 0-82.5 26t-26.5 85v389h41q63 0 86-29.5t23-77.5v-280q0-31 13-35 7-3 19-3h5q8 0 8-7z"/><path transform="translate(22.918 13.846) scale(.014 -.014)" d="m233 500h140q109 0 109-107v-393h-114q-16 0-26 11t-10 29v355q0 16-7.5 23t-33.5 7h-58zm-175 0h61q44 0 66.5-21.5t22.5-55.5v-423h-114q-16 0-26 11t-10 29z"/><path transform="translate(30.45 13.846) scale(.014 -.014)" d="m58 499h61q44 0 66.5-21.5t22.5-55.5v-422h-114q-16 0-26 11t-10 29zm7 213.5q11 10.5 64 10.5t64-10.5 11-60.5-11.5-61-63.5-11-63.5 11-11.5 61 11 60.5z"/><path transform="translate(34.16 13.846) scale(.014 -.014)" d="m301 425h-54q-31 0-35-11-6-13-6-37v-254q0-2 0-12t2-17q4-19 39-19h54v-75h-97q-38 0-62 3.5t-42 15.5-27 26.5-15 46.5q-7 45-7 126t1 109.5 3.5 60.5 9 47 17 30.5 27.5 21.5q37 13 95 13h97zm225-418q0-7-4-7h-82q-56 0-82.5 26t-26.5 85v389h41q63 0 86-29.5t23-77.5v-280q0-31 13-35 7-3 19-3h5q8 0 8-7z"/><path transform="translate(44.702 13.846) scale(.014 -.014)" d="m243 723v-599q0-15 7.5-22t33.5-7h74v-95h-127q-40 0-66.5 6t-46 24.5-30 41.5-16.5 69q-9 69-9 185.5t1.5 164.5 7.5 93.5 16.5 68 30 41 46 24 66.5 5.5zm40-1h127q40 0 66.5-6t46-24.5 30-41.5 16.5-69q9-69 9-185.5t-1.5-164.5-7.5-93.5-16.5-68-30-41-46-24-66.5-5.5h-12v599q0 15-7.5 22t-33.5 7h-74z"/><path transform="translate(53.676 13.846) scale(.014 -.014)" d="m233 500h140q109 0 109-107v-393h-114q-16 0-26 11t-10 29v355q0 16-7.5 23t-33.5 7h-58zm-175 0h61q44 0 66.5-21.5t22.5-55.5v-423h-114q-16 0-26 11t-10 29z"/><path transform="translate(61.208 13.846) scale(.014 -.014)" d="m206 0h-2q-99 0-122 34-11 16-17.5 31t-8.5 47q-5 58-5 129t1 102.5 6.5 64 14.5 47 27 26.5 42 15.5 62 3.5h2zm266 158v-51q0-107-109-107h-126v75h54q21 0 26 6.5t5 23.5v32q0 15 3.5 17t4.5 2.5 5.5 1 6.5 0.5q65 0 130 0zm-235 342h116q69 0 94-27t25-80v-88q0-90-98-90h-147v75h54q24 0 32.5 6t8.5 23v76q0 17-5 23.5t-26 6.5h-54z"/></svg>