<svg width="74.4" height="20" viewBox="0 0 74.4 20" xmlns="http://www.w3.org/2000/svg"><path transform="translate(0 16) scale(.016 -.016)" d="M95 0V679H166V323H169L470 679H551L337 423L582 0H503L291 368L166 222V0Z"/><path transform="translate(9.424 16) scale(.016 -.016)" d="m285-12q-65 0-119 31t-85.5 89.5-31.5 140.5q0 81 32 140t83 91 107 32q93 0 145-62.5t52-171.5q0-11-1-22.5t-3-20.5h-345q3-85 50.5-138t123.5-53q38 0 69.5 11t59.5 30l26-47q-32-20-71-35t-92-15zm-167 298h287q0 83-35.5 126t-97.5 43q-37 0-70.5-20t-56-57.5-27.5-91.5z"/><path transform="translate(17.52 16) scale(.016 -.016)" d="m257-12q-94 0-150.5 67.5t-56.5 193.5q0 81 30.5 140t80.5 91 108 32q44 0 77-15.5t67-44.5l-3 89v198h69v-739h-57l-7 61h-2q-30-30-69.5-51.5t-86.5-21.5zm14 58q37 0 71 18.5t68 55.5v276q-35 31-66.5 44t-64.5 13q-44 0-79.5-26t-56.5-72-21-106q0-94 39-148.5t110-54.5z"/><path transform="translate(26.608 16) scale(.016 -.016)" d="m285-12q-65 0-119 31t-85.5 89.5-31.5 140.5q0 81 32 140t83 91 107 32q93 0 145-62.5t52-171.5q0-11-1-22.5t-3-20.5h-345q3-85 50.5-138t123.5-53q38 0 69.5 11t59.5 30l26-47q-32-20-71-35t-92-15zm-167 298h287q0 83-35.5 126t-97.5 43q-37 0-70.5-20t-56-57.5-27.5-91.5z"/><path transform="translate(34.704 16) scale(.016 -.016)" d="m299-12q-35 0-73 16.5t-72 46.5h-3l-7-51h-56v739h70v-208l-3-92q36 30 78 51.5t85 21.5q98 0 148.5-69.5t50.5-185.5q0-85-30.5-145t-80-92-107.5-32zm-9 58q68 0 111.5 57t43.5 153q0 87-32.5 142t-109.5 55q-34 0-70.5-19t-74.5-55v-276q36-31 71-44t61-13z"/><path transform="translate(43.776 16) scale(.016 -.016)" d="m88 0v499h70v-499zm36 609q-22 0-37 14t-15 35q0 23 15 36.5t37 13.5 37-13.5 15-36.5q0-21-15-35t-37-14z"/><path transform="translate(47.728 16) scale(.016 -.016)" d="m257-12q-94 0-150.5 67.5t-56.5 193.5q0 81 30.5 140t80.5 91 108 32q44 0 77-15.5t67-44.5l-3 89v198h69v-739h-57l-7 61h-2q-30-30-69.5-51.5t-86.5-21.5zm14 58q37 0 71 18.5t68 55.5v276q-35 31-66.5 44t-64.5 13q-44 0-79.5-26t-56.5-72-21-106q0-94 39-148.5t110-54.5z"/><path transform="translate(56.816 16) scale(.016 -.016)" d="m285-12q-65 0-119 31t-85.5 89.5-31.5 140.5q0 81 32 140t83 91 107 32q93 0 145-62.5t52-171.5q0-11-1-22.5t-3-20.5h-345q3-85 50.5-138t123.5-53q38 0 69.5 11t59.5 30l26-47q-32-20-71-35t-92-15zm-167 298h287q0 83-35.5 126t-97.5 43q-37 0-70.5-20t-56-57.5-27.5-91.5z"/><path transform="translate(64.912 16) scale(.016 -.016)" d="m88 0v499h58l6-92h3q26 47 62.5 76t79.5 29q30 0 52-11l-14-61q-13 5-22.5 6.5t-24.5 1.5q-32 0-68-26.5t-62-93.5v-328z"/><path transform="translate(70.448 16) scale(.016 -.016)" d="m88 0v499h70v-499zm36 609q-22 0-37 14t-15 35q0 23 15 36.5t37 13.5 37-13.5 15-36.5q0-21-15-35t-37-14z"/></svg>