<svg width="61.978" height="16.968" viewBox="0 0 61.978 16.968" xmlns="http://www.w3.org/2000/svg"><path transform="translate(0 13.468) scale(.014 -.014)" d="M575 68V0H461L210 373V68H275V0H65V68H128V682H65V750H275V682H206V403L461 750H569V682H502L294 390L511 68Z"/><path transform="translate(8.47 13.468) scale(.014 -.014)" d="m50 402q0 99 103 99h169q49 0 71-19t22-70v-93l-285-180v-71h206v58h79v-53q0-30-18.5-51.5t-61.5-21.5h-205q-43 0-61.5 21.5t-18.5 51.5zm80-182 205 129v83h-205z"/><path transform="translate(14.98 13.468) scale(.014 -.014)" d="M195 68H260V0H50V68H113V682H50V750H195Z"/><path transform="translate(19.32 13.468) scale(.014 -.014)" d="M195 68H260V0H50V68H113V682H50V750H195Z"/><path transform="translate(23.66 13.468) scale(.014 -.014)" d="m465 500v-633q0-42-20.5-64t-71.5-22h-231v136h68v-67h173v263l-176-109q-23-14-46-14t-40 15.5-17 49.5v377h-64v68h145v-431l199 125v238h-49v68z"/><path transform="translate(35.77 13.468) scale(.014 -.014)" d="m388 367q20-14 37.5-24.5t30.5-22.5q26-24 26-59v-170q0-45-32-69-27-22-71-22h-319v185h72v-117h270v195l-262 161q-35 20-57.5 41.5t-22.5 58.5v126q0 59 28 81 24 19 83 19h302v-185h-72v117h-261v-160z"/><path transform="translate(43.358 13.468) scale(.014 -.014)" d="M195 68H260V0H50V68H113V682H50V750H195Z"/><path transform="translate(47.698 13.468) scale(.014 -.014)" d="m453 68v-68h-348q-51 0-69 20-16 18-16 68v37q0 36 9 49 13 19 59 47l220 137v74h-196v-58h-64v126h250q51 0 71.5-22t20.5-64v-346zm-145 210-208-130v-80h208z"/><path transform="translate(54.6 13.468) scale(.014 -.014)" d="m355 496q22 14 51.5 14t50-22 20.5-64v-336q0-41-13-58-24-30-73-30h-351v68h63v614h-63v68h145v-361zm42-54-212-133v-241h212z"/></svg>