<svg width="36.448" height="22.4" viewBox="0 0 36.448 22.4" xmlns="http://www.w3.org/2000/svg"><path transform="translate(0 15.2) scale(.016 -.016)" d="m652-41q-13 0-26 3.5t-25 10.5q-38 24-71.5 65t-60 88.5-45 91.5-27.5 74q-17-19-39.5-36.5t-38.5-34.5q-8-43-15.5-85t-10.5-63q-2-19 8.5-28.5t19.5-11.5q10-1 33.5-2t46.5-1.5 30-0.5h1q4 0 4-3 0-4-5-9t-10-4q-32 2-74 3t-83 1q-21 0-39.5 0t-35.5-1q-15 0-44-1t-64-1.5-67-0.5h-1q-3 0-3 3 0 4 5 9.5t9 4.5q24 0 43-0.5t34-0.5q36 0 53 7.5t27 31.5 24 74q32 109 52 209.5t38 209.5q3 20-7 34.5t-24 16.5q-10 2-33.5 3t-46 1.5-30.5-0.5q-6 0-6 4t5 8.5 11 4.5q39 0 91-2t98-2q12 0 22.5 0t20.5 1q20 1 51 1t68 2q5 0 5-4t-3.5-8-7.5-4q-7 0-15.5 1t-24.5 1q-34 0-49.5-19.5t-32.5-69.5q-6-19-16-59t-20.5-91.5-21.5-105.5q53 55 107 113t106 115q32 33 43.5 54.5t11.5 34.5q0 18-15 22t-22 4h-4q-6 0-6 5 0 4 4.5 7.5t13.5 3.5q7 0 28-1t45.5-2.5 39.5-1.5q30 0 65.5 2t83.5 2h1q3 0 3-3 0-4-5-9.5t-9-4.5q-38 2-63.5-5t-47.5-22.5-52-40.5q-17-14-45-40.5t-60.5-57.5-63-61-51-52-25.5-30q11-17 40-48t67-67.5 76.5-71 69.5-60.5 45-34q14-9 31.5-16.5t24.5-9.5q6-3 6-8 0-7-8-7-4 0-10 3-8 4-15 4-8 0-12.5-4.5t-9.5-7.5q-28-20-65-20z"/><path transform="translate(11.984 15.2) scale(.016 -.016)" d="m169 468q-12 0-23.5 3.5t-25.5 10.5l42 56q8-4 22-4 22 0 50 9.5t51 25.5q8 13 18 13 6 0 6-6 0-4-6-13t-22.5-23.5-35-30-31.5-26-13-10.5q-9-2-16.5-3.5t-15.5-1.5zm-157-478q-1 5-1 11.5t0 13.5q0 31 4.5 74t13 89 18.5 84q20 68 44 104t69 52q5 2 18.5 6.5t28.5 10.5 26 10 11 4l4-9-27-12q-18-8-37-32.5t-35-57-25-65.5q-10-40-19-83.5t-13-81.5q32 47 74.5 95.5t83.5 75.5l7-10q-25-15-51.5-48t-51-71-41.5-71-22-50z"/><path transform="translate(16.064 15.2) scale(.016 -.016)" d="m36-10q9 57 22.5 119.5t23.5 119.5q8 43 13.5 80t5.5 62q0 8 0 15t-2 12q0 0-19.5-6t-49.5-24l6 20q19 11 44.5 26t50.5 30.5 41 27.5q5-7 6.5-19t1.5-28q0-27-4.5-62.5t-11.5-76.5q-4-28-10-56t-11-57q18 33 46 69.5t61 71.5 67.5 64 65.5 47q24 13 56 25t57 22l5-9-15-6q-24-10-44-39.5t-36.5-70.5-29-86-20.5-85.5-12-67.5q32 47 75 96t84 76l8-10q-18-11-44.5-40t-53.5-66-47-73-23-61l-79-40q-1 6-1 12.5t0 13.5q0 36 7.5 84.5t19 99.5 26 97 27.5 77q-20-16-47.5-45.5t-57-67.5-56-79.5-44.5-82-23-73.5z"/><path transform="translate(23.824 15.2) scale(.016 -.016)" d="m371 424q-27 0-53.5 6t-53.5 6q-18 0-33-4l-4 11 69 25q14 3 28 3t29-2 28-4q13-1 26.5-2.5t27.5-1.5q11 0 21.5 1.5t21.5 3.5l5-7-87-33q-7-1-13-1.5t-12-0.5zm-366-434q-1 5-1 11.5t0 13.5q0 31 4.5 74t13 89 18.5 84q20 69 46.5 104.5t72.5 51.5q9 3 29.5 11t36.5 13q0 0 2.5-5t-1.5-7l-29-14q-12-6-26.5-27.5t-27-52-21.5-63.5q-8-32-15.5-67t-12.5-68q0-2 2-2 5 0 13 4t9 5q11 7 26.5 18.5t31.5 26.5q33 30 62 67.5t35 71.5q0 2 6.5 1.5t6.5-0.5q-7-44-39-85t-67-79q-16-17-32.5-34.5t-30.5-37.5q-13-17-20.5-33t-7.5-31zm43-188q-2 7 1 12l35 3q14 1 39 17.5t50 43.5 38 59q8 18 11.5 31t7 32 9.5 54q6 34 14 75t16.5 82 16.5 72q14 55 29 79t46 34q7 2 28 9.5t43.5 16 32.5 11.5q0 0 2.5-5t-1.5-7l-42-23q-10-6-20.5-14t-15.5-18q-21-36-31-87t-21-122q-6-35-11.5-69t-10.5-63q-5-28-11-52.5t-14-40.5q-7-15-25-35t-42.5-40-51-34.5-50.5-17.5q-10-1-32.5-2.5t-39.5-0.5zm-24-22q-32 0-56 5.5t-50 15.5q-19 6-19 17 0 6 3 13 5 11 14.5 24t19.5 26q8 9 15 18t13 17q12 16 16 33l8-16q-24-36-24-67 0-32 27.5-52.5t79.5-19.5v-11q-25-3-47-3z"/><path transform="translate(30.432 15.2) scale(.016 -.016)" d="m70 4q-19 0-39.5 1.5t-41.5 3.5l-3 4q-2 13 4.5 33.5t14.5 42.5q3 8 9 24.5t12 33 8 22.5q3 10 5 18t2 18l11-12q-2-9-3-18.5t-1-18.5q0-43 24.5-74.5t70.5-31.5q35 0 63.5 15.5t45.5 40 17 49.5q0 12-5 25-9 23-42.5 32t-68.5 11q-61 5-91.5 28t-30.5 54q0 28 25 59 7 9 28 22.5t47 28.5 50 27.5 36 17.5q13 6 30.5 8.5t36.5 2.5q27 0 50-4.5t26-9.5l4-4q2-13-3.5-30.5t-13.5-39.5q-4-11-8.5-22t-7.5-21q-7-17-7-36l-18 11q5 18 5 31 0 28-14 48t-35 30.5-42 8.5q-45-5-72.5-33t-27.5-57q0-23 20.5-41.5t66.5-20.5q12 0 37-3t48-7 30-10q24-18 24-44 0-28-24.5-62t-54.5-69q-40-48-90-65t-107-17z"/></svg>