<svg width="59.2" height="23.12" viewBox="0 0 59.2 23.12" xmlns="http://www.w3.org/2000/svg"><path transform="translate(0 17.504) scale(.016 -.016)" d="m97-14q-16 0-28 4.5t-12 23.5q0 0 0.5 5t3 27 9 72.5 17.5 141 28.5 232.5 42.5 348q2 20 15.5 26t29.5 6q14 0 23.5-4.5t9.5-19.5q0-1-1.5-13t-6-48-13-108-23.5-193h47q45 0 87.5 23.5t79.5 62.5 64.5 86 43 95 15.5 88q0 17 10.5 24t30.5 7q16 0 25.5-7.5t9.5-23.5q0-54-19-110t-52-107.5-76.5-92.5-92.5-66l-1-7q49-20 76.5-62t44-93 33.5-101l62-181q1-3 1-8 0-13-12-20t-29-7q-16 0-24 4.5t-13 17.5l-70 206q-18 51-31.5 91t-32 67-50.5 41-87 14h-48q-10-80-22.5-181.5t-27.5-227.5q-2-19-12.5-25.5t-24.5-6.5z"/><path transform="translate(10.128 17.504) scale(.016 -.016)" d="m241 692q0-23-11-42.5t-46-19.5q-26 0-35.5 11t-9.5 27q0 23 11.5 42t45.5 19q26 0 35.5-10.5t9.5-26.5zm-145-706q-14 0-20.5 4t-6.5 16l57 476q2 17 14.5 21t29.5 4q14 0 22.5-4.5t8.5-15.5l-58-476q-2-16-16-20.5t-31-4.5z"/><path transform="translate(14.032 17.504) scale(.016 -.016)" d="m154-14q-12 0-20.5 19t-13 49.5-4.5 65.5q0 21 2.5 47t3.5 40l26 219h-57q-22 0-22 29 0 13 8 25.5t21 12.5h59l18 154q2 17 20 25t35 8q14 0 17.5-2t3.5-10l-21-175h93q23 0 23-30 0-12-8.5-24.5t-21.5-12.5h-95l-26-219q-3-24-4-43t-1-35q0-49 8.5-74t8.5-41q0-13-19.5-20.5t-33.5-7.5z"/><path transform="translate(19.12 17.504) scale(.016 -.016)" d="m266-14q-105 0-159 58t-54 163q0 77 26.5 133.5t68.5 93.5 89 55 89 18q53 0 89-26t36-76q0-59-43-104t-114.5-70-159.5-25q0-73 34.5-115.5t101.5-42.5q35 0 61.5 13.5t43 26.5 18.5 13q12 0 19.5-15.5t7.5-29.5q0-10-24-27t-59.5-30-70.5-13zm-128 279q44 0 87 9.5t77.5 26.5 55 41 20.5 53q0 26-16 39t-40 13q-31 0-70-20.5t-71.5-60.5-42.5-101z"/><path transform="translate(30.976 17.504) scale(.016 -.016)" d="m318-14q-77 0-130 26t-85 72.5-46.5 107-14.5 129.5q0 67 12.5 143t39.5 148 70.5 131 106 94 145.5 35q78 0 131-26t85-72 46-106 14-129q0-68-12.5-144t-39.5-148.5-70.5-131.5-106-94-145.5-35zm8 64q66 0 114.5 34.5t81.5 91 53 123.5 28.5 132 8.5 115-10 97-33.5 85-62.5 60.5-97 22.5q-66 0-114.5-34.5t-81.5-91-53-123.5-28.5-132-8.5-115 10-97 33.5-85 62.5-60.5 97-22.5z"/><path transform="translate(42.72 17.504) scale(.016 -.016)" d="m96-14q-14 0-20.5 4t-6.5 16l57 476q2 17 14.5 21t29.5 4q14 0 22.5-4.5t8.5-15.5l-9-70h6q30 44 68 67t90 23q78 0 117.5-36t39.5-97q0-3-0.5-10t-3-25.5-7.5-56.5-13.5-103.5-21.5-167.5q-2-16-17-20.5t-32-4.5q-13 0-19.5 4t-6.5 16l42 347q2 10 2 15 0 73-90 73-51 0-88-32t-60-87.5-32-126.5l-23-184q-2-16-16-20.5t-31-4.5z"/><path transform="translate(51.824 17.504) scale(.016 -.016)" d="m266-14q-105 0-159 58t-54 163q0 77 26.5 133.5t68.5 93.5 89 55 89 18q53 0 89-26t36-76q0-59-43-104t-114.5-70-159.5-25q0-73 34.5-115.5t101.5-42.5q35 0 61.5 13.5t43 26.5 18.5 13q12 0 19.5-15.5t7.5-29.5q0-10-24-27t-59.5-30-70.5-13zm-128 279q44 0 87 9.5t77.5 26.5 55 41 20.5 53q0 26-16 39t-40 13q-31 0-70-20.5t-71.5-60.5-42.5-101z"/></svg>