<svg width="67.28" height="23.168" viewBox="0 0 67.28 23.168" xmlns="http://www.w3.org/2000/svg"><path transform="translate(0 18.56) scale(.016 -.016)" d="m108 589v-477q0-29-1-56t-1-39q0-13 16-20.5t30-7.5q17 0 17 10 0 17-1.5 47.5t-1.5 64.5v221q11 8 22.5 17t22.5 18q32-37 71.5-80.5t81-88 78.5-84 65-68.5q13-13 21-23t14-18q10-13 30-13 18 0 33.5 8t15.5 17q0 5-4 8-25 21-63 57.5t-81 81-85.5 89.5-78 83.5-56.5 63.5q66 54 126.5 106.5t105.5 92.5q25 23 45 39t35 29q3 3 3 7 0 10-18 21t-32 11q-8 0-11-4-32-34-78.5-77.5t-97-88-94.5-82-71-58.5v192q0 26 1 51.5t1 37.5q0 13-16 20.5t-30 7.5q-17 0-17-10 0-17 1.5-46t1.5-60z"/><path transform="translate(10.08 18.56) scale(.016 -.016)" d="m104 590v-485q0-7-0.5-25t-1-36.5-0.5-26.5q0-12 15.5-19.5t28.5-7.5q16 0 16 9 0 12-0.5 35t-1.5 44-1 27v485q0 12 0.5 30t1 34.5 0.5 24.5q0 12-15.5 19.5t-28.5 7.5q-16 0-16-9 0-11 0.5-33t1.5-43 1-31z"/><path transform="translate(14.288 18.56) scale(.016 -.016)" d="m118 201h12q83 0 148 9.5t110 22.5q40 13 60.5 26.5t27.5 32.5 7 48q0 36-15.5 69t-51.5 54-97 21q-49 0-91-22.5t-75-57.5-54.5-75-27.5-76q0 0-4.5-0.5t-6.5-0.5q-17 0-17-12 0-16 21-30v-15q0-65 24-112.5t64.5-73 91.5-25.5q61 0 106.5 18.5t75 44 44.5 48.5 15 32q0 10-8 10-9 0-21-13-40-43-93.5-66.5t-118.5-23.5q-51 0-88.5 41t-37.5 123zm28 49h-21q5 27 22 59t42.5 61 58.5 47.5 70 18.5q53 0 82-25.5t29-69.5q0-18-4-29t-17.5-19-44.5-17q-34-10-87.5-18t-129.5-8z"/><path transform="translate(22.976 18.56) scale(.016 -.016)" d="m118 201h12q83 0 148 9.5t110 22.5q40 13 60.5 26.5t27.5 32.5 7 48q0 36-15.5 69t-51.5 54-97 21q-49 0-91-22.5t-75-57.5-54.5-75-27.5-76q0 0-4.5-0.5t-6.5-0.5q-17 0-17-12 0-16 21-30v-15q0-65 24-112.5t64.5-73 91.5-25.5q61 0 106.5 18.5t75 44 44.5 48.5 15 32q0 10-8 10-9 0-21-13-40-43-93.5-66.5t-118.5-23.5q-51 0-88.5 41t-37.5 123zm28 49h-21q5 27 22 59t42.5 61 58.5 47.5 70 18.5q53 0 82-25.5t29-69.5q0-18-4-29t-17.5-19-44.5-17q-34-10-87.5-18t-129.5-8z"/><path transform="translate(37.264 18.56) scale(.016 -.016)" d="m223 644q-4 5-11 8t-15 3q-17 0-41-26.5t-47-71.5-38.5-102-15.5-118q0-102 33-181.5t102-125.5 176-46q84 0 146 30t102 82.5 59.5 121 19.5 145.5q0 101-34.5 179.5t-99 123.5-154.5 45q-58 0-102-18t-80-49zm135-606q-89 0-143.5 41.5t-78.5 110.5-24 149q0 81 28 141t72 100.5 93.5 60.5 93.5 20q63 0 107.5-25.5t73-68 42-93.5 13.5-103q0-64-14.5-123.5t-46.5-107-85-75-131-27.5z"/><path transform="translate(49.184 18.56) scale(.016 -.016)" d="m440 294v-189q0-11-0.5-29t-1-34.5-0.5-24.5q0-12 15.5-19.5t28.5-7.5q15 0 15 9 0 12-0.5 35t-1.5 44-1 27v193q0 30-5 62.5t-20 60.5-44 45.5-77 17.5q-37 0-75.5-14.5t-71-42-52.5-68.5q0 14 0.5 33t0.5 36.5 0 25.5q0 12-15 19.5t-29 7.5q-15 0-15-9 0-11 0.5-33t1.5-43 1-31v-260q0-7-0.5-25t-1-36.5-0.5-26.5q0-12 15.5-19.5t28.5-7.5q15 0 15 9 0 15-1.5 39.5t-1.5 52.5v14q1 44 2.5 93.5t13.5 89.5q15 51 45 82.5t67 46.5 72 15q38 0 57.5-18t27-49 7.5-71z"/><path transform="translate(58.592 18.56) scale(.016 -.016)" d="m118 201h12q83 0 148 9.5t110 22.5q40 13 60.5 26.5t27.5 32.5 7 48q0 36-15.5 69t-51.5 54-97 21q-49 0-91-22.5t-75-57.5-54.5-75-27.5-76q0 0-4.5-0.5t-6.5-0.5q-17 0-17-12 0-16 21-30v-15q0-65 24-112.5t64.5-73 91.5-25.5q61 0 106.5 18.5t75 44 44.5 48.5 15 32q0 10-8 10-9 0-21-13-40-43-93.5-66.5t-118.5-23.5q-51 0-88.5 41t-37.5 123zm28 49h-21q5 27 22 59t42.5 61 58.5 47.5 70 18.5q53 0 82-25.5t29-69.5q0-18-4-29t-17.5-19-44.5-17q-34-10-87.5-18t-129.5-8z"/></svg>