<svg width="173.7" height="28.906" viewBox="0 0 173.7 28.906" xmlns="http://www.w3.org/2000/svg"><path transform="translate(0 19.531) scale(.0078125 -.0078125)" d="M130 0V1490H444V833H463L1000 1490H1377L825 823L1384 0H1006L599 612L444 423V0Z"/><path transform="translate(11.039 19.531) scale(.0078125 -.0078125)" d="m628-22q-169 0-292.5 72.5t-190 202-66.5 301.5q0 173 66.5 303t190 202.5 292.5 72.5q170 0 293.5-72.5t190-202.5 66.5-303q0-172-66.5-301.5t-190-202-293.5-72.5zm-234 578q0-146 59-241t176-95q116 0 175 95t59 241-59 240-175 94q-117 0-176-94t-59-240z"/><path transform="translate(20.859 19.531) scale(.0078125 -.0078125)" d="m434 646v-646h-310v1118h305v-199h11q38 98 121 155.5t207 57.5q175 0 280.5-112.5t105.5-308.5v-711h-310v656q0 103-52.5 161t-145.5 58q-94 0-153-60.5t-59-168.5z"/><path transform="translate(30.844 19.531) scale(.0078125 -.0078125)" d="M124 1490H434V693H451L808 1118H1164L750 633L1184 0H822L518 451L434 356V0H124Z"/><path transform="translate(40.148 19.531) scale(.0078125 -.0078125)" d="m434 646v-646h-310v1490h300v-571h14q38 99 122.5 156t211.5 57q174 0 280-112t106-309v-711h-309v656q0 104-52 161.5t-149 57.5q-94 0-154-60.5t-60-168.5z"/><path transform="translate(50.164 19.531) scale(.0078125 -.0078125)" d="m124 0v1118h294v-199h14q35 99 117 156t195 57q115 0 195.5-57.5t106.5-155.5h12q35 97 124.5 155t212.5 58q156 0 254.5-99t98.5-281v-752h-310v690q0 94-49.5 140t-123.5 46q-84 0-131.5-53.5t-47.5-140.5v-682h-301v698q0 81-46.5 129.5t-122.5 48.5q-78 0-130-56.5t-52-149.5v-670z"/><path transform="translate(64.789 19.531) scale(.0078125 -.0078125)" d="m633-22q-172 0-296 70t-191 199.5-67 306.5q0 172 66.5 302t187.5 203 285 73q148 0 267.5-63t190-189 70.5-316v-84h-762q5-127 74-199t180-72q77 0 132.5 33t79.5 96l286-19q-33-154-164.5-247.5t-338.5-93.5zm-247 693h463q-11 106-68 168t-160 62q-104 0-164.5-64.5t-70.5-165.5z"/><path transform="translate(74.359 19.531) scale(.0078125 -.0078125)" d="m124 0v1118h300v-196h12q30 104 102 157.5t166 53.5q23 0 50-3t47-8v-274q-22 7-60.5 11.5t-70.5 4.5q-102 0-169-64.5t-67-167.5v-632z"/><path transform="translate(84.617 19.531) scale(.0078125 -.0078125)" d="m682-21q-271 0-432.5 124t-168.5 365h305q8-112 88.5-168.5t203.5-56.5q120 0 192.5 51t72.5 133q0 75-66 115.5t-188 69.5l-163 40q-188 45-296.5 143.5t-108.5 263.5q0 135 73 236.5t200.5 158 290.5 56.5q166 0 290-57t193.5-158 71.5-233h-304q-8 87-74 136t-179 49q-115 0-177-47.5t-62-120.5q0-79 69-119.5t166-63.5l133-33q130-29 231-84.5t159-142 58-210.5q0-205-153-326t-425-121z"/><path transform="translate(95.094 19.531) scale(.0078125 -.0078125)" d="M434 1490V0H124V1490Z"/><path transform="translate(99.453 19.531) scale(.0078125 -.0078125)" d="m633-22q-172 0-296 70t-191 199.5-67 306.5q0 172 66.5 302t187.5 203 285 73q148 0 267.5-63t190-189 70.5-316v-84h-762q5-127 74-199t180-72q77 0 132.5 33t79.5 96l286-19q-33-154-164.5-247.5t-338.5-93.5zm-247 693h463q-11 106-68 168t-160 62q-104 0-164.5-64.5t-70.5-165.5z"/><path transform="translate(109.02 19.531) scale(.0078125 -.0078125)" d="m628-22q-169 0-292.5 72.5t-190 202-66.5 301.5q0 173 66.5 303t190 202.5 292.5 72.5q170 0 293.5-72.5t190-202.5 66.5-303q0-172-66.5-301.5t-190-202-293.5-72.5zm-234 578q0-146 59-241t176-95q116 0 175 95t59 241-59 240-175 94q-117 0-176-94t-59-240z"/><path transform="translate(118.84 19.531) scale(.0078125 -.0078125)" d="M124 1490H434V693H451L808 1118H1164L750 633L1184 0H822L518 451L434 356V0H124Z"/><path transform="translate(128.15 19.531) scale(.0078125 -.0078125)" d="m628-22q-172 0-295 73t-188.5 203-65.5 300q0 172 66.5 302t189.5 203 292 73q146 0 256-53t174-149 70-226h-292q-13 83-65 134.5t-138 51.5q-108 0-173-86.5t-65-245.5q0-160 64.5-249t173.5-89q80 0 135 50t68 140h292q-7-128-69-225.5t-171.5-152-258.5-54.5z"/><path transform="translate(137.55 19.531) scale(.0078125 -.0078125)" d="m434 646v-646h-310v1490h300v-571h14q38 99 122.5 156t211.5 57q174 0 280-112t106-309v-711h-309v656q0 104-52 161.5t-149 57.5q-94 0-154-60.5t-60-168.5z"/><path transform="translate(147.56 19.531) scale(.0078125 -.0078125)" d="m434 646v-646h-310v1490h300v-571h14q38 99 122.5 156t211.5 57q174 0 280-112t106-309v-711h-309v656q0 104-52 161.5t-149 57.5q-94 0-154-60.5t-60-168.5z"/><path transform="translate(157.58 19.531) scale(.0078125 -.0078125)" d="m633-22q-172 0-296 70t-191 199.5-67 306.5q0 172 66.5 302t187.5 203 285 73q148 0 267.5-63t190-189 70.5-316v-84h-762q5-127 74-199t180-72q77 0 132.5 33t79.5 96l286-19q-33-154-164.5-247.5t-338.5-93.5zm-247 693h463q-11 106-68 168t-160 62q-104 0-164.5-64.5t-70.5-165.5z"/><path transform="translate(167.15 19.531) scale(.0078125 -.0078125)" d="m124 0v1118h300v-196h12q30 104 102 157.5t166 53.5q23 0 50-3t47-8v-274q-22 7-60.5 11.5t-70.5 4.5q-102 0-169-64.5t-67-167.5v-632z"/></svg>