<svg width="67.952" height="19.248" viewBox="0 0 67.952 19.248" xmlns="http://www.w3.org/2000/svg"><path transform="translate(0 14.64) scale(.016 -.016)" d="m64 644q0 23 10 43 75-7 110-7 55 0 110 6l15 1q0-23-10-43-44-8-73-29-19-171-25-246 31 7 80 21 70 70 103.5 108t95.5 120l-80 20q0 23 12 43 72-7 109-7l97 7q0-23-10-43-39-4-72-37-113-113-208-233 87-127 203-322l83-15q0-23-10-43-90 7-155 7-96 182-203 335l-48-9q-8-115-16-270l82-15q0-23-10-43-103 7-140 7l-95-7q0 23 10 43 40 12 68 36 26 223 45 558z"/><path transform="translate(9.568 14.64) scale(.016 -.016)" d="m178 62 8-2h96q42 16 74 77t32 125q0 79-28 112-25 29-44 34l-8 2h-96q-42-16-74-77t-32-132.5 26.5-102.5 45.5-36zm24-72q-171 0-171 186 0 70 28.5 138t89 117 143.5 49q171 0 171-186 0-70-28.5-138t-89-117-143.5-49z"/><path transform="translate(17.408 14.64) scale(.016 -.016)" d="m300 470q0-24-10-60h-115q-19-179-24-350h120q0-23-10-43-87-8-141-32-56 0-56 45 32 244 40 380h-52q0 23 10 43 2 1 5.5 2.5t13.5 9.5 18 19q22 31 28 83 32 18 67 18-5-57-13-120z"/><path transform="translate(22.736 14.64) scale(.016 -.016)" d="m300 470q0-24-10-60h-115q-19-179-24-350h120q0-23-10-43-87-8-141-32-56 0-56 45 32 244 40 380h-52q0 23 10 43 2 1 5.5 2.5t13.5 9.5 18 19q22 31 28 83 32 18 67 18-5-57-13-120z"/><path transform="translate(28.064 14.64) scale(.016 -.016)" d="m509 60q0-23-10-43-67-8-121-32-15 0-25.5 11t-10.5 34l19 143-10 6q-37-90-75-139.5t-100-49.5-104 45.5-42 123.5q0 129 77 225t191 96q37 0 84-29 2 18 4 29 50 15 95 15-19-77-31.5-166t-24.5-269zm-403 127q0-44 20-79.5t45-47.5h48q58 11 141 210 4 42 16 140h-160q-39-7-74.5-77.5t-35.5-145.5z"/><path transform="translate(40 14.64) scale(.016 -.016)" d="m38 241q0 140 62 254 68 125 187 173 65 27 141 27 106 0 167.5-73.5t61.5-186.5q0-174-95-309-46-66-122.5-106t-177.5-40-162.5 74-61.5 187zm223-181h139q84 45 128.5 134t44.5 182-34.5 160-100.5 89h-140q-84-45-130-137.5t-46-186 35.5-159 103.5-82.5z"/><path transform="translate(50.992 14.64) scale(.016 -.016)" d="m55 410q0 23 10 43 57 8 111 32 14 0 25-12.5t11-32.5l-19-143 10-6q31 71 92 130t138 59q37 0 59-10t26-20l3-10q-23-193-31-380h80q0-23-10-43-67-8-121-32-15 0-25.5 11t-10.5 34q22 140 38 380h-61q-40 0-95-62.5t-89-137.5q-10-124-23-210-49-15-94-15 16 67 28 157t21 268z"/><path transform="translate(60.816 14.64) scale(.016 -.016)" d="m381 60q0-23-10-43-106-27-152-27-172 0-172 187 0 69 30 137.5t91.5 117 139.5 48.5q49 0 72-25t23-61q0-180-282-186 0-137 82-148zm-48 309q0 33-28 41h-92q-33-13-57-57.5t-32-100.5q115 4 162 33.5t47 83.5z"/></svg>