<svg width="35.68" height="20.8" viewBox="0 0 35.68 20.8" xmlns="http://www.w3.org/2000/svg"><path transform="translate(0 16.112) scale(.016 -.016)" d="m585 3q-20-11-43-11-18 0-28.5 6.5t-21.5 23.5l-152 246q-23 37-48.5 49.5t-80.5 12.5h-39v-330h-72v700h72v-308h59q18 0 27-1l236 309h83l-255-329q42-23 80-82z"/><path transform="translate(9.76 16.112) scale(.016 -.016)" d="m378 511q0-16-11-29-24 13-66 13-67 0-107.5-53t-40.5-139v-303h-68v550h68v-99q23 46 65 76t88 30q35 0 53.5-11.5t18.5-34.5z"/><path transform="translate(16.16 16.112) scale(.016 -.016)" d="m532 7q-21-12-43-12-21 0-30.5 17.5t-10.5 63.5q-28-39-79-62.5t-110-23.5q-169 0-169 185v375h68v-368q0-73 27-105.5t86-32.5q53 0 99.5 27t77.5 76v403h69v-437q0-58 15-106z"/><path transform="translate(25.92 16.112) scale(.016 -.016)" d="m570 284q0-138-63-216t-174-78q-106 0-166 63-9-53-35-53-30 0-50 12 19 42 19 120v659h70v-282q73 51 167 51 111 0 171.5-72t60.5-204zm-70 0q0 106-42 163t-120 57q-92 0-167-57v-325q59-74 162-74 80 0 123.5 61.5t43.5 174.5z"/></svg>