<svg width="50.624" height="20.8" viewBox="0 0 50.624 20.8" xmlns="http://www.w3.org/2000/svg"><path transform="translate(0 14.4) scale(.016 -.016)" d="m268 280h-118v84h114q51 0 77.5 24t42.5 60l128 272h100v-8l-140-292q-18-39-45-71t-65.5-50.5-93.5-18.5zm-172-280v720h96v-720zm304 344 214-336v-8h-108l-182 296z"/><path transform="translate(10.4 14.4) scale(.016 -.016)" d="m332-12q-52 0-97.5 10.5t-79 37-52.5 72.5-19 116v148q0 20-0.5 52t-2 63-5.5 49l2 8h98v-312q0-66 19.5-101.5t57-49 90.5-13.5q32 0 65.5 5.5t58.5 12.5l-17-24q-4 14-5 35t-1 43v232q0 20-0.5 52t-2 63-5.5 49l2 8h98v-348q0-20 0.5-52t2-63 5.5-49l-2-8q-26-10-65.5-18t-79-13-65.5-5z"/><path transform="translate(20.512 14.4) scale(.016 -.016)" d="m100 0v544q0 72 21.5 120t65 72 109.5 24q24 0 42.5-3t33.5-9v-80h-8q-15 6-29.5 9t-38.5 3q-61 0-82.5-32.5t-21.5-103.5v-544zm-84 464v80h328v-80z"/><path transform="translate(25.888 14.4) scale(.016 -.016)" d="m286-12q-117 0-175.5 42.5t-58.5 129.5q0 58 28.5 96t81 57 124.5 19q56 0 93.5-9.5t64.5-18.5v-72q-27 9-67 16.5t-75 7.5q-81 0-120.5-21t-39.5-75q0-51 38-73.5t110-22.5q40 0 77 6.5t69 17.5l-18-27q-2 8-3.5 18t-2.5 21-1.5 23-0.5 25v180q0 64-17.5 95.5t-52 42-86.5 10.5q-39 0-79.5-10t-64.5-22h-8v82q36 15 80.5 22.5t83.5 7.5q50 0 92.5-9t75-32.5 50.5-67.5 18-115v-132q0-20 0.5-52t2-63 5.5-49l-2-8q-33-12-73-21t-79.5-14-69.5-5z"/><path transform="translate(35.328 14.4) scale(.016 -.016)" d="m96 0v344q0 20-0.5 52t-2 63-5.5 49l2 8q26 10 65 19t80 15 73 6q44 0 84-10.5t71.5-37 50-72 18.5-116.5v-320h-92v312q0 66-18.5 101.5t-51 49-74.5 13.5q-32 0-68.5-7t-63.5-17l16 28q4-15 6-37.5t2-46.5v-396zm676 0v312q0 66-17 101.5t-51 49-84 13.5q-29 0-59.5-7t-64.5-21l-56 64q50 20 99.5 32t92.5 12q50 0 92-10.5t73.5-37 49-72 17.5-116.5v-320z"/></svg>