<svg width="55.216" height="23.12" viewBox="0 0 55.216 23.12" xmlns="http://www.w3.org/2000/svg"><path transform="translate(0 18.32) scale(.016 -.016)" d="m68-9q-3 12-4.5 23.5t-1.5 23.5l87 16q5 56 6.5 113.5t1.5 112.5q0 51 0 101t-1.5 98-4.5 92l-93 31q0 10 1 19t4 19q65 1 130 3t130 6q2-12 4-23.5t2-23.5l-81-20q-3-37-5-76.5t-2.5-87.5-0.5-110q0-19 0-48t0.5-63.5 2-70.5 3.5-69q22 0 46.5 1t49.5 2.5 48 3.5 42 4.5 32 5.5l30 124q11 0 22.5-1.5t22.5-6.5v-13l-6-170-1-13q-57 3-114.5 4.5t-114.5 1.5q-29 0-58.5-0.5t-59-2-59-3-58.5-3.5z"/><path transform="translate(8.8 18.32) scale(.016 -.016)" d="m231 0q-13-4-42.5-8t-64.5-4q-14 10-31 26.5t-29.5 37.5-12.5 41q0 19 4 37.5t11 34.5 16 29 19 22q24 8 55.5 13.5t62.5 9.5 54 5.5 32 1.5v129q-20 12-52 21t-63 9q-8 0-16-1t-16-3l-18-92-60 7-6 100 6 9q34 13 85.5 25t113.5 12q30 0 50-11.5t32.5-27.5 18-29.5 6.5-17.5q-1-26-3-57.5t-3-58.5-1-39q0-43 2.5-75.5t6-52.5 4.5-25l61-4 6-29q-25-13-56.5-26t-72.5-21l-22 32-3 54-2-2q-12-12-24-24t-24-24-24-24zm-87 76q5-3 15.5-7t24-7.5 26.5-3.5q6 0 20 8t30 18.5 29 19.5 16 11v90q-26-2-54.5-7.5t-57-13.5-55.5-19q-1-5-1.5-10t-0.5-9.5 0-9.5q0-21 2.5-36.5t5.5-23.5z"/><path transform="translate(16.464 18.32) scale(.016 -.016)" d="m113 35q2 31 4 67t3.5 75.5 2.5 81 1 83.5q0 37-0.5 72t-1.5 66.5-2.5 58.5-2.5 47-2 32.5-1 14.5l-79 16q0 12 2 21.5t4 16.5l128 25 43-30-9-250-4-116 10-4q3 6 13.5 30t26.5 54 34 54q20 5 40 7.5t40 3.5 40 1q12-5 30-15.5t36-33 30-62 12-102.5q0-42-9-81t-33-71q-6-8-26-34t-56-55q-19-10-43-15t-48-5q-35 0-85 10t-98 37zm226 11q7 2 28.5 10t43.5 27q2 7 8 35.5t6 69.5q0 50-8 94.5t-22 80.5q-11 10-24 17.5t-27.5 13-30.5 8.5q-13-10-34.5-39t-43-63.5-34.5-62.5v-159q6-2 41.5-14.5t96.5-17.5z"/><path transform="translate(25.2 18.32) scale(.016 -.016)" d="m45-4q-3 9-4 18t-1 18l71 33q2 29 4.5 66.5t2.5 68.5q0 26-2 57.5t-4.5 63.5-5.5 57l-73 11q-4 8-5.5 15.5t-2.5 14.5q32 15 69 26t72 17l19-29-7-113 10-4q14 35 31.5 68.5t37.5 65.5q17 4 34 6.5t33.5 4 33.5 1.5l12-18-10-63-3-17q-16 0-33.5 0t-35-1.5-34.5-4.5q-13-14-24.5-31t-21-35.5-18.5-35.5l7-202 84-20q1-8 0-17t-3-17q-13 0-45-0.5t-70-1-70.5-1-47.5-1.5z"/><path transform="translate(31.36 18.32) scale(.016 -.016)" d="m231 0q-13-4-42.5-8t-64.5-4q-14 10-31 26.5t-29.5 37.5-12.5 41q0 19 4 37.5t11 34.5 16 29 19 22q24 8 55.5 13.5t62.5 9.5 54 5.5 32 1.5v129q-20 12-52 21t-63 9q-8 0-16-1t-16-3l-18-92-60 7-6 100 6 9q34 13 85.5 25t113.5 12q30 0 50-11.5t32.5-27.5 18-29.5 6.5-17.5q-1-26-3-57.5t-3-58.5-1-39q0-43 2.5-75.5t6-52.5 4.5-25l61-4 6-29q-25-13-56.5-26t-72.5-21l-22 32-3 54-2-2q-12-12-24-24t-24-24-24-24zm-87 76q5-3 15.5-7t24-7.5 26.5-3.5q6 0 20 8t30 18.5 29 19.5 16 11v90q-26-2-54.5-7.5t-57-13.5-55.5-19q-1-5-1.5-10t-0.5-9.5 0-9.5q0-21 2.5-36.5t5.5-23.5z"/><path transform="translate(39.024 18.32) scale(.016 -.016)" d="m143-12q-12 5-30 16t-36 33-30 61.5-12 102.5q0 53 15 97t43 80 66 64q13 7 28 11t31 6.5 32 2.5q19 0 44-2.5t51-9.5v183l-79 16q0 10 1.5 19t4.5 19l128 25 43-30q-1-14-3.5-41.5t-5-64.5-5-80.5-4-89-1.5-89.5q0-17 0.5-42t1.5-53 2-56 2-53 1-43l67-21 5-29q-19-10-53-21t-77-11l-22 32-4 114-10 4q-5-13-18-39.5t-28-54.5-28-44q-30-7-60-9.5t-60-2.5zm90 60q13 11 34.5 39.5t43 63.5 34.5 62v159q-23 9-46 15.5t-46 10.5-46 6q-18-5-37-14.5t-35-22.5q-6-26-10-52.5t-4-52.5q0-49 8-94t22-81q17-14 37.5-24t44.5-15z"/><path transform="translate(47.552 18.32) scale(.016 -.016)" d="m231 0q-13-4-42.5-8t-64.5-4q-14 10-31 26.5t-29.5 37.5-12.5 41q0 19 4 37.5t11 34.5 16 29 19 22q24 8 55.5 13.5t62.5 9.5 54 5.5 32 1.5v129q-20 12-52 21t-63 9q-8 0-16-1t-16-3l-18-92-60 7-6 100 6 9q34 13 85.5 25t113.5 12q30 0 50-11.5t32.5-27.5 18-29.5 6.5-17.5q-1-26-3-57.5t-3-58.5-1-39q0-43 2.5-75.5t6-52.5 4.5-25l61-4 6-29q-25-13-56.5-26t-72.5-21l-22 32-3 54-2-2q-12-12-24-24t-24-24-24-24zm-87 76q5-3 15.5-7t24-7.5 26.5-3.5q6 0 20 8t30 18.5 29 19.5 16 11v90q-26-2-54.5-7.5t-57-13.5-55.5-19q-1-5-1.5-10t-0.5-9.5 0-9.5q0-21 2.5-36.5t5.5-23.5z"/></svg>