<svg width="27.3" height="16.8" viewBox="0 0 27.3 16.8" xmlns="http://www.w3.org/2000/svg"><path transform="translate(0 13.818) scale(.007 -.007)" d="M368 163H988V0H174V1433H368Z"/><path transform="translate(7.196 13.818) scale(.007 -.007)" d="m890 0h-79q-26 0-42 8t-21 34l-20 94q-40-36-78-64.5t-80-48-89.5-29.5-105.5-10q-59 0-110.5 16.5t-89.5 49.5-60.5 83.5-22.5 119.5q0 60 33 115.5t106.5 98.5 192.5 70.5 291 31.5v79q0 118-50.5 178.5t-149.5 60.5q-65 0-109.5-16.5t-77-37-56-37-46.5-16.5q-18 0-31.5 9.5t-21.5 23.5l-32 57q84 81 181 121t215 40q85 0 151-28t111-78 68-121 23-156zm-462 109q47 0 86 9.5t73.5 27 66 42.5 61.5 57v211q-123-4-209-19.5t-140-40.5-78.5-59-24.5-76q0-40 13-69t35-47.5 52-27 65-8.5z"/><path transform="translate(14.294 13.818) scale(.007 -.007)" d="m453-16q-120 0-184.5 67t-64.5 193v620h-122q-16 0-27 9.5t-11 29.5v71l166 21 41 313q2 15 13 24.5t28 9.5h90v-349h290v-129h-290v-608q0-64 31-95t80-31q28 0 48.5 7.5t35.5 16.5 25.5 16.5 18.5 7.5q14 0 25-17l52-85q-46-43-111-67.5t-134-24.5z"/><path transform="translate(19.516 13.818) scale(.007 -.007)" d="m556 1029q111 0 200.5-37t152-105 96-164.5 33.5-215.5q0-120-33.5-216t-96-164-152-104.5-200.5-36.5-200.5 36.5-152.5 104.5-97 164-34 216q0 119 34 215.5t97 164.5 152.5 105 200.5 37zm0-904q150 0 224 100.5t74 280.5q0 181-74 282t-224 101q-76 0-132-26t-93.5-75-56-120.5-18.5-161.5 18.5-161 56-119.5 93.5-74.5 132-26z"/></svg>