<svg width="98.146" height="17.708" viewBox="0 0 98.146 17.708" xmlns="http://www.w3.org/2000/svg"><path transform="translate(0 11.458) scale(.010417 -.010417)" d="m540-188q-43 24-75.5 48.5t-58.5 49-47 48.5-40 45q-36-27-79-42t-81-15q-24 0-50 5.5t-47.5 17-35.5 29.5-14 42 9.5 40.5 24.5 27.5 33.5 16 36.5 5q65-2 112.5-30t93.5-73q75 55 153 141t166 205q49 66 94.5 131.5t90 126.5 90 113.5 93.5 93.5q-33 11-73 22.5t-74 11.5q-29 0-53-5t-42-11-28.5-11-11.5-5q-4-2-5-2-4 0-6.5 3t-2.5 6q0 6 5 8 0 0 11 5.5t29.5 12 45 12 58.5 5.5q19 0 40-3.5t43-9 42.5-12.5 38.5-14q47 37 102 60t117 23q32 0 57.5-18t25.5-52q0-14-6-28.5t-19.5-26.5-34.5-19.5-51-7.5q-27 0-49.5 4t-44.5 10.5-45 15.5-49 19q-49-39-95-91.5t-91-114-91.5-128.5-96.5-135q-88-118-167-206t-154-142q21-21 41.5-44t45.5-46.5 55.5-47.5 72.5-47q50-28 95-40.5t83-12.5q22 0 44.5 5t40.5 16.5 29.5 29.5 11.5 45q0 20-7.5 36.5t-17 28.5-17 19-7.5 8q0 10 9 10 2 1 6-2 4-2 10-8t16-20q26-37 26-73 0-33-14.5-54.5t-36.5-34.5-47-18.5-46-5.5q-41 0-88.5 13t-98.5 42zm-510 227q3-22 16.5-36.5t32.5-23 40.5-12 39.5-3.5q35 0 72.5 13.5t75.5 38.5q-42 42-88 68.5t-103 26.5q-35 0-60.5-18.5t-25.5-53.5zm1069 784q28-11 55-17.5t59-6.5q19 0 36.5 3.5t31 11.5 21.5 19.5 8 28.5q0 16-6.5 26t-17 16-22.5 8.5-22 2.5q-56-2-103-21t-93-51q15-6 28-10.5t25-9.5z"/><path transform="translate(8.6771 11.458) scale(.010417 -.010417)" d="m41 13q-35 19-49.5 50t-14.5 68q0 29 7.5 60t20.5 59.5 29 53 33 42.5q-16 8-23.5 12t-9.5 6.5-1.5 3.5 0.5 3q0 9 9 9 4 0 3 0.5t0-1 7.5-5.5 27.5-14q84 90 175.5 143t176.5 53q29 0 56-8t48-22.5 33.5-35 12.5-45.5q0-42-25.5-74t-63-53-80.5-31.5-79-10.5q-44 0-84 7.5t-72.5 17-56.5 20-37 16.5q-15-14-31-37.5t-28.5-51-21-58-8.5-59.5q0-57 39.5-91t122.5-34q32 0 65 4.5t63 11 54 14 39 13.5q40 16 78.5 34.5t78 41.5 81.5 53.5 90 71.5q4 2 6 2 3 0 6-2t3-7q0-4-3-7-49-42-92-72.5t-83-54-79-41.5-80-35q-22-8-49-16t-56.5-14-60.5-10-61-4q-32 0-62 5.5t-54 18.5zm82 326q16-7 38.5-15t49.5-14.5 58-11 63-4.5q41 0 82 12t74 32 54 47.5 21 57.5q0 21-10.5 38.5t-28.5 30.5-41.5 20-48.5 7q-32 0-69.5-9t-80-30.5-90-57.5-98.5-91z"/><path transform="translate(15.99 11.458) scale(.010417 -.010417)" d="m900 225q2-4 2-7 0-2-2-6-36-33-83.5-71t-100-70.5-107.5-54-107-21.5q-15 0-33.5 2.5t-35 10-27.5 20.5-11 33q0 30 36 74-88-71-163.5-112t-138.5-41q-32 0-61.5 10t-52 29-35.5 46-13 62q0 101 142 222 96 81 194.5 125.5t186.5 44.5q42 0 76-10 2 0 15.5-5t29-16.5 28-30 12.5-46.5q0-69-88-161 36 24 69.5 46.5t59 39.5 41.5 27 18 10q1 1 4 1 9 0 9-9 0-3-10.5-9.5t-33-20-57-36.5-81.5-57q-84-61-126.5-108t-42.5-76q0-14 9.5-23.5t23-14.5 28.5-7 27-2q45 0 94.5 18.5t100 48.5 99.5 68 92 78q4 2 6 2 4 0 7-3zm-771-225q42 0 86 17.5t87.5 45.5 85.5 61 80 65q50 41 82 75t51 62 26 49.5 7 37.5q0 23-11 38.5t-24.5 25-25 13.5-12.5 4q-33 9-71 9-85 0-180-43.5t-189-122.5q-136-115-136-208 0-30 11.5-54t31-40.5 46-25.5 55.5-9z"/><path transform="translate(25.229 11.458) scale(.010417 -.010417)" d="m771 215q2-4 2-5 0-4-4-8-1 0-27-20t-70-49.5-102.5-62-124.5-56.5q-31-11-62.5-26t-61.5-30q-55-78-112.5-153.5t-112.5-141-104-117.5-86-84q-1-1-13-10.5t-30-20.5-40-20-43-9q-12 0-23.5 3.5t-21.5 11-16 19-6 26.5q0 32 26.5 73t71 86 104 92.5 125.5 93.5 135.5 88 133.5 76q25 37 49.5 71t54.5 68q-84-63-149.5-97t-125.5-34q-32 0-61.5 10.5t-51.5 30-35 46.5-13 61q0 101 141 221 100 85 195 128t182 43q23 0 51.5-4t54-16 43-33.5 17.5-55.5q0-62-72-143 36 24 72.5 47.5t77.5 43.5q1 0 1.5 0.5t2.5 0.5q3 0 6-2.5t3-6.5q0-6-5-9 2 0-16.5-8.5t-50-26-73.5-45.5-87.5-67.5-91-90-85.5-114.5q24 11 48 21.5t47 19.5q39 14 78 33.5t74.5 40 66 40.5 53 36 35.5 26 13 10q4 2 6 2 4 0 7-3zm-633-218q42 0 86.5 17.5t88 45.5 85.5 61 80 65q49 41 81 75.5t51 62 26 49 7 37.5q0 28-15 45.5t-37.5 27.5-48 14-47.5 4q-84 0-176-42.5t-189-123.5q-66-57-100.5-109.5t-34.5-97.5q0-30 11-54t30.5-41 45.5-26.5 56-9.5zm-244-522q37 32 82.5 80t96 108 104.5 130 108 146q-56-31-119-71t-124.5-84-118-90.5-99-89-68-79-25.5-62.5q0-12 5-20.5t12-13.5 15.5-7.5 15.5-2.5q18 0 37.5 8t36 18 28 19 13.5 11z"/><path transform="translate(33.177 11.458) scale(.010417 -.010417)" d="m466-9q-33 0-56 15t-23 50q0 30 19 75.5t60 107.5q-63-55-119.5-99t-115.5-75q-43-22-77-34t-58.5-17-38.5-6-17-1q-1 0-15.5 0.5t-31 6.5-30.5 21-14 45q0 43 40 119.5t118 188.5q33 48 55 77.5t34.5 45.5 18 21.5 6.5 5.5q9 0 9-10 0-3-2-5 0 0-19.5-25.5t-48.5-65.5-63-89.5-62.5-98.5-48-92.5-19.5-71.5q0-31 20.5-43.5t49.5-12.5q24 0 52 6.5t54.5 16 48 19.5 33.5 16q56 30 133.5 88t170.5 159q27 32 56.5 68t54 66.5 40.5 51 16 20.5l14-12q-37-47-77.5-94t-79-95.5-72-99-57.5-104.5q-18-41-18-70 0-52 60-52 32 0 73.5 15.5t88 43.5 96.5 67.5 100 87.5q4 2 7 2 8 0 8-9 0-4-2-6-51-50-102-90t-99-68-91-43.5-79-16.5z"/><path transform="translate(41.917 11.458) scale(.010417 -.010417)" d="m41 13q-35 19-49.5 50t-14.5 68q0 29 7.5 60t20.5 59.5 29 53 33 42.5q-16 8-23.5 12t-9.5 6.5-1.5 3.5 0.5 3q0 9 9 9 4 0 3 0.5t0-1 7.5-5.5 27.5-14q84 90 175.5 143t176.5 53q29 0 56-8t48-22.5 33.5-35 12.5-45.5q0-42-25.5-74t-63-53-80.5-31.5-79-10.5q-44 0-84 7.5t-72.5 17-56.5 20-37 16.5q-15-14-31-37.5t-28.5-51-21-58-8.5-59.5q0-57 39.5-91t122.5-34q32 0 65 4.5t63 11 54 14 39 13.5q40 16 78.5 34.5t78 41.5 81.5 53.5 90 71.5q4 2 6 2 3 0 6-2t3-7q0-4-3-7-49-42-92-72.5t-83-54-79-41.5-80-35q-22-8-49-16t-56.5-14-60.5-10-61-4q-32 0-62 5.5t-54 18.5zm82 326q16-7 38.5-15t49.5-14.5 58-11 63-4.5q41 0 82 12t74 32 54 47.5 21 57.5q0 21-10.5 38.5t-28.5 30.5-41.5 20-48.5 7q-32 0-69.5-9t-80-30.5-90-57.5-98.5-91z"/><path transform="translate(53.521 11.458) scale(.010417 -.010417)" d="m-17-6q-29-17-66.5-25.5t-71.5-8.5q-7 0-19.5 0.5t-24.5 2-21 4.5-9 9q0 3 2.5 6t6.5 3q17 0 33.5-3.5t31.5-3.5q36 0 67 8t57 21q-36 38-53 82.5t-17 90.5q0 37 10.5 75t30.5 69.5 49.5 51.5 67.5 20q54-3 82-36.5t28-82.5q-2-81-44-152.5t-124-120.5q48-36 103.5-57.5t123.5-21.5q45 0 84.5 7t72.5 18 60 25.5 46 28.5q54 40 88 88t53 100.5 26.5 110 10.5 117 4.5 120.5 8.5 121q-45 0-84.5 11.5t-71.5 35.5q-4 3-4 8 0 4 3 6t6 2q4 0 6-2 29-22 66.5-32.5t80.5-10.5q6 52 23 113t47.5 114 76 88.5 108.5 35.5q47-2 77.5-27.5t30.5-78.5q0-38-17.5-73t-44.5-64.5-59-52-61-35.5q-38-17-80.5-26.5t-84.5-11.5q-7-60-8.5-121t-4-121.5-10.5-119.5-28-113.5-55-104.5-92-93q-41-30-111-55.5t-163-25.5q-64 0-123 19.5t-105 54.5zm-35 311q-30-62-30-126 0-45 16-86.5t51-76.5q36 22 65.5 51t51.5 62.5 34 71.5 12 77q0 42-24.5 71t-66.5 29q-40-4-66-23.5t-43-49.5zm790 531q-15-38-24-77t-14-80q52 2 109.5 20.5t105.5 51 79 77 31 98.5q0 24-8 40.5t-20.5 26.5-28.5 14.5-31 4.5q-39-2-70-17.5t-55.5-40.5-42.5-55.5-31-62.5z"/><path transform="translate(63.333 11.458) scale(.010417 -.010417)" d="m162-5q-92 0-140.5 31.5t-48.5 88.5q0 50 33.5 109.5t86 114.5 116 96.5 123.5 55.5q22 5 41 7.5t35 2.5q45 0 68-21t23-53q0-17-5.5-34t-13.5-17q-9 0-9 8 0 7 5 18t5 24q0 26-18.5 41.5t-56.5 15.5q-35 0-75-11.5t-81-33-81.5-53-76.5-71.5q-48-54-74-106t-26-93q0-34 18.5-54.5t45-31 56-13.5 51.5-3q14 0 23 0.5t10 0.5q0 0 12.5 1t34 4 50.5 8 63 14q32 8 72 22.5t84 36 91 51.5 94 69q4 2 6 2 9 0 9-9 0-6-3-7-77-63-165.5-111t-183.5-72q-68-17-113-22t-50-5q-2 0-11.5-0.5t-23.5-0.5z"/><path transform="translate(70.687 11.458) scale(.010417 -.010417)" d="m274-33q-40 2-60 24t-20 57q0 38 24 87t57 99 68 95.5 57 76.5q5 8 9 16t4 15q0 9-6.5 13.5t-15.5 7-18.5 3-14.5 0.5q-2 0-14.5 1t-30.5 4-38.5 8.5-36.5 14.5q-4-6-6-10-45-77-98.5-145t-116.5-125q-2-2-6-2-9 0-9 9 0 4 3 7 67 60 117.5 128t93.5 138q2 3 4 6.5t2 4.5q-15 11-21.5 25.5t-6.5 29.5 4.5 24 10.5 13.5 12 5.5 8 1q13 0 20-4.5t10-11 3.5-12.5 0.5-9q0-23-17-57 12-7 28.5-12t32.5-8 30-4.5 22-1.5q6 0 18-1t24-4.5 21-12 9-23.5-16-41.5-40.5-59.5-53-71-53-76.5-40.5-75.5-16-68q0-61 73-61 25 0 63 11t83 30 94.5 45 97.5 55q2 2 5 2t5.5-3 2.5-6q0-5-4-8-52-32-103.5-58.5t-98.5-45.5-87-29.5-69-10.5zm-60 597q-1-2-1-7 0-11 5-23.5t13-17.5q8 17 11 27.5t3 17.5q0 8-4 14t-13 6q-11-1-14-17z"/><path transform="translate(77.479 11.458) scale(.010417 -.010417)" d="m29 4q-17 0-34 2t-30.5 9.5-21.5 21.5-8 37q0 30 13.5 64.5t34 69.5 43.5 68 42 60q27 39 53.5 74t48 62 35 43 13.5 16q1 3 7 3 9 0 9-9 0-2-2-6 0 0-13.5-16t-35-42.5-48-61.5-53.5-73q-18-25-40-57t-42-66-33.5-67.5-13.5-61.5q0-18 7-28.5t18-15.5 24.5-6.5 26.5-1.5q43 0 94 17.5t102.5 46 102 64.5 93.5 74q4 2 6 2 9 0 9-9 0-4-3-7-45-38-94.5-75t-101.5-66-104.5-47-103.5-18zm334 655q0-20-14-34.5t-34-14.5-34.5 14.5-14.5 34.5 14.5 34 34.5 14 34-14 14-34z"/><path transform="translate(81.948 11.458) scale(.010417 -.010417)" d="m914 254q2-4 2-6 0-6-3-7-139-125-275-186t-275-63q-61 0-116 12.5t-93 28.5q-28 8-56.5 23.5t-51.5 37.5q-137-228-238.5-378t-162.5-212q-1-2-11.5-12.5t-26-22.5-34-21.5-34.5-9.5q-18 0-27.5 11t-9.5 28q0 26 18.5 74.5t53.5 113.5q56 104 132 212.5t162.5 211 179.5 195 184 163.5q31 54 49 86t28 49.5 14 22.5 6 5q3 0 6-2t3-7q0 1-1-1.5t-7.5-14.5-20.5-38-40-72q49 40 111.5 63t141.5 23q48 0 84.5-12.5t60.5-33.5 36-49 12-59q0-32-12-64.5t-31-63-43-58.5-49-50q-36-32-77.5-59.5t-85-47-87-30.5-83.5-11q26-6 53.5-9.5t60.5-3.5q51 0 111 11t128 38.5 143.5 74.5 157.5 120q3 3 6 3 2 0 3.5-1t3.5-2zm-1282-738q37 38 95 118t133 195 163 260.5 185 315.5q-77-63-144.5-130t-124.5-131-102-120.5-76-99.5q-58-80-103-151.5t-75.5-130-46.5-101-16-64.5q0-8 4.5-14.5t15.5-6.5 24.5 7 26.5 17 24 20 17 16zm528 534q19-5 37.5-7t35.5-2q85-1 173 38t162 106q24 21 46.5 47t40.5 54 29 58.5 11 60.5q0 25-9 49.5t-29 44-53 32-82 12.5q-58 0-101-11.5t-75.5-28.5-56.5-35.5-43-32.5q-38-66-88-149.5t-102-175.5q21-21 51-36.5t53-23.5z"/><path transform="translate(91.229 11.458) scale(.010417 -.010417)" d="m-22 220q27 24 57.5 49.5t62 52 62.5 52 60 48.5q67 55 134 108-12 0-40.5 1t-62 3-65.5 4-50 4q-9 2-9 10t9 8q2 0 5.5 0t11.5-1q108-9 210-12 67 126 123 225t98.5 167.5 71.5 104.5 43 36q4 0 11.5-3t7.5-18q0-14-5-31.5t-8-25.5q-28-73-70.5-143t-87.5-130.5-86-108-65-74.5q21 0 41.5-0.5t40.5-0.5q71 0 139 3 9 0 9-9 0-6-17-8.5t-40.5-3-47.5-0.5-38 0q-26 0-51.5 0.5t-51.5 1.5q-5-5-8-8.5t-6-6.5q-39-74-74-141t-61-118-41.5-82-16.5-32q-7-13-11-26-5-11-8-25t-3-28q0-61 77-61 45 0 91.5 13.5t91.5 34.5 86 47 75.5 51.5 60 47 39.5 33.5q4 2 6 2 9 0 9-9 0-4-3-7-57-51-118.5-93.5t-120.5-73-114.5-47.5-100.5-17q-49 0-73 22t-24 58q0 15 3.5 30t8 27 8 19.5 4.5 9.5 16.5 32 41.5 78.5 59 111 68 128.5q-1-1-24.5-20t-59.5-48-79-64-82-67.5-68.5-58-38.5-35.5q-4-4-8-4-5 0-7 3t-2 6q0 5 5 9zm423 359q23 26 64.5 74t85.5 109 84.5 130.5 61.5 139.5q3 9 3.5 15t0.5 10q0 5-2 5-11 0-42-45t-73.5-115.5-90.5-156-92-166.5z"/></svg>