<svg width="78.89" height="18.83" viewBox="0 0 78.89 18.83" xmlns="http://www.w3.org/2000/svg"><path transform="translate(0 14.448) scale(.014 -.014)" d="m654 236q15 0 15-34 0-71-66-137.5t-161-67.5q-67 0-155 53-63-67-157-67-62 0-91 31t-29 82 37.5 76.5 95.5 25.5q31 0 58-3 0 122 27 238-33 17-56.5 38t-23.5 33q0 32 14 32 20 0 41.5-11.5t46.5-17.5q62 179 170 231 38 18 80 18 158 0 158-133 0-76-57-131-79-76-240-80-11-84-11-199 0-28-7-63 35-18 68-33t81-15q25 0 49.5 21t46 46 38.5 46 28 21zm-156 422q-84 0-122-160 72 6 121.5 40.5t49.5 69.5q0 50-49 50zm-391-569q1-28 39-28t48 44q-28 14-46 14-40 0-41-30z"/><path transform="translate(8.288 14.448) scale(.014 -.014)" d="m263 109q78 0 151 62 27 23 44 42.5t26 19.5q14 0 14-28t-15-62.5-50-67.5q-86-81-236-81-119 0-162 86-15 30-15 86t22 116.5 58.5 104.5 84.5 68.5 102.5 24.5 84-27 29.5-70-21.5-70.5-55.5-46-75.5-33-81.5-32.5v-25q1-36 30-51t66-16zm-17 282q-52 0-72-121 21 14 39.5 25t32.5 21q30 22 31 50 0 25-31 25z"/><path transform="translate(14.14 14.448) scale(.014 -.014)" d="m427 236q18 0 18-30.5t-15.5-65.5-47-67.5-80.5-55.5-115.5-23-116.5 39.5-50 114 23.5 135 62 104.5 87.5 68.5 93 24.5q77 0 77-61 0-35-14.5-56t-29.5-21q-20 0-35 14t-33 14.5-34.5-17.5-27.5-46q-22-56-22-131 1-36 33-54 22-12 52-12.5t57.5 19.5 50.5 43.5 40.5 43.5 26.5 20z"/><path transform="translate(19.25 14.448) scale(.014 -.014)" d="m322 219q27-107 91-107 31 0 56 19t45 41.5 35 41.5 28 19 13-34q0-71-66-137t-147.5-65.5-145.5 143.5q-18 40-34 81l-7-137q0-19-2-37.5t-17-30.5q-39-31-79-31-47 0-47 97 0 140 33 293t64.5 230.5 49 103.5 27.5 32 22.5 6 26.5-12.5 30-38 16.5-50-8-48-22.5-46-31-46-34-50.5l-10-84q35 73 103 98 24 9 56 9 64 0 98-30.5t34-89.5-59-100-119-40zm38 117q0 36-41 36t-89-79q-14-23-24-47 104 6 142 56 12 16 12 34z"/><path transform="translate(26.39 14.448) scale(.014 -.014)" d="m263 109q78 0 151 62 27 23 44 42.5t26 19.5q14 0 14-28t-15-62.5-50-67.5q-86-81-236-81-119 0-162 86-15 30-15 86t22 116.5 58.5 104.5 84.5 68.5 102.5 24.5 84-27 29.5-70-21.5-70.5-55.5-46-75.5-33-81.5-32.5v-25q1-36 30-51t66-16zm-17 282q-52 0-72-121 21 14 39.5 25t32.5 21q30 22 31 50 0 25-31 25z"/><path transform="translate(32.242 14.448) scale(.014 -.014)" d="m176 168 6-122q0-24-25-43t-68-19q-25 0-34.5 26t-9.5 76q0 105 10.5 164.5t41.5 120.5q-46 44-46 76 0 67 72 67 37 0 65-39 20-27 29-63 14-5 35-5 29 0 67 19l26 13q12 6 21 6 29 0 58-85-9-39-19.5-75t-24.5-87-14.5-68.5 10.5-17.5q15 0 37 19t44 41.5 40.5 41.5 25.5 19q14 0 14-34 0-69-60.5-136t-138.5-66q-46 0-69 37t-24 90q0 105 47 199-22-9-49.5-9t-39.5 2q-9-38-18-76.5t-9-71.5z"/><path transform="translate(38.64 14.448) scale(.014 -.014)" d="m253-3q-143-1-195 107-18 38-18 95.5t10 122.5q20 130 77 240 29 56 65 96 79 88 176 87 43 0 67.5-23.5t24.5-67.5-26-88.5-66.5-92-89.5-99.5-96-113v-40q0-56 24-82t56-26q86 0 152 85 27 35 41 35t14-34-18.5-69.5-48.5-65-69-48.5-80-19zm83 650q-35 0-77.5-72t-63.5-189q34 52 62.5 87t49.5 61 33 47 12 43.5-16 22.5z"/><path transform="translate(43.96 14.448) scale(.014 -.014)" d="m150-3q-100 0-100 187 0 102 25 185 39 128 88 128 29 0 46-39 14-30 13-59 0-40-24-141-23-88-23-109t10.5-29 25-8 36.5 19 44 41.5 40.5 41.5 25.5 19q14 0 14-34 0-70-70.5-136.5t-150.5-65.5zm41 581q-27 40-27 86t14.5 76.5 27.5 45 30 14.5q28 0 51-41.5t23-69.5q0-52-36.5-81.5t-82.5-29.5z"/><path transform="translate(53.634 14.448) scale(.014 -.014)" d="m697 650q0-11-30-11-11 0-29 3t-67 9-104.5 6-100.5-29.5-75.5-75.5-47-103-16.5-112q0-100 46-156t128-56q148 0 227 105 24 32 39 71-73 9-112 54.5t-39 112 37 105.5 99.5 39 96-47.5 33.5-119.5q0-25-2-47 18 8 30 17t24 9q20 0 20-17 0-35-23.5-60.5t-62.5-38.5q-30-146-127.5-231t-252.5-85-242 94q-76 83-76 213 0 88 28.5 170t81 145 127.5 101 168.5 38 157.5-33 64-70zm-32-126q-21 0-21-34 0-60 48-87 3 27 3 56 0 65-30 65z"/><path transform="translate(65.52 14.448) scale(.014 -.014)" d="m163 499q36 0 68-69 47 49 116.5 49t104.5-30.5 35-86-14.5-112.5-21-81.5-6.5-40.5 11-16q15 0 37 19t44 41.5 40.5 41.5 25.5 19q14 0 14-34 0-70-69-135-116-68-148-68-3 0-4 1-80 0-80 128 0 55 10.5 101t15.5 67 5 43q0 36-41.5 36t-79-61.5-50.5-127.5v-7q0-34 10.5-70t10.5-50q0-34-85-67-13-5-23-5-25 0-34.5 26t-9.5 81q0 142 11 205 15 94 68 175 18 28 39 28z"/><path transform="translate(73.038 14.448) scale(.014 -.014)" d="m263 109q78 0 151 62 27 23 44 42.5t26 19.5q14 0 14-28t-15-62.5-50-67.5q-86-81-236-81-119 0-162 86-15 30-15 86t22 116.5 58.5 104.5 84.5 68.5 102.5 24.5 84-27 29.5-70-21.5-70.5-55.5-46-75.5-33-81.5-32.5v-25q1-36 30-51t66-16zm-17 282q-52 0-72-121 21 14 39.5 25t32.5 21q30 22 31 50 0 25-31 25z"/></svg>