<svg width="42" height="14" viewBox="0 0 42 14" xmlns="http://www.w3.org/2000/svg"><path transform="translate(0 10.5) scale(.014 -.014)" d="M419 51V0H91V655H146V51Z"/><path transform="translate(7 10.5) scale(.014 -.014)" d="m433 261-3-50h-306q5-75 40-121.5t96.5-46.5 144.5 29l15-50q-81-31-152-31-98 0-149.5 65.5t-51.5 180.5 47.5 179.5 138.5 64.5 135.5-60 44.5-160zm-176 169q-126 0-133-169h252q0 169-119 169z"/><path transform="translate(14 10.5) scale(.014 -.014)" d="m359 475h60q-70-113-161-222 62-88 167-253h-60q-80 130-145 221l-70-9v-212h-53v664h53v-404l65 10q71 92 144 205z"/><path transform="translate(21 10.5) scale(.014 -.014)" d="m160 418h-84v50h84v115l53 10v-125h190v-50h-190v-234q0-78 15.5-110t63.5-32 106 19l12-50q-58-21-108-21t-78.5 13-42 41.5-17.5 58.5-4 79z"/><path transform="translate(28 10.5) scale(.014 -.014)" d="m59 236q0 245 191 245t191-245-191-245-191 245zm191 193q-134 0-134-193t134-193 134 193-134 193z"/><path transform="translate(35 10.5) scale(.014 -.014)" d="m127 475 2-40q97 46 161 46t100.5-44 36.5-120v-317h-53v317q0 49-24 81-24 31-72 31t-149-44v-385h-53v475z"/></svg>