<svg width="88.816" height="17.5" viewBox="0 0 88.816 17.5" xmlns="http://www.w3.org/2000/svg"><path transform="translate(0 14) scale(.014 -.014)" d="M98 0V700H206V104H534V0Z"/><path transform="translate(8.386 14) scale(.014 -.014)" d="m317-10q-81 0-143.5 34.5t-98 94.5-35.5 138q0 62 20 113t55.5 88.5 85 58 107.5 20.5q51 0 95-19.5t76.5-53.5 50-80.5 16.5-101.5l-1-44h-429l-23 82h363l-15-17v24q-3 33-22 59t-48 41-63 15q-54 0-91-20.5t-56-60-19-97.5q0-55 23-95.5t65-62.5 97-22q39 0 72.5 13t72.5 47l52-73q-24-24-58.5-42t-73-28.5-75.5-10.5z"/><path transform="translate(16.59 14) scale(.014 -.014)" d="m421 0-170 221-15 19-221 285h130l167-218 17-22 218-285zm-405 0 207 270 61-73-146-197zm319 254-57 72 129 199h122z"/><path transform="translate(24.458 14) scale(.014 -.014)" d="m317-10q-81 0-143.5 34.5t-98 94.5-35.5 138q0 62 20 113t55.5 88.5 85 58 107.5 20.5q51 0 95-19.5t76.5-53.5 50-80.5 16.5-101.5l-1-44h-429l-23 82h363l-15-17v24q-3 33-22 59t-48 41-63 15q-54 0-91-20.5t-56-60-19-97.5q0-55 23-95.5t65-62.5 97-22q39 0 72.5 13t72.5 47l52-73q-24-24-58.5-42t-73-28.5-75.5-10.5z"/><path transform="translate(32.662 14) scale(.014 -.014)" d="m72 0v525h103v-108l-18-12q10 35 39 64.5t69 48 82 18.5q60 0 100-23.5t60-71.5 20-121v-320h-103v313q0 45-12 74.5t-37 43-62 11.5q-30 0-55-9.5t-43.5-26.5-29-39.5-10.5-48.5v-318h-51q-13 0-26 0t-26 0z"/><path transform="translate(40.992 14) scale(.014 -.014)" d="m291-10q-72 0-128.5 35.5t-89.5 97-33 140.5 32.5 140.5 88.5 97 127 35.5q39 0 75.5-12.5t65.5-34 45.5-47 16.5-51.5l-30-2v351h103v-740h-103v125h20q0-24-16-47.5t-42.5-43.5-61-32-70.5-12zm14 89q47 0 83 24t56.5 65.5 20.5 94.5-20.5 94.5-56.5 65.5-83 24-83-24-56.5-65.5-20.5-94.5 20.5-94.5 56.5-65.5 83-24z"/><path transform="translate(53.788 14) scale(.014 -.014)" d="m98 0v700h274q75 0 135.5-25t103.5-72 66-111 23-142-23-142.5-65.5-111-103.5-71.5-136-25zm108 93-3 11h164q53 0 94.5 17t70 48.5 43.5 77.5 15 103-15 102.5-44 77.5-70 49-94 17h-167l6 9z"/><path transform="translate(64.26 14) scale(.014 -.014)" d="m317-10q-81 0-143.5 34.5t-98 94.5-35.5 138q0 62 20 113t55.5 88.5 85 58 107.5 20.5q51 0 95-19.5t76.5-53.5 50-80.5 16.5-101.5l-1-44h-429l-23 82h363l-15-17v24q-3 33-22 59t-48 41-63 15q-54 0-91-20.5t-56-60-19-97.5q0-55 23-95.5t65-62.5 97-22q39 0 72.5 13t72.5 47l52-73q-24-24-58.5-42t-73-28.5-75.5-10.5z"/><path transform="translate(72.464 14) scale(.014 -.014)" d="m295-10q-73 0-130.5 36t-91 98-33.5 139 33.5 139 91 98 130.5 36q70 0 127.5-28.5t87.5-77.5l-57-70q-16 23-41 42t-53 30-54 11q-48 0-85.5-23.5t-59.5-64.5-22-92 23-91.5 61-64.5 84-24q27 0 52.5 9t49.5 27 45 44l57-70q-32-45-91.5-74t-123.5-29z"/><path transform="translate(79.954 14) scale(.014 -.014)" d="m274-10q-65 0-118.5 36t-85.5 98-32 140q0 79 32.5 140.5t88 96.5 124.5 35q41 0 75-12t59.5-33.5 42-49.5 20.5-60l-23 8v136h104v-525h-104v125l24 7q-6-27-24.5-52.5t-47-45.5-63-32-72.5-12zm27 95q47 0 83 23t56.5 63.5 20.5 92.5q0 51-20.5 91t-56.5 63-83 23q-46 0-81.5-23t-56-63-20.5-91q0-52 20.5-92.5t56-63.5 81.5-23z"/></svg>