<svg width="131.68" height="15.96" viewBox="0 0 131.68 15.96" xmlns="http://www.w3.org/2000/svg"><path transform="translate(0 12.516) scale(.014 -.014)" d="m192 109q0-15 3.5-34t15.5-32.5 38-13.5h73q53 0 85 18t50 47.5 28 65.5q9 1 12 0t11-5q-5-39-12-80.5t-14-79.5q0 0-14.5 1t-35.5 1.5-40.5 1.5-29.5 1h-212q-23 0-58.5-2t-71.5-3q-5 5-5 12t5 11q35 2 53 7t25.5 24 8.5 60q1 42 1.5 74t1 64.5 0.5 73.5q0 42-0.5 74.5t-1 66-1.5 74.5q-1 42-8.5 60.5t-25.5 24-53 6.5q-5 5-5 12t5 11q37-1 64-3t65-2 65.5 2 64.5 3q4-4 4-11t-4-12q-35-1-53.5-6.5t-25.5-24-8-60.5q-2-42-2.5-75t-0.5-66 0-75q0-41 0-73.5t1-64.5 2-73z"/><path transform="translate(7.168 12.516) scale(.014 -.014)" d="m80 599q0 18 17 33t35 15q20 0 34-17t14-35q0-16-15.5-32t-36.5-16q-18 0-33 16.5t-15 35.5zm96-490q2-42 7-60.5t20-23.5 45-7q5-4 5-11t-5-12q-22 2-53.5 3.5t-54.5 1.5q-22 0-55.5-1.5t-53.5-3.5q-4 5-4 12t4 11q31 3 45.5 8t20 23.5 6.5 59.5q1 23 1.5 56t0.5 56q0 22-0.5 43t-1.5 43q-1 29-6 42.5t-18.5 18-40.5 7.5q-1 5-2 9.5t0 8.5q52 7 82 14t51 15q13 0 13-7 0 0-1-15.5t-2.5-39.5-2.5-49q-1-22-1.5-45.5t-0.5-45.5q0-23 0.5-55.5t1.5-55.5z"/><path transform="translate(10.906 12.516) scale(.014 -.014)" d="m159 376q23 20 49.5 31.5t57.5 11.5q42 0 80.5-23t63.5-65 25-100q0-57-19-101.5t-50-76-68.5-47.5-73.5-16q-53 0-88 29-13 12-26-3-5-7-15.5-15t-15.5-12q-8 0-9.5 2.5t-5.5 8.5q2 10 7 25t6 43q1 13 1 51t0.5 91.5 0.5 111.5 0 111.5 0 92-1 50.5q-1 34-6 50t-17.5 21.5-37.5 6.5q-8 8-5 19 19 2 44.5 6t49 9 35.5 10q12 0 12-9 0 0-0.5-21.5t-2.5-68.5q-1-15-1-41.5t-0.5-57-0.5-58 0-45 0-17.5q0-13 11-4zm7-20q-9-8-13.5-16.5t-4.5-23.5q0 0 0-21.5t0-55 0.5-69.5 0.5-66.5 1-45.5q14-18 30-31.5t38-13.5q46 0 77 27.5t47.5 73.5 16.5 100q0 36-8.5 69t-24.5 57q-16 23-37 35t-42 12-41.5-7-39.5-24z"/><path transform="translate(17.5 12.516) scale(.014 -.014)" d="m378 89q16-1 20-16-28-37-70.5-60t-96.5-23q-52 0-89.5 16.5t-61.5 44.5q-23 27-34 64.5t-11 77.5q0 73 30 123t75.5 76.5 90.5 26.5q67 0 102.5-25.5t49.5-64 14-78.5q0-17-18-17l-268-4q0-85 30-134 23-37 56-53t58-16q41 0 69 17.5t54 44.5zm-264 170 193 5q14 0 14 13 0 60-27.5 89.5t-62.5 29.5q-18 0-42-11.5t-45-41.5-30-84z"/><path transform="translate(23.59 12.516) scale(.014 -.014)" d="m101 312q-1 39-12.5 50t-49.5 15q-5 8-2 17 50 7 74 13.5t44 13.5q10 0 12-6 2-4 2.5-24t0.5-43q0-4 1.5-10t6.5 1q24 36 51.5 58t54.5 22q35 0 46.5-16t11.5-30q0-18-14-31t-31-13q-15 0-25 10.5t-15 20.5q-3 6-8.5 7.5t-10.5 1.5-14-9.5-17-21.5-13-20q-7-13-14.5-31.5t-8.5-37.5q0-9-0.5-34t-0.5-55.5 1-55.5q2-39 7-56t21.5-22 49.5-8q5-4 5-11t-5-12q-25 2-58 3.5t-55 1.5-52-1.5-53-3.5q-4 5-4 12t4 11q30 3 44 7.5t19 22 7 56.5q1 25 1.5 64.5t0 79-1.5 64.5z"/><path transform="translate(28.588 12.516) scale(.014 -.014)" d="m47 409h44q0 53-1 79t-1.5 36.5-0.5 15.5q0 8 10.5 10.5t22.5 7.5q11 5 21.5 11t15.5 6q7 0 7-9 0 0-1.5-26.5t-2.5-73.5l-1-57h115q7 0 7-6v-11q0-7-7.5-9.5t-15.5-2.5h-99q-2-44-3.5-95t-2-95 0.5-69q2-44 7.5-66t24.5-22 42.5 10 42.5 24q8-2 10-14-28-31-62-47t-67-16-50 22-17 73q0 30 1.5 81.5t2.5 109 1 104.5h-56q-5 0-5 6v9q0 14 17 14z"/><path transform="translate(32.788 12.516) scale(.014 -.014)" d="m80 599q0 18 17 33t35 15q20 0 34-17t14-35q0-16-15.5-32t-36.5-16q-18 0-33 16.5t-15 35.5zm96-490q2-42 7-60.5t20-23.5 45-7q5-4 5-11t-5-12q-22 2-53.5 3.5t-54.5 1.5q-22 0-55.5-1.5t-53.5-3.5q-4 5-4 12t4 11q31 3 45.5 8t20 23.5 6.5 59.5q1 23 1.5 56t0.5 56q0 22-0.5 43t-1.5 43q-1 29-6 42.5t-18.5 18-40.5 7.5q-1 5-2 9.5t0 8.5q52 7 82 14t51 15q13 0 13-7 0 0-1-15.5t-2.5-39.5-2.5-49q-1-22-1.5-45.5t-0.5-45.5q0-23 0.5-55.5t1.5-55.5z"/><path transform="translate(36.526 12.516) scale(.014 -.014)" d="m175 341q44 49 88 63.5t79 14.5q25 0 47-8.5t34-24.5 15.5-37.5 3.5-47.5q0-10-0.5-21t-0.5-22q-3-77 0-154 2-39 6.5-56t18-22 39.5-8q4-4 4-11t-4-12q-31 1-50 3t-48 2q-28 0-47-2t-49-3q-4 5-4 12t4 11q25 3 37 8t16 22 6 56q2 38 2 84t-2 83q-1 22-1.5 41t-8.5 33q-8 17-22.5 25.5t-28.5 8.5q-28 0-63.5-15t-62.5-41q-6-7-10.5-16t-5.5-24q-1-24-1-57t0-66 1-56q1-39 5-56t16-22 36-8q5-4 5-11t-5-12q-30 1-46.5 3t-44.5 2q-31 0-52.5-2t-50.5-3q-4 5-4 12t4 11q29 3 42.5 8t18.5 22 6 56q1 25 1 64t0 78.5-1 65.5q-1 28-6 41t-17.5 17.5-38.5 6.5q-1 5-2 9t0 8q50 7 78 13.5t48 13.5q12 0 12-7 0 0-1-12t-2.5-29-1.5-32q0-10 3.5-6.5t5.5 6.5z"/><path transform="translate(43.876 12.516) scale(.014 -.014)" d="m197-10q-47 0-72 19t-33.5 48.5-7.5 62.5q1 25 1.5 61.5t0 73-1.5 61.5q-1 31-6 46.5t-17.5 21-35.5 7.5q-4 5-4 12t4 11q26-1 47-1.5t44-0.5 33 2q8 0 8-6 0 0-1-16t-1.5-36.5-1.5-35.5q-1-25-1.5-59t0-68.5 1.5-59.5q2-42 7.5-65.5t20-33 44.5-9.5q18 0 49 16.5t57 39.5q10 9 12 11.5t3 15.5q1 25 1.5 64t0 78-1.5 64q-2 47-13 61t-46 16q-4 5-4 12t4 11q26-1 47-1.5t44-0.5q24 0 34 2 7 0 7-6 0 0-0.5-16t-1.5-36.5-2-35.5q-1-25-1.5-64t0-78 1.5-64q1-35 12.5-50.5t57.5-19.5q8-7 0-15-43-5-66.5-15.5t-39.5-23.5q-5-1-9-1.5t-9 1.5q0 0-5.5 20.5t-5.5 36.5q0 5-5 4.5t-9-3.5q-35-28-73-43t-66-15z"/><path transform="translate(50.974 12.516) scale(.014 -.014)" d="m46 126q10 10 19 1 5-18 15-45t27-44q8-7 26.5-16.5t46.5-9.5q18 0 37.5 9.5t33 27 13.5 40.5q0 31-20.5 51t-79.5 45q-51 22-78 48.5t-27 78.5q0 50 39 78.5t96 28.5q38 0 70-7.5t54-11.5q-1-23-2-46.5t-3-49.5q-10-10-21-1-6 41-22.5 61t-37 26.5-38.5 6.5q-29 0-50-21t-21-50q0-39 28-57.5t71-35.5q49-19 80.5-46t31.5-76q0-35-16-58.5t-40-37-50-19.5-46-6q-26 0-46.5 3t-40.5 8q-5 2-9.5 2t-9.5 0q-9 0-24-3 0 30-1.5 60.5t-4.5 65.5z"/><path transform="translate(59.71 12.516) scale(.014 -.014)" d="m395 631q7-40 11-66.5t7-62.5q-7-5-10.5-5.5t-12.5-0.5q-10 33-28.5 65t-50 52.5-79.5 20.5q-30 0-55-19t-41-47-16-56q0-37 22-63t53.5-44.5 62.5-30 49-19.5q36-15 67-37t50.5-54 19.5-80-25.5-91-68.5-70q-53-33-123-33-45 0-73 5.5t-51.5 11.5-55.5 6q-6 25-9.5 44.5t-6 44.5-4.5 63q7 4 10 5t13-2q16-75 65.5-113.5t119.5-38.5q60 0 93.5 36t33.5 97q0 43-17 70.5t-43 44.5-54.5 28-52.5 21q-38 17-71 39t-53 54-20 79q0 53 26.5 92t70 60 93.5 21q37 0 58-3t34-7.5 26.5-9 35.5-7.5z"/><path transform="translate(66.5 12.516) scale(.014 -.014)" d="m378 89q16-1 20-16-28-37-70.5-60t-96.5-23q-52 0-89.5 16.5t-61.5 44.5q-23 27-34 64.5t-11 77.5q0 73 30 123t75.5 76.5 90.5 26.5q67 0 102.5-25.5t49.5-64 14-78.5q0-17-18-17l-268-4q0-85 30-134 23-37 56-53t58-16q41 0 69 17.5t54 44.5zm-264 170 193 5q14 0 14 13 0 60-27.5 89.5t-62.5 29.5q-18 0-42-11.5t-45-41.5-30-84z"/><path transform="translate(72.59 12.516) scale(.014 -.014)" d="m101 312q-1 39-12.5 50t-49.5 15q-5 8-2 17 50 7 74 13.5t44 13.5q10 0 12-6 2-4 2.5-24t0.5-43q0-4 1.5-10t6.5 1q24 36 51.5 58t54.5 22q35 0 46.5-16t11.5-30q0-18-14-31t-31-13q-15 0-25 10.5t-15 20.5q-3 6-8.5 7.5t-10.5 1.5-14-9.5-17-21.5-13-20q-7-13-14.5-31.5t-8.5-37.5q0-9-0.5-34t-0.5-55.5 1-55.5q2-39 7-56t21.5-22 49.5-8q5-4 5-11t-5-12q-25 2-58 3.5t-55 1.5-52-1.5-53-3.5q-4 5-4 12t4 11q30 3 44 7.5t19 22 7 56.5q1 25 1.5 64.5t0 79-1.5 64.5z"/><path transform="translate(77.588 12.516) scale(.014 -.014)" d="m80 599q0 18 17 33t35 15q20 0 34-17t14-35q0-16-15.5-32t-36.5-16q-18 0-33 16.5t-15 35.5zm96-490q2-42 7-60.5t20-23.5 45-7q5-4 5-11t-5-12q-22 2-53.5 3.5t-54.5 1.5q-22 0-55.5-1.5t-53.5-3.5q-4 5-4 12t4 11q31 3 45.5 8t20 23.5 6.5 59.5q1 23 1.5 56t0.5 56q0 22-0.5 43t-1.5 43q-1 29-6 42.5t-18.5 18-40.5 7.5q-1 5-2 9.5t0 8.5q52 7 82 14t51 15q13 0 13-7 0 0-1-15.5t-2.5-39.5-2.5-49q-1-22-1.5-45.5t-0.5-45.5q0-23 0.5-55.5t1.5-55.5z"/><path transform="translate(81.326 12.516) scale(.014 -.014)" d="m95 480q-2 47 7 84t27 63q23 36 58 53.5t70 17.5q27 0 47-3.5t39-16.5q31-23 31-48 0-14-14.5-25.5t-26.5-11.5q-15 0-23.5 8.5t-14.5 21.5q-10 25-22 39t-34 14q-15 0-32.5-13.5t-28.5-51.5q-6-20-9.5-48.5t-4.5-66.5q0-12-0.5-35t-0.5-52h104q7 0 7-6v-15q0-7-7-7.5t-14-0.5h-90q0-51 0-107.5t0-102.5 1-66q1-39 6.5-56.5t21-22.5 47.5-7q5-4 5-11t-5-12q-31 1-55 3t-57 2q-28 0-46-2t-48-3q-4 5-4 12t4 11q26 2 38.5 7t17.5 22.5 6 56.5q1 16 1 46.5t0.5 70 0 81-0.5 78.5h-67q-5 0-5 6v9q0 6 4.5 10t17.5 4h50q0 48-1 71z"/><path transform="translate(89.124 12.516) scale(.014 -.014)" d="m148 645q29 0 76 2.5t98 2.5q72 0 135-27t110.5-74.5 74.5-109 27-131.5q0-92-31-153t-80.5-96-107-49.5-110.5-14.5q-77 0-120 2.5t-70 2.5q-38 0-65.5-2t-64.5-3q-4 5-4 12t4 11q35 2 53 7t25 24 8 60q1 42 2 74t1.5 64.5 0.5 73.5q0 42-0.5 74.5t-1.5 66-2 74.5q-1 42-8 60.5t-25 24-53 6.5q-4 5-4 12t4 11q38-1 64.5-3t63.5-2zm44-536q1-31 7.5-51t31-29.5 78.5-9.5q53 0 101.5 13t86.5 43.5 60 81.5 22 127q0 58-16 118t-50.5 111-91 82-137.5 31q-46 0-65-9.5t-22.5-29.5-4.5-51q-1-42-2-75t-1.5-66-0.5-75q0-41 0.5-73.5t1.5-64.5 2-73z"/><path transform="translate(98.994 12.516) scale(.014 -.014)" d="m80 599q0 18 17 33t35 15q20 0 34-17t14-35q0-16-15.5-32t-36.5-16q-18 0-33 16.5t-15 35.5zm96-490q2-42 7-60.5t20-23.5 45-7q5-4 5-11t-5-12q-22 2-53.5 3.5t-54.5 1.5q-22 0-55.5-1.5t-53.5-3.5q-4 5-4 12t4 11q31 3 45.5 8t20 23.5 6.5 59.5q1 23 1.5 56t0.5 56q0 22-0.5 43t-1.5 43q-1 29-6 42.5t-18.5 18-40.5 7.5q-1 5-2 9.5t0 8.5q52 7 82 14t51 15q13 0 13-7 0 0-1-15.5t-2.5-39.5-2.5-49q-1-22-1.5-45.5t-0.5-45.5q0-23 0.5-55.5t1.5-55.5z"/><path transform="translate(102.73 12.516) scale(.014 -.014)" d="m46 126q10 10 19 1 5-18 15-45t27-44q8-7 26.5-16.5t46.5-9.5q18 0 37.5 9.5t33 27 13.5 40.5q0 31-20.5 51t-79.5 45q-51 22-78 48.5t-27 78.5q0 50 39 78.5t96 28.5q38 0 70-7.5t54-11.5q-1-23-2-46.5t-3-49.5q-10-10-21-1-6 41-22.5 61t-37 26.5-38.5 6.5q-29 0-50-21t-21-50q0-39 28-57.5t71-35.5q49-19 80.5-46t31.5-76q0-35-16-58.5t-40-37-50-19.5-46-6q-26 0-46.5 3t-40.5 8q-5 2-9.5 2t-9.5 0q-9 0-24-3 0 30-1.5 60.5t-4.5 65.5z"/><path transform="translate(107.97 12.516) scale(.014 -.014)" d="m159 351q25 32 54 50t72 18q49 0 87-23t60-64.5 22-97.5q0-58-18.5-107.5t-52.5-82.5q-29-28-64.5-41t-75.5-13q-22 0-41.5 4t-36.5 11q-7 3-11 2.5t-4-9.5q0 0 0-23.5t0.5-55.5 1.5-57q2-39 7-57t21-23 50-7q11-10 0-21-31 1-55.5 3t-57.5 2q-30 0-51.5-2t-51.5-3q-10 11 0 21 29 2 43 7t18.5 23 6.5 57q1 13 1 47t0.5 80.5 0.5 97.5-0.5 97.5-0.5 81-1 46.5q-1 27-6 40t-17.5 18-38.5 7q-1 5-2 9t0 8q50 7 76.5 13.5t46.5 13.5q12 0 12-6 0 0-1.5-17.5t-1.5-43.5q0-5 3.5-5.5t5.5 2.5zm8-23q-8-10-11-23.5t-4-28.5q-1-19-1.5-48t-0.5-58.5 0-49.5 0-20q0-25 5-39.5t19-27.5q13-11 31.5-15.5t31.5-4.5q40 0 67 19t43.5 49 23.5 64 7 63q0 89-35.5 133t-81.5 44q-27 0-50.5-16t-43.5-41z"/><path transform="translate(114.86 12.516) scale(.014 -.014)" d="m93 103q1 21 1.5 60.5t1 89.5 0.5 102q0 70-1 131t-2 90q-2 35-6.5 51t-17 21-37.5 6q-4 5-4 9t1 10q19 2 44.5 6t48.5 9 35 10q13 0 13-9 0 0-1.5-21.5t-2.5-68.5q0-22-0.5-64.5t-1-96.5-0.5-109q0-72 0.5-135t1.5-91q1-39 6-56.5t19.5-22 43.5-6.5q5-5 4.5-12t-4.5-11q-31 1-53 3t-53 2-53-2-52-3q-4 4-4.5 11t4.5 12q29 2 43.5 6.5t19.5 22 6 56.5z"/><path transform="translate(118.4 12.516) scale(.014 -.014)" d="m288 46h-2l-19-15q-31-24-52-32.5t-54-8.5q-50 0-84.5 21.5t-34.5 76.5q0 49 44 84t113 50l90 20q2 1 3.5 8.5t1.5 12.5q0 54-12 83t-29.5 40-33.5 11q-27 0-52-11t-25-34q0-13 2-19 3-6 3-17 0-9-11.5-23t-32.5-14q-16 0-27 11t-11 28q0 26 24 49t61.5 37.5 76.5 14.5q35 0 67-12.5t51.5-47.5 17.5-102l-5-142q-1-41 5.5-63t34.5-22q15 0 20 8t9 8q3 0 8.5-4t5.5-9q0-2-10.5-13t-28.5-20.5-42-9.5q-25 0-40 10t-22 23-10 23zm5 166-82-20q-53-13-74.5-42.5t-21.5-57.5q0-15 8.5-31.5t25-28.5 40.5-12q20 0 43.5 18t42.5 33q12 9 13 24z"/><path transform="translate(124.75 12.516) scale(.014 -.014)" d="m185-173q-25-46-51-57t-41-11q-19 0-32 10t-13 25q0 9 9 21t30 12q8 0 14.5-2.5t16.5-2.5q18 0 33 12t22 26q11 23 20.5 43.5t17.5 44.5q8 20 5.5 46.5t-18.5 62.5l-108 251q-19 46-33.5 63t-46.5 20q-4 5-4 12t4 11q14-2 38-3.5t39-1.5q21 0 53.5 2t54.5 3q5-4 5-11t-5-12q-29-2-38-12t-5.5-26 11.5-36l85-198q12-28 18-28t18 27l95 219q11 26-7.5 39t-41.5 15q-4 5-4 12t4 11q23-2 46.5-3.5t40.5-1.5 33.5 1.5 34.5 3.5q5-4 5-11t-5-12q-17-1-34-13.5t-29.5-29-19.5-30.5q-25-53-51.5-112.5t-57-132-68.5-164.5q-9-21-19-41.5t-21-40.5z"/></svg>