<svg width="322.56" height="16" viewBox="0 0 322.56 16" xmlns="http://www.w3.org/2000/svg"><path transform="translate(0 9.6) scale(.016 -.016)" d="M0 0V590H30V0ZM60 0V590H150V0ZM180 0V590H210V0ZM240 0V590H270V0ZM360 0V590H450V0Z"/><path transform="translate(7.68 9.6) scale(.016 -.016)" d="M0 0V590H30V0ZM120 0V590H150V0ZM180 0V590H210V0ZM300 0V590H330V0ZM420 0V590H450V0ZM480 0V590H510V0ZM540 0V590H630V0ZM660 0V590H690V0ZM780 0V590H870V0ZM900 0V590H930V0Z"/><path transform="translate(23.04 9.6) scale(.016 -.016)" d="M0 0V590H30V0ZM120 0V590H150V0ZM180 0V590H210V0ZM300 0V590H330V0ZM420 0V590H450V0ZM480 0V590H510V0ZM540 0V590H630V0ZM660 0V590H690V0ZM780 0V590H810V0ZM840 0V590H930V0Z"/><path transform="translate(38.4 9.6) scale(.016 -.016)" d="M0 0V590H30V0ZM120 0V590H150V0ZM180 0V590H210V0ZM300 0V590H330V0ZM420 0V590H450V0ZM480 0V590H570V0ZM600 0V590H630V0ZM660 0V590H690V0ZM720 0V590H810V0ZM900 0V590H930V0Z"/><path transform="translate(53.76 9.6) scale(.016 -.016)" d="M0 0V590H30V0ZM120 0V590H150V0ZM180 0V590H210V0ZM300 0V590H330V0ZM420 0V590H450V0ZM480 0V590H570V0ZM600 0V590H630V0ZM660 0V590H750V0ZM840 0V590H870V0ZM900 0V590H930V0Z"/><path transform="translate(76.8 9.6) scale(.016 -.016)" d="M0 0V590H30V0ZM60 0V590H150V0ZM180 0V590H210V0ZM300 0V590H330V0ZM360 0V590H450V0Z"/><path transform="translate(84.48 9.6) scale(.016 -.016)" d="M0 0V590H30V0ZM120 0V590H150V0ZM180 0V590H210V0ZM300 0V590H330V0ZM420 0V590H450V0ZM480 0V590H570V0ZM600 0V590H630V0ZM660 0V590H690V0ZM780 0V590H810V0ZM840 0V590H930V0Z"/><path transform="translate(99.84 9.6) scale(.016 -.016)" d="M0 0V590H30V0ZM120 0V590H150V0ZM180 0V590H210V0ZM300 0V590H330V0ZM420 0V590H450V0ZM480 0V590H570V0ZM600 0V590H630V0ZM660 0V590H690V0ZM720 0V590H810V0ZM900 0V590H930V0Z"/><path transform="translate(115.2 9.6) scale(.016 -.016)" d="M0 0V590H30V0ZM120 0V590H150V0ZM180 0V590H210V0ZM300 0V590H330V0ZM420 0V590H450V0ZM480 0V590H570V0ZM600 0V590H690V0ZM720 0V590H750V0ZM840 0V590H870V0ZM900 0V590H930V0Z"/><path transform="translate(130.56 9.6) scale(.016 -.016)" d="M0 0V590H30V0ZM120 0V590H150V0ZM180 0V590H210V0ZM300 0V590H330V0ZM420 0V590H450V0ZM480 0V590H570V0ZM600 0V590H630V0ZM660 0V590H750V0ZM780 0V590H810V0ZM900 0V590H930V0Z"/><path transform="translate(145.92 9.6) scale(.016 -.016)" d="M0 0V590H30V0ZM120 0V590H150V0ZM180 0V590H210V0ZM300 0V590H330V0ZM420 0V590H450V0ZM480 0V590H510V0ZM540 0V590H570V0ZM600 0V590H690V0ZM780 0V590H810V0ZM840 0V590H930V0Z"/><path transform="translate(161.28 9.6) scale(.016 -.016)" d="M0 0V590H30V0ZM120 0V590H150V0ZM180 0V590H210V0ZM300 0V590H330V0ZM420 0V590H450V0ZM480 0V590H570V0ZM600 0V590H630V0ZM660 0V590H750V0ZM840 0V590H870V0ZM900 0V590H930V0Z"/><path transform="translate(184.32 9.6) scale(.016 -.016)" d="M0 0V590H90V0ZM120 0V590H210V0ZM300 0V590H330V0ZM360 0V590H390V0ZM420 0V590H450V0Z"/><path transform="translate(192 9.6) scale(.016 -.016)" d="M0 0V590H30V0ZM60 0V590H150V0ZM240 0V590H270V0ZM300 0V590H390V0ZM420 0V590H450V0Z"/><path transform="translate(207.36 9.6) scale(.016 -.016)" d="M0 0V590H90V0ZM120 0V590H150V0ZM180 0V590H270V0ZM360 0V590H390V0ZM420 0V590H450V0Z"/><path transform="translate(215.04 9.6) scale(.016 -.016)" d="M0 0V590H30V0ZM120 0V590H150V0ZM180 0V590H210V0ZM300 0V590H330V0ZM420 0V590H450V0ZM480 0V590H510V0ZM600 0V590H630V0ZM660 0V590H750V0ZM780 0V590H810V0ZM840 0V590H930V0Z"/><path transform="translate(230.4 9.6) scale(.016 -.016)" d="M0 0V590H30V0ZM120 0V590H150V0ZM180 0V590H210V0ZM300 0V590H330V0ZM420 0V590H450V0ZM480 0V590H510V0ZM540 0V590H570V0ZM600 0V590H690V0ZM720 0V590H810V0ZM900 0V590H930V0Z"/><path transform="translate(245.76 9.6) scale(.016 -.016)" d="M0 0V590H30V0ZM120 0V590H150V0ZM180 0V590H210V0ZM300 0V590H330V0ZM420 0V590H450V0ZM480 0V590H570V0ZM600 0V590H630V0ZM660 0V590H750V0ZM840 0V590H870V0ZM900 0V590H930V0Z"/><path transform="translate(261.12 9.6) scale(.016 -.016)" d="M0 0V590H30V0ZM120 0V590H150V0ZM180 0V590H210V0ZM300 0V590H330V0ZM420 0V590H450V0ZM480 0V590H510V0ZM540 0V590H570V0ZM600 0V590H690V0ZM720 0V590H750V0ZM840 0V590H930V0Z"/><path transform="translate(276.48 9.6) scale(.016 -.016)" d="M0 0V590H30V0ZM120 0V590H150V0ZM180 0V590H210V0ZM300 0V590H330V0ZM420 0V590H450V0ZM480 0V590H510V0ZM540 0V590H570V0ZM600 0V590H690V0ZM780 0V590H810V0ZM840 0V590H930V0Z"/><path transform="translate(291.84 9.6) scale(.016 -.016)" d="M0 0V590H30V0ZM120 0V590H150V0ZM180 0V590H210V0ZM300 0V590H330V0ZM420 0V590H450V0ZM480 0V590H570V0ZM600 0V590H630V0ZM660 0V590H750V0ZM840 0V590H870V0ZM900 0V590H930V0Z"/><path transform="translate(307.2 9.6) scale(.016 -.016)" d="M0 0V590H30V0ZM120 0V590H150V0ZM180 0V590H210V0ZM300 0V590H330V0ZM420 0V590H450V0ZM480 0V590H510V0ZM540 0V590H570V0ZM600 0V590H690V0ZM780 0V590H810V0ZM840 0V590H930V0Z"/></svg>