<svg width="101.64" height="14" viewBox="0 0 101.64 14" xmlns="http://www.w3.org/2000/svg"><path transform="translate(0 8.4) scale(.014 -.014)" d="m0 0v590h30v-590zm120 0v590h60v-590zm90 0v590h90v-590zm-113-87h30v-3q-2-2-3-5 0-2 0-9v-193h111v-22h-138z"/><path transform="translate(4.62 8.4) scale(.014 -.014)" d="m0 0v590h30v-590zm150 0v590h60v-590zm90 0v590h30v-590zm-131-297h44v126h-42v22h68v-148h40v-22h-110zm56 184q-8 0-14 5-5 6-5 14t5 13q5 6 14 6 7 0 13-6t6-13q0-8-6-14-6-5-13-5z"/><path transform="translate(9.24 8.4) scale(.014 -.014)" d="m0 0v590h30v-590zm90 0v590h30v-590zm150 0v590h60v-590zm-69-323q-15 0-28 7t-22 19l-10-22h-17v247h31v-2q-2-3-3-5-1-3-1-9v-87q9 14 23 22t28 8q32 0 51-22 19-23 19-65 0-29-10-50t-27-31q-16-10-34-10zm-3 24q20 0 33 16 13 15 13 49 0 33-12 49-13 17-34 17t-34-19q-13-18-13-48 0-64 47-64z"/><path transform="translate(13.86 8.4) scale(.014 -.014)" d="m0 0v590h30v-590zm90 0v590h30v-590zm90 0v590h120v-590zm17-145q27 0 45-19l-12-20-1-4-3 2q-1 4-2 6-2 3-7 6-9 6-22 6t-25-7q-12-6-19-20-8-14-8-34v-90h-27v170h28l-1-31q7 16 22 26 15 9 32 9z"/><path transform="translate(18.48 8.4) scale(.014 -.014)" d="m0 0v590h30v-590zm60 0v590h60v-590zm120 0v590h30v-590zm-7-323q-38 0-60 23-23 23-23 65 0 28 11 49 10 20 28 30 17 11 39 11 31 0 50-20 19-21 19-61 0-4 0-12h-121q1-31 17-47t41-16q27 0 44 19l15-15q-22-26-60-26zm37 106q0 24-12 38t-32 14q-18 0-32-13t-17-39z"/><path transform="translate(27.72 8.4) scale(.014 -.014)" d="m0 0v590h30v-590zm120 0v590h30v-590zm60 0v590h60v-590zm-90-87h66q38 0 57-15 20-15 20-42 0-17-9-31-10-14-26-20 20-7 32-23 12-17 12-36 0-30-22-48-21-17-65-17h-65zm62-96q55 0 55 37 0 16-13 26-12 11-38 11h-41v-74zm8-113q54 0 54 44 0 47-61 47h-38v-91z"/><path transform="translate(32.34 8.4) scale(.014 -.014)" d="m0 0v590h30v-590zm90 0v590h30v-590zm60 0v590h60v-590zm13-145q36 0 55-19t19-65v-90h-29v26q-15-30-58-30-28 0-44 13t-16 34q0 18 12 31 11 13 31 21 19 7 43 7 21 0 38-2-2 28-15 40t-38 12q-13 0-24-5-12-5-22-14l-13 17q24 24 61 24zm-10-158q28 0 44 17 16 16 17 46-17 3-36 3-28 0-45-10-16-9-16-28 0-28 36-28z"/><path transform="translate(36.96 8.4) scale(.014 -.014)" d="m0 0v590h30v-590zm90 0v590h30v-590zm90 0v590h120v-590zm17-145q27 0 45-19l-12-20-1-4-3 2q-1 4-2 6-2 3-7 6-9 6-22 6t-25-7q-12-6-19-20-8-14-8-34v-90h-27v170h28l-1-31q7 16 22 26 15 9 32 9z"/><path transform="translate(41.58 8.4) scale(.014 -.014)" d="m0 0v590h30v-590zm150 0v590h30v-590zm60 0v590h60v-590zm-32-323q-25 0-44 11-19 12-30 32t-11 46q0 25 11 45t30 32q19 11 44 11 20 0 37-8 16-8 27-23l-19-19-2 2q0 3-2 6-1 2-5 6-8 7-17 10-10 4-22 4-15 0-27-8-13-8-20-23-8-14-8-33t8-35q8-15 21-23 14-9 30-9 26 0 45 21l15-18q-25-27-61-27z"/><path transform="translate(46.2 8.4) scale(.014 -.014)" d="m0 0v590h30v-590zm120 0v590h120v-590zm150 0v590h30v-590zm-105-322q-23 0-41 11-17 11-27 31-11 20-11 46t11 46q10 20 27 31 18 12 41 12t40-12q18-11 28-31t10-46-10-46-28-31q-17-11-40-11zm0 22q14 0 26 9 11 8 18 23 6 16 6 35 0 29-14 47t-36 18-36-18-14-47q0-19 6-35 7-15 18-23 11-9 26-9z"/><path transform="translate(50.82 8.4) scale(.014 -.014)" d="m0 0v590h30v-590zm150 0v590h30v-590zm90 0v590h60v-590zm-81-323q-18 0-34 11-16 10-26 30-10 21-10 50t10 49q11 19 27 29 16 9 34 9t30-7q13-8 20-22v102h28v-2q-2-3-3-5 0-3 0-9v-205q0-9 1-14 0-6 3-12h-26q-3 6-4 12 0 5 0 14-8-14-21-22t-29-8zm4 24q23 0 34 18t11 48-12 48-35 18q-22 0-34-16-12-17-12-45 0-33 12-52 13-19 36-19z"/><path transform="translate(55.44 8.4) scale(.014 -.014)" d="m0 0v590h30v-590zm60 0v590h60v-590zm120 0v590h30v-590zm-7-323q-38 0-60 23-23 23-23 65 0 28 11 49 10 20 28 30 17 11 39 11 31 0 50-20 19-21 19-61 0-4 0-12h-121q1-31 17-47t41-16q27 0 44 19l15-15q-22-26-60-26zm37 106q0 24-12 38t-32 14q-18 0-32-13t-17-39z"/><path transform="translate(64.68 8.4) scale(.014 -.014)" d="m0 0v590h30v-590zm90 0v590h90v-590zm150 0v590h60v-590zm-82-119-47-14-6 14 60 32h19v-232h-26z"/><path transform="translate(69.3 8.4) scale(.014 -.014)" d="m0 0v590h60v-590zm120 0v590h90v-590zm150 0v590h30v-590zm-171-298 30 30q30 30 45 48 15 17 24 34 9 16 9 35 0 22-10 32-11 10-29 10-28 0-47-23-4-6-4-10 0-3 0-4l-2-2-2 2-19 15q11 22 30 33 19 12 44 12 29 0 48-18 18-18 18-48 0-20-10-39-9-19-24-36t-42-44l-25-25h86q6 0 9 0 2 1 5 3h2v-26h-136z"/><path transform="translate(73.92 8.4) scale(.014 -.014)" d="m0 0v590h90v-590zm120 0v590h30v-590zm90 0v590h60v-590zm-45-323q-21 0-37 8-17 9-25 23-9 14-9 31 0 20 13 38 13 17 34 27-16 8-26 23t-10 31q0 25 16 41 16 17 46 17t46-16q15-15 15-39 0-17-10-32t-27-24q20-9 33-27 12-17 12-37 0-18-9-32-9-15-25-23-16-9-37-9zm6 137q14 8 23 20 9 13 9 26 0 14-10 24-9 10-27 10-17 0-27-10-9-9-9-23 0-16 10-26t31-21zm-5-113q21 0 32 11 12 11 12 29 0 17-14 31-13 15-36 22-17-7-28-22-11-14-11-30 0-18 12-29 12-12 33-12z"/><path transform="translate(83.16 8.4) scale(.014 -.014)" d="M0 0V590H60V0ZM90 0V590H180V0ZM270 0V590H300V0ZM149 -110H84V-87H244V-110H176V-319H149Z"/><path transform="translate(87.78 8.4) scale(.014 -.014)" d="m0 0v590h30v-590zm60 0v590h60v-590zm120 0v590h30v-590zm-7-323q-38 0-60 23-23 23-23 65 0 28 11 49 10 20 28 30 17 11 39 11 31 0 50-20 19-21 19-61 0-4 0-12h-121q1-31 17-47t41-16q27 0 44 19l15-15q-22-26-60-26zm37 106q0 24-12 38t-32 14q-18 0-32-13t-17-39z"/><path transform="translate(92.4 8.4) scale(.014 -.014)" d="m0 0v590h120v-590zm180 0v590h30v-590zm90 0v590h30v-590zm-121-233-58 84h29l44-63 43 63h27l-55-83 63-87h-31l-47 66-44-66h-31z"/><path transform="translate(97.02 8.4) scale(.014 -.014)" d="m0 0v590h30v-590zm90 0v590h120v-590zm150 0v590h30v-590zm-3-303q-24-19-54-19-28 0-40 17-12 18-12 56 0 7 1 22l4 56h-38v22h39l3 45 29 5h4v-2q-2-3-3-6-2-3-2-8l-4-34h56v-22h-58l-3-58q-1-15-1-19 0-30 7-41 7-10 22-10 11 0 21 4 9 4 21 13z"/></svg>