<svg width="141.12" height="14" viewBox="0 0 141.12 14" xmlns="http://www.w3.org/2000/svg"><path transform="translate(0 8.4) scale(.014 -.014)" d="m0 0v590h30v-590zm60 0v590h90v-590zm120 0v590h30v-590zm60 0v590h30v-590zm120 0v590h90v-590zm-188-87h30v-3q-2-2-3-5 0-2 0-9v-193h111v-22h-138z"/><path transform="translate(6.72 8.4) scale(.014 -.014)" d="M0 0V590H30V0ZM60 0V590H150V0ZM180 0V590H210V0ZM300 0V590H390V0ZM420 0V590H450V0ZM177 -297H223V-109H180V-87H295V-109H249V-297H297V-319H177Z"/><path transform="translate(13.44 8.4) scale(.014 -.014)" d="m0 0v590h30v-590zm60 0v590h90v-590zm120 0v590h30v-590zm120 0v590h30v-590zm60 0v590h90v-590zm-195-87h66q38 0 57-15 20-15 20-42 0-17-9-31-10-14-26-20 20-7 32-23 12-17 12-36 0-30-22-48-21-17-65-17h-65zm62-96q55 0 55 37 0 16-13 26-12 11-38 11h-41v-74zm8-113q54 0 54 44 0 47-61 47h-38v-91z"/><path transform="translate(20.16 8.4) scale(.014 -.014)" d="m0 0v590h90v-590zm120 0v590h30v-590zm60 0v590h30v-590zm60 0v590h90v-590zm180 0v590h30v-590zm-252-87h68q40 0 58-18 19-17 19-49 0-20-13-38t-34-24l54-103h-29l-52 102h-45v-102h-26zm71-107q24 0 36 11 11 10 11 29t-11 31q-12 11-36 11h-45v-82z"/><path transform="translate(26.88 8.4) scale(.014 -.014)" d="M0 0V590H90V0ZM120 0V590H150V0ZM180 0V590H270V0ZM360 0V590H390V0ZM420 0V590H450V0ZM169 -87H311V-110H193V-186H291V-210H193V-296H310V-319H169Z"/><path transform="translate(40.32 8.4) scale(.014 -.014)" d="m0 0v590h30v-590zm60 0v590h90v-590zm120 0v590h30v-590zm120 0v590h30v-590zm60 0v590h90v-590zm-195-87h66q38 0 57-15 20-15 20-42 0-17-9-31-10-14-26-20 20-7 32-23 12-17 12-36 0-30-22-48-21-17-65-17h-65zm62-96q55 0 55 37 0 16-13 26-12 11-38 11h-41v-74zm8-113q54 0 54 44 0 47-61 47h-38v-91z"/><path transform="translate(47.04 8.4) scale(.014 -.014)" d="m0 0v590h90v-590zm120 0v590h30v-590zm60 0v590h30v-590zm120 0v590h30v-590zm60 0v590h90v-590zm-83-251h-75l-23-68h-26l85 236h3l86-236h-27zm-7 20-30 88-31-88z"/><path transform="translate(53.76 8.4) scale(.014 -.014)" d="m0 0v590h90v-590zm120 0v590h30v-590zm60 0v590h30v-590zm60 0v590h90v-590zm180 0v590h30v-590zm-252-87h68q40 0 58-18 19-17 19-49 0-20-13-38t-34-24l54-103h-29l-52 102h-45v-102h-26zm71-107q24 0 36 11 11 10 11 29t-11 31q-12 11-36 11h-45v-82z"/><path transform="translate(60.48 8.4) scale(.014 -.014)" d="m0 0v590h90v-590zm120 0v590h90v-590zm120 0v590h30v-590zm120 0v590h30v-590zm60 0v590h30v-590zm-167-323q-26 0-46 13-21 13-33 39-12 27-12 67 0 42 13 69 13 26 33 38 20 11 43 11 25 0 43-12t27-33l-22-11-3-1-1 2v3q0 4-5 11-8 11-18 16t-21 5q-30 0-47-26-16-25-16-71 0-28 8-51 9-22 23-34 15-12 33-12 14 0 26 7 13 8 21 21l19-13q-12-19-27-28-16-10-38-10z"/><path transform="translate(67.2 8.4) scale(.014 -.014)" d="m0 0v590h90v-590zm120 0v590h30v-590zm60 0v590h90v-590zm120 0v590h30v-590zm120 0v590h30v-590zm-180-323q-40 0-61 31-22 31-22 88 0 55 22 87 22 31 61 31t61-31q22-32 22-87 0-57-22-88-21-31-61-31zm0 23q27 0 41 24 15 25 15 72 0 44-15 70-15 25-41 25t-41-25q-15-26-15-70 0-47 14-72 15-24 42-24z"/><path transform="translate(73.92 8.4) scale(.014 -.014)" d="m0 0v590h30v-590zm60 0v590h30v-590zm60 0v590h90v-590zm180 0v590h30v-590zm60 0v590h90v-590zm-193-87h54q29 0 45-8 17-8 29-24 23-30 23-85-2-57-26-86-24-30-75-29h-50zm48-212q77 0 77 93 0 47-17 72-18 25-56 25h-27v-190z"/><path transform="translate(80.64 8.4) scale(.014 -.014)" d="M0 0V590H90V0ZM120 0V590H150V0ZM180 0V590H270V0ZM360 0V590H390V0ZM420 0V590H450V0ZM169 -87H311V-110H193V-186H291V-210H193V-296H310V-319H169Z"/><path transform="translate(94.08 8.4) scale(.014 -.014)" d="m0 0v590h90v-590zm120 0v590h90v-590zm180 0v590h30v-590zm60 0v590h30v-590zm60 0v590h30v-590zm-184-323q-18 0-35 7-16 6-28 19l17 21 2 3 2-2q1-4 2-7 1-2 5-6 7-6 15-9 8-4 19-4 22 0 33 13 11 12 11 34 0 23-14 34-14 12-39 12-4 0-12-1v21q33 0 45 12t12 34q0 15-9 25-9 9-24 9-24 0-42-17l-16 15q23 24 58 24 28 0 44-16 16-15 16-42 0-18-9-33-10-14-27-19 20-7 32-22t12-37q0-19-8-34-9-16-24-25-16-9-38-9z"/><path transform="translate(100.8 8.4) scale(.014 -.014)" d="m0 0v590h30v-590zm60 0v590h90v-590zm180 0v590h30v-590zm60 0v590h90v-590zm120 0v590h30v-590zm-181-86q21 0 38-12 16-13 24-35 9-22 9-51 0-68-20-103-21-35-58-36-34 0-56 21l19 22 2-2q0-4 2-7 1-2 6-5 10-6 25-6 25 0 39 24 13 25 16 61-9-8-20-12t-25-4q-19 0-35 9-15 9-24 24-9 16-9 37t9 38 24 27q16 10 34 10zm1-123q16 0 26 5 11 4 19 15-1 41-12 61-11 19-33 19-19 0-31-14-11-14-11-38 0-22 12-35t30-13z"/><path transform="translate(114.24 8.4) scale(.014 -.014)" d="M0 0V590H30V0ZM60 0V590H90V0ZM120 0V590H210V0ZM240 0V590H330V0ZM420 0V590H450V0ZM224 -110H159V-87H319V-110H251V-319H224Z"/><path transform="translate(120.96 8.4) scale(.014 -.014)" d="M0 0V590H90V0ZM120 0V590H150V0ZM180 0V590H270V0ZM360 0V590H390V0ZM420 0V590H450V0ZM169 -87H311V-110H193V-186H291V-210H193V-296H310V-319H169Z"/><path transform="translate(127.68 8.4) scale(.014 -.014)" d="m0 0v590h30v-590zm120 0v590h30v-590zm60 0v590h90v-590zm120 0v590h30v-590zm60 0v590h90v-590zm-135-201-62 114h28l49-88 48 88h26l-59-113 66-119h-29l-52 92-50-92h-28z"/><path transform="translate(134.4 8.4) scale(.014 -.014)" d="M0 0V590H30V0ZM60 0V590H90V0ZM120 0V590H210V0ZM240 0V590H330V0ZM420 0V590H450V0ZM224 -110H159V-87H319V-110H251V-319H224Z"/></svg>