<svg width="96.416" height="20" viewBox="0 0 96.416 20" xmlns="http://www.w3.org/2000/svg"><path transform="translate(0 14.784) scale(.016 -.016)" d="m13 0v25h423q50 0 84.5 29t53.5 77 20 104h35v-235zm118 15v739h134v-739zm-118 714v25h373v-25z"/><path transform="translate(10.592 14.784) scale(.016 -.016)" d="m114 15v410h110v-410zm-79-15v25h269v-25zm-10 416v25h199v-25zm142 182q-27 0-46.5 19.5t-19.5 46.5 19.5 46.5 46.5 19.5 46.5-19.5 19.5-46.5-19.5-46.5-46.5-19.5z"/><path transform="translate(15.872 14.784) scale(.016 -.016)" d="m330-12q-46 0-81 20t-52 50h-24l20 152q0-97 36-142.5t90-45.5q28 0 45 16t24.5 60 7.5 126q0 83-8 127t-25 60.5-45 16.5q-54 0-89.5-45t-35.5-143l-20 152h24q17 30 52.5 50t81.5 20q50 0 94-29.5t71.5-83 27.5-124.5-27.5-124.5-72-83-94.5-29.5zm-326 12v25h189v-25zm79 15v723h110v-723zm-79 714v25h189v-25z"/><path transform="translate(24.992 14.784) scale(.016 -.016)" d="m28 0v25h79v400h-79v25h189v-79h4q25 54 57.5 72.5t60.5 18.5q32 0 50.5-18.5t18.5-52.5q0-31-18.5-45.5t-41.5-14.5q-19 0-34.5 10.5t-15.5 29.5q0 6 1.5 10.5t1.5 9.5-3 9-13 4q-13 0-29-20.5t-27.5-55-11.5-76.5v-227h90v-25z"/><path transform="translate(31.904 14.784) scale(.016 -.016)" d="m274-12q-48 0-90.5 19.5t-74.5 53-50 76-18 88.5q0 61 28.5 115t79.5 88 120 34q54 0 97.5-24.5t68.5-68.5 25-101v-6h-327v25h211v57q0 91-80 91-33 0-53.5-19.5t-30-65.5-9.5-125q0-81 10-126t33.5-63 62.5-18q53 0 92 27t66 94h28q-20-70-70.5-110.5t-118.5-40.5z"/><path transform="translate(43.28 14.784) scale(.016 -.016)" d="m-6 0v25h346q47 0 80.5 14.5t51.5 54.5 18 115q0 68-17 105.5t-56 52.5-107 15l-30 30q104 0 186-22.5t129.5-68.5 47.5-117q0-60-34.5-106t-94-72-134.5-26zm110 15v739h134v-739zm103 367v30h133q46 0 74.5 12.5t42 46 13.5 97.5q0 68-14 102.5t-43 46.5-73 12h-346v25h386q66 0 119-23.5t84.5-64.5 31.5-94q0-56-37-99t-99-67-139-24z"/><path transform="translate(54.528 14.784) scale(.016 -.016)" d="m281-12q-49 0-91.5 20t-75 53.5-50.5 76-18 87.5 18 87.5 50.5 76 75 53.5 91.5 20 91.5-20 75-53.5 50.5-76 18-87.5-18-87.5-50.5-76-75-53.5-91.5-20zm0 30q38 0 61 17t33.5 61.5 10.5 128.5-10.5 129-33.5 61.5-61 16.5-61-16.5-33.5-61.5-10.5-129 10.5-128.5 33.5-61.5 61-17z"/><path transform="translate(63.52 14.784) scale(.016 -.016)" d="m242-12q-50 0-94.5 29.5t-72 83-27.5 124.5 27.5 124.5 71.5 83 94 29.5q47 0 82.5-20t51.5-50h24l-20-152q0 98-35.5 143t-89.5 45q-28 0-45-16.5t-25-60.5-8-127q0-82 7.5-126t24.5-60 45-16q54 0 90 45.5t36 142.5l20-152h-24q-16-30-51-50t-82-20zm137 12v25h178v-25zm0 15v723h110v-723zm-99 714v25h209v-25z"/><path transform="translate(72.608 14.784) scale(.016 -.016)" d="m281-12q-49 0-91.5 20t-75 53.5-50.5 76-18 87.5 18 87.5 50.5 76 75 53.5 91.5 20 91.5-20 75-53.5 50.5-76 18-87.5-18-87.5-50.5-76-75-53.5-91.5-20zm0 30q38 0 61 17t33.5 61.5 10.5 128.5-10.5 129-33.5 61.5-61 16.5-61-16.5-33.5-61.5-10.5-129 10.5-128.5 33.5-61.5 61-17z"/><path transform="translate(81.6 14.784) scale(.016 -.016)" d="m398 15v338q0 75-60 75-33 0-60.5-27t-44-73.5-16.5-105.5l-20 145h24q21 41 57.5 68t94.5 27q59 0 97-31.5t38-77.5v-338zm-370-15v25h254v-25zm79 15v419h110v-419zm215-15v25h254v-25zm-294 425v25h189v-25z"/><path transform="translate(91.136 14.784) scale(.016 -.016)" d="m114 15v410h110v-410zm-79-15v25h269v-25zm-10 416v25h199v-25zm142 182q-27 0-46.5 19.5t-19.5 46.5 19.5 46.5 46.5 19.5 46.5-19.5 19.5-46.5-19.5-46.5-46.5-19.5z"/></svg>