<svg width="138.78" height="19.84" viewBox="0 0 138.78 19.84" xmlns="http://www.w3.org/2000/svg"><path transform="translate(0 15.52) scale(.016 -.016)" d="m691 0h-646v38q47 2 70.5 10.5t31.5 32.5 8 71v466q0 47-7 70.5t-28.5 32.5-64.5 11v38h304v-38q-43-1-64-10.5t-28-34.5-7-76v-431q0-56 15.5-85t54.5-39.5 108-10.5q77 0 122 12t69.5 45 38.5 95h38z"/><path transform="translate(11.632 15.52) scale(.016 -.016)" d="m113 743q0 26 18 44t44 18 44-18 18-44-18-44-44-18-44 18-18 44zm115-203v-381q0-51 7-77.5t27-35.5 59-11v-35h-287v35q41 2 61.5 11.5t27.5 34 7 71.5v128q0 58-1.5 96t-5.5 51q-4 23-22.5 31.5t-68.5 8.5v35z"/><path transform="translate(17.088 15.52) scale(.016 -.016)" d="m187 830v-371h4q62 81 160 81 72 0 130-36.5t91.5-98.5 33.5-140-34-140.5-92.5-99-131.5-36.5q-56 0-106 21t-82 57l-47-67h-22v604q0 101-13 129-4 10-10.5 15t-21.5 9-47 8v25zm2-532v-89q0-50 19-89t52.5-61 76.5-22q47 0 82 28t54.5 79 19.5 118q0 68-20.5 120t-56.5 81.5-83 29.5q-40 0-72.5-19.5t-49.5-54.5q-22-44-22-121z"/><path transform="translate(27.552 15.52) scale(.016 -.016)" d="m222 193v-34q0-55 4.5-80.5t22-33 55.5-10.5v-35h-266v35q39 2 57 10t23.5 32.5 5.5 74.5v117q0 68-2 106.5t-10 55.5-26 21-50 4v35l175 38 14-124h4q27 60 75 97.5t99 37.5q32 0 50.5-15.5t18.5-41.5q0-51-58-51-21 0-34 6.5t-23 12.5-22 6q-27 0-54-34.5t-42-87.5q-17-59-17-142z"/><path transform="translate(35.184 15.52) scale(.016 -.016)" d="m491 121 31-28q-85-103-211-103-78 0-137 34t-92 94.5-33 140.5q0 82 35 145.5t96.5 99.5 142.5 36q96 0 149.5-52.5t53.5-150.5q0-13-5.5-16.5t-25.5-3.5h-329q-2-8-3-19.5t-1-25.5q0-69 22-121t62-80.5 93-28.5q41 0 78 19t74 60zm-318 242h184q41 0 50.5 5t9.5 23q0 46-30 73.5t-80 27.5q-108 0-134-129z"/><path transform="translate(48.944 15.52) scale(.016 -.016)" d="m38 0v38q52 2 77.5 10.5t34 32.5 8.5 71v466q0 47-7 70.5t-28.5 32.5-64.5 11v38h299q135 0 210-48.5t75-136.5q0-64-42.5-106.5t-130.5-68.5v-4q65-5 121.5-28.5t91.5-66 35-105.5q0-56-29-102.5t-76-71.5q-34-18-82.5-25t-131.5-7zm281 430q65 0 95 6.5t46 16.5q26 16 41 48t15 80q0 72-38.5 107t-120.5 35h-77q-17 0-17-17v-276zm81-387q182 0 182 153 0 58-24.5 99.5t-67.5 61.5q-31 15-74.5 19t-107.5 4h-45v-223q0-61 32-87.5t105-26.5z"/><path transform="translate(61.216 15.52) scale(.016 -.016)" d="m205 276 144 63v41q0 63-25.5 92.5t-80.5 29.5q-32 0-46.5-13t-27.5-52q-11-28-21.5-38t-30.5-10q-50 0-50 50 0 48 51 74.5t145 26.5q101 0 142.5-35t41.5-121v-224q0-62 12-88t38-26q10 0 23.5 4.5t20.5 17.5l14-24q-12-23-44-38.5t-67-15.5q-43 0-65 28t-22 79h-5q-27-49-73-77.5t-102-28.5q-61 0-97.5 32.5t-36.5 86.5q0 47 35 86.5t127 79.5zm144-59v79q-115-43-160-84.5t-45-84.5q0-34 22-55t56-21q36 0 65 22.5t45.5 60.5 16.5 83z"/><path transform="translate(70.08 15.52) scale(.016 -.016)" d="m106 35-20-35h-22v172h25q39-141 142-141 40 0 63.5 19.5t23.5 59.5q0 20-8.5 33.5t-33.5 31-74 47.5q-45 29-75 52t-45 49-15 63q0 46 20 80.5t53.5 54 75.5 19.5q27 0 56-8.5t51-22.5l20 21h19v-144h-26q-22 61-48 87t-64 26q-34 0-54.5-18t-20.5-50q0-33 23.5-54t74.5-53q58-36 93-62.5t51-54 16-65.5q0-70-46.5-111t-120.5-41q-78 0-134 45z"/><path transform="translate(77.344 15.52) scale(.016 -.016)" d="m17 0v35q40 2 60.5 11t28 34 7.5 72v419q0 76-1.5 115.5t-10.5 52.5q-9 14-30 16.5t-56 2.5v34l193 38v-549l93 91q45 44 67 66.5t22 32.5q0 11-21 17.5t-60 6.5v35h260v-35q-25 0-42-4.5t-34-15.5-42-33l-144-128 198-224q19-22 33.5-34t31-16.5 41.5-4.5v-35h-263v35q33 0 45.5 3t12.5 8q-1 8-16 29t-39 50l-106 128-37-35v-59q0-51 6.5-77.5t26.5-35.5 60-11v-35z"/><path transform="translate(87.2 15.52) scale(.016 -.016)" d="m491 121 31-28q-85-103-211-103-78 0-137 34t-92 94.5-33 140.5q0 82 35 145.5t96.5 99.5 142.5 36q96 0 149.5-52.5t53.5-150.5q0-13-5.5-16.5t-25.5-3.5h-329q-2-8-3-19.5t-1-25.5q0-69 22-121t62-80.5 93-28.5q41 0 78 19t74 60zm-318 242h184q41 0 50.5 5t9.5 23q0 46-30 73.5t-80 27.5q-108 0-134-129z"/><path transform="translate(96.368 15.52) scale(.016 -.016)" d="m222 193v-34q0-55 4.5-80.5t22-33 55.5-10.5v-35h-266v35q39 2 57 10t23.5 32.5 5.5 74.5v117q0 68-2 106.5t-10 55.5-26 21-50 4v35l175 38 14-124h4q27 60 75 97.5t99 37.5q32 0 50.5-15.5t18.5-41.5q0-51-58-51-21 0-34 6.5t-23 12.5-22 6q-27 0-54-34.5t-42-87.5q-17-59-17-142z"/><path transform="translate(104 15.52) scale(.016 -.016)" d="m273-11-169 417q-16 41-28.5 59t-28.5 23.5-42 6.5v35h265v-35q-40-1-53.5-6t-13.5-29q0-16 4.5-31.5t9.5-30.5l106-290h4l91 215q21 50 30 80.5t9 52.5q0 23-12 31t-52 8v35h199v-35q-16 0-29-8t-23-20q-10-14-22-41t-22-54-18-44l-147-339z"/><path transform="translate(113.76 15.52) scale(.016 -.016)" d="m113 743q0 26 18 44t44 18 44-18 18-44-18-44-44-18-44 18-18 44zm115-203v-381q0-51 7-77.5t27-35.5 59-11v-35h-287v35q41 2 61.5 11.5t27.5 34 7 71.5v128q0 58-1.5 96t-5.5 51q-4 23-22.5 31.5t-68.5 8.5v35z"/><path transform="translate(119.22 15.52) scale(.016 -.016)" d="m209 830v-674q0-50 6-75.5t25.5-34.5 57.5-11v-35h-276v35q40 2 60 11t27 33 7 70v431q0 54-1.5 90.5t-4.5 49.5q-5 23-23.5 31t-66.5 8v34z"/><path transform="translate(124.42 15.52) scale(.016 -.016)" d="m209 830v-674q0-50 6-75.5t25.5-34.5 57.5-11v-35h-276v35q40 2 60 11t27 33 7 70v431q0 54-1.5 90.5t-4.5 49.5q-5 23-23.5 31t-66.5 8v34z"/><path transform="translate(129.62 15.52) scale(.016 -.016)" d="m491 121 31-28q-85-103-211-103-78 0-137 34t-92 94.5-33 140.5q0 82 35 145.5t96.5 99.5 142.5 36q96 0 149.5-52.5t53.5-150.5q0-13-5.5-16.5t-25.5-3.5h-329q-2-8-3-19.5t-1-25.5q0-69 22-121t62-80.5 93-28.5q41 0 78 19t74 60zm-318 242h184q41 0 50.5 5t9.5 23q0 46-30 73.5t-80 27.5q-108 0-134-129z"/></svg>