<svg width="384" height="16" viewBox="0 0 384 16" xmlns="http://www.w3.org/2000/svg"><path transform="translate(0 9.6) scale(.016 -.016)" d="m0 0v590h30v-590zm60 0v590h90v-590zm120 0v590h30v-590zm60 0v590h30v-590zm120 0v590h90v-590zm-188-87h30v-3q-2-2-3-5 0-2 0-9v-193h111v-22h-138z"/><path transform="translate(7.68 9.6) scale(.016 -.016)" d="m0 0v590h30v-590zm120 0v590h30v-590zm60 0v590h30v-590zm120 0v590h30v-590zm120 0v590h30v-590zm60 0v590h30v-590zm60 0v590h90v-590zm120 0v590h30v-590zm120 0v590h90v-590zm120 0v590h30v-590zm-476-297h44v126h-42v22h68v-148h40v-22h-110zm56 184q-8 0-14 5-5 6-5 14t5 13q5 6 14 6 7 0 13-6t6-13q0-8-6-14-6-5-13-5z"/><path transform="translate(23.04 9.6) scale(.016 -.016)" d="m0 0v590h30v-590zm120 0v590h30v-590zm60 0v590h30v-590zm120 0v590h30v-590zm120 0v590h30v-590zm60 0v590h30v-590zm60 0v590h90v-590zm120 0v590h30v-590zm120 0v590h30v-590zm60 0v590h90v-590zm-354-323q-15 0-28 7t-22 19l-10-22h-17v247h31v-2q-2-3-3-5-1-3-1-9v-87q9 14 23 22t28 8q32 0 51-22 19-23 19-65 0-29-10-50t-27-31q-16-10-34-10zm-3 24q20 0 33 16 13 15 13 49 0 33-12 49-13 17-34 17t-34-19q-13-18-13-48 0-64 47-64z"/><path transform="translate(38.4 9.6) scale(.016 -.016)" d="m0 0v590h30v-590zm120 0v590h30v-590zm60 0v590h30v-590zm120 0v590h30v-590zm120 0v590h30v-590zm60 0v590h90v-590zm120 0v590h30v-590zm60 0v590h30v-590zm60 0v590h90v-590zm180 0v590h30v-590zm-388-145q27 0 45-19l-12-20-1-4-3 2q-1 4-2 6-2 3-7 6-9 6-22 6t-25-7q-12-6-19-20-8-14-8-34v-90h-27v170h28l-1-31q7 16 22 26 15 9 32 9z"/><path transform="translate(53.76 9.6) scale(.016 -.016)" d="m0 0v590h30v-590zm120 0v590h30v-590zm60 0v590h30v-590zm120 0v590h30v-590zm120 0v590h30v-590zm60 0v590h90v-590zm120 0v590h30v-590zm60 0v590h90v-590zm180 0v590h30v-590zm60 0v590h30v-590zm-412-323q-38 0-60 23-23 23-23 65 0 28 11 49 10 20 28 30 17 11 39 11 31 0 50-20 19-21 19-61 0-4 0-12h-121q1-31 17-47t41-16q27 0 44 19l15-15q-22-26-60-26zm37 106q0 24-12 38t-32 14q-18 0-32-13t-17-39z"/><path transform="translate(76.8 9.6) scale(.016 -.016)" d="m0 0v590h30v-590zm60 0v590h90v-590zm120 0v590h30v-590zm120 0v590h30v-590zm60 0v590h90v-590zm-195-87h66q38 0 57-15 20-15 20-42 0-17-9-31-10-14-26-20 20-7 32-23 12-17 12-36 0-30-22-48-21-17-65-17h-65zm62-96q55 0 55 37 0 16-13 26-12 11-38 11h-41v-74zm8-113q54 0 54 44 0 47-61 47h-38v-91z"/><path transform="translate(84.48 9.6) scale(.016 -.016)" d="m0 0v590h30v-590zm120 0v590h30v-590zm60 0v590h30v-590zm120 0v590h30v-590zm120 0v590h30v-590zm60 0v590h90v-590zm120 0v590h30v-590zm60 0v590h30v-590zm120 0v590h30v-590zm60 0v590h90v-590zm-362-145q36 0 55-19t19-65v-90h-29v26q-15-30-58-30-28 0-44 13t-16 34q0 18 12 31 11 13 31 21 19 7 43 7 21 0 38-2-2 28-15 40t-38 12q-13 0-24-5-12-5-22-14l-13 17q24 24 61 24zm-10-158q28 0 44 17 16 16 17 46-17 3-36 3-28 0-45-10-16-9-16-28 0-28 36-28z"/><path transform="translate(99.84 9.6) scale(.016 -.016)" d="m0 0v590h30v-590zm120 0v590h30v-590zm60 0v590h30v-590zm120 0v590h30v-590zm120 0v590h30v-590zm60 0v590h90v-590zm120 0v590h30v-590zm60 0v590h30v-590zm60 0v590h90v-590zm180 0v590h30v-590zm-388-145q27 0 45-19l-12-20-1-4-3 2q-1 4-2 6-2 3-7 6-9 6-22 6t-25-7q-12-6-19-20-8-14-8-34v-90h-27v170h28l-1-31q7 16 22 26 15 9 32 9z"/><path transform="translate(115.2 9.6) scale(.016 -.016)" d="m0 0v590h30v-590zm120 0v590h30v-590zm60 0v590h30v-590zm120 0v590h30v-590zm120 0v590h30v-590zm60 0v590h90v-590zm120 0v590h90v-590zm120 0v590h30v-590zm120 0v590h30v-590zm60 0v590h30v-590zm-407-323q-25 0-44 11-19 12-30 32t-11 46q0 25 11 45t30 32q19 11 44 11 20 0 37-8 16-8 27-23l-19-19-2 2q0 3-2 6-1 2-5 6-8 7-17 10-10 4-22 4-15 0-27-8-13-8-20-23-8-14-8-33t8-35q8-15 21-23 14-9 30-9 26 0 45 21l15-18q-25-27-61-27z"/><path transform="translate(130.56 9.6) scale(.016 -.016)" d="m0 0v590h30v-590zm120 0v590h30v-590zm60 0v590h30v-590zm120 0v590h30v-590zm120 0v590h30v-590zm60 0v590h90v-590zm120 0v590h30v-590zm60 0v590h90v-590zm120 0v590h30v-590zm120 0v590h30v-590zm-420-322q-23 0-41 11-17 11-27 31-11 20-11 46t11 46q10 20 27 31 18 12 41 12t40-12q18-11 28-31t10-46-10-46-28-31q-17-11-40-11zm0 22q14 0 26 9 11 8 18 23 6 16 6 35 0 29-14 47t-36 18-36-18-14-47q0-19 6-35 7-15 18-23 11-9 26-9z"/><path transform="translate(145.92 9.6) scale(.016 -.016)" d="m0 0v590h30v-590zm120 0v590h30v-590zm60 0v590h30v-590zm120 0v590h30v-590zm120 0v590h30v-590zm60 0v590h30v-590zm60 0v590h30v-590zm60 0v590h90v-590zm180 0v590h30v-590zm60 0v590h90v-590zm-366-323q-18 0-34 11-16 10-26 30-10 21-10 50t10 49q11 19 27 29 16 9 34 9t30-7q13-8 20-22v102h28v-2q-2-3-3-5 0-3 0-9v-205q0-9 1-14 0-6 3-12h-26q-3 6-4 12 0 5 0 14-8-14-21-22t-29-8zm4 24q23 0 34 18t11 48-12 48-35 18q-22 0-34-16-12-17-12-45 0-33 12-52 13-19 36-19z"/><path transform="translate(161.28 9.6) scale(.016 -.016)" d="m0 0v590h30v-590zm120 0v590h30v-590zm60 0v590h30v-590zm120 0v590h30v-590zm120 0v590h30v-590zm60 0v590h90v-590zm120 0v590h30v-590zm60 0v590h90v-590zm180 0v590h30v-590zm60 0v590h30v-590zm-412-323q-38 0-60 23-23 23-23 65 0 28 11 49 10 20 28 30 17 11 39 11 31 0 50-20 19-21 19-61 0-4 0-12h-121q1-31 17-47t41-16q27 0 44 19l15-15q-22-26-60-26zm37 106q0 24-12 38t-32 14q-18 0-32-13t-17-39z"/><path transform="translate(184.32 9.6) scale(.016 -.016)" d="m0 0v590h90v-590zm120 0v590h90v-590zm180 0v590h30v-590zm60 0v590h30v-590zm60 0v590h30v-590zm-184-323q-18 0-35 7-16 6-28 19l17 21 2 3 2-2q1-4 2-7 1-2 5-6 7-6 15-9 8-4 19-4 22 0 33 13 11 12 11 34 0 23-14 34-14 12-39 12-4 0-12-1v21q33 0 45 12t12 34q0 15-9 25-9 9-24 9-24 0-42-17l-16 15q23 24 58 24 28 0 44-16 16-15 16-42 0-18-9-33-10-14-27-19 20-7 32-22t12-37q0-19-8-34-9-16-24-25-16-9-38-9z"/><path transform="translate(192 9.6) scale(.016 -.016)" d="m0 0v590h30v-590zm60 0v590h90v-590zm180 0v590h30v-590zm60 0v590h90v-590zm120 0v590h30v-590zm-181-86q21 0 38-12 16-13 24-35 9-22 9-51 0-68-20-103-21-35-58-36-34 0-56 21l19 22 2-2q0-4 2-7 1-2 6-5 10-6 25-6 25 0 39 24 13 25 16 61-9-8-20-12t-25-4q-19 0-35 9-15 9-24 24-9 16-9 37t9 38 24 27q16 10 34 10zm1-123q16 0 26 5 11 4 19 15-1 41-12 61-11 19-33 19-19 0-31-14-11-14-11-38 0-22 12-35t30-13z"/><path transform="translate(207.36 9.6) scale(.016 -.016)" d="M0 0V590H90V0ZM120 0V590H150V0ZM180 0V590H270V0ZM360 0V590H390V0ZM420 0V590H450V0ZM169 -87H311V-110H193V-186H291V-210H193V-296H310V-319H169Z"/><path transform="translate(215.04 9.6) scale(.016 -.016)" d="m0 0v590h30v-590zm120 0v590h30v-590zm60 0v590h30v-590zm120 0v590h30v-590zm120 0v590h30v-590zm60 0v590h30v-590zm120 0v590h30v-590zm60 0v590h90v-590zm120 0v590h30v-590zm60 0v590h90v-590zm-376-233-58 84h29l44-63 43 63h27l-55-83 63-87h-31l-47 66-44-66h-31z"/><path transform="translate(230.4 9.6) scale(.016 -.016)" d="m0 0v590h30v-590zm120 0v590h30v-590zm60 0v590h30v-590zm120 0v590h30v-590zm120 0v590h30v-590zm60 0v590h30v-590zm60 0v590h30v-590zm60 0v590h90v-590zm120 0v590h90v-590zm180 0v590h30v-590zm-348-303q-24-19-54-19-28 0-40 17-12 18-12 56 0 7 1 22l4 56h-38v22h39l3 45 29 5h4v-2q-2-3-3-6-2-3-2-8l-4-34h56v-22h-58l-3-58q-1-15-1-19 0-30 7-41 7-10 22-10 11 0 21 4 9 4 21 13z"/><path transform="translate(245.76 9.6) scale(.016 -.016)" d="m0 0v590h30v-590zm120 0v590h30v-590zm60 0v590h30v-590zm120 0v590h30v-590zm120 0v590h30v-590zm60 0v590h90v-590zm120 0v590h30v-590zm60 0v590h90v-590zm180 0v590h30v-590zm60 0v590h30v-590zm-412-323q-38 0-60 23-23 23-23 65 0 28 11 49 10 20 28 30 17 11 39 11 31 0 50-20 19-21 19-61 0-4 0-12h-121q1-31 17-47t41-16q27 0 44 19l15-15q-22-26-60-26zm37 106q0 24-12 38t-32 14q-18 0-32-13t-17-39z"/><path transform="translate(261.12 9.6) scale(.016 -.016)" d="m0 0v590h30v-590zm120 0v590h30v-590zm60 0v590h30v-590zm120 0v590h30v-590zm120 0v590h30v-590zm60 0v590h30v-590zm60 0v590h30v-590zm60 0v590h90v-590zm120 0v590h30v-590zm120 0v590h90v-590zm-426-149h26v-30q10 15 25 25 15 9 32 9 23 0 37-17 13-18 13-54v-103h-26v102q0 26-8 37-9 12-23 12-12 0-23-7-12-7-20-19-7-12-7-27v-98h-26z"/><path transform="translate(276.48 9.6) scale(.016 -.016)" d="m0 0v590h30v-590zm120 0v590h30v-590zm60 0v590h30v-590zm120 0v590h30v-590zm120 0v590h30v-590zm60 0v590h30v-590zm60 0v590h30v-590zm60 0v590h90v-590zm180 0v590h30v-590zm60 0v590h90v-590zm-366-323q-18 0-34 11-16 10-26 30-10 21-10 50t10 49q11 19 27 29 16 9 34 9t30-7q13-8 20-22v102h28v-2q-2-3-3-5 0-3 0-9v-205q0-9 1-14 0-6 3-12h-26q-3 6-4 12 0 5 0 14-8-14-21-22t-29-8zm4 24q23 0 34 18t11 48-12 48-35 18q-22 0-34-16-12-17-12-45 0-33 12-52 13-19 36-19z"/><path transform="translate(291.84 9.6) scale(.016 -.016)" d="m0 0v590h30v-590zm120 0v590h30v-590zm60 0v590h30v-590zm120 0v590h30v-590zm120 0v590h30v-590zm60 0v590h90v-590zm120 0v590h30v-590zm60 0v590h90v-590zm180 0v590h30v-590zm60 0v590h30v-590zm-412-323q-38 0-60 23-23 23-23 65 0 28 11 49 10 20 28 30 17 11 39 11 31 0 50-20 19-21 19-61 0-4 0-12h-121q1-31 17-47t41-16q27 0 44 19l15-15q-22-26-60-26zm37 106q0 24-12 38t-32 14q-18 0-32-13t-17-39z"/><path transform="translate(307.2 9.6) scale(.016 -.016)" d="m0 0v590h30v-590zm120 0v590h30v-590zm60 0v590h30v-590zm120 0v590h30v-590zm120 0v590h30v-590zm60 0v590h30v-590zm60 0v590h30v-590zm60 0v590h90v-590zm180 0v590h30v-590zm60 0v590h90v-590zm-366-323q-18 0-34 11-16 10-26 30-10 21-10 50t10 49q11 19 27 29 16 9 34 9t30-7q13-8 20-22v102h28v-2q-2-3-3-5 0-3 0-9v-205q0-9 1-14 0-6 3-12h-26q-3 6-4 12 0 5 0 14-8-14-21-22t-29-8zm4 24q23 0 34 18t11 48-12 48-35 18q-22 0-34-16-12-17-12-45 0-33 12-52 13-19 36-19z"/><path transform="translate(330.24 9.6) scale(.016 -.016)" d="M0 0V590H30V0ZM60 0V590H90V0ZM120 0V590H210V0ZM240 0V590H330V0ZM420 0V590H450V0ZM224 -110H159V-87H319V-110H251V-319H224Z"/><path transform="translate(337.92 9.6) scale(.016 -.016)" d="m0 0v590h30v-590zm120 0v590h30v-590zm60 0v590h30v-590zm120 0v590h30v-590zm120 0v590h30v-590zm60 0v590h90v-590zm120 0v590h30v-590zm60 0v590h90v-590zm180 0v590h30v-590zm60 0v590h30v-590zm-412-323q-38 0-60 23-23 23-23 65 0 28 11 49 10 20 28 30 17 11 39 11 31 0 50-20 19-21 19-61 0-4 0-12h-121q1-31 17-47t41-16q27 0 44 19l15-15q-22-26-60-26zm37 106q0 24-12 38t-32 14q-18 0-32-13t-17-39z"/><path transform="translate(353.28 9.6) scale(.016 -.016)" d="m0 0v590h30v-590zm120 0v590h30v-590zm60 0v590h30v-590zm120 0v590h30v-590zm120 0v590h30v-590zm60 0v590h30v-590zm120 0v590h30v-590zm60 0v590h90v-590zm120 0v590h30v-590zm60 0v590h90v-590zm-376-233-58 84h29l44-63 43 63h27l-55-83 63-87h-31l-47 66-44-66h-31z"/><path transform="translate(368.64 9.6) scale(.016 -.016)" d="m0 0v590h30v-590zm120 0v590h30v-590zm60 0v590h30v-590zm120 0v590h30v-590zm120 0v590h30v-590zm60 0v590h30v-590zm60 0v590h30v-590zm60 0v590h90v-590zm120 0v590h90v-590zm180 0v590h30v-590zm-348-303q-24-19-54-19-28 0-40 17-12 18-12 56 0 7 1 22l4 56h-38v22h39l3 45 29 5h4v-2q-2-3-3-6-2-3-2-8l-4-34h56v-22h-58l-3-58q-1-15-1-19 0-30 7-41 7-10 22-10 11 0 21 4 9 4 21 13z"/></svg>