<svg width="35.376" height="20" viewBox="0 0 35.376 20" xmlns="http://www.w3.org/2000/svg"><path transform="translate(0 13.6) scale(.016 -.016)" d="m22-116q-31 0-31 30 0 10 12 24t26 26.5 21 17.5q5 13 7.5 24t4.5 24q7 44 25 89.5t36 85.5q-25 13-40.5 34.5t-15.5 50.5q0 7 3 23.5t10 16.5q9 0 9-15t0-21q0-21 13.5-38t30.5-26q52 113 125 217t159 193q33 35 70 58t86 23q35 0 55.5-22.5t20.5-56.5q0-13-3-25-20-83-60.5-154.5t-102.5-130.5q-36-34-83.5-67.5t-100-55.5-104.5-22q-11 0-22 1.5t-21 5.5q-20-47-37-94t-27-98q77 47 167 68t180 21q24 0 55-8.5t53.5-26.5 22.5-49q0-2-1.5-13t-4.5-13q-8 10-11 19-14 36-44 45.5t-66 9.5q-79 0-165.5-15.5t-156.5-56.5q-7-4-14.5-7.5t-15.5-6.5q-3-17-10-37t-20-34-35-14zm171 329q47 0 96.5 23.5t94.5 56.5 77 63q59 56 97 123t57 146q1 3 1 6t0 6q0 17-7.5 37.5t-29.5 20.5q-34 0-74.5-27t-83-71.5-83-98-75.5-107.5-61-99.5-39-73.5q5-3 15-4t15-1z"/><path transform="translate(9.072 13.6) scale(.016 -.016)" d="m125 393q-7 0-13 3.5t-6 10.5q0 8 7 24.5t18 33.5 23.5 29 22.5 12q8 0 8-10 0-12-13-19-8-5-13.5-19t-9-29-6.5-24q-3-12-18-12zm-20-383q-23 0-34 19.5t-14 45-3 41.5q0 10 2.5 37t7 60.5 11 65.5 15.5 53 19 21q8 0 14-5t6-13q0-12-7-38t-16.5-59-17-66.5-7.5-60.5q0-7 1.5-24t6.5-31.5 16-14.5q15 0 33 22t36.5 54.5 34.5 65 27 54.5 15 22q5 0 6.5-3.5t1.5-7.5q0-13-11-41.5t-29-62-39-64-41-50.5-34-20z"/><path transform="translate(12.064 13.6) scale(.016 -.016)" d="m127 13q-30 0-47 20.5t-24 49-7 51.5q0 17 5 53.5t15.5 80.5 25.5 85 35 67.5 44 26.5q17 0 25-13t10.5-32.5 2.5-38 0-30.5q0-5-6.5-10.5t-11.5-5.5q-10 0-13 9t-3 20 1 20.5 1 14.5-2 16.5-8 11.5q-16-6-30-31.5t-25.5-60.5-19-72-12-67.5-4.5-45.5q0-14 3.5-35.5t14-38.5 29.5-17q21 0 42 19.5t40.5 48.5 35.5 58.5 26.5 49 14.5 19.5q5 0 6-5t0-8l-1-4q-6-22-22-56t-39-68.5-49.5-58-52.5-23.5z"/><path transform="translate(16.048 13.6) scale(.016 -.016)" d="m121-16q-19 0-31.5 14t-19.5 34.5-9.5 41.5-2.5 35q0 15 3.5 48.5t11.5 74.5 20 79.5 28.5 64.5 38.5 28q3 9 9 15.5t16 6.5q20 0 35-17t25-42 15.5-49 5.5-39q0-46-9-91l8-1q29 0 45 9t25 17.5 15 8.5 6-7q0-12-12.5-21.5t-30.5-17-35-10.5-26-1q-5-21-16.5-51.5t-28-60-38.5-49.5-48-20zm109 224q6 35 6 71 0 8-3.5 27.5t-10 41.5-15.5 38-19 16q-5 0-7.5-7.5t-3-16.5-0.5-12q0-40 12.5-83.5t40.5-74.5zm-106-198q15 0 31 20.5t30.5 50 24.5 56.5 13 40q-38 26-56.5 70t-18.5 90q0 20 3 38-21-36-35-85t-20.5-100-6.5-93q0-10 2.5-31t10.5-38.5 22-17.5z"/><path transform="translate(20.8 13.6) scale(.016 -.016)" d="m85 3q-7 0-11 5t-4 12q0 38 3.5 76.5t3.5 76.5q0 25-1.5 63.5t-7 76-18.5 57.5q-1 2-2 3.5t-1 3.5q0 6 6 8.5t10 2.5q14 0 22-16t12-41 5.5-51.5 1.5-48 0-29.5q0-10 0.5-19t0.5-19q4 14 14 43t24 64.5 30.5 68 33 53.5 31.5 21 22-19 9.5-41 2.5-33q0-7-1-23.5t-4.5-30.5-12.5-14q-8 0-8 18 0 8 1 15t1 11q0 5-1 23.5t-4.5 35.5-9.5 17-14.5-11.5-17-27-15-30-8.5-20.5q-15-37-31.5-84t-28-94.5-11.5-88.5q-7-14-22-14z"/><path transform="translate(24.8 13.6) scale(.016 -.016)" d="m125 393q-7 0-13 3.5t-6 10.5q0 8 7 24.5t18 33.5 23.5 29 22.5 12q8 0 8-10 0-12-13-19-8-5-13.5-19t-9-29-6.5-24q-3-12-18-12zm-20-383q-23 0-34 19.5t-14 45-3 41.5q0 10 2.5 37t7 60.5 11 65.5 15.5 53 19 21q8 0 14-5t6-13q0-12-7-38t-16.5-59-17-66.5-7.5-60.5q0-7 1.5-24t6.5-31.5 16-14.5q15 0 33 22t36.5 54.5 34.5 65 27 54.5 15 22q5 0 6.5-3.5t1.5-7.5q0-13-11-41.5t-29-62-39-64-41-50.5-34-20z"/><path transform="translate(27.792 13.6) scale(.016 -.016)" d="m127 13q-30 0-47 20.5t-24 49-7 51.5q0 17 5 53.5t15.5 80.5 25.5 85 35 67.5 44 26.5q17 0 25-13t10.5-32.5 2.5-38 0-30.5q0-5-6.5-10.5t-11.5-5.5q-10 0-13 9t-3 20 1 20.5 1 14.5-2 16.5-8 11.5q-16-6-30-31.5t-25.5-60.5-19-72-12-67.5-4.5-45.5q0-14 3.5-35.5t14-38.5 29.5-17q21 0 42 19.5t40.5 48.5 35.5 58.5 26.5 49 14.5 19.5q5 0 6-5t0-8l-1-4q-6-22-22-56t-39-68.5-49.5-58-52.5-23.5z"/><path transform="translate(31.776 13.6) scale(.016 -.016)" d="m116 0q-27 0-41.5 24t-19.5 58.5-5 64.5q0 14 0.5 25.5t1.5 19.5h-3q-12 0-12 9 2 5 7.5 8.5t10.5 4.5q5 44 19 90t38 83v6q0 10 12 12 5 5 10.5 11.5t12.5 6.5q8 0 12.5-6.5t0.5-13.5q19-4 34.5-15.5t15.5-33.5q0-29-21.5-59.5t-51-55-53.5-36.5q-3-24-3.5-48.5t-0.5-48.5q0-12 1.5-30t9-32 25.5-14q19 0 37.5 17t36 43.5 32.5 55.5 26 55 16 40q2 5 5 9.5t9 4.5q8 0 8-10 0-16-11-45.5t-29.5-63.5-41-65-45.5-51-43-20zm-27 234q19 12 38 30t32 41 13 46q0 12-12 17.5t-21 6.5q-19-31-31.5-68t-18.5-73z"/></svg>