<svg width="48" height="20.8" viewBox="0 0 48 20.8" xmlns="http://www.w3.org/2000/svg"><path transform="translate(0 15.984) scale(.016 -.016)" d="M120 0V698H204V73H535V0Z"/><path transform="translate(9.6 15.984) scale(.016 -.016)" d="m332 630q-34 0-48.5 14.5t-14.5 36.5v16q0 22 14.5 36.5t48.5 14.5q35 0 49-14.5t14-36.5v-16q0-22-14-36.5t-49-14.5zm-226-562h186v380h-186v68h266v-448h174v-68h-440z"/><path transform="translate(19.2 15.984) scale(.016 -.016)" d="M80 68H260V672H80V740H340V68H520V0H80Z"/><path transform="translate(28.8 15.984) scale(.016 -.016)" d="m309-12q-74 0-128.5 33.5t-84 94-29.5 141.5q0 83 30 143.5t83.5 94 123.5 33.5 121-32.5 79.5-89.5 28.5-130v-38h-382v-24q0-68 42.5-112.5t115.5-44.5q52 0 90 24t58 66l59-40q-23-52-76.5-85.5t-130.5-33.5zm-5 474q-44 0-78.5-20.5t-54.5-56-20-80.5v-7h296v11q0 68-39.5 110.5t-103.5 42.5z"/><path transform="translate(38.4 15.984) scale(.016 -.016)" d="m61 0 192 262-187 254h96l78-109 62-86h4l60 86 77 109h92l-189-253 194-263h-96l-87 121-59 82h-4l-57-82-84-121z"/></svg>