<svg width="98.112" height="22.016" viewBox="0 0 98.112 22.016" xmlns="http://www.w3.org/2000/svg"><path transform="translate(0 16.272) scale(.016 -.016)" d="m387 87q11-4 24.5-4t26 3 23 14.5 16.5 18.5 15 31q11 28 27 79 42-39 50-59-48-176-169-176-57 0-145 74-46-74-143-74-43 0-77.5 29t-34.5 83 36 88.5 93 34.5q11 0 31-2l14 127q-44-14-136-36v75q75 17 144 38l20 163q21 167 170 167 59 0 94.5-32.5t35.5-91.5q0-142-183-229l-30-236-1-10q74-66 99-75zm40 542q0 42-35 42-42 0-53-99l-10-79q98 58 98 136zm-351-516q0-30 34-30 33 0 41 59-19 8-35.5 8t-28-11-11.5-26z"/><path transform="translate(7.424 16.272) scale(.016 -.016)" d="m109 736.5q23 23.5 56 23.5t56.5-23.5 23.5-56.5-23.5-56-56.5-23-56 23-23 56 23 56.5zm101-263.5q-39-301-39-304-5-20-5-33.5t2-23.5q4-26 36.5-26t60 42.5 41.5 96.5q7-4 22-24t18-30q-20-80-68-129t-115-49-99.5 33-32.5 85q0 11 1 23l36 309q10 18 38 27.5t55.5 9.5 48.5-7z"/><path transform="translate(11.12 16.272) scale(.016 -.016)" d="m36 122q0 16 54 475 14 118 75 149 28 15 67 15 132 0 132-122 0-10-1-21-10-134-168-273-5-49-11-95-12-103-12-114 0-52 45-52 49 0 91.5 56.5t65.5 144.5q9-3 25-16.5t22-23.5q-16-83-72-159-28-39-71-64-49-29-110.5-29t-96.5 34.5-35 94.5zm170 323q92 101 92 181 0 48-36 48-23-2-30.5-30t-14-91-8.5-78z"/><path transform="translate(16.016 16.272) scale(.016 -.016)" d="m205-297q-57 0-98 34.5t-41 100.5q0 81 82 158-58 5-93 38t-35 93q0 28 7 84t15 121 17 138q31 11 57 11t39-2 25-15 12-37l-33-255q-2-16-2-22 0-59 54-59 49 0 80 46 3 23 15 132.5t20 170.5q9 19 37.5 30t46.5 11q32 0 58-8l-47-369q117-21 140-161-4-19-38-60-20 125-110 152l-16-125q-11-90-57-148.5t-135-58.5zm60 199 13 110q-131-68-134-155 0-33 16-49t42.5-16 40.5 22 22 88z"/><path transform="translate(27.312 16.272) scale(.016 -.016)" d="m418 504q30 45 30 84t-22 62-58 23-58-17.5-22-55 52-134.5 66-125q38-76 38-147 0-89-64.5-144.5t-152-55.5-137.5 54.5-50 127.5q0 135 167 223-68 134-68 187 0 74 59.5 125.5t146 51.5 132.5-44 46-112q0-45-30-103zm-115-330q0 40-31 98-4 8-15 29.5t-16 30.5q-112-58-112-146 0-45 27-72 27-29 65.5-29t60 22.5 21.5 66.5z"/><path transform="translate(35.12 16.272) scale(.016 -.016)" d="m346 339q0 65-58 65-43 0-77-49-36-53-36-124t31.5-109.5 86.5-38.5q66 0 139.5 54t118.5 134q20-15 39-55-29-58-108-130-41-38-102-64-66-28-132-28-89 0-150.5 61t-61.5 159q0 119 80 193t179 74q77 0 122-32t45-84q0-34-24-59-44-44-107-44 15 50 15 77z"/><path transform="translate(42.624 16.272) scale(.016 -.016)" d="m328 350q0 44-40.5 44t-64.5-52q108-85 108-191 0-77-43-117t-108-40-95 40.5-30 102.5q0 19 1 28l35 305q36 11 73 11 61 0 61-45v-2q40 47 102 47 45 0 70-20.5t25-54.5-25.5-55.5-66.5-21.5q-2 0-4 0 2 11 2 21zm-122-78q-18-144-18-145 0-42 34-42 44 0 44 71 0 58-60 116z"/><path transform="translate(49.216 16.272) scale(.016 -.016)" d="m109 736.5q23 23.5 56 23.5t56.5-23.5 23.5-56.5-23.5-56-56.5-23-56 23-23 56 23 56.5zm101-263.5q-39-301-39-304-5-20-5-33.5t2-23.5q4-26 36.5-26t60 42.5 41.5 96.5q7-4 22-24t18-30q-20-80-68-129t-115-49-99.5 33-32.5 85q0 11 1 23l36 309q10 18 38 27.5t55.5 9.5 48.5-7z"/><path transform="translate(52.912 16.272) scale(.016 -.016)" d="m143 482q65 0 76-33 47 33 119 33t124-59 52-138q0-11-1-23-11-131-88-199.5t-201-68.5q-28 0-61 7l-32-275h-131q64 551 86 748 21 8 57 8zm230-204q0 44-20 78t-62 34q-57 0-87-74-20-148-23-172-1-30 19-45t49-15q51 0 84 46 40 57 40 148z"/><path transform="translate(61.376 16.272) scale(.016 -.016)" d="m259 696q0-6-27-215h147v-77h-157l-3-25q117-98 117-214 0-91-46.5-131t-111.5-40-95 34.5-30 83.5q0 11 2 24l31 266-4 2h-81q-1 10-1 32.5t9 44.5h86l32 272q21 8 56 8 76 0 76-65zm10-530q0 69-60 136-18-149-18-172 0-45 29-45 21 0 35 19.5t14 61.5z"/><path transform="translate(70.4 16.272) scale(.016 -.016)" d="m925 402q-23-25-76-44.5t-84.5-19.5-46.5 2q-25-148-127.5-247t-238-99-204 84-68.5 219q0 88 27 171.5t74.5 148.5 119.5 104.5 150.5 39.5 129-35.5 50.5-98.5q0-48-33.5-85.5t-92.5-37.5q-31 0-55 15.5t-24 49.5q0 16 8 28t16 15l9 4q0-40 32-40 15 0 26 10.5t12 23.5-1 20.5-8 17.5q-14 25-59 25-59 0-112-56t-84.5-144-31.5-180q0-77 25-137 14-32 41-50.5t65-18.5q63 0 112.5 53t73 128 23.5 152v12q-3 11-3 21 0 48 34 73 22 16 55 16 9 0 29-3t28-9q-21-1-32.5-14t-11.5-35 20-41q28-27 87.5-27t123.5 49z"/><path transform="translate(82.352 16.272) scale(.016 -.016)" d="m318 112 24 223q0 27-14 45t-46.5 18-55-28.5-28.5-71.5q-36-274-38-298h-135l55 471q42 11 64 11 67 0 70-49 49 48 117.5 48t107.5-34 39-86q0-14-6-53-23-152-23-177 0-46 31-46 68 0 103 142 34-36 41-57-53-176-184-176-62 0-92 38t-30 80z"/><path transform="translate(90.656 16.272) scale(.016 -.016)" d="m283 405q-47 0-82.5-52.5t-35.5-125 34.5-108 85.5-35.5q75 0 144 52t112 136q22-21 40-52-33-75-117-147-42-35-99.5-57t-118.5-22q-100 0-158 61-62 66-62 169t77.5 180 185.5 77q77 0 125-33.5t49-90.5q0-77-61.5-125t-168.5-67l-14 59q62 13 92.5 50t30.5 71.5-18.5 47-40.5 12.5z"/></svg>