<svg width="106.85" height="17.6" viewBox="0 0 106.85 17.6" xmlns="http://www.w3.org/2000/svg"><path transform="translate(0 14.912) scale(.016 -.016)" d="m107-25q-12 0-12 12v753q0 11 12 11h65q12 0 12-11v-680h406q11 0 11-11v-62q0-12-11-12z"/><path transform="translate(10.16 14.912) scale(.016 -.016)" d="m107-25q-12 0-12 12v753q0 11 12 11h65q12 0 12-11v-753q0-12-12-12z"/><path transform="translate(14.624 14.912) scale(.016 -.016)" d="m107-25q-12 0-12 12v753q0 11 12 11h71q8 0 13-8l419-625v622q0 11 12 11h63q11 0 11-11v-753q0-12-11-12h-71q-7 0-14 7l-419 628v-623q0-12-11-12z"/><path transform="translate(27.28 14.912) scale(.016 -.016)" d="m107-25q-12 0-12 12v753q0 11 12 11h467q12 0 12-11v-61q0-12-12-12h-390v-249h356q11 0 11-12v-60q0-11-11-11h-356v-276h403q10 0 10-11v-61q0-12-10-12z"/><path transform="translate(43.008 14.912) scale(.016 -.016)" d="m318-40q-104 0-174 51.5t-101 152.5q-3 11 8 14l63 16q10 3 14-8 25-72 70-105.5t120-33.5 121 32 46 93q0 62-42.5 96t-116.5 59l-59 20q-97 33-150.5 85.5t-53.5 129.5q0 60 32 106t87.5 72 124.5 26q96 0 162-46.5t92-139.5q3-12-7-14l-67-17q-10-3-13 7-21 65-62 94t-105 29q-67 0-110-32t-43-83q0-46 39-80.5t120-60.5l52-17q107-35 159-88.5t52-145.5q0-62-33-110t-91-75-134-27z"/><path transform="translate(52.96 14.912) scale(.016 -.016)" d="m305-36q-80 0-138.5 36t-90.5 99-32 143q0 81 32 143.5t91 98 138 35.5 133.5-37 82.5-102.5 27-152.5q0-12-12-12h-404q8-80 54-126.5t119-46.5q59 0 96.5 23t59.5 66q4 9 15 6l52-19q12-3 7-14-34-70-93.5-105t-136.5-35zm0 479q-68 0-114.5-43t-57.5-118h325q-6 73-46 117t-107 44z"/><path transform="translate(62.288 14.912) scale(.016 -.016)" d="m305-36q-80 0-138.5 36t-90.5 99-32 143q0 81 32 143.5t91 98 138 35.5 133.5-37 82.5-102.5 27-152.5q0-12-12-12h-404q8-80 54-126.5t119-46.5q59 0 96.5 23t59.5 66q4 9 15 6l52-19q12-3 7-14-34-70-93.5-105t-136.5-35zm0 479q-68 0-114.5-43t-57.5-118h325q-6 73-46 117t-107 44z"/><path transform="translate(71.616 14.912) scale(.016 -.016)" d="m299-36q-77 0-134.5 36t-89 98.5-31.5 143.5 31.5 143.5 89 98 134.5 35.5q62 0 112.5-26.5t80.5-73.5v338q0 11 11 11h62q11 0 11-11v-770q0-12-11-12h-54q-12 0-12 12l-3 85q-28-49-80.5-78.5t-116.5-29.5zm16 79q55 0 96 25t64.5 70 23.5 104q0 60-23.5 104.5t-64.5 69.5-96 25q-54 0-95.5-25t-65-69.5-23.5-104.5q0-59 23.5-104t65-70 95.5-25z"/><path transform="translate(87.68 14.912) scale(.016 -.016)" d="m221-40q-74 0-129 39.5t-78 121.5q-3 11 8 14l62 18q10 3 13-9 16-46 47-71.5t77-25.5q54 0 82.5 23t39 65.5 10.5 98.5v433h-225q-12 0-12 12v61q0 11 12 11h302q11 0 11-11v-522q0-131-55-194.5t-165-63.5z"/><path transform="translate(96.096 14.912) scale(.016 -.016)" d="m107-25q-12 0-12 12v753q0 11 12 11h225q149 0 220-68.5t71-188.5q0-121-70.5-189t-220.5-68h-148v-250q0-12-12-12zm77 345h143q105 0 154.5 44t49.5 132q0 85-49.5 128.5t-154.5 43.5h-143z"/></svg>