<svg width="12.8" height="22.4" viewBox="0 0 12.8 22.4" xmlns="http://www.w3.org/2000/svg"><path transform="translate(0 19.2) scale(.016 -.016)" d="m0 740q0-13 7-24.5t18.5-18.5 24.5-7 24.5 7 18.5 18.5 7 24.5-7 24.5-18.5 18.5-24.5 7-24.5-7-18.5-18.5-7-24.5z"/><path transform="translate(1.6 19.2) scale(.016 -.016)" d="m0 160q0-13 7-24.5t18.5-18.5 24.5-7 24.5 7 18.5 18.5 7 24.5-7 24.5-18.5 18.5-24.5 7-24.5-7-18.5-18.5-7-24.5z"/><path transform="translate(3.2 19.2) scale(.016 -.016)" d="m0 260q0-13 7-24.5t18.5-18.5 24.5-7 24.5 7 18.5 18.5 7 24.5-7 24.5-18.5 18.5-24.5 7-24.5-7-18.5-18.5-7-24.5z"/><path transform="translate(4.8 19.2) scale(.016 -.016)" d="m0 80q0-13 7-24.5t18.5-18.5 24.5-7 24.5 7 18.5 18.5 7 24.5-7 24.5-18.5 18.5-24.5 7-24.5-7-18.5-18.5-7-24.5z"/><path transform="translate(6.4 19.2) scale(.016 -.016)" d="m0 100q0-13 7-24.5t18.5-18.5 24.5-7 24.5 7 18.5 18.5 7 24.5-7 24.5-18.5 18.5-24.5 7-24.5-7-18.5-18.5-7-24.5z"/><path transform="translate(8 19.2) scale(.016 -.016)" d="m0 280q0-13 7-24.5t18.5-18.5 24.5-7 24.5 7 18.5 18.5 7 24.5-7 24.5-18.5 18.5-24.5 7-24.5-7-18.5-18.5-7-24.5z"/><path transform="translate(9.6 19.2) scale(.016 -.016)" d="m0 260q0-13 7-24.5t18.5-18.5 24.5-7 24.5 7 18.5 18.5 7 24.5-7 24.5-18.5 18.5-24.5 7-24.5-7-18.5-18.5-7-24.5z"/><path transform="translate(11.2 19.2) scale(.016 -.016)" d="m0 380q0-13 7-24.5t18.5-18.5 24.5-7 24.5 7 18.5 18.5 7 24.5-7 24.5-18.5 18.5-24.5 7-24.5-7-18.5-18.5-7-24.5z"/></svg>