<svg width="53.83" height="20.79" viewBox="0 0 53.83 20.79" xmlns="http://www.w3.org/2000/svg"><path transform="translate(0 16.478) scale(.014 -.014)" d="m62 0v47l58 9q19 3 25 13t6 38v491q0 25-6.5 34.5t-26.5 12.5l-56 9v47h286v-47l-66-10q-19-3-25.5-11.5t-6.5-34.5v-544h113q34 0 57.5 6.5t41 24 32 48.5 29.5 80h53l-25-213z"/><path transform="translate(8.904 16.478) scale(.014 -.014)" d="m40 0v48l57 9q20 3 25.5 13t5.5 38v275q0 36-6.5 48t-29.5 15l-48 7 7 49 158 8 12-5v-401q0-19 5-31t27-16l56-10v-47zm120 620q-29 0-48 18.5t-19 47.5 19 48 48 19q30 0 49-18.5t19-47.5-19-48-49-19z"/><path transform="translate(13.566 16.478) scale(.014 -.014)" d="m248-14q-44 0-73.5 16t-44 49-14.5 84v310h-79v51q35 3 58 21.5t36 57 17 99.5l48 6 13-6v-167h155v-62h-155v-303q0-42 17.5-62.5t53.5-20.5q26 0 49 8t47 24l22-35q-32-34-70.5-52t-79.5-18z"/><path transform="translate(19.208 16.478) scale(.014 -.014)" d="m285-14q-73 0-126.5 32t-83 91-29.5 138q0 83 30.5 144.5t85.5 95.5 128 34q55 0 96.5-22t64.5-62 23-93q0-21-3.5-45.5t-10.5-51.5h-313q2-58 22-100.5t55.5-64.5 83.5-22q38 0 74 16t64 44l35-34q-34-47-87-73.5t-109-26.5zm-138 316h230q2 10 2.5 21.5t0.5 24.5q0 60-25.5 90.5t-75.5 30.5q-38 0-65.5-19t-44.5-56-22-92z"/><path transform="translate(26.474 16.478) scale(.014 -.014)" d="m55 0v47l48 9q16 3 21 12.5t5 35.5v282q0 35-6 47t-28 15l-49 7 6 48 136 11 12-7 11-90h3q29 51 67 77.5t82 26.5q47 0 75-26t28-69q0-26-7.5-43.5t-22.5-26.5-37-9q-28 0-43.5 11.5t-15.5 32.5q0 8 2 16t6.5 18.5 10.5 23.5q-22 11-46 3.5t-44.5-29-33.5-52-13-64.5v-205q0-24 4.5-32.5t20.5-10.5l86-13v-46z"/><path transform="translate(33.096 16.478) scale(.014 -.014)" d="m192-14q-63 0-101.5 37t-38.5 98q0 55 27.5 89t90.5 51.5 169 22.5v69q0 41-11.5 67t-35 38.5-61.5 12.5q-27 0-53.5-8.5t-39.5-21.5q10-15 16-26t8.5-18.5 2.5-12.5q0-19-15.5-32t-38.5-13q-27 0-42 13.5t-15 38.5q0 35 26.5 64.5t70 47.5 94.5 18q63 0 104.5-19.5t62-59.5 20.5-101v-242q0-22 11.5-33t33.5-11q11 0 22 2t25 6l10-37q-18-17-44-28.5t-48-11.5q-43 0-66.5 22.5t-28.5 66.5q-19-30-42-49.5t-51-29.5-62-10zm38 68q31 0 55.5 14t39 38 14.5 54v73q-64 0-106.5-11t-63-33.5-20.5-56.5q0-36 22-57t59-21z"/><path transform="translate(40.642 16.478) scale(.014 -.014)" d="m248-14q-44 0-73.5 16t-44 49-14.5 84v310h-79v51q35 3 58 21.5t36 57 17 99.5l48 6 13-6v-167h155v-62h-155v-303q0-42 17.5-62.5t53.5-20.5q26 0 49 8t47 24l22-35q-32-34-70.5-52t-79.5-18z"/><path transform="translate(46.284 16.478) scale(.014 -.014)" d="m192-14q-63 0-101.5 37t-38.5 98q0 55 27.5 89t90.5 51.5 169 22.5v69q0 41-11.5 67t-35 38.5-61.5 12.5q-27 0-53.5-8.5t-39.5-21.5q10-15 16-26t8.5-18.5 2.5-12.5q0-19-15.5-32t-38.5-13q-27 0-42 13.5t-15 38.5q0 35 26.5 64.5t70 47.5 94.5 18q63 0 104.5-19.5t62-59.5 20.5-101v-242q0-22 11.5-33t33.5-11q11 0 22 2t25 6l10-37q-18-17-44-28.5t-48-11.5q-43 0-66.5 22.5t-28.5 66.5q-19-30-42-49.5t-51-29.5-62-10zm38 68q31 0 55.5 14t39 38 14.5 54v73q-64 0-106.5-11t-63-33.5-20.5-56.5q0-36 22-57t59-21z"/></svg>