<svg width="38.352" height="20.08" viewBox="0 0 38.352 20.08" xmlns="http://www.w3.org/2000/svg"><path transform="translate(0 16.08) scale(.016 -.016)" d="M82 0V710H159V67H491L484 0Z"/><path transform="translate(7.744 16.08) scale(.016 -.016)" d="m147 497v-497h-72v497zm-34 113q-24 0-37 15t-13 35 13.5 35 36.5 15 36.5-15 13.5-35-13.5-35-36.5-15z"/><path transform="translate(11.296 16.08) scale(.016 -.016)" d="M417 497H490L296 0H194L33 497H111L249 59Z"/><path transform="translate(19.152 16.08) scale(.016 -.016)" d="M417 497H490L296 0H194L33 497H111L249 59Z"/><path transform="translate(27.008 16.08) scale(.016 -.016)" d="m147 497v-497h-72v497zm-34 113q-24 0-37 15t-13 35 13.5 35 36.5 15 36.5-15 13.5-35-13.5-35-36.5-15z"/><path transform="translate(30.56 16.08) scale(.016 -.016)" d="m286-8q-109 0-171 65.5t-62 182.5q0 79 31 139t86 93.5 128 33.5q120 0 176-96l-56-42q-40 71-122 71-75 0-120.5-54.5t-45.5-144.5q0-88 41-134t118-46q41 0 75 17t56 54l54-42q-60-97-188-97z"/></svg>