<svg width="74.648" height="16.562" viewBox="0 0 74.648 16.562" xmlns="http://www.w3.org/2000/svg"><path transform="translate(0 13.23) scale(.014 -.014)" d="m458 130q1 11 1 22-8-1-28.5-0.5t-47 1.5-56 2.5-55.5 2.5-45.5 1.5-26.5-1.5v1q1 64 0.5 132.5t-1.5 137.5-1.5 137.5 1.5 133.5q-14 6-37 9t-47 3-45-2.5-31-6.5q1-70 2-127.5t2-108.5 1-100-0.5-101.5-2.5-113-5-135.5v-18q121-2 193.5-2t114 1 59 2 28.5 0q11 0 17 0.5t8.5 9 2.5 27-2 54.5q-1 8-0.5 18.5t1.5 20.5z"/><path transform="translate(6.454 13.23) scale(.014 -.014)" d="m29 397q-3-19-4-36.5t-1-35.5q3-33 1.5-73t0.5-79.5 12-75.5 37-60q35-35 86-44 28 0 62-2.5t66 0 59.5 12.5 44.5 34q10 10 15.5 37t9 61 5 71 2.5 66q-1 33-2 64.5t-5 58-12 46.5-22 29q-21 20-50 30.5t-61 12.5q-21 2-39.5 0.5t-38.5 0.5q-24 0-47.5-3t-44-10.5-36-18.5-22.5-26q-3-11-9-29.5t-7-29.5zm175-37q39 9 63-7t29-51q6-29 3.5-61.5t-6.5-64.5q-6-25-23-33-13-7-33-9.5t-38.5 2-31.5 17-12 35.5q2 35 2 66.5t4 63.5q3 16 9 20 13 16 34 22z"/><path transform="translate(12.726 13.23) scale(.014 -.014)" d="m167 499q0 3-8 3.5t-18-0.5-20-2.5-14-1.5q-12-1-20-1.5t-15-0.5-15 0.5-20 1.5q-4-132-1.5-255t2.5-246q24 2 40 1t29-1.5 25.5 0.5 29.5 6v4q4 33 4 66t-1.5 66.5-2.5 67 1 68.5q2 27 14 40.5t27 18 30.5 2 23.5-6.5q1-1 2-1t2-1q8-6 12.5-17t7-25 3.5-28.5 2-26.5q2-27 2.5-58t0-62-0.5-60 2-52q35 0 62.5-0.5t62.5 4.5q-2 34-1 79t2 93.5 1.5 96-1 87.5-7 68.5-15.5 37.5q-21 18-47 25t-53.5 6-53.5-10-47-24q-5-4-12.5-8t-12.5-7q-1 14-0.5 25t-1.5 28z"/><path transform="translate(19.026 13.23) scale(.014 -.014)" d="m294 475q-2 9-22 16t-49 9.5-61.5 0-59.5-12.5q-22-8-37.5-27.5t-25-47-14-60.5-4.5-68q1-50 6.5-99t22-88.5 49.5-65 90-29.5q28-4 53 4.5t40 38.5q3 6 5.5 3.5t4.5-7.5q0-11 0.5-17t0.5-16q0-5 1-7 30-4 67-2.5t68 1.5q4 144-1 307t-5 330v66q-16 3-38 3.5t-41.5 0-33-2-13.5-2.5v-11q-1-20-1.5-30.5t-1-19-1-18-0.5-27 0-46.5 1-76zm-57-89q21 0 33.5-3.5t18.5-15.5 7.5-34.5 1.5-61.5q0-32-1.5-58.5t-9-45.5-22-30-39.5-11q-21 0-38 11t-29 29.5-18 42-6 48.5q0 14 1 29t6 29q5 35 29.5 53t65.5 18z"/><path transform="translate(25.508 13.23) scale(.014 -.014)" d="m172 499q0 2-8.5 2.5t-20-0.5-22-2-14.5-1q-12-1-20-1.5t-15-0.5-15 0.5-20 1.5q-4-132-1.5-255t2.5-246q24 2 41.5 1t32.5-1.5 29 0.5 31 6v4q0 37-0.5 69.5t-0.5 64-1 62.5-2 66q-1 28 8 43t25.5 22 39 7 49.5-3q1 0 13.5-2t24.5-5q5-2 10.5-3.5t10.5-3.5l9-3q-1 15-1 32t0 37.5 0.5 46.5 0.5 60q0 1-14.5 1.5t-35.5-0.5-45-4.5-43-9.5q-14-5-28.5-11t-18.5-8q0 7-0.5 10t-0.5 5.5 0 6.5 0 12z"/><path transform="translate(30.66 13.23) scale(.014 -.014)" d="m67 505q-5 0-14.5 1t-13.5 0v-1q-6-59-6-121.5t2-126.5 2.5-129-4.5-128q7 2 28 1t44.5-1.5 43.5 0 25 6.5q-7 121-3.5 247t4.5 247v3h-17q-32-1-55 0t-36 2zm-28 78q19 1 41-0.5t41.5-2 34 1.5 18.5 8q0 15-0.5 34.5t-1 38-1 34-0.5 21.5l-136 3q-1-46 1.5-77.5t2.5-60.5z"/><path transform="translate(33.558 13.23) scale(.014 -.014)" d="m167 499q0 3-8 3.5t-18-0.5-20-2.5-14-1.5q-12-1-20-1.5t-15-0.5-15 0.5-20 1.5q-4-132-1.5-255t2.5-246q24 2 40 1t29-1.5 25.5 0.5 29.5 6v4q4 33 4 66t-1.5 66.5-2.5 67 1 68.5q2 27 14 40.5t27 18 30.5 2 23.5-6.5q1-1 2-1t2-1q8-6 12.5-17t7-25 3.5-28.5 2-26.5q2-27 2.5-58t0-62-0.5-60 2-52q35 0 62.5-0.5t62.5 4.5q-2 34-1 79t2 93.5 1.5 96-1 87.5-7 68.5-15.5 37.5q-21 18-47 25t-53.5 6-53.5-10-47-24q-5-4-12.5-8t-12.5-7q-1 14-0.5 25t-1.5 28z"/><path transform="translate(39.858 13.23) scale(.014 -.014)" d="m341 503q-3 0-11 0t-16 0.5-14.5 0-6.5-1.5q0-12-2.5-23.5t-1.5-27.5q-7 17-17 26.5t-23 14-28.5 5-33.5 0.5q-35-1-66-18.5t-53.5-48-35.5-72.5-13-92q0-40 8.5-87t26.5-87 45.5-67 66.5-27q35 0 71.5 17t60.5 41q0-10-2-17t-2-18q0-8 2.5-14t9.5-8q11 0 21.5 1.5t21.5 1.5q16 0 32.5-1.5t32.5-1.5h12q12 2 12.5 15t0.5 26q7 107 3 211.5t-1 212.5v10q0 6-0.5 12t-1.5 12q-32 2-56.5 3t-41.5 2zm-100-140q21 0 31.5-3t15-14 5-31.5 0.5-55.5q0-28-0.5-50.5t-6-38-18-24-37.5-8.5q-42 0-65.5 31.5t-23.5 76.5q0 13 1 26.5t5 26.5q5 25 28.5 44.5t64.5 19.5z"/><path transform="translate(49.322 13.23) scale(.014 -.014)" d="m377 672q-24 11-52.5 18t-58 8.5-58.5-2-53-13.5q-48-20-81.5-61t-45.5-91 1.5-103 59.5-97q14-12 31-21t37-13q21-4 45-8.5t44.5-13.5 35.5-23.5 18-38.5q6-35-13.5-52t-46-17.5-50 15.5-25.5 48q-34-1-76 1.5t-77-2.5v-6q-3-48 17-85.5t54-63.5 77.5-40.5 87.5-15.5q31-1 60.5 5.5t55 20.5 45.5 36 32 53q12 26 17.5 54.5t4 56.5-10.5 54.5-27 49.5q-29 43-74.5 71t-98.5 34q-21 3-39 11t-26 32q-1 7-1.5 13.5t1.5 13.5q4 28 26.5 38t46.5 5 41-23 11-45q35-10 75-8.5t75 7.5h1q14 75-12 124t-74 74z"/><path transform="translate(56.112 13.23) scale(.014 -.014)" d="m29 397q-3-19-4-36.5t-1-35.5q3-33 1.5-73t0.5-79.5 12-75.5 37-60q35-35 86-44 28 0 62-2.5t66 0 59.5 12.5 44.5 34q10 10 15.5 37t9 61 5 71 2.5 66q-1 33-2 64.5t-5 58-12 46.5-22 29q-21 20-50 30.5t-61 12.5q-21 2-39.5 0.5t-38.5 0.5q-24 0-47.5-3t-44-10.5-36-18.5-22.5-26q-3-11-9-29.5t-7-29.5zm175-37q39 9 63-7t29-51q6-29 3.5-61.5t-6.5-64.5q-6-25-23-33-13-7-33-9.5t-38.5 2-31.5 17-12 35.5q2 35 2 66.5t4 63.5q3 16 9 20 13 16 34 22z"/><path transform="translate(62.384 13.23) scale(.014 -.014)" d="m33 0q7 2 28 1t44.5-1.5 43.5 0 25 6.5q-2 40-3 97.5t-1 123.5 0.5 137 1.5 137 2 124 1 99l-136 3q-9-91-8.5-182t3.5-182 4.5-182-5.5-181z"/><path transform="translate(65.268 13.23) scale(.014 -.014)" d="m67 505q-5 0-14.5 1t-13.5 0v-1q-6-59-6-121.5t2-126.5 2.5-129-4.5-128q7 2 28 1t44.5-1.5 43.5 0 25 6.5q-7 121-3.5 247t4.5 247v3h-17q-32-1-55 0t-36 2zm-28 78q19 1 41-0.5t41.5-2 34 1.5 18.5 8q0 15-0.5 34.5t-1 38-1 34-0.5 21.5l-136 3q-1-46 1.5-77.5t2.5-60.5z"/><path transform="translate(68.166 13.23) scale(.014 -.014)" d="m294 475q-2 9-22 16t-49 9.5-61.5 0-59.5-12.5q-22-8-37.5-27.5t-25-47-14-60.5-4.5-68q1-50 6.5-99t22-88.5 49.5-65 90-29.5q28-4 53 4.5t40 38.5q3 6 5.5 3.5t4.5-7.5q0-11 0.5-17t0.5-16q0-5 1-7 30-4 67-2.5t68 1.5q4 144-1 307t-5 330v66q-16 3-38 3.5t-41.5 0-33-2-13.5-2.5v-11q-1-20-1.5-30.5t-1-19-1-18-0.5-27 0-46.5 1-76zm-57-89q21 0 33.5-3.5t18.5-15.5 7.5-34.5 1.5-61.5q0-32-1.5-58.5t-9-45.5-22-30-39.5-11q-21 0-38 11t-29 29.5-18 42-6 48.5q0 14 1 29t6 29q5 35 29.5 53t65.5 18z"/></svg>