<svg width="59.344" height="16" viewBox="0 0 59.344 16" xmlns="http://www.w3.org/2000/svg"><path transform="translate(0 14.08) scale(.016 -.016)" d="m75 392q0 13 0 19.5t1 18 3 18 6 13.5 10.5 9 14.5 1q13-2 19-13t6-28.5-1.5-33-4.5-32-3-20.5l-8-166q1-34 7.5-40.5t39.5-6.5q29 0 83-3t88-3q22 0 32.5-7t10.5-27q1-11-4-16t-14-5.5-17.5 1-19.5 3.5-16 2q-139 4-208-9-22-4-32 15.5t-2 42.5q9 29 11.5 74t0 112-2.5 81z"/><path transform="translate(5.936 14.08) scale(.016 -.016)" d="m60 141q0 58 68 143.5t121 115.5q28 15 38 17.5t41-2.5q62-8 60-83-2-40-20-75.5t-49-61.5-65.5-45.5-75.5-34.5q0 0-6.5-2.5t-16-7-20.5-10.5q-33-22-54-10.5t-21 56.5zm284 188q-2 18-6.5 26.5t-17.5 8.5q-14 0-31.5-10t-42.5-28-29-21q-29-19-64-69.5t-46-88.5q42-3 99.5 25t99.5 73 38 84z"/><path transform="translate(11.824 14.08) scale(.016 -.016)" d="m118 376q0-7 0.5-19.5t0.5-18 1-15 2.5-17.5 3.5-17q2 1 27 29t43 41 34 13q11 0 18.5-5.5t10.5-10.5 10-20q7-14 16.5-82.5t14.5-81.5q4-27 103-41-5-24-33-39t-61-11.5-48 26.5q-18 28-23 67-12 112-17 123-109-76-111-229-21 2-32.5 16t-13.5 36.5-1 44 4.5 50 3.5 42.5q0 23-6.5 71t-2.5 74.5 25 44.5q4-6 11.5-17.5t10.5-16.5 6-15 3-22z"/><path transform="translate(17.792 14.08) scale(.016 -.016)" d="m121 83q-29-1-41 16t-7 48q5 33 21.5 59t36 42.5 52.5 31 58.5 22.5 68.5 18q9 0 23 21t24 19q11-2 19-11.5t12.5-20 6.5-29.5 2-30 0-32q0-3 0-4 0-35-4.5-119.5t-0.5-127.5q1-24-3.5-43t-13-32.5-24.5-22.5-32-14-39.5-8-42-3.5-45.5-0.5q-55 0-89.5 12.5t-42.5 47.5q1 17 23 32t48.5 23.5 52.5 12.5l-56-56q44-19 94.5-16.5t87.5 24.5q25 15 33 63t4 93-14 88q-11-6-59-39.5t-81-47.5-72-16zm212 182q-69 16-138.5-25.5t-82.5-100.5q46-7 95 9.5t84 49 42 67.5z"/><path transform="translate(32.144 14.08) scale(.016 -.016)" d="m462 218q-17-29-42-41.5t-77-27.5q-5-1-8-2-21-6-84-27t-98-29q-42-9-66 12t-27.5 57.5 5 76.5 25.5 68q25 41 69.5 86.5t80.5 63.5q6 2 21 10.5t25.5 13 19.5 4.5q14 0 20-13t-2-24q-4-7-7.5-11t-10.5-8.5-10.5-6.5-17-8-20.5-10q-31-14-53.5-33.5t-47.5-48.5q-9-10-15.5-19.5t-10.5-16-8-17-6-15-6.5-19-6.5-21.5q-4-12-5.5-24.5t0-24 9.5-18 22-6.5q38 0 83.5 15.5t80 32.5 80.5 27.5 88 3.5z"/><path transform="translate(39.056 14.08) scale(.016 -.016)" d="m317 384q-79-27-134-84-18-17-32.5-6.5t-14.5 32.5q0 17 18.5 33.5t39.5 27 51 24 40 18.5q24 14 36.5 19t28 5.5 32.5-7.5q12-5 21-22 56-100 56-191 0-10 19.5-57.5t19.5-60.5q0-15-8.5-31t-20.5-16q-15 1-25 9.5t-14.5 18-10.5 27.5q-14-5-47-19t-51.5-20.5-46-16-51-13.5-46.5-4q-77 0-106 57-5 16-5.5 28.5t9 26 19.5 23 25.5 19.5 28 17 26.5 12q70 32 200 45 14 2 21 3 1 31-6 57t-26 40.5-46 5.5zm94-206q-22 33-68.5 42.5t-92-2-82.5-37.5-42-58q41-11 79-11.5t77.5 10.5 70.5 24.5 58 31.5z"/><path transform="translate(47.024 14.08) scale(.016 -.016)" d="m118 376q0-7 0.5-19.5t0.5-18 1-15 2.5-17.5 3.5-17q2 1 27 29t43 41 34 13q11 0 18.5-5.5t10.5-10.5 10-20q7-14 16.5-82.5t14.5-81.5q4-27 103-41-5-24-33-39t-61-11.5-48 26.5q-18 28-23 67-12 112-17 123-109-76-111-229-21 2-32.5 16t-13.5 36.5-1 44 4.5 50 3.5 42.5q0 23-6.5 71t-2.5 74.5 25 44.5q4-6 11.5-17.5t10.5-16.5 6-15 3-22z"/><path transform="translate(52.992 14.08) scale(.016 -.016)" d="m121 83q-29-1-41 16t-7 48q5 33 21.5 59t36 42.5 52.5 31 58.5 22.5 68.5 18q9 0 23 21t24 19q11-2 19-11.5t12.5-20 6.5-29.5 2-30 0-32q0-3 0-4 0-35-4.5-119.5t-0.5-127.5q1-24-3.5-43t-13-32.5-24.5-22.5-32-14-39.5-8-42-3.5-45.5-0.5q-55 0-89.5 12.5t-42.5 47.5q1 17 23 32t48.5 23.5 52.5 12.5l-56-56q44-19 94.5-16.5t87.5 24.5q25 15 33 63t4 93-14 88q-11-6-59-39.5t-81-47.5-72-16zm212 182q-69 16-138.5-25.5t-82.5-100.5q46-7 95 9.5t84 49 42 67.5z"/></svg>