<svg width="53.168" height="22.4" viewBox="0 0 53.168 22.4" xmlns="http://www.w3.org/2000/svg"><path transform="translate(0 14.4) scale(.016 -.016)" d="m826-190q-66 0-161 40-30 13-73 34.5t-99 52.5q-55 31-93.5 50.5t-60.5 28.5q-32-37-61-63t-54-42q-67-43-148-43-44 0-85 29-45 32-45 73 0 57 58 87 46 25 110 25 73 0 188-37 24 32 42 60t29 53q-272 0-272 160 0 84 89 131 5 3 8 3t3-3q0-2-1-3-66-24-66-97 0-81 87-131 73-43 160-43 48 93 48 107 0 0-3 7.5t-8 21.5q-10 27-10 47 0 28 11 28 15 0 31-31 8 21 15.5 57t12.5 88q4 41 6 79t2 72q0 4-1 7v7q0 6 2 6l3-2q7-21 7-65 0-56-7.5-116.5t-23.5-124.5q14 8 21 8 8 0 8-13 0-29-55-81-22-60-42-99h3q7 0 16 2t20 6q9 11 30 63l27 67q69 171 153.5 254t174.5 83q37 0 59-25.5t22-63.5q0-158-343-333-16-8-33-17t-35-17q-7-3-17.5-7.5t-24.5-11.5l-27-43q-19-29-36.5-55.5t-34.5-49.5l270-105q86-33 154.5-48t120.5-15q103 0 103 60 0 38-36 93 18-10 32-37 16-28 16-48 0-55-68-90-57-30-118-30zm-367 383q50 17 114 57t143 104q176 143 176 224 0 23-19.5 34t-43.5 11q-113 0-292-300-13-23-32.5-56t-45.5-74zm-123-160q18 20 93 138-1-1-37-9l-77-122zm-250-138q55 0 132 40t109 84q-10 6-21 10l-20-23q-19-22-41-36t-45-22q13 10 25 20t24 20q14 13 25 24.5t18 22.5q-121 39-177 39-53 0-94-19-54-25-54-70 0-40 41-67 35-23 78-23z"/><path transform="translate(9.344 14.4) scale(.016 -.016)" d="m60 3q-39 0-39 50 0 61 46 125-16 39-16 83 0 43 17 75 32 63 82 63 62 0 72-106 25-1 37.5-15.5t12.5-40.5q0-20-4.5-28.5t-8.5-8.5-4 4q0 5 1.5 12t1.5 17q0 14-10 21.5t-25 7.5q-12-122-59-187h31q-13-8-23-8-2 0-5.5 1t-5.5 1q2-1-35-33-39-33-66-33zm18 186q61 82 128 102-20 86-55 86-32 0-59-63-17-42-17-89 0-19 3-36zm54-109q24 22 49 86 26 66 26 97-22-3-69-41-46-37-57-59 21-76 51-83zm-69-47q28 0 65 42-33 4-54 79-33-55-33-86 0-35 22-35z"/><path transform="translate(13.792 14.4) scale(.016 -.016)" d="m94-7q-6 0-14 8-1 2-1 7 0 14 13 57 21 74 21 174 0 82-35 82-19 0-47-26-26-25-28-25-3 0-3 4 0 1 2 7 12 22 45 44 33 24 55 24 42 0 42-81 0-61-22-133 46 95 110 162 84 87 168 87 51 0 51-50 0-16-4-16-2 0-4 9-4 26-11 35.5t-31 9.5q-65 0-130-59-53-50-87-119-26-54-25-81v-3q0-12-22-62-24-54-35-54-3 0-4-1z"/><path transform="translate(18.064 14.4) scale(.016 -.016)" d="m102-9q-71 0-71 92 0 14 1.5 30.5t5.5 35.5q-4 3-8 8.5t-8 13.5q4-1 8.5-3.5t11.5-4.5q11 50 60 99 53 54 100 54 11 0 11-3 0-2-14-10-37-20-70-62-33-43-48-84l2-2q48 0 100 46t52 94q0 15-8 27t-22 12q-20 0-45-16-25-15-28-15-2 0-2 1 0 12 35 26 30 12 47 12 23 0 38.5-13t15.5-36q0-53-69-103-62-44-120-49-8-24-8-46 0-83 60-83 46 0 96 40 42 33 70 80 9 14 15 14 1 0 1-2 0-4-8-18-31-49-87-90-61-45-114-45z"/><path transform="translate(25.92 14.4) scale(.016 -.016)" d="m826-190q-66 0-161 40-30 13-73 34.5t-99 52.5q-55 31-93.5 50.5t-60.5 28.5q-32-37-61-63t-54-42q-67-43-148-43-44 0-85 29-45 32-45 73 0 57 58 87 46 25 110 25 73 0 188-37 24 32 42 60t29 53q-272 0-272 160 0 84 89 131 5 3 8 3t3-3q0-2-1-3-66-24-66-97 0-81 87-131 73-43 160-43 48 93 48 107 0 0-3 7.5t-8 21.5q-10 27-10 47 0 28 11 28 15 0 31-31 8 21 15.5 57t12.5 88q4 41 6 79t2 72q0 4-1 7v7q0 6 2 6l3-2q7-21 7-65 0-56-7.5-116.5t-23.5-124.5q14 8 21 8 8 0 8-13 0-29-55-81-22-60-42-99h3q7 0 16 2t20 6q9 11 30 63l27 67q69 171 153.5 254t174.5 83q37 0 59-25.5t22-63.5q0-158-343-333-16-8-33-17t-35-17q-7-3-17.5-7.5t-24.5-11.5l-27-43q-19-29-36.5-55.5t-34.5-49.5l270-105q86-33 154.5-48t120.5-15q103 0 103 60 0 38-36 93 18-10 32-37 16-28 16-48 0-55-68-90-57-30-118-30zm-367 383q50 17 114 57t143 104q176 143 176 224 0 23-19.5 34t-43.5 11q-113 0-292-300-13-23-32.5-56t-45.5-74zm-123-160q18 20 93 138-1-1-37-9l-77-122zm-250-138q55 0 132 40t109 84q-10 6-21 10l-20-23q-19-22-41-36t-45-22q13 10 25 20t24 20q14 13 25 24.5t18 22.5q-121 39-177 39-53 0-94-19-54-25-54-70 0-40 41-67 35-23 78-23z"/><path transform="translate(35.264 14.4) scale(.016 -.016)" d="m131 347q-20 0-20 21 0 10 12.5 24.5t22.5 19.5q36 17 43 17 3 0 3-2 0-3-23-29-2-2-15-31-11-20-23-20zm-60-321q-51 0-51 51 0 38 20 96l-18-28q-13-22-18-22-2 0-2 3 0 8 6 15 24 33 53 95 3 8 8.5 20t13.5 27q5 9 25 9 17 0 17-10 0-11-10-30-9-20-17-23-52-104-52-153 0-33 22-33 36 0 79 52 45 52 44 52 2 0 2-3 0-1-2-7-9-16-22.5-32.5t-30.5-34.5q-44-44-67-44z"/><path transform="translate(38.048 14.4) scale(.016 -.016)" d="m-156-444q-185 0-185 111 0 7 0.5 13.5t1.5 13.5q8 38 54 92 154 180 453 187l-33 83q-49-42-89-42-36 0-36 39 0 73 82 162-1 9-1.5 17.5t-0.5 16.5q0 61 23 105 29 56 84 56 6 0 11.5-0.5t10.5-1.5q23-5 35-37 11-30 8-54 60 36 60 87 0 18 4 18 10 0 10-35 0-67-76-103-6-52-37-114-33-67-70-97 10-16 23.5-41t31.5-59q80-1 123-9 16-3 16-8 0-7-16-7-9 0-23 1t-33 3q-37 3-58 3 34-68 34-118 0-119-150-206-130-76-257-76zm263 670q10 10 23.5 20t30.5 20l59 34q1 8 1.5 16t0.5 15q0 59-28 59-24 0-49-37-20-29-29.5-58.5t-9.5-57.5q0-8 1-11zm38-136q24 22 49 85 23 61 23 96-73-34-109-67 4-26 13.5-54.5t23.5-59.5zm-88-42q37 0 71 27-17 42-21 55-5 17-8 31t-5 27q-56-74-56-111 0-29 19-29zm-214-477q109 0 230 87 130 93 130 197 0 31-28 100-79-4-147.5-18.5t-127.5-39.5q-150-64-197-188-7-17-7-34 0-49 51-79 43-25 96-25z"/><path transform="translate(43.232 14.4) scale(.016 -.016)" d="m14-31q-12 0-10 8-3 6-14 26-12 17-12 21 0 8 7 9 10 6 21 15t24 20q63 184 209 505 4 10 10.5 24t15.5 33q14 23 53 23 15 0 15-7 0-2-2-4l-58-109q-69-130-117-234t-76-183q56 56 92.5 100.5t55.5 78.5q2 5 7.5 14.5t19.5 9.5q12 0 12-8 0-5-1.5-14t-3.5-23q-2-13-3-22.5t-1-16.5q0-61 18-123 26-86 71-86 9 0 20 5t14 5q8 0 8-8 0-10-20-18-21-8-32-8-50 0-91 81-35 73-35 136 0 5 0 9t1 8q-18-26-54-64t-89-88q-5-17-9.5-33t-7.5-30l-5-25q-6-27-33-27zm-5 31q2 8 4.5 18t6.5 20l-21-17q5-7 10-21z"/><path transform="translate(49.008 14.4) scale(.016 -.016)" d="m134-14q-50 0-50 61 0 44 22 109-4 13-13.5 23.5t-26.5 17.5l-54 22q-13 6-13 21 0 16 14 19h27q53 0 111 12l1 2 66 146 29 67q8 18 39 18 21 0 21-10 0-4-37-85-37-82-42-87l-17-16-12-24q15 5 51.5 17.5t94.5 32.5q4 1 7 1.5t4 0.5q4 0 4-2 0-17-169-65-20-39-34-66.5t-21-44.5q-26-66-26-119 0-33 22-33 27 0 71 38l45 39q3 0 3-3t-3-9q-16-24-51-51-41-32-63-32zm-24 184q7 20 15.5 41t18.5 43q-25-6-50.5-11t-50.5-9q52-27 67-64z"/></svg>