<svg width="91.336" height="27.617" viewBox="0 0 91.336 27.617" xmlns="http://www.w3.org/2000/svg"><path transform="translate(0 18.734) scale(.0078125 -.0078125)" d="m244 1731 55-43-43-193 8-410v-206q0-326-55-734v-12l27-29h249l138 41 28-41q0-124-514-124-55 0-55 55h-12q110 287 110 844l-6 796q14 56 70 56z"/><path transform="translate(5.5547 18.734) scale(.0078125 -.0078125)" d="m338 1079q129 0 180-370l-14-17v-82q-35-637-221-637l-15-12h-14q-207 47-207 526 0 592 291 592zm-207-524q31-483 123-483h14q117 0 152 497v195q0 186-123 205-166-49-166-414z"/><path transform="translate(9.875 18.734) scale(.0078125 -.0078125)" d="m504 1065q26-6 55-70-43-84-250-897-53-110-110-127-82 0-82 387l-56 582q19 82 82 82l41-55-12-111q6-647 68-647 180 549 180 702l-14 111q51 43 98 43z"/><path transform="translate(14.117 18.734) scale(.0078125 -.0078125)" d="m322 1155q221-65 221-221v-41q0-309-277-428h-94v-29q0-248 123-346h43q78 0 221 221l12-12h15q-99-319-277-319-162 0-264 567-22 0-27 69 56 43 99 359 106 180 205 180zm-166-512q12-68 43-68h84q166 78 166 318v14q-21 137-127 137-166 0-166-401z"/><path transform="translate(19.172 18.734) scale(.0078125 -.0078125)" d="m514 1526q78 0 96-68l-28-98q34-1403 63-1370l-45-33q-57 25-61 25l-13 577-12 14h-14q-84-581-250-581h-27q-166 0-166 332 0 241 236 471 194 45 194 151v193l-28 319q26 62 55 68zm-346-1147v-137q0-107 70-140h12q82 0 194 609l-12 14h-55q-209-127-209-346z"/><path transform="translate(32.453 18.734) scale(.0078125 -.0078125)" d="m113 1655 69-43-14-123 55-690h15q120 166 206 166h43q166-142 166-293-94-459-331-690l-17-13q-55 13-55 68h-27q-102 0-110 43v12l26 111q0 944-94 1382 0 37 68 70zm153-1563 13-12q129 76 235 426l29 110q0 238-127 238-131 0-150-762z"/><path transform="translate(37.766 18.734) scale(.0078125 -.0078125)" d="m524 1022h43l56-55q-27-56-27-152v-98l-16-359 16-14v-14l-16-137q0-1010-95-1010h-55l-55 69q82 64 82 263 41 379 41 1065h-13q-20-7-194-457-60-55-125-70-123 0-123 416 0 330 123 401l43-14v-55q-72-86-72-262v-84q0-248 56-248h16q260 442 260 731z"/><path transform="translate(51.32 18.734) scale(.0078125 -.0078125)" d="m168 1649 31 2 6-99v-14q0-317 41-317l135 45q14-29 27-60-25-22-11-28l-166-82 29-719v-55q-4-203-29-326l-65 4-4 215v494q0 358-41 358l-127-10-45 18 4 33 24 6h27q131 19 131 92l-29 414 15 12z"/><path transform="translate(54.391 18.734) scale(.0078125 -.0078125)" d="m92 1647h41l41-41v-15l-27-110v-97l27-692 14-41h27q92 346 277 346 133 0 153-761l27-152-41-70q-72 0-84 140v96q0 622-111 622-170-65-207-663 9-195 29-195-29-61-55-67h-43q-68 39-68 110l27 68q-58 1425-111 1425 23 62 84 97z"/><path transform="translate(60.008 18.734) scale(.0078125 -.0078125)" d="m322 1155q221-65 221-221v-41q0-309-277-428h-94v-29q0-248 123-346h43q78 0 221 221l12-12h15q-99-319-277-319-162 0-264 567-22 0-27 69 56 43 99 359 106 180 205 180zm-166-512q12-68 43-68h84q166 78 166 318v14q-21 137-127 137-166 0-166-401z"/><path transform="translate(73.258 18.734) scale(.0078125 -.0078125)" d="m184 1686q45-15 56-56l-29-207v-718h41q332 581 332 800 59 56 110 56l56-70q-97-133-443-885v-41q119-512 320-512v-55l-70-12q-166 0-332 483h-14l-70-594-12-14h-55q-35 0-43 55 49 0 98 967l-14 762z"/><path transform="translate(78.695 18.734) scale(.0078125 -.0078125)" d="m164 1290q53 0 98-55 0-41-98-96-37 0-68 67 27 76 68 84zm0-360 43-56q-55-55-55-303 6-262 81-510v-28l-40-43h-41q-66 0-99 651 0 289 84 289z"/><path transform="translate(80.922 18.734) scale(.0078125 -.0078125)" d="m369 1214h12q164 0 194-620v-250l15-151-15-56 15-125-43-26q-68 18-68 96v457q0 483-98 524h-12q-148-76-181-608v-387l15-56q-29-82-56-82-69 0-84 56l15 372-41 623v82l55 55q55-20 55-41l-14-207 14-14h27q0 203 195 358z"/><path transform="translate(85.898 18.734) scale(.0078125 -.0078125)" d="m590 1114h26l43-41v-69q-98-185-98-457l17-815q0-623-195-623 0-27-70-27-166 35-166 152v14h27q92-69 154-69 151 0 151 456v676l-12 99h-29q-104-387-303-387h-16q-47 6-94 206 0 416 260 734l209 81q0 70 96 70zm-455-719v-221q0-41 55-41 113 0 277 664v123q-236 0-320-414z"/></svg>