<svg width="64.559" height="16.488" viewBox="0 0 64.559 16.488" xmlns="http://www.w3.org/2000/svg"><path transform="translate(0 13.535) scale(.0068359 -.0068359)" d="M1037 0H213V1428H394V160H1037Z"/><path transform="translate(7.4648 13.535) scale(.0068359 -.0068359)" d="m908 1072h176v-1072h-144l-26 142h-8q-52-84-144.5-123t-196.5-39q-194 0-293 93t-99 297v702h179v-690q0-256 239-256 179 0 248 100.5t69 287.5z"/><path transform="translate(16.153 13.535) scale(.0068359 -.0068359)" d="m704 1092q193 0 291-93.5t98-300.5v-698h-173v686q0 258-241 258-179 0-247.5-100t-68.5-288v-556h-176v1072h143l26-146h10q53 84 144.5 125t193.5 41z"/><path transform="translate(24.842 13.535) scale(.0068359 -.0068359)" d="m577 1090q191 0 283.5-86t92.5-274v-730h-127l-34 152h-8q-69-88-144.5-130t-207.5-42q-142 0-236.5 77.5t-94.5 240.5q0 161 123 247t379 95l178 6v64q0 134-56.5 186t-158.5 52q-82 0-156-25t-139-57l-54 132q69 38 163 65t197 27zm202-566-153-6q-194-7-268.5-63.5t-74.5-158.5q0-90 53-132t137-42q131 0 218.5 75t87.5 231z"/><path transform="translate(32.573 13.535) scale(.0068359 -.0068359)" d="m945 296q0-156-127.5-236t-338.5-80q-124 0-211.5 17.5t-152.5 50.5v160q65-31 164.5-58.5t205.5-27.5q152 0 221 43t69 115q0 40-24.5 72t-88 64-180.5 72q-115 40-198 80t-127.5 96-44.5 144q0 137 121 210.5t317 73.5q106 0 198-19.5t172-52.5l-62-140q-73 29-153.5 48.5t-169.5 19.5q-124 0-189.5-35t-65.5-95q0-45 29.5-76t97-60 182.5-68q113-38 192.5-78.5t121.5-97 42-142.5z"/><path transform="translate(39.71 13.535) scale(.0068359 -.0068359)" d="m299 1474q43 0 76.5-26.5t33.5-85.5q0-57-33.5-84.5t-76.5-27.5q-48 0-81 27.5t-33 84.5q0 59 33 85.5t81 26.5zm-91-402h176v-1072h-176z"/><path transform="translate(43.757 13.535) scale(.0068359 -.0068359)" d="m1370 1092q183 0 273.5-93.5t90.5-300.5v-698h-173v690q0 254-220 254-157 0-225-90.5t-68-261.5v-592h-174v690q0 254-222 254-163 0-226-100t-63-288v-556h-176v1072h143l26-146h10q50 84 135.5 125t182.5 41q253 0 330-180h10q54 92 147 136t199 44z"/><path transform="translate(56.827 13.535) scale(.0068359 -.0068359)" d="m577 1090q191 0 283.5-86t92.5-274v-730h-127l-34 152h-8q-69-88-144.5-130t-207.5-42q-142 0-236.5 77.5t-94.5 240.5q0 161 123 247t379 95l178 6v64q0 134-56.5 186t-158.5 52q-82 0-156-25t-139-57l-54 132q69 38 163 65t197 27zm202-566-153-6q-194-7-268.5-63.5t-74.5-158.5q0-90 53-132t137-42q131 0 218.5 75t87.5 231z"/></svg>