<svg width="131.81" height="21.072" viewBox="0 0 131.81 21.072" xmlns="http://www.w3.org/2000/svg"><path transform="translate(0 16.512) scale(.016 -.016)" d="m139-9q-17 0-33 28-7 11-7 18t3.5 14 3.5 19v519l-3 106q0 10 19 10t38.5-7.5 19.5-20.5l-2-89v-529q78 5 167 5h113q24 0 37 1h1q13 0 22.5-19t9.5-35-11-16h-1q-39 6-103 6h-41q-192 0-230-10z"/><path transform="translate(8.752 16.512) scale(.016 -.016)" d="m514-4q-10 14-26 39t-58 84.5-130 192.5q-138-202-164-241.5t-33-50-13.5-20.5-26.5-10-37 7.5-17 17.5q0 3 5 10 56 64 102 133.5t145 210.5q-148 227-208 294-8 9-8 14 0 13 20 22t37 9 22-8q25-47 87-138t96-143q62 87 98.5 139t55.5 79 27 39l12 18q5 6 18 6t31-11.5 18-20-14-22.5-95-122q-64-89-115-163 113-170 156-226.5t91-106.5q4-4 4-9 0-11-19.5-21.5t-36-10.5-24.5 9z"/><path transform="translate(18.352 16.512) scale(.016 -.016)" d="m371-17q-197 0-274 130-41 69-41 167 0 185 100 306 102 127 255.5 127t221.5-85q4-4 4-15.5t-13-28-23.5-16.5-14.5 6q-14 22-42 42-50 35-123 35t-124-27.5-89-76.5q-82-104-82-252 0-177 114-225 55-24 125.5-24t126.5 33 90.5 92 34.5 137q0 3-4 3l-114-8q-21-1-75-8h-2q-14 0-26 18.5t-12 33 12 14.5h14q44 0 70 2l124 7q8 1 17 2.5t17 1.5 20-9q31-23 31-39 0-7-4.5-12t-4.5-16v-201q0-8 0.5-26t1-36 0.5-28q0-13-20-13t-37 6.5-17 15.5v1q5 53 5 109-43-91-150-127-47-16-92-16z"/><path transform="translate(30.384 16.512) scale(.016 -.016)" d="m666 7q-6-25-26.5-25t-39.5 16-27 48q-77 332-134 535-34-109-77.5-265.5t-57-204.5-17.5-65.5-11.5-40-26-22.5-36.5 16-26 47q-125 516-177 638-1 2-1 5 0 16 39.5 16t43.5-20l14-53q64-217 130-532 35 145 73 274t58.5 199.5 22.5 96.5q0 20 37 20 18 0 35.5-6t18.5-17q2-13 12.5-47.5t54-199.5 77.5-321q82 298 118.5 417.5t52.5 184.5q3 10 16.5 10t27.5-5q34-14 34-33 0-3-6-17-49-115-185-577-4-16-8-34.5t-9-37.5z"/><path transform="translate(50.064 16.512) scale(.016 -.016)" d="m666 7q-6-25-26.5-25t-39.5 16-27 48q-77 332-134 535-34-109-77.5-265.5t-57-204.5-17.5-65.5-11.5-40-26-22.5-36.5 16-26 47q-125 516-177 638-1 2-1 5 0 16 39.5 16t43.5-20l14-53q64-217 130-532 35 145 73 274t58.5 199.5 22.5 96.5q0 20 37 20 18 0 35.5-6t18.5-17q2-13 12.5-47.5t54-199.5 77.5-321q82 298 118.5 417.5t52.5 184.5q3 10 16.5 10t27.5-5q34-14 34-33 0-3-6-17-49-115-185-577-4-16-8-34.5t-9-37.5z"/><path transform="translate(64.144 16.512) scale(.016 -.016)" d="m244-18q-51 0-92.5 25.5t-65.5 73.5-24 114v14q-21 16-21 32 0 13 19 13l9 1q15 79 86 155t164 76q62 0 99-22 67-39 67-124 0-34-5.5-54t-25.5-32.5-65-26.5q-100-31-249-31h-13v-10q0-65 33.5-105t90.5-40q126 0 204 84 13 15 23 15t10-10.5-14.5-33.5-44.5-50q-73-64-185-64zm-109 270h20q112 0 207 26 36 11 46.5 24t10.5 39q0 87-101 87-69 0-119-57.5t-64-118.5z"/><path transform="translate(72.832 16.512) scale(.016 -.016)" d="m161-1q0-10-17.5-10t-35.5 7.5-18 20.5l2 98v249l-3 107q0 10 17.5 10t35.5-7.5 18-20.5v-14q-2-28-2-63 32 53 83.5 81t102.5 28q92 0 126-63 26-46 26-125v-192l3-106q0-10-17.5-10t-35.5 7.5-18 19.5v1q1 8 1 27l1 71v178q0 59-16 94.5t-66 35.5q-79 0-132.5-57.5t-55.5-203.5q-1-33-2-57v-16q0-30 3-90z"/><path transform="translate(82.24 16.512) scale(.016 -.016)" d="m179-1q0-10-18.5-10t-37.5 7.5-19 20.5l2 95v477l-3 106q0 10 19 10t37.5-7.5 18.5-20.5l-2-89v-176q113 88 208 178.5t104.5 102 24.5 11.5 36-11.5 21-22.5q0-5-9.5-13t-29.5-24-83.5-74-191.5-161q1 0 18.5-20t47.5-53q187-206 296-298 4-3 4-7 0-10-20-19.5t-43-9.5-30 11q-17 23-40 47-182 190-283 308l-30-24v-222z"/><path transform="translate(92.32 16.512) scale(.016 -.016)" d="m217-18q-73 0-117 49.5t-44 143.5q0 125 78 219 35 43 79 67.5t90 24.5q78 0 110-66v55q0 10 19 10t38-7 19-19v-2q-13-89-13-262 0-105 35-160 2-4 2-10.5t-13.5-22-29.5-15.5q-41 0-55 131-37-70-89.5-103t-108.5-33zm3 60q44 0 87 32 104 76 104 256 0 25 1 50-9-9-15-9t-9 4q-31 53-90.5 53t-116.5-72-57-176q0-138 96-138z"/><path transform="translate(101.52 16.512) scale(.016 -.016)" d="m169-1q0-9-17.5-9t-37 7.5-19.5 19.5l2 88v263l-3 107q0 9 18 9t37-7.5 19-19.5l-2-89v-263zm-4.5 679q15.5-20 15.5-40.5t-13-34-34-13.5-36.5 19.5-15.5 40 12.5 34.5 34 14 37-20z"/><path transform="translate(111.33 16.512) scale(.016 -.016)" d="m326 0q0-11-19.5-11t-38.5 8-19 21l2 89 1 525-126-7q-25-1-48.5-4.5t-34.5-4.5h-1q-13 0-23 18t-10 34.5 13 16.5l71-2 354 19q23 2 47 4t36 4h3q12 0 21-18t9-34.5-12-16.5l-80 3-149-8 1-530z"/><path transform="translate(120.56 16.512) scale(.016 -.016)" d="m357-18q-87 0-156.5 32t-109.5 100.5-40 167.5 27 175.5 75.5 134 113.5 89.5 141 32q149 0 220-85 3-4 3-14.5t-13-27.5-24.5-17-17.5 9q-46 71-166.5 71t-201.5-99q-85-101-85-261.5t115-216.5q54-27 112.5-27t109.5 17.5 98 49.5 78 73q12 15 25 15t13-13-14-37q-34-59-104-106-89-62-199-62z"/></svg>