<svg width="53.242" height="16.52" viewBox="0 0 53.242 16.52" xmlns="http://www.w3.org/2000/svg"><path transform="translate(0 12.432) scale(.014 -.014)" d="m763 614-12-1q8-313 23-445 4-32 28.5-64.5t24.5-55-13.5-38.5-36-16-38 27.5-18.5 59.5q-26 335-60 505-91-46-178-159 79-125 79-212.5t-59-151-110-63.5-78.5 33-27.5 81.5 32.5 123 85.5 155.5q-47 69-107 122.5t-117 73.5q-24-169-31.5-254.5t-11.5-185-5-116-12-28-26-11.5-27.5 11.5-12.5 32.5 15 119q33 205 37 444-41 9-41 51 0 19 18 31.5t44 12.5q77 0 166.5-65.5t161.5-164.5q76 101 157 165.5t150 64.5q47 0 47-38 0-18-15.5-31t-31.5-13zm-280-435q0 76-53 172-81-130-81-196 0-36 18.5-63t46.5-27 48.5 35.5 20.5 78.5z"/><path transform="translate(12.698 12.432) scale(.014 -.014)" d="m397-6q-41 0-73 85l-8 22q-51-107-153-107-51 0-84.5 32.5t-33.5 81.5q0 76 52 131t136 59q-20 35-44.5 52.5t-44.5 20.5-37.5 3.5-27.5 7.5-10 27.5 16.5 33.5 39.5 13q65 0 128-65t110-204l19-53q7-18 29.5-48.5t22.5-49.5-10-30.5-27-11.5zm-107 162q0 25-9 46.5t-11 26.5q-26 16-62 16t-64.5-24-28.5-62 25.5-63.5 61.5-25.5 62 25.5 26 60.5z"/><path transform="translate(19.124 12.432) scale(.014 -.014)" d="m240 378q-66 0-107.5-45.5t-41.5-108.5 43.5-107 106.5-44q56 0 101 41 16 14 24 14t14-6 6-13q0-29-56.5-72t-128-43-124 58-52.5 144q0 110 83 185t183 75q42 0 68.5-14.5t26.5-37-13.5-36.5-26.5-14-44.5 12-61.5 12z"/><path transform="translate(24.668 12.432) scale(.014 -.014)" d="m135.5 333q-44.5-44-44.5-108t44.5-108.5 108-44.5 106.5 44.5 43 108.5-43 108-106.5 44-108-44zm39.5-339q-64 0-107 50t-43 125.5 47 146 110 105.5 127 35 107-50 43-125.5-47-146-110-105.5-127-35z"/><path transform="translate(31.444 12.432) scale(.014 -.014)" d="m143 286 6-244q0-21-12-34.5t-31-13.5-32.5 13.5-13.5 34.5l7 198t-7 167q0 21 13.5 35t32.5 14 31-13.5 12-33.5-1-30q56 77 129 77 105 0 135-141l38-172q6-23 24.5-49.5t18.5-47.5q0-52-50-52t-65 79l-38 209q-19 100-103 100-43 0-67-29t-27-67z"/><path transform="translate(38.836 12.432) scale(.014 -.014)" d="m391 419q-1 75-7 164.5t-6 112.5 12 38.5 31 15.5 32.5-16.5 13.5-44-8.5-128-8.5-188.5 7-152.5 15-87.5q23-61 23-82 0-57-44-57-53 0-62 113-40-53-96-83t-119-30-106 50-43 115.5 26 122.5 66 94 86.5 58.5 96 21.5 91.5-37zm-255.5-86q-44.5-44-44.5-108t44.5-108.5 108-44.5 106.5 44.5 43 112.5-39 108-106.5 40-112-44z"/><path transform="translate(46.466 12.432) scale(.014 -.014)" d="m135.5 333q-44.5-44-44.5-108t44.5-108.5 108-44.5 106.5 44.5 43 108.5-43 108-106.5 44-108-44zm39.5-339q-64 0-107 50t-43 125.5 47 146 110 105.5 127 35 107-50 43-125.5-47-146-110-105.5-127-35z"/></svg>