<svg width="35.7" height="17.01" viewBox="0 0 35.7 17.01" xmlns="http://www.w3.org/2000/svg"><path transform="translate(0 13.552) scale(.014 -.014)" d="m640 700 37-700h-94l-24 494 7 120h-6l-135-574-115-10-155 584h-7l12-118-17-496h-82l27 700h140l120-470 21-110h5l18 107 108 473z"/><path transform="translate(10.262 13.552) scale(.014 -.014)" d="m311 366q0 91-83 91-53 0-143-28l-32 63q86 45 186 45 121 0 148-72 14-37 14-98v-213q0-72 41-114l-53-52q-18 11-36.5 32.5t-25.5 42.5h-3q-55-75-152-75-143 0-143 149 0 132 186 159l96 14zm-186-240q0-58 71.5-58t114.5 50v122q-126-17-155-40-31-25-31-74z"/><path transform="translate(16.996 13.552) scale(.014 -.014)" d="m244 537q16 0 27.5-1t58.5-3q139-6 152-6l-11-58-69-7q25-42 25-100 0-86-52-136t-148-50q-15 0-39 2-20-16-26-23t-6-16q0-29 63-35l75-7q80-5 125.5-32.5t45.5-91-37-101.5q-69-72-205-72-205 0-205 124 0 49 62 102 7 6 10.5 8.5t9.5 7 7 4.5q-39 23-39 66 0 26 14 43t47 40q-85 41-85 153 0 88 52 138.5t148 50.5zm135-591q0 31-19 43-10 7-18.5 11.5t-28.5 7.5q-36 5-75.5 8t-72.5 10q-40-31-49.5-47.5t-9.5-33.5q0-38 36.5-56t95-18 100 18 41.5 57zm-149 520q-51 0-72.5-27t-21.5-83q0-111 105-111 52 0 73 28t21 85q0 108-105 108z"/><path transform="translate(23.856 13.552) scale(.014 -.014)" d="m293 537q26 0 39.5-4.5t22.5-7 11-3.5l-16-90q-30 10-71.5 10t-75-35.5-33.5-85.5v-321h-90v381l-8 139 73 10 11-101h4q17 49 51.5 78.5t81.5 29.5z"/><path transform="translate(28.966 13.552) scale(.014 -.014)" d="m311 366q0 91-83 91-53 0-143-28l-32 63q86 45 186 45 121 0 148-72 14-37 14-98v-213q0-72 41-114l-53-52q-18 11-36.5 32.5t-25.5 42.5h-3q-55-75-152-75-143 0-143 149 0 132 186 159l96 14zm-186-240q0-58 71.5-58t114.5 50v122q-126-17-155-40-31-25-31-74z"/></svg>