<svg width="58.944" height="26.4" viewBox="0 0 58.944 26.4" xmlns="http://www.w3.org/2000/svg"><path transform="translate(0 18.4) scale(.016 -.016)" d="m27 21q0 13 10 20.5t27 7.5h32l118 592-33 5q-37 6-37 31 0 18 14 18h176l160-529q8-27 13.5-61.5t6.5-45.5h6q1 11 6.5 45.5t12.5 61.5l150 529h176q14 0 14-18 0-25-37-31l-33-5 128-591 44-10q27-6 27-25 0-15-11-15h-203q-8 0-12.5 5.5t-4.5 15.5q0 13 10 20.5t27 7.5h44l-112 525q-4 16-6.5 37t-2.5 27h-5q-1-6-5.5-24.5t-9.5-39.5l-162-574h-93l-174 574q-5 16-9.5 37t-5.5 27h-5q0-6-2.5-27t-5.5-37l-103-524 57-12q28-5 28-24 0-14-11-14h-187q-17 0-17 21z"/><path transform="translate(16.512 18.4) scale(.016 -.016)" d="m44 125q0 70 50 104.5t132 46.5l141 21v44q0 49-30 79t-84 30q-31 0-69.5-11t-63.5-27l-8-44q-5-29-26-29-7 0-11 3.5t-4 9.5v91q40 24 92.5 40t100.5 16q78 0 128-42t50-117v-294l37-10q14-4 20.5-9.5t6.5-14.5q0-12-11-12h-126v70h-4q-27-37-70-59.5t-98-22.5q-63 0-108 36t-45 101zm323 45v80l-124-20q-59-10-91-33.5t-32-67.5 28-67 72-23q37 0 71 17.5t55 47.5 21 66z"/><path transform="translate(24.96 18.4) scale(.016 -.016)" d="m91 624q0 25 15.5 39.5t38.5 14.5 39-14.5 16-39.5-16-39.5-39-14.5-38.5 14.5-15.5 39.5zm-48-604q0 13 9.5 20t25.5 7h32v395h-51q-16 0-16 20 0 14 9.5 20.5t25.5 6.5h107v-442l47-11q14-3 20.5-8.5t6.5-15.5q0-12-12-12h-188q-16 0-16 20z"/><path transform="translate(29.408 18.4) scale(.016 -.016)" d="m121 112v324h-68q-8 0-12.5 6t-4.5 16q0 13 9.5 21t25.5 8h51l13 106h61v-106h152q12 0 12-12t-10-18-31-8l-123-13v-329q0-34 17.5-51.5t47.5-17.5q21 0 37 6t31 20q12 10 19 10 9 0 15-5.5t6-15.5q0-19-30-39-37-26-92-26-54 0-90 33t-36 91z"/><path transform="translate(35.744 18.4) scale(.016 -.016)" d="m48 20q0 13 9.5 20t25.5 7h31v395h-50q-16 0-16 20 0 14 9.5 20.5t25.5 6.5h102v-99h3q38 46 84 77.5t84 31.5q21 0 32-10.5t11-28.5q0-10-3.5-19.5t-9.5-15.5q-105 0-197-89v-289l48-11q14-3 20.5-8.5t6.5-15.5q0-12-12-12h-188q-16 0-16 20z"/><path transform="translate(42.336 18.4) scale(.016 -.016)" d="m41 240q0 119 62 189t169 70q97 0 153-57t56-152q0-31-13-63h-351q0-92 47-141t119-49q38 0 68.5 9.5t60.5 30.5q2 1 8.5 5t12.5 4q9 0 15-7t6-17q0-18-31-37-62-37-143-37-71 0-125 30.5t-84 87.5-30 134zm360 37q4 9 4 28 0 69-37 107t-98 38q-64 0-106-46.5t-47-126.5z"/><path transform="translate(50.64 18.4) scale(.016 -.016)" d="m41 240q0 119 62 189t169 70q97 0 153-57t56-152q0-31-13-63h-351q0-92 47-141t119-49q38 0 68.5 9.5t60.5 30.5q2 1 8.5 5t12.5 4q9 0 15-7t6-17q0-18-31-37-62-37-143-37-71 0-125 30.5t-84 87.5-30 134zm360 37q4 9 4 28 0 69-37 107t-98 38q-64 0-106-46.5t-47-126.5z"/></svg>