<svg width="213.12" height="16" viewBox="0 0 213.12 16" xmlns="http://www.w3.org/2000/svg"><path transform="translate(0 14.4) scale(.016 -.016)" d="M89 697H129L372 267L614 697H651V1H89ZM126 37H614V622L389 226H354L126 628Z"/><path transform="translate(11.84 14.4) scale(.016 -.016)" d="M351 696H390L676 0H636L542 230H199L104 0H65ZM214 266H527L370 648Z"/><path transform="translate(23.68 14.4) scale(.016 -.016)" d="m80 233h37q7-59 41-107.5t86.5-76 113.5-27.5q67 0 123 33t89 91 33 130v383h-312v37h348v-420q0-82-37.5-148.5t-102-104.5-141.5-38q-71 0-132 32.5t-100 89.5-46 126z"/><path transform="translate(35.52 14.4) scale(.016 -.016)" d="m657 424v-152q0-78-38.5-144t-104.5-104.5-144-38.5-144 38.5-104.5 104.5-38.5 144v152q0 78 38.5 144t104.5 104.5 144 38.5 144-38.5 104.5-104.5 38.5-144zm-287-402q68 0 125.5 33.5t91 91 33.5 125.5v152q0 68-33.5 125.5t-91 91-125.5 33.5-125.5-33.5-91-91-33.5-125.5v-152q0-68 33.5-125.5t91-91 125.5-33.5z"/><path transform="translate(47.36 14.4) scale(.016 -.016)" d="m650 468q0-78-47.5-139.5t-121.5-81.5l177-247h-44l-171 240-32-1h-251v-239h-37v696h265q44 0 75.5-5.5t57.5-17.5q60-28 94.5-83t34.5-122zm-229-192q52 0 96 26t70 70 26 96q0 58-30.5 105t-84.5 70q-39 16-110 16h-228v-383z"/><path transform="translate(71.04 14.4) scale(.016 -.016)" d="M89 697H129L372 267L614 697H651V1H89ZM126 37H614V622L389 226H354L126 628Z"/><path transform="translate(82.88 14.4) scale(.016 -.016)" d="m657 424v-152q0-78-38.5-144t-104.5-104.5-144-38.5-144 38.5-104.5 104.5-38.5 144v152q0 78 38.5 144t104.5 104.5 144 38.5 144-38.5 104.5-104.5 38.5-144zm-287-402q68 0 125.5 33.5t91 91 33.5 125.5v152q0 68-33.5 125.5t-91 91-125.5 33.5-125.5-33.5-91-91-33.5-125.5v-152q0-68 33.5-125.5t91-91 125.5-33.5z"/><path transform="translate(94.72 14.4) scale(.016 -.016)" d="M98 0V696H137L623 224V696H660V0H623V172L135 648V0Z"/><path transform="translate(106.56 14.4) scale(.016 -.016)" d="m657 424v-152q0-78-38.5-144t-104.5-104.5-144-38.5-144 38.5-104.5 104.5-38.5 144v152q0 78 38.5 144t104.5 104.5 144 38.5 144-38.5 104.5-104.5 38.5-144zm-287-402q68 0 125.5 33.5t91 91 33.5 125.5v152q0 68-33.5 125.5t-91 91-125.5 33.5-125.5-33.5-91-91-33.5-125.5v-152q0-68 33.5-125.5t91-91 125.5-33.5z"/><path transform="translate(130.24 14.4) scale(.016 -.016)" d="m120 0v696h259q76 0 140.5-38t102.5-102.5 38-140.5v-134q0-76-38-140.5t-102.5-102.5-140.5-38z"/><path transform="translate(142.08 14.4) scale(.016 -.016)" d="M596 696V659H388V37H596V0H145V37H352V659H145V696Z"/><path transform="translate(153.92 14.4) scale(.016 -.016)" d="m132 518q0 58 30.5 102t86 68 128.5 24q70 0 128.5-29.5t92.5-82.5 34-121h-37q0 59-29 104t-79 69.5-111 24.5q-54 0-101-17t-76.5-52-29.5-88q0-48 28-76.5t73-43.5 126-32q82-17 127.5-32.5t77-51.5 31.5-101-34.5-109.5-91.5-66.5-124-22q-83 0-146 31t-96.5 87.5-33.5 129.5h37q0-64 28.5-112t82.5-74.5 128-26.5q92 0 152.5 44t60.5 120q0 52-26 80t-65.5 40.5-118.5 28.5q-85 17-138.5 37.5t-84 56-30.5 91.5z"/><path transform="translate(165.76 14.4) scale(.016 -.016)" d="m176 0h-37v696h280q70 0 129.5-30t94.5-85 35-127q0-69-35.5-127t-96.5-89q-53-27-127-27h-243zm0 248h243q64 0 105 20 53 25 85 75t32 111q0 60-32 110t-86 75q-41 20-104 20h-243z"/><path transform="translate(177.6 14.4) scale(.016 -.016)" d="M155 0V696H192V37H677V0Z"/><path transform="translate(189.44 14.4) scale(.016 -.016)" d="M351 696H390L676 0H636L542 230H199L104 0H65ZM214 266H527L370 648Z"/><path transform="translate(201.28 14.4) scale(.016 -.016)" d="M124 696 371 324 616 696H660L389 285V0H352V285L80 696Z"/></svg>