<svg width="57.659" height="19.124" viewBox="0 0 57.659 19.124" xmlns="http://www.w3.org/2000/svg"><path transform="translate(0 14.924) scale(.007 -.007)" d="M140 0V1440H275L841 229L1404 1440H1541V1H1401V1112L888 0H793L281 1112V0Z"/><path transform="translate(11.767 14.924) scale(.007 -.007)" d="m449-30q-122 0-204.5 44t-123.5 117-41 159q0 88 35.5 150.5t97 102.5 142.5 61q82 20 181.5 35.5t195 27 167.5 22.5l-52-32q3 160-62 237t-226 77q-111 0-187.5-50t-107.5-158l-143 42q37 145 149 225t291 80q148 0 251.5-55.5t146.5-160.5q20-47 26-105t6-118v-671h-131v271l38-16q-55-139-171-212t-278-73zm17 127q103 0 180 37t124 101.5 61 145.5q12 52 13 114.5t1 93.5l56-29q-75-10-162.5-20t-172-23-152.5-31q-46-13-89-36.5t-70.5-62.5-27.5-97q0-47 23.5-91t76-73 139.5-29z"/><path transform="translate(19.544 14.924) scale(.007 -.007)" d="m920 0v551q0 90-17 165.5t-54.5 132-97 87.5-144.5 31q-78 0-137.5-27t-100-77.5-61.5-122.5-21-164l-104 23q0 166 58 279t160 171 234 58q97 0 169.5-30t123-81 81.5-116.5 45-139 14-146.5v-594zm-781 0v1080h133v-266h15v-814z"/><path transform="translate(27.86 14.924) scale(.007 -.007)" d="m140 0v1080h132v-260l-26 34q18 48 47 88.5t63 66.5q42 37 98 56.5t113 23 104-8.5v-138q-59 15-129 7t-129-56q-54-42-81-100.5t-36-124-9-129.5v-539z"/><path transform="translate(32.907 14.924) scale(.007 -.007)" d="m591-30q-161 0-275 73t-175 202-61 296q0 170 62 298t176.5 199.5 272.5 71.5q162 0 276.5-72.5t175-201 60.5-295.5q0-170-61-298.5t-176-200.5-275-72zm0 141q180 0 268 119.5t88 310.5q0 196-88.5 312t-267.5 116q-121 0-199.5-54.5t-117-151-38.5-222.5q0-195 90-312.5t265-117.5z"/><path transform="translate(41.188 14.924) scale(.007 -.007)" d="m625-30q-149 0-252 75.5t-156 205-53 290.5q0 164 53.5 292.5t157.5 202.5 256 74q148 0 254-75t162.5-204 56.5-290q0-162-57-291t-164-204.5-258-75.5zm-486-450v1560h132v-813h16v-747zm471 587q113 0 188 57t112.5 155.5 37.5 221.5q0 122-37 220t-112.5 155-191.5 57q-113 0-187.5-55t-111.5-152.5-37-224.5q0-125 37-223.5t112-154.5 190-56z"/><path transform="translate(49.476 14.924) scale(.007 -.007)" d="m597-30q-158 0-273.5 70t-179.5 197-64 298q0 177 63 306t177.5 199 270.5 70q160 0 273-73.5t171-210.5 53-327h-150v52q-4 210-90.5 317t-252.5 107q-174 0-266.5-113t-92.5-322q0-204 92.5-316.5t262.5-112.5q116 0 202.5 53.5t136.5 154.5l137-53q-64-141-188.5-218.5t-281.5-77.5zm-413 529v123h825v-123z"/></svg>