<svg width="67.28" height="25.248" viewBox="0 0 67.28 25.248" xmlns="http://www.w3.org/2000/svg"><path transform="translate(0 17.792) scale(.016 -.016)" d="m861 20q-6 0-18 3-64 13-68 77-1 8-1 21.5t0 31.5q0 19 0.5 47t1.5 66l1 55 2 79q-8-7-45-62-36-54-118-205-19-49-42-49-11 0-31 11-54 33-66 91-10 44-21.5 90.5t-25.5 94.5q-3 12-11.5 30.5t-16 35.5-10.5 22l-13 26q-145-193-198-356-11-36-19-48-9-15-21-15-20 0-54 34-27 24-27 54 0 16 6 32 21 62 52.5 121t72.5 114l31 41q32 41 55.5 74t39.5 56q24 35 64 35 4 0 9.5-0.5t13.5-1.5q11-2 49-76 19-37 42-85.5t51-107.5l32-67q21 23 39 53.5t45 82.5q16 29 26.5 48.5t16.5 27.5q24 37 50 75.5t54 79.5q8 11 25 15 2 1 10 1 16 0 35-9.5t35-23.5 22-28q2-6 2-15 0-12-1-15-4-18-9-54-16-122-27.5-213.5t-18.5-152.5q-2-14-3-30t-1-33l-2-32q-1-5-1-10.5t0-12.5q0-12-14-23z"/><path transform="translate(16 17.792) scale(.016 -.016)" d="m231 2q-28 0-58.5 8.5t-55.5 23-38 31.5q-20 30-19 60 2 49 40 96 26 31 47.5 49t47 27.5 61.5 12.5q8 0 21.5 2t24.5 5.5 11 7.5q0 14-12 26-14 11-51 11-7 0-17.5-0.5t-24.5-1.5-24-1.5-15-0.5q-33 0-49 11-4 1-4 19 0 31 21 38 22 8 44 12t45 5q58 0 107.5-25.5t72.5-63.5q23-37 30-105 4-37 6-85t2-106q0-32-9-37-8-5-15-5-9 0-21 6.5t-21 16.5l-7 12q-4 11-9 12-9 0-20-8.5t-19-17.5q-6-6-12-11t-13-9q-11-7-44-13-7-1-12.5-1.5t-10.5-0.5zm-31 70q7 0 13 2 23 7 46.5 15.5t45.5 18.5q10 5 18 17t10 15 3.5 17.5 0.5 23.5q-2 3-3 16-1 7-3.5 12.5t-4.5 10.5q-5 8-16 15t-20 6q-19-1-41-14t-41-35q-19-23-29.5-46.5t-10.5-43.5q1-16 15-25 8-5 17-5z"/><path transform="translate(23.904 17.792) scale(.016 -.016)" d="m114-5q-62 7-64 53-1 58 9 137 4 29 7 52t6 40q2 17 6 39l6 53q2 16 3 25.5t11 17 40 17.5q61 0 72-50v-2q0-3-0.5-6.5t-1.5-8.5q-2-12-1-13 69 15 117 15 76 0 113-72 31-61 31-135 0-10-1-23.5t-3-31.5q-3-24-19-38.5t-38-14.5q-15 0-24.5 3t-14 16.5-6.5 43.5l-1 21q-1 30-3 56t-5 48q-5 33-41 33-8 0-17.5-1.5t-20.5-3.5q-22-6-34-10t-21-9-24-16q-7-5-10-20t-3-17q-7-32-13.5-70.5t-14.5-82.5q-1-2-1.5-6.5t-2.5-12.5q-3-16-36-26z"/><path transform="translate(32.192 17.792) scale(.016 -.016)" d="m167-22q-84 0-107 72 8 0 21.5-0.5t22.5-2.5q7-1 12-1.5t8-0.5q45 0 75 40 21 29 21 59 0 20-10 39-11 20-24.5 41.5t-29.5 44.5q-10 16-20 30.5t-18 28.5q-20 32-20 71 0 36 20.5 63.5t60.5 34.5l32 6q26 5 45.5 7.5t32.5 2.5q42 0 76-20 7-5 14.5-17.5t11.5-19.5q-4-1-8.5-3.5t-10.5-5.5q-7-4-12-5.5t-10-2.5q-7-1-17.5-1.5t-24.5-0.5q-13 0-23.5 0t-17.5-1q-32-3-50.5-21.5t-18.5-44.5q0-20 12-41 26-43 75-103 36-45 36-93 0-26-12-55-40-100-142-100z"/><path transform="translate(38.768 17.792) scale(.016 -.016)" d="m231 2q-28 0-58.5 8.5t-55.5 23-38 31.5q-20 30-19 60 2 49 40 96 26 31 47.5 49t47 27.5 61.5 12.5q8 0 21.5 2t24.5 5.5 11 7.5q0 14-12 26-14 11-51 11-7 0-17.5-0.5t-24.5-1.5-24-1.5-15-0.5q-33 0-49 11-4 1-4 19 0 31 21 38 22 8 44 12t45 5q58 0 107.5-25.5t72.5-63.5q23-37 30-105 4-37 6-85t2-106q0-32-9-37-8-5-15-5-9 0-21 6.5t-21 16.5l-7 12q-4 11-9 12-9 0-20-8.5t-19-17.5q-6-6-12-11t-13-9q-11-7-44-13-7-1-12.5-1.5t-10.5-0.5zm-31 70q7 0 13 2 23 7 46.5 15.5t45.5 18.5q10 5 18 17t10 15 3.5 17.5 0.5 23.5q-2 3-3 16-1 7-3.5 12.5t-4.5 10.5q-5 8-16 15t-20 6q-19-1-41-14t-41-35q-19-23-29.5-46.5t-10.5-43.5q1-16 15-25 8-5 17-5z"/><path transform="translate(46.672 17.792) scale(.016 -.016)" d="m192-28h-30q-21 0-65 26-26 32-26 60 0 117-0.5 205t-1.5 147l-1 176q0 17-1.5 33.5t-5.5 30.5q-1 3-1 12 0 37 50 37 33 0 55.5-21.5t20.5-56.5q-1-26-3.5-66t-4.5-93l-6-120q-4-85-6.5-148.5t-4.5-106.5q-1-10 1-22t3-15l10-4q20 25 29 38 11 15 23 15t18-15q14-42 14-63 0-12-1-15-4-20-22.5-28t-43.5-6z"/><path transform="translate(51.616 17.792) scale(.016 -.016)" d="m240-39q-33 0-58 28-7 9-15 24.5t-16 37.5q-23 71-42 131.5t-35 110.5q-1 4-3.5 9t-4.5 12q-6 12-6 20 0 15 15 25 16 11 32 11 19 0 47-19 20-15 29-34t17-50 15-48q4-7 9-26 5-17 8.5-26.5t4.5-11.5q21 38 39 75 29 60 45 84 29 44 69 78 8 8 19 8 10 0 16.5-8t8.5-20q1-3 1-13 0-11-2-22t-6-22l-117-302q-9-25-28.5-38.5t-41.5-13.5z"/><path transform="translate(59.376 17.792) scale(.016 -.016)" d="m231 2q-28 0-58.5 8.5t-55.5 23-38 31.5q-20 30-19 60 2 49 40 96 26 31 47.5 49t47 27.5 61.5 12.5q8 0 21.5 2t24.5 5.5 11 7.5q0 14-12 26-14 11-51 11-7 0-17.5-0.5t-24.5-1.5-24-1.5-15-0.5q-33 0-49 11-4 1-4 19 0 31 21 38 22 8 44 12t45 5q58 0 107.5-25.5t72.5-63.5q23-37 30-105 4-37 6-85t2-106q0-32-9-37-8-5-15-5-9 0-21 6.5t-21 16.5l-7 12q-4 11-9 12-9 0-20-8.5t-19-17.5q-6-6-12-11t-13-9q-11-7-44-13-7-1-12.5-1.5t-10.5-0.5zm-31 70q7 0 13 2 23 7 46.5 15.5t45.5 18.5q10 5 18 17t10 15 3.5 17.5 0.5 23.5q-2 3-3 16-1 7-3.5 12.5t-4.5 10.5q-5 8-16 15t-20 6q-19-1-41-14t-41-35q-19-23-29.5-46.5t-10.5-43.5q1-16 15-25 8-5 17-5z"/></svg>