<svg width="61.536" height="19.456" viewBox="0 0 61.536 19.456" xmlns="http://www.w3.org/2000/svg"><path transform="translate(0 15.68) scale(.016 -.016)" d="m360-10-187 521-15-458 89-20v-33h-225v33l81 20 17 506-80 19v33h185l174-489 165 489h191v-33l-90-20 19-505 92-20v-33h-262v33l89 20-16 455-177-508z"/><path transform="translate(12.704 15.68) scale(.016 -.016)" d="m172-11q-35 0-59 18t-36 46.5-12 58.5q0 24 8.5 52.5t36 52.5 82.5 34l151 27v84q0 38-17 61t-70 23q-22 0-49-3.5t-50-10.5l-24-86h-30l-17 117q42 16 89.5 26.5t98.5 10.5q46 0 80-10t53-33.5 19-65.5v-333l85-18v-28q-28-9-54-12.5t-46-3.5q-24 0-42.5 13.5t-23.5 41.5q-38-28-81-45t-92-17zm53 62q29 0 61.5 12t56.5 25v146l-104-17q-50-8-68.5-34t-18.5-56q0-43 21-59.5t52-16.5z"/><path transform="translate(21.184 15.68) scale(.016 -.016)" d="m31 0v28l89 25v377l-89 10v23l145 37h27v-40q20 9 49 18t63 15.5 67 6.5q36 0 66-10t48.5-34 18.5-65v-338l90-25v-28h-255v28l82 25v321q0 40-20.5 53t-79.5 13q-31 0-66.5-4t-62.5-12v-371l82-25v-28z"/><path transform="translate(31.168 15.68) scale(.016 -.016)" d="m217-10q-43 0-68 17t-35.5 44.5-10.5 57.5v321l-89 10v23l147 37h26v-380q0-33 14.5-50.5t66.5-17.5q27 0 66.5 10t69.5 21v347l-90 10v23l147 37h27v-442l91-18v-28q-31-9-58.5-12.5t-47.5-3.5q-19 0-39.5 13t-24.5 37q-28-11-59-24.5t-64.5-22.5-68.5-9z"/><path transform="translate(40.72 15.68) scale(.016 -.016)" d="m172-11q-35 0-59 18t-36 46.5-12 58.5q0 24 8.5 52.5t36 52.5 82.5 34l151 27v84q0 38-17 61t-70 23q-22 0-49-3.5t-50-10.5l-24-86h-30l-17 117q42 16 89.5 26.5t98.5 10.5q46 0 80-10t53-33.5 19-65.5v-333l85-18v-28q-28-9-54-12.5t-46-3.5q-24 0-42.5 13.5t-23.5 41.5q-38-28-81-45t-92-17zm53 62q29 0 61.5 12t56.5 25v146l-104-17q-50-8-68.5-34t-18.5-56q0-43 21-59.5t52-16.5z"/><path transform="translate(49.2 15.68) scale(.016 -.016)" d="m17 0v33l90 20v603l-90 10v23l146 38h27v-674l90-20v-33z"/><path transform="translate(53.952 15.68) scale(.016 -.016)" d="m266-11q-56 0-98 16t-70.5 48-42.5 79.5-14 110.5 14 111 41 80.5 67 49 92 16.5q96 0 142-45.5t46-142.5q0-8-0.5-16t-0.5-16-1-18h-308v-32q0-58 17.5-100.5t50.5-65 79-22.5q32 0 72.5 6t77.5 16l6-31q-43-24-81-34t-89-10zm-131 308 218 10v23q0 41-9.5 68t-30 40-52.5 13q-43 0-70-15.5t-40-49-16-89.5z"/></svg>