<svg width="65.472" height="27.84" viewBox="0 0 65.472 27.84" xmlns="http://www.w3.org/2000/svg"><path transform="translate(0 17.6) scale(.016 -.016)" d="m107-10q3 102 4 194t-1 180-8.5 178.5-18.5 189.5l153 26q4-76 5.5-151t1-149-3-148-7-149-12.5-151zm406 4q6 55 9.5 117.5t3.5 128-3 128-11 117.5-22 97.5-34.5 66.5-48.5 24q-43 0-80-54.5t-61.5-154.5-30.5-236l-71-8q16 157 41.5 261.5t59 165.5 75.5 87 92 26q61 0 103.5-37.5t68.5-105.5 39.5-161 17-204 0.5-234zm455 3q6 60 7.5 125.5t-0.5 131.5-8.5 127.5-18 114-27 92.5-36.5 62.5-48 22.5q-28 0-51.5-26t-41.5-72-31.5-107.5-23.5-135-17-153.5-11-161l-57 174q1 49 6 110t16 125.5 29.5 125 46.5 108.5 65.5 76.5 87.5 28.5q68 0 115.5-43t79-117.5 47.5-170.5 20-203.5-2-214.5z"/><path transform="translate(19.232 17.6) scale(.016 -.016)" d="m201-14q-42 0-79 18.5t-59 54-22 86.5q0 57 32.5 111t108.5 101 202 84l34-67q-78-17-127-41.5t-75-51-35.5-52.5-9.5-46q0-39 20-67.5t58-28.5q34 0 66.5 21.5t53.5 62.5 21 100l58 43q-6-89-29.5-151t-59-101-76.5-57.5-82-18.5zm212 1q-7 41-13 97.5t-9 115.5-5 111-2.5 87.5 0.5 42.5l141 15q-15-127-16.5-234.5t4.5-211.5z"/><path transform="translate(28.688 17.6) scale(.016 -.016)" d="m200-6-36 131q4 86 29.5 157t67.5 117.5 95 61.5 110-12l-23-133q-64 30-107.5 23t-70.5-49-42-116.5-23-179.5zm0 0h-134q11 78 16 152t3.5 147-9.5 147l106 22q10-67 15.5-125.5t7-113 0-111-4.5-118.5z"/><path transform="translate(36.688 17.6) scale(.016 -.016)" d="m180 5-105-10q5 95 7 196t1 203-5 200-12 188l143 22q6-188 0.5-389.5t-29.5-409.5zm371-16-141 11q14 57 21 113.5t5.5 106.5-11 89-28 61-48.5 22-58-29.5-50.5-82-38-123-22.5-152.5l-69 124q4 40 18.5 85.5t37.5 90 54.5 81 71 58.5 86.5 22q56 0 92.5-30.5t56.5-81.5 27.5-113 5.5-128-10-124z"/><path transform="translate(46.592 17.6) scale(.016 -.016)" d="m431-2q-56-6-112.5-4t-106.5 15-88.5 39-60.5 68-22 103q0 60 22 104t59.5 73.5 83 44 91.5 14.5q70 0 117-25.5t71-63.5 23-78q0-33-15.5-65t-51-52.5-97.5-20.5q-22 0-51.5 4t-60 11.5-57.5 18-45 23.5l26 44q19-12 50.5-21t77.5-9q29 0 53.5 8.5t39.5 28 15 48.5q0 18-8 36t-26.5 30.5-51.5 12.5-63.5-22.5-50.5-57-20-73.5q0-54 20.5-91.5t57.5-58 86-24.5 107 8z"/><path transform="translate(55.36 17.6) scale(.016 -.016)" d="m46-229 52 120q63-46 119.5-68.5t102-15.5 75.5 48 41 120q6 44 8.5 82t2 76.5-2.5 83.5-5 101.5-6 131.5l131 32q3-91 2-182t-7-175.5-19-156.5q-17-98-60.5-155t-108-78-147-10.5-178.5 46.5zm194 218q-56 0-92 29.5t-56.5 78.5-28 110-5.5 125.5 10 123.5l140 4q-13-58-20-114.5t-6-107.5 10.5-90.5 28.5-62.5 48-23q31 0 58 30t49 82.5 36.5 123 20.5 152.5l52-129q-2-41-14-86.5t-32.5-89.5-49.5-79-66.5-56-82.5-21z"/></svg>