<svg width="72.88" height="19.088" viewBox="0 0 72.88 19.088" xmlns="http://www.w3.org/2000/svg"><path transform="translate(0 15.552) scale(.016 -.016)" d="m736 0q-60 0-60 77v484h-7l-206-524q-15-37-42-37-28 0-43 37l-192 524h-7v-505q0-32-13.5-44t-27.5-12-26 10-12 35v611q0 26 20 39.5t44 13.5q19 0 42-10.5t33-37.5l192-531h5l209 526q11 30 34.5 41.5t46.5 11.5q51 0 51-53v-606q0-28-9-39t-32-11z"/><path transform="translate(14.032 15.552) scale(.016 -.016)" d="m370 95q-33-49-75.5-72t-100.5-23q-76 0-113.5 37.5t-37.5 97.5q0 32 11 63.5t39 56.5 77 40 125 15h73v28q0 69-23.5 96.5t-76.5 27.5q-31 0-52.5-13t-35.5-29q-15-16-30-25.5t-31-9.5q-18 0-26.5 10.5t-8.5 23.5q0 21 16 33.5t39 22.5q34 14 75.5 20.5t73.5 6.5q74 0 114-20.5t55.5-60.5 15.5-100v-274q0-22-7.5-34.5t-31.5-12.5q-33 0-47 22.5t-14 71.5zm-59 173q-64 0-100-16t-50-43-14-60q0-46 24-64t63-18q25 0 56.5 12.5t55 38.5 23.5 66v84z"/><path transform="translate(22.768 15.552) scale(.016 -.016)" d="m404 459q0-18-8.5-28.5t-30.5-10.5h-33q-54 0-86.5-18.5t-47-47.5-14.5-59v-224q0-45-15.5-58t-48.5-13q-24 0-32 12.5t-8 34.5v412q0 24 10.5 33.5t32.5 9.5q27 0 43-21t16-65v-25h2q12 19 32.5 45t52.5 46 76 20h12q26 0 36-11.5t11-31.5z"/><path transform="translate(29.088 15.552) scale(.016 -.016)" d="m646 332q0 59-19 81t-54 22q-24 0-48.5-17.5t-41.5-46-17-61.5v-239q0-45-15-58t-48-13q-24 0-32 12.5t-8 34.5v285q0 59-19 81t-54 22q-24 0-48.5-15t-41.5-41-17-59v-249q0-45-15-58t-48-13q-24 0-32 12.5t-8 34.5v412q0 24 10.5 33.5t32.5 9.5q27 0 42.5-21t15.5-65v-7h2q25 40 59 66.5t96 26.5q107 0 124-103h2q17 27 37.5 50.5t49.5 38 70 14.5q67 0 97.5-38.5t30.5-112.5v-304q0-22-8-34.5t-32-12.5q-33 0-48 18.5t-15 63.5z"/><path transform="translate(42.352 15.552) scale(.016 -.016)" d="m435 126q10 11 25 11 8 0 15.5-5.5t7.5-15.5q0-18-13-34-28-34-72-58t-112-24q-120 0-178 65t-58 174q0 128 60 195.5t174 67.5q89 0 145-50.5t56-150.5q0-31-18.5-40t-38.5-9h-269q-1-6-1-11.5t0-10.5q0-82 32.5-134t106.5-52q41 0 67 14.5t42.5 34 28.5 33.5zm-157 336q-46 0-77.5-39t-38.5-129h187q17 0 25.5 6t8.5 23q0 48-15.5 79t-39.5 45.5-50 14.5z"/><path transform="translate(50.752 15.552) scale(.016 -.016)" d="m189 68q0-45-15.5-56.5t-48.5-11.5q-24 0-32 12.5t-8 34.5v666q0 23 8 35t32 12q33 0 48.5-18.5t15.5-63.5z"/><path transform="translate(55.136 15.552) scale(.016 -.016)" d="m370 95q-33-49-75.5-72t-100.5-23q-76 0-113.5 37.5t-37.5 97.5q0 32 11 63.5t39 56.5 77 40 125 15h73v28q0 69-23.5 96.5t-76.5 27.5q-31 0-52.5-13t-35.5-29q-15-16-30-25.5t-31-9.5q-18 0-26.5 10.5t-8.5 23.5q0 21 16 33.5t39 22.5q34 14 75.5 20.5t73.5 6.5q74 0 114-20.5t55.5-60.5 15.5-100v-274q0-22-7.5-34.5t-31.5-12.5q-33 0-47 22.5t-14 71.5zm-59 173q-64 0-100-16t-50-43-14-60q0-46 24-64t63-18q25 0 56.5 12.5t55 38.5 23.5 66v84z"/><path transform="translate(63.872 15.552) scale(.016 -.016)" d="m288 502q24 0 48-4.5t43-12.5v193q0 45 15.5 63.5t48.5 18.5q24 0 32-12t8-35v-666q0-22-7.5-34.5t-31.5-12.5q-33 0-47 27.5t-14 76.5l-3 1q-16-26-37-50.5t-50.5-39.5-71.5-15-81.5 21-64.5 71-25 137q0 144 64.5 208.5t173.5 64.5zm-130-265q0-64 14-101t37.5-53 51.5-16 55 19.5 45.5 49 18.5 58.5v209q0 20-23.5 39.5t-68.5 19.5q-39 0-68.5-19t-45.5-68-16-138z"/></svg>