<svg width="32.522" height="16.94" viewBox="0 0 32.522 16.94" xmlns="http://www.w3.org/2000/svg"><path transform="translate(0 13.314) scale(.014 -.014)" d="M311 265 443 700H530V0H476V582H463L346 206H259L143 582H131V0H78V700H165L295 265Z"/><path transform="translate(8.512 13.314) scale(.014 -.014)" d="m294 243q0 1-9 6.5t-24.5 12-36.5 12-44 5.5q-17 0-32.5-7t-26.5-19-17.5-27.5-6.5-33.5v-63q0-18 6.5-33.5t17.5-27 26-18.5 32-7q15 0 34.5 5.5t37.5 12.5q21 8 43 18zm51-194 19-18-36-36-27 27q-32-18-66.5-25t-54.5-7q-28 0-52.5 11.5t-42.5 31-28 45.5-10 55v56q0 29 10 54.5t28 44.5 42.5 30 52.5 11q7 0 21.5-1t31-4 33.5-8.5 29-14.5v34q0 23-8.5 45.5t-22.5 40.5-33 29-41 11q-8 0-28.5-5t-42.5-10q-26-6-56-14l-14 47q33 8 61 15 24 6 47 11t33 5q32 0 60-15t49-39.5 33-56 12-64.5z"/><path transform="translate(14.154 13.314) scale(.014 -.014)" d="m323 470-28-42q-17 10-28 15.5t-20.5 8.5-18 3.5-18.5 0.5q-15 0-41-8.5t-52-32.5v-414h-50v442l-26 26 35 36 35-34q29 26 55.5 32.5t45.5 6.5q20 0 44-8t67-32z"/><path transform="translate(18.774 13.314) scale(.014 -.014)" d="m289 500h51l-113-500h-85l-119 500h50l75-300q4-15 8.5-37.5t8.5-43.5 7-36 3-15h20q6 27 11 52 5 21 9 43.5t8 37.5z"/><path transform="translate(23.856 13.314) scale(.014 -.014)" d="m225 241h2q18 0 33 7.5t26 20 17.5 28.5 6.5 34v42q0 24-9 40.5t-23.5 26.5-34 14.5-40.5 4.5q-19 0-36.5-6t-30.5-17-21-27-8-36v-131zm-170 127q0 30 10.5 56t29 45 43 30 53.5 11h34q28 0 53-11t44-30 29.5-45 10.5-56v-33q0-42-15-70.5t-41-46.5-60.5-25.5-73.5-7.5q-16 0-32 1t-33 3v-60q7-40 37.5-63.5t69.5-23.5q4 0 25.5 4.5t45.5 9.5q28 6 62 14l12-53q-37-8-67-13-26-5-49.5-9t-28.5-4q-32 0-61 11.5t-51 32.5-34.5 49.5-12.5 62.5z"/><path transform="translate(29.554 13.314) scale(.014 -.014)" d="m70 700h52v-573q0-41 20.5-56.5t49.5-15.5h13v-54h-18q-25 0-46.5 7.5t-37 23-24.5 40.5-9 60z"/></svg>