<svg width="176" height="16" viewBox="0 0 176 16" xmlns="http://www.w3.org/2000/svg"><path transform="translate(0 16) scale(.03125 -.03125)" d="m0 0"/><path transform="translate(16 16) scale(.03125 -.03125)" d="m0 0"/><path transform="translate(32 16) scale(.03125 -.03125)" d="m0 0"/><path transform="translate(48 16) scale(.03125 -.03125)" d="m0 0"/><path transform="translate(64 16) scale(.03125 -.03125)" d="m0 0"/><path transform="translate(80 16) scale(.03125 -.03125)" d="m0 0"/><path transform="translate(96 16) scale(.03125 -.03125)" d="m0 0"/><path transform="translate(112 16) scale(.03125 -.03125)" d="m0 0"/><path transform="translate(128 16) scale(.03125 -.03125)" d="m0 0"/><path transform="translate(144 16) scale(.03125 -.03125)" d="m0 0"/><path transform="translate(160 16) scale(.03125 -.03125)" d="m0 0"/></svg>