<svg width="154" height="14" viewBox="0 0 154 14" xmlns="http://www.w3.org/2000/svg"><path transform="translate(0 14) scale(.027344 -.027344)" d="m0 0"/><path transform="translate(14 14) scale(.027344 -.027344)" d="m0 0"/><path transform="translate(28 14) scale(.027344 -.027344)" d="m0 0"/><path transform="translate(42 14) scale(.027344 -.027344)" d="m0 0"/><path transform="translate(56 14) scale(.027344 -.027344)" d="m0 0"/><path transform="translate(70 14) scale(.027344 -.027344)" d="m0 0"/><path transform="translate(84 14) scale(.027344 -.027344)" d="m0 0"/><path transform="translate(98 14) scale(.027344 -.027344)" d="m0 0"/><path transform="translate(112 14) scale(.027344 -.027344)" d="m0 0"/><path transform="translate(126 14) scale(.027344 -.027344)" d="m0 0"/><path transform="translate(140 14) scale(.027344 -.027344)" d="m0 0"/></svg>