<svg width="30.534" height="17.08" viewBox="0 0 30.534 17.08" xmlns="http://www.w3.org/2000/svg"><path transform="translate(0 13.412) scale(.014 -.014)" d="m40 0q-11 0-13 12.5t-2 17.5l85 22 31 595-82 22q0 5 2 18t13 13q0 0 34-0.5t126-3.5l211-512 231 512q92 3 125 3.5t33 0.5q11 0 13-13t2-18l-82-22 31-595 85-22q0-5-2-17.5t-13-12.5q0 0-26.5 0.5t-91.5 3.5l-113-4q-12 0-14 12t-2 18l95 22-21 549-253-551h-19l-231 544-23-542 95-22q0-6-2-18t-14-12l-110 4q-43-2-64-3t-27.5-1-6.5 0z"/><path transform="translate(12.712 13.412) scale(.014 -.014)" d="m157-12q-50 0-78.5 34t-28.5 80q0 37 25.5 70t84 56.5 158.5 30.5v60q0 50-30 80.5t-79 30.5q-34-38-62-60t-44-22q-11 0-24 19t-15 39q46 22 91 38.5t82 23.5q73 0 112.5-38t39.5-108v-255q0-36 43-36 12 0 30 3 9-9 9-25-37-21-71-21-33 0-54 16.5t-26 47.5q-58-30-101.5-47t-61.5-17zm21 53q31 0 69 14t71 36v135q-66-8-114-26t-73-40q-4-10-6.5-22.5t-2.5-23.5q0-29 13.5-51t42.5-22z"/><path transform="translate(19.656 13.412) scale(.014 -.014)" d="m167-12q-43 0-62 26t-19 101v293h-62q-7 0-10 8.5t-3.5 18-0.5 12.5l83 14 26 112 38 12v-129h118q0-3-0.5-15t-3.5-22.5-10-10.5h-104v-319q0-28 11.5-39.5t27.5-11.5q17 0 37.5 9t37.5 19q13-12 17-30-26-22-59-35t-62-13z"/><path transform="translate(23.968 13.412) scale(.014 -.014)" d="m256-12q-100 0-158 59t-58 162q0 80 29.5 138t83 89.5 126.5 31.5q72 0 113.5-59.5t41.5-163.5q-64-12-125-17.5t-125-5.5q-32 0-67 3 0-91 40-140t116-49q63 0 127 32 13-13 17-30-29-22-74-36t-87-14zm-136 274q116 2 230 21 3 18 3 34 0 50-26.5 76.5t-75.5 26.5q-13 0-25-1.5t-23-3.5q-69-46-83-153z"/></svg>