<svg width="63.697" height="20.084" viewBox="0 0 63.697 20.084" xmlns="http://www.w3.org/2000/svg"><path transform="translate(0 15.148) scale(.0068359 -.0068359)" d="m1815-43-207-41-201 1255-330-1087-248-29-374 1055-181-1147-211 29 277 1458h207l403-1153 359 1141 235 6z"/><path transform="translate(12.852 15.148) scale(.0068359 -.0068359)" d="m1184 750-166-101-2 6q-26 51-63 91.5t-83 69-98.5 43.5-109.5 15q-82 0-153.5-31t-125-85-84.5-126.5-31-154.5q0-81 31-153t84.5-126 125-85 153.5-31q53 0 103 14t94.5 39.5 81.5 62 63 81.5l4 6 174-99-2-6q-39-65-95-117t-123.5-89.5-144-57.5-155.5-20q-113 0-218.5 44t-188 122-132 184-49.5 231q0 75 20.5 147.5t58 137.5 91 120 118.5 94.5 141 62 159 22.5q87 0 165.5-21t145.5-60.5 120-96.5 89-129z"/><path transform="translate(21.335 15.148) scale(.0068359 -.0068359)" d="m1280-23-1090-75-6 1521 207 11-6-1313 885 69z"/><path transform="translate(30.379 15.148) scale(.0068359 -.0068359)" d="m924-63 14 141q-122-78-239.5-113t-219.5-35q-72 0-139.5 18.5t-119 57-83 98-31.5 140.5 24 145 66 113 99 84 122.5 57 137.5 32.5 143 10.5q66 0 123-5t101-13q-13 50-32 98.5t-48.5 87-72.5 62.5-103 24q-39 0-89-11.5t-110-41.5-131-82.5-152-134.5l-121 147q96 90 184 147t165.5 89.5 144 44.5 119.5 12q92 0 164-31.5t126.5-86 92-128 61.5-158 34.5-175.5 10.5-181q0-96-11-206t-34-240zm28 364q2 50 3 99t-5 102q-49 15-103 24t-108 9q-90 0-174.5-21t-145.5-61-91.5-98-12.5-132q14-60 54.5-84t97.5-24q58 0 125.5 19.5t134 48 125.5 60.5 100 58z"/><path transform="translate(39.115 15.148) scale(.0068359 -.0068359)" d="m899 563q-1 49-8.5 85t-19 62-26 43-29.5 28q-35 25-79 24-28-4-59.5-23.5t-64.5-50-66.5-69-64.5-79-59-80.5-50-73q1-75 3-147.5t3.5-135 4-113 5.5-81.5l-215-27q-6 172-11 311.5t-9 249.5-6.5 194-4.5 145q-4 143-6 212l228 4q1-61 1.5-124.5t1.5-116.5q1-62 1-121 29 46 70.5 101t94 104 115 85.5 133.5 45.5q80 4 146-34 28-16 55.5-42.5t51-68 39.5-99 22-135.5z"/><path transform="translate(46.744 15.148) scale(.0068359 -.0068359)" d="m625 92q53 0 105 16.5t96 48 76.5 78.5 47.5 109l193-39q-28-91-79-165t-119-127-149.5-82-170.5-29q-132 0-234 40t-172 113-106.5 176-36.5 230q0 125 42.5 233.5t116.5 188.5 174 126 216 46q104 0 196-40.5t163-112 117-168.5 58-210l-866-129q7-71 35-127.5t71.5-95.5 101-59.5 124.5-20.5zm276 561-6 19q-38 99-104.5 155t-165.5 56q-42 0-92-14.5t-97-49.5-84.5-93.5-52.5-145.5z"/><path transform="translate(55.043 15.148) scale(.0068359 -.0068359)" d="m174-74q-6 172-11 311.5t-9 249.5-6.5 194-4.5 145q-4 143-6 212l228 4 4-288q33 57 75 107.5t91 89.5 104.5 63 116.5 28q76 5 132.5-13t96.5-50 66-75.5 41-90 21.5-92.5 8.5-84q6-172 3-346t-7-361l-205 7q8 161 14.5 322t-1.5 325q0 18-2.5 46.5t-11 60.5-23.5 63.5-39 55-58.5 35.5-80.5 5q-79-12-160.5-115.5t-175.5-302.5q4-161 6.5-256.5t4.5-144.5q2-58 3-78z"/></svg>