<svg width="80.492" height="33.727" viewBox="0 0 80.492 33.727" xmlns="http://www.w3.org/2000/svg"><path transform="translate(0 22.344) scale(.0078125 -.0078125)" d="m3253 411q12 6 22 6 11 0 17-7.5t6-18.5q0-14-11-31.5t-34-31.5l-149-87q-72-42-167-98.5t-210-125.5q-106-63-177.5-88.5t-119.5-25.5q-32 0-53 9.5t-34.5 25-19 35.5-5.5 41q0 56 11.5 142t31 190.5 45 220.5 53.5 232.5 56 227.5 52.5 205 44 164.5 29.5 105.5l-953-1456q0-1-10-16t-27-33-40.5-32.5-51.5-14.5q-26 0-33.5 15t-7.5 30q0 6 0.5 12.5t2.5 8.5l102 1071q-41-71-101.5-170.5t-136-214-164-239-185.5-245.5q27-62 27-133 0-55-15.5-111t-45-108-72-97.5-96-79-117.5-52.5-137-19q-3 0-7.5 4t-8 10-6.5 13-3 12q0 2 2.5 5t6.5 3q84 0 158.5 37.5t130 96 88 130 32.5 140.5q0 36-9 69-89-95-183-179t-189.5-146.5-191.5-99-189-36.5q-73 0-132 13.5t-101 42-65 73.5-23 107q0 82 35.5 151t94 125 135.5 99 160.5 71.5 167 43 156.5 14.5q106 0 182.5-23.5t128.5-65.5q123 151 237.5 318t208.5 336 161 332.5 95 307.5q0 2 7 30.5t21 70 33.5 89.5 44 88.5 54 67.5 63.5 27q28 0 45-12.5t26.5-31 13-41.5 3.5-44q0-12-0.5-23t-1.5-19l-189-1479 935 1406q3 25 10.5 53.5t22 53 37 40.5 55.5 16q34 0 53.5-5.5t29.5-13.5 12.5-18.5 2.5-20.5q0-61-17.5-160t-46.5-221.5-66-260.5-75-276.5-75-270-66-240.5-46.5-188-17.5-113q0-12 1.5-27t7.5-27.5 18-21.5 33-9q20 0 50.5 10.5t76.5 36.5q155 88 292 169.5t254 153.5zm-3027-668q53 0 126.5 38t159.5 105.5 181 161 191 203.5q-39 29-98.5 46t-140.5 17q-70 0-145-12t-147.5-35-137.5-56.5-113.5-78-77.5-99-29-118.5q0-90 62-131t169-41z"/><path transform="translate(25.414 22.344) scale(.0078125 -.0078125)" d="m0 328q-10-7-23-7t-21 7.5-8 19.5q0 13 11.5 29.5t40.5 33.5l253 149q28 79 72.5 136.5t98 95 112 56 113.5 18.5q56 0 92.5-29.5t36.5-91.5q0-38-27.5-79.5t-75-82-111.5-75.5-136-59q0-48-1.5-91t-1.5-81q0-32 2-58.5t8.5-45 18-29 29.5-10.5q28 0 67.5 22.5t99.5 57.5q54 32 138 80t205 117q4 3 11 3 11 0 19.5-9.5t8.5-23.5q0-12-8.5-26t-30.5-27q-99-59-192-119.5t-175.5-110-152.5-81-122-31.5q-35 0-61.5 15t-45 48-28 86.5-9.5 130.5q0 12 1.5 38.5t5 57 8.5 59.5 12 45q-7-4-20.5-12t-31.5-18.5-38-22.5-40-24zm670 409q2 6 2 13 0 25-8.5 37t-28.5 12q-23 0-53-17.5t-58.5-51.5-51-85-30.5-117q41 21 80 48.5t70.5 56 52 56 25.5 48.5z"/><path transform="translate(33.172 22.344) scale(.0078125 -.0078125)" d="m242 244q0 37 22.5 89t59 106 82.5 103.5 92 80.5l-498-295q-4-2-7.5-2.5t-6.5-0.5q-11 0-17 8t-6 20q0 14 9 30.5t28 27.5l275 167q56 34 127 72.5t147.5 70.5 154.5 53.5 148 21.5q65 0 115-20l261 527q10 21 21.5 45.5t30 45.5 47 35.5 73.5 14.5q14 0 17.5-9.5t3.5-24.5q-2-14-7-31.5t-10.5-34.5-10.5-31-8-21l-298-648q-22-65-54.5-134.5t-63-135-52-122.5-21.5-97q0-14 3.5-27t13.5-13q13 0 39.5 10t60.5 28 73.5 42.5 78.5 52.5l260 163q8 4 12 4 8 0 12.5-8t4.5-19q0-17-7.5-33.5t-21.5-26.5q-57-38-117.5-78.5t-121.5-80-119.5-75.5-112.5-66q-77-43-138-43-40 0-54 22t-14 57q0 21 3.5 43.5t10.5 48.5q-27-39-62-70t-74.5-53-82-33.5-82.5-11.5q-44 0-84 14.5t-70 46-47.5 79.5-17.5 116zm652 348q4 11 10.5 27t13 31 11 27.5 4.5 17.5q0 6-23 9t-61 3q-50 0-101.5-26.5t-100-69.5-91-98.5-74-114-50-115.5-18.5-103q0-62 21-88.5t55-26.5q46 0 99.5 39t107.5 108.5 105 166.5 92 213z"/><path transform="translate(44.305 22.344) scale(.0078125 -.0078125)" d="m242 244q0 37 22.5 89t59 106 82.5 103.5 92 80.5l-498-295q-4-2-7.5-2.5t-6.5-0.5q-11 0-17 8t-6 20q0 14 9 30.5t28 27.5l275 167q56 34 127 72.5t147.5 70.5 154.5 53.5 148 21.5q65 0 115-20l261 527q10 21 21.5 45.5t30 45.5 47 35.5 73.5 14.5q14 0 17.5-9.5t3.5-24.5q-2-14-7-31.5t-10.5-34.5-10.5-31-8-21l-298-648q-22-65-54.5-134.5t-63-135-52-122.5-21.5-97q0-14 3.5-27t13.5-13q13 0 39.5 10t60.5 28 73.5 42.5 78.5 52.5l260 163q8 4 12 4 8 0 12.5-8t4.5-19q0-17-7.5-33.5t-21.5-26.5q-57-38-117.5-78.5t-121.5-80-119.5-75.5-112.5-66q-77-43-138-43-40 0-54 22t-14 57q0 21 3.5 43.5t10.5 48.5q-27-39-62-70t-74.5-53-82-33.5-82.5-11.5q-44 0-84 14.5t-70 46-47.5 79.5-17.5 116zm652 348q4 11 10.5 27t13 31 11 27.5 4.5 17.5q0 6-23 9t-61 3q-50 0-101.5-26.5t-100-69.5-91-98.5-74-114-50-115.5-18.5-103q0-62 21-88.5t55-26.5q46 0 99.5 39t107.5 108.5 105 166.5 92 213z"/><path transform="translate(55.438 22.344) scale(.0078125 -.0078125)" d="m939 813q57 0 101.5-23t75-62.5 46.5-92.5 16-113q0-35-8-77t-23-86.5-36.5-88.5-47.5-81q19 10 46 25t57.5 32.5 64 36.5 65.5 37l155 91q7 4 19 4 23 0 23-24 0-33-42-63-36-24-94-60t-125.5-70.5-137-61-129.5-30.5q-78-58-183-93.5t-245-35.5q-69 0-116.5 12t-76.5 35-42 56.5-13 77.5q0 64 26 137t64.5 142.5 82.5 129.5 80 99q-32-28-90.5-67t-132-83.5-156-92.5-163.5-95q-12-5-22-5-13 0-20 7.5t-7 19.5q0 14 11.5 29.5t37.5 31.5q152 89 259 153.5t185 109.5 136 72 111.5 42 111.5 20 136 5zm-400-750q63 0 123 26t117 71q-13 15-18 34t-5 39q0 35 23 52.5t55 17.5q34 0 66-20 32 23 61 55t50.5 68 34 74 12.5 74q0 31-11.5 59.5t-37 49.5-67 33.5-100.5 12.5q-49 0-97.5-26t-93-69.5-83-99-66.5-114.5-44-116-16-104q0-52 23-84.5t74-32.5z"/><path transform="translate(66.773 22.344) scale(.0078125 -.0078125)" d="m1209 648q-38 0-95-21.5t-125-59-141.5-88.5-144-111-134-126.5-110.5-133.5q-5-5-5-22.5t-5.5-36.5-21.5-34-53-15q-26 0-40.5 6t-22 16.5-9.5 25-2 32.5 10 53 26 81 36 99 40.5 106 39 103 31.5 90l-483-284q-5-1-8.5-1.5t-5.5-0.5q-14 0-20.5 7.5t-6.5 18.5q0 14 10.5 30.5t30.5 28.5q150 89 247.5 146.5t156.5 92.5 88.5 52 44.5 25q14 8 25.5 11t25.5 3q29 0 47.5-17t18.5-38-13-57.5-32-79.5-39-87.5-34-82.5q-6-15-9.5-24.5t-8-21.5-12.5-30.5-23-51.5q42 54 98.5 113t123 115.5 142 107.5 156 89.5 164.5 61 167 22.5q51 0 70.5-21.5t19.5-58.5q0-30-11-73t-30-93.5-43-108-50.5-116-53-117.5-49.5-113q57 23 119 60t132.5 83 149 99.5 168.5 109.5q7 4 19 4 24 0 24-27 0-14-11-30.5t-32-29.5q-119-74-215-141t-175.5-119-145-82.5-121.5-30.5q-34 0-58 8.5t-39.5 22.5-23 33.5-7.5 40.5q0 23 9.5 45.5t26.5 48.5q31 68 69 142.5t70 141.5 54 119 22 75q0 16-13 16z"/></svg>