<svg width="107.88" height="18.078" viewBox="0 0 107.88 18.078" xmlns="http://www.w3.org/2000/svg"><path transform="translate(0 13.836) scale(.0078125 -.0078125)" d="m50 0q50 167 135 740 42 283 68 528-51 96-95 153 60 7 122 28 91 31 130 62v-2l2 2-1-2q30-122 218-719 136-430 189-493 55 79 214 510 150 407 186 545-5 14-19 40l-17 32q121 14 245 85l7 4v-2q0-321 57-711 69-470 146-672 13-34 18-36-68-8-122-28-87-32-130-64 2 19 2 47-2 189-70 737-28 227-62 381l-149-364q-157-398-195-672-4-29-5-30l1-10q-121-14-245-85l-7-4q-32 302-203 760-81 217-150 369-28-167-59-393-48-344-60-624l-1-23q-76-15-146-85z"/><path transform="translate(13.32 13.836) scale(.0078125 -.0078125)" d="m558-4q-59 14-142 58.5t-150 108.5q-88 85-123 185-34 83-43 210v4q0 107 49 221 37 87 99 155 26 28 60 54l210 138q53-18 181-84 93-48 180-144 64-100 64-185 0-2 0-5-15-122-112-196-165-126-411-128 310 106 367 245 12 29 12 57 0 1 0 2t0 2q0 42-35 82-55 65-158 116-176 87-286 98-38-62-69-188-24-98-24-170 0-34 5-65 14-89 74-179 62-92 173-145 96-46 295-91l1 1q16 25 16 87 0 39-13 102l142-56q-27-61-88-110-46-37-46-38z"/><path transform="translate(21.469 13.836) scale(.0078125 -.0078125)" d="m782 683q-50 135-178 217-81 52-290 88l-1-1q-28-53-62-181-24-90-24-170 0-32 5-65 13-85 74-179 60-93 173-145 99-46 282-88 22 206 24 463-1 31-3 61zm211 828q-43-300-43-672 0-37 1-108 6-425 36-608l6-34q-121-14-245-85l-7-4q9 60 17 125l-200-125q-59 15-142 58-94 49-150 109-80 86-123 185-43 90-43 210 0 4 0 4 5 116 49 221 31 74 99 155 21 25 60 54l212 134q58-11 143-56 55-29 115-78-8 190-31 392l-4 19-2 12v3q120 14 245 85z"/><path transform="translate(30.391 13.836) scale(.0078125 -.0078125)" d="m150 1184q19 82 19 172 0 27-1.5 54t-5.5 54l-6 21q129 13 261 89l7 4q-16-57-16-163 0-28 2.5-61.5t7.5-73.5q-41-5-81.5-15.5t-76-24-64-28.5-46.5-28zm17-1184q19 151 28.5 274.5t9.5 223.5q0 81-1.5 151.5t-5.5 134-10.5 122.5-15.5 119l-5 16q61 7 121.5 28.5t123.5 56.5l7 4q-50-173-50-481v-35q0-281 42-486l8-36q-43-5-81.5-15.5t-71-23.5-58-27-41.5-26z"/><path transform="translate(34.875 13.836) scale(.0078125 -.0078125)" d="m558-4q-59 14-142 58.5t-150 108.5q-88 85-123 185-34 83-43 210v4q0 107 49 221 37 87 99 155 26 28 60 54l210 138q53-18 181-84 93-48 180-144 64-100 64-185 0-2 0-5-15-122-112-196-165-126-411-128 310 106 367 245 12 29 12 57 0 1 0 2t0 2q0 42-35 82-55 65-158 116-176 87-286 98-38-62-69-188-24-98-24-170 0-34 5-65 14-89 74-179 62-92 173-145 96-46 295-91l1 1q16 25 16 87 0 39-13 102l142-56q-27-61-88-110-46-37-46-38z"/><path transform="translate(43.023 13.836) scale(.0078125 -.0078125)" d="m396 0q-46 317-170 596-61 139-117.5 249t-108.5 195q30 4 61 14t58.5 23 49.5 27 35 26q21-145 170-490 150-346 184-358 69 67 166 302 124 299 124 446v13q120 30 166 86-59-149-104-261.5t-79-197-59-146-44-107-33-80.5-26-67-24-65-27-76q-4-11-4-37-116-20-212-88z"/><path transform="translate(50.938 13.836) scale(.0078125 -.0078125)" d="m123 840q26 60 88 110l47 38 228 142q57-15 141-58 80-41 150-109 88-86 124-185 39-96 42-210 7-284 37-440l8-36q-68-8-122-28-87-32-130-64 38 270 38 537 0 13 0 27 0 114-36 174-63 93-174 145-100 47-296 90-16-25-16-87 0-39 13-102zm402-840q-57 20-181 84-93 48-180 144-64 100-64 185 0 2 0 5 15 121 112 196 164 126 411 128-305-112-353-250-10-29-10-56 0-46 32-82 86-87 145-116 181-89 298-100z"/><path transform="translate(59.438 13.836) scale(.0078125 -.0078125)" d="m150 0q43 300 43 672 0 55-1 108-8 438-36 608l-6 34q122 14 245 85l7 4q-45-284-45-688 0-17 0-35 0-480 37-660l8-36q-68-8-122-28-87-32-130-64z"/><path transform="translate(63.75 13.836) scale(.0078125 -.0078125)" d="m634 1515q25-7 65.5-24t90-43 104.5-65.5 111-93.5q16-16 30.5-32.5t27.5-33.5l-199-98q-46 58-93 98.5t-101 67.5-114 46.5-132 32.5q-108-76-108-233 0-109 118-151 568-203 667-301 35-35 55-90t20-127q0-54-22.5-104t-73.5-104q-92-95-131-114l-267-146q-104 12-308 122-35 19-84 57t-112 98q-17 15-31 32t-27 34l199 98q33-54 215-159 156-89 403-134 109 77 109 234 0 132-179 209-223 94-340 144t-131 55q-204 79-204 266 0 107 90 202 92 95 130 114z"/><path transform="translate(73.867 13.836) scale(.0078125 -.0078125)" d="m150 0q22 151 32.5 318t10.5 354q-1 264-10.5 443t-26.5 273l-6 34q60 7 121 28.5t124 56.5l7 4q-17-112-28-240t-15-277l219 136q28-7 64.5-22t76.5-37.5 81.5-52.5 78-66.5 66.5-80 48-93.5q39-96 42-210 5-146 14-255.5t23-184.5l8-36q-42-5-80.5-15.5t-71-23.5-58.5-27-42-26q39 262 39 507-2 43-3.5 77t-5 61.5-10 50-18.5 42.5q-29 43-66.5 77t-92.5 61.5-130.5 51-180.5 45.5h-1q-1-37-1.5-74.5t-0.5-75.5v-35q1-241 9-405t28-255l8-36q-43-5-81.5-15.5t-71-23.5-58-27-41.5-26z"/><path transform="translate(83.086 13.836) scale(.0078125 -.0078125)" d="m123 840q26 60 88 110l47 38 228 142q57-15 141-58 80-41 150-109 88-86 124-185 39-96 42-210 7-284 37-440l8-36q-68-8-122-28-87-32-130-64 38 270 38 537 0 13 0 27 0 114-36 174-63 93-174 145-100 47-296 90-16-25-16-87 0-39 13-102zm402-840q-57 20-181 84-93 48-180 144-64 100-64 185 0 2 0 5 15 121 112 196 164 126 411 128-305-112-353-250-10-29-10-56 0-46 32-82 86-87 145-116 181-89 298-100z"/><path transform="translate(91.586 13.836) scale(.0078125 -.0078125)" d="m150 0q19 151 28.5 274.5t9.5 223.5q0 81-1.5 151.5t-5.5 134-10.5 122.5-15.5 119l-5 16q61 7 121.5 28.5t123.5 56.5l7 4q-10-29-21-63.5t-22-72.5l219 136q40-11 99.5-38.5t120.5-72 114.5-105 80.5-136.5l-181-74q-41 75-94 126.5t-109 84-110 47-97 14.5q-21 0-42-3h-1q-4-37-5.5-117.5t-1.5-206.5v-35q0-281 42-486l8-36q-39-5-77-15t-71.5-23.5-60.5-27.5-43-26z"/><path transform="translate(98.953 13.836) scale(.0078125 -.0078125)" d="m361 447q50-136 178-217 83-54 290-88l1 1q10 19 25 59t28.5 89.5 23 103 9.5 99.5q0 51-15 106.5t-45.5 108-78 98-113.5 76.5q-49 23-119.5 45t-163.5 43q-21-205-24-463zm-211-828q22 151 32.5 318t10.5 354q-1 264-10.5 443t-26.5 273l-6 34q60 7 121 28.5t131 60.5q-5-30-9-61t-8-63l200 124q30-8 69.5-24.5t80-39 78-49 63.5-54.5q39-42 70-86.5t53-93.5 33-103 11-116q-7-66-15.5-113.5t-24-88.5-41-81.5-67.5-92.5q-10-12-25-25t-35-29l-212-134q-47 8-115.5 40.5t-142.5 93.5q4-96 12-193t19-199l6-31v-3q-61-7-121.5-28.5t-130.5-60.5z"/></svg>