<svg width="52.192" height="17.28" viewBox="0 0 52.192 17.28" xmlns="http://www.w3.org/2000/svg"><path transform="translate(0 14.08) scale(.016 -.016)" d="M185 30H579V629L354 147L129 630V0L99 1V701H129L354 218L579 700L609 701V0L185 1Z"/><path transform="translate(11.328 14.08) scale(.016 -.016)" d="m483 59q-55-69-180-69t-179 71-54 229 54 229 179 71q145 0 197-95l-245-205h-47l253 211q-44 59-158 59-50 0-84-10.5t-62.5-39-42.5-83-14-137.5 14-137.5 42.5-83 62.5-39 84-10.5q114 0 158 59z"/><path transform="translate(20.096 14.08) scale(.016 -.016)" d="m328 390 133 111q-44 59-158 59-50 0-84-10.5t-62.5-39-42.5-83-14-137.5 14-137.5 42.5-83 62.5-39 84-10.5q113 0 157 58v177h30v-264q0-191-175-191h-117v30h117q75 0 110 39.5t35 150.5v15q-54-45-157-45-125 0-179 71t-54 229 54 229 179 71q145 0 197-95l-125-105z"/><path transform="translate(29.216 14.08) scale(.016 -.016)" d="m339 291 136-291h-33l-140 300q2 1 17.5 8.5t21.5 11 20 12.5 21 17.5 15.5 20 12.5 26 4 31.5q0 63-60 93t-149 30h-80v-550h-30v580h110q118 0 178.5-41t60.5-112q0-46-31-81.5t-74-54.5z"/><path transform="translate(37.472 14.08) scale(.016 -.016)" d="M95 580H125V0H95Z"/><path transform="translate(40.992 14.08) scale(.016 -.016)" d="M189 30H575V538L350 313L125 538V0L95 1V580H125L350 355L575 580H605V0L189 1Z"/></svg>