<svg width="83.297" height="20.266" viewBox="0 0 83.297 20.266" xmlns="http://www.w3.org/2000/svg"><path transform="translate(0 14.172) scale(.0078125 -.0078125)" d="m342 302q14 0 28-3.5t24.5-12 17-23.5 6.5-37q0-32-15.5-52t-33.5-34-33.5-25.5-15.5-26.5q0-11 9-18.5t22-12 28-6 27-1.5q48 0 88.5 5.5t79 16.5 78 27.5 86.5 38.5q29 13 68 37.5t83 55.5 90.5 66 89 70 79.5 67.5 62 57.5l420 412q207 204 433.5 356t472.5 252q5 2 15 4t21 2q9 0 15.5-2.5t6.5-11.5q0-16-5.5-27t-13.5-18.5-16.5-12.5-14.5-8q-39-19-90-59t-109-94.5-120.5-120-123.5-133.5-118-136-105-127q-43-53-92-108t-99-110-98.5-108-90.5-102q-17-21-29-36t-23-27.5-23.5-24.5-30.5-28q44 30 90.5 65.5t90 71 80.5 68.5 63 59l420 412q207 204 433.5 356t472.5 252q5 2 15 4t21 2q9 0 15.5-2.5t6.5-11.5q0-16-5.5-27t-13.5-18.5-16.5-12.5-14.5-8q-39-18-90-58.5t-109-95-120.5-120-123.5-133.5-118-136-105-127q-50-61-107.5-125t-115.5-127.5-112-123-95.5-111.5-66.5-94-25-69q0-41 14-53.5t52-12.5q42 0 96 13.5t110.5 33.5 111 44 98.5 45l10-24q-152-74-275-117t-209-43q-24 0-50 4t-48 17-36 37-14 64q0 37 38 97t102.5 139.5 149.5 175 180 202.5q51 58 93.5 106t80.5 90 75 82.5 78 83.5 89.5 92.5 109.5 111.5q-61-35-135-86.5t-149-110.5-144.5-120-121.5-113q-69-71-141-145.5t-147-149.5-154-147.5-162-137.5l-10-8q-51-39-108-78-41-29-86.5-57.5t-93.5-52.5q-59-30-100-48t-69.5-28-47-13-31.5-3q-5 0-12.5 1t-14.5 4-12 8-5 13q0 18 32.5 38t85.5 46q60 29 111.5 74.5t108.5 119.5q33 43 74.5 92t89.5 103.5 101 114 109 122.5q51 58 93.5 106t80.5 90 75 82.5 78 83.5 89.5 92.5 109.5 111.5q-61-35-135-86.5t-149-110.5-144.5-120-121.5-113q-98-101-202.5-209t-216.5-211-233-195-252-159q-56-28-104-46.5t-91.5-30-84-16.5-80.5-5q-51 0-86.5 14.5t-57.5 37-32 49.5-10 53q0 31 11 57.5t29 46 41.5 30 48.5 10.5z"/><path transform="translate(17.906 14.172) scale(.0078125 -.0078125)" d="m716 160q-128-59-214-92t-146.5-49.5-104.5-20.5-89-4q-35 0-66.5 9t-55.5 28-38 49-14 72q0 48 20.5 99.5t56.5 101 84.5 93.5 105.5 77.5 119.5 53 125.5 19.5q22 0 52-4t57-15.5 46-31.5 19-51q0-28-26-58t-69.5-60.5-100.5-60.5-117.5-57.5-121.5-51.5-113-42q-2-8-2-16t0-16q0-38 25-63t69-25q39 0 77 3t91 16.5 129 42 191 78.5zm-230 374q-26 0-58-14.5t-67-39-69.5-57.5-65-70.5-54.5-77-36-77.5q44 16 91.5 35t93 40 86.5 44.5 72 49.5 49 53.5 18 57.5q0 24-12.5 40t-47.5 16z"/><path transform="translate(23.219 14.172) scale(.0078125 -.0078125)" d="m752 856q0-17-9-32t-23.5-26-33.5-17.5-38-6.5q-14 0-27.5 3t-25 11-18.5 21.5-7 34.5q0 18 10 31t25 21 34 12 37 4q30 0 50.5-13.5t25.5-42.5zm-592-696q-15-18-23.5-36.5t-8.5-29.5q0-26 16.5-33t45.5-7q27 0 66.5 4.5t92 18.5 119 39.5 148.5 67.5l10-24q-77-46-152.5-77t-145-50-130.5-27-108-8q-54 0-79 26.5t-25 71.5q0 24 16 54.5t52 77.5q38 48 80 94t84 96q28 33 58 65.5t57 58.5 49 42 34 16q8 0 22-3t27.5-8.5 23-14 9.5-18.5q0-11-14.5-28t-35.5-40l-166-188q-7-7-20.5-21.5t-30-34-35.5-41.5-36-43z"/><path transform="translate(27.484 14.172) scale(.0078125 -.0078125)" d="m716 160q-128-59-214-92t-146.5-49.5-104.5-20.5-89-4q-35 0-66.5 9t-55.5 28-38 49-14 72q0 48 20.5 99.5t56.5 101 84.5 93.5 105.5 77.5 119.5 53 125.5 19.5q22 0 52-4t57-15.5 46-31.5 19-51q0-28-26-58t-69.5-60.5-100.5-60.5-117.5-57.5-121.5-51.5-113-42q-2-8-2-16t0-16q0-38 25-63t69-25q39 0 77 3t91 16.5 129 42 191 78.5zm-230 374q-26 0-58-14.5t-67-39-69.5-57.5-65-70.5-54.5-77-36-77.5q44 16 91.5 35t93 40 86.5 44.5 72 49.5 49 53.5 18 57.5q0 24-12.5 40t-47.5 16z"/><path transform="translate(37.594 14.172) scale(.0078125 -.0078125)" d="m1752 816q61 67 106.5 116t77.5 84.5 52.5 58.5 33.5 37q88 97 172 170t165.5 122.5 162.5 74.5 164 25q20 0 42.5-2t41.5-10 31.5-24 12.5-44q0-75-42.5-148t-111.5-139-157-124.5-177.5-103.5-173.5-76-146-43q-53-12-118-18-47-53-97-110.5t-101-114.5-100.5-111-93.5-100q-70-73-143-134t-152-105.5-164-69.5-179-25q-109 0-168.5 42t-59.5 110q0 25 8 51.5t24.5 48 41 35 56.5 13.5q36 0 56-19t20-55q0-33-15.5-53.5t-33.5-34.5-33.5-25.5-15.5-26.5q0-21 24-31.5t66-10.5q80 0 149 24t132 67 123.5 103 123.5 132q78 89 168.5 189t185.5 207q-48 4-107.5 15t-111.5 32-87.5 52.5-35.5 78.5q0 38 20.5 67.5t53.5 51.5 75 37.5 85 25.5 83.5 15.5 70.5 8.5l6-12q-32-2-78-17t-89.5-40.5-74-60-30.5-74.5q0-38 26-62.5t65-39.5 85-21.5 86-8.5zm550 416q-97-97-186.5-198.5t-181.5-207.5q26 3 52.5 8.5t53.5 13.5q36 9 85 28.5t104.5 46.5 114 60.5 114 71.5 105 79 87 83.5 59 85 21.5 83.5q0 13-7 21t-18 12.5-24 5.5-25 1q-45 0-90.5-15.5t-90.5-42.5-88.5-62-84.5-74z"/><path transform="translate(54.031 14.172) scale(.0078125 -.0078125)" d="m102 156q0-28 11-47.5t31-31.5 48-17.5 62-5.5q85 0 187.5 33.5t240.5 102.5l10-24q-50-32-115-62.5t-135.5-54-142.5-37.5-135-14q-46 0-85 8.5t-67.5 27.5-45 49-16.5 73q0 46 22 97.5t59.5 101.5 87 95.5 104.5 80 111 55 108 20.5q33 0 62-6t50-18.5 33.5-33 12.5-48.5q0-23-10.5-45t-28.5-39-41-27.5-48-10.5q-32 0-46 15t-14 29q0 25 15.5 39t34.5 23.5 34.5 17 15.5 18.5q0 12-8 17t-20 5q-43 0-88-20.5t-87.5-54-80-75-65.5-84.5-44.5-83-16.5-69z"/><path transform="translate(59.156 14.172) scale(.0078125 -.0078125)" d="m324 734q21 0 40.5-9t31.5-27q15-18 19.5-46.5t4.5-61.5l-2-50q14-5 35.5-8.5t44.5-3.5q44 0 103 15t139 59q2-2 4-6t5-9 7-11q-18-9-30-18t-24-20q-13-11-33.5-32.5t-42.5-45.5-42.5-48.5-33.5-41.5q-32-41-61.5-83t-52-79-35.5-66.5-13-45.5q0-26 16.5-33t45.5-7q27 0 66.5 4.5t92 18.5 119 39.5 148.5 67.5l10-24q-77-46-152.5-77t-145-50-130.5-27-108-8q-54 0-79 26.5t-25 71.5q0 18 10 41t31 54.5 54.5 72.5 80.5 96q3 3 13 14.5t23.5 26 29 31 28.5 30.5 22.5 24 11.5 12q-14-3-31-5.5t-35-2.5q-17 0-37 0.5t-37 3.5q-6-30-16.5-58t-28.5-55-45.5-53-67.5-52l-26 16q41 23 67 51t41 56.5 20.5 57 7.5 53.5q-26 8-49.5 21t-41 30-27.5 39-10 48q0 36 25.5 60t64.5 24z"/><path transform="translate(65.766 14.172) scale(.0078125 -.0078125)" d="m752 856q0-17-9-32t-23.5-26-33.5-17.5-38-6.5q-14 0-27.5 3t-25 11-18.5 21.5-7 34.5q0 18 10 31t25 21 34 12 37 4q30 0 50.5-13.5t25.5-42.5zm-592-696q-15-18-23.5-36.5t-8.5-29.5q0-26 16.5-33t45.5-7q27 0 66.5 4.5t92 18.5 119 39.5 148.5 67.5l10-24q-77-46-152.5-77t-145-50-130.5-27-108-8q-54 0-79 26.5t-25 71.5q0 24 16 54.5t52 77.5q38 48 80 94t84 96q28 33 58 65.5t57 58.5 49 42 34 16q8 0 22-3t27.5-8.5 23-14 9.5-18.5q0-11-14.5-28t-35.5-40l-166-188q-7-7-20.5-21.5t-30-34-35.5-41.5-36-43z"/><path transform="translate(70.031 14.172) scale(.0078125 -.0078125)" d="m520 440q-80-57-151.5-121t-140.5-133q-9-10-45-50.5t-89.5-100.5-119-134-134-150-134-149.5-118.5-132-88.5-96.5-43.5-45q-12-12-22-19t-24-7q-5 0-10.5 0.5t-13.5 3.5q-18 6-31 16.5t-13 25.5q0 11 5.5 20t20.5 26l994 1128q8 8 15 16.5t15 17.5q28 33 58 65.5t57 58.5 49 42 34 16q8 0 22-3t27.5-8.5 23-14 9.5-18.5q0-11-14.5-28t-35.5-40l-110-124q65 47 140 71.5t152 24.5q64 0 87-18.5t23-51.5q0-38-22-78.5t-54.5-80.5-70-78.5-70-73.5-54-65.5-21.5-53.5q0-14 5-22.5t12.5-13 17-5.5 19.5-1q57 0 113 11t110.5 29 107.5 41.5 103 48.5l10-24q-33-22-91-50t-130-53-153.5-42-161.5-17q-47 0-75.5 23t-28.5 73q0 24 16 56t41.5 66.5 57 70.5 62 69 57.5 61.5 44 48.5q6 9 17 23.5t11 26.5q0 8-6.5 13t-21.5 5q-31 0-59.5-6.5t-57-18.5-58.5-30-63-41z"/><path transform="translate(78.453 14.172) scale(.0078125 -.0078125)" d="m626 864q29 35 58.5 70t59.5 70q19 22 44 52t53.5 62.5 58 63.5 56 56 47.5 40.5 33 15.5q8 0 22-3t27.5-8.5 23-14 9.5-18.5q0-11-14.5-28t-35.5-40l-166-188q-7-7-20-21.5t-29.5-34-35.5-41-37-41.5l234-14-44-66h-260q-52-59-104.5-119.5t-101.5-117.5-93-108-78.5-92-59-69.5-33.5-39.5q-36-42-59-78.5t-23-57.5q0-26 16.5-33t45.5-7q27 0 66.5 4.5t92 18.5 119 39.5 148.5 67.5l10-24q-77-46-152.5-77t-145-50-130.5-27-108-8q-54 0-79 26.5t-25 71.5q0 29 23.5 69t76.5 105q6 7 26.5 31.5t52.5 61.5 73 85 87.5 101.5 96.5 111 100 115.5h-192l74 100z"/></svg>