<svg width="74.752" height="23.104" viewBox="0 0 74.752 23.104" xmlns="http://www.w3.org/2000/svg"><path transform="translate(0 17.632) scale(.016 -.016)" d="m417 174q-16 0-28 5.5t-14 11.5q-30 78-64 165.5t-70 170.5-73.5 149-76.5 101q8 8 18.5 14t21.5 9 19 3q28 0 49.5-9.5t42.5-39 47.5-88.5 64.5-157 94-245q27 40 61.5 90t70.5 106.5 68.5 115 56.5 116.5 33 110q19-23 27-44.5t7-43.5-9.5-47.5-23.5-56.5q-34-72-78.5-142.5t-91.5-139.5-91-140q-13-7-31.5-10.5t-29.5-3.5zm-238-179q-29 0-49 5t-32 14-17.5 20-5.5 24 5.5 52 14.5 96.5 18.5 123.5 18.5 133.5 14.5 128 5.5 103.5q0 38-3.5 62t-10.5 39q39-13 58-33.5t25.5-47 6.5-58.5q0-81-13-172t-26.5-192.5-13.5-214.5q0-21 1.5-42t2.5-41zm611-26q-45 15-70.5 36.5t-36 52-10.5 71.5q0 28 4.5 70t12 95 16 114.5 16 127 12 133 4.5 133.5q29-3 49-12t32-24 17.5-35.5 5.5-46.5q0-32-6.5-88t-16.5-125-20-141-16.5-137.5-6.5-114.5q0-76 14-109z"/><path transform="translate(14.832 17.632) scale(.016 -.016)" d="m248-15q-53 0-94.5 31t-65 86.5-23.5 126.5q0 74 21.5 137.5t60.5 110.5 91.5 73.5 113.5 26.5q74 0 112-37t38-108q0-53-29-95.5t-79.5-66.5-115.5-24q-32 0-60 3.5t-54 9.5l3 35h37q58 0 101 19.5t67 55.5 24 83q0 35-16.5 54t-46.5 19q-38 0-68-28.5t-51-74-32-97.5-11-99q0-88 26.5-132.5t78.5-44.5q98 0 161 98 37-6 37-27-43-70-97.5-102.5t-128.5-32.5z"/><path transform="translate(23.504 17.632) scale(.016 -.016)" d="m221 370q26 77 55.5 122.5t59.5 65.5 54 20q29 0 47.5-16t28-41.5 9.5-54.5q0-32-10.5-61t-33-47-58.5-18q-6 0-12 0.5t-13 1.5q12 17 23 46.5t11 53.5q0 16-6.5 26t-22.5 10q-22 0-48.5-26.5t-51-77-40-123.5-15.5-166q0-20 2-41t3-44q-10-1-17-1.5t-13-0.5q-43 0-65.5 20t-22.5 66q0 22 6.5 62.5t14.5 91.5 14.5 105.5 6.5 104.5q0 39-4 77t-13 73q62-25 84-69t22-102q0-10-0.5-24.5t-2.5-30.5z"/><path transform="translate(30.912 17.632) scale(.016 -.016)" d="m192 88q0-36 3-62.5t9-40.5q-39 14-61.5 37.5t-31.5 58-9 83.5q0 44 8 98t16 110 8 107q0 26-0.5 51.5t-5.5 50.5q7 1 15 1.5t14 0.5q45 0 65-20t20-66q0-29-12-90t-24.5-143-13.5-176zm45 578q-12-4-26-7t-28-3-28 4.5-23.5 16-9.5 30.5q0 17 6 33t12 33q12 5 26.5 7.5t27.5 2.5q14 0 28-4.5t23.5-15.5 9.5-31q0-16-6-32.5t-12-33.5z"/><path transform="translate(36.048 17.632) scale(.016 -.016)" d="m248-15q-53 0-94.5 31t-65 86.5-23.5 126.5q0 74 21.5 137.5t60.5 110.5 91.5 73.5 113.5 26.5q74 0 112-37t38-108q0-53-29-95.5t-79.5-66.5-115.5-24q-32 0-60 3.5t-54 9.5l3 35h37q58 0 101 19.5t67 55.5 24 83q0 35-16.5 54t-46.5 19q-38 0-68-28.5t-51-74-32-97.5-11-99q0-88 26.5-132.5t78.5-44.5q98 0 161 98 37-6 37-27-43-70-97.5-102.5t-128.5-32.5z"/><path transform="translate(44.72 17.632) scale(.016 -.016)" d="m216 346q26 68 64.5 120t80.5 81.5 78 29.5q59 0 81.5-38.5t22.5-103.5q0-48-9.5-105t-19.5-117-10-118q0-47 14-69.5t43-39.5q-10-1-19-1t-18 0q-67 0-96 25t-29 92q0 30 6 68.5t14 81 14 85 6 80.5q0 66-40 66-28 0-62.5-27.5t-66-78.5-52-122-20.5-157q0-23 1-47.5t5-50.5q-10-1-17.5-1.5t-13.5-0.5q-43 0-65.5 20t-22.5 66q0 22 6.5 62.5t14.5 91.5 14.5 105.5 6.5 104.5q0 39-4 77t-13 73q62-25 84-69t22-102q0-19-1.5-39t-4.5-41z"/><path transform="translate(54.736 17.632) scale(.016 -.016)" d="m411 163q-21-55-55.5-94t-76-59.5-84.5-20.5q-39 0-71.5 21t-52.5 65.5-20 112.5q0 82 23 150.5t63.5 118 94.5 77 117 27.5q19 0 38.5-3t38.5-8q-72-12-123-50t-82.5-89.5-46.5-106.5-15-102q0-34 9-63.5t28.5-47.5 52.5-18q42 0 75 31t57 84.5 41 120.5 28 140 17 143 8.5 130 2.5 100q0 39-1.5 73.5t-6.5 61.5q36-11 58.5-40t33.5-71 11-96q0-60-10-132.5t-23.5-153.5-23.5-167.5-10-174.5q0-71 9-140-39 14-60.5 40.5t-29.5 62.5-9 77z"/><path transform="translate(64.592 17.632) scale(.016 -.016)" d="m417 170q-19-52-54.5-93.5t-79-65-88.5-23.5q-67 0-104.5 52t-37.5 146q0 75 21.5 141.5t59 116.5 87.5 78.5 107 28.5q17 0 36-3.5t43-10.5q-54-13-99.5-45t-78-77-50.5-100-18-116 21-93.5 60-32.5q41 0 78 32.5t67 88 47 126 17 146.5q0 26-2 53.5t-6 48.5q10 1 18 1.5t15 0.5q41 0 62.5-21t21.5-61q0-26-7-67t-16.5-92-17-107-7.5-111q0-43 7-74t24-70q-64 13-92 56t-28 126q0 8 0 11.5t1 7.5z"/></svg>