<svg width="101.97" height="22.75" viewBox="0 0 101.97 22.75" xmlns="http://www.w3.org/2000/svg"><path transform="translate(0 18.5) scale(.0078125 -.0078125)" d="M196 0V1536H482L1411 283L2326 1536H2612V0H2420V1362L1503 101H1329L388 1362V0Z"/><path transform="translate(21.938 18.5) scale(.0078125 -.0078125)" d="M128 0V1088H320V0ZM128 1344V1536H320V1344Z"/><path transform="translate(25.438 18.5) scale(.0078125 -.0078125)" d="m801-22q-193 0-328 19.5t-218 80-121 181.5-38 323q0 196 38 314t121 178 218 80 328 20q231 0 380.5-26.5t221.5-108.5 72-250h-184q0 97-40 145t-146 64-304 16q-178 0-282-15t-153-58.5-63.5-129.5-14.5-229q0-148 14.5-237t63.5-133.5 153-59 282-14.5q151 0 247 8.5t149 34 73.5 74 20.5 129.5h184q0-134-40-215t-122-122-209.5-55-302.5-14z"/><path transform="translate(37.711 18.5) scale(.0078125 -.0078125)" d="m132 0v1536h192v-537q43 58 106.5 97t170 58.5 279.5 19.5q226 0 356.5-44t185.5-157 55-320v-653h-193v653q0 118-20 190t-68.5 109-133.5 49.5-216 12.5q-200 0-314-33t-161-103.5-47-183.5v-694z"/><path transform="translate(50.234 18.5) scale(.0078125 -.0078125)" d="m148 0v1152h192v-159q32 51 64.5 85t85 54 142.5 28.5 237 8.5v-161q-198 0-306.5-14t-155.5-47.5-57-92.5-10-150v-704z"/><path transform="translate(57.938 18.5) scale(.0078125 -.0078125)" d="m801-22q-193 0-328 19.5t-218 80-121 181.5-38 323q0 196 38 314t121 178 218 80 328 20q194 0 328.5-20t217.5-80 121-178 38-314q0-202-38-323t-121-181.5-217.5-80-328.5-19.5zm513 604q0 143-14.5 229t-63.5 129.5-152.5 58.5-282.5 15q-178 0-282-15t-153-58.5-63.5-129.5-14.5-229q0-148 14.5-237t63.5-133.5 153-59 282-14.5q179 0 282.5 14.5t152.5 59 63.5 133.5 14.5 237z"/><path transform="translate(70.453 18.5) scale(.0078125 -.0078125)" d="m132 0v1152h192v-143q43 58 103 97t153.5 58.5 239.5 19.5q181 0 295-49t168-169q49 76 118 124.5t173.5 71 257.5 22.5q182 0 296-49.5t167.5-168.5 53.5-326v-640h-192v640q0 158-33 240.5t-109.5 113-206.5 30.5q-255 0-363.5-75t-108.5-245v1q1-31 1-65v-640h-192v640q0 158-33 240.5t-109.5 113-206.5 30.5q-255 0-363.5-75t-108.5-245v-704z"/><path transform="translate(89.781 18.5) scale(.0078125 -.0078125)" d="m736-22q-207 0-341.5 21.5t-200 94.5-65.5 227q0 157 61.5 230.5t195 95.5 350.5 22q176 0 295-8t213-28q-2 133-18 209.5t-60 113.5-128.5 47.5-224.5 10.5q-160 0-250.5-7t-131.5-25-51.5-52-10.5-88h-192q0 108 29.5 174t100.5 100 194.5 46 311.5 12q202 0 325.5-26t188-93.5 87-188.5 22.5-312v-554h-192v79q-34-36-94-58t-159.5-32.5-254.5-10.5zm0 156q171 0 273 4t152.5 22 66.5 58 16 112v177l-508 6q-135 2-217.5-3.5t-125.5-24-57.5-58-14.5-106.5q0-65 14.5-103t57.5-56 125.5-23 217.5-5z"/></svg>