<svg width="60.272" height="20" viewBox="0 0 60.272 20" xmlns="http://www.w3.org/2000/svg"><path transform="translate(0 15.84) scale(.016 -.016)" d="m829 111q0-24 11-38t26.5-20.5 32.5-8.5 29-2v-42q-10 0-30.5 1.5t-42.5 3.5-42.5 3.5-30.5 1.5-30-1.5-41.5-3.5-41.5-3.5-30-1.5v42q13 0 30.5 2t32.5 8.5 25.5 20.5 10.5 38v522l-252-633h-46l-249 634v-523q0-24 11-38t26.5-20.5 32.5-8.5 29-2v-42q-10 0-27 1.5t-36 3.5-36 3.5-27 1.5-27-1.5-36-3.5-36-3.5-27-1.5v42q13 0 30.5 2t32.5 8.5 25.5 20.5 10.5 38v603q0 31-23.5 47.5t-65.5 16.5q0 17 12 29.5t45 12.5q23 0 43.5-9t33.5-22q13 13 33.5 22t43.5 9q33 0 45-12.5t12-29.5q-55 0-79-30 10-10 20-25.5t19-32.5 16-34.5 12-30.5l185-482 191 504q12 32 24.5 56.5t25.5 43.5q-22 31-80 31 0 17 12 29.5t45 12.5q23 0 43.5-9t33.5-22q13 13 33.5 22t43.5 9q33 0 45-12.5t12-29.5q-41 0-65-16.5t-24-47.5z"/><path transform="translate(15.488 15.84) scale(.016 -.016)" d="m78 616q0 30 21 50.5t50 20.5 49.5-20.5 20.5-50.5-20.5-50.5-49.5-20.5-50 20.5-21 50.5zm113-517q0-20 6.5-33t16-21 22-11.5 24.5-3.5v-30q-12 0-26.5 1.5t-30.5 3.5-30.5 3.5-26.5 1.5-26.5-1.5-30.5-3.5-30.5-3.5-26.5-1.5v30q27 0 48 15t21 54v172q0 37-1.5 61.5t-8.5 38-20 19-36 5.5v30q25 0 42.5 3t31.5 9 26 14 26 17h30z"/><path transform="translate(20.016 15.84) scale(.016 -.016)" d="m185 99q0-20 6.5-33t16-21 22-11.5 24.5-3.5v-30q-12 0-26.5 1.5t-30.5 3.5-30.5 3.5-26.5 1.5-26.5-1.5-30.5-3.5-30.5-3.5-26.5-1.5v30q27 0 48 15t21 54v518q0 37-1.5 61.5t-8.5 38-20 19-36 5.5v25q25 0 43.5 3t33.5 9 27.5 14 26.5 17h25z"/><path transform="translate(24.496 15.84) scale(.016 -.016)" d="m276-14q-50 0-92.5 17.5t-74.5 49.5-50 77-18 101q0 57 18 101t50 74.5 74.5 46 92.5 15.5q49 0 92-15.5t75-46 50-74.5 18-101-18-102-50-77-75-49-92-17zm1 46q37 0 63 16t43 43.5 25 63.5 8 76q0 39-8 74t-25 60.5-43.5 40.5-63.5 15-63.5-14.5-43.5-40-25-60.5-8-75 8-76 25.5-63.5 44-43.5 63.5-16z"/><path transform="translate(33.328 15.84) scale(.016 -.016)" d="m426 187q0 67-6.5 112t-19.5 72-33 38.5-46 11.5-49.5-10-41.5-31.5-28.5-56-10.5-82.5v-142q0-20 6.5-33t16-21 22-11.5 24.5-3.5v-30q-12 0-26.5 1.5t-30.5 3.5-30.5 3.5-26.5 1.5-26.5-1.5-30.5-3.5-30.5-3.5-26.5-1.5v30q27 0 48 15t21 54v167q0 37-1.5 61.5t-8.5 38-20 19-36 5.5v25q25 0 43.5 3t33.5 9 27.5 14 26.5 17h25v-70q19 35 52.5 57.5t79.5 22.5q99 0 146-60t47-199v-105q0-20 6.5-33t16-21 22-11.5 24.5-3.5v-35q-13 0-23 1.5t-20.5 3-24 3-32.5 1.5q-13 0-29.5-1.5t-39.5-7.5l-9 17q7 7 11 25.5t5.5 42.5 2 51 0.5 51z"/><path transform="translate(42.928 15.84) scale(.016 -.016)" d="m262-14q-54 0-95 18t-69 50.5-42 77.5-14 99q0 63 19.5 107.5t51 73.5 72 42.5 82.5 13.5q45 0 80-13.5t65-54.5q6 22 19 33.5t30 17 36 6.5 37 1v-30q-13 0-21.5-5.5t-13-29-6-70-1.5-128.5v-228q0-114-56.5-165.5t-177.5-51.5q-74 0-109.5 16t-35.5 40q-26 0-37 17.5t-11 35.5q0 17 8 29.5t20 20.5 25.5 12 24.5 4q0-27 6.5-50.5t21.5-41 38.5-28 57.5-10.5q30 0 55 9t42.5 30 27.5 55 10 84v65q-34-33-70-42.5t-70-9.5zm15 46q34 0 60 15.5t42.5 42.5 25 62.5 8.5 76.5q0 39-8 73.5t-25 61-42.5 41.5-61.5 15q-39 0-66-14.5t-43-40-23-60-7-74.5q0-39 6.5-75t23-63.5 43-44 67.5-16.5z"/><path transform="translate(52.192 15.84) scale(.016 -.016)" d="m424 99q0-20 6.5-33t16-21 22-11.5 24.5-3.5v-30q-23 0-39.5 4t-39.5 4-40-1-40-7v53q-23-26-55-46.5t-78-20.5q-37 0-67.5 10t-52 29-33.5 45.5-12 59.5q0 32 12.5 57.5t35.5 43 54 27 69 9.5q43 0 73.5-8.5t53.5-19.5v37q0 26-3.5 52t-13.5 47-29 34-49 13q-13 0-28.5-3t-28.5-10.5-22-20-9-31.5q0-10 3-23-15-8-33-8-28 0-41 15.5t-13 35.5 13.5 35.5 38.5 15.5q0 11 10 19t26.5 12.5 36.5 6.5 41 2q45 0 80.5-10.5t60-36 37.5-68 13-107.5zm-195-67q35 0 61 20.5t44 49.5v100q-23 11-51 18.5t-56 7.5q-40 0-68.5-24t-28.5-68q0-46 27-75t72-29z"/></svg>