<svg width="100.96" height="19.68" viewBox="0 0 100.96 19.68" xmlns="http://www.w3.org/2000/svg"><path transform="translate(0 15.84) scale(.016 -.016)" d="M90 0V720H220L453 131H457L690 720H820V0H730V568H720L505 0H405L190 568H180V0Z"/><path transform="translate(14.56 15.84) scale(.016 -.016)" d="m75 0v520h90v-520zm45 620q-23 0-39 16t-16 39 16 39 39 16 39-16 16-39-16-39-39-16z"/><path transform="translate(18.4 15.84) scale(.016 -.016)" d="m75 0v520h90v-100h10q23 53 59 76.5t96 23.5h25v-80h-55q-35 0-66-17t-50-52.5-19-90.5v-280z"/><path transform="translate(24.32 15.84) scale(.016 -.016)" d="m205-10q-55 0-91.5 23.5t-55 60-18.5 76.5 20 74 65 55 120 21h145q0 50-8.5 83.5t-35 50-81.5 16.5q-40 0-69.5-12.5t-37.5-42.5h-95q15 68 68.5 101.5t133.5 33.5 125.5-26 64.5-77.5 19-126.5v-180q0-22 7.5-31t22.5-9h16v-80h-30q-25 0-48 8t-37.5 27.5-14.5 54.5h-10q-22-45-64.5-72.5t-110.5-27.5zm20 80q50 0 87 17t57.5 52.5 20.5 90.5h-135q-45 0-72.5-9.5t-40-27.5-12.5-43q0-37 29-58.5t66-21.5z"/><path transform="translate(33.12 15.84) scale(.016 -.016)" d="m75 0v520h90v-90h10q23 53 59 76.5t96 23.5q75 0 125-47.5t50-152.5v-330h-90v330q0 68-31 94t-84 26q-35 0-66-19.5t-50-57.5-19-93v-280z"/><path transform="translate(42.24 15.84) scale(.016 -.016)" d="m265-10q-65 0-114.5 34t-77.5 95-28 141 28 141 77.5 95 114.5 34q60 0 106.5-28.5t68.5-81.5h10v300h90v-720h-90v100h-10q-22-52-68.5-81t-106.5-29zm20 80q68 0 114 46.5t46 143.5q0 98-46 144t-114 46q-67 0-108.5-46t-41.5-144q0-97 41.5-143.5t108.5-46.5z"/><path transform="translate(52.08 15.84) scale(.016 -.016)" d="m205-10q-55 0-91.5 23.5t-55 60-18.5 76.5 20 74 65 55 120 21h145q0 50-8.5 83.5t-35 50-81.5 16.5q-40 0-69.5-12.5t-37.5-42.5h-95q15 68 68.5 101.5t133.5 33.5 125.5-26 64.5-77.5 19-126.5v-180q0-22 7.5-31t22.5-9h16v-80h-30q-25 0-48 8t-37.5 27.5-14.5 54.5h-10q-22-45-64.5-72.5t-110.5-27.5zm20 80q50 0 87 17t57.5 52.5 20.5 90.5h-135q-45 0-72.5-9.5t-40-27.5-12.5-43q0-37 29-58.5t66-21.5z"/><path transform="translate(65.04 15.84) scale(.016 -.016)" d="m308-10q-70 0-127.5 22.5t-94.5 66.5-46 106h92q5-32 29-58.5t62.5-41.5 84.5-15q83 0 132.5 33t49.5 100q0 40-25.5 63.5t-69 36.5-97.5 19q-119 15-173.5 67t-54.5 134q0 60 32.5 106.5t86.5 73 119 26.5q112 0 174-52.5t83-136.5h-94q-14 53-55 81t-108 28-107.5-36.5-40.5-89.5q0-30 21.5-52.5t57.5-37.5 79-21q84-12 136-32t79-47 37-59.5 10-70.5q0-105-72-159t-200-54z"/><path transform="translate(75.28 15.84) scale(.016 -.016)" d="m205-10q-55 0-91.5 23.5t-55 60-18.5 76.5 20 74 65 55 120 21h145q0 50-8.5 83.5t-35 50-81.5 16.5q-40 0-69.5-12.5t-37.5-42.5h-95q15 68 68.5 101.5t133.5 33.5 125.5-26 64.5-77.5 19-126.5v-180q0-22 7.5-31t22.5-9h16v-80h-30q-25 0-48 8t-37.5 27.5-14.5 54.5h-10q-22-45-64.5-72.5t-110.5-27.5zm20 80q50 0 87 17t57.5 52.5 20.5 90.5h-135q-45 0-72.5-9.5t-40-27.5-12.5-43q0-37 29-58.5t66-21.5z"/><path transform="translate(84.08 15.84) scale(.016 -.016)" d="m75 0v520h90v-90h10q23 53 59 76.5t96 23.5q75 0 125-47.5t50-152.5v-330h-90v330q0 68-31 94t-84 26q-35 0-66-19.5t-50-57.5-19-93v-280z"/><path transform="translate(93.2 15.84) scale(.016 -.016)" d="m235-10q-60 0-103 21.5t-67.5 55-29.5 68.5h90q8-22 36.5-43.5t73.5-21.5q53 0 89 17.5t36 62.5q0 25-16.5 39t-45 22.5-63.5 14.5q-60 11-100 26.5t-60 44-20 78.5q0 40 22 75.5t62.5 57.5 95.5 22 99-18.5 71.5-51.5 32.5-75h-90q-5 15-16 30t-34 25-63 10q-37 0-63.5-18.5t-26.5-56.5q0-30 25-45t85-26q98-18 146.5-52t48.5-102q0-55-28.5-90.5t-77.5-52.5-109-17z"/></svg>