<svg width="40.537" height="19.502" viewBox="0 0 40.537 19.502" xmlns="http://www.w3.org/2000/svg"><path transform="translate(0 13.86) scale(.007 -.007)" d="M176 0V1500H332L667 214H633L968 1500H1124V0H979V1098L996 1095L709 0H591L304 1095L321 1098V0Z"/><path transform="translate(9.1 13.86) scale(.007 -.007)" d="m454-24q-102 0-179 44t-121 123.5-44 185.5v429q0 104 44 183.5t121 124 179 44.5q153 0 247-97t94-255v-429q0-158-94-255.5t-247-97.5zm0 145q91 0 143.5 56t52.5 147v439q0 91-52.5 146.5t-143.5 55.5-145-55.5-54-146.5v-439q0-91 54-147t145-56z"/><path transform="translate(15.449 13.86) scale(.007 -.007)" d="m142 0v1500h145v-557l-24 31q37 65 99.5 101t147.5 36q86 0 154.5-38.5t108-112.5 39.5-181v-779h-145v764q0 92-51.5 147t-136.5 55q-87 0-139.5-55t-52.5-147v-764z"/><path transform="translate(22.043 13.86) scale(.007 -.007)" d="m390-24q-150 0-232 83t-82 210q0 79 29 131.5t74.5 85.5 96.5 53q61 25 124.5 39.5t117.5 31 87 45.5 33 82v26q0 91-54.5 146.5t-144.5 55.5q-91 0-143.5-55.5t-52.5-146.5v-30h-145v25q0 158 94 255t247 97q101 0 178.5-44.5t121.5-123.5 44-184v-758h-145v150l24-32q-38-68-107-105t-165-37zm30 138q102 0 160 57.5t58 164.5v192q-61-38-136-51.5t-143-36.5q-60-20-99-56.5t-39-103.5q0-73 52-119.5t147-46.5z"/><path transform="translate(28.406 13.86) scale(.007 -.007)" d="M331 0 21 1085H176L436 155H401L659 1085H814L507 0Z"/><path transform="translate(34.251 13.86) scale(.007 -.007)" d="m454-24q-102 0-179 44t-121 123.5-44 185.5v429q0 104 44 183.5t121 124 179 44.5q153 0 247-97t94-255v-237h-569v140h424v102q0 91-52.5 146.5t-143.5 55.5-145-55.5-54-146.5v-439q0-91 54-147t145-56 143.5 56 52.5 147v25h145v-20q0-158-94-255.5t-247-97.5z"/></svg>