<svg width="156.03" height="22.88" viewBox="0 0 156.03 22.88" xmlns="http://www.w3.org/2000/svg"><path transform="translate(0 18.32) scale(.016 -.016)" d="m990-16q-62 0-94.5 22t-42.5 60-3.5 86 21.5 100q29 95 59 174.5t51.5 139 23.5 96.5-25 47q-32 12-71-10t-81-69-84.5-113-81-143-70-158.5-52.5-159.5q-6-24-24-32t-37.5-3-31 21-5.5 40q56 211 88.5 356t34 225-35.5 96q-11 5-30 0t-45.5-26-59.5-64.5-73-116.5q-54-99-101.5-234t-78.5-294q-5-25-22.5-34t-37-5-32 19.5-8.5 39.5q32 167 82 308t108 248q34 62 73 116t82 92 89 51 94-8q68-29 87.5-99.5t8.5-168.5q51 78 108.5 135.5t118.5 82.5 122 2q54-20 75.5-59.5t19.5-91.5-19-110.5-41-117-46-110.5-34-92q-16-54-16-82.5t8.5-40.5 17.5-13.5 11-1.5q20 0 60.5 25t82.5 77q31 37 62 74t64 86.5 69 123.5q10 21 28 25.5t34.5-3.5 24-24.5-2.5-37.5q-38-78-73-133.5t-67-97-61-77.5q-51-61-105-99.5t-116-38.5z"/><path transform="translate(19.152 18.32) scale(.016 -.016)" d="m275-13q-63 0-116.5 31.5t-86 89.5-32.5 137q0 71 25 131.5t68.5 107.5 99.5 77 117 39q38 6 72.5 3.5t62.5-10.5q23-7 29.5-23.5t0.5-34.5-21.5-28-36.5-4q-17 5-42 7t-51-2q-42-7-82.5-30t-73.5-58.5-52.5-80-19.5-94.5q0-45 17-82.5t48-59.5 74-22q53 0 100 36t72 101q-73 9-116 45t-43 103q0 29 15 55t42.5 42.5 65.5 16.5q67 0 104.5-44t41.5-110q40 13 83 37t82 59 67 81q12 21 30 23t33.5-8 21.5-27-5-36q-40-68-93.5-115.5t-112.5-76.5-116-40l-2-6q-19-67-58-119t-93.5-81.5-118.5-29.5zm188 324q-2 37-18.5 56t-33.5 19q-7 0-17-2.5t-10-17.5q0-10 17.5-29.5t56.5-24.5z"/><path transform="translate(29.632 18.32) scale(.016 -.016)" d="m884-4q-36 0-67 17t-50 48.5-19 74.5q0 38 11.5 78.5t25 74.5 19.5 52q18 52 9.5 74t-25.5 22q-10 0-22.5-5t-31.5-24.5-50-61.5q-27-37-62.5-92.5t-72.5-119-69-123.5q-10-18-26.5-22.5t-32.5 2-25.5 21-4.5 34.5l90 348q16 61 8.5 85t-27.5 24q-14 0-27-5.5t-29-24.5-41-59q-20-33-46-80t-54-101.5-55.5-110-50.5-105.5q-8-18-23.5-24t-32-2-27 17-9.5 32q6 110 21.5 223.5t38.5 224.5q5 24 21.5 32t35 3 30.5-19.5 7-35.5q-9-43-17-87.5t-15-88.5q26 50 51.5 94.5t44.5 75.5q38 62 80 98.5t97 36.5q83 0 111.5-58t-0.5-169l-7-29 42 61q47 64 88 96.5t92 32.5q58 0 88-30.5t34.5-81-16.5-110.5q-7-20-19-53t-21.5-66.5-9.5-53.5q0-18 8.5-32t31.5-14q22 0 55.5 23t73.5 72q35 43 74 99.5t74 114 58 102.5q11 20 28.5 23.5t34-5.5 24-25.5-2.5-36.5q-25-48-61.5-107.5t-77-118.5-79.5-106q-45-55-92-92t-109-37z"/><path transform="translate(47.024 18.32) scale(.016 -.016)" d="m275-13q-63 0-116.5 31.5t-86 89.5-32.5 137q0 71 25 131.5t68.5 107.5 99.5 77 117 39q38 6 72.5 3.5t62.5-10.5q23-7 29.5-23.5t0.5-34.5-21.5-28-36.5-4q-17 5-42 7t-51-2q-42-7-82.5-30t-73.5-58.5-52.5-80-19.5-94.5q0-45 17-82.5t48-59.5 74-22q53 0 100 36t72 101q-73 9-116 45t-43 103q0 29 15 55t42.5 42.5 65.5 16.5q67 0 104.5-44t41.5-110q40 13 83 37t82 59 67 81q12 21 30 23t33.5-8 21.5-27-5-36q-40-68-93.5-115.5t-112.5-76.5-116-40l-2-6q-19-67-58-119t-93.5-81.5-118.5-29.5zm188 324q-2 37-18.5 56t-33.5 19q-7 0-17-2.5t-10-17.5q0-10 17.5-29.5t56.5-24.5z"/><path transform="translate(63.104 18.32) scale(.016 -.016)" d="m233-184q-51 0-95 16t-71 49.5-27 84.5q0 56 30 93.5t82.5 61 121 36.5 145.5 18q23 2 45 4.5t42 6.5q-8 49-51.5 84t-104.5 74q-53 34-97 71t-69.5 83-25.5 108q0 81 36 145.5t104 102 162 37.5q93 0 152.5-25.5t85.5-70 20-102-44-121.5q-13-21-32-24t-36 8-23.5 29 5.5 39q55 92 17.5 129.5t-145.5 37.5q-57 0-102.5-21t-71.5-62-26-102q0-35 13-61.5t44.5-53 86.5-61.5q27-17 58-36t60-43.5 51-57.5 31-77q79 35 139.5 104t115.5 181q11 22 29.5 26t36.5-4.5 26.5-26-2.5-39.5q-63-129-149-216t-197-129q-11-54-42-106.5t-79.5-95.5-111-68.5-137.5-25.5zm0 100q55 0 105 22.5t89 60.5 60 83q-14-2-29.5-3.5t-32.5-3.5q-90-6-146.5-18t-86.5-27.5-41-32-11-31.5q0-12 6.5-23.5t26.5-19 60-7.5z"/><path transform="translate(74.848 18.32) scale(.016 -.016)" d="m226 590q-28 0-49.5 20.5t-21.5 48.5v3q1 40 17.5 61.5t40.5 28 47.5 0.5 39.5-23 16-42q0-38-24.5-67.5t-65.5-29.5zm-22-594q-56 0-97 37.5t-41 105.5q0 35 9.5 94t24.5 128 31 133q6 24 23 31.5t35.5 2.5 30-20 5.5-38q-12-47-23.5-98t-20-97.5-14-82.5-5.5-53q0-19 8-34t34-15q22 0 50 19t72 72q68 83 123 168t89 152q11 20 28.5 23.5t34-5.5 24-25.5-2.5-36.5q-37-71-94.5-160t-129.5-176q-46-55-90.5-90t-103.5-35z"/><path transform="translate(81.36 18.32) scale(.016 -.016)" d="m199-356q-54 10-80 47.5t-18.5 90 51.5 105.5q27 33 71 70.5t91 74.5 84 65l14 49-18-16q-50-43-100.5-66t-100.5-23q-45 0-82.5 20.5t-60 60-22.5 96.5q0 62 29 125t79.5 116.5 117.5 86 143 32.5q47 0 94-12t82-35q20-13 22-31t-8.5-33.5-27.5-21.5-36 6-56.5 22.5-69.5 10.5q-55 0-104.5-25t-87.5-64.5-59.5-86-21.5-90.5q0-31 14-57t55-26q26 0 62 15.5t79 51.5q41 35 81.5 87.5t70.5 113.5q9 20 25.5 24.5t33-2 25.5-21 3-34.5l-47-167q66 59 132.5 132.5t131.5 169.5q13 19 31 20t33.5-9.5 20.5-28.5-7-36q-96-140-195.5-238.5t-190.5-169.5q-16-59-32.5-116.5t-33.5-116.5q-15-53-45.5-94.5t-73.5-61.5-98-10zm18 92q14-2 34.5 6.5t41 31.5 31.5 62l31 108q-41-33-76.5-63.5t-54.5-53.5q-24-29-28.5-48.5t3-30 18.5-12.5z"/><path transform="translate(91.84 18.32) scale(.016 -.016)" d="m580-4q-57 0-95.5 37.5t-38.5 100.5q0 32 8 72t19 80.5 21 72 14 46.5q13 46 5.5 72t-34.5 26q-26 0-53-18t-58-68q-11-17-30.5-52t-44-81-50-95-48.5-94.5-40-79.5q-9-18-24-23.5t-31-1-26.5 17-9.5 31.5q8 112 24.5 224.5t40.5 224.5q5 24 21.5 32.5t35 3.5 30.5-20 7-36q-10-45-18-89t-15-88q30 56 56.5 104t41.5 72q35 56 82.5 93t108.5 37q84 0 117-58t4-160q-4-15-13.5-47.5t-19.5-71-17.5-73-7.5-53.5q0-16 6.5-30t31.5-14q21 0 50 20t74 73q43 51 82 108t71.5 111.5 55.5 98.5q11 21 29 24.5t34.5-5.5 24-26-3.5-37q-24-46-58-103t-75-116.5-88-114.5q-47-56-91.5-91.5t-104.5-35.5z"/><path transform="translate(104.34 18.32) scale(.016 -.016)" d="m534-20q-47 0-75.5 18.5t-41.5 49-14 65.5q-43-52-95.5-81.5t-109.5-29.5q-45 0-85 21.5t-64.5 65-24.5 110.5q0 70 29.5 137.5t81 122 118 87 139.5 32.5q48 0 95-12t82-35q20-13 22-31t-8.5-33.5-27.5-21.5-36 6-56.5 22.5-70.5 10.5q-57 0-106-26t-86.5-68-58.5-92-21-99q0-25 6.5-48.5t23.5-39 48-15.5q30 0 67.5 20.5t71.5 65.5q21 28 44 67.5t42.5 79 31.5 67.5q8 20 24.5 26t33.5 0.5 27-19.5 6-35l-44-214q-7-35 0-52t18-22.5 14-5.5q16 0 41 15.5t62 58.5q31 35 64.5 82.5t65 98 57 96 40.5 75.5q10 21 28 25t34.5-4.5 24-25-2.5-37.5q-16-33-42.5-80t-59-99.5-68-102.5-69.5-90q-40-46-81.5-76t-93.5-30z"/><path transform="translate(116.05 18.32) scale(.016 -.016)" d="m209-11q-54 0-87 22t-48.5 58.5-16.5 81 10 90.5l97 404-85-4q-22-1-34 12.5t-13 32 10 33.5 33 16l112 6 32 134q6 24 22.5 31.5t35 2.5 30-19.5 6.5-36.5l-26-107 118 6q23 1 34.5-12.5t12.5-32-9.5-33.5-33.5-16l-145-7-103-432q-13-54-6.5-83.5t23-41 31.5-11.5q29 0 65.5 23.5t85.5 81.5q26 30 56 69.5t59.5 83.5 55.5 85 42 74q11 21 28.5 25t34.5-4.5 24.5-25-3.5-37.5q-19-37-46-81t-57.5-89-62-87-59.5-75q-52-61-105-99t-118-38z"/><path transform="translate(123.12 18.32) scale(.016 -.016)" d="m539-4q-34 0-64 15.5t-49.5 47.5-19.5 80q0 11 1 25.5t3 33.5l-24-39q-43-68-94-108t-113-40q-55 0-88 28.5t-41.5 77.5 8.5 111l73 263q6 23 23.5 30.5t35.5 2 28.5-20.5 4.5-38l-73-263q-13-46-2.5-71.5t31.5-25.5q22 0 56 22t71 82q15 23 40 66t53.5 93.5 52.5 98 36 80.5q8 22 25 28t34.5-0.5 27-22.5 1.5-37q-18-49-31.5-105.5t-23-111-14.5-97-5-62.5q0-22 9-35.5t28-13.5q16 0 49 19.5t81 74.5q37 43 76.5 99.5t74.5 114 57 102.5q11 21 28.5 25t34-4.5 24-25.5-2.5-37q-24-49-60.5-109.5t-78-119.5-83.5-107q-51-58-97.5-92t-102.5-34z"/><path transform="translate(135.06 18.32) scale(.016 -.016)" d="m527-11q-58 0-93 27.5t-46 71.5 0 93q12 50 51 128t97 173l-167-8-292-469q-12-20-30-22t-34 8.5-22 27.5 6 36l263 422q-40 11-64.5 41.5t-24.5 74.5q0 33 17.5 62t47.5 47.5 69 18.5q46 0 72.5-21.5t35-56 0.5-73.5l208 10q20 1 33-11t16-29-7-32q-49-77-87.5-147t-63-123-30.5-79q-6-27 1.5-44t21-24.5 22.5-7.5q24 0 57.5 21t78.5 75q28 33 57.5 75.5t57.5 87.5 52 86.5 40 72.5q11 20 29 23.5t34.5-5 24-25.5-3.5-37q-23-44-58.5-104t-77-122-83.5-112q-50-61-99.5-95.5t-108.5-34.5zm-260 604q0-9 6-19t36-9h5q15 29 14 42t-9 16.5-14 3.5q-12 0-25-8.5t-13-25.5z"/><path transform="translate(146.86 18.32) scale(.016 -.016)" d="m270-17q-72 0-124 33t-80 90.5-28 130.5q0 65 25.5 126.5t67.5 111 93 78 101 28.5q55 0 93-29t37-88q-1-55-34-97t-89-91q-34-29-81.5-63.5t-99.5-67.5q31-68 119-68 54 0 119.5 42t144.5 136 173 248q12 20 30 22.5t34-7 22-26.5-6-37q-96-159-180.5-264t-166-156.5-170.5-51.5zm-136 263q41 27 76 53t60 47q54 47 72.5 77t18.5 43q0 5-4.5 13t-31.5 8q-28 0-60.5-19.5t-61.5-53-48-77-21-91.5z"/></svg>