<svg width="163.38" height="20.8" viewBox="0 0 163.38 20.8" xmlns="http://www.w3.org/2000/svg"><path transform="translate(0 16.4) scale(.016 -.016)" d="m492-15q-54 0-87 32.5t-49 93.5l-106 420q-1 2-3 1.5t-2-2.5v-529h-171v609q0 74 42 114.5t105 40.5q117 0 155-143l112-410q1-3 3-3t3 3l109 410q19 70 58.5 106.5t100.5 36.5q63 0 104.5-40.5t41.5-114.5v-609h-170v536q0 2-2 3t-3-2l-107-427q-15-61-47.5-93.5t-86.5-32.5z"/><path transform="translate(15.712 16.4) scale(.016 -.016)" d="m324-15q-85 0-151 38t-103.5 105.5-37.5 154.5q0 89 37.5 157t103.5 106.5 151 38.5q86 0 151.5-38.5t103-106.5 37.5-157q0-87-37.5-154.5t-103-105.5-151.5-38zm0 140q56 0 91.5 44t35.5 114q0 72-35.5 117t-91.5 45-91.5-45-35.5-117q0-70 35.5-114t91.5-44z"/><path transform="translate(26.08 16.4) scale(.016 -.016)" d="m55 0v340q0 74 30.5 130t84.5 88 124 32q63 0 116-26t86-72q34 46 86.5 72t114.5 26q70 0 123-32t83-88 30-130v-340h-163v340q0 46-26 75t-70 29q-43 0-70.5-29t-27.5-75v-340h-162v340q0 46-27.5 75t-71.5 29q-43 0-70.5-29t-27.5-75v-340z"/><path transform="translate(41.888 16.4) scale(.016 -.016)" d="m324-15q-85 0-151 38t-103.5 105.5-37.5 154.5q0 89 37.5 157t103.5 106.5 151 38.5q86 0 151.5-38.5t103-106.5 37.5-157q0-87-37.5-154.5t-103-105.5-151.5-38zm0 140q56 0 91.5 44t35.5 114q0 72-35.5 117t-91.5 45-91.5-45-35.5-117q0-70 35.5-114t91.5-44z"/><path transform="translate(55.776 16.4) scale(.016 -.016)" d="M232 0V594H20V750H620V594H408V0Z"/><path transform="translate(66.016 16.4) scale(.016 -.016)" d="m61 0v330q0 123 66.5 189t190.5 66q13 0 41-1.5t56-7.5v-139q-19 3-36 5.5t-38 2.5q-31 0-58-9t-43.5-34-16.5-73v-329z"/><path transform="translate(72.96 16.4) scale(.016 -.016)" d="m313-15q-75 0-133.5 32t-91.5 88.5-33 129.5v335h162v-341q0-46 27-75t69-29 69 29 27 75v341h162v-335q0-73-33-129.5t-91-88.5-134-32z"/><path transform="translate(82.976 16.4) scale(.016 -.016)" d="m263-15q-115 0-181 53.5t-66 146.5h143q8-43 35-63t67-20q35 0 58 14t23 40q0 20-17.5 30t-65.5 22q-34 8-59.5 14.5t-54.5 16.5q-34 12-62.5 29t-46 46.5-17.5 77.5q0 54 21 91t56 59.5 76.5 32.5 81.5 10q67 0 119-23.5t82-65 30-96.5h-152q0 30-26.5 50t-62.5 20q-25 0-50-12t-25-39q0-18 16-30.5t62-25.5q17-4 40.5-10t46.5-11.5 38-10.5q65-19 94.5-58t29.5-98q0-90-61.5-140t-171.5-50z"/><path transform="translate(91.376 16.4) scale(.016 -.016)" d="m282 0q-70 0-112.5 42.5t-42.5 112.5v285h-94v130h94v150h162v-150h116v-130h-116v-257q0-19 12-31t30-12h91v-140z"/><path transform="translate(101.84 16.4) scale(.016 -.016)" d="m74 0v750h301q107 0 184.5-45.5t120-129 42.5-199.5q0-115-42.5-199.5t-120-130.5-184.5-46zm174 144h127q78 0 122.5 60.5t44.5 171.5q0 110-44.5 170t-122.5 60h-127z"/><path transform="translate(114.11 16.4) scale(.016 -.016)" d="m138 632q-39 0-65.5 23t-26.5 60q0 36 26.5 59t65.5 23q38 0 64.5-23t26.5-59q0-37-26.5-60t-64.5-23zm-81-632v570h162v-570z"/><path transform="translate(118.53 16.4) scale(.016 -.016)" d="m263-15q-115 0-181 53.5t-66 146.5h143q8-43 35-63t67-20q35 0 58 14t23 40q0 20-17.5 30t-65.5 22q-34 8-59.5 14.5t-54.5 16.5q-34 12-62.5 29t-46 46.5-17.5 77.5q0 54 21 91t56 59.5 76.5 32.5 81.5 10q67 0 119-23.5t82-65 30-96.5h-152q0 30-26.5 50t-62.5 20q-25 0-50-12t-25-39q0-18 16-30.5t62-25.5q17-4 40.5-10t46.5-11.5 38-10.5q65-19 94.5-58t29.5-98q0-90-61.5-140t-171.5-50z"/><path transform="translate(126.93 16.4) scale(.016 -.016)" d="m61-180v750h137l13-84q29 48 76 73.5t101 25.5q76 0 132-38t87-105 31-155q0-81-23-138t-61-93.5-84-53.5-91-17q-47 0-87.5 18t-68.5 53v-236zm284 298q59 0 93.5 43.5t34.5 118.5-34.5 119-93.5 44q-56 0-89-44t-33-119 33-118.5 89-43.5z"/><path transform="translate(137.65 16.4) scale(.016 -.016)" d="m216 0q-70 0-112.5 42.5t-42.5 112.5v595h162v-567q0-19 12-31t30-12h31v-140z"/><path transform="translate(143.36 16.4) scale(.016 -.016)" d="m291-15q-76 0-134.5 39t-91.5 108-33 158q0 87 32 153.5t88 104 129 37.5q56 0 99.5-21.5t70.5-59.5l9 66h134v-570h-134l-9 75q-26-42-68-66t-92-24zm29 142q56 0 89 44t33 119-33 118.5-89 43.5q-57 0-90-43.5t-33-118.5 33-119 90-44z"/><path transform="translate(153.84 16.4) scale(.016 -.016)" d="M127 -180 214 41 3 570H173L299 254L424 570H593L296 -180Z"/></svg>