<svg width="134.32" height="20.8" viewBox="0 0 134.32 20.8" xmlns="http://www.w3.org/2000/svg"><path transform="translate(0 16.4) scale(.016 -.016)" d="M97 0V750H235L509 65H463L743 750H877V0H779V686L802 682L745 526L526 0H439L229 523L173 682L192 686V0Z"/><path transform="translate(15.584 16.4) scale(.016 -.016)" d="m299-15q-73 0-130 35.5t-89 98-32 143.5q0 83 32 147t89 100 130 36 129-36 88-100 32-147q0-81-32-143.5t-88-98-129-35.5zm0 81q46 0 80.5 25t54.5 69.5 20 102.5q0 59-20 104.5t-54.5 71-80.5 25.5-81.5-25.5-55.5-71-20-104.5q0-58 20-102.5t55.5-69.5 81.5-25z"/><path transform="translate(25.104 16.4) scale(.016 -.016)" d="m425-1v327q0 64-31 101.5t-89 37.5q-40 0-69-23t-44.5-62-15.5-89l-24 99q22 78 69 116.5t106 38.5q56 0 98.5-25t66.5-66.5 24-92.5v-362zm-341 0v531h82l10-132v-399zm683 0v327q0 64-31 101.5t-89 37.5q-40 0-69.5-22t-45.5-60.5-16-87.5l-24 92q23 81 69.5 119.5t107.5 38.5q58 0 100.5-25t65.5-70 23-106v-345z"/><path transform="translate(40.112 16.4) scale(.016 -.016)" d="m299-15q-73 0-130 35.5t-89 98-32 143.5q0 83 32 147t89 100 130 36 129-36 88-100 32-147q0-81-32-143.5t-88-98-129-35.5zm0 81q46 0 80.5 25t54.5 69.5 20 102.5q0 59-20 104.5t-54.5 71-80.5 25.5-81.5-25.5-55.5-71-20-104.5q0-58 20-102.5t55.5-69.5 81.5-25z"/><path transform="translate(53.632 16.4) scale(.016 -.016)" d="M246 0V660H10V750H582V660H346V0Z"/><path transform="translate(63.104 16.4) scale(.016 -.016)" d="m84-6v536h82l8-99q16 50 54 82.5t93 32.5q11 0 21.5-1t17.5-3v-91q-10 2-21 3t-19 1q-39 0-71.5-18.5t-52-53.5-19.5-86v-303z"/><path transform="translate(69.344 16.4) scale(.016 -.016)" d="m296-15q-65 0-114 28t-76 78.5-27 119.5v319h91v-321q0-67 35-105.5t91-38.5q57 0 92 39t35 105v321h91v-319q0-70-27.5-120.5t-76.5-78-114-27.5z"/><path transform="translate(78.832 16.4) scale(.016 -.016)" d="m237-15q-94 0-150 50t-58 135h82q5-52 37.5-83.5t89.5-31.5q47 0 78 23.5t31 64.5q0 34-21.5 49t-71.5 29q-27 8-52 13.5t-55 15.5q-31 10-57 25t-41.5 40.5-15.5 67.5q0 41 16 71.5t43.5 50.5 63 30 74.5 10q58 0 101.5-20.5t68-58.5 25.5-89h-86q-1 47-34 73.5t-81 26.5q-43 0-73.5-21t-30.5-59q0-28 18.5-44t61.5-30q23-7 56-14.5t55-14.5q53-16 80-39.5t36.5-52.5 7.5-63q-2-57-32.5-90.5t-75-48.5-90.5-15z"/><path transform="translate(86.432 16.4) scale(.016 -.016)" d="m268 0q-47 0-76.5 16t-42.5 50.5-13 89.5v544h92v-532q0-34 5-53t18.5-26.5 36.5-7.5h69v-81zm-222 454v76h296v-76z"/><path transform="translate(96.496 16.4) scale(.016 -.016)" d="m341-15q-82 0-145.5 30t-101 87.5-40.5 138.5h101q5-83 55.5-126.5t128.5-43.5q76 0 124 32.5t48 86.5q0 29-14 49.5t-39.5 36-62.5 27.5l-154 53q-49 17-89 41t-63.5 60.5-23.5 91.5q0 65 33 113.5t92.5 75.5 137.5 27q114 0 188.5-58t84.5-165h-102q-10 68-56 102.5t-117 34.5q-48 0-83.5-15t-55.5-41.5-20-61.5q0-40 27.5-68.5t82.5-47.5l153-52q55-18 95-44t62-63 22-90q0-62-33-110t-93.5-74.5-141.5-26.5z"/><path transform="translate(107.23 16.4) scale(.016 -.016)" d="m283-15q-69 0-121.5 35t-82.5 98-30 148q0 83 29 145.5t80.5 98 119.5 35.5q65 0 112.5-32.5t69.5-91.5l-16-17 8 126h85v-530h-85l-7 137 15-14q-22-64-68.5-101t-108.5-37zm16 82q44 0 77 25.5t52 70.5 19 103q0 59-19 104.5t-52 71-77 25.5q-46 0-81.5-25.5t-55.5-71-20-104.5q0-58 20-103t55.5-70.5 81.5-25.5z"/><path transform="translate(117.17 16.4) scale(.016 -.016)" d="m427 0v326q0 64-33.5 101.5t-91.5 37.5q-40 0-68.5-23t-43.5-60.5-15-83.5l-20 94q21 77 66 115t106 38q58 0 101-25t66.5-70 23.5-106v-344zm-343 0v530h81l10-131v-399z"/><path transform="translate(126.72 16.4) scale(.016 -.016)" d="m237-15q-94 0-150 50t-58 135h82q5-52 37.5-83.5t89.5-31.5q47 0 78 23.5t31 64.5q0 34-21.5 49t-71.5 29q-27 8-52 13.5t-55 15.5q-31 10-57 25t-41.5 40.5-15.5 67.5q0 41 16 71.5t43.5 50.5 63 30 74.5 10q58 0 101.5-20.5t68-58.5 25.5-89h-86q-1 47-34 73.5t-81 26.5q-43 0-73.5-21t-30.5-59q0-28 18.5-44t61.5-30q23-7 56-14.5t55-14.5q53-16 80-39.5t36.5-52.5 7.5-63q-2-57-32.5-90.5t-75-48.5-90.5-15z"/></svg>