<svg width="64.75" height="15.832" viewBox="0 0 64.75 15.832" xmlns="http://www.w3.org/2000/svg"><path transform="translate(0 13.679) scale(.0068359 -.0068359)" d="m438 0q-135 0-234 51.5t-153.5 138.5-54.5 191v608q0 105 54.5 191.5t153.5 138 234 51.5h308q135 0 234.5-51.5t153.5-138 54-191.5v-608q0-104-54-191t-153.5-138.5-234.5-51.5zm-182 453h107v712l49 9h114l43-9v-424h107v424l43 9h115l49-9v-712h106v749l-63 64-84 14h-131l-54-16-34-69-33 69-55 16h-131l-84-14-64-64z"/><path transform="translate(8.0938 13.679) scale(.0068359 -.0068359)" d="m438 0q-135 0-234 51.5t-153.5 138.5-54.5 191v608q0 105 54.5 191.5t153.5 138 234 51.5h308q135 0 234.5-51.5t153.5-138 54-191.5v-608q0-104-54-191t-153.5-138.5-234.5-51.5zm66 453h268l103 12 63 63 14 86v504l-14 84-63 64-103 14h-268l-102-14-64-64-12-84v-504l12-86 66-63zm6 106-65 10-15 60v479l10 55 70 11h256l70-11 10-59v-479l-14-56-66-10z"/><path transform="translate(16.188 13.679) scale(.0068359 -.0068359)" d="m438 0q-135 0-234 51.5t-153.5 138.5-54.5 191v608q0 105 54.5 191.5t153.5 138 234 51.5h308q135 0 234.5-51.5t153.5-138 54-191.5v-608q0-104-54-191t-153.5-138.5-234.5-51.5zm-116 453h106v710l78 13h240l69-11 10-59v-653h107v667l-14 84-64 64-102 12h-250l-180-25z"/><path transform="translate(24.281 13.679) scale(.0068359 -.0068359)" d="m438 0q-135 0-234 51.5t-153.5 138.5-54.5 191v608q0 105 54.5 191.5t153.5 138 234 51.5h308q135 0 234.5-51.5t153.5-138 54-191.5v-608q0-104-54-191t-153.5-138.5-234.5-51.5zm66 453h268l103 12 63 63 14 86v504l-14 84-63 64-103 14h-268l-102-14-64-64-12-84v-504l12-86 66-63zm6 106-65 10-15 60v479l10 55 70 11h256l70-11 10-59v-479l-14-56-66-10z"/><path transform="translate(32.375 13.679) scale(.0068359 -.0068359)" d="m438 0q-135 0-234 51.5t-153.5 138.5-54.5 191v608q0 105 54.5 191.5t153.5 138 234 51.5h308q135 0 234.5-51.5t153.5-138 54-191.5v-608q0-104-54-191t-153.5-138.5-234.5-51.5zm-41 453h107v378h334v105h-334v238h391v106h-498z"/><path transform="translate(40.469 13.679) scale(.0068359 -.0068359)" d="m438 0q-135 0-234 51.5t-153.5 138.5-54.5 191v608q0 105 54.5 191.5t153.5 138 234 51.5h308q135 0 234.5-51.5t153.5-138 54-191.5v-608q0-104-54-191t-153.5-138.5-234.5-51.5zm43 485h252l117 15-25 108-94-16h-243l-64 10-14 60v206h467v252l-15 84-63 64-101 12h-217l-100-12-63-64-15-84v-475l15-84 63-63zm-71 488v135l8 57 70 11h204l68-11 10-59v-133z"/><path transform="translate(48.562 13.679) scale(.0068359 -.0068359)" d="m438 0q-135 0-234 51.5t-153.5 138.5-54.5 191v608q0 105 54.5 191.5t153.5 138 234 51.5h308q135 0 234.5-51.5t153.5-138 54-191.5v-608q0-104-54-191t-153.5-138.5-234.5-51.5zm156 453h107v721h235v106h-578v-106h236z"/><path transform="translate(56.656 13.679) scale(.0068359 -.0068359)" d="m438 0q-135 0-234 51.5t-153.5 138.5-54.5 191v608q0 105 54.5 191.5t153.5 138 234 51.5h308q135 0 234.5-51.5t153.5-138 54-191.5v-608q0-104-54-191t-153.5-138.5-234.5-51.5zm156 453h107v721h235v106h-578v-106h236z"/></svg>