<svg width="96.768" height="17.948" viewBox="0 0 96.768 17.948" xmlns="http://www.w3.org/2000/svg"><path transform="translate(0 13.748) scale(.014 -.014)" d="M424 0 177 551V682H222L483 96H466L722 682H729V561L484 0ZM21 0V48H121V634H23V682H177V48H286V0ZM620 0V48H729V682H925V634H827V48H927V0Z"/><path transform="translate(13.272 13.748) scale(.014 -.014)" d="m299-11q-76 0-133.5 31t-90 89.5-32.5 141.5q0 84 32.5 142.5t90 89.5 133.5 31 133-31 89.5-89.5 32.5-142.5q0-83-32.5-141.5t-89.5-89.5-133-31zm0 46q46 0 79.5 26t52 75 18.5 119q0 67-18.5 114.5t-52 73-79.5 25.5-79.5-25.5-52-74-18.5-117.5q0-68 18.5-116.5t52-74 79.5-25.5z"/><path transform="translate(21.63 13.748) scale(.014 -.014)" d="m340 0v48h88v304q0 50-25 73.5t-69 23.5q-33 0-62.5-15.5t-47.5-48.5-18-87h-17q0 72 20 119.5t60 70.5 99 23q68 0 112-37t44-119v-307h73v-48zm-324 0v48h94v407h-84v48h169v-156l11 2v-301h88v-48z"/><path transform="translate(30.24 13.748) scale(.014 -.014)" d="m264-10q-73 0-109 45.5t-32 126.5l7 290h-126v47h45q42 0 66.5 10.5t34.5 34 10 60.5v40h56v-496q0-42 17.5-65t52.5-23 51 22.5 16 65.5v165h54v-169q0-72-36-113t-107-41zm-48 462v51h221v-51z"/><path transform="translate(36.848 13.748) scale(.014 -.014)" d="m143 317q-25 0-43.5 16.5t-18.5 47.5q0 46 28.5 75t74.5 43.5 98 14.5q87 0 133.5-37t46.5-114l-89 13q0 47-28 71t-84 24q-33 0-62.5-9.5t-48.5-28.5-23-50l-2 28q32 0 52-11t20-36q0-22-14-34.5t-40-12.5zm347-326q-54 0-81 31t-27 87v59h-10v137h-4l5 35v36l89-13v-257q0-22 11-36.5t32-14.5q22 0 33 14.5t11 36.5v211h51v-207q0-55-27-87t-83-32zm-291 0q-72 0-114.5 36t-42.5 95q0 44 19 72.5t53.5 46.5 78.5 29l81 19q31 8 53 17t34 25 12 43l4-69h-5q-8-19-28-31t-58-23l-47-12q-32-9-54-21.5t-33.5-31-11.5-45.5q0-40 26.5-62.5t68.5-22.5q37 0 68 16.5t50 53 19 96.5l19-5q1-79-22.5-129t-67-73.5-102.5-23.5z"/><path transform="translate(45.682 13.748) scale(.014 -.014)" d="m232-186q-77 0-121.5 26.5t-44.5 81.5q0 33 17.5 54t45 32.5 57.5 13.5l5-8q-11-5-24-15t-21.5-24.5-8.5-34.5q0-40 29-60.5t83-20.5h111q42 0 67.5 11.5t37 31 11.5 42.5q0 32-20 48.5t-58 16.5h-230q-61 0-99.5 30.5t-38.5 80.5q0 37 18 61.5t48.5 37.5 67.5 13l5-21q-30-2-49-17t-19-45q0-28 18.5-44.5t54.5-16.5h246q69 0 105-31.5t36-85.5q0-45-21.5-80.5t-65.5-56-114-20.5zm58 360q-64 0-112 20t-74 57.5-26 89.5q0 78 58 122t157 44l109-49q36-10 65-40.5t29-85.5q0-73-55.5-115.5t-150.5-42.5zm0 42q53 0 84 34t31 91q0 56-31 90t-84 34q-52 0-83-34t-31-90q0-57 31-91t83-34zm112 242-109 49h273v-49z"/><path transform="translate(54.026 13.748) scale(.014 -.014)" d="m250-8q-46 0-81.5 16.5t-56 52-20.5 90.5v304h-73v48h168v-352q0-49 26-73t70-24q34 0 63.5 15.5t48 49 18.5 86.5l19 1q0-72-21-119.5t-61.5-71-99.5-23.5zm175 8v167l-12-2v290h-84v48h180v-455h83v-48z"/><path transform="translate(65.548 13.748) scale(.014 -.014)" d="m393-13q-70 0-131 26t-104 82.5-60 147.5h27q22-67 60.5-112.5t89-68.5 108.5-23q70 0 108.5 32.5t38.5 92.5q0 42-20 66.5t-54 38-75 20.5l-80 15q-66 11-118.5 33.5t-83 63-30.5 105.5 28 106.5 78.5 61.5 115.5 20 121.5-24.5 97.5-78.5 57-143h-27q-29 98-93 147t-143 49q-70 0-108.5-30.5t-38.5-88.5q0-39 18.5-63t50.5-37.5 73-21.5l79-14q70-11 124.5-33.5t86-62.5 31.5-107q0-66-28-110.5t-79-66.5-120-22zm-321 13v243h26l27-48v-195zm495 448-27 47v187h53v-234z"/><path transform="translate(75.04 13.748) scale(.014 -.014)" d="M15 0V48H106V634H22V682H202V48H285V0Z"/><path transform="translate(79.254 13.748) scale(.014 -.014)" d="m143 317q-25 0-43.5 16.5t-18.5 47.5q0 46 28.5 75t74.5 43.5 98 14.5q87 0 133.5-37t46.5-114l-89 13q0 47-28 71t-84 24q-33 0-62.5-9.5t-48.5-28.5-23-50l-2 28q32 0 52-11t20-36q0-22-14-34.5t-40-12.5zm347-326q-54 0-81 31t-27 87v59h-10v137h-4l5 35v36l89-13v-257q0-22 11-36.5t32-14.5q22 0 33 14.5t11 36.5v211h51v-207q0-55-27-87t-83-32zm-291 0q-72 0-114.5 36t-42.5 95q0 44 19 72.5t53.5 46.5 78.5 29l81 19q31 8 53 17t34 25 12 43l4-69h-5q-8-19-28-31t-58-23l-47-12q-32-9-54-21.5t-33.5-31-11.5-45.5q0-40 26.5-62.5t68.5-22.5q37 0 68 16.5t50 53 19 96.5l19-5q1-79-22.5-129t-67-73.5-102.5-23.5z"/><path transform="translate(88.088 13.748) scale(.014 -.014)" d="m357-10q-68 0-113.5 32.5t-68 91-22.5 136.5l5 2q0 80 21.5 138.5t65.5 90.5 113 32q64 0 113-30.5t76.5-88.5 27.5-143q0-83-27.5-141.5t-76.5-89-114-30.5zm-32 55q44 0 77 24.5t51.5 70.5 18.5 111q0 66-18.5 112.5t-51.5 70.5-77 24q-45 0-78.5-24t-52.5-70.5-19-112.5q0-65 19-111t52.5-70.5 78.5-24.5zm-240-45v635h-82v47h178v-326l-18-102 11-105v-149z"/></svg>