<svg width="197.49" height="20.8" viewBox="0 0 197.49 20.8" xmlns="http://www.w3.org/2000/svg"><path transform="translate(0 15.2) scale(.016 -.016)" d="m0 0v27q11 1 19.5 10t8.5 21v483q0 14-9.5 22.5t-18.5 8.5v27h243v-27q-18-1-18-15 0-8 9-25l146-275 147 275q9 15 9 25 0 14-18 15v27h243v-27q-9 0-18.5-8.5t-9.5-22.5v-483q0-12 8.5-21t19.5-10v-27h-176v27q11 1 19.5 9.5t8.5 21.5v381l-232-437h-1l-232 437v-381q0-13 8.5-21.5t19.5-9.5v-27z"/><path transform="translate(13.584 15.2) scale(.016 -.016)" d="m283-9q-136 0-213 75-70 70-70 180 0 113 70 180 77 74 213 75 137-1 213-75 69-68 71-180-2-111-71-180-76-75-213-75zm0 82q73 0 123 50 51 51 51 123 0 74-51 123-49 51-123 51-72 0-122-51-51-49-51-123 0-72 51-123 50-50 122-50z"/><path transform="translate(23.792 15.2) scale(.016 -.016)" d="m0 0v22q10 2 16.5 9t6.5 17v397q0 11-7.5 18t-15.5 7v23h164v-22q-15-3-15-16 0-10 10-19l263-274v283q0 12-7.5 18.5t-15.5 6.5v23h145v-23q-8 0-15.5-6.5t-7.5-18.5v-397q0-11 6.5-18t16.5-8v-22h-164v21q15 5 15 17 0 8-10 19l-263 274v-283q0-10 6.5-17t16.5-9v-22z"/><path transform="translate(33.904 15.2) scale(.016 -.016)" d="m165 0v22q8 1 15.5 8t7.5 18v364h-140q-11 0-17.5-6.5t-8.5-16.5h-22v127h22q1-10 8-16.5t18-6.5h388q10 0 17.5 6.5t7.5 16.5h23v-127h-23q-2 10-8.5 16.5t-16.5 6.5h-141v-364q0-11 7.5-18t15.5-8v-22z"/><path transform="translate(42.8 15.2) scale(.016 -.016)" d="m459-23q-2 10-9 16.5t-17 6.5h-433v22q10 2 16.5 9t6.5 17v397q0 11-7.5 18t-15.5 7v23h425q10 0 17 6.5t9 16.5h22v-127h-22q-2 10-9 16.5t-17 6.5h-294v-125h168q11 0 17 6.5t8 16.5h22v-127h-22q-1 9-7.5 16t-17.5 7h-168v-125h302q11 0 18 7t8 16h22v-127z"/><path transform="translate(51.632 15.2) scale(.016 -.016)" d="m0 0v22q10 2 16.5 9t6.5 17v397q0 11-7.5 18t-15.5 7v23h164v-22q-15-3-15-16 0-10 10-19l263-274v283q0 12-7.5 18.5t-15.5 6.5v23h145v-23q-8 0-15.5-6.5t-7.5-18.5v-397q0-11 6.5-18t16.5-8v-22h-164v21q15 5 15 17 0 8-10 19l-263 274v-283q0-10 6.5-17t16.5-9v-22z"/><path transform="translate(61.744 15.2) scale(.016 -.016)" d="m459-23q-2 10-9 16.5t-17 6.5h-433v22q10 2 16.5 9t6.5 17v397q0 11-7.5 18t-15.5 7v23h425q10 0 17 6.5t9 16.5h22v-127h-22q-2 10-9 16.5t-17 6.5h-294v-125h168q11 0 17 6.5t8 16.5h22v-127h-22q-1 9-7.5 16t-17.5 7h-168v-125h302q11 0 18 7t8 16h22v-127z"/><path transform="translate(70.576 15.2) scale(.016 -.016)" d="m300-9q-139 2-220 71-80 69-80 184 0 113 80 184t220 71q91 0 158-35 5-3 12-6.5t14-3.5q5 0 10 2t9 8l19-11-65-110-19 12q3 6 3 11 0 15-27 30-36 19-114 22-85 0-140-50-52-49-52-124t52-124q53-51 140-51 86 0 136 35v71h-75q-13 0-19.5-7.5t-6.5-15.5h-22v116h22q0-8 7.5-15.5t18.5-7.5h205v-22q-23-5-23-25v-72q0-20 23-25v-23q-122-89-266-89z"/><path transform="translate(80.8 15.2) scale(.016 -.016)" d="m0 0v22q23 5 23 26v397q0 11-7.5 18t-15.5 7v23h296q76 0 121.5-19t65.5-52.5 20-77.5q0-78-69-120-12-7-30-12l77-164q10-21 35-26v-22h-153v22q13 3 13 14 0 5-3 12l-70 151h-172v-151q0-21 23-26v-22zm131 280h195q32 0 50 16.5t18 48.5-18 49-50 17h-195z"/><path transform="translate(90.448 15.2) scale(.016 -.016)" d="m0 0v22q10 2 16.5 9t6.5 17v397q0 11-7.5 18t-15.5 7v23h154v-23q-8 0-15.5-7t-7.5-18v-397q0-10 6.5-17t16.5-9v-22z"/><path transform="translate(94.32 15.2) scale(.016 -.016)" d="m0 0v22q10 2 16.5 9t6.5 17v397q0 11-7.5 18t-15.5 7v23h164v-22q-15-3-15-16 0-10 10-19l263-274v283q0 12-7.5 18.5t-15.5 6.5v23h145v-23q-8 0-15.5-6.5t-7.5-18.5v-397q0-11 6.5-18t16.5-8v-22h-164v21q15 5 15 17 0 8-10 19l-263 274v-283q0-10 6.5-17t16.5-9v-22z"/><path transform="translate(108.03 15.2) scale(.016 -.016)" d="m365-10q-169 0-269 86-96 84-96 224t96 224q100 86 269 86 115 0 205-48 11-4 18-6 14 0 24 12l23-14-79-133-23 14q4 7 4 14 0 19-33 37-49 25-139 26-105 0-170-62-63-60-63-150t63-150q65-62 170-62t165 42v87h-91q-15 0-23-9t-8-19h-27v141h27q0-10 9-19t22-9h249v-27q-28-6-28-31v-87q0-25 28-31v-27q-145-108-323-109z"/><path transform="translate(120.19 15.2) scale(.016 -.016)" d="m283-9q-136 0-213 75-70 70-70 180 0 113 70 180 77 74 213 75 137-1 213-75 69-68 71-180-2-111-71-180-76-75-213-75zm0 82q73 0 123 50 51 51 51 123 0 74-51 123-49 51-123 51-72 0-122-51-51-49-51-123 0-72 51-123 50-50 122-50z"/><path transform="translate(130.4 15.2) scale(.016 -.016)" d="m165 0v22q8 1 15.5 8t7.5 18v364h-140q-11 0-17.5-6.5t-8.5-16.5h-22v127h22q1-10 8-16.5t18-6.5h388q10 0 17.5 6.5t7.5 16.5h23v-127h-23q-2 10-8.5 16.5t-16.5 6.5h-141v-364q0-11 7.5-18t15.5-8v-22z"/><path transform="translate(139.3 15.2) scale(.016 -.016)" d="m0 0v22q10 2 16.5 9t6.5 17v397q0 11-7.5 18t-15.5 7v23h154v-23q-8 0-15.5-7t-7.5-18v-158h282v158q0 11-7.5 18t-15.5 7v23h154v-23q-8 0-15.5-7t-7.5-18v-397q0-21 23-26v-22h-154v22q10 2 16.5 9t6.5 17v158h-282v-158q0-10 6.5-17t16.5-9v-22z"/><path transform="translate(149.41 15.2) scale(.016 -.016)" d="m0 0v22q10 2 16.5 9t6.5 17v397q0 11-7.5 18t-15.5 7v23h154v-23q-8 0-15.5-7t-7.5-18v-397q0-10 6.5-17t16.5-9v-22z"/><path transform="translate(153.28 15.2) scale(.016 -.016)" d="m312-9q-83 0-138.5 19t-93.5 53q-80 71-80 185 0 115 80 183 82 70 220 70 91 0 158-35 5-3 12-6.5t14-3.5q5 0 10 2t9 8l19-11-65-110-19 12q4 5 4 11t-3 10q-5 9-25 20-38 19-111 22h-3q-58 0-101-22.5t-66.5-62-23.5-90.5q0-72 51-122 52-52 140-52h3q37 1 66 7.5t51 17.5q21 10 21 27 0 6-3 12l19 11 65-109-19-12q-12 14-24 9-13-4-33-15-52-28-134-28z"/><path transform="translate(166.38 15.2) scale(.016 -.016)" d="m345-10q-167 0-259 90-86 84-86 220 0 135 86 219 91 91 258 91 86 0 151-24.5t108-66.5q86-84 86-219 0-136-86-220-91-90-258-90zm-150 160q32-31 71-46.5t79-15.5q41 0 79.5 15.5t69.5 46.5q62 62 62 150 0 87-62 149-31 32-69.5 47t-79.5 15q-40 0-79-15t-71-47q-31-31-46.5-69.5t-15.5-79.5q0-40 15.5-79t46.5-71z"/><path transform="translate(178.54 15.2) scale(.016 -.016)" d="m0 0v22q10 2 16.5 9t6.5 17v397q0 11-7.5 18t-15.5 7v23h164v-22q-15-3-15-16 0-10 10-19l263-274v283q0 12-7.5 18.5t-15.5 6.5v23h145v-23q-8 0-15.5-6.5t-7.5-18.5v-397q0-11 6.5-18t16.5-8v-22h-164v21q15 5 15 17 0 8-10 19l-263 274v-283q0-10 6.5-17t16.5-9v-22z"/><path transform="translate(188.66 15.2) scale(.016 -.016)" d="m459-23q-2 10-9 16.5t-17 6.5h-433v22q10 2 16.5 9t6.5 17v397q0 11-7.5 18t-15.5 7v23h425q10 0 17 6.5t9 16.5h22v-127h-22q-2 10-9 16.5t-17 6.5h-294v-125h168q11 0 17 6.5t8 16.5h22v-127h-22q-1 9-7.5 16t-17.5 7h-168v-125h302q11 0 18 7t8 16h22v-127z"/></svg>