<svg width="45.52" height="19.2" viewBox="0 0 45.52 19.2" xmlns="http://www.w3.org/2000/svg"><path transform="translate(0 15.424) scale(.008 -.008)" d="m174 0v1456h238l475-930 86-204 85 207 478 927h234v-1456h-168v1251l-68-155-500-986h-126l-504 998-60 160v-1268z"/><path transform="translate(15.552 15.424) scale(.008 -.008)" d="m622-22q-159 0-278 66.5t-185.5 186.5-66.5 280q0 161 66 282t185.5 188 277.5 67q157 0 274-67t182-187 65-281q0-160-65-280.5t-182-187.5-273-67zm0 138q158 0 254 108.5t96 286.5q0 179-96.5 287.5t-254.5 108.5q-161 0-260-109.5t-99-288.5q0-177 99-285t261-108z"/><path transform="translate(25.392 15.424) scale(.008 -.008)" d="m622-22q-159 0-278 66.5t-185.5 186.5-66.5 280q0 161 66 282t185.5 188 277.5 67q157 0 274-67t182-187 65-281q0-160-65-280.5t-182-187.5-273-67zm0 138q158 0 254 108.5t96 286.5q0 179-96.5 287.5t-254.5 108.5q-161 0-260-109.5t-99-288.5q0-177 99-285t261-108z"/><path transform="translate(35.232 15.424) scale(.008 -.008)" d="m720 35q-101-44-199.5-51.5t-178 24-127 104-47.5 188.5v1196l164 30v-1234q0-104 54-146t137.5-36.5 171.5 42.5z"/><path transform="translate(40.72 15.424) scale(.008 -.008)" d="m434-5q-71 0-132 27t-98 89-37 167v748h165v-743q0-105 37-135t88-30q23 0 60 6.5t63 16.5l20-111q-37-15-84-25t-82-10zm-270 1243v179h176v-179z"/></svg>