<svg width="81.04" height="23.168" viewBox="0 0 81.04 23.168" xmlns="http://www.w3.org/2000/svg"><path transform="translate(0 18.56) scale(.016 -.016)" d="M93 0V730H197L459 260H461L723 730H827V0H747V606H745L499 165H421L175 606H173V0Z"/><path transform="translate(19.312 18.56) scale(.016 -.016)" d="m93 0v730h239q162 0 238.5-59.5t76.5-185.5q0-125-74.5-185.5t-230.5-60.5h-209v74h201q122 0 176.5 41t54.5 131-54.5 131-176.5 41h-161v-657z"/><path transform="translate(30.16 18.56) scale(.016 -.016)" d="M93 0V730H175V73H630V0Z"/><path transform="translate(40.64 18.56) scale(.016 -.016)" d="m388-10q-149 0-226.5 65.5t-77.5 191.5v483h80v-470q0-66 24-110t74-65.5 126-21.5 125.5 21.5 73.5 65.5 24 110v470h80v-483q0-126-77.5-191.5t-225.5-65.5z"/><path transform="translate(53.04 18.56) scale(.016 -.016)" d="m330-10q-73 0-145.5 14t-122.5 38l21 73q35-15 78-27t88.5-18.5 88.5-6.5q98 0 151 34.5t53 95.5q0 35-16 58t-46 39-71.5 28-90.5 24q-53 13-99 29t-80.5 39.5-54 57.5-19.5 81q0 92 75.5 141.5t211.5 49.5q47 0 94-5.5t88.5-16 72.5-24.5l-21-73q-46 21-110.5 33.5t-127.5 12.5q-96 0-147.5-30t-51.5-89q0-32 15-54t43.5-37.5 67-27 85.5-23.5q56-14 104-30.5t84.5-40.5 57-58.5 20.5-84.5q0-95-77.5-148.5t-218.5-53.5z"/><path transform="translate(68.64 18.56) scale(.016 -.016)" d="m388-10q-149 0-226.5 65.5t-77.5 191.5v483h80v-470q0-66 24-110t74-65.5 126-21.5 125.5 21.5 73.5 65.5 24 110v470h80v-483q0-126-77.5-191.5t-225.5-65.5z"/></svg>