<svg width="66.29" height="20.272" viewBox="0 0 66.29 20.272" xmlns="http://www.w3.org/2000/svg"><path transform="translate(0 16.24) scale(.014 -.014)" d="M53 0 144 730H245L439 178H441L635 730H736L827 0H745L678 609H676L484 80H396L204 609H202L135 0Z"/><path transform="translate(16.338 16.24) scale(.014 -.014)" d="m93 726q38 5 73.5 8t67.5 4.5 58 1.5q162 0 238.5-59.5t76.5-185.5q0-124-74.5-184.5t-230.5-60.5q-35 0-73 3.5t-96 10.5l3 73q57-8 92-11t66-3q123 0 177 40.5t54 131.5-54 131.5-177 40.5q-35 0-76.5-3t-85.5-11l41 44v-697h-80z"/><path transform="translate(25.27 16.24) scale(.014 -.014)" d="M93 0V730H175V73H590V0Z"/><path transform="translate(34.146 16.24) scale(.014 -.014)" d="m368-10q-145 0-214.5 72.5t-69.5 224.5v443h80v-430q0-85 20.5-137t65.5-76 118-24 117.5 24 65 76 20.5 137v430h80v-443q0-152-69-224.5t-214-72.5z"/><path transform="translate(44.436 16.24) scale(.014 -.014)" d="m307-10q-66 0-132.5 14t-112.5 38l22 72q31-15 69.5-26.5t79.5-18 79-6.5q88 0 135.5 34t47.5 96q0 35-14.5 58.5t-41.5 39-64.5 27.5-81.5 24q-48 13-89 29.5t-72.5 40-49 57-17.5 80.5q0 92 69 141.5t194 49.5q64 0 127.5-12.5t106.5-33.5l-22-72q-42 20-99 32.5t-114 12.5q-87 0-133-31t-46-88q0-33 14-55t39.5-37 60-26.5 77.5-23.5q50-14 93.5-30.5t76-40.5 51.5-58.5 19-84.5q0-95-71.5-148.5t-200.5-53.5z"/><path transform="translate(57.428 16.24) scale(.014 -.014)" d="m69 73q112 87 188 153t121.5 118 66 95.5 20.5 84.5q0 143-159 143-112 0-228-80l-27 70q115 83 266 83 113 0 171.5-52.5t58.5-154.5q0-48-19-96.5t-60.5-102.5-109.5-117.5-166-141.5v-2h363v-73h-486z"/></svg>