<svg width="81.136" height="22.32" viewBox="0 0 81.136 22.32" xmlns="http://www.w3.org/2000/svg"><path transform="translate(0 17.2) scale(.016 -.016)" d="M85 0V730H166L426 290H428L688 730H772V0H692V596H690L464 217H390L164 596H162V0Z"/><path transform="translate(18.352 17.2) scale(.016 -.016)" d="m85 724q104 16 203 16 136 0 206.5-57.5t70.5-164.5q0-116-71-176t-206-60q-66 0-123 6v-288h-80zm80-370q58-8 117-8 99 0 151.5 43t52.5 123-51.5 121.5-152.5 41.5q-55 0-117-10z"/><path transform="translate(27.952 17.2) scale(.016 -.016)" d="M168 730V68H525V0H85V730Z"/><path transform="translate(37.312 17.2) scale(.016 -.016)" d="m530 283v447h78v-443q0-146-68.5-221.5t-197.5-75.5-198 75.5-69 221.5v443h81v-447q0-225 187-225t187 225z"/><path transform="translate(48.24 17.2) scale(.016 -.016)" d="m287 675q-69 0-107-30.5t-38-84.5q0-97 142-140 124-36 176.5-90t52.5-140q0-97-60.5-148.5t-172.5-51.5q-124 0-220 63l24 66q87-62 196-62 74 0 113.5 34t39.5 99q0 60-33.5 95.5t-117.5 61.5q-219 65-219 213 0 82 59.5 131t164.5 49q113 0 210-47l-20-62q-87 44-190 44z"/><path transform="translate(62.048 17.2) scale(.016 -.016)" d="M311 0V634H309L112 452L81 517L311 730H391V0Z"/><path transform="translate(71.968 17.2) scale(.016 -.016)" d="m318-10q-113 0-168 91h-2v-301h-73v740h70l1-88h2q55 98 170 98 98 0 154-69.5t56-200.5q0-128-57.5-199t-152.5-71zm138 270q0 102-40.5 156t-113.5 54q-69 0-111.5-54t-42.5-149v-14q0-97 43-150t111-53q71 0 112.5 54.5t41.5 155.5z"/></svg>