<svg width="65.6" height="19.376" viewBox="0 0 65.6 19.376" xmlns="http://www.w3.org/2000/svg"><path transform="translate(0 14.304) scale(.016 -.016)" d="m162 0q-36 0-54.5 8.5t-26 20-8 20-0.5 8.5-3 30-8 77.5-10.5 102-11 105-8.5 86-4 44.5q-1 26 11.5 45.5t61.5 22.5q33 2 53-10t29-24.5 9-12.5l94-228 37-69-23 190t0.5 33 3.5 79q2 23 15 35t29.5 17 29 5.5 12.5 0.5 11.5-1 26.5-8.5 26.5-26 10.5-53.5q-1-43 3-97.5t10.5-111.5 13-106.5 12-82.5 6.5-41q2-12 1-29t-15.5-30-53.5-14q-39 0-58 9t-25.5 18.5-6.5 9.5l-150 269t4-20 9.5-52 11-69 8.5-71-7.5-50.5-26-22.5-27.5-6-12 0z"/><path transform="translate(8.608 14.304) scale(.016 -.016)" d="m425 302q-3-50-28-80.5t-60.5-46-70.5-21-58.5-5.5-23.5 0q6-35 17-50t24.5-17 25.5 2.5 19.5 10.5 7.5 6 11 9 34.5 17.5 59.5 8.5q41 0 55.5-10.5t14-24-6-24-5.5-10.5-8.5-9.5-30.5-22.5-61-23.5-100-11.5q-59-1-99 16t-66 44.5-39.5 58-19 57-5.5 41.5 2.5 39 13 50.5 32.5 50.5 60.5 39 98.5 16q75 1 117-13t61-34 23.5-38 4.5-25zm-255-84q61 5 91 26t35 47-9.5 44.5-43.5 16.5q-29-1-44-21.5t-21-47-7-46-1-19.5z"/><path transform="translate(16.304 14.304) scale(.016 -.016)" d="m65 68q0 11-3 38t-7.5 61.5-9.5 69-10.5 62-9.5 39.5q-10 30 11.5 42.5t60.5 16.5 56.5-5.5 17.5-9.5q15 15 49.5 21t72.5 5q49-1 71-15t22-30q0-12-3-18t-23.5-11.5-73.5-18.5q-31-7-46-33.5t-18.5-61-0.5-68 7-56 4-24.5 1.5-13.5-3-25-21.5-23.5-54-10-56 10.5-26 23.5-7.5 23.5-0.5 10.5z"/><path transform="translate(22.832 14.304) scale(.016 -.016)" d="m72 53t-2 19.5-6 51-9.5 67.5-12.5 69.5-15 57.5q-10 30-3 45.5t21.5 21.5 27 6.5 12.5 0.5 14 0.5 33-3.5 35-16 20-38q6-34 8-43t2.5-6.5 0.5 2.5l113 103t11.5 8.5 37 13 66.5-7.5q29-8 33.5-21t-3-24-12.5-16q-3-3-18-17.5t-35.5-34-40.5-38.5-33-32-13-13l161-112t9.5-7.5 17.5-19.5 5.5-25.5-27.5-25.5-48.5-9.5-42 11.5-29.5 17-11 8l-114 79 7-82t-2-10.5-17.5-21.5-54.5-11-57 13.5-23.5 26.5-5.5 13z"/><path transform="translate(31.168 14.304) scale(.016 -.016)" d="m234 406q37 3 57-8t24-13q10-5 18.5-11t8.5-6 15-5 35-23.5 37-57.5 20-106q2-45-14-75.5t-42.5-50-57-30-58-14.5-45-5-17.5-1-19.5 0-48.5 6.5-57.5 26-47 57.5-16.5 101 23.5 103.5 52 63.5 61 33 51 12.5 20.5 2.5zm4-98t-12.5-16-25-45-12.5-68q0-38 9-60t19.5-31.5 16.5-9.5 19.5 5.5 24.5 25.5 10 63q-1 36-7.5 58t-17 39.5-24.5 38.5z"/><path transform="translate(42.752 14.304) scale(.016 -.016)" d="m25 291q0 80 28 146.5t76 106 106 39.5q43 0 82-22.5t69-63 47-93.5 17-113-17-113-47-93.5-69-63-82-22.5q-58 0-106 39.5t-76 105.5-28 147zm153 4q0-58 8-106.5t22-77 31-28.5 31 28.5 22 77 8 106.5q0 59-8 107t-22 77-31 29-31-29-22-77-8-107z"/><path transform="translate(50.352 14.304) scale(.016 -.016)" d="m136 0t-13 0-29.5 4-29.5 16-15 35q-1 19-4 54t-6.5 76.5-6.5 79-5 61.5-2 24 1 8.5 7.5 19.5 23 20 46.5 10 47-6 24.5-16.5 9-17 1.5-7.5 18.5 9.5 48 19.5 62.5 12q5 0 19.5 0t32-6.5 35-24.5 29.5-52.5 14-90.5q3-70 4.5-115t-3-69.5-20-34-48.5-9.5q-32 0-47 9t-19 21.5-4 22.5q0 6 2 32.5t3 61-0.5 68-8 55-20.5 20.5q-17-1-31.5-12.5t-25.5-26-17-25-6-10.5l10-151t0-10-6-22.5-22.5-22.5-48.5-10z"/><path transform="translate(57.904 14.304) scale(.016 -.016)" d="m425 302q-3-50-28-80.5t-60.5-46-70.5-21-58.5-5.5-23.5 0q6-35 17-50t24.5-17 25.5 2.5 19.5 10.5 7.5 6 11 9 34.5 17.5 59.5 8.5q41 0 55.5-10.5t14-24-6-24-5.5-10.5-8.5-9.5-30.5-22.5-61-23.5-100-11.5q-59-1-99 16t-66 44.5-39.5 58-19 57-5.5 41.5 2.5 39 13 50.5 32.5 50.5 60.5 39 98.5 16q75 1 117-13t61-34 23.5-38 4.5-25zm-255-84q61 5 91 26t35 47-9.5 44.5-43.5 16.5q-29-1-44-21.5t-21-47-7-46-1-19.5z"/></svg>