<svg width="37.188" height="14.752" viewBox="0 0 37.188 14.752" xmlns="http://www.w3.org/2000/svg"><path transform="translate(0 10.76) scale(.013672 -.013672)" d="m41 28 13 692h54l327-621v79q0 302 11 543l57-11q11-217 18-715-21-9-44-9-34 0-71 20-61 94-151.5 275t-128.5 248q1-68 1.5-248t3.5-273q-9-31-35-31-18 0-34.5 15t-20.5 36z"/><path transform="translate(7.6836 10.76) scale(.013672 -.013672)" d="m444 97 10-44q-44-16-130.5-35.5t-128.5-19.5q-43 0-75 28.5t-48 73-23.5 88-7.5 85.5q0 250 226 250 54 0 95-34.5t41-89.5q0-30-16.5-53t-40-36.5-60-24.5-64.5-16-67-11-54-9q1-29 3.5-51t10-47.5 20-42 34.5-27.5 52-11q36 0 88 6.5t92.5 13.5 42.5 7zm-339 214q136 39 223 82-7 33-19 48t-36 15q-61 0-110.5-42t-57.5-103z"/><path transform="translate(13.877 10.76) scale(.013672 -.013672)" d="m338 502 48-9v-10q0-68 8.5-230t15.5-250q-20-8-38-8-16 0-36 5l-8 26q-64-36-122-36-43 0-74.5 20t-48.5 49.5-27 73-12.5 79-2.5 79.5q0 128 16 235l45-10q7-33 7-72 0-22-2.5-76t-2.5-82q0-49 4.5-84.5t17-69 38.5-51.5 65-18q44 0 95 20 2 37 4 189.5t10 229.5z"/><path transform="translate(20.029 10.76) scale(.013672 -.013672)" d="m378 496-5-43q-42 6-72 6-69 0-114-41.5t-61.5-98-16.5-125.5q0-32 4-57t14.5-49 33-37.5 55.5-13.5q44 0 112 17 21 8 33 8 24 0 29-56-88-28-163-28-109 0-147.5 53.5t-38.5 173.5q0 70 9.5 122.5t33.5 98 69.5 69.5 111.5 24q74 0 113-23z"/><path transform="translate(25.498 10.76) scale(.013672 -.013672)" d="m46 720 52-12q3-41 4.5-131t3.5-124q54 57 130 57 68 0 117.5-48t49.5-128v-329q-13-6-33-6-22 0-40 4 0 8 0.5 24.5t0.5 24.5q0 39-3 134.5t-3 159.5q-15 92-93 92-34 0-67-18.5t-48-43.5q3-63 4-190t3-183q-24-4-41-4-25 0-42 6 2 49 2 155 0 47-1 172.5t-0.5 216 4.5 171.5z"/><path transform="translate(31.568 10.76) scale(.013672 -.013672)" d="m77 432-20 51q26 26 66 41.5t79 15.5q169 0 169-292 0-40-4.5-118t-4.5-117q-8-31-31-31-18 0-33 18t-15 40q0 7 1 10-62-60-132-60-53 0-92.5 38.5t-39.5 93.5q0 93 72.5 168t164.5 75q4 0 8-0.5t9.5-1.5 8.5-1q-8 117-93 117-50 0-113-47zm209-313q2 70 2 106 0 30-2 84h-8q-71-1-129.5-53t-58.5-126q0-32 19.5-51t47.5-19q44 0 129 59z"/></svg>