<svg width="96.75" height="27.844" viewBox="0 0 96.75 27.844" xmlns="http://www.w3.org/2000/svg"><path transform="translate(0 17.469) scale(.0078125 -.0078125)" d="m537-310 24 271q0 32-36 53-59 33-144 33-114 0-157-45-19-20-19-58.5t23-134.5 23-135.5-14.5-63-42.5-23.5-43 23.5-15 63.5 24.5 138 24.5 148l-1 1226q0 118-72 197l21 21q81-72 197-72h299q64 0 108.5 15.5t71.5 61.5l33-16q-26-62-26-117 0-45 158-226 206-236 265-317t77-131h60q-49 72-49 203 0 61 15 182.5t15 182.5q0 164-104 213l21 21q81-72 197-72h205q116 0 197 72l20-21q-71-80-71-197l-2-1221q0-43 20-128.5t20-128.5q0-64-49-64t-49 64q0 42 19 123.5t19 112-20 43.5-39 13h-395q-84 0-84-153 0-63 23.5-182.5t23.5-180.5q0-87-65-87t-65 88q0 56 25.5 163t26.5 161l2 133q3 93-19 121l-479 607q-19 25-42 104l-61-2q52-54 52-120v-571l19-506q0-16-9.5-27.5t-26-11.5-27.5 13.5-11 30.5l12 384q0 12-9 22t-21 10q-26 0-26-40t13.5-131 13.5-125q0-76-37.5-76t-37.5 66z"/><path transform="translate(15.695 17.469) scale(.0078125 -.0078125)" d="m1011-162 7 96q0 25-24 38.5t-52 13.5-50-15-22-43v-230q0-50 21-147t21-138.5-18-68.5-49.5-27-47.5 28-16 73 23 156 23 172q0 247-92 247-124 0-124 10v-2q0-69 30.5-202.5t30.5-191.5-21-95.5-64.5-37.5-68 36-24.5 93.5 29 197 29 211.5q-237 75-356.5 245t-119.5 420q0 518 522 654 169 44 349.5 44t307-20 245-70.5 202-128 133.5-200 50-279.5q0-320-180-495.5t-506-215.5q-4-7-4-22l5-55q0-51-28-51t-28 49l3 56q0 30-43 30-4-9-4-34l5-97q0-30-11-58t-37-28q-46 0-46 82zm-378 838q0-366 348-366t348 366q0 168-90 257t-258 89-258-89-90-257z"/><path transform="translate(31.211 17.469) scale(.0078125 -.0078125)" d="m762-292 10 101v187q-269 14-402 73.5t-196 149.5q-38 53-58.5 118.5t-67.5 98.5l15 21q45-30 97.5-30t134.5 4 185 9.5 147 7.5 65 12.5 30 38.5l45-15q-3-8-3-21 0-33 55-75t199-42q97 0 138 33 18 15 18 36 0 49-54 65t-130.5 27.5-153 18.5-165.5 20-168 28.5-153.5 45.5-127.5 70.5-85.5 104-32.5 144.5 25.5 148 69.5 115 106.5 85 131 60 149.5 37q141 26 266 26t190.5-3.5 154-13 160-31 141.5-54.5q146-68 205-211 24-51 66-95l-13-23q-42 29-97 29h-13q-80-3-228.5-11.5t-191-10.5-61-12-26.5-38l-44 12q3 9 3 19 0 42-68 72.5t-154 30.5q-168 0-168-66 0-59 252-86 59-7 134-14 261-27 400-71 292-92 292-351 0-106-44-190.5t-114.5-137.5-166.5-88q-173-63-395-63-60 0-71 1-54 0-54-83v-24q0-27 13.5-79.5t13.5-78.5q0-53-37-53-19 0-29.5 16t-10.5 40 12.5 81.5 12.5 83.5-0.5 36.5-3 26-8.5 22.5q-14 18-48 18-62 0-62-108l6-164q0-66-19-66t-19 36z"/><path transform="translate(45.953 17.469) scale(.0078125 -.0078125)" d="m638-539 11 266q0 129-9.5 163t-19.5 60-26 42-38 30q-42 28-132 28t-151.5-73-61.5-175q0-38 15-113.5t15-113.5q0-72-51-72t-51 70q0 39 15.5 117t15.5 118l7 268v1175q0 62-39 100l20 21q42-40 100-40h362q60 0 100 40l20-21q-39-39-39-100v-1170q0-52-11-179.5t-7-196.5h-1q37-166 37-253t-33-87q-48 0-48 96z"/><path transform="translate(52.844 17.469) scale(.0078125 -.0078125)" d="m699 413-8-204q0-55 26.5-162.5t26.5-159 17-144.5 17-149.5-48.5-56.5-48.5 55.5 17.5 148 17.5 138.5-32 83.5-76 37.5q-100 0-100-243 0-57 15-171t15-156q0-82-49-82-25 0-38.5 21.5t-13.5 61.5 17.5 146 17.5 154-5.5 90.5-20 91-46 78.5-81 30-89-43-39.5-81.5 14-80.5 14-65q0-44-32.5-44t-32.5 44l24 160-1 1273q0 118-72 197l20 20q80-71 197-71h1154q117 0 197 71l20-20q-71-80-71-180t13-155 58-106l-20-20q-53 71-132 71h-759q-56 0-96 38l-19-19q38-40 38-97t-38-97l19-19q33 32 79.5 41t110.5 9l380-21q93 0 164.5 16t122.5 65l20-20q-75-82-75-227t69-217l-21-20q-91 81-294 81l-374-21q-137 0-187 50l-19-20q37-38 37-100z"/><path transform="translate(66.633 17.469) scale(.0078125 -.0078125)" d="m721 166-16 124v11q21 37 57 37l816-1q61 0 99 39l20-20q-44-44-44-168 0 0 0-58 0-101 44-147l-20-20q-39 39-99 39h-1183q-89 0-131-34-48-40-48-226 0-75 23-221.5t23-220.5q0-107-76-107-82 0-82 110 0 75 33 222t33 223l-5 335v1166q0 62-38 99l20 21q41-39 100-39h1284q61 0 100 39l20-21q-44-44-44-166v-56q0-107 44-150l-20-19q-50 51-235 51l-497-23q-184 0-234 51l-21-20q39-38 39-100.5t-39-100.5l21-19q48 50 202 50l419-23q155 0 205 50l21-20q-44-44-44-169v-56q0-103 44-149l-21-21q-48 50-203 50l-419-22q-154 0-204 50l-20-20q30-30 35-71.5t6-59 0-54-1-43.5l-17-120q0-36 26.5-36t26.5 34z"/><path transform="translate(80.609 17.469) scale(.0078125 -.0078125)" d="m1768-328 22 207q0 126-102.5 192.5t-215.5 59-158-76.5q-23-33-23-78l-5-268q0-55 17-163.5t17-163.5q0-97-55-97t-55 94q0 62 18 178t20.5 176 2.5 256q0 52-32 120t-101 187-113 210l-30 17q-24-44-85-44l-84-3q-86 0-129 42l-21-20q3-37 3-158l-1-245q0-110 4-162l19-147q0-41-28-41t-28 38l16 124q0 45-26.5 71.5t-69 26.5-75-37.5-32.5-97.5 22-162.5 22-147.5q0-94-67-94t-67 92q0 43 19.5 150t19.5 170-29 103.5-66 40.5-63-25.5-26-63.5l27-237q0-61-45-61t-45 62q0 36 19 125.5t18 139.5-1 1294q0 62-38 99l20 20q39-38 99-38h896q210 0 282.5-12.5t127-26.5 92-34.5 76-51 61.5-69.5q53-89 53-189t-15.5-163.5-51.5-119.5q-78-121-274-121l-8-23q63-25 84-69 88-192 130-243.5t78-82.5 103-63 81-41.5 14-15.5q0-100 27-257t27-202-3.5-65-15.5-39.5-35-19.5-34.5 33-11.5 81 13 171.5 13 186.5q0 125-81 125-40 0-59.5-14t-19.5-57.5 18-138.5 18-143.5-37-48.5-37 49zm-666 1332-236-7q-145 0-189 43l-21-19q40-39 40-100v-67q0-60-40-100l21-20q43 44 178 44l253-9q101 0 156.5 26.5t55.5 97.5q0 45-31 70.5t-75 33-112 7.5z"/></svg>