<svg width="84.084" height="18.2" viewBox="0 0 84.084 18.2" xmlns="http://www.w3.org/2000/svg"><path transform="translate(0 16.002) scale(.014 -.014)" d="M28 700H322L614 350V700H674V0H439L89 466V0H28Z"/><path transform="translate(9.828 16.002) scale(.014 -.014)" d="m21 351q0 112 63 192t170.5 121.5 241.5 41.5q133 0 240.5-41.5t170-121.5 62.5-192q0-113-62.5-193.5t-170-121.5-240.5-41q-134 0-242 41t-170.5 121.5-62.5 193.5zm537-259q17 29 23 103 3 39 3 156 0 118-5 167-3 60-22 91-20 38-61 38-42 0-63-38-17-30-22-91-4-52-4-167 0-130 3-156 4-69 22-103 21-38 64-38 42 0 62 38z"/><path transform="translate(23.688 16.002) scale(.014 -.014)" d="M284 641H21V700H898V641H634V0H284Z"/><path transform="translate(36.554 16.002) scale(.014 -.014)" d="M282 700H574L884 0H506L401 232H181L91 0H18ZM373 293 282 496 203 293Z"/><path transform="translate(49.182 16.002) scale(.014 -.014)" d="m36 700h667q51 0 93.5-24.5t67.5-67 25-93.5q0-49-24-93t-64-71q40-28 64-72.5t24-93.5q0-50-25-92.5t-67.5-67.5-93.5-25h-667zm498-190q0 36-17.5 66.5t-48 48.5-66.5 18h-15v-263q5-1 15-1 36 0 66.5 17.5t48 48 17.5 65.5zm0-320q0 35-17.5 65.5t-48 48-66.5 17.5h-15v-262q5-1 15-1 36 0 66.5 17.5t48 48 17.5 66.5z"/><path transform="translate(62.076 16.002) scale(.014 -.014)" d="M28 700H379V60H759V0H28Z"/><path transform="translate(73.108 16.002) scale(.014 -.014)" d="M28 700H755V641H380V382H564V322H380V60H755V0H28Z"/></svg>