<svg width="159.72" height="21.344" viewBox="0 0 159.72 21.344" xmlns="http://www.w3.org/2000/svg"><path transform="translate(0 14.984) scale(.015625 -.015625)" d="m11 23q7 31 24.5 69t38.5 75 41 70.5 32 56.5q6 12 18.5 36.5t28 56 33 65.5 33 65.5 28 56 18.5 36.5q31 32 51.5 18t36.5-57 29-106 28-129 34-126 46-97q13-6 31.5 13t40.5 55.5 46 85.5 48.5 103 47.5 109 43 101.5 34.5 81.5 22.5 49q7 13 14.5 12.5t12.5-8 7.5-19-0.5-20.5q-32-87-60-157t-57.5-135-63-132.5-76.5-149.5q-32-39-62-43.5t-62 43.5q-33 58-52 110t-32.5 102.5-24.5 103-27 113.5q-9 6-30-21t-48.5-72-57.5-101-57-108-48-93-30-57q-5-9-12.5-22t-15-26-13-22-5.5-9h-34q-1 2-1 11t1 12z"/><path transform="translate(12.969 14.984) scale(.015625 -.015625)" d="m79 11q-42 17-52.5 51t0.5 75.5 38 86 60 81.5 66.5 62.5 57.5 28.5q62 8 97.5-8.5t48.5-47.5 7-72.5-26.5-83.5-53-81-72-65.5-83.5-35-88 8.5zm-11 57q8-32 34-35.5t60.5 13 72.5 48 69.5 68.5 52 74.5 20 65.5-27 42.5-88.5 5.5q-14-13-36-31.5t-45.5-40.5-46.5-47.5-40-52.5-24.5-55-0.5-55z"/><path transform="translate(19.688 14.984) scale(.015625 -.015625)" d="m91 11q-1 2-1 11t1 12q3 11 11 38.5t17 58 17 57.5 11 38q4 14 9 32.5t2 35.5q-15 2-37-3.5t-43.5-9-40 0-26.5 23.5q12 25 36 32.5t52 10.5 53.5 9 40.5 27q9 26 21.5 63.5t26.5 78.5 30.5 81 34.5 71q11 7 18 1t10.5-17.5 4.5-23.5 0-16q-6-26-20.5-55.5t-27-59.5-20-60-0.5-57h215q1 0 5-6.5t7-10.5q5-14-11-19t-43-6.5-61.5-2-66-5-56.5-15-34-31.5q-26-67-48-134.5t-42-136.5q-2-3-8-9.5t-13-11-13.5-3.5-10.5 12z"/><path transform="translate(26.406 14.984) scale(.015625 -.015625)" d="m11 23q-1 2-1 5.5t1 5.5q4 8 13.5 27.5t20 41 20.5 40.5 14 27q2 3 10.5 17t21 34.5 27 45.5 29 49 27 45 20.5 35q20 33 46.5 78t54.5 91 55.5 89 50.5 71 39 37 22-12v-32q-7-11-19-28.5t-24.5-37-24.5-37.5-18-28q-9-14-29-45t-45-70-51-81.5-47-79.5-33.5-63.5-9.5-33.5q24 7 51.5 25.5t55.5 39.5 56 40.5 52 30.5q24-3 42-18t26-38q-1-9-1.5-33.5t-0.5-51.5 0.5-51 1.5-33q1-11 10-27.5t19.5-33 19-28.5 7.5-13q-20-7-38-0.5t-31.5 21-22 33-10.5 36.5q-1 9-3 33.5t-3.5 51.5-3 51-1.5 33l-23 12q-6 3-20.5-5t-33.5-22-40-32-39.5-34-31.5-28-16-15q-8-8-29-28.5t-44.5-44-44-44.5-28.5-30q-14-3-26.5-2.5t-19.5 14.5z"/><path transform="translate(35.062 14.984) scale(.015625 -.015625)" d="m11 11q41 132 74.5 209.5t56 108.5 30.5 20-1.5-56-40-120.5-85.5-172.5q-8-3-19-1t-15 12zm175 481q-2 5-2 18t2 16q23 8 35 2t15-17.5-0.5-24.5-11.5-19.5-18.5-2-19.5 27.5z"/><path transform="translate(39.031 14.984) scale(.015625 -.015625)" d="m390 11q-3 33 5.5 65.5t23 64 31 63 28.5 62 17 60-4 58.5q-25 9-57.5-4t-68.5-39.5-74.5-62-75-72-69.5-69.5-59.5-54.5-44.5-27-24 12.5q-1 1 11.5 25.5t31 61.5 41 80 42.5 80.5 35 63.5 19 28q21-14 21.5-30.5t-5.5-34-13.5-35.5-2.5-36q16 11 44.5 30.5t62 40.5 70 41 68.5 31.5 57.5 12.5 37.5-15 7.5-52.5-31.5-99.5q-3-7-14.5-33.5t-25-57-25-57-14.5-33.5q-1-4-2.5-14.5t-3.5-23-6-24-10-17.5-14 1.5-9 9.5z"/><path transform="translate(48.031 14.984) scale(.015625 -.015625)" d="m-135-282q-31 11-50.5 33t-30 47.5-13 51.5 1 46 12 30.5 19.5 5.5q-1-87 20.5-131.5t56-56 78 5.5 88 52.5 85 85 68.5 103 40 106-1 95.5q-90-65-140-82t-69.5-1.5-12.5 55.5 30 88 58 96.5 72 81.5 71.5 42 57.5-21q23-31 29-83.5t-3-116.5-31.5-134-55.5-136.5-75.5-123.5-91.5-95-103-51.5-110 7.5zm204 496q-1-3-1.5-11t-0.5-17 0.5-17 1.5-11q32-8 66 15t62.5 59 48 76 24 67-10.5 30.5-55-32.5q-12-11-32-30t-40.5-41-38-45.5-24.5-42.5z"/><path transform="translate(62.094 14.984) scale(.015625 -.015625)" d="m56-128q-12 30-3 63t29 69.5 47 75.5 51 80.5 40 85.5 16 89q-4 9-18 30.5t-33 50-41 61.5-42.5 64.5-37 60-24.5 47.5-5 26.5 21-1.5q14-13 35-41.5t43.5-64 46-73 43.5-67 35-47 22-12.5q10 20 29.5 63.5t42.5 95 47.5 103 46 87.5 38 48.5 22.5-13.5q4-15-9-52.5t-37-90-56.5-117-68-133.5-71-138.5-66.5-133-54-116.5-33-89q-3-10-9.5-19.5t-14.5-13.5-16.5 0.5-15.5 21.5z"/><path transform="translate(68.375 14.984) scale(.015625 -.015625)" d="m79 11q-42 17-52.5 51t0.5 75.5 38 86 60 81.5 66.5 62.5 57.5 28.5q62 8 97.5-8.5t48.5-47.5 7-72.5-26.5-83.5-53-81-72-65.5-83.5-35-88 8.5zm-11 57q8-32 34-35.5t60.5 13 72.5 48 69.5 68.5 52 74.5 20 65.5-27 42.5-88.5 5.5q-14-13-36-31.5t-45.5-40.5-46.5-47.5-40-52.5-24.5-55-0.5-55z"/><path transform="translate(75.094 14.984) scale(.015625 -.015625)" d="m430 11q-27 11-43 29t-25 41-14 48.5-9 51.5q-9 6-32-11.5t-53-43.5-64.5-53.5-66.5-40.5-58.5-5-41.5 52q-5 15 3.5 43.5t25.5 62.5 39.5 70.5 44 68 40 54 28.5 29.5q23-11 20.5-33.5t-18-51.5-40-62-46-65.5-34.5-62.5-7-53q22-9 54.5 9.5t70 51.5 77 75.5 73.5 82 60 69.5 38 40q21-10 21-32.5t-11.5-51.5-28-62.5-28.5-66.5-14-63 16-52l34-40h101q7 0 3-6t-11.5-13-15.5-13.5-9-6.5q-26-5-42-1.5t-37 12.5z"/><path transform="translate(92.5 14.984) scale(.015625 -.015625)" d="m107 11q-61 24-84 65t-18.5 91.5 32 108 68 115.5 89.5 113 97 101 90 80 68 50q36 22 60 21.5t38.5-15 20-40 5-54-6-57-14-49.5-18-31-18.5-1q-1 8 2 24.5t7.5 37.5 8.5 43 5.5 40.5-1 31.5-11.5 15q-35 9-83.5-16.5t-101-73-104-110-93.5-128.5-69-128.5-30.5-110 21-73 86.5-16.5q57 8 105.5 40.5t94 72 90.5 78 94 58.5q18 7 28.5-5t5.5-29q-6-17-35.5-45t-73-58.5-95.5-61-101.5-52.5-92-32-66.5 0z"/><path transform="translate(102.39 14.984) scale(.015625 -.015625)" d="m79 11q-42 17-52.5 51t0.5 75.5 38 86 60 81.5 66.5 62.5 57.5 28.5q62 8 97.5-8.5t48.5-47.5 7-72.5-26.5-83.5-53-81-72-65.5-83.5-35-88 8.5zm-11 57q8-32 34-35.5t60.5 13 72.5 48 69.5 68.5 52 74.5 20 65.5-27 42.5-88.5 5.5q-14-13-36-31.5t-45.5-40.5-46.5-47.5-40-52.5-24.5-55-0.5-55z"/><path transform="translate(109.11 14.984) scale(.015625 -.015625)" d="m430 11q-27 11-43 29t-25 41-14 48.5-9 51.5q-9 6-32-11.5t-53-43.5-64.5-53.5-66.5-40.5-58.5-5-41.5 52q-5 15 3.5 43.5t25.5 62.5 39.5 70.5 44 68 40 54 28.5 29.5q23-11 20.5-33.5t-18-51.5-40-62-46-65.5-34.5-62.5-7-53q22-9 54.5 9.5t70 51.5 77 75.5 73.5 82 60 69.5 38 40q21-10 21-32.5t-11.5-51.5-28-62.5-28.5-66.5-14-63 16-52l34-40h101q7 0 3-6t-11.5-13-15.5-13.5-9-6.5q-26-5-42-1.5t-37 12.5z"/><path transform="translate(118.11 14.984) scale(.015625 -.015625)" d="m57 11q-29 21-37.5 53t-2.5 69.5 21.5 77.5 34 77 36 68 27.5 51q3 6 14.5 29t24.5 50 24.5 50.5 14.5 29.5q3 5 8.5 19.5t12.5 31.5 15.5 32.5 18 22.5 19 2 18.5-30q-4-10-19.5-40t-36.5-72-46.5-93-49.5-103-45-101.5-34.5-90-16-67 9.5-32.5q14-7 36.5-5.5t46.5 5.5 47 8.5 40 3.5q4-9-6-17.5t-28-15-41.5-11-45-6.5-38-1-22.5 5z"/><path transform="translate(123.23 14.984) scale(.015625 -.015625)" d="m430 23q-38 26-55 64.5t-25 82.5h-11q-81-66-140.5-99t-100.5-40.5-64 6.5-29.5 40.5 2.5 62.5 31 72.5 57 69.5 80.5 54 101 26.5 119.5-12.5l11 12 135 271q27-4 32-24t-0.5-44-16-46.5-15.5-32.5q-3-6-11.5-23t-20-40.5-24.5-49.5-24.5-49.5-20.5-41-11-22.5q-18-37-16.5-78.5t4.5-79.5q4-18 16-29.5t25.5-21 27-18.5 22.5-22q-4-13-16-13.5t-25 4.5-24 12-14 9zm-373 45q4-17 30.5-10t62.5 29.5 76.5 54.5 73 64 51 59 11.5 40q-31 17-69 17t-75.5-13.5-72-38-58-56.5-33-69.5 2.5-76.5z"/><path transform="translate(140.14 14.984) scale(.015625 -.015625)" d="m23 11q-5 15 2 26.5t21 19.5q62 31 121 52.5t116.5 43 114.5 48 116 68.5q131 76 201 142t93 119.5 6 94-59 65.5-102.5 33.5-125.5-1.5-127-39.5-107-81.5q-1-2-3-7t-3.5-10.5-3-11-1.5-6.5q-30-72-56.5-123.5t-50-99-44.5-101-40-129.5q-18-6-25.5 1t-8.5 21.5 3.5 33.5 10.5 37 12 33 8 21q8 23 25 59.5t36 76.5 36 77 26 60q-9 29-3.5 51.5t19.5 41 34 34 40 30.5q57 42 123 65t134.5 25.5 136.5-17.5 128-65q48-40 56.5-87t-13.5-96.5-68.5-100.5-108.5-100-134.5-94.5-145-84-141-68-122-46.5-87.5-20.5-39 10.5z"/><path transform="translate(153 14.984) scale(.015625 -.015625)" d="m79 11q-42 17-52.5 51t0.5 75.5 38 86 60 81.5 66.5 62.5 57.5 28.5q62 8 97.5-8.5t48.5-47.5 7-72.5-26.5-83.5-53-81-72-65.5-83.5-35-88 8.5zm-11 57q8-32 34-35.5t60.5 13 72.5 48 69.5 68.5 52 74.5 20 65.5-27 42.5-88.5 5.5q-14-13-36-31.5t-45.5-40.5-46.5-47.5-40-52.5-24.5-55-0.5-55z"/></svg>