<svg width="156.48" height="20.864" viewBox="0 0 156.48 20.864" xmlns="http://www.w3.org/2000/svg"><path transform="translate(0 14.336) scale(.016 -.016)" d="m663 0h-105l-382 593h-4q2-23 3.5-54.5t3-67 1.5-72.5v-399h-83v714h104l381-591h4q-1 16-2.5 48t-3 70-1.5 70v403h84z"/><path transform="translate(12.16 14.336) scale(.016 -.016)" d="m551 269q0-67-17.5-118.5t-50-87.5-79-54.5-103.5-18.5q-53 0-98 18.5t-78 54.5-51.5 87.5-18.5 118.5q0 89 30 150.5t86 94 133 32.5q73 0 128.5-32.5t87-94 31.5-150.5zm-405 0q0-63 16.5-109.5t51.5-71.5 89-25 89 25 51.5 71.5 16.5 109.5q0 64-17 109t-51.5 69.5-89.5 24.5q-82 0-119-54t-37-149z"/><path transform="translate(21.84 14.336) scale(.016 -.016)" d="m264 62q20 0 41 3.5t34 7.5v-67q-14-7-40-11.5t-50-4.5q-42 0-77.5 14.5t-57.5 50.5-22 101v312h-76v42l77 35 35 114h52v-123h155v-68h-155v-310q0-49 23.5-72.5t60.5-23.5z"/><path transform="translate(27.616 14.336) scale(.016 -.016)" d="m551 269q0-67-17.5-118.5t-50-87.5-79-54.5-103.5-18.5q-53 0-98 18.5t-78 54.5-51.5 87.5-18.5 118.5q0 89 30 150.5t86 94 133 32.5q73 0 128.5-32.5t87-94 31.5-150.5zm-405 0q0-63 16.5-109.5t51.5-71.5 89-25 89 25 51.5 71.5 16.5 109.5q0 64-17 109t-51.5 69.5-89.5 24.5q-82 0-119-54t-37-149z"/><path transform="translate(41.456 14.336) scale(.016 -.016)" d="m502 191q0-64-31-108.5t-88.5-68.5-135.5-24q-40 0-76.5 4t-66.5 11.5-53 18.5v86q36-16 89.5-29t110.5-13q53 0 89 14t54 40 18 61-15 59-51.5 44.5-101.5 43.5q-46 17-80.5 36.5t-57.5 44.5-34.5 57-11.5 74q0 57 29 97.5t80.5 62.5 118.5 22q59 0 108-11t89-29l-28-77q-37 16-80.5 27t-90.5 11q-45 0-75-13t-45-36.5-15-54.5q0-36 15-60t49-43 92-41q63-23 106.5-49.5t66-63.5 22.5-93z"/><path transform="translate(50.24 14.336) scale(.016 -.016)" d="m288 545q98 0 145-43t47-137v-365h-64l-17 76h-4q-23-29-47.5-48.5t-56-28.5-76.5-9q-48 0-86.5 17t-60.5 52.5-22 89.5q0 80 63 123.5t194 47.5l91 3v32q0 67-29 93t-82 26q-42 0-80-12.5t-71-28.5l-27 66q35 19 83 32.5t100 13.5zm26-286q-100-4-138.5-32t-38.5-79q0-45 27.5-66t70.5-21q68 0 113 37.5t45 115.5v48z"/><path transform="translate(59.216 14.336) scale(.016 -.016)" d="m343 546q96 0 145-46.5t49-150.5v-349h-87v343q0 65-29 97t-91 32q-89 0-123-50t-34-144v-278h-88v536h71l13-73h5q18 28 44.5 46.5t58.5 27.5 66 9z"/><path transform="translate(69.104 14.336) scale(.016 -.016)" d="m434 148q0-52-26-87t-74-53-114-18q-56 0-96.5 9t-71.5 25v80q32-16 77.5-29.5t92.5-13.5q67 0 97 21.5t30 57.5q0 20-11 36t-39.5 32-81.5 36q-52 20-89 40t-57 48-20 72q0 68 55.5 105t145.5 37q49 0 91.5-9.5t79.5-26.5l-30-70q-34 14-71 24t-76 10q-54 0-82.5-17.5t-28.5-47.5q0-22 13-37.5t43.5-30 81.5-34.5q51-19 87-39t55-48.5 19-71.5z"/><path transform="translate(80.928 14.336) scale(.016 -.016)" d="m407 377h247v-350q-58-19-117-28t-134-9q-111 0-187 44.5t-115.5 127-39.5 195.5q0 112 44 194t126.5 127.5 199.5 45.5q60 0 113.5-11t99.5-31l-34-78q-38 17-85.5 29t-98.5 12q-85 0-146-35t-93-99.5-32-153.5q0-85 27.5-150.5t86.5-102 155-36.5q47 0 80 5t60 12v212h-157z"/><path transform="translate(92.576 14.336) scale(.016 -.016)" d="m533 536v-536h-72l-13 71h-4q-17-28-44-46t-59-26.5-67-8.5q-64 0-107.5 20.5t-65.5 63.5-22 111v351h89v-345q0-64 29-96t90-32q60 0 94.5 22.5t49 66 14.5 105.5v279z"/><path transform="translate(102.46 14.336) scale(.016 -.016)" d="m335 546q15 0 32.5-1.5t30.5-4.5l-11-81q-13 3-28.5 5t-29.5 2q-31 0-59-13t-50-36.5-34.5-56.5-12.5-74v-286h-88v536h72l10-98h4q17 30 41 54.5t55 39 68 14.5z"/><path transform="translate(109.07 14.336) scale(.016 -.016)" d="m673 546q91 0 136-46.5t45-150.5v-349h-87v345q0 63-26.5 95t-82.5 32q-78 0-111.5-45t-33.5-131v-296h-87v345q0 42-12 70.5t-36 42.5-62 14q-54 0-85-22.5t-44.5-65.5-13.5-106v-278h-88v536h71l13-73h5q17 28 41.5 46.5t54.5 27.5 62 9q62 0 103.5-22t60.5-68h5q27 46 73.5 68t98.5 22z"/><path transform="translate(124.03 14.336) scale(.016 -.016)" d="m533 536v-536h-72l-13 71h-4q-17-28-44-46t-59-26.5-67-8.5q-64 0-107.5 20.5t-65.5 63.5-22 111v351h89v-345q0-64 29-96t90-32q60 0 94.5 22.5t49 66 14.5 105.5v279z"/><path transform="translate(133.92 14.336) scale(.016 -.016)" d="m172 363q0-16-1.5-42t-2.5-45h4q6 8 18 23t24.5 30.5 21.5 25.5l171 181h103l-217-229 232-307h-106l-186 250-61-53v-197h-87v760h87z"/><path transform="translate(142.46 14.336) scale(.016 -.016)" d="m173 537q0-19-1.5-39t-3.5-36h6q17 28 43 46t58 27.5 66 9.5q65 0 108.5-20.5t65.5-63.5 22-112v-349h-87v343q0 65-29 97t-91 32q-60 0-94-22.5t-48.5-66-14.5-106.5v-277h-88v760h88z"/><path transform="translate(152.35 14.336) scale(.016 -.016)" d="m173 536v-536h-88v536zm-43 201q20 0 35.5-13.5t15.5-42.5q0-28-15.5-42t-35.5-14q-22 0-37 14t-15 42q0 29 15 42.5t37 13.5z"/></svg>