<svg width="162.97" height="19.768" viewBox="0 0 162.97 19.768" xmlns="http://www.w3.org/2000/svg"><path transform="translate(0 12.964) scale(.014 -.014)" d="m663 0h-105l-382 593h-4q2-23 3.5-54.5t3-67 1.5-72.5v-399h-83v714h104l381-591h4q-1 16-2.5 48t-3 70-1.5 70v403h84z"/><path transform="translate(10.64 12.964) scale(.014 -.014)" d="m551 269q0-89-30.5-151.5t-86.5-95-133-32.5q-71 0-126.5 32.5t-87.5 95-32 151.5q0 133 67 205t182 72q73 0 128.5-32.5t87-94 31.5-150.5zm-405 0q0-63 16.5-109.5t51.5-71.5 89-25 89 25 51.5 71.5 16.5 109.5q0 64-17 109t-51.5 69.5-89.5 24.5q-82 0-119-54t-37-149z"/><path transform="translate(19.11 12.964) scale(.014 -.014)" d="m264 62q20 0 41 3.5t34 7.5v-67q-14-7-40-11.5t-50-4.5q-42 0-77.5 14.5t-57.5 50.5-22 101v312h-76v42l77 35 35 114h52v-123h155v-68h-155v-310q0-49 23.5-72.5t60.5-23.5z"/><path transform="translate(24.164 12.964) scale(.014 -.014)" d="m551 269q0-89-30.5-151.5t-86.5-95-133-32.5q-71 0-126.5 32.5t-87.5 95-32 151.5q0 133 67 205t182 72q73 0 128.5-32.5t87-94 31.5-150.5zm-405 0q0-63 16.5-109.5t51.5-71.5 89-25 89 25 51.5 71.5 16.5 109.5q0 64-17 109t-51.5 69.5-89.5 24.5q-82 0-119-54t-37-149z"/><path transform="translate(36.274 12.964) scale(.014 -.014)" d="m502 191q0-64-31-108.5t-88.5-68.5-135.5-24q-40 0-76.5 4t-66.5 11.5-53 18.5v86q36-16 89.5-29t110.5-13q53 0 89 14t54 40 18 61-15 59-51.5 44.5-101.5 43.5q-61 22-102 50t-61.5 67.5-20.5 94.5q0 57 29 97.5t80.5 62.5 118.5 22q59 0 108-11t89-29l-28-77q-37 16-80.5 27t-90.5 11q-45 0-75-13t-45-36.5-15-54.5q0-36 15-60t49-43 92-41q63-23 106.5-49.5t66-63.5 22.5-93z"/><path transform="translate(43.96 12.964) scale(.014 -.014)" d="m288 545q98 0 145-43t47-137v-365h-64l-17 76h-4q-23-29-47.5-48.5t-56-28.5-76.5-9q-73 0-121 38.5t-48 120.5q0 80 63 123.5t194 47.5l91 3v32q0 67-29 93t-82 26q-42 0-80-12.5t-71-28.5l-27 66q35 19 83 32.5t100 13.5zm26-286q-100-4-138.5-32t-38.5-79q0-45 27.5-66t70.5-21q68 0 113 37.5t45 115.5v48z"/><path transform="translate(51.814 12.964) scale(.014 -.014)" d="m343 546q96 0 145-46.5t49-150.5v-349h-87v343q0 65-29 97t-91 32q-89 0-123-50t-34-144v-278h-88v536h71l13-73h5q18 28 44.5 46.5t58.5 27.5 66 9z"/><path transform="translate(60.466 12.964) scale(.014 -.014)" d="m434 148q0-52-26-87t-74-53-114-18q-56 0-96.5 9t-71.5 25v80q32-16 77.5-29.5t92.5-13.5q67 0 97 21.5t30 57.5q0 20-11 36t-39.5 32-81.5 36q-52 20-89 40t-57 48-20 72q0 68 55.5 105t145.5 37q49 0 91.5-9.5t79.5-26.5l-30-70q-34 14-71 24t-76 10q-54 0-82.5-17.5t-28.5-47.5q0-22 13-37.5t43.5-30 81.5-34.5q51-19 87-39t55-48.5 19-71.5z"/><path transform="translate(70.812 12.964) scale(.014 -.014)" d="m502 191q0-64-31-108.5t-88.5-68.5-135.5-24q-40 0-76.5 4t-66.5 11.5-53 18.5v86q36-16 89.5-29t110.5-13q53 0 89 14t54 40 18 61-15 59-51.5 44.5-101.5 43.5q-61 22-102 50t-61.5 67.5-20.5 94.5q0 57 29 97.5t80.5 62.5 118.5 22q59 0 108-11t89-29l-28-77q-37 16-80.5 27t-90.5 11q-45 0-75-13t-45-36.5-15-54.5q0-36 15-60t49-43 92-41q63-23 106.5-49.5t66-63.5 22.5-93z"/><path transform="translate(78.498 12.964) scale(.014 -.014)" d="m1 536h94l116-305q15-40 27-76.5t18-69.5h4q6 25 19 65.5t27 81.5l109 304h95l-231-610q-19-50-44.5-87.5t-62-58-88.5-20.5q-24 0-42 2.5t-31 5.5v70q11-2 26.5-4t32.5-2q46 0 74.5 26t44.5 69l28 71z"/><path transform="translate(85.638 12.964) scale(.014 -.014)" d="m335 546q15 0 32.5-1.5t30.5-4.5l-11-81q-13 3-28.5 5t-29.5 2q-41 0-77-22.5t-57.5-63-21.5-94.5v-286h-88v536h72l10-98h4q26 44 67 76t97 32z"/><path transform="translate(91.42 12.964) scale(.014 -.014)" d="m173 536v-536h-88v536zm-43 201q20 0 35.5-13.5t15.5-42.5q0-28-15.5-42t-35.5-14q-22 0-37 14t-15 42q0 29 15 42.5t37 13.5z"/><path transform="translate(95.032 12.964) scale(.014 -.014)" d="m288 545q98 0 145-43t47-137v-365h-64l-17 76h-4q-23-29-47.5-48.5t-56-28.5-76.5-9q-73 0-121 38.5t-48 120.5q0 80 63 123.5t194 47.5l91 3v32q0 67-29 93t-82 26q-42 0-80-12.5t-71-28.5l-27 66q35 19 83 32.5t100 13.5zm26-286q-100-4-138.5-32t-38.5-79q0-45 27.5-66t70.5-21q68 0 113 37.5t45 115.5v48z"/><path transform="translate(102.89 12.964) scale(.014 -.014)" d="m300-10q-71 0-126.5 29t-87 90-31.5 156q0 99 33 161t89.5 91 128.5 29q41 0 79-8.5t62-20.5l-27-73q-24 9-56 17t-60 8q-54 0-89-23t-52-68-17-112q0-64 17-109t51-68 85-23q44 0 77.5 9t61.5 22v-78q-27-14-59.5-21.5t-78.5-7.5z"/><path transform="translate(113.25 12.964) scale(.014 -.014)" d="M496 0H97V714H496V635H187V412H478V334H187V79H496Z"/><path transform="translate(121.03 12.964) scale(.014 -.014)" d="m288 545q98 0 145-43t47-137v-365h-64l-17 76h-4q-23-29-47.5-48.5t-56-28.5-76.5-9q-73 0-121 38.5t-48 120.5q0 80 63 123.5t194 47.5l91 3v32q0 67-29 93t-82 26q-42 0-80-12.5t-71-28.5l-27 66q35 19 83 32.5t100 13.5zm26-286q-100-4-138.5-32t-38.5-79q0-45 27.5-66t70.5-21q68 0 113 37.5t45 115.5v48z"/><path transform="translate(128.88 12.964) scale(.014 -.014)" d="m434 148q0-52-26-87t-74-53-114-18q-56 0-96.5 9t-71.5 25v80q32-16 77.5-29.5t92.5-13.5q67 0 97 21.5t30 57.5q0 20-11 36t-39.5 32-81.5 36q-52 20-89 40t-57 48-20 72q0 68 55.5 105t145.5 37q49 0 91.5-9.5t79.5-26.5l-30-70q-34 14-71 24t-76 10q-54 0-82.5-17.5t-28.5-47.5q0-22 13-37.5t43.5-30 81.5-34.5q51-19 87-39t55-48.5 19-71.5z"/><path transform="translate(135.59 12.964) scale(.014 -.014)" d="m264 62q20 0 41 3.5t34 7.5v-67q-14-7-40-11.5t-50-4.5q-42 0-77.5 14.5t-57.5 50.5-22 101v312h-76v42l77 35 35 114h52v-123h155v-68h-155v-310q0-49 23.5-72.5t60.5-23.5z"/><path transform="translate(140.64 12.964) scale(.014 -.014)" d="m292 546q69 0 118.5-30t76-84.5 26.5-127.5v-53h-367q2-91 46.5-138.5t124.5-47.5q51 0 90.5 9.5t81.5 27.5v-77q-41-18-81-26.5t-95-8.5q-76 0-134.5 31t-91 92.5-32.5 150.5q0 88 29.5 151t83 97 124.5 34zm-1-72q-63 0-99.5-40.5t-43.5-112.5h273q-1 68-32 110.5t-98 42.5z"/><path transform="translate(148.54 12.964) scale(.014 -.014)" d="m335 546q15 0 32.5-1.5t30.5-4.5l-11-81q-13 3-28.5 5t-29.5 2q-41 0-77-22.5t-57.5-63-21.5-94.5v-286h-88v536h72l10-98h4q26 44 67 76t97 32z"/><path transform="translate(154.32 12.964) scale(.014 -.014)" d="m343 546q96 0 145-46.5t49-150.5v-349h-87v343q0 65-29 97t-91 32q-89 0-123-50t-34-144v-278h-88v536h71l13-73h5q18 28 44.5 46.5t58.5 27.5 66 9z"/></svg>