<svg width="107.97" height="26.32" viewBox="0 0 107.97 26.32" xmlns="http://www.w3.org/2000/svg"><path transform="translate(0 18.928) scale(.016 -.016)" d="m663 0h-105l-382 593h-4q2-23 3.5-54.5t3-67 1.5-72.5v-399h-83v714h104l381-591h4q-1 16-2.5 48t-3 70-1.5 70v403h84z"/><path transform="translate(12.16 18.928) scale(.016 -.016)" d="m551 269q0-67-17.5-118.5t-50-87.5-79-54.5-103.5-18.5q-53 0-98 18.5t-78 54.5-51.5 87.5-18.5 118.5q0 89 30 150.5t86 94 133 32.5q73 0 128.5-32.5t87-94 31.5-150.5zm-405 0q0-63 16.5-109.5t51.5-71.5 89-25 89 25 51.5 71.5 16.5 109.5q0 64-17 109t-51.5 69.5-89.5 24.5q-82 0-119-54t-37-149z"/><path transform="translate(21.84 18.928) scale(.016 -.016)" d="m264 62q20 0 41 3.5t34 7.5v-67q-14-7-40-11.5t-50-4.5q-42 0-77.5 14.5t-57.5 50.5-22 101v312h-76v42l77 35 35 114h52v-123h155v-68h-155v-310q0-49 23.5-72.5t60.5-23.5z"/><path transform="translate(27.616 18.928) scale(.016 -.016)" d="m551 269q0-67-17.5-118.5t-50-87.5-79-54.5-103.5-18.5q-53 0-98 18.5t-78 54.5-51.5 87.5-18.5 118.5q0 89 30 150.5t86 94 133 32.5q73 0 128.5-32.5t87-94 31.5-150.5zm-405 0q0-63 16.5-109.5t51.5-71.5 89-25 89 25 51.5 71.5 16.5 109.5q0 64-17 109t-51.5 69.5-89.5 24.5q-82 0-119-54t-37-149z"/><path transform="translate(41.456 18.928) scale(.016 -.016)" d="m502 191q0-64-31-108.5t-88.5-68.5-135.5-24q-40 0-76.5 4t-66.5 11.5-53 18.5v86q36-16 89.5-29t110.5-13q53 0 89 14t54 40 18 61-15 59-51.5 44.5-101.5 43.5q-61 22-102 50t-61.5 67.5-20.5 94.5q0 57 29 97.5t80.5 62.5 118.5 22q59 0 108-11t89-29l-28-77q-37 16-80.5 27t-90.5 11q-45 0-75-13t-45-36.5-15-54.5q0-36 15-60t49-43 92-41q63-23 106.5-49.5t66-63.5 22.5-93z"/><path transform="translate(50.24 18.928) scale(.016 -.016)" d="m288 545q98 0 145-43t47-137v-365h-64l-17 76h-4q-23-29-47.5-48.5t-56-28.5-76.5-9q-48 0-86.5 17t-60.5 52.5-22 89.5q0 80 63 123.5t194 47.5l91 3v32q0 67-29 93t-82 26q-42 0-80-12.5t-71-28.5l-27 66q35 19 83 32.5t100 13.5zm26-286q-100-4-138.5-32t-38.5-79q0-45 27.5-66t70.5-21q68 0 113 37.5t45 115.5v48z"/><path transform="translate(59.216 18.928) scale(.016 -.016)" d="m343 546q96 0 145-46.5t49-150.5v-349h-87v343q0 65-29 97t-91 32q-89 0-123-50t-34-144v-278h-88v536h71l13-73h5q18 28 44.5 46.5t58.5 27.5 66 9z"/><path transform="translate(69.104 18.928) scale(.016 -.016)" d="m434 148q0-52-26-87t-74-53-114-18q-56 0-96.5 9t-71.5 25v80q32-16 77.5-29.5t92.5-13.5q67 0 97 21.5t30 57.5q0 20-11 36t-39.5 32-81.5 36q-52 20-89 40t-57 48-20 72q0 68 55.5 105t145.5 37q49 0 91.5-9.5t79.5-26.5l-30-70q-34 14-71 24t-76 10q-54 0-82.5-17.5t-28.5-47.5q0-22 13-37.5t43.5-30 81.5-34.5q51-19 87-39t55-48.5 19-71.5z"/><path transform="translate(80.928 18.928) scale(.016 -.016)" d="M97 0V714H187V80H499V0Z"/><path transform="translate(89.312 18.928) scale(.016 -.016)" d="m288 545q98 0 145-43t47-137v-365h-64l-17 76h-4q-23-29-47.5-48.5t-56-28.5-76.5-9q-48 0-86.5 17t-60.5 52.5-22 89.5q0 80 63 123.5t194 47.5l91 3v32q0 67-29 93t-82 26q-42 0-80-12.5t-71-28.5l-27 66q35 19 83 32.5t100 13.5zm26-286q-100-4-138.5-32t-38.5-79q0-45 27.5-66t70.5-21q68 0 113 37.5t45 115.5v48z"/><path transform="translate(98.288 18.928) scale(.016 -.016)" d="m551 269q0-67-17.5-118.5t-50-87.5-79-54.5-103.5-18.5q-53 0-98 18.5t-78 54.5-51.5 87.5-18.5 118.5q0 89 30 150.5t86 94 133 32.5q73 0 128.5-32.5t87-94 31.5-150.5zm-405 0q0-63 16.5-109.5t51.5-71.5 89-25 89 25 51.5 71.5 16.5 109.5q0 64-17 109t-51.5 69.5-89.5 24.5q-82 0-119-54t-37-149z"/></svg>