<svg width="104.21" height="22.992" viewBox="0 0 104.21 22.992" xmlns="http://www.w3.org/2000/svg"><path transform="translate(0 18.416) scale(.016 -.016)" d="m44 0v30l106 12h22l129-12v-30zm96 0v705h36l3-386v-319zm361 698v30h255v-30l-105-11h-20zm115-705-449 661-2 1-24 37-98 6v30h176l422-625-17-6-2 298v333h37v-735z"/><path transform="translate(12.736 18.416) scale(.016 -.016)" d="m297-15q-66 0-122.5 31t-91.5 91.5-35 150.5 36 150.5 93 91.5 120 31q65 0 122-30.5t92.5-91.5 35.5-151-35-151-91.5-91.5-123.5-30.5zm0 31q75 0 117.5 62t42.5 179q0 116-42.5 179t-117.5 63q-74 0-117-63t-43-179q0-117 43-179t117-62z"/><path transform="translate(22.272 18.416) scale(.016 -.016)" d="m155 479v37h185v-37zm81-494q-63 0-93 33t-30 100q0 24 0.5 43t0.5 46v272h-100v30l121 10-20-15 30 168h55l-4-171v-383q0-47 17.5-68t50.5-21q22 0 39 6.5t37 18.5l15-17q-21-25-50-38.5t-69-13.5z"/><path transform="translate(28.144 18.416) scale(.016 -.016)" d="m297-15q-66 0-122.5 31t-91.5 91.5-35 150.5 36 150.5 93 91.5 120 31q65 0 122-30.5t92.5-91.5 35.5-151-35-151-91.5-91.5-123.5-30.5zm0 31q75 0 117.5 62t42.5 179q0 116-42.5 179t-117.5 63q-74 0-117-63t-43-179q0-117 43-179t117-62z"/><path transform="translate(41.776 18.416) scale(.016 -.016)" d="m264-16q-62 0-118 17t-93 41l6 149h41l31-164-45 21-6 33q49-36 87-48.5t91-12.5q81 0 131 36.5t50 108.5q0 37-13.5 63.5t-44.5 49-86 44.5l-43 17q-89 38-135 88.5t-46 126.5q0 63 31.5 105.5t84 64 117.5 21.5q57 0 100-14.5t80-40.5l-4-142h-43l-31 158 47-22 3-32q-39 31-71.5 43.5t-75.5 12.5q-70 0-115.5-33.5t-45.5-98.5q0-57 33.5-91t92.5-59l45-18q76-32 119.5-63.5t61.5-69 18-88.5q0-62-31.5-108t-88.5-70.5-134-24.5z"/><path transform="translate(50.848 18.416) scale(.016 -.016)" d="m303-15q-73 0-131 30t-91 91-33 151q0 84 34.5 145.5t90.5 95 122 33.5q65 0 111.5-27.5t71-74.5 24.5-106q0-36-7-60h-408v31h290q27 0 36 14t9 44q0 64-34 105.5t-95 41.5q-44 0-80-27.5t-57-79-21-123.5q0-81 24.5-133t67.5-76.5 98-24.5q53 0 92.5 18.5t70.5 54.5l16-14q-33-50-83-79.5t-118-29.5z"/><path transform="translate(59.6 18.416) scale(.016 -.016)" d="m41 0v28l111 12h41l113-12v-28zm83 0q1 24 1.5 65t1 85.5 0.5 78.5v60q0 52-0.5 92t-2.5 77l-88 4v26l154 40 13-8 6-141v-150q0-34 0.5-78.5t1-85.5 1.5-65zm84 319-21 52h18q15 49 42 84.5t60.5 55.5 68.5 20q29 0 51-11.5t29-33.5q-1-27-13-42t-39-15q-19 0-34 9.5t-32 28.5l-23 22 45-2q-52-14-88.5-54.5t-63.5-113.5z"/><path transform="translate(66.992 18.416) scale(.016 -.016)" d="m43 0v28l110 11h31l106-11v-28zm83 0q1 24 2 65t1.5 85.5 0.5 78.5v60q0 51-1 92t-3 78l-89 4v26l165 39 12-8-3-140v-151q0-34 0.5-78.5t1.5-85.5 2-65zm37 655q-24 0-41 15.5t-17 40.5 17 41 41 16q23 0 40.5-16t17.5-41-17.5-40.5-40.5-15.5z"/><path transform="translate(72.304 18.416) scale(.016 -.016)" d="m36 0v28l116 11h40l123-11v-28zm89 0q2 57 2.5 114.5t0.5 114.5v250h-95v30l125 11-30-15v6q5 95 26.5 153.5t61.5 95.5q31 29 66 42.5t72 13.5q36 0 64.5-13t36.5-39q-1-18-14-29.5t-36-11.5q-19 0-36.5 10.5t-38.5 32.5l-27 28v9h41v-8q-28-3-53-19.5t-41-41.5-26-56-13-75.5 0-109.5v-264q0-57 1-114.5t2-114.5zm45 479v37h195v-37z"/><path transform="translate(82.608 18.416) scale(.016 -.016)" d="m170 0v30l147 12h25l148-12v-30zm113 0q2 84 2.5 168t0.5 169v54q0 85-0.5 169.5t-2.5 167.5h93q-1-83-1.5-167.5t-0.5-169.5v-54q0-85 0.5-169t1.5-168zm-261 538 8 190h599l9-190h-43l-36 190 41-35h-541l42 35-36-190z"/><path transform="translate(93.152 18.416) scale(.016 -.016)" d="m422-16q-81 0-148 25.5t-115.5 75-75.5 119.5-27 158 27.5 158.5 77 121 116.5 77 145 26.5q62 0 110.5-13.5t96.5-42.5l3-160h-45l-34 173 51-17v-34q-42 31-81 44.5t-88 13.5q-82 0-146-40t-101-117-37-188q0-112 36.5-189t100-117 143.5-40q48 0 92 13.5t86 44.5v-33l-48-14 34 170h45l-2-159q-51-30-102.5-43t-113.5-13z"/></svg>