<svg width="146.62" height="21.792" viewBox="0 0 146.62 21.792" xmlns="http://www.w3.org/2000/svg"><path transform="translate(0 17.104) scale(.016 -.016)" d="m38 0v42h13q34 0 58 12.5t24 59.5v490q0 44-24.5 56t-57.5 12h-13v42h183l358-553v443q0 44-24.5 56t-57.5 12h-13v42h251v-42h-13q-34 0-58-12.5t-24-59.5v-600h-71l-375 576v-462q0-47 24-59.5t58-12.5h13v-42z"/><path transform="translate(12.208 17.104) scale(.016 -.016)" d="m287-10q-108 0-170 69t-62 210q0 140 59.5 208.5t175.5 68.5q108 0 170-68.5t62-208.5q0-141-59.5-210t-175.5-69zm2 52q75 0 105.5 57.5t30.5 169.5-31 168-106 56-105.5-56-30.5-168 31-169.5 106-57.5z"/><path transform="translate(21.44 17.104) scale(.016 -.016)" d="m240-10q-76 0-110.5 34.5t-34.5 120.5v334h-76v40q18 0 40 7.5t38 24.5q17 18 28 44t18 64h46v-123h131v-57h-131v-337q0-51 21-75t55-24q18 0 33 2t31 5v-44q-13-6-39-11t-50-5z"/><path transform="translate(27.072 17.104) scale(.016 -.016)" d="m287-10q-108 0-170 69t-62 210q0 140 59.5 208.5t175.5 68.5q108 0 170-68.5t62-208.5q0-141-59.5-210t-175.5-69zm2 52q75 0 105.5 57.5t30.5 169.5-31 168-106 56-105.5-56-30.5-168 31-169.5 106-57.5z"/><path transform="translate(40.464 17.104) scale(.016 -.016)" d="m247-10q-65 0-109.5 17.5t-67 49.5-22.5 74q0 20 8.5 35t24.5 23.5 39 8.5q2-41 16-77.5t43-59 76-22.5q67 0 105 32.5t38 93.5q0 37-14.5 62.5t-48 47.5-92.5 46q-62 26-103 56t-61 70.5-20 95.5q0 57 28.5 97.5t78 62 112.5 21.5q89 0 138-34t49-78q0-32-21.5-48.5t-57.5-16.5q0 31-10.5 60t-35 48-66.5 19q-58 0-90-31t-32-83q0-40 14.5-67.5t48.5-49 92-45.5q88-36 137-83t49-124q0-64-30-108.5t-85.5-68.5-130.5-24z"/><path transform="translate(49.168 17.104) scale(.016 -.016)" d="m287-10q-109 0-170.5 72t-61.5 202q0 140 58 211t164 71q97 0 152.5-60t55.5-179v-46h-333q2-109 39.5-158.5t109.5-49.5q52 0 88.5 21.5t54.5 48.5q7-3 13-12t6-22q0-20-19-43t-58-39.5-99-16.5zm97 325q0 80-24.5 128.5t-84.5 48.5q-55 0-85.5-45.5t-35.5-131.5z"/><path transform="translate(57.728 17.104) scale(.016 -.016)" d="m33 0v42h3q34 0 58 12.5t24 59.5v312q0 44-24.5 56t-57.5 12h-3v42h154l19-99h5q13 30 28 55t40 39.5 69 14.5q55 0 81.5-19t26.5-54q0-31-21.5-51t-71.5-20q0 41-12 59.5t-41 18.5q-28 0-47-22t-30-56-16-70.5-5-65.5v-157q0-44 24.5-55.5t57.5-11.5h28v-42z"/><path transform="translate(65.264 17.104) scale(.016 -.016)" d="m23 0v42h13q22 0 40.5 4.5t30 19 11.5 43.5v317q0 30-11.5 44.5t-30 19-40.5 4.5h-3v42h179v-422q0-31 11-46.5t30-20.5 41-5h13v-42zm138 636q-24 0-40.5 14t-16.5 48q0 35 16.5 48.5t40.5 13.5q23 0 40-13.5t17-48.5q0-34-17-48t-40-14z"/><path transform="translate(70.384 17.104) scale(.016 -.016)" d="m27 0v42h13q23 0 41.5 5t29.5 20.5 11 46.5v375h-91v47h91v50q0 89 47.5 136.5t129.5 47.5q52 0 82.5-9t44-24.5 13.5-36.5q0-27-23-41.5t-59-14.5q0 20-6 38.5t-20 30-40 11.5q-43 0-59-33t-16-96v-59h141v-47h-141v-375q0-31 11-46.5t30-20.5 41-5h38v-42z"/><path transform="translate(80.448 17.104) scale(.016 -.016)" d="m84 619q-10 32-26 42.5t-45 10.5h-13v42h275v-42h-23q-30 0-45-11.5t-15-36.5q0-8 2-17t6-20l110-325q15-44 26-86t19-78q8 36 19 77t27 87l110 318q4 12 6.5 23.5t2.5 19.5q0 26-16.5 37.5t-49.5 11.5h-23v42h244v-42h-19q-29 0-44-14.5t-32-63.5l-207-594h-73z"/><path transform="translate(91.248 17.104) scale(.016 -.016)" d="m23 0v42h13q22 0 40.5 4.5t30 19 11.5 43.5v317q0 30-11.5 44.5t-30 19-40.5 4.5h-3v42h179v-422q0-31 11-46.5t30-20.5 41-5h13v-42zm138 636q-24 0-40.5 14t-16.5 48q0 35 16.5 48.5t40.5 13.5q23 0 40-13.5t17-48.5q0-34-17-48t-40-14z"/><path transform="translate(96.368 17.104) scale(.016 -.016)" d="m240-10q-76 0-110.5 34.5t-34.5 120.5v334h-76v40q18 0 40 7.5t38 24.5q17 18 28 44t18 64h46v-123h131v-57h-131v-337q0-51 21-75t55-24q18 0 33 2t31 5v-44q-13-6-39-11t-50-5z"/><path transform="translate(102 17.104) scale(.016 -.016)" d="m18 0v42h8q34 0 58 12.5t24 59.5v536q0 30-11.5 44.5t-30 19-40.5 4.5h-8v42h184v-220q0-18-1-37.5t-2-33.5-1-14h5q15 30 36.5 50.5t49 30.5 61.5 10q86 0 131.5-46.5t45.5-149.5v-236q0-47 21.5-59.5t55.5-12.5h3v-42h-174v345q0 65-24.5 101t-85.5 36q-41 0-68-20t-40-56.5-13-85.5v-211q0-44 24.5-55.5t57.5-11.5h3v-42z"/><path transform="translate(112.16 17.104) scale(.016 -.016)" d="m18 0v42h8q23 0 41.5 5t29.5 20.5 11 46.5v536q0 30-11.5 44.5t-30 19-40.5 4.5h-8v42h184v-386q0-13-0.5-34t-1.5-42-1.5-35.5-0.5-14.5l125 137q32 36 43.5 55.5t11.5 33.5q0 13-12 16.5t-37 3.5v42h221v-42q-34 0-68-24.5t-73-68.5l-70-79 133-198q26-40 51.5-61t59.5-21h3v-42h-14q-43 0-72 3t-48.5 12.5-37 29-38.5 52.5l-100 157-74-55v-90q0-29 11.5-43.5t30-19 40.5-4.5h3v-42z"/><path transform="translate(121.52 17.104) scale(.016 -.016)" d="m273-10q-79 0-122 46.5t-43 149.5v240q0 44-24.5 56t-57.5 12h-3v42h179v-345q0-65 22-101t83-36q66 0 96 44.5t30 117.5v206q0 47-24 59.5t-58 12.5h-3v42h179v-427q0-44 24.5-55.5t57.5-11.5h3v-42h-159l-13 81h-5q-31-56-72-73.5t-90-17.5z"/><path transform="translate(131.68 17.104) scale(.016 -.016)" d="m297-240v42h33q34 0 58 12.5t24 59.5v86q0 16 0.5 40.5t1.5 49.5 2 40h-4q-22-46-58-73t-95-27q-99 0-151.5 66.5t-52.5 210.5q0 145 52.5 212t151.5 67q58 0 94.5-24.5t58.5-63.5h6l18 78h160v-42h-8q-22 0-41-5t-30-20-11-47v-552q0-44 24.5-56t57.5-12h8v-42zm-21 294q78 0 107 52.5t29 160.5q0 104-29 159.5t-108 55.5q-66 0-94.5-55.5t-28.5-160.5q0-106 28.5-159t95.5-53z"/><path transform="translate(141.5 17.104) scale(.016 -.016)" d="m23 0v42h13q22 0 40.5 4.5t30 19 11.5 43.5v317q0 30-11.5 44.5t-30 19-40.5 4.5h-3v42h179v-422q0-31 11-46.5t30-20.5 41-5h13v-42zm138 636q-24 0-40.5 14t-16.5 48q0 35 16.5 48.5t40.5 13.5q23 0 40-13.5t17-48.5q0-34-17-48t-40-14z"/></svg>