<svg width="186.75" height="22.24" viewBox="0 0 186.75 22.24" xmlns="http://www.w3.org/2000/svg"><path transform="translate(0 17.104) scale(.016 -.016)" d="m663 0h-105l-382 593h-4q2-23 3.5-54.5t3-67 1.5-72.5v-399h-83v714h104l381-591h4q-1 16-2.5 48t-3 70-1.5 70v403h84z"/><path transform="translate(12.16 17.104) scale(.016 -.016)" d="m551 269q0-89-30.5-151.5t-86.5-95-133-32.5q-71 0-126.5 32.5t-87.5 95-32 151.5q0 133 67 205t182 72q73 0 128.5-32.5t87-94 31.5-150.5zm-405 0q0-63 16.5-109.5t51.5-71.5 89-25 89 25 51.5 71.5 16.5 109.5q0 64-17 109t-51.5 69.5-89.5 24.5q-82 0-119-54t-37-149z"/><path transform="translate(21.84 17.104) scale(.016 -.016)" d="m264 62q20 0 41 3.5t34 7.5v-67q-14-7-40-11.5t-50-4.5q-42 0-77.5 14.5t-57.5 50.5-22 101v312h-76v42l77 35 35 114h52v-123h155v-68h-155v-310q0-49 23.5-72.5t60.5-23.5z"/><path transform="translate(27.616 17.104) scale(.016 -.016)" d="m551 269q0-89-30.5-151.5t-86.5-95-133-32.5q-71 0-126.5 32.5t-87.5 95-32 151.5q0 133 67 205t182 72q73 0 128.5-32.5t87-94 31.5-150.5zm-405 0q0-63 16.5-109.5t51.5-71.5 89-25 89 25 51.5 71.5 16.5 109.5q0 64-17 109t-51.5 69.5-89.5 24.5q-82 0-119-54t-37-149z"/><path transform="translate(41.776 17.104) scale(.016 -.016)" d="m502 191q0-64-31-108.5t-88.5-68.5-135.5-24q-40 0-76.5 4t-66.5 11.5-53 18.5v86q36-16 89.5-29t110.5-13q53 0 89 14t54 40 18 61-15 59-51.5 44.5-101.5 43.5q-61 22-102 50t-61.5 67.5-20.5 94.5q0 57 29 97.5t80.5 62.5 118.5 22q59 0 108-11t89-29l-28-77q-37 16-80.5 27t-90.5 11q-45 0-75-13t-45-36.5-15-54.5q0-36 15-60t49-43 92-41q63-23 106.5-49.5t66-63.5 22.5-93z"/><path transform="translate(50.56 17.104) scale(.016 -.016)" d="m288 545q98 0 145-43t47-137v-365h-64l-17 76h-4q-23-29-47.5-48.5t-56-28.5-76.5-9q-73 0-121 38.5t-48 120.5q0 80 63 123.5t194 47.5l91 3v32q0 67-29 93t-82 26q-42 0-80-12.5t-71-28.5l-27 66q35 19 83 32.5t100 13.5zm26-286q-100-4-138.5-32t-38.5-79q0-45 27.5-66t70.5-21q68 0 113 37.5t45 115.5v48z"/><path transform="translate(59.536 17.104) scale(.016 -.016)" d="m343 546q96 0 145-46.5t49-150.5v-349h-87v343q0 65-29 97t-91 32q-89 0-123-50t-34-144v-278h-88v536h71l13-73h5q18 28 44.5 46.5t58.5 27.5 66 9z"/><path transform="translate(69.424 17.104) scale(.016 -.016)" d="m434 148q0-52-26-87t-74-53-114-18q-56 0-96.5 9t-71.5 25v80q32-16 77.5-29.5t92.5-13.5q67 0 97 21.5t30 57.5q0 20-11 36t-39.5 32-81.5 36q-52 20-89 40t-57 48-20 72q0 68 55.5 105t145.5 37q49 0 91.5-9.5t79.5-26.5l-30-70q-34 14-71 24t-76 10q-54 0-82.5-17.5t-28.5-47.5q0-22 13-37.5t43.5-30 81.5-34.5q51-19 87-39t55-48.5 19-71.5z"/><path transform="translate(81.568 17.104) scale(.016 -.016)" d="m412 0-235 626h-4q2-20 3.5-51t2.5-67.5 1-74.5v-433h-83v714h133l220-585h4l224 585h132v-714h-89v439q0 35 1 69.5t3 65 3 51.5h-4l-238-625z"/><path transform="translate(96.08 17.104) scale(.016 -.016)" d="m292 546q69 0 118.5-30t76-84.5 26.5-127.5v-53h-367q2-91 46.5-138.5t124.5-47.5q51 0 90.5 9.5t81.5 27.5v-77q-41-18-81-26.5t-95-8.5q-76 0-134.5 31t-91 92.5-32.5 150.5q0 88 29.5 151t83 97 124.5 34zm-1-72q-63 0-99.5-40.5t-43.5-112.5h273q-1 68-32 110.5t-98 42.5z"/><path transform="translate(105.1 17.104) scale(.016 -.016)" d="m292 546q69 0 118.5-30t76-84.5 26.5-127.5v-53h-367q2-91 46.5-138.5t124.5-47.5q51 0 90.5 9.5t81.5 27.5v-77q-41-18-81-26.5t-95-8.5q-76 0-134.5 31t-91 92.5-32.5 150.5q0 88 29.5 151t83 97 124.5 34zm-1-72q-63 0-99.5-40.5t-43.5-112.5h273q-1 68-32 110.5t-98 42.5z"/><path transform="translate(114.13 17.104) scale(.016 -.016)" d="m264 62q20 0 41 3.5t34 7.5v-67q-14-7-40-11.5t-50-4.5q-42 0-77.5 14.5t-57.5 50.5-22 101v312h-76v42l77 35 35 114h52v-123h155v-68h-155v-310q0-49 23.5-72.5t60.5-23.5z"/><path transform="translate(119.9 17.104) scale(.016 -.016)" d="m292 546q69 0 118.5-30t76-84.5 26.5-127.5v-53h-367q2-91 46.5-138.5t124.5-47.5q51 0 90.5 9.5t81.5 27.5v-77q-41-18-81-26.5t-95-8.5q-76 0-134.5 31t-91 92.5-32.5 150.5q0 88 29.5 151t83 97 124.5 34zm-1-72q-63 0-99.5-40.5t-43.5-112.5h273q-1 68-32 110.5t-98 42.5z"/><path transform="translate(128.93 17.104) scale(.016 -.016)" d="m173 536v-536h-88v536zm-43 201q20 0 35.5-13.5t15.5-42.5q0-28-15.5-42t-35.5-14q-22 0-37 14t-15 42q0 29 15 42.5t37 13.5z"/><path transform="translate(137.54 17.104) scale(.016 -.016)" d="m412 0-235 626h-4q2-20 3.5-51t2.5-67.5 1-74.5v-433h-83v714h133l220-585h4l224 585h132v-714h-89v439q0 35 1 69.5t3 65 3 51.5h-4l-238-625z"/><path transform="translate(152.05 17.104) scale(.016 -.016)" d="m288 545q98 0 145-43t47-137v-365h-64l-17 76h-4q-23-29-47.5-48.5t-56-28.5-76.5-9q-73 0-121 38.5t-48 120.5q0 80 63 123.5t194 47.5l91 3v32q0 67-29 93t-82 26q-42 0-80-12.5t-71-28.5l-27 66q35 19 83 32.5t100 13.5zm26-286q-100-4-138.5-32t-38.5-79q0-45 27.5-66t70.5-21q68 0 113 37.5t45 115.5v48z"/><path transform="translate(161.02 17.104) scale(.016 -.016)" d="m1 536h94l116-305q15-40 27-76.5t18-69.5h4q6 25 19 65.5t27 81.5l109 304h95l-231-610q-19-50-44.5-87.5t-62-58-88.5-20.5q-24 0-42 2.5t-31 5.5v70q11-2 26.5-4t32.5-2q46 0 74.5 26t44.5 69l28 71z"/><path transform="translate(169.18 17.104) scale(.016 -.016)" d="m292 546q69 0 118.5-30t76-84.5 26.5-127.5v-53h-367q2-91 46.5-138.5t124.5-47.5q51 0 90.5 9.5t81.5 27.5v-77q-41-18-81-26.5t-95-8.5q-76 0-134.5 31t-91 92.5-32.5 150.5q0 88 29.5 151t83 97 124.5 34zm-1-72q-63 0-99.5-40.5t-43.5-112.5h273q-1 68-32 110.5t-98 42.5z"/><path transform="translate(178.21 17.104) scale(.016 -.016)" d="m172 363q0-16-1.5-42t-2.5-45h4q6 8 18 23t24.5 30.5 21.5 25.5l171 181h103l-217-229 232-307h-106l-186 250-61-53v-197h-87v760h87z"/></svg>