<svg width="142.51" height="19.068" viewBox="0 0 142.51 19.068" xmlns="http://www.w3.org/2000/svg"><path transform="translate(0 14.966) scale(.014 -.014)" d="m663 0h-105l-382 593h-4q2-35 5-87t3-107v-399h-83v714h104l381-591h4q-1 16-2.5 48t-3 70-1.5 70v403h84z"/><path transform="translate(10.64 14.966) scale(.014 -.014)" d="m551 269q0-133-67.5-206t-182.5-73q-71 0-126.5 32.5t-87.5 95-32 151.5q0 133 67 205t182 72q73 0 128.5-32.5t87-94 31.5-150.5zm-405 0q0-95 37.5-150.5t119.5-55.5q81 0 119 55.5t38 150.5-38 149-120 54-119-54-37-149z"/><path transform="translate(19.11 14.966) scale(.014 -.014)" d="m264 62q20 0 41 3.5t34 7.5v-67q-14-7-40-11.5t-50-4.5q-42 0-77.5 14.5t-57.5 50.5-22 101v312h-76v42l77 35 35 114h52v-123h155v-68h-155v-310q0-49 23.5-72.5t60.5-23.5z"/><path transform="translate(24.164 14.966) scale(.014 -.014)" d="m551 269q0-133-67.5-206t-182.5-73q-71 0-126.5 32.5t-87.5 95-32 151.5q0 133 67 205t182 72q73 0 128.5-32.5t87-94 31.5-150.5zm-405 0q0-95 37.5-150.5t119.5-55.5q81 0 119 55.5t38 150.5-38 149-120 54-119-54-37-149z"/><path transform="translate(36.05 14.966) scale(.014 -.014)" d="m502 191q0-95-69-148t-186-53q-60 0-111 9t-85 25v86q36-16 89.5-29t110.5-13q80 0 120.5 31t40.5 84q0 35-15 59t-51.5 44.5-101.5 43.5q-91 33-137.5 81t-46.5 131q0 57 29 97.5t80.5 62.5 118.5 22q59 0 108-11t89-29l-28-77q-37 16-80.5 27t-90.5 11q-67 0-101-28.5t-34-75.5q0-36 15-60t49-43 92-41q63-23 106.5-49.5t66-63.5 22.5-93z"/><path transform="translate(43.736 14.966) scale(.014 -.014)" d="m288 545q98 0 145-43t47-137v-365h-64l-17 76h-4q-35-44-73.5-65t-106.5-21q-73 0-121 38.5t-48 120.5q0 80 63 123.5t194 47.5l91 3v32q0 67-29 93t-82 26q-42 0-80-12.5t-71-28.5l-27 66q35 19 83 32.5t100 13.5zm26-286q-100-4-138.5-32t-38.5-79q0-45 27.5-66t70.5-21q68 0 113 37.5t45 115.5v48z"/><path transform="translate(51.59 14.966) scale(.014 -.014)" d="m343 546q96 0 145-46.5t49-150.5v-349h-87v343q0 129-120 129-89 0-123-50t-34-144v-278h-88v536h71l13-73h5q26 42 72 62.5t97 20.5z"/><path transform="translate(60.242 14.966) scale(.014 -.014)" d="m434 148q0-78-58-118t-156-40q-56 0-96.5 9t-71.5 25v80q32-16 77.5-29.5t92.5-13.5q67 0 97 21.5t30 57.5q0 20-11 36t-39.5 32-81.5 36q-52 20-89 40t-57 48-20 72q0 68 55.5 105t145.5 37q49 0 91.5-9.5t79.5-26.5l-30-70q-34 14-71 24t-76 10q-54 0-82.5-17.5t-28.5-47.5q0-22 13-37.5t43.5-30 81.5-34.5q51-19 87-39t55-48.5 19-71.5z"/><path transform="translate(70.364 14.966) scale(.014 -.014)" d="m720 358q0-111-37.5-193.5t-110.5-128.5-181-46q-111 0-184.5 46t-109.5 129-36 194q0 110 36 192t109.5 128 185.5 46q107 0 180-45.5t110.5-128 37.5-193.5zm-564 0q0-135 57-212.5t178-77.5q122 0 178 77.5t56 212.5-56 211.5-177 76.5-178.5-76.5-57.5-211.5z"/><path transform="translate(81.298 14.966) scale(.014 -.014)" d="m173 0h-88v760h88z"/><path transform="translate(84.91 14.966) scale(.014 -.014)" d="m275-10q-100 0-160 69.5t-60 207.5 60.5 208.5 160.5 70.5q62 0 101.5-23t64.5-56h6q-1 13-3.5 38.5t-2.5 40.5v214h88v-760h-71l-13 72h-4q-24-34-64-58t-103-24zm14 73q85 0 119.5 46.5t34.5 140.5v16q0 100-33 153.5t-122 53.5q-71 0-106.5-56.5t-35.5-151.5q0-96 35.5-149t107.5-53z"/><path transform="translate(96.936 14.966) scale(.014 -.014)" d="m286 714q140 0 204-55t64-155q0-59-26.5-110.5t-89-83.5-169.5-32h-82v-278h-90v714zm-8-77h-91v-282h72q102 0 152 33t50 112q0 69-44 103t-139 34z"/><path transform="translate(105.41 14.966) scale(.014 -.014)" d="m292 546q69 0 118.5-30t76-84.5 26.5-127.5v-53h-367q2-91 46.5-138.5t124.5-47.5q51 0 90.5 9.5t81.5 27.5v-77q-41-18-81-26.5t-95-8.5q-76 0-134.5 31t-91 92.5-32.5 150.5q0 88 29.5 151t83 97 124.5 34zm-1-72q-63 0-99.5-40.5t-43.5-112.5h273q-1 68-32 110.5t-98 42.5z"/><path transform="translate(113.3 14.966) scale(.014 -.014)" d="m335 546q15 0 32.5-1.5t30.5-4.5l-11-81q-13 3-28.5 5t-29.5 2q-41 0-77-22.5t-57.5-63-21.5-94.5v-286h-88v536h72l10-98h4q26 44 67 76t97 32z"/><path transform="translate(119.08 14.966) scale(.014 -.014)" d="m673 546q91 0 136-46.5t45-150.5v-349h-87v345q0 127-109 127-78 0-111.5-45t-33.5-131v-296h-87v345q0 127-110 127-81 0-112-50t-31-144v-278h-88v536h71l13-73h5q25 42 67.5 62.5t90.5 20.5q126 0 164-90h5q27 46 73.5 68t98.5 22z"/><path transform="translate(132.17 14.966) scale(.014 -.014)" d="m130 737q20 0 35.5-13.5t15.5-42.5q0-28-15.5-42t-35.5-14q-22 0-37 14t-15 42q0 29 15 42.5t37 13.5zm43-201v-536h-88v536z"/><path transform="translate(135.79 14.966) scale(.014 -.014)" d="m300-10q-71 0-126.5 29t-87 90-31.5 156q0 99 33 161t89.5 91 128.5 29q41 0 79-8.5t62-20.5l-27-73q-24 9-56 17t-60 8q-158 0-158-203 0-97 38.5-148.5t114.5-51.5q44 0 77.5 9t61.5 22v-78q-27-14-59.5-21.5t-78.5-7.5z"/></svg>