<svg width="187.01" height="18.752" viewBox="0 0 187.01 18.752" xmlns="http://www.w3.org/2000/svg"><path transform="translate(0 16.88) scale(.016 -.016)" d="m663 0h-105l-382 593h-4q2-35 5-87t3-107v-399h-83v714h104l381-591h4q-1 16-2.5 48t-3 70-1.5 70v403h84z"/><path transform="translate(12.16 16.88) scale(.016 -.016)" d="m551 269q0-89-30.5-151.5t-86.5-95-133-32.5q-71 0-126.5 32.5t-87.5 95-32 151.5q0 133 67 205t182 72q73 0 128.5-32.5t87-94 31.5-150.5zm-405 0q0-95 37.5-150.5t119.5-55.5q81 0 119 55.5t38 150.5q0 64-17 109t-51.5 69.5-89.5 24.5q-82 0-119-54t-37-149z"/><path transform="translate(21.84 16.88) scale(.016 -.016)" d="m264 62q20 0 41 3.5t34 7.5v-67q-14-7-40-11.5t-50-4.5q-42 0-77.5 14.5t-57.5 50.5-22 101v312h-76v42l77 35 35 114h52v-123h155v-68h-155v-310q0-49 23.5-72.5t60.5-23.5z"/><path transform="translate(27.616 16.88) scale(.016 -.016)" d="m551 269q0-89-30.5-151.5t-86.5-95-133-32.5q-71 0-126.5 32.5t-87.5 95-32 151.5q0 133 67 205t182 72q73 0 128.5-32.5t87-94 31.5-150.5zm-405 0q0-95 37.5-150.5t119.5-55.5q81 0 119 55.5t38 150.5q0 64-17 109t-51.5 69.5-89.5 24.5q-82 0-119-54t-37-149z"/><path transform="translate(46.896 16.88) scale(.016 -.016)" d="M323 0H233V635H10V714H545V635H323Z"/><path transform="translate(55.792 16.88) scale(.016 -.016)" d="m335 546q15 0 32.5-1.5t30.5-4.5l-11-81q-13 3-28.5 5t-29.5 2q-41 0-77-22.5t-57.5-63-21.5-94.5v-286h-88v536h72l10-98h4q26 44 67 76t97 32z"/><path transform="translate(62.4 16.88) scale(.016 -.016)" d="m288 545q98 0 145-43t47-137v-365h-64l-17 76h-4q-35-44-73.5-65t-106.5-21q-73 0-121 38.5t-48 120.5q0 80 63 123.5t194 47.5l91 3v32q0 67-29 93t-82 26q-42 0-80-12.5t-71-28.5l-27 66q35 19 83 32.5t100 13.5zm26-286q-100-4-138.5-32t-38.5-79q0-45 27.5-66t70.5-21q68 0 113 37.5t45 115.5v48z"/><path transform="translate(71.376 16.88) scale(.016 -.016)" d="m275-10q-100 0-160 69.5t-60 207.5 60.5 208.5 160.5 70.5q62 0 101.5-23t64.5-56h6q-1 13-3.5 38.5t-2.5 40.5v214h88v-760h-71l-13 72h-4q-24-34-64-58t-103-24zm14 73q85 0 119.5 46.5t34.5 140.5v16q0 100-33 153.5t-122 53.5q-71 0-106.5-56.5t-35.5-151.5q0-96 35.5-149t107.5-53z"/><path transform="translate(81.216 16.88) scale(.016 -.016)" d="m173 536v-536h-88v536zm-43 201q20 0 35.5-13.5t15.5-42.5q0-28-15.5-42t-35.5-14q-22 0-37 14t-15 42q0 29 15 42.5t37 13.5z"/><path transform="translate(85.344 16.88) scale(.016 -.016)" d="m264 62q20 0 41 3.5t34 7.5v-67q-14-7-40-11.5t-50-4.5q-42 0-77.5 14.5t-57.5 50.5-22 101v312h-76v42l77 35 35 114h52v-123h155v-68h-155v-310q0-49 23.5-72.5t60.5-23.5z"/><path transform="translate(91.12 16.88) scale(.016 -.016)" d="m173 536v-536h-88v536zm-43 201q20 0 35.5-13.5t15.5-42.5q0-28-15.5-42t-35.5-14q-22 0-37 14t-15 42q0 29 15 42.5t37 13.5z"/><path transform="translate(95.248 16.88) scale(.016 -.016)" d="m551 269q0-89-30.5-151.5t-86.5-95-133-32.5q-71 0-126.5 32.5t-87.5 95-32 151.5q0 133 67 205t182 72q73 0 128.5-32.5t87-94 31.5-150.5zm-405 0q0-95 37.5-150.5t119.5-55.5q81 0 119 55.5t38 150.5q0 64-17 109t-51.5 69.5-89.5 24.5q-82 0-119-54t-37-149z"/><path transform="translate(104.93 16.88) scale(.016 -.016)" d="m343 546q96 0 145-46.5t49-150.5v-349h-87v343q0 65-29 97t-91 32q-89 0-123-50t-34-144v-278h-88v536h71l13-73h5q26 42 72 62.5t97 20.5z"/><path transform="translate(114.82 16.88) scale(.016 -.016)" d="m288 545q98 0 145-43t47-137v-365h-64l-17 76h-4q-35-44-73.5-65t-106.5-21q-73 0-121 38.5t-48 120.5q0 80 63 123.5t194 47.5l91 3v32q0 67-29 93t-82 26q-42 0-80-12.5t-71-28.5l-27 66q35 19 83 32.5t100 13.5zm26-286q-100-4-138.5-32t-38.5-79q0-45 27.5-66t70.5-21q68 0 113 37.5t45 115.5v48z"/><path transform="translate(123.79 16.88) scale(.016 -.016)" d="m173 0h-88v760h88z"/><path transform="translate(137.52 16.88) scale(.016 -.016)" d="m663 0h-105l-382 593h-4q2-35 5-87t3-107v-399h-83v714h104l381-591h4q-1 16-2.5 48t-3 70-1.5 70v403h84z"/><path transform="translate(149.68 16.88) scale(.016 -.016)" d="m533 536v-536h-72l-13 71h-4q-26-42-72-61.5t-98-19.5q-97 0-146 46.5t-49 148.5v351h89v-345q0-64 29-96t90-32q89 0 123.5 50t34.5 144v279z"/><path transform="translate(159.57 16.88) scale(.016 -.016)" d="m434 148q0-78-58-118t-156-40q-56 0-96.5 9t-71.5 25v80q32-16 77.5-29.5t92.5-13.5q67 0 97 21.5t30 57.5q0 20-11 36t-39.5 32-81.5 36q-52 20-89 40t-57 48-20 72q0 68 55.5 105t145.5 37q49 0 91.5-9.5t79.5-26.5l-30-70q-34 14-71 24t-76 10q-54 0-82.5-17.5t-28.5-47.5q0-22 13-37.5t43.5-30 81.5-34.5q51-19 87-39t55-48.5 19-71.5z"/><path transform="translate(167.23 16.88) scale(.016 -.016)" d="m173 537q0-19-1.5-39t-3.5-36h6q26 41 70.5 62t96.5 21q98 0 147-46.5t49-149.5v-349h-87v343q0 65-29 97t-91 32q-90 0-123.5-50.5t-33.5-144.5v-277h-88v760h88z"/><path transform="translate(177.12 16.88) scale(.016 -.016)" d="m533 536v-536h-72l-13 71h-4q-26-42-72-61.5t-98-19.5q-97 0-146 46.5t-49 148.5v351h89v-345q0-64 29-96t90-32q89 0 123.5 50t34.5 144v279z"/></svg>