<svg width="141.97" height="27.248" viewBox="0 0 141.97 27.248" xmlns="http://www.w3.org/2000/svg"><path transform="translate(0 17.104) scale(.016 -.016)" d="m38 0v42h13q34 0 58 12.5t24 59.5v490q0 44-24.5 56t-57.5 12h-13v42h183l358-553v443q0 44-24.5 56t-57.5 12h-13v42h251v-42h-13q-34 0-58-12.5t-24-59.5v-600h-71l-375 576v-462q0-47 24-59.5t58-12.5h13v-42z"/><path transform="translate(12.208 17.104) scale(.016 -.016)" d="m287-10q-108 0-170 69t-62 210q0 140 59.5 208.5t175.5 68.5q108 0 170-68.5t62-208.5q0-141-59.5-210t-175.5-69zm2 52q75 0 105.5 57.5t30.5 169.5-31 168-106 56-105.5-56-30.5-168 31-169.5 106-57.5z"/><path transform="translate(21.44 17.104) scale(.016 -.016)" d="m240-10q-76 0-110.5 34.5t-34.5 120.5v334h-76v40q18 0 40 7.5t38 24.5q17 18 28 44t18 64h46v-123h131v-57h-131v-337q0-51 21-75t55-24q18 0 33 2t31 5v-44q-13-6-39-11t-50-5z"/><path transform="translate(27.072 17.104) scale(.016 -.016)" d="m287-10q-108 0-170 69t-62 210q0 140 59.5 208.5t175.5 68.5q108 0 170-68.5t62-208.5q0-141-59.5-210t-175.5-69zm2 52q75 0 105.5 57.5t30.5 169.5-31 168-106 56-105.5-56-30.5-168 31-169.5 106-57.5z"/><path transform="translate(39.84 17.104) scale(.016 -.016)" d="m38 0v42h13q34 0 58 12.5t24 59.5v490q0 44-24.5 56t-57.5 12h-13v42h183l358-553v443q0 44-24.5 56t-57.5 12h-13v42h251v-42h-13q-34 0-58-12.5t-24-59.5v-600h-71l-375 576v-462q0-47 24-59.5t58-12.5h13v-42z"/><path transform="translate(52.048 17.104) scale(.016 -.016)" d="m205-10q-67 0-111 39t-44 121q0 80 56.5 118t171.5 42l83 3v60q0 36-6 63.5t-26 43.5-61 16q-38 0-58-14t-26.5-38.5-6.5-56.5q-42 0-63.5 14.5t-21.5 48.5q0 35 24.5 56t65.5 30.5 90 9.5q92 0 137.5-39t45.5-134v-259q0-42 14-57t48-15h3v-42h-135l-16 86h-8q-21-28-41-49.5t-46.5-34-68.5-12.5zm23 62q61 0 97 37.5t36 101.5v81l-64-3q-85-4-117.5-34.5t-32.5-89.5q0-93 81-93z"/><path transform="translate(61.056 17.104) scale(.016 -.016)" d="m210-10q-75 0-120 27t-45 79q0 27 11 42t25.5 21 26.5 6q0-52 23.5-89.5t84.5-37.5q53 0 81.5 25.5t28.5 65.5q0 25-10.5 41t-37 31.5-75.5 36.5q-51 23-84.5 44.5t-50 50-16.5 71.5q0 68 51.5 104.5t136.5 36.5q48 0 80.5-12.5t49-33.5 16.5-46q0-27-18.5-43.5t-53.5-16.5q0 50-21 78t-65 28q-51 0-73-22.5t-22-57.5q0-25 12.5-42t40-31.5 71.5-32.5q53-22 86-44t48.5-51 15.5-71q0-78-54-117.5t-143-39.5z"/><path transform="translate(68.272 17.104) scale(.016 -.016)" d="m18 0v42h8q23 0 41.5 5t29.5 20.5 11 46.5v536q0 30-11.5 44.5t-30 19-40.5 4.5h-8v42h184v-386q0-13-0.5-34t-1.5-42-1.5-35.5-0.5-14.5l125 137q32 36 43.5 55.5t11.5 33.5q0 13-12 16.5t-37 3.5v42h221v-42q-34 0-68-24.5t-73-68.5l-70-79 133-198q26-40 51.5-61t59.5-21h3v-42h-14q-43 0-72 3t-48.5 12.5-37 29-38.5 52.5l-100 157-74-55v-90q0-29 11.5-43.5t30-19 40.5-4.5h3v-42z"/><path transform="translate(77.632 17.104) scale(.016 -.016)" d="m18 0v42h8q34 0 58 12.5t24 59.5v536q0 30-11.5 44.5t-30 19-40.5 4.5h-8v42h184v-220q0-18-1-37.5t-2-33.5-1-14h5q15 30 36.5 50.5t49 30.5 61.5 10q86 0 131.5-46.5t45.5-149.5v-236q0-47 21.5-59.5t55.5-12.5h3v-42h-174v345q0 65-24.5 101t-85.5 36q-41 0-68-20t-40-56.5-13-85.5v-211q0-44 24.5-55.5t57.5-11.5h3v-42z"/><path transform="translate(91.328 17.104) scale(.016 -.016)" d="m0 0v42h19q29 0 43.5 15t32.5 63l222 594h78l226-619q11-31 26.5-42t44.5-11h13v-42h-275v42h23q30 0 45 11.5t15 36.5q0 8-2 17t-6 20l-40 112h-263l-38-105q-4-12-6.5-23.5t-2.5-19.5q0-25 16.5-37t49.5-12h23v-42zm221 289h226l-62 175q-16 44-29 83t-21 75q-7-36-18-69t-28-80z"/><path transform="translate(102.61 17.104) scale(.016 -.016)" d="m33 0v42h3q34 0 58 12.5t24 59.5v312q0 44-24.5 56t-57.5 12h-3v42h154l19-99h5q13 30 28 55t40 39.5 69 14.5q55 0 81.5-19t26.5-54q0-31-21.5-51t-71.5-20q0 41-12 59.5t-41 18.5q-28 0-47-22t-30-56-16-70.5-5-65.5v-157q0-44 24.5-55.5t57.5-11.5h28v-42z"/><path transform="translate(110.14 17.104) scale(.016 -.016)" d="m205-10q-67 0-111 39t-44 121q0 80 56.5 118t171.5 42l83 3v60q0 36-6 63.5t-26 43.5-61 16q-38 0-58-14t-26.5-38.5-6.5-56.5q-42 0-63.5 14.5t-21.5 48.5q0 35 24.5 56t65.5 30.5 90 9.5q92 0 137.5-39t45.5-134v-259q0-42 14-57t48-15h3v-42h-135l-16 86h-8q-21-28-41-49.5t-46.5-34-68.5-12.5zm23 62q61 0 97 37.5t36 101.5v81l-64-3q-85-4-117.5-34.5t-32.5-89.5q0-93 81-93z"/><path transform="translate(119.15 17.104) scale(.016 -.016)" d="m355-10q-58 0-94.5 24.5t-58.5 63.5h-6l-18-78h-160v42h8q23 0 41.5 5t29.5 20.5 11 46.5v536q0 44-24.5 56t-57.5 12h-8v42h184v-184q0-17-0.5-43.5t-1.5-51-2-35.5h4q23 46 59 73t94 27q99 0 151.5-66.5t52.5-210.5q0-145-52.5-212t-151.5-67zm-16 64q66 0 94.5 55.5t28.5 160.5q0 107-28.5 159.5t-95.5 52.5q-78 0-107-52.5t-29-160.5q0-104 29-159.5t108-55.5z"/><path transform="translate(128.98 17.104) scale(.016 -.016)" d="m23 0v42h13q22 0 40.5 4.5t30 19 11.5 43.5v317q0 30-11.5 44.5t-30 19-40.5 4.5h-3v42h179v-422q0-31 11-46.5t30-20.5 41-5h13v-42zm138 636q-24 0-40.5 14t-16.5 48q0 35 16.5 48.5t40.5 13.5q23 0 40-13.5t17-48.5q0-34-17-48t-40-14z"/><path transform="translate(134.1 17.104) scale(.016 -.016)" d="m283-10q-66 0-117.5 28t-81 88.5-29.5 158.5q0 107 29.5 168.5t80 87 113.5 25.5q42 0 82-11t66-33.5 26-57.5q0-23-10-37t-29.5-20-49.5-6q0 32-7.5 58t-25.5 41.5-52 15.5q-38 0-66.5-20t-44-70-15.5-140q0-106 35.5-158.5t115.5-52.5q47 0 81.5 19.5t51.5 50.5q8-6 12.5-15.5t4.5-23.5q0-23-19-45t-56.5-36.5-94.5-14.5z"/></svg>