<svg width="125.82" height="23.904" viewBox="0 0 125.82 23.904" xmlns="http://www.w3.org/2000/svg"><path transform="translate(0 18.08) scale(.016 -.016)" d="m38 0v42h13q34 0 58 12.5t24 59.5v490q0 44-24.5 56t-57.5 12h-13v42h183l358-553v443q0 44-24.5 56t-57.5 12h-13v42h251v-42h-13q-34 0-58-12.5t-24-59.5v-600h-71l-375 576v-462q0-47 24-59.5t58-12.5h13v-42z"/><path transform="translate(12.208 18.08) scale(.016 -.016)" d="m287-10q-108 0-170 69t-62 210q0 140 59.5 208.5t175.5 68.5q108 0 170-68.5t62-208.5q0-141-59.5-210t-175.5-69zm2 52q75 0 105.5 57.5t30.5 169.5-31 168-106 56-105.5-56-30.5-168 31-169.5 106-57.5z"/><path transform="translate(21.44 18.08) scale(.016 -.016)" d="m240-10q-76 0-110.5 34.5t-34.5 120.5v334h-76v40q18 0 40 7.5t38 24.5q17 18 28 44t18 64h46v-123h131v-57h-131v-337q0-51 21-75t55-24q18 0 33 2t31 5v-44q-13-6-39-11t-50-5z"/><path transform="translate(27.072 18.08) scale(.016 -.016)" d="m287-10q-108 0-170 69t-62 210q0 140 59.5 208.5t175.5 68.5q108 0 170-68.5t62-208.5q0-141-59.5-210t-175.5-69zm2 52q75 0 105.5 57.5t30.5 169.5-31 168-106 56-105.5-56-30.5-168 31-169.5 106-57.5z"/><path transform="translate(40.144 18.08) scale(.016 -.016)" d="m247-10q-98 0-148.5 39t-50.5 102q0 30 19 48.5t53 18.5q2-41 16-77.5t43-59 76-22.5q67 0 105 32.5t38 93.5q0 37-14.5 62.5t-48 47.5-92.5 46q-93 38-138.5 89t-45.5 133q0 57 28.5 97.5t78 62 112.5 21.5q89 0 138-34t49-78q0-32-21.5-48.5t-57.5-16.5q0 31-10.5 60t-35 48-66.5 19q-58 0-90-31t-32-83q0-40 14.5-67.5t48.5-49 92-45.5q88-36 137-83t49-124q0-95-66.5-148t-179.5-53z"/><path transform="translate(48.848 18.08) scale(.016 -.016)" d="m287-10q-109 0-170.5 72t-61.5 202q0 140 58 211t164 71q97 0 152.5-60t55.5-179v-46h-333q2-109 39.5-158.5t109.5-49.5q52 0 88.5 21.5t54.5 48.5q7-3 13-12t6-22q0-20-19-43t-58-39.5-99-16.5zm97 325q0 80-24.5 128.5t-84.5 48.5q-55 0-85.5-45.5t-35.5-131.5z"/><path transform="translate(57.408 18.08) scale(.016 -.016)" d="m33 0v42h3q34 0 58 12.5t24 59.5v312q0 44-24.5 56t-57.5 12h-3v42h154l19-99h5q13 30 28 55t40 39.5 69 14.5q55 0 81.5-19t26.5-54q0-31-21.5-51t-71.5-20q0 41-12 59.5t-41 18.5q-28 0-47-22t-30-56-16-70.5-5-65.5v-157q0-44 24.5-55.5t57.5-11.5h28v-42z"/><path transform="translate(64.944 18.08) scale(.016 -.016)" d="m161 636q-24 0-40.5 14t-16.5 48q0 35 16.5 48.5t40.5 13.5q23 0 40-13.5t17-48.5q0-34-17-48t-40-14zm-138-636v42h13q33 0 57.5 11.5t24.5 55.5v317q0 44-24.5 56t-57.5 12h-3v42h179v-422q0-47 24-59.5t58-12.5h13v-42z"/><path transform="translate(70.064 18.08) scale(.016 -.016)" d="m27 0v42h13q34 0 58 12.5t24 59.5v375h-91v47h91v50q0 89 47.5 136.5t129.5 47.5q78 0 109-19.5t31-50.5q0-27-23-41.5t-59-14.5q0 30-14 55t-52 25q-43 0-59-33t-16-96v-59h141v-47h-141v-375q0-47 24-59.5t58-12.5h38v-42z"/><path transform="translate(79.808 18.08) scale(.016 -.016)" d="m38 0v42h13q34 0 58 12.5t24 59.5v490q0 44-24.5 56t-57.5 12h-13v42h306q155 0 240.5-93t85.5-263q0-109-36.5-189.5t-108.5-124.5-181-44zm283 51q119 0 178.5 79.5t59.5 227.5q0 149-59 227.5t-178 78.5h-88v-613z"/><path transform="translate(91.44 18.08) scale(.016 -.016)" d="m287-10q-108 0-170 69t-62 210q0 140 59.5 208.5t175.5 68.5q108 0 170-68.5t62-208.5q0-141-59.5-210t-175.5-69zm2 52q75 0 105.5 57.5t30.5 169.5-31 168-106 56-105.5-56-30.5-168 31-169.5 106-57.5z"/><path transform="translate(100.67 18.08) scale(.016 -.016)" d="m231-240q-104 0-156 38.5t-52 107.5q0 59 38 89t87 39q-20 9-37.5 29.5t-17.5 52.5q0 30 15.5 52t49.5 42q-43 18-66.5 59.5t-23.5 91.5q0 86 47 135.5t141 49.5q36 0 68-10t46-23q14 16 39 35t58 19q30 0 44.5-15.5t14.5-36.5-12.5-36.5-40.5-15.5q0 11-6.5 22.5t-26.5 11.5q-23 0-43-12 17-21 28-49.5t11-71.5q0-74-44.5-123t-135.5-49q-12 0-27.5 1.5t-25.5 3.5q-19-10-33-25t-14-38q0-18 11.5-28t50.5-10h113q89 0 127-42t38-107q0-86-64.5-136.5t-200.5-50.5zm22 480q49 0 69 30t20 95q0 68-20.5 100t-69.5 32q-48 0-69-33t-21-100q0-64 21.5-94t69.5-30zm-20-431q72 0 111 15.5t54.5 43 15.5 62.5q0 46-26 61.5t-76 15.5h-98q-28 0-53-7.5t-41-27.5-16-60q0-29 11-52.5t39-37 79-13.5z"/><path transform="translate(109.28 18.08) scale(.016 -.016)" d="m33 0v42h3q34 0 58 12.5t24 59.5v312q0 44-24.5 56t-57.5 12h-3v42h154l19-99h5q13 30 28 55t40 39.5 69 14.5q55 0 81.5-19t26.5-54q0-31-21.5-51t-71.5-20q0 41-12 59.5t-41 18.5q-28 0-47-22t-30-56-16-70.5-5-65.5v-157q0-44 24.5-55.5t57.5-11.5h28v-42z"/><path transform="translate(116.82 18.08) scale(.016 -.016)" d="m205-10q-67 0-111 39t-44 121q0 80 56.5 118t171.5 42l83 3v60q0 36-6 63.5t-26 43.5-61 16q-38 0-58-14t-26.5-38.5-6.5-56.5q-42 0-63.5 14.5t-21.5 48.5q0 35 24.5 56t65.5 30.5 90 9.5q92 0 137.5-39t45.5-134v-259q0-42 14-57t48-15h3v-42h-135l-16 86h-8q-21-28-41-49.5t-46.5-34-68.5-12.5zm23 62q61 0 97 37.5t36 101.5v81l-64-3q-85-4-117.5-34.5t-32.5-89.5q0-93 81-93z"/></svg>