<svg width="172.3" height="21.792" viewBox="0 0 172.3 21.792" xmlns="http://www.w3.org/2000/svg"><path transform="translate(0 17.104) scale(.016 -.016)" d="m663 0h-105l-382 593h-4q2-35 5-87t3-107v-399h-83v714h104l381-591h4q-1 16-2.5 48t-3 70-1.5 70v403h84z"/><path transform="translate(12.16 17.104) scale(.016 -.016)" d="m551 269q0-133-67.5-206t-182.5-73q-71 0-126.5 32.5t-87.5 95-32 151.5q0 133 67 205t182 72q73 0 128.5-32.5t87-94 31.5-150.5zm-405 0q0-95 37.5-150.5t119.5-55.5q81 0 119 55.5t38 150.5-38 149-120 54-119-54-37-149z"/><path transform="translate(21.84 17.104) scale(.016 -.016)" d="m264 62q20 0 41 3.5t34 7.5v-67q-14-7-40-11.5t-50-4.5q-42 0-77.5 14.5t-57.5 50.5-22 101v312h-76v42l77 35 35 114h52v-123h155v-68h-155v-310q0-49 23.5-72.5t60.5-23.5z"/><path transform="translate(27.616 17.104) scale(.016 -.016)" d="m551 269q0-133-67.5-206t-182.5-73q-71 0-126.5 32.5t-87.5 95-32 151.5q0 133 67 205t182 72q73 0 128.5-32.5t87-94 31.5-150.5zm-405 0q0-95 37.5-150.5t119.5-55.5q81 0 119 55.5t38 150.5-38 149-120 54-119-54-37-149z"/><path transform="translate(41.456 17.104) scale(.016 -.016)" d="m502 191q0-95-69-148t-186-53q-60 0-111 9t-85 25v86q36-16 89.5-29t110.5-13q80 0 120.5 31t40.5 84q0 35-15 59t-51.5 44.5-101.5 43.5q-46 17-80.5 36.5t-57.5 44.5-34.5 57-11.5 74q0 57 29 97.5t80.5 62.5 118.5 22q59 0 108-11t89-29l-28-77q-37 16-80.5 27t-90.5 11q-67 0-101-28.5t-34-75.5q0-36 15-60t49-43 92-41q63-23 106.5-49.5t66-63.5 22.5-93z"/><path transform="translate(50.24 17.104) scale(.016 -.016)" d="m288 545q98 0 145-43t47-137v-365h-64l-17 76h-4q-35-44-73.5-65t-106.5-21q-73 0-121 38.5t-48 120.5q0 80 63 123.5t194 47.5l91 3v32q0 67-29 93t-82 26q-42 0-80-12.5t-71-28.5l-27 66q35 19 83 32.5t100 13.5zm26-286q-100-4-138.5-32t-38.5-79q0-45 27.5-66t70.5-21q68 0 113 37.5t45 115.5v48z"/><path transform="translate(59.216 17.104) scale(.016 -.016)" d="m343 546q96 0 145-46.5t49-150.5v-349h-87v343q0 65-29 97t-91 32q-89 0-123-50t-34-144v-278h-88v536h71l13-73h5q26 42 72 62.5t97 20.5z"/><path transform="translate(69.104 17.104) scale(.016 -.016)" d="m434 148q0-78-58-118t-156-40q-56 0-96.5 9t-71.5 25v80q32-16 77.5-29.5t92.5-13.5q67 0 97 21.5t30 57.5q0 20-11 36t-39.5 32-81.5 36q-52 20-89 40t-57 48-20 72q0 68 55.5 105t145.5 37q49 0 91.5-9.5t79.5-26.5l-30-70q-34 14-71 24t-76 10q-54 0-82.5-17.5t-28.5-47.5q0-22 13-37.5t43.5-30 81.5-34.5q51-19 87-39t55-48.5 19-71.5z"/><path transform="translate(80.928 17.104) scale(.016 -.016)" d="m663 0h-105l-382 593h-4q2-35 5-87t3-107v-399h-83v714h104l381-591h4q-1 16-2.5 48t-3 70-1.5 70v403h84z"/><path transform="translate(93.088 17.104) scale(.016 -.016)" d="m292 546q69 0 118.5-30t76-84.5 26.5-127.5v-53h-367q2-91 46.5-138.5t124.5-47.5q51 0 90.5 9.5t81.5 27.5v-77q-41-18-81-26.5t-95-8.5q-76 0-134.5 31t-91 92.5-32.5 150.5q0 88 29.5 151t83 97 124.5 34zm-1-72q-63 0-99.5-40.5t-43.5-112.5h273q-1 68-32 110.5t-98 42.5z"/><path transform="translate(102.11 17.104) scale(.016 -.016)" d="m431 303q-6 21-12 41.5t-10.5 39-8.5 34.5-6 27h-4q-2-11-5.5-27t-8-35-10-39.5-12.5-41.5l-96-301h-100l-147 536h91l74-286q8-29 15-58.5t12.5-56 7.5-45.5h4q3 12 7 30t8.5 38 10 40 10.5 36l95 302h96l92-302q7-23 14.5-49t13.5-50.5 8-43.5h4q2 17 7.5 42.5t13 56 15.5 60.5l75 286h90l-149-536h-103z"/><path transform="translate(118.85 17.104) scale(.016 -.016)" d="M323 0H233V635H10V714H545V635H323Z"/><path transform="translate(127.74 17.104) scale(.016 -.016)" d="m288 545q98 0 145-43t47-137v-365h-64l-17 76h-4q-35-44-73.5-65t-106.5-21q-73 0-121 38.5t-48 120.5q0 80 63 123.5t194 47.5l91 3v32q0 67-29 93t-82 26q-42 0-80-12.5t-71-28.5l-27 66q35 19 83 32.5t100 13.5zm26-286q-100-4-138.5-32t-38.5-79q0-45 27.5-66t70.5-21q68 0 113 37.5t45 115.5v48z"/><path transform="translate(136.72 17.104) scale(.016 -.016)" d="m173 536v-536h-88v536zm-43 201q20 0 35.5-13.5t15.5-42.5q0-28-15.5-42t-35.5-14q-22 0-37 14t-15 42q0 29 15 42.5t37 13.5z"/><path transform="translate(145.01 17.104) scale(.016 -.016)" d="M97 0V714H187V80H499V0Z"/><path transform="translate(153.39 17.104) scale(.016 -.016)" d="m533 536v-536h-72l-13 71h-4q-26-42-72-61.5t-98-19.5q-97 0-146 46.5t-49 148.5v351h89v-345q0-64 29-96t90-32q89 0 123.5 50t34.5 144v279z"/><path transform="translate(163.28 17.104) scale(.016 -.016)" d="m292 546q69 0 118.5-30t76-84.5 26.5-127.5v-53h-367q2-91 46.5-138.5t124.5-47.5q51 0 90.5 9.5t81.5 27.5v-77q-41-18-81-26.5t-95-8.5q-76 0-134.5 31t-91 92.5-32.5 150.5q0 88 29.5 151t83 97 124.5 34zm-1-72q-63 0-99.5-40.5t-43.5-112.5h273q-1 68-32 110.5t-98 42.5z"/></svg>