<svg width="142.5" height="40" viewBox="0 0 142.5 40" xmlns="http://www.w3.org/2000/svg"><path transform="translate(0 30.464) scale(.016 -.016)" d="m38 0v42h13q34 0 58 12.5t24 59.5v490q0 44-24.5 56t-57.5 12h-13v42h183l358-553v443q0 44-24.5 56t-57.5 12h-13v42h251v-42h-13q-34 0-58-12.5t-24-59.5v-600h-71l-375 576v-462q0-47 24-59.5t58-12.5h13v-42z"/><path transform="translate(12.208 30.464) scale(.016 -.016)" d="m287-10q-108 0-170 69t-62 210q0 140 59.5 208.5t175.5 68.5q108 0 170-68.5t62-208.5q0-141-59.5-210t-175.5-69zm2 52q75 0 105.5 57.5t30.5 169.5-31 168-106 56-105.5-56-30.5-168 31-169.5 106-57.5z"/><path transform="translate(21.44 30.464) scale(.016 -.016)" d="m240-10q-76 0-110.5 34.5t-34.5 120.5v334h-76v40q18 0 40 7.5t38 24.5q17 18 28 44t18 64h46v-123h131v-57h-131v-337q0-51 21-75t55-24q18 0 33 2t31 5v-44q-13-6-39-11t-50-5z"/><path transform="translate(27.072 30.464) scale(.016 -.016)" d="m287-10q-108 0-170 69t-62 210q0 140 59.5 208.5t175.5 68.5q108 0 170-68.5t62-208.5q0-141-59.5-210t-175.5-69zm2 52q75 0 105.5 57.5t30.5 169.5-31 168-106 56-105.5-56-30.5-168 31-169.5 106-57.5z"/><path transform="translate(38.416 30.464) scale(.016 -.016)" d="m38 0v42h13q34 0 58 12.5t24 59.5v490q0 44-24.5 56t-57.5 12h-13v42h183l358-553v443q0 44-24.5 56t-57.5 12h-13v42h251v-42h-13q-34 0-58-12.5t-24-59.5v-600h-71l-375 576v-462q0-47 24-59.5t58-12.5h13v-42z"/><path transform="translate(50.624 30.464) scale(.016 -.016)" d="m205-10q-67 0-111 39t-44 121q0 80 56.5 118t171.5 42l83 3v60q0 36-6 63.5t-26 43.5-61 16q-38 0-58-14t-26.5-38.5-6.5-56.5q-42 0-63.5 14.5t-21.5 48.5q0 35 24.5 56t65.5 30.5 90 9.5q92 0 137.5-39t45.5-134v-259q0-42 14-57t48-15h3v-42h-135l-16 86h-8q-21-28-41-49.5t-46.5-34-68.5-12.5zm23 62q61 0 97 37.5t36 101.5v81l-64-3q-85-4-117.5-34.5t-32.5-89.5q0-93 81-93z"/><path transform="translate(59.632 30.464) scale(.016 -.016)" d="m210-10q-75 0-120 27t-45 79q0 27 11 42t25.5 21 26.5 6q0-52 23.5-89.5t84.5-37.5q53 0 81.5 25.5t28.5 65.5q0 25-10.5 41t-37 31.5-75.5 36.5q-51 23-84.5 44.5t-50 50-16.5 71.5q0 68 51.5 104.5t136.5 36.5q48 0 80.5-12.5t49-33.5 16.5-46q0-27-18.5-43.5t-53.5-16.5q0 50-21 78t-65 28q-51 0-73-22.5t-22-57.5q0-25 12.5-42t40-31.5 71.5-32.5q53-22 86-44t48.5-51 15.5-71q0-78-54-117.5t-143-39.5z"/><path transform="translate(66.848 30.464) scale(.016 -.016)" d="m240-10q-76 0-110.5 34.5t-34.5 120.5v334h-76v40q18 0 40 7.5t38 24.5q17 18 28 44t18 64h46v-123h131v-57h-131v-337q0-51 21-75t55-24q18 0 33 2t31 5v-44q-13-6-39-11t-50-5z"/><path transform="translate(72.48 30.464) scale(.016 -.016)" d="m205-10q-67 0-111 39t-44 121q0 80 56.5 118t171.5 42l83 3v60q0 36-6 63.5t-26 43.5-61 16q-38 0-58-14t-26.5-38.5-6.5-56.5q-42 0-63.5 14.5t-21.5 48.5q0 35 24.5 56t65.5 30.5 90 9.5q92 0 137.5-39t45.5-134v-259q0-42 14-57t48-15h3v-42h-135l-16 86h-8q-21-28-41-49.5t-46.5-34-68.5-12.5zm23 62q61 0 97 37.5t36 101.5v81l-64-3q-85-4-117.5-34.5t-32.5-89.5q0-93 81-93z"/><path transform="translate(81.488 30.464) scale(.016 -.016)" d="m13 0v42h13q23 0 41.5 5t29.5 20.5 11 46.5v536q0 30-11.5 44.5t-30 19-40.5 4.5h-13v42h189v-646q0-31 11-46.5t30-20.5 41-5h13v-42z"/><path transform="translate(86.448 30.464) scale(.016 -.016)" d="m23 0v42h13q22 0 40.5 4.5t30 19 11.5 43.5v317q0 30-11.5 44.5t-30 19-40.5 4.5h-3v42h179v-422q0-31 11-46.5t30-20.5 41-5h13v-42zm138 636q-24 0-40.5 14t-16.5 48q0 35 16.5 48.5t40.5 13.5q23 0 40-13.5t17-48.5q0-34-17-48t-40-14z"/><path transform="translate(91.568 30.464) scale(.016 -.016)" d="m297-240v42h33q34 0 58 12.5t24 59.5v86q0 16 0.5 40.5t1.5 49.5 2 40h-4q-22-46-58-73t-95-27q-99 0-151.5 66.5t-52.5 210.5q0 145 52.5 212t151.5 67q58 0 94.5-24.5t58.5-63.5h6l18 78h160v-42h-8q-22 0-41-5t-30-20-11-47v-552q0-44 24.5-56t57.5-12h8v-42zm-21 294q78 0 107 52.5t29 160.5q0 104-29 159.5t-108 55.5q-66 0-94.5-55.5t-28.5-160.5q0-106 28.5-159t95.5-53z"/><path transform="translate(103.5 30.464) scale(.016 -.016)" d="m362-10q-118 0-185 52t-67 174v388q0 44-24.5 56t-57.5 12h-13v42h291v-42h-13q-34 0-58-12.5t-24-59.5v-390q0-87 47-123.5t120-36.5q86 0 127 44t41 112v398q0 44-24.5 56t-57.5 12h-13v42h251v-42h-13q-34 0-58-12.5t-24-59.5v-396q0-100-63-157t-182-57z"/><path transform="translate(114.98 30.464) scale(.016 -.016)" d="m33 0v42h3q34 0 58 12.5t24 59.5v312q0 44-24.5 56t-57.5 12h-3v42h154l19-99h5q13 30 28 55t40 39.5 69 14.5q55 0 81.5-19t26.5-54q0-31-21.5-51t-71.5-20q0 41-12 59.5t-41 18.5q-28 0-47-22t-30-56-16-70.5-5-65.5v-157q0-44 24.5-55.5t57.5-11.5h28v-42z"/><path transform="translate(122.51 30.464) scale(.016 -.016)" d="m259-10q-99 0-151.5 66.5t-52.5 210.5q0 145 52.5 212t151.5 67q58 0 94.5-24.5t58.5-63.5h6q-3 25-4.5 55.5t-1.5 54.5v82q0 44-24.5 56t-57.5 12h-8v42h184v-650q0-29 11.5-44t30-19.5 40.5-4.5h8v-42h-169l-11 90h-4q-22-46-58-73t-95-27zm17 64q78 0 107 52.5t29 160.5q0 104-29 159.5t-108 55.5q-66 0-94.5-55.5t-28.5-160.5q0-106 28.5-159t95.5-53z"/><path transform="translate(132.34 30.464) scale(.016 -.016)" d="m273-10q-79 0-122 46.5t-43 149.5v240q0 44-24.5 56t-57.5 12h-3v42h179v-345q0-65 22-101t83-36q66 0 96 44.5t30 117.5v206q0 47-24 59.5t-58 12.5h-3v42h179v-427q0-44 24.5-55.5t57.5-11.5h3v-42h-159l-13 81h-5q-31-56-72-73.5t-90-17.5z"/></svg>