<svg width="106.08" height="19.068" viewBox="0 0 106.08 19.068" xmlns="http://www.w3.org/2000/svg"><path transform="translate(0 14.966) scale(.014 -.014)" d="m663 0h-105l-382 593h-4q2-23 3.5-54.5t3-67 1.5-72.5v-399h-83v714h104l381-591h4q-1 16-2.5 48t-3 70-1.5 70v403h84z"/><path transform="translate(10.64 14.966) scale(.014 -.014)" d="m551 269q0-67-17.5-118.5t-50-87.5-79-54.5-103.5-18.5q-53 0-98 18.5t-78 54.5-51.5 87.5-18.5 118.5q0 89 30 150.5t86 94 133 32.5q73 0 128.5-32.5t87-94 31.5-150.5zm-405 0q0-63 16.5-109.5t51.5-71.5 89-25 89 25 51.5 71.5 16.5 109.5q0 64-17 109t-51.5 69.5-89.5 24.5q-82 0-119-54t-37-149z"/><path transform="translate(19.11 14.966) scale(.014 -.014)" d="m264 62q20 0 41 3.5t34 7.5v-67q-14-7-40-11.5t-50-4.5q-42 0-77.5 14.5t-57.5 50.5-22 101v312h-76v42l77 35 35 114h52v-123h155v-68h-155v-310q0-49 23.5-72.5t60.5-23.5z"/><path transform="translate(24.164 14.966) scale(.014 -.014)" d="m551 269q0-67-17.5-118.5t-50-87.5-79-54.5-103.5-18.5q-53 0-98 18.5t-78 54.5-51.5 87.5-18.5 118.5q0 89 30 150.5t86 94 133 32.5q73 0 128.5-32.5t87-94 31.5-150.5zm-405 0q0-63 16.5-109.5t51.5-71.5 89-25 89 25 51.5 71.5 16.5 109.5q0 64-17 109t-51.5 69.5-89.5 24.5q-82 0-119-54t-37-149z"/><path transform="translate(36.246 14.966) scale(.014 -.014)" d="m502 191q0-64-31-108.5t-88.5-68.5-135.5-24q-40 0-76.5 4t-66.5 11.5-53 18.5v86q36-16 89.5-29t110.5-13q53 0 89 14t54 40 18 61-15 59-51.5 44.5-101.5 43.5q-61 22-102 50t-61.5 67.5-20.5 94.5q0 57 29 97.5t80.5 62.5 118.5 22q59 0 108-11t89-29l-28-77q-37 16-80.5 27t-90.5 11q-45 0-75-13t-45-36.5-15-54.5q0-36 15-60t49-43 92-41q63-23 106.5-49.5t66-63.5 22.5-93z"/><path transform="translate(43.932 14.966) scale(.014 -.014)" d="m288 545q98 0 145-43t47-137v-365h-64l-17 76h-4q-23-29-47.5-48.5t-56-28.5-76.5-9q-48 0-86.5 17t-60.5 52.5-22 89.5q0 80 63 123.5t194 47.5l91 3v32q0 67-29 93t-82 26q-42 0-80-12.5t-71-28.5l-27 66q35 19 83 32.5t100 13.5zm26-286q-100-4-138.5-32t-38.5-79q0-45 27.5-66t70.5-21q68 0 113 37.5t45 115.5v48z"/><path transform="translate(51.786 14.966) scale(.014 -.014)" d="m343 546q96 0 145-46.5t49-150.5v-349h-87v343q0 65-29 97t-91 32q-89 0-123-50t-34-144v-278h-88v536h71l13-73h5q18 28 44.5 46.5t58.5 27.5 66 9z"/><path transform="translate(60.438 14.966) scale(.014 -.014)" d="m434 148q0-52-26-87t-74-53-114-18q-56 0-96.5 9t-71.5 25v80q32-16 77.5-29.5t92.5-13.5q67 0 97 21.5t30 57.5q0 20-11 36t-39.5 32-81.5 36q-52 20-89 40t-57 48-20 72q0 68 55.5 105t145.5 37q49 0 91.5-9.5t79.5-26.5l-30-70q-34 14-71 24t-76 10q-54 0-82.5-17.5t-28.5-47.5q0-22 13-37.5t43.5-30 81.5-34.5q51-19 87-39t55-48.5 19-71.5z"/><path transform="translate(70.756 14.966) scale(.014 -.014)" d="m720 358q0-83-21-150.5t-62.5-116.5-103-75-142.5-26q-84 0-146 26.5t-103 75-61 116.5-20 151q0 110 36 192t109.5 128 185.5 46q107 0 180-45.5t110.5-128 37.5-193.5zm-564 0q0-90 25-155t77.5-100 132.5-35q81 0 132.5 35t76.5 100 25 155q0 135-56 211.5t-177 76.5q-81 0-133.5-34.5t-77.5-99-25-154.5z"/><path transform="translate(81.69 14.966) scale(.014 -.014)" d="m335 546q15 0 32.5-1.5t30.5-4.5l-11-81q-13 3-28.5 5t-29.5 2q-31 0-59-13t-50-36.5-34.5-56.5-12.5-74v-286h-88v536h72l10-98h4q17 30 41 54.5t55 39 68 14.5z"/><path transform="translate(87.472 14.966) scale(.014 -.014)" d="m173 536v-536h-88v536zm-43 201q20 0 35.5-13.5t15.5-42.5q0-28-15.5-42t-35.5-14q-22 0-37 14t-15 42q0 29 15 42.5t37 13.5z"/><path transform="translate(91.084 14.966) scale(.014 -.014)" d="m1 536h94l116-305q10-27 18.5-52t15.5-48.5 11-45.5h4q6 25 19 65.5t27 81.5l109 304h95l-231-610q-19-50-44.5-87.5t-62-58-88.5-20.5q-24 0-42 2.5t-31 5.5v70q11-2 26.5-4t32.5-2q31 0 53.5 11.5t38.5 33 27 50.5l28 71z"/><path transform="translate(98.224 14.966) scale(.014 -.014)" d="m288 545q98 0 145-43t47-137v-365h-64l-17 76h-4q-23-29-47.5-48.5t-56-28.5-76.5-9q-48 0-86.5 17t-60.5 52.5-22 89.5q0 80 63 123.5t194 47.5l91 3v32q0 67-29 93t-82 26q-42 0-80-12.5t-71-28.5l-27 66q35 19 83 32.5t100 13.5zm26-286q-100-4-138.5-32t-38.5-79q0-45 27.5-66t70.5-21q68 0 113 37.5t45 115.5v48z"/></svg>