<svg width="129.14" height="16.604" viewBox="0 0 129.14 16.604" xmlns="http://www.w3.org/2000/svg"><path transform="translate(0 12.544) scale(.014 -.014)" d="m38 0v42h13q23 0 41.5 5t29.5 20.5 11 46.5v490q0 30-11.5 44.5t-30 19-40.5 4.5h-13v42h183l358-553v443q0 30-11.5 44.5t-30 19-40.5 4.5h-13v42h251v-42h-13q-22 0-41-5t-30-20-11-47v-600h-71l-375 576v-462q0-31 11-46.5t30-20.5 41-5h13v-42z"/><path transform="translate(10.682 12.544) scale(.014 -.014)" d="m287-10q-108 0-170 69t-62 210q0 140 59.5 208.5t175.5 68.5q108 0 170-68.5t62-208.5q0-141-59.5-210t-175.5-69zm2 52q50 0 80 25.5t43 76.5 13 125q0 112-31 168t-106 56-105.5-56-30.5-168 31-169.5 106-57.5z"/><path transform="translate(18.76 12.544) scale(.014 -.014)" d="m240-10q-76 0-110.5 34.5t-34.5 120.5v334h-76v40q18 0 40 7.5t38 24.5q17 18 28 44t18 64h46v-123h131v-57h-131v-337q0-51 21-75t55-24q18 0 33 2t31 5v-44q-13-6-39-11t-50-5z"/><path transform="translate(23.688 12.544) scale(.014 -.014)" d="m287-10q-108 0-170 69t-62 210q0 140 59.5 208.5t175.5 68.5q108 0 170-68.5t62-208.5q0-141-59.5-210t-175.5-69zm2 52q50 0 80 25.5t43 76.5 13 125q0 112-31 168t-106 56-105.5-56-30.5-168 31-169.5 106-57.5z"/><path transform="translate(35.406 12.544) scale(.014 -.014)" d="m38 0v42h13q22 0 40.5 4.5t30 19 11.5 43.5v495q0 30-11.5 44.5t-30 19-40.5 4.5h-13v42h269q87 0 144-21.5t85-64 28-107.5q0-53-22-89.5t-55.5-58.5-69.5-34l137-217q26-40 50-60t55-20h3v-42h-14q-62 0-96.5 6.5t-55.5 26-44 57.5l-135 225h-83v-206q0-29 11.5-43.5t30-19 40.5-4.5h13v-42zm266 362q88 0 120.5 39t32.5 117q0 54-15 86.5t-49 47-91 14.5h-68v-304z"/><path transform="translate(44.59 12.544) scale(.014 -.014)" d="m205-10q-44 0-79.5 17.5t-55.5 53-20 89.5q0 80 56.5 118t171.5 42l83 3v60q0 36-6 63.5t-26 43.5-61 16q-38 0-58-14t-26.5-38.5-6.5-56.5q-42 0-63.5 14.5t-21.5 48.5q0 35 24.5 56t65.5 30.5 90 9.5q92 0 137.5-39t45.5-134v-259q0-28 6-43.5t20-22 36-6.5h3v-42h-135l-16 86h-8q-21-28-41-49.5t-46.5-34-68.5-12.5zm23 62q41 0 70.5 17t46 48.5 16.5 73.5v81l-64-3q-57-2-89.5-17t-46.5-41.5-14-65.5q0-31 9-51.5t27-31 45-10.5z"/><path transform="translate(52.472 12.544) scale(.014 -.014)" d="m210-10q-50 0-87 12t-57.5 35.5-20.5 58.5q0 27 11 42t25.5 21 26.5 6q0-52 23.5-89.5t84.5-37.5q53 0 81.5 25.5t28.5 65.5q0 25-10.5 41t-37 31.5-75.5 36.5q-51 23-84.5 44.5t-50 50-16.5 71.5q0 68 51.5 104.5t136.5 36.5q48 0 80.5-12.5t49-33.5 16.5-46q0-27-18.5-43.5t-53.5-16.5q0 50-21 78t-65 28q-51 0-73-22.5t-22-57.5q0-38 28.5-58.5t95.5-47.5q53-22 86-44t48.5-51 15.5-71q0-78-54-117.5t-143-39.5z"/><path transform="translate(58.786 12.544) scale(.014 -.014)" d="m18 0v42h8q23 0 41.5 5t29.5 20.5 11 46.5v536q0 30-11.5 44.5t-30 19-40.5 4.5h-8v42h184v-220q0-18-1-37.5t-2-33.5-1-14h5q15 30 36.5 50.5t49 30.5 61.5 10q86 0 131.5-46.5t45.5-149.5v-236q0-31 10-46.5t27.5-20.5 39.5-5h3v-42h-174v345q0 65-24.5 101t-85.5 36q-41 0-68-20t-40-56.5-13-85.5v-211q0-29 11.5-43.5t30-19 40.5-4.5h3v-42z"/><path transform="translate(67.676 12.544) scale(.014 -.014)" d="m23 0v42h13q22 0 40.5 4.5t30 19 11.5 43.5v317q0 30-11.5 44.5t-30 19-40.5 4.5h-3v42h179v-422q0-31 11-46.5t30-20.5 41-5h13v-42zm138 636q-24 0-40.5 14t-16.5 48q0 35 16.5 48.5t40.5 13.5q23 0 40-13.5t17-48.5q0-34-17-48t-40-14z"/><path transform="translate(75.796 12.544) scale(.014 -.014)" d="m38 0v42h13q23 0 41.5 5t29.5 20.5 11 46.5v490q0 30-11.5 44.5t-30 19-40.5 4.5h-13v42h291v-42h-13q-22 0-41-5t-30-20-11-47v-202h325v202q0 32-11 47t-29.5 20-41.5 5h-13v42h291v-42h-13q-22 0-41-5t-30-20-11-47v-491q0-29 11.5-43.5t30-19 40.5-4.5h13v-42h-291v42h13q23 0 41.5 5t29.5 20.5 11 46.5v234h-325v-234q0-31 11-46.5t30-20.5 41-5h13v-42z"/><path transform="translate(86.898 12.544) scale(.014 -.014)" d="m287-10q-109 0-170.5 72t-61.5 202q0 140 58 211t164 71q97 0 152.5-60t55.5-179v-46h-333q2-109 39.5-158.5t109.5-49.5q52 0 88.5 21.5t54.5 48.5q7-3 13-12t6-22q0-20-19-43t-58-39.5-99-16.5zm97 325q0 80-24.5 128.5t-84.5 48.5q-55 0-85.5-45.5t-35.5-131.5z"/><path transform="translate(94.388 12.544) scale(.014 -.014)" d="m355-10q-58 0-94.5 24.5t-58.5 63.5h-6l-18-78h-160v42h8q23 0 41.5 5t29.5 20.5 11 46.5v536q0 30-11.5 44.5t-30 19-40.5 4.5h-8v42h184v-184q0-17-0.5-43.5t-1.5-51-2-35.5h4q23 46 59 73t94 27q99 0 151.5-66.5t52.5-210.5q0-145-52.5-212t-151.5-67zm-16 64q66 0 94.5 55.5t28.5 160.5q0 107-28.5 159.5t-95.5 52.5q-78 0-107-52.5t-29-160.5q0-69 12.5-117t42.5-73 82-25z"/><path transform="translate(102.98 12.544) scale(.014 -.014)" d="m33 0v42h3q23 0 41.5 5t29.5 20.5 11 46.5v312q0 30-11.5 44.5t-30 19-40.5 4.5h-3v42h154l19-99h5q13 30 28 55t40 39.5 69 14.5q55 0 81.5-19t26.5-54q0-31-21.5-51t-71.5-20q0 41-12 59.5t-41 18.5q-28 0-47-22t-30-56-16-70.5-5-65.5v-157q0-29 11.5-43.5t30-19 40.5-4.5h28v-42z"/><path transform="translate(109.58 12.544) scale(.014 -.014)" d="m287-10q-109 0-170.5 72t-61.5 202q0 140 58 211t164 71q97 0 152.5-60t55.5-179v-46h-333q2-109 39.5-158.5t109.5-49.5q52 0 88.5 21.5t54.5 48.5q7-3 13-12t6-22q0-20-19-43t-58-39.5-99-16.5zm97 325q0 80-24.5 128.5t-84.5 48.5q-55 0-85.5-45.5t-35.5-131.5z"/><path transform="translate(117.07 12.544) scale(.014 -.014)" d="m75 441q-7 21-16.5 32.5t-22 16-32.5 4.5h-3v42h247v-42h-13q-30 0-45-8.5t-15-33.5q0-8 2.5-20t5.5-23l47-168q7-24 13.5-53.5t12.5-56 9-43.5h3q3 17 9.5 41t15 51 16.5 51l104 302h63l100-296q6-18 12.5-38.5t12.5-41.5 11-39 7-30h3q5 25 14.5 61.5t24.5 84.5l50 161q4 13 6.5 27.5t2.5 22.5q0 26-16.5 37.5t-49.5 11.5h-7v42h214v-42h-13q-19 0-32-5.5t-23-22.5-20-50l-129-416h-80l-137 418-142-418h-79z"/></svg>