<svg width="95.074" height="23.184" viewBox="0 0 95.074 23.184" xmlns="http://www.w3.org/2000/svg"><path transform="translate(0 16.436) scale(.014 -.014)" d="m38 0v42h13q23 0 41.5 5t29.5 20.5 11 46.5v490q0 30-11.5 44.5t-30 19-40.5 4.5h-13v42h183l358-553v443q0 30-11.5 44.5t-30 19-40.5 4.5h-13v42h251v-42h-13q-22 0-41-5t-30-20-11-47v-600h-71l-375 576v-462q0-31 11-46.5t30-20.5 41-5h13v-42z"/><path transform="translate(10.682 16.436) scale(.014 -.014)" d="m287-10q-108 0-170 69t-62 210q0 140 59.5 208.5t175.5 68.5q108 0 170-68.5t62-208.5q0-141-59.5-210t-175.5-69zm2 52q50 0 80 25.5t43 76.5 13 125q0 112-31 168t-106 56-105.5-56-30.5-168 31-169.5 106-57.5z"/><path transform="translate(18.76 16.436) scale(.014 -.014)" d="m240-10q-76 0-110.5 34.5t-34.5 120.5v334h-76v40q18 0 40 7.5t38 24.5q17 18 28 44t18 64h46v-123h131v-57h-131v-337q0-51 21-75t55-24q18 0 33 2t31 5v-44q-13-6-39-11t-50-5z"/><path transform="translate(23.688 16.436) scale(.014 -.014)" d="m287-10q-108 0-170 69t-62 210q0 140 59.5 208.5t175.5 68.5q108 0 170-68.5t62-208.5q0-141-59.5-210t-175.5-69zm2 52q50 0 80 25.5t43 76.5 13 125q0 112-31 168t-106 56-105.5-56-30.5-168 31-169.5 106-57.5z"/><path transform="translate(35.406 16.436) scale(.014 -.014)" d="m247-10q-49 0-86.5 10t-62.5 29-37.5 45-12.5 57q0 20 8.5 35t24.5 23.5 39 8.5q2-41 16-77.5t43-59 76-22.5q67 0 105 32.5t38 93.5q0 37-14.5 62.5t-48 47.5-92.5 46q-62 26-103 56t-61 70.5-20 95.5q0 57 28.5 97.5t78 62 112.5 21.5q60 0 101.5-16t63.5-41.5 22-54.5q0-32-21.5-48.5t-57.5-16.5q0 31-10.5 60t-35 48-66.5 19q-58 0-90-31t-32-83q0-40 14.5-67.5t48.5-49 92-45.5q59-24 100.5-52.5t63.5-65.5 22-89q0-64-30-108.5t-85.5-68.5-130.5-24z"/><path transform="translate(43.022 16.436) scale(.014 -.014)" d="m287-10q-109 0-170.5 72t-61.5 202q0 140 58 211t164 71q97 0 152.5-60t55.5-179v-46h-333q2-109 39.5-158.5t109.5-49.5q52 0 88.5 21.5t54.5 48.5q7-3 13-12t6-22q0-20-19-43t-58-39.5-99-16.5zm97 325q0 80-24.5 128.5t-84.5 48.5q-55 0-85.5-45.5t-35.5-131.5z"/><path transform="translate(50.512 16.436) scale(.014 -.014)" d="m33 0v42h3q23 0 41.5 5t29.5 20.5 11 46.5v312q0 30-11.5 44.5t-30 19-40.5 4.5h-3v42h154l19-99h5q13 30 28 55t40 39.5 69 14.5q55 0 81.5-19t26.5-54q0-31-21.5-51t-71.5-20q0 28-5 45t-16.5 25-31.5 8q-28 0-47-22t-30-56-16-70.5-5-65.5v-157q0-29 11.5-43.5t30-19 40.5-4.5h28v-42z"/><path transform="translate(57.106 16.436) scale(.014 -.014)" d="m23 0v42h13q22 0 40.5 4.5t30 19 11.5 43.5v317q0 30-11.5 44.5t-30 19-40.5 4.5h-3v42h179v-422q0-31 11-46.5t30-20.5 41-5h13v-42zm138 636q-24 0-40.5 14t-16.5 48q0 35 16.5 48.5t40.5 13.5q23 0 40-13.5t17-48.5q0-34-17-48t-40-14z"/><path transform="translate(61.586 16.436) scale(.014 -.014)" d="m27 0v42h13q23 0 41.5 5t29.5 20.5 11 46.5v375h-91v47h91v50q0 89 47.5 136.5t129.5 47.5q52 0 82.5-9t44-24.5 13.5-36.5q0-18-10.5-30.5t-29-19-42.5-6.5q0 20-6 38.5t-20 30-40 11.5q-43 0-59-33t-16-96v-59h141v-47h-141v-375q0-31 11-46.5t30-20.5 41-5h38v-42z"/><path transform="translate(70.392 16.436) scale(.014 -.014)" d="m38 0v42h13q23 0 41.5 5t29.5 20.5 11 46.5v486q0 32-11 47t-29.5 20-41.5 5h-13v42h291v-42h-13q-22 0-40.5-4.5t-30-19-11.5-44.5v-554h197q30 0 48.5 13.5t27.5 34.5 12 42l10 75h52l-7-215z"/><path transform="translate(79.114 16.436) scale(.014 -.014)" d="m205-10q-44 0-79.5 17.5t-55.5 53-20 89.5q0 80 56.5 118t171.5 42l83 3v60q0 36-6 63.5t-26 43.5-61 16q-38 0-58-14t-26.5-38.5-6.5-56.5q-42 0-63.5 14.5t-21.5 48.5q0 35 24.5 56t65.5 30.5 90 9.5q92 0 137.5-39t45.5-134v-259q0-28 6-43.5t20-22 36-6.5h3v-42h-135l-16 86h-8q-21-28-41-49.5t-46.5-34-68.5-12.5zm23 62q41 0 70.5 17t46 48.5 16.5 73.5v81l-64-3q-57-2-89.5-17t-46.5-41.5-14-65.5q0-31 9-51.5t27-31 45-10.5z"/><path transform="translate(86.996 16.436) scale(.014 -.014)" d="m287-10q-108 0-170 69t-62 210q0 140 59.5 208.5t175.5 68.5q108 0 170-68.5t62-208.5q0-141-59.5-210t-175.5-69zm2 52q50 0 80 25.5t43 76.5 13 125q0 112-31 168t-106 56-105.5-56-30.5-168 31-169.5 106-57.5z"/></svg>