<svg width="200.68" height="17.5" viewBox="0 0 200.68 17.5" xmlns="http://www.w3.org/2000/svg"><path transform="translate(0 13.664) scale(.014 -.014)" d="m663 0h-105l-382 593h-4q2-35 5-87t3-107v-399h-83v714h104l381-591h4q-1 16-2.5 48t-3 70-1.5 70v403h84z"/><path transform="translate(10.64 13.664) scale(.014 -.014)" d="m551 269q0-133-67.5-206t-182.5-73q-71 0-126.5 32.5t-87.5 95-32 151.5q0 133 67 205t182 72q73 0 128.5-32.5t87-94 31.5-150.5zm-405 0q0-95 37.5-150.5t119.5-55.5q81 0 119 55.5t38 150.5-38 149-120 54-119-54-37-149z"/><path transform="translate(19.11 13.664) scale(.014 -.014)" d="m264 62q20 0 41 3.5t34 7.5v-67q-14-7-40-11.5t-50-4.5q-42 0-77.5 14.5t-57.5 50.5-22 101v312h-76v42l77 35 35 114h52v-123h155v-68h-155v-310q0-49 23.5-72.5t60.5-23.5z"/><path transform="translate(24.164 13.664) scale(.014 -.014)" d="m551 269q0-133-67.5-206t-182.5-73q-71 0-126.5 32.5t-87.5 95-32 151.5q0 133 67 205t182 72q73 0 128.5-32.5t87-94 31.5-150.5zm-405 0q0-95 37.5-150.5t119.5-55.5q81 0 119 55.5t38 150.5-38 149-120 54-119-54-37-149z"/><path transform="translate(36.834 13.664) scale(.014 -.014)" d="m502 191q0-95-69-148t-186-53q-60 0-111 9t-85 25v86q36-16 89.5-29t110.5-13q80 0 120.5 31t40.5 84q0 35-15 59t-51.5 44.5-101.5 43.5q-91 33-137.5 81t-46.5 131q0 57 29 97.5t80.5 62.5 118.5 22q59 0 108-11t89-29l-28-77q-37 16-80.5 27t-90.5 11q-67 0-101-28.5t-34-75.5q0-36 15-60t49-43 92-41q63-23 106.5-49.5t66-63.5 22.5-93z"/><path transform="translate(44.52 13.664) scale(.014 -.014)" d="m288 545q98 0 145-43t47-137v-365h-64l-17 76h-4q-35-44-73.5-65t-106.5-21q-73 0-121 38.5t-48 120.5q0 80 63 123.5t194 47.5l91 3v32q0 67-29 93t-82 26q-42 0-80-12.5t-71-28.5l-27 66q35 19 83 32.5t100 13.5zm26-286q-100-4-138.5-32t-38.5-79q0-45 27.5-66t70.5-21q68 0 113 37.5t45 115.5v48z"/><path transform="translate(52.374 13.664) scale(.014 -.014)" d="m343 546q96 0 145-46.5t49-150.5v-349h-87v343q0 129-120 129-89 0-123-50t-34-144v-278h-88v536h71l13-73h5q26 42 72 62.5t97 20.5z"/><path transform="translate(61.026 13.664) scale(.014 -.014)" d="m434 148q0-78-58-118t-156-40q-56 0-96.5 9t-71.5 25v80q32-16 77.5-29.5t92.5-13.5q67 0 97 21.5t30 57.5q0 20-11 36t-39.5 32-81.5 36q-52 20-89 40t-57 48-20 72q0 68 55.5 105t145.5 37q49 0 91.5-9.5t79.5-26.5l-30-70q-34 14-71 24t-76 10q-54 0-82.5-17.5t-28.5-47.5q0-22 13-37.5t43.5-30 81.5-34.5q51-19 87-39t55-48.5 19-71.5z"/><path transform="translate(71.932 13.664) scale(.014 -.014)" d="m403 645q-115 0-181-77t-66-211q0-133 61.5-210.5t184.5-77.5q47 0 89 8t82 20v-78q-40-15-82.5-22t-101.5-7q-109 0-182 45t-109.5 128-36.5 195q0 108 39.5 190.5t116.5 129 187 46.5q113 0 197-42l-36-76q-33 15-73.5 27t-88.5 12z"/><path transform="translate(80.78 13.664) scale(.014 -.014)" d="m288 545q98 0 145-43t47-137v-365h-64l-17 76h-4q-35-44-73.5-65t-106.5-21q-73 0-121 38.5t-48 120.5q0 80 63 123.5t194 47.5l91 3v32q0 67-29 93t-82 26q-42 0-80-12.5t-71-28.5l-27 66q35 19 83 32.5t100 13.5zm26-286q-100-4-138.5-32t-38.5-79q0-45 27.5-66t70.5-21q68 0 113 37.5t45 115.5v48z"/><path transform="translate(88.634 13.664) scale(.014 -.014)" d="m533 536v-536h-72l-13 71h-4q-26-42-72-61.5t-98-19.5q-97 0-146 46.5t-49 148.5v351h89v-345q0-128 119-128 89 0 123.5 50t34.5 144v279z"/><path transform="translate(97.286 13.664) scale(.014 -.014)" d="m300-10q-71 0-126.5 29t-87 90-31.5 156q0 99 33 161t89.5 91 128.5 29q41 0 79-8.5t62-20.5l-27-73q-24 9-56 17t-60 8q-158 0-158-203 0-97 38.5-148.5t114.5-51.5q44 0 77.5 9t61.5 22v-78q-27-14-59.5-21.5t-78.5-7.5z"/><path transform="translate(104.01 13.664) scale(.014 -.014)" d="m288 545q98 0 145-43t47-137v-365h-64l-17 76h-4q-35-44-73.5-65t-106.5-21q-73 0-121 38.5t-48 120.5q0 80 63 123.5t194 47.5l91 3v32q0 67-29 93t-82 26q-42 0-80-12.5t-71-28.5l-27 66q35 19 83 32.5t100 13.5zm26-286q-100-4-138.5-32t-38.5-79q0-45 27.5-66t70.5-21q68 0 113 37.5t45 115.5v48z"/><path transform="translate(111.86 13.664) scale(.014 -.014)" d="m434 148q0-78-58-118t-156-40q-56 0-96.5 9t-71.5 25v80q32-16 77.5-29.5t92.5-13.5q67 0 97 21.5t30 57.5q0 20-11 36t-39.5 32-81.5 36q-52 20-89 40t-57 48-20 72q0 68 55.5 105t145.5 37q49 0 91.5-9.5t79.5-26.5l-30-70q-34 14-71 24t-76 10q-54 0-82.5-17.5t-28.5-47.5q0-22 13-37.5t43.5-30 81.5-34.5q51-19 87-39t55-48.5 19-71.5z"/><path transform="translate(118.57 13.664) scale(.014 -.014)" d="m130 737q20 0 35.5-13.5t15.5-42.5q0-28-15.5-42t-35.5-14q-22 0-37 14t-15 42q0 29 15 42.5t37 13.5zm43-201v-536h-88v536z"/><path transform="translate(122.18 13.664) scale(.014 -.014)" d="m288 545q98 0 145-43t47-137v-365h-64l-17 76h-4q-35-44-73.5-65t-106.5-21q-73 0-121 38.5t-48 120.5q0 80 63 123.5t194 47.5l91 3v32q0 67-29 93t-82 26q-42 0-80-12.5t-71-28.5l-27 66q35 19 83 32.5t100 13.5zm26-286q-100-4-138.5-32t-38.5-79q0-45 27.5-66t70.5-21q68 0 113 37.5t45 115.5v48z"/><path transform="translate(130.03 13.664) scale(.014 -.014)" d="m343 546q96 0 145-46.5t49-150.5v-349h-87v343q0 129-120 129-89 0-123-50t-34-144v-278h-88v536h71l13-73h5q26 42 72 62.5t97 20.5z"/><path transform="translate(142.88 13.664) scale(.014 -.014)" d="m545 0-86 221h-283l-85-221h-91l279 717h81l278-717zm-193 517q-3 8-10 29t-13.5 43.5-10.5 34.5q-7-31-16-60.5t-15-46.5l-81-216h226z"/><path transform="translate(151.83 13.664) scale(.014 -.014)" d="m173 0h-88v760h88z"/><path transform="translate(155.44 13.664) scale(.014 -.014)" d="m173 575q0-34-1.5-63.5t-3.5-46.5h5q23 34 63 57t103 23q100 0 160.5-69.5t60.5-207.5-61-208-160-70q-63 0-103 23t-63 55h-7l-18-68h-63v760h88zm151-103q-85 0-118-49t-33-152v-4q0-99 32.5-151.5t120.5-52.5q72 0 107.5 53t35.5 153q0 203-145 203z"/><path transform="translate(164.05 13.664) scale(.014 -.014)" d="m288 545q98 0 145-43t47-137v-365h-64l-17 76h-4q-35-44-73.5-65t-106.5-21q-73 0-121 38.5t-48 120.5q0 80 63 123.5t194 47.5l91 3v32q0 67-29 93t-82 26q-42 0-80-12.5t-71-28.5l-27 66q35 19 83 32.5t100 13.5zm26-286q-100-4-138.5-32t-38.5-79q0-45 27.5-66t70.5-21q68 0 113 37.5t45 115.5v48z"/><path transform="translate(171.91 13.664) scale(.014 -.014)" d="m343 546q96 0 145-46.5t49-150.5v-349h-87v343q0 129-120 129-89 0-123-50t-34-144v-278h-88v536h71l13-73h5q26 42 72 62.5t97 20.5z"/><path transform="translate(180.56 13.664) scale(.014 -.014)" d="m130 737q20 0 35.5-13.5t15.5-42.5q0-28-15.5-42t-35.5-14q-22 0-37 14t-15 42q0 29 15 42.5t37 13.5zm43-201v-536h-88v536z"/><path transform="translate(184.17 13.664) scale(.014 -.014)" d="m288 545q98 0 145-43t47-137v-365h-64l-17 76h-4q-35-44-73.5-65t-106.5-21q-73 0-121 38.5t-48 120.5q0 80 63 123.5t194 47.5l91 3v32q0 67-29 93t-82 26q-42 0-80-12.5t-71-28.5l-27 66q35 19 83 32.5t100 13.5zm26-286q-100-4-138.5-32t-38.5-79q0-45 27.5-66t70.5-21q68 0 113 37.5t45 115.5v48z"/><path transform="translate(192.02 13.664) scale(.014 -.014)" d="m343 546q96 0 145-46.5t49-150.5v-349h-87v343q0 129-120 129-89 0-123-50t-34-144v-278h-88v536h71l13-73h5q26 42 72 62.5t97 20.5z"/></svg>