<svg width="162.45" height="21.76" viewBox="0 0 162.45 21.76" xmlns="http://www.w3.org/2000/svg"><path transform="translate(0 17.088) scale(.016 -.016)" d="m38 0v42h13q34 0 58 12.5t24 59.5v490q0 44-24.5 56t-57.5 12h-13v42h183l358-553v443q0 44-24.5 56t-57.5 12h-13v42h251v-42h-13q-34 0-58-12.5t-24-59.5v-600h-71l-375 576v-462q0-47 24-59.5t58-12.5h13v-42z"/><path transform="translate(12.208 17.088) scale(.016 -.016)" d="m287-10q-108 0-170 69t-62 210q0 140 59.5 208.5t175.5 68.5q108 0 170-68.5t62-208.5q0-141-59.5-210t-175.5-69zm2 52q75 0 105.5 57.5t30.5 169.5-31 168-106 56-105.5-56-30.5-168 31-169.5 106-57.5z"/><path transform="translate(21.44 17.088) scale(.016 -.016)" d="m240-10q-76 0-110.5 34.5t-34.5 120.5v334h-76v40q18 0 40 7.5t38 24.5q17 18 28 44t18 64h46v-123h131v-57h-131v-337q0-51 21-75t55-24q18 0 33 2t31 5v-44q-13-6-39-11t-50-5z"/><path transform="translate(27.072 17.088) scale(.016 -.016)" d="m287-10q-108 0-170 69t-62 210q0 140 59.5 208.5t175.5 68.5q108 0 170-68.5t62-208.5q0-141-59.5-210t-175.5-69zm2 52q75 0 105.5 57.5t30.5 169.5-31 168-106 56-105.5-56-30.5-168 31-169.5 106-57.5z"/><path transform="translate(40.464 17.088) scale(.016 -.016)" d="m247-10q-65 0-109.5 17.5t-67 49.5-22.5 74q0 20 8.5 35t24.5 23.5 39 8.5q2-41 16-77.5t43-59 76-22.5q67 0 105 32.5t38 93.5q0 37-14.5 62.5t-48 47.5-92.5 46q-62 26-103 56t-61 70.5-20 95.5q0 57 28.5 97.5t78 62 112.5 21.5q89 0 138-34t49-78q0-32-21.5-48.5t-57.5-16.5q0 31-10.5 60t-35 48-66.5 19q-58 0-90-31t-32-83q0-40 14.5-67.5t48.5-49 92-45.5q88-36 137-83t49-124q0-64-30-108.5t-85.5-68.5-130.5-24z"/><path transform="translate(49.168 17.088) scale(.016 -.016)" d="m287-10q-109 0-170.5 72t-61.5 202q0 140 58 211t164 71q97 0 152.5-60t55.5-179v-46h-333q2-109 39.5-158.5t109.5-49.5q52 0 88.5 21.5t54.5 48.5q7-3 13-12t6-22q0-20-19-43t-58-39.5-99-16.5zm97 325q0 80-24.5 128.5t-84.5 48.5q-55 0-85.5-45.5t-35.5-131.5z"/><path transform="translate(57.728 17.088) scale(.016 -.016)" d="m33 0v42h3q34 0 58 12.5t24 59.5v312q0 44-24.5 56t-57.5 12h-3v42h154l19-99h5q13 30 28 55t40 39.5 69 14.5q55 0 81.5-19t26.5-54q0-31-21.5-51t-71.5-20q0 41-12 59.5t-41 18.5q-28 0-47-22t-30-56-16-70.5-5-65.5v-157q0-44 24.5-55.5t57.5-11.5h28v-42z"/><path transform="translate(65.264 17.088) scale(.016 -.016)" d="m23 0v42h13q22 0 40.5 4.5t30 19 11.5 43.5v317q0 30-11.5 44.5t-30 19-40.5 4.5h-3v42h179v-422q0-31 11-46.5t30-20.5 41-5h13v-42zm138 636q-24 0-40.5 14t-16.5 48q0 35 16.5 48.5t40.5 13.5q23 0 40-13.5t17-48.5q0-34-17-48t-40-14z"/><path transform="translate(70.384 17.088) scale(.016 -.016)" d="m27 0v42h13q23 0 41.5 5t29.5 20.5 11 46.5v375h-91v47h91v50q0 89 47.5 136.5t129.5 47.5q52 0 82.5-9t44-24.5 13.5-36.5q0-27-23-41.5t-59-14.5q0 20-6 38.5t-20 30-40 11.5q-43 0-59-33t-16-96v-59h141v-47h-141v-375q0-31 11-46.5t30-20.5 41-5h38v-42z"/><path transform="translate(80.448 17.088) scale(.016 -.016)" d="m38 0v42h13q34 0 58 12.5t24 59.5v490q0 44-24.5 56t-57.5 12h-13v42h183l358-553v443q0 44-24.5 56t-57.5 12h-13v42h251v-42h-13q-34 0-58-12.5t-24-59.5v-600h-71l-375 576v-462q0-47 24-59.5t58-12.5h13v-42z"/><path transform="translate(92.656 17.088) scale(.016 -.016)" d="m38 0v42h13q34 0 58 12.5t24 59.5v490q0 44-24.5 56t-57.5 12h-13v42h281q126 0 186-55.5t60-153.5q0-59-25.5-111t-84.5-84-158-32h-63v-169q0-44 24.5-55.5t57.5-11.5h33v-42zm249 325q91 0 130.5 40.5t39.5 135.5q0 84-35 124.5t-120 40.5h-68v-341z"/><path transform="translate(106.48 17.088) scale(.016 -.016)" d="m38 0v42h13q34 0 58 12.5t24 59.5v490q0 44-24.5 56t-57.5 12h-13v42h291v-42h-13q-34 0-58-12.5t-24-59.5v-202h325v202q0 47-24 59.5t-58 12.5h-13v42h291v-42h-13q-34 0-58-12.5t-24-59.5v-491q0-44 24.5-55.5t57.5-11.5h13v-42h-291v42h13q34 0 58 12.5t24 59.5v234h-325v-234q0-47 24-59.5t58-12.5h13v-42z"/><path transform="translate(119.17 17.088) scale(.016 -.016)" d="m28 0v42h13q34 0 55.5 12.5t21.5 59.5v312q0 44-22 56t-55 12h-3v42h157l13-81h5q20 38 43 57.5t50 26.5 58 7q48 0 87-20.5t58-70.5h8q20 38 44.5 57.5t53 26.5 59.5 7q77 0 120-46.5t43-149.5v-236q0-47 21.5-59.5t55.5-12.5h3v-42h-174v345q0 65-23.5 101t-81.5 36q-41 0-65.5-20.5t-35-54.5-10.5-74v-219q0-47 21.5-59.5t55.5-12.5h3v-42h-174v345q0 65-23.5 101t-81.5 36q-43 0-68.5-22.5t-36.5-59.5-11-80v-211q0-44 24.5-55.5t57.5-11.5h3v-42z"/><path transform="translate(134.29 17.088) scale(.016 -.016)" d="m287-10q-108 0-170 69t-62 210q0 140 59.5 208.5t175.5 68.5q108 0 170-68.5t62-208.5q0-141-59.5-210t-175.5-69zm2 52q75 0 105.5 57.5t30.5 169.5-31 168-106 56-105.5-56-30.5-168 31-169.5 106-57.5z"/><path transform="translate(143.52 17.088) scale(.016 -.016)" d="m28 0v42h8q34 0 58 12.5t24 59.5v312q0 44-23.5 56t-56.5 12h-5v42h162l13-81h5q21 38 44.5 57.5t51.5 26.5 60 7q79 0 123.5-46.5t44.5-149.5v-236q0-47 20.5-59.5t54.5-12.5h5v-42h-174v345q0 65-24.5 101t-85.5 36q-45 0-71.5-22.5t-38-59.5-11.5-80v-211q0-44 23.5-55.5t56.5-11.5h5v-42z"/><path transform="translate(153.84 17.088) scale(.016 -.016)" d="m231-240q-104 0-156 38.5t-52 107.5q0 59 38 89t87 39q-20 9-37.5 29.5t-17.5 52.5q0 30 15.5 52t49.5 42q-43 18-66.5 59.5t-23.5 91.5q0 86 47 135.5t141 49.5q36 0 68-10t46-23q14 16 39 35t58 19q30 0 44.5-15.5t14.5-36.5-12.5-36.5-40.5-15.5q0 11-6.5 22.5t-26.5 11.5q-23 0-43-12 17-21 28-49.5t11-71.5q0-74-44.5-123t-135.5-49q-12 0-27.5 1.5t-25.5 3.5q-19-10-33-25t-14-38q0-18 11.5-28t50.5-10h113q89 0 127-42t38-107q0-86-64.5-136.5t-200.5-50.5zm2 49q72 0 111 15.5t54.5 43 15.5 62.5q0 46-26 61.5t-76 15.5h-98q-28 0-53-7.5t-41-27.5-16-60q0-29 11-52.5t39-37 79-13.5zm20 431q49 0 69 30t20 95q0 68-20.5 100t-69.5 32q-48 0-69-33t-21-100q0-64 21.5-94t69.5-30z"/></svg>