<svg width="249.41" height="64" viewBox="0 0 249.41 64" xmlns="http://www.w3.org/2000/svg"><path transform="translate(0 36.8) scale(.016 -.016)" d="m38 0v42h13q34 0 58 12.5t24 59.5v490q0 44-24.5 56t-57.5 12h-13v42h183l358-553v443q0 44-24.5 56t-57.5 12h-13v42h251v-42h-13q-34 0-58-12.5t-24-59.5v-600h-71l-375 576v-462q0-47 24-59.5t58-12.5h13v-42z"/><path transform="translate(12.208 36.8) scale(.016 -.016)" d="m287-10q-108 0-170 69t-62 210q0 140 59.5 208.5t175.5 68.5q108 0 170-68.5t62-208.5q0-141-59.5-210t-175.5-69zm2 52q75 0 105.5 57.5t30.5 169.5-31 168-106 56-105.5-56-30.5-168 31-169.5 106-57.5z"/><path transform="translate(21.44 36.8) scale(.016 -.016)" d="m240-10q-76 0-110.5 34.5t-34.5 120.5v334h-76v40q18 0 40 7.5t38 24.5q17 18 28 44t18 64h46v-123h131v-57h-131v-337q0-51 21-75t55-24q18 0 33 2t31 5v-44q-13-6-39-11t-50-5z"/><path transform="translate(27.072 36.8) scale(.016 -.016)" d="m287-10q-108 0-170 69t-62 210q0 140 59.5 208.5t175.5 68.5q108 0 170-68.5t62-208.5q0-141-59.5-210t-175.5-69zm2 52q75 0 105.5 57.5t30.5 169.5-31 168-106 56-105.5-56-30.5-168 31-169.5 106-57.5z"/><path transform="translate(45.904 36.8) scale(.016 -.016)" d="m247-10q-98 0-148.5 39t-50.5 102q0 30 19 48.5t53 18.5q2-41 16-77.5t43-59 76-22.5q67 0 105 32.5t38 93.5q0 37-14.5 62.5t-48 47.5-92.5 46q-93 38-138.5 89t-45.5 133q0 57 28.5 97.5t78 62 112.5 21.5q89 0 138-34t49-78q0-32-21.5-48.5t-57.5-16.5q0 31-10.5 60t-35 48-66.5 19q-58 0-90-31t-32-83q0-40 14.5-67.5t48.5-49 92-45.5q88-36 137-83t49-124q0-95-66.5-148t-179.5-53z"/><path transform="translate(54.608 36.8) scale(.016 -.016)" d="m287-10q-109 0-170.5 72t-61.5 202q0 140 58 211t164 71q97 0 152.5-60t55.5-179v-46h-333q2-109 39.5-158.5t109.5-49.5q52 0 88.5 21.5t54.5 48.5q7-3 13-12t6-22q0-20-19-43t-58-39.5-99-16.5zm97 325q0 80-24.5 128.5t-84.5 48.5q-55 0-85.5-45.5t-35.5-131.5z"/><path transform="translate(63.168 36.8) scale(.016 -.016)" d="m33 0v42h3q34 0 58 12.5t24 59.5v312q0 44-24.5 56t-57.5 12h-3v42h154l19-99h5q13 30 28 55t40 39.5 69 14.5q55 0 81.5-19t26.5-54q0-31-21.5-51t-71.5-20q0 41-12 59.5t-41 18.5q-28 0-47-22t-30-56-16-70.5-5-65.5v-157q0-44 24.5-55.5t57.5-11.5h28v-42z"/><path transform="translate(70.704 36.8) scale(.016 -.016)" d="m161 636q-24 0-40.5 14t-16.5 48q0 35 16.5 48.5t40.5 13.5q23 0 40-13.5t17-48.5q0-34-17-48t-40-14zm-138-636v42h13q33 0 57.5 11.5t24.5 55.5v317q0 44-24.5 56t-57.5 12h-3v42h179v-422q0-47 24-59.5t58-12.5h13v-42z"/><path transform="translate(75.824 36.8) scale(.016 -.016)" d="m27 0v42h13q34 0 58 12.5t24 59.5v375h-91v47h91v50q0 89 47.5 136.5t129.5 47.5q78 0 109-19.5t31-50.5q0-27-23-41.5t-59-14.5q0 30-14 55t-52 25q-43 0-59-33t-16-96v-59h141v-47h-141v-375q0-47 24-59.5t58-12.5h38v-42z"/><path transform="translate(91.328 36.8) scale(.016 -.016)" d="m38 0v42h13q33 0 57.5 11.5t24.5 55.5v495q0 44-24.5 56t-57.5 12h-13v42h291v-42h-13q-34 0-58-12.5t-24-59.5v-282l207 237q32 37 43.5 59.5t11.5 36.5q0 13-12 17.5t-37 4.5v41h221v-41q-34 0-64.5-25t-69.5-69l-145-163 211-294q29-39 55.5-59.5t54.5-20.5h2v-42h-11q-50 0-82.5 4t-54 14-38 27.5-35.5 44.5l-172 247-85-84v-139q0-47 24-59.5t58-12.5h13v-42z"/><path transform="translate(102.53 36.8) scale(.016 -.016)" d="m18 0v42h8q34 0 58 12.5t24 59.5v536q0 44-24.5 56t-57.5 12h-8v42h184v-220q0-18-1-37.5t-2-33.5-1-14h5q46 91 147 91 86 0 131.5-46.5t45.5-149.5v-236q0-47 21.5-59.5t55.5-12.5h3v-42h-174v345q0 65-24.5 101t-85.5 36q-62 0-91.5-44t-29.5-118v-211q0-44 24.5-55.5t57.5-11.5h3v-42z"/><path transform="translate(112.69 36.8) scale(.016 -.016)" d="m161 636q-24 0-40.5 14t-16.5 48q0 35 16.5 48.5t40.5 13.5q23 0 40-13.5t17-48.5q0-34-17-48t-40-14zm-138-636v42h13q33 0 57.5 11.5t24.5 55.5v317q0 44-24.5 56t-57.5 12h-3v42h179v-422q0-47 24-59.5t58-12.5h13v-42z"/><path transform="translate(117.81 36.8) scale(.016 -.016)" d="m240-10q-76 0-110.5 34.5t-34.5 120.5v334h-76v40q18 0 40 7.5t38 24.5q17 18 28 44t18 64h46v-123h131v-57h-131v-337q0-51 21-75t55-24q18 0 33 2t31 5v-44q-13-6-39-11t-50-5z"/><path transform="translate(123.44 36.8) scale(.016 -.016)" d="m205-10q-67 0-111 39t-44 121q0 80 56.5 118t171.5 42l83 3v60q0 36-6 63.5t-26 43.5-61 16q-38 0-58-14t-26.5-38.5-6.5-56.5q-42 0-63.5 14.5t-21.5 48.5q0 35 24.5 56t65.5 30.5 90 9.5q92 0 137.5-39t45.5-134v-259q0-42 14-57t48-15h3v-42h-135l-16 86h-8q-21-28-41-49.5t-46.5-34-68.5-12.5zm23 62q61 0 97 37.5t36 101.5v81l-64-3q-85-4-117.5-34.5t-32.5-89.5q0-93 81-93z"/><path transform="translate(132.45 36.8) scale(.016 -.016)" d="m28 0v42h8q34 0 58 12.5t24 59.5v312q0 44-23.5 56t-56.5 12h-5v42h162l13-81h5q31 56 69.5 73.5t86.5 17.5q79 0 123.5-46.5t44.5-149.5v-236q0-47 20.5-59.5t54.5-12.5h5v-42h-174v345q0 65-24.5 101t-85.5 36q-45 0-71.5-22.5t-38-59.5-11.5-80v-211q0-44 23.5-55.5t56.5-11.5h5v-42z"/><path transform="translate(152.37 36.8) scale(.016 -.016)" d="m247-10q-98 0-148.5 39t-50.5 102q0 30 19 48.5t53 18.5q2-41 16-77.5t43-59 76-22.5q67 0 105 32.5t38 93.5q0 37-14.5 62.5t-48 47.5-92.5 46q-93 38-138.5 89t-45.5 133q0 57 28.5 97.5t78 62 112.5 21.5q89 0 138-34t49-78q0-32-21.5-48.5t-57.5-16.5q0 31-10.5 60t-35 48-66.5 19q-58 0-90-31t-32-83q0-40 14.5-67.5t48.5-49 92-45.5q88-36 137-83t49-124q0-95-66.5-148t-179.5-53z"/><path transform="translate(161.07 36.8) scale(.016 -.016)" d="m28 0v42h13q34 0 55.5 12.5t21.5 59.5v312q0 44-22 56t-55 12h-3v42h157l13-81h5q30 56 67.5 73.5t83.5 17.5q48 0 87-20.5t58-70.5h8q30 56 70.5 73.5t86.5 17.5q77 0 120-46.5t43-149.5v-236q0-47 21.5-59.5t55.5-12.5h3v-42h-174v345q0 65-23.5 101t-81.5 36q-41 0-65.5-20.5t-35-54.5-10.5-74v-219q0-47 21.5-59.5t55.5-12.5h3v-42h-174v345q0 65-23.5 101t-81.5 36q-43 0-68.5-22.5t-36.5-59.5-11-80v-211q0-44 24.5-55.5t57.5-11.5h3v-42z"/><path transform="translate(176.19 36.8) scale(.016 -.016)" d="m205-10q-67 0-111 39t-44 121q0 80 56.5 118t171.5 42l83 3v60q0 36-6 63.5t-26 43.5-61 16q-38 0-58-14t-26.5-38.5-6.5-56.5q-42 0-63.5 14.5t-21.5 48.5q0 35 24.5 56t65.5 30.5 90 9.5q92 0 137.5-39t45.5-134v-259q0-42 14-57t48-15h3v-42h-135l-16 86h-8q-21-28-41-49.5t-46.5-34-68.5-12.5zm23 62q61 0 97 37.5t36 101.5v81l-64-3q-85-4-117.5-34.5t-32.5-89.5q0-93 81-93z"/><path transform="translate(185.2 36.8) scale(.016 -.016)" d="m13 0v42h13q34 0 58 12.5t24 59.5v536q0 44-24.5 56t-57.5 12h-13v42h189v-646q0-47 24-59.5t58-12.5h13v-42z"/><path transform="translate(190.16 36.8) scale(.016 -.016)" d="m13 0v42h13q34 0 58 12.5t24 59.5v536q0 44-24.5 56t-57.5 12h-13v42h189v-646q0-47 24-59.5t58-12.5h13v-42z"/><path transform="translate(204.72 36.8) scale(.016 -.016)" d="m247-10q-98 0-148.5 39t-50.5 102q0 30 19 48.5t53 18.5q2-41 16-77.5t43-59 76-22.5q67 0 105 32.5t38 93.5q0 37-14.5 62.5t-48 47.5-92.5 46q-93 38-138.5 89t-45.5 133q0 57 28.5 97.5t78 62 112.5 21.5q89 0 138-34t49-78q0-32-21.5-48.5t-57.5-16.5q0 31-10.5 60t-35 48-66.5 19q-58 0-90-31t-32-83q0-40 14.5-67.5t48.5-49 92-45.5q88-36 137-83t49-124q0-95-66.5-148t-179.5-53z"/><path transform="translate(213.42 36.8) scale(.016 -.016)" d="m283-10q-66 0-117.5 28t-81 88.5-29.5 158.5q0 107 29.5 168.5t80 87 113.5 25.5q42 0 82-11t66-33.5 26-57.5q0-34-22.5-48.5t-66.5-14.5q0 47-17.5 81t-67.5 34q-38 0-66.5-20t-44-70-15.5-140q0-106 35.5-158.5t115.5-52.5q47 0 81.5 19.5t51.5 50.5q17-14 17-39 0-23-19-45t-56.5-36.5-94.5-14.5z"/><path transform="translate(221.3 36.8) scale(.016 -.016)" d="m33 0v42h3q34 0 58 12.5t24 59.5v312q0 44-24.5 56t-57.5 12h-3v42h154l19-99h5q13 30 28 55t40 39.5 69 14.5q55 0 81.5-19t26.5-54q0-31-21.5-51t-71.5-20q0 41-12 59.5t-41 18.5q-28 0-47-22t-30-56-16-70.5-5-65.5v-157q0-44 24.5-55.5t57.5-11.5h28v-42z"/><path transform="translate(228.83 36.8) scale(.016 -.016)" d="m161 636q-24 0-40.5 14t-16.5 48q0 35 16.5 48.5t40.5 13.5q23 0 40-13.5t17-48.5q0-34-17-48t-40-14zm-138-636v42h13q33 0 57.5 11.5t24.5 55.5v317q0 44-24.5 56t-57.5 12h-3v42h179v-422q0-47 24-59.5t58-12.5h13v-42z"/><path transform="translate(233.95 36.8) scale(.016 -.016)" d="m18-240v42h8q34 0 58 12.5t24 59.5v552q0 44-24.5 56t-57.5 12h-13v42h175l10-90h4q23 46 59 73t94 27q99 0 151.5-66.5t52.5-210.5q0-145-52.5-212t-151.5-67q-58 0-94.5 24.5t-58.5 63.5h-4q2-29 3-61.5t1-51.5v-96q0-44 24.5-55.5t57.5-11.5h3v-42zm321 294q66 0 94.5 55.5t28.5 160.5q0 107-28.5 159.5t-95.5 52.5q-78 0-107-52.5t-29-160.5q0-104 29-159.5t108-55.5z"/><path transform="translate(243.78 36.8) scale(.016 -.016)" d="m240-10q-76 0-110.5 34.5t-34.5 120.5v334h-76v40q18 0 40 7.5t38 24.5q17 18 28 44t18 64h46v-123h131v-57h-131v-337q0-51 21-75t55-24q18 0 33 2t31 5v-44q-13-6-39-11t-50-5z"/></svg>