<svg width="125.06" height="30.352" viewBox="0 0 125.06 30.352" xmlns="http://www.w3.org/2000/svg"><path transform="translate(0 20.512) scale(.016 -.016)" d="m663 0h-105l-382 593h-4q2-23 3.5-54.5t3-67 1.5-72.5v-399h-83v714h104l381-591h4q-1 16-2.5 48t-3 70-1.5 70v403h84z"/><path transform="translate(12.16 20.512) scale(.016 -.016)" d="m551 269q0-89-30.5-151.5t-86.5-95-133-32.5q-71 0-126.5 32.5t-87.5 95-32 151.5q0 133 67 205t182 72q73 0 128.5-32.5t87-94 31.5-150.5zm-405 0q0-63 16.5-109.5t51.5-71.5 89-25 89 25 51.5 71.5 16.5 109.5q0 64-17 109t-51.5 69.5-89.5 24.5q-82 0-119-54t-37-149z"/><path transform="translate(21.84 20.512) scale(.016 -.016)" d="m264 62q20 0 41 3.5t34 7.5v-67q-14-7-40-11.5t-50-4.5q-42 0-77.5 14.5t-57.5 50.5-22 101v312h-76v42l77 35 35 114h52v-123h155v-68h-155v-310q0-49 23.5-72.5t60.5-23.5z"/><path transform="translate(27.616 20.512) scale(.016 -.016)" d="m551 269q0-89-30.5-151.5t-86.5-95-133-32.5q-71 0-126.5 32.5t-87.5 95-32 151.5q0 133 67 205t182 72q73 0 128.5-32.5t87-94 31.5-150.5zm-405 0q0-63 16.5-109.5t51.5-71.5 89-25 89 25 51.5 71.5 16.5 109.5q0 64-17 109t-51.5 69.5-89.5 24.5q-82 0-119-54t-37-149z"/><path transform="translate(42.736 20.512) scale(.016 -.016)" d="m619 0h-106l-253 341-73-64v-277h-90v714h90v-352q30 34 61 68t62 68l193 216h105l-283-311z"/><path transform="translate(52.64 20.512) scale(.016 -.016)" d="m533 536v-536h-72l-13 71h-4q-17-28-44-46t-59-26.5-67-8.5q-64 0-107.5 20.5t-65.5 63.5-22 111v351h89v-345q0-64 29-96t90-32q89 0 123.5 50t34.5 144v279z"/><path transform="translate(62.528 20.512) scale(.016 -.016)" d="m332 468h-135v-468h-88v468h-94v41l94 30v31q0 69 20.5 112t59.5 63 94 20q32 0 58.5-5.5t45.5-12.5l-23-69q-16 5-37 10t-43 5q-44 0-65.5-29.5t-21.5-92.5v-35h135z"/><path transform="translate(68.032 20.512) scale(.016 -.016)" d="m173 536v-536h-88v536zm-43 201q20 0 35.5-13.5t15.5-42.5q0-28-15.5-42t-35.5-14q-22 0-37 14t-15 42q0 29 15 42.5t37 13.5z"/><path transform="translate(77.6 20.512) scale(.016 -.016)" d="m545 0-86 221h-283l-85-221h-91l279 717h81l278-717zm-193 517q-3 8-10 29t-13.5 43.5-10.5 34.5q-5-20-10.5-40.5t-11-37.5-9.5-29l-81-216h226z"/><path transform="translate(87.824 20.512) scale(.016 -.016)" d="m335 546q15 0 32.5-1.5t30.5-4.5l-11-81q-13 3-28.5 5t-29.5 2q-41 0-77-22.5t-57.5-63-21.5-94.5v-286h-88v536h72l10-98h4q26 44 67 76t97 32z"/><path transform="translate(94.432 20.512) scale(.016 -.016)" d="m288 545q98 0 145-43t47-137v-365h-64l-17 76h-4q-23-29-47.5-48.5t-56-28.5-76.5-9q-73 0-121 38.5t-48 120.5q0 80 63 123.5t194 47.5l91 3v32q0 67-29 93t-82 26q-42 0-80-12.5t-71-28.5l-27 66q35 19 83 32.5t100 13.5zm26-286q-100-4-138.5-32t-38.5-79q0-45 27.5-66t70.5-21q68 0 113 37.5t45 115.5v48z"/><path transform="translate(103.41 20.512) scale(.016 -.016)" d="m173 575q0-34-1.5-63.5t-3.5-46.5h5q23 34 63 57t103 23q100 0 160.5-69.5t60.5-207.5q0-92-27.5-154t-77.5-93-116-31q-63 0-103 23t-63 55h-7l-18-68h-63v760h88zm151-103q-85 0-118-49t-33-152v-4q0-99 32.5-151.5t120.5-52.5q72 0 107.5 53t35.5 153q0 101-35.5 152t-109.5 51z"/><path transform="translate(113.25 20.512) scale(.016 -.016)" d="m173 536v-536h-88v536zm-43 201q20 0 35.5-13.5t15.5-42.5q0-28-15.5-42t-35.5-14q-22 0-37 14t-15 42q0 29 15 42.5t37 13.5z"/><path transform="translate(117.38 20.512) scale(.016 -.016)" d="m300-10q-71 0-126.5 29t-87 90-31.5 156q0 99 33 161t89.5 91 128.5 29q41 0 79-8.5t62-20.5l-27-73q-24 9-56 17t-60 8q-54 0-89-23t-52-68-17-112q0-64 17-109t51-68 85-23q44 0 77.5 9t61.5 22v-78q-27-14-59.5-21.5t-78.5-7.5z"/></svg>