<svg width="81.867" height="16.898" viewBox="0 0 81.867 16.898" xmlns="http://www.w3.org/2000/svg"><path transform="translate(0 13.439) scale(.0068359 -.0068359)" d="m200-40v1200q0 350 350 350h310q350 0 350-350v-1110l-190-90h-10v1200q0 170-150 170h-310q-150 0-150-170v-1110l-190-90z"/><path transform="translate(9.6387 13.439) scale(.0068359 -.0068359)" d="m450 180h230q100 0 100 120v500q0 120-100 120h-230q-100 0-100-120v-500q0-120 100-120zm0-180q-300 0-300 300v500q0 300 300 300h230q300 0 300-300v-500q0-300-300-300z"/><path transform="translate(17.363 13.439) scale(.0068359 -.0068359)" d="m436-40-386 1098 173 82h10l283-834 277 834h10l173-82-357-1016-173-82z"/><path transform="translate(24.377 13.439) scale(.0068359 -.0068359)" d="m400 180h210q100 0 100 120v137q0 120-100 120h-210q-100 0-100-120v-137q0-120 100-120zm0-180q-300 0-300 300v137q0 300 300 300h210q52 0 100-30v93q0 120-100 120h-358v10l80 170h278q300 0 300-300v-750l-190-90h-10v70q-38-30-100-30z"/><path transform="translate(37.092 13.439) scale(.0068359 -.0068359)" d="m510 0q-350 0-350 350v110l190 90h10v-200q0-170 150-170h310q150 0 150 170v210q0 170-150 170h-270q-300 0-300 300v180q0 300 300 300h230q300 0 300-300v-53l-190-90h-10v143q0 120-100 120h-230q-100 0-100-120v-180q0-120 100-120h270q350 0 350-350v-210q0-350-350-350z"/><path transform="translate(46.184 13.439) scale(.0068359 -.0068359)" d="m450 180h230q100 0 100 120v500q0 120-100 120h-230q-100 0-100-120v-500q0-120 100-120zm0-180q-300 0-300 300v500q0 300 300 300h230q300 0 300-300v-1160l-190-90h-10v481q-40-31-100-31z"/><path transform="translate(54.25 13.439) scale(.0068359 -.0068359)" d="m450 0q-300 0-300 300v750l190 90h10v-840q0-120 100-120h230q100 0 100 120v750l190 90h10v-840q0-300-300-300z"/><path transform="translate(61.975 13.439) scale(.0068359 -.0068359)" d="m400 180h210q100 0 100 120v137q0 120-100 120h-210q-100 0-100-120v-137q0-120 100-120zm0-180q-300 0-300 300v137q0 300 300 300h210q52 0 100-30v93q0 120-100 120h-358v10l80 170h278q300 0 300-300v-750l-190-90h-10v70q-38-30-100-30z"/><path transform="translate(69.221 13.439) scale(.0068359 -.0068359)" d="m150-40v840q0 300 300 300h250v-10l-80-170h-170q-100 0-100-120v-750l-190-90z"/><path transform="translate(74.143 13.439) scale(.0068359 -.0068359)" d="m450 0q-300 0-300 300v500q0 300 300 300h230q300 0 300-300v-53l-627-485q14-82 97-82h230q100 0 100 120v53l190 90h10v-143q0-300-300-300zm-100 471 429 346q-6 103-99 103h-230q-100 0-100-120z"/></svg>