<svg width="77.656" height="16.898" viewBox="0 0 77.656 16.898" xmlns="http://www.w3.org/2000/svg"><path transform="translate(0 13.439) scale(.0068359 -.0068359)" d="m200-40v1070q0 216 135 355 142 145 370 145 225 0 370-145 135-134 135-355v-980l-190-90h-10v1070q0 134-72 217-89 103-233 103t-233-103q-72-83-72-217v-980l-190-90z"/><path transform="translate(9.6387 13.439) scale(.0068359 -.0068359)" d="m150 380v340q0 165 124 287 116 113 291 113 173 0 291-113 124-120 124-287v-340q0-165-124-287-116-113-291-113-173 0-291 113-124 120-124 287zm200 0q0-115 62.5-168.5t152.5-53.5 152.5 53.5 62.5 168.5v340q0 115-62.5 168.5t-152.5 53.5-152.5-53.5-62.5-168.5z"/><path transform="translate(17.363 13.439) scale(.0068359 -.0068359)" d="m436-40-386 1098 173 82h10l283-834 277 834h10l173-82-357-1016-173-82z"/><path transform="translate(24.377 13.439) scale(.0068359 -.0068359)" d="m910 50-190-90h-10v105q-80-85-215-85-187 0-291 113t-104 267q0 160 113 272 109 108 282 108 123 0 215-85 0 177-62 233-60 54-153 54h-243v10l80 168h163q175 0 291-113 124-121 124-287zm-614 310q0-89 54-147 52-56 146-56 98 0 152 57 60 64 60 144 0 90-62 146t-149 56q-91 0-146-59t-55-141z"/><path transform="translate(37.092 13.439) scale(.0068359 -.0068359)" d="m200-40v1500l106 50h379q228 0 370-145 135-138 135-355 0-218-135-355-80-81-187-117l346-495-176-83h-10l-385 550h-243v-460l-190-90zm200 730h285q131 0 233 103 72 73 72 217 0 134-72 217-89 103-233 103h-285z"/><path transform="translate(46.416 13.439) scale(.0068359 -.0068359)" d="m150 380v340q0 165 124 287 116 113 291 113 173 0 291-113 124-120 124-287v-340q0-165-124-287-116-113-291-113-173 0-291 113-124 120-124 287zm200 0q0-115 62.5-168.5t152.5-53.5 152.5 53.5 62.5 168.5v340q0 115-62.5 168.5t-152.5 53.5-152.5-53.5-62.5-168.5z"/><path transform="translate(54.141 13.439) scale(.0068359 -.0068359)" d="m980 1140v-760q0-165-124-287-116-113-291-113-173 0-291 113-124 120-124 287v670l190 90h10v-760q0-115 62.5-168.5t152.5-53.5 152.5 53.5 62.5 168.5v670l190 90z"/><path transform="translate(61.865 13.439) scale(.0068359 -.0068359)" d="m150-40v760q0 165 124 287 116 113 291 113 173 0 291-113 124-120 124-287v-670l-190-90h-10v760q0 115-62.5 168.5t-152.5 53.5-152.5-53.5-62.5-168.5v-670l-190-90z"/><path transform="translate(69.59 13.439) scale(.0068359 -.0068359)" d="m350 380q0-115 62.5-168.5t152.5-53.5 152.5 53.5 62.5 168.5v340q0 115-62.5 168.5t-152.5 53.5-152.5-53.5-62.5-168.5zm-200 0v340q0 165 124 287 116 113 291 113 132 0 215-85v425l190 90h10v-1170q0-165-124-287-116-113-291-113-173 0-291 113-124 120-124 287z"/></svg>