<svg width="61.318" height="16.898" viewBox="0 0 61.318 16.898" xmlns="http://www.w3.org/2000/svg"><path transform="translate(0 13.439) scale(.0068359 -.0068359)" d="m200-40v1240q0 183 227 277 127 53 278 53t278-53q227-94 227-277v-1150l-190-90h-10v1240q0 69-121 117-84 33-184 33t-184-33q-121-48-121-117v-1150l-190-90z"/><path transform="translate(9.6387 13.439) scale(.0068359 -.0068359)" d="m350 260q0-50 62.5-75t152.5-25 152.5 25 62.5 75v580q0 50-62.5 75t-152.5 25-152.5-25-62.5-75zm-200-35v650q0 132 187 206 101 39 228 39t228-39q187-74 187-206v-650q0-132-187-206-101-39-228-39t-228 39q-187 74-187 206z"/><path transform="translate(17.363 13.439) scale(.0068359 -.0068359)" d="m436-40-386 1098 173 82h10l283-834 277 834h10l173-82-357-1016-173-82z"/><path transform="translate(24.377 13.439) scale(.0068359 -.0068359)" d="m910 50-190-90h-10v54q-96-34-205-34-117 0-218 39-187 74-187 206v270q0 134 187 206 101 39 218 39 110 0 205-34v134q0 50-62.5 75t-152.5 25h-243v10l80 170h163q127 0 228-39 187-72 187-206zm-610 210q0-50 62.5-75t142.5-25 142.5 25 62.5 75v200q0 50-62.5 75t-142.5 25-143-25q-62-25-62-75z"/><path transform="translate(37.092 13.439) scale(.0068359 -.0068359)" d="m200-40v1500l106 50h634v-10l-81-172h-459v-482h540v-10l-81-172h-459v-614l-190-90z"/><path transform="translate(44.748 13.439) scale(.0068359 -.0068359)" d="m200-40v1500l190 90h10v-1500l-190-90z"/><path transform="translate(48.85 13.439) scale(.0068359 -.0068359)" d="m910 50-190-90h-10v54q-96-34-205-34-117 0-218 39-187 74-187 206v270q0 134 187 206 101 39 218 39 110 0 205-34v134q0 50-62.5 75t-152.5 25h-243v10l80 170h163q127 0 228-39 187-72 187-206zm-610 210q0-50 62.5-75t142.5-25 142.5 25 62.5 75v200q0 50-62.5 75t-142.5 25-143-25q-62-25-62-75z"/><path transform="translate(56.096 13.439) scale(.0068359 -.0068359)" d="m282-40v958h-257v10l81 172h176v360l190 90h10v-450h257v-10l-81-172h-176v-868l-190-90z"/></svg>