<svg width="76.412" height="19.096" viewBox="0 0 76.412 19.096" xmlns="http://www.w3.org/2000/svg"><path transform="translate(0 14.154) scale(.014 -.014)" d="M87 0V705H151L600 106H576V705H652V0H590L141 599H164V0Z"/><path transform="translate(10.36 14.154) scale(.014 -.014)" d="m248-9q-59 0-97.5 21.5t-58 64.5-19.5 107v302h81v-301q0-43 11.5-71.5t36.5-42 62-13.5q42 0 73 19t49 53 18 80v276h81v-486h-79v112h13q-20-59-65.5-90t-105.5-31z"/><path transform="translate(18.214 14.154) scale(.014 -.014)" d="m76 0v486h79v-108h-11q21 58 68.5 87.5t109.5 29.5q58 0 96.5-20.5t57.5-63.5 19-108v-303h-81v298q0 45-11.5 74t-36 43-63.5 14q-44 0-77-19t-51-53-18-80v-277z"/><path transform="translate(26.166 14.154) scale(.014 -.014)" d="M66 607V698H166V607ZM76 0V486H157V0Z"/><path transform="translate(29.414 14.154) scale(.014 -.014)" d="m271-9q-86 0-129 46t-43 131v255h-95v63h95v149h81v-149h154v-63h-154v-247q0-57 24-86.5t78-29.5q16 0 32 4t29 8l14-62q-13-7-38-13t-48-6z"/><path transform="translate(34.314 14.154) scale(.014 -.014)" d="m278-9q-71 0-123 31t-80.5 87.5-28.5 133.5 28.5 133.5 80.5 87.5 123 31 123-31 80.5-87.5 28.5-133.5-28.5-133.5-80.5-87.5-123-31zm0 65q69 0 109.5 48.5t40.5 139.5q0 90-40.5 138t-109.5 48q-68 0-109-48t-41-138q0-91 41-139.5t109-48.5z"/><path transform="translate(45.696 14.154) scale(.014 -.014)" d="m315-9q-55 0-103.5 10t-89 28.5-73.5 45.5l29 66q34-25 69.5-42.5t77-26 90.5-8.5q90 0 133.5 33.5t43.5 88.5q0 29-13.5 50t-44 36-79.5 25l-104 21q-94 20-140.5 65.5t-46.5 121.5q0 63 32.5 110t91 73 133.5 26q48 0 91-10t79.5-29.5 64.5-47.5l-29-64q-45 41-95 59.5t-112 18.5q-53 0-91.5-16t-60-46.5-21.5-70.5q0-48 29.5-76t96.5-41l104-22q101-21 149.5-63.5t48.5-115.5q0-58-31.5-103.5t-90-70.5-138.5-25z"/><path transform="translate(54.306 14.154) scale(.014 -.014)" d="m229-9q-50 0-89.5 19.5t-62.5 53.5-23 76q0 54 27.5 85t91 44 173.5 13h45v-53h-44q-61 0-102-4t-65-14-34-26-10-40q0-41 28.5-67t77.5-26q40 0 70.5 19t48 52 17.5 76v114q0 62-25 89.5t-82 27.5q-44 0-85-12.5t-84-40.5l-28 59q26 18 59 31.5t69 20.5 69 7q63 0 104-20.5t61-62 20-106.5v-306h-76v113h9q-8-38-30.5-65t-55.5-42-74-15z"/><path transform="translate(61.726 14.154) scale(.014 -.014)" d="m76 0v486h79v-108h-11q21 58 68.5 87.5t109.5 29.5q58 0 96.5-20.5t57.5-63.5 19-108v-303h-81v298q0 45-11.5 74t-36 43-63.5 14q-44 0-77-19t-51-53-18-80v-277z"/><path transform="translate(69.678 14.154) scale(.014 -.014)" d="m240-9q-38 0-73.5 7.5t-66 21-52.5 32.5l26 57q24-19 52-31.5t57-18.5 59-6q57 0 86 21t29 57q0 28-19 44.5t-60 25.5l-91 20q-63 13-93.5 45t-30.5 83q0 45 23.5 77.5t66.5 50.5 100 18q34 0 65-7t58.5-20.5 47.5-33.5l-27-57q-19 18-43 30.5t-49.5 19-51.5 6.5q-56 0-85-22t-29-58q0-28 18-46t56-26l91-19q65-14 97.5-44.5t32.5-82.5q0-44-24-76.5t-67.5-50-102.5-17.5z"/></svg>