<svg width="42.098" height="19.096" viewBox="0 0 42.098 19.096" xmlns="http://www.w3.org/2000/svg"><path transform="translate(0 14.154) scale(.014 -.014)" d="m126-7q-19 0-29 10.5t-10 30.5v636q0 20 10 31t26 11 23.5-5.5 17.5-19.5l436-581h-24v566q0 19 10 29.5t29 10.5q18 0 27.5-10.5t9.5-29.5v-639q0-19-8.5-29.5t-24.5-10.5q-15 0-24 6t-19 19l-435 581h23v-565q0-20-10-30.5t-28-10.5z"/><path transform="translate(10.36 14.154) scale(.014 -.014)" d="m248-9q-59 0-97.5 21.5t-58 64.5-19.5 107v268q0 21 10.5 31t29.5 10q20 0 30.5-10t10.5-31v-267q0-64 26.5-95.5t83.5-31.5q62 0 101 42t39 110v242q0 21 10.5 31t30.5 10q19 0 29.5-10t10.5-31v-417q0-42-39-42-19 0-29.5 11t-10.5 31v91l13-14q-20-59-65.5-90t-105.5-31z"/><path transform="translate(18.214 14.154) scale(.014 -.014)" d="m116-7q-20 0-30 11t-10 31v417q0 20 10 30.5t29 10.5 29.5-10.5 10.5-30.5v-86l-11 12q21 58 68.5 87.5t109.5 29.5q58 0 96.5-21t57.5-63.5 19-107.5v-268q0-20-10.5-31t-29.5-11q-20 0-30.5 11t-10.5 31v263q0 68-26.5 99.5t-84.5 31.5q-67 0-106.5-41.5t-39.5-110.5v-242q0-42-41-42z"/><path transform="translate(26.166 14.154) scale(.014 -.014)" d="m116-5q-20 0-30 11.5t-10 32.5v409q0 21 10 32t30 11q19 0 30-11t11-32v-409q0-21-10.5-32.5t-30.5-11.5zm0 608q-25 0-39 13.5t-14 36.5q0 24 14 36.5t39 12.5q26 0 39.5-12.5t13.5-36.5q0-23-13.5-36.5t-39.5-13.5z"/><path transform="translate(29.414 14.154) scale(.014 -.014)" d="m271-9q-57 0-95.5 20.5t-57.5 60-19 96.5v255h-67q-17 0-26 8.5t-9 23.5 9 23 26 8h67v115q0 20 11 30.5t30 10.5 29.5-10.5 10.5-30.5v-115h126q17 0 26-8t9-23-9-23.5-26-8.5h-126v-247q0-57 24-86.5t78-29.5q19 0 32.5 4t22.5 4q9 1 15-6t6-24q0-12-4.5-22t-15.5-14q-12-4-31.5-7.5t-35.5-3.5z"/><path transform="translate(34.314 14.154) scale(.014 -.014)" d="m278-9q-71 0-123 31t-80.5 87.5-28.5 133.5q0 58 16 104.5t47 79.5 73.5 50.5 95.5 17.5q71 0 123-31t80.5-87.5 28.5-133.5q0-58-16-104t-47-79.5-73.5-51-95.5-17.5zm0 65q45 0 79 22t52.5 64 18.5 101q0 91-40.5 139t-109.5 48q-46 0-79.5-21.5t-52-63-18.5-102.5q0-90 41-138.5t109-48.5z"/></svg>