<svg width="63.444" height="18.457" viewBox="0 0 63.444 18.457" xmlns="http://www.w3.org/2000/svg"><path transform="translate(0 15.039) scale(.0068359 -.0068359)" d="m1273-23-933 1136v-867q0-130 29-164 36-43 123-43h49v-39h-492v39h50q93 0 127 55 24 30 24 152v980q-16 21-32.5 42.5t-33.5 42.5q-67 63-171 63v36h343l862-1057v814q0 131-30 161-41 46-123 46h-47v36h491v-36h-49q-92 0-127-54-23-33-23-153v-1190z"/><path transform="translate(10.527 15.039) scale(.0068359 -.0068359)" d="m408-31q-246 0-246 371v426q0 91-33 119-33 29-129 29v40h336v-638q0-217 157-217 105 0 239 134v542q0 82-37 113-29 23-117 26v40h329v-702q0-143 63-143 45 0 84 15l14-35-289-120h-47v203q-58-60-103.5-101t-80.5-61q-70-41-140-41z"/><path transform="translate(17.808 15.039) scale(.0068359 -.0068359)" d="m523-31q-193 0-323 148-129 149-129 351t123 351q133 161 339 161 199 0 331-139 128-138 128-348 0-204-117-354-134-170-352-170zm43 77q232 0 232 369 0 218-82 357-81 142-216 142-97 0-158-76-77-95-77-285 0-212 81-356 85-151 220-151z"/><path transform="translate(25.088 15.039) scale(.0068359 -.0068359)" d="m436-31q-59 0-143 30-93 31-113 34-16 0-37-47h-34v340h34q29-140 112-219 75-74 181-74 75 0 119 41 43 43 46 100 1 72-45 125-46 50-196 129-150 76-203 143-53 65-53 154 0 112 82 183 82 72 229 72 50 0 123-19 36-8 57.5-13.5t25.5-5.5q29 0 47 38h36v-324h-36q-63 265-258 265-179 0-184-126-4-124 156-199l153-71q220-104 220-285 0-108-96-190-96-81-223-81z"/><path transform="translate(30.769 15.039) scale(.0068359 -.0068359)" d="m408-31q-246 0-246 371v426q0 91-33 119-33 29-129 29v40h336v-638q0-217 157-217 105 0 239 134v542q0 82-37 113-29 23-117 26v40h329v-702q0-143 63-143 45 0 84 15l14-35-289-120h-47v203q-58-60-103.5-101t-80.5-61q-70-41-140-41z"/><path transform="translate(41.604 15.039) scale(.0068359 -.0068359)" d="m147-33v483h37q24-202 148-308 110-93 273-93 123 0 204 70 76 65 76 160 0 99-77 170-60 54-263 169-250 141-329 233-80 88-80 221 0 156 111 262 113 109 298 109 99 0 203-40 109-40 123-40 46 0 69 80h38v-488h-38q-20 194-129 299-108 107-263 107-105 0-176-64-73-64-73-153 0-82 70-147 35-34 105-78t175-101q95-50 162.5-91t109.5-73q151-115 151-294 0-162-125-278-129-115-319-115-113 0-238 42-123 40-143 40-49 0-63-82z"/><path transform="translate(49.704 15.039) scale(.0068359 -.0068359)" d="m53 0v39h51q84 0 126 51 25 31 25 160v913q0 129-23 157-43 54-128 54h-51v36h605v-36h-52q-85 0-124-51-27-36-27-160v-913q0-125 24-161 14-18 52-33 35-17 75-17h52v-39z"/><path transform="translate(54.551 15.039) scale(.0068359 -.0068359)" d="m39 0v39q105 0 150 28 57 39 57 149v979q0 111-57 148-45 28-150 28v39h613v-39q-105 0-150-28-57-39-57-148v-929q0-111 43-147 35-29 133-29h144q230 0 299 62 87 73 157 237l37-6-123-383z"/></svg>