<svg width="58.016" height="20.176" viewBox="0 0 58.016 20.176" xmlns="http://www.w3.org/2000/svg"><path transform="translate(0 15.936) scale(.016 -.016)" d="m563 597v-454q0-76-60.5-117t-174.5-41q-112 0-170 40t-58 118v454q0 77 60.5 117.5t174.5 40.5q112 0 170-40t58-118zm-383 10v-474q0-78 148-78 76 0 115.5 20t39.5 58v474q0 78-148 78-76 0-115.5-20t-39.5-58z"/><path transform="translate(10.608 15.936) scale(.016 -.016)" d="m80 600h70v57q0 158 206 158h35q20 0 20-35t-20-35h-35q-126 0-126-78v-67h115q20 0 20-35t-20-35h-115v-633q0-39-8-72.5t-21.5-54-29.5-20.5q-9 0-21 6.5t-21 16-9 16.5q0 6 7.5 17.5t15 35 7.5 65.5v623h-70q-20 0-20 35t20 35z"/><path transform="translate(16.768 15.936) scale(.016 -.016)" d="m80 600h70v57q0 158 206 158h35q20 0 20-35t-20-35h-35q-126 0-126-78v-67h115q20 0 20-35t-20-35h-115v-633q0-39-8-72.5t-21.5-54-29.5-20.5q-9 0-21 6.5t-21 16-9 16.5q0 6 7.5 17.5t15 35 7.5 65.5v623h-70q-20 0-20 35t20 35z"/><path transform="translate(22.928 15.936) scale(.016 -.016)" d="m440 427v39q0 79-129 79-59 0-92-19.5t-33-55.5v-22q0-34 5-52.5t21-28 48-17.5l87-22q72-18 110-36.5t51.5-47 13.5-76.5v-36q0-71-56-109t-161-38q-215 0-215 159v32q0 12 9 17t31 5q17 0 28-7t11-18v-45q0-38 33-55.5t104-17.5q137 0 137 70v53q0 30-22.5 47.5t-81.5 32.5l-88 22q-60 15-91 33t-42 49.5-11 88.5v12q0 74 52.5 113t149.5 39q210 0 210-156v-35q0-21-35-21-44 0-44 24z"/><path transform="translate(32.72 15.936) scale(.016 -.016)" d="m190 582v-465q0-27 7.5-44t15-27.5 7.5-16.5q0-7-9-16.5t-20.5-16-21.5-6.5q-14 0-28 17.5t-22.5 44.5-8.5 55v475q0 23 40 23t40-23zm3 126q0-25-43-25-44 0-44 25v87q0 25 43 25 44 0 44-25z"/><path transform="translate(37.52 15.936) scale(.016 -.016)" d="m533 777v-634q0-76-55.5-117t-160.5-41-161 41-56 117v299q0 77 55.5 117.5t160.5 40.5h87q20 0 20-35t-20-35h-87q-136 0-136-78v-319q0-38 35-58t102-20q136 0 136 78v644q0 23 40 23t40-23z"/><path transform="translate(47.808 15.936) scale(.016 -.016)" d="m538 459v-30q0-55-14.5-87.5t-49.5-48.5-99-22l-195-19v-119q0-78 130-78 76 0 112 17t36 51v38q0 23 40 23t40-23v-28q0-148-220-148-105 0-161.5 41t-56.5 117v314q0 77 60.5 117.5t172.5 40.5q105 0 155-38t50-118zm-358 8v-145l188 19q55 5 72.5 22.5t17.5 65.5v38q0 38-36 58t-104 20q-67 0-102.5-20t-35.5-58z"/></svg>