<svg width="104.05" height="14" viewBox="0 0 104.05 14" xmlns="http://www.w3.org/2000/svg"><path transform="translate(0 10.668) scale(.014 -.014)" d="m70 356q0 95 37 181.5t103 139.5 150 53 150-53 103-139.5 37-181.5-37-181.5-103-139.5-150-53-150 53-103 139.5-37 181.5zm474 0q0 164-43 253t-141 89-141-89-43-253q0-163 43-252.5t141-89.5 141 89.5 43 252.5z"/><path transform="translate(9.8 10.668) scale(.014 -.014)" d="m28 24h52q12 0 17 5t5 17v620q0 12-5 17t-17 5h-52v24h146v-666q0-12 5-17t17-5h52v-24h-220z"/><path transform="translate(13.58 10.668) scale(.014 -.014)" d="m48 228q0 67 24 122t64.5 86.5 87.5 31.5q39 0 70-25.5t46-61.5l4 1v284q0 12-5 17t-17 5h-72v24h166v-666q0-12 5-17t17-5h52v-24h-146v74l-4 1q-19-40-48.5-63.5t-67.5-23.5q-47 0-87.5 31.5t-64.5 86.5-24 122zm296-46v92q0 45-14.5 83.5t-39.5 60.5-55 22q-49 0-74-55t-25-157 25-157 74-55q30 0 55 22t39.5 60.5 14.5 83.5z"/><path transform="translate(24.808 10.668) scale(.014 -.014)" d="m198 41q-42 32-50 32-20 0-26-43l-4-40h-23l-7 316h24q6-74 41.5-141.5t88.5-109 109-41.5q82 0 119.5 40t37.5 96q0 49-28.5 77t-83.5 50l-152 61q-79 32-116.5 82.5t-37.5 121.5q0 96 56 142t140 46q66 0 146-60 10-7 20-12.5t18-5.5q17 0 20 24l4 36h24l10-260h-24q-16 72-50.5 128t-80.5 87-95 31q-56 0-92-36.5t-36-101.5q0-45 23-70t68-43l193-77q67-27 100.5-77t33.5-105q0-53-23.5-100t-72-76.5-121.5-29.5q-42 0-82.5 18.5t-70.5 40.5z"/><path transform="translate(33.488 10.668) scale(.014 -.014)" d="m102 107v321h-74v28h22q45 0 70.5 48.5t25.5 107.5v36h28v-192h124v-28h-124v-326q0-30 12-50t41-20q71 0 71 120h18q0-67-19.5-115.5t-90.5-48.5q-45 0-74.5 32t-29.5 87z"/><path transform="translate(38.388 10.668) scale(.014 -.014)" d="m46 106q0 51 26 80t60.5 41.5 83.5 21.5l92 17v85q0 93-93 93-34 0-62-17.5t-28-39.5q0-10 3-15 2-3 6.5-6t8.5-4q18-5 27.5-14t9.5-25q0-21-12.5-30t-31.5-9q-22 0-40 17t-18 49q0 37 20.5 64t53 40.5 66.5 13.5q66 0 114-34.5t48-107.5v-246q0-50 31-50 25 0 36 29t11 71h18q0-60-17.5-101t-62.5-41q-43 0-64.5 25.5t-23.5 70.5l-5 2q-15-35-48.5-66.5t-78.5-31.5q-53 0-91.5 26t-38.5 92zm262 44v95l-87-19q-48-10-69.5-39.5t-21.5-83.5q0-46 19-62.5t43-16.5q45 0 70.5 35.5t45.5 90.5z"/><path transform="translate(45.304 10.668) scale(.014 -.014)" d="m38 24h42q12 0 17 5t5 17v364q0 12-5 17t-17 5h-42v24h136v-82l4-1q23 48 57 71.5t75 23.5q73 0 103.5-45t30.5-108v-269q0-12 5-17t17-5h42v-24h-200v24h42q12 0 17 5t5 17v288q0 44-17.5 75t-59.5 31q-35 0-62.5-24.5t-43-67-15.5-94.5v-208q0-12 5-17t17-5h42v-24h-200z"/><path transform="translate(52.864 10.668) scale(.014 -.014)" d="m48 228q0 67 24 122t64.5 86.5 87.5 31.5q39 0 70-25.5t46-61.5l4 1v284q0 12-5 17t-17 5h-72v24h166v-666q0-12 5-17t17-5h52v-24h-146v74l-4 1q-19-40-48.5-63.5t-67.5-23.5q-47 0-87.5 31.5t-64.5 86.5-24 122zm296-46v92q0 45-14.5 83.5t-39.5 60.5-55 22q-49 0-74-55t-25-157 25-157 74-55q30 0 55 22t39.5 60.5 14.5 83.5z"/><path transform="translate(60.172 10.668) scale(.014 -.014)" d="m46 106q0 51 26 80t60.5 41.5 83.5 21.5l92 17v85q0 93-93 93-34 0-62-17.5t-28-39.5q0-10 3-15 2-3 6.5-6t8.5-4q18-5 27.5-14t9.5-25q0-21-12.5-30t-31.5-9q-22 0-40 17t-18 49q0 37 20.5 64t53 40.5 66.5 13.5q66 0 114-34.5t48-107.5v-246q0-50 31-50 25 0 36 29t11 71h18q0-60-17.5-101t-62.5-41q-43 0-64.5 25.5t-23.5 70.5l-5 2q-15-35-48.5-66.5t-78.5-31.5q-53 0-91.5 26t-38.5 92zm262 44v95l-87-19q-48-10-69.5-39.5t-21.5-83.5q0-46 19-62.5t43-16.5q45 0 70.5 35.5t45.5 90.5z"/><path transform="translate(67.088 10.668) scale(.014 -.014)" d="m38 24h42q12 0 17 5t5 17v364q0 12-5 17t-17 5h-42v24h136v-100l4-1q21 52 54.5 82.5t71.5 30.5 62-22 24-60q0-22-15.5-43t-39.5-21q-19 0-32 10t-13 28q0 21 20 36 9 6 13.5 11t4.5 13q0 9-8.5 14.5t-23.5 5.5q-31 0-59.5-30t-45.5-78-17-100v-186q0-12 5-17t17-5h42v-24h-200z"/><path transform="translate(72.828 10.668) scale(.014 -.014)" d="m48 228q0 67 24 122t64.5 86.5 87.5 31.5q39 0 70-25.5t46-61.5l4 1v284q0 12-5 17t-17 5h-72v24h166v-666q0-12 5-17t17-5h52v-24h-146v74l-4 1q-19-40-48.5-63.5t-67.5-23.5q-47 0-87.5 31.5t-64.5 86.5-24 122zm296-46v92q0 45-14.5 83.5t-39.5 60.5-55 22q-49 0-74-55t-25-157 25-157 74-55q30 0 55 22t39.5 60.5 14.5 83.5z"/><path transform="translate(84.056 10.668) scale(.014 -.014)" d="m198 32h96q27 0 27 27v597q0 14-6 20.5t-21 6.5h-36q-63 0-109-64-29-41-39-102.5t-10-90.5h-28l8 286h574l8-286h-28q0 29-10 90.5t-39 102.5q-46 64-109 64h-36q-15 0-21-6.5t-6-20.5v-597q0-27 27-27h96v-32h-338z"/><path transform="translate(94.052 10.668) scale(.014 -.014)" d="m198 32h96q27 0 27 27v597q0 14-6 20.5t-21 6.5h-36q-63 0-109-64-29-41-39-102.5t-10-90.5h-28l8 286h574l8-286h-28q0 29-10 90.5t-39 102.5q-46 64-109 64h-36q-15 0-21-6.5t-6-20.5v-597q0-27 27-27h96v-32h-338z"/></svg>