<svg width="76.043" height="14.003" viewBox="0 0 76.043 14.003" xmlns="http://www.w3.org/2000/svg"><path transform="translate(0 11.266) scale(.003418 -.003418)" d="m1018.5 2482.5q162.5 37.5 341.5 37.5t341.5-37.5 294-104.5 242.5-160 192-205.5 137.5-239 84.5-261 28-272.5-28-272.5-84.5-261-137.5-239-192-205.5-242.5-160-294-104.5-341.5-37.5-341.5 37.5-294 104.5-242.5 160-192 205.5-137.5 239-84.5 261-28 272.5 28 272.5 84.5 261 137.5 239 192 205.5 242.5 160 294 104.5zm-258.5-1242.5q0-200 38.5-372.5t111.5-304.5 188.5-207.5 261.5-75.5 261.5 75.5 188.5 207.5 111.5 304.5 38.5 372.5q0 160-22.5 302t-70.5 263.5-117.5 208.5-169 136.5-220.5 49.5-220.5-49.5-169-136.5-117.5-208.5-70.5-263.5-22.5-302z"/><path transform="translate(9.2969 11.266) scale(.003418 -.003418)" d="m80 1840h621l126-243q177 283 501 283 217 0 344.5-133.5t127.5-346.5q0-133-93.5-226.5t-226.5-93.5-226.5 93.5-93.5 226.5q0 54 17 104-27 16-57 16-67 0-138.5-87.5t-137.5-261.5l-4-851h440v-320h-1200v320h200v1200h-200z"/><path transform="translate(15.723 11.266) scale(.003418 -.003418)" d="m698 800q9-116 38-207t70.5-149 96.5-95.5 113-53 124-15.5q211 0 329.5 81.5t189.5 251.5l266-92q-36-97-91.5-182.5t-133.5-157.5-173.5-123.5-215.5-80.5-253-29q-197 0-372.5 69t-305 192.5-205 304.5-75.5 394 75.5 396 205 308.5 305 196.5 372.5 71 372.5-71 305-196.5 205-308.5 75.5-396l-25-108zm7 320h706q-26 230-115 335t-236 105q-73 0-131-23.5t-104-75-76.5-137-43.5-204.5z"/><path transform="translate(22.887 11.266) scale(.003418 -.003418)" d="M80 2480H840V320H1040V0H80V320H280V2160H80Z"/><path transform="translate(26.715 11.266) scale(.003418 -.003418)" d="m698 800q9-116 38-207t70.5-149 96.5-95.5 113-53 124-15.5q211 0 329.5 81.5t189.5 251.5l266-92q-36-97-91.5-182.5t-133.5-157.5-173.5-123.5-215.5-80.5-253-29q-197 0-372.5 69t-305 192.5-205 304.5-75.5 394 75.5 396 205 308.5 305 196.5 372.5 71 372.5-71 305-196.5 205-308.5 75.5-396l-25-108zm7 320h706q-26 230-115 335t-236 105q-73 0-131-23.5t-104-75-76.5-137-43.5-204.5z"/><path transform="translate(33.879 11.266) scale(.003418 -.003418)" d="m1320 2200q0 133 93.5 226.5t226.5 93.5q50 0 98-15 62-19 108.5-50t75.5-68 47-85.5 24.5-97 6.5-107.5q0-61-24-128t-63.5-126.5-86-111-95.5-90.5q149-147 149-361 0-160-69.5-284.5t-191.5-201-278.5-115.5-340.5-39q-152 0-291 34-91-14-140-49t-49-65 25-55 55-25h560q423 0 611.5-121t188.5-399q0-134-33-243.5t-89.5-187-139.5-137-174-95.5-203-58-217-30.5-224-8.5q-190 0-343.5 41.5t-252 113.5-151.5 165.5-53 199.5q0 217 249 339-97 49-153 134.5t-56 206.5q0 135 78 245t210 160q-117 83-182.5 202t-65.5 273q0 128 45.5 230t123 169.5 186 112 228.5 63.5 257 19q316 0 539-104 51 59 79 111-125 8-211.5 100t-86.5 219zm-300-640q-141 0-220.5-81t-79.5-234q0-154 80-239.5t220-85.5q139 0 219.5 86.5t80.5 238.5q0 151-80 233t-220 82zm-305-1560q-115-82-115-200 0-119 74-159.5t286-40.5q480 0 480 240 0 60-50 110t-110 50z"/><path transform="translate(40.92 11.266) scale(.003418 -.003418)" d="m1800 1205v-885h200v-320h-623l-89 208q-102-146-236.5-200t-375.5-54q-125 0-232.5 43.5t-183 118.5-118 180-42.5 225q0 207 162 343.5t414 136.5q203 0 336-38.5t228-122.5v424q0 90-24.5 150.5t-73.5 93-110 45.5-146 13q-68 0-123-29 31-65 31-137 0-133-93.5-226.5t-226.5-93.5-226.5 93.5-93.5 226.5q0 68 26.5 128t73.5 105q40 42 83 75.5t108.5 67 142.5 55.5 184.5 35.5 235.5 13.5q166 0 312-49t252-136 167-214 61-276zm-560-761v138q-62 59-139.5 99.5t-143.5 40.5q-142 0-200-47.5t-58-153.5q0-127 50-187t186-60q77 0 160.5 49.5t144.5 120.5z"/><path transform="translate(51.789 11.266) scale(.003418 -.003418)" d="m1018.5 2482.5q162.5 37.5 341.5 37.5t341.5-37.5 294-104.5 242.5-160 192-205.5 137.5-239 84.5-261 28-272.5-28-272.5-84.5-261-137.5-239-192-205.5-242.5-160-294-104.5-341.5-37.5-341.5 37.5-294 104.5-242.5 160-192 205.5-137.5 239-84.5 261-28 272.5 28 272.5 84.5 261 137.5 239 192 205.5 242.5 160 294 104.5zm-258.5-1242.5q0-200 38.5-372.5t111.5-304.5 188.5-207.5 261.5-75.5 261.5 75.5 188.5 207.5 111.5 304.5 38.5 372.5q0 160-22.5 302t-70.5 263.5-117.5 208.5-169 136.5-220.5 49.5-220.5-49.5-169-136.5-117.5-208.5-70.5-263.5-22.5-302z"/><path transform="translate(61.086 11.266) scale(.003418 -.003418)" d="m1400 1880q140 0 245-38t172-104.5 108.5-169 58-220 16.5-268.5v-760h200v-320h-960v320h200v800q0 158-28.5 246t-82 121-145.5 33q-84 0-172-71t-167-198l-5-931h200v-320h-960v320h200v1200h-200v320h621l140-271q37 67 85.5 120.5t116 98 158.5 68.5 199 24z"/><path transform="translate(68.879 11.266) scale(.003418 -.003418)" d="m698 800q9-116 38-207t70.5-149 96.5-95.5 113-53 124-15.5q211 0 329.5 81.5t189.5 251.5l266-92q-36-97-91.5-182.5t-133.5-157.5-173.5-123.5-215.5-80.5-253-29q-197 0-372.5 69t-305 192.5-205 304.5-75.5 394 75.5 396 205 308.5 305 196.5 372.5 71 372.5-71 305-196.5 205-308.5 75.5-396l-25-108zm7 320h706q-26 230-115 335t-236 105q-73 0-131-23.5t-104-75-76.5-137-43.5-204.5z"/></svg>