<svg width="56.896" height="19.12" viewBox="0 0 56.896 19.12" xmlns="http://www.w3.org/2000/svg"><path transform="translate(0 15.36) scale(.016 -.016)" d="m361-15q-83 0-149 41t-104 122.5-38 202.5q0 120 38 201t104 122 149 41 149-41 105-122 39-201q0-121-39-202.5t-105-122.5-149-41zm0 78q86 0 139.5 70.5t53.5 217.5q0 146-53.5 216t-139.5 70q-84 0-137.5-70t-53.5-216q0-147 53.5-217.5t137.5-70.5z"/><path transform="translate(11.584 15.36) scale(.016 -.016)" d="m100 0v530h81l5-65q31 35 74 57t91 23l5-72-12-11q-46-1-84-16.5t-64-42.5v-403z"/><path transform="translate(17.424 15.36) scale(.016 -.016)" d="m148 630q-28 0-46.5 16.5t-18.5 50.5q0 35 18.5 51t46.5 16q29 0 47.5-16t18.5-51q0-34-18.5-50.5t-47.5-16.5zm-48-630v530h96v-530z"/><path transform="translate(22.16 15.36) scale(.016 -.016)" d="m315-15q-71 0-126.5 31.5t-87 94-31.5 154.5q0 93 31.5 155t85.5 93.5 121 31.5q95 0 154-59t59-179v-70h-350q6-88 46.5-131t100.5-43q51 0 89 19.5t60 41.5l43-52q-31-35-81-61t-114-26zm-143 322h254q0 77-30.5 118.5t-86.5 41.5q-54 0-91.5-39.5t-45.5-120.5z"/><path transform="translate(31.616 15.36) scale(.016 -.016)" d="m100 0v530h81l5-64q31 31 73 55t94 24q94 0 133.5-45.5t39.5-153.5v-346h-96v356q0 111-101 111-35 0-69-16t-64-44v-407z"/><path transform="translate(41.472 15.36) scale(.016 -.016)" d="m239-15q-52 0-80 36t-28 103v336h-76v70h76v110l76 20h20v-130h140v-70h-140v-346q0-48 47-48 31 0 77 28l26-60q-30-22-67.5-35.5t-70.5-13.5z"/><path transform="translate(47.824 15.36) scale(.016 -.016)" d="m198-15q-40 0-72.5 20t-51.5 54-19 76q0 82 56 128t153 46q27 0 54-4t52-12v63q0 52-27 81.5t-75 29.5q-84 0-109-83l-83 28q40 133 192 133 104 0 151-52.5t47-171.5v-236q0-16 7.5-21.5t18.5-5.5q8 0 17.5 2.5t16.5 6.5l16-62q-16-7-35-13.5t-42-6.5q-36 0-60.5 18t-29.5 67q-31-32-75.5-58.5t-101.5-26.5zm29 78q38 0 75 19t68 50v97q-21 7-45 11t-47 4q-33 0-62-9.5t-47-31.5-18-60q0-33 21-56.5t55-23.5z"/></svg>