<svg width="87.616" height="19.52" viewBox="0 0 87.616 19.52" xmlns="http://www.w3.org/2000/svg"><path transform="translate(0 15.456) scale(.016 -.016)" d="m355-10q-140 0-223 93t-83 248q0 157 83 249.5t223 92.5q141 0 224.5-92.5t83.5-249.5q0-155-83.5-248t-224.5-93zm224 323q0 56-12.5 107t-37.5 95-70 70.5-103 26.5q-103 0-164-70.5t-61-179.5q0-59 12.5-112t37.5-99 69.5-73 103.5-27q108 0 166.5 72.5t58.5 189.5z"/><path transform="translate(11.392 15.456) scale(.016 -.016)" d="m402 519q16 5 37 5 25 0 34-9t9-34q0-84-57-225t-119-217q-23-27-37-34t-42-7q-12 0-21 2-26 125-89 286.5t-107 203.5q32 28 65 28 15 0 25-9t23-34q29-61 71-183.5t66-210.5q54 69 99.5 193t45.5 215q0 18-3 30z"/><path transform="translate(19.424 15.456) scale(.016 -.016)" d="m163 460q3-24 3-155h64q67 0 96 3 3-8 3-22 0-20-8.5-27.5t-26.5-8.5q-21-1-57-1h-71q0-161 6-194 36-2 58-2 132 0 173 18 7-18 7-38 0-16-8-23-15-11-136-11-24 0-77 0.5t-55 0.5q-25 1-33.5 11t-8.5 33q0 14 1 61.5t1 74.5v153q0 114-12 179 98 7 183 7 121 0 136-12 8-7 8-23 0-20-7-38-48 16-150 16-39 0-89-2z"/><path transform="translate(26.576 15.456) scale(.016 -.016)" d="m390 70q22-22 48-22 5 0 21 2 7-14 7-26 0-31-65-31-29 0-56 21.5t-52 62-38.5 68-32.5 70.5q-19 4-19 20 0 10 7 30 22-5 38-5 46 0 75 28.5t29 77.5q0 58-32 81t-98 23q-6 0-60-3 4-46 4-157v-154q0-104 15-153-17-5-44-5t-36.5 10-9.5 34q0 12 1 61t1 77v156q0 110-11 179 54 9 126 9 224 0 224-157 0-62-35.5-101t-94.5-52q61-117 88-144z"/><path transform="translate(34.512 15.456) scale(.016 -.016)" d="m88 174v162q0 104-6 181 16 2 39 2 46 0 46-30 0-4-1.5-31t-3.5-67-2-76v-69q0-158 6-191 34-2 53-2 125 0 162 18 6-19 6-38 0-16-7-23-15-11-129-11-22 0-72.5 0.5t-53.5 0.5q-23 1-31 11t-8 33q0 12 1 57t1 73z"/><path transform="translate(40.704 15.456) scale(.016 -.016)" d="m302-7q-116 0-185 72t-69 193q0 122 69 194t185 72q117 0 186.5-72t69.5-194q0-121-69.5-193t-186.5-72zm176 251q0 57-16 106t-57.5 84-101.5 35q-81 0-128.5-53t-47.5-135q0-60 16-111t57-87 102-36q84 0 130 54.5t46 142.5z"/><path transform="translate(50.4 15.456) scale(.016 -.016)" d="m433 113q39-16 39-45 0-30-47-52.5t-118-22.5q-117 0-188 73t-71 192q0 125 70.5 195.5t192.5 70.5q65 0 109-24.5t44-60.5q0-37-55-46-14 37-46.5 56.5t-68.5 19.5q-73 0-120-56t-47-139q0-97 47-162t132-65q38 0 72.5 17t54.5 49z"/><path transform="translate(58.656 15.456) scale(.016 -.016)" d="m225 279q85-139 135-200 29-31 62-31 10 0 19 2 7-11 7-24 0-16-16-25t-39-9q-48 0-84 40-16 18-36.5 46t-35 49.5-38.5 57.5-32 49l-7-5v-71q0-105 16-154-15-6-44-6-27 0-36.5 10t-9.5 34q0 12 1 61t1 77v156q0 104-6 180 18 3 38 3 47 0 47-30 0-4-1.5-31t-3.5-69.5-2-82.5q61 43 121.5 106t74.5 106q50-7 50-35 0-21-56.5-84.5t-124.5-119.5z"/><path transform="translate(69.696 15.456) scale(.016 -.016)" d="m401 533q-17 33-61 54.5t-91 21.5q-51 0-85.5-28t-34.5-82q0-41 25.5-67.5t63.5-37 83-25.5 83-31 63.5-55 25.5-97q0-52-20-91.5t-54-61.5-73.5-32.5-83.5-10.5q-78 0-137.5 27.5t-59.5 66.5q0 13 8.5 23.5t16.5 15.5 26 14q19-37 68.5-60.5t100.5-23.5q56 0 96 30.5t40 87.5q0 47-35.5 74.5t-86 41.5-101 31-86 57.5-35.5 107.5q0 92 60.5 141t154.5 49q69 0 127.5-24t58.5-66q0-40-57-50z"/><path transform="translate(77.984 15.456) scale(.016 -.016)" d="m514 134q44-18 44-49 0-36-57-65.5t-141-29.5q-141 0-226 94.5t-85 247.5q0 160 85 250.5t230 90.5q78 0 131-31.5t53-77.5q0-41-57-50-19 49-60 73.5t-87 24.5q-94 0-153.5-74.5t-59.5-185.5q0-128 60-214.5t168-86.5q48 0 89.5 21t65.5 62z"/></svg>