<svg width="112.11" height="17.724" viewBox="0 0 112.11 17.724" xmlns="http://www.w3.org/2000/svg"><path transform="translate(0 12.362) scale(.007 -.007)" d="m616-24q-130 0-220 62.5t-145 167-80 233-25 261.5 25 261.5 80 233 145 167 220 62.5 220-62.5 145-167 80.5-233 25.5-261.5-25.5-261.5-80.5-233-145-167-220-62.5zm0 151q82 0 139 50.5t92.5 134.5 51.5 185.5 16 202.5q0 111-16 213.5t-51 183.5-92 128.5-140 47.5q-82 0-139-50.5t-92.5-134-51.5-185-16-203.5q0-110 16-212.5t51.5-184 92.5-129 139-47.5z"/><path transform="translate(8.624 12.362) scale(.007 -.007)" d="m552 0-390 1022h169l256-689q8-23 17-48t17-55q8 30 17 55t18 48l250 689h166l-390-1022z"/><path transform="translate(17.248 12.362) scale(.007 -.007)" d="m637-24q-147 0-251.5 72t-159.5 194-55 270q0 169 58 288.5t162.5 182.5 245.5 63q115 0 211.5-52t154.5-160.5 58-278.5q0-19-0.5-46.5t-4.5-62.5h-757v144h599q-2 122-43.5 189.5t-101.5 94.5-116 27q-156 0-229-98.5t-73-263.5q0-192 81-303t226-111q61 0 121 19.5t118 65.5l92-107q-64-55-150.5-91t-185.5-36z"/><path transform="translate(25.872 12.362) scale(.007 -.007)" d="m102 0v145h213v732h-213v145h370v-229l-12 29q32 69 97.5 119t147 77.5 162.5 27.5q78 0 133-14t88-34v-351h-163v303l50-78q-25 7-53.5 10t-59.5 3q-101 0-188-33.5t-139.5-98.5-52.5-159v-449h301v-145z"/><path transform="translate(34.496 12.362) scale(.007 -.007)" d="m209-405v1427h163v-88q47 44 110 78t167 34q138 0 237.5-65.5t153.5-185.5 54-283q0-171-56.5-290.5t-156-182.5-226.5-63q-112 0-176.5 36.5t-106.5 86.5v-425zm426 531q139 0 215 99.5t76 286.5q0 175-78 280t-220 105q-84 0-150.5-38t-105.5-106v-483q47-61 110-102.5t153-41.5z"/><path transform="translate(43.12 12.362) scale(.007 -.007)" d="m549-24q-107 0-189.5 38.5t-129 115-46.5 191.5q0 118 56 192.5t145 110 189 35.5q75 0 142.5-15t137.5-53v80q0 94-30 144.5t-80 69.5-109 19q-82 0-170.5-33.5t-153.5-74.5l-47 137q67 41 169.5 77t217.5 36q58 0 120-14.5t116-53.5 87-109.5 33-183.5v-685h-153v95q-57-51-133.5-85t-171.5-34zm21 142q97 0 168 45.5t116 98.5v182q-48 30-118 52t-142 22q-103 0-180-47.5t-77-149.5q0-91 60.5-147t172.5-56z"/><path transform="translate(51.744 12.362) scale(.007 -.007)" d="m610-24q-113 0-212 51t-165 128l112 99q46-52 119-93.5t158-41.5q84 0 141.5 34.5t57.5 101.5q0 55-36.5 92.5t-96 65-127.5 53.5q-87 33-160 72.5t-116.5 97.5-43.5 145q0 81 46 140.5t126.5 92 182.5 32.5q113 0 202-42.5t152-114.5l-108-91q-40 38-102.5 71.5t-150.5 33.5q-87 0-140-32t-53-89q0-46 34-78t88.5-56.5 117.5-48.5q81-30 159.5-69t129.5-102 51-166q0-132-98.5-209t-267.5-77z"/><path transform="translate(60.368 12.362) scale(.007 -.007)" d="m610-24q-113 0-212 51t-165 128l112 99q46-52 119-93.5t158-41.5q84 0 141.5 34.5t57.5 101.5q0 55-36.5 92.5t-96 65-127.5 53.5q-87 33-160 72.5t-116.5 97.5-43.5 145q0 81 46 140.5t126.5 92 182.5 32.5q113 0 202-42.5t152-114.5l-108-91q-40 38-102.5 71.5t-150.5 33.5q-87 0-140-32t-53-89q0-46 34-78t88.5-56.5 117.5-48.5q81-30 159.5-69t129.5-102 51-166q0-132-98.5-209t-267.5-77z"/><path transform="translate(77.616 12.362) scale(.007 -.007)" d="m197 0v1400h180l211-847q12-49 18.5-80.5t10.5-65.5q4 34 11 65.5t19 80.5l212 847h176v-1400h-152v894q0 21 0.5 58t3.5 70q-7-34-14-65.5t-15-62.5l-227-894h-29l-228 894q-7 31-14.5 63t-14.5 65q2-33 3-70t1-58v-894z"/><path transform="translate(86.24 12.362) scale(.007 -.007)" d="m616-24q-143 0-250 63t-166.5 182.5-59.5 288.5q0 167 59.5 287t166.5 184.5 250 64.5q144 0 251.5-63t166.5-183 59-288q0-167-59-287t-166.5-184.5-251.5-64.5zm0 150q148 0 228.5 103t80.5 283q0 179-78 282t-231 103q-151 0-230-100.5t-79-286.5q0-178 79-281t230-103z"/><path transform="translate(94.864 12.362) scale(.007 -.007)" d="m207 0v1022h163v-191l-26 35q24 56 68 96t104 62 133 22q122 0 206.5-47t128-149.5 43.5-268.5v-581h-162v612q0 157-69.5 221t-171.5 64q-74 0-131.5-26t-90-87-32.5-168v-616z"/><path transform="translate(103.49 12.362) scale(.007 -.007)" d="m616-24q-143 0-250 63t-166.5 182.5-59.5 288.5q0 167 59.5 287t166.5 184.5 250 64.5q144 0 251.5-63t166.5-183 59-288q0-167-59-287t-166.5-184.5-251.5-64.5zm0 150q148 0 228.5 103t80.5 283q0 179-78 282t-231 103q-151 0-230-100.5t-79-286.5q0-178 79-281t230-103z"/></svg>