<svg width="65.12" height="16" viewBox="0 0 65.12 16" xmlns="http://www.w3.org/2000/svg"><path transform="translate(0 12.64) scale(.016 -.016)" d="m80 153v384q0 153 153 153h234q153 0 153-153v-384q0-153-153-153h-234q-153 0-153 153zm84-9q0-68 68-68h236q68 0 68 68v402q0 68-68 68h-236q-68 0-68-68z"/><path transform="translate(11.2 12.64) scale(.016 -.016)" d="m30 15 184 250-177 240 7 15h74l142-197 142 197h74l7-15-176-240 183-250-7-15h-74l-149 207-149-207h-74z"/><path transform="translate(19.52 12.64) scale(.016 -.016)" d="m203 0q-151 0-151 151t151 151h183v78q0 70-70 70h-214v40l40 30h174q150 0 150-150v-370zm-71 140q0-70 70-70h184v167h-184q-70 0-70-70z"/><path transform="translate(28.192 12.64) scale(.016 -.016)" d="m80 0v520h280q150 0 150-150v-370h-80v380q0 70-70 70h-200v-450z"/><path transform="translate(37.568 12.64) scale(.016 -.016)" d="M76 617V711H164V617ZM80 0V520H160V0Z"/><path transform="translate(41.408 12.64) scale(.016 -.016)" d="M76 150V520H156V140Q156 70 226 70H426V520H506V0H226Q76 0 76 150Z"/><path transform="translate(50.784 12.64) scale(.016 -.016)" d="M80 0V520H670Q820 520 820 370V0H740V380Q740 450 670 450H490V0H410V450H160V0Z"/></svg>