<svg width="105.62" height="20.992" viewBox="0 0 105.62 20.992" xmlns="http://www.w3.org/2000/svg"><path transform="translate(0 15.742) scale(.0078125 -.0078125)" d="m777 1279.5q-68 83.5-163 83.5t-163-83.5-100-220.5-32-313 32-313 100-220 163-83 163 83 100 220 32 313-32 313-100 220.5zm-537-1071.5q-117 217-117 539 0 398 157 607 55 74 140.5 118t193.5 44 194-44q156-80 226.5-278.5t70.5-446.5q0-322-117-539-59-108-155-170.5t-219-62.5-219 62.5-155 170.5z"/><path transform="translate(9.6016 15.742) scale(.0078125 -.0078125)" d="M158 1097H366L627 675L888 1097H1077L740 565L1089 0H887L619 437L340 0H140L500 560Z"/><path transform="translate(19.203 15.742) scale(.0078125 -.0078125)" d="m644 208 290 889h199q-304-858-359-999.5t-75-192.5-45-105-59-98.5-64.5-66-96-40-243.5-18.5l-21 153q133 0 159.5 6t50.5 13.5 36 18 30 27.5q46 45 103 229-282 648-407 964l-43 109h197z"/><path transform="translate(28.805 15.742) scale(.0078125 -.0078125)" d="m888 210q-34-86-120-148t-192-62q-208 0-329 161.5t-121 394.5q0 312 156 466 111 108 303 108t303-182l6 149h185q-9-245-9-651v-294q0-354-154-482-110-93-334-118-110-13-260-13l-15 140q218 0 312.5 26t137.5 58 74 83q57 95 57 291zm-411 756q-95-43-131.5-151t-36.5-216.5 9-162.5q18-117 84-195.5t187-78.5q192 0 261 172 38 94 38 194.5t-7.5 160.5-27.5 117.5-51.5 97-83.5 63-120.5 23.5-120.5-24z"/><path transform="translate(38.406 15.742) scale(.0078125 -.0078125)" d="m614 1131q232 0 340-159t108-391v-61h-695q6-169 84.5-287t235.5-118q105 10 293 114l60-124q-130-130-355-130-161 0-276 76.5t-170.5 206-55.5 292.5 51.5 292.5 154 209 225.5 79.5zm274-478q-20 337-236 337-244 0-279-337z"/><path transform="translate(48.008 15.742) scale(.0078125 -.0078125)" d="m713 1130q341 0 341-432v-698h-182v676q0 116-12 166t-36 82q-51 66-167 66-117 0-198-68t-81-180v-742h-182v1097h167l10-119q109 152 340 152z"/><path transform="translate(67.211 15.742) scale(.0078125 -.0078125)" d="M335 1230V0H149V1491H404L617 802L830 1491H1079V0H898V1230L721 646H512Z"/><path transform="translate(76.812 15.742) scale(.0078125 -.0078125)" d="m612 115q191 0 260 190 37 102 37 209.5t-8 167.5q-18 136-86.5 222t-202.5 86q-186 0-254-194-36-104-36-218 0-202 63-332.5t227-130.5zm0-140q-118 0-210 45t-149 124q-115 159-115 414t127 413.5 357.5 158.5 349.5-160 119-418-129-417.5-350-159.5z"/><path transform="translate(86.414 15.742) scale(.0078125 -.0078125)" d="m713 1130q341 0 341-432v-698h-182v676q0 116-12 166t-36 82q-51 66-167 66-117 0-198-68t-81-180v-742h-182v1097h167l10-119q109 152 340 152z"/><path transform="translate(96.016 15.742) scale(.0078125 -.0078125)" d="m612 115q191 0 260 190 37 102 37 209.5t-8 167.5q-18 136-86.5 222t-202.5 86q-186 0-254-194-36-104-36-218 0-202 63-332.5t227-130.5zm0-140q-118 0-210 45t-149 124q-115 159-115 414t127 413.5 357.5 158.5 349.5-160 119-418-129-417.5-350-159.5z"/></svg>