<svg width="109.25" height="28.976" viewBox="0 0 109.25 28.976" xmlns="http://www.w3.org/2000/svg"><path transform="translate(0 21.12) scale(.016 -.016)" d="m84 0v680h213q111 0 190-50.5t79-167.5q0-116-85-170.5t-193-54.5h-75v-237zm209 572h-80v-228h82q58 0 94 26.5t40 83.5q0 66-36 92t-100 26z"/><path transform="translate(9.712 21.12) scale(.016 -.016)" d="m159 145q0-21 17-37.5t45-16.5q27 0 54.5 12t52.5 36v74h-98q-34 0-52.5-21t-18.5-47zm64-157q-89 0-132 43.5t-43 113.5q0 75 51 115t133 40h95q-1 37-21.5 57.5t-56.5 20.5q-34 0-74-9.5t-67-22.5l-35 108q28 19 85.5 31.5t88.5 12.5q87 0 149-50.5t62-128.5v-319h-67l-32 41q-27-21-63.5-37t-72.5-16z"/><path transform="translate(17.968 21.12) scale(.016 -.016)" d="M198 706V0H69V695Z"/><path transform="translate(22.224 21.12) scale(.016 -.016)" d="m159 145q0-21 17-37.5t45-16.5q27 0 54.5 12t52.5 36v74h-98q-34 0-52.5-21t-18.5-47zm64-157q-89 0-132 43.5t-43 113.5q0 75 51 115t133 40h95q-1 37-21.5 57.5t-56.5 20.5q-34 0-74-9.5t-67-22.5l-35 108q28 19 85.5 31.5t88.5 12.5q87 0 149-50.5t62-128.5v-319h-67l-32 41q-27-21-63.5-37t-72.5-16z"/><path transform="translate(30.48 21.12) scale(.016 -.016)" d="m169 433q33 33 82.5 52t88.5 19q99 0 140.5-58t41.5-142v-304h-130v298q0 46-22 70.5t-64 24.5q-28 0-58.5-14.5t-55.5-33.5v-345h-130v485h68z"/><path transform="translate(39.76 21.12) scale(.016 -.016)" d="m524 485v-694l-131-10v246q-31-18-66-28.5t-65-10.5q-106 0-163 74t-57 184 60.5 184 165.5 74q36 0 81-15.5t77-43.5l30 40zm-227-92q-68 0-94.5-48t-26.5-99q0-57 24-102t97-45q23 0 48.5 10.5t47.5 24.5v224q-22 15-47.5 25t-48.5 10z"/><path transform="translate(49.232 21.12) scale(.016 -.016)" d="m407 48q-33-31-81-49.5t-87-18.5q-99 0-140.5 58.5t-41.5 141.5v305h131v-299q0-46 22-70.5t64-24.5q26 0 55 13t53 30v351h130v-485h-68z"/><path transform="translate(58.432 21.12) scale(.016 -.016)" d="m127 700q31 0 52.5-21t21.5-52-21.5-52-52.5-21q-30 0-51 21t-21 52 21 52 51 21zm65-215v-485h-130v485z"/><path transform="translate(62.528 21.12) scale(.016 -.016)" d="m169 433q33 33 82.5 52t88.5 19q99 0 140.5-58t41.5-142v-304h-130v298q0 46-22 70.5t-64 24.5q-28 0-58.5-14.5t-55.5-33.5v-345h-130v485h68z"/><path transform="translate(75.584 21.12) scale(.016 -.016)" d="m332 0h-248v680h252q157 0 233-95t76-241q0-158-82-251t-231-93zm5 570h-124v-461h117q82 0 131.5 54t49.5 181q0 106-42 166t-132 60z"/><path transform="translate(86.832 21.12) scale(.016 -.016)" d="m159 145q0-21 17-37.5t45-16.5q27 0 54.5 12t52.5 36v74h-98q-34 0-52.5-21t-18.5-47zm64-157q-89 0-132 43.5t-43 113.5q0 75 51 115t133 40h95q-1 37-21.5 57.5t-56.5 20.5q-34 0-74-9.5t-67-22.5l-35 108q28 19 85.5 31.5t88.5 12.5q87 0 149-50.5t62-128.5v-319h-67l-32 41q-27-21-63.5-37t-72.5-16z"/><path transform="translate(95.088 21.12) scale(.016 -.016)" d="m328 485 26-104q-33 0-76.5-19t-85.5-56v-306h-130v485h68l43-71q30 26 73 48.5t82 22.5z"/><path transform="translate(100.82 21.12) scale(.016 -.016)" d="M198 706V308L406 499L479 407L343 288L521 0H372L250 205L198 159V0H69V695Z"/></svg>