<svg width="135.71" height="23.168" viewBox="0 0 135.71 23.168" xmlns="http://www.w3.org/2000/svg"><path transform="translate(0 18.56) scale(.016 -.016)" d="m334 350q-1 6-1 11.5t0 11.5q1 80 2 158.5t2 157.5q0 12-6 24 0-11 0-22.5t-1-22.5q-1-10-2.5-19t-3.5-18q0-4-0.5-7.5t0.5-7.5q9-34-1-67-1-4-2.5-7.5t-0.5-6.5q6-12 3.5-24.5t-5.5-24.5q-2-7-1-9 9-8 8-18.5t-2-20.5q0-27-1.5-54.5t-2.5-55.5q-1-58-2-118t-4-119q0-24-2-48t-4-47q-1-9-1.5-18.5t-0.5-20.5q-19 0-36 0t-34 1q-4 0-8 2t-11 0q-4-3-12-1t-18 3q-20-7-43.5-6t-47.5 2q-1 3-1.5 5.5t-0.5 3.5q0 40-0.5 80t0.5 80q0 7 2.5 15t5.5 18q-6 5-7 14.5t0 22.5q5 20 5 40.5t1 40.5q2 64 4.5 128t3.5 128q1 25 1.5 49.5t1.5 49.5q1 38 1.5 77t1.5 77q0 2 1 5t2 8q24 0 48 0.5t48-0.5 48-2.5 48 4.5q21 4 22-19 0-11 0.5-23.5t2.5-24.5q1 15 2 30t2 29q23 7 44 2t41-13q14-5 28.5-13t27.5-18q17-11 33-34 10-12 19-25t16-27q6-11 9-24.5t4-25.5q2-25 1-50t0-51q3-37-14-64.5t-41-50.5q-18-19-39.5-32.5t-45.5-22.5q-14-5-30-8.5t-31-6.5q-13-2-18 3t-8 17z"/><path transform="translate(10.704 18.56) scale(.016 -.016)" d="m548 572q4-46 7.5-92t7.5-90q2-40 1.5-70.5t-1.5-30.5v-321h-193q-1 12-1 24t0 22q-1 89-2.5 178.5t-1.5 178.5q0 49 2 99t3 102zm-471-376q-1 4-1 7t0 6v22q-4 50 15 90t49 77q42 51 109 68 16 5 32.5 6t32.5 2q15 1 18.5-4t3.5-19q-1-54-1.5-108t-2.5-109q-1-32-2-64t-3-64q-1-1 1-8l-1-30q-2-19-4.5-37t-5.5-38q-16 3-31 5.5t-29 6.5q-49 12-83 42.5t-60 72.5q-10 19-19 38t-18 38z"/><path transform="translate(20.864 18.56) scale(.016 -.016)" d="m308 618-3-228v-238q1-41 0-82t0-82q10 0 19-0.5t19-0.5q0 0 1 0t2-2v-77q-11 2-22 2t-22 0h-168l-7 704q6 2 28 2.5t51.5 0 57 0 44.5 1.5z"/><path transform="translate(28.864 18.56) scale(.016 -.016)" d="m159 218h-28q-17 3-34.5 5.5t-37.5 4.5q4 15 6.5 29.5t5.5 27.5q12 47 40.5 79t68.5 56q18 10 36 18.5t37 16.5q3 2 11 2 5 0 10.5-0.5t10.5 0.5q47 3 85.5-15t72.5-46q48-39 65-104 4-14 5.5-30t1.5-31q1-14-3-17.5t-18-3.5q-52 1-103 2t-103 2q-30 1-60.5 2t-60.5 2q-1 1-3 0.5t-5-0.5zm20-222q-49 29-71 72.5t-27 95.5q-1 6-1 12.5t0 12.5l220-6q0-41 0-82.5t-1-82.5q0-4-1-7.5t-1-7.5q0-6 0.5-12.5t1.5-16.5q-1-1-4.5-3.5t-7.5-2.5q-10-1-20.5 0.5t-20.5 3.5-19.5 4-18.5 4q-6 1-11 5-4 3-8.5 6t-9.5 5z"/><path transform="translate(37.76 18.56) scale(.016 -.016)" d="m332 379q22-1 43.5-2t43.5-3q4-10 5.5-35t1-53-4.5-47q-22 1-44.5 1.5t-45.5 1.5v-96q2-60 0.5-119.5t3.5-118.5h-172l-4 337q-22 2-45 4t-47 4v71q1 17 1.5 35t3.5 30 9 9q19-1 38.5-3t38.5-4l-2 212q6 2 28 2t51 0 56.5 0.5 43.5 1.5l-3-225z"/><path transform="translate(45.76 18.56) scale(.016 -.016)" d="m332 379q22-1 43.5-2t43.5-3q4-10 5.5-35t1-53-4.5-47q-22 1-44.5 1.5t-45.5 1.5v-96q2-60 0.5-119.5t3.5-118.5h-172l-4 337q-22 2-45 4t-47 4v71q1 17 1.5 35t3.5 30 9 9q19-1 38.5-3t38.5-4l-2 212q6 2 28 2t51 0 56.5 0.5 43.5 1.5l-3-225z"/><path transform="translate(53.76 18.56) scale(.016 -.016)" d="m159 218h-28q-17 3-34.5 5.5t-37.5 4.5q4 15 6.5 29.5t5.5 27.5q12 47 40.5 79t68.5 56q18 10 36 18.5t37 16.5q3 2 11 2 5 0 10.5-0.5t10.5 0.5q47 3 85.5-15t72.5-46q48-39 65-104 4-14 5.5-30t1.5-31q1-14-3-17.5t-18-3.5q-52 1-103 2t-103 2q-30 1-60.5 2t-60.5 2q-1 1-3 0.5t-5-0.5zm20-222q-49 29-71 72.5t-27 95.5q-1 6-1 12.5t0 12.5l220-6q0-41 0-82.5t-1-82.5q0-4-1-7.5t-1-7.5q0-6 0.5-12.5t1.5-16.5q-1-1-4.5-3.5t-7.5-2.5q-10-1-20.5 0.5t-20.5 3.5-19.5 4-18.5 4q-6 1-11 5-4 3-8.5 6t-9.5 5z"/><path transform="translate(78.656 18.56) scale(.016 -.016)" d="m697 728q4-9 6.5-18.5t6.5-19.5q2-8 2-16.5t-8-14.5q-3-1-4-3.5t-1-4.5q5-25 2-49t1-50q5-26 2.5-54.5t-2.5-57.5q0-38 1-76.5t1-76.5q0-51-1-101t-1-100q-1-30-2.5-60.5t-3.5-61.5q0-16-3.5-20.5t-20.5-4.5q-16 1-30.5 2t-30.5 2q-17 3-34 4.5t-35 2.5q-6 0-21 3v663q-16-37-41-59t-65-24q-43-2-69.5 20t-46.5 57q-1-29-2.5-55t-2.5-52q-1-16-3-30.5t-2-30.5q2-13 1.5-26t-6.5-25q9-28 8-56t-4.5-55.5-3.5-55.5q0-22 1-45t1-46q0-11-1.5-21.5t-3.5-20.5q-1-30-1.5-60t-1.5-60q-1-19-8-25.5t-27-6.5q-10 0-20.5 0t-16.5 12q-6-2-11.5-5.5t-11.5-5.5q-2 7-6 13-4-4-8.5-6.5t-9.5-6.5q-7 8-16 8t-19-5q-12-6-22 1t-10 20v79q-1 18 1 35t9 31q1 3 1 8-9 24-7.5 48.5t6 49.5 1.5 49q-2 20-1 39t1 40q2 26 3 53.5t1 53.5q1 50 2 100t2 100q0 2-1.5 5.5t-1.5 5.5q-1 6-3 12t-3 12q0 20 3 47 2 0 6-1t5-1q14 16 24.5 31t23.5 28q12 12 26.5 19t32.5 7h72q33 0 58-23 16-14 28.5-31.5t21.5-41.5q7 11 12.5 20.5t11.5 17.5q20 26 47 42.5t63 15.5q8 0 17.5-0.5t19.5 0.5q32 3 56.5-10t41.5-34.5 25-42.5z"/><path transform="translate(91.184 18.56) scale(.016 -.016)" d="m541 267q-1-12-2-24.5t-3-24.5q-1-7-4-11.5t-11-0.5q-14 8-28.5 5.5t-28.5-1.5q-29 3-58.5 2.5t-58.5 0.5q-60 3-120.5 7t-124.5 8q2 13 4.5 24.5t3.5 21.5q1 33 16.5 60t35.5 51q17 20 40.5 33t50.5 19q35 8 68.5 6.5t67.5-9.5q23-5 42-16.5t35-26.5q17-16 31.5-35t20.5-43q2-7 5.5-14.5t10.5-12.5q4-3 6.5-7.5t0.5-11.5zm-443-136q-1-1-4-3t-8-5q-1 5-2 8.5t0 7.5q1 15 2 30t2 31q1 8 2.5 14t11.5 7q10 2 14.5-3t6.5-13q1-1 1.5-2t2.5-4q17-1 35.5-1t37.5-1q71-1 141-1.5t140-1.5q4 0 8-1t8-1q6-1 13-0.5t17 1.5q1-1 4-4t3-8q0-19-5-41-1-10-4-19.5t-5-19.5q-1-4-5-10-3-4-6-8.5t-5-9.5q-30-49-75.5-71t-99.5-27q-24-1-47.5 0t-46.5 7q-6 0-9 3-19 11-38 23.5t-37 25.5q-5 4-9 11t-7 13q-10 18-18.5 36t-18.5 37z"/><path transform="translate(101.12 18.56) scale(.016 -.016)" d="m374 446q36-21 52-53t20-71q1-4 1-8.5t0-9.5l-162 4q0 31 0 61t1 61q0 3 2 11 0 5-0.5 10t-1.5 12q1 0 3.5 2t5.5 2q8 1 15.5 0t14.5-3q8-1 14.5-2.5t13.5-3.5q6-2 8-4 7-3 13-8zm-104 15q5-1 8-3.5t1-7.5q-6-10-4-20t1-20q-2-20-1.5-41t-0.5-42q-2-42-5-84.5t-6-87.5q-9 2-16.5 3.5t-15.5 1.5q-23 2-42 12.5t-36 24.5q-15 12-23.5 29t-13.5 36q-5 24-4 47.5t6 47.5q7 32 31 54 11 12 24.5 22t29.5 14q5 2 10 4.5t9 7.5q6 7 14 5 8-1 17-1.5t17-1.5zm90-242q34-20 49-51t18-68q2-16 1.5-32t-5.5-32q0-5-2-6-8-13-16-25.5t-18-24.5q-3-4-7.5-6.5t-9.5-5.5q-12-6-24-12t-25-13q1-1 2-2.5t4-4.5q-4-1-6.5-2t-5.5 0q-10 0-20 1t-21 2q-5 0-9 1t-6 8q-1 11 11 15 1 0 2 0.5t3 1.5q0 12 0 24.5t1 24.5q1 48 1 96t1 95q0 5 2 11 0 5-0.5 9.5t-1.5 11.5q1 0 3.5 2t5.5 2q7 1 14 0t14-3q7-1 13-2.5t13-3.5q2 0 4-1t3-2zm-98-233q0-5 0.5-10t1.5-13q-1-1-3.5-3t-6.5-3q-8 0-16 1.5t-16 2.5q-8 2-15 3.5t-15 2.5q-2 1-4 2t-4 2q-4 2-7.5 4.5t-7.5 4.5q-38 22-55 56.5t-22 75.5q-1 5-1 10t0 10l174-5q0-32 0-64.5t-1-64.5q0-3-1-6t-1-6z"/><path transform="translate(109.63 18.56) scale(.016 -.016)" d="m548 572q4-46 7.5-92t7.5-90q2-40 1.5-70.5t-1.5-30.5v-321h-193q-1 12-1 24t0 22q-1 89-2.5 178.5t-1.5 178.5q0 49 2 99t3 102zm-471-376q-1 4-1 7t0 6v22q-4 50 15 90t49 77q42 51 109 68 16 5 32.5 6t32.5 2q15 1 18.5-4t3.5-19q-1-54-1.5-108t-2.5-109q-1-32-2-64t-3-64q-1-1 1-8l-1-30q-2-19-4.5-37t-5.5-38q-16 3-31 5.5t-29 6.5q-49 12-83 42.5t-60 72.5q-10 19-19 38t-18 38z"/><path transform="translate(119.79 18.56) scale(.016 -.016)" d="m287 514q-7 4-14 2t-14-1q-14 2-28.5 1t-29.5-1q-29 1-58.5 2t-60.5 2q1 6 1.5 11.5t1.5 10.5q0 17 7 30t16 25q16 21 45 27 17 5 33 4.5t33-4.5q11-1 21-6.5t17-13.5q8-7 15.5-16t10.5-21q3-9 9-13 5-3 4-9t-1-12-1-12q0-3-2-5.5t-5-0.5zm-8-84-3-162v-169q2-43 0-86t3-85h-168l-8 500q6 1 27.5 1.5t50 0 55.5-0.5 43 1z"/><path transform="translate(125.97 18.56) scale(.016 -.016)" d="m355 364q-1-21-2.5-41.5t-3.5-40.5q-1-18-1-36t0-37q1-19 2-38.5t2-39.5q1-19 1-37.5t-5-36.5q-1-3 1-6.5t3-6.5q1-5 2.5-9t1.5-9q1-11-1-21t1-21q1-11-13-13-16-1-30 2t-28 7q-25 8-47.5 20t-45.5 25q-36 24-57 58t-35 74q-1 4-1 7.5t0 7.5q0 20 0.5 40t-1.5 40q-1 32 9.5 59t26.5 52q55 78 151 109 5 2 10.5 5t11.5 3q13 1 26 1t25 0q0-10 0.5-17.5t-0.5-15.5q-1-21-1.5-42.5t-1.5-41.5zm36-81q-14 2-14 17 2 44 4 88t4 88q0 0 0.5 1t1.5 2h76q-2-21-1-41.5t-3-40.5q-4-18-4.5-37t-1.5-38q-1-7-1-14t-1-15q-2-17-16-16-11 1-22 2t-22 4zm-14-294q0 9-0.5 18.5t0.5 18.5q0 27 0.5 53.5t1.5 54.5q0 13 4 16.5t16 3.5q13 2 26 1t29-1q0-10 0.5-19.5t0.5-17.5q0-16-0.5-31t-0.5-29q0-15-0.5-30t1.5-30q2-10-1.5-13.5t-13.5-5.5q-10-1-20-2.5t-20-3.5q-22-3-23 17z"/></svg>