<svg width="70.368" height="17.616" viewBox="0 0 70.368 17.616" xmlns="http://www.w3.org/2000/svg"><path transform="translate(0 13.36) scale(.016 -.016)" d="m258 203h-46v-203h-168v621h203q107 0 159-49t52-161-49-160-151-48zm-22 276h-24v-158h28q28 0 37 17t9 61-10 62-40 18z"/><path transform="translate(7.424 13.36) scale(.016 -.016)" d="m391 354-5-207q0-19 9.5-25.5t32.5-6.5l-15-121q-58-4-64-4-74 0-94 51h-5q-37-51-114-51-59 0-90.5 38t-31.5 104q0 83 51.5 115t162.5 42v24q0 28-28 28-48 0-150-29l-25 146q128 33 213 33t119-33 34-104zm-193-247q37 0 37 39v49q-37-5-52.5-15.5t-15.5-35.5q0-37 31-37z"/><path transform="translate(14.4 13.36) scale(.016 -.016)" d="m329 471-17-139q-102 23-137 23-21 0-21-17 0-11 23-20 80-29 120.5-66t40.5-111-38-112.5-116.5-38.5-156.5 20l11 135q100-27 129.5-27t29.5 14-22 22q-89 34-130 72.5t-41 111 44.5 113 122.5 40.5 158-20z"/><path transform="translate(19.872 13.36) scale(.016 -.016)" d="m329 471-17-139q-102 23-137 23-21 0-21-17 0-11 23-20 80-29 120.5-66t40.5-111-38-112.5-116.5-38.5-156.5 20l11 135q100-27 129.5-27t29.5 14-22 22q-89 34-130 72.5t-41 111 44.5 113 122.5 40.5 158-20z"/><path transform="translate(25.344 13.36) scale(.016 -.016)" d="m199 0h-165v474h165zm-152 512q-21 18-21 58t21 59 69 19 69-19 21-58.5-21-58-69-18.5-69 18z"/><path transform="translate(29.056 13.36) scale(.016 -.016)" d="m22 241.5q0 131.5 50.5 190.5t158 59 156.5-58 49-190.5-48-192.5-157-60-159 60-50 191.5zm168 10.5v-24q0-71 7-92t32.5-21 32.5 21 7 86v29q0 65-6.5 85t-32.5 20-33-20-7-84z"/><path transform="translate(36.384 13.36) scale(.016 -.016)" d="m197 444q55 47 121 47t92.5-30.5 26.5-91.5v-369h-170v312q0 25-22 25-28 0-47-14v-323h-168v479h153l10-35z"/><path transform="translate(47.216 13.36) scale(.016 -.016)" d="m81.5 556q57.5 75 188.5 75t187.5-74 56.5-240.5-58-246.5-188-80-187 79-57 245.5 57.5 241.5zm116.5-239v-24q0-97 14.5-127.5t59-30.5 57.5 29 13 120v32q0 92-14.5 124.5t-59 32.5-57.5-32.5-13-123.5z"/><path transform="translate(55.824 13.36) scale(.016 -.016)" d="m197 444q55 47 121 47t92.5-30.5 26.5-91.5v-369h-170v312q0 25-22 25-28 0-47-14v-323h-168v479h153l10-35z"/><path transform="translate(63.296 13.36) scale(.016 -.016)" d="m230 348q-26 0-34-17.5t-8-53.5h87v24q0 47-45 47zm4 143q103 0 147.5-49.5t44.5-141.5q0-12-7-108h-228q0-75 69-75 33 0 129 23l14-124q-84-26-168-26-103 0-158 67.5t-55 183.5q0 250 212 250z"/></svg>