<svg width="72.976" height="21.664" viewBox="0 0 72.976 21.664" xmlns="http://www.w3.org/2000/svg"><path transform="translate(0 16.672) scale(.016 -.016)" d="m57 102q-7 103-7 278.5t5 227.5q5 32 44 42.5t103 10.5q94 0 158.5-40.5t64.5-119.5q0-65-18-108.5t-45-64.5q-44-34-130-34-37 0-97 10 5-200 4-252t-35-52q-22 0-28 8t-8 11.5-4 10.5-3 11.5-1.5 13.5-1.5 14q-1 15-1 33zm77 475q-4-59-4-108.5t4-89.5q27-3 37-5 26-3 44.5-3t25 0.5 25 3 26.5 8.5 20 16 17 23q13 36 13 76.5t-44 64-94 23.5-70-9z"/><path transform="translate(7.696 16.672) scale(.016 -.016)" d="m317 467q44 0 44-75 0-8 0-17l-2-70q-1-33-1-65l15-226q0-25-51-25-3 0-14.5 0t-16 9-1 22-2.5 29q-46-49-122-49-141 0-141 218 0 121 45.5 183t130.5 62q40 0 80-14 13 18 36 18zm-104-91q-57 0-85-33t-28-121q0-148 80-148 21 0 46.5 19t35.5 43q19 54 19 118t-15.5 93-52.5 29z"/><path transform="translate(13.968 16.672) scale(.016 -.016)" d="m63 467 50-1q17 0 19 1v205q1 17 17 29t30 12 22.5-9 7.5-28-1-208l117 4q30 0 30-35 0-26-15.5-39t-33-14-34.5-1l-61 1q0-41 8.5-162t13.5-156.5 2-46-11-14.5q-13-6-35-6t-26 24q-20 131-27 360-9-1-69-1t-60 35q0 50 56 50z"/><path transform="translate(19.472 16.672) scale(.016 -.016)" d="m167 146 1-103q0-18-16.5-33t-32.5-15q-23 0-29 36-1 8-8 146.5t-27 217.5q-9 38-9 45 0 33 40 33 17 0 27-13t12.5-26.5 4.5-36.5 3-29q21 50 63 75t92 25q82 0 82-42 0-21-14.5-33.5t-33.5-12.5q-85 0-120-54t-35-180z"/><path transform="translate(25.632 16.672) scale(.016 -.016)" d="m104 632q18 0 34-17t16-35.5-17.5-37.5-36.5-19-34.5 16-15.5 41q0 48 52 52 1 0 2 0zm42-524 1-70q0-19-15-31.5t-32-12.5q-25 0-26 25-13 319-13 353t3 83q2 18 23 18 53 0 60-43 3-22 3-35l-4-63z"/><path transform="translate(29.216 16.672) scale(.016 -.016)" d="m330 359q-7 0-38.5 11.5t-40.5 11.5q-58 0-99-42.5t-41-112.5 22.5-104.5 77.5-34.5q22 0 75.5 25.5t66.5 25.5 21-8 8-20q0-24-30.5-50.5t-75.5-44-81-17.5q-80 0-125.5 63t-45.5 172q0 67 35.5 122t90.5 82.5 107 27.5 83.5-12.5 31.5-33-11.5-41-30.5-20.5z"/><path transform="translate(35.424 16.672) scale(.016 -.016)" d="m395 45q0-47-43-47-18 0-49 88.5t-83 136.5q-5-7-42.5-39.5t-44.5-39.5v-100q-2-15-5-23t-13.5-15-28.5-7q-27 0-27 33 0 93-8 288.5t-8 350.5q0 19 15.5 30t32.5 11q23 0 28-29v-177q0-32 1-48t2-48q2-66 7-149 29 22 74.5 69.5t68.5 81.5q36 57 66 57 8 0 16-4 21-12 21-28t-14-42q-36-62-83-113 45-50 90-143 27-60 27-94z"/><path transform="translate(45.744 16.672) scale(.016 -.016)" d="m132 383q78-13 143-13t83 1q-2 76-2 146t0 95 2 31.5 13 12.5 32 6q30 0 30-36v-354q0-110-5-242-1-29-49-29-24 0-24 29l4 265q-32-2-87.5-2t-139.5 12q0-132 12-276 1-16-14-24.5t-37.5-8.5-24.5 23q-13 142-13 280l6 312q0 20 15 29.5t32 9.5q28 0 28-27z"/><path transform="translate(53.232 16.672) scale(.016 -.016)" d="m317 467q44 0 44-75 0-8 0-17l-2-70q-1-33-1-65l15-226q0-25-51-25-3 0-14.5 0t-16 9-1 22-2.5 29q-46-49-122-49-141 0-141 218 0 121 45.5 183t130.5 62q40 0 80-14 13 18 36 18zm-104-91q-57 0-85-33t-28-121q0-148 80-148 21 0 46.5 19t35.5 43q19 54 19 118t-15.5 93-52.5 29z"/><path transform="translate(59.504 16.672) scale(.016 -.016)" d="m76 31-11 406q0 19 13 31t26 12q32 0 37-27 4-27 4-56 54 71 135 71 124 0 124-283 0-26 0-78.5t-6-76.5q-7-30-43-30-24 0-24 32l1 56q0 116-7.5 158.5t-14.5 67.5q-17 54-55 54-50 0-70-36-22-39-26-92-7-93-7-197 0-20-15-32t-36-12q-25 0-25 32z"/><path transform="translate(66.736 16.672) scale(.016 -.016)" d="m277 468-1 193q0 54 34.5 54t38.5-30q2-13 5-157t9.5-270 6.5-235q0-30-45-30-30 0-30 42-43-34-102-34-75 0-121.5 56t-46.5 138 33.5 153.5 104.5 102.5q44 19 85 19 15 0 29-2zm-139-138q-32-54-32-113.5t23.5-97 67-37.5 68.5 43 25 110q0 75-7.5 96.5t-17.5 33-21.5 14-27.5 2.5-39-12-39-39z"/></svg>