<svg width="84.784" height="18.956" viewBox="0 0 84.784 18.956" xmlns="http://www.w3.org/2000/svg"><path transform="translate(0 14.588) scale(.014 -.014)" d="m57 102q-7 103-7 278.5t5 227.5q5 32 44 42.5t103 10.5q94 0 158.5-40.5t64.5-119.5q0-65-18-108.5t-45-64.5q-44-34-130-34-37 0-97 10 5-200 4-252t-35-52q-22 0-28 8t-8 11.5-4 10.5-3 11.5-1.5 13.5-1.5 14q-1 15-1 33zm77 475q-4-59-4-108.5t4-89.5q27-3 37-5 26-3 44.5-3t25 0.5 25 3 26.5 8.5 20 16 17 23q13 36 13 76.5t-44 64-94 23.5-70-9z"/><path transform="translate(6.734 14.588) scale(.014 -.014)" d="m110 27q-4-25-35.5-25t-31.5 26q0 59 58 240 26 83 58 138t62 55q16 0 28-19t43.5-86.5 52.5-143 46-184.5q0-13-9-20.5t-22-7.5q-32 0-40 28l-35 137q-88 0-141 14-30-110-34-152zm108 342q-33-56-54-125 44-12 104-12-19 69-50 137z"/><path transform="translate(12.894 14.588) scale(.014 -.014)" d="m240 401-2-237q0-74 2-130 1-15-12.5-24.5t-27.5-9.5q-26 0-26 28-3 109-3 207.5t6 162.5q-60-5-122-5-31 0-31 26 0 12 11.5 24t25.5 13l312 10q27-6 27-26 0-41-94-41z"/><path transform="translate(18.914 14.588) scale(.014 -.014)" d="m115 37q0-15-14-26t-31-11q-22 0-22 20-4 47-4 373 0 32 38.5 50t103 18 113-32 48.5-77q0-22-19-49t-40.5-42.5-61.5-37.5-49-24q63-40 112-87t49-74-24-35q-7-2-18-2t-28 21.5-64 62-93 72.5q2-80 4-119zm-4 209q33 0 99 32.5t69 60.5q0 27-30 40.5t-63 13.5q-38 0-74-9-1-48-1-138z"/><path transform="translate(24.514 14.588) scale(.014 -.014)" d="m61 0q-28 0-28 24l4 407q0 14 10 22.5t24.5 8.5 25-7 11.5-23.5 1-73.5q0-267-4-325-1-13-15.5-23t-28.5-10z"/><path transform="translate(26.614 14.588) scale(.014 -.014)" d="m357 376-81 10q-162 0-162-162 0-82 49-130 24-25 50-25t91 23 70 23q27 0 27-25 0-21-23-36-125-53-181-53-34 0-67 22t-52 57q-39 69-39 148 0 106 64 168t164 62q58 0 115-19v-1q18-11 18-25t-14.5-25.5-28.5-11.5z"/><path transform="translate(32.914 14.588) scale(.014 -.014)" d="m64 84q0 54-6 167.5t-10 141.5-4 39 12 20.5 29 9.5 26-18q21-46 21-192 62 51 100 91.5t77 98.5q13 21 33 21 38 0 38-25 0-48-129-180 55-50 103.5-125.5t48.5-94-10.5-28-24.5-9.5-32.5 24.5-44 66-45 66-53.5 53.5q-29-26-59-47 3-117 3-131 0-33-44-33-30 0-29 31z"/><path transform="translate(42.434 14.588) scale(.014 -.014)" d="m132 383q78-13 143-13t83 1q-2 76-2 146t0 95 2 31.5 13 12.5 32 6q30 0 30-36v-354q0-110-5-242-1-29-49-29-24 0-24 29l4 265q-32-2-87.5-2t-139.5 12q0-132 12-276 1-16-14-24.5t-37.5-8.5-24.5 23q-13 142-13 280l6 312q0 20 15 29.5t32 9.5q28 0 28-27z"/><path transform="translate(48.986 14.588) scale(.014 -.014)" d="m110 27q-4-25-35.5-25t-31.5 26q0 59 58 240 26 83 58 138t62 55q16 0 28-19t43.5-86.5 52.5-143 46-184.5q0-13-9-20.5t-22-7.5q-32 0-40 28l-35 137q-88 0-141 14-30-110-34-152zm108 342q-33-56-54-125 44-12 104-12-19 69-50 137z"/><path transform="translate(55.146 14.588) scale(.014 -.014)" d="m115 312-11-243q-1-32-2-43-4-27-35-27-12 0-21.5 8.5t-10.5 21.5q8 260 8 280.5t0 45.5 5 45q7 27 36 27 14 0 35-19t61-70q95-117 144-221-2 142-7 216.5t-5 81.5 0 8q7 38 41 38 13 0 24-11.5t11-28.5l5-372q0-52-42-52-25 0-39 17.5t-20 27.5-18 32q-77 145-159 238z"/><path transform="translate(61.306 14.588) scale(.014 -.014)" d="m65 26q-13 10-13 20.5t7 19.5q-10 77-14 178t-4 114.5 0.5 29 4.5 34.5q7 38 46 38 103 0 198.5-93t95.5-202q0-82-51-123.5t-139-41.5q-17 0-48 4 0-16-13-28t-30-12q-26 0-31 26zm51 360q-1-11-1-38t5.5-119.5 14.5-157.5q8-2 62-2 117 0 117 66 0 84-53.5 150t-144.5 101z"/><path transform="translate(70.686 14.588) scale(.014 -.014)" d="m266 662q65 0 110.5-22t45.5-56q0-15-7.5-26t-22-11-62.5 22.5-87.5 22.5-81.5-25-42-61q0-49 51-72 38-17 109-30.5t116-55 45-125.5q0-128-77-189-43-34-121.5-34t-156.5 43q-51 27-51 54 0 10 8.5 22t23.5 20 27.5 2.5 40.5-19.5 41-19q42-16 79-16t71.5 36.5 34.5 89.5q0 70-70 98-34 14-77 21-89 16-134 53.5t-45 113.5 65 119.5 167 43.5z"/><path transform="translate(77.112 14.588) scale(.014 -.014)" d="m336 654q67 0 148-26 18-14 18-30.5t-16.5-29-37.5-12.5q-54 14-101 14-108 0-164-64t-56-190 66-197q34-37 81-37t150 50q36 17 48 17 26 0 26-27t-25-45q-86-45-134-60.5t-83-15.5q-72 0-123 53-91 98-91 267.5t86.5 251 207.5 81.5z"/></svg>