<svg width="72.576" height="19.504" viewBox="0 0 72.576 19.504" xmlns="http://www.w3.org/2000/svg"><path transform="translate(0 15.552) scale(.016 -.016)" d="m276 240h-45v-118q73-16 91-39l-10-83h-270l-10 83q13 17 55 33v457q-41 15-55 34l10 83h265q139-2 207.5-50.5t68.5-172.5q0-227-307-227zm15 341h-60v-232h67q68 0 101.5 27t33.5 93.5-36.5 89-105.5 22.5z"/><path transform="translate(9.696 15.552) scale(.016 -.016)" d="m46 426q0 15 1 32 93 50 200 50t153.5-40.5 46.5-134.5v-213q35-7 55-17v-87q-51-24-146-24-10 26-17 63-43-63-156-63-67 0-114.5 39t-47.5 106 44.5 105.5 132.5 38.5h109v48q0 78-83 78-31 0-51-6-2-42-12-65h-98q-17 35-17 90zm180-332q51 0 81 30v82h-70q-72 0-72-55 0-25 15.5-41t45.5-16z"/><path transform="translate(17.888 15.552) scale(.016 -.016)" d="m208 626v-126h143v-84h-143v-253q0-32 9-46.5t43-14.5 73 15l30-78q-77-39-157.5-39t-109 34.5-28.5 100.5v281h-45l-11 61q16 19 66 38 12 82 57 111z"/><path transform="translate(23.84 15.552) scale(.016 -.016)" d="m395 42q-69-50-162.5-50t-130.5 39-37 127v231q-35 12-55 34l10 77q56 13 104 13t81-3v-319q0-54 16.5-71.5t65.5-17.5 91 32v255q-35 12-55 34l10 77q56 13 104 13t81-3v-390q35-7 55-17v-79q-60-32-151-32-25 18-27 50z"/><path transform="translate(33.248 15.552) scale(.016 -.016)" d="m46 426q0 15 1 32 93 50 200 50t153.5-40.5 46.5-134.5v-213q35-7 55-17v-87q-51-24-146-24-10 26-17 63-43-63-156-63-67 0-114.5 39t-47.5 106 44.5 105.5 132.5 38.5h109v48q0 78-83 78-31 0-51-6-2-42-12-65h-98q-17 35-17 90zm180-332q51 0 81 30v82h-70q-72 0-72-55 0-25 15.5-41t45.5-16z"/><path transform="translate(45.04 15.552) scale(.016 -.016)" d="m313-8q-142 0-212.5 82t-70.5 265.5 77.5 271 221 87.5 214-78 70.5-261-79-275-221-92zm150 353q0 240-144 240-67 0-103-52t-36-181 38-188 104.5-59 103.5 55.5 37 184.5z"/><path transform="translate(55.328 15.552) scale(.016 -.016)" d="m36 500q55 12 99 12t73-2v-50q25 21 66.5 34.5t79.5 13.5q98 0 137.5-46t39.5-159v-192q39-15 55-34l-10-77h-230l-10 77q14 19 55 34v198q0 54-17.5 72.5t-62.5 18.5-90-32v-257q39-15 55-34l-10-77h-230l-10 77q14 19 55 34v278q-35 12-55 34z"/><path transform="translate(64.848 15.552) scale(.016 -.016)" d="m266-8q-120 0-180.5 64t-60.5 186q0 74 21 127.5t57 82.5q70 56 163 56t142.5-47.5 49.5-170.5q0-72-71-72h-217q4-63 32.5-89t90.5-26q34 0 65 8t45 16l14 8 30-80q-6-7-17.5-17.5t-58-28-105.5-17.5zm63 315q2 14 2 34t-16 42.5-55.5 22.5-60.5-24-28-81z"/></svg>