<svg width="150.11" height="22.828" viewBox="0 0 150.11 22.828" xmlns="http://www.w3.org/2000/svg"><path transform="translate(0 17.75) scale(.015625 -.015625)" d="m45 282q1 4 4.5 3.5t6.5 0.5q-8 8-10 21.5t-10 22.5q2 5 3.5 10t8.5 4q-3 22 1 41t12.5 36 20 33.5 22.5 33.5q9 2 11-1.5t7 1.5q16 11 22 24.5t6 29.5q9 26 20.5 51.5t26.5 47.5 32 38.5 37 25.5q14 12 35.5 22t46 15.5 50.5 6 48-5.5q5-2 6 2.5t5 4.5q50-6 89.5-20t67.5-39q19-30 36-64.5t26.5-72 8.5-77.5-17-80q-35-44-85-70.5t-107.5-44-119-28.5-119.5-24q1-27 0-57.5t-6.5-61-16-59.5-28.5-54q-20 1-41.5-4t-38.5-10q-8 5-15.5 9.5t-18.5 5.5q3 12-5.5 25t-17 25.5-11 25 11.5 22.5q-8 7-8 22 4-4 10-4-2 18 4.5 43t11 49.5 1.5 45-24 29.5zm260 234q-4-11-6.5-19.5t-5.5-15.5-6.5-14-7.5-16q2-6 8-9t8-9q14 7 28 10.5t28 5.5 28 5 29 10 31.5 11.5 32.5 9.5 31 11.5 26 17.5q-14 13-42 23t-60.5 12.5-65-4.5-56.5-29z"/><path transform="translate(10.234 17.75) scale(.015625 -.015625)" d="m558 563q1-7 0.5-10.5t-1-6.5-0.5-6.5 2-10.5q-21-34-48.5-46.5t-59.5-18-65.5-11.5-66.5-26q-13 5-23.5 0t-30.5-3q-6-6-15-8.5t-18-5.5q4-9 3.5-18.5t2.5-15.5q35-3 77.5 1t83.5 5q1-5-1-6.5t-1-5.5q7-5 14-12.5t14-14.5 14.5-11.5 17.5-3.5q4-8 5.5-17.5t-2.5-19.5q-16-11-32-22.5t-33.5-20.5-37-14.5-43.5-4.5q-5 0-7.5 0t-6.5 3q-8-5-22.5-3t-22.5-3q-11 5-26.5 4.5t-27.5 3.5q-16-21-29-45t-23-51q34-5 56.5-4t42.5 3.5 41 5 53 1.5q20 11 47.5 14.5t50.5 11.5q8-3 14-10.5t11.5-14 11.5-11.5 15-4q4-4 5.5-9.5t2.5-10.5 3.5-8.5 8.5-2.5q-15-33-34.5-50.5t-44.5-26.5-55.5-14-67.5-12q-9-2-15 0.5t-14 2.5q-23-5-55-9t-65-3-63 8.5-49 26.5q-8 7-10.5 16.5t-13.5 14.5q-1 13-4 29t-6 33.5-4.5 34.5 1.5 31q3 15 12.5 27t6.5 26q5 1 6 5.5t8 3.5q6 18 13 34t14.5 31 15 30.5 14.5 34.5q-14 13-20.5 28.5t-9.5 31-5 32-7 33.5q10 15 24.5 24.5t31.5 15.5 37 10 42 9q40 13 71.5 20t62 11.5 63.5 8.5 75 12q9-9 17-9 4 9 9.5 5.5t4.5 5.5q10-17 25.5-28.5t34.5-19.5z"/><path transform="translate(18.422 17.75) scale(.015625 -.015625)" d="m161 104q-11-40-19.5-60.5t-25.5-42.5q-13 2-18-3t-11-9q-9-2-13 0t-7 4.5-7.5 5-13.5 2.5q-2 8-4.5 15t-13.5 5q2 8 1 13.5t-2.5 10-2.5 9 1 11.5q-5 0-8 7t-7 14q3 18 6 34t7.5 30 7.5 28-3 29q4-3 6 1.5t3 12 1 15-1 12.5q10 26 16.5 53.5t12 54.5 11.5 53 16 48q11 2 24.5-2.5t16.5-11.5q26 20 46 48.5t41 55.5 46.5 48 64.5 25q20-15 44.5-30.5t40.5-40.5q8-4 13.5-8.5t13.5-9.5v-12q12-11 19.5-25.5t13.5-31 12-33 14-31.5q-2-5-2-8.5t1.5-7.5 2.5-8 0-11q-3-44-28.5-71t-61.5-44.5-77-29.5-74-26q0-4 3.5-4t2.5-5q24-15 38-24t26.5-15 27-10.5 40.5-10.5 40.5-9.5 26.5-6 24.5-4 35.5-3.5q9-9 15.5-21.5t8.5-25 1-24-7-18.5q1-3 4.5-2.5t7.5-0.5q-6-4-10-10t-8-12-9-10.5-14-5.5q-31-12-78-1.5t-119 38.5q-36 14-58.5 24.5t-39 21-30 22.5-32.5 29zm143 343q-11-16-24.5-29t-26-26.5-22.5-30-14-38.5q35 4 73 19.5t72 29.5q-4 31-21.5 50t-36.5 25z"/><path transform="translate(27.078 17.75) scale(.015625 -.015625)" d="m692 18q-10-5-18.5-9t-19.5-4q-39 29-40.5 101t30.5 183q5 3 5 12l-9 10q-4 0-7.5-1t-5.5-7q-26-19-57-39.5t-64.5-38-68-28.5-67.5-11q-84 0-126 85l-8 15-8-13q-3-4-9-16.5t-12-28.5-10.5-32.5-3.5-28.5q-9-9-19-21t-15-27q-2-8 2-15-2-9-9-14-4-5-8.5-9.5t-7.5-9.5q-2-5-2.5-10t-1.5-10q0-7-2-13-17-35-27-45.5t-27-10.5q-8 0-26 3-13 14-23.5 38.5t-16 52.5-5 56.5 9.5 49.5q0 1 8 20t20.5 49 28.5 66.5 32 71 30.5 63.5 24.5 44q8 12 14.5 22.5t12.5 20.5q18 31 34.5 51.5t48.5 32.5q22-9 32-21l2-11q4-10 12-10 11-3 18.5-5.5t16.5-4.5q7-8 13-19 8-12 15.5-23.5t12-23 5-23.5-4.5-25l1-10q5-9 2-25-1-7-1-14.5t2-16.5q18-14 32-14 16 0 29.5 7.5t25.5 15.5q8 6 16 10.5t16 5.5q18 17 32.5 30t30.5 26q30 24 58 52t45 70q10 6 21 6t23-5 23-10q3-2 5.5-3t4.5-2q0-10 8-17 4-3 5-4t3-2q15-8 19-16 7-23 25-35-2-10 0.5-18.5t6.5-17.5q1-3 2-6t3-7l-19 2 3-19q2-14-2.5-31t-10.5-27q1-26 1.5-40.5t-1.5-27-5.5-23.5-9.5-24q4-64-14.5-116.5t-38.5-98.5q-2-5-4.5-10t-4.5-10q-9-3-16-6.5t-15-7.5z"/><path transform="translate(40.109 17.75) scale(.015625 -.015625)" d="m529 84q-6-17-17.5-34.5t-27-31-34.5-22.5-40-10q-13 3-17.5 6.5t-9.5 6.5q-3 2-5.5 3.5t-4.5 2.5l-12 5 4 13q2 8-1 12.5t-12 12.5q-3 3-6 6t-5 6l-17 19 27 7q25 7 33.5 18t6.5 37q-20 4-33.5 1t-27.5-7q-18-5-36.5-8.5t-40.5-3.5q-8 0-15 0.5t-15 1.5l-10 2q-2 11-4 12.5t-4 3.5q-5 5-10.5 13.5t-2.5 21.5q-5 9-6 18-6-12-9-25l-4-10-10-2q-2-1-3-4.5t-1-5.5l-5-17q-2-2-4-3.5t-4-3.5q-2-9-5-18t-6-17q-5-13-8.5-25.5t-2.5-24.5l-4-11q-5-6-11-9.5t-12-6.5q-2-2-5.5-3.5t-5.5-2.5l-3-11-12-2q-11-2-15.5-3t-10.5-1l-10 1q-11 9-17 14.5t-14 10.5q-9 12-10 18t-2 11q-2 6-2.5 10t-2.5 6l-13 12 11 9 1 17q20 51 42.5 98t46.5 96q8 16 15.5 32t15.5 32q-1 3-1 7t2 9q11 17 18 30.5t14 27.5q8 17 16.5 33t21.5 33l16 7q3 1 7 2.5t9 1.5l15-2q28 13 49 36.5t43 56.5l10 14 13-8q5-3 14-5.5t19-5.5q18-4 34-9t26-15q6-16 7-24t3-16q3-17 5.5-34t3.5-38q5-17 8.5-33.5t6.5-33.5q5-24 10-46.5t13-42.5q8 0 10-1 5 2 10.5 3t12.5 2l11 1 4-10q1-5 10-10 13-1 19-5.5t11-9.5q4-4 8-6l15-6-8-15q-10-18-28.5-34.5t-41.5-27.5q1-6 1.5-11.5t2.5-11.5q3-17 5-35t0-37zm-289 173q30 2 54.5 4.5t54.5 8.5q-7 30-15 62.5t-17 64.5l-6-10q-20-21-38.5-47t-31.5-49q-6-9-12-18t-11-18q6 1 11.5 1t10.5 1z"/><path transform="translate(49.406 17.75) scale(.015625 -.015625)" d="m205 182q-9-2-13-10.5t-7.5-17.5-7-16.5-10.5-7.5q-1-8-5.5-14t-8.5-12.5-6-14 2-17.5q-8-6-10-17t-4.5-21-8.5-17-22-6q-3-4-1-5t3-7q-11 2-16.5-1.5t-13.5-4.5q-19 6-31.5 21t-22 33.5-17 37.5-14.5 33q3 11 1 21.5t-7 17.5q49 104 107 222t110 233q23-9 45.5-20.5t41-26.5 31.5-34.5 17-43.5q-2-6-4.5-4.5t-4.5-1.5q4-5 4.5-7t0-4-0.5-5.5 3-9.5q-4 1-5.5-1t-6.5 0q4-11 2.5-18t-4.5-12.5-5-12 1-16.5q-3 0-4.5-1.5t-2.5-3-2.5-3-4.5-0.5q3-22 2-44t-1.5-44.5 0.5-47 7-50.5q36 21 57.5 54t35 74 20.5 88 15 96q9 9 14 22t9 27.5 8 29 10 26.5q15-2 25.5-9.5t19.5-16 19-16 25-9.5q12-17 22-33t13-34q-5-8-7.5-18t-5.5-20-8-18.5-14-14.5q-3-26-7.5-47.5t-9-42.5-7.5-43.5-2-49.5q-8-23-17-49t-14-47q-16-13-25-31t-19-36q-4-4-5-2t-7 3q1-4 0-6t-2.5-3.5-2-4.5 1.5-8q-14-6-25-17t-23.5-20-30-12-45.5 7q-41 30-72.5 69t-51.5 93z"/><path transform="translate(58.438 17.75) scale(.015625 -.015625)" d="m558 563q1-7 0.5-10.5t-1-6.5-0.5-6.5 2-10.5q-21-34-48.5-46.5t-59.5-18-65.5-11.5-66.5-26q-13 5-23.5 0t-30.5-3q-6-6-15-8.5t-18-5.5q4-9 3.5-18.5t2.5-15.5q35-3 77.5 1t83.5 5q1-5-1-6.5t-1-5.5q7-5 14-12.5t14-14.5 14.5-11.5 17.5-3.5q4-8 5.5-17.5t-2.5-19.5q-16-11-32-22.5t-33.5-20.5-37-14.5-43.5-4.5q-5 0-7.5 0t-6.5 3q-8-5-22.5-3t-22.5-3q-11 5-26.5 4.5t-27.5 3.5q-16-21-29-45t-23-51q34-5 56.5-4t42.5 3.5 41 5 53 1.5q20 11 47.5 14.5t50.5 11.5q8-3 14-10.5t11.5-14 11.5-11.5 15-4q4-4 5.5-9.5t2.5-10.5 3.5-8.5 8.5-2.5q-15-33-34.5-50.5t-44.5-26.5-55.5-14-67.5-12q-9-2-15 0.5t-14 2.5q-23-5-55-9t-65-3-63 8.5-49 26.5q-8 7-10.5 16.5t-13.5 14.5q-1 13-4 29t-6 33.5-4.5 34.5 1.5 31q3 15 12.5 27t6.5 26q5 1 6 5.5t8 3.5q6 18 13 34t14.5 31 15 30.5 14.5 34.5q-14 13-20.5 28.5t-9.5 31-5 32-7 33.5q10 15 24.5 24.5t31.5 15.5 37 10 42 9q40 13 71.5 20t62 11.5 63.5 8.5 75 12q9-9 17-9 4 9 9.5 5.5t4.5 5.5q10-17 25.5-28.5t34.5-19.5z"/><path transform="translate(66.781 17.75) scale(.015625 -.015625)" d="m205 182q-9-2-13-10.5t-7.5-17.5-7-16.5-10.5-7.5q-1-8-5.5-14t-8.5-12.5-6-14 2-17.5q-8-6-10-17t-4.5-21-8.5-17-22-6q-3-4-1-5t3-7q-11 2-16.5-1.5t-13.5-4.5q-19 6-31.5 21t-22 33.5-17 37.5-14.5 33q3 11 1 21.5t-7 17.5q49 104 107 222t110 233q23-9 45.5-20.5t41-26.5 31.5-34.5 17-43.5q-2-6-4.5-4.5t-4.5-1.5q4-5 4.5-7t0-4-0.5-5.5 3-9.5q-4 1-5.5-1t-6.5 0q4-11 2.5-18t-4.5-12.5-5-12 1-16.5q-3 0-4.5-1.5t-2.5-3-2.5-3-4.5-0.5q3-22 2-44t-1.5-44.5 0.5-47 7-50.5q36 21 57.5 54t35 74 20.5 88 15 96q9 9 14 22t9 27.5 8 29 10 26.5q15-2 25.5-9.5t19.5-16 19-16 25-9.5q12-17 22-33t13-34q-5-8-7.5-18t-5.5-20-8-18.5-14-14.5q-3-26-7.5-47.5t-9-42.5-7.5-43.5-2-49.5q-8-23-17-49t-14-47q-16-13-25-31t-19-36q-4-4-5-2t-7 3q1-4 0-6t-2.5-3.5-2-4.5 1.5-8q-14-6-25-17t-23.5-20-30-12-45.5 7q-41 30-72.5 69t-51.5 93z"/><path transform="translate(75.812 17.75) scale(.015625 -.015625)" d="m569 481q-25 0-54-3.5t-57-7.5q-20-3-38.5-5t-33.5-3q-7-22-14-39t-15-33q-8-17-14.5-34.5t-12.5-37.5q-10-16-16.5-29.5t-10.5-30.5q-12-15-18-31.5t-9-28.5l-4-12q-6-6-7-9.5t-5-6.5q-1-11-7-22-2-5-3-9.5t-1-6.5q0-10-5-13 1-5 0-10.5t-2-10.5q-3-12-2-19 3-4 5.5-7t3.5-8q6-4 9-5 4-3 12-7l9-10q5-29-9-46-15-19-51-19h-12q-5 5-6 8-8 3-13 5t-9 8q-13 6-21 10l-9 5q0 11 0 12-7 9-10.5 20t-5.5 22q-2 9-4.5 17t-6.5 14q-2 58 11 98t27 77q8 20 16 40.5t14 42.5l9 10q7 16 11.5 26.5t9.5 21.5q3 7 5.5 13.5t4.5 11.5q-6 0-11-0.5t-10-1.5q-6-1-11-1.5t-10-0.5q-7 0-10 1-11-5-24-5h-10q-3 0-5.5 0.5t-4.5 0.5q-10 0-16-3-12 0-23 0h-10q-2 0-5-0.5t-5-0.5q-7 0-15 1.5t-17 6.5q-12 16-16 17l-9 12q-1 6-3 11.5t-4 12.5q-4 10-7.5 21.5t-3.5 27.5q1 8 4 12t5 7l3 15 13-1h28q32 0 65 2.5t68 5.5q20 2 40.5 4t42.5 4q4 9 8 17l10 5q18 1 25.5-4.5t12.5-10.5q22 2 44.5 4.5t45.5 6.5q34 5 68.5 9t66.5 4q14 0 27-1t24-3l10-7q3-6 8.5-11t11.5-10q12-11 24-26t9-44q-8-12-12-14l-9-12-10 1q-6 0-11-1.5t-10-3.5q-4-2-8-3.5t-9-2.5q-9 0-14.5 0.5t-11.5 0.5z"/><path transform="translate(89.406 17.75) scale(.015625 -.015625)" d="m90-14q-10 0-31 3-16 17-28.5 46.5t-19 63-6 67 11.5 59.5q0 1 9.5 24t24.5 58.5 34 79 38 85.5 36.5 76.5 30.5 53.5q9 14 16.5 27t14.5 24q11 18 20.5 33.5t21 28 25.5 22 34 16.5q12-5 21-10.5t16-13.5l3-14q2-7 6.5-9.5t7.5-2.5q13-3 22.5-6.5t20.5-4.5q4-6 7.5-12t7.5-11q20-29 33-56t0-59l1-11q5-7 5-13t-2-17q-1-8-1.5-17.5t2.5-20.5l7-8q16-8 31-8 20 0 36 9t30 18q11 8 20.5 13t18.5 7q21 20 38.5 35.5t36.5 31.5q36 29 70 62.5t54 83.5q11 7 25 7t28-5.5 28-12.5q3-2 5.5-3t5.5-3q0-11 9-20 5-4 7-5t4-2q8-5 13.5-9t8.5-11q9-27 30-42-2-11 1-21.5t7-20.5q2-4 3-7.5t3-8.5l-22 2 3-22q3-17-2.5-38t-12.5-33q2-30 2-47.5t-2-32.5-6.5-28.5-11.5-28.5q4-76-17.5-139t-46.5-118q-3-7-6-13t-5-12q-11-3-20-7t-17-9q-11-7-22-11.5t-23-4.5q-48 35-49.5 121t36.5 219q7 5 6 15v11l-10 1q-5 0-9-1t-6-9q-32-23-69.5-47.5t-77.5-45-81.5-34-80.5-13.5q-100 0-151 102l-9 18-10-16q-3-5-10.5-19.5t-15-33.5-13-39-3.5-35q-12-11-23.5-25t-16.5-32q-2-5-1-9.5t3-9.5q-1-7-4-10t-7-6q-5-5-10-10.5t-9-12.5q-2-6-3-12.5t-2-11.5q0-11-3-15-10-21-17.5-34.5t-14.5-20.5-14.5-9.5-17.5-2.5z"/><path transform="translate(104.98 17.75) scale(.015625 -.015625)" d="m529 84q-6-17-17.5-34.5t-27-31-34.5-22.5-40-10q-13 3-17.5 6.5t-9.5 6.5q-3 2-5.5 3.5t-4.5 2.5l-12 5 4 13q2 8-1 12.5t-12 12.5q-3 3-6 6t-5 6l-17 19 27 7q25 7 33.5 18t6.5 37q-20 4-33.5 1t-27.5-7q-18-5-36.5-8.5t-40.5-3.5q-8 0-15 0.5t-15 1.5l-10 2q-2 11-4 12.5t-4 3.5q-5 5-10.5 13.5t-2.5 21.5q-5 9-6 18-6-12-9-25l-4-10-10-2q-2-1-3-4.5t-1-5.5l-5-17q-2-2-4-3.5t-4-3.5q-2-9-5-18t-6-17q-5-13-8.5-25.5t-2.5-24.5l-4-11q-5-6-11-9.5t-12-6.5q-2-2-5.5-3.5t-5.5-2.5l-3-11-12-2q-11-2-15.5-3t-10.5-1l-10 1q-11 9-17 14.5t-14 10.5q-9 12-10 18t-2 11q-2 6-2.5 10t-2.5 6l-13 12 11 9 1 17q20 51 42.5 98t46.5 96q8 16 15.5 32t15.5 32q-1 3-1 7t2 9q11 17 18 30.5t14 27.5q8 17 16.5 33t21.5 33l16 7q3 1 7 2.5t9 1.5l15-2q28 13 49 36.5t43 56.5l10 14 13-8q5-3 14-5.5t19-5.5q18-4 34-9t26-15q6-16 7-24t3-16q3-17 5.5-34t3.5-38q5-17 8.5-33.5t6.5-33.5q5-24 10-46.5t13-42.5q8 0 10-1 5 2 10.5 3t12.5 2l11 1 4-10q1-5 10-10 13-1 19-5.5t11-9.5q4-4 8-6l15-6-8-15q-10-18-28.5-34.5t-41.5-27.5q1-6 1.5-11.5t2.5-11.5q3-17 5-35t0-37zm-289 173q30 2 54.5 4.5t54.5 8.5q-7 30-15 62.5t-17 64.5l-6-10q-20-21-38.5-47t-31.5-49q-6-9-12-18t-11-18q6 1 11.5 1t10.5 1z"/><path transform="translate(114.28 17.75) scale(.015625 -.015625)" d="m161 104q-11-40-19.5-60.5t-25.5-42.5q-13 2-18-3t-11-9q-9-2-13 0t-7 4.5-7.5 5-13.5 2.5q-2 8-4.5 15t-13.5 5q2 8 1 13.5t-2.5 10-2.5 9 1 11.5q-5 0-8 7t-7 14q3 18 6 34t7.5 30 7.5 28-3 29q4-3 6 1.5t3 12 1 15-1 12.5q10 26 16.5 53.5t12 54.5 11.5 53 16 48q11 2 24.5-2.5t16.5-11.5q26 20 46 48.5t41 55.5 46.5 48 64.5 25q20-15 44.5-30.5t40.5-40.5q8-4 13.5-8.5t13.5-9.5v-12q12-11 19.5-25.5t13.5-31 12-33 14-31.5q-2-5-2-8.5t1.5-7.5 2.5-8 0-11q-3-44-28.5-71t-61.5-44.5-77-29.5-74-26q0-4 3.5-4t2.5-5q24-15 38-24t26.5-15 27-10.5 40.5-10.5 40.5-9.5 26.5-6 24.5-4 35.5-3.5q9-9 15.5-21.5t8.5-25 1-24-7-18.5q1-3 4.5-2.5t7.5-0.5q-6-4-10-10t-8-12-9-10.5-14-5.5q-31-12-78-1.5t-119 38.5q-36 14-58.5 24.5t-39 21-30 22.5-32.5 29zm143 343q-11-16-24.5-29t-26-26.5-22.5-30-14-38.5q35 4 73 19.5t72 29.5q-4 31-21.5 50t-36.5 25z"/><path transform="translate(122.94 17.75) scale(.015625 -.015625)" d="m603 36q-48-2-84.5 2t-71.5 19q-2 1-4 5t-4 6q-6 3-14.5 2.5t-14.5 1.5q-8 4-25 15.5t-31 21.5q-18 14-34 28t-28 30q-3 4-8 4.5t-9 2.5q-29-18-49-45t-38-55-38-53-51-38q-9 0-16 3t-13 7.5-12 8.5-13 6q0 12-4.5 22t-9 19-6.5 17.5 4 16.5q-6 6-18 13 6 6 5.5 11t-2.5 10-3.5 11 2.5 12q5 0 12 2-6 8-5.5 9.5t-2.5 4.5q-2 6 2 7.5t8 3.5q4 49 17 91t29 81 31.5 79 25.5 86q11 11 17.5 26t14 30 17 29.5 26.5 23.5q14-1 25-7.5t27-5.5q3-5 5.5-10t6.5-10l15 3q11-9 19.5-22.5t11.5-28.5-1-28.5-19-21.5q1-5 0.5-7.5t-1.5-4.5-1-4 3-6q-20-15-30-42t-11-48q12 12 26.5 23.5t30 22.5 30 21 26.5 20q33 30 63.5 48.5t64.5 41.5q8 2 12.5 0.5t9.5-3.5q0 6-3.5 7t-2.5 8q15 4 26 9.5t24 10.5q9-9 17-18.5t22-11.5q5-11 12-16.5t14-10.5 12.5-12 6.5-22q-4-7-8.5-15t-8.5-19q-20-18-40.5-32t-41.5-27-43-26-45-31q-5-7-12.5-12.5t-15.5-11-15-11.5-11-14q-3-1-6-1t-6-1q-3-7-9.5-11t-8.5-11q15-32 39-49t54-24.5 65-8 73-0.5q4 1 3.5 4.5t4.5 2.5q24-8 37-22.5t31-28.5q-2-38-23-63t-56-40z"/><path transform="translate(133.27 17.75) scale(.015625 -.015625)" d="m558 563q1-7 0.5-10.5t-1-6.5-0.5-6.5 2-10.5q-21-34-48.5-46.5t-59.5-18-65.5-11.5-66.5-26q-13 5-23.5 0t-30.5-3q-6-6-15-8.5t-18-5.5q4-9 3.5-18.5t2.5-15.5q35-3 77.5 1t83.5 5q1-5-1-6.5t-1-5.5q7-5 14-12.5t14-14.5 14.5-11.5 17.5-3.5q4-8 5.5-17.5t-2.5-19.5q-16-11-32-22.5t-33.5-20.5-37-14.5-43.5-4.5q-5 0-7.5 0t-6.5 3q-8-5-22.5-3t-22.5-3q-11 5-26.5 4.5t-27.5 3.5q-16-21-29-45t-23-51q34-5 56.5-4t42.5 3.5 41 5 53 1.5q20 11 47.5 14.5t50.5 11.5q8-3 14-10.5t11.5-14 11.5-11.5 15-4q4-4 5.5-9.5t2.5-10.5 3.5-8.5 8.5-2.5q-15-33-34.5-50.5t-44.5-26.5-55.5-14-67.5-12q-9-2-15 0.5t-14 2.5q-23-5-55-9t-65-3-63 8.5-49 26.5q-8 7-10.5 16.5t-13.5 14.5q-1 13-4 29t-6 33.5-4.5 34.5 1.5 31q3 15 12.5 27t6.5 26q5 1 6 5.5t8 3.5q6 18 13 34t14.5 31 15 30.5 14.5 34.5q-14 13-20.5 28.5t-9.5 31-5 32-7 33.5q10 15 24.5 24.5t31.5 15.5 37 10 42 9q40 13 71.5 20t62 11.5 63.5 8.5 75 12q9-9 17-9 4 9 9.5 5.5t4.5 5.5q10-17 25.5-28.5t34.5-19.5z"/><path transform="translate(141.45 17.75) scale(.015625 -.015625)" d="m161 104q-11-40-19.5-60.5t-25.5-42.5q-13 2-18-3t-11-9q-9-2-13 0t-7 4.5-7.5 5-13.5 2.5q-2 8-4.5 15t-13.5 5q2 8 1 13.5t-2.5 10-2.5 9 1 11.5q-5 0-8 7t-7 14q3 18 6 34t7.5 30 7.5 28-3 29q4-3 6 1.5t3 12 1 15-1 12.5q10 26 16.5 53.5t12 54.5 11.5 53 16 48q11 2 24.5-2.5t16.5-11.5q26 20 46 48.5t41 55.5 46.5 48 64.5 25q20-15 44.5-30.5t40.5-40.5q8-4 13.5-8.5t13.5-9.5v-12q12-11 19.5-25.5t13.5-31 12-33 14-31.5q-2-5-2-8.5t1.5-7.5 2.5-8 0-11q-3-44-28.5-71t-61.5-44.5-77-29.5-74-26q0-4 3.5-4t2.5-5q24-15 38-24t26.5-15 27-10.5 40.5-10.5 40.5-9.5 26.5-6 24.5-4 35.5-3.5q9-9 15.5-21.5t8.5-25 1-24-7-18.5q1-3 4.5-2.5t7.5-0.5q-6-4-10-10t-8-12-9-10.5-14-5.5q-31-12-78-1.5t-119 38.5q-36 14-58.5 24.5t-39 21-30 22.5-32.5 29zm143 343q-11-16-24.5-29t-26-26.5-22.5-30-14-38.5q35 4 73 19.5t72 29.5q-4 31-21.5 50t-36.5 25z"/></svg>