<svg width="45.232" height="19.6" viewBox="0 0 45.232 19.6" xmlns="http://www.w3.org/2000/svg"><path transform="translate(0 16.4) scale(.016 -.016)" d="m62 0v700h223q64 0 113-23.5t78-73.5 29-128-29.5-130-79-78.5-111.5-26.5h-135v-240zm88 318h127q39 0 70 16.5t49.5 50.5 18.5 84q0 49-18.5 83t-49.5 51-70 17h-127z"/><path transform="translate(8.336 16.4) scale(.016 -.016)" d="M455 700H544V0H455V310H150V0H62V700H150V390H455Z"/><path transform="translate(18.032 16.4) scale(.016 -.016)" d="m516 230v470h-89v-463q0-53-18.5-89t-50.5-55-74-19-75 19-51.5 55-18.5 89v463h-89v-470q0-70 21-116.5t55.5-74 76-39 81.5-11.5 80.5 11.5 75 39 55.5 74 21 116.5z"/><path transform="translate(27.088 16.4) scale(.016 -.016)" d="m241 700h-179v-700h179q84 0 150.5 37.5t105 115 38.5 197.5q0 121-38.5 198t-105 114.5-150.5 37.5zm-2-618h-89v536h89q92 0 149-69t57-199q0-127-56.5-197.5t-149.5-70.5z"/><path transform="translate(36.176 16.4) scale(.016 -.016)" d="m516 230v470h-89v-463q0-53-18.5-89t-50.5-55-74-19-75 19-51.5 55-18.5 89v463h-89v-470q0-70 21-116.5t55.5-74 76-39 81.5-11.5 80.5 11.5 75 39 55.5 74 21 116.5z"/></svg>