<svg width="65.904" height="22.72" viewBox="0 0 65.904 22.72" xmlns="http://www.w3.org/2000/svg"><path transform="translate(0 17.76) scale(.016 -.016)" d="m393 655q66 0 112-22t71-64 25-101q0-63-29.5-110t-82.5-73.5-124-26.5h-164v56h230q45 30 65.5 65t20.5 82q0 68-36.5 103t-106.5 35h-130v-549l138-20v-30h-334v27q17 9 43 14.5t64 8.5l10 554-117 22v29z"/><path transform="translate(10.432 17.76) scale(.016 -.016)" d="m43 0v24q15 7 32.5 13t37.5 9l9 345-52 65q29 17 59.5 27.5t65.5 14.5v-454l75-19v-25zm126 711q16-15 27.5-34.5t14.5-39.5q-13-16-33-27.5t-40-14.5q-16 14-27.5 33.5t-15.5 40.5q14 16 33.5 27t40.5 15z"/><path transform="translate(15.056 17.76) scale(.016 -.016)" d="m428-6q-32 0-58.5 23t-36.5 69l12 303q-67 53-164 53-19 0-38-2.5t-36-7.5l44 23-18-143q-34 6-51 23t-17 42q0 33 23.5 60.5t63.5 43.5 88 16q53 0 98.5-21t79.5-60v-347l99 5q-5-26-18.5-44t-32-27-38.5-9zm-224-4q-69 1-110.5 37.5t-41.5 94.5q0 28 13 49.5t46 39 94 36 156 41.5v-48l-239-46 26 13q-5-15-7.5-32t-2.5-31q0-42 19.5-64t60.5-22q30 0 63 11.5t70 37.5v-17q-31-31-66-56.5t-81-43.5z"/><path transform="translate(23.488 17.76) scale(.016 -.016)" d="m44 0v22l302 417-227-2-27-111h-27l-3 162h388v-23l-302-417 250 2 27 117h26l4-167z"/><path transform="translate(31.632 17.76) scale(.016 -.016)" d="m44 0v22l302 417-227-2-27-111h-27l-3 162h388v-23l-302-417 250 2 27 117h26l4-167z"/><path transform="translate(39.776 17.76) scale(.016 -.016)" d="m260-9q-64 0-111.5 30.5t-73.5 85.5-26 129q0 78 28 136.5t78 91.5 116 33q65 0 113-31t75-86 27-129q0-78-28.5-136.5t-79-91-118.5-32.5zm6 53q42 0 73 24t49 69.5 18 108.5q0 62-17.5 105t-49.5 66-75 23q-27 0-58.5-10t-69.5-30l43 33q-24-45-37-92t-13-100q0-61 17.5-105.5t48-68 71.5-23.5z"/><path transform="translate(48.32 17.76) scale(.016 -.016)" d="m30 0v24q13 6 29.5 12t40.5 10l11 589-54 70q29 16 59.5 27t65.5 15v-703l75-19v-25z"/><path transform="translate(52.896 17.76) scale(.016 -.016)" d="m30 0v24q13 6 29.5 12t40.5 10l11 589-54 70q29 16 59.5 27t65.5 15v-703l75-19v-25z"/><path transform="translate(57.472 17.76) scale(.016 -.016)" d="m428-6q-32 0-58.5 23t-36.5 69l12 303q-67 53-164 53-19 0-38-2.5t-36-7.5l44 23-18-143q-34 6-51 23t-17 42q0 33 23.5 60.5t63.5 43.5 88 16q53 0 98.5-21t79.5-60v-347l99 5q-5-26-18.5-44t-32-27-38.5-9zm-224-4q-69 1-110.5 37.5t-41.5 94.5q0 28 13 49.5t46 39 94 36 156 41.5v-48l-239-46 26 13q-5-15-7.5-32t-2.5-31q0-42 19.5-64t60.5-22q30 0 63 11.5t70 37.5v-17q-31-31-66-56.5t-81-43.5z"/></svg>