<svg width="99.696" height="19.2" viewBox="0 0 99.696 19.2" xmlns="http://www.w3.org/2000/svg"><path transform="translate(0 14.72) scale(.016 -.016)" d="m60-12v552h91v91h282v-91h92v-280h-92v-91h-272v-181zm101 282h262v260h-262z"/><path transform="translate(9.376 14.72) scale(.016 -.016)" d="m60-12v462h101v-462zm0 542v101h101v-101z"/><path transform="translate(12.928 14.72) scale(.016 -.016)" d="m60-12v100h91v91h90v81h-90v90h-91v100h101v-91h90v-89h82v89h90v91h102v-100h-92v-90h-90v-81h90v-91h92v-100h-102v90h-90v91h-82v-91h-90v-90z"/><path transform="translate(22.304 14.72) scale(.016 -.016)" d="M151 -12V78H60V359H151V450H433V359H525V260H423V350H161V270H343V169H161V88H423V180H525V79H433V-12Z"/><path transform="translate(31.68 14.72) scale(.016 -.016)" d="m60-12v643h101v-643z"/><path transform="translate(35.232 14.72) scale(.016 -.016)" d="m60-12v462h101v-462zm0 542v101h101v-101z"/><path transform="translate(38.784 14.72) scale(.016 -.016)" d="M60 -12V540H151V631H433V540H525V440H423V530H161V359H343V260H161V-12Z"/><path transform="translate(48.16 14.72) scale(.016 -.016)" d="M151 -193V-103H60V-3H161V-93H424V78H151V169H60V450H161V179H424V450H525V-103H434V-193Z"/><path transform="translate(60.736 14.72) scale(.016 -.016)" d="M151 -12V78H60V179H161V88H423V260H151V350H60V540H151V631H433V540H525V440H423V530H161V359H433V270H525V78H433V-12Z"/><path transform="translate(70.112 14.72) scale(.016 -.016)" d="M151 -12V78H60V359H151V450H433V359H525V88H616V-12H515V78H433V-12ZM161 88H423V350H161Z"/><path transform="translate(80.944 14.72) scale(.016 -.016)" d="M60 -12V450H433V359H525V-12H423V350H161V-12Z"/><path transform="translate(90.32 14.72) scale(.016 -.016)" d="m60-12v100h363v81h-272v91h-91v99h91v91h374v-100h-364v-80h272v-91h92v-101h-92v-90z"/></svg>