<svg width="106.16" height="23.1" viewBox="0 0 106.16 23.1" xmlns="http://www.w3.org/2000/svg"><path transform="translate(0 17.85) scale(.014 -.014)" d="m169-14q-44 0-44 28v834q0 14 11.5 20.5t33.5 6.5h190q100 0 167-22t101.5-70 34.5-127q0-77-29-130.5t-76-87.5-103-53.5-111-28.5q-37-5-71-7.5t-60-2.5v-332q0-14-11-21t-33-7zm44 439q19 0 40.5 1t44.5 3.5 46 5.5q57 10 109.5 34t86 69 33.5 117q0 51-24 81.5t-71.5 44.5-117.5 14h-147z"/><path transform="translate(9.8 17.85) scale(.014 -.014)" d="m193-17q-51 0-74.5 27t-23.5 78v776q0 13 10.5 19.5t31.5 6.5q22 0 33-6.5t11-19.5v-765q0-22 8-31t21-9q10 0 17 3.5t14 10.5 14 15q7 7 16 5.5t19-10.5q7-7 10.5-16.5t-1.5-17.5q-11-21-28-35.5t-37-22.5-41-8z"/><path transform="translate(13.986 17.85) scale(.014 -.014)" d="m250-17q-55 0-97.5 28t-66 83-23.5 138q0 52 9.5 96.5t28.5 80 46 60 62 37.5 78 13q32 0 65-9.5t63-26.5v4q0 14 11 21t33 7 32.5-6.5 10.5-20.5v-389q0-14 3.5-23t10-13 14.5-4q10 0 16.5 3t13 9.5 15.5 16.5q6 7 15 5.5t19-8.5q10-9 12.5-19.5t-2.5-19.5q-11-19-27.5-33t-36.5-22-42-8q-23 0-40 5.5t-29.5 17-18.5 28-9 37.5q0 5-0.5 12t-0.5 15q-22-43-49-68t-56.5-36-59.5-11zm-99 252q0-52 12-91t37-60 63-21q31 0 59 17t52 51.5 41 85.5v192q-31 18-59.5 24.5t-58.5 6.5q-27 0-49.5-8t-40.5-24.5-30.5-41-19-57-6.5-74.5z"/><path transform="translate(22.694 17.85) scale(.014 -.014)" d="m494 22q16 10 32 19t30.5 17 27.5 14 22 11q17 7 27.5 0.5t15-19.5 0.5-27-19-21q-14-7-30.5-16.5t-34-19.5-35.5-20.5-36-20.5zm-173-416q-43 0-75.5 15t-50 42.5-17.5 64.5q0 26 9.5 51.5t30 51 51.5 51.5 74 53q23 14 45.5 28.5t45.5 28.5v113q-14-31-33.5-54t-42-38-47.5-22.5-52-7.5q-52 0-89 19t-56.5 58.5-19.5 100.5v328q0 13 10.5 19.5t31.5 6.5q22 0 33-6.5t11-19.5v-326q0-34 10-57t30-34.5 51-11.5q30 0 55.5 13t46 36.5 36 55.5 25.5 70v254q0 13 10.5 19.5t32.5 6.5q21 0 32-6.5t11-19.5v-618q0-63-14-112.5t-40-83-63-51.5-82-18zm5 78q26 0 46 12t34 36 21 60 7 83v32q-19-11-38-23t-39-24q-22-15-39-30t-28.5-30.5-17-31-5.5-31.5 6.5-28 19.5-18.5 33-6.5z"/><path transform="translate(31.654 17.85) scale(.014 -.014)" d="m229-15q-22 0-32 7t-15 19l-157 454q-7 20 4.5 35t39.5 15q15 0 24-6t13-20l124-380 132 380q5 14 14.5 20t25.5 6q15 0 25-6t14-20l135-380 123 380q5 14 14 20t24 6q29 0 40-14t3-36l-159-454q-4-12-14-19t-32-7-30.5 7.5-12.5 18.5l-130 367-127-367q-4-11-14.5-18.5t-31.5-7.5z"/><path transform="translate(42.91 17.85) scale(.014 -.014)" d="m136-15q-21 0-31.5 6.5t-10.5 19.5v478q0 13 10.5 19.5t31.5 6.5q22 0 33-6.5t11-19.5v-90q16 30 35 52.5t40 37.5 42.5 22.5 43.5 7.5q24 0 46.5-7.5t33.5-17.5q10-8 11.5-18t-8.5-28q-8-15-19-19.5t-25 0.5q-12 4-24 7t-28 3q-21 0-42.5-11t-41-33-36-54-28.5-72v-258q0-13-11-19.5t-33-6.5z"/><path transform="translate(49.266 17.85) scale(.014 -.014)" d="m192-17q-51 0-74.5 27t-23.5 78v401q0 13 10.5 19.5t31.5 6.5q22 0 33-6.5t11-19.5v-390q0-22 8-31t21-9q10 0 17 4t13.5 10.5 14.5 15.5q5 6 15.5 3.5t17.5-9.5q10-8 12-18t-3-18q-11-20-27.5-34t-36-22-40.5-8zm-56 686q-28 0-42 15.5t-14 46.5q0 32 14 48t42 16 41.5-16 13.5-48q2-31-12.5-46.5t-42.5-15.5z"/><path transform="translate(53.466 17.85) scale(.014 -.014)" d="m239-17q-40 0-67 15.5t-40.5 44.5-13.5 70v307h-77q-15 0-21.5 9t-6.5 31q0 23 6.5 31.5t21.5 8.5h77v204q0 13 10.5 19.5t32.5 6.5 33-6.5 11-19.5v-204h126q15 0 21.5-8.5t6.5-31.5q0-22-6.5-31t-21.5-9h-126v-298q0-34 9.5-48.5t32.5-14.5q22 0 39 12t35 33q10 11 20 9t20-10q13-9 14.5-19.5t-3.5-19.5q-16-29-37.5-47t-45.5-26-50-8z"/><path transform="translate(58.898 17.85) scale(.014 -.014)" d="m288-19q-75 0-125 33t-75 88.5-25 124.5q0 65 18.5 118.5t52 92.5 80.5 60 104 21q47 0 83-14.5t56.5-43.5 20.5-74q0-38-17-69t-47.5-55-72-41-92-26.5-106.5-13.5l-1 70q33 2 68 8t67 16.5 57 25.5 39.5 34.5 14.5 43.5q0 32-21.5 45.5t-56.5 13.5q-33 0-61.5-13.5t-50.5-39.5-34.5-62-12.5-81q0-56 17-96.5t48.5-63 75.5-22.5q31 0 53 9t40.5 26 39.5 39q14 15 26.5 14.5t26.5-11.5 17-23-6-25q-26-39-60-63t-70-35-71-11z"/><path transform="translate(70.462 17.85) scale(.014 -.014)" d="m401-17q-71 0-129.5 29.5t-101 84.5-66 132.5-23.5 172.5q0 71 13.5 135t38 118.5 60 98 80.5 73.5 98 46.5 112 16.5q58 0 105.5-12.5t89.5-39 81-67.5q12-11 11.5-23t-17.5-28q-15-15-26.5-12.5t-24.5 12.5q-38 33-74 51.5t-72 26-73 7.5q-47 0-87.5-13t-75-38-62-60.5-46-80.5-29-98-10.5-113q0-76 17-138t47.5-106 73-67 93.5-23q63 0 112.5 33.5t87 89 62 122.5 35.5 132q0 14 11 21t33 7q44 0 44-28v-429q0-14-11-21t-33-7q-44 0-44 28v204q-25-57-56.5-101t-69.5-74.5-82-46-92-15.5z"/><path transform="translate(82.712 17.85) scale(.014 -.014)" d="m169 0q-44 0-44 28v820q0 27 45 27h201q82 0 142-16t92.5-57 32.5-116q0-46-19.5-82t-50.5-63-66-45.5-67-29.5v-3q47-1 90-12t77-33 53.5-58.5 19.5-88.5q0-48-15-90t-43.5-75-69-57-91-36.5-110.5-12.5zm44 80h133q65 0 110.5 16t73.5 43.5 41.5 61 13.5 69.5q0 41-14.5 70t-43 47.5-70.5 27-98 8.5h-146zm0 423h133q43 0 79.5 13.5t64 38 43 58 15.5 73.5q0 47-23 70t-62.5 31-91.5 8h-158z"/><path transform="translate(97.062 17.85) scale(.014 -.014)" d="m294-19q-61 0-112 20.5t-88 60.5-57 98q-5 15 3.5 22.5t22.5 12.5q15 5 27.5 4.5t17.5-14.5q17-39 39-65.5t57-40 90-13.5q27 0 51.5 7t44.5 21 35 37.5 23 57 8 78.5v596q0 14 11 20.5t33 6.5 33-6.5 11-20.5v-596q0-57-12-102.5t-34-80-53-57.5-69-34.5-82-11.5z"/></svg>