<svg width="162.18" height="26.4" viewBox="0 0 162.18 26.4" xmlns="http://www.w3.org/2000/svg"><path transform="translate(0 20.4) scale(.016 -.016)" d="m89-14q-48 0-39 30l269 832q5 14 17 20.5t34 6.5h155q93 0 155-22t93-65.5 31-108.5q0-76-29.5-132.5t-83.5-95-128-62.5-162-35q-37-4-79-6.5t-77-2.5l-107-331q-5-14-15.5-21t-33.5-7zm181 439q24 0 51 1t54.5 3.5 52.5 5.5q92 15 155.5 44.5t97 76 33.5 112.5q0 45-21 73t-65.5 41-116.5 13h-121z"/><path transform="translate(11.2 20.4) scale(.016 -.016)" d="m-147-17q-19 0-25 11.5t-2.5 26 16 26 30.5 11.5q31 0 69 16t80.5 44 86 66.5 87 84 83.5 95.5 73.5 101.5 58.5 102.5 39 98.5 14 88.5q0 14 13 21t30.5 7 31-7 13.5-21q0-43-16.5-94.5t-45.5-107.5-68.5-113.5-86.5-113.5-97.5-106.5-102-94-102-75-96-49.5-83.5-18zm319 1q-43 0-64.5 15.5t-27.5 41.5-1.5 58 14.5 64l182 562q29 89 69.5 129t98.5 40q32 0 56.5-17.5t38-48.5 13.5-73q0-19-13.5-28t-31-9-30.5 9-13 28q0 17-3.5 29.5t-11 19-20.5 6.5q-11 0-22.5-8.5t-23-29.5-23.5-59l-192-598q-4-13-6-26t3-21.5 19-8.5 26 7 22.5 18.5 18.5 22.5q5 9 15.5 12t25.5-7q17-10 17.5-20.5t-4.5-21.5q-10-17-28.5-37.5t-44.5-34.5-59-14z"/><path transform="translate(17.504 20.4) scale(.016 -.016)" d="m180-17q-43 0-74 19.5t-47.5 56.5-16.5 87q0 44 12.5 95t38 100 64 89.5 90.5 64.5 118 24q33 0 65-10t60-27l1 4q7 18 16.5 23.5t27.5 5.5q32 0 40-9.5t2-29.5l-119-361q-4-13-6-26t3-21.5 20-8.5q13 0 25 7t22.5 18.5 18.5 22.5q6 9 16.5 12t25.5-7q16-10 17-20.5t-5-21.5q-9-17-27.5-37.5t-44.5-34.5-59-14q-31 0-50 9t-28.5 24-12.5 34-1 39q0 3 0 5.5t1 4.5q-35-44-70-70t-66.5-36.5-56.5-10.5zm-48 174q0-31 8.5-51.5t26-31.5 41.5-11q34 0 69 22.5t70 65.5 68 102l53 162q-27 15-52 20t-50 5q-50 0-89-19t-66.5-51-45-70-25.5-75.5-8-67.5z"/><path transform="translate(27.456 20.4) scale(.016 -.016)" d="m404 9q20 10 38.5 19t36.5 17 34.5 14.5 30.5 12.5q16 5 24-2.5t10-21.5-2.5-27-15.5-18q-20-9-40.5-18.5t-41-19-41.5-20-42-20.5zm-255-403q-38 0-68 14.5t-46 40.5-16 58q0 38 17 68t48 55.5 73.5 49.5 93.5 48q25 12 49.5 24t49.5 24l36 111q-23-28-48-49.5t-50.5-36-51.5-22-52-7.5q-54 0-86 24t-38.5 68.5 12.5 104.5l99 302q7 20 16.5 26t28.5 6q31 0 39.5-9.5t1.5-29.5l-99-301q-12-38-11-63t17.5-37.5 50.5-12.5q27 0 56.5 15t59.5 43 58.5 66 51.5 85l68 212q7 20 16.5 26t28.5 6q31 0 39.5-9.5t1.5-29.5l-196-603q-23-73-48.5-124t-56-82.5-66-46-79.5-14.5zm13 78q23 0 43.5 11t39 33.5 36 59 33.5 87.5l6 19q-14-7-28-14t-28-14q-36-17-65-33t-49.5-32-31-32.5-10.5-36.5q0-16 6.5-26.5t18.5-16 29-5.5z"/><path transform="translate(37.696 20.4) scale(.016 -.016)" d="m146-15q-21 0-29 8.5t-9 29.5l-12 453q0 14 8 26.5t36 12.5q22 0 31.5-8.5t9.5-31.5l3-354 240 363q12 18 25 24.5t32 6.5q17 0 29.5-10t13.5-36l11-346 230 365q11 17 23 22t26 5q28 0 38-14t-2-33l-297-457q-7-11-22-18.5t-37-7.5-30.5 8.5-8.5 29.5l-11 355-243-367q-7-10-20-18t-35-8z"/><path transform="translate(50.56 20.4) scale(.016 -.016)" d="m56-15q-16 0-30 7t-7 26l150 465q7 20 16.5 26t28.5 6q31 0 39.5-9.5t1.5-29.5l-25-78q24 29 49.5 51.5t51 38 50.5 23.5 49 8q25 0 45-8.5t32-20.5q11-9 12-20t-10-29q-11-17-21.5-21t-21.5 3q-17 10-29.5 13.5t-26.5 3.5q-28 0-58.5-15t-62-42.5-60.5-65.5-53-85l-72-221q-4-13-14.5-19.5t-33.5-6.5z"/><path transform="translate(57.824 20.4) scale(.016 -.016)" d="m142-16q-64 0-85.5 44.5t4.5 123.5l107 331q7 20 16.5 26t28.5 6q31 0 39.5-9.5t1.5-29.5l-116-357q-9-29-4.5-44.5t22.5-15.5q13 0 25 7t22 18.5 19 22.5q6 9 16.5 12t25.5-7q16-10 17-20.5t-5-21.5q-13-22-32.5-42t-45-32-56.5-12zm133 685q-20 0-34 13t-14 38q0 27 17.5 51t54.5 24q21 0 35-12.5t14-38.5q0-27-17.5-51t-55.5-24z"/><path transform="translate(62.624 20.4) scale(.016 -.016)" d="m167-16q-54 0-76.5 25t-21 67 17.5 95l81 249h-79q-11 0-15 10t1 30q6 20 16 30t21 10h82l64 198q6 20 15.5 26t29.5 6q31 0 39.5-9.5t1.5-29.5l-62-191h126q11 0 15.5-9.5t-1.5-30.5q-5-19-15-29.5t-21-10.5h-129l-95-291q-11-35-5.5-52.5t26.5-17.5q30 0 54 20t41 41q6 9 16.5 12t25.5-7q17-10 18-20t-5-21q-12-20-34.5-44t-55-40-76.5-16z"/><path transform="translate(68.832 20.4) scale(.016 -.016)" d="m248-18q-34 0-65 11.5t-56 33-43.5 51.5-28 66.5-9.5 77.5q0 39 9 80t27.5 80 46.5 69.5 66 49 86 18.5q39 0 66.5-15.5t41.5-42 14-60.5q0-57-27.5-110.5t-72-99.5-96.5-82q-54-38-114-66.5t-119-44-111-15.5q-14 0-20 11.5t-3.5 26 14 26 32.5 11.5q44 0 93 15t97.5 41 90.5 58q36 27 69.5 61.5t55 72.5 21.5 76q0 28-12 42.5t-39 14.5q-31 0-54.5-21.5t-40-54.5-24.5-69.5-8-66.5q0-37 10-67.5t28-52.5 41.5-33.5 49.5-11.5 50.5 9.5 47.5 26.5 45 36q14 13 27 10.5t24-13.5q13-12 15-25.5t-11-26.5q-33-34-68-56t-71.5-31.5-74.5-9.5z"/><path transform="translate(80.736 20.4) scale(.016 -.016)" d="m88 0q-45 0-35 28l267 820q5 14 18 20.5t35 6.5h153q89 0 154.5-22t109-60.5 64.5-88.5 21-106q0-105-31.5-196.5t-88-165-132-126.5-164.5-81.5-184-28.5zm71 85h116q75 0 147.5 22.5t136.5 66 113 106.5 76.5 143 27.5 175q0 45-18 81t-51.5 60.5-79.5 37.5-102 13h-136z"/><path transform="translate(94.656 20.4) scale(.016 -.016)" d="m83-14q-22 0-30.5 7t-4.5 21l276 849q9 27 53 27t35-27l-114-348 472 361q19 14 31 11.5t24-19.5q13-18 11.5-28.5t-22.5-26.5l-476-359q42-82 83.5-151.5t86-131.5 95.5-125q14-17 9.5-29t-24.5-27q-15-10-28.5-7t-21.5 13q-41 50-78.5 103.5t-71 108.5-63 111-55.5 111l-135-416q-4-14-17-21t-35-7z"/><path transform="translate(110.53 20.4) scale(.016 -.016)" d="m91 0q-45 0-32 40l265 823q5 14 15 20.5t32 6.5q23 0 34-7t5-23l-251-780h364q11 0 15-9.5t-2-30.5q-5-19-15-29.5t-21-10.5z"/><path transform="translate(120.53 20.4) scale(.016 -.016)" d="m241-19q-62 0-105 25t-64.5 69.5-21.5 100.5q0 53 19 112.5t56.5 112 94 85.5 131.5 33q62 0 104.5-23.5t64-66 21.5-98.5q0-40-11.5-87.5t-35-94-59.5-84.5-84.5-61-109.5-23zm10 80q49 0 86 26t62 66.5 38 85 13 82.5q0 39-13 65t-37 39.5-57 13.5q-50 0-88-25.5t-63.5-65.5-38.5-84-13-81q0-39 13.5-66.5t38.5-41.5 59-14z"/><path transform="translate(129.94 20.4) scale(.016 -.016)" d="m241-19q-62 0-105 25t-64.5 69.5-21.5 100.5q0 53 19 112.5t56.5 112 94 85.5 131.5 33q62 0 104.5-23.5t64-66 21.5-98.5q0-40-11.5-87.5t-35-94-59.5-84.5-84.5-61-109.5-23zm10 80q49 0 86 26t62 66.5 38 85 13 82.5q0 39-13 65t-37 39.5-57 13.5q-50 0-88-25.5t-63.5-65.5-38.5-84-13-81q0-39 13.5-66.5t38.5-41.5 59-14z"/><path transform="translate(139.34 20.4) scale(.016 -.016)" d="m-58-390q-16 0-30 7t-7 26l271 840q7 20 16.5 26t28.5 6q31 0 39.5-9.5t1.5-29.5l-18-57q32 38 63 59.5t59.5 31 53.5 9.5q64 0 100.5-44t36.5-120q0-46-13-97t-39-100-64.5-88.5-89.5-63-115-23.5q-32 0-63 10t-59 26l-124-383q-4-13-14.5-19.5t-33.5-6.5zm193 475q28-13 51-18.5t48-5.5q49 0 87 19.5t65.5 51 45 69 26 75.5 8.5 69q0 30-8.5 51t-25 32-41.5 11q-31 0-64-19.5t-66-57-65-91.5z"/><path transform="translate(148.86 20.4) scale(.016 -.016)" d="m248-18q-34 0-65 11.5t-56 33-43.5 51.5-28 66.5-9.5 77.5q0 39 9 80t27.5 80 46.5 69.5 66 49 86 18.5q39 0 66.5-15.5t41.5-42 14-60.5q0-57-27.5-110.5t-72-99.5-96.5-82q-54-38-114-66.5t-119-44-111-15.5q-14 0-20 11.5t-3.5 26 14 26 32.5 11.5q44 0 93 15t97.5 41 90.5 58q36 27 69.5 61.5t55 72.5 21.5 76q0 28-12 42.5t-39 14.5q-31 0-54.5-21.5t-40-54.5-24.5-69.5-8-66.5q0-37 10-67.5t28-52.5 41.5-33.5 49.5-11.5 50.5 9.5 47.5 26.5 45 36q14 13 27 10.5t24-13.5q13-12 15-25.5t-11-26.5q-33-34-68-56t-71.5-31.5-74.5-9.5z"/><path transform="translate(155.97 20.4) scale(.016 -.016)" d="m167-16q-54 0-76.5 25t-21 67 17.5 95l81 249h-79q-11 0-15 10t1 30q6 20 16 30t21 10h82l64 198q6 20 15.5 26t29.5 6q31 0 39.5-9.5t1.5-29.5l-62-191h126q11 0 15.5-9.5t-1.5-30.5q-5-19-15-29.5t-21-10.5h-129l-95-291q-11-35-5.5-52.5t26.5-17.5q30 0 54 20t41 41q6 9 16.5 12t25.5-7q17-10 18-20t-5-21q-12-20-34.5-44t-55-40-76.5-16z"/></svg>