<svg width="147.98" height="28.016" viewBox="0 0 147.98 28.016" xmlns="http://www.w3.org/2000/svg"><path transform="translate(0 21.28) scale(.016 -.016)" d="m451 347q-17-1-21.5 11.5t0.5 28.5q5 15 14 26t25 11q59 1 119 12t113 32.5 94.5 53.5 65.5 76 24 100q0 40-17.5 69.5t-49 48.5-74.5 29-93 10q-58 0-125-15.5t-136-50-135-94.5q-19-16-32.5-14.5t-26.5 12.5q-10 10-10.5 24.5t15.5 31.5q48 51 107.5 86.5t122 57.5 121 32 105.5 10q81 0 141-17.5t99.5-49.5 59-75 19.5-95q0-72-29-127t-81-96-119-68-142.5-41.5-153.5-18.5zm-317-364q-42 0-74 19.5t-52.5 50-27.5 61.5q-5 19-1 33t25 19q19 6 30-0.5t18-23.5q10-25 22.5-41.5t27.5-24.5 34-8q31 0 53 23.5t43 88.5l181 564q5 14 17 20.5t34 6.5q23 0 33.5-6.5t5.5-23.5l-181-563q-18-54-44-99t-61.5-70.5-82.5-25.5z"/><path transform="translate(13.824 21.28) scale(.016 -.016)" d="m-172-17q-19 0-24.5 11.5t-1.5 26 16 26 29 11.5q25 0 61 16.5t79.5 46.5 91 71 96 89.5 94 102 84 108.5 68 110 46.5 106 17 95q0 14 12.5 21t30 7 30-7 12.5-21q0-46-18.5-101t-52-114.5-78.5-120.5-96.5-120.5-107-113-110.5-99.5-106.5-80-95.5-52.5-76-18.5zm327 2q-39 0-57.5 16t-22.5 41.5 1.5 54.5 13.5 56l188 580q35 108 79 157t106 49q32 0 55.5-17.5t37-48 13.5-70.5q0-19-12.5-28t-30-9-30 9-12.5 28q0 16-3 28t-10.5 19.5-20.5 7.5q-14 0-27.5-12t-28.5-42.5-34-87.5l-197-609q-5-16-6-26.5t3-15.5 12-5q11 0 22.5 7t23 19 23.5 27q7 10 15.5 12t21.5-7q17-10 19-20t-3-21q-9-15-28.5-37.5t-47.5-38.5-63-16z"/><path transform="translate(20.128 21.28) scale(.016 -.016)" d="m159-17q-37 0-64.5 18.5t-42.5 53-15 80.5 13.5 98 41 102.5 67 92 91.5 66.5 117 25q30 0 62-8.5t61-23.5l1 4q6 16 15.5 20t27.5 4q31 0 39.5-9.5t1.5-29.5l-123-369q-5-16-6-26.5t3-15.5 13-5q11 0 22 7t22.5 19 23.5 27q8 10 16.5 12t21.5-7q16-10 18.5-20t-2.5-21q-9-15-28.5-37.5t-47.5-38.5-63-16-53 14-23.5 35.5-2.5 46.5 9 48q1 2 1.5 4.5t1.5 5.5q-40-54-78.5-89t-74-51-66.5-16zm-31 167q0-27 7-46.5t20.5-30 31.5-10.5q34 0 76 32.5t87 95 92 151.5l25 76q-31 13-58 17.5t-51 4.5q-45 0-82-19.5t-64.5-52-46-71.5-28-77.5-9.5-69.5z"/><path transform="translate(30.08 21.28) scale(.016 -.016)" d="m406 16q20 13 40 24.5t38 21 34.5 18.5 30.5 15q16 7 25 0t11.5-20.5-1.5-26.5-15-19q-20-11-41.5-23t-43.5-24.5-44.5-26-45.5-27.5zm-271-455q-36 0-64 14t-43.5 38.5-15.5 55.5q0 34 14.5 65t42 60.5 67 59.5 90.5 61q31 18 62.5 37t62.5 38l55 169q-29-41-58.5-73.5t-61-55.5-63-34-62.5-11q-49 0-76.5 23t-31 67.5 16.5 106.5l100 301q7 20 16.5 26t28.5 6q31 0 39.5-9.5t1.5-29.5l-104-311q-10-29-11.5-52t10.5-36 41-13q32 0 69.5 25t76.5 70 76.5 107 69.5 136l26 81q7 20 16.5 26t28.5 6q31 0 39.5-9.5t1.5-29.5l-211-647q-23-73-48.5-124t-55-83-66-46.5-80.5-14.5zm13 78q24 0 44.5 11.5t39 35 36 59.5 32.5 86l18 56q-17-10-35-21t-36-22q-37-23-65-45t-46-42-26.5-38.5-8.5-35.5q0-14 5.5-23.5t16-15 25.5-5.5z"/><path transform="translate(40.32 21.28) scale(.016 -.016)" d="m198-19q-46 0-72 19t-35.5 51-5.5 71.5 18 80.5l69 210q4 13 0 21.5t-16 8.5q-11 0-23-6.5t-27.5-22-36.5-42.5q-12-13-21.5-16t-26.5 5q-19 11-18 23.5t8 23.5q22 31 45.5 56t52.5 39.5 65 14.5 55-13 25-34 3-46.5-10-48.5l-61-190q-10-32-14-60.5t6.5-46.5 42.5-18q27 0 56 18.5t56.5 50.5 51 72 39.5 83l65 199q5 16 14 24t31 8q33 0 39-9.5t0-28.5l-82-266q-7-20-12.5-45.5t-4-50 13.5-40 42-15.5q34 0 66.5 21t60 56 48 78 32 88.5 11.5 85.5q0 11-0.5 23.5t-2 25.5-3.5 26q-3 18 0.5 30t13.5 18 25 6q19 0 30-11t16-37q3-11 4.5-22.5t2-23.5 0.5-25q0-52-15-109t-43.5-112-68.5-100-89.5-71.5-107.5-26.5q-46 0-74 17.5t-39.5 45.5-12.5 61q-24-38-53-66t-62-43-71-15z"/><path transform="translate(54.528 21.28) scale(.016 -.016)" d="m81-15q-16 0-29.5 7t-7.5 26l128 395q4 13 0 21.5t-16 8.5q-11 0-23-6.5t-27.5-22-36.5-42.5q-12-13-21.5-16t-26.5 5q-19 11-18 23.5t8 23.5q22 31 45.5 56t52.5 39.5 65 14.5q35 0 53-12t24-31 4.5-41.5-5.5-42.5l-16-48q26 43 53 75.5t53 55 49 34 43 11.5q14 0 21-7t6-31q0-25 3-41.5t10-25 19-8.5q22 0 49 13.5t74 44.5q10 7 20.5 2.5t17-15.5 7-23.5-10.5-19.5q-45-36-84-53.5t-80-17.5q-21 0-41.5 8.5t-34 29-14.5 56.5q-23-13-52.5-41.5t-61-70-62.5-95-57-116.5l-32-97q-4-13-14.5-19.5t-33.5-6.5z"/><path transform="translate(63.344 21.28) scale(.016 -.016)" d="m127-15q-59 0-75.5 44.5t10.5 127.5l107 326q7 20 16.5 26t28.5 6q31 0 39.5-9.5t1.5-29.5l-120-368q-8-23-5-35.5t17-12.5q11 0 21 6.5t21 18.5 24 28q8 10 16.5 12t21.5-7q16-10 18.5-20t-3.5-21q-18-29-39.5-50t-46.5-31.5-53-10.5zm149 684q-20 0-34 13t-14 38q0 27 17.5 51t54.5 24q21 0 35-12.5t14-38.5q0-27-17.5-51t-55.5-24z"/><path transform="translate(68.144 21.28) scale(.016 -.016)" d="m158-15q-44 0-67 20.5t-25 59 15 91.5l86 264h-77q-11 0-15 10t1 30q6 20 16 30t21 10h80l65 198q6 20 15.5 26t29.5 6q31 0 39.5-9.5t1.5-29.5l-63-191h126q11 0 15.5-9.5t-1.5-30.5q-5-19-15-29.5t-21-10.5h-130l-97-294q-11-34-6-50t24-16q24 0 50 18.5t51 50.5q8 9 17.5 11t24.5-8q15-9 17-18.5t-3-18.5q-11-20-35.5-46t-59-45-80.5-19z"/><path transform="translate(74.352 21.28) scale(.016 -.016)" d="m237-17q-36 0-66 11.5t-53 32-38.5 48.5-24 61.5-8.5 70.5 8.5 79.5 26.5 84 46 75 66.5 53.5 89.5 20q33 0 58.5-13.5t40-38 14.5-57.5q0-49-28-100t-74.5-98.5-102.5-87.5q-56-42-118-73.5t-120-49.5-104-18q-14 0-21 11.5t-5 26 13 26 32 11.5q36 0 84 16.5t100 45.5 99 64q42 31 77 66t56.5 70 21.5 67q0 25-10.5 38.5t-33.5 13.5q-31 0-54.5-23.5t-40-59-24.5-75-8-71.5q0-31 8-58t23-47 37.5-31 50.5-11q29 0 57 12t54 32.5 49 44.5q13 14 28 10.5t25-14.5q11-12 12.5-24.5t-10.5-26.5q-36-43-75-68t-78.5-35.5-79.5-10.5z"/><path transform="translate(86.256 21.28) scale(.016 -.016)" d="m164-17q-35 0-64.5 15t-47.5 41-18 59q0 30 14.5 55t42 40.5 67.5 15.5q42 0 80-10t73.5-26 70.5-33.5 70-33.5 71-26 75-10q46 0 91.5 18t87.5 50 77.5 75.5 62 95.5 41.5 108.5 15 115.5q0 77-24.5 137t-70.5 100-109 60.5-141 20.5q-51 0-95.5-6.5t-82-19.5-68.5-32.5-55.5-45.5-44.5-60q-9-16-21-17.5t-30 6.5q-15 8-19 20t3 25q20 42 50.5 75.5t69.5 59.5 86 43.5 102 26.5 117 9q94 0 172-26.5t134.5-77 87.5-124 31-169.5q0-71-18-139t-50-130-76-113-96.5-88.5-111.5-58.5-120-21q-52 0-100 14t-92.5 35-85 42.5-78 35.5-70.5 14q-22 0-31.5-9t-9.5-24q0-18 15-25.5t32-7.5q28 0 45.5 12t30.5 39.5 28 74.5l177 550q5 14 17 20.5t34 6.5q24 0 34-7.5t5-22.5l-181-557q-23-72-50.5-115.5t-63-62-85.5-18.5z"/><path transform="translate(103.22 21.28) scale(.016 -.016)" d="m319-19q-78 0-134 26t-86 73.5-30 111.5q0 51 20 99t56 88.5 84.5 69 105.5 39.5q-36 13-60.5 36.5t-36.5 55-12 66.5q0 50 15 94t43 80 66.5 62 86.5 39.5 102 13.5q57 0 106.5-15.5t88-42.5 60.5-62q11-16 9-29t-16-22q-14-12-29-11.5t-30 15.5q-24 26-55.5 44t-70 27-83.5 9q-44 0-81.5-15.5t-64.5-42.5-41.5-63.5-14.5-78.5q0-38 18-66t53.5-43.5 86.5-15.5h119q17 0 20-9t-4-31-16-31-23-9h-122q-59 0-111-19.5t-91-53-61.5-77-22.5-91.5q0-44 21.5-73.5t61.5-44.5 95-15q51 0 97 17t88 50.5 78 80.5q15 20 29.5 20.5t30.5-14.5q14-11 13-24.5t-15-31.5q-48-62-101-103t-113-62-129-21z"/><path transform="translate(119.63 21.28) scale(.016 -.016)" d="m81-21q-36 0-63 12t-41.5 34-14.5 52q0 37 18 66t49.5 45.5 73.5 16.5q36 0 69-9.5t65-24.5 64-31.5 64-32 65.5-24.5 68.5-9q49 0 84.5 17.5t62 51 46.5 80.5q8 18 20.5 24t33.5-3q18-7 21.5-21t-5.5-33q-30-64-66.5-109t-86-68-117.5-23q-49 0-94.5 14t-87 34-79 40.5-71.5 34.5-63 14q-23 0-35.5-10.5t-12.5-29.5q0-13 10-23t26-10q30 0 63.5 29t54.5 93l172 531q19 58 44 101t57.5 71 72.5 42 89 14q48 0 84-20t61-58.5 39-93.5q4-16-3-26.5t-25-16.5q-17-5-28 0.5t-17 20.5q-13 39-30 63t-39 35.5-52 11.5q-31 0-56.5-9t-46.5-28.5-37-48.5-29-68l-169-523q-23-69-55-112.5t-71-63-83-19.5z"/><path transform="translate(132.54 21.28) scale(.016 -.016)" d="m135-17q-32 0-58 10.5t-45 24-28 23.5q-11 11-9.5 23.5t14.5 27.5q13 14 24 15.5t21-7.5q19-18 40.5-27t43.5-9q18 0 38.5 6t45 24.5 56 55 73.5 96.5 97.5 150 126 214.5 159.5 290.5q10 18 24.5 26t36.5 8q29 0 43.5-9.5t12.5-32.5q-13-104-23.5-210.5t-17.5-215.5-8.5-221 1.5-227q1-16-9-24.5t-33-10.5q-20-2-30 4.5t-12 22.5q-5 100-4 197t6 192.5 13.5 190 19.5 187.5q-85-158-153.5-277t-123.5-204-98.5-142-78-91.5-63.5-52-54-23-48-5.5zm585 50q-5 76-24 131.5t-48 93-66 60-78 31.5-82 9q-28 0-49.5-5t-37.5-15.5-24.5-24.5-8.5-32q0-28 22-46.5t60.5-28 90.5-9.5q61 0 112 9t99 26 101.5 41.5 118.5 55.5q13 6 24 1.5t18-20.5q10-17 7-30.5t-19-21.5q-72-34-133.5-59.5t-117-43.5-110-26.5-115.5-8.5q-72 0-128 18.5t-87.5 53.5-31.5 85q0 35 16.5 63.5t46 50 69 33.5 85.5 12q48 0 96.5-12t92.5-40 79-74 56.5-112.5 24.5-157.5z"/></svg>