<svg width="153.51" height="23.1" viewBox="0 0 153.51 23.1" xmlns="http://www.w3.org/2000/svg"><path transform="translate(0 17.85) scale(.014 -.014)" d="m169-14q-44 0-44 28v834q0 14 11.5 20.5t33.5 6.5h190q100 0 167-22t101.5-70 34.5-127q0-77-29-130.5t-76-87.5-103-53.5-111-28.5q-37-5-71-7.5t-60-2.5v-332q0-14-11-21t-33-7zm44 439q19 0 40.5 1t44.5 3.5 46 5.5q57 10 109.5 34t86 69 33.5 117q0 51-24 81.5t-71.5 44.5-117.5 14h-147z"/><path transform="translate(9.8 17.85) scale(.014 -.014)" d="m193-17q-51 0-74.5 27t-23.5 78v776q0 13 10.5 19.5t31.5 6.5q22 0 33-6.5t11-19.5v-765q0-22 8-31t21-9q10 0 17 3.5t14 10.5 14 15q7 7 16 5.5t19-10.5q7-7 10.5-16.5t-1.5-17.5q-11-21-28-35.5t-37-22.5-41-8z"/><path transform="translate(13.986 17.85) scale(.014 -.014)" d="m250-17q-55 0-97.5 28t-66 83-23.5 138q0 52 9.5 96.5t28.5 80 46 60 62 37.5 78 13q32 0 65-9.5t63-26.5v4q0 14 11 21t33 7 32.5-6.5 10.5-20.5v-389q0-14 3.5-23t10-13 14.5-4q10 0 16.5 3t13 9.5 15.5 16.5q6 7 15 5.5t19-8.5q10-9 12.5-19.5t-2.5-19.5q-11-19-27.5-33t-36.5-22-42-8q-23 0-40 5.5t-29.5 17-18.5 28-9 37.5q0 5-0.5 12t-0.5 15q-22-43-49-68t-56.5-36-59.5-11zm-99 252q0-52 12-91t37-60 63-21q31 0 59 17t52 51.5 41 85.5v192q-31 18-59.5 24.5t-58.5 6.5q-27 0-49.5-8t-40.5-24.5-30.5-41-19-57-6.5-74.5z"/><path transform="translate(22.694 17.85) scale(.014 -.014)" d="m494 22q16 10 32 19t30.5 17 27.5 14 22 11q17 7 27.5 0.5t15-19.5 0.5-27-19-21q-14-7-30.5-16.5t-34-19.5-35.5-20.5-36-20.5zm-173-416q-43 0-75.5 15t-50 42.5-17.5 64.5q0 26 9.5 51.5t30 51 51.5 51.5 74 53q23 14 45.5 28.5t45.5 28.5v113q-14-31-33.5-54t-42-38-47.5-22.5-52-7.5q-52 0-89 19t-56.5 58.5-19.5 100.5v328q0 13 10.5 19.5t31.5 6.5q22 0 33-6.5t11-19.5v-326q0-34 10-57t30-34.5 51-11.5q30 0 55.5 13t46 36.5 36 55.5 25.5 70v254q0 13 10.5 19.5t32.5 6.5q21 0 32-6.5t11-19.5v-618q0-63-14-112.5t-40-83-63-51.5-82-18zm5 78q26 0 46 12t34 36 21 60 7 83v32q-19-11-38-23t-39-24q-22-15-39-30t-28.5-30.5-17-31-5.5-31.5 6.5-28 19.5-18.5 33-6.5z"/><path transform="translate(31.654 17.85) scale(.014 -.014)" d="m229-15q-22 0-32 7t-15 19l-157 454q-7 20 4.5 35t39.5 15q15 0 24-6t13-20l124-380 132 380q5 14 14.5 20t25.5 6q15 0 25-6t14-20l135-380 123 380q5 14 14 20t24 6q29 0 40-14t3-36l-159-454q-4-12-14-19t-32-7-30.5 7.5-12.5 18.5l-130 367-127-367q-4-11-14.5-18.5t-31.5-7.5z"/><path transform="translate(42.91 17.85) scale(.014 -.014)" d="m136-15q-21 0-31.5 6.5t-10.5 19.5v478q0 13 10.5 19.5t31.5 6.5q22 0 33-6.5t11-19.5v-90q16 30 35 52.5t40 37.5 42.5 22.5 43.5 7.5q24 0 46.5-7.5t33.5-17.5q10-8 11.5-18t-8.5-28q-8-15-19-19.5t-25 0.5q-12 4-24 7t-28 3q-21 0-42.5-11t-41-33-36-54-28.5-72v-258q0-13-11-19.5t-33-6.5z"/><path transform="translate(49.266 17.85) scale(.014 -.014)" d="m192-17q-51 0-74.5 27t-23.5 78v401q0 13 10.5 19.5t31.5 6.5q22 0 33-6.5t11-19.5v-390q0-22 8-31t21-9q10 0 17 4t13.5 10.5 14.5 15.5q5 6 15.5 3.5t17.5-9.5q10-8 12-18t-3-18q-11-20-27.5-34t-36-22-40.5-8zm-56 686q-28 0-42 15.5t-14 46.5q0 32 14 48t42 16 41.5-16 13.5-48q2-31-12.5-46.5t-42.5-15.5z"/><path transform="translate(53.466 17.85) scale(.014 -.014)" d="m239-17q-40 0-67 15.5t-40.5 44.5-13.5 70v307h-77q-15 0-21.5 9t-6.5 31q0 23 6.5 31.5t21.5 8.5h77v204q0 13 10.5 19.5t32.5 6.5 33-6.5 11-19.5v-204h126q15 0 21.5-8.5t6.5-31.5q0-22-6.5-31t-21.5-9h-126v-298q0-34 9.5-48.5t32.5-14.5q22 0 39 12t35 33q10 11 20 9t20-10q13-9 14.5-19.5t-3.5-19.5q-16-29-37.5-47t-45.5-26-50-8z"/><path transform="translate(58.898 17.85) scale(.014 -.014)" d="m288-19q-75 0-125 33t-75 88.5-25 124.5q0 65 18.5 118.5t52 92.5 80.5 60 104 21q47 0 83-14.5t56.5-43.5 20.5-74q0-38-17-69t-47.5-55-72-41-92-26.5-106.5-13.5l-1 70q33 2 68 8t67 16.5 57 25.5 39.5 34.5 14.5 43.5q0 32-21.5 45.5t-56.5 13.5q-33 0-61.5-13.5t-50.5-39.5-34.5-62-12.5-81q0-56 17-96.5t48.5-63 75.5-22.5q31 0 53 9t40.5 26 39.5 39q14 15 26.5 14.5t26.5-11.5 17-23-6-25q-26-39-60-63t-70-35-71-11z"/><path transform="translate(70.462 17.85) scale(.014 -.014)" d="m48 0q-15 0-21.5 9t-6.5 31q0 23 6.5 31.5t21.5 8.5h96v715h-96q-15 0-21.5 9t-6.5 31q0 23 6.5 31.5t21.5 8.5h280q15 0 21-8.5t6-31.5q0-22-6-31t-21-9h-97v-715h97q15 0 21-8.5t6-31.5q0-22-6-31t-21-9z"/><path transform="translate(75.712 17.85) scale(.014 -.014)" d="m345-15q-44 0-44 28v782h-258q-15 0-21.5 9t-6.5 31q0 23 6.5 31.5t21.5 8.5h605q15 0 21-8.5t6-31.5q0-22-6-31t-21-9h-259v-782q0-14-11-21t-33-7z"/><path transform="translate(89.572 17.85) scale(.014 -.014)" d="m71-14q-28 0-36 8.5t-2 36.5l160 819q5 23 18 31.5t38 8.5q23 0 35.5-8.5t19.5-31.5l247-722 245 722q8 23 20 31.5t37 8.5q23 0 36.5-8.5t18.5-31.5l160-819q5-28-3-36.5t-36-8.5q-19 0-31 5.5t-17 31.5l-136 715-244-715q-6-20-17.5-28.5t-33.5-8.5-34 8.5-18 28.5l-244 707-136-707q-5-26-16.5-31.5t-30.5-5.5z"/><path transform="translate(104.97 17.85) scale(.014 -.014)" d="m295-19q-67 0-119.5 34t-82.5 94.5-30 140.5q0 59 17 108t48.5 85 73.5 56 93 20q67 0 119-34.5t82-95 30-138.5q0-47-11-88t-31.5-74.5-49-57.5-64-37-75.5-13zm0 80q33 0 59 13.5t45 38.5 29 60 10 78q0 57-17.5 99.5t-49.5 65.5-76 23q-32 0-59-13t-46-38.5-29-60-10-77.5q0-57 18-99.5t50-66 76-23.5z"/><path transform="translate(113.2 17.85) scale(.014 -.014)" d="m251-17q-56 0-98 28t-66 83-24 138q0 52 10 96.5t28.5 80 46 60 63.5 37.5 79 13q31 0 64.5-8.5t63.5-25.5v379q0 13 11 19.5t32 6.5q22 0 32.5-6.5t10.5-19.5v-765q0-22 7.5-31t21.5-9q8 0 15.5 3.5t14.5 10 15 16.5q7 6 16 3.5t18-9.5q10-8 12.5-18t-3.5-18q-11-20-27.5-34t-36.5-22-42-8q-36 0-57 14t-30 36-9 48q0 5 0 9.5t0 9.5q-24-45-51.5-70.5t-57.5-36-59-10.5zm-100 252q0-51 12-90t37-60.5 63-21.5q32 0 60 16t52.5 50.5 42.5 91.5v184q-31 20-61 27.5t-60 7.5q-27 0-49.5-8t-40.5-24.5-30.5-41-19-57-6.5-74.5z"/><path transform="translate(122.04 17.85) scale(.014 -.014)" d="m288-19q-75 0-125 33t-75 88.5-25 124.5q0 65 18.5 118.5t52 92.5 80.5 60 104 21q47 0 83-14.5t56.5-43.5 20.5-74q0-38-17-69t-47.5-55-72-41-92-26.5-106.5-13.5l-1 70q33 2 68 8t67 16.5 57 25.5 39.5 34.5 14.5 43.5q0 32-21.5 45.5t-56.5 13.5q-33 0-61.5-13.5t-50.5-39.5-34.5-62-12.5-81q0-56 17-96.5t48.5-63 75.5-22.5q31 0 53 9t40.5 26 39.5 39q14 15 26.5 14.5t26.5-11.5 17-23-6-25q-26-39-60-63t-70-35-71-11z"/><path transform="translate(129.4 17.85) scale(.014 -.014)" d="m136-15q-21 0-31.5 6.5t-10.5 19.5v478q0 13 10.5 19.5t31.5 6.5q22 0 33-6.5t11-19.5v-90q16 30 35 52.5t40 37.5 42.5 22.5 43.5 7.5q24 0 46.5-7.5t33.5-17.5q10-8 11.5-18t-8.5-28q-8-15-19-19.5t-25 0.5q-12 4-24 7t-28 3q-21 0-42.5-11t-41-33-36-54-28.5-72v-258q0-13-11-19.5t-33-6.5z"/><path transform="translate(135.76 17.85) scale(.014 -.014)" d="m537-17q-26 0-44.5 7t-30.5 20-17.5 33-5.5 45v246q0 34-9.5 57.5t-29.5 35.5-54 12q-25 0-49-10.5t-46-31.5-40-54-31-78v-254q0-13-11-19.5t-33-6.5q-21 0-31.5 6.5t-10.5 19.5v478q0 13 10.5 19.5t31.5 6.5q22 0 33-6.5t11-19.5v-91q16 30 35.5 53t43 38 48 22.5 51.5 7.5q49 0 86.5-17.5t59-56 21.5-102.5v-244q0-14 3.5-23t10-13 15.5-4 16 3.5 14 10.5 15 15q7 7 16.5 4.5t18.5-9.5q9-9 11-18.5t-4-18.5q-11-20-27.5-34t-36-21.5-40.5-7.5z"/><path transform="translate(144.8 17.85) scale(.014 -.014)" d="m250-17q-55 0-97.5 28t-66 83-23.5 138q0 52 9.5 96.5t28.5 80 46 60 62 37.5 78 13q32 0 65-9.5t63-26.5v4q0 14 11 21t33 7 32.5-6.5 10.5-20.5v-389q0-14 3.5-23t10-13 14.5-4q10 0 16.5 3t13 9.5 15.5 16.5q6 7 15 5.5t19-8.5q10-9 12.5-19.5t-2.5-19.5q-11-19-27.5-33t-36.5-22-42-8q-23 0-40 5.5t-29.5 17-18.5 28-9 37.5q0 5-0.5 12t-0.5 15q-22-43-49-68t-56.5-36-59.5-11zm-99 252q0-52 12-91t37-60 63-21q31 0 59 17t52 51.5 41 85.5v192q-31 18-59.5 24.5t-58.5 6.5q-27 0-49.5-8t-40.5-24.5-30.5-41-19-57-6.5-74.5z"/></svg>