<svg width="243.41" height="30.912" viewBox="0 0 243.41 30.912" xmlns="http://www.w3.org/2000/svg"><path transform="translate(0 22.848) scale(.016 -.016)" d="m187-14q-27 0-27 19v974q0 10 7 14.5t21 4.5h212q106 0 178.5-25t109.5-80 37-145q0-75-26.5-131t-74.5-95-112.5-62.5-139.5-32.5q-41-5-81-8t-76-5v-409q0-10-6.5-14.5t-21.5-4.5zm28 478q24 1 50.5 2.5t53.5 4.5 52 6q87 10 154 42t105 88.5 38 139.5q0 73-30.5 117t-90 64-147.5 20h-185zm-215-954h777v-10h-777zm0 510h777v-20h-777zm0 485h777v-5h-777zm0 505h777v-10h-777z"/><path transform="translate(12.432 22.848) scale(.016 -.016)" d="m189-17q-39 0-60 24.5t-21 73.5v915q0 10 6 14.5t19 4.5q14 0 20.5-4.5t6.5-14.5v-903q0-30 9-46t30-16q11 0 21 4t20 13.5 20 23.5q6 7 12.5 7t13.5-6q6-5 8.5-11.5t-1.5-12.5q-11-21-28-35.5t-36.5-22.5-39.5-8zm-189-473h299v-10h-299zm0 510h299v-20h-299zm0 485h299v-5h-299zm0 505h299v-10h-299z"/><path transform="translate(17.216 22.848) scale(.016 -.016)" d="m255-17q-54 0-96 29t-65.5 85-23.5 137q0 51 9.5 94.5t28 78.5 46.5 60 64.5 38.5 81.5 13.5q34 0 66.5-10t65.5-29v16q0 10 7 14.5t20 4.5q14 0 20-4.5t6-14.5v-404q0-21 4-34.5t13-20.5 23-7q11 0 21 4.5t19.5 14.5 19.5 24q5 7 11.5 6.5t13.5-6.5q8-5 9.5-12t-2.5-13q-11-20-27-34.5t-35-22.5-38-8q-20 0-35.5 5.5t-26 17-16 28.5-6.5 38q0 12-0.5 25t-0.5 25q-22-53-51.5-83.5t-62-43-63.5-12.5zm-129 254q0-59 15-105t45.5-72.5 76.5-26.5q35 0 67.5 19.5t59.5 64 42 117.5v196q-35 23-67 31.5t-64 8.5-59.5-10-49-29-36.5-47-22.5-64.5-7.5-82.5zm-126-727h622v-10h-622zm0 510h622v-20h-622zm0 485h622v-5h-622zm0 505h622v-10h-622z"/><path transform="translate(27.168 22.848) scale(.016 -.016)" d="m260-18q-44 0-79 18t-54.5 57.5-19.5 103.5v335q0 10 6.5 14t19.5 4 20-4 7-14v-329q0-44 11-74.5t34.5-46.5 60.5-16q31 0 59.5 12.5t53 38.5 43.5 68 29 101v246q0 10 6.5 14.5t20.5 4.5q13 0 19.5-4.5t6.5-14.5v-781q0-77-24-129.5t-68.5-78.5-107.5-26q-44 0-79 12t-61.5 34-45.5 51q-7 9-5 18t14 16q10 7 17.5 5.5t14.5-10.5q27-38 62-57.5t89-19.5q46 0 77 20t47.5 61.5 16.5 106.5v416q-15-43-37.5-72.5t-48.5-47-53-25-52-7.5zm-260-472h628v-10h-628zm0 510h628v-20h-628zm0 485h628v-5h-628zm0 505h628v-10h-628z"/><path transform="translate(37.216 22.848) scale(.016 -.016)" d="m220-15q-14 0-20 5.5t-9 13.5l-157 480q-5 12 2 21.5t24 9.5q11 0 17-4.5t8-14.5l136-430 153 430q4 10 10.5 14.5t18.5 4.5q11 0 17-4.5t9-14.5l156-430 133 430q3 10 9 14.5t17 4.5q18 0 24.5-9t0.5-24l-156-478q-3-8-9.5-13.5t-19.5-5.5-18.5 5.5-8.5 13.5l-155 426-154-426q-2-8-8.5-13.5t-19.5-5.5zm-220-475h804v-10h-804zm0 510h804v-20h-804zm0 485h804v-5h-804zm0 505h804v-10h-804z"/><path transform="translate(50.08 22.848) scale(.016 -.016)" d="m132-15q-13 0-19 4.5t-6 14.5v492q0 10 6 14.5t19 4.5q14 0 20.5-4.5t6.5-14.5v-124q15 41 35 69.5t42.5 45.5 46.5 24.5 46 7.5q28 0 54.5-8.5t40.5-20.5q7-5 8-12t-6-18q-5-9-12.5-11.5t-15.5 0.5q-13 6-33 13t-43 7q-26 0-50.5-12t-46.5-38-38.5-67-27.5-100v-248q0-10-6.5-14.5t-20.5-4.5zm-132-475h454v-10h-454zm0 510h454v-20h-454zm0 485h454v-5h-454zm0 505h454v-10h-454z"/><path transform="translate(57.344 22.848) scale(.016 -.016)" d="m189-17q-40 0-61 24.5t-21 73.5v415q0 10 6 14.5t19 4.5q14 0 20.5-4.5t6.5-14.5v-403q0-30 9-46t31-16q11 0 21 4.5t20 13.5 20 24q5 6 12 6t13-6q7-5 9-11.5t-2-13.5q-12-20-28.5-34.5t-35.5-22.5-39-8zm-57 700q-22 0-32.5 12t-10.5 37 10.5 37.5 32.5 12.5 33-12.5 11-37.5-11-37-33-12zm-132-1173h300v-10h-300zm0 510h300v-20h-300zm0 485h300v-5h-300zm0 505h300v-10h-300z"/><path transform="translate(62.144 22.848) scale(.016 -.016)" d="m238-17q-34 0-56.5 14t-33.5 41.5-11 67.5v346h-88q-10 0-14.5 6t-4.5 18q0 13 4.5 18.5t14.5 5.5h88v211q0 10 6.5 14.5t19.5 4.5 20-4.5 7-14.5v-211h140q10 0 14.5-5.5t4.5-18.5q0-12-4.5-18t-14.5-6h-140v-335q0-41 11-63.5t44-22.5q25 0 43.5 15.5t35.5 42.5q7 8 14 7.5t15-5.5q8-6 10.5-13.5t-1.5-14.5q-14-25-33-43t-42-27.5-49-9.5zm-238-473h388v-10h-388zm0 510h388v-20h-388zm0 485h388v-5h-388zm0 505h388v-10h-388z"/><path transform="translate(68.352 22.848) scale(.016 -.016)" d="m287-18q-72 0-120 32.5t-72 88-24 125.5q0 65 17 118.5t48.5 92 76 59.5 99.5 21q53 0 87-17t50.5-45 16.5-63q0-38-18-68.5t-50-54-75.5-40-95.5-25.5-107-12l-1 46q42 1 84 8t79 19 66 30 45.5 41.5 16.5 52.5q0 39-27 59t-76 20q-35 0-67.5-14t-58-43-40.5-72-15-103q0-71 22.5-117t59.5-68 82-22q40 0 67 13t46.5 32 35.5 39q8 8 16 7.5t16-6.5 11-14-3-16q-18-26-45.5-50t-64-39-82.5-15zm-287-472h526v-10h-526zm0 510h526v-20h-526zm0 485h526v-5h-526zm0 505h526v-10h-526z"/><path transform="translate(81.568 22.848) scale(.016 -.016)" d="m187-14q-27 0-27 19v991q0 10 6.5 14.5t20.5 4.5q12 0 18-3.5t12-12.5l554-898v895q0 10 6.5 14.5t20.5 4.5q28 0 28-19v-991q0-10-7-14.5t-20-4.5q-11 0-17 3.5t-12 12.5l-555 902v-899q0-10-6.5-14.5t-21.5-4.5zm-187-476h985v-10h-985zm0 510h985v-20h-985zm0 485h985v-5h-985zm0 505h985v-10h-985z"/><path transform="translate(97.328 22.848) scale(.016 -.016)" d="m443-17q-77 0-139.5 33.5t-108 97-70 153-24.5 201.5q0 80 14 152t40 133 63.5 109.5 85 82.5 103 52 118.5 18q60 0 112-14t97.5-42.5 83.5-71.5q9-9 9-17t-11-17q-9-9-17-8t-18 10q-37 36-76.5 60t-84.5 35.5-95 11.5q-55 0-103-16t-89-47-73-74.5-54.5-98.5-34.5-120-12-138q0-99 21-179t59-136.5 91-86.5 117-30q67 0 124 36.5t102.5 101 77 150 48.5 183.5q0 11 6.5 15t20.5 4q28 0 28-19v-501q0-10-6.5-14.5t-20.5-4.5q-28 0-28 19v332q-24-80-59-145.5t-81-112-100-72-116-25.5zm-443-473h971v-10h-971zm0 510h971v-20h-971zm0 485h971v-5h-971zm0 505h971v-10h-971z"/><path transform="translate(117.66 22.848) scale(.016 -.016)" d="m187-14q-27 0-27 19v991q0 10 7 14.5t21 4.5 20-4 11-13l364-646 363 646q5 9 11 13t21 4q27 0 27-19v-991q0-10-6.5-14.5t-20.5-4.5q-27 0-27 19v896l-337-596q-6-10-12.5-13.5t-18.5-3.5-18.5 3-13.5 14l-336 596v-896q0-10-6.5-14.5t-21.5-4.5zm-187-476h1165v-10h-1165zm0 510h1165v-20h-1165zm0 485h1165v-5h-1165zm0 505h1165v-10h-1165z"/><path transform="translate(136.3 22.848) scale(.016 -.016)" d="m295-19q-68 0-118.5 34t-78 94.5-27.5 140.5q0 60 16.5 109t47 85 71 55.5 89.5 19.5q66 0 116-34t78.5-94.5 28.5-140.5q0-47-10.5-88.5t-29.5-74.5-46-57-61.5-36.5-75.5-12.5zm0 50q39 0 69.5 15.5t52.5 45 34 70 12 88.5q0 65-20.5 114.5t-58 77-89.5 27.5q-39 0-70-15.5t-53-45-34-69.5-12-89q0-64 20.5-113.5t58.5-77.5 90-28zm-295-521h588v-10h-588zm0 510h588v-20h-588zm0 485h588v-5h-588zm0 505h588v-10h-588z"/><path transform="translate(145.71 22.848) scale(.016 -.016)" d="m256-17q-54 0-95.5 29t-65.5 85-24 137q0 51 9.5 94.5t28.5 78.5 47 60 64.5 38.5 82.5 13.5q33 0 65.5-9.5t66.5-29.5v516q0 10 6.5 14.5t19.5 4.5q14 0 20-4.5t6-14.5v-904q0-31 9.5-46.5t30.5-15.5q11 0 21 4.5t20 14.5 20 25q5 6 11.5 5.5t13.5-6.5q7-5 9-12t-2-13q-12-20-28-34.5t-35-22.5-38-8q-28 0-47 11.5t-28 32-9 49.5q0 12 0 24t0 23q-23-54-53-84.5t-62-43-64-12.5zm-129 254q0-59 15-105t45.5-72.5 77.5-26.5q35 0 67.5 19.5t59.5 63.5 43 119v193q-36 25-68.5 33.5t-64.5 8.5-59.5-10-48.5-29-36.5-47-23-64.5-7.5-82.5zm-127-727h629v-10h-629zm0 510h629v-20h-629zm0 485h629v-5h-629zm0 505h629v-10h-629z"/><path transform="translate(155.78 22.848) scale(.016 -.016)" d="m287-18q-72 0-120 32.5t-72 88-24 125.5q0 65 17 118.5t48.5 92 76 59.5 99.5 21q53 0 87-17t50.5-45 16.5-63q0-38-18-68.5t-50-54-75.5-40-95.5-25.5-107-12l-1 46q42 1 84 8t79 19 66 30 45.5 41.5 16.5 52.5q0 39-27 59t-76 20q-35 0-67.5-14t-58-43-40.5-72-15-103q0-71 22.5-117t59.5-68 82-22q40 0 67 13t46.5 32 35.5 39q8 8 16 7.5t16-6.5 11-14-3-16q-18-26-45.5-50t-64-39-82.5-15zm-287-472h526v-10h-526zm0 510h526v-20h-526zm0 485h526v-5h-526zm0 505h526v-10h-526z"/><path transform="translate(164.19 22.848) scale(.016 -.016)" d="m132-15q-13 0-19 4.5t-6 14.5v492q0 10 6 14.5t19 4.5q14 0 20.5-4.5t6.5-14.5v-124q15 41 35 69.5t42.5 45.5 46.5 24.5 46 7.5q28 0 54.5-8.5t40.5-20.5q7-5 8-12t-6-18q-5-9-12.5-11.5t-15.5 0.5q-13 6-33 13t-43 7q-26 0-50.5-12t-46.5-38-38.5-67-27.5-100v-248q0-10-6.5-14.5t-20.5-4.5zm-132-475h454v-10h-454zm0 510h454v-20h-454zm0 485h454v-5h-454zm0 505h454v-10h-454z"/><path transform="translate(171.46 22.848) scale(.016 -.016)" d="m539-17q-19 0-34.5 6t-26.5 18.5-16 30.5-5 43v251q0 44-11 74.5t-35 46.5-64 16q-29 0-57.5-11t-54-36-45-66.5-31.5-102.5v-249q0-10-6.5-14.5t-20.5-4.5q-13 0-19 4.5t-6 14.5v492q0 10 6 14.5t19 4.5q14 0 20.5-4.5t6.5-14.5v-128q17 43 39.5 72t48.5 46.5 53 25 53 7.5q45 0 80.5-18t56-57 20.5-103v-248q0-20 4-33.5t12.5-21 22.5-7.5q11 0 21 4t20 13.5 20 23.5q6 7 12.5 7t13.5-6 8.5-12.5-2.5-12.5q-11-20-28-35t-36-22.5-39-7.5zm-539-473h646v-10h-646zm0 510h646v-20h-646zm0 485h646v-5h-646zm0 505h646v-10h-646z"/><path transform="translate(186.59 22.848) scale(.016 -.016)" d="m443-17q-77 0-139.5 33.5t-108 97-70 153-24.5 201.5q0 80 14 152t40 133 63.5 109.5 85 82.5 103 52 118.5 18q60 0 112-14t97.5-42.5 83.5-71.5q9-9 9-17t-11-17q-9-9-17-8t-18 10q-37 36-76.5 60t-84.5 35.5-95 11.5q-55 0-103-16t-89-47-73-74.5-54.5-98.5-34.5-120-12-138q0-99 21-179t59-136.5 91-86.5 117-30q67 0 124 36.5t102.5 101 77 150 48.5 183.5q0 11 6.5 15t20.5 4q28 0 28-19v-501q0-10-6.5-14.5t-20.5-4.5q-28 0-28 19v332q-24-80-59-145.5t-81-112-100-72-116-25.5zm-443-473h971v-10h-971zm0 510h971v-20h-971zm0 485h971v-5h-971zm0 505h971v-10h-971z"/><path transform="translate(202.13 22.848) scale(.016 -.016)" d="m260-18q-44 0-79 18t-54.5 57.5-19.5 103.5v335q0 10 6 14t19 4q14 0 20.5-4t6.5-14v-329q0-44 11.5-74.5t35-46.5 60.5-16q30 0 58.5 12.5t53.5 38 44 67.5 29 100v249q0 9 6.5 13.5t20.5 4.5q13 0 19.5-4.5t6.5-13.5v-405q0-20 4-34t12.5-21 22.5-7q11 0 21 4.5t20.5 13.5 20.5 23q5 7 11.5 7t14.5-6q6-5 7.5-11.5t-2.5-12.5q-11-20-27.5-35t-35.5-23-39-8-34.5 6-25.5 18-16.5 29.5-5.5 40.5l-1 57q-15-43-37.5-72.5t-48.5-46.5-53-24.5-52-7.5zm-260-472h646v-10h-646zm0 510h646v-20h-646zm0 485h646v-5h-646zm0 505h646v-10h-646z"/><path transform="translate(212.46 22.848) scale(.016 -.016)" d="m189-17q-40 0-61 24.5t-21 73.5v415q0 10 6 14.5t19 4.5q14 0 20.5-4.5t6.5-14.5v-403q0-30 9-46t31-16q11 0 21 4.5t20 13.5 20 24q5 6 12 6t13-6q7-5 9-11.5t-2-13.5q-12-20-28.5-34.5t-35.5-22.5-39-8zm-57 700q-22 0-32.5 12t-10.5 37 10.5 37.5 32.5 12.5 33-12.5 11-37.5-11-37-33-12zm-132-1173h300v-10h-300zm0 510h300v-20h-300zm0 485h300v-5h-300zm0 505h300v-10h-300z"/><path transform="translate(217.26 22.848) scale(.016 -.016)" d="m256-17q-54 0-95.5 29t-65.5 85-24 137q0 51 9.5 94.5t28.5 78.5 47 60 64.5 38.5 82.5 13.5q33 0 65.5-9.5t66.5-29.5v516q0 10 6.5 14.5t19.5 4.5q14 0 20-4.5t6-14.5v-904q0-31 9.5-46.5t30.5-15.5q11 0 21 4.5t20 14.5 20 25q5 6 11.5 5.5t13.5-6.5q7-5 9-12t-2-13q-12-20-28-34.5t-35-22.5-38-8q-28 0-47 11.5t-28 32-9 49.5q0 12 0 24t0 23q-23-54-53-84.5t-62-43-64-12.5zm-129 254q0-59 15-105t45.5-72.5 77.5-26.5q35 0 67.5 19.5t59.5 63.5 43 119v193q-36 25-68.5 33.5t-64.5 8.5-59.5-10-48.5-29-36.5-47-23-64.5-7.5-82.5zm-127-727h629v-10h-629zm0 510h629v-20h-629zm0 485h629v-5h-629zm0 505h629v-10h-629z"/><path transform="translate(227.33 22.848) scale(.016 -.016)" d="m287-18q-72 0-120 32.5t-72 88-24 125.5q0 65 17 118.5t48.5 92 76 59.5 99.5 21q53 0 87-17t50.5-45 16.5-63q0-38-18-68.5t-50-54-75.5-40-95.5-25.5-107-12l-1 46q42 1 84 8t79 19 66 30 45.5 41.5 16.5 52.5q0 39-27 59t-76 20q-35 0-67.5-14t-58-43-40.5-72-15-103q0-71 22.5-117t59.5-68 82-22q40 0 67 13t46.5 32 35.5 39q8 8 16 7.5t16-6.5 11-14-3-16q-18-26-45.5-50t-64-39-82.5-15zm-287-472h526v-10h-526zm0 510h526v-20h-526zm0 485h526v-5h-526zm0 505h526v-10h-526z"/><path transform="translate(235.74 22.848) scale(.016 -.016)" d="m251-19q-47 0-83.5 12.5t-62.5 29.5-39 32q-7 8-6 15.5t10 16.5q8 9 15 9.5t15-7.5q31-27 69-45t84-18q35 0 60 13.5t39 37 14 53.5q0 35-20 55t-51 32-65.5 23-66 26.5-51 43-19.5 72.5q0 39 19.5 70t56 49 86.5 18q37 0 68-10t54-25.5 37-32.5q7-7 5-14.5t-9-14.5-15-7-16 7q-31 25-59.5 38t-66.5 13q-52 0-79.5-23.5t-27.5-63.5q0-35 19.5-55t51-32 66.5-23.5 66.5-27 51-42 19.5-71.5q0-38-18-73.5t-55-58-96-22.5zm-251-471h479v-10h-479zm0 510h479v-20h-479zm0 485h479v-5h-479zm0 505h479v-10h-479z"/></svg>