<svg width="148.54" height="26.4" viewBox="0 0 148.54 26.4" xmlns="http://www.w3.org/2000/svg"><path transform="translate(0 20.4) scale(.016 -.016)" d="m129-14q-46 0-41 29l134 833q3 14 14.5 20.5t33.5 6.5h173q96 0 160.5-22t97.5-67.5 33-117.5q0-77-29.5-132t-80-91-115.5-58-136-32q-37-4-75-6.5t-69-2.5l-53-332q-3-14-13.5-21t-33.5-7zm113 439q21 0 45.5 1t49.5 3.5 49 5.5q75 13 133 39.5t91.5 72.5 33.5 115q0 48-22.5 77t-68.5 42.5-117 13.5h-134z"/><path transform="translate(11.2 20.4) scale(.016 -.016)" d="m97-15q-18 0-30 7t-9 23l138 846q4 17 13.5 23t29.5 6q27 0 37-8t6-24l-139-847q-2-13-12.5-19.5t-33.5-6.5z"/><path transform="translate(15.68 20.4) scale(.016 -.016)" d="m329 519q54 0 105-14.5t87-36.5q12-8 10-23l-73-434q-2-13-12.5-19.5t-33.5-6.5q-18 0-30 7t-9 23l22 146q-30-58-64.5-97.5t-70.5-60-73-20.5q-42 0-73 23.5t-48 66.5-17 104q0 49 12 98t35 93 57 78 78 53.5 98 19.5zm0-78q-36 0-66-14.5t-53-40-39-58-24-69.5-8-74q0-35 7-63t23-43.5 40-15.5q36 0 75 38t77.5 108 71.5 169l6 37q-32 15-59.5 20.5t-50.5 5.5z"/><path transform="translate(25.168 20.4) scale(.016 -.016)" d="m68-393q-15-2-20.5 9.5t-2.5 32.5q3 19 10 27t21 9q77 11 130.5 26t88.5 43 56 76.5 34 126.5l38 232q-25-53-53.5-92t-58.5-63.5-61-37-60-12.5q-41 0-69.5 18.5t-39 58.5 0.5 103l50 322q3 17 13 23t30 6q27 0 36.5-8t6.5-24l-53-325q-5-29-3-50.5t13.5-33 37.5-11.5q35 0 70.5 28t69 79 63 120 52.5 151l3 45q3 17 13 23t31 6q26 0 36-8t6-24l-87-531q-15-94-43-155.5t-74.5-99-116-58-168.5-32.5z"/><path transform="translate(34.992 20.4) scale(.016 -.016)" d="m531-15q-20 0-34 7t-24 30-17.5 69-15.5 123l-17 167-77-183q-31-73-51.5-116t-36.5-64-32-27-37-6q-20 0-35 7t-26 29.5-19.5 67.5-17.5 122l-31 260q-2 17 7.5 30.5t37.5 13.5q19 0 27.5-7t9.5-26l27-257q5-48 9-77t7.5-43 7.5-18.5 10-4.5q5 0 11 4.5t14 18.5 21.5 43.5 34.5 79.5l108 259q8 16 19.5 22t29.5 6q16 0 27-8t12-28l29-254q5-49 9-77.5t8-42.5 8-18.5 9-4.5q6 0 11.5 4t14 18.5 21.5 43.5 34 80l108 261q7 16 18 21t26 5q28 0 37.5-15t0.5-36l-118-268q-31-73-53.5-115.5t-39.5-63-34-26.5-38-6z"/><path transform="translate(47.856 20.4) scale(.016 -.016)" d="m96-15q-18 0-30.5 7t-8.5 23l75 471q3 17 13 23t30 6q27 0 36.5-8t6.5-24l-26-165q24 51 51 89t54 63 52 37 47 12q26 0 49-12.5t35-29.5q6-9 4.5-20.5t-10.5-22.5q-11-12-21.5-16t-19.5 3q-11 8-22.5 13.5t-24.5 5.5q-25 0-57.5-27.5t-65.5-78-63.5-118.5-52.5-149l-5-56q-2-13-12.5-19.5t-33.5-6.5z"/><path transform="translate(55.12 20.4) scale(.016 -.016)" d="m96-15q-19 0-31 7t-9 23l76 471q3 17 13 23t30 6q27 0 36.5-8t6.5-24l-76-472q-2-13-13-19.5t-33-6.5zm108 684q-24 0-38 14.5t-14 42.5q0 29 15.5 49t48.5 20q24 0 38-14t14-43q1-29-15.5-49t-48.5-20z"/><path transform="translate(59.328 20.4) scale(.016 -.016)" d="m142-15q-19 0-31 7t-9 23l65 405h-103q-13 0-18 9.5t-2 30.5q2 22 10 31t21 9h105l58 361q3 17 13 23t30 6q27 0 36.5-7.5t6.5-24.5l-56-358h101q13 0 18.5-9t2.5-31q-3-20-11-30t-21-10h-103l-67-409q-2-13-13-19.5t-33-6.5z"/><path transform="translate(65.184 20.4) scale(.016 -.016)" d="m246-19q-61 0-103.5 27t-64.5 75.5-22 110.5q0 59 19.5 117t56 105 90 75 121.5 28q45 0 78-14.5t51-41.5 18-67-22.5-73-60-59-86.5-45.5-102-33-105-22.5l2 70q34 6 73 15.5t76 22.5 67.5 30 48.5 38.5 18 47.5q0 29-19.5 41t-48.5 12q-41 0-75.5-20t-59-54-38-76-13.5-86q0-45 12.5-77t37.5-49 62-17q35 0 61 13.5t47.5 35 41.5 46.5q12 14 26.5 11.5t26.5-13.5 14.5-22-7.5-25q-34-46-69.5-73.5t-73-40-78.5-12.5z"/><path transform="translate(78.4 20.4) scale(.016 -.016)" d="m127-14q-44 0-40 28l138 849q2 14 14 20.5t34 6.5q18 0 28-6.5t18-20.5l341-698 115 698q2 14 14 20.5t34 6.5q45 0 39-27l-137-849q-2-14-14-21t-33-7q-16 0-24.5 5t-16.5 23l-346 709-116-709q-2-14-14-21t-34-7z"/><path transform="translate(92.608 20.4) scale(.016 -.016)" d="m4 0q-12 0-20 9.5t-8.5 23.5 7.5 25l569 737h-393q-13 0-18 9.5t-3 30.5q3 22 11.5 31t21.5 9h488q19 0 26.5-20t-5.5-37l-569-738h437q13 0 18-9t3-31q-3-20-11-30t-21-10z"/><path transform="translate(107.22 20.4) scale(.016 -.016)" d="m129 0q-45 0-40 28l134 820q4 27 49 27h192q74 0 129.5-16.5t86.5-56 31-106.5q0-49-22.5-89t-58.5-69-78.5-47.5-83.5-24.5l-1-4q43-2 82-14t69.5-34 48-55 17.5-78q0-55-17.5-100t-50-79-78-56.5-100.5-34-118-11.5zm57 80h136q61 0 111 13t85.5 38.5 55 62 19.5 84.5q0 34-14 60.5t-40.5 45.5-65 29-89.5 10h-143zm69 423h130q45 0 86.5 13.5t74.5 38 52 58 19 74.5q0 42-19 65.5t-56 33-91 9.5h-149z"/><path transform="translate(118.82 20.4) scale(.016 -.016)" d="m329 519q54 0 105-14.5t87-36.5q12-8 10-23l-73-434q-2-13-12.5-19.5t-33.5-6.5q-18 0-30 7t-9 23l22 146q-30-58-64.5-97.5t-70.5-60-73-20.5q-42 0-73 23.5t-48 66.5-17 104q0 49 12 98t35 93 57 78 78 53.5 98 19.5zm0-78q-36 0-66-14.5t-53-40-39-58-24-69.5-8-74q0-35 7-63t23-43.5 40-15.5q36 0 75 38t77.5 108 71.5 169l6 37q-32 15-59.5 20.5t-50.5 5.5z"/><path transform="translate(128.3 20.4) scale(.016 -.016)" d="m227-19q-43 0-81 14.5t-66.5 36-44.5 45.5q-7 10-6 22t14 22q13 9 23.5 11t19.5-10q27-31 63.5-51.5t76.5-20.5q32 0 54.5 8.5t35 26.5 12.5 44q0 27-16.5 45t-42.5 31.5-55.5 27-55.5 31.5-42.5 45-16.5 67q0 39 19 71t58 52 96 20q40 0 72-12t55-30 35-37q8-12 8.5-21t-15.5-21q-13-10-22.5-9.5t-20.5 9.5q-24 23-50.5 37.5t-64.5 14.5q-39 0-61.5-16.5t-22.5-49.5q0-25 16.5-42.5t42.5-31 55.5-27.5 55.5-32 42.5-45 16.5-68q0-48-23.5-83.5t-65.5-54.5-98-19z"/><path transform="translate(135.97 20.4) scale(.016 -.016)" d="m96-15q-19 0-31 7t-9 23l76 471q3 17 13 23t30 6q27 0 36.5-8t6.5-24l-76-472q-2-13-13-19.5t-33-6.5zm108 684q-24 0-38 14.5t-14 42.5q0 29 15.5 49t48.5 20q24 0 38-14t14-43q1-29-15.5-49t-48.5-20z"/><path transform="translate(140.18 20.4) scale(.016 -.016)" d="m253-19q-63 0-107.5 27.5t-67 77-22.5 113.5q0 60 18 117t53 103 85.5 73 115.5 27q49 0 92.5-18.5t76.5-58.5q13-15 9.5-27t-14.5-23q-13-12-25.5-14t-25.5 11q-23 22-50 36t-68 14q-43 0-76.5-20.5t-56-54.5-34-75.5-11.5-84.5q0-45 13-76.5t39-48.5 65-18q36 0 63.5 14t50 36.5 42.5 46.5q12 15 26 12t26-14q13-11 15.5-22t-8.5-25q-33-46-69-74t-74.5-41-80.5-13z"/></svg>