<svg width="117.78" height="30.768" viewBox="0 0 117.78 30.768" xmlns="http://www.w3.org/2000/svg"><path transform="translate(0 22.768) scale(.016 -.016)" d="m465 376q-18-1-26 9.5t-5 32.5q2 19 10.5 29t22.5 11q100 8 180.5 39t138 80.5 88 111.5 30.5 131q0 53-24.5 80.5t-71.5 27.5q-41 0-86-21t-90-60.5-87.5-94-79-121-63.5-140.5l-154-477q-4-14-16-21t-35-7q-22 0-33 7t-6 23l258 791q-25-24-53-47t-58-45.5-64-46.5q-21-13-35-8.5t-25 22.5q-10 16-8 30.5t21 25.5q59 38 109.5 76t92 80 72.5 88q12 17 21.5 23t32.5 6q22 0 32.5-7t5.5-23l-52-164q46 62 97 105.5t105.5 66 108.5 22.5q55 0 94-22t60.5-61.5 21.5-94.5q0-94-39.5-174.5t-110.5-141.5-168-97.5-212-43.5z"/><path transform="translate(13.632 22.768) scale(.016 -.016)" d="m-184-17q-19 0-24.5 11.5t-1.5 26 16 26 28 11.5q23 0 59.5 18.5t82 52.5 96 79.5 102.5 99.5 101.5 113 92 120 75 121.5 51.5 115.5 19 102q0 15 12.5 22.5t29 7.5 29-7.5 12.5-22.5q0-49-20-108.5t-56.5-124-84.5-131.5-103.5-132-114.5-124.5-117-110-111-88-97.5-58-75.5-20.5zm330 2q-37 0-54 16.5t-20 41.5 3 53 13 52l210 644q38 117 83 170t109 53q32 0 56-17t37-47 13-71q0-19-12.5-28t-29-9-29 9-12.5 28q0 17-3 29t-10 19-21 7q-16 0-31-13.5t-31.5-49-37.5-100.5l-218-669q-5-18-6-27t2.5-12 8.5-3q10 0 21 6.5t23 19 26 29.5q8 10 16 11.5t19-6.5q17-10 20-20t-2-20q-9-15-29-38t-48.5-40.5-65.5-17.5z"/><path transform="translate(19.936 22.768) scale(.016 -.016)" d="m148-17q-34 0-59.5 18t-39.5 51-14 78q0 46 14 99t42 104 68.5 93 92.5 67.5 116 25.5q28 0 60-7.5t62-21.5l1 4q5 14 15 17.5t27 3.5q31 0 39.5-9.5t1.5-29.5l-125-373q-6-18-6.5-27t3.5-12 9-3q10 0 20.5 6.5t23 19 26.5 29.5q8 10 16 11.5t19-6.5q16-10 19.5-20t-1.5-20q-9-15-29-38t-48.5-40.5-65.5-17.5-54.5 16.5-20.5 41.5 2.5 53 13.5 52q2 2 2.5 4.5t1.5 5.5q-42-59-82.5-98t-78-58-71.5-19zm-22 163q0-25 6-44t17.5-29 26.5-10q35 0 80 37.5t95.5 109.5 103.5 176l11 33q-32 13-60.5 17t-51.5 4q-43 0-79-20t-63.5-52.5-46.5-72-29-78.5-10-71z"/><path transform="translate(29.888 22.768) scale(.016 -.016)" d="m430 9q26 19 52.5 36.5t50 32 41.5 24.5q16 8 25.5 2t13-19 0-26.5-14.5-20.5q-20-11-41.5-25t-44.5-29-46-32-47-33zm-294-524q-53 0-86 29.5t-33 75.5q0 36 13 70t39 68.5 65.5 71 91.5 75.5q26 19 49.5 36t47.5 33.5 50 33.5l67 211q-31-49-63.5-87t-66-64-67.5-39.5-69-13.5q-46 0-71.5 22.5t-28 67 19.5 108.5l80 237q3 10 0 17t-13 7q-9 0-21-6t-28-20.5-39-39.5q-13-14-23.5-16t-25.5 9q-19 14-16 26t11 22q23 28 46.5 50.5t52 36 65.5 13.5 54.5-13.5 22-35 0.5-45.5-11-44l-75-221q-9-25-11.5-47t7-35 36.5-13q35 0 76 30t84.5 84 85.5 127.5 78 161.5l5 15q7 20 16.5 26t28.5 6q31 0 39.5-9.5t1.5-29.5l-235-722q-23-72-48-123t-54.5-83.5-66-47.5-81.5-15zm15 77q30 0 56 20t49.5 63 44.5 112l36 111q-13-9-27.5-19t-28.5-19.5-28-20.5q-40-33-68-61t-45.5-53-26-47-8.5-43q0-13 5-22.5t16-15 25-5.5z"/><path transform="translate(40.528 22.768) scale(.016 -.016)" d="m193-19q-45 0-70 19t-33.5 52-4 74 19.5 84l69 210q3 10 0 17t-13 7q-9 0-21-6t-28-20.5-39-39.5q-13-14-23.5-16t-25.5 9q-19 14-16 26t11 22q23 28 46.5 50.5t52 36 65.5 13.5 54.5-13.5 21.5-35 0-45.5-10-44l-63-193q-10-34-14.5-63t5-46.5 39.5-17.5 61.5 22.5 60.5 59.5 54 82 42 89l55 170q5 15 13.5 23.5t31.5 8.5q33 0 38.5-9.5t0.5-28.5l-85-277q-5-15-9.5-38.5t-3-47 13-39 39.5-15.5q33 0 65.5 21.5t60.5 57.5 49.5 80 34 91 12.5 89q0 8 0 18.5t-1 22.5-3 24q-3 18 0.5 30t13 18 24.5 6q19 0 30.5-11t16.5-37q2-8 3-17.5t1-19 0-19.5q0-55-16-114.5t-45.5-116.5-70.5-103-91-73-107-27q-47 0-74 19t-37.5 49.5-9.5 65.5q-26-40-55.5-70.5t-63-47-72.5-16.5z"/><path transform="translate(54.736 22.768) scale(.016 -.016)" d="m-181-17q-19 0-25.5 11.5t-3.5 26 15 26 31 11.5q35 0 73 21t81 66 91 118 103 177l55-27q-60-121-113-203.5t-103.5-132.5-100.5-72-103-22zm561 2q-37 0-55 14.5t-22 36.5 0 46 11 43q6 17 17.5 46.5t26 65.5 28 72 22.5 66q8 30 3.5 41.5t-25.5 11.5q-23 0-49-9.5t-54-19-59-9.5q-18 0-31 15t-20.5 38.5-7.5 49.5q0 21 7 39.5t22.5 30.5 39.5 12q20 0 32-13t12-33q0-13-3.5-28.5t-10.5-31.5q10 0 36 11t60.5 22 69.5 11q31 0 49.5-15t22.5-45.5-9-79.5q-7-28-21-65t-29-76-28.5-73-20.5-55q-10-28-5-35.5t14-7.5q10 0 20.5 6.5t22 19 24.5 29.5q8 10 15.5 11.5t19.5-6.5q16-10 19.5-20t-1.5-20q-9-15-29-38t-48.5-40.5-65.5-17.5z"/><path transform="translate(63.824 22.768) scale(.016 -.016)" d="m119-15q-56 0-70 44.5t14 129.5l106 324q7 20 16.5 26t28.5 6q31 0 39.5-9.5t1.5-29.5l-122-373q-7-21-5-31.5t15-10.5q9 0 18 6t20.5 18 27.5 31q8 10 16 11.5t19-6.5q16-10 19.5-20t-2.5-20q-21-33-43.5-54.5t-47-31.5-51.5-10zm157 684q-20 0-34 13t-14 38q0 27 17.5 51t54.5 24q21 0 35-12.5t14-38.5q0-27-17.5-51t-55.5-24z"/><path transform="translate(68.624 22.768) scale(.016 -.016)" d="m154-15q-40 0-63 18.5t-27 55 14 89.5l88 272h-76q-11 0-15 10t1 30q6 20 16 30t21 10h80l65 198q6 20 15.5 26t29.5 6q31 0 39.5-9.5t1.5-29.5l-64-191h126q11 0 15.5-9.5t-1.5-30.5q-5-19-15-29.5t-21-10.5h-130l-98-295q-11-34-6.5-49t23.5-15q20 0 47.5 17.5t55.5 54.5q9 10 18.5 11t23.5-8q15-9 17-18.5t-2-17.5q-11-20-36-47t-61-47.5-82-20.5z"/><path transform="translate(74.832 22.768) scale(.016 -.016)" d="m231-17q-37 0-66 11.5t-51 31.5-36.5 47.5-22 59.5-7.5 66q0 37 8 80t25.5 85.5 45.5 77.5 67 56 91 21q30 0 55-12.5t39.5-36 14.5-56.5q0-45-28.5-94.5t-75.5-98-105-90.5q-58-43-120.5-76.5t-120-52.5-101.5-19q-14 0-21 11.5t-5.5 26 12.5 26 32 11.5q32 0 79.5 17.5t101 47.5 102.5 67q45 33 81 68t57.5 69 21.5 63q0 23-10 36t-30 13q-31 0-55-24.5t-40.5-61.5-24.5-78-8-74q0-28 7-53t21-44 35.5-30 50.5-11q31 0 60.5 13.5t57 36 51.5 48.5q12 14 28 10t26-15 11.5-23-10.5-27q-38-48-78.5-74.5t-82-37.5-82.5-11z"/><path transform="translate(86.736 22.768) scale(.016 -.016)" d="m461-19q-74 0-132 24t-99 70-62 112-21 150q0 72 17 148.5t50 152 81.5 142.5 112 119.5 141.5 82 170 29.5q64 0 113.5-13.5t87.5-40 64-65.5q9-12 4-21t-20-20q-13-10-23-10.5t-24 13.5q-35 34-86 53t-130 19q-68 0-128-24.5t-112-68-93.5-99.5-70.5-120.5-44.5-131.5-15.5-130q0-71 13.5-124.5t42-89.5 73-54 106.5-18q40 0 78 12.5t75 37 74 60 76 82.5q12 13 23.5 8.5t23.5-15.5q13-13 14.5-23.5t-9.5-25.5q-67-87-132.5-135t-126-67-111.5-19z"/><path transform="translate(100.45 22.768) scale(.016 -.016)" d="m350-17q-50 0-91.5 20t-71.5 57-46 89-16 117q0 94 24.5 185.5t68.5 175 104 153.5 131 122 150 80.5 161 28.5q49 0 92.5-10.5t79.5-30.5 63-50l21 64q5 14 16.5 20.5t32.5 6.5q23 0 34-7t5-23l-262-797q-10-31-15-53t-5-36 5-20.5 16-6.5q13 0 28 10t35.5 33.5 48.5 61.5q11 17 23 18.5t25-7.5q17-11 19.5-25.5t-7.5-28.5q-15-23-36.5-48.5t-47-48-53-36.5-57.5-14q-42 0-64.5 22.5t-23 69.5 23.5 120l47 146q-58-89-117-155.5t-117-111.5-114-68-110-23zm-133 280q0-49 11.5-85.5t32.5-61 47.5-36.5 58.5-12q46 0 96 23.5t103.5 69.5 109 113 112.5 154 113 193l69 212q-33 47-86.5 70t-133.5 23q-67 0-132.5-26.5t-125-74.5-110-111.5-87.5-137.5-57.5-153.5-20.5-159.5z"/></svg>