<svg width="134.06" height="27.048" viewBox="0 0 134.06 27.048" xmlns="http://www.w3.org/2000/svg"><path transform="translate(0 19.992) scale(.014 -.014)" d="m107-14q-48 0-39 30l309 954q5 14 17 21t34 7h176q100 0 166.5-24t100-71.5 33.5-120.5q0-84-31.5-148t-90-109-140-73.5-181.5-41.5q-43-5-90-7.5t-90-3.5l-125-385q-5-14-15.5-21t-33.5-7zm199 493q27 0 58 1.5t62 4.5 59 6q106 17 179 53t111.5 92.5 38.5 134.5q0 52-23.5 84.5t-72.5 47.5-128 15h-142z"/><path transform="translate(10.878 19.992) scale(.014 -.014)" d="m129-15q-58 0-74.5 44.5t10.5 127.5l271 826q7 20 16.5 26t28.5 6q31 0 39.5-9.5t1.5-29.5l-285-868q-7-23-4-35.5t17-12.5q11 0 21 6.5t21 18.5 23 28q8 10 16.5 12t21.5-7q16-10 18.5-20t-3.5-21q-17-29-39-50t-46.5-31.5-53.5-10.5z"/><path transform="translate(15.064 19.992) scale(.014 -.014)" d="m159-17q-37 0-64.5 18.5t-42.5 53-15 80.5 13.5 98 41 102.5 67 92 91.5 66.5 117 25q30 0 62-8.5t61-23.5l1 4q6 16 15.5 20t27.5 4q31 0 39.5-9.5t1.5-29.5l-123-369q-5-16-6-26.5t3-15.5 13-5q11 0 22 7t22.5 19 23.5 27q8 10 16.5 12t21.5-7q16-10 18.5-20t-2.5-21q-9-15-28.5-37.5t-47.5-38.5-63-16-53 14-23.5 35.5-2.5 46.5 9 48q1 2 1.5 4.5t1.5 5.5q-40-54-78.5-89t-74-51-66.5-16zm-31 167q0-27 7-46.5t20.5-30 31.5-10.5q34 0 76 32.5t87 95 92 151.5l25 76q-31 13-58 17.5t-51 4.5q-45 0-82-19.5t-64.5-52-46-71.5-28-77.5-9.5-69.5z"/><path transform="translate(23.772 19.992) scale(.014 -.014)" d="m161-15q-49 0-76.5 23t-31 67.5 16.5 106.5l100 301q7 20 16.5 26t28.5 6q31 0 39.5-9.5t1.5-29.5l-104-311q-10-29-11.5-52t10.5-36 41-13q32 0 69.5 25t76.5 70.5 76.5 107 69.5 135.5l26 81q7 20 16.5 26t28.5 6q31 0 39.5-9.5t1.5-29.5l-245-751q-30-91-63-144.5t-79-76.5-115-23q-37 0-69.5 9.5t-58 26-44.5 35.5q-14 15-18 28.5t17 29.5q18 14 29 14.5t25-14.5q23-25 54.5-38t69.5-13q44 0 73.5 16.5t51.5 53.5 42 99l139 431q-28-42-58-74.5t-61-54.5-62.5-33.5-62.5-11.5z"/><path transform="translate(32.564 19.992) scale(.014 -.014)" d="m146-15q-21 0-29 8.5t-9 29.5l-12 453q0 14 8 26.5t36 12.5q22 0 31.5-8.5t9.5-31.5l3-354 240 363q12 18 25 24.5t32 6.5q17 0 29.5-10t13.5-36l11-346 231 365q11 17 22.5 22t25.5 5q28 0 38-14t-2-33l-297-457q-7-11-22-18.5t-37-7.5-30.5 8.5-8.5 29.5l-11 355-243-367q-7-10-20-18t-35-8z"/><path transform="translate(43.82 19.992) scale(.014 -.014)" d="m56-15q-16 0-30 7t-7 26l150 465q7 20 16.5 26t28.5 6q31 0 39.5-9.5t1.5-29.5l-43-133q29 42 58.5 75t58 55.5 55.5 34 49 11.5q27 0 47-11.5t32-27.5q9-10 8-21.5t-12-24.5-21-18-19 4q-12 8-24.5 13.5t-24.5 5.5q-26 0-61.5-24t-75-68.5-77.5-105.5-70-134l-31-96q-4-13-14.5-19.5t-33.5-6.5z"/><path transform="translate(50.176 19.992) scale(.014 -.014)" d="m127-15q-59 0-75.5 44.5t10.5 127.5l107 326q7 20 16.5 26t28.5 6q31 0 39.5-9.5t1.5-29.5l-120-368q-8-23-5-35.5t17-12.5q11 0 21 6.5t21 18.5 24 28q8 10 16.5 12t21.5-7q16-10 18.5-20t-3.5-21q-18-29-39.5-50t-46.5-31.5-53-10.5zm149 684q-20 0-34 13t-14 38q0 27 17.5 51t54.5 24q21 0 35-12.5t14-38.5q0-27-17.5-51t-55.5-24z"/><path transform="translate(54.376 19.992) scale(.014 -.014)" d="m158-15q-44 0-67 20.5t-25 59 15 91.5l86 264h-77q-11 0-15 10t1 30q6 20 16 30t21 10h80l65 198q6 20 15.5 26t29.5 6q31 0 39.5-9.5t1.5-29.5l-63-191h126q11 0 15.5-9.5t-1.5-30.5q-5-19-15-29.5t-21-10.5h-130l-97-294q-11-34-6-50t24-16q24 0 50 18.5t51 50.5q8 9 17.5 11t24.5-8q15-9 17-18.5t-3-18.5q-11-20-35.5-46t-59-45-80.5-19z"/><path transform="translate(59.808 19.992) scale(.014 -.014)" d="m225-19q-59 0-98 25t-58.5 67.5-19.5 94.5q0 58 21 120t61 114 98.5 84.5 135.5 32.5q47 0 79-14.5t48.5-40.5 16.5-63q0-41-24.5-74t-65.5-59.5-94.5-45-112-30.5-117.5-18l12 71q39 4 82 12t84 20 74 29 52 38 19 47-16.5 37.5-46.5 11.5q-51 0-91.5-25.5t-68-66-42-87-14.5-88.5q0-34 11-59.5t33-39 54-13.5 58 12.5 49 33 46 44.5q13 14 28 10.5t25-14.5q11-11 13-23.5t-11-27.5q-36-43-73-68.5t-73.5-36-73.5-10.5z"/><path transform="translate(71.372 19.992) scale(.014 -.014)" d="m-15-14q-26 0-34 15.5t7 37.5l620 936q14 23 29 31.5t39 8.5q19 0 30.5-9.5t12.5-41.5l44-933q2-20-9.5-32.5t-37.5-12.5q-22 0-29 8.5t-9 28.5l-12 262h-416l-170-259q-18-26-28.5-33t-36.5-7zm290 379h358l-24 509z"/><path transform="translate(83.034 19.992) scale(.014 -.014)" d="m336-19q-66 0-111 24t-68.5 70.5-22.5 112 27 148.5l208 652q5 14 16.5 20.5t35.5 6.5q23 0 34-7t6-23l-214-660q-21-66-24-114.5t10-80.5 41.5-48 69.5-16q43 0 88.5 15.5t92 46 94.5 77 96.5 108 96.5 138.5l172 537q5 14 17.5 20.5t34.5 6.5 32.5-8 5.5-22l-312-971q-4-14-17-21t-35-7-32 8.5-6 21.5l73 226q-48-63-97.5-112t-101-82-104-50-106.5-17z"/><path transform="translate(100.98 19.992) scale(.014 -.014)" d="m298-15q-42 0-35 28l295 905h-294q-15 0-18.5 9t3.5 31q8 23 17 31.5t24 8.5h673q15 0 18.5-8.5t-4.5-31.5q-7-22-16-31t-24-9h-292l-295-905q-4-14-17-21t-35-7z"/><path transform="translate(111.71 19.992) scale(.014 -.014)" d="m-15-14q-26 0-34 15.5t7 37.5l620 936q14 23 29 31.5t39 8.5q19 0 30.5-9.5t12.5-41.5l44-933q2-20-9.5-32.5t-37.5-12.5q-22 0-29 8.5t-9 28.5l-12 262h-416l-170-259q-18-26-28.5-33t-36.5-7zm290 379h358l-24 509z"/><path transform="translate(123.37 19.992) scale(.014 -.014)" d="m343-20q-52 0-96.5 12.5t-81 34-65.5 48-51 54.5q-9 12-3.5 22.5t15.5 20.5q14 11 25 14t20-8q26-29 61-54.5t79.5-42 97.5-16.5q55 0 102.5 14t83 40.5 55 66 19.5 90.5q0 33-10.5 60t-30 50-48.5 43.5-67 41.5q-35 19-66 40t-56.5 45-44 52.5-29 63.5-10.5 78q0 58 22.5 106.5t64.5 84 100.5 55 131.5 19.5q57 0 104.5-16.5t86.5-43.5 70-58q11-10 8.5-21.5t-16.5-23.5q-11-11-22.5-13t-22.5 6q-26 22-55.5 41.5t-66.5 31.5-87 12q-48 0-89.5-11.5t-71.5-34-47-56-17-77.5q0-36 8.5-63.5t28-50.5 50.5-45 75-46q48-25 85-52.5t62.5-60 38.5-71 13-84.5q0-67-26-121t-74-94-112.5-61.5-140.5-21.5z"/></svg>