<svg width="223.62" height="30.912" viewBox="0 0 223.62 30.912" xmlns="http://www.w3.org/2000/svg"><path transform="translate(0 22.848) scale(.016 -.016)" d="m113-14q-29 0-23 20l280 973q3 10 10 14.5t22 4.5h189q93 0 155.5-21t94-66.5 31.5-120.5q0-79-29.5-141.5t-84-107-130.5-72.5-169-41q-48-5-98-8.5t-99-5.5l-118-409q-3-10-9.5-14.5t-21.5-4.5zm163 478q31 1 63 3t64.5 5 61.5 7q108 15 186.5 54t121 102 42.5 151q0 60-25 95t-75.5 51-126.5 16h-173zm-276-954h776v-10h-776zm0 510h776v-20h-776zm0 485h776v-5h-776zm0 505h776v-10h-776z"/><path transform="translate(12.416 22.848) scale(.016 -.016)" d="m118-15q-41 0-54.5 33t5.5 97l256 880q4 11 10 15.5t20 4.5q16 0 22.5-6t2.5-18l-261-890q-10-32-8.5-50t19.5-18q17 0 34 11.5t32.5 29 28.5 35.5q7 8 12.5 8.5t13.5-4.5q10-7 11.5-13.5t-2.5-12.5q-15-25-37.5-48.5t-49-38.5-55.5-15zm-118-475h299v-10h-299zm0 510h299v-20h-299zm0 485h299v-5h-299zm0 505h299v-10h-299z"/><path transform="translate(17.2 22.848) scale(.016 -.016)" d="m165-17q-35 0-62 19t-41.5 54.5-14.5 84.5q0 47 14 98.5t41 101.5 66 90 89 64 111 24q32 0 65.5-9t64.5-27l4 15q3 10 10 13.5t19 3.5q18 0 23-7t1-18l-115-396q-6-21-7-34.5t4-20.5 15-7q16 0 32.5 11.5t33 29 29.5 35.5q6 8 11.5 8.5t13.5-5.5q11-6 12-13t-3-13q-12-19-33-43t-48-41-59-17q-24 0-37.5 9t-19 25.5-4 38.5 9.5 48q8 27 15.5 55t15.5 56q-45-81-88.5-132.5t-85-76-82.5-24.5zm-61 163q0-33 8-58.5t24.5-40 41.5-14.5q39 0 87.5 40t101 120 104.5 199l13 44q-36 21-66.5 27t-57.5 6q-47 0-87-20.5t-71-55-53-77-33.5-87-11.5-83.5zm-104-636h622v-10h-622zm0 510h622v-20h-622zm0 485h622v-5h-622zm0 505h622v-10h-622z"/><path transform="translate(27.152 22.848) scale(.016 -.016)" d="m161-15q-36 0-61 18t-31.5 57 11.5 102l98 333q4 11 10 15.5t20 4.5q16 0 22.5-6t2.5-18l-98-332q-12-41-12.5-69t12.5-41.5 39-13.5q31 0 71 22.5t85 72.5 91 130 89 195l11 40q4 11 10.5 15.5t19.5 4.5q18 0 22.5-7t1.5-19l-227-785q-22-77-48.5-126.5t-65.5-73-99-23.5q-37 0-70 10.5t-61.5 30-53.5 44.5q-8 8-9.5 17t9.5 20q12 10 19 10t15-8q35-35 72.5-55t82.5-20q43 0 71 19t47 58 36 99l156 539q-37-71-75.5-121t-76.5-80.5-72.5-44.5-63.5-14zm-161-475h628v-10h-628zm0 510h628v-20h-628zm0 485h628v-5h-628zm0 505h628v-10h-628z"/><path transform="translate(37.2 22.848) scale(.016 -.016)" d="m171-19q-33 0-55.5 13.5t-34 39-11 59.5 11.5 74l95 328q3 10 9 15t21 5q17 0 21.5-6t1.5-17l-97-336q-9-35-8.5-63.5t14.5-45.5 42-17q37 0 72 25t66.5 65.5 57 89 42.5 96.5l55 188q3 10 9.5 15t19.5 5q16 0 21.5-6t2.5-17l-87-304q-9-33-12.5-61.5t1-50 19-33.5 40.5-12q32 0 65 18.5t62.5 50.5 54 71.5 42 82.5 24.5 84q4 22 6 44.5t-1 48-12 56.5q-3 11-1.5 18t8 11 15.5 4q10 0 17-6.5t12-21.5q9-23 12-48t2-50-6-49q-7-49-26-99.5t-48.5-98-66.5-84.5-80-59-90-22q-38 0-63.5 17t-35.5 51-3 85q-27-45-59.5-79.5t-68.5-54-76-19.5zm-171-471h860v-10h-860zm0 510h860v-20h-860zm0 485h860v-5h-860zm0 505h860v-10h-860z"/><path transform="translate(50.96 22.848) scale(.016 -.016)" d="m85-15q-12 0-19.5 5t-4.5 16l115 402q10 31 7.5 47t-20.5 16q-15 0-34.5-12t-41-34.5-45.5-54.5q-7-8-14-9t-16 5q-11 8-10.5 15.5t4.5 13.5q25 34 52 62.5t56.5 45 60.5 16.5q24 0 38.5-8.5t20.5-25 4.5-39-9.5-49.5l-35-125q35 73 65.5 121t57.5 75.5 50.5 39 43.5 11.5q13 0 19-5t6-19q0-36 4.5-56t13.5-27.5 23-7.5q25 0 57 11.5t87 42.5q8 4 14.5 0.5t10-10.5 2.5-15-8-12q-51-31-91.5-46t-74.5-15q-23 0-41.5 9.5t-29 33-10.5 63.5q-23-5-52-33t-62.5-78-69.5-122-74-165l-19-64q-3-10-9.5-14.5t-21.5-4.5zm-85-475h551v-10h-551zm0 510h551v-20h-551zm0 485h551v-5h-551zm0 505h551v-10h-551z"/><path transform="translate(59.776 22.848) scale(.016 -.016)" d="m117-15q-41 0-55 32t6 98l109 380q4 11 10 15.5t19 4.5q17 0 23-6t2-18l-113-390q-10-34-8.5-51t19.5-17q17 0 33.5 11.5t32 29 29.5 35.5q6 8 12 8.5t13-4.5q11-7 12-13.5t-3-12.5q-15-25-37-48.5t-48.5-38.5-55.5-15zm142 698q-18 0-29 9.5t-11 28.5q0 24 14.5 42.5t41.5 18.5q18 0 29-9.5t11-28.5q0-23-14-42t-42-19zm-259-1173h300v-10h-300zm0 510h300v-20h-300zm0 485h300v-5h-300zm0 505h300v-10h-300z"/><path transform="translate(64.576 22.848) scale(.016 -.016)" d="m156-15q-31 0-49.5 13.5t-22 44 11.5 79.5l95 330h-81q-10 0-13 6.5t1 18.5q3 12 9 17.5t16 5.5h82l60 210q4 11 10.5 15.5t20.5 4.5q16 0 22-6t3-17l-61-207h126q11 0 14-6t-1-18q-3-13-9.5-18.5t-15.5-5.5h-128l-98-335q-13-45-9.5-64.5t29.5-19.5q25 0 56 23.5t62 66.5q6 8 12.5 8.5t14.5-5.5q10-6 11-12.5t-3-12.5q-19-32-45.5-58t-57-42-62.5-16zm-156-475h388v-10h-388zm0 510h388v-20h-388zm0 485h388v-5h-388zm0 505h388v-10h-388z"/><path transform="translate(70.784 22.848) scale(.016 -.016)" d="m226-19q-54 0-91 23.5t-55.5 66.5-18.5 100q0 68 22 130.5t62.5 111.5 96 77.5 122.5 28.5q48 0 77.5-14.5t43-39 13.5-54.5q0-47-26.5-81.5t-70.5-60-97-42.5-107-28-100-18l4 46q41 5 87.5 14.5t91 23.5 81 33.5 58.5 45.5 22 60q0 33-22.5 49.5t-61.5 16.5q-54 0-98-24.5t-75.5-66.5-49-95-17.5-108q0-47 13-79.5t39.5-49.5 66.5-17q41 0 75.5 18.5t62 44 47.5 47.5q8 9 16.5 8.5t16.5-7.5q7-7 8.5-14.5t-6.5-17.5q-26-33-61.5-62t-78-47.5-90.5-18.5zm-226-471h526v-10h-526zm0 510h526v-20h-526zm0 485h526v-5h-526zm0 505h526v-10h-526z"/><path transform="translate(84 22.848) scale(.016 -.016)" d="m-14-14q-16 0-21 9t4 24l607 974q7 13 15 17.5t22 4.5q13 0 19-5.5t8-21.5l88-974q1-14-5-21t-21-7q-14 0-19.5 5.5t-7.5 18.5l-26 292h-443l-182-293q-9-14-16.5-18.5t-21.5-4.5zm251 366h408l-50 578zm-237-842h833v-10h-833zm0 510h833v-20h-833zm0 485h833v-5h-833zm0 505h833v-10h-833z"/><path transform="translate(97.328 22.848) scale(.016 -.016)" d="m338-19q-62 0-104 24.5t-63.5 69-22 107 20.5 137.5l194 677q3 10 10 14.5t22 4.5 21-4.5 3-15.5l-196-681q-19-66-20.5-117.5t13.5-87.5 46-55 78-19q52 0 105 21.5t105 62 101.5 95 94.5 120.5 84 140l149 522q3 9 10.5 14t21.5 5q15 0 21-5t3-15l-284-990q-2-9-9-14t-23-5q-14 0-20 5.5t-3 13.5l89 314q-46-73-99-135t-110.5-107.5-117.5-70.5-120-25zm-338-471h982v-10h-982zm0 510h982v-20h-982zm0 485h982v-5h-982zm0 505h982v-10h-982z"/><path transform="translate(117.84 22.848) scale(.016 -.016)" d="m669-196q-12-3-19.5 1t-11.5 16l-124 350q-5 13 0 21t18 11q12 3 19-1t11-16l125-350q5-12 0.5-20.5t-18.5-11.5zm-190 177q-75 0-135.5 25.5t-103 73.5-65.5 117-23 156q0 77 17 155.5t49.5 152.5 80 138 108 113 134 76 156.5 27q75 0 135-25t102.5-71.5 65-112.5 22.5-148q0-78-17-158t-49.5-156-80-141.5-108-115.5-133-78-155.5-28zm5 54q73 0 137 26t117 72 95 106.5 71.5 129.5 44.5 142 15 143q0 74-18.5 131.5t-54 96.5-86 59.5-114.5 20.5q-72 0-135.5-25t-117.5-69-96-102.5-71.5-126.5-45-139.5-15.5-142.5q0-77 18.5-137t54.5-101 86.5-62.5 114.5-21.5zm-484-525h1027v-10h-1027zm0 510h1027v-20h-1027zm0 485h1027v-5h-1027zm0 505h1027v-10h-1027z"/><path transform="translate(134.27 22.848) scale(.016 -.016)" d="m117 0q-29 0-22 23l280 973q3 10 9.5 14.5t21.5 4.5q14 0 20.5-4.5t2.5-15.5l-271-945h429q10 0 12.5-6t-0.5-19q-4-13-10-19t-15-6zm-117-490h694v-10h-694zm0 510h694v-20h-694zm0 485h694v-5h-694zm0 505h694v-10h-694z"/><path transform="translate(145.38 22.848) scale(.016 -.016)" d="m117 0q-28 0-23 19l276 960q3 10 10 14.5t23 4.5h195q85 0 152.5-21.5t114-63 71-102.5 24.5-140q0-117-30.5-219t-87.5-185-136-143-176-92-208-32zm42 52h163q99 0 187 29t159.5 83.5 123 131 80 171.5 28.5 204q0 69-21 121t-60.5 86-95.5 51-127 17h-180zm-159-542h964v-10h-964zm0 510h964v-20h-964zm0 485h964v-5h-964zm0 505h964v-10h-964z"/><path transform="translate(165.6 22.848) scale(.016 -.016)" d="m381-17q-56 0-100.5 22.5t-76 65-48 102.5-16.5 135q0 93 21.5 181t60.5 167 92.5 144.5 117.5 113.5 136 74.5 147 26.5q58 0 107.5-15t90.5-41 71-60q9-9 7.5-18t-13.5-17q-10-8-17.5-6t-16.5 10q-30 29-65.5 50t-77 32.5-92.5 11.5q-66 0-130-25t-120.5-70-104.5-106.5-82.5-134.5-54-154-19.5-164q0-65 13.5-115t38.5-85 60-53.5 78-18.5q64 0 128 33t126.5 96.5 122.5 152 115 199.5q3 11 10 15.5t22 4.5q29 0 24-19l-147-512q-3-10-10-15t-23-5q-28 0-22 20l95 336q-49-82-102-148t-110-113-116-72.5-120-25.5zm-381-473h972v-10h-972zm0 510h972v-20h-972zm0 485h972v-5h-972zm0 505h972v-10h-972z"/><path transform="translate(181.15 22.848) scale(.016 -.016)" d="m161-16q-36 0-61.5 18t-32 57 12.5 101l97 335q4 11 10.5 15.5t19.5 4.5q16 0 22.5-6t2.5-18l-98-333q-13-41-12.5-69t13-42 39.5-14q32 0 71.5 23t84.5 72.5 90.5 129.5 89.5 195l11 42q4 13 10 17t20 4q16 0 22.5-5.5t2.5-17.5l-114-393q-8-24-9.5-39t3.5-22 15-7q17 0 34 11.5t32.5 28.5 28.5 35q6 9 13 9t15-6q9-6 10.5-12t-3.5-13q-12-19-33-43t-48.5-41-59.5-17q-23 0-37 9t-19.5 26-3 40.5 10.5 51.5l37 132q-36-72-74.5-121.5t-76-80-72.5-44-64-13.5zm-161-474h646v-10h-646zm0 510h646v-20h-646zm0 485h646v-5h-646zm0 505h646v-10h-646z"/><path transform="translate(191.49 22.848) scale(.016 -.016)" d="m117-15q-41 0-55 32t6 98l109 380q4 11 10 15.5t19 4.5q17 0 23-6t2-18l-113-390q-10-34-8.5-51t19.5-17q17 0 33.5 11.5t32 29 29.5 35.5q6 8 12 8.5t13-4.5q11-7 12-13.5t-3-12.5q-15-25-37-48.5t-48.5-38.5-55.5-15zm142 698q-18 0-29 9.5t-11 28.5q0 24 14.5 42.5t41.5 18.5q18 0 29-9.5t11-28.5q0-23-14-42t-42-19zm-259-1173h300v-10h-300zm0 510h300v-20h-300zm0 485h300v-5h-300zm0 505h300v-10h-300z"/><path transform="translate(196.29 22.848) scale(.016 -.016)" d="m166-17q-36 0-62.5 19t-41 54.5-14.5 84.5q0 47 13.5 98.5t40.5 101.5 66.5 90 90 64 111.5 24q31 0 66-9.5t65-27.5l148 513q4 11 11 15.5t20 4.5q17 0 22-7t2-18l-261-894q-8-29-6-46t20-17q16 0 32 11.5t32.5 29 29.5 35.5q7 8 12.5 9t12.5-5q11-7 12.5-13.5t-3.5-12.5q-15-25-37-48.5t-48-38.5-55-15q-27 0-42.5 13.5t-18 40 8.5 67.5q8 28 16 55.5t15 54.5q-45-80-89-132t-86.5-76.5-82.5-24.5zm-62 163q0-33 8.5-58.5t25-40 41.5-14.5q39 0 88 40t102 119.5 106 198.5l13 45q-38 21-68.5 27t-57.5 6q-48 0-87.5-20t-71.5-54.5-54-77-33.5-87-11.5-84.5zm-104-636h632v-10h-632zm0 510h632v-20h-632zm0 485h632v-5h-632zm0 505h632v-10h-632z"/><path transform="translate(206.4 22.848) scale(.016 -.016)" d="m226-19q-54 0-91 23.5t-55.5 66.5-18.5 100q0 68 22 130.5t62.5 111.5 96 77.5 122.5 28.5q48 0 77.5-14.5t43-39 13.5-54.5q0-47-26.5-81.5t-70.5-60-97-42.5-107-28-100-18l4 46q41 5 87.5 14.5t91 23.5 81 33.5 58.5 45.5 22 60q0 33-22.5 49.5t-61.5 16.5q-54 0-98-24.5t-75.5-66.5-49-95-17.5-108q0-47 13-79.5t39.5-49.5 66.5-17q41 0 75.5 18.5t62 44 47.5 47.5q8 9 16.5 8.5t16.5-7.5q7-7 8.5-14.5t-6.5-17.5q-26-33-61.5-62t-78-47.5-90.5-18.5zm-226-471h526v-10h-526zm0 510h526v-20h-526zm0 485h526v-5h-526zm0 505h526v-10h-526z"/><path transform="translate(214.82 22.848) scale(.016 -.016)" d="m-174-17q-11 0-15 7.5t-2.5 16.5 9.5 16.5 20 7.5q35 0 80.5 32t98 92.5 111.5 146 121 193.5l31-15q-64-119-125-212t-118.5-156.5-110-96-100.5-32.5zm394-2q-42 0-81.5 12t-65.5 31q-10 9-10 17.5t8 16.5q9 8 15.5 8t16.5-7q28-16 57-24t61-8q57 0 88.5 30t31.5 82q0 26-7.5 50.5t-20 50-26.5 52-26.5 56-20.5 63-8 70.5q0 39 18 55.5t37 16.5q14 0 20.5-7t6.5-18q0-13-10.5-30.5t-27.5-39.5q3-34 13-62.5t23.5-53.5 28-48.5 27.5-47.5 21-50 8-58q0-70-47-113.5t-130-43.5zm-220-471h550v-10h-550zm0 510h550v-20h-550zm0 485h550v-5h-550zm0 505h550v-10h-550z"/></svg>