<svg width="174.24" height="26.544" viewBox="0 0 174.24 26.544" xmlns="http://www.w3.org/2000/svg"><path transform="translate(0 20.48) scale(.016 -.016)" d="m409 333q-17-1-25 10.5t-8 26.5 5.5 25.5 20.5 11.5q60 2 108.5 14.5t87 34 65 51 40.5 66.5 14 79q0 41-18 72t-50.5 51-78 29.5-100.5 9.5q-68 0-129.5-13.5t-113.5-42.5-94-75q-12-14-25-17.5t-29 6.5q-16 12-18.5 25t9.5 29q31 43 75 74t97 52 112.5 31.5 122.5 10.5q80 0 141.5-16t103.5-46.5 64-76 22-103.5q0-54-18-101.5t-52.5-86-83-66.5-110-44.5-135.5-20.5zm-219-350q-42 0-74 17t-53 39.5-30 37.5q-12 17-11 31.5t20 24.5q17 11 29 6.5t26-19.5q14-17 27.5-28.5t30-17.5 36.5-6q33 0 47 25t14 82v526q0 14 11 20.5t33 6.5 33-6.5 11-20.5v-531q0-56-16-98t-49-65.5-85-23.5z"/><path transform="translate(13.328 20.48) scale(.016 -.016)" d="m-68-17q-19 0-28 11.5t-9 26 9 26 28 11.5q29 0 57.5 13t56.5 37.5 54.5 58.5 50.5 75 45.5 88 38.5 97.5 29 103 18.5 106 6.5 103.5q0 14 13 21.5t30 7.5 30-7.5 13-21.5q0-47-8-100.5t-23-109.5-36-112-46.5-110-55.5-102.5-63-89-68-70.5-71-46.5-72-16.5zm288 0q-25 0-44 7t-30.5 20-17 33-5.5 45v613q0 101 32 149t98 48q41 0 68-18t40.5-52.5 13.5-87.5q0-19-13-28t-30-9-30 9-13 28q0 28-4 44.5t-12.5 25-21.5 8.5q-14 0-23.5-11t-14-38-4.5-74v-596q0-14 3.5-23t10-13 14.5-4q9 0 16.5 3.5t14.5 10.5 14 15q7 7 16.5 4.5t18.5-9.5q10-9 11.5-18.5t-3.5-18.5q-11-20-28-34t-36.5-21.5-40.5-7.5z"/><path transform="translate(19.632 20.48) scale(.016 -.016)" d="m250-17q-55 0-97.5 28t-66 83-23.5 138q0 52 9.5 96.5t28.5 80 46 60 62 37.5 78 13q32 0 65-9.5t63-26.5v4q0 14 11 21t33 7 32.5-6.5 10.5-20.5v-389q0-14 3.5-23t10-13 14.5-4q10 0 16.5 3t13 9.5 15.5 16.5q6 7 15 5.5t19-8.5q10-9 12.5-19.5t-2.5-19.5q-11-19-27.5-33t-36.5-22-42-8q-23 0-40 5.5t-29.5 17-18.5 28-9 37.5q0 5-0.5 12t-0.5 15q-22-43-49-68t-56.5-36-59.5-11zm-99 252q0-52 12-91t37-60 63-21q31 0 59 17t52 51.5 41 85.5v192q-31 18-59.5 24.5t-58.5 6.5q-27 0-49.5-8t-40.5-24.5-30.5-41-19-57-6.5-74.5z"/><path transform="translate(29.584 20.48) scale(.016 -.016)" d="m519 22q22 13 42.5 24.5t38.5 20.5 31 15q16 8 27 1.5t15.5-19.5 0.5-27-19-21q-14-8-30.5-17t-34-19-35.5-20.5-36-21.5zm-173-420q-65 0-104 32.5t-39 88.5q0 27 10 52.5t30 51 51 52 73 54.5q17 11 31.5 20.5t30 19 30.5 17.5v114q-14-30-33.5-53t-42.5-38-47.5-22.5-51.5-7.5q-52 0-89 19t-56.5 58.5-19.5 100.5v216q0 36-10.5 50t-31.5 14q-15 0-26-8.5t-18-24.5-12-39q-3-16-12.5-22t-26.5-5q-15 2-24 10t-6 31q6 40 22 70t43 46.5 63 16.5q33 0 57-9.5t39-29.5 22-48.5 7-66.5v-199q0-34 10-57t30-34.5 51-11.5q30 0 55.5 13t46 37 36 56.5 25.5 70.5v252q0 13 10.5 19.5t32.5 6.5q21 0 32-6.5t11-19.5v-622q0-63-14-112.5t-40-83.5-63-51.5-82-17.5zm5 78q35 0 58.5 21.5t36.5 64 13 105.5v35q-12-7-23.5-13.5t-21.5-13-20-14.5q-26-19-45-36t-31.5-33-19-31.5-6.5-31.5 6.5-28 19.5-18.5 33-6.5z"/><path transform="translate(40.224 20.48) scale(.016 -.016)" d="m268-17q-35 0-62.5 11t-46.5 33-29.5 55-10.5 77v218q0 36-10.5 50t-31.5 14q-15 0-26-8.5t-18-24.5-12-39q-3-16-12.5-22t-26.5-5q-15 2-24 10t-6 31q6 40 22 70t43 46.5 63 16.5q33 0 57-9.5t39-29.5 22-48.5 7-66.5v-194q0-34 7.5-58.5t24.5-37 44-12.5q22 0 45 11t43 34.5 32.5 60 13.5 84.5v239q0 12 11.5 19t33.5 7q23 0 32.5-7t9.5-19v-283q0-43 4.5-71t15-44 26.5-23 39-7q21 0 41 8.5t37.5 25 30.5 41 21 56 8 70.5q0 35-5.5 69t-16 66.5-29.5 62.5q-11 18-6.5 31.5t18.5 20.5 29 7 23-7.5 16-21.5q15-24 28.5-57.5t22-74 8.5-86.5q0-43-10-85t-29.5-79-48-65.5-65.5-45-83-16.5q-35 0-64.5 12.5t-51 38-32.5 65.5q-18-37-43-62t-55-38.5-63-13.5z"/><path transform="translate(54.432 20.48) scale(.016 -.016)" d="m161-15q-21 0-31.5 6.5t-10.5 19.5v366q0 36-10.5 50t-31.5 14q-15 0-26-8.5t-18-24.5-12-39q-3-16-12.5-22t-26.5-5q-15 2-24 10t-6 31q6 40 22 70t43 46.5 63 16.5q27 0 48-6.5t36-20.5 24-33.5 13-45.5v-25q12 34 28 59t34 41.5 37 25 37 8.5q14 0 24.5-7t10.5-31q0-27 5.5-45.5t15-27.5 23.5-9q24 0 49.5 20.5t55.5 49.5q9 9 20 6t20-13 11.5-21.5-4.5-19.5q-34-39-74-64.5t-80-25.5q-25 0-47.5 11.5t-38 34.5-20.5 56q-16-8-31-26t-28.5-44-24.5-58.5-19-69.5v-224q0-13-11-19.5t-33-6.5z"/><path transform="translate(63.248 20.48) scale(.016 -.016)" d="m192-17q-51 0-74.5 27t-23.5 78v401q0 13 10.5 19.5t31.5 6.5q22 0 33-6.5t11-19.5v-390q0-22 8-31t21-9q10 0 17 4t13.5 10.5 14.5 15.5q5 6 15.5 3.5t17.5-9.5q10-8 12-18t-3-18q-11-20-27.5-34t-36-22-40.5-8zm-56 686q-28 0-42 15.5t-14 46.5q0 32 14 48t42 16 41.5-16 13.5-48q2-31-12.5-46.5t-42.5-15.5z"/><path transform="translate(68.048 20.48) scale(.016 -.016)" d="m239-17q-40 0-67 15.5t-40.5 44.5-13.5 70v307h-77q-15 0-21.5 9t-6.5 31q0 23 6.5 31.5t21.5 8.5h77v204q0 13 10.5 19.5t32.5 6.5 33-6.5 11-19.5v-204h126q15 0 21.5-8.5t6.5-31.5q0-22-6.5-31t-21.5-9h-126v-298q0-34 9.5-48.5t32.5-14.5q22 0 39 12t35 33q10 11 20 9t20-10q13-9 14.5-19.5t-3.5-19.5q-16-29-37.5-47t-45.5-26-50-8z"/><path transform="translate(74.256 20.48) scale(.016 -.016)" d="m288-19q-75 0-125 33t-75 88.5-25 124.5q0 65 18.5 118.5t52 92.5 80.5 60 104 21q47 0 83-14.5t56.5-43.5 20.5-74q0-38-17-69t-47.5-55-72-41-92-26.5-106.5-13.5l-1 70q33 2 68 8t67 16.5 57 25.5 39.5 34.5 14.5 43.5q0 32-21.5 45.5t-56.5 13.5q-33 0-61.5-13.5t-50.5-39.5-34.5-62-12.5-81q0-56 17-96.5t48.5-63 75.5-22.5q31 0 53 9t40.5 26 39.5 39q14 15 26.5 14.5t26.5-11.5 17-23-6-25q-26-39-60-63t-70-35-71-11z"/><path transform="translate(87.472 20.48) scale(.016 -.016)" d="m225-17q-44 0-74 21.5t-46.5 55.5-16.5 72q0 34 11 66t34.5 62 60 57.5 87.5 52.5v358q0 42-13.5 61t-39.5 19q-20 0-39.5-9t-38-28-37.5-48q-9-14-20.5-17.5t-28.5 6.5q-18 10-19.5 21.5t8.5 27.5q23 39 49 68t59 45 73 16q69 0 102-40.5t33-121.5v-321q53 25 106 50t105.5 51 103.5 52v110q0 73 15.5 122t47.5 73.5 83 24.5q43 0 73-19.5t46.5-52 16.5-70.5q0-32-10.5-62t-33-58-60-56-91.5-55v-342q0-38 7-61.5t23-34.5 42-11q19 0 37.5 7t34 18.5 24.5 24.5q11 17 23 21t29-6 18-21.5-10-30.5q-10-19-33-42t-54.5-39.5-68.5-16.5q-42 0-72.5 13.5t-49 38-28 59-9.5 76.5v299q-36-19-75-38t-80-39-81.5-38.5-78.5-36.5v-114q0-73-15-122t-46.5-73.5-82.5-24.5zm0 77q30 0 43 27.5t13 104.5v90q-27-13-47-29.5t-33-35-19.5-40-6.5-45.5q0-31 15-51.5t35-20.5zm546 544q29 16 50 31.5t33.5 32 18 36.5 5.5 44q0 25-13.5 45t-34.5 20q-30 0-44.5-27.5t-14.5-104.5z"/><path transform="translate(104.11 20.48) scale(.016 -.016)" d="m801-19q-28 0-52.5 6.5t-47 20.5-44 35.5-43.5 52-46 70.5q-10 18-20 35.5t-19.5 35-19 35-18.5 35.5-18 36-18 35q-31 2-53 17.5t-22 40.5q0 20 13.5 37t46.5 17q19 0 35.5-8.5t32.5-20.5q44 9 79.5 27.5t60 44.5 38 59 13.5 71q0 37-17 65.5t-47 47.5-72.5 28.5-92.5 9.5q-68 0-129.5-13.5t-113.5-42.5-94-75q-12-14-25-17.5t-29 6.5q-16 12-18.5 25t9.5 29q31 43 75 74t97 52 112 31.5 121 10.5q76 0 134.5-15.5t99-45.5 61.5-73 21-97q0-39-11-74.5t-32.5-66.5-51.5-56-69-43.5-85-29.5q7-14 14-27.5t14-27.5 14.5-28 15-28 15.5-27.5 16-27.5q21-35 39.5-62.5t35.5-47 32.5-32 31-18.5 31.5-6q30 0 49.5 11.5t35.5 37.5q9 14 22 19t30-8q14-9 16-22t-5-25q-15-28-38.5-49t-51.5-32.5-58-11.5zm-611 2q-42 0-74 17t-53 39.5-30 37.5q-12 17-11 31.5t20 24.5q17 11 29 6.5t26-19.5q14-17 27.5-28.5t30-17.5 36.5-6q33 0 47 25t14 82v526q0 14 11 20.5t33 6.5 33-6.5 11-20.5v-531q0-56-16-98t-49-65.5-85-23.5z"/><path transform="translate(123.89 20.48) scale(.016 -.016)" d="m136-21q-38 0-67 11.5t-45 34.5-16 56q0 35 15.5 61.5t43 42 63.5 15.5q35 0 63.5-9.5t54.5-24 52.5-31 56-31 64.5-23.5 78-8q49 0 84 17t59 44.5 37 58.5q7 18 19 23t31-1q17-4 22.5-15t0.5-31q-15-51-50.5-92t-87-64.5-113.5-23.5q-65 0-112 13.5t-82 33-63.5 39-56.5 33.5-62 14q-19 0-27.5-10t-8.5-24q0-15 13-24.5t29-9.5q37 0 57.5 31t20.5 77v485q0 60 14.5 106.5t43.5 77.5 71.5 47 97.5 16q52 0 93-16t71.5-49 48.5-87q8-21 3-34t-24-20q-24-7-35.5 0t-19.5 27q-12 29-31 50.5t-46 33-62 11.5q-34 0-59.5-9t-43.5-29-26.5-51-8.5-74v-485q0-55-19.5-96.5t-55-64-85.5-22.5z"/><path transform="translate(136.35 20.48) scale(.016 -.016)" d="m192-17q-51 0-74.5 27t-23.5 78v401q0 13 10.5 19.5t31.5 6.5q22 0 33-6.5t11-19.5v-390q0-22 8-31t21-9q10 0 17 4t13.5 10.5 14.5 15.5q5 6 15.5 3.5t17.5-9.5q10-8 12-18t-3-18q-11-20-27.5-34t-36-22-40.5-8zm-56 686q-28 0-42 15.5t-14 46.5q0 32 14 48t42 16 41.5-16 13.5-48q2-31-12.5-46.5t-42.5-15.5z"/><path transform="translate(141.15 20.48) scale(.016 -.016)" d="m166 21q16 10 32 19t31 17 27.5 14.5 22.5 10.5q16 7 26.5 1t15-19.5 0.5-27-19-21.5q-13-7-29.5-16t-34-19.5-35.5-21-36-20.5zm-134-419q-35 0-62.5 15.5t-43.5 43.5-16 64q0 31 10.5 62.5t33 63.5 56 63 77.5 59q7 5 13.5 9t13.5 9v498q0 13 10.5 19.5t31.5 6.5q22 0 33-6.5t11-19.5v-647q0-55-10.5-99.5t-31-76-52.5-48-74-16.5zm7 78q19 0 33 11t23.5 31 14 48.5 4.5 63.5v72q-4-3-7.5-6t-8.5-6q-25-18-44-37.5t-32-40-19-42-6-42.5q0-15 5-26.5t15-18.5 22-7zm117 989q-28 0-42 15.5t-14 46.5q0 32 14 48t42 16 41.5-16 13.5-48q0-31-13.5-46.5t-41.5-15.5z"/><path transform="translate(146.21 20.48) scale(.016 -.016)" d="m288-19q-75 0-125 33t-75 88.5-25 124.5q0 65 18.5 118.5t52 92.5 80.5 60 104 21q47 0 83-14.5t56.5-43.5 20.5-74q0-38-17-69t-47.5-55-72-41-92-26.5-106.5-13.5l-1 70q33 2 68 8t67 16.5 57 25.5 39.5 34.5 14.5 43.5q0 32-21.5 45.5t-56.5 13.5q-33 0-61.5-13.5t-50.5-39.5-34.5-62-12.5-81q0-56 17-96.5t48.5-63 75.5-22.5q31 0 53 9t40.5 26 39.5 39q14 15 26.5 14.5t26.5-11.5 17-23-6-25q-26-39-60-63t-70-35-71-11z"/><path transform="translate(154.62 20.48) scale(.016 -.016)" d="m299-19q-40 0-73 13.5t-57 39.5-37 66-13 92v185q0 36-10.5 50t-31.5 14q-15 0-26-8.5t-18-24.5-12-39q-3-16-12.5-22t-26.5-5q-15 2-24 10t-6 31q6 40 22 70t43 46.5 63 16.5q33 0 57-9.5t39-29.5 22-48.5 7-66.5v-156q0-40 6-68t18.5-44.5 32-24.5 46.5-8q22 0 41.5 9t36.5 26.5 29.5 42.5 19.5 55.5 7 67.5q0 35-5 69t-16 66.5-30 62.5q-10 18-6 31.5t17.5 20.5 30.5 7q14 0 22.5-7.5t15.5-21.5q15-24 28-57.5t22-74 9-86.5q0-43-9-85t-27.5-79-46-65.5-64.5-45-84-16.5z"/><path transform="translate(164.29 20.48) scale(.016 -.016)" d="m250-17q-55 0-97.5 28t-66 83-23.5 138q0 52 9.5 96.5t28.5 80 46 60 62 37.5 78 13q32 0 65-9.5t63-26.5v4q0 14 11 21t33 7 32.5-6.5 10.5-20.5v-389q0-14 3.5-23t10-13 14.5-4q10 0 16.5 3t13 9.5 15.5 16.5q6 7 15 5.5t19-8.5q10-9 12.5-19.5t-2.5-19.5q-11-19-27.5-33t-36.5-22-42-8q-23 0-40 5.5t-29.5 17-18.5 28-9 37.5q0 5-0.5 12t-0.5 15q-22-43-49-68t-56.5-36-59.5-11zm-99 252q0-52 12-91t37-60 63-21q31 0 59 17t52 51.5 41 85.5v192q-31 18-59.5 24.5t-58.5 6.5q-27 0-49.5-8t-40.5-24.5-30.5-41-19-57-6.5-74.5z"/></svg>