<svg width="106.39" height="25.34" viewBox="0 0 106.39 25.34" xmlns="http://www.w3.org/2000/svg"><path transform="translate(0 19.068) scale(.014 -.014)" d="m433 360q-17-1-25 10.5t-8 26.5q0 16 5.5 26.5t21.5 11.5q62 2 114 15.5t93 37 69 56 43 72.5 15 86q0 45-18.5 78.5t-54 56-85 33-110.5 10.5q-79 0-146-15t-121.5-45.5-97.5-75.5q-13-14-26.5-16.5t-28.5 8.5q-16 14-18 27.5t10 27.5q34 42 79.5 73.5t101 53 119.5 32.5 136 11q85 0 150.5-17.5t110.5-50 68-81 23-110.5q0-58-19-108.5t-55-92-87.5-71.5-116.5-48-142-22zm-235-377q-43 0-76 16t-54.5 37.5-30.5 34.5q-12 17-11 31.5t18 24.5q18 11 30 7.5t27-17.5q14-15 28-26t31.5-17 40.5-6q36 0 52.5 28.5t16.5 91.5v575q0 14 11 20.5t33 6.5 33-6.5 11-20.5v-581q0-59-17.5-104t-52.5-70-90-25z"/><path transform="translate(12.362 19.068) scale(.014 -.014)" d="m-57-17q-19 0-28 11.5t-9 26 9 26 28 11.5q30 0 59 14t57.5 39.5 54 61.5 49 80 43.5 94 36.5 105 27.5 113 17 117 6 116q0 14 13 22t30 8 30-8 13-22q0-56-7.5-116.5t-21.5-122-34-122-45-117.5-54-108-61.5-92.5-67.5-72.5-71.5-47.5-73.5-16.5zm278 0q-26 0-45 7t-30.5 20-17 32.5-5.5 43.5v690q0 96 32 142.5t98 46.5q43 0 71-18.5t41.5-55.5 13.5-93q0-19-13-28t-30-9-30 9-13 28q0 30-4.5 49t-13.5 28.5-23 9.5-24-10-14.5-33.5-4.5-65.5v-680q0-13 4-21.5t11-12.5 16-4 16.5 3 14.5 8.5 14 10.5q8 7 18 2.5t17-12.5q8-10 8.5-20t-4.5-19q-11-15-28-26t-36-16.5-39-5.5z"/><path transform="translate(17.878 19.068) scale(.014 -.014)" d="m258-17q-57 0-101 27.5t-69 83.5-25 141q0 52 9.5 96t28.5 79 46 59 62 37 77 13q32 0 66-10.5t64-27.5v5q0 15 11 22t33 7 32.5-6.5 10.5-20.5v-392q0-13 4-21.5t11-12.5 16-4q10 0 16.5 2.5t13 7.5 15.5 12q7 6 16 3.5t18-10.5q9-10 10-21t-4-19q-11-16-28-27t-36.5-17-39.5-6q-23 0-40 5t-29 15.5-18.5 25.5-9.5 34q0 1-1 4.5t-1 7.5q-23-37-49.5-57t-54.5-27.5-54-7.5zm-107 256q0-55 13-94.5t39.5-60.5 66.5-21q29 0 55.5 10t49.5 33 41 60v242q-31 19-60 25.5t-61 6.5q-26 0-48-8t-40-24-30.5-40-19-56-6.5-73z"/><path transform="translate(26.586 19.068) scale(.014 -.014)" d="m493 3q16 9 32 18t31 17 28 14.5 23 10.5q16 7 26.5 0t15-20 0.5-26.5-19-21.5q-13-6-29.5-15t-34-19-35.5-20-35-20zm-172-468q-45 0-79 16t-53 46.5-19 72.5q0 30 10.5 61t31.5 61.5 52 61 74 59.5q25 15 49 30.5t48 31.5v102q-13-22-30.5-39.5t-38.5-29.5-45.5-18.5-51.5-6.5q-58 0-97 20.5t-58.5 61-19.5 101.5v323q0 13 10.5 19.5t31.5 6.5q22 0 33-6.5t11-19.5v-323q0-35 11-59t33.5-36 55.5-12q28 0 52 9t43.5 24.5 34.5 37.5 25 47v312q0 13 10.5 19.5t32.5 6.5q21 0 32-6.5t11-19.5v-689q0-63-14-112.5t-40.5-83.5-63.5-51.5-82-17.5zm5 78q26 0 46 12t34 35.5 21.5 59.5 7.5 82v86q-21-13-42-25.5t-42-25.5q-21-17-38.5-36t-29.5-39.5-18-41.5-6-42 7.5-35.5 22.5-22 37-7.5z"/><path transform="translate(35.546 19.068) scale(.014 -.014)" d="m248-17q-36 0-64.5 11.5t-48.5 34.5-30.5 57-10.5 80v323q0 13 10.5 19.5t32.5 6.5q21 0 32-6.5t11-19.5v-323q0-35 8.5-59t27-36 47.5-12q26 0 46 9t35 24.5 26 37 18 46.5v313q0 12 10.5 19t31.5 7q24 0 34-7t10-19v-278q0-46 4-75t13.5-45.5 26-23 40.5-6.5q20 0 39.5 6t37 19.5 31 35.5 21.5 52.5 8 71.5q0 38-5.5 75t-17 72.5-30.5 67.5q-11 18-6 31t19 20 29 7q14 0 21-6t14-18q15-23 29.5-59.5t24.5-82.5 10-98q0-42-10-82.5t-29-75-47.5-60.5-65.5-41-83-15q-33 0-61 10.5t-48.5 33-33.5 56.5q-16-30-40-52t-53.5-34-63.5-12z"/><path transform="translate(47.544 19.068) scale(.014 -.014)" d="m161-15q-21 0-31.5 6.5t-10.5 19.5v358q0 42-13 56.5t-36 14.5q-17 0-28.5-9t-18-26-8.5-40q-1-16-9-23.5t-26-7.5q-16 0-26 7t-9 33q2 43 17.5 74.5t43 49 64.5 17.5q27 0 49-6t38-19 26.5-32 15.5-45l1-5q11 26 26 46.5t32 35 35.5 22 36.5 7.5q14 0 24.5-7t10.5-31q0-28 5.5-47t16-28.5 24.5-9.5q25 0 52 23t52 51q9 10 20 7.5t20.5-12.5 12.5-21.5-4-19.5q-33-40-73-68t-80-28q-27 0-50.5 12t-39 36-20.5 58q-15-6-28.5-19t-26-31.5-23-42-18.5-49.5v-281q0-13-11-19.5t-33-6.5z"/><path transform="translate(55.258 19.068) scale(.014 -.014)" d="m193-17q-52 0-75.5 27t-23.5 76v403q0 13 10.5 19.5t31.5 6.5q22 0 33-6.5t11-19.5v-393q0-20 9-29t22-9q11 0 18.5 3.5t14 8.5 14.5 11q6 5 16.5 1t16.5-12q8-9 9-19t-5-18q-11-16-27.5-27t-36-17-38.5-6zm-55 686q-28 0-42.5 15.5t-14.5 46.5q0 32 14.5 48t42.5 16q27 0 41-16t14-48q1-31-13.5-46.5t-41.5-15.5z"/><path transform="translate(59.458 19.068) scale(.014 -.014)" d="m243-17q-42 0-69.5 15.5t-41 44-13.5 68.5v309h-78q-15 0-21 9t-6 31q0 23 6 31.5t21 8.5h78v204q0 13 10.5 19.5t31.5 6.5q22 0 33-6.5t11-19.5v-204h126q15 0 21.5-8.5t6.5-31.5q0-22-6.5-31t-21.5-9h-126v-299q0-34 9.5-48.5t34.5-14.5q23 0 39.5 11t34.5 27q12 11 22.5 7.5t19.5-12.5q11-10 11.5-20.5t-5.5-19.5q-17-25-38-40t-44-21.5-46-6.5z"/><path transform="translate(64.89 19.068) scale(.014 -.014)" d="m293-19q-79 0-130 34t-75.5 90-24.5 123 18.5 120.5 52.5 91.5 80.5 58.5 101.5 20.5q49 0 85.5-14.5t57-44 20.5-74.5q0-38-16.5-69t-46.5-54.5-71-39-92-23.5-108-9v70q33 0 67.5 4.5t66.5 13.5 57 23.5 39.5 33.5 14.5 43q0 32-21.5 46t-57.5 14q-33 0-61.5-13t-51-38.5-35-61.5-12.5-82q0-55 17.5-96t49.5-64 77-23q30 0 51 7.5t39.5 23 40.5 37.5q15 15 27.5 15t26.5-11 17-23.5-7-25.5q-25-38-59-60.5t-69.5-32.5-68.5-10z"/><path transform="translate(76.454 19.068) scale(.014 -.014)" d="m242-17q-46 0-78 22.5t-49 59.5-17 79q0 37 12 71.5t36.5 66.5 62.5 60.5 91 53.5v407q0 37-15.5 56t-43.5 19q-22 0-44-9.5t-42.5-29-41.5-51.5q-10-15-22-17t-28 8q-17 11-17 23.5t10 27.5q25 39 53 68.5t62.5 46.5 76.5 17q70 0 105-41t35-118v-370q58 28 114.5 55.5t113.5 56.5 112 57v133q0 75 15.5 125.5t48 76 84.5 25.5q45 0 76.5-21t49-56 17.5-78q0-35-11-68t-35-63.5-63-59.5-95-57v-371q0-41 8.5-68t27-39.5 49.5-12.5q20 0 38.5 5t34 15.5 26.5 24.5q11 17 23 21t29-7q18-11 17-23.5t-13-31.5q-11-19-34-40t-53.5-35-68.5-14q-45 0-77.5 14.5t-53 41-30.5 63.5-10 81v328q-38-21-80.5-42.5t-86.5-43-88-42.5-85-40v-133q0-75-15-125.5t-47-76-84-25.5zm0 78q32 0 45 30t13 109v108q-29-13-51-30.5t-35.5-38-21-44.5-7.5-51q0-36 16.5-59.5t40.5-23.5zm573 586q31 16 53.5 33t36 36 20 41.5 6.5 49.5q0 31-15.5 54t-39.5 23q-32 0-46.5-30t-14.5-109z"/><path transform="translate(91.882 19.068) scale(.014 -.014)" d="m504-17q-78 0-134.5 30.5t-86.5 94-30 162.5v533q0 37-13.5 56t-42.5 19q-22 0-42-9.5t-39.5-30-40.5-52.5q-9-15-23-16.5t-30 9.5q-17 10-18 23t8 28q25 39 53.5 68.5t62.5 46.5 76 17q71 0 104-41t33-118v-525q0-74 19.5-120.5t57-68 92.5-21.5q30 0 57.5 6t52 19 45.5 31 37.5 41.5 27.5 51.5v714q0 14 11 21t33 7q21 0 32-7t11-21v-767q0-32 7-53t20.5-32 33.5-11q24 0 41 12t32 33q12 17 23.5 21t29.5-7 19.5-25-9.5-30q-12-21-27.5-37.5t-33.5-28.5-38-17.5-42-5.5q-38 0-66 13.5t-45.5 40.5-25.5 66q0 2-0.5 3.5t-0.5 3.5q-18-30-42-54t-53-40.5-63.5-24.5-72.5-8z"/></svg>