<svg width="158.87" height="29.61" viewBox="0 0 158.87 29.61" xmlns="http://www.w3.org/2000/svg"><path transform="translate(0 21.378) scale(.014 -.014)" d="m471 428q-11-1-17.5 5.5t-6.5 19.5q0 12 5.5 18t16.5 6q71 2 132.5 19.5t111 47.5 84.5 70.5 54 90 19 105.5-22.5 99.5-65 74-104 46-139.5 15.5q-90 0-167.5-19.5t-139-56.5-105.5-91q-7-8-15-9.5t-18 5.5q-11 8-12.5 16.5t5.5 18.5q34 44 81 78.5t104.5 58.5 126 37 144.5 13q92 0 163.5-19t120.5-56 74.5-89.5 25.5-119.5q0-65-21-122t-60.5-103.5-96-81-126.5-54.5-152-23zm-251-446q-38 0-71.5 13.5t-59 36.5-43.5 53q-7 9-5 17.5t12 15.5q11 7 19 5.5t15-10.5q18-26 38-43.5t44.5-26.5 53.5-9q51 0 77 38.5t26 111.5v731q0 11 6.5 15.5t20.5 4.5 20.5-4.5 6.5-14.5v-738q0-60-18.5-104t-54-68-87.5-24zm-220-553h982v-10h-982zm0 591h982v-20h-982zm0 485h982v-5h-982zm0 586h982v-10h-982z"/><path transform="translate(13.748 21.378) scale(.014 -.014)" d="m-57-17q-12 0-18 7.5t-6 16.5 6 16.5 18 7.5q33 0 64.5 18t61.5 50.5 57.5 77.5 52 99.5 45.5 116.5 37.5 128 28.5 133.5 18 134.5 6 130q0 12 8.5 18t19 6 19-6 8.5-18q0-65-7-135t-20.5-141.5-32.5-141-43-134.5-52.5-123-60-105.5-65.5-82.5-70.5-54-74.5-19zm281 0q-20 0-36 6.5t-26.5 18.5-16 30.5-5.5 43.5v821q0 100 28.5 148.5t87.5 48.5q38 0 63-20t37.5-60 12.5-101q0-12-8.5-18.5t-19-6.5-19 6.5-8.5 18.5q0 45-6.5 74t-19 43-33.5 14q-20 0-34.5-14.5t-21.5-46.5-7-86v-809q0-20 4.5-34t14-21.5 23.5-7.5q10 0 20.5 3t20.5 10.5 19 17.5q6 6 13 5.5t13-7.5q6-6 7-12.5t-3-13.5q-11-15-27.5-27t-35-18-37.5-6zm-224-554h394v-10h-394zm0 591h394v-20h-394zm0 485h394v-5h-394zm0 586h394v-10h-394z"/><path transform="translate(19.264 21.378) scale(.014 -.014)" d="m265-17q-55 0-99 29t-69.5 86-25.5 140q0 50 9.5 93t28.5 77.5 47 59 64.5 38 80.5 13.5q34 0 67-10t66-30v16q0 11 6.5 15.5t20.5 4.5 20-4.5 6-14.5v-405q0-21 4.5-34.5t14.5-20 25-6.5q10 0 19.5 3.5t19 11 20.5 18.5q5 6 11.5 5.5t12.5-7.5q7-6 8-13t-3-14q-11-15-27-26.5t-34-18-36-6.5q-21 0-36.5 5.5t-27 17-17 28-6.5 38.5q0 4-0.5 9.5t-0.5 10.5q-23-45-52-68.5t-59.5-32-57.5-8.5zm-138 259q0-62 16.5-109t49-73.5 81.5-26.5q32 0 62.5 13.5t56 46 41.5 88.5v248q-35 24-67 32.5t-65 8.5q-32 0-59-9.5t-48.5-28.5-36.5-46.5-23-63.5-8-80zm-127-813h622v-10h-622zm0 591h622v-20h-622zm0 485h622v-5h-622zm0 586h622v-10h-622z"/><path transform="translate(27.972 21.378) scale(.014 -.014)" d="m482-39q15 10 31 21t32.5 22 33 20.5 31.5 16.5q10 5 17.5 1t11-12 1-17-12.5-14q-16-9-33.5-20t-36-22.5-36-23.5-33.5-23zm-151-561q-42 0-72.5 18t-47.5 52-17 81q0 49 10.5 93.5t31 85 51 78 71.5 72.5q23 16 46.5 32t47.5 32v152q-15-33-36.5-55t-45.5-35-49.5-18.5-50.5-5.5q-48 0-85 19.5t-57.5 60-20.5 104.5v330q0 9 6 13.5t19 4.5q14 0 20.5-4.5t6.5-13.5v-325q0-44 12.5-75.5t38.5-48.5 67-17q29 0 56 9t50 27.5 41 48.5 28 71v310q0 10 6.5 14.5t20.5 4.5q13 0 19-4.5t6-14.5v-848q0-61-12-107.5t-34-78-54.5-47-72.5-15.5zm5 49q25 0 46.5 12t37 36 24 60 8.5 84v242q-21-13-41.5-26.5t-40.5-27.5q-28-27-50.5-58t-38-66-23.5-72.5-8-78.5q0-32 10-55.5t29-36.5 47-13zm-336-20h640v-10h-640zm0 591h640v-20h-640zm0 485h640v-5h-640zm0 586h640v-10h-640z"/><path transform="translate(36.932 21.378) scale(.014 -.014)" d="m286-18q-38 0-66 13t-47.5 38.5-29 65-9.5 91.5v184q0 53-16 73t-47 20q-22 0-38-11.5t-25-37-12-66.5q-1-9-7-13.5t-18-4.5q-10 0-16 4.5t-6 16.5q2 53 17 88.5t42.5 53.5 63.5 18q28 0 49-8t36-25 22-44 7-65v-171q0-43 5.5-75.5t18-54 33.5-32 52-10.5q25 0 50 9t45.5 29.5 33 54 12.5 82.5l23-88q-9-33-26-58.5t-39.5-42.5-50-25.5-57.5-8.5zm301-1q-37 0-65 13.5t-47 39.5-29 66-10 92v304q0 10 6.5 14.5t20.5 4.5q13 0 19.5-4.5t6.5-14.5v-294q0-43 4.5-75.5t16.5-53.5 32-32 51-11q22 0 42 6.5t37.5 20 32 34 25 47.5 16.5 61 6 74q0 71-8 118t-21.5 70.5-30.5 23.5q-14 0-20.5-8t-6.5-19q0-17 13-29t34.5-18 48.5-6q32 0 60.5 13t63.5 39q7 5 13.5 2t11-10 4-14.5-6.5-12.5q-32-26-67-43t-81-17q-39 0-70 11.5t-49 32.5-18 51q0 20 9 35t24.5 24 36.5 9q37 0 62-31t38-87 13-129q0-43-6-81.5t-18-72-30-59.5-42.5-45-55-29-66.5-10zm-587-552h888v-10h-888zm0 591h888v-20h-888zm0 485h888v-5h-888zm0 586h888v-10h-888z"/><path transform="translate(49.364 21.378) scale(.014 -.014)" d="m-55-17q-12 0-18.5 7.5t-7 16.5 5.5 16.5 18 7.5q34 0 63 21t51 70.5 37 132.5 21 208l42-22q-4-131-21-219.5t-45.5-141-65.5-75-80-22.5zm517 0q-21 0-36.5 6.5t-26.5 19-16.5 31-5.5 44.5q0 32 2.5 69.5t5 76.5 5 76 2.5 68q0 45-15.5 62.5t-46.5 17.5q-25 0-57.5-10t-64.5-19.5-58-9.5q-16 0-30.5 16.5t-24 40-9.5 42.5q0 13 4 22.5t12 15.5 19 6q21 0 29.5-19t8.5-46q0-7 0-15t0-16q23-2 51 9t61.5 22 67.5 11q36 0 59-13t34.5-41.5 11.5-73.5q0-31-2.5-67.5t-5-75-5-73.5-2.5-64q0-32 10-48.5t32-16.5q11 0 21 3t20 10.5 20 17.5q7 6 13.5 5.5t12.5-7.5q6-6 7-12.5t-3-13.5q-11-15-27.5-27t-35-18-37.5-6zm-462-554h568v-10h-568zm0 591h568v-20h-568zm0 485h568v-5h-568zm0 586h568v-10h-568z"/><path transform="translate(57.316 21.378) scale(.014 -.014)" d="m192-17q-41 0-63 25t-22 74v414q0 10 6 14.5t19 4.5q14 0 20.5-4.5t6.5-14.5v-402q0-31 10-47t33-16q11 0 21 3.5t20 10.5 20 17q5 6 12 5.5t13-7.5q6-6 7-12.5t-3-13.5q-11-15-27.5-26.5t-35-18-37.5-6.5zm-59 700q-22 0-33 12t-11 37 11 37.5 33 12.5q21 0 32-12.5t11-37.5q1-25-10.5-37t-32.5-12zm-133-1254h300v-10h-300zm0 591h300v-20h-300zm0 485h300v-5h-300zm0 586h300v-10h-300z"/><path transform="translate(61.516 21.378) scale(.014 -.014)" d="m244-17q-36 0-59.5 14.5t-35 42.5-11.5 67v345h-91q-11 0-15 6t-4 18q0 13 4 18.5t15 5.5h91v211q0 10 6.5 14.5t19.5 4.5 20-4.5 7-14.5v-211h141q11 0 15.5-5.5t4.5-18.5q0-12-4.5-18t-15.5-6h-141v-333q0-41 12-64.5t47-23.5q25 0 42.5 14t34.5 34q7 9 14.5 7.5t15.5-7.5q7-7 9-14.5t-3-14.5q-14-21-32-36t-40-23-47-8zm-244-554h388v-10h-388zm0 591h388v-20h-388zm0 485h388v-5h-388zm0 586h388v-10h-388z"/><path transform="translate(66.948 21.378) scale(.014 -.014)" d="m307-17q-38 0-74.5 17t-68 48-55 73.5-37 93-13.5 106.5q0 34 7.5 64.5t21.5 55 34 42 44.5 27 52.5 9.5q53 0 86-22.5t48-59.5 15-79q0-34-11.5-69.5t-32.5-70-50-66.5q-41-48-96-86t-115.5-60.5-122.5-22.5q-9 0-14 7.5t-4.5 16.5 6.5 16.5 18 7.5q54 0 107 20t100.5 54 82.5 75q24 27 41 56.5t26.5 59.5 9.5 58q0 59-26 87.5t-72 28.5q-21 0-39.5-10.5t-32.5-30.5-21.5-47-7.5-60q0-66 18.5-119.5t48.5-91.5 65-58.5 68-20.5q30 0 53 12t41 29.5 31 32.5q8 9 16 8.5t17-7.5q8-6 10.5-13.5t-3.5-16.5q-16-24-42-45.5t-59-35-71-13.5zm-307-554h444v-10h-444zm0 591h444v-20h-444zm0 485h444v-5h-444zm0 586h444v-10h-444z"/><path transform="translate(77.364 21.378) scale(.014 -.014)" d="m471 428q-11-1-17.5 5.5t-6.5 19.5q0 12 5.5 18t16.5 6q71 2 132.5 19.5t111 47.5 84.5 70.5 54 90 19 105.5-22.5 99.5-65 74-104 46-139.5 15.5q-90 0-167.5-19.5t-139-56.5-105.5-91q-7-8-15-9.5t-18 5.5q-11 8-12.5 16.5t5.5 18.5q34 44 81 78.5t104.5 58.5 126 37 144.5 13q92 0 163.5-19t120.5-56 74.5-89.5 25.5-119.5q0-65-21-122t-60.5-103.5-96-81-126.5-54.5-152-23zm-251-446q-38 0-71.5 13.5t-59 36.5-43.5 53q-7 9-5 17.5t12 15.5q11 7 19 5.5t15-10.5q18-26 38-43.5t44.5-26.5 53.5-9q51 0 77 38.5t26 111.5v731q0 11 6.5 15.5t20.5 4.5 20.5-4.5 6.5-14.5v-738q0-60-18.5-104t-54-68-87.5-24zm-220-553h982v-10h-982zm0 591h982v-20h-982zm0 485h982v-5h-982zm0 586h982v-10h-982z"/><path transform="translate(91.112 21.378) scale(.014 -.014)" d="m326-18q-38 0-71 13t-59 36-45 54q-6 10-3.5 18.5t11.5 14.5q10 7 18.5 5.5t15.5-10.5q19-28 40.5-45.5t45-25.5 49.5-8q50 0 77 37.5t27 112.5v843h-173q-60 0-99.5-14t-63.5-42.5-36-75.5q-2-10-10-13.5t-20-0.5q-11 4-15 11t-1 17q9 41 29 72.5t51 53 72.5 32 94.5 10.5h563q8 0 12-5.5t4-18.5q0-12-4-19t-12-7h-338v-847q0-62-19-106.5t-54.5-68-86.5-23.5zm-326-553h852v-10h-852zm0 591h852v-20h-852zm0 485h852v-5h-852zm0 586h852v-10h-852z"/><path transform="translate(107.24 21.378) scale(.014 -.014)" d="m712-600q-45 0-77.5 19t-50 54-17.5 82 16 95 46.5 97.5 73.5 99.5 96 101q49 49 97.5 92t96 82 93.5 73q11 8 18 6.5t15-12.5q6-10 4.5-17.5t-11.5-14.5q-48-36-97-77t-98-85.5-98-93.5q-44-44-80-88t-62-87-39.5-85.5-13.5-82.5q0-52 24-80t69-28q64 0 97 58t33 168v671q-24-77-60.5-138.5t-83.5-105.5-101-67.5-115-23.5q-86 0-156.5 37t-121.5 106.5-78.5 165.5-27.5 213q0 84 14.5 157.5t42 136 66.5 112 89 84.5 108 53.5 124 18.5q63 0 118.5-15.5t103.5-46.5 89-78q9-9 8.5-16.5t-10.5-16.5q-10-10-18-9.5t-18 10.5q-37 40-80 66.5t-91 39.5-102 13q-57 0-108-16.5t-94-48-77-76.5-58-101.5-36.5-123.5-12.5-143q0-105 23.5-191.5t67.5-148.5 104.5-95 134.5-33q67 0 125.5 33.5t105.5 93.5 79 140.5 46 174.5q0 10 6.5 14.5t20.5 4.5q28 0 28-19v-828q0-92-21.5-154.5t-63.5-94-105-31.5zm-712 29h1120v-10h-1120zm0 591h1120v-20h-1120zm0 485h1120v-5h-1120zm0 586h1120v-10h-1120z"/><path transform="translate(122.92 21.378) scale(.014 -.014)" d="m270-18q-48 0-85 19.5t-57.5 60-20.5 104.5v330q0 9 6 13.5t19 4.5q14 0 20.5-4.5t6.5-13.5v-325q0-44 12.5-75.5t38.5-48.5 67-17q29 0 56 9t50 27.5 41 48.5 28 71v310q0 10 6.5 14.5t20.5 4.5q13 0 19-4.5t6-14.5v-403q0-20 4.5-34.5t14.5-22 24-7.5q10 0 20 3.5t20 10.5 20 18q6 6 13 5.5t13-7.5q5-5 6.5-12t-3.5-13q-11-15-27-27t-34-19-38-7-35 6-26 18-17 30-7 41v21q-15-34-36.5-56t-45.5-35-49.5-18.5-50.5-5.5zm-270-553h646v-10h-646zm0 591h646v-20h-646zm0 485h646v-5h-646zm0 586h646v-10h-646z"/><path transform="translate(131.96 21.378) scale(.014 -.014)" d="m192-17q-41 0-63 25t-22 74v414q0 10 6 14.5t19 4.5q14 0 20.5-4.5t6.5-14.5v-402q0-31 10-47t33-16q11 0 21 3.5t20 10.5 20 17q5 6 12 5.5t13-7.5q6-6 7-12.5t-3-13.5q-11-15-27.5-26.5t-35-18-37.5-6.5zm-59 700q-22 0-33 12t-11 37 11 37.5 33 12.5q21 0 32-12.5t11-37.5q1-25-10.5-37t-32.5-12zm-133-1254h300v-10h-300zm0 591h300v-20h-300zm0 485h300v-5h-300zm0 586h300v-10h-300z"/><path transform="translate(136.16 21.378) scale(.014 -.014)" d="m265-17q-55 0-99 29t-69.5 86-25.5 140q0 50 9.5 93t28.5 77.5 47 59 65 38 82 13.5q33 0 65.5-9.5t66.5-29.5v597q0 10 6.5 14.5t19.5 4.5q14 0 20-4.5t6-14.5v-986q0-31 11-46t33-15q10 0 20 3.5t19.5 11.5 19.5 18q6 6 12.5 5t12.5-8q6-6 7.5-12.5t-3.5-13.5q-11-15-27-26.5t-34-18-36-6.5q-29 0-48.5 11.5t-29 32-9.5 48.5q0 4 0 8.5t0 8.5q-23-45-52.5-68.5t-60-32-57.5-8.5zm-138 259q0-62 16.5-109t49-73.5 81.5-26.5q32 0 62.5 13.5t56 46 42.5 88.5v247q-35 24-67.5 33t-65.5 9q-32 0-59-9.5t-48.5-28.5-36.5-46.5-23-63.5-8-80zm-127-813h628v-10h-628zm0 591h628v-20h-628zm0 485h628v-5h-628zm0 586h628v-10h-628z"/><path transform="translate(144.96 21.378) scale(.014 -.014)" d="m307-17q-38 0-74.5 17t-68 48-55 73.5-37 93-13.5 106.5q0 34 7.5 64.5t21.5 55 34 42 44.5 27 52.5 9.5q53 0 86-22.5t48-59.5 15-79q0-34-11.5-69.5t-32.5-70-50-66.5q-41-48-96-86t-115.5-60.5-122.5-22.5q-9 0-14 7.5t-4.5 16.5 6.5 16.5 18 7.5q54 0 107 20t100.5 54 82.5 75q24 27 41 56.5t26.5 59.5 9.5 58q0 59-26 87.5t-72 28.5q-21 0-39.5-10.5t-32.5-30.5-21.5-47-7.5-60q0-66 18.5-119.5t48.5-91.5 65-58.5 68-20.5q30 0 53 12t41 29.5 31 32.5q8 9 16 8.5t17-7.5q8-6 10.5-13.5t-3.5-16.5q-16-24-42-45.5t-59-35-71-13.5zm-307-554h444v-10h-444zm0 591h444v-20h-444zm0 485h444v-5h-444zm0 586h444v-10h-444z"/><path transform="translate(151.17 21.378) scale(.014 -.014)" d="m-59-17q-13 0-19 7.5t-6 16.5 6 16.5 18 7.5q39 0 72.5 28.5t64 85 59 141.5 55.5 197l35-9q-27-124-56-216t-63.5-153-75.5-91.5-90-30.5zm357-2q-42 0-80 12t-67 34q-6 6-6.5 14.5t7.5 17.5q7 9 14.5 10.5t16.5-4.5q28-20 55.5-29t64.5-9q51 0 80.5 31.5t29.5 85.5q0 42-17 71.5t-44 51-57 41-57 43-44 55.5-17 79q0 26 10.5 49.5t34.5 23.5q13 0 20-7.5t7-20.5q0-11-5.5-30.5t-15.5-43.5q1-29 19-51.5t45-41 57-38.5 57-44.5 44-57.5 17-79q0-73-46-118t-123-45zm-298-552h550v-10h-550zm0 591h550v-20h-550zm0 485h550v-5h-550zm0 586h550v-10h-550z"/></svg>