<svg width="123.63" height="33.264" viewBox="0 0 123.63 33.264" xmlns="http://www.w3.org/2000/svg"><path transform="translate(0 24.128) scale(.016 -.016)" d="m436 404q-19 0-28.5 11t-9.5 31 9 30.5 28 10.5q83 1 150 22t114.5 61.5 73 99.5 25.5 136q0 92-48 141.5t-130 49.5q-48 0-89.5-20t-76-58-59.5-91-38-119.5-13-144.5v-550q0-13-10-20.5t-33-7.5q-22 0-33 7.5t-11 20.5v843q-19-36-43.5-65.5t-56-54.5-71.5-48q-17-9-30-5t-24 24q-10 18-7 31t22 22q58 31 98.5 73t66 96.5 38.5 119.5q4 20 16.5 25t34.5 5q21 0 32-6.5t11-20.5v-168q31 65 74 108t96 65 112 22q79 0 138-33t92-94 33-146q0-93-33-167t-93.5-126-143.5-80-183-30z"/><path transform="translate(14.704 24.128) scale(.016 -.016)" d="m-57-17q-19 0-28 11.5t-9 26 9 26 28 11.5q31 0 60.5 15.5t58.5 44 55 68.5 50 90 44.5 107 37 120.5 28 130.5 17.5 137 6 139q0 15 13 23t30.5 8 30.5-8 13-23q0-70-8-142t-22-144-34.5-140.5-45.5-132-55-120-62.5-101.5-68-78-73-51-75.5-18zm278 0q-26 0-45 7t-30.5 20-17 32.5-5.5 43.5v806q0 97 33.5 144.5t101.5 47.5q43 0 71.5-19.5t43-58 14.5-96.5q0-19-13-28t-30.5-9-30.5 9-13 28q0 32-5 53t-14.5 31-24.5 10-26-10.5-16-35-5-66.5v-796q0-13 4-21.5t11-12.5 16-4 16.5 3 14.5 8.5 14 10.5q8 7 18 2.5t17-12.5q8-10 8.5-20t-4.5-19q-11-15-28-26t-36-16.5-39-5.5z"/><path transform="translate(21.008 24.128) scale(.016 -.016)" d="m258-17q-57 0-101 27.5t-69 83.5-25 141q0 52 9.5 96t28.5 79 46 59 62 37 77 13q32 0 66-10.5t64-27.5v5q0 15 11 22t33 7 32.5-6.5 10.5-20.5v-392q0-13 4-21.5t11-12.5 16-4q10 0 16.5 2.5t13 7.5 15.5 12q7 6 16 3.5t18-10.5q9-10 10-21t-4-19q-11-16-28-27t-36.5-17-39.5-6q-23 0-40 5t-29 15.5-18.5 25.5-9.5 34q0 1-1 4.5t-1 7.5q-23-37-49.5-57t-54.5-27.5-54-7.5zm-107 256q0-55 13-94.5t39.5-60.5 66.5-21q29 0 55.5 10t49.5 33 41 60v242q-31 19-60 25.5t-61 6.5q-26 0-48-8t-40-24-30.5-40-19-56-6.5-73z"/><path transform="translate(30.96 24.128) scale(.016 -.016)" d="m517-10q20 15 40.5 29.5t38.5 26.5 32 20q15 8 26 2t16.5-18.5 3-26.5-16.5-22q-12-7-28-18t-33.5-23.5-35-25.5-33.5-25zm-167-574q-70 0-112 40t-42 112q0 35 10 72t30 74.5 50 75 71 75.5q17 15 33.5 29.5t34 28.5 35.5 26v127q-13-21-30.5-38.5t-39-29.5-45.5-18.5-51-6.5q-58 0-97 20.5t-58.5 61-19.5 101.5v203q0 42-13 56.5t-36 14.5q-17 0-28.5-9t-18-26-8.5-40q-1-16-9-23.5t-26-7.5q-16 0-26 7t-9 33q2 43 17.5 74.5t43 49 64.5 17.5q35 0 60.5-10t42-31 24.5-52 8-73v-183q0-35 11-59t33.5-36 55.5-12q28 0 52 9t43.5 25 34.5 38 25 47v311q0 13 10.5 19.5t32.5 6.5q21 0 32-6.5t11-19.5v-816q0-61-13.5-109t-39-81-62-50-81.5-17zm6 77q33 0 56 21t35.5 61.5 12.5 99.5v182q-13-9-24.5-17.5t-22-17-20.5-17.5q-26-28-46-57t-34-58-21-58-7-58q0-25 8-43.5t23.5-28 39.5-9.5z"/><path transform="translate(41.6 24.128) scale(.016 -.016)" d="m273-17q-36 0-64.5 11.5t-48.5 34.5-30.5 57-10.5 80v203q0 42-13 56.5t-36 14.5q-17 0-28.5-9t-18-26-8.5-40q-1-16-9-23.5t-26-7.5q-16 0-26 7t-9 33q2 43 17.5 74.5t43 49 64.5 17.5q35 0 60.5-10t42-31 24.5-52 8-73v-183q0-35 8.5-59t27-36 47.5-12q20 0 42 7.5t41.5 26.5 31.5 52.5 12 84.5v259q0 12 10.5 19t32.5 7q23 0 33-7t10-19v-278q0-46 4.5-75t15-45.5 27.5-23 41-6.5q20 0 39.5 6t37 19.5 31 35.5 21.5 52.5 8 71.5q0 38-5.5 75t-17 72.5-30.5 67.5q-11 18-6 31t19 20 29 7q14 0 21-6t14-18q15-23 29.5-59.5t24.5-82.5 10-98q0-42-10-82.5t-29-75-47.5-60.5-65.5-41-83-15q-33 0-62 11t-50.5 33.5-34.5 57.5q-17-33-42-55t-55-33.5-62-11.5z"/><path transform="translate(55.808 24.128) scale(.016 -.016)" d="m-55-17q-19 0-28.5 11.5t-10 26 8.5 26 28 11.5q31 0 57 24t47 71.5 37 117.5 26 162l60-9q-9-112-27.5-195t-46.5-137.5-65.5-81.5-85.5-27zm515 0q-26 0-45 7t-31 20.5-18 34-6 46.5q0 28 2.5 64t5 74 5 72.5 2.5 59.5q0 39-9.5 53.5t-35.5 14.5q-28 0-64-10t-70-19.5-55-9.5q-18 0-34.5 19.5t-27.5 48-11 55.5q0 18 6 32t17.5 22 29.5 8q33 0 44-23t11-54q0-7 0-14t-1-15q12 0 39 11t62.5 22 71.5 11q40 0 65-15t36.5-46.5 11.5-82.5q0-23-2.5-58.5t-5-75-5-74.5-2.5-58q0-26 7.5-35.5t22.5-9.5q10 0 18 3t15.5 8.5 14.5 10.5q8 6 18 2t17-12q8-10 8.5-20t-4.5-19q-11-15-27.5-26t-36-16.5-39.5-5.5z"/><path transform="translate(64.896 24.128) scale(.016 -.016)" d="m193-17q-52 0-75.5 27t-23.5 76v403q0 13 10.5 19.5t31.5 6.5q22 0 33-6.5t11-19.5v-393q0-20 9-29t22-9q11 0 18.5 3.5t14 8.5 14.5 11q6 5 16.5 1t16.5-12q8-9 9-19t-5-18q-11-16-27.5-27t-36-17-38.5-6zm-55 686q-28 0-42.5 15.5t-14.5 46.5q0 32 14.5 48t42.5 16q27 0 41-16t14-48q1-31-13.5-46.5t-41.5-15.5z"/><path transform="translate(69.696 24.128) scale(.016 -.016)" d="m243-17q-42 0-69.5 15.5t-41 44-13.5 68.5v309h-78q-15 0-21 9t-6 31q0 23 6 31.5t21 8.5h78v204q0 13 10.5 19.5t31.5 6.5q22 0 33-6.5t11-19.5v-204h126q15 0 21.5-8.5t6.5-31.5q0-22-6.5-31t-21.5-9h-126v-299q0-34 9.5-48.5t34.5-14.5q23 0 39.5 11t34.5 27q12 11 22.5 7.5t19.5-12.5q11-10 11.5-20.5t-5.5-19.5q-17-25-38-40t-44-21.5-46-6.5z"/><path transform="translate(75.904 24.128) scale(.016 -.016)" d="m300-17q-40 0-77.5 17t-69 48-55 73.5-36.5 93-13 106.5q0 34 8 64.5t23 55 36 42 47 27 56 9.5q57 0 92.5-23t51.5-60.5 16-80.5q0-34-12.5-70t-34.5-70.5-51-66.5q-43-48-98-85.5t-116.5-58.5-126.5-21q-14 0-21 11.5t-5.5 26 12.5 26 33 11.5q46 0 94.5 18t92.5 48 75 65q22 25 37.5 51.5t23.5 53.5 8 52q0 53-20 73.5t-54 20.5q-17 0-31.5-7.5t-25.5-23-17-37.5-6-51q0-57 16.5-104.5t43.5-81.5 57.5-53 57.5-19q19 0 37 7.5t37.5 22.5 39.5 37q14 16 27 15.5t27-11.5 16.5-23-6.5-26q-25-38-58.5-60.5t-67.5-32-63-9.5z"/><path transform="translate(87.808 24.128) scale(.016 -.016)" d="m450-17q-88 0-158 35t-119 102-75 163.5-26 218.5q0 84 16 159.5t45 140 70.5 116 93.5 88 112.5 55.5 128.5 19q80 0 147-25t119.5-77 84.5-132q8-18 9-34t-21-28q-24-14-36-5t-20 27q-30 67-74 108.5t-97 61-113 19.5q-54 0-102.5-16.5t-90-47-74.5-74.5-56.5-98.5-36-119-12.5-136.5q0-103 19-183.5t56.5-137 91.5-85.5 123-29q49 0 94.5 20t86.5 60.5 74.5 101.5 59 143.5 38.5 187.5q0 14 11 20.5t33 6.5 33-6.5 11-20.5l-1-397q0-30 4.5-52t13.5-36.5 22.5-21.5 31.5-7 33 7 28.5 20 24.5 31q11 17 23.5 20.5t29.5-7.5q18-11 19.5-25t-8.5-30q-14-24-31-43t-37-31.5-41.5-19-45.5-6.5q-50 0-84.5 22t-52 67-17.5 111v124q-27-76-64.5-136t-83.5-102-98.5-64-111.5-22z"/><path transform="translate(106.1 24.128) scale(.016 -.016)" d="m929-19q-39 0-71 16.5t-61 48.5-59.5 77-66.5 103q-28 45-48.5 77.5t-35 57-27.5 46.5-26 47q-31-1-53 8.5t-33.5 24.5-11.5 31q0 22 16.5 36t44.5 14q22 0 43.5-10t36.5-25q42 9 79 26.5t66 43 50.5 57 33 69.5 11.5 81q0 57-20.5 99.5t-60 65-95.5 22.5q-51 0-95.5-19t-81.5-55-64-89-41.5-120.5-14.5-149.5v-550q0-13-10-20.5t-33-7.5q-22 0-33 7.5t-11 20.5v843q-19-36-43.5-65.5t-56-54.5-71.5-48q-17-8-30-4.5t-24 23.5q-10 18-7 31t22 22q58 31 98.5 73t66 96.5 38.5 119.5q4 20 16.5 25t34.5 5q21 0 32-6.5t11-20.5v-175q24 50 56 88t70.5 63 82.5 38 92 13q82 0 141-32.5t90.5-92 31.5-139.5q0-51-13-97t-38-84.5-60.5-70-80.5-55-99-38.5q10-19 20-36.5t22.5-38.5 30.5-49 43-67q37-58 64-97t48-62.5 36-36 27.5-16.5 23.5-4q18 0 33 7.5t28.5 21.5 27.5 31q8 10 20 10t26-10 17.5-23-4.5-24q-22-31-48-52.5t-53-32.5-50-11z"/></svg>