<svg width="124.96" height="35.632" viewBox="0 0 124.96 35.632" xmlns="http://www.w3.org/2000/svg"><path transform="translate(0 25.408) scale(.016 -.016)" d="m455 432q-19-1-28.5 10t-9.5 32q0 19 8.5 29.5t28.5 10.5q88 1 159 24t121.5 66.5 77.5 107 27 145.5q0 99-50.5 152.5t-137.5 53.5q-50 0-94.5-21.5t-80.5-62-62.5-97.5-41-128.5-14.5-155.5v-584q0-13-10-20.5t-33-7.5q-22 0-33 7.5t-11 20.5v902q-19-39-45.5-71.5t-60-60-76.5-51.5q-17-10-30-6t-24 24q-10 18-7 31t22 23q61 32 104 78t70.5 104.5 40.5 128.5q5 19 16.5 24.5t33.5 5.5q21 0 32-6.5t11-20.5v-186q33 71 78.5 118t101.5 71 119 24q82 0 143.5-34.5t95.5-99.5 34-154q0-99-34-177t-97.5-133-151-84.5-192.5-31.5z"/><path transform="translate(15.44 25.408) scale(.016 -.016)" d="m-57-17q-19 0-28 11.5t-9 26 9 26 28 11.5q31 0 61 16t59 46.5 56 73 51 95 44.5 114 37.5 129 28.5 140.5 17.5 148.5 6 151.5q0 16 13 24.5t30.5 8.5 30.5-8.5 13-24.5q0-77-8-156t-22.5-156.5-34.5-151-45.5-140.5-55.5-126-63-106.5-69-81.5-73.5-52.5-76.5-18.5zm278 0q-26 0-45 7t-30.5 20-17 32.5-5.5 43.5v871q0 97 34.5 145t102.5 48q44 0 73-20t43.5-59.5 14.5-98.5q0-19-13-28t-30.5-9-30.5 9-13 28q0 34-5 55.5t-15 32-26 10.5-27-11-16.5-35.5-5.5-66.5v-861q0-13 4-21.5t11-12.5 16-4 16.5 3 14.5 8.5 14 10.5q8 7 18 2.5t17-12.5q8-10 8.5-20t-4.5-19q-11-15-28-26t-36-16.5-39-5.5z"/><path transform="translate(21.744 25.408) scale(.016 -.016)" d="m258-17q-57 0-101 27.5t-69 83.5-25 141q0 52 9.5 96t28.5 79 46 59 62 37 77 13q32 0 66-10.5t64-27.5v5q0 15 11 22t33 7 32.5-6.5 10.5-20.5v-392q0-13 4-21.5t11-12.5 16-4q10 0 16.5 2.5t13 7.5 15.5 12q7 6 16 3.5t18-10.5q9-10 10-21t-4-19q-11-16-28-27t-36.5-17-39.5-6q-23 0-40 5t-29 15.5-18.5 25.5-9.5 34q0 1-1 4.5t-1 7.5q-23-37-49.5-57t-54.5-27.5-54-7.5zm-107 256q0-55 13-94.5t39.5-60.5 66.5-21q29 0 55.5 10t49.5 33 41 60v242q-31 19-60 25.5t-61 6.5q-26 0-48-8t-40-24-30.5-40-19-56-6.5-73z"/><path transform="translate(31.696 25.408) scale(.016 -.016)" d="m515-20q21 18 41 34t38.5 29 32.5 22q14 8 25.5 3t17.5-17.5 3.5-26.5-15.5-22q-12-8-27.5-20t-33-25.5-34.5-28-34-28.5zm-162-630q-72 0-114 42t-42 119q0 39 9.5 80t29.5 83 50 84.5 70 83.5q17 16 33.5 32.5t34.5 32 36 29.5v140q-13-21-30.5-38.5t-39-29.5-45.5-18.5-51-6.5q-58 0-97 20.5t-58.5 61-19.5 101.5v203q0 42-13 56.5t-36 14.5q-17 0-28.5-9t-18-26-8.5-40q-1-16-9-23.5t-26-7.5q-16 0-26 7t-9 33q2 43 17.5 74.5t43 49 64.5 17.5q35 0 60.5-10t42-31 24.5-52 8-73v-183q0-35 11-59t33.5-36 55.5-12q28 0 52 9t43.5 25 34.5 38 25 47v311q0 13 10.5 19.5t32.5 6.5q21 0 32-6.5t11-19.5v-886q0-60-13.5-107t-38.5-79.5-61-49.5-80-17zm5 77q33 0 55.5 20.5t34.5 60.5 12 97v235q-13-9-24-18.5t-20.5-18.5-19.5-18q-27-32-47-65t-34.5-67-21.5-68.5-7-67.5q0-28 8-48.5t24-31 40-10.5z"/><path transform="translate(42.336 25.408) scale(.016 -.016)" d="m273-17q-36 0-64.5 11.5t-48.5 34.5-30.5 57-10.5 80v203q0 42-13 56.5t-36 14.5q-17 0-28.5-9t-18-26-8.5-40q-1-16-9-23.5t-26-7.5q-16 0-26 7t-9 33q2 43 17.5 74.5t43 49 64.5 17.5q35 0 60.5-10t42-31 24.5-52 8-73v-183q0-35 8.5-59t27-36 47.5-12q20 0 42 7.5t41.5 26.5 31.5 52.5 12 84.5v259q0 12 10.5 19t32.5 7q23 0 33-7t10-19v-278q0-46 4.5-75t15-45.5 27.5-23 41-6.5q20 0 39.5 6t37 19.5 31 35.5 21.5 52.5 8 71.5q0 38-5.5 75t-17 72.5-30.5 67.5q-11 18-6 31t19 20 29 7q14 0 21-6t14-18q15-23 29.5-59.5t24.5-82.5 10-98q0-42-10-82.5t-29-75-47.5-60.5-65.5-41-83-15q-33 0-62 11t-50.5 33.5-34.5 57.5q-17-33-42-55t-55-33.5-62-11.5z"/><path transform="translate(56.544 25.408) scale(.016 -.016)" d="m-55-17q-19 0-28.5 11.5t-10 26 8.5 26 28 11.5q31 0 57 24t47 71.5 37 117.5 26 162l60-9q-9-112-27.5-195t-46.5-137.5-65.5-81.5-85.5-27zm515 0q-26 0-45 7t-31 20.5-18 34-6 46.5q0 28 2.5 64t5 74 5 72.5 2.5 59.5q0 39-9.5 53.5t-35.5 14.5q-28 0-64-10t-70-19.5-55-9.5q-18 0-34.5 19.5t-27.5 48-11 55.5q0 18 6 32t17.5 22 29.5 8q33 0 44-23t11-54q0-7 0-14t-1-15q12 0 39 11t62.5 22 71.5 11q40 0 65-15t36.5-46.5 11.5-82.5q0-23-2.5-58.5t-5-75-5-74.5-2.5-58q0-26 7.5-35.5t22.5-9.5q10 0 18 3t15.5 8.5 14.5 10.5q8 6 18 2t17-12q8-10 8.5-20t-4.5-19q-11-15-27.5-26t-36-16.5-39.5-5.5z"/><path transform="translate(65.632 25.408) scale(.016 -.016)" d="m193-17q-52 0-75.5 27t-23.5 76v403q0 13 10.5 19.5t31.5 6.5q22 0 33-6.5t11-19.5v-393q0-20 9-29t22-9q11 0 18.5 3.5t14 8.5 14.5 11q6 5 16.5 1t16.5-12q8-9 9-19t-5-18q-11-16-27.5-27t-36-17-38.5-6zm-55 686q-28 0-42.5 15.5t-14.5 46.5q0 32 14.5 48t42.5 16q27 0 41-16t14-48q1-31-13.5-46.5t-41.5-15.5z"/><path transform="translate(70.432 25.408) scale(.016 -.016)" d="m243-17q-42 0-69.5 15.5t-41 44-13.5 68.5v309h-78q-15 0-21 9t-6 31q0 23 6 31.5t21 8.5h78v204q0 13 10.5 19.5t31.5 6.5q22 0 33-6.5t11-19.5v-204h126q15 0 21.5-8.5t6.5-31.5q0-22-6.5-31t-21.5-9h-126v-299q0-34 9.5-48.5t34.5-14.5q23 0 39.5 11t34.5 27q12 11 22.5 7.5t19.5-12.5q11-10 11.5-20.5t-5.5-19.5q-17-25-38-40t-44-21.5-46-6.5z"/><path transform="translate(76.64 25.408) scale(.016 -.016)" d="m300-17q-40 0-77.5 17t-69 48-55 73.5-36.5 93-13 106.5q0 34 8 64.5t23 55 36 42 47 27 56 9.5q57 0 92.5-23t51.5-60.5 16-80.5q0-34-12.5-70t-34.5-70.5-51-66.5q-43-48-98-85.5t-116.5-58.5-126.5-21q-14 0-21 11.5t-5.5 26 12.5 26 33 11.5q46 0 94.5 18t92.5 48 75 65q22 25 37.5 51.5t23.5 53.5 8 52q0 53-20 73.5t-54 20.5q-17 0-31.5-7.5t-25.5-23-17-37.5-6-51q0-57 16.5-104.5t43.5-81.5 57.5-53 57.5-19q19 0 37 7.5t37.5 22.5 39.5 37q14 16 27 15.5t27-11.5 16.5-23-6.5-26q-25-38-58.5-60.5t-67.5-32-63-9.5z"/><path transform="translate(88.544 25.408) scale(.016 -.016)" d="m675-12q-49 0-94.5 11t-76.5 28q-22 13-25.5 28t9.5 37q11 17 24 20t31-7q34-18 72-26t83-8q58 0 108 21t87.5 59 58.5 88.5 21 109.5q0 73-32 123.5t-93 76.5-151 26q-22-9-45.5-15.5t-42.5-6.5q-27 0-45 15t-18 39q0 17 8 30t24 20.5 39 7.5q24 0 43.5-4.5t35.5-10.5q41 7 75.5 20.5t61 32.5 44 44.5 26.5 57.5 9 70q0 58-25.5 100t-74.5 65-119 23q-53 0-102.5-18.5t-91.5-56-73.5-93-49.5-130-18-167.5v-584q0-13-10-20.5t-33-7.5q-22 0-33 7.5t-11 20.5v902q-19-39-45.5-71.5t-60-60-76.5-51.5q-17-9-31-5.5t-23 23.5q-10 18-7 31t22 23q61 32 104 78t70.5 104.5 40.5 128.5q5 19 16.5 24.5t33.5 5.5q21 0 32-6.5t11-20.5v-196q28 56 66 98t83 69.5 96 41.5 104 14q98 0 163.5-33.5t98.5-92 33-134.5q0-54-13.5-97.5t-39-76-63-55.5-85.5-37v-2q77 0 136.5-34t93.5-94 34-138-29-144-82-115.5-124-77-155-27.5z"/><path transform="translate(106.56 25.408) scale(.016 -.016)" d="m976-19q-41 0-74 17.5t-63.5 51.5-63 82-70.5 110q-30 47-51 81t-36 60-28.5 50-28.5 50q-32-1-55 8.5t-35.5 25-12.5 32.5q0 23 17.5 37.5t45.5 14.5q23 0 45-10.5t37-26.5q46 9 85.5 28t71 46 54 61 35 74.5 12.5 86.5q0 62-22 107.5t-64 70.5-103 25q-53 0-100-20t-86-59-67.5-95.5-44.5-129.5-16-161v-584q0-13-10-20.5t-33-7.5q-22 0-33 7.5t-11 20.5v902q-19-39-45.5-71.5t-60-60-76.5-51.5q-17-9-30-5.5t-24 23.5q-10 18-7 31t22 23q61 32 104 78t70.5 104.5 40.5 128.5q5 19 16.5 24.5t33.5 5.5q21 0 32-6.5t11-20.5v-193q25 55 59 96t75 68.5 87.5 41.5 97.5 14q86 0 147.5-34.5t94.5-97.5 33-147q0-55-14-103.5t-40-89.5-63.5-74-85.5-58-104-41q10-20 20.5-38.5t24-41 32.5-52.5 45-72q39-62 68-104t51-68 38-39 30-17.5 26-4.5q19 0 35 8t30.5 23 29.5 34q8 10 20 10t27-10q14-10 16.5-22.5t-5.5-24.5q-22-32-49-55t-55-34.5-53-11.5z"/></svg>