<svg width="162.44" height="30.688" viewBox="0 0 162.44 30.688" xmlns="http://www.w3.org/2000/svg"><path transform="translate(0 21.966) scale(.014 -.014)" d="m507 440q-13-1-19 6t-3 21q2 12 8 18t17 7q113 8 207.5 43t164.5 92.5 108 132.5 38 163q0 72-36.5 114t-103.5 42q-45 0-94-22t-97.5-63.5-94-100-85-132-70.5-159.5l-193-597q-3-9-10-14t-22-5q-14 0-20.5 5t-2.5 15l313 966q-32-42-71-79t-85-70-99-63q-12-6-20-2.5t-13 15.5q-5 11-2.5 19.5t13.5 13.5q70 37 128 82t106 100.5 84 121.5q6 10 13.5 14.5t21.5 4.5 20-5.5 2-15.5l-77-241q53 84 114 143t125 89.5 127 30.5q57 0 99-25.5t65-71 23-106.5q0-100-43-185.5t-121-150.5-184-104-231-47zm-507-1045h939v-10h-939zm0 625h939v-20h-939zm0 485h939v-5h-939zm0 620h939v-10h-939z"/><path transform="translate(13.146 21.966) scale(.014 -.014)" d="m-159-17q-11 0-14.5 7.5t-1 16.5 10 16.5 18.5 7.5q30 0 72 25t91 69 101.5 103 106 128 103.5 142.5 92.5 147.5 75 143.5 50.5 129.5 18 105q0 11 8 17t19 6 19-6 8-17q0-47-19-109.5t-53-135-79.5-150-98.5-155-110.5-149.5-115.5-134.5-113-109-103-72.5-85-26zm316 1q-27 0-43.5 10.5t-23.5 29-4.5 45 12.5 59.5l265 815q33 100 71.5 145.5t90.5 45.5q30 0 50.5-13.5t31.5-38 11-58.5q0-13-8-19t-19-6-19 6-8 19q0 19-5 32t-15 20-25 7q-19 0-36.5-15.5t-34.5-49.5-35-90l-264-818q-9-26-10-43t5.5-26 20.5-9q18 0 34.5 10t31 26 25.5 31q5 7 11.5 9.5t15.5-3.5q11-7 12-14t-3-15q-12-19-31.5-40.5t-46-36.5-57.5-15zm-157-589h394v-10h-394zm0 625h394v-20h-394zm0 485h394v-5h-394zm0 620h394v-10h-394z"/><path transform="translate(18.662 21.966) scale(.014 -.014)" d="m177-17q-39 0-67.5 19t-44 55-15.5 84q0 46 13 97.5t39.5 101 66 90.5 91.5 65 116 24q33 0 67.5-10.5t63.5-29.5l5 17q4 11 11 15t20 4q18 0 22.5-7.5t0.5-19.5l-125-383q-8-24-8.5-40.5t6.5-25 21-8.5q16 0 32.5 10t30.5 25.5 25 31.5q6 8 12.5 10t15.5-4q11-7 12-14t-4-15q-11-18-30.5-40t-45-37-57.5-15q-23 0-38 8t-23 22.5-9 34 4 42.5q4 16 9 31t9 31q-41-62-81-99t-76.5-53.5-68.5-16.5zm-70 163q0-34 9.5-59.5t28-39.5 46.5-14q37 0 79 28.5t87 86 90 145.5l46 142q-36 21-65.5 28t-56.5 7q-53 0-95-21.5t-73.5-56.5-53-77.5-32-86.5-10.5-82zm-107-751h622v-10h-622zm0 625h622v-20h-622zm0 485h622v-5h-622zm0 620h622v-10h-622z"/><path transform="translate(27.37 21.966) scale(.014 -.014)" d="m412-42q27 21 54.5 39t54.5 33.5 50 27.5q11 6 18 2.5t10-11.5 0-17-12-13q-22-12-44.5-25.5t-46-28.5-47-31.5-46.5-34.5zm-316-592q-53 0-81 30.5t-28 79.5q0 44 17.5 89.5t50.5 91.5 80 93 107 92q22 18 44.5 34t44 31 43.5 29l75 230q-31-51-64.5-86t-66-56-62.5-30.5-56-9.5q-43 0-72 20.5t-36.5 62 13.5 105.5l74 222q12 39 6.5 57t-28.5 18q-20 0-39.5-12.5t-39.5-37-42-60.5q-6-8-12-10.5t-17 1.5q-12 4-14 12t3 17q22 40 48.5 71t57 49 64.5 18q25 0 42.5-9t26-26.5 7.5-42-11-54.5l-72-220q-14-42-13-71.5t18-44.5 50-15q30 0 64.5 16t73 50.5 76 90 73.5 134.5l55 169q4 12 10.5 16.5t19.5 4.5q17 0 22.5-7t0.5-20l-284-873q-20-61-43-107.5t-51-78-61.5-47.5-73.5-16zm8 49q35 0 65 24t56 70 47 111l79 244q-14-9-29-20t-29.5-21.5-28.5-21.5q-55-45-96-87t-69-82.5-42-77.5-14-72q0-20 7-35.5t20.5-23.5 33.5-8zm-104-20h665v-10h-665zm0 625h665v-20h-665zm0 485h665v-5h-665zm0 620h665v-10h-665z"/><path transform="translate(36.68 21.966) scale(.014 -.014)" d="m178-19q-40 0-65 15t-36.5 42-10 63 14.5 79l103 315q4 11 10.5 15.5t20.5 4.5q17 0 21.5-5.5t0.5-17.5l-103-317q-13-41-13.5-74t15-52 50.5-19q31 0 62 16.5t59.5 46 52.5 68.5 41 84l81 249q4 11 10.5 15.5t19.5 4.5q17 0 22-5.5t1-17.5l-94-290q-12-37-17-68t0-54 21-36 46-13q35 0 67.5 17t60.5 46 51 65.5 39 76.5 24 78q7 28 9 55.5t-1.5 56.5-13.5 59q-3 12-0.5 19.5t9 11.5 15.5 4q10 0 16.5-6t11.5-23q10-25 13.5-55t1.5-60.5-9-59.5q-8-45-26-91.5t-45.5-90-63-78-78-54.5-90.5-20q-37 0-63 14.5t-38.5 42.5-9.5 69q-26-40-57-68.5t-66-43-70-14.5zm-178-586h859v-10h-859zm0 625h859v-20h-859zm0 485h859v-5h-859zm0 620h859v-10h-859z"/><path transform="translate(48.706 21.966) scale(.014 -.014)" d="m76-15q-12 0-19.5 5t-4.5 16l126 388q13 39 7.5 57t-28.5 18q-20 0-39.5-12.5t-39.5-37-42-60.5q-6-8-12-10.5t-17 1.5q-12 4-14 12t3 17q22 40 48.5 71t57 49 64.5 18q23 0 39-7.5t24.5-22 10-34.5-3.5-44l-21-65q29 51 55.5 85t50 54 44 28 37.5 8q12 0 18.5-5t6.5-18q0-37 5-58t16-30 26-9q25 0 57 13.5t80 44.5q8 5 15 2.5t11-9.5 4-15-6-12q-47-33-88-50t-76-17q-24 0-43.5 10t-31 35-11.5 66q-22-3-47.5-23t-54-56-58-87-59.5-117l-59-180q-3-10-9.5-14.5t-21.5-4.5zm-76-590h551v-10h-551zm0 625h551v-20h-551zm0 485h551v-5h-551zm0 620h551v-10h-551z"/><path transform="translate(56.42 21.966) scale(.014 -.014)" d="m124-16q-47 0-64.5 35t6.5 107l120 368q4 12 10 16.5t20 4.5q16 0 22-6t2-18l-124-380q-13-41-8.5-60t25.5-19q16 0 32.5 10t31.5 26 26 31q5 7 11.5 9.5t15.5-3.5q11-7 12-14t-4-15q-13-22-33.5-43t-45.5-35-55-14zm150 699q-17 0-28.5 9t-11.5 27q0 24 15 43.5t42 19.5q18 0 29-9t11-28q0-23-14.5-42.5t-42.5-19.5zm-274-1288h300v-10h-300zm0 625h300v-20h-300zm0 485h300v-5h-300zm0 620h300v-10h-300z"/><path transform="translate(60.62 21.966) scale(.014 -.014)" d="m161-16q-36 0-56 16t-23 50 15 87l102 315h-83q-10 0-12.5 6.5t0.5 18.5q4 12 10 17.5t16 5.5h85l68 209q4 12 10.5 16.5t20.5 4.5q16 0 22-6t2-18l-68-206h127q11 0 13.5-6t-1.5-18q-3-13-9.5-18.5t-16.5-5.5h-128l-108-329q-16-49-9-70t33-21q30 0 59 22t51 55q6 8 12.5 10t16.5-5q10-6 11.5-13t-3.5-14q-16-27-39.5-50.5t-53-38-64.5-14.5zm-161-589h388v-10h-388zm0 625h388v-20h-388zm0 485h388v-5h-388zm0 620h388v-10h-388z"/><path transform="translate(66.052 21.966) scale(.014 -.014)" d="m248-18q-35 0-64 12t-52.5 33-39.5 50-25 64-9 74q0 38 9 79.5t27.5 81.5 45.5 72.5 63 51.5 82 19q34 0 57-13.5t34.5-36.5 11.5-55q0-52-26.5-102t-73-98-106.5-92q-54-41-112-72t-114.5-49-109.5-18q-9 0-12.5 7.5t-1.5 16.5 9 16.5 19 7.5q47 0 98 17.5t102.5 47 99.5 66.5 87 77 62.5 82 23.5 85q0 30-15 47t-45 17q-39 0-69-26t-50.5-65.5-30.5-83-10-79.5q0-41 10-74.5t28.5-58.5 45.5-38.5 60-13.5q34 0 65 13t59.5 34 52.5 44q8 9 16.5 8t15.5-8 8.5-15-6.5-18q-25-27-59-51.5t-75-40-86-15.5zm-248-587h444v-10h-444zm0 625h444v-20h-444zm0 485h444v-5h-444zm0 620h444v-10h-444z"/><path transform="translate(76.468 21.966) scale(.014 -.014)" d="m494-19q-73 0-131.5 25.5t-99.5 74-62.5 117.5-21.5 156q0 94 21 187.5t60 180 94.5 161 126 130 153 86.5 174.5 31q63 0 114-14.5t91.5-43 69.5-71.5q7-10 4-17.5t-15-15.5q-11-6-18-3.5t-18 13.5q-41 50-98.5 74.5t-135.5 24.5q-80 0-153-28.5t-135.5-80-113.5-120-87-149-55.5-167.5-19.5-175q0-75 17.5-135t51-101.5 82-63.5 111.5-22q47 0 92.5 13t89.5 38.5 87 63.5 86 87q8 9 16 9.5t17-9.5q10-8 10-16.5t-9-19.5q-63-74-129.5-123t-133-73-132.5-24zm-494-586h938v-10h-938zm0 625h938v-20h-938zm0 485h938v-5h-938zm0 620h938v-10h-938z"/><path transform="translate(89.6 21.966) scale(.014 -.014)" d="m454-17q-78 0-122 34t-53 97.5 20 152.5l228 705q17 52 8 79.5t-47 27.5q-26 0-55-15.5t-61-46-67-77.5q-9-11-18-12t-19 7q-10 7-10 15.5t8 19.5q40 54 79.5 89.5t78 53.5 73.5 18q63 0 85.5-43.5t-3.5-123.5l-224-695q-25-77-21.5-129t36.5-78 96-26q45 0 92 18.5t93 52.5 89.5 81.5 82 107 69.5 128.5l227 686q3 10 10.5 14.5t21.5 4.5q15 0 20.5-4.5t2.5-15.5l-305-926q-17-52-18.5-84.5t11-48 37.5-15.5q32 0 68.5 32.5t76.5 96.5q7 12 15 14t18-5q11-6 13-14t-5-19q-22-38-46-67t-48.5-49.5-49.5-31-50-10.5q-39 0-62.5 20t-29.5 58 8 93q8 25 16 50t16 49q-39-61-84.5-110.5t-95.5-85-102-54.5-103-19zm-454-588h1156v-10h-1156zm0 625h1156v-20h-1156zm0 485h1156v-5h-1156zm0 620h1156v-10h-1156z"/><path transform="translate(109.98 21.966) scale(.014 -.014)" d="m482-634q-35 0-63 14.5t-43.5 42-15.5 65.5q0 53 27.5 108.5t79 113 124 117.5 162.5 123q57 41 112.5 77t107.5 68 97 58q10 6 17.5 4.5t13.5-13.5q7-11 4-18.5t-13-13.5q-55-32-113-68.5t-116.5-75.5-115.5-80q-81-58-142.5-111t-103.5-102-63-95-21-90q0-34 19.5-54t51.5-20q62 0 112.5 61t88.5 180l216 669q-46-75-97-133t-105-97-111-59.5-115-20.5q-68 0-123 24.5t-94.5 71-60.5 112.5-21 147q0 99 23 193.5t65.5 179 100.5 155.5 128.5 122.5 149.5 80 162 28.5q65 0 119.5-14.5t100-42.5 80.5-68q7-8 6-16t-11-17q-10-8-18.5-6.5t-17.5 10.5q-35 34-74.5 56.5t-85.5 33.5-102 11q-75 0-146-26.5t-134.5-75-116-114.5-91-145-59.5-166-21-177q0-71 17.5-127.5t50-95.5 78-60 101.5-21q61 0 124 28.5t125.5 85 123 142.5 114.5 202q4 11 11.5 15.5t21.5 4.5q30 0 23-20l-283-877q-30-94-69-157t-86-95-106-32zm-482 29h1132v-10h-1132zm0 625h1132v-20h-1132zm0 485h1132v-5h-1132zm0 620h1132v-10h-1132z"/><path transform="translate(125.83 21.966) scale(.014 -.014)" d="m175-17q-44 0-73.5 20.5t-36.5 62 14 105.5l106 323q4 12 10.5 16.5t20.5 4.5q16 0 22-6t2-18l-108-327q-14-42-13-71.5t18.5-44.5 50.5-15q30 0 65.5 16t73.5 51 75.5 91 73.5 136l54 168q4 13 10 17t20 4q16 0 22.5-5.5t2.5-17.5l-126-384q-8-26-9-43.5t5.5-26 20.5-8.5q17 0 33.5 10.5t31 26 25.5 30.5q5 8 12 10t17-5q10-6 11-13t-4-14q-12-19-31.5-40.5t-45.5-37-57-15.5q-24 0-39.5 8.5t-23 24-7.5 37.5 7 50l21 66q-31-52-64.5-87.5t-66.5-57.5-63.5-31.5-56.5-9.5zm-175-588h646v-10h-646zm0 625h646v-20h-646zm0 485h646v-5h-646zm0 620h646v-10h-646z"/><path transform="translate(134.88 21.966) scale(.014 -.014)" d="m124-16q-47 0-64.5 35t6.5 107l120 368q4 12 10 16.5t20 4.5q16 0 22-6t2-18l-124-380q-13-41-8.5-60t25.5-19q16 0 32.5 10t31.5 26 26 31q5 7 11.5 9.5t15.5-3.5q11-7 12-14t-4-15q-13-22-33.5-43t-45.5-35-55-14zm150 699q-17 0-28.5 9t-11.5 27q0 24 15 43.5t42 19.5q18 0 29-9t11-28q0-23-14.5-42.5t-42.5-19.5zm-274-1288h300v-10h-300zm0 625h300v-20h-300zm0 485h300v-5h-300zm0 620h300v-10h-300z"/><path transform="translate(139.08 21.966) scale(.014 -.014)" d="m186-17q-61 0-95.5 42.5t-34.5 115.5q0 46 13.5 98t40 101.5 66 90 91.5 64.5 115 24q25 0 50.5-5.5t49.5-17 46-28.5l-14-45q-39 28-72.5 37.5t-64.5 9.5q-52 0-94-21t-73.5-56-53-78-32-87.5-10.5-84.5q0-33 9-58t28-38.5 48-13.5q37 0 80.5 26t90 72.5 94 107.5 93 132 87 146 76 148.5 60.5 141 40 123 14 92.5q0 30-10 45.5t-30 15.5q-19 0-35.5-15.5t-32-49.5-33.5-90l-246-763q-12-36-13.5-66.5t8.5-48.5 34-18q19 0 37.5 10t34 25.5 27.5 31.5q5 7 11.5 9.5t16.5-3.5q10-7 11.5-14t-3.5-15q-13-19-34-40.5t-49-36.5-61-15q-32 0-52.5 15.5t-29.5 42-7 60.5 14 70l250 771q33 100 70.5 145.5t87.5 45.5q29 0 48.5-13.5t29.5-38.5 10-60q0-40-15-98t-42.5-129-65-148.5-82-156-94.5-153-102.5-138.5-104.5-112.5-101.5-76-94.5-27.5zm-186-588h675v-10h-675zm0 625h675v-20h-675zm0 485h675v-5h-675zm0 620h675v-10h-675z"/><path transform="translate(148.53 21.966) scale(.014 -.014)" d="m248-18q-35 0-64 12t-52.5 33-39.5 50-25 64-9 74q0 38 9 79.5t27.5 81.5 45.5 72.5 63 51.5 82 19q34 0 57-13.5t34.5-36.5 11.5-55q0-52-26.5-102t-73-98-106.5-92q-54-41-112-72t-114.5-49-109.5-18q-9 0-12.5 7.5t-1.5 16.5 9 16.5 19 7.5q47 0 98 17.5t102.5 47 99.5 66.5 87 77 62.5 82 23.5 85q0 30-15 47t-45 17q-39 0-69-26t-50.5-65.5-30.5-83-10-79.5q0-41 10-74.5t28.5-58.5 45.5-38.5 60-13.5q34 0 65 13t59.5 34 52.5 44q8 9 16.5 8t15.5-8 8.5-15-6.5-18q-25-27-59-51.5t-75-40-86-15.5zm-248-587h444v-10h-444zm0 625h444v-20h-444zm0 485h444v-5h-444zm0 620h444v-10h-444z"/><path transform="translate(154.74 21.966) scale(.014 -.014)" d="m-159-17q-11 0-14.5 7.5t-1.5 16.5 10 16.5 20 7.5q35 0 77 28.5t92 86.5 108.5 144.5 125.5 203.5l30-16q-69-128-129.5-221.5t-115-154-104.5-90-98-29.5zm379-2q-44 0-81.5 12.5t-59.5 30.5q-8 8-8 16.5t8 16.5q9 9 16 9t18-8q22-13 49.5-22t58.5-9q61 0 94 32t33 88q0 27-7.5 52t-19.5 49.5-25.5 49.5-25.5 52.5-19.5 58.5-7.5 67q0 40 14.5 59t38.5 19q14 0 20.5-7.5t6.5-17.5q0-13-8.5-28.5t-27.5-40.5q3-33 12-60.5t22-52 27.5-47 27-46.5 20-50 7.5-57q0-76-49.5-121t-133.5-45zm-220-586h550v-10h-550zm0 625h550v-20h-550zm0 485h550v-5h-550zm0 620h550v-10h-550z"/></svg>