<svg width="122" height="30.384" viewBox="0 0 122 30.384" xmlns="http://www.w3.org/2000/svg"><path transform="translate(0 22.56) scale(.016 -.016)" d="m488 374q-17-1-22 11t-1 28q5 16 14 27t26 11q65 2 128.5 14.5t119.5 36.5 99 59 67.5 82 24.5 106q0 43-18.5 75t-52 53-80.5 31.5-104 10.5q-69 0-141-16t-140-50-129-90q-17-16-31.5-12.5t-25.5 15.5q-10 10-10 24t15 29q46 48 103 82t119 56 125 32.5 121 10.5q86 0 150-18t106-51.5 63.5-79 21.5-101.5q0-74-30-133t-83-103-123-74-149.5-46-162.5-20zm-347-391q-41 0-73.5 18.5t-54 48.5-30.5 62q-6 19-1.5 32t23.5 19q19 7 30 1t19-23q11-24 25-41t30.5-24.5 36.5-7.5q36 0 60.5 28t48.5 102l193 602q5 14 17 20.5t34 6.5q23 0 34-6.5t5-23.5l-192-598q-22-66-50-115t-66-75-89-26z"/><path transform="translate(14.576 22.56) scale(.016 -.016)" d="m-159-17q-19 0-25 11.5t-2 26 16 26 29 11.5q29 0 67.5 19t83.5 52.5 93 79.5 96 100 93 112.5 83.5 118.5 67 118 45 111 16.5 97q0 15 13 22.5t30 7.5 30-7.5 13-22.5q0-46-18-103t-50.5-120-76.5-129-95.5-130.5-106.5-123.5-111-109.5-109-88-99.5-58.5-82.5-21zm322 1q-40 0-60 16t-25.5 42 0 56.5 14.5 59.5l213 659q32 99 74.5 143t102.5 44q33 0 57.5-17.5t37.5-48 13-72.5q0-19-13-28t-30-9-30 9-13 28q0 17-3.5 29.5t-11 19.5-20.5 7-26-10.5-26-36.5-29-73l-223-691q-4-14-5.5-26t2.5-18.5 16-6.5 24 7 22.5 18.5 20.5 24.5q7 9 16.5 12t23.5-7q17-10 18-20.5t-4-20.5q-9-17-28.5-38t-46-36.5-61.5-15.5z"/><path transform="translate(20.88 22.56) scale(.016 -.016)" d="m169-17q-40 0-69 19t-44.5 54.5-15.5 84.5q0 45 13 96.5t39 101 65.5 90.5 91.5 65.5 117 24.5q32 0 64-9t60-25l1 4q6 17 16 21.5t28 4.5q31 0 39.5-9.5t1.5-29.5l-121-365q-4-14-5.5-26t3-18.5 15.5-6.5q13 0 24.5 7t22.5 18.5 21 24.5q7 9 16.5 12t22.5-7q17-10 18.5-20.5t-3.5-20.5q-10-17-29-38t-45.5-36.5-61.5-15.5q-32 0-50.5 11.5t-26 30-8 40.5 3.5 44q1 2 1.5 4.5t0.5 5.5q-37-50-73.5-80t-70-43.5-62.5-13.5zm-39 170q0-28 8-48.5t23-31 37-10.5q34 0 72 27.5t78.5 80 79.5 127.5l40 119q-29 14-55 18.5t-51 4.5q-48 0-85.5-19.5t-65-51.5-45.5-70.5-27-76.5-9-69z"/><path transform="translate(30.832 22.56) scale(.016 -.016)" d="m426-3q26 17 51.5 31.5t49.5 27.5 42 21q15 7 24 0.5t12-20-1-27-15-19.5q-20-10-41-21.5t-43-25-44.5-27-44.5-27.5zm-287-501q-58 0-92.5 32t-34.5 81q0 41 16.5 77t47 70.5 74 68.5 98.5 68q21 14 40.5 26.5t39.5 24.5 41 25l51 160q-26-35-53-62t-55.5-45.5-57-28-57.5-9.5q-51 0-80.5 23.5t-35.5 68 15 106.5l73 224q6 17 1 26.5t-19 9.5q-12 0-25-7.5t-27.5-24-34.5-43.5q-10-13-19-17.5t-26 1.5q-20 8-21.5 20.5t6.5 26.5q19 33 43 60t53.5 43 65.5 16q34 0 54-12t28.5-33 7-47.5-10.5-54.5l-65-200q-11-33-11-57.5t14-37 45-12.5q30 0 63.5 20t68 56.5 67.5 86.5 60 111l48 146q7 20 16.5 26t28.5 6q31 0 39.5-9.5t1.5-29.5l-232-712q-24-72-49-123.5t-55-83.5-66-46.5-80-14.5zm14 77q30 0 57 21.5t51 64 43 108.5l32 99q-12-7-23-14.5t-22-14-22-14.5q-41-28-72.5-54t-53-50.5-32-48-10.5-47.5q0-16 6-27t18-17 28-6z"/><path transform="translate(41.472 22.56) scale(.016 -.016)" d="m203-19q-47 0-74 18.5t-37 50-7.5 69.5 15.5 76l69 211q6 17 1 26.5t-19 9.5q-12 0-25-7.5t-27.5-24-34.5-43.5q-10-13-19-17.5t-26 1.5q-20 8-21.5 20.5t6.5 26.5q19 33 43 60t53.5 43 65.5 16q34 0 54.5-12t28.5-33 6.5-47.5-10.5-54.5l-60-186q-9-29-12.5-57.5t8-47 45.5-18.5q25 0 51.5 14.5t51.5 41 47.5 62.5 38.5 77l74 228q5 17 14 24.5t31 7.5q32 0 39-9.5t1-28.5l-80-255q-8-24-14.5-52.5t-5.5-53.5 14-40.5 44-15.5q36 0 68.5 20.5t59 54.5 45.5 75.5 30 85.5 11 83q0 14-1 28.5t-2.5 28.5-4.5 27q-4 19 0 31t14.5 18 26.5 6q18 0 28.5-11t16.5-37q3-13 5-27t3-28.5 1-30.5q0-48-14.5-103t-41.5-108-66-97-88-70-108-26q-46 0-74 16t-41.5 41.5-15.5 56.5q-23-35-51-61t-60-39.5-70-13.5z"/><path transform="translate(55.68 22.56) scale(.016 -.016)" d="m-159-17q-19 0-25 11.5t-2.5 26 15.5 26 31 11.5q34 0 70.5 23t75 69.5 79.5 119 85 171.5l57-26q-52-122-98.5-204.5t-92.5-133-93.5-72.5-101.5-22zm558 1q-37 0-57.5 13t-27.5 34.5-4.5 46.5 10.5 50q7 21 19.5 51.5t27 65 28.5 69 22 64.5 1.5 40.5-25.5 10.5q-24 0-53.5-10t-60.5-19.5-62-9.5q-20 0-34.5 14.5t-22 37.5-7.5 48q0 23 7.5 44t23 34.5 39.5 13.5q23 0 34-13.5t11-33.5q0-15-5-32.5t-13-33.5q15 0 44 11t65.5 22 71.5 11q30 0 50.5-14t27-44.5-7.5-82.5q-7-28-21-62.5t-29.5-71.5-29.5-71-22-61q-9-26-3.5-36t19.5-10q12 0 23.5 7t22 18.5 20.5 24.5q7 9 16 12t23-7q17-10 18.5-20.5t-3.5-20.5q-10-17-29-38t-45.5-36.5-61.5-15.5z"/><path transform="translate(64.768 22.56) scale(.016 -.016)" d="m135-16q-62 0-81 44.5t8 126.5l107 328q6 20 15.5 26t29.5 6q31 0 39.5-9.5t1.5-29.5l-118-362q-9-27-5.5-40.5t20.5-13.5q12 0 23 6.5t21.5 18 21.5 25.5q7 9 16.5 12t22.5-7q17-10 18.5-20.5t-4.5-20.5q-15-26-36-46.5t-46-32-54-11.5zm141 685q-20 0-34.5 13t-14.5 38q0 27 18 51t55 24q20 0 34.5-12.5t14.5-38.5q0-27-17.5-51t-55.5-24z"/><path transform="translate(69.568 22.56) scale(.016 -.016)" d="m-129-17q-15 0-21.5 11.5t-4 26 13.5 26 29 11.5q24 0 61.5 28t83.5 77 97 113.5 103 138 101.5 150.5 93 150.5 77 138 53.5 113.5q7 22 17 27.5t28 5.5q32 0 40.5-9.5t1.5-29.5l-275-852q45 13 93.5 40.5t102 70.5 114.5 100q5 6 14.5 8t20.5-9q12-11 11.5-20t-6.5-15q-59-59-120-109.5t-123.5-85.5-128.5-47l-10-31q-4-13-14-19.5t-33-6.5q-16 0-29.5 7t-8.5 26l6 20q-26 4-47.5 14t-34 28-12.5 41q0 29 19 50t53 21q20 0 36.5-7.5t26.5-19.5l160 497q-47-84-98-167t-104-159-105.5-140.5-102.5-112-95-74-84-26.5zm364 139q0-6 5-10.5t14.5-7.5 22.5-4q2 15-8 24t-21 9q-13 0-13-11z"/><path transform="translate(79.648 22.56) scale(.016 -.016)" d="m243-18q-36 0-66 12t-54 33-41 50-26 64-9 74q0 38 8.5 79.5t27 81.5 46.5 72.5 66 51.5 87 19q37 0 63.5-14.5t40.5-40 14-59.5q0-53-27.5-105t-73-98.5-99.5-84.5q-55-40-116-70t-119.5-47-107.5-17q-14 0-20.5 11.5t-4.5 26 13.5 26 32.5 11.5q40 0 88.5 16t99 43 94.5 61q39 29 73 63.5t55.5 71.5 21.5 72q0 26-11.5 40t-35.5 14q-31 0-55-22.5t-40-56.5-24.5-72-8.5-70q0-34 9-62.5t26-49.5 39.5-32.5 50.5-11.5q27 0 53 11t51 30 47 40q13 13 27.5 10.5t24.5-13.5q12-12 14-25t-11-27q-35-39-71.5-62t-74.5-33.5-77-10.5z"/><path transform="translate(91.552 22.56) scale(.016 -.016)" d="m278-19q-61 0-114.5 33t-91.5 92q-10 16-7.5 29.5t17.5 23.5q15 11 28.5 9.5t25.5-15.5q34-38 68.5-62.5t77.5-24.5q33 0 58.5 15.5t46.5 48 37 83.5l141 432q27 84 59.5 149.5t71 111.5 85.5 70 105 24q51 0 91.5-19.5t64-56 23.5-88.5q0-59-25-112t-71-97-107.5-76.5-135.5-50-155-17.5q-54 0-107.5 8.5t-103.5 23.5-95.5 35-84.5 43q-15 8-18 22t7 30q10 18 24 22t30-6q36-21 78-39.5t90-31.5 100.5-20.5 106.5-7.5q61 0 116.5 14t103 39 82.5 59 54.5 74 19.5 84q0 28-11.5 46.5t-32 28.5-49.5 10q-39 0-72-20.5t-61-58-52.5-90-45.5-116.5l-144-442q-23-72-55-118.5t-75-68.5-98-22z"/><path transform="translate(106.4 22.56) scale(.016 -.016)" d="m744-19q-35 0-63.5 10.5t-53 35.5-46.5 65.5-42 100.5l-93 270-86-264q-21-66-49-115t-66-75-89-26q-42 0-74 18.5t-53.5 48.5-30.5 62q-5 19-1 32t23 19q19 7 31 1.5t19-23.5q10-26 22.5-42t28.5-23.5 36-7.5q26 0 45.5 12t35.5 40.5 32 77.5l199 613q17 54 7.5 78.5t-42.5 24.5q-19 0-42.5-9.5t-53.5-32-69-60.5q-11-11-23-10.5t-25 13.5q-12 13-12.5 24.5t10.5 23.5q35 39 74 68.5t78.5 46.5 77.5 17q79 0 107.5-52t-2.5-147l-74-228 517 420q18 15 31.5 12.5t25.5-19.5q11-16 10.5-30t-17.5-28l-524-425 87-250q19-55 36.5-91t35-57 35.5-30 37-9q26 0 56.5 23t70.5 75q11 13 23.5 16t28.5-10q13-11 16-23.5t-8-28.5q-23-35-54.5-65t-68-48.5-74.5-18.5z"/></svg>