<svg width="120.9" height="35.072" viewBox="0 0 120.9 35.072" xmlns="http://www.w3.org/2000/svg"><path transform="translate(0 25.104) scale(.016 -.016)" d="m516 424q-19-1-27 10t-4 33q3 20 13 30t26 10q109 7 198.5 39.5t154 86 99.5 123.5 35 150q0 67-33.5 104t-95.5 37q-42 0-88-20.5t-92-59.5-89-93-80.5-122-66.5-146l-192-592q-4-14-16-21t-35-7q-22 0-33 7t-6 23l286 883q-27-29-58.5-54.5t-66.5-48.5-75-46q-21-11-34-4.5t-22 25.5q-8 18-4 31.5t23 23.5q71 36 126 77t98 90 76 108q10 17 21 23t33 6 32.5-7 5.5-23l-53-166q50 64 104.5 107.5t111.5 66 114 22.5q61 0 106-27t70-74.5 25-112.5q0-101-43-188.5t-121.5-153-186-105-236.5-45.5z"/><path transform="translate(15.088 25.104) scale(.016 -.016)" d="m-159-17q-19 0-25 11.5t-2 26 16 26 29 11.5q30 0 70.5 23t88.5 63.5 99.5 95 103 118.5 100 133 90 139 72.5 136 49 125 18 104q0 16 12.5 24t30 8 30.5-8 13-24q0-48-19.5-110.5t-54-134-81-146.5-101-150-113-144.5-117.5-129-115.5-104-106-69-87.5-24.5zm322 1q-40 0-60 16t-25.5 42 0 56.5 14.5 59.5l256 790q32 98 75 142t103 44q35 0 59-17t37.5-48 13.5-74q0-19-13-28t-30.5-9-30 9-12.5 28q0 18-4 30.5t-12 19-21 6.5q-14 0-27-10.5t-26.5-36-28.5-71.5l-266-822q-4-14-5.5-26t2.5-18.5 16-6.5 24 7 22.5 18.5 20.5 24.5q7 9 16.5 12t23.5-7q17-10 18-20.5t-4-20.5q-9-17-28.5-38t-46-36.5-61.5-15.5z"/><path transform="translate(21.392 25.104) scale(.016 -.016)" d="m169-17q-40 0-69 19t-44.5 54.5-15.5 84.5q0 45 13 96.5t39 101 65.5 90.5 91.5 65.5 117 24.5q32 0 64-9t60-25l1 4q6 17 16 21.5t28 4.5q31 0 39.5-9.5t1.5-29.5l-121-365q-4-14-5.5-26t3-18.5 15.5-6.5q13 0 24.5 7t22.5 18.5 21 24.5q7 9 16.5 12t22.5-7q17-10 18.5-20.5t-3.5-20.5q-10-17-29-38t-45.5-36.5-61.5-15.5q-32 0-50.5 11.5t-26 30-8 40.5 3.5 44q1 2 1.5 4.5t0.5 5.5q-37-50-73.5-80t-70-43.5-62.5-13.5zm-39 170q0-28 8-48.5t23-31 37-10.5q34 0 72 27.5t78.5 80 79.5 127.5l40 119q-29 14-55 18.5t-51 4.5q-48 0-85.5-19.5t-65-51.5-45.5-70.5-27-76.5-9-69z"/><path transform="translate(31.344 25.104) scale(.016 -.016)" d="m419-26q24 18 50.5 35t51 32.5 42.5 24.5q15 8 24.5 1.5t13.5-20 1-26.5-14-20q-19-10-41-24t-45.5-29-46.5-31.5-44-32.5zm-322-608q-58 0-92.5 34t-34.5 86q0 46 17.5 91t50.5 89.5 80.5 89 107.5 89.5q23 17 44.5 33t43.5 31 45 30l60 189q-25-35-52-61.5t-55.5-45-57-28-57.5-9.5q-51 0-80.5 23.5t-35.5 68 15 106.5l73 224q6 17 1 26.5t-19 9.5q-12 0-25-7.5t-27.5-24-34.5-43.5q-10-13-19-17.5t-26 1.5q-20 8-21.5 20.5t6.5 26.5q19 33 43 60t53.5 43 65.5 16q34 0 54-12t28.5-33 7-47.5-10.5-54.5l-65-200q-11-33-11-57.5t14-37 45-12.5q30 0 63 20t68 56.5 67.5 86.5 60.5 110l48 147q7 20 16.5 26t28.5 6q31 0 39.5-9.5t1.5-29.5l-274-841q-24-72-49-123.5t-55-83.5-66-47-80-15zm14 77q30 0 56.5 20.5t50.5 64 44 110.5l61 191q-12-9-24-18t-23.5-17-22.5-17q-48-40-84.5-76.5t-61-71-37-66.5-12.5-64q0-18 6.5-31t18.5-19 28-6z"/><path transform="translate(41.984 25.104) scale(.016 -.016)" d="m178-19q-47 0-74 18.5t-37 50-7 69.5 15 76l95 289q6 17 15 24.5t31 7.5q31 0 39-9.5t1-29.5l-95-293q-10-29-13.5-57.5t8-47 45.5-18.5q23 0 47.5 13t48.5 36.5 45 55.5 38 69l80 249q6 17 15 24.5t30 7.5q33 0 40-9.5t1-28.5l-80-255q-8-24-15.5-52.5t-8-53.5 12.5-40.5 46-15.5q36 0 68.5 20.5t59 54.5 45.5 75.5 30 85.5 11 83q0 14-1 28.5t-2.5 28.5-4.5 27q-4 19 0 31t14.5 18 26.5 6q18 0 28.5-11t16.5-37q3-13 5-27t3-28.5 1-30.5q0-48-14.5-103t-41.5-108-66-97-88-70-108-26q-45 0-72.5 15t-40 39.5-15.5 54.5q-23-34-50-58.5t-59-37.5-69-13z"/><path transform="translate(55.696 25.104) scale(.016 -.016)" d="m81-15q-16 0-29.5 7t-7.5 26l125 388q6 17 1 26.5t-19 9.5q-12 0-25-7.5t-27.5-24-34.5-43.5q-10-13-19-17.5t-26 1.5q-20 8-21.5 20.5t6.5 26.5q19 33 43 60t53.5 43 65.5 16q31 0 49.5-10t27-27 9.5-38-2-41l-10-32q24 36 48.5 64t48.5 47.5 45.5 29 40.5 9.5q15 0 23-7t7-31q0-25 3.5-42.5t11-26.5 20.5-9q23 0 50.5 15.5t67.5 46.5q10 7 20.5 3t18.5-14.5 9-22.5-8-19q-42-37-83-57.5t-82-20.5q-23 0-43.5 9t-34 31-16.5 59q-22-10-49-33.5t-55.5-59-55.5-82-51-101.5l-47-146q-4-13-14.5-19.5t-33.5-6.5z"/><path transform="translate(64.512 25.104) scale(.016 -.016)" d="m135-16q-62 0-81 44.5t8 126.5l107 328q6 20 15.5 26t29.5 6q31 0 39.5-9.5t1.5-29.5l-118-362q-9-27-5.5-40.5t20.5-13.5q12 0 23 6.5t21.5 18 21.5 25.5q7 9 16.5 12t22.5-7q17-10 18.5-20.5t-4.5-20.5q-15-26-36-46.5t-46-32-54-11.5zm141 685q-20 0-34.5 13t-14.5 38q0 27 18 51t55 24q20 0 34.5-12.5t14.5-38.5q0-27-17.5-51t-55.5-24z"/><path transform="translate(69.312 25.104) scale(.016 -.016)" d="m163-16q-49 0-72 23t-23.5 63.5 16.5 92.5l83 257h-77q-11 0-15 10t1 30q6 20 15.5 30t20.5 10h82l64 198q6 20 15.5 26t29.5 6q31 0 39.5-9.5t1.5-29.5l-62-191h126q11 0 15-9.5t-1-30.5q-6-19-16-29.5t-21-10.5h-129l-96-292q-11-35-5.5-51.5t25.5-16.5q26 0 51.5 19t45.5 46q8 9 18 11.5t25-7.5q16-10 17-20t-4-19q-12-21-35-45.5t-56.5-42.5-78.5-18z"/><path transform="translate(75.52 25.104) scale(.016 -.016)" d="m243-18q-36 0-66 12t-54 33-41 50-26 64-9 74q0 38 8.5 79.5t27 81.5 46.5 72.5 66 51.5 87 19q37 0 63.5-14.5t40.5-40 14-59.5q0-53-27.5-104.5t-72.5-98.5-99-85q-55-40-116.5-70t-120-47-107.5-17q-14 0-20.5 11.5t-4.5 26 13.5 26 32.5 11.5q40 0 88.5 16t99 43.5 95.5 61.5q39 29 72.5 63.5t55 71 21.5 71.5q0 26-11.5 40t-35.5 14q-31 0-55-22.5t-40-56.5-24.5-72-8.5-70q0-34 9-62.5t26-49.5 39.5-32.5 50.5-11.5q27 0 53 11t51 30 47 40q13 13 27.5 10.5t24.5-13.5q12-12 14-25t-11-27q-35-39-71.5-62t-74.5-33.5-77-10.5z"/><path transform="translate(87.424 25.104) scale(.016 -.016)" d="m515-19q-79 0-142 27t-107.5 78-68 123.5-23.5 163.5q0 82 18.5 169.5t56 172 91.5 159.5 124 133 156 90.5 185 32.5q68 0 122.5-15t97-44 71.5-72q8-13 4-22.5t-21-21.5q-14-11-24.5-10t-25.5 16q-38 40-96 62t-142 22q-75 0-143-28t-126.5-76.5-105.5-113-80-138.5-50.5-151.5-17.5-152.5q0-77 16-136.5t48.5-100 81.5-61.5 115-21q44 0 84.5 12.5t79 37 78 60 81.5 81.5q11 13 23.5 10t24.5-15q13-14 14.5-25.5t-10.5-25.5q-70-82-137.5-130t-130.5-69-121-21z"/><path transform="translate(102.43 25.104) scale(.016 -.016)" d="m451-16q-84 0-131 36t-54.5 106.5 25.5 172.5l209 645q17 52 10 77.5t-39 25.5q-22 0-46.5-13.5t-52.5-41.5-62-72q-15-18-29-20t-29 10q-15 11-16.5 24t10.5 29q44 60 86 97t82 54.5 76 17.5q76 0 101-53.5t-6-150.5l-202-624q-26-81-25-132.5t30.5-76 88.5-24.5q41 0 84.5 17t86 48 83 75 77.5 98.5 67 117.5l222 674q5 14 17 21t34 7q23 0 34-7t5-23l-296-896q-15-48-18.5-78t5.5-44.5 29-14.5q25 0 52 25.5t66 83.5q11 17 22.5 20t28.5-6 20-22-6-30q-20-33-42.5-61.5t-48-49.5-52-32.5-53.5-11.5q-44 0-70.5 20t-34 59.5 4.5 97.5q4 13 7.5 26t7.5 25q-37-52-80-93.5t-89-71-94-45.5-95-16z"/></svg>