<svg width="135.34" height="25.76" viewBox="0 0 135.34 25.76" xmlns="http://www.w3.org/2000/svg"><path transform="translate(0 19.292) scale(.014 -.014)" d="m438 365q-17-1-25.5 10.5t-8.5 27.5 6 26 21 11q63 2 115.5 16t94.5 38 70.5 57 43.5 73.5 15 87.5q0 45-19 79.5t-54.5 57-85.5 33.5-111 11q-76 0-143.5-15.5t-124-47.5-101.5-83q-12-14-25-17t-29 7q-16 12-18.5 25t9.5 29q34 46 81 80t104 57 121 34.5 132 11.5q86 0 152-17.5t111.5-51 68.5-82 23-111.5q0-59-19-110t-55.5-93-88-72.5-117-49-143.5-22.5zm-234-382q-43 0-77 17.5t-57 42-34 42.5-10 32.5 19 24.5 30 6 25-19q16-20 31.5-33.5t33.5-20.5 40-7q36 0 52 28t16 91v586q0 14 11 20.5t33 6.5 33-6.5 11-20.5v-592q0-60-17-105t-51.5-69-88.5-24z"/><path transform="translate(12.488 19.292) scale(.014 -.014)" d="m-68-17q-19 0-28 11.5t-9 26 9 26 28 11.5q29 0 58 14t57.5 40.5 55.5 63 51.5 81.5 45.5 96.5 38.5 107.5 30 115 19 119 6.5 118q0 15 13 22.5t30 7.5 30-7.5 13-22.5q0-56-8-117t-23-123.5-36.5-124-47.5-119.5-56-110-63.5-95-69-75-72-49-72.5-17zm288 0q-25 0-44 7t-30.5 20-17 33-5.5 45v690q0 102 33 151t100 49q41 0 68.5-18.5t41.5-55 14-91.5q0-19-13-28t-30-9-30 9-13 28q0 30-4.5 48.5t-13.5 27.5-22 9q-15 0-25.5-11.5t-15-39-4.5-74.5v-674q0-14 3.5-23t10-13 14.5-4q9 0 16.5 3.5t14.5 10.5 14 15q7 7 16.5 4.5t18.5-9.5q10-9 11.5-18.5t-3.5-18.5q-11-20-28-34t-36.5-21.5-40.5-7.5z"/><path transform="translate(18.004 19.292) scale(.014 -.014)" d="m250-17q-55 0-97.5 28t-66 83-23.5 138q0 52 9.5 96.5t28.5 80 46 60 62 37.5 78 13q32 0 65-9.5t63-26.5v4q0 14 11 21t33 7 32.5-6.5 10.5-20.5v-389q0-14 3.5-23t10-13 14.5-4q10 0 16.5 3t13 9.5 15.5 16.5q6 7 15 5.5t19-8.5q10-9 12.5-19.5t-2.5-19.5q-11-19-27.5-33t-36.5-22-42-8q-23 0-40 5.5t-29.5 17-18.5 28-9 37.5q0 5-0.5 12t-0.5 15q-22-43-49-68t-56.5-36-59.5-11zm-99 252q0-52 12-91t37-60 63-21q31 0 59 17t52 51.5 41 85.5v192q-31 18-59.5 24.5t-58.5 6.5q-27 0-49.5-8t-40.5-24.5-30.5-41-19-57-6.5-74.5z"/><path transform="translate(26.712 19.292) scale(.014 -.014)" d="m492 6q16 10 32 20.5t31 19.5 28 16 22 13q16 7 27 1.5t16-18.5 1.5-27-18.5-22q-13-8-29.5-18t-34.5-22-36.5-24-35.5-23zm-169-484q-44 0-76.5 16t-50.5 46-18 72q0 31 9.5 63t30.5 64 52.5 64.5 75.5 65.5q23 15 44.5 30.5t43.5 30.5v131q-14-31-33.5-54t-42-38-47.5-22.5-52-7.5q-52 0-89 19t-56.5 58.5-19.5 100.5v328q0 13 10.5 19.5t31.5 6.5q22 0 33-6.5t11-19.5v-326q0-34 10-57t30-34.5 51-11.5q30 0 55.5 13t46 36.5 36 55.5 25.5 70v254q0 13 10.5 19.5t32.5 6.5q21 0 32-6.5t11-19.5v-705q0-62-13.5-111t-39.5-82.5-62.5-51-81.5-17.5zm6 78q25 0 44.5 12t33 35 20.5 58.5 7 81.5v96q-18-11-35-22.5t-35-23.5q-24-20-42.5-41.5t-30.5-43.5-18-44-6-44q0-20 6.5-34.5t21-22 34.5-7.5z"/><path transform="translate(35.672 19.292) scale(.014 -.014)" d="m268-17q-35 0-62.5 11t-46.5 33-29.5 55-10.5 77v218q0 36-10.5 50t-31.5 14q-15 0-26-8.5t-18-24.5-12-39q-3-16-12.5-22t-26.5-5q-15 2-24 10t-6 31q6 40 22 70t43 46.5 63 16.5q33 0 57-9.5t39-29.5 22-48.5 7-66.5v-194q0-34 7.5-58.5t24.5-37 44-12.5q22 0 45 11t43 34.5 32.5 60 13.5 84.5v239q0 12 11.5 19t33.5 7q23 0 32.5-7t9.5-19v-283q0-43 4.5-71t15-44 26.5-23 39-7q21 0 41 8.5t37.5 25 30.5 41 21 56 8 70.5q0 35-5.5 69t-16 66.5-29.5 62.5q-11 18-6.5 31.5t18.5 20.5 29 7 23-7.5 16-21.5q15-24 28.5-57.5t22-74 8.5-86.5q0-43-10-85t-29.5-79-48-65.5-65.5-45-83-16.5q-35 0-64.5 12.5t-51 38-32.5 65.5q-18-37-43-62t-55-38.5-63-13.5z"/><path transform="translate(48.104 19.292) scale(.014 -.014)" d="m-68-17q-19 0-28.5 11.5t-10 26 8.5 26 28 11.5q32 0 59 23.5t49.5 70.5 41 118 32.5 166l60-11q-14-115-35-198.5t-50.5-137.5-67.5-80-87-26zm523 0q-25 0-44 7t-30.5 21-17.5 34-6 46q0 27 2.5 63.5t5 75 5 74.5 2.5 62q0 37-9 50t-33 13q-27 0-62-10t-68-19.5-53-9.5q-18 0-34.5 19.5t-27.5 47.5-11 55q0 18 6.5 32.5t18 22.5 30.5 8q31 0 42-21.5t11-50.5q0-8-0.5-16.5t-2.5-17.5q12 0 39 11t62 22 70 11q37 0 61-14t35.5-44.5 11.5-81.5q0-25-2.5-61.5t-5-76.5-5-75-2.5-58q0-24 6.5-33.5t21.5-9.5q9 0 16.5 3.5t15 10.5 15.5 15q7 7 16.5 4.5t18.5-9.5q9-9 11-18.5t-3-18.5q-11-20-27.5-34t-36.5-21.5-42-7.5z"/><path transform="translate(56.056 19.292) scale(.014 -.014)" d="m192-17q-51 0-74.5 27t-23.5 78v401q0 13 10.5 19.5t31.5 6.5q22 0 33-6.5t11-19.5v-390q0-22 8-31t21-9q10 0 17 4t13.5 10.5 14.5 15.5q5 6 15.5 3.5t17.5-9.5q10-8 12-18t-3-18q-11-20-27.5-34t-36-22-40.5-8zm-56 686q-28 0-42 15.5t-14 46.5q0 32 14 48t42 16 41.5-16 13.5-48q2-31-12.5-46.5t-42.5-15.5z"/><path transform="translate(60.256 19.292) scale(.014 -.014)" d="m239-17q-40 0-67 15.5t-40.5 44.5-13.5 70v307h-77q-15 0-21.5 9t-6.5 31q0 23 6.5 31.5t21.5 8.5h77v204q0 13 10.5 19.5t32.5 6.5 33-6.5 11-19.5v-204h126q15 0 21.5-8.5t6.5-31.5q0-22-6.5-31t-21.5-9h-126v-298q0-34 9.5-48.5t32.5-14.5q22 0 39 12t35 33q10 11 20 9t20-10q13-9 14.5-19.5t-3.5-19.5q-16-29-37.5-47t-45.5-26-50-8z"/><path transform="translate(65.688 19.292) scale(.014 -.014)" d="m297-17q-43 0-81.5 18t-69 49.5-52.5 74-33.5 90.5-11.5 98q0 35 8 66.5t23 57 36.5 44 48 28.5 57.5 10q52 0 85.5-21t49.5-56 16-76q0-34-13-71t-36-73-53-69q-44-49-100-87.5t-117.5-60.5-123.5-22q-14 0-21 11.5t-5.5 26 12.5 26 33 11.5q44 0 91.5 18.5t91.5 49 77 66.5q23 27 40 55t26 56.5 9 53.5q0 47-18 65t-49 18q-16 0-30.5-7.5t-26-23.5-17.5-39-6-55q0-52 14.5-98t40-80.5 56-54 60.5-19.5q23 0 42.5 8.5t39 25 38.5 38.5q14 16 27 15t27-12 16.5-22.5-6.5-25.5q-26-39-59.5-62.5t-68.5-34-67-10.5z"/><path transform="translate(76.104 19.292) scale(.014 -.014)" d="m247-19q-47 0-86 17t-67 42-41 49q-10 17-7.5 29.5t19.5 24.5 29.5 7 25.5-19q22-28 53-46.5t77-18.5q41 0 71.5 19t47.5 64 17 121v594q-14-9-32-14.5t-38-5.5-37 4-32 9.5-29.5 9.5-29.5 4q-16 0-30.5-8.5t-24.5-24-14-35.5q-3-14-12.5-21t-30.5-5q-21 3-28.5 13.5t-5.5 24.5q6 43 24.5 74t49.5 48.5 71 17.5q23 0 41-4.5t34-10 31.5-9.5 31.5-4q19 0 36.5 8.5t27.5 17.5q13 12 23 16.5t23 4.5q19 0 28.5-6.5t9.5-20.5v-687q0-93-29-155t-79.5-93-117.5-31z"/><path transform="translate(83.972 19.292) scale(.014 -.014)" d="m480-17q-85 0-144 38t-90 110.5-31 173.5q0 72 14.5 149t40.5 153 61.5 145.5 78.5 124.5h-190q-44 0-72.5-11.5t-45.5-34-26-54.5q-6-18-17-24t-31-1q-18 5-23.5 16t-1.5 29q9 35 26.5 64.5t46 51 67.5 33 90 11.5h504q15 0 21-8.5t6-31.5q0-22-6-31t-21-9h-231q-41-51-78-119.5t-65-145.5-44.5-155-16.5-148q0-75 22.5-129.5t64-83 98.5-28.5q33 0 62.5 9t55.5 27.5 48 45.5q15 18 27 20.5t26-5.5q17-11 19.5-25t-9.5-31q-30-46-69.5-74t-82-40-84.5-12z"/><path transform="translate(99.008 19.292) scale(.014 -.014)" d="m480-17q-85 0-144 38t-90 110.5-31 173.5q0 72 14.5 149t40.5 153 61.5 145.5 78.5 124.5h-190q-44 0-72.5-11.5t-45.5-34-26-54.5q-6-18-17-24t-31-1q-18 5-23.5 16t-1.5 29q9 35 26.5 64.5t46 51 67.5 33 90 11.5h504q15 0 21-8.5t6-31.5q0-22-6-31t-21-9h-231q-41-51-78-119.5t-65-145.5-44.5-155-16.5-148q0-75 22.5-129.5t64-83 98.5-28.5q33 0 62.5 9t55.5 27.5 48 45.5q15 18 27 20.5t26-5.5q17-11 19.5-25t-9.5-31q-30-46-69.5-74t-82-40-84.5-12z"/><path transform="translate(109.84 19.292) scale(.014 -.014)" d="m-68-17q-19 0-28.5 11.5t-10 26 8.5 26 28 11.5q32 0 59 23.5t49.5 70.5 41 118 32.5 166l60-11q-14-115-35-198.5t-50.5-137.5-67.5-80-87-26zm523 0q-25 0-44 7t-30.5 21-17.5 34-6 46q0 27 2.5 63.5t5 75 5 74.5 2.5 62q0 37-9 50t-33 13q-27 0-62-10t-68-19.5-53-9.5q-18 0-34.5 19.5t-27.5 47.5-11 55q0 18 6.5 32.5t18 22.5 30.5 8q31 0 42-21.5t11-50.5q0-8-0.5-16.5t-2.5-17.5q12 0 39 11t62 22 70 11q37 0 61-14t35.5-44.5 11.5-81.5q0-25-2.5-61.5t-5-76.5-5-75-2.5-58q0-24 6.5-33.5t21.5-9.5q9 0 16.5 3.5t15 10.5 15.5 15q7 7 16.5 4.5t18.5-9.5q9-9 11-18.5t-3-18.5q-11-20-27.5-34t-36.5-21.5-42-7.5z"/><path transform="translate(117.8 19.292) scale(.014 -.014)" d="m250-17q-55 0-97.5 28t-66 83-23.5 138q0 52 9.5 96.5t28.5 80 46 60 62 37.5 78 13q32 0 65-9.5t63-26.5v4q0 14 11 21t33 7 32.5-6.5 10.5-20.5v-389q0-14 3.5-23t10-13 14.5-4q10 0 16.5 3t13 9.5 15.5 16.5q6 7 15 5.5t19-8.5q10-9 12.5-19.5t-2.5-19.5q-11-19-27.5-33t-36.5-22-42-8q-23 0-40 5.5t-29.5 17-18.5 28-9 37.5q0 5-0.5 12t-0.5 15q-22-43-49-68t-56.5-36-59.5-11zm-99 252q0-52 12-91t37-60 63-21q31 0 59 17t52 51.5 41 85.5v192q-31 18-59.5 24.5t-58.5 6.5q-27 0-49.5-8t-40.5-24.5-30.5-41-19-57-6.5-74.5z"/><path transform="translate(126.5 19.292) scale(.014 -.014)" d="m251-17q-56 0-98 28t-66 83-24 138q0 52 10 96.5t28.5 80 46 60 63.5 37.5 79 13q31 0 64.5-8.5t63.5-25.5v463q0 13 11 19.5t32 6.5q22 0 32.5-6.5t10.5-19.5v-849q0-22 7.5-31t21.5-9q8 0 15.5 3.5t14.5 10 15 16.5q7 6 16 3.5t18-9.5q10-8 12.5-18t-3.5-18q-11-20-27.5-34t-36.5-22-42-8q-36 0-57 14t-30 36-9 48q0 5 0 9.5t0 9.5q-24-45-51.5-70.5t-57.5-36-59-10.5zm-100 252q0-51 12-90t37-60.5 63-21.5q32 0 60 16t52.5 50.5 42.5 91.5v184q-31 20-61 27.5t-60 7.5q-27 0-49.5-8t-40.5-24.5-30.5-41-19-57-6.5-74.5z"/></svg>