<svg width="182.24" height="26.4" viewBox="0 0 182.24 26.4" xmlns="http://www.w3.org/2000/svg"><path transform="translate(0 20.4) scale(.016 -.016)" d="m169-14q-27 0-27 19v851q0 10 7 14.5t21 4.5h190q97 0 162-22t98.5-70 33.5-127q0-68-24.5-117.5t-68-84-101.5-54.5-125-29q-35-4-71-6.5t-68-3.5v-356q0-10-6-14.5t-21-4.5zm27 424q23 1 45.5 2.5t46.5 4 47 4.5q76 9 135 36.5t93.5 76.5 34.5 121q0 62-27 99t-79.5 54-131.5 17h-164zm-196-775h700v-10h-700zm0 385h700v-20h-700zm0 485h700v-5h-700zm0 380h700v-10h-700z"/><path transform="translate(11.2 20.4) scale(.016 -.016)" d="m189-17q-39 0-60 24.5t-21 73.5v790q0 10 6 14.5t19 4.5q14 0 20.5-4.5t6.5-14.5v-778q0-30 9-46t30-16q11 0 21 4t20 13.5 20 23.5q6 7 12.5 7t13.5-6q6-5 8.5-11.5t-1.5-12.5q-11-21-28-35.5t-36.5-22.5-39.5-8zm-189-348h299v-10h-299zm0 385h299v-20h-299zm0 485h299v-5h-299zm0 380h299v-10h-299z"/><path transform="translate(15.984 20.4) scale(.016 -.016)" d="m254-17q-54 0-95.5 29t-65.5 85-24 137q0 51 9.5 94.5t28.5 78.5 47 60 64.5 38.5 81.5 13.5q34 0 66-10t66-29v16q0 10 6.5 14.5t20.5 4.5q13 0 19.5-4.5t6.5-14.5v-404q0-21 4-34.5t13-20.5 23-7q11 0 20.5 4.5t19.5 14.5 20 24q5 7 11.5 6.5t13.5-6.5q7-5 9-12t-2-13q-11-20-27.5-34.5t-35-22.5-38.5-8-35 5.5-26 17-16.5 28.5-6.5 38q0 12 0 25t0 25q-22-53-52-83.5t-62-43-64-12.5zm-129 254q0-59 15-105t45.5-72.5 77.5-26.5q35 0 67.5 19.5t59 64 42.5 117.5v196q-36 23-68 31.5t-63 8.5q-33 0-60-10t-48.5-29-36.5-47-23-64.5-8-82.5zm-125-602h622v-10h-622zm0 385h622v-20h-622zm0 485h622v-5h-622zm0 380h622v-10h-622z"/><path transform="translate(25.936 20.4) scale(.016 -.016)" d="m487 5q16 9 32 18.5t32 18 32 16 31 14.5q10 4 17 0t10-12.5 0.5-17.5-13.5-13q-17-8-35-17.5t-35.5-19-35.5-19.5-35-20zm-162-399q-38 0-67 14.5t-45 41.5-16 64q0 29 9.5 54t27.5 48 45.5 45.5 63.5 45.5q28 17 54.5 33.5t53.5 34.5v146q-15-43-37.5-72.5t-48.5-46.5-53-24.5-52-7.5q-44 0-79 18t-54.5 57.5-19.5 103.5v335q0 10 6.5 14t19.5 4 20-4 7-14v-329q0-44 11-74.5t34.5-46.5 60.5-16q30 0 58.5 12.5t53.5 38 44 67 29 100.5v248q0 10 6.5 14.5t20.5 4.5q13 0 19.5-4.5t6.5-14.5v-642q0-57-12-103.5t-34.5-78.5-56-49-76.5-17zm6 49q27 0 49.5 13.5t38 38 24 61 8.5 82.5v82q-23-14-46.5-28.5t-46.5-29.5q-25-17-44.5-33t-33-33.5-20.5-36-7-40.5q0-21 9-38.5t26-27.5 43-10zm-331-20h640v-10h-640zm0 385h640v-20h-640zm0 485h640v-5h-640zm0 380h640v-10h-640z"/><path transform="translate(36.176 20.4) scale(.016 -.016)" d="m220-15q-14 0-20 5.5t-9 13.5l-157 480q-5 12 2 21.5t24 9.5q11 0 17-4.5t8-14.5l136-430 153 430q4 10 10.5 14.5t18.5 4.5q11 0 17-4.5t9-14.5l156-430 133 430q3 10 9 14.5t17 4.5q18 0 24.5-9t0.5-24l-156-478q-3-8-9.5-13.5t-19.5-5.5-18.5 5.5-8.5 13.5l-155 426-154-426q-2-8-8.5-13.5t-19.5-5.5zm-220-350h804v-10h-804zm0 385h804v-20h-804zm0 485h804v-5h-804zm0 380h804v-10h-804z"/><path transform="translate(49.04 20.4) scale(.016 -.016)" d="m132-15q-13 0-19 4.5t-6 14.5v492q0 10 6 14.5t19 4.5q14 0 20.5-4.5t6.5-14.5v-124q15 41 35 69.5t42.5 45.5 46.5 24.5 46 7.5q28 0 54.5-8.5t40.5-20.5q7-5 8-12t-6-18q-5-9-12.5-11.5t-15.5 0.5q-13 6-33 13t-43 7q-26 0-50.5-12t-46.5-38-38.5-67-27.5-100v-248q0-10-6.5-14.5t-20.5-4.5zm-132-350h454v-10h-454zm0 385h454v-20h-454zm0 485h454v-5h-454zm0 380h454v-10h-454z"/><path transform="translate(56.304 20.4) scale(.016 -.016)" d="m189-17q-40 0-61 24.5t-21 73.5v415q0 10 6 14.5t19 4.5q14 0 20.5-4.5t6.5-14.5v-403q0-30 9-46t31-16q11 0 21 4.5t20 13.5 20 24q5 6 12 6t13-6q7-5 9-11.5t-2-13.5q-12-20-28.5-34.5t-35.5-22.5-39-8zm-57 700q-22 0-32.5 12t-10.5 37 10.5 37.5 32.5 12.5 33-12.5 11-37.5-11-37-33-12zm-132-1048h300v-10h-300zm0 385h300v-20h-300zm0 485h300v-5h-300zm0 380h300v-10h-300z"/><path transform="translate(61.104 20.4) scale(.016 -.016)" d="m238-17q-34 0-56.5 14t-33.5 41.5-11 67.5v346h-88q-10 0-14.5 6t-4.5 18q0 13 4.5 18.5t14.5 5.5h88v211q0 10 6.5 14.5t19.5 4.5 20-4.5 7-14.5v-211h140q10 0 14.5-5.5t4.5-18.5q0-12-4.5-18t-14.5-6h-140v-335q0-41 11-63.5t44-22.5q25 0 43.5 15.5t35.5 42.5q7 8 14 7.5t15-5.5q8-6 10.5-13.5t-1.5-14.5q-14-25-33-43t-42-27.5-49-9.5zm-238-348h388v-10h-388zm0 385h388v-20h-388zm0 485h388v-5h-388zm0 380h388v-10h-388z"/><path transform="translate(67.312 20.4) scale(.016 -.016)" d="m287-18q-72 0-120 32.5t-72 88-24 125.5q0 65 17 118.5t48.5 92 76 59.5 99.5 21q53 0 87-17t50.5-45 16.5-63q0-38-18-68.5t-50-54-75.5-40-95.5-25.5-107-12l-1 46q42 1 84 8t79 19 66 30 45.5 41.5 16.5 52.5q0 39-27 59t-76 20q-35 0-67.5-14t-58-43-40.5-72-15-103q0-71 22.5-117t59.5-68 82-22q40 0 67 13t46.5 32 35.5 39q8 8 16 7.5t16-6.5 11-14-3-16q-18-26-45.5-50t-64-39-82.5-15zm-287-347h526v-10h-526zm0 385h526v-20h-526zm0 485h526v-5h-526zm0 380h526v-10h-526z"/><path transform="translate(80.528 20.4) scale(.016 -.016)" d="m401-17q-68 0-125 30t-99 86.5-64.5 135.5-22.5 176q0 70 12.5 133.5t36 117 57 95.5 76 72 93 45.5 107.5 15.5q55 0 102.5-12.5t88-37.5 75.5-61q10-9 10-17t-11-18q-10-10-18-8.5t-18 10.5q-33 31-68.5 51t-76 30-85.5 10q-48 0-91-14t-79-40-64.5-63.5-48.5-85-30-104-10-119.5q0-85 19-154t53-118.5 81.5-76 102.5-26.5q61 0 111.5 33t90.5 91 68 132.5 43 156.5q0 12 6.5 16t20.5 4q28 0 28-19v-444q0-10-6.5-14.5t-20.5-4.5q-28 0-28 19v286q-22-69-53.5-126t-72-97.5-88-63-102.5-22.5zm-401-348h875v-10h-875zm0 385h875v-20h-875zm0 485h875v-5h-875zm0 380h875v-10h-875z"/><path transform="translate(94.528 20.4) scale(.016 -.016)" d="m169 0q-27 0-27 19v837q0 19 28 19h206q84 0 142.5-18.5t89-59 30.5-108.5q0-50-19.5-88.5t-50.5-66-66-44-67-22.5v-4q47-1 90-12t77-33.5 53.5-59 19.5-88.5q0-48-15-90t-43.5-75-69-57-91-36.5-110.5-12.5zm27 50h150q65 0 115 16.5t85 46.5 53.5 70 18.5 87q0 46-18.5 78t-51.5 52-79 29-102 9h-171zm0 438h153q47 0 89.5 13.5t74.5 40 50 64 18 83.5q0 51-24 80.5t-69.5 42.5-111.5 13h-180zm-196-853h725v-10h-725zm0 385h725v-20h-725zm0 485h725v-5h-725zm0 380h725v-10h-725z"/><path transform="translate(110.93 20.4) scale(.016 -.016)" d="m294-19q-60 0-108 19.5t-81 58.5-50 96q-4 13 1 18.5t15 8.5q12 5 19.5 2t11.5-16q17-45 41-75t60.5-44 90.5-14q34 0 62.5 8.5t50 26.5 36.5 45.5 22.5 65 7.5 85.5v605q0 10 6.5 14.5t20.5 4.5q15 0 21-4.5t6-14.5v-603q0-57-10-103t-29.5-80.5-48-57.5-65-34.5-80.5-11.5zm-294-346h650v-10h-650zm0 385h650v-20h-650zm0 485h650v-5h-650zm0 380h650v-10h-650z"/><path transform="translate(126.13 20.4) scale(.016 -.016)" d="m401-17q-68 0-125 30t-99 86.5-64.5 135.5-22.5 176q0 70 12.5 133.5t36 117 57 95.5 76 72 93 45.5 107.5 15.5q55 0 102.5-12.5t88-37.5 75.5-61q10-9 10-17t-11-18q-10-10-18-8.5t-18 10.5q-33 31-68.5 51t-76 30-85.5 10q-48 0-91-14t-79-40-64.5-63.5-48.5-85-30-104-10-119.5q0-85 19-154t53-118.5 81.5-76 102.5-26.5q61 0 111.5 33t90.5 91 68 132.5 43 156.5q0 12 6.5 16t20.5 4q28 0 28-19v-444q0-10-6.5-14.5t-20.5-4.5q-28 0-28 19v286q-22-69-53.5-126t-72-97.5-88-63-102.5-22.5zm-401-348h875v-10h-875zm0 385h875v-20h-875zm0 485h875v-5h-875zm0 380h875v-10h-875z"/><path transform="translate(140.13 20.4) scale(.016 -.016)" d="m260-18q-44 0-79 18t-54.5 57.5-19.5 103.5v335q0 10 6 14t19 4q14 0 20.5-4t6.5-14v-329q0-44 11.5-74.5t35-46.5 60.5-16q30 0 58.5 12.5t53.5 38 44 67.5 29 100v249q0 9 6.5 13.5t20.5 4.5q13 0 19.5-4.5t6.5-13.5v-405q0-20 4-34t12.5-21 22.5-7q11 0 21 4.5t20.5 13.5 20.5 23q5 7 11.5 7t14.5-6q6-5 7.5-11.5t-2.5-12.5q-11-20-27.5-35t-35.5-23-39-8-34.5 6-25.5 18-16.5 29.5-5.5 40.5l-1 57q-15-43-37.5-72.5t-48.5-46.5-53-24.5-52-7.5zm-260-347h646v-10h-646zm0 385h646v-20h-646zm0 485h646v-5h-646zm0 380h646v-10h-646z"/><path transform="translate(150.46 20.4) scale(.016 -.016)" d="m189-17q-40 0-61 24.5t-21 73.5v415q0 10 6 14.5t19 4.5q14 0 20.5-4.5t6.5-14.5v-403q0-30 9-46t31-16q11 0 21 4.5t20 13.5 20 24q5 6 12 6t13-6q7-5 9-11.5t-2-13.5q-12-20-28.5-34.5t-35.5-22.5-39-8zm-57 700q-22 0-32.5 12t-10.5 37 10.5 37.5 32.5 12.5 33-12.5 11-37.5-11-37-33-12zm-132-1048h300v-10h-300zm0 385h300v-20h-300zm0 485h300v-5h-300zm0 380h300v-10h-300z"/><path transform="translate(155.26 20.4) scale(.016 -.016)" d="m256-17q-54 0-95.5 29t-65.5 85-24 137q0 51 9.5 94.5t28.5 78.5 47 60 64.5 38.5 82.5 13.5q33 0 65.5-9.5t66.5-29.5v391q0 10 6.5 14.5t19.5 4.5q14 0 20-4.5t6-14.5v-779q0-31 9.5-46.5t30.5-15.5q11 0 21 4.5t20 14.5 20 25q5 6 11.5 5.5t13.5-6.5q7-5 9-12t-2-13q-12-20-28-34.5t-35-22.5-38-8q-28 0-47 11.5t-28 32-9 49.5q0 12 0 24t0 23q-23-54-53-84.5t-62-43-64-12.5zm-129 254q0-59 15-105t45.5-72.5 77.5-26.5q35 0 67.5 19.5t59.5 63.5 43 119v193q-36 25-68.5 33.5t-64.5 8.5-59.5-10-48.5-29-36.5-47-23-64.5-7.5-82.5zm-127-602h629v-10h-629zm0 385h629v-20h-629zm0 485h629v-5h-629zm0 380h629v-10h-629z"/><path transform="translate(165.33 20.4) scale(.016 -.016)" d="m287-18q-72 0-120 32.5t-72 88-24 125.5q0 65 17 118.5t48.5 92 76 59.5 99.5 21q53 0 87-17t50.5-45 16.5-63q0-38-18-68.5t-50-54-75.5-40-95.5-25.5-107-12l-1 46q42 1 84 8t79 19 66 30 45.5 41.5 16.5 52.5q0 39-27 59t-76 20q-35 0-67.5-14t-58-43-40.5-72-15-103q0-71 22.5-117t59.5-68 82-22q40 0 67 13t46.5 32 35.5 39q8 8 16 7.5t16-6.5 11-14-3-16q-18-26-45.5-50t-64-39-82.5-15zm-287-347h526v-10h-526zm0 385h526v-20h-526zm0 485h526v-5h-526zm0 380h526v-10h-526z"/><path transform="translate(173.74 20.4) scale(.016 -.016)" d="m251-19q-47 0-83.5 12.5t-62.5 29.5-39 32q-7 8-6 15.5t10 16.5q8 9 15 9.5t15-7.5q31-27 69-45t84-18q35 0 60 13.5t39 37 14 53.5q0 35-20 55t-51 32-65.5 23-66 26.5-51 43-19.5 72.5q0 39 19.5 70t56 49 86.5 18q37 0 68-10t54-25.5 37-32.5q7-7 5-14.5t-9-14.5-15-7-16 7q-31 25-59.5 38t-66.5 13q-52 0-79.5-23.5t-27.5-63.5q0-35 19.5-55t51-32 66.5-23.5 66.5-27 51-42 19.5-71.5q0-38-18-73.5t-55-58-96-22.5zm-251-346h531v-10h-531zm0 385h531v-20h-531zm0 485h531v-5h-531zm0 380h531v-10h-531z"/></svg>