<svg width="97.552" height="26.4" viewBox="0 0 97.552 26.4" xmlns="http://www.w3.org/2000/svg"><path transform="translate(0 20.4) scale(.016 -.016)" d="m107-14q-47 0-40 30l209 832q4 14 16 20.5t34 6.5h162q95 0 158-22t95-66.5 32-112.5q0-76-29.5-132t-82-93.5-122.5-60.5-151-34q-37-4-77-6.5t-73-2.5l-83-331q-4-14-14.5-21t-33.5-7zm150 439q23 0 49 1t52.5 3.5 50.5 5.5q85 14 146 42t94.5 74.5 33.5 113.5q0 46-22 75t-67 42-117 13h-126z"/><path transform="translate(11.2 20.4) scale(.016 -.016)" d="m136-15q-54 0-70 40.5t6 118.5l179 715q6 19 15.5 25t29.5 6q29 0 38-9t3-27l-192-750q-5-22-2-32.5t15-10.5q9 0 17.5 6t18.5 17.5 23 30.5q7 10 15.5 11.5t19.5-5.5q16-9 20-18.5t-2-19.5q-18-33-39-55t-44.5-32.5-50.5-10.5z"/><path transform="translate(15.984 20.4) scale(.016 -.016)" d="m165-17q-37 0-65 20.5t-43.5 58-15.5 89.5q0 47 13 98.5t39 99 63.5 86 86 61.5 107.5 23q30 0 61-7.5t61-21.5l1 3q4 14 14.5 18t27.5 4q29 0 38.5-9t3.5-27l-97-375q-5-18-5-27.5t4.5-12.5 9.5-3q10 0 19.5 6t20.5 18.5 24 29.5q7 10 15.5 11.5t19.5-5.5q16-9 20-19t-1-20q-9-18-28-41t-46-39.5-62-16.5q-34 0-51.5 14.5t-22.5 37-2 49 9 50.5q1 5 1.5 11t1.5 13q-37-59-74.5-98.5t-74.5-59-73-19.5zm-33 180q0-29 6.5-52t19.5-35.5 32-12.5q36 0 78.5 37.5t87.5 109 89 172.5l9 35q-32 14-60 18.5t-51 4.5q-40 0-73.5-17.5t-59-46.5-43-65.5-26.5-74.5-9-73z"/><path transform="translate(25.936 20.4) scale(.016 -.016)" d="m167-15q-44 0-70.5 20.5t-32.5 63 11 106.5l77 309q6 19 15.5 25t29.5 6q29 0 38-9t3-27l-82-320q-7-27-7.5-48.5t10-34 36.5-12.5q35 0 73.5 29t77.5 81.5 75.5 124 67.5 157.5l3 28q6 19 15.5 25t29.5 6q29 0 38-9t4-27l-160-629q-23-91-52.5-144.5t-74-76.5-112.5-23q-37 0-70 9t-60.5 24.5-49.5 33.5q-15 13-19.5 27t15.5 31q17 15 28 16.5t27-12.5q29-23 61-37t72-14q42 0 69.5 16.5t46 53.5 34.5 99l85 336q-29-51-59.5-89.5t-62.5-64-65-38-65-12.5z"/><path transform="translate(35.984 20.4) scale(.016 -.016)" d="m180-19q-42 0-67 17t-35.5 47-8.5 68.5 13 80.5l70 291q3 14 12 22.5t34 8.5q30 0 37.5-9t3.5-27l-74-295q-9-34-11.5-62t7.5-45 39-17 57 21 53.5 55.5 47 76.5 36.5 84l48 187q4 14 12.5 22.5t31.5 8.5q32 0 38.5-9t1.5-27l-66-282q-3-19-6-42.5t-0.5-45.5 14.5-35.5 38-13.5q31 0 61 20t55.5 53.5 45 75 30.5 86 11 84.5q0 12-0.5 25.5t-3.5 28.5-8 29q-5 18-1.5 30.5t13.5 19 26 6.5q19 0 30-11.5t17-35.5q6-12 8.5-25t3.5-26 1-27q0-52-14.5-109t-42-111.5-65.5-98-85.5-69-101.5-25.5q-45 0-71.5 17.5t-39 48-14.5 68.5q-23-41-51.5-71t-60.5-46.5-69-16.5z"/><path transform="translate(49.648 20.4) scale(.016 -.016)" d="m74-15q-17 0-30.5 7t-7.5 24l116 468q6 19 15.5 25t29.5 6q29 0 38-9t3-27l-40-162q28 49 57.5 87t58.5 63.5 55.5 38.5 47.5 13q27 0 48.5-13t33.5-30q7-10 5-21.5t-11-22.5q-11-12-21.5-16.5t-18.5 3.5q-11 8-22.5 14t-23.5 6q-26 0-61.5-28t-74-80-76-122.5-66.5-154.5l-8-43q-3-13-13.5-19.5t-33.5-6.5z"/><path transform="translate(56.912 20.4) scale(.016 -.016)" d="m134-15q-53 0-69.5 40.5t5.5 118.5l82 340q6 19 15.5 25t29.5 6q29 0 38-9t3-27l-95-375q-5-22-2.5-32.5t15.5-10.5q9 0 17 6t18.5 17.5 24.5 30.5q7 10 15.5 11.5t19.5-5.5q16-9 20-18.5t-2-19.5q-19-33-40-55t-44.5-32.5-50.5-10.5zm110 684q-22 0-36 13.5t-14 39.5q0 29 16.5 51t51.5 22q23 0 37-13.5t14-40.5q0-28-16.5-50t-52.5-22z"/><path transform="translate(61.712 20.4) scale(.016 -.016)" d="m170-15q-39 0-62.5 17.5t-29.5 52.5 8 86l69 279h-76q-12 0-16.5 10t-0.5 30q4 21 13.5 30.5t21.5 9.5h79l50 199q5 19 15 25t30 6q29 0 38-9t4-27l-50-194h126q12 0 17-9.5t0-30.5q-4-20-13-30t-21-10h-129l-77-295q-8-34-2.5-49t24.5-15q20 0 45 17t51 54q8 10 17.5 11.5t23.5-6.5q15-9 18-18.5t-1-18.5q-12-24-36-51t-58-45.5-78-18.5z"/><path transform="translate(67.92 20.4) scale(.016 -.016)" d="m232-19q-61 0-100.5 25.5t-59.5 70.5-20 100q0 60 20.5 120.5t59 110.5 94.5 80.5 128 30.5q47 0 79-15t49-41.5 17-64.5q0-41-24.5-74t-65.5-59-93-45-107-32-108-22l6 71q33 5 74 14t80.5 21 73 29 53.5 39 20 50q0 27-18 38.5t-47 11.5q-45 0-83-23t-64-60.5-40-82.5-14-89q0-38 10.5-66t33.5-43 58-15q34 0 60.5 13.5t49.5 35.5 46 48q12 14 27 11t26-14 13-23-9-26q-36-47-73.5-74.5t-75-39-76.5-11.5z"/><path transform="translate(81.136 20.4) scale(.016 -.016)" d="m106-14q-22 0-32.5 7t-7.5 23l211 847q4 14 16.5 20.5t34.5 6.5 32.5-7 6.5-22l-212-847q-3-14-14.5-21t-34.5-7z"/><path transform="translate(86.544 20.4) scale(.016 -.016)" d="m310-19q-44 0-83.5 10.5t-73.5 29-62 43.5-49 53q-8 12-4 22.5t15 19.5q15 12 25.5 15t21.5-9q22-25 53-47.5t70.5-37 86.5-14.5 86.5 10.5 68.5 30.5 45 52 16 75q0 29-9.5 52.5t-28 44-45 37.5-62.5 35q-33 16-63 35t-55.5 41-44.5 49-29.5 60.5-10.5 74.5q0 50 19.5 92t57 72 89.5 46.5 117 16.5q52 0 93.5-14t76-37.5 62.5-50.5q10-10 8-21.5t-15-22.5q-12-12-23.5-14.5t-22.5 5.5q-23 19-48 35t-56 25.5-75 9.5q-42 0-77.5-9t-60.5-26.5-38.5-44-13.5-62.5q0-32 8-57t26.5-46 47.5-40 71-38q43-21 78.5-45.5t62-54.5 40-66.5 13.5-81.5q0-58-22.5-104.5t-64-79.5-98-51-123.5-18z"/></svg>