<svg width="206.86" height="26.4" viewBox="0 0 206.86 26.4" xmlns="http://www.w3.org/2000/svg"><path transform="translate(0 20.4) scale(.016 -.016)" d="m127-14q-28 0-25 20l138 850q2 10 9 14.5t22 4.5h178q90 0 150.5-20.5t91.5-64.5 31-116q0-70-26-122.5t-73-89-111-59-139-31.5q-40-5-80.5-7.5t-77.5-3.5l-58-356q-2-10-8.5-14.5t-21.5-4.5zm95 424q26 1 51.5 2.5t52 4 51.5 5.5q87 11 151.5 41.5t101 82 36.5 126.5q0 56-24.5 89.5t-73 48.5-122.5 15h-157zm-222-775h700v-10h-700zm0 385h700v-20h-700zm0 485h700v-5h-700zm0 380h700v-10h-700z"/><path transform="translate(11.2 20.4) scale(.016 -.016)" d="m93-15q-13 0-20 5t-5 15l142 865q2 11 8.5 15.5t19.5 4.5q15 0 21.5-5.5t4.5-15.5l-142-865q-2-10-8.5-14.5t-20.5-4.5zm-93-350h271v-10h-271zm0 385h271v-20h-271zm0 485h271v-5h-271zm0 380h271v-10h-271z"/><path transform="translate(15.536 20.4) scale(.016 -.016)" d="m340 519q45 0 91-14.5t77-34.5q13-9 10-23l-72-443q-2-10-8-14.5t-21-4.5q-12 0-19 5t-6 15l34 210q-34-80-72-131.5t-78-76-83-24.5q-41 0-71.5 23.5t-47 66.5-16.5 104q0 49 12 98t35 93 57 78 78.5 53.5 99.5 19.5zm-4-49q-41 0-76-16t-62-44.5-45.5-65.5-28.5-79-10-85q0-41 9.5-74.5t29-53 51.5-19.5q41 0 85.5 39t87 119 78.5 201l7 42q-37 21-68 28.5t-58 7.5zm-336-835h593v-10h-593zm0 385h593v-20h-593zm0 485h593v-5h-593zm0 380h593v-10h-593z"/><path transform="translate(25.024 20.4) scale(.016 -.016)" d="m65-394q-11-1-15 6t-3 19q2 12 7 17.5t15 6.5q85 9 143 24.5t94.5 44 57.5 77.5 33 123l53 323q-29-73-62.5-124t-68-81-67.5-44-61-14q-34 0-60.5 16.5t-37.5 54 0 99.5l55 341q2 11 8 15.5t20 4.5q15 0 21.5-5.5t4.5-15.5l-55-336q-7-42-4.5-70t17-41.5 41.5-13.5q32 0 68.5 22.5t75 71.5 74.5 128.5 65 193.5l6 46q2 11 8.5 15.5t20.5 4.5q16 0 21.5-6t3.5-17l-94-572q-14-85-39.5-141t-69-91-111-53.5-165.5-28.5zm-65 29h615v-10h-615zm0 385h615v-20h-615zm0 485h615v-5h-615zm0 380h615v-10h-615z"/><path transform="translate(34.864 20.4) scale(.016 -.016)" d="m538-15q-15 0-26 6t-19.5 27-15.5 64-15 116l-28 233-111-244q-31-70-51.5-110.5t-34.5-60.5-26.5-25.5-27.5-5.5-26 6-19.5 27-16 63.5-15.5 115.5l-32 289q-1 11 5 20t22 9q13 0 19-4.5t6-16.5l30-288q6-56 10-88t8-47.5 8-19.5 9-4 10.5 4 14.5 19.5 25 47.5 42 89l130 288q6 12 13 16t19 4 18.5-5.5 7.5-17.5l36-286q8-56 12.5-88t8.5-47.5 8-19.5 9-4 11 4 15.5 19 25 47.5 39.5 88.5l123 290q5 11 11.5 15.5t18.5 3.5q16-2 21-11t-1-22l-127-295q-30-70-51-110.5t-36-60-28.5-25.5-28.5-6zm-538-350h814v-10h-814zm0 385h814v-20h-814zm0 485h814v-5h-814zm0 380h814v-10h-814z"/><path transform="translate(47.888 20.4) scale(.016 -.016)" d="m90-15q-12 0-18.5 4.5t-4.5 15.5l79 490q2 11 8.5 15.5t19.5 4.5q15 0 21-5.5t4-15.5l-37-229q28 75 56.5 124.5t57.5 78 57 40 53 11.5q28 0 53-12.5t37-31.5q5-5 3.5-12t-7.5-14q-7-8-14.5-10t-14.5 4q-10 9-26.5 18t-38.5 9q-29 0-60-22t-63.5-70.5-64.5-127.5-63-194l-7-52q-2-10-9-14.5t-21-4.5zm-90-350h454v-10h-454zm0 385h454v-20h-454zm0 485h454v-5h-454zm0 380h454v-10h-454z"/><path transform="translate(55.152 20.4) scale(.016 -.016)" d="m92-15q-13 0-20 5t-5 15l79 490q2 11 8.5 15.5t19.5 4.5q15 0 21.5-5.5t4.5-15.5l-79-490q-2-10-8.5-14.5t-20.5-4.5zm111 698q-20 0-31 11t-11 32q0 24 13 40t38 16q19 0 30-11t11-32q1-24-12-40t-38-16zm-203-1048h258v-10h-258zm0 385h258v-20h-258zm0 485h258v-5h-258zm0 380h258v-10h-258z"/><path transform="translate(59.28 20.4) scale(.016 -.016)" d="m145-15q-12 0-19.5 5t-5.5 15l73 447h-106q-11 0-14.5 6t-1.5 18q2 13 7 18.5t16 5.5h107l60 370q2 11 8.5 15.5t19.5 4.5q15 0 21.5-5t4.5-16l-60-369h106q10 0 13.5-6t1.5-18q-2-13-7.5-18.5t-15.5-5.5h-106l-73-448q-2-10-8.5-14.5t-20.5-4.5zm-145-350h374v-10h-374zm0 385h374v-20h-374zm0 485h374v-5h-374zm0 380h374v-10h-374z"/><path transform="translate(65.264 20.4) scale(.016 -.016)" d="m246-19q-60 0-100 27t-60.5 75.5-20.5 111.5q0 66 20 124.5t56.5 103.5 87.5 70.5 113 25.5q49 0 80.5-15.5t46-41 14.5-56.5q0-43-24-76.5t-64.5-59.5-90-44-101-30.5-97.5-20.5l1 45q38 7 82 17.5t85.5 25 76 34.5 55 45.5 20.5 57.5q0 35-24 52.5t-67 17.5q-45 0-84-20t-68-57-45.5-86-16.5-107q0-57 16-95t46-56.5 70-18.5q41 0 74 18.5t58 44.5 43 48q8 9 16.5 8t16.5-7q7-7 9-14t-5-17q-23-32-56.5-62t-74.5-49-88-19zm-246-346h526v-10h-526zm0 385h526v-20h-526zm0 485h526v-5h-526zm0 380h526v-10h-526z"/><path transform="translate(78.48 20.4) scale(.016 -.016)" d="m127-14q-28 0-25 19l141 866q1 10 8 14.5t20 4.5q12 0 18.5-3.5t10.5-12.5l365-779 127 776q1 10 8 14.5t21 4.5q28 0 25-19l-140-866q-1-10-8-14.5t-20-4.5q-11 0-17 3.5t-10 12.5l-367 783-127-780q-2-10-8.5-14.5t-21.5-4.5zm-127-351h888v-10h-888zm0 385h888v-20h-888zm0 485h888v-5h-888zm0 380h888v-10h-888z"/><path transform="translate(92.688 20.4) scale(.016 -.016)" d="m0 0q-7 0-12 5.5t-5.5 13.5 4.5 15l600 791h-432q-9 0-12.5 6t-1.5 20q2 13 7.5 18.5t13.5 5.5h490q12 0 16.5-11.5t-4.5-22.5l-598-791h475q10 0 13-5.5t2-18.5q-2-14-7.5-20t-14.5-6zm0-365h613v-10h-613zm0 385h613v-20h-613zm0 485h613v-5h-613zm0 380h613v-10h-613z"/><path transform="translate(107.3 20.4) scale(.016 -.016)" d="m129 0q-28 0-25 19l136 837q3 19 32 19h199q77 0 131-18t82-55.5 28-96.5q0-52-21-94t-56-72-78-48.5-87-23.5l-1-4q43-1 81-12t67.5-32 46.5-53.5 17-77.5q0-55-18.5-100.5t-51.5-80.5-78.5-59-100.5-36-116-12zm35 50h150q69 0 125.5 16.5t97.5 47 63 74.5 22 97q0 40-16 68.5t-45.5 47-71 28-92.5 9.5h-170zm71 438h151q51 0 99 14t86.5 42 60.5 67 22 88q0 45-21.5 73t-64 40.5-104.5 12.5h-174zm-235-853h725v-10h-725zm0 385h725v-20h-725zm0 485h725v-5h-725zm0 380h725v-10h-725z"/><path transform="translate(118.9 20.4) scale(.016 -.016)" d="m340 519q45 0 91-14.5t77-34.5q13-9 10-23l-72-443q-2-10-8-14.5t-21-4.5q-12 0-19 5t-6 15l34 210q-34-80-72-131.5t-78-76-83-24.5q-41 0-71.5 23.5t-47 66.5-16.5 104q0 49 12 98t35 93 57 78 78.5 53.5 99.5 19.5zm-4-49q-41 0-76-16t-62-44.5-45.5-65.5-28.5-79-10-85q0-41 9.5-74.5t29-53 51.5-19.5q41 0 85.5 39t87 119 78.5 201l7 42q-37 21-68 28.5t-58 7.5zm-336-835h593v-10h-593zm0 385h593v-20h-593zm0 485h593v-5h-593zm0 380h593v-10h-593z"/><path transform="translate(128.38 20.4) scale(.016 -.016)" d="m220-19q-47 0-84 14.5t-62.5 36-38.5 41.5q-6 8-5 16t10 15q10 7 17 7.5t14-8.5q25-32 63-54.5t87-22.5q35 0 62.5 12t43 34 15.5 54q0 30-17 49.5t-43.5 34.5-56.5 29-56.5 32-43.5 44-17 64q0 42 21 73t59 49 87 18q39 0 69.5-12.5t52-30.5 33.5-35q6-8 5-14.5t-11-13.5q-8-6-15-5.5t-14 7.5q-27 29-55 43.5t-68 14.5q-50 0-80-23.5t-30-66.5q0-29 16.5-49t43.5-35 57.5-29.5 57-32 43.5-43 17-62.5q0-44-22-78.5t-62-53.5-93-19zm-220-346h479v-10h-479zm0 385h479v-20h-479zm0 485h479v-5h-479zm0 380h479v-10h-479z"/><path transform="translate(136.05 20.4) scale(.016 -.016)" d="m92-15q-13 0-20 5t-5 15l79 490q2 11 8.5 15.5t19.5 4.5q15 0 21.5-5.5t4.5-15.5l-79-490q-2-10-8.5-14.5t-20.5-4.5zm111 698q-20 0-31 11t-11 32q0 24 13 40t38 16q19 0 30-11t11-32q1-24-12-40t-38-16zm-203-1048h258v-10h-258zm0 385h258v-20h-258zm0 485h258v-5h-258zm0 380h258v-10h-258z"/><path transform="translate(140.18 20.4) scale(.016 -.016)" d="m248-19q-57 0-98 26.5t-62.5 75.5-21.5 117q0 64 18.5 122t53.5 102 84 69.5 109 25.5q50 0 92-20.5t67-53.5q6-8 5-15t-11-16q-10-8-18-8t-14 7q-24 25-52 41t-74 16-84-21.5-65-58.5-41.5-85-14.5-102q0-53 15-92t45-59.5 73-21.5q38 0 69 15.5t57.5 41 51.5 55.5q8 9 16.5 8t15.5-8q7-6 9-13.5t-5-16.5q-30-42-65-71t-74-44.5-81-15.5zm-248-346h523v-10h-523zm0 385h523v-20h-523zm0 485h523v-5h-523zm0 380h523v-10h-523z"/><path transform="translate(153.34 20.4) scale(.016 -.016)" d="m361-17q-58 0-104.5 23.5t-80 69-51.5 109.5-18 144q0 78 15.5 150t45 134.5 70.5 113.5 91 87.5 108.5 56 121.5 19.5q56 0 103-13.5t86-36.5 70-51q9-9 8.5-18.5t-12.5-18.5q-10-9-17.5-6.5t-17.5 10.5q-30 24-64 42t-73 28.5-86 10.5q-55 0-105.5-18t-94-51.5-79-79.5-60.5-103-39-121.5-14-134.5q0-69 14.5-123.5t41.5-92.5 63.5-57.5 81.5-19.5q51 0 99.5 24t95 69.5 92.5 112 90 150.5q1 10 8 15t21 5q29 0 26-20l-62-386q-1-9-8-14t-22-5q-28 0-25 19l41 267q-54-96-112.5-160.5t-120.5-97-127-32.5zm-361-348h875v-10h-875zm0 385h875v-20h-875zm0 485h875v-5h-875zm0 380h875v-10h-875z"/><path transform="translate(167.34 20.4) scale(.016 -.016)" d="m435-15q-12 0-19.5 5t-5.5 15l39 237q-28-72-61.5-122t-67.5-80-67-43.5-62-13.5q-35 0-61.5 16.5t-37.5 54 0 99.5l55 342q2 11 8 15.5t20 4.5q15 0 21.5-5.5t3.5-15.5l-55-337q-7-42-3.5-69.5t18-41.5 41.5-14q32 0 68.5 22.5t75 71 74 127.5 64.5 192l7 51q2 12 8.5 16t20.5 4 20.5-5 4.5-16l-80-491q-2-10-8.5-14.5t-20.5-4.5zm-435-350h611v-10h-611zm0 385h611v-20h-611zm0 485h611v-5h-611zm0 380h611v-10h-611z"/><path transform="translate(177.12 20.4) scale(.016 -.016)" d="m92-15q-13 0-20 5t-5 15l79 490q2 11 8.5 15.5t19.5 4.5q15 0 21.5-5.5t4.5-15.5l-79-490q-2-10-8.5-14.5t-20.5-4.5zm111 698q-20 0-31 11t-11 32q0 24 13 40t38 16q19 0 30-11t11-32q1-24-12-40t-38-16zm-203-1048h258v-10h-258zm0 385h258v-20h-258zm0 485h258v-5h-258zm0 380h258v-10h-258z"/><path transform="translate(181.25 20.4) scale(.016 -.016)" d="m419-15q-12 0-19 5t-6 15l34 209q-35-81-73-132t-78.5-75-82.5-24-72.5 23.5-47 66.5-16.5 104q0 49 12 98t35 93 57.5 78 79 53.5 98.5 19.5q33 0 66.5-9.5t65.5-28.5l63 389q2 11 8.5 15.5t20.5 4.5q15 0 21-6t4-16l-141-864q-2-10-8.5-14.5t-20.5-4.5zm-305 195q0-40 9.5-73.5t29.5-53.5 51-20q42 0 86.5 38t87.5 118 79 205l8 39q-38 23-69.5 30t-58.5 7q-42 0-76.5-16t-62-44.5-46-65-28.5-78.5-10-86zm-114-545h596v-10h-596zm0 385h596v-20h-596zm0 485h596v-5h-596zm0 380h596v-10h-596z"/><path transform="translate(190.78 20.4) scale(.016 -.016)" d="m246-19q-60 0-100 27t-60.5 75.5-20.5 111.5q0 66 20 124.5t56.5 103.5 87.5 70.5 113 25.5q49 0 80.5-15.5t46-41 14.5-56.5q0-43-24-76.5t-64.5-59.5-90-44-101-30.5-97.5-20.5l1 45q38 7 82 17.5t85.5 25 76 34.5 55 45.5 20.5 57.5q0 35-24 52.5t-67 17.5q-45 0-84-20t-68-57-45.5-86-16.5-107q0-57 16-95t46-56.5 70-18.5q41 0 74 18.5t58 44.5 43 48q8 9 16.5 8t16.5-7q7-7 9-14t-5-17q-23-32-56.5-62t-74.5-49-88-19zm-246-346h526v-10h-526zm0 385h526v-20h-526zm0 485h526v-5h-526zm0 380h526v-10h-526z"/><path transform="translate(199.2 20.4) scale(.016 -.016)" d="m220-19q-47 0-84 14.5t-62.5 36-38.5 41.5q-6 8-5 16t10 15q10 7 17 7.5t14-8.5q25-32 63-54.5t87-22.5q35 0 62.5 12t43 34 15.5 54q0 30-17 49.5t-43.5 34.5-56.5 29-56.5 32-43.5 44-17 64q0 42 21 73t59 49 87 18q39 0 69.5-12.5t52-30.5 33.5-35q6-8 5-14.5t-11-13.5q-8-6-15-5.5t-14 7.5q-27 29-55 43.5t-68 14.5q-50 0-80-23.5t-30-66.5q0-29 16.5-49t43.5-35 57.5-29.5 57-32 43.5-43 17-62.5q0-44-22-78.5t-62-53.5-93-19zm-220-346h479v-10h-479zm0 385h479v-20h-479zm0 485h479v-5h-479zm0 380h479v-10h-479z"/></svg>