<svg width="239.33" height="28.672" viewBox="0 0 239.33 28.672" xmlns="http://www.w3.org/2000/svg"><path transform="translate(0 21.632) scale(.016 -.016)" d="m178-14q-27 0-27 19v913q0 10 7 14.5t21 4.5h201q102 0 170.5-23.5t104-75 35.5-136.5q0-71-25.5-124t-71.5-89.5-107.5-58.5-131.5-31q-39-4-76.5-7t-71.5-4v-383q0-10-6.5-14.5t-21.5-4.5zm28 451q23 1 47.5 2.5t50 4.5 49.5 5q82 10 145 39.5t99 82.5 36 130q0 68-28.5 108.5t-84.5 59-140 18.5h-174zm-206-865h739v-10h-739zm0 448h739v-20h-739zm0 485h739v-5h-739zm0 443h739v-10h-739z"/><path transform="translate(11.824 21.632) scale(.016 -.016)" d="m192-17q-40 0-62 25t-22 74v852q0 10 6 14.5t19 4.5q14 0 20.5-4.5t6.5-14.5v-840q0-31 10-47t32-16q11 0 21 3t20 10.5 20 17.5q6 6 12.5 6t13.5-8q5-5 6.5-11.5t-2.5-13.5q-11-16-27.5-27.5t-35.5-18-38-6.5zm-192-411h299v-10h-299zm0 448h299v-20h-299zm0 485h299v-5h-299zm0 443h299v-10h-299z"/><path transform="translate(16.608 21.632) scale(.016 -.016)" d="m265-17q-55 0-99 29t-69.5 86-25.5 140q0 50 9.5 93t28.5 77.5 47 59 64.5 38 80.5 13.5q34 0 67-10t66-30v16q0 11 6.5 15.5t20.5 4.5 20-4.5 6-14.5v-405q0-21 4.5-34.5t14.5-20 25-6.5q10 0 19.5 3.5t19 11 20.5 18.5q5 6 11.5 5.5t12.5-7.5q7-6 8-13t-3-14q-11-15-27-26.5t-34-18-36-6.5q-21 0-36.5 5.5t-27 17-17 28-6.5 38.5q0 4-0.5 9.5t-0.5 10.5q-23-45-52-68.5t-59.5-32-57.5-8.5zm-138 259q0-62 16.5-109t49-73.5 81.5-26.5q32 0 62.5 13.5t56 46 41.5 88.5v248q-35 24-67 32.5t-65 8.5q-32 0-59-9.5t-48.5-28.5-36.5-46.5-23-63.5-8-80zm-127-670h622v-10h-622zm0 448h622v-20h-622zm0 485h622v-5h-622zm0 443h622v-10h-622z"/><path transform="translate(26.56 21.632) scale(.016 -.016)" d="m270-18q-48 0-85 19.5t-57.5 60-20.5 104.5v330q0 9 6 13.5t19 4.5q14 0 20.5-4.5t6.5-13.5v-325q0-44 12.5-75.5t38.5-48.5 67-17q29 0 56 9t50 28 41 49 28 71v309q0 10 6.5 14.5t20.5 4.5q13 0 19-4.5t6-14.5v-719q0-77-25-129t-71.5-78.5-110.5-26.5q-45 0-80 12.5t-60.5 36-42.5 53.5q-6 10-3.5 19t15.5 15q11 6 18.5 4.5t12.5-11.5q25-40 59-60t88-20q46 0 79 20t51 61.5 18 106.5v315q-15-32-36.5-54t-45.5-35-49.5-18.5-50.5-5.5zm-270-410h628v-10h-628zm0 448h628v-20h-628zm0 485h628v-5h-628zm0 443h628v-10h-628z"/><path transform="translate(36.608 21.632) scale(.016 -.016)" d="m220-15q-14 0-20 5.5t-9 13.5l-157 480q-5 12 2 21.5t24 9.5q11 0 17-4.5t8-14.5l136-430 153 430q4 10 10.5 14.5t18.5 4.5q11 0 17-4.5t9-14.5l156-430 133 430q3 10 9 14.5t17 4.5q18 0 24.5-9t0.5-24l-156-478q-3-8-9.5-13.5t-19.5-5.5-18.5 5.5-8.5 13.5l-155 426-154-426q-2-8-8.5-13.5t-19.5-5.5zm-220-413h804v-10h-804zm0 448h804v-20h-804zm0 485h804v-5h-804zm0 443h804v-10h-804z"/><path transform="translate(49.472 21.632) scale(.016 -.016)" d="m157-15q-13 0-19 4.5t-6 14.5v370q0 50-17.5 71.5t-48.5 21.5q-22 0-37.5-11.5t-25-37-12.5-66.5q0-9-6-13.5t-18-4.5q-10 0-16.5 4.5t-6.5 16.5q2 53 17.5 88.5t42.5 53.5 63 18q23 0 42.5-5.5t34-18 24-32 13.5-47.5l1-9q12 32 28 53.5t33.5 35.5 34.5 20.5 31 6.5 22-5 8-20q1-38 8.5-59.5t19-30 24.5-8.5q34 0 67 21t66 53q5 5 12 3.5t13-8.5 7.5-14-3.5-12q-35-38-77-62.5t-85-24.5q-24 0-44.5 11t-33 36.5-16.5 67.5q-16-2-32.5-13t-32-31.5-28-50.5-20.5-69v-299q0-10-6.5-14.5t-20.5-4.5zm-157-413h551v-10h-551zm0 448h551v-20h-551zm0 485h551v-5h-551zm0 443h551v-10h-551z"/><path transform="translate(58.288 21.632) scale(.016 -.016)" d="m192-17q-41 0-63 25t-22 74v414q0 10 6 14.5t19 4.5q14 0 20.5-4.5t6.5-14.5v-402q0-31 10-47t33-16q11 0 21 3.5t20 10.5 20 17q5 6 12 5.5t13-7.5q6-6 7-12.5t-3-13.5q-11-15-27.5-26.5t-35-18-37.5-6.5zm-59 700q-22 0-33 12t-11 37 11 37.5 33 12.5q21 0 32-12.5t11-37.5q1-25-10.5-37t-32.5-12zm-133-1111h300v-10h-300zm0 448h300v-20h-300zm0 485h300v-5h-300zm0 443h300v-10h-300z"/><path transform="translate(63.088 21.632) scale(.016 -.016)" d="m244-17q-36 0-59.5 14.5t-35 42.5-11.5 67v345h-91q-11 0-15 6t-4 18q0 13 4 18.5t15 5.5h91v211q0 10 6.5 14.5t19.5 4.5 20-4.5 7-14.5v-211h141q11 0 15.5-5.5t4.5-18.5q0-12-4.5-18t-15.5-6h-141v-333q0-41 12-64.5t47-23.5q25 0 42.5 14t34.5 34q7 9 14.5 7.5t15.5-7.5q7-7 9-14.5t-3-14.5q-14-21-32-36t-40-23-47-8zm-244-411h388v-10h-388zm0 448h388v-20h-388zm0 485h388v-5h-388zm0 443h388v-10h-388z"/><path transform="translate(69.296 21.632) scale(.016 -.016)" d="m293-18q-74 0-123.5 33t-74 89-24.5 125q0 65 17 118.5t48.5 92 75.5 59 99 20.5q54 0 88-17t51-45.5 17-63.5q0-38-17-68.5t-48-53-74-37.5-96-23-112-8v46q45-1 87.5 4.5t79.5 16 65 27.5 43.5 40 15.5 53q0 40-27.5 60t-76.5 20q-35 0-67.5-14t-58-42.5-40.5-71.5-15-102q0-72 23-118t61.5-68.5 85.5-22.5q39 0 64.5 11t44 28 34.5 36q9 8 16.5 7.5t16.5-6.5q8-6 11-14t-4-16q-16-24-42.5-46t-62.5-35.5-81-13.5zm-293-410h526v-10h-526zm0 448h526v-20h-526zm0 485h526v-5h-526zm0 443h526v-10h-526z"/><path transform="translate(82.512 21.632) scale(.016 -.016)" d="m457-19q-76 0-135 20t-99 58-60.5 95-20.5 131v649q0 10 6 14.5t20 4.5q15 0 21.5-4.5t6.5-14.5v-651q0-81 29.5-136.5t88-83.5 143.5-28q84 0 141.5 28t87 83.5 29.5 136.5v651q0 10 6.5 14.5t20.5 4.5q27 0 27-19v-649q0-99-36-167t-105-102.5-171-34.5zm-457-409h911v-10h-911zm0 448h911v-20h-911zm0 485h911v-5h-911zm0 443h911v-10h-911z"/><path transform="translate(97.088 21.632) scale(.016 -.016)" d="m351-19q-35 0-72 6.5t-72 19.5-65 33.5-53 48.5q-8 9-8 16.5t9 16.5q10 9 17.5 9.5t19.5-12.5q26-27 60-46t75.5-28.5 88.5-9.5q55 0 98 14t73.5 41 47 66 16.5 88q0 46-17 78t-46.5 55-67.5 40.5-82 33.5q-37 14-73.5 30t-69 37-57.5 49.5-39 67-14 88.5q0 55 20 97t55 72 81 45.5 99 15.5q55 0 100-15t82-38.5 66-50.5q9-8 9-15.5t-9-15.5q-9-10-17-10t-19 8q-29 24-61 43.5t-69.5 30-81.5 10.5q-46 0-82.5-12.5t-62-35-39.5-55.5-14-74q0-50 18-85.5t48.5-60 70-42.5 81.5-34q45-16 89-35.5t80.5-48 58-70 21.5-103.5q0-59-21-107.5t-59.5-83.5-92.5-53.5-120-18.5zm-351-409h726v-10h-726zm0 448h726v-20h-726zm0 485h726v-5h-726zm0 443h726v-10h-726z"/><path transform="translate(113.5 21.632) scale(.016 -.016)" d="m178-14q-27 0-27 19v929q0 10 7 14.5t21 4.5 20-4 11-13l344-605 344 605q5 9 11 13t21 4q27 0 27-19v-929q0-10-6.5-14.5t-20.5-4.5q-27 0-27 19v835l-318-556q-6-10-12.5-13.5t-18.5-3.5q-11 0-18 3.5t-13 13.5l-317 556v-835q0-10-6.5-14.5t-21.5-4.5zm-178-414h1108v-10h-1108zm0 448h1108v-20h-1108zm0 485h1108v-5h-1108zm0 443h1108v-10h-1108z"/><path transform="translate(131.23 21.632) scale(.016 -.016)" d="m295-19q-68 0-118.5 34.5t-78 95-27.5 139.5q0 60 16.5 109t47 85 71 55.5 89.5 19.5q66 0 116-34t78.5-95 28.5-140q0-48-10.5-89t-29.5-74-46-57-61.5-36.5-75.5-12.5zm0 50q39 0 70 15.5t52.5 45 33.5 70 12 88.5q0 65-20.5 114.5t-58 77-89.5 27.5q-39 0-70.5-15.5t-53-44.5-33.5-69.5-12-89.5q0-65 20.5-114.5t58.5-77 90-27.5zm-295-459h588v-10h-588zm0 448h588v-20h-588zm0 485h588v-5h-588zm0 443h588v-10h-588z"/><path transform="translate(140.64 21.632) scale(.016 -.016)" d="m265-17q-55 0-99 29t-69.5 86-25.5 140q0 50 9.5 93t28.5 77.5 47 59 65 38 82 13.5q33 0 65.5-9.5t66.5-29.5v454q0 10 6.5 14.5t19.5 4.5q14 0 20-4.5t6-14.5v-843q0-31 11-46t33-15q10 0 20 3.5t19.5 11.5 19.5 18q6 6 12.5 5t12.5-8q6-6 7.5-12.5t-3.5-13.5q-11-15-27-26.5t-34-18-36-6.5q-29 0-48.5 11.5t-29 32-9.5 48.5q0 4 0 8.5t0 8.5q-23-45-52.5-68.5t-60-32-57.5-8.5zm-138 259q0-62 16.5-109t49-73.5 81.5-26.5q32 0 62.5 13.5t56 46 42.5 88.5v247q-35 24-67.5 33t-65.5 9q-32 0-59-9.5t-48.5-28.5-36.5-46.5-23-63.5-8-80zm-127-670h628v-10h-628zm0 448h628v-20h-628zm0 485h628v-5h-628zm0 443h628v-10h-628z"/><path transform="translate(150.69 21.632) scale(.016 -.016)" d="m293-18q-74 0-123.5 33t-74 89-24.5 125q0 65 17 118.5t48.5 92 75.5 59 99 20.5q54 0 88-17t51-45.5 17-63.5q0-38-17-68.5t-48-53-74-37.5-96-23-112-8v46q45-1 87.5 4.5t79.5 16 65 27.5 43.5 40 15.5 53q0 40-27.5 60t-76.5 20q-35 0-67.5-14t-58-42.5-40.5-71.5-15-102q0-72 23-118t61.5-68.5 85.5-22.5q39 0 64.5 11t44 28 34.5 36q9 8 16.5 7.5t16.5-6.5q8-6 11-14t-4-16q-16-24-42.5-46t-62.5-35.5-81-13.5zm-293-410h526v-10h-526zm0 448h526v-20h-526zm0 485h526v-5h-526zm0 443h526v-10h-526z"/><path transform="translate(159.1 21.632) scale(.016 -.016)" d="m157-15q-13 0-19 4.5t-6 14.5v370q0 50-17.5 71.5t-48.5 21.5q-22 0-37.5-11.5t-25-37-12.5-66.5q0-9-6-13.5t-18-4.5q-10 0-16.5 4.5t-6.5 16.5q2 53 17.5 88.5t42.5 53.5 63 18q23 0 42.5-5.5t34-18 24-32 13.5-47.5l1-9q12 32 28 53.5t33.5 35.5 34.5 20.5 31 6.5 22-5 8-20q1-38 8.5-59.5t19-30 24.5-8.5q34 0 67 21t66 53q5 5 12 3.5t13-8.5 7.5-14-3.5-12q-35-38-77-62.5t-85-24.5q-24 0-44.5 11t-33 36.5-16.5 67.5q-16-2-32.5-13t-32-31.5-28-50.5-20.5-69v-299q0-10-6.5-14.5t-20.5-4.5zm-157-413h551v-10h-551zm0 448h551v-20h-551zm0 485h551v-5h-551zm0 443h551v-10h-551z"/><path transform="translate(167.92 21.632) scale(.016 -.016)" d="m157-15q-13 0-19 4.5t-6 14.5v370q0 50-17.5 71.5t-48.5 21.5q-22 0-37.5-11.5t-25-37-12.5-66.5q0-9-6-13.5t-18-4.5q-10 0-16.5 4.5t-6.5 16.5q2 53 17.5 88.5t42.5 53.5 63 18q28 0 48-8t34.5-22.5 22.5-34.5 10-45v-4q16 34 37 56.5t46 36 51.5 19.5 52.5 6q48 0 85.5-19t59.5-59.5 22-106.5v-240q0-20 4-34t13.5-21.5 24.5-7.5q10 0 20 3t20 10.5 20 17.5q6 6 12.5 5.5t13.5-7.5q6-6 7-12.5t-4-13.5q-11-15-27.5-27t-34.5-18-38-6-36 6.5-27 18.5-16.5 30.5-5.5 43.5v244q0 45-12 77t-38.5 49-69.5 17q-27 0-54.5-8t-51-26-42-47.5-30.5-73.5v-310q0-10-6.5-14.5t-20.5-4.5zm-157-413h671v-10h-671zm0 448h671v-20h-671zm0 485h671v-5h-671zm0 443h671v-10h-671z"/><path transform="translate(183.46 21.632) scale(.016 -.016)" d="m466-19q-83 0-151 35t-117.5 99-76 153.5-26.5 199.5q0 73 13 137t38 118 60 96.5 79 72.5 96 45.5 110 15.5q48 0 92-11.5t83.5-36 69.5-65.5q9-9 7.5-15.5t-10.5-15.5q-11-8-18.5-8t-15.5 10q-27 30-59.5 50t-69.5 29.5-79 9.5q-49 0-92.5-13.5t-81.5-39.5-68-63-51.5-85.5-32.5-106-11-124.5q0-101 22.5-180.5t64.5-136.5 99-86.5 126-29.5q50 0 94 13.5t80 43 62 77 40.5 114.5 14.5 157h-261q-8 0-12.5 5.5t-4.5 19.5 4.5 19.5 12.5 5.5h295q12 0 17-5t5-18q0-129-25-221t-71.5-151-110.5-86.5-140-27.5zm-466-409h913v-10h-913zm0 448h913v-20h-913zm0 485h913v-5h-913zm0 443h913v-10h-913z"/><path transform="translate(198.06 21.632) scale(.016 -.016)" d="m270-18q-48 0-85 19.5t-57.5 60-20.5 104.5v330q0 9 6 13.5t19 4.5q14 0 20.5-4.5t6.5-13.5v-325q0-44 12.5-75.5t38.5-48.5 67-17q29 0 56 9t50 27.5 41 48.5 28 71v310q0 10 6.5 14.5t20.5 4.5q13 0 19-4.5t6-14.5v-403q0-20 4.5-34.5t14.5-22 24-7.5q10 0 20 3.5t20 10.5 20 18q6 6 13 5.5t13-7.5q5-5 6.5-12t-3.5-13q-11-15-27-27t-34-19-38-7-35 6-26 18-17 30-7 41v21q-15-34-36.5-56t-45.5-35-49.5-18.5-50.5-5.5zm-270-410h646v-10h-646zm0 448h646v-20h-646zm0 485h646v-5h-646zm0 443h646v-10h-646z"/><path transform="translate(208.4 21.632) scale(.016 -.016)" d="m192-17q-41 0-63 25t-22 74v414q0 10 6 14.5t19 4.5q14 0 20.5-4.5t6.5-14.5v-402q0-31 10-47t33-16q11 0 21 3.5t20 10.5 20 17q5 6 12 5.5t13-7.5q6-6 7-12.5t-3-13.5q-11-15-27.5-26.5t-35-18-37.5-6.5zm-59 700q-22 0-33 12t-11 37 11 37.5 33 12.5q21 0 32-12.5t11-37.5q1-25-10.5-37t-32.5-12zm-133-1111h300v-10h-300zm0 448h300v-20h-300zm0 485h300v-5h-300zm0 443h300v-10h-300z"/><path transform="translate(213.2 21.632) scale(.016 -.016)" d="m265-17q-55 0-99 29t-69.5 86-25.5 140q0 50 9.5 93t28.5 77.5 47 59 65 38 82 13.5q33 0 65.5-9.5t66.5-29.5v454q0 10 6.5 14.5t19.5 4.5q14 0 20-4.5t6-14.5v-843q0-31 11-46t33-15q10 0 20 3.5t19.5 11.5 19.5 18q6 6 12.5 5t12.5-8q6-6 7.5-12.5t-3.5-13.5q-11-15-27-26.5t-34-18-36-6.5q-29 0-48.5 11.5t-29 32-9.5 48.5q0 4 0 8.5t0 8.5q-23-45-52.5-68.5t-60-32-57.5-8.5zm-138 259q0-62 16.5-109t49-73.5 81.5-26.5q32 0 62.5 13.5t56 46 42.5 88.5v247q-35 24-67.5 33t-65.5 9q-32 0-59-9.5t-48.5-28.5-36.5-46.5-23-63.5-8-80zm-127-670h628v-10h-628zm0 448h628v-20h-628zm0 485h628v-5h-628zm0 443h628v-10h-628z"/><path transform="translate(223.25 21.632) scale(.016 -.016)" d="m293-18q-74 0-123.5 33t-74 89-24.5 125q0 65 17 118.5t48.5 92 75.5 59 99 20.5q54 0 88-17t51-45.5 17-63.5q0-38-17-68.5t-48-53-74-37.5-96-23-112-8v46q45-1 87.5 4.5t79.5 16 65 27.5 43.5 40 15.5 53q0 40-27.5 60t-76.5 20q-35 0-67.5-14t-58-42.5-40.5-71.5-15-102q0-72 23-118t61.5-68.5 85.5-22.5q39 0 64.5 11t44 28 34.5 36q9 8 16.5 7.5t16.5-6.5q8-6 11-14t-4-16q-16-24-42.5-46t-62.5-35.5-81-13.5zm-293-410h526v-10h-526zm0 448h526v-20h-526zm0 485h526v-5h-526zm0 443h526v-10h-526z"/><path transform="translate(231.66 21.632) scale(.016 -.016)" d="m249-19q-46 0-82 11.5t-62 28-38 29.5q-7 8-5.5 15.5t8.5 17.5q8 8 15.5 8.5t15.5-6.5q32-26 69-42t82-16q35 0 60.5 13.5t39.5 37.5 14 55q0 36-20 55.5t-51 30.5-65.5 21-66 25-51.5 42-20 73q0 40 20 71t57 49.5 87 18.5q37 0 68-9.5t54.5-24.5 38.5-31q7-8 5-15t-9-15q-6-7-14.5-7t-16.5 6q-32 24-61 37t-68 13q-52 0-79.5-24t-27.5-64q0-35 19.5-55t51-31.5 67-21.5 66.5-25 51-41.5 20-72.5q0-38-18.5-74.5t-56-59.5-97.5-23zm-249-409h479v-10h-479zm0 448h479v-20h-479zm0 485h479v-5h-479zm0 443h479v-10h-479z"/></svg>