<svg width="197.23" height="27.048" viewBox="0 0 197.23 27.048" xmlns="http://www.w3.org/2000/svg"><path transform="translate(0 19.992) scale(.014 -.014)" d="m396 394q-12-1-18.5 5.5t-6.5 19.5 6 19 18 7q85 3 154 26t118.5 64.5 76 99.5 26.5 131q0 97-48.5 147.5t-132.5 50.5q-45 0-86.5-19t-76-55.5-60.5-89.5-39.5-121-13.5-149v-525q0-9-6-14t-21-5q-14 0-20.5 5t-6.5 14v858q-19-47-44.5-84t-60.5-67.5-84-57.5q-10-6-17.5-3t-13.5 15-4 20 12 12q60 32 101 75t67 98.5 40 123.5q2 11 10.5 15t21.5 4q12 0 19-4.5t7-14.5v-210q27 76 69.5 127t97 77 115.5 26q70 0 122-29.5t81-85 29-133.5q0-84-31-151.5t-88-115.5-136-75.5-176-30.5zm-396-884h874v-10h-874zm0 510h874v-20h-874zm0 485h874v-5h-874zm0 505h874v-10h-874z"/><path transform="translate(12.236 19.992) scale(.014 -.014)" d="m-57-17q-12 0-18 7.5t-6 16.5 6 16.5 18 7.5q32 0 63 17t60.5 48 56.5 73.5 51.5 93 45.5 107.5 37.5 117.5 28 122 18 121.5 6.5 114q0 11 8.5 17t19 6 19-6 8.5-17q0-56-7.5-118.5t-20.5-127.5-32-129-43-124.5-52-115-59.5-99.5-65-78-69.5-51.5-73-18.5zm281 0q-20 0-36 6.5t-26.5 18.5-16 30.5-5.5 43.5v743q0 99 28 146.5t86 47.5q37 0 62-19t37-57.5 12-97.5q0-12-8.5-18.5t-19-6.5-19 6.5-8.5 18.5q0 43-6 70t-18.5 40.5-32.5 13.5-34-13.5-20.5-45-6.5-85.5v-731q0-20 4.5-34t14-21.5 23.5-7.5q10 0 20.5 3t20.5 10.5 19 17.5q6 6 13 5.5t13-7.5q6-6 7-12.5t-3-13.5q-11-15-27.5-27t-35-18-37.5-6zm-224-473h394v-10h-394zm0 510h394v-20h-394zm0 485h394v-5h-394zm0 505h394v-10h-394z"/><path transform="translate(17.752 19.992) scale(.014 -.014)" d="m265-17q-55 0-99 29t-69.5 86-25.5 140q0 50 9.5 93t28.5 77.5 47 59 64.5 38 80.5 13.5q34 0 67-10t66-30v16q0 11 6.5 15.5t20.5 4.5 20-4.5 6-14.5v-405q0-21 4.5-34.5t14.5-20 25-6.5q10 0 19.5 3.5t19 11 20.5 18.5q5 6 11.5 5.5t12.5-7.5q7-6 8-13t-3-14q-11-15-27-26.5t-34-18-36-6.5q-21 0-36.5 5.5t-27 17-17 28-6.5 38.5q0 4-0.5 9.5t-0.5 10.5q-23-45-52-68.5t-59.5-32-57.5-8.5zm-138 259q0-62 16.5-109t49-73.5 81.5-26.5q32 0 62.5 13.5t56 46 41.5 88.5v248q-35 24-67 32.5t-65 8.5q-32 0-59-9.5t-48.5-28.5-36.5-46.5-23-63.5-8-80zm-127-732h622v-10h-622zm0 510h622v-20h-622zm0 485h622v-5h-622zm0 505h622v-10h-622z"/><path transform="translate(26.46 19.992) scale(.014 -.014)" d="m484-24q15 9 31 19t32.5 19.5 33 18 31.5 15.5q10 4 17 0t10.5-12.5 1-17-13.5-13.5q-16-8-34-18t-36-20.5-35.5-21-33.5-20.5zm-157-495q-41 0-71.5 17t-47.5 48.5-17 75.5q0 41 10 77.5t30 70 49.5 64 68.5 60.5q26 16 51.5 32.5t51.5 33.5v136q-15-33-36.5-55t-45.5-35-49.5-18.5-50.5-5.5q-48 0-85 19.5t-57.5 60-20.5 104.5v330q0 9 6 13.5t19 4.5q14 0 20.5-4.5t6.5-13.5v-325q0-44 12.5-75.5t38.5-48.5 67-17q29 0 56 9t50 27.5 41 48.5 28 71v310q0 10 6.5 14.5t20.5 4.5q13 0 19-4.5t6-14.5v-768q0-60-12-106.5t-35-77.5-56-47-74-16zm5 49q26 0 48 12t38 36 25 60 9 84v180q-23-14-46-28.5t-46-29.5q-26-21-47-45.5t-35.5-52-22.5-58-8-63.5q0-28 10-49.5t29-33.5 46-12zm-332-20h640v-10h-640zm0 510h640v-20h-640zm0 485h640v-5h-640zm0 505h640v-10h-640z"/><path transform="translate(35.42 19.992) scale(.014 -.014)" d="m286-18q-38 0-66 13t-47.5 38.5-29 65-9.5 91.5v184q0 53-16 73t-47 20q-22 0-38-11.5t-25-37-12-66.5q-1-9-7-13.5t-18-4.5q-10 0-16 4.5t-6 16.5q2 53 17 88.5t42.5 53.5 63.5 18q28 0 49-8t36-25 22-44 7-65v-171q0-43 5.5-75.5t18-54 33.5-32 52-10.5q25 0 50 9t45.5 29.5 33 54 12.5 82.5l23-88q-9-33-26-58.5t-39.5-42.5-50-25.5-57.5-8.5zm301-1q-37 0-65 13.5t-47 39.5-29 66-10 92v304q0 10 6.5 14.5t20.5 4.5q13 0 19.5-4.5t6.5-14.5v-294q0-43 4.5-75.5t16.5-53.5 32-32 51-11q22 0 42 6.5t37.5 20 32 34 25 47.5 16.5 61 6 74q0 71-8 118t-21.5 70.5-30.5 23.5q-14 0-20.5-8t-6.5-19q0-17 13-29t34.5-18 48.5-6q32 0 60.5 13t63.5 39q7 5 13.5 2t11-10 4-14.5-6.5-12.5q-32-26-67-43t-81-17q-39 0-70 11.5t-49 32.5-18 51q0 20 9 35t24.5 24 36.5 9q37 0 62-31t38-87 13-129q0-43-6-81.5t-18-72-30-59.5-42.5-45-55-29-66.5-10zm-587-471h888v-10h-888zm0 510h888v-20h-888zm0 485h888v-5h-888zm0 505h888v-10h-888z"/><path transform="translate(47.852 19.992) scale(.014 -.014)" d="m-55-17q-12 0-18.5 7.5t-7 16.5 5.5 16.5 18 7.5q34 0 63 21t51 70.5 37 132.5 21 208l42-22q-4-131-21-219.5t-45.5-141-65.5-75-80-22.5zm517 0q-21 0-36.5 6.5t-26.5 19-16.5 31-5.5 44.5q0 32 2.5 69.5t5 76.5 5 76 2.5 68q0 45-15.5 62.5t-46.5 17.5q-25 0-57.5-10t-64.5-19.5-58-9.5q-16 0-30.5 16.5t-24 40-9.5 42.5q0 13 4 22.5t12 15.5 19 6q21 0 29.5-19t8.5-46q0-7 0-15t0-16q23-2 51 9t61.5 22 67.5 11q36 0 59-13t34.5-41.5 11.5-73.5q0-31-2.5-67.5t-5-75-5-73.5-2.5-64q0-32 10-48.5t32-16.5q11 0 21 3t20 10.5 20 17.5q7 6 13.5 5.5t12.5-7.5q6-6 7-12.5t-3-13.5q-11-15-27.5-27t-35-18-37.5-6zm-462-473h568v-10h-568zm0 510h568v-20h-568zm0 485h568v-5h-568zm0 505h568v-10h-568z"/><path transform="translate(55.804 19.992) scale(.014 -.014)" d="m192-17q-41 0-63 25t-22 74v414q0 10 6 14.5t19 4.5q14 0 20.5-4.5t6.5-14.5v-402q0-31 10-47t33-16q11 0 21 3.5t20 10.5 20 17q5 6 12 5.5t13-7.5q6-6 7-12.5t-3-13.5q-11-15-27.5-26.5t-35-18-37.5-6.5zm-59 700q-22 0-33 12t-11 37 11 37.5 33 12.5q21 0 32-12.5t11-37.5q1-25-10.5-37t-32.5-12zm-133-1173h300v-10h-300zm0 510h300v-20h-300zm0 485h300v-5h-300zm0 505h300v-10h-300z"/><path transform="translate(60.004 19.992) scale(.014 -.014)" d="m244-17q-36 0-59.5 14.5t-35 42.5-11.5 67v345h-91q-11 0-15 6t-4 18q0 13 4 18.5t15 5.5h91v211q0 10 6.5 14.5t19.5 4.5 20-4.5 7-14.5v-211h141q11 0 15.5-5.5t4.5-18.5q0-12-4.5-18t-15.5-6h-141v-333q0-41 12-64.5t47-23.5q25 0 42.5 14t34.5 34q7 9 14.5 7.5t15.5-7.5q7-7 9-14.5t-3-14.5q-14-21-32-36t-40-23-47-8zm-244-473h388v-10h-388zm0 510h388v-20h-388zm0 485h388v-5h-388zm0 505h388v-10h-388z"/><path transform="translate(65.436 19.992) scale(.014 -.014)" d="m307-17q-38 0-74.5 17t-68 48-55 73.5-37 93-13.5 106.5q0 34 7.5 64.5t21.5 55 34 42 44.5 27 52.5 9.5q53 0 86-22.5t48-59.5 15-79q0-34-11.5-69.5t-32.5-70-50-66.5q-41-48-96-86t-115.5-60.5-122.5-22.5q-9 0-14 7.5t-4.5 16.5 6.5 16.5 18 7.5q54 0 107 20t100.5 54 82.5 75q24 27 41 56.5t26.5 59.5 9.5 58q0 59-26 87.5t-72 28.5q-21 0-39.5-10.5t-32.5-30.5-21.5-47-7.5-60q0-66 18.5-119.5t48.5-91.5 65-58.5 68-20.5q30 0 53 12t41 29.5 31 32.5q8 9 16 8.5t17-7.5q8-6 10.5-13.5t-3.5-16.5q-16-24-42-45.5t-59-35-71-13.5zm-307-473h444v-10h-444zm0 510h444v-20h-444zm0 485h444v-5h-444zm0 505h444v-10h-444z"/><path transform="translate(75.852 19.992) scale(.014 -.014)" d="m412-19q-95 0-164 33.5t-106.5 95.5-37.5 149q0 49 15.5 93t44 79 68 59.5 88.5 34.5q-54 16-93 49.5t-59.5 81-20.5 102.5q0 46 13 85.5t37.5 71 59 54 77.5 34.5 92 12q50 0 96.5-12t87.5-35.5 73-57.5q9-9 11-18t-11-21q-9-8-18-6t-20 11q-32 28-67 47t-73.5 28.5-81.5 9.5q-50 0-90.5-14t-69.5-40.5-44-64-15-82.5q0-62 26-109.5t74-74.5 111-27h134q8 0 12.5-5.5t4.5-19.5q0-13-4.5-19t-12.5-6h-130q-57 0-104-17t-81-48.5-53-75-19-95.5q0-72 30-123t86.5-78 134.5-27q50 0 95.5 14.5t86.5 43.5 80 75q10 11 17.5 12.5t17.5-6.5q11-8 11.5-17.5t-9.5-22.5q-40-50-87-84t-100.5-51.5-112.5-17.5zm-412-471h774v-10h-774zm0 510h774v-20h-774zm0 485h774v-5h-774zm0 505h774v-10h-774z"/><path transform="translate(86.688 19.992) scale(.014 -.014)" d="m644-19q-33 0-64 5t-60 15-54.5 24.5-46.5 31.5q-12 11-13 21.5t10 21.5q9 9 17 9t20-10q26-20 55-34.5t63.5-22 75.5-7.5q49 0 90 17.5t71 50 46.5 77.5 16.5 99q0 57-20.5 104t-55 86.5-77.5 77-88.5 76.5-88.5 84q-54-144-97-254t-79.5-189-70.5-132.5-69-84.5-75.5-44.5-89.5-13.5q-15 0-22 5.5t-7 19.5 7.5 20 21.5 6q34 0 63.5 9.5t56.5 31.5 53 58.5 54 91 59.5 128.5 70 171 84.5 219q-24 29-42.5 55t-31.5 51-19.5 50.5-6.5 50.5q0 35 13.5 62t37 43 54.5 16q47 0 75.5-31t28.5-83q0-24-3.5-50t-13.5-61.5-30-88.5q36-39 77-75.5t82-71.5 78-71 65.5-76.5 45.5-86.5 17-101q0-67-20.5-122.5t-58-95-89.5-61-116-21.5zm-121 825q12 34 19 61.5t10 50.5 3 42q0 31-13 49.5t-36 18.5q-16 0-27.5-8t-17.5-23.5-6-37.5q0-25 8.5-50.5t24-51.5 35.5-51zm-523-1296h991v-10h-991zm0 510h991v-20h-991zm0 485h991v-5h-991zm0 505h991v-10h-991z"/><path transform="translate(104.76 19.992) scale(.014 -.014)" d="m213-20q-34 0-60.5 12t-41.5 33.5-15 49.5q0 31 15.5 54t42 36 60.5 13q32 0 61-10t57-26 57.5-33 62-33 70.5-26 83-10q52 0 99.5 13.5t88.5 40 73.5 66 55.5 90.5 35.5 113 12.5 135q0 109-35 195t-100 146-157 92-207 32q-47 0-92-6.5t-85.5-20.5-74-37.5-56.5-58-34-81.5q-2-11-8.5-16t-19.5-3q-12 2-17 8.5t-4 17.5q10 55 35.5 96t64 70.5 85.5 47.5 100 26.5 108 8.5q129 0 231.5-36.5t174.5-104 110-163 38-214.5q0-80-14-149.5t-40.5-126-64.5-99.5-85-72.5-101.5-45-116.5-15.5-110.5 14-86.5 34.5-70 41.5-61.5 34.5-59.5 13.5-46-13-16-36q0-22 16.5-35t44.5-13q33 0 55 20t34 56.5 12 85.5v658q0 10 7 14.5t21 4.5 20-4.5 6-14.5v-659q0-64-18.5-111.5t-53.5-73.5-86-26zm-213-470h1127v-10h-1127zm0 510h1127v-20h-1127zm0 485h1127v-5h-1127zm0 505h1127v-10h-1127z"/><path transform="translate(120.54 19.992) scale(.014 -.014)" d="m307-17q-38 0-74.5 17t-68 48-55 73.5-37 93-13.5 106.5q0 34 7.5 64.5t21.5 55 34 42 44.5 27 52.5 9.5q53 0 86-22.5t48-59.5 15-79q0-34-11.5-69.5t-32.5-70-50-66.5q-41-48-96-86t-115.5-60.5-122.5-22.5q-9 0-14 7.5t-4.5 16.5 6.5 16.5 18 7.5q54 0 107 20t100.5 54 82.5 75q24 27 41 56.5t26.5 59.5 9.5 58q0 59-26 87.5t-72 28.5q-21 0-39.5-10.5t-32.5-30.5-21.5-47-7.5-60q0-66 18.5-119.5t48.5-91.5 65-58.5 68-20.5q30 0 53 12t41 29.5 31 32.5q8 9 16 8.5t17-7.5q8-6 10.5-13.5t-3.5-16.5q-16-24-42-45.5t-59-35-71-13.5zm-307-473h444v-10h-444zm0 510h444v-20h-444zm0 485h444v-5h-444zm0 505h444v-10h-444z"/><path transform="translate(126.76 19.992) scale(.014 -.014)" d="m296-19q-69 0-119.5 30.5t-78.5 88.5-28 141q0 61 15.5 111.5t44.5 88 71 58 95 20.5q46 0 90.5-20t73.5-54q6-8 5-15.5t-10-16.5-16.5-9-14.5 6q-29 27-58 43.5t-74 16.5q-37 0-68-15t-53.5-44.5-34-71-11.5-94.5q0-63 19-111.5t57-76 95-27.5q31 0 55 8t45 25.5 44 43.5q7 7 15 6.5t16-6.5 11-13.5-2-14.5q-23-34-54-56t-65-32-65-10zm-296-471h522v-10h-522zm0 510h522v-20h-522zm0 485h522v-5h-522zm0 505h522v-10h-522z"/><path transform="translate(134.06 19.992) scale(.014 -.014)" d="m295-19q-68 0-118.5 34.5t-78 95-27.5 139.5q0 58 16 104.5t46.5 80.5 73.5 52 97 18v-29q-41 0-73.5-16.5t-56-46.5-36-71.5-12.5-91.5q0-65 20.5-114.5t58-77 90.5-27.5q39 0 70 15.5t52.5 45 33.5 70 12 88.5q0 71-24 121t-60.5 75.5-75.5 25.5q-34 0-52.5-12.5t-18.5-36.5q0-21 15-34t36-18.5 40-5.5q34 0 69 11t77.5 37 99.5 73q8 7 15.5 5t12-8.5 4.5-14.5-8-14q-61-52-108-80t-86-39.5-78-11.5q-33 0-65 10.5t-52.5 33.5-20.5 60q0 27 14.5 47.5t42 32.5 63.5 12q55 0 104-32t80-92.5 31-144.5q0-48-10-89t-29.5-74-47-57-61.5-36.5-75-12.5zm-295-471h588v-10h-588zm0 510h588v-20h-588zm0 485h588v-5h-588zm0 505h588v-10h-588z"/><path transform="translate(146.5 19.992) scale(.014 -.014)" d="m669-519q-43 0-73.5 17.5t-47.5 50-17 76.5q0 39 13.5 80t39.5 83 63.5 86 83.5 90q50 50 98 93t94.5 81.5 91.5 72.5q10 7 17 5.5t15-12.5q6-9 4.5-16.5t-11.5-14.5q-46-35-94-75t-96-85-96-94q-39-39-70-77t-52.5-74.5-32.5-71.5-11-68q0-46 22-71.5t64-25.5q58 0 88.5 53t30.5 152v582q-23-70-57.5-126.5t-78.5-96.5-95-61.5-107-21.5q-80 0-146.5 34t-114.5 98-74 152.5-26 196.5q0 78 14 146.5t40 126.5 63 104 84 78.5 102 49.5 117 17q60 0 112-14.5t97-43 84-72.5q9-9 8.5-16.5t-10.5-16.5q-10-10-18-9t-18 10q-35 37-75 61t-85 36-95 12q-54 0-101.5-15t-87.5-44-72-70.5-54.5-93.5-34.5-114-12-131q0-97 22-176t63-135.5 97.5-87 124.5-30.5q63 0 117.5 31.5t98.5 87 74 129.5 44 158q0 11 6.5 15.5t20.5 4.5q27 0 27-19v-731q0-85-20-143t-59.5-87.5-98.5-29.5zm-669 29h1056v-10h-1056zm0 510h1056v-20h-1056zm0 485h1056v-5h-1056zm0 505h1056v-10h-1056z"/><path transform="translate(161.28 19.992) scale(.014 -.014)" d="m270-18q-48 0-85 19.5t-57.5 60-20.5 104.5v330q0 9 6 13.5t19 4.5q14 0 20.5-4.5t6.5-13.5v-325q0-44 12.5-75.5t38.5-48.5 67-17q29 0 56 9t50 27.5 41 48.5 28 71v310q0 10 6.5 14.5t20.5 4.5q13 0 19-4.5t6-14.5v-403q0-20 4.5-34.5t14.5-22 24-7.5q10 0 20 3.5t20 10.5 20 18q6 6 13 5.5t13-7.5q5-5 6.5-12t-3.5-13q-11-15-27-27t-34-19-38-7-35 6-26 18-17 30-7 41v21q-15-34-36.5-56t-45.5-35-49.5-18.5-50.5-5.5zm-270-472h646v-10h-646zm0 510h646v-20h-646zm0 485h646v-5h-646zm0 505h646v-10h-646z"/><path transform="translate(170.32 19.992) scale(.014 -.014)" d="m192-17q-41 0-63 25t-22 74v414q0 10 6 14.5t19 4.5q14 0 20.5-4.5t6.5-14.5v-402q0-31 10-47t33-16q11 0 21 3.5t20 10.5 20 17q5 6 12 5.5t13-7.5q6-6 7-12.5t-3-13.5q-11-15-27.5-26.5t-35-18-37.5-6.5zm-59 700q-22 0-33 12t-11 37 11 37.5 33 12.5q21 0 32-12.5t11-37.5q1-25-10.5-37t-32.5-12zm-133-1173h300v-10h-300zm0 510h300v-20h-300zm0 485h300v-5h-300zm0 505h300v-10h-300z"/><path transform="translate(174.52 19.992) scale(.014 -.014)" d="m265-17q-55 0-99 29t-69.5 86-25.5 140q0 50 9.5 93t28.5 77.5 47 59 65 38 82 13.5q33 0 65.5-9.5t66.5-29.5v516q0 10 6.5 14.5t19.5 4.5q14 0 20-4.5t6-14.5v-905q0-31 11-46t33-15q10 0 20 3.5t19.5 11.5 19.5 18q6 6 12.5 5t12.5-8q6-6 7.5-12.5t-3.5-13.5q-11-15-27-26.5t-34-18-36-6.5q-29 0-48.5 11.5t-29 32-9.5 48.5q0 4 0 8.5t0 8.5q-23-45-52.5-68.5t-60-32-57.5-8.5zm-138 259q0-62 16.5-109t49-73.5 81.5-26.5q32 0 62.5 13.5t56 46 42.5 88.5v247q-35 24-67.5 33t-65.5 9q-32 0-59-9.5t-48.5-28.5-36.5-46.5-23-63.5-8-80zm-127-732h628v-10h-628zm0 510h628v-20h-628zm0 485h628v-5h-628zm0 505h628v-10h-628z"/><path transform="translate(183.32 19.992) scale(.014 -.014)" d="m307-17q-38 0-74.5 17t-68 48-55 73.5-37 93-13.5 106.5q0 34 7.5 64.5t21.5 55 34 42 44.5 27 52.5 9.5q53 0 86-22.5t48-59.5 15-79q0-34-11.5-69.5t-32.5-70-50-66.5q-41-48-96-86t-115.5-60.5-122.5-22.5q-9 0-14 7.5t-4.5 16.5 6.5 16.5 18 7.5q54 0 107 20t100.5 54 82.5 75q24 27 41 56.5t26.5 59.5 9.5 58q0 59-26 87.5t-72 28.5q-21 0-39.5-10.5t-32.5-30.5-21.5-47-7.5-60q0-66 18.5-119.5t48.5-91.5 65-58.5 68-20.5q30 0 53 12t41 29.5 31 32.5q8 9 16 8.5t17-7.5q8-6 10.5-13.5t-3.5-16.5q-16-24-42-45.5t-59-35-71-13.5zm-307-473h444v-10h-444zm0 510h444v-20h-444zm0 485h444v-5h-444zm0 505h444v-10h-444z"/><path transform="translate(189.53 19.992) scale(.014 -.014)" d="m-59-17q-13 0-19 7.5t-6 16.5 6 16.5 18 7.5q39 0 72.5 28.5t64 85 59 141.5 55.5 197l35-9q-27-124-56-216t-63.5-153-75.5-91.5-90-30.5zm357-2q-42 0-80 12t-67 34q-6 6-6.5 14.5t7.5 17.5q7 9 14.5 10.5t16.5-4.5q28-20 55.5-29t64.5-9q51 0 80.5 31.5t29.5 85.5q0 42-17 71.5t-44 51-57 41-57 43-44 55.5-17 79q0 26 10.5 49.5t34.5 23.5q13 0 20-7.5t7-20.5q0-11-5.5-30.5t-15.5-43.5q1-29 19-51.5t45-41 57-38.5 57-44.5 44-57.5 17-79q0-73-46-118t-123-45zm-298-471h550v-10h-550zm0 510h550v-20h-550zm0 485h550v-5h-550zm0 505h550v-10h-550z"/></svg>