<svg width="169.42" height="30.912" viewBox="0 0 169.42 30.912" xmlns="http://www.w3.org/2000/svg"><path transform="translate(0 22.848) scale(.016 -.016)" d="m499 380q-17-1-22 11t-1 28q5 16 14 27t26 11q66 2 130 14.5t120 37 99 60.5 68 83.5 25 107.5q0 44-19 76.5t-54 54-84 32.5-109 11q-76 0-148.5-16.5t-137-49-117.5-82.5q-17-16-31.5-10.5t-25.5 18.5q-9 10-8.5 24t14.5 27q42 42 95 74t112.5 53.5 123.5 32 129 10.5q89 0 155-18.5t109.5-52.5 65-80 21.5-103q0-75-30-134.5t-83-104.5-123-75.5-150-47-164-19.5zm-360-397q-39 0-71.5 17t-55 44.5-31.5 58.5q-6 18-1.5 30.5t20.5 19.5q18 7 29.5 2t21.5-22q12-22 26.5-37t31.5-21.5 37-6.5q38 0 64 29.5t51 108.5l195 606q5 14 17 21t34 7q23 0 34-7t5-23l-193-600q-23-72-52.5-123t-68.5-77.5-93-26.5z"/><path transform="translate(14.752 22.848) scale(.016 -.016)" d="m-147-17q-19 0-25 11.5t-2.5 26 16 26 30.5 11.5q31 0 71 19.5t85.5 54.5 92.5 82 94 102.5 90 115.5 80 121 64 119.5 42.5 111.5 15.5 95q0 15 13 22.5t30.5 7.5 30.5-7.5 13-22.5q0-45-17-101.5t-48.5-120-73.5-130-91.5-132.5-103.5-127-109-112.5-108.5-90.5-102-60.5-87.5-21.5zm319 1q-43 0-64.5 15.5t-27.5 41.5-1.5 58 14.5 64l223 687q29 89 70 129t99 40q34 0 58.5-17.5t37.5-48.5 13-74q0-19-13-28t-30.5-9-30.5 9-13 28q0 18-4 30.5t-11.5 19-21.5 6.5q-11 0-23-9t-23.5-29.5-23.5-58.5l-233-723q-4-13-6-26t3-21.5 19-8.5 26 7 22.5 18.5 18.5 22.5q5 9 15.5 12t25.5-7q17-10 17.5-20.5t-4.5-21.5q-10-17-28.5-37.5t-44.5-34.5-59-14z"/><path transform="translate(21.056 22.848) scale(.016 -.016)" d="m180-17q-43 0-74 19.5t-47.5 56.5-16.5 87q0 44 12.5 95t38 100 64 89.5 90.5 64.5 118 24q33 0 65-10t60-27l1 4q7 18 16.5 23.5t27.5 5.5q32 0 40-9.5t2-29.5l-119-361q-4-13-6-26t3-21.5 20-8.5q13 0 25 7t22.5 18.5 18.5 22.5q6 9 16.5 12t25.5-7q16-10 17-20.5t-5-21.5q-9-17-27.5-37.5t-44.5-34.5-59-14q-31 0-50 9t-28.5 24-12.5 34-1 39q0 3 0 5.5t1 4.5q-35-44-70-70t-66.5-36.5-56.5-10.5zm-48 174q0-31 8.5-51.5t26-31.5 41.5-11q34 0 69 22.5t70 65.5 68 102l53 162q-27 15-52 20t-50 5q-50 0-89-19t-66.5-51-45-70-25.5-75.5-8-67.5z"/><path transform="translate(31.008 22.848) scale(.016 -.016)" d="m392-20q19 11 38.5 21.5t38.5 19.5 36 17 31 14q16 6 24.5-1.5t11-21.5-1.5-27-16-18q-19-9-40.5-20t-44-22.5-44.5-23.5-44-25zm-284-499q-39 0-68.5 15.5t-45.5 42.5-16 61q0 44 18.5 83.5t52.5 76.5 81.5 72 106.5 69q25 15 51 29.5t53 29.5l45 138q-24-27-48.5-48.5t-50-36.5-52-22-51.5-7q-54 0-86 24t-38.5 68.5 12.5 104.5l99 302q7 20 16.5 26t28.5 6q31 0 39.5-9.5t1.5-29.5l-99-301q-12-38-11-63t17.5-37.5 50.5-12.5q26 0 56 15t60 42.5 58.5 66 51.5 84.5l68 213q7 20 16.5 26t28.5 6q31 0 39.5-9.5t1.5-29.5l-237-728q-23-72-48.5-123t-56-83-66-46.5-79.5-14.5zm13 77q24 0 44.5 12t39 35 36 59.5 33.5 86.5l34 108q-13-8-26.5-15.5t-27.5-15.5q-44-28-79.5-55.5t-59-54-36.5-52.5-13-53q0-18 7-30t19.5-18.5 28.5-6.5z"/><path transform="translate(41.248 22.848) scale(.016 -.016)" d="m208-19q-48 0-76 18.5t-39 48.5-9 66.5 14 73.5l69 210q6 21 0.5 32t-21.5 11q-14 0-27-8t-27.5-25.5-31.5-46.5q-9-13-17-18t-27-2q-20 5-23.5 18t3.5 28q18 36 41.5 65.5t53.5 46.5 66 17q33 0 54.5-11.5t31.5-32.5 10-48.5-10-58.5l-58-183q-9-27-12-55.5t9-47.5 48-19q23 0 47 11t47.5 32.5 44 52.5 36.5 71l83 256q7 19 16 25.5t29 6.5q33 0 40-9t1-28l-78-244q-9-29-16.5-59.5t-7-56.5 14.5-41.5 46-15.5q38 0 70.5 19.5t58 53 44 74 28 83 9.5 79.5q0 17-1 33t-3 31.5-6 29.5q-3 18 0.5 30t14.5 18.5 28 6.5 27.5-11.5 16.5-37.5q4-15 6.5-31.5t3.5-33.5 1-35q0-45-13-97.5t-39.5-104-64-94-86.5-68-108-25.5q-45 0-74 14t-43.5 37.5-18.5 52.5q-21-33-48.5-56.5t-59-35.5-68.5-12z"/><path transform="translate(55.456 22.848) scale(.016 -.016)" d="m-148-17q-19 0-25 11.5t-2.5 26 16 26 31.5 11.5q34 0 69 23.5t72 71.5 74.5 119.5 75.5 168.5l57-26q-47-121-90.5-204t-87-133.5-90-72.5-100.5-22zm557 1q-38 0-60 12t-30.5 33-6.5 47 10 53q8 24 21 54.5t28 64.5 28.5 68 22.5 64q8 29 0 39t-25 10q-25 0-56-10t-64-19.5-63-9.5q-22 0-37 14.5t-22.5 36.5-7.5 47q0 24 8 46t23.5 36.5 38.5 14.5q24 0 35-14t11-33q0-16-5.5-35t-15.5-34q18 0 49 11t68 22 72 11q29 0 50.5-13.5t29.5-44.5-6-83q-8-28-21.5-62t-29-69.5-30-69.5-23.5-64q-8-26-2.5-37t21.5-11q14 0 26 7t22 18.5 18 22.5q6 9 16.5 12t25.5-7q16-10 17-20.5t-5-21.5q-9-17-27.5-37.5t-44.5-34.5-59-14z"/><path transform="translate(64.544 22.848) scale(.016 -.016)" d="m142-16q-64 0-85.5 44.5t4.5 123.5l107 331q7 20 16.5 26t28.5 6q31 0 39.5-9.5t1.5-29.5l-116-357q-9-29-4.5-44.5t22.5-15.5q13 0 25 7t22 18.5 19 22.5q6 9 16.5 12t25.5-7q16-10 17-20.5t-5-21.5q-13-22-32.5-42t-45-32-56.5-12zm133 685q-20 0-34 13t-14 38q0 27 17.5 51t54.5 24q21 0 35-12.5t14-38.5q0-27-17.5-51t-55.5-24z"/><path transform="translate(69.344 22.848) scale(.016 -.016)" d="m167-16q-54 0-76.5 25t-21 67 17.5 95l171 527q6 20 15.5 26t29.5 6q31 0 39.5-9.5t1.5-29.5l-62-191h126q11 0 15.5-9.5t-1.5-30.5q-5-19-15-29.5t-21-10.5h-129l-95-291q-11-35-5.5-52.5t26.5-17.5q30 0 54 20t41 41q6 9 16.5 12t25.5-7q17-10 18-20t-5-21q-12-20-34.5-44t-55-40-76.5-16z"/><path transform="translate(75.552 22.848) scale(.016 -.016)" d="m248-18q-34 0-65 11.5t-56 33-43.5 51.5-28 66.5-9.5 77.5q0 39 9 80t27.5 80 46.5 69.5 66 49 86 18.5q39 0 66.5-15.5t41.5-42 14-60.5q0-57-27-110t-71.5-99.5-96.5-82.5q-54-38-114.5-66.5t-119.5-44-111-15.5q-14 0-20 11.5t-3.5 26 14 26 32.5 11.5q44 0 93 15t98 41 91 59q36 27 69 61t54.5 72 21.5 76q0 28-12 42.5t-39 14.5q-31 0-54.5-21.5t-40-54.5-24.5-69.5-8-66.5q0-37 10-67.5t28-52.5 41.5-33.5 49.5-11.5 50.5 9.5 47.5 26.5 45 36q14 13 27 10.5t24-13.5q13-12 15-25.5t-11-26.5q-33-34-68-56t-71.5-31.5-74.5-9.5z"/><path transform="translate(87.456 22.848) scale(.016 -.016)" d="m541-13q-35 0-65.5 7t-55.5 19-43 27q-16 12-18 24t10 28q11 13 21.5 16t24.5-5q20-12 41-20t43.5-11.5 43.5-3.5q58 0 114 18t100.5 53 71 87.5 26.5 120.5q0 48-27 82t-72.5 52-101.5 18q-20-8-38.5-14t-36.5-6q-25 0-37.5 11.5t-12.5 27.5q0 14 8 31t27 29 52 12q20 0 35.5-4t26.5-9q54 8 101.5 29t83 51.5 55.5 67 20 73.5q0 47-26.5 76.5t-80 44.5-135.5 15q-78 0-152-16t-139-48.5-119-83.5q-16-16-31-10.5t-26 18.5q-8 12-8 24.5t14 26.5q43 43 96 75t113.5 53 125.5 31.5 132 10.5q110 0 182.5-25.5t108.5-72 36-110.5q0-48-21-91.5t-57.5-79.5-85-60.5-105.5-34.5v-1q41-6 75-22.5t59-41.5 38.5-57.5 13.5-71.5q0-62-19.5-117t-56-100-87-77-112-49-130.5-17zm-402-4q-39 0-71.5 17t-55 44.5-31.5 58.5q-6 18-1.5 30.5t20.5 19.5q18 7 29.5 2t21.5-22q12-22 26.5-37t31.5-21.5 37-6.5q38 0 64 29.5t51 108.5l195 606q5 14 17 21t34 7q23 0 33.5-7t5.5-23l-193-600q-23-72-52.5-123t-68.5-77.5-93-26.5z"/><path transform="translate(103.33 22.848) scale(.016 -.016)" d="m353-19q-84 0-144.5 28t-93 79-32.5 119q0 57 21.5 109.5t60 96 91 74.5 113.5 43q-34 10-60 35.5t-41 61.5-15 77q0 54 17 101.5t48 86 74 66.5 96 42.5 114 14.5q56 0 104-14t87-40.5 65-64.5q12-16 9.5-28.5t-16.5-23.5q-14-12-27.5-10.5t-30.5 17.5q-25 24-57.5 41.5t-71 26.5-82.5 9q-54 0-98-17.5t-75-48.5-48-71-17-85q0-41 17.5-73t53.5-50.5 92-18.5h134q16 0 19.5-8.5t-3.5-31.5q-7-21-16-30.5t-23-9.5h-131q-64 0-120.5-21t-99-58.5-66.5-85.5-24-102q0-48 23.5-81t68-50.5 106.5-17.5q49 0 97.5 16.5t94.5 48.5 89 80q16 18 29 18t28-14q16-15 14.5-28t-19.5-31q-56-63-114.5-102t-119-57-121.5-18z"/><path transform="translate(120.53 22.848) scale(.016 -.016)" d="m489-17q-26 0-36 8t-9 32q17 182 24.5 321t8.5 239-4.5 168-18 108-30.5 57-41 17q-28 0-45-19t-25-49.5-8-64.5q0-6 0-12t1-12q1-16-8-24t-30-9q-22-1-30 6.5t-10 23.5q-1 9-1.5 16t-0.5 11q0 43 10 82t29.5 69 50 47 71.5 17q40 0 70.5-16t53-52.5 35-100 16-157-3-223-22.5-301.5q69 145 127 260.5t108 204.5 93.5 154 82.5 109.5 75 71 70.5 38.5 69.5 12q25 0 47-6t41.5-16.5 32.5-24.5q12-11 11.5-23t-10.5-24q-9-12-21-15.5t-24 3.5q-9 6-20.5 12t-26 9.5-33.5 3.5q-25 0-52.5-12.5t-59-41-68.5-76-80.5-117.5-96-165.5-115-220-137.5-281.5q-11-24-25.5-30.5t-35.5-6.5z"/><path transform="translate(137.97 22.848) scale(.016 -.016)" d="m567-15q-52 0-99.5 15.5t-92 38.5-85 46.5-77.5 39-71 15.5q-29 0-42-12t-13-28 13.5-26.5 38.5-10.5q26 0 45 14t35.5 46 33.5 86l151 457q28 85 62.5 150t77.5 109.5 94 67 112 22.5q51 0 91-20t62.5-56.5 22.5-83.5q0-51-23-95.5t-64.5-77-99-50-124.5-17.5q-75 0-144.5 16t-133 47-120.5 76q-14 11-15 24t11 29q13 17 25.5 19.5t25.5-9.5q47-38 103.5-65t122-41 138.5-14q44 0 81.5 11.5t65.5 32 44 48.5 16 62q0 25-11.5 43t-33 27.5-51.5 9.5q-42 0-78-18.5t-67.5-54.5-58.5-89.5-50-123.5l-148-448q-26-79-56-126t-67-67.5-85-20.5q-38 0-68 14.5t-47.5 39.5-17.5 56q0 38 18.5 66t51.5 44.5 75 16.5q47 0 90-15.5t84.5-38 82.5-45 84-38 89-15.5q57 0 99 18t73 54.5 54 89.5q7 15 20 18t32-4q21-8 26.5-20.5t-2.5-29.5q-34-70-78-116.5t-100.5-69.5-127.5-23z"/><path transform="translate(152.48 22.848) scale(.016 -.016)" d="m447-519q-44 0-76.5 16.5t-50 47-17.5 69.5q0 47 23.5 93.5t73 97 129.5 107 193.5 121.5 263.5 143q13 7 26 3.5t21-20.5q11-18 8-32t-20-22q-138-71-242-130t-177.5-109-119.5-92.5-67-79.5-21-71q0-26 17.5-41.5t45.5-15.5q54 0 98 47.5t73 139.5l165 507q-33-43-71.5-81.5t-81-69.5-85.5-52.5-86-33.5-84-12q-70 0-120 26t-77 77-27 125q0 64 17 137t48 147.5 73.5 146 94 134 110 110.5 122 74.5 128.5 26.5q55 0 94-19.5t60.5-55 21.5-84.5q0-66-43-139.5t-121-149.5-184-151-233.5-146-269.5-133q-17-7-30.5-1.5t-20.5 23.5q-8 19-4 31.5t21 19.5q130 57 248.5 122t218 133.5 172.5 136.5 113.5 131.5 40.5 118.5q0 26-10.5 43t-31 26-48.5 9q-52 0-103.5-24.5t-100.5-67-92.5-98.5-80-119.5-63-130-41-129.5-14.5-119q0-47 17-79t50.5-48.5 81.5-16.5q53 0 114 27.5t123 77 119.5 118 103.5 149.5q5 14 16.5 21t33.5 7q47 0 38-29l-235-724q-28-87-68-146t-90.5-88.5-109.5-29.5z"/></svg>