<svg width="40.784" height="19.2" viewBox="0 0 40.784 19.2" xmlns="http://www.w3.org/2000/svg"><path transform="translate(0 15.2) scale(.016 -.016)" d="m163 0h-103v714h257q72 0 125-27.5t81.5-77 28.5-118.5q0-67-27.5-117.5t-77.5-78-119-27.5h-165zm0 355h165q55 0 88 37.5t33 98.5q0 62-36 98.5t-96 36.5h-154z"/><path transform="translate(9.472 15.2) scale(.016 -.016)" d="M57 736H155V0H57Z"/><path transform="translate(12.848 15.2) scale(.016 -.016)" d="M155 520V0H57V520ZM57 680H155V579H57Z"/><path transform="translate(16.224 15.2) scale(.016 -.016)" d="m278-13q-74 0-126.5 32.5t-80.5 94-28 147.5q0 85 27.5 145.5t79 93 123.5 32.5q36 0 67-9.5t55.5-28 38.5-44.5h2l-5 70h98v-520h-108l10 65h-2q-21-37-61-57.5t-90-20.5zm-133 274q0-60 17-103t49.5-66 78.5-23q44 0 76 23t48.5 66 16.5 103-17 103-49 65.5-77 22.5-77.5-22.5-49-65.5-16.5-103z"/><path transform="translate(25.6 15.2) scale(.016 -.016)" d="m155 0h-98v520h101l-13-76h2q20 42 61.5 65t95.5 23q61 0 103-23.5t64.5-68 22.5-107.5v-333h-98v315q0 64-30 99.5t-84 35.5q-60 0-93.5-45.5t-33.5-125.5z"/><path transform="translate(34.4 15.2) scale(.016 -.016)" d="m123 150v292h-86v81l86-5v111h98v-109h124v-78h-124v-286q0-46 18.5-67.5t59.5-21.5q21 0 36.5 3t27.5 9v-81q-13-5-29.5-8t-36.5-3q-59 0-97.5 17.5t-57.5 53.5-19 92z"/></svg>