<svg width="127.47" height="20.16" viewBox="0 0 127.47 20.16" xmlns="http://www.w3.org/2000/svg"><path transform="translate(0 16.608) scale(.016 -.016)" d="m88 0v745h256q73 0 128-28.5t85.5-80 30.5-119.5-30.5-119-85-79.5-128.5-28.5h-176v-290zm80 365h180q48 0 84 18.5t56 53 20 81.5-20 81-56 52.5-84 18.5h-180z"/><path transform="translate(10.288 16.608) scale(.016 -.016)" d="M77 0V757H152V0Z"/><path transform="translate(13.952 16.608) scale(.016 -.016)" d="m267-12q-56 0-102 26.5t-72.5 74-26.5 109.5v338h75v-329q0-43 17.5-75.5t49-50.5 72.5-18 73 18.5 50 53 18 82.5v319h75v-536h-75v104l17-4q-19-52-65-82t-106-30z"/><path transform="translate(23.12 16.608) scale(.016 -.016)" d="m263-12q-77 0-135 39t-84 106l63 30q23-49 64.5-78t91.5-29q48 0 81 23.5t33 61.5q0 28-16 44.5t-37 25.5-37 13l-77 22q-74 21-107 59t-33 88q0 47 24 82t65 54 91 19q68 0 123.5-35.5t78.5-98.5l-64-30q-20 45-57.5 70.5t-83.5 25.5q-45 0-72-23t-27-58q0-27 14-43t32.5-24 32.5-12l89-26q65-19 101.5-59t36.5-94q0-44-24.5-79t-67.5-54.5-99-19.5z"/><path transform="translate(33.984 16.608) scale(.016 -.016)" d="m55 0v80h40q56 0 88 33.5t32 91.5v540h80v-540q0-63-24.5-109t-69.5-71-106-25z"/><path transform="translate(40.112 16.608) scale(.016 -.016)" d="m232-12q-51 0-91 19.5t-63 53.5-23 78q0 42 18 76.5t56 58.5 97 34l210 35v-68l-192-32q-58-10-83.5-37t-25.5-64q0-36 28.5-61t73.5-25q55 0 96 23.5t64 63.5 23 89v136q0 48-35 78t-91 30q-49 0-86-24.5t-55-63.5l-68 37q15 34 47.5 62t74.5 44.5 87 16.5q59 0 104.5-23t71-63.5 25.5-93.5v-368h-75v107l11-11q-14-30-43.5-54.5t-69-39-86.5-14.5z"/><path transform="translate(49.264 16.608) scale(.016 -.016)" d="m77 0v757h75v-530l-32 5 301 304h97l-210-215 229-321h-90l-215 297 48-4-153-158 25 62v-197z"/><path transform="translate(58.032 16.608) scale(.016 -.016)" d="m232-12q-51 0-91 19.5t-63 53.5-23 78q0 42 18 76.5t56 58.5 97 34l210 35v-68l-192-32q-58-10-83.5-37t-25.5-64q0-36 28.5-61t73.5-25q55 0 96 23.5t64 63.5 23 89v136q0 48-35 78t-91 30q-49 0-86-24.5t-55-63.5l-68 37q15 34 47.5 62t74.5 44.5 87 16.5q59 0 104.5-23t71-63.5 25.5-93.5v-368h-75v107l11-11q-14-30-43.5-54.5t-69-39-86.5-14.5z"/><path transform="translate(67.184 16.608) scale(.016 -.016)" d="m77 0v536h75v-88l-10 13q19 38 57.5 60t93.5 22h34v-75h-47q-58 0-93-36t-35-102v-330z"/><path transform="translate(72.592 16.608) scale(.016 -.016)" d="m282-6q-72 0-111 42t-39 120v305h-99v75h25q34 0 54 22.5t20 56.5v45h75v-124h118v-75h-118v-305q0-27 8-47.5t27.5-32.5 52.5-12q8 0 19 1t19 2v-67q-12-3-27-4.5t-24-1.5z"/><path transform="translate(78.8 16.608) scale(.016 -.016)" d="m232-12q-51 0-91 19.5t-63 53.5-23 78q0 42 18 76.5t56 58.5 97 34l210 35v-68l-192-32q-58-10-83.5-37t-25.5-64q0-36 28.5-61t73.5-25q55 0 96 23.5t64 63.5 23 89v136q0 48-35 78t-91 30q-49 0-86-24.5t-55-63.5l-68 37q15 34 47.5 62t74.5 44.5 87 16.5q59 0 104.5-23t71-63.5 25.5-93.5v-368h-75v107l11-11q-14-30-43.5-54.5t-69-39-86.5-14.5z"/><path transform="translate(90.672 16.608) scale(.016 -.016)" d="m339-12q-71 0-129 27t-98 72.5-57 100.5l72 27q26-76 81-115.5t131-39.5q48 0 84.5 15.5t56.5 43.5 20 65q0 55-30 85t-86 46l-134 40q-79 23-121.5 77t-42.5 123q0 59 29 104.5t79.5 71.5 114.5 26q67 0 120.5-24.5t90.5-64.5 53-89l-70-28q-24 66-74.5 100t-118.5 34q-43 0-75.5-15t-50.5-43-18-66q0-46 29-82.5t89-54.5l118-35q88-26 133-75t45-123q0-60-30.5-105.5t-85-71.5-125.5-26z"/><path transform="translate(101.01 16.608) scale(.016 -.016)" d="m232-12q-51 0-91 19.5t-63 53.5-23 78q0 42 18 76.5t56 58.5 97 34l210 35v-68l-192-32q-58-10-83.5-37t-25.5-64q0-36 28.5-61t73.5-25q55 0 96 23.5t64 63.5 23 89v136q0 48-35 78t-91 30q-49 0-86-24.5t-55-63.5l-68 37q15 34 47.5 62t74.5 44.5 87 16.5q59 0 104.5-23t71-63.5 25.5-93.5v-368h-75v107l11-11q-14-30-43.5-54.5t-69-39-86.5-14.5z"/><path transform="translate(110.16 16.608) scale(.016 -.016)" d="m77 0v536h75v-104l-17 4q20 52 65.5 82t105.5 30q57 0 102.5-26t72-71.5 26.5-102.5v-348h-75v319q0 49-17.5 83t-49 52.5-72.5 18.5-73-18.5-50-53-18-82.5v-319z"/><path transform="translate(119.33 16.608) scale(.016 -.016)" d="m263-12q-77 0-135 39t-84 106l63 30q23-49 64.5-78t91.5-29q48 0 81 23.5t33 61.5q0 28-16 44.5t-37 25.5-37 13l-77 22q-74 21-107 59t-33 88q0 47 24 82t65 54 91 19q68 0 123.5-35.5t78.5-98.5l-64-30q-20 45-57.5 70.5t-83.5 25.5q-45 0-72-23t-27-58q0-27 14-43t32.5-24 32.5-12l89-26q65-19 101.5-59t36.5-94q0-44-24.5-79t-67.5-54.5-99-19.5z"/></svg>