<svg width="60.784" height="17.728" viewBox="0 0 60.784 17.728" xmlns="http://www.w3.org/2000/svg"><path transform="translate(0 13.744) scale(.016 -.016)" d="m302 589q107 0 163.5-47t56.5-137q0-91-56.5-139t-163.5-48h-92v-149h120v-69h-293v69h93v451h-93v69zm-1-301q136 0 136 116t-136 116h-90v-232z"/><path transform="translate(8.672 13.744) scale(.016 -.016)" d="m259 444q67 0 116.5-27.5t77.5-79 28-123.5q0-107-61-168t-161-61q-64 0-113.5 27.5t-77 79-27.5 122.5q0 72 27.5 123.5t77 79 113.5 27.5zm1-64q-69 0-104-43.5t-35-122.5 35-122 104-43q71 0 106 43t35 122-35 122.5-106 43.5z"/><path transform="translate(17.008 13.744) scale(.016 -.016)" d="m522-17-133 46q-61-44-130-44-103 0-160.5 63.5t-57.5 175.5q0 104 57.5 162t160.5 58q27 0 56.5-5.5t54.5-15.5v131l-95 33 21 62 152-52v-518l94-32zm-262 66q25 0 55 10.5t55 26.5v269q-22 11-52.5 18t-57.5 7q-62 0-100.5-42.5t-38.5-112.5q0-79 38.5-127.5t100.5-48.5z"/><path transform="translate(26.016 13.744) scale(.016 -.016)" d="M33 651 185 599V249H276L345 367H293V429H503V367H419L336 224L433 62H519V0H386L273 187H185V62H230V0H23V62H107V556L12 589Z"/><path transform="translate(34.832 13.744) scale(.016 -.016)" d="m259 444q67 0 116.5-27.5t77.5-79 28-123.5q0-107-61-168t-161-61q-64 0-113.5 27.5t-77 79-27.5 122.5q0 72 27.5 123.5t77 79 113.5 27.5zm1-64q-69 0-104-43.5t-35-122.5 35-122 104-43q71 0 106 43t35 122-35 122.5-106 43.5z"/><path transform="translate(43.168 13.744) scale(.016 -.016)" d="M2 429H212V367H166L256 154L292 69L328 154L418 367H374V429H574V367H496L332 0H244L85 367H2Z"/><path transform="translate(52.384 13.744) scale(.016 -.016)" d="m349 29q-65-44-141-44-84 0-127.5 34t-44.5 99q-2 131 166 131l129-1q0 67-25 99.5t-76 32.5q-24 0-47-3t-43-9l-10-55-64 12 16 91q38 14 74.5 21t70.5 7q90 0 136-48.5t46-143.5v-174l95-31-20-64zm-144 157q-43 0-66-17t-23-50q0-70 96-70 69 0 119 38v98z"/></svg>