<svg width="62.118" height="16.38" viewBox="0 0 62.118 16.38" xmlns="http://www.w3.org/2000/svg"><path transform="translate(0 13.468) scale(.014 -.014)" d="m74 750h33q104 0 177-71.5t73-168.5-75.5-167-166.5-70h-8v-273h-33zm33-449h8q84 0 146.5 62t62.5 147-63.5 148-145.5 63h-8z"/><path transform="translate(5.46 13.468) scale(.014 -.014)" d="m278-11h-9q-96 0-165 71.5t-69 166.5 70 164.5 168.5 69.5 168-69.5 69.5-165-68-166.5-165-71zm201 235.5q0 84.5-60.5 146.5t-144.5 62-145.5-62.5-61.5-146.5 61.5-145.5 146-61.5 144.5 61.5 60 146z"/><path transform="translate(13.104 13.468) scale(.014 -.014)" d="m105 449v-449h-32v449zm-16 110q-29 0-29 27t29 27 29-27-29-27z"/><path transform="translate(15.596 13.468) scale(.014 -.014)" d="m92 300v-300h-32v450h32v-67q18 34 56 56t85 22 90-32v-40q-44 44-97 44t-93.5-40-40.5-93z"/><path transform="translate(20.468 13.468) scale(.014 -.014)" d="m285-12h-9q-95 0-165.5 71.5t-70.5 166.5 70 164.5 173 69.5 177-82l-314-310q65-52 125-52t107.5 27.5 78.5 73.5v-51q-71-78-172-78zm-160 101 291 289q-62 54-141.5 54t-141-61.5-61.5-141.5 53-140z"/><path transform="translate(27.398 13.468) scale(.014 -.014)" d="m221 22v-28q-71 0-121 47.5t-50 121.5v468h32v-182h138v-28h-138v-258q0-61 40.5-101t98.5-40z"/><path transform="translate(35.672 13.468) scale(.014 -.014)" d="m442-13h-15q-155 0-268.5 117t-113.5 273.5 115 271 276 114.5 275-114 114-271.5-113-274-270-116.5zm350 388.5q0 147.5-104.5 253t-252 105.5-252.5-105.5-105-253 105-253.5 252-106 252 106 105 253.5z"/><path transform="translate(47.852 13.468) scale(.014 -.014)" d="m92 0h-32v450h32v-91q51 102 174 102 84 0 141-58t57-141v-262h-32v262q0 69-48.5 120t-117.5 51-121.5-51-52.5-120z"/><path transform="translate(55.188 13.468) scale(.014 -.014)" d="m285-12h-9q-95 0-165.5 71.5t-70.5 166.5 70 164.5 173 69.5 177-82l-314-310q65-52 125-52t107.5 27.5 78.5 73.5v-51q-71-78-172-78zm-160 101 291 289q-62 54-141.5 54t-141-61.5-61.5-141.5 53-140z"/></svg>