<svg width="59.184" height="25.76" viewBox="0 0 59.184 25.76" xmlns="http://www.w3.org/2000/svg"><path transform="translate(0 18.4) scale(.016 -.016)" d="m104 523q0 42-7 60.5t-26 24-54 6.5q-5 5-5 16 0 12 5 17 30-1 65.5-1.5t63.5-0.5q30 0 69.5 3.5t67.5 3.5q69 0 113-17t68-43.5 33.5-55 9.5-50.5q0-32-11.5-67.5t-38.5-66.5-73-50.5-114-19.5q-50 0-81 10v-170q0-41 9.5-59.5t31.5-24 61-7.5q5-5 5-17 0-9-5-14h-144q-27 0-61.5-0.5t-68.5-1.5q-5 5-5 16 0 12 5 17 35 2 54 7t26 24 7 60zm85 31v-233q8-2 32.5-3.5t43.5-1.5q73 0 111 35.5t38 116.5q0 64-20 96t-51.5 43-66.5 11q-36 0-55-10t-25.5-24.5-6.5-29.5z"/><path transform="translate(8.432 18.4) scale(.016 -.016)" d="m467 224q0-61-25-112t-72.5-81.5-114.5-30.5q-71 0-117.5 32.5t-69.5 82-23 100.5q0 65 26 118t73.5 84.5 112.5 31.5q57 0 97.5-20t65-53.5 36-73 11.5-78.5zm-225 190q-45 0-69-26t-33-66-9-84q0-29 7-64t23-66.5 42.5-52 65.5-20.5q24 0 50 13t44 47 18 97q0 108-37 165t-102 57z"/><path transform="translate(16.224 18.4) scale(.016 -.016)" d="m192 358q44 51 85.5 66t78.5 15q26 0 48-8.5t35-25.5q17-23 22-58t5-76v-149q0-41 5-59.5t19.5-23.5 42.5-8q4-4 4-17 0-12-4-16-22 1-49 1.5t-57 0.5-54.5-0.5-47.5-1.5q-4 4-4 16 0 13 4 17 26 3 39.5 8t18 23.5 4.5 59.5v152q0 23-2 42.5t-10 34.5q-9 17-23.5 25.5t-29.5 8.5q-29 0-61-14.5t-61-42.5q-6-7-11.5-16.5t-5.5-25.5v-164q0-41 4.5-59.5t18-23.5 38.5-8q4-4 4-17 0-12-4-16-22 1-46 1.5t-54 0.5-58.5-0.5-51.5-1.5q-4 4-4 16 0 13 4 17 30 3 45 8t20 23.5 5 59.5v195q0 29-5 42.5t-19 18.5-41 7q-1 5-2 14.5t0 13.5q52 7 77 14t46 15q6 0 8.5-2.5t3.5-5.5q4-8 5.5-32t2.5-44q0-7 4-6t8 6z"/><path transform="translate(25.28 18.4) scale(.016 -.016)" d="m467 224q0-61-25-112t-72.5-81.5-114.5-30.5q-71 0-117.5 32.5t-69.5 82-23 100.5q0 65 26 118t73.5 84.5 112.5 31.5q57 0 97.5-20t65-53.5 36-73 11.5-78.5zm-225 190q-45 0-69-26t-33-66-9-84q0-29 7-64t23-66.5 42.5-52 65.5-20.5q24 0 50 13t44 47 18 97q0 108-37 165t-102 57z"/><path transform="translate(33.072 18.4) scale(.016 -.016)" d="m163 358q0-9 4-6.5t8 6.5q31 35 70 58t82 23q39 0 66-21.5t34-52.5q2-6 5.5-4t5.5 4q39 41 82.5 57.5t82.5 16.5q44 0 66-21t29.5-57 7.5-81v-158q0-41 4.5-60.5t18.5-25 41-5.5q3-4 3-17 0-11-3-16-21 0-47 1t-56 1-56.5-1-45.5-1q-4 4-4 16 0 13 4 17 26 0 39.5 5.5t18 25 4.5 60.5v176q0 50-15.5 68.5t-44.5 18.5-62.5-12-69.5-52q0-9 0.5-19t0.5-21v-159q0-41 4.5-60.5t17-25 37.5-5.5q3-4 3-17 0-11-3-16-19 0-43.5 1t-54.5 1-56.5-0.5-45.5-1.5q-4 4-4 16 0 13 4 17 27 2 40.5 7.5t17.5 24 4 59.5v174q0 50-18.5 69.5t-47.5 19.5q-49 0-108-57-6-7-11.5-16.5t-5.5-25.5v-164q0-41 5-59.5t18-23.5 38-8q5-5 5-17 0-11-5-16-22 1-46 1.5t-54 0.5-57.5-0.5-50.5-1.5q-5 5-5 16 0 12 5 17 28 2 42.5 7.5t20 24 5.5 59.5v195q0 29-5 42.5t-19 18.5-41 7q-1 5-2 14.5t0 13.5q52 7 77 14t46 15q6 0 8.5-2.5t3.5-5.5q3-8 5-31t3-45z"/><path transform="translate(45.76 18.4) scale(.016 -.016)" d="m118 375q0-16 4-20t4-18q0-10-12.5-22t-35.5-12q-34 0-34 36 0 29 24 54t61.5 41 78.5 16q37 0 72-12.5t57.5-49 22.5-107.5v-147q0-34 4-59.5t26-25.5q9 0 20 6t16 10q9-5 13-11.5t5-15.5q-16-15-41.5-26t-54.5-11q-37 0-49 17.5t-17 40.5h-2l-20-16q-33-25-58.5-33.5t-51.5-8.5q-52 0-89 23.5t-37 84.5q0 51 47 89t119 56l86 21q2 1 4 4t2 8q0 57-13.5 84.5t-32.5 36.5-36 9q-28 0-55-9t-27-33zm164-131-80-21q-55-14-74.5-45t-19.5-65q0-23 17.5-47t54.5-24q21 0 45 14t43 30q6 5 10 10.5t4 15.5z"/><path transform="translate(53.184 18.4) scale(.016 -.016)" d="m177 358q0-4 3.5-7t7.5 5q17 29 46.5 56t64.5 27q32 0 46-17t14-31q0-19-14.5-34.5t-32.5-15.5q-13 0-22 8t-14 15q-6 8-12.5 10.5t-13.5 2.5q-6 0-14.5-9t-17-20.5-14.5-19.5q-9-13-16.5-30t-7.5-37v-139q0-41 6-60.5t23.5-25 52.5-5.5q4-4 4-17 0-12-4-16-26 0-58.5 1t-62.5 1-59-1-55-1q-5 5-5 16 0 12 5 17 31 0 47 5.5t21.5 25 5.5 60.5v195q0 44-12 56t-53 12q-1 5-2 14.5t0 13.5q52 7 77 14t46 15q6 0 8.5-2.5t3.5-5.5q3-8 5.5-27t2.5-49z"/></svg>