<svg width="55.706" height="19.6" viewBox="0 0 55.706 19.6" xmlns="http://www.w3.org/2000/svg"><path transform="translate(0 14.7) scale(.014 -.014)" d="m302 291h-134v-291h-91v697h225q118 0 179.5-57t61.5-147q0-87-59.5-144.5t-181.5-57.5zm148 202q0 129-148 129h-134v-256h134q76 0 112 33t36 94z"/><path transform="translate(8.106 14.7) scale(.014 -.014)" d="m43 275q0 84 36.5 148.5t99.5 99 141 34.5 141-34.5 99.5-98.5 36.5-149-37.5-149.5-101.5-99.5-142-35q-77 0-139.5 35t-98 99.5-35.5 149.5zm461 0q0 66-26 112t-68 68.5-91 22.5q-50 0-91.5-22.5t-66.5-68.5-25-112q0-67 24.5-113t65.5-68.5 90-22.5 92 23 69.5 69 26.5 112z"/><path transform="translate(17.066 14.7) scale(.014 -.014)" d="m373 557q73 0 132.5-35t93.5-98.5 34-147.5q0-83-34-148t-93.5-101-132.5-36q-70 0-123.5 31.5t-81.5 78.5v-361h-91v808h91v-101q27 47 80.5 78.5t124.5 31.5zm-19-79q-50 0-92.5-24.5t-68-71-25.5-107.5q0-62 25.5-108.5t68-71 92.5-24.5q51 0 93.5 24.5t67.5 71 25 109.5q0 62-25 108t-67.5 70-93.5 24z"/><path transform="translate(26.53 14.7) scale(.014 -.014)" d="m373 557q73 0 132.5-35t93.5-98.5 34-147.5q0-83-34-148t-93.5-101-132.5-36q-70 0-123.5 31.5t-81.5 78.5v-361h-91v808h91v-101q27 47 80.5 78.5t124.5 31.5zm-19-79q-50 0-92.5-24.5t-68-71-25.5-107.5q0-62 25.5-108.5t68-71 92.5-24.5q51 0 93.5 24.5t67.5 71 25 109.5q0 62-25 108t-67.5 70-93.5 24z"/><path transform="translate(35.994 14.7) scale(.014 -.014)" d="m62 699q0 26 18 44t44 18q25 0 42.5-18t17.5-44-17.5-44-42.5-18q-26 0-44 18t-18 44zm106-151v-548h-91v548z"/><path transform="translate(39.438 14.7) scale(.014 -.014)" d="m568 323v-323h-90v310q0 82-41 125.5t-112 43.5q-72 0-114.5-45t-42.5-131v-303h-91v548h91v-78q27 42 73.5 65t102.5 23q100 0 162-60.5t62-174.5z"/><path transform="translate(48.398 14.7) scale(.014 -.014)" d="m47 161h94q4-41 38.5-67t90.5-26q52 0 82 23t30 58q0 36-32 53.5t-99 34.5q-61 16-99.5 32.5t-66 49-27.5 85.5q0 42 25 77t71 55.5 105 20.5q91 0 147-46t60-126h-91q-3 43-34.5 69t-84.5 26q-49 0-78-21t-29-55q0-27 17.5-44.5t44-28 73.5-23.5q59-16 96-31.5t63.5-46.5 27.5-81q0-45-25-81t-70.5-56.5-104.5-20.5q-63 0-113 21.5t-79 60-32 88.5z"/></svg>