<svg width="86.828" height="14.994" viewBox="0 0 86.828 14.994" xmlns="http://www.w3.org/2000/svg"><path transform="translate(0 12.04) scale(.014 -.014)" d="m249 331q29-29 69.5-29t65.5 25q40 41 40 122 0 149-132 149-42 0-94-22-7-79-7-299.5t17-274.5q-33-10-61-10t-45 2q14 117 14 327t-17 306q84 28 198 28t164-53.5 50-150-50.5-156.5-153.5-60q-40 0-79 15 0 27 7 50t14 31z"/><path transform="translate(7.434 12.04) scale(.014 -.014)" d="m421 237q0-111-35-176-40-76-153-76t-153 76q-35 65-35 176 0 241 188 241t188-241zm-294 2.5q0-182.5 106-182.5t106 182.5-106 182.5-106-182.5z"/><path transform="translate(13.958 12.04) scale(.014 -.014)" d="m342 360q0-17-2-29-18-9-36.5-9t-44.5 4q2 16 2 21 0 55-40 55-11 0-30-14t-36-35q-2-32-2-97 0-164 18-250-36-10-61-10t-45 2q15 136 15 238t-20 222q40 10 63 10t36-4v-52q23 26 54 43.5t61 17.5 49-33 19-80z"/><path transform="translate(18.816 12.04) scale(.014 -.014)" d="m75 162t2 223q0 15-1 23-42 0-60-1-6 16-6 31.5t2 23.5h61l-5 74q25 8 52.5 8t45.5-4l-9-77q55 1 111 6 6-13 6-28.5t-4-37.5q-37 2-117 4-2-20-2-59v-203q0-26 2.5-42.5t13-30 30.5-13.5q44 0 84 31 21-30 21-81-55-24-95.5-24t-64.5 10.5-37 25-20 40.5q-10 37-10 101z"/><path transform="translate(26.334 12.04) scale(.014 -.014)" d="m97-4q14 138 14 342.5t-17 300.5q26 10 52 10t54-2q-14-111-14-298.5t7-272.5q35-3 106-3t124 9q8-26 8-50.5t-4-42.5q-19 5-80 9.5t-122 4.5-128-7z"/><path transform="translate(32.536 12.04) scale(.014 -.014)" d="m78-2q15 130 15 308.5t-3 236.5-15 129q26 10 52 10t54-2q-15-123-15-368t18-306q-33-10-61-10t-45 2z"/><path transform="translate(36.078 12.04) scale(.014 -.014)" d="m173 256q0-164 18-250-36-10-65-10t-41 2q15 136 15 249.5t-18 210.5q34 10 61 10t45-4q-15-155-15-208zm19 357q0-62-64-62-50 0-50 51 0 63 64 63 50 0 50-52z"/><path transform="translate(39.76 12.04) scale(.014 -.014)" d="m220 478q50 0 87-16v16q0 40 16.5 60t57.5 20q7 0 25-2 2-16 2-32.5t-6-48.5q-7 1-22 1t-22-9.5-8-31.5l-4 1q43-43 43-128 0-78-31-130-35-58-138-58-43 0-70 10-21-37-31-81 17-3 36-3t76 7 82 7q52 0 84-26t32-80-35-94q-61-70-190-70-87 0-133 22t-46 82q0 16 2 27 21 8 43.5 8t48.5-4q-2-8-2-26.5t23-36 78-17.5 94.5 22 39.5 66q0 49-53 49-26 0-82-6.5t-88.5-6.5-54 13.5-21.5 41.5q0 53 51 130-53 43-53 154 0 170 169 170zm-88-171q0-118 88-118t88 118-88 118-88-118z"/><path transform="translate(46.284 12.04) scale(.014 -.014)" d="m209 219q-36 0-58.5-19.5t-22.5-60.5q0-82 71-82 28 0 57 14t45 33q5 63 5 80-41 35-97 35zm179 126-4-144q0-83 17-198-30-9-52-9t-42 2l-3 48q-76-59-134.5-59t-89 37.5-30.5 107 45.5 105.5 107.5 36 107-24q1 20 1 44t-1.5 42-9.5 42q-14 47-73 47-74 0-74-81l1-17q-22-2-41-2t-45 8q-2 16-2 23 0 63 46 94t119.5 31 115-33.5 41.5-99.5z"/><path transform="translate(52.906 12.04) scale(.014 -.014)" d="m75 162t2 223q0 15-1 23-42 0-60-1-6 16-6 31.5t2 23.5h61l-5 74q25 8 52.5 8t45.5-4l-9-77q55 1 111 6 6-13 6-28.5t-4-37.5q-37 2-117 4-2-20-2-59v-203q0-26 2.5-42.5t13-30 30.5-13.5q44 0 84 31 21-30 21-81-55-24-95.5-24t-64.5 10.5-37 25-20 40.5q-10 37-10 101z"/><path transform="translate(60.424 12.04) scale(.014 -.014)" d="m445 478q0-12-3-25-26-9-52-9t-38 2q1 8 1 21 0 58-30.5 93.5t-76.5 35.5-72.5-24.5-26.5-69 31.5-77 77-56.5 91-50.5 77-71 31.5-110-53.5-109-131.5-43.5q-141 0-222 76 4 24 16.5 44t23.5 27l10 8q30-42 73.5-66.5t94.5-24.5 77.5 28 26.5 68-32 72-77.5 55-90.5 48.5-77 68.5-32 108 46.5 111.5 145.5 46.5 145.5-49 46.5-128z"/><path transform="translate(67.102 12.04) scale(.014 -.014)" d="m209 219q-36 0-58.5-19.5t-22.5-60.5q0-82 71-82 28 0 57 14t45 33q5 63 5 80-41 35-97 35zm179 126-4-144q0-83 17-198-30-9-52-9t-42 2l-3 48q-76-59-134.5-59t-89 37.5-30.5 107 45.5 105.5 107.5 36 107-24q1 20 1 44t-1.5 42-9.5 42q-14 47-73 47-74 0-74-81l1-17q-22-2-41-2t-45 8q-2 16-2 23 0 63 46 94t119.5 31 115-33.5 41.5-99.5z"/><path transform="translate(73.724 12.04) scale(.014 -.014)" d="m443 334-1-81q0-129 20-244-33-13-64.5-13t-43.5 2q12 133 12 234.5t-14.5 141.5-63.5 40-113-64q-2-31-2-94 0-164 18-250-36-10-65-10t-41 2q15 136 15 238t-20 222q40 10 63 10t36-4v-51q69 65 138 65t97.5-35.5 28.5-108.5z"/><path transform="translate(81.186 12.04) scale(.014 -.014)" d="m361 126q0-71-46-106t-115-35q-96 0-168 55 4 22 15.5 43.5t20.5 32.5l10 10q52-74 124-74 35 0 57.5 15t22.5 41.5-24.5 47.5-59.5 35.5-70 31-59.5 47.5-24.5 74q0 62 40 98t120.5 36 116-35 35.5-110q-22-8-41-8t-47 6q2 14 2 22 0 31-18 51.5t-51.5 20.5-55.5-15.5-22-47 24.5-54.5 59.5-37.5 70-30 59.5-44 24.5-70.5z"/></svg>