<svg width="96.016" height="17.136" viewBox="0 0 96.016 17.136" xmlns="http://www.w3.org/2000/svg"><path transform="translate(0 13.76) scale(.016 -.016)" d="m249 331q29-29 69.5-29t65.5 25q40 41 40 122 0 149-132 149-42 0-94-22-7-79-7-246t9-272l57-4q2-16 2-29t-3-26q-36 1-93.5 1t-88.5-1q-3 15-3 26.5t2 29.5l35 3q8 107 8 273.5t-10 247.5l-38 3q-3 14-3 31t1 25q42 2 115 9 51 8 112 8 118 0 168-53.5t50-150-50.5-156.5-153.5-60q-40 0-79 15 0 27 7 50t14 31z"/><path transform="translate(8.496 13.76) scale(.016 -.016)" d="m421 237q0-111-35-176-40-76-153-76t-153 76q-35 65-35 176 0 241 188 241t188-241zm-294 2.5q0-182.5 106-182.5t106 182.5-106 182.5-106-182.5z"/><path transform="translate(15.952 13.76) scale(.016 -.016)" d="m71 58q9 100 9 183.5t-8 165.5l-37 3q-3 16-3 33t1 23q51 1 124 9l5-5q-1-6-6-59 23 29 53.5 48t60 19 51.5-21 22-55q0-56-47-56-27 0-43 17.5t-16 46.5q-2 1-7 1-37 0-76-56-1-28-1-125.5t9-171.5l37-3q2-22 2-30.5t-3-25.5q-28 1-82 1t-79-1q-3 15-3 28.5t2 27.5z"/><path transform="translate(21.504 13.76) scale(.016 -.016)" d="m75 162t2 223q0 15-1 23-42 0-60-1-6 16-6 31.5t2 23.5h61l-5 74q25 8 52.5 8t45.5-4l-9-77q55 1 111 6 6-13 6-28.5t-4-37.5q-37 2-117 4-2-20-2-59v-203q0-26 2.5-42.5t13-30 30.5-13.5q44 0 84 31 21-30 21-81-55-24-95.5-24t-64.5 10.5-37 25-20 40.5q-10 37-10 101z"/><path transform="translate(30.096 13.76) scale(.016 -.016)" d="m102 58q9 138 9 291t-9 235l-34 3q-2 16-2 27.5t3 28.5q35-1 81-1t80 1q3-15 3-26.5t-2-29.5l-38-3q-7-94-7-258.5t7-249.5q31-3 90.5-3t90.5 5l3 68q17 3 30.5 3t25.5-1q3-76 9-148l-5-5q-47 5-191 5t-178-1q-3 15-3 26.5t2 29.5z"/><path transform="translate(37.184 13.76) scale(.016 -.016)" d="m93 232v137q0 180-5 245l-40 3q-3 13-3 30.5t1 25.5q91 5 130 9l4-5q-14-119-14-256v-165q0-123 9-198l37-3q2-16 2-27.5t-3-28.5q-35 1-81 1t-80-1q-3 15-3 26.5t2 29.5l35 3q9 94 9 174z"/><path transform="translate(41.216 13.76) scale(.016 -.016)" d="m91 58q9 98 9 179.5t-8 169.5l-37 3q-3 17-3 32.5t1 23.5q58 2 124 9l5-5q-9-59-9-198t9-214l37-3q2-16 2-27.5t-3-28.5q-35 1-81 1t-80-1q-3 15-3 31t2 25zm101 555q0-62-64-62-50 0-50 51 0 63 64 63 50 0 50-52z"/><path transform="translate(45.424 13.76) scale(.016 -.016)" d="m220 478q12 0 18-1 63 96 137 96 65 0 65-63 0-44-43.5-44t-50.5 45q-29 0-54-43 97-32 97-160 0-78-31-130-35-58-138-58-43 0-70 10-21-37-31-81 17-3 36-3t76 7 82 7q52 0 84-26t32-80-35-94q-61-70-190-70-87 0-133 22t-46 82q0 44 47 91-19 14-19 39 0 53 51 130-53 43-53 154 0 170 169 170zm-88-171q0-118 88-118t88 118-88 118-88-118zm-26-398q0-64 117-64 50 0 89.5 22t39.5 66q0 49-53 49-26 0-82-6.5t-90-6.5h-8q-13-28-13-60z"/><path transform="translate(52.88 13.76) scale(.016 -.016)" d="m388 345-4-144q0-68 8-133l37-3q2-16 2-29.5t-3-28.5q-29-1-113-10-7 19-11 47-78-59-134.5-59t-88 36.5-31.5 104 42.5 106.5 107 39 110.5-24q1 11 1 36 0 74-20.5 106.5t-62.5 32.5-61-16q8-16 8-40t-15.5-41.5-43.5-17.5q-47 0-47 55.5t42 85.5 118 30 117.5-35.5 41.5-97.5zm-82-161q-41 35-88 35-90 0-90-80 0-82 71-82 26 0 55.5 13.5t46.5 33.5q5 60 5 80z"/><path transform="translate(60.448 13.76) scale(.016 -.016)" d="m75 162t2 223q0 15-1 23-42 0-60-1-6 16-6 31.5t2 23.5h61l-5 74q25 8 52.5 8t45.5-4l-9-77q55 1 111 6 6-13 6-28.5t-4-37.5q-37 2-117 4-2-20-2-59v-203q0-26 2.5-42.5t13-30 30.5-13.5q44 0 84 31 21-30 21-81-55-24-95.5-24t-64.5 10.5-37 25-20 40.5q-10 37-10 101z"/><path transform="translate(69.04 13.76) scale(.016 -.016)" d="m140 85q44-36 101.5-36t86.5 26.5 29 72.5-32 79-77.5 55-90.5 46.5-77 65.5-32 97q0 77 51 120.5t131 43.5 138.5-38 58.5-102.5-52-64.5q-31 0-48 19t-17 49 12 46q-35 32-86 32t-76.5-26-25.5-65 23-66.5 57-45 74-40 74-44.5 57-59.5 23-85.5q0-79-54.5-129t-139.5-50-150.5 39.5-65.5 110.5q0 60 52 60 31 0 48-19t17-46.5-9-44.5z"/><path transform="translate(76.72 13.76) scale(.016 -.016)" d="m93 232v137q0 180-5 245l-40 3q-3 13-3 30.5t1 25.5q91 5 130 9l4-5q-14-119-14-256v-165q0-123 9-198l37-3q2-16 2-27.5t-3-28.5q-35 1-81 1t-80-1q-3 15-3 26.5t2 29.5l35 3q9 94 9 174z"/><path transform="translate(80.752 13.76) scale(.016 -.016)" d="m388 345-4-144q0-68 8-133l37-3q2-16 2-29.5t-3-28.5q-29-1-113-10-7 19-11 47-78-59-134.5-59t-88 36.5-31.5 104 42.5 106.5 107 39 110.5-24q1 11 1 36 0 74-20.5 106.5t-62.5 32.5-61-16q8-16 8-40t-15.5-41.5-43.5-17.5q-47 0-47 55.5t42 85.5 118 30 117.5-35.5 41.5-97.5zm-82-161q-41 35-88 35-90 0-90-80 0-82 71-82 26 0 55.5 13.5t46.5 33.5q5 60 5 80z"/><path transform="translate(88.32 13.76) scale(.016 -.016)" d="m346 271q0 143-85 143-61 0-116-65v-269q46-23 97-23 104 0 104 214zm-201 139q70 68 141 68t108-58 37-162q0-141-48.5-207t-152.5-66q-65 0-173 26 16 98 16 318t-5 285l-40 3q-3 12-3 31t1 25q89 4 130 9l4-5q-14-120-15-267z"/></svg>