<svg width="33.44" height="19.2" viewBox="0 0 33.44 19.2" xmlns="http://www.w3.org/2000/svg"><path transform="translate(0 13.6) scale(.016 -.016)" d="m166-24q-8 4-22.5 6t-24.5 6q-20 10-28.5 31t-8.5 49q0 39 12.5 88t32 99 40 94.5 36.5 75 22 40.5q19 29 44.5 40.5t56.5 11.5q67 0 57-12-21-24-42-60.5t-39.5-74.5-32.5-68q-7-13-13-27t-12-28q3-3 18.5-4.5t23.5-1.5q23 0 51.5 25t54 64.5 42 83.5 16.5 82-21 62.5-71 24.5q-33 0-75.5-11t-83.5-33-71-55.5-39-79.5q-4 1-20 5.5t-30.5 15-14.5 27.5q0 51 45 87t123 55.5 176 19.5q101 0 149-38.5t48-97.5q0-48-28.5-100t-77-94-109.5-61q-13-4-37.5-8t-45.5-4q-12 0-21.5 2t-13.5 6q-27-65-45-122t-18-88q0-16 6-24 2-2 2-6 0-7-11-3z"/><path transform="translate(7.344 13.6) scale(.016 -.016)" d="m213-8q-50 0-70.5 28.5t-20.5 65.5q0 33 14 73.5t34.5 82 42.5 79.5 38 68q-10-2-20.5-3.5t-20.5-1.5q-23 0-40 7-1-4-3-8t-3-6q-22-58-47-113t-45-90q-13-23-23-23-8 0-8 12 0 8 4 15 20 38 46.5 96t48.5 118q1 2 2.5 7.5t2.5 9.5q-13 16-13 42 0 17 9 33.5t28 16.5q11 0 20.5-8t9.5-25q0-20-14-44 2-7 13-10.5t24-3.5q14 0 27.5 4t18.5 12q9 12 30 12 18 0 40-10 12-6 20-17.5t8-28.5q0-30-26-76-28-52-57.5-112t-43.5-108q-4-13-4-25 0-21 13-21 14 0 31.5 18t34.5 43q22 32 40.5 68t25.5 50q3 6 9 6t11.5-6.5 1.5-14.5q-13-27-36-69.5t-52-79.5q-21-27-46-45t-55-18z"/><path transform="translate(12.368 13.6) scale(.016 -.016)" d="m113-6q-49 0-68.5 22.5t-19.5 56.5q0 36 13.5 77.5t31 77 27.5 54.5q41 76 94.5 111t118.5 35q23 0 54-2t63-2q16 0 31 1t29 1h4q17 0 17-6 0-4-12-9-13-5-31-33.5t-37-68.5-36-81q-9-23-24-61.5t-22-78.5q-1-7-1.5-12.5t-0.5-10.5q0-25 13-25 16 0 33 17t33 41q14 21 28 47t25 48.5 16 31.5q3 6 8 6 6 0 11-8.5t1-16.5q-19-37-41-79t-48-76q-44-57-102-57-44 0-64.5 27t-20.5 65q0 17 3 33-11-18-27-46.5t-36.5-51.5-45.5-26q-4 0-8-0.5t-9-0.5zm37 51q10 0 26.5 18t34 45.5 30.5 55.5q3 8 14.5 34.5t26 62 29.5 71.5 26 63q1 3 1 7 0 6-6 6t-14-4.5-15-9.5q-13-10-33.5-41.5t-43-73.5-42.5-85.5-32.5-79-12.5-53.5q0-16 11-16z"/><path transform="translate(19.136 13.6) scale(.016 -.016)" d="m128-8q-36 0-65 20.5t-29 67.5q0 31 10.5 72t26.5 84.5 33.5 81 31.5 61.5q22 35 49.5 43t67.5 8q29 0 48-6.5t6-14.5q-19-13-49-58t-58-101q-8-16-20-42.5t-23.5-56-19.5-56-8-43.5q0-25 23-25 24 0 54 23 14 11 26 25t22 28q20 27 36.5 58.5t30.5 59.5q3 6 8 6 7 0 12-7t1-15q-15-30-37-70.5t-51-74.5q-25-29-56.5-48.5t-69.5-19.5zm143 488q-17 0-27 11.5t-10 30.5q0 23 12 42t30 31 37 12q17 0 27-11.5t10-28.5q0-22-12-42t-30-32.5-37-12.5z"/><path transform="translate(23.2 13.6) scale(.016 -.016)" d="m154-7q-61 0-101 36t-40 100q0 22 5 46t16 41 29 17q11 0 16-7 12 23 26 46t28 47q16 26 37.5 57.5t49.5 56 61 27.5q4 1 8.5 1t8.5 0q11 0 23-1t18-2q2-1 3-6t-5-5q-4 0-16-5.5t-14-25.5q-2-70-8.5-140t-19.5-117q-6-24-19-52t-31-50-38-30q20 0 42.5 12.5t42 30.5 29.5 32q22 31 40.5 65.5t27.5 53.5q3 5 7 5 5 0 9-6t4-13q0-2-0.5-4t-1.5-4q-18-36-39.5-72.5t-49.5-67-64-48.5-84-18zm-65 63q11 0 22 7t18 22q15 33 27 76t21 85.5 15.5 76 9.5 48.5q-15-18-36.5-51t-41-66-29.5-53q1-23-18-41t-33-37v-11q0-4 0.5-10t1.5-11q5-16 17.5-25.5t25.5-9.5z"/><path transform="translate(28.096 13.6) scale(.016 -.016)" d="m179-15q-73 0-105.5 33t-32.5 87q0 41 17 90 13 40 35 81.5t51 77 64 57 74 21.5q50 0 81.5-15.5t31.5-50.5q0-26-21-65-28-54-82-89t-121-40q-15-41-18-67-1-5-1-9.5t0-9.5q0-33 15-47.5t37-14.5q41 0 72 21t54.5 53 40.5 64q10 18 17 33.5t11 22.5q5 8 11 8t11-6.5 1-14.5q-13-26-36-69t-52-76q-32-38-68.5-56.5t-86.5-18.5zm5 216q45 17 79.5 61t46.5 97q1 5 1.5 9t0.5 8q0 20-12 20-10 0-21-14-16-19-34-51.5t-32-63.5-21-47z"/></svg>