<svg width="36.498" height="18.97" viewBox="0 0 36.498 18.97" xmlns="http://www.w3.org/2000/svg"><path transform="translate(0 13.902) scale(.014 -.014)" d="m40 21 92 15v728l-92 14v22h314q148 0 220-63t72-182-72-182-220-63h-112v-274l92-15v-21h-294zm300 313q185 0 185 201v40q0 200-185 200h-98v-441z"/><path transform="translate(9.576 13.902) scale(.014 -.014)" d="m27 20 70 10v458l-70 10v20h170v-77q63 86 142 86 38 0 67-19.5t29-55.5q0-26-17-43.5t-45-17.5q-32 0-52 25 11 14 11 30 0 17-11.5 27.5t-30.5 10.5q-21 0-43-19.5t-50-60.5v-374l80-10v-20h-250z"/><path transform="translate(15.764 13.902) scale(.014 -.014)" d="m46 123q0 94 79 133.5t183 39.5h67v77q0 52-11.5 80.5t-35.5 40-65 11.5q-47 0-70-18.5t-23-49.5q0-29 28-38 0-25-19-44t-45-19q-28 0-45 15.5t-17 47.5q0 58 58 93t145 35q200 0 200-174v-286q0-22 9.5-33.5t27.5-11.5q17 0 27 11.5t10 31.5h21q0-35-22.5-55t-62.5-20q-46 0-77.5 26.5t-32.5 82.5q-24-51-73.5-80t-109.5-29q-64 0-105 33.5t-41 99.5zm329 47v104h-67q-82 0-122.5-36.5t-40.5-102.5q0-55 26-78t76-23q27 0 55.5 16t48.5 46.5 24 73.5z"/><path transform="translate(23.702 13.902) scale(.014 -.014)" d="m89 128v360l-71 10v20h71v83l100 25v-108h130v-20l-130-10v-358q0-106 76-106 16 0 30.5 5t23 10 10.5 7l13-16q-45-40-108-40-66 0-105.5 33t-39.5 105z"/><path transform="translate(28.56 13.902) scale(.014 -.014)" d="m46 123q0 94 79 133.5t183 39.5h67v77q0 52-11.5 80.5t-35.5 40-65 11.5q-47 0-70-18.5t-23-49.5q0-29 28-38 0-25-19-44t-45-19q-28 0-45 15.5t-17 47.5q0 58 58 93t145 35q200 0 200-174v-286q0-22 9.5-33.5t27.5-11.5q17 0 27 11.5t10 31.5h21q0-35-22.5-55t-62.5-20q-46 0-77.5 26.5t-32.5 82.5q-24-51-73.5-80t-109.5-29q-64 0-105 33.5t-41 99.5zm329 47v104h-67q-82 0-122.5-36.5t-40.5-102.5q0-55 26-78t76-23q27 0 55.5 16t48.5 46.5 24 73.5z"/></svg>