<svg width="101.79" height="28.906" viewBox="0 0 101.79 28.906" xmlns="http://www.w3.org/2000/svg"><path transform="translate(0 19.531) scale(.0078125 -.0078125)" d="m1430 899q-5-97-38-170-34-76-91-134t-131-99q-76-42-157-67-84-27-173-39.5t-174-12.5q-56 0-125 4t-148 18l4-401-211-8v1415q106 35 203.5 53t172.5 27q89 11 165 12 68 0 144-10 78-10 158-36.5t155-70.5q74-44 131-110 56-67 88-158.5t27-212.5zm-703 377q-28 0-57-1t-58-3q-51-4-110-14.5t-115-30.5l4-623q62-12 122.5-16t113.5-4q58 0 122 6 65 5 129 19.5t123 40.5q57 25 104 67 45 41 72 97.5t27 133.5q0 152-129 239-129 84-348 89z"/><path transform="translate(11.555 19.531) scale(.0078125 -.0078125)" d="m1096 637-197-74q-1 85-23.5 138t-59.5 80q-35 26-79 24-29-5-59-23-31-19-64.5-50t-66.5-69q-17-19-33-39t-32-40q-31-40-59-80.5t-50-73.5q1-41 2-93.5t2.5-103 2.5-85.5q2-63 4-113.5t5-81.5l-215-27-20 561q-2 57-4 122.5t-4 124-3 92.5q-4 141-6 212l228 4q1-31 1-61.5t1-62.5q0-32 0-61.5t1-55.5q1-31 1-61.5t0-59.5q29 46 71 101t94 104q53 49 115 85.5t133 45.5q78 4 146-34 28-16 55.5-42.5t51.5-67.5q23-42 39-99.5t22-135.5z"/><path transform="translate(20.273 19.531) scale(.0078125 -.0078125)" d="m625 92q111 0 204 66.5t121 185.5l193-39q-28-91-79-165t-119-127-149.5-82-170.5-29q-132 0-234 40t-172 113q-143 149-143 406 0 125 42.5 233.5t116.5 188.5 174 126 216 46q104 0 196-40.5t163-111.5q71-72 117-169t58-210l-866-129q7-71 35.5-127.5t71.5-95.5q89-80 225-80zm-326 488 602 73-6 19q-38 99-104.5 155t-165.5 56q-42 0-92-14.5t-97-49.5-84.5-93.5-52.5-145.5z"/><path transform="translate(29.758 19.531) scale(.0078125 -.0078125)" d="m1120-96-196 33 14 141q-122-78-239.5-113t-219.5-35q-72 0-139.5 18.5t-118.5 57.5q-52 38-83.5 97.5t-31.5 140.5 24 145 66 113 99 84 123 57q65 22 137 32.5t143 10.5q66 0 123-5t101-13q-18 71-48.5 133t-80 100.5-127.5 38.5q-39 0-89-11.5t-110-41.5-131-82.5-152-134.5l-121 147q96 90 184 147t166 90q77 32 143.5 44t119.5 12q93 0 164-31 72-31 127-85.5t92-128.5q36-71 61-158 24-85 34.5-176t10.5-181q0-96-11-206t-34-240zm-168 397q2 50 3 99t-5 102q-49 15-103 24t-108 9q-90 0-174.5-21t-145.5-61-91.5-98-12.5-132q14-60 54.5-84t97.5-24q74 0 166 31.5t177.5 75.5 141.5 79z"/><path transform="translate(39.742 19.531) scale(.0078125 -.0078125)" d="m160-51-17 1542 230 8-6-608q55 60 117 94.5t116 52.5q62 20 123 27 226 0 362-155 66-75 104.5-182.5t43.5-242.5q0-71-1.5-145t-6.5-145q-6-71-15.5-135t-25.5-115l-228 16q29 96 41.5 187t17.5 163q4 84 3 160-5 107-36.5 182t-78.5 123q-46 47-102.5 68.5t-110.5 21.5q-56-4-115-33-50-24-107-74.5t-106-142.5l-6-663z"/><path transform="translate(50.258 19.531) scale(.0078125 -.0078125)" d="m563 147 318 895 206-28-393-1053-282 4-351 1010 203 31z"/><path transform="translate(59.086 19.531) scale(.0078125 -.0078125)" d="m416 1333q0-58-42.5-99.5t-101.5-41.5q-58 0-99.5 41.5t-41.5 99.5q0 59 41.5 101.5t99.5 42.5q59 0 101.5-42.5t42.5-101.5zm-254-360 207 8-10-480q-5-198-6-311-3-138-3-217h-205q1 54 2.5 118.5t2.5 138.5q2 129 6 313z"/><path transform="translate(63.086 19.531) scale(.0078125 -.0078125)" d="m160-51-17 1542 230 8-6-608q55 60 117 94.5t116 52.5q62 20 123 27 226 0 362-155 66-75 104.5-182.5t43.5-242.5q0-71-1.5-145t-6.5-145q-6-71-15.5-135t-25.5-115l-228 16q29 96 41.5 187t17.5 163q4 84 3 160-5 107-36.5 182t-78.5 123q-46 47-102.5 68.5t-110.5 21.5q-56-4-115-33-50-24-107-74.5t-106-142.5l-6-663z"/><path transform="translate(73.602 19.531) scale(.0078125 -.0078125)" d="m625 92q111 0 204 66.5t121 185.5l193-39q-28-91-79-165t-119-127-149.5-82-170.5-29q-132 0-234 40t-172 113q-143 149-143 406 0 125 42.5 233.5t116.5 188.5 174 126 216 46q104 0 196-40.5t163-111.5q71-72 117-169t58-210l-866-129q7-71 35.5-127.5t71.5-95.5q89-80 225-80zm-326 488 602 73-6 19q-38 99-104.5 155t-165.5 56q-42 0-92-14.5t-97-49.5-84.5-93.5-52.5-145.5z"/><path transform="translate(83.086 19.531) scale(.0078125 -.0078125)" d="m1120-96-196 33 14 141q-122-78-239.5-113t-219.5-35q-72 0-139.5 18.5t-118.5 57.5q-52 38-83.5 97.5t-31.5 140.5 24 145 66 113 99 84 123 57q65 22 137 32.5t143 10.5q66 0 123-5t101-13q-18 71-48.5 133t-80 100.5-127.5 38.5q-39 0-89-11.5t-110-41.5-131-82.5-152-134.5l-121 147q96 90 184 147t166 90q77 32 143.5 44t119.5 12q93 0 164-31 72-31 127-85.5t92-128.5q36-71 61-158 24-85 34.5-176t10.5-181q0-96-11-206t-34-240zm-168 397q2 50 3 99t-5 102q-49 15-103 24t-108 9q-90 0-174.5-21t-145.5-61-91.5-98-12.5-132q14-60 54.5-84t97.5-24q74 0 166 31.5t177.5 75.5 141.5 79z"/><path transform="translate(93.07 19.531) scale(.0078125 -.0078125)" d="m1096 637-197-74q-1 85-23.5 138t-59.5 80q-35 26-79 24-29-5-59-23-31-19-64.5-50t-66.5-69q-17-19-33-39t-32-40q-31-40-59-80.5t-50-73.5q1-41 2-93.5t2.5-103 2.5-85.5q2-63 4-113.5t5-81.5l-215-27-20 561q-2 57-4 122.5t-4 124-3 92.5q-4 141-6 212l228 4q1-31 1-61.5t1-62.5q0-32 0-61.5t1-55.5q1-31 1-61.5t0-59.5q29 46 71 101t94 104q53 49 115 85.5t133 45.5q78 4 146-34 28-16 55.5-42.5t51.5-67.5q23-42 39-99.5t22-135.5z"/></svg>