<svg width="30.268" height="21.7" viewBox="0 0 30.268 21.7" xmlns="http://www.w3.org/2000/svg"><path transform="translate(0 15.4) scale(.014 -.014)" d="m33 73h27q22 0 30.5 9t8.5 28v427q0 19-8.5 27.5t-30.5 8.5h-27v74h343q100 0 156.5-51.5t56.5-147.5-57.5-151.5-156.5-55.5h-170v-131q0-19 8.5-28t30.5-9h26v-73h-237zm328 242q63 0 93.5 32.5t30.5 100.5q0 69-29 97t-95 28h-156v-258z"/><path transform="translate(8.708 15.4) scale(.014 -.014)" d="m33 74h25q20 0 28.5 8.5t8.5 28.5v258q0 19-8 28t-27 9h-21v74h138l14-55q20 31 51.5 43t74.5 12h46v-74h-56q-57 0-81-25.5t-24-78.5v-191q0-20 8-28.5t27-8.5h25v-74h-229z"/><path transform="translate(14.112 15.4) scale(.014 -.014)" d="m86 648h113v-92h-113zm-63-574h29q20 0 28.5 9t8.5 29v257q0 19-8.5 27.5t-28.5 8.5h-29v75h173v-369q0-19 9-28t28-9h29v-74h-239z"/><path transform="translate(18.102 15.4) scale(.014 -.014)" d="m33 232q0 125 55 194t159 69q61 0 97.5-15t60.5-50v115q0 24-8 34t-31 10h-17v73h159v-555q0-22 7-30.5t26-8.5h20v-68h-134l-9 70q-30-45-71-65t-104-20q-99 0-154.5 64t-55.5 183zm370-16v51q0 73-34.5 112t-97.5 39q-71 0-102.5-44t-31.5-141q0-92 30-131t100-39q64 0 100 41.5t36 111.5z"/><path transform="translate(26.278 15.4) scale(.014 -.014)" d="m86 648h113v-92h-113zm-63-574h29q20 0 28.5 9t8.5 29v257q0 19-8.5 27.5t-28.5 8.5h-29v75h173v-369q0-19 9-28t28-9h29v-74h-239z"/></svg>