<svg width="112.42" height="19.2" viewBox="0 0 112.42 19.2" xmlns="http://www.w3.org/2000/svg"><path transform="translate(0 15.36) scale(.016 -.016)" d="m55 579-55 141h288q90 0 149-24.5t88-82.5 29-158q0-135-63-196.5t-192-63.5v152q23 11 34.5 37.5t11.5 72.5q0 51-8.5 77t-29 35.5-57.5 9.5zm0-50h195v-529h-195z"/><path transform="translate(9.104 15.36) scale(.016 -.016)" d="m258 402v157q46 32 116 19v-168q-28 0-57.5-2t-58.5-6zm-38-402h-180v575h153l27-77z"/><path transform="translate(15.328 15.36) scale(.016 -.016)" d="m292-9v147q36 24 36 148 0 127-36 149v147q120-5 171-74.5t51-220.5-51-220.5-171-75.5zm-50 146v-146q-120 6-171 75.5t-51 220.5 51 220 171 75v-146q-19-12-27.5-48t-8.5-102q0-127 36-149z"/><path transform="translate(23.872 15.36) scale(.016 -.016)" d="m10 440v135h75v126h180v-126h109v-135zm75-41h180v-208q0-28 14.5-41t46.5-13q16 0 28 1.5t20 3.5v-133q-24-8-50.5-13.5t-53.5-5.5q-92 0-138.5 39.5t-46.5 141.5z"/><path transform="translate(30.176 15.36) scale(.016 -.016)" d="m284-10q-59 0-107.5 13t-83.5 46-54 91-19 148q0 140 50 214.5t161 80.5v-147q-22-34-22-145 0-65 10-100t38.5-48 81.5-13q23 0 47.5 4t47.5 9v-136q-35-7-73.5-12t-76.5-5zm-25 242v111h33q0 23-1.5 49t-10.5 43v147q95-8 137-68.5t42-170.5q0-28-2-57.5t-7-53.5z"/><path transform="translate(37.76 15.36) scale(.016 -.016)" d="m243 376-91-144-38 25q-47 31-68 67t-21 94q0 83 49 123.5t161 41.5q42 0 77.5-3.5t57-7.5 21.5-4l-15-133t-15 2-38.5 4.5-48.5 2.5q-36 0-52-6t-16-23q0-10 6-16.5t19-14.5zm-49-171 92 143 33-21q48-31 69-66.5t21-91.5q0-89-51-133.5t-167-45.5q-51 0-93.5 5.5t-77.5 14.5l15 136t37-5.5 98-5.5q55 0 55 33 0 17-25 33z"/><path transform="translate(44.624 15.36) scale(.016 -.016)" d="m10 440v135h75v126h180v-126h109v-135zm75-41h180v-208q0-28 14.5-41t46.5-13q16 0 28 1.5t20 3.5v-133q-24-8-50.5-13.5t-53.5-5.5q-92 0-138.5 39.5t-46.5 141.5z"/><path transform="translate(54.928 15.36) scale(.016 -.016)" d="m230 382h-210q5 123 47 199t114.5 111.5 166.5 35.5q35 0 73-6t78-14l-18-164q-33 6-56.5 9.5t-47.5 3.5q-49 0-81-15t-47.5-53-18.5-107zm122-392v229l-55 137h235v-322q-32-21-79.5-31.5t-100.5-12.5zm-50 171v-170q-84 5-146.5 41t-97 109.5-38.5 190.5h210q2-76 18-116t54-55z"/><path transform="translate(63.68 15.36) scale(.016 -.016)" d="m259 133v-130q-33-11-64-11-69 0-114.5 43t-45.5 129v411h180v-382q0-54 44-60zm40-56v498h180v-575h-153z"/><path transform="translate(71.984 15.36) scale(.016 -.016)" d="m284-10q-59 0-107.5 13t-83.5 46-54 91-19 148q0 140 50 214.5t161 80.5v-147q-22-34-22-145 0-65 10-100t38.5-48 81.5-13q23 0 47.5 4t47.5 9v-136q-35-7-73.5-12t-76.5-5zm-25 242v111h33q0 23-1.5 49t-10.5 43v147q95-8 137-68.5t42-170.5q0-28-2-57.5t-7-53.5z"/><path transform="translate(79.568 15.36) scale(.016 -.016)" d="m258 402v157q46 32 116 19v-168q-28 0-57.5-2t-58.5-6zm-38-402h-180v575h153l27-77z"/><path transform="translate(85.792 15.36) scale(.016 -.016)" d="m258 402v157q46 32 116 19v-168q-28 0-57.5-2t-58.5-6zm-38-402h-180v575h153l27-77z"/><path transform="translate(92.016 15.36) scale(.016 -.016)" d="M40 575H220V0H40ZM35 755H225V619H35Z"/><path transform="translate(96.176 15.36) scale(.016 -.016)" d="M220 0H40V731L220 755Z"/><path transform="translate(100.34 15.36) scale(.016 -.016)" d="M220 0H40V731L220 755Z"/><path transform="translate(104.5 15.36) scale(.016 -.016)" d="m280 393q0 29-20 39.5t-51 10.5q-38 0-73-7t-70-20v140q45 10 93.5 18.5t97.5 8.5q55 0 101-13.5t74-48.5 28-100v-421h-156l-24 86zm-50-269v-123q-26-11-56-11-40 0-75 20.5t-57 59.5-22 94q0 84 58.5 128.5t151.5 45.5v-106q-16-7-25.5-19.5t-9.5-31.5q0-23 10-37.5t25-19.5z"/></svg>