<svg width="95.744" height="19.2" viewBox="0 0 95.744 19.2" xmlns="http://www.w3.org/2000/svg"><path transform="translate(0 15.36) scale(.016 -.016)" d="m55 0v583l-55 137h288q90 0 149-24.5t88-82.5 29-158q0-138-66-199t-200-61h-38v-195zm195 338q48 0 71.5 26t23.5 93q0 51-8.5 77t-29 35.5-57.5 9.5z"/><path transform="translate(9.104 15.36) scale(.016 -.016)" d="m40 0v575h153l20-80h2q16 50 56.5 73t102.5 12v-170q-39 0-80.5-5t-73.5-14v-391z"/><path transform="translate(15.328 15.36) scale(.016 -.016)" d="m267-10q-89 0-143.5 30t-79 95.5-24.5 171.5 24.5 171 79 95 143.5 30q90 0 144-30t78.5-95 24.5-171-24.5-171.5-78.5-95.5-144-30zm-1 141q34 0 48 36.5t14 118.5q0 83-14 119.5t-48 36.5q-33 0-46.5-36.5t-13.5-119.5q0-82 13.5-118.5t46.5-36.5z"/><path transform="translate(23.872 15.36) scale(.016 -.016)" d="m265 575h109v-135h-109v-249q0-28 14.5-41t46.5-13q16 0 28 1.5t20 3.5v-133q-24-8-50.5-13.5t-53.5-5.5q-92 0-138.5 39.5t-46.5 141.5v269h-75v135h75v126h180z"/><path transform="translate(30.176 15.36) scale(.016 -.016)" d="m284-10q-59 0-107.5 13t-83.5 46-54 91-19 148q0 146 54.5 220.5t175.5 74.5q110 0 159.5-60.5t49.5-179.5q0-28-2-57.5t-7-53.5h-239q6-61 34-81.5t94-20.5q23 0 47.5 4t47.5 9v-136q-35-7-73.5-12t-76.5-5zm-27 461q-40 0-47-108h82q0 22-1.5 47t-9 43-24.5 18z"/><path transform="translate(37.76 15.36) scale(.016 -.016)" d="m225 168q0 17-25 33l-86 56q-47 31-68 67t-21 94q0 83 49 123.5t161 41.5q42 0 77.5-3.5t57-7.5 21.5-4l-15-133t-15 2-38.5 4.5-48.5 2.5q-36 0-52-6t-16-23q0-10 6-16.5t19-14.5l88-57q48-31 69-66.5t21-91.5q0-89-51-133.5t-167-45.5q-51 0-93.5 5.5t-77.5 14.5l15 136t37-5.5 98-5.5q55 0 55 33z"/><path transform="translate(44.624 15.36) scale(.016 -.016)" d="m265 575h109v-135h-109v-249q0-28 14.5-41t46.5-13q16 0 28 1.5t20 3.5v-133q-24-8-50.5-13.5t-53.5-5.5q-92 0-138.5 39.5t-46.5 141.5v269h-75v135h75v126h180z"/><path transform="translate(54.928 15.36) scale(.016 -.016)" d="m225 163q38 0 57 11t19 36q0 17-9 27t-32 20l-106 49q-59 27-91 72t-32 131q0 110 57.5 164.5t190.5 55.5q55 0 100-5t72-10.5 27-5.5l-20-161t-24.5 3-60.5 5.5-70 2.5q-36 0-54.5-10.5t-18.5-39.5q0-16 14-26.5t39-21.5l85-37q68-30 99-74.5t31-126.5q0-111-58-171t-191-61q-66 0-123 8.5t-101 19.5l20 161t24.5-4 65.5-8 90-4z"/><path transform="translate(63.296 15.36) scale(.016 -.016)" d="m265 575h109v-135h-109v-249q0-28 14.5-41t46.5-13q16 0 28 1.5t20 3.5v-133q-24-8-50.5-13.5t-53.5-5.5q-92 0-138.5 39.5t-46.5 141.5v269h-75v135h75v126h180z"/><path transform="translate(69.6 15.36) scale(.016 -.016)" d="m40 0v575h153l20-80h2q16 50 56.5 73t102.5 12v-170q-39 0-80.5-5t-73.5-14v-391z"/><path transform="translate(75.824 15.36) scale(.016 -.016)" d="M40 575H220V0H40ZM35 755H225V619H35Z"/><path transform="translate(79.984 15.36) scale(.016 -.016)" d="M220 325 316 575H503L390 294L503 0H312L220 258V0H40V731L220 755Z"/><path transform="translate(88.16 15.36) scale(.016 -.016)" d="m284-10q-59 0-107.5 13t-83.5 46-54 91-19 148q0 146 54.5 220.5t175.5 74.5q110 0 159.5-60.5t49.5-179.5q0-28-2-57.5t-7-53.5h-239q6-61 34-81.5t94-20.5q23 0 47.5 4t47.5 9v-136q-35-7-73.5-12t-76.5-5zm-27 461q-40 0-47-108h82q0 22-1.5 47t-9 43-24.5 18z"/></svg>