<svg width="67.2" height="17.92" viewBox="0 0 67.2 17.92" xmlns="http://www.w3.org/2000/svg"><path transform="translate(0 14.16) scale(.016 -.016)" d="m100 693q38 9 82 12t87 3q46 0 93.5-9t86.5-33 63.5-66 24.5-107q0-64-23-108t-61-71.5-87-39.5-101-12q-5 0-16.5 0t-24 0.5-24.5 1.5-17 2v-266h-83zm171-57q-26 0-50-1t-38-5v-290q5-2 16-2.5t23-1 23-0.5 16 0q34 0 67.5 6.5t60.5 23.5 43.5 48 16.5 79q0 41-15.5 68.5t-41 44-57.5 23.5-64 7z"/><path transform="translate(9.6 14.16) scale(.016 -.016)" d="M40 700H560V517H486V626H341V74H451V0H148V74H258V626H114V517H40Z"/><path transform="translate(28.8 14.16) scale(.016 -.016)" d="m457 465 10 95h-5l-48-86-102-171h-25l-107 172-46 85h-5l12-94v-466h-81v700h77l166-266h2l160 266h75v-700h-83z"/><path transform="translate(38.4 14.16) scale(.016 -.016)" d="m57 250q0 121 63 191.5t180 70.5q63 0 108.5-20.5t75.5-55.5 44.5-83 14.5-103q0-60-16-108.5t-47-82.5-76.5-52.5-103.5-18.5q-62 0-108 20.5t-76 55.5-44.5 83-14.5 103zm83 0q0-35 8.5-70t27.5-63 49.5-45 74.5-17q80 0 120.5 49.5t40.5 145.5q0 36-8.5 70.5t-28 62.5-50 45-74.5 17q-80 0-120-49t-40-146z"/><path transform="translate(48 14.16) scale(.016 -.016)" d="m93 325q0 9-0.5 23.5t-1.5 30-2.5 30.5-3.5 26h-67v65h134l9-81h5q10 17 26.5 33.5t38.5 30 49 21.5 57 8q46 0 81.5-10t59-35.5 35.5-69 12-110.5v-287h-78v272q0 83-27 125t-98 42q-26 0-50.5-10.5t-44.5-27.5-35-39.5-22-47.5v-314h-77z"/><path transform="translate(57.6 14.16) scale(.016 -.016)" d="m57 250q0 121 63 191.5t180 70.5q63 0 108.5-20.5t75.5-55.5 44.5-83 14.5-103q0-60-16-108.5t-47-82.5-76.5-52.5-103.5-18.5q-62 0-108 20.5t-76 55.5-44.5 83-14.5 103zm83 0q0-35 8.5-70t27.5-63 49.5-45 74.5-17q80 0 120.5 49.5t40.5 145.5q0 36-8.5 70.5t-28 62.5-50 45-74.5 17q-80 0-120-49t-40-146z"/></svg>