<svg width="47.264" height="18.116" viewBox="0 0 47.264 18.116" xmlns="http://www.w3.org/2000/svg"><path transform="translate(0 14.252) scale(.014 -.014)" d="m85 693q38 9 82 12t87 3q46 0 93.5-9t86.5-33 63.5-66 24.5-107q0-64-23-108t-61-71.5-87-39.5-101-12q-5 0-16.5 0t-24 0.5-24.5 1.5-17 2v-266h-83zm171-57q-26 0-50-1t-38-5v-290q5-2 16-2.5t23-1 23-0.5 16 0q34 0 67.5 6.5t60.5 23.5 43.5 48 16.5 79q0 41-15.5 68.5t-41 44-57.5 23.5-64 7z"/><path transform="translate(7.826 14.252) scale(.014 -.014)" d="M537 626H319V0H236V626H18V700H537Z"/><path transform="translate(19.334 14.252) scale(.014 -.014)" d="m401 178q0 42-25 68.5t-62.5 47-81.5 38.5-81.5 43.5-62.5 63-25 95.5q0 82 57 130t162 48q61 0 111-9t78-23l-25-73q-23 11-67.5 21t-100.5 10q-66 0-99-29.5t-33-69.5q0-39 25-65t62.5-46.5 81.5-40.5 81.5-46.5 62.5-63.5 25-92q0-45-16-81t-47-62-75-40-100-14q-75 0-124 11.5t-76 25.5l28 75q23-13 68-25.5t101-12.5q33 0 62 6.5t50 21 33.5 36.5 12.5 52z"/><path transform="translate(26.768 14.252) scale(.014 -.014)" d="m69 463q38 23 88.5 34t105.5 11q52 0 83.5-14t48-36.5 22-49.5 5.5-54q0-60-3-117t-3-108q0-37 3-70t11-61h-59l-21 70h-5q-9-14-22.5-27.5t-32.5-24-44-17.5-57-7-59.5 10-47.5 28.5-31.5 44.5-11.5 59q0 44 18 73.5t50.5 47 78 25 100.5 7.5q14 0 27.5 0t27.5-2q3 30 3 54 0 55-22 77t-80 22q-17 0-36.5-2.5t-40-7-39-11-32.5-14.5zm142-401q28 0 50 7.5t38 19 26.5 25.5 15.5 27v83q-14 1-28.5 1.5t-28.5 0.5q-31 0-60.5-3.5t-52-13-36-26-13.5-41.5q0-35 25-57.5t64-22.5z"/><path transform="translate(33.712 14.252) scale(.014 -.014)" d="m398 0v285q0 78-22.5 117.5t-82.5 39.5q-53 0-87.5-28.5t-48.5-71.5v-342h-80v500h56l15-61h4q24 32 64.5 52.5t96.5 20.5q41 0 72-9.5t51.5-33.5 31-64.5 10.5-102.5v-302z"/><path transform="translate(41.37 14.252) scale(.014 -.014)" d="m297 136q0 30-18 47t-44.5 28.5-58 22-58 27-44.5 42.5-18 70q0 72 41 105.5t114 33.5q54 0 90.5-9.5t63.5-22.5l-19-66q-23 11-55.5 19.5t-69.5 8.5q-44 0-64.5-15t-20.5-52q0-26 18-40.5t44.5-26 58-22.5 58-29 44.5-45.5 18-72.5q0-32-10.5-60t-32.5-48-54.5-31.5-76.5-11.5q-57 0-97 11t-67 26l24 68q23-13 60-24t75-11q43 0 71 17t28 61z"/></svg>