<svg width="87.304" height="18.8" viewBox="0 0 87.304 18.8" xmlns="http://www.w3.org/2000/svg"><path transform="translate(0 15.2) scale(.008 -.008)" d="m191 0v1446h489q155 0 276-52t190.5-154 69.5-251q0-144-64.5-246t-179.5-155-267-53h-324v-535zm189 691h321q149 0 242 83t93 226q0 144-96 218t-248 74h-312z"/><path transform="translate(10.184 15.2) scale(.008 -.008)" d="m533-20q-81 1-152.5 23.5t-126.5 66.5-86.5 109.5-31.5 152.5v702h185v-683q0-101 62.5-164t188.5-63q114 0 183.5 59.5t69.5 177.5v673h184v-1034h-147l-19 198q-19-78-64.5-126t-109-70.5-136.5-21.5z"/><path transform="translate(19.472 15.2) scale(.008 -.008)" d="m664-20q-91 0-153.5 24t-102.5 61.5-62 77-32 69.5l-20-212h-141v1486h186v-616q13 26 39.5 57t68.5 60 99.5 48 131.5 19q194 0 308.5-135t114.5-398q0-163-49-284.5t-146-189-242-67.5zm-33 142q126 0 205 97.5t79 310.5q0 181-73.5 280.5t-214.5 99.5q-103 0-165.5-44.5t-92-129.5-30.5-206q0-217 67.5-312.5t224.5-95.5z"/><path transform="translate(29.016 15.2) scale(.008 -.008)" d="m414-13q-84 0-135.5 23t-79 62-37 89.5-9.5 104.5v1220h182v-1202q0-78 30.5-117t85.5-43l56-1v-120q-23-7-48-11.5t-45-4.5z"/><path transform="translate(33.864 15.2) scale(.008 -.008)" d="M158 0V1034H337V0ZM153 1253V1445H342V1253Z"/><path transform="translate(37.824 15.2) scale(.008 -.008)" d="m569-20q-140 0-247.5 61t-168 180-60.5 292q0 162 55.5 283.5t162 189.5 258.5 68q111 0 199.5-42.5t145.5-120.5 70-184h-164q-9 54-41.5 99t-85 72-123.5 27q-133 0-216.5-96t-83.5-294q0-179 76.5-286.5t225.5-107.5q71 0 124 27.5t85 73 41 97.5h161q-13-104-70.5-180t-146-117.5-197.5-41.5z"/><path transform="translate(50.408 15.2) scale(.008 -.008)" d="m681-20q-106 0-201 25.5t-172.5 76.5-128 126.5-63.5 175.5h194q18-82 71.5-138t133-84 174.5-28q92 0 169.5 29t124.5 84.5 47 133.5q0 86-56 138.5t-173 84.5l-298 77q-101 25-178.5 70.5t-121.5 120-44 185.5q0 123 68 214.5t184.5 142 263.5 50.5q170 0 286.5-59t176.5-155 60-205h-190q-9 99-58 156.5t-122 83-159 25.5q-155 0-234.5-70.5t-79.5-167.5q0-89 57-140t168-79l290-75q129-30 205.5-87t110-132.5 33.5-163.5q0-120-67-214t-187.5-147.5-283.5-53.5z"/><path transform="translate(61.128 15.2) scale(.008 -.008)" d="m443-20q-101 0-177.5 35.5t-120 102.5-43.5 162q0 172 120 256t385 90l184 5v81q0 95-57 150.5t-176 55.5q-89-1-157-42t-87-134h-163q6 101 56.5 170.5t142.5 105.5 217 36q135 0 224.5-38t134-112 44.5-182v-722h-158l-14 194q-59-121-151.5-167.5t-203.5-46.5zm55 133q53 0 104.5 19t94 51.5 68.5 73 26 83.5v177l-153-3q-119-2-198-24t-119-69-40-123q0-87 61-136t156-49z"/><path transform="translate(69.976 15.2) scale(.008 -.008)" d="m153 0v1034h179v-150q25 43 69.5 81t108 61 146.5 23q98 0 180.5-39t132-121.5 49.5-212.5v-676h-185v658q0 121-63.5 179.5t-164.5 58.5q-70 0-131-22.5t-99-68-38-114.5v-691z"/><path transform="translate(79.208 15.2) scale(.008 -.008)" d="m525-20q-108 0-200.5 33.5t-153.5 105-76 182.5h168q13-61 50-101.5t91.5-61 119.5-20.5q105 0 169 39t64 120q0 57-33.5 91.5t-104.5 50.5l-214 53q-125 30-199.5 94t-75.5 179q0 91 44 160t131.5 109 218.5 40q169 0 272-75.5t108-221.5h-164q-10 74-66 117.5t-152 43.5q-98 0-160.5-39.5t-62.5-122.5q0-55 44.5-86.5t129.5-52.5l208-52q71-19 118-50t74-69 38.5-79.5 11.5-79.5q0-95-47-163.5t-136-106-215-37.5z"/></svg>