<svg width="51.056" height="16" viewBox="0 0 51.056 16" xmlns="http://www.w3.org/2000/svg"><path transform="translate(0 12) scale(.016 -.016)" d="m197-86q-6 0-8 3-68 80-68 228 0 23 1.5 46t5.5 48q18 153 122 260-99-4-157-37-78-42-78-122 0-25 39-58 2-2 2-4 0-5-5-10-6-6-10-6-2 0-4 2-46 37-46 80 0 83 87 131 45 24 94 33t100 10q15 12 31 21.5t33 16.5l4 1q1 0 3 0t4-1q8 0 8-1 0-2-5-5-17-11-40-33 113-8 165-55 47-41 47-104 0-79-64-142-68-68-163-68-39 0-62 24-21 21-21 52 0 28 18 47 20 21 55 21 14 0 24-13t10-27q0-6-1-7-2-2-3-2t-3 5q-2 11-11 19-7 10-16 10-26 0-43-18-14-17-14-38 0-24 16-40 20-18 51-18 81 0 135 54 49 49 49 118 0 62-44 106-51 50-144 57-109-118-128-261-6-43-6-83 0-82 22-145 16-51 40-80l1-2v-1q0-5-7-8-7-4-16-4z"/><path transform="translate(7.408 12) scale(.016 -.016)" d="m211-73q-5 0-13 6-22 21-34.5 52t-10.5 72l1 20q0 6 1 16t3 23q-20-51-36-74-17-24-32-34-13-10-28-10-26 0-40 39-4 11-4 37 0 19 2 40.5t6 46.5q5 23 8.5 39.5t7.5 25.5q5 12 23 12 7 0 19-5 8-6 8-15 0-4-3-10l-14-27q-3-6-6.5-12.5t-6.5-13.5q-11-23-15.5-48t-5.5-51q0-37 21-37 17 0 38 23 20 23 33 55 23 63 23 96 0 25 26 25 11 0 18-6 8-5 8-15l-2-9q-11-27-17.5-58t-7.5-66q-1-3-1-7v-7q0-77 32-106 6-4 6-11 0-6-7-6z"/><path transform="translate(11.024 12) scale(.016 -.016)" d="m55-235q-4 0-5 1-38 5-38 74 0 14 2 30.5t5 35.5q9 53 23.5 108.5t34.5 111.5q-10 24-19.5 44.5t-20.5 36.5q-5 8-5 13 0 7 7 14 8 6 13 6h1q0-1 1-1h1q11-13 20.5-30t19.5-43q28 41 56.5 59.5t60.5 18.5q44 0 62.5-25t18.5-67q0-21-6-47-10-49-38-77-23-23-53-23-22 0-35 13-15 14-15 37 0 5 6 5t6-5q3-35 36-35 24 0 42 23 23 30 23 82 0 38-14 59-16 25-42 25-49 0-97-77 11-40 17-80.5t6-84.5q0-23-2-44.5t-5-41.5q-7-37-21-69-21-47-46-47zm-3 11h2q11 0 20 11 9 14 17 40 11 32 15 64 2 14 3 27.5t1 27.5q0 69-23 151-20-45-32.5-92t-20.5-101q-3-24-5-42t-2-29q0-25 5.5-40t19.5-17z"/><path transform="translate(15.728 12) scale(.016 -.016)" d="m55-235q-4 0-5 1-38 5-38 74 0 14 2 30.5t5 35.5q9 53 23.5 108.5t34.5 111.5q-10 24-19.5 44.5t-20.5 36.5q-5 8-5 13 0 7 7 14 8 6 13 6h1q0-1 1-1h1q11-13 20.5-30t19.5-43q28 41 56.5 59.5t60.5 18.5q44 0 62.5-25t18.5-67q0-21-6-47-10-49-38-77-23-23-53-23-22 0-35 13-15 14-15 37 0 5 6 5t6-5q3-35 36-35 24 0 42 23 23 30 23 82 0 38-14 59-16 25-42 25-49 0-97-77 11-40 17-80.5t6-84.5q0-23-2-44.5t-5-41.5q-7-37-21-69-21-47-46-47zm-3 11h2q11 0 20 11 9 14 17 40 11 32 15 64 2 14 3 27.5t1 27.5q0 69-23 151-20-45-32.5-92t-20.5-101q-3-24-5-42t-2-29q0-25 5.5-40t19.5-17z"/><path transform="translate(20.432 12) scale(.016 -.016)" d="m169 327q-11 0-19.5 8.5t-8.5 19.5q0 12 8.5 20t19.5 8q12 0 20-8t8-20q0-11-8-19.5t-20-8.5zm-73-299q-4 0-7 0.5t-7 1.5q-20 4-30 24.5t-10 61.5q0 31 20 83 10 28 23 42 10 13 22 13 5 0 10-5 2-2 2-6 0-6-4-13l-8-19q-2-5-5-11t-6-14q-26-60-26-89 0-18 9-32 11-15 30-15 22 0 47 30 8 10 15 22.5t12 23.5q2 5 5 5 7 0 4-10-6-14-12.5-27.5t-15.5-24.5q-32-41-68-41z"/><path transform="translate(22.656 12) scale(.016 -.016)" d="m131-4q-52 0-79.5 35.5t-27.5 88.5q0 62 32 103 23 32 60 44 9 2 16.5 3.5t14.5 1.5q27 0 41.5-14.5t14.5-35.5q0-25-21-51-10-12-27-18.5t-34-6.5q-16 0-31 7t-23 21q-6-10-8-22.5t-2-29.5q0-41 18-74t61-33q37 0 57 22.5t20 42.5q0 16-12 22-5 3-5 7 0 6 6 6 10 0 18.5-10.5t8.5-26.5q0-40-30-61t-68-21zm-8 172q11 0 22.5 3.5t18.5 12.5q14 17 14 35 0 14-7 23t-21 9h-6q-26 0-42-16-18-15-26-39 0-12 14.5-20t32.5-8z"/><path transform="translate(26.192 12) scale(.016 -.016)" d="m94-41q-26 0-42.5 16t-16.5 42 13.5 46 36.5 20q8 0 8-7 0-5-10-5-14 0-23-17t-9-30q0-17 13-27.5t29-10.5q33 0 46 21.5t13 51.5q0 16-2.5 32t-7.5 32q-3 12-12 28.5t-19.5 32.5-18.5 24q-12-29-24.5-58.5t-26.5-55.5q-1-3-5-3-8 0-5 8 4 7 7.5 14.5t8.5 18.5l22 47q5 11 9.5 22t8.5 21q-16 20-16 50 0 13 5.5 22.5t18.5 9.5q7 0 14-9 8-10 5-33-1-5-4.5-17.5t-5.5-17.5q0-4 8.5-16.5t18.5-25.5 14-18q17-23 28-53.5t11-59.5q0-37-20-66t-70-29z"/><path transform="translate(31.904 12) scale(.016 -.016)" d="m197-86q-6 0-8 3-68 80-68 228 0 23 1.5 46t5.5 48q18 153 122 260-99-4-157-37-78-42-78-122 0-25 39-58 2-2 2-4 0-5-5-10-6-6-10-6-2 0-4 2-46 37-46 80 0 83 87 131 45 24 94 33t100 10q15 12 31 21.5t33 16.5l4 1q1 0 3 0t4-1q8 0 8-1 0-2-5-5-17-11-40-33 113-8 165-55 47-41 47-104 0-79-64-142-68-68-163-68-39 0-62 24-21 21-21 52 0 28 18 47 20 21 55 21 14 0 24-13t10-27q0-6-1-7-2-2-3-2t-3 5q-2 11-11 19-7 10-16 10-26 0-43-18-14-17-14-38 0-24 16-40 20-18 51-18 81 0 135 54 49 49 49 118 0 62-44 106-51 50-144 57-109-118-128-261-6-43-6-83 0-82 22-145 16-51 40-80l1-2v-1q0-5-7-8-7-4-16-4z"/><path transform="translate(39.312 12) scale(.016 -.016)" d="m105 1q-25 0-42 16-39 33-39 130 0 33 6 67t16 68q22 75 63 131 26 36 58 36 22 0 37-19 15-21 15-57v-13q0-4-0.5-7.5t-1.5-7.5q-21-142-158-249 9-74 51-74 23 0 55 23 35 24 70 80 3 4 4 4 3 0 3-7 0-3-2-7-39-75-92-102-22-12-43-12zm-48 113q117 112 136 232 2 12 3 22.5t1 19.5q0 20-5 32.5t-18 12.5q-25 0-54-48-17-26-29-56.5t-21-66.5q-13-51-13-123z"/><path transform="translate(42.32 12) scale(.016 -.016)" d="m94-16q-43 0-58 54-2 10-3.5 19.5t-1.5 19.5q0 40 17 77.5t48 62 71 24.5h8q2-1 7-1 44-8 44-49 0-8-7-8-8 0-8 8-2 11-10.5 15t-22.5 4q-6 0-8-1-34-5-57-30t-34-59.5-11-67.5q0-17 8-35t29-18q14 0 27 11.5t22 28.5q11 21 15 46t4 60q0 13 16 13 9 0 17-5 7-5 8-12 0-5 0-10.5t-1-10.5-1-11 0-11q0-34 7-52 6-16 19-16 10 0 19 9 7 7 18 22t21 31 14 25q3 5 6 5 2 0 3.5-2.5t-0.5-6.5q-11-24-24.5-48.5t-31.5-43.5q-7-6-15-10.5t-19-4.5q-9 0-17.5 3.5t-12.5 12.5q-7 13-10 29t-2 31q-2 5-3 5-2 0-2-4-5-46-32-73-26-26-56-26z"/><path transform="translate(46.624 12) scale(.016 -.016)" d="m114-181q-26 0-49.5 9.5t-39.5 28.5q-19 19-19 57 0 33 16 58t53 25q21 0 37.5-11.5t16.5-35.5q0-23-14.5-33.5t-28.5-10.5q-8 0-8 5 0 6 8 6 10 0 20 9t10 24q0 18-12 25.5t-28 7.5q-25 0-35.5-21t-10.5-46q0-15 6.5-31t19.5-26q25-20 61-20 43 0 69.5 23t38.5 60.5 12 80.5q0 12-4 36t-11 46.5-17 28.5q-14-34-38-59t-64-25q-44 0-61 24t-17 56q0 28 14 51.5t32.5 45 32.5 42 14 41.5q0 22-10.5 38t-33.5 16q-20 0-31-12-12-13-12-29 0-6 2-12.5t5-13.5l3-6 2-3q3-3 3-5 0-4-3-6.5t-5-1.5q-10 5-17.5 20.5t-7.5 33.5q0 11 4 21.5t13 19.5q20 17 48 17 30 0 46-22t16-57q0-26-12-49.5t-27.5-45.5-27.5-45.5-12-49.5q0-18 8-34.5t31-16.5q29 0 48 15.5t29.5 40 16.5 53 9 53.5q2 15 4.5 25.5t6.5 17.5q7 13 19 13 20 0 20-27 0-24-13-52.5t-24-50.5q21-40 37.5-76.5t16.5-83.5v-13q0-40-22-72.5t-57.5-51.5-76.5-19z"/></svg>