<svg width="46.344" height="17.766" viewBox="0 0 46.344 17.766" xmlns="http://www.w3.org/2000/svg"><path transform="translate(0 13.766) scale(.015625 -.015625)" d="m250 270q-39 0-94 4v-274h-91v655l193 4q83 2 131-51.5t48-137.5q0-82-53-141t-134-59zm-4 329-90-2v-259l80 1q51 1 81 40 30 36 30 88 0 134-101 132z"/><path transform="translate(7.3438 13.766) scale(.015625 -.015625)" d="m457 0h-73l-11 53q-76-72-157-71-70 0-113 57-39 53-38 125v343h80v-339q0-114 91-114 43 0 92 36t49 78v339h80z"/><path transform="translate(15.516 13.766) scale(.015625 -.015625)" d="m305 420q-19 13-55 12-28 0-66.5-40t-38.5-67v-325h-80v507h80v-84q60 95 127 95 17 0 58-16z"/><path transform="translate(20.984 13.766) scale(.015625 -.015625)" d="m120 616q-24 0-39.5 16.5t-15.5 40.5 15.5 39.5 39.5 15.5 39-16 15-39q0-24-15-40.5t-39-16.5zm-47-616v507h83v-507z"/><path transform="translate(24.703 13.766) scale(.015625 -.015625)" d="m219-8q-57 0-89 52-28 44-28 104v292h-80v68h80v103h81v-103h132v-69l-132 1v-304q0-69 59-68 32 0 80 46l39-56q-57-66-142-66z"/><path transform="translate(30.312 13.766) scale(.015625 -.015625)" d="m403-11q-42 0-64 49-31-24-53-34-45-20-103-20-65 0-103 41t-38 105q0 83 50 120 33 24 124 45 35 8 111 15v65q0 34-26.5 55.5t-60.5 21.5q-56 0-137-66l-42 57q32 29 84 54 57 28 95 27 71 0 119-44t48-114v-289q5-20 21-21 11-1 43 22l16-53q-34-36-84-36zm-76 250q-30 0-78-10-28-5-59-13-74-19-74-87 0-37 21-59t58-22q40 0 81 22 50 26 51 65z"/><path transform="translate(38.156 13.766) scale(.015625 -.015625)" d="m380 0v333q0 50-23 83-26 38-73 38-42 0-87-33-51-37-52-85v-336h-80v507h80v-57q40 38 67 52 38 22 81 21 71 0 119-52.5t48-124.5v-346z"/></svg>