<svg width="96.848" height="17.728" viewBox="0 0 96.848 17.728" xmlns="http://www.w3.org/2000/svg"><path transform="translate(0 13.568) scale(.016 -.016)" d="m382 665q78 0 139-27t102.5-73 63.5-107 22-128q0-64-20-123.5t-59-106-97-76.5-134-34q52-1 92.5-12t76.5-24.5 70.5-24.5 75.5-11q14 0 33.5 3t41.5 16l3-2 4-8-1-4q-22-26-52-43.5t-68-17.5q-34 0-70 14t-75 31-81 31-88 14q-38 0-72.5-9.5t-51.5-20.5l-3 1-5 14 1 3q22 15 59 30.5t80 18.5q-78 1-137 28t-98 72.5-59 105.5-20 127q0 71 22 133.5t64 109 103 73.5 138 27zm-1-623q60 0 106.5 22.5t78.5 61.5 49 91 17 111q0 60-17.5 112t-50.5 90.5-80.5 60-107.5 21.5q-59 0-104.5-21.5t-76.5-59.5-46.5-89.5-15.5-112.5q0-67 18-120t51-90 78.5-57 100.5-20z"/><path transform="translate(12.208 13.568) scale(.016 -.016)" d="m429 86q-26-42-66.5-69.5t-99.5-27.5q-29 0-55.5 6.5t-49 21.5-38.5 40-23 63q-5 26-4.5 54.5t-0.5 57.5q0 13-0.5 35.5t-0.5 46 0 43.5 0 29q0 11-5 19.5t-8 12.5q-10 11-25 13.5t-31 2.5l-3 4v14l3 3h18q17 0 43 0.5t45 3.5l35 5 6-9q-2-4-3-14.5t-2-22.5-1-23 0-17q0-17-0.5-37.5t-1-41.5-1-40-0.5-32q0-22 1.5-49.5t6.5-47.5q10-47 41-70t72-23q31 0 57 12.5t45.5 30.5 32 38.5 16.5 37.5v130q0 21-0.5 35.5t-1 25.5-1 20-1.5 19q-2 11-5.5 19.5t-6.5 11.5q-10 12-25 14.5t-31 2.5l-4 4v14l4 3h18q17 0 43 0.5t44 3.5l35 5 6-9q-2-4-3-14.5t-2-22.5-1-23 0-17q0-8-0.5-15t-0.5-17-0.5-23.5-0.5-35.5v-112q0-22 0.5-36t1-24 1-18.5 0.5-18.5q2-23 5-33.5t10-15.5q8-8 23.5-9.5t31.5-1.5l4-4 2-14-2-4q-18 2-39 3t-41 1q-38 0-69-3l-6 10q3 13 6.5 34t5.5 43z"/><path transform="translate(21.792 13.568) scale(.016 -.016)" d="m324 7q3 11 4.5 33t4.5 41l-1 3q-13-18-31-35t-39.5-30.5-46-21.5-51.5-8q-31 0-55 11t-40 29-24 42-8 50q0 37 17 64.5t45 45.5q26 16 61.5 26t69 14.5 60.5 6 36 1.5h14q-1 37-4 58.5t-8 35.5q-11 30-38 43.5t-65 13.5q-16 0-34.5-3t-35-11-28.5-22.5-14-37.5l-4-3h-22l-9 74 3 6q5 6 21 13t37.5 13.5 48 11 52.5 4.5q36 0 67-9.5t53.5-28.5 35.5-47.5 13-66.5q0-42-0.5-74.5t-1.5-60-1.5-54-0.5-56.5q2-23 5-33.5t10-15.5q8-8 23.5-9.5t31.5-1.5l4-4 1-14-1-4q-18 2-39 3t-41 1q-38 0-69-3zm0 108q3 5 6.5 12t4.5 17l5 100h-9q-40 0-80-4.5t-71.5-17.5-51.5-36-20-59q0-38 22-60.5t57-22.5q21 0 42 7t39.5 18 33 23 22.5 23z"/><path transform="translate(29.728 13.568) scale(.016 -.016)" d="m296 413h-130q0-65-0.5-120t-0.5-96.5-0.5-66.5-0.5-31q0-39 15-52t35-13q17 0 39.5 6.5t36.5 14.5l9-7-9-28q-23-16-51.5-23.5t-50.5-7.5q-51 0-72 28t-21 72q0 9 1 37t2 70 2 97 1 120h-72l-4 5v19l4 4 72 14q0 35-1.5 71.5t-3.5 71.5l7 6 14 1q8 1 26 4t25 7l9-4q-3-14-5-32.5t-3.5-39.5-2-43-0.5-42l130 6 5-4v-39z"/><path transform="translate(34.944 13.568) scale(.016 -.016)" d="m296 413h-130q0-65-0.5-120t-0.5-96.5-0.5-66.5-0.5-31q0-39 15-52t35-13q17 0 39.5 6.5t36.5 14.5l9-7-9-28q-23-16-51.5-23.5t-50.5-7.5q-51 0-72 28t-21 72q0 9 1 37t2 70 2 97 1 120h-72l-4 5v19l4 4 72 14q0 35-1.5 71.5t-3.5 71.5l7 6 14 1q8 1 26 4t25 7l9-4q-3-14-5-32.5t-3.5-39.5-2-43-0.5-42l130 6 5-4v-39z"/><path transform="translate(40.16 13.568) scale(.016 -.016)" d="m177 354q10 19 22.5 40t28.5 39 36.5 30 46.5 12q18 0 40.5-5.5t30.5-14.5l8-9-12-77h-33q-3 14-15.5 25.5t-38.5 11.5q-25 0-46-14.5t-36.5-36.5-24-46.5-8.5-44.5v-89q0-22 0.5-35.5t1-23 1-16 0.5-13.5l1-9q2-15 4.5-28.5t10.5-20.5q5-4 14.5-6t20-3 20.5-1.5 16-0.5l5-5 2-13-2-4q-7 0-22.5 1t-32.5 1.5-32.5 1-22.5 0.5h-24q-7 0-21.5-0.5t-30.5-1-30.5-1.5-21.5-1l-1 4 1 14 4 4q16 0 31.5 1.5t23.5 9.5q8 7 10.5 18t4.5 31l1 9q1 10 1.5 25t0.5 51v123q0 21 0 35.5t-0.5 25.5-1 20-1.5 19q-2 11-6 19.5t-7 11.5q-10 12-25 14.5t-31 2.5l-4 4v14l4 3h18q17 0 43 0.5t45 3.5l35 5 6-9q-6-21-8.5-48t-2.5-52z"/><path transform="translate(46.688 13.568) scale(.016 -.016)" d="m291 475q59 0 105-20.5t77.5-55 48-79.5 16.5-93q0-46-15-89t-46-76-77-53-107-20q-63 0-110 21t-77.5 55-45.5 77.5-15 89.5q0 49 17 93t48.5 77.5 77 53 103.5 19.5zm1-447q42 0 74 17t53 45 31.5 63.5 10.5 73.5q0 36-11.5 73t-33.5 66.5-54 48-74 18.5q-44 0-75.5-17.5t-52-45.5-30.5-64-10-72q0-37 11.5-73.5t33.5-66 54-48 73-18.5z"/><path transform="translate(56.016 13.568) scale(.016 -.016)" d="m427 353-4 3q0 23-13.5 37.5t-32.5 22.5-40.5 11-37.5 3q-46 0-79.5-16.5t-55.5-44-32.5-63-10.5-72.5q0-38 11.5-73t35.5-62 60-43 86-16q34 0 75.5 10.5t71.5 26.5l10-10-15-28q-11-8-28.5-16.5t-39.5-16-47.5-12.5-50.5-5q-49 0-93.5 17.5t-78 49-53.5 76-20 98.5q0 55 20 100t55 77 81.5 50 99.5 18q48 0 90.5-12t64.5-24l3-9-11-77z"/><path transform="translate(64.16 13.568) scale(.016 -.016)" d="m480 269-16-7q-54 0-111-1t-112-1h-118q-1-7-1-13.5t0-12.5q0-38 11-72.5t34.5-60.5 60.5-41.5 90-15.5q31 0 66.5 6.5t65.5 23.5l10-6v-18l-10-11q-24-19-68-34.5t-98-15.5q-53 0-96.5 17.5t-75 49.5-49 76-17.5 98q0 55 18 100t49.5 77 74 50 91.5 18q26 0 58.5-7t62.5-26.5 54-55 33-93.5zm-200 161q-32 0-57.5-10.5t-45-28-32-41-17.5-49.5h39q54 0 105 1.5t107 4.5q13 1 17.5 7t4.5 14q0 6-1 11t-3 10q-11 38-41 59.5t-76 21.5z"/><path transform="translate(72.56 13.568) scale(.016 -.016)" d="m178 374q26 43 67 72t102 29q28 0 56-8t51.5-25 39-43.5 20.5-62.5q3-26 3.5-55t0.5-58q0-36 0.5-72.5t0.5-72.5q2-23 5-33.5t9-15.5q9-8 24.5-9.5t31.5-1.5l3-4 2-14-2-4q-17 2-38 3t-41 1q-38 0-69-3l-7 10q4 13 6 34t3 37q2 42 3 82.5t1 67.5q0 23-1.5 50t-6.5 47q-10 47-41 70t-72 23q-33 0-61.5-14t-48.5-34.5-31.5-43-11.5-38.5v-113q0-22 0-36t0.5-24 1.5-18.5 2-18.5q2-21 4.5-31.5t10.5-17.5 22.5-9 29.5-2l5-5 2-13-2-4q-7 0-21 1t-30 1.5-30 1-21 0.5h-14q-7 0-21.5-0.5t-30-1-30-1.5-21.5-1l-1 4 1 14 4 4q16 0 31.5 1.5t23.5 9.5q8 7 10.5 18t4.5 31q1 16 2 32.5t1 52.5v123q0 21 0 35.5t-0.5 25.5-1 20-1.5 19q-2 11-6 19.5t-7 11.5q-10 12-25 14.5t-31 2.5l-4 4v14l4 3h18q17 0 43 0.5t45 3.5l35 5 6-9q-5-13-7-35.5t-3-43.5z"/><path transform="translate(82.304 13.568) scale(.016 -.016)" d="m296 413h-130q0-65-0.5-120t-0.5-96.5-0.5-66.5-0.5-31q0-39 15-52t35-13q17 0 39.5 6.5t36.5 14.5l9-7-9-28q-23-16-51.5-23.5t-50.5-7.5q-51 0-72 28t-21 72q0 9 1 37t2 70 2 97 1 120h-72l-4 5v19l4 4 72 14q0 35-1.5 71.5t-3.5 71.5l7 6 14 1q8 1 26 4t25 7l9-4q-3-14-5-32.5t-3.5-39.5-2-43-0.5-42l130 6 5-4v-39z"/><path transform="translate(87.52 13.568) scale(.016 -.016)" d="m291 475q59 0 105-20.5t77.5-55 48-79.5 16.5-93q0-46-15-89t-46-76-77-53-107-20q-63 0-110 21t-77.5 55-45.5 77.5-15 89.5q0 49 17 93t48.5 77.5 77 53 103.5 19.5zm1-447q42 0 74 17t53 45 31.5 63.5 10.5 73.5q0 36-11.5 73t-33.5 66.5-54 48-74 18.5q-44 0-75.5-17.5t-52-45.5-30.5-64-10-72q0-37 11.5-73.5t33.5-66 54-48 73-18.5z"/></svg>