<svg width="29.918" height="17.5" viewBox="0 0 29.918 17.5" xmlns="http://www.w3.org/2000/svg"><path transform="translate(0 10.5) scale(.014 -.014)" d="m707-199q-81 0-185 63-16 10-56 39.5t-105 79.5q-72-35-140-35-69 0-116 45-46 45-46 118 0 108 97 196 98 90 214 90 44 0 47-18-10 6-38 6-48 0-122-51-37-25-68.5-55t-59.5-65q-54-69-54-118 0-109 130-109 53 0 116 25-97 70-164 70-37 0-59-19-3 0-3 2 0 14 26 25 28 11 46 11 62 0 175-80 102 46 173 135 70 88 70 172 0 66-43 101.5t-117 35.5q-101 0-224-63t-164-140q-5 0-5 8 0 9 30 43 69 78 163 127t189 49q76 0 143-60 67-58 67-133 0-72-71-161-70-88-172-142 62-44 109-74t78-45q65-30 125-30 62 0 62 46 0 50-73 95-17 11-38.5 20.5t-47.5 17.5q-28 9-39.5 12.5t-11.5 2.5q0 2 11 2 103 0 161-52 59-53 59-124 0-63-69-63z"/><path transform="translate(8.4 10.5) scale(.014 -.014)" d="m37-7q-17 0-27.5 14t-10.5 33q0 63 125 215 8 10 13.5 13.5t9.5 3.5q6 0 6-6l-2-3q-10-15-27-45t-37-72q-18-39-28.5-67t-10.5-38q0-19 9-19 15 0 87 92 41 50 61 80t27 45q3 3 30 3 26 0 28-8-3 0-3-90 0-127 31-127 26 0 55 62 28 62 28 118 0 72-43 85 4 10 35 10 62 0 62-91 0-73-42-135t-98-62q-39 0-60 46.5t-21 122.5q0 28 4 43-43-69-74.5-114t-50.5-67q-37-42-76-42z"/><path transform="translate(14.742 10.5) scale(.014 -.014)" d="m149 349q-22 0-36 12 19 13 40.5 34t44.5 50q2 0 2-5l-5-29q-5-31-18-46.5t-28-15.5zm-96-364q-38 0-38 55 0 83 60 219 0 4 5.5 15t8.5 14q7 7 19 7 35 0 38-14-16-26-30.5-60t-28.5-75q-15-44-21.5-72.5t-6.5-45.5q0-25 13-25 9 0 23 11 11 9 15.5 13t8.5 7q4 0 4-4 0-11-29-28t-41-17z"/><path transform="translate(16.898 10.5) scale(.014 -.014)" d="m-256-457q-70 0-116.5 39t-46.5 108q0 68 77 137 76 67 191 108 111 40 222 40 51 0 87-9 4 11 4 22 0 34-8 48-39-36-71-36t-56 31q-24 32-24 66 0 70 77 145 0 58 12 77 14 20 47 20 36 0 76-66 72-13 72-53 0-16-11.5-24.5t-11.5 0.5q10 7 10 16 0 30-48 30 1-4 1-9t0-12q0-96-58-169 15-28 15-75 0-5 0-9.5t-1-9.5q41-16 68-44 28-27 28-51 0-25-12-25-3 0-5 6 8 11 8 21 0 21-27 42t-59 31q-12-101-77-194-65-92-162-146-97-55-201-55zm354 713q32 22 62 22h8q-13 33-42 33-28 0-28-54zm60-180q36 53 36 115 0 28-9 50-17-6-49-23-31-16-31-23t53-119zm-76-64q35 0 66 49l-52 124q-21-21-37.5-57t-16.5-64q0-52 40-52zm-356-427q71 0 138.5 27t131.5 83q124 110 158 249-12 2-28.5 3.5t-37.5 1.5q-95 0-187-24-92-25-157.5-63t-104.5-82q-20-22-30-46t-10-46q0-43 33.5-73t93.5-30z"/><path transform="translate(20.16 10.5) scale(.014 -.014)" d="m68-9q-48 0-48 80 0 51 32 168 32 118 81 217 50 101 88 101 22 0 44-14.5t22-31.5q0-72-212-320-8-37-12.5-69t-4.5-60q0-55 24-55l16 5q5 0 5-5 0-16-35-16zm14 226q181 236 181 297 0 12-7 12-30 0-87-107t-87-202z"/><path transform="translate(22.568 10.5) scale(.014 -.014)" d="m80-11q-85 0-85 79 0 61 60 148 62 87 118 87 24 0 42.5-15.5t18.5-37.5q0-37-47-75-46-37-91-37-9 0-9 4l3 5q115 36 115 118 0 12-8 12-11 0-40-23-25-20-46.5-46t-38.5-54q-36-61-36-102 0-40 31-40 36 0 79 37 14 13 30 29.5t35 36.5q37 40 39 40 6 0 6-4.5t-2-8.5q-105-153-174-153z"/><path transform="translate(25.83 10.5) scale(.014 -.014)" d="m-117-446q-66 0-66 65 0 78 113 205 118 133 257 212 1 0 1-1 0-5-11-17-338-281-338-406 0-48 38-48 66 0 157 126 48 66 87 137t70 148q33 80 49.5 141t16.5 110q0 35-12 48-133-139-186-234-16-42-30-42-30 0-30 18 0 6 10.5 35.5t29.5 82.5l28 77q15 41 15 80v4q0 12-3 13-2 2-12.5 2t-10.5 5q0 9 16 9 64 0 64-48 0-23-60-170 34 48 101 119 68 72 84 72 0-8-8-16 45-4 48-20 2-13 3-24t1-19q0-96-66-254-73-172-177-291t-179-119z"/></svg>