<svg width="124.93" height="20.8" viewBox="0 0 124.93 20.8" xmlns="http://www.w3.org/2000/svg"><path transform="translate(0 15.92) scale(.016 -.016)" d="m125 260v96h194q74 0 110 29.5t36 89.5-36 89.5-110 29.5h-194v96h204q111 0 178-57t67-158q0-100-67-157.5t-178-57.5zm-50-260v690h105v-690zm391 0-187 299h115l195-299z"/><path transform="translate(9.904 15.92) scale(.016 -.016)" d="m385 0q-6 26-9.5 53t-3.5 53v224q0 65-33.5 93.5t-80.5 28.5q-43 0-72.5-23.5t-42.5-70.5l-94 31q22 73 79.5 112t135.5 39q99 0 153.5-53t54.5-145v-224q0-59 15-118zm-194-10q-69 0-110.5 40t-41.5 101q0 60 40.5 103.5t125.5 58.5l187 32v-77l-154-31q-53-10-76-30.5t-23-48.5q0-23 19-42.5t61-19.5q37 0 72 17.5t58 50 23 77.5h33q0-71-29.5-123t-78-80-106.5-28z"/><path transform="translate(18.496 15.92) scale(.016 -.016)" d="m249-10q-61 0-109 33t-75 94.5-27 147.5 27 147.5 75 94.5 109 33q84 0 135-60.5t51-170.5v-88q0-110-51-170.5t-135-60.5zm28 88q60 0 97.5 44.5t37.5 142.5-37.5 142.5-97.5 44.5-97.5-44.5-37.5-142.5 37.5-142.5 97.5-44.5zm130-78v123l15 142-15 143v307h100v-715z"/><path transform="translate(27.648 15.92) scale(.016 -.016)" d="m65 0v530h100v-530zm50 602q-26 0-44 17t-18 44q0 28 18 45t44 17 44-17 18-45q0-27-18-44t-44-17z"/><path transform="translate(31.328 15.92) scale(.016 -.016)" d="m280-10q-71 0-125.5 34t-85.5 96-31 145q0 84 31 145.5t85.5 95.5 125.5 34q72 0 126.5-34t85.5-95.5 31-145.5q0-83-31-145t-85.5-96-126.5-34zm0 90q63 0 101 44.5t38 140.5-38 140.5-101 44.5q-62 0-100-44.5t-38-140.5 38-140.5 100-44.5z"/><path transform="translate(43.824 15.92) scale(.016 -.016)" d="m345-10q-89 0-157 43t-106 122.5-38 189.5q0 111 38 190.5t106 122 157 42.5q71 0 128-25t96-73.5 55-118.5l-104-28q-15 74-60.5 111t-117.5 37q-85 0-137-66.5t-52-191.5q0-124 52-191t137-67q74 0 119 37.5t63 112.5l104-28q-18-71-58-120t-97-74-128-25z"/><path transform="translate(54.496 15.92) scale(.016 -.016)" d="m385 0q-6 26-9.5 53t-3.5 53v224q0 65-33.5 93.5t-80.5 28.5q-43 0-72.5-23.5t-42.5-70.5l-94 31q22 73 79.5 112t135.5 39q99 0 153.5-53t54.5-145v-224q0-59 15-118zm-194-10q-69 0-110.5 40t-41.5 101q0 60 40.5 103.5t125.5 58.5l187 32v-77l-154-31q-53-10-76-30.5t-23-48.5q0-23 19-42.5t61-19.5q37 0 72 17.5t58 50 23 77.5h33q0-71-29.5-123t-78-80-106.5-28z"/><path transform="translate(63.088 15.92) scale(.016 -.016)" d="m409 0v309q0 71-36 107t-86 36-86-36-36-107h-33q0 71 25.5 123t69.5 80 98 28 95.5-25.5 65-72 23.5-110.5v-332zm-344 0v530h100v-530z"/><path transform="translate(72.272 15.92) scale(.016 -.016)" d="m385 0q-6 26-9.5 53t-3.5 53v224q0 65-33.5 93.5t-80.5 28.5q-43 0-72.5-23.5t-42.5-70.5l-94 31q22 73 79.5 112t135.5 39q99 0 153.5-53t54.5-145v-224q0-59 15-118zm-194-10q-69 0-110.5 40t-41.5 101q0 60 40.5 103.5t125.5 58.5l187 32v-77l-154-31q-53-10-76-30.5t-23-48.5q0-23 19-42.5t61-19.5q37 0 72 17.5t58 50 23 77.5h33q0-71-29.5-123t-78-80-106.5-28z"/><path transform="translate(80.864 15.92) scale(.016 -.016)" d="m249-10q-61 0-109 33t-75 94.5-27 147.5 27 147.5 75 94.5 109 33q84 0 135-60.5t51-170.5v-88q0-110-51-170.5t-135-60.5zm28 88q60 0 97.5 44.5t37.5 142.5-37.5 142.5-97.5 44.5-97.5-44.5-37.5-142.5 37.5-142.5 97.5-44.5zm130-78v123l15 142-15 143v307h100v-715z"/><path transform="translate(90.016 15.92) scale(.016 -.016)" d="m385 0q-6 26-9.5 53t-3.5 53v224q0 65-33.5 93.5t-80.5 28.5q-43 0-72.5-23.5t-42.5-70.5l-94 31q22 73 79.5 112t135.5 39q99 0 153.5-53t54.5-145v-224q0-59 15-118zm-194-10q-69 0-110.5 40t-41.5 101q0 60 40.5 103.5t125.5 58.5l187 32v-77l-154-31q-53-10-76-30.5t-23-48.5q0-23 19-42.5t61-19.5q37 0 72 17.5t58 50 23 77.5h33q0-71-29.5-123t-78-80-106.5-28z"/><path transform="translate(102.13 15.92) scale(.016 -.016)" d="m125 0v93h211q77 0 111 29.5t34 79.5q0 53-34 82t-111 29h-211v68h221q116 0 179.5-52t63.5-136q0-86-63-139.5t-174-53.5zm-50 0v690h105v-690zm50 344v55h206q65 0 96.5 29t31.5 73-31.5 70-96.5 26h-206v93h221q66 0 115-23t76-63.5 27-93.5q0-72-56.5-119t-166.5-47z"/><path transform="translate(112.1 15.92) scale(.016 -.016)" d="m65 0v530h100v-530zm50 602q-26 0-44 17t-18 44q0 28 18 45t44 17 44-17 18-45q0-27-18-44t-44-17z"/><path transform="translate(115.78 15.92) scale(.016 -.016)" d="m267-185q-83 0-137.5 33.5t-77.5 87.5l93 39q18-36 48-53t78-17q34 0 65 14t51 46.5 20 87.5v94l15 143-15 142v98h100v-482q0-82-33-133.5t-87.5-75.5-119.5-24zm-18 225q-61 0-109 31t-75 87-27 132 27 132 75 87 109 31q84 0 133-55.5t49-150.5v-88q0-95-49-150.5t-133-55.5zm28 88q60 0 97.5 40t37.5 122-37.5 122-97.5 40-97.5-40-37.5-122 37.5-122 97.5-40z"/></svg>