<svg width="41.566" height="20.874" viewBox="0 0 41.566 20.874" xmlns="http://www.w3.org/2000/svg"><path transform="translate(0 14.644) scale(.014 -.014)" d="m690 35v-35h-241l-136 268 3 2q-23-2-65-4v-230l49-1v-35h-264v35l49 1v598l-49 1v35l193-2 149 12q72 0 123.5-26.5t78-71 26.5-98.5q0-62-36-108t-108-74l179-266zm-439 270q83 5 130 45.5t47 109.5q0 49-23 89t-63 63-91 23z"/><path transform="translate(9.688 14.644) scale(.014 -.014)" d="m428 52-147-69q-27 19-37 52-36-22-72.5-36t-63.5-14q-41 0-67 29t-26 74q0 20 4.5 43.5t11.5 37.5l212 34 2 29q2 45-19 70.5t-68 25.5q-21 0-44-4.5t-39-11.5l-16-34-27 10 46 144q77 33 146 33 71 0 116-37.5t45-117.5l-1-20-10-135-2-36q0-18 3-28.5t10-21.5l31 12zm-190 17-1 21 1 22 3 57-77-18q-4-13-4-35 0-30 12-44.5t29-14.5q16 0 37 12z"/><path transform="translate(15.68 14.644) scale(.014 -.014)" d="m520 70-140-82q-63 51-103 158l-11 31-65-28-1-117 37-3v-29h-215v29l37 3-5 599-38-8-10 29 185 56 14-24-3-374 133 158q70-20 103.5-70t33.5-133l-91-39 6-12q16-38 43-74t52-55l27 15zm-319 116 135 64q0 22-16.5 48t-39.5 32l-78-68z"/><path transform="translate(22.932 14.644) scale(.014 -.014)" d="m520 70-140-82q-63 51-103 158l-11 31-65-28-1-117 37-3v-29h-215v29l37 3-5 599-38-8-10 29 185 56 14-24-3-374 133 158q70-20 103.5-70t33.5-133l-91-39 6-12q16-38 43-74t52-55l27 15zm-319 116 135 64q0 22-16.5 48t-39.5 32l-78-68z"/><path transform="translate(30.184 14.644) scale(.014 -.014)" d="m428 52-147-69q-27 19-37 52-36-22-72.5-36t-63.5-14q-41 0-67 29t-26 74q0 20 4.5 43.5t11.5 37.5l212 34 2 29q2 45-19 70.5t-68 25.5q-21 0-44-4.5t-39-11.5l-16-34-27 10 46 144q77 33 146 33 71 0 116-37.5t45-117.5l-1-20-10-135-2-36q0-18 3-28.5t10-21.5l31 12zm-190 17-1 21 1 22 3 57-77-18q-4-13-4-35 0-30 12-44.5t29-14.5q16 0 37 12z"/><path transform="translate(36.176 14.644) scale(.014 -.014)" d="m257 274q54-37 82-67t28-74q0-39-23-73t-65-54.5-96-20.5q-52 0-98.5 25t-68.5 64l86 69q40-75 82-123 17 13 28.5 30.5t11.5 34.5q0 28-20.5 48.5t-63.5 49.5q-35 23-56 40t-35.5 41-14.5 54q0 37 24.5 71t68.5 55 100 21q43 0 81.5-18.5t62.5-46.5l-78-77q-48 61-106 109-17-22-17-57 0-27 21.5-49t65.5-52zm-120-274h1z"/></svg>