<svg width="99.664" height="18.096" viewBox="0 0 99.664 18.096" xmlns="http://www.w3.org/2000/svg"><path transform="translate(0 14.688) scale(.016 -.016)" d="m116 211q-10 0-10 10t10 10 10-10-10-10zm0-41q-10 0-10 10t10 10 10-10-10-10zm0-41q-10 0-10 10t10 10 10-10-10-10zm0-41q-10 0-10 10t10 10 10-10-10-10zm0 441q-10 0-10 10t10 10 10-10-10-10zm0-39q-10 0-10 10t10 10 10-10-10-10zm0-43q-10 0-10 10t10 10 10-10-10-10zm0-80q-10 0-10 10t10 10 10-10-10-10zm0-37q-10 0-10 10t10 10 10-10-10-10zm0-40q-10 0-10 10t10 10 10-10-10-10zm0-40q-10 0-10 10t10 10 10-10-10-10zm0 430q-10 0-10 10t10 10 10-10-10-10zm0-37q-10 0-10 10t10 10 10-10-10-10zm0-38q-10 0-10 10t10 10 10-10-10-10zm0-36q-10 0-10 10t10 10 10-10-10-10zm0-162q-10 0-10 10t10 10 10-10-10-10zm0-359q-10 0-10 10t10 10 10-10-10-10zm0-40q-10 0-10 10t10 10 10-10-10-10zm33 675q-10 0-10 10t10 10 10-10-10-10zm35 0q-10 0-10 10t10 10 10-10-10-10zm35 0q-10 0-10 10t10 10 10-10-10-10zm35 0q-10 0-10 10t10 10 10-10-10-10zm35 1q-10 0-10 10t10 10 10-10-10-10zm35 0q-10 0-10 10t10 10 10-10-10-10zm35 0q-10 0-10 10t10 10 10-10-10-10zm35-1q-10 0-10 10t10 10 10-10-10-10zm35-4q-10 0-10 10t10 10 10-10-10-10zm-280-398q-10 0-10 10t10 10 10-10-10-10zm35 0q-10 0-10 10t10 10 10-10-10-10zm35 0q-10 0-10 10t10 10 10-10-10-10zm35 0q-10 0-10 10t10 10 10-10-10-10zm35 0q-10 0-10 10t10 10 10-10-10-10zm35 0q-10 0-10 10t10 10 10-10-10-10zm36 0q-10 0-10 10t10 10 10-10-10-10zm36 0q-10 0-10 10t10 10 10-10-10-10zm35 3q-10 0-10 10t10 10 10-10-10-10zm31 384q-10 0-10 10t10 10 10-10-10-10zm2-353q10 0 10-10t-10-10-10 10 10 10zm28 355q10 0 10-10t-10-10-10 10 10 10zm28-25q10 0 10-10t-10-10-10 10 10 10zm22-31q10 0 10-10t-10-10-10 10 10 10zm18-35q10 0 10-10t-10-10-10 10 10 10zm10-38q10 0 10-10t-10-10-10 10 10 10zm5-40q10 0 10-10t-10-10-10 10 10 10zm-5-40q10 0 10-10t-10-10-10 10 10 10zm-10-38q10 0 10-10t-10-10-10 10 10 10zm-16-35q10 0 10-10t-10-10-10 10 10 10zm-23-30q10 0 10-10t-10-10-10 10 10 10zm-26-24q10 0 10-10t-10-10-10 10 10 10zm-66-114q-10 0-10 10t10 10 10-10-10-10zm20-32q-10 0-10 10t10 10 10-10-10-10zm63-96q-10 0-10 10t10 10 10-10-10-10zm21-32q-10 0-10 10t10 10 10-10-10-10zm-62 96q-10 0-10 10t10 10 10-10-10-10zm20-32q-10 0-10 10t10 10 10-10-10-10zm62-96q-10 0-10 10t10 10 10-10-10-10zm22-32q-10 0-10 10t10 10 10-10-10-10zm-169 254q-10 0-10 10t10 10 10-10-10-10z"/><path transform="translate(10.432 14.688) scale(.016 -.016)" d="m200 496q-10 0-10 10t10 10 10-10-10-10zm40 7q-10 0-10 10t10 10 10-10-10-10zm41 0q-10 0-10 10t10 10 10-10-10-10zm39-8q-10 0-10 10t10 10 10-10-10-10zm-193-29q-10 0-10 10t10 10 10-10-10-10zm229 12q-10 0-10 10t10 10 10-10-10-10zm32-25q-10 0-10 10t10 10 10-10-10-10zm24-33q-10 0-10 10t10 10 10-10-10-10zm16-37q-10 0-10 10t10 10 10-10-10-10zm7-40q-10 0-10 10t10 10 10-10-10-10zm2-40q-10 0-10 10t10 10 10-10-10-10zm-281-40q-10 0-10 10t10 10 10-10-10-10zm40 11q-10 0-10 10t10 10 10-10-10-10zm165-14q-10 0-10 10t10 10 10-10-10-10zm39-15q-10 0-10 10t10 10 10-10-10-10zm36 16q-10 0-10 10t10 10 10-10-10-10zm-351-41q-10 0-10 10t10 10 10-10-10-10zm351 0q-10 0-10 10t10 10 10-10-10-10zm-376-40q-10 0-10 10t10 10 10-10-10-10zm376 0q-10 0-10 10t10 10 10-10-10-10zm0-40q-10 0-10 10t10 10 10-10-10-10zm-376-40q-10 0-10 10t10 10 10-10-10-10zm373 0q-10 0-10 10t10 10 10-10-10-10zm-356-38q-10 0-10 10t10 10 10-10-10-10zm324 11q-10 0-10 10t10 10 10-10-10-10zm40-13q-10 0-10 10t10 10 10-10-10-10zm-337-28q-10 0-10 10t10 10 10-10-10-10zm232-8q-10 0-10 10t10 10 10-10-10-10zm33 20q-10 0-10 10t10 10 10-10-10-10zm85-19q-10 0-10 10t10 10 10-10-10-10zm-291 458q-10 0-10 10t10 10 10-10-10-10zm-70-38q-10 0-10 10t10 10 10-10-10-10zm386-445q-10 0-10 10t10 10 10-10-10-10zm-427 140q-10 0-10 10t10 10 10-10-10-10zm267 132q-10 0-10 10t10 10 10-10-10-10zm-39 4q-10 0-10 10t10 10 10-10-10-10zm-43 1q-10 0-10 10t10 10 10-10-10-10zm-119-32q-10 0-10 10t10 10 10-10-10-10zm20-236q-10 0-10 10t10 10 10-10-10-10zm37-12q-10 0-10 10t10 10 10-10-10-10zm40-3q-10 0-10 10t10 10 10-10-10-10zm45 4q-10 0-10 10t10 10 10-10-10-10zm40 10q-10 0-10 10t10 10 10-10-10-10z"/><path transform="translate(18.944 14.688) scale(.016 -.016)" d="m232 10q-10 0-10 10t10 10 10-10-10-10zm-131 231q-10 0-10 10t10 10 10-10-10-10zm0-40q-10 0-10 10t10 10 10-10-10-10zm0-40q-10 0-10 10t10 10 10-10-10-10zm0-40q-10 0-10 10t10 10 10-10-10-10zm0-40q-10 0-10 10t10 10 10-10-10-10zm6-38q-10 0-10 10t10 10 10-10-10-10zm22-29q-10 0-10 10t10 10 10-10-10-10zm-28 545q-10 0-10 10t10 10 10-10-10-10zm0-39q-10 0-10 10t10 10 10-10-10-10zm0-43q-10 0-10 10t10 10 10-10-10-10zm0-80q-10 0-10 10t10 10 10-10-10-10zm0-37q-10 0-10 10t10 10 10-10-10-10zm0-40q-10 0-10 10t10 10 10-10-10-10zm0-40q-10 0-10 10t10 10 10-10-10-10zm0 430q-10 0-10 10t10 10 10-10-10-10zm0-37q-10 0-10 10t10 10 10-10-10-10zm0-38q-10 0-10 10t10 10 10-10-10-10zm0-36q-10 0-10 10t10 10 10-10-10-10zm0-162q-10 0-10 10t10 10 10-10-10-10zm60-438q-10 0-10 10t10 10 10-10-10-10zm37 2q-10 0-10 10t10 10 10-10-10-10z"/><path transform="translate(22.72 14.688) scale(.016 -.016)" d="m296 504q-10 0-10 10t10 10 10-10-10-10zm46-7q-10 0-10 10t10 10 10-10-10-10zm40-13q-10 0-10 10t10 10 10-10-10-10zm39-23q-10 0-10 10t10 10 10-10-10-10zm32-28q-10 0-10 10t10 10 10-10-10-10zm49-69q-10 0-10 10t10 10 10-10-10-10zm15-37q-10 0-10 10t10 10 10-10-10-10zm12-77q-10 0-10 10t10 10 10-10-10-10zm-48 149q-10 0-10 10t10 10 10-10-10-10zm43-110q-10 0-10 10t10 10 10-10-10-10zm-275 208q-10 0-10 10t10 10 10-10-10-10zm-40-13q-10 0-10 10t10 10 10-10-10-10zm-39-23q-10 0-10 10t10 10 10-10-10-10zm-32-28q-10 0-10 10t10 10 10-10-10-10zm-49-69q-10 0-10 10t10 10 10-10-10-10zm-15-37q-10 0-10 10t10 10 10-10-10-10zm-12-77q-10 0-10 10t10 10 10-10-10-10zm48 149q-10 0-10 10t10 10 10-10-10-10zm-44-109q-10 0-10 10t10 10 10-10-10-10zm230-275q10 0 10-10t-10-10-10 10 10 10zm47 5q10 0 10-10t-10-10-10 10 10 10zm44 14q10 0 10-10t-10-10-10 10 10 10zm38 21q10 0 10-10t-10-10-10 10 10 10zm32 28q10 0 10-10t-10-10-10 10 10 10zm28 34q10 0 10-10t-10-10-10 10 10 10zm-237-95q10 0 10-10t-10-10-10 10 10 10zm-39 15q10 0 10-10t-10-10-10 10 10 10zm-39 23q10 0 10-10t-10-10-10 10 10 10zm-32 28q10 0 10-10t-10-10-10 10 10 10zm-49 69q10 0 10-10t-10-10-10 10 10 10zm-15 37q10 0 10-10t-10-10-10 10 10 10zm36-72q10 0 10-10t-10-10-10 10 10 10zm-44 109q10 0 10-10t-10-10-10 10 10 10zm424 19q-10 0-10 10t10 10 10-10-10-10zm-45 0q-10 0-10 10t10 10 10-10-10-10zm-41 0q-10 0-10 10t10 10 10-10-10-10zm-40 0q-10 0-10 10t10 10 10-10-10-10zm-42 0q-10 0-10 10t10 10 10-10-10-10zm-43 0q-10 0-10 10t10 10 10-10-10-10zm-46 0q-10 0-10 10t10 10 10-10-10-10zm-45 0q-10 0-10 10t10 10 10-10-10-10zm-44 0q-10 0-10 10t10 10 10-10-10-10zm-41 0q-10 0-10 10t10 10 10-10-10-10z"/><path transform="translate(32.016 14.688) scale(.016 -.016)" d="m61 463q-10 0-10 10t10 10 10-10-10-10zm15-37q-10 0-10 10t10 10 10-10-10-10zm16-36q-10 0-10 10t10 10 10-10-10-10zm16-38q-10 0-10 10t10 10 10-10-10-10zm18-40q-10 0-10 10t10 10 10-10-10-10zm17-40q-10 0-10 10t10 10 10-10-10-10zm15-36q-10 0-10 10t10 10 10-10-10-10zm16-38q-10 0-10 10t10 10 10-10-10-10zm18-40q-10 0-10 10t10 10 10-10-10-10zm16-41q-10 0-10 10t10 10 10-10-10-10zm16-39q-10 0-10 10t10 10 10-10-10-10zm39-78q-10 0-10 10t10 10 10-10-10-10zm-21 40q-10 0-10 10t10 10 10-10-10-10zm-196 460q-10 0-10 10t10 10 10-10-10-10zm418-37q-10 0-10 10t10 10 10-10-10-10zm-15-37q-10 0-10 10t10 10 10-10-10-10zm-16-36q-10 0-10 10t10 10 10-10-10-10zm-16-38q-10 0-10 10t10 10 10-10-10-10zm-18-40q-10 0-10 10t10 10 10-10-10-10zm-17-40q-10 0-10 10t10 10 10-10-10-10zm-15-36q-10 0-10 10t10 10 10-10-10-10zm-16-38q-10 0-10 10t10 10 10-10-10-10zm-18-40q-10 0-10 10t10 10 10-10-10-10zm-16-41q-10 0-10 10t10 10 10-10-10-10zm-16-39q-10 0-10 10t10 10 10-10-10-10zm-18-38q-10 0-10 10t10 10 10-10-10-10zm196 460q-10 0-10 10t10 10 10-10-10-10zm-145-37q-10 0-10 10t10 10 10-10-10-10zm15-37q-10 0-10 10t10 10 10-10-10-10zm16-36q-10 0-10 10t10 10 10-10-10-10zm16-38q-10 0-10 10t10 10 10-10-10-10zm35-80q-10 0-10 10t10 10 10-10-10-10zm15-36q-10 0-10 10t10 10 10-10-10-10zm16-38q-10 0-10 10t10 10 10-10-10-10zm18-40q-10 0-10 10t10 10 10-10-10-10zm16-41q-10 0-10 10t10 10 10-10-10-10zm16-39q-10 0-10 10t10 10 10-10-10-10zm39-78q-10 0-10 10t10 10 10-10-10-10zm-21 40q-10 0-10 10t10 10 10-10-10-10zm-196 460q-10 0-10 10t10 10 10-10-10-10zm418-37q-10 0-10 10t10 10 10-10-10-10zm-15-37q-10 0-10 10t10 10 10-10-10-10zm-16-36q-10 0-10 10t10 10 10-10-10-10zm-16-38q-10 0-10 10t10 10 10-10-10-10zm-18-40q-10 0-10 10t10 10 10-10-10-10zm-17-40q-10 0-10 10t10 10 10-10-10-10zm-15-36q-10 0-10 10t10 10 10-10-10-10zm-16-38q-10 0-10 10t10 10 10-10-10-10zm-18-40q-10 0-10 10t10 10 10-10-10-10zm-16-41q-10 0-10 10t10 10 10-10-10-10zm-16-39q-10 0-10 10t10 10 10-10-10-10zm-18-38q-10 0-10 10t10 10 10-10-10-10zm196 460q-10 0-10 10t10 10 10-10-10-10z"/><path transform="translate(44.816 14.688) scale(.016 -.016)" d="m200 496q-10 0-10 10t10 10 10-10-10-10zm40 7q-10 0-10 10t10 10 10-10-10-10zm41 0q-10 0-10 10t10 10 10-10-10-10zm39-8q-10 0-10 10t10 10 10-10-10-10zm-193-29q-10 0-10 10t10 10 10-10-10-10zm229 12q-10 0-10 10t10 10 10-10-10-10zm32-25q-10 0-10 10t10 10 10-10-10-10zm24-33q-10 0-10 10t10 10 10-10-10-10zm16-37q-10 0-10 10t10 10 10-10-10-10zm7-40q-10 0-10 10t10 10 10-10-10-10zm2-40q-10 0-10 10t10 10 10-10-10-10zm-281-40q-10 0-10 10t10 10 10-10-10-10zm40 11q-10 0-10 10t10 10 10-10-10-10zm165-14q-10 0-10 10t10 10 10-10-10-10zm39-15q-10 0-10 10t10 10 10-10-10-10zm36 16q-10 0-10 10t10 10 10-10-10-10zm-351-41q-10 0-10 10t10 10 10-10-10-10zm351 0q-10 0-10 10t10 10 10-10-10-10zm-376-40q-10 0-10 10t10 10 10-10-10-10zm376 0q-10 0-10 10t10 10 10-10-10-10zm0-40q-10 0-10 10t10 10 10-10-10-10zm-376-40q-10 0-10 10t10 10 10-10-10-10zm373 0q-10 0-10 10t10 10 10-10-10-10zm-356-38q-10 0-10 10t10 10 10-10-10-10zm324 11q-10 0-10 10t10 10 10-10-10-10zm40-13q-10 0-10 10t10 10 10-10-10-10zm-337-28q-10 0-10 10t10 10 10-10-10-10zm232-8q-10 0-10 10t10 10 10-10-10-10zm33 20q-10 0-10 10t10 10 10-10-10-10zm85-19q-10 0-10 10t10 10 10-10-10-10zm-291 458q-10 0-10 10t10 10 10-10-10-10zm-70-38q-10 0-10 10t10 10 10-10-10-10zm386-445q-10 0-10 10t10 10 10-10-10-10zm-427 140q-10 0-10 10t10 10 10-10-10-10zm267 132q-10 0-10 10t10 10 10-10-10-10zm-39 4q-10 0-10 10t10 10 10-10-10-10zm-43 1q-10 0-10 10t10 10 10-10-10-10zm-119-32q-10 0-10 10t10 10 10-10-10-10zm20-236q-10 0-10 10t10 10 10-10-10-10zm37-12q-10 0-10 10t10 10 10-10-10-10zm40-3q-10 0-10 10t10 10 10-10-10-10zm45 4q-10 0-10 10t10 10 10-10-10-10zm40 10q-10 0-10 10t10 10 10-10-10-10z"/><path transform="translate(53.328 14.688) scale(.016 -.016)" d="m71 463q-10 0-10 10t10 10 10-10-10-10zm15-37q-10 0-10 10t10 10 10-10-10-10zm16-36q-10 0-10 10t10 10 10-10-10-10zm16-38q-10 0-10 10t10 10 10-10-10-10zm18-40q-10 0-10 10t10 10 10-10-10-10zm17-40q-10 0-10 10t10 10 10-10-10-10zm15-36q-10 0-10 10t10 10 10-10-10-10zm16-38q-10 0-10 10t10 10 10-10-10-10zm18-40q-10 0-10 10t10 10 10-10-10-10zm16-41q-10 0-10 10t10 10 10-10-10-10zm16-39q-10 0-10 10t10 10 10-10-10-10zm39-78q-10 0-10 10t10 10 10-10-10-10zm-21 40q-10 0-10 10t10 10 10-10-10-10zm-196 460q-10 0-10 10t10 10 10-10-10-10zm418-37q-10 0-10 10t10 10 10-10-10-10zm-15-37q-10 0-10 10t10 10 10-10-10-10zm-16-36q-10 0-10 10t10 10 10-10-10-10zm-16-38q-10 0-10 10t10 10 10-10-10-10zm-18-40q-10 0-10 10t10 10 10-10-10-10zm-17-40q-10 0-10 10t10 10 10-10-10-10zm-15-36q-10 0-10 10t10 10 10-10-10-10zm-16-38q-10 0-10 10t10 10 10-10-10-10zm-18-40q-10 0-10 10t10 10 10-10-10-10zm-16-41q-10 0-10 10t10 10 10-10-10-10zm-16-39q-10 0-10 10t10 10 10-10-10-10zm-18-38q-10 0-10 10t10 10 10-10-10-10zm196 460q-10 0-10 10t10 10 10-10-10-10zm-357-713q-10 0-10 10t10 10 10-10-10-10zm37 10q-10 0-10 10t10 10 10-10-10-10zm27 26q-10 0-10 10t10 10 10-10-10-10zm18 34q-10 0-10 10t10 10 10-10-10-10zm17 35q-10 0-10 10t10 10 10-10-10-10zm14 34q-10 0-10 10t10 10 10-10-10-10zm16 36q-10 0-10 10t10 10 10-10-10-10z"/><path transform="translate(66.224 14.688) scale(.016 -.016)" d="m116 211q-10 0-10 10t10 10 10-10-10-10zm0-41q-10 0-10 10t10 10 10-10-10-10zm0-41q-10 0-10 10t10 10 10-10-10-10zm0-41q-10 0-10 10t10 10 10-10-10-10zm0 441q-10 0-10 10t10 10 10-10-10-10zm0-39q-10 0-10 10t10 10 10-10-10-10zm0-43q-10 0-10 10t10 10 10-10-10-10zm0-80q-10 0-10 10t10 10 10-10-10-10zm0-37q-10 0-10 10t10 10 10-10-10-10zm0-40q-10 0-10 10t10 10 10-10-10-10zm0-40q-10 0-10 10t10 10 10-10-10-10zm0 430q-10 0-10 10t10 10 10-10-10-10zm0-37q-10 0-10 10t10 10 10-10-10-10zm0-38q-10 0-10 10t10 10 10-10-10-10zm0-36q-10 0-10 10t10 10 10-10-10-10zm0-162q-10 0-10 10t10 10 10-10-10-10zm0-359q-10 0-10 10t10 10 10-10-10-10zm0-40q-10 0-10 10t10 10 10-10-10-10zm33-2q-10 0-10 10t10 10 10-10-10-10zm35 0q-10 0-10 10t10 10 10-10-10-10zm35 0q-10 0-10 10t10 10 10-10-10-10zm35 0q-10 0-10 10t10 10 10-10-10-10zm37 0q-10 0-10 10t10 10 10-10-10-10zm38 0q-10 0-10 10t10 10 10-10-10-10zm38 1q-10 0-10 10t10 10 10-10-10-10zm39 5q-10 0-10 10t10 10 10-10-10-10zm42 10q-10 0-10 10t10 10 10-10-10-10zm-299 661q-10 0-10 10t10 10 10-10-10-10zm35 0q-10 0-10 10t10 10 10-10-10-10zm35 0q-10 0-10 10t10 10 10-10-10-10zm35 0q-10 0-10 10t10 10 10-10-10-10zm35 0q-10 0-10 10t10 10 10-10-10-10zm35 0q-10 0-10 10t10 10 10-10-10-10zm35-1q-10 0-10 10t10 10 10-10-10-10zm35-3q-10 0-10 10t10 10 10-10-10-10zm35-6q-10 0-10 10t10 10 10-10-10-10zm57-635q-10 0-10 10t10 10 10-10-10-10zm-23 623q-10 0-10 10t10 10 10-10-10-10zm31-15q-10 0-10 10t10 10 10-10-10-10zm31-19q-10 0-10 10t10 10 10-10-10-10zm27-24q-10 0-10 10t10 10 10-10-10-10zm24-28q-10 0-10 10t10 10 10-10-10-10zm22-29q-10 0-10 10t10 10 10-10-10-10zm16-33q-10 0-10 10t10 10 10-10-10-10zm12-35q-10 0-10 10t10 10 10-10-10-10zm10-35q-10 0-10 10t10 10 10-10-10-10zm8-35q-10 0-10 10t10 10 10-10-10-10zm4-37q-10 0-10 10t10 10 10-10-10-10zm1-39q-10 0-10 10t10 10 10-10-10-10zm-1-37q-10 0-10 10t10 10 10-10-10-10zm-5-35q-10 0-10 10t10 10 10-10-10-10zm-9-37q-10 0-10 10t10 10 10-10-10-10zm-14-37q-10 0-10 10t10 10 10-10-10-10zm-18-34q-10 0-10 10t10 10 10-10-10-10zm-21-37q-10 0-10 10t10 10 10-10-10-10zm-28-31q-10 0-10 10t10 10 10-10-10-10zm-32-25q-10 0-10 10t10 10 10-10-10-10z"/><path transform="translate(77.712 14.688) scale(.016 -.016)" d="m296 504q-10 0-10 10t10 10 10-10-10-10zm46-7q-10 0-10 10t10 10 10-10-10-10zm40-13q-10 0-10 10t10 10 10-10-10-10zm39-23q-10 0-10 10t10 10 10-10-10-10zm32-28q-10 0-10 10t10 10 10-10-10-10zm49-69q-10 0-10 10t10 10 10-10-10-10zm15-37q-10 0-10 10t10 10 10-10-10-10zm12-77q-10 0-10 10t10 10 10-10-10-10zm-48 149q-10 0-10 10t10 10 10-10-10-10zm43-110q-10 0-10 10t10 10 10-10-10-10zm-275 208q-10 0-10 10t10 10 10-10-10-10zm-40-13q-10 0-10 10t10 10 10-10-10-10zm-39-23q-10 0-10 10t10 10 10-10-10-10zm-32-28q-10 0-10 10t10 10 10-10-10-10zm-49-69q-10 0-10 10t10 10 10-10-10-10zm-15-37q-10 0-10 10t10 10 10-10-10-10zm-12-77q-10 0-10 10t10 10 10-10-10-10zm48 149q-10 0-10 10t10 10 10-10-10-10zm-44-109q-10 0-10 10t10 10 10-10-10-10zm230-273q10 0 10-10t-10-10-10 10 10 10zm46 7q10 0 10-10t-10-10-10 10 10 10zm40 13q10 0 10-10t-10-10-10 10 10 10zm39 23q10 0 10-10t-10-10-10 10 10 10zm32 28q10 0 10-10t-10-10-10 10 10 10zm49 69q10 0 10-10t-10-10-10 10 10 10zm15 37q10 0 10-10t-10-10-10 10 10 10zm-36-72q10 0 10-10t-10-10-10 10 10 10zm44 109q10 0 10-10t-10-10-10 10 10 10zm-276-207q10 0 10-10t-10-10-10 10 10 10zm-40 13q10 0 10-10t-10-10-10 10 10 10zm-39 23q10 0 10-10t-10-10-10 10 10 10zm-32 28q10 0 10-10t-10-10-10 10 10 10zm-49 69q10 0 10-10t-10-10-10 10 10 10zm-15 37q10 0 10-10t-10-10-10 10 10 10zm36-72q10 0 10-10t-10-10-10 10 10 10zm-44 109q10 0 10-10t-10-10-10 10 10 10z"/><path transform="translate(87.152 14.688) scale(.016 -.016)" d="m251 10q-10 0-10 10t10 10 10-10-10-10zm-133 231q-10 0-10 10t10 10 10-10-10-10zm0-40q-10 0-10 10t10 10 10-10-10-10zm0-40q-10 0-10 10t10 10 10-10-10-10zm0-40q-10 0-10 10t10 10 10-10-10-10zm0-40q-10 0-10 10t10 10 10-10-10-10zm6-38q-10 0-10 10t10 10 10-10-10-10zm22-29q-10 0-10 10t10 10 10-10-10-10zm-28 543q-10 0-10 10t10 10 10-10-10-10zm0-42q-10 0-10 10t10 10 10-10-10-10zm0-38q-10 0-10 10t10 10 10-10-10-10zm0-80q-10 0-10 10t10 10 10-10-10-10zm0-37q-10 0-10 10t10 10 10-10-10-10zm0-40q-10 0-10 10t10 10 10-10-10-10zm0-40q-10 0-10 10t10 10 10-10-10-10zm0 393q-10 0-10 10t10 10 10-10-10-10zm0-38q-10 0-10 10t10 10 10-10-10-10zm0-38q-10 0-10 10t10 10 10-10-10-10zm0-160q-10 0-10 10t10 10 10-10-10-10zm62-436q-10 0-10 10t10 10 10-10-10-10zm36 0q-10 0-10 10t10 10 10-10-10-10zm67 23q-10 0-10 10t10 10 10-10-10-10zm-208 473q-10 0-10 10t10 10 10-10-10-10zm-37 0q-10 0-10 10t10 10 10-10-10-10zm118 0q-10 0-10 10t10 10 10-10-10-10zm38 0q-10 0-10 10t10 10 10-10-10-10zm40 0q-10 0-10 10t10 10 10-10-10-10z"/><path transform="translate(92.048 14.688) scale(.016 -.016)" d="m230 505q-10 0-10 10t10 10 10-10-10-10zm42-1q-10 0-10 10t10 10 10-10-10-10zm38-7q-10 0-10 10t10 10 10-10-10-10zm34-13q-10 0-10 10t10 10 10-10-10-10zm59-40q-10 0-10 10t10 10 10-10-10-10zm-215 54q-10 0-10 10t10 10 10-10-10-10zm-40-14q-10 0-10 10t10 10 10-10-10-10zm-33-21q-10 0-10 10t10 10 10-10-10-10zm-24-32q-10 0-10 10t10 10 10-10-10-10zm-14-38q-10 0-10 10t10 10 10-10-10-10zm162-379q10 0 10-10t-10-10-10 10 10 10zm43 3q10 0 10-10t-10-10-10 10 10 10zm39 11q10 0 10-10t-10-10-10 10 10 10zm34 15q10 0 10-10t-10-10-10 10 10 10zm31 26q10 0 10-10t-10-10-10 10 10 10zm31 73q10 0 10-10t-10-10-10 10 10 10zm-5 42q10 0 10-10t-10-10-10 10 10 10zm-3-82q10 0 10-10t-10-10-10 10 10 10zm-19 115q10 0 10-10t-10-10-10 10 10 10zm-196-200q10 0 10-10t-10-10-10 10 10 10zm-42 10q10 0 10-10t-10-10-10 10 10 10zm-37 15q10 0 10-10t-10-10-10 10 10 10zm-34 21q10 0 10-10t-10-10-10 10 10 10zm-29 25q10 0 10-10t-10-10-10 10 10 10zm305 151q10 0 10-10t-10-10-10 10 10 10zm-35 14q10 0 10-10t-10-10-10 10 10 10zm-36 11q10 0 10-10t-10-10-10 10 10 10zm-37 9q10 0 10-10t-10-10-10 10 10 10zm-37 9q10 0 10-10t-10-10-10 10 10 10zm-36 9q10 0 10-10t-10-10-10 10 10 10zm-34 11q10 0 10-10t-10-10-10 10 10 10zm-32 15q10 0 10-10t-10-10-10 10 10 10zm-34 58q10 0 10-10t-10-10-10 10 10 10zm10-33q10 0 10-10t-10-10-10 10 10 10zm291 126q-10 0-10 10t10 10 10-10-10-10z"/></svg>