<svg width="41.922" height="17.57" viewBox="0 0 41.922 17.57" xmlns="http://www.w3.org/2000/svg"><path transform="translate(0 12.188) scale(.0078125 -.0078125)" d="m58 0-4 71 90 23q1 12 2 50t1.5 84.5 0.5 82.5v200q0 86-2.5 148.5t-7.5 69.5l-90 23 5 72h368q163 0 241.5-52t78.5-163q0-73-48-129.5t-128-84.5l143-198q81-113 181-140l-1-64q-23-5-45.5-7t-45.5-2q-120 0-201.5 56.5t-137.5 179.5l-67 150h-49v-59q0-54 2-121t3-96l78-23-3-71zm288 743q-1-9-2.5-76.5t-1.5-145.5v-68h40q68 0 110.5 43t42.5 114q0 133-138 133z"/><path transform="translate(6.9219 12.188) scale(.0078125 -.0078125)" d="m264-10q-65 0-112 27.5t-72 67-25 74.5q0 102 130 140l221 64v48q0 44-41 79.5t-92 35.5q-22 0-31-10.5t-11-39.5l-8-88q-70-14-116 5t-46 63q0 28 28.5 56.5t71 53.5 87 42 75.5 21q127 0 201-57t74-154l-4-192q0-72 11-97l93-17v-62l-94-40q-25-9-47-14.5t-42-5.5q-56 0-78 55l-14 37q-81-92-159-92zm75 127q38 0 68 30v136l-90-16q-65-8-65-64 0-32 26-59t61-27z"/><path transform="translate(12.445 12.188) scale(.0078125 -.0078125)" d="m26 0-5 64 88 25q1 10 3.5 50.5t3.5 89.5l1 106q-1 72-11 142l-90 20v64l250 65 41-25-9-82 4-2q45 59 94.5 85.5t102.5 26.5q55 0 102.5-26.5t76.5-81.5q92 108 206 108 101 0 164.5-66t63.5-187l2-145q0-47 1.5-89t5.5-53l87-25-4-64h-350l-4 64 72 25q3 21 5 63.5t2 77.5l-4 115q0 83-33 116t-82 33q-65 0-107-47 6-33 6-71l2-145q0-47 1.5-89t5.5-53l74-25-4-64h-336l-5 64 71 25q3 21 5 62.5t2 78.5l-2 130q0 74-30.5 104t-77.5 30q-31 0-61-15.5t-50-44.5v-205q0-46 1.5-87.5t5.5-52.5l77-25-4-64z"/><path transform="translate(22.008 12.188) scale(.0078125 -.0078125)" d="m274-10q-128 0-217 46l-7 166h93l30-101q52-31 111-31 86 0 86 61 0 32-24 54t-101 50q-103 38-144 83t-41 112q0 88 79 143.5t205 55.5q46 0 92-9t77-23l16-165h-92l-30 101q-33 18-73 18-42 0-67-18t-25-48q0-33 31-55.5t113-55.5q92-37 131.5-80.5t39.5-106.5q0-90-78.5-143.5t-204.5-53.5z"/><path transform="translate(26.625 12.188) scale(.0078125 -.0078125)" d="m214 736q-58 0-91.5 35.5t-33.5 81.5q0 47 33.5 82t91.5 35q59 0 90.5-35t31.5-82q0-46-31.5-81.5t-90.5-35.5zm-194-736-4 67 93 22q1 9 3.5 50t3.5 90l1 104q0 43-3 75.5t-8 68.5l-95 20v64l262 65 40-25q-4-45-6.5-90.5t-2.5-102.5v-179q0-46 2.5-87.5t5.5-52.5l93-22-4-67z"/><path transform="translate(29.914 12.188) scale(.0078125 -.0078125)" d="m25 0-5 64 87 25q2 10 4 50.5t3 89.5l2 107q0 43-3 74t-9 67l-90 20v64l252 65 39-25-8-84 4-1q87 113 208 113 91 0 151.5-66.5t60.5-186.5v-145q0-47 1.5-89t5.5-53l86-25-4-64h-356l-4 64 78 25q3 21 5 62.5t2 78.5v115q0 80-34.5 114.5t-81.5 34.5q-70 0-117-60v-205q0-46 2-87.5t5-52.5l84-25-4-64z"/><path transform="translate(36.398 12.188) scale(.0078125 -.0078125)" d="m264-10q-65 0-112 27.5t-72 67-25 74.5q0 102 130 140l221 64v48q0 44-41 79.5t-92 35.5q-22 0-31-10.5t-11-39.5l-8-88q-70-14-116 5t-46 63q0 28 28.5 56.5t71 53.5 87 42 75.5 21q127 0 201-57t74-154l-4-192q0-72 11-97l93-17v-62l-94-40q-25-9-47-14.5t-42-5.5q-56 0-78 55l-14 37q-81-92-159-92zm75 127q38 0 68 30v136l-90-16q-65-8-65-64 0-32 26-59t61-27z"/></svg>