<svg width="35.422" height="19.5" viewBox="0 0 35.422 19.5" xmlns="http://www.w3.org/2000/svg"><path transform="translate(0 14.359) scale(.015625 -.015625)" d="m303 103q-10 31-19.5 55t-16.5 41q-39-13-85-18 0-64 3-109 1-28 2.5-47.5t3-33.5 3.5-25.5 6-22.5q-20-15-38.5-22t-32.5-10q-17-4-30-2-5 14-9 29.5t-5.5 42-1.5 67.5 3 105q1 7 1 14t1 14q-9 1-18.5 2t-18.5 2q-6 16-8 28.5t-2 20.5q0 10 2 16 16-3 32-3h15q2 42 4 85.5t3.5 85 2.5 79 2 68.5q-30-20-52-52t-30-74q-13 2-22 12.5t-15 21.5q-7 13-12 29-5 19 0 38.5t15 37 23 31 25 21.5q21 13 43.5 23.5t50.5 17.5q11 11 24.5 20t25.5 11q17 4 19-21 9 1 19 1.5t21 0.5q38 0 79-12t75.5-38.5 56.5-69 22-103.5q0-69-32.5-127t-92.5-96q7-18 18-45t22-61q16-42 34.5-78.5t38.5-63.5 42-43.5 44-19.5q-13-20-30-28t-34-10q-19-3-40 0-29 6-50 28t-36.5 53-28 66.5-22.5 67.5zm-116 426q0-22-1-53t-1.5-67-1.5-75.5-1-78.5q27 4 59.5 13t60.5 30 47 56 19 90q0 42-14.5 71.5t-37.5 48-50.5 27-54.5 8.5q-5 0-10 0t-11-1q-3-32-3-69z"/><path transform="translate(7.7031 14.359) scale(.015625 -.015625)" d="m321 51q2-7 6-13 3-5 8.5-9.5t13.5-5.5q-7-14-14-19-4-3-7-4-9-3-27-3t-35 11q-6 5-11 15-5 8-8.5 22.5t-5.5 37.5q-14-30-31.5-47.5t-34.5-25.5q-19-11-39-13-25-2-47.5 8.5t-38 32-23.5 52.5-5 70q3 41 16 73t31 57 38 42.5 38.5 29 32 17 17.5 6.5q11 3 19 2t14-9q2-3 5-7 2-4 5-10.5t5-14.5q-24-11-45-24.5t-38.5-32.5-30.5-46-20-66q-10-49 5.5-79t42.5-25q16 5 31 19 13 12 27.5 36t27.5 66q5 60 8.5 94.5t6.5 52.5q4 21 6 28 3 5 12 9.5t20 7.5 20 3.5 12-0.5q2-1 2-24.5t-1.5-59-3.5-77-3.5-78.5-2-64.5 1.5-34.5z"/><path transform="translate(13.562 14.359) scale(.015625 -.015625)" d="m136 27q-1-6-10.5-12.5t-22-11.5-23.5-6.5-15 2.5-13 15-11 36q-2 26-2 65.5t-1 87.5v40q0 18-0.5 42t-1.5 50q9 5 18.5 9.5t17.5 7.5q9 4 17 6 21 6 32 7t13-7q1-6-1-29-2-20-5-60.5t-10-112.5q13 32 21.5 55t14.5 37q6 17 11 27 5 13 13 29t16.5 30 16 25 11.5 13q3 2 18 0t32-9.5 33-21 21-32.5q6-22 4.5-58t-5-74-5.5-72 4-52q2-10 6-18 2-8 5.5-14.5t7.5-9.5q-24-11-39-16t-23-7q-10-3-14-2-9 3-15.5 15t-11.5 38q-2 8-1.5 26.5t2.5 42 4.5 49 4 48 2.5 39 0 22.5q-5 18-14 25.5t-14 1.5q-13-15-27.5-48.5t-27.5-73-22-78.5-11-66z"/><path transform="translate(19.328 14.359) scale(.015625 -.015625)" d="m306 126q0-11-7.5-33.5t-24.5-45-43.5-39.5-64.5-17q-54 0-90.5 29.5t-51.5 84.5q-12 46-6.5 98.5t28.5 97.5 64 76.5 100 34.5q30 1 50-11t31-31 13-41.5-4.5-42.5-20-33.5-34.5-14.5q-21-2-34.5 5.5t-21 18.5-10 23-0.5 21q3 13 10 24 6 10 17.5 20t30.5 16q-3 2-6 2t-6 1q-4 0-6 1-16 0-36.5-11t-39-35-31-61.5-12.5-90.5q0-23 5-45.5t15.5-40 26-28 36.5-10.5q24 0 42.5 10.5t31.5 24.5 20.5 28 10.5 21q3 6 10.5 6t7.5-12z"/><path transform="translate(24.516 14.359) scale(.015625 -.015625)" d="m116 157q12 36 20.5 61t14.5 40q7 18 12 29 6 16 13.5 32t15.5 29.5 15 22.5 12 12q4 2 18.5 0t32-9.5 33-20.5 21.5-32q6-23 4-60t-5.5-76-5-74 4.5-53q4-10 8-20 4-8 9.5-16.5t12.5-14.5q-29-11-46.5-16.5t-26.5-7.5q-11-3-15-1-8 3-15 15t-12 38q-2 8-1 28t3 45 4 52.5 4 51.5 2.5 42-0.5 24q-5 17-14 24.5t-14 1.5q-12-15-26.5-51.5t-27.5-79-22.5-84.5-11.5-69q0-6-9.5-12.5t-21-11.5-22.5-6.5-15 3.5q-3 3-12.5 14t-10.5 37q-2 25 0 68.5t1 91.5v74q0 45-0.5 124.5t-1.5 210.5q11 6 20 10.5t17 7.5q9 4 17 6 43 11 45 0 1-10-2-64-1-23-3-58t-4.5-85-6-117.5-8.5-155.5z"/><path transform="translate(30.266 14.359) scale(.015625 -.015625)" d="m308 172q-2-39-13.5-72t-31.5-57.5-47.5-38.5-60.5-15q-29-1-54.5 14t-44.5 42-28.5 64.5-5.5 81.5q3 51 19 87.5t34 60.5 33.5 35.5 19.5 13.5q7 3 13 1.5t13-3.5q2-1 4-5 4-7 5-26 5 11 13 18t16 10q10 4 20 5 7 1 24.5-11t34-38 28.5-67.5 9-99.5zm-68 12q1 24-1.5 48.5t-8 45-13.5 33-16 12.5q-9-2-20-9-9-6-20-19t-21-37q-1 3-2 11-1 7-1.5 18.5t1.5 31.5q-14-17-21.5-40t-11.5-44q-4-25-6-50-1-27 2.5-53t12-46 20.5-32 29-11 30 14 23 33 16 45 8 49z"/></svg>