<svg width="25.676" height="14" viewBox="0 0 25.676 14" xmlns="http://www.w3.org/2000/svg"><path transform="translate(0 10.192) scale(.014 -.014)" d="m40 0v37l57 11q20 3 20 22v428q0 19-20 22l-57 12v37h117q32 0 60 3t64 3q110 0 156-37t46-114q0-47-14-77.5t-36-48.5-45.5-26.5-42.5-11.5l-33-9q-40 0-75.5 0t-53.5 0v42q15-2 37-2.5t42.5-0.5 29.5 0q46 1 75.5 31.5t29.5 97.5q0 37-12 62.5t-40 39-77 13.5q-22 0-41.5-2t-29.5-2v-460q0-18 21-22l61-11v-37zm403 0q-17 0-31.5 24t-33.5 64l-36 78q-18 37-35 64t-35 34l62 12q32-13 53-36t41-62l54-106q7-13 14-18t19-8l40-9v-37z"/><path transform="translate(7.938 10.192) scale(.014 -.014)" d="m152-8q-50 0-83.5 26t-33.5 75q0 42 24.5 66.5t61.5 35.5 75 14l98 8v-38l-85-8q-44-3-67.5-20t-23.5-51q0-27 15.5-42t46.5-15q33 0 65.5 15t49.5 37l9-19q-21-37-61.5-60.5t-90.5-23.5zm-105 346q15 42 60 64t103 22q73 0 109-36.5t36-111.5v-207q0-22 22-24l41-4v-34q-10-3-31-8t-39-5q-30 0-47.5 17t-21.5 50v204q0 56-22.5 78.5t-68.5 22.5q-34 0-65-11t-57-36z"/><path transform="translate(14.084 10.192) scale(.014 -.014)" d="m47 21q-4 30-3 58.5t4 53.5h42l15-55q5-22 17-30 10-6 29.5-13t46.5-7q38 0 57.5 17.5t19.5 47.5q0 23-13 37.5t-38 26.5-61 27q-49 20-80 45.5t-31 75.5q0 60 42.5 90.5t110.5 30.5q32 0 66-7t57-17q1-27-1-54t-7-53h-39l-12 50q-3 10-7 17t-13 12-21.5 9-29.5 5q-32 1-53-14t-21-47q0-24 14-39t35.5-24.5 45.5-18.5q34-13 64-29t48.5-41 18.5-63q0-58-45-90t-117-32q-43 0-80 10t-61 21z"/><path transform="translate(19.53 10.192) scale(.014 -.014)" d="m152-8q-50 0-83.5 26t-33.5 75q0 42 24.5 66.5t61.5 35.5 75 14l98 8v-38l-85-8q-44-3-67.5-20t-23.5-51q0-27 15.5-42t46.5-15q33 0 65.5 15t49.5 37l9-19q-21-37-61.5-60.5t-90.5-23.5zm-105 346q15 42 60 64t103 22q73 0 109-36.5t36-111.5v-207q0-22 22-24l41-4v-34q-10-3-31-8t-39-5q-30 0-47.5 17t-21.5 50v204q0 56-22.5 78.5t-68.5 22.5q-34 0-65-11t-57-36z"/></svg>