<svg width="71.928" height="22.176" viewBox="0 0 71.928 22.176" xmlns="http://www.w3.org/2000/svg"><path transform="translate(0 12.824) scale(.013672 -.013672)" d="m254 208q-14-5-23-5l-22-206-82-8-47 527q43 14 115 25.5t138 11.5q105 0 168-39 14-44 14-81 0-103-118-171l137-261-57-32zm103 202q0 58-51 90-20 0-44-9l-25-236q57 26 88.5 69t31.5 86z"/><path transform="translate(7.8477 12.824) scale(.013672 -.013672)" d="m110-19q-14 0-20 1-28 19-44.5 56t-16.5 83.5 39.5 70 145.5 23.5q39 0 83-5l-2 18q-3 33-31 52t-71.5 19-86.5-27l-36 118q70 29 160 29t142.5-40.5 52.5-126.5q0-20-2-31l-22-226-82-7-12 118h-6q-28-59-77.5-92t-113.5-33zm190 194-43 1q-54 0-89-6-11-23-11-41t4.5-34.5 10.5-21.5q98 15 128 102z"/><path transform="translate(14.328 12.824) scale(.013672 -.013672)" d="m200 420 54-314h7l105 312 67-18-160-402-67-10-181 406z"/><path transform="translate(20.562 12.824) scale(.013672 -.013672)" d="m99-12-41 406 175 26-53-425zm-15.5 496.5q-22.5 22.5-22.5 54t22.5 53.5 53.5 22 53.5-22 22.5-53.5-22.5-54-53.5-22.5-53.5 22.5z"/><path transform="translate(27.863 12.824) scale(.013672 -.013672)" d="m80 516q114 37 232 37t180-39q14-44 15-84 0-94-78-158t-200-92l-20-183-82-8zm269-110q0 63-51 94-14 0-36-6l-28-258q54 30 84.5 77t30.5 93z"/><path transform="translate(34.904 12.824) scale(.013672 -.013672)" d="m314 270q-56 0-84.5-39t-42.5-143l-11-93-81-7-41 406 175 27-17-131h6q66 141 167 150l-23-174q-30 4-48 4z"/><path transform="translate(40.154 12.824) scale(.013672 -.013672)" d="m110-19q-14 0-20 1-28 19-44.5 56t-16.5 83.5 39.5 70 145.5 23.5q39 0 83-5l-2 18q-3 33-31 52t-71.5 19-86.5-27l-36 118q70 29 160 29t142.5-40.5 52.5-126.5q0-20-2-31l-22-226-82-7-12 118h-6q-28-59-77.5-92t-113.5-33zm190 194-43 1q-54 0-89-6-11-23-11-41t4.5-34.5 10.5-21.5q98 15 128 102z"/><path transform="translate(46.635 12.824) scale(.013672 -.013672)" d="m431 397-127-133 178-266-156-10-102 191-30-28-14-156-81-7-41 571 175 27-31-353 174 206z"/><path transform="translate(53.32 12.824) scale(.013672 -.013672)" d="m110-19q-14 0-20 1-28 19-44.5 56t-16.5 83.5 39.5 70 145.5 23.5q39 0 83-5l-2 18q-3 33-31 52t-71.5 19-86.5-27l-36 118q70 29 160 29t142.5-40.5 52.5-126.5q0-20-2-31l-22-226-82-7-12 118h-6q-28-59-77.5-92t-113.5-33zm190 194-43 1q-54 0-89-6-11-23-11-41t4.5-34.5 10.5-21.5q98 15 128 102z"/><path transform="translate(59.801 12.824) scale(.013672 -.013672)" d="m49 270q0 105 111 192l134-91q-91-58-91-122 0-34 37.5-88t37.5-84q0-107-148-166l-36 49q65 35 65 76.5t-55 102.5q-21 23-38 58.5t-17 72.5z"/><path transform="translate(64.49 12.824) scale(.013672 -.013672)" d="m384 429q14 0 30-6 42-50 57-175t15-248l-147-12q0 189-13 343-109-40-146-336l-81-7-41 571 175 27-31-337h8q34 82 79 131t95 49z"/></svg>