<svg width="48" height="16" viewBox="0 0 48 16" xmlns="http://www.w3.org/2000/svg"><path transform="translate(0 12.8) scale(.016 -.016)" d="M400 800V-200H0V800Z"/><path transform="translate(6 12.8) scale(.016 -.016)" d="M400 800V-200H0V800Z"/><path transform="translate(12 12.8) scale(.016 -.016)" d="M400 800V-200H0V800Z"/><path transform="translate(18 12.8) scale(.016 -.016)" d="M400 800V-200H0V800Z"/><path transform="translate(24 12.8) scale(.016 -.016)" d="M400 800V-200H0V800Z"/><path transform="translate(30 12.8) scale(.016 -.016)" d="M400 800V-200H0V800Z"/><path transform="translate(36 12.8) scale(.016 -.016)" d="M400 800V-200H0V800Z"/><path transform="translate(42 12.8) scale(.016 -.016)" d="M400 800V-200H0V800Z"/></svg>