<svg width="98.098" height="18.522" viewBox="0 0 98.098 18.522" xmlns="http://www.w3.org/2000/svg"><path transform="translate(0 14.252) scale(.014 -.014)" d="m77 0v700h300q69 0 120-25t79.5-70 28.5-106q0-69-40.5-118.5t-108.5-69.5l157-311h-85l-150 301h-224v-301zm77 366h218q71 0 113.5 36t42.5 97q0 60-42.5 96t-113.5 36h-218z"/><path transform="translate(9.03 14.252) scale(.014 -.014)" d="m298-9q-72 0-130.5 34.5t-93 93.5-34.5 132q0 72 33 130.5t89 93 125 34.5q67 0 120.5-34.5t85-93 31.5-130.5v-23h-411q6-49 31.5-88t66.5-61.5 90-22.5q39 0 76 12t62 34l46-49q-42-31-87.5-46.5t-99.5-15.5zm-183 296h335q-6 45-29.5 80.5t-58.5 56-77 20.5q-43 0-79-20t-60-55.5-31-81.5z"/><path transform="translate(16.926 14.252) scale(.014 -.014)" d="m292-8q-70 0-127.5 34.5t-91 93-33.5 131.5 33.5 131 91 92.5 128.5 34.5q44 0 85-14.5t75-42.5v248l74 17v-717h-73v53q-66-61-162-61zm7 65q47 0 87.5 18.5t66.5 51.5v248q-26 32-66.5 50.5t-87.5 18.5q-52 0-94.5-25t-67-68.5-24.5-98.5 24.5-99 67-70 94.5-26z"/><path transform="translate(28.196 14.252) scale(.014 -.014)" d="M77 0V700H154V387H561V700H638V0H561V318H154V0Z"/><path transform="translate(38.206 14.252) scale(.014 -.014)" d="m221-9q-55 0-96.5 19t-65 53-23.5 79q0 71 54 112t146 41q81 0 147-34v66q0 60-34 90.5t-99 30.5q-37 0-74.5-10.5t-82.5-33.5l-28 57q54 26 100 38t92 12q95 0 146.5-45t51.5-129v-337h-72v49q-34-29-74.5-43.5t-87.5-14.5zm-114 153q0-42 35.5-68.5t91.5-26.5q45 0 82 14t67 44v94q-31 21-66 30.5t-79 9.5q-60 0-95.5-26.5t-35.5-70.5z"/><path transform="translate(45.43 14.252) scale(.014 -.014)" d="m260-10q-65 0-100 31t-35 90v327h-108v63h108v127l73 19v-146h151v-63h-151v-308q0-40 18-57.5t59-17.5q21 0 37.5 3t35.5 10v-65q-19-7-42.5-10t-45.5-3z"/><path transform="translate(53.55 14.252) scale(.014 -.014)" d="m154 70h158q61 0 113 21t91 59 60.5 89 21.5 111-21.5 111-60.5 89-91 59-113 21h-158zm-77-70v700h231q80 0 147-26t116.5-73 77-111 27.5-140-27-140-76.5-111-117-73-147.5-26z"/><path transform="translate(63.63 14.252) scale(.014 -.014)" d="m63 0v501h74v-501zm37 597q-20 0-35 15t-15 35q0 21 15 35.5t35 14.5q21 0 35.5-14.5t14.5-35.5q0-20-14.5-35t-35.5-15z"/><path transform="translate(66.43 14.252) scale(.014 -.014)" d="m223-10q-62 0-116.5 20.5t-94.5 57.5l45 48q35-32 77-49.5t86-17.5q60 0 98 25t38 65q0 33-22.5 51.5t-70.5 25.5l-87 12q-75 11-111.5 45t-36.5 92q0 42 24 75t66.5 52 97.5 19 103-16 94-50l-39-50q-42 29-81.5 42.5t-80.5 13.5q-52 0-84-23t-32-60q0-34 22-51.5t71-24.5l87-12q75-10 112.5-44t37.5-93q0-43-27-78t-72.5-55-103.5-20z"/><path transform="translate(72.674 14.252) scale(.014 -.014)" d="m63-204v705h73v-54q65 62 162 62 71 0 128-34.5t90.5-92.5 33.5-131-33.5-131.5-90.5-93-129-34.5q-44 0-85 15t-75 43v-254zm228 261q53 0 95 25.5t66.5 69 24.5 98.5-24.5 99-66.5 69.5-95 25.5q-47 0-87.5-18.5t-66.5-51.5v-248q26-32 67-50.5t87-18.5z"/><path transform="translate(80.934 14.252) scale(.014 -.014)" d="M63 0V700L137 717V0Z"/><path transform="translate(83.734 14.252) scale(.014 -.014)" d="m221-9q-55 0-96.5 19t-65 53-23.5 79q0 71 54 112t146 41q81 0 147-34v66q0 60-34 90.5t-99 30.5q-37 0-74.5-10.5t-82.5-33.5l-28 57q54 26 100 38t92 12q95 0 146.5-45t51.5-129v-337h-72v49q-34-29-74.5-43.5t-87.5-14.5zm-114 153q0-42 35.5-68.5t91.5-26.5q45 0 82 14t67 44v94q-31 21-66 30.5t-79 9.5q-60 0-95.5-26.5t-35.5-70.5z"/><path transform="translate(90.958 14.252) scale(.014 -.014)" d="m84-214q-14 0-26.5 1.5t-20.5 3.5v67q17-4 42-4 66 0 100 78l30 69-204 500h82l162-411 175 411h80l-250-579q-21-48-45-78t-54.5-44-70.5-14z"/></svg>