<svg width="89.446" height="21" viewBox="0 0 89.446 21" xmlns="http://www.w3.org/2000/svg"><path transform="translate(0 15.4) scale(.014 -.014)" d="m300 725q76 0 135-26.5t92.5-77 33.5-124.5q0-43-13-85t-41.5-76-76-54.5-116.5-20.5h-107v-261h-104v725zm12-363q56 0 86.5 21.5t42.5 52 12 57.5q0 20-7 42.5t-22.5 43-41.5 33-64 12.5h-111v-262zm122-62 188-300h-122l-191 298z"/><path transform="translate(9.296 15.4) scale(.014 -.014)" d="m275-10q-72 0-124 28.5t-80 79-28 114.5q0 62 31.5 112.5t84.5 80.5 118 30q84 0 139.5-48.5t74.5-136.5l-341-118-24 58 274 100-21-14q-12 32-38 55.5t-71 23.5q-56 0-91.5-38.5t-35.5-98.5q0-64 38-103t96-39q27 0 52 9.5t47 25.5l46-75q-32-21-70.5-33.5t-76.5-12.5z"/><path transform="translate(16.646 15.4) scale(.014 -.014)" d="m275-10q-72 0-124 28.5t-80 79-28 114.5q0 62 31.5 112.5t84.5 80.5 118 30q84 0 139.5-48.5t74.5-136.5l-341-118-24 58 274 100-21-14q-12 32-38 55.5t-71 23.5q-56 0-91.5-38.5t-35.5-98.5q0-64 38-103t96-39q27 0 52 9.5t47 25.5l46-75q-32-21-70.5-33.5t-76.5-12.5z"/><path transform="translate(23.996 15.4) scale(.014 -.014)" d="m170 418 9-91-5 8q23 47 65.5 73.5t97.5 26.5q52 0 87-24t43-68l-5-4q25 45 67 70.5t88 25.5q62 0 98-34.5t37-90.5v-310h-100v272q-1 32-14.5 53t-48.5 23q-36 0-63.5-22t-43-57-16.5-75v-194h-101v272q-1 32-15.5 53t-49.5 23q-35 0-62.5-22t-42.5-57.5-15-75.5v-193h-101v418z"/><path transform="translate(37.45 15.4) scale(.014 -.014)" d="m209 439-3-36 14 20 286 302h136l-300-314 314-411h-133l-258 345-57-55 1-290h-106v725h106z"/><path transform="translate(47.012 15.4) scale(.014 -.014)" d="m213-17q-58 0-95 35t-39 90v310h101v-274q2-33 19-53t54-22q34 0 61 20.5t42.5 56.5 15.5 81v191h101v-418h-91l-8 98 4-16q-19-43-63.5-71t-101.5-28z"/><path transform="translate(54.74 15.4) scale(.014 -.014)" d="m114 0v328h-71v90h71v171q0 89 42.5 138.5t124.5 49.5q22 0 48.5-6.5t47.5-20.5l-43-73q-9 10-20.5 13.5t-22.5 3.5q-35 0-55.5-24.5t-20.5-82.5v-169h132v-90h-132v-328z"/><path transform="translate(60.172 15.4) scale(.014 -.014)" d="m79 418h101v-418h-101zm-5 150q0 23 18.5 39t40.5 16 40-16 18-39q0-25-18-40t-40-15-40.5 15-18.5 40z"/><path transform="translate(65.618 15.4) scale(.014 -.014)" d="M103 725H537V624H207V404H495V304H207V0H103Z"/><path transform="translate(73.892 15.4) scale(.014 -.014)" d="m213-17q-58 0-95 35t-39 90v310h101v-274q2-33 19-53t54-22q34 0 61 20.5t42.5 56.5 15.5 81v191h101v-418h-91l-8 98 4-16q-19-43-63.5-71t-101.5-28z"/><path transform="translate(81.62 15.4) scale(.014 -.014)" d="m170 418 9-97-4 14q20 45 64.5 72t104.5 27q59 0 97-34.5t39-90.5v-309h-101v274q-1 32-19 52.5t-56 21.5q-53 0-88.5-44t-35.5-113v-191h-101v418z"/></svg>