<svg width="94.784" height="20.832" viewBox="0 0 94.784 20.832" xmlns="http://www.w3.org/2000/svg"><path transform="translate(0 15.872) scale(.016 -.016)" d="m74 0v700h207q74 0 126-21.5t80-64.5 28-109q0-82-42.5-124t-115.5-55l201-326h-104l-180 310h-116v-310zm84 381h121q56 0 89 13.5t47 41.5 14 69q0 42-14 70t-47 41.5-89 13.5h-121z"/><path transform="translate(9.488 15.872) scale(.016 -.016)" d="m292-12q-69 0-124.5 32t-87.5 90.5-32 137.5q0 78 30.5 136.5t86 91 129.5 32.5q70 0 122-31t81.5-83.5 29.5-117.5q0-14 0-22t-1-25h-395q3-49 23.5-87.5t56-60.5 81.5-22q52 0 87 24t51 65h83q-13-46-43-82t-74.5-57-103.5-21zm-160 306h312q-3 67-46 105t-106 38q-60 0-106.5-36.5t-53.5-106.5z"/><path transform="translate(18.592 15.872) scale(.016 -.016)" d="m265 0q-68 0-107 33t-39 119v273h-86v71h86v119h84v-119h139v-71h-139v-273q0-47 19-63.5t67-16.5h53v-72z"/><path transform="translate(24.784 15.872) scale(.016 -.016)" d="m69 0v700h84v-289q25 46 71 71.5t100 25.5q86 0 138-53.5t52-164.5v-290h-83v281q0 77-31.5 116t-93.5 39q-65 0-109-46.5t-44-132.5v-257z"/><path transform="translate(33.936 15.872) scale(.016 -.016)" d="m120 606q-25 0-41.5 16.5t-16.5 41.5q0 24 16.5 40t41.5 16q24 0 41-16t17-40q0-25-17-41.5t-41-16.5zm-42-606v496h84v-496z"/><path transform="translate(37.76 15.872) scale(.016 -.016)" d="m69 0v496h76l5-89q24 47 69 74t102 27q88 0 140.5-53.5t52.5-164.5v-290h-84v281q0 77-32 116t-96 39-106.5-46.5-42.5-132.5v-257z"/><path transform="translate(46.928 15.872) scale(.016 -.016)" d="M69 0V700H153V287L356 496H459L239 272L487 0H380L153 257V0Z"/><path transform="translate(59.232 15.872) scale(.016 -.016)" d="m297-12q-71 0-128.5 26t-91 75.5-33.5 120.5h88q0-70 46-110.5t119-40.5q64 0 106.5 31t42.5 88q0 39-13.5 62.5t-40.5 39-68 29.5-97 33q-50 18-85.5 41t-54.5 56.5-19 80.5q-1 62 28.5 104.5t80 65 111.5 22.5q62 0 111.5-22.5t79.5-66 31-105.5h-88q0 53-38 87.5t-99 34.5q-54 2-92-27t-38-85q0-37 15.5-58.5t53.5-37.5 105-39q48-16 86-33.5t64-41 40-56 14-79.5q0-63-32.5-106.5t-86-66-117.5-22.5z"/><path transform="translate(68.48 15.872) scale(.016 -.016)" d="m234-12q-51 0-93 17t-66.5 51.5-24.5 84.5q0 58 30 92.5t79.5 50 106.5 15.5h134q0 52-17.5 82t-45.5 43-62 13q-49 0-84.5-23.5t-44.5-72.5h-86q5 54 36 91t78.5 56.5 100.5 19.5q75 0 121-27.5t67-73.5 21-102v-152q0-37 9-56t46-23v-74q-33 0-60 8.5t-45.5 28-26.5 51.5q-25-42-68.5-71t-104.5-29zm13 71q50 0 84 25.5t51.5 65.5 17.5 83v1h-127q-35 0-66-7.5t-50-27-19-54.5q0-45 32-65.5t77-20.5z"/><path transform="translate(77.616 15.872) scale(.016 -.016)" d="m69 0v496h76l5-89q24 47 69 74t102 27q88 0 140.5-53.5t52.5-164.5v-290h-84v281q0 77-32 116t-96 39-106.5-46.5-42.5-132.5v-257z"/><path transform="translate(86.784 15.872) scale(.016 -.016)" d="m259-12q-59 0-106 20.5t-75.5 58-35.5 88.5h86q8-39 41.5-67.5t90.5-28.5q53 0 78 22.5t25 53.5q0 30-14.5 46t-42 24.5-67.5 16.5q-42 9-82 24.5t-66 42.5-26 71 22 77 62.5 52 95.5 19q79 0 129.5-39.5t58.5-112.5h-83q-5 38-32.5 59.5t-73.5 21.5q-45 0-69.5-19t-24.5-50q0-20 14-34t40.5-24 62.5-18q50-10 91-25t66-43.5 25-81.5q1-44-22.5-79t-66-55-101.5-20z"/></svg>