<svg width="104.38" height="23.94" viewBox="0 0 104.38 23.94" xmlns="http://www.w3.org/2000/svg"><path transform="translate(0 15.4) scale(.014 -.014)" d="m691 55v-55h-115l-188 282h-173v-196l74-31v-55h-234v55l74 31v508l-74 29v57h399q97 0 147-50.5t50-148.5q0-87-41.5-136.5t-121.5-59.5l135-200zm-476 299h221q67 0 96 29.5t29 97.5q0 67-27.5 97t-87.5 30h-231z"/><path transform="translate(10.192 15.4) scale(.014 -.014)" d="m628 55v-55h-152v331q0 59-28.5 85.5t-83.5 26.5q-35 0-68.5-9t-97.5-32v-317l68-30v-55h-220v55l68 30v540l-68 28v57h152v-243q51 26 97.5 37.5t95.5 11.5q63 0 100-19.5t53-62 16-114.5v-235z"/><path transform="translate(19.474 15.4) scale(.014 -.014)" d="m549 251q0-138-69.5-201.5t-184.5-63.5-184.5 63.5-69.5 201.5 69.5 201.5 184.5 63.5 184.5-63.5 69.5-201.5zm-420 0q0-75 17.5-117t53-59 95.5-17 95.5 17 53 59 17.5 117-17.5 117-53 59-95.5 17-95.5-17-53-59-17.5-117z"/><path transform="translate(27.734 15.4) scale(.014 -.014)" d="m589 55v-55h-119l-26 72q-42-42-89.5-62t-109.5-20q-68 0-111.5 23.5t-65.5 80-22 155.5q0 141 54 204t154 63q46 0 90-13t93-42v164l-68 28v57h152v-625zm-327 8q93 0 175 65v274q-63 23-95.5 32t-67.5 9q-75 0-107.5-49.5t-32.5-152.5q0-69 13.5-108t41.5-54.5 73-15.5z"/><path transform="translate(36.47 15.4) scale(.014 -.014)" d="m216 652q0-33-18.5-51t-49.5-18-49.5 18-18.5 51 18.5 51 49.5 18 49.5-18 18.5-51zm-18-567 68-30v-55h-220v55l68 30v332l-68 28v57h152z"/><path transform="translate(40.684 15.4) scale(.014 -.014)" d="m613 57v-57h-111l-26 41q-58-29-107.5-42t-100.5-13q-64 0-100.5 19.5t-52.5 62-16 114.5v235l-68 30v55h152v-331q0-59 28.5-85.5t83.5-26.5q35 0 68.5 9t97.5 32v319l-68 28v55h152v-417z"/><path transform="translate(49.756 15.4) scale(.014 -.014)" d="m962 55v-55h-152v331q0 59-26 85.5t-77 26.5q-35 0-64.5-8.5t-96.5-32.5v-317l68-30v-55h-152v331q0 59-26 85.5t-77 26.5q-34 0-63.5-8.5t-97.5-32.5v-317l68-30v-55h-220v55l68 30v332l-68 28v57h111l26-41q59 30 106 42.5t97 12.5 83.5-14 55.5-44q60 31 108.5 44.5t100.5 13.5q60 0 95-19.5t50-62 15-114.5v-235z"/><path transform="translate(67.634 15.4) scale(.014 -.014)" d="M289 623 215 594V72H538L564 187H623V0H55V55L129 85V594L55 623V680H289Z"/><path transform="translate(76.636 15.4) scale(.014 -.014)" d="m216 652q0-33-18.5-51t-49.5-18-49.5 18-18.5 51 18.5 51 49.5 18 49.5-18 18.5-51zm-18-567 68-30v-55h-220v55l68 30v332l-68 28v57h152z"/><path transform="translate(80.85 15.4) scale(.014 -.014)" d="m579 249q0-99-22-155.5t-65.5-80-111.5-23.5q-62 0-109.5 20t-89.5 62l-26-72h-51v625l-68 28v57h152v-249q49 29 93 42t90 13q100 0 154-63t54-204zm-88-8q0 103-32.5 152.5t-107.5 49.5q-35 0-67.5-9t-95.5-32v-274q82-65 175-65 45 0 73 15.5t41.5 54.5 13.5 108z"/><path transform="translate(89.6 15.4) scale(.014 -.014)" d="m479 432q0-81-92-81l-40 90q-39-10-78.5-27.5t-70.5-37.5v-291l93-30v-55h-245v55l68 30v332l-68 28v57h111l38-60q50 37 102 56.5t98 19.5q44 0 64-21t20-65z"/><path transform="translate(96.656 15.4) scale(.014 -.014)" d="m521 264v-40h-392q5-67 24.5-102.5t57-49.5 103.5-14q95 0 188 23v-72q-39-10-91-16.5t-99-6.5q-133 0-202 60t-69 205q0 135 68 200t183 65q102 0 165.5-63.5t63.5-188.5zm-391 31h302q-6 74-41 111.5t-104 37.5q-78 0-114-35t-43-114z"/></svg>