<svg width="55.945" height="21.859" viewBox="0 0 55.945 21.859" xmlns="http://www.w3.org/2000/svg"><path transform="translate(0 16.641) scale(.0078125 -.0078125)" d="m1352 1024q0 70-23 122.5t-64.5 90.5-99.5 62.5-127 39-147.5 20-161.5 5.5q-23 0-42 0t-36-2l-18-680q38-8 83-11t93-3q59 0 122 7t123.5 23 114.5 42.5 94.5 66 64.5 93.5 24 124zm166-633q0-2 1-10.5t1-24.5q0-81-24.5-150t-69.5-118.5-109-77.5-143-28h-3q-73 2-128.5 24t-97 58.5-69.5 85.5-45 105.5-24.5 117.5-7.5 121q0 18 1 35.5t1 31.5q-45 0-87.5 4t-82.5 10l-15-518q0-24-15.5-37.5t-37.5-13.5q-1 0-40.5-0.5t-101.5-2.5-137-7-147-14h-6q-23 0-38 15.5t-15 35.5 12.5 35 32.5 18q37 5 75.5 8t75.5 6l23 1233q-74-12-112-21t-40-9q-7-5-14-5-23 0-38 16t-15 38q0 17 10 30.5t27 18.5q3 1 42 12t115.5 23 190 22 266.5 10q98-5 189.5-14t172.5-27.5 148-49 115.5-78.5 75-115.5 26.5-159.5q0-73-22.5-137.5t-62.5-117-96.5-91-123.5-60.5q-2-23-3-47t-1-49q0-21 1-59t5-83 12.5-92 23-85.5 36.5-63 53-24.5q40 0 66 27t42 65.5 22.5 79.5 6.5 69q0 11-1 18t-1 13q0 23 16.5 37t36.5 14 35-13.5 17-33.5z"/><path transform="translate(12.531 16.641) scale(.0078125 -.0078125)" d="m725-25q-2 0-4.5 1t-5.5 1q-81 16-154 23.5t-145 7.5q-73 0-145-7.5t-152-23.5q-3 0-5-1t-5-1q-23 0-37.5 17t-14.5 37q0 18 11.5 33t29.5 18q35 8 70.5 12.5t69.5 9.5v766q-63 3-106 8t-48 5q-20 3-32.5 18t-12.5 35q0 25 18 38t35 13h6q1 0 23-2.5t57.5-5.5 80.5-5.5 93-2.5 94 3.5 84 12.5h11q23 0 38-15.5t15-35.5l-2-832q35-5 70.5-9.5t72.5-12.5q19-3 31-18t12-33q0-23-17-38.5t-36-15.5zm-145 1315q0-37-14-69.5t-38.5-56.5-57-38-69.5-14-69.5 14-56.5 38-38 56.5-14 69.5 14 69.5 38 56.5 56.5 38 69.5 14 69.5-14 57-38 38.5-56.5 14-69.5z"/><path transform="translate(18.727 16.641) scale(.0078125 -.0078125)" d="m1044 537q0 78-14 146.5t-45.5 119.5-82.5 80.5-126 29.5q-42 0-79-14t-68.5-37-57-51-43.5-55.5-28.5-52-12.5-39.5q0-62 1.5-121t3.5-115q2-74 17.5-136.5t45.5-107.5 75.5-70.5 108.5-25.5q81 0 138.5 40t94.5 104 54.5 144 17.5 161zm105 0q0-128-37-239.5t-108-194.5-174-131-236-48q-96 0-178.5 33.5t-144 93.5-98 142-40.5 180q-2 62-3 158.5t-1 207.5q0 83 0.5 168t1 161.5 1 139.5 1.5 103q-83 0-135 7t-57 9q-19 3-31 18t-12 33q0 13 5.5 23t13.5 17 17 10.5 17 3.5q2 0 4 0t4-2q1 0 15-2t38-4.5 56.5-4.5 70.5-2q62 0 136 7.5t149 29.5q8 4 14 4 23 0 38.5-16.5t15.5-36.5v-2q0-1-1-44.5t-1.5-116-1.5-167.5-1-198q22 31 52.5 57t68 45 79.5 29 87 10q98 0 169-37.5t116.5-102.5 67.5-153 22-188z"/><path transform="translate(28.359 16.641) scale(.0078125 -.0078125)" d="m971 528v17q0 75-16 139t-50.5 113.5-88.5 81.5-130 43q-53-6-92-29t-66.5-56.5-45.5-75.5-28.5-86.5-15.5-89-6-83.5q16-5 40.5-11t55.5-11.5 67.5-9 76.5-3.5q85 0 159.5 16t139.5 45zm102-39q-3-26-28-45t-63-33.5-83.5-24-89.5-15.5-81-8.5-58-2.5q-73 0-134.5 10t-101.5 21q6-62 23-122t49-107.5 80-77 116-29.5q25 0 57 6.5t63 19 57 30 41 39.5q17 20 41 20 21 0 37-16.5t16-36.5q0-21-13-33-24-37-67-63t-93-42.5-101-24-93-7.5q-120 0-223 42.5t-179 116.5-119.5 174-43.5 216q0 127 38 226.5t108 168 170 104 225 35.5q118-5 203.5-40t140.5-97 81.5-149.5 26.5-196.5q0-25-1-39.5t-1-18.5z"/><path transform="translate(37.32 16.641) scale(.0078125 -.0078125)" d="m1243 1008q0-20-13.5-35t-33.5-17q-19-3-37.5-4.5t-38.5-3.5q-7-28-19.5-78.5t-29.5-115.5-36.5-141-40.5-155-43-157-42.5-147.5-39-126-33.5-93.5q-41-98-97.5-191.5t-130-166.5-164.5-117.5-200-44.5q-68 0-131 18.5t-111 55.5-77 90.5-29 124.5q0 45 12.5 89.5t37 79 60.5 56 84 21.5q37 0 69.5-14t56.5-38 38-56.5 14-69.5-14-69.5-38-57-56.5-38.5-69.5-14q-17 0-32 3t-29 8q23-29 53-46.5t65-17.5q44 0 84 26.5t75.5 68.5 65.5 94 54.5 104 42.5 98 29 76q8 22 15.5 46.5t16.5 51.5q-110 150-176 280t-102.5 235-49 182.5-14.5 122.5q-38 0-76.5 1.5t-76.5 6.5q-20 2-33.5 16.5t-13.5 34.5q0 22 16.5 37.5t36.5 15.5h6q35-5 71.5-6.5t74.5-1.5q58 0 117.5 4.5t121.5 14.5q4 2 8 2 23 0 38.5-17t15.5-37q0-18-12.5-33t-32.5-18q-41-6-79.5-10.5t-76.5-7.5q1-36 11.5-101t40-154 83-200 141.5-240q28 96 56.5 201.5t54 203.5 46 180 32.5 132q-20 2-41.5 3.5t-42.5 4.5q-20 2-33.5 17t-13.5 35q0 24 17 38.5t36 14.5h6q62-8 123.5-11t124.5-3q62 0 124.5 3t125.5 11h6q23 0 38-16.5t15-36.5z"/><path transform="translate(46.984 16.641) scale(.0078125 -.0078125)" d="m971 528v17q0 75-16 139t-50.5 113.5-88.5 81.5-130 43q-53-6-92-29t-66.5-56.5-45.5-75.5-28.5-86.5-15.5-89-6-83.5q16-5 40.5-11t55.5-11.5 67.5-9 76.5-3.5q85 0 159.5 16t139.5 45zm102-39q-3-26-28-45t-63-33.5-83.5-24-89.5-15.5-81-8.5-58-2.5q-73 0-134.5 10t-101.5 21q6-62 23-122t49-107.5 80-77 116-29.5q25 0 57 6.5t63 19 57 30 41 39.5q17 20 41 20 21 0 37-16.5t16-36.5q0-21-13-33-24-37-67-63t-93-42.5-101-24-93-7.5q-120 0-223 42.5t-179 116.5-119.5 174-43.5 216q0 127 38 226.5t108 168 170 104 225 35.5q118-5 203.5-40t140.5-97 81.5-149.5 26.5-196.5q0-25-1-39.5t-1-18.5z"/></svg>