<svg width="42.624" height="17.6" viewBox="0 0 42.624 17.6" xmlns="http://www.w3.org/2000/svg"><path transform="translate(0 13.6) scale(.016 -.016)" d="m292-15q-1 1-4 2t-8 2h-18q-2-1-8-1-1 1-3.5 2t-5.5 2l-10-1q-5-1-7.5-0.5t-3.5 0.5q-6 0-10 4v6q-3 10 1 13-1 1-4 1-1 2 0 3.5t1 2.5l1 3q0 3-6 7 0 4 7 8v1q-4 2-6 5-1 2-2 10t-2 21q-7 6-7 16 0 3 5 21-3 3-10 4-2 2-1 4l4 12q-1 0-3 5-1 2-2 5t-3 8q1 3 1 13 0 0-2 2 0 2-1.5 9.5t-3.5 18.5-3.5 19-1.5 13q0 7 3 10-1 2-9 4-12 0-23-8l-5-30q-1-1-2.5-2t-3.5-3v-2q0-1 0.5-3.5t1.5-5.5q4 0 9-4l-2-12q-2-7 1-11l-8 1-2-4 3-4q3-4 3-6l-7-29 3-12q0-3-1-5l-2-5q1-5 2-11.5t2-13.5q0-2-7-9-8-10-8-10 0-4 7-5.5t7-1.5l-3-47-2-4q-2 2-8 6l-6-1q-3-1-5-1l-15 5t-4-2-5-2q-13-1-18 0-2 1-6 3t-9 5h-3q-4-7-8-7l-12 3q-1-1-3-1t-4-1q-8 0-8 7 3 3 7 10-1 2-1 11 0 2 0.5 4.5t1.5 6.5l2 8q0 1 0 4t-1 8l-2 12q1 47 6 73l3 9q0 3-1 6l-2 6q0 1 2 5-2 3 0 8l4 8q0 1 0 3t-1 6l-2 9q0 1 3 13t4 13q-4 6-5 12 2 2 4 4t4 5q0 6-6 13l6 104q2 2 4.5 5t4.5 6q-1 1-4 1l-3 18q0 9 1 13l-1 3q1 1 3 5v7q0 2-0.5 4t-0.5 3q3 3 6 9l-6 15v12q1 3 3 7t4 9q0 1-0.5 1.5t-0.5 1.5q0 3 1.5 6t2.5 7q-3 3-6 9l1 13q0 4 10 14 9 9 8 15l-21 8q2 5 6 6l-2 27q-3 5-3 7 10 4 13 3 2 0 7-4 4-4 8-4 2 2 5.5 4t7.5 3q2-2 6.5-4.5t9.5-5.5l1 4 7 2q5 3 6 2 2 0 9-6 7-7 9-7t9 5q5 2 8.5 3t5.5 0l4-1t4 2q2 2 4 2 4 0 11-10 2 0 5 4 3 3 4 2l16-7q2 0 4 0.5t4 1.5l5-6 21-3q1-1 2-2t3-2q15-1 25-3l18-12t2-4v-1q0-7 10-13l16-9v-9l5-11q-1-6-3-12.5t-4-13.5q0-1 1-1l5 5q4 4 7 4l2-1q1-1 2-6t3-14l3-5v-10l-3-3q2-9 1-10-3-1-6-6 0 0 2-2 1-1 7-1v-2q0-2-2-10h-1q-1 0-3-7t0-7q3 0 5 2 1 2 1 5t0 1l-1-15q-1-1-3-5 0-4-0.5-11t-1.5-16l-5-9q-2-7-3-16l1-7q-1-1-1-2t-1-3q-1-13-9-19v-4q0-2-0.5-4.5t-1.5-5.5q-4-3-24-33l-9-4q-6-3-8-9 3-5 5-13 0-7-5-7-6 0-6-1 0-3 7-3 5 0 5-6l-1-12q-18-3-18-6 0-2 21-4-1-1-3-9l5-3 6-25 4-7q-7-5-12-14l2-4q5-3 9-10 2-3 3-10l7-5q0-2 0-5t1-6q-1-2-1-10 3-3 3-8l2-22q1-1 2-4t2-8q-5-5-5-9-1-6 4-6 1 0 5 2l1-17t10-23q1-1 1-6 0-11-8-11-9 0-12 3-3 4-4 4-5-4-15-7zm-99 572q1 2-1 4t-4 0q0-2 5-4zm-113-50 4 3q0 1-4 0-1 0 0-3zm12-8q3-1 6 3-2 2-3 2-3 0-3-5zm185-8q3-1 6 3-1 1-3 1-3 0-3-4zm-89-164 10 7 13 2 1 4-2 7q1 1 3.5 3t6.5 5q1 4 6 7 0 10 3 29 0 4 0.5 10t1.5 13q1 2 2 4.5t2 6.5l-2 4q-2 4-2 4-1 3-1 8 0 3 0.5 7t1.5 9l1 13v2q0 10-19 13l-13 2-11 2q-4 0-8.5-0.5t-9.5-1.5q-6-2-11-9l-1-3q-5-5-7-10 0-1 1.5-3.5t2.5-7.5l4-11q-2-2-6-8-1-4-2.5-8t-3.5-9q0 0 5-7 5-8 5-8-1-4-2.5-7.5t-2.5-8.5v-14l-1-17v-3q0-9 5-14 2-3 6-6 1 0 5 3 3 3 4 3 3 0 13-12zm74 95q6 0 16 15-3 3-4 6l-9 3q-4 0-10-6 0-8 7-18zm-181-19q3-1 6 3-2 2-3 2-3 0-3-5zm26-97q1 1 1 3 0 3-4 3-1-3 3-6zm73 2q2-1 6 3-1 1-4 1t-2-4zm75-32 3 2q0 2-1 3zm-118-19q1 2-1 4-1 2-4-1 0-3 5-3zm77-11q3-1 5 1 1 1-1 5-2 0-4-6zm46-64q1 2-1 4-1 1-5-1 0-3 6-3zm-32-78q2 0 6 3 4 2 5 2h1v12l-12 3q0-5 1-6 0 0-1-7-1-2-1-6 0-1 1-1zm-166-13q6 3 6 6 0 4-7 7l-8 4-2-2q2-4 5-7.5t6-7.5zm-5-57q1 2-1 4-1 2-4-1 0-3 5-3zm25 4h-3q1-1 3-5z"/><path transform="translate(5.6 13.6) scale(.016 -.016)" d="m130-21q-1 2-3 3.5t-4 3.5q-6 4-13 6-1-1-6-3l-7 3q-6 3-8 3l-9-2q-3 0-14 9-5 5-8.5 9t-4.5 7q0 1-2 1l-4-1q-2 0-4 3-1 2-2 5.5t-3 7.5q-1 2-9 7-1 0-3 6-4 1-4 4l3 5q2 3 2 7 0 5-4 9-5 7-5 11 2 2 3 5.5t3 7.5q0 0-4 7-7 11-6 18 0 1 8 9l-6 5t0 0.5-1 1.5v10q0 2 0 4t1 5l5 6q-2 6 0 11 1 1 2 2t2 2q-1 1-5 1l-2 16v3q0 12 6 10l7-1 2 1q-1 4-8 6-5 2-5 4l4 25q2 0 3 4l-2 7q-2 9-3 10 2 2 5 4t5 6q0 1-6 11-3 5-3 12 2 2 3.5 6t3.5 9q0 7 0.5 15.5t1.5 19.5q3 3 4 6 3 18 2 25 4-1 7 2l1 8q6 2 6 7 2 9 2 9 16 19 20 19h1v-1h2q2 0 3 4l11 4q16-13 16-8v6q0 2-0.5 4t-0.5 3v4q12 9 14 9l6-2 11 2q8-11 12-11 3 0 7 4 5 6 6 6l8 6q0-4 4-8l7 5q1-4 8-9l4 1h4l4 3q2-1 6-2t8-2q3-10 17-12l2-4q1 1 6 1 3 0 3-2l8-17q2 2 4 2 5 0 6-6l3-13 7-4q2-2 3-14 1-2 2-4.5t2-6.5q-1-3-1-15l5-6q5-4 4-9l-1-6q-1-1-3.5-2t-4.5-3q-3-3-7-2-1-1-1-4 6-6 12-8l-2-9t-4-2q-3-3-5-3-5-5-5-9 0-6 13-10l2-7q-1-1-3-8v-4q0-3 0-6.5t1-8.5l-8-4q1-1 2-4t3-7q4-5 4-7l-2-15q-2 2-6 2h-3l-2-4t5-7 5-8q0-5-4-6-5-2-5-6 0 1 3-6 2-1 0-6 0 0-2-2 2-13 3-21.5t1-10.5q-1-3-2-7.5t-3-9.5l2-8-1-33-12-20-4-15q-2-2-4-2-1 1-3 1t-7-4v-10q-23-22-26-21l-4 1q1 0-26-9-1-1-2-2.5t-3-4.5h-3l-7 2q-3 0-20-4l-9 3t-8-4zm-41 409q1 0-2 4l-3-2q1-1 2.5-1t2.5-1zm118-8 4 3q-1 4-5 3zm-118-8q1 2-1 4t-4 0q0-2 5-4zm52-303q1 1 11 6 8 3 7 3h-1q1 0 1 0l6-2q2 0 5 4-5 7-5 11l2 9q2 2 3 2l2-2q-1-3 0-7l4 3v6l-7 14q4 2 8 6-5 12-4 19l1 7q1 4 1 6.5t0 3.5q2 2 6 3 8 2 8 11 0 2-3 2-2 0-5 4-1 1-4 1-5 8-5 12 2 14 3 12 3 0 3 16 2 15 0 20-2 8-3 8v-1q0 1 0 1 1 4 2 10.5t2 14.5q1 1 2.5 2t2.5 2q3 3 3 5l-3 4q-4 4-4 12 3 3 4 7l1 14q2 2 3 6 0 1 0 3t-2 4l-3 5q1 15 2 14l-4 1q-2 1-4 1-1 0-1 1-4 5-6 3l-7-2q-5 0-11 8h-4l-2-7q-2-6-6-5l-8-2q6-1 6-6l-6-20q1 1 2-9v-3q0-10-4-26-3-3-4-6v-9q0-3 0.5-6t-0.5-7q0-2-0.5-4t-0.5-4q0-6 3-9 3-11 2-23-2-2-4-5.5t-4-7.5l5-12q0-2-1-3-6 0-8-1 6-10 6-12l-3-13q-1-1-2-2t-2-3v-1l3-12q0-7-10-4v-4q5-2 11-9-1-7-1-16.5t0-20.5q2-3 7-13 2 0 8-2-1-3 0-6zm-64 208 8 3q3 5 3 11 2 2-2 5l-6-5h-2q-3 6-7 6t-4-6 2-8zm145-72 3 2q0 2-1 3zm-159-46-1 11q-2-2-4-7 0-2 5-4zm166-82q4-2 5 1-1 1-1.5 2t-2.5 2zm23-12q3 4 1 6l-7-1q1-1 0-5zm-184-50q3 0 6 3v7l-6 3q-5 0-5-7-1-6 5-6z"/><path transform="translate(10.368 13.6) scale(.016 -.016)" d="m96-4-13 4h-4q-3 0-7 0.5t-9 1.5l-21 18q-8 8-12 19-1 4-2 10t-3 14l1 5q0 3-1 5-2 6-2 6 1 2 1 6.5t0 9.5l-6 20v3q0 2 0 5t1 6l5 12v7q4 6 8 15.5t8 22.5l8 4q1 2 2 4t3 4l14 14q1 2 2 4.5t3 6.5l36 22q5 3 10 6t10 7q0 0 6-2 1 1 2 2.5t3 2.5l10 4q0 5 4 10 3 2 7.5 6t10.5 10q1 1 0 10 2-2 2 1 0 9-1 7-1 4-2.5 8.5t-2.5 9.5q-1 1 1 6l2 5t-5 7l-10 13q-5 5-13 4l-5-1q-6-2-6-2h-9l-2-2q1-1 2-2t2-3q0-2-1-3v-3q-4-1-9-8-2-6-2-11 2-4 6-8-1-1-3-1-2-8 0-11l3-4v-5q0-1-3-3l-12 3q-1 4-4.5 2t-5.5 1h-2q-3 0-4 2.5t-4-1.5l-6-7q-5 0-8-1l-5 2q-3 2-4 1.5t-2-0.5l-21-6q-2 0-5 0t-7 1l-5 15q0 1 1 1.5t1 1.5l1 3q-1 3-1 7.5t0 9.5q3 3 4 6t1 13v6q0 26 44 65 1 3 7 9 1 1 13 6 2 2 1 3l1 5q4-1 8.5-1.5t8.5-0.5l7 3q2 1 4 2t3 1h7q1 1 7 3 6 1 10.5 1.5t8.5 0.5q5 0 21-3 18-3 20-6l-1-7 3-4 6 3q3 0 7-6l8-1q2 0 4.5-0.5t3.5-0.5q1-1 2-1.5t2-2.5v-8l-8-4q1-4 8-5 8-1 9-3l10-37q0-3 6-8 1-7 1-16t0-19l3-5q1-1 1-11l-1-17q-1-9-1-15.5t0-10.5l2-3q1-10 1.5-15.5t0.5-4.5l-4-10q-1-4-1.5-5.5t-0.5-2.5q0-3 0.5-6t1.5-6q2-2 3.5-5.5t2.5-7.5l-1-13q-1-1-2-3.5t-2-5.5q0 0 4-27l-4-14q1-1 3-6.5t2-6.5v-5q0-6-1-9 9-1 9-15l-2-6q-2-6-2-6l3-11q1-4 1.5-9t0.5-13v-10q3-4 6-14v-1q0-11-27-13l-19 3q-1 0-6 0t-15-1q-1 0-3-2t-4-2h-9t-12 4l2 9q0 6-6 9 0 1 1 8l2 7q-7-1-36-30-7-7-10-6l-4 1q-3-3-6-5-6-3-11-3-1-1-1 0-1 1-2 1-1-1-9.5-4t-10.5-3zm5 431q0 3-4 4-2-2-2-3 1-6 6-1zm124-51 3 4q1 2-2 4-3 1-7 0 1-3 6-8zm-142-36 12 1q8 0 8 7l-2 5-13 1q-8 0-7-6l1-4q1-2 1-4zm91-73q1-1 5 0l-1 4q-4-1-4-4zm-66-59 1 5-6 1zm24-124h5q2 0 4 2t3 2q2-1 6-3 4 0 9 5 2 5 6 12 5 2 11 8-1 2-1 8 0 5 0.5 11t1.5 13q-1 5-2 11.5t-2 15.5q0 6 6 7-3 10-13 28h-16q-3-12-9-21l-7-5-4-7-7-4q-1-4-3.5-9t-4.5-12q0-6-7-20l1-4q-7-8-7-10 2 1 4-2l6-16q2-1 4-1.5t4-2.5q1-1 2-2t2-3zm102 51q2 0 5.5 3.5t3.5 5.5l-2 4q-1 1-3 1t-4 1l-7-5q1-1 3-7 2-3 4-3zm-41-28 6 2q-1 1-1 5l-6-1q0-5 1-6zm-53-85q2 8-1 8l-2-2q-1-1-1-5z"/><path transform="translate(15.152 13.6) scale(.016 -.016)" d="m110-12q-2 0-5 0t-6 1l-10 2q-1 0-1-0.5t-1-0.5h-2q-2 0-6 4-3 3-8 3l-7-1q-2 0-4 3-1 1-1 4-1 2-3.5 4t-4.5 6q0 4-5 12l-7 1q-1 6-3.5 15t-6.5 22q5 2 8 9l-7 5q1 8 1 11.5t0 4.5q-3 1-8 12l1 4v2q1 2 2 5t2 5q3 6 3 10-1-1-2 15l-7 16q-1 9 0 28v2q0 4-0.5 11.5t-1.5 18.5l-5 10q0 5 5 10l-6 8-3 41t0 1v-1t1 0q0 0 0.5 2.5t1.5 8.5q2 2 0 15l-3 8t7 9l-1 39q3 2 5 5 0 1-0.5 2.5t-0.5 2.5q0 11 11 24 3 1 7.5 3.5t10.5 6.5q1 3 3.5 6t6.5 7l11-2t6 2 6 2q4 1 7-3t6-4q5 0 12 12l3 1 9-10q13-8 28-7l11 3q3 5 3 10 0 12-3 14.5t-2 3.5l2 5q-1 5-3 15 0 0-2 4-2 2-2 4l3 9q2 4 2 6t0 3-0.5 2-1.5 3q-3 3-3 4 0 5 4 8 8 2 8 4 0 5-7 8-3 8-2 17-6 5-6 7 1 3 1 7.5t0 9.5l-6 19q0 2 7 9 4-2 5-1l5 1q3 0 18-3l4 2q1 1 3 1l4-1q1 0 1.5-1t1.5-1l10 5q8 4 10 4l6-1q3-1 6-1t5 0q8 0 10 1 2-4 5-9t5-10l-2-5q-1-2-1.5-3t-0.5-2v-12q-2-2-3-5l-1-4-5-7q6-1 14-12 0 0-4-10v-7q-1-1-2.5-2.5t-4.5-3.5q0-4 2-6l6-5q7-16 9-26-1 1-2-14 0-2-4-6v-5q2-5 4-13.5t4-19.5q-7-4-7-7l3-8q0-1 0.5-6t0.5-13q0-3 2-9l2-7q0-1-1-6.5t-3-13.5q2-8 8-16l-1-19q0-9-1-8 0-1 0.5-2t1.5-3q-2-13-3-34 2-4 4-8t4-9l-6-14 2-29q0-3 5-10-2-1-8-7l9-22q0-1-3-9l-3-10q0-1 0-3.5t1-5.5q2-1 9 0 1-3 0-7l-2-7q1-3 1-12 0-4-1-7-2-6-2-6 0-3 4-4 1-1 1-10v-8q2-1 3-6 0-4-7-22l5-3 3-15v-6q0-4-0.5-8t-1.5-8l-14-6q-1 0-4 0.5t-8 0.5h-12q-3 2-9 3l-4-1q-3-1-5-1 0 0-9 0h-10q-2-2-5-4l-9-2q-8 0-10 11-1 1-4 1-2 0-4-2-7-4-16.5-8t-21.5-8q-2 1-9 1-2-1-4.5-1.5t-6.5-1.5zm112 595 4 2-2 3q-1-1-1-2t-1-3zm-36-35q2 0 4 2t-1 4q-3-1-3-6zm65-16zm-50-84 1 3-4 2q-2-2-3-2l2-3zm-101-43-1 6-6-1v-2zm40-23q3 3 4 3-4 2-6 2 1-1 0-2zm15-308q2 1 5 2t5 3l16 13v7l-3 12-3 11t2 4l1 3q0 2-0.5 5t-0.5 6q0 7 1.5 14t1.5 16v3q-1 2-2 4.5t-3 6.5q-2 8-3 13.5t-2 9.5q0 4 1 6t2 4 2 5q-1-1-2 5v3q0 5 1 8 0 1 3 2 1 0 1 1-3 4-4 5h-1q0 1 1 0h1l-1 6q-8 8-8 11l1 4q1 2 1 4 0 10-1 10 3 2 4 3 3 2 3 2 0 2-3 3t-5 5q-1 2-1 5t-1 8l4 23q0 3-2 7-5 9-9 13l-10 1q-9 1-11 3-3-2-7-3.5t-10-3.5l-6-6q3-4 3-6 0-6-10-6-3 0-4 1l-3-3q0-6 8-9 8-5 8-9-2-5 0-8l2-1-2-2 2-3-3-20q0-2-1-3l-2-4q2-4 3.5-9t2.5-10v-4q0-5 1-8l1-16q-1-3-1-11 2-2 6-8 0-3-4-7-4-5-4-7 1-3 3-7t4-10l5-13q0-4-5-9 5-1 3-9l-2-11q0-13 1-10-1-4-1.5-7t-0.5-5l6-13q-1 1-2-11l3-6 13-3zm-144 251zm251-23zm-95-22q0 1 0 1 0-1 0-1zm-95-57q1 1-3 4l-2-2q1-1 2.5-1t2.5-1zm2-16q1 3-1 5-1 2-5-2 2-3 6-3zm163-98q5 0 7 5l-4 1q-4-4-3-6zm-122-22q1 2-1 4-1 1-5-1 2-3 6-3zm77-17 16 1q8 0 6 9l-3 8q-6-7-10-7l-10 5-9-7q8-2 8-2t2-7z"/><path transform="translate(22.736 13.6) scale(.016 -.016)" d="m292-15q-1 1-4 2t-8 2h-18q-2-1-8-1-1 1-3.5 2t-5.5 2l-10-1q-5-1-7.5-0.5t-3.5 0.5q-6 0-10 4v6q-3 10 1 13-1 1-4 1-1 2 0 3.5t1 2.5l1 3q0 3-6 7 0 4 7 8v1q-4 2-6 5-1 2-2 10t-2 21q-7 6-7 16 0 3 5 21-3 3-10 4-2 2-1 4l4 12q-1 0-3 5-1 2-2 5t-3 8q1 3 1 13 0 0-2 2 0 2-1.5 9.5t-3.5 18.5-3.5 19-1.5 13q0 7 3 10-1 2-9 4-12 0-23-8l-5-30q-1-1-2.5-2t-3.5-3v-2q0-1 0.5-3.5t1.5-5.5q4 0 9-4l-2-12q-2-7 1-11l-8 1-2-4 3-4q3-4 3-6l-7-29 3-12q0-3-1-5l-2-5q1-5 2-11.5t2-13.5q0-2-7-9-8-10-8-10 0-4 7-5.5t7-1.5l-3-47-2-4q-2 2-8 6l-6-1q-3-1-5-1l-15 5t-4-2-5-2q-13-1-18 0-2 1-6 3t-9 5h-3q-4-7-8-7l-12 3q-1-1-3-1t-4-1q-8 0-8 7 3 3 7 10-1 2-1 11 0 2 0.5 4.5t1.5 6.5l2 8q0 1 0 4t-1 8l-2 12q1 47 6 73l3 9q0 3-1 6l-2 6q0 1 2 5-2 3 0 8l4 8q0 1 0 3t-1 6l-2 9q0 1 3 13t4 13q-4 6-5 12 2 2 4 4t4 5q0 6-6 13l6 104q2 2 4.5 5t4.5 6q-1 1-4 1l-3 18q0 9 1 13l-1 3q1 1 3 5v7q0 2-0.5 4t-0.5 3q3 3 6 9l-6 15v12q1 3 3 7t4 9q0 1-0.5 1.5t-0.5 1.5q0 3 1.5 6t2.5 7q-3 3-6 9l1 13q0 4 10 14 9 9 8 15l-21 8q2 5 6 6l-2 27q-3 5-3 7 10 4 13 3 2 0 7-4 4-4 8-4 2 2 5.5 4t7.5 3q2-2 6.5-4.5t9.5-5.5l1 4 7 2q5 3 6 2 2 0 9-6 7-7 9-7t9 5q5 2 8.5 3t5.5 0l4-1t4 2q2 2 4 2 4 0 11-10 2 0 5 4 3 3 4 2l16-7q2 0 4 0.5t4 1.5l5-6 21-3q1-1 2-2t3-2q15-1 25-3l18-12t2-4v-1q0-7 10-13l16-9v-9l5-11q-1-6-3-12.5t-4-13.5q0-1 1-1l5 5q4 4 7 4l2-1q1-1 2-6t3-14l3-5v-10l-3-3q2-9 1-10-3-1-6-6 0 0 2-2 1-1 7-1v-2q0-2-2-10h-1q-1 0-3-7t0-7q3 0 5 2 1 2 1 5t0 1l-1-15q-1-1-3-5 0-4-0.5-11t-1.5-16l-5-9q-2-7-3-16l1-7q-1-1-1-2t-1-3q-1-13-9-19v-4q0-2-0.5-4.5t-1.5-5.5q-4-3-24-33l-9-4q-6-3-8-9 3-5 5-13 0-7-5-7-6 0-6-1 0-3 7-3 5 0 5-6l-1-12q-18-3-18-6 0-2 21-4-1-1-3-9l5-3 6-25 4-7q-7-5-12-14l2-4q5-3 9-10 2-3 3-10l7-5q0-2 0-5t1-6q-1-2-1-10 3-3 3-8l2-22q1-1 2-4t2-8q-5-5-5-9-1-6 4-6 1 0 5 2l1-17t10-23q1-1 1-6 0-11-8-11-9 0-12 3-3 4-4 4-5-4-15-7zm-99 572q1 2-1 4t-4 0q0-2 5-4zm-113-50 4 3q0 1-4 0-1 0 0-3zm12-8q3-1 6 3-2 2-3 2-3 0-3-5zm185-8q3-1 6 3-1 1-3 1-3 0-3-4zm-89-164 10 7 13 2 1 4-2 7q1 1 3.5 3t6.5 5q1 4 6 7 0 10 3 29 0 4 0.5 10t1.5 13q1 2 2 4.5t2 6.5l-2 4q-2 4-2 4-1 3-1 8 0 3 0.5 7t1.5 9l1 13v2q0 10-19 13l-13 2-11 2q-4 0-8.5-0.5t-9.5-1.5q-6-2-11-9l-1-3q-5-5-7-10 0-1 1.5-3.5t2.5-7.5l4-11q-2-2-6-8-1-4-2.5-8t-3.5-9q0 0 5-7 5-8 5-8-1-4-2.5-7.5t-2.5-8.5v-14l-1-17v-3q0-9 5-14 2-3 6-6 1 0 5 3 3 3 4 3 3 0 13-12zm74 95q6 0 16 15-3 3-4 6l-9 3q-4 0-10-6 0-8 7-18zm-181-19q3-1 6 3-2 2-3 2-3 0-3-5zm26-97q1 1 1 3 0 3-4 3-1-3 3-6zm73 2q2-1 6 3-1 1-4 1t-2-4zm75-32 3 2q0 2-1 3zm-118-19q1 2-1 4-1 2-4-1 0-3 5-3zm77-11q3-1 5 1 1 1-1 5-2 0-4-6zm46-64q1 2-1 4-1 1-5-1 0-3 6-3zm-32-78q2 0 6 3 4 2 5 2h1v12l-12 3q0-5 1-6 0 0-1-7-1-2-1-6 0-1 1-1zm-166-13q6 3 6 6 0 4-7 7l-8 4-2-2q2-4 5-7.5t6-7.5zm-5-57q1 2-1 4-1 2-4-1 0-3 5-3zm25 4h-3q1-1 3-5z"/><path transform="translate(28.336 13.6) scale(.016 -.016)" d="m96-4-13 4h-4q-3 0-7 0.5t-9 1.5l-21 18q-8 8-12 19-1 4-2 10t-3 14l1 5q0 3-1 5-2 6-2 6 1 2 1 6.5t0 9.5l-6 20v3q0 2 0 5t1 6l5 12v7q4 6 8 15.5t8 22.5l8 4q1 2 2 4t3 4l14 14q1 2 2 4.5t3 6.5l36 22q5 3 10 6t10 7q0 0 6-2 1 1 2 2.5t3 2.5l10 4q0 5 4 10 3 2 7.5 6t10.5 10q1 1 0 10 2-2 2 1 0 9-1 7-1 4-2.5 8.5t-2.5 9.5q-1 1 1 6l2 5t-5 7l-10 13q-5 5-13 4l-5-1q-6-2-6-2h-9l-2-2q1-1 2-2t2-3q0-2-1-3v-3q-4-1-9-8-2-6-2-11 2-4 6-8-1-1-3-1-2-8 0-11l3-4v-5q0-1-3-3l-12 3q-1 4-4.5 2t-5.5 1h-2q-3 0-4 2.5t-4-1.5l-6-7q-5 0-8-1l-5 2q-3 2-4 1.5t-2-0.5l-21-6q-2 0-5 0t-7 1l-5 15q0 1 1 1.5t1 1.5l1 3q-1 3-1 7.5t0 9.5q3 3 4 6t1 13v6q0 26 44 65 1 3 7 9 1 1 13 6 2 2 1 3l1 5q4-1 8.5-1.5t8.5-0.5l7 3q2 1 4 2t3 1h7q1 1 7 3 6 1 10.5 1.5t8.5 0.5q5 0 21-3 18-3 20-6l-1-7 3-4 6 3q3 0 7-6l8-1q2 0 4.5-0.5t3.5-0.5q1-1 2-1.5t2-2.5v-8l-8-4q1-4 8-5 8-1 9-3l10-37q0-3 6-8 1-7 1-16t0-19l3-5q1-1 1-11l-1-17q-1-9-1-15.5t0-10.5l2-3q1-10 1.5-15.5t0.5-4.5l-4-10q-1-4-1.5-5.5t-0.5-2.5q0-3 0.5-6t1.5-6q2-2 3.5-5.5t2.5-7.5l-1-13q-1-1-2-3.5t-2-5.5q0 0 4-27l-4-14q1-1 3-6.5t2-6.5v-5q0-6-1-9 9-1 9-15l-2-6q-2-6-2-6l3-11q1-4 1.5-9t0.5-13v-10q3-4 6-14v-1q0-11-27-13l-19 3q-1 0-6 0t-15-1q-1 0-3-2t-4-2h-9t-12 4l2 9q0 6-6 9 0 1 1 8l2 7q-7-1-36-30-7-7-10-6l-4 1q-3-3-6-5-6-3-11-3-1-1-1 0-1 1-2 1-1-1-9.5-4t-10.5-3zm5 431q0 3-4 4-2-2-2-3 1-6 6-1zm124-51 3 4q1 2-2 4-3 1-7 0 1-3 6-8zm-142-36 12 1q8 0 8 7l-2 5-13 1q-8 0-7-6l1-4q1-2 1-4zm91-73q1-1 5 0l-1 4q-4-1-4-4zm-66-59 1 5-6 1zm24-124h5q2 0 4 2t3 2q2-1 6-3 4 0 9 5 2 5 6 12 5 2 11 8-1 2-1 8 0 5 0.5 11t1.5 13q-1 5-2 11.5t-2 15.5q0 6 6 7-3 10-13 28h-16q-3-12-9-21l-7-5-4-7-7-4q-1-4-3.5-9t-4.5-12q0-6-7-20l1-4q-7-8-7-10 2 1 4-2l6-16q2-1 4-1.5t4-2.5q1-1 2-2t2-3zm102 51q2 0 5.5 3.5t3.5 5.5l-2 4q-1 1-3 1t-4 1l-7-5q1-1 3-7 2-3 4-3zm-41-28 6 2q-1 1-1 5l-6-1q0-5 1-6zm-53-85q2 8-1 8l-2-2q-1-1-1-5z"/><path transform="translate(33.12 13.6) scale(.016 -.016)" d="m110-147q-4 0-6 5l-3 9h-4l-3-5q-3-4-4-4t-5 2q-4 3-6 3l-2-1h-3q-4 0-9 3-7 4-9 3l-3-1h-4q-10 0-21 15h-2q-12 0-18 16l-4 12q0 2-5 5l1 2q0 1-2 5-1 2-1 5 0 6 3 16l5 15q5 7 18 17l1 5q5 8 17 11 2 3 2.5 6.5t1.5 7.5q-2 2-8 2h-1q-10 10-11 12-4 5-5 14l-6 5q2 6 2 9v7q0 2-0.5 4t-0.5 3q0 6 7 12 0 0 0 10v1q1 1 3 1l5-4q4 0 4 3 0 4-4 5 6 2 10 4l11 22q11 5 11 13 0 2-4 5-4 0-5-4h-3q-2 4-2 7 0 2-2 2l-4-1q-7 0-12 11-5 12-12 13-1 2-1.5 3.5t-0.5 2.5q2 0 5 8h-1q-1 1-6 1-3 15-3 18 0 2 3 6 2 6 2 6l-2 6q-1 2-2 3.5t-1 2.5l-3 37h1v18q0 5 1 8 0 4-3 11-1 4-1.5 7t-0.5 5 5 10l-1 15-4 6q3 2 11 10-5 5-5 10 0 4 0.5 10t1.5 15q5 3 7 3 3 0 4-1l1 10q7 4 5 11h2q7 0 15 7l-2 6q0 5 3 6 6 1 12 2t11 3l20 8q2 2 5.5 5t8.5 5h7l5 3h1q6 0 15-4 2 0 6-3 3-3 5-3l3 1q1 0 1.5 0.5t1.5 0.5q3 0 4-1 2-2 4-2l2 1q1 1 1 1h1q-1 0-1 0 0-1 7-4l12-2q4-1 10-10l11-2q8-2 8-6l-2-4q-2-6-2-6 0-2 5-2 14 0 11 14 8 0 19 11t11 11q1 0 7-6 1 3 10 12 4 0 14 3l10-18q0-3-1-7-2-8-2-11-4-4-4-18 0-12 6-20l2-14q1 0-1.5-2.5t-7.5-5.5q-6 7-9 7l-5-1q-1 0-2.5-0.5t-2.5-0.5-4 4-5 4-4-2l-5 1h-3q0-7 6-13 0-1-2-5-2-6-2-6 0-2 3-5 2-4 2-5 0-9-6-9l-2 1q-4 0-4-10 0-4 3-6l-2-3q0-1 2-3t2-3-0.5-3.5-1.5-5.5q-1-4-1.5-6t-0.5-4q0-1 2-5t2-6v-9q8-8 8-11 0-7-6-9 5-8 5-17 0 0-14-17 13-10 13-10 0-18-4-27-1-2-7-8l-5-13q-4-1-9-13 0 0-10-2l-8-10-2 1q-1 0-7-4l-7-5q-5 0-12-4l-38-8q-1 0-3 3l-3 5q-11-5-11-6 0 0-0.5 0t-0.5 1h-1q-1 0-5-7t-7-7q0 0-2 2-1 1-4 1-2 0-8-9 2-3 5-3l4 1q1 0 1.5 0.5t1.5 0.5l12-9q3-1 7.5-2t9.5-3q1 0 4-4 3-3 5-3t4 2l5 4q5 0 8 1l3 2v1q1 1 6 1 2-6 12-5l7 1h10q1 0 1.5-0.5t1.5-0.5q5-8 10-8 2 0 10 5 7 4 11 4 9 0 16-10 5 0 14-3 2-2 3-8 2-6 5-5l3 1h3t8-5h6q2-4 5-8t5-9l-2-3v-1q0-5 5-17l4-9q0-1 0-3t-1-4l-1-6q0-1 0.5-1.5t0.5-1.5v-3q0-3-1-4-2-2-2-4 0-1 5-3-6-10-6-15 0 0 2-6l1-4q0-5-4-10l-6-9q0-2 0-4.5t-1-6.5q-3 0-11-3-7-3-11-2 0-4 3-6-4-16-54-27-2 0-5-3-4-2-5-2l-8 1q-3 1-5 1t-4 0l-6-1q-3-1-6-1l-5-4q-4-1-9.5-1.5t-10.5-0.5l-13 5q-4-9-7-9l-7 1-8 2q-2 0-4-0.5t-4-1.5zm136 539q2 2 5 3-4 4-6 4h-1l-1-4zm-150-9 1 2t-4 2l-2-2zm92-4 6 1v4q0 1-5 2zm-90-11v1q0 3-3 3l-3-1q2-3 5-3zm-53-13q2 1 3 2t2 2l-2 3-5-1v-3zm72-184q-1 1-1 5 0 8 10 8 4 0 17-7 1 2 7 8 1-1 1-5 2 0 8-2v2l-1 4q0 1-1 1.5t-1 1.5q0 2 3 8t3 8q0 0-2 4-2 2-2 3 8 14 8 20v1q-8 2-8 14 0 1 3 5 11 0 11 3-1 1-11 1-7 0-7 7 0 2 3 9 3 8 3 10t-3 6q-4 4-4 5 0 2 1 3.5t2 3.5l2 5-1 18q-12 7-9 20-2 1-4.5 3t-5.5 4l-1 5q-12-5-25-5-4 0-6-3 0-8-4-15l-5-9 1-27 2-3q1-1 1-3 0-1-2-5 4 0 4-17 0-2-2-4-2-4-2-4 1-1 1-6l-2-4q0-1 3-6 2-6 2-9 0-8-5-20 6-4 6-7t-3-8q6-2 10-12zm-33-8h7l3 3v8q-4 4-9 4-3-7-3-5l1-5q0-1 0.5-2.5t0.5-2.5zm-68 5t0-1zm199-20q3 0 3 3l-1 3q-3 0-3-4v-2zm-119-97 1 5-6 1-1-5zm63-24v1q0 4-3 4l-3-2q2-3 5-3zm-101-18v1q0 3-3 3l-3-1q2-3 5-3zm77-81-1 4v1q3 3 6 3 4 0 7-5 1-1 6-1h6q9 0 10 3 1 2 2 3t2 2l16-7q3 4 10 10l6-4q1 4 10 6 9 3 11 5l2-2 1 9q-7 1-9 14-1 12-6 12-1 0-2-1t-3-1l-5-1q-1 0-7 2t-8 2q-1 0-2-1t-2-1l-3-1h-1l-2 1q0 2 1 4 0 3-6 3l2 2-12-6q-4 0-3 4l-9-2-7 2q-3 1-5 1.5t-4 0.5l-3-3q-13-2-14.5-2.5t-9.5-11.5v-2l-1-8q0-2-0.5-3.5t-0.5-2.5q0-2 1-3 3-5 6.5-10.5t10.5-5.5q4 0 4-4v-2q2-3 6-3zm132 47q2 0 6 4-3 3-15 5l-3 4q-5-3-5-8 0-1 2-3zm-99-85q2 1 4 3-2 4-4 6z"/><path transform="translate(37.76 13.6) scale(.016 -.016)" d="m129-13q-2 0-1 0-1 0-4 2l-5 2q-2-1-4.5-1t-5.5-1l-14 8q-3 7-8 7-1 1-2 0t-4-1q0 0-10 8l-8 3q-3 3-6.5 7t-8.5 9l-8 6v2q0 4-5 12-5 5-7.5 8.5t-3.5 4.5v12q5-3 6 1 2 3-4 6-4 3-4 5v12q0 3 0 6t-1 6q-1 5-1.5 9.5t0.5 8.5l2 10q-1 6-1 12.5t0 13.5q0 4 3 10l3 8q-1 8-2 17.5t-2 19.5q0 3 8 19 2 1 4 2t4 3q0 1-9 7l-3 21q0 5 4 6 3 2 2 7l13 9q-1 4-7 5-1 0-7-2-3 2-3 4 0 6 6 10 6 5 6 6l-5 17t8 14q7 1 7 4 0 2-3 5-4 3-4 5 0 1 2 3 3 6 6 22l6 6 3 10q6 2 14 6l13 16q10 13 17 12l3-1q0 1 8 3 24 8 27 7l5-1q6 4 9 7l5-1q2 0 3-1t2-1l8 1 9-8t6 2l5 2q4-2 9-4t10-4q5 2 14 0l-1-5v-1q0-6 11-6h8t13-24l6 2q4 0 5-3l11-38q-1-2-1-6.5t0-9.5l3-7q2-6 2-6l-2-3q-1-1-1-3v-15q-1-1-2-3.5t-2-6.5q-6-1-6-4t9-11q8-8 8-10t-5-2l-3-14q-1-1-3-6 0-6 6-26-4-2-6-5 0 0 0-8l1-10q0-1 0-3.5t-1-6.5l-1-10h-5q-8 0-13 8-4 7-7 7-1 0-6-6-6-6-8-6l-11 1q-5 1-8 0.5t-4-0.5l-21 9q-7-6-16-6-11 0-19 7-2-2-2-3h-15q-1 0-1 0.5t-1 0.5h-4q-9 0-15-11v-4q-1-2-2.5-5.5t-3.5-7.5q0-1 2-3l2-4v-2q0-1 0-3.5t-1-6.5q1-3 1-10 0-4-5-7l-2-33q6-5 5-17h12q6 0 9-4t4-4l7 3 7-5q3 0 4 3l6 14v15l1 15q1 3 1.5 5.5t0.5 3.5l-1 3q2 4 2 6.5t0 3.5l-2 9q4 10 10 10 8-4 22-7l5 2q3 1 5 1t7-8q11 4 11 4l8-5h2q12 0 23 10l17-16q-5-9-11-23-1-5-2.5-12t-4.5-15q-7-3-7-8 0-2 3-7 3-6 3-8l-2-3q2-5-1-9l-3-5q1-1 1-4 0-9-13-15l-2-2q1-1 1-3 0-7-8-9-11-3-13-5-2-3-6-7t-9-9q-20-13-28-11l-12 3q-5 0-10-3t-8-2l-4 1h-5q-4 0-6-0.5t-3-0.5q1 0 1 0zm20 421 2 4-3 2q0-3 1-6zm70-34q5 0 6 6l-1 13h-2q-3 0-3 5-2 5-5 5-4 2-6-3-1-1-0.5-3t0.5-4l1-7-3-3zm-88-13q8 3 0 7-2-2 0-7zm130 1-2 4-3-2zm-133-91 10 3 14 4q7 0 15 1.5t18 3.5l3 12q1 1 5 3-4 4-6.5 8t-1.5 8l1 7v6q0 9-8 15 1 3 1 8 0 8-18 9-3 0-11-6l-16-11q4-3 1-8-1-4-7-4v-3q3 2 6-3 2-4 1-5l-2-30q0-3 0.5-5t0.5-2q0-3-3-3-3 2-5 5l-3-2-1-6zm70 61q2-3 6 0-3 9-6 0zm-64-49q0-2 0-1 0 0 0 1zm-88-79q3 2 8 11l-1 3h-2q-5 0-13-5 3-5 8-9zm192 7q1 3-1 5-1 1-5-1 0-2 6-4zm-173-134 8 4-1 4-5 1-2-2v1l-1 4-3 1-2-11zm76-16q1 2-1 4t-4 0q0-2 5-4z"/></svg>