<svg width="119.66" height="18.75" viewBox="0 0 119.66 18.75" xmlns="http://www.w3.org/2000/svg"><path transform="translate(0 14.844) scale(.0078125 -.0078125)" d="m158 1456h407q142 0 238.5-50t146-147.5 49.5-239.5q0-100-33-182.5t-96-140-153-85.5l-50-21h-363l-2 157h261q84 0 140 36.5t84 98.5 28 137q0 84-25 147t-79.5 97.5-145.5 34.5h-223v-1298h-184zm699-1456-290 660 191 1 296-649v-12z"/><path transform="translate(8.4922 14.844) scale(.0078125 -.0078125)" d="m96 489v103q0 126 32 221.5t89 159.5 133 96.5 163 32.5q89 0 165-32.5t133.5-96.5 89.5-159.5 32-221.5v-103q0-126-32-221.5t-89-159.5-133-96-164-32-164 32-133.5 96-89.5 159.5-32 221.5zm177 103v-103q0-89 18-156t51-112 77-67.5 96-22.5q60 0 105.5 22.5t75.5 67.5 45 112 15 156v103q0 89-18 155.5t-51 112-77.5 68-96.5 22.5q-51 0-95-22.5t-76.5-68-50.5-112-18-155.5z"/><path transform="translate(16.523 14.844) scale(.0078125 -.0078125)" d="m133 1536h177v-1326l-15-210h-162zm784-946v-101q0-128-23.5-223.5t-69.5-159-112-95-151-31.5q-84 0-145 34t-102 98-64.5 155-32.5 205v135q9 115 32 206.5t64 156 102 98.5 145 34q86 0 152.5-30t112-92.5 69-159 23.5-230.5zm-177-101v101q0 90-11.5 157t-37.5 111-69.5 66-107.5 22q-54 0-94.5-22t-69.5-59.5-48-85-28-98.5v-284q13-65 41.5-124.5t77.5-97.5 122-38q61 0 103.5 21t69.5 64.5 39.5 110 12.5 156.5z"/><path transform="translate(24.414 14.844) scale(.0078125 -.0078125)" d="m96 489v103q0 126 32 221.5t89 159.5 133 96.5 163 32.5q89 0 165-32.5t133.5-96.5 89.5-159.5 32-221.5v-103q0-126-32-221.5t-89-159.5-133-96-164-32-164 32-133.5 96-89.5 159.5-32 221.5zm177 103v-103q0-89 18-156t51-112 77-67.5 96-22.5q60 0 105.5 22.5t75.5 67.5 45 112 15 156v103q0 89-18 155.5t-51 112-77.5 68-96.5 22.5q-51 0-95-22.5t-76.5-68-50.5-112-18-155.5z"/><path transform="translate(32.445 14.844) scale(.0078125 -.0078125)" d="m528 1082v-142h-505v142zm-340 263h177v-1077q0-55 13.5-83t34.5-37 45-9q18 0 40 4.5t30 7.5l-1-151q-18-7-48-13.5t-76-6.5q-57 0-106 27t-79 90.5-30 171.5z"/><path transform="translate(37.18 14.844) scale(.0078125 -.0078125)" d="m96 489v103q0 126 32 221.5t89 159.5 133 96.5 163 32.5q89 0 165-32.5t133.5-96.5 89.5-159.5 32-221.5v-103q0-126-32-221.5t-89-159.5-133-96-164-32-164 32-133.5 96-89.5 159.5-32 221.5zm177 103v-103q0-89 18-156t51-112 77-67.5 96-22.5q60 0 105.5 22.5t75.5 67.5 45 112 15 156v103q0 89-18 155.5t-51 112-77.5 68-96.5 22.5q-51 0-95-22.5t-76.5-68-50.5-112-18-155.5z"/><path transform="translate(48.883 14.844) scale(.0078125 -.0078125)" d="m886 463h184q-7-150-60.5-258.5t-155-166.5-253.5-58q-109 0-197 43t-150.5 123.5-95.5 193.5-33 254v269q0 140 33.5 253t97 193.5 155 123.5 207.5 43q142 0 240.5-56.5t152-165 59.5-265.5h-184q-7 115-36 187.5t-85.5 107-146.5 34.5q-80 0-138.5-32t-96-91.5-56-143-18.5-186.5v-271q0-96 15.5-179t50-145.5 90.5-97.5 136-35q101 0 160 33t87.5 105 37.5 188z"/><path transform="translate(57.953 14.844) scale(.0078125 -.0078125)" d="m96 489v103q0 126 32 221.5t89 159.5 133 96.5 163 32.5q89 0 165-32.5t133.5-96.5 89.5-159.5 32-221.5v-103q0-126-32-221.5t-89-159.5-133-96-164-32-164 32-133.5 96-89.5 159.5-32 221.5zm177 103v-103q0-89 18-156t51-112 77-67.5 96-22.5q60 0 105.5 22.5t75.5 67.5 45 112 15 156v103q0 89-18 155.5t-51 112-77.5 68-96.5 22.5q-51 0-95-22.5t-76.5-68-50.5-112-18-155.5z"/><path transform="translate(65.984 14.844) scale(.0078125 -.0078125)" d="m310 851v-851h-177v1082h167zm-43-269-72 3q-1 111 25.5 205.5t76 164.5 118.5 108.5 153 38.5q66 0 120-21.5t92-68.5 58.5-121.5 20.5-181.5v-709h-177v711q0 85-18.5 136.5t-56 75-94.5 23.5q-52 0-97-29t-78.5-80-52-116.5-18.5-138.5z"/><path transform="translate(73.734 14.844) scale(.0078125 -.0078125)" d="m700 210v1326h176v-1536h-161zm-605 279v101q0 134 26 230.5t74 159 115 92.5 148 30q84 0 144.5-34t101.5-98.5 64.5-156 31.5-206.5v-135q-9-114-32.5-205t-64.5-155-102-98-145-34q-80 0-146 31.5t-114.5 95-74.5 159-26 223.5zm177 101v-101q0-90 13-156.5t41-110 71.5-64.5 104.5-21q74 0 121 36t75.5 95.5 45.5 128.5v284q-10 51-29 98.5t-47.5 85-69 59.5-94.5 22q-61 0-105.5-22t-72-66-41-111-13.5-157z"/><path transform="translate(81.672 14.844) scale(.0078125 -.0078125)" d="m520-20q-97 0-175 29t-133 88.5-84 150.5-29 215v122q0 143 33.5 242t90.5 159.5 129 88 148 27.5q102 0 174-33t117-98 66.5-160 21.5-219v-103h-676v151h499v25q-4 84-22.5 148t-60.5 100.5-119 36.5q-49 0-90.5-16.5t-71-57-46-111.5-16.5-180v-122q0-87 16.5-149.5t49-103 80-60 108.5-19.5q89 0 147 34.5t101 88.5l93-111q-29-41-75.5-78.5t-114-61-161.5-23.5z"/><path transform="translate(89.172 14.844) scale(.0078125 -.0078125)" d="m310 851v-851h-177v1082h167zm-43-269-72 3q-1 111 25.5 205.5t76 164.5 118.5 108.5 153 38.5q66 0 120-21.5t92-68.5 58.5-121.5 20.5-181.5v-709h-177v711q0 85-18.5 136.5t-56 75-94.5 23.5q-52 0-97-29t-78.5-80-52-116.5-18.5-138.5z"/><path transform="translate(96.922 14.844) scale(.0078125 -.0078125)" d="m658 277q0 41-20 72t-65.5 60-122.5 62q-75 31-134.5 61.5t-100.5 66.5-62.5 83.5-21.5 112.5 24.5 120.5 69.5 97.5 108 65.5 141 23.5q111 0 189-43t119.5-117.5 41.5-167.5h-176q0 45-20 85t-59 65.5-95 25.5q-59 0-96-21t-53.5-54.5-16.5-73.5q0-30 8.5-51.5t29.5-40 57.5-38 93.5-44.5q110-43 185-87t114-103 39-146q0-71-25.5-128.5t-72.5-98.5-112.5-62.5-146.5-21.5q-122 0-206.5 48.5t-128 127-43.5 168.5h177q3-76 34.5-118t76.5-58 90-16q59 0 99 17.5t60.5 50.5 20.5 77z"/><path transform="translate(104.22 14.844) scale(.0078125 -.0078125)" d="m520-20q-97 0-175 29t-133 88.5-84 150.5-29 215v122q0 143 33.5 242t90.5 159.5 129 88 148 27.5q102 0 174-33t117-98 66.5-160 21.5-219v-103h-676v151h499v25q-4 84-22.5 148t-60.5 100.5-119 36.5q-49 0-90.5-16.5t-71-57-46-111.5-16.5-180v-122q0-87 16.5-149.5t49-103 80-60 108.5-19.5q89 0 147 34.5t101 88.5l93-111q-29-41-75.5-78.5t-114-61-161.5-23.5z"/><path transform="translate(111.72 14.844) scale(.0078125 -.0078125)" d="m700 210v1326h176v-1536h-161zm-605 279v101q0 134 26 230.5t74 159 115 92.5 148 30q84 0 144.5-34t101.5-98.5 64.5-156 31.5-206.5v-135q-9-114-32.5-205t-64.5-155-102-98-145-34q-80 0-146 31.5t-114.5 95-74.5 159-26 223.5zm177 101v-101q0-90 13-156.5t41-110 71.5-64.5 104.5-21q74 0 121 36t75.5 95.5 45.5 128.5v284q-10 51-29 98.5t-47.5 85-69 59.5-94.5 22q-61 0-105.5-22t-72-66-41-111-13.5-157z"/></svg>