<svg width="92.415" height="18.464" viewBox="0 0 92.415 18.464" xmlns="http://www.w3.org/2000/svg"><path transform="translate(0 14.67) scale(.0068359 -.0068359)" d="m656 594 286-594h195l1 12-309 622q60 26 110 63t86 85 56.5 107 20.5 130q0 110-38.5 191.5t-105.5 135.5q-68 54-158 81t-192 29h-427v-1456h184v594zm-291 152v558h243q67-1 123.5-19t97.5-53q41-36 64-88.5t23-122.5q0-66-24-116.5t-65-85.5q-42-35-97-53.5t-117-19.5z"/><path transform="translate(8.4014 14.67) scale(.0068359 -.0068359)" d="m122 551v-22q0-117 34-217t98-174q63-74 154.5-116t206.5-42q114 0 205 42t155 116q63 74 97 174t34 217v22q0 117-34 217.5t-97 174.5q-64 74-155.5 116.5t-206.5 42.5q-114 0-205-42.5t-154-116.5q-64-74-98-174.5t-34-217.5zm185-22v22q0 79 19 151.5t58 127.5q38 55 95 87.5t134 32.5 134.5-32.5 96.5-87.5q38-55 57.5-127.5t19.5-151.5v-22q0-80-19-152.5t-57-127.5q-39-55-96.5-87t-133.5-32q-77 0-135 32t-96 87q-39 55-58 127.5t-19 152.5z"/><path transform="translate(16.803 14.67) scale(.0068359 -.0068359)" d="m1091 529v21q0 85-14 161.5t-41 139.5q-26 56-60 101.5t-77 77.5q-48 34-107 53t-129 19q-56 0-104-11t-88-32q-32-17-60-40.5t-51-52.5v570h-185v-1536h170l9 123q18-23 38-42t42-35q46-32 103.5-49t127.5-17q61 0 113.5 15t96.5 42q61 39 104.5 98.5t70.5 134.5q20 57 30.5 122.5t10.5 136.5zm-185 21v-21q0-48-6-94t-19-86q-16-53-43-96t-67-71q-30-22-68-33.5t-84-11.5q-48 0-88 12.5t-72 35.5-56.5 53.5-42.5 66.5v473q17 36 41.5 66.5t56.5 53.5q31 22 71 34.5t88 12.5q44 0 80-10t65-28q42-25 71-69t47-97q13-43 19.5-91.5t6.5-99.5z"/><path transform="translate(25.204 14.67) scale(.0068359 -.0068359)" d="m122 551v-22q0-117 34-217t98-174q63-74 154.5-116t206.5-42q114 0 205 42t155 116q63 74 97 174t34 217v22q0 117-34 217.5t-97 174.5q-64 74-155.5 116.5t-206.5 42.5q-114 0-205-42.5t-154-116.5q-64-74-98-174.5t-34-217.5zm185-22v22q0 79 19 151.5t58 127.5q38 55 95 87.5t134 32.5 134.5-32.5 96.5-87.5q38-55 57.5-127.5t19.5-151.5v-22q0-80-19-152.5t-57-127.5q-39-55-96.5-87t-133.5-32q-77 0-135 32t-96 87q-39 55-58 127.5t-19 152.5z"/><path transform="translate(33.605 14.67) scale(.0068359 -.0068359)" d="m612 1344h-186v-262h-284v-143h284v-588q0-100 26.5-170.5t72.5-114.5q46-45 108.5-65.5t134.5-20.5q43 0 86.5 4t82.5 12q39 7 72 17.5t56 24.5l-26 131q-17-4-43.5-9.5t-56.5-10.5q-31-5-63-8.5t-62-3.5q-41 0-77.5 10t-64.5 35q-28 24-44 65t-16 104v588h412v143h-412z"/><path transform="translate(42.007 14.67) scale(.0068359 -.0068359)" d="m122 551v-22q0-117 34-217t98-174q63-74 154.5-116t206.5-42q114 0 205 42t155 116q63 74 97 174t34 217v22q0 117-34 217.5t-97 174.5q-64 74-155.5 116.5t-206.5 42.5q-114 0-205-42.5t-154-116.5q-64-74-98-174.5t-34-217.5zm185-22v22q0 79 19 151.5t58 127.5q38 55 95 87.5t134 32.5 134.5-32.5 96.5-87.5q38-55 57.5-127.5t19.5-151.5v-22q0-80-19-152.5t-57-127.5q-39-55-96.5-87t-133.5-32q-77 0-135 32t-96 87q-39 55-58 127.5t-19 152.5z"/><path transform="translate(58.81 14.67) scale(.0068359 -.0068359)" d="M377 1456H148V0H328V581L313 1168L560 405H666L935 1189L920 581V0H1100V1456H870L614 728Z"/><path transform="translate(67.211 14.67) scale(.0068359 -.0068359)" d="m122 551v-22q0-117 34-217t98-174q63-74 154.5-116t206.5-42q114 0 205 42t155 116q63 74 97 174t34 217v22q0 117-34 217.5t-97 174.5q-64 74-155.5 116.5t-206.5 42.5q-114 0-205-42.5t-154-116.5q-64-74-98-174.5t-34-217.5zm185-22v22q0 79 19 151.5t58 127.5q38 55 95 87.5t134 32.5 134.5-32.5 96.5-87.5q38-55 57.5-127.5t19.5-151.5v-22q0-80-19-152.5t-57-127.5q-39-55-96.5-87t-133.5-32q-77 0-135 32t-96 87q-39 55-58 127.5t-19 152.5z"/><path transform="translate(75.612 14.67) scale(.0068359 -.0068359)" d="m174 0h185v776q19 35 44.5 64t55.5 51q37 25 81 39.5t95 14.5q59 0 104.5-14t77.5-45q31-31 47-81t16-122v-683h185v687q0 108-26.5 186.5t-75.5 129.5-118.5 75-154.5 24q-63-1-119.5-18.5t-104.5-49.5q-32-21-60.5-49.5t-52.5-62.5l-13 160h-166z"/><path transform="translate(84.014 14.67) scale(.0068359 -.0068359)" d="m122 551v-22q0-117 34-217t98-174q63-74 154.5-116t206.5-42q114 0 205 42t155 116q63 74 97 174t34 217v22q0 117-34 217.5t-97 174.5q-64 74-155.5 116.5t-206.5 42.5q-114 0-205-42.5t-154-116.5q-64-74-98-174.5t-34-217.5zm185-22v22q0 79 19 151.5t58 127.5q38 55 95 87.5t134 32.5 134.5-32.5 96.5-87.5q38-55 57.5-127.5t19.5-151.5v-22q0-80-19-152.5t-57-127.5q-39-55-96.5-87t-133.5-32q-77 0-135 32t-96 87q-39 55-58 127.5t-19 152.5z"/></svg>