<svg width="77.089" height="18.464" viewBox="0 0 77.089 18.464" xmlns="http://www.w3.org/2000/svg"><path transform="translate(0 14.67) scale(.0068359 -.0068359)" d="m81 0v126l163 28v1147l-163 28v126h649q159 0 268.5-47.5t166.5-137.5 57-220q0-128-55.5-215t-157.5-131.5-242-47.5l-326-6v-496l163-28v-126zm961 0-324 727 197 2 269-582 101-18v-129zm-601 805h269q165 0 240 63t75 184q0 115-72 182t-223 67h-289z"/><path transform="translate(9.4678 14.67) scale(.0068359 -.0068359)" d="m563-21q-150 0-258.5 70.5t-167.5 195-59 284.5v22q0 160 59 284.5t167.5 195.5 256.5 71q150 0 258.5-71t167.5-195 59-285v-22q0-161-59-285.5t-167-194.5-257-70zm0 154q94 0 157.5 51.5t96 141 32.5 203.5v22q0 114-32.5 203.5t-96.5 141-159 51.5q-94 0-158-51.5t-96-141-32-203.5v-22q0-114 32-203.5t96.5-141 159.5-51.5z"/><path transform="translate(17.151 14.67) scale(.0068359 -.0068359)" d="m649-21q-106 0-184 40.5t-130 119.5l-18-139h-170v1405l-163 28v127h360v-606q51 72 126.5 110t176.5 38q134 0 228.5-72.5t145-203.5 50.5-305v-21q0-156-50.5-273t-145-182.5-226.5-65.5zm-50 160q139 0 206.5 99t67.5 262v21q0 125-30 219.5t-91 148-155 53.5q-91 0-153.5-44t-99.5-118v-478q37-75 100.5-119t154.5-44z"/><path transform="translate(24.979 14.67) scale(.0068359 -.0068359)" d="m563-21q-150 0-258.5 70.5t-167.5 195-59 284.5v22q0 160 59 284.5t167.5 195.5 256.5 71q150 0 258.5-71t167.5-195 59-285v-22q0-161-59-285.5t-167-194.5-257-70zm0 154q94 0 157.5 51.5t96 141 32.5 203.5v22q0 114-32.5 203.5t-96.5 141-159 51.5q-94 0-158-51.5t-96-141-32-203.5v-22q0-114 32-203.5t96.5-141 159.5-51.5z"/><path transform="translate(32.662 14.67) scale(.0068359 -.0068359)" d="m456-17q-120 0-190.5 70.5t-70.5 225.5v657h-171v146h171v261h197v-261h235v-146h-235v-657q0-78 31-115t83-37q35 0 78 6.5t67 11.5l27-129q-43-13-105.5-23t-116.5-10z"/><path transform="translate(37.652 14.67) scale(.0068359 -.0068359)" d="m563-21q-150 0-258.5 70.5t-167.5 195-59 284.5v22q0 160 59 284.5t167.5 195.5 256.5 71q150 0 258.5-71t167.5-195 59-285v-22q0-161-59-285.5t-167-194.5-257-70zm0 154q94 0 157.5 51.5t96 141 32.5 203.5v22q0 114-32.5 203.5t-96.5 141-159 51.5q-94 0-158-51.5t-96-141-32-203.5v-22q0-114 32-203.5t96.5-141 159.5-51.5z"/><path transform="translate(48.815 14.67) scale(.0068359 -.0068359)" d="m606-21q-133 0-256 39t-235 120v311h153l33-229q65-40 141-62t164-22q100 0 169.5 30.5t106.5 84.5 37 126q0 67-32 118t-105.5 89.5-200.5 67.5q-150 35-253.5 93.5t-157 142-53.5 191.5q0 114 60.5 204t168.5 142 252 52q153 0 270.5-46.5t193.5-112.5v-291h-153l-33 208q-45 36-112 60t-166 24q-84 0-148-29.5t-100-82.5-36-125q0-63 32.5-110t106-82.5 196.5-66.5q230-57 348.5-168.5t118.5-275.5q0-117-63-207.5t-177.5-141.5-269.5-51z"/><path transform="translate(57.06 14.67) scale(.0068359 -.0068359)" d="M64 0V126L227 154V1405L64 1433V1560H424V154L587 126V0Z"/><path transform="translate(61.523 14.67) scale(.0068359 -.0068359)" d="m424-21q-169 0-257 82.5t-88 232.5q0 154 126 247.5t350 93.5h193v106q0 98-59.5 152t-167.5 54q-68 0-118-16.5t-91-45.5l-21-151h-152v248q73 59 170 89.5t215 30.5q197 0 309-94t112-269v-521q0-21 0.5-41t2.5-40l105-11v-126h-283q-9 44-14 79t-7 70q-57-73-142.5-121.5t-182.5-48.5zm29 165q98 0 179 47t116 113v196h-200q-136 0-204-65t-68-145q0-71 44-108.5t133-37.5z"/><path transform="translate(69.262 14.67) scale(.0068359 -.0068359)" d="m649-21q-106 0-184 40.5t-130 119.5l-18-139h-170v1405l-163 28v127h360v-606q51 72 126.5 110t176.5 38q134 0 228.5-72.5t145-203.5 50.5-305v-21q0-156-50.5-273t-145-182.5-226.5-65.5zm-50 160q139 0 206.5 99t67.5 262v21q0 125-30 219.5t-91 148-155 53.5q-91 0-153.5-44t-99.5-118v-478q37-75 100.5-119t154.5-44z"/></svg>