<svg width="83.984" height="18.75" viewBox="0 0 83.984 18.75" xmlns="http://www.w3.org/2000/svg"><path transform="translate(0 14.844) scale(.0078125 -.0078125)" d="m170 0h192v594h282q234 0 361 120t127 314-127 311-361 117h-474zm192 750v550h282q166 0 231-78t65-194-65-197-231-81zm634-750h214l-380 701-190-29z"/><path transform="translate(9.7656 14.844) scale(.0078125 -.0078125)" d="m85 510q0-238 135-389t361-151 361 151 135 389v32q0 238-135 389t-361 151-361-151-135-389zm190 32q0 163 77 275.5t229 112.5 229-112.5 77-275.5v-32q0-163-77-275.5t-229-112.5-229 112.5-77 275.5z"/><path transform="translate(18.844 14.844) scale(.0078125 -.0078125)" d="m148 0h168l8 137h6q40-65 122.5-111t192.5-46q200 0 320 150t120 380v32q0 230-120 380t-320 150q-110 0-187.5-39.5t-123.5-104.5v608h-186zm186 312v428q31 70 101 125t170 55q150 0 220-109t70-269v-32q0-160-70-269t-220-109q-100 0-170 55t-101 125z"/><path transform="translate(27.984 14.844) scale(.0078125 -.0078125)" d="m85 510q0-238 135-389t361-151 361 151 135 389v32q0 238-135 389t-361 151-361-151-135-389zm190 32q0 163 77 275.5t229 112.5 229-112.5 77-275.5v-32q0-163-77-275.5t-229-112.5-229 112.5-77 275.5z"/><path transform="translate(37.062 14.844) scale(.0078125 -.0078125)" d="m0 910h600v142h-600zm188-650q0-150 68.5-220t183.5-70q50 0 92 9t68 21v152q-28-10-55-16t-55-6q-60 0-88 30t-28 100v1052h-186v-346z"/><path transform="translate(42.141 14.844) scale(.0078125 -.0078125)" d="m85 510q0-238 135-389t361-151 361 151 135 389v32q0 238-135 389t-361 151-361-151-135-389zm190 32q0 163 77 275.5t229 112.5 229-112.5 77-275.5v-32q0-163-77-275.5t-229-112.5-229 112.5-77 275.5z"/><path transform="translate(55.125 14.844) scale(.0078125 -.0078125)" d="m170 0h192v643h611v158h-611v497h710v158h-902z"/><path transform="translate(63.953 14.844) scale(.0078125 -.0078125)" d="M156 0H342V1536H156Z"/><path transform="translate(67.844 14.844) scale(.0078125 -.0078125)" d="m85 510q0-238 130.5-389t375.5-151q150 0 254.5 65t154.5 140l-120 95q-45-60-117-104t-172-44q-162 0-239 112.5t-77 275.5v32q0 163 73 275.5t221 112.5q122 0 187-80t65-194v-24h-622v-148h809v76q0 240-116 381t-331 141-345.5-151-130.5-389z"/><path transform="translate(76.344 14.844) scale(.0078125 -.0078125)" d="m20 0h210l317 484h11l380 568h-210l-297-470h-11zm20 1052 380-568h8l317-484h213l-400 582h-8l-297 470z"/></svg>