<svg width="85.326" height="32.963" viewBox="0 0 85.326 32.963" xmlns="http://www.w3.org/2000/svg"><path transform="translate(0 22.189) scale(.013672 -.013672)" d="m1207-41q-2-20-14-31.5t-31-11.5q-10 0-19 3-19-15-45-23t-49-16q-28 1-55 5t-56 2q-10 7-21 9t-22.5 2.5-22 3.5-20.5 14h-50q-7 0-20.5 6.5t-30 13.5-35 13-34.5 6h-6q-11 9-25.5 13.5t-29.5 8-29 7.5-24 11-23 14.5-27 6.5q-19 11-39.5 19t-41.5 15l-41 15q-20 8-40 19-3-1-7 0t-7 1q-6 0-7-4-7 7-15.5 12t-16.5 12q-4-1-7.5-1.5t-8.5-0.5q-9 0-17.5 2t-16.5 5q-9-20-12-45t-4.5-51.5-3.5-53-9-48.5q2-8 2-16v-17q0-17 5-27-2-9-3.5-17t-3.5-16q1-11 1.5-20.5t0.5-20.5v-17q0-9-2-18-10-6-20-11.5t-20-13.5q-7 13-24 15-4-5-5.5-13.5t-9.5-8.5q-14 11-23 18t-20 21q-1 2-1 5 0 5 2 9t2 8q0 12-3 21-2 13-3 25.5t-1 24.5q0 17 2.5 33t9.5 33q11 29 15.5 61t6.5 64.5 2.5 65.5 3.5 63q-7 16-16.5 25.5t-9.5 30.5q0 19 12 29.5t21 25.5q-2 6 3 8l12 105q1 11 3.5 24t3.5 24q2 23 2 45t2 44q5 49 9.5 97t4.5 96q0 23-1.5 46t-6.5 46q-17-5-37.5-10.5t-34.5-18.5h-8q-26 0-48.5-10t-45.5-19q-10-5-20-6.5t-21-4.5q-5-1-11-6t-11-7l-17-4q-7-2-6-9t-5-9q-5-5-14-4.5t-14 0.5h-4q-25-18-48.5-30.5t-55.5-16.5l-22-14q-11-7-25-7-11 0-18 4-8 12-12.5 27t-15.5 26q5 5 6.5 13.5t3.5 15.5q30 13 60.5 25t58.5 29q3-1 9-1 10 0 18 3t16 7 16 7 19 2q34 19 72 31t72 33q5 0 8.5-2t7.5-2 5 1q6 8 16 11.5t20.5 6 20 7 12.5 14.5q5-4 15-4 17 0 31.5 7t31.5 7q4 0 7.5-1.5t7.5-1.5q8 0 8.5 5t5.5 9q61 11 121.5 20t122.5 9q9 6 20 6t20-6q17 2 34 3t34 1q39 0 80-5t81.5-15.5 77.5-28 69-41.5q3-9 8-18t13-14q0-2-0.5-3t-0.5-3q0-11 6.5-21t6.5-24-4.5-28-3.5-28q-11-16-18.5-29t-9.5-33q-18-18-32-39.5t-28.5-42-32.5-37.5-43-27q-1-10-8-22h-21q-3-8-10-12l-14-8q-7-4-11.5-10t-4.5-17q-2 1-5 1-10 0-23.5-10t-21.5-16q-17-12-34.5-22t-30.5-28q-40-17-76-39.5t-78-35.5q-16-17-37.5-26.5t-41.5-20.5v-3q0-8 6-15.5t14-13 17.5-7.5 16.5 0q20-18 46-29t54-20 55-19 50-25h24q23-20 54.5-30t60.5-18q12-11 30.5-16.5t35.5-5.5h6q4 0 7 1v-2q0-5 3-6.5t6.5-2 7-2 5.5-4.5h10q21 0 40-8.5t40-8.5q9 0 14 2 6-2 9-8t8-10q7 1 13 1.5t12 0.5q22 0 41-5t39-15q32 14 63 23t66 9v-2q0-12 6.5-22.5t11.5-21.5zm-383 798q0 12-4.5 19t-11.5 12.5-14.5 10.5-13.5 13q-26 8-51 18t-51 17q-13 3-26 5.5t-26 2.5h-22q-6 1-12.5 2.5t-12.5 2.5q-14 2-27.5 3t-27.5 1q-26 0-52-2l-52-4q-11-1-23-1t-22-2q-5-1-14-4.5t-19-7-19.5-7.5-16.5-6q1-7 1-14v-13q0-15-1-30t-4-30q-1-6-3-12t-3-12q-2-9-2-20v-19q-2-23-3-45t-3-45q-6-66-12.5-131t-8.5-131q33 7 63 21t59 30.5 58 32.5 61 27q8 11 19.5 18t19.5 18q10 0 15 4.5t13 6.5q48 42 98 79t96 79q4 14 13.5 27.5t18.5 27.5 16 28 7 30z"/><path transform="translate(12.031 22.189) scale(.013672 -.013672)" d="m646 579q-6-9-7-20t-1-20q0-12 0.5-23.5t0.5-22.5v-15q-2-7-6-14t-6-14q-14-37-14-74v-2q-5-12-9.5-22t-8.5-19.5-6-20-1-24.5q-14-35-37-63.5t-45-58.5q-21-8-38.5-21t-33.5-29q-31-10-61-23t-54-35q-19-2-38-6t-37-12h-12q-9 0-13 4-13-7-27-9.5t-28-2.5q-18 0-35.5 2.5t-35.5 5.5q-10 14-28 21.5t-32 14.5q-29 40-42 77.5t-27 84.5q2 14 7 27.5t4 29.5q18 52 47.5 94.5t67.5 81.5q0 6 2.5 10t0.5 12q1-1 4-1 8 0 10 4.5t1 10.5q36 23 65.5 53t67.5 50q3 9 10 15t11 14q32 9 58 27t55 32q16 9 30.5 12.5t31.5 7.5q6 2 11 3t11 1q18 0 35-6.5t35-6.5q5 0 8.5 0.5t7.5 1.5q17-21 43-32 6-15 14.5-26t17.5-21.5 16.5-23 9.5-29.5zm-100-52q0 5-1 9-10 3-19 8t-20 5q-7 0-14-3-1 7-5.5 10t-10 5.5-11 4-9.5 5.5q-3 8-6.5 16.5t-12.5 12.5q-9-9-21-14.5t-24.5-10.5-24-12-19.5-17h-18q-6-11-17-16.5t-19-15.5q-16-8-29.5-19.5t-26.5-24-25.5-25.5-26.5-24q-13-28-28.5-48.5t-29-41.5-23-45.5-9.5-60.5v-10q0-5 1-10 13-14 21.5-30t28.5-23q20-8 42.5-7t43.5-5q48 9 92.5 29.5t84.5 49.5q6 5 14 10.5t13 11.5q5 5 8.5 11t7.5 11q8 13 18 26t21 24q5 22 13 42.5t16 40.5 13.5 41 5.5 44q0 5-0.5 11t-1.5 11q8 11 8 24z"/><path transform="translate(21.629 22.189) scale(.013672 -.013672)" d="m763 180q0-10-5.5-16.5t-13-11.5-15-9-13.5-10q-4-4-5.5-9.5t-5.5-7.5q-6-5-13-6t-14.5-2.5-14.5-4-12-9.5q-47-5-92.5-13t-93.5-8q-9 0-19.5-1.5t-19.5-2.5q-21-2-41.5-3t-41.5-1q-29 0-58 2.5t-57 8.5q-7 5-16 8t-18.5 6-17.5 7-12 12q-15 1-26.5 6t-21 11.5-19.5 13.5-23 12q-10 14-20.5 27.5t-25.5 22.5q-3 19-9.5 38t-13 37.5-11 37.5-4.5 39q0 14 4 34t10.5 40.5 15.5 38.5 18 29q3 3 7 5t7 6q9 10 19 16.5t21 15.5q4 4 6.5 9t7.5 9q3 2 8.5 1t9.5 2 4 7 3 7q1 1 6 0.5t6-0.5q7 0 16 9.5t15 12.5q7 4 14 5.5t15 5.5q11 6 21.5 9.5t21.5 8.5q6 2 11 7t10 7q9 3 19.5 4.5t20 3 19 4 17.5 9.5h8q18 0 35 5t35 5q5 0 15-2 8 5 18 5 17 0 34-8.5t35-8.5h6q4 0 8 1 11-11 26.5-12t26.5-9q7-6 11.5-14t7.5-17l6-18q3-9 8-16-5-36-29.5-57.5t-61.5-21.5q-14 0-23.5 3.5t-17 7.5-15.5 8-18 6q11 20 14 43-11 5-22 7t-21 7q-27-7-52.5-9.5t-47.5-21.5q-5 1-10.5 2t-10.5 1q-6 0-24-8.5t-38.5-19.5-39-22-25.5-15q-8-5-14-12t-12-14.5-12-14-15-9.5q-2-11-7-19t-11-17q-1-18-3.5-36t-2.5-36v-13q0-6 2-11 10-13 16.5-29t22.5-22q1-4-0.5-5t-2.5-5q6-11 15.5-17.5t19.5-13 19-13.5 14-18q15 0 28.5-5t26-11 24-11 23.5-5q11 0 20 3 26-8 52.5-11.5t53.5-3.5q33 0 66 4t66 7q12 2 23 2t22 2q14 2 26.5 13t24.5 16q11-7 26-7 17 0 33 5.5t33 5.5z"/><path transform="translate(31.773 22.189) scale(.013672 -.013672)" d="m804 51q0-8-7-13t-16-10l-18-9q-9-4-12-11-11 3-21.5 4t-20.5 1q-13 0-27-2.5t-22-13.5q-5 2-9 2h-8q-15 0-30.5-2.5t-30.5-2.5q-8 0-15.5 1t-13.5 6q-9-3-19-3-13 0-25 4t-23.5 9.5-23.5 10.5-24 8l-7 14q-16 3-29.5 9.5t-26.5 14.5-25.5 15.5-25.5 10.5q-5 4-9 7.5t-6 10.5q-13 3-24 8l-21 11q-10 6-22.5 10.5t-29.5 5.5q-6 9-17 17t-22 8q-7 0-11-3v-5q0-12 7-24t18-17q-1-2-1-6 0-6 2.5-12t9.5-8q-4-11-10-22.5t-15-21.5-19.5-16.5-23.5-6.5q-4-2-5.5-6t-2-8.5-2-8.5-4.5-6q-4-1-11-1-10 0-17 3t-15 8v4q0 12-4.5 19t-10 13.5-10 13.5-4.5 19q-3-2-6.5-3t-4.5-4q-2 10-2 17 0 20 6.5 38t6.5 38v15q0 23-1 45t-1 44q0 19 1 37.5t4 37.5q11 66 18.5 131.5t24.5 130.5q-1 5-2.5 10t-1.5 10q0 4 1 5 4 20 18 33.5t36 13.5h3q12-5 18.5-14.5t20.5-7.5q0-2-0.5-4t-0.5-4q0-11 6-16t14-11q-5-10-6.5-23t-2.5-26-3.5-25-9.5-20q4-10 5-20t1-21-1-22.5-1-23.5q0-11 3-20 22 0 25 21 26 7 46.5 19.5t39.5 26.5 37.5 29 41.5 26v2q0 5 3 6.5t1 8.5q15 5 25.5 13.5t19.5 18.5l19 21q10 11 22 19 8 17 14.5 36t17.5 35q19 0 41.5-3t38.5-14q-2-8 7-11-11-42-33-75.5t-57-56.5q-5-11-13-19t-16-15.5-16-15.5-13-19q-12-2-20.5-7t-16-11.5-16-12-18.5-8.5q-8-10-18.5-17t-21-13.5-19.5-14-13-19.5h-26q-11-19-28.5-31.5t-35.5-23.5q3-12 11-19.5t17.5-13.5 19-12.5 16.5-15.5q42-16 81-36.5t74-49.5q2 1 5 1 8 0 13-4.5t14-3.5q4-10 11-13.5t14.5-5.5 14.5-6 10-14q15-1 27.5-6t22.5-16h12q32 0 62-6t61-6q16 0 31 2.5t29 9.5q5-3 11-6t13-3q5 0 15 2 1-11 7.5-21t6.5-22z"/><path transform="translate(46.266 22.189) scale(.013672 -.013672)" d="m821 37q0-10-1-15-5-2-8-5.5t-10-2.5q-2-15-10-25t-16.5-18.5-16.5-18-10-24.5q-15-8-29.5-21.5t-25.5-18.5q-8-4-17-6.5t-18-6.5q-29-13-59.5-27t-63.5-14h-7q-4-4-10-5.5t-12-2.5-12-3-9-6q-11 4-24 4h-7q-17-4-32-6t-32-2q-30 0-60 4t-60 7q-19 15-31 37.5t-12 47.5q0 19 8 35.5t21 29.5h3q9 0 18.5 4t18.5 4q10 0 16.5-8t10-19 4.5-22.5 1-18.5q11-5 23.5-6t25.5-1 29 1.5 32.5 5 32 8.5 26.5 13q55 5 97 25t89 47q2 11 8.5 17.5t6.5 19.5q0 2-0.5 4.5t-0.5 4.5q-20 25-41.5 44t-55.5 25q-4 9-13 13.5t-19 8.5-19 8.5-13 15.5q-27 5-55.5 12.5t-48.5 27.5q-16 1-30.5 6.5t-28.5 11-29 10-31 4.5q-4 7-11 11t-15.5 7-16 6.5-11.5 10.5q-4-1-6-4t-7-3h-4q-2 6-8 8.5t-7 10.5q-18 1-32.5 7t-27 13.5-25.5 14.5-29 11q-10 8-18.5 17.5t-21.5 9.5q-3 0-11-2-2 18-15 25.5t-28 13.5q-10 26-27 46t-37 37q2 6 2 9 0 10-5 17.5t-11 12.5q-14 45-14 88 0 60 26.5 111.5t83.5 77.5q1 8 5.5 14t5.5 14q9 0 14 4t9.5 8.5 9.5 8.5 13 5q38 33 81 53.5t88 42.5q9 4 15 15h6q10 0 15.5 4.5t16.5 2.5q4 6 10.5 8t13 3.5 12.5 4.5 8 9h7q17 0 33 5.5t32 12.5h7q20 0 37.5 7.5t37.5 10.5q8 2 16 1t16-1q5 0 12 1t10 6h2q6 0 7-4t6-4q7 0 14 2t14 2q30 0 59.5-6t58.5-11q2-12 10.5-17t18.5-9v-4q0-8 4-13-4-14-14-21t-22-12q5-4 6-11t1-13v-12l-5 1q-16 0-16-15-13 8-28.5 10t-30.5 2q-20 0-42-1.5t-43 0.5q-8-10-20-14.5t-24-4.5q-13 0-25 5.5t-17 16.5q-5 2-9 2h-9q-16 0-31.5-3.5t-31.5-8-31.5-9-31.5-5.5q-6-8-16-11t-16-11q-21-4-38-13.5t-33-20.5l-31-21q-15-10-34-17-14-15-26-24t-31-16q-12-4-13.5-12t-8.5-16q-6-7-14.5-10.5t-14.5-11.5q-5-7-7.5-16.5t-5.5-18.5-7-17.5-12-14.5q0-4-0.5-8t-0.5-7q0-14 3.5-28.5t4.5-28.5q20-35 47-63.5t58-52.5 64.5-45 66.5-41q12 1 22-2.5t21-4.5q12-9 28-14l32-10q16-5 31-11.5t25-17.5q5-1 9-2.5t9-1.5q6 0 7 4 45-17 88-37.5t91-31.5q19-16 42-28t46-24.5 44-27 37-34.5q2-19 8.5-36.5t6.5-37.5z"/><path transform="translate(58.051 22.189) scale(.013672 -.013672)" d="m757 73q-3-14-12.5-22.5t-22.5-13.5-26.5-6.5-24.5-1.5q-5 0-9.5 0.5t-9.5 0.5-5-5-5-7q-5 2-10 3t-10 1q-7 0-13.5-1t-12.5-1q-8 0-11.5 2t-6 4.5-5 5.5-7.5 5q-7 3-11.5 1t-13.5 6q-12 10-20.5 24.5t-16.5 30.5-17 32-21 28h-8q-18 0-25-15-5 3-10 7.5t-11 7.5q-23-7-48-12t-50-5h-14q-6 0-13 2-10-4-18-9.5t-18-5.5q-6 0-14 4-6 0-5.5-5t-6.5-5h-9q-14 0-27.5-1t-27.5-1q-19 0-39 5-5-3-11-3-4-2-6-6.5t-4-8-5.5-6-9.5-1.5q-2-12-10-19t-8-21q-11-6-18-15t-14-19-14.5-19-18.5-14q-5-6-3-19-11-9-27-16t-30-7q-29 0-40 31 0 10 1.5 21.5t4.5 22 9 19 17 12.5q0 9-6 12.5t-5 12.5q27 13 47 34t36.5 44.5 33.5 47.5 38 43v21q30 32 39 72 11 2 14.5 10t3.5 19q5 0 6.5 4.5t8.5 2.5q9 24 20 44t22 40.5 19.5 42.5 12.5 49q14 1 15.5 13.5t3.5 22.5q15 14 22.5 33t13.5 39.5 13.5 41 21.5 36.5v3q0 5-4 6.5t-4 6.5q1 1 1 2 12 5 18 16.5t18 16.5q21-17 37-20.5t42-5.5q13-14 14.5-33.5t6.5-38.5q8-32 17.5-62.5t14.5-62.5q3-19 11-36t11-35q2-14 0-31.5t4-30.5l7-16q5-11 8.5-23t6.5-24q8-30 14.5-64.5t20.5-62.5q5-10 15.5-14t23.5-5.5 25.5-1 21.5 0.5h10q6 0 12-2 4-8 4-14 0-12-8-19t-8-16q0-5 4-11-4 1-12 1-23 0-45-8 8-17 21.5-28.5t28.5-21.5q10 8 21 8 12 0 22.5-5.5t22.5-5.5q9 0 13 3 8-9 13-18.5t13-17.5zm-313 160q-2 17-6.5 24.5t-7.5 18.5q-4 14-5.5 30t-4.5 31q-7 34-15.5 68t-21.5 66q4 6 4 11v3q-9 10-13 24.5t-7.5 29-9 27-17.5 20.5q-3-6-3-14 0-7 1.5-13t1.5-13q-10-5-14.5-15.5t-14.5-16.5q-8-32-23-60.5t-31.5-56.5-31.5-56.5-24-59.5q-13-9-17.5-23t-4.5-28q9-5 20.5-5.5t22.5-0.5 21-2 18-10q13 4 28.5 5.5t25.5 8.5q20-7 43-7 12 0 23.5 2t22.5 5q9-2 14-6.5t15-3.5q5 4 6 8.5t5 8.5z"/><path transform="translate(68.113 22.189) scale(.013672 -.013672)" d="m558 257q0-11-8-16.5t-8-14.5q0-4 4-10-14 0-19-9t-10-20h-13q-5 0-8-2t-5.5-5.5-6.5-10.5q-19-4-36.5-12.5t-34-18-33.5-19-35-15.5q-9-15-26-24h-3q-5-1-8.5 1.5t-8.5 2.5q-3 0-4-1-30-20-67-20-10 0-19 1.5t-19 1.5q-3 0-4-2l-2-4q-1-2-2.5-4t-7.5-2q-11 0-22 3t-23 1q-23 13-36 25t-24 36q-5 11-13.5 21t-12.5 22q-1 4-3 14.5t-4 22.5-3.5 23-1.5 15q0 12 1.5 23.5t3.5 23.5q6 38 8.5 76.5t16.5 74.5q-2 11-2 21v22q0 19-5 32 8 13 8 29 0 18-15 21v3q0 21-14 33 0 35 17.5 52.5t46.5 30.5q4 6 3 10 7-2 13-4t12-2q10 0 18 3 3-12 15.5-14.5t20.5-6.5v-13q0-31 15-59-4-8-5-17t-1-17q0-12 1-24t1-23q0-12-2.5-24t-11.5-21q-1-13-1.5-29.5t-2-33.5-5.5-33-12-26q-1-15-1.5-30.5t-0.5-29.5q0-22 2.5-52t13.5-50q5-8 19.5-12t23.5-4q11 0 22.5 3.5t16.5 12.5q6-1 8-6t7-8q57 24 114 46t112 51q8-4 17-4 10 0 20 2t20 2h7q2-6 2-9z"/><path transform="translate(75.469 22.189) scale(.013672 -.013672)" d="m874 643q-4-13-13-24l-17-21q-8-10-13.5-21.5t-3.5-26.5q-2 0-5 0.5t-5 0.5q-16 0-24.5-7.5t-22.5-12.5q-2 6-5 11.5t-9 7.5q-24-5-48-7.5t-48-6.5q-11-2-22-5.5t-23-6.5q-6-2-13-1.5t-14-0.5q-24-1-52-3.5t-50-15.5q-10 2-21 3t-22 1q-24 0-52.5-4.5t-50.5-17.5q-5 2-10.5 3t-12.5 1q-2 0-3-0.5t-3-0.5q-1-9 2.5-17.5t12.5-13.5q-4-11-4-24 0-17 2.5-34t2.5-34q0-19-5-30 10-30 10-64 0-12-1.5-23.5t-1.5-24.5q0-11 8-17.5t8-17.5q0-4-2-8 14 3 27 8.5t27 5.5q8 0 15.5-3t13.5-8q-1-5-1.5-11t-0.5-12q0-11 0.5-20.5t1.5-20.5q-8-14-18.5-25t-14.5-28q-15 0-26.5-6.5t-21.5-14-20-14-22-6.5q-15 0-21 4.5t-9 9.5-5.5 9-10.5 3q-2 13-8 24.5t-12.5 22.5-13 22.5-9.5 23.5q-6 26-5 54t-9 54q2 14 3 28.5t1 28.5q0 28-1.5 55.5t-2.5 56.5q-7 9-8.5 20.5t-2.5 22.5q-3 3-6.5 6t-4.5 8q-8 2-12 2-14 0-23.5-6.5t-17.5-6.5-15 2-14 2q-6 0-6.5-2.5t-4.5-4.5q-3-2-14-4t-24.5-3.5-26-2.5-16.5-1q-16 0-24.5 6.5t-20.5 14.5q2 6 2 8 0 10-6 16.5t-6 11.5q0 11 8.5 17t9.5 19q23 10 47 15t49 8 49.5 7 48.5 13q7-1 13.5-1.5t13.5-0.5q30 0 59.5 6.5t60.5 6.5q8 0 16-1t16-3q40 6 79.5 13t81.5 12q20 2 39.5 3.5t39.5 4.5q7 1 10.5 3.5t3.5 10.5q9-4 20-4 17 0 33 6t33 6q4 0 7-0.5t6-0.5q7 0 7.5 6.5t9.5 8.5q7 2 20 3t27.5 2.5 27 4 18.5 7.5l7 11q18-1 26.5-15.5t9.5-31.5q4-4 11.5-3.5t13.5 0.5z"/></svg>