<svg width="41.216" height="15.918" viewBox="0 0 41.216 15.918" xmlns="http://www.w3.org/2000/svg"><path transform="translate(0 11.438) scale(.014 -.014)" d="m37 0v59h74v465h-74v59h309q98 0 147-42.5t49-125.5q0-84-49.5-126t-140.5-42h-17l55 28 134-216h78v-59h-138l-153 247h-71v60h91q69 0 97.5 29t28.5 79-27.5 79.5-98.5 29.5h-138v-465h74v-59z"/><path transform="translate(8.736 11.438) scale(.014 -.014)" d="m249-10q-63 0-110.5 27.5t-73.5 75-26 105.5q0 60 26 107t73.5 74.5 110.5 27.5q64 0 111.5-27.5t73.5-74.5 26-107q0-58-26-105.5t-73.5-75-111.5-27.5zm0 60q63 0 101 41.5t38 106.5q0 66-38 107t-101 41q-62 0-100-41t-38-107q0-65 38-106.5t100-41.5z"/><path transform="translate(15.722 11.438) scale(.014 -.014)" d="M158 56H216V0H15V56H84V527H10V583H158V208L329 341H263V397H461V341H400L209 195L230 230L405 56H480V0H357L158 201Z"/><path transform="translate(22.484 11.438) scale(.014 -.014)" d="M158 56H216V0H15V56H84V527H10V583H158V208L329 341H263V397H461V341H400L209 195L230 230L405 56H480V0H357L158 201Z"/><path transform="translate(29.246 11.438) scale(.014 -.014)" d="m22 0v56h69v285h-74v56h148v-341h64v-56zm106 471q-25 0-38.5 14.5t-13.5 35.5q0 22 13.5 36.5t38.5 14.5q24 0 37.5-14.5t13.5-36.5q0-21-13.5-35.5t-37.5-14.5z"/><path transform="translate(32.816 11.438) scale(.014 -.014)" d="m216-10q-60 0-97.5 32.5t-37.5 104.5v214h-74v56h74v133l73 14v-147h112v-56h-112v-203q0-49 21-67t56-18q13 0 26 3t23 7l11-56q-15-7-34.5-12t-40.5-5z"/><path transform="translate(37.016 11.438) scale(.014 -.014)" d="m216-10q-60 0-97.5 32.5t-37.5 104.5v214h-74v56h74v133l73 14v-147h112v-56h-112v-203q0-49 21-67t56-18q13 0 26 3t23 7l11-56q-15-7-34.5-12t-40.5-5z"/></svg>