<svg width="57.036" height="19.642" viewBox="0 0 57.036 19.642" xmlns="http://www.w3.org/2000/svg"><path transform="translate(0 13.706) scale(.014 -.014)" d="m49 723 152-3h119q113 0 178-48.5t65-150.5q0-77-40.5-126.5t-110.5-69.5q35-61 87.5-139t85-114.5 54.5-40 68-3.5q2-8 2-15.5t-2-15.5q-73-4-113.5-10.5t-48-6.5-30 25.5-52.5 71-54.5 84.5-55 89.5-37.5 61.5q-64 0-99 4v-149q0-60 7-132 31-7 88-7 3-8 3-17.5t-3-13.5l-133 3q-76 0-139-8-5 6-5 17l1 8q52 12 68 37 13 20 17 50 12 91 12 246 0 331-18 337-19 5-66 5-4 7-4 13t4 18zm179-39q-11-44-11-332 36-3 100-3t111.5 44 47.5 117.5-41.5 125.5-110.5 52-96-4z"/><path transform="translate(9.856 13.706) scale(.014 -.014)" d="m549 244q0-222-258-264-106 0-178.5 75.5t-72.5 188.5q0 224 259 265 105 0 177.5-77t72.5-188zm-236-221q144 0 144 184 0 104-48 182t-127 78-114.5-50.5-35.5-144 49-171.5 132-78z"/><path transform="translate(18.102 13.706) scale(.014 -.014)" d="m319 447q-30 26-77 26-97 0-97-78 0-25 18.5-47.5t45.5-35.5l78-37q114-55 114-147 0-68-54-108t-128-40q-39 0-81.5 7.5t-60.5 15.5q-3 45-18 125 11 7 18.5 7t10.5-2q20-60 35-77 11-11 39-24t66.5-13 66.5 21 28 63q0 28-11 42t-18.5 21.5-17 13.5-16 9.5-13 7-7.5 3.5l-75 36q-97 46-97 133 0 71 54 105.5t122 34.5q33 0 74.5-8.5t62.5-17.5q-7-24-16-112-5-4-13.5-4t-16.5 2q-8 50-16 78z"/><path transform="translate(24.584 13.706) scale(.014 -.014)" d="m395 364-3-244q0-73 47-73l36 1q4-5 4-16l-2-11q-77-14-110-41-22 6-37.5 27.5t-17.5 45.5q-80-49-159-73-34 0-70 38.5t-36 96.5q0 29 13 52.5t31 32.5q74 37 220 65v95q0 55-17.5 82t-42 27-52.5-8.5-39.5-32.5-11.5-68q0-4-13.5-8.5t-34-4.5-28 9.5-7.5 28.5q0 36 52 78 12 8 70.5 27t67.5 19q72 0 106-42t34-103zm-87-271q3 59 3 136-84-11-148-48-27-13-27-61 0-24 19-52t43.5-28 56.5 17 53 36z"/><path transform="translate(31.486 13.706) scale(.014 -.014)" d="m67 449-39-1q-5 5-5 15l2 12q68 9 111 28 14 6 17 6 11 0 25-39.5t17-78.5q75 78 136 118 40 0 66-23.5t26-58.5q0-40-71-40-15 53-51 53-24 0-100-83-6-76-6-242 0-83 13-84 23-3 81-3 3-7 3-16t-3-15l-112 3q-82 0-145-8-5 6-5 17l1 8q53 10 68 31 11 16 16 51.5t5 139.5-0.5 115-1.5 29-4 27-9 20q-10 19-35 19z"/><path transform="translate(37.408 13.706) scale(.014 -.014)" d="m269-3-90 3q-70 0-132-8-6 8-6 17l2 8q43 10 58 31 11 16 17 38.5t6 129.5v96q0 62-5.5 86t-16.5 32-29 10l-37 3q-3 4-3 13l3 13q52 11 84.5 22.5t76.5 33.5q11 0 15-12-12-68-12-324 0-46 3.5-101.5t9.5-56.5q15-3 56-3 3-7 3-16t-3-15zm-94 642q-36 25-51 66 12 14 32.5 29.5t35.5 21.5q38-28 49-67-28-36-66-50z"/><path transform="translate(41.846 13.706) scale(.014 -.014)" d="m92 493 84 3q3-5 3-15l-3-16q-31 0-44-2 9-71 47-155l88-193 69 185q36 97 45 160-30 5-64 5-2 7-2 16.5t2 14.5q40-3 87.5-3t83.5 6q7-11 7-26-25-11-36-22-34-34-63-107l-148-364h-15l-148 348q-41 99-65 125-13 16-40 24-1 3-1 11t6 15q69-10 107-10z"/><path transform="translate(48.79 13.706) scale(.014 -.014)" d="m549 244q0-222-258-264-106 0-178.5 75.5t-72.5 188.5q0 224 259 265 105 0 177.5-77t72.5-188zm-236-221q144 0 144 184 0 104-48 182t-127 78-114.5-50.5-35.5-144 49-171.5 132-78z"/></svg>