<svg width="44.646" height="16.968" viewBox="0 0 44.646 16.968" xmlns="http://www.w3.org/2000/svg"><path transform="translate(0 13.678) scale(.014 -.014)" d="m71 728h217q69 0 125-17.5t88.5-61.5 32.5-122q0-40-19-77t-50.5-64.5-69.5-39.5l204-346h-108l-188 327h-125v-327h-93v662zm107-69v-264h80q50 0 90.5 11.5t64.5 41.5 24 85q0 43-21 70.5t-55 41.5-73 14z"/><path transform="translate(8.274 13.678) scale(.014 -.014)" d="m265-13q-73 0-122.5 36.5t-74 95.5-24.5 126q0 50 15 97.5t44 85 71.5 59.5 96.5 22q74 0 123.5-36t74-95 24.5-127q0-51-15-98.5t-43.5-84.5-71-59-98.5-22zm1 63q39 0 65.5 18.5t43 48.5 23.5 64.5 7 66.5q0 33-6.5 67.5t-21.5 64-41.5 48-65.5 18.5-65.5-18.5-42.5-48.5-23-64.5-7-66.5q0-31 7-65.5t22.5-64.5 41.5-49 63-19z"/><path transform="translate(15.792 13.678) scale(.014 -.014)" d="m244 509q34 0 67.5-8.5t61.5-26.5l-29-64q-22 18-49 27t-53 9q-37 0-64.5-17t-27.5-51q0-24 11.5-40t30.5-27 41-22q25-12 50.5-24.5t47-30 35-42 13.5-60.5q0-50-24.5-82.5t-64-47.5-85.5-15q-40 0-80 11t-74 31l35 61q24-18 54-29t58-11q38 0 66.5 18t28.5 54q0 25-15.5 41.5t-39.5 29.5-50 25q-30 15-58.5 32.5t-46.5 44.5-18 69q0 48 25.5 80t66.5 48.5 87 16.5z"/><path transform="translate(21.812 13.678) scale(.014 -.014)" d="m253 509q79 0 119-43t40-121v-249q0-21 8-28.5t19-7.5q9 0 19 2.5t19 6.5l18-54q-16-9-40.5-16.5t-50.5-7.5-47 14.5-26 53.5q-29-31-68-50.5t-82-19.5q-59 0-98 35t-39 96q0 57 27.5 91t71.5 51 93.5 23 92.5 6v53q0 28-7 50.5t-25 36-51 13.5q-38 0-73-15t-70-44l-41 59q41 33 90 49t101 16zm76-283q-27 0-61-2.5t-66-12-52.5-30.5-20.5-58q0-33 22.5-48.5t56.5-15.5q36 0 63 20t42.5 51 15.5 64z"/><path transform="translate(28.728 13.678) scale(.014 -.014)" d="m139 506q18-44 23-93 26 41 70 67t93 26l-20-88q-48 0-81.5-25t-59.5-63v-330h-83v360q0 20-3 45t-10 49-19 41z"/><path transform="translate(33.614 13.678) scale(.014 -.014)" d="m185 664q0-25-17.5-43t-43.5-18q-25 0-42.5 18t-17.5 43 17.5 43 42.5 18 43-18 18-43zm-18-167v-497h-83v438l-12 59z"/><path transform="translate(37.128 13.678) scale(.014 -.014)" d="m265-13q-73 0-122.5 36.5t-74 95.5-24.5 126q0 50 15 97.5t44 85 71.5 59.5 96.5 22q74 0 123.5-36t74-95 24.5-127q0-51-15-98.5t-43.5-84.5-71-59-98.5-22zm1 63q39 0 65.5 18.5t43 48.5 23.5 64.5 7 66.5q0 33-6.5 67.5t-21.5 64-41.5 48-65.5 18.5-65.5-18.5-42.5-48.5-23-64.5-7-66.5q0-31 7-65.5t22.5-64.5 41.5-49 63-19z"/></svg>