<svg width="132.19" height="18.96" viewBox="0 0 132.19 18.96" xmlns="http://www.w3.org/2000/svg"><path transform="translate(0 14.96) scale(.016 -.016)" d="m702 22q0-3-2-9-1-3-3.5-5.5t-4.5-4.5q-2-4-4-8.5t-4-9.5l-16-28q-4-7-7.5-14t-8.5-13q-1-2-4-5t-3-3q-2 16-2 31.5t-2 30.5q-1 1-2 0.5t-2-0.5q1 0-4-3.5t-7-4.5q-1-1-2-3.5t-3-2.5q-1-1-2 1t-2 3q-3 5-6.5 9t-5.5 8q-2-7-1.5-15t-2.5-16q-1-2-2 2t-2 6l-2 20q-1-1-1.5-2t-1.5-3q-2-3-6-7 1 0-2-1t-3-1q-1-10-1.5-20.5t-2.5-21.5q0-3-1-7.5t-3-3.5q-3 3-3 8t-1 9q-1 6-1.5 12t-2.5 12q0 6-3 9-2-1-4.5-4t-4.5-6q-2-4-4.5-7.5t-6.5-6.5q-1-1-3-1 0 0 0-0.5t-1-0.5q-1-16-1.5-32t-2.5-33q-1-8 0.5-18t-5.5-15q-4-4-3.5 7.5t-0.5 17.5q-1 20-1 39t-2 38q-1 1-2.5 3t-3.5 3q-2 3-6 7-3 3-6 6.5t-7 6.5q-3 4-8 5 3-1 0 0t-7 3h-3q-2-13-2-27t-2-28q-1-3-2 2t-3 7q-1 8-2.5 9.5t-3.5 3.5q-1-1-3 1-8 7-5.5 19t1.5 22q0-4-0.5-7.5t-2.5-5.5q-1-1-1.5 3.5t-1.5 7.5q-2 4-2 7-1-4-2-3-4 7-2 6t3 0-7 14l-3 3q-1 2-3 4.5t-4 5.5q0 2-2 4-2 4-3.5 8t-3.5 8q-3 8-6.5 15.5t-6.5 14.5q-5 10-10 21.5t-10 23.5q-2 6-4 8-4 12-10 23-1 2-2 4.5t-2 4.5l-7 15q0 2-1 3 0 0-0.5 0.5t-0.5 1.5q-1 2-2 5t-3 5q-1 3-2 6t-3 6l-3 7-7 7q0-2-2-4-2-4-2-6l-3-8q-2-4-4-6-3-4-8-4-5 2-8 9t-5 11q-1 0-1 0.5t0 0.5q-4 11-3.5 6t-0.5-7v-147q0-10 1-22t-2-23q-4-8-4-7l-2-2q-1-1-1.5-2t-2.5-2-4.5-4-3.5-4q-2-4-4-5-3-6-4-5 0 0-0.5 0t-0.5 1q-2-10-3-20.5t-4-21.5q-1-2-1.5-5t-2.5-5q-1-1-2.5 0t-1.5 2q-1 2-2 5t-2 5q-1 4-2 7.5t-2 7.5q-1 3-1.5 6.5t-2.5 6.5l-6-6q-1-1-2-1-3-3-5-4-1-22-1-48.5t-2-49.5q0-6 1-16.5t0.5-17-5.5-3.5q-9 6-6 19t2 23q-1 23-1.5 46.5t-2.5 45.5q-1 1-2.5 2.5t-3.5 3.5q-1 3-2.5 5.5t-3.5 5.5q-2 4-2 4t-2 4q0 0-2 4-2-4-2-4-1-1-5.5-2t-6.5-1q-9-1-14.5 4.5t-13.5 8.5q-6-1-10.5-4.5t-9.5-5.5q-7-2-17 1l-7 3h-1q-2-1-5.5-3t-6.5-3q-7-2-15 3t-17 11q-4 2-7 4-11 8-11 22v630q0 8 0 16.5t5 15.5q4 6 11 9 6 2 10 2 5 1 10.5 0.5t10.5-0.5h246q20 0 40 0.5t39-2.5q51-4 93.5-18.5t73.5-37.5q6-3 11-8 0 0 0.5-0.5t0.5-1.5q1 0 2-1 37-31 56.5-75t19.5-99q0-33-8-63-2-19-8-25-2-4-2-5-5-12-11.5-23t-14.5-22q-1-1-2-2.5t-2-2.5-2-2-2-3l-8-9q-1-1-2.5-2t-2.5-3q-3-2-5.5-5t-5.5-5q-1-14 4-42t6-55q2-3 4-6t3-7q10-17 20-42l24-44q5-10 10.5-19t10.5-18q2-4 4-7t3-7q1-1 2-3.5t1-4.5q2-4 2-8zm-389 386h65q5 0 13 2 10 3 16.5 12t10.5 21q2 5 3 10.5t1 11.5q0 11-4 22t-13 18q-4 4-11 4.5t-13-0.5q-11-1-22.5-2.5t-23.5 0.5q-6 1-11.5 2.5t-10.5 2.5q-2 1-2.5 1.5t-5.5 0.5v-85q0-18 2-17t6-4zm283-184q5 38 5 55 0 0-2-2 0-1-0.5-1.5t-0.5-1.5 0-4-2-9q-2-4-4-5-3-1-4 4t-5 3q0-3-4-4-1-1-1.5 0.5t-1.5 1.5l3-6q2-1 3-3.5t2-4.5zm-132-250q2 2 3.5 5t-2.5 9q0 0-0.5 0t-0.5-1q-1-2-0.5-5.5t0.5-7.5z"/><path transform="translate(11.552 14.96) scale(.016 -.016)" d="m630 27q-1-2-1-4.5t-1-4.5q0-1-0.5-1.5t-0.5-0.5q0-1-0.5-1.5t-0.5-0.5-2-2q-1-3-7-7-2-3-5-5-3-4-5.5-9t-4.5-9q-4-8-8-17t-8-18l-4-10q-1-2-2-7.5t-2-2.5q-2 14-2 28t-2 28q0 0-4-2-1 0-1-0.5t-1-0.5q-4-7-7.5-16t-6.5-18q-1-3-2-6.5t-3-7.5-4-9.5-7-9.5q-7-6-12.5 3.5t-7.5 14.5q-2 4-5 8.5t-5 8.5q-3 6-6 12t-5 12l-3 9q-3 2-3 1-2-16-2-31.5t-2-31.5q-1-2-2 2.5t-2 6.5q-2 3-4 9-4 8-7.5 16.5t-8.5 15.5q-6 10-16 23-1-5-1.5-10t-2.5-10q-1-1-2-2t-2-3q-4 0-4-1l-5 13q0-1-1-3t-2-4q-1-1-2 2t-2 4q-2 4-4 8.5t-4 8.5q-1 2-1.5 5t-2.5 5q-2 1-3 2-1 2-3 4-2 4-3 5-2 6-2 10-1 5-0.5 9.5t0.5 11.5v13q-1-2-4-5-1-3-8-10l-3-3q0-1-0.5-1t-0.5-1l-13-12q-4-9-6-18.5t-10-15.5q-7-6-9 2-1-4-3-6.5t-7-8.5l-5-5q-6-4-10-10l-8-17q-1-2-3.5-7t-4.5-7q-4-1-5.5 2t-2.5 5q-1 3-2 6.5t-2 6.5q-1 5-1.5 10t-2.5 9q-4 4-6 7h-1q-1 0-2 1t-2 0q-1-10-1.5-20t-2.5-20q0-1-1 2t-3 4q-1 2-2 3t-2 3q-1 6-1 12.5t-2 12.5q-1-1-1-0.5t0 0.5q-1-1-3-1 0-1-0.5-1t-0.5 0q-1-1-1.5-2t-2.5-2q-1-1-3-0.5t-4 0.5q-8 1-12 5.5t-7 11.5h-5q-2 0-4 0.5t-4 0.5q-6 0-9 1-8 1-16 2.5t-16 4.5q-7 1-14 5-10 4-19.5 9t-18.5 11q-18 13-30 28-5 5-9 11.5t-9 13.5q-13 21-21.5 48.5t-11.5 60.5q-3 23-2 51t1 49v207q0 9 5 16l6 6q7 5 15.5 5t16.5 0h175q4 0 10-2 9-3 12-9 2-2 4-8 1-4 1-13v-270q2-13 6.5-24.5t19.5-20.5q6-2 8-2 5-1 8.5-1.5t7.5-0.5q5 0 8.5 0.5t7.5 1.5q2 0 3 1 2 1 4.5 2t4.5 2l8 5q5 7 10 16 2 5 2.5 10t1.5 10v276q0 11 8 19t19 8h174q13 0 19.5 0t15.5-8q5-5 6.5-10.5t1.5-10.5q1-5 0.5-11t-0.5-11v-414q0-4 0-8t1-9zm-223-19t1-1q-1 1-1 1z"/><path transform="translate(22.336 14.96) scale(.016 -.016)" d="m606 104-12-23q-4-6-7.5-11.5t-7.5-10.5l-6-7-2-2q-1-1-1.5-2t-2.5-2q-1-1-2.5-2.5t-5.5-5.5q-2-2-2-2-2-1-4-3-1-1-3.5-11t-3.5-12q-3-12-5.5-24t-7.5-23l-3-6q-2-5-5.5-10.5t-9.5-8.5q-1-9 2-22t3-22.5-9-9.5q-8 0-8 9.5t2 23-1 25.5q-4 4-6 9t-5 10q-2 1-4 3 0 2-2 2 0 1-2 1-1-15 4-37t5.5-41.5-14.5-27.5q-11-6-13 5t1 29.5 6.5 37.5 2.5 30q-2-2-2-2-1 0-1-0.5t0-0.5q-1-2-3-4-1-2-3.5-5t-5.5-5q-2-4-5-2-5 0-9 6 0 1-0.5 1.5t-0.5 0.5q0 1-0.5 1t-0.5 1-0.5 1-0.5 1q-2 5-4.5 9.5t-5.5 8.5q-1 3-5 7l-3 3q0-2-2-2-1-1-6 6 1 0-5 1t-7 1h-5q-41 3-71 16-12 4-25 12l-12 9q-3 2-7 6-5 3-13 11l-2 2-3-4v-12q0-3 0-6t-1-6q-1-4-4-7-2-2-4.5-4t-5.5-4q-2-4-4-9t-4-10q-1-1-1.5-4.5t-2.5-2.5q-2 2-2 9-6-7-14-12-4-3-6.5-1.5t-6.5-0.5q-3-1-5.5-4t-6.5 1q-2 1-4 6l-3 9q-4 4-6 7 0 1-0.5 1t-0.5 1q-2-4-2-8.5t-2-8.5q-1-1-2 2t-2 4q-2 2-4 6-1-1-2-1.5t-2-1.5q-1-2-1.5-4.5t-2.5-4.5q-2-5-4-2-2 2-2 6t-2 7q-1 2-2.5 4t-3.5 3q0-2 0-6t-2-14q-1-2-2-4t-2-4q-3-5-5.5-11t-6.5-11q-1-3-3.5-6t-4.5-6q-1-1-1.5-2t-2.5-2q-3-6-4-4-1 15-1.5 30t-2.5 30q0 2-2 0-1 0-1-0.5t-1-0.5-1 0.5-2 0.5q-3-15-0.5-32t3-25.5-10.5-0.5q-13 10-22 24.5t-15 30.5q-2 4-2 7-1-3-2-2-2 5-1.5 10t-1.5 9l-6 6v1q-3 3-3 6-1 0-1 0.5t0 0.5q-1 3-1 6t0 6q-1 8-0.5 17t0.5 16v595q0 6-0.5 12t0.5 12q0 11 8 19t19 8h185q11 0 19-8 7-5 8-15 2-13 1-26t-1-26v-152l7 6q24 20 57 30 2 2 4 2 1 1 5 3 0 0 1 0t2 1q9 3 19 3h7q8 1 15.5 1.5t15.5 0.5q47 0 85.5-15.5t68.5-47.5q2-3 4.5-5.5t4.5-5.5q16-21 26-45 3-6 5-12t4-12q5-12 8.5-30.5t4.5-38.5q0-8 1-11 1-13 1-25t0-20v-17q0-6-0.5-12t-0.5-12q-1-12-1.5-23t-2.5-22q-1-13-3.5-25.5t-6.5-24.5-9-22zm-303 74q6-4 12.5-6t13.5-3h6q4 0 5.5 0.5t2.5 0.5q4 1 7.5 1.5t6.5 1.5l5 3q11 8 15 19 5 12 7 32 0 4 0.5 7.5t0.5 7.5v41q0 2-0.5 4.5t-0.5 5.5-0.5 6-1.5 6q0 3-1 6.5t-2 6.5q0 2-0.5 3t-0.5 2q-8 20-25 24-4 1-8 1.5t-9 0.5q-8-1-17-1.5t-17-5.5q-9-6-12.5-16.5t-5.5-21.5q-1-6-1-12.5t0-12.5v-16q0-8 0-16.5t1-19.5v-5q1-3 1-6t1-6q2-7 4.5-14.5t7.5-13.5q2-1 3-2t2-2z"/><path transform="translate(32.912 14.96) scale(.016 -.016)" d="m179 542q-12-2-24.5 3t-24.5 12q-3 1-6.5 2.5t-7.5 2.5q-8 2-16.5 4.5t-16.5 5.5q-3 1-5.5 1.5t-5.5 1.5l-8 3q-1 2-2.5 3t-3.5 2q-7 7-8 15v102q0 9-0.5 20t5.5 19l6 6q3 2 9 4 8 2 16.5 2t15.5-1h113q9 1 18.5 1.5t18.5-1.5q1 0 1-0.5t1-0.5 5-2q5-2 8-7 5-6 5.5-11t0.5-8q1-4 1-7.5t0-7.5q0-21-0.5-43t-0.5-43v-18q0-5-1-8-1-5-6-10l-4-4q-2-2-4-2-1-1-1.5-3t-2.5-3q0 0-2 0.5t-4 0.5-5-1-5-2-5-1.5-5-1.5q-2 0-3-1-7-3-14-8t-15-9.5-17-6.5zm98-524q-1-1-1-2t-1-2v-1q-2-2-4-4t-4-4q0 0-0.5-0.5t-1.5-0.5q0 0-0.5-0.5t-1.5-0.5q-2-2-4-6-1-1-1.5-3t-2.5-3q-4-5-8-9.5t-8-9.5v-1h-1q0-1-2-3l-13-22q-5-9-12-13-4-2-4-2-1-8 1-19.5t2-20-7-6.5q-8 2-8 10.5t2.5 19 1.5 18.5q-1 0-4 3t-5 6.5-4 7.5q-3 3-4 5l-9 9q-1-7 0.5-20t-3.5-9q-7 5-4 15t1 18q-1 2-2.5 3t-3.5 3l-7 7q-2 3-6 7-2-10-2-21t-2-22q-1-1-2 1t-2 3q-3 4-5.5 7t-6.5 5q-5 2-10 1t-10 3q-4 3-6.5 6.5t-5.5 7.5q-1 0-2 1t-2-1q-1-17-1.5-35t-2.5-36q0-2-1.5 2.5t-2.5 6.5q-2 6-4 13.5t-4 13.5q-4 14-4.5 19t0 8-1 8.5-7.5 21.5l-6 3q-7 5-9.5 12t-2.5 14q-1 7-0.5 14.5t0.5 14.5v434q0 5 1 8 2 6 4 8l6 6q4 3 13 5 10 2 20.5 1t18.5-1h99q12 0 24.5 1t24.5-1q2 0 4-1t4.5-2 3.5-2q3-3 4-5 4-4 6-13 1-4 0.5-9.5t-0.5-10.5q1-19 0.5-37.5t-0.5-37.5v-347q0-4 0-8t1-9q0-4 0-8t-2-12z"/><path transform="translate(38.08 14.96) scale(.016 -.016)" d="m639 15q-1-4-4.5-7t-5.5-5q-1-1-2-2t-3-2q-2-4-5-9t-9-4q-4 0-4 1-3-3-5-4-4-4-9-5t-11-3q-2-1-3.5-1.5t-4.5-2.5q-3-3-4-2-1 4-1 8t-1 8q-3-4-6-7.5t-5-8.5q-2-4-5-7t-5-6q-1-2-4-4.5t-5-4.5q-1-5-1.5-11t-1.5-12q-1-2-1.5-5.5t-2.5-2.5q-3 1-3.5 4t-0.5 6q-3 12-3.5 15t-1 4-5.5 6q-4 6-7 9-4 4-7 5-2-22-2-43.5t-2-42.5q0-1-2-1t-2 1q-1 20-1 41t-2 42l-9-9q-1-10-1.5-19.5t-2.5-19.5q0-1-1.5 2t-2.5 4q-1 8-2 16t-3 16q-3 1-7 7-3 5-7 10.5t-10 12.5q-1 0-1 0.5t-1 0.5-1.5-1-2.5-2q-1-1-2.5-1.5t-1.5-1.5 0.5-12-1-23.5-7.5-19.5q-1-1-2.5-2t-1.5 0q-2 14 1 28.5t-5 25.5q-3 4-2.5-3t1.5-17.5 1-17.5-4-4q-10 8-5 22.5t1 25.5q-1 4-0.5-3.5t0-15.5-3.5-5q-5 6-3 15.5t0 17.5q-1 2-1.5-3.5t-2.5-4.5q-2 2-2 5t-1 6q-1 2-1 4.5t-2 3.5q0 0-3 0-2 1-4 3-4 4-6.5 7.5t-4.5 6.5l-1 1q-8 11-15 26l-72 120q-6 9-9 15l-1 1-4-1v-116q0-10 1-20.5t-1-20.5q0-4-3-7 0-2-2-4-4-6-6-6-2-3-4-5.5t-4-5.5q-1-1-1.5-3t-2.5-2q0 0-0.5 0t-0.5 1q-7-10-16.5-21t-22.5-10q-9 0-9.5 3t-1.5 13q-4 0-5-2-1-9 2-22.5t3.5-24-9.5-10.5q-7 0-6.5 8t3.5 18.5 4 19.5-5 12q-3 2-6 2-1-1-1-2.5t-1-3.5q0 0-4 2-1 0-1.5 0.5t-2.5 0.5q0 0-3.5 1.5t-4.5 2.5q-1 2-1 5-2 0-2 0-2-4-2-8t-2-7q0-1-4 3-2 1-4 3-5 4-8 9t-7 9q-1 0-3 2-1-1-2.5-0.5t-3.5-0.5q-4-2-7.5-5t-8.5-5q-6-1-11.5 1t-10.5 6q-1-4-1.5-8.5t-2.5-8.5q-1-1-2.5 1t-2.5 3q-5 5-6.5 11t-3.5 13q-2 0-2 1-2 0-3 1-1 0-2 1-9 4-12 11.5t-3 15.5q-1 5-1 9t0 8q1 23 1 53t0 53v530q0 11 6 17 2 2 3 3t2 2q8 5 17 5.5t17-0.5h56q20 0 40 0t39 1q6 0 13 0.5t14-1.5q12-2 19-14 2-4 2-7 3-11 2-23.5t-1-22.5v-284l3 5q0 1 1 2 3 5 6 10t6 10l30 48q8 16 17 30t19 29q3 8 13 19 2 1 3 2t2 2q4 2 6 2 2 1 4 1.5t4 0.5q11 2 22.5 1t21.5-1h125q8 0 18 1t19-1q3 0 7-2 2 0 7-3l1-1q6-6 7-11 3-8-1-17-3-7-8.5-14.5t-10.5-13.5l-4-6-42-59q0-2-2-4-8-14-16.5-27.5t-18.5-24.5q-7-8-13.5-17.5t-13.5-18.5l-4-5q0-1-0.5-1t-0.5-1l-4-11 6-9 24-37q5-9 11-16 12-13 22-31 2-1 3-3t2-4l9-16q2-4 4-7.5t4-7.5l36-55q2-3 3.5-4.5t3.5-5.5q2-3 4-6t4-6q5-7 9-13.5t8-12.5q0-1 0.5-1t0.5-1q1-1 2-3t2-4q4-4 6-11 1-7-2-14z"/><path transform="translate(51.344 14.96) scale(.016 -.016)" d="m832 675q0-7-1.5-14t-2.5-15l-6-38q-1-18-3.5-37t-6.5-34l-24-166-3-27v-3q-1-10-2-20t-3-20q-1-15-3-30.5t-4-29.5q-4-38-8.5-65.5t-9.5-34.5q0-2-0.5-4.5t-0.5-4.5q-2-13-3.5-25t-3.5-22q0-1-0.5-2.5t-0.5-3.5l-1-7q-1-9-2-19t-4-19q0-3-2-7-1-2-2-4t-2-4q-1-1-2-2.5t-3-2.5q-4-4-7-6-3-4-3.5-7.5t-0.5-3.5q-1-1-1-3.5t-2-5.5q-1-4-3-7.5t-4-8.5q-1-4-3.5-8t-4.5-9l-3-6q-1-1-1.5-2t-1.5-2q-4-8-11-14t-14-13l-4-6q-5-7-9-16t-9-17q-1-1-3-4.5t-5-3.5q-4 0-8 7-1 2-2 4t-2 4q-4 9-7 17t-5 14q-1 3-3 5t-2 2q1-1 0 0.5t-2 2.5q0 0-2 2-1 0-1 0.5t-1 0.5q-1-9 1-35.5t4.5-59 3.5-61.5-2-44.5-12-6.5q-11 11-13 40.5t1 65 6 65 2 41.5q-2 2-2 2t-0.5 0-0.5 1q-1 1-2.5 3.5t-2.5 3.5q-5 13-8 23-1 5-3 11t-4 12q-1 1-1 5-1-1-2.5-3t-3.5 0q-1-1-1-1.5t0-0.5q-2-4-4-5-2-2-4-2-2-4-2-9t-2-9q-1-1-2.5-0.5t-1.5 1.5q-2 5-2 10.5t-2 11.5q-1 0-1 0.5t-1 0.5q0 1-0.5 1t-0.5 0q-3 2-5.5 4.5t-4.5 4.5q-1 2-3 4t-4 4q-1 2-3 4t-4 4q-2 3-4 7-3 5-5.5 11t-4.5 12l-3 8q0 1-0.5 1t-0.5 1q-2 4-2 6-1 1-1 3l-3 6q-5 11-8 20-4 9-8 19.5t-8 20.5l-4 11q-7 16-13.5 32t-12.5 32l-3 9-3 6-3 7q0 1 0 3.5t-2-3.5q-1-1-1.5-3t-1.5-4l-7-17-9-23t0-0.5-1-0.5q-3-9-6.5-18t-7.5-18q0-1-0.5-1t-0.5-1l-6-15q-4-12-8.5-23.5t-9.5-22.5q-5-16-10.5-31t-12.5-26q-1-1-3.5-5t-1.5-3q-3-5-10-10-2-9-4-18.5t-5-17.5q-2-7-5.5-14.5t-7.5-15.5l-10-22q-4-10-7.5-20.5t-7.5-21.5q-1-2-2-4.5t-2-4.5q0-1-2-5 0-3-2-5t-2-2l-1-1t0-0.5-1-0.5-1-0.5-1-0.5q-1-11 2.5-28.5t6-34.5 0.5-26.5-13-5.5q-15 6-14.5 23.5t6.5 38 5 35.5l-5 8v1q-2 2-2 2-2 5-4.5 10.5t-5.5 10.5l-4 4q-2 3-5.5 5t-5.5 5q0 0-2 2-1 1-2 2t-3 2q-2 4-2 4-10 13-14.5 28.5t-9.5 28.5l-3 7q-1 3-3 6.5t-4 6.5q-2 2-3 4t-2 3-3 2l-5 2q-1 0-2 0.5t-3 0.5q-3-4-2.5-16.5t2.5-24.5 1-16q0-5-1-14t-1.5-15-1.5-1q-4 17-2.5 35.5t-1.5 36.5l-3 10q-1 2-1 3.5t-1 2.5q-2 0-3 1-3 0-9 2-1 0-1.5 0.5t-1.5 0.5q0 0-0.5 0t-0.5 1q-3 0-4 1-5 3-10 9-4 6-7 11.5t-4 13.5q-1 6-2 12t-2 12l-1 11q-1 6-2 12t-2 12l-4 30q-5 8-10 39t-10 73q-2 12-4 32t-4 42q-1 6-1.5 12t-0.5 12l-29 199q0 1-0.5 1t-0.5 1q-1 7-2 14.5t-2 14.5l-6 42-7 52q-1 2-1 4l-1 11q0 9 6.5 15.5t15.5 6.5h166q12 0 27.5 0t23.5-11q2-3 3-6t1-6q1-1 1-4l2-15q0-2 0.5-4t0.5-4l2-18q2-10 3-21t2-23l8-64q2-14 4.5-31.5t3.5-34.5l7-62q1 0 2 0 1 4 1 3 2 6 4.5 12.5t4.5 13.5q1 3 2 5.5t2 5.5l22 68q4 17 12 28 3 4 7 7 6 6 19 6h12q23 0 45.5 1t44.5-1q18 0 25-11t9-18l39-117q0-3 2-6.5t0 3.5q1 2 1 5t1 5q0 6 0.5 11.5t1.5 11.5q2 8 2.5 15.5t1.5 15.5l3 26q2 19 4 37t4 30q2 18 4 33t3 24l6 47v5q1 7 2 13.5t4 11.5q3 6 9 9 8 4 20 4 6 1 12 0.5t11-0.5h150q5 0 10.5 0.5t10.5-0.5q9-3 14-11 0 0 0.5-0.5t0.5-1.5q1-3 1.5-5t0.5-7zm-403-447q0-2 0 0z"/><path transform="translate(65.04 14.96) scale(.016 -.016)" d="m402-137q-1-5-1-16t-3-6q-4 8-1.5 18.5t-2.5 18.5q-2 4-2-4.5t0-16.5-2-5q-4 10-2.5 20.5t-0.5 20.5q-5 4-9.5 9t-7.5 9q-4 5-7 9.5t-6 8.5q-8 8-15 20l-12 21q0 1-3 6.5t-5 7.5-4 3q-4 0-4-3-1-10-1-19.5t-2-19.5q0-2-1 3t-1 8q-1 8-1.5 17t-1.5 17h-6q-60 2-109 17t-84 46l-6 5-7 7q-26 28-42.5 66t-21.5 90q-1 0-1 2-1 2-1 10 0 1 0.5 2t0.5 2q-1 5-1 10.5t0 11.5v7q1 60 19 107t50 80q2 1 2.5 2t1.5 2 4 3.5 3 2.5q3 3 5 4 74 63 200 63h21q4 0 5-1 9 0 13-1 14 1 21-2 5-1 10-1.5t10-2.5q52-10 90-34.5t63-58.5q5-4 8-10t6-11l8-14q1-3 2.5-5.5t2.5-5.5q2-3 3-6t2-6q5-14 9.5-29t6.5-30q0-4 1-6 2-8 2-16t1-16v-46q0-14-12-23-3-2-7-6-2-5-4-5 0 0-4 4-2 0-6-1t-6-2q-4-1-7-1.5t-7-0.5q-8-1-15-4t-15-5q-6-1-13-1t-14 0q-9-1-16.5-4t-15.5-2q-6 1-12 2.5t-13 2.5q-4-1-7.5-2t-7.5-2q-3-1-6-1t-6-2-9-8h137q4 0 8.5 0.5t9.5 0.5h5q6 0 14-2 2 0 3-0.5t2-0.5q7-3 10-11 2-6 1-10 0-7-3-16l-3-8q-6-16-16-27-4-5-8-10t-9-10q-4-4-8-8t-9-8l-6-6q-5-5-8.5-11.5t-7.5-12.5q-3-3-4-5 2 2 0-2t-4-2q-2-5-4.5-9t-6.5-12q-2-5-4.5-9.5t-4.5-9.5q-6-11-11-18-1-3-2.5-5.5t-3.5-4.5l-4-6q-1-1-2-3t-3-4q-6-7-12-13.5t-12-13.5l-7-7q-2-3-4.5-6t-5.5-5q-4-4-6-4-1-6-1.5-12.5t-2.5-12.5zm-125 463h5q13 0 26 0.5t26-0.5l19 1v12q-1 1-1 2 0 4-0.5 9t-1.5 9l-6 14q-1 1-1 1.5t-1 1.5q-5 7-11 9 0 1-3 1h-1q-7 0-14-0.5t-14-1.5q-2-1-5.5-1.5t-6.5-2.5q-1-1-1-1.5t-1-1.5q-2-2-3-5t-3-5q-6-16-5.5-23t3.5-18zm27-190q2-1 12-1 6 2 11.5 6t9.5 8l9 9q8 6 12 7t9 2q-7 2-13.5 4t-13.5 4q-11 4-21.5 9t-21.5 9l-20 6q-2 2-4 2v-5q0-1 0.5-8.5t0.5-9.5q1-11 5.5-21.5t12.5-16.5l8-3q1-1 4-1z"/><path transform="translate(75.008 14.96) scale(.016 -.016)" d="m507 22v-2q-1-1-1-2t-0.5-1-0.5-1-2-3q-2-3-4.5-5.5t-6.5-4.5q-4-6-5.5-12t-6.5-11q-7-6-13-3.5t-10 9.5q-4 0-4-1-1-6 1-16.5t2-18-7-6.5q-10 2-7 14.5t3 22.5q-4-12-8.5-27t-14.5-23q-7-5-13 0t-11 9q-8 10-14 21t-11 23q0-1-0.5-2.5t-0.5-2.5q-1 3-1.5 6t-2.5 7l-8 8h-1q-68 1-122 20t-86 64q-4 5-7.5 12t-6.5 13q-2 5-4 10.5t-4 10.5q-4 12-6.5 25.5t-3.5 26.5q-3 20-3 50t1 53v48l-4 12-8-36q0-2-1-3-5-22-8.5-49.5t-11.5-49.5q-1-6-3-12.5t-5-11.5q-2-4-2-4-5-5-8 0-3 2-4.5 6.5t-3.5 8.5l-3 12-3 15q-3 11-5.5 21.5t-4.5 21.5q-3 14-6 28t-7 28l-5 21q0 2-0.5 3t-0.5 2q0 3-2 5-1 1-2 2.5t-3 2.5q0 0-3 5 0 1-0.5 1.5t-0.5 1.5-0.5 2-0.5 2q-1 6-0.5 13t0.5 14v67q0 9-1 20t2 20q3 10 11 13 5 4 9.5 4.5t8.5 0.5h76v163q0 9 7 18 1 2 5 4 3 3 7 4 5 2 10 1.5t10-0.5h163q11 0 18-7 5-3 8-12 2-4 2-7.5t0-8.5q0-6-0.5-12t-0.5-12v-131h8q7 1 14 0.5t14-0.5h62q8 0 16.5 0.5t16.5-0.5q19-3 22-23 2-8 1-17t-1-17q0-17 0.5-36.5t-0.5-37.5q1-3 1-11 0-9-3-15-1-5-5-9-1-1-2-2t-2-2q0 0-0.5-0.5t-1.5-0.5q0 0-0.5-0.5t-1.5-0.5q-1-2-1.5-4t-1.5-4q0-4-2-8 0-6-3-5-2 0-2 5 0 6-2 7 0 2-2 0 0 0-2-2-1-1-2-3t-2-4q-3-5-5.5-11t-6.5-11q-1-1-1.5-2t-2.5-3q-1-1-2-3t-2-1q-2 5-2 10t-2 10q-2-1-7-1-6 0-12 2-9 3-16.5 8.5t-15.5 7.5q-7 2-13.5 3t-13.5 2q-6 0-12 3 1 0-1.5 0.5t-2.5 0.5v-8q1-4 0.5-13.5t-0.5-17.5v-71q0-3 0-6t1-6q1-4 2-8.5t3-8.5q7-15 20-18t29-3h79q6 0 14-4 9-5 12-15 1-2 1-5 2-7 1-14.5t-1-14.5v-77q0-7 1-16t-1-17z"/><path transform="translate(86.496 14.96) scale(.016 -.016)" d="m686 446q0-18-3-36-2-19-6-35t-11-25q-1-3-2.5-6t-3.5-5q-5-9-10.5-18t-12.5-17q-1-1-2.5-2.5t-3.5-3.5l-7-7q-4-3-11-10-2-2-3-4-2-4-2-5l-6-15q-4-10-7.5-20t-8.5-20l-3-7q-3-6-6-9-1-3-5-7-4-2-5-2-1-7-1.5-14.5t-2.5-15.5q-1-2-2-5t-3-3q-2-1-2.5 2.5t-1.5 4.5q-2 6-2.5 13t-4.5 11l-3-3q-2-2-6-8t-10-11q-2-19 1-38.5t-5-36.5q-4-8-4.5 3.5t0.5 29 0 26.5q-1 14-2.5 16t-5.5 9q-4 5-7.5 11t-8.5 10q-1-4-2.5-8t-1.5-9q-1-11-1.5-33t-0.5-46.5-0.5-46.5-1.5-33q0 0-0.5-12.5t-2-29.5-2.5-32-3-21q0-1-1.5 0t-1.5 2q-2 8-2.5 17t-1.5 18q-1 16-2 32t-2 32q-1 20-2 40.5t-2 40.5q-1 22-1.5 43.5t-2.5 43.5q1-1-1.5 2.5t-4.5 4.5q-2 4-4.5 7.5t-5.5 7.5l-2 2q0-1-2-5-2-5-16-14-1 0-2-1.5t-2-0.5q-1 2-1.5 5t-0.5 5q-2 0-2-2-1-7-1.5-15t-2.5-16q-1-6-3.5-12t-4.5-13l-12-44q-1-6-3.5-13t-4.5-12q-1-2-3-6t-5-6q-5-3-9 5t-6 11q-1 2-2.5 4t-2.5 4q-1 21-1.5 42t-2.5 43q0 1-1 1t-2 1l-7 6q-6 5-10.5 11.5t-9.5 13.5q-3 4-6 8l-2-1v-156q1-9 1.5-18t-1.5-18v-2q-1-1-1-2-1-4-4-7-4-5-12-10l-8-12q-1-1-4.5-4.5t-4.5-3.5q-1-13-1.5-26.5t-2.5-26.5q-1-9-1-18.5t-2-18.5q-1-3-0.5-8t-3.5-4q-3 0-2.5 4.5t-0.5 8.5q-3 18-3 27.5t-0.5 19-5.5 26.5l-10-10h-1q-2-2-3-2-1-2-1-4t-2-3q-1 0-1.5 2t-2.5 3q-2-2-2.5-5t-2.5-5q-1-1-1-3t-2-3q-4 0-4 5-1 5-1.5 9.5t-2.5 8.5q0 1-0.5 1t-0.5 1q-4 3-7 7t-6 8l-8 11-2 2q-1 2-2 3t-3 2l-3-6q-5-8-13-18.5t-19-12.5q-12-3-11 8t0 22l-6-6q0-1-3-3-1-1-1.5-1t-1.5-1q-1-2-1.5-5t-2.5-5q-4-4-5-1-2 3-2 6.5t-2 7.5q-1 1-2.5 2.5t-3.5 3.5l-6 9q-1-3-1-6.5t-2-5.5q-1-1-4 2-2 1-4 3l-11 9q-6-2-7 0-3 6-4 5.5t-3 0.5q-4 2-7 4-11 8-11 22v642q0 5 0.5 10.5t4.5 9.5q3 6 12 9 6 2 9 2 2 1 9 0.5t13-0.5h100q12 0 42 0t66 0.5 65-0.5h9q19 0 37-1.5t35-3.5q20-1 40.5-4.5t34.5-9.5q13-5 18-10 0 0 4-2 0 0 0.5 0t0.5-1q27-12 49-28 3-1 4.5-3t4.5-5q13-12 25-25 3-4 6-7.5t6-8.5q3-4 5.5-8.5t4.5-9.5q14-27 20-56.5t6-63.5zm-376 68v-92q23 18 53 27t60 10q3 21-8 38-1 2-4 5t-5 4l-5 3q-6 2-12.5 1t-12.5-2q-7-1-13.5-1.5t-13.5 0.5-13.5 2.5-13.5 2.5q0 0-3.5 0.5t-8.5 1.5zm-20-525z"/><path transform="translate(97.776 14.96) scale(.016 -.016)" d="m583 36q0-4-1-6 0-13-5-19-1-2-4-4.5t-6-4.5q-11-11-10-18t6-12 6-12-10-18q-1-3-1.5-6.5t-2.5-5.5q-1-1-4 5-1 5-2 11t-2 12q-1 17-0.5 19.5t-4.5 13.5l-4-4q-3-3-5.5-5t-5.5-6q-4-6-8-12t-8-12q-1-1-3-5t-4-5q-5-2-8 5t-5 9q-1 3-1.5 6t-2.5 6q-2 1-6 5-2 2-3 4l-10 12-5 5q-2-1-5 1t-5 3q-5-5-5-6-8-7-13.5-16.5t-10.5-19.5q-1-2-3.5-5t-5.5-5q-2-2-3-2-1-6-1.5-12.5t-2.5-12.5q-1-1-2.5 0.5t-1.5 2.5q-2 8-1.5 11.5t-3.5 15.5q-1 0-1.5 0.5t-0.5 0.5q0 1-2 3 0 2-1.5 3t-1.5 1l-9 15-12 19q-1 4-3 7.5t-4 6.5l-1 1q-4 3-8 10 0 1-0.5 1.5t-0.5 1.5q-1 5-1 11.5t0 16.5v8q-2-2-3-4l-3-3q-9-11-20-20-4-10-6-20.5t-7-20.5q-1-4-3.5-8.5t-6.5-7.5q-1-1-5.5-2t-5.5 0q-1 3-1 6.5t0 6.5q-1-3-2.5-5.5t-3.5-4.5q-1-2-3-3.5t-4-3.5q-3-16-4.5-30.5t-3.5-30.5q-1-4-2-8.5t-3-9.5q0-5-3-8-1-1-4 2-1 2-2 4.5t-2 4.5q-1 5-4 16.5t-5 15.5q-1 4-2 8.5t-2 8.5q-1 3-1.5 6.5t-2.5 7.5l-3 3q-3 4-6 8.5t-6 8.5q-1 3-3 5.5t-4 6.5q-1 2-2 3.5t-3 2.5h-8q-65 2-111.5 31t-64.5 74q-1 3-2 6t-2 6q0 1-0.5 2t-0.5 2q-1 5-2 9.5t-2 8.5q-1 6-1 12.5t0 12.5q0 4 0.5 7t0.5 7l1 7q3 16 9 29 14 32 43 55 6 5 12 9t13 8l13 7q2 2 5 4t6 3q2 2 5 3t6 2q11 5 22.5 8t23.5 6q14 4 28.5 7t30.5 6l24 4q14 2 27.5 4.5t27.5 4.5q4 0 5 1l22 4v16q0-4-0.5 2t-0.5 7q0-1-0.5 2.5t-0.5 2.5q0 1-0.5 2t-0.5 2q-2 6-8 12-1 0-1 0.5t-2 0.5q-2-1-4.5-4t-3.5-5q-3-5-7-12.5t-10-10.5q-7-4-13 5t-10 13q-2 2-3 2l-9-9q-3-2-6-4t-6-4q-6-3-12.5-4.5t-12.5-3.5q-12-4-23.5-8.5t-23.5-6.5q-15-2-28 6.5t-28 7.5q-14 0-27.5 1t-27.5 5q-4 2-5 2t-2-1-2 0-1.5 2-2.5 2q-1 2-3 4t-2 2q-1 1-3 5-2 6-1 12.5t3 12.5q1 3 2 6t2 7q10 19 22 33 11 14 26.5 27t35.5 23q8 7 19 12 10 5 21.5 8t23.5 5q23 6 50 9.5t59 3.5h20q6 0 11 0t8-1l7-1h5q13 0 19-3 17-1 34-6 12-2 23.5-5t20.5-8q13-4 25.5-12t22.5-16q0-1 0.5-1t0.5 0q3-2 5.5-4.5t4.5-4.5q48-43 57-115 1-1 1-3 3-21 2.5-42t-0.5-42v-207q0-5 0.5-11t0.5-12zm-238 167v12q0 1-2 0-1 0-2.5-0.5t-2.5-0.5q-4-2-9-3.5t-10-3.5q-10-4-20.5-5.5t-21.5-3.5q-5-1-11-3t-11-5q-4-3-6-6-7-9-7-18 0-7 7-18 2-1 4.5-2.5t5.5-3.5l5-2q13-1 14-1.5t12 0.5q43 6 52 49 2 6 2 11 0 3 1 4z"/><path transform="translate(107.73 14.96) scale(.016 -.016)" d="m179 542q-12-2-24.5 3t-24.5 12q-3 1-6.5 2.5t-7.5 2.5q-8 2-16.5 4.5t-16.5 5.5q-3 1-5.5 1.5t-5.5 1.5l-8 3q-1 2-2.5 3t-3.5 2q-7 7-8 15v102q0 9-0.5 20t5.5 19l6 6q3 2 9 4 8 2 16.5 2t15.5-1h113q9 1 18.5 1.5t18.5-1.5q1 0 1-0.5t1-0.5 5-2q5-2 8-7 5-6 5.5-11t0.5-8q1-4 1-7.5t0-7.5q0-21-0.5-43t-0.5-43v-18q0-5-1-8-1-5-6-10l-4-4q-2-2-4-2-1-1-1.5-3t-2.5-3q0 0-2 0.5t-4 0.5-5-1-5-2-5-1.5-5-1.5q-2 0-3-1-7-3-14-8t-15-9.5-17-6.5zm98-524q-1-1-1-2t-1-2v-1q-2-2-4-4t-4-4q0 0-0.5-0.5t-1.5-0.5q0 0-0.5-0.5t-1.5-0.5q-2-2-4-6-1-1-1.5-3t-2.5-3q-4-5-8-9.5t-8-9.5v-1h-1q0-1-2-3l-13-22q-5-9-12-13-4-2-4-2-1-8 1-19.5t2-20-7-6.5q-8 2-8 10.5t2.5 19 1.5 18.5q-1 0-4 3t-5 6.5-4 7.5q-3 3-4 5l-9 9q-1-7 0.5-20t-3.5-9q-7 5-4 15t1 18q-1 2-2.5 3t-3.5 3l-7 7q-2 3-6 7-2-10-2-21t-2-22q-1-1-2 1t-2 3q-3 4-5.5 7t-6.5 5q-5 2-10 1t-10 3q-4 3-6.5 6.5t-5.5 7.5q-1 0-2 1t-2-1q-1-17-1.5-35t-2.5-36q0-2-1.5 2.5t-2.5 6.5q-2 6-4 13.5t-4 13.5q-4 14-4.5 19t0 8-1 8.5-7.5 21.5l-6 3q-7 5-9.5 12t-2.5 14q-1 7-0.5 14.5t0.5 14.5v434q0 5 1 8 2 6 4 8l6 6q4 3 13 5 10 2 20.5 1t18.5-1h99q12 0 24.5 1t24.5-1q2 0 4-1t4.5-2 3.5-2q3-3 4-5 4-4 6-13 1-4 0.5-9.5t-0.5-10.5q1-19 0.5-37.5t-0.5-37.5v-347q0-4 0-8t1-9q0-4 0-8t-2-12z"/><path transform="translate(112.9 14.96) scale(.016 -.016)" d="m634 87q0-14 1-29t-1-29q0-8-1-11-3-8-10-13 0 0-0.5-0.5t-1.5-0.5q0 0-0.5-0.5t-1.5-0.5q-1-1-4-7t-5-6q-5-8-11-13-1-1-2-1.5t-2-1.5q-4-18-5.5-36.5t-6.5-36.5q-2-8-4-11-3-3-4-2-1 0-4 5-1 4-3.5 11.5t-3.5 11.5q-2 7-4 13.5t-5 13.5q-1 2-1.5 5t-2.5 4q0 0-2 1t-3 2q-1 2-2.5 3t-2.5 2q-5 7-4 6.5t1-0.5-7 7q-1-1-4-1t-4-1q-1-22-1.5-57.5t-2.5-58.5q0-2-3.5 0t-3.5 2q-4 4-7 9.5t-5 9.5q-1 3-2.5 5.5t-1.5 4.5q-2 23-2 47t-2 46q-2 2-3 2-1-3-1-6.5t-2-6.5q-1-3-5 1-5 2-9.5 4.5t-9.5 4.5q-4 2-9.5 3.5t-8.5 4.5q-4-8-12.5-10t-15.5 4q-6 5-9.5 12t-9.5 16q-2 2-4 4.5t-3 6.5-1 13v264q0 7-1 11-2 17-12 29-1 2-2.5 3.5t-3.5 2.5q-1 1-3 1-2-3-2.5-6.5t-2.5-6.5q-5-5-6-2-2 4-2 5-3-3-7-9-2-6-4-8-1-2-2-6t-2-2q-2 6-2.5 12t-1.5 13q0-2-1-2 0-2-1-2-1-3-3.5-8t-6.5-7q-2-8 1-21.5t-5-11.5q-9 2-5.5 14.5t1.5 22.5q-1 1-1 5v5q0 3 0 6.5t-3 4.5q0 0-2.5 0.5t-3.5 0.5q-12-11-15-31-1-5-1-10.5t0-10.5v-240q0-7 0.5-15t-1.5-15q-1-3-3-6t-4-5q-1 0-1-0.5t-1-0.5q0 0-2-2-1-3-1.5-6t-2.5-6q0-1-1-1.5t-2 0.5-1.5 3.5-1.5 3.5q-2-2-4-3-1-2-0.5-5t-0.5-5q-2-6-4-8-1-1-4 1-2 5 0 3.5t-4 4.5q-1 1-1 2-3-2-5-4.5t-5-4.5q-1-1-2-2.5t-6-3.5h-1q-3-1-9-1-4 0-7.5 1.5t-7.5 2.5q-5 3-10.5 7t-8.5 6q-7 4-6 4 0 0-2 1-2-1-4 0.5t-4 1.5q-1-1-2.5-3t-3.5-4q-1-1-2-2t-3-2q-1 0-1-0.5t0-0.5q-1 0-1-1-1 0-1.5-0.5t-0.5-0.5q-1-1-2-6.5t-6-5.5q-1 0-4.5 2.5t-4.5 2.5q-2 2-3 2-4 2-7.5 5t-5.5 6q0 1-0.5 1t-0.5 1q-1-4-1-8t-2-8q0-1-1-0.5t-2-0.5q-4 0-4-1-1 4-1.5 8t-1.5 8q-1-2-5-6-1-1-2-1.5t-2-1.5q-1-7-1.5-13.5t-2.5-14.5q-1-2-1.5-6.5t-2.5-3.5q-4 2-3.5 6.5t-0.5 7.5q-1 8-1 14.5t-2 13.5q-2 2-4.5 5t-4.5 6q-2 2-3 4-4 2-6 2-1 0-1.5 0.5t-2.5 0.5q-8 3-13 10-2 2-4 8-2 7-1.5 16t0.5 16v433q-1 3-0.5 5.5t0.5 5.5q1 11 9 18t19 7q8 1 16.5 0.5t15.5-0.5h106q5 0 16 0.5t20-0.5q6 0 14-4 9-5 12-15 2-6 1.5-13t-0.5-13l2-12 6 6q6 6 13 11.5t14 10.5l9 6h1q10 7 20 11 6 6 21 9 2 1 5 1 35 12 75 12 46 0 87-19.5t69.5-61 35.5-106.5q1-4 1-7.5t0-7.5q1-7 1-14t0-14z"/><path transform="translate(123.68 14.96) scale(.016 -.016)" d="m507 22v-2q-1-1-1-2t-0.5-1-0.5-1-2-3q-2-3-4.5-5.5t-6.5-4.5q-4-6-5.5-12t-6.5-11q-7-6-13-3.5t-10 9.5q-4 0-4-1-1-6 1-16.5t2-18-7-6.5q-10 2-7 14.5t3 22.5q-4-12-8.5-27t-14.5-23q-7-5-13 0t-11 9q-8 10-14 21t-11 23q0-1-0.5-2.5t-0.5-2.5q-1 3-1.5 6t-2.5 7l-8 8h-1q-68 1-122 20t-86 64q-4 5-7.5 12t-6.5 13q-2 5-4 10.5t-4 10.5q-4 12-6.5 25.5t-3.5 26.5q-3 20-3 50t1 53v48l-4 12-8-36q0-2-1-3-5-22-8.5-49.5t-11.5-49.5q-1-6-3-12.5t-5-11.5q-2-4-2-4-5-5-8 0-3 2-4.5 6.5t-3.5 8.5l-3 12-3 15q-3 11-5.5 21.5t-4.5 21.5q-3 14-6 28t-7 28l-5 21q0 2-0.5 3t-0.5 2q0 3-2 5-1 1-2 2.5t-3 2.5q0 0-3 5 0 1-0.5 1.5t-0.5 1.5-0.5 2-0.5 2q-1 6-0.5 13t0.5 14v67q0 9-1 20t2 20q3 10 11 13 5 4 9.5 4.5t8.5 0.5h76v163q0 9 7 18 1 2 5 4 3 3 7 4 5 2 10 1.5t10-0.5h163q11 0 18-7 5-3 8-12 2-4 2-7.5t0-8.5q0-6-0.5-12t-0.5-12v-131h8q7 1 14 0.5t14-0.5h62q8 0 16.5 0.5t16.5-0.5q19-3 22-23 2-8 1-17t-1-17q0-17 0.5-36.5t-0.5-37.5q1-3 1-11 0-9-3-15-1-5-5-9-1-1-2-2t-2-2q0 0-0.5-0.5t-1.5-0.5q0 0-0.5-0.5t-1.5-0.5q-1-2-1.5-4t-1.5-4q0-4-2-8 0-6-3-5-2 0-2 5 0 6-2 7 0 2-2 0 0 0-2-2-1-1-2-3t-2-4q-3-5-5.5-11t-6.5-11q-1-1-1.5-2t-2.5-3q-1-1-2-3t-2-1q-2 5-2 10t-2 10q-2-1-7-1-6 0-12 2-9 3-16.5 8.5t-15.5 7.5q-7 2-13.5 3t-13.5 2q-6 0-12 3 1 0-1.5 0.5t-2.5 0.5v-8q1-4 0.5-13.5t-0.5-17.5v-71q0-3 0-6t1-6q1-4 2-8.5t3-8.5q7-15 20-18t29-3h79q6 0 14-4 9-5 12-15 1-2 1-5 2-7 1-14.5t-1-14.5v-77q0-7 1-16t-1-17z"/></svg>