<svg width="96.72" height="18.96" viewBox="0 0 96.72 18.96" xmlns="http://www.w3.org/2000/svg"><path transform="translate(0 14.96) scale(.016 -.016)" d="m76 8h-8v584h8zm16-8h-8v592h8zm16 0h-8v592h8zm16 0h-8v592h8zm24 0h-8v592h8zm16 0h-8v592h8zm16 0h-8v592h8zm16 0h-8v592h8zm24 0h-8v592h8zm16 0h-8v592h8zm16 0h-8v592h8zm16 0h-8v592h8zm24 8h-8v584h8zm16 208h-8v192h8zm0 296h-8v80h8zm16-296h-8v192h8zm0 296h-8v80h8zm16-296h-8v192h8zm0 296h-8v80h8zm24-328h-8v224h8zm0 328h-8v80h8zm204-500h-120v8h120zm0 16h-144v8h144zm0 16h-152v8h152zm0 24h-160v8h160zm0 16h-168v8h168zm0 16h-176v8h176zm0 16h-184v8h184zm0 24h-192v8h192zm0 16h-200v8h200zm0 16h-208v8h208zm0 16h-208v8h208zm0 24h-208v8h208zm0 16h-208v8h208zm0 16h-208v8h208zm0 16h-208v8h208zm0 24h-208v8h208zm0 16h-208v8h208zm0 16h-208v8h208zm0 16h-208v8h208zm0 24h-208v8h208zm0 16h-208v8h208zm0 16h-208v8h208zm0 16h-184v8h184zm0 24h-168v8h168zm0 16h-152v8h152zm0 16h-152v8h152zm0 16h-168v8h168zm0 24h-184v8h184zm0 16h-208v8h208zm0 16h-208v8h208zm0 16h-208v8h208zm0 24h-208v8h208zm0 16h-208v8h208zm20-588h-8v232h8zm0 272h-8v160h8zm-4 172h-16v8h16zm0 16h-16v8h16zm0 24h-16v8h16zm0 16h-16v8h16zm0 16h-16v8h16zm0 16h-16v8h16zm0 24h-16v8h16zm0 16h-16v8h16zm0 16h-16v8h16zm28-588h-8v192h8zm0 288h-8v216h8zm4-276h-8v8h8zm0 16h-8v8h8zm0 16h-8v8h8zm0 24h-8v8h8zm0 16h-8v8h8zm0 16h-8v8h8zm0 16h-8v8h8zm0 24h-8v8h8zm0 16h-8v8h8zm0 16h-8v8h8zm0 128h-8v8h8zm0 16h-8v8h8zm0 16h-8v8h8zm0 24h-8v8h8zm0 16h-8v8h8zm0 16h-8v8h8zm0 16h-8v8h8zm0 24h-8v8h8zm0 16h-8v8h8zm0 16h-8v8h8zm0 16h-8v8h8zm0 24h-8v8h8zm-4 12h-8v40h8zm12 60h-32v8h32zm0 16h-32v8h32zm20-588h-8v128h8zm0 320h-8v152h8zm28-308h-8v8h8zm0 16h-8v8h8zm0 16h-8v8h8zm0 24h-8v8h8zm0 320h-8v8h8zm0 16h-8v8h8zm0 24h-8v8h8zm0 16h-8v8h8zm0 16h-8v8h8zm20-452h-8v24h8zm-48 472h-8v80h8zm16 0h-8v72h8zm-16 88h-8v16h8zm-568 32h-8v64h8zm16 0h-8v64h8zm16 0h-8v64h8zm16 0h-8v64h8zm24 0h-8v64h8zm16 0h-8v64h8zm16 0h-8v64h8zm52 12h-32v8h32zm0 16h-32v8h32zm0 16h-32v8h32zm28-44h-8v32h8zm16 0h-8v32h8zm16 0h-8v32h8zm24 0h-8v32h8zm16 0h-8v32h8zm16 0h-8v32h8zm16 0h-8v32h8zm24 0h-8v32h8zm16 0h-8v32h8zm-4 44h-160v8h160zm20-44h-8v32h8zm24 0h-8v32h8zm16 0h-8v32h8zm16 0h-8v32h8zm16 0h-8v32h8zm24 0h-8v32h8zm16 0h-8v32h8zm16 0h-8v32h8zm16 0h-8v32h8zm24 0h-8v32h8zm16 0h-8v32h8zm16 0h-8v16h8zm-200 32h-8v24h8zm24 0h-8v24h8zm16 0h-8v24h8zm16 0h-8v24h8zm16 0h-8v24h8zm24 0h-8v24h8zm16 0h-8v24h8zm16 0h-8v24h8zm16 0h-8v24h8zm24 0h-8v8h8zm-512 32h-8v16h8zm16 0h-8v16h8zm16 0h-8v16h8zm16 0h-8v16h8zm24 0h-8v16h8zm16 0h-8v16h8zm16 0h-8v16h8zm16 0h-8v16h8zm24 0h-8v16h8zm16 0h-8v16h8zm16 0h-8v16h8zm16 0h-8v16h8zm24 0h-8v16h8zm16 0h-8v16h8zm16 0h-8v16h8zm16 0h-8v16h8zm24 0h-8v16h8zm16 0h-8v16h8zm16 0h-8v16h8zm16 0h-8v16h8zm24 0h-8v16h8zm60 12h-64v8h64zm-404 12h-8v8h8zm16 0h-8v8h8zm16 0h-8v8h8zm24 0h-8v8h8zm16 0h-8v8h8zm16 0h-8v8h8zm16 0h-8v8h8zm24 0h-8v8h8zm16 0h-8v8h8zm16 0h-8v8h8zm16 0h-8v8h8zm24 0h-8v8h8zm16 0h-8v8h8zm16 0h-8v8h8zm16 0h-8v8h8zm24 0h-8v8h8zm16 0h-8v8h8zm16 0h-8v8h8zm16 0h-8v8h8z"/><path transform="translate(11.552 14.96) scale(.016 -.016)" d="m60 112h-8v336h8zm16-40h-8v376h8zm16-24h-8v400h8zm24-16h-8v416h8zm16-16h-8v432h8zm16-8h-8v440h8zm16-8h-8v448h8zm24 0h-8v448h8zm16 0h-8v448h8zm16 0h-8v448h8zm16 0h-8v448h8zm24 0h-8v448h8zm16 0h-8v448h8zm16 0h-8v200h8zm36 4h-32v8h32zm0 16h-32v8h32zm0 16h-32v8h32zm0 16h-32v8h32zm0 24h-32v8h32zm0 16h-32v8h32zm0 16h-32v8h32zm0 16h-32v8h32zm0 24h-32v8h32zm0 16h-32v8h32zm20-148h-8v152h8zm16 8h-8v152h8zm24 16h-8v176h8zm16-16h-8v368h8zm-4 380h-16v8h16zm0 16h-16v8h16zm0 24h-16v8h16zm28-444h-8v432h8zm16 0h-8v432h8zm16 0h-8v432h8zm16 0h-8v432h8zm24 0h-8v432h8zm16 0h-8v432h8zm32 0h-8v288h8zm16 0h-8v288h8zm16 0h-8v288h8zm16 0h-8v144h8zm24 16h-8v128h8zm4 140h-40v8h40zm0 24h-40v8h40zm0 16h-40v8h40zm0 16h-40v8h40zm0 16h-40v8h40zm0 24h-40v8h40zm0 16h-40v8h40zm-76 28h-8v80h8zm16 0h-8v80h8zm60 4h-48v8h48zm0 24h-48v8h48zm0 16h-48v8h48zm0 16h-48v8h48zm-76 20h-8v72h8zm16 0h-8v72h8zm16 0h-8v72h8zm16 0h-8v72h8zm24 0h-8v72h8zm-560 80h-8v48h8zm16 0h-8v48h8zm16 0h-8v48h8zm24 0h-8v48h8zm16 0h-8v48h8zm16 0h-8v48h8zm16 0h-8v48h8zm24 0h-8v48h8zm16 0h-8v48h8zm16 0h-8v48h8zm16 0h-8v48h8zm44 12h-24v8h24zm0 16h-24v8h24zm-16 16h-8v8h8zm132-44h-8v40h8zm16 0h-8v40h8zm16 0h-8v40h8zm16 0h-8v40h8zm24 0h-8v40h8zm16 0h-8v40h8zm16 0h-8v40h8zm16 0h-8v40h8zm24 0h-8v40h8zm16 0h-8v40h8zm16 0h-8v40h8zm16 0h-8v40h8zm36 12h-24v8h24zm0 16h-24v8h24zm-212 12h-8v8h8zm16 0h-8v8h8zm16 0h-8v8h8zm24 0h-8v8h8zm16 0h-8v8h8zm16 0h-8v8h8zm16 0h-8v8h8zm24 0h-8v8h8zm16 0h-8v8h8zm16 0h-8v8h8zm16 0h-8v8h8zm24 0h-8v8h8zm-536 16h-8v16h8zm40 0h-8v16h8zm32 0h-8v16h8zm40 0h-8v16h8zm32 0h-8v16h8zm208 0h-8v16h8zm32 0h-8v16h8zm40 0h-8v16h8zm32 0h-8v16h8zm40 0h-8v16h8z"/><path transform="translate(22.336 14.96) scale(.016 -.016)" d="m60 8h-8v480h8zm24-8h-8v488h8zm16 0h-8v488h8zm16 0h-8v488h8zm16 0h-8v488h8zm76 4h-56v8h56zm0 16h-56v8h56zm0 16h-56v8h56zm0 16h-56v8h56zm0 24h-56v8h56zm0 16h-56v8h56zm0 16h-56v8h56zm0 16h-56v8h56zm0 24h-56v8h56zm0 16h-56v8h56zm0 16h-56v8h56zm0 16h-56v8h56zm0 24h-56v8h56zm0 16h-56v8h56zm0 16h-56v8h56zm0 16h-56v8h56zm0 24h-56v8h56zm0 16h-56v8h56zm0 16h-56v8h56zm0 16h-56v8h56zm0 24h-56v8h56zm0 16h-56v8h56zm0 16h-56v8h56zm0 16h-56v8h56zm0 24h-56v8h56zm0 16h-56v8h56zm0 16h-56v8h56zm20-468h-8v416h8zm24 8h-8v408h8zm16 16h-8v392h8zm12 404h-72v8h72zm0 16h-72v8h72zm0 24h-72v8h72zm20-452h-8v160h8zm0 304h-8v32h8zm24-312h-8v160h8zm0 328h-8v16h8zm16-336h-8v168h8zm0 344h-8v8h8zm16-344h-8v176h8zm0 344h-8v8h8zm36-340h-32v8h32zm0 16h-32v8h32zm0 16h-32v8h32zm0 16h-32v8h32zm0 24h-32v8h32zm0 16h-32v8h32zm0 16h-32v8h32zm0 16h-32v8h32zm0 24h-32v8h32zm0 16h-32v8h32zm0 16h-24v8h24zm0 16h-16v8h16zm0 24h-8v8h8zm0 16h-8v8h8zm0 16h-8v8h8zm0 16h-8v8h8zm0 24h-8v8h8zm0 16h-16v8h16zm0 16h-24v8h24zm0 16h-32v8h32zm-92 20h-8v88h8zm24 0h-8v88h8zm16 0h-8v88h8zm16 0h-8v88h8zm16 0h-8v88h8zm24 0h-8v88h8zm-4 100h-112v8h112zm0 24h-104v8h104zm20-484h-8v408h8zm16 0h-8v408h8zm24 0h-8v408h8zm16 0h-8v408h8zm16 0h-8v408h8zm20 4h-8v8h8zm32 16h-40v8h40zm8 16h-48v8h48zm0 16h-48v8h48zm0 24h-48v8h48zm0 16h-48v8h48zm0 16h-48v8h48zm0 16h-48v8h48zm0 24h-48v8h48zm0 16h-48v8h48zm0 16h-48v8h48zm0 16h-48v8h48zm0 24h-48v8h48zm0 16h-48v8h48zm0 16h-48v8h48zm0 16h-48v8h48zm0 24h-48v8h48zm0 16h-48v8h48zm0 16h-48v8h48zm0 16h-48v8h48zm0 24h-48v8h48zm0 16h-48v8h48zm0 16h-48v8h48zm20-356h-8v360h8zm24 24h-8v336h8zm16 32h-8v304h8zm16 56h-8v208h8zm-208 264h-8v48h8zm16 0h-8v48h8zm24 0h-8v48h8zm16 0h-8v48h8zm16 0h-8v48h8zm16 0h-8v48h8zm24 0h-8v48h8zm16 0h-8v48h8zm16 0h-8v48h8zm36 12h-32v8h32zm-16 16h-16v8h16zm-164 20h-8v8h8zm16 0h-8v8h8zm24 0h-8v8h8zm16 0h-8v8h8zm16 0h-8v8h8zm16 0h-8v8h8zm24 0h-8v8h8zm16 0h-8v8h8zm16 0h-8v8h8zm-496 24h-8v200h8zm24 0h-8v200h8zm16 0h-8v200h8zm16 0h-8v200h8zm16 0h-8v200h8zm24 0h-8v200h8zm16 0h-8v200h8zm16 0h-8v200h8zm16 0h-8v200h8zm24 0h-8v200h8zm16 0h-8v200h8zm16 0h-8v200h8zm16 0h-8v192h8zm40 0h-8v8h8zm16 0h-8v24h8zm16 0h-8v24h8zm24 0h-8v32h8zm16 0h-8v32h8zm84 12h-80v8h80zm-8 16h-72v8h72zm36-28h-8v24h8zm16 0h-8v16h8zm-456 200h-8v8h8zm24 0h-8v16h8zm16 0h-8v16h8zm16 0h-8v16h8zm16 0h-8v16h8zm24 0h-8v16h8zm16 0h-8v16h8zm16 0h-8v16h8zm16 0h-8v16h8zm24 0h-8v16h8zm16 0h-8v16h8zm16 0h-8v16h8z"/><path transform="translate(32.912 14.96) scale(.016 -.016)" d="m60 8h-8v496h8zm24-8h-8v512h8zm16 0h-8v512h8zm16 0h-8v512h8zm36 12h-32v8h32zm0 16h-32v8h32zm0 16h-32v8h32zm0 24h-32v8h32zm0 16h-32v8h32zm0 16h-32v8h32zm0 16h-32v8h32zm0 24h-32v8h32zm0 16h-32v8h32zm0 16h-32v8h32zm0 16h-32v8h32zm0 24h-32v8h32zm0 16h-32v8h32zm0 16h-32v8h32zm0 16h-32v8h32zm0 24h-32v8h32zm0 16h-32v8h32zm0 16h-32v8h32zm0 16h-32v8h32zm0 24h-32v8h32zm0 16h-32v8h32zm0 16h-32v8h32zm0 16h-32v8h32zm0 24h-32v8h32zm0 16h-32v8h32zm0 16h-32v8h32zm0 16h-32v8h32zm0 24h-32v8h32zm16-216h-8v8h8zm0 16h-8v8h8zm0 16h-8v8h8zm0 16h-8v8h8zm0 24h-8v8h8zm0 16h-8v8h8zm0 16h-8v8h8zm0 16h-8v8h8zm0 24h-8v8h8zm0 16h-8v8h8zm0 16h-8v8h8zm0 16h-8v8h8zm0 24h-8v8h8zm24-488h-8v8h8zm0 16h-8v8h8zm0 16h-8v8h8zm0 24h-8v8h8zm0 16h-8v8h8zm0 16h-8v8h8zm0 16h-8v8h8zm0 24h-8v8h8zm0 16h-8v8h8zm0 16h-8v8h8zm0 16h-8v8h8zm0 24h-8v8h8zm0 16h-8v8h8zm0 16h-8v8h8zm0 16h-8v8h8zm0 24h-8v8h8zm0 16h-8v8h8zm0 16h-8v8h8zm0 16h-8v8h8zm0 24h-8v8h8zm-4 20h-8v96h8zm4 108h-16v8h16zm0 24h-16v8h16zm20-508h-8v400h8zm24 0h-8v400h8zm16 0h-8v400h8zm24 24h-8v344h8zm-4 356h-16v8h16zm-60 28h-8v96h8zm24 0h-8v96h8zm16 0h-8v96h8zm20 4h-16v8h16zm0 24h-16v8h16zm0 16h-16v8h16zm0 16h-16v8h16zm0 16h-16v8h16zm-212 100h-8v64h8zm24-8h-8v72h8zm28-4h-24v8h24zm0 16h-24v8h24zm0 16h-24v8h24zm0 16h-24v8h24zm0 24h-24v8h24zm20-68h-8v48h8zm16 0h-8v48h8zm16 0h-8v48h8zm4 68h-56v8h56zm20-68h-8v56h8zm24 0h-8v56h8zm16 0h-8v56h8zm16 0h-8v56h8zm20 12h-16v8h16zm8 16h-24v8h24zm0 16h-24v8h24zm-84 20h-8v8h8zm24 0h-8v8h8zm16 0h-8v8h8zm16 0h-8v8h8zm16 0h-8v8h8zm-200 16h-8v40h8zm24 0h-8v40h8zm16 0h-8v40h8zm16 0h-8v40h8zm16 0h-8v40h8zm24 0h-8v40h8zm16 0h-8v40h8zm16 0h-8v40h8zm16 0h-8v40h8zm12 12h-8v8h8zm0 16h-8v8h8zm28-28h-8v32h8zm16 0h-8v32h8zm-200 48h-8v24h8zm24 0h-8v24h8zm16 0h-8v24h8zm16 0h-8v24h8zm16 0h-8v24h8zm24 0h-8v24h8zm16 0h-8v24h8zm16 0h-8v24h8zm16 0h-8v24h8zm24 0h-8v24h8zm16 0h-8v24h8zm16 0h-8v24h8z"/><path transform="translate(38.08 14.96) scale(.016 -.016)" d="m60 8h-8v552h8zm24-8h-8v560h8zm16 0h-8v560h8zm16 0h-8v560h8zm84 12h-72v8h72zm0 16h-72v8h72zm0 16h-72v8h72zm0 24h-72v8h72zm0 16h-72v8h72zm0 16h-72v8h72zm0 16h-72v8h72zm0 24h-72v8h72zm0 16h-72v8h72zm0 16h-72v8h72zm0 16h-72v8h72zm0 24h-72v8h72zm0 16h-72v8h72zm0 16h-72v8h72zm0 16h-72v8h72zm0 24h-72v8h72zm0 16h-72v8h72zm0 16h-72v8h72zm0 16h-72v8h72zm0 24h-72v8h72zm0 16h-72v8h72zm0 16h-72v8h72zm0 16h-72v8h72zm0 24h-72v8h72zm0 16h-72v8h72zm0 16h-72v8h72zm0 16h-72v8h72zm0 24h-72v8h72zm0 16h-72v8h72zm0 16h-72v8h72zm0 16h-72v8h72zm20-548h-8v544h8zm24 0h-8v544h8zm16 8h-8v536h8zm16 176h-8v176h8zm16-32h-8v232h8zm24-32h-8v296h8zm16-24h-8v352h8zm16-32h-8v416h8zm24-40h-8v320h8zm16-16h-8v336h8zm16-8h-8v344h8zm16 0h-8v344h8zm24 0h-8v344h8zm16 0h-8v344h8zm16 0h-8v280h8zm0 288h-8v56h8zm16-288h-8v248h8zm0 312h-8v32h8zm24-312h-8v224h8zm0 336h-8v8h8zm16-336h-8v192h8zm16 0h-8v168h8zm16 0h-8v144h8zm68 12h-48v8h48zm0 16h-48v8h48zm-8 16h-40v8h40zm-16 24h-24v8h24zm-8 16h-16v8h16zm-228 268h-8v152h8zm16 0h-8v160h8zm16 0h-8v168h8zm16 0h-8v168h8zm24 0h-8v168h8zm16 0h-8v168h8zm16 0h-8v168h8zm16 0h-8v168h8zm24 0h-8v168h8zm16 8h-8v160h8zm16 32h-8v128h8zm16 24h-8v104h8zm24 24h-8v80h8zm16 24h-8v40h8zm-544 96h-8v120h8zm24 0h-8v120h8zm16 0h-8v120h8zm16 0h-8v120h8zm16 0h-8v120h8zm24 0h-8v120h8zm16 0h-8v120h8zm16 0h-8v120h8zm16 0h-8v120h8zm24 0h-8v120h8zm16 0h-8v120h8zm16 0h-8v120h8zm-200 128h-8v8h8zm24 0h-8v8h8zm16 0h-8v8h8zm16 0h-8v8h8zm16 0h-8v8h8zm24 0h-8v8h8zm16 0h-8v8h8zm16 0h-8v8h8zm16 0h-8v8h8zm24 0h-8v8h8zm16 0h-8v8h8zm16 0h-8v8h8zm-176 16h-8v16h8zm32 0h-8v16h8zm40 0h-8v16h8zm32 0h-8v16h8zm40 0h-8v16h8z"/><path transform="translate(51.344 14.96) scale(.016 -.016)" d="m76 8h-8v520h8zm16-8h-8v528h8zm16 0h-8v528h8zm16 0h-8v528h8zm24 0h-8v528h8zm16 0h-8v528h8zm16 0h-8v528h8zm16 0h-8v528h8zm24 0h-8v528h8zm16 0h-8v528h8zm16 0h-8v528h8zm36 12h-32v8h32zm0 16h-32v8h32zm0 16h-32v8h32zm0 24h-32v8h32zm0 16h-32v8h32zm0 16h-32v8h32zm0 16h-32v8h32zm0 24h-32v8h32zm0 16h-32v8h32zm0 16h-32v8h32zm0 16h-32v8h32zm0 24h-32v8h32zm0 16h-32v8h32zm0 16h-32v8h32zm0 16h-32v8h32zm0 24h-32v8h32zm0 16h-32v8h32zm0 16h-32v8h32zm0 16h-32v8h32zm0 24h-32v8h32zm0 16h-32v8h32zm0 16h-32v8h32zm0 16h-32v8h32zm0 24h-32v8h32zm0 16h-32v8h32zm0 16h-32v8h32zm0 16h-32v8h32zm0 24h-32v8h32zm0 16h-32v8h32zm28-516h-8v200h8zm-12 476h-8v8h8zm0 24h-8v8h8zm0 16h-8v8h8zm36-516h-8v200h8zm16 0h-8v200h8zm16 0h-8v200h8zm24 0h-8v200h8zm16 0h-8v200h8zm16 0h-8v200h8zm16 0h-8v200h8zm24 0h-8v200h8zm16 0h-8v200h8zm60 12h-48v8h48zm0 16h-48v8h48zm0 16h-48v8h48zm0 24h-48v8h48zm0 16h-48v8h48zm0 16h-48v8h48zm0 16h-48v8h48zm0 24h-48v8h48zm0 16h-48v8h48zm0 16h-48v8h48zm0 16h-48v8h48zm28-188h-8v200h8zm16 0h-8v200h8zm30 12h-18v8h18zm-10 32h-8v8h8zm0 24h-8v8h8zm0 16h-8v8h8zm0 16h-8v8h8zm0 16h-8v8h8zm0 24h-8v8h8zm0 16h-8v8h8zm0 16h-8v8h8zm-532 364h-8v96h8zm16 0h-8v96h8zm16 0h-8v96h8zm16 0h-8v96h8zm24 0h-8v96h8zm16 0h-8v96h8zm16 0h-8v96h8zm16 0h-8v96h8zm24 0h-8v96h8zm16 0h-8v96h8zm16 0h-8v96h8zm16 0h-8v96h8zm24 0h-8v96h8zm12 12h-8v8h8zm0 16h-8v8h8zm0 16h-8v8h8zm0 24h-8v8h8zm0 16h-8v8h8zm-228 12h-8v32h8zm16 0h-8v32h8zm16 0h-8v32h8zm16 0h-8v32h8zm24 0h-8v32h8zm16 0h-8v32h8zm16 0h-8v32h8zm16 0h-8v32h8zm24 0h-8v32h8zm16 0h-8v32h8zm16 0h-8v32h8zm16 0h-8v32h8zm24 0h-8v32h8zm16 0h-8v32h8zm-232 32h-8v16h8zm16 0h-8v16h8zm16 0h-8v16h8zm16 0h-8v16h8zm24 0h-8v16h8zm16 0h-8v16h8zm16 0h-8v16h8zm16 0h-8v16h8zm24 0h-8v16h8zm16 0h-8v16h8zm16 0h-8v16h8zm16 0h-8v16h8zm24 0h-8v16h8zm16 0h-8v8h8zm-232 16h-8v8h8zm16 0h-8v8h8zm16 0h-8v8h8zm16 0h-8v8h8zm24 0h-8v8h8zm16 0h-8v8h8zm16 0h-8v8h8zm16 0h-8v8h8zm24 0h-8v8h8zm16 0h-8v8h8zm16 0h-8v8h8zm16 0h-8v8h8zm24 0h-8v8h8z"/><path transform="translate(61.36 14.96) scale(.016 -.016)" d="m60 8h-8v496h8zm24-8h-8v512h8zm16 0h-8v512h8zm16 0h-8v512h8zm36 12h-32v8h32zm0 16h-32v8h32zm0 16h-32v8h32zm0 24h-32v8h32zm0 16h-32v8h32zm0 16h-32v8h32zm0 16h-32v8h32zm0 24h-32v8h32zm0 16h-32v8h32zm0 16h-32v8h32zm0 16h-32v8h32zm0 24h-32v8h32zm0 16h-32v8h32zm0 16h-32v8h32zm0 16h-32v8h32zm0 24h-32v8h32zm0 16h-32v8h32zm0 16h-32v8h32zm0 16h-32v8h32zm0 24h-32v8h32zm0 16h-32v8h32zm0 16h-32v8h32zm0 16h-32v8h32zm0 24h-32v8h32zm0 16h-32v8h32zm0 16h-32v8h32zm0 16h-32v8h32zm0 24h-32v8h32zm16-216h-8v8h8zm0 16h-8v8h8zm0 16h-8v8h8zm0 16h-8v8h8zm0 24h-8v8h8zm0 16h-8v8h8zm0 16h-8v8h8zm0 16h-8v8h8zm0 24h-8v8h8zm0 16h-8v8h8zm0 16h-8v8h8zm0 16h-8v8h8zm0 24h-8v8h8zm24-488h-8v8h8zm0 16h-8v8h8zm0 16h-8v8h8zm0 24h-8v8h8zm0 16h-8v8h8zm0 16h-8v8h8zm0 16h-8v8h8zm0 24h-8v8h8zm0 16h-8v8h8zm0 16h-8v8h8zm0 16h-8v8h8zm0 24h-8v8h8zm0 16h-8v8h8zm0 16h-8v8h8zm0 16h-8v8h8zm0 24h-8v8h8zm0 16h-8v8h8zm0 16h-8v8h8zm0 16h-8v8h8zm0 24h-8v8h8zm-4 20h-8v96h8zm4 108h-16v8h16zm0 24h-16v8h16zm20-508h-8v400h8zm24 0h-8v400h8zm16 0h-8v400h8zm24 24h-8v344h8zm-4 356h-16v8h16zm-60 28h-8v96h8zm24 0h-8v96h8zm16 0h-8v96h8zm20 4h-16v8h16zm0 24h-16v8h16zm0 16h-16v8h16zm0 16h-16v8h16zm0 16h-16v8h16zm-212 100h-8v64h8zm24-8h-8v72h8zm28-4h-24v8h24zm0 16h-24v8h24zm0 16h-24v8h24zm0 16h-24v8h24zm0 24h-24v8h24zm20-68h-8v48h8zm16 0h-8v48h8zm16 0h-8v48h8zm4 68h-56v8h56zm20-68h-8v56h8zm24 0h-8v56h8zm16 0h-8v56h8zm16 0h-8v56h8zm20 12h-16v8h16zm8 16h-24v8h24zm0 16h-24v8h24zm-84 20h-8v8h8zm24 0h-8v8h8zm16 0h-8v8h8zm16 0h-8v8h8zm16 0h-8v8h8zm-200 16h-8v40h8zm24 0h-8v40h8zm16 0h-8v40h8zm16 0h-8v40h8zm16 0h-8v40h8zm24 0h-8v40h8zm16 0h-8v40h8zm16 0h-8v40h8zm16 0h-8v40h8zm12 12h-8v8h8zm0 16h-8v8h8zm28-28h-8v32h8zm16 0h-8v32h8zm-200 48h-8v24h8zm24 0h-8v24h8zm16 0h-8v24h8zm16 0h-8v24h8zm16 0h-8v24h8zm24 0h-8v24h8zm16 0h-8v24h8zm16 0h-8v24h8zm16 0h-8v24h8zm24 0h-8v24h8zm16 0h-8v24h8zm16 0h-8v24h8z"/><path transform="translate(66.528 14.96) scale(.016 -.016)" d="m60 8h-8v400h8zm24-8h-8v408h8zm16 0h-8v408h8zm16 0h-8v408h8zm16 0h-8v408h8zm24 0h-8v408h8zm44 12h-48v8h48zm0 16h-48v8h48zm0 16h-48v8h48zm0 24h-48v8h48zm0 16h-48v8h48zm0 16h-48v8h48zm0 16h-48v8h48zm0 24h-48v8h48zm0 16h-48v8h48zm0 16h-48v8h48zm0 16h-48v8h48zm0 24h-48v8h48zm0 16h-48v8h48zm0 16h-48v8h48zm0 16h-48v8h48zm0 24h-48v8h48zm0 16h-48v8h48zm0 16h-48v8h48zm0 16h-48v8h48zm0 24h-48v8h48zm0 16h-48v8h48zm0 16h-48v8h48zm20-388h-8v224h8zm24 0h-8v224h8zm16 0h-8v224h8zm16 8h-8v216h8zm12 228h-88v8h88zm0 16h-88v8h88zm0 24h-88v8h88zm0 16h-88v8h88zm0 16h-88v8h88zm8 16h-96v8h96zm16 24h-112v8h112zm0 16h-112v8h112zm0 16h-112v8h112zm0 16h-112v8h112zm28-44h-8v40h8zm64-336h-8v264h8zm16-16h-8v280h8zm16 0h-8v280h8zm16 0h-8v280h8zm24 0h-8v280h8zm68 12h-64v8h64zm0 16h-64v8h64zm0 16h-64v8h64zm0 24h-64v8h64zm0 16h-64v8h64zm0 16h-64v8h64zm0 16h-64v8h64zm0 24h-64v8h64zm0 16h-64v8h64zm0 16h-64v8h64zm0 16h-64v8h64zm0 24h-64v8h64zm0 16h-64v8h64zm0 16h-64v8h64zm0 16h-64v8h64zm20-260h-8v224h8zm24 0h-8v224h8zm16 0h-8v224h8zm16 8h-8v216h8zm12 236h-88v8h88zm0 16h-88v8h88zm0 16h-88v8h88zm-268 60h-8v40h8zm16-16h-8v56h8zm24-32h-8v88h8zm16 0h-8v88h8zm16 0h-8v88h8zm16 0h-8v88h8zm24 0h-8v88h8zm16 0h-8v88h8zm16 0h-8v88h8zm16 0h-8v88h8zm24 0h-8v88h8zm16 0h-8v88h8zm16 0h-8v88h8zm16 0h-8v88h8zm24 0h-8v88h8zm12 12h-8v8h8zm-268 84h-8v8h8zm16 0h-8v8h8zm24 0h-8v8h8zm16 0h-8v8h8zm16 0h-8v8h8zm16 0h-8v8h8zm24 0h-8v8h8zm16 0h-8v8h8zm16 0h-8v8h8zm16 0h-8v8h8zm24 0h-8v8h8zm16 0h-8v8h8zm16 0h-8v8h8zm16 0h-8v8h8zm24 0h-8v8h8zm-560 24h-8v56h8zm24 0h-8v56h8zm16 0h-8v56h8zm16 0h-8v56h8zm16 0h-8v56h8zm24 0h-8v56h8zm16 0h-8v56h8zm16 0h-8v56h8zm16 0h-8v56h8zm24 0h-8v56h8zm16 0h-8v56h8zm16 0h-8v56h8zm92 12h-72v8h72zm0 16h-72v8h72zm0 24h-72v8h72zm28-52h-8v48h8zm16 0h-8v48h8zm16 0h-8v48h8zm16 0h-8v48h8zm24 0h-8v48h8zm16 0h-8v48h8zm16 0h-8v48h8zm16 0h-8v48h8zm40 0h-8v48h8zm16 0h-8v48h8zm16 0h-8v48h8zm24 0h-8v40h8zm-56 56h-8v16h8zm-480 8h-8v32h8zm24 0h-8v32h8zm16 0h-8v32h8zm16 0h-8v32h8zm16 0h-8v32h8zm24 0h-8v32h8zm16 0h-8v32h8zm16 0h-8v32h8zm16 0h-8v32h8zm24 0h-8v32h8zm16 0h-8v32h8zm16 0h-8v32h8zm40 0h-8v8h8zm16 0h-8v16h8zm16 0h-8v24h8zm16 0h-8v32h8zm24 0h-8v32h8zm16 0h-8v32h8zm16 0h-8v32h8zm16 0h-8v32h8zm24 0h-8v32h8zm16 0h-8v32h8zm16 0h-8v32h8zm52 12h-40v8h40zm0 16h-40v8h40zm20-28h-8v16h8zm-200 40h-8v24h8zm40 0h-8v8h8zm16 0h-8v8h8zm16 0h-8v8h8zm24 0h-8v8h8zm16 0h-8v8h8zm16 0h-8v8h8z"/><path transform="translate(77.312 14.96) scale(.016 -.016)" d="m44 144h-8v216h8zm24-40h-8v296h8zm16-24h-8v352h8zm16-24h-8v384h8zm16-16h-8v400h8zm24-8h-8v408h8zm16-16h-8v424h8zm16 0h-8v424h8zm16-8h-8v432h8zm24-8h-8v440h8zm16 0h-8v440h8zm16 0h-8v440h8zm16 0h-8v440h8zm24 0h-8v152h8zm0 200h-8v120h8zm0 168h-8v72h8zm16-368h-8v136h8zm0 200h-8v120h8zm0 176h-8v64h8zm16-376h-8v136h8zm0 200h-8v120h8zm0 184h-8v56h8zm16-384h-8v144h8zm0 200h-8v120h8zm0 176h-8v64h8zm24-376h-8v152h8zm0 200h-8v120h8zm0 128h-8v112h8zm16-328h-8v160h8zm0 200h-8v240h8zm60-196h-64v8h64zm32 16h-96v8h96zm0 16h-96v8h96zm0 16h-96v8h96zm0 24h-96v8h96zm0 16h-96v8h96zm0 16h-96v8h96zm0 16h-96v8h96zm0 24h-96v8h96zm0 48h-96v8h96zm0 24h-96v8h96zm0 16h-96v8h96zm0 16h-96v8h96zm0 16h-96v8h96zm0 24h-96v8h96zm0 16h-96v8h96zm0 16h-96v8h96zm0 16h-96v8h96zm0 24h-96v8h96zm0 16h-96v8h96zm0 16h-96v8h96zm0 16h-96v8h96zm0 24h-96v8h96zm28-404h-8v128h8zm0 168h-8v48h8zm16-160h-8v120h8zm0 160h-8v48h8zm-4 60h-32v8h32zm0 16h-32v8h32zm0 16h-32v8h32zm0 24h-32v8h32zm0 16h-32v8h32zm0 16h-32v8h32zm0 16h-32v8h32zm0 24h-32v8h32zm0 16h-32v8h32zm0 16h-32v8h32zm0 16h-32v8h32zm36-372h-8v96h8zm0 136h-8v144h8zm16-112h-8v72h8zm0 112h-8v144h8zm24-80h-8v32h8zm0 88h-8v136h8zm12 12h-16v8h16zm0 16h-16v8h16zm0 16h-16v8h16zm0 16h-16v8h16zm0 24h-16v8h16zm-8 16h-8v8h8zm0 16h-8v8h8zm-44 20h-8v64h8zm16 0h-8v64h8zm20 12h-8v8h8zm-36 52h-8v24h8zm-440 40h-8v23h8zm40 0h-8v32h8zm16 0h-8v40h8zm148 12h-136v8h136zm0 16h-136v8h136zm20-28h-8v32h8zm16 0h-8v32h8zm16 0h-8v32h8zm24 0h-8v32h8zm16 0h-8v32h8zm16 0h-8v48h8zm24 0h-8v48h8zm16 0h-8v48h8zm16 0h-8v40h8zm16 0h-8v32h8zm24 0h-8v16h8zm-296 56h-8v8h8zm16 0h-8v16h8zm16 0h-8v16h8zm16 0h-8v16h8zm24 0h-8v16h8zm16 0h-8v16h8zm16 0h-8v16h8zm16 0h-8v16h8zm24 0h-8v16h8zm16 0h-8v16h8zm20 12h-24v8h24zm28-12h-8v8h8z"/><path transform="translate(87.28 14.96) scale(.016 -.016)" d="m36 88h-8v64h8zm0 224h-8v80h8zm24-248h-8v88h8zm0 208h-8v160h8zm16-224h-8v104h8zm0 208h-8v184h8zm16-224h-8v120h8zm0 208h-8v200h8zm16-216h-8v128h8zm0 200h-8v216h8zm24-208h-8v136h8zm0 200h-8v224h8zm16-208h-8v144h8zm0 200h-8v232h8zm16-200h-8v144h8zm0 192h-8v240h8zm16-200h-8v152h8zm0 200h-8v240h8zm24-200h-8v152h8zm0 192h-8v248h8zm16-192h-8v152h8zm0 192h-8v248h8zm16-192h-8v152h8zm0 184h-8v256h8zm16-184h-8v144h8zm0 184h-8v256h8zm24-184h-8v136h8zm0 176h-8v184h8zm0 200h-8v64h8zm16-376h-8v128h8zm0 176h-8v168h8zm0 208h-8v56h8zm92-380h-88v8h88zm0 16h-88v8h88zm0 16h-88v8h88zm0 16h-88v8h88zm0 24h-88v8h88zm0 16h-88v8h88zm0 16h-88v8h88zm0 16h-88v8h88zm0 24h-72v8h72zm0 16h-88v8h88zm0 16h-88v8h88zm0 16h-88v8h88zm0 24h-88v8h88zm0 16h-88v8h88zm0 16h-88v8h88zm0 16h-88v8h88zm0 24h-88v8h88zm0 16h-88v8h88zm-24 16h-64v8h64zm24 40h-48v8h48zm0 16h-88v8h88zm0 16h-88v8h88zm0 16h-88v8h88zm0 24h-88v8h88zm20-436h-8v320h8zm0 360h-8v24h8zm16-352h-8v312h8zm0 352h-8v24h8zm16-352h-8v296h8zm0 352h-8v24h8zm24-344h-8v288h8zm0 344h-8v24h8zm16-336h-8v272h8zm0 336h-8v24h8zm16-328h-8v248h8zm0 328h-8v24h8zm16-320h-8v232h8zm0 320h-8v24h8zm24-296h-8v192h8zm0 296h-8v24h8zm4 36h-152v8h152zm-8 24h-144v8h144zm-16 16h-128v8h128zm48-328h-8v8h8zm0 16h-8v8h8zm0 24h-8v8h8zm0 16h-8v8h8zm0 16h-8v8h8zm0 16h-8v8h8zm-468 252h-8v24h8zm16 0h-8v32h8zm24 0h-8v40h8zm16 0h-8v48h8zm52 12h-48v8h48zm0 16h-48v8h48zm0 16h-48v8h48zm28-44h-8v56h8zm16 0h-8v56h8zm16 0h-8v56h8zm24 0h-8v56h8zm16 0h-8v56h8zm16 0h-8v56h8zm16 0h-8v56h8zm24 0h-8v56h8zm16 0h-8v56h8zm16 0h-8v56h8zm24 0h-8v56h8zm16 0h-8v48h8zm24 0h-8v40h8zm16 0h-8v32h8zm16 0h-8v24h8zm16 0h-8v8h8zm-280 72h-8v16h8z"/></svg>