<svg width="143.98" height="18.96" viewBox="0 0 143.98 18.96" xmlns="http://www.w3.org/2000/svg"><path transform="translate(0 14.96) scale(.016 -.016)" d="m231 727 34-5 18-23-44 6-12 3zm-71-12h19l2-16zm76-611v2l-2-3h1l8-29-24 8-5-7-17-31h-31l-13-19-12-5h-59l-19 8-8 19v40l-2 4v98l2-1v46l9 3 26 1-1 7h-9l-9-3v196l-16-2v39l11 4-9 3-13-5v20l2 19 16-1v12h-5l-1 28-9 4v20l8-14v2l16-9 12 16-4-1 4 8-24 1v79l4 22v10l3 1 1 6v-6l15 6h5v1l2-1h44l12 7-1-7h17l12-9h8v8l1-1h97l-11-15h3l8 9 3-10h10l-8-21 31-3 7 18-26 2 14 17h113v1l26-2h5l41-6 21-4 20-5-8-3-14 5 1-3 1-1 19-7 17-8-2 7 14-4-5-27 19-1 1 6-15 15 16-10 2 13 20-20v5l5-9 13-13h-5l12-11 15 20 13-25-12-13v-1l-8-11h15l-6 11 7-11h18l-3-8 5-12-2 5-3 7-4-12 3-5-3 4v-1l1-2 6-14-8 14-2-5 6-10h-9l7-22 8 22 2-5 5-20-1 2 5-23 3-20 1-21-4-44-5-21-15-39-10-18-29-1-25-9 4 33-3 34 30-10-13 35-2 3-17 6-29 4-2 1-5-20-12 31-9 5-19-2 2 8-6 2-9 23 18 36 4 30-17-11-3-19-36-5-14-20 3-4 4 1 13 19-2 4 36 5-16-31 2-2 4 6 17-44-25 6-13-22-3 21-12 1-7-7 4-22 38-9 19 2 2-22-32 3 15-26-19-7 12-8 20 7 5 19 15-8-14 23 19-2-3 7-2 22 28-17 29-4 3-34-4-33-5 1v-2l-3-10 21-17 27-3-28 23 25 9 29 1-25-33 3-1-32-28-22-5 1-3h-35 10l-2-11 2 11 25-30-6 2 6-11h2l18-8 8-24h13l-5-10 3 1 16-31 12 10-7 21 10-18 2 1 3-11 4-7h-2l-7-24 35-64 12-29-22-22h-18l-1 5-18-5 13 32-16 2-6-15-10 16h-4l-3 5h-4l3 2-10 15 7-17 18-27 23-35h-112l-11 15h-5l-5 2 9-1-16 21 39-12-14 27 12-2-3 16-6 2 3-5-39 1 9-12-12 1 5-5-37-7 11 13h-10l6-2h-19l-26 7-25 37-6 15-1-4-23 53 29 8h1l17-4v1l-11 3 28 30 17-6-12 20-5 43 13 1-3 22-26-1 5-43-28 6-10 15 3-8 19-29 3-2 15-4 5 8 18-24-26 10-1-2 6-6-28-30-14 14-5-7 7-7-16-4-3-4-1 2-10-2 7 9-19 43 9 14-44 3-11 13h-34l-13 36-12-18-24-7-26 4 17 17 12 14 32-9-2 3-21 6-3 19-18 12-5-2 3-29-12-14-13-13 4-4 26-4-9-15 1-9-10-5-4-7-33-1 6-11 30 1 24 12-2 24 24 7 13 19 14-37h34l-11-31 5-13 16 2 27-8v-77l-1-2 1-3h-2l-1-2-2 3-14 1v-25l-2 26h-3l2 3v2l3 7v-5l3 4-2 3-32 30-22 12 12 27h2l-9 3-33-4-7-16 5-2v2l2-4 10-5 32-30-25 6 6-11-26 4 1-2-6-4zm-153 590 13-21 6 3-9 15zm390-31 11-1-1 1-7 1-1 17-5 8-20 2 17-35 4 1zm-238 3 1-21 5-16-1 37 44-6-20-22h26l-6 23-6 7h-20l11 12-2 2-1-1-26 4-4-16-29 11 25 6-28-7 24-9-4-1 3-1 1 1 1-1zm163-11-2-3 9-8 8 31-5 4zm-239 16 5-9 16-2 14 4 1 4zm270-21 3-16 8-2-5 25v-1l-16 15zm-263-31 5 6 2 7 41 7 4-47 41 2 4 42 9-42 18 42 18-35-18-31-9-35v-1l9 34 39-10 3 6-23 6 18 31 9 20 25 10 7 12v1l-8 5-11 2-16 2 21-16-37-15-9-20-18 35v1l-18-42-9 41v-1l-4-42-41-2-4 47 11 25-1 5-11-3-12-27-32-5-3-9-12 12-4-1-22-28zm298 36 2 1-28 11-1-2 26-11zm76 10 6-26 11-1-5 23zm-80-71-9-13 1-1 10 14 10-11h12l9 11h-16l9 19-9 8 16 10v1l-5 7 13 15-3-1-13-15-7-4-5-13-13-27zm45-15-1-40 1-1 4 2v39l29 22h2l3 12-18-1 1 16-8 1-2-1-1-20 5-7-6-1 5-5-26-1v-11h4l-10-13zm97 39 2-31 3-9 10-2-3 9-11 22-1 17v1zm-205-10-3-4 21-5v3l-9 2-4 10-7-4zm-290-84-1 27 15-2-11 29 28-6v5l-10 2 8 14-12 9-10-16-11 13-6-13 13 4-4-39-35 7 7-15 17-3 1-27 18-24 18 6-8 10-25 8 10 12-1 1zm337 71h-1l1-2v2zm-85-18 11-33 9 14 37 8-1 7-3-4-13 24 2-6-16 3-6-9v-1l-1-1-16 13-6-13zm-205 5 13-11 10 3 3 7-4 7zm217-36-11 33 20-19zm-209-9 8 21-4 13h1l-27 6 2-6 8-1 11-37 15 4-1 3zm403 39h-5l5-11h9zm-84-19 7 9-1 4-7-10zm-29-18 18-4v3l-2 1 3 4 1 10-10-14-11 29-13-3-4-34zm143 5 5-8-1 16-12 2zm17-28 1-3 18-1 1-3 5 6 8-29-6 1 2-4 28-12-11 34 2 8-29 12-8 29-20-23zm-430-13 16 37 11-37 13 46-7-3-6-21-5 18-6-2-2 5-13-3-2-4 9 2-10-23h2l-1-19 1-13 9 5 1 12zm-64 34 8-1-3 8-14-17h1zm442-19 16-9 10 2-12 30-5 3zm-68 12 4 3-15 3-5-2zm-417-16-6 13h-6v-12zm328-99 16 19 32 16v8l-14 18-18-9 5 32-5 9h-1l1-4-3 4h-8l-17 6v-1l-31-1h-18l-22 1-15-36v-32l-1-7 38-7-15-18 15-23 14 18h36l19 5 18 10 5-2 5 4-10 4zm-117 75 7-8 8-1-15 17v3l-6-6 4-7zm172-4-1 1-7 12-11-1 12-14 8 1zm-214-46-7 9 10-28 13 6-16 4 19 27 23-1-9 16-7 1 4 4-3 6-8 1-2 5-13-1-27-6 14-2-5-17 33 3zm-23 3-13 37-2 2-23 3 13-13 11 6-8-10 8-8-23-13v1l-1-1v-6l-9-26 8-4 3 8-2 2h3l2 6 4-8 29-6-7-29 2-3 8 3 4 20-7-3 3 23-15 3 22 29-2 3-5 5zm413 3 17-29-3 24-4 9-12 22-31 9 12-29zm-525 25 16-19-1 7-15 18-16-5 9-3-21-30 16 2 6-5 21 2-11-13 3-3 11 18-1 5-38-4zm192-50 12-3-10 16zm-43-98h8l-1 7-24 26 44 9-23 24 7 36-4 1-7-37-15 30 1 1-8 1 8-10-7-3 10-19-14-5-11-17 2-11-13-1-3-5 11-15-2-3 16-2 6-25 18-12 6 19zm-134 71 41-8-10 15-2-2-23 5zm254-55 8-2 1 1-2 2-1-1-1 3-8 10 6 10-1 7 9 17-13 11-15-28 4-30h-2l12-14zm-128 50 23-24-44-9zm-106-54-7-4-5-9 4 2v3l4-1 15 8-4 1 32 27 10-4-2 3 16 2 6 8v6l-1-3-6 10-5 2-10-13-23 8-1 2-6-6 10-15h-3l-24-20zm69 45 2 1h-1zm226-15-2-10 18 2-5 12-12-1zm-28 4-10-21 13-37 8 29zm145-10v1l-2 1-17-13-2-5 10-17 2 6 24-4-4 7 4 3-13 2zm-72-71 30 28 11-29-8-19 10-2 10-1h14-2l-10 1 6 16-6 24 2 8-11-4-3-12-11 29 10 4-11 8-1-1v1l-4 3-32 2 1 14-9-3 1-3-2-16 4-7 33-2-25-24zm-346-33-2 16-10 3-21 3-11 15 2 36 30 23 9 5v2l-14-7-30-23-2-36 11-15 2-11h3zm94 101 24-26-35 5zm108-59 15-18-9-2 9-43-11-1v-1l22 2-9 45 14 13-1 3-2 2 6 25-23 6 8 11-9-1zm-156 18-1-10 11 19-37 9-2-11zm100-21 25 29h-12l-20-22 3-7-7-1 24-15 30-3 4 1-22 2zm293 12 7-28 17 25zm-44-62-11 16-3-5 2-10 26-8 1 10-11 13zm40-6 1 1-3 1zm-47-24-4 15-12-32 20 6 5 13zm26-48 16 25 2-29 19 36-28-1-26-9-15-24zm72 0-4 13-8-15 6-20zm-444-11 3-11 3 17-4 7zm400-14 16 24-19-7-6-8 1-2-2-1-16-23 7-3v5l1-6 3-1 10-15 10 3h39l20-5 6-11v1l-17 32-20 5 4 12zm-95-24 9 38 9 3v4l-28-18-5-3-6-28 17-3 24 12-9-38 26 13 11-19 19-1 4 2-9 16-3 7-4 6h1l-5 10-2-1 1 3-2 3-10 4-18-5 11 7-5 1zm-44 32 4 1-17 4v-2zm-35-31-2-16 16-10 1 1-1 3 3 21h-2l-11 36zm-173 28 2-8 4 3-3 11zm306-15 1 2-5 3 2-4zm-409-11 23 12-25-13 12-19 3 1zm13-39 12 33 38-12-8-18 7 2 2 3 6 14h4l1 1h-12l-5 17-34 10-11-31-11-35 7-13 8 13zm24-76 13 19h31v-2l20 36 14 17 32-4 13-14 8-24 5 16-7 19h2l-14 25-27-11 13 22-2 2 4 2 4 7 3-4 23 9-11-14 27-7-18-31 20-3-11-37-4 13v-22l-8-19-7-3 4-5-27-3h-78l13 3 2 10-10-2h-39zm68 101v3l-2-2zm341-22-6 9-2-11zm-466 7 9-20h3l-10 21zm531-20h-5 5zm-360-61 6-8 6 14-10-1zm392-23 1-5h-19z"/><path transform="translate(11.552 14.96) scale(.016 -.016)" d="m159 7 21-7 31-21-21 3-39 13-19 10-17 12-4 19 4 7-20 20-12 17-10 19-14 39-4 20-4 21-1 21-1 32-10 6 10 9v72l20-25 4 5v2l-11 15v12h-4l-10 25-18 2 9 23-2 31 11 12v7l-4 26v39l27 27h189l20-8 7-19v-38l7-20-7 3v-3l-1 3-21 9-2-5 17-7-17-34-16-1h-12 1l-19-12 2-1 1-3 18-11 15-16-15-14 16 14 17 12-4 4-23 14 20 13 30 1 17 34v-57l-28-21v-133l2-22-5 4v-5l17-33h1l-13-27 18-10 17-16 6 11-5 5h5l-1 1-19-1v-1l-5 37 18-4 1 2-12 3-22 41 9-7 39-35v1h7v1-1l28 3 14-3 3 34 5 30 11-23 17 24-3 15-20-26-14 29-4-30 2 21v38l7-4 2 12 9-17 3-2 19 10 7 19 4-35 3 4-3 31-15 17-10-28-17 33h-1v10l-3 26 3 1v1l2-1 9 4 1-2 3 7-8 12v-1l-6-15v13l-4-1v115l20 11 18-34 3 6-17 32 27-5-5 4-4 1 1 2-14 12-6-14-20-11 26 26-2 1h56l1 4h57l2-13-24-41-3 5-3-5 4-8 2 4 26-3 4-5 33 14-1 2-16-6-26 3 24 41-2 13h76l20-8-4-3-30-3-31 1 4-12h7l30 3 3 3 5-12 3 10 7-33-7-2v-2l-2-13 2-24 1 3v-19l-6-12 3-2v-2l6-22-9 3-24-5-15-21 8-4 6 1 10 18 1-15 12 2-10-18v-2l10-10-7-3-2-4 5-2 5 9 21-7v-39l-9 20-13-4-2-15-5 12-10-3 6 13-3 7-6-12 2-8-14 4 6-14 16 5 9-39-5-1v-13l-23-2 2-3 5 1 16-36 2-15 1 1-1-2 1-12-3-17 3-11 10 7-6-20-6-19-3 23-5 2-1-2 4-28 12-39v-19l-14-2 14-18-27-27h-39l19 12-1 3-13-8h-117l-38 8-5 18-24 14-21 3-35 8-6 20 8 2-6 12-7-9 1-2 3-1-20-31 5-16-12 3-9 9-10-16-9 11h-1l-5-18h-2l16-20-15-4-21-1 20 25h-4l-15-20-18 1-4-5-14 10-18-1v36-23l-21 7-3 13-3-1zm297 459h17l-1 12-1 1h1l-2 12 21-12h8l-9 18-23 13-1-1 5-37h-15l-2-6-15 28-1-1 16-31 10-25h1l13-27 9-1 31-6 17 6 13 10-14-5 6 18-13-10-2 22h-4l-11-32-31 6-9 19h-3zm-305-178 5 26 21-23v1l-20 22 16 43-5 8-2-1 3-4-6-1-4-5-3 4-13-1 8 10-5 9-17 2 9 27h-4l2 40 14 21-5 10h2l-11 16-23 11h-1l23-11-4-4 9-12-8-1-20-30-2-40 15 1-9-28-34-2 23-17v-1l5-1 1 6-14 11 34 2 11-20 10 1-13-35 10-8-5-26-7-1 7-26 12 13-4 14zm-40 215 1-27v27zm48-12-12-15h2l11 14zm41-12 23-39 8-3-21 37zm-133-4v-1l17-10-1 2zm168-12 40 10-1 2-41-11zm362 2-7-23 11 3zm-112-15h-4l2-4h2l7 1 2 3h-9zm-314-4 23-39 2 2-22 37zm-74-9v2l-17 2-2-2zm499-27-9 24v-2l9-25 7 29-1 3zm-46 24 1-13 6 5zm-323-13 8-18 5 14-5 12zm343-1 6 6-6-6zm4-9 20-6 1 1-22 7zm-142-24-7-29 6-9 9 38 37-3-22 27-8 1 22-27-37 3zm-237 20h1-2zm-1 0m-45-1h-3l38-2h1zm10-29v-1h3l-20 30-3-1 19-29zm45 28 30-5-30 5zm400-4 3 4h-9l3-4zm14 3m-38-13 16-2 1 1-18 2zm-20-130 17 19 1 9 2-5 8 10-5 2-28 21 18 39-13-6 8 17-8 4-1 1-34 2-35 1 3-3 24-1 36-2-10-22 17 8-19-41 28-21-23-27 12-5 18-21 6-1-8 16v4zm17 97-1-1 7-3-1 7-8 4zm-167-10 10-4-7 8-12 6zm-290 9-1 1 1-3 6-1 7 1zm-5-25-3-5h6l-6 11h-8l3 10-3 6-7-22zm309 10 3-18h5l-3 18 1 3-8 3-1-5zm-222-51 2 3-17 30-1-7zm-89-5 7 1 9 32-6 4zm275-1-1-1v-2 2l-3-3v39l3-24v5l4 3-3-17zm119 11-1-3h19l-1 3zm-46-30v-2l3 1-2 22-9-8zm175 19v-19l-1-10zm-441-61h34l-1-2h7v2h-4l3 8-14 36-15-44-12 43-13 16-5-6 8-10zm289 20-9 2-2-3v-2l22-7-5 28 1 3-3-1-6-9zm41 20-29-35 20 5 21 26zm-435-12-7 12-8-6zm32-2 23-21 14-36h11l-25-28 6 2 23 25-1 1-12 31h-4l-3 10-18 16 10 5-3 6zm423-11-14-4 26-7-9 10zm-441-7-21-6 2-1 18 5zm394-20 11 1-13 15v-33l-13 24-27 10 12-31 17-6-14-23 15 1 13 22 5-11 18 11h-8v11l-9-6zm-226 13-13-15 4-2 10 12zm-34-6-18-19h1l18 18zm404-40-16 36 28 2 1-30v-39l-4 1-15-9 6 32 1-2zm-427 25-5 5 3-8 5-1-2 5zm201-6 8-12 5 14-2 6-24 1 2-4 5-14zm-177-20 23 29-4-1-20-26zm-42 24 11-32h2l-11 32zm246-39-8 21 7-23 15 3 6 4 6 1-9 23-8-2zm63 14h-1v-2l25 2-1 5-25-2zm64-15-24-29 30 16h1l12 15 13 5-2 6zm-375-62-18 9-1-1 16-17 7-4 9-11 2 7-13 17 17 45 31-9 3 5-11 33-3-1 12-35-31 9v1l-1-1 1-2h-2l-14-38-13 38h-3l2 3-1 4h5l8 8-3 9-13 3-9-3 9-24h-1zm307 61 7-17 5 2-10 24zm-180 2 11-3 1 1v1l-13 3zm-186-30 10 20-7 7-14-28 10-4 26 1 5 5zm459 16-8-4 3-2 14 16v1zm-383 3-1 2-1-1 1-1zm277-2v2l-1 2v-2zm-89-39 25 3 28 2-20-38-6-1 24-5 20-19 30-8h1l15 29v3l-9 7-10 3-3 2h-7l-2 9-4 4-9 2-22-8 11 10-4 1 14 27-7-1 4 9-7 3-7-13-23-16-12 27-9-12-23 4-9 9-12-5 6-6-10-1 16-14-30-5v-8l-8 7-14-3 4-4-13-1v-1l24 2-16-32 19 4 34 5h1l21-8 8 2-17 6-20 19zm-227 29 4-4 3 8zm349-11-2-2 11-9h6v4l-20 18-2 4-6-11h1l2 2 5-5zm-355 5 1-5h6l2 6zm159-3h2l1 1h-3zm263-31 5 7-26-6-25 28-1-1v-10h7l-3-6 17-18zm-419 20 3 8-4-5zm140-18h2v1l-13-1 5-11 7 10zm-150-25-24 7-5-11 29-9 34 12-9 10zm82 7 16-27 1 3-14 24zm-12-29-24-1 25 1zm-28-14 18-27h4l3 4-22 33zm68-47 19 32 2-10 8-2 2 9 29-8v1l-29 8 21 27v-1l35-8 22-3-8-11-17-11-38-17-18-4-2-10-2 9-19-3zm254 39-1 7-20 3 24-25 1 16zm-333 191h-19l20-16 7 10zm-84-48v3h-16l-1-4h15v-2l32 17 2-26 4 1-2 28h-3l-24-13v-1h-2z"/><path transform="translate(22.336 14.96) scale(.016 -.016)" d="m45 47v3l2 24 9-15 2 2 7-2 8 15 5 15-2 2-2-6-7 11-9-16-10 15-2-21v12l-1-7v17l-1 11v139l6-16 13 27-2-1-10-21-5 21 3 1v1l-3 8v-6l-1-5v20-5l1 3 3-11-1 4v159l6 3v71l-9 22 12 12-15 11v20l35-11v1l-1 2-31 10 18 24-1 1-20-27v59l7-3-7 43 3 5v20l3-16 21 38h37l26-38 14 2-24 36h37l-11-36 20 2-7-17 18-1 8 18 17-24-10-4 7-2-3-10 21-7-15-23 4-10 13-1 3 15 22-20 34-5-2 12-9 1-22 20-5-23-12 33 7 26-19 6-17 24-36-4 11 38h93l38-8 7-19v-40l-24 11 5-10 20-9v-40l-7 14-14 15 9-39-12 2v-72l-6-24 14-3 29 20 20 6 40 7 20 1 10-16 12-1 22-39-14-26-30 26-2 29-7 1 3-41 29-25 6-1 14 26 15 8-17 31 27 24 21-4 19-7 36-18-44 3 1-2 28-2 31-27 1-1h1l-1-1 24-30 17-37 4-14 12-9 6-41 1-20 1-53-1-26-21 2-4-5h-9l6-8-20-27 17-8h7l21 30-2-24-1-6h2l-2-3-1-12-3 3-1-1 3-2-5-22 17-18-21-21-14 25h-7l5 5-7 15v1l-1 4-38 9-8 9-25-12 12-15 38-9 10-24 6-11 13-5 22 8 15 1-8-19-11-18-42 8-29-12 13-29-15-14-17-12-37-17-20-6-40-6-28 7-5-2-1-6 13 6 28-8h-21l-20 1-2-11-40 6-20 7-18 8-18 11-14 12-28 2 4-6-19-7h-19l3 7-1 1-2-4-13 11h-7v-1l20-17h-28l-29-17-3 13h-72l-38 8-8 19v16zm107 593 13 5-6 10zm8-141 26 7-15 11 30-4-4-9 9-26h7l-5 15h-2l1 1-5 15 6 13 19 30-29 4 6 8-26 4 24-17-35-10-28-7-14 37-4 23-8 3-2-45 4-23-12-34h12l20-3zm267 43 44-4-28-24zm-321-40 12 34 14-37zm-37 12-12-18 8-19 13 19-12 1 17 33h-1l-5-5v4h-2l-5-11-1 10zm187-63 23 2 5 14-21 12-14-36 11-2zm55 20-4-2 5-3 9 5 39 4-1 1zm184 5-18-10 6-26 17 15zm-406-27-6-4v-5l17 23-5 7zm448 13 4 1 4 4-18-3 1-2-14-12 4-8-3-26-42-5 24-28-35-4-40-6 2-3 1 2 41 6 35 4-24 28 42 5 13-29 11 20-4 10-20-1 3 26 16 19zm-378 3h3l1 1h-5zm-51-19h3v2l-7 10 4-22zm289-1 22-36h5l-21 35zm-83 0-14-25 8-10 16 3 6 12zm-105-71 8 1 10 31 5-7v1l-4 6-24 10 13 22 13 3-16 3-24-6-6-9 2-1-3-1-6-11-10 6-19-5-13 15h-1l23-27 38 11 24-10zm74 11 8-14h15l-20 36 4 13-5 19-7-1-2-4 11-30-8 3-5-18 2-3zm-171 35-4-5v6l-25 13v-16l26-46 1-1 1 7-22 40 32-16-5 23-4-5zm143-16 5 11-9 3-1-16 11-5zm113 8 9-29 2 13-5 16zm-60-228v-25l6 17 11-19 9 14 19 5 7 8 23-9 1 4-19 8 19 25v24l1 22-1 34-4 22 2 12 15-6 1 19h1l15 43-4 5-13-37 1-1-1-19-15 6-22 17-4-5-21 3-27-5 4 38-3 3-2-19-1 1-9-9 8-14h-21l16-42-15 4-1-5-1-49 1-25 1-10 2 1 11-15-5-14 7-13zm-65 109 32-10-14 38-5 5v-1l-18 22-3-4h-21l11-30zm235 53 12-17 6 1-11 16zm83-4-34-7-4-7 32 6zm-27-36-8-35 3 3 9 36zm-338-9-3 3 1-2zm265-26 2-8h5l16 16 6-19h3l-1-2 4 1-3 13-9 28-23-24-32-3 3-4zm-357 20-37-8 1-23 28 5zm39-100-11-27 3-10 5 1 3 8 20-23h3l-23 27 23 25 22-35 11 5-1 1-10-4 2 18-13 19 6 40 39-6-9 1-41 7 26 22-5 21-28-5 7-16-6-40-23-25-23 1 9 18h-1l-8-15-15 25-2 1-9 12-6-17 14-19 7-11 11 2zm438 69 9-13 7 10-12 17-21 4-34-4 6-13 24 3zm-80-13 1-7 8 12h-2zm40-39 7-15 15 8-12 6-10 22-9 17-10 3 3-12-23-4 1-10 1-6 23-6-2 26 12-28zm-63 31 9-1-6 5zm-220-17v-14l22 9-4 5-21 2-1-1zm170-18-9-23 6-1 8 22 21 2-2 5-19-2-32 6-1-4zm49-83 1-1 3 8 5-7 25 23-8 36 16-7-11 27-26-24 4 24-25-20-1 4-5-8h-6l-18-30 7-22h4l-6 20 19 32 9-30 25 20-4-24zm-258 51-20-8v-2l20 8 12 3 1 2-2-1-28 22-1-10zm94 18 21-3-26 1zm-38-25v4l2 6-8 2-9-23 16 7-1 4zm2-24-1 17-11-32h-14l7-25h7l-5-28 3 1 30 25 3 31-11 17zm-226-38 6 7-5 7 11-2 16 15 17 2-7 13-11-1-8-8 3-3-12-5-11-11-1-20 10 5zm248 25 2 7-4-4zm-84-21 3-9h15l-4 2 12 26-21 2zm-43-44 30 7 26-9-2 7-24 7-30-7 3 36-3-30-26 32h-4l-5 18-32-6-6 9-16-28 4-7 18-8-6-13 2-4 4 9 38 8 4-15zm197 39-1-1 2-2 1 1-2 2h3l13 17h-3zm38 15 18-23 14-4-20 27zm-63-19 3 6-9 12h-7zm91-26 12-13 4 6-9 11 4 38-1 2-3-30-1 2-5-9 1-1h-2l-10-15 2-3zm111 27-7 12-24-34 34 14-3-12 11 16zm-223-3-1 15-8-3zm-243-2 1 4h-2l-1-3zm393-3-5-8 13-30 4 11zm-212-34-2 11-1-5-7 24h-2l-5 3-14-30 18-12 1 7 12-2 14-12h21l13-25 29 25 6-32 21 6 27-2 2 13 39-10-11 22-21 5-36 2-21-6-6 32-29-25-13 25-17 1zm122 28-22-1-7-17 45 3-18 20h-2zm113-3-3-10 14-23 6 4zm99-3m13-17-13-16 23 33zm-514-2-4 7-2 1 8-13 3 8-3 2zm434-20 1 4-5 1 3-5zm-7-13-8 12h-10l-20-13zm-362 4 3-12 27 12-32 5zm78 464-10-1-13-16 14 1h16l-6 28-3-4z"/><path transform="translate(32.912 14.96) scale(.016 -.016)" d="m171 575h-18l-15 1-34-1 31 32 15 1-6 7-9-8-46-15-1 42 10 20 28 9-7-33 27-7 13 3-14 4 7 33 9-2-7 12-36 6-28-9-10-20-13 22-17 33v34l8 20 17-3 22 9 42-4 35-5 27 3 30 6-31-30 13-2 16 16 9-20 9-1-16 35 14 1 3-36v-1l8 8-1 15 20-8 8-36-10 19-8-7 9-30v-34l-9-4 9-31v-17l-27-27h-38l-10 1-27-1zm-12 125 9-3 9 18-5 10zm27-36 16-13 14 41 46-2 1 26-2-2v-8l-46 2-14-41-16 13-8-21 6-1zm-139 24 17-32 13-22-12-25-18 28zm3-57 18-27 12 25 1-42 46 15-31-32h-19l-19 8-8 19zm128-10-12 3-1-14 14 11 8-9v11zm-3-14 11-11 1 12zm-10-14-3 3-1-13 10 10h2l1 14h-9zm-106-322 3 34v33l33-11 16 4-1 6-27 27h22l6 11-14-4-33 11v70l-3-8-6-29v59l8 38 19 8h1l4 11 20-7 35-1-1-3h1l-4-9 40 6 4 3h79l5-9-2-4 7-24 5-35-13 3 2-8-1-4 7-13 31-9 7-21v-39l-5 8-15 1 13-34-16-35-2 6v-43l-29 7-1 6v-1l-5 1 1-6 29-7v-19l-18-10 18-29-7-26-9 34-32 6h-1v-3l19-3 6-24 5 16v-23l11-3 7-20v-51l-1 9 1-29v-39l-17 14 18-33-8-19-19-8h-161l-19 8-8 19v97l9 2h-1l-10-2v78l20 8-7 39-7 19zm175 230 6 3 3 4-2 5-28-12-17-19-19-23 30-6-11-26-16-4 35 8-20-30-7-34 3 1 6 29 20 30 5 11-8 15 13-3 1 3-30 6 19 23zm-156-14-2-6 9-13 12 12zm50-45m18-139 23 3h-25l28 32-33 2 12 27 3 23 4 25 2 7-12 20-9-31-10 30-16-17-1 1-10-18 9-8 18 12-4-25v-1l4-5 14-17h-21l-12-26h3l3 12 2-13h9l16-1-24-27-5-17 18 11h14zm133 64-1-2 1-10 7 11zm-58-42 2-3 35 15 6-16 4 8 5 3-6-3-4 11-2-3-11 28h-1l10-24zm4-57-7-30-18-22 19 22 7 30 7 9-16 3-14 30-28-4h-1l14-29-10-6 4-9 6 14 12-3 5 3-1-4zm-190 31 8 6-3-34-5 8zm35 6-5-4 25-37 10-3zm-20-56 7-39-20-8v39l5 30 3-9v17l5-8-3-15zm124-38 12-36-12 36v2l-25 2 1-2zm53-64 7 35h-1l-6-34-24 41-4 26 4-27-14-30 23-29-2-8 10-10 19-17 14-3 7-29v-1l-7 30 24 28-24-28-23 20-18 18-23 29 14 30zm-96-5-10-13 30-3-1 2-12 1zm79-80-22-1 22 1 13 33-9 2-9-21zm9-31 29 38-30-38zm-93 36-12-21 12-13 6 10zm14-2-1-8 5 8zm16-43 3 40-13 2zm47 13 10-30h1l-10 30h-1l-16 14z"/><path transform="translate(38.08 14.96) scale(.016 -.016)" d="m125 114v9l2-1 4 19-2 4-30-8-18 10v234l-15 5v18l-7 1 7 6v23l-11-11-10 21h-3l8 40 16-31v13l7-1v84l-13 30-4-35v139l8 19 38 8h6l3 7h97l-7-30 1-3 6 24h39l19-8 8-19-12 2-46-5-8-12-5 8-29-4 6-8 28 4v-1l8 12 46 5 12-2v-57l-12 11 6 12-3 7h-22l19-19 12-31v-38l-28-7-5-31-7 46-20-25-7 6-27-12-5-10 3-2-2-3 8-4 27 12 23 29 7-47 5 31 28 8v-95h-2v-7l-6-41-7-27 2-1 8 28 6-16-13-12 6-1-3-7 9-13-16-32-6 12-8-5-16 35 16 2-6 12-4 1h-2l-10-19 9-19 10-19-9-1 1-2-6 1-11-1v1l-5-8 3-1-13-18 3-9 6-12 5-5-8 17h42l-25-25v-1l26 26 5-28h-33l2 2h-1l-2-2-1 1-7-28-19 4 5-11 12-2 2 5 1-2 7 27h33l30 1 2 9 11-21-17-14-3-11 20 16 18 24 19-28 4 8-18 26-11-1-12-15-11 21-11 20h-7l1-1h-14l-1-2v2h-27l26 35 2-5 11 6-2-6 16 2 6-8 12-2-2 17-16 2-21-3 16 32 6-28 21 19 1-8 5 9-11 4-17-15-6 29 7-2-8 12 10 10v3l39 26 10 16v-21l2-3 24 11-12-15 12-3 14 18 36-7 2-14 6-2 1 12-3 5h3l1 10 13 37 33-27 15 28 1-41 3-2 9 18 4-32-10-20-18-9 1-2 15 5-5-23v-1l4-17 9 3-6-11 2-9-2-13-18-7-3-4-1 3-8-3 1 30-1 3-14-3 3-6 9 2-1-20 3-6-3-1v-6l-3 6-20-3-20 41-3-2-21 19 33-4 5 5 24 12-22 7-8-14-30 3-2-8-3 9h-2l1 4-7 19h1l-4 1-5-21-25 35-4-5-3-11 26-36-34 10 2-7-2-1 27-8 10 6 8 34 11-32-13-26-3 1-14-17 6-2 15 18 6 1 10 19 15-14 3 1 22-44 25 4 30 11 1-38 43-66-28 38-2-37h1l1 20 15-21h13l33-50-27 31 18-32-6 1 14-17 2-3h5v1l16-20-1-5 11-6 30-47 2 8 13-27 2-2-24-24 2 12-11-23 9-1h-19l-33 2 26 18-5 8h-19l-2-1-24-2h-39v1l-14-1 14-33-26 1 10 32h-2l-6-19-31-1h-19l-7 22-29 10-8-2-6-13-67 112-6 6 2 1-4 6-9 1-37 6 17-52v-51l-10 15v1l-33-7 1-2 32 7-10-34 3-1 7 24 10-15v-20l-4 1-4-10-27 2v1h-1l1-6-31-9-11 26 36 12 2-11 1 1-3 15-1 6-27 19 28 35-2-37v-2l2 35 16-7-9 14-7 3-24 27-23-28 1-2 22 27 24-27-28-35-1 1-7-29-15 39-27-11-38 8-7 21-3 1 2 2-1 3h4l13 11zm147 540h-3l2-2zm-117-48 2-4 9 25 28 9-6 7-22-7zm60-17-21-18 21 18 16 42zm-96-14 20-11-3 3-17 9zm53-9-3 6-19-15 6-5 17 14zm-77-2-3-4 2-4 3 4zm417-135 2 8h-4v3l-7 5 8 3v9l-31-12-1 42-15-28-33 27-13-37-33-9-3 2-16 3-23-6 6 9-3 1-36-16v29l30 8 12-7 7 2 14 22-6 3-7 17 39 10-2-5 14 8h90v1l7 14-10 1h11l1 3 2-3h23l-7-1h-16l5-14h3l-1-1 23-1 13 6v1l23-19-16 20h18l28-7 22-3-15 38-35 8h36l24-24-5-15-14-20 10-23-24 3-52-73v27h-13l-5-14-6 1v-1l-2 2zm5 129 16-20-23 19zm39-45 3-19 6 3-10 27-13-29 2-1zm-436-11 32-11-3 8-17 21zm269-16 16-9 16 36-27-7-7-16zm-208-13v-1h10l7 19-7 15-10 6-7-20zm356 16-16-24 15-3 7 17-7 4 5 7v5l-17 6v-2l-14 5-5-2-1-1 6-2h-6l-8-13zm-437-109 19 3 6 9 17-5 1 7-7 35 11-3 1 8-13 4 6 9-4 4 5 5-4 1 15 14v-1l3 4 1 3-3 8-16-19-36-7-21 40-7-34h21l24-24h-7l3-3-13-23 16-1-14-21 4-9-13-2zm114 75-8-4-1-2v-1l12 6v1zm16-32-6-31 6 11 3 20 1 1-14 26-3-21 3-5zm-147 17 3-7 3 7zm129-50 1-1h9l1 2-12 25-15-28 16 1zm247-5-2 15-13 1-1-4 13-20 4 8zm31-83-2 5 2 13 27 44-36-10 9 40 45 1v-28zm-166 78 1-6 3 15zm-159-35-3-10 17 29-21-4-4-9 5-6-7-1 1-2zm38 8 2 3-1 2-3-4zm117-4 12-21 1 3-12 22-17-6v-3zm-194-13 9 2 1 2-6-1zm29-62-7-15h2l4 8 19 37-16 13-4-14-14 30-14-25 11-18zm107 35-1 4v-1zm130-14-4 1-15-26 22 12zm33-6 3-6h5l-4 9zm-234-40 7 15h-2l-5-13zm-66 7 6 1-2 6-6-1zm301-35-11-42h2l9 34 39 5-2 7-37-4-4 11-16-3-15 20-7-1 22-31zm-201-11-3 4-14-6 2-5zm95-10-11-19 1-3 10 17 8-14 13-2v-3l25-4-16-21h2l16 23-2 12-32 4-10 16zm-142 3 7-12h4l-10 13zm-32-8-10-12h10l-4 6 19 1v1l-15 11zm241-5-1-1-14-30 1-2zm-241-8-1-6 3 3zm282-62 27 9 8 15 1-4 19-4 14-23 17-25-13 4-23-2 2-8 24 2 13-4 28-1 2-3 16 3-15 23h-4l1-7-25 1-3-3-17 24-14 23-21 4 5 8-16 26h-10v-5l13-20 10-2-10-18-7 13-3 1 8-17-35-12 21 30v3l-21-29-32-2v-1l-19 15-30-3-3-3 35 3 2-11 15-12 1-2 31 2 14-30 3 7 5 2 1 1zm-99 27-7-6-1-11 8 8 1 9-11 27-8 2 9-25 3 2-1-5zm-167 8-11 19-7-1-2-8 4-4 15-8zm66 14 2-11 4 15-6-3zm175-6-30-10 30 9zm129-9 2-7 13-1-4 7zm21-19-2 4-2-6h3zm-508-97v13l-7 3-8 19v19l1-20h15v9l4-8h3v6l-7 13-1 17v20l18-10 24 6 6 9 15-35-34-4-3-5 6-7 31 4-20-18 29-5-19-38 29 16-10 23 30-6 1 1v-2l7-1 27 11-11-35 1-17 10 31 15-39 11-26h-19l-16 3-1 18h-61l7 2-21 21v-1l-17-16-2 21-32-2-1 11zm277 88 6 1v3l-8-1v-1zm145-2-1 4-5-1-2-4zm75-9 1-7 1 3-1 7zm-86 0 11-20-11 20zm115-38 3-6 8 22-4 3zm-518-4h2l-1 4zm14-14-1-6 16 15-3 3zm525 8 29-12zm-29-4-10 4 3-4zm-81-9-3 9-16-24 9 1zm142-1v1l-3 1zm-391-17-36-12 8 31zm-168 17h1l-1 1zm505-24 16-1-6 8zm-333-11 1-6h1l-2 6zm323-27h-19l24 2z"/><path transform="translate(51.344 14.96) scale(.016 -.016)" d="m391 728 20-1-10-3zm195-585v-20l33-2 28-9-25 34-3 1-33 2-10-2-1-1v-1l-21-18 20 4zm-376 548h7l9 18-37 8 1-17h11zm-82-22-12 2 20-25 17 23v8l-25 33-15-10zm49-7 23-6-9 34v1-4l-3-4zm104 19h-1l10-25 15 17-1 3zm203-28 13-24 1 4 29 34 13-32 5-28-25-6-14-2v-1l14 2 25 6v1l18-40v1l-18 40-5 28-13 32-29-34-13 23zm-128 8 2 1zm-257-6-8-8 15-3-9 18zm207 2 8-5-2 6zm-3-91 4-23-9-3 5-1 13 4-4 23 17 2h3l-11 32 1 24h-10l-7 33-15-1-19-30-15 9 7-34 35-1 11-32-10-1zm17 83v1-1zm164-17 13-5v1l-13 4zm-142-28 9-25 11 10-2 3-20 27 33-11 6 1 14 20-41-9-9 3-16 1zm124-6 2 7-11 16-4-1 13-19-27-22-4 5-1-7 3-4-1-19 18-5 2 33 18 15zm-285-52-23-13-1-2 27 15-14 24 27 29 24 1 11 2-2 2-28-4-24-1-26-28 18-1-1-4zm187-8-28-3v-1l32 4-7-16h9l13 29 17 23-3 19-2-2-17-16 2-14-12 5-2-2-1 3-19 8 2-4 16-7-7-11zm-256 37 2-6 2 2-1 2h2l4 5-2 11-8-10zm236-3 1 3-4-2zm-11-22 1-6 5 13-2 4zm299-16 21-35 2 1h2l13 36v1l-3-1-12-34-19 32zm-417-54 3-1 1 1 2-2 19 19 27 7 5 9-23-6 15 23 16 3 1 2-8-2-18-3h-2l-13-19-18 21-2-2 20-23-27-27-22-5v-1l-2-5 1-4 3 2 7-1 8 2 9 10zm81-230 42-36h12l23-6-5-12h9l-4 9 21-7 15 3 30 34-3-19 23 16 27 11 37-13-7 26-14 5-27-11-23-16 3 19 7 20 1 16-15 29v42l8 6 32-10 8-25 16 24 21 34 2 8-17-28-7 8-19-29-8 25-32 10-8-5v21l3 14-1 18-3 22-18 30-18 12 17 11 22 11 5-33h33l10 5-4-15 3 9 15 11 1 1-45-1-2 18-7 13-18-9 2 4-38 1 25-12-20 7-42 2-5 1-4-9 1-1h-1l-33 2-24 7-1-3-5-31 8 2v-12l7-27-7-9v-22l4 8v-19l-5 1-7-15-4 1-1-5-22-6 2-4 12 3-8-13 5-11 6 10 16-16-13-18-5-1-9-26h13l9 27 13-40h-9v-26l-2-16zm-19 257 1 8-5-2 13-30 5 1-9 24zm128-11-25 12 42-1zm257-21 5 1 18 22h-4zm-405-16 10-9 18 19-3 12-7-2zm-49-64 1 1-7 10 15 2 6 9 5-8h4l-1-3 5-8 10 22 14-17 6 14h3l-8 10 19 4 4 5-6 5-34-7-2 18-6 2 4-34-30-3 26 38h-1v1l-36-53-3-10 17-2-3 4zm238 51-3 7 8-25 9 6 6 22zm180-4 5-8-5 8zm-80-12 22-5-2-32zm-412-17-3-3 1-17 14 1-1 19 11 6-2 6zm-41-10 7-15 2 9-5 13zm148-34 1 1-7 16-5 7h-5l-2-3h1v-7l15-18-14 2 1-2 22-10 8-15 1 2 10 1 8 12-9 4-11-16-6 12-2 3zm66 15 8-41-13 13v-6l-1 7-2 2 1 2-6 30 8-2v-21zm-252 1-2-5-2-20 1 2zm58-50 45-8 26 9h9l15 25-2-25h12l-1-1 10-2-1 25-18 3h-6l-13-25-15 25-1 2 7 20-2 2-16-2-4-9 16-27-26-9-45 8-5 21-1-5 6-27-10-34 27-3 19-27 8 2-17 25-27 3zm-41 39-7-6 18-1zm239-87-13 41 13 18zm167 51 11-28 5 1-4 11 6 9zm-273-44-7 11-2-4 9-16 1 32zm-1-25 4-5 27-4 15 31 18-32 2 1-6 16-12 21-1-2-7 2-9-18-29 5 9-15-15 5-6-11 4-6zm392 3 4-15 1 1-4 15zm-429-72 24 9-2 20-3 5 2 5-1 10v-1l-1 1-19-8 8 14-7 5-5-11zm21 49 4-3 3 6zm12-37-8-27 9-2h3l-4 25 23 36-2 2-22-34-1-1zm339 34-1-1 17-32 12 21-8 3-4-3-4 7zm-15-16 9-22 4 36-1-1v-4l-1 3-12-12zm-271-2-1-6 3 10-1 1-8-4 3-3zm398 2-5-17 9 9zm-341-192-34-9-7 22-16 6 7-24-13-5 4-7-11-12h1-1 5l11 12 21 8 34 9 9 15 14 28 8 41h-16l28 21 2-18h17l12-4 2 9-7 2-7-7-1 10-16 5 9 10-12-4 19 43 10-22 5 5 18 2-7 7-8 3-3-11-6 14-5 2-10 3-12-27-6 17h-23l12 15-17 14-15 2-32 9-19-2 6-6-11-5-4-16-13 7-8-3v-2l10-6 13 3 21 2 32-9 40-5-20-25-23-19-36-2-15 3h-7l-15-25h-29l24-28-3-3h7l1 4 4-3 26 46 2-8 10-2 36 2 23 19 1-21-9-44-10-20 12-1zm-176 110 10 2 3 6-5 2 4 23 7-9 1 2-4 42-11-12 3-30-11-25 4-2zm436 20 11 14 15-3 4 5 7-2-23 30-32-4 3 5-20-9v-1l-2-3 19-12-11-14 7 1 12-15zm-41 23-11-20 16 2zm-13-20h2l-28 18 11-38 7 2 7 9 5-6 8 2zm-352-21 8-29 4 22 1 2-4 14 11-4 3 3 3 4-2 13-21-20 6-7-13 4-5-1-6-16 6-10zm307-17v-3l4-6v-7l10-6 12-28 15 28h-13l-3-5-2 5h-9l-13 40h2l-15 22-1-3 13-19-7-1 6-18zm-359 22 18-6-16 19zm293-67-4 4-1-7-31 8 1-3 13-4-4-10 1-7 4-9 1 1-2 20 29 3 2 2h5l5 13 8-12h5l1 8 7 2-9 14 25 36 1-3 2 6-12-2v-1h-3v1l-18 7-7-10-2 13h-4l6-32-28 3 18-18h1zm-341 65m506-7 1 1h-1zm-244-22-1 21h29zm-284-38v39l7-31zm111-3-2 8-3 1 5-19 30 12 5 12-15-6-1-6-8 2zm-29-1 17 12h-1l-17-12zm128-16-2 1 1-5 11 16-1 2zm-147-2-6 14-21-34 4-11 3-2zm345 5 4-6 32 1 2 3-1 3zm-102-2 1-1 20-8-1 1zm-127-62 12 2-21 20-5-20 2-2zm20 0 3 3-3 1-5-4 4-2 2 2zm-190 88v20l2 2-2 7h24l-2 3h-20l2 24-1 2h1l1 3 1-2h4v12l1-3 10 3-1 4 17 8 19 1-3 3-14-1-17-8-20-7v16l-2-19v19l2 6v17l27 5-29-5v227l1 7 3 12v9l1-7 6 26 26-45 26 8 4 8-27-8-26 45 37-12-18 35 8 25 33 3-11 30h-3l11-28-33-3-8-25 18-35-37 12-3-3-10-39-1 32 3 3v154l9-9 12 11-4 15 7-1-2 2v20l8 38 19 8h115l8-8 3 6 6-25h18l5-1h84l2-10h3l-4 8-3 12h39l24-1 5-1h1l29-9-31 5-23-4-1-21-5-2 18-37-3-1 6-13 4 1 1 15 4 1-12 23 1 21 30 5 29-4-4 10h-10l-29 9 40-5 18-4h14l-1-2 6-2 2 6 38-13 18-8 35-19 17-12 15-12 15-14v-1l25-31 11-17-17 6-20-5 1 33v1l-1-32-16-24-22-17-11 12-22 13v-1l-15 16v-1l15-16-35-2-37-10 4 10-22 8 10-22 8-3v-1l37 10 35 2 22-13 11-12 22 17 16 24 20 5 17-7 2-5 3-6h2l-1-2 11-24 4-14h1l-5 18 7-19h-2v1l-1-1 1-3v-1 1h2l4-14 1 4 7-39-15 13-1-4h-1l-7-31 2 1 6 27 16-14 1-20h-6l7-34-23 6-7-37-31 1-9 2-3-7-4 8-16 2v-1l-13 1-5-16-17 18-6 1v6l-10 9 9-1v10l55 14v1l3 7-22-5-25 25 9 10-6 15-8 2-20-16-13 20-5 20h-2l-2-2 3-14 13-20-7-23-45-8-10 36-3-10-8 22-4-4 2-2-2-1 7-14 3 2 11-38 10-11 37 7 3 9 20-37 1-24-7-28-25-8 31 10 7 28 30-31 5 5-2 9h4l6 21 14-26 4-1 5 4 7 18 31-1 7 37 23-7 1-21-1-29v-34l-3-45-3-8-3-32-11-38h1l-8-19-26-1 12 33 21-13-1 6-18 10-2-3-2 14h-1l2-16-14-14 11 35 1-4v6h2l11 22 4-20 1 2-5 25 20 23-3 6-17-20v1l-14-28-9-26-32-1 28 19-11 2-14-17 3 19-13-33 37-9-19-12 8-10h13l26 1-19-34-12-17-28-28-15-13-17 24v-2l17-24-17-12v14l-40-1 2 11-2 1h3l7 34 30-9v8l-29 9-12-12-6 9-4-10 8 2-6-27 9-19 23-9-37-16-38-12-39-7-20-3-20-2-23 3 3-4-11 1 2-5 26-2h-118l6 9h-21l-4-7 5-2h-62l10-9h-35l2 9h-20l21 3 4 14 6-5-12 18 18 1 17 16-6 10 2 9-9 10-16-14-19-1-4-10 16-25-33-5h-14l-1-1-3 1h-29l-16-14-13 14h-2l-4 4-10 2v8l-13 13 13-3v14l-5 14 12 18v1l-13-1-4 16z"/><path transform="translate(63.184 14.96) scale(.016 -.016)" d="m171 575h-18l-15 1-34-1 31 32 15 1-6 7-9-8-46-15-1 42 10 20 28 9-7-33 27-7 13 3-14 4 7 33 9-2-7 12-36 6-28-9-10-20-13 22-17 33v34l8 20 17-3 22 9 42-4 35-5 27 3 30 6-31-30 13-2 16 16 9-20 9-1-16 35 14 1 3-36v-1l8 8-1 15 20-8 8-36-10 19-8-7 9-30v-34l-9-4 9-31v-17l-27-27h-38l-10 1-27-1zm-12 125 9-3 9 18-5 10zm27-36 16-13 14 41 46-2 1 26-2-2v-8l-46 2-14-41-16 13-8-21 6-1zm-139 24 17-32 13-22-12-25-18 28zm3-57 18-27 12 25 1-42 46 15-31-32h-19l-19 8-8 19zm128-10-12 3-1-14 14 11 8-9v11zm-3-14 11-11 1 12zm-10-14-3 3-1-13 10 10h2l1 14h-9zm-106-322 3 34v33l33-11 16 4-1 6-27 27h22l6 11-14-4-33 11v70l-3-8-6-29v59l8 38 19 8h1l4 11 20-7 35-1-1-3h1l-4-9 40 6 4 3h79l5-9-2-4 7-24 5-35-13 3 2-8-1-4 7-13 31-9 7-21v-39l-5 8-15 1 13-34-16-35-2 6v-43l-29 7-1 6v-1l-5 1 1-6 29-7v-19l-18-10 18-29-7-26-9 34-32 6h-1v-3l19-3 6-24 5 16v-23l11-3 7-20v-51l-1 9 1-29v-39l-17 14 18-33-8-19-19-8h-161l-19 8-8 19v97l9 2h-1l-10-2v78l20 8-7 39-7 19zm175 230 6 3 3 4-2 5-28-12-17-19-19-23 30-6-11-26-16-4 35 8-20-30-7-34 3 1 6 29 20 30 5 11-8 15 13-3 1 3-30 6 19 23zm-156-14-2-6 9-13 12 12zm50-45m18-139 23 3h-25l28 32-33 2 12 27 3 23 4 25 2 7-12 20-9-31-10 30-16-17-1 1-10-18 9-8 18 12-4-25v-1l4-5 14-17h-21l-12-26h3l3 12 2-13h9l16-1-24-27-5-17 18 11h14zm133 64-1-2 1-10 7 11zm-58-42 2-3 35 15 6-16 4 8 5 3-6-3-4 11-2-3-11 28h-1l10-24zm4-57-7-30-18-22 19 22 7 30 7 9-16 3-14 30-28-4h-1l14-29-10-6 4-9 6 14 12-3 5 3-1-4zm-190 31 8 6-3-34-5 8zm35 6-5-4 25-37 10-3zm-20-56 7-39-20-8v39l5 30 3-9v17l5-8-3-15zm124-38 12-36-12 36v2l-25 2 1-2zm53-64 7 35h-1l-6-34-24 41-4 26 4-27-14-30 23-29-2-8 10-10 19-17 14-3 7-29v-1l-7 30 24 28-24-28-23 20-18 18-23 29 14 30zm-96-5-10-13 30-3-1 2-12 1zm79-80-22-1 22 1 13 33-9 2-9-21zm9-31 29 38-30-38zm-93 36-12-21 12-13 6 10zm14-2-1-8 5 8zm16-43 3 40-13 2zm47 13 10-30h1l-10 30h-1l-16 14z"/><path transform="translate(68.352 14.96) scale(.016 -.016)" d="m146 248-27 4 10 25-4 15-33-1 17-29-12-29-16 12-15 15 1 4-20 32-7 20-4 20 23-19 12 7 38-12 3 7-38 12-14-9 1 29-5 4-1-1-7-22 1 18-13-9 15 51-14-7 5 20 20 37 16 6 32-13-8 34 17 2 44-3-2 3-47 3-17-2 8-34-32 13-16-6 29 31 17 12 18 11 19 10 19 7 20 7 21 5 41 6 42 2-21-34 18-4-14-14-13-14-27 37h-31l22-35h1l-17 27h31l21-29 13 14 17-37 2 1-17 36 14 14-18 4 21 34 20-4 26 2 21-3 3-35 2-30 2-2 1 1-3 3-2 30-3 35 41-9 5-10 16-5 8-6 16-3-24 18 39-17 18-10 18-12 16-13 15-15 22-36 5-20-22-27h-99l-22 12-3 42-22 16 6 39-6-39-18 25h-1l19-27 22-16-14-29v-20h-16l-4-5-25 19-13 1-10-25 14-2 26-16 26-1 17-7 38 2 20-8-14-10 17-39-30-3 11-22 28 3-17-28-12 23-11 4 6-32-24-7-42 3-27 4-12 25-21 39-5-46v1l-6-10 6-13 26 7 4-9h8l13-18 14-2v-1l42-3-19-33-1 1-12 4 6-10h-30l-13-19-14 23 2 1-4 7 1 8-17 2-2-16-37 16-20 5-22 10-1-4-32 7-35 7-30 7-19 9-18 11 27-4 39-1 1 22zm236 251 3-14h1l-4 21-24-37 7 4zm4-14-1-4zm-52-13 16-23h2l-16 23h-34zm-124-25 9 15-4 3-10-15-26 3 2-3zm22 11 7-7 8 11h-12zm91-16-23-35 1-1 24 36zm64-77v25h1l13 28 3-40 22-12h-38zm-265-20-3-7 30 8-1 24 14 14 25 17 17-30 2-16v-8h1l-1 18-2 16-15 27-24-17-14-14-29-32-6 30-2-2 5-26zm116 16 7-14 27-5 10 11zm59-39h13l12 27h-8l-1-3-16-13-27-5-9-10 4-3zm-150-8 13-34 22 19 1-10 25 26 32 4 10-26 32-6-15 14-17 3-10 26-32-4-1 20v-1l1-29-42-3-6-3-1 3zm123-313 2 14h-2v1l-27 25 23 45 16 33-11 17 58 4 6-11 7 9 27-14-3-7h22l-20 34 27-9 19 33 4-30 29 8 41-4-11-38 11-23 19 1v-4l7 2-2 23h2l-2 4-5 1 2 5-2 4v-8l-19-1 19 37-19 2-9 19h-4l-25-7-4 28-8 26 11-2 10 16v1l4 7 5-11 5-1 20-23 31-2-9 18-12 1-18 34-17 39 14 10 37-20 3-19 22-43 10-17 13-40 2-1-1-11 1-10h-1l-1-1-4-20-17-37-12-16-4-4-5-15-17-13-35-19-19-8-39-11-20-4-20-3-20-2-40-3 8 19h-3l21 44v-42l5-1v47l28-17-7 20-11 4 3 6-18 11-11 17-8-10 19-31-21-44-11-23-13 24h-8l2-4zm37 224 5 46 21-39zm-11 19h10l-9 20-5-12zm-29 16 7-29 3 9-5 18-5 3-27-29h1zm15-16h5l2 6-4 2zm-4-29h-2l-7-23 22 2 16 27h-14l-2-4-13-1zm180-15m-113-33v-2l7 2 9 14-3 4-20-6zm-286-104-10 15-24 10 18 15-1 16v1l-16 19v-1l15-19-14-5v-1 1l-1-1v9l-2 11 1 3-1 3 1-1 5 14 36 8h1v-1l9-12-1-31h12l7-41 16 38 24-7-3 19-15-1-6-11-4 11h-6l1 14-4 10 2 2-8 10h19l20 9h11l2 3 1-3h6l-4-6 9-28h-2l17-20 14-32 8-10 14 6-3 4-14 32-17 20-9 25h58l3-24 15 3 11-3 11-17-16-33-23-45 27-25v-24l21-1 39-1h-20l-25 1h-15l-32 2 6-1-40 5-20 4-7 13 3 5-24 7-19 7-1 10-13-18-34 22 2 6zm270 77-18 23 20-2zm221 8-4-8 6-13 5 10-7 16-4 1zm-42 4v-5l1 5zm36-43 5 11-8 3-2-4 5-10zm-29 1 16-3-3 4-11 2zm18-3 9-2 2 4-9 1zm-104-11 8-39 6 13-4 20zm-65-17 1 2-3 2zm13-9 17 2 8 8v1l-32-2 1-7zm-173-11 9 12-2 2-8-13zm73-3-2-14 7 3zm-83-9-1 5-19-8-2-4 5-20 24 35-2-1zm-88 2-19-3 2-5 26 5v1zm343-22-17 11-7-14zm-37-5 11 1-1 9z"/><path transform="translate(77.792 14.96) scale(.016 -.016)" d="m235 35 11 21-7 9 11-2 1 2 2-2 21-4-6 5-6 1 1 3-19 16-5-19-16-30-1-9-18 10-18 12-29 29 3 5-12 17-16 39-5 20-4 20 30 2-23 26 3 8h-13l-3 41v51l-20 40 25-15h2l7 3-16 20-5-1-11-8-13 21-3 1 18 27-18-27-14 32 1 2-17 19-32 3-8 18 24 9 14 34 16 19-12-1-6-8-14-34-24-8v51l27 27h20l-10-19 8 1 4 8h20l20-8 30-4-13 46v36l37 5 12 9 16-43 33 2 11-30 1-1-1-1 1-2 40 6-1 5-36-5-1-2-1 1h-1l1 2-11 32 40 10 2 2v-1h2l-1-2v-3l10-3 1 16-12 4-44-11-14 39-4 18-2-3 6-26 14-39-33-2-16 43-12-9-37-5v90h2l6 15 19 8h34l5 4 2-3h17l13-22h2l-15 25h43l1-2h73l19-8-21-47-29-1-1-31-28 12 7-13 21-9 1 33 29 1 21 47 8-37v-108l19-30-9 4-15-12 4-6 16 12 7-6 20-1 6 15-21 1-7 6h108l20-7 7-20v-69l-21-4 3-5-22 5-21 24 17 3-3 5-27-5-26 6 9 36-30-12-7-16 32 13-9-36 26-6-2-29 3-10h6l-6-46 2 3 5 37 7-34-3-3 17-19h-36l9 11 1 5-7-8h-18l-10 14-2-6 10-14h-36l-14 9v-41l-28-17-11-20-1-5 2-2 10 18 28 18v-55l4-41-2-1 11-26 3 4 7-14 12 4 6 11 19-36-15-14 3-1 13 12 8-18 4-1-13 29 10 36h62l19-8 8-19-12-11 4-7 9 8v-37l-1 1v-15l8-11-8-3v-18l-8-9 8-29-8-19-19-8h-29l-4-10h-57l-24 1-21 1-20 2-21 3-16 21h2l1 19-1 1 1 2v3l2-1 4 7-23 4v-4h1l-9-15 6-8-7-7 17-22-41 11 4 4-11 4zm-9 574h2l19 27-3-1zm75-24-7 2-23-17h1l8 1 21 14h19l-2 7h-13l8 20v1zm18-44-7 27-3 1 7-27zm-111-60-31 7-1-1 32-7 3 1-18 25 22 10 11 13h1l-2 1-11-13-23-11v-1zm35 36-7-26 1-1 8 26zm19-41h1l3 8-11 31-8 1zm-129 32 9-24 15 15-1 15-16-18-6 15-1-3zm83 3-5-30 5 1 3 24zm82-13-8 9-5 1-2-4 10-12zm-15-43 25-8 8 29 40 7v2l-5 8-33-7-9-32-29 10-5-7-11-4 2-4zm-110 28 8-45 1-7 2-3-2 14-8 43v-1l-32-2-1-2zm60-54 3-45 4-6-4 49-4 5h-1l1 1-6 5 9 3 11 29-7 13-7-2-16-41-20-17v-26 1l-40-8 26 35-3 3-7 1-20-28 4-12 40 8 1-39 10-2-1 39v23l-3 5zm203 27 21-24 22-5 8-8 13 3v-17l1 19v-19l8-9 1 2-8-36-20 2-8 34-27-24-7 34-6 19zm-417-30-8 1v17zm208 3-30-6 20 17zm-93-44 1 4-11 30-34 10v-1l32-9 12-34zm48 41 2 2h-2zm-128-64 15 36 14-32 14-22h-59l-19 8-8 19v52l8-1 32-3 18-21h-3l-14-33zm254 43 19 18zm148-60 3 2-11 12 22-6 1 1-34 9 27 24 8-32h1l20-2-13-3 3-1-17-10-6 7zm-145 28-5-5-1-37 4 5zm30-5-2-2 5-2v3zm-187-22 5-2-5 11 24 6-10 2-21-5 5-13zm42-12h4l1 3-6-3zm30-15 7-11h1l-7 12zm-99-77 13-14 11 23 11-8 6 16 3 11-23 17 4 16-2 2-6-4 4-14zm19 39 13-13-4-16zm144-91 1-1 5 5-2 32 19-9 2 2-4 13 14 7 3 7 1-4 2 1-1 2v-1 3h1v2l-18 20h-3l15-17-22-12v-1h-1l-4-1 1 5-9 12-6 3h-2l18-25-15 4 1-19 7 1-13-26 6 1-7-26 4-5 5 19-2 2 3 3zm-40 23 19 2 11 23-10 3 9 17-1-1-5-10-8 9-24-4-12 3-30-35-8 37-18-30-1-1-1-3-17-43h1l22 12 18 30 8-37 30 35 12-3 20-29h2zm92-9 2 1-11 31-1-2zm47 3h29l-10-36zm-45-53 26 4-5 10-10-1-12-13-17 34h-1l18-34h1zm8-39 20 39v1l-21-40v-7l3 4zm41-20 26-13 26 36 16-3 22 4-10 12-35-6-16 3v1l-3-3 4-8-8 2-19-26-4 2zm-162-10h12l31 11v-17l23-19v35l-22 1 25 23 1 4-23-22-31-11h-13l-36 6-33-3-2-5 32 3zm104 31-16-21h22l5 7zm38-20-14-29 2-5 24-11-12 45v2-1zm-90-69v8l-1 1 1 2 1 15 6-5-7-10v-3l5-7z"/><path transform="translate(86.304 14.96) scale(.016 -.016)" d="m119 56 34 16 12-31-1-3 20 12 11-18h5l-11-29-24 32-2 1 25-35 6 14 24 1 4 14-23-1 7 23-21-2-8 12-13-8-12 31-34-16-4-27-19-24h-19l-27 27v40h-2v116l5 5v1l-6-5v19l16 27 6-40 22 30 22-25 2 1 10-28 2 2-10 24 24-10 8 1-20 39 30 7 11 21-12 35-5-9 9-26-32-9-14 3-2-18-23 26-23-32-6 42-16-27v177l-1 2v-1 38l8 39 19 8v-6l15-40 1 1-16 41v6h58l14-16-25-28h8l17 19v9h4l-14 15h20l14-14 28 15-17-34-9 16h-3l11-18-16-29h-1l-6-22-19 15-9-3 27-21 8 31 4-6 13 24 17 34 14-44 21 2 19 29-4 2-13-20v24l-1 1v-24l-21-2-14 44 35-6v-4l1-1v4l19-7v-1l15-3 8-19v-17l4-15 6 1h-4l10 17-10 18h34l-22 15 36 22 19 9-19-14 12-25 14 10 40 12v-10l11 1 12 19 22-2 25-8-7 6h30l-6 9 19-8-9-7-3 5-6-7 5-7 8 6v-1l4 6 17-32-11 6v-10l-1 11-6 2 4-19 5-2v-19l-1-9-6 9-29-3-1-2 4-7 32 3-22-21-7-7 28 17-3-10 15 15 1-11h-1v-34l-12-6v-51l-8-20-19-7h-71v10h-1l1-13h-19l-3 28-2 3 3-28h-19l-32-1-24-10 2 5-4-7-3-43-12-12-15-4v-19h1v-38l-1-1v-81l-20-13-15 42h-2l-8-17h-44l-6 22-5-9-27 3 6-20 4-2 12-18h30l20 11 32-5 15-42-33 8-4-11 17-4 11-21-23-6 4-10 34 9 1-22-19-8h-76l5 14h-37l1 5h-56l19 24zm94 467h19l2-8zm-5-1 22-8-35 6-28-15-17 17zm280-27-3-9 1-2 15-8-15 28-2-4zm-72-43-19 37-5-8-1-2 13-25zm-53 21 11-20 1 4 3-3-10 18-23 11 1-2zm-41-9v-12l2-2h-2v-13h2l2 13 27-7-17 33-12 3h-1zm125-20-5 3-5-8 18-11-9 27-2-3zm-163 7 7-14 1 14zm114-15h10l-11 10-12 2zm-143 1 11-10 13 2-10 10zm2-91-21 23-4-5-2 7-4-2 4-11 2 5 25-28 9 21 24-34 29 1h3l15-2 22 46 2-3 26 1 11 28 36-1 3 3 30-12-15 23-5 2-11 29-1-1h-10l12-33-41 1-11-28-26-1-17-9-5-10-18 2-29-1-17 25-8-1 1-3-6 2-18-6-3-2 27-5zm232 41 15 7 11 32-16-9zm-398 36-6-1-1-7 16 3v2zm383-7h1l-3 7-12-1 4-7zm-362 1h-1v-1l1-2zm0-87-11-18 8-13 9-2 29 12 2-4 7 2-1 2 12 20 33 8h-9l9 17-12 3 13 25-3 7-11-21-31-5-6-2-6-10-5 6h-1v-6l6-8-8-3-2-13-4 11-18-8-16 26-6 30-8-19-28-34 33 11-6-15 1-2 2 6 8 19 3-15zm104 16h9l3 6h-16zm-166-18 14-15 1 1-14 16zm269-6h1l-1 1zm-44-24 2-10 22 4-2 7zm-48-26 18 20-1 3-16-19zm29-9h-5l-8-13 3-2 8 15 13-18v9l6-3 9 16-2 2-25-5zm-136-19h1l8 17 21-12-29-7 20-39-25 11 4 28v1zm144-11 3 7v2l-17-32 16 5 1 1v18zm-65 2-9-9 11-26 8-18 10-3 3 2-9 19zm82-16 12 12v-18zm-186-107 3-3 15 5-3 3h-13l1 13-1 1-1-18-26 32-21-4 13 39 28 7v2l-1-1-3 2-25-7v-4l-13-39 21 4zm5 48 2-1 24 24-3 1-25-25 1-3 1 1zm48-14-16 34-4 1 17-34zm42 10h4l2 3-6-1zm-91 0-2-25h1l2 25zm92-11 10-1 2 5-9 3zm124-121-1 22 9 35v-38zm-36 27 20 13-9-34zm43 376-19 23-8 1 18-23z"/><path transform="translate(94.592 14.96) scale(.016 -.016)" d="m195 111 3-15h1l-2 6 5-2 1 1-9 32-8-13 4-19-13 3 12-3-15-14h1l-3-1 2-28-12 5-9-25-17 10-7 5-4-7 1-6 9-8-12 9v-1l-4 4-30 27-3 5 32 4v1l-35-5 2-5-13 16-20 34-8 19 3 18-5 16-4 20-2 20-2 41 7 35h17v1h-13l-24-1-1 8-6-30 2 32 4 2v5l1 21 16 11-3-31 13 3v2l-5-1 3 31 3 30h1l16 33 1 3 11 17 12 9-10-29-22-32-1-1h55l-21-33-1-10 20-16 29-2v5l-17 1-27 22 21 33 40-2 3 2h-6l4 7-7 15-14-22h-63l23 33 7-2-1 1-5 1 2 7-9 22 17 3 3 5 30 28 17 13 18 10 38 17 12-4-1-4 8-2v1l13 3-38 14-13 4 20 6 20 5 13-29 5 1 21 3h49l17 1 20-4 10 11h25l38-12 18-7-22-31-10-29 1-5-13-27 1-2 14 29 14 39 22 30 18-9 17-10 16-12 29-28 20-33 1 1-8 17 9-16 1 1 9-10-2-3 4-6-5 5-2-2 4-8 3 5 9-19 12-38-9 15 14-34 3-20-20-6-8-1v-3l-2 3-21-3 11 12-3 3-12-15-13 29h2l-1 1-12 5v17l-3 5h1l-2 6 1-18-46-6-1 24-5 1 1-22-31-1-26 6 5-13-2-1 27-5 31 1 46 6 2-9 14-5 13-29-6-31-6-12 10 20 6 31 26-26 5 30 19-31 3-33-17-4 9-15-19-8h-59l-27 5-5-8-32-5h-20l-44 6-36-4-6 11-13-1 4 29 1-1 14 15h-15l-4 1v-3h-20l-5 1 12-26-30 12 9 14-8 1-1-1-2 1h-12l2 4-1 1-11-2v7l-8 4 7 1v3h-7v27l-22-7 12 40h-8l-10-33v-36l-15-12-26-4-18-5 14 39 7 16-18 36 10 16-5-1-13-22-14 15-1-9 9-10 18-36-7-16-14-39-13-25h9l15 29 2 1-1 1 15 3h2l9 1 36-18 25-17-2-28 19-35 13-21-3-11 18-2 12 40 21-32-10-32 15-42 3-22-16 6-5-7-24 1-21 1-40 6v11l-5 2-1-2-1-16-42 14-3 41 20-9-2 12v-3l-6 2-15-1 5 6-4 2zm352 354 12-25-25 40zm-141-83-16-5 3-4 26 8 35-2 17-4 1 14 1-2 15 28-12 26h-3l13-26-18-34-21 5-26 2-3-7-4 7h-2l1 2-7 13-1 1-1-1-1 1-19 7 2 20-3 4 21 37-1 2-25-44v5l-29 7 26 24-3 2-29-25 30-7-2-24 23-8zm-60 88 26-1zm-104-5-29-2v-1l29 2zm-99-23-21-4-10-20 8-18 3 1zm61-23-21-29 7-16 2 5 29 40-29 13-30 7 2-4 11-3zm77 20-31-4v-1l29 4zm224-7-7-13 19 1-4 4h-11l4 7zm5-52 2-9 16 39-5 4zm-243 29 10-3 1 1-10 4zm-108-4 1-20 2 3-1 15-1 2-1 3-2-1-1-1zm104-77h2l-11 27 24-7h3l-4-21 17-1-6 13 29 3-5-16h2l17-15 3 6-2 2h3l15 30 19-4-19 38-11 7 1 2h-17l1-2-20-1-13 14-7 2 2-2h1-1l7-7-19-41-23 7-3-10 11-27h-10l10-23 7 3 4 15zm-144 72-14 4v-1zm223 2-20-6v-1l20 6zm201-13 14-2 4 9-8 1zm-377-17-13-29 27 7 9 21zm208-1v1l-3-1 6-4 1 3zm200-49h-3l-3-5 5 1 3 4 3 34-1 1-5 12-18-5-6-15h-1zm-84 32-3 6-13 4v-4zm-87-15-6-24 4 3 4 17-4 12-10 12-14 1-5-17zm172-17-26 27 29 8zm-360 30-2-1 4-1-1 3zm149-38 6 30-1 1-4-22-2-9-4-1-10-15h7l10 16zm-94 14-1 2-1-2zm21-26 6 17-1 3-7-18zm-211 16v2l-30-6v-2zm257-8 9-12h3l-11 13-6-1h1-3l1 1-22 8-1-4 23-9zm13-21 1 1h-1l-4-5 3-1 16-4 31 29 12-31v2l-13 32-29-27zm62-39-30-3-21 1 3-7 14-1 4 4 30 3 33 8 26 22 16-30 3 35 35 8-3 8-33-8-3-35-16 30-26-22-33-8zm-107 25 5-2 4 10-5 11-12-1zm47 16 1 2-1-2zm-126-41 17 1 1 1 1-1h9l32-15-14-33-25 17-11 17-7 3 3 2zm112-18 5-9 20 5-4 10zm-250-9-9-9 4-4 7 7zm-24-19 17-32 12-3-2 4-5 2-16 28-1 1v-1 1zm36-18 5-15 4 1 9 19-7 5h-6zm235-23 6 11-4 5 33 14-12-34 4-5zm-150 4 13 24-13-24-28 1 3-3 8-1 43 2-1 2zm-92 2 8 2-7 2zm259-13 9-16h1l8 24 31-4 45 4h19l27-7 5-5 20 2 25 5 2 6 41-22-4-2-14-39-12-17-14-16-14-14 3 1-35-24-18-10-9 15-30-10-20-4-21-4-42-4-3 23-15 42 10 32-1 1-3-5-14 27-5 1-13 21zm-280-51 6 2 7 25-5 3zm78 7 22-6zm345-5h-1l-1-3 3 2zm-250-38-7-16 5 5 4 11zm-14-34 5-2v16l-1-2zm-70-13-18 9 15-7z"/><path transform="translate(104.56 14.96) scale(.016 -.016)" d="m146 248-27 4 10 25-4 15-33-1 17-29-12-29-16 12-15 15 1 4-20 32-7 20-4 20 23-19 12 7 38-12 3 7-38 12-14-9 1 29-5 4-1-1-7-22 1 18-13-9 15 51-14-7 5 20 20 37 16 6 32-13-8 34 17 2 44-3-2 3-47 3-17-2 8-34-32 13-16-6 29 31 17 12 18 11 19 10 19 7 20 7 21 5 41 6 42 2-21-34 18-4-14-14-13-14-27 37h-31l22-35h1l-17 27h31l21-29 13 14 17-37 2 1-17 36 14 14-18 4 21 34 20-4 26 2 21-3 3-35 2-30 2-2 1 1-3 3-2 30-3 35 41-9 5-10 16-5 8-6 16-3-24 18 39-17 18-10 18-12 16-13 15-15 22-36 5-20-22-27h-99l-22 12-3 42-22 16 6 39-6-39-18 25h-1l19-27 22-16-14-29v-20h-16l-4-5-25 19-13 1-10-25 14-2 26-16 26-1 17-7 38 2 20-8-14-10 17-39-30-3 11-22 28 3-17-28-12 23-11 4 6-32-24-7-42 3-27 4-12 25-21 39-5-46v1l-6-10 6-13 26 7 4-9h8l13-18 14-2v-1l42-3-19-33-1 1-12 4 6-10h-30l-13-19-14 23 2 1-4 7 1 8-17 2-2-16-37 16-20 5-22 10-1-4-32 7-35 7-30 7-19 9-18 11 27-4 39-1 1 22zm236 251 3-14h1l-4 21-24-37 7 4zm4-14-1-4zm-52-13 16-23h2l-16 23h-34zm-124-25 9 15-4 3-10-15-26 3 2-3zm22 11 7-7 8 11h-12zm91-16-23-35 1-1 24 36zm64-77v25h1l13 28 3-40 22-12h-38zm-265-20-3-7 30 8-1 24 14 14 25 17 17-30 2-16v-8h1l-1 18-2 16-15 27-24-17-14-14-29-32-6 30-2-2 5-26zm116 16 7-14 27-5 10 11zm59-39h13l12 27h-8l-1-3-16-13-27-5-9-10 4-3zm-150-8 13-34 22 19 1-10 25 26 32 4 10-26 32-6-15 14-17 3-10 26-32-4-1 20v-1l1-29-42-3-6-3-1 3zm123-313 2 14h-2v1l-27 25 23 45 16 33-11 17 58 4 6-11 7 9 27-14-3-7h22l-20 34 27-9 19 33 4-30 29 8 41-4-11-38 11-23 19 1v-4l7 2-2 23h2l-2 4-5 1 2 5-2 4v-8l-19-1 19 37-19 2-9 19h-4l-25-7-4 28-8 26 11-2 10 16v1l4 7 5-11 5-1 20-23 31-2-9 18-12 1-18 34-17 39 14 10 37-20 3-19 22-43 10-17 13-40 2-1-1-11 1-10h-1l-1-1-4-20-17-37-12-16-4-4-5-15-17-13-35-19-19-8-39-11-20-4-20-3-20-2-40-3 8 19h-3l21 44v-42l5-1v47l28-17-7 20-11 4 3 6-18 11-11 17-8-10 19-31-21-44-11-23-13 24h-8l2-4zm37 224 5 46 21-39zm-11 19h10l-9 20-5-12zm-29 16 7-29 3 9-5 18-5 3-27-29h1zm15-16h5l2 6-4 2zm-4-29h-2l-7-23 22 2 16 27h-14l-2-4-13-1zm180-15m-113-33v-2l7 2 9 14-3 4-20-6zm-286-104-10 15-24 10 18 15-1 16v1l-16 19v-1l15-19-14-5v-1 1l-1-1v9l-2 11 1 3-1 3 1-1 5 14 36 8h1v-1l9-12-1-31h12l7-41 16 38 24-7-3 19-15-1-6-11-4 11h-6l1 14-4 10 2 2-8 10h19l20 9h11l2 3 1-3h6l-4-6 9-28h-2l17-20 14-32 8-10 14 6-3 4-14 32-17 20-9 25h58l3-24 15 3 11-3 11-17-16-33-23-45 27-25v-24l21-1 39-1h-20l-25 1h-15l-32 2 6-1-40 5-20 4-7 13 3 5-24 7-19 7-1 10-13-18-34 22 2 6zm270 77-18 23 20-2zm221 8-4-8 6-13 5 10-7 16-4 1zm-42 4v-5l1 5zm36-43 5 11-8 3-2-4 5-10zm-29 1 16-3-3 4-11 2zm18-3 9-2 2 4-9 1zm-104-11 8-39 6 13-4 20zm-65-17 1 2-3 2zm13-9 17 2 8 8v1l-32-2 1-7zm-173-11 9 12-2 2-8-13zm73-3-2-14 7 3zm-83-9-1 5-19-8-2-4 5-20 24 35-2-1zm-88 2-19-3 2-5 26 5v1zm343-22-17 11-7-14zm-37-5 11 1-1 9z"/><path transform="translate(114 14.96) scale(.016 -.016)" d="m146 248-27 4 10 25-4 15-33-1 17-29-12-29-16 12-15 15 1 4-20 32-7 20-4 20 23-19 12 7 38-12 3 7-38 12-14-9 1 29-5 4-1-1-7-22 1 18-13-9 15 51-14-7 5 20 20 37 16 6 32-13-8 34 17 2 44-3-2 3-47 3-17-2 8-34-32 13-16-6 29 31 17 12 18 11 19 10 19 7 20 7 21 5 41 6 42 2-21-34 18-4-14-14-13-14-27 37h-31l22-35h1l-17 27h31l21-29 13 14 17-37 2 1-17 36 14 14-18 4 21 34 20-4 26 2 21-3 3-35 2-30 2-2 1 1-3 3-2 30-3 35 41-9 5-10 16-5 8-6 16-3-24 18 39-17 18-10 18-12 16-13 15-15 22-36 5-20-22-27h-99l-22 12-3 42-22 16 6 39-6-39-18 25h-1l19-27 22-16-14-29v-20h-16l-4-5-25 19-13 1-10-25 14-2 26-16 26-1 17-7 38 2 20-8-14-10 17-39-30-3 11-22 28 3-17-28-12 23-11 4 6-32-24-7-42 3-27 4-12 25-21 39-5-46v1l-6-10 6-13 26 7 4-9h8l13-18 14-2v-1l42-3-19-33-1 1-12 4 6-10h-30l-13-19-14 23 2 1-4 7 1 8-17 2-2-16-37 16-20 5-22 10-1-4-32 7-35 7-30 7-19 9-18 11 27-4 39-1 1 22zm236 251 3-14h1l-4 21-24-37 7 4zm4-14-1-4zm-52-13 16-23h2l-16 23h-34zm-124-25 9 15-4 3-10-15-26 3 2-3zm22 11 7-7 8 11h-12zm91-16-23-35 1-1 24 36zm64-77v25h1l13 28 3-40 22-12h-38zm-265-20-3-7 30 8-1 24 14 14 25 17 17-30 2-16v-8h1l-1 18-2 16-15 27-24-17-14-14-29-32-6 30-2-2 5-26zm116 16 7-14 27-5 10 11zm59-39h13l12 27h-8l-1-3-16-13-27-5-9-10 4-3zm-150-8 13-34 22 19 1-10 25 26 32 4 10-26 32-6-15 14-17 3-10 26-32-4-1 20v-1l1-29-42-3-6-3-1 3zm123-313 2 14h-2v1l-27 25 23 45 16 33-11 17 58 4 6-11 7 9 27-14-3-7h22l-20 34 27-9 19 33 4-30 29 8 41-4-11-38 11-23 19 1v-4l7 2-2 23h2l-2 4-5 1 2 5-2 4v-8l-19-1 19 37-19 2-9 19h-4l-25-7-4 28-8 26 11-2 10 16v1l4 7 5-11 5-1 20-23 31-2-9 18-12 1-18 34-17 39 14 10 37-20 3-19 22-43 10-17 13-40 2-1-1-11 1-10h-1l-1-1-4-20-17-37-12-16-4-4-5-15-17-13-35-19-19-8-39-11-20-4-20-3-20-2-40-3 8 19h-3l21 44v-42l5-1v47l28-17-7 20-11 4 3 6-18 11-11 17-8-10 19-31-21-44-11-23-13 24h-8l2-4zm37 224 5 46 21-39zm-11 19h10l-9 20-5-12zm-29 16 7-29 3 9-5 18-5 3-27-29h1zm15-16h5l2 6-4 2zm-4-29h-2l-7-23 22 2 16 27h-14l-2-4-13-1zm180-15m-113-33v-2l7 2 9 14-3 4-20-6zm-286-104-10 15-24 10 18 15-1 16v1l-16 19v-1l15-19-14-5v-1 1l-1-1v9l-2 11 1 3-1 3 1-1 5 14 36 8h1v-1l9-12-1-31h12l7-41 16 38 24-7-3 19-15-1-6-11-4 11h-6l1 14-4 10 2 2-8 10h19l20 9h11l2 3 1-3h6l-4-6 9-28h-2l17-20 14-32 8-10 14 6-3 4-14 32-17 20-9 25h58l3-24 15 3 11-3 11-17-16-33-23-45 27-25v-24l21-1 39-1h-20l-25 1h-15l-32 2 6-1-40 5-20 4-7 13 3 5-24 7-19 7-1 10-13-18-34 22 2 6zm270 77-18 23 20-2zm221 8-4-8 6-13 5 10-7 16-4 1zm-42 4v-5l1 5zm36-43 5 11-8 3-2-4 5-10zm-29 1 16-3-3 4-11 2zm18-3 9-2 2 4-9 1zm-104-11 8-39 6 13-4 20zm-65-17 1 2-3 2zm13-9 17 2 8 8v1l-32-2 1-7zm-173-11 9 12-2 2-8-13zm73-3-2-14 7 3zm-83-9-1 5-19-8-2-4 5-20 24 35-2-1zm-88 2-19-3 2-5 26 5v1zm343-22-17 11-7-14zm-37-5 11 1-1 9z"/><path transform="translate(123.44 14.96) scale(.016 -.016)" d="m195 111 3-15h1l-2 6 5-2 1 1-9 32-8-13 4-19-13 3 12-3-15-14h1l-3-1 2-28-12 5-9-25-17 10-7 5-4-7 1-6 9-8-12 9v-1l-4 4-30 27-3 5 32 4v1l-35-5 2-5-13 16-20 34-8 19 3 18-5 16-4 20-2 20-2 41 7 35h17v1h-13l-24-1-1 8-6-30 2 32 4 2v5l1 21 16 11-3-31 13 3v2l-5-1 3 31 3 30h1l16 33 1 3 11 17 12 9-10-29-22-32-1-1h55l-21-33-1-10 20-16 29-2v5l-17 1-27 22 21 33 40-2 3 2h-6l4 7-7 15-14-22h-63l23 33 7-2-1 1-5 1 2 7-9 22 17 3 3 5 30 28 17 13 18 10 38 17 12-4-1-4 8-2v1l13 3-38 14-13 4 20 6 20 5 13-29 5 1 21 3h49l17 1 20-4 10 11h25l38-12 18-7-22-31-10-29 1-5-13-27 1-2 14 29 14 39 22 30 18-9 17-10 16-12 29-28 20-33 1 1-8 17 9-16 1 1 9-10-2-3 4-6-5 5-2-2 4-8 3 5 9-19 12-38-9 15 14-34 3-20-20-6-8-1v-3l-2 3-21-3 11 12-3 3-12-15-13 29h2l-1 1-12 5v17l-3 5h1l-2 6 1-18-46-6-1 24-5 1 1-22-31-1-26 6 5-13-2-1 27-5 31 1 46 6 2-9 14-5 13-29-6-31-6-12 10 20 6 31 26-26 5 30 19-31 3-33-17-4 9-15-19-8h-59l-27 5-5-8-32-5h-20l-44 6-36-4-6 11-13-1 4 29 1-1 14 15h-15l-4 1v-3h-20l-5 1 12-26-30 12 9 14-8 1-1-1-2 1h-12l2 4-1 1-11-2v7l-8 4 7 1v3h-7v27l-22-7 12 40h-8l-10-33v-36l-15-12-26-4-18-5 14 39 7 16-18 36 10 16-5-1-13-22-14 15-1-9 9-10 18-36-7-16-14-39-13-25h9l15 29 2 1-1 1 15 3h2l9 1 36-18 25-17-2-28 19-35 13-21-3-11 18-2 12 40 21-32-10-32 15-42 3-22-16 6-5-7-24 1-21 1-40 6v11l-5 2-1-2-1-16-42 14-3 41 20-9-2 12v-3l-6 2-15-1 5 6-4 2zm352 354 12-25-25 40zm-141-83-16-5 3-4 26 8 35-2 17-4 1 14 1-2 15 28-12 26h-3l13-26-18-34-21 5-26 2-3-7-4 7h-2l1 2-7 13-1 1-1-1-1 1-19 7 2 20-3 4 21 37-1 2-25-44v5l-29 7 26 24-3 2-29-25 30-7-2-24 23-8zm-60 88 26-1zm-104-5-29-2v-1l29 2zm-99-23-21-4-10-20 8-18 3 1zm61-23-21-29 7-16 2 5 29 40-29 13-30 7 2-4 11-3zm77 20-31-4v-1l29 4zm224-7-7-13 19 1-4 4h-11l4 7zm5-52 2-9 16 39-5 4zm-243 29 10-3 1 1-10 4zm-108-4 1-20 2 3-1 15-1 2-1 3-2-1-1-1zm104-77h2l-11 27 24-7h3l-4-21 17-1-6 13 29 3-5-16h2l17-15 3 6-2 2h3l15 30 19-4-19 38-11 7 1 2h-17l1-2-20-1-13 14-7 2 2-2h1-1l7-7-19-41-23 7-3-10 11-27h-10l10-23 7 3 4 15zm-144 72-14 4v-1zm223 2-20-6v-1l20 6zm201-13 14-2 4 9-8 1zm-377-17-13-29 27 7 9 21zm208-1v1l-3-1 6-4 1 3zm200-49h-3l-3-5 5 1 3 4 3 34-1 1-5 12-18-5-6-15h-1zm-84 32-3 6-13 4v-4zm-87-15-6-24 4 3 4 17-4 12-10 12-14 1-5-17zm172-17-26 27 29 8zm-360 30-2-1 4-1-1 3zm149-38 6 30-1 1-4-22-2-9-4-1-10-15h7l10 16zm-94 14-1 2-1-2zm21-26 6 17-1 3-7-18zm-211 16v2l-30-6v-2zm257-8 9-12h3l-11 13-6-1h1-3l1 1-22 8-1-4 23-9zm13-21 1 1h-1l-4-5 3-1 16-4 31 29 12-31v2l-13 32-29-27zm62-39-30-3-21 1 3-7 14-1 4 4 30 3 33 8 26 22 16-30 3 35 35 8-3 8-33-8-3-35-16 30-26-22-33-8zm-107 25 5-2 4 10-5 11-12-1zm47 16 1 2-1-2zm-126-41 17 1 1 1 1-1h9l32-15-14-33-25 17-11 17-7 3 3 2zm112-18 5-9 20 5-4 10zm-250-9-9-9 4-4 7 7zm-24-19 17-32 12-3-2 4-5 2-16 28-1 1v-1 1zm36-18 5-15 4 1 9 19-7 5h-6zm235-23 6 11-4 5 33 14-12-34 4-5zm-150 4 13 24-13-24-28 1 3-3 8-1 43 2-1 2zm-92 2 8 2-7 2zm259-13 9-16h1l8 24 31-4 45 4h19l27-7 5-5 20 2 25 5 2 6 41-22-4-2-14-39-12-17-14-16-14-14 3 1-35-24-18-10-9 15-30-10-20-4-21-4-42-4-3 23-15 42 10 32-1 1-3-5-14 27-5 1-13 21zm-280-51 6 2 7 25-5 3zm78 7 22-6zm345-5h-1l-1-3 3 2zm-250-38-7-16 5 5 4 11zm-14-34 5-2v16l-1-2zm-70-13-18 9 15-7z"/><path transform="translate(133.41 14.96) scale(.016 -.016)" d="m404 741h37l15-25-45-13zm-183-759 23 18 1 10-25-19-20 2-32 8-8-9-19 8-20 12 25-12-3 15-22 11 20-13-18 11-16 12-29 30-11 17-9 19-14 39v5l-7 34 11-14v-1h26l14-24h2l15 23 20-16-12-39 16-2 8 3-12 36 23-10v1l-21 9 5 27 45-11-12 17-33 8-5-27-20 16-15-23-15 27-8 21h-7l13-31h-29l-10 14-3 20h1l-1 18 12 5 21-3-5 14-14 2-12-5-1 53 20 17-11 4-21-17 3 50 2 20h10l8 38 15 38 10 18 12 17v-8l26 27-3-1 4 3 2 8 6 5 21 3 33 13 20 4 2-15h12l-2 11 22-6 19 9 18-5-17-26 12-10 2-4 14 3 4-17 5-4-6 31-3-7-2 6-10-2 6 10-5 14 15 1 6 9 7-19 9 20 20-4 19-17 30-1v119l7-34 5-12 20 4 21-1 8-19 4-3 14 2-15 33h39l13 18h-17l-24 12 19-13-14-17-6 31-4 2h-9l6-29-9 1 1-2-22-5 5 21-10-18-14 32h5l-3 15 9 2-11 1-15-3v60l8 19 11-27 8 35 5-29h1l-1-2 2-7 44 13-5 7h56l38-6 15-24 16 3-7 14-12-3-15 24 17 6 8-15 28-7h23l8-19v-36l4-5-4-2v-17l-3-12v-27l-7-3 3-1 10-16-8-5v-75l-1-10h15l1-30v-99l-4 8 4-28-13-1v-32l-7 2-33-6 6 9-3 1h-12l1-3-5 3-14 1-16 2-6-26-31-7 7-25 32 7 2-10 6 26 33-17 18 7-16-6v29l33 6 7-41-3-18-2 16 2-23 1 8v-8l2 1-2-4v-14l-7-2-8-15 4-6 9-1 2 5v-5l16-2-16-5v-68l-1-1-15-17-9-4-11-32 10-1 10 30 16-42-7 1v-10l-8-19-19-8h-89l2-3h-76l30 26 25 2-2 3-9 23-25-22v14l19 27-23 11v25l4 12-2 3-13-1-8-25v-25l-55 5-2-3 8-15-1-1 1 2 37-4 12 14 23-11-19-27v-14l-11 11h-1l-31-5-29 7 4 6-9 5v2l-8-13-12 24-4-13-4-1-4-19 14-8-39-10-8-1 7-7-40-4v-9zm278 678h1l-10 23h-2zm86-13-5-13 12-5 3 6zm-170-23v-1l5-12 8 15h-11l7 9-9 7-12 1-4-18 13-1 1 4 2-4zm157-82 12-2 8 10 2 1-16 2 9 34-6 11-4-10-10 22-23-1 11 12-7 3-13 18-39-4-5-21 9-11 3 14 43 4-25-29v-12l17-25 7 14-16 23 31 2-7-16zm28 87-1 1 5-26 1-2zm6-36-3 1-2-10 6-2 1 5-3 14v-1zm-120-6h16l-3 4-25-3-25-28 14 2zm20-4-16-21 29 3v3zm103-2m-179-167-21-41 11-21 2 7-9 17 28 2 2 4 15 28-21 7-39 1 13 27 30 4 24 13 18-23-15-24 10-3 16 27-18 23-30 15 20 25 3 27 12 27-21-3-11-24-3-27-20-25 30-15-24-13-30-4-10-20 4-7-4-3zm-195 116-19-9-22 6 20 2zm59-4-24-1-18 5 22-1zm78-20-3-2h2zm-202-31 2 30h-11l-1-9zm127-31-2-2 2-3 16-9-20 33 26 31-28 3-3-1 20-2-26-31 12-20zm-160 32-15-24h4l5 8 5-7 10 1-9 13 11 22-2 4zm95-3 5 16h-1l-5-15zm134 13-2-8 3 8zm263-2v-20l-1 10zm-261-24 18 3 1 1-27-4 14-13 3 4zm-180-5-33-8 6-14 16 4zm88-47 13 1v27l-13-12v-15l-28 18 26 24-30-11-12-16 12 16 4-14 15-21 6-4-1-4 4-5zm1 36-2 4v-12l10 4zm89-2 8 2-1 2-7-2zm172-23 8-12 9-5-3-3 7-10-26-5-9-12 2-5 12-5 3 1 19 26 11 12-32 18 8 26h-2l-8-26-6-3h1zm-201 23-1-23 8 10zm-265-14 7-19 19-2 11 17zm43-23-17-35h4l13 26 21 17 23 2-4 9-19-2zm251-6 5 3-35 14v-5zm138 4 9-14h2l-10 14 23 11zm-182-10 14 11 20-21h2l-23 24v-1l-13-1zm155-31 9-11 7 6-4-10 2-3-5-4-7-15 7-7 18 41 8-26 12 4-6 16-5 3-3-3-1 4-4 2 3 4-1 3-5-7-14 18-8 19-9-13 3-6-3-32-34 3 9-9 14-1 4 1 1-1h1l-1-1 1 1v-1l9-8v2l-1-1zm-379-11 13-13 8 2-20 21h-1v1l-9 10 9-2-6 10-6-8-3 7-3-10 9 3v-6l9-15zm178-252 10-16 1-2 5-9 28-14 3 10h-1l-13 7-16 27 24 15 4 1 6 12 8-9 9 2-4-8 9-10 11 11-28 32-9 28 37 6 11 15-14-3 7 29-10-6 2 49 17 36h3l-2 16-10 7-34 28-10-5-10 2 1 10-6 1-17-11-5 13h-4l10-22-11-38 1-10-1-22 1-44h-10v-11l-9 11h-8l24-28h2l-1 28 9-30 10-3-4-4 9-6-1-3 23-16h-1l2-7 2 1-1-3 6-19-18-4-5-8-2 5-21-13 3-4-18 1-5-1-1 1h-6l14-16zm113 210h-1l-2-5 13 3 16 37 3-1 1 5-11 4-13-27 1-1-6-11zm-301 23 10 2v17l-10-3zm332-89-16-26 9-7 36-1-17-15 3-3h-7l-6-6 34-15-6-15h5l10 25 4 1 4 21 16-4 3 1-1-1 8-2 10 21-31 8-9 7-3-1v5l-2 2-1-21-31 26 16 26-7 29-13 31-6-23-21-4 12-30zm79 63 9-1 2 3-10 10-10-4zm59-16 18-3v-29zm-494-36 19-3-6 14-18 2zm546-11 2-10 1 10-1 10zm-436-35 11 16v14l-17 7-1-19-29 3-4 11-4-10 7-2 3-8 5 3 11-15 18-2 15-35v15l6-1-9 19zm-99 22 11 14-18-21 26 10-4 1v2zm132-28 5-2 9 16-6 19-11 2-5-9zm360-11 5-8 5 8-10 39-11 4zm32 31-5-7 16 3 1 7-18-1zm-357-18-11-3-1-2 16 4zm5-9 12-17 10 11-7 10-14 4-14-40 2-2zm-30 1 10 2v2l-8-2zm295-52v-1l2 1 7 27 42-3-18 23-24 1-8-32-6-13zm-223 41-1 1-9-10 1-8 11-6 2 15-3 11-1-2zm95-37 28 11-12 24-16-6-3-4-9-23 12-2zm210-11 15 31-9-4-6 8-17 2zm-389-33 15 11v-17l38-2v18l-11 1 10 9-10 12h1l-11 17-5-2 2 5-28 10h-1l-14-14 1-20 14 16h1l34-12-23-21h1l-15-11 14-25 2-3zm89 56v-1l2-5 22 3 4 8-24-4v-3l-1 3-4-1zm-130-44 16-27 14-47-22 6-32-4 3-14 29 4 1-15 1 1-2 26 22-6 1 1-1 3-12 43-16 27-10 16 2-6 6-9zm302-8 23 22-17-10-8-7zm-304 4 1 2-1-1zm346-9-6-5 7-25 5 32h3l-7 5zm-358-18 9 20-14 1h-2l-2-5zm498 20 1-18v-40l-16 41zm-87-2h-6l7-28 6 2zm-341-9 1-18 13 2zm116-27 10-5 3 11-12 7-5-4zm-79-19 11 1 12 20-12-2zm-25 6-2 3-30-11-4-5zm108-25 29-7-18-10-18-9zm-78-11 14-16 8 1-13 14zm354 431-13 25h-15l13-25-31-6 8-1zm-535-153-3-3 3-7 20 7 13-30 19 29 25-1-11-23 15-7 10 20 13-22 2 1-1 3-18 28 38 1 27-7 24 8 18 21-1 8-19-22-24-8-27 7-38-1-14 24 9 36 30-4 14 34 27-9-27 9-14-34-30 4-9-36-14 33-5 1 10-23 14-24-25 1-19-29-13 30-30-11zm241 97-1-10h1z"/></svg>