<svg width="166.53" height="18.96" viewBox="0 0 166.53 18.96" xmlns="http://www.w3.org/2000/svg"><path transform="translate(0 14.96) scale(.016 -.016)" d="m286 378-46-119-74-177-33-65-5-7-13-4-6-2-3 8-5 11 2 11 12 31-4-10-16-24-6-6-14 12 2 5 4 17-3-4-14 14-1 8-1 17 4 40 28 78 142 342 35 86 19 35 7 9 19 9 10-4 7-3 1-6-1-18 4 6 7 3h9l3-11-2-18-12-30 24 46 7 8 11 1 8-2 4-11-2-18-18-47-18-41-12-18-13-11-11 6-5 3-35-86 2 2 5-11 2-18zm-39 216-135-324-33-79-4-7-16-8-1 9 2 23 21 56-7-12-8 1-7 1-2 9-1 20 3 74 33 99 64 152 39 73 11 9 16 3 9-3 13-11v-23l-5-13 3 6 18 15 8-13-5-15zm-82 51-31-79-45-108-15-35-6-12-14-6-3 8-3 29 5 110 27 75 22 42 16 14 13 4 8 2 11-4 10-4 3-7 4-13zm278-28-29-68-12-18-5-7-8 1h-11l-1 11-2 10 4 13-1-1 2 5 1 3 1 2 5 15 21 52 7 14 3 8 11 4 1 1h17l5-20zm64-2-98-236-56-136-27-35-20-8-4-8-8-11-2-17-1-47-26-84-13-26-6-9-10-4-11-4-19 10-1 8 1 19 52 128 54 131 30 71 27 35 31 31 6 74 27 76v1l8 23 18 39 1 2 1 4 4 5v1l9 13-2-8 10 9 16-2 8-5 8-14-2-8zm-443 2-12-15-12 11 1 8 5 24 4 10 17 5 2-5 4-13-3-8zm504-84-109-263-43-104-9-16-7-8-8-1 1 6 4 22v2l-8-1-6-1-6 6-8 9-3 11 13 88 103 248 32 77 20 34 17 11h9l15-5 11-12 1-11-11-46 5 3v-8zm93-107-48-116-31-57-19-62-46-114-24-50-8-11-13-6-6-3-8 3-13 8-9 14v8l3 26 7 17-3-2-7-5-6 6-9 10-3 17 4 36 25 64 122 293 32 76 13 20 5 7 8-1 14-5 8-12v-11l-8-40h-1l5 4 7-5 10-6 5-12zm-345 118 8 24-56-135 8 6 29 70 10 23zm356-180-10-15-10-6-7-4 1 5 3 18 23 57 8 18h6l9-3-2-13zm-344-24-108-261-29-58-8-9-11 1h-6l-1 6-1 22 11 26v1l7 21 16 39 80 192 23 51 11 14-1-9 7 5 7-2 9-4v-9zm249-260-18-42-10-15-12-11-3 5-7 10 2 11 4 10-7 1 1 11 12 38 41 96 6 12 11 8 7 2 2-13-3-18-12-30 8-7-2-16zm35-61h-16l-1 5-2 14 4 15 10 24-21-39-10-7-3 10 3 18 11 27 21 43 11 8 3-10-1-13-11-31 8 16 16 11 6-6 7-6-1-5-1-19-10-24zm45-1-13 7-1 8-2 11 8 20 7 4 10 6 7-5 9-6 1-6 2-17-12-20zm-372 34 10 17 4-7 7-8-4-16-1-5-13-6-2 5z"/><path transform="translate(11.552 14.96) scale(.016 -.016)" d="m454 434-53-130-17-31-7-4-4 7-5 43 6 51 19 55 6 13-1 5-2 14 1 18 8 28 19 9 10-10-1-8-3-8 8 4 10 4 9-6 7-4v-12zm-249 16-102-245-26-56-5-9-18 1-3 5-7 19 5 66 16 40-5-2-7 1 1 11 13 41 50 120 16 32 7 10 10-6-3-9 17 28 18 12 14 1h9l7-11 4-7-2-11zm355-8-135-327-41-70-6-6-13-3-8-2-2 8-4 10-7-15-6-8-12-6-7-4-6 6-5 6v6l2 15 13 33 23 54 36 70 19 63 55 133 31 74 14 20 5 6 14 3 6 2 2-6 6-13-2-8 9 12 6 6 11-1h10l5-20-3-10zm54-111-47-134-61-145-27-42-8-8-17-1-5-1-3 5-6 13 1 8 3 10-8-4-6 6-9 10v16l9 37 21 52 102 245 29 71 13 24 5 9 13 6h10l11-8 1-14-15-56-11-26 5-9 2-16zm-511 82-36-86-12-20-8-2-5 8 1 10 19 72 11 27-10-22-12-5-8 14 7 62 17 28 8 8 10-3 11-2v-12l1-11-8-22 10 21 9 12 11 1h7v-16l-6-21zm178-67-54-162-37-88-20-46-12-19-13-6-8-4-7 4-13 7-2 5-7 16 5 35 6 15-6-10-23-10-13 10-1 8-1 21 24 68 96 231 27 61 12 16 6 6 16 1h6l3-5 7-13-1-13-12-33 5 8 8 4 5 2 1-5 4-21zm319-294-8-17-16-16-6 5-7 5 1 5 1 3-5-6-6-5-16-1h-5l-3 5-6 14 2 13 16 47 57 138 22 46 11 9 6-13 3-21-2-48-29-83 5 2 1-6 2-15zm-297 17-20-47-18-27-17-11-14 2-7 2-1 6-3 14 3 10 1 3-2-2-22-2-9 7-8 7-3 23 9 28 64 154 18 42 6 12 8-2 6-1v-9l2-24 3-83-9-28 14 2 9-3 8-12-1-13zm307-19 11 16 4-7 5-7-5-14-1-5-17 1z"/><path transform="translate(22.336 14.96) scale(.016 -.016)" d="m186 636-103-248-26-58-15-14-2 6-6 19 6 72 23 65-7-4-4 22 4 21 20 54 31 73 20 38 11 9 11-7v-5l-1-6 1 2 18 13 13-2 6-1 2-5 6-13-2-8zm82 28 1-20-22-68-29-69-124-301-43-103-13-24-5-8v9l-1 29v71l1 45 22 67 1 3 1 5 4 15 28 67 88 213 23 54 8 19h5l3 7 16 14 8-1 17-5zm-181-47-25-59-10-17h-13l-1 6-4 14 1 30 10 57 17 28 7 7 14 4 10-3 9-11-1-13zm257-161-57-135-95-231-29-63-13-14-16-7-6-2-18 9-2 9-2 11 3 12-13-12-12 1h-8l-5 7-8 9v8l-1 19 35 103 139 335 33 78 6 12 15 9 2-8 3-23-2-106-2-4 31 28 12 6 8-5 10-6-1-9zm96 14-31-76-11-27-6-13-16-15-6 5-11 7v6l-1 16 4 11-7-5-11 3-7 3-1 8-1 11 6 20 28 67 17 29 21 10 12-10 1-11-4-14 10 7 8-2 8-3v-5zm54-42-134-322-23-54-12-17-13-11h-19l-5 7-6 9v8l4 24 31 67 31 31 20 37 11 85 25 70 37 88 16 29 6 9 8 2v2-1l12 4 9-6 7-4 2-9 3-12zm82-61-48-119-77-187-43-65-12-6-12 2-8 2-5 7-6 10v13l5 16-3-5-14-2h-6v6l3 22 30 74 109 263 29 60 5 6 10 2 5-2 1-10-8-27 6 8 6 6h21l9-10zm48-166-53-146-33-26-10-4-7 5-7 6 2 14 7 20-8-19-27-37-9-7-16 1h-5l-3 5-7 13 2 8 4 18 22 54 79 192 25 59 15 21 18-1 5-11 2-53-23-61 5 12 5 10 5 1 11 2 1-6 1-11zm-341-110-21-50-11-19-5-7-13-7-8 1-9 10 1 11 1 4-7-4-8-3-7 5-8 7v5l2 16 23 57 45 108 18 38 10 7 9-20-12-82-5-14 9-4 8-4v-11z"/><path transform="translate(32.912 14.96) scale(.016 -.016)" d="m135 644-21-48-16-25-15-7-5-3-11 7-7 5-1 11v11l6 21 4 7-9-1-1 5-3 12 1 19 13 49 11 19 8 7 9 7 8-2 10-2 2-12 2-9-1-4 8 4 6 2 18-9v-14zm86-1-20-44-7-12-19-10-10 6-7 5v6l1 13 5 15-4-1v6l-3 14 9 25 21 49 10 15 5 6 9-1 8-2-2-8-1-1h19l6-13-1-18zm13-27 7 12 2 5 10-1-10 8 1 5 3 10 17 42 16 15 7-5-2-8-20-53-11-14 2-1 1-11-4-24-3-7-5-3-10-5-3 8-3 11zm-20-196-122-295-30-68-3-7-18-7-3 7-5 12-1 11 14 89 31 77 1 7 15 40 76 182 14 31 7 12 11 7 2-7 3-11-2-5 6 1 9 1 8-7 6-5-1-14zm-80 12-32-76-20-49-15-34-11-19-12-8-5 7-4 19 2 29 22 72 6 13v6l-1 12 4 19 16 45 16 28 7 8 5-3 7-7v-3l4 4 8-3 11-3 2-11 1-11zm136-34-46-128-76-182-36-69-9-8-11 1-8 1-3 8-2 11 2 10 7 18-1-1 1 6 2 19 31 74 106 255 18 44 7 14 15 11-1-9-4-10 10-4 1-13zm-227 74 10-14-2-8-7-22-5-10-8-2-6 1-1 11 1 21 1 8zm225-274-4-82-38-95-19-20-10-4-11-3-10 1-10 2-7 10-5 7 2 13 6 18-6-4-10 9 2 8 20 58 79 189 12 29 10 16 12 6 1-8 3-12-6-29-18-46h1l3-10zm0-161-11 9 3 9 10 26 4 6h5l9-1v-5l1-11-3-17-3-8z"/><path transform="translate(38.08 14.96) scale(.016 -.016)" d="m232 648-50-121-84-204-33-76-4-10-9-6-10 1-6 20 1 85 27 91-12 2-1 11 8 50 23 60 36 86 22 39 9 10 16-4 1-12 10 13 12 7 8 5h21l11-8 7-5v-9zm-161-30 9 23 6 14 9 18 2-7 6 9 6 7 16-3-1-11-15-46-21-52-13-29-12-27-6-8-11-3-1 11 4 33 19 56 3 6zm175-123-125-302-50-121-10-19-5-8-5 2-8 3 1 9 6 21 15 36-3 4-5 10-1 16 23 103 137 333 34 78 5 10 9 6 6 5 8-8 5-18-4-40-24-63 1-9zm-196 116-10 1v10l11 36 12 8 6-11-2-10zm490-171-67-156-57-142-30-71-15-23-7 4-10 6v6l1 11 8 28h-1l-14-2-6 5-13 17-5 12 9 62 77 184 27 66 20 44 31 29 10 2 11 2 9-5 10-4 2-11 3-10-2-7 1 2 9-2 8-1v-11zm50 9-52-74-19-18 1 8 8 25 29 71 12 24 6 9 13 8 5 3 14-8v-12zm-255 4 28 39 12 6 1-8 1-4 7 8 12 6 8 3 11-2 12-2 3-8 5-13-5-18-65-160-29-71-18-41-12-18-24-21-9-7-8-20-1-16-5-49-41-59-11-3-12 5-8 3-1 8-3 14 4 13 5 12-31-36-12-2-13 6-5 2-1 5-5 14 3 8 7 22 24 59 68 163 22 54 13 29 13 17 34 25zm-85-80-116-281-30-66-21-16-5 6-7 8 2 13 12 36 18 44 107 259 26 61h1l17 43 11 22 7-4-3-8-11-30-3-8 6-5v-11zm271-256-27-64-17-30-18-12-11 3-9 3-2 10-3 11 1 5-15-15h-19l-3 8-6 12 4 21 18 47 31 76 19 41 7 11 22 5 11-13 1-11-11-43 10 10 13-2 6-1 9-18v-11zm44-65-9-6 3 7-16-29-19-12-13 3-8 2-2 6-4 14 7 28 21 52 11 19 8 6 9 6 7-5 10-6 2-6 5-14-14-57zm40-39-13-3-5-1-9 7-7 5v10l13 37 8 10 9-1 14-6 8-12 2-21-5-10-3-8z"/><path transform="translate(51.344 14.96) scale(.016 -.016)" d="m159 640-72-175-20-43-13-7-7 11 1 56 18 62 10 24-5 6-1 9v76l4 18 7 12 4 7 18 9 21-6 2-5 5-16-1-6 8 7 12-2 9-2 1-8 3-14zm434 45 14 11 16-6v-12l2 2 20 10 15-3 6-1 3-5 7-13-7-28-152-367-22-52-24-36-11-8-13-3-8-1-6 6-10 9v5l-1 16 1 3-7-6-11 3-8 1-4 8-5 12 2 16 12 35 21 52 77 187 58 114zm192-83-146-352-21-52-9-20-22-54-17-21 1 6 6 21 10 24-9 2-1 8-1 20 11 85 48 119 79 192 37 86 7 12 10 8 7 6 5-2 14-4 5-12zm-491-24-27-73-34-84-113-270-42-101-11-21-9 1-8 2-3 8-3 13 1 16 26 76-5-6 3 7 7 20 11 26-3-2-4-9-7-9 6 15-5-4-3 8-3 24 22 97 120 290 30 68 21 21 11-6 7-5 1-10-10-44-1-10-3-7 18 5 10-9v-8zm-88 44-110-266-27-61-17-13-5 21 17 76 11 26v3l19 50 65 157 19 42 9 11v-7l3 4 5 6 8-1h8l2-9 2-11zm496-38-80-194-27-64-15-37-9-16-11-5-26-14-18-26-5-9-6 6 2 5-3 3 6 15 26 62 103 248 33 79 14 21-1-6v-1l11 12 8 6 17-4 1-6 3-14-5-16zm-378-105-146-351-22-52-14-31-8-14-9-1-5-2v8l3 12-10-13-6-5-10 4-7 3 1 9 6 21 32 79 134 322 38 91 14 20 8 4 11-13-2-13-11-37 14 7v-8l-1-12zm443-89-117-281-28-66-13-17 1 5 1 6-9-7-10 3-8 2-2 8-4 12 2 15 12 39 23 56 132 320 33 79 18 18 7-8 1-8-3-72-25-67 2 1-2-8zm-495-296-6-69-5-13-9-10-6-6-11-3-10-2-9 7-7 6v8l3 23 6 15-30-36-13-3-13 6-8 4-1 8-2 14 3 10 29 72 123 297 34 81 6 12 10 7 8 5 11-6 8-4 5-10 9-31-2-21-11-29 38 19 29 38 18 20-3-10-18-45-75-181-22-43-8-11h-8l-12-1-8 11 4 67-9-12-8-11-4-13-8-51-25-66 3-6zm520 94-2-62-22-69-15-32-13-16-18-9-15 2-8 6-8 14 2 11 7 25-19-35-9-8-12-2-13 3-10 9-1 12 20 66 98 236 27 61 15 3 3-11 3-46-7-61-17-44 10-1 2-10zm-17-156-2 16 5 13 3 8 7 5 10 4 3-13-1-19-1-8-7-8-9-7z"/><path transform="translate(65.04 14.96) scale(.016 -.016)" d="m299 411-28-39-10-7-15-2-8 3-8 14 2 8 1 5-6-2-9 2-8 11 1 10 9 31 21 49 17 27 18 10 9-5 7-4v-12l-3-10 3 1 10 5 10-6 9-6 1-5 1-12-4-19zm-74-354-26-47-5-7-16 3-1 11 8 28-7 3v12l5 20 13 35 61 145 21 46 8 13 8 2 12 5v-6l6 7 17 63 12 38 4 8-7 6 1 12 11 31 7 14 13 17 8-2 7-2v-11l-5-18 12-2v-12l-15-46-77-184-16-28-9-6-9-3-36-87 1-1 7-4-1-12zm-22 378-20-44-11-15-13-10-12 5-5 2-1 11-2 11 4 10 2 6-5 9 4 15 19 44 13 18 10-9 5 8 13 7 9-7 7-6-2-13zm252-44-133-320-49-74-9-6-12-2-9-1-6 5-9 6v21l4 13 6 13 2 6 18 45 11 17 2-5v-1l19 22 25 34 3 44 5 43 7 17-1 1 5 12 12 30 59 142 11 24 6 8 9 1-2-9 3 2 12 1h9l9-7 8-6 2-12 1-11-3-13zm107-85-57-147-34-81-20-46-19-26-9-7-14-3-6-2-10 6-8 4-2 5-4 14 2 8 4 15-12-2-5-1-11 4-8 4-2 6-5 13 1 8 8 26 27 64 86 209 25 59 11 21 4 7 14 7 5 2 7-3 12-6 2-5 7-14v-12l-12-42 3-2 11-5 4-10zm-507 106 33 33 11 7 5-1 13-3v-17l-6-18-20-43-14-16-12-2-8-2-8 9-6 6v9l-1 11zm174-173-52-125-32-76-15-23-5-6-17-3-9 3-11 12v14l11 36h-10l-3 7-6 13 4 21 14 38 26 64 20 46 15 28 14 15 10 2 8 1 6-9 3-7 3 3 20 4 9-7 6-5v-9zm330-52-51-122-15-28-8-3 3 8 1 3-8-8-12 7 4 11 15 40 57 138 16 34 11 9 7-2-1-6-1-10-6-21-9-23 6 4-2-8zm-442 40-39-95-20-40-9-2-11-4-5 7-6 9 1 22 11 33 11 26-2 6 1 13 11 30 12 18 8-3h1l7 12 17 12 11-2 8-2v-22zm477 17v-72l-2-44-11-30-21-51-3-5-1-4-3-7h-2l-6-10-7-9h-24l-13 1-5 1 4 10 11 27 47 112 23 56z"/><path transform="translate(74.992 14.96) scale(.016 -.016)" d="m225 435-103-249-35-84-14-31-8-7 2 6 3 10-4-6-4 8-6 19v88l33 110 53 128 25 59 20 28 13 6 7 4 14-1 9-1 7-9 6-6v-9l-8-33 4 4-3-7zm46-322-16-73-13-27-15-14-12 1-9 1-2 5-5 16v3l-10-6-8-3-7 4-10 6v21l12 32 24 59 103 248 34 79 20 31 12 8 6 3 9-4 8-3 1-9 1-8 12 9 11-3 8-2 2-9 2-12-9-29-29-71-21-43-15-14-12-3-8-1-9 15-23-39-18-63-22-57h5l2-11zm-138 314-58-140-11-25-6-10h-12l-3 12-1 46 30 101-5-5 4 13 18 44 9 12-1-1 5 9 8 11 18 11 10-3 8-3 2-6 3-13-3-13zm332 6-38-88-4-7-18-6v6l-1 15 18 45 1 3 13 30 10 25 7 15 3 8 16 17-2-8-3-7 3 1 3-7 4-7-3-10zm-155-6-114-275-46-111-10-16-4-6h-6l-8 2 1 4-12-10h-17l-10 4-10 12-1 8v14l4 13 31 76 100 241 29 69 17 34 18 9 9-5 24-30v-5l11 1-1-5zm176-25-19-41-11-10-8 7 2 11 11 33 18 42 8 16 15 10 1-12-3-19zm17-33-6-18-18-9-2 7-3 10 5 20 9 19 8 2 8 1 1-8z"/><path transform="translate(83.28 14.96) scale(.016 -.016)" d="m232 648-50-121-84-204-33-76-4-10-9-6-10 1-6 20 1 85 27 91-12 2-1 11 8 50 23 60 36 86 22 39 9 10 16-4 1-12 10 13 12 7 8 5h21l11-8 7-5v-9zm-161-30 9 23 6 14 9 18 2-7 6 9 6 7 16-3-1-11-15-46-21-52-13-29-12-27-6-8-11-3-1 11 4 33 19 56 3 6zm175-123-125-302-50-121-10-19-5-8-5 2-8 3 1 9 6 21 15 36-3 4-5 10-1 16 23 103 137 333 34 78 5 10 9 6 6 5 8-8 5-18-4-40-24-63 1-9zm-196 116-10 1v10l11 36 12 8 6-11-2-10zm490-171-67-156-57-142-30-71-15-23-7 4-10 6v6l1 11 8 28h-1l-14-2-6 5-13 17-5 12 9 62 77 184 27 66 20 44 31 29 10 2 11 2 9-5 10-4 2-11 3-10-2-7 1 2 9-2 8-1v-11zm50 9-52-74-19-18 1 8 8 25 29 71 12 24 6 9 13 8 5 3 14-8v-12zm-255 4 28 39 12 6 1-8 1-4 7 8 12 6 8 3 11-2 12-2 3-8 5-13-5-18-65-160-29-71-18-41-12-18-24-21-9-7-8-20-1-16-5-49-41-59-11-3-12 5-8 3-1 8-3 14 4 13 5 12-31-36-12-2-13 6-5 2-1 5-5 14 3 8 7 22 24 59 68 163 22 54 13 29 13 17 34 25zm-85-80-116-281-30-66-21-16-5 6-7 8 2 13 12 36 18 44 107 259 26 61h1l17 43 11 22 7-4-3-8-11-30-3-8 6-5v-11zm271-256-27-64-17-30-18-12-11 3-9 3-2 10-3 11 1 5-15-15h-19l-3 8-6 12 4 21 18 47 31 76 19 41 7 11 22 5 11-13 1-11-11-43 10 10 13-2 6-1 9-18v-11zm44-65-9-6 3 7-16-29-19-12-13 3-8 2-2 6-4 14 7 28 21 52 11 19 8 6 9 6 7-5 10-6 2-6 5-14-14-57zm40-39-13-3-5-1-9 7-7 5v10l13 37 8 10 9-1 14-6 8-12 2-21-5-10-3-8z"/><path transform="translate(93.568 14.96) scale(.016 -.016)" d="m315 79-27-64-19-29-18-11-14 1-9 1-8 11-5 6 1 11 4 19-15-5-11 5-8 3-5 14-3 8 4 16 21 54 50 121 31 65 39 28 13 9 6 22-2 11-6 32 19 72 17 27 18 10 14-2 8-1 7-11 5-7-2-13-5-17 13 1h6l11-9 6-5 3-10 2-10-13-43-46-113-35-72-22-19-11-2-10-1-18 11-1 6v6l-14-20-8-43-11-36v1l31 10 10 1 7-5 7-6-2-8zm-64 372-121-292-31-65-9-10-11-1h-8l-5 7-7 10-1 11 17 60-4 1 2 5 4 13 22 54 75 182 20 46 12 11 1-2 16 17 9 5 12-1 9-1 4-7 4-10-2-9zm67-28-20-35-21-31-5-13-8-35-10-42-58-140-30-69-4-7-10-4-6-2v6l2 19 1 4-2-1-5-2 1 5 5 19 31 76 105 254 26 61 14 15 7-9-3-10h5l2-12-4-18zm-38 10-115-278-28-63-6-10-7-4-5-2v5l2 19 3 6-3-2 1 6 3 17 29 69 95 231 16 37 8 16 14 13-1-5 9-5-1-6zm-235-73 35 68 17 9 6 2-2-12 14 28 24 21 9 5 16 1 7-5 7-12-6-18-91-219-16-39-12-17-16-4-11 14-2 57 18 54 3 8-11 1 1 11zm485-29-33-84-29-48-18-13h-14l-9-1-16 14-1 6v16l10 30-1 3-3 8 4 13 15 37 48 115 10 22 6 10 7 3 11 1 2-9 2-8-3-11-10-27-1-3 1-1 15-10 9-14zm35-40-16-53-13-24-21-9-10 9 1 8 3 18 23 56 10 18 9 2 9 22 13 18 1-10-12-32zm12-45-1 15 7 12 5 5 9-11-8-20zm-149-164-28-64-21-30-31-13-12-1-8 6-9 6v6l1 16 10 26-2 14 21 57 22 43 13 9 12-8-2-12h21l9-7 7-5 2-9 1-11zm57 3-17-42-11-19-11-13-8 1h-11l-2 22 6 20 21 46 7 12 13 12 2 4 13 9-4-11 9-1 1-9 1-11zm15-8 22 49 14 4-1-6 2 2 9 10 17-5 1-6 1-14-5-12-21-30-10-10-12-3-8 6 1 6 1 4-11-3z"/><path transform="translate(103.54 14.96) scale(.016 -.016)" d="m225 435-103-249-35-84-14-31-8-7 2 6 3 10-4-6-4 8-6 19v88l33 110 53 128 25 59 20 28 13 6 7 4 14-1 9-1 7-9 6-6v-9l-8-33 4 4-3-7zm46-322-16-73-13-27-15-14-12 1-9 1-2 5-5 16v3l-10-6-8-3-7 4-10 6v21l12 32 24 59 103 248 34 79 20 31 12 8 6 3 9-4 8-3 1-9 1-8 12 9 11-3 8-2 2-9 2-12-9-29-29-71-21-43-15-14-12-3-8-1-9 15-23-39-18-63-22-57h5l2-11zm-138 314-58-140-11-25-6-10h-12l-3 12-1 46 30 101-5-5 4 13 18 44 9 12-1-1 5 9 8 11 18 11 10-3 8-3 2-6 3-13-3-13zm332 6-38-88-4-7-18-6v6l-1 15 18 45 1 3 13 30 10 25 7 15 3 8 16 17-2-8-3-7 3 1 3-7 4-7-3-10zm-155-6-114-275-46-111-10-16-4-6h-6l-8 2 1 4-12-10h-17l-10 4-10 12-1 8v14l4 13 31 76 100 241 29 69 17 34 18 9 9-5 24-30v-5l11 1-1-5zm176-25-19-41-11-10-8 7 2 11 11 33 18 42 8 16 15 10 1-12-3-19zm17-33-6-18-18-9-2 7-3 10 5 20 9 19 8 2 8 1 1-8z"/><path transform="translate(114.8 14.96) scale(.016 -.016)" d="m648 610-132-319-19-47-12-27-10-15h-16l-3 7-7 18-9 35 5 18-10-7-14 3-8 2-2 8-4 13 2 10 28 72 49 115 36 91 27 63 20 41 15 15 10 3 11 3 9-9 6-5v-22l7 3 8 4 13-2 10-6 7-14-3-11zm-453 26-97-236-18-42-8-17-15-10-8 8-1 11 3 73 17 56 7 16-2 2-7 9v24l14 128 16 29 7 9 13 6 7 4 14-2 8-1 8-11 5-6-2-12 4 5 12 5 8 2 10-4 10-5v-9l1-14zm96-54-59-163-109-263-44-103-13-19-12 4-5 1-2 8-3 30 27 100-9-3v8l-1 24 9 103 42 107 71 172 33 76 16 21 5 6 16 5 6 2 10-7 7-4 1-6 2-17-8-21h1l6 4 9-9 5-18zm379-26-125-303-49-117-11-20-8-7-8 2 1 8 5 23 13 33-4-2 1 9 4 22 35 86 118 285 29 69 12 22 9-6-2-8-3-8 3 1 6 1 1-6v-17zm-172 40-34-81-7-14-13-6-2 8-4 22 14 97 17 27 7 8 14 3 10-3 9-9 1-11zm-443 56 5 2-7-12zm631-147-148-357-35-83-11-20-12 2 4 20 5 12-7 4 3 8 8 22 47 116 120 288 30 73 9 17 11 2-2-10-15-40 10-1-2-11zm-360-32v-19l-16-51-25-61-93-224-21-49-20-34-10-10-11-3-9-2-7 4-10 6-2 5-4 14 2 8 6 23 23 56 127 305 31 76 9 17 9 6 12-5 1-5 1-11zm379-174-55-143-29-68-19-44-20-26-9-7-16 2-5 1-1 5-4 16 2 4-9-8h-11l-8-1-9 18 3 16 13 35 21 51 123 298 30 68 19 15 8-16v-11l-1-24-33-98 4 4 11-8 1-8zm-369 48-110-265-27-61-13-11-5-2v24l2 5h-2l-6-1-1 6-1 21 32 76 91 222 26 61 11 21 4 7 14 6 9-3 7-12-3-13-12-33-3-16zm69 26-35-86-25-47-18-13-14 2-6 1-2 6-5 13 3 11 12 35 29 70 21 41 17 15 12-1h2l3 7 11 20-5-14-5-13h3l3-8 5-10-1-8zm272-257-17-41-23-48-11-8-5-2-1 10 5 18-4-1-3 9 3 13 12 33 54 130 16 31 7 10 10-10-2-8-8-26-17-42 2-11-3-16zm-402-20-15-71-16-28-17-13-14 1-8 6-6 12 2 11 9 27 34 83 12 27 4 10 5-3 7-9 1-24 28 66 10 15-3-8-15-37-14-31-5-14zm413-55-11-16-11 2 3 11 4 13h-7l1 6 6 22 29 69 16 17-1-9-6-24-10-25-6-14 6 6 5-7-4-14zm-382 10 3 8 5 6 7-9-7-13-4-5zm395-24-4 10-3 5 8 12 4 7 4-8 3-7-3-8z"/><path transform="translate(127.15 14.96) scale(.016 -.016)" d="m299 411-28-39-10-7-15-2-8 3-8 14 2 8 1 5-6-2-9 2-8 11 1 10 9 31 21 49 17 27 18 10 9-5 7-4v-12l-3-10 3 1 10 5 10-6 9-6 1-5 1-12-4-19zm-74-354-26-47-5-7-16 3-1 11 8 28-7 3v12l5 20 13 35 61 145 21 46 8 13 8 2 12 5v-6l6 7 17 63 12 38 4 8-7 6 1 12 11 31 7 14 13 17 8-2 7-2v-11l-5-18 12-2v-12l-15-46-77-184-16-28-9-6-9-3-36-87 1-1 7-4-1-12zm-22 378-20-44-11-15-13-10-12 5-5 2-1 11-2 11 4 10 2 6-5 9 4 15 19 44 13 18 10-9 5 8 13 7 9-7 7-6-2-13zm252-44-133-320-49-74-9-6-12-2-9-1-6 5-9 6v21l4 13 6 13 2 6 18 45 11 17 2-5v-1l19 22 25 34 3 44 5 43 7 17-1 1 5 12 12 30 59 142 11 24 6 8 9 1-2-9 3 2 12 1h9l9-7 8-6 2-12 1-11-3-13zm107-85-57-147-34-81-20-46-19-26-9-7-14-3-6-2-10 6-8 4-2 5-4 14 2 8 4 15-12-2-5-1-11 4-8 4-2 6-5 13 1 8 8 26 27 64 86 209 25 59 11 21 4 7 14 7 5 2 7-3 12-6 2-5 7-14v-12l-12-42 3-2 11-5 4-10zm-507 106 33 33 11 7 5-1 13-3v-17l-6-18-20-43-14-16-12-2-8-2-8 9-6 6v9l-1 11zm174-173-52-125-32-76-15-23-5-6-17-3-9 3-11 12v14l11 36h-10l-3 7-6 13 4 21 14 38 26 64 20 46 15 28 14 15 10 2 8 1 6-9 3-7 3 3 20 4 9-7 6-5v-9zm330-52-51-122-15-28-8-3 3 8 1 3-8-8-12 7 4 11 15 40 57 138 16 34 11 9 7-2-1-6-1-10-6-21-9-23 6 4-2-8zm-442 40-39-95-20-40-9-2-11-4-5 7-6 9 1 22 11 33 11 26-2 6 1 13 11 30 12 18 8-3h1l7 12 17 12 11-2 8-2v-22zm477 17v-72l-2-44-11-30-21-51-3-5-1-4-3-7h-2l-6-10-7-9h-24l-13 1-5 1 4 10 11 27 47 112 23 56z"/><path transform="translate(137.1 14.96) scale(.016 -.016)" d="m237 625-70-167-22-55-14-31-14-17-11-4-9-4-15 5-5 1-3 6-5 13 1 9 5 22 21 52 64 154 3 7 6 13 11 27 6 12 2 1 3 6 9 11 12 9 7 4 22 1 8-11 5-6-2-13zm78-23-136-327-33-76-19-19-4 7-5 11v13l24 80-14-4-2 5-2 23 19 74 99 239 22 46 12 13 15 7 10-15-2-9-3-7 1 1 5 9 9 5 7 5 6-6 8-6v-11zm-221 24 3 19 6 12 4 7 18 12 12-4 8-2 2-6 4-16-2-8-7-23-24-57-11-17-6-6-8 20zm226-129-122-296-31-71-19-14-6 10 3 13 15 39-15-9 1 5 4 16 35 84 113 273 29 71 8 17 3 8h9v-6l1-12-3-16-14-41-6-16 1 1 2-11zm108-55-35-75-44-48-13-85-46-125-19-46-15-26-19-12-11 1-9 1-6 7-8 8-2 18 6 26-2-2-11-1-9-1-4 7-6 10 1 14 12 38 18 44 93 224 27 64 10 22 6 9 25 7 12-9v-25l14 14 10 5h10l11-1 14-18-1-11zm52-60-4-19-9-11-5-6-14-2-8 3-8 12 2 16 5 13-4-1-9 9 1 5 5 15 29 72 16 24 10-3 8-2v-11l1-11-13-35-4-9 1-3 2-16zm-422 33-18-42-11-18-11-11-6 1-12 3-7 14-3 19 8 53 30 46 9 6 16 2h5l10-9 5-6v-12zm306-250-4-7 6 3 11-1h9l7-9 5-7-1-11-9-35-26-61-19-32-17-12-17 1-8 5-10 13 1 11 7 29h-6l-1 6-1 15 3 11 10 25 28 68 13 24 5 9h17l1-9 2-12zm127-69-17-56-16-28-12-11-17-7-8-3-10 3-11 3-8 20 1 8 4 15-8 14 2 6 4 15 31 73 9 16 7 5 13-6-2-10 12 3 10-2 13-11 2-10zm1-47 9 12 3-5 5-8-13-13z"/><path transform="translate(145.62 14.96) scale(.016 -.016)" d="m237 427-107-258-19-41-7-12-15-3-8 2-10 13-1 8 1 24 23 62 94 227 28 55 10 9 6 5 13 3 12-4 7-12-2-8zm37-327-25-65-18-31-17-12h-12l-9-1-7 6-9 7-1 6-2 15 2 10 6 15h-1l-9-3-3 9-4 10 2 11 32 84 111 268 29 63 20 19 8-4 7-4v-11l-2-7 16 7 13-4 11-7 8-21-3-19-12-32-21-49-13-27-5-9-11-4-10-4-10 6-9 6-4 9-6 31-27-35-16-84-26-69 12-2 5-10 13-47zm33 346-134-322-23-54-11-16-15-11-6 2-13 5-3 8-5 13 1 11 28 77 102 246 30 69 15 21 6 5 14 4 5 2 9-6 7-5 1-11zm213-74-34-60-9-7-15-1-9 3-10 11v9l2 12-3-2-13-2-8-1-5 7-8 12 1 5 2 16 14 35 19 46 15 26 6 9 24 6 14-9 2-11 1-11-9-31h14l14-18v-8l1-13zm-344 67-85-204-16-37-8-10-5-9 2 4-17-4-9 8v11l14 62 53 128 34 77 21 25 7 5 9-2 8-2 2-11 1-8-3-11zm-78-55-23-54-14-34-17-34-7-8 1 8 8 28 6 13-2 1-6 6 1 8 3 25 21 60 16 30 19 22 13 4 6-4-1-5-5-19-4-8zm464 19 5 7-3-8-4-12-2 6zm-2-38 10 16 7-13-13-14zm-45-31 16 39 10 5-2-11-12-30zm52 4 4-11 2-5-16-8-2 17zm-146-204-35-86-24-47-16-15-10-2-11-3-9 6-10 7 1 5 1 18 1 3h-1l-9-3-6 5-9 6-2 9-2 11 4 18 13 35 51 82 24 17 10 5 6-6 5-10 12 1 8 2 16-14v-11l1-11zm44 27-14-35-9-22-11-21-5 1 7 17 28 69 9 19 5 6 1-6zm58-28-53-107-16-11-7-4-10 4-9 3v22l5 13-2 2 2 8 8 23 29 71 15 25 7 8 1-5 2-6 11 7 11-4 8-3 2-9 3-11zm47-13-32-45-16-5-5-1v6l2 20 19 46 12 27 13 17 17 1 2-5 4-13-2-10zm-136-14-16-37-21-44-9-11v5l2 21 33 81 19 35 9 5-1-11z"/><path transform="translate(155.57 14.96) scale(.016 -.016)" d="m243 671-48-118-80-194-32-73-6-8-9-22-11-18v6l5 18 3 6-3 4-5 20v87l32 108 50 122 25 59 19 32 17 13 15 3 8 1 11-4 11-5 1-8 2-13zm-110-42-63-152-14-30-6-11-11 3v11l8 38 10 26-2-2-1 6-4 20 21 78 19 44 10 16 12 13 16-6v-11l-2-7 7 7 11-11-2-8zm117-30-147-354-36-86-11-21-4-7-8 6 2 7 7 20 11 25v1l-4 13 3 8 35 90 123 298 31 71 18 18 2-8 3-7-3-7-6-18-1-4-1-1zm19-64-59-146-100-241-23-54-16-36-7-11-11-3-8-3 1 9 4 23 16 40-3 1 3 7 8 23 39 94 114 275 45 108 8 17 3 8 8 3v-11l-11-38-6-13 2-5 3-8-2-11zm10-100-51-125-83-199-34-75-6-9-11-4-8-3-10 15 4 16 13 34 22 52 122 295 30 72h1v1l8 17 5 5-6-15-1-4 12 8 4-13 1-19zm120-24-18-41-9-16-17-6-5 14 12 37-4 5 2 11 10 30 18 42 9 19 12 14 13-1 5-3-1-11-10-28 1-8-3-18zm91 29-72-175-21-43-12-7-10 10v16l-1 43 46 146 22 46 8 11 4 1 2 5 3 7 10 5-2-5-1-6 4 1 11-3 8-2 2-6 6-13-1-8zm-142-6-32-76-29-59-21-63-49-118-31-74-16-20-2 6-1 6-3-7-11-12h-14l-8-1-4 8-5 12 3 13 13 37 21 52 83 199 48 113 33 38 11 7 16-5v-5l-1-10 11-9-3-8zm185-1-8-19 12 29 14 18 7 6h20l10-10 1-77-116-278-29-65-15-13-7-5-7 5-12 7-3 10 4 80 28 71-11-27-10-10-5-3-2 6-4 16 17 60 80 192 14 32 11 15 12 8 6-9 4-7-3-7zm81-165-79-192-13-29-11-15-12-5v14l4 13-15-26-8-7-11 1-9 2-1 5-2 21 27 70 83 199 23 56 9 17 3 7 14 6 9-2 8-14v-9l-6-34-10-24 10 2 1-11zm14-142-26-64-11-22-5-9-23-10-10 9 1 5 2 16 12 30-20-42-10-10-12 5 2 12 14 41 59 142 22 46 12 7 4-12-13-52-8-19 4 10 13 5 2-6 5-14-1-13zm-368-47-29-62-8-11-10 1h-6v6l1 16 9 22-4 5 3 12 12 33 46 111 15 33 6 10 13 1 1-11-4-33-31-80-9-22zm372-46-13-4-6 1-5 11-3 5 4 13 15 40 10 19 3 7 7-5 9-7v-12l-5-44-4-10zm-336 48-8-17-5 12 2 5 6 16 12 10-1-5z"/></svg>