<svg width="99.302" height="16.59" viewBox="0 0 99.302 16.59" xmlns="http://www.w3.org/2000/svg"><path transform="translate(0 13.09) scale(.014 -.014)" d="m356 710q4 0 9 0t10-1q3 0 6-1.5t6-3.5q2 0 4-1t3-2q2-1 3-3t2-4q1-1 3.5-4.5t1.5-5.5q0-2-2.5-5t-3.5-4q-1-2-2.5-4t-2.5-3q-2-2-5-2.5t-5-1.5q-8-2-16.5-3t-16.5-1q-4 1-8 2t-8 2q-1 0-2.5 0t-2.5 1q-2 1-4 4t-4 4q-1 1-3.5 3.5t-2.5 3.5q0 2 1.5 5.5t1.5 4.5q1 2 1.5 4.5t1.5 3.5 3 2 4 2q3 2 6 4t6 3 7 1 9 0zm159-7q16 1 33 0t33-6q15-6 34.5-19.5t37-30 27.5-31.5q8-15 12.5-32t9.5-33q1-5 2-10t1-10q0-2 1-3.5t0-2.5q0-1-1.5-2t-2.5-2q-2-1-5.5-4.5t-6.5-3.5q-1 0-3.5 1t-3.5 1q-3 1-7 1.5t-6 1.5q-3 2-6 6t-5 7q-5 6-8.5 13t-6.5 14q-8 14-16.5 28.5t-20.5 26.5q-16 14-38 20-21 5-43.5 4.5t-42.5 8.5q-4 2-9.5 5.5t-8.5 6.5q-1 2-2.5 5t-2.5 5q-1 1-3.5 4t-2.5 5 2 5 3 5q0 2 1 4.5t2 3.5 4.5 2 5.5 1q10 3 20.5 4t22.5 1zm181-731q-2-2-4-5t-4-6q0-1-0.5-2.5t-1.5-1.5q-1-1-4-0.5t-4 0.5q-3 0-7-0.5t-6 0.5-4 2-4 2q-11 8-23.5 15t-27.5 8q-16 0-31-6.5t-30-8.5q-17-2-32 3t-30 10-31.5 10-28.5 15q-14 12-22.5 29.5t-14.5 34.5q-5 13-12 25-1 0-2.5 3t-2.5 3q-1 1-2.5 0t-2.5-1q-2 0-6-0.5t-6-1.5q-1-1-1-2.5t0-2.5q-1-3-2-6.5t-2-6.5q-2-6-2-12t-1-12q-3-16-8.5-31.5t-19.5-24.5q-2-2-4.5-3t-5.5-1q-22-11-49.5-6.5t-50.5 0.5q-16-4-30.5-12.5t-28.5-15.5q-12-6-24.5-10.5t-26.5-5.5q-3 0-6.5-1t-6.5 0q-4 0-7.5 1.5t-6.5 2.5q-2 0-4.5 0.5t-4.5 1.5q-2 2-4 4.5t-4 4.5-4.5 4-3.5 4q-2 2-2.5 5.5t-1.5 5.5q-1 3-2 6t-1 5q-3 16 1.5 32t6.5 32q2 18 2 38t-1 39q-1 14-5 26.5t-10 25.5q-6 12-12.5 24t-8.5 26q0 2-1 5t0 5q1 11 6.5 20.5t10.5 18.5 10 19 7 20q4 18 2 36.5t-3 35.5q-2 17-1.5 33t-0.5 32q-1 22-9 44-3 10-7.5 20t-6.5 21q-3 21 5 42t15 41q4 9 7.5 20t9.5 20q8 10 19 17t23 10q5 1 9.5 2.5t10.5 1.5q2 0 7 0t7-1q3-1 6-5t5-6q1-1 2-2t2-2q0-1-1-4t-1-4q0-3-0.5-7t-1.5-6q-2-4-6.5-8t-7.5-7q-4-4-9-7.5t-9-7.5q-12-11-21-25t-11-31q-4-15 0.5-34.5t9.5-39 5-34.5q0-16-4.5-32t-2.5-32 8-31 6-32q-1-22-11.5-41.5t-11.5-41.5q0-17 6-32t12-30q6-17 7-35 1-13 0-26.5t-1-26.5q0-12 1.5-23.5t1.5-22.5q1-8 1.5-15t2.5-14q1-2 2-5.5t2-4.5 5-1 6-1q2 0 4.5-0.5t3.5 0.5q3 0 6 3t6 5q8 5 15.5 11t16.5 9q17 6 33.5 6.5t34.5 1.5q3 1 7 1t7 0q3 1 6.5 3t6.5 3q1 0 3.5 1t3.5 2 2 3.5 2 4.5 3 5.5 3 6.5q1 4 1.5 8.5t1.5 8.5q3 20 3.5 40.5t4.5 41.5q0 3 0.5 6.5t1.5 6.5 3 6.5 4 6.5q1 1 2 3.5t2 3.5q2 2 6 3t6 3q2 0 4 1.5t3 1.5q3 0 6-0.5t5-1.5q3 0 6-0.5t5-1.5 4-3 4-4q11-9 18.5-21.5t12.5-25.5q6-15 11.5-30.5t13.5-29.5q19-35 50-59 7-5 15-10.5t16-7.5q4-1 10.5-2t10.5 0q10 1 19 7.5t19 10.5q11 5 22 5.5t23 1.5q6 1 12 1t12 3q2 2 4.5 3.5t4.5 2.5 3.5 1.5 1.5 1.5q1 1 0.5 4t-0.5 4q0 3 0.5 7t-0.5 7-3 6-3 6q-8 16-19.5 31t-18.5 32q-1 3-2 7t-2 8q-5 14-1 27 0 2 2 4.5t3 4.5q1 1 2.5 5t2.5 5q2 0 6.5-1t6.5-1q2-1 4.5-1t3.5 0q2-2 4-5.5t4-5.5q6-8 11-17t9-18q4-8 7-15t6-15q5-15 7.5-31t8.5-32q5-15 13.5-29.5t10.5-31.5q1-3 0.5-6.5t-0.5-6.5q0-9-1-18t-4-20zm-471 723q5 0 10 0.5t9-0.5q3-1 5.5-2.5t5.5-2.5q1-1 4-2t3-3q1-1 1-3.5t0-3.5q0-2 1-6t0-5-2.5-1.5-2.5-1.5q-3-1-6.5-3.5t-6.5-3.5q-2 0-4 0.5t-4 0.5q-3 0-7 0t-7 1q-2 1-4 3t-4 4q-2 0-5.5 2t-3.5 4q-1 2 0.5 7t1.5 7 0 3.5 1 2.5q1 2 6.5 2.5t8.5 0.5zm69-168q2 3 4.5 8t5.5 7q1 2 3.5 3t4.5 1q3 2 6 4t6 3 6 1 5 0q19 2 38.5-2t33.5-17q10-9 16.5-21.5t11.5-24.5q3-11 4.5-21.5t-0.5-21.5q0-3-0.5-6t-1.5-6q0-1-2-2.5t-3-3.5q-3-2-5-5t-5-5q-2-2-6-3t-7-2q-6-3-12-4t-12-2q-17-2-36.5 0t-32.5 14q-6 6-10 13.5t-7 15.5q-5 13-8 27.5t-2 28.5q0 5 1.5 10t3.5 11zm81-51q-3 2-5.5 3t-4.5 2q-1 1-2.5 2t-2.5 1q0 0-2-3-1-2-2.5-5t-2.5-5q-2-3-2-3 1-1 5-3t5-3q1 0 4-2.5t4-2.5q1 1 1.5 2.5t0.5 2.5q2 4 3 7t1 7zm311-43q1-12 2-23.5t2-23.5q1-15-0.5-30.5t-10.5-28.5q-6-8-14.5-14.5t-15.5-12.5q-13-10-26-19t-27-15q-1-1-2.5-1.5t-2.5-0.5q-2 0-5.5 2t-6.5 3q-1 1-2.5 1t-2.5 1q0 2 2 6t2 5q3 11 9 20.5t13 18.5q7 10 16 19.5t15 20.5q8 15 11 32t9 33q3 7 6 13.5t7 12.5q1 1 3 5t3 4 3-2 3-3q2-1 4.5-2.5t3.5-3.5 1-7 1-10z"/><path transform="translate(10.108 13.09) scale(.014 -.014)" d="m641 198q0-23-2.5-51.5t-1.5-51.5q2-17 7-35t4-36q-1-14-4-26t-11-23q-2-2-3.5-4.5t-3.5-3.5-4-2-4-1q-3-1-7-3t-7-2q-3-1-6.5 1t-6.5 2q-12 4-23 11.5t-23 11.5q-14 4-29 4.5t-30 0.5q-16 0-32-0.5t-32-1.5q-15 0-30.5-1t-30.5-1q-15-1-42.5-2t-54.5-3-42-6q-14-3-27-8t-26-9q-11-3-24-2-2 0-4.5 0t-3.5 0q-2 1-4 2.5t-3 3.5q-3 2-6.5 4t-5.5 4q-3 2-4.5 5.5t-3.5 6.5q-7 11-11.5 23.5t-9.5 25.5q-7 18-18 39-5 11-12.5 20.5t-14.5 19.5q-12 18-23 38t-16 41q-5 22-1 44 4 16 10 31.5t7 32.5q1 11 0.5 22.5t0.5 22.5q0 17 3 33t4 32q3 22 6 43.5t13 41.5q4 9 11 19t16 15q8 5 17 6.5t18 1.5q22 2 47-2t48-6q12 0 24.5 0.5t23.5-2.5q3-1 5.5-2.5t4.5-2.5q3-1 5.5-2t4.5-3q4-2 7.5-7.5t5.5-9.5q11-19 11-41.5t3-43.5q4-21 15.5-40.5t11.5-41.5q1-8-0.5-16.5t-2.5-15.5q-2-11-4-22t-4-22-2-24q0-2-0.5-4.5t0.5-3.5q0-4 2-7.5t4-6.5q0-1 0.5-2.5t1.5-2.5q2-2 6.5-3t7.5-2q1-1 2.5-1.5t2.5-0.5q2 0 3 1t2 2q3 2 7 4t6 4q1 2 2 6t3 7q6 17 5.5 35t-3.5 36q-2 14-3.5 27.5t-3.5 27.5q-2 15-3.5 29t-0.5 29q1 11 3.5 22t4.5 21q2 11 3.5 23t5.5 22q2 3 4 5.5t4 5.5q1 1 2.5 3.5t2.5 3.5q2 1 5.5 1t6.5 1q1 0 2.5 0.5t3.5 0.5q1-1 1-2.5t0-2.5q2-4 4-9t1-9q-3-19-3.5-38t-2.5-38q-2-18-0.5-36t2.5-36q1-12 1-23.5t1-22.5q1-20 3.5-39.5t3.5-39.5q1-12 1.5-24t-3.5-23q0-3-1-5.5t-2-4.5q-5-9-14-15.5t-19-9.5q-13-5-28-4-9 1-19 2.5t-18 6.5q-2 2-4 4t-4 4q-17 15-24 36.5t-7 43.5q0 7 0 14.5t0 14.5q0 11-0.5 22t-0.5 22q0 17 1.5 33.5t-1.5 33.5q-3 16-11 31t-14 30q-2 8-4.5 16t-5.5 15q0 3-1 6t-2 5q-2 2-5.5 4t-5.5 4q-1 1-3 2.5t-3 2.5q-2 0-4.5 0t-3.5 0q-14 1-25 0-14-1-28.5-1.5t-28.5-3.5q-5-1-11-3t-10-4q-2-2-4-4t-4-4q-12-11-18-27t-10-32q-3-13-5-27t1-27q2-12 7-23t7-23q1-10 0.5-19t-2.5-19q-4-16-11.5-31.5t-8.5-32.5q-2-22 9-41.5t20-39.5q8-17 15.5-34.5t20.5-31.5q2-3 4-6t5-5q3-3 9-6.5t10-4.5q2-1 5-0.5t6 0.5q8 0 15.5 1.5t16.5 3.5q13 2 26.5 3t27.5 1q23 0 51.5-5t51.5-8q15-2 37-3.5t44-2 37-0.5q13 1 27 2.5t28 2.5q26 2 50-1 8-2 19 0 2 0 5 0t4 1 2 3.5 2 3.5q1 3 3 6t2 6q0 2-0.5 5.5t-1.5 5.5q-3 17-12.5 31t-13.5 30q0 3-1 5.5t-1 5.5q0 2 0.5 5t1.5 5q1 8 3 16t3 16q2 20 1.5 39.5t4.5 38.5q3 11 7.5 21t7.5 21q2 3 3 6t2 6q1 5 0.5 11t-1.5 11-3.5 10-2.5 10q-1 4-1 8.5t0 9.5q0 7 3 13t4 13q1 5 2 11t1 11q0 4-1 8t-2 8q-2 10-4.5 20t-5.5 20q0 2-0.5 4t-1.5 4q-1 1-3 2.5t-3 2.5q-2 2-5 5t-5 4-5.5 1.5-5.5 0.5q-11 2-21 2.5t-21 1.5q-2 1-7 1t-6 2q-2 1-2.5 4.5t-1.5 4.5q0 1-1.5 4t-1.5 4q1 1 5 2.5t5 2.5q2 1 4.5 2.5t4.5 2.5q5 1 10 1t10 0q13 2 27 3.5t28-1.5q3 0 6.5-0.5t6.5-1.5q20-8 30-28 7-14 8.5-31t3.5-32q2-11 4-22t3-23q4-43-5-86-4-16-10-31t-10-31q-2-11-2-22t0-24z"/><path transform="translate(19.544 13.09) scale(.014 -.014)" d="m129 707q1-2 4-6t3-7q0-1-1.5-3.5t-2.5-3.5q-1-2-3-5.5t-4-5.5-6-2.5-7-1.5q-1 0-4-1.5t-4-0.5q-1 0-3 2.5t-3 3.5q-2 1-5 4t-3 4q-1 2 0 3t2 3 2 6.5 3 6.5q1 1 2.5 1.5t2.5 1.5q3 1 6.5 3.5t6.5 2.5q5 1 14-5zm-94-622q-3 1-9 2.5t-9 3.5q-1 1-2.5 4.5t-2.5 5.5-2.5 4.5-2.5 4.5q0 2 0.5 5.5t0.5 5.5q0 8 1 16t2 17q1 11-1 22.5t-1 23.5q0 4 0 9t1 10q2 11 6 21t8 21q3 10 5 21.5t2 22.5q-1 11-3.5 22.5t-6.5 21.5q-3 11-8.5 21t-7.5 21q-3 13-1 26t5 26q2 14 4 29t2 29q0 12-2 22.5t-5 21.5q-1 6-3 12.5t-2 11.5 0 10 1 9q1 11 3.5 21.5t2.5 20.5q0 11-2 23.5t1 23.5q1 3 2 9t3 9q2 2 6 4t6 3q1 1 3.5 3t3.5 2q2 0 4.5-0.5t4.5-1.5q2 0 6-0.5t6-1.5q1-1 2-3.5t1-3.5q3-6 5-10.5t2-10.5q0-14 0-29t-1-30q-1-13-3-26.5t-1-27.5q0-14 1-29t-1-29q-2-23-5.5-58t-0.5-58q2-20 12-42 5-9 10.5-19t7.5-20q0-2-0.5-4t-0.5-4q0-3 0-6.5t-1-6.5q-2-6-5-11t-6-10q-9-22-8-42 1-11 3.5-22t1.5-22q0-11-2.5-22t-4.5-21q-1-8-1.5-15.5t-2.5-15.5q0-2-0.5-5.5t-1.5-5.5q-1-1-2.5-1.5t-2.5-1.5q-3-1-6-3t-8-3zm172 621q5-2 10-4 2 0 3.5-0.5t1.5-1.5q1-1 1-4t0-4q1-1 1.5-4t-0.5-5q0-1-2.5-2.5t-3.5-2.5q-2-2-4.5-4.5t-4.5-2.5q-3-1-7-0.5t-6 0.5-4.5 0-3.5 1q-1 0-2.5 3t-1.5 4q-1 1-3.5 4.5t-1.5 4.5q0 2 2 4t3 3q2 2 3.5 5t4.5 5q2 1 6 1t9 0zm99-53q-1-9-3-19.5t-2-20.5q0-11 3-22.5t6-22.5q1-3 1.5-6.5t1.5-6.5q0-1 0.5-2.5t0.5-2.5q2-3 6-4.5t6-2.5q1-1 3.5-2.5t3.5-1.5q3 0 7.5 2.5t7.5 3.5q11 5 21 12.5t22 10.5q20 6 42-3 10-4 19-10.5t19-11.5q21-9 44-10.5t41-15.5q10-8 17-21t12-24q6-15 12.5-29.5t13.5-28.5q1-3 3.5-7t3.5-8q1-3 0.5-6.5t-0.5-6.5q0-1 0-4.5t-1-3.5q0-1-4.5 0t-5.5 2q-2 0-5.5 0t-5.5 1q-1 1-1.5 2.5t-1.5 2.5q-3 3-6 6t-5 6q-9 14-14 30.5t-15 30.5q-11 13-26 20t-30 12q-13 4-26 7.5t-25 7.5q-15 4-30.5 7t-30.5-2q-10-3-19.5-9t-20.5-10q-12-5-26-7.5t-27-0.5q-3 0-6 0.5t-5 1.5q-3 1-6 3t-6 4q-1 1-3 2t-3 2q-2 2-2.5 4t-1.5 4q-2 3-4 6t-3 7-1 9-1 10q-1 11 2 23t5 23q2 18 3 36t7 35q1 3 2 6.5t3 6.5q2 2 4.5 5t4.5 5q1 1 2 2.5t2 1.5q2 1 5.5-0.5t5.5-2.5q2 0 3.5-0.5t2.5-1.5q1 0 1-1.5t0-3.5q1-3 2-7.5t1-10.5zm-55-392q0 5 0 10t1 9q2 15 7.5 29t11.5 27q4 9 8 17.5t9 16.5q2 3 4 6t4 5q3 2 6 4t6 4q1 0 3 1.5t4 2.5q3 1 7 0.5t7-0.5q2 0 4.5 0t3.5 0q3-1 5-3t4-3q15-10 24-29 11-22 17-51t7-52q0-15-2-32t-11-30q-10-16-28-23t-36-4q-3 1-6 1t-5 1q-9 3-15 10t-11 14q-10 15-17.5 32t-11.5 37zm97 16q-1 4-2 10t-3 9q-1 2-3.5 3.5t-3.5 2.5-3.5 3-3.5 2q-2 0-5-2.5t-4-3.5q-2-1-4-2.5t-3-2.5q-2-2-2.5-5t-0.5-5q-6-18-1-32 1-4 3.5-7.5t4.5-7.5q1-1 1.5-2.5t1.5-2.5 4.5-2.5 5.5-2.5q1 0 4-2t4-2q2 0 2.5 1.5t0.5 2.5q2 3 5 6t4 6q0 1 0 4t0 4q0 7-0.5 13.5t-1.5 14.5zm250-82q-1 4-3 9t-2 8q0 2 2 5t3 5 2 4.5 2 3.5 4 1 4 0q2 0 5.5 0.5t5.5 0.5q1-1 1.5-2t1.5-2q3-3 6-6t5-6q2-4 2.5-8t1.5-8q0-1 1-2.5t1-2.5q-1-3-3-5.5t-3-4.5q0-2-1.5-5t-2.5-3q-1-1-4 0t-4 1q-3 0-7 0t-7 1q-3 2-5.5 6.5t-5.5 9.5zm7-99q-1-4-2.5-9t-3.5-9q-8-18-20.5-33t-27.5-28q-10-9-21.5-16.5t-24.5-11.5q-16-5-33-6.5t-33-6.5q-12-4-23.5-10.5t-23.5-10.5q-3 0-6.5-1.5t-6.5-1.5-6 1.5-5 2.5-5 2-5 2q-3 2-5.5 5t-4.5 5q-5 5-10.5 10t-12.5 9q-2 1-5.5 2t-6.5 2q-12 5-25 7.5t-26 2.5q-10-1-21-4t-22-6q-11-2-22-3.5t-21-6.5q-12-5-22-14t-21-15q-3-2-6-4t-6-3-6 0-6 1q-2 0-5.5 0t-5.5 1q-3 1-6 3t-6 4q-26 16-31 48-1 3-1.5 6t-0.5 6q0 4 2 8t3 7q0 1 0 2.5t1 2.5q2 1 3.5 1t2.5 0q3 1 7.5 2.5t7.5 0.5q5 0 9.5-4.5t8.5-5.5q5-1 11-1t10 1q4 0 7 1.5t6 2.5q7 3 14 5t15 3q7 0 14.5-0.5t14.5-1.5q4 0 8-0.5t8 0.5q4 2 8.5 3t8.5 3q5 2 9 6t8 7q21 11 41 7 9-1 17.5-5.5t16.5-8.5q20-10 41.5-20.5t43.5-10.5q7 0 14 1t14 2q15 0 30.5 1.5t28.5 9.5q9 5 16 14t15 16q5 6 10.5 11t11.5 10q7 5 13 11.5t12 13.5q3 4 6 9.5t8 9.5q5 5 10 9 1 1 1.5 2.5t2.5 1.5q1 0 3.5-3.5t3.5-4.5q1-2 3.5-4t3.5-4q1-1 0.5-4t-0.5-4q1-6 0.5-11t-2.5-12z"/><path transform="translate(28.798 13.09) scale(.014 -.014)" d="m249 43q3-3 8-5.5t7-6.5q2-2 2.5-7t1.5-8q1-1 1.5-2.5t0.5-2.5q-1-1-2-2t-2-2q-2-3-4.5-7t-5.5-5q-2-2-6-2.5t-7-0.5q-13-3-27-2t-27 1q-8 1-16 1t-16 0q-15 0-35.5 0t-40.5 4-35 16q-2 1-4.5 3t-3.5 4q-2 2-3.5 4.5t-2.5 4.5q-2 3-3.5 5.5t-2.5 4.5q-4 10-4.5 21t-0.5 22q0 10-1 21t-1 22 1.5 21.5 1.5 20.5q1 17-2.5 33.5t-3.5 32.5q0 11 3 21.5t5 21.5q2 10 2.5 21t-0.5 21q-2 22-8.5 43t-6.5 42q0 19 5 37t11 35q4 8 7 16.5t7 15.5q3 4 6.5 9t7.5 8q2 1 5 2.5t5 2.5 5 2.5 5 2.5q11 3 22.5 2.5t22.5-0.5q13 1 26 3t26 5q7 1 14 3t13 4q2 0 5.5 1t5.5 2q0 0 2 5t2 5q-1 1-5 2.5t-6 1.5q-10 4-20.5 4.5t-20.5 0.5q-15 1-37.5 2t-45 7.5-37.5 21.5q-23 25-23 58 0 16 6 31.5t11 29.5q6 16 16 30.5t28 18.5q12 3 25 1.5t25-2.5q23-1 45.5-1.5t45.5-5.5q8-2 17-5t16-8q6-5 11-11.5t9-13.5q11-19 15.5-39t6.5-41q2-15 6.5-30t5.5-30q1-10-1.5-20.5t-3.5-21.5q-2-14 1-27t7-27q1-3 2.5-5.5t1.5-5.5q0-2-0.5-5t-0.5-6q0-1 0-4t-1-4q0-2-1.5-2t-2.5-1q-2-1-6-3.5t-6-2.5-5 2-5 3-4.5 2-4.5 2q-9 7-16 14.5t-18 11.5q-10 3-22 2.5t-22-0.5q-12-1-23-1.5t-22 0.5q-16 1-32 1.5t-30-9.5q-6-5-10.5-12.5t-7.5-13.5q-16-35-7-74 3-11 7-22t5-22q3-15-3-33.5t-13-37-8-33.5q-1-11 2-21.5t5-20.5q1-5 2-10.5t1-10.5q0-6-1-11t-2-11q0-5-1-10.5t-1-10.5q1-12 3.5-25t6.5-24q1-3 1.5-7.5t2.5-7.5q2-2 4-4t4-4 3.5-4 2.5-3q2-1 5.5-1t5.5-1q7-1 13.5-1.5t14.5-0.5q15 0 30.5 1t31.5 3q13 2 28.5 3t30.5-5zm-3 652q-3 3-6 7t-6 7q-2 2-4.5 3.5t-4.5 2.5q-20 12-44 12t-46-2q-21-2-37-6-3 0-6-0.5t-5-1.5q-4-2-10-6t-9-7q-1-2-2.5-5t-2.5-6q-1-2-2.5-4.5t-1.5-5.5q-4-14 3-30 1-2 2-5.5t2-5.5 3.5-3 4.5-2 4.5-3.5 4.5-2.5q3-1 7-1t7-1q13-1 25.5 1.5t25.5 3.5q26 3 54 0 14-1 28 1 2 1 4.5 1t4.5 1q1 0 2.5 2.5t2.5 3.5q2 2 5 5t4 6q1 1 0.5 2.5t-0.5 2.5q1 4 1.5 8t-0.5 8-3 9-5 11zm45-427q-2-5-3.5-9.5t-2.5-8.5q-3-14-3-28.5t0-28.5q0-21 1.5-41t7.5-40q4-14 7-24 1-3 2-6t1-5-1-4-1-4q-1-1-2-5t-2-5q-1 0-2.5 0.5t-3.5 0.5-6 0-6 1-4 5-4 6q-6 7-10.5 16t-8.5 17q-3 8-6.5 16.5t-6.5 17.5q-2 8-2.5 17t-1.5 18q0 19 1.5 38t6.5 37q6 16 12.5 31.5t8.5 32.5q2 13 0.5 26t-0.5 26q0 5 0.5 9.5t2.5 9.5q1 3 2.5 8t3.5 7q1 1 4 1.5t4 0.5q2 1 6 2.5t5 1.5 2.5-3 2.5-3q2-3 4.5-5.5t3.5-5.5 1-6.5 0-6.5q2-18 4.5-38t-2.5-37q-3-8-7-15.5t-8-16.5z"/><path transform="translate(33.32 13.09) scale(.014 -.014)" d="m32 379q1 15 3.5 31t-1.5 31q-2 11-7.5 21t-8.5 20q-6 16-5.5 32.5t-1.5 33.5q-2 11-4.5 22t-1.5 22q0 3 1.5 6.5t2.5 7.5q3 11 8 22.5t10 23.5q8 19 19.5 36t31.5 24q3 1 5.5 2t5.5 2q2 0 5.5-1t5.5-2q2 0 5 0t4-1 1.5-4 0.5-4q1-2 3-6t1-7q0-2-3-5.5t-5-5.5q-4-6-9-11.5t-10-11.5q-12-17-19.5-38.5t-10.5-42.5q-6-46 5-89 4-17 10.5-35t4.5-36q-1-12-4-23t-10-22q-1-2-2.5-6t-3.5-6q-2-1-6-2t-7-2q-1 0-2.5-1t-2.5-1q-1 1-1.5 2.5t-0.5 2.5q-3 5-4.5 9.5t-1.5 11.5zm622-360q-8-7-15.5-12.5t-17.5-9.5q-15-7-31-10.5t-31-11.5q-14-8-28-16.5t-32-8.5q-22 1-40.5 13.5t-39.5 20.5q-15 6-31.5 8.5t-31.5 10.5q-11 7-18.5 16t-16.5 17q-4 4-7 8-1 1-2 2t-2 1-4-1.5-4-2.5q-2-1-5.5-2.5t-5.5-3.5-3-7-2-8q-2-6-4-13t-5-12q-11-20-31-27-13-3-27-2.5t-27-2.5q-22-4-51-11t-52-5q-13 1-26.5 6.5t-21.5 17.5q-11 16-11.5 35.5t1.5 37.5q1 21 1 42t-2 41q-3 33-12 65-2 8-4 15.5t-2 16.5q0 2-0.5 5t0.5 6 4 6.5 5 6.5q0 1 0.5 2.5t2.5 2.5q1 0 4.5-0.5t5.5-0.5q1 0 4 0t4 0q2-2 3.5-5.5t2.5-5.5q5-8 7-17t5-18q4-14 10.5-28.5t7.5-29.5q1-11-1.5-21.5t-4.5-21.5q-2-14-1.5-28t3.5-28q1-6 2.5-11t4.5-10q0-2 1-4.5t2-3.5q2-3 6-4.5t6-3.5q2-1 4-2.5t4-1.5q2-1 5-1t6 0q2 0 5 0t5 0q3 0 5.5 1.5t4.5 2.5q13 5 23.5 14t23.5 14q5 2 10.5 2.5t10.5 3.5q3 1 5.5 4t5.5 5q1 1 3.5 2.5t2.5 2.5q1 2 1.5 4.5t0.5 4.5q4 14 3 28-1 10-1.5 20.5t3.5 20.5q0 2 1 5t2 5 3.5 4 3.5 4q3 3 6 5.5t7 4.5q3 1 7 2.5t7 1.5q2 0 4.5-0.5t4.5-1.5 5.5-1.5 5.5-1.5 4-3.5 4-3.5q12-11 20.5-24.5t17.5-27.5q6-11 13-22t16-20q2-2 4-4.5t4-3.5q15-10 31.5-9.5t32.5-1.5q10-2 20-7 7-3 13-7.5t13-6.5q3-1 6.5-2.5t6.5-1.5q3-1 7 0.5t7 2.5q10 3 18.5 8t16.5 10q4 3 8 5.5t7 6.5q2 3 5.5 6t4.5 7q1 2 1 5t0 5q0 3 0.5 6t0.5 5q0 3-1.5 5.5t-2.5 5.5q-5 13-13.5 24.5t-16.5 23.5q-7 9-12.5 19t-9.5 20q-6 15-10.5 30.5t-11.5 30.5q-5 12-10.5 24t-8.5 25q0 2-1 5t-1 5 1 4.5 1 4.5q1 3 1.5 6t1.5 6q1 2 2.5 3.5t2.5 3.5q9 11 20.5 19t21.5 18q14 14 21 32.5t13 36.5q4 9 7 18t2 19q0 2 0 6t-1 5q-1 2-5 3.5t-6 2.5q-1 1-3.5 2.5t-3.5 1.5q-3 0-6-0.5t-5-1.5q-8-1-16-3t-16-3q-15-4-34.5-4t-38-3.5-32.5-15.5q-8-7-14.5-16.5t-13.5-16.5q-14-13-33-20t-37-4q-3 1-6 1t-5 1q-8 3-14.5 9t-11.5 13q-15 17-23 40t-4 45q3 16 8.5 31.5t7.5 31.5q1 11 0.5 23t0.5 23q0 10-0.5 20.5t-4.5 20.5q-1 3-3.5 6.5t-4.5 7.5q0 1-1 2t-1 2q0 3 1.5 6.5t2.5 6.5q0 1 0.5 2.5t1.5 2.5q2 1 7 2t8 2q6 1 14 1t13-1q2-1 4.5-2.5t4.5-3.5q2-1 5-2t4-3q2-1 2.5-3.5t1.5-4.5q1-3 3-6.5t3-6.5q0-2 0-5t0-6q0-11-1-21t-4-21q-5-22-11.5-47t-7.5-47q-1-8-1-17t3-17q1-2 2.5-4.5t2.5-5.5q1-2 2.5-5.5t3.5-4.5q1-1 4-1t4 0q3-1 7.5-2t6.5 0q3 0 6.5 3t5.5 4q14 9 21 23.5t18 25.5q2 2 4 4t4 3q2 2 5 2.5t5 1.5q9 2 18 3t18 0q11 0 21.5-0.5t21.5-1.5q16-2 31.5-5t32.5-3q13-1 26.5 0t26.5-3q3 0 6-1t5-2 3.5-3 2.5-4 3.5-4.5 3.5-4.5q1-3 0.5-6t0.5-6q0-13-4-25t-8-24q-15-38-33-74-4-8-8-17t-9-17q-6-9-14-16.5t-14-15.5q-14-19-11-42 1-8 5.5-16.5t8.5-15.5q10-17 23-31.5t21-31.5q8-15 13.5-31.5t17.5-28.5q12-11 28-16t27-18q2-2 3.5-5.5t2.5-6.5q4-7 4-15 1-3 1-6.5t0-6.5q-1-5-4.5-10t-7.5-10zm-625 280q-1 1 1.5-1t2.5-3q0 0-2 2-1 1-2 2z"/><path transform="translate(44.926 13.09) scale(.014 -.014)" d="m723 202q0-5 0-9.5t-1-9.5q-2-14-8-27.5t-12-25.5q-10-22-21.5-42t-27.5-38q-11-14-25-25.5t-31-17.5q-15-6-35.5-7t-40.5-2.5-35-8.5q-10-4-19-10.5t-18-11.5q-9-6-19.5-10.5t-21.5-5.5q-23-2-43 7-10 4-18.5 11.5t-18.5 12.5-21.5 6.5-22.5 2.5q-10 0-21.5-0.5t-21.5-4.5-18-12-17-14q-14-8-31.5-11t-32.5 5q-2 1-4.5 3t-4.5 3q-7 5-13 10.5t-13 10.5q-8 8-17 15t-16 16q-13 17-23 39.5t-11 44.5q-1 16 3 33t2 33q-2 22-13.5 41.5t-9.5 42.5q0 16 6.5 31.5t11.5 31.5 6.5 32.5-0.5 33.5q-2 11-5 22t-8 22q-4 10-9 20t-6 21q-2 13 0 27t0 27q-2 8-4.5 16t-3.5 16q-2 11 0.5 21.5t6.5 20.5q4 8 9 16t10 16q9 16 18.5 30.5t20.5 28.5q3 3 8 5t9 4q1 0 2.5 1t2.5 1q2 0 4.5-3t4.5-4q1-1 3.5-2.5t2.5-2.5q1-2 0-5.5t-2-5.5q-1-9-5-16.5t-9-14.5q-6-8-12-17t-10-18q-4-10-6-21t-2-22q-1-17 0-34t1-34q0-18 0-35t2-34q3-17 8.5-33.5t7.5-32.5q1-11 0.5-21.5t-3.5-20.5q-2-11-5.5-21.5t-4.5-20.5q-3-23 5.5-47.5t12.5-46.5q3-18 3.5-35t1.5-35q1-4 1-8.5t1-8.5q0-3 1.5-6.5t3.5-6.5q0-2 1-4t2-4 3.5-3.5 4.5-3.5q9-7 20.5-11.5t23.5-8.5q5-2 12-4.5t13-3.5q18-1 33.5 6t31.5 12q22 6 45 5 18-2 34.5-7t31.5-13q10-4 20-10t21-8q4 0 10.5 0t10.5 1q3 1 5.5 3t4.5 3q6 4 13 9.5t14 8.5q8 4 21 6 6 1 13.5 0.5t14.5-0.5q16 0 32 0.5t31 5.5q23 10 44.5 36.5t34.5 49.5q5 9 9.5 18.5t7.5 18.5q1 5 2.5 11t1.5 11q-1 16-9.5 31t-13.5 30q-4 12-6.5 25t-5.5 25q-2 10-4 20t-2 19q0 23 10 43.5t17 42.5q8 22 8 54t-8 55q-5 14-11.5 27t-12.5 26q-7 12-15 23.5t-19 18.5q-13 9-29 13.5t-30 9.5q-5 1-8 5t-6 7q-1 0-2.5 1t-1.5 2 2 3.5 2 3.5q2 3 3.5 6.5t3.5 5.5q2 1 5.5 1.5t5.5 1.5q18 5 39.5 5t38.5-9q13-7 22-19.5t17-24.5q13-19 23.5-39.5t20.5-41.5q5-11 11-21t11-20q2-4 4-10t3-11q1-9-2.5-18.5t-7.5-17.5q-9-19-22-35.5t-24-33.5q-5-9-9.5-18t-5.5-19q-1-2-1.5-5t-0.5-5 0.5-4 1.5-4q1-3 1.5-6.5t2.5-6.5q5-9 13-16.5t14-16.5q5-8 8.5-17t7.5-18q5-16 9.5-32t5.5-35zm-493 498q12 2 24 3.5t24 0.5q3-1 7-1t7-1 6-4.5 6-6.5q1-1 2.5-1.5t1.5-1.5-1.5-4-1.5-4q-1-1-2-4.5t-2-4.5-2.5-1.5-3.5-1.5q-3-1-6.5-3t-6.5-3q-12-3-26-3.5t-25 1.5q-3 1-7 1.5t-7 1.5-5.5 4-5.5 6q-1 1-2.5 1.5t-1.5 1.5q-1 2 0.5 3t1.5 3q2 2 3.5 6.5t3.5 6.5 8 3 11 2zm165-165q8-5 16-11.5t13-15.5q1-2 1.5-6t1.5-7q0-1 0.5-3.5t0.5-3.5q0-3-1-6t-1-6q-6-22-23-37t-38-24q-6-2-14-4t-14-2q-3 0-6.5 2t-6.5 3q-1 0-3.5 0.5t-3.5 1.5q-2 1-3 3t-3 4q-8 11-13 21-5 11-8 21.5t-5 22.5q0 2-0.5 5t-0.5 6 1.5 6 2.5 5q1 3 1.5 6t1.5 5q2 2 4 4t4 4q1 1 3 3.5t4 3.5q2 2 5 2.5t5 1.5q28 11 59 2 4-1 9-2.5t11-4.5zm63-281q7-22 8-46.5t-15-43.5q-2-2-3.5-4.5t-3.5-3.5q-2-2-4.5-2.5t-5.5-1.5q-2-1-4.5-2.5t-4.5-2.5q-3 0-6 0t-6 0q-11 0-21.5 1.5t-21.5 3.5q-11 1-21.5 2t-21.5 5q-2 0-5 1t-5 2-4 3.5-4 4.5-4 3.5-3 2.5q-1 2-1.5 4t-0.5 4q-1 3-2.5 6.5t-2.5 6.5q0 4 0 8t0 8q0 14 4 29.5t12 26.5q1 3 3 6.5t4 5.5q2 1 4 2t4 2q3 1 6 3t6 3q8 3 17.5 2.5t17.5-0.5q10 0 20-0.5t20-1.5q3-1 5.5-1t5.5-1q24-9 34-35zm-98-37q3-3 5-5.5t4-5.5q1-1 1.5-2t1.5-2q3-1 7.5-1t7.5 0q2 0 3.5-0.5t2.5-0.5q2 1 4.5 5t3.5 6q1 1 3 3t2 4q1 2-0.5 5t-2.5 5q0 2-0.5 5.5t-1.5 5.5q-2 2-6 3.5t-7 3.5q-1 0-2 1t-3 1q-1 1-2 0t-3-2-6.5-2.5-6.5-3.5q-1-1-1-2.5t0-2.5q-2-4-3-8t-1-10z"/><path transform="translate(55.202 13.09) scale(.014 -.014)" d="m641 198q0-23-2.5-51.5t-1.5-51.5q2-17 7-35t4-36q-1-14-4-26t-11-23q-2-2-3.5-4.5t-3.5-3.5-4-2-4-1q-3-1-7-3t-7-2q-3-1-6.5 1t-6.5 2q-12 4-23 11.5t-23 11.5q-14 4-29 4.5t-30 0.5q-16 0-32-0.5t-32-1.5q-15 0-30.5-1t-30.5-1q-15-1-42.5-2t-54.5-3-42-6q-14-3-27-8t-26-9q-11-3-24-2-2 0-4.5 0t-3.5 0q-2 1-4 2.5t-3 3.5q-3 2-6.5 4t-5.5 4q-3 2-4.5 5.5t-3.5 6.5q-7 11-11.5 23.5t-9.5 25.5q-7 18-18 39-5 11-12.5 20.5t-14.5 19.5q-12 18-23 38t-16 41q-5 22-1 44 4 16 10 31.5t7 32.5q1 11 0.5 22.5t0.5 22.5q0 17 3 33t4 32q3 22 6 43.5t13 41.5q4 9 11 19t16 15q8 5 17 6.5t18 1.5q22 2 47-2t48-6q12 0 24.5 0.5t23.5-2.5q3-1 5.5-2.5t4.5-2.5q3-1 5.5-2t4.5-3q4-2 7.5-7.5t5.5-9.5q11-19 11-41.5t3-43.5q4-21 15.5-40.5t11.5-41.5q1-8-0.5-16.5t-2.5-15.5q-2-11-4-22t-4-22-2-24q0-2-0.5-4.5t0.5-3.5q0-4 2-7.5t4-6.5q0-1 0.5-2.5t1.5-2.5q2-2 6.5-3t7.5-2q1-1 2.5-1.5t2.5-0.5q2 0 3 1t2 2q3 2 7 4t6 4q1 2 2 6t3 7q6 17 5.5 35t-3.5 36q-2 14-3.5 27.5t-3.5 27.5q-2 15-3.5 29t-0.5 29q1 11 3.5 22t4.5 21q2 11 3.5 23t5.5 22q2 3 4 5.5t4 5.5q1 1 2.5 3.5t2.5 3.5q2 1 5.5 1t6.5 1q1 0 2.5 0.5t3.5 0.5q1-1 1-2.5t0-2.5q2-4 4-9t1-9q-3-19-3.5-38t-2.5-38q-2-18-0.5-36t2.5-36q1-12 1-23.5t1-22.5q1-20 3.5-39.5t3.5-39.5q1-12 1.5-24t-3.5-23q0-3-1-5.5t-2-4.5q-5-9-14-15.5t-19-9.5q-13-5-28-4-9 1-19 2.5t-18 6.5q-2 2-4 4t-4 4q-17 15-24 36.5t-7 43.5q0 7 0 14.5t0 14.5q0 11-0.5 22t-0.5 22q0 17 1.5 33.5t-1.5 33.5q-3 16-11 31t-14 30q-2 8-4.5 16t-5.5 15q0 3-1 6t-2 5q-2 2-5.5 4t-5.5 4q-1 1-3 2.5t-3 2.5q-2 0-4.5 0t-3.5 0q-14 1-25 0-14-1-28.5-1.5t-28.5-3.5q-5-1-11-3t-10-4q-2-2-4-4t-4-4q-12-11-18-27t-10-32q-3-13-5-27t1-27q2-12 7-23t7-23q1-10 0.5-19t-2.5-19q-4-16-11.5-31.5t-8.5-32.5q-2-22 9-41.5t20-39.5q8-17 15.5-34.5t20.5-31.5q2-3 4-6t5-5q3-3 9-6.5t10-4.5q2-1 5-0.5t6 0.5q8 0 15.5 1.5t16.5 3.5q13 2 26.5 3t27.5 1q23 0 51.5-5t51.5-8q15-2 37-3.5t44-2 37-0.5q13 1 27 2.5t28 2.5q26 2 50-1 8-2 19 0 2 0 5 0t4 1 2 3.5 2 3.5q1 3 3 6t2 6q0 2-0.5 5.5t-1.5 5.5q-3 17-12.5 31t-13.5 30q0 3-1 5.5t-1 5.5q0 2 0.5 5t1.5 5q1 8 3 16t3 16q2 20 1.5 39.5t4.5 38.5q3 11 7.5 21t7.5 21q2 3 3 6t2 6q1 5 0.5 11t-1.5 11-3.5 10-2.5 10q-1 4-1 8.5t0 9.5q0 7 3 13t4 13q1 5 2 11t1 11q0 4-1 8t-2 8q-2 10-4.5 20t-5.5 20q0 2-0.5 4t-1.5 4q-1 1-3 2.5t-3 2.5q-2 2-5 5t-5 4-5.5 1.5-5.5 0.5q-11 2-21 2.5t-21 1.5q-2 1-7 1t-6 2q-2 1-2.5 4.5t-1.5 4.5q0 1-1.5 4t-1.5 4q1 1 5 2.5t5 2.5q2 1 4.5 2.5t4.5 2.5q5 1 10 1t10 0q13 2 27 3.5t28-1.5q3 0 6.5-0.5t6.5-1.5q20-8 30-28 7-14 8.5-31t3.5-32q2-11 4-22t3-23q4-43-5-86-4-16-10-31t-10-31q-2-11-2-22t0-24z"/><path transform="translate(64.638 13.09) scale(.014 -.014)" d="m42 409q-6 9-11 18t-5 19q-1 9 1.5 17.5t6.5 16.5q10 21 30.5 35.5t43.5 18.5q16 3 33 2.5t33 1.5q22 2 43.5 7t43.5 2q12-2 22.5-7.5t21.5-11.5q3-1 7-3.5t8-3.5q1 0 3.5 0t4.5 1q4 0 7.5-0.5t6.5 0.5q6 1 11 2.5t10 3.5q41 8 82 4 21-2 37-14t33-23q11-7 19-16 1-2 3.5-4t2.5-3-1-4-1-5q0-1-0.5-5t-1.5-6q-1-1-5-2t-6-1q-2-1-4.5-2t-5.5-1q-4-1-10.5 0.5t-10.5 2.5q-10 4-18.5 10.5t-17.5 12.5q-13 9-28.5 13.5t-32.5 2.5q-13-3-24-9.5t-22-13.5q-2-2-5-4t-6-3-6-1.5-5-1.5q-3 0-6-1t-5-1q-3 0-6 0.5t-5 1.5q-14 3-25.5 10t-24.5 12q-14 5-28 8t-28 6q-43 8-88-8-8-2-17-6t-15-10q-8-7-12-16-2-6-2.5-12.5t-1.5-11.5q-1-4-2-7t-1-7q-1-1-1-2.5t-1-2.5q0-1-1.5-1t-3.5 0q-3 0-6-0.5t-7 2.5zm470-58q-6-8-12-16t-15-13q-20-12-43.5-13t-45.5-4q-30-4-54-20-6-4-11.5-9.5t-9.5-11.5q-9-14-9-31t-2-33q-1-14-2.5-29t-3.5-30q0-7-1-15t-1-15q0-5 1-9.5t1-9.5q1-6 3.5-11.5t4.5-11.5q2-11 3.5-21.5t-1.5-20.5q-3-18-15-35t-27-28q-6-4-14-7.5t-16-3.5q-2 0-4 1t-4 1q-3 1-6.5 1.5t-6.5 1.5q-9 5-17 13.5t-18 13.5q-11 5-26 7-12 1-25 2t-25 2q-8 1-16.5 2.5t-15.5 5.5q-10 4-18 12t-14 17q-5 7-8.5 15t-6.5 16q-7 18-12 38t-4 40q1 17 6 32.5t9 30.5q2 10 3 19.5t1 19.5 0 19.5 3 19.5q0 2 0.5 5t1.5 5 3 3.5 3 2.5q1 2 3.5 5t4.5 4q1 0 4-0.5t4-0.5q2 0 6 0t5-1q2-1 3.5-4.5t2.5-5.5q1-1 3-3t2-4q1-3 0.5-7t0.5-7q0-10-1-20.5t-3-20.5q-2-19-9-37t-10-37q-4-17-1.5-35t8.5-35q2-3 3-7.5t3-7.5 4.5-5.5 4.5-5.5q1-1 2-3t3-3q2-2 5-3t5-2 5-2.5 5-1.5q3-1 7-1t7 0q14 0 27.5 1t27.5 0q12-1 24.5-5t24.5-6q3-1 8-2.5t9-0.5q1 0 3 1.5t4 2.5 5 2.5 4 3.5q2 2 2.5 6t0.5 7q3 10 1.5 21.5t-2.5 22.5q-2 18-5.5 36t-4.5 36q-1 15 1 29.5t0 29.5q0 10-2 20t-1 21q1 2 1 5t1 5q1 3 3 6t4 6q1 2 2 4t2 3q2 2 5 3.5t5 2.5q8 6 16.5 9.5t17.5 7.5q23 10 49.5 19.5t49.5 11.5q11 1 22 0t22 1q4 0 8 1.5t8 3.5q7 2 13 8.5t10 12.5q2 4 4.5 9t6.5 6q2 1 4.5 2t5.5 2q1 1 2 2t3 0q1 0 2-4t1-6q1-2 2.5-4.5t1.5-4.5-0.5-4.5-0.5-4.5q-1-6-3-12t-5-14zm-469 2q-1-2-1.5-3t-1.5-3-1-2q0 2 2 5t2 3z"/><path transform="translate(71.89 13.09) scale(.014 -.014)" d="m654 19q-4-7-7.5-13t-7.5-12q-9-10-20.5-17t-24.5-5q-3 0-5.5 1.5t-4.5 2.5q-8 3-15.5 7t-14.5 6q-21 7-45 4-11-1-21-5t-20-9q-4-3-8.5-6.5t-9.5-4.5q-3-2-9.5-3t-10.5 0q-2 0-5 1.5t-5 2.5q-13 5-23.5 14.5t-17.5 21.5q-13 19-16 41-2 17-1 34t-2 33q-3 23-8.5 44t-1.5 43q3 13 8 25.5t6 25.5q0 3 0.5 7t-0.5 7q0 1-2 3t-3 4-3 5-4 4q-1 1-4 1t-4 0q-2 0-5.5 0.5t-5.5-0.5q-3-1-6-4t-5-5q-4-4-6-8t-4-8q-5-12-6.5-26.5t-0.5-27.5q0-16 1.5-32t0.5-31q0-11-0.5-22t0.5-22q0-14 2.5-27t-0.5-27q0-2-0.5-5t-1.5-6q-1-2-3-4t-4-4q-8-9-18.5-15.5t-20.5-12.5q-15-10-28-22t-29-18q-10-4-21.5-4.5t-22.5 0.5q-36 4-65 21-13 7-24.5 16t-22.5 18q-9 7-16.5 15.5t-12.5 18.5q-1 2-2.5 4.5t-2.5 5.5q0 2 0 5t0 5q0 19 9 36t10 36q1 17-2.5 35t-3.5 35q-1 15-1 30.5t0 31.5q1 15 2 30.5t1 30.5q-1 12-2.5 24.5t-0.5 24.5q0 11 2.5 21.5t2.5 21.5q-1 5-2 9.5t-2 9.5-3.5 9-4.5 9q-2 4-3.5 8.5t-3.5 9.5q0 1-1 3.5t-1 4.5q0 3 1 7t2 7q1 1 1 3.5t1 4.5q2 3 5 5.5t5 4.5q26 28 65 29 12 1 23.5-1t22.5-4q17-3 33.5-4.5t33.5-0.5q23 0 45.5 5t44.5 8 46.5 4 46.5-4q10-1 19-3.5t19-3.5 19.5-1 19.5 0q6 0 11-2.5t10-5.5q1 0 2.5-0.5t2.5-1.5 0-4-2-4q0-2-0.5-5.5t-1.5-5.5q-1-1-5-2.5t-6-1.5q-16-8-34-8.5t-35 0.5q-14 0-27 0.5t-27-1.5q-11-1-22-3t-22-3q-17-2-34-2t-34 1q-23 2-55 2.5t-54-0.5q-9 0-18-1t-18-3q-2-1-5-1t-6-2q-3-1-5.5-4.5t-5.5-6.5q-1-1-2-1.5t-2-2.5-0.5-5.5-0.5-5.5q0-9 0.5-17t1.5-17q1-11 0-22t-1-22q0-22 8-42t9-42q3-33-2-66-1-11-3.5-21.5t-3.5-21.5q-1-12 1-24.5t0-24.5q-1-4-1-8.5t-1-8.5q-2-10-5.5-20.5t-2.5-21.5q2-16 11.5-31t22.5-24q22-14 48-10.5t47 15.5q12 7 24 15t20 19q4 6 7 14.5t6 16.5q5 13 9.5 26.5t5.5 27.5q0 11-1.5 22t-1.5 22q0 12 1 23t1 23q0 13-2 26.5t-2 27.5q0 3 0 7t0 7q4 21 22.5 34.5t39.5 16.5q15 2 32-4 15-7 28-24t20-36.5 6-34.5q-1-17-5.5-33.5t-5.5-33.5q0-20 4-39.5t6-39.5q1-10 1-20.5t2-21.5q0-3 0-6.5t1-6.5q1-2 2.5-4t2.5-3q1-2 3-5t4-4q1-1 4-1t4 0q3-1 6-1.5t6-0.5q4 0 8.5 1.5t7.5 2.5q35 7 67 8 7 1 14 0t13-2q7-2 13.5-4t13.5-2q2 0 7-0.5t7 0.5q1 1 2.5 3.5t2.5 3.5q2 2 4.5 4.5t2.5 4.5q1 2 0.5 6.5t-0.5 6.5q0 18-8 34.5t-7 35.5q1 16 9.5 31t12.5 31q4 17 2 34t-2 34q1 11 3 22t2 22q-1 11-4 21.5t-7 19.5q-5 10-11 19.5t-12 19.5q-5 9-11 18.5t-14 17.5q-5 5-12 10t-14 10q-2 1-4.5 3t-3.5 3q-2 2-3 5t-3 5q-1 2-3 5t-2 5 1.5 4.5 1.5 3.5q1 2 2.5 6.5t3.5 6.5q1 1 2.5 1t2.5 1q4 1 8.5 2.5t8.5 2.5q2 0 4.5-0.5t4.5-0.5q3-1 6-1t6-1q2 0 4.5-2t4.5-3q2-2 4.5-3t4.5-3q7-7 12-18t11-20q2-4 5-8t5-8q10-15 20-29t16-31q8-22 8-44.5t1-44.5q0-17 1-34t-2-33q-4-23-13-45t-11-44q0-10 0-19.5t3-19.5q2-10 7.5-20t7.5-21q2-14-4-31z"/><path transform="translate(81.326 13.09) scale(.014 -.014)" d="m335 531q4 0 9 0.5t10 0.5q17 0 33.5-3t33.5-5q22-2 45-4.5t41-16.5q13-10 22-23.5t22-24.5q11-8 22.5-14.5t20.5-17.5q2-2 4-4t4-5q1-2 1.5-5t1.5-5q0-2 1.5-5t1.5-5q1-11-2.5-21.5t-5.5-21.5q-1-11 0.5-21t4.5-21q1-4 2-7.5t3-7.5q0-2 0.5-3t0.5-3q0-3-2.5-6.5t-3.5-6.5q0-1-0.5-3t-1.5-2q-1-1-5.5 0t-5.5 2q-2 0-4.5 0t-4.5 1-4 3.5-4 4.5q-12 12-20 26-5 9-9 19.5t-5 21.5q0 5 0.5 10.5t-0.5 11.5q0 3-0.5 6t-1.5 7q0 1-0.5 3.5t-1.5 4.5-3 4-4 4q-5 6-11 12t-11 12q-10 13-18 28t-21 25q-12 11-28.5 14.5t-32.5 2.5q-18-2-36-5.5t-36 1.5q-3 1-7.5 1.5t-8.5 2.5q-3 1-5.5 4t-5.5 5q-1 1-3.5 3t-2.5 3q-1 1 1.5 4t2.5 4q1 2 3 5t3 5q3 2 9.5 3t12.5 2zm-211-542q-5 2-10 3t-8 3q-8 5-13.5 12t-9.5 14q-8 12-15 24.5t-15 24.5q-8 13-15 27t-12 29q-5 16-6.5 33t-3.5 34q-2 15-6 31t-4 32q1 10 4 21t4 21q2 17 0 33t1 33q2 11 6.5 22t8.5 21q4 9 8 19t10 18q11 18 30 29 9 5 19 9t20 10q9 6 17 13t18 12q23 14 50 14 3 0 6.5 0.5t7.5-0.5q4 0 8-2t8-3q1-1 2.5-1t2.5-1q2-2 3.5-7t3.5-8q0-1 1-2.5t1-2.5-1.5-2-2.5-3q-2-2-4-5.5t-5-5.5q-2-2-6-3t-7-2q-13-4-26.5-5t-25.5-7q-11-5-18.5-13.5t-15.5-15.5q-9-7-19-12t-18-12q-14-11-21-27t-7-33q0-11 3-22t3-22q0-5-1-11.5t-2-11.5-4-10-4-10q-1-10 0-23 1-5 3-10.5t3-10.5q2-13 1-22-1-10-4-21t-3-22 4-22 8-21q6-15 14.5-30t21.5-27q9-9 21-15.5t20-16.5q2-2 5.5-5.5t3.5-6.5q1-1 0-4t-1-4q-1-3-1-6.5t-1-5.5q-1-1-3.5-2.5t-3.5-1.5q-2-2-5.5-4.5t-5.5-2.5q-3-1-7.5 0t-9.5 2zm189 384q3-1 8.5-2t8.5-3q1-1 1.5-2t1.5-2q2-3 5-6.5t4-7.5q1-3 1-7.5t0-8.5q0-1 0.5-2.5t-0.5-2.5q0-2-3.5-5t-4.5-5q-1-1-3-3.5t-3-2.5q-1-1-2.5-0.5t-3.5 0.5q-3 1-7 0.5t-7 0.5q-4 2-7.5 5t-6.5 6q-1 1-2.5 1.5t-2.5 1.5q-1 3-1.5 7.5t-0.5 6.5-1 4.5-1 4.5q1 2 3 5t3 5 2 5 3 5q2 1 6.5 1.5t9.5 0.5zm266-292q-6-9-12.5-16.5t-13.5-14.5q-8-7-16.5-13.5t-16.5-13.5q-7-8-14-16t-16-14q-14-9-30-11t-31-6q-16-3-31-10t-32-10q-11-1-22.5 0t-22.5 1q-10-1-21.5-3t-21.5-1q-14 1-26 7t-22 15q-8 7-14 19-1 1-2.5 3.5t-1.5 3.5 2.5 4 3.5 5q1 1 2 3.5t2 3.5q2 1 5.5 1t5.5 1q11 2 21.5 1.5t21.5 0.5q13 1 26.5 3.5t26.5 1.5q11 0 21.5-3t21.5-2q16 2 31 9t30 10q11 3 22 4t21 4q17 6 32 19t28 26q6 5 12 12.5t8 16.5q2 10-0.5 21t-2.5 22q0 15 9 30 1 2 2.5 4.5t3.5 4.5q2 3 5.5 4.5t6.5 3.5q1 1 2.5 2.5t2.5 0.5q1 0 2.5-3t1.5-3q1-2 3-4.5t3-4.5q1-4 0.5-9.5t-1.5-9.5q0-17 2.5-34.5t-1.5-33.5q-2-8-6.5-16t-9.5-16zm-74 44q-4-1-8.5-3t-8.5-3q-8-1-16.5-0.5t-16.5 2.5q-2 0-5.5 0.5t-5.5 1.5-3.5 2.5-2.5 3.5q-3 2-6 4t-5 5q-1 2-1.5 4.5t-0.5 4.5q-1 2-2 5t-1 6q-1 8 2 16t7 15q1 2 2.5 4t2.5 4q2 2 5.5 3.5t6.5 2.5q12 7 28.5 7.5t28.5-5.5q3-1 6.5-2t6.5-3q1-2 2.5-4.5t2.5-4.5q2-2 4-4.5t2-4.5q1-2 1-5t0-6q0-7-1.5-15.5t-5.5-14.5q-3-4-8-8t-10-8zm-110 69q2-5 5-10t4-9q0-3-1-7t-2-7q0-2 0-4.5t-1-3.5q-1-2-3-3.5t-3-2.5q-2-2-5-4.5t-5-4.5q-3-1-7-1.5t-8-1.5q-6-2-12-2.5t-13-0.5q-10-1-19.5-1.5t-19.5 2.5q-2 1-5 1.5t-5 1.5q-3 2-5 5.5t-4 5.5q-1 1-2.5 2.5t-2.5 3.5q-1 3-1.5 8t-0.5 8q0 1-0.5 2.5t-0.5 3.5q1 2 3 5.5t4 5.5q0 2 1 4t2 3q2 2 6 3.5t6 2.5q6 3 11.5 4.5t11.5 2.5q18 3 38 2 3 0 6 0t5 0q3-1 5.5-2.5t4.5-2.5q3-2 6.5-3.5t6.5-5.5z"/><path transform="translate(90.048 13.09) scale(.014 -.014)" d="m536-21q-16 2-32 5.5t-33 4.5q-16 2-32.5 0.5t-32.5-1.5q-23-1-57.5 0.5t-57.5-1.5q-11-1-21.5-3t-20.5-7q-7-4-14-8.5t-14-8.5q-2-1-4.5-2.5t-5.5-2.5-6.5-0.5-7.5 0.5q-1 0-3.5 0t-4.5 0q-2 1-4.5 2.5t-5.5 2.5q-8 4-15 9t-15 9q-13 8-27 16t-25 18q-12 11-22 26t-20 29q-27 41-45 84-5 13-10 27t-7 28q-2 16-0.5 33t2.5 33q2 18 3 35.5t5 33.5q6 15 15.5 37t22 44 25.5 37q9 13 18.5 27.5t21.5 25.5q11 10 24.5 15t27.5 7q15 3 36.5 2t43.5-3 37-2q23 0 43 4 2 1 5 1.5t6 1.5 6.5 4 6.5 5q1 1 2 1.5t2 1.5q1 2 1 3.5t0 2.5q1 3 2 7t1 8q0 2-1 5t-2 5q-3 7-5.5 15.5t-3.5 15.5q-1 15 4.5 28.5t12.5 24.5q3 5 6.5 9t8.5 7q1 1 3 3t3 3q2 0 6-1.5t6-2.5q2 0 2 0 1-2 1-6t0-6q1-8 0.5-16.5t2.5-16.5q4-14 11-28.5t9-30.5q4-20-5-42t-25-35q-17-12-37-13.5t-39-2.5q-19-2-38-6t-39-5q-17-1-34.5 1t-34.5-1q-4 0-10.5-1.5t-10.5-3.5q-13-7-23.5-19.5t-19.5-23.5q-11-11-21-32.5t-17.5-46-12-46-5.5-32.5q-1-14-0.5-29t4.5-29q6-17 15-32t16-31q11-23 20.5-51t29.5-46q6-5 13-9t14-7q12-6 25.5-11t26.5-5q12-1 24.5 1.5t24.5 5.5q20 4 40 8t40 6q22 2 44-1t45-3q11-1 21.5-0.5t21.5 1.5q21 1 42 1t41-3q7-1 16-3t16-6q3-2 5.5-5.5t5.5-5.5q1-1 2-2t2-2q0-2-1-5.5t-1-6.5q-1-1-1-4t-1-4q-1-2-5-3.5t-6-2.5q-10-5-21.5-6t-24.5-1zm66 671q-2-2-4-4t-4-4-2-2q-1 1-1.5 2.5t-0.5 2.5q-4 7-6 11-1 2-1 2 0 1 3 2.5t3 1.5q1 1 3.5 3t2.5 2q2-1 2.5-2.5t0.5-2.5q2-3 3-5.5t1-6.5zm10-94q-2-2-7-7-2-2-2-2-1 0-3.5 2.5t-3.5 3.5-4.5 3-4.5 4q0 2 0 5.5t0 6.5q0 1-0.5 4t0.5 4 4 1.5 4 0.5 4 1 4 1q1-1 2.5-3.5t2.5-3.5q1-2 3.5-4.5t2.5-4.5q2-4-2-12zm-347-257q1 10 1.5 20.5t2.5 20.5q4 17 14 29 2 2 3.5 4.5t3.5 3.5q3 2 6.5 3.5t6.5 2.5q2 0 3 1t3 1q1 0 2.5-0.5t3.5-1.5q3 0 7-1t7-2q1-1 3-2.5t3-2.5q10-9 20-22 16-20 30-49.5t11-51.5q-2-20-13-40.5t-27-32.5q-16-13-39-14.5t-39 13.5q-2 1-3.5 3.5t-2.5 4.5q-2 2-4 4.5t-3 4.5q-7 15-5.5 32t2.5 32q2 18 3 40zm356 58q-2 2-7 5zm-45-40q2 3 4 5.5t4 5.5q1 1 1.5 2.5t2.5 1.5q1 1 4.5 0.5t5.5-0.5 5.5 0.5 5.5-0.5 4-4 3-4q2-2 4-4t3-5q2-2 3-6t2-7q0-1 1-3.5t1-3.5q1-2 0-4.5t-1-4.5-0.5-6-1.5-5q-1-2-5-3.5t-6-2.5q-1 0-3.5-1.5t-4.5-1.5q-2-1-5 1t-5 3-5 1.5-5 2.5q-1 1-2.5 3.5t-2.5 3.5q-1 3-3 5.5t-3 4.5q-2 5-2.5 12.5t1.5 13.5zm-220-33q-2 4-3.5 9.5t-4.5 8.5-7 5-7 4q-1 1-2 2t-2 1q-3 1-7-1t-6-2q-1-1-4-1.5t-4-0.5q-1-2-2.5-5.5t-1.5-5.5q-5-10-4.5-20t2.5-20q1-2 1-5t1-6q2-3 5-6.5t5-6.5q1-1 1.5-2t1.5-2q2-1 5-1t4 0q2 0 6-1t6 0q1 0 2 1.5t2 2.5q3 2 7.5 4.5t5.5 5.5q1 2 1.5 4.5t0.5 3.5q1 3 2 6.5t1 6.5q0 4-1.5 9.5t-3.5 11.5zm262-83q0-3-1-5.5t-2-4.5q0-2 0-3.5t-1-2.5q-1 0-4.5 0.5t-4.5 0.5q-2 0-5.5-0.5t-5.5 0.5q-1 0-2 1.5t-1 2.5q-2 3-6 6.5t-5 6.5 0 8 2 8q0 1-0.5 2.5t0.5 2.5q0 0 3 1 3 0 7.5 2t7.5 1q1 0 3-2t3-3q2-2 4.5-4t4.5-4q3-3 3-14zm-1-101q1 0 2 2 1 3 1 3 0-2-1-3t-2-2q0-1 0 0z"/></svg>