<svg width="46.464" height="18.48" viewBox="0 0 46.464 18.48" xmlns="http://www.w3.org/2000/svg"><path transform="translate(0 14.624) scale(.016 -.016)" d="m113 682q89 12 183.5 12t150.5-47 56-132q0-145-147-185l100-197q24-49 44.5-68.5t49.5-19.5l3-48q-4-4-39.5-4t-63.5 25.5-55 79.5l-112 220q-15-3-35-3h-62v-315h-76zm73-304h64q173 0 173 133 0 117-138 117-56 0-99-6z"/><path transform="translate(9.136 14.624) scale(.016 -.016)" d="m90 401q0 48-12 71l57 10q17-4 21.5-20t4.5-33q0-12-4-137.5t-4-139.5 1.5-31.5 9.5-36.5q14-39 68-39 40 0 68.5 28.5t41.5 75.5q25 85 25 186v135h67v-273q0-89 13-122.5t58-33.5l2-45q-16-4-40-4-50 0-69.5 29.5t-19.5 68.5q0 11 1 23h-6q-16-61-58.5-93t-111-32-95.5 42-27 115q0 9 4.5 129t4.5 127z"/><path transform="translate(17.664 14.624) scale(.016 -.016)" d="m92 86v647l72 12v-618q0-53 8-68.5t46-15.5l2-44q-16-7-54-7t-56 22-18 72z"/><path transform="translate(21.888 14.624) scale(.016 -.016)" d="m90 401q0 48-12 71l57 10q17-4 21.5-20t4.5-33q0-12-4-137.5t-4-139.5 1.5-31.5 9.5-36.5q14-39 68-39 40 0 68.5 28.5t41.5 75.5q25 85 25 186v135h67v-273q0-89 13-122.5t58-33.5l2-45q-16-4-40-4-50 0-69.5 29.5t-19.5 68.5q0 11 1 23h-6q-16-61-58.5-93t-111-32-95.5 42-27 115q0 9 4.5 129t4.5 127z"/><path transform="translate(30.416 14.624) scale(.016 -.016)" d="m90 0v733l68 12 1-275q0-53-8-99h6q17 51 58 81t96 30 90.5-30 35.5-84.5-43-91-107-50.5l58-101q27-46 49-64.5t52-18.5l2-45q-6-5-30-5-48 0-77 24.5t-56 76.5l-78 149v18q63 0 109 28t46 80q0 28-18.5 43t-47.5 15q-47 0-80-35-58-63-58-185v-206z"/><path transform="translate(38.144 14.624) scale(.016 -.016)" d="m252 41q50 0 82 31t43.5 75 11.5 101q0 179-127 179-47 0-78-30-56-53-56-169 0-187 124-187zm212 206q0-110-55.5-184.5t-160-74.5-148.5 60.5-44 177.5 51 186.5 154 69.5 153-62.5 50-172.5z"/></svg>