<svg width="49.952" height="22.512" viewBox="0 0 49.952 22.512" xmlns="http://www.w3.org/2000/svg"><path transform="translate(0 12.138) scale(.014 -.014)" d="m298 660q70 0 116-25.5t69-65.5 23-85q0-52-24-97t-72-72.5-122-27.5q-26 0-47.5 2.5t-55.5 9.5v51q29-8 53.5-12.5t50.5-4.5q21 0 45 3 35 16 55 52t20 89q0 34-15.5 64.5t-44.5 50.5-70 20q-20 0-41.5-3t-33.5-8q0-72-0.5-131t-1-113-0.5-111q0-49 0.5-93t1.5-102l88-21-11-30q-58 3-126 3-35 0-65.5-1t-56.5-2l-10 30 88 21q3 88 4.5 177.5t1.5 171.5q0 46-1 102t-5 106l-88 21 10 31q31-1 65-2.5t57-1.5q31 0 53 1t42.5 2 47.5 1zm54-349q11-20 32.5-51t48.5-67.5 55.5-73.5 53.5-68l93-21-16-30q-18 2-41.5 2t-49.5 0q-25 0-42.5 0t-37.5-2q-21 38-47.5 81t-54 84-49.5 74-34 51q12 13 31 17t36 4 22 0z"/><path transform="translate(8.918 12.138) scale(.014 -.014)" d="m217-9q-55 0-88.5 44t-36.5 116q-2 35-3 91.5t1 132.5l-71 11-10 31q35 1 81.5 5.5t89.5 11.5q-4-57-6-120.5t3-149.5q2-46 24-74.5t60-28.5q12 3 30.5 16t37.5 34.5 32 52 13 67.5l26-43q-6-49-32.5-94t-65.5-74-85-29zm155 9q0 34-0.5 53.5t0 39 3.5 52.5l-6 229-72 12-9 31q24 1 54.5 3.5t61.5 6.5 54 7q-2-56-3.5-113.5t-1.5-113.5q0-34 3-70t7-89l74-21-12-27q-17 1-29.5 1.5t-27 0.5-38.5 0q-14 0-29-1t-29-1z"/><path transform="translate(16.59 12.138) scale(.014 -.014)" d="m223 419 12-26-65-21q16-55 30.5-97t31-83.5 40.5-97.5q2-10-3.5-27t-15.5-34.5-20.5-29.5-19.5-12q-19 59-36 106t-33 89.5-34 87-40 98.5l-70 21 10 26q50-3 107-3 27 0 52.5 1t53.5 2zm143 6h47v-61q-39-98-76.5-191t-69.5-182h-54q25 60 51 132.5t52 150 50 151.5zm47 0q26-69 48.5-126t45-109 47.5-106q3-13-6.5-35.5t-23.5-40-25-17.5q-40 101-74 180t-69 158zm329-6 11-26-73-21q-26-68-46.5-130.5t-39.5-123.5-41-127h-54q35 86 62.5 183t55.5 198l-74 21 10 26q32-1 55-2t50-1q26 0 44 1t40 2z"/><path transform="translate(27.132 12.138) scale(.014 -.014)" d="m217-9q-55 0-88.5 44t-36.5 116q-2 35-3 91.5t1 132.5l-71 11-10 31q35 1 81.5 5.5t89.5 11.5q-4-57-6-120.5t3-149.5q2-46 24-74.5t60-28.5q12 3 30.5 16t37.5 34.5 32 52 13 67.5l26-43q-6-49-32.5-94t-65.5-74-85-29zm155 9q0 34-0.5 53.5t0 39 3.5 52.5l-6 229-72 12-9 31q24 1 54.5 3.5t61.5 6.5 54 7q-2-56-3.5-113.5t-1.5-113.5q0-34 3-70t7-89l74-21-12-27q-17 1-29.5 1.5t-27 0.5-38.5 0q-14 0-29-1t-29-1z"/><path transform="translate(34.804 12.138) scale(.014 -.014)" d="m441 745q-1-75-2-152t-1-164q0-77 0.5-149.5t2-132 3.5-99.5l79-21-11-27q-27 2-48 2t-41 0q-14 0-27.5-1t-27.5-2q-3 23-7 45t-6 44q2 51 2 100.5t0 99.5q0 18-0.5 37.5t-0.5 40.5q0 46 0 92t-0.5 100.5-3.5 124.5l-72 13-11 30q35 2 81 5.5t91 13.5zm-214-310q52 0 97.5-30.5t64.5-93.5l-32-35q-3 28-26 54t-57 42.5-71 13.5q-36-19-53-64t-17-95q0-44 13-85t39-67 64-26q55 0 93.5 49t55.5 130l21-47q-22-84-72-136t-124-52q-47 0-90 23.5t-70.5 73-27.5 126.5q0 72 28.5 121t72.5 73.5 91 24.5z"/><path transform="translate(42.28 12.138) scale(.014 -.014)" d="m217-9q-55 0-88.5 44t-36.5 116q-2 35-3 91.5t1 132.5l-71 11-10 31q35 1 81.5 5.5t89.5 11.5q-4-57-6-120.5t3-149.5q2-46 24-74.5t60-28.5q12 3 30.5 16t37.5 34.5 32 52 13 67.5l26-43q-6-49-32.5-94t-65.5-74-85-29zm155 9q0 34-0.5 53.5t0 39 3.5 52.5l-6 229-72 12-9 31q24 1 54.5 3.5t61.5 6.5 54 7q-2-56-3.5-113.5t-1.5-113.5q0-34 3-70t7-89l74-21-12-27q-17 1-29.5 1.5t-27 0.5-38.5 0q-14 0-29-1t-29-1z"/></svg>