<svg width="31.117" height="20" viewBox="0 0 31.117 20" xmlns="http://www.w3.org/2000/svg"><path transform="translate(0 15.781) scale(.0078125 -.0078125)" d="m565 12q-51-32-116-32t-116 32q-51-32-94.5-32t-71.5 7.5-49 20.5q-43 26-43 65 0 20 11 35 22-17 56-17 89 0 123 76v489q0 46-19 68-30 37-103 73 68 31 88 55 34 39 34 88v422q-34 77-123 77-34 0-56-17-11 15-11 34.5t11.5 36.5 31.5 29q46 28 105.5 28t109.5-33q52 33 116 33t116-33q113 43 250.5 43t230.5-25 160-71q135-93 168-259 13-74 95-112-78-44-102-140-49-198-245-247 101-27 165-111 66-87 66-205v-100q0-144 93-186 28-13 61-13t55 17q11-15 11-34.5t-10-36.5-27-29q-36-28-84-28t-94 26q-84-46-157-9-28-17-59-17t-59.5 14-50.5 46q-47 69-47 212v74q0 231-132 300-44 23-103 23h-117v-487q27-71 103-71 34 0 56 17 11-15 11-44t-31.5-56.5-94.5-27.5-112 32zm260 1415q-192 0-192-149v-409q0-52 41-70 39-17 115.5-17t107 8.5 52.5 29.5q45 43 45 144v292q0 125-104 160-31 11-65 11zm236-64q31-70 31-224 0-265-25-317 55 11 79 147l8 41q11 65 64 83-39 13-50 31-12 21-21.5 71.5t-19.5 81.5-21 49q-19 32-45 37zm-700-1098q50 19 55 131 6 112 6 310t-0.5 263.5-1.5 105.5q-3 118-22.5 142.5t-36.5 32.5q0-348-12-396-14-40-68-57 60-21 68-51 12-48 12-351zm690 274q40-45 40-110v-132q0-166 66-177 18-3 35 1-36 56-36 118v140q0 79-22 112-38 56-83 48z"/><path transform="translate(12.133 15.781) scale(.0078125 -.0078125)" d="m1263 1031q-22 14-70 14-96 0-145-130l-31-87q-34-95-34.5-130t12-56.5 56.5-44.5q-108-30-147-101-12-22-21-46l-166-451q-97-279-180-378-76-91-190-91-87 0-164 56-88 63-88 148 0 53 28 80.5t51.5 27.5 32.5-0.5 18-3.5q18-8 34-36-21-40 27-88 45-47 84.5-47t66 15 47.5 46q46 68 46 195 0 69-37 152-10 28-24 59l-142 320q-23 51-69.5 90.5t-104.5 52.5q69 35 69 92 0 41-33 121l-59 142q-26 58-43 73-30 24-69.5 24t-61.5-17q-12 12-12.5 35t5.5 38.5 20 27.5q30 27 86.5 27t106.5-36q41 36 100 36t104-33q45 33 101 33t88.5-26.5 33.5-52.5q1-39-13-53-24 18-50 18t-42.5-15-14.5-49l231-624 219 641q-11 51-73 51-39 0-74-19-10 19-9.5 49t28 55 75 25 81.5-32q36 32 81 32t82-28q34 28 75.5 28t66-24 23.5-50q-2-40-12-55zm-963-100q-23-15-22.5-38t2-35.5 5.5-29.5q9-32 36.5-94.5t29-78-10.5-34-29-24.5q64-12 79-45 7-14 20-44l68-152q20-46 42-91 41 50-36 230z"/><path transform="translate(21.586 15.781) scale(.0078125 -.0078125)" d="m965 302q22 42 81 42 40 0 62-33 18-26 18-63.5t-19-75.5-52-69-75.5-55-90.5-40q-99-33-206-33t-200.5 35.5-160.5 99.5q-131 126-160 346-7 49-23 70-30 37-99 71 87 39 111 125 7 24 11 48 25 176 178 300 148 120 331 120 190 0 329-134 144-138 144-339 0-7-0.5-14t0.5-13q2-13 16-15 18-23 18-49 0-60-64-71-16-3-50-8l-564-90v-96q0-116 70-184 66-65 167-65 107 0 172 44 61 42 61 110 0 16-5 36zm-175 323v280q0 66-26 97-46 53-91 53t-75-13.5-52-42.5q-46-61-46-190v-231zm148 25v31q0 186-31 225-14 17-31 25v-291zm-601-385q14 11 14 25 0 22-9 56-41 157-41 218.5t4 96 11 69.5q12 68 26 120 9 34 9 46 0 24-14 35-42-50-64-134t-36-148q-5-27-59-52 54-25 59-50 37-169 61-215t39-67z"/></svg>