<svg width="128.99" height="25.184" viewBox="0 0 128.99 25.184" xmlns="http://www.w3.org/2000/svg"><path transform="translate(0 18.16) scale(.016 -.016)" d="m423 541q-46 2-74 2-36 0-68-2v155h25q82 0 170-11 28-4 63-11v-144q-33 4-116 11zm-49-338q0 21-3 30.5t-10 13-24 5.5l-123 15q-109 12-147 71-17 25-23 61t-6 88q0 111 57 160 46 40 144 47v-201q0-13 1-22t4-14q3-6 10-8.5t21-3.5l138-17q43-6 70-15t46-28q45-47 45-167 0-127-56-178-25-23-60.5-33.5t-83.5-13.5zm-239-202q-51 5-77 10v146q59-5 135-10 48-2 68-2 54 0 71 3v-156h-11q-100 0-186 9z"/><path transform="translate(9.792 18.16) scale(.016 -.016)" d="m318 316q0 26-2 37t-12 16q-9 5-34 7-15 1-65 1-48 0-89-4l-53-3v130q94 18 203 18 84 0 131.5-12t71.5-38q21-24 27.5-61t6.5-103v-304h-185zm-283-168q0 48 7 77.5t24 46.5q17 18 47 25.5t79 7.5l84-2v-89h-10q-23 0-30-1-20-1-21-19-1-6-1-25 0-15 1.5-23t5.5-13q5-7 15-8 14-2 30-2h10v-102q-22-17-46.5-22.5t-59.5-5.5q-69 0-102 38.5t-33 116.5z"/><path transform="translate(18.72 18.16) scale(.016 -.016)" d="M57 743H242V599H57ZM57 510H242V0H57Z"/><path transform="translate(23.504 18.16) scale(.016 -.016)" d="m284 481q21 20 49.5 28.5t70.5 8.5v-167q-45 0-73.5-6t-46.5-21zm-227 29h185v-510h-185z"/><path transform="translate(30.304 18.16) scale(.016 -.016)" d="m318 316q0 26-2 37t-12 16q-9 5-34 7-15 1-65 1-48 0-89-4l-53-3v130q94 18 203 18 84 0 131.5-12t71.5-38q21-24 27.5-61t6.5-103v-304h-185zm-283-168q0 48 7 77.5t24 46.5q17 18 47 25.5t79 7.5l84-2v-89h-10q-23 0-30-1-20-1-21-19-1-6-1-25 0-15 1.5-23t5.5-13q5-7 15-8 14-2 30-2h10v-102q-22-17-46.5-22.5t-59.5-5.5q-69 0-102 38.5t-33 116.5z"/><path transform="translate(43.392 18.16) scale(.016 -.016)" d="m423 541q-46 2-74 2-36 0-68-2v155h25q82 0 170-11 28-4 63-11v-144q-33 4-116 11zm-49-338q0 21-3 30.5t-10 13-24 5.5l-123 15q-109 12-147 71-17 25-23 61t-6 88q0 111 57 160 46 40 144 47v-201q0-13 1-22t4-14q3-6 10-8.5t21-3.5l138-17q43-6 70-15t46-28q45-47 45-167 0-127-56-178-25-23-60.5-33.5t-83.5-13.5zm-239-202q-51 5-77 10v146q59-5 135-10 48-2 68-2 54 0 71 3v-156h-11q-100 0-186 9z"/><path transform="translate(53.184 18.16) scale(.016 -.016)" d="M18 510H112V658H297V510H409V369H18ZM112 329H297V0H112Z"/><path transform="translate(60.016 18.16) scale(.016 -.016)" d="m268 305h70q0 56-11 72-6 9-16 11.5t-29 2.5h-14v127h14q86 0 132.5-14t68.5-46q20-28 24.5-72t4.5-132v-40h-244zm-189-248q-23 30-30 74.5t-7 122.5q0 72 5 114.5t21 72.5q18 33 55.5 51.5t102.5 23.5v-302q0-34 3-48.5t14-21.5q12-8 37-9 32-2 68-2 64 0 93 3l51 4v-129q-40-12-110-16-34-3-80-3-92 0-144.5 15.5t-78.5 49.5z"/><path transform="translate(68.928 18.16) scale(.016 -.016)" d="m346 241q0 53-1 70-2 28-5 37-4 10-14 12.5t-32 2.5h-10v125q39 29 102 29 90 0 121-55 14-24 19-58.5t5-84.5v-319h-185zm-289 269h185v-510h-185z"/><path transform="translate(78.336 18.16) scale(.016 -.016)" d="m388 373q-25 4-72 4-31 0-44-4v145q71-1 147-18v-130zm-315-306q-20 32-25.5 75t-5.5 112q0 63 5 105t21 74q19 37 57.5 57.5t104.5 25.5v-261q0-44 2.5-66t10.5-34q9-12 25.5-17t47.5-5q53 0 73 3l34 4v-130q-74-18-158-18-78 0-124 19t-68 56z"/><path transform="translate(85.776 18.16) scale(.016 -.016)" d="M57 743H242V599H57ZM57 510H242V0H57Z"/><path transform="translate(90.56 18.16) scale(.016 -.016)" d="M57 743H242V0H57Z"/><path transform="translate(99.504 18.16) scale(.016 -.016)" d="m447 344q0 87-1 114-2 41-11 59.5t-29 22.5q-20 3-57 3-43 0-56-4v156q9 1 27 1h29q112 0 173.5-17.5t89.5-57.5q26-37 32.5-97t6.5-180q0-105-4.5-161.5t-22.5-93.5q-20-42-61.5-64t-115.5-29zm-308-320q-33 16-52 43t-28 67q-8 35-10 80.5t-2 129.5q0 105 4.5 161t22.5 94q20 41 61 63t116 30v-348q0-59 2-113 2-41 10.5-60t28.5-22q17-4 57-4 41 0 56 3v-155q-9-1-27-1h-29q-146 0-210 32z"/><path transform="translate(110.67 18.16) scale(.016 -.016)" d="m346 241q0 53-1 70-2 28-5 37-4 10-14 12.5t-32 2.5h-10v125q39 29 102 29 90 0 121-55 14-24 19-58.5t5-84.5v-319h-185zm-289 269h185v-510h-185z"/><path transform="translate(120.08 18.16) scale(.016 -.016)" d="m268 305h70q0 56-11 72-6 9-16 11.5t-29 2.5h-14v127h14q86 0 132.5-14t68.5-46q20-28 24.5-72t4.5-132v-40h-244zm-189-248q-23 30-30 74.5t-7 122.5q0 72 5 114.5t21 72.5q18 33 55.5 51.5t102.5 23.5v-302q0-34 3-48.5t14-21.5q12-8 37-9 32-2 68-2 64 0 93 3l51 4v-129q-40-12-110-16-34-3-80-3-92 0-144.5 15.5t-78.5 49.5z"/></svg>