<svg width="91.744" height="25.184" viewBox="0 0 91.744 25.184" xmlns="http://www.w3.org/2000/svg"><path transform="translate(0 18.16) scale(.016 -.016)" d="m474 20v170q0 34-2 55t-10.5 32.5-27.5 17-51 8.5l-171 19q-48 6-77 20.5t-43.5 37-19.5 54-5 70.5q0 47 10.5 79t30 52 45.5 31v-160q0-39 5.5-60.5t24-30 55.5-12.5l167-19q36-3 63.5-10t47.5-21.5 30-42.5q6-14 9-31t4.5-37.5 1.5-45.5q0-40-6-69.5t-17.5-50.5-27-34.5-36.5-21.5zm-145-28q-37 0-81 2t-85.5 5-75.5 7v73q36-3 75.5-6t77-5 63.5-2q45 0 75.5 3.5t53.5 13.5v-82q-22-5-48-7t-55-2zm-133 611v82q24 6 53.5 8.5t64.5 2.5q38 0 78-2t75.5-5.5 58.5-8.5v-71q-26 4-60 7t-69.5 4.5-67.5 1.5q-48 0-80.5-4.5t-52.5-14.5z"/><path transform="translate(10.048 18.16) scale(.016 -.016)" d="m401 0v321q0 45-5.5 70.5t-22.5 38-47.5 16-80.5 3.5q-22 0-52-1.5t-58.5-4-45.5-5.5v66q38 7 85.5 10.5t98.5 3.5q54 0 91.5-6.5t61-20.5 35.5-37 16.5-56 4.5-77v-321zm-178-8q-56 0-93.5 13t-56 45-18.5 90 13.5 91.5 47.5 47.5 95 14q11 0 34.5-0.5t53.5-1 59-1.5v-55h-127q-39 0-60-6t-28.5-25-7.5-57q0-37 9-56t34.5-25.5 74.5-6.5q32 0 59.5 4t45.5 18v-60q-29-19-65.5-24t-69.5-5z"/><path transform="translate(19.152 18.16) scale(.016 -.016)" d="M84 654V743H171V654ZM86 0V510H168V0Z"/><path transform="translate(23.216 18.16) scale(.016 -.016)" d="m86 0v510h82v-510zm124 398v83q25 21 59 29t75 8v-80q-48 0-80.5-9.5t-53.5-30.5z"/><path transform="translate(29.088 18.16) scale(.016 -.016)" d="m401 0v321q0 45-5.5 70.5t-22.5 38-47.5 16-80.5 3.5q-22 0-52-1.5t-58.5-4-45.5-5.5v66q38 7 85.5 10.5t98.5 3.5q54 0 91.5-6.5t61-20.5 35.5-37 16.5-56 4.5-77v-321zm-178-8q-56 0-93.5 13t-56 45-18.5 90 13.5 91.5 47.5 47.5 95 14q11 0 34.5-0.5t53.5-1 59-1.5v-55h-127q-39 0-60-6t-28.5-25-7.5-57q0-37 9-56t34.5-25.5 74.5-6.5q32 0 59.5 4t45.5 18v-60q-29-19-65.5-24t-69.5-5z"/><path transform="translate(41.952 18.16) scale(.016 -.016)" d="m474 20v170q0 34-2 55t-10.5 32.5-27.5 17-51 8.5l-171 19q-48 6-77 20.5t-43.5 37-19.5 54-5 70.5q0 47 10.5 79t30 52 45.5 31v-160q0-39 5.5-60.5t24-30 55.5-12.5l167-19q36-3 63.5-10t47.5-21.5 30-42.5q6-14 9-31t4.5-37.5 1.5-45.5q0-40-6-69.5t-17.5-50.5-27-34.5-36.5-21.5zm-145-28q-37 0-81 2t-85.5 5-75.5 7v73q36-3 75.5-6t77-5 63.5-2q45 0 75.5 3.5t53.5 13.5v-82q-22-5-48-7t-55-2zm-133 611v82q24 6 53.5 8.5t64.5 2.5q38 0 78-2t75.5-5.5 58.5-8.5v-71q-26 4-60 7t-69.5 4.5-67.5 1.5q-48 0-80.5-4.5t-52.5-14.5z"/><path transform="translate(52 18.16) scale(.016 -.016)" d="M26 441V510H129V658H210V510H332V441ZM129 0V402H210V0Z"/><path transform="translate(57.728 18.16) scale(.016 -.016)" d="m294-8q-62 0-103.5 8t-66.5 26.5-38 49-17 74.5-4 104q0 47 2.5 84.5t10.5 66.5 24.5 50 43.5 33v-260q0-52 5-85t20.5-51 49-25 91.5-7q24 0 53 1.5t58 4.5 52 6v-66q-21-4-51.5-7t-64-5-65.5-2zm-105 236v58h227v12q0 51-6 81t-20.5 45.5-39.5 20.5-62 5q-35 0-59-3.5t-40-10.5v71q20 6 45 8.5t56 2.5q59 0 96.5-9t59.5-28 32.5-50.5 13.5-75 3-100.5v-27z"/><path transform="translate(66.672 18.16) scale(.016 -.016)" d="m431 0v291q0 52-4.5 82.5t-17.5 46-38 20.5-66 5q-33 0-56.5-6t-38.5-16v65q21 15 52.5 22.5t75.5 7.5q57 0 91-12t52.5-36 24.5-61.5 6-89.5v-319zm-345 0v510h82v-510z"/><path transform="translate(76.256 18.16) scale(.016 -.016)" d="m272-8q-58 0-95.5 10t-60 30-33.5 51-14.5 74-3.5 98q0 37 1.5 68t6.5 57 14.5 46.5 23.5 35.5 35 25v-232q0-61 5-99.5t20.5-59 44-28 75.5-7.5q28 0 61 3t59 7v-66q-25-5-64-9t-75-4zm-83 439v77q16 6 36 8t44 2q35 0 73.5-3.5t63.5-9.5v-66q-23 4-56.5 7t-60.5 3q-35 0-59.5-4t-40.5-14z"/><path transform="translate(83.616 18.16) scale(.016 -.016)" d="M84 654V743H171V654ZM86 0V510H168V0Z"/><path transform="translate(87.68 18.16) scale(.016 -.016)" d="M86 0V743H168V0Z"/></svg>