<svg width="38.016" height="19.616" viewBox="0 0 38.016 19.616" xmlns="http://www.w3.org/2000/svg"><path transform="translate(0 15.584) scale(.016 -.016)" d="m376 494q4 20 4 41 0 97-95 97-43 0-73-18-28-33-28-79 0-30 26-51.5t64.5-33.5 83.5-30 83.5-38.5 64.5-61 26-95.5q0-105-80.5-171t-193.5-66q-91 0-154.5 45.5t-63.5 127.5q0 42 25.5 70.5t61 28.5 52.5-9q-8-30-8-54 0-54 30.5-85.5t84.5-31.5 87 28 33 74.5-36.5 76.5-88.5 48-104 38-88.5 59.5-36.5 99.5q0 94 81.5 156t184.5 62q76 0 131.5-30.5t55.5-92.5q0-45-29-76.5t-73-31.5q-12 0-27 3z"/><path transform="translate(8.992 15.584) scale(.016 -.016)" d="m509 471q-27-115-27-230.5t26-228.5q-36-12-74-12t-53 22.5-15 65 13 116.5q-71-152-137-192-30-18-62-18-76 0-118 56.5t-42 140.5q0 128 71 224.5t184.5 96.5 233.5-41zm-131-60q-53 16-90 16-75 0-112-33-34-84-34-171 0-46 14.5-93t44.5-47q35 0 90 103t87 225z"/><path transform="translate(17.712 15.584) scale(.016 -.016)" d="m63 738q32 12 66 12t56.5-22.5 22.5-61-10.5-154-10.5-181.5q0-163 23-319-32-12-68-12-77 0-77 75 0 36 11 141.5t11 169.5q0 213-24 352z"/><path transform="translate(22.016 15.584) scale(.016 -.016)" d="m141 182q-3-14-3-23 0-41 24.5-63t66-22 69 15.5 27.5 46.5-29.5 49.5-71 29.5-83.5 24.5-71.5 42.5-29.5 73q0 69 73 116t153 47q88 0 134-36 27-21 27-55.5t-26.5-56-64.5-21.5q-8 0-20 2 3 13 3 23 0 29-22 44t-59.5 15-68.5-15q-12-16-12-41t29-40.5 70.5-27 83.5-26 71-45 29-76.5q0-75-74.5-124.5t-153.5-49.5-130.5 28.5-51.5 86.5q0 36 26.5 58.5t64.5 22.5q8 0 20-2z"/><path transform="translate(29.296 15.584) scale(.016 -.016)" d="m509 471q-27-115-27-230.5t26-228.5q-36-12-74-12t-53 22.5-15 65 13 116.5q-71-152-137-192-30-18-62-18-76 0-118 56.5t-42 140.5q0 128 71 224.5t184.5 96.5 233.5-41zm-131-60q-53 16-90 16-75 0-112-33-34-84-34-171 0-46 14.5-93t44.5-47q35 0 90 103t87 225z"/></svg>