<svg width="65.344" height="20.448" viewBox="0 0 65.344 20.448" xmlns="http://www.w3.org/2000/svg"><path transform="translate(0 16.064) scale(.016 -.016)" d="m117 0h-56q-13 0-13 12v234q0 13 13 13h63q12 0 12-13v-21q0-19 23-50.5t46-51.5 61.5-34.5 83.5-14.5q77 0 120.5 32t43.5 89q0 33-24.5 56.5t-63.5 37.5-86.5 26-95 27.5-86.5 37-63.5 60-24.5 90.5q0 84 63.5 139t170.5 55q135 0 198-79l-2 62q0 12 13 12h56q12 0 12-12v-218q0-12-12-12h-63q-12 0-12 12v28q0 41-46 83t-135 42q-66 0-106.5-31.5t-40.5-80.5q0-35 25-60t65-40 88-27.5 96-27.5 88-36 65-57.5 25-86.5q0-88-63-145t-188-57q-92 0-152 37t-87 80l1-98q0-12-12-12z"/><path transform="translate(10.656 16.064) scale(.016 -.016)" d="m529 0h-87q-43 0-43 42v51h-2q-73-101-195-101-72 0-118 37.5t-46 101.5q0 82 71.5 120.5t196.5 38.5h84v12q0 125-130 125-61 0-88-11.5t-38.5-18.5-17.5-11q-15-12-22-2l-28 35q-7 8 2 16 17 22 70 43t125 21q210 0 210-200v-232h56q12 0 12-12v-43q0-12-12-12zm-139 230h-79q-58 0-96-6t-64.5-26-26.5-55 28.5-57.5 74.5-22.5q97 0 163 86z"/><path transform="translate(19.936 16.064) scale(.016 -.016)" d="m570 0h-95q-43 0-43 42v263q0 58-28 90t-82 32q-77 0-120-63-5-6-13-22v-275h53q13 0 13-12v-43q0-12-13-12h-191q-13 0-13 12v43q0 12 13 12h55v358h-55q-13 0-13 12v43q0 12 13 12h117q13 0 13-12l-2-68h3q52 87 161 87 80 0 125-47t46-127v-258h56q13 0 13-12v-43q0-12-13-12z"/><path transform="translate(29.872 16.064) scale(.016 -.016)" d="m494 116q6-5 6-9.5t-4.5-12-19-22.5-40-34-66-32-86.5-13q-105 0-175.5 69t-70.5 185.5 70.5 184 172.5 67.5 154-74h1l-1 55q0 13 13 13h38q12 0 12-13v-170q0-12-12-12h-46q-12 0-12 12v17q-1 36-41 69t-101.5 33-112.5-49-51-133.5 50-134 112-49.5 105.5 26.5 58.5 51.5q7 12 17 3z"/><path transform="translate(38.496 16.064) scale(.016 -.016)" d="m570 0h-95q-43 0-43 42v263q0 58-28 90t-82 32q-41 0-62.5-12.5t-32.5-22-18-18.5q-12-16-20-33v-274h53q13 0 13-12v-43q0-12-13-12h-191q-13 0-13 12v43q0 12 13 12h55v584h-55q-13 0-13 12v43q0 12 13 12h126q12 0 12-12v-223q0-33-4-61h2q49 77 156 77 80 0 125-47t46-127v-258h56q13 0 13-12v-43q0-12-13-12z"/><path transform="translate(48.432 16.064) scale(.016 -.016)" d="m483 236h-360q4-83 52.5-128t109.5-45 104.5 26 58.5 51q8 10 18 3l27-27q6-6 6-10.5t-4.5-11.5-18.5-22-39.5-34-66-32-86.5-13q-105 0-175.5 69t-70.5 185.5 70 184 171.5 67.5 159.5-65.5 58-176.5q0-4 0-8 0-13-14-13zm-358 61h289q-3 62-39 99t-96 37-103-34-51-102z"/><path transform="translate(57.04 16.064) scale(.016 -.016)" d="m468 0h-417q-13 0-13 12v41q0 19 15 34l324 338h-271v-77q0-12-12-12h-43q-13 0-13 12v132q0 12 13 12h417q13 0 13-12v-35q0-18-16-32l-328-346h275v79q0 12 13 12h43q13 0 13-12v-134q0-12-13-12z"/></svg>