<svg width="103.18" height="19.2" viewBox="0 0 103.18 19.2" xmlns="http://www.w3.org/2000/svg"><path transform="translate(0 16) scale(.016 -.016)" d="m63 1q-9 0-9 6 2 8-4.5 13t-7.5 11q-1 3-1 18.5t0 35.5 0 36 0 20q0 10-0.5 22t6.5 19 21 7.5 25 0.5q12 0 20.5 1t17.5-7q3-3 7.5-0.5t7.5 4.5q5-2 18-3t25-1.5 13-0.5q5 0 16-1t12 3q2 8 0 15t-2 18v104q0 4-0.5 8t-2.5 6-6.5 2.5-8.5 1.5q-7 3-14 3t-15-8q-6 6-23 7t-32.5-0.5-20.5-5.5q-1-1-5-0.5t-6 1.5q-9 7-23.5 4t-19.5 5q-7 10-8.5 18t-1.5 21v113q0 5 0.5 10t4.5 8q4 4 0 6-9 10-1 24 10 16-1 32-4 6-3 12.5t2 12.5q4 19 4.5 33t-5.5 27q-5 12 2 18.5t16 13.5q6 3 21-3 5 6 9.5 2t7.5-2q2 2 7 3t20.5 1.5 49 0.5 91.5 0 148 0q9 0 12-1h4q11 0 14-2t9-15q4-7-0.5-19t0.5-22q3-5-0.5-7.5t-2.5-5.5q2-6 6-14t0-13q-3-6-5-19t-2.5-25-0.5-16q2-25-7.5-23t-31.5 13q-10 5-19.5 10.5t-14.5 15.5q-6 13-24 25.5t-30 16.5q-7 2-21 19.5t-31 30.5q-5 4-10 8.5t-7 8.5q-4 0-11 5-10-3-25.5-2t-21.5 1h-114q-7 0-5.5-3t2.5-7-1-8.5 3-9.5q2-1 1.5-6.5t-2.5-7.5q-6-7-5-12t6-11q4-8-1-15-6-6-6-26t-0.5-39-7.5-26q-1-1 0-4.5t3-4.5q4-4 1-7t-3-6q0-10 3-10t3-11q0-9 0.5-18.5t0.5-18.5-1.5-18-6.5-18q-2-4 5-10t14-6h131q8 0 24.5 1.5t19.5-1.5q3-2 5.5-3.5t7.5 0.5q20 8 39.5 8t44.5-2.5 59-2.5q14 0 24-8.5t10-21.5q1-47 1-106t-1-106q0-7 0.5-13.5t-5.5-11.5q-4-14-3.5-31.5t2.5-31.5q10-7 5-13.5t-7-12.5q-5-7-13.5-7t-16.5 0q-42 0-89-0.5t-89 0.5q-5 0-26 2t-43.5 2.5-32.5-3.5q-3-1-13-1.5t-54 0.5zm359 558q1 38 0.5 51.5t-1 16-0.5 6.5q0 19 0.5 24.5t-10.5 6.5q-13 0-42.5 1.5t-82.5 1.5q12-10 30.5-26.5t39.5-34 38.5-31 27.5-16.5zm-185-109q-18 0-25 12.5t-7 19.5q0 12 10.5 20.5t29.5 8.5q10 2 16.5-2t12.5-12q8-11 0-23-7-7-16.5-15.5t-20.5-8.5zm3 23q7 0 10 7 2 2 0 6-4 4-7 3-10 0-10-7 0-1 1.5-5t5.5-4zm164-450q10 0 10 9l5 122q0 4 0 9t2 8q8 10 7 25.5t-6 28.5q-1 3-1.5 22.5t-0.5 43-1 38.5q-14 10-34 10t-34 0l-84 1q-13 0-13-10v-99q0-3 1-6t1-5q-3-26-0.5-31.5t1.5-16.5q0-4-4.5-9t-7.5-5q-18 0-26.5 1t-20.5 1h-114q-11 0-13-4.5t-2-14.5v-98q0-7 4.5-12t14.5-2q4 0 22.5 1t41.5 1.5 41.5 0 21.5-2.5q8-6 12.5-2t9.5 3q3 0 6.5 0.5t5.5-1.5q6-3 26.5-4.5t46-2 48 0 34.5 0.5z"/><path transform="translate(7.952 16) scale(.016 -.016)" d="m335-4q-19 0-50 4.5t-62 5.5-50-8q-8 5-24.5 5t-33-1.5-26.5-2.5h-13q-25 0-35.5 7.5t-10.5 17.5q0 22 29 43 11 8 21 17.5t22 19.5q13 16 30.5 27t34 20.5 25.5 21.5q18 22 42 35.5t43 29.5q18 15 35.5 30t35.5 31q9 8 22 15.5t33 14.5q9 10 20.5 13.5t20 8.5 8.5 19q0 13-6.5 32t-25.5 19q-4 0-24.5-1t-41-2.5-26.5-1.5q-9 0-18.5 1.5t-18.5 6.5q-5 2-13 1.5t-16-0.5q-18-2-23.5-1.5t-24.5 1.5q-7 0-13.5-1.5t-14.5-3.5q-19-3-25.5-4t-10.5-1q-10 0-19 4.5t-18 6.5q-4 1-3.5 7t3.5 7q9 2 13.5 7t14.5 5q6 0 32.5-0.5t63-0.5 72.5 0 61.5 0 29.5 1q28 5 47 2.5t23-10.5q5-4 7-16t2-24q0-55 1-88t2-55 1-41-0.5-44.5-3.5-67.5q-1-7-1-14t0-14q0-10 1-18.5t5-17.5q-4-17-9.5-29t-21.5-11q-19 1-27 0t-12.5-2.5-12-2.5-26.5-1q-10 0-20-1t-20-1zm-163 30q9 5 30 7t45.5 1.5 45-1.5 29.5-1q18 0 36.5 0t36.5 1q8 0 20.5 1.5t22.5 9.5 9 28q-1 21-1 55t0.5 72.5 2 72.5 3.5 55q-9-15-29-22.5t-39-15-27-23.5q-23-18-43.5-40t-47.5-32q-7-3-15-10.5t-15-14.5q-14-14-38.5-31t-47.5-32-32-23q-3-2-10.5-10.5t-14.5-18-8.5-16.5 7.5-7q7 0 23 1t32.5 0 24.5-6zm144 73q-18 0-25 12.5t-7 19.5q0 12 10.5 20.5t29.5 8.5q10 2 16.5-2t12.5-12q8-11 0-23-7-7-16.5-15.5t-20.5-8.5zm3 23q7 0 10 7 2 2 0 6-4 4-7 3-10 0-10-7 0-1 1.5-5t5.5-4z"/><path transform="translate(16.336 16) scale(.016 -.016)" d="m431 0q-7 0-12.5 5.5t-5.5 15.5v64q0 5 2 9.5t3 8.5 1.5 7 0.5 6q0 11-4 19.5t-4 21.5q0 8 1 25.5t2 37 2 35 1 19.5q-6 11-5.5 23t0.5 22q0 7 0 28t1 63q0 2-16 0.5t-29 2.5q-1 1-10.5 1t-18.5 0.5-11 0.5q-1 0-2 0-15-29-31-57t-37-60.5-51-76.5q-46-68-78-127t-52-85q-11-14-26-7-12 5-12 24 0 5 1 13t2 11q2 5 4 16t0 17q-2 4-3.5 11.5t-0.5 10.5q6 38 7.5 69t1.5 65v190q0 6 6.5 12.5t11.5 6.5q2 0 27.5 0.5t64.5 0.5 83 0.5 83.5 0.5 66 0 30.5 0q25 0 25-24v-404q0-11-6-16.5t-13-5.5zm-345 164q0-11-2-29t-3.5-36-0.5-29q6 14 20.5 37t31 49.5 30.5 49.5 21 36q4 7 13.5 19t19 24.5 11.5 18.5q8 23 15.5 31.5t15 16.5 15.5 29q1 1 6.5 11.5t11.5 20.5q-5 4-10 4-4 0-7.5-2t-7.5-4-6-2q-7 0-13.5 5t-14.5 3q-3 0-16.5-2.5t-30-4.5-28.5-2q-13 0-16 3-4 2-10 5.5t-15 3.5q-5 0-11.5-2t-14.5-7q-4-3-6-8t2-10q7-10 7-20 0-8-6-16 6-13 6-24 0-9-2-17.5t-3-18.5q-1-11-1.5-28.5t-0.5-38.5zm228-13q-4 0-15-0.5t-21 1.5-12 7q-1 8-2.5 18t6.5 20q4 7 16 16.5t19 4.5q20-9 20-40 0-7-2.5-17t-8.5-10zm-15 24q2 0 2.5 3t0.5 5q0 8-4 11-2 2-5.5-1.5t-4.5-5.5q-2-2-2-4.5t0-5.5q1-2 6.5-2t6.5 0z"/><path transform="translate(24.176 16) scale(.016 -.016)" d="m60 1q-20-4-20 14 0 1 0 16.5t1 30.5q0 6 1.5 12t6.5 11q4 4-1 8-2 2-3.5 7t-2 22-0.5 53.5 0.5 99.5 1 160.5 1.5 238.5q0 4 0.5 14t5.5 10q7 0 11 2.5t10-4.5l8-38q0-6 1.5-15t-3.5-15q-1-2 0-8t1-11l-3-43q2-67 2.5-136t-1.5-120l-1-67 31 14q2 7 8 10t11 7q16 11 28 28 6 7 15 11.5t14 13.5q2 2 4.5 1.5t20.5 12.5q9 8 25 20.5t41 34.5q8 7 16 14.5t18 15.5q13 10 20.5 18.5t15 10 20.5-11.5q0-10 0.5-10.5t-1.5-2.5q-9-4-15-12t-14-13-14-12.5-13-12.5q-7-7-29.5-25t-51.5-41q0-3 0-6l93-125q2-8 13.5-17t15.5-20q1-2 9-13.5t19-26 19.5-25.5 11.5-13q6-4 9-8t4-12q-2-9 7-13 6-7 13-13t6-15q-1-4-6-5.5t-12-1.5q-4 1-11 6t-24 29q-30 26-42 50.5t-25 37.5q-14 16-36.5 45.5t-46.5 63-43 61.5q-40-32-76-61.5t-48-43.5q-1-9-1.5-34.5t-0.5-56-1.5-56.5-5.5-37q-1-1-3.5-2t-3.5-1zm146 99q-10-10-24.5-2t-21.5 17q-6 8-6 16t5.5 17.5 12.5 10.5q11 2 26.5 0.5t15.5-16.5q0-11 7-16t-1-13zm-13 20 4 4q2 2 0 3t-2 5-4 4.5-7-0.5q-5-2-5-8 0-3 2-4 2-2 5.5-4.5t6.5 0.5z"/><path transform="translate(31.312 16) scale(.016 -.016)" d="m172-4q-5 3-12.5 3t-15.5 0q-4 1-22.5 1t-37 0-23.5 0q-19 0-21 21v428q39 0 86.5 0.5t97.5 0.5 95.5-0.5 79.5-0.5q5 0 9.5-2t4.5-7v-417q0-4-0.5-8.5t-2.5-6.5q-7-4-13.5-7.5t-13.5-3.5q-17 0-31-2t-28 8q-7-10-13-4.5t-13 3.5q-3-1-16.5-1.5t-31-1-32 0-20.5 0.5q-7 1-12.5-4t-13.5 0zm77 29q8 0 29 1.5t48.5 3 52.5 1.5q2 4 2 21t-1 35-1 22v127q3 40 4 59.5t0.5 32-1.5 31-1 55.5q-3 0-17.5 1.5t-25.5 2.5q-3 0-24.5 0t-49-1-49-1.5-25.5-0.5q-6 9-12 3.5t-17-3.5q-7 8-14 7.5t-15-0.5q-11 0-31-1t-31-3q-4-10-5-18.5t5-15.5q2-1 3-5t-1-5v-62q3-5 1-8-10-10-2-25 2-4 3-9t1-10q0-11-7-21-5-7-1-11 6-8 6-23 0-11 0-35.5t-0.5-48.5-0.5-35q0-7-0.5-15t-2.5-29q0-12 7-12 12 0 35 0t44-0.5 24-3.5q4-3 8 1 5 5 9 3t8-4q4-1 9.5 2.5t7.5 1.5q7-5 14-5t14 0zm-8 168q-10-10-24.5-2t-21.5 17q-6 8-6 16t5.5 17.5 12.5 10.5q11 2 26.5 0.5t15.5-16.5q0-11 7-16t-1-13zm-13 20 4 4q2 2 0 3t-2 5-4 4.5-7-0.5q-5-2-5-8 0-3 2-4 2-2 5.5-4.5t6.5 0.5z"/><path transform="translate(38.56 16) scale(.016 -.016)" d="m35 0q-12 0-15 3t-9 13q-4 8 7.5 12.5t20.5 4.5h83q8 1 10.5 3t2.5 9v215l5 25-5 31 4 19-4 85q-12 0-16.5-1t-10.5-2.5-25-1.5q-8 0-16-3l-33 8q-4 8 3.5 19t17.5 11h80q0 17-1 29.5t-6 17.5q5 6 6.5 31t2 56 0 56.5-0.5 32.5 5.5 12.5 12.5 6.5 9 1 8 5q1 1 9 1.5t30.5 0.5 65.5 0q11 0 14-2t9-15q4-7-9-13t-29-5q-7 0-9.5-0.5t-8-0.5-20 0-45.5 0q-12 0-10.5-7t1.5-11v-196h122q7 0 13.5-7t4.5-13q-1-5-7-10t-11-5q-9-1-21.5-1t-19.5 5q-11 9-19 7t-14.5-7-15.5-5q-7 1-14 2t-13 2-7-6q-1-4-1-12.5t0-21.5q0-4-2.5-5.5t2.5-9.5q2-3-1.5-6.5t0.5-12.5q2-4 0.5-10.5t-2.5-13.5q-2-24 1-40.5t1-49.5q-1-10-2-20.5t4-21.5q0 0-3.5-7.5t0.5-15.5q6-13 0-27-4-7 2.5-16.5t2.5-17.5q-3-7-1.5-13t-1.5-12q-4-8 0-18t3-19q1-2 3.5-5t4.5-3q27 0 35 0t11 0 13 0 40 0q8 0 23.5-6.5t13.5-11.5l-12-15q-31 0-47-0.5t-29-0.5-32.5 0-56 0-101.5 0z"/><path transform="translate(43.728 16) scale(.016 -.016)" d="m335-4q-19 0-50 4.5t-62 5.5-50-8q-8 5-24.5 5t-33-1.5-26.5-2.5h-13q-25 0-35.5 7.5t-10.5 17.5q0 22 29 43 11 8 21 17.5t22 19.5q13 16 30.5 27t34 20.5 25.5 21.5q18 22 42 35.5t43 29.5q18 15 35.5 30t35.5 31q9 8 22 15.5t33 14.5q9 10 20.5 13.5t20 8.5 8.5 19q0 13-6.5 32t-25.5 19q-4 0-24.5-1t-41-2.5-26.5-1.5q-9 0-18.5 1.5t-18.5 6.5q-5 2-13 1.5t-16-0.5q-18-2-23.5-1.5t-24.5 1.5q-7 0-13.5-1.5t-14.5-3.5q-19-3-25.5-4t-10.5-1q-10 0-19 4.5t-18 6.5q-4 1-3.5 7t3.5 7q9 2 13.5 7t14.5 5q6 0 32.5-0.5t63-0.5 72.5 0 61.5 0 29.5 1q28 5 47 2.5t23-10.5q5-4 7-16t2-24q0-55 1-88t2-55 1-41-0.5-44.5-3.5-67.5q-1-7-1-14t0-14q0-10 1-18.5t5-17.5q-4-17-9.5-29t-21.5-11q-19 1-27 0t-12.5-2.5-12-2.5-26.5-1q-10 0-20-1t-20-1zm-163 30q9 5 30 7t45.5 1.5 45-1.5 29.5-1q18 0 36.5 0t36.5 1q8 0 20.5 1.5t22.5 9.5 9 28q-1 21-1 55t0.5 72.5 2 72.5 3.5 55q-9-15-29-22.5t-39-15-27-23.5q-23-18-43.5-40t-47.5-32q-7-3-15-10.5t-15-14.5q-14-14-38.5-31t-47.5-32-32-23q-3-2-10.5-10.5t-14.5-18-8.5-16.5 7.5-7q7 0 23 1t32.5 0 24.5-6zm144 73q-18 0-25 12.5t-7 19.5q0 12 10.5 20.5t29.5 8.5q10 2 16.5-2t12.5-12q8-11 0-23-7-7-16.5-15.5t-20.5-8.5zm3 23q7 0 10 7 2 2 0 6-4 4-7 3-10 0-10-7 0-1 1.5-5t5.5-4z"/><path transform="translate(55.312 16) scale(.016 -.016)" d="m59-11q-11 0-14.5 2.5t-3.5 12.5v133q0 6 1.5 11.5t5.5 9.5q2 2 1.5 6.5t-0.5 8.5v70q0 5-1 11t-4 11q-2 3 2 9t4 12q0 7-3 11.5t-3 9.5q0 6 4 11l-3 46q5 5 1.5 13t-5.5 15q-2 5 3.5 9t-0.5 10q-2 3-2.5 17.5t0 32 2 31 3.5 14.5q-7 13-7 35t9 31q0 7 1 13.5t-5 12.5q-5 7-4 12.5t5 12.5q9 12 2 26-9 11-7 21.5t8 25.5q3 2 7 3.5t8-1.5q3-2 12.5-7.5t18-12.5 8.5-14q1-4 9.5-5t6.5-10q77-49 114-77.5t43-36.5q5-7 13-11.5t15-9.5q40-33 72-55t61-45q8-6 16.5-12.5t12.5-14.5q4-6 15.5-14.5t21.5-17 10-15.5q0-3-16-19.5t-36-34.5-33-29q-3-2-28-20t-62-45.5-78.5-58-78.5-58.5-61.5-46.5-26.5-22.5q-4-6-11-10-6-2-11-5t-12-2zm9 43q1-3 3.5-3t11.5 7q8 8 21 17.5t20 17.5q5 5 25.5 20.5t46.5 33 46.5 32 25.5 18.5q7 4 18.5 15t17.5 16 13.5 10 15.5 8q6 3 10.5 10t13.5 8q34 23 59 44t50 44q8 8 7 12.5t-5 5.5q-5 3-13.5 7.5t-10.5 9.5q-1 5-8.5 6t-7.5 8q-1 2-4.5 8t-6.5 7q-22 9-34 16.5t-30 20.5q-4 9-19 22.5t-34 28-34.5 26-20.5 15.5q-1 1-15.5 11t-35.5 25-43.5 31-41 30-26.5 21q-3 3-5-3t-2-12q-1-51-1-96.5t0-98.5q0-6 6-14 2-2-1-7-3-2-4-15t-1-29 0.5-28.5 0.5-15.5l-1-238q0-5-4-11t4-12q1-1-2-6-2-4-4-11t-1-12zm153 272q-18 0-25 12.5t-7 19.5q0 12 10.5 20.5t29.5 8.5q17 1 29-14 8-11 0-23-7-8-16.5-16t-20.5-8zm3 23q6 0 10 6 2 2 0 6-3 4-7 3-10 0-10-7 0-1 1.5-4.5t5.5-3.5z"/><path transform="translate(63.52 16) scale(.016 -.016)" d="m254-1q-16 2-22.5 2t-12.5 0h-67l-95-1q-16 0-22.5 4t-7.5 9q-1 6 2.5 11.5t4.5 6.5q7 2 39.5 0t77.5 0q3 0 5.5 1t-1.5 6q-3 5-1.5 13.5t1.5 14.5q0 7-2 14t0 14 4.5 12.5 2.5 12.5v273q0 8-2 16.5t-7 9.5q-11 4-31 4-16 0-33-1.5t-30-1.5q-4 0-12 0t-13 2q-4 2-8.5 7t-3.5 7q5 15 20 15h285q9-2 9-17 0-7-16-13t-33-6q-5 0-9.5 1.5t-8.5 2.5q-8-7-17-7l-35 7q-12 0-18-9.5t-6-21.5v-17q-2-14-4-27.5t-1-30.5q2-8 3.5-17.5t4.5-19.5q0-12-2-24.5t2-27.5q2-6-0.5-12.5t-2.5-6.5q-4-7 0-13t3-14q-1-7-2.5-15t1.5-12q5-7 2-15.5t-3-26.5q0 0-1-23.5t-1-49.5q0 0 5-2t20-2h110q4 0 7-5.5t2-11.5q0-4-11-7t-26-5-27.5-2.5-15.5-0.5zm-77 483q-14 0-25.5 6t-14.5 14q-2 6 0 20.5t16 21.5q9 7 19 10.5t17-1.5q5-4 12-7.5t13-6.5q12-9 6-20-7-13-15.5-25t-27.5-12z"/><path transform="translate(69.184 16) scale(.016 -.016)" d="m114-2q-5 2-10.5 0.5t-10.5 0.5q-8 2-13 2-4 0-9-0.5t-10-0.5q-21 3-21 15-1 7 6.5 12t20.5 3q13 0 25 6 9 0 15-6 1-1 3-0.5t3 0.5q18 7 30 7 33-1 51.5-2t33-1.5 33-1 51.5-0.5q8 6 18.5 6.5t17.5 0.5h4v167q-12-1-38.5-1.5t-59.5 0-66 1.5-58.5 1.5-36.5 0.5q-23 0-32 5t-13 30q0 50-1 73.5t-1 35.5q0 11 2 21t7 20q3 3 0 5-3 6-5.5 17.5t-2 22 5.5 12.5q8 3 22 3 13 0 25-1.5t13-1.5q20 3 30 3 12 0 28-3 18 0 21 0t6 0 21 0q37-1 56.5-1t35.5 0q11 4 27 4h12q5-1 9.5-1.5t9.5-1.5q8-1 15.5-4.5t-0.5-12.5q-7-7-13-14.5t-12-15.5q-22-16-53-37.5t-65.5-44.5-65.5-44.5-53-38.5q71 0 121-1.5t54-1.5q17 8 33.5 9t34.5-6q5-2 9.5-4.5t6.5-5.5l2-11 2-16q0-14 1.5-45.5t1.5-60.5q0-32-4-58t-18-28q-10-1-19-4.5t-19-3.5-13 0.5-14 0.5l-162-3q-6 8-12 3t-13-4zm-32 249q18 13 47 34t60 42.5 55 36.5 32 16q10 12 28 25t25 20h-190q-7 8-13 2.5t-13-3.5q-4 2-15 5t-16 4q0-6-0.5-26t-0.5-46.5 0-51.5 0-41.5 1-16.5zm156-151q-18-13-44 2-7 4-14.5 10.5t-4.5 12.5q2 4 7 13.5t11.5 17.5 11.5 7q8-3 17.5-6.5t14.5-15.5q4-7 6.5-21.5t-5.5-19.5zm-17 18q2 2 1 6.5t-3 5.5q-1 3-8 7-2 0-4.5-5t-3.5-6 1.5-3 4.5-3q3-1 6-2t6 0z"/><path transform="translate(76.032 16) scale(.016 -.016)" d="m55-200q-5 1-9.5 5t-4.5 14v250q0 16 7 27-5 6-6.5 12.5t-1.5 13.5l2 297v27q0 3 4 9t23 6l40-4q6-1 12.5-1.5t12.5-5.5q4-3 10.5-2t11.5 1h218q5 0 11 0t11-1q6 0 11.5-5.5t5.5-12.5v-161q0-5-4.5-9.5t2.5-11.5q5-4 0.5-8.5t-4.5-9.5q-1-22-1-45.5t0-46.5q12-13 1-25 4-6 5.5-12t-5.5-13q8-8 3-19.5t-5-25.5q2-7-3.5-12t-11.5-6q-3-3-9 2-7 4-29.5 26.5t-54 55.5-65.5 69-64.5 68.5-50.5 53.5q-6 6-18 21.5t-24 34.5q-10-8-4-14.5t4-12.5q-2-7-5.5-16.5t1.5-14.5q9-12 2-24-7-9-6-19.5t1-21.5q8-8 8-20l-1-267q0-5 0-10t1-10q0-6-3-11t-4-9q0-5 2.5-9t-2.5-9q-3-3 1.5-10.5t4.5-12.5q1-4 1-16t0-23.5-1-15.5q-4-10-20-10zm320 272q0 5 3.5 23t4.5 24q1 4 1.5 9t-1.5 7q-7 12-2 21-7 7-8 22t-2 22 1.5 12 3.5 11q-7 8-0.5 14.5t3.5 15.5q-1 4-1.5 14t0 40.5 0.5 96.5q0 11-8 11h-245q-7 0-13.5 1.5t-12.5 5.5q-3 3-10.5 2t-11.5-5.5 4-13.5q4-4 15.5-18.5t23.5-30.5 14-24q2-6 9-15t12-14q54-56 108.5-113.5t111.5-117.5zm-83 210q-10-10-24.5-2t-21.5 17q-6 8-6 16t5.5 17.5 12.5 10.5q11 2 26.5 0.5t15.5-16.5q0-11 7-16t-1-13zm-13 20 4 4q2 2 0 3t-2 5-4 4.5-7-0.5q-5-2-5-8 0-3 2-4 2-2 5.5-4.5t6.5 0.5z"/><path transform="translate(83.28 16) scale(.016 -.016)" d="m66-10q-7 1-12.5 6.5t-6.5 12.5q0 6 0 22t0.5 34.5 0.5 34 0 21.5q0 8-1.5 19.5t-6.5 40.5q5 20 6.5 45.5t1.5 45.5q0 7 0 17t-0.5 32-0.5 64q0 21 2.5 38t-2.5 24q-4 7-4 17.5t2 19.5 2 9q0 5 2 11.5t-2 10.5q-6 6-3 18.5t3 23.5q0 7 3.5 14.5t-3.5 14.5q0 0 2 10.5t-2 21.5q-1 4 0.5 8t-0.5 7q-4 6-2 14t2 15q0 18 4.5 28.5t22.5 7.5q10-10 10-21.5t-3-21-3-15.5v-589q0-7 7-9l116 77q29 23 44.5 29.5t20.5-2.5q5-7 0-9t-5-11q0-17-11.5-19.5t-21.5-10.5q-21-17-47-36t-51-35-42.5-25.5-21.5-9.5z"/><path transform="translate(87.568 16) scale(.016 -.016)" d="m335-4q-19 0-50 4.5t-62 5.5-50-8q-8 5-24.5 5t-33-1.5-26.5-2.5h-13q-25 0-35.5 7.5t-10.5 17.5q0 22 29 43 11 8 21 17.5t22 19.5q13 16 30.5 27t34 20.5 25.5 21.5q18 22 42 35.5t43 29.5q18 15 35.5 30t35.5 31q9 8 22 15.5t33 14.5q9 10 20.5 13.5t20 8.5 8.5 19q0 13-6.5 32t-25.5 19q-4 0-24.5-1t-41-2.5-26.5-1.5q-9 0-18.5 1.5t-18.5 6.5q-5 2-13 1.5t-16-0.5q-18-2-23.5-1.5t-24.5 1.5q-7 0-13.5-1.5t-14.5-3.5q-19-3-25.5-4t-10.5-1q-10 0-19 4.5t-18 6.5q-4 1-3.5 7t3.5 7q9 2 13.5 7t14.5 5q6 0 32.5-0.5t63-0.5 72.5 0 61.5 0 29.5 1q28 5 47 2.5t23-10.5q5-4 7-16t2-24q0-55 1-88t2-55 1-41-0.5-44.5-3.5-67.5q-1-7-1-14t0-14q0-10 1-18.5t5-17.5q-4-17-9.5-29t-21.5-11q-19 1-27 0t-12.5-2.5-12-2.5-26.5-1q-10 0-20-1t-20-1zm-163 30q9 5 30 7t45.5 1.5 45-1.5 29.5-1q18 0 36.5 0t36.5 1q8 0 20.5 1.5t22.5 9.5 9 28q-1 21-1 55t0.5 72.5 2 72.5 3.5 55q-9-15-29-22.5t-39-15-27-23.5q-23-18-43.5-40t-47.5-32q-7-3-15-10.5t-15-14.5q-14-14-38.5-31t-47.5-32-32-23q-3-2-10.5-10.5t-14.5-18-8.5-16.5 7.5-7q7 0 23 1t32.5 0 24.5-6zm144 73q-18 0-25 12.5t-7 19.5q0 12 10.5 20.5t29.5 8.5q10 2 16.5-2t12.5-12q8-11 0-23-7-7-16.5-15.5t-20.5-8.5zm3 23q7 0 10 7 2 2 0 6-4 4-7 3-10 0-10-7 0-1 1.5-5t5.5-4z"/><path transform="translate(95.952 16) scale(.016 -.016)" d="m141-201q-9 0-9 10 0 7 4 13t7 13q2 2 2 10.5t0 9.5q0 5 2 9t5 9q3 3 9 14.5t11 23.5 6 15q1 11 11.5 22t9.5 19l7 21q-4 8-7.5 16t-6.5 14q-16 26-24 47.5t-28 45.5q-1 13-7.5 32.5t-14 38.5-12.5 30q-8 17-17.5 33.5t-14.5 33.5q-4 15-13.5 36.5t-19.5 43-17 37.5-7 20q0 12-3.5 19.5t-3.5 10.5q0 5 8 6t33 1q36-1 92.5-2t119.5-1q35 0 70.5 0.5t69.5 2.5q14 0 23.5-2t11.5-7q4-7 4-16 0-13-7-26t-14-26.5-7-27.5q0-5-4-7-10-10-15.5-22t-10.5-24q-8-19-22-48.5t-29-62.5-27.5-62.5-18.5-48.5q-5-15-17.5-38.5t-23-42-10.5-18.5q-6-12-16-33.5t-15-30.5q-6-11-11-26.5t-19-38.5q-9-28-17.5-37t-16.5-9zm83 223q4 6 15 30t25.5 57 29 67 26.5 60.5 18 36.5q16 25 28 51.5t27 51.5q5 8 4 21.5t8 23.5q-10-2-28.5-4t-35.5-2q-8 0-15 0.5t-12 1.5q-24 6-48 6-15 0-39.5-0.5t-51-0.5-47.5 0-29 0q-2 1-12 1t-22.5-1-15.5 0q0-16 10.5-31t14.5-29q3-12 8-22.5t9-21.5q3-10 8.5-16.5t6.5-17.5q0-7 7.5-23t16-32.5 11.5-23.5q4-7 15-31.5t24.5-55 25.5-57 18-39.5zm14 224q-33 0-36 3-5 6-8 13.5t-6 14.5q-2 5 7 14t16 10q6 1 10 4.5t13 0.5q11-5 16.5-13t9.5-17q2-4-7.5-17t-14.5-13zm-10 22q2 0 5 4t2 5q-2 3-3.5 5.5t-4.5 3.5q-3 2-4 0.5t-3-1.5q-2-1-5-3t-2-4q2-4 5-8 1-2 10-2z"/></svg>