<svg width="98.07" height="16.8" viewBox="0 0 98.07 16.8" xmlns="http://www.w3.org/2000/svg"><path transform="translate(0 14.28) scale(.014 -.014)" d="m203-22q-62 0-105.5 18.5t-66.5 51.5-23 77q0 37 14.5 64t39.5 42.5 56 15.5q22 0 38.5-8t25-21.5 8.5-32.5q0-5-1-11t-2-11q-4 2-9.5 2.5t-10.5 0.5q-20 0-34-13.5t-14-40.5q0-35 28.5-52.5t70.5-17.5q32 0 60 13t45.5 38 17.5 62q0 31-15.5 56t-39 47-50.5 43q-30 24-58 49.5t-46.5 58.5-18.5 77q0 46 20 82.5t53.5 61 77 37.5 90.5 13q50 0 87-13.5t57.5-38.5 20.5-59q0-31-12-55t-32.5-37.5-45.5-13.5q-19 0-33 6t-20 16q12 7 22 25t10 39q0 31-19 49.5t-62 18.5q-44 0-73.5-26t-29.5-70q0-31 16-56.5t41.5-47 52.5-42.5q30-22 57.5-48t45-59.5 17.5-78.5q0-50-21.5-89.5t-58-66.5-81.5-41-90-14z"/><path transform="translate(7.084 14.28) scale(.014 -.014)" d="m174-20q-51 0-82.5 24.5t-46 67-14.5 97.5q0 74 20 139.5t57.5 115.5 87.5 78 110 28q49 0 103-21l101 13-80-418q-1-9-3-21t-2-21q0-15 7.5-24t23.5-10q-5-17-16.5-27.5t-26-15.5-32.5-5q-27 0-46 14.5t-22 42.5q-26-25-61.5-41t-77.5-16zm44 60q38 0 61.5 25t37.5 62.5 21 72.5l44 239q-20 16-41.5 23.5t-39.5 7.5q-31 0-55.5-18t-43-49-31-72-18.5-87.5-6-93.5q0-46 15-78t56-32z"/><path transform="translate(14.462 14.28) scale(.014 -.014)" d="m400-20q-31 0-49.5 17.5t-18.5 57.5q0 22 6.5 57t15.5 74.5 18 78.5 15.5 70.5 6.5 49.5q0 33-17 50.5t-45 17.5q-39 0-66-27t-44-67.5-25-80.5l-54-278-114-12 102 522 95 12-12-90q27 48 72 73t95 25q61 0 93-31.5t32-88.5q0-28-6-65t-15.5-78.5-18.5-80.5-15.5-71-6.5-50q0-15 6-25t24-12q-6-25-27-36.5t-47-11.5z"/><path transform="translate(22.134 14.28) scale(.014 -.014)" d="m173-22q-32 0-62.5 6.5t-55.5 19.5-39.5 33-14.5 46q0 29 15 45t35.5 23.5 39.5 7.5q11 0 22-2.5t18-10.5q-5-14-9-26.5t-4-28.5q1-25 20-40.5t52-15.5q36 0 60.5 19.5t24.5 50.5q0 26-14 46.5t-36.5 38-46.5 34.5q-27 19-53 40.5t-42.5 49-16.5 65.5q0 37 19 65.5t50 47.5 69.5 28.5 76.5 9.5q35 0 69.5-9t57.5-30.5 22-58.5q0-39-24.5-60t-53.5-21q-11 0-24 2.5t-23 10.5q7 13 10.5 27t3.5 28q0 26-17.5 40.5t-49.5 14.5-54.5-17.5-22.5-48.5q0-22 11-40t29-34 39-31q31-21 61.5-43.5t51-51.5 19.5-71q0-49-30.5-84.5t-79.5-55-103-19.5z"/><path transform="translate(28.308 14.28) scale(.014 -.014)" d="m98-20q-32 0-50 18t-18 50q0 12 2 29t5 35.5 6.5 35 5.5 28.5l68 334 114 12-84-418q-1-8-3-20.5t-2-21.5q0-15 7.5-24t22.5-10q-6-25-27.5-36.5t-46.5-11.5zm101 618q-32 0-53 15.5t-21 46.5q0 33 22 48.5t54 15.5 53-15.5 21-46.5q0-33-22-48.5t-54-15.5z"/><path transform="translate(31.878 14.28) scale(.014 -.014)" d="m133-21q-28 0-49 18t-21 52q0 20 6 56.5t14 77.5 16.5 78.5 12.5 60.5l29 143h-71l4 30q48 18 95 48t83 66h31l-20-99h78l-9-45h-79l-69-340q-3-16-5-28.5t-3-23.5q-1-27 10-37.5t40-4.5q-9-19-22.5-30t-31.5-16.5-39-5.5z"/><path transform="translate(36.176 14.28) scale(.014 -.014)" d="m174-20q-51 0-82.5 24.5t-46 67-14.5 97.5q0 74 20 139.5t57.5 115.5 87.5 78 110 28q49 0 103-21l101 13-80-418q-1-9-3-21t-2-21q0-15 7.5-24t23.5-10q-5-17-16.5-27.5t-26-15.5-32.5-5q-27 0-46 14.5t-22 42.5q-26-25-61.5-41t-77.5-16zm44 60q38 0 61.5 25t37.5 62.5 21 72.5l44 239q-20 16-41.5 23.5t-39.5 7.5q-31 0-55.5-18t-43-49-31-72-18.5-87.5-6-93.5q0-46 15-78t56-32z"/><path transform="translate(45.808 14.28) scale(.014 -.014)" d="m203-22q-62 0-105.5 18.5t-66.5 51.5-23 77q0 37 14.5 64t39.5 42.5 56 15.5q22 0 38.5-8t25-21.5 8.5-32.5q0-5-1-11t-2-11q-4 2-9.5 2.5t-10.5 0.5q-20 0-34-13.5t-14-40.5q0-35 28.5-52.5t70.5-17.5q32 0 60 13t45.5 38 17.5 62q0 31-15.5 56t-39 47-50.5 43q-30 24-58 49.5t-46.5 58.5-18.5 77q0 46 20 82.5t53.5 61 77 37.5 90.5 13q50 0 87-13.5t57.5-38.5 20.5-59q0-31-12-55t-32.5-37.5-45.5-13.5q-19 0-33 6t-20 16q12 7 22 25t10 39q0 31-19 49.5t-62 18.5q-44 0-73.5-26t-29.5-70q0-31 16-56.5t41.5-47 52.5-42.5q30-22 57.5-48t45-59.5 17.5-78.5q0-50-21.5-89.5t-58-66.5-81.5-41-90-14z"/><path transform="translate(52.892 14.28) scale(.014 -.014)" d="m140-15q-8 0-17.5 1t-18.5 3q-2 82-5 159t-8 144.5-13 117.5q-5 40-13.5 61t-27.5 32q10 13 27 20t43 7q33 0 51-13t27-39.5 12-67.5q2-17 3-43.5t2-60 1-74.5q0-42-1-84.5t0-75.5q29 36 54.5 81.5t45.5 95.5 31.5 100 11.5 95q0 15-1.5 29.5t-5.5 29.5q11 9 28.5 18t38.5 9q24 0 34.5-12t14-31 4.5-42q2-23 3-54t1.5-64 1-62.5 0.5-50.5q0-28-0.5-64t-1.5-78q29 36 55 81.5t45.5 95.5 31 100 11.5 95q0 15-1.5 29.5t-5.5 29.5q12 12 33 19.5t42 7.5 33.5-7.5 17.5-22 5-36.5q0-32-10-71t-27-80.5-38.5-79.5-43.5-70q-33-47-67.5-87t-71-65-77.5-25q-7 0-14.5 0.5t-14.5 2.5q0 58-2.5 104t-4.5 90q-46-73-81-116.5t-67-62.5-70-19z"/><path transform="translate(62.902 14.28) scale(.014 -.014)" d="m174-20q-51 0-82.5 24.5t-46 67-14.5 97.5q0 74 20 139.5t57.5 115.5 87.5 78 110 28q49 0 103-21l101 13-80-418q-1-9-3-21t-2-21q0-15 7.5-24t23.5-10q-5-17-16.5-27.5t-26-15.5-32.5-5q-27 0-46 14.5t-22 42.5q-26-25-61.5-41t-77.5-16zm44 60q38 0 61.5 25t37.5 62.5 21 72.5l44 239q-20 16-41.5 23.5t-39.5 7.5q-31 0-55.5-18t-43-49-31-72-18.5-87.5-6-93.5q0-46 15-78t56-32z"/><path transform="translate(70.28 14.28) scale(.014 -.014)" d="m173-22q-32 0-62.5 6.5t-55.5 19.5-39.5 33-14.5 46q0 29 15 45t35.5 23.5 39.5 7.5q11 0 22-2.5t18-10.5q-5-14-9-26.5t-4-28.5q1-25 20-40.5t52-15.5q36 0 60.5 19.5t24.5 50.5q0 26-14 46.5t-36.5 38-46.5 34.5q-27 19-53 40.5t-42.5 49-16.5 65.5q0 37 19 65.5t50 47.5 69.5 28.5 76.5 9.5q35 0 69.5-9t57.5-30.5 22-58.5q0-39-24.5-60t-53.5-21q-11 0-24 2.5t-23 10.5q7 13 10.5 27t3.5 28q0 26-17.5 40.5t-49.5 14.5-54.5-17.5-22.5-48.5q0-22 11-40t29-34 39-31q31-21 61.5-43.5t51-51.5 19.5-71q0-49-30.5-84.5t-79.5-55-103-19.5z"/><path transform="translate(76.454 14.28) scale(.014 -.014)" d="m400-20q-31 0-49.5 17.5t-18.5 57.5q0 22 6.5 57t15.5 74.5 18 78.5 15.5 70.5 6.5 49.5q0 33-17 50.5t-45 17.5q-39 0-66-27t-44-67.5-25-80.5l-54-278-114-12 89 457 92-16q30 48 73.5 74.5t97.5 26.5q61 0 93-31.5t32-88.5q0-28-6-65t-15.5-78.5-18.5-80.5-15.5-71-6.5-50q0-15 6-25t24-12q-6-25-27-36.5t-47-11.5zm-190 432-95 19q8 41 16.5 90.5t14 97.5 6.5 83q0 12-0.5 21t-2.5 17q10 7 24 10.5t28 3.5q27 0 49-15.5t22-55.5q0-13-4-38.5t-11-57.5-15.5-65-16.5-62-15-48z"/><path transform="translate(84.14 14.28) scale(.014 -.014)" d="m215-20q-57 0-98.5 21.5t-63.5 65.5-22 111q0 63 17.5 125.5t52.5 113.5 89.5 82 128.5 31q39 0 70-11t49-36 18-68q0-58-34.5-97.5t-91.5-60-126-20.5q-13 0-28.5 0.5t-25.5 1.5q-1-16-2-31.5t-1-28.5q0-54 20-84.5t73-30.5q43 0 77 20.5t53 58.5q14-4 19-16t5-25q0-30-21-58t-61-46-97-18zm-58 308q34 0 67.5 7t61.5 22.5 44.5 40 16.5 57.5q0 29-13.5 43.5t-38.5 14.5q-28 0-51.5-17.5t-40.5-45.5-28.5-60-17.5-62z"/><path transform="translate(90.538 14.28) scale(.014 -.014)" d="m174-20q-51 0-82.5 24.5t-46 67-14.5 97.5q0 74 20.5 139.5t57 115.5 87.5 78 110 28q30 0 54.5-5.5t52.5-16.5l93-14q-18-96-36.5-193.5t-39.5-196.5q-1-9-3-21t-2-21q0-15 7.5-24t23.5-10q-5-17-16.5-27.5t-26-15.5-32.5-5q-27 0-46 14.5t-22 42.5q-26-25-61.5-41t-77.5-16zm44 60q38 0 61.5 25t37.5 62.5 21 72.5l44 239q-20 16-41.5 23.5t-39.5 7.5q-31 0-55.5-18t-43-49-31-72-18.5-87.5-6-93.5q0-46 15-78t56-32zm286 444-110 8q10 55 17.5 111t8.5 96q0 12-0.5 22t-2.5 19q9 6 23 10t30 4q26 0 48-15.5t22-55.5q0-11-5.5-43t-13.5-74-17-82z"/></svg>