<svg width="40.24" height="19.904" viewBox="0 0 40.24 19.904" xmlns="http://www.w3.org/2000/svg"><path transform="translate(0 15.28) scale(.016 -.016)" d="m89 17q-33 13-54 28l35 60h10q14-10 41-23 54-22 109-22 67 0 103.5 32.5t36.5 87.5q0 35-19 59.5t-47 40.5-77 39q-59 26-95 48.5t-61.5 60-25.5 92.5 25.5 98 73 67.5 111.5 24.5q84 0 146-28 27-11 49-27l-35-60h-10q-13 11-36 22-50 23-104 23-51 0-85.5-32.5t-34.5-77.5q0-35 19-59.5t47-40.5 77-39q59-26 95-48.5t61.5-60 25.5-92.5q0-92-60-146t-170-54q-88 0-151 27z"/><path transform="translate(8.08 15.28) scale(.016 -.016)" d="m50 250q0 128 56.5 194t153.5 66q66 0 120-28 26-12 45-27l-35-60h-10q-13 10-33 22-42 23-77 23-56 0-88-45t-32-145q0-101 33.5-145.5t96.5-44.5q37 0 77 22 21 12 33 23h10l35-60q-18-15-45-28-52-27-120-27-104 0-162 66t-58 194z"/><path transform="translate(15.36 15.28) scale(.016 -.016)" d="m45 145q0 71 51.5 110.5t163.5 39.5h80v25q0 59-27.5 89.5t-77.5 30.5q-36 0-78-23-21-12-32-22h-10l-35 60q20 15 45 27 54 28 120 28 57 0 101-24.5t69-68 25-97.5v-320h-70l-10 60h-5q-14-20-35-35-44-35-110-35-78 0-121.5 41.5t-43.5 113.5zm265-50q17 14 30 30v100h-80q-57 0-86-22t-29-58q0-39 22.5-59.5t67.5-20.5q37 0 75 30z"/><path transform="translate(23.52 15.28) scale(.016 -.016)" d="m50 250q0 127 55 193.5t145 66.5q34 0 77-15l33-15v190l30 30h70v-700h-70l-10 60h-5q-14-20-35-35-44-35-110-35-49 0-90 29.5t-65.5 88-24.5 142.5zm280-155q17 14 30 30v295q-9 5-27 10-34 10-68 10-52 0-83.5-45.5t-31.5-144.5q0-95 29.5-140t75.5-45q37 0 75 30z"/><path transform="translate(32.08 15.28) scale(.016 -.016)" d="m45 145q0 71 51.5 110.5t163.5 39.5h80v25q0 59-27.5 89.5t-77.5 30.5q-36 0-78-23-21-12-32-22h-10l-35 60q20 15 45 27 54 28 120 28 57 0 101-24.5t69-68 25-97.5v-320h-70l-10 60h-5q-14-20-35-35-44-35-110-35-78 0-121.5 41.5t-43.5 113.5zm265-50q17 14 30 30v100h-80q-57 0-86-22t-29-58q0-39 22.5-59.5t67.5-20.5q37 0 75 30z"/></svg>