<svg width="136.41" height="19.75" viewBox="0 0 136.41 19.75" xmlns="http://www.w3.org/2000/svg"><path transform="translate(0 15.625) scale(.0078125 -.0078125)" d="m654-24q-166 0-289.5 55.5t-199.5 161-101 254.5l214 44q7-177 103-272t268-95q104 0 176.5 34t111 96 38.5 146q0 112-64.5 166.5t-176.5 79.5l-188 42q-52 12-120.5 33t-132.5 62-106.5 111-42.5 179q0 139 71.5 225t186 126 243.5 40q149 0 255.5-47.5t172-134.5 88.5-208l-211-44q-8 92-45 155.5t-104 97-167 33.5q-81 0-151.5-24t-114.5-75-44-133q0-86 59.5-137.5t198.5-83.5l190-44q101-23 191-69t146-128.5 56-217.5-61.5-231-176-146.5-273.5-50.5z"/><path transform="translate(9.8047 15.625) scale(.0078125 -.0078125)" d="m594-24q-152 0-263 69t-171 195.5-60 299.5 60 299.5 171 195.5 263 69q116 0 207.5-42.5t155-122 93.5-191.5l-171-45q-28 126-100.5 193.5t-184.5 67.5q-149 0-229.5-110.5t-80.5-313.5q0-204 80.5-314t229.5-110q111 0 183 65.5t101 189.5l170-48q-24-82-66-146t-99.5-109-130-68.5-158.5-23.5z"/><path transform="translate(18.625 15.625) scale(.0078125 -.0078125)" d="m164 0v1500h168v-674l-17 44q42 101 135.5 167.5t228.5 66.5q114 0 196.5-51t127.5-145.5 45-227.5v-680h-168v667q0 137-51.5 217t-182.5 80q-140 0-227-99.5t-87-299.5v-565z"/><path transform="translate(27.703 15.625) scale(.0078125 -.0078125)" d="m164 0v1080h168v-1080zm84 1261q-58 0-99 41t-41 99q0 59 41 99.5t99 40.5q59 0 99.5-40.5t40.5-99.5q0-58-40.5-99t-99.5-41z"/><path transform="translate(31.578 15.625) scale(.0078125 -.0078125)" d="m679-24q-106 0-210 53t-157 179l9 8v-216h-158v1500h168v-645l-15 16q44 118 146 175.5t217 57.5q132 0 232-69t156-196 56-300-56.5-299.5-156.5-195-231-68.5zm-46 140q134 0 220 110.5t86 316.5q0 200-83 310.5t-221 110.5q-84 0-154.5-44t-112.5-137-42-240q0-217 90-322t217-105z"/><path transform="translate(41.008 15.625) scale(.0078125 -.0078125)" d="m532-24q-117 0-212.5 38.5t-158.5 117-84 199.5l176 34q11-127 86.5-189t189.5-62q113 0 180 57t67 139q0 70-47.5 111t-137.5 58l-131 25q-53 10-110 28t-106.5 50-80 84-30.5 131q0 106 55.5 173.5t147 100.5 197.5 33q116 0 202-36t140-103 72-162l-185-37q-7 61-32.5 106t-74 69.5-125.5 24.5q-93 0-160-39t-67-118q0-44 22.5-75t68-51.5 114.5-35.5l133-28q84-17 155-50.5t114-92.5 43-156q0-107-53.5-184.5t-148-118.5-219.5-41z"/><path transform="translate(49.211 15.625) scale(.0078125 -.0078125)" d="m394 0q-64 0-112 42.5t-48 107.5v790h-174v140h174v226l168 36v-262h214v-140h-214v-745q0-33 9.5-44t40.5-11h165v-140z"/><path transform="translate(54.648 15.625) scale(.0078125 -.0078125)" d="m601-24q-154 0-266.5 69t-173.5 195.5-61 298.5q0 173 61 300t172 196 261 69q86 0 172.5-27.5t158-95 115-185 43.5-296.5h-875v136h729l-48-63q-5 142-46 228t-106.5 124.5-145.5 38.5q-95 0-164-49.5t-106-144.5-37-232q0-202 82.5-312t234.5-110q109 0 183.5 55t109.5 159l165-56q-39-94-104-160.5t-154.5-102-199.5-35.5z"/><path transform="translate(63.82 15.625) scale(.0078125 -.0078125)" d="m528-24q-131 0-231.5 69t-156.5 196-56 300 56.5 299.5 156.5 195 231 68.5q106 0 210-53t157-179l-19-8v636h168v-1500h-158v225l5-16q-44-118-146-175.5t-217-57.5zm44 140q85 0 155 44t112 137.5 42 239.5q0 218-90 322.5t-217 104.5q-134 0-220-110.5t-86-316.5q0-200 83-310.5t221-110.5z"/><path transform="translate(77.312 15.625) scale(.0078125 -.0078125)" d="m805-24q-237 0-395.5 95.5t-238.5 263.5-80 383q0 220 80.5 388t232.5 263 365 95q145 0 266.5-48.5t206.5-146.5 119-247l-196-45q-34 176-141 257.5t-256 81.5q-151 0-259-76t-165.5-212.5-57.5-318.5q0-161 50.5-294t161.5-212 292-79q111 0 217.5 34.5t183.5 130.5v347l51-52h-535v152h652v-504q-77-110-175.5-165t-198-73-180.5-18z"/><path transform="translate(88.797 15.625) scale(.0078125 -.0078125)" d="m163 0v1080h158v-229l-6 26q48 112 144.5 169.5t195.5 57.5q29 0 56.5-5t51.5-17l-22-158q-55 17-109 17-34 0-84.5-13.5t-100-54-83-120.5-33.5-213v-540z"/><path transform="translate(95.219 15.625) scale(.0078125 -.0078125)" d="m611-24q-152 0-268 71.5t-181 198.5-65 294 65 294 181 198.5 268 71.5 268-71.5 181-198.5 65-294-65-294-181-198.5-268-71.5zm0 140q153 0 241.5 114t88.5 310q0 197-88.5 310.5t-241.5 113.5-241.5-113.5-88.5-310.5q0-196 88.5-310t241.5-114z"/><path transform="translate(104.77 15.625) scale(.0078125 -.0078125)" d="m394 0q-64 0-112 42.5t-48 107.5v790h-174v140h174v226l168 36v-262h214v-140h-214v-745q0-33 9.5-44t40.5-11h165v-140z"/><path transform="translate(110.2 15.625) scale(.0078125 -.0078125)" d="m601-24q-154 0-266.5 69t-173.5 195.5-61 298.5q0 173 61 300t172 196 261 69q86 0 172.5-27.5t158-95 115-185 43.5-296.5h-875v136h729l-48-63q-5 142-46 228t-106.5 124.5-145.5 38.5q-95 0-164-49.5t-106-144.5-37-232q0-202 82.5-312t234.5-110q109 0 183.5 55t109.5 159l165-56q-39-94-104-160.5t-154.5-102-199.5-35.5z"/><path transform="translate(119.38 15.625) scale(.0078125 -.0078125)" d="m532-24q-117 0-212.5 38.5t-158.5 117-84 199.5l176 34q11-127 86.5-189t189.5-62q113 0 180 57t67 139q0 70-47.5 111t-137.5 58l-131 25q-53 10-110 28t-106.5 50-80 84-30.5 131q0 106 55.5 173.5t147 100.5 197.5 33q116 0 202-36t140-103 72-162l-185-37q-7 61-32.5 106t-74 69.5-125.5 24.5q-93 0-160-39t-67-118q0-44 22.5-75t68-51.5 114.5-35.5l133-28q84-17 155-50.5t114-92.5 43-156q0-107-53.5-184.5t-148-118.5-219.5-41z"/><path transform="translate(127.58 15.625) scale(.0078125 -.0078125)" d="M164 0V1500H332V597L839 1080H1068L622 670L1077 0H878L500 558L332 403V0Z"/></svg>