<svg width="135.81" height="23.616" viewBox="0 0 135.81 23.616" xmlns="http://www.w3.org/2000/svg"><path transform="translate(0 17.408) scale(.008 -.008)" d="m120 364 252 52v-186h838v356h-718q-79 0-142.5 12t-108 43.5-68 88-23.5 144.5v266q0 86 25 139.5t70 83.5 108 40.5 139 10.5h606q77 0 140-10.5t108.5-40.5 70.5-83.5 25-139.5v-100l-252-50v180h-788v-340h716q77 0 140-10.5t108.5-40.5 70.5-83.5 25-139.5v-284q0-177-91.5-231.5t-252.5-54.5h-656q-79 0-142.5 11.5t-108 43-68 87.5-23.5 144z"/><path transform="translate(12.736 17.408) scale(.008 -.008)" d="m152 204v602q0 110 59.5 157t196.5 47h558q139 0 197.5-47t58.5-157v-106l-248-48v134h-574v-572h578v144l248-52v-102q0-116-58-165t-198-49h-562q-140 0-198 49t-58 165z"/><path transform="translate(23.464 17.408) scale(.008 -.008)" d="m188 0v1e3h248v-1e3zm-8 1230v82q0 65 12 76.5t78 11.5h84q66 0 78-11.5t12-76.5v-82q0-66-12-78t-78-12h-84q-66 0-78 12t-12 78z"/><path transform="translate(28.456 17.408) scale(.008 -.008)" d="m152 250v540q0 107 66.5 163.5t203.5 56.5h530q137 0 204.5-57.5t67.5-166.5v-384h-824v-208h576v110l248-44v-10q0-140-73-200t-245-60h-456q-151 0-224.5 59t-73.5 201zm248 356h576v200h-576z"/><path transform="translate(39.464 17.408) scale(.008 -.008)" d="m180 0v1e3h248v-94q30 51 97 77.5t185 26.5h184q170 0 244-58t74-192v-760h-248v786h-536v-786z"/><path transform="translate(50.488 17.408) scale(.008 -.008)" d="m152 204v602q0 110 59.5 157t196.5 47h558q139 0 197.5-47t58.5-157v-106l-248-48v134h-574v-572h578v144l248-52v-102q0-116-58-165t-198-49h-562q-140 0-198 49t-58 165z"/><path transform="translate(61.216 17.408) scale(.008 -.008)" d="m152 250v540q0 107 66.5 163.5t203.5 56.5h530q137 0 204.5-57.5t67.5-166.5v-384h-824v-208h576v110l248-44v-10q0-140-73-200t-245-60h-456q-151 0-224.5 59t-73.5 201zm248 356h576v200h-576z"/><path transform="translate(77.168 17.408) scale(.008 -.008)" d="m170 1140q0 147 79.5 210.5t262.5 63.5h706q185 0 264.5-63.5t79.5-210.5v-104l-264-56v190h-864v-940h870v332h-440v244h704v-534q0-155-78.5-220.5t-265.5-65.5h-712q-187 0-264.5 65.5t-77.5 220.5z"/><path transform="translate(90.992 17.408) scale(.008 -.008)" d="m152 204v602q0 109 59.5 156.5t196.5 47.5h580q138 0 197-47.5t59-156.5v-602q0-116-58-165t-198-49h-580q-139 0-197.5 49t-58.5 165zm248 10h596v572h-596z"/><path transform="translate(102.16 17.408) scale(.008 -.008)" d="m500-10q-139 0-197.5 49t-58.5 165v592h-172v204h172v244h248v-244h302v-204h-302v-602h292l-42-204z"/><path transform="translate(109.06 17.408) scale(.008 -.008)" d="m180 0v1448h248v-542q30 51 97 77.5t185 26.5h184q170 0 244-58t74-192v-760h-248v786h-536v-786z"/><path transform="translate(120.09 17.408) scale(.008 -.008)" d="m188 0v1e3h248v-1e3zm-8 1230v82q0 65 12 76.5t78 11.5h84q66 0 78-11.5t12-76.5v-82q0-66-12-78t-78-12h-84q-66 0-78 12t-12 78z"/><path transform="translate(125.08 17.408) scale(.008 -.008)" d="m152 204v602q0 110 59.5 157t196.5 47h558q139 0 197.5-47t58.5-157v-106l-248-48v134h-574v-572h578v144l248-52v-102q0-116-58-165t-198-49h-562q-140 0-198 49t-58 165z"/></svg>