<svg width="65.436" height="19.362" viewBox="0 0 65.436 19.362" xmlns="http://www.w3.org/2000/svg"><path transform="translate(0 12.992) scale(.014 -.014)" d="m52 60-2 125q6 4 16 4 11 0 20-7l27-119q28-12 62.5-19t72.5-7q83 0 129.5 34.5t46.5 96.5q0 48-34 78.5t-120 59.5q-79 26-125.5 53.5t-67 61-20.5 77.5q0 74 54 115.5t150 41.5q85 0 159-36 6-7 11-15t8-15l2-120q-6-4-16-4-11 0-20 7l-27 113q-56 24-117 24-71 0-109-28.5t-38-82.5q0-32 14.5-55t51-43 101.5-42q109-38 155-81t46-109q0-83-62-130.5t-172-47.5q-51 0-98 10.5t-79 29.5q-6 7-11 15t-8 15z"/><path transform="translate(7.378 12.992) scale(.014 -.014)" d="m396 342-23 106q-43 17-99 17-52 0-91-27.5t-61-75.5-22-112q0-98 50-155t134-57q35 0 73 8t64 22q7-8 11-17.5t6-19.5q-36-19-78-30t-85-11q-70 0-122 32.5t-81 91-29 136.5 29 136.5 80.5 91 121.5 32.5q34 0 72-7.5t63-19.5q11-13 19-30l2-114q-8-3-15-3-10 0-19 6z"/><path transform="translate(14.21 12.992) scale(.014 -.014)" d="m274 34q52 0 91.5 27t61 76 21.5 113-21.5 113-61 76-91.5 27-91.5-27-61-76-21.5-113 21.5-113 60.5-76 92-27zm0-44q-70 0-121.5 32.5t-80.5 91-29 136.5 29 136.5 80.5 91 121.5 32.5 121.5-32.5 80.5-91 29-136.5-29-136.5-80.5-91-121.5-32.5z"/><path transform="translate(21.882 12.992) scale(.014 -.014)" d="m277-185h-243q-3 7-3 14 0 9 6 19l68 8v581q-33-11-59-24-14 17-17 37 47 27 111 43.5t121 16.5q75 0 131.5-32.5t88-90 31.5-134.5q0-78-28.5-137.5t-79-92.5-116.5-33q-74 0-129 40v-172h108q16 0 16-14 0-6-4-21zm-118 637v-370q61-47 129-47 50 0 87.5 27.5t58.5 76 21 112.5q0 97-54 155.5t-144 58.5q-23 0-48-3.5t-50-9.5z"/><path transform="translate(29.652 12.992) scale(.014 -.014)" d="m434 261h-336v-11q0-97 50.5-154.5t135.5-57.5q39 0 80.5 11t67.5 25q8-8 12-17.5t5-19.5q-83-47-174-47-70 0-122 32.5t-81 91-29 136.5q0 79 27.5 137.5t78.5 90.5 120 32q184 0 184-219-8-17-19-30zm-332 43h298q0 162-131 162-66 0-110.5-44t-56.5-118z"/><path transform="translate(40.124 12.992) scale(.014 -.014)" d="m347 37q72 0 125.5 35.5t83 100 29.5 150.5-29.5 150-83 99.5-125.5 35.5-125.5-35.5-83-99.5-29.5-150q0-87 29.5-151t83-99.5 125.5-35.5zm0-47q-89 0-156 41.5t-104 116-37 175.5q0 100 37 174.5t104 116 156 41.5 156-41.5 104-116 37-174.5q0-101-37-175.5t-104-116-156-41.5z"/><path transform="translate(49.84 12.992) scale(.014 -.014)" d="m584 0h-193q-3 8-3 14 0 8 6 19l68 8v284q0 141-119 141-47 0-86.5-27.5t-63.5-73-24-99.5v-223h58q16 0 16-14 0-6-4-21l-2-8h-193q-3 8-3 14 0 8 6 19l68 8v412h-76q-3 7-3 14 0 9 6 19l99 19q17-9 28-22l-7-100q28 61 77 94t113 33q80 0 122-47.5t42-137.5v-282h58q16 0 16-14 0-6-4-21z"/><path transform="translate(58.464 12.992) scale(.014 -.014)" d="m434 261h-336v-11q0-97 50.5-154.5t135.5-57.5q39 0 80.5 11t67.5 25q8-8 12-17.5t5-19.5q-83-47-174-47-70 0-122 32.5t-81 91-29 136.5q0 79 27.5 137.5t78.5 90.5 120 32q184 0 184-219-8-17-19-30zm-332 43h298q0 162-131 162-66 0-110.5-44t-56.5-118z"/></svg>