<svg width="90.768" height="19.984" viewBox="0 0 90.768 19.984" xmlns="http://www.w3.org/2000/svg"><path transform="translate(0 14.992) scale(.016 -.016)" d="m586 266q0-38-26-76-92-132-216-163-32-8-72-8-94 0-180 47-41 22-57 57t-16 83q0 34 8 98 3 17 28 17 28 0 57-18t26-40q-1-8-5-35.5t-4-50.5q0-52 25-70t65-18 83 17q33 13 73.5 43t69 68 28.5 74q0 29-20 53-20 23-56.5 44t-96.5 49q-74 35-118.5 61.5t-76.5 63-32 82.5q0 21 5 37 24 90 118.5 129.5t204.5 39.5q48 0 84-6t60-26q27-22 27-62 0-24-7.5-47.5t-22.5-63.5q-11-27-13-33-6-17-33-17t-53 15-26 34q0 5 1 8l15 43q10 28 14 42l7 42q-126 2-201-51-30-20-46.5-46.5t-16.5-53.5q0-47 47-81 34-24 75.5-45t50.5-26q58-29 93.5-49t66.5-48q63-55 63-113z"/><path transform="translate(9.584 14.992) scale(.016 -.016)" d="m206 449q98 37 177 62-33 46-67 62-7 3-13.5 4t-7.5 1q1-1-1.5-2t-4.5-1q-51-39-83-126zm121 201q96 0 174-129 3-4 3-10 0-11-14-23-11-12-28-19-100-44-278-105-10-51-10-105 0-25 1-36 2-45 18-78 5-11 14.5-21t14.5-13q3-2 10-2t16.5 4 21.5 11q29 17 54 39t60 57q14 14 47 14 18 0 30.5-5.5t12.5-15.5q0-9-10-20-62-67-127-114t-130-47q-31 0-58 13-45 21-65 67t-20 108q0 46 12 108l-8-2-8-3q-15-5-24-5-14 0-22 7t-8 18q0 13 10.5 25.5t31.5 20.5l49 19q9 28 27 73 28 62 70 107t99 58q16 4 34 4z"/><path transform="translate(17.424 14.992) scale(.016 -.016)" d="m192 108q35 0 89 23 32 185 50 364h-2q-54 0-99-37t-74.5-92-40.5-109q-5-25-5-49 0-59 33-85 19-15 49-15zm237 749q31 0 30-23-17-330-72-681 16-8 16-21 0-15-24-29l-6-37q-4-19-28.5-32.5t-48.5-13.5q-15 0-24 6.5t-6 19.5q0 5 1 7-64-20-106-20-46 0-83 20-37 19-54 55t-17 81q0 16 4 44 14 81 60 156t116 123 151 51q12 137 17 249 1 18 25 31.5t49 13.5z"/><path transform="translate(24.608 14.992) scale(.016 -.016)" d="m267 258q26 50 55 124t29 122q0 16-4 25-30-2-36 18-7 25-15 25-6 0-12-7.5t-17-26.5q-14-21-30-58-33-70-54-137-24-69-38-125t-14-107q0-22 3-43l21 22q19 22 41 52 41 55 71 116zm196 266q0-32-16-110-44-206-71.5-376t-39.5-336q-1-14-3.5-24.5t-9.5-25.5q-11-22-34.5-39.5t-44.5-17.5q-19 0-29 17l-29 50q-63 110-107 180-3 4-3 10 0 17 25 32t51 15 36-17q14-26 32-56l20-35q22 177 49 334-46-64-96.5-110t-93.5-46q-33 0-57 30-20 25-20 72 0 26 4.5 51t14.5 68l6 24q30 136 89 265 28 59 56.5 98t72.5 59q27 13 60 13 49 0 75-33l7-2q30-12 43-34t13-56z"/><path transform="translate(31.808 14.992) scale(.016 -.016)" d="m656 669q16 0 26.5-5.5t10.5-15.5q0-9-9-21-83-110-138.5-237.5t-96.5-282.5q-4-16-25-27.5t-43-11.5q-16 0-26.5 7t-11.5 22q-9 93-23 271-87-172-134-281-4-16-24.5-27.5t-41.5-11.5q-13 0-24 6-15 5-15 17 0 3 2 9-11 123-27 371l-10 147q-1 19 22 33t49 14q15 0 25-6.5t11-19.5l22-333q59 122 131 249 1 17 24 30t47 13q19 0 28-9 8-7 7-15l1-2q5-59 17-194 71 171 166 288 9 11 26 17t34 6z"/><path transform="translate(42.208 14.992) scale(.016 -.016)" d="m180 818q-22 0-39-11-22-12-25-24-13-47-17-62v-3q0-5 4-9.5t9-6.5q8-4 18-4 16 0 38.5 9.5t29.5 26.5q6 17 17 60v2q0 5-4 10.5t-9 8.5q-11 3-22 3zm-17-404q-6-40-22.5-144.5t-27.5-189.5q-3-19-26.5-32.5t-47.5-13.5q-16 0-24.5 6.5t-6.5 19.5q17 100 36.5 228.5t27.5 183.5l21 137q3 18 27.5 31t47.5 13q14 0 22-6t6-17z"/><path transform="translate(45.2 14.992) scale(.016 -.016)" d="m462 724q30 0 30-21 0-3-2-11-43-146-76-223-6-15-27.5-25.5t-42.5-10.5q-25 0-29 17-18 80-56 80-18 0-40-19-48-44-75.5-119t-27.5-143q0-50 17-89.5t57-49.5q6-2 19-2 33 0 65.5 24.5t53.5 51 54 72.5q8 11 25 17.5t34 6.5q16 0 25.5-5.5t9.5-16.5q0-10-7-21-53-83-129-143.5t-160-60.5q-17 0-34 3-67 11-100 65.5t-33 126.5q0 26 5 56 16 96 64 179.5t126 122.5q39 19 78 19 37 0 68-20l40 104q5 14 26 24.5t42 10.5z"/><path transform="translate(52.816 14.992) scale(.016 -.016)" d="m475 401q0-33-13-78l-9-34q-15-54-29.5-111t-23.5-106q-3-18-26.5-31t-47.5-13q-15 0-23 6t-6 18q12 63 46 187l22 83q10 40 10 58 0 14-5 22-12 18-39 18-23 0-59-13-44-13-112-51l-18-254q-1-19-25.5-33t-49.5-14q-16 0-24.5 6.5t-7.5 19.5q12 142 17 213-15 1-25 6t-10 14q0 13 16 28 9 7 25 23 21 260 35 473 1 18 25.5 31.5t48.5 13.5q15 0 23.5-6t7.5-18q-16-196-30-393 115 106 223 191 9 7 22.5 10.5t26.5 3.5q15 0 24.5-4.5t9.5-13.5q0-12-16-25l-99-89-64-58q50 14 82 14 38 0 63-18 35-23 35-76z"/><path transform="translate(65.552 14.992) scale(.016 -.016)" d="m367 414-10 233q-24-43-68-138-38-81-51-105 70 10 129 10zm91-427q-29 0-33 18-36 143-53 340-90 1-179-17-94-157-175-289-8-14-33.5-23.5t-47.5-9.5q-28 0-28 15 0 6 4 13 80 140 148 256l-17-6q-16-6-29-6t-20.5 6-7.5 15q0 10 9.5 20.5t27.5 18.5q47 21 84 33 54 93 115 211 70 135 118 211 3 4 8 8l-1 5q0 18 25.5 32.5t51.5 14.5q32 0 33-24l3-67q9-241 23.5-405.5t52.5-310.5q4-15-8-28.5t-32.5-22-38.5-8.5z"/><path transform="translate(75.68 14.992) scale(.016 -.016)" d="m456 670q14 0 22.5-4t8.5-13q0-7-5-15-82-137-137.5-271.5t-85.5-278.5q-4-19-28.5-34.5t-48.5-15.5q-27 0-34 21-38 112-53.5 228.5t-28.5 301.5l-1 21q-1 22 26.5 39t54.5 17q26 0 27-18 2-24 2-38v-3q11-191 32-310 69 198 180 348 7 10 28.5 17.5t40.5 7.5z"/><path transform="translate(82.928 14.992) scale(.016 -.016)" d="m206 449q98 37 177 62-33 46-67 62-7 3-13.5 4t-7.5 1q1-1-1.5-2t-4.5-1q-51-39-83-126zm121 201q96 0 174-129 3-4 3-10 0-11-14-23-11-12-28-19-100-44-278-105-10-51-10-105 0-25 1-36 2-45 18-78 5-11 14.5-21t14.5-13q3-2 10-2t16.5 4 21.5 11q29 17 54 39t60 57q14 14 47 14 18 0 30.5-5.5t12.5-15.5q0-9-10-20-62-67-127-114t-130-47q-31 0-58 13-45 21-65 67t-20 108q0 46 12 108l-8-2-8-3q-15-5-24-5-14 0-22 7t-8 18q0 13 10.5 25.5t31.5 20.5l49 19q9 28 27 73 28 62 70 107t99 58q16 4 34 4z"/></svg>