<svg width="93.12" height="20.8" viewBox="0 0 93.12 20.8" xmlns="http://www.w3.org/2000/svg"><path transform="translate(0 16) scale(.016 -.016)" d="m348-24q-174 0-312 47v204q161-106 331-106 29 0 52.5 9t23.5 31q0 17-19 26.5t-37 15.5l-196 65q-76 29-123 74t-47 125q0 72 32.5 120t87 76.5 122.5 40.5 139 12q79 0 145.5-10t120.5-32v-203q-122 96-272 96-20 0-40-2t-33-11-13-29q0-31 40.5-47.5t124.5-39.5q34-9 75-23.5t78-37.5 60.5-59 23.5-89q0-88-48.5-144t-131-82.5-184.5-26.5z"/><path transform="translate(11.712 16) scale(.016 -.016)" d="m25 0q50 32 50 91v514q0 28-13 54t-37 41h777v-210q-33 42-95 42h-349v-101h364v-149h-364v-115h323q46 0 81 11.5t52 51.5v-230z"/><path transform="translate(25.136 16) scale(.016 -.016)" d="m848-11q-67 0-117.5 11.5t-92 39-82.5 74.5l-131 149-94-80q8-148 54-183h-360q54 41 54 214v272q0 174-54 214h360q-54-37-54-214v-69l182 156q22 19 42.5 42t28 45.5-9.5 39.5h362q-13-8-29-22t-36-31l-266-228 168-192q24-28 53-60.5t61-62.5 64-50.5 60-24.5q-62-40-163-40z"/><path transform="translate(41.712 16) scale(.016 -.016)" d="m482-26q-112 0-190 23.5t-126 64.5-70 92.5-22 106.5v351q0 57-49 88h355q-22-25-22-88v-329q0-70 40.5-102t107.5-32q77 0 107.5 36.5t30.5 112.5v314q0 63-25 88h340q-50-32-50-93v-341q0-113-53-176.5t-148.5-89.5-225.5-26z"/><path transform="translate(57.456 16) scale(.016 -.016)" d="m352 0q35 22 47 76t12 139v22l-301 391q-46 60-85 72h380q-19-16-13-32.5t23-39.5l132-171 133 171q16 20 22 38t-11 34h379q-21-8-47-30.5t-38-41.5l-302-391v-22q0-176 59-215z"/><path transform="translate(74.976 16) scale(.016 -.016)" d="m25 0q32 26 65.5 73t68.5 114l221 410q20 42 20 55 0 32-19 48h319l275-513q35-67 68.5-114t65.5-73h-359q19 13 19 50 0 31-21 68l-18 33-345-33q-20-42-20-68 0-37 19-50zm435 255 204 19-98 181z"/></svg>