<svg width="53.712" height="24.672" viewBox="0 0 53.712 24.672" xmlns="http://www.w3.org/2000/svg"><path transform="translate(0 17.28) scale(.016 -.016)" d="m415 502-31-5q-16 60-45 97-29 36-87 36-52 0-80-31-28-32-28-77 0-49 30-80 29-31 96-65 41-21 64-35t53-38q29-25 43-56 14-32 14-71 0-82-63-137t-163-55q-51 0-98 15-18 6-52 21-12 34-27 158l30 8q7-27 19-52 12-26 32-53 19-27 49-43 30-17 66-17 54 0 85 32 31 31 31 85 0 49-31 81-31 31-96 66-30 16-46 25t-43 29-41 38-25 46q-12 28-12 60 0 77 58 129 57 52 152 52 50 0 128-23 2-20 9-66 6-46 9-74z"/><path transform="translate(7.68 17.28) scale(.016 -.016)" d="m516 0h-215v27q43 5 53 17t10 59v167q0 120-93 120-57 0-98-47v-240q0-47 10-59 9-13 51-17v-27h-217l1 27q45 5 56 17 11 11 11 60v475q0 47-9 57-10 10-57 15v25q79 11 154 34v-331q71 71 141 71 64 0 101-42 37-43 37-128v-177q0-48 11-59 10-12 53-17z"/><path transform="translate(16.272 17.28) scale(.016 -.016)" d="m438 40-89-52q-29 0-49 20-17 17-25 43-3-2-16-11-14-10-19-13-6-4-17-12-12-8-18-11-7-3-16-7-9-5-16-7t-13-2q-53 0-88 38-35 37-35 85 0 70 80 98 132 46 156 66v19q0 52-21 82-22 29-59 29-27 0-43-19-17-20-29-67-7-25-32-25-16 0-31 14-16 13-16 30 0 18 33 42 26 19 70 41 44 21 82 29 51 0 85-27 46-38 46-125v-182q0-59 35-59 18 0 35 10zm-165 43v157q-9-5-24-12-16-8-35-16-19-9-25-12-30-15-44-31t-14-42q0-36 22-56 21-20 47-20 39 0 73 32z"/><path transform="translate(23.376 17.28) scale(.016 -.016)" d="m53 438h46v21q0 45 11 80 22 69 79 117 55 47 112 54 51-1 79-33 9-11 9-23 0-7-3-14-6-15-21-26-14-11-29 2-39 39-81 39-33 0-49-28-20-32-20-140 0-5 0-10l1-39h117q5-7 2-21-4-15-12-20h-107v-288q0-53 13-65t72-18v-26h-242v27q47 5 58 17t11 60v293h-69l-5 11z"/><path transform="translate(28.224 17.28) scale(.016 -.016)" d="m438 40-89-52q-29 0-49 20-17 17-25 43-3-2-16-11-14-10-19-13-6-4-17-12-12-8-18-11-7-3-16-7-9-5-16-7t-13-2q-53 0-88 38-35 37-35 85 0 70 80 98 132 46 156 66v19q0 52-21 82-22 29-59 29-27 0-43-19-17-20-29-67-7-25-32-25-16 0-31 14-16 13-16 30 0 18 33 42 26 19 70 41 44 21 82 29 51 0 85-27 46-38 46-125v-182q0-59 35-59 18 0 35 10zm-165 43v157q-9-5-24-12-16-8-35-16-19-9-25-12-30-15-44-31t-14-42q0-36 22-56 21-20 47-20 39 0 73 32z"/><path transform="translate(35.328 17.28) scale(.016 -.016)" d="m188 343h2q63 107 119 107 26 0 43-16t17-36q0-39-35-54-17-7-27 3-21 20-44 20-19 0-39-20-21-21-36-60v-183q0-49 13-61 12-12 69-16v-27h-238v27q46 5 57 17t11 60v209q0 47-9 58t-51 17v24q78 12 148 40z"/><path transform="translate(41.36 17.28) scale(.016 -.016)" d="m138 533q-22 0-38 16t-16 38q0 24 16 40t39 16q22 0 38-16 15-16 15-40 0-22-16-38t-38-16zm120-533h-227v27q47 5 58 17t11 63v205q0 47-9 58t-52 18v24q88 15 149 39v-344q0-51 11-63t59-17z"/><path transform="translate(45.728 17.28) scale(.016 -.016)" d="m517 0-144-1q-15 16-36 42t-37 47q-17 21-44 57-28 35-40 51-18 21-30 21-8 0-14-2v-110q0-49 12-61 11-12 59-17v-27h-230v27q49 4 61 17 11 12 11 61v471q0 48-10 60-10 11-55 15v24q62 7 152 35v-468q36 7 62 35 33 35 68 88 11 16 11 25 0 3-1 6-6 8-40 12v27l206 9v-26q-50-8-75-19-25-12-53-38-28-28-83-94 15-22 70-89t83-97q47-50 97-54z"/></svg>