<svg width="33.616" height="19.52" viewBox="0 0 33.616 19.52" xmlns="http://www.w3.org/2000/svg"><path transform="translate(0 12.8) scale(.016 -.016)" d="m45-83q-24 0-24 17 0 25 46 37 2 1 12.5 2.5t30.5 5.5q90 16 134 42 73 45 73 84 0 38-76 74-24 11-59 27t-82 38q-76 37-76 87 0 67 138 140 127 68 201 68 64 0 64-36 0-67-31-123-17-32-28-32-4 0-4 8 0 19 10 52 11 36 11 53 0 46-57 46-61 0-164-50-113-56-113-110 0-26 20-49t60-40l148-60q80-33 80-72 0-62-126-130-16-8-61.5-28t-122.5-51z"/><path transform="translate(6.64 12.8) scale(.016 -.016)" d="m13-64q-1 1-1 2 1 5 3 17t4 31q19 138 28 257t9 219q0 99-39 99-3 0-10-2t-10-2q-5 0-5 5 0 7 35 19 33 13 46 13 23 0 23-41 0-30-2-66t-6-77l-27-301 89 117q11 15 38 62 14 23 43 23 13 0 16-6-1-1-2.5-2t-4.5-2q-28-12-47-88-16-60-16-105 0-75 36-75 12 0 28 19l17 19q1-1 1-2 0-13-24-42-22-28-35-28-48 0-48 99 0 87 4 102-7-7-17.5-19.5t-26.5-31.5q-63-78-68-188-22-23-31-25z"/><path transform="translate(10.64 12.8) scale(.016 -.016)" d="m30 19q-29 0-29 36 0 47 49 117 21 31 43 55t44 43q29 24 53 24 15 0 25-12.5t10-27.5q0-7-4-7 0 0-7 7t-23 7q-23 0-40-11-44-31-81-79-43-56-43-101 0-23 16-23 26 0 82 77 24 34 39.5 60.5t22.5 45.5q7 7 16 7 5 0 6-4-7-13-7-47 0-43 10-77 15-53 43-53 18 0 38 31l21 32q1-1 1-2 0-16-30-54-30-37-46-37-26 0-48 58-17 48-17 81-98-146-144-146z"/><path transform="translate(15.072 12.8) scale(.016 -.016)" d="m73-52q-36 0-36 90 0 13 0.5 25t1.5 25q11 141 17 234t6 139q0 100-39 100-9 0-18-3-1-1-3-1-4 0-4 5 0 7 35 19 33 13 46 13 23 0 23-41 0-22-2.5-59t-7.5-88q-24-244-24-309 0-119 32-119 8 0 15 5t14 13l15 17q3 0 3-6 0-13-30-36-29-23-44-23z"/><path transform="translate(17.392 12.8) scale(.016 -.016)" d="m67 386q-23 0-23 20 0 19 21 28l34 15q4 2 6 2 7 0 7-9 0-3-13-19t-15-24q-4-13-17-13zm24-401q-31 0-31 69 0 24 3 67 3 45 3 68 0 69-37 69-4 0-11.5-2t-10.5-2q-5 0-5 4 0 8 34 18 35 12 45 12 15 0 15-44 0-11-1.5-29t-3.5-41-3-40.5-1-28.5q0-92 30-92 23 0 50 32 3 0 3-5 0-13-32-34-31-21-47-21z"/><path transform="translate(20 12.8) scale(.016 -.016)" d="m36-1q-8 0-8 21 0 16 3 32 13 68 19.5 117t6.5 78q0 27-7.5 35t-34.5 8q-6 0-16.5-2.5t-15.5-2.5q-4 0-4 2 0 3 27 16 53 27 55 27 25 0 25-51 0-14-6-60t-17-123l-4-27 1-2q93 166 120 166 15 0 13-129 7 9 27.5 37t55.5 74l39 37q8 8 12 8 2 0 2-3t-3-9q-24-52-24-140 0-75 36-75 14 0 44 38v-3q0-12-23-41-22-28-34-28-49 0-49 105 0 46 6 83-34-16-81-92l-14-28q-5-8-11-8-14 0-16 45 0 8 0 22t1 34q-1 17-7 23-27-8-100-163-10-21-18-21z"/><path transform="translate(25.952 12.8) scale(.016 -.016)" d="m30 19q-29 0-29 36 0 47 49 117 21 31 43 55t44 43q29 24 53 24 15 0 25-12.5t10-27.5q0-7-4-7 0 0-7 7t-23 7q-23 0-40-11-44-31-81-79-43-56-43-101 0-23 16-23 26 0 82 77 24 34 39.5 60.5t22.5 45.5q7 7 16 7 5 0 6-4-7-13-7-47 0-43 10-77 15-53 43-53 18 0 38 31l21 32q1-1 1-2 0-16-30-54-30-37-46-37-26 0-48 58-17 48-17 81-98-146-144-146z"/><path transform="translate(30.384 12.8) scale(.016 -.016)" d="m16-30q-2 2-2 3 1 7 3.5 25t6.5 49q8 60 12 105t4 75q0 31-5 48-4 4-16 4-6 0-18-3t-17-3-5 3 26 17q54 26 50 26 19 0 19-57 0-25-9-76-4-25-6-43.5t-2-31.5v-3q59 99 120 160 23 18 43 18 3 0 3-2-10-20-15.5-32t-7.5-17q-8-20-13-55-1-13-6-13-17 0-17 48 0 4 0 8t1 8q-25-24-45.5-51t-37.5-57q-41-73-37-128-5-6-12.5-12t-16.5-13z"/></svg>