<svg width="106.3" height="21.44" viewBox="0 0 106.3 21.44" xmlns="http://www.w3.org/2000/svg"><path transform="translate(0 16.32) scale(.016 -.016)" d="m180-9q-68 0-101.5 20t-33.5 50q0 15 7.5 23t24.5 8q12 0 20.5-2t18-4.5 22.5-4.5 33-2q60 0 107 6t80.5 18 54.5 28q-5 28-32.5 49t-68 38-84 35.5-81.5 41-62 54-24 74.5q0 51 28.5 95.5t74.5 79.5 99.5 60 104 38.5 87.5 13.5q19 0 30.5-6t17-16 5.5-23q0-17-10.5-28t-36.5-16q-98-19-167.5-50t-105.5-69-36-77q0-27 25.5-47t66-38 85.5-37 85.5-42.5 66-53.5 25.5-72q0-36-26-63t-71.5-45-104-27-124.5-9z"/><path transform="translate(8.88 16.32) scale(.016 -.016)" d="m129-9q-17 0-30.5 12t-21.5 37-8 63q0 105 12 188t26.5 151.5 20.5 125.5q3 30 2.5 56t-1 49.5 1.5 43.5q2 17 11 30t29 13q22 0 34-17t16.5-54.5-2.5-101.5q-7-63-21.5-136t-26-154.5-9.5-168.5l-22 17q50 132 92.5 210t82.5 112.5 80 34.5q44 0 67-28t35-80.5 18-125.5q7-64 13.5-102.5t14.5-61 17-39.5q5-8 8-17t3-19q0-17-11.5-28t-29.5-11q-25 0-45 28.5t-33 76-18 102.5q-5 63-11 103t-13.5 65.5-19.5 44.5q-21-2-56.5-48t-76-130-77.5-201q-8-24-20.5-32t-30.5-8z"/><path transform="translate(18.88 16.32) scale(.016 -.016)" d="m202-10q-45 0-78.5 21t-51.5 59-18 89q0 48 15 97t42 93 64.5 78 82.5 53.5 96 19.5q23 0 38-12t15-36q0-12-7.5-20.5t-22.5-10.5q-70-9-122.5-49t-81.5-97-29-119q0-29 5-52.5t22-60.5l-52 69q23-23 38.5-30t42.5-7q64 0 114.5 76t73.5 221q4 19 14 29.5t27 10.5q24 0 41-18.5t21-48.5q9-58 19.5-103.5t30.5-86 54-85.5q9-10 10-23t-3.5-25.5-14-20.5-22.5-8q-14 0-23 6t-17 15q-19 27-36 53.5t-31 61-24 82-14 112.5l33 1q-14-92-40-156.5t-61-103-73.5-56.5-76.5-18z"/><path transform="translate(28.832 16.32) scale(.016 -.016)" d="m530-9q-30 0-53 27.5t-35.5 90-12.5 163.5q0 48-2 77t-6.5 46-12.5 27-20 21q20 1 34.5-4.5t21.5-20 8-38.5q-14 21-23.5 28t-23.5 7q-20 0-46-25.5t-54-71.5-54-109.5-46-139.5q-10-44-23-61t-35-17q-37 0-56 45t-19 115q0 51 4.5 89t10 71 10 68 4.5 80q0 19 9 29.5t27 10.5q23 0 35.5-16.5t12.5-54.5q0-33-5.5-64t-11.5-67-10-83.5-1-111.5l-18 5q34 129 78.5 217t94 133 97.5 45q35 0 58.5-19t35.5-53.5 12-81.5q0-78 1-134t10-92 31-55q10-8 14-17.5t4-22.5-10.5-24.5-34.5-11.5z"/><path transform="translate(38.624 16.32) scale(.016 -.016)" d="m279-13q-77 0-123 37t-66.5 104-20.5 156q0 54 5.5 97t12.5 82 11 78q5 47 6.5 76.5t3.5 54.5q2 14 10 25t27 11q32 0 42-37.5t2-113.5q-5-40-10.5-71t-10-60.5-8-62-3.5-75.5q0-80 14-127t42-67 69-20q25 0 38 5t22 9.5 22 4.5q14 0 22-9t8-24q0-28-29-50.5t-86-22.5zm-121 388q-26-12-40.5-2t-14.5 29q0 21 10.5 37t51.5 31q24 9 52.5 16t57.5 11 55 4q20 0 32.5-5.5t19.5-15.5 7-25q0-17-10-25t-30-10q-42-3-74.5-9t-60-15-56.5-21z"/><path transform="translate(45.616 16.32) scale(.016 -.016)" d="m272-10q-57 0-97.5 16t-67 46-39 70-12.5 88q0 51 18.5 102.5t53.5 94 84 68.5 110 26q47 0 82-17t54.5-50.5 19.5-84.5q0-41-19-72t-52.5-52.5-78.5-33-97-11.5q-60 0-84 16.5t-24 36.5q0 12 6 17.5t20 5.5q11 0 27.5-3.5t47.5-3.5q50 0 87.5 12.5t59.5 35.5 22 53q0 34-17 51t-56 17-71.5-18-56-49-36.5-70.5-13-82.5q0-36 12-64.5t39-46 73-17.5q54 0 90.5 13t60.5 29.5 40.5 29 30.5 12.5 19-8 5-26q0-20-19.5-42.5t-53.5-42.5-77-32.5-91-12.5z"/><path transform="translate(54.672 16.32) scale(.016 -.016)" d="m209-11q-23 0-44.5 6.5t-39 25.5-30.5 55-20.5 95-7.5 146q0 84 3.5 148.5t10 119 15.5 107.5q7 38 17 53t27 15q20 0 32-17t12-57q0-28-4-61t-9.5-77-9.5-104.5-4-146.5q0-65 4.5-108.5t12-68.5 18.5-35.5 22-10.5q14 0 22 3t13.5 5.5 12.5 2.5q18 0 24-10t6-24q0-18-12-32.5t-31-22-40-7.5z"/><path transform="translate(59.488 16.32) scale(.016 -.016)" d="m209-11q-23 0-44.5 6.5t-39 25.5-30.5 55-20.5 95-7.5 146q0 84 3.5 148.5t10 119 15.5 107.5q7 38 17 53t27 15q20 0 32-17t12-57q0-28-4-61t-9.5-77-9.5-104.5-4-146.5q0-65 4.5-108.5t12-68.5 18.5-35.5 22-10.5q14 0 22 3t13.5 5.5 12.5 2.5q18 0 24-10t6-24q0-18-12-32.5t-31-22-40-7.5z"/><path transform="translate(69.76 16.32) scale(.016 -.016)" d="m180-9q-68 0-101.5 20t-33.5 50q0 15 7.5 23t24.5 8q12 0 20.5-2t18-4.5 22.5-4.5 33-2q60 0 107 6t80.5 18 54.5 28q-5 28-32.5 49t-68 38-84 35.5-81.5 41-62 54-24 74.5q0 51 28.5 95.5t74.5 79.5 99.5 60 104 38.5 87.5 13.5q19 0 30.5-6t17-16 5.5-23q0-17-10.5-28t-36.5-16q-98-19-167.5-50t-105.5-69-36-77q0-27 25.5-47t66-38 85.5-37 85.5-42.5 66-53.5 25.5-72q0-36-26-63t-71.5-45-104-27-124.5-9z"/><path transform="translate(78.64 16.32) scale(.016 -.016)" d="m202-10q-45 0-78.5 21t-51.5 59-18 89q0 48 15 97t42 93 64.5 78 82.5 53.5 96 19.5q23 0 38-12t15-36q0-12-7.5-20.5t-22.5-10.5q-70-9-122.5-49t-81.5-97-29-119q0-29 5-52.5t22-60.5l-52 69q23-23 38.5-30t42.5-7q64 0 114.5 76t73.5 221q4 19 14 29.5t27 10.5q24 0 41-18.5t21-48.5q9-58 19.5-103.5t30.5-86 54-85.5q9-10 10-23t-3.5-25.5-14-20.5-22.5-8q-14 0-23 6t-17 15q-19 27-36 53.5t-31 61-24 82-14 112.5l33 1q-14-92-40-156.5t-61-103-73.5-56.5-76.5-18z"/><path transform="translate(88.592 16.32) scale(.016 -.016)" d="m530-9q-30 0-53 27.5t-35.5 90-12.5 163.5q0 48-2 77t-6.5 46-12.5 27-20 21q20 1 34.5-4.5t21.5-20 8-38.5q-14 21-23.5 28t-23.5 7q-20 0-46-25.5t-54-71.5-54-109.5-46-139.5q-10-44-23-61t-35-17q-37 0-56 45t-19 115q0 51 4.5 89t10 71 10 68 4.5 80q0 19 9 29.5t27 10.5q23 0 35.5-16.5t12.5-54.5q0-33-5.5-64t-11.5-67-10-83.5-1-111.5l-18 5q34 129 78.5 217t94 133 97.5 45q35 0 58.5-19t35.5-53.5 12-81.5q0-78 1-134t10-92 31-55q10-8 14-17.5t4-22.5-10.5-24.5-34.5-11.5z"/><path transform="translate(98.384 16.32) scale(.016 -.016)" d="m179-10q-44 0-74 11t-44.5 28-14.5 35q0 15 9 25t26 10q10 0 16.5-4t15-9 23.5-8.5 41-3.5q64 0 112.5 15.5t66.5 53.5q-7 22-30.5 35t-56.5 22.5-68.5 20-65.5 24.5-49.5 38-19.5 61q0 35 22 64.5t58.5 51 80.5 32.5 89 11q27 0 45-9t27.5-21.5 9.5-25.5q0-15-8.5-24t-25.5-9q-6 0-12 1t-14.5 1.5-20.5 0.5q-60 0-104.5-18.5t-66.5-55.5q5-20 28.5-33t57-22 69.5-19.5 67.5-25 51.5-38.5 20-61q0-40-21-69t-57.5-48-83.5-28-99-9z"/></svg>