<svg width="129.6" height="18.032" viewBox="0 0 129.6 18.032" xmlns="http://www.w3.org/2000/svg"><path transform="translate(0 14.16) scale(.016 -.016)" d="m259 0h-142v76h152q37 0 60 22t23 53v104q0 30-15.5 48.5t-46.5 18.5h-30q-74 0-117 43.5t-43 126.5v38q0 85 46.5 127.5t133.5 42.5h143v-76h-153q-37 0-60-22t-23-53v-76q0-31 20-51.5t52-20.5h30q71 0 110.5-41t39.5-124v-66q0-85-46.5-127.5t-133.5-42.5z"/><path transform="translate(8.64 14.16) scale(.016 -.016)" d="m172 700v-220q30 20 75 20h46q81 0 120.5-38t39.5-122v-340h-85v360q0 30-17.5 47.5t-47.5 17.5h-66q-32 0-48-16.5t-17-35.5v-373h-85v700z"/><path transform="translate(17.28 14.16) scale(.016 -.016)" d="m362 30q-23-30-61-30h-89q-76 0-110.5 30.5t-34.5 104.5v20q0 155 146 155h124v50q0 31-19 48t-56 17h-155v75h145q87 0 128.5-38t41.5-122v-240q0-15 11.5-22.5t38.5-7.5v-70h-55q-13 0-28.5 8t-26.5 22zm-25 95v110h-125q-26 0-43-17t-17-43v-50q0-26 12-38t38-12h89q30 0 38 14t8 36z"/><path transform="translate(25.92 14.16) scale(.016 -.016)" d="m173 75v350h-73v75h153v-27q33 27 80 27h103v-80h-113q-32 0-48-20.5t-17-41.5v-283h109v-75h-267v75z"/><path transform="translate(34.56 14.16) scale(.016 -.016)" d="m94 160v180q0 86 37 123t123 37h47q71 0 107.5-39.5t36.5-115.5v-130h-266v-75q0-31 19-48t56-17h159v-75h-149q-88 0-129 37.5t-41 122.5zm268 205q0 26-17 43t-43 17h-58q-36 0-50.5-16.5t-14.5-48.5v-70h183z"/><path transform="translate(51.84 14.16) scale(.016 -.016)" d="M226 0V624H67V700H472V624H313V0Z"/><path transform="translate(60.48 14.16) scale(.016 -.016)" d="m94 160v180q0 86 37 123t123 37h47q71 0 107.5-39.5t36.5-115.5v-130h-266v-75q0-31 19-48t56-17h159v-75h-149q-88 0-129 37.5t-41 122.5zm268 205q0 26-17 43t-43 17h-58q-36 0-50.5-16.5t-14.5-48.5v-70h183z"/><path transform="translate(69.12 14.16) scale(.016 -.016)" d="m120 160v180q0 84 41.5 122t128.5 38h129v-75h-139q-37 0-56-17t-19-48v-220q0-31 19-48t56-17h139v-75h-129q-88 0-129 37.5t-41 122.5z"/><path transform="translate(77.76 14.16) scale(.016 -.016)" d="m172 700v-220q30 20 75 20h46q81 0 120.5-38t39.5-122v-340h-85v360q0 30-17.5 47.5t-47.5 17.5h-66q-32 0-48-16.5t-17-35.5v-373h-85v700z"/><path transform="translate(95.04 14.16) scale(.016 -.016)" d="M310 235H227L129 628V0H53V700H192L272 342L353 700H488V0H410V628Z"/><path transform="translate(103.68 14.16) scale(.016 -.016)" d="m286 0h-33q-87 0-128.5 38t-41.5 122v180q0 84 41.5 122t128.5 38h33q87 0 128.5-38t41.5-122v-180q0-84-41.5-122t-128.5-38zm10 425h-53q-37 0-56-17t-19-48v-220q0-31 19-48t56-17h53q37 0 56 17t19 48v220q0 31-19 48t-56 17z"/><path transform="translate(112.32 14.16) scale(.016 -.016)" d="m167 500v-24q31 24 80 24h46q81 0 120.5-38t39.5-122v-340h-85v360q0 30-17.5 47.5t-47.5 17.5h-66q-33 0-49-17.5t-16-37.5v-370h-85v500z"/><path transform="translate(120.96 14.16) scale(.016 -.016)" d="m286 0h-33q-87 0-128.5 38t-41.5 122v180q0 84 41.5 122t128.5 38h33q87 0 128.5-38t41.5-122v-180q0-84-41.5-122t-128.5-38zm10 425h-53q-37 0-56-17t-19-48v-220q0-31 19-48t56-17h53q37 0 56 17t19 48v220q0 31-19 48t-56 17z"/></svg>