<svg width="68.16" height="18.032" viewBox="0 0 68.16 18.032" xmlns="http://www.w3.org/2000/svg"><path transform="translate(0 14.16) scale(.016 -.016)" d="m204 0h-132v76h142q37 0 60 22t23 53v104q0 30-15.5 48.5t-46.5 18.5h-20q-74 0-117 43.5t-43 126.5v38q0 85 46.5 127.5t133.5 42.5h133v-76h-143q-37 0-60-22t-23-53v-76q0-31 20-51.5t52-20.5h20q71 0 110.5-41t39.5-124v-66q0-85-46.5-127.5t-133.5-42.5z"/><path transform="translate(7.024 14.16) scale(.016 -.016)" d="m80 700h85v-220q30 20 75 20h26q81 0 120.5-38t39.5-122v-340h-85v360q0 30-17.5 47.5t-47.5 17.5h-46q-32 0-48.5-16.5t-16.5-35.5v-373h-85z"/><path transform="translate(15.04 14.16) scale(.016 -.016)" d="m320 30q-23-30-61-30h-69q-76 0-110.5 30.5t-34.5 104.5v20q0 155 146 155h104v50q0 31-19 48t-56 17h-135v75h125q87 0 128.5-38t41.5-122v-240q0-15 11.5-22.5t38.5-7.5v-70h-55q-13 0-28.5 8t-26.5 22zm-25 95v110h-105q-26 0-43-17t-17-43v-50q0-26 12-38t38-12h69q30 0 38 14t8 36z"/><path transform="translate(22.56 14.16) scale(.016 -.016)" d="m80 500h80v-27q33 27 80 27h73v-80h-83q-33 0-49-22t-16-43v-355h-85z"/><path transform="translate(27.888 14.16) scale(.016 -.016)" d="m70 160v180q0 86 37 123t123 37h27q71 0 107.5-39.5t36.5-115.5v-130h-246v-75q0-31 19-48t56-17h139v-75h-129q-88 0-129 37.5t-41 122.5zm248 130v75q0 26-17 43t-43 17h-38q-36 0-50.5-16.5t-14.5-48.5v-70z"/><path transform="translate(39.504 14.16) scale(.016 -.016)" d="M256 624V0H169V624H15V700H410V624Z"/><path transform="translate(46.304 14.16) scale(.016 -.016)" d="m70 160v180q0 86 37 123t123 37h27q71 0 107.5-39.5t36.5-115.5v-130h-246v-75q0-31 19-48t56-17h139v-75h-129q-88 0-129 37.5t-41 122.5zm248 130v75q0 26-17 43t-43 17h-38q-36 0-50.5-16.5t-14.5-48.5v-70z"/><path transform="translate(53.76 14.16) scale(.016 -.016)" d="m70 160v180q0 84 41.5 122t128.5 38h109v-75h-119q-37 0-56-17t-19-48v-220q0-31 19-48t56-17h119v-75h-109q-88 0-129 37.5t-41 122.5z"/><path transform="translate(60.144 14.16) scale(.016 -.016)" d="m80 700h85v-220q30 20 75 20h26q81 0 120.5-38t39.5-122v-340h-85v360q0 30-17.5 47.5t-47.5 17.5h-46q-32 0-48.5-16.5t-16.5-35.5v-373h-85z"/></svg>