<svg width="129.15" height="23.168" viewBox="0 0 129.15 23.168" xmlns="http://www.w3.org/2000/svg"><path transform="translate(0 18.56) scale(.016 -.016)" d="m184 20q-12 4-25 4-14 0-27.5-7.5t-34.5-26.5l-46 195-1 6q0 5 10 9l6 1q7 0 11-8 95-171 268-171 66 0 122.5 32.5t56.5 111.5q0 36-20 68.5t-58 52.5q-31 16-60 26t-71 23q-62 18-88 30-77 36-105.5 80t-28.5 97q0 38 18 82t64.5 77 125.5 33q31 0 62-6.5t68-19.5q17-5 27-5 29 0 55 32l50-170 1-7q0-6-8-9-6-2-9-2-6 0-10 6-12 20-43 54t-83 64-116 30q-62 0-94-28.5t-41-58-9-44.5q0-71 85-114 38-18 112-40 44-13 75.5-24t61.5-26q116-60 116-186 0-55-29.5-99t-85.5-69.5-131-25.5q-37 0-85.5 9.5t-85.5 23.5z"/><path transform="translate(10.416 18.56) scale(.016 -.016)" d="m587 27q7 0 7-14 0-13-7-13h-224q-8 0-8 13 0 14 8 14h13q29 0 46.5 8t17.5 34l-1 170q0 47-2 79-3 54-25 88t-77 34q-41 0-79-22.5t-65-67.5v-281q0-26 17.5-34t47.5-8h12q9 0 9-14 0-13-9-13h-223q-8 0-8 13 0 14 8 14h12q30 0 47.5 8t17.5 34l-3 552q0 21-9.5 31t-22.5 13-43 7q-10 1-10 9v7q0 7 6 9 15 6 152 38l-1-336q67 90 158 90 78 0 116.5-43.5t41.5-108.5q1-16 1-62l1-206q0-25 18-33.5t47-8.5z"/><path transform="translate(20.464 18.56) scale(.016 -.016)" d="m96 676q0 25 17 42t42 17 42-17 17-42-17-42-42-17-42 17-17 42zm-46-676q-8 0-8 14t8 14h13q29 0 46.5 8t17.5 34l-3 305q0 21-9.5 31t-22 12.5-43.5 6.5q-6 1-7.5 3t-1.5 9q0 5 1 9t4 5q15 6 152 38l-1-419q0-26 17.5-34t47.5-8h13q7 0 7-14t-7-14z"/><path transform="translate(25.536 18.56) scale(.016 -.016)" d="m555 236q0-65-27.5-122t-74.5-91.5-101-34.5q-89 0-156 63v-210q0-26 17.5-34t46.5-8h12q8 0 8-13 0-14-8-14h-223q-8 0-8 14 0 13 8 13h12q30 0 47.5 8t17.5 34l-3 533q0 21-9.5 31t-22.5 13-43 7q-6 1-7.5 5t-1.5 11 6 9q15 5 152 39v-60q71 60 150 60 61 0 108.5-33.5t73.5-91.5 26-128zm-84 9q0 70-23 114.5t-57.5 64.5-71.5 20q-28 0-62-14t-60-37l-1-304q25-25 59-41t67-16q26 0 59 14t61.5 61 28.5 138z"/><path transform="translate(35.232 18.56) scale(.016 -.016)" d="m555 236q0-65-27.5-122t-74.5-91.5-101-34.5q-89 0-156 63v-210q0-26 17.5-34t46.5-8h12q8 0 8-13 0-14-8-14h-223q-8 0-8 14 0 13 8 13h12q30 0 47.5 8t17.5 34l-3 533q0 21-9.5 31t-22.5 13-43 7q-6 1-7.5 5t-1.5 11 6 9q15 5 152 39v-60q71 60 150 60 61 0 108.5-33.5t73.5-91.5 26-128zm-84 9q0 70-23 114.5t-57.5 64.5-71.5 20q-28 0-62-14t-60-37l-1-304q25-25 59-41t67-16q26 0 59 14t61.5 61 28.5 138z"/><path transform="translate(44.928 18.56) scale(.016 -.016)" d="m52 237q0 64 28 122t81.5 94 125.5 36 126-36 82.5-94 28.5-122q0-60-28.5-118t-82.5-95.5-126-37.5q-71 0-124.5 37.5t-82 95.5-28.5 118zm389 0q0 98-41 157.5t-113 59.5q-71 0-112-60t-41-157q0-60 18.5-109.5t53-78 81.5-28.5q71 0 112.5 61.5t41.5 154.5z"/><path transform="translate(54.144 18.56) scale(.016 -.016)" d="m430 434q0-17-12.5-29t-31.5-12q-15 0-38 15-15 8-24 12t-20 4q-24 0-52-20t-56-54l-1-282q0-25 17.5-33t47.5-8h13q8 0 8-14 0-13-8-13h-224q-7 0-7 13 0 14 7 14h13q29 0 46.5 8t17.5 33l-3 308q0 21-9.5 31t-22 12.5-43.5 6.5q-6 1-7.5 5t-1.5 12q0 7 5 9 15 6 152 38v-98q38 42 80.5 69.5t81.5 27.5q30 0 51-15.5t21-39.5z"/><path transform="translate(61.136 18.56) scale(.016 -.016)" d="m96 676q0 25 17 42t42 17 42-17 17-42-17-42-42-17-42 17-17 42zm-46-676q-8 0-8 14t8 14h13q29 0 46.5 8t17.5 34l-3 305q0 21-9.5 31t-22 12.5-43.5 6.5q-6 1-7.5 3t-1.5 9q0 5 1 9t4 5q15 6 152 38l-1-419q0-26 17.5-34t47.5-8h13q7 0 7-14t-7-14z"/><path transform="translate(70.336 18.56) scale(.016 -.016)" d="m66 0q-8 0-8 15 0 13 8 13h14q33 0 60 23t27 57v528q0 35-20.5 48.5t-66.5 13.5h-14q-7 0-7 14t7 14h187l248-591 260 591h178q5 0 6.5-3.5t1.5-10.5q0-14-8-14h-15q-47 0-66-14t-19-48v-545q0-35 20-49t65-14h15q7 0 7-13 0-15-7-15h-281q-6 0-6 15 0 13 6 13h17q46 0 66 14.5t20 48.5v541l-275-632h-12l-268 633v-525q0-34 28-57t58-23h16q6 0 6-13 0-15-6-15z"/><path transform="translate(86.544 18.56) scale(.016 -.016)" d="m96 676q0 25 17 42t42 17 42-17 17-42-17-42-42-17-42 17-17 42zm-46-676q-8 0-8 14t8 14h13q29 0 46.5 8t17.5 34l-3 305q0 21-9.5 31t-22 12.5-43.5 6.5q-6 1-7.5 3t-1.5 9q0 5 1 9t4 5q15 6 152 38l-1-419q0-26 17.5-34t47.5-8h13q7 0 7-14t-7-14z"/><path transform="translate(91.616 18.56) scale(.016 -.016)" d="m591 27q8 0 8-14 0-13-8-13h-224q-7 0-7 13 0 14 7 14h14q29 0 46 8t17 34l-1 186-1 64q0 53-23.5 87.5t-79.5 34.5q-41 0-79-22.5t-64-68.5l-1-281q0-25 18-33.5t47-8.5h13q7 0 7-14 0-13-7-13h-224q-8 0-8 13 0 14 8 14h13q29 0 47 8.5t18 33.5l-3 306q0 21-9.5 31t-23 13-43.5 7q-6 1-7.5 4.5t-1.5 11.5q0 7 5 9 15 6 152 38v-89q66 89 157 89 79 0 119.5-43.5t43.5-107.5q1-18 1-72 0-82-3-197 0-26 17.5-34t46.5-8z"/><path transform="translate(101.74 18.56) scale(.016 -.016)" d="m40 235q0 59 28 118t83 97.5 132 38.5q53 0 92.5-16.5t60-41 20.5-46.5q0-17-11-29.5t-28-12.5q-19 0-32 13.5t-29 41.5q-31 54-87 54-41 0-74-27t-52-76-19-113q0-70 24.5-115.5t62.5-66.5 79-21q86 0 144 81 5 6 10 6t8-2q7-4 7-10 0-4-2-8-26-52-72-82.5t-105-30.5q-64 0-119.5 31.5t-88 88-32.5 128.5z"/><path transform="translate(109.89 18.56) scale(.016 -.016)" d="m587 27q7 0 7-14 0-13-7-13h-224q-8 0-8 13 0 14 8 14h13q29 0 46.5 8t17.5 34l-1 170q0 47-2 79-3 54-25 88t-77 34q-41 0-79-22.5t-65-67.5v-281q0-26 17.5-34t47.5-8h12q9 0 9-14 0-13-9-13h-223q-8 0-8 13 0 14 8 14h12q30 0 47.5 8t17.5 34l-3 552q0 21-9.5 31t-22.5 13-43 7q-10 1-10 9v7q0 7 6 9 15 6 152 38l-1-336q67 90 158 90 78 0 116.5-43.5t41.5-108.5q1-16 1-62l1-206q0-25 18-33.5t47-8.5z"/><path transform="translate(119.94 18.56) scale(.016 -.016)" d="m52 237q0 64 28 122t81.5 94 125.5 36 126-36 82.5-94 28.5-122q0-60-28.5-118t-82.5-95.5-126-37.5q-71 0-124.5 37.5t-82 95.5-28.5 118zm389 0q0 98-41 157.5t-113 59.5q-71 0-112-60t-41-157q0-60 18.5-109.5t53-78 81.5-28.5q71 0 112.5 61.5t41.5 154.5z"/></svg>