<svg width="154.96" height="23.168" viewBox="0 0 154.96 23.168" xmlns="http://www.w3.org/2000/svg"><path transform="translate(0 18.56) scale(.016 -.016)" d="m54 130q-3 6-3 11 0 11 10 18l57 43q5 5 12 5 9 0 17-11 67-108 225-108 69 0 117.5 25t48.5 80q0 41-27.5 64t-84.5 41q-52 16-65 19-86 25-124 39-96 36-127 83t-31 98q0 42 26.5 90.5t84 83 144.5 34.5q91 0 153-22.5t118-74.5q7-7 7-14 0-10-10-16l-64-43q-8-5-13-5-9 0-17 9-60 64-165 64-60 0-92.5-18t-43-40-10.5-39q0-36 28-58t83-40q5-2 77-23 45-12 93-27 105-35 140.5-89t35.5-104q0-54-25.5-103t-89-81.5-171.5-32.5q-125 0-200.5 40.5t-113.5 101.5z"/><path transform="translate(11.136 18.56) scale(.016 -.016)" d="m549 334v-313q0-10-5.5-15.5t-15.5-5.5h-64q-21 0-21 23 0 284-1 294-4 57-32 90t-73 33q-35 0-67.5-20t-54-61.5-21.5-101.5v-236q0-10-5.5-15.5t-15.5-5.5h-65q-10 0-15.5 5.5t-5.5 15.5v691q0 10 5.5 15.5t15.5 5.5h65q10 0 15.5-5.5t5.5-15.5v-222q0-14 9-14t22 12q27 24 59.5 36.5t61.5 12.5q75 0 139-43.5t64-159.5z"/><path transform="translate(21.168 18.56) scale(.016 -.016)" d="m73 693q0 27 19 46t46 19 46-19 19-46-19-46-46-19-46 19-19 46zm97-693h-65q-10 0-15.5 5.5t-5.5 15.5v482q0 10 5.5 15.5t15.5 5.5h65q10 0 15.5-5.5t5.5-15.5v-482q0-10-5.5-15.5t-15.5-5.5z"/><path transform="translate(25.584 18.56) scale(.016 -.016)" d="m583 262q0-61-19-122.5t-72-107-149-45.5q-78 0-130 42-7 7-14 7-10 0-10-17v-210q0-10-5.5-15.5t-15.5-5.5h-60q-10 0-15.5 5.5t-5.5 15.5v694q0 10 5.5 15.5t15.5 5.5h60q10 0 15.5-5.5t5.5-15.5q0-8 2.5-12.5t6.5-4.5q5 0 9 4 53 47 136 47 96 0 149-45.5t72-107 19-122.5zm-100 0q0 77-36.5 130t-113.5 53q-76 0-110.5-52.5t-34.5-130.5 34.5-130.5 110.5-52.5q77 0 113.5 53t36.5 130z"/><path transform="translate(35.712 18.56) scale(.016 -.016)" d="m583 262q0-61-19-122.5t-72-107-149-45.5q-78 0-130 42-7 7-14 7-10 0-10-17v-210q0-10-5.5-15.5t-15.5-5.5h-60q-10 0-15.5 5.5t-5.5 15.5v694q0 10 5.5 15.5t15.5 5.5h60q10 0 15.5-5.5t5.5-15.5q0-8 2.5-12.5t6.5-4.5q5 0 9 4 53 47 136 47 96 0 149-45.5t72-107 19-122.5zm-100 0q0 77-36.5 130t-113.5 53q-76 0-110.5-52.5t-34.5-130.5 34.5-130.5 110.5-52.5q77 0 113.5 53t36.5 130z"/><path transform="translate(45.84 18.56) scale(.016 -.016)" d="m48 262q0 59 22 121.5t80 108 158 45.5q99 0 157-45.5t80.5-108 22.5-121.5-22.5-121.5-80.5-108-157-45.5q-100 0-158 45.5t-80 108-22 121.5zm419 0q0 77-39 130t-120 53-120-53-39-130 39-130 120-53 120 53 39 130z"/><path transform="translate(55.696 18.56) scale(.016 -.016)" d="m180 503v-30q0-8 2.5-12.5t6.5-4.5q7 0 14 9 54 60 136 66h2q10 0 15-5.5t5-14.5v-69q0-21-12-21-4 1-12 1-34 0-68.5-15t-59-43-29.5-63v-280q0-10-5.5-15.5t-15.5-5.5h-65q-10 0-15.5 5.5t-5.5 15.5v482q0 10 5.5 15.5t15.5 5.5h65q10 0 15.5-5.5t5.5-15.5z"/><path transform="translate(61.952 18.56) scale(.016 -.016)" d="m73 693q0 27 19 46t46 19 46-19 19-46-19-46-46-19-46 19-19 46zm97-693h-65q-10 0-15.5 5.5t-5.5 15.5v482q0 10 5.5 15.5t15.5 5.5h65q10 0 15.5-5.5t5.5-15.5v-482q0-10-5.5-15.5t-15.5-5.5z"/><path transform="translate(69.968 18.56) scale(.016 -.016)" d="m695 16q0-16-19-16h-84q-18 0-24 17l-66 184q-6 17-24 17h-254q-18 0-24-17l-66-184q-6-17-24-17h-84q-19 0-19 16l2 8 266 692q6 17 24 17h104q18 0 24-17l266-692zm-344 584q-4 0-8-4t-6-10l-87-247-2-8q0-16 19-16h168q19 0 19 16l-2 8-87 247q-5 14-14 14z"/><path transform="translate(81.2 18.56) scale(.016 -.016)" d="m549 334v-313q0-10-5.5-15.5t-15.5-5.5h-65q-10 0-15.5 5.5t-5.5 15.5v296q-3 57-31.5 90t-73.5 33q-32 0-63.5-17.5t-53.5-53-26-88.5v-260q0-10-5.5-15.5t-15.5-5.5h-65q-10 0-15.5 5.5t-5.5 15.5v482q0 10 5.5 15.5t15.5 5.5h65q10 0 15.5-5.5t5.5-15.5v-12q0-7 2.5-10.5t6.5-3.5q8 0 21 11 28 23 60.5 36t61.5 13q75 0 139-43.5t64-159.5z"/><path transform="translate(91.28 18.56) scale(.016 -.016)" d="m328 503v-42q0-10-5.5-15.5t-15.5-5.5h-59q-10 0-15.5-5.5t-5.5-15.5v-267q0-33 8-47t29-14q7 0 29 4 3 1 7 1 17 0 17-19v-59q0-20-19-23-39-8-75-8-47 0-69.5 17t-27.5 40-5 60v315q0 10-5.5 15.5t-15.5 5.5h-54q-10 0-15.5 5.5t-5.5 15.5v42q0 10 5.5 15.5t15.5 5.5h54q10 0 15.5 5.5t5.5 15.5v107q0 10 5.5 15.5t15.5 5.5h64q10 0 15.5-5.5t5.5-15.5v-107q0-10 5.5-15.5t15.5-5.5h59q10 0 15.5-5.5t5.5-15.5z"/><path transform="translate(97.248 18.56) scale(.016 -.016)" d="m73 693q0 27 19 46t46 19 46-19 19-46-19-46-46-19-46 19-19 46zm97-693h-65q-10 0-15.5 5.5t-5.5 15.5v482q0 10 5.5 15.5t15.5 5.5h65q10 0 15.5-5.5t5.5-15.5v-482q0-10-5.5-15.5t-15.5-5.5z"/><path transform="translate(101.66 18.56) scale(.016 -.016)" d="m444 488q9 0 9 15 0 10 5.5 15.5t15.5 5.5h61q10 0 15.5-5.5t5.5-15.5v-694q0-10-5.5-15.5t-15.5-5.5h-61q-10 0-15.5 5.5t-5.5 15.5v210q0 17-10 17-7 0-14-7-52-42-130-42-95 0-148.5 45.5t-72.5 107.5-19 122 19 122 72.5 107.5 148.5 45.5q78 0 130-42 8-7 15-7zm10-226q0 78-34.5 130.5t-109.5 52.5q-77 0-114-53t-37-130 37-130 114-53q75 0 109.5 52.5t34.5 130.5z"/><path transform="translate(111.95 18.56) scale(.016 -.016)" d="m436 503q0 10 5.5 15.5t15.5 5.5h65q10 0 15.5-5.5t5.5-15.5v-482q0-10-5.5-15.5t-15.5-5.5h-65q-10 0-15.5 5.5t-5.5 15.5v12q0 17-10 17-4 0-14-8-27-26-62-39.5t-66-13.5q-75 0-139 43.5t-64 159.5v311q0 10 5.5 15.5t15.5 5.5h65q10 0 15.5-5.5t5.5-15.5v-294q3-57 31.5-90t73.5-33q32 0 63.5 17.5t53.5 53 26 88.5z"/><path transform="translate(121.92 18.56) scale(.016 -.016)" d="m532 235h-356q-11 0-16-6t-4-16q11-60 46.5-97t97.5-37q47 0 75 17.5t49 57.5q8 14 19 14 3 0 9-2l60-19q15-4 15-17 0-7-2-10-28-59-83.5-96t-141.5-37q-97 0-153 45.5t-77.5 108-21.5 121.5 21.5 121.5 77.5 108 153 45.5 153.5-45.5 78-108 21.5-121.5v-13q0-14-21-14zm-368 107q-1-3-1-7 0-16 19-16h237q11 0 16.5 5.5t2.5 14.5q-14 48-48.5 77t-89.5 29q-53 0-87-28t-49-75z"/><path transform="translate(135.04 18.56) scale(.016 -.016)" d="m616 382q0-3 10-8 47-20 76.5-60t29.5-100q0-214-244-214h-378q-10 0-15.5 5.5t-5.5 15.5v691q0 10 5.5 15.5t15.5 5.5h341q126 0 193.5-42.5t67.5-147.5q0-43-21-86t-65-66q-10-5-10-9zm-395 255q-23 0-23-21v-167q0-10 5.5-15.5t15.5-5.5h232q87 0 114.5 28t27.5 76q0 44-21 66.5t-50 29-71 8.5q-20 1-230 1zm-2-541h214q53 0 89.5 6t63 32 26.5 80-26 80-59 32-76 6h-232q-10 0-15.5-5.5t-5.5-15.5v-194q0-10 5.5-15.5t15.5-5.5z"/><path transform="translate(147.26 18.56) scale(.016 -.016)" d="m288 0h-67q-10 0-15.5 5.5t-5.5 15.5l1 507q0 10-5.5 15.5t-15.5 5.5h-101q-10 0-15.5 5.5t-5.5 15.5v31q0 21 21 22 59 4 97.5 28.5t52.5 70.5q5 18 23 18h36q10 0 15.5-5.5t5.5-15.5v-698q0-10-5.5-15.5t-15.5-5.5z"/></svg>