<svg width="116.91" height="21.188" viewBox="0 0 116.91 21.188" xmlns="http://www.w3.org/2000/svg"><path transform="translate(0 15.781) scale(.0078125 -.0078125)" d="m1628 684q3-22 3.5-43t0.5-41q0-105-32.5-197t-89.5-169-134.5-138-168.5-103-190.5-64.5-199.5-22.5q-94 0-181 8t-165 8q-60 0-113-8.5t-98-34.5q-37 137-78.5 248.5t-76.5 190.5q-41 92-82 165 119-62 238.5-98t227.5-55.5 197-25 148-5.5q66 0 133 8t135 25q-17 23-35 41t-33 29q-18 13-35 22-29 14-78.5 27.5t-110 29.5-129 35-136 44-129 57-109.5 73q-38 33-63 71.5t-39.5 79-21 81-7.5 77.5q-35-14-63-27t-48-22l-40-20q36 108 100.5 191t145 144 172 103 181.5 69q210 63 455 72 76 0 162 6 74 5 169 15.5t200 30.5q-32-48-51.5-104t-30.5-113-15-112.5-4-101.5q0-31 1-56t3-43q2-21 5-38-175 79-341 110.5t-321 31.5q-53 0-101-3.5t-96-9.5q11-48 39.5-80t57.5-52q34-23 73-36 76-24 165-58.5t178-85.5 171-120 144-160q38 32 74 70.5t67 83.5z"/><path transform="translate(13.023 15.781) scale(.0078125 -.0078125)" d="m645-29q-91 16-161 23.5t-138 7.5q-128 0-301-37 75 174 116.5 355t41.5 374q0 118-16 236.5t-50 243.5q64-18 126-32t124-24 126-15.5 132-6.5q9-255 12-510 76 8 149.5 16.5t147.5 18.5q11 149 35 299t68 305q57-23 108.5-38.5t102.5-25 103-14 110-4.5h69q-57-109-94.5-219t-54.5-226q45 10 90.5 20t91.5 21q-18-110-18-229 0-57 4.5-114.5t13.5-112.5q-48 2-92.5 3.5t-89.5 4.5q11-74 28.5-148t43.5-149q-28 1-48 1.5t-35.5 1-28.5 1-26 0.5q-87 0-174.5-15.5t-191.5-45.5q-11 103-17 207.5t-6 213.5q-75 17-146 38t-143 44q-2-117-4.5-234t-7.5-235z"/><path transform="translate(26.078 15.781) scale(.0078125 -.0078125)" d="m1323 1161q-35-28-66-58.5t-59-64.5q94-18 178-57.5t146-99.5 98.5-139.5 36.5-176.5q0-110-36.5-198.5t-101-158-152.5-120-191-83-217-48.5-230-16q-41 0-85 1.5t-85.5 4.5-77 8.5-59.5 13.5q28 23 53.5 46.5t46.5 47.5q-95 18-178.5 54t-146.5 92.5-99.5 133-36.5 175.5q0 116 42.5 209.5t116.5 166.5 174 125 215 86 239.5 50 247.5 16q51 0 104.5-2.5t112.5-7.5zm-100-526q0 85-36.5 139t-96.5 86q-11-26-21-53.5t-18-56.5q-70 20-117.5 27t-79.5 7q-63 0-127-21t-115-60.5-83.5-96-32.5-127.5q0-68 34.5-124.5t90.5-104.5q9 31 13.5 63t6.5 66q74-34 131-47t100-13q66 0 129 21.5t112.5 62.5 79.5 99.5 30 132.5z"/><path transform="translate(39.516 15.781) scale(.0078125 -.0078125)" d="m1225 438q-77-118-187-211.5t-255.5-161-327.5-108.5-402-55q0 63-1 118.5t-9 109.5-25.5 109-50.5 117q141-42 267-61t243-19q53 0 105.5 3.5t105.5 9.5q-18 244-60 489.5t-110 472.5q146-51 281-83.5t260-32.5h69q-14-71-24.5-149t-18.5-157.5-12-158.5-4-152q0-35 0.5-69t3.5-68q37 12 75.5 27t76.5 30z"/><path transform="translate(49.273 15.781) scale(.0078125 -.0078125)" d="m1587 1188q0-306-58.5-538.5t-174-389-286.5-236-396-79.5q-59 0-120 7t-124 21q12 6 26 16 12 8 27.5 19.5t32.5 26.5q-105 33-186 106.5t-135.5 179-82.5 239-28 286.5q0 37 1.5 67t4.5 60 7.5 62.5 10.5 74.5q24-2 51-4 23-2 53-3t62-1q42 0 92 3t105.5 10.5 115 21.5 120.5 37q-37-85-65-155.5t-46.5-134-27.5-123-9-120.5q0-103 25-191.5t77-162.5l5 30q70-18 110-18 60 0 107 22t82 58.5 60 84.5 40 100 22 104.5 7 99.5q0 41-10.5 93.5t-28.5 110-41.5 116-50.5 112.5q41-12 90-22t100-17.5 102.5-11.5 98.5-4q59 0 118.5 9t116.5 34z"/><path transform="translate(62.172 15.781) scale(.0078125 -.0078125)" d="m1884 1141q-38-78-64-150t-42-138-22.5-127-6.5-116q0-108 23.5-197.5t60.5-163 83.5-132.5 92.5-105q-40 0-73.5 4t-73.5 4q-43 0-84-5.5t-83.5-16-88.5-26.5-99-38q-46 119-74 238t-40 238q-50-99-84-207t-49-232q-12 0-50.5-1t-94-5.5-121.5-15-132-29.5q-14 134-47 252.5t-84 224.5q-12-115-41-231t-74-232q-206 86-411 86-31 0-74-3.5t-86-6.5q157 151 238.5 338.5t81.5 417.5q0 26-2 55.5t-5 61.5q-75 71-159.5 139t-178.5 139q42-8 112.5-21.5t168.5-13.5q85 0 188 17t218 65q66-91 131-210 56-102 117.5-244.5t111.5-319.5l70 174q34 85 65.5 164t59 155.5 50 154 40.5 161.5q72-38 147-59t145.5-30.5 132.5-11 107-1.5z"/><path transform="translate(77.992 15.781) scale(.0078125 -.0078125)" d="m1616 377q-42-20-83-38.5t-83-35.5q92-166 203-313-155 0-296-30.5t-286-94.5q11 26 13.5 53.5t2.5 56.5q0 48-9 105.5t-27 120.5q-42-6-84-8.5t-82-2.5q-71 0-139.5 8.5t-131.5 28.5q-17-74-31-151.5t-28-159.5q-51 26-112 47-52 17-120.5 32t-144.5 15q-65 0-138-11t-161-36q68 67 127.5 136.5t109 134 88 121 64.5 98.5q-29 35-53.5 75t-46.5 86q40-20 79-36.5t77-30.5q46 81 97 163t109 160q-12 29-30.5 66t-40 76.5-45.5 78.5-47 72q96-26 192.5-41t192.5-20q55 45 115 82.5t126 66.5q-21-35-41-72t-39-75q50 5 101 11.5t106 17.5q37-135 81-263t95-252q44 25 87.5 51.5t86.5 57.5q31-105 67-193t79-157zm-670 106q-35 78-76.5 157.5t-89.5 160.5q-59-158-108-336 18-2 35.5-2t35.5 0q51 0 101.5 4.5t101.5 15.5z"/><path transform="translate(91.18 15.781) scale(.0078125 -.0078125)" d="m1612 53q-146-11-283.5-50.5t-279.5-108.5q-22 215-105 397-40-9-81-14t-85-5q-17 0-33.5 0t-33.5 2q3-155 12-309-32 5-64 6.5t-61 1.5q-99 0-217-22.5t-254-67.5q51 138 87.5 274t57.5 275q-68 45-116.5 88t-73.5 72q49-14 101.5-26t105.5-21q12 114 12 231v37q-54-17-107-36t-106-42q31 100 31 185 0 71-18 134.5t-52 119.5q215 30 380.5 40.5t295.5 10.5q60 0 138-2.5t160-12.5 163.5-29 149.5-52 116.5-83 65.5-120q23 11 45 22t45 25q-12-72-40-143.5t-69.5-138.5-96-127-118.5-111q144-228 328-400zm-678 867q-40 0-95-4.5t-120-10.5q-3-96-5.5-191.5t-2.5-189.5q60 9 113 29.5t94 53.5 67.5 80.5 34.5 111.5q38 6 77.5 12t80.5 14q-2 0-2 1v1h2q-20 22-41.5 39.5t-49.5 29.5-65 18-88 6z"/><path transform="translate(104.01 15.781) scale(.0078125 -.0078125)" d="m1587 1188q0-306-58.5-538.5t-174-389-286.5-236-396-79.5q-59 0-120 7t-124 21q12 6 26 16 12 8 27.5 19.5t32.5 26.5q-105 33-186 106.5t-135.5 179-82.5 239-28 286.5q0 37 1.5 67t4.5 60 7.5 62.5 10.5 74.5q24-2 51-4 23-2 53-3t62-1q42 0 92 3t105.5 10.5 115 21.5 120.5 37q-37-85-65-155.5t-46.5-134-27.5-123-9-120.5q0-103 25-191.5t77-162.5l5 30q70-18 110-18 60 0 107 22t82 58.5 60 84.5 40 100 22 104.5 7 99.5q0 41-10.5 93.5t-28.5 110-41.5 116-50.5 112.5q41-12 90-22t100-17.5 102.5-11.5 98.5-4q59 0 118.5 9t116.5 34z"/></svg>