<svg width="106.32" height="19.703" viewBox="0 0 106.32 19.703" xmlns="http://www.w3.org/2000/svg"><path transform="translate(0 14.945) scale(.0078125 -.0078125)" d="m213 218q0 16 11 43.5t28 49.5 37.5 29 39.5-18q33-60 60.5-94t57.5-50.5 66.5-20.5 87.5-4q62 0 127 21t118.5 53 87.5 70 34 71q0 24-21 48t-57.5 46-85.5 41-104 32q-63 9-129 20.5t-129 28-118 41.5-97 61-66 85.5-24 117.5q0 78 24 145t65.5 122 97.5 97.5 120.5 71.5 134 44 138.5 15q72 0 130.5-20t99.5-54 63.5-77.5 22.5-90.5q0-25-1-57t-9-60.5-25-48.5-50-20q-20 0-31 8t-16 20-6 26-1 26q0 53-14 87t-40.5 53.5-65 27-87.5 7.5q-34 0-74-12t-81-33-79.5-49.5-68.5-63-48-73-18-78.5q0-47 32.5-78.5t85-52.5 119-35 135.5-26q56-10 112.5-23t107.5-31 95-43 76.5-59.5 51-79.5 18.5-103q0-71-31.5-127t-82.5-99-114.5-74-127.5-50.5-122.5-28.5-98.5-9q-31 0-70 3t-79 11.5-78 24.5-68 42-48 64-18 90z"/><path transform="translate(9.9922 14.945) scale(.0078125 -.0078125)" d="m184 1351q0 16 8 37.5t22.5 40.5 34.5 32 44 13q34 0 57.5-23t23.5-53q0-39-1.5-84t-3-93.5-3-98.5-1.5-98v-75q64 66 148.5 100.5t179.5 34.5q39 0 80-4.5t82-13.5 79.5-22.5 72.5-32.5q91-52 144-105.5t80-113 34-127.5 6-150l-2-372q0-21-1.5-51.5t-11.5-59.5-31-49.5-60-20.5q-24 0-44 9t-34.5 24.5-22 36-7.5 44.5q0 54 4.5 106.5t9.5 104.5 9.5 104.5 4.5 105.5q0 38-3 83t-15.5 90.5-37.5 88-68.5 75.5-109 52.5-158.5 19.5q-64 0-123.5-22.5t-105-56.5-72.5-74-27-76v-421q0-31 4.5-70.5t4.5-73.5q0-20-1.5-40.5t-9-37-24-27.5-46.5-11q-13 0-32 2.5t-36.5 13-30 32-12.5 59.5z"/><path transform="translate(21.047 14.945) scale(.0078125 -.0078125)" d="m133 532q0 155 50 263t131.5 175.5 185 98 211.5 30.5q125 0 224.5-41t168.5-118 106-186.5 37-245.5q0-79-21-149t-58-129.5-88.5-106.5-112.5-80.5-129-51-138-17.5q-76 0-147.5 23.5t-134.5 64.5-115.5 95.5-90 116.5-58.5 128-21 130zm173 25q0-74 32-148.5t84.5-134.5 120-97.5 137.5-37.5q76 0 147.5 26t126 76 87.5 122 33 164q0 90-24.5 164.5t-67.5 128.5-103 83.5-130 29.5q-78 0-157-24.5t-142.5-72-103.5-117.5-40-162z"/><path transform="translate(31.836 14.945) scale(.0078125 -.0078125)" d="m188 129q0 26 3 54t3 54q0 61-6 127-5 53-5.5 111t3.5 102l33 395q4 48 24.5 76.5t73.5 28.5q22 0 38.5-7.5t28-19.5 18.5-26.5 10-28.5q41 31 90 53t101 36 105 20.5 103 6.5q42 0 96-5.5t102-23.5 81-52 33-92q0-41-25.5-66.5t-67.5-25.5q-32 0-50 14.5t-32 32.5q-6 7-14 15t-22.5 15-37.5 11-59 4q-113 0-196-23.5t-137-73.5-80-128.5-26-188.5q0-41 1-77.5t3.5-72.5 5.5-73 6-79q2-32 6-66t4-66q0-9-5-25t-16.5-31.5-30-27-45.5-11.5q-35 0-57.5 8t-36 24.5-18.5 42-5 59.5z"/><path transform="translate(40.883 14.945) scale(.0078125 -.0078125)" d="m726-15q-99 0-164 39.5t-105 106-60 152-28 178-9 184.5-3 170q-27 0-48.5 0t-42.5-1q-12-1-22-1.5t-21.5-1-26-1-35.5-0.5q-12 0-32 6t-40 17-34.5 27.5-14.5 37.5 9 39 24.5 30.5 36.5 19.5 44 7l210-5q3 25 6 50t5 49q3 29 4 54t3 48.5 4.5 47 8.5 49.5q3 17 14 33.5t25.5 29.5 31 21 31.5 8q12 0 25-6t24-17.5 18.5-27 7.5-34.5q0-40-0.5-67t-2-46-3.5-33-4-28q-2-11-3.5-23.5t-3-28.5-3.5-36.5-5-48.5q57 1 108.5 2.5t101.5 3 102 2.5 111 1q20 0 35.5-10.5t26-25.5 16-31.5 5.5-28.5q0-21-9-37.5t-22-27.5-29-16-29-5l-409 7q-4-4-4-9 0-53-2-121.5t-0.5-139.5 8.5-139.5 25.5-122 50.5-86.5 84-33q17 0 40.5 6.5t46.5 15.5 43 20 31 20q11 10 29 18t30 8q38 0 48.5-18.5t10.5-50.5q0-11-5-26.5t-13-25.5q-19-24-49.5-50.5t-65.5-48-71-35.5-66-14z"/><path transform="translate(55.797 14.945) scale(.0078125 -.0078125)" d="m213 218q0 16 11 43.5t28 49.5 37.5 29 39.5-18q33-60 60.5-94t57.5-50.5 66.5-20.5 87.5-4q62 0 127 21t118.5 53 87.5 70 34 71q0 24-21 48t-57.5 46-85.5 41-104 32q-63 9-129 20.5t-129 28-118 41.5-97 61-66 85.5-24 117.5q0 78 24 145t65.5 122 97.5 97.5 120.5 71.5 134 44 138.5 15q72 0 130.5-20t99.5-54 63.5-77.5 22.5-90.5q0-25-1-57t-9-60.5-25-48.5-50-20q-20 0-31 8t-16 20-6 26-1 26q0 53-14 87t-40.5 53.5-65 27-87.5 7.5q-34 0-74-12t-81-33-79.5-49.5-68.5-63-48-73-18-78.5q0-47 32.5-78.5t85-52.5 119-35 135.5-26q56-10 112.5-23t107.5-31 95-43 76.5-59.5 51-79.5 18.5-103q0-71-31.5-127t-82.5-99-114.5-74-127.5-50.5-122.5-28.5-98.5-9q-31 0-70 3t-79 11.5-78 24.5-68 42-48 64-18 90z"/><path transform="translate(65.789 14.945) scale(.0078125 -.0078125)" d="m726-15q-99 0-164 39.5t-105 106-60 152-28 178-9 184.5-3 170q-27 0-48.5 0t-42.5-1q-12-1-22-1.5t-21.5-1-26-1-35.5-0.5q-12 0-32 6t-40 17-34.5 27.5-14.5 37.5 9 39 24.5 30.5 36.5 19.5 44 7l210-5q3 25 6 50t5 49q3 29 4 54t3 48.5 4.5 47 8.5 49.5q3 17 14 33.5t25.5 29.5 31 21 31.5 8q12 0 25-6t24-17.5 18.5-27 7.5-34.5q0-40-0.5-67t-2-46-3.5-33-4-28q-2-11-3.5-23.5t-3-28.5-3.5-36.5-5-48.5q57 1 108.5 2.5t101.5 3 102 2.5 111 1q20 0 35.5-10.5t26-25.5 16-31.5 5.5-28.5q0-21-9-37.5t-22-27.5-29-16-29-5l-409 7q-4-4-4-9 0-53-2-121.5t-0.5-139.5 8.5-139.5 25.5-122 50.5-86.5 84-33q17 0 40.5 6.5t46.5 15.5 43 20 31 20q11 10 29 18t30 8q38 0 48.5-18.5t10.5-50.5q0-11-5-26.5t-13-25.5q-19-24-49.5-50.5t-65.5-48-71-35.5-66-14z"/><path transform="translate(74.875 14.945) scale(.0078125 -.0078125)" d="m133 426q0 78 22.5 162.5t64.5 157.5q40 73 98.5 137t130.5 111.5 155.5 75 174.5 27.5q69 0 133-18.5t120-50.5 102.5-76 79.5-94.5 51-105.5 18-110q0-49-5.5-86.5t-13.5-74.5q-6-38-12-78.5t-6-94.5q0-47 7-77.5t20-49.5 31.5-26.5 41.5-7.5q6 0 15 3.5t17 8 14 9 8 7.5q11 11 21.5 19.5t28.5 8.5q36 0 54.5-17t18.5-56q0-24-14.5-50t-40.5-47.5-62-35.5-80-14q-88 0-150.5 49.5t-89.5 135.5q-37-39-81-74.5t-97-62-117.5-42-142.5-15.5q-59 0-120.5 16t-119 45-107.5 70.5-87.5 91.5-59 108-21.5 121zm187 2q0-62 33.5-114t86.5-89 118.5-57.5 128.5-20.5q84 0 154.5 32t121 83 78.5 114.5 28 125.5q0 35 15.5 61.5t29.5 50.5q4 5 4.5 15.5t0 22-1.5 21.5-1 14q0 22-15 48t-40.5 52-58 50.5-66.5 43.5-68 30.5-61 11.5q-76 0-141.5-21t-119.5-57-96.5-84.5-71-103.5-43.5-114-15-115z"/><path transform="translate(86.82 14.945) scale(.0078125 -.0078125)" d="m133 420q0 138 40 259.5t118 213 193 144.5 264 53q28 0 64-10t73-29 73-45.5 64-59 45-70.5 17-79q0-12-5-30t-13.5-34-20.5-26-26.5-7.5-31.5 21.5-35 63q-14 32-39.5 55t-58.5 37.5-70.5 21.5-74.5 7q-91 0-163.5-37t-123.5-97.5-78-137.5-27-156q0-97 29-158.5t82.5-97 128-48.5 165.5-13q27 0 52.5-1.5t50-1 49.5 4.5 52 15q22 10 41 19 17 7 33 13t24 6q10 0 28-6t35.5-20 30.5-36.5 13-55.5q0-17-11.5-34.5t-29-32-36.5-23.5-34-9h-79q-70 0-136.5-6t-138.5-6q-107 0-204 20.5t-170 70.5-116 133.5-43 209.5z"/><path transform="translate(96.609 14.945) scale(.0078125 -.0078125)" d="m182 68q0 38 4 82.5t8.5 89 8.5 86 4 74.5l16 998q0 22 9 39t23 28.5 31 17.5 35 6q13 0 29-5.5t30-17 23-29.5 9-43q0-75-3.5-148t-8-144.5-8-141.5-3.5-139q0-58 0.5-115.5t4.5-121.5q66 73 126 135t118 119.5 114.5 112.5 114.5 113q14 14 29 32t32 33.5 35.5 26.5 40.5 11q31 0 51-5t31.5-16.5 16-28.5 4.5-41q0-21-6-35t-15.5-24.5-23-19-28.5-18.5q-11-8-28-21.5t-36.5-30-40.5-35.5-41-37q-48-43-101-94l163-358q21-45 39.5-79t37.5-67.5 39-71 43-90.5q7-20 12-38 5-16 8.5-31.5t3.5-25.5q0-26-8-52.5t-22.5-48-34-35-42.5-13.5q-29 0-45.5 23t-27 54.5-17.5 65.5-17 56l-265 584-65-82q-23-29-46.5-59.5t-48.5-58-51-49-54-30.5l5-284q0-18-6-36.5t-19-34-32-25.5-45-10q-29 0-49.5 12t-34 28.5-20 34-6.5 28.5z"/></svg>