<svg width="52.734" height="28.906" viewBox="0 0 52.734 28.906" xmlns="http://www.w3.org/2000/svg"><path transform="translate(0 19.531) scale(.0078125 -.0078125)" d="m400 300v-150q40 0 70 62t30 108q0 40-50 40t-50-60zm1200 676q0 106-200 126 152 204 206 398l107-72q71-48 130-48 30 0 57 13 0-133-62-152-15-5-33-5-55 0-134 48l-55-113q134-59 134-195v-576q0-400-400-400t-400 400v300q0 250-275 250t-275-250v-204q23 4 50 4 200 0 200-180 0-105-79-212-79-108-171-108h-150v700q0 293 228 371l-6 8q-35 50-210 65 249 251 277 356l144-70q95-48 174-48 41 0 78 13 0-133-83-152-12-2-26-2-87 0-229 65l-84-93q56-24 86-58l48-55h28q425 0 425-400v-300q0-250 250-250t250 250z"/><path transform="translate(15.625 19.531) scale(.0078125 -.0078125)" d="m250 1640q0 210-234 210h-216q-250 0-250 191 0 45 20 112.5t20 137.5-124 70q0 100 100 100 174 0 174-170 0-85-20-142.5t-20-107.5q0-41 100-41h216q384 0 384-360v-1940q0-350-400-350t-400 350v200h150v-200q0-200 250-200t250 200z"/><path transform="translate(20.703 19.531) scale(.0078125 -.0078125)" d="m1150 400q0-400-450-400t-450 400v576q0 106-200 126 152 204 206 398l107-72q71-48 130-48 30 0 57 13 0-133-62-152-15-5-33-5-55 0-134 48l-55-113q134-59 134-195v-206h600v206q0 106-200 126 152 204 206 398l107-72q71-48 130-48 30 0 57 13 0-133-62-152-15-5-33-5-55 0-134 48l-55-113q134-59 134-195zm-150 220h-600v-220q0-250 300-250t300 250z"/><path transform="translate(31.641 19.531) scale(.0078125 -.0078125)" d="m400 0h-170q-130 230-130 340 0 140 100 140h50v496q0 106-200 126 152 204 206 398l107-72q71-48 130-48 30 0 57 13 0-133-62-152-15-5-33-5-55 0-134 48l-55-113q134-59 134-195z"/><path transform="translate(36.719 19.531) scale(.0078125 -.0078125)" d="m-462 1279 370 221 426-223q66-37 66-125v-1152h-150v1152l-336 175-280-167z"/><path transform="translate(41.797 19.531) scale(.0078125 -.0078125)" d="m1e3 976q0 106-200 126 152 204 206 398l107-72q71-48 130-48 30 0 57 13 0-133-62-152-15-5-33-5-55 0-134 48l-55-113q134-59 134-195v-576q0-400-450-400t-450 400v576q0 106-200 126 152 204 206 398l107-72q71-48 130-48 30 0 57 13 0-133-62-152-15-5-33-5-55 0-134 48l-55-113q134-59 134-195v-576q0-250 300-250t300 250z"/></svg>