<svg width="50.872" height="19.712" viewBox="0 0 50.872 19.712" xmlns="http://www.w3.org/2000/svg"><path transform="translate(0 15.04) scale(.008 -.008)" d="m60 124q5 46 31 91t59 72q87-57 193-96t210-39q121 0 187.5 52.5t66.5 135.5q0 70-47 124.5t-135 91.5l-242 102q-125 53-200 136t-75 211q0 109 57.5 196.5t159.5 139 236 51.5q125 0 235-32t188-71q-2-46-23-91.5t-54-74.5q-78 39-171.5 66.5t-171.5 27.5q-111 0-175-54t-64-134q0-66 46.5-108t120.5-73l239-99q85-36 153-89t107-124 39-161q0-114-54-205t-162-143.5-274-52.5q-124 0-251.5 40t-228.5 110z"/><path transform="translate(8.888 15.04) scale(.008 -.008)" d="m389 0q-21-4-47.5-6t-54.5-2-55 2-49 6v733q0 53-18.5 78.5t-67.5 25.5h-23q-9 37-9 73 0 18 2 36.5t7 38.5q38 5 71.5 7t55.5 2h26q76 0 119-47.5t43-129.5zm-267 1254q0 22 4.5 46.5t13.5 43.5q18 10 49.5 17t60.5 7q28 0 61-7t49-17q9-19 13.5-44t4.5-46-4.5-46-13.5-43q-14-10-48-17.5t-62-7.5q-29 0-61 7t-49 18q-9 18-13.5 43t-4.5 46z"/><path transform="translate(13.224 15.04) scale(.008 -.008)" d="m958 895q-32-28-44-79.5t-12-109.5v-593q0-114-10.5-193.5t-31.5-134-53-93.5q-47-60-132-96.5t-198-36.5q-92 0-185 20t-162 48q1 38 16.5 83t38.5 71q63-29 138-45.5t134-16.5q102 0 155 37.5t72 101 19 140.5v741q0 95 40 169.5t138 93.5q25-15 48-47t29-60zm-869-403q0 178 56 293t144 171.5 182 56.5q87 0 151-26t110-66 80-82l-28-176q-52 82-129 133.5t-152 51.5q-58 0-104.5-38.5t-73-117.5-26.5-202q0-178 52.5-256.5t125.5-78.5q81 0 154.5 52t114.5 133l31-158q-27-45-77-91t-117.5-77-146.5-31q-115 0-192.5 64t-116 178.5-38.5 266.5z"/><path transform="translate(21.672 15.04) scale(.008 -.008)" d="m246 996q65 0 90.5-39t25.5-108v-849q-21-4-47.5-6t-54.5-2-55 2-48 6v983l12 13zm697-785q0-52 7.5-98.5t26.5-81.5q-23-19-57.5-31.5t-72.5-12.5q-60 0-84.5 33t-24.5 98v509q0 101-25.5 146.5t-99.5 45.5q-50 0-108.5-24t-110.5-68-84-104v198q67 77 164 130.5t205 53.5q93 0 151-43.5t85.5-117.5 27.5-167z"/><path transform="translate(30.4 15.04) scale(.008 -.008)" d="m389 0q-21-4-47.5-6t-54.5-2-55 2-49 6v733q0 53-18.5 78.5t-67.5 25.5h-23q-9 37-9 73 0 18 2 36.5t7 38.5q38 5 71.5 7t55.5 2h26q76 0 119-47.5t43-129.5zm-267 1254q0 22 4.5 46.5t13.5 43.5q18 10 49.5 17t60.5 7q28 0 61-7t49-17q9-19 13.5-44t4.5-46-4.5-46-13.5-43q-14-10-48-17.5t-62-7.5q-29 0-61 7t-49 18q-9 18-13.5 43t-4.5 46z"/><path transform="translate(34.736 15.04) scale(.008 -.008)" d="m358 0q-20-4-47-6t-55-2-53 2-46 6v1458l12 13h78q65 0 88-31.5t23-100.5zm516 207q23-61 45.5-99t50.5-58q-22-26-60-44.5t-79-18.5q-55 0-81 29t-49 87l-81 196q-31 78-66 104.5t-105 26.5q-28 0-58-2t-65-5l-72-8v150h267q109 0 175.5-45t108.5-148zm-187 422q-40-68-100-98t-146-30h-166v94l151 6q16 0 27 7t21 22l175 277q25 42 54.5 64.5t81.5 22.5q31 0 55.5-0.5t53.5-2.5l12-16z"/><path transform="translate(42.76 15.04) scale(.008 -.008)" d="m87 268q0 115 50.5 188.5t137 108.5 195.5 35q56 0 126.5-5t131.5-19v-139q-53 13-120 16.5t-125 3.5q-91 0-141-46.5t-50-127.5q0-61 34.5-103.5t100.5-42.5q73 0 154 50.5t137 149.5l32-157q-36-42-89-90t-122.5-82-157.5-34q-99 0-164.5 44t-97.5 111.5-32 138.5zm834-176q-7-28-29.5-59.5t-47.5-47.5q-63 13-102 47t-57.5 81.5-22.5 100.5v451q0 94-43 135.5t-121 41.5q-75 0-155-23t-160-53q-24 24-40.5 67.5t-18.5 83.5q56 24 127 45t145.5 33.5 142.5 12.5q99 0 172-36t113.5-110 40.5-189v-410q0-56 11-98.5t45-72.5z"/></svg>