<svg width="110" height="20.48" viewBox="0 0 110 20.48" xmlns="http://www.w3.org/2000/svg"><path transform="translate(0 16.48) scale(.016 -.016)" d="M250 500V625H625V500ZM500 125V250H250V375H125V500H250V375H500V250H625V125ZM125 0V125H500V0Z"/><path transform="translate(12 16.48) scale(.016 -.016)" d="M125 0V625H250V0Z"/><path transform="translate(18 16.48) scale(.016 -.016)" d="M125 0V625H250V125H500V0Z"/><path transform="translate(28 16.48) scale(.016 -.016)" d="M125 0V625H250V375H375V250H500V125H625V0H500V125H375V250H250V0ZM500 500V625H625V500ZM375 375V500H500V375Z"/><path transform="translate(40 16.48) scale(.016 -.016)" d="M250 500V625H625V500ZM500 125V250H250V375H125V500H250V375H500V250H625V125ZM125 0V125H500V0Z"/><path transform="translate(52 16.48) scale(.016 -.016)" d="M500 375V500H250V625H500V500H625V375ZM250 0V125H125V500H250V125H500V0ZM500 125V250H625V125Z"/><path transform="translate(64 16.48) scale(.016 -.016)" d="M125 0V625H500V500H625V375H500V125H625V0H500V125H375V250H250V0ZM250 375H495V500H250Z"/><path transform="translate(76 16.48) scale(.016 -.016)" d="M125 0V625H500V500H250V375H500V250H250V125H500V0Z"/><path transform="translate(86 16.48) scale(.016 -.016)" d="M125 0V625H500V500H250V375H500V250H250V125H500V0Z"/><path transform="translate(96 16.48) scale(.016 -.016)" d="M125 0V625H250V500H375V375H500V250H625V625H750V0H625V125H500V250H375V375H250V0Z"/></svg>