<svg width="58.071" height="17.527" viewBox="0 0 58.071 17.527" xmlns="http://www.w3.org/2000/svg"><path transform="translate(0 13.467) scale(.0068359 -.0068359)" d="m453 45q60 0 112.5 18.5t91.5 53.5 61.5 85.5 22.5 114.5q0 61-28.5 111.5t-72 93.5-94.5 81-97 75q-44 34-97 74.5t-99.5 89.5-78 108-31.5 131q0 36 7 75.5t24.5 77 46 71 71.5 59 101 40.5 135 15q98 0 189-15.5t157-35.5l-22-301h-57v27q0 38-8 82.5t-35 82-78.5 62.5-138.5 25q-52 0-94.5-14.5t-72.5-41-46.5-64.5-16.5-85q0-62 24.5-109.5t63-85.5 85.5-70.5 91-64.5q66-48 126.5-95.5t106.5-100 73.5-112.5 27.5-132q0-84-38-157t-101.5-127-145.5-85-169-31q-106 0-202 17t-167 39l24 317h62v-35q0-42 10-88.5t40.5-85.5 87-64.5 149.5-25.5z"/><path transform="translate(6.8906 13.467) scale(.0068359 -.0068359)" d="m362 897q-12-79-21-161t-15.5-163.5-9.5-161-3-153.5q0-68 4-109.5t17-64 38.5-30 69.5-7.5h45v-47h-16q-94 0-169.5-7t-147.5-26q24 162 36.5 323t12.5 316q0 48-5.5 83.5t-22.5 59.5-49 36-85 12h-21v47q101 3 184 18t158 35zm-77 236q-41 0-69 25.5t-28 78.5q0 23 7 43.5t20.5 36 32.5 24.5 43 9q38 0 66-27t28-78q0-22-7-42.5t-19.5-36-31-24.5-42.5-9z"/><path transform="translate(10.459 13.467) scale(.0068359 -.0068359)" d="m1585 0q-52-2-97-3.5t-86-4.5-79.5-8.5-77.5-16.5q9 58 19 131t18 147.5 13 145.5 5 125q0 52-7 102t-25 89.5-50 63.5-83 24q-34 0-67-13t-64-32.5-59-44-52-46.5v-30q0-56-4.5-117t-10-120.5-10-115-4.5-100.5q0-39 6.5-64t21-39.5 37.5-20 56-5.5h55v-47q-52-2-97-3.5t-86-4.5-79.5-8.5-77.5-16.5q9 58 19 131t18.5 147.5 13.5 145.5 5 125q0 52-6.5 102t-25 89.5-51 63.5-83.5 24q-35 0-69.5-14t-66-35.5-60.5-47-54-47.5q-4-48-7-100.5t-5.5-104.5-4-101-1.5-91q0-65 3-105t15-63 36.5-31 67.5-8h52v-47h-19q-94 0-171.5-7t-149.5-26q23 146 36 300.5t13 316.5q0 39-3.5 77t-19.5 67.5-49 48-92 18.5h-18v49q45 2 82.5 4.5t75 8 78.5 15 93 25.5q-9-45-18.5-95.5t-14.5-92.5q51 47 95.5 82t87 58.5 85.5 35.5 91 12q27 0 58-7t60-25.5 52-52 35-87.5q48 43 90 75.5t82.5 54 81.5 32 88 10.5q31 0 68-9.5t69-38.5 54-81.5 22-138.5q0-56-4.5-117t-10-120.5-10-115-4.5-100.5q0-39 6.5-64t21-39.5 37.5-20 56-5.5h55z"/><path transform="translate(21.479 13.467) scale(.0068359 -.0068359)" d="m522 840q-74 0-131-33t-95.5-88-58.5-126.5-20-148.5q0-73 18-145t55.5-129.5 96-93 139.5-35.5q72 0 128 27t95 77 59.5 122 20.5 161q0 66-18 138.5t-55.5 133.5-95.5 100.5-138 39.5zm-452-449q0 95 34 186t98 162 156 114.5 209 43.5q111 0 189-31t127-84.5 71.5-124.5 22.5-151q0-108-38-204t-105-167.5-157-113-194-41.5q-120 0-199.5 34.5t-127 91.5-67 131-19.5 154z"/><path transform="translate(28.69 13.467) scale(.0068359 -.0068359)" d="m1090 0q-53-2-98-3.5t-85.5-4.5-79-8.5-77.5-16.5q9 58 18.5 131t18 147.5 13.5 145.5 5 125q0 52-4.5 102t-23 89.5-56.5 63.5-105 24q-38 0-77-13.5t-75.5-34-69-45.5-56.5-47q-3-48-6.5-101.5t-6-106-4.5-102-2-91.5q0-65 3.5-105t16-63 37.5-31 68-8h50v-47q-108 0-188-7t-152-26q23 146 36 300.5t13 316.5q0 39-3 77t-19 68.5-49 49-93 18.5h-19v47q45 2 83 4.5t75.5 8 78.5 15 93 25.5q-9-45-18.5-95.5t-14.5-92.5q111 94 205 141t191 47q31 0 70.5-9.5t74.5-38.5 59.5-81.5 24.5-138.5q0-56-4.5-117t-10-120.5-10-115-4.5-100.5q0-40 6.5-65t21-39.5 38-19.5 57.5-5h54z"/><path transform="translate(36.306 13.467) scale(.0068359 -.0068359)" d="m668 526q-107 0-216 8t-227 19q-6-47-6-90 1-110 28-181t71.5-112.5 101.5-57.5 119-16q39 0 74.5 5.5t71.5 17.5 73.5 31.5 79.5 48.5l26-39q-100-85-198.5-132.5t-210.5-47.5q-90 0-161.5 33.5t-121 90-76 131-26.5 156.5q0 107 36.5 199.5t99 160.5 144.5 107 172 39q91 0 151.5-30.5t97-78.5 52-105.5 15.5-111.5q0-11 0-20t-2-19q-87-6-168-6zm-181 312q-51 0-91.5-19t-72-51.5-53-76-34.5-91.5q71-2 119.5-3t82.5-1h99q35 0 71 1t84 3v10q0 54-15 96.5t-42 71.5-65 44.5-83 15.5z"/><path transform="translate(42.649 13.467) scale(.0068359 -.0068359)" d="m202 877q2 66 4.5 136.5t2.5 147.5l149 33q-9-65-15.5-146.5t-12.5-170.5q99 0 168.5 6t115.5 14l-45-96h-65q-48 0-91 0t-90 2q-5-67-9-132.5t-7-126-4.5-113.5-1.5-93q0-65 6.5-110t21.5-73 40-40.5 63-12.5q43 0 92 25.5t86 73.5l33-37q-33-39-68-72.5t-72.5-58-76.5-39-80-14.5q-54 0-88.5 19.5t-54.5 53.5-27.5 80-7.5 100q0 104 11 246.5t21 329.5q-42 3-84 7.5t-91 12.5l4 48z"/><path transform="translate(47.202 13.467) scale(.0068359 -.0068359)" d="m202 877q2 66 4.5 136.5t2.5 147.5l149 33q-9-65-15.5-146.5t-12.5-170.5q99 0 168.5 6t115.5 14l-45-96h-65q-48 0-91 0t-90 2q-5-67-9-132.5t-7-126-4.5-113.5-1.5-93q0-65 6.5-110t21.5-73 40-40.5 63-12.5q43 0 92 25.5t86 73.5l33-37q-33-39-68-72.5t-72.5-58-76.5-39-80-14.5q-54 0-88.5 19.5t-54.5 53.5-27.5 80-7.5 100q0 104 11 246.5t21 329.5q-42 3-84 7.5t-91 12.5l4 48z"/><path transform="translate(51.755 13.467) scale(.0068359 -.0068359)" d="m55 156q0 59 30.5 102t79 74 108.5 51 120 32 113.5 17.5 87.5 7.5q5 45 6.5 87t1.5 79q0 47-7 90t-27 76-55.5 52.5-92.5 19.5q-40 0-74-15t-58.5-40.5-38-60-13.5-73.5q0-15 2.5-30.5t7.5-32.5q-11-13-30.5-20t-39.5-7q-15 0-29 4.5t-25 14.5-17.5 26-6.5 39q0 56 38.5 102t97 78.5 127.5 50 131 17.5q118 0 184.5-54t66.5-179q0-54-4.5-118.5t-10.5-127.5-10.5-119.5-4.5-93.5q0-63 15.5-98t47.5-35q19 0 38 11.5t36 27 30 32 21 25.5l37-31q-35-49-65-79.5t-57-48-52-23.5-49-6q-37 0-64 14.5t-44.5 38.5-27 55-10.5 64q-20-33-47-64t-63-55-82-38.5-103-14.5q-68 0-111 17.5t-67 44-32.5 57.5-8.5 57zm271-103q64 0 109.5 28.5t76 75.5 49 107.5 27.5 124.5q-34-3-76-7t-84.5-12.5-83-23-72-37.5-50.5-55.5-19-77.5q0-38 12.5-61.5t31.5-37.5 40-19 39-5z"/></svg>