<svg width="51.744" height="18.242" viewBox="0 0 51.744 18.242" xmlns="http://www.w3.org/2000/svg"><path transform="translate(0 13.93) scale(.014 -.014)" d="m56 176 72 13q19-132 163-132 163 0 163 129 0 56-30 83t-100 46l-66 19q-103 28-145 71.5t-42 133 60 147.5 174.5 58 166.5-49 66-141l-72-13q-19 132-152 132-155 0-155-129 0-56 27.5-83.5t93.5-45.5l69-19q106-30 149.5-73t43.5-132.5-62.5-147-181-57.5-173.5 49-69 141z"/><path transform="translate(8.372 13.93) scale(.014 -.014)" d="m106 572h86v-572h-86zm43 96q-51 0-51 55.5t51 55.5q53 0 53-55.5t-53-55.5z"/><path transform="translate(12.544 13.93) scale(.014 -.014)" d="m181 512q101 74 199 74t138-44.5 40-135.5v-406h-86v404q0 60-23 86t-77 26q-93 0-180-67v-449h-86v572h51z"/><path transform="translate(21.7 13.93) scale(.014 -.014)" d="m21 513v59h98v104l86 34v-138h121v-59h-121v-379q0-45 12.5-63.5t36.5-18.5 59 8l10-58q-54-16-91.5-16t-61.5 12-34 36q-17 36-17 97v382z"/><path transform="translate(26.53 13.93) scale(.014 -.014)" d="m218.5 74.5q33.5-18.5 83.5-18.5t83.5 18.5 49.5 53 22.5 72 6.5 86.5-6.5 86.5-22.5 72-49.5 53-83.5 18.5-83.5-18.5-50-53-22.5-71.5-6-87 6-87 22.5-71.5 50-53zm331.5 211.5q0-300-248-300t-248 300 248 300 248-300z"/><path transform="translate(34.986 13.93) scale(.014 -.014)" d="m181 512q101 74 199 74t138-44.5 40-135.5v-406h-86v404q0 60-23 86t-77 26q-93 0-180-67v-449h-86v572h51z"/><path transform="translate(44.142 13.93) scale(.014 -.014)" d="m222-245-78 14 88 227-216 576h89l169-463 164 463h88z"/></svg>