<svg width="25.852" height="21.055" viewBox="0 0 25.852 21.055" xmlns="http://www.w3.org/2000/svg"><path transform="translate(0 17.68) scale(.0078125 -.0078125)" d="m288 421q0 106-11 182t-29 132.5-41 98.5-47 79-47 74-41 84-29 108.5-11 147.5v241q0 24 7.5 54.5t28.5 57 58.5 45 97.5 18.5 97.5-18.5 58.5-45 28.5-57 7.5-54.5v-448h-128v448q0 24-5.5 39.5t-14.5 24-20.5 12-23.5 3.5-23.5-3.5-20.5-12-14.5-24-5.5-39.5v-195q0-113 19-189t47.5-132.5 61.5-102.5 61.5-99.5 47.5-124 19-175.5v-390q0-12-3-43.5t-21-64.5-57-58.5-111-25.5-111 25.5-57 58.5-21 64.5-3 43.5v576h128v-576q0-12 1-28.5t7-31.5 19-25.5 37-10.5 37 10.5 19 25.5 7 31.5 1 28.5z"/><path transform="translate(3.5 17.68) scale(.0078125 -.0078125)" d="M208 1536V0H80V1536Z"/><path transform="translate(5.75 17.68) scale(.0078125 -.0078125)" d="m224 1088 32 448h128l-96-800 96-736h-128l-32 384-16 256-16-256-32-384h-128l96 736-96 800h128l32-448 16-256z"/><path transform="translate(10.852 17.68) scale(.0078125 -.0078125)" d="m448 1024h-128v544q0 24-5.5 39.5t-14.5 24-20.5 12-23.5 3.5-23.5-3.5-20.5-12-14.5-24-5.5-39.5v-1408q0-12 1-28.5t7-31.5 19-25.5 37-10.5 37 10.5 19 25.5 7 31.5 1 28.5v672h128v-672q0-12-3-43.5t-21-64.5-57-58.5-111-25.5-111 25.5-57 58.5-21 64.5-3 43.5v1408q0 46 17 79.5t44.5 54.5 61.5 31 69 10q37 0 71.5-11t61.5-33 43-55 16-76z"/><path transform="translate(14.852 17.68) scale(.0078125 -.0078125)" d="M416 0H288L268 332H179L160 0H32L160 1536H288ZM261 436 224 1216 186 436Z"/><path transform="translate(18.352 17.68) scale(.0078125 -.0078125)" d="m448 864q0-60-22-92.5t-58-47.5-82-17.5-94-2.5v-704h-128v1536h160q85 0 130.5-16t66.5-40 24-52 3-52zm-128 512q0 24-6.5 37t-21.5 19-39.5 7-60.5 1v-640q24 0 47 1.5t41 10.5 29 28.5 11 55.5z"/><path transform="translate(22.102 17.68) scale(.0078125 -.0078125)" d="m416 992h-128v400q0 36-15 50t-33 14-33-14-15-50q0-107 10-197t26-166 36-138.5 40-114.5q16-41 35.5-95t36.5-129 28.5-175 11.5-233q0-42-15-72.5t-40-50-56.5-28.5-64.5-9-64.5 9-56.5 28.5-40 50-15 72.5v400h128v-400q0-36 15-50t33-14 33 14 15 50q0 129-12.5 226.5t-31.5 172-41.5 130.5-41.5 103q-19 46-36.5 105t-31 134-21.5 168.5-8 208.5q0 42 15 72t40 49.5 56.5 29 64.5 9.5 64.5-9.5 56.5-29 40-49.5 15-72z"/></svg>