<svg width="87.952" height="23.168" viewBox="0 0 87.952 23.168" xmlns="http://www.w3.org/2000/svg"><path transform="translate(0 18.56) scale(.016 -.016)" d="m388 440q5-8 1.5-17.5t-13.5-13.5q-12-4-27.5-4t-34.5-1q-11 0-21-4t-18-5q-19-1-30 5t-27-1q-4-3-9.5-8.5t-10.5-9.5q-13-8-17-21-5-17 7-27 8-9 16.5-17t15.5-17q6-8 14-9 4 0 11-5 15-13 32-26t27-28q2-2 4.5-5.5t5.5-5.5q21-19 28.5-51t-0.5-64.5-34-55.5q-10-10-21-20.5t-27-15.5q-1-1-4 0t-5 1q-20-4-39-11t-44-6q-11 0-22 2t-23 4q-17 1-29 13-1 2-2 2t-2 1q-7 5-11.5 11t-7.5 13q-2 8-6 15.5t-5 16.5q-1 10 7.5 14t15.5-1q11-9 23-9 41-6 73.5 3.5t59.5 30.5q9 7 15 20 2 4 4 6.5t3 5.5q7 9 9 19 5 19-9 34-19 20-44 34t-51 29q-10 6-18 18-6 8-11.5 16.5t-12.5 17.5q-10 10-13 23-6 29-8.5 55t10.5 49q6 14 22.5 29.5t29.5 21.5q13 8 42.5 12.5t62 4.5 53.5-9q8-4 16-9t15-9q16-7 26-26 1-4 3.5-7.5t4.5-7.5z"/><path transform="translate(7.2 18.56) scale(.016 -.016)" d="m221 421q-8-41-21-96t-26-112-23.5-107.5-14.5-82.5q-1-14-11-28-10-15-26-10-4 1-7 2.5t-7 2.5q-19 7-25 28-1 2-1.5 5t-2.5 6q-7 16-2 36 10 42 23 101t27 122.5 27.5 121.5 24.5 99q3 9 10 17t17 9q35 6 46.5-21.5t-8.5-92.5z"/><path transform="translate(11.76 18.56) scale(.016 -.016)" d="m425 44q-1-10-8-17t-18-6q-22 2-42.5 13t-33.5 24q-4 5-9.5 4t-8.5-7q-1-5-10-10-4-3-7.5-6.5t-7.5-7.5q-7-8-15.5-14t-15.5-16q-13-18-35-20-17-3-35-2t-34 5q-14 3-26 13-2 2-4 4t-5 3q-13 8-21 21-13 23-23 49.5t-3 56.5q5 23 17.5 49.5t23.5 44.5q23 36 61 56.5t83 12.5q38-7 66.5-26t49.5-50q5-7 2.5-14t-10.5-9q-16-3-27 6-25 23-60 23t-64-16q-4-2-6.5-4t-4.5-5q-12-11-24.5-27t-20.5-42q-4-13-9.5-29t-4.5-30q0-10 8-16.5t18-5.5q34 5 56 22.5t40.5 38.5 40.5 38q9 6 20 5t18-9q10-8 15-23t9-31q3-10 11.5-16.5t19.5-5.5h10q11 1 18-6t6-18z"/><path transform="translate(19.52 18.56) scale(.016 -.016)" d="m329 238q5-10-0.5-19t-15.5-11q-21-3-48 2.5t-51-0.5q-30-6-51-26.5t-28.5-47.5 0.5-52q8-22 31-24 20-1 40.5-0.5t37.5 4.5q3 1 10.5 4t14.5 6q9 4 18.5 0.5t13.5-13.5q2-2 4-10 8-21-11-37-21-15-49-19.5t-57-5.5q-3 0-6.5 0.5t-7.5 1.5q-5 0-6 1-10 4-18 4-25 3-44 24.5t-32 43.5q-3 5-4.5 10.5t-3.5 11.5q-2 26-5 49.5t2 45.5q5 23 20 37t30 30q7 9 16 13 20 11 44 16t46 9q16 5 30-1 26-8 48-17.5t32-29.5z"/><path transform="translate(25.776 18.56) scale(.016 -.016)" d="m204 436q-1-4-2-8t-1-8q1-17-1.5-44t-7-57-9.5-55.5-9-38.5q-4-14-4.5-31.5t-3.5-33.5q-4-22-10.5-42t-10.5-38q-1-16-1.5-31t-4.5-28q-7-24-30-26-11-2-21 3.5t-15 15.5q-2 4-3.5 7.5t-3.5 7.5q-7 16-6 34 5 34 13.5 78t18 91 18 90.5 14.5 76.5q5 30 8 59t17 48q7 10 18 10.5t18-7.5q3-4 5.5-7t3.5-4q8-11 10.5-31t-0.5-31zm174-163q0-7-15.5-22t-36.5-37-36.5-51-14.5-64q1-19 8-36.5t10-34.5q2-11-5-19.5t-18-7.5q-12 0-22.5 6.5t-19.5 13.5q-13 13-19 30-6 29-11 58.5t0 59 26 56.5q8 11 18.5 20t20.5 19q8 9 17.5 21t22.5 20q17 14 38 4 14-8 25-14.5t12-21.5z"/><path transform="translate(32.784 18.56) scale(.016 -.016)" d="m335 90q5-24-14-37-4-4-7.5-7.5t-5.5-7.5q-5-9-12.5-14.5t-15.5-9.5q-37-15-74.5-21.5t-77.5 4.5q-10 3-26 14t-26 23q-2 4-6.5 10.5t-8.5 13.5q-2 8 3 15t15 5q14-3 25-8t21-10q12-6 24-6 30-1 58.5 7.5t42.5 28.5q6 8 2 17t-12 11q-25 5-50.5 6.5t-54.5 15.5q-23 13-27 33-1 2-2 5.5t-3 6.5q-4 8-5 18t2 20q5 17 14.5 31t19.5 29q11 15 27 21 20 8 41.5 7t38.5-1q11 0 22-4 14-5 28-10t25-16q7-7 9.5-22t-2-25-20.5-4q-11 5-18.5 11.5t-20.5 8.5q-10 1-29.5 2.5t-28.5-0.5q-17-3-30-17-1-2-1.5-12.5t0.5-20.5 3-11q9-5 30.5-5.5t37.5 1.5q4 0 7-3 1-4 7-4 23-3 36-16.5t25-27.5q11-13 13-31 0-4 0.5-7t0.5-7z"/><path transform="translate(39.12 18.56) scale(.016 -.016)" d="m211 325q0-1 0-4t-1-5-3.5-4.5-5.5-3.5q-28-14-57-8-15 1-26 11-6 4-11.5 7t-11.5 7q-9 7-11 18t5 21q8 11 19.5 16.5t24.5 7.5q20 2 36-8 3-1 5-2.5t5-2.5q19-8 27-27 5-9 5-23zm-41-95q-2-19-4.5-48.5t-5-61.5-7-60.5-10.5-46.5q-9-24-32-19-6 1-11.5 1t-10.5 1q-23 7-25 29-2 11-3.5 21.5t-0.5 18.5q2 9 6.5 34t10.5 55 11 54.5 6 32.5v3q0 11 7 18t17 8q10 0 18.5-0.5t14.5-4.5q24-10 19-35z"/><path transform="translate(43.456 18.56) scale(.016 -.016)" d="m485 443q-1-6-5-11.5t-6-12.5q-10-42-15.5-92.5t-13.5-103.5-27-103q-2-4-2.5-8t-1.5-8q-1-25-12-45t-21-43q-3-9-11-17-2-4-5-4-14-2-22.5-0.5t-14.5 5.5q-20 14-15 36 26 120 47.5 243t44.5 225q5 16 21 16 12 0 23-9 13-9 23-15.5t14-18-1-34.5zm-182-259q0-10-6.5-15t-16.5-4q-16 4-37 9.5t-34 0.5q-10-4-19.5-5t-20.5-5q-23-6-29-29-5-18-7-47 0-6 8.5-16.5t11.5-12.5q13-9 31.5-8t38.5 6q9 2 18.5-2.5t13.5-12.5q1-3 2.5-6t2.5-7q4-9 0.5-19t-12.5-15q-17-8-33.5-6.5t-35.5-0.5q-12-3-21 1-36 10-56.5 35t-35.5 56q-5 13-5 25 0 9-1 18t-1 19 5 25q13 27 37.5 43.5t54.5 28.5q14 6 29 4 26-3 53-8t45-16q20-12 20-36z"/><path transform="translate(52.192 18.56) scale(.016 -.016)" d="m355 219q14-21-2-39-1 0-1.5-0.5t-1.5-0.5q-8-8-11-18-8-16-24-22.5t-35-8.5-36-5q-11-3-20-6.5t-19-5.5q-24-6-40 10-4 4-8 7.5t-8 7.5q-6 5-13 2.5t-7-10.5q-2-19 8.5-38.5t23.5-27.5q19-9 44-8t51 7 47 10q8 2 17.5-1t14.5-11q1-1 2.5-3t1.5-4q5-10 1.5-20t-12.5-15q0-1-1-1t-2-2q-4-4-10-6.5t-11-4.5q-17-4-32.5-6.5t-35.5-4.5q-8-3-16 0-25 4-52 7t-49.5 13.5-35.5 36.5q-1 2-2.5 4t-2.5 5q-16 22-17 55.5t9 66.5 25 52q11 13 25 18.5t30 15.5q33 19 73 17.5t76-19 56-47.5zm-65 2q-1 3-4 4.5t-6 2.5q-15 0-35.5-1.5t-23.5-3.5q-2-2-8-4-13-6-26.5-9.5t-23.5-10.5q-7-4-4.5-12t10.5-9q26-4 54 1.5t50 15.5q9 6 17 14 5 7 0 12z"/><path transform="translate(62.928 18.56) scale(.016 -.016)" d="m566 355q10-84-12.5-145t-64.5-106-93-83q-4-2-9-4.5t-11-3.5q-49-13-86.5-20t-81.5-3q-15 0-25 7-20 13-39.5 22t-35.5 30q-22 28-29.5 57t-17.5 63q-1 5-1 9t0 8q1 17 1 32.5t4 37.5 17 54 26 55q15 28 38 60.5t51 57.5 59 32 62-16q11-8 11-23 0-12-8-22-1-1-1.5-2.5t-1.5-2.5q-5-8-15-16-51-37-88-95.5t-52-124.5q-4-17-6-42.5t2-54.5q1-6 2-11t4-10q9-20 30-22 19-3 37-2.5t39 4.5q7 2 13.5 7t13.5 8q5 2 10 0.5t10-0.5q35 12 65 42t51.5 69 31.5 79 4 73q-5 28-17.5 45.5t-31.5 34.5q-5 4-11 7t-12 4-12 7q-5 9-0.5 18.5t15.5 10.5q14 0 27.5-0.5t24.5-1.5q6-1 12-3t11-5q7-4 12.5-8t14.5-7q8-2 16-11 17-15 25.5-33t18.5-42q3-6 3-14z"/><path transform="translate(72.992 18.56) scale(.016 -.016)" d="m434 180q15-55 14.5-99t-11-68-28.5-19q-5 2-17 2.5t-22 6.5-12 23q-1 12-1 20t0 22-2 41q-2 34-21.5 57t-51.5 26.5-73-23.5q-20-14-35.5-38t-26.5-48.5-18-42.5q-6-13-14-24t-26-10q-11 0-25.5-2.5t-13.5 10.5q4 63 14 127.5t20 113.5q2 10 9.5 15t15.5 4q23-4 35-14t10-49q-1-5 4.5-7.5t9.5 1.5q28 26 71.5 43t98.5 6q31-7 53-20.5t38-42.5q4-5 5-11z"/><path transform="translate(81.216 18.56) scale(.016 -.016)" d="m355 219q14-21-2-39-1 0-1.5-0.5t-1.5-0.5q-8-8-11-18-8-16-24-22.5t-35-8.5-36-5q-11-3-20-6.5t-19-5.5q-24-6-40 10-4 4-8 7.5t-8 7.5q-6 5-13 2.5t-7-10.5q-2-19 8.5-38.5t23.5-27.5q19-9 44-8t51 7 47 10q8 2 17.5-1t14.5-11q1-1 2.5-3t1.5-4q5-10 1.5-20t-12.5-15q0-1-1-1t-2-2q-4-4-10-6.5t-11-4.5q-17-4-32.5-6.5t-35.5-4.5q-8-3-16 0-25 4-52 7t-49.5 13.5-35.5 36.5q-1 2-2.5 4t-2.5 5q-16 22-17 55.5t9 66.5 25 52q11 13 25 18.5t30 15.5q33 19 73 17.5t76-19 56-47.5zm-65 2q-1 3-4 4.5t-6 2.5q-15 0-35.5-1.5t-23.5-3.5q-2-2-8-4-13-6-26.5-9.5t-23.5-10.5q-7-4-4.5-12t10.5-9q26-4 54 1.5t50 15.5q9 6 17 14 5 7 0 12z"/></svg>