<svg width="67.488" height="19.2" viewBox="0 0 67.488 19.2" xmlns="http://www.w3.org/2000/svg"><path transform="translate(0 14.4) scale(.016 -.016)" d="m190-4q-43 1-76 7.5t-52.5 23.5-19.5 49v129l51 7v-118q0-27 20.5-42t73.5-15q36 0 54.5 7.5t25 24 6.5 42.5v91q0 37-17.5 58.5t-51.5 31.5l-78 21q-44 14-64 35t-20 66v110q0 44 19 65t52 27.5 76 6.5 72.5-7 46-24 16.5-49v-129l-51-9v116q0 34-17 48.5t-69 14.5q-53 0-73.5-17t-20.5-60v-84q0-32 18.5-50.5t46.5-26.5l81-23q46-13 65.5-37t19.5-70v-118q0-43-16-65t-45.5-29-72.5-8z"/><path transform="translate(5.888 14.4) scale(.016 -.016)" d="m60 0v472h40l5-49q16 25 44.5 39.5t70.5 14.5q41 0 65.5-11t37.5-28.5 16-36.5l-12-9q6 32 25.5 50.5t46.5 26.5 53 8q52 0 77-16.5t34-40 9-45.5v-375h-50v358q0 42-25 60t-65 18q-38 0-64.5-18t-26.5-60v-358h-50v359q0 41-25 59t-66 18q-37 0-57.5-14.5t-32.5-36.5v-385z"/><path transform="translate(15.904 14.4) scale(.016 -.016)" d="m185-4q-56 0-85 16t-39 41-10 50v265q0 26 10 50.5t40.5 40.5 90.5 16q57 0 87-15.5t41.5-40 11.5-51.5v-253q0-32-12-59t-43.5-43.5-91.5-16.5zm0 41q47 0 72 19.5t25 62.5v241q0 38-24.5 57t-66.5 19q-41 0-65.5-19t-24.5-57v-248q0-38 24-56.5t60-18.5z"/><path transform="translate(22.032 14.4) scale(.016 -.016)" d="m185-4q-56 0-85 16t-39 41-10 50v265q0 26 10 50.5t40.5 40.5 90.5 16q57 0 87-15.5t41.5-40 11.5-51.5v-253q0-32-12-59t-43.5-43.5-91.5-16.5zm0 41q47 0 72 19.5t25 62.5v241q0 38-24.5 57t-66.5 19q-41 0-65.5-19t-24.5-57v-248q0-38 24-56.5t60-18.5z"/><path transform="translate(28.16 14.4) scale(.016 -.016)" d="m185-4q-56 0-85 16t-39 41-10 50v265q0 26 10 50.5t40.5 40.5 90.5 16q57 0 87-15.5t41.5-40 11.5-51.5v-68l-50-7v67q0 38-24.5 57t-66.5 19q-41 0-65.5-19t-24.5-57v-248q0-38 24-56.5t60-18.5q47 0 72 19.5t25 62.5v59l50 6v-69q0-32-12-59t-43.5-43.5-91.5-16.5z"/><path transform="translate(34.224 14.4) scale(.016 -.016)" d="m60 629h50v-206q16 25 42 38.5t68 13.5q52 0 77.5-16t34.5-39.5 9-45.5v-374h-50v357q0 42-24.5 60t-66.5 18q-37 0-57.5-14t-32.5-36v-385h-50z"/><path transform="translate(43.184 14.4) scale(.016 -.016)" d="m190-4q-43 1-76 7.5t-52.5 23.5-19.5 49v129l51 7v-118q0-27 20.5-42t73.5-15q36 0 54.5 7.5t25 24 6.5 42.5v91q0 37-17.5 58.5t-51.5 31.5l-78 21q-44 14-64 35t-20 66v110q0 44 19 65t52 27.5 76 6.5 72.5-7 46-24 16.5-49v-129l-51-9v116q0 34-17 48.5t-69 14.5q-53 0-73.5-17t-20.5-60v-84q0-32 18.5-50.5t46.5-26.5l81-23q46-13 65.5-37t19.5-70v-118q0-43-16-65t-45.5-29-72.5-8z"/><path transform="translate(49.072 14.4) scale(.016 -.016)" d="m128 0q-35 0-51 10t-19 37.5-3 79.5v250q0 39 8 59t31 27 68 7h174v-470h-50v429h-127q-28 0-39.5-7t-13-23.5-1.5-45.5v-238q0-31 3-47t13-21.5 31-5.5h103l-7-41z"/><path transform="translate(55.408 14.4) scale(.016 -.016)" d="m60 472h40l5-49q16 24 44.5 39t70.5 15q60 0 90.5-26t30.5-76v-375h-50v358q0 41-24.5 59.5t-66.5 18.5q-35 0-56.5-14.5t-33.5-36.5v-385h-50z"/><path transform="translate(61.728 14.4) scale(.016 -.016)" d="m176-6q-71 0-101 29.5t-30 82.5v68l45 7v-73q0-19 7-37t25.5-29.5 53.5-11.5q43 0 67.5 15t24.5 63q0 42-12.5 62.5t-48.5 37.5q-6 3-20 9t-30 12-29.5 12-19.5 9q-24 13-38 26.5t-19.5 32-5.5 44.5v12q0 57 32.5 83.5t104.5 26.5q71 0 101.5-25t30.5-81v-70l-46-6v71q0 44-22.5 59.5t-65.5 15.5q-41 0-60-12.5t-24-30.5-5-34q0-37 8.5-52t33.5-29q13-7 31.5-14.5t38-15.5 34.5-16q44-20 60.5-44.5t16.5-71.5v-9q0-57-29.5-86.5t-108.5-29.5z"/></svg>