<svg width="42.736" height="22.4" viewBox="0 0 42.736 22.4" xmlns="http://www.w3.org/2000/svg"><path transform="translate(0 15.2) scale(.016 -.016)" d="m34-109q-11 0-23 4t-21 14q-9 9-9 17 0 5 3.5 10t7.5 10q9 11 34 29.5t57 41.5l-28-26q-4-4-7.5-11.5t0.5-3.5q9 11 42 37.5t70 54.5l-77-51q34 26 70 52t65.5 47 43.5 29q1 1 3 1 4 0 4-3 0-4-8-7-12-5-40.5-24.5t-60.5-43.5q39 26 74.5 47.5t54.5 32.5q-12 8-39 18t-61.5 24.5-70 34.5-62.5 47q-13 12-18.5 25.5t-5.5 26.5q0 31 25.5 64t68 65 92.5 60q24 13 49.5 25.5t50.5 23.5q-28-10-55-21t-52-23q-1-1-2-1t-1 0l18 11q53 26 107.5 45.5t103.5 34.5q-29-9-59-20.5t-60-25.5q59 21 118.5 36.5t110.5 24 84 9.5q19 1 19 5 0 3-10 3-34-1-82-7t-104-20q53 15 100.5 24t82.5 9q18 0 33-3 13-2 23-16.5t18-33 11-34.5l1 3q4 7 5 12.5t4 10.5q2 3 9.5-8t14-25 4.5-24q-3-18-19-39.5t-37.5-41.5-43-33-37.5-13q-4 0-10 2 12 10 22 21t19 22q-38-34-85.5-64.5t-90.5-49.5-68-19q-13 0-13 5t11 12.5 16 10.5q24 11 59.5 36t72.5 55.5 65.5 59 38.5 46.5q1 10-15 14t-42 4q-33 0-79.5-7t-97.5-20-98-31-82-41q-24-13-48-32.5t-40-41.5-16-43q0-17 15-32 40-36 86.5-60t86-42.5 57.5-38.5q5-5 7.5-15t2.5-21q0-19-6-36t-17-19q-84-17-143.5-41t-96.5-47-54.5-38-19.5-14q8-11 8-21 0-11-10-17.5t-24-6.5zm403 717 4 1h2l3 1 2 1q3 1 3 1t3 1q0 0-0.5 0t-5.5-2q-1 0-2-1-2 0-3-1-1 0-2-0.5t0 0.5q-2-1-4-1z"/><path transform="translate(7.408 15.2) scale(.016 -.016)" d="m52-49q-9 0-21 9t-21.5 20-9.5 18q0 6 4 6t11-3 18-3q-6 8-9 18.5t-3 19.5q0 15 15.5 46t40 70 50 77 46.5 67.5 30 41.5q-27-31-44-51.5t-19-20.5 17 29 67 99q10 0 26.5-10t30-23 13.5-24q-12-20-38-52.5t-55-66.5-50-60q4 3 26 23t53.5 47 64 54 57.5 45 32 19q5 0 16-8t22-19.5 17.5-22 3.5-15.5q-7-10-25.5-38.5t-40-64.5-38.5-69q13 10 35.5 33.5t51.5 55 60 64 60.5 61.5 53.5 47l4 3 4 5q5 0 15-9t20-22 15.5-24 1.5-16q-6-7-24-31t-42-57-46.5-66.5-37.5-59.5l83 53q10 6 0-1t-25.5-18.5-23.5-18.5q-3-3-7.5-10t-1.5-4q16 14 41.5 32t52.5 36.5 49 32.5q-19-10-39-20.5t-40-24.5l18 13q11 8 30 19.5t38 22 28 13.5l-35-23 53 25q5 2 8 3t5 1q10 0 1.5-13t-23.5-21q-24-12-56.5-37.5t-68-57-68-62-55.5-54.5q-22 20-22.5 38t-1.5 34q0 3 11 25-2 10 0 19 1 15 13 47.5t33 74 46 82.5q-26-29-58-65t-63.5-73-55.5-68-34-51q-8-5-15-5-6 0-13 5-7 1-12.5 13.5t-8.5 30.5q0-3-1-6.5t-1-6.5v-1q-1 0-2 7t0 11l3 16v-3q0-4 0.5-8t0.5-9q6 29 16.5 64.5t21 66.5 14.5 46q-5-9-13.5-29t-16-41.5-11.5-33.5q-6-22-8-31.5t-4-20.5q0 16 5.5 41t14 52 16.5 49 12 31q-15-15-48.5-46.5t-73-71-76-79-59.5-70.5q4 1 10 1 8 0 17-5t9-13q0-7-12-17.5t-28-19-27-8.5z"/><path transform="translate(17.792 15.2) scale(.016 -.016)" d="m134-8q-14 0-29.5 5.5t-27.5 16.5-25.5 33.5-13.5 44.5q0 9 3 16 32 86 104 157.5t176 120.5q14 0 29-10.5t25-25.5l18-6q-1 11-7 13.5t-6 7.5q2 9 13 10.5t16 1.5q16 0 26.5-14.5t11.5-31.5q24-3 50-4t45.5-1.5 21.5-0.5h3q3 0 3-4 0-7-8-12-10-8-46.5-10.5t-76.5-2.5q-5-15-15-32t-23-35q-9-13-27-34.5t-37-43.5-32-37q9 8 29.5 28.5t33.5 36.5q5 6 15 19.5t19.5 26 11.5 16.5q-13-27-33-52t-40-45-34-32.5-16-14.5q-42-44-84.5-74.5t-72.5-30.5zm-32 34q5 0 12 3 11 6 28.5 19t36.5 27q17 14 38 34.5t46 48.5q22 25 47 54.5t49 61.5l-15-14q7 7 17.5 19.5t17.5 19.5q-31 2-37 3-1-2-3-2t-2 7q0 2 0 5.5t1 7.5q-10 1-22-3t-27-17q-17-16-44-40t-56-54.5-54.5-65.5-40.5-74q-5-12-5-24 0-17 15-10-5-3-5-4 0-2 3-2zm2 6q19 10 60.5 42.5t84.5 79.5q14 15 32 34.5t35 37.5 26 28q-23-28-42.5-50.5t-37.5-42.5q-42-45-85.5-81t-72.5-48z"/><path transform="translate(24.304 15.2) scale(.016 -.016)" d="m134-8q-14 0-29.5 5.5t-27.5 16.5-25.5 33.5-13.5 44.5q0 9 3 16 32 86 104 157.5t176 120.5q14 0 29-10.5t25-25.5l18-6q-1 11-7 13.5t-6 7.5q2 9 13 10.5t16 1.5q16 0 26.5-14.5t11.5-31.5q24-3 50-4t45.5-1.5 21.5-0.5h3q3 0 3-4 0-7-8-12-10-8-46.5-10.5t-76.5-2.5q-5-15-15-32t-23-35q-9-13-27-34.5t-37-43.5-32-37q9 8 29.5 28.5t33.5 36.5q5 6 15 19.5t19.5 26 11.5 16.5q-13-27-33-52t-40-45-34-32.5-16-14.5q-42-44-84.5-74.5t-72.5-30.5zm-32 34q5 0 12 3 11 6 28.5 19t36.5 27q17 14 38 34.5t46 48.5q22 25 47 54.5t49 61.5l-15-14q7 7 17.5 19.5t17.5 19.5q-31 2-37 3-1-2-3-2t-2 7q0 2 0 5.5t1 7.5q-10 1-22-3t-27-17q-17-16-44-40t-56-54.5-54.5-65.5-40.5-74q-5-12-5-24 0-17 15-10-5-3-5-4 0-2 3-2zm2 6q19 10 60.5 42.5t84.5 79.5q14 15 32 34.5t35 37.5 26 28q-23-28-42.5-50.5t-37.5-42.5q-42-45-85.5-81t-72.5-48z"/><path transform="translate(30.816 15.2) scale(.016 -.016)" d="m118-7q-22 0-47 17t-42.5 40-17.5 42q0 30 16 64.5t42 69.5 58 65.5 64 51.5q2 11 17 22.5t36 11.5q12 0 23-4 12 0 28-16.5t29-35.5 15-29q0-15-16-31.5t-34.5-28.5-26.5-12q-4 0-4 3 0 6 13 22 5 5 12 16t13 22 6 17q-19-1-48.5-17t-61-42-59.5-56-45.5-59.5-17.5-51.5q0-10 5-17.5t20-6.5q15 5 35.5 16t43.5 25l-20-18q-3-3-11-12.5t-4-7.5q20 17 45.5 36.5t53.5 40.5q-16-10-32.5-20.5t-31.5-18.5l55 41q40 30 75 52t67 36q-28-17-60.5-39.5t-65.5-45.5q38 24 75.5 47t66.5 39q17 9 25 9 7 0 7-5 0-4-8.5-13t-25.5-18q-21-11-49-32.5t-60-47.5-62.5-51-55.5-44q-12-9-22-15.5t-18-10.5z"/><path transform="translate(36.32 15.2) scale(.016 -.016)" d="m220-5q-10 0-21.5 8t-20 17.5-8.5 16.5q0 6 3 6 2 0 6-1.5t9-3.5q-3 7-5 13t-2 12q0 1 10 20.5t25 47.5 31 57.5 28 51.5 15 29l-2-3q-5-8-16-25.5t-23-36.5-20-32-8-12q5 15 13 33t21 42q-39-38-83.5-82t-81.5-84.5-56-68.5q-22 19-30.5 35t-8.5 31q0 6 1.5 12t2.5 12q6 21 31.5 63t62.5 96 79 112 81 111 69 93 42 57q0 0 0 0.5t-1 0.5-5-3-12-13q-22-28-45-57t-42-53-31-38-12-13 14.5 22 36 51 43.5 60 37 50 16 20h1q4 0 10.5-3t10.5-5q8-2 22.5-14t25-26.5 6.5-25.5q-12-12-38-42t-61.5-71-74.5-87.5-77-92-70-84-52-64.5-23-32q9 5 35.5 26t62 51.5 73.5 64.5 71 66 54 54l12 16q13-5 28.5-13.5t27-18 11.5-19.5q0-3-3-8-49-69-80-112.5t-36-53.5q12 6 34 20.5t50 31.5q32 20 66.5 41t68.5 35q8 3 0.5-3t-20.5-14.5-22-13.5q16 8 27.5 12.5t30.5 12.5q9 4 15 4 7 0 2-7t-15.5-16.5-20.5-15.5q-12-7-44-30t-71.5-52.5-74.5-57.5q-17-13-32-27t-27-26q4-1 8.5-5t4.5-9q0-7-12-16.5t-26-16.5-21-7zm72 139q13 11 42.5 30.5t64 41.5 60.5 37q-22-10-48-24.5t-43-25.5q-25-16-42-26.5t-28-21.5q-3-2-6-7.5t0-3.5z"/></svg>