<svg width="37.656" height="18.461" viewBox="0 0 37.656 18.461" xmlns="http://www.w3.org/2000/svg"><path transform="translate(0 14.711) scale(.0078125 -.0078125)" d="m283 88q29 0 54 12.5t43 33.5 28 47 10 53q0 74-26 140t-65 128.5-84.5 124.5-84.5 126.5-65 134.5-26 150q0 57 21.5 109t61.5 92 97.5 63.5 130.5 23.5q57 0 119-32.5t123-93.5l-141-229-4 3q10 40 10 77 0 41-11.5 72.5t-29 52.5-38.5 32-41 11q-32 0-59-11.5t-46.5-31-30.5-46.5-11-57q0-62 27-127.5t67.5-132.5 87.5-136 87.5-138 67.5-137.5 27-135.5q0-58-20.5-109.5t-60-90.5-96.5-61.5-130-22.5q-57 0-119 32.5t-123 93.5l141 199 4-3q-8-18-11-35.5t-3-34.5q0-31 10.5-58t27-46.5 38-30.5 43.5-11z"/><path transform="translate(5.0859 14.711) scale(.0078125 -.0078125)" d="m706 637q4-59 6-124t3-131.5 1-133.5 0-131q1-26 7-44t16-30.5 25-21.5 35-16v-5h-302v5q35 16 51 40.5t18 75.5q1 41 2.5 82.5t2 79.5 1 70.5 0.5 55.5q0 106-2.5 194t-13 150.5-32.5 97-61 34.5q-36 0-69-19t-57.5-53.5-39-82.5-14.5-106v-90q0-48 0.5-101.5t1.5-107.5 2.5-107 4.5-101q2-26 8.5-44t17.5-30.5 27.5-21.5 39.5-16v-5h-345v5q51 16 73.5 40.5t25.5 75.5q2 48 4 99.5t3.5 102 2.5 98.5 1 90q0 103-2 171.5t-13.5 109.5-37 58-72.5 17v5l271 120q-8-23-9-53.5t-1-62.5q20 36 44 58.5t49 35 49.5 17.5 45.5 5q64 0 112.5-37t77.5-109q23 44 50.5 72.5t56 45 56 22.5 50.5 6q117 0 185-102t68-298q0-64 0-123t1-117 3-116 5-119q2-26 9-44t20-30.5 31-21.5 43-16v-5h-332v5q40 16 58.5 40.5t20.5 75.5q1 41 2.5 82.5t2 79.5 1 70.5 0.5 55.5q0 106-2.5 194t-14.5 150.5-36 97-66 34.5q-33 0-63.5-18t-53.5-51-37.5-78.5-15.5-100.5z"/><path transform="translate(14.812 14.711) scale(.0078125 -.0078125)" d="m551 429q0 106-2 212.5t-7 212.5q-3 38-22.5 64.5t-60.5 39.5v5h355v-5q-51-11-73.5-40.5t-25.5-67.5q-5-111-8-208t-3-190q0-80 0-136t-0.5-104.5-0.5-97.5 0-113q0-138-22-230t-60-148-89.5-79.5-110.5-23.5q-42 0-90.5 14.5t-90 47-69 84.5-27.5 126q0 14 1.5 28t3.5 30l249 50 1-5q-58-29-85.5-67t-27.5-79q0-19 6.5-39.5t21-37.5 37.5-28 56-11q18 0 35.5 3t33.5 15 29 37.5 22.5 70 15 112.5 5.5 165q-72-53-140-53-64 0-118 23.5t-93 68-60.5 109.5-21.5 149q0 63 0 108.5t0.5 83 0 70.5-1 70-2 82-3.5 107q-3 38-25 64.5t-68 39.5v5h342v-5q-46-11-66.5-40.5t-22.5-67.5q-2-71-3-140t-1-131 0-115 0-91q0-145 42-219.5t127-74.5q23 0 52.5 9.5t62.5 32.5v14z"/><path transform="translate(21.336 14.711) scale(.0078125 -.0078125)" d="m331 968q55 0 93.5 1.5t63.5 3.5q29 2 47 5l-40-130q-11 11-32 21-18 8-50 15t-83 7h-72q-1-35-1-71.5t0-74.5q0-87 0.5-155.5t1-129 1-120 0.5-129.5 23-100 52-30q16 0 32 10.5t29 30 21 46 8 58.5q0 26-6 43l3 2 127-215q-65-45-120.5-64.5t-103.5-19.5q-49 0-87.5 24.5t-65 64.5-40.5 91.5-14 105.5q0 61 1 107.5t1.5 87.5 1.5 80.5 1 87.5q0 88 0 155.5t-1 119.5q-29 2-48 4t-30 4q-13 2-21 4v60h98q-2 58-5 90.5t-9 49-15.5 20.5-23.5 4v5l231 110q-17-65-25.5-134.5t-12.5-144.5z"/><path transform="translate(25.547 14.711) scale(.0078125 -.0078125)" d="m735 592q0-65 0-120t1-108 3-107 5-118q4-50 26-84.5t67-49.5v-5h-322v5q41 16 59 52.5t20 85.5q6 169 6 266 0 106-3 194t-16.5 150.5-41.5 97-78 34.5q-38 0-72.5-19t-60.5-53.5-41.5-82.5-15.5-106v-90q0-100 2-198t7-197q3-50 22.5-84.5t60.5-49.5v-5h-335v5q51 16 73 52.5t26 85.5q1 164 6 304.5t5 273.5q0 128-0.5 217.5t-4.5 149.5-12.5 95-25 52.5-41.5 22-61 4.5v5l291 80q-4-40-6-93t-3-114-1-128.5 0-135.5q21 36 46.5 58.5t52 35 52 17.5 47.5 5q61 0 109.5-26t82.5-76.5 52.5-125 18.5-172.5z"/><path transform="translate(32.18 14.711) scale(.0078125 -.0078125)" d="m428 341 219-20q0-90-25.5-155.5t-65-109-87.5-64.5-94-21q-66 0-123 34t-99 99-66 160-24 218 24 218 66 160 99 99 123 34q55 0 101.5-29.5t81.5-87 56.5-143 26.5-196.5l-423-148q13-164 58-238.5t114-74.5q33 0 55.5 12.5t37 33 21 46 6.5 52.5q0 32-20.5 63t-62.5 53zm-215 137q29 11 72 28t108 47q37 17 64 34t48 29q-10 139-42.5 205t-87.5 66q-77 0-119.5-102t-42.5-303z"/></svg>