<svg width="49.264" height="19.92" viewBox="0 0 49.264 19.92" xmlns="http://www.w3.org/2000/svg"><path transform="translate(0 15.296) scale(.016 -.016)" d="m304 706q28 0 64.5-4.5t68.5-16 54-30 22-45.5q0-16-9-27t-29-11q-15 0-30.5 6t-35 12.5-45 12.5-59.5 6q-66 0-97.5-23.5t-31.5-64.5q0-28 14-47t37.5-32.5 53-22.5 60.5-17q35-9 69.5-22t61.5-34 43.5-53 16.5-81q0-51-19-91.5t-52-69-79-44-100-15.5q-30 0-70 5.5t-76 19-61 36-25 55.5q0 20 10.5 32t31.5 12q17 0 28-6.5t19-14.5q30-26 68-35t78-9q23 0 48.5 3.5t46.5 14.5 35 31.5 14 55.5q0 32-12.5 52.5t-33.5 34.5-49.5 23-61.5 18q-37 10-73 22t-64 32.5-45.5 52-17.5 80.5 18 86 49 62 73.5 38 91.5 13z"/><path transform="translate(9.312 15.296) scale(.016 -.016)" d="m296 426q-37 0-66.5-12t-66.5-36q0-21 0-61.5t-1-88-2-93.5-4-77q-2-20-4.5-31.5t-7-17.5-12-7.5-19.5-1.5-19.5 1.5-12.5 7-8 16.5-5 30q-2 18-3.5 48t-2.5 65.5-1.5 72-0.5 67.5q0 51 1.5 83t5.5 57q6 42 16 53t27 11q25 0 37.5-14t15.5-46q37 32 79.5 51t87.5 19q43 0 78.5-20t58.5-65q14-27 21-59.5t10-68.5q1-16 2-31.5t1.5-33 0.5-39.5 0-52q0-32-1-60t-5.5-48.5-15.5-32-30-11.5q-46 0-48 44 0 3 0 25.5t-0.5 52.5-1 61-1.5 51q-1 16-2.5 34.5t-4 37.5-6.5 36.5-10 31.5q-14 33-35 42t-45 9z"/><path transform="translate(18.224 15.296) scale(.016 -.016)" d="m68 62q-2 37-3.5 84.5t-1.5 104.5q0 71 1 121.5t5.5 83 14.5 48 28 15.5q17 0 30-12t15-52q6-105 6-203 0-50-2-93.5t-4-95.5q-1-24-4.5-37t-9.5-20-13.5-8.5-17.5-1.5q-18 0-30 12.5t-14 53.5zm45 638q23 0 42.5-18t19.5-43q0-24-20-41.5t-45-17.5q-21 0-39.5 17.5t-18.5 43.5q0 24 18.5 41.5t42.5 17.5z"/><path transform="translate(21.84 15.296) scale(.016 -.016)" d="m258-137q47 0 79.5 18.5t52.5 53 28.5 83 8.5 109.5q-9-32-26-54t-39.5-35.5-50.5-19.5-58-6q-46 0-87 13t-71.5 41-48.5 71.5-18 104.5q0 59 17.5 108.5t51 85.5 81.5 56 110 20q33 0 58.5-6t45.5-16 35.5-24 28.5-30q38-48 55-113.5t17-157.5q0-68-11.5-139t-41.5-128.5-83-94-136-36.5q-15 0-33.5 1.5t-38 4.5-38.5 8.5-35 14.5q-20 11-32 21t-12 33q0 19 8.5 34.5t29.5 15.5q10 0 22-6t29.5-12.5 42-12.5 59.5-6zm5 240q39 0 66.5 14.5t45 38.5 26 54 8.5 60q0 25-6.5 50.5t-21.5 46.5-41 34-65 13q-66 0-106.5-40t-40.5-118q0-73 36-113t99-40z"/><path transform="translate(30.768 15.296) scale(.016 -.016)" d="m67 58q-1 36-2 84t-1.5 104-1 118-0.5 127q0 71 1 122t5.5 84 14.5 48.5 28 15.5q17 0 30-11t15-51q4-72 5-149.5t1-152.5q0-45 0-86.5t-1-82-2-82.5-3-87q-1-24-4.5-37t-9.5-20-13.5-8.5-17.5-1.5q-18 0-30 12.5t-14 53.5z"/><path transform="translate(34.352 15.296) scale(.016 -.016)" d="m292 184q-35 0-73.5 5.5t-83.5 23.5q9-61 50.5-92t119.5-31q28 0 50.5 3.5t39.5 8 30 8 24 3.5q14 0 27-8.5t13-28.5q0-25-20.5-41t-50-25.5-62.5-13-58-3.5q-59 0-108.5 16t-85.5 48.5-56 80.5-20 112q0 62 19.5 110t53.5 81 80.5 50 100.5 17q42 0 81.5-11t70-33 49-55.5 18.5-78.5q0-40-15-68t-42.5-45-66-25-85.5-8zm-7 232q-27 0-52-6.5t-45.5-21-34.5-38-19-58.5q38-17 74-23.5t76-6.5q59 0 87.5 14.5t28.5 52.5q0 35-26.5 61t-88.5 26z"/><path transform="translate(42.912 15.296) scale(.016 -.016)" d="m147 65q-3 63-3.5 149.5t-0.5 196.5q-10-1-23.5-1t-21.5 0q-18 0-32.5 1t-25.5 6-17 14.5-6 26.5q0 48 72 48 11 0 27 0t27-2q0 53 2 85t7.5 49.5 15 23 24.5 5.5q16 0 26-11t15.5-28 7-38 1.5-41q0-14-0.5-25.5t-0.5-20.5q14 4 29 4.5t29 0.5q37 0 57-11.5t20-37.5q0-16-7-25.5t-18.5-14.5-27-6.5-33.5-1.5q-10 0-23 0t-24 2q0-53 0-97t-1-84.5-2-80.5-3-85q-1-24-4.5-37t-9.5-20-13.5-8.5-17.5-1.5q-18 0-30.5 12.5t-14.5 53.5z"/></svg>