<svg width="53.584" height="18.416" viewBox="0 0 53.584 18.416" xmlns="http://www.w3.org/2000/svg"><path transform="translate(0 14.24) scale(.016 -.016)" d="m256 636q-60 0-92-28.5t-32-70.5q0-37 14-62t37-42 52.5-29 61.5-23q34-12 69-28.5t63-41 45.5-59 17.5-83.5-20-83-52.5-55.5-74.5-31-86-9.5q-65 0-123.5 21.5t-100.5 52.5l33 48q19-12 41-23.5t47.5-21.5 53.5-16 60-6 61 6.5 51 21 35 38 13 58.5q0 36-14 61.5t-37 44-53 32-62 25.5q-34 13-68.5 27.5t-62.5 37-45.5 56-17.5 84.5q0 31 13.5 59t39 49 62 33.5 81.5 12.5q30 0 53-1t37-1q34 0 53.5 7.5t40.5 27.5l33-34q-14-19-28-30t-29.5-17-32.5-7.5-37-1.5q-17 0-44 1t-56 1z"/><path transform="translate(8.512 14.24) scale(.016 -.016)" d="m439 0q-16 30-21 67.5t-5 66.5q0 24 1 45t2.5 44.5 3 50.5 1.5 62q0 62-28 91t-85 29q-54 0-91-26.5t-72-74.5v-355h-55v353q0 40-10 69t-30 50l34 33q24-17 37-41.5t18-50.5q33 48 75.5 71.5t93.5 23.5q88 0 128-42t40-119q0-36-1.5-65.5t-3-55.5-2.5-50-1-48q0-33 5-63t19-65z"/><path transform="translate(17.264 14.24) scale(.016 -.016)" d="m89 505q19-14 30.5-31.5t18.5-37.5 9.5-41 2.5-42v-353h-55v353q0 40-10 69t-30 50zm-21 157q0 20 13.5 33.5t32.5 13.5q20 0 33.5-13.5t13.5-33.5q0-19-13.5-32.5t-33.5-13.5q-19 0-32.5 13.5t-13.5 32.5z"/><path transform="translate(21.04 14.24) scale(.016 -.016)" d="m295 508q51 0 90.5-20t67-55 41.5-81.5 14-100.5q0-56-16.5-103.5t-47-82.5-73.5-55-96-20q-42 0-74.5 3t-55.5 6v-249h-55v603q0 40-10 69t-30 50l34 33q22-17 34.5-38t18.5-46q21 41 62.5 64t95.5 23zm0-52q-25 0-50-8t-46-24-36-40-18-56v-277q18-2 53-5.5t76-3.5q40 0 72.5 15t56 42 36 65 12.5 84q0 40-10 78t-29.5 66.5-48.5 46-68 17.5z"/><path transform="translate(29.968 14.24) scale(.016 -.016)" d="m295 508q51 0 90.5-20t67-55 41.5-81.5 14-100.5q0-56-16.5-103.5t-47-82.5-73.5-55-96-20q-42 0-74.5 3t-55.5 6v-249h-55v603q0 40-10 69t-30 50l34 33q22-17 34.5-38t18.5-46q21 41 62.5 64t95.5 23zm0-52q-25 0-50-8t-46-24-36-40-18-56v-277q18-2 53-5.5t76-3.5q40 0 72.5 15t56 42 36 65 12.5 84q0 40-10 78t-29.5 66.5-48.5 46-68 17.5z"/><path transform="translate(38.896 14.24) scale(.016 -.016)" d="m120 200q9-78 49.5-118t118.5-40q42 0 80 14t76 34l26-42q-35-24-81.5-41t-100.5-17q-113 0-170.5 66.5t-57.5 190.5q0 52 15.5 99t44 83 68.5 57.5 89 21.5q37 0 70-10.5t57.5-30 39-48 14.5-63.5q0-44-19-74t-49.5-48-70-26-81.5-8zm157 259q-36 0-65.5-18t-50.5-47-32.5-66-11.5-76h121q51 0 83 9.5t50 24.5 24 33.5 6 36.5q0 47-34.5 75t-89.5 28z"/><path transform="translate(47.216 14.24) scale(.016 -.016)" d="m95 504q0 40-10 69t-30 50l34 33q19-14 30.5-31.5t18.5-37.5 9.5-41 2.5-42v-6h158v-55h-158v-300q0-29 6-48.5t16-31 24-16.5 29-5q18 0 38 5.5t38 13 32.5 16 23.5 13.5l26-42q-8-6-25.5-16t-40.5-19.5-49.5-16-52.5-6.5q-24 0-45.5 7.5t-38 25-26.5 47-10 73.5z"/></svg>