<svg width="50.192" height="20.8" viewBox="0 0 50.192 20.8" xmlns="http://www.w3.org/2000/svg"><path transform="translate(0 15.76) scale(.016 -.016)" d="m321-9q-44 0-90.5 9.5t-87 28-67.5 45.5q-13 13-16 27.5t2 26.5 16 19 24 6 26-13q40-38 88-53t104-15q71 0 115.5 25.5t43.5 73.5q0 30-26.5 54t-96.5 43l-106 30q-95 27-140 67t-45 106q0 63 33.5 110t92 72.5 134.5 25.5q45 0 83.5-11.5t70.5-30.5 56-44q14-13 16.5-27t-3-26-16-19-23.5-5.5-27 13.5q-34 31-73 49t-85 18q-49 0-85.5-14t-56.5-40-20-63q0-40 26-60t91-38l106-30q66-19 108-42t62-55.5 21-78.5q0-61-33-102t-90.5-61.5-131.5-20.5z"/><path transform="translate(9.872 15.76) scale(.016 -.016)" d="m129-7q-21 0-33 12t-12 35v589q0 23 17 35.5t36 12.5q6 0 16-1.5t21-8 22-21.5l394-518h-21v503q0 22 11.5 34t33.5 12q21 0 32.5-12t11.5-34v-592q0-22-11-34t-36-12q-13 0-24.5 8.5t-20 19.5-14.5 18l-400 521h21v-520q0-23-10-35t-34-12z"/><path transform="translate(25.936 15.76) scale(.016 -.016)" d="m134-7q-23 0-35.5 13t-12.5 36v579q0 24 13 36.5t36 12.5h234q56 0 95.5-18.5t65-48 37-63.5 11.5-66q0-55-22-100t-68.5-72-118.5-27h-189v-233q0-23-11-36t-35-13zm46 360h164q74 0 108.5 29.5t34.5 91.5q0 31-15 58t-47 43.5-81 16.5h-164z"/><path transform="translate(35.744 15.76) scale(.016 -.016)" d="m102-7q-19 0-31 13t-12 36v405q0 24 13 36.5t30 12.5q22 0 34.5-15.5t12.5-39.5v-76h-10q10 35 25.5 63.5t41.5 47 67 20.5q13 1 24.5-2.5t19.5-11.5 9-22q2-11-2.5-21t-14-17-22.5-9l-16-2q-49-4-75.5-21.5t-36-47.5-9.5-72v-228q0-23-12-36t-36-13z"/><path transform="translate(41.232 15.76) scale(.016 -.016)" d="m280-9q-70 0-123.5 32.5t-84 90-30.5 130.5q0 55 17.5 101t49.5 80 75 52.5 96 18.5q71 0 124.5-32.5t83.5-89.5 30-130q0-55-17.5-101.5t-49-80.5-75-52.5-96.5-18.5zm0 74q42 0 74.5 22t52 62.5 19.5 94.5-19.5 94-52 62-74.5 22q-41 0-74.5-22t-52.5-62-19-94 19-94.5 52.5-62.5 74.5-22z"/></svg>