<svg width="88" height="18.656" viewBox="0 0 88 18.656" xmlns="http://www.w3.org/2000/svg"><path transform="translate(0 13.696) scale(.016 -.016)" d="m338 53q49 0 86.5 9.5t63 25.5 38.5 36.5 13 42.5q0 14-3.5 24.5t-14 19-30 16.5-51.5 17l-196 58q-74 22-104 57t-30 90q0 37 19 69.5t55.5 56.5 90.5 37.5 125 13.5q45 0 92-8.5t86-24.5 63.5-37.5 24.5-47.5q0-20-16.5-36t-47.5-16q-20 0-35 7t-23 17q-35 42-78 61t-100 19q-69 0-106.5-29.5t-37.5-70.5q0-29 19-47.5t72-33.5l213-61q36-11 60.5-23.5t39.5-28 21-35 6-43.5q0-33-23.5-68.5t-65.5-65-101-49-130-19.5q-69 0-125 14t-95 38.5-60.5 58.5-21.5 73q0 29 15.5 46t40.5 17 39-13 26-51q7-24 24.5-45t42-36.5 55-25 64.5-9.5z"/><path transform="translate(11.152 13.696) scale(.016 -.016)" d="m385 407q92 0 132.5-34t40.5-89q0-51-28-103.5t-75-96-110-71-133-27.5q-91 0-131.5 34.5t-40.5 89.5q0 51 28 104t75.5 96 110 70 131.5 27zm-42-63q-42 0-77.5-16t-61.5-43-41-62-15-72q0-48 28-75t76-27q41 0 77 16.5t63 43.5 43 62 16 73q0 45-28.5 72.5t-79.5 27.5z"/><path transform="translate(20.72 13.696) scale(.016 -.016)" d="m173 30q0-17-11.5-28.5t-38.5-11.5q-26 0-37.5 11.5t-11.5 28.5v301h-45q-29 0-29 32 0 31 29 31h45v10q0 12-3.5 23t-3.5 24q0 38 28 82t73 81.5 101 62.5 113 25q35 0 53-14.5t18-39.5q0-37-15.5-55.5t-37.5-18.5q-20 0-32.5 9t-12.5 26-8 25-28 8q-25 0-51-16t-47-43-34.5-63-13.5-75v-51h127q29 0 29-31 0-32-29-32h-127z"/><path transform="translate(27.968 13.696) scale(.016 -.016)" d="m386 407q90 0 131-34t41-89q0-17-5.5-34t-5.5-31v-189q0-17-11.5-28.5t-37.5-11.5q-27 0-38.5 11.5t-11.5 28.5v67q-45-51-106-81t-130-30q-91 0-131.5 35.5t-40.5 96.5q0 52 28 103.5t76 93 110.5 67 131.5 25.5zm-35-59q-44 0-81-16.5t-64.5-43.5-43-62-15.5-72q0-47 26.5-72.5t75.5-25.5q42 0 79 16.5t64.5 43.5 44 62 16.5 73q0 44-27.5 70.5t-74.5 26.5z"/><path transform="translate(37.856 13.696) scale(.016 -.016)" d="m375 352q-11 2-21 3t-27 1q-36 0-69-15.5t-59-43-41.5-64.5-15.5-80q0-46 25-72.5t60-26.5q32 0 68 11t77 37q2 21 2.5 43.5t0.5 50.5zm98-204q0-14 2-22.5t2-14.5q0-8-6.5-15.5t-26.5-22.5q-25-19-55-35t-61-27.5-61.5-18-56.5-6.5q-86 0-128 36.5t-42 99.5q0 55 25.5 106.5t66.5 91 92.5 63.5 102.5 24q14 0 26.5-0.5t20.5-1.5v257q0 17 11.5 28.5t37.5 11.5q27 0 38.5-11.5t11.5-28.5z"/><path transform="translate(46.544 13.696) scale(.016 -.016)" d="m171 30q0-17-12-28.5t-39-11.5q-26 0-38 11.5t-12 28.5v333q0 17 12 28.5t38 11.5q27 0 39-11.5t12-28.5zm-51 464q-30 0-44 12.5t-14 29.5v38q0 17 14 29.5t44 12.5q29 0 43.5-12.5t14.5-29.5v-38q0-17-14.5-29.5t-43.5-12.5z"/><path transform="translate(55.2 13.696) scale(.016 -.016)" d="m513 626q67 0 122-16.5t94-46.5 60.5-72 21.5-92q0-48-16.5-97t-46.5-95-73-86-96-70-114.5-47.5-128.5-17.5q-70 0-125 16t-93 46-58 72.5-20 94.5q0 82 39 156.5t104.5 131 151 90 178.5 33.5zm-40-69q-65 0-122.5-24t-100.5-65.5-67.5-98-24.5-120.5q0-47 15-83t42.5-60.5 66.5-37.5 86-13q72 0 132 26t103.5 69 67.5 97 24 111q0 45-16.5 82t-46 63-70 40-89.5 14z"/><path transform="translate(68.816 13.696) scale(.016 -.016)" d="m165 276q81 131 242 131 88 0 130-35t42-92q0-31-11-67t-30.5-73-47.5-72.5-61-64.5q-11-11-19.5-14t-18.5-3q-13 0-22.5 9.5t-9.5 19.5q0 5 2 10.5t10 13.5q24 25 42.5 53.5t31 56 19.5 52.5 7 45q0 52-26.5 77t-74.5 25q-38 0-74.5-17t-64.5-47.5-45-72-17-90.5v-93q0-17-11.5-28.5t-38.5-11.5q-26 0-37.5 11.5t-11.5 28.5v330q0 17 11 28.5t36 11.5q26 0 37-11.5t11-28.5z"/><path transform="translate(78.88 13.696) scale(.016 -.016)" d="m386 407q85 0 124.5-29t39.5-71q0-49-34.5-83.5t-117.5-48.5l-249-42q0-37 20.5-58.5t75.5-21.5q50 0 92.5 12t81.5 31q18 9 28 9 23 0 23-28 0-17-21-28-116-63-233-63-47 0-80.5 10t-54.5 27.5-31 41.5-10 52q0 52 28 104t75.5 93 110 67 132.5 26zm-33-57q-35 0-69-13t-61.5-35-47-50.5-25.5-58.5l218 35q50 8 65.5 23t15.5 38q0 24-24 42.5t-72 18.5z"/></svg>