<svg width="103.24" height="16.8" viewBox="0 0 103.24 16.8" xmlns="http://www.w3.org/2000/svg"><path transform="translate(0 12.6) scale(.014 -.014)" d="m210-8q-97 0-138 52t-34 133q1 13 9 13h54q9 0 9-13-4-61 22.5-90t81.5-29q53 0 78.5 24.5t25.5 75.5q0 28-6.5 48.5t-21.5 37-41 31.5l-106 62q-52 32-75.5 71.5t-22.5 97.5q1 76 43.5 116.5t121.5 40.5q87 0 132-47.5t37-132.5q-2-14-8-14h-56q-8 0-7 14 5 55-21 84t-77 29q-44 0-68-21.5t-25-65.5q-1-40 15.5-65.5t55.5-48.5l103-61q36-21 57.5-45t31.5-55 10-74q0-79-43.5-123.5t-136.5-44.5z"/><path transform="translate(5.992 12.6) scale(.014 -.014)" d="m207-8q-79 0-119.5 43.5t-40.5 131.5v152q0 89 40 132.5t120 43.5 120-43.5 40-132.5v-152q0-88-40-131.5t-120-43.5zm0 67q47 0 67.5 27t20.5 85v144q0 59-20.5 86t-67.5 27q-46 0-67-27t-21-86v-144q0-58 21-85t67-27z"/><path transform="translate(11.802 12.6) scale(.014 -.014)" d="m92 0q-4 0-6 2.5t-2 6.5v412h-57q-8 0-8 8v49q0 9 8 9h57v63q0 70 31 105.5t90 35.5q23 0 43.5-4t32.5-9q11-6 11-15v-46q0-12-16-5-12 5-27.5 9t-31.5 4q-31 0-46-18t-15-58v-62h104q9 0 9-9v-49q0-8-9-8h-104v-412q0-4-2-6.5t-6-2.5z"/><path transform="translate(15.848 12.6) scale(.014 -.014)" d="m65 0q-8 0-8 9v469q0 9 8 9h56q8 0 8-9v-469q0-9-8-9zm29 573q-24 0-36 13t-12 35v9q0 22 12 35t36 13 35.5-13 11.5-35v-9q0-22-11.5-35t-35.5-13z"/><path transform="translate(18.452 12.6) scale(.014 -.014)" d="m275 0q-6 0-9 11-1 14-3.5 41.5t-2.5 47.5l-4 17v231q0 45-13.5 62.5t-51.5 17.5q-67 0-64-64 0-10-8-10h-52q-10 0-11 15-5 59 31 92.5t106 33.5q71 0 103-33.5t32-111.5v-230q0-39 1.5-66t2.5-43q2-11-7-11zm-139-8q-46 0-71 34t-25 98q0 71 36 110.5t121 48.5l70 7v-58l-66-7q-48-5-68.5-27.5t-20.5-68.5q0-34 11-52t33-18q24 0 49 17t64 63l2-64q-38-44-68.5-63.5t-66.5-19.5z"/><path transform="translate(26.068 12.6) scale(.014 -.014)" d="m210-8q-97 0-138 52t-34 133q1 13 9 13h54q9 0 9-13-4-61 22.5-90t81.5-29q53 0 78.5 24.5t25.5 75.5q0 28-6.5 48.5t-21.5 37-41 31.5l-106 62q-52 32-75.5 71.5t-22.5 97.5q1 76 43.5 116.5t121.5 40.5q87 0 132-47.5t37-132.5q-2-14-8-14h-56q-8 0-7 14 5 55-21 84t-77 29q-44 0-68-21.5t-25-65.5q-1-40 15.5-65.5t55.5-48.5l103-61q36-21 57.5-45t31.5-55 10-74q0-79-43.5-123.5t-136.5-44.5z"/><path transform="translate(32.06 12.6) scale(.014 -.014)" d="m275 0q-6 0-9 11-1 14-3.5 41.5t-2.5 47.5l-4 17v231q0 45-13.5 62.5t-51.5 17.5q-67 0-64-64 0-10-8-10h-52q-10 0-11 15-5 59 31 92.5t106 33.5q71 0 103-33.5t32-111.5v-230q0-39 1.5-66t2.5-43q2-11-7-11zm-139-8q-46 0-71 34t-25 98q0 71 36 110.5t121 48.5l70 7v-58l-66-7q-48-5-68.5-27.5t-20.5-68.5q0-34 11-52t33-18q24 0 49 17t64 63l2-64q-38-44-68.5-63.5t-66.5-19.5z"/><path transform="translate(37.45 12.6) scale(.014 -.014)" d="m307 0q-8 0-8 9v343q0 40-14.5 58t-44.5 18q-28 0-56-19t-66-60l-3 62q38 43 73 63.5t75 20.5q53 0 80.5-34.5t27.5-104.5v-347q0-9-8-9zm-242 0q-8 0-8 9v357q0 37-1 65t-3 44q-1 12 7 12h50q8 0 9-9 3-18 5-47.5t3-46.5l2-13v-362q0-9-8-9z"/><path transform="translate(43.442 12.6) scale(.014 -.014)" d="m180-8q-72 0-106.5 38.5t-31.5 113.5q0 9 8 9h56q7 0 7-8 0-47 15-67t54-20q35 0 52.5 16.5t17.5 49.5q0 24-11 41t-35 32l-85 50q-40 23-57.5 53.5t-17.5 74.5q0 59 34.5 89.5t98.5 30.5q68 0 103.5-34.5t31.5-95.5q-1-9-8-9h-56q-3 0-5.5 2t-1.5 10q1 29-15 45t-49 16q-31 0-46.5-14t-15.5-40q0-24 10.5-39t36.5-31l83-51q41-25 58-53.5t17-73.5q0-66-36-100.5t-106-34.5z"/><path transform="translate(50.694 12.6) scale(.014 -.014)" d="m246-8q-94 0-143 53.5t-49 157.5v249q0 104 49 157.5t143 53.5q64 0 108.5-26.5t65-75.5 11.5-116q0-10-8-10h-56q-8 0-8 9 6 74-23 113t-89 39q-58 0-89.5-36.5t-31.5-110.5v-243q0-74 31.5-110.5t89.5-36.5q62 0 91 41t23 111q-2 9 7 9h54q9 0 10-11 8-102-42-159.5t-144-57.5z"/><path transform="translate(57.484 12.6) scale(.014 -.014)" d="m207-8q-79 0-119.5 43.5t-40.5 131.5v152q0 89 40 132.5t120 43.5 120-43.5 40-132.5v-152q0-88-40-131.5t-120-43.5zm0 67q47 0 67.5 27t20.5 85v144q0 59-20.5 86t-67.5 27q-46 0-67-27t-21-86v-144q0-58 21-85t67-27z"/><path transform="translate(63.294 12.6) scale(.014 -.014)" d="m307 0q-8 0-8 9v343q0 40-14.5 58t-44.5 18q-28 0-56-19t-66-60l-3 62q38 43 73 63.5t75 20.5q53 0 80.5-34.5t27.5-104.5v-347q0-9-8-9zm-242 0q-8 0-8 9v357q0 37-1 65t-3 44q-1 12 7 12h50q8 0 9-9 3-18 5-47.5t3-46.5l2-13v-362q0-9-8-9z"/><path transform="translate(69.286 12.6) scale(.014 -.014)" d="m159-8q-54 0-82 37.5t-28 111.5v190q0 80 36.5 122t100.5 42q32 0 62.5-9t49.5-21l2-66q-27 15-53 22t-46 7q-40 0-60-26t-20-81v-182q0-42 14.5-61t44.5-19q28 0 56 19.5t65 62.5l1-66q-37-42-69.5-62.5t-73.5-20.5zm149 8q-9 0-10 10-2 19-4 45.5t-2 41.5l-4 19v558q0 9 8 9h55q9 0 9-9v-556q0-35 1-63.5t3-42.5q2-12-8-12z"/><path transform="translate(75.124 12.6) scale(.014 -.014)" d="m205-8q-78 0-118 43.5t-40 131.5v155q0 88 39.5 130.5t115.5 42.5 115-43 39-127v-90q0-9-7-9h-230v-50q0-62 21-89.5t67-27.5q37 0 55.5 16.5t16.5 47.5q0 11 8 11h55q6 0 8-9 2-63-36-98t-109-35zm-86 299h165v30q0 56-19.5 81.5t-61.5 25.5q-43 0-63.5-26t-20.5-81z"/><path transform="translate(80.752 12.6) scale(.014 -.014)" d="m307 0q-8 0-8 9v343q0 40-14.5 58t-44.5 18q-28 0-56-19t-66-60l-3 62q38 43 73 63.5t75 20.5q53 0 80.5-34.5t27.5-104.5v-347q0-9-8-9zm-242 0q-8 0-8 9v357q0 37-1 65t-3 44q-1 12 7 12h50q8 0 9-9 3-18 5-47.5t3-46.5l2-13v-362q0-9-8-9z"/><path transform="translate(86.744 12.6) scale(.014 -.014)" d="m180-8q-72 0-106.5 38.5t-31.5 113.5q0 9 8 9h56q7 0 7-8 0-47 15-67t54-20q35 0 52.5 16.5t17.5 49.5q0 24-11 41t-35 32l-85 50q-40 23-57.5 53.5t-17.5 74.5q0 59 34.5 89.5t98.5 30.5q68 0 103.5-34.5t31.5-95.5q-1-9-8-9h-56q-3 0-5.5 2t-1.5 10q1 29-15 45t-49 16q-31 0-46.5-14t-15.5-40q0-24 10.5-39t36.5-31l83-51q41-25 58-53.5t17-73.5q0-66-36-100.5t-106-34.5z"/><path transform="translate(91.77 12.6) scale(.014 -.014)" d="m205-8q-78 0-118 43.5t-40 131.5v155q0 88 39.5 130.5t115.5 42.5 115-43 39-127v-90q0-9-7-9h-230v-50q0-62 21-89.5t67-27.5q37 0 55.5 16.5t16.5 47.5q0 11 8 11h55q6 0 8-9 2-63-36-98t-109-35zm-86 299h165v30q0 56-19.5 81.5t-61.5 25.5q-43 0-63.5-26t-20.5-81z"/><path transform="translate(97.398 12.6) scale(.014 -.014)" d="m159-8q-54 0-82 37.5t-28 111.5v190q0 80 36.5 122t100.5 42q32 0 62.5-9t49.5-21l2-66q-27 15-53 22t-46 7q-40 0-60-26t-20-81v-182q0-42 14.5-61t44.5-19q28 0 56 19.5t65 62.5l1-66q-37-42-69.5-62.5t-73.5-20.5zm149 8q-9 0-10 10-2 19-4 45.5t-2 41.5l-4 19v558q0 9 8 9h55q9 0 9-9v-556q0-35 1-63.5t3-42.5q2-12-8-12z"/></svg>