<svg width="62.888" height="16.8" viewBox="0 0 62.888 16.8" xmlns="http://www.w3.org/2000/svg"><path transform="translate(0 12.6) scale(.014 -.014)" d="m278-12q-120 0-176 51.5t-50 134.5q1 18 12 18h63q12 0 12-16 0-61 36-87.5t110-26.5q71 0 107.5 25.5t36.5 77.5q0 26-8.5 44.5t-28.5 32.5-54 28l-147 61q-46 19-74.5 42.5t-41 54-12.5 69.5q1 83 55.5 126t158.5 43q71 0 123-21t79-61 22-98q-2-19-11-19h-64q-5 0-7.5 4t-1.5 15q4 51-34.5 78.5t-108.5 27.5q-62 0-93.5-22t-32.5-68q0-24 8.5-42t29-33 56.5-30l145-61q46-19 74-42t40.5-53.5 12.5-73.5q0-84-57-131.5t-179-47.5z"/><path transform="translate(7.952 12.6) scale(.014 -.014)" d="m268-12q-101 0-153.5 49t-52.5 149v116q0 100 52 149t154 49q101 0 153.5-49t52.5-149v-116q0-100-52-149t-154-49zm0 75q64 0 92.5 32.5t28.5 98.5v100q0 66-28.5 98.5t-92.5 32.5-92.5-32.5-28.5-98.5v-100q0-66 28.5-98.5t92.5-32.5z"/><path transform="translate(15.456 12.6) scale(.014 -.014)" d="m117 0q-4 0-7 3t-3 7v405h-77q-4 0-7 3t-3 7v53q0 5 3 7.5t7 2.5h77v52q0 74 43.5 114.5t119.5 40.5q23 0 47-4.5t41-11.5q19-7 19-17v-53q0-6-4.5-8t-18.5 4q-16 7-38 11.5t-40 4.5q-41 0-62.5-21t-21.5-62v-50h145q10 0 10-10v-53q0-4-2.5-7t-7.5-3h-145v-405q0-4-2.5-7t-7.5-3z"/><path transform="translate(20.594 12.6) scale(.014 -.014)" d="m85 0q-10 0-10 10v468q0 10 10 10h65q10 0 10-10v-468q0-10-10-10zm33 570q-29 0-42 15.5t-13 39.5v10q0 24 13 39.5t42 15.5 42-15.5 13-39.5v-10q0-24-13-39.5t-42-15.5z"/><path transform="translate(23.884 12.6) scale(.014 -.014)" d="m358 0q-6 0-8 4t-4 10q-1 8-4.5 34.5t-4.5 47.5l-3 38v199q0 50-20 71t-70 21q-90 0-90-62 0-10-9-10h-66q-10 0-11 19-5 57 44.5 92.5t134.5 35.5q87 0 129.5-41t42.5-124v-214q0-35 2-62.5t5-47.5q2-11-10-11zm-191-12q-58 0-88.5 35t-30.5 102q0 52 20.5 85t66 51 121.5 24l94 8v-65l-96-8q-69-6-95-25t-26-64q0-34 14-51t42-17q33 0 69 22.5t95 83.5v-75q-35-38-65.5-61.5t-59.5-34-61-10.5z"/><path transform="translate(33.74 12.6) scale(.014 -.014)" d="m278-12q-120 0-176 51.5t-50 134.5q1 18 12 18h63q12 0 12-16 0-61 36-87.5t110-26.5q71 0 107.5 25.5t36.5 77.5q0 26-8.5 44.5t-28.5 32.5-54 28l-147 61q-46 19-74.5 42.5t-41 54-12.5 69.5q1 83 55.5 126t158.5 43q71 0 123-21t79-61 22-98q-2-19-11-19h-64q-5 0-7.5 4t-1.5 15q4 51-34.5 78.5t-108.5 27.5q-62 0-93.5-22t-32.5-68q0-24 8.5-42t29-33 56.5-30l145-61q46-19 74-42t40.5-53.5 12.5-73.5q0-84-57-131.5t-179-47.5z"/><path transform="translate(41.692 12.6) scale(.014 -.014)" d="m358 0q-6 0-8 4t-4 10q-1 8-4.5 34.5t-4.5 47.5l-3 38v199q0 50-20 71t-70 21q-90 0-90-62 0-10-9-10h-66q-10 0-11 19-5 57 44.5 92.5t134.5 35.5q87 0 129.5-41t42.5-124v-214q0-35 2-62.5t5-47.5q2-11-10-11zm-191-12q-58 0-88.5 35t-30.5 102q0 52 20.5 85t66 51 121.5 24l94 8v-65l-96-8q-69-6-95-25t-26-64q0-34 14-51t42-17q33 0 69 22.5t95 83.5v-75q-35-38-65.5-61.5t-59.5-34-61-10.5z"/><path transform="translate(48.608 12.6) scale(.014 -.014)" d="m406 0q-10 0-10 10v319q0 50-20.5 73t-61.5 23q-39 0-77-23t-95-79l1 77q34 36 64.5 58t61 32 64.5 10q72 0 110-42t38-125v-323q0-10-10-10zm-321 0q-10 0-10 10v356q0 26-2.5 58.5t-4.5 50.5q-2 13 10 13h61q9 0 11-10 2-8 4-25t4-35.5 2-31.5v-376q0-10-10-10z"/><path transform="translate(56.392 12.6) scale(.014 -.014)" d="m233-12q-90 0-135 39.5t-45 118.5q0 9 10 9h66q9 0 9-8 0-45 22.5-65t73.5-20q49 0 74 16.5t25 47.5q0 23-14 38.5t-44 28.5l-114 47q-55 23-78 52t-23 75q0 66 42 99.5t125 33.5q85 0 132-35.5t47-100.5q0-9-10-9h-66q-10 0-10 16 0 26-24 40.5t-66 14.5q-43 0-64-14.5t-21-44.5q0-22 11.5-33t46.5-26l114-48q53-22 77-52t24-77q0-69-48-106t-137-37z"/></svg>