<svg width="123.43" height="20.703" viewBox="0 0 123.43 20.703" xmlns="http://www.w3.org/2000/svg"><path transform="translate(0 16.016) scale(.0078125 -.0078125)" d="m118 78q-25 12-25 50t61 162.5 96 124.5q20 0 62-27.5t97.5-66.5 120.5-77q158-94 307-94 74 0 106 30t32 60.5-34 69-88.5 79.5-120.5 86.5-132 96.5-120 102q-123 116-123 226 0 78 41.5 141t106 102 146.5 65q147 48 303 48 43 0 64-13t21-30-15-51.5-15-61.5 36.5-69 94.5-86 128-94 140-106 128-114q131-131 131-253.5t-63.5-204.5-176.5-127-248-65.5-329-20.5-427.5 40.5-304.5 77.5zm1656 979q-131 156-324.5 232.5t-403.5 76.5q-385 0-742-145-48-19-68-19-40 0-40 38 0 31 53.5 74t154 88.5 227.5 84.5q290 89 622 89 491 0 741-138 14-8 12.5-47.5t-36.5-121.5-84.5-152-84.5-70q-9 10-27 10z"/><path transform="translate(14.664 16.016) scale(.0078125 -.0078125)" d="m251 67q-188 113-188 343 0 120 49.5 225.5t136 182.5 201.5 132q230 111 527 111 584 0 631-370 70-23 144.5-23t124.5 11 94.5 33 63.5 22q38 0 38-37t-59-77q-111-76-294-76-69 0-112 7-32-252-260-419-109-80-267.5-126t-328-46-290.5 26.5-211 80.5zm363 255q0-185 135-185 86 0 160.5 94t116 233 41.5 283.5-101 144.5q-88 0-170.5-83t-132-215.5-49.5-271.5z"/><path transform="translate(28 16.016) scale(.0078125 -.0078125)" d="m2037 285q37 0 37-34.5t-36.5-60.5-107.5-59.5-176.5-73.5-244-68.5-264.5-28.5q-297 0-297 136 0 88 100.5 314.5t100.5 305.5q0 89-139 89-63 0-143-16-38-134-135.5-426t-110-332-53.5-40l-515-11q-11 0-24.5 13.5t-13.5 32 42.5 131 94 242 94 285 42.5 257.5l-1 38q0 50 97 50l474 11q26 0 39-15.5t13-38-11-72.5q352 147 578 147 96 0 175-53 88-59 88-179 0-123-93-322t-93-246q0-93 74-93 47 0 160.5 35.5t168 58.5 80.5 23z"/><path transform="translate(42.688 16.016) scale(.0078125 -.0078125)" d="m726-39q-25-1-74-1-230 0-433.5 43t-240.5 100q-12 18-12 45t64 86.5 88 59.5 49.5-17.5 56.5-42.5 69-50q91-60 219-60 51 0 82.5 26t31.5 65.5-26.5 68.5-69 50.5-93.5 43-102.5 47-94.5 55.5q-95 67-95 166.5t60.5 172.5 152.5 117 208 74q204 51 385.5 51t338-18.5 215.5-54.5q16-9 16-47.5t-27-110-68.5-132-74.5-60.5q-13 0-22 11-95 114-184.5 175.5t-194.5 61.5q-80 0-114.5-32.5t-34.5-67.5 38.5-67 96-58 125-60.5 125-70 96-89 38.5-134.5-59-158q248 50 388 123 24 13 41 13 38 0 38-38 0-32-39-58.5t-129-64-214-75.5q-289-88-620-88z"/><path transform="translate(54.672 16.016) scale(.0078125 -.0078125)" d="m1032 1410q0-107-118.5-186.5t-250-79.5-204.5 53.5-73 130.5 56 140 145.5 99 194.5 36 177.5-55.5 72.5-137.5zm-281-1241q68 0 184.5 32.5t169.5 58 74 25.5q42 0 42-42 0-19-31-43-102-76-367-158t-473-82q-129 0-216 41t-87 125q0 51 87 250 164 377 164 568l-1 38q0 50 97 50l494 11q26 0 39-15.5t13-34.5q0-69-63-227.5t-126-311.5-63-219 63-66z"/><path transform="translate(62.695 16.016) scale(.0078125 -.0078125)" d="m1696 285q35 0 35-32.5t-47.5-60-117.5-59-193-74.5q-283-99-639-99-676 0-676 416 0 203 128.5 360.5t344.5 241 471 83.5 373.5-79 118.5-217q0-142-113.5-232t-301.5-134q-189-44-433-62 16-155 222-193 53-9 112-9 234 0 675 141 27 9 41 9zm-1049 162q174 48 275 147t101 239q0 37-24 59t-72.5 22-101-42-88.5-110q-76-141-90-315z"/><path transform="translate(80.734 16.016) scale(.0078125 -.0078125)" d="m1041 1087q-166-135-253-401-46-144-46-292 0-259 169-259 86 0 178 71t165.5 184.5 121 269.5 47.5 312q0 220-78 313t-262 93q-102 0-220-22t-199.5-48.5-146.5-48.5-75-22q-37 0-37 30 0 24 49.5 62.5t137.5 81 195 79.5q249 86 487 86 457 0 646-266 111-157 111-388 0-175-61-328.5t-170-268.5-256-198q-297-167-673-167-736 0-736 503 0 141 61 270.5t160.5 225 223.5 167.5q252 144 506 144 40 0 57.5-14.5t17.5-29.5-4.5-25.5-17.5-24.5-23-24q-25-22-75-65z"/><path transform="translate(96.734 16.016) scale(.0078125 -.0078125)" d="m2037 285q37 0 37-34.5t-36.5-60.5-107.5-59.5-176.5-73.5-244-68.5-264.5-28.5q-297 0-297 136 0 88 100.5 314.5t100.5 305.5q0 89-139 89-63 0-143-16-38-134-135.5-426t-110-332-53.5-40l-515-11q-11 0-24.5 13.5t-13.5 32 42.5 131 94 242 94 285 42.5 257.5l-1 38q0 50 97 50l474 11q26 0 39-15.5t13-38-11-72.5q352 147 578 147 96 0 175-53 88-59 88-179 0-123-93-322t-93-246q0-93 74-93 47 0 160.5 35.5t168 58.5 80.5 23z"/><path transform="translate(111.42 16.016) scale(.0078125 -.0078125)" d="m1696 285q35 0 35-32.5t-47.5-60-117.5-59-193-74.5q-283-99-639-99-676 0-676 416 0 203 128.5 360.5t344.5 241 471 83.5 373.5-79 118.5-217q0-142-113.5-232t-301.5-134q-189-44-433-62 16-155 222-193 53-9 112-9 234 0 675 141 27 9 41 9zm-1049 162q174 48 275 147t101 239q0 37-24 59t-72.5 22-101-42-88.5-110q-76-141-90-315z"/></svg>