<svg width="37.6" height="20.16" viewBox="0 0 37.6 20.16" xmlns="http://www.w3.org/2000/svg"><path transform="translate(0 15.52) scale(.016 -.016)" d="m343-18q-91 0-155 30t-98 83-34 120h98q0-33 17.5-66t59-55 112.5-22q66 0 108 19.5t62 51 20 68.5q0 45-39 74.5t-114 36.5l-81 7q-97 8-155 60t-58 137q0 67 32.5 117t90.5 78.5 135 28.5q76 0 134-28t90.5-78.5 32.5-120.5h-98q0 35-16.5 66t-51.5 51-91 20q-54 0-89.5-19t-53-49.5-17.5-65.5q0-40 31-71t92-36l81-7q75-6 129.5-31.5t84-68 29.5-101.5q0-67-36-119t-101-81-151-29z"/><path transform="translate(11.024 15.52) scale(.016 -.016)" d="m338-18q-70 0-123 24t-89.5 63.5-55 88.5-18.5 100v18q0 51 19 100.5t56 89 90 63 121 23.5 121-23.5 90-63 56-89 19-100.5v-18q0-51-18.5-100t-55-88.5-89.5-63.5-123-24zm0 86q60 0 102.5 26.5t65 71.5 22.5 101q0 57-23 102t-65.5 71-101.5 26q-58 0-101-26t-66-71-23-102q0-56 22.5-101t65-71.5 102.5-26.5z"/><path transform="translate(21.84 15.52) scale(.016 -.016)" d="m92 0v534h76v-220h-4q0 117 51.5 171.5t154.5 54.5h18v-86h-34q-80 0-123-42.5t-43-122.5v-289z"/><path transform="translate(28.4 15.52) scale(.016 -.016)" d="m415 0v160h-16v185q0 55-28.5 83t-83.5 28q-31 0-64-1t-63-2-52-3v84q22 2 46.5 3.5t50.5 2 50 0.5q82 0 134-19.5t77-63.5 25-119v-338zm-175-14q-60 0-103.5 20.5t-67 59.5-23.5 94q0 57 25.5 95t74.5 57.5 118 19.5h145v-72h-149q-58 0-89-28t-31-72 31-71 89-27q34 0 65 12.5t51.5 42 22.5 81.5l26-38q-5-57-27.5-95.5t-62-58.5-95.5-20z"/></svg>