<svg width="96.032" height="20.672" viewBox="0 0 96.032 20.672" xmlns="http://www.w3.org/2000/svg"><path transform="translate(0 15.936) scale(.016 -.016)" d="m289 4q-50-3-90.5 2.5t-68.5 14.5-43 16.5-15 7.5-4 2.5-9.5 7.5-10 12-5 16 4.5 18q6 11 14 15.5t16 5 13.5-1 5.5-1.5q39-16 81-23t79-4.5 62.5 16.5 31.5 41q5 25-6.5 44.5t-34.5 35.5-52.5 29.5-58.5 25.5q-19 8-41 22t-41.5 34-33.5 44.5-18 53 5.5 60.5 38.5 66q29 35 61.5 53.5t65.5 26.5 62.5 8 53-4 37-8 13.5-4 5.5-2 13.5-7 16-11.5 12-16 2-21.5q-3-13-11.5-19.5t-18-7.5-16.5-0.5-7 0.5q-50 15-94 7.5t-76.5-29.5-49-50.5-8.5-54.5q6-22 28.5-38.5t54-31 65.5-30 63-35 46-46.5q23-37 27-71t-7-63.5-34-51.5-55-36-69-17z"/><path transform="translate(7.968 15.936) scale(.016 -.016)" d="m278 2q-52 0-95.5 19t-74.5 51.5-48 76.5-17 94 18.5 96.5 52.5 82.5 79 57 97 21 97-15 78.5-45.5 52-78 18.5-111.5q0-50-20-95t-56.5-79-83-54-98.5-20zm-1 89q32 0 60.5 13.5t50.5 36.5 35 52.5 13 62.5q0 56-18.5 92t-50.5 53.5-74 17.5q-31 0-58-15.5t-47.5-41-32.5-57.5-12-65q0-43 16.5-77t47-53 70.5-19z"/><path transform="translate(17.232 15.936) scale(.016 -.016)" d="m204 10q-25 11-48.5 28.5t-43.5 41.5-35.5 57-24.5 75q-10 54-9 110t11 120q0 0 1.5 7t7.5 15 17.5 13 31.5 0q17-4 26-13.5t12-19.5 3.5-17 0.5-7q-11-85-8-154.5t25-109.5q15-27 33.5-43.5t39.5-22 41.5-2.5 39.5 14q29 18 45 48.5t22.5 67 3.5 71.5q-3 33-9.5 66.5t-12.5 60.5-9 41q0 0 0.5 5t3.5 11.5 10.5 12 22.5 7.5 26.5-4.5 18-13 6.5-6.5q17-27 31-66t22-83q8-54 5-96.5t-15.5-77-34.5-65.5q-20-26-49-45t-63.5-29-71-9.5-73.5 12.5z"/><path transform="translate(26.112 15.936) scale(.016 -.016)" d="m100 114q-13-1-20.5 6t-11 16.5-5 17.5-1.5 8q-3 17-5 26.5t-2 18 0.5 21.5 1.5 36q4 59 23.5 104t54.5 75 83 44q42 10 78 7t65.5-15.5 52.5-32.5q0 0 4-4t8.5-11 7-15.5 0-17.5-12.5-18q-11-9-24-8.5t-25 5.5-19.5 9.5-7.5 4.5q-23 16-51.5 16.5t-57.5-13.5q-41-18-63.5-51.5t-28.5-79.5q-2-25-3.5-40.5t-2-26-0.5-21.5 1-29q0 0-2-7t-10.5-14.5-26.5-10.5zm4-113q-14 1-23.5 6.5t-15.5 13-8.5 12.5-2.5 5q-6 54-8.5 105t-2.5 101.5 3 104.5 8 114q0 0 1 5.5t5.5 12.5 14 12.5 26.5 4.5q17 0 27-7t14.5-16.5 6-16.5 1.5-7q-3-50-5-98t-2-98 1.5-103.5 5.5-112.5q0 0-1-6t-5.5-13.5-13.5-13.5-26-5z"/><path transform="translate(37.92 15.936) scale(.016 -.016)" d="m238 12q-46 11-83 34t-63 58.5-38.5 83.5-10.5 109q8 61 27 116t56 103.5 97 88.5q72 44 140 45t132-33q33-21 52-47.5t27-56 6.5-60-10.5-59.5q0 0-4-4.5t-11.5-9-20.5-2.5q-14 3-22 12t-11 17-3 8q3 20 1 46t-10 52q-9 18-27.5 30t-43.5 16.5-52.5-0.5-54.5-21q-43-25-76-56.5t-54.5-74-30.5-99.5q-9-71 10.5-119t60.5-75q37-14 73-21.5t72.5-4.5 77.5 20q24 14 32 31t-7 38q-22 14-53 26t-69 19q0 0-3 3t-6.5 7.5-6 12-1.5 15.5q3 11 8.5 16t11 6.5 5.5 1.5q30 1 58-6t53.5-17.5 45.5-22.5q22-17 37.5-36.5t21.5-41.5 0.5-45.5-26.5-46.5q-25-24-59.5-40t-75.5-24-84.5-6-87.5 14z"/><path transform="translate(47.904 15.936) scale(.016 -.016)" d="m204 10q-25 11-48.5 28.5t-43.5 41.5-35.5 57-24.5 75q-10 54-9 110t11 120q0 0 1.5 7t7.5 15 17.5 13 31.5 0q17-4 26-13.5t12-19.5 3.5-17 0.5-7q-11-85-8-154.5t25-109.5q15-27 33.5-43.5t39.5-22 41.5-2.5 39.5 14q29 18 45 48.5t22.5 67 3.5 71.5q-3 33-9.5 66.5t-12.5 60.5-9 41q0 0 0.5 5t3.5 11.5 10.5 12 22.5 7.5 26.5-4.5 18-13 6.5-6.5q17-27 31-66t22-83q8-54 5-96.5t-15.5-77-34.5-65.5q-20-26-49-45t-63.5-29-71-9.5-73.5 12.5z"/><path transform="translate(56.784 15.936) scale(.016 -.016)" d="m443 19q-17 5-26 14t-12 18.5-3.5 17-0.5 7.5q11 84 8.5 153.5t-24.5 108.5q-20 37-47 53.5t-56 15-58-19.5q-34-22-53-54t-26.5-68-8.5-70q1-32 1-58t1-46 2-33q0 0-0.5-4t-2.5-10-8.5-11-20.5-6q-12-1-21 5t-14.5 12-5.5 6q-11 18-11.5 35t1 38-3.5 51q-2 37-1.5 67.5t4.5 58 13 51.5 25 47q20 26 49 47t63.5 34 71.5 15 74-10q25-11 48.5-28.5t43.5-41.5 35-56.5 25-75.5q10-53 9-108t-11-120q0 0-2-7t-7.5-15-17.5-12.5-32-0.5zm-339-18q-14 1-23.5 6.5t-15.5 13-8.5 12.5-2.5 5q-6 54-8.5 105t-2.5 101.5 3 104.5 8 114q0 0 1 5.5t5.5 12.5 14 12.5 26.5 4.5q17 0 27-7t14.5-16.5 6-16.5 1.5-7q-3-50-5-98t-2-98 1.5-103.5 5.5-112.5q0 0-1-6t-5.5-13.5-13.5-13.5-26-5zm703 18q-17 5-26 14t-12 18.5-3.5 17-0.5 7.5q11 84 8.5 153.5t-25.5 108.5q-20 37-46.5 53.5t-55.5 15-58-19.5q-34-22-53-54t-27-68-8-70q1-32 0-53.5t-2-36.5-3-31q0 0 0-5.5t-2-12.5-8-13-18-7q-13-1-21.5 4.5t-12.5 11.5-4 6q-5 13-6 30t-1 39 0 48q-2 36-2.5 67t2.5 58 11.5 51 24.5 47q20 26 49 47t63 34 71.5 15 74.5-10q25-11 48-28.5t43.5-41.5 35.5-56.5 24-75.5q11-53 9.5-108t-11.5-120q0 0-1.5-7t-7.5-15-17.5-12.5-31.5-0.5z"/><path transform="translate(71.488 15.936) scale(.016 -.016)" d="m443 19q-17 5-26 14t-12 18.5-3.5 17-0.5 7.5q11 84 8.5 153.5t-24.5 108.5q-20 37-47 53.5t-56 15-58-19.5q-34-22-53-54t-26.5-68-8.5-70q1-32 1-58t1-46 2-33q0 0-0.5-4t-2.5-10-8.5-11-20.5-6q-12-1-21 5t-14.5 12-5.5 6q-11 18-11.5 35t1 38-3.5 51q-2 37-1.5 67.5t4.5 58 13 51.5 25 47q20 26 49 47t63.5 34 71.5 15 74-10q25-11 48.5-28.5t43.5-41.5 35-56.5 25-75.5q10-53 9-108t-11-120q0 0-2-7t-7.5-15-17.5-12.5-32-0.5zm-339-18q-14 1-23.5 6.5t-15.5 13-8.5 12.5-2.5 5q-6 54-8.5 105t-2.5 101.5 3 104.5 8 114q0 0 1 5.5t5.5 12.5 14 12.5 26.5 4.5q17 0 27-7t14.5-16.5 6-16.5 1.5-7q-3-50-5-98t-2-98 1.5-103.5 5.5-112.5q0 0-1-6t-5.5-13.5-13.5-13.5-26-5zm703 18q-17 5-26 14t-12 18.5-3.5 17-0.5 7.5q11 84 8.5 153.5t-25.5 108.5q-20 37-46.5 53.5t-55.5 15-58-19.5q-34-22-53-54t-27-68-8-70q1-32 0-53.5t-2-36.5-3-31q0 0 0-5.5t-2-12.5-8-13-18-7q-13-1-21.5 4.5t-12.5 11.5-4 6q-5 13-6 30t-1 39 0 48q-2 36-2.5 67t2.5 58 11.5 51 24.5 47q20 26 49 47t63 34 71.5 15 74.5-10q25-11 48-28.5t43.5-41.5 35.5-56.5 24-75.5q11-53 9.5-108t-11.5-120q0 0-1.5-7t-7.5-15-17.5-12.5-31.5-0.5z"/><path transform="translate(86.192 15.936) scale(.016 -.016)" d="m353-211q-70-4-132 8.5t-117 38.5q0 0-5.5 3t-12.5 9.5-10.5 16 0.5 22.5q5 12 13.5 17.5t17 6 15 0 6.5-0.5q34-13 66-21t64-11 66-2q47 2 77 17t45.5 44.5 18.5 72.5q4 68 4.5 127.5t-2.5 113.5-8.5 105.5-15.5 103.5q0 0 2.5 7.5t11 14.5 27.5 7q20 1 32-6.5t17.5-15.5 5.5-8q18-74 25.5-152t7.5-160.5-5-170.5q-12-90-65-136t-149-51zm-140 223q-42 19-74.5 48t-54 67-30.5 83q-8 38-9.5 74.5t1.5 75 10 81.5q0 0 2 5.5t8 13 16.5 13 26.5 4.5q18-2 28.5-8.5t16-15 7-16.5 1.5-13.5 0-5.5q-8-65-8-117.5t8.5-89.5 23.5-59q32-47 74.5-58.5t96.5 9.5q34 16 58.5 41.5t37.5 59.5 12 73l78 48q14-81-1-142t-53-105q-29-32-72-54.5t-95.5-27.5-108.5 16z"/></svg>