<svg width="90.916" height="19.194" viewBox="0 0 90.916 19.194" xmlns="http://www.w3.org/2000/svg"><path transform="translate(0 14.504) scale(.014 -.014)" d="m248-15q-67 0-122 17t-86 35l3 148h63l29-151-65 14v56q29-20 55-34t55-21.5 66-7.5q52 0 86.5 15t52 42 17.5 61q0 32-13 53.5t-40 38.5-71 33l-37 15q-54 21-96.5 47.5t-67 64-24.5 92.5q0 58 30 98.5t82.5 62.5 119.5 22q58 0 104-15.5t72-34.5l-3-139h-62l-30 149 64-17v-57q-35 29-69.5 43.5t-78.5 14.5q-42 0-72-13.5t-46.5-38-16.5-57.5q0-30 13-51.5t39-38.5 66-33l38-14q61-24 104.5-51t66-64.5 22.5-91.5q0-59-31-102t-86.5-66.5-130.5-23.5z"/><path transform="translate(7.616 14.504) scale(.014 -.014)" d="m289-12q-63 0-118.5 29t-89.5 86.5-34 140.5 34 141.5 89.5 88.5 118.5 30 118.5-29.5 90-87 34.5-140.5-34.5-141-90-88-118.5-30zm0 52q46 0 78 23t49 68 17 113q0 69-17 115t-49 69-78 23q-45 0-77-23t-49-68.5-17-113.5q0-69 17-114.5t49-68.5 77-23z"/><path transform="translate(15.722 14.504) scale(.014 -.014)" d="m244-12q-70 0-107 42t-36 132l1 286 31-34-112 22v42l147 17 25-5-2-121v-191q0-61 21-87t65-26q26 0 53.5 8.5t54.5 25 53 38.5l8-45h-28q-21-32-48-55.5t-58.5-36-67.5-12.5zm195 4-10 113-4 1 1 315-81 15v42l146 17 25-5-1-121v-310l78-15v-44z"/><path transform="translate(24.514 14.504) scale(.014 -.014)" d="m45 0v48l113 10h28l127-10v-48zm78 0q0 30 0.5 67t0.5 76 0 72v52q0 26 0 48t-0.5 42.5-0.5 42.5l-84 4v44l132 50 28-5 10-136 6-1v-141q0-33 0-72t0.5-76 0.5-67zm83 281-8 74h22q18 45 39.5 78t48 51 58.5 18q30 0 49.5-14.5t26.5-31.5q-1-31-16.5-53t-48.5-22q-21 0-36.5 8.5t-28.5 20.5l-23 22 52 4q-50-24-82.5-64.5t-52.5-90.5z"/><path transform="translate(30.898 14.504) scale(.014 -.014)" d="m286-12q-74 0-128 31t-82.5 87.5-28.5 133.5q0 80 32 139t87 92 122 33q55 0 95.5-16.5t66-44 33.5-60.5q-4-21-16-34t-34-13q-26 0-39 15.5t-20 36.5l-28 92 58-51q-23 11-48.5 17.5t-57.5 6.5q-46 0-81-24t-54.5-69.5-19.5-109.5 21-107 57.5-64.5 83.5-21.5q33 0 58.5 9t46.5 24.5 39 36.5l34-31q-18-30-43.5-54.5t-62.5-39-91-14.5z"/><path transform="translate(38.178 14.504) scale(.014 -.014)" d="m286-12q-75 0-128.5 30.5t-82 87-28.5 133.5q0 78 30 137.5t83 93.5 121 34q61 0 106-23.5t70.5-67.5 25.5-105q0-19-2.5-37.5t-5.5-30.5h-375v47h262q21 7 27 20t6 30q0 39-13.5 64.5t-39 38-61.5 12.5q-38 0-70-21t-51-65.5-19-116.5q0-61 20.5-104.5t58-66.5 87.5-23q53 0 88.5 19.5t63.5 51.5l31-25q-22-33-49-59t-64-40-91-14z"/><path transform="translate(48.958 14.504) scale(.014 -.014)" d="m248-15q-67 0-122 17t-86 35l3 148h63l29-151-65 14v56q29-20 55-34t55-21.5 66-7.5q52 0 86.5 15t52 42 17.5 61q0 32-13 53.5t-40 38.5-71 33l-37 15q-54 21-96.5 47.5t-67 64-24.5 92.5q0 58 30 98.5t82.5 62.5 119.5 22q58 0 104-15.5t72-34.5l-3-139h-62l-30 149 64-17v-57q-35 29-69.5 43.5t-78.5 14.5q-42 0-72-13.5t-46.5-38-16.5-57.5q0-30 13-51.5t39-38.5 66-33l38-14q61-24 104.5-51t66-64.5 22.5-91.5q0-59-31-102t-86.5-66.5-130.5-23.5z"/><path transform="translate(56.574 14.504) scale(.014 -.014)" d="m286-12q-75 0-128.5 30.5t-82 87-28.5 133.5q0 78 30 137.5t83 93.5 121 34q61 0 106-23.5t70.5-67.5 25.5-105q0-19-2.5-37.5t-5.5-30.5h-375v47h262q21 7 27 20t6 30q0 39-13.5 64.5t-39 38-61.5 12.5q-38 0-70-21t-51-65.5-19-116.5q0-61 20.5-104.5t58-66.5 87.5-23q53 0 88.5 19.5t63.5 51.5l31-25q-22-33-49-59t-64-40-91-14z"/><path transform="translate(64.036 14.504) scale(.014 -.014)" d="m45 0v48l113 10h28l127-10v-48zm78 0q0 30 0.5 67t0.5 76 0 72v52q0 26 0 48t-0.5 42.5-0.5 42.5l-84 4v44l132 50 28-5 10-136 6-1v-141q0-33 0-72t0.5-76 0.5-67zm83 281-8 74h22q18 45 39.5 78t48 51 58.5 18q30 0 49.5-14.5t26.5-31.5q-1-31-16.5-53t-48.5-22q-21 0-36.5 8.5t-28.5 20.5l-23 22 52 4q-50-24-82.5-64.5t-52.5-90.5z"/><path transform="translate(70.42 14.504) scale(.014 -.014)" d="m42 0v48l112 10h28l108-10v-48zm78 0q1 30 1 67t0.5 76 0.5 72v52q0 38-0.5 69t-1.5 64l-83 4v44l149 50 28-5-2-122v-156q0-33 0.5-72t0.5-76 1-67zm44 599q-28 0-47.5 19t-19.5 47 19.5 47 47.5 19q29 0 48.5-19t19.5-47-19.5-47-48.5-19z"/><path transform="translate(75.026 14.504) scale(.014 -.014)" d="m39 0v48l107 10h44l119-10v-48zm82 0q1 36 1 72t0.5 72 0.5 71v219h-86v47l113 16-26-28 1 17q5 53 14.5 90.5t27 66 43.5 53.5q28 26 63.5 38t73.5 12 65-13.5 36-41.5q-1-19-16-33t-43-14q-24 0-42.5 11t-39.5 27l-40 30 16-1h4l14 3q-15-4-25-10t-20-22q-11-18-20-38t-14.5-45.5-7.5-59.5-1-79v-245q0-35 0.5-71t0.5-72 1-72zm51 434v58h171v-58z"/><path transform="translate(83.51 14.504) scale(.014 -.014)" d="m312-15v195l3 15v370h-26l39 19-123-198-137-177 11 39v-27h433v-69h-489v60l313 442h70v-669z"/></svg>