<svg width="93.12" height="22.784" viewBox="0 0 93.12 22.784" xmlns="http://www.w3.org/2000/svg"><path transform="translate(0 16.384) scale(.016 -.016)" d="m272-12q-70 0-128 26.5t-102 71.5l47 54q35-37 83.5-58t100.5-21q65 0 101 29.5t36 77.5q0 34-14.5 54t-39 34-55.5 28l-94 41q-32 14-62.5 35t-50.5 53.5-20 80.5q0 50 26.5 89.5t73 62 106.5 22.5 110-22 84-57l-45-54q-31 27-68 43.5t-81 16.5q-55 0-88.5-26t-33.5-70q0-31 16-51t41.5-33 51.5-25l93-40q39-17 69.5-39t48-55 17.5-81q0-52-26.5-94.5t-77-67.5-119.5-25z"/><path transform="translate(8.544 16.384) scale(.016 -.016)" d="m271-12q-59 0-110.5 30t-83 87-31.5 137q0 82 31.5 139t83 87 110.5 30q60 0 111-30t82.5-87 31.5-139q0-80-31.5-137t-82.5-87-111-30zm0 68q42 0 74 23.5t49 65.5 17 97q0 56-17 98.5t-49 66-74 23.5-73.5-23.5-49-66-17.5-98.5q0-55 17.5-97t49-65.5 73.5-23.5z"/><path transform="translate(17.216 16.384) scale(.016 -.016)" d="m224-12q-77 0-112.5 48.5t-35.5 141.5v308h82v-297q0-68 21.5-98.5t69.5-30.5q37 0 66.5 19.5t64.5 61.5v345h82v-486h-68l-7 76h-3q-33-40-71.5-64t-88.5-24z"/><path transform="translate(25.92 16.384) scale(.016 -.016)" d="m82 0v486h68l7-88h3q24 46 60 73t78 27q16 0 28-2t24-8l-18-70q-11 3-20.5 4.5t-24.5 1.5q-31 0-64.5-25t-58.5-87v-312z"/><path transform="translate(31.472 16.384) scale(.016 -.016)" d="m275-12q-65 0-117 30t-82 87-30 137q0 82 32.5 139t86 87 115.5 30q48 0 82.5-16t59.5-41l-41-51q-18 18-42.5 28.5t-55.5 10.5q-43 0-77.5-23.5t-54.5-65.5-20-98q0-55 19-97t53-65.5 79-23.5q34 0 63 13t50 33l36-50q-31-29-70-46.5t-86-17.5z"/><path transform="translate(38.768 16.384) scale(.016 -.016)" d="m279-12q-65 0-118.5 30.5t-84.5 87-31 137.5q0 79 32 136t82 88 106 31q62 0 105.5-28.5t65.5-79.5 22-120q0-13-0.5-25t-3.5-24h-350v65h280q0 70-30.5 107.5t-87.5 37.5q-33 0-65-18.5t-52.5-59.5-20.5-109q0-62 21.5-104t58.5-63.5 81-21.5q35 0 65.5 10t55.5 27l30-54q-32-22-71.5-36t-89.5-14z"/><path transform="translate(49.904 16.384) scale(.016 -.016)" d="m272-12q-70 0-128 26.5t-102 71.5l47 54q35-37 83.5-58t100.5-21q65 0 101 29.5t36 77.5q0 34-14.5 54t-39 34-55.5 28l-94 41q-32 14-62.5 35t-50.5 53.5-20 80.5q0 50 26.5 89.5t73 62 106.5 22.5 110-22 84-57l-45-54q-31 27-68 43.5t-81 16.5q-55 0-88.5-26t-33.5-70q0-31 16-51t41.5-33 51.5-25l93-40q39-17 69.5-39t48-55 17.5-81q0-52-26.5-94.5t-77-67.5-119.5-25z"/><path transform="translate(58.448 16.384) scale(.016 -.016)" d="m194-12q-40 0-72.5 16.5t-51.5 47-19 74.5q0 82 72 124t228 59q-1 30-9.5 58t-30.5 45-61 17q-42 0-79-15.5t-66-34.5l-32 56q22 15 52 29.5t65 24 74 9.5q59 0 96.5-24.5t55-69.5 17.5-106v-298h-68l-7 58h-3q-35-29-75-49.5t-86-20.5zm23 68q36 0 67.5 16t66.5 47v131q-82-10-129.5-25.5t-68.5-38.5-21-55q0-40 25-57.5t60-17.5z"/><path transform="translate(66.512 16.384) scale(.016 -.016)" d="m82 0v486h68l7-70h3q35 35 74 58.5t89 23.5q77 0 112.5-48.5t35.5-141.5v-308h-82v297q0 69-21.5 99.5t-70.5 30.5q-37 0-66.5-19t-66.5-56v-352z"/><path transform="translate(75.264 16.384) scale(.016 -.016)" d="m209-12q-53 0-100.5 18.5t-80.5 51.5l38 48q32-26 66.5-40t79.5-14q48 0 72 22.5t24 53.5q0 25-16.5 41.5t-41 28-52.5 21.5q-36 13-69 30.5t-53.5 44-20.5 66.5q0 59 44.5 98.5t123.5 39.5q45 0 84-15.5t67-39.5l-38-47q-26 18-53 28t-60 10q-46 0-67.5-21t-21.5-49q0-22 13-36.5t36.5-25.5 53.5-21q38-14 72.5-31.5t56-45 21.5-71.5q0-40-20.5-72.5t-60-52.5-97.5-20z"/><path transform="translate(85.168 16.384) scale(.016 -.016)" d="m236-12q-51 0-90.5 13t-68.5 33-51 44l42 54q29-30 67.5-53t95.5-23q58 0 95 32t37 85q0 38-19.5 66.5t-64 44.5-120.5 16v63q68 0 107.5 16t56.5 42.5 17 60.5q0 47-29.5 74t-80.5 27q-40 0-74-18t-62-47l-44 52q37 35 82 57.5t101 22.5 99-19 67.5-55 24.5-88q0-58-32-95t-84-57v-4q39-9 70-30.5t49.5-54.5 18.5-77q0-57-28-97.5t-76-62.5-106-22z"/></svg>