<svg width="97.92" height="23.696" viewBox="0 0 97.92 23.696" xmlns="http://www.w3.org/2000/svg"><path transform="translate(0 17.92) scale(.016 -.016)" d="m320-14q-90 0-151 33.5t-92.5 91.5-31.5 131v30h84v-24q0-91 51-137.5t140-46.5q78 0 117.5 35t39.5 91v6q0 55-40.5 84t-131.5 42q-105 15-167.5 59.5t-62.5 134.5v12q0 55 29.5 96.5t81.5 65.5 120 24q79 0 134.5-29t85-76.5 29.5-104.5v-42h-84v36q0 46-23 76.5t-61 46-82 15.5q-38 0-71.5-13t-54-37.5-20.5-60.5v-6q0-58 47-84.5t141-40.5q110-16 162-64t52-128v-12q0-91-61.5-147.5t-179.5-56.5z"/><path transform="translate(9.792 17.92) scale(.016 -.016)" d="m69-200v696h78v-78h12q26 45 72 68.5t100 23.5q61 0 113-29.5t83.5-86 31.5-136.5v-20q0-81-31-137t-83.5-85.5-115.5-29.5q-48 0-96 22.5t-74 67.5h-12v-276zm244 260q71 0 118.5 48t47.5 130v20q0 53-22 93t-59.5 62.5-84.5 22.5q-46 0-83.5-23.5t-60-64.5-22.5-94v-12q0-55 22-96t60-63.5 84-22.5z"/><path transform="translate(19.584 17.92) scale(.016 -.016)" d="m279-14q-65 0-117.5 29.5t-83.5 86-31 138.5v16q0 81 31 138t83.5 86.5 115.5 29.5q51 0 92.5-22.5t65.5-69.5h12v78h78v-394q0-30 27-30h25v-72h-53q-31 0-54 20t-23 64h-12q-24-49-66.5-73.5t-89.5-24.5zm8 74q70 0 115 50t45 132v12q0 53-21 94t-57 64.5-82 23.5-82-22.5-57-63-21-94.5v-16q0-84 45-132t115-48z"/><path transform="translate(29.376 17.92) scale(.016 -.016)" d="m315-14q-69 0-127 29.5t-93.5 86.5-35.5 138v12q0 80 35.5 138t93.5 89 127 31q63 0 112.5-24.5t81-67.5 40.5-98l-78-18q-4 35-23 65.5t-52.5 49.5-82.5 19q-48 0-87.5-23.5t-63-65-23.5-95.5v-12q0-56 23.5-96.5t63.5-62 89-21.5 82.5 19.5 52 50 23.5 64.5l78-18q-10-55-41-98t-80.5-67.5-114.5-24.5z"/><path transform="translate(39.168 17.92) scale(.016 -.016)" d="m308-14q-71 0-125.5 32.5t-85.5 90-31 133.5v24q0 70 32 125t87.5 87 124.5 32q61 0 105.5-22t73-56 42-72.5 13.5-71.5v-64h-400q3-73 46.5-118.5t119.5-45.5q71 0 106 30t48 72l74-20q-21-69-77.5-112.5t-152.5-43.5zm-162 310h320q-2 43-24.5 74.5t-57.5 48.5-74 17q-66 0-111-40t-53-100z"/><path transform="translate(58.752 17.92) scale(.016 -.016)" d="M46 0V700H206L300 36H312L406 700H566V0H488V664H476L382 0H230L136 664H124V0Z"/><path transform="translate(68.544 17.92) scale(.016 -.016)" d="m306-14q-66 0-122.5 30t-91.5 87-35 139v12q0 81 35 138.5t91.5 87.5 122.5 30 122.5-30 91.5-87.5 35-138.5v-12q0-82-35-139t-91.5-87-122.5-30zm0 74q48 0 86 22t60.5 63 22.5 97v12q0 54-22.5 95t-61 64-85.5 23-85.5-23-61-64-22.5-95v-12q0-56 22.5-97t61-63 85.5-22z"/><path transform="translate(78.336 17.92) scale(.016 -.016)" d="m87 0v496h78v-84h12q46 98 160 98 86 0 137-53.5t51-160.5v-296h-78v280q0 78-35 117t-95 39q-70 0-111-48.5t-41-129.5v-258z"/><path transform="translate(88.128 17.92) scale(.016 -.016)" d="m306-14q-66 0-122.5 30t-91.5 87-35 139v12q0 81 35 138.5t91.5 87.5 122.5 30 122.5-30 91.5-87.5 35-138.5v-12q0-82-35-139t-91.5-87-122.5-30zm0 74q48 0 86 22t60.5 63 22.5 97v12q0 54-22.5 95t-61 64-85.5 23-85.5-23-61-64-22.5-95v-12q0-56 22.5-97t61-63 85.5-22z"/></svg>