<svg width="159.44" height="20.8" viewBox="0 0 159.44 20.8" xmlns="http://www.w3.org/2000/svg"><path transform="translate(0 16.08) scale(.016 -.016)" d="m211-12q-97 0-145.5 60t-41.5 176l104 5q-2-70 16.5-109t64.5-40q29 0 45 14t22 35.5 6 42.5q0 44-18.5 70t-53.5 53l-62 45q-50 37-83 83.5t-33 117.5q0 87 50 134t126 47q86 0 131.5-50.5t43.5-164.5l-104-5q2 68-16 98.5t-56 30.5q-31 0-48-21.5t-17-60.5 18-65 55-54l68-50q49-37 79-83t30-117q0-99-50.5-145.5t-130.5-46.5z"/><path transform="translate(6.656 16.08) scale(.016 -.016)" d="m41-165v674h110v-58q31 70 101 70 40 0 73-25.5t53-84 20-157.5q0-98-20-156.5t-53.5-84-74.5-25.5q-31 0-55.5 13.5t-41.5 42.5v-209zm112 348q0-62 19-85t47-23q32 0 48.5 28.5t16.5 92.5v117q0 64-16.5 93t-48.5 29q-28 0-47-22t-19-81z"/><path transform="translate(13.456 16.08) scale(.016 -.016)" d="m205-12q-52 0-92.5 25.5t-63 84-22.5 156.5 23 156.5 63 84.5 92 26q57 0 91-26t50.5-68.5 19.5-92-1-96.5h-226v-36q0-73 17.5-101t50.5-28q31 0 43.5 25t18.5 84l99-8q-6-100-51-143t-112-43zm-66 324v-3h129v6q0 71-15 97t-46 26q-32 0-50-27.5t-18-98.5z"/><path transform="translate(19.776 16.08) scale(.016 -.016)" d="m205-12q-52 0-92 26t-63 84.5-23 155.5q0 98 23 156.5t63 84.5 92 26q45 0 80.5-19t57.5-64.5 24-124.5l-98-6q-4 69-17 98t-45 29q-33 0-49.5-28.5t-16.5-99.5v-103q0-70 16.5-98.5t49.5-28.5 45.5 29 16.5 98l99-6q-2-79-24-124.5t-58-65-81-19.5z"/><path transform="translate(26.032 16.08) scale(.016 -.016)" d="M41 584V690H153V584ZM41 0V509H153V0Z"/><path transform="translate(29.12 16.08) scale(.016 -.016)" d="m145-8q-58 0-90.5 36.5t-32.5 102.5 34.5 103 96.5 59l92 34v41q0 38-14.5 52t-38.5 14q-26 0-41.5-18t-20.5-66l-103 13q8 77 50.5 117.5t119.5 40.5q160 0 160-166v-225q0-25 0.5-51t3.5-79h-104l-6 55q-16-32-43.5-47.5t-62.5-15.5zm-13 148q0-38 13.5-53t38.5-15q28 0 44.5 18.5t16.5 47.5v113l-50-21q-29-13-46-32t-17-58z"/><path transform="translate(35.456 16.08) scale(.016 -.016)" d="M41 0V710H153V0Z"/><path transform="translate(40.832 16.08) scale(.016 -.016)" d="m203-12q-51 0-90 34t-60.5 114-21.5 219q0 141 24.5 221t69.5 113 106 33q54 0 94.5-26t64.5-84 25-156l-105-3q-4 95-22 135.5t-56 40.5q-26 0-45-20t-29.5-70.5-10.5-140.5v-86q0-89 10.5-139.5t29.5-71 45-20.5q37 0 58.5 36t21.5 117v49h-91v93h196v-376h-83l-8 72q-23-51-54.5-67.5t-68.5-16.5z"/><path transform="translate(48.112 16.08) scale(.016 -.016)" d="m207-12q-53 0-94 25.5t-64 84.5-23 157 23 156 64 84 94 26q54 0 94.5-26t63.5-84 23-156-23-157-63.5-84.5-94.5-25.5zm0 87q32 0 49.5 28t17.5 99v105q0 71-17.5 99t-49.5 28-49.5-28-17.5-99v-105q0-71 17.5-99t49.5-28z"/><path transform="translate(54.736 16.08) scale(.016 -.016)" d="m188-12q-59 0-90.5 31.5t-31.5 94.5v310h-54v85h58l13 131h95v-131h88v-85h-88v-288q0-31 14-43t36-12q10 0 20.5 1t24.5 5v-84q-42-15-85-15z"/><path transform="translate(59.312 16.08) scale(.016 -.016)" d="m41 0v710h112v-260q19 37 48 54t61 17q53 0 84.5-36t31.5-109v-376h-113v357q0 41-13.5 58t-38.5 17q-24 0-42-16.5t-18-60.5v-355z"/><path transform="translate(65.968 16.08) scale(.016 -.016)" d="M41 584V690H153V584ZM41 0V509H153V0Z"/><path transform="translate(69.056 16.08) scale(.016 -.016)" d="m205-12q-52 0-92 26t-63 84.5-23 155.5q0 98 23 156.5t63 84.5 92 26q45 0 80.5-19t57.5-64.5 24-124.5l-98-6q-4 69-17 98t-45 29q-33 0-49.5-28.5t-16.5-99.5v-103q0-70 16.5-98.5t49.5-28.5 45.5 29 16.5 98l99-6q-2-79-24-124.5t-58-65-81-19.5z"/><path transform="translate(77.6 16.08) scale(.016 -.016)" d="m230-12q-61 0-106 33t-69.5 113-24.5 221 24.5 221 69.5 113 106 33q53 0 94-26t65-87 25-167l-105-4q-4 107-22 149t-56 42q-26 0-45-20t-29.5-70.5-10.5-140.5v-86q0-89 10.5-139.5t30-71 45.5-20.5q38 0 55.5 42t21.5 148l105-3q-2-108-26.5-169t-65.5-86-92-25z"/><path transform="translate(84.64 16.08) scale(.016 -.016)" d="m207-12q-53 0-94 25.5t-64 84.5-23 157 23 156 64 84 94 26q54 0 94.5-26t63.5-84 23-156-23-157-63.5-84.5-94.5-25.5zm0 87q32 0 49.5 28t17.5 99v105q0 71-17.5 99t-49.5 28-49.5-28-17.5-99v-105q0-71 17.5-99t49.5-28z"/><path transform="translate(91.264 16.08) scale(.016 -.016)" d="m41 0v509h111v-61q18 38 47.5 55.5t62.5 17.5q53 0 84-36t31-109v-376h-112v357q0 41-13.5 58t-38.5 17q-24 0-42-16.5t-18-60.5v-355z"/><path transform="translate(97.92 16.08) scale(.016 -.016)" d="m174-12q-40 0-73.5 25.5t-53.5 84-20 156.5q0 100 20 158t54 83.5 75 25.5q30 0 54.5-14t41.5-45v248h112v-710h-111v51q-16-33-41.5-48t-57.5-15zm-33 207q0-62 16.5-91t47.5-29q28 0 47.5 21t19.5 82v147q0 66-19.5 88t-47.5 22q-31 0-47.5-29t-16.5-92z"/><path transform="translate(104.72 16.08) scale(.016 -.016)" d="m205-12q-52 0-92.5 25.5t-63 84-22.5 156.5 23 156.5 63 84.5 92 26q57 0 91-26t50.5-68.5 19.5-92-1-96.5h-226v-36q0-73 17.5-101t50.5-28q31 0 43.5 25t18.5 84l99-8q-6-100-51-143t-112-43zm-66 324v-3h129v6q0 71-15 97t-46 26q-32 0-50-27.5t-18-98.5z"/><path transform="translate(111.04 16.08) scale(.016 -.016)" d="m41 0v509h111v-61q18 38 47.5 55.5t62.5 17.5q53 0 84-36t31-109v-376h-112v357q0 41-13.5 58t-38.5 17q-24 0-42-16.5t-18-60.5v-355z"/><path transform="translate(117.7 16.08) scale(.016 -.016)" d="m185-12q-88 0-127.5 50t-38.5 127l95 3q1-97 71-97 29 0 44 15.5t15 40.5q0 27-17 43.5t-46 32.5l-46 25q-53 29-79 66t-26 87q0 65 43 102.5t110 37.5q82 0 119.5-45t35.5-123l-95-2q-1 47-16.5 67t-42.5 20q-28 0-41.5-14t-13.5-35q0-24 13.5-39.5t42.5-32.5l59-34q49-28 75-60t26-87q0-67-41.5-107.5t-118.5-40.5z"/><path transform="translate(123.57 16.08) scale(.016 -.016)" d="m205-12q-52 0-92.5 25.5t-63 84-22.5 156.5 23 156.5 63 84.5 92 26q57 0 91-26t50.5-68.5 19.5-92-1-96.5h-226v-36q0-73 17.5-101t50.5-28q31 0 43.5 25t18.5 84l99-8q-6-100-51-143t-112-43zm-66 324v-3h129v6q0 71-15 97t-46 26q-32 0-50-27.5t-18-98.5z"/><path transform="translate(129.89 16.08) scale(.016 -.016)" d="m174-12q-40 0-73.5 25.5t-53.5 84-20 156.5q0 100 20 158t54 83.5 75 25.5q30 0 54.5-14t41.5-45v248h112v-710h-111v51q-16-33-41.5-48t-57.5-15zm-33 207q0-62 16.5-91t47.5-29q28 0 47.5 21t19.5 82v147q0 66-19.5 88t-47.5 22q-31 0-47.5-29t-16.5-92z"/><path transform="translate(138.98 16.08) scale(.016 -.016)" d="m234-12q-65 0-110.5 34t-69.5 114.5-24 218.5q0 140 24 220t69.5 113.5 110.5 33.5 110.5-33.5 69.5-113.5 24-220q0-138-24-218.5t-69.5-114.5-110.5-34zm0 93q28 0 47 20.5t29.5 71.5 10.5 141v83q0 90-10.5 140.5t-29.5 71-47 20.5-47.5-20.5-29.5-71-10-140.5v-83q0-90 10-140.5t29.5-71.5 47.5-21z"/><path transform="translate(146.46 16.08) scale(.016 -.016)" d="m41 0v509h111v-61q18 38 47.5 55.5t62.5 17.5q53 0 84-36t31-109v-376h-112v357q0 41-13.5 58t-38.5 17q-24 0-42-16.5t-18-60.5v-355z"/><path transform="translate(153.12 16.08) scale(.016 -.016)" d="m205-12q-52 0-92.5 25.5t-63 84-22.5 156.5 23 156.5 63 84.5 92 26q57 0 91-26t50.5-68.5 19.5-92-1-96.5h-226v-36q0-73 17.5-101t50.5-28q31 0 43.5 25t18.5 84l99-8q-6-100-51-143t-112-43zm-66 324v-3h129v6q0 71-15 97t-46 26q-32 0-50-27.5t-18-98.5z"/></svg>