<svg width="83.4" height="19.2" viewBox="0 0 83.4 19.2" xmlns="http://www.w3.org/2000/svg"><path transform="translate(0 15.416) scale(.008 -.008)" d="m584-20q-153 0-267.5 50t-178.5 150-67 250h183q3-96 46-158t118.5-92.5 175.5-30.5q109 0 175.5 28t97.5 76.5 31 108.5q0 74-41.5 122.5t-121 86-192.5 76.5q-120 42-212.5 100.5t-145.5 142-53 197.5q0 190 123.5 290t334.5 100q141 0 233.5-45t143.5-133.5 67-219.5h-184q-9 69-38 120.5t-84.5 80-147.5 28.5q-125 0-194.5-53t-69.5-159q0-63 25.5-110t91.5-89 190-90q90-35 173-70t148-80.5 103-113 38-168.5q2-190-126-292.5t-375-102.5z"/><path transform="translate(9.208 15.416) scale(.008 -.008)" d="m641-12q-106 0-170.5 37.5t-95.5 86.5-37 82l-59 10 71 52q9-24 39-51t81.5-46.5 122.5-19.5q123 0 204.5 101t81.5 317q0 194-75.5 292.5t-192.5 98.5q-79 0-133.5-25t-86-60.5-41.5-68.5v74q2 32 20 73.5t55.5 80.5 96.5 64.5 144 25.5q125 0 216-67t140-189 49-286q0-149-37-258.5t-99.5-181.5-139-107-154.5-35zm-476-391v1494h183l2-147v-688l-12-62 12-195 1-402z"/><path transform="translate(18.512 15.416) scale(.008 -.008)" d="M166 0V1555H352V0Z"/><path transform="translate(22.656 15.416) scale(.008 -.008)" d="m181 0v1085h188l-3-1085zm95 1260q-55 0-93.5 38t-38.5 98q0 59 38.5 97t93.5 38q54 0 92.5-38t38.5-97q0-60-39-98t-92-38z"/><path transform="translate(27.064 15.416) scale(.008 -.008)" d="m164 0v1091h158l20-411-18 83q13 97 54.5 176.5t117 127 190.5 47.5q152 0 236.5-93.5t84.5-278.5v-742h-186v681q0 93-20.5 150t-65 83-118.5 26q-89 0-156.5-49t-110.5-135v-756z"/><path transform="translate(36.352 15.416) scale(.008 -.008)" d="m579-15q-149 0-261.5 65t-174.5 191.5-62 309.5q0 176 64 302t176 193 255 67q142 0 243.5-61t156.5-174.5 54-271.5q0-32-2-53t-3-44h-758q7-180 90.5-272.5t213.5-92.5q110 0 170.5 46.5t76.5 119.5h182q-7-104-63.5-177t-148.5-110.5-209-37.5zm-213 664h477q-2 140-69 220t-205 80q-145 0-220-98.5t-82-271.5q8 41 32.5 55.5t66.5 14.5z"/><path transform="translate(48.04 15.416) scale(.008 -.008)" d="m584-20q-153 0-267.5 50t-178.5 150-67 250h183q3-96 46-158t118.5-92.5 175.5-30.5q109 0 175.5 28t97.5 76.5 31 108.5q0 74-41.5 122.5t-121 86-192.5 76.5q-120 42-212.5 100.5t-145.5 142-53 197.5q0 190 123.5 290t334.5 100q141 0 233.5-45t143.5-133.5 67-219.5h-184q-9 69-38 120.5t-84.5 80-147.5 28.5q-125 0-194.5-53t-69.5-159q0-63 25.5-110t91.5-89 190-90q90-35 173-70t148-80.5 103-113 38-168.5q2-190-126-292.5t-375-102.5z"/><path transform="translate(57.248 15.416) scale(.008 -.008)" d="m432-12q-104 0-179.5 39.5t-116 107.5-40.5 154q0 89 35 150.5t101 101 160 59.5q62 14 131.5 22t133.5 13 109 7v61q0 131-55 188.5t-171 57.5q-72 0-126.5-19t-84.5-70.5-29-150.5h-174q-12 135 38 224.5t150 134 237 44.5q78 0 149-18.5t126-62 87-118.5 32-188v-725h-181l2 237q-25-113-112.5-181t-221.5-68zm43 147q73 0 134.5 27t103.5 69 53 86v212q-58-4-129-13.5t-125-22.5q-108-25-160.5-67t-52.5-121q0-47 20.5-85.5t59.5-61 96-23.5z"/><path transform="translate(66.048 15.416) scale(.008 -.008)" d="m164 0v1091h158l20-411-18 83q13 97 54.5 176.5t117 127 190.5 47.5q152 0 236.5-93.5t84.5-278.5v-742h-186v681q0 93-20.5 150t-65 83-118.5 26q-89 0-156.5-49t-110.5-135v-756z"/><path transform="translate(75.336 15.416) scale(.008 -.008)" d="m511-17q-113 0-206.5 34.5t-151.5 108-65 189.5h184q18-100 79.5-137.5t156.5-37.5q65 0 117.5 14t83.5 47 31 90q0 44-19 71t-53 44.5-79.5 30.5-98.5 28q-99 29-183 67.5t-135 103.5-51 174q0 134 102 217.5t268 83.5q105 0 189.5-32t138-102.5 65.5-188.5h-183q-10 54-36.5 91t-69.5 56-105 19q-52 0-94-14.5t-67-45.5-25-82q0-56 30-90t85-56.5 129-44.5q57-18 122-37.5t122.5-51.5 94-85.5 36.5-139.5q0-154-114-239t-298-85z"/></svg>