<svg width="54.496" height="19.2" viewBox="0 0 54.496 19.2" xmlns="http://www.w3.org/2000/svg"><path transform="translate(0 15.2) scale(.016 -.016)" d="m169 446q0 68 36 129t96.5 98 129.5 37q30 0 53-6t62-19q33-13 58.5-19.5t55.5-6.5q66 0 132 34-30-30-68-47t-80-17q-28 0-52.5 6.5t-59.5 19.5q-36 13-59.5 19t-49.5 6q-56 0-105.5-33t-79-85-29.5-107q0-50 31-79.5t89-29.5q63 0 117 41-48-71-138-71-64 0-101.5 35t-37.5 95zm489-114q0-93-55.5-169.5t-148.5-122.5q27-39 48-85-31 48-59 80-98-45-208-45-84 0-149 18.5t-91 49.5q-6 17-6 37 0 59 42.5 94.5t114.5 35.5q87 0 161-44t130-116q82 40 131.5 109t49.5 152q0 61-40 91t-113 30q-42 0-78-14.5t-71-44.5q54 86 166 86 82 0 129-36t47-106zm-235-274q-60 64-132 100.5t-152 36.5q-52 0-83-37.5t-31-100.5q24-17 81-27t136-10q94 0 181 38z"/><path transform="translate(11.04 15.2) scale(.016 -.016)" d="m39 11 101 408q1 3 1 8 0 8-9 8-11 0-30.5-9.5t-53.5-31.5q33 36 65.5 58t54.5 22q16 0 16-15 0-10-4-25l-19-78q89 124 178 124 30 0 46.5-12t16.5-36-13-44-33-20q-17 0-21 16 12 1 20 10.5t8 25.5q0 28-36 28-40 0-87-40.5t-96-119.5l-69-277q-2-8-8.5-12.5t-14.5-4.5-11.5 4.5-1.5 12.5z"/><path transform="translate(16.912 15.2) scale(.016 -.016)" d="m164 629q0 22 18 38t40 16q16 0 26-9.5t10-24.5q0-22-18-38t-40-16q-16 0-26 9.5t-10 24.5zm-122-620q0 10 4 25l97 387q1 3 1 8 0 8-9 8-22 0-85-41 33 36 65.5 58t54.5 22q9 0 13-3t4-10-5-27l-96-387q-1-3-1-8 0-8 9-8 22 0 84 41-32-35-65-57.5t-55-22.5q-16 0-16 15z"/><path transform="translate(20.464 15.2) scale(.016 -.016)" d="m90 317q0 47 25 84.5t66 58 88 20.5q52 0 87.5-24.5t50.5-67.5q-48 62-131 62-68 0-109-36t-41-96q0-45 37.5-70t110.5-30q-29-8-56-8-58 0-93 29t-35 78zm-78-242q0 37 29 65t69 28q28 0 44-14t16-37q0-15-7-32-12 54-56 54-26 0-42-17.5t-16-40.5q0-29 32-45t84-16q78 0 123.5 40.5t45.5 108.5q0 91-147 100 30 8 56 8 57 0 92-28.5t35-79.5q0-54-27.5-94.5t-75-62.5-108.5-22q-66 0-106.5 22.5t-40.5 62.5z"/><path transform="translate(27.488 15.2) scale(.016 -.016)" d="m358 41q0-8 9-8 11 0 30.5 9.5t53.5 31.5q-33-36-65.5-58t-54.5-22q-8 0-11.5 3.5t-3.5 11.5q0 9 3 25l20 81q-34-55-87-90t-98-35q-35 0-59.5 20t-44.5 57q-10 37-10 73 0 87 36.5 165.5t102 126.5 146.5 48q89 0 158-80-84 50-163 50-70 0-126-46.5t-87.5-120.5-31.5-154q0-35 5-70 18-20 34.5-29.5t38.5-9.5q50 0 108 47t97 124l46 183q2 8 8 12.5t14 4.5 12-4.5 2-12.5l-81-325q-1-3-1-8z"/><path transform="translate(35.44 15.2) scale(.016 -.016)" d="m509 432q0-26-20-44.5t-51-22.5q15 12 25.5 28t10.5 33q0 24-36 24-27 0-50-16t-65-62l-102-111q25-100 69-204t124-235q-94 115-146.5 214.5t-76.5 192.5l-95-104-29-114q-2-8-8-12.5t-14-4.5-12 4.5-2 12.5l173 692q1 3 1 9 0 7-8 7-22 0-85-41 33 36 65.5 58t54.5 22q9 0 13-3t4-10-5-27l-134-537 188 207q46 51 79.5 71.5t67.5 20.5q30 0 47-13t17-35z"/><path transform="translate(42.912 15.2) scale(.016 -.016)" d="m364 49q-1-3-1-8 0-8 9-8 23 0 84 41-32-35-65-57.5t-55-22.5q-8 0-11.5 3.5t-3.5 11.5q0 9 3 25l20 81q-34-54-89-89.5t-100-35.5q-35 0-59.5 20t-44.5 57q-10 37-10 73 0 88 35 166.5t94 126 126 47.5q36 0 60-12.5t40-38.5q-48 21-100 21-62 0-112.5-48t-79-122.5-28.5-150.5q0-35 5-70 18-20 35-29.5t39-9.5q32 0 70.5 21t75 60 62.5 90l128 512q1 3 1 8 0 8-9 8-22 0-84-41 32 35 65 57.5t55 22.5q16 0 16-15 0-10-4-25z"/><path transform="translate(50.944 15.2) scale(.016 -.016)" d="m164 629q0 22 18 38t40 16q16 0 26-9.5t10-24.5q0-22-18-38t-40-16q-16 0-26 9.5t-10 24.5zm-122-620q0 10 4 25l97 387q1 3 1 8 0 8-9 8-22 0-85-41 33 36 65.5 58t54.5 22q9 0 13-3t4-10-5-27l-96-387q-1-3-1-8 0-8 9-8 22 0 84 41-32-35-65-57.5t-55-22.5q-16 0-16 15z"/></svg>