<svg width="132.32" height="20.8" viewBox="0 0 132.32 20.8" xmlns="http://www.w3.org/2000/svg"><path transform="translate(0 16) scale(.016 -.016)" d="m156 223q4-43 27.5-73.5t62-47 86.5-16.5q70 0 113.5 27t43.5 76q0 34-24 53t-63.5 30-86.5 20.5-94.5 22-87 35-63.5 61-24 99.5q0 58 34.5 105t96.5 74 145 27q76 0 137.5-30.5t97.5-84 36-123.5h-117q-4 65-42.5 100.5t-116.5 35.5q-77 0-117-28.5t-40-75.5q0-36 24-56.5t64-32.5 87-20.5 94-20.5 87-34 64-59.5 24-97.5q0-97-73.5-151t-204.5-54q-81 0-145.5 31.5t-102 85.5-40.5 122z"/><path transform="translate(10.256 16) scale(.016 -.016)" d="M108 0V700H216V92H345V0ZM24 468V560H329V468Z"/><path transform="translate(16.256 16) scale(.016 -.016)" d="m245-16q-55 0-98.5 20.5t-69 59.5-25.5 95q0 66 32 104t84.5 56 115 23.5 123.5 5.5v-90q-124 4-183.5-20.5t-59.5-74.5q0-42 28-63t77-21q39 0 70.5 17t49.5 48.5 18 76.5v67h108v-288h-108v62q-25-37-66-57.5t-96-20.5zm-207 369q0 57 28.5 108t83 83 133.5 32q108 0 166-61t65-167h-107q-4 60-32.5 94.5t-91.5 34.5q-48 0-77-17t-41.5-45.5-12.5-61.5z"/><path transform="translate(25.232 16) scale(.016 -.016)" d="m577 235q-3-72-35.5-129t-90.5-89.5-137-32.5q-87 0-151 37.5t-99.5 104.5-35.5 153q0 87 35.5 154t99.5 105 151 38q76 0 134-33.5t91-87 36-115.5h-114q-2 35-18 66t-47.5 51-81.5 20q-59 0-98-25.5t-58-70.5-19-102q0-56 19-100.5t58-70 98-25.5q52 0 84.5 21.5t48.5 56.5 18 74z"/><path transform="translate(34.896 16) scale(.016 -.016)" d="M51 750H159V0H51ZM196 328 299 346 512 0H389ZM489 560 130 126 99 245 359 560Z"/><path transform="translate(46.72 16) scale(.016 -.016)" d="m156 223q4-43 27.5-73.5t62-47 86.5-16.5q70 0 113.5 27t43.5 76q0 34-24 53t-63.5 30-86.5 20.5-94.5 22-87 35-63.5 61-24 99.5q0 58 34.5 105t96.5 74 145 27q76 0 137.5-30.5t97.5-84 36-123.5h-117q-4 65-42.5 100.5t-116.5 35.5q-77 0-117-28.5t-40-75.5q0-36 24-56.5t64-32.5 87-20.5 94-20.5 87-34 64-59.5 24-97.5q0-97-73.5-151t-204.5-54q-81 0-145.5 31.5t-102 85.5-40.5 122z"/><path transform="translate(56.976 16) scale(.016 -.016)" d="m245-16q-55 0-98.5 20.5t-69 59.5-25.5 95q0 66 32 104t84.5 56 115 23.5 123.5 5.5v-90q-124 4-183.5-20.5t-59.5-74.5q0-42 28-63t77-21q39 0 70.5 17t49.5 48.5 18 76.5v67h108v-288h-108v62q-25-37-66-57.5t-96-20.5zm-207 369q0 57 28.5 108t83 83 133.5 32q108 0 166-61t65-167h-107q-4 60-32.5 94.5t-91.5 34.5q-48 0-77-17t-41.5-45.5-12.5-61.5z"/><path transform="translate(65.952 16) scale(.016 -.016)" d="m49 560h108v-92q12 28 34.5 52.5t59.5 40 90 15.5q54 0 97-22t67.5-72.5 24.5-136.5v-345h-108v332q0 46-9 79.5t-32.5 52-66.5 18.5q-40 0-76-23t-58.5-68-22.5-112v-279h-108z"/><path transform="translate(75.168 16) scale(.016 -.016)" d="m134 177q5-51 44-76t93-25q53 0 85.5 20.5t32.5 62.5q0 26-19.5 39.5t-51 21.5-69 14-75.5 15-69.5 26.5-50.5 47.5-19 78q0 45 28 85.5t80 65 120 24.5q61 0 111.5-24.5t81.5-67.5 31-100h-103q-4 51-39.5 75.5t-85.5 24.5q-58 0-87.5-23.5t-29.5-59.5q0-27 19-42t50.5-23.5 69.5-14 75.5-14.5 69-25.5 51-46 19.5-76.5q0-53-28.5-92t-79.5-61-122-22q-66 0-119.5 25.5t-85 69-33.5 98.5z"/><path transform="translate(86.816 16) scale(.016 -.016)" d="M449 0 91 700H211L570 0ZM55 700H160V0H55ZM501 700H606V0H501Z"/><path transform="translate(97.376 16) scale(.016 -.016)" d="m314-16q-87 0-151 37.5t-99.5 104.5-35.5 153q0 87 35.5 154t99.5 105 151 38 151-38 99.5-105 35.5-154q0-86-35.5-153t-99.5-104.5-151-37.5zm0 98q55 0 94 25t60 69.5 21 102.5q0 60-21 105t-60 69.5-94 24.5-94-24.5-60-69.5-21-105q0-58 21-102.5t60-69.5 94-25z"/><path transform="translate(107.41 16) scale(.016 -.016)" d="M108 0V700H216V92H345V0ZM24 468V560H329V468Z"/><path transform="translate(113.41 16) scale(.016 -.016)" d="m577 235q-3-72-35.5-129t-90.5-89.5-137-32.5q-87 0-151 37.5t-99.5 104.5-35.5 153q0 87 35.5 154t99.5 105 151 38q76 0 134-33.5t91-87 36-115.5h-114q-2 35-18 66t-47.5 51-81.5 20q-59 0-98-25.5t-58-70.5-19-102q0-56 19-100.5t58-70 98-25.5q52 0 84.5 21.5t48.5 56.5 18 74z"/><path transform="translate(123.07 16) scale(.016 -.016)" d="m51 750h108v-750h-108zm108-471-16 110q0 26 9 58t31.5 61.5 61.5 48.5 98 19q54 0 97-22t67.5-72.5 24.5-136.5v-345h-108v332q0 46-9 79.5t-32.5 52-66.5 18.5q-40 0-76-23t-58.5-68-22.5-112z"/></svg>