<svg width="127.22" height="20.8" viewBox="0 0 127.22 20.8" xmlns="http://www.w3.org/2000/svg"><path transform="translate(0 16) scale(.016 -.016)" d="m171 223q4-43 27.5-73.5t62-47 86.5-16.5q70 0 113.5 27t43.5 76q0 34-24 53t-63.5 30-86.5 20.5-94.5 22-87 35-63.5 61-24 99.5q0 58 34.5 105t96.5 74 145 27q76 0 137.5-30.5t97.5-84 36-123.5h-117q-4 65-42.5 100.5t-116.5 35.5q-77 0-117-28.5t-40-75.5q0-36 24-56.5t64-32.5 87-20.5 94-20.5 87-34 64-59.5 24-97.5q0-97-73.5-151t-204.5-54q-81 0-145.5 31.5t-102 85.5-40.5 122z"/><path transform="translate(10.736 16) scale(.016 -.016)" d="m39 560h295v-92h-295zm84 140h108v-548q0-31 15-45.5t44-14.5h60v-92h-61q-83 0-124.5 40.5t-41.5 111.5z"/><path transform="translate(17.136 16) scale(.016 -.016)" d="m422 320h108v-320h-108zm-124 256q115 0 173.5-69t58.5-187h-108q0 49-12 84.5t-39 55.5-73 20q-65 0-98-34t-33-83h-114q0 56 28.5 104.5t83 78.5 133.5 30zm133-229 21-78q-139 12-206-19.5t-67-84.5q0-42 28-64t77-22q39 0 70.5 17t49.5 48.5 18 76.5l27-47q-6-56-28-99t-62-67-99-24q-55 0-98.5 20.5t-69 59.5-25.5 95q0 54 21.5 89.5t59 56.5 84.5 30.5 98 11.5 101 0z"/><path transform="translate(26.592 16) scale(.016 -.016)" d="m592 235q-3-72-35.5-129t-90.5-89.5-137-32.5q-87 0-151 37.5t-99.5 104.5-35.5 153q0 87 35.5 154t99.5 105 151 38q76 0 134-33.5t91-87 36-115.5h-114q-2 35-18 66t-47.5 51-81.5 20q-59 0-98-25.5t-58-70.5-19-102q0-56 19-100.5t58-70 98-25.5q52 0 84.5 21.5t48.5 56.5 18 74z"/><path transform="translate(36.736 16) scale(.016 -.016)" d="M66 750H174V0H66ZM211 328 314 346 527 0H404ZM504 560 145 126 114 245 374 560Z"/><path transform="translate(49.28 16) scale(.016 -.016)" d="m171 223q4-43 27.5-73.5t62-47 86.5-16.5q70 0 113.5 27t43.5 76q0 34-24 53t-63.5 30-86.5 20.5-94.5 22-87 35-63.5 61-24 99.5q0 58 34.5 105t96.5 74 145 27q76 0 137.5-30.5t97.5-84 36-123.5h-117q-4 65-42.5 100.5t-116.5 35.5q-77 0-117-28.5t-40-75.5q0-36 24-56.5t64-32.5 87-20.5 94-20.5 87-34 64-59.5 24-97.5q0-97-73.5-151t-204.5-54q-81 0-145.5 31.5t-102 85.5-40.5 122z"/><path transform="translate(60.016 16) scale(.016 -.016)" d="m422 320h108v-320h-108zm-124 256q115 0 173.5-69t58.5-187h-108q0 49-12 84.5t-39 55.5-73 20q-65 0-98-34t-33-83h-114q0 56 28.5 104.5t83 78.5 133.5 30zm133-229 21-78q-139 12-206-19.5t-67-84.5q0-42 28-64t77-22q39 0 70.5 17t49.5 48.5 18 76.5l27-47q-6-56-28-99t-62-67-99-24q-55 0-98.5 20.5t-69 59.5-25.5 95q0 54 21.5 89.5t59 56.5 84.5 30.5 98 11.5 101 0z"/><path transform="translate(69.472 16) scale(.016 -.016)" d="m64 560h108v-92q12 28 34.5 52.5t59.5 40 90 15.5q54 0 97-22t67.5-72.5 24.5-136.5v-345h-108v332q0 46-9 79.5t-32.5 52-66.5 18.5q-40 0-76-23t-58.5-68-22.5-112v-279h-108z"/><path transform="translate(79.168 16) scale(.016 -.016)" d="m149 177q5-51 44-76t93-25q53 0 85.5 20.5t32.5 62.5q0 26-19.5 39.5t-51 21.5-69 14-75.5 15-69.5 26.5-50.5 47.5-19 78q0 45 28 85.5t80 65 120 24.5q61 0 111.5-24.5t81.5-67.5 31-100h-103q-4 51-39.5 75.5t-85.5 24.5q-58 0-87.5-23.5t-29.5-59.5q0-27 19-42t50.5-23.5 69.5-14 75.5-14.5 69-25.5 51-46 19.5-76.5q0-53-28.5-92t-79.5-61-122-22q-66 0-119.5 25.5t-85 69-33.5 98.5z"/><path transform="translate(91.776 16) scale(.016 -.016)" d="M258 700H368V0H258ZM38 700H589V604H38Z"/><path transform="translate(101.79 16) scale(.016 -.016)" d="m329-16q-87 0-151 37.5t-99.5 104.5-35.5 153q0 87 35.5 154t99.5 105 151 38q57 0 107-22t86-65 53.5-104.5 8.5-140.5h-480v91h420l-45-32q3 48-14 87.5t-51 63.5-85 24q-59 0-98-26t-58-71-19-102q0-56 19-100.5t58-70.5 98-26 93.5 28 47.5 68h114q-13-58-47.5-101.5t-87-68-120.5-24.5z"/><path transform="translate(111.86 16) scale(.016 -.016)" d="M41 560H166L523 0H398ZM520 560 163 0H38L395 560Z"/><path transform="translate(120.82 16) scale(.016 -.016)" d="m39 560h295v-92h-295zm84 140h108v-548q0-31 15-45.5t44-14.5h60v-92h-61q-83 0-124.5 40.5t-41.5 111.5z"/></svg>