<svg width="106.16" height="22.07" viewBox="0 0 106.16 22.07" xmlns="http://www.w3.org/2000/svg"><path transform="translate(0 15.578) scale(.0078125 -.0078125)" d="m592 1449q74-7 126.5-34t72-38 33-11 22.5 6 16 14 12 17.5 10 17.5h92v-469h-72q-22 23-50 100.5t-47.5 123.5-48.5 86q-64 89-166 105zm-392-1449h-93v494h69q22-23 39.5-63t37-86.5 42.5-95.5 56-91q74-93 188-105v-82q-90 8-149.5 34.5t-83.5 38-49.5 11.5-56.5-55zm422 54q108 13 167 88 52 67 52 153.5t-31 139-81.5 93-115.5 73.5-132.5 65.5-132 68-114.5 81.5q-113 104-113 253 0 151 103 258 110 112 285 124v-83q-124-16-167-127-14-36-14-90t32-101 84-84 118.5-68 136-63 136-69 118.5-86q116-111 116-268 0-170-123-296-129-134-324-146z"/><path transform="translate(9.0938 15.578) scale(.0078125 -.0078125)" d="m473 969h164v-88h-164zm-83-995q-173 8-204 154-10 46-10 103v650h-135v61q15 13 32.5 21.5t34.5 16.5q44 22 64 53.5t33.5 68 23 73 18 71.5 21.5 69l122 6zm83 91q75 0 117 107 13 33 25 72l64-15q-27-179-123-229-35-18-83-24z"/><path transform="translate(14.586 15.578) scale(.0078125 -.0078125)" d="m572 510q-268-97-268-283 0-75 36-120.5t107.5-45.5 124.5 53v-95q-77-46-174-46t-155.5 19-98.5 52q-83 67-83 177 0 227 403 343 57 17 108 30zm-237 358q55-21 55-96 0-48-34-77t-91.5-29-91 31-33.5 80 23 88 65 69q87 63 219 73v-76q-81-8-112-63zm595-769q55 0 70 100l51-27q-10-97-53.5-148t-138.5-51q-74 0-110 27-58 44-94 133v623q0 62-32.5 107.5t-92.5 61.5v82q339-18 339-358v-473q0-77 61-77z"/><path transform="translate(22.82 15.578) scale(.0078125 -.0078125)" d="m406 750v-553q0-90 44-107 14-6 30-10 53-15 75-27v-53h-482v53q19 12 40 19.5t39 17.5q41 21 41 68v579q0 115-18.5 133t-36 26-36.5 13.5-33 16.5v61h325zm238 102q-9 6-23 6-68-1-132-96v154q74 92 168 92 108 0 145-94 12-29 12-78t-29-83.5-73-34.5-69 21-25 52 26 61z"/><path transform="translate(29.164 15.578) scale(.0078125 -.0078125)" d="m727 1262q0 54-40 72-18 9-41 14.5t-46 17.5v61h340v-1245q0-80 80-106 20-6 38-17v-59h-331zm-195-353q-214 0-214-425t202-425q60 0 124 74v-119q-66-41-156-41t-163 34-127 99q-119 143-119 375t117 379q118 148 297 148 79 0 151-38v-95q-48 34-112 34z"/><path transform="translate(37.734 15.578) scale(.0078125 -.0078125)" d="m483-25q-171 17-281 145-123 143-123 369 0 228 123 371 111 129 281 146v-78q-88-17-129-115-44-108-44-324 0-317 98-401 33-27 75-35zm83 77q177 30 177 437 0 323-104 407-33 26-73 33v78q170-13 284-143 126-145 126-375 0-229-124-372-114-130-286-143z"/><path transform="translate(45.961 15.578) scale(.0078125 -.0078125)" d="m473 53q75 11 120.5 55.5t45.5 103.5-23.5 91.5-62 56-87.5 42-100 37-100 41.5-88 55q-85 71-85 186 0 103 78 183 88 92 230 103v-79q-58-11-92.5-48t-34.5-87 24-79.5 63.5-51 90-39 103.5-37 103.5-43 89.5-58.5q88-78 88-202 0-109-82-195-98-103-281-114zm68 719q0 75 55 96-31 55-112 63v76q132-10 220-73 87-63 87-152 0-54-33.5-85t-91-31-91.5 29-34 77zm-208-563q0-75-55-96 31-55 112-63v-76q-129 8-220 73-87 63-87 152 0 54 33.5 85t91 31 91.5-29 34-77z"/><path transform="translate(57.117 15.578) scale(.0078125 -.0078125)" d="m592 1449q74-7 126.5-34t72-38 33-11 22.5 6 16 14 12 17.5 10 17.5h92v-469h-72q-22 23-50 100.5t-47.5 123.5-48.5 86q-64 89-166 105zm-392-1449h-93v494h69q22-23 39.5-63t37-86.5 42.5-95.5 56-91q74-93 188-105v-82q-90 8-149.5 34.5t-83.5 38-49.5 11.5-56.5-55zm422 54q108 13 167 88 52 67 52 153.5t-31 139-81.5 93-115.5 73.5-132.5 65.5-132 68-114.5 81.5q-113 104-113 253 0 151 103 258 110 112 285 124v-83q-124-16-167-127-14-36-14-90t32-101 84-84 118.5-68 136-63 136-69 118.5-86q116-111 116-268 0-170-123-296-129-134-324-146z"/><path transform="translate(66.211 15.578) scale(.0078125 -.0078125)" d="m473 969h164v-88h-164zm-83-995q-173 8-204 154-10 46-10 103v650h-135v61q15 13 32.5 21.5t34.5 16.5q44 22 64 53.5t33.5 68 23 73 18 71.5 21.5 69l122 6zm83 91q75 0 117 107 13 33 25 72l64-15q-27-179-123-229-35-18-83-24z"/><path transform="translate(71.703 15.578) scale(.0078125 -.0078125)" d="m720 596q0 288-144 324v86q187-17 288-157 95-131 95-341h-566v88zm-140-535q174 8 247 164 21 45 36 92l86-32q-56-209-229-281-61-25-140-30zm-271 492q0-430 188-484v-92q-196 22-311 163-115 139-115 349 0 221 115 363 116 143 307 155v-83q-184-22-184-371z"/><path transform="translate(79.906 15.578) scale(.0078125 -.0078125)" d="m646 901q-83 0-152-65v109q88 63 207 63 138 0 223-72 87-75 87-211v-526q0-95 39-111 12-5 26-8 38-10 59-27v-53h-387v68q0 19 17 35t25 27.5 8 33.5v571q0 166-152 166zm-235-698q0-94 40-113 12-5 26-10 41-13 60-27v-53h-466v53q18 14 45.5 23t40 14 21.5 18q19 26 19 93v577q0 99-39 115-12 5-26 9-44 10-63 24v61h342z"/><path transform="translate(89.188 15.578) scale(.0078125 -.0078125)" d="m727 846q-28 69-125 79v81q133-7 212-88 69-69 69-159 0-92-71-125-24-11-65-11t-73.5 30.5-32.5 70.5 9 59 22 31 28 19 27 13zm-125-782q122 18 180 154 17 38 30 77l83-25q-56-193-183-258-47-25-110-34zm-292 428q0-392 209-428v-91q-189 4-315 135-133 141-133 373 0 205 124 356 128 156 324 170v-88q-150-35-194-254-15-75-15-173z"/><path transform="translate(96.742 15.578) scale(.0078125 -.0078125)" d="m437 993v-835q0-47 41-68 19-10 41-17.5t43-19.5v-53h-465v53q21 12 43.5 19.5t41.5 17.5q42 21 42 68v669q0 53-40 73-18 9-41 14.5t-46 17.5v55zm-22 403q38-36 38-93 0-56-38-92-37-35-95.5-35t-95.5 35-37 92.5 37 93 80.5 35.5 68-9.5 42.5-26.5z"/><path transform="translate(101.71 15.578) scale(.0078125 -.0078125)" d="m397 1427v-1269q0-47 41-68 18-10 40.5-17.5t44.5-19.5v-53h-466v53q21 12 43.5 19.5t40.5 17.5q42 22 42 68v1102q0 47-43 70-19 10-42 17t-44 19v61z"/></svg>