<svg width="107.7" height="16" viewBox="0 0 107.7 16" xmlns="http://www.w3.org/2000/svg"><path transform="translate(0 12.192) scale(.016 -.016)" d="m440 467h-30q-21 83-56 123t-111 39q-51 0-79-23.5t-28-70.5q0-37 21-63.5t55-47.5 71-43q33-19 66.5-38t61-43 44-56 16.5-77q0-58-26.5-98t-72.5-60.5-104-20.5q-52 0-84.5 7.5t-51 15-30.5 7.5q-10 0-18-9t-9-24h-31l-9 216h31q18-69 42-105.5t59.5-50 86.5-13.5q56 0 89 24.5t33 81.5q0 44-24.5 73t-62.5 51.5-79 45.5q-40 23-77 49t-60.5 62-23.5 88q0 53 26 88.5t69 54.5 95 19q46 0 71-7.5t39.5-15.5 26.5-8q24 0 31 29h26z"/><path transform="translate(8.064 12.192) scale(.016 -.016)" d="m587 477h-31q-11 55-23 84t-39 40-83 11h-63v-481q0-45 7-66.5t28-28 64-6.5v-30h-290v30q42 0 63 6.5t28 28 7 66.5v481h-64q-55 0-82.5-11t-39.5-40-23-84h-31l11 180h553z"/><path transform="translate(17.712 12.192) scale(.016 -.016)" d="m133 131v394q0 39-5 61.5t-25.5 31.5-68.5 9v30h288v-30q-47 0-68-9t-25.5-31.5-4.5-61.5v-394q0-43 6-64.5t27-29 65-7.5v-30h-288v30q45 0 66 7.5t27 29 6 64.5z"/><path transform="translate(23.424 12.192) scale(.016 -.016)" d="m660 0h-280v29h10q29 0 41 6t12 22-8 35-28 50l-63 99-29 50h-2l-121-171q-10-13-21.5-31t-11.5-32q0-13 12-20.5t52-7.5v-29h-221v29q27 1 44 7.5t33.5 23.5 40.5 48l167 220-143 214q-24 35-39.5 53.5t-34 25-53.5 6.5v30h278v-30h-11q-28 0-40-6.5t-12-22.5q0-18 20.5-47.5t38.5-64.5l56-95h2l105 151q12 20 19.5 35t7.5 27q0 11-11.5 17t-47.5 6v30h230v-30q-32-1-52.5-8t-39.5-25.5-47-55.5l-139-181 183-268q25-36 45.5-47.5t57.5-12.5z"/><path transform="translate(37.808 12.192) scale(.016 -.016)" d="m587 477h-31q-11 55-23 84t-39 40-83 11h-63v-481q0-45 7-66.5t28-28 64-6.5v-30h-290v30q42 0 63 6.5t28 28 7 66.5v481h-64q-55 0-82.5-11t-39.5-40-23-84h-31l11 180h553z"/><path transform="translate(47.456 12.192) scale(.016 -.016)" d="m762 473v-29q-29 0-44-13.5t-30-52.5l-149-384h-48l-106 291h-4l-117-291h-46l-150 377q-13 31-24 46.5t-25 21-36 5.5v29h215v-29q-30 0-41.5-6.5t-11.5-18.5q0-10 3.5-19t7.5-20l87-221 18-58h7l21 58 72 182-11 30q-12 33-22.5 48.5t-24.5 20-36 4.5v29h209v-29q-28 0-39-6.5t-11-18.5q0-9 2.5-19.5t6.5-21.5l81-219 18-58h6l20 58 79 224q1 4 3.5 13.5t2.5 22.5q0 14-14 19.5t-42 5.5v29z"/><path transform="translate(59.44 12.192) scale(.016 -.016)" d="m258 485q103 0 162.5-64t59.5-175q0-84-28.5-141t-78.5-86-115-29q-105 0-164.5 65.5t-59.5 186.5q0 73 28 127.5t78.5 85 117.5 30.5zm-4-38q-57 0-92-48t-35-144q0-119 35.5-172.5t99.5-52.5q41 0 69 19t42.5 65 14.5 127q0 92-33.5 149t-100.5 57z"/><path transform="translate(71.424 12.192) scale(.016 -.016)" d="m850 0h-266v30q39 0 58 7t25 26.5 6 55.5v431h-4l-233-550h-24l-236 549h-4v-403q0-51 7-76t26.5-32.5 57.5-7.5v-30h-235v30q41 0 61 7.5t27 32.5 7 76v389q0 38-7 57.5t-26.5 27-59.5 7.5v30h204l211-503h4l210 503h190v-30q-35 0-54-7.5t-26-27-7-56.5v-417q0-36 7-55.5t26-26.5 55-7z"/><path transform="translate(85.744 12.192) scale(.016 -.016)" d="m308 62h-4q-35-31-67-50t-80-19q-58 0-88.5 32t-30.5 80q0 40 18.5 67.5t49 46.5 66 32 69.5 22 60 17v44q0 65-22.5 92.5t-67.5 27.5q-43 0-55-18t-12-63q0-46-44-46-15 0-28.5 11.5t-13.5 36.5q0 28 21.5 53t61 41 93.5 16q82 0 116-38t34-116v-227q0-31 7-40t23-9q14 0 25.5 7t21.5 18l15-16q-25-36-47.5-52.5t-60.5-16.5q-33 0-44 17t-16 50zm-7 30v165q-45-11-85-26t-65-39-25-63q0-37 20-59t52-22q50 0 103 44z"/><path transform="translate(93.424 12.192) scale(.016 -.016)" d="m293 90 19-16q-19-27-35.5-45.5t-36.5-28.5-52-10q-50 0-73 29.5t-23 96.5v310h-55v23q35 22 60.5 59.5t52.5 101.5h26l-1-142h113v-42h-113v-282q0-53 9.5-74t38.5-21q24 0 37.5 10t32.5 31z"/><path transform="translate(98.464 12.192) scale(.016 -.016)" d="m183 359v-262q0-26 4-41t20-21 50-6v-29h-227v29q39 0 54.5 11t15.5 53v512q0 26-14.5 33t-34.5 7q-12 0-20.5-1t-8.5-1v28l134 35h27v-303h3q47 44 84.5 63t77.5 19q43 0 69.5-17t40.5-44.5 19-60 5-63.5v-199q0-40 13.5-56t60.5-16v-29h-230v29q35 0 50 7t19 22 4 39v173q0 41-6 75.5t-25.5 55-60.5 20.5q-29 0-58-14t-66-48z"/></svg>