<svg width="63.406" height="18.186" viewBox="0 0 63.406 18.186" xmlns="http://www.w3.org/2000/svg"><path transform="translate(0 13.426) scale(.014 -.014)" d="m413 407q32 87 19 142.5t-66 55.5q-26 0-49-17.5t-33-45.5q-18-50-12.5-89.5t26-71.5 46-60.5 47.5-57 30.5-61-6.5-73.5q-16-43-53-82t-92-63-126-24q-53 0-84.5 25.5t-46 65.5-18.5 84q0 8 14.5 20t33.5 22 34.5 14 16.5-4q5-77 37-126t78-49q37 0 67.5 20t41.5 51q13 36 4 66t-31 57.5-47.5 56.5-45.5 62-25 75 14 96q13 35 45 72.5t82 63 117 25.5q68 0 93-48t-14-156q-4-10-20.5-22t-35.5-21.5-32-11-9 8.5z"/><path transform="translate(6.622 13.426) scale(.014 -.014)" d="m133 473h56l54 149q4 11 16.5 7.5t27-15 23-25 5.5-23.5l-34-93h45q14 0 28-10.5t23.5-24.5 10-24.5-13.5-10.5h-118l-109-299q-2-7-8.5-28.5t-10.5-47.5 0-47q3-15-6.5-16t-24 6.5-27 20.5-14.5 27q-6 30-2 59t11 51 10 31l90 248q-15 7-29 23t-16.5 29 13.5 13z"/><path transform="translate(11.27 13.426) scale(.014 -.014)" d="m184-40q-63 0-100.5 27.5t-53.5 71-13.5 93.5 18.5 95q39 107 107 169.5t156 62.5q63 0 100.5-27.5t53.5-71 14-94-19-95.5q-39-107-106.5-169t-156.5-62zm-49 70q74 0 139 58.5t101 158.5q27 75 19.5 118.5t-47.5 43.5q-74 0-139-58.5t-101-159.5q-27-74-19.5-117.5t47.5-43.5z"/><path transform="translate(18.018 13.426) scale(.014 -.014)" d="m207 410-57-155q45 69 97 126t107 87q9 5 22-1.5t24.5-18 15.5-23.5-6-17q-51-28-102.5-71t-98.5-95.5-85-111-62-117.5l-15-41q-4-11-16.5-7.5t-26.5 15-23 25-6 23.5l160 438q4 11 16.5 7.5t26.5-15 23-25 6-23.5z"/><path transform="translate(23.128 13.426) scale(.014 -.014)" d="m196 415-21-350 250 403q6 9 19 4t26.5-17 21-25.5 2.5-21.5l-317-512q-21-33-50.5-66t-68-55-86.5-22q-12 0-26 10.5t-24 24.5-11 24.5 14 10.5q32 0 67 19.5t65.5 50.5 50.5 63l37 60q-15 8-30 24.5t-15 29.5l24 391q0 14 11.5 13t25.5-11 24.5-23.5 10.5-24.5z"/><path transform="translate(32.088 13.426) scale(.014 -.014)" d="m413 407q32 87 19 142.5t-66 55.5q-26 0-49-17.5t-33-45.5q-18-50-12.5-89.5t26-71.5 46-60.5 47.5-57 30.5-61-6.5-73.5q-16-43-53-82t-92-63-126-24q-53 0-84.5 25.5t-46 65.5-18.5 84q0 8 14.5 20t33.5 22 34.5 14 16.5-4q5-77 37-126t78-49q37 0 67.5 20t41.5 51q13 36 4 66t-31 57.5-47.5 56.5-45.5 62-25 75 14 96q13 35 45 72.5t82 63 117 25.5q68 0 93-48t-14-156q-4-10-20.5-22t-35.5-21.5-32-11-9 8.5z"/><path transform="translate(38.71 13.426) scale(.014 -.014)" d="m355 99q-20-34-52.5-66t-75-52.5-94.5-20.5q-54 0-83.5 22.5t-39.5 59.5-4.5 80 20.5 85q15 40 42.5 85.5t68 86 95 66 122.5 25.5q58 0 79.5-43t-1.5-104q-3-10-20.5-22.5t-37.5-22-33.5-12-9.5 8.5q20 56 0 93.5t-64 37.5q-8 0-22.5-3.5t-34-19-42-52.5-47.5-104q-26-72-22.5-118t21-68.5 34.5-22.5q12 0 27.5 3t34 16.5 36.5 43.5q5 9 23.5 16.5t39.5 11.5 33.5 2 6.5-12z"/><path transform="translate(44.576 13.426) scale(.014 -.014)" d="m207 410-57-155q45 69 97 126t107 87q9 5 22-1.5t24.5-18 15.5-23.5-6-17q-51-28-102.5-71t-98.5-95.5-85-111-62-117.5l-15-41q-4-11-16.5-7.5t-26.5 15-23 25-6 23.5l160 438q4 11 16.5 7.5t26.5-15 23-25 6-23.5z"/><path transform="translate(49.686 13.426) scale(.014 -.014)" d="m182 595 22 60q4 11 16.5 7.5t27-15 23-25 5.5-23.5l-22-60q-4-11-16.5-7.5t-26.5 15-23 25-6 23.5zm-205-567 160 438q4 11 16.5 7.5t26.5-15 23-25 5-23.5l-159-438q-4-11-16.5-7.5t-27 15-23 25-5.5 23.5z"/><path transform="translate(52.262 13.426) scale(.014 -.014)" d="m102 25q44 0 84.5 23t74.5 60 59.5 79 39.5 79q19 53 7.5 83t-42.5 30q-29 0-70-30t-84-93.5-81-166.5l-120-329q-1-7-11-7-11 0-27 11.5t-26.5 26.5-6.5 25l236 650q3 7 12 7 12 0 27.5-11.5t26-26 6.5-25.5l-19-52q89 121 190 121 39 0 62.5-31t23-91-32.5-147q-16-45-45.5-90t-68-82.5-81.5-60-86-22.5q-13 0-28.5 12t-26 27.5-7.5 23.5q4 7 14 7z"/><path transform="translate(58.758 13.426) scale(.014 -.014)" d="m133 473h56l54 149q4 11 16.5 7.5t27-15 23-25 5.5-23.5l-34-93h45q14 0 28-10.5t23.5-24.5 10-24.5-13.5-10.5h-118l-109-299q-2-7-8.5-28.5t-10.5-47.5 0-47q3-15-6.5-16t-24 6.5-27 20.5-14.5 27q-6 30-2 59t11 51 10 31l90 248q-15 7-29 23t-16.5 29 13.5 13z"/></svg>