<svg width="124.8" height="20.8" viewBox="0 0 124.8 20.8" xmlns="http://www.w3.org/2000/svg"><path transform="translate(0 16) scale(.016 -.016)" d="m319-10q-72 0-129 21t-95.5 60-55.5 94l77 26q18-61 71.5-93.5t138.5-32.5q83 0 133 31t50 91q0 38-19 61.5t-51 37-71.5 21.5-82 15.5-82 19-71.5 31.5-51 53-19 85q0 61 32.5 105.5t90.5 69 134 24.5q63 0 112-16.5t83-48.5 50-80l-75-25q-17 48-61 71.5t-109 23.5q-76 0-127-29t-51-88q0-38 19-60.5t51-35.5 72-20.5 82.5-15 82-18.5 71.5-31.5 51-54 19-85.5q0-66-32.5-112.5t-93-70.5-144.5-24z"/><path transform="translate(10.128 16) scale(.016 -.016)" d="m230-6q-52 0-83 29.5t-31 86.5v355h75v-401h138v-70zm-206 449v67h92v130l75 30v-160h128v-67z"/><path transform="translate(15.872 16) scale(.016 -.016)" d="m85 0v510h75v-78h5q11 28 28.5 45t40.5 25 50 8h72v-70h-79q-38 0-61-11.5t-35-31.5-16.5-47-4.5-59v-291z"/><path transform="translate(21.952 16) scale(.016 -.016)" d="M85 0V510H160V0ZM82 597V700H164V597Z"/><path transform="translate(25.872 16) scale(.016 -.016)" d="m281-10q-69 0-121.5 33t-82 92.5-29.5 138.5q0 80 29.5 139.5t82 93 121.5 33.5 121-34 77-93l-72-24q-16 39-48.5 60t-77.5 21q-72 0-112.5-52t-40.5-144q0-91 40.5-142.5t112.5-51.5q48 0 81.5 23.5t48.5 66.5l71-25q-23-63-76-99t-125-36z"/><path transform="translate(34.208 16) scale(.016 -.016)" d="m85 0v700h75v-287h5q24 59 70 83t95 24q51 0 87-21.5t55.5-63 19.5-103.5v-332h-75v316q0 70-29.5 102t-85.5 32q-39 0-71.5-17t-51.5-54-19-99v-280z"/><path transform="translate(43.328 16) scale(.016 -.016)" d="m85-200v710h75v-106h5q23 58 66 87t104 29q62 0 109-33.5t73.5-93 26.5-138.5-26.5-139-73.5-93-109-33q-41 0-73.5 12.5t-56 37.5-39.5 62h-6v-302zm229 260q71 0 110.5 52t39.5 143q0 92-39.5 143.5t-110.5 51.5q-74 0-115-51.5t-41-143.5q0-91 41-143t115-52z"/><path transform="translate(52.816 16) scale(.016 -.016)" d="m246-10q-50 0-88 21.5t-59 63.5-21 103v332h75v-316q0-70 33-102t88-32q40 0 69 17t45 54.5 16 98.5v280h75v-510h-75v97h-5q-24-59-64-83t-89-24z"/><path transform="translate(61.84 16) scale(.016 -.016)" d="m85 0v510h75v-97h5q24 59 70 83t95 24q51 0 87-21.5t55.5-63 19.5-103.5v-332h-75v316q0 70-29.5 102t-85.5 32q-39 0-71.5-17t-51.5-54-19-99v-280z"/><path transform="translate(70.96 16) scale(.016 -.016)" d="m133 190v89l255 231h92zm281-190-199 301 56 47 233-348zm-329 0v700h75v-700z"/><path transform="translate(79.104 16) scale(.016 -.016)" d="m230-6q-52 0-83 29.5t-31 86.5v355h75v-401h138v-70zm-206 449v67h92v130l75 30v-160h128v-67z"/><path transform="translate(88.656 16) scale(.016 -.016)" d="m319-10q-72 0-129 21t-95.5 60-55.5 94l77 26q18-61 71.5-93.5t138.5-32.5q83 0 133 31t50 91q0 38-19 61.5t-51 37-71.5 21.5-82 15.5-82 19-71.5 31.5-51 53-19 85q0 61 32.5 105.5t90.5 69 134 24.5q63 0 112-16.5t83-48.5 50-80l-75-25q-17 48-61 71.5t-109 23.5q-76 0-127-29t-51-88q0-38 19-60.5t51-35.5 72-20.5 82.5-15 82-18.5 71.5-31.5 51-54 19-85.5q0-66-32.5-112.5t-93-70.5-144.5-24z"/><path transform="translate(98.784 16) scale(.016 -.016)" d="m214-10q-43 0-81 15t-61 45-23 75 23 80.5 67.5 60 109.5 33.5l150 22v-58l-150-24q-38-6-65-20.5t-41-36-14-49.5q0-34 22-56t71-22q46 0 83 18.5t58.5 50.5 21.5 72v154q0 53-28 78t-87 25q-37 0-62-9t-41-28.5-26-51.5h-74q8 50 36 84.5t72.5 53 99.5 18.5q58 0 99.5-19t64-57.5 22.5-96.5v-316l-34 34h119v-65h-48q-32 0-57 10t-39 30-14 51v38l34-34h-38q-23-49-67-77t-103-28z"/><path transform="translate(107.76 16) scale(.016 -.016)" d="m85 0v510h75v-97h5q24 59 70 83t95 24q51 0 87-21.5t55.5-63 19.5-103.5v-332h-75v316q0 70-29.5 102t-85.5 32q-39 0-71.5-17t-51.5-54-19-99v-280z"/><path transform="translate(116.88 16) scale(.016 -.016)" d="m257-10q-86 0-141.5 32t-77.5 90l67 32q14-42 52.5-65.5t102.5-23.5q55 0 83.5 22t28.5 62q0 29-17 44.5t-45 23.5-61.5 14-67.5 13.5-62 22.5-45 42-17 71q0 71 50 110.5t138 39.5q70 0 119.5-27t74.5-76l-66-32q-16 33-49.5 51.5t-80.5 18.5q-52 0-79-21.5t-27-59.5q0-28 17-43t45-23 62-13.5 67.5-13 61.5-22.5 45-42 17-71q0-49-23.5-84t-67-53.5-104.5-18.5z"/></svg>