<svg width="90.816" height="16" viewBox="0 0 90.816 16" xmlns="http://www.w3.org/2000/svg"><path transform="translate(0 12.64) scale(.016 -.016)" d="m424 472q-5 38-24 66-39 60-129 60-75 0-109-34-31-32-31-87 0-61 34-84t95-28q58-5 98-15.5t67-28.5q71-44 71-138 0-37-14.5-70t-41.5-59q-61-60-167-60-107 0-169 59-53 49-64 132h69q9-50 42-82 43-40 123-40 68 0 110.5 33.5t42.5 86.5q0 34-13.5 56.5t-51.5 36.5-108 20q-192 17-192 181 0 41 13.5 75.5t38.5 59.5q55 55 156 55h1q103-1 157.5-56.5t64.5-139.5h-69z"/><path transform="translate(8.576 12.64) scale(.016 -.016)" d="m40 194v306h69v-306q0-35 17.5-65t47.5-47.5 65-17.5 65 17.5 47.5 47.5 17.5 65v306h68v-495h-68v48q-25-28-58.5-42.5t-71.5-14.5q-54 0-99.5 26.5t-72.5 72-27 99.5z"/><path transform="translate(16.368 12.64) scale(.016 -.016)" d="M118 665V0H50V665Z"/><path transform="translate(19.056 12.64) scale(.016 -.016)" d="m50-213v700h68v-83q35 49 82 73.5t103 24.5q68 0 126-34t92-92 34-126-34-126-92-92-126-34q-71 0-117 29.5t-68 63.5v-304zm69 463q0-50 25-92t67-67 92-25 92 25 66.5 67 24.5 92-24.5 92-66.5 66.5-92 24.5-92-24.5-67-66.5-25-92z"/><path transform="translate(28.576 12.64) scale(.016 -.016)" d="m447 306v-306h-69v306q0 35-17.5 65t-47 47.5-64.5 17.5-65-17.5-47.5-47.5-17.5-65v-306h-69v667h69v-219q24 28 57.5 42t72.5 14q54 0 99.5-26.5t72-72 26.5-99.5z"/><path transform="translate(36.528 12.64) scale(.016 -.016)" d="m40 194v306h69v-306q0-35 17.5-65t47.5-47.5 65-17.5 65 17.5 47.5 47.5 17.5 65v306h68v-495h-68v48q-25-28-58.5-42.5t-71.5-14.5q-54 0-99.5 26.5t-72.5 72-27 99.5z"/><path transform="translate(44.32 12.64) scale(.016 -.016)" d="m233 436q-47 0-81-34t-34-81v-321h-68v321q0 54 28.5 98.5t74.5 66.5l2 1q37 17 78 17 64 0 114-39l-68-39q-23 10-46 10z"/><path transform="translate(57.712 12.64) scale(.016 -.016)" d="m450 452q0-57-29-106t-78-77.5-107-28.5h-117v-240h-69v665h186q58 0 107-29t78-78 29-106zm-69 0q0 39-19.5 72t-53 52.5-72.5 19.5h-117v-289h117q39 0 72.5 19.5t53 53 19.5 72.5z"/><path transform="translate(65.552 12.64) scale(.016 -.016)" d="m40 248q0 69 34 127.5t92.5 93 126.5 34.5q69 0 127.5-34.5t93-93 34.5-127.5q0-68-34.5-126.5t-93-92.5-127.5-34q-68 0-126.5 34t-92.5 92.5-34 126.5zm439 0q0 51-25 94t-67.5 68-93.5 25q-50 0-92.5-25t-67.5-68-25-94q0-50 25-93t67.5-68 92.5-25q51 0 93.5 25t67.5 68 25 93z"/><path transform="translate(74.96 12.64) scale(.016 -.016)" d="m139 595q0-19-13-32t-31-13q-19 0-32 13t-13 32q0 18 13 31t32 13q18 0 31-13t13-31zm-10-95v-500h-69v500z"/><path transform="translate(77.984 12.64) scale(.016 -.016)" d="m447 302v-302h-69v302q0 35-17.5 64.5t-47.5 47-65 17.5-65-17.5-47.5-47-17.5-64.5v-302h-68v487h68v-44q25 28 58.5 42.5t71.5 14.5q54 0 99.5-26.5t72.5-72 27-99.5z"/><path transform="translate(85.776 12.64) scale(.016 -.016)" d="M275 432H192V0H123V432H40V500H123V665H192V500H275Z"/></svg>