<svg width="63.494" height="34.106" viewBox="0 0 63.494 34.106" xmlns="http://www.w3.org/2000/svg"><path transform="translate(0 21.143) scale(.016327 -.016327)" d="m122 402q-7-14-7-30 0-31 23.5-51.5t63.5-34.5q85-32 129-66.5t44-89.5q0-101-103-134-31-9-60-9-114 0-179 57l15 90 51-2q0-53 14-77 27-27 91-27 40 0 68.5 23t28.5 58q0 54-79 93-25 12-54 23t-52 24q-74 41-74 111 0 89 104 119 35 10 77.5 10t82-9 48.5-24q0-3 0-8l-2-13q-4-39-9-74l-43 4q0 47-18.5 65t-70.5 18q-68 0-89-46z"/><path transform="translate(6.6939 21.143) scale(.016327 -.016327)" d="m248 346q24 6 69 6t61-6v-256q0-26 6-56h54v-29q-40-9-79-9t-48.5 6-9.5 25v11l-27-18q-42-28-101-28-98 0-98 108v178q0 18-4 32-12 4-28 4h-28v32q24 6 69.5 6t61.5-6v-228q0-44 7-58 14-26 54.5-26t84.5 28q9 6 9 7 6 33 6 109v100q0 19-4 32-12 4-28 4h-27z"/><path transform="translate(14.073 21.143) scale(.016327 -.016327)" d="m23 346q24 6 69 6t63-6v-81q31 48 47 62 33 29 67 29t54-10l-9-93h-30l-8 49q-18 2-28 2t-27-9-31-25q-32-38-32-80v-112q0-32 6.5-41t33.5-13l3-28q-48 4-82 4t-76-4l2 28q30 4 35.5 11t5.5 34v217q0 11-2 23-12 5-23 5h-38z"/><path transform="translate(19.494 21.143) scale(.016327 -.016327)" d="m106 94q0-60 67-60 33 0 80 35 5 45 5 95h-53q-48 0-73.5-18t-25.5-52zm223-4q0-36 6-56h53v-28q-38-13-109-10-18 2-22.5 13t-4.5 23l-1 6q-51-46-108-46-77 0-101 56-8 18-8 43 0 111 175 111h49v23q0 50-11 67t-23.5 22.5-40.5 5.5q-52 0-93-67l-47 29q4 28 45.5 51t101.5 23q139 0 139-128z"/><path transform="translate(26.302 21.143) scale(.016327 -.016327)" d="m3 346q18 6 81 6t95-6l6-32h-18q-18 0-27-5 1-7 4.5-14t29-80 64.5-163l85 228q3 8 5 15t4 14q-8 5-26 5h-18l3 32q19 6 73 6t76-6v-32h-19q-17 0-30-5-12-14-56-123t-54-131l-27-58h-37q-17 0-21.5 3t-7.5 7l-115 273-7 15q-4 7-9 14-12 5-30 5h-19z"/><path transform="translate(33.502 21.143) scale(.016327 -.016327)" d="m106 94q0-60 67-60 33 0 80 35 5 45 5 95h-53q-48 0-73.5-18t-25.5-52zm223-4q0-36 6-56h53v-28q-38-13-109-10-18 2-22.5 13t-4.5 23l-1 6q-51-46-108-46-77 0-101 56-8 18-8 43 0 111 175 111h49v23q0 50-11 67t-23.5 22.5-40.5 5.5q-52 0-93-67l-47 29q4 28 45.5 51t101.5 23q139 0 139-128z"/><path transform="translate(40.31 21.143) scale(.016327 -.016327)" d="m23 346q24 6 69 6t63-6v-81q31 48 47 62 33 29 67 29t54-10l-9-93h-30l-8 49q-18 2-28 2t-27-9-31-25q-32-38-32-80v-112q0-32 6.5-41t33.5-13l3-28q-48 4-82 4t-76-4l2 28q30 4 35.5 11t5.5 34v217q0 11-2 23-12 5-23 5h-38z"/><path transform="translate(45.731 21.143) scale(.016327 -.016327)" d="m106 94q0-60 67-60 33 0 80 35 5 45 5 95h-53q-48 0-73.5-18t-25.5-52zm223-4q0-36 6-56h53v-28q-38-13-109-10-18 2-22.5 13t-4.5 23l-1 6q-51-46-108-46-77 0-101 56-8 18-8 43 0 111 175 111h49v23q0 50-11 67t-23.5 22.5-40.5 5.5q-52 0-93-67l-47 29q4 28 45.5 51t101.5 23q139 0 139-128z"/><path transform="translate(52.539 21.143) scale(.016327 -.016327)" d="m522 24 2 70-1 127q0 54-8.5 69t-18.5 19.5-27 4.5q-46 0-81-43-10-11-14-21v-171q0-30 6.5-39.5t37.5-15.5l3-28q-40 4-83.5 4t-77.5-4l1 28q28 4 34.5 10.5t7 13 0.5 18.5v155q0 56-9 70-13 23-44 23t-59.5-21-35.5-43v-171q0-31 6-40.5t34-14.5l2-28q-38 4-81.5 4t-75.5-4l1 28q30 4 36 12.5t6 33.5v211q0 17-3 28-12 5-28 5h-33v32q24 6 70 6t64-6v-43q59 53 128 53t88-60q24 27 43 38 41 22 88 22 96 0 96-105v-161q0-31 5-56h49l3-30q-36-8-66.5-8t-42.5 2q-22 3-22 26z"/></svg>