<svg width="37.424" height="20.16" viewBox="0 0 37.424 20.16" xmlns="http://www.w3.org/2000/svg"><path transform="translate(0 15.68) scale(.016 -.016)" d="m261-12q-74 0-129.5 26.5t-93.5 72.5l54 54q37-41 79.5-60.5t92.5-19.5q70 0 110.5 35t40.5 91q0 40-19.5 64.5t-52 39.5-71 25.5-77 23-71 32.5-52 52.5-19.5 84.5q0 62 29 107.5t81.5 70.5 122.5 25q63 0 113-20.5t83-57.5l-55-55q-29 30-63.5 45t-77.5 15q-67 0-107.5-33.5t-40.5-88.5q0-38 20-60.5t52-36 71-23.5 78-22.5 71.5-32.5 52.5-54 20-89q0-64-30.5-111.5t-85-73.5-126.5-26z"/><path transform="translate(8.688 15.68) scale(.016 -.016)" d="m342-12q-119 0-190 63.5t-71 185.5v463h85v-457q0-85 48-130.5t128-45.5q81 0 128.5 45.5t47.5 130.5v457h85v-463q0-81-32-137t-90.5-84-138.5-28z"/><path transform="translate(19.648 15.68) scale(.016 -.016)" d="m261-12q-74 0-129.5 26.5t-93.5 72.5l54 54q37-41 79.5-60.5t92.5-19.5q70 0 110.5 35t40.5 91q0 40-19.5 64.5t-52 39.5-71 25.5-77 23-71 32.5-52 52.5-19.5 84.5q0 62 29 107.5t81.5 70.5 122.5 25q63 0 113-20.5t83-57.5l-55-55q-29 30-63.5 45t-77.5 15q-67 0-107.5-33.5t-40.5-88.5q0-38 20-60.5t52-36 71-23.5 78-22.5 71.5-32.5 52.5-54 20-89q0-64-30.5-111.5t-85-73.5-126.5-26z"/><path transform="translate(28.336 15.68) scale(.016 -.016)" d="m192 0q-48 0-79.5 31.5t-31.5 79.5v478q0 48 31.5 79.5t79.5 31.5h323v-78h-296q-23 0-38.5-15.5t-15.5-37.5v-438q0-22 15.5-37.5t38.5-15.5h296v-78zm-68 313v75h370v-75z"/></svg>