<svg width="86.4" height="20.16" viewBox="0 0 86.4 20.16" xmlns="http://www.w3.org/2000/svg"><path transform="translate(0 15.68) scale(.016 -.016)" d="m286-12q-74 0-129.5 26.5t-93.5 72.5l54 54q35-42 78.5-62t93.5-20q69 0 110 35.5t41 92.5q0 40-19.5 64.5t-52 39.5-71 25.5-77 23-71 32.5-52 52.5-19.5 84.5q0 62 29 107.5t81.5 70.5 122.5 25q63 0 113-20.5t83-57.5l-53-54q-30 31-65 46t-79 15q-67 0-107-33.5t-40-89.5q0-38 20-61t52-36.5 71-23.5 78-22.5 71.5-32.5 52.5-54 20-89q0-64-30.5-111.5t-85-73.5-126.5-26z"/><path transform="translate(9.6 15.68) scale(.016 -.016)" d="m300-12q-113 0-169 61.5t-56 187.5v463h85v-462q0-88 35-132t105-44 105.5 44 35.5 132v462h85v-463q0-126-56.5-187.5t-169.5-61.5z"/><path transform="translate(19.2 15.68) scale(.016 -.016)" d="m286-12q-74 0-129.5 26.5t-93.5 72.5l54 54q35-42 78.5-62t93.5-20q69 0 110 35.5t41 92.5q0 40-19.5 64.5t-52 39.5-71 25.5-77 23-71 32.5-52 52.5-19.5 84.5q0 62 29 107.5t81.5 70.5 122.5 25q63 0 113-20.5t83-57.5l-53-54q-30 31-65 46t-79 15q-67 0-107-33.5t-40-89.5q0-38 20-61t52-36.5 71-23.5 78-22.5 71.5-32.5 52.5-54 20-89q0-64-30.5-111.5t-85-73.5-126.5-26z"/><path transform="translate(28.8 15.68) scale(.016 -.016)" d="m208 0q-48 0-79.5 31.5t-31.5 79.5v478q0 48 31.5 79.5t79.5 31.5h314v-74h-288q-23 0-38-15.5t-15-37.5v-446q0-22 15-37.5t38-15.5h288v-74zm-68 315v71h361v-71z"/><path transform="translate(48 15.68) scale(.016 -.016)" d="M67 0V700H173L311 300H289L427 700H533V0H458V650H474L330 227H271L127 650H142V0Z"/><path transform="translate(57.6 15.68) scale(.016 -.016)" d="m301-10q-67 0-118.5 31t-80.5 87.5-29 129.5v9q0 73 29 127.5t80.5 85.5 118.5 31 118-30.5 80-85 29-126.5v-11q0-73-29-129.5t-80-87.5-118-31zm0 64q44 0 77 22.5t51 64 18 97.5v11q0 82-40 130t-106 48q-44 0-77-22t-51.5-62-18.5-96v-9q0-56 18.5-97.5t51.5-64 77-22.5z"/><path transform="translate(67.2 15.68) scale(.016 -.016)" d="m97 0v481h77v-130h-13q10 41 28.5 68t43 43 50.5 22.5 49 6.5q81 0 126.5-52t45.5-156v-283h-81v279q0 78-31.5 112t-84.5 34q-55 0-92-37t-37-110v-278z"/><path transform="translate(76.8 15.68) scale(.016 -.016)" d="m301-10q-67 0-118.5 31t-80.5 87.5-29 129.5v9q0 73 29 127.5t80.5 85.5 118.5 31 118-30.5 80-85 29-126.5v-11q0-73-29-129.5t-80-87.5-118-31zm0 64q44 0 77 22.5t51 64 18 97.5v11q0 82-40 130t-106 48q-44 0-77-22t-51.5-62-18.5-96v-9q0-56 18.5-97.5t51.5-64 77-22.5z"/></svg>