<svg width="77.264" height="19.2" viewBox="0 0 77.264 19.2" xmlns="http://www.w3.org/2000/svg"><path transform="translate(0 14.8) scale(.016 -.016)" d="m316-13q-79 0-126 17-37 14-69 44t-60 53l-6 15 19 76q7-2 14.5-14t11.5-15q26-22 52-47t58-37q12-4 36.5-8t69.5-4q33 0 54 6.5t39 21.5q15 12 25.5 32.5t10.5 36.5q0 13-2 25t-16.5 30.5-53.5 47.5q-26 20-58 32.5t-66.5 28-68.5 42.5-64 76q-22 38-22 72 0 46 19 73.5t61 43.5q35 12 67.5 18.5t63.5 6.5q43 0 80.5-12t78.5-39l-32-67q-31 20-61 29t-66 9q-55 0-110-20-30-11-35.5-17t-5.5-25q0-4 2-9.5t12-21.5q22-36 47.5-54t55.5-30 64.5-27.5 73.5-45.5q42-32 62.5-64t27-58.5 6.5-43.5q0-34-17.5-72.5t-40.5-58.5q-32-26-59.5-36t-71.5-10z"/><path transform="translate(8.72 14.8) scale(.016 -.016)" d="m-203-347q-58 5-91 41-19 16-27 41.5t-3 46.5 23 25h2l40-53q-1-2 8.5-6.5t23-8.5 24.5-5h20q39 0 83 7.5t80.5 20 51.5 26.5h2v1h-1q35 29 55.5 48.5t33.5 35.5q16 19 21 30t19 30q19 23 35 40t26 30q3 4 6 8.5t6 8.5l5 20q7 26 10 50t3 53q0 81-21 152.5t-62 123.5q-14 19-33 32t-31 13q-19 0-29-26t-10-74h-55q0 48 13.5 86.5t37.5 61.5 53 23q46 0 97-67 29-37 50.5-90t33-113.5 11.5-121.5l-1-10q21 38 37 72t23 56q10 36 14.5 80t6 88 1.5 78h2l29-10 41 19h2q0-39-7-90t-17-101-20-86q-10-35-32-80.5t-47.5-90-48.5-78.5q1-10 0.5-21t-2.5-19q-2-19-15.5-24t-27.5 3q-12-14-22.5-25.5t-18.5-21.5q-11-13-20.5-30.5t-20.5-30.5q-25-29-50-53t-46-41q-38-32-107-53t-144-21z"/><path transform="translate(16.016 14.8) scale(.016 -.016)" d="m306-14q-14-7-25.5 1t-15.5 24 5 32q9 17 13.5 23.5t5.5 10.5q6 25 13 47t14 42q14 41 27.5 71.5t24 56.5 17 53.5 6.5 63.5q0 5-4 8.5t-18 15.5q-6-7-18-22t-28-34q-41-46-69.5-79.5t-51.5-66.5-50-80q-17-31-33-56t-27-45q-7-13-9.5-18.5t-4.5-8.5q-1-4-1-7t0-7q-2-19-15.5-26t-26-0.5-12.5 26.5v6q-2 7 0 19 1 4 1.5 7t1.5 6q4 23 11 44.5t11 37.5q23 73 48.5 141t49.5 129q3 8 8 21t9 26h-1q-8-6-25-22.5t-37-36-37.5-33.5-26.5-14h-2v60h2q1 0 14 13t30.5 30.5 32.5 31.5 19 17q29 19 44.5 29t25 10 20.5-12q11-11 11.5-26t-4-28-8.5-18h1q-4-16-7-26.5t-6.5-21.5-10.5-29q-12-30-23.5-59t-22.5-58q30 51 60 92.5t71 85.5q4 5 15 18.5t25 30 27 28.5 20 12h2l20-15q8-7 20.5-19t22.5-30.5 10-46.5q0-62-13-106.5t-31-82.5-34-83q-9-24-15-50 0 0 2-4 5 16 17 39t25.5 44 23 31.5 9.5-0.5h50q0-10-9-31t-22-44-24.5-39-17.5-18q-1-19-11.5-30t-31.5-21.5-57-29.5z"/><path transform="translate(24.144 14.8) scale(.016 -.016)" d="m228-16q-24 0-47 5.5t-34 12.5q-18 13-40 36.5t-33 42.5l-2 1q-8 15-12.5 36t-6.5 45q-11-4-20-6.5t-13-2.5h-2v80h2q3 0 13.5 3.5t22.5 7.5q7 53 22 106t35.5 95.5 41.5 61.5q8 7 18 11t26 8q17 3 31 3 22 0 44-14.5t42-35 35-38.5q27-30 18-51-5-13-14.5-22.5t-14.5-14.5q-46-53-99-90.5t-115-71.5q-4-2-20-9 0-19 2-30t7-22q-1-4 16.5-22t37.5-33l8-6q5-1 20-3t31-2h17l64 72 42-51-74-86h1q-13-16-50-16zm-115 286q33 15 62.5 30.5t59.5 40 63 64.5l1 2q-13 15-32.5 29t-36.5 14q-5 0-13-0.5t-10-1.5q-13-3-18 4.5t-4 13.5q-16-16-30-47t-24.5-70-17.5-79z"/><path transform="translate(34.624 14.8) scale(.016 -.016)" d="m241 0q0 100 1 209.5t4 208.5q2 38 6 74t6 72h-4q-55-4-110-11t-111-7v80q53 0 106.5 6.5t108.5 10.5q61 5 127.5 7.5t141.5 2.5v-80q-51 0-98-1t-91-3q-2-40-6-78.5t-6-75.5q-3-98-4-207t-1-208z"/><path transform="translate(43.424 14.8) scale(.016 -.016)" d="m324-24q-21-10-28 5-7 14-8 33t-1 35q0 46 8 98.5t18 101 16 81.5q2 13 4 25.5t4 25.5q-1-4-3-7t-4-6l-7-29h-3q-1 1-2 1t-3 1q-13-23-25-43t-20-34q-22-40-42-80.5t-45-78.5q-15-22-30-40.5t-27-36.5q-37-53-51-49-9 3-17.5 23t-15.5 46.5-11 49-4 30.5q0 31 0.5 63.5t4.5 63.5q4 27 14.5 64.5t26.5 77 37.5 70.5 47.5 44q10 5 23 5 19 0 41-10.5t44-25.5 40-28q19 36 19 50h2q51 1 66.5 2.5t15.5-4.5q0-1 1-10.5t-1-20.5q-1-11-3.5-23.5t-4.5-21.5q-7-27-10.5-54t-8.5-55q-6-34-15-76t-15.5-86-8.5-83q9 10 19.5 24t32.5 44q1 1 7.5 11.5t13.5 21.5 8 12h3l23-36h20q0-13-8-21-7-7-11.5-17t-12.5-19q-19-26-39-53.5t-43-47.5q-12-10-21-11.5t-11-1.5zm-234 111q17 23 29 38.5t19 25.5q29 42 46 78.5t39 74.5q8 15 20 35t24 41q-21 20-43.5 38t-42.5 18q-3 0-3 11t1 15q-19-11-34.5-38t-27.5-61-20-66-11-54q-4-28-4.5-55.5t-0.5-59.5h-1q2-6 5-17.5t5-23.5z"/><path transform="translate(51.536 14.8) scale(.016 -.016)" d="m175-20q-17 0-33.5 6t-33.5 16q-19 13-28.5 21t-15.5 19q-7 11-7.5 30t-2.5 25q-4 18-10 39t-10 43q-1 14-1.5 24t-0.5 20q0 52 12.5 104t33.5 92q27 51 64 80t76 29q36 0 71-25 33-23 52-61 3-7 4-13.5t1-12.5q0-18-6-32t-6-23h-54q0 17 3 30.5t6 20.5q-4 5-11 10.5t-21 14.5q-7 5-17.5 8t-21.5 3q-26 0-51-18t-41-48q-39-77-39-159 0-7 0.5-15t0.5-16q2-12 7.5-31t11.5-45l4-47q3 3 11 4.5t21-6.5q12-6 32-6 33 0 59 25 23 21 35 31.5t16 14.5h3l41-47q-13-19-29-32.5t-29-26.5q-50-46-96-46z"/><path transform="translate(57.664 14.8) scale(.016 -.016)" d="m70-11q-30 0-39 45-3 17-3 39 0 35 6.5 78.5t17 88 22 82 21.5 60.5q1 2 2 4t2 6h-47v61h73q13 31 26 63.5t22.5 55 9.5 22.5h59q0-16-15-57.5t-33-84.5q32-1 64-1t60 0h2v-61h-2q-34 0-72.5 0.5t-77.5 0.5q-7-15-11.5-25.5t-6.5-15.5q-12-28-24.5-65t-22-76-15.5-74.5-6-61.5q16 6 36 18.5t35 22 15 2.5h50q0-15-16-36.5t-40.5-42.5-49-34.5-42.5-13.5z"/><path transform="translate(62.816 14.8) scale(.016 -.016)" d="m168 593-28 87h1q23 11 44 24.5t51 13.5h2v-98h-2q-21 0-32.5-8t-32.5-19zm-82-589q-12-11-26-13.5t-23.5 10-9.5 46.5q0 35 8.5 66t12.5 49q10 44 16.5 73.5t12.5 53.5 13 51 18 66q1 3 1.5 5.5t1.5 5.5q-32-11-58-11v81q18 0 33.5 4t43.5 15q25 10 32 13t17-5q12-11 3-42.5t-25-87.5q-12-42-19.5-70t-13.5-51.5-11.5-51-14.5-67.5q-4-15-8-30t-7-29q18 9 34 16t28 15l27-68q-28-18-50-27.5t-36-16.5z"/><path transform="translate(66.496 14.8) scale(.016 -.016)" d="m67-11q-7 0-12.5 0.5t-12.5 1.5q-25 4-25 64 0 6 0.5 13t0.5 11q5 45 13.5 87t13.5 80q9 64 20 111.5t24 92.5 29 98q5 17 9 30t7 23q-39-20-57-20h-2v81h2q15 0 52 22 11 6 18 11t11 7q29 12 39.5 21.5t11.5 10.5q-1-2-5.5-16.5t-1.5-46.5q2-19-5-49.5t-15-58-11-38.5q-18-59-31.5-104.5t-23-88.5-17.5-97q-6-44-14-85t-13-79v-1q27 1 42 11.5t26 26 27 31 44 25.5h2l18-76h-2q-10-4-25.5-19.5t-35.5-34-45-32-56-13.5z"/><path transform="translate(70.784 14.8) scale(.016 -.016)" d="m228-16q-24 0-47 5.5t-34 12.5q-18 13-40 36.5t-33 42.5l-2 1q-8 15-12.5 36t-6.5 45q-11-4-20-6.5t-13-2.5h-2v80h2q3 0 13.5 3.5t22.5 7.5q7 53 22 106t35.5 95.5 41.5 61.5q8 7 18 11t26 8q17 3 31 3 22 0 44-14.5t42-35 35-38.5q27-30 18-51-5-13-14.5-22.5t-14.5-14.5q-46-53-99-90.5t-115-71.5q-4-2-20-9 0-19 2-30t7-22q-1-4 16.5-22t37.5-33l8-6q5-1 20-3t31-2h17l64 72 42-51-74-86h1q-13-16-50-16zm-115 286q33 15 62.5 30.5t59.5 40 63 64.5l1 2q-13 15-32.5 29t-36.5 14q-5 0-13-0.5t-10-1.5q-13-3-18 4.5t-4 13.5q-16-16-30-47t-24.5-70-17.5-79z"/></svg>