<svg width="50.192" height="16" viewBox="0 0 50.192 16" xmlns="http://www.w3.org/2000/svg"><path transform="translate(0 10.288) scale(.016 -.016)" d="M25 570V633H501V570H292V0H218V570Z"/><path transform="translate(8.416 10.288) scale(.016 -.016)" d="m411 0h-50l-10 49q-61-61-152-61-69 0-110 38.5t-41 102.5q0 156 228 156h69v6q0 119-116 119-66 0-127-44l-22 37q69 63 168 63 79 0 121-49t42-141zm-66 236h-61q-164 0-164-101 0-43 25.5-67.5t71.5-24.5q40 0 77 20t51 50z"/><path transform="translate(16.208 10.288) scale(.016 -.016)" d="m150 454v-520q0-59-29.5-92t-81.5-33q-55 0-103 35l24 37q31-18 65-18 59 0 59 74v517zm-78 148q0 17 13 30t31 13 31-13 13-30q0-19-13-31.5t-31-12.5q-19 0-31.5 12.5t-12.5 31.5z"/><path transform="translate(19.968 10.288) scale(.016 -.016)" d="m411 0h-50l-10 49q-61-61-152-61-69 0-110 38.5t-41 102.5q0 156 228 156h69v6q0 119-116 119-66 0-127-44l-22 37q69 63 168 63 79 0 121-49t42-141zm-66 236h-61q-164 0-164-101 0-43 25.5-67.5t71.5-24.5q40 0 77 20t51 50z"/><path transform="translate(27.76 10.288) scale(.016 -.016)" d="M237 0H165L15 454H87L201 78L310 454H387L491 78L605 454H677L526 0H454L348 373Z"/><path transform="translate(38.832 10.288) scale(.016 -.016)" d="m411 0h-50l-10 49q-61-61-152-61-69 0-110 38.5t-41 102.5q0 156 228 156h69v6q0 119-116 119-66 0-127-44l-22 37q69 63 168 63 79 0 121-49t42-141zm-66 236h-61q-164 0-164-101 0-43 25.5-67.5t71.5-24.5q40 0 77 20t51 50z"/><path transform="translate(46.624 10.288) scale(.016 -.016)" d="M145 645V0H78V609Z"/></svg>