<svg width="61.472" height="20" viewBox="0 0 61.472 20" xmlns="http://www.w3.org/2000/svg"><path transform="translate(0 15.2) scale(.016 -.016)" d="m75 0q-3 0-3 3 0 4 4.5 9.5t8.5 4.5q15 0 28-0.5t23-0.5q38 0 59.5 3.5t32.5 15.5 17.5 35.5 14.5 62.5q5 23 10 54t10.5 64 9.5 61q8 53 15 104.5t11 91.5q1 9 1.5 16.5t0.5 14.5q0 32-16.5 41.5t-62.5 9.5q-61 0-98-39t-60-107q-1-3-3-3-3 0-6 3.5t-2 7.5q4 12 9 33t12 46q9 30 16 55t20.5 40 40.5 13q40-2 101.5-6t125.5-4q38 0 67.5 1t61 3 73.5 4q28 2 39.5-8t11.5-34q0-5-0.5-10.5t-1.5-12.5q-4-36-5-61t-3-66q0-6-6-6-9 0-9 13 0 5 0.5 11.5t0.5 11.5q0 60-25.5 83t-65.5 23q-49 0-72.5-6.5t-31.5-21-12-41.5q0 0-4.5-31.5t-11.5-79.5-15-97q-7-51-11.5-95.5t-6.5-71.5-2-27q-1-7-1.5-15t-0.5-16q0-19 6.5-36t25.5-20q8-1 28.5-2t46-2 48-1 34.5 0h1q5 0 5-4t-5-9-10-5q-27 0-69 1t-87.5 2-84.5 1q-14 0-26.5 0t-22.5-1q-15 0-44.5-1t-65-1.5-68.5-0.5z"/><path transform="translate(9.568 15.2) scale(.016 -.016)" d="m102-6q-19 0-31.5 12t-20 28.5-10.5 33-3 25.5q0 44 19.5 74t51 48.5 69 28 75 13 66.5 2.5q0 0 2.5 19t3.5 33q1 18-1 40t-12 38q-2 3-7 10.5t2 10.5q1 1 4 1 6 0 13-11 8-11 10.5-28t2.5-36q0-7 0-13t-1-13q-1-16-3.5-33.5t-2.5-17.5q2-1 5-1 12 0 13 10 2 14 4.5 38.5t2.5 50.5q0 37-9.5 66.5t-39.5 29.5q-19 0-36-8.5t-29-19.5q-18-17-25.5-39.5t-12-42.5-15.5-30q-13-13-23.5-17t-26.5-14q-5-3-14.5-7.5t-17.5-4.5q-7 0-12 6t-3 22q3 22 6 47.5t7 32.5q13 21 37.5 37t54.5 27.5 59 17.5 51 7q43 3 80.5-9t60.5-37 23-63q0-13-3-28-10-43-17-86.5t-11-87.5q-1-10-3.5-30t-2.5-41q0-23 6-42t23-22q11-2 28-3t32.5-1 23.5 0h1q5 0 5-4t-5-8.5-11-4.5q-35 0-70 1t-70 1q-17 0-34.5-1t-35.5-1h-10q-12 0-12 6 0 3 1.5 8.5t3.5 13.5q6 22 12 54t11.5 64.5 8.5 57 3 31.5v2q0 7-5 9t-10 3q-5-43-17.5-87.5t-30-82.5-36.5-61.5-37-23.5zm107 63q30 0 50 23 16 18 27 44.5t17.5 53.5 10 47 4.5 25q-6 1-11.5 1t-10.5 0q-26 0-48.5-7.5t-39.5-19.5q-22-16-38-44.5t-16-58.5q0-18 7-33 7-16 20-23.5t28-7.5z"/><path transform="translate(18.032 15.2) scale(.016 -.016)" d="m-49-190q-7 0-7 10 0 9 7 9 17-1 30-2t27-1q20 0 34.5 18t24.5 44q7 17 15 55.5t16 88.5 15.5 104.5 13 104.5 9 88 3.5 54q0 40-23.5 49t-60.5 9h-34q-13 0-13 5t5.5 8.5 10.5 3.5l63-1q35-1 74.5-2.5t73.5-1.5q13 0 24 0.5t21 1.5q22 2 42.5 6t41.5 4q18 0 34-4 58-13 82.5-55.5t24.5-112.5q0-30-5.5-69.5t-18-79.5-35.5-74-57.5-55-83.5-21q-42 0-57.5 27.5t-15.5 67.5q0 20 2.5 41t6.5 42q11 57 25 126t29 130q-8-1-15-2.5t-13-2.5q-5-11-18-74t-32-170q-8-45-15.5-95t-13-96-9-79.5-3.5-47.5q1-16 20-24t46-10.5 50-2.5q13 0 23.5 0.5t14.5 0.5h1q6 0 6-6 0-9-14-9-5 0-24.5 0.5t-46.5 1.5-56.5 1.5-53.5 0.5q-8 0-33-0.5t-56-1-59-1-42-1.5zm356 207q38 0 58.5 30.5t28 77 7.5 92.5q0 38-3 69.5t-6 48.5q-7 41-25 68.5t-45 27.5q-5 0-13-2-16-64-26.5-113t-15.5-71q-4-21-9-56t-5-71q0-40 11-70.5t43-30.5z"/><path transform="translate(26.544 15.2) scale(.016 -.016)" d="m187-8q-30 0-60 12t-49 38q-20 29-30 67.5t-10 78.5q0 70 26 128 19 43 52.5 78t73.5 56 80 21q22 0 42.5-7t38.5-22q10-8 16.5-16t12.5-16q5-8 5-14 0-7-5-12-13-16-27.5-45t-20.5-58q7 2 34 4.5t52 2.5q8 0 14.5-0.5t11.5-1.5q14-1 14-8t-13-4q-4 2-10 2t-13 0q-16 0-35.5-2t-34.5-4.5-20-3.5q0-4-1-7-2-15-10-15-6 0-5 13 1 2 1 7-56-10-102.5-27t-86.5-39q18-71 52.5-97.5t71.5-26.5q34 0 63.5 15.5t45.5 31.5q3 3 5 3 3 0 3-5t-9-14-21.5-18.5-21.5-15.5q-20-13-37-36.5t-40-32.5q-25-10-53-10zm-63 235q45 17 94.5 31.5t101.5 21.5q3 73-25 108t-64 35q-26 0-51.5-18.5t-41.5-53.5-16-87q0-9 0.5-18t1.5-19z"/><path transform="translate(32.688 15.2) scale(.016 -.016)" d="m146-19q-29 0-53.5 8t-41.5 26q-7 8-19 21t-12 26q0 7 4 12 14 19 28.5 36.5t27.5 55.5q3 8 5 17.5t9 5.5q3-1 0.5-15t-2.5-23q0-33 17-60.5t45-44.5 61-17q26 0 50 14t39.5 39 15.5 58q0 25-15 39.5t-37.5 21.5-47 10-42.5 4q-58 5-88.5 29.5t-30.5 53.5q0 31 23.5 61t61 54.5 83 39 88.5 14.5q33 0 62-9.5t50-32.5q12-12 12-23 0-8-4.5-16t-7.5-18q0 0-9-10t-20.5-26-20.5-35q-4-9-8-9-3 0-3 5 0 4 3 10 1 3 2 10.5t1 17.5q0 21-9 46.5t-40 40.5q-22 11-47 11t-48.5-10.5-39-30.5-15.5-49q0-36 21.5-52t52.5-20 57-4q33 0 61.5-4t46-18 17.5-45q0-43-27-82t-69.5-69-92-47-94.5-17z"/><path transform="translate(39.744 15.2) scale(.016 -.016)" d="m197-7q-53 0-77 28.5t-24 86.5q0 10 0.5 20t1.5 21q8 75 18 142.5t20 134.5h-64q-4 0-0.5 7.5t10 15 10.5 7.5h48q1 14 2.5 23t1.5 27q0 29-10.5 39t-36.5 10q-7 0-15-1t-18-1h-1q-8 0-8 8t9 8h39q33 0 74.5 1t75.5 1q8 0 8-8 0-4-1-12.5t-3-21.5q-1-6-5-22.5t-10-48.5h152q7 0 3.5-8t-11-16-12.5-8h-136q0-4-4-32t-10-69-12.5-86-11.5-82q-2-13-4.5-32t-2.5-37q0-24 8.5-42.5t34.5-18.5q29 0 50.5 30.5t34.5 70.5q11 32 18 66t9 53q0 9 7 9 10 0 7-13l-15-73q-9-44-23.5-83t-40-64-67.5-29q-5-1-9.5-1t-9.5 0z"/><path transform="translate(45.792 15.2) scale(.016 -.016)" d="m23-1q-8 0-17 0.5t-20 0.5h-1q-3 0-3 3 0 4 5 9.5t9 5.5q13 0 23.5-0.5t18.5-0.5q25 0 39 7.5t24.5 34 21.5 82.5q8 38 12.5 81.5t7.5 84.5 4 70q0 10-1.5 23.5t-9 25-25.5 12.5q-18 2-46 2t-44 0q-6 0-6 5 0 4 3.5 8t9.5 4q46 0 91.5 1.5t91.5 1.5q14 0 28 0t27-1q11 0 11-4 0-2-1-4.5t-2-6.5q-2-10-7-31.5t-10-46-9-45.5-6-31q-10-70-18.5-128.5t-8.5-96.5q0-29 9-29 5 0 7 8 7 27 13.5 68.5t14.5 89.5 19.5 95.5 28 87 41 63 58.5 23.5q20 0 35.5-3.5t30.5-3.5q14 0 24.5 3t14.5 6q3 3 5 3 1 0 1-3 0-5-2-8-5-12-19.5-33t-30.5-38.5-26-21.5-21-6-22-2-22.5 1.5-23.5 2.5q-19 3-32.5-17.5t-23.5-55.5-17.5-76-13-81-11-71-12.5-44q11-2 29.5-3.5t36-2 25.5-0.5h1q5 0 5-4t-5-8.5-11-4.5q-42 0-82.5 2t-81.5 2q-10 0-20.5 0t-21.5-1q-19-1-39-2.5t-53-1.5z"/><path transform="translate(53.68 15.2) scale(.016 -.016)" d="m76-218q-19 0-34.5 3t-24.5 10q-7 5-18 15.5t-11 21.5q0 6 3 10 8 12 16 18.5t15.5 16.5 13.5 32q2 8 3 15.5t8 5.5q2 0 2-6 0-5-1-12.5t-1-12.5q0-14 5-26.5t12-21.5q8-9 19-13t23-4q37 0 60 23 56 56 56 128 0 28-9 55-12 38-29.5 87.5t-35.5 98.5-32.5 87.5-21.5 56.5q-11 27-21 42.5t-26 22-45 6.5h-1q-5 0-5 4t4 8.5 9 4.5q39 0 84-1.5t91-1.5q50 0 67 1.5t25 1.5q2 0 2-2 0-4-4.5-10.5t-8.5-6.5q-12 0-27.5-1.5t-27.5-7.5-12-23q0-3 0.5-6t1.5-6q12-47 29.5-96.5t36-95.5 31.5-83q26 60 46.5 118t45.5 116q13 30 13 49 0 21-12 28.5t-28 8-30-0.5q-4 0-4 3 0 4 6.5 10t10.5 6q8 0 21-0.5t44-0.5h43q50 0 72 0.5t29 0.5q3 0 3-4t-4.5-9.5-8.5-5.5q-2 0-6.5 0.5t-10.5 0.5q-14 0-33.5-8.5t-38.5-40.5q-15-27-34-71.5t-40.5-98-43.5-107.5q-20-49-40.5-97.5t-40.5-89.5q-19-38-42-71.5t-56-53.5-82-20z"/></svg>