<svg width="41.812" height="28.906" viewBox="0 0 41.812 28.906" xmlns="http://www.w3.org/2000/svg"><path transform="translate(0 19.531) scale(.0078125 -.0078125)" d="m1278 1492 12-4q10-16 6-38-1-8-13-23-5-7-9.5-12.5t-7.5-10.5q-22-18-25-25-4-8-15-13-36-14-56-14-11 0-25 0.5t-31 1.5q-24 0-35-2t-35-8q-4-1-7-2t-5-2-5.5-2-8.5-2q-9-4-19-4-9 0-15-6-10 2-12 0-1-1-12-6-14-2-19-4t-13-6q-5 4-16 1-5-1-10-2.5t-10-2.5q-16-4-27-6-9-1-21-8-2-7-6-11t-2-11q-13-14-20-32-7-17-22-30l-12-21q-7-13-16-19-5-17-13-27-10-11-17-23-16-27-34-77t-34-77q-7-23-22-45t-24-41q-8-34-19-65.5t-25-60.5q-28-58-54-120-10-22-13-25t-3-9q-11-11-15-25-4-13-11-29-1-5-14-18-2-5-4-10.5t-4-11.5-4-11.5-4-10.5q-6-7-6-16 0-8-4-12-12-22-12-28 0-4-2-12-8-16-13-28.5t-7-20.5q-5-20-14-31 0-11-4-18-2-4-4-8t-4-8q4-16-6-35-5-10-9.5-18.5t-8.5-16.5q-12-31-22-45-7-10-12-23-12-27-17-33-7-8-13-19l-19-42q-10-21-21-38v-17q0-7-2-17-4-10-13-21t-15-13q-20 0-28-3-7-3-16-3-10 4-20 12t-18 16q-11 13-21 24t-19 19q-19 17-20 45-2 14 4 28t22 18q23 47 33 78 5 16 11.5 32t13.5 32q4 8 7 15t7 17q5 11 6 17t6 17q6 16 14 30t18 30q15 27 30 59 12 25 32 57 5 14 11 21t11 21q4 11 1 21-3 8-1 19 1 11 11 21 9 9 9 21l19 30q5 7 9.5 14.5t9.5 15.5q9 16 13 27 3 8 9 19 9 14 10 20 6 16 12 30t16 24q4 20 13 33t19 27q8 27 21 49 7 11 12.5 23t10.5 24q10 21 19 56t19 56q26 47 48 93 11 23 22.5 46.5t23.5 46.5q-14 0-29 0t-31-1q-32-2-56 3-10 0-13-3t-15-1q-6 0-16 2t-18 2q-19 2-39-5-11-4-21.5-6.5t-19.5-4.5q-27-5-31-13t-25-13q-9-4-21-2-10 2-21-6-22 4-39 21t-29 37q-4 8-12 6-9-2-10 8-4 16 0 32 1 5 6 10 4 4 4 10 17 5 29 6t23 12q33 6 55 12 11 3 24.5 6.5t30.5 7.5q20 11 21 9 1-1 5-1l46 10q26 6 54 12 28 4 45 5t49-1q36-1 72 3l68 9q7 2 12.5 3t9.5 2l14 3q6 1 11.5 1.5t10.5 0.5q10 0 16 8 38 8 70 14t62 11q23 4 62.5 11.5t69.5 11.5q33 4 52 9 21 5 58 1 16-2 24-2 6 0 13-0.5t15-1.5q5-1 12-3t15-4q18-5 31 1z"/><path transform="translate(6.0469 19.531) scale(.0078125 -.0078125)" d="m630 556-2-16q2-7-4-24-10-12-12-26-4-8-7-14t-5-16q-4-12-3-28 1-8 0.5-15.5t-1.5-14.5q-4-22-6-43t-4-43q0-22-4-50t-8-50q9-16 10-30 1-15 14-26 40 6 64 19t46 37q16 7 25 14 8 7 23 16l16 16q24 13 27 16 2 2 5.5 4t7.5 4q34 22 52 46 15 12 25 25 8 11 31 21 13 16 29 27t29 27q11 0 16-4 3-2 6.5-4t7.5-4q6-16 2-33t-14-31q-10-13-10-16 0-2-2-4-6-7-15-15-9-7-15-15-10-18-16-18t-10-4q-18-11-25-16-8-7-23-16-21-11-26-16t-8-6q-24-27-47-45-21-16-45-45-8-6-16-12t-14-16q-18-12-29-24t-25-28q-12-6-26-17-17-13-30-19-5-3-17-9-10-5-19-5-23-4-44 4-19 7-38 12-8 12-20 20-18 22-26 52t-16 64q-18-12-30-26-12-15-36-26-20-19-41-37.5t-44-35.5q-22-17-45-35.5t-46-37.5q-16-16-22-12-18-22-64-14-16 8-36 14-14 4-32 12-34 6-57 30t-39 56q-6 17-9 30-1 7-3 15t-4 17q-1 17-6 27-4 11 0 21-4 5-2 13 2 10 2 15-2 28 5 60t19 58q6 10 16 20 5 6 6 12 1 5 6 10 5 6 12 12 10 8 14 12 5 7 10.5 13.5t12.5 11.5 13 11 12 12q7 7 11 14 5 8 15 12 8 14 18 23t22 19q34 41 84 70 51 29 90 64 14 6 24 14t20 16q25 22 54 14l52-14q20-18 39-36t33-40q7 1 15 1.5t17-0.5q18-2 38 3 6 0 12 3t10 3q30-10 30-30zm-264-30q-54-26-98-61t-84-75q-5-5-10.5-9.5t-10.5-9.5q-5-4-10-9t-9-10q-8-10-15-24t-13-26q-2-4-4-7.5t-4-5.5-4-5-4-6q-4-10-3-20 1-7 1-22v-20q0-6 2-20 6-22 6-44 0-16 3-39t15-31q13-8 25-4 14 5 23 6 70 54 132 113t110 133q-4 49-1 101 3 49-9 91-8 5-19 3-8-1-19 1z"/><path transform="translate(12.672 19.531) scale(.0078125 -.0078125)" d="m542 232q34 10 68 18t70 12q32 2 66 12l28 9q7 2 13.5 4.5t12.5 4.5q14 4 27 7t23 5q16-12 15-13t3-5l-16-28q-8-6-19-8-10-1-21-6-10-6-12-8-5-5-8-6-9-2-13 1-6 4-9 5-49-32-110-44-64-12-118-30-20-10-40-21t-42-25q-16-32-45-62t-59-52q-8-6-13-9-4-2-6.5-4t-4.5-3q-7-3-15-5.5t-16-4.5-16-4-15-4q-12-12-20-12-13-2-24 4-13 7-26 8-10 18-12 25-2 5-8 7-5 20-23 38-17 17-27 38-4 8-7 17t-3 17q2 22 18 38t32 26q12-18 21-14t15 8q7 3 17 5l13 3q30 7 64 12 22 2 34-1 15-3 32 1 10 18 25 34t29 30q10 24 26 52t32 54l18 36q4 4 7 8t7 12q4 16 3 31t-3 33q-19 11-38 30-12-5-23 0t-23 0q-6-1-12-6-3-2-6.5-4t-7.5-4q-18-10-39-18-21-7-33-24-11-11-20-20.5t-16-17.5-14.5-16.5-15.5-17.5q-10-8-16.5-13.5t-8.5-9.5q-3-5-9-11t-12-11.5-12-10.5q-12-10-22-22-6-8-11-11t-11-11q-12-13-21-30-8-15-19-32l-40-64q-11-31-23.5-61.5t-26.5-59.5-26.5-60-23.5-63q-4-21-6-23t-2-5q-2-8-3.5-15t-3.5-14q-3-13-9-25-4-16-12-33t-16-33q-13-32-24-61-12-33-24-63-5-11-9-22t-8-22l-15-44q-5-11-7-24-1-6-2-12t-3-12q-6-21-15-46-10-26-11-46-29-28-40-48-22-22-46-39t-54-29q-19 0-49.5 3.5t-30.5 26.5q-2 18 1 46t13 48q8 22 17 42t17 34q12 52 30 88 5 11 10 21t10 20q11 21 18 41 5 14 6 30t12 28q14 34 35 64t43 60q11 17 18 33 8 17 18 33 18 31 30 64 12 34 34 62 5 11 10 21t10 20l20 39q3 7 7 21t7 21q6 9 11.5 18.5t10.5 19.5q18 40 37 79t43 77q1 21 11 40 5 9 9 19t8 21q6 17 9 34 4 21 7 34 6 18 14 28 11 14 18 30 2 3 4 6t4 7 4 7 4 6q6 12 9 21 2 7 11 19 24 28 31 31 5 2 10 5.5t11 7.5q40 2 50-19t18-43q-4-16-8-32t-8-38q8 7 16.5 14.5t18.5 15.5q20 17 35 32 17 10 33.5 21t32.5 22q32 23 72 39 10 4 21 8t21 4q9 0 17-5 10-6 19-7 11-11 23-19 11-7 23-21 8-10 12-24 2-7 4-14t4-14 4.5-14 6.5-14q7-13 9-26 0-6-2-20t-2-20q0-8 1-12t1-16q-1-19-16-50l-24-50q-4-8-7.5-15.5t-6.5-14.5l-14-30q-10-22-18-40t-16-36z"/><path transform="translate(18.812 19.531) scale(.0078125 -.0078125)" d="m582 158q8 11 12 15 5 5 12 9 25 53 65.5 84t86.5 70q10 0 17 7t17 11q12 11 23 18 9 6 15 16 23 11 43 30 21 19 41 34 16 4 34-4 8-16 6-34t-20-20q-6-6-13-12t-17-8q-20-4-26-16-1-19-5-23t-5-7q-22-37-49-63.5t-51-64.5q-11-7-18-22-36-20-53-31t-31-27q-12-7-12-12 0-4-4-8-20-17-23-25t-9-13q-10-7-17.5-13.5t-12.5-11.5q-12-12-26-17-17-14-50-33.5t-68-30-58-0.5l-14 11q-4 3-14 9-13 16-29 27-14 10-27 29-15 21-19 43-4 23-15 45-5 52 8 86 11 34 24 63.5t29 54.5q31 48 43 114-22 22-25 41-1 10-4 23t-7 30q-52-34-96-86t-78-106l-24-44q-10-19-24-36-10-10-10-13t-4-7q-8-10-13-17t-7-11-4-7.5-4-6.5q-6-8-10-12t-10-12q-28-40-51-75l-47-71q-11-17-18-34-7-18-20-32-20-2-23 6t1 14q-24 16-27 62t9 74q-6 18-4 20t2 6q26 36 53 72t57 68q5 7 10 14t9 14q10 15 21 26 17 29 41 60 24 30 39 62 11 11 15 22 5 12 17 20 7 12 12.5 23.5t9.5 22.5q6 19 22 38 4 14 10 22t16 18q1 9 11 17t15 17q5 14 10 18 6 5 6 14 10 10 20 21t18 27q28 16 39 16t17 10q8 0 17.5 0t20.5 1q23 2 24-15 1-4 0-10-1-3-2-6t-2-6q1-18 0-19-2-2-2-3-2-8-1-14 1-5 1-18-1-8-2-14t-2-11q-2-10 8-23 5-7 12-11t14-13q5-5 7-12t7-12q4-5 12-10t12-14q11-8 7-10-3-2 9-8 23-29 34-62 13-25 22-40 10-16 0-32-6-6-14-24-9-9-16-20-4-7-6-15-1-7-6-13-18-29-37-52t-33-50q1-57 22-84 24-28 30-28 13-2 28 8l26 16q4 2 7.5 4t6.5 4q6 4 14 6 21 7 20 5-1-3 2-3z"/><path transform="translate(24.906 19.531) scale(.0078125 -.0078125)" d="m994 578q10-1 13-8 3-6 11-6 4-19-8-26.5t-8-23.5q-18-12-44-15-27-3-40-21-35-17-73-21-19-2-39.5-5.5t-41.5-7.5q-22-15-27-16-7-1-15-6-21 8-42 8t-44 6q-11-4-23-4t-23-4q-8-18-8-36 0-19-6-36l-12-24-3-19q-2-12-5-19-4-6-9-14t-5-18q-14-18-20-37-6-22-22-35-6-21-19-32-13-12-25-28-22-30-39-52t-45-38q-10-16-24-22-10-10-16-20l-40-24q-24-15-46-20-34-8-66 2t-60 28q-19-2-29 7-10 8-27 13-22 20-48 36-27 17-38 44l-9 44q-4 20-9 40-4 17-1 38 3 18 1 40 0 11 0 20.5t-1 16.5q-1 15 9 37 6 13 10 24t6 19 4 15.5 4 13.5q3 5 6 10.5t6 11.5 6.5 11.5 7.5 10.5q12 18 28 36t32 34q11 15 22 26 18 18 34 30t36 32q4 6 10 10l12 8q20 12 37 20t39 18q19 9 31 11 8 2 16.5 3.5t18.5 3.5h24q11 0 20 4-6 16 14 22t30 4q20 0 32-9t22-21q20-14 44-42 5-5 10-6t10-6q8-12 11-22 3-12 13-22 6-4 12-10t8-16q21-8 38-12 9-4 21-2 11 2 25 0 9-1 18-5 8-3 18-3 15 1 33 8 17 6 39 2 30-7 63 6 33 14 67 18 10 0 14 1t14 1q10 8 26 12t34 8zm-572-60q-20 18-23 23-4 6-7 7-9 9-20 10-6 1-11.5 2t-10.5 2q-32 6-53-7-10-7-20.5-13t-20.5-12q-32-20-56-50-6-10-13-22t-11-26q-8-16-14-29t-10-31q-10-19-12-33-1-7-2-12.5t-2-10.5q-1-10-3-20.5t-4-21.5q-5-25-5-38 2-6 6-16t8-14q4-10 9-22t9-18q11-14 26-18 8-2 17-4.5t19-5.5q22-12 30-10 10 2 12 2 27 5 46 22 17 16 40 28 8 12 16.5 25t18.5 26q10 14 18.5 27.5t16.5 27.5q5 6 10 18 2 5 4 9.5t4 8.5q14 17 13 18t1 6q13 30 12 46t0 32q-5 11-9 23t-8 25q-8 27-21 46z"/><path transform="translate(30.859 19.531) scale(.0078125 -.0078125)" d="m136 254q10 1 16 9 4 5 14 13 3 2 6 4t7 4 7 4 6 4q26 19 45 40 19 20 43 38 13 15 26.5 28.5t26.5 26.5q25 24 49 57 32 24 60 52 19 12 31 23t33 23q10 12 22 26t28 24q17 17 35 24t35 24q30 16 54 5t38-27q7-18 24-38 2-3 4-6t4-5q4-4 4-15 0-23-6-46-3-11-5.5-22t-4.5-22q-2-14-3-27.5t-2-27.5q-1-26-9-55 11-16 19-34 8-19 19-30 7 1 18 16 5 4 10.5 7.5t12.5 7.5q14 8 23 17 8 8 15 15t14 13q15 13 27 28 7 7 14 13.5t14 12.5 14.5 12.5 15.5 13.5q8 8 15 16.5t14 16.5 14 16.5 15 16.5q7 9 13 11 7 3 11 13 15 7 27 22 11 14 31 20 20 2 26 0t18-14q10-7 15-20t15-20q18-36 28-44 7-16 3-32l-9-32q-1-12-2-19.5t-2-11.5-2-8-2-9q-12-70-36-136 1-14 8-29 6-12 4-35 12-2 23 0t19 4q42 17 80 44 26 20 54 39 29 20 54 39 9 7 16 15t16 15q20 16 39 26t39 20q10 6 16 12t14 14q10 10 28 21t34 19q28 1 29-9l3-19q-26-18-49-37t-47-39q-6-4-11-7t-15-7q-8-6-11-11t-13-11q-6-5-12-9.5t-12-9.5q-12-9-22-19-14-10-26-20t-22-20q-11-11-18-22-6-10-20-22-10-4-17-10l-15-12q-4-12-6-21-1-8-12-19-16-14-19-19t-9-11q-4-3-14-7-4-1-8-3t-8-4q-9-5-18-14-4-4-8.5-8t-9.5-8q-8-5-15-9t-12-8q-8-6-29-11-21-14-30-13-6 1-20-1-5-2-9 4t-11 6q-13 12-20 10-8-2-14 2-20 23-20 34 0 6-0.5 12.5t-1.5 13.5q-4 30-8 61t-6 65q0 14 3 26 4 15 5 26 0 5-2 15t-2 13q2 17 6 30 4 12 2 28-13-15-23-25.5t-17-17.5-13.5-14-12.5-15q-31-18-52-35-22-18-54-29-14-14-27.5-26.5t-26.5-23.5-26.5-23.5-27.5-26.5q-33-43-72-64-14-4-22-5t-16 5q-42 24-50 62t2 84q-9 19 2.5 54.5t3.5 51.5q3 15 7 30.5t9 31.5 8.5 31.5 5.5 30.5q10 14 3 22t-13 14q-34-20-65-47t-63-55q-8-7-15.5-13.5t-15.5-13.5q-7-7-15-13.5t-16-13.5l-32-27q-17-14-28-29-13-18-21-24l-13-10q-9-5-16-12-4-4-12-10-6-5-16-9l-18-7q-12-8-25-21t-23-23q-8-8-18-16-11-9-16-16-12-17-29-36-7-8-14.5-16.5t-14.5-17.5q-1-9-11-19l-19-19q-4-4-8-8.5t-9-9.5q-8-9-19-14l-14-3q-11-2-16-5-6-2-12.5-4.5t-13.5-5.5q-13-6-30-4l-24 3q-9 1-20 9 0 16-10 22 5 27 13 48 8 22 13 46 15 21 23 45t21 49q9 25 21 52l21 48q4 12 7.5 23t6.5 21q6 21 16 36 13 21 14 30 22 26 22 54 11 12 16 34 5 21 12 38 4 8 7 14t5 16q2 13 1 19-1 8 5 19 4 5 8 9t8 8 8 8 8 9q9 1 14 10 5 8 12 12 22 7 25 10 4 4 5 4l30 15q3 2 6.5 3.5t7.5 3.5 7 3 5 2 5 2 7 3q5 5 16 12t16 12q20-8 34-25t8-45q-2-10-6-19t-8-17q-3-7-5-19t-5-17q-14-25-18-37-5-15-10-25-8-13-14-26-6-16-11-26t-15-20q-8-10-12-14-7-7-12-16-7-9-14-19t-14-21q-13-21-30-40l-21-40q-10-19-21-42z"/></svg>