<svg width="102.61" height="19.2" viewBox="0 0 102.61 19.2" xmlns="http://www.w3.org/2000/svg"><path transform="translate(0 15.04) scale(.016 -.016)" d="M228 0V602H24V680H524V602H320V0Z"/><path transform="translate(8.768 15.04) scale(.016 -.016)" d="M8 0 235 680H376L602 0H505L305 630H303L102 0ZM136 196V277H474V196H315Z"/><path transform="translate(18.528 15.04) scale(.016 -.016)" d="m234-10q-52 0-93.5 12.5t-73.5 31.5v101q32-27 75-44t92-17q62 0 100 30t38 76q0 43-23.5 68t-67.5 44l-86 38q-35 16-64.5 38t-47 53.5-17.5 76.5q0 58 29.5 101t82.5 67 121 24q45 0 85-10t72-29v-97q-34 26-74.5 39t-83.5 13q-61 0-99.5-28t-38.5-72q0-39 24.5-61t66.5-41l86-38q54-24 91.5-66.5t37.5-114.5q0-59-29.5-103t-81.5-68-121-24z"/><path transform="translate(27.04 15.04) scale(.016 -.016)" d="M8 0 235 680H376L602 0H505L305 630H303L102 0ZM136 196V277H474V196H315Z"/><path transform="translate(40.8 15.04) scale(.016 -.016)" d="M468 680V604H186V390H454V314H186V76H470V0H94V680Z"/><path transform="translate(49.248 15.04) scale(.016 -.016)" d="m30 0 211 282-3-49-194 267h104l129-190h2l129 190h94l-193-266 2 49 209-283h-105l-142 204h-2l-146-204z"/><path transform="translate(58.048 15.04) scale(.016 -.016)" d="m80-180v680h86v-100h2q27 58 76 85t108 27q69 0 123.5-33t86-91.5 31.5-137.5q0-75-31.5-134.5t-86-93.5-123.5-34q-57 0-103.5 23t-76.5 69h-2v-260zm257 242q74 0 119 50t45 138q0 86-45 137t-119 51q-76 0-122.5-52.5t-46.5-135.5 46.5-135.5 122.5-52.5z"/><path transform="translate(68.256 15.04) scale(.016 -.016)" d="M80 0V700H170V0Z"/><path transform="translate(72.256 15.04) scale(.016 -.016)" d="m302-12q-74 0-132.5 32.5t-91.5 91.5-33 136 33.5 136.5 91.5 93.5 132 34q75 0 133-33.5t91-92.5 33-136-33.5-136.5-91.5-92.5-132-33zm0 72q73 0 119 50t46 138q0 87-46 139.5t-119 52.5-119-51-46-139q0-87 46.5-138.5t118.5-51.5z"/><path transform="translate(81.92 15.04) scale(.016 -.016)" d="m168 400q18 50 58 79t95 29q5 0 10.5 0t14.5-2v-80q-9 2-14.5 2t-10.5 0q-69 0-110-45.5t-41-124.5v-258h-90v500h86v-100z"/><path transform="translate(87.616 15.04) scale(.016 -.016)" d="m323-10q-88 0-150 34.5t-95 93-33 130.5q0 74 32.5 133.5t90.5 95 134 35.5q83 0 137-38t78.5-101 17.5-139h-443v70h370l-17-10q0 65-41 106.5t-106 41.5q-51 0-87-24.5t-55-63-19-82.5v-32q0-49 22.5-89.5t65-64.5 102.5-24q38 0 76.5 11t72.5 33v-77q-32-20-71.5-29.5t-81.5-9.5z"/><path transform="translate(96.912 15.04) scale(.016 -.016)" d="m168 400q18 50 58 79t95 29q5 0 10.5 0t14.5-2v-80q-9 2-14.5 2t-10.5 0q-69 0-110-45.5t-41-124.5v-258h-90v500h86v-100z"/></svg>