<svg width="51.248" height="27.296" viewBox="0 0 51.248 27.296" xmlns="http://www.w3.org/2000/svg"><path transform="translate(0 18.752) scale(.016 -.016)" d="m190 26h28q59 0 59 36v597h-139q-40 0-56-50t-17-101h-27v192h576v-192h-27q-3 53-18.5 102t-54.5 49h-139v-597q0-36 58-36h29v-26h-272z"/><path transform="translate(10.432 18.752) scale(.016 -.016)" d="m29 96q0 73 76.5 120t235.5 69v52q0 51-32 77t-85 26q-38 0-70-15t-32-32q0-6 2-15t2-14q0-15-9-26t-29-11q-17 0-28.5 12.5t-11.5 35.5q0 50 57 77.5t139 27.5q92 0 142-40.5t50-110.5v-271q0-32 22-32 14 0 36 8v-17q-15-13-38-20t-47-7q-27 0-47 11t-20 36v30q-40-44-88.5-60.5t-94.5-16.5q-61 0-95.5 28.5t-34.5 77.5zm312 13v143q-106-21-162.5-60.5t-56.5-88.5q0-36 22-54.5t61-18.5q37 0 77.5 24t58.5 55z"/><path transform="translate(18.528 18.752) scale(.016 -.016)" d="m85 397q-10 28-21.5 37.5t-34.5 9.5h-16v26h210v-26h-16q-39 0-39-20 0-2 2-10l117-332 117 329q2 8 2 10 0 23-41 23h-15v26h181v-26h-23q-35 0-45-27l-154-417h-76z"/><path transform="translate(27.248 18.752) scale(.016 -.016)" d="m81 616q0 25 15.5 40t41.5 15q25 0 40.5-15t15.5-40q0-24-15.5-39.5t-40.5-15.5q-26 0-41.5 15.5t-15.5 39.5zm-54-591h19q24 0 38.5 8t14.5 24v337q0 22-21 22-5 0-15-3.5t-14-4.5l-7 23 126 44h25v-418q0-16 14.5-24t38.5-8h19v-25h-238z"/><path transform="translate(31.936 18.752) scale(.016 -.016)" d="m397 437q0-19-9.5-29t-26.5-10q-11 0-17.5 4t-11.5 11q-7 7-13 10.5t-17 3.5q-26 0-49.5-19t-38.5-55-17-83v-213q0-16 15-24t39-8h17v-25h-237v25h19q24 0 38.5 8t14.5 24v336q0 21-20 21-10 0-30-8l-6 22 128 45h22v-92q14 43 50 71t80 28q29 0 49.5-10.5t20.5-32.5z"/><path transform="translate(38.4 18.752) scale(.016 -.016)" d="m29 96q0 73 76.5 120t235.5 69v52q0 51-32 77t-85 26q-38 0-70-15t-32-32q0-6 2-15t2-14q0-15-9-26t-29-11q-17 0-28.5 12.5t-11.5 35.5q0 50 57 77.5t139 27.5q92 0 142-40.5t50-110.5v-271q0-32 22-32 14 0 36 8v-17q-15-13-38-20t-47-7q-27 0-47 11t-20 36v30q-40-44-88.5-60.5t-94.5-16.5q-61 0-95.5 28.5t-34.5 77.5zm312 13v143q-106-21-162.5-60.5t-56.5-88.5q0-36 22-54.5t61-18.5q37 0 77.5 24t58.5 55z"/><path transform="translate(46.496 18.752) scale(.016 -.016)" d="m108 616q0 25 15.5 40t40.5 15q26 0 41.5-15t15.5-40q0-24-16-39.5t-41-15.5-40.5 15.5-15.5 39.5zm-83-726q44 18 65 46.5t26.5 64.5 5.5 96v296q0 11-6.5 16t-14.5 5-30-8l-7 22 126 45h25v-371q0-101-42-158.5t-143-75.5z"/></svg>