<svg width="22.352" height="22.928" viewBox="0 0 22.352 22.928" xmlns="http://www.w3.org/2000/svg"><path transform="translate(0 15.328) scale(.016 -.016)" d="M110 614H200V0H110ZM305 626V553H5V626Z"/><path transform="translate(4.96 15.328) scale(.016 -.016)" d="m130 388v-288q0-17 6-23t24-6h25v-71h-50q-48 0-70.5 22.5t-22.5 65.5v311q0 44 22.5 66.5t70.5 22.5h55v-71h-30q-18 0-24-5.5t-6-23.5zm108-159v159q0 18-5.5 23.5t-23.5 5.5h-32v71h56q49 0 71.5-22.5t22.5-66.5v-170zm-2-128v40h88v-53q0-43-22-65.5t-71-22.5h-54v71h29q19 0 24.5 6t5.5 24zm91 181v-66h-253v66z"/><path transform="translate(10.72 15.328) scale(.016 -.016)" d="m134 0h-90v669h90zm16 255h92l112-255h-96zm92 0h-92l108 233h96z"/><path transform="translate(16.432 15.328) scale(.016 -.016)" d="m242 160v227q0 19-5.5 24.5t-24.5 5.5h-30v71h56q49 0 71-22.5t22-66.5v-239zm0-59v101h89v-114q0-43-22-65.5t-71-22.5h-61v71h35q19 0 24.5 6t5.5 24zm-114 286v-228h-89v240q0 44 22 66.5t70 22.5h57v-71h-30q-18 0-24-5.5t-6-24.5zm0-179v-107q0-18 6-24t24-6h27v-71h-54q-48 0-70 22.5t-22 65.5v120z"/></svg>