<svg width="79.296" height="18.2" viewBox="0 0 79.296 18.2" xmlns="http://www.w3.org/2000/svg"><path transform="translate(0 14) scale(.014 -.014)" d="M256 0V667H345V0ZM38 627V705H563V627Z"/><path transform="translate(8.414 14) scale(.014 -.014)" d="m79 0v526h85v-526zm44 620q-24 0-40.5 16t-16.5 41q0 24 16.5 40t40.5 16q23 0 39.5-16t16.5-40q0-25-16.5-41t-39.5-16z"/><path transform="translate(11.816 14) scale(.014 -.014)" d="M126 143V275H167L407 526H509L286 295L266 283ZM79 0V729H164V0ZM422 0 233 284 284 351 519 0Z"/><path transform="translate(19.39 14) scale(.014 -.014)" d="M256 0V667H345V0ZM38 627V705H563V627Z"/><path transform="translate(27.804 14) scale(.014 -.014)" d="m301-12q-71 0-128 33.5t-89.5 95-32.5 145.5q0 85 33 146.5t90 95.5 127 34q72 0 129-33.5t89.5-95 32.5-147.5q0-84-32.5-145.5t-89.5-95-129-33.5zm1 72q44 0 81 22t59 66.5 22 113.5q0 70-22 115t-59 66.5-81 21.5q-45 0-82-21.5t-59-66.5-22-115q0-69 22-113.5t59-66.5 82-22z"/><path transform="translate(36.246 14) scale(.014 -.014)" d="M126 143V275H167L407 526H509L286 295L266 283ZM79 0V729H164V0ZM422 0 233 284 284 351 519 0Z"/><path transform="translate(47.67 14) scale(.014 -.014)" d="m326-17q-70 0-126.5 22.5t-94 67.5-55.5 110l86 28q14-51 40-85t65-51.5 90-17.5q50 0 84.5 15.5t51.5 45.5 17 71q0 53-28.5 81.5t-82.5 43.5l-112 31q-83 22-126 66.5t-43 114.5q0 60 29.5 103.5t83 68 126.5 24.5q61 0 110-17t83.5-51 51.5-83l-82-31q-22 56-63 82.5t-103 26.5q-68 0-105-30t-37-83q0-46 28-71.5t85-42.5l115-33q78-23 121.5-71t43.5-124q0-63-30.5-110.5t-87-74-135.5-26.5z"/><path transform="translate(56.49 14) scale(.014 -.014)" d="m227-12q-78 0-126 41t-48 109q0 65 46.5 107t131.5 54l200 30v-63l-174-25q-59-9-88-34t-29-66q0-40 27.5-62.5t76.5-22.5q43 0 75 19.5t49.5 55 17.5 83.5v141q0 51-28.5 81.5t-85.5 30.5q-50 0-81-22t-43-68l-80 22q17 64 72 101.5t134 37.5q99 0 148-49t49-136v-246l39-107h-90l-29 81h-4q-23-42-64.5-67.5t-95.5-25.5z"/><path transform="translate(64.232 14) scale(.014 -.014)" d="m422 0v334q0 67-33 98.5t-86 31.5q-63 0-101-40.5t-38-108.5v-315h-85v526h78v-92h3q21 49 63 76.5t102 27.5q56 0 96.5-21.5t63-64.5 22.5-108v-344z"/><path transform="translate(72.366 14) scale(.014 -.014)" d="m257-12q-84 0-139.5 35.5t-76.5 104.5l77 25q17-52 52.5-74.5t88.5-22.5 81.5 21.5 28.5 63.5q0 34-19.5 52.5t-61.5 29.5l-91 25q-64 16-96 51.5t-32 88.5q0 45 24.5 79t67.5 52.5 100 18.5q49 0 88-14t66-40 39-64l-75-26q-16 39-46 57t-74 18q-51 0-78-20t-27-57q0-27 17.5-45.5t60.5-30.5l95-25q40-10 68-29t43-47.5 15-70.5q0-48-24.5-83t-68-54-103.5-19z"/></svg>