<svg width="62.272" height="20.192" viewBox="0 0 62.272 20.192" xmlns="http://www.w3.org/2000/svg"><path transform="translate(0 15.84) scale(.016 -.016)" d="m423 590q26 0 38.5 13.5t12.5 31.5-12.5 31.5-38.5 13.5q-10 0-38.5 0t-68.5 0-83.5 0-85 0-72.5 0q-20 0-32.5-9t-16.5-22.5 0-27 16.5-22.5 32.5-9q24 0 47-1t41.5-8 29.5-23.5 11-47.5q0-32 0-78t0-94.5 0-88 0-58.5q0-24 0-51t0-52.5 0-47.5q0-25 13.5-38t31.5-13 31.5 13 13.5 38q0 22 0 47.5t0 52.5 0 51q0 19 0 56t0 82.5 0 93 0 87.5q0 38-12.5 66t-34.5 48-50 32.5-59.5 18-62.5 5.5q-20 0-32.5-9t-16.5-22.5 0-27 16.5-22.5 32.5-9q19 0 55.5 0t80 0 87 0 77 0 48.5 0z"/><path transform="translate(7.968 15.84) scale(.016 -.016)" d="m70 40q0-26 13.5-38.5t31.5-12.5 31.5 13 13.5 38q0 23 0 42.5t0 39.5 0 43 0 53.5 0 61 0 53.5 0 41.5 0 38 0 45.5q0 25-13.5 37.5t-31.5 12.5-31.5-12.5-13.5-37.5 0-46.5 0-40.5 0-38q0-34 0-59t0-50 0-59q0-19 0-39.5t0-42.5 0-43zm0 596q0-23 13.5-34.5t31.5-11.5 31.5 11.5 13.5 34.5q0 11 0 18t0 14 0 17q0 23-13.5 34.5t-31.5 11.5-31.5-11.5-13.5-34.5q0-10 0-17t0-14 0-18z"/><path transform="translate(11.664 15.84) scale(.016 -.016)" d="m70 40q0-25 13.5-38t31.5-13 31.5 13 13.5 38 0 47 0 44 0 47q0 79 0 147.5t0 128.5 0 113q0 22 0 42.5t0 41 0 44.5q0 25-13.5 38t-31.5 13-31.5-13-13.5-38q0-29 0-65t0-63q0-119 0-214t0-175q0-21 0-45t0-48 0-45z"/><path transform="translate(15.36 15.84) scale(.016 -.016)" d="m118 40q0-26 13.5-38.5t31.5-12.5 31.5 13 13.5 38q0 27 0 44.5t0 35.5 0 45q0 50 0 89t0 73 0 66.5 0 69.5q0 23 0 39.5t0 29.5 0 26 0 30q0 25-13.5 38t-31.5 13-31.5-13-13.5-38q0-15 0-36.5t0-44.5 0-44q0-55 0-96t0-74.5 0-64 0-63.5q0-25 0-44t0-38 0-43zm161 368q25 0 38 13.5t13 31.5-13 31.5-38 13.5q-16 0-28.5 0t-28.5 0q-28 0-55.5 0t-55.5 0q-10 0-17.5 0t-15.5 0-21 0q-25 0-38-13.5t-13-31.5 13-31.5 38-13.5q10 0 19.5 0t17.5 0 17 0q30 0 55.5 0t55.5 0q14 0 28 0t29 0z"/><path transform="translate(24.176 15.84) scale(.016 -.016)" d="m80 40q0-25 13.5-37.5t31.5-12.5 31.5 12.5 13.5 37.5q0 23 0 42.5t0 39.5 0 42q0 34 0 64t0 58 0 55.5 0 56.5q0 15 0 27t0 21.5 0 18 0 16 0 14.5 0 11 0 6 1.5 1 3.5-4 6-8q4-6 8.5-12.5t10.5-15.5 14.5-21 19.5-28q15-22 33-47.5t37.5-53 39.5-55.5 38-55 34-50q10-15 18-27t15.5-23 15.5-22.5 17-24.5 21-29q14-19 29-30t28.5-13.5 24 3 17 18 6.5 32.5q0 15 0 29.5t0 28.5 0 28 0 28 0 28q0 26 0 66.5t0 86 0 88 0 72.5 0 52.5 0 43 0 42.5q0 26-13.5 38.5t-31.5 12.5-31.5-12.5-13.5-38.5q0-22 0-44t0-43.5 0-43.5q0-16 0-44.5t0-63.5 0-71.5 0-70.5 0-60q0-34-7.5-56.5t-14.5-38.5-7.5-31.5 14.5-35.5q14-19 29-30t28.5-13.5 24 3 17 18 6.5 32.5q0 19-12 39t-31 42-40.5 47-41.5 54q-21 31-47 68t-53.5 75-52.5 72.5-43 60.5q-12 17-24 34t-24.5 35-26 36.5-28.5 38.5q-14 20-29 30t-28.5 11.5-24-5.5-16.5-21.5-6-35.5q0-27 0-50.5t0-46 0-47 0-52.5q0-24 0-53t0-59 0-59 0-54 0-43 0-38.5 0-42 0-43.5z"/><path transform="translate(35.184 15.84) scale(.016 -.016)" d="m170 294q-25 0-38-13.5t-13-31.5 13-31.5 38-13.5q21 0 42.5 0t45 0 50.5 0 59 0q42 0 70.5 8t44.5 23.5 20 39.5-2 55q-10 55-40.5 94.5t-76.5 61.5-101 22q-69 0-124-32.5t-87-91-32-136.5q0-81 34-139t91-89 127-31q28 0 58.5 5.5t61.5 17 62 29.5q22 12 26.5 30t-4.5 33.5-26.5 21.5-39.5-7q-24-13-47.5-22t-46.5-13.5-44-4.5q-47 0-83.5 19.5t-57.5 57.5-21 92q0 51 19.5 89.5t54 59.5 79.5 21q34 0 61-12.5t44.5-36 24.5-55.5q2-10-0.5-14t-8-5.5-15-1-21.5 0.5q-33 0-67.5 0t-67.5 0-62 0z"/><path transform="translate(43.952 15.84) scale(.016 -.016)" d="m213-1q24-8 40.5 1t22.5 26-2 33.5-32 25.5q-18 6-33 14t-27.5 19-23.5 27q-14 21-21.5 47.5t-7.5 56.5q0 49 20 87.5t56 60 83 21.5 83-21.5 56.5-60 20.5-87.5q0-30-7.5-56t-21.5-47q-17-24-36-37.5t-49-23.5q-24-9-32-25.5t-2-33.5 22.5-26 39.5-1q45 16 76 38t55 59q22 32 33.5 70.5t11.5 82.5q0 75-32.5 133.5t-89 92-128.5 33.5q-71 0-127.5-33.5t-89-92-32.5-133.5q0-45 12-84t33-70q24-36 55.5-58.5t73.5-37.5z"/><path transform="translate(53.184 15.84) scale(.016 -.016)" d="m421 40q0-25 13.5-38t31.5-13 31.5 13 13.5 38 0 46 0 42.5 0 46.5q0 36 0 65.5t0 52.5q0 52-15 92t-42 67.5-63.5 41.5-79.5 14q-52 0-97-21t-78-57.5-51.5-83.5-18.5-98q0-25 0-52.5t0-54.5 0-52.5 0-48.5q0-20 9-32.5t22.5-16.5 27 0 22.5 16.5 9 32.5q0 18 0 51.5t0 73 0 77 0 64 0 32.5q0 22 0 41t0 38 0 41q0 25-13.5 38t-31.5 13-31.5-13-13.5-38q0-20 0-40t0-40 0-40q0-10 0-37t0-63.5 0-75 0-71 0-51.5q0-20 9-32.5t22.5-16.5 27 0 22.5 16.5 9 32.5q0 23 0 53.5t0 61.5 0 58.5 0 44.5q0 39 11 69t30.5 50 46.5 30.5 60 10.5q38 0 64-14t39.5-41.5 13.5-69.5q0-35 0-64.5t0-53.5q0-20 0-43.5t0-47 0-44.5z"/></svg>