<svg width="67.032" height="17.668" viewBox="0 0 67.032 17.668" xmlns="http://www.w3.org/2000/svg"><path transform="translate(0 13.86) scale(.014 -.014)" d="m462 608v16h-375v-16h187zm-180 8h-16v-554h16zm87-623 8 14-99 62q-1 1-3.5 1t-4.5-1l-98-62 8-14 98 62q2 2-4 2t-4-2zm161 681-12 12-62-64q-1-2-1.5-5t0.5-5l62-92 14 8-62 92q-1 3-2-4t1-6zm-512-146 14-8 62 92q2 2 1.5 5t-2.5 5l-62 64-12-12 62-64q2-1 1.5 6t-2.5 4zm177 31 10-12 74 63q2 2-5 2t-5-2l75-63 10 12-75 63q-2 2-5 2t-5-2zm-19-567h197q5 0 7 4t0 8q-7 15-12.5 35.5t-8 57.5-4 97.5-1.5 154.5q0 70 1 119.5t2 84.5l-8-8q52-1 84.5-5t52.5-9.5 34-13.5q5-2 8.5 0.5t3.5 6.5v156q0 3-2.5 5.5t-5.5 2.5h-499q-3 0-5.5-2.5t-2.5-5.5v-156q0-4 4-6.5t8-0.5q14 8 33.5 13.5t52.5 9.5 85 5l-8 8q2-35 2.5-84.5t0.5-119.5q0-94-1.5-154.5t-4-97.5-7.5-57.5-13-35.5q-2-4 0.5-8t6.5-4zm0 16 7-12q8 15 13 36.5t8.5 59 5 99.5 1.5 158q0 70-0.5 119.5t-2.5 84.5q0 4-2.5 6t-5.5 2q-54-1-88-5.5t-55-10.5-36-14l12-7v156l-8-8h499l-8 8v-156l12 7q-15 8-36 14t-55 10.5-88 5.5q-3 0-5.5-2t-2.5-6q-1-35-2-84.5t-1-119.5q0-96 1.5-158t5-99.5 9-59 12.5-36.5l7 12z"/><path transform="translate(7.686 13.86) scale(.014 -.014)" d="m159 518h-16v-456h16zm83-525 8 14-95 62q-1 1-3.5 1t-4.5-1l-96-62 8-14 96 62q2 2-4 2t-4-2zm-183 594-8-14 96-62q2-1 4.5-1t3.5 1l95 62-8 14-95-62q-2-1 4-1t4 1zm-4-595h191q5 0 7 4t0 8q-7 13-12 30.5t-8 49-4.5 83-1.5 132.5q0 75 1.5 123.5t4.5 77.5 8 46 12 30q2 5 0 8.5t-7 3.5h-191q-4 0-6.5-3.5t-0.5-8.5q7-13 12-30t8-46 4.5-77.5 1.5-123.5q0-81-1.5-132.5t-4.5-83-8-49-12-30.5q-2-4 0.5-8t6.5-4zm0 16 7-12q7 14 12 32t8.5 50 5.5 85 2 136q0 77-2 126.5t-5.5 79.5-8.5 48-12 31l-7-12h191l-7 12q-7-13-12-31t-8.5-48-5.5-79.5-2-126.5q0-83 2-136t5.5-85 8.5-50 12-32l7 12z"/><path transform="translate(11.9 13.86) scale(.014 -.014)" d="m154 518h-16v-454q0-3 2-5.5t6-2.5q73-1 125.5 0t83.5 4l-2 16q-31-3-82.5-4t-124.5 0q-3 0 2.5-5.5t5.5-2.5zm-100 69-8-14 96-62q2-1 4.5-1t3.5 1l95 62-8 14-95-62q-2-1 4-1t4 1zm356-592 12 10-62 68q-2 2-1.5-5t1.5-5l82 97-12 10-82-97q-2-2-2-5t2-5zm-364 12 8-14 96 64q1 1 1 1l71 62-10 12-71-62q-1 0 0 0.5t1 0.5zm4-15h366q3 0 5 2t3 5l20 165q1 5-3.5 8t-9.5-1q-15-12-38.5-20.5t-64.5-12.5-111-4l8-8q-1 31-2 73t-1 100q0 75 1.5 123.5t4.5 77.5 8 46 12 30q2 5 0 8.5t-7 3.5h-191q-4 0-6.5-3.5t-0.5-8.5q7-13 12-30t8-46 4.5-77.5 1.5-123.5q0-81-1.5-132.5t-4.5-83-8-49-12-30.5q-2-4 0.5-8t6.5-4zm0 16 7-12q7 14 12 32t8.5 50 5.5 85 2 136q0 77-2 126.5t-5.5 79.5-8.5 48-12 31l-7-12h191l-7 12q-7-13-12-31t-8.5-48-5.5-79.5-2-126.5q0-58 1-100t2-73q0-4 2.5-6t5.5-2q74 0 117 4.5t67 14 40 22.5l-13 7-20-165 8 7z"/><path transform="translate(18.214 13.86) scale(.014 -.014)" d="m430 506 2 16q-30 3-73 4.5t-103 1.5q-59 0-102-1.5t-73-4.5l2-16q30 3 72 4.5t101 1.5q60 0 102-1.5t72-4.5zm-166 14h-16v-458h16zm84-527 8 14-96 62q-1 1-3.5 1t-4.5-1l-95-62 8-14 95 62q2 2-4 2t-4-2zm151 582-12 10-62-66q-1-1-1.5-4.5t1.5-5.5l62-84 12 10-62 84q-1 2-1.5-5t1.5-5zm-485-140 12-10 62 84q2 2 2 5.5t-2 4.5l-62 66-12-10 62-66q2-2 2 5t-2 5zm166 30 10-12 71 61q2 2-5 2t-5-2l72-61 10 12-72 61q-2 2-5 2t-5-2zm-19-473h191q5 0 7 4t0 8q-7 13-12 30.5t-8 49-4.5 83-1.5 132.5q0 53 1 92.5t2 67.5l-8-8q73-3 107-10t54-18q5-2 8.5 0.5t3.5 6.5v150q0 3-2.5 5.5t-5.5 2.5h-473q-3 0-5.5-2.5t-2.5-5.5v-150q0-4 4-6.5t8-0.5q20 11 54 18.5t107 9.5l-8 8q2-28 2.5-67.5t0.5-92.5q0-81-1.5-132.5t-4.5-83-8-49-12-30.5q-2-4 0.5-8t6.5-4zm0 16 7-12q7 14 12 32t8.5 50 5.5 85 2 136q0 53-0.5 92.5t-2.5 67.5q0 4-2.5 6t-5.5 2q-76-2-112-10.5t-57-19.5l12-7v150l-8-8h473l-8 8v-150l12 7q-22 11-57.5 19t-111.5 11q-3 0-5.5-2t-2.5-6q-1-28-2-67.5t-1-92.5q0-83 2-136t5.5-85 8.5-50 12-32l7 12z"/><path transform="translate(28.546 13.86) scale(.014 -.014)" d="m156 300v-16h161q87 0 136 47.5t49 123.5-49 123.5-136 47.5h-161q-3 0-5.5-2.5t-2.5-5.5v-556h16v556q0 3-5.5-2.5t-2.5-5.5h161q80 0 124.5-42.5t44.5-112.5-44.5-112.5-124.5-42.5zm76 49-10 12-71-63q-3-2-3-6t3-6l72-62 10 12-72 62q-2 2-2-6t2-6zm18-356 8 14-98 62q-1 1-3.5 1t-4.5-1l-99-62 8-14 99 62q2 2-4 2t-4-2zm-189 694-8-14 99-62t-0.5 0.5-0.5 0.5l75-63 10 12-75 63t0 0.5-1 0.5zm-4-695h197q5 0 7 3.5t0 7.5q-8 17-13 40.5t-8 67.5-4 119l-8-8h88q81 0 139 29.5t89.5 82.5 31.5 122q0 70-31.5 122t-89.5 81-139 29h-259q-4 0-6.5-3.5t-0.5-8.5q8-14 13-34t7.5-55 4-92 1.5-146q0-94-1.5-154.5t-4-97.5-7.5-57.5-13-35.5q-2-4 0.5-8t6.5-4zm178 363q0 66 1 115.5t3 83.5l-8-7h87q45 0 70-25.5t25-67.5-25-66.5-70-24.5h-91zm-178-347 7-12q8 15 13 36.5t8.5 59 5 99.5 1.5 158q0 91-1.5 149.5t-5 94-8.5 56-13 35.5l-7-12h259q76 0 130.5-26.5t84-75 29.5-114.5q0-65-29.5-114.5t-84-76.5-130.5-27h-88q-3 0-5.5-2.5t-2.5-5.5q1-78 4.5-123t9-69 13.5-41l7 11zm162 347q0-3 2.5-5.5t5.5-2.5h91q53 0 82 29.5t29 77.5-29 78.5-82 30.5h-87q-3 0-5.5-2t-2.5-5q-2-36-3-85.5t-1-115.5z"/><path transform="translate(36.848 13.86) scale(.014 -.014)" d="m138 62h16v458q0 3-5.5-2.5t-2.5-5.5h131q71 0 111-33t40-89q0-48-29.5-81t-78.5-41q-1 0 0 0t1 0h-175v-16h175t0.5 0 0.5 0q55 10 88.5 47t33.5 91q0 62-44.5 100t-122.5 38h-131q-3 0-5.5-2.5t-2.5-5.5v-260zm190 202-14-8 128-198 14 8zm-91-271 8 14-95 62q-1 1-3.5 1t-4.5-1l-96-62 8-14 96 62q2 2-4 2t-4-2zm359 0 6 14-150 62q-2 2-4 1.5t-4-2.5l-70-62 10-12 70 62q2 2-4 1t-4-2zm-542 594-8-14 96-60t-0.5 0.5-0.5 0.5l71-59 10 12-71 59t0 0.5-1 0.5zm165-276-10 12-68-57q-3-2-3-6t3-6l69-57 10 12-69 57q-3 2-3-6t3-6zm56-103 14-10 39 57q2 2-5 0t-4-3l94-27 4 16-94 27q-2 1-4.5 0t-4.5-3zm-225-216h191q5 0 7 4t0 8q-7 14-12.5 34.5t-8.5 59-4 105.5l-8-8h67l-7 4q43-69 63-107.5t26-58 7-34.5q0-3 2.5-5t5.5-2h220q5 0 7.5 5t-2.5 9q-15 13-29.5 27.5t-34 38-48 63-70.5 102.5l-3-11q44 26 70 68.5t26 97.5q0 58-29 102t-82.5 69-127.5 25h-226q-4 0-6.5-3.5t-0.5-8.5q7-13 12-30t8-46 4.5-77.5 1.5-123.5q0-81-1.5-132.5t-4.5-83-8-49-12-30.5q-2-4 0.5-8t6.5-4zm228 461q38 0 58.5-17t20.5-47-19-47-50-17h-74l8-8q0 47 1 82.5t2 61.5l-8-8zm-228-445 7-12q7 14 12 32t8.5 50 5.5 85 2 136q0 77-2 126.5t-5.5 79.5-8.5 48-12 31l-7-12h226q69 0 119-22.5t77-63 27-94.5q0-50-23.5-89t-64.5-63q-3-1-3.5-5t0.5-6q43-63 72-103.5t49-64.5 35-39 30-28l5 14h-220l8-7q-1 15-7.5 35.5t-26.5 60-64 110.5q-3 4-7 4h-67q-3 0-5.5-2.5t-2.5-5.5q1-70 4.5-109.5t9.5-61 13-36.5l7 12zm228 461h-61q-3 0-5.5-2t-2.5-6q-1-26-2-61.5t-1-82.5q0-3 2.5-5.5t5.5-2.5h74q37 0 61 22t24 58-25 58-70 22z"/><path transform="translate(44.884 13.86) scale(.014 -.014)" d="m159 518h-16v-456h16zm83-525 8 14-95 62q-1 1-3.5 1t-4.5-1l-96-62 8-14 96 62q2 2-4 2t-4-2zm-183 594-8-14 96-62q2-1 4.5-1t3.5 1l95 62-8 14-95-62q-2-1 4-1t4 1zm-4-595h191q5 0 7 4t0 8q-7 13-12 30.5t-8 49-4.5 83-1.5 132.5q0 75 1.5 123.5t4.5 77.5 8 46 12 30q2 5 0 8.5t-7 3.5h-191q-4 0-6.5-3.5t-0.5-8.5q7-13 12-30t8-46 4.5-77.5 1.5-123.5q0-81-1.5-132.5t-4.5-83-8-49-12-30.5q-2-4 0.5-8t6.5-4zm0 16 7-12q7 14 12 32t8.5 50 5.5 85 2 136q0 77-2 126.5t-5.5 79.5-8.5 48-12 31l-7-12h191l-7 12q-7-13-12-31t-8.5-48-5.5-79.5-2-126.5q0-83 2-136t5.5-85 8.5-50 12-32l7 12z"/><path transform="translate(49.098 13.86) scale(.014 -.014)" d="m117 77-6-16q30-10 59.5-16t57.5-6q77 0 124 34t47 91q0 37-20 61.5t-52 41-68 30.5q-31 13-61 28t-49.5 37-19.5 56q0 48 40 76.5t107 28.5q23 0 46.5-5t46.5-13l6 16q-25 8-50 13t-49 5q-75 0-119-33.5t-44-87.5q0-38 20.5-63t52.5-41.5 67-30.5q32-13 61.5-28t49-36.5 19.5-54.5q0-51-42.5-80t-112.5-29q-26 0-54 6t-57 16zm322 481-10 12-62-51q-2-1-2.5-4.5t0.5-5.5l62-107 14 8-62 107q-1 2-2.5-5t0.5-5zm-392-537 10-12 62 54q2 2 3 5t-1 5l-62 106-14-8 62-106q2-2 3 5t-1 5zm392 391q-40 32-84 50t-85 18q-42 0-63-17.5t-21-41.5q0-30 32.5-46.5t80.5-36.5q36-15 72-35.5t60-52 24-81.5q0-56-30-95t-82.5-59-120.5-20q-40 0-82 8t-86 20l6-8v160l-13-6q43-34 92-52t95-18q47 0 70 18.5t23 42.5q0 30-31.5 46t-81.5 37q-36 16-72.5 36t-61 52-24.5 83q0 52 28.5 89.5t79.5 58 119 20.5q35 0 72-7.5t77-18.5l-6 8v-158zm-10-12q4-3 8.5-1t4.5 7v158q0 3-1.5 5t-4.5 3q-41 11-78.5 18.5t-74.5 7.5q-73 0-127.5-23t-85-64-30.5-97q0-55 26-90t64.5-56.5 77.5-38.5q25-11 48.5-21t39-21.5 15.5-26.5q0-19-20-32t-57-13q-43 0-90 17.5t-87 48.5q-4 3-8.5 1t-4.5-7v-160q0-3 1.5-5t4.5-3q46-12 88.5-20t83.5-8q73 0 129 22.5t88 65 32 102.5q0 54-25.5 88.5t-63.5 56.5-77 38q-24 11-48 21t-39.5 21.5-15.5 26.5q0 19 17.5 31t50.5 12q38 0 80-17.5t79-46.5z"/><path transform="translate(56.028 13.86) scale(.014 -.014)" d="m637 62h16v457q0 3-2.5 5.5t-5.5 2.5h-88q-5 0-8-5l-166-456q-1-5 8.5-5t7.5 5l-161 456q-3 5-8 5h-92q-3 0-5.5-2.5t-2.5-5.5v-457h16v457q0 3-5.5-2.5t-2.5-5.5h92q2 0-3.5 4t-4.5 1l161-456q2-5 8-5t8 5l166 456q1 2-4.5-1.5t-3.5-3.5h88q3 0-2.5 5.5t-5.5 2.5zm-415-69 10 14-89 62q-2 1-5 1t-5-1l-88-62 10-14 88 62q2 2-4.5 2t-5.5-2zm509 0 10 14-91 62q-2 1-5 1t-5-1l-91-62 10-14 91 62q2 2-4.5 2t-5.5-2zm-676 594-10-14 88-61q1 0-0.5 2t-1.5 1l63-107q3-4 8.5-3.5t6.5 5.5l29 107q0 1-2-2t-1-2l66 61-10 12-66-61q-1-1-1.5-1.5t-1.5-2.5l-29-107q-1-5 8-3.5t7 5.5l-63 107q-1 1-1 1.5t-1 1.5zm450-1-12-12 58-61q1-1-0.5 2.5t-1.5 1.5l23-102q2-5 7-5.5t8 3.5l65 102q0 1-1.5-1t-1.5-2l91 61-8 14-91-61q-1-1-1.5-1.5t-1.5-1.5l-65-102q-3-4 6.5-5.5t8.5 3.5l-23 102q-1 1-1 2t-1 2zm-167-581 12-10 47 63q3 4-6 4.5t-7-3.5l38-63 14 8-38 63q-2 4-6.5 4t-6.5-3zm45 58h16l4 167h-16zm-333-71h177q5 0 7 4t0 8q-7 13-12 30.5t-8 49-4.5 83-1.5 132.5q0 34 0 62t1 51l-15-3q11-26 23-58.5t25-72.5q29-76 46-125.5t26.5-79 14-46.5 7.5-29q1-2 3-4t5-2h85q3 0 5 1.5t3 4.5q3 12 8.5 29t15.5 46.5 28 79 46 125.5q16 42 28.5 76t23.5 60l-15 3q1-24 1-53t0-65q0-81-1.5-132.5t-4.5-83-8-49-12-30.5q-2-4 0.5-8t6.5-4h182q5 0 7 4t0 8q-7 13-12 30.5t-8 49-4.5 83-1.5 132.5q0 75 1.5 123.5t4.5 77.5 8 46 12 30q2 5 0 8.5t-7 3.5h-237q-3 0-5.5-2.5t-2.5-5.5q0-16-2-34t-10-48.5-25.5-81.5-47.5-132l-18-51h15l-17 51q-27 81-44 131.5t-25.5 81-11 49-1.5 34.5q0 3-2 5.5t-6 2.5h-246q-4 0-6.5-3.5t-0.5-8.5q7-13 12-30t8-46 4.5-77.5 1.5-123.5q0-81-1.5-132.5t-4.5-83-8-49-12-30.5q-2-4 0.5-8t6.5-4zm0 16 7-12q7 14 12 32t8.5 50 5.5 85 2 136q0 77-2 126.5t-5.5 79.5-8.5 48-12 31l-7-12h246l-8 8q-1-16 1.5-34.5t11-49.5 25.5-83 44-135l17-51q2-5 8-5t7 5l20 51q30 83 47.5 135t25.5 83 10 49.5 2 34.5l-8-8h237l-7 12q-7-13-12-31t-8.5-48-5.5-79.5-2-126.5q0-83 2-136t5.5-85 8.5-50 12-32l7 12h-182l7-12q7 14 12 32t8.5 50 5.5 85 2 136q0 36 0 65t-1 53q0 7-6.5 8t-8.5-5q-11-26-23.5-60t-28.5-76q-29-77-47.5-126.5t-28.5-79.5-15.5-47-8.5-29l8 6h-85l8-6q-3 12-7.5 29t-14 47-26.5 79.5-46 126.5q-15 40-27 72.5t-23 58.5q-2 6-8.5 5t-6.5-8q-1-23-1-51t0-62q0-83 2-136t5.5-85 8.5-50 12-32l7 12z"/></svg>