<svg width="54.4" height="26.069" viewBox="0 0 54.4 26.069" xmlns="http://www.w3.org/2000/svg"><path transform="translate(0 14.251) scale(.021333 -.021333)" d="M299 376H207L154 0H58L110 376H17L27 454H311Z"/><path transform="translate(6.9333 14.251) scale(.021333 -.021333)" d="m76 462q5 25 22 41t39.5 16 35-16 9-40.5-20.5-40-39.5-15.5-35.5 15.5-10 39.5zm34-462h-93l48 348 96 13z"/><path transform="translate(11.051 14.251) scale(.021333 -.021333)" d="m67 354h82l-4-47q5 4 13.5 13.5t20.5 18.5q31 23 63 23t48-11.5 20-42.5q20 29 64 48 16 6 34 6 45 0 61-28t7-94l-32-240h-93l31 232q5 23 1 36t-22 13q-15 0-28-11-20-16-25-28l-33-242h-90l33 232q4 23 0 36t-23 13q-16 0-28-11-20-18-24-28l-34-242h-92z"/><path transform="translate(21.397 14.251) scale(.021333 -.021333)" d="m67 354h82l-4-47q5 4 13.5 13.5t20.5 18.5q31 23 63 23t48-11.5 20-42.5q20 29 64 48 16 6 34 6 45 0 61-28t7-94l-32-240h-93l31 232q5 23 1 36t-22 13q-15 0-28-11-20-16-25-28l-33-242h-90l33 232q4 23 0 36t-23 13q-16 0-28-11-20-18-24-28l-34-242h-92z"/><path transform="translate(31.744 14.251) scale(.021333 -.021333)" d="m246 287q-18 2-47 2t-48.5-24-28-86.5 1-85.5 37.5-23q17 0 33.5 10.5t26.5 22.5zm-25-245q-57-51-111-51-78 0-89 97-4 34 3 84.5t24 86.5 40 59q43 42 107 42 76 0 153-15l-49-345h-78z"/><path transform="translate(39.381 14.251) scale(.021333 -.021333)" d="m67 354h82l-4-45h2q5 3 14.5 12t24.5 18q37 23 73 23 50 0 66-30t7-93l-34-239h-91l29 216q5 38-1 51.5t-27 13.5q-18 0-33-11-28-22-31-28l-34-242h-93z"/><path transform="translate(46.763 14.251) scale(.021333 -.021333)" d="m246 287q-18 2-47 2t-48.5-24-28-86.5 1-85.5 37.5-23q17 0 33.5 10.5t26.5 22.5zm-25-245q-57-51-111-51-78 0-89 97-4 34 3 84.5t24 86.5 40 59q43 42 107 42 76 0 153-15l-49-345h-78z"/></svg>