<svg width="86.912" height="14" viewBox="0 0 86.912 14" xmlns="http://www.w3.org/2000/svg"><path transform="translate(0 10.57) scale(.014 -.014)" d="m183-1q-2 15 0 32 50 5 71 9.5t26 19.5 5 51v546h-72q-53 0-83.5-14.5t-49-43.5-36.5-74q-16-2-32 0 6 48 11.5 92t9.5 85q65-4 144-4.5t164-0.5q86 0 165.5 0.5t143.5 4.5q4-40 8-84.5t10-92.5q-17-2-33 0-19 46-38 75t-48.5 43-82.5 14h-71v-533q0-31 2-49t11.5-26 30.5-11.5 58-6.5q3-16 0-32-21 0-50.5 0.5t-58.5 1-49 0.5q-19 0-47.5-0.5t-58-1-50.5-0.5z"/><path transform="translate(9.52 10.57) scale(.014 -.014)" d="m277-1q-28 0-58 1t-65 1q-32 0-64.5-1t-62.5-1q-3 16 0 31 34 2 50 6.5t21 19.5 5 48v224q0 39-3 58t-18.5 26.5-53.5 12.5q-3 14 0 26 44 8 84 20t77 26l17-6q-1-31-1.5-58t-0.5-51v-268q0-39 4.5-56t20-21.5 48.5-6.5q3-15 0-31zm-200 668q0 29 20.5 49t49.5 20q28 0 48.5-20t20.5-48q0-26-20-47.5t-51-21.5q-28 0-48 20t-20 48z"/><path transform="translate(13.692 10.57) scale(.014 -.014)" d="m27-1q-3 16 0 31 34 2 50 6.5t21 19.5 5 48v224q0 39-3.5 58t-19 26.5-52.5 12.5q-3 14 0 26 40 8 78 18.5t80 27.5l17-6v-88q70 89 143 89 35 0 52-18.5t17-41.5q0-27-18-41.5t-41-14.5q-19 0-37.5 10t-27.5 31q-34 0-60.5-26.5t-26.5-61.5v-215q0-39 4.5-56t24-21.5 63.5-6.5q2-14 0-31-34 0-70 1t-74 1q-37 0-65.5-1t-59.5-1z"/><path transform="translate(19.432 10.57) scale(.014 -.014)" d="m281-12q-73 0-127.5 31.5t-84.5 87-30 127.5q0 78 31.5 136t88.5 90 131 32q73 0 127-32t84-88 30-127q0-73-31.5-131.5t-87.5-92-131-33.5zm-129 258q0-102 33.5-161.5t100.5-59.5q64 0 98 56.5t34 151.5q0 101-34 161t-99 60q-64 0-98.5-55t-34.5-153z"/><path transform="translate(31.066 10.57) scale(.014 -.014)" d="m30-1q-2 15 0 32 48 5 69 9.5t26 19.5 5 51v465q0 42-5 60t-26 23.5-69 9.5q-2 15 0 32 20 0 49.5-0.5t58.5-1 47-0.5q19 0 46.5 0.5t56 1 48.5 0.5q3-15 0-32-46-4-66-9t-25-20-5-51v-247l230 244q38 41 38 56 0 13-18 18.5t-59 8.5q-2 17 0 32 17 0 43-0.5t52-1 42-0.5q32 0 60.5 1t62.5 1q2-16 0-32-31-3-51.5-8t-39-17-41.5-34-58-58l-147-152 206-271q24-31 40-49.5t31.5-28 36-13.5 52.5-7q3-16 0-32-19 0-45 0.5t-51 1-43 0.5q-11 0-28.5-0.5t-31.5-0.5l-240 323-41-45v-154q0-42 5-60.5t25.5-23.5 65.5-9q3-16 0-32-20 0-48.5 0.5t-57 1-47.5 0.5-47-0.5-56.5-1-49.5-0.5z"/><path transform="translate(41.076 10.57) scale(.014 -.014)" d="m383-10q-66 0-83 66-71-68-145-68-51 0-86.5 30.5t-35.5 84.5q0 132 269 166 0 24 0.5 49t0.5 53q0 35-25.5 54.5t-61.5 19.5q-26 0-44-8 0-23-10-47t-27.5-40.5-42.5-16.5q-22 0-34.5 12.5t-12.5 30.5q0 24 22.5 45.5t57.5 37 73 24.5 68 9q37 0 68.5-13.5t51-40 19.5-65.5q0-24-1-62.5t-1.5-82-1.5-82.5-1-63q0-32 28-32 18 0 55 12 4-5 5.5-11t2.5-11q-25-27-52.5-39t-55.5-12zm-83 93 2 150q-92-12-126.5-39t-34.5-69q0-35 18.5-53.5t46.5-18.5q18 0 40.5 8t53.5 22z"/><path transform="translate(47.978 10.57) scale(.014 -.014)" d="m340-1q-2 16 0 31 31 2 46 6.5t20 19.5 5 48v202q0 60-18.5 89.5t-73.5 29.5q-29 0-56-10.5t-59-39.5v-261q0-39 4.5-56t19.5-21.5 47-6.5q2-15 0-31-28 0-58.5 1t-65.5 1q-32 0-63-1t-61-1q-3 16 0 31 34 2 50 6.5t21 19.5 5 48v224q0 39-3.5 58t-19 26.5-52.5 12.5q-3 14 0 26 86 17 158 46l17-6v-75q46 42 90 59t84 17q66 0 101-39t35-112v-227q0-39 4.5-56t19.5-21.5 48-6.5q2-15 0-31-30 0-58.5 1t-66.5 1q-37 0-64.5-1t-55.5-1z"/><path transform="translate(56.42 10.57) scale(.014 -.014)" d="m340-1q-2 16 0 31 31 2 46 6.5t20 19.5 5 48v202q0 60-18.5 89.5t-73.5 29.5q-29 0-56-10.5t-59-39.5v-261q0-39 4.5-56t19.5-21.5 47-6.5q2-15 0-31-28 0-58.5 1t-65.5 1q-32 0-63-1t-61-1q-3 16 0 31 34 2 50 6.5t21 19.5 5 48v224q0 39-3.5 58t-19 26.5-52.5 12.5q-3 14 0 26 86 17 158 46l17-6v-75q46 42 90 59t84 17q66 0 101-39t35-112v-227q0-39 4.5-56t19.5-21.5 48-6.5q2-15 0-31-30 0-58.5 1t-66.5 1q-37 0-64.5-1t-55.5-1z"/><path transform="translate(64.862 10.57) scale(.014 -.014)" d="m383-10q-66 0-83 66-71-68-145-68-51 0-86.5 30.5t-35.5 84.5q0 132 269 166 0 24 0.5 49t0.5 53q0 35-25.5 54.5t-61.5 19.5q-26 0-44-8 0-23-10-47t-27.5-40.5-42.5-16.5q-22 0-34.5 12.5t-12.5 30.5q0 24 22.5 45.5t57.5 37 73 24.5 68 9q37 0 68.5-13.5t51-40 19.5-65.5q0-24-1-62.5t-1.5-82-1.5-82.5-1-63q0-32 28-32 18 0 55 12 4-5 5.5-11t2.5-11q-25-27-52.5-39t-55.5-12zm-83 93 2 150q-92-12-126.5-39t-34.5-69q0-35 18.5-53.5t46.5-18.5q18 0 40.5 8t53.5 22z"/><path transform="translate(71.764 10.57) scale(.014 -.014)" d="m416-13-16 7-4 69q-35-38-71.5-56.5t-80.5-18.5q-62 0-108.5 33.5t-71.5 87.5-25 117q0 73 31.5 133t89 96.5 134.5 36.5q23 0 48-3.5t52-11.5v128q0 31-6 46.5t-23.5 22-52.5 9.5q-3 13 0 27 40 5 82 15.5t86 29.5l17-6q-1-22-1.5-50t-0.5-61v-496q0-38 3-57t18-26.5 51-13.5q3-13 0-27-40-6-78-13t-73-18zm-21 405q-43 59-113 59-69 0-104-50.5t-35-139.5q0-52 14-100t46-79 85-31q67 0 107 58z"/><path transform="translate(80.01 10.57) scale(.014 -.014)" d="m383-10q-66 0-83 66-71-68-145-68-51 0-86.5 30.5t-35.5 84.5q0 132 269 166 0 24 0.5 49t0.5 53q0 35-25.5 54.5t-61.5 19.5q-26 0-44-8 0-23-10-47t-27.5-40.5-42.5-16.5q-22 0-34.5 12.5t-12.5 30.5q0 24 22.5 45.5t57.5 37 73 24.5 68 9q37 0 68.5-13.5t51-40 19.5-65.5q0-24-1-62.5t-1.5-82-1.5-82.5-1-63q0-32 28-32 18 0 55 12 4-5 5.5-11t2.5-11q-25-27-52.5-39t-55.5-12zm-83 93 2 150q-92-12-126.5-39t-34.5-69q0-35 18.5-53.5t46.5-18.5q18 0 40.5 8t53.5 22z"/></svg>