<svg width="180.43" height="16" viewBox="0 0 180.43 16" xmlns="http://www.w3.org/2000/svg"><path transform="translate(0 12.08) scale(.016 -.016)" d="m183-1q-2 15 0 32 50 5 71 9.5t26 19.5 5 51v546h-72q-53 0-83.5-14.5t-49-43.5-36.5-74q-16-2-32 0 6 48 11.5 92t9.5 85q65-4 144-4.5t164-0.5q86 0 165.5 0.5t143.5 4.5q4-40 8-84.5t10-92.5q-17-2-33 0-19 46-38 75t-48.5 43-82.5 14h-71v-533q0-31 2-49t11.5-26 30.5-11.5 58-6.5q3-16 0-32-21 0-50.5 0.5t-58.5 1-49 0.5q-19 0-47.5-0.5t-58-1-50.5-0.5z"/><path transform="translate(10.88 12.08) scale(.016 -.016)" d="m277-1q-28 0-58 1t-65 1q-32 0-64.5-1t-62.5-1q-3 16 0 31 34 2 50 6.5t21 19.5 5 48v224q0 39-3 58t-18.5 26.5-53.5 12.5q-3 14 0 26 44 8 84 20t77 26l17-6q-1-31-1.5-58t-0.5-51v-268q0-39 4.5-56t20-21.5 48.5-6.5q3-15 0-31zm-200 668q0 29 20.5 49t49.5 20q28 0 48.5-20t20.5-48q0-26-20-47.5t-51-21.5q-28 0-48 20t-20 48z"/><path transform="translate(15.648 12.08) scale(.016 -.016)" d="m27-1q-3 16 0 31 34 2 50 6.5t21 19.5 5 48v224q0 39-3.5 58t-19 26.5-52.5 12.5q-3 14 0 26 40 8 78 18.5t80 27.5l17-6v-88q70 89 143 89 35 0 52-18.5t17-41.5q0-27-18-41.5t-41-14.5q-19 0-37.5 10t-27.5 31q-34 0-60.5-26.5t-26.5-61.5v-215q0-39 4.5-56t24-21.5 63.5-6.5q2-14 0-31-34 0-70 1t-74 1q-37 0-65.5-1t-59.5-1z"/><path transform="translate(22.208 12.08) scale(.016 -.016)" d="m281-12q-73 0-127.5 31.5t-84.5 87-30 127.5q0 78 31.5 136t88.5 90 131 32q73 0 127-32t84-88 30-127q0-73-31.5-131.5t-87.5-92-131-33.5zm-129 258q0-102 33.5-161.5t100.5-59.5q64 0 98 56.5t34 151.5q0 101-34 161t-99 60q-64 0-98.5-55t-34.5-153z"/><path transform="translate(35.504 12.08) scale(.016 -.016)" d="m188 699q31 0 71 1t66 1q197 0 298-84t101-245q0-118-51.5-201.5t-142.5-127.5-209-44q-14 0-39 0.5t-51 1-44 0.5q-16 0-45-0.5t-59-1-50-0.5q-2 15 0 32 47 5 67 9.5t25 19.5 5 51v465q0 42-5 60t-25.5 23.5-66.5 9.5q-2 15 0 32 21 0 50-0.5t57.5-1 47.5-0.5zm52-44v-531q0-25 0-42t1-28q48-14 99-14 87 0 145.5 41t88 112 29.5 161q0 140-71.5 223t-211.5 83q-25 0-47.5-2t-32.5-3z"/><path transform="translate(47.888 12.08) scale(.016 -.016)" d="m259-12q-71 0-120 33t-74.5 88.5-25.5 122.5q0 69 26.5 128t77.5 95.5 124 36.5q88 0 137.5-52.5t49.5-135.5q0-10-0.5-17.5t-1.5-12.5l-315 3q0-4 0-7 0-98 45-154t126-56q68 0 134 44 10-12 15-23-85-93-198-93zm-119 326 207 4q1 2 1 5.5t0 4.5q0 54-23.5 90t-69.5 36q-43 0-75-35t-40-105z"/><path transform="translate(55.84 12.08) scale(.016 -.016)" d="m277 5-55-11-156 391q-8 22-17 33.5t-23.5 17.5-42.5 9q-2 14 0 32 29 0 60.5-1t62.5-1q29 0 63 1t57 1q3-16 0-32-34-2-46.5-7t-12.5-21q0-8 3.5-20t6.5-20 12-32 21.5-55.5 25.5-65 24.5-61.5 18.5-45q21 48 50.5 116t57.5 138q5 14 8.5 25.5t3.5 18.5q0 14-13 20t-47 9q-1 16 0 32 26 0 49.5-1t56.5-1q15 0 28.5 0.5t50.5 1.5q2-17 0-32-42-3-57-18.5t-29-46.5z"/><path transform="translate(63.872 12.08) scale(.016 -.016)" d="m383-10q-66 0-83 66-71-68-145-68-51 0-86.5 30.5t-35.5 84.5q0 132 269 166 0 24 0.5 49t0.5 53q0 35-25.5 54.5t-61.5 19.5q-26 0-44-8 0-23-10-47t-27.5-40.5-42.5-16.5q-22 0-34.5 12.5t-12.5 30.5q0 24 22.5 45.5t57.5 37 73 24.5 68 9q37 0 68.5-13.5t51-40 19.5-65.5q0-24-1-62.5t-1.5-82-1.5-82.5-1-63q0-32 28-32 18 0 55 12 4-5 5.5-11t2.5-11q-25-27-52.5-39t-55.5-12zm-83 93 2 150q-92-12-126.5-39t-34.5-69q0-35 18.5-53.5t46.5-18.5q18 0 40.5 8t53.5 22z"/><path transform="translate(71.76 12.08) scale(.016 -.016)" d="m340-1q-2 16 0 31 31 2 46 6.5t20 19.5 5 48v202q0 60-18.5 89.5t-73.5 29.5q-29 0-56-10.5t-59-39.5v-261q0-39 4.5-56t19.5-21.5 47-6.5q2-15 0-31-28 0-58.5 1t-65.5 1q-32 0-63-1t-61-1q-3 16 0 31 34 2 50 6.5t21 19.5 5 48v224q0 39-3.5 58t-19 26.5-52.5 12.5q-3 14 0 26 86 17 158 46l17-6v-75q46 42 90 59t84 17q66 0 101-39t35-112v-227q0-39 4.5-56t19.5-21.5 48-6.5q2-15 0-31-30 0-58.5 1t-66.5 1q-37 0-64.5-1t-55.5-1z"/><path transform="translate(81.408 12.08) scale(.016 -.016)" d="m383-10q-66 0-83 66-71-68-145-68-51 0-86.5 30.5t-35.5 84.5q0 132 269 166 0 24 0.5 49t0.5 53q0 35-25.5 54.5t-61.5 19.5q-26 0-44-8 0-23-10-47t-27.5-40.5-42.5-16.5q-22 0-34.5 12.5t-12.5 30.5q0 24 22.5 45.5t57.5 37 73 24.5 68 9q37 0 68.5-13.5t51-40 19.5-65.5q0-24-1-62.5t-1.5-82-1.5-82.5-1-63q0-32 28-32 18 0 55 12 4-5 5.5-11t2.5-11q-25-27-52.5-39t-55.5-12zm-83 93 2 150q-92-12-126.5-39t-34.5-69q0-35 18.5-53.5t46.5-18.5q18 0 40.5 8t53.5 22z"/><path transform="translate(89.296 12.08) scale(.016 -.016)" d="m223-255q-88 0-142 31t-54 86q0 43 30 71t74 56q-39 9-59 31.5t-20 53.5q0 54 79 109-33 21-53 54.5t-20 77.5q0 55 28.5 94.5t75 61 99.5 21.5q78 0 130-43 54 43 106 43 26 0 41-11.5t15-33.5-14-35-34-13q-19 0-32.5 11.5t-17.5 32.5q-14-3-22.5-7t-19.5-11q34-43 34-102 0-55-27-93.5t-71.5-59-97.5-20.5q-50 0-93 18-25-25-25-53 0-25 19-31.5t70-6.5q23 0 55 0.5t47 0.5q100 0 144-35.5t44-97.5q0-49-24-86.5t-65-63-92.5-38-107.5-12.5zm-49 239q-54-45-54-95 0-35 21-57t55-32 72-10q34 0 71 10t63 35.5 26 71.5q0 42-29.5 60t-109.5 18q-19 0-47-0.5t-62-0.5q-3 0-6 0zm79 201q44 0 67.5 35.5t23.5 98.5q0 64-24 101t-70 37q-43 0-66.5-34.5t-23.5-97.5q0-64 24.5-102t68.5-38z"/><path transform="translate(98.064 12.08) scale(.016 -.016)" d="m383-10q-66 0-83 66-71-68-145-68-51 0-86.5 30.5t-35.5 84.5q0 132 269 166 0 24 0.5 49t0.5 53q0 35-25.5 54.5t-61.5 19.5q-26 0-44-8 0-23-10-47t-27.5-40.5-42.5-16.5q-22 0-34.5 12.5t-12.5 30.5q0 24 22.5 45.5t57.5 37 73 24.5 68 9q37 0 68.5-13.5t51-40 19.5-65.5q0-24-1-62.5t-1.5-82-1.5-82.5-1-63q0-32 28-32 18 0 55 12 4-5 5.5-11t2.5-11q-25-27-52.5-39t-55.5-12zm-83 93 2 150q-92-12-126.5-39t-34.5-69q0-35 18.5-53.5t46.5-18.5q18 0 40.5 8t53.5 22z"/><path transform="translate(105.95 12.08) scale(.016 -.016)" d="m27-1q-3 16 0 31 34 2 50 6.5t21 19.5 5 48v224q0 39-3.5 58t-19 26.5-52.5 12.5q-3 14 0 26 40 8 78 18.5t80 27.5l17-6v-88q70 89 143 89 35 0 52-18.5t17-41.5q0-27-18-41.5t-41-14.5q-19 0-37.5 10t-27.5 31q-34 0-60.5-26.5t-26.5-61.5v-215q0-39 4.5-56t24-21.5 63.5-6.5q2-14 0-31-34 0-70 1t-74 1q-37 0-65.5-1t-59.5-1z"/><path transform="translate(112.51 12.08) scale(.016 -.016)" d="m277-1q-28 0-58 1t-65 1q-32 0-64.5-1t-62.5-1q-3 16 0 31 34 2 50 6.5t21 19.5 5 48v224q0 39-3 58t-18.5 26.5-53.5 12.5q-3 14 0 26 44 8 84 20t77 26l17-6q-1-31-1.5-58t-0.5-51v-268q0-39 4.5-56t20-21.5 48.5-6.5q3-15 0-31zm-200 668q0 29 20.5 49t49.5 20q28 0 48.5-20t20.5-48q0-26-20-47.5t-51-21.5q-28 0-48 20t-20 48z"/><path transform="translate(121.44 12.08) scale(.016 -.016)" d="m256-14q-1 0-32.5 1.5t-72.5 8.5q-34 6-61.5 8.5t-33.5 2.5q-1 83-9 201 8 1 16.5 1t15.5 0q19-88 63.5-136t117.5-48q65 0 106 35.5t41 93.5q0 44-22.5 72t-59 47.5-77.5 36.5q-48 21-91.5 44.5t-71.5 60.5-28 96q0 63 31.5 108t84.5 68.5 117 23.5q20 0 41.5-2t44.5-6q29-4 44.5-5t20.5-1q3 0 11 0.5t13 1.5q2-44 4-91t6-98q-20-3-33-2-23 87-57 125-34 39-97 39-55 0-94-29.5t-39-87.5q0-31 14.5-55t48.5-46 94-47q33-14 66.5-31t61.5-40.5 45-57 17-79.5q0-68-34-115.5t-89.5-72.5-122.5-25z"/><path transform="translate(130.19 12.08) scale(.016 -.016)" d="m383-10q-66 0-83 66-71-68-145-68-51 0-86.5 30.5t-35.5 84.5q0 132 269 166 0 24 0.5 49t0.5 53q0 35-25.5 54.5t-61.5 19.5q-26 0-44-8 0-23-10-47t-27.5-40.5-42.5-16.5q-22 0-34.5 12.5t-12.5 30.5q0 24 22.5 45.5t57.5 37 73 24.5 68 9q37 0 68.5-13.5t51-40 19.5-65.5q0-24-1-62.5t-1.5-82-1.5-82.5-1-63q0-32 28-32 18 0 55 12 4-5 5.5-11t2.5-11q-25-27-52.5-39t-55.5-12zm-83 93 2 150q-92-12-126.5-39t-34.5-69q0-35 18.5-53.5t46.5-18.5q18 0 40.5 8t53.5 22z"/><path transform="translate(138.08 12.08) scale(.016 -.016)" d="m340-1q-2 16 0 31 31 2 46 6.5t20 19.5 5 48v202q0 60-18.5 89.5t-73.5 29.5q-29 0-56-10.5t-59-39.5v-261q0-39 4.5-56t19.5-21.5 47-6.5q2-15 0-31-28 0-58.5 1t-65.5 1q-32 0-63-1t-61-1q-3 16 0 31 34 2 50 6.5t21 19.5 5 48v224q0 39-3.5 58t-19 26.5-52.5 12.5q-3 14 0 26 86 17 158 46l17-6v-75q46 42 90 59t84 17q66 0 101-39t35-112v-227q0-39 4.5-56t19.5-21.5 48-6.5q2-15 0-31-30 0-58.5 1t-66.5 1q-37 0-64.5-1t-55.5-1z"/><path transform="translate(147.73 12.08) scale(.016 -.016)" d="m73 158q15-66 48-100.5t85-34.5q39 0 66 18.5t27 58.5q0 30-14.5 48t-40 30.5-57.5 25.5q-37 15-69.5 32.5t-53 44-20.5 68.5q0 48 25.5 79.5t66 47.5 86.5 16q23 0 46-3t25-3q20-3 37-3.5t18-0.5 4.5 0 9.5 1q0-32 1-65t4-70q-1 0-4 0-9-1-16.5-1.5t-14.5 0.5q-13 56-38.5 81.5t-71.5 25.5q-41 0-65.5-18t-24.5-50q0-26 16-42.5t39-27.5 44-19q39-15 74.5-33.5t58-47.5 22.5-78q0-52-26.5-85.5t-67.5-49-86-15.5q-26 0-51.5 4t-27.5 4-16.5 2-32 4-30.5 2q0 31-2.5 69t-5.5 84q2 0 5 0 9 1 15.5 1.5t12.5-0.5z"/><path transform="translate(154.51 12.08) scale(.016 -.016)" d="m20-1q-1 4-1 8t0 8 0 7.5 1 7.5q34 2 50 6.5t21 19.5 5 48v501q0 31-5.5 46.5t-23 22-52.5 9.5q-1 4-1 7t0 6q0 4 0 7t1 7q40 5 82 15.5t86 29.5l17-6q-1-22-1.5-50t-0.5-61v-371q12 0 20 4t13 8q2 2 8 7.5t21 20.5 43 45q26 29 41.5 45.5t15.5 27.5q0 8-13.5 13.5t-36.5 6.5q-1 4-1 8t0 8 0 8 1 8q20 0 50.5-1t54.5-1q12 0 34.5 0.5t45.5 0.5 34 0q1-4 1.5-8t0.5-8-0.5-7.5-1.5-7.5q-52-1-88-25.5t-69-57.5l-72-72 138-182q22-29 36.5-45.5t31.5-23.5 47-9q2-14 0-31-13 0-38.5 1t-79.5 1q-8 0-24 0t-30-2q0 11-12 30.5t-19 28.5q-3 5-15 21.5t-28.5 39-33.5 46-31 41.5q-11 15-20.5 23.5t-23.5 8.5v-124q0-39 3.5-56t17-21.5 41.5-6.5q2-15 0-31-26 0-54.5 1t-61.5 1q-32 0-63-1t-61-1z"/><path transform="translate(163.31 12.08) scale(.016 -.016)" d="m27-1q-3 16 0 31 34 2 50 6.5t21 19.5 5 48v224q0 39-3.5 58t-19 26.5-52.5 12.5q-3 14 0 26 40 8 78 18.5t80 27.5l17-6v-88q70 89 143 89 35 0 52-18.5t17-41.5q0-27-18-41.5t-41-14.5q-19 0-37.5 10t-27.5 31q-34 0-60.5-26.5t-26.5-61.5v-215q0-39 4.5-56t24-21.5 63.5-6.5q2-14 0-31-34 0-70 1t-74 1q-37 0-65.5-1t-59.5-1z"/><path transform="translate(169.87 12.08) scale(.016 -.016)" d="m277-1q-28 0-58 1t-65 1q-32 0-64.5-1t-62.5-1q-3 16 0 31 34 2 50 6.5t21 19.5 5 48v224q0 39-3 58t-18.5 26.5-53.5 12.5q-3 14 0 26 44 8 84 20t77 26l17-6q-1-31-1.5-58t-0.5-51v-268q0-39 4.5-56t20-21.5 48.5-6.5q3-15 0-31zm-200 668q0 29 20.5 49t49.5 20q28 0 48.5-20t20.5-48q0-26-20-47.5t-51-21.5q-28 0-48 20t-20 48z"/><path transform="translate(174.64 12.08) scale(.016 -.016)" d="m219-12q-60 0-95 28.5t-35 82.5q0 88 1.5 170t2.5 158h-76q-3 15 0 27 99 42 149 137 8 0 16-0.5t14-1.5q-1-26-1.5-55t-1.5-61h152q3-22 0-46h-152q-2-70-2.5-147.5t-0.5-155.5q0-81 84-81 36 0 67 19 9-12 11-30-59-44-133-44z"/></svg>