<svg width="28.362" height="19.182" viewBox="0 0 28.362 19.182" xmlns="http://www.w3.org/2000/svg"><path transform="translate(0 14.308) scale(.0068359 -.0068359)" d="M481 0V1247H59V1386H1068V1247H645V0Z"/><path transform="translate(7.7041 14.308) scale(.0068359 -.0068359)" d="m175 0v1023h162v-1023zm84 1239q-49 0-79 30.5t-30 81.5q0 47 30 77t79 30 79-30 30-77q0-51-30-81.5t-79-30.5z"/><path transform="translate(11.225 14.308) scale(.0068359 -.0068359)" d="m175 0v1023h135l15-185h4q54 96 129 153.5t162 57.5q66 0 108-21l-36-138q-22 7-41.5 10t-51.5 3q-65 0-137-53.5t-125-187.5v-662z"/><path transform="translate(16.174 14.308) scale(.0068359 -.0068359)" d="m175 0v1023h135l15-185h4q54 96 129 153.5t162 57.5q66 0 108-21l-36-138q-22 7-41.5 10t-51.5 3q-65 0-137-53.5t-125-187.5v-662z"/><path transform="translate(21.123 14.308) scale(.0068359 -.0068359)" d="m411-25q-128 0-214 74.5t-86 213.5q0 168 152.5 258t481.5 127q0 68-18.5 129t-65 100-132.5 39q-91 0-170.5-35t-139.5-73l-63 108q68 47 171.5 90t227.5 43q187 0 269.5-115t82.5-303v-631h-135l-13 124h-6q-74-61-160.5-105t-181.5-44zm44 130q77 0 144.5 36t145.5 103v296q-177-22-281-58t-149-87-45-119q0-91 54-131t131-40z"/></svg>