<svg width="80.16" height="19.2" viewBox="0 0 80.16 19.2" xmlns="http://www.w3.org/2000/svg"><path transform="translate(0 16) scale(.016 -.016)" d="M232 0V653H13V737H542V653H323V0Z"/><path transform="translate(8.88 16) scale(.016 -.016)" d="m175 0-105 105v313l105 105h248l105-105v-313l-105-105zm38 70h172l55 55-1 273-54 55h-172l-55-55v-273z"/><path transform="translate(18.448 16) scale(.016 -.016)" d="M82 0V523H170V429L261 523H454L546 430L636 523H829L934 418V0H846V396L793 453H659L558 351V0H470L471 396L417 453H284L170 337V0Z"/><path transform="translate(34.624 16) scale(.016 -.016)" d="m175 0-105 105v313l105 105h248l105-105v-313l-105-105zm38 70h172l55 55-1 273-54 55h-172l-55-55v-273z"/><path transform="translate(44.192 16) scale(.016 -.016)" d="m82 0v523h88v-94l91 94h134v-88h-130l-95-98v-337z"/><path transform="translate(50.688 16) scale(.016 -.016)" d="m82 0v523h88v-94l91 94h134v-88h-130l-95-98v-337z"/><path transform="translate(57.184 16) scale(.016 -.016)" d="m175 0-105 105v313l105 105h248l105-105v-313l-105-105zm38 70h172l55 55-1 273-54 55h-172l-55-55v-273z"/><path transform="translate(66.752 16) scale(.016 -.016)" d="M656 0H536L419 386L302 0H182L13 523H106L230 88H253L370 523H467L584 88H607L732 523H824Z"/></svg>