<svg width="45.696" height="18.832" viewBox="0 0 45.696 18.832" xmlns="http://www.w3.org/2000/svg"><path transform="translate(0 15.472) scale(.016 -.016)" d="m573 500h-104v33q0 72-32 97-18 14-35.5 20.5t-50.5 14.5v-665h-109v665q-35-8-52-14.5t-35-20.5q-32-25-32-98v-32h-103v32q0 99 83 136 71 32 193 32 202 0 256-84 21-34 21-84z"/><path transform="translate(9.488 15.472) scale(.016 -.016)" d="m311 260h-79v92q0 92-86 92v-444h-86v470h86q101 0 142-74v64h23z"/><path transform="translate(15.024 15.472) scale(.016 -.016)" d="m366 157q0-73-41.5-120t-116.5-47-116.5 47-41.5 120v157q0 73 41.5 119.5t116.5 46.5 116.5-46.5 41.5-119.5zm-87-39v235q0 97-71.5 97t-71.5-97v-235q0-98 71.5-98t71.5 98z"/><path transform="translate(21.68 15.472) scale(.016 -.016)" d="m315 122q0-37-23-80-12-23-36.5-37.5t-58.5-14.5q-69 0-108 46t-39 121v156q0 76 39.5 121.5t106.5 45.5q37 0 63-16.5t37-41.5q19-42 19-73h-26v8q0 39-31 72-19 21-49 21t-51-25-21-73v-234q0-45 20-71.5t57.5-26.5 56 32.5 18.5 60.5v9z"/><path transform="translate(27.28 15.472) scale(.016 -.016)" d="m398 40q19 0 31 32l19-3q0-9-6-25t-14-26q-19-28-57-28-83 0-83 99v267q0 94-59 94-39 0-61-35t-22-81v-334h-86v690h86v-278q29 68 94 68t100-42.5 35-115.5v-248q0-34 23-34z"/><path transform="translate(34.528 15.472) scale(.016 -.016)" d="m366 74q0-34 21-34t33 32l19-4q0-8-5.5-24.5t-13-26.5-23.5-18.5-36-8.5q-70 0-80 74-29-74-100-74-60 0-95.5 43t-35.5 116v321h87v-355q0-93 58-93 41 0 62.5 33t21.5 82v333h87z"/><path transform="translate(41.632 15.472) scale(.016 -.016)" d="m179 40q19 0 31 32l19-3q0-9-6-25t-13.5-26.5-23-19-35.5-8.5q-82 0-82 99v352h-44v29h44v170h87v-170h72v-29h-72v-369q0-32 23-32z"/></svg>