<svg width="53.928" height="19.46" viewBox="0 0 53.928 19.46" xmlns="http://www.w3.org/2000/svg"><path transform="translate(0 14.7) scale(.014 -.014)" d="m158 2q1 15 2 48.5t2.5 77 2.5 90 1.5 89.5 0.5 74q0 44-1 96.5t-1.5 99.5-1.5 77.5-1 30.5l80-1t-0.5-16-1-44.5-1-67.5-1-86-0.5-98 0.5-104 1.5-101 1.5-86 1-60 0.5-22zm-149 628 3 71t20 0 49 0.5 58 0.5 47 0q15 0 40 0t54 0.5 55 1 42.5 0.5 16.5 0l3-66t-15.5 0-39.5-0.5-51.5-1-52-0.5-39.5 0-38.5-1-49.5-1.5-49.5-1.5-38-1.5-14.5-0.5z"/><path transform="translate(5.67 14.7) scale(.014 -.014)" d="m264 232q10 48 16.5 89.5t6.5 72.5q0 37-11.5 58t-39.5 21q-18 0-39-14.5t-36.5-54.5-15.5-117l-39-42q1 25 4 62t11 76 23 73 40.5 55 63.5 21q35 0 56-18t30.5-50 9.5-74q0-34-5-74.5t-13-83.5zm-190-231q2 22 3.5 45t2.5 51.5 2 65 1 84.5q0 46-0.5 86t-1.5 73.5-2.5 61-3.5 49.5l68 3q0-22-0.5-56t0-78.5 2.5-98.5q0-47 0-89.5t1-79.5 1.5-66.5 1.5-50.5z"/><path transform="translate(10.78 14.7) scale(.014 -.014)" d="m167-10q-43 0-64.5 21.5t-28 60-6.5 87.5q0 5 0.5 25.5t1.5 51.5 2 66q1 40 2 77t2 67 1.5 49.5 0.5 23.5l69 6q-1-25-3-53t-4-59-3.5-63-3.5-67q-1-25-2-47.5t-1.5-41.5-1-33.5-0.5-22.5q0-28 4-49.5t14-33.5 28-12q23 0 43.5 16.5t37 48 26 75.5 9.5 98l24 7q0-47-4-91.5t-13-82-26-65.5-42.5-43.5-61.5-15.5zm127 10-6 105q2 44 2 88t0 88q0 23-0.5 51.5t-1.5 60.5-1.5 65.5-1.5 67.5l71-1q-1-20-1.5-47t-1-57-1-58-0.5-49 0-30q1-28 1.5-56.5t1.5-57 2-57 1.5-56.5 1.5-57z"/><path transform="translate(16.688 14.7) scale(.014 -.014)" d="m205-13q-53 0-83 31t-45 78q-10 35-14 75.5t-4 81.5q0 49 5 93.5t19 80.5q12 29 30 51t45.5 34 65.5 12q45 0 72-22t38.5-59 11.5-82q0-18-1.5-37t-4.5-38l-63 1q2 23 4 45t2 41q0 28-5.5 50t-20 34.5-41.5 12.5q-33 0-51.5-21t-27.5-56q-8-31-10-68t-2-74q0-22 1-43t3-40.5 5-37.5q8-37 26-61.5t52-24.5q28 0 44.5 12t24 31.5 7.5 43.5q0 8-0.5 17t-2.5 18l62 2q1-8 1-15.5t0-15.5q0-44-14.5-77.5t-46-53-82.5-19.5z"/><path transform="translate(22.316 14.7) scale(.014 -.014)" d="m167-10q-43 0-64.5 21.5t-28 60-6.5 87.5q0 5 0.5 25.5t1.5 51.5 2 66q1 40 2 77t2 67 1.5 49.5 0.5 23.5l69 6q-1-25-3-53t-4-59-3.5-63-3.5-67q-1-25-2-47.5t-1.5-41.5-1-33.5-0.5-22.5q0-28 4-49.5t14-33.5 28-12q23 0 43.5 16.5t37 48 26 75.5 9.5 98l24 7q0-47-4-91.5t-13-82-26-65.5-42.5-43.5-61.5-15.5zm127 10-6 105q2 44 2 88t0 88q0 23-0.5 51.5t-1.5 60.5-1.5 65.5-1.5 67.5l71-1q-1-20-1.5-47t-1-57-1-58-0.5-49 0-30q1-28 1.5-56.5t1.5-57 2-57 1.5-56.5 1.5-57z"/><path transform="translate(28.224 14.7) scale(.014 -.014)" d="m75 2q1 23 1.5 62t1 87.5 0.5 101.5 0 104q0 39 0 85t-0.5 92.5-1 88.5-0.5 74l74 1q-1-31-3-72.5t-3.5-88.5-2.5-93-1-86q0-53 1.5-117.5t4-125.5 4.5-105z"/><path transform="translate(31.304 14.7) scale(.014 -.014)" d="m210-12q-56 0-87 29.5t-46 78.5q-11 37-14.5 81.5t-3.5 92.5q0 40 4 76.5t14 67.5q17 50 51 80.5t93 30.5q47 0 74-22t39-59.5 12-83.5q0-28-3.5-57t-8.5-59l-58 51q3 22 5 42.5t2 38.5q0 28-6 49t-20.5 33-41.5 12q-29 0-47-20t-28-50q-9-28-12-63t-3-68q0-25 0.5-50t2.5-47.5 6-42.5q8-38 26.5-61.5t53.5-23.5q27 0 43.5 12.5t23.5 33 7 43.5q0 8-0.5 16.5t-2.5 16.5h59q2-10 2.5-20.5t0.5-20.5q0-39-15-70t-45.5-49-76.5-18zm-124 249-1 59 249 2v-54t-15.5 0-41-1-58-1.5-67-1.5-66.5-3z"/><path transform="translate(36.96 14.7) scale(.014 -.014)" d="m373-3-80 4q1 17 2.5 41.5t3 56.5 2.5 71.5 1 86.5q0 13 0 30t0 37 0 42q0 38-7 59.5t-19.5 30.5-29.5 9q-23 0-46.5-19t-39-64-15.5-123l-38-47q0 37 3 79t12 83 26 75 44.5 54 67.5 20q31 0 54-15t36.5-48.5 13.5-88.5q0-38 0-54t0-25 0-28q0-55 1-96.5t2.5-73 3-55 2.5-42.5zm-299 4q1 21 2.5 42t3 48.5 2.5 64.5 1 91q0 73-1 134.5t-2 98.5-1 37l67 3q0-22-1-63t-1-92.5 1-105.5q0-77 1-123t2-76 1-59z"/><path transform="translate(43.106 14.7) scale(.014 -.014)" d="m197-10q-39 0-64 13t-39 36-19.5 52.5-5.5 63.5q0 32 2.5 68.5t3.5 76.5q3 76 5 123.5t4 75.5 3 46 1 33.5-2 38.5l80 1q-4-44-8.5-91.5t-8.5-91.5-6.5-81-4.5-60q-2-35-3.5-65t-1.5-56q0-41 5-70t18.5-44 40.5-15q29 0 45 15t22.5 42 6.5 60q0 16-1 33t-3 34.5-4 35.5h60q3-17 4.5-33.5t2.5-32.5 1-31q0-51-12.5-91t-41.5-63-80-23zm-170 467 6 58q-2 0 9.5 0t30 0 38.5-0.5 34.5-0.5 18.5 0q19 0 42 0.5t46 1 42.5 0.5 31 0.5 11.5 0.5l-6-51t-9 0-24.5-0.5-35-1-40-1-40.5-0.5q-24 0-51-1t-50.5-2-38.5-2-15-1z"/><path transform="translate(48.51 14.7) scale(.014 -.014)" d="m265 0v113l-4 254q-1 59-22 84.5t-51 25.5q-34 0-50.5-26t-16.5-64q0-13 2-26.5t6-27.5l-58-3q-4 17-6.5 33t-2.5 31q0 41 15 70t43.5 45.5 69.5 16.5q42 0 68.5-15.5t40.5-41.5 19-58.5 5-65.5l-1-87 5-258zm-111-7q-33 0-57 16.5t-37 45-13 65.5q0 29 9 51.5t24.5 40 34.5 31.5 39 26 39 22.5 34 22 24.5 24.5 9.5 29l36-7q0-32-15-54t-37.5-38-48.5-32q-22-14-42.5-29.5t-32.5-35.5-12-48q0-22 5-38.5t17-25.5 31-9q32 0 54.5 21.5t35 60.5 12.5 90l32 63q0-74-6.5-128.5t-22.5-91-43.5-54.5-69.5-18z"/></svg>