<svg width="52.493" height="17.5" viewBox="0 0 52.493 17.5" xmlns="http://www.w3.org/2000/svg"><path transform="translate(0 13.822) scale(.0068359 -.0068359)" d="m372 85 214 43v1242h-186q-110 0-151-38-36-34-82-172-59 0-86 17l38 315h1120l41-315q-32-17-86-17-46 139-75.5 166.5t-64.5 35.5-92 8h-187v-1242l217-43 7-13-15-72h-616l-5 9z"/><path transform="translate(9.3105 13.822) scale(.0068359 -.0068359)" d="m770 813q-57 68-134 68-66 0-159-131-40-57-77-130v-492l251-34 4-14-11-80h-538l-7 9 9 76 133 43v668l-140 61-9 12 9 54 264 106 16-9 19-259q85 219 227 275 32 12 91 12t121-33q-4-134-69-202z"/><path transform="translate(15.142 13.822) scale(.0068359 -.0068359)" d="m266-450q186 281 274 455l-356 887-115 29-7 12 11 80h416l7-10-10-73-111-38 253-730h9q63 155 112 288l84 233q40 116 70 212l-144 26-5 12 12 80h377l7-10-14-82-106-29-296-739q-53-129-110-253l-103-221-107-217q-56 0-108 44-23 19-40 44z"/><path transform="translate(23.304 13.822) scale(.0068359 -.0068359)" d="m125 85 130 43v1288l-158 40-9 14 9 54 302 112 16-9v-1083l388 348-141 29-7 12 12 80h450l5-10-10-73-143-47-337-278 423-477 139-34 5-14-11-80h-448l-7 9 10 76 105 43-332 383-101-84v-299l161-34 7-14-15-80h-448l-4 9z"/><path transform="translate(31.479 13.822) scale(.0068359 -.0068359)" d="m125 85 130 43v1288l-158 40-9 14 9 54 302 112 16-9v-1083l388 348-141 29-7 12 12 80h450l5-10-10-73-143-47-337-278 423-477 139-34 5-14-11-80h-448l-7 9 10 76 105 43-332 383-101-84v-299l161-34 7-14-15-80h-448l-4 9z"/><path transform="translate(39.655 13.822) scale(.0068359 -.0068359)" d="m871 227q52-21 57-74-153-145-308-181-34-8-69-8-210 0-341 148-130 145-130 362 0 236 155 406 71 78 164 123t188.5 45 162-33.5 110.5-90.5q88-112 88-286 0-49-9-85-11-25-411-25-133 0-281 4 2-191 123-308 108-104 244-104t257 107zm-541 397q300 0 438 19 0 107-64 197-70 97-167 97-106 0-183-79-83-83-102-234z"/><path transform="translate(46.662 13.822) scale(.0068359 -.0068359)" d="m770 813q-57 68-134 68-66 0-159-131-40-57-77-130v-492l251-34 4-14-11-80h-538l-7 9 9 76 133 43v668l-140 61-9 12 9 54 264 106 16-9 19-259q85 219 227 275 32 12 91 12t121-33q-4-134-69-202z"/></svg>