<svg width="29.278" height="15.258" viewBox="0 0 29.278 15.258" xmlns="http://www.w3.org/2000/svg"><path transform="translate(0 12.079) scale(.0068359 -.0068359)" d="M451 1393V1326H266V0H191V1326H5V1393Z"/><path transform="translate(2.543 12.079) scale(.0068359 -.0068359)" d="m417 1018v-836q0-44-11-81t-33-64-54.5-42-75.5-15-75.5 13.5-54 38-32.5 58-11 73.5v855h75v-861q0-46 25.5-78t73.5-32q47 0 72.5 36.5t25.5 88.5v846z"/><path transform="translate(5.8379 12.079) scale(.0068359 -.0068359)" d="M70 0V1564H145V0Z"/><path transform="translate(7.3076 12.079) scale(.0068359 -.0068359)" d="m412 183q0-39-11-72.5t-33-58-54.5-38.5-74.5-14h-99v-444h-75v1280q0 39 11 72.5t33 58 54.5 38 75.5 13.5h173zm-75 768h-98q-48 0-73.5-32t-25.5-78v-774h99q47 0 72.5 31.5t25.5 77.5z"/><path transform="translate(10.568 12.079) scale(.0068359 -.0068359)" d="m234 951q-48 0-73.5-32t-25.5-78v-353h99q47 0 72.5 31t25.5 78v354zm173 67v-414q0-40-11-73.5t-33-58-54.5-38-74.5-13.5h-99v-265q0-46 25.5-77.5t73.5-31.5q47 0 72.5 36t25.5 88l74 11q0-43-11-80t-32.5-64-54-42.5-74.5-15.5q-43 0-75.5 14t-54.5 38.5-33 58-11 72.5v672q0 40 11 73.5t33 58 54.5 38 75.5 13.5z"/><path transform="translate(13.692 12.079) scale(.0068359 -.0068359)" d="m417 0h-75v841q0 46-25.5 78t-72.5 32h-99v-951h-75v1018h174q42 0 74.5-13.5t54.5-38 33-58 11-72.5z"/><path transform="translate(16.987 12.079) scale(.0068359 -.0068359)" d="m0 0"/><path transform="translate(18.84 12.079) scale(.0068359 -.0068359)" d="m508 262q0-55-10-106t-35.5-90-69-62.5-109.5-23.5q-62 0-104 22.5t-67.5 60.5-36.5 89.5-11 109.5v859q0 33 1.5 68t8.5 67 23 60.5 44.5 50 73 33.5 109.5 12h183zm-75 1083h-87q-53 0-92-9t-64.5-30.5-37.5-58.5-12-93v-925q0-36 7.5-68.5t25-58 45.5-40.5 70-15q40 0 67.5 14.5t44.5 39.5 25 58 8 70z"/><path transform="translate(22.859 12.079) scale(.0068359 -.0068359)" d="m417 0h-75v841q0 46-25.5 78t-72.5 32h-99v-951h-75v1018h174q42 0 74.5-13.5t54.5-38 33-58 11-72.5z"/><path transform="translate(26.154 12.079) scale(.0068359 -.0068359)" d="m234 951q-48 0-73.5-32t-25.5-78v-353h99q47 0 72.5 31t25.5 78v354zm173 67v-414q0-40-11-73.5t-33-58-54.5-38-74.5-13.5h-99v-265q0-46 25.5-77.5t73.5-31.5q47 0 72.5 36t25.5 88l74 11q0-43-11-80t-32.5-64-54-42.5-74.5-15.5q-43 0-75.5 14t-54.5 38.5-33 58-11 72.5v672q0 40 11 73.5t33 58 54.5 38 75.5 13.5z"/></svg>