<svg width="90.336" height="19.2" viewBox="0 0 90.336 19.2" xmlns="http://www.w3.org/2000/svg"><path transform="translate(0 15.04) scale(.016 -.016)" d="m341-15q-93 0-149 36t-81.5 98-25.5 139v435h78v-426q0-111 49.5-161.5t128.5-50.5q80 0 129.5 51t49.5 161v426h78v-435q0-77-25.5-139t-81.5-98-150-36z"/><path transform="translate(10.928 15.04) scale(.016 -.016)" d="m275-12q-44 0-80 4.5t-63.5 11-47.5 12.5v747l75 13v-287q18 13 54.5 26.5t84.5 13.5q75 0 127-34.5t79.5-95.5 27.5-140q0-84-32-144.5t-90-93.5-135-33zm-1 67q54 0 94.5 24t62.5 69.5 22 110.5q0 42-8.5 79t-28 65-51 43.5-76.5 15.5q-43 0-78-14.5t-52-28.5v-351q14-4 42.5-8.5t72.5-4.5z"/><path transform="translate(20.288 15.04) scale(.016 -.016)" d="m286-10q-78 0-123.5 29.5t-65 83.5-19.5 125v290h75v-270q0-70 14-112t45.5-60.5 83.5-18.5q42 0 74.5 4.5t42.5 7.5v449h74v-500q-30-8-80.5-18t-120.5-10z"/><path transform="translate(29.424 15.04) scale(.016 -.016)" d="m84 0v500q31 8 81 18t120 10q81 0 126-30t63.5-83.5 18.5-124.5v-290h-75v269q0 71-13 113t-44 61-86 19q-42 0-74-5t-42-8v-449z"/><path transform="translate(38.56 15.04) scale(.016 -.016)" d="m253-11q-66 0-104 23t-53.5 69-15.5 115v472l75 13v-163h203v-63h-203v-265q0-55 12.5-84t36-39.5 55.5-10.5q38 0 63.5 9t40.5 16l16-61q-15-9-49.5-20t-76.5-11z"/><path transform="translate(44.848 15.04) scale(.016 -.016)" d="m286-10q-78 0-123.5 29.5t-65 83.5-19.5 125v290h75v-270q0-70 14-112t45.5-60.5 83.5-18.5q42 0 74.5 4.5t42.5 7.5v449h74v-500q-30-8-80.5-18t-120.5-10z"/><path transform="translate(57.648 15.04) scale(.016 -.016)" d="m242-15q-81 0-134.5 18t-73.5 30l25 66q21-12 67.5-29t115.5-17q79 0 122 28.5t43 90.5q0 48-23.5 75.5t-62 45-84.5 35.5q-56 22-97.5 46.5t-64 60-22.5 89.5q0 60 27 101t78 62 121 21q58 0 107.5-14.5t76.5-31.5l-26-65q-29 20-70.5 32t-88.5 12q-64 0-105-26t-41-85q0-40 20-65t55-42 79-35q57-22 102.5-46.5t72.5-63 27-103.5q0-63-30-105t-85-63.5-131-21.5z"/><path transform="translate(66.032 15.04) scale(.016 -.016)" d="m241-11q-56 0-100 16t-69 52-25 95q0 57 28 92.5t77.5 51.5 111.5 16q28 0 59-5t39-9v30q0 34-8.5 65.5t-34.5 51.5-79 20q-55 0-84-8t-43-13l-10 64q18 8 55 15t87 7q71 0 112.5-25t60-68.5 18.5-99.5v-325q-21-5-75-14t-120-9zm11 64q35 0 63 2.5t47 6.5v174q-10 5-34 10t-62 5q-32 0-65-7t-55.5-28-22.5-63q0-56 35-78t94-22z"/><path transform="translate(74.256 15.04) scale(.016 -.016)" d="m84 0v500q31 8 81 18t120 10q81 0 126-30t63.5-83.5 18.5-124.5v-290h-75v269q0 71-13 113t-44 61-86 19q-42 0-74-5t-42-8v-449z"/><path transform="translate(83.392 15.04) scale(.016 -.016)" d="m195-12q-67 0-104.5 11.5t-50.5 17.5l18 66q11-4 45-17t92-13q55 0 89 17t34 59q0 27-12 43.5t-38.5 30.5-72.5 32q-39 16-72 34t-53.5 46-20.5 72q0 43 22 75t62.5 50 96.5 18q52 0 88-9t51-16l-17-65q-13 7-42 16.5t-82 9.5q-42 0-73-17.5t-31-55.5q0-27 13-43.5t39-29.5 64-28q43-17 77.5-35.5t55.5-47.5 21-77q0-47-24-79.5t-68.5-48.5-106.5-16z"/></svg>