<svg width="110.62" height="19.84" viewBox="0 0 110.62 19.84" xmlns="http://www.w3.org/2000/svg"><path transform="translate(0 15.92) scale(.016 -.016)" d="m206 322q0-67 27-116t77.5-75.5 120.5-26.5q71 0 121 26.5t77 75.5 27 116v428h132v-433q0-99-45-173.5t-125-116-187-41.5q-106 0-186.5 41.5t-125.5 116-45 173.5v433h132z"/><path transform="translate(13.792 15.92) scale(.016 -.016)" d="m42 566h130l34-204v-362h-130v381zm389 14q80 0 136-32t85.5-91.5 29.5-143.5v-313h-130v292q0 89-41.5 134.5t-121.5 45.5q-55 0-96.5-24.5t-64-68.5-22.5-103l-46 25q9 88 46 150t95 95.5 130 33.5z"/><path transform="translate(25.68 15.92) scale(.016 -.016)" d="m69 770h130v-399l-20-37v-105l20-42v-187h-130zm78-487q19 90 63 156.5t108.5 103.5 143.5 37q83 0 147-37.5t100-104 36-155.5q0-88-36-155t-100-104.5-147-37.5q-79 0-143.5 37t-108.5 104-63 156zm466 0q0 57-23.5 100.5t-64.5 68-94 24.5-99.5-24.5-81.5-68-57-100.5q22-57 57-100.5t81.5-68 99.5-24.5 94 24.5 64.5 68 23.5 100.5z"/><path transform="translate(38.224 15.92) scale(.016 -.016)" d="m382-14q-103 0-180.5 37.5t-121 104.5-43.5 155q0 89 43.5 155.5t121 104 180.5 37.5 180.5-37.5 121-104 43.5-155.5q0-88-43.5-155t-121-104.5-180.5-37.5zm0 102q66 0 113.5 24t73.5 67.5 26 103.5-26 103.5-73.5 67.5-113.5 24q-65 0-113-24t-74-67.5-26-103.5 26-103.5 74-67.5 113-24z"/><path transform="translate(50.448 15.92) scale(.016 -.016)" d="m306-14q-78 0-132.5 32t-83.5 92-29 143v313h130v-293q0-88 40.5-133.5t116.5-45.5q55 0 94.5 24t61.5 68.5 22 103.5l45-25q-8-87-44-149.5t-93-96-128-33.5zm253 14-33 204v362h130v-382l33-184z"/><path transform="translate(62.16 15.92) scale(.016 -.016)" d="m42 566h130l34-204v-362h-130v381zm389 14q80 0 136-32t85.5-91.5 29.5-143.5v-313h-130v292q0 89-41.5 134.5t-121.5 45.5q-55 0-96.5-24.5t-64-68.5-22.5-103l-46 25q9 88 46 150t95 95.5 130 33.5z"/><path transform="translate(74.048 15.92) scale(.016 -.016)" d="m599 0-22 215 29 67-28 77 42 411h134l-51-479 29-291zm38 283q-19-89-63-156t-108.5-104-143.5-37q-83 0-147 37.5t-100 104.5-36 155q0 89 36 155.5t100 104 147 37.5q79 0 143.5-37t109-103.5 62.5-156.5zm-466 0q0-57 23.5-100.5t64.5-68 94-24.5q54 0 100 24.5t81.5 68 56.5 100.5q-21 57-56.5 100.5t-81.5 68-100 24.5q-53 0-94-24.5t-64.5-68-23.5-100.5z"/><path transform="translate(86.656 15.92) scale(.016 -.016)" d="m378-14q-99 0-176 37.5t-121 104.5-44 156q0 88 41.5 154.5t115 104 168.5 37.5 164.5-42.5 107.5-119.5 38-181h-533v99h468l-65-37q-3 56-26.5 96t-63 61.5-93.5 21.5q-57 0-99.5-23t-66.5-64.5-24-98.5q0-63 28.5-109t81-70.5 124.5-24.5q65 0 133 20.5t120 57.5v-94q-52-40-126.5-63t-151.5-23z"/><path transform="translate(98.016 15.92) scale(.016 -.016)" d="m599 0-22 215 29 67-28 77 42 411h134l-51-479 29-291zm38 283q-19-89-63-156t-108.5-104-143.5-37q-83 0-147 37.5t-100 104.5-36 155q0 89 36 155.5t100 104 147 37.5q79 0 143.5-37t109-103.5 62.5-156.5zm-466 0q0-57 23.5-100.5t64.5-68 94-24.5q54 0 100 24.5t81.5 68 56.5 100.5q-21 57-56.5 100.5t-81.5 68-100 24.5q-53 0-94-24.5t-64.5-68-23.5-100.5z"/></svg>