<svg width="91.352" height="20.938" viewBox="0 0 91.352 20.938" xmlns="http://www.w3.org/2000/svg"><path transform="translate(0 16.484) scale(.0078125 -.0078125)" d="m1152 31q-140 88-280 178 28 95 45 198l-340-376q-86 76-218 135t-282 111q199 133 249 305 14 47 14 96 0 131-104.5 286t-104.5 292q0 216 270 370 52-30 108-60-158-108-158-197 0-22 11-43 50-105 294-184 0-10 0-20 0-313-186-627 160-102 236-102 72 0 231 193 6 90 6 223t-17 328q1 9 1 17 0 45-41 73.5t-85 62.5l239 264q106-67 289-175-65-87-73.5-171t-8.5-173l-6-390q0-18 0-34 0-123 27.5-190t97.5-94z"/><path transform="translate(10.984 16.484) scale(.0078125 -.0078125)" d="m404 934 117 146 319-231-30-118-13-322q0-3 0-6 0-49 30-80.5t68-47.5l-200-244q-74 58-113.5 103t-39.5 185q0 10 0 21l7 370q0 42-128 140l-40-63-19-378q0-3 0-6 0-49 30-80.5t69-47.5l-200-244-211 171q57 69 57 138l8 454q0 48-74 96l151 190z"/><path transform="translate(18.242 16.484) scale(.0078125 -.0078125)" d="m29 890 151 190 224-105q-12-41-26-80t-14-80l-14-406q0-5 0-9 0-47 30-78t69-47l-200-244-212 171q58 69 58 138l7 454q0 48-73 96zm30 199 80 395 297-119z"/><path transform="translate(21.914 16.484) scale(.0078125 -.0078125)" d="m586 1202q-75 45-176 57-18-27-53-77 19-41 29-101h163v-252h-148q0-94-3.5-190.5t-5.5-180.5q-5-190-275-853-37 37-82 49 69 246 82.5 529.5t13.5 471.5-4 336q-2 81-81 145 86 91 157.5 180t157.5 181q93-11 198.5-32t206.5-41q-45-57-90-112t-90-110z"/><path transform="translate(26.25 16.484) scale(.0078125 -.0078125)" d="m395 934 130 132q201-139 272-282l-160-214q-27 79-73.5 139t-154.5 123l-33-45-19-341q-3-52 66-108t107-72l-166-235-310 241q56 67 58 138l-2 384q-3 48-74 96l151 190z"/><path transform="translate(32.586 16.484) scale(.0078125 -.0078125)" d="m37 759 390 317 442-207q-78-68-79-153l-4-331q0-34 35.5-77t67.5-69l-202-208-155 159q-56-45-113-82.5t-102-78.5q-150 56-280 173 37 47 43 137l-3 302q0 4 0 8 0 59-40 110zm343 77q-58-87-58-155v-245q0-75 27-107 23-33 42.5-59t62.5-38l82 59v460z"/><path transform="translate(39.789 16.484) scale(.0078125 -.0078125)" d="m546 259q-172-190-222-244-174 132-294 225 109 96 111 204l3 275h-94l95 180 1 150q0 65-5.5 155t-44.5 152l330 179q-25-103-30-234l160 160 195-246-237-280h198l-113-216h-210l-3-282q0-75 13-93t147-85zm-155 921q-1-39-1-78v-167h49l112 131q-20 131-104 161z"/><path transform="translate(45.344 16.484) scale(.0078125 -.0078125)" d="m535 275-223-244q-73 56-147 112.5t-146 112.5q109 96 111 204l4 415h-87v79q136 195 344 505l51-8q-23-109-40.5-179.5t-21.5-175.5h176v-216h-179l-2-426q0-75 13.5-85t146.5-94z"/><path transform="translate(49.875 16.484) scale(.0078125 -.0078125)" d="m520 890 151 190 224-105q-11-41-25.5-80t-14.5-80l-14-406q0-3 0-6 0-49 30-80.5t69-47.5l-200-244-218 190-260-190-211 171q58 69 58 138l7 454q0 48-74 96l152 190 223-105q-11-41-25.5-80t-14.5-80l-13-406q-2-48 36-101 12-15 32-15 50 0 155 91l7 410q0 48-74 96z"/><path transform="translate(57.523 16.484) scale(.0078125 -.0078125)" d="m395 934 130 132q201-139 272-282l-160-214q-27 79-73.5 139t-154.5 123l-33-45-19-341q-3-52 66-108t107-72l-166-235-310 241q56 67 58 138l-2 384q-3 48-74 96l151 190z"/><path transform="translate(63.859 16.484) scale(.0078125 -.0078125)" d="m1009 1087q-114 97-232 135-7-94-7-237t31-330l-316-141q80-83 213-125 73-23 157.5-23t173.5 15l-174-366q-291 95-460 184.5t-252.5 210.5-100.5 292q-11 107-11 219.5t4 208.5l822 405 240-174zm-512 125q-165-79-165-290 0-191 94-335 64 42 79 167 6 49 6 152.5t-14 305.5z"/><path transform="translate(72.297 16.484) scale(.0078125 -.0078125)" d="m80 801q233 156 387 283 77-33 155-118 169-181 200-378 4-23 4-44 0-66-37-107l-332-423-428 211q68 141 68 244l-2 233q-3 72-15 99zm269 35-3-425q9-49 69-76.5t79.5-27.5 26.5 2q88 20 88 111 0 21-5 47-34 165-98.5 249.5t-156.5 119.5z"/><path transform="translate(79.047 16.484) scale(.0078125 -.0078125)" d="m80 801q233 156 387 283 77-33 155-118 169-181 200-378 4-23 4-44 0-66-37-107l-332-423-428 211q68 141 68 244l-2 233q-3 72-15 99zm269 35-3-425q9-49 69-76.5t79.5-27.5 26.5 2q88 20 88 111 0 21-5 47-34 165-98.5 249.5t-156.5 119.5z"/><path transform="translate(85.797 16.484) scale(.0078125 -.0078125)" d="m546 259q-172-190-222-244-174 132-294 225 109 96 111 204l3 275h-94l95 180 1 150q0 65-5.5 155t-44.5 152l330 179q-25-103-30-234l160 160 195-246-237-280h198l-113-216h-210l-3-282q0-75 13-93t147-85zm-155 921q-1-39-1-78v-167h49l112 131q-20 131-104 161z"/></svg>