<svg width="59.256" height="19.2" viewBox="0 0 59.256 19.2" xmlns="http://www.w3.org/2000/svg"><path transform="translate(0 15.2) scale(.008 -.008)" d="m663-26q-168 0-290 82t-187.5 220.5-65.5 307.5v816h140v-816q0-128 47-235t137-171 219-64q132 0 221.5 64.5t135.5 171.5 46 234v816h140v-816q0-127-37.5-237.5t-108-194.5-171-131-226.5-47z"/><path transform="translate(10.608 15.2) scale(.008 -.008)" d="m120 0v1e3h140v-138q53 76 138 121t185 45q58 0 112-15l-57-139q-42 13-82 13-81 0-148.5-40t-107.5-107-40-149v-591z"/><path transform="translate(16.328 15.2) scale(.008 -.008)" d="m616 1028q146 0 265.5-71t190.5-190.5 71-265.5q0-109-41-204.5t-113.5-168-168-113.5-204.5-41q-124 0-214 59t-142 154v-187h-140v1500h140v-685q52 95 142 154t214 59zm-1-917q107 0 194 52.5t139 141.5 52 196q0 110-53 198.5t-140.5 140.5-191.5 52q-106 0-183.5-53t-119-142-41.5-196q0-109 42-197.5t119.5-140.5 182.5-52z"/><path transform="translate(25.952 15.2) scale(.008 -.008)" d="m942 1e3h140v-1e3h-140l-5 186q-49-95-137-153.5t-210-58.5q-110 0-206 41.5t-169 114.5-114 169-41 206q0 108 40.5 203t112 167 166 112.5 202.5 40.5q125 0 218-59.5t148-155.5zm-355-890q107 0 184 52.5t118.5 141.5 41.5 196q0 110-42 198.5t-119 140.5-183 52-193.5-52.5-139-141.5-51.5-197q0-109 53-197.5t140.5-140.5 190.5-52z"/><path transform="translate(35.248 15.2) scale(.008 -.008)" d="m992 619v-619h-140v591q0 82-40 149t-107 107-149 40q-81 0-148.5-40t-107.5-107-40-149v-591h-140v1e3h140v-138q53 76 138 121t185 45q113 0 206-55t148-148 55-206z"/><path transform="translate(43.824 15.2) scale(.008 -.008)" d="m120 1e3h140v-1e3h-140zm71 175q-34 0-57.5 22.5t-23.5 56.5 23.5 56.5 57.5 22.5q33 0 56.5-22.5t23.5-56.5-23-56.5-57-22.5z"/><path transform="translate(46.864 15.2) scale(.008 -.008)" d="m429-19q-82 2-160 30t-136 76-83 109l121 52q16-39 59.5-71.5t99.5-52 111-19.5q61 0 114 20t86.5 57.5 33.5 88.5q0 55-36 86.5t-91 50-113 35.5q-106 29-187 64t-126.5 89.5-45.5 140.5q0 91 51.5 157.5t135 103 178.5 36.5q122 0 222.5-53t145.5-141l-113-67q-18 41-57 71t-88.5 47-100.5 18q-64 1-119-18.5t-88.5-57.5-33.5-93 33-83.5 89.5-46 127.5-40.5q91-29 171-66t129-92 48-139q0-90-54-157t-140-102.5-184-32.5z"/><path transform="translate(53.736 15.2) scale(.008 -.008)" d="m631 860h-239l-1-860h-140l1 860h-181v140h181l-1 314h140l1-314h239z"/></svg>