<svg width="104.24" height="20" viewBox="0 0 104.24 20" xmlns="http://www.w3.org/2000/svg"><path transform="translate(0 15.296) scale(.016 -.016)" d="m173 131q227 198 407 529l108-107q-146-274-366-479-69-65-138-112l-105 97q39 26 61 45l-102 89q61 196 164 351-34-16-113-59l-49 115q100 57 148 76t84 31l111-118q-152-237-210-458z"/><path transform="translate(10.48 15.296) scale(.016 -.016)" d="m272 63q-79-62-182-90l-124 115q0 79 24 155t71 137 116.5 101.5 160.5 48.5l66-101q12 19 51 66l98-84q-99-129-164-276l-3-2q58 15 136 51.5t99 47.5l22-101q-59-43-196-111-54-27-98-43zm-166 54q107 29 195 142 26 57 39 142-103-10-169-91-65-80-65-193z"/><path transform="translate(20.336 15.296) scale(.016 -.016)" d="m501 339q81 65 180 118l121-95q-32-133-106-229 97 33 226 99l21-101q-41-27-125-69-144-71-199-89l-124 88q124 149 146 242-105-51-198-118-49-110-121-212l-115 79q48 64 81 124 53 98 65 154-96-45-177-102-28-19-59-41-45-106-79-214l-119 77q34 115 106 259 65 129 136 218l101-73q-36-49-64-101 91 75 195 131l121-95z"/><path transform="translate(35.008 15.296) scale(.016 -.016)" d="m199 364q66 59 175 120l121-95q-8-80-26-138t-59-100q108 35 205 81l21-101q-127-71-354-127-70-18-141-31l-93 85q-86-194-128-342l-114 77q123 370 345 744l101-74zm-139-279q108 17 158 37 72 34 114 144 14 34 19 70-102-54-187-116-29-21-62-46z"/><path transform="translate(44.768 15.296) scale(.016 -.016)" d="m243 566q-23 24-23 58t23.5 57.5 57.5 23.5 57.5-23.5 23.5-57.5-23.5-57.5-57.5-23.5-58 23zm-151-440q102 31 245 106l21-101q-97-63-234-123-46-20-90-35l-115 106q49 134 176 334 38 60 74 105l99-73q-73-100-142-241-20-42-34-78z"/><path transform="translate(50.08 15.296) scale(.016 -.016)" d="m38 448q48 65 120 135l93-72q-11-46-19-67 129 14 186 28t99 25l28-119q-41-12-86-21-69-109-115-231 166 57 245 106l22-101q-92-60-241-123-48-20-92-35l-106 106q65 149 139 257-70-6-124-8-16-30-86-150l-74-47-95 56q83 90 112 126t50 62q-29 32-56 73z"/><path transform="translate(59.424 15.296) scale(.016 -.016)" d="m361 113q-96-111-253-140l-142 119q0 96 38 190 48 118 158 191 76 51 165 63l159-136q-17-108-58-188 72 4 163 20l22-101q-130-54-204-73zm-261-4q114 26 190 141 32 49 46 94t15 72q-81-11-154-86-91-93-97-221z"/><path transform="translate(74.592 15.296) scale(.016 -.016)" d="m607 386q-106 95-198 151-102-53-181-180-82-131-92-266 157 43 268 213 37 58 65 132l138-50q-67-188-175-291-117-112-302-147l-148 136q29 308 253 496 78 66 183 115 133-68 234-174z"/><path transform="translate(85.568 15.296) scale(.016 -.016)" d="m195 348q100 79 207 136l121-95q-33-142-116-256 100 34 227 99l21-101q-41-27-125-69-144-71-199-89l-124 88q60 72 100.5 142.5t52.5 123.5q-128-60-244-140-46-110-78-214l-119 77q34 115 106 259 65 129 136 218l101-73q-35-47-67-106z"/><path transform="translate(95.632 15.296) scale(.016 -.016)" d="m201 193q-47 0-74 7-16-39-20-97 172 10 332 77 54 22 104 52l21-101q-93-59-220-104-135-48-255-54l-124 115q0 138 75 252 54 79 122.5 125t131.5 66l169-140q-25-104-95-151t-167-47zm-32 97q58 0 101 32 50 38 50 106-101-55-151-138z"/></svg>