<svg width="103.12" height="19.264" viewBox="0 0 103.12 19.264" xmlns="http://www.w3.org/2000/svg"><path transform="translate(0 14.688) scale(.016 -.016)" d="m336-5q-41 0-62 46l-247 599q-3 8-3 17 0 20 12 33t33 13q30 0 43-31l235-586 235 586q13 31 43 31 21 0 33-13t12-33q0-9-3-17l-247-599q-21-46-62-46z"/><path transform="translate(11.104 14.688) scale(.016 -.016)" d="m209-10q-43 0-80.5 18t-60 51.5-22.5 80.5q0 71 56.5 116.5t173.5 45.5h121v8q0 67-33 95.5t-101 28.5q-42 0-73.5-7.5t-59.5-16.5q-8-2-13-2-15 0-26 11t-11 27q0 27 26 38 35 15 77.5 25.5t95.5 10.5q73 0 119-29t68-74 22-94v-283q0-19-13.5-32t-32.5-13-32 13-13 32v26q-27-28-72-52t-116-24zm34 80q47 0 88 23t66 52v84h-109q-70 0-110.5-18t-40.5-61q0-32 22.5-56t83.5-24z"/><path transform="translate(20.096 14.688) scale(.016 -.016)" d="m124-5q-19 0-32 13t-13 32v429q0 19 13 32.5t32 13.5 32.5-13.5 13.5-32.5v-43q27 36 66 65t91 29h5q19 0 31.5-13t12.5-32-13-31-33-12h-5q-49 0-89-24.5t-66-63.5v-304q0-19-13.5-32t-32.5-13z"/><path transform="translate(26.224 14.688) scale(.016 -.016)" d="m307-10q-122 0-190.5 69.5t-68.5 195.5q0 68 25 128.5t78 98.5 136 38q77 0 130-35.5t80.5-92.5 27.5-124q0-19-12.5-32t-33.5-13h-339q8-67 51-107.5t124-40.5q45 0 76 8.5t59 22.5q8 4 18 4 16 0 28-11t12-28q0-12-7.5-21.5t-18.5-15.5q-33-19-71.5-31.5t-103.5-12.5zm-167 307h295q-3 52-26.5 84t-56.5 47-65 15-65-15-56-47-26-84z"/><path transform="translate(35.28 14.688) scale(.016 -.016)" d="m124-5q-19 0-32 13t-13 32v649q0 20 13 33t32 13q20 0 33-13t13-33v-649q0-19-13-32t-33-13z"/><path transform="translate(39.264 14.688) scale(.016 -.016)" d="m209-10q-43 0-80.5 18t-60 51.5-22.5 80.5q0 71 56.5 116.5t173.5 45.5h121v8q0 67-33 95.5t-101 28.5q-42 0-73.5-7.5t-59.5-16.5q-8-2-13-2-15 0-26 11t-11 27q0 27 26 38 35 15 77.5 25.5t95.5 10.5q73 0 119-29t68-74 22-94v-283q0-19-13.5-32t-32.5-13-32 13-13 32v26q-27-28-72-52t-116-24zm34 80q47 0 88 23t66 52v84h-109q-70 0-110.5-18t-40.5-61q0-32 22.5-56t83.5-24z"/><path transform="translate(52.416 14.688) scale(.016 -.016)" d="m142-5q-19 0-32 13t-13 32v612q0 19 13 32.5t32 13.5h233q95 0 155-27t88.5-72.5 28.5-103.5-32.5-108-98.5-73q42-11 67-39.5t37.5-64.5 16.5-69.5 4-54.5v-46q0-19-13-32t-32-13q-21 0-33.5 12.5t-12.5 32.5v30q0 25-3.5 59t-17.5 67-45.5 54.5-88.5 21.5h-207v-232q0-19-13.5-32t-32.5-13zm46 363h181q84 0 135.5 33t51.5 97q0 37-17 65t-59 43.5-116 15.5h-176z"/><path transform="translate(63.808 14.688) scale(.016 -.016)" d="m304-10q-77 0-135 33.5t-89.5 93-31.5 138.5 31.5 138.5 89.5 93 135 33.5 134.5-33.5 89.5-93 32-138.5-32-138.5-89.5-93-134.5-33.5zm0 83q38 0 76 18t63.5 58.5 25.5 106.5-25.5 106-63.5 57.5-76 17.5-76.5-17.5-63.5-57.5-25-106 25-106.5 63.5-58.5 76.5-18z"/><path transform="translate(73.536 14.688) scale(.016 -.016)" d="m253-10q-57 0-97 26.5t-61 71.5-21 98v284q0 19 13.5 32t32.5 13 32-13 13-32v-274q0-57 26-89.5t84-32.5q54 0 94 29.5t70 66.5v300q0 19 13.5 32t32.5 13 32-13 13-32v-429q0-19-13-32.5t-32-13.5-32.5 13.5-13.5 32.5v41q-31-34-75-63t-111-29z"/><path transform="translate(83.28 14.688) scale(.016 -.016)" d="m124-5q-19 0-32 13t-13 32v429q0 20 13 33t32 13 32.5-13 13.5-33v-41q32 35 75.5 63.5t110.5 28.5q57 0 97-26.5t61-71 21-98.5v-284q0-19-13.5-32t-32.5-13-32 13-13 32v274q0 57-25.5 89.5t-84.5 32.5q-54 0-94-29t-70-67v-300q0-19-13.5-32t-32.5-13z"/><path transform="translate(93.024 14.688) scale(.016 -.016)" d="m290-10q-60 0-115.5 31t-91 90-35.5 144 35.5 144 91 90 115.5 31q53 0 95-20t76-56v245q0 20 13.5 33t32.5 13 32-13 13-33v-649q0-19-13-32t-32-13-32.5 13-13.5 32v26q-34-36-76-56t-95-20zm13 85q49 0 89 21.5t69 53.5v210q-29 32-69 53.5t-89 21.5q-71 0-117.5-45.5t-46.5-134.5q0-88 46.5-134t117.5-46z"/></svg>