<svg width="72.945" height="25" viewBox="0 0 72.945 25" xmlns="http://www.w3.org/2000/svg"><path transform="translate(0 16.406) scale(.0078125 -.0078125)" d="M639 221 1068 1456H1277L738 0H589ZM238 1456 663 221 716 0H567L29 1456Z"/><path transform="translate(10.188 16.406) scale(.0078125 -.0078125)" d="m779 185v557q0 96-57.5 153.5t-170.5 57.5q-70 0-122.5-24t-82-63-29.5-84h-185q0 78 53 151.5t149.5 121 227.5 47.5q118 0 208.5-40t142-120.5 51.5-201.5v-504q0-54 9.5-115t28.5-105v-16h-193q-14 32-22 85.5t-8 99.5zm32 471 2-130h-187q-159 0-245-49.5t-86-150.5q0-77 52-130.5t155-53.5q85 0 150 36t103.5 88 41.5 101l79-89q-7-42-38-93t-82.5-97.5-122-77-158.5-30.5q-110 0-192.5 43t-128 115.5-45.5 162.5q0 174 132 264.5t355 90.5z"/><path transform="translate(18.891 16.406) scale(.0078125 -.0078125)" d="M947 152V0H160V152ZM918 951 202 0H89V136L800 1082H918ZM836 1082V929H97V1082Z"/><path transform="translate(26.828 16.406) scale(.0078125 -.0078125)" d="m342 1082v-1082h-186v1082zm-200 287q0 45 27.5 76t81.5 31q53 0 81.5-31t28.5-76q0-43-28.5-73.5t-81.5-30.5q-54 0-81.5 30.5t-27.5 73.5z"/><path transform="translate(30.719 16.406) scale(.0078125 -.0078125)" d="m326 912v-912h-185v1082h180zm338 176-1-172q-23 5-43.5 6.5t-46.5 1.5q-86 0-144-35t-90.5-95.5-40.5-139.5l-52-30q0 130 35 238.5t109.5 174 191.5 65.5q20 0 46-4.5t36-9.5z"/><path transform="translate(36.141 16.406) scale(.0078125 -.0078125)" d="m325 867v-867h-186v1082h176zm-38-285-86 3q1 149 50.5 265.5t146.5 184 242 67.5q152 0 251-89t99-292v-721h-185v712q0 85-28.5 136t-80.5 74.5-122 23.5q-82 0-137-29t-88-80-47.5-116.5-14.5-138.5zm701 102-124-38q2 119 51.5 223t145 168.5 233.5 64.5q116 0 197-41t123.5-127 42.5-223v-711h-186v713q0 91-28.5 141.5t-80 71-122.5 20.5q-61 0-108-21t-79-57.5-48.5-83.5-16.5-100z"/><path transform="translate(50.172 16.406) scale(.0078125 -.0078125)" d="m779 185v557q0 96-57.5 153.5t-170.5 57.5q-70 0-122.5-24t-82-63-29.5-84h-185q0 78 53 151.5t149.5 121 227.5 47.5q118 0 208.5-40t142-120.5 51.5-201.5v-504q0-54 9.5-115t28.5-105v-16h-193q-14 32-22 85.5t-8 99.5zm32 471 2-130h-187q-159 0-245-49.5t-86-150.5q0-77 52-130.5t155-53.5q85 0 150 36t103.5 88 41.5 101l79-89q-7-42-38-93t-82.5-97.5-122-77-158.5-30.5q-110 0-192.5 43t-128 115.5-45.5 162.5q0 174 132 264.5t355 90.5z"/><path transform="translate(58.875 16.406) scale(.0078125 -.0078125)" d="m594 1082v-142h-585v142zm-387 263h185v-1077q0-55 17-83t44-37 58-9q23 0 48.5 4.5t38.5 7.5l1-151q-22-7-57.5-13.5t-85.5-6.5q-68 0-125 27t-90.5 90.5-33.5 171.5z"/><path transform="translate(64.109 16.406) scale(.0078125 -.0078125)" d="m326 851v-851h-185v1082h175zm-44-269-77 3q2 149 57 265.5t153.5 184 229.5 67.5q107 0 184.5-39t120-125.5 42.5-228.5v-709h-186v711q0 85-25 136.5t-73 75-118 23.5q-69 0-125.5-29t-97-80-63-116.5-22.5-138.5z"/></svg>