<svg width="92.4" height="18.9" viewBox="0 0 92.4 18.9" xmlns="http://www.w3.org/2000/svg"><path transform="translate(0 15.4) scale(.014 -.014)" d="M262 0 38 800H118L300 138L482 800H562L338 0Z"/><path transform="translate(8.4 15.4) scale(.014 -.014)" d="m289 0v596l47-47h-173v69h201v-618zm-175 0v69h425v-69zm191 732q-38 0-52.5 13.5t-14.5 50.5q0 36 14.5 49.5t52.5 13.5q39 0 53.5-13.5t14.5-49.5q0-37-14.5-50.5t-53.5-13.5z"/><path transform="translate(16.8 15.4) scale(.014 -.014)" d="m318-14q-93 0-147 31t-77 102-23 190q0 120 23.5 191t78 101.5 149.5 30.5q52 0 88.5-10.5t66-36 57.5-70.5l-63-37q-22 33-42 51.5t-45 26-62 7.5q-67 0-105.5-23t-54.5-78-16-153q0-96 15.5-151.5t53-79 103.5-23.5q37 0 62.5 8t47 26.5 44.5 52.5l62-38q-29-44-59-70t-67-37-90-11z"/><path transform="translate(25.2 15.4) scale(.014 -.014)" d="m365-14q-67 0-107 23.5t-57.5 74-17.5 132.5v338h-124v69h124v177h75v-177h208v-69h-208v-338q0-88 23.5-124.5t83.5-36.5q36 0 56.5 5.5t32 19 19.5 38.5l71-24q-14-41-35-64.5t-55.5-33.5-88.5-10z"/><path transform="translate(33.6 15.4) scale(.014 -.014)" d="m300-14q-85 0-135 31t-71 102-21 190q0 120 21 191t71 101.5 135 30.5q86 0 135.5-30.5t71-101.5 21.5-191q0-119-21.5-190t-71-102-135.5-31zm0 69q59 0 92 23.5t47 79 14 151.5q0 98-14 153t-47 78-92 23q-58 0-91.5-23t-47-78-13.5-153q0-96 13.5-151.5t47-79 91.5-23.5z"/><path transform="translate(42 15.4) scale(.014 -.014)" d="m113 0v618h75v-94q12 27 35.5 51.5t56.5 40.5 72 16q51 0 85-12.5t58-41.5 44-80l-67-30q-13 37-28 57.5t-36.5 29-55.5 8.5q-47 0-78.5-20.5t-50.5-53.5-27-71.5-8-73.5v-344z"/><path transform="translate(58.8 15.4) scale(.014 -.014)" d="M48 0 62 800H134L300 369L466 800H539L553 0H478L467 608L334 251H266L134 608L123 0Z"/><path transform="translate(67.2 15.4) scale(.014 -.014)" d="m300-14q-85 0-135 31t-71 102-21 190q0 120 21 191t71 101.5 135 30.5q86 0 135.5-30.5t71-101.5 21.5-191q0-119-21.5-190t-71-102-135.5-31zm0 69q59 0 92 23.5t47 79 14 151.5q0 98-14 153t-47 78-92 23q-58 0-91.5-23t-47-78-13.5-153q0-96 13.5-151.5t47-79 91.5-23.5z"/><path transform="translate(75.6 15.4) scale(.014 -.014)" d="m86 0v618h75v-45q27 30 65 44.5t102 14.5q76 0 119-22t61-74.5 18-143.5v-392h-75v392q0 65-11.5 102.5t-38 53-73.5 15.5q-66 0-102.5-13t-50.5-47.5-14-99.5v-403z"/><path transform="translate(84 15.4) scale(.014 -.014)" d="m300-14q-85 0-135 31t-71 102-21 190q0 120 21 191t71 101.5 135 30.5q86 0 135.5-30.5t71-101.5 21.5-191q0-119-21.5-190t-71-102-135.5-31zm0 69q59 0 92 23.5t47 79 14 151.5q0 98-14 153t-47 78-92 23q-58 0-91.5-23t-47-78-13.5-153q0-96 13.5-151.5t47-79 91.5-23.5z"/></svg>