<svg width="37.814" height="18.886" viewBox="0 0 37.814 18.886" xmlns="http://www.w3.org/2000/svg"><path transform="translate(0 14.196) scale(.014 -.014)" d="m511 700-160-453q-16-46-29.5-97.5t-16.5-66.5h-18q-3 15-14.5 66.5t-25.5 97.5l-144 453h-100l226-700h130l252 700z"/><path transform="translate(8.596 14.196) scale(.014 -.014)" d="m291-12q-121 0-181 70.5t-60 199.5 60 199.5 181 70.5q122 0 182-70.5t60-199.5-60-199.5-182-70.5zm136 270q0 202-135 202-73 0-104.5-55.5t-31.5-146.5 31.5-146.5 104.5-55.5q135 0 135 202z"/><path transform="translate(16.758 14.196) scale(.014 -.014)" d="m418 75 20-61q-24-10-61.5-18t-78.5-8q-122 0-185 68t-63 202 63 202 185 68q41 0 78.5-8t61.5-18l-20-59q-53 17-120 17-72 0-107-54t-35-148 35-147.5 107-53.5q61 0 120 18z"/><path transform="translate(23.24 14.196) scale(.014 -.014)" d="m50 258q0-124 60-197t176-73q99 0 188 39l-20 60q-44-15-79.5-21.5t-77.5-6.5q-141 0-141 177h337v37q0 255-216 255-111 0-169-74.5t-58-195.5zm226 202q67 0 92-42.5t25-119.5h-237q3 78 28.5 120t91.5 42z"/><path transform="translate(30.772 14.196) scale(.014 -.014)" d="m246-12q-93 0-186 46l26 62q45-19 78-29.5t71-10.5q47 0 75.5 17.5t28.5 57.5q0 28-16 45t-65 37l-63 25q-52 20-82 53t-30 86q0 70 53 110.5t133 40.5q70 0 154-32l-21-63q-71 27-136 27-92 0-92-70 0-28 19-43.5t68-36.5l68-30q55-24 81-54.5t26-80.5q0-80-54-118.5t-136-38.5z"/></svg>