<svg width="65.008" height="20.64" viewBox="0 0 65.008 20.64" xmlns="http://www.w3.org/2000/svg"><path transform="translate(0 15.536) scale(.016 -.016)" d="m-7 654v46h303v-46l-82-17 170-480 160 475-79 22v46h241v-46l-92-22-220-639h-79l-233 639z"/><path transform="translate(11.232 15.536) scale(.016 -.016)" d="m297 515q110 0 182-74.5t72-189.5q0-116-72-191t-182-75-182.5 75-72.5 191q0 115 72.5 189.5t182.5 74.5zm0-55q-62 0-95.5-57t-33.5-152 33.5-153 95.5-58 95.5 58.5 33.5 152.5q0 95-33.5 152t-95.5 57z"/><path transform="translate(20.72 15.536) scale(.016 -.016)" d="m21 0v43l85 20v656h-85v43l160 38h45v-737l85-20v-43z"/><path transform="translate(26.032 15.536) scale(.016 -.016)" d="m21 0v43l85 20v656h-85v43l160 38h45v-737l65-20v-43zm222 241 183 199-67 17v43h226v-43l-88-20-139-152 165-223 82-19v-43h-186z"/><path transform="translate(35.888 15.536) scale(.016 -.016)" d="m21 0v43l85 20v656h-85v43l160 38h45v-348q76 63 161 63 78 0 123-44t45-113v-295l85-20v-43h-269v43l65 20v277q0 102-87 102-59 0-123-46v-333l65-20v-43z"/><path transform="translate(46.32 15.536) scale(.016 -.016)" d="m297 515q110 0 182-74.5t72-189.5q0-116-72-191t-182-75-182.5 75-72.5 191q0 115 72.5 189.5t182.5 74.5zm0-55q-62 0-95.5-57t-33.5-152 33.5-153 95.5-58 95.5 58.5 33.5 152.5q0 95-33.5 152t-95.5 57z"/><path transform="translate(55.808 15.536) scale(.016 -.016)" d="m2 457v43h266v-43l-71-16 124-293 116 290-70 19v43h207v-43l-80-22-175-442h-60l-190 445z"/></svg>