<svg width="83.496" height="19.04" viewBox="0 0 83.496 19.04" xmlns="http://www.w3.org/2000/svg"><path transform="translate(0 13.3) scale(.014 -.014)" d="m137-39q-11 0-17 6-7 7-10 23t-3 31q0 9 1 16.5t2 11.5q8 32 12 47t5.5 20 1.5 6.5 0 6.5q0 3 0 8t1 13q1 11 7.5 31t13 40 6.5 29v1l42 120q5 23 16.5 49t11.5 57q0 14-2 23t-5 22q-1 9-4.5 16t-3.5 16q0 5 1 8 5 14 17 20.5t26 6.5q3 0 6.5 0t6.5-1q11-2 15.5-10.5t13.5-12.5 9-33q0-21-4-48t-10.5-54.5-14-49.5-14.5-32q-30-43-47-92.5t-27-97.5-20-90q-3-15-3-18 0-4 1.5-5.5t2.5-5.5q0-2 4.5-10t5.5-10q45 44 81 85.5t70.5 83 74.5 86 92 93.5q5 5 17 14t17 14q2 2 5.5 8t7.5 9q76 69 138.5 115t111 77.5 82.5 54.5q22 15 45 24.5t36 9.5q11 0 11-7 0-5-7-15-5-4-17.5-12t-25-15.5-16.5-12.5-16.5-11.5-25-12.5-16.5-9q-19-16-53.5-40.5t-74.5-52.5-76.5-55.5-59.5-50.5q-66-64-110-111.5t-73.5-82-51-60-42-46.5-46.5-41q-4-3-14-17t-20-28.5-15-18.5v1q-7-5-17.5-12t-19.5-12q-4-2-14.5-6t-21.5-4z"/><path transform="translate(7.168 13.3) scale(.014 -.014)" d="m21-12q-12 0-20 7t-8 22q0 4 0.5 8t1.5 8q5 21 17 52t29 66 36 66q17 27 32.5 43.5t25.5 32.5q8 11 9 17.5t3 13.5q4 11 12.5 16t15.5 7q17 7 33 13.5t27 6.5q7 0 12-9.5t5-2.5v1q1-3 1-8 0-12-11-23.5t-40-42.5q-30-31-50-57t-34-48h-1q-25-39-36-67t-16-50q-1-5 0-6t5-2q3-1 8 0 15 5 36.5 20.5t43 34 36.5 31.5q5 5 9.5 7t7.5 5q5 3 7.5 7.5t6.5 7.5q36 31 69 65.5t57 61.5 33 35q14 13 30 13 23 0 29-25 4-13-5.5-19.5t-14.5-13.5q-4-6-16-23.5t-26.5-39.5-27.5-42.5-20-33.5q-5-10-6.5-15t-6.5-13v1q-1-2-2-10.5t-2-12.5q-4-7-4.5-14t1.5-4q0-1 6 3t11 8q2 1 8.5 3t7.5 2l9 5q1 0 14.5 8.5t27.5 17.5 15 9q11 6 12.5 6t5.5 2.5 21 13.5q18 12 28 12 7 0 7-5 0-4-6.5-12t-22.5-19q-25-16-55-37.5t-56-34.5q-9-6-18.5-11t-18.5-14l-1-1q-2 0-9.5-7t-8.5-9q-4-4-7-9.5t-9-9.5h1q-4-2-8.5-2.5t-8.5-0.5q-14 0-17 3-2 2-5.5 3.5t-5.5 6.5q-2 8-2 14 0 18 9.5 42.5t25.5 54.5q13 25 19 39t9 23.5 7 18.5q-14-13-29-27t-35-31q-3-2-9-5t-8-4l-25-26q-31-25-55-49t-53-41v1q-1-1-2.5-3.5t-4.5-4.5v-1q-4-1-7-1t-5-1q-6-4-12-6.5t-11-5.5q-12-5-21-5z"/><path transform="translate(13.412 13.3) scale(.014 -.014)" d="m195 426q-9 0-11.5 6.5t-3.5 12.5q0 5-1 11t-1 12q0 8 2 14.5t9 10.5q43 23 65 23 15 0 20-9.5t5-23.5q0-4 0-7.5t-1-8.5q-3-13-19-18t-27-10q-8-4-17.5-8.5t-17.5-4.5zm-456-800q-33 0-52.5 22.5t-28 53-8.5 54.5q5 23 7.5 36.5t18.5 33.5q7 7 11 7 5 0 4.5-10t-0.5-22q0-15 0-39t3.5-48.5 14-41 30.5-16.5q38 0 67.5 19.5t53.5 50 45 63.5q8 12 18 22t17 21q8 12 12.5 25t11.5 23q31 43 51 95t47 102q-1 5-1 10t0 9q0 38 15 73.5t28 69.5q12 31 13.5 49.5t2.5 30 11 20.5q16 13 34 13 24 0 29-16 1-4 1.5-8.5t0.5-9.5q0-8-3-16-5-7-5-12 0-2 0.5-3.5t0.5-4.5-1.5-8.5-7.5-16.5q-5-10-6.5-15t-6.5-13q0-8-3.5-27t-20.5-43-23.5-49.5-12.5-51-22-50.5q-12-34-27-67.5t-39-66.5q-23-32-51.5-74.5t-63-82-76-65.5-89.5-26z"/><path transform="translate(16.044 13.3) scale(.014 -.014)" d="m11-12q-12 0-20 7t-8 22q0 4 0.5 8t1.5 8q8 33 27 78t50.5 96 78.5 100q35 36 75 51.5t85 15.5h1q34 0 45-17.5t11-35.5q0-21-6-33l-1-1q-4-4-10-4-5 0-9.5 4t-4.5 11q0 10-3.5 17t-8.5 12q-1 2-5 2.5t-9 0.5h-1q-3 0-6 1.5t-6 1.5q-38 0-94-53-57-56-85-97t-38.5-70.5-15.5-52.5q-1-8 5-8 11 0 27.5 10t34.5 24 35 28.5 27 23.5q5 5 9.5 7t7.5 5q5 4 7.5 8t6.5 7q36 31 58 49.5t34.5 29.5 21.5 19q13 13 29 13 23 0 29-25 4-14-7-19.5t-16-12.5q-8-10-17-29.5t-24-46.5q-9-17-15.5-37.5t-4.5-30.5l17 11q13 6 28 10.5t25 11.5q7 4 12 4 8 0 8-7 0-8-12-16-29-21-46-29.5t-36-27.5q-4-4-16.5-18.5t-17.5-17.5q-4-2-8.5-2.5t-8.5-0.5q-14 0-17 3-2 2-5.5 3.5t-5.5 6.5q-2 8-2 14 0 18 9.5 42.5t25.5 54.5q13 25 19 39t9 23.5 7 18.5q-14-13-29-27t-35-31q-3-2-8-5.5t-7-4.5l-27-25q-28-22-50-41t-45-36-55-35q-12-5-21-5z"/><path transform="translate(21.924 13.3) scale(.014 -.014)" d="m15 0q-9 3-9 21 0 11 3.5 25t10.5 33v-3q2 0 4 7t1 8q1 6 8.5 13.5t6.5 8.5v1q2 4 0 5t1 8q11 23 18 31.5t15 24.5v-2q1 0 2.5 8t4.5 13v-2q1 4 4.5 7.5t4.5 4.5q9 16 12.5 24t8 15.5 15.5 21.5h-1q4 5 11.5 17t14 20.5 6.5 4.5v-1q0-3 8 9t19 29.5 20 32 11 17.5v-1q2 3 8.5 13.5t7.5 11.5h-1q10 16 13.5 24.5t8 17 16.5 23.5l35 45q5 5 12.5 17.5t15.5 16.5q14 7 34.5 13t36.5 6q11 0 18.5-3.5t8.5-13.5q-1-15-11-34.5t-30-38.5q-12-10-29-13.5t-24-14.5h1q-11-16-27.5-37.5t-24.5-32.5q-8-10-18-18t-16-18q-15-20-22-34t-13.5-27.5-22.5-30.5q-29-31-39-50.5t-12-40.5q4 5 9 9 22 22 61.5 48t81.5 51h2q1 0 10.5 5t21 12.5 19.5 13 5 5.5h-1q11 7 38 16 45 15 78 15 22 0 32-7 9-9 9-25 0-12-6-29v2q-1 0-4-7.5t-7-12.5q-1-4-7-12.5t-6-8.5v1q-5-12-10-17.5t-12-14.5q-9-12-23.5-35t-28-48-18.5-47q-1-7-8.5-18t-6.5-16v-1q0-2 4-5t5-5q3-4 3-10 0-9-8-18t-26-9q-13 0-16.5 6t-8.5 13v10l-4-1h-2q-4 0-7 5v1q0 4-1.5 11.5t-1.5 11.5q0 7 6 21t13 28.5 10 21.5q4 12 20 33t34 43.5 27 37.5q5 9 7 16.5t2 13.5q0 11-6.5 16.5t-16.5 6.5q-4 0-13.5-1.5t-19.5-5.5q-4-1-15.5-8t-21-13-6.5-6h1q-8-5-14.5-8.5t-16.5-10.5q-3-3-15.5-11t-25-16-17.5-11q-49-35-94-75.5t-77-84.5q-4-5-6-14t-5-15q-4-7-8-9.5t-6-4.5q-8-10-15.5-12.5t-12.5-2.5z"/><path transform="translate(28.938 13.3) scale(.014 -.014)" d="m11-12q-12 0-20 7t-8 23q0 3 0.5 7t1.5 8q9 33 27.5 78t50 96 78.5 100q14 14 39.5 26.5t49.5 22 34.5 15-5.5 5.5h-1q3 1 7 2.5t8 1.5q8 0 14.5-3t13.5-3h1q24 0 36-9.5t16-23 4-25.5q0-3 0-6.5t-1-6.5q12 21 23.5 43.5t20 39.5 9.5 19v-1q0-4 4 3.5t5 8.5q13 23 16.5 40t19.5 39h-1q3 5 11.5 18t17 26 12.5 18q11 11 38.5 22.5t49.5 11.5q12 0 20.5-5t9.5-17q0-16-8.5-25.5t-22-19-29.5-25.5q-12-13-39-54t-63-93q-35-50-53-76.5t-24.5-37.5-8.5-18l-1-1q-10-10-18-29.5t-23-46.5q-8-15-11-24.5t-6-25.5q-4-7-4.5-14t1.5-4q0-1 6 3t11 8q2 1 8.5 3t7.5 2l1 1q9 4 12 4h2q2 0 6 2t16 10q7 4 12 4 8 0 8-7 0-8-12-16-29-21-46-29.5t-36-27.5l-1-1q-2 0-9.5-7t-8.5-9q-4-4-7-9.5t-9-9.5h1q-4-2-8.5-2.5t-8.5-0.5q-14 0-17 3-2 2-5.5 3.5t-5.5 6.5q-2 8-2 14 0 18 9.5 42.5t25.5 54.5q13 25 19 39t9 23.5 7 18.5q-14-13-29-27t-35-31q-3-2-9-5t-8-4l-25-26q-31-25-55-49t-53-41v1q-1-1-2.5-3.5t-4.5-4.5v-1q-4-1-7-1t-5-1q-6-4-12-6.5t-11-5.5q-12-5-21-5zm49 64q3-1 8 0 15 5 36.5 20.5t43 34 36.5 31.5q5 5 9.5 7t7.5 5q5 3 7.5 7.5t6.5 7.5q36 31 58 49.5t34.5 29.5 21.5 19q3 3 7.5 8.5t8.5 12.5h-3q-5 0-10 3.5t-5 10.5q0 10-3.5 17t-8.5 12q-1 2-5 2.5t-9 0.5h-1q-3 0-6 1.5t-6 1.5q-38 0-94-53-57-56-85-97t-38.5-70.5-15.5-52.5q-1-5 0-6t5-2z"/><path transform="translate(34.972 13.3) scale(.014 -.014)" d="m11-12q-12 0-20 7t-8 22q0 4 0.5 8t1.5 8q8 33 27 78t50.5 96 78.5 100q35 36 75 51.5t85 15.5h1q34 0 45-17.5t11-35.5q0-21-6-33l-1-1q-4-4-10-4-5 0-9.5 4t-4.5 11q0 10-3.5 17t-8.5 12q-1 2-5 2.5t-9 0.5h-1q-3 0-6 1.5t-6 1.5q-38 0-94-53-57-56-85-97t-38.5-70.5-15.5-52.5q-1-8 5-8 11 0 27.5 10t34.5 24 35 28.5 27 23.5q5 5 9.5 7t7.5 5q5 4 7.5 8t6.5 7q36 31 58 49.5t34.5 29.5 21.5 19q13 13 29 13 23 0 29-25 4-14-7-19.5t-16-12.5q-8-10-17-29.5t-24-46.5q-9-17-15.5-37.5t-4.5-30.5l17 11q13 6 28 10.5t25 11.5q7 4 12 4 8 0 8-7 0-8-12-16-29-21-46-29.5t-36-27.5q-4-4-16.5-18.5t-17.5-17.5q-4-2-8.5-2.5t-8.5-0.5q-14 0-17 3-2 2-5.5 3.5t-5.5 6.5q-2 8-2 14 0 18 9.5 42.5t25.5 54.5q13 25 19 39t9 23.5 7 18.5q-14-13-29-27t-35-31q-3-2-8-5.5t-7-4.5l-27-25q-28-22-50-41t-45-36-55-35q-12-5-21-5z"/><path transform="translate(40.852 13.3) scale(.014 -.014)" d="m-57-374q-33 0-52.5 22.5t-28 53-8.5 54.5q5 23 7.5 36.5t18.5 33.5q7 7 11 7 5 0 4.5-10t-0.5-22q0-15 0-39t3.5-48.5 14-41 30.5-16.5q38 0 67.5 19.5t53.5 50 45 63.5q8 12 18 22t17 21q8 12 12.5 25t11.5 23q31 43 54 95.5t51 102.5q5 11 15 34t20 46.5 15 35.5q8 24 10 28v1q-10-8-11-9.5t-3.5-4-19.5-15.5l-2-1q-1 1-10.5-7.5t-20-17.5-15.5-11q-5-4-18.5-17.5t-18.5-16.5q-26-24-51-42.5t-53-35.5q-1 0-2.5-3t-4.5-5h-1q-3-2-6-1.5t-5-1.5l-24-11q-12-5-21-5-11 0-19 7t-8 22q0 3 0.5 7.5t1.5 8.5q8 31 22.5 70.5t43.5 86.5q7 11 8.5 16t1.5 7v4q0 2 1 5t5 10q8 11 9.5 17.5t2.5 12.5q5 12 13 16.5t15 7.5q17 7 33.5 13.5t27.5 6.5q14 0 17-12 1-4 1-7t0-6q0-18-10.5-31t-32.5-31q-8-7-12-11t-8.5-10.5-14.5-21.5h-1q-26-39-37-67t-15-49q-1-5 0-6t4-2q5-2 9 0 15 5 36.5 20.5t43.5 34 39 31.5q5 4 10.5 6.5t8.5 4.5q5 5 8.5 9t7.5 7q40 31 61 55.5t33 42 22 25.5q12 9 21 9 11 0 17.5-8t7.5-16q2-8 2-16 0-11-4-19-7-10-6-16.5t-5-17.5q-5-10-11-24t-12-22q-8-23-23-52t-30.5-56.5-26-45-10.5-17.5q-13-34-30.5-72t-40.5-71q-23-32-51.5-74.5t-63-82-76-65.5-89.5-26z"/><path transform="translate(50.372 13.3) scale(.014 -.014)" d="m216-73q-19 0-33 3-23 6-23 24 0 14 14 29t39 22q8 0 5-7t-8.5-15.5-5.5-14.5q0-7 10-7 3 0 6.5 0.5t7.5 1.5q13 3 35.5 5.5t44.5 5 35 5.5q23 6 44.5 17.5t38.5 18.5q3 1 8 1t8.5-0.5 7.5 2.5q10 5 18.5 11t15.5 13q12 11 20 23t8 25q0 14-9 27-10 19-47 36.5t-84 33.5q-9 3-15.5 9.5t-14.5 8.5q-3 1-5.5 1.5t-5.5 0.5q-7 0-14-1t-15-1q-14 0-27 10t-24 13q-78 28-78 80 0 30 22 65v-1q4 5 11.5 5t9.5 4q5 8 6.5 19.5t4.5 16.5q14 18 30 36 37 40 82 77t90 64.5 82 39.5q40 14 97 28.5t109 14.5q46 0 80.5-17t41.5-63q2-7 2-13t0-12q0-41-19.5-73.5t-43-56-36.5-40.5q-5-7-10-10.5t-14-11.5q-4-4-13-10.5t-15-11.5-21-17-21-14q-3-1-9-1-10 0-17.5 6.5t-7.5 16.5q0 7 4.5 16.5t15.5 19.5l2 1q-1 0 14.5 3.5t29.5 14.5q5 5 14 15.5t20 23.5q2 2 6 11t8 13q12 16 19.5 37.5t19.5 41.5v-1q4 8 4 17 0 16-6.5 36t-17.5 34.5-25 12.5q-42-5-90-11.5t-82-18.5q-28-10-57.5-26t-58.5-36q-7-5-13.5-6t-12.5-6q-7-6-14-15.5t-15-14.5q-52-45-85.5-93t-33.5-87q0-25 16-43.5t51-28.5q35-9 75.5-24t78.5-32.5 65.5-36 34.5-35.5q6-13 6-26 0-30-27-57t-70-49-93-38-98-25-83-9z"/><path transform="translate(59.948 13.3) scale(.014 -.014)" d="m88-15q-3 0-12.5 4.5t-19 9-14.5 4.5h-1q-13 0-18.5 8.5t-7.5 20.5-4 20q-3 12-3 25 0 45 30.5 104.5t81.5 117.5q36 41 73 64t67 26q16 2 33-8t24-10h1q28 0 38-18.5t10-35.5q0-15-7-29-7-10-22-10-19 0-25 11-7 16-26 25t-36 9-36.5-15-39.5-36q-61-63-84.5-117.5t-23.5-85.5q0-4 0.5-7.5t0.5-6.5v-1q0-7 13-14.5t29-5.5q27 3 45 9t46 22q1 0 10 5t18.5 10.5 10.5 5.5q11 6 12.5 6t5.5 2.5 21 13.5q18 12 28 12 7 0 7-5 0-4-6.5-12t-22.5-19q-20-13-32.5-20t-22.5-13.5-22-18.5l-1-1q-2 0-10.5-4t-16.5-7.5-9-4.5q-4-3-20.5-10.5t-34.5-13.5-27-6z"/><path transform="translate(64.652 13.3) scale(.014 -.014)" d="m15 0q-9 2-9 21 0 33 19 71 6 7 10.5 14t4.5 16q0 6 6 18.5t13.5 27 13.5 25.5 6 13q2 5 4.5 11.5t2.5 6.5q10 15 24.5 37t34.5 51h-1q14 23 25.5 39.5t21.5 26.5q32 32 73 32 25 0 25-22 0-19-23-39-9-8-18.5-15.5t-17.5-15.5q-8-9-22-26.5t-33-43.5q-2-3-10.5-14.5t-17-25-12-23 3.5-8.5q14 20 69 59 23 16 38 32t30 26q5 2 11 6t13 11h1q27 14 58 31.5t65 39.5q3 2 8 0 45 16 62 16t17-15q0-3-2.5-15t-9-23-18.5-11h-44q-33-13-70.5-27.5t-77.5-43.5h-1q-147-97-220-205-1-5-4-12t-7-17q-15-26-42-29z"/><path transform="translate(70.462 13.3) scale(.014 -.014)" d="m239 426q-9 0-11.5 6.5t-3.5 12.5q-1 5-2 11t-1 12q0 8 2.5 14.5t9.5 10.5q23 12 39 17t26 5q15 0 20-9t5-23q0-4 0-7.5t-1-8.5q-3-13-19.5-18t-27.5-10q-7-4-16.5-8.5t-17.5-4.5zm-218-431q-4 0-7 6-2 8-5 14t-3 18q0 14 6 41t23 81q13 41 24 66t23 48v1q3 4 9 7t8 6h-1q2 2 1 6.5t-1 8.5q0 11 7.5 18.5t15.5 14.5q8 8 25 18t40 14q3 1 6 1t6 0q17 0 26-7t13-15q2-2 4-5t2-7-3.5-10.5-14.5-16.5q-5-6-14.5-12.5t-17.5-14.5q-10-10-19-22t-17-23q-7-10-15-18.5t-16-17.5q-4-4-6-14.5t-9-17.5q-7-9-15.5-14t-13.5-14v1q-5-9-11-21t-12-23q-10-20-13-29.5t-3-14.5q0-6 2.5-8t0.5-10q-4-9-10.5-22t-14.5-13z"/><path transform="translate(73.22 13.3) scale(.014 -.014)" d="m-139-281q-11 0-14 8v-1q-1 7-3.5 12t-2.5 12q0 8 3.5 20.5t13.5 34.5q5 16 20 40.5t25 48.5q7 17 25.5 52.5t42.5 79 47.5 85.5 41.5 73 24 41v-2q1 5 7.5 8t9.5 6q0 4 1 10t2 10v1q4 9 10.5 15t13.5 12q8 9 26.5 19t42.5 14h-1q3 1 9 1 14 0 14-11 0-5-3-11.5t-5-11.5q0-3-2.5-6.5t-3.5-7.5q30 23 71 45t85 35q42 12 67 12 23 0 38-11 26-20 26-58 0-9-2-19.5t-5-21.5q-1-7-3.5-13.5t-6.5-17.5q-13-29-36.5-54.5t-55.5-54.5q-4-3-4.5-7.5t-7.5-11.5q-5-5-15-11t-13-8q-28-22-70.5-48.5t-106.5-40.5h-1q-17-2-39-6t-43-4q-22 0-39.5 7.5t-22.5 27.5q-12-24-26-48.5t-18-29.5q-4-4-11-19t-14-31-13-23h1q-6-8-8.5-20.5t-6.5-25.5q-8-21-9.5-32.5t-1-18.5-2.5-15q-5-9-21.5-19t-29.5-10zm248 292q18 0 42 6 35 9 58 15t42 19q17 11 33 25 4 3 15 14t15 15q10 9 17 16.5t16 16.5q7 7 19.5 22.5t26 35 22.5 40 9 37.5q0 18-13 27-6 4-12.5 6.5t-14.5 2.5q-15 0-37-7-22-6-31.5-8t-17.5-4.5-26-12.5q-5-4-17.5-15.5t-17.5-12.5h1q-9-4-24-15t-25-18q-6-4-14.5-12t-14.5-13q-20-16-33-37t-32-44q-1-1-8-15.5t-13.5-28.5-8.5-16q-4-5-4-12 0-5 2.5-9t1.5-7q5-4 16.5-7.5t27.5-3.5z"/><path transform="translate(79.828 13.3) scale(.014 -.014)" d="m61-7q-9 0-12 8-3 10-8.5 20.5t-2.5 29.5q0 0 4 11.5t8 21.5q5 11 10 23t11 34q4 10 10.5 31t16.5 38v-1q15 27 31.5 53.5t33.5 52.5q-5-4-14-6-11-4-24-8.5t-22-4.5q-13 0-17.5 10t-4.5 10v1q0 11 0.5 23.5t15.5 21.5h1q2 0 6.5-1t5.5-1q4 2 10 6t13 4h1q17 0 36 1t32 4q6 8 11 15.5t4 9.5q1 5 7.5 14.5t9.5 13.5q2 5 8.5 11.5t6.5 8.5v1q1 2 1 7v8q0 5 1.5 10.5t5.5 9.5q7 7 11.5 17t17.5 18q9 6 17 6 14 0 21-11.5t11-18.5q1-4 10.5-7.5t9.5-12.5q0-8-12-19-4-5-14-15.5t-18-18.5q-7-7-25-33 16 1 33 5t35 4q5-1 17 2.5t22 3.5q4 0 6.5-5.5t3.5-8.5q-4-6-16.5-11t-18.5-6q-4 0-21-3t-34.5-6.5-24.5-3.5q-6 1-12-6.5t-14-8.5q-6-8-12.5-11.5t-11.5-10.5q-13-19-22-32.5t-13-18.5q-5-6-13.5-18.5t-17.5-25.5-15-19q-4-6-13-19.5t-15-19.5q-5-7-7.5-12t-8.5-16v1q-5-9-11-23.5t-8-27.5q-1-5-1.5-11t-0.5-11q0-13 1.5-23.5t1.5-18.5q0-14-11.5-24.5t-22.5-10.5zm343 398t-1-1l1 2z"/></svg>