<svg width="69.006" height="14.028" viewBox="0 0 69.006 14.028" xmlns="http://www.w3.org/2000/svg"><path transform="translate(0 11.284) scale(.014 -.014)" d="M137 0 20 538 137 575 227 138 344 275V105L251 0ZM596 0H482L389 105V275L502 138L596 575L709 538L596 0Z"/><path transform="translate(9.814 11.284) scale(.014 -.014)" d="M80 195 194 264H358V187H207V105H358V-1H194L80 68ZM80 301V370L194 440H358V346H207V301ZM680 370 566 440H402V346H553V264H402V187H553V105H406V-1H680Z"/><path transform="translate(20.594 11.284) scale(.014 -.014)" d="M100 575H228V-1H100Z"/><path transform="translate(25.186 11.284) scale(.014 -.014)" d="M100 575H228V-1H100Z"/><path transform="translate(29.778 11.284) scale(.014 -.014)" d="M697 128 585 60H427V140H572V346H421V440H585L697 371ZM100 440H377V346H227V140H372V60H227V-193H100Z"/><path transform="translate(39.788 11.284) scale(.014 -.014)" d="M80 371 197 440H355V346H205V108H355V1H197L80 70ZM667 371 550 440H391V346H542V108H391V1H550L667 70Z"/><path transform="translate(50.246 11.284) scale(.014 -.014)" d="M684 257 566 188H406V265H557V347H406V441H566L684 371ZM684 139V69L566 0H406V106H553V139ZM80 69 198 0H357V106H206V188H357V265H206V347H357V441H198L80 371Z"/><path transform="translate(60.942 11.284) scale(.014 -.014)" d="M270 437H420V344H270ZM546 150V69L432 0H270V105H420V150ZM225 506V105V0L100 69V344L10 343V387Z"/></svg>