<svg width="71.632" height="23.2" viewBox="0 0 71.632 23.2" xmlns="http://www.w3.org/2000/svg"><path transform="translate(0 16) scale(.016 -.016)" d="m384 1q-22 0-38.5 15t-25.5 37-9 43q0 15 8 39.5t18 50.5 17 45l-5 6q12 12 16 25l9 27h2q3 0 4 1t3 1q3 0 1-2l16 10q2 6 2 7 0 3-2 9-3 3-3 8 0 9 10.5 25t15.5 26l3 23q2 2 10.5 17t17 31.5 11.5 23.5l-1 5 2 10q2 2 8.5 9.5t7.5 10.5q-1 2-2 5t-1 5q0 1 1 1l1 3q3 2 11 16.5t17.5 32.5 17.5 31.5 9 13.5q4 19 13.5 36.5t17.5 35.5 8 36q0 20-10 28.5t-29 8.5q-29 0-72.5-15.5t-90.5-39.5-88-48.5-65-42.5l-21-16q-5-4-10.5-8.5t-10.5-8.5l-12-9q-4-2-7-5t-6-5l6 1q-3-5-14-12.5t-23-13-19-7.5l1-6h3v-3l9 5 1-7-7-1-23-29-24-30h-3v-7q3 1 5.5 1.5t3.5 0.5q4 0 4-3-12-7-18.5-22.5t-6.5-29.5q0-11 5.5-20t18.5-7v-3h-7q-15 0-30 7t-17 24q3 3 5 4l4 3q-6 8-6 16 0 2 2 2l4-8h3q-2 5-4.5 12.5t-2.5 12.5q0 1 2 3v3l8 3q6 0 4 5h7l-4 3v4q0 3 3 3v3l-3-1v-3l-6-7h-3l-1 4 3 2 13 11-2 22 3 4 7 1 6-6 27 32v6q-4-1-6.5-1.5t-4.5-0.5q-5 0-5 3l3 1v3q8 7 16.5 14.5t16.5 14.5q8 8 16 15t16 14q6 6 12 12t13 10l3 2t2 2q1 1 2 1h3v3q7 13 25 16 2 5 3 8.5t2 7.5q4 2 20.5 10.5t32.5 18.5 16 15l3-3 13-4v6q-2 2-2 3h1q4 0 8 6 4 4 8 5v-3l24 18q13 10 26 11 3 3 12 8 10 4 10 6 0 1-1 1l10 1q10 9 23.5 15t26.5 8q11 8 24.5 11t26.5 5l-1 3q7 3 11.5 3.5t11.5 0.5q34 0 66-14t48-46l7-14q-1-2-1.5-4t-0.5-4v-8q0-7 0.5-14t1.5-14 1.5-14.5 0.5-14.5q0-8-1-11-6-6-12-21.5t-13-15.5l-8-25q-7-7-8.5-19t-4.5-21.5-15-9.5v-3q7-1 7-7v-2q-1-1-3-2.5t-4-3.5q-6-4-6-6 0-1 1-1l-6-3-21-34-4 4q-7-20-18-37l-2-11-17-23-2-26q-14-16-19.5-26.5t-8-21.5-9.5-31q-8-23-17.5-41.5t-26.5-35.5q-4 1-4-4l9-19q-11-19-20-45.5t-9-48.5q0-17 3-34 1-9 1.5-18t-0.5-17q11 0 29.5 9t38 23 34 28.5 17.5 24.5l4-4q3 7 8 14l10 12q2 4 5 7t7 7q8 6 12 13l12 16q-1 1-1 2l1 1h2l8 10v-2q2 2 4.5 5t4.5 6 6.5 8 2.5 3l-1-1 1 4h2q2 3 5 6t5 7l10 12q2 2 3 1 5 8 14.5 18.5t13.5 17.5h1q9 9 19.5 24t20.5 17q8 7 16 14t16 14l1 3q4 3 7.5 6t6.5 7l3-1q4 4 6 7 4 4 7 6l-2 1h2l2 1 34 71v4l-9-2v4h2q1 1 8 13.5t16 29 17 29 9 12.5q0 2 5 13t12.5 25 15 25.5 11.5 14.5l-1 9 13 12v2q-2 0-5.5-0.5t-7.5-1.5v2h2l28 39q9 13 12.5 26.5t8.5 24 19 13.5l2 3h2v2q20 0 38.5-7.5t34.5-18.5q2-2 5-4t6-4q7-5 9-11 1-2 1.5-4t0.5-4v-15q0-10-4-18t-10-15-12-13.5-11-14.5q-2-4-10-14.5t-12-10.5q-14-20-30.5-39.5t-36.5-35.5h-2q-12-15-25-28l-8-27-6-6q-3-2-7-6-2-2-8.5-16t-13.5-27.5-10-15.5q7 19 15 37t16 35h2l-2 4-10-9-10-10q-7-13-7-27l-6 2v-2q1-1 1-5 0-2-3-15t-7.5-25.5-9.5-12.5v-6q0-5 1-7 0-4-4-15.5t-4-14.5l-2-1-4 2q0-3 1-4v-4q-3-7-14-12 1-4 1.5-7.5t0.5-5.5q0-10-3-19l-6-18q-10-31-18.5-69.5t-8.5-70.5q0-16 3.5-33.5t13-29.5 26.5-12q21 0 50 16.5t61 42.5 62.5 55 55.5 55.5 39 43.5q2 2 5 10t3 10-1 2q-4 0-18-14t-30.5-32.5-29.5-32.5-15-14v1q0 2 1.5 6.5t2.5 6.5q3 6 12 15 5 4 8.5 7.5t5.5 5.5q19 20 39.5 42.5t36.5 45.5l50 74q0 7 5 21t12.5 26.5 14.5 14.5q1 0 4.5 9t7 18 3.5 9v-1q1-1 1-5t1-6v-2q0-1 1-1t1 1q4 8 4 19-1 5-1 10t0 10q0 7 10 11 8 4 13 11 3 5 8 17t8.5 25 3.5 18v1q0 3 10 9 9 5 9 10t-5 7q-6 2-6 5l1 1q1 4 1.5 7t0.5 5q-2 2-2 4 0 4 4 8 3 5 3 12 0 5-1 8-1 2-1 7t5 8q0 5 0.5 11t1.5 11q-7 7-7 19 0 4 0.5 8.5t1.5 8.5 1 8 0 8q0 11-8 15t-8 8q0 9 6 15-1 4-8 9-5 4-4 11-4 2-7.5 8t-3.5 11q0 11 12 11 5 0 9-2.5t7-5.5q23-25 37-54.5t14-64.5q0-22-2.5-42.5t-6.5-41.5q1 0 1-2 0-8-6-20-7-11-7-18 0-4 0.5-7t1.5-7 1.5-7 0.5-7q0-3-2-5t-6-7.5-5-8.5q1 0 2 0.5t2 0.5q-4-7-8-20t-4-16v-2q0-1 2-1l2 2-9-28q1-2 1-9 0-21-17-30l-21-49q-10-24-27-46-2-3-5-5.5t-5-4.5l-10-10-3-4q-1-2-4-5 0-4-0.5-7.5t-4.5-6.5q0-1 1-1v-3q0-5-5-6.5t-10-0.5l-9-11q1-3 1.5-5.5t0.5-4.5q0-11-5-9h-11l-2-1q0-20-19-23l-9-11q-1-6-7-8-25-28-50-55.5t-51-53.5q-13-14-37.5-31t-53.5-32-56-25-46-10q-55 0-79 35t-24 87q0 39 11.5 77.5t25.5 74.5l-10 2 2 1q1 2 1 4.5t1 4.5q0 5 1 8l2 2v-4h2l-3 17 13 2v2l-4 6 2 1 11 22q-4-3-7.5-6t-7.5-7l-15-16 1 4h-7l-1-4h-3l-2-6 4 3h6q-1-2-5-7t-6-7l-1 3-2-5h1q-5-6-11-11.5t-12-10.5l-26-21-1-9-3-4h-7l-2-3 2-3-6-3v1q-1-2-2-3.5t-2-3.5q-4-4-5-7-2-2-8.5-10t-12-15-6.5-8h2l2-10h-2l-1-3-4-1v4h-5l-1-3q-11-9-20.5-19t-19.5-21l-2-16q-3-1-8 4l-2-1q2-6 2-7 0-3-2-5-10-5-14.5-14t-6.5-19h-12l-29-46h-3l-2 13q-12-23-22-34t-24-14.5-40-3.5zm234 698 6 6h-2q-1-2-3-4.5t-1-1.5zm271-194 18 16q13 12 17 13 2 4 13 18t25 31.5 25.5 30.5 14.5 15v1q-1 0-1 1t3 8 6 14 3 8q-12-9-29.5-20.5t-33-23.5-21.5-23q-8-14-14.5-27t-11.5-29v3l-1-3q-3-8-7-16t-6-17zm-302 70h4l1 6h-1zm-456-25q5 5 6 7-1-1-3-1zm445-6h1l1 3 9 9h-5l-1-3h-3q-2 0-2-3-1-1-1-2v-3q0-1 1-1zm698 3q2 6 4 6 1 0 1-1zm-1179-40q1 1 1 2t1 2q0 2 1 3h-3q-1-1-4-1v-3h4zm774-21 6 5h-3q-2-2-3-5zm-814-12h2q4 0 5 1-1 1-1 3 6 0 7 1v3q-1 1-1 3l-3-1v-3q-3-1-6-2t-3-5zm-12-64-3 4-4 4q-1 1 2-5 2-3 3-3z"/><path transform="translate(17.856 16) scale(.016 -.016)" d="m284-20q-10 12-20.5 18.5t-18 15-7.5 23.5h2l-3 15-3-3-2-3q1 4 2 7.5t2 6.5q1 5 1.5 9.5t0.5 9.5q0 13 2 25.5t5 24.5 5.5 24.5 4.5 26.5h2l11 26-1 5q-2-4-3-5-1-2-3-4-11-16-27-38.5t-32-42-29-27.5q-8-5-11-7.5t-7-12.5q-10-2-19.5-13t-18.5-21-20-11l-1-5q-6-6-16-8.5t-18-3.5q-22 8-43 22t-21 39q0 10 3 17h1v5q-2 3-1 8t3 5l1-1q2 3 2.5 10t0.5 9l2 2q0 7 7 15t13.5 15 6.5 10q1 1 1 3 0 5-1 8-2 4-1 7v4h4l3 5v2q-3 2-3 3v2q0 3 2 5l3 3v1q0 1 1 2v2l5 5q4 4 6 5 8 11 13 20h4l1-1q-1 2-1.5 3t-0.5 2q0 8 13.5 23t32.5 32.5 37 33 28 24.5v5h2q4 2 8.5 6t9.5 8q10 10 17 11l2 5 6 1q1 1 2 2t2 2q2 1 3 1t2 1l1 1 2 1v1t0 0.5 1 1.5l18 7 2-1 14 6 3 3h1l13 1 7 4 2 2v-1l1 1 2-2q9 4 18 4t24-3 28-9.5 15-17.5v-2l-21-12q2 5 3 6v1q0 2-4 2h-6q-21 0-38.5-12t-33.5-24q-9-2-19-12t-18-15q-39-30-70.5-59.5t-59.5-70.5q-5-8-13-20.5t-14-17.5q-5-9-10-18t-9-19-9-19-10-17q0-12-3-23-2-6-2-10-1-3-1-6t-1-5l4-9q12 5 29 13t17 18q6 2 6 2h2v2q2 2 3 2h3l3 4v5l4-4 13 13q0 5 7 6 17 14 30 33 7 10 14 19t15 17h2l13 16-1 4 14 18h2q2 6 6 12l3-2 8 11-1 1q5 8 11 16t12 15q6 8 11.5 16t10.5 16q0 7 5 13t13 6l7-2q4 7 4 22 5-1 8 2 0 0 6 2v-2l8-3q4 2 6 2 8 0 16-4.5t14-9.5q0-2 1-1 0 1 1 1h5q13 0 13-11v-3q-5-7-9.5-14t-8.5-14q-8-14-22-25v-2l-16-23 2-4-34-42-3-1q-2-7-4.5-13.5t-5.5-13.5l-9-3q2-2 2-5 0-4 1-5-8-15-13.5-30t-3.5-32q-3-2-3.5-5.5t-0.5-6.5q0-5 0.5-9.5t1.5-9.5 2-10 2-10l11 6h3l1 1 2 3q0 3 3 7l2-8 9 4v-4h1q4 0 6 6 2 2 5 4.5t7 2.5l1 2v3q0 5 7 8 4 1 6.5 2.5t4.5 1.5h1l26 26h1q2 3 8.5 8.5t11.5 7.5v7l7 2h1l23 32q0-1 2-1t3-1q1 0 3.5 3.5t2.5 5.5q1 1 2.5 2.5t5.5 2.5q3 2 5 2.5t3 1.5q-11-21-19.5-38t-16.5-34-18-32.5-25-30.5l-4 4 7 9-1 6-2-1v-4l-7-7q-1-13-9-19h-4l-2 1v-5l-6-7-3 1-12-17v3l-2-1q-2-1-4-2t-4-2q-6-2-7-6zm100 79q0 3 1 4l2 3-4-1h1l-3-5 1 1z"/><path transform="translate(24.432 16) scale(.016 -.016)" d="m73 161q-8-4-12.5 1t-0.5 10q5 5 6 9t1 9v8q0 7 1 8l6 6q1 2 6 4l5 14q-7 8 2 17l1 1v1l2 3 6 10 1 2h2q-2 5 3 11 2 5 6 10t8 11q10 11 11 20 2 8 9 14-1 0-1 2 0 1-1 1 0 1 1 2v1q2 2 7 10.5t10 17.5q2 3 4 6t4 7l5 9-27 9q-20 7-35 19.5t-15 36.5q0 11 6.5 19t13.5 14q4 4 4 5 8 10 16 5.5t0-12.5l-6-8q-4-6-8-11.5t-4-13.5q0-10 14.5-17.5t32-11.5 24.5-4q41 54 81 107t80 107q4 4 4 14l37 39q4-2 7.5-3t7.5-2 7.5-2 7.5-2q8-2 15-5t13-10q11-11 11-27 0-17-14-29-15-12-26-23-4-3-7.5-6t-7.5-7q-8-8-18-8v7h3q4 5 8.5 11t8.5 11q10 11 15 22-4-4-7.5-7t-7.5-6-7.5-6.5-7.5-7.5q-5-7-16-19.5t-24-26.5q-11-14-22.5-25t-16.5-16l-1-1 4-4-13-5 1-1q0-8-5-11t-10-3q-2-6-5.5-10.5t-11.5-7.5q1-1 1-3 0-1 1-2 0-1 1-2h-2v-2h-5q-1 0-2-4l3-5q1-1 1-4 14 15 27 30t27 31l54 60h2q0-1 1-1 0-1 1-1 0-7-11-22t-27-32.5-30.5-33.5-22.5-25q-3-3-7-9-3-3-7-9h9q13 0 23.5 1.5t21.5 3.5q5 1 10 2.5t10 2.5 10 2 10 2q12 2 32 6.5t29 11.5q26 8 51 12 0 0 1 0.5t3 1.5q2 0 3 1 2 3 5 3l8 3 8 2v1q14 3 27 8.5t27 11.5q13 5 25.5 9.5t25.5 4.5l3 6q12 12 27 12v-3q4-4 4-9 0-3-2-3-9-9-20-10 1-2 1.5-3t0.5-2q0-3-3-3-4-3-10-3-5 0-5 6l3 2q-6 0-8 2-7-18-23-18l-2-8-11 3q-5-5-10-5-2-5-3.5-8.5t-7.5-3.5q1 1 1 3-1 1-1 2-7-8-16.5-14t-22.5-6l-1 7h-1q1-1 1-5t-3.5-6-5.5-2q-1 0-1 1h-2q-5-4-9-4-2 0-3 1h-3q-5-4-9-4.5t-12-1.5q-13-2-27.5-7t-27.5-10q-1-1-5-1-2 0-2-1-31-16-63-17-34-3-66-9-3-1-6-1.5t-7-0.5-7-0.5-6-1.5q-6-1-15-9.5t-17-18.5-12-16q-4-4-9-8.5t-10-8.5q-10-7-18-18-2-2-5-5t-5-7q-5-9-12-10 2-5-2-7l-2-2q-9-9-9-21-3-3-5-8l-1-4-3-4q-5-7-9.5-16.5t-9.5-20.5-10-20.5-10-17.5zm-31-270q-7 0-15.5 3t-13.5 8q-5 6-14.5 21.5t-9.5 23.5q0 19 2 37t6 37q6 5 7 12t2 14q8 8 9 20t12 12l2 2q1 1-1 5-2 5-3 8.5t2 8.5q1 2 2 4.5t2 3.5 3 7q3 11 5.5 19.5t10.5 17.5q5 4 9 0.5t3-8.5q0-6-3-12h8q-4-19-9-38t-10-38q-12-37-12-76 0-35 14-65l14 8 5 9v-11l2-5q2 5 6 9t12 4l1-7q0-3-1-4-6-13-19-21.5t-28-8.5z"/><path transform="translate(28.096 16) scale(.016 -.016)" d="m72 9q-11 0-22 3-16 6-32 33l8 2-7 5-8 25h-1q-1 3-1 9v7q0 4 5 14t9 19l-10-2v5q1 1 3 5 1 3 5 4 1-1 1-3l2 2v5q0 4 0.5 8.5t3.5 7.5q0 6 1 7l1 4h2v4l6 8q5 5 6 5v1q-1-1-3-1-4 0-4 4 0 1 1 2v5q1 1 1 5t-2 6l7 8 4-1-1 1h2l1 1 3 11 5-8 3 17q1 5 2 10t2 10l11 1v8h-3v5l5 5v-1l1 1v5l9 6v4q7 4 12 14 3 7 14 9h-6l1 1-4-3v8h2l1 2h1l2 4v5q6 4 12.5 10t6.5 13l4 3v4l4-2 13 12v4l8 5 4 6q0 3 3 3 1 0 4.5-1.5t5.5-2.5h6q16 0 32-11.5t27-27.5 11-32q0-5 3-10 1-3 1.5-6t0.5-7v-4q0-4-1-5-17-40-52.5-77t-73.5-58q-8-4-18-8t-20-4q-3 0-4 1l-7 2q3 1 9 5 2 1 4 2t4 2l6 3q2 0 3 1l-1 1q0 4 5 4 6 4 10 5l10 3q6 2 10.5 3.5t4.5 5.5q4 3 10 13 7 12 10 15l9 2 10 15-2 4 8 4v4h2q11 12 17.5 21.5t11.5 25.5q0 2 3 2v1q6 12 6 23 0 24-23 24-2 0-5 1-4 0-4-2h5l-5-4q-5-2-9.5-6t-4.5-11h-4q2 0 3-4-7 0-10-4l5-3q-2-2-5-3.5t-6-3.5q-3-1-6-2.5t-5-3.5q-11-8-11-15 0-1 1-2t2.5-2 3.5-3l-8 1t1 0.5 2 0.5q-4 0-6-1-2 0 0-2l1-1t-0.5 0-0.5-1q-1-1-1-2h-2q-4-5-7.5-10t-5.5-10q-4-9-11-18l7-5h-7l-4-4v-5l-6-5 2-1-10-17-3-1v-8l-11-12 1-4h-2v-7q-7-7-9-18-1-10-8-20h6l-8-5v-3q-1-1-1-3 0-4 0.5-7t1.5-6 1.5-6 0.5-7q0-8 6.5-20.5t13.5-12.5q19 0 38 10 18 11 37 12l21 17q16 13 28 31 13 18 29 31h1l-2 2q3 4 9 12t7 13q1 1 1 4 0 2 1 3 2 5 6 5t4-5q0-3-1-4 0-10-8.5-28.5t-19.5-22.5v-3q-5-5-10-14-7-9-19.5-25t-20.5-16l-14-9v-4q0-5-6-7-4-5-10-4-3-6-10-8-3-1-9-5-2-3-9.5-6t-10.5-4q-5-4-12-4.5t-12-0.5z"/><path transform="translate(32 16) scale(.016 -.016)" d="m167 73q-3 0-5 2-1-1-6-1-13 0-26 18t-13 31q0 23 12 48l22 46q6 12 6 16 0 0-5 8l-5 5q-2 2-3.5 3.5t-3.5 3.5q-6 7-12 16t-8 21q-2-2-9-15t-14-25-11-12q-2 0-3 1t-3 1-5-8q-4-6-11-17.5t-14-21.5-13-10q-4 0-4 4 0 3 4 11.5t9.5 17 7.5 10.5q12 17 20 30t15 27q6 13 12.5 26.5t15.5 30.5q2 14 6 29 15 45 35.5 78.5t51.5 68.5q7 7 16.5 17.5t19.5 19.5 17 9q6 0 14-5 4-2 7-4t6-4l20-11q11-6 11-19 0-5-1-6-3-11-19.5-23.5t-36-25.5-31.5-25q-18-16-31-36t-24-43q-1-4-2.5-7t-2.5-7q-1-7-5-16-1-2-2-4.5t-1-5.5q0-5 1-7 1-3 1-8 0-6-1-8-1-3-1-9 0-11 11-20.5t21.5-20.5 10.5-25q0-12-8-29t-18-34-16-31l-5-12-2-7q0-2 1-2l2-3q9 0 25 13t32 28.5 22 21.5q12 13 22 27.5t19 29.5q2 5 6.5 11.5t9.5 6.5q6 0 6-7 0-6-10.5-23.5t-22.5-34.5-17-22l-1-2v-1q-3-7-9-9-1-1-3-5t-3-5q0-2-3-4l-4-1q-1-4-6-7l-6-6q-1 0-1-1t-1-1q-1-6-8-6-2-4-5.5-10t-8.5-6q-5-7-13-7-1-1-1-3 0-1-1-2-2-5-9-5-1-1-4-1z"/><path transform="translate(39.216 16) scale(.016 -.016)" d="m253-62q-6 3-13 3h-14l-1 3v-1l-15 5-5-4-17 6 1-1q-17 5-22 13t-5 27q0 8 1.5 19t5.5 19q5 5 18.5 19.5t19.5 17.5l21 9q5 2 10.5 4t10.5 4q23 10 47 19.5t48 18.5l33 12q-1-1-1-7v-1q0-1 1-1 2 0 6 6 2 2 3.5 4t2.5 3l8 2v1q17 6 36 8.5t37 4.5l3 11 19 4q7 1 11.5 1.5t6.5-0.5q38 11 76 20.5t76 17.5q9 7 16 16t14 18q1 2 2 3.5t2 3.5l4 6 3 5 1 1q3 3 5.5 13.5t4 22.5 1.5 17q0 28-15 56t-41 42q-11 5-20 8-13 4-19 10h1q-10 2-18 6-7-7-15-12-9-5-16-11-7-5-16-7-8-1-16-6-26-20-57.5-33.5t-64.5-13.5q-18 0-33 6l-168-249q-13-19-25.5-37t-25.5-36q-2-4-5-8t-5-9q-7-10-13-15-18-16-40-30l-1-2q-8-7-20-10t-23-3-25 5-14 21v4q3 2 7.5 4.5t8.5 2.5l1-1h2v3l2 2h-1t10.5 15 26 37 32 44.5 28.5 38.5 15 17l2 12q1 2 10 11.5t20 21.5 20 22.5 10 13.5q1 1 1 2l1 1q11 17 21 39l19 39 27 52q7 13 13.5 25.5t12.5 25.5q3 6 9.5 22.5t14.5 36 15 35.5 11 20l1 9 12 17-4 11 1 1v3q2 1 4.5 17t5 31.5 4.5 15.5l3 24q1 6 1 12t0 12q0 26-9.5 48.5t-37.5 22.5q-24 0-56.5-15t-63-35.5-49.5-35.5l-15-14q-4-4-7.5-7t-7.5-6q-3-3-9-7-2-2-5-4t-5-4h4q-4-6-18-14.5t-21-8.5l-1-6h2v-3l6 3v-6h-4l-39-50h-2v-5h5q3 0 3-3-11-7-17-24.5t-6-29.5q0-6 2-12.5t10-6.5v-3q-14 1-23 9t-8 22v4l7 6q-1 4-1.5 7.5t-0.5 5.5q0 4 2 4l1-8h2v10q-1 2-1 5t0 5 0.5 4 1.5 5q1 1 2.5 1t2.5 1q3 0 4 3h4l-2 3v4q0 2 3 2v3h-2v-3l-5-6h-2v4q0 2 2 2l10 9 1 20 3 3h4l4-6 21 27 1 6h-7q-4 0-4 2h2l1 3q13 11 25 23t24 24q4 3 7.5 6.5t7.5 7.5q3 1 7 5l1 1h3q3 15 18 15l6 15q2 1 14 7t23.5 13.5 11.5 11.5q2-6 10-9v8l7 7 5 2v-2q4 2 8 5.5t8 7.5q8 7 19 7l6 3q1 1 5 3l3 2 2 2v2h6q16 14 35 14 8 5 17 7t18 2v3l6 3q36-3 57.5-24.5t36.5-51.5q-1-1-1-7 0-18 6-35 6-18 5-35v-2q-5-3-7-11.5t-3.5-16-7.5-7.5l-5-23q-3-4-4-10.5t-2-12.5h-4v-3q-6 0-6-6v-1q0-2 3-2v3l7 9q-1-9-3-16.5t-10-7.5v-3q8-2 8-8-2-1-6.5-5t-4.5-6q0-1 1-1-6-5-11-16-2-5-4.5-10t-4.5-9l-6 6q-1-5-6-10-4-4-6-11h-2l5-11h-2v-3l-14-9q5-2 5-6 0-5-3.5-12t-6.5-12q10 5 19 9t20 6q26 41 54 84.5t57 81.5q21 28 48.5 61t59 65 64.5 58 64 39q1 1 4 1 0 0 2 2l5-1q5 4 13 5t14 1q20 0 29-15t9-33q0-27-11-55t-22-53q-1-2-2-4.5t-2-4.5q-3-5-5-10-7-4-12.5-14.5t-7.5-17.5q-7-3-11-13t-12-10l2 11h-1v-1h-2q-2-9-5.5-22.5t-15.5-13.5h-1q0-1-1-1l-1-7-7-10-11-2q-4-4-15.5-17t-11.5-18q1-1 1-3 0-8-12-22.5t-26.5-26.5-22.5-12q-1-2-3.5-6.5t-4.5-5.5l46-12q21-6 44-17 1 0 2 1h2q7 0 14-6l3-2t2-2q0-1 2-1 1-1 0-1 6-2 9-4 4-4 8-6 39-33 39-85 0-24-8.5-47t-20.5-44q18 3 36 5t36 2q2 0 10.5-0.5t8.5-3.5l-1-2q-13-2-25-3.5t-24-3.5l-49-9q-26-39-51.5-63.5t-56-44-73.5-45.5l-1 1q-7-3-25-12.5t-35-17-23-5.5q-1-1-1-6-1 0-14-6.5t-25.5-12-15.5-4.5l-6-9-39-10-1 3-1 1-23-5-1-2 3-3q2-2 2-3t-2-3l-17 1v-1l-15-7-2-4-12 13-7-17-21 2-2-4h-7q-6 0-12.5-1t-11.5-4zm193 508q15 4 39 4 15 0 28 3 7 1 14 1.5t14 0.5 8-1h6q63 50 111.5 112.5t90.5 129.5q8 12 18.5 29.5t18 36 7.5 32.5q0 3-0.5 7t-2.5 6q-1 1-6 1-10 0-23-9t-27-21-26-21-20-9q0-4-13-17t-27.5-25.5-17.5-15.5q-19-19-47-49.5t-53.5-62-40.5-54.5q-6-10-12-19.5t-13-19.5zm14 261 4 6h-2zm-353-88 3 3q0 1 2 3h-2zm335-29h7v6h-4v-3zm-363-6t2 6h-4v-3h2zm-30-26h4v3h5v6h-2v-3q-1-1-4-1-3-1-3-5zm358-52 3 2q0 1 2 3h-2zm-374-6q-1 1-1 4-1 1-1 2t-1 2v-5q0-3 3-3zm372-124q15 0 41.5 11.5t52 26.5 37.5 25l-51-3q-27-1-52-8l-34-52zm-27 7 21 31q-8-5-15.5-10t-13.5-13q3-5 8-8zm-161-240q18 29 37 57t38 56 38 56 38 56l-8 7h-2q-5 0-2 3v1q-1 1-3 5l-4 4q-1-1-9.5-11.5t-8.5-13.5l-32-47v-9l-11-6q-1-10-9-15t-7-15q-4-5-7-9.5t-7-9.5q-4-4-7.5-9t-6.5-10q-2-3-6.5-14t-8.5-22.5-6-18.5q-3-9-2-17 0-10-4-18zm92 190v2q0 1 1 1v6q-2-6-2-7zm-37-67v5l7 7zm-45-270q9 0 16 4.5t14 9.5q0-2-1-3l-2-3h13v7l9-4q5-3 7-3h4l3 3 3 4h19l-1 1q0 1 1 1l27 11 8 1q9 6 21 5.5t12 13.5q5 2 12.5 6t16.5 8q18 8 28 8h4q1-1 3-1t5 3q2 4 4 2 2 8 15.5 16t19.5 12l53 29-1-1q4 4 7 6v-1l18 8 3 10 3 2q2 2 4 2 9 0 17-5l-6 18q1-1 4-1l3-2q6 2 6 2 5 0 7-1 4-2 6-2 5 0 14.5 9.5t13.5 13.5l-30-6q-7-2-14.5-3.5t-15.5-3.5l-36-9q-9-2-18-5t-18-5q-13-4-34.5-12.5t-44.5-18-42-15-27-3.5v-2l-6-6q-3 0-3 4l-1-1q-10-4-20-8t-21-8q-10-4-20.5-7.5t-20.5-8.5v-3q-2-2 0-4l-12-1q-2-5-4-6-3-2-5-5-20-4-37-21-1-4-1.5-7.5t-0.5-5.5q0-18 19-18zm359 170q-1 0-4.5 2t-1.5 4q5-1 6-6z"/><path transform="translate(52.16 16) scale(.016 -.016)" d="m167 73q-3 0-5 2-1-1-6-1-13 0-26 18t-13 31q0 23 12 48l22 46q6 12 6 16 0 0-5 8l-5 5q-2 2-3.5 3.5t-3.5 3.5q-6 7-12 16t-8 21q-2-2-9-15t-14-25-11-12q-2 0-3 1t-3 1-5-8q-4-6-11-17.5t-14-21.5-13-10q-4 0-4 4 0 3 4 11.5t9.5 17 7.5 10.5q12 17 20 30t15 27q6 13 12.5 26.5t15.5 30.5q2 14 6 29 15 45 35.5 78.5t51.5 68.5q7 7 16.5 17.5t19.5 19.5 17 9q6 0 14-5 4-2 7-4t6-4l20-11q11-6 11-19 0-5-1-6-3-11-19.5-23.5t-36-25.5-31.5-25q-18-16-31-36t-24-43q-1-4-2.5-7t-2.5-7q-1-7-5-16-1-2-2-4.5t-1-5.5q0-5 1-7 1-3 1-8 0-6-1-8-1-3-1-9 0-11 11-20.5t21.5-20.5 10.5-25q0-12-8-29t-18-34-16-31l-5-12-2-7q0-2 1-2l2-3q9 0 25 13t32 28.5 22 21.5q12 13 22 27.5t19 29.5q2 5 6.5 11.5t9.5 6.5q6 0 6-7 0-6-10.5-23.5t-22.5-34.5-17-22l-1-2v-1q-3-7-9-9-1-1-3-5t-3-5q0-2-3-4l-4-1q-1-4-6-7l-6-6q-1 0-1-1t-1-1q-1-6-8-6-2-4-5.5-10t-8.5-6q-5-7-13-7-1-1-1-3 0-1-1-2-2-5-9-5-1-1-4-1z"/><path transform="translate(55.824 16) scale(.016 -.016)" d="m328-23q-15 0-25.5 7t-21.5 18l2 2q0 1-2 3-7 9-9.5 14t-4.5 10q-1 5-2 10t-4 14q-1 4 0 5v20q0 5 0 9.5t-1 9.5q-1 4-1.5 7.5t-0.5 5.5q0 1 2 7 0 3 1 4-2 2-2 3 0 0 0 0.5t1 1.5l1 1t1 1q0 1 1 2-1 0-1 1 0 2 1 2-2 10 1 15 3 6 0 17h5v7l1 1-5 7 7 1v1q0 1 1 2 11 26 18 51l-6-1v7h2q5 8 9 18 2 5 4 8t3 7l-1-1q-7-7-8-15-1-5-3.5-9t-6.5-8-7-5q-4-3-6-8-9-20-21.5-38t-24.5-35q-2-3-6-7t-6-9q-3-5-5-10l-6-10q-2-4-5-7t-7-7l-14-13q-25-29-51.5-57.5t-61.5-45.5q-3-1-5-1.5t-4-0.5q-12 0-19.5 11t-7.5 22q0 5 2 11l4 10q2 6 2 11t2 11q3 11 7 20.5t9 20.5q0 0 2 9 0 7 1 9-5 2-5 3t1 1v1q3 6 7.5 14.5t12.5 9.5q5 11 9.5 21t9.5 20q10 19 15 43l3 4h-2l-3 4 4 6-6 3 6 3h-4v2q-1 1-1 3t1 3q4 7 5 14 2 8 6 12h-1l-1-1h-2q-3 0-3 2v1q0 11 6 21 1 4 2 7t2 7q1 3 1.5 6t0.5 6q0 4-1 6-2 4-2 7 0 4 3.5 7t6.5 5v1q-2 1-7.5 3.5t-6.5 2.5l1 4q-2-2-3-2 1 0 0-1h-2q-3 1-11 3-9 2-9 6 0 2 5 4.5t7 2.5q14-3 34.5-7.5t39-10.5 25.5-16q2-3 2.5-6.5t0.5-6.5q0-9-4.5-20t-8.5-20q-3-6-3-8 0 0-2-6-5-5-7-8-4-4-9-6l1-3 1-1q2-2 2-3 2-4 2-8 0-2-1-5t-5-4l-2-2h1q-2-4-2-7v-3q0-2-1-5t-4-4q-2-5-6.5-16t-8.5-15l-3-6 1-3-4-3q-1-7-8-14-7-5-5-14h-2q1-1 1-2 0-2-2-2-1-3-4-6.5t-9-5.5q-3-11-9-29.5t-11-33.5-6-18q1-1 4-1 4 0 12 4.5t6 11.5q4 0 7 5 4 4 7 5 12 10 23 20.5t21 22.5 20 24 20 23q1 1 12.5 15t27.5 34 32 41 26 36 9 19h8l1-1 2 2-5-1v6h2q2 3 4 6t4 5q3 3 5 12 1 4 2 7.5t2 7.5q2 7 11 8l1 1q9 0 27-3t32.5-9 14.5-16q0-8-6.5-20t-14.5-23q-4-5-7-11t-7-11q-7-11-12-23h-3v-2q-2-1-5.5-4.5t-5.5-5.5h3q0-5-1-8l-1-8-6-10h-5q0-4-5-4-3 0-3 2-1 0-1 3 0 2 2 2l5 10-2 2q-3-7-4.5-12t0.5-13h-1l1-1-5-2-1-7-3-9q-3-10-9-12l2-4-3-12-3-4h1l-13-20q1-1 1-5 0-8-4-15t-6-16l1-3-2-2q1 0 1-2l9-3q-5 0-7 1v-7q0-4 0-7.5t-1-7.5-1.5-7-0.5-7q0-8 3-14 2-3 2.5-6.5t1.5-7.5q1-2 1-6.5t0-9.5q1-8 13.5-14t20.5-6q10 0 16 3t14 8l-1-1h4v-1q-5-11-21-18.5t-26-7.5zm-214 177h1q2 4 4 5l-1 4q-2-3-4-9z"/><path transform="translate(61.792 16) scale(.016 -.016)" d="m128 10q-5 0-9.5 0.5t-9.5 1.5q-5 2-10 3t-10 2l1 5q-31 0-41.5 11.5t-10.5 43.5q0 3 1 4v3q5-1 8-1.5t5-0.5q10 0 14 4 6 1 12 1t12 1q5 0 11 0.5t11 1.5v1q-17 34-29.5 62t-12.5 62q0 23 8.5 42t13.5 40q2 6 6.5 6.5t6.5 1.5q4 5 7.5 9t7.5 8q3 3 6.5 5.5t6.5 5.5l7 6q27 23 61 39.5t65 29.5l26-17q5-10 12-21 7-10 7-23v-4q-1-2-1-6l-6-9t-15.5-10-36-22-36-21.5-16.5-9.5q-4 0-4 3t12.5 13.5 28.5 23 29 21.5 14 10q-28-3-55-11.5t-48-23.5q-2-1-6 0t-6-1q-3-2-4-8t-3-8q-13-13-20.5-31t-7.5-41q0-5 5-23.5t13-40.5 17-38 17-16h25q6 0 12 0.5t12 1.5q11 2 21 6 21 5 42 6 7 4 17 6 5 1 9.5 1t8.5 1l6-3-1-9q-7-2-22.5-8t-31-11-23.5-5l-4 1q-1 0-1 1h-1q-8 0-16-3-4-2-8.5-3.5t-8.5-3.5q-8-3-18.5-5.5t-21.5-1.5q-2-20-14.5-37.5t-35.5-17.5zm-21 39q3 0 3 6 0 2-1 5.5t-3 3.5q-5 0-11 0.5t-11 1.5q-6 1-12 1.5t-11 0.5h-1q2-3 13-7.5t22-8 12-3.5z"/><path transform="translate(66.016 16) scale(.016 -.016)" d="m9 8q-14 0-24 13.5t-10 26.5q0 4 0.5 7.5t1.5 7.5q2 4 3 7.5t2 7.5l3 18 4 16q3 10 9 28.5t12.5 35.5 8.5 22q10 25 26 50 7 12 13.5 24.5t12.5 25.5q2 5 5.5 10.5t7.5 10.5 7 10 7 10q1 2 1.5 3t0.5 2v1q0-1 1-1 2 13 7.5 23t12.5 19q8 12 16.5 22.5t13.5 16.5q8 11 9.5 32t7.5 29l15 15 14 15q4 4 7 8.5t6 8.5q4 9 11 17t14 15.5 14 14.5q4 5 7.5 9.5t6.5 9.5 6.5 9.5 7.5 8.5q14 17 30 31.5t33 29.5q8 7 16.5 15t17.5 16q18 18 37 25l23 9q5 2 10.5 4t10.5 6q7-3 20.5-9.5t24.5-15 11-17.5q0-4-3-9-4-7-22.5-14.5t-26.5-12.5q-12-7-21-18-5-5-11-9t-13-8h-2q-6-6-18-13l-20-11q-4-2-5.5-3.5t-2.5-2.5-2-3.5-3-6.5q0-1-1-1t-1-1l-3-2-1-1 6 1 1-5q0-3-3-3-7-7-13.5-12.5t-13.5-12.5l-27-27q-7-7-11-16-6-10-15-12v-1q0-10-15-23.5t-26-24.5q-6-4-8-9h-1v-1q0-8-9-19.5t-20-11.5v15l3 2q4 1 5 4h6l1 1h-1q12 20 9.5 22t-13-8.5-24-28.5-23.5-38q-1-12-13-24-10-12-18-24v-1q-7-13-14-24.5t-14-22.5-13-21.5-11-21.5q-11-21-20.5-44.5t-19.5-53.5l-18-57q-4-14-7.5-29.5t-4.5-31.5q1 2 2.5 3.5t2.5 3.5l6 9q5 8 10 16.5t10 17.5q5 8 11 16t11 15q11 14 15 14 3 0 3-3 0-4-9.5-22t-22.5-40-24.5-38-15.5-16zm311 558q4 2 7.5 5t6.5 5q6 5 6 7l-3 5q-5-4-10.5-10t-6.5-12zm-19-11q4 2 9 4.5t10 5.5l-8 2zm7-637q-20 0-34 12t-26 26q-6 6-9 8-5 3-5 11l5 2v1q-18 24-22 53-3 15-6.5 29.5t-7.5 27.5h2l-1 1q-2 6-2 11v10q0 12 1 15-1-1-4-1h-1v2h-2q1 3 1 9v7q0 3-0.5 16.5t-2 30.5-4.5 29-8 12q-2 0-11-9t-20-20.5-19.5-21-9.5-11.5q-6-6-11-10.5t-11-8.5v9q3 5 6 9.5t5 9.5 5 10 6 9 6 7.5 7 7.5q3 3 6 6t5 7q7 7 12 17t12 17q8 11 24.5 29t27.5 21l24 6h5q1-4 3-9t4-12q4-12 4-21 0-17 0.5-33.5t0.5-33.5v-77q0-4-2-10 1-3 1.5-5.5t0.5-5.5h1v-1l6 2q0-18 0.5-32t8.5-31q3-3 3-6 0-2-2-2v-2h-6q-1 0-3-2h-1q0-5 1-6v-6l8 5q3-27 17.5-49t40.5-22h4q1 1 3 1l10 6q3 2 6 4.5t7 4.5q6 5 11 11t5 21q2-6 3-9.5t2-5.5v-3q0-7-4-12.5t-8-10.5q-12-17-29-30.5t-39-13.5zm-225 215q-4 0-4 4 0 2 3.5 8t8.5 6q4 0 4-7 0-11-12-11z"/></svg>