<svg width="12.8" height="22.4" viewBox="0 0 12.8 22.4" xmlns="http://www.w3.org/2000/svg"><path transform="translate(0 19.2) scale(.016 -.016)" d="m0 50h100v860h-100zm50 50q-14 0-25.5-6.5t-18-18-6.5-25.5 6.5-25.5 18-18 25.5-6.5 25.5 6.5 18 18 6.5 25.5-6.5 25.5-18 18-25.5 6.5zm0 860q-14 0-25.5-6.5t-18-18-6.5-25.5 6.5-25.5 18-18 25.5-6.5 25.5 6.5 18 18 6.5 25.5-6.5 25.5-18 18-25.5 6.5z"/><path transform="translate(1.6 19.2) scale(.016 -.016)" d="m0 50h100v-90h-100zm50 50q-14 0-25.5-6.5t-18-18-6.5-25.5 6.5-25.5 18-18 25.5-6.5 25.5 6.5 18 18 6.5 25.5-6.5 25.5-18 18-25.5 6.5zm0-90q-14 0-25.5-6.5t-18-18-6.5-25.5 6.5-25.5 18-18 25.5-6.5 25.5 6.5 18 18 6.5 25.5-6.5 25.5-18 18-25.5 6.5z"/><path transform="translate(3.2 19.2) scale(.016 -.016)" d="m0 50h100v320h-100zm50 50q-14 0-25.5-6.5t-18-18-6.5-25.5 6.5-25.5 18-18 25.5-6.5 25.5 6.5 18 18 6.5 25.5-6.5 25.5-18 18-25.5 6.5zm0 320q-14 0-25.5-6.5t-18-18-6.5-25.5 6.5-25.5 18-18 25.5-6.5 25.5 6.5 18 18 6.5 25.5-6.5 25.5-18 18-25.5 6.5z"/><path transform="translate(4.8 19.2) scale(.016 -.016)" d="m0 50h100v-20h-100zm50 50q-14 0-25.5-6.5t-18-18-6.5-25.5 6.5-25.5 18-18 25.5-6.5 25.5 6.5 18 18 6.5 25.5-6.5 25.5-18 18-25.5 6.5zm0-20q-14 0-25.5-6.5t-18-18-6.5-25.5 6.5-25.5 18-18 25.5-6.5 25.5 6.5 18 18 6.5 25.5-6.5 25.5-18 18-25.5 6.5z"/><path transform="translate(6.4 19.2) scale(.016 -.016)" d="m0 50h100-100zm50 50q-14 0-25.5-6.5t-18-18-6.5-25.5 6.5-25.5 18-18 25.5-6.5 25.5 6.5 18 18 6.5 25.5-6.5 25.5-18 18-25.5 6.5zm0 0q-14 0-25.5-6.5t-18-18-6.5-25.5 6.5-25.5 18-18 25.5-6.5 25.5 6.5 18 18 6.5 25.5-6.5 25.5-18 18-25.5 6.5z"/><path transform="translate(8 19.2) scale(.016 -.016)" d="m0 50h100v180h-100zm50 50q-14 0-25.5-6.5t-18-18-6.5-25.5 6.5-25.5 18-18 25.5-6.5 25.5 6.5 18 18 6.5 25.5-6.5 25.5-18 18-25.5 6.5zm0 180q-14 0-25.5-6.5t-18-18-6.5-25.5 6.5-25.5 18-18 25.5-6.5 25.5 6.5 18 18 6.5 25.5-6.5 25.5-18 18-25.5 6.5z"/><path transform="translate(9.6 19.2) scale(.016 -.016)" d="m0 50h100v160h-100zm50 50q-14 0-25.5-6.5t-18-18-6.5-25.5 6.5-25.5 18-18 25.5-6.5 25.5 6.5 18 18 6.5 25.5-6.5 25.5-18 18-25.5 6.5zm0 160q-14 0-25.5-6.5t-18-18-6.5-25.5 6.5-25.5 18-18 25.5-6.5 25.5 6.5 18 18 6.5 25.5-6.5 25.5-18 18-25.5 6.5z"/><path transform="translate(11.2 19.2) scale(.016 -.016)" d="m0 50h100v280h-100zm50 50q-14 0-25.5-6.5t-18-18-6.5-25.5 6.5-25.5 18-18 25.5-6.5 25.5 6.5 18 18 6.5 25.5-6.5 25.5-18 18-25.5 6.5zm0 280q-14 0-25.5-6.5t-18-18-6.5-25.5 6.5-25.5 18-18 25.5-6.5 25.5 6.5 18 18 6.5 25.5-6.5 25.5-18 18-25.5 6.5z"/></svg>