<svg width="88.688" height="16.88" viewBox="0 0 88.688 16.88" xmlns="http://www.w3.org/2000/svg"><path transform="translate(0 13.104) scale(.016 -.016)" d="m873 606h181q0-118-23.5-224t-57-173-67.5-116.5-58-70.5l-23-22h-227l-75 243q-14-47-43.5-107.5t-52.5-97.5l-23-38h-217l-187 606h317l57-394q15 15 37.5 54.5t38 81 29 111 14.5 147.5h215l57-394q70 88 97 246 11 70 11 148z"/><path transform="translate(17.344 13.104) scale(.016 -.016)" d="m291-10q-113 0-189.5 65.5t-76.5 192.5q0 80 39 136 71 104 220 104 114 0 174-45.5t60-125.5q0-62-49.5-100.5t-144.5-38.5q-39 0-70 6l-11 2q5-36 31.5-53.5t63.5-17.5q61 0 104 37l62-75q-16-19-38-35.5t-70-34-105-17.5zm-51 301q22-10 57.5-10t55 12.5 19.5 32.5-15.5 33-42.5 13-50.5-24-23.5-57z"/><path transform="translate(26.032 13.104) scale(.016 -.016)" d="m408 488q70 0 120.5-59t50.5-153.5-23-275.5h-175l-20 224q-10 107-58 107-57 0-61-108l-7-223h-184l-21 474h226l-4-85q5 10 23 31t35 34q44 34 98 34z"/><path transform="translate(35.776 13.104) scale(.016 -.016)" d="m25 248q0 69 19.5 119t51.5 75q59 46 131 46 36 0 66.5-14.5t42.5-29.5l12-14-8 219h228l-27-649h-150l-17 65q-60-74-147.5-74.5t-144.5 65.5-57 192zm266 106q-59 0-59-120 0-22 3-42t18-42 44-22 44.5 32.5 15.5 73.5q0 120-66 120z"/><path transform="translate(45.344 13.104) scale(.016 -.016)" d="m377 111v8q-3-17-15.5-37.5t-27.5-34.5-42.5-25-72.5-11-85 20.5-62 56.5q-42 67-42 147.5t23 238.5h194v-216q0-110 65-110 29 0 43 26t14 66q0 5 0 11l-9 223h225l-14-307q-3-65-9.5-111t-24-94.5-45.5-78.5q-65-68-193-68-90 0-169 56l-9 6 42 86q48-22 90-22 58 0 91 44.5t33 125.5z"/><path transform="translate(58.304 13.104) scale(.016 -.016)" d="m20 299q0 157 91.5 239t262 82 262-82 91.5-239-96.5-233-257-76-257 76-96.5 233zm441 4q0 202-87.5 202t-87.5-202 87.5-202 87.5 202z"/><path transform="translate(70.256 13.104) scale(.016 -.016)" d="m408 488q70 0 120.5-59t50.5-153.5-23-275.5h-175l-20 224q-10 107-58 107-57 0-61-108l-7-223h-184l-21 474h226l-4-85q5 10 23 31t35 34q44 34 98 34z"/><path transform="translate(80 13.104) scale(.016 -.016)" d="m291-10q-113 0-189.5 65.5t-76.5 192.5q0 80 39 136 71 104 220 104 114 0 174-45.5t60-125.5q0-62-49.5-100.5t-144.5-38.5q-39 0-70 6l-11 2q5-36 31.5-53.5t63.5-17.5q61 0 104 37l62-75q-16-19-38-35.5t-70-34-105-17.5zm-51 301q22-10 57.5-10t55 12.5 19.5 32.5-15.5 33-42.5 13-50.5-24-23.5-57z"/></svg>