<svg width="86.736" height="21.28" viewBox="0 0 86.736 21.28" xmlns="http://www.w3.org/2000/svg"><path transform="translate(0 16.24) scale(.016 -.016)" d="m212-2-20 2-13 14-18 7 2 9-22 25-3 15 6 17-15 18 1 16 2 25-8 14 1 16-11 17-8 9 2 21-2 7-7 20-1 9 2 20-4 16-5 11-7 15-5 19-12 25-1 17 3 14-4 16-4 14 4 10-10 14-4 16 2 21-14 9 6 14-7 15-7 20 3 8-7 18-2 14 4 13-16 31 10 9-1 12 23 8 3 5h31l20-1 19-16 7-13 8-31-6-7-1-17 10-17-3-30 2-14 5-10 12-22 1-9-6-22v-9l10-17 4-11 5-24-6-7v-19l11-14-6-15 3-19 9-15-1-13 11-8-5-23 1-13 9-14 2-11 5-21 7-12-2-18 6-9-1-33 14-19v24l12 8-1 14 6 19-6 10 12 19v15l11 17-7 17 15 8v15l3 14-6 19 16 18-4 27 7 15-3 17 7 23 6 14-2 18 12 11-4 15 1 22 14 8-4 18 1 13 5 35 9 9-10 17 3 17 13 32v12l13 6 19 6 21 8 20-6 18-11 6-3 8-15 6-34-2-13 7-10-9-21 8-9 4-15 7-16-1-14 5-29v-20l7-13-8-11 7-21 4-9-3-16 7-18 10-16 6-12-4-12 10-15-3-14 10-17-6-16 3-11 2-22 10-14-5-13 6-17 10-9 6-17 4-17-5-13 16-20 3 17 5 14 6 22-2 6-6 17 13 14-2 14 8 21-6 15 7 11 13 12-3 20 5 9-6 23 5 15 12 14-9 9 8 16 5 11-6 19 4 17 9 15-1 8 3 19-1 12 11 15-1 19-6 32 13 7 1 18-4 17 5 16 7 7v31l11 17 4 1 17 12 5 7 41-6 6 1 12-10 10-11 14-10-17-34-1-12-3-20 1-13-6-17 1-11-5-17-5-36-15-21 2-10-7-15-5-16 1-16-2-14-10-11 7-16-15-18-5-7 1-20 1-16-11-10-5-16 2-20 4-9-10-20-2-7-2-29-6-22-9-6-4-14-5-17v-21l-1-21-13-15-1-18-3-31-15-4-17-9-2-6-25-11-29 2-8 7-22 8h-13l-4 18-7 28 4 18-17 6 8 23-3 25-6 13-14 18 7 29-15 12 9 18-10 17-3 10-7 15v15l1 10-3 18-7 17 2 13-13 18 5 16-4 13 2 17-11 8 2 18-5 13-5 14-13-15-2-9 3-20-7-10-1-21 5-14-6-9-2-14-6-16-4-16v-33l-6-9 1-17-7-15-8-14 5-14-15-20 3-10 1-20-9-12-5-11 5-21-3-13-15-17 4-12-5-11v-30l-10-9-21-15-14-6-11 2z"/><path transform="translate(12.32 16.24) scale(.016 -.016)" d="m118-9-14 1-6 12-20 8-6 9 3 30-2 22-4 10 15 13-4 14 5 21v17l-10 25 5 21-6 9 3 20 11 7-4 15-1 15 2 15v16l-7 16 1 22-6 11 6 14-4 16 8 15-6 15 6 17-9 18 5 14-9 30 13 8 10 11 10 5 24 3 30 2 10-8 4-13 18-11-10-32 5-11 6-17-2-14-11-12 8-20v-12l-4-16 2-22v-15l-5-8 8-18-7-18 10-13-5-17-5-16 9-8-2-13 4-22-6-13v-29l-1-19 12-8-4-22-6-10 10-17 4-25-19-17-12-6-6-12-12-3zm-2 587-15 6-9 10-11 13-8 10-5 8-7 12 4 15 2 10 6 14 6 15 9 8 9 9h9l12 9 6 5 11-3 9-3h18l10-13 8-9 11-11 3-8 6-14v-10l1-14-5-14-6-16-9-8-8-7-5-10-18-3h-9l-12-1z"/><path transform="translate(16.512 16.24) scale(.016 -.016)" d="m73 481 13 18 1 5 29-1 19-10 14-5-2-30 34-11 5 12 16 5 14 9 11 10 15 5 13 6 9 10 25 1 4 3 31-1 20-3 12 6 11-4 20-10 9-7 16-6 9-17 16-5-4-18 5-5 5-19 11-10 1-19 5-11 3-23-6-10 13-12-3-16-1-38-2-16 4-7-4-19-2-16 5-12 5-15 1-18-1-15-3-20-4-17 4-13 5-15-8-12 6-20-2-8 7-34-9-13-12-11-8-9-15-1-26 4-20-1-17 10-4 10-16 8-1 28 2 21 1 18 1 15 10 17-6 11 4 16-2 15 8 16 1 13-7 18 7 11-1 22-10 15 12 11-9 22-3 30 1 12 2 17 6 11-12 12-5 12 8 17-32 24-1 5-16 9-28-5-17-5-18-1-15-16-8-3-4-15-10-14-14-8-3-16-7-10 1-11-5-15-8-36-2-17v-9l8-20-6-13 7-21-4-15 7-7-12-24 2-7 3-20 7-15-8-12 6-20 2-10-5-22v-37l-12-15-7-3-20-9-20 6-17 1-20 8-1 4-9 14-1 31-4 13-2 14v21l1 15 9 9v18l-2 11-6 23 1 9 2 19 1 12-3 11 9 17-2 22-3 12-4 17 1 15 5 11 5 15-9 16 5 11-7 20 3 9-3 19 5 14-11 14 5 17z"/><path transform="translate(25.152 16.24) scale(.016 -.016)" d="m108-5-10-2-11 6-13 10-6 15 1 29 4 12-6 16-3 22 8 13 1 14-3 16 1 9-4 21 6 11 1 20-5 13 5 12 2 17 2 12 1 25 2 6-5 17 4 20-7 10-4 20 10 17-4 7 4 19-1 14 1 15-2 21-5 9-5 18 1 19v29l10 13-8 12 1 18-6 16 11 16-4 11 2 16-4 17-9 26 9 15 20 15 14-2 16 11 27 1 12-7 7-18 8-14 7-29-8-12 7-17-11-15 9-14-14-21 7-6 5-20-14-12 14-14-1-17-4-15-6-13v-17l-4-13v-16l-1-21 3-17 6-6-6-15 6-16-5-21v-12l9-12-4-13-4-15 17 10 13 7-1 9 10 10 16 12 3 15 8 14 20 7 10 7-3 16 16 14 8 16 14 11 6 14 19 38 6 13 15 2 10 15 13 2 21 3 25-1 10-11 10-16-11-11 6-17-8-8-17-15-14-13 1-10-16-15-9-11-16-12 2-13-10-12-18-15-3-12-17-16 18-12 19-12 11-3 10-11 3-7 13-18 17-4-2-15 22-15 8-10-6-19 8-5 17-18-6-10 15-13 9-18-8-16 17-11-4-10v-22l7-24-18-28-11-5-16-1-30-4-16 4-5 13-2 19-14 22-4 15 3 21-11 15 9 5-11 14-13 21v14l-4 5-15 17-6 9-3 16-6 8-21 9-3 11-16 4-17-11-12-13-15-5v-17l-15-7-10-12-17-16v-22l2-19 6-10 1-13 2-21-1-16-2-23-13-14-13-17-11-8z"/><path transform="translate(33.088 16.24) scale(.016 -.016)" d="m74-207-12 9-13 8 8 17-2 17-2 16 27 12 20 8h15l5 7 19 13-3 10 11 15 8 11 5 14 13 15 13 10 9 28-11 14-12 15 3 19-20 14-5 8 4 13-11 13-7 14-10 15 1 12-1 20-15 10 7 16-7 17-3 11-10 13-3 17-1 17-5 6-11 21-6 15-1 8-5 17-5 14-9 11-1 15-4 20-3 14v16l-5 9-8 14v25l-4 21 15 13 5 6 16 1h31l15-3 22-7-6-20 8-26 14-19-3-12 7-10-9-15 7-23 5-9-2-22 6-10 1-18 12-12 4-11 1-22 7-8-8-21 13-8 6-21 6-14-5-14 17-13v-14l6-13 10-16 7-13 19 16-3 10 13 21v10l9 12 1 21-1 8 6 14 2 19 13 11v16l7 19 2 7 4 16-9 14 8 23 3 15-4 10 4 11 7 18-1 19 1 11v12l12 28v19l9 8 15 5 19 2 25-2 19-1 17-20 5-7-13-38v-8l-6-22 2-9-12-14 5-17-11-11 1-22 4-11-14-20-6-6 6-21-3-17-4-7-13-14 3-18-11-11-4-13 2-16-7-19 3-9-14-17-6-18 1-6-3-21-11-8-2-22-4-5-6-15-9-19-12-15-5-23-10-13-2-11-18-19-10-15 3-6-10-17-5-12-6-18-22-6-8-15-7-6-5-12-15-13-14-9-15-10-11-3-15-3h-16z"/><path transform="translate(44.512 16.24) scale(.016 -.016)" d="m162 26-15-18-9-3-14-6-29 1-9 5-17 12-4 2-7 15-10 34v22l5 19-1 15 3 13 4 15-3 20-7 15 8 10 3 15-6 21 4 15 4 9-5 19 6 12v13l-7 16 1 17-6 13 8 14-8 17 4 17 1 9 5 16-11 13 6 15 3 16-7 16 9 21v10l-6 14-3 16 7 18-6 10-7 18 2 18 9 26-1 13 8 9 18 2 13 6 31 9 8 5 17 4 13-3 9 7 21-6 11 2 21-3 8 2h36l20 7 7-11 20 2 10-6 23 3 15-7 22-9 22-11 2-2 12-17 10-4 16-12 15-15 9-7 9-17-3-18 5-10 4-15 6-16-3-11-1-34 4-10 3-18-11-15 1-14-9-15-15-16-7-10-10-11-8-13-3-9-20-2-9-8-20-12-15-1-7-17 9-10 15-9 9-7 8-13 2-10 22-12v-6l9-13 7-13 12-17 8-12 11-12 4-9 5-20 3-10 3-17 6-17 10-9 4-35-6-6-13-18 2-7-18-5-14-10-24 1-15 7-13 10-15 5-13 32 9 9-4 22-16 14v15l-9 11-2 15-8 7 2 20-18 16-3 7-10 12-8 12 3 13-22 12-7 12-11 12-10 13-12 11-11 5-11-7-24 2-5 4-27-1-15 2-1-24-9-9 10-18v-16l-10-9 6-16v-18l7-35-7-7 6-18 2-10-3-20-4-18 2-8 13-37zm101 343 18 4 22 3 9 3 15 3 16 3 6 12 11 4 9 11 11 14 3 13 16 12-2 21-9 23 3 13 5 19-14 14-10 6-5 15-14 12-4 7-26 8-10 3-7-3-46 4-22 2-15-2-19-2-5-3h-21l-29-5 6-25-1-8 1-19-1-15v-23l5-21 8-13-13-11 11-19-10-17 11-6-4-24 25-12 10 5 9-3h20l10 2z"/><path transform="translate(53.056 16.24) scale(.016 -.016)" d="m269-14-25 3h-16l-20 7-18 1-15 12-24-2-16 15 1 6-25 8 2 10-8 9-18 17v14l-4 11-18 10 5 21-7 13-11 15-1 8 1 17-8 25 9 30 3 28-3 12 4 19-8 10 4 21 11 12 1 14 3 19-1 10 18 8-2 23 14 6 10 16 2 15 18 4 1 14 17 3 14 9 2 15h23l18 10 21 5 14-2 25-1 21-3 17 5 14-10 7 2 26-9 10-10 14-4 13-9 8-12 10-7 13-20v-13l2-7 16-18-4-15 12-8 11-16-6-12 5-14 6-19-4-13 1-20 7-8-1-30-2-26 5-13-5-13-3-15 3-21-11-15 3-12-6-11-15-11-4-12-7-17-2-14-12-7-19-14-14-14-20-8-5-7-18-5-11-8-20 2-11-4zm-32 85 39 8 22 3 10 11 18 6 10 23 16 18-7 9 6 14 5 15-2 21 4 7 2 36-3 26 8 15-2 7-4 35-12 8-3 29-9 17-12 9 2 20-21 5-1 7-39 13-31-4-28-7-13-19-10-15-10-5 2-16-14-12-7-15 9-18-4-13-4-20-8-12 9-13-7-28-3-31 12-7-6-21 10-9-1-15-3-19 16-9-1-15 30-19 16-9h10z"/><path transform="translate(61.216 16.24) scale(.016 -.016)" d="m215-12-18 1-18 4-13 9-10 2-7 9-25 9-7 6-3 8-17 11 1 18-12 17 2 8-11 15 7 21-11 9-1 18 2 12 1 17 4 35 2 10-6 19v18l4 15-3 12v20l-1 13 2 13-6 13 7 18-4 20-4 15 4 15-11 9 8 21-4 31 7 11 13 12 7 5 12 4 35-1 12-9 15-2 11-6 14-17-11-29 6-13-7-21-5-17 5-13 3-18-1-13 1-17-10-16-2-8 1-18 8-19 1-17-9-14 11-13v-17l-3-32 3-13-10-14 5-12 11-24-8-12 22-13 11-11 7-6h9l37-3 8 9 25 7 15 8v10l15 7 11 9 5 12 18 20-7 10 4 15 2 35 5 20-6 13 9 8-6 21 4 10-7 21 8 12-5 21 7 11-7 12 2 23 5 13-13 13 6 14 5 23 4 22-3 21 8 7 21 8 27-4 16-3 9-4 11-8 6-12 2-27-5-19 13-19-2-12-12-17 1-7 1-16 2-18-9-16 8-17 2-10 1-20 1-11-5-12 2-13 2-17v-19l-6-12-1-19 4-14-5-9-3-19 6-11 1-20 3-16-6-8 4-19 7-9 8-30-17-8-8-17h-16l-29-3-2 8-17 18-2 30-28-1-7-10-29-13-13-9-15-10-14-10-10-4-13-2-24 3z"/><path transform="translate(69.936 16.24) scale(.016 -.016)" d="m211-214-4 3-29 6-15-2-4 4-16 1-49 19-3 9 4 18-3 30 13 6 13 14 32-7 10-4 9-8 18-4 22-8 15 5 15 1 28 3 9 1 15 6 9 11 15 5v15l15 6-3 23 6 12v12l2 15 5 15v31l-25 7-12-12-9-5-18-7-12-8-20-5-7-4-19 1-30 3-28-3-15 1-9 13-11 2-16 12-2 7-9 14-19 4-3 21-9 5-9 15 9 14-9 18-11 15v18l9 11-4 17-7 19 6 8-4 34 3 23-6 16 4 20-1 8 9 17-4 18 12 11 5 13-5 12 11 20 9 13 13 14-2 5 6 17 20 14 1 6 11 10 15 4 22 13 6 6h22l3 10h23l10-1 27-1 15 1 24 3 7-8 22 1 10-7 17-2h7l20-6 24-7 16-17 11-2 16-23-10-23 6-28-6-18 6-18-7-11-5-12 7-23-1-12v-11l-1-19-2-13-2-15 6-13 4-21-6-15-2-13-5-16-2-8 3-21 9-13-11-14 3-10 2-24 8-14-6-16-7-14 6-14 5-23-4-14-8-17 1-14 1-22-11-10v-17l-8-14-3-15-19-11-8-10-15-8-3-9-8-12-24-4-11-10-24-8h-33l-17-3zm30 287 17 3 21 16 19 11 1 15 29 20-3 16 9 33 6 23-4 33-1 20 3 9 8 20-1 16-8 12 8 14-6 19 8 20-8 8 6 19-2 22-30 6h-19l-7 6-16 2h-31l-23-5-19-20-7-2-14-19-5-9-10-10 2-23-10-13-2-12 2-17-9-28-5-9 9-29-9-34v-15l9-13-6-8 5-18 9-13-1-12 15-16 6-15 20-21 7 2z"/><path transform="translate(78.112 16.24) scale(.016 -.016)" d="m113-13-25 10-11 5-12 6 5 19-6 30 5 14-8 10 10 22-5 14 1 15 4 12-7 20-3 13 13 11-5 13-7 23 12 14-5 15 6 14-1 16 1 13 1 20-2 12-4 18 4 8-9 18 2 20 10 13 2 17-11 11 3 11-3 17 10 17-3 16-6 11-3 16 6 17-2 13-2 21 7 13-6 11 1 23 7 15-3 14 5 26 5 19 8 13 12 5 36-2 9-8 11 1 19-11-2-14 9-29-2-14-9-15 9-15-3-13v-15l-7-21 7-9-5-17 2-15-1-28 4-11 5-12 11 11 23 14 6 4 26 5 5 4 17 6 28 2 22 2 23-8 13-2 5 5 16-12 21-2 11-12v-10l15-12 6-6 12-23 7-11 2-11-3-18 13-17v-9l2-13-3-17-5-20 7-25-6-20-3-18 10-13-5-14 4-15-9-13 2-20 4-12 2-21 5-9-4-18 2-11-6-15 8-19 6-16-10-32 4-9-20-16-7 2-21-10-16-1-27 2-8 12-6 6-12 14-2 30 11 16-3 20 3 16-1 11 4 19-3 12-3 14 3 21 1 28 3 12v22l-3 10-1 15 1 21 4 30-1 9 1 15-5 17 2 12-5 15-15 15-6 12-10 10-9 10-14 3-30-3-11-8h-12l-14-15-17-6-9-8-11-15-3-11-19-18 8-6-10-14-10-20 13-29-1-13-1-14-9-23 3-15-5-7 10-18-9-14 2-19 9-14 3-14-4-21v-17l-4-28 6-11-2-28-10-20-3-5-10-11-12 1z"/></svg>