<svg width="28.658" height="15.4" viewBox="0 0 28.658 15.4" xmlns="http://www.w3.org/2000/svg"><path transform="translate(0 12.46) scale(.014 -.014)" d="m354 10q2-6 2-7 0-13-13-13t-13 13q0 5 2 7l-95 619-95-619q2-3 2-7 0-13-13-13t-13 13q0 5 2 7l-104 677q-4 4-4 10 0 13 13 13t13-13q0-5-2-7l95-619 95 619q-2 2-2 7 0 13 13 13t13-13q0-5-2-7l95-619 95 619q-2 2-2 7 0 13 13 13t13-13q0-4-4-10z"/><path transform="translate(6.636 12.46) scale(.014 -.014)" d="m63 620q3-3 3-8 0-13-13-13t-13 13q0 5 3 8v29q-3 5-3 9 0 13 13 13t13-13q0-4-3-9zm0-609q3-3 3-8 0-13-13-13t-13 13q0 5 3 8v477q-3 5-3 9 0 13 13 13t13-13q0-4-3-9z"/><path transform="translate(8.106 12.46) scale(.014 -.014)" d="m60 11q3-3 3-8 0-13-13-13t-13 13q0 5 3 8v477q-3 5-3 9 0 13 13 13t13-13q0-4-3-9v-35q14 23 33.5 35t49.5 12h17q5 3 9 3 13 0 13-13t-13-13q-4 0-9 3h-17q-42 0-62.5-30t-20.5-65z"/><path transform="translate(10.738 12.46) scale(.014 -.014)" d="m241 281h-186v-176q0-23 7.5-45t26-36 49.5-14q47 0 64.5 26.5t18.5 59.5q-3 3-3 8 0 13 13 13t13-13q0-5-3-8-2-27-12-51t-31.5-39.5-59.5-15.5q-39 0-61.5 17t-32 43.5-9.5 54.5v290q0 29 9.5 55t32 43 61.5 17 61.5-17 32-43 9.5-55zm-20 20v94q0 23-7 44.5t-25 36-51 14.5q-31 0-49.5-14.5t-26-36-7.5-44.5v-94z"/><path transform="translate(16.856 12.46) scale(.014 -.014)" d="m248 101q0-28-10-53.5t-32.5-41.5-61.5-16q-40 0-62.5 16t-32 41.5-9.5 53.5v495q0 29 9.5 55t32 42.5 62.5 16.5q39 0 61.5-16.5t32.5-42.5 10-55zm-188 0q0-35 18-63t66-28 66 28 18 63v495q0 23-7.5 44.5t-26 35.5-50.5 14-50.5-14-26-35.5-7.5-44.5z"/><path transform="translate(20.888 12.46) scale(.014 -.014)" d="m246 11q3-3 3-8 0-13-13-13t-13 13q0 5 3 8v384q0 23-7 44.5t-25 36-51 14.5q-28 0-46.5-14.5t-27.5-36-9-44.5v-384q3-3 3-8 0-13-13-13t-13 13q0 5 3 8v477q-3 5-3 9 0 13 13 13t13-13q0-4-3-9v-25q26 47 83 47 40 0 62.5-17t31.5-43 9-55z"/><path transform="translate(24.864 12.46) scale(.014 -.014)" d="m241 281h-186v-176q0-23 7.5-45t26-36 49.5-14q47 0 64.5 26.5t18.5 59.5q-3 3-3 8 0 13 13 13t13-13q0-5-3-8-2-27-12-51t-31.5-39.5-59.5-15.5q-39 0-61.5 17t-32 43.5-9.5 54.5v290q0 29 9.5 55t32 43 61.5 17 61.5-17 32-43 9.5-55zm-20 20v94q0 23-7 44.5t-25 36-51 14.5q-31 0-49.5-14.5t-26-36-7.5-44.5v-94z"/></svg>