<svg width="131.28" height="20.16" viewBox="0 0 131.28 20.16" xmlns="http://www.w3.org/2000/svg"><path transform="translate(0 16.128) scale(.016 -.016)" d="M754 0H660L502 606L344 0H250L46 715H132L299 100L460 715H545L708 95L876 715H958Z"/><path transform="translate(16.064 16.128) scale(.016 -.016)" d="m177 678q0-24-15.5-39.5t-38.5-15.5-38.5 15.5-15.5 39.5 15.5 39.5 38.5 15.5 38.5-15.5 15.5-39.5zm-15-678h-77v492h77z"/><path transform="translate(20.016 16.128) scale(.016 -.016)" d="M100 0H9L192 255L26 492H116L241 300L368 492H456L291 255L474 0H382L241 208Z"/><path transform="translate(31.344 16.128) scale(.016 -.016)" d="M481 61H422L184 595V0H106V715H208L452 162L698 715H799V0H721V595Z"/><path transform="translate(45.824 16.128) scale(.016 -.016)" d="m220-16q-52 0-92 20t-62.5 55.5-22.5 80.5q0 75 57.5 119t154.5 44h138v4q0 62-37.5 98.5t-102.5 36.5q-85 0-144-71l-50 49q84 88 199 88 63 0 110-24.5t73-69 26-104.5v-310h-73v67q-28-38-73-60.5t-101-22.5zm11 64q58 0 101 29.5t61 78.5v85h-129q-67 0-104-25.5t-37-72.5q0-43 29.5-69t78.5-26z"/><path transform="translate(54.512 16.128) scale(.016 -.016)" d="m467 0v78q-25-43-71-68.5t-104-25.5q-69 0-122.5 34t-84.5 93-31 135q0 75 30.5 134.5t84 93.5 120.5 34q58 0 105-28t72-75v315h77v-720zm-332 246q0-57 21.5-101t59.5-69 87-25q57 0 101 32.5t62 85.5v63q0 62-21 109t-58.5 73.5-86.5 26.5q-48 0-85.5-25t-58.5-69-21-101z"/><path transform="translate(64.56 16.128) scale(.016 -.016)" d="m459 141 52-50q-39-54-91.5-80.5t-115.5-26.5q-74 0-130.5 34t-88 93.5-31.5 134.5 31.5 134.5 86 93.5 122.5 34q67 0 118.5-33t80.5-91.5 29-134.5v-30h-387q8-74 54.5-121t119.5-47q46 0 83 22t67 68zm-165 300q-62 0-105.5-44t-52.5-115h306q-7 73-46.5 116t-101.5 43z"/><path transform="translate(73.776 16.128) scale(.016 -.016)" d="m204 0h-77v426h-94v66h94v108q0 120 114 120h97v-64h-78q-30 0-43-14.5t-13-46.5v-103h134v-66h-134z"/><path transform="translate(79.44 16.128) scale(.016 -.016)" d="m300-16q-71 0-127 34t-87.5 93-31.5 135 31.5 135 87.5 93 127 34q72 0 128-34t87.5-93 31.5-135-31.5-135-87.5-93-128-34zm0 67q50 0 87 25t58 69 21 101q0 58-21 101.5t-58 68.5-87 25q-49 0-86-25t-58-68.5-21-101.5q0-57 21-101t58-69 86-25z"/><path transform="translate(89.056 16.128) scale(.016 -.016)" d="m352 500v-74h-17q-46 0-85.5-23.5t-63.5-72-24-124.5v-206h-77v492h76v-110q25 64 74 91t101 27z"/><path transform="translate(98.672 16.128) scale(.016 -.016)" d="M340 0H260V644H38V715H562V644H340Z"/><path transform="translate(108.27 16.128) scale(.016 -.016)" d="m459 141 52-50q-39-54-91.5-80.5t-115.5-26.5q-74 0-130.5 34t-88 93.5-31.5 134.5 31.5 134.5 86 93.5 122.5 34q67 0 118.5-33t80.5-91.5 29-134.5v-30h-387q8-74 54.5-121t119.5-47q46 0 83 22t67 68zm-165 300q-62 0-105.5-44t-52.5-115h306q-7 73-46.5 116t-101.5 43z"/><path transform="translate(117.49 16.128) scale(.016 -.016)" d="M100 0H9L192 255L26 492H116L241 300L368 492H456L291 255L474 0H382L241 208Z"/><path transform="translate(125.22 16.128) scale(.016 -.016)" d="m341 0h-110q-52 0-79 28.5t-27 81.5v316h-94v66h94v144h77v-144h132v-66h-132v-309q0-51 48-51h91z"/></svg>