<svg width="90.784" height="14.96" viewBox="0 0 90.784 14.96" xmlns="http://www.w3.org/2000/svg"><path transform="translate(0 11.76) scale(.016 -.016)" d="m207 234-46 1-155 452q-2 7 1.5 9.5t23.5 3 67 0.5l40-137q7-24 15.5-55.5t16-62.5 12-55.5 5.5-35.5q1 11 6 35.5t12.5 55.5 16 62.5 15.5 55.5l35 122q2 8 6.5 11t22.5 3.5 59 0.5zm-63-234v342h81v-326q0-8-3.5-11t-20-4-57.5-1z"/><path transform="translate(5.824 11.76) scale(.016 -.016)" d="m172-10q-28 0-53.5 4.5t-45.5 20-32 45.5-12 82 11 84.5 30 50 43 23.5 49 6q16 0 37.5-3t36.5-10q0 0 0 14t0 32.5 0 32.5q0 24-7.5 36.5t-21 18-33.5 5.5q-39 0-75-7t-58-16q-7 12-9 24.5t-2 22.5q0 7 2.5 15t8.5 12q13 8 54 17.5t98 9.5q65 0 94.5-27t29.5-95v-53q0-57-0.5-114.5t-1.5-108-4-88.5q-20-12-55-23t-84-11zm8 68q16 0 31 5t21 12q2 16 2.5 44t1 59 0.5 58q-10 5-23.5 7t-23.5 2q-16 0-29.5-3.5t-23.5-14-16-30.5-6-53q0-27 4.5-44t13.5-26.5 21-12.5 27-3z"/><path transform="translate(11.488 11.76) scale(.016 -.016)" d="m45 0v476q20 9 47 16.5t56 12.5 56 5q52 0 83-13.5t44-42.5 13-78v-360q0-8-4-11t-21-4-59-1v352q0 47-11 67t-48 20q-17 0-38-4t-37-14v-405q0-8-3.5-11t-20.5-4-57-1z"/><path transform="translate(17.6 11.76) scale(.016 -.016)" d="m184-10q-38 0-67.5 9.5t-49.5 36.5-30 78.5-10 135.5q0 137 44 198.5t122 61.5q53 0 87.5-22t51.5-78 17-157q0-140-42-201.5t-123-61.5zm2 69q22 0 38.5 15.5t26.5 57.5 10 120q0 80-8 120.5t-23 54.5-40 14q-22 0-39-15.5t-26.5-57.5-9.5-120q0-61 5-99t13.5-57.5 22.5-26 30-6.5z"/><path transform="translate(23.616 11.76) scale(.016 -.016)" d="m45 0v476q20 9 47 16.5t56 12.5 56 5q52 0 83-13.5t44-42.5 13-78v-360q0-8-4-11t-21-4-59-1v352q0 47-11 67t-48 20q-17 0-38-4t-37-14v-405q0-8-3.5-11t-20.5-4-57-1z"/><path transform="translate(29.728 11.76) scale(.016 -.016)" d="m189-10q-34 0-63.5 9.5t-51 34.5-33 71-11.5 119q0 94 15 151t40 86 57 39 65 10q63 0 95-40t32-121q0-33-2.5-68t-9.5-62q-34-7-76-10t-80-4.5-62.5-1.5-24.5 0l1 66t19-0.5 46.5 0 56 3 48.5 8.5q3 14 4 30t1 30q-1 54-12.5 76.5t-44.5 22.5q-17 0-32.5-9.5t-27.5-33-18.5-64.5-6.5-105q0-47 5.5-78t17-48 29-24.5 42.5-7.5q30 0 59.5 8t53.5 23q5-12 6.5-27.5t1.5-27.5q0-15-19-28t-50.5-20-69.5-7z"/><path transform="translate(38.016 11.76) scale(.016 -.016)" d="m334-2q-14 0-28 1t-29 2q-10 58-21.5 106.5t-24 87.5-29 69.5-37.5 53.5q-13 13-28.5 21t-30.5 12v14l177 330q14 4 28 5t24 1q45 0 33-24l-161-279q60-45 100-140.5t60-239.5q1-11-5.5-15.5t-27.5-4.5zm-292 2v684q0 8 3.5 11t20.5 4 58 1v-684q0-8-3-11t-20.5-4-58.5-1z"/><path transform="translate(44.24 11.76) scale(.016 -.016)" d="m172-10q-28 0-53.5 4.5t-45.5 20-32 45.5-12 82 11 84.5 30 50 43 23.5 49 6q16 0 37.5-3t36.5-10q0 0 0 14t0 32.5 0 32.5q0 24-7.5 36.5t-21 18-33.5 5.5q-39 0-75-7t-58-16q-7 12-9 24.5t-2 22.5q0 7 2.5 15t8.5 12q13 8 54 17.5t98 9.5q65 0 94.5-27t29.5-95v-53q0-57-0.5-114.5t-1.5-108-4-88.5q-20-12-55-23t-84-11zm8 68q16 0 31 5t21 12q2 16 2.5 44t1 59 0.5 58q-10 5-23.5 7t-23.5 2q-16 0-29.5-3.5t-23.5-14-16-30.5-6-53q0-27 4.5-44t13.5-26.5 21-12.5 27-3z"/><path transform="translate(49.904 11.76) scale(.016 -.016)" d="m81 0v431h-69q0 33 1 47t5.5 18 14.5 4h48v61q0 58 15.5 93t40.5 53.5 54.5 25 57.5 6.5q46 0 69.5-11t23.5-30q0-10-2.5-22t-6.5-23q-18 8-36 10t-35 2q-20 0-37.5-3t-32-13.5-22.5-29.5-8-52v-67h90q0-32-1-46.5t-4.5-18.5-11.5-4h-73v-415q0-1-2.5-8.5t-13.5-7.5z"/><path transform="translate(53.984 11.76) scale(.016 -.016)" d="m81 0v431h-69q0 33 1 47t5.5 18 14.5 4h48v61q0 58 15.5 93t40.5 53.5 54.5 25 57.5 6.5q46 0 69.5-11t23.5-30q0-10-2.5-22t-6.5-23q-18 8-36 10t-35 2q-20 0-37.5-3t-32-13.5-22.5-29.5-8-52v-67h90q0-32-1-46.5t-4.5-18.5-11.5-4h-73v-415q0-1-2.5-8.5t-13.5-7.5z"/><path transform="translate(58.064 11.76) scale(.016 -.016)" d="m189-10q-34 0-63.5 9.5t-51 34.5-33 71-11.5 119q0 94 15 151t40 86 57 39 65 10q63 0 95-40t32-121q0-33-2.5-68t-9.5-62q-34-7-76-10t-80-4.5-62.5-1.5-24.5 0l1 66t19-0.5 46.5 0 56 3 48.5 8.5q3 14 4 30t1 30q-1 54-12.5 76.5t-44.5 22.5q-17 0-32.5-9.5t-27.5-33-18.5-64.5-6.5-105q0-47 5.5-78t17-48 29-24.5 42.5-7.5q30 0 59.5 8t53.5 23q5-12 6.5-27.5t1.5-27.5q0-15-19-28t-50.5-20-69.5-7z"/><path transform="translate(63.824 11.76) scale(.016 -.016)" d="m189-10q-34 0-63.5 9.5t-51 34.5-33 71-11.5 119q0 94 15 151t40 86 57 39 65 10q63 0 95-40t32-121q0-33-2.5-68t-9.5-62q-34-7-76-10t-80-4.5-62.5-1.5-24.5 0l1 66t19-0.5 46.5 0 56 3 48.5 8.5q3 14 4 30t1 30q-1 54-12.5 76.5t-44.5 22.5q-17 0-32.5-9.5t-27.5-33-18.5-64.5-6.5-105q0-47 5.5-78t17-48 29-24.5 42.5-7.5q30 0 59.5 8t53.5 23q5-12 6.5-27.5t1.5-27.5q0-15-19-28t-50.5-20-69.5-7z"/><path transform="translate(69.584 11.76) scale(.016 -.016)" d="m152-10q-53 0-87.5 12.5t-34.5 38.5q0 9 3 21.5t11 25.5q22-13 46.5-19t53.5-6q38 0 59.5 15.5t21.5 46.5q0 20-8.5 39t-31.5 39l-97 83q-34 28-45.5 54.5t-11.5 51.5q0 35 17.5 61.5t54 41.5 91.5 15q52 0 78.5-10t37-22.5 10.5-23.5q0-21-18-41-22 14-46 20t-52 6q-36 0-57.5-12.5t-21.5-35.5q0-13 7.5-27t32.5-35l93-75q33-31 46-59t13-66q0-66-44-102.5t-121-36.5z"/><path transform="translate(75.104 11.76) scale(.016 -.016)" d="m172-10q-28 0-53.5 4.5t-45.5 20-32 45.5-12 82 11 84.5 30 50 43 23.5 49 6q16 0 37.5-3t36.5-10q0 0 0 14t0 32.5 0 32.5q0 24-7.5 36.5t-21 18-33.5 5.5q-39 0-75-7t-58-16q-7 12-9 24.5t-2 22.5q0 7 2.5 15t8.5 12q13 8 54 17.5t98 9.5q65 0 94.5-27t29.5-95v-53q0-57-0.5-114.5t-1.5-108-4-88.5q-20-12-55-23t-84-11zm8 68q16 0 31 5t21 12q2 16 2.5 44t1 59 0.5 58q-10 5-23.5 7t-23.5 2q-16 0-29.5-3.5t-23.5-14-16-30.5-6-53q0-27 4.5-44t13.5-26.5 21-12.5 27-3z"/><path transform="translate(80.768 11.76) scale(.016 -.016)" d="m182-10q-42 0-62.5 18.5t-26.5 52-6 78.5v291h-68q0 32 0.5 46.5t4.5 19 12 4.5h51v152q0 15 6.5 20.5t24 6.5 50.5 1v-180h102q0-31-0.5-46t-4-19.5-11.5-4.5h-86v-291q0-21 1.5-39.5t9-29 25.5-10.5q17 0 30 3.5t28 11.5q2-8 4-18t2-23q0-18-13.5-27.5t-33-13-39.5-3.5z"/><path transform="translate(85.424 11.76) scale(.016 -.016)" d="m34 0t-6.5 9.5-6.5 30.5q0 9 1.5 16t4.5 15l195 360h-103q-28 0-51.5-1t-39.5-3q-2 12-2.5 22t-0.5 16q0 18 6 26.5t20 8.5h254t4.5-6 4.5-19q0-6-2-15.5t-8-24.5l-188-360h88q42 0 66 3.5t39 7.5q2-7 2.5-18t0.5-18q-1-25-6.5-37.5t-25.5-12.5z"/></svg>