<svg width="75.742" height="18.156" viewBox="0 0 75.742 18.156" xmlns="http://www.w3.org/2000/svg"><path transform="translate(0 13.146) scale(.0068359 -.0068359)" d="M647 0H471V473L18 1310H221L563 644L905 1310H1107L647 461Z"/><path transform="translate(7.6904 13.146) scale(.0068359 -.0068359)" d="m406-21q-152 0-232 77t-80 216 112 218 308 79h192v96q0 86-52.5 135.5t-142 49.5-143.5-42.5-54-105.5h-169l-2 5q-5 110 102.5 196.5t274 86.5 265.5-85.5 99-241.5v-469q0-113 25-196h-183q-19 93-20 146-52-74-131.5-119.5t-168.5-45.5zm-133 289h-1q0-66 41-103t127-37 164.5 48.5 102.5 113.5v159h-198q-106 0-171-52.5t-65-128.5z"/><path transform="translate(14.615 13.146) scale(.0068359 -.0068359)" d="m129 974h158l13-145q101 163 289 163 160 0 245-93.5t85-283.5v-615h-177v611q0 127-50 182t-156 55q-76 0-135-36t-95-102v-710h-177z"/><path transform="translate(21.779 13.146) scale(.0068359 -.0068359)" d="m185 1207h179v-235h184v-132h-184v-591q0-124 103-124 32 0 66 12l23-121q-48-37-135-37-112 0-174 67t-62 203v591h-154v132h154z"/><path transform="translate(26.134 13.146) scale(.0068359 -.0068359)" d="m306-1h-177v974h158l17-142q89 161 242 161 36 0 68-10l-24-166-91 6q-137 0-193-127z"/><path transform="translate(30.454 13.146) scale(.0068359 -.0068359)" d="m406-21q-152 0-232 77t-80 216 112 218 308 79h192v96q0 86-52.5 135.5t-142 49.5-143.5-42.5-54-105.5h-169l-2 5q-5 110 102.5 196.5t274 86.5 265.5-85.5 99-241.5v-469q0-113 25-196h-183q-19 93-20 146-52-74-131.5-119.5t-168.5-45.5zm-133 289h-1q0-66 41-103t127-37 164.5 48.5 102.5 113.5v159h-198q-106 0-171-52.5t-65-128.5z"/><path transform="translate(37.379 13.146) scale(.0068359 -.0068359)" d="m306 0h-176v974h158l13-128q100 146 296.5 146t266.5-180q101 180 298 180 153 0 237-103.5t84-306.5v-582h-177v584q0 141-48 202.5t-143.5 61.5-152-61.5-66.5-160.5v-626h-179v584q0 136-49.5 200t-147.5 64q-154 0-214-127z"/><path transform="translate(48.392 13.146) scale(.0068359 -.0068359)" d="m406-21q-152 0-232 77t-80 216 112 218 308 79h192v96q0 86-52.5 135.5t-142 49.5-143.5-42.5-54-105.5h-169l-2 5q-5 110 102.5 196.5t274 86.5 265.5-85.5 99-241.5v-469q0-113 25-196h-183q-19 93-20 146-52-74-131.5-119.5t-168.5-45.5zm-133 289h-1q0-66 41-103t127-37 164.5 48.5 102.5 113.5v159h-198q-106 0-171-52.5t-65-128.5z"/><path transform="translate(55.316 13.146) scale(.0068359 -.0068359)" d="m129 974h158l13-145q101 163 289 163 160 0 245-93.5t85-283.5v-615h-177v611q0 127-50 182t-156 55q-76 0-135-36t-95-102v-710h-177z"/><path transform="translate(62.48 13.146) scale(.0068359 -.0068359)" d="m406-21q-152 0-232 77t-80 216 112 218 308 79h192v96q0 86-52.5 135.5t-142 49.5-143.5-42.5-54-105.5h-169l-2 5q-5 110 102.5 196.5t274 86.5 265.5-85.5 99-241.5v-469q0-113 25-196h-183q-19 93-20 146-52-74-131.5-119.5t-168.5-45.5zm-133 289h-1q0-66 41-103t127-37 164.5 48.5 102.5 113.5v159h-198q-106 0-171-52.5t-65-128.5z"/><path transform="translate(69.405 13.146) scale(.0068359 -.0068359)" d="m223 974 231-687 15-68h5l17 68 225 687h180l-358-974h-134l-363 974z"/></svg>