<svg width="56.672" height="23.477" viewBox="0 0 56.672 23.477" xmlns="http://www.w3.org/2000/svg"><path transform="translate(0 15.633) scale(.0078125 -.0078125)" d="m590-1004q-32 32-59.5 61t-54.5 57-55.5 57-60.5 61q42 124 90 249.5t107 263.5 132 293 166 339q-46-68-85.5-119t-68.5-86q-34-40-64-70-76-73-135.5-126t-106-87.5-81.5-51.5-62-17q-21 0-44.5 14.5t-46 36-42.5 45.5-35 43q-25 32-28 83t-3 126q0 115 19.5 241t55.5 253.5 87 254 114 243 136 218.5 153 183q21-22 48-50.5t54.5-58.5 53-59.5 43.5-51.5q-85-77-159.5-173.5t-136.5-206-111-228-82.5-240-52-242.5-19.5-234q111 56 204 136t170.5 174.5 141 198.5 115 210 92 209 73.5 194 58.5 166 46.5 125q10-15 27-37t36.5-47.5 40-51.5 38-48.5 30.5-39 17-22.5q-53-126-104.5-251.5t-105.5-265-112-301.5-124.5-363-143-449-166.5-558z"/><path transform="translate(10.109 15.633) scale(.0078125 -.0078125)" d="m647 246q-92-90-173.5-151t-155.5-98-141.5-53-131.5-16q-27 0-60 20t-61.5 48.5-47.5 59.5-19 53q0 82 22.5 150.5t59.5 123.5 84.5 97 99 70 102.5 42 94 14q31 0 61.5-18t55.5-44 40.5-54.5 15.5-49.5q0-34-28.5-69.5t-80.5-72.5-125-75.5-161-77.5q-3-24-3-47 0-31 13.5-42t50.5-11q66 0 124.5 22t112.5 57 104 80 99 91zm-352 250q-20 0-44-21.5t-48-56.5-46-80.5-38-94.5q37 24 72.5 51t63.5 56.5 45 60.5 17 62q0 9-5.5 16t-16.5 7z"/><path transform="translate(15.148 15.633) scale(.0078125 -.0078125)" d="m-66 276q23 22 52.5 50t59 61 55 71 40.5 82q4 23 12.5 48.5t19 46.5 20.5 35 18 14q12-7 36-26.5t48-41.5 42.5-40.5 18.5-22.5q-12-46-11.5-83t6-73 12-76.5 6.5-93.5q0-32-10.5-73.5t-36.5-74.5q51 30 101 67.5t89 70.5q46 39 88 78l45-49q-33-31-71.5-66t-80-69-84.5-65-85-55-81-38-73-14q-29 0-64 14t-66 34-54 42-27 37q0 2 4 8.5t9.5 13.5 11 12.5 8.5 5.5q6 0 24-9t60-9q23 0 39.5 12t27.5 32 16 46 5 55q0 42-4 81.5t-9 76.5q-17-20-39-42t-44.5-43.5-45-42-40.5-36.5l-48 49z"/><path transform="translate(20.188 15.633) scale(.0078125 -.0078125)" d="m51-55q-17 0-44.5 15.5t-53.5 38-45 46.5-19 41q0 30 16.5 95t43.5 148.5 61.5 178.5 69.5 186h-142q-1 0-1 2 0 6 4.5 17.5t11 24 15 23 16.5 13.5l130 6q28 68 53.5 125.5t45.5 98.5q5 11 10.5 23.5t16 25 28 26 47.5 27.5q22 11 53.5 24t62 24 55.5 18.5 36 7.5q10 0 10-4v-2q0-1-2-5-6-10-22-43.5t-39.5-84-52-115-58.5-136.5l240 9q10 0 6-12t-15-28-25.5-33-24.5-26q-2-2-8-4t-15-2h-198q-36-87-69-176t-59-169-41.5-147-15.5-110q0-6 6-6 11 0 33 12.5t49.5 32.5 58.5 44 59 47.5 50.5 43 34.5 29.5q9-9 21.5-23t23.5-26q-22-22-55-53.5t-71.5-64.5-80-66-81-59-73.5-42-57-16z"/><path transform="translate(23.852 15.633) scale(.0078125 -.0078125)" d="m647 246q-92-90-173.5-151t-155.5-98-141.5-53-131.5-16q-27 0-60 20t-61.5 48.5-47.5 59.5-19 53q0 82 22.5 150.5t59.5 123.5 84.5 97 99 70 102.5 42 94 14q31 0 61.5-18t55.5-44 40.5-54.5 15.5-49.5q0-34-28.5-69.5t-80.5-72.5-125-75.5-161-77.5q-3-24-3-47 0-31 13.5-42t50.5-11q66 0 124.5 22t112.5 57 104 80 99 91zm-352 250q-20 0-44-21.5t-48-56.5-46-80.5-38-94.5q37 24 72.5 51t63.5 56.5 45 60.5 17 62q0 9-5.5 16t-16.5 7z"/><path transform="translate(28.891 15.633) scale(.0078125 -.0078125)" d="m406 414q-13-39-32.5-89t-37.5-98-30.5-87-12.5-56q0-6 6-6 11 0 33 13t50.5 34 59.5 46 59.5 49.5 51.5 44.5 35 30q9-9 21.5-23t23.5-26q-22-22-55-53.5t-71.5-64.5-80-66-81-59-73.5-42-57-16q-15 0-38 10.5t-44 26-36 34.5-15 37q15 67 30 117t28 85.5 23 57.5 15 33q-12 5-23 11t-22 12q-16-17-35.5-36t-39.5-38-40-37-36-33l-48 49q26 25 62.5 60.5t71.5 71.5q-25 15-45 28.5t-34 24.5q-17 12-30 22-6 3-6 13 0 11 8.5 31.5t21.5 44 28 48 29 44.5 24.5 32.5 13.5 12.5q2 0 13.5-5t24.5-11.5 24-14.5 14-14q1-5 2-21t2-39q39-20 80-45.5t75-48.5q40-26 76-53 13-8 16.5-20t0.5-21z"/><path transform="translate(33.836 15.633) scale(.0078125 -.0078125)" d="m805 248q-90-81-185-153t-190-139q-14-42-32-89t-44-107q-29-66-66-129t-78.5-118.5-85.5-101.5-86.5-79.5-82-52-72.5-18.5q-16 0-39 12t-44 30.5-35.5 39.5-14.5 39q0 63 34 123.5t93.5 121.5 140 123.5 173.5 128.5q29 77 56.5 160.5t53.5 165.5q-43-55-83-96t-74-69.5-59-46-38-26.5q-8-5-19-7.5t-20-2.5q-19 0-42 11.5t-42.5 29-33 38.5-13.5 40q0 22 14.5 70.5t39 117.5 57.5 155 71 183q2 5 3.5 4.5t5.5-0.5q19-3 52-15.5t64.5-27.5 54.5-28.5 23-18.5q-3-7-15.5-33t-29-62.5-35-79-34-81.5-25.5-70.5-10-46.5q0-4 4-4 7 0 30.5 18t58.5 57 79 99.5 93 145.5q20 66 33 105.5t17 39.5q6 0 31-15t53-35.5 50-41 22-31.5q0-5-1-9t-3-9q-23-70-40-126.5t-30.5-103.5-24-86.5-20.5-76.5q75 54 149 110.5t146 118.5zm-928-877q18 0 50 34.5t69 88.5 74.5 120.5 66.5 130.5q-38-32-85-70t-88-83-69-96.5-28-109.5q0-15 10-15z"/><path transform="translate(40.078 15.633) scale(.0078125 -.0078125)" d="m647 246q-92-90-173.5-151t-155.5-98-141.5-53-131.5-16q-27 0-60 20t-61.5 48.5-47.5 59.5-19 53q0 82 22.5 150.5t59.5 123.5 84.5 97 99 70 102.5 42 94 14q31 0 61.5-18t55.5-44 40.5-54.5 15.5-49.5q0-34-28.5-69.5t-80.5-72.5-125-75.5-161-77.5q-3-24-3-47 0-31 13.5-42t50.5-11q66 0 124.5 22t112.5 57 104 80 99 91zm-352 250q-20 0-44-21.5t-48-56.5-46-80.5-38-94.5q37 24 72.5 51t63.5 56.5 45 60.5 17 62q0 9-5.5 16t-16.5 7z"/><path transform="translate(45.117 15.633) scale(.0078125 -.0078125)" d="m516 88q0-6 6-6 9 0 30 13t48 33 57.5 45 58.5 49 50.5 44 34.5 31q9-9 22.5-24t24.5-27q-24-22-57.5-53.5t-72-65.5-79.5-67.5-80-59.5-74-42.5-61-16.5q-18 0-39.5 7t-39.5 19.5-30 29.5-12 38q0 8-0.5 19.5t1.5 30 8 45 18 65.5q-33-35-77.5-73t-93.5-72-98.5-61.5-91.5-41.5q-5-2-8-2t-6 0q-10 0-26.5 10t-32.5 26.5-27.5 37.5-11.5 42q0 6 6 40t28.5 86.5 66.5 118 120 134.5q39 35 84 66 38 26 87 53t103 43q2 0 3.5 1t4.5-1q12-4 28.5-12.5t33-18 29-19 16.5-15.5q1-2 0-3l-2-2q-45-24-85-53.5t-71-55.5q-36-31-67-61-73-72-101-124.5t-28-75.5q0-17 14-17t35.5 11.5 48.5 31 59.5 46 67.5 55.5q31 25 60 54 25 24 52 55t46 63q0 1 1 2t3 0q11-8 25-26.5t26-40.5 20.5-42.5 8.5-31.5q-23-47-35.5-85.5t-19-67.5-8-49.5-1.5-31.5z"/><path transform="translate(51.727 15.633) scale(.0078125 -.0078125)" d="m406 414q-13-39-32.5-89t-37.5-98-30.5-87-12.5-56q0-6 6-6 11 0 33 13t50.5 34 59.5 46 59.5 49.5 51.5 44.5 35 30q9-9 21.5-23t23.5-26q-22-22-55-53.5t-71.5-64.5-80-66-81-59-73.5-42-57-16q-15 0-38 10.5t-44 26-36 34.5-15 37q15 67 30 117t28 85.5 23 57.5 15 33q-12 5-23 11t-22 12q-16-17-35.5-36t-39.5-38-40-37-36-33l-48 49q26 25 62.5 60.5t71.5 71.5q-25 15-45 28.5t-34 24.5q-17 12-30 22-6 3-6 13 0 11 8.5 31.5t21.5 44 28 48 29 44.5 24.5 32.5 13.5 12.5q2 0 13.5-5t24.5-11.5 24-14.5 14-14q1-5 2-21t2-39q39-20 80-45.5t75-48.5q40-26 76-53 13-8 16.5-20t0.5-21z"/></svg>