<svg width="28.032" height="16" viewBox="0 0 28.032 16" xmlns="http://www.w3.org/2000/svg"><path transform="translate(0 11.648) scale(.016 -.016)" d="m243 195-177 308q-7 13-23 18l-45 11v37h221v-37l-66-14 147-267h-28l137 267-68 14v37h187v-37l-45-10q-8-3-13.5-6.5t-9.5-11.5l-161-309zm-103-195v37l70 13q20 3 20 22v156h82v-156q0-19 19-22l70-13v-37z"/><path transform="translate(8.544 11.648) scale(.016 -.016)" d="m160 321q13 24 36.5 48.5t54 40.5 62.5 16q11 0 25.5-3t24.5-8q2-30-0.5-68.5t-9.5-70.5h-37l-11 57q-3 12-8.5 17t-16.5 5q-29 0-60-14.5t-56-45.5zm18 1v-255q0-21 21-23l73-8v-36h-236v37l44 7q20 3 20 23v271q0 22-20 25l-50 6v36q29 9 62.5 14t62.5 6l12-12z"/><path transform="translate(14.784 11.648) scale(.016 -.016)" d="m47 21q-4 30-3 58.5t4 53.5h42l15-55q5-22 17-30 10-6 29.5-13t46.5-7q38 0 57.5 17.5t19.5 47.5q0 23-13 37.5t-38 26.5-61 27q-49 20-80 45.5t-31 75.5q0 60 42.5 90.5t110.5 30.5q32 0 66-7t57-17q1-27-1-54t-7-53h-39l-12 50q-3 10-7 17t-13 12-21.5 9-29.5 5q-32 1-53-14t-21-47q0-24 14-39t35.5-24.5 45.5-18.5q34-13 64-29t48.5-41 18.5-63q0-58-45-90t-117-32q-43 0-80 10t-61 21z"/><path transform="translate(21.008 11.648) scale(.016 -.016)" d="m152-8q-50 0-83.5 26t-33.5 75q0 42 24.5 66.5t61.5 35.5 75 14l98 8v-38l-85-8q-44-3-67.5-20t-23.5-51q0-27 15.5-42t46.5-15q33 0 65.5 15t49.5 37l9-19q-21-37-61.5-60.5t-90.5-23.5zm-105 346q15 42 60 64t103 22q73 0 109-36.5t36-111.5v-207q0-22 22-24l41-4v-34q-10-3-31-8t-39-5q-30 0-47.5 17t-21.5 50v204q0 56-22.5 78.5t-68.5 22.5q-34 0-65-11t-57-36z"/></svg>