<svg width="47.922" height="18.802" viewBox="0 0 47.922 18.802" xmlns="http://www.w3.org/2000/svg"><path transform="translate(0 14.756) scale(.014 -.014)" d="m293 248-266 410h91l224-366zm-15-248v293h75v-293zm62 251-41 41 227 366h79z"/><path transform="translate(8.848 14.756) scale(.014 -.014)" d="m182-9q-30 0-57.5 5.5t-49.5 15-38 19.5l20 56q24-22 59.5-35.5t68.5-13.5q41 0 64.5 20.5t23.5 48.5q0 25-15.5 40.5t-40 25.5-51.5 19.5-51.5 23-40.5 35-16 55.5q0 39 20 65t52 39 72 13q30 0 61.5-7.5t54.5-22.5l-20-53q-19 19-48 28.5t-52 9.5q-37 0-57.5-17t-20.5-42q0-23 16-38t40.5-24.5 52-19.5 52-23.5 40.5-36 16-57.5q0-26-10.5-49.5t-30.5-41.5-49-28-65-10z"/><path transform="translate(14.14 14.756) scale(.014 -.014)" d="m371-6q-38 0-60 27.5t-21 79.5l4 189q1 31-6.5 50.5t-21.5 29-34 9.5q-21 0-45-10t-41.5-31-21.5-54l-66 7q5 29 22 53t43 41.5 57 27 63 9.5q60 0 88.5-33.5t27.5-90.5l-2-210q0-22 7.5-34t21.5-12q11 0 22 5t19 15l23-32q-13-16-34-26t-45-10zm-221 0q-45 0-73 25.5t-28 66.5q0 24 10 45t34.5 37.5 68.5 28.5l166 45 5-36-154-48q-38-12-50.5-28t-12.5-34q0-25 17-37.5t41-12.5q30 0 66 19.5t80 50.5l11-24q-43-41-88-69.5t-93-28.5z"/><path transform="translate(20.496 14.756) scale(.014 -.014)" d="m249-6q-50 0-96.5 13.5t-69.5 37.5l67 36q20-20 52.5-30.5t66.5-10.5q47 0 79 21.5t48 58 16 81.5q0 52-17 89.5t-47 57.5-71 20q-37 0-77-23t-67-73l-24 32q23 35 52.5 61t64.5 40.5 76 14.5q39 0 72-13.5t58-39.5 39-62.5 14-83.5q0-60-26.5-112t-79-83.5-130.5-31.5zm-166 51v660l67 12v-636z"/><path transform="translate(27.874 14.756) scale(.014 -.014)" d="m247-9q-59 0-104 24.5t-70.5 70-25.5 107.5q0 69 28.5 120.5t77 80 109.5 28.5q74 0 111-42t37-115q0-8-0.5-17.5t-1.5-17.5h-59v35q0 54-22 81.5t-69 27.5q-44 0-77-21.5t-51-59.5-18-91q0-72 41-114.5t107-42.5q34 0 65 12t60 39l25-37q-27-25-54.5-40t-54.5-21.5-54-6.5zm-162 239 9 43h305v-43z"/><path transform="translate(34.258 14.756) scale(.014 -.014)" d="m371-6q-38 0-60 27.5t-21 79.5l4 189q1 31-6.5 50.5t-21.5 29-34 9.5q-21 0-45-10t-41.5-31-21.5-54l-66 7q5 29 22 53t43 41.5 57 27 63 9.5q60 0 88.5-33.5t27.5-90.5l-2-210q0-22 7.5-34t21.5-12q11 0 22 5t19 15l23-32q-13-16-34-26t-45-10zm-221 0q-45 0-73 25.5t-28 66.5q0 24 10 45t34.5 37.5 68.5 28.5l166 45 5-36-154-48q-38-12-50.5-28t-12.5-34q0-25 17-37.5t41-12.5q30 0 66 19.5t80 50.5l11-24q-43-41-88-69.5t-93-28.5z"/><path transform="translate(40.614 14.756) scale(.014 -.014)" d="m219-5q-62 0-101.5 41.5t-39.5 114.5v257l68 12v-247q0-59 26.5-93t74.5-34q26 0 53 10.5t51.5 33 40.5 57.5l25-23q-22-44-54.5-72.5t-69.5-42.5-74-14zm168-1-12 102v312l69 12v-414z"/></svg>