<svg width="84.32" height="23.168" viewBox="0 0 84.32 23.168" xmlns="http://www.w3.org/2000/svg"><path transform="translate(0 18.56) scale(.016 -.016)" d="m756 663q8-26-4.5-51.5t-28.5-49.5q-5-8-9.5-15.5t-8.5-14.5q-17-33-35.5-64.5t-43.5-54.5q-7-18-19.5-37.5t-32.5-30.5q-26-49-65.5-84.5t-83.5-67.5q-12-31-15.5-70.5t-10-76.5-26.5-63q-12-5-19.5-2t-14.5 8q-4 2-8.5 4.5t-9.5 3.5q1 28 4.5 64t8 73 7.5 67q1 8 2.5 14.5t5.5 12.5q-16 21-38.5 30.5t-40.5 26.5q-53 51-90 118.5t-68.5 141-67.5 142.5q6 5 17.5 1.5t18.5-12.5q34-46 70-94t68-101q32-52 65.5-102t67.5-97q9 3 13 11.5t6 18.5q14-1 25 6t21 14q8 6 15 10.5t13 2.5q14 21 36.5 38.5t45 36.5 37.5 42q45 39 90 84.5t82 94.5q2 2 5 9 2 5 5.5 10t10.5 3z"/><path transform="translate(12.8 18.56) scale(.016 -.016)" d="m574 380q5-22 2.5-48.5t-7.5-53.5q-3-19-5.5-37.5t-2.5-36.5q0-5-2-12t-4-15q-4-16-7-30.5t5-17.5q-2-12-4.5-36.5t-6-48-10.5-34.5q-14 1-26-1.5t-14-13.5q-25 11-34.5 32.5t-10.5 49.5q-1 19 3.5 43t10.5 48q7 34 11 62.5t-6 38.5q-14-10-21-25.5t-15.5-29-27.5-18.5q-1-19-13-38.5t-28-38.5-28-38-13-38q-25-15-45-33t-53-29q-9 7-26.5 11t-27.5-3q-13 5-21 13t-21 12q-25 35-33.5 79.5t-6 91 10.5 84.5q3 13 10 23t11 23q10 28 18.5 59.5t23 57.5 41.5 34q-4-42-11.5-81.5t-14.5-76.5q-14-67-22-126t9-112q20-4 48 12.5t60 47 64 68 60 75 48 68.5 27 47q4 26 9 41t18 37q26 8 48.5-5.5t27.5-33.5q1-6 1-11t0-11q0-5-0.5-11.5t1.5-13.5z"/><path transform="translate(23.488 18.56) scale(.016 -.016)" d="m488 220q-7-15-21-23t-29-15-25-21q3-3 0-11t-7-20q-8-19-15-43.5t-1-46.5q-7-9-9-28.5t-5.5-37-14.5-21.5q-10-3-11-6.5t0-8.5q2-6-1-12.5t-27-12.5q4-13-2.5-15.5t-17.5-2.5q-12 0-26.5-3.5t-25.5-20.5q-19-11-53-15t-68.5-3.5-56.5 2.5q-16 11-23 25t-21 18q6 47 33.5 92.5t67.5 86.5 84.5 74 84 56.5 65.5 34.5q8 26 18 57t18 61q5 17 6.5 35t7.5 33 22 22q10-25 10-57.5t-4.5-63-8.5-51.5q-1-6-1.5-10.5t-1.5-8.5q13-12 31-23t28-16zm-144-79q-36-14-78-46.5t-78.5-75.5-57.5-89q15-7 27-5.5t24 4.5q9 2 17.5 4t19.5 1q18 13 37 24.5t33.5 25 16.5 31.5q19 17 24.5 53t14.5 73zm180 474q6-19 0.5-40t-19.5-34q-16-16-30-14.5t-29 6.5q-7 3-15.5 5.5t-17.5 2.5q-2 11-7 20t-6 17q-2 25 11.5 40.5t35.5 21 43-1.5q9-5 14.5-14t19.5-9z"/><path transform="translate(32.72 18.56) scale(.016 -.016)" d="m283 106q-8-19-9.5-40t5.5-32q-15-14-39.5-19.5t-49.5-7.5-44-8q-12 2-22.5 8t-21.5 11q-8 15-9 42.5t4.5 60.5 15.5 65q0 2 6.5 23t15.5 49 17 51.5 12 29.5q5 19 13.5 32t16.5 26 11 32q11 5 13 11.5t9 15.5q7-18 4.5-38t-6.5-38q-1-5-1.5-9t-1.5-8q2-6-5-29t-16-53q-9-26-17.5-53.5t-13-50.5-2.5-34q-1-8-3-23t-4-22q9-8 28-7.5t41 4.5 39 8q4 1 7.5 1.5t6.5 1.5zm74 478q-2-7-5-14t-3-18q-4 0-11-8.5t-22.5-16.5-48.5-8q-13 7-20 19t-15 22q5 44 21.5 67t60.5 9q10 1 19-9.5t16-23.5 8-19z"/><path transform="translate(43.12 18.56) scale(.016 -.016)" d="m668 299q2-16-1.5-25t-13.5-22q-4-6-16-18t-18-17q-17-13-46.5-27t-65.5-8q-1-10-1.5-20.5t-0.5-20.5q-1-33-5-62.5t-22-46.5q-19-4-33-14t-33-14q-35-7-75-11.5t-77.5 0-63.5 23.5q4 12-3.5 20t-18.5 15q-1 1-1 1 0 5 6.5 3.5t10.5 3.5q9-3 7-13 1 0 2 0 24-2 55-3.5t63 0.5 59 12q31 11 50 34t15 65q-1 8-3.5 14.5t-4.5 16.5q-9 11-23.5 10t-19.5 6q-10-3-19-6.5t-19-4.5q-3 6-9.5 7t-12.5-3q-14 1-19 13.5t-6.5 28.5-7.5 26q9 18 20 39.5t26 40 36 25.5q13 5 25.5 4t24.5-3q7-1 13.5-2t13.5-1q14-25 23-59.5t13-64.5q2-1 17 2t30.5 7 18.5 5q20 9 25.5 28t12.5 39q-10 20-13 39t-6 37-15 34q-3 4-6 8t-8 8q1 14-6.5 28.5t-16.5 29.5q-9 14-16.5 28t-4.5 28q-14 14-24.5 34t-27.5 30q-38-43-77.5-98t-64.5-111q-10-24-21.5-47t-25.5-45q3-4 1-7-1-2-2-4t0-7q-5-6-18-28.5t-27-50.5-22.5-51-4.5-30q-2-2-7-7-6-5-10.5-10.5t0.5-12.5q-10-8-13-19t-5.5-21.5-13.5-18.5q-3-1 0-6 5-6 1-8-12-5-19-16t-14.5-22.5-23.5-17.5q-2-1-3 3 0 3-2 4 0 9 1.5 15.5t3.5 12.5 3.5 12 0.5 13q3 5 11.5 23.5t17.5 42 14.5 42.5 3.5 24q29 51 54 111.5t50 121.5q11 26 22 51.5t22 50.5q4 0 10 12t13 27.5 12.5 29.5 8.5 19q6 11 27 29.5t48 34 48 16.5q6 1 21-0.5t23-3.5q17-19 29.5-46t27.5-58q17-36 38-69.5t37-69.5q16-33 27.5-69t13.5-68zm-241-67q0 9-3 31.5t-15 34.5q-6-2-18.5-11.5t-18.5-22.5 6-27q5 0 11-2.5t10-4.5q3 0 10 0 4 0 9 0t9 2z"/><path transform="translate(55.12 18.56) scale(.016 -.016)" d="m500 284q0-1-3-6-5-8-13.5-23.5t-15-32-6.5-27.5q-4 1-11-8t-12.5-18.5-5.5-13.5q-14-15-26.5-34.5t-27-36-36.5-22.5q-6-8-17-18.5t-21-7.5q-9-14-28-20t-36.5-9.5-22.5-13.5q-10 3-17 1.5t-14-3.5q-4-2-7.5-3t-8.5-2q-30 10-50 20t-32 36q3 5 1.5 12.5t-3.5 15.5q-3 10-4.5 19t4.5 13q-11 33-6.5 63.5t12.5 63.5q5 17 9 36t7 40q5 3 9 3 8 44 36.5 82t54.5 71q7 1 14 3.5t14 4.5q18 7 34 9.5t25-14.5q7 2 24.5 1t36.5-3.5 27-6.5q13-5 31-16.5t34.5-23.5 24.5-22q8-7 13-19t6-23q5 0 7-15.5t2-32-2-19.5zm-78 36q-5 3-14.5 9t-15.5 15-3 20q-8-1-12 1t-7 5q-1 1-2 1-13 11-35 16t-46.5 9-46.5 10q-30-34-52.5-89.5t-32.5-117-6-115.5q5-3 10-3.5t11 0.5q4 0 9 0t10-1q1-7 7.5-10t8.5 3q12 9 34.5 24t38.5 27q3 0 9 0 10 1 21 2t16 7q-2 2-7 3-4 1-6.5 2.5t-1.5 7.5q12 3 27.5 20t30 34.5 22.5 19.5q-1 9 3.5 16.5t10.5 15.5 10.5 16.5-2.5 17.5q10 3 11 9t0 14q-1 7 0 11zm-201 82q-3 1-3 5t-6 3q-25-35-36.5-69.5t-29.5-79.5q2-1 4-5 1-2 2.5-2.5t5.5 4.5q5 22 17 48t25 51.5 21 44.5z"/><path transform="translate(64.192 18.56) scale(.016 -.016)" d="m517 306q-14-4-28.5-29.5t-34.5-56.5-50-54q14-19 34-41.5t41-44.5 36-41q-16-17-31.5-21t-30.5 1q-17 6-38.5 23t-41.5 35.5-35 26.5q-10-11-29-28.5t-41-35-43-28.5-36-8q-10-9-31.5-10t-44 6-38 23.5-12.5 42.5q7 1 9 6.5t10 6.5q-7 17-5.5 30.5t5.5 27.5q2 9 4.5 19.5t2.5 22.5q5 0 11 19t14 48.5 19 63.5 25 65q3-1 11.5 14t19 38.5 19.5 48 13 42.5q29 44 57.5 90t61.5 86q10-1 19 2.5t18 8.5q1-10-1.5-15.5t-5.5-10.5-5.5-11.5-2.5-17.5q-2-6-9.5-25t-18-39-23.5-30q-13-34-24-58t-21-44-20-42.5-21-54.5q-2-6-4.5-11t-5.5-10q-6-13-10.5-26t-0.5-31q16 5 20 6.5t18 5.5q2 7-0.5 10.5t-5.5 6.5q-7 4-7 9 27 18 58 31.5t59 21.5q23 7 51.5 9.5t53-3 32.5-23.5q14 0 21-15.5t13-31.5zm-226-153q-14 21-35 39t-38.5 37.5-23.5 43.5q-4-1-9-8.5t-6.5-15 6.5-10.5q-17-39-27.5-75.5t-21.5-84.5q2-1 7-1 7-2 12.5-4.5t4.5-10.5q16-2 38 12t44 33 38 34q3 3 6 6t5 5zm146 160q-21 6-51.5 1.5t-59-14.5-44.5-23q7-8 18-23t24-28.5 27-19.5q13 7 24 22t23 28.5 25 13.5q-1 3 2 9t7 12q4 8 7 14.5t-2 7.5z"/><path transform="translate(73.632 18.56) scale(.016 -.016)" d="m574 380q5-22 2.5-48.5t-7.5-53.5q-3-19-5.5-37.5t-2.5-36.5q0-5-2-12t-4-15q-4-16-7-30.5t5-17.5q-2-12-4.5-36.5t-6-48-10.5-34.5q-14 1-26-1.5t-14-13.5q-25 11-34.5 32.5t-10.5 49.5q-1 19 3.5 43t10.5 48q7 34 11 62.5t-6 38.5q-14-10-21-25.5t-15.5-29-27.5-18.5q-1-19-13-38.5t-28-38.5-28-38-13-38q-25-15-45-33t-53-29q-9 7-26.5 11t-27.5-3q-13 5-21 13t-21 12q-25 35-33.5 79.5t-6 91 10.5 84.5q3 13 10 23t11 23q10 28 18.5 59.5t23 57.5 41.5 34q-4-42-11.5-81.5t-14.5-76.5q-14-67-22-126t9-112q20-4 48 12.5t60 47 64 68 60 75 48 68.5 27 47q4 26 9 41t18 37q26 8 48.5-5.5t27.5-33.5q1-6 1-11t0-11q0-5-0.5-11.5t1.5-13.5z"/></svg>