<svg width="79.058" height="20.272" viewBox="0 0 79.058 20.272" xmlns="http://www.w3.org/2000/svg"><path transform="translate(0 16.24) scale(.014 -.014)" d="m688 618q-34-2-57.5-14.5t-41.5-32.5q-22-24-39-55.5t-34-62.5q-8-16-20-32-12-17-25-30t-23-29q-10-17-23-33.5t-24-25.5q4-23 4-52.5t-1-60.5q0-34 0-66t5-56q4-4 9-3t7 6q9-10 22-15.5t24-11.5q12-7 16.5-18.5t-11.5-24.5q-24 3-48.5 3t-49.5 0q-30-1-60.5-0.5t-62.5 5.5q-1 26 13 37t31 19q9 5 18 9.5t15 12.5q0 8 0.5 23.5t0.5 35.5q1 26 1.5 55.5t0 56-2.5 41.5q-3 20-18 40t-30 39q-13 18-26 37.5t-26 38.5q-18 28-35.5 55.5t-34.5 53.5q-2 8-10 10t-13 6q0 8-1 15.5t-5 11.5q-6 1-12.5 1.5t-13.5 0.5q-8 0-16.5 0.5t-18.5 2.5q-2 2-3 5.5t-6 4.5q-3 14 1 20t10 11q3 3 4 4 20-3 44-2t48 3q12 1 24 2t23 1q31 1 53.5-7t29.5-32q-14-10-35.5-12.5t-44.5-2.5q20-37 46.5-75.5t55.5-76.5q17-21 33-42.5t31-41.5q15 21 29.5 42t29.5 42q26 38 52 75.5t50 76.5q-8 1-21 0t-28-2q-8-1-16-1.5t-15-0.5q-15 8-11.5 27.5t16.5 26.5q20-2 41.5-1t43.5 2q13 1 26 2t25 1q29 0 51-8.5t29-33.5z"/><path transform="translate(10.36 16.24) scale(.014 -.014)" d="m564 20q-5-15-19.5-20t-32.5-6q-9 0-19 0.5t-19 0.5q-8 1-15.5 1t-13.5 0q-15 7-16.5 21.5t0.5 31.5q0 7 0.5 14t0.5 14q-12-6-22.5-14.5t-21.5-17.5q-22-18-47.5-34t-64.5-15q-21 1-34 9.5t-35 10.5q-29 35-38 83t-10 102q0 21 0.5 43.5t1.5 44.5q1 31 1.5 61t-1.5 59q-4 0-9-0.5t-10-1.5q-11-2-21.5-2t-16.5 8q1 17 11.5 27t26.5 14q8 2 16.5 3t16.5 1q9 0 18-1t17-3q25-6 35-18-16-54-19.5-122t-2.5-142q1-25 4-50.5t11.5-45 22.5-25.5q23-9 48-5t47 16 35 27q19 21 28.5 51t12.5 65 2 73-3 74q0 12-1 23.5t-1 22.5q-4 0-12-1-12-1-25 0.5t-20 15.5q2 7 4.5 12.5t2.5 14.5q17 2 33 6.5t30 7.5q15 3 28 3 6 0 11.5-1t10.5-3q15-5 27-17-13-4-13.5-19t-7.5-26q2-42 2.5-96t0.5-110q0-11-0.5-21.5t-1.5-21.5q-2-27-1.5-50.5t14.5-40.5q15-6 28-14.5t26-16.5z"/><path transform="translate(19.46 16.24) scale(.014 -.014)" d="m324 444q-18-29-21-83t-1-117q0-10 0.5-20t1.5-20q3-68 3.5-136.5t-10.5-121.5q-8-37-24.5-63.5t-45.5-35.5q-7-2-28-4.5t-45-2-41 4.5q-15 5-26.5 15.5t-28.5 18.5q-7 17-11 39t2 43q20 24 36.5 22.5t29.5-15.5q15-16 26-41t16-43q31-1 55 14.5t28 46.5q7 48 4.5 120.5t-6.5 146.5q-3 53-5.5 102t-0.5 86q-6 2-12.5 0.5t-14.5-4.5-18-5-23 0q-4 9-7.5 19.5t-4.5 23.5q22 13 53 20 25 5 51 6t47-6q6-1 11.5-4t9.5-6zm-14 114q-13-22-36-23.5t-42 11-21 32.5q-2 29 16 43t39 12q22-2 37.5-21t6.5-54z"/><path transform="translate(25.718 16.24) scale(.014 -.014)" d="m326 24q0-10-19-15t-45.5-6.5-50.5-1.5q-7 0-14-0.5t-12-0.5q-3 0-13 2-9 3-20 4.5t-21-3.5q-13 7-12 14.5t4 15.5q2 3 3 7t1 7q17 8 34.5 14t26.5 21q0 59-0.5 109.5t0 102 0.5 111.5q-10 5-20.5 5t-20.5-1q-6 0-11-0.5t-9 0.5q0 5-2 9t-5 8q-4 5-5 10t8 13q10 1 20.5 2.5t21.5 2.5q26 3 51.5 5t48.5-3v-2q0-50-1.5-110t-4-120-5.5-111q0-2 0-8-1-6-1-12.5t1-10.5q3-11 14.5-17.5t23.5-11.5q13-5 23.5-11.5t10.5-17.5zm-61 580q11-24 3.5-43t-28.5-26-52 3q-18 24-14 46t18 35q16 14 38.5 13t34.5-28z"/><path transform="translate(34.958 16.24) scale(.014 -.014)" d="m516 130q-11-44-43.5-75.5t-76.5-46.5-95.5-13.5-103.5 21.5q-10-2-17-7.5t-13-12.5q-9-9-18-13.5t-25 8.5q-11 18-15 47.5t-2.5 63 7.5 63 15 46.5q23-8 31-25.5t12-38.5q5-22 9.5-43.5t20.5-38.5q17-17 41-24.5t50-7.5q33 1 65.5 12.5t57 31 31.5 44.5q6 43-3 69t-28 43q-23 22-56.5 35.5t-66.5 32.5q-13 8-23.5 19t-23.5 18q-14 8-29.5 13t-26.5 12q-23 15-39.5 39t-24.5 52q-4 14-6 29t-2 31q0 32 10.5 63t32.5 56q39 18 88 28t100 8.5 95-20.5q4 2 7 5t5 7q6 7 12.5 11.5t19.5-3.5q6-24 7.5-59.5t-2-69-13.5-50.5q-21 1-29.5 14.5t-10 33.5-1.5 42q0 2 0 3-23 21-59 32.5t-74 11.5q-30 0-56.5-8.5t-43.5-26.5q-14-15-20-36t0-50q2-11 10.5-24.5t16.5-21.5l6-6q24-22 59.5-41t75.5-38.5 75-43.5q33-22 57-50t33.5-65-3.5-86z"/><path transform="translate(43.498 16.24) scale(.014 -.014)" d="m569 425q-5-13-16.5-16.5t-25-6-24.5-12.5q-10-10-12-18t-9-26q-11-30-30.5-72.5t-43-91-47.5-98-45.5-94-36.5-76.5q-8-19-18-36.5t-27-28.5q-24-16-61-10-21 4-30.5 17t-30.5 23q-1 21 7 34.5t21 20.5q17 8 36.5 4.5t32.5-19.5q17 10 33.5 36.5t29.5 55.5 21 48q-3 9-10 13t-13 10q-28 83-61 161.5t-64 158.5q-18-1-34 0t-27 7q-7 8-5.5 12.5t4.5 8.5q2 2 4 5.5t1 8.5q5 0 10.5 0.5t11.5 1.5q19 2 43 4t48 1q31-1 56.5-7t35.5-23q-16-7-33.5-13.5t-37.5-11.5q23-67 49.5-128.5t49.5-128.5q38 56 64.5 121.5t52.5 132.5q-4 4-12 4.5t-17 0.5q-8-1-16-0.5t-13 4.5q0 4-0.5 7.5t-1.5 7.5q-2 8-1.5 14.5t9.5 12.5q11 0 20.5 0.5t19.5 0.5q43 1 76.5-1t66.5-19z"/><path transform="translate(52.178 16.24) scale(.014 -.014)" d="m564 20q-5-15-19.5-20t-32.5-6q-9 0-19 0.5t-19 0.5q-8 1-15.5 1t-13.5 0q-15 7-16.5 21.5t0.5 31.5q0 7 0.5 14t0.5 14q-12-6-22.5-14.5t-21.5-17.5q-22-18-47.5-34t-64.5-15q-21 1-34 9.5t-35 10.5q-29 35-38 83t-10 102q0 21 0.5 43.5t1.5 44.5q1 31 1.5 61t-1.5 59q-4 0-9-0.5t-10-1.5q-11-2-21.5-2t-16.5 8q1 17 11.5 27t26.5 14q8 2 16.5 3t16.5 1q9 0 18-1t17-3q25-6 35-18-16-54-19.5-122t-2.5-142q1-25 4-50.5t11.5-45 22.5-25.5q23-9 48-5t47 16 35 27q19 21 28.5 51t12.5 65 2 73-3 74q0 12-1 23.5t-1 22.5q-4 0-12-1-12-1-25 0.5t-20 15.5q2 7 4.5 12.5t2.5 14.5q17 2 33 6.5t30 7.5q15 3 28 3 6 0 11.5-1t10.5-3q15-5 27-17-13-4-13.5-19t-7.5-26q2-42 2.5-96t0.5-110q0-11-0.5-21.5t-1.5-21.5q-2-27-1.5-50.5t14.5-40.5q15-6 28-14.5t26-16.5z"/><path transform="translate(61.278 16.24) scale(.014 -.014)" d="m557 35q-2-15-13.5-21.5t-26.5-8.5q-12-2-24-1.5t-23 0.5q-5 1-9 1t-8 0q-34 56-69 110.5t-69 111.5q-22-13-38-32t-34-36q-1-12-1-23t0-21q0-11 0-21.5t-2-22.5q15-16 39.5-23t43.5-18q-4-15-22.5-21t-39.5-6-34 5q-25-5-55-8.5t-54 6.5q-5 7-4 11.5t4 8.5q2 3 3.5 6t0.5 7q10 10 25 14.5t30 8.5q4 90 2 187.5t-6 198.5v6q-1 37-2.5 74t-2.5 74q-9 0-15.5-2.5t-11.5-4.5q-8-3-15.5-5t-17.5 1q-4 6-3 13t3 15q2 4 3 7.5t1 7.5q24 5 48 12.5t44 7.5q14 0 25.5-5.5t20.5-19.5q-9-36-11.5-80.5t-1.5-94.5q1-55 2.5-111t1.5-109q43 31 85 79t79 94q-7 1-25.5 3t-41.5 4q2 11 2.5 22t4.5 18q1 2 3 4 19-4 38.5-3.5t39.5 2.5q8 1 16.5 1.5t16.5 0.5q13 0 25-1t22-5q7-2 13.5-5.5t11.5-8.5q-7-16-26.5-20t-36.5-11q-30-31-55.5-66t-53.5-69q16-34 39-69t45-67.5 34-61.5q22-7 44.5-15.5t35.5-24.5z"/><path transform="translate(69.958 16.24) scale(.014 -.014)" d="m564 20q-5-15-19.5-20t-32.5-6q-9 0-19 0.5t-19 0.5q-8 1-15.5 1t-13.5 0q-15 7-16.5 21.5t0.5 31.5q0 7 0.5 14t0.5 14q-12-6-22.5-14.5t-21.5-17.5q-22-18-47.5-34t-64.5-15q-21 1-34 9.5t-35 10.5q-29 35-38 83t-10 102q0 21 0.5 43.5t1.5 44.5q1 31 1.5 61t-1.5 59q-4 0-9-0.5t-10-1.5q-11-2-21.5-2t-16.5 8q1 17 11.5 27t26.5 14q8 2 16.5 3t16.5 1q9 0 18-1t17-3q25-6 35-18-16-54-19.5-122t-2.5-142q1-25 4-50.5t11.5-45 22.5-25.5q23-9 48-5t47 16 35 27q19 21 28.5 51t12.5 65 2 73-3 74q0 12-1 23.5t-1 22.5q-4 0-12-1-12-1-25 0.5t-20 15.5q2 7 4.5 12.5t2.5 14.5q17 2 33 6.5t30 7.5q15 3 28 3 6 0 11.5-1t10.5-3q15-5 27-17-13-4-13.5-19t-7.5-26q2-42 2.5-96t0.5-110q0-11-0.5-21.5t-1.5-21.5q-2-27-1.5-50.5t14.5-40.5q15-6 28-14.5t26-16.5z"/></svg>