<svg width="21.264" height="18.08" viewBox="0 0 21.264 18.08" xmlns="http://www.w3.org/2000/svg"><path transform="translate(0 14.88) scale(.016 -.016)" d="m238 19q-11-21-23-19t-20 12.5-8 14.5q0 14 7.5 32.5t16.5 37.5 12.5 35.5-4.5 26.5q-17 48-39.5 108.5t-46 123.5-43.5 121-32.5 102.5-12.5 66.5q0 15 6.5 26.5t16.5 3.5q9-7 21-36t26.5-72.5 30.5-94 31-100.5 29-92.5 25-69.5 18-31q20 81 30.5 139.5t16 102 8 77 6 63.5 11.5 62q5 21 8.5 35.5t11.5 18 26-9.5q6-4 5-35t-7.5-80-16.5-108-21.5-120.5-23-117.5-21.5-98q-3-11-10-35t-16-49-18-41z"/><path transform="translate(6.496 14.88) scale(.016 -.016)" d="m147 5q-25 0-43 21.5t-27.5 50.5-11.5 52q-4 50-4 100t-1 100q0 17 10 23t20 0 10-25q2-50 4-100.5t6-100.5q2-21 11-43t28-36q8 0 12.5 9.5t7.5 21 4 16.5q6 34 8.5 72.5t3.5 73.5 1 57.5 1 24.5q12 17 27 17t17-20q6-50 5-83t-3-56-2-41.5 7-40 25-52.5q15-25 7-37t-23-7.5-23 26.5q-2 6-5.5 12t-7.5 14q-11-19-26-34t-38-15z"/><path transform="translate(11.504 14.88) scale(.016 -.016)" d="m133-99q-8-14-23.5-18t-30-0.5-20.5 14 4 26.5q5 7 13 5t17-2.5 15 11.5l39 106q-12 26-27 60.5t-30.5 70-29 66.5-21 51-7.5 23q2 22 15.5 24.5t23.5-17.5q10-22 24.5-53.5t28.5-63.5 24.5-54.5 12.5-26.5q15 50 28 99.5t25 94.5q6 19 17.5 24t20-3.5 3.5-29.5q-10-40-21-95.5t-25.5-114.5-33-111-42.5-86z"/><path transform="translate(16.256 14.88) scale(.016 -.016)" d="m147 5q-25 0-43 21.5t-27.5 50.5-11.5 52q-4 50-4 100t-1 100q0 17 10 23t20 0 10-25q2-50 4-100.5t6-100.5q2-21 11-43t28-36q8 0 12.5 9.5t7.5 21 4 16.5q6 34 8.5 72.5t3.5 73.5 1 57.5 1 24.5q12 17 27 17t17-20q6-50 5-83t-3-56-2-41.5 7-40 25-52.5q15-25 7-37t-23-7.5-23 26.5q-2 6-5.5 12t-7.5 14q-11-19-26-34t-38-15z"/></svg>