<svg width="48.752" height="18.08" viewBox="0 0 48.752 18.08" xmlns="http://www.w3.org/2000/svg"><path transform="translate(0 14.88) scale(.016 -.016)" d="m201 19q-11-21-23-19t-20 12.5-8 14.5q0 14 7.5 32.5t16.5 37.5 12.5 35.5-4.5 26.5q-17 48-39.5 108.5t-46 123.5-43.5 121-32.5 102.5-12.5 66.5q0 15 6.5 26.5t16.5 3.5q9-7 21-36t26.5-72.5 30.5-94 31-100.5 29-92.5 25-69.5 18-31q20 81 30.5 139.5t16 102 8 77 6 63.5 11.5 62q5 21 8.5 35.5t11.5 18 26-9.5q6-4 5-35t-7.5-80-16.5-108-21.5-120.5-23-117.5-21.5-98q-3-11-10-35t-16-49-18-41z"/><path transform="translate(5.44 14.88) scale(.016 -.016)" d="m140-1q-24 0-45.5 15.5t-38 36-26 38-9.5 22.5q0 7 7 13.5t17 5.5 18-18q6-10 17.5-27t26.5-29.5 31-12.5q21 0 41.5 14.5t37.5 32 26 26.5q26 24 38 15.5t16-34.5q3-20 5-37t3-38q3-17-6-24t-20-3.5-15 19.5q-2 14-4.5 24t-5.5 24q-13-11-26.5-26t-34-26-53.5-11z"/><path transform="translate(10.672 14.88) scale(.016 -.016)" d="m160-159q-27 0-41.5 11t-20.5 27-7 32.5 0 26.5q3 21 13 26.5t19.5-2 10.5-28.5q0-24 6.5-36t26.5-12q21 0 32.5 21.5t18 51 11.5 52.5q-20-1-40-4t-40-3q-52 0-89 32t-37 84q0 17 11.5 23t23 1 11.5-22q0-46 24.5-60t55.5-14q38 0 57.5 13.5t29 32 15 34 14.5 19.5q17 7 23-1t6-22-2-24q-5-30-11-60t-11-60q-6-33-19-65t-35-53-56-21z"/><path transform="translate(15.744 14.88) scale(.016 -.016)" d="m140-1q-24 0-45.5 15.5t-38 36-26 38-9.5 22.5q0 7 7 13.5t17 5.5 18-18q6-10 17.5-27t26.5-29.5 31-12.5q21 0 41.5 14.5t37.5 32 26 26.5q26 24 38 15.5t16-34.5q3-20 5-37t3-38q3-17-6-24t-20-3.5-15 19.5q-2 14-4.5 24t-5.5 24q-13-11-26.5-26t-34-26-53.5-11z"/><path transform="translate(25.776 14.88) scale(.016 -.016)" d="m113 0q-12 0-26.5 9.5t-25.5 23-11.5 26 15.5 18.5 24.5 1 28.5-18q17 12 21.5 24t4.5 28q-4 28-12 70.5t-17 93-18.5 101.5-17 97-12.5 78q0 13 2.5 38t7.5 49.5 12 35.5q21 30 38 35.5t28.5-3 15-21-2.5-18.5q-28-27-38-60t-10-66q0-12 5-44t12.5-75.5 16.5-91.5 16.5-93 12.5-79 5-49q0-49-22-79.5t-53-30.5z"/><path transform="translate(29.584 14.88) scale(.016 -.016)" d="m263 12q-12 50-40 73t-51 22q-44 0-63-26.5t-22-58.5q-1-22-13-28t-23 2-10 26q2 70 3.5 138t4 147 6.5 180q0 27 10.5 36t21-1 10.5-43q0-3-1-30t-2-68.5-3-88-3.5-91-2.5-76.5q1 0 17.5 6.5t38 13 36.5 5.5q35-1 60-19t41-47q5-8 11-22.5t11-26.5 5-15q0-11-9.5-16t-19.5-3.5-13 11.5z"/><path transform="translate(35.12 14.88) scale(.016 -.016)" d="m168-2q-30 0-62 8.5t-54 30-22 58.5q4 28 25 43.5t49.5 22 54.5 6.5q34 0 68-10.5t57-31.5 23-51q0-23-14.5-38t-37-23.5-46-11.5-41.5-3zm10 46q23 0 44 5.5t40 20.5q-6 21-24.5 32t-41 15-41.5 4q-22 0-42.5-6.5t-40.5-22.5q6-19 25.5-29.5t42-14.5 38.5-4z"/><path transform="translate(40.512 14.88) scale(.016 -.016)" d="m61 24-18 101q-3 19 3.5 31.5t16.5 13.5 16-17q5-7 6-17t4-21q20 20 43.5 33.5t51.5 11.5q17-1 35-6t34-12q17-6 13-21.5t-30-17.5q-20 8-31.5 10.5t-20.5 2.5q-26 0-46.5-20t-28.5-70q-4-23-21.5-25.5t-26.5 23.5z"/><path transform="translate(45.04 14.88) scale(.016 -.016)" d="m140 0q-38 2-46 39-4 20-7 41t-6 43q-5-1-11-2t-11-3q-17-4-24 5t-3.5 21 16.5 16q8 2 16 3.5t18 2.5q0 5 1 33.5t2 69.5 3 87 3.5 87 2.5 68q0 22 10.5 28.5t21 0.5 10.5-24q0-59-1-93.5t-2-56.5-2-44.5-2-56.5-1-93q12 0 23.5 0t22.5-1q17 0 23.5-10.5t2-21-21.5-10.5h-51q3-24 6-43.5t5-36.5q17-7 28-8t11-18-11.5-20.5-25.5-2.5z"/></svg>