<svg width="235.5" height="19.424" viewBox="0 0 235.5 19.424" xmlns="http://www.w3.org/2000/svg"><path transform="translate(0 15.424) scale(.016 -.016)" d="M47 0V93L565 675L588 634H65V714H639V621L121 39L98 80H654V0Z"/><path transform="translate(11.2 15.424) scale(.016 -.016)" d="m230-13q-88 0-138 41t-50 111q0 43 20.5 74t60.5 51.5 98 27.5l168 21q31 4 42 17t11 33v1q0 28-15.5 48.5t-45.5 31.5-75 11q-67 0-104-20t-45-59h-93q5 47 36 80.5t83.5 52 122.5 18.5q76 0 127-20.5t76.5-59.5 25.5-94v-353h-88v139l9-8q-20-52-54-83.5t-77.5-46-94.5-14.5zm25 73q41 0 75 13t59.5 36 39 55 13.5 69v60l21-21q-18-10-37-15t-49-9l-144-21q-45-7-70-27t-25-55q0-40 31-62.5t86-22.5z"/><path transform="translate(20.752 15.424) scale(.016 -.016)" d="M67 0V714H159V0Z"/><path transform="translate(24.368 15.424) scale(.016 -.016)" d="m230-13q-88 0-138 41t-50 111q0 43 20.5 74t60.5 51.5 98 27.5l168 21q31 4 42 17t11 33v1q0 28-15.5 48.5t-45.5 31.5-75 11q-67 0-104-20t-45-59h-93q5 47 36 80.5t83.5 52 122.5 18.5q76 0 127-20.5t76.5-59.5 25.5-94v-353h-88v139l9-8q-20-52-54-83.5t-77.5-46-94.5-14.5zm25 73q41 0 75 13t59.5 36 39 55 13.5 69v60l21-21q-18-10-37-15t-49-9l-144-21q-45-7-70-27t-25-55q0-40 31-62.5t86-22.5z"/><path transform="translate(33.92 15.424) scale(.016 -.016)" d="m66 0v514h93v-131l-9 10q18 47 48.5 76.5t72.5 43.5 91 14 88.5-14 67.5-41.5 43-69 15-96.5v-306h-92v295q0 50-18 85t-51.5 53.5-82.5 18.5-88.5-22-62-60.5-22.5-87.5v-282z"/><path transform="translate(44.128 15.424) scale(.016 -.016)" d="m289-13q-71 0-127.5 33t-89.5 94.5-33 144.5q0 49 12 91t35 75 54 55.5 69 34.5 80 12q47 0 88.5-13t75-41 53.5-72l-10-11v324h92v-714h-92v126l10-12q-20-43-53.5-71.5t-75-42-88.5-13.5zm25 74q33 0 61.5 9.5t51 27 38.5 42 25 54.5 9 64q0 57-23.5 101t-64.5 69-97 25q-33 0-61-9.5t-49.5-26.5-37-41-23-53.5-7.5-63.5q0-57 21-102t61-70.5 96-25.5z"/><path transform="translate(54.608 15.424) scale(.016 -.016)" d="m317-13q-85 0-147.5 34t-96.5 95-34 141q0 48 12.5 89.5t36 75 57.5 57 77.5 36 94.5 12.5q87 0 149.5-34t96-94.5 33.5-141.5q0-48-12.5-89.5t-36-75-57.5-57-77.5-36-95.5-12.5zm0 74q37 0 66.5 9.5t51 27 36.5 42 22 54.5 7 64q0 58-20 101.5t-61 68.5-102 25q-36 0-65.5-9.5t-51-26.5-36.5-41-22-53.5-7-64.5q0-57 20.5-101.5t61-70 100.5-25.5z"/><path transform="translate(69.152 15.424) scale(.016 -.016)" d="m376-13q-83 0-144.5 18t-102 49.5-61.5 71.5-24 84h99q6-32 23-58.5t45.5-46 69.5-30 95-10.5q67 0 115.5 14t74.5 43 26 73q0 28-13 50.5t-41 38-73 22.5l-178 32q-40 8-79 20t-70.5 33-50.5 55-19 84q0 44 21 80.5t60 62.5 94 40 124 14q75 0 130-15.5t91-44 55.5-65 21.5-76.5h-98q-7 36-30.5 64t-66 44-106.5 16q-61 0-105-14.5t-67.5-40-23.5-61.5q0-29 15.5-50.5t45.5-35.5 75-23l186-33q64-12 109-36t69-62 24-92q0-52-21.5-92t-62-67.5-99-41.5-133.5-14z"/><path transform="translate(80.928 15.424) scale(.016 -.016)" d="m230-13q-88 0-138 41t-50 111q0 43 20.5 74t60.5 51.5 98 27.5l168 21q31 4 42 17t11 33v1q0 28-15.5 48.5t-45.5 31.5-75 11q-67 0-104-20t-45-59h-93q5 47 36 80.5t83.5 52 122.5 18.5q76 0 127-20.5t76.5-59.5 25.5-94v-353h-88v139l9-8q-20-52-54-83.5t-77.5-46-94.5-14.5zm25 73q41 0 75 13t59.5 36 39 55 13.5 69v60l21-21q-18-10-37-15t-49-9l-144-21q-45-7-70-27t-25-55q0-40 31-62.5t86-22.5z"/><path transform="translate(90.48 15.424) scale(.016 -.016)" d="m66 0v514h93v-131l-9 10q18 47 48.5 76.5t72.5 43.5 91 14 88.5-14 67.5-41.5 43-69 15-96.5v-306h-92v295q0 50-18 85t-51.5 53.5-82.5 18.5-88.5-22-62-60.5-22.5-87.5v-282z"/><path transform="translate(100.69 15.424) scale(.016 -.016)" d="m289-13q-61 0-106 12.5t-76 34.5-47.5 51.5-19.5 64.5h94q6-27 23.5-47.5t50-32 82.5-11.5q47 0 78 10t46.5 28.5 15.5 42.5q0 27-21.5 47t-67.5 27l-129 22q-80 14-119 48.5t-39 92.5q0 32 15 59.5t43.5 48 70.5 31.5 95 11q70 0 120.5-17.5t79.5-50.5 34-80h-94q-5 22-21.5 39t-46 27-73.5 10q-41 0-70.5-9.5t-45-26-15.5-39.5q0-30 23.5-45.5t60.5-21.5l131-21q45-8 82-24.5t59-46 22-75.5q0-38-16.5-67.5t-47.5-50-74.5-31-96.5-10.5z"/><path transform="translate(114.1 15.424) scale(.016 -.016)" d="m376-13q-83 0-144.5 18t-102 49.5-61.5 71.5-24 84h99q6-32 23-58.5t45.5-46 69.5-30 95-10.5q67 0 115.5 14t74.5 43 26 73q0 28-13 50.5t-41 38-73 22.5l-178 32q-40 8-79 20t-70.5 33-50.5 55-19 84q0 44 21 80.5t60 62.5 94 40 124 14q75 0 130-15.5t91-44 55.5-65 21.5-76.5h-98q-7 36-30.5 64t-66 44-106.5 16q-61 0-105-14.5t-67.5-40-23.5-61.5q0-29 15.5-50.5t45.5-35.5 75-23l186-33q64-12 109-36t69-62 24-92q0-52-21.5-92t-62-67.5-99-41.5-133.5-14z"/><path transform="translate(125.87 15.424) scale(.016 -.016)" d="m315-13q-84 0-146 34t-96 95-34 141q0 49 12.5 90.5t36.5 74.5 57.5 57 76.5 36 94 12q56 0 105-15.5t85-50 55-90.5 15-137h-475v67h382q-3 39-15.5 67.5t-34 47.5-51 28.5-66.5 9.5q-38 0-68-9.5t-51.5-27.5-35.5-42-20.5-54-6.5-64q0-55 19-100t59.5-71 103.5-26 103 22 56 57h95q-11-41-43-75.5t-85-55.5-127-21z"/><path transform="translate(135.73 15.424) scale(.016 -.016)" d="m66 0v514h93v-118l-9 9q16 44 42.5 71t61.5 39 74 12q42 0 78-15t61-45.5 34-74.5l-13 1q13 44 39.5 74t64 45 83.5 15q57 0 99-23.5t64.5-68.5 22.5-111v-324h-92v310q0 48-14.5 79.5t-41 47-63.5 15.5q-41 0-72.5-20t-49-56-17.5-83v-293h-93v310q0 72-32 107t-87 35q-38 0-70-20t-51-56-19-83v-293z"/><path transform="translate(150.5 15.424) scale(.016 -.016)" d="M70 0V514H163V0ZM65 609V714H167V609Z"/><path transform="translate(154.22 15.424) scale(.016 -.016)" d="M80 0V714H625V635H177V409H589V332H177V79H625V0Z"/><path transform="translate(165.14 15.424) scale(.016 -.016)" d="m13 0 252 300-7-62-228 276h119l174-225-59 2 176 223h107l-231-276 5 62 247-300h-121l-190 247 61-2-198-245z"/><path transform="translate(174.43 15.424) scale(.016 -.016)" d="m66-190v704h93v-125l-10 12q20 43 53 71t75 41.5 89 13.5q72 0 128.5-33t89-94 32.5-145q0-49-12-91t-34.5-75-54-55.5-69-34.5-80.5-12q-47 0-89 13t-75 41.5-53 71.5l10 11v-314zm275 251q34 0 61.5 9.5t49.5 26.5 37 41 23 53.5 8 63.5q0 58-21.5 102.5t-61.5 70-96 25.5q-33 0-61.5-9.5t-51.5-27-39-42-24.5-54.5-8.5-64q0-56 23-100.5t65-69.5 97-25z"/><path transform="translate(184.93 15.424) scale(.016 -.016)" d="m230-13q-88 0-138 41t-50 111q0 43 20.5 74t60.5 51.5 98 27.5l168 21q31 4 42 17t11 33v1q0 28-15.5 48.5t-45.5 31.5-75 11q-67 0-104-20t-45-59h-93q5 47 36 80.5t83.5 52 122.5 18.5q76 0 127-20.5t76.5-59.5 25.5-94v-353h-88v139l9-8q-20-52-54-83.5t-77.5-46-94.5-14.5zm25 73q41 0 75 13t59.5 36 39 55 13.5 69v60l21-21q-18-10-37-15t-49-9l-144-21q-45-7-70-27t-25-55q0-40 31-62.5t86-22.5z"/><path transform="translate(194.48 15.424) scale(.016 -.016)" d="m66 0v514h93v-131l-9 10q18 47 48.5 76.5t72.5 43.5 91 14 88.5-14 67.5-41.5 43-69 15-96.5v-306h-92v295q0 50-18 85t-51.5 53.5-82.5 18.5-88.5-22-62-60.5-22.5-87.5v-282z"/><path transform="translate(204.69 15.424) scale(.016 -.016)" d="m289-13q-71 0-127.5 33t-89.5 94.5-33 144.5q0 49 12 91t35 75 54 55.5 69 34.5 80 12q47 0 88.5-13t75-41 53.5-72l-10-11v324h92v-714h-92v126l10-12q-20-43-53.5-71.5t-75-42-88.5-13.5zm25 74q33 0 61.5 9.5t51 27 38.5 42 25 54.5 9 64q0 57-23.5 101t-64.5 69-97 25q-33 0-61-9.5t-49.5-26.5-37-41-23-53.5-7.5-63.5q0-57 21-102t61-70.5 96-25.5z"/><path transform="translate(215.17 15.424) scale(.016 -.016)" d="m315-13q-84 0-146 34t-96 95-34 141q0 49 12.5 90.5t36.5 74.5 57.5 57 76.5 36 94 12q56 0 105-15.5t85-50 55-90.5 15-137h-475v67h382q-3 39-15.5 67.5t-34 47.5-51 28.5-66.5 9.5q-38 0-68-9.5t-51.5-27.5-35.5-42-20.5-54-6.5-64q0-55 19-100t59.5-71 103.5-26 103 22 56 57h95q-11-41-43-75.5t-85-55.5-127-21z"/><path transform="translate(225.02 15.424) scale(.016 -.016)" d="m289-13q-71 0-127.5 33t-89.5 94.5-33 144.5q0 49 12 91t35 75 54 55.5 69 34.5 80 12q47 0 88.5-13t75-41 53.5-72l-10-11v324h92v-714h-92v126l10-12q-20-43-53.5-71.5t-75-42-88.5-13.5zm25 74q33 0 61.5 9.5t51 27 38.5 42 25 54.5 9 64q0 57-23.5 101t-64.5 69-97 25q-33 0-61-9.5t-49.5-26.5-37-41-23-53.5-7.5-63.5q0-57 21-102t61-70.5 96-25.5z"/></svg>