<svg width="218.26" height="19.424" viewBox="0 0 218.26 19.424" xmlns="http://www.w3.org/2000/svg"><path transform="translate(0 15.424) scale(.016 -.016)" d="M42 0V93L658 675L686 634H58V714H734V621L119 39L90 80H748V0Z"/><path transform="translate(12.64 15.424) scale(.016 -.016)" d="m250-13q-101 0-157 40t-56 112q0 42 21 72.5t61.5 50 99.5 25.5l246 28q28 3 41.5 14.5t13.5 32.5v1q0 30-21 51t-60 32-94 11q-82 0-129-21.5t-56-63.5h-96q6 50 41 84.5t96 53 145 18.5q88 0 148-20t90.5-59 30.5-97v-352h-92v167l9-13q-22-53-62.5-90.5t-96-57-123.5-19.5zm28 73q50 0 93.5 14.5t77 39.5 52.5 58.5 19 70.5v55l17-24q-17-9-39.5-14.5t-62.5-10.5l-209-27q-45-6-67-24.5t-22-50.5q0-43 35.5-65t105.5-22z"/><path transform="translate(23.312 15.424) scale(.016 -.016)" d="M59 0V714H154V0Z"/><path transform="translate(26.72 15.424) scale(.016 -.016)" d="m250-13q-101 0-157 40t-56 112q0 42 21 72.5t61.5 50 99.5 25.5l246 28q28 3 41.5 14.5t13.5 32.5v1q0 30-21 51t-60 32-94 11q-82 0-129-21.5t-56-63.5h-96q6 50 41 84.5t96 53 145 18.5q88 0 148-20t90.5-59 30.5-97v-352h-92v167l9-13q-22-53-62.5-90.5t-96-57-123.5-19.5zm28 73q50 0 93.5 14.5t77 39.5 52.5 58.5 19 70.5v55l17-24q-17-9-39.5-14.5t-62.5-10.5l-209-27q-45-6-67-24.5t-22-50.5q0-43 35.5-65t105.5-22z"/><path transform="translate(37.392 15.424) scale(.016 -.016)" d="m58 0v514h95v-152l-9 10q21 56 58 90t87 50 108 16q60 0 107-15.5t80-46 50.5-76 17.5-104.5v-286h-95v267q0 58-20.5 100t-62.5 65-107 23-113-25.5-74.5-69.5-26.5-98v-262z"/><path transform="translate(48.656 15.424) scale(.016 -.016)" d="m328-14q-81 0-147.5 32.5t-106 93.5-39.5 146q0 51 14.5 93.5t41.5 75.5 63.5 55.5 80.5 34 93 11.5q56 0 108-15.5t93-48 65-83.5l-10-12v345h95v-714h-95v146l10-13q-24-50-65-83t-93-48.5-108-15.5zm25 74q40 0 75 9.5t64 27 49.5 42 32 55 11.5 64.5q0 58-30.5 102t-82.5 69-119 25q-40 0-74-9.5t-60.5-26.5-45-41.5-28.5-54-10-64.5q0-57 26.5-102t75.5-70.5 116-25.5z"/><path transform="translate(60.464 15.424) scale(.016 -.016)" d="m360-14q-98 0-171.5 33.5t-113.5 94.5-40 144q0 49 15 91t43 75 67.5 56.5 90 35.5 109.5 12q99 0 172-33t113-93.5 40-143.5q0-50-14.5-92t-42.5-75.5-68-56.5-90.5-35.5-109.5-12.5zm0 74q45 0 81 9.5t63 27.5 45 42.5 27 54.5 9 64q0 57-25 101t-75 69.5-125 25.5q-44 0-80-9.5t-63-27-45.5-42-27.5-54-9-63.5q0-56 25.5-101t75.5-71 124-26z"/><path transform="translate(76.688 15.424) scale(.016 -.016)" d="m425-14q-102 0-174 18.5t-117 50.5-67 73-25 86h103q6-31 23.5-57.5t50-47 83.5-32 123-11.5q86 0 144 14.5t87 44 29 73.5q0 27-14 49t-45.5 37.5-84.5 22.5l-225 30q-49 7-94 19t-80.5 33.5-55.5 55.5-20 84q0 46 23 82.5t67.5 62.5 109.5 40 149 14q93 0 157.5-16.5t104.5-45.5 59.5-65.5 21.5-76.5h-103q-5 36-30.5 64t-76.5 44-135 16q-81 0-135.5-14t-81.5-40-27-62q0-32 19-54t54.5-35.5 86.5-20.5l236-31q67-8 117-30.5t78.5-61 28.5-96.5q0-54-23.5-94.5t-70-67.5-114-41-156.5-14z"/><path transform="translate(90 15.424) scale(.016 -.016)" d="m250-13q-101 0-157 40t-56 112q0 42 21 72.5t61.5 50 99.5 25.5l246 28q28 3 41.5 14.5t13.5 32.5v1q0 30-21 51t-60 32-94 11q-82 0-129-21.5t-56-63.5h-96q6 50 41 84.5t96 53 145 18.5q88 0 148-20t90.5-59 30.5-97v-352h-92v167l9-13q-22-53-62.5-90.5t-96-57-123.5-19.5zm28 73q50 0 93.5 14.5t77 39.5 52.5 58.5 19 70.5v55l17-24q-17-9-39.5-14.5t-62.5-10.5l-209-27q-45-6-67-24.5t-22-50.5q0-43 35.5-65t105.5-22z"/><path transform="translate(100.67 15.424) scale(.016 -.016)" d="m58 0v514h95v-152l-9 10q21 56 58 90t87 50 108 16q60 0 107-15.5t80-46 50.5-76 17.5-104.5v-286h-95v267q0 58-20.5 100t-62.5 65-107 23-113-25.5-74.5-69.5-26.5-98v-262z"/><path transform="translate(111.94 15.424) scale(.016 -.016)" d="m321-14q-77 0-130.5 14t-87 37.5-50 52.5-19.5 59h98q6-21 24.5-42t58-35 106.5-14q65 0 104 11t56.5 30 17.5 42q0 24-21 44.5t-77 27.5l-175 24q-92 12-135.5 45.5t-43.5 92.5q0 33 16.5 60.5t49 48.5 82.5 32.5 117 11.5q87 0 144-19t87.5-53 37.5-79h-99q-5 22-23 39.5t-54 28.5-95 11q-55 0-92-10t-55-27-18-40q0-28 23.5-43.5t69.5-22.5l172-23q57-8 99.5-24.5t66-45 23.5-74.5q0-40-19.5-70t-55.5-50-87.5-30-115.5-10z"/><path transform="translate(126.77 15.424) scale(.016 -.016)" d="M75 0V714H718V634H175V405H677V327H175V80H718V0Z"/><path transform="translate(139.17 15.424) scale(.016 -.016)" d="m10 0 288 292-8-55-270 277h130l214-228-62 1 214 227h117l-268-274 2 50 279-290h-130l-223 239 68 4-234-243z"/><path transform="translate(149.66 15.424) scale(.016 -.016)" d="m58-190v704h95v-145l-10 12q24 51 65 83.5t93 48 108 15.5q82 0 148.5-32.5t106-93 39.5-146.5q0-51-15-93.5t-41.5-75.5-63.5-55.5-81-34-93-11.5q-56 0-108 15.5t-93 48.5-65 83l10 13v-336zm327 250q40 0 73.5 9.5t60.5 26.5 45.5 41.5 28.5 54.5 10 64q0 58-27 102.5t-75.5 70-115.5 25.5q-40 0-75.5-9.5t-64.5-27-49.5-42-32-54.5-11.5-65q0-57 30.5-101.5t83-69.5 119.5-25z"/><path transform="translate(161.47 15.424) scale(.016 -.016)" d="m250-13q-101 0-157 40t-56 112q0 42 21 72.5t61.5 50 99.5 25.5l246 28q28 3 41.5 14.5t13.5 32.5v1q0 30-21 51t-60 32-94 11q-82 0-129-21.5t-56-63.5h-96q6 50 41 84.5t96 53 145 18.5q88 0 148-20t90.5-59 30.5-97v-352h-92v167l9-13q-22-53-62.5-90.5t-96-57-123.5-19.5zm28 73q50 0 93.5 14.5t77 39.5 52.5 58.5 19 70.5v55l17-24q-17-9-39.5-14.5t-62.5-10.5l-209-27q-45-6-67-24.5t-22-50.5q0-43 35.5-65t105.5-22z"/><path transform="translate(172.14 15.424) scale(.016 -.016)" d="m58 0v514h95v-152l-9 10q21 56 58 90t87 50 108 16q60 0 107-15.5t80-46 50.5-76 17.5-104.5v-286h-95v267q0 58-20.5 100t-62.5 65-107 23-113-25.5-74.5-69.5-26.5-98v-262z"/><path transform="translate(183.41 15.424) scale(.016 -.016)" d="m328-14q-81 0-147.5 32.5t-106 93.5-39.5 146q0 51 14.5 93.5t41.5 75.5 63.5 55.5 80.5 34 93 11.5q56 0 108-15.5t93-48 65-83.5l-10-12v345h95v-714h-95v146l10-13q-24-50-65-83t-93-48.5-108-15.5zm25 74q40 0 75 9.5t64 27 49.5 42 32 55 11.5 64.5q0 58-30.5 102t-82.5 69-119 25q-40 0-74-9.5t-60.5-26.5-45-41.5-28.5-54-10-64.5q0-57 26.5-102t75.5-70.5 116-25.5z"/><path transform="translate(195.22 15.424) scale(.016 -.016)" d="m356-14q-97 0-169 33.5t-112 94.5-40 144q0 49 14.5 91t42.5 75 67.5 56.5 89.5 35.5 109 12q68 0 126-17t100-53 64-92 19-134h-574v69h475q-4 38-20.5 66.5t-44 48-64 29.5-81.5 10q-44 0-80-9.5t-63.5-27-45.5-41.5-27.5-54-9.5-65q0-57 25.5-102t76.5-71 125-26q78 0 126 21.5t71 61.5h100q-16-45-53-80t-98-55.5-149-20.5z"/><path transform="translate(206.45 15.424) scale(.016 -.016)" d="m328-14q-81 0-147.5 32.5t-106 93.5-39.5 146q0 51 14.5 93.5t41.5 75.5 63.5 55.5 80.5 34 93 11.5q56 0 108-15.5t93-48 65-83.5l-10-12v345h95v-714h-95v146l10-13q-24-50-65-83t-93-48.5-108-15.5zm25 74q40 0 75 9.5t64 27 49.5 42 32 55 11.5 64.5q0 58-30.5 102t-82.5 69-119 25q-40 0-74-9.5t-60.5-26.5-45-41.5-28.5-54-10-64.5q0-57 26.5-102t75.5-70.5 116-25.5z"/></svg>