<svg width="101.52" height="19.424" viewBox="0 0 101.52 19.424" xmlns="http://www.w3.org/2000/svg"><path transform="translate(0 15.424) scale(.016 -.016)" d="M50 0V93L504 675L523 634H70V714H576V621L122 39L104 80H591V0Z"/><path transform="translate(10.256 15.424) scale(.016 -.016)" d="m216-13q-78 0-124 42t-46 110q0 43 20 74.5t59.5 52.5 96.5 29l116 17q34 5 43.5 19t9.5 33v1q0 26-12 46t-36.5 31.5-62.5 11.5q-57 0-87-19.5t-38-56.5h-91q5 45 33 78.5t74.5 52 108.5 18.5q68 0 113-21.5t67-60.5 22-92v-353h-86v121l10-6q-19-51-48.5-78.5t-65.5-38.5-76-11zm24 73q35 0 62.5 12t47.5 34 30.5 53 10.5 68v63l23-20q-19-10-35.5-14.5t-39.5-8.5l-102-17q-45-7-71.5-28t-26.5-59 27.5-60.5 73.5-22.5z"/><path transform="translate(19.056 15.424) scale(.016 -.016)" d="M72 0V714H163V0Z"/><path transform="translate(22.816 15.424) scale(.016 -.016)" d="m216-13q-78 0-124 42t-46 110q0 43 20 74.5t59.5 52.5 96.5 29l116 17q34 5 43.5 19t9.5 33v1q0 26-12 46t-36.5 31.5-62.5 11.5q-57 0-87-19.5t-38-56.5h-91q5 45 33 78.5t74.5 52 108.5 18.5q68 0 113-21.5t67-60.5 22-92v-353h-86v121l10-6q-19-51-48.5-78.5t-65.5-38.5-76-11zm24 73q35 0 62.5 12t47.5 34 30.5 53 10.5 68v63l23-20q-19-10-35.5-14.5t-39.5-8.5l-102-17q-45-7-71.5-28t-26.5-59 27.5-60.5 73.5-22.5z"/><path transform="translate(31.616 15.424) scale(.016 -.016)" d="m72 0v514h91v-117l-9 10q16 41 42.5 67.5t63 39.5 78.5 13 76.5-13 59.5-39 38.5-65 13.5-90v-320h-91v314q0 44-16 74.5t-44 46-66 15.5q-39 0-72.5-20t-53.5-54.5-20-80.5v-295z"/><path transform="translate(41.12 15.424) scale(.016 -.016)" d="m263-13q-64 0-114 34t-78.5 95.5-28.5 142.5q0 48 10.5 89.5t30.5 74.5 47 56 61 35.5 72 12.5q41 0 76-12t63-37 45-63l-10-11v310h91v-714h-91v112l10-11q-17-38-45-63.5t-63-38-76-12.5zm25 75q29 0 53 9.5t42.5 27 31.5 41.5 20 54 7 64q0 57-18.5 100.5t-53 68.5-82.5 25q-29 0-52.5-9t-42-26-31.5-41-19.5-53.5-6.5-63.5q0-57 18-101.5t52-70 82-25.5z"/><path transform="translate(50.72 15.424) scale(.016 -.016)" d="m289-13q-77 0-132.5 35t-85 96-29.5 139q0 47 11 88t31.5 74.5 50.5 57.5 69 37 85 13q78 0 133.5-35t85-95.5 29.5-139.5q0-47-11-88t-32-74.5-51-57.5-68.5-37-85.5-13zm0 75q31 0 56 9.5t43.5 26.5 31 41.5 18.5 54.5 6 64q0 58-17 101.5t-51.5 68-86.5 24.5q-31 0-56-9t-43.5-26-30.5-41-18-53.5-6-64.5q0-57 17-101.5t51-69.5 86-25z"/><path transform="translate(64.144 15.424) scale(.016 -.016)" d="m344-13q-71 0-125.5 18t-92 49-58 70.5-22.5 82.5h96q6-32 22.5-58.5t42.5-45.5 60.5-29 76.5-10q54 0 96 14t66 42.5 24 72.5q0 29-12.5 51.5t-38 38-64.5 23.5l-148 33q-33 8-68 20t-64 33-47 54.5-18 83.5q0 44 19 80t54.5 62.5 84 40.5 107.5 14q63 0 111.5-15.5t82.5-43.5 53-64 21-77h-95q-7 37-29.5 64.5t-59 43.5-87.5 16q-49 0-86-14.5t-57.5-40-20.5-60.5q0-28 13-49t39.5-35.5 67.5-24.5l153-35q61-14 102.5-39t62.5-62.5 21-89.5q0-50-19.5-89.5t-56.5-67.5-89-42.5-118-14.5z"/><path transform="translate(74.912 15.424) scale(.016 -.016)" d="m216-13q-78 0-124 42t-46 110q0 43 20 74.5t59.5 52.5 96.5 29l116 17q34 5 43.5 19t9.5 33v1q0 26-12 46t-36.5 31.5-62.5 11.5q-57 0-87-19.5t-38-56.5h-91q5 45 33 78.5t74.5 52 108.5 18.5q68 0 113-21.5t67-60.5 22-92v-353h-86v121l10-6q-19-51-48.5-78.5t-65.5-38.5-76-11zm24 73q35 0 62.5 12t47.5 34 30.5 53 10.5 68v63l23-20q-19-10-35.5-14.5t-39.5-8.5l-102-17q-45-7-71.5-28t-26.5-59 27.5-60.5 73.5-22.5z"/><path transform="translate(83.712 15.424) scale(.016 -.016)" d="m72 0v514h91v-117l-9 10q16 41 42.5 67.5t63 39.5 78.5 13 76.5-13 59.5-39 38.5-65 13.5-90v-320h-91v314q0 44-16 74.5t-44 46-66 15.5q-39 0-72.5-20t-53.5-54.5-20-80.5v-295z"/><path transform="translate(93.216 15.424) scale(.016 -.016)" d="m268-13q-50 0-90 11.5t-69 32.5-45.5 51.5-19.5 67.5h91q6-30 23-50t45-30 67-10q35 0 60.5 9.5t39.5 27.5 14 43q0 29-21.5 48.5t-60.5 26.5l-100 20q-72 15-108 50.5t-36 92.5q0 32 14 59t40 47.5 62.5 31.5 81.5 11q58 0 104-16.5t74-49 33-81.5h-92q-5 23-20.5 39.5t-40.5 25.5-59 9q-32 0-56.5-9t-38.5-25.5-14-39.5q0-31 23.5-46t54.5-21l105-20q37-7 70.5-24t54.5-47 21-76q0-36-15-65.5t-42.5-50-65.5-32-84-11.5z"/></svg>