<svg width="114.24" height="16" viewBox="0 0 114.24 16" xmlns="http://www.w3.org/2000/svg"><path transform="translate(0 14.08) scale(.016 -.016)" d="m35 90 466 491-436 35 9 95 534-45 30-79-449-472 520 45 9-94-644-56z"/><path transform="translate(12.048 14.08) scale(.016 -.016)" d="m50 47 68 634 53 42 515-76-13-94-467 69-56-526 559 60 10-94-616-66z"/><path transform="translate(24.432 14.08) scale(.016 -.016)" d="m106 11-46 51 45 564 43 42 442 45 53-46 21-614-48-48zm463 89-19 515-355-37-36-473z"/><path transform="translate(36.016 14.08) scale(.016 -.016)" d="m106 11-46 51 45 564 43 42 442 45 53-46 21-614-48-48zm463 89-19 515-355-37-36-473z"/><path transform="translate(47.6 14.08) scale(.016 -.016)" d="m110 16-45 53 71 647 94-11-65-596 419-13-4-93z"/><path transform="translate(61.264 14.08) scale(.016 -.016)" d="m65-1 96 734 94-11-96-735zm196 293 5 70 294 232 59-74-254-201 241-254-67-65z"/><path transform="translate(71.328 14.08) scale(.016 -.016)" d="m431 90-316-52-55 49 24 404 94-5-20-345 251 40 21 311 95-8-22-327 85-51-49-80z"/><path transform="translate(80.736 14.08) scale(.016 -.016)" d="m545 34-18 21-413-66-54 57 58 229 45 36h316l-21 156-360-88-23 91 411 101 58-40 56-415 70-20-25-90zm-44 113-9 69h-292l-31-122z"/><path transform="translate(91.616 14.08) scale(.016 -.016)" d="m75 586 91 25 30-112-91-25zm-25-567 49 397 94-11-49-397z"/><path transform="translate(95.392 14.08) scale(.016 -.016)" d="m110 16-45 53 71 647 94-11-65-596 419-13-4-93z"/><path transform="translate(105.06 14.08) scale(.016 -.016)" d="m88 60-38 53 48 356 42 40 293 24 46-25 85-168-33-67-311-65-20 91 251 54-42 83-224-17-36-275 344-64-18-92z"/></svg>