<svg width="22" height="10" viewBox="0 0 22 10" fill="none" xmlns="http://www.w3.org/2000/svg">
<path d="M5.81 9.8L5.16 7.52H2.06L1.41 9.8H0.5L3.37 0H3.83L6.72 9.8H5.81ZM3.58 2.16L2.29 6.68H4.93L3.63 2.16L3.61 1.8L3.58 2.16ZM12.37 7.88C12.37 8.16 12.3167 8.42667 12.21 8.68C12.1033 8.92667 11.9567 9.14667 11.77 9.34C11.5833 9.52667 11.3633 9.67333 11.11 9.78C10.8633 9.88667 10.5967 9.94 10.31 9.94H9.75C9.47 9.94 9.20333 9.88667 8.95 9.78C8.70333 9.67333 8.48667 9.52667 8.3 9.34C8.11333 9.14667 7.96667 8.92667 7.86 8.68C7.74667 8.42667 7.69 8.16 7.69 7.88V0H8.54V3.39C8.72667 3.16333 8.95667 2.98333 9.23 2.85C9.49667 2.72333 9.78667 2.66 10.1 2.66H10.31C10.5967 2.66 10.8633 2.71333 11.11 2.82C11.3633 2.92667 11.5833 3.07333 11.77 3.26C11.9567 3.45333 12.1033 3.67333 12.21 3.92C12.3167 4.17333 12.37 4.44 12.37 4.72V7.88ZM11.53 7.93V4.67C11.53 4.50333 11.4967 4.34667 11.43 4.2C11.37 4.05333 11.2833 3.92333 11.17 3.81C11.0633 3.70333 10.9367 3.61667 10.79 3.55C10.6433 3.49 10.4833 3.46 10.31 3.46H9.75C9.58333 3.46 9.42667 3.49 9.28 3.55C9.13333 3.61667 9.00333 3.70333 8.89 3.81C8.78333 3.92333 8.69667 4.05333 8.63 4.2C8.57 4.34667 8.54 4.50333 8.54 4.67V7.93C8.54 8.09667 8.57 8.25333 8.63 8.4C8.69667 8.54667 8.78333 8.67667 8.89 8.79C9.00333 8.89667 9.13333 8.98333 9.28 9.05C9.42667 9.11 9.58333 9.14 9.75 9.14H10.31C10.4833 9.14 10.6433 9.11 10.79 9.05C10.9367 8.98333 11.0633 8.89667 11.17 8.79C11.2833 8.67667 11.37 8.54667 11.43 8.4C11.4967 8.25333 11.53 8.09667 11.53 7.93ZM18.73 7.88C18.73 8.16 18.6767 8.42667 18.57 8.68C18.4633 8.92667 18.3167 9.14667 18.13 9.34C17.9433 9.52667 17.7233 9.67333 17.47 9.78C17.2167 9.88667 16.95 9.94 16.67 9.94H16.11C15.83 9.94 15.5633 9.88667 15.31 9.78C15.0567 9.67333 14.8367 9.52667 14.65 9.34C14.4633 9.14667 14.3167 8.92667 14.21 8.68C14.1033 8.42667 14.05 8.16 14.05 7.88V4.72C14.05 4.44 14.1033 4.17333 14.21 3.92C14.3167 3.67333 14.4633 3.45333 14.65 3.26C14.8367 3.07333 15.0567 2.92667 15.31 2.82C15.5633 2.71333 15.83 2.66 16.11 2.66H16.67C16.95 2.66 17.2167 2.71333 17.47 2.82C17.7233 2.92667 17.9433 3.07333 18.13 3.26C18.3167 3.45333 18.4633 3.67333 18.57 3.92C18.6767 4.17333 18.73 4.44 18.73 4.72V6.37H14.89V7.93C14.89 8.09667 14.9233 8.25333 14.99 8.4C15.05 8.54667 15.1367 8.67667 15.25 8.79C15.3567 8.89667 15.4833 8.98333 15.63 9.05C15.7833 9.11 15.9433 9.14 16.11 9.14H16.67C16.8367 9.14 16.9967 9.11 17.15 9.05C17.2967 8.98333 17.4233 8.89667 17.53 8.79C17.6433 8.67667 17.73 8.54667 17.79 8.4C17.8567 8.25333 17.89 8.09667 17.89 7.93V7.46L18.73 7.6V7.88ZM17.89 5.71V4.67C17.89 4.50333 17.8567 4.34667 17.79 4.2C17.73 4.05333 17.6433 3.92333 17.53 3.81C17.4233 3.70333 17.2967 3.61667 17.15 3.55C16.9967 3.49 16.8367 3.46 16.67 3.46H16.11C15.9433 3.46 15.7833 3.49 15.63 3.55C15.4833 3.61667 15.3567 3.70333 15.25 3.81C15.1367 3.92333 15.05 4.05333 14.99 4.2C14.9233 4.34667 14.89 4.50333 14.89 4.67V5.71H17.89ZM21.53 9.8H20.69V0H21.53V9.8Z" fill="black"/>
</svg>
