<svg width="102" height="15" viewBox="0 0 102 15" fill="none" xmlns="http://www.w3.org/2000/svg">
<path d="M6.36 1.49C6.61333 1.83667 6.87 2.28667 7.13 2.84C7.39 3.39333 7.64333 4.00333 7.89 4.67C8.13667 5.33 8.36 6.00333 8.56 6.69C8.76 7.38333 8.92333 8.05 9.05 8.69C9.17667 9.32333 9.25 9.89 9.27 10.39C9.27 10.63 9.16 10.75 8.94 10.75H7.28C7.06667 10.75 6.95667 10.6433 6.95 10.43C6.93 9.91667 6.84667 9.29667 6.7 8.57H2.97C2.84333 9.28333 2.77 9.90333 2.75 10.43C2.74333 10.6433 2.62667 10.75 2.4 10.75H0.78C0.7 10.75 0.633333 10.7267 0.58 10.68C0.526667 10.6333 0.5 10.55 0.5 10.43C0.526667 9.92333 0.6 9.34667 0.72 8.7C0.846667 8.06 1.01 7.39333 1.21 6.7C1.41 6.00667 1.63333 5.32667 1.88 4.66C2.12667 4 2.38333 3.39333 2.65 2.84C2.91667 2.28667 3.17333 1.83667 3.42 1.49C3.55333 1.30333 3.69333 1.16667 3.84 1.08C3.98667 0.993333 4.17 0.95 4.39 0.95H5.38C5.6 0.95 5.78667 0.993333 5.94 1.08C6.08667 1.16667 6.22667 1.30333 6.36 1.49ZM4.86 3.11H4.82C4.52 3.59 4.24333 4.16 3.99 4.82C3.73667 5.48667 3.52 6.17 3.34 6.87H6.31C6.11667 6.17 5.89333 5.48667 5.64 4.82C5.39333 4.16 5.13333 3.59 4.86 3.11ZM14.66 10.75H12.56C12.0933 10.75 11.7367 10.69 11.49 10.57C11.25 10.45 11.0867 10.2567 11 9.99C10.9133 9.72333 10.87 9.36667 10.87 8.92V2.78C10.87 2.32667 10.9133 1.96667 11 1.7C11.0867 1.43333 11.25 1.24 11.49 1.12C11.7367 1.00667 12.0933 0.95 12.56 0.95H14.66C15.64 0.95 16.4967 1.09333 17.23 1.38C17.97 1.67333 18.5433 2.16667 18.95 2.86C19.3633 3.56 19.57 4.51667 19.57 5.73C19.57 6.93667 19.3633 7.91 18.95 8.65C18.5433 9.38333 17.97 9.91667 17.23 10.25C16.4967 10.5833 15.64 10.75 14.66 10.75ZM14.16 2.75H13.86C13.56 2.75 13.3533 2.81333 13.24 2.94C13.1333 3.06667 13.08 3.28333 13.08 3.59V8.1C13.08 8.40667 13.1333 8.62667 13.24 8.76C13.3533 8.89333 13.56 8.96 13.86 8.96H14.17C15.15 8.96 15.9067 8.72 16.44 8.24C16.9733 7.76 17.24 6.93 17.24 5.75C17.24 4.96333 17.12 4.35333 16.88 3.92C16.6333 3.48 16.28 3.17333 15.82 3C15.36 2.83333 14.8067 2.75 14.16 2.75ZM26.36 10.75H22.97C22.4967 10.75 22.14 10.69 21.9 10.57C21.6533 10.45 21.4867 10.2567 21.4 9.99C21.32 9.72333 21.28 9.36667 21.28 8.92V2.04C21.28 1.90667 21.3033 1.80667 21.35 1.74C21.55 1.44 21.8367 1.12333 22.21 0.79C22.2767 0.736667 22.3333 0.71 22.38 0.71C22.44 0.71 22.5 0.736667 22.56 0.79C22.76 0.963333 22.9267 1.13 23.06 1.29C23.2 1.44333 23.32 1.59333 23.42 1.74C23.4667 1.81333 23.49 1.91333 23.49 2.04V8.1C23.49 8.40667 23.5433 8.62667 23.65 8.76C23.7567 8.89333 23.96 8.96 24.26 8.96L26.36 8.95C26.4733 8.95 26.5567 8.97 26.61 9.01C26.73 9.09 26.8533 9.18667 26.98 9.3C27.1067 9.41333 27.24 9.55 27.38 9.71C27.4267 9.77 27.45 9.81667 27.45 9.85C27.45 9.89667 27.4267 9.94333 27.38 9.99C27.24 10.15 27.1067 10.2867 26.98 10.4C26.8533 10.5133 26.73 10.6133 26.61 10.7C26.5433 10.7333 26.46 10.75 26.36 10.75ZM30.05 10.92C29.3767 10.92 28.8433 10.7333 28.45 10.36C28.0567 9.98 27.86 9.46 27.86 8.8C27.86 8.46 27.9233 8.14333 28.05 7.85C28.1767 7.55667 28.3933 7.29667 28.7 7.07C29.0133 6.84333 29.4533 6.66333 30.02 6.53C30.58 6.39 31.2967 6.31 32.17 6.29C32.17 5.87 32.0667 5.57 31.86 5.39C31.6533 5.21 31.3433 5.12 30.93 5.12C30.5567 5.12 30.25 5.18333 30.01 5.31C29.7767 5.43667 29.63 5.52333 29.57 5.57C29.5033 5.62333 29.4267 5.64333 29.34 5.63C29.2133 5.61 29.08 5.57667 28.94 5.53C28.8067 5.49 28.66 5.44 28.5 5.38C28.4733 5.36667 28.4467 5.35 28.42 5.33C28.3933 5.31 28.3767 5.28 28.37 5.24C28.37 5.22 28.3733 5.19 28.38 5.15C28.3867 5.11667 28.3967 5.05667 28.41 4.97C28.43 4.87667 28.46 4.76333 28.5 4.63C28.5333 4.49667 28.5667 4.39333 28.6 4.32C28.64 4.24 28.7067 4.16667 28.8 4.1C28.88 4.03333 29.1167 3.93 29.51 3.79C29.9033 3.65 30.47 3.58 31.21 3.58C33.2567 3.58 34.28 4.57667 34.28 6.57V10.44C34.28 10.5267 34.2567 10.6 34.21 10.66C34.1633 10.72 34.08 10.75 33.96 10.75H32.94C32.8667 10.75 32.8 10.74 32.74 10.72C32.6867 10.7 32.6333 10.66 32.58 10.6L32.16 10.05H32.11C31.9033 10.3567 31.6233 10.58 31.27 10.72C30.9167 10.8533 30.51 10.92 30.05 10.92ZM30.8 9.33C31.22 9.33 31.5367 9.22333 31.75 9.01C31.9633 8.79667 32.1 8.57667 32.16 8.35V7.59C31.5267 7.59 31.05 7.64 30.73 7.74C30.4167 7.84 30.2067 7.96667 30.1 8.12C30 8.28 29.95 8.45 29.95 8.63C29.95 8.89667 30.03 9.08 30.19 9.18C30.3567 9.28 30.56 9.33 30.8 9.33ZM41.79 6.83H41.85C41.91 6.58333 41.9767 6.34 42.05 6.1C42.13 5.86 42.2233 5.59 42.33 5.29C42.43 5.03 42.5467 4.72667 42.68 4.38C42.82 4.04 42.9633 3.69 43.11 3.33C43.2633 2.97667 43.4133 2.64667 43.56 2.34C43.7067 2.03333 43.84 1.79 43.96 1.61C44.1067 1.39 44.2633 1.22333 44.43 1.11C44.6033 1.00333 44.8567 0.95 45.19 0.95H46.08C46.32 0.95 46.52 0.983334 46.68 1.05C46.8467 1.12333 46.9633 1.29333 47.03 1.56C47.0767 1.75333 47.1233 2.04 47.17 2.42C47.2167 2.79333 47.2567 3.31667 47.29 3.99C47.3233 4.65667 47.3467 5.51667 47.36 6.57C47.38 7.62333 47.39 8.92 47.39 10.46C47.39 10.5467 47.3633 10.6167 47.31 10.67C47.2567 10.7233 47.19 10.75 47.11 10.75H45.55C45.4767 10.75 45.41 10.7233 45.35 10.67C45.2967 10.6167 45.27 10.5467 45.27 10.46C45.27 9.25333 45.27 8.23 45.27 7.39C45.27 6.55667 45.2667 5.86333 45.26 5.31C45.26 4.75667 45.2567 4.31667 45.25 3.99C45.2433 3.66333 45.2333 3.41333 45.22 3.24H45.18C44.9333 3.79333 44.6733 4.41 44.4 5.09C44.1267 5.77667 43.86 6.48 43.6 7.2C43.34 7.92 43.11 8.62333 42.91 9.31C42.85 9.51667 42.7733 9.66 42.68 9.74C42.5933 9.82 42.3933 9.86 42.08 9.86H41.29C41.0233 9.86 40.8467 9.82667 40.76 9.76C40.6667 9.69333 40.59 9.54333 40.53 9.31C40.3767 8.79667 40.21 8.25 40.03 7.67C39.8433 7.09 39.6533 6.52 39.46 5.96C39.2667 5.4 39.08 4.88667 38.9 4.42C38.72 3.94667 38.56 3.55333 38.42 3.24H38.38C38.3467 3.77333 38.3133 4.42667 38.28 5.2C38.2533 5.96667 38.2333 6.80333 38.22 7.71C38.2067 8.61 38.1967 9.53 38.19 10.47C38.19 10.55 38.1633 10.6167 38.11 10.67C38.0567 10.7233 37.99 10.75 37.91 10.75H36.51C36.43 10.75 36.3633 10.7233 36.31 10.67C36.2567 10.6167 36.23 10.5467 36.23 10.46C36.23 8.02667 36.2767 6.08667 36.37 4.64C36.4633 3.18667 36.5667 2.21667 36.68 1.73C36.7533 1.40333 36.88 1.19 37.06 1.09C37.2467 0.996667 37.46 0.95 37.7 0.95H38.8C39.0533 0.95 39.2367 0.993333 39.35 1.08C39.47 1.16667 39.6133 1.34 39.78 1.6C39.88 1.74667 40 1.97 40.14 2.27C40.28 2.57 40.4233 2.90333 40.57 3.27C40.7233 3.64333 40.8667 4.00667 41 4.36C41.1333 4.72 41.2433 5.03 41.33 5.29C41.4233 5.56333 41.51 5.82667 41.59 6.08C41.6633 6.33333 41.73 6.58333 41.79 6.83ZM57.16 10.75H55.06C54.5933 10.75 54.2367 10.69 53.99 10.57C53.7433 10.45 53.58 10.2567 53.5 9.99C53.4133 9.72333 53.37 9.36667 53.37 8.92V2.78C53.37 2.32667 53.4133 1.96667 53.5 1.7C53.58 1.43333 53.7433 1.24 53.99 1.12C54.2367 1.00667 54.5933 0.95 55.06 0.95H57.16C58.14 0.95 58.9967 1.09333 59.73 1.38C60.47 1.67333 61.0433 2.16667 61.45 2.86C61.8633 3.56 62.07 4.51667 62.07 5.73C62.07 6.93667 61.8633 7.91 61.45 8.65C61.0433 9.38333 60.47 9.91667 59.73 10.25C58.9967 10.5833 58.14 10.75 57.16 10.75ZM56.66 2.75H56.36C56.06 2.75 55.8533 2.81333 55.74 2.94C55.6333 3.06667 55.58 3.28333 55.58 3.59V8.1C55.58 8.40667 55.6333 8.62667 55.74 8.76C55.8533 8.89333 56.06 8.96 56.36 8.96H56.67C57.65 8.96 58.4067 8.72 58.94 8.24C59.4733 7.76 59.74 6.93 59.74 5.75C59.74 4.96333 59.62 4.35333 59.38 3.92C59.1333 3.48 58.78 3.17333 58.32 3C57.86 2.83333 57.3067 2.75 56.66 2.75ZM63.29 1.45C63.29 1.39 63.31 1.34 63.35 1.3C63.3833 1.25333 63.43 1.19333 63.49 1.12C63.6167 0.973333 63.7633 0.82 63.93 0.66C64.1033 0.493333 64.2767 0.336667 64.45 0.19C64.5567 0.103333 64.6367 0.0599999 64.69 0.0599999C64.7433 0.0599999 64.83 0.103333 64.95 0.19C65.3167 0.51 65.63 0.82 65.89 1.12C65.95 1.18667 66 1.24333 66.04 1.29C66.0733 1.33667 66.09 1.39 66.09 1.45C66.09 1.51 66.0733 1.56333 66.04 1.61C66 1.65667 65.9467 1.71667 65.88 1.79C65.76 1.93667 65.6167 2.09 65.45 2.25C65.2833 2.41 65.1167 2.56333 64.95 2.71C64.8833 2.76333 64.83 2.8 64.79 2.82C64.7567 2.83333 64.7233 2.84 64.69 2.84C64.6567 2.84 64.6233 2.83333 64.59 2.82C64.5567 2.8 64.5033 2.76333 64.43 2.71C64.25 2.56333 64.08 2.41 63.92 2.25C63.76 2.09 63.6167 1.93333 63.49 1.78C63.43 1.70667 63.3833 1.65 63.35 1.61C63.31 1.56333 63.29 1.51 63.29 1.45ZM65.77 4.11V10.39C65.77 10.5233 65.74 10.6167 65.68 10.67C65.62 10.7233 65.5233 10.75 65.39 10.75H63.98C63.8467 10.75 63.75 10.7233 63.69 10.67C63.6367 10.6167 63.61 10.5233 63.61 10.39V4.11C63.61 3.97667 63.6367 3.88333 63.69 3.83C63.75 3.77667 63.8467 3.75 63.98 3.75H65.39C65.5233 3.75 65.62 3.77667 65.68 3.83C65.74 3.88333 65.77 3.97667 65.77 4.11ZM69.57 10.92C69.0833 10.92 68.68 10.88 68.36 10.8C68.04 10.7133 67.7833 10.6133 67.59 10.5C67.3967 10.3867 67.2433 10.28 67.13 10.18C67.05 10.1067 67.0433 10.02 67.11 9.92L67.8 8.89C67.9 8.74333 68.0133 8.73333 68.14 8.86C68.2733 8.98667 68.4533 9.11333 68.68 9.24C68.9067 9.36 69.19 9.42 69.53 9.42C69.83 9.42 70.0767 9.36667 70.27 9.26C70.4633 9.16 70.56 9.01333 70.56 8.82C70.56 8.68 70.5167 8.56667 70.43 8.48C70.3433 8.39333 70.19 8.30333 69.97 8.21C69.75 8.12333 69.4433 8.01 69.05 7.87C68.4767 7.65667 68.04 7.40333 67.74 7.11C67.4467 6.81 67.3 6.37667 67.3 5.81C67.3 5.28333 67.4433 4.85667 67.73 4.53C68.0167 4.20333 68.3867 3.96333 68.84 3.81C69.3 3.65667 69.7733 3.58 70.26 3.58C70.8867 3.58 71.3267 3.63667 71.58 3.75C71.8333 3.87 71.9967 3.96 72.07 4.02C72.1367 4.08 72.1833 4.15 72.21 4.23C72.27 4.41 72.3167 4.64333 72.35 4.93C72.37 5.10333 72.3267 5.21667 72.22 5.27C72.1667 5.30333 72.08 5.33667 71.96 5.37C71.84 5.40333 71.72 5.43667 71.6 5.47C71.4867 5.49667 71.4 5.51 71.34 5.51C71.32 5.51 71.3 5.50333 71.28 5.49C71.26 5.47667 71.2233 5.44667 71.17 5.4C71.11 5.34667 71.01 5.28 70.87 5.2C70.7233 5.12 70.5267 5.08 70.28 5.08C70.0333 5.08 69.8267 5.12 69.66 5.2C69.4933 5.28 69.41 5.42 69.41 5.62C69.41 5.84 69.5167 6.00667 69.73 6.12C69.9367 6.22667 70.2867 6.36667 70.78 6.54C71.16 6.67333 71.4933 6.81667 71.78 6.97C72.06 7.13 72.28 7.33667 72.44 7.59C72.5933 7.84333 72.67 8.18333 72.67 8.61C72.67 9.16333 72.52 9.61 72.22 9.95C71.9133 10.29 71.5233 10.5367 71.05 10.69C70.5833 10.8433 70.09 10.92 69.57 10.92ZM78.36 3.58C79.0267 3.58 79.5733 3.73 80 4.03C80.4333 4.32333 80.7567 4.73333 80.97 5.26C81.1767 5.78 81.28 6.37667 81.28 7.05C81.28 7.78333 81.1567 8.44 80.91 9.02C80.6633 9.60667 80.2967 10.07 79.81 10.41C79.33 10.75 78.7333 10.92 78.02 10.92C77.6467 10.92 77.34 10.8767 77.1 10.79C76.86 10.71 76.67 10.61 76.53 10.49C76.3833 10.3767 76.27 10.2733 76.19 10.18H76.16V13.09C76.16 13.1967 76.1367 13.28 76.09 13.34C75.9033 13.5933 75.6233 13.8633 75.25 14.15C75.19 14.1967 75.1333 14.22 75.08 14.22C75.0267 14.22 74.97 14.1967 74.91 14.15C74.7167 14.0033 74.5533 13.8633 74.42 13.73C74.28 13.5967 74.1633 13.4667 74.07 13.34C74.0233 13.28 74 13.1967 74 13.09V4.66C74 4.55333 74.0233 4.47 74.07 4.41C74.1633 4.27667 74.28 4.14667 74.42 4.02C74.5533 3.88667 74.7167 3.74333 74.91 3.59C74.97 3.54333 75.0333 3.52 75.1 3.52C75.16 3.52 75.22 3.54333 75.28 3.59C75.4733 3.74333 75.6367 3.88667 75.77 4.02C75.91 4.16 76.0333 4.30333 76.14 4.45H76.17C76.25 4.35 76.37 4.23333 76.53 4.1C76.6833 3.96 76.91 3.84 77.21 3.74C77.5033 3.63333 77.8867 3.58 78.36 3.58ZM77.52 9.18C78.0067 9.18 78.3867 9.00667 78.66 8.66C78.9333 8.32 79.07 7.82333 79.07 7.17C79.07 5.93667 78.5633 5.32 77.55 5.32C77.1233 5.32 76.8067 5.41 76.6 5.59C76.3933 5.76333 76.2467 5.94667 76.16 6.14V7.63C76.16 8.07 76.2733 8.43667 76.5 8.73C76.7333 9.03 77.0733 9.18 77.52 9.18ZM85.08 10.24L83.65 10.89C83.55 10.9367 83.48 10.96 83.44 10.96C83.4 10.96 83.3567 10.9433 83.31 10.91C83.21 10.8367 83.09 10.6567 82.95 10.37C82.8167 10.0833 82.75 9.64333 82.75 9.05V1.14C82.75 1.02667 82.7733 0.943333 82.82 0.89C83.0133 0.636667 83.2933 0.363333 83.66 0.0700002C83.7267 0.0233335 83.7833 0 83.83 0C83.89 0 83.9467 0.0233335 84 0.0700002C84.2 0.223334 84.3667 0.366667 84.5 0.5C84.6333 0.626667 84.7467 0.756667 84.84 0.89C84.8867 0.943333 84.91 1.02667 84.91 1.14V8.64C84.91 8.94 84.9367 9.19667 84.99 9.41C85.0367 9.61667 85.0967 9.78667 85.17 9.92C85.2433 10.0667 85.2133 10.1733 85.08 10.24ZM88.6 10.92C87.9267 10.92 87.3933 10.7333 87 10.36C86.6067 9.98 86.41 9.46 86.41 8.8C86.41 8.46 86.4733 8.14333 86.6 7.85C86.7267 7.55667 86.9433 7.29667 87.25 7.07C87.5633 6.84333 88.0033 6.66333 88.57 6.53C89.13 6.39 89.8467 6.31 90.72 6.29C90.72 5.87 90.6167 5.57 90.41 5.39C90.2033 5.21 89.8933 5.12 89.48 5.12C89.1067 5.12 88.8 5.18333 88.56 5.31C88.3267 5.43667 88.18 5.52333 88.12 5.57C88.0533 5.62333 87.9767 5.64333 87.89 5.63C87.7633 5.61 87.63 5.57667 87.49 5.53C87.35 5.49 87.2033 5.44 87.05 5.38C87.0233 5.36667 86.9967 5.35 86.97 5.33C86.9433 5.31 86.9267 5.28 86.92 5.24C86.92 5.22 86.9233 5.19 86.93 5.15C86.9367 5.11667 86.9467 5.05667 86.96 4.97C86.98 4.87667 87.01 4.76333 87.05 4.63C87.0833 4.49667 87.1167 4.39333 87.15 4.32C87.19 4.24 87.2567 4.16667 87.35 4.1C87.43 4.03333 87.6667 3.93 88.06 3.79C88.4533 3.65 89.02 3.58 89.76 3.58C91.8067 3.58 92.83 4.57667 92.83 6.57V10.44C92.83 10.5267 92.8067 10.6 92.76 10.66C92.7133 10.72 92.63 10.75 92.51 10.75H91.49C91.4167 10.75 91.35 10.74 91.29 10.72C91.2367 10.7 91.1833 10.66 91.13 10.6L90.71 10.05H90.66C90.4533 10.3567 90.1733 10.58 89.82 10.72C89.4667 10.8533 89.06 10.92 88.6 10.92ZM89.35 9.33C89.77 9.33 90.0867 9.22333 90.3 9.01C90.5133 8.79667 90.65 8.57667 90.71 8.35V7.59C90.0767 7.59 89.6 7.64 89.28 7.74C88.9667 7.84 88.7567 7.96667 88.65 8.12C88.5433 8.28 88.49 8.45 88.49 8.63C88.49 8.89667 88.5733 9.08 88.74 9.18C88.9067 9.28 89.11 9.33 89.35 9.33ZM94.89 14.04C94.7233 14.04 94.5967 14.0233 94.51 13.99C94.4233 13.9567 94.35 13.9133 94.29 13.86C94.17 13.7467 94.0433 13.5867 93.91 13.38C93.8767 13.3333 93.8433 13.2767 93.81 13.21C93.77 13.1433 93.75 13.0867 93.75 13.04C93.75 12.9867 93.7633 12.94 93.79 12.9C93.81 12.86 93.8367 12.8233 93.87 12.79C93.9433 12.69 94.03 12.59 94.13 12.49C94.2367 12.39 94.3267 12.31 94.4 12.25C94.4533 12.21 94.4933 12.1833 94.52 12.17C94.5533 12.1567 94.5833 12.15 94.61 12.15C94.63 12.15 94.6633 12.1567 94.71 12.17C94.7567 12.1767 94.8233 12.18 94.91 12.18C95.23 12.18 95.56 12.0767 95.9 11.87C96.24 11.6633 96.5767 11.28 96.91 10.72C96.5633 10.4 96.2233 10 95.89 9.52C95.5567 9.03333 95.2533 8.51 94.98 7.95C94.7133 7.39 94.5 6.83 94.34 6.27C94.1733 5.70333 94.09 5.18333 94.09 4.71C94.09 4.61 94.1167 4.53 94.17 4.47C94.3767 4.21 94.6733 3.94 95.06 3.66C95.1333 3.61333 95.1967 3.59 95.25 3.59C95.31 3.59 95.37 3.61333 95.43 3.66C95.6433 3.81333 95.82 3.95333 95.96 4.08C96.1067 4.21333 96.23 4.34333 96.33 4.47C96.3767 4.53 96.4 4.61667 96.4 4.73V4.7C96.4 5.06 96.4433 5.44 96.53 5.84C96.6167 6.24 96.7367 6.63 96.89 7.01C97.0433 7.39 97.2133 7.73667 97.4 8.05C97.5867 8.35667 97.78 8.6 97.98 8.78H98.01C98.1033 8.60667 98.2033 8.35667 98.31 8.03C98.4233 7.70333 98.53 7.34333 98.63 6.95C98.73 6.55 98.8133 6.15333 98.88 5.76C98.94 5.36667 98.97 5.01667 98.97 4.71V4.73C98.97 4.61667 98.9933 4.53 99.04 4.47C99.1467 4.34333 99.27 4.21333 99.41 4.08C99.55 3.95333 99.72 3.81333 99.92 3.66C99.9867 3.61333 100.047 3.59 100.1 3.59C100.167 3.59 100.227 3.61333 100.28 3.66C100.487 3.81333 100.66 3.95333 100.8 4.08C100.94 4.21333 101.06 4.34333 101.16 4.47C101.207 4.53 101.23 4.61333 101.23 4.72C101.223 5.13333 101.143 5.67333 100.99 6.34C100.837 7.01333 100.61 7.73667 100.31 8.51C100.017 9.29 99.6567 10.0533 99.23 10.8C98.5967 11.9267 97.9133 12.75 97.18 13.27C96.4467 13.7833 95.6833 14.04 94.89 14.04ZM101.23 4.71V4.73V4.72C101.23 4.71333 101.23 4.71 101.23 4.71Z" fill="black"/>
</svg>
