<svg width="57.232" height="16.744" viewBox="0 0 57.232 16.744" xmlns="http://www.w3.org/2000/svg"><path transform="translate(0 13.496) scale(.014 -.014)" d="M527 0 299 700H246L21 0H81L160 245H387L468 0ZM175 300 272 614 372 300Z"/><path transform="translate(7.658 13.496) scale(.014 -.014)" d="m414 0v700h-55v-227q-34 15-74 26t-89 11q-30 0-59.5-8t-54-25.5-39-46.5-14.5-71v-190q0-55 17.5-91t48.5-55.5 73-26.5 90-6q14 0 34 1t41.5 2.5 40 3 30 2.5 10.5 1zm-55 423v-377t-5-0.5-14-1.5-22-2-29.5-2-35.5-2q-50-1-82.5 6.5t-51.5 25-27 44-8 62.5v179q0 35 12 56.5t29.5 32.5 35.5 15 31 4q48 0 87.5-11.5t79.5-28.5z"/><path transform="translate(14.07 13.496) scale(.014 -.014)" d="M19 501 172 0H249L404 501H345L212 58L77 501Z"/><path transform="translate(20.062 13.496) scale(.014 -.014)" d="m87 134v62l305 16v130q0 56-21.5 93t-61 56-93.5 19q-53 0-95-19t-66-57-24-95v-205q0-42 12.5-70t35.5-45 55-24 70-7 82 12.5 81 34.5l-22 43q-37-19-73-30.5t-73-11.5q-24 0-44.5 5.5t-35.5 17-23.5 30-8.5 45.5zm249 215v-87l-249-11v87q0 40 15.5 68t44.5 42.5 68 14.5q35 0 62-14t43-39.5 16-60.5z"/><path transform="translate(25.97 13.496) scale(.014 -.014)" d="m352 342v-342h55v345q0 32-7.5 57.5t-22 45.5-35.5 34-48.5 21-60.5 7q-25 0-49.5-5.5t-47-15-41.5-22.5v34h-57v-501h57v425q21 12 41 19.5t41.5 11.5 44.5 4q24 0 47-6t42-19.5 30-36 11-56.5z"/><path transform="translate(32.172 13.496) scale(.014 -.014)" d="m95 132v316h97l24 52h-121v200h-56v-568q0-58 25-93t80-52l17 43q-22 8-36.5 21.5t-22 34-7.5 46.5z"/><path transform="translate(39.466 13.496) scale(.014 -.014)" d="m277 700h-236v-700h57v245h179q50 0 87.5 12.5t62 39.5 37 71 12.5 106q0 64-13 107.5t-38.5 69.5-62.5 37.5-85 11.5zm-179-400v347h184q29 0 54-7.5t43.5-26 29-52.5 10.5-87q0-57-10.5-92t-29.5-52.5-43.5-23.5-53.5-6z"/><path transform="translate(46.55 13.496) scale(.014 -.014)" d="m306 461 4 48t-13.5 2-31.5 1q-54-3-93.5-15t-76.5-29v33h-57v-501h57v409q14 9 34 18.5t43 17 47 12 45 5.5q17 1 29.5 0t12.5-1z"/><path transform="translate(51.212 13.496) scale(.014 -.014)" d="m399 185v131q0 92-47 144t-136 52q-59 0-101-22.5t-64-66-22-107.5v-131q0-54 21-98t63.5-70.5 104.5-26.5q91 0 136 53.5t45 141.5zm-56 131v-141q0-41-13.5-71.5t-41.5-47-70-16.5q-40 0-70 17t-46.5 47.5-16.5 70.5v141q0 48 15 80.5t44.5 49 73.5 16.5 71.5-16.5 40.5-49 13-80.5z"/></svg>