<svg width="42" height="11" viewBox="0 0 42 11" fill="none" xmlns="http://www.w3.org/2000/svg">
<path d="M4.99 0.82L8.22 10.29H7.02L6.09 7.35H2.59L1.66 10.29H0.5L3.73 0.82H4.99ZM3.36 4.95L2.88 6.46H5.81L5.33 4.95C5.15667 4.41667 4.99333 3.89 4.84 3.37C4.68667 2.84333 4.53 2.30333 4.37 1.75H4.31C4.17 2.30333 4.02 2.84333 3.86 3.37C3.7 3.89 3.53333 4.41667 3.36 4.95ZM10.56 10.29H9.46V0H10.56V7.05H10.6L13.65 3.3H14.88L12.55 6.11L15.21 10.29H14L11.92 6.87L10.56 8.43V10.29ZM18.14 10.46C17.56 10.46 17.0733 10.29 16.68 9.95C16.2867 9.61 16.09 9.12333 16.09 8.49C16.09 7.72333 16.44 7.13667 17.14 6.73C17.8333 6.31667 18.93 6.02667 20.43 5.86C20.43 5.55333 20.3867 5.26 20.3 4.98C20.2133 4.7 20.0667 4.47 19.86 4.29C19.6467 4.11667 19.3433 4.03 18.95 4.03C18.5367 4.03 18.15 4.11 17.79 4.27C17.4233 4.43 17.1033 4.59667 16.83 4.77L16.4 4.03C16.7133 3.81667 17.1033 3.61 17.57 3.41C18.0433 3.21667 18.5633 3.12 19.13 3.12C19.9833 3.12 20.5967 3.38333 20.97 3.91C21.35 4.43 21.54 5.12 21.54 5.98V10.29H20.61L20.52 9.44H20.48C20.1467 9.72 19.7833 9.96 19.39 10.16C18.99 10.36 18.5733 10.46 18.14 10.46ZM18.45 9.57C18.7967 9.57 19.1233 9.49 19.43 9.33C19.7367 9.16333 20.07 8.92667 20.43 8.62V6.6C19.6233 6.7 18.9833 6.83333 18.51 7C18.0367 7.16 17.6967 7.35667 17.49 7.59C17.2833 7.82333 17.18 8.09333 17.18 8.4C17.18 8.82 17.3033 9.12 17.55 9.3C17.7967 9.48 18.0967 9.57 18.45 9.57ZM25.93 10.46C25.1967 10.46 24.6867 10.25 24.4 9.83C24.1133 9.40333 23.97 8.84667 23.97 8.16V4.21H22.93V3.35L24.03 3.3L24.16 1.03H25.08V3.3H27V4.21H25.08V8.18C25.08 8.61333 25.16 8.95333 25.32 9.2C25.48 9.44 25.7667 9.56 26.18 9.56C26.3 9.56 26.43 9.54667 26.57 9.52C26.7033 9.49333 26.84 9.45 26.98 9.39L27.23 10.17C27.0433 10.25 26.8367 10.32 26.61 10.38C26.39 10.4333 26.1633 10.46 25.93 10.46ZM30.2 10.46C29.62 10.46 29.1333 10.29 28.74 9.95C28.3467 9.61 28.15 9.12333 28.15 8.49C28.15 7.72333 28.4967 7.13667 29.19 6.73C29.89 6.31667 30.99 6.02667 32.49 5.86C32.49 5.55333 32.4467 5.26 32.36 4.98C32.2733 4.7 32.1267 4.47 31.92 4.29C31.7067 4.11667 31.4033 4.03 31.01 4.03C30.5967 4.03 30.2067 4.11 29.84 4.27C29.48 4.43 29.1633 4.59667 28.89 4.77L28.46 4.03C28.7667 3.81667 29.1567 3.61 29.63 3.41C30.1033 3.21667 30.6233 3.12 31.19 3.12C32.0433 3.12 32.6567 3.38333 33.03 3.91C33.4033 4.43 33.59 5.12 33.59 5.98V10.29H32.67L32.58 9.44H32.54C32.2067 9.72 31.84 9.96 31.44 10.16C31.0467 10.36 30.6333 10.46 30.2 10.46ZM30.5 9.57C30.8533 9.57 31.1833 9.49 31.49 9.33C31.7967 9.16333 32.13 8.92667 32.49 8.62V6.6C31.6833 6.7 31.0433 6.83333 30.57 7C30.09 7.16 29.75 7.35667 29.55 7.59C29.3433 7.82333 29.24 8.09333 29.24 8.4C29.24 8.82 29.3633 9.12 29.61 9.3C29.8567 9.48 30.1533 9.57 30.5 9.57ZM38.87 10.46C38.55 10.46 38.2133 10.3833 37.86 10.23C37.5067 10.07 37.1767 9.85 36.87 9.57H36.82L36.72 10.29H35.83V0H36.94V2.83L36.9 4.12C37.2267 3.83333 37.5833 3.59667 37.97 3.41C38.35 3.21667 38.7367 3.12 39.13 3.12C40.0433 3.12 40.7367 3.44333 41.21 4.09C41.6833 4.73667 41.92 5.60333 41.92 6.69C41.92 7.48333 41.78 8.16 41.5 8.72C41.2133 9.28667 40.84 9.71667 40.38 10.01C39.9133 10.31 39.41 10.46 38.87 10.46ZM38.7 9.53C39.3 9.53 39.7967 9.27667 40.19 8.77C40.5833 8.26333 40.78 7.57333 40.78 6.7C40.78 5.91333 40.63 5.27333 40.33 4.78C40.0367 4.28667 39.55 4.04 38.87 4.04C38.5633 4.04 38.2533 4.12667 37.94 4.3C37.62 4.46667 37.2867 4.71333 36.94 5.04V8.78C37.26 9.05333 37.5733 9.24667 37.88 9.36C38.1867 9.47333 38.46 9.53 38.7 9.53Z" fill="black"/>
</svg>
