<svg width="37" height="11" viewBox="0 0 37 11" fill="none" xmlns="http://www.w3.org/2000/svg">
<path d="M5.5 8.11H1.91V7.01H5.5V8.11ZM2.91 0.21H4.17L1.76 10.08H0.5L2.91 0.21ZM2.94 0.21H4.2L6.6 10.08H5.36L2.94 0.21ZM12.75 10.08H11.42L8.91 6.17L10.13 5.77L12.75 10.08ZM12.58 3.01L8.96 7.56L7.98 6.9L11.04 3.01H12.58ZM9.14 10.08H7.86V0H9.14V10.08ZM16.99 8.26C16.99 8.02667 16.9067 7.83333 16.74 7.68C16.5733 7.52667 16.3567 7.38667 16.09 7.26C15.8233 7.13333 15.5433 7.00333 15.25 6.87C14.9567 6.74333 14.6767 6.59333 14.41 6.42C14.1433 6.24667 13.9267 6.02667 13.76 5.76C13.5933 5.49333 13.51 5.17 13.51 4.79C13.51 4.79 13.5467 4.79 13.62 4.79C13.7 4.79 13.8033 4.79 13.93 4.79C14.0567 4.79 14.18 4.79 14.3 4.79C14.4267 4.79 14.53 4.79 14.61 4.79C14.6967 4.79 14.74 4.79 14.74 4.79C14.74 5.02333 14.8233 5.21667 14.99 5.37C15.1567 5.52333 15.3733 5.66 15.64 5.78C15.9067 5.9 16.19 6.03 16.49 6.17C16.79 6.30333 17.07 6.46 17.33 6.64C17.59 6.81333 17.8067 7.03 17.98 7.29C18.1533 7.54333 18.24 7.86667 18.24 8.26C18.24 8.26 18.1967 8.26 18.11 8.26C18.03 8.26 17.9267 8.26 17.8 8.26C17.6733 8.26 17.55 8.26 17.43 8.26C17.3033 8.26 17.2 8.26 17.12 8.26C17.0333 8.26 16.99 8.26 16.99 8.26ZM15.8 10.29V9.18C16.1467 9.18 16.4333 9.09667 16.66 8.93C16.88 8.75667 16.99 8.53333 16.99 8.26H18.24C18.24 8.65333 18.1333 9.00333 17.92 9.31C17.7133 9.61667 17.4267 9.85667 17.06 10.03C16.7 10.2033 16.28 10.29 15.8 10.29ZM14.74 4.79H13.51C13.51 4.40333 13.6033 4.06 13.79 3.76C13.9833 3.45333 14.2533 3.21333 14.6 3.04C14.9467 2.87333 15.33 2.79 15.75 2.79V3.89C15.4567 3.89 15.2133 3.97333 15.02 4.14C14.8333 4.31333 14.74 4.53 14.74 4.79ZM13.3 8.2L14.47 7.97C14.5167 8.37667 14.6667 8.68 14.92 8.88C15.1733 9.08 15.4667 9.18 15.8 9.18V10.29C15.3733 10.29 14.9767 10.2 14.61 10.02C14.25 9.84667 13.9533 9.6 13.72 9.28C13.4933 8.96667 13.3533 8.60667 13.3 8.2ZM18.25 4.87L17.06 5.11C17.0133 4.69 16.8667 4.38333 16.62 4.19C16.3733 3.99 16.0833 3.89 15.75 3.89V2.79C16.1833 2.79 16.58 2.87667 16.94 3.05C17.2933 3.23 17.5867 3.47667 17.82 3.79C18.0533 4.10333 18.1967 4.46333 18.25 4.87ZM20.83 10.08H19.55V3.01H20.83V10.08ZM24.76 10.08H23.49V5.26H24.76V10.08ZM24.76 5.26H23.49C23.49 4.87333 23.3667 4.55333 23.12 4.3C22.88 4.05333 22.57 3.93 22.19 3.93L22.51 2.8C22.9367 2.8 23.32 2.90667 23.66 3.12C24 3.33333 24.27 3.62667 24.47 4C24.6633 4.37333 24.76 4.79333 24.76 5.26ZM20.83 5.29H20.27C20.27 4.81667 20.3667 4.39 20.56 4.01C20.76 3.63 21.0267 3.33333 21.36 3.12C21.6933 2.90667 22.0767 2.8 22.51 2.8L22.19 3.93C21.7833 3.93 21.4567 4.05667 21.21 4.31C20.9567 4.56333 20.83 4.89 20.83 5.29ZM20.83 10.08H19.55V0H20.83V10.08ZM31.26 10.08H29.98V5.26H31.26V10.08ZM28.28 10.29L28.37 9.24C28.71 9.24 29 9.15667 29.24 8.99C29.4733 8.82333 29.6567 8.57667 29.79 8.25C29.9167 7.92333 29.98 7.53333 29.98 7.08L30.61 7.06C30.61 7.69333 30.51 8.25333 30.31 8.74C30.1033 9.22 29.8233 9.6 29.47 9.88C29.1233 10.1533 28.7267 10.29 28.28 10.29ZM28.37 9.24L28.28 10.29C27.86 10.29 27.4767 10.1933 27.13 10C26.7833 9.8 26.5067 9.53 26.3 9.19C26.0933 8.85 25.99 8.47 25.99 8.05L27.2 8.01C27.2 8.36333 27.32 8.65667 27.56 8.89C27.7933 9.12333 28.0633 9.24 28.37 9.24ZM27.2 8.01L25.99 8.05C25.99 7.61 26.1 7.22333 26.32 6.89C26.54 6.56333 26.8367 6.3 27.21 6.1C27.5833 5.90667 28.01 5.81 28.49 5.81L28.56 6.79C28.1667 6.79 27.84 6.90333 27.58 7.13C27.3267 7.36333 27.2 7.65667 27.2 8.01ZM30.64 6.79H28.56L28.49 5.81H30.64V6.79ZM30.61 7.06L29.98 7.08V5.28H30.61V7.06ZM31.26 5.29H29.98C29.98 4.88333 29.8567 4.54667 29.61 4.28C29.3633 4.02 29.0433 3.89 28.65 3.89V2.8C29.1567 2.8 29.6033 2.90667 29.99 3.12C30.3767 3.33333 30.6867 3.63 30.92 4.01C31.1467 4.39 31.26 4.81667 31.26 5.29ZM27.34 5.12L26.16 4.89C26.22 4.47 26.3633 4.10333 26.59 3.79C26.8167 3.48333 27.11 3.24333 27.47 3.07C27.83 2.89 28.23 2.8 28.67 2.8V3.89C28.3233 3.89 28.0267 3.99 27.78 4.19C27.5333 4.39 27.3867 4.7 27.34 5.12ZM33.97 10.08H32.7V3.01H33.97V10.08ZM33.97 5.35H33.4C33.4 4.87 33.48 4.44333 33.64 4.07C33.8 3.69 34.0167 3.39333 34.29 3.18C34.5633 2.96667 34.87 2.86 35.21 2.86L35.09 4.05C34.7633 4.05 34.4967 4.17333 34.29 4.42C34.0767 4.66667 33.97 4.97667 33.97 5.35ZM36.37 3.3L35.93 4.37C35.8233 4.27667 35.6933 4.2 35.54 4.14C35.38 4.08 35.23 4.05 35.09 4.05L35.21 2.86C35.4233 2.86 35.6333 2.89667 35.84 2.97C36.04 3.05 36.2167 3.16 36.37 3.3Z" fill="black"/>
</svg>
