<svg width="34" height="11" viewBox="0 0 34 11" fill="none" xmlns="http://www.w3.org/2000/svg">
<path d="M2.46 10.64H0.5L4.63 0.71H4.77L8.92 10.64H7.01L6.47 9.23H2.98L2.46 10.64ZM4.69 4.42L4.46 5.21L3.48 7.87H5.95L4.93 5.21L4.69 4.42ZM11.45 10.64H9.74V0H11.45V10.64ZM14.74 10.84C14.3133 10.84 13.9567 10.7433 13.67 10.55C13.39 10.3567 13.18 10.1033 13.04 9.79C12.9067 9.47 12.84 9.12 12.84 8.74C12.84 8.52 12.8933 8.28333 13 8.03C13.1133 7.77 13.31 7.52333 13.59 7.29C13.87 7.05667 14.2633 6.86667 14.77 6.72C15.2767 6.57333 15.93 6.5 16.73 6.5V6.17C16.73 5.83 16.6467 5.54333 16.48 5.31C16.3133 5.08333 15.98 4.97 15.48 4.97C15.12 4.97 14.7633 5.03333 14.41 5.16C14.0633 5.28 13.81 5.43 13.65 5.61L13.09 4.27C13.37 4.07667 13.7433 3.9 14.21 3.74C14.6833 3.58 15.2067 3.5 15.78 3.5C16.4667 3.5 17.0033 3.60667 17.39 3.82C17.77 4.02667 18.0367 4.32333 18.19 4.71C18.3433 5.09 18.42 5.54 18.42 6.06V10.64H16.92L16.8 9.65C16.3133 10.4433 15.6267 10.84 14.74 10.84ZM15.48 9.49C15.6933 9.49 15.92 9.40667 16.16 9.24C16.4 9.06667 16.59 8.84667 16.73 8.58V7.59C16.6833 7.57667 16.6333 7.57 16.58 7.57C16.5267 7.57 16.4633 7.57 16.39 7.57C16.1367 7.57 15.8667 7.6 15.58 7.66C15.3 7.72 15.0633 7.82333 14.87 7.97C14.67 8.11 14.57 8.31 14.57 8.57C14.57 8.90333 14.6467 9.14 14.8 9.28C14.9467 9.42 15.1733 9.49 15.48 9.49ZM22.59 10.85C21.8033 10.85 21.27 10.6433 20.99 10.23C20.7167 9.82333 20.58 9.20333 20.58 8.37V5.14H19.67V3.67H20.65L20.75 2.2L22.27 1.54V3.67H23.99V5.14H22.27V8.33C22.27 8.73667 22.3267 9.01667 22.44 9.17C22.56 9.33 22.72 9.41 22.92 9.41C23.12 9.41 23.3367 9.35667 23.57 9.25C23.7967 9.14333 23.9767 9.03333 24.11 8.92L24.44 10.33C24.2933 10.4367 24.1067 10.5267 23.88 10.6C23.6467 10.68 23.4133 10.74 23.18 10.78C22.94 10.8267 22.7433 10.85 22.59 10.85ZM27.65 10.77C27.1367 10.77 26.72 10.72 26.4 10.62C26.0733 10.5267 25.82 10.4167 25.64 10.29C25.46 10.17 25.3367 10.0667 25.27 9.98L25.79 8.65C25.99 8.81667 26.25 8.98333 26.57 9.15C26.89 9.31 27.2633 9.39 27.69 9.39C28.0233 9.39 28.2567 9.32333 28.39 9.19C28.5233 9.05667 28.59 8.91 28.59 8.75C28.59 8.53 28.4367 8.33333 28.13 8.16C27.83 7.98 27.4767 7.80333 27.07 7.63C26.8367 7.53 26.5867 7.4 26.32 7.24C26.0533 7.08 25.8267 6.87 25.64 6.61C25.4467 6.35 25.35 6.01333 25.35 5.6C25.35 4.97333 25.58 4.47 26.04 4.09C26.5 3.71667 27.1533 3.53 28 3.53C28.54 3.53 28.9967 3.61 29.37 3.77C29.75 3.93 30.0033 4.07333 30.13 4.2L29.65 5.46C29.47 5.32 29.24 5.18667 28.96 5.06C28.68 4.93333 28.3767 4.87 28.05 4.87C27.6967 4.87 27.45 4.91667 27.31 5.01C27.17 5.10333 27.1 5.25333 27.1 5.46C27.1 5.68667 27.2267 5.87333 27.48 6.02C27.7267 6.16667 28.0267 6.31 28.38 6.45C28.96 6.68333 29.43 6.96667 29.79 7.3C30.1433 7.63333 30.32 8.05667 30.32 8.57C30.32 8.95 30.2333 9.30667 30.06 9.64C29.88 9.97333 29.5933 10.2433 29.2 10.45C28.8067 10.6633 28.29 10.77 27.65 10.77ZM33.77 2.53H31.81V0.67H33.77V2.53ZM33.7 10.64H31.88V3.67H33.7V10.64Z" fill="black"/>
</svg>
