<svg width="36" height="11" viewBox="0 0 36 11" fill="none" xmlns="http://www.w3.org/2000/svg">
<path d="M5.42 0H5.58L10.53 10.3H8.73L7.85 8.28H3.13L2.25 10.3H0.5L5.42 0ZM5.49 2.98L4.88 4.38L3.76 6.87H7.23L6.12 4.39L5.52 2.98H5.49ZM11.43 10.3V0.0100002H12.93V10.3H11.43ZM17.9 10.44C17.32 10.44 16.7867 10.3033 16.3 10.03C15.8067 9.75 15.4133 9.35667 15.12 8.85C14.8267 8.34333 14.68 7.75 14.68 7.07C14.68 6.39667 14.8067 5.80667 15.06 5.3C15.32 4.8 15.6867 4.41 16.16 4.13C16.64 3.85 17.2 3.71 17.84 3.71C18.2133 3.71 18.5633 3.77333 18.89 3.9C19.2167 4.03333 19.4933 4.19667 19.72 4.39C19.94 4.57667 20.09 4.76333 20.17 4.95L20.19 3.87H21.64V10.3H20.21L20.18 9.17C20.02 9.50333 19.73 9.8 19.31 10.06C18.89 10.3133 18.42 10.44 17.9 10.44ZM18.15 9.18C18.6833 9.18 19.13 8.99667 19.49 8.63C19.8567 8.25667 20.04 7.77333 20.04 7.18V7.08C20.04 6.68 19.9567 6.32 19.79 6C19.6233 5.68667 19.3933 5.44 19.1 5.26C18.8133 5.08 18.4967 4.99 18.15 4.99C17.55 4.99 17.0867 5.18333 16.76 5.57C16.4333 5.96333 16.27 6.46667 16.27 7.08C16.27 7.70667 16.4333 8.21333 16.76 8.6C17.08 8.98667 17.5433 9.18 18.15 9.18ZM24.23 10.3V5.11H23.09V3.87H24.23V1.26L25.75 0.92V3.87H27.24V5.11H25.75V10.3H24.23ZM31.31 10.44C30.73 10.44 30.1967 10.3033 29.71 10.03C29.2167 9.75 28.8233 9.35667 28.53 8.85C28.2367 8.34333 28.09 7.75 28.09 7.07C28.09 6.39667 28.2167 5.80667 28.47 5.3C28.73 4.8 29.0967 4.41 29.57 4.13C30.05 3.85 30.61 3.71 31.25 3.71C31.6233 3.71 31.9733 3.77333 32.3 3.9C32.6267 4.03333 32.9033 4.19667 33.13 4.39C33.3567 4.57667 33.5067 4.76333 33.58 4.95L33.61 3.87H35.05V10.3H33.62L33.59 9.17C33.43 9.50333 33.14 9.8 32.72 10.06C32.3 10.3133 31.83 10.44 31.31 10.44ZM31.56 9.18C32.0933 9.18 32.5433 8.99667 32.91 8.63C33.27 8.25667 33.45 7.77333 33.45 7.18V7.08C33.45 6.68 33.3667 6.32 33.2 6C33.0333 5.68667 32.8033 5.44 32.51 5.26C32.2233 5.08 31.9067 4.99 31.56 4.99C30.9667 4.99 30.5067 5.18333 30.18 5.57C29.8533 5.96333 29.69 6.46667 29.69 7.08C29.69 7.70667 29.85 8.21333 30.17 8.6C30.49 8.98667 30.9533 9.18 31.56 9.18Z" fill="black"/>
</svg>
