<svg width="35.364" height="19.32" viewBox="0 0 35.364 19.32" xmlns="http://www.w3.org/2000/svg"><path transform="translate(0 15.4) scale(.014 -.014)" d="M336 736H347L701 0H572L509 144H172L109 0H-16ZM341 523 297 423 217 245H465L386 422L343 523Z"/><path transform="translate(9.59 15.4) scale(.014 -.014)" d="M80 0V735H187V0Z"/><path transform="translate(13.342 15.4) scale(.014 -.014)" d="m274-10q-61 0-113.5 29t-84.5 83-32 129q0 72 27.5 126t78 84 120.5 30q42 0 76.5-14.5t58-35 31.5-39.5l2 77h103v-459h-102l-2 81q-10-22-33.5-43t-56.5-34.5-73-13.5zm18 90q37 0 67.5 17.5t49 49.5 18.5 76v7q0 45-18.5 78.5t-49 52-67.5 18.5q-67 0-100.5-43t-33.5-106q0-64 33.5-107t100.5-43z"/><path transform="translate(21.952 15.4) scale(.014 -.014)" d="M111 0V371H30V459H111V646L220 670V459H326V371H220V0Z"/><path transform="translate(26.754 15.4) scale(.014 -.014)" d="m274-10q-61 0-113.5 29t-84.5 83-32 129q0 72 27.5 126t78 84 120.5 30q42 0 76.5-14.5t58-35 31.5-39.5l2 77h103v-459h-102l-2 81q-10-22-33.5-43t-56.5-34.5-73-13.5zm18 90q37 0 67.5 17.5t49 49.5 18.5 76v7q0 45-18.5 78.5t-49 52-67.5 18.5q-67 0-100.5-43t-33.5-106q0-64 33.5-107t100.5-43z"/></svg>