<svg width="72.828" height="16.8" viewBox="0 0 72.828 16.8" xmlns="http://www.w3.org/2000/svg"><path transform="translate(0 13.3) scale(.014 -.014)" d="M354 630H321L90 0H9L265 700H409L664 0H583ZM134 254H542V184H134Z"/><path transform="translate(9.408 13.3) scale(.014 -.014)" d="M77 720H152V0H77Z"/><path transform="translate(12.6 13.3) scale(.014 -.014)" d="m144 399q22 46 69 77t119 31q69 0 120.5-32t80-89.5 28.5-135.5-29-136-80.5-89.5-119.5-31.5-113 29-68 71l-5-93h-69v720h75v-322zm336-149q0 86-44.5 136.5t-119.5 50.5q-47 0-84.5-22.5t-58.5-64-21-100.5 21-101 58.5-64 84.5-22q75 0 119.5 50.5t44.5 136.5z"/><path transform="translate(21.084 13.3) scale(.014 -.014)" d="m287-7q-70 0-124.5 34t-85.5 93-31 135q0 73 31 130t85 89.5 123 32.5q68 0 121.5-30t83.5-83 28-121q0-11-1-23t-2-26h-387q2-47 23-83t55.5-56.5 78.5-20.5q58 0 98.5 22t58.5 63l65-26q-30-63-87-96.5t-133-33.5zm149 296q1 43-18.5 76t-54.5 52-81 19q-40 0-73-19t-54.5-52.5-25.5-75.5z"/><path transform="translate(28.98 13.3) scale(.014 -.014)" d="m77 500h69l4-73q20 27 48.5 46t63 26.5 73.5 0.5v-75q-42 8-75.5 0t-57.5-30-37-55.5-13-77.5v-262h-75z"/><path transform="translate(34.02 13.3) scale(.014 -.014)" d="m109 500v140h75v-140h133v-70h-133v-269q0-46 19.5-67t50-25 63.5 0v-65q-39-9-76.5-5t-67 22.5-47 52.5-17.5 87v269h-75v70z"/><path transform="translate(42.868 13.3) scale(.014 -.014)" d="m124 178q6-27 25.5-53.5t54-44 88.5-17.5q77 0 114 36t37 85q0 39-21 64t-57 41.5-81 29.5q-40 11-79.5 24.5t-71.5 34-51 53.5-19 82q0 59 28 102.5t79 67.5 119 24q59 0 103-17t73.5-47.5 43.5-70.5l-71-27q-7 23-27 44.5t-52 35.5-73 14q-40 0-72.5-14t-51.5-40-19-63q0-40 22.5-63.5t60-38 82.5-27.5q41-13 79.5-28t69-37 48.5-55 18-81q0-53-25-98.5t-75.5-73-129.5-27.5q-66 0-116 20.5t-82 55.5-44 80z"/><path transform="translate(50.904 13.3) scale(.014 -.014)" d="m390 0-6 90q-21-46-62-71.5t-104-25.5q-54 0-92 17t-58.5 48.5-20.5 74.5q0 63 47 103.5t136 49.5l154 17v40q0 42-31 67.5t-84 25.5q-52 0-86.5-24t-47.5-69l-68 24q20 66 73.5 103t130.5 37q89 0 138.5-45.5t49.5-123.5v-338zm-6 239-155-18q-50-6-76-27.5t-26-56.5 25.5-56 73.5-21q55 0 90 22t51.5 59.5 16.5 81.5z"/><path transform="translate(58.296 13.3) scale(.014 -.014)" d="m77 500h69l4-71q24 37 63 57.5t91 20.5q57 0 100-24.5t67-73 24-121.5v-288h-75v279q0 78-33.5 118.5t-96.5 40.5q-65 0-101.5-43t-36.5-127v-268h-75z"/><path transform="translate(66.178 13.3) scale(.014 -.014)" d="m118 153q6-30 22-49.5t41.5-29.5 59.5-10q53 0 80.5 20.5t27.5 51.5q0 26-16.5 42t-43.5 26.5-60 18.5q-26 6-56 14.5t-57 23.5-44 39-17 63q0 43 23.5 75.5t65 50.5 95.5 18q62 0 110.5-27t67.5-84l-70-24q-7 26-25.5 40t-41 19-44.5 5q-45 0-72.5-17.5t-27.5-52.5q0-19 9-31.5t25-20.5 38-13.5 48-12.5q29-7 59-17.5t56-27 42.5-42 16.5-63.5q0-44-24-76.5t-66.5-50.5-98.5-18q-77 0-127.5 34.5t-67.5 101.5z"/></svg>