<svg width="27" height="11" viewBox="0 0 27 11" fill="none" xmlns="http://www.w3.org/2000/svg">
<path d="M9.58 10.08H8.28L6.98 6.74H3.09L1.8 10.08H0.5L4.39 0.25H5.69L9.58 10.08ZM5.04 1.69L3.5 5.68H6.58L5.04 1.69ZM11.85 0.25V7.32C11.85 7.69333 11.8533 8.00667 11.86 8.26C11.8733 8.51333 11.8867 8.73333 11.9 8.92C11.9133 9.11333 11.9333 9.28667 11.96 9.44C11.9933 9.6 12.0333 9.77333 12.08 9.96C11.8867 10.0067 11.6933 10.0533 11.5 10.1C11.3133 10.14 11.1233 10.1767 10.93 10.21C10.8367 9.91667 10.77 9.64667 10.73 9.4C10.6967 9.15333 10.68 8.91 10.68 8.67V0.25H11.85ZM19.09 8.76L19.43 9.68C18.9233 9.88 18.45 10.0233 18.01 10.11C17.5633 10.1967 17.1633 10.24 16.81 10.24C16.2767 10.24 15.81 10.1567 15.41 9.99C15.0033 9.81667 14.6667 9.57667 14.4 9.27C14.1333 8.95667 13.9333 8.58667 13.8 8.16C13.6667 7.72667 13.6 7.25 13.6 6.73C13.6 6.41 13.6233 6.09 13.67 5.77C13.7167 5.45 13.79 5.14667 13.89 4.86C13.99 4.57333 14.12 4.30333 14.28 4.05C14.44 3.79667 14.6367 3.58 14.87 3.4C15.1033 3.22 15.3767 3.07667 15.69 2.97C15.9967 2.86333 16.35 2.81 16.75 2.81C17.7633 2.81 18.5267 3.13 19.04 3.77C19.56 4.40333 19.82 5.31333 19.82 6.5V6.87H14.81C14.81 7.25667 14.85 7.59667 14.93 7.89C15.0167 8.18333 15.1433 8.43 15.31 8.63C15.4833 8.83667 15.7 8.99333 15.96 9.1C16.2267 9.2 16.54 9.25 16.9 9.25C17.1 9.25 17.2967 9.23667 17.49 9.21C17.69 9.17667 17.8833 9.13667 18.07 9.09C18.2567 9.04333 18.4367 8.99 18.61 8.93C18.7767 8.87 18.9367 8.81333 19.09 8.76ZM14.85 5.93H18.63C18.5967 5.19 18.42 4.65 18.1 4.31C17.7867 3.97 17.3367 3.8 16.75 3.8C16.1567 3.8 15.7067 3.97 15.4 4.31C15.0933 4.65 14.91 5.19 14.85 5.93ZM21.2 2.97H22.39V2.2C22.39 1.86 22.4233 1.56667 22.49 1.32C22.55 1.07333 22.66 0.846667 22.82 0.64C22.98 0.433333 23.2133 0.273333 23.52 0.16C23.8333 0.0533332 24.2133 0 24.66 0C25.2467 0 25.9467 0.0999997 26.76 0.3L26.55 1.26C25.7833 1.1 25.2 1.02 24.8 1.02C24.6 1.02 24.4333 1.03 24.3 1.05C24.1667 1.07 24.0533 1.11333 23.96 1.18C23.8733 1.24 23.8033 1.30333 23.75 1.37C23.7033 1.43667 23.6667 1.54 23.64 1.68C23.6133 1.81333 23.5967 1.94333 23.59 2.07C23.5833 2.19 23.58 2.36 23.58 2.58V2.97H25.86V3.96H23.58V9.09H25.86V10.08H21.2V9.09H22.39V3.96H21.2V2.97Z" fill="black"/>
</svg>
