<svg width="49.28" height="19.054" viewBox="0 0 49.28 19.054" xmlns="http://www.w3.org/2000/svg"><path transform="translate(0 14.224) scale(.014 -.014)" d="m332-10-3 7 4 39q35 3 54 7t27 11.5 8 19.5q0 10-2 22t-7 26l-33 109q-18 1-50.5 1t-53.5 0q-29 0-60.5-3t-48.5-5l-37-104q-9-27-9-39 0-22 14.5-31.5t45.5-9.5h57l2-4-6-43t-21 2-53 3.5-65 1.5q-24 0-49.5-0.5t-43-1.5-17.5-1l8 47q28 3 45 19t33 58l195 511 63 17h8t6.5-23.5 18-65 27-95 33-113.5 36.5-121.5 38-117.5q12-37 32.5-52t63.5-19l2-4-7-41t-19.5 1-44.5 1.5-42 0.5q-38 0-72.5-2.5t-55.5-5-21-2.5zm-147 283h88q20 0 48 2t45 3l-79 262h-7z"/><path transform="translate(8.176 14.224) scale(.014 -.014)" d="m27-12 4 41q29 8 40.5 20.5t13.5 33.5 2 52v491q0 25-4.5 36.5t-17 14.5-37.5 0l-3 2 4 34q37 5 74 12t74 17l6-13q-4-7-8-45.5t-7.5-101-6.5-141.5-4.5-167-1.5-176q0-30 8-43t27-13l35 2 2-4-8-43q-16 1-42.5 2t-46.5 1q-18 0-45.5-3.5t-57.5-8.5z"/><path transform="translate(11.592 14.224) scale(.014 -.014)" d="m246-12q-63 0-110 28t-73.5 77.5-26.5 115.5q0 51 17.5 97t48.5 81.5 70.5 56 84.5 20.5q149 0 149-145 0-13-2-27t-4-22l-13-12h-276q-1-89 32.5-140.5t94.5-60 144 29.5l6-2 11-29q-20-14-47.5-30t-55.5-27-50-11zm-131 307 181 9q15 2 20 7t5 20q0 40-21.5 61t-61.5 21q-46 0-80-31.5t-43-86.5z"/><path transform="translate(17.864 14.224) scale(.014 -.014)" d="m213-242q-47 0-81 16t-52.5 46-18.5 71q14 17 40.5 41.5t58.5 48.5v6q-52 9-79.5 34t-29.5 64q18 17 39 33.5t45 30.5v14l52-17q-31-16-44.5-28.5t-13.5-25.5q0-20 24-29.5t61.5-14 80-9.5 80-15.5 61.5-31 24-57.5q0-33-20.5-65t-56-57-79.5-40-91-15zm34 49q39 0 73 13.5t55 36.5 21 49q0 20-15 32t-56.5 21.5-121.5 19.5q-30-21-46-46.5t-16-50.5q0-34 29-54.5t77-20.5zm4 367q46 0 72.5 29t26.5 80q0 58-32 94t-83 36q-46 0-72.5-30t-26.5-81q0-57 32-92.5t83-35.5zm-23-44q-49 0-86.5 19.5t-59 54-21.5 78.5q0 50 25.5 91t68 66 92.5 25q28 0 53.5-5.5t44.5-5.5q20 2 56.5 10t81.5 20l3-4-11-56q-22-3-46-5t-40-4l-4-5q40-44 40-102 0-49-26.5-89t-71-64-99.5-24z"/><path transform="translate(24.878 14.224) scale(.014 -.014)" d="m59 36q30 3 40 19.5t10 63.5v220q0 33-9 47t-29 14q-8 0-14.5-1.5t-6.5-1.5l-5 7 3 31q31 6 62 13t52 12 21 5l7-6t-2.5-16-4.5-39.5-2-47.5l4-3q31 47 71 77t70 30q17 0 24-2t7-2l3-4t-2-13.5-5-35-5.5-46.5-3.5-48l-39-3q0 41-5 54.5t-22 13.5q-22 0-47-18t-46-50q0 0-1-18.5t-2-46.5-2-57.5-2-52-1-29.5q0-34 10-46t38-12q11 0 27.5 1t16.5 1l1-4-9-44t-10 0.5-26 0.5-33.5 0.5-32.5 0.5q-29 0-53-1t-38-2-14-1z"/><path transform="translate(30.24 14.224) scale(.014 -.014)" d="m246-12q-63 0-110 28t-73.5 77.5-26.5 115.5q0 51 17.5 97t48.5 81.5 70.5 56 84.5 20.5q149 0 149-145 0-13-2-27t-4-22l-13-12h-276q-1-89 32.5-140.5t94.5-60 144 29.5l6-2 11-29q-20-14-47.5-30t-55.5-27-50-11zm-131 307 181 9q15 2 20 7t5 20q0 40-21.5 61t-61.5 21q-46 0-80-31.5t-43-86.5z"/><path transform="translate(36.512 14.224) scale(.014 -.014)" d="m36-241q-4 0-11 7t-14.5 16.5-13 19-5.5 14.5l5 7q58 0 106 47.5t82 129.5q-9 29-21 66t-25.5 77.5-27 81-26.5 77.5-24 66q-10 26-26.5 36.5t-41.5 11.5l-2 4 6 33t16 0 36-0.5 31-0.5q22 0 43.5 1t38.5 2.5 27.5 2.5 10.5 1l2-5-6-31q-34-1-45.5-6.5t-11.5-19.5q0-9 6.5-34.5t16.5-59.5 21-70.5 21-68 16.5-51 6.5-19.5h4q17 41 37 89.5t37.5 93.5 29 77 11.5 39q0 14-9 20t-29 6h-46l-2 4 6 33t15.5-1 39-2 47.5-1q18 0 37.5 0.5t33.5 0.5 14 0l-7-37q-22-4-33.5-16t-22.5-41l-127-304q-37-89-65-147t-52.5-91-50.5-46-59-12z"/><path transform="translate(42.756 14.224) scale(.014 -.014)" d="m372-12q-40 0-62.5 20.5t-26.5 60.5l-4 1q-24-24-45.5-41.5t-38-27-26.5-9.5q-37 0-66 16t-45.5 44-16.5 64q0 29 14.5 51t38.5 29l190 52 1 44q0 50-23 78t-65 28q-28 0-59-13t-61-37l-5 3-12 43q26 15 58 31.5t61 27.5 44 11q44 0 75-15.5t47.5-44 16.5-69.5q0-13-2.5-42t-6.5-64.5-6.5-68.5-2.5-55 11-34 30-12q17 0 34 8.5t26 16.5l14-16q-8-13-21.5-29.5t-30-30.5-35.5-20zm-186 72q19 0 44.5 13.5t46.5 34.5l5 102-136-41q-29-9-29-42 0-28 19.5-47.5t49.5-19.5z"/></svg>