<svg width="75" height="13" viewBox="0 0 75 13" fill="none" xmlns="http://www.w3.org/2000/svg">
<path d="M5.09 0.86L8.08 9.83H6.94L6.73 8.93L6.22 7.39L4.21 7.35L2.39 7.39L1.84 8.88L1.62 9.83H0.5L3.79 0.86H5.09ZM4.3 6.47L5.91 6.44L4.46 2.02H4.36L2.74 6.44L4.3 6.47ZM10.69 0L10.6 7.02L10.67 9.83H9.57L9.65 7.1L9.58 0.0999999L10.69 0ZM17.49 6.57L13.47 6.58V6.61C13.47 7.39667 13.65 8 14.01 8.42C14.3633 8.84 14.8667 9.05 15.52 9.05C15.8467 9.05 16.1733 8.99333 16.5 8.88C16.8267 8.77333 17.1233 8.62333 17.39 8.43L17.51 8.51L17.34 9.47C16.6867 9.78333 16.0333 9.94 15.38 9.94C14.4667 9.94 13.7467 9.65 13.22 9.07C12.7 8.48333 12.44 7.68333 12.44 6.67C12.44 5.64333 12.7 4.82667 13.22 4.22C13.7467 3.61333 14.4533 3.31 15.34 3.31C16.0867 3.31 16.6633 3.52 17.07 3.94C17.4833 4.36667 17.69 4.95667 17.69 5.71C17.69 5.96333 17.67 6.20333 17.63 6.43L17.49 6.57ZM15.34 4.09C14.8733 4.09 14.4833 4.24 14.17 4.54C13.8567 4.84667 13.6467 5.27667 13.54 5.83L16.64 5.77L16.67 5.57C16.67 5.09667 16.5533 4.73 16.32 4.47C16.0933 4.21667 15.7667 4.09 15.34 4.09ZM24.95 3.96C24.6633 4.04667 24.2367 4.14667 23.67 4.26L23.64 4.31C23.8467 4.63667 23.95 5.03333 23.95 5.5C23.95 6.18667 23.7233 6.73 23.27 7.13C22.8167 7.53 22.2033 7.73 21.43 7.73C21.1167 7.73 20.8267 7.69333 20.56 7.62C20.4 7.74 20.2933 7.83667 20.24 7.91C20.18 7.98333 20.15 8.06667 20.15 8.16C20.15 8.36 20.2733 8.5 20.52 8.58C20.76 8.66 21.1567 8.74 21.71 8.82C22.25 8.89333 22.6933 8.97667 23.04 9.07C23.38 9.16333 23.6767 9.31667 23.93 9.53C24.1833 9.73667 24.31 10.0267 24.31 10.4C24.31 10.7933 24.1767 11.1533 23.91 11.48C23.6433 11.8067 23.28 12.0633 22.82 12.25C22.36 12.4367 21.8533 12.53 21.3 12.53C20.5533 12.53 19.9733 12.36 19.56 12.02C19.14 11.68 18.93 11.24 18.93 10.7C19.1567 10.2533 19.57 9.84667 20.17 9.48V9.41C19.83 9.31 19.57 9.17333 19.39 9C19.21 8.82667 19.12 8.59 19.12 8.29C19.3133 7.96333 19.5967 7.68 19.97 7.44V7.38C19.67 7.19333 19.4433 6.94667 19.29 6.64C19.1367 6.34 19.06 5.99 19.06 5.59C19.06 4.89 19.2867 4.34 19.74 3.94C20.1933 3.54667 20.7967 3.35 21.55 3.35C22.0433 3.35 22.4633 3.43333 22.81 3.6C23.4567 3.48 24.1333 3.32 24.84 3.12L24.95 3.21V3.96ZM21.48 6.97C21.9467 6.97 22.31 6.84 22.57 6.58C22.8233 6.32 22.95 5.95667 22.95 5.49C22.95 5.04333 22.83 4.69667 22.59 4.45C22.3433 4.21 21.9933 4.09 21.54 4.09C21.0733 4.09 20.71 4.21667 20.45 4.47C20.1833 4.72333 20.05 5.08333 20.05 5.55C20.05 5.99667 20.1767 6.34667 20.43 6.6C20.6767 6.84667 21.0267 6.97 21.48 6.97ZM23.33 10.61C23.33 10.3033 23.1733 10.09 22.86 9.97C22.5467 9.85 22.0733 9.74333 21.44 9.65L20.99 9.58C20.6367 9.79333 20.37 9.99667 20.19 10.19C20.0033 10.39 19.91 10.5967 19.91 10.81C19.91 11.0833 20.0433 11.3067 20.31 11.48C20.5767 11.66 20.95 11.75 21.43 11.75C21.97 11.75 22.42 11.64 22.78 11.42C23.1467 11.2 23.33 10.93 23.33 10.61ZM29.04 3.4C29.1533 3.4 29.2767 3.41 29.41 3.43V4.51L29.28 4.55C29.12 4.50333 28.9467 4.48 28.76 4.48C28.4533 4.48 28.1733 4.60333 27.92 4.85C27.66 5.09667 27.4033 5.49333 27.15 6.04L27.14 7.02L27.21 9.83H26.1L26.17 7.11L26.12 3.49L27.17 3.39L27.15 4.71H27.24C27.5 4.24333 27.7867 3.91 28.1 3.71C28.42 3.50333 28.7333 3.4 29.04 3.4ZM35.13 6.57L31.11 6.58V6.61C31.11 7.39667 31.29 8 31.65 8.42C32.0033 8.84 32.5067 9.05 33.16 9.05C33.4867 9.05 33.8133 8.99333 34.14 8.88C34.4667 8.77333 34.7633 8.62333 35.03 8.43L35.15 8.51L34.98 9.47C34.3267 9.78333 33.6733 9.94 33.02 9.94C32.1067 9.94 31.3867 9.65 30.86 9.07C30.34 8.48333 30.08 7.68333 30.08 6.67C30.08 5.64333 30.34 4.82667 30.86 4.22C31.3867 3.61333 32.0933 3.31 32.98 3.31C33.7267 3.31 34.3033 3.52 34.71 3.94C35.1233 4.36667 35.33 4.95667 35.33 5.71C35.33 5.96333 35.31 6.20333 35.27 6.43L35.13 6.57ZM32.98 4.09C32.5133 4.09 32.1233 4.24 31.81 4.54C31.4967 4.84667 31.2867 5.27667 31.18 5.83L34.28 5.77L34.31 5.57C34.31 5.09667 34.1933 4.73 33.96 4.47C33.7333 4.21667 33.4067 4.09 32.98 4.09ZM37.12 3.38L37.33 4.2L38.87 8.63H38.97L40.56 4.3L40.77 3.42H41.77L39.47 9.61C39.2367 10.2433 38.9867 10.74 38.72 11.1C38.4533 11.4667 38.1333 11.7567 37.76 11.97C37.38 12.1767 36.8833 12.3533 36.27 12.5H36.17C35.97 12.3067 35.8167 12.09 35.71 11.85L35.73 11.72C36.4433 11.58 36.9867 11.3833 37.36 11.13C37.74 10.87 38.0933 10.4367 38.42 9.83L36.07 3.45L37.12 3.38ZM44.93 3.31C45.5367 3.31 46.0167 3.45667 46.37 3.75C46.7167 4.05 46.89 4.46333 46.89 4.99C46.89 5.14333 46.8633 5.71667 46.81 6.71C46.75 7.69667 46.72 8.27333 46.72 8.44C46.72 8.64667 46.7533 8.79 46.82 8.87C46.8867 8.95 47 8.99 47.16 8.99C47.3 8.99 47.4567 8.96333 47.63 8.91L47.75 9L47.63 9.63C47.3633 9.79 47.1 9.88333 46.84 9.91C46.5467 9.88333 46.3133 9.78333 46.14 9.61C45.9667 9.43 45.8767 9.18667 45.87 8.88H45.77C45.27 9.39333 44.77 9.74333 44.27 9.93C43.65 9.93 43.1633 9.77333 42.81 9.46C42.4633 9.14667 42.29 8.72 42.29 8.18C42.29 7.76667 42.4 7.44 42.62 7.2C42.8333 6.95333 43.1567 6.78 43.59 6.68L45.86 6.15L45.87 5.24C45.87 4.87333 45.7733 4.59333 45.58 4.4C45.3933 4.2 45.12 4.1 44.76 4.1C44.4467 4.1 44.13 4.17667 43.81 4.33C43.4967 4.47667 43.1567 4.71 42.79 5.03L42.68 4.97L42.54 4.17C43.3133 3.59667 44.11 3.31 44.93 3.31ZM45.84 6.86L43.81 7.35C43.6233 7.41 43.49 7.48667 43.41 7.58C43.3233 7.68 43.28 7.82667 43.28 8.02C43.28 8.33333 43.3667 8.57333 43.54 8.74C43.7133 8.91333 43.9433 9 44.23 9C44.7433 9 45.2667 8.67 45.8 8.01L45.84 6.86ZM54.21 0.79C54.8567 0.79 55.5267 0.93 56.22 1.21L56.03 2.28L55.84 2.34C55.5667 2.13333 55.28 1.97333 54.98 1.86C54.6733 1.75333 54.37 1.7 54.07 1.7C53.73 1.7 53.43 1.77 53.17 1.91C52.9167 2.05 52.72 2.23 52.58 2.45C52.4467 2.67667 52.38 2.91 52.38 3.15C52.38 3.40333 52.4567 3.62667 52.61 3.82C52.7633 4.00667 52.9567 4.17 53.19 4.31C53.4233 4.45 53.74 4.62 54.14 4.82C54.6467 5.05333 55.0533 5.27 55.36 5.47C55.6667 5.67 55.93 5.92333 56.15 6.23C56.37 6.53667 56.48 6.91 56.48 7.35C56.48 7.81667 56.3533 8.24667 56.1 8.64C55.8533 9.03333 55.5 9.34667 55.04 9.58C54.58 9.81333 54.0567 9.93 53.47 9.93C53.0767 9.93 52.67 9.87667 52.25 9.77C51.8233 9.66333 51.4267 9.50667 51.06 9.3L51.2 8.15L51.36 8.08C51.6867 8.4 52.0467 8.63667 52.44 8.79C52.84 8.94333 53.22 9.02 53.58 9.02C53.94 9.02 54.2567 8.95 54.53 8.81C54.8033 8.67 55.0133 8.48333 55.16 8.25C55.3067 8.01667 55.38 7.77 55.38 7.51C55.38 7.11667 55.23 6.8 54.93 6.56C54.63 6.32 54.1767 6.06 53.57 5.78C53.0767 5.54 52.68 5.32333 52.38 5.13C52.08 4.94333 51.8233 4.69667 51.61 4.39C51.3967 4.09 51.29 3.72 51.29 3.28C51.29 2.82 51.4133 2.4 51.66 2.02C51.9067 1.63333 52.2533 1.33333 52.7 1.12C53.14 0.9 53.6433 0.79 54.21 0.79ZM60.04 3.31C60.6467 3.31 61.1233 3.45667 61.47 3.75C61.8233 4.05 62 4.46333 62 4.99C62 5.14333 61.97 5.71667 61.91 6.71C61.8567 7.69667 61.83 8.27333 61.83 8.44C61.83 8.64667 61.8633 8.79 61.93 8.87C61.9967 8.95 62.1067 8.99 62.26 8.99C62.4 8.99 62.56 8.96333 62.74 8.91L62.85 9L62.74 9.63C62.4667 9.79 62.2 9.88333 61.94 9.91C61.6533 9.88333 61.4233 9.78333 61.25 9.61C61.0767 9.43 60.9867 9.18667 60.98 8.88H60.88C60.3733 9.39333 59.8733 9.74333 59.38 9.93C58.7533 9.93 58.2667 9.77333 57.92 9.46C57.5667 9.14667 57.39 8.72 57.39 8.18C57.39 7.76667 57.5 7.44 57.72 7.2C57.94 6.95333 58.2633 6.78 58.69 6.68L60.96 6.15L60.98 5.24C60.98 4.87333 60.8833 4.59333 60.69 4.4C60.4967 4.2 60.2233 4.1 59.87 4.1C59.55 4.1 59.2333 4.17667 58.92 4.33C58.6 4.47667 58.26 4.71 57.9 5.03L57.78 4.97L57.64 4.17C58.42 3.59667 59.22 3.31 60.04 3.31ZM60.95 6.86L58.92 7.35C58.7333 7.41 58.5967 7.48667 58.51 7.58C58.43 7.68 58.39 7.82667 58.39 8.02C58.39 8.33333 58.4767 8.57333 58.65 8.74C58.8167 8.91333 59.0467 9 59.34 9C59.8533 9 60.3767 8.67 60.91 8.01L60.95 6.86ZM68.23 9.83L68.3 5.48C68.3067 5.09333 68.2167 4.79333 68.03 4.58C67.8433 4.36667 67.57 4.26 67.21 4.26C66.6167 4.26 65.98 4.59 65.3 5.25V7.02L65.36 9.83H64.25L64.32 7.11L64.27 3.49L65.32 3.39V4.33H65.4C65.98 3.81667 66.5733 3.48333 67.18 3.33C67.88 3.33 68.4133 3.49333 68.78 3.82C69.1467 4.14667 69.3267 4.61333 69.32 5.22L69.29 7.04L69.35 9.83H68.23ZM73.23 3.32C73.7567 3.32 74.27 3.42333 74.77 3.63L74.61 4.54L74.44 4.58C73.9733 4.27333 73.5267 4.12 73.1 4.12C72.78 4.12 72.5233 4.20667 72.33 4.38C72.1367 4.56 72.04 4.77667 72.04 5.03C72.04 5.28333 72.14 5.48667 72.34 5.64C72.54 5.79333 72.85 5.96667 73.27 6.16C73.63 6.32667 73.92 6.48 74.14 6.62C74.36 6.75333 74.55 6.93333 74.71 7.16C74.87 7.38 74.95 7.65333 74.95 7.98C74.95 8.32667 74.86 8.65 74.68 8.95C74.5067 9.25 74.2467 9.49 73.9 9.67C73.5533 9.85 73.1433 9.94 72.67 9.94C72.0167 9.94 71.3933 9.78667 70.8 9.48L70.94 8.53L71.07 8.44C71.33 8.66667 71.6133 8.84 71.92 8.96C72.22 9.08 72.5067 9.14 72.78 9.14C73.1267 9.14 73.4067 9.04667 73.62 8.86C73.8333 8.66667 73.94 8.44 73.94 8.18C73.94 7.92667 73.84 7.72333 73.64 7.57C73.44 7.41667 73.13 7.24 72.71 7.04C72.3433 6.87333 72.05 6.72333 71.83 6.59C71.6033 6.45667 71.41 6.27333 71.25 6.04C71.09 5.80667 71.01 5.51667 71.01 5.17C71.01 4.63 71.21 4.18667 71.61 3.84C72.0033 3.49333 72.5433 3.32 73.23 3.32Z" fill="black"/>
</svg>
