<svg width="100.23" height="16.8" viewBox="0 0 100.23 16.8" xmlns="http://www.w3.org/2000/svg"><path transform="translate(0 12.6) scale(.014 -.014)" d="m556 0h-82l-15 64-36 110-144 3-130-3-39-106-16-68h-80l235 641h93zm-155 242-104 316h-7l-116-316 112-2z"/><path transform="translate(8.092 12.6) scale(.014 -.014)" d="m358 56-5-56h-265l3 150-3 348h75l-3-342 2-93h192z"/><path transform="translate(13.37 12.6) scale(.014 -.014)" d="m394 64 6-6-7-58h-303l3 150-3 348h305l5-6-6-58-126 4-104-1-1-151 99-1 87 3 5-7-6-59-92 3-93-1-1-68 1-95 98-1z"/><path transform="translate(19.46 12.6) scale(.014 -.014)" d="m463 469-25-72h-9q-37 24-68 33.5t-67 9.5q-85 0-127.5-48t-42.5-150q0-98 39-141.5t124-43.5q25 0 48 4.5t56 16.5v50l-1 71 69 5v-180q-101-30-175-30-118 0-178.5 63.5t-60.5 181.5q0 128 68.5 196t192.5 68q78 0 157-34z"/><path transform="translate(26.824 12.6) scale(.014 -.014)" d="m454 18-1-10q-42-13-69-15l-13 8q-76 115-115 181l-94-1v-25l2-156h-74l3 150-3 348 170 1q79 0 121.5-37t42.5-107q0-51-27.5-91t-77.5-63q61-93 135-183zm-291 225 94-3q89 25 89 109 0 44-26 66t-79 24l-77-1z"/><path transform="translate(33.768 12.6) scale(.014 -.014)" d="m394 64 6-6-7-58h-303l3 150-3 348h305l5-6-6-58-126 4-104-1-1-151 99-1 87 3 5-7-6-59-92 3-93-1-1-68 1-95 98-1z"/><path transform="translate(39.858 12.6) scale(.014 -.014)" d="m263 143 3-143h-75l4 143-1 31-169 324h82l10-29 112-214h5l122 211 13 32h80l-185-324z"/><path transform="translate(46.48 12.6) scale(.014 -.014)" d="m478 0h-75l-12 54-26 74-119 1-106-1-27-70-14-58h-74l192 498h86zm-134 189-83 236h-6l-91-236 88-1z"/><path transform="translate(55.958 12.6) scale(.014 -.014)" d="m410 616-13-77-14-4q-29 22-61.5 34t-64.5 12q-37 0-64.5-15t-42-39-14.5-50q0-27 16.5-47.5t41.5-35.5 68-36q54-25 87-46.5t56.5-54.5 23.5-80q0-50-27-92t-76-67-112-25q-42 0-87.5 11.5t-84.5 33.5l10 82 11 5q35-34 77.5-50.5t81.5-16.5q38 0 67.5 15t45 40 15.5 53q0 42-32 67.5t-97 55.5q-53 26-85 46.5t-55 53-23 79.5q0 49 26.5 90t74 64.5 108.5 23.5q69 0 143-30z"/><path transform="translate(62.566 12.6) scale(.014 -.014)" d="m478 0h-75l-12 54-26 74-119 1-106-1-27-70-14-58h-74l192 498h86zm-134 189-83 236h-6l-91-236 88-1z"/><path transform="translate(69.734 12.6) scale(.014 -.014)" d="m503 149 1-149h-80l-262 380h-5l-1-214 2-166h-68l3 147-2 351h79l262-380h7l-2 377 69 5z"/><path transform="translate(78.078 12.6) scale(.014 -.014)" d="m359 479-13-74-12-3q-28 22-53 32.5t-52 10.5q-43 0-68-22.5t-25-51.5 24.5-47 75.5-40q45-20 71.5-36t46-42.5 19.5-64.5q0-39-21-72.5t-61.5-54-96.5-20.5q-35 0-73.5 8.5t-71.5 25.5l9 79 10 4q28-28 65.5-43.5t69.5-15.5q42 0 69 22.5t27 54.5q0 30-24.5 48t-76.5 42q-43 19-70.5 35t-46.5 42.5-19 64.5q0 40 21.5 72t61 51 92.5 19q61 0 122-24z"/><path transform="translate(86.338 12.6) scale(.014 -.014)" d="m410 616-13-77-14-4q-29 22-61.5 34t-64.5 12q-37 0-64.5-15t-42-39-14.5-50q0-27 16.5-47.5t41.5-35.5 68-36q54-25 87-46.5t56.5-54.5 23.5-80q0-50-27-92t-76-67-112-25q-42 0-87.5 11.5t-84.5 33.5l10 82 11 5q35-34 77.5-50.5t81.5-16.5q38 0 67.5 15t45 40 15.5 53q0 42-32 67.5t-97 55.5q-53 26-85 46.5t-55 53-23 79.5q0 49 26.5 90t74 64.5 108.5 23.5q69 0 143-30z"/><path transform="translate(92.946 12.6) scale(.014 -.014)" d="m497 598-16-73-9-2q-67 56-154 56-95 0-146-65.5t-51-191.5q0-127 51-194t144-67q44 0 87.5 16t79.5 45l10-5-7-76q-87-48-177-48-129 0-200 83.5t-71 238.5q0 159 74 245t210 86q101 0 175-48z"/></svg>