<svg width="50" height="14" viewBox="0 0 50 14" fill="none" xmlns="http://www.w3.org/2000/svg">
<path d="M5.36 10.53L5.32 10.43L5.37 9.89C5.69667 9.85667 5.95 9.82333 6.13 9.79C6.30333 9.75 6.43 9.69667 6.51 9.63C6.58333 9.55667 6.62 9.46333 6.62 9.35C6.62 9.25667 6.61 9.15667 6.59 9.05C6.57 8.93667 6.53667 8.81333 6.49 8.68L6.03 7.16C5.86333 7.14667 5.62667 7.14 5.32 7.14C5.02 7.14 4.77 7.14 4.57 7.14C4.30333 7.14 4.02333 7.15333 3.73 7.18C3.43667 7.21333 3.21 7.23667 3.05 7.25L2.53 8.71C2.44333 8.96333 2.4 9.14667 2.4 9.26C2.4 9.46 2.47 9.60667 2.61 9.7C2.74333 9.78667 2.95333 9.83 3.24 9.83H4.04L4.07 9.89L3.99 10.49C3.99 10.49 3.89 10.48 3.69 10.46C3.49667 10.44 3.25 10.4233 2.95 10.41C2.65 10.3967 2.34667 10.39 2.04 10.39C1.81333 10.39 1.58333 10.3933 1.35 10.4C1.11 10.4 0.91 10.4067 0.75 10.42C0.583333 10.4267 0.5 10.43 0.5 10.43L0.61 9.77C0.87 9.74333 1.08 9.65667 1.24 9.51C1.4 9.35667 1.55333 9.08667 1.7 8.7L4.43 1.54L5.32 1.3H5.43C5.43 1.3 5.46 1.41 5.52 1.63C5.58 1.85 5.66333 2.15333 5.77 2.54C5.87667 2.92667 6.00333 3.37 6.15 3.87C6.29667 4.37 6.45 4.9 6.61 5.46C6.77667 6.02 6.94667 6.58667 7.12 7.16C7.3 7.73333 7.47667 8.28333 7.65 8.81C7.76333 9.15667 7.91667 9.4 8.11 9.54C8.30333 9.68 8.6 9.76667 9 9.8L9.03 9.86L8.93 10.43C8.93 10.43 8.84 10.4267 8.66 10.42C8.47333 10.4067 8.26333 10.4 8.03 10.4C7.79667 10.3933 7.6 10.39 7.44 10.39C7.08667 10.39 6.75 10.4033 6.43 10.43C6.11 10.45 5.85 10.4733 5.65 10.5C5.45667 10.52 5.36 10.53 5.36 10.53ZM4.63 2.83L3.3 6.57H4.53C4.71667 6.57 4.94 6.56 5.2 6.54C5.46667 6.52 5.67667 6.50667 5.83 6.5L4.73 2.83H4.63ZM8.98 10.56L9.04 9.98C9.31333 9.90667 9.50333 9.81333 9.61 9.7C9.71667 9.58 9.78 9.42333 9.8 9.23C9.81333 9.03 9.82 8.78667 9.82 8.5V1.63C9.82 1.39667 9.8 1.22333 9.76 1.11C9.72 1.00333 9.64 0.936666 9.52 0.91C9.40667 0.883333 9.23333 0.883333 9 0.91L8.96 0.88L9.01 0.41C9.35667 0.363333 9.70333 0.306666 10.05 0.24C10.3967 0.173333 10.74 0.0933333 11.08 0L11.17 0.18C11.13 0.246666 11.0933 0.46 11.06 0.82C11.02 1.18 10.9833 1.65333 10.95 2.24C10.9167 2.82 10.8867 3.48 10.86 4.22C10.8333 4.95333 10.8133 5.73 10.8 6.55C10.7867 7.37667 10.78 8.2 10.78 9.02C10.78 9.3 10.8167 9.5 10.89 9.62C10.9633 9.74 11.09 9.8 11.27 9.8L11.76 9.77L11.78 9.83L11.67 10.43C11.5233 10.4233 11.3267 10.4133 11.08 10.4C10.8333 10.3933 10.6167 10.39 10.43 10.39C10.2567 10.39 10.0433 10.4067 9.79 10.44C9.53 10.4733 9.26 10.5133 8.98 10.56ZM15.47 10.56C14.8767 10.56 14.3633 10.43 13.93 10.17C13.49 9.90333 13.1467 9.54 12.9 9.08C12.6533 8.62 12.53 8.08 12.53 7.46C12.53 6.98667 12.61 6.53667 12.77 6.11C12.9367 5.67667 13.1633 5.29333 13.45 4.96C13.7367 4.63333 14.0667 4.37333 14.44 4.18C14.8067 3.98667 15.2 3.89 15.62 3.89C17.0133 3.89 17.71 4.56667 17.71 5.92C17.71 6.04667 17.7 6.17333 17.68 6.3C17.66 6.43333 17.64 6.53667 17.62 6.61L17.44 6.78H13.58C13.5667 7.60667 13.7167 8.26333 14.03 8.75C14.3433 9.23 14.7833 9.51 15.35 9.59C15.9233 9.66333 16.5967 9.52333 17.37 9.17L17.45 9.2L17.61 9.61C17.4233 9.73667 17.2 9.87667 16.94 10.03C16.6867 10.1767 16.43 10.3 16.17 10.4C15.9033 10.5067 15.67 10.56 15.47 10.56ZM13.63 6.26L16.17 6.13C16.31 6.11667 16.4033 6.08667 16.45 6.04C16.4967 5.99333 16.52 5.9 16.52 5.76C16.52 5.38667 16.4167 5.1 16.21 4.9C16.01 4.70667 15.7233 4.61 15.35 4.61C14.9233 4.61 14.55 4.75667 14.23 5.05C13.9167 5.34333 13.7167 5.74667 13.63 6.26ZM21.14 13.78C20.7 13.78 20.32 13.7033 20 13.55C19.6867 13.4033 19.4433 13.19 19.27 12.91C19.0967 12.63 19.01 12.3 19.01 11.92C19.1367 11.76 19.3233 11.5667 19.57 11.34C19.8233 11.1067 20.0967 10.88 20.39 10.66V10.57C19.91 10.49 19.54 10.3333 19.28 10.1C19.0267 9.86667 18.89 9.56667 18.87 9.2C19.0367 9.04 19.2167 8.88333 19.41 8.73C19.61 8.57667 19.82 8.43333 20.04 8.3V8.11L20.77 8.35C20.4833 8.49667 20.2767 8.63 20.15 8.75C20.0233 8.86333 19.96 8.98 19.96 9.1C19.96 9.28667 20.0733 9.42667 20.3 9.52C20.52 9.60667 20.8067 9.67 21.16 9.71C21.5067 9.75 21.88 9.79333 22.28 9.84C22.6733 9.88667 23.0467 9.96 23.4 10.06C23.7467 10.16 24.0333 10.3067 24.26 10.5C24.48 10.6867 24.59 10.9533 24.59 11.3C24.59 11.6067 24.4967 11.91 24.31 12.21C24.1167 12.51 23.8533 12.7767 23.52 13.01C23.1933 13.2433 22.8233 13.43 22.41 13.57C21.9967 13.71 21.5733 13.78 21.14 13.78ZM21.61 13.09C21.9767 13.09 22.3167 13.0267 22.63 12.9C22.95 12.7733 23.2067 12.6033 23.4 12.39C23.6 12.1767 23.7 11.95 23.7 11.71C23.7 11.5233 23.63 11.3733 23.49 11.26C23.35 11.1467 23.0867 11.0467 22.7 10.96C22.3133 10.8667 21.7467 10.7733 21 10.68C20.72 10.88 20.5033 11.1 20.35 11.34C20.2033 11.5733 20.13 11.8067 20.13 12.04C20.13 12.36 20.2633 12.6133 20.53 12.8C20.8033 12.9933 21.1633 13.09 21.61 13.09ZM21.67 7.95C22.0967 7.95 22.4333 7.81667 22.68 7.55C22.9267 7.27667 23.05 6.90333 23.05 6.43C23.05 5.89 22.9033 5.45 22.61 5.11C22.31 4.77667 21.92 4.61 21.44 4.61C21.0133 4.61 20.6767 4.75 20.43 5.03C20.1833 5.31 20.06 5.68667 20.06 6.16C20.06 6.69333 20.21 7.12667 20.51 7.46C20.8033 7.78667 21.19 7.95 21.67 7.95ZM21.35 8.57C20.89 8.57 20.4867 8.48 20.14 8.3C19.7867 8.11333 19.51 7.86 19.31 7.54C19.11 7.22 19.01 6.85333 19.01 6.44C19.01 5.97333 19.1267 5.55 19.36 5.17C19.6 4.78333 19.92 4.47333 20.32 4.24C20.7133 4.00667 21.1433 3.89 21.61 3.89C21.87 3.89 22.12 3.91667 22.36 3.97C22.6 4.02333 22.8067 4.05 22.98 4.05C23.1667 4.03 23.43 3.98333 23.77 3.91C24.1167 3.83667 24.5 3.74333 24.92 3.63L24.96 3.68L24.8 4.47C24.6 4.49667 24.3867 4.52 24.16 4.54C23.9333 4.56 23.7467 4.57667 23.6 4.59L23.54 4.66C23.9133 5.07333 24.1 5.55 24.1 6.09C24.1 6.55 23.9767 6.96667 23.73 7.34C23.4833 7.71333 23.1533 8.01 22.74 8.23C22.3267 8.45667 21.8633 8.57 21.35 8.57ZM25.92 10.45L25.99 9.89C26.27 9.85667 26.4567 9.76333 26.55 9.61C26.6433 9.45667 26.69 9.16 26.69 8.72V5.64C26.69 5.33333 26.65 5.11667 26.57 4.99C26.4833 4.85667 26.3467 4.79 26.16 4.79C26.0867 4.79 26.02 4.79667 25.96 4.81C25.9 4.82333 25.87 4.83 25.87 4.83L25.8 4.73L25.84 4.3C26.1267 4.24667 26.4167 4.18667 26.71 4.12C26.9967 4.05333 27.24 3.99667 27.44 3.95C27.6333 3.90333 27.73 3.88 27.73 3.88L27.83 3.96C27.83 3.96 27.8167 4.03667 27.79 4.19C27.77 4.33667 27.75 4.52 27.73 4.74C27.71 4.96 27.7 5.18333 27.7 5.41L27.76 5.45C28.0467 5.01 28.3767 4.65 28.75 4.37C29.1233 4.09 29.45 3.95 29.73 3.95C29.89 3.95 30.0033 3.96 30.07 3.98C30.1367 4 30.17 4.01 30.17 4.01L30.21 4.06C30.21 4.06 30.2 4.12333 30.18 4.25C30.16 4.37667 30.1367 4.54 30.11 4.74C30.0833 4.94 30.0567 5.15667 30.03 5.39C30.01 5.62333 29.9933 5.84667 29.98 6.06L29.44 6.11C29.44 5.72333 29.4167 5.46667 29.37 5.34C29.3233 5.21333 29.22 5.15 29.06 5.15C28.8533 5.15 28.6333 5.23667 28.4 5.41C28.1667 5.57667 27.9533 5.81 27.76 6.11C27.76 6.11 27.7533 6.19333 27.74 6.36C27.7333 6.53333 27.7267 6.75333 27.72 7.02C27.7067 7.28 27.6967 7.54667 27.69 7.82C27.6767 8.09333 27.6667 8.33667 27.66 8.55C27.6533 8.75667 27.65 8.89333 27.65 8.96C27.65 9.28 27.6967 9.49667 27.79 9.61C27.8833 9.71667 28.06 9.77 28.32 9.77C28.42 9.77 28.5467 9.76667 28.7 9.76C28.8533 9.75333 28.93 9.75 28.93 9.75L28.95 9.8L28.82 10.42C28.82 10.42 28.7733 10.4167 28.68 10.41C28.5867 10.4033 28.4667 10.4 28.32 10.4C28.1667 10.4 28.01 10.4 27.85 10.4C27.6833 10.3933 27.53 10.39 27.39 10.39C27.1233 10.39 26.8767 10.3933 26.65 10.4C26.43 10.4133 26.2533 10.4233 26.12 10.43C25.9867 10.4433 25.92 10.45 25.92 10.45ZM33.83 10.56C33.2433 10.56 32.73 10.43 32.29 10.17C31.8567 9.90333 31.5133 9.54 31.26 9.08C31.0133 8.62 30.89 8.08 30.89 7.46C30.89 6.98667 30.9733 6.53667 31.14 6.11C31.3 5.67667 31.5267 5.29333 31.82 4.96C32.1067 4.63333 32.4333 4.37333 32.8 4.18C33.1733 3.98667 33.57 3.89 33.99 3.89C35.3767 3.89 36.07 4.56667 36.07 5.92C36.07 6.04667 36.0633 6.17333 36.05 6.3C36.03 6.43333 36.01 6.53667 35.99 6.61L35.81 6.78H31.94C31.9333 7.60667 32.0867 8.26333 32.4 8.75C32.7133 9.23 33.1533 9.51 33.72 9.59C34.2933 9.66333 34.9667 9.52333 35.74 9.17L35.82 9.2L35.98 9.61C35.7933 9.73667 35.57 9.87667 35.31 10.03C35.0567 10.1767 34.7967 10.3 34.53 10.4C34.27 10.5067 34.0367 10.56 33.83 10.56ZM32 6.26L34.53 6.13C34.67 6.11667 34.7633 6.08667 34.81 6.04C34.8567 5.99333 34.88 5.9 34.88 5.76C34.88 5.38667 34.78 5.1 34.58 4.9C34.38 4.70667 34.0933 4.61 33.72 4.61C33.2933 4.61 32.92 4.75667 32.6 5.05C32.2867 5.34333 32.0867 5.74667 32 6.26ZM37.17 13.76C37.13 13.76 37.0767 13.73 37.01 13.67C36.9433 13.6033 36.8767 13.5267 36.81 13.44C36.7367 13.3467 36.6767 13.2567 36.63 13.17C36.5767 13.0833 36.55 13.0167 36.55 12.97L36.62 12.87C37.16 12.87 37.6533 12.6467 38.1 12.2C38.5533 11.76 38.9367 11.1567 39.25 10.39C39.17 10.1167 39.0733 9.81 38.96 9.47C38.8467 9.12333 38.7267 8.76 38.6 8.38C38.4733 8 38.3467 7.62333 38.22 7.25C38.0933 6.87 37.97 6.50667 37.85 6.16C37.73 5.81333 37.62 5.50667 37.52 5.24C37.4267 4.99333 37.3 4.82333 37.14 4.73C36.9867 4.63 36.7933 4.57667 36.56 4.57L36.54 4.51L36.62 4.05C36.62 4.05 36.6933 4.05 36.84 4.05C36.9933 4.05 37.1633 4.05 37.35 4.05C37.5367 4.05667 37.68 4.06 37.78 4.06C37.9867 4.06 38.19 4.05667 38.39 4.05C38.59 4.03667 38.77 4.02333 38.93 4.01C39.09 3.99667 39.2167 3.98667 39.31 3.98C39.41 3.96667 39.46 3.96 39.46 3.96L39.49 4.03L39.41 4.47C39.09 4.47667 38.8767 4.50667 38.77 4.56C38.6633 4.61333 38.61 4.70333 38.61 4.83C38.61 4.91667 38.64 5.08 38.7 5.32C38.76 5.55333 38.8367 5.83 38.93 6.15C39.0233 6.46333 39.12 6.79333 39.22 7.14C39.3267 7.48 39.4267 7.79667 39.52 8.09C39.6133 8.38333 39.69 8.62 39.75 8.8C39.81 8.98 39.84 9.07 39.84 9.07H39.9C40.0533 8.69 40.2233 8.27333 40.41 7.82C40.5967 7.36667 40.7733 6.93 40.94 6.51C41.1 6.09 41.2333 5.73 41.34 5.43C41.4533 5.13667 41.51 4.95667 41.51 4.89C41.51 4.75667 41.4667 4.66333 41.38 4.61C41.2933 4.55 41.1567 4.52 40.97 4.52H40.33L40.3 4.47L40.39 4.01C40.39 4.01 40.46 4.01333 40.6 4.02C40.7467 4.02667 40.93 4.03667 41.15 4.05C41.37 4.05667 41.59 4.06 41.81 4.06C41.9833 4.06 42.16 4.05667 42.34 4.05C42.52 4.05 42.6767 4.05 42.81 4.05C42.9367 4.05 43 4.05 43 4.05L42.91 4.57C42.7033 4.60333 42.5467 4.67667 42.44 4.79C42.3333 4.90333 42.2267 5.09333 42.12 5.36L40.34 9.62C40 10.4533 39.6967 11.14 39.43 11.68C39.17 12.22 38.9267 12.6433 38.7 12.95C38.4733 13.2567 38.2367 13.4733 37.99 13.6C37.75 13.72 37.4767 13.7733 37.17 13.76ZM47.89 10.56C47.5167 10.56 47.2233 10.4633 47.01 10.27C46.8033 10.0767 46.68 9.79333 46.64 9.42L46.59 9.41C46.3633 9.63667 46.15 9.83 45.95 9.99C45.75 10.1567 45.5733 10.2833 45.42 10.37C45.2667 10.4567 45.1433 10.5 45.05 10.5C44.7033 10.5 44.3933 10.4267 44.12 10.28C43.8533 10.1267 43.6433 9.92 43.49 9.66C43.3367 9.4 43.26 9.10333 43.26 8.77C43.26 8.49667 43.3267 8.25667 43.46 8.05C43.5933 7.84333 43.7733 7.71 44 7.65L46.66 6.92L46.67 6.3C46.67 5.83333 46.5633 5.47 46.35 5.21C46.1367 4.95 45.8333 4.82 45.44 4.82C45.18 4.82 44.9033 4.88 44.61 5C44.3233 5.12 44.04 5.29333 43.76 5.52L43.69 5.48L43.52 4.87C43.7667 4.73 44.0367 4.58333 44.33 4.43C44.63 4.27667 44.9167 4.15 45.19 4.05C45.4567 3.94333 45.66 3.89 45.8 3.89C46.2133 3.89 46.5633 3.96333 46.85 4.11C47.1433 4.25667 47.3667 4.46333 47.52 4.73C47.6733 4.99667 47.75 5.32 47.75 5.7C47.75 5.82 47.74 6.01667 47.72 6.29C47.6933 6.55667 47.66 6.85667 47.62 7.19C47.5867 7.52333 47.5567 7.84333 47.53 8.15C47.51 8.45667 47.5 8.71333 47.5 8.92C47.5 9.12667 47.55 9.28667 47.65 9.4C47.7567 9.50667 47.8967 9.56 48.07 9.56C48.23 9.56 48.39 9.52 48.55 9.44C48.71 9.36667 48.83 9.29 48.91 9.21L49.11 9.44C49.0367 9.56 48.9367 9.69667 48.81 9.85C48.6833 10.0033 48.5433 10.1467 48.39 10.28C48.2367 10.4067 48.07 10.5 47.89 10.56ZM45.29 9.55C45.4633 9.55 45.67 9.48667 45.91 9.36C46.15 9.23333 46.3667 9.07333 46.56 8.88L46.63 7.45L44.73 8.02C44.4567 8.10667 44.32 8.30333 44.32 8.61C44.32 8.87 44.41 9.09333 44.59 9.28C44.7767 9.46 45.01 9.55 45.29 9.55Z" fill="black"/>
</svg>
