<svg width="101" height="12" viewBox="0 0 101 12" fill="none" xmlns="http://www.w3.org/2000/svg">
<path d="M8.52 0.2L10.89 8.79H11.45V11.09H5.96V8.79H6.8L6.57 7.67H4.67L4.45 8.79H5.29V11.09H0.5V8.79H1.06L3.42 0.2H8.52ZM5.55 3.4L4.98 6.19H6.27L5.69 3.4H5.55ZM16.32 11.1H11.87V8.79H12.48V2.49H11.87V0.2H15.7V8.79H16.32V11.1ZM16.77 11.09V8.79H17.38V5.6H16.77V3.31H17.41C17.41 2.17 17.6867 1.33333 18.24 0.8C18.8 0.266667 19.61 0 20.67 0C21.1833 0 21.6433 0.0366668 22.05 0.11C22.4567 0.19 22.7533 0.276667 22.94 0.37V2.56C22.4467 2.51333 21.99 2.49 21.57 2.49C21.2033 2.49 20.95 2.55333 20.81 2.68C20.67 2.8 20.6 3.01 20.6 3.31H21.69V5.6H20.6V8.79H21.69V11.09H16.77ZM29.69 8.79H30.3V11.09H26.61V10.14C26.4033 10.44 26.1167 10.7067 25.75 10.94C25.3767 11.1733 24.9267 11.29 24.4 11.29C23.7 11.29 23.1467 11.1033 22.74 10.73C22.34 10.3567 22.14 9.82667 22.14 9.14C22.14 7.38 23.64 6.47667 26.64 6.43C26.6067 6.11 26.4833 5.89333 26.27 5.78C26.0567 5.66 25.6933 5.6 25.18 5.6C24.76 5.6 24.31 5.64333 23.83 5.73C23.35 5.82333 22.91 5.94333 22.51 6.09V3.52C23.0033 3.39333 23.54 3.29333 24.12 3.22C24.6933 3.14667 25.2567 3.11 25.81 3.11C27.2033 3.11 28.1967 3.36333 28.79 3.87C29.39 4.37 29.69 5.14667 29.69 6.2V8.79ZM26.61 7.9V7.81C26.19 7.81 25.8667 7.86667 25.64 7.98C25.4067 8.09333 25.29 8.28 25.29 8.54C25.29 8.7 25.34 8.83 25.44 8.93C25.54 9.02333 25.6767 9.07 25.85 9.07C26.0967 9.07 26.2833 8.97 26.41 8.77C26.5433 8.56333 26.61 8.27333 26.61 7.9ZM39.32 11.29C38.4267 11.29 37.58 11.21 36.78 11.05C35.98 10.8967 35.3667 10.7233 34.94 10.53V7.76H38.02C38.02 8.04667 38.0833 8.25667 38.21 8.39C38.3433 8.51667 38.5833 8.58 38.93 8.58C39.2167 8.58 39.4233 8.53667 39.55 8.45C39.6767 8.36333 39.74 8.23 39.74 8.05C39.74 7.90333 39.68 7.77667 39.56 7.67C39.44 7.56333 39.23 7.45333 38.93 7.34L37.72 6.92C36.6867 6.52667 35.9433 6.06333 35.49 5.53C35.0367 4.99667 34.81 4.28 34.81 3.38C34.81 2.27333 35.1733 1.43333 35.9 0.86C36.62 0.286667 37.8267 0 39.52 0C40.3267 0 41.09 0.0833333 41.81 0.25C42.5233 0.41 43.0967 0.626667 43.53 0.9V3.4H40.73C40.73 2.93333 40.4433 2.7 39.87 2.7C39.59 2.7 39.39 2.73667 39.27 2.81C39.1567 2.87667 39.1 3 39.1 3.18C39.1 3.34 39.1667 3.46667 39.3 3.56C39.4333 3.65333 39.6533 3.75 39.96 3.85L41.18 4.27C42.1733 4.61 42.8967 5.04667 43.35 5.58C43.7967 6.12 44.02 6.82333 44.02 7.69C44.02 8.87667 43.6233 9.77333 42.83 10.38C42.03 10.9867 40.86 11.29 39.32 11.29ZM48.84 11.1H44.39V8.79H45V2.49H44.39V0.2H48.22V8.79H48.84V11.1ZM56.83 8.79H57.45V11.09H53.75V10.14C53.55 10.44 53.2633 10.7067 52.89 10.94C52.5233 11.1733 52.0733 11.29 51.54 11.29C50.84 11.29 50.29 11.1033 49.89 10.73C49.49 10.3567 49.29 9.82667 49.29 9.14C49.29 7.38 50.7867 6.47667 53.78 6.43C53.7533 6.11 53.6333 5.89333 53.42 5.78C53.2067 5.66 52.8433 5.6 52.33 5.6C51.91 5.6 51.46 5.64333 50.98 5.73C50.4933 5.82333 50.05 5.94333 49.65 6.09V3.52C50.1433 3.39333 50.68 3.29333 51.26 3.22C51.84 3.14667 52.4067 3.11 52.96 3.11C54.3467 3.11 55.34 3.36333 55.94 3.87C56.5333 4.37 56.83 5.14667 56.83 6.2V8.79ZM53.75 7.9V7.81C53.33 7.81 53.0067 7.86667 52.78 7.98C52.5533 8.09333 52.44 8.28 52.44 8.54C52.44 8.7 52.49 8.83 52.59 8.93C52.6833 9.02333 52.82 9.07 53 9.07C53.24 9.07 53.4267 8.97 53.56 8.77C53.6867 8.56333 53.75 8.27333 53.75 7.9ZM63.9 11.29C63.4267 11.29 63.0067 11.1733 62.64 10.94C62.2667 10.7067 61.9633 10.44 61.73 10.14V11.09H57.9V8.79H58.51V2.49H57.9V0.2H61.73V4.26C61.9633 3.96 62.2667 3.69333 62.64 3.46C63.0067 3.22667 63.4267 3.11 63.9 3.11C64.8533 3.11 65.57 3.46333 66.05 4.17C66.53 4.88333 66.77 5.89333 66.77 7.2C66.77 8.50667 66.53 9.51333 66.05 10.22C65.57 10.9333 64.8533 11.29 63.9 11.29ZM62.55 8.79C62.8167 8.79 63.02 8.72 63.16 8.58C63.2933 8.43333 63.36 8.20667 63.36 7.9V6.5C63.36 6.19333 63.2933 5.96667 63.16 5.82C63.02 5.67333 62.8167 5.6 62.55 5.6C62.2767 5.6 62.0733 5.67333 61.94 5.82C61.8 5.96667 61.73 6.19333 61.73 6.5V7.9C61.73 8.20667 61.8 8.43333 61.94 8.58C62.0733 8.72 62.2767 8.79 62.55 8.79ZM76.66 11.29C74.9533 11.29 73.6333 10.84 72.7 9.94C71.7733 9.04667 71.31 7.61333 71.31 5.64C71.31 3.67333 71.7733 2.24333 72.7 1.35C73.6333 0.45 74.9533 0 76.66 0C78.3667 0 79.6833 0.45 80.61 1.35C81.5433 2.24333 82.01 3.67333 82.01 5.64C82.01 7.61333 81.5433 9.04667 80.61 9.94C79.6833 10.84 78.3667 11.29 76.66 11.29ZM76.66 8.79C76.9733 8.79 77.21 8.70667 77.37 8.54C77.53 8.37333 77.61 8.11333 77.61 7.76V3.53C77.61 3.17667 77.53 2.91667 77.37 2.75C77.21 2.57667 76.9733 2.49 76.66 2.49C76.34 2.49 76.1 2.57667 75.94 2.75C75.7867 2.91667 75.71 3.17667 75.71 3.53V7.76C75.71 8.12 75.7867 8.38333 75.94 8.55C76.1 8.71 76.34 8.79 76.66 8.79ZM91.13 8.79H91.75V11.09H87.33V8.79H87.91V6.5C87.91 6.19333 87.8467 5.96667 87.72 5.82C87.5867 5.67333 87.39 5.6 87.13 5.6C86.57 5.6 86.29 5.9 86.29 6.5V8.79H86.88V11.09H82.45V8.79H83.07V5.6H82.45V3.31H86.29V4.4C86.9633 3.54 87.8033 3.11 88.81 3.11C89.5833 3.11 90.1633 3.35333 90.55 3.84C90.9367 4.32667 91.13 4.99333 91.13 5.84V8.79ZM96.37 11.29C95.0433 11.29 94.0067 10.94 93.26 10.24C92.5133 9.54667 92.14 8.53333 92.14 7.2C92.14 5.86667 92.5133 4.85 93.26 4.15C94.0067 3.45667 95.0433 3.11 96.37 3.11C97.6833 3.11 98.6333 3.45333 99.22 4.14C99.8 4.82667 100.09 5.67667 100.09 6.69V7.7H95.56V7.79C95.56 8.13 95.6633 8.38333 95.87 8.55C96.07 8.71 96.41 8.79 96.89 8.79C97.4567 8.79 97.9967 8.75 98.51 8.67C99.0233 8.58333 99.4733 8.47667 99.86 8.35V10.59C99.5333 10.7633 99.0533 10.9233 98.42 11.07C97.7933 11.2167 97.11 11.29 96.37 11.29ZM95.56 6.16H97.18V5.99C97.18 5.67667 97.1133 5.45 96.98 5.31C96.8467 5.17 96.6433 5.1 96.37 5.1C96.0967 5.1 95.8933 5.17 95.76 5.31C95.6267 5.45667 95.56 5.68333 95.56 5.99V6.16Z" fill="black"/>
</svg>
