<svg width="85.778" height="17.556" viewBox="0 0 85.778 17.556" xmlns="http://www.w3.org/2000/svg"><path transform="translate(0 13.776) scale(.014 -.014)" d="m283 632 19 88 49 8 140-370 129-308 84-20-5-40-122 10-152-10 2 40 82 20-70 190-121 4-115-4-65-190 76-20-5-40-122 10-92-10 2 40 78 20 118 307zm29-35-91-302 97-4 101 4-64 160-41 142z"/><path transform="translate(9.576 13.776) scale(.014 -.014)" d="m18-5 2 35 66 20 5 105 4 219-6 223-5 100-71-3-5 35 138 27 50-11-7-132-6-350 3-97 8-116 73-20-5-35-122 5z"/><path transform="translate(13.482 13.776) scale(.014 -.014)" d="m199 363-6-100 3-97 4-116 73-20-5-35-118 5-122-5 2 35 66 20 5 105-2 192-5 104-71-3-5 35 138 27 50-11zm-111 362 45 21 46-15 21-52-27-42-45-18-42 26-21 43z"/><path transform="translate(17.542 13.776) scale(.014 -.014)" d="m319 392 46 67-67 11 5 35 105-5 92 5-2-35-70-22-143-154 83-117 103-127 59-20-5-35-104 5-95-5 2 35 48 3-27 50-116 154h-49l2-71 2-116 69-20-6-35-111 5-128-5 4 35 70 17 3 108 4 219-4 223-5 100-71-3-5 35 138 27 50-11-7-132-6-337h31z"/><path transform="translate(25.06 13.776) scale(.014 -.014)" d="m139 269-1-9 27-141 79-78 92-10 94 50 18-26-79-63-94-12-98 23-85 71-51 150 17 134 52 94 105 58 88 11 70-22 54-49 31-89 1-83-14-11-133-9zm50 162-39-76-6-45 152-2 69 15-6 93-30 51-64 9z"/><path transform="translate(35.308 13.776) scale(.014 -.014)" d="m283 632 19 88 49 8 140-370 129-308 84-20-5-40-122 10-152-10 2 40 82 20-70 190-121 4-115-4-65-190 76-20-5-40-122 10-92-10 2 40 78 20 118 307zm29-35-91-302 97-4 101 4-64 160-41 142z"/><path transform="translate(44.884 13.776) scale(.014 -.014)" d="m525 49 71-19-5-35-118 5-122-5 2 35 66 20 7 105-4 218-27 66-85 15-109-56-2-35-6-100 2-97 5-116 73-20-5-35-118 5-122-5 2 35 66 20 7 105-9 296-71-3-5 35 138 27 50-11-3-51 107 65 102 7 92-63 15-80-2-211z"/><path transform="translate(53.326 13.776) scale(.014 -.014)" d="m488 574 32-67-42-26-83-11 70-86-1-97-56-83-122-40-106 15-18-26-4-28 28-18 172-27 67-15 67-48 8-119-46-69-112-51-158-5-69 21-57 50-21 72 30 87 68 32-36 34v69l45 53-85 66-10 127 83 96 127 30 101-20zm-257-367 82 11 53 57 8 98-44 75-73 22-96-40-28-88 32-99zm54-201-116 16-45-49-6-74 45-65 113-17 119 45 29 97z"/><path transform="translate(60.634 13.776) scale(.014 -.014)" d="m183 345v-218l27-66 84-11 109 65v106l-1 125-5 104-71-3-5 35 138 27 50-11-7-136-1-80 2-61v-180l70-20-5-35h-137l-23 84-113-83-102-7-92 63-15 80 1 214-10 114-71-3-5 35 138 27 50-11z"/><path transform="translate(68.894 13.776) scale(.014 -.014)" d="m18-5 2 35 66 20 5 105 4 219-6 223-5 100-71-3-5 35 138 27 50-11-7-132-6-350 3-97 8-116 73-20-5-35-122 5z"/><path transform="translate(72.8 13.776) scale(.014 -.014)" d="m409 182 7-141 69-10-7-33-139-12-13 59h-5l-99-59h-104l-70 51-21 98 44 78 120 52 132 5-4 125-19 62-81 23-97-23-3-106-39-8-26 137 115 34 129 6 78-38 32-86zm-258-126 75-19 101 58-4 135h-87l-77-31-35-62z"/><path transform="translate(79.744 13.776) scale(.014 -.014)" d="m202 418h4l62 71 68 30 75-19-17-149-35 7-25 103-65-21-71-83-5-94 3-97 4-116 100-20-5-35-145 5-122-5 2 35 66 20 5 105-2 192-5 104-71-3-5 35 138 27 50-11z"/></svg>