<svg width="45" height="10" viewBox="0 0 45 10" fill="none" xmlns="http://www.w3.org/2000/svg">
<path d="M0.88 9.94C0.626667 9.94 0.5 9.86 0.5 9.7C0.5 9.62667 0.536667 9.50333 0.61 9.33L4.77 0.95C4.83667 0.81 4.97333 0.67 5.18 0.53C5.38 0.39 5.62667 0.27 5.92 0.17C6.20667 0.0699996 6.50333 0.02 6.81 0.02C6.89 0.02 6.96333 0.043333 7.03 0.0899997C7.10333 0.136666 7.15333 0.25 7.18 0.43C7.34 1.50333 7.53 2.58 7.75 3.66C7.97667 4.74667 8.23333 5.80667 8.52 6.84C8.65333 7.28 8.76667 7.63667 8.86 7.91C8.95333 8.17667 9.04667 8.38 9.14 8.52C9.24 8.66 9.33 8.77667 9.41 8.87C9.49 8.95667 9.53 9.04 9.53 9.12C9.53 9.21333 9.47667 9.30667 9.37 9.4C9.26333 9.49333 9.13 9.58 8.97 9.66C8.81 9.73333 8.64667 9.79333 8.48 9.84C8.31333 9.88667 8.17 9.91 8.05 9.91C7.84333 9.91 7.63333 9.72667 7.42 9.36C7.2 8.98667 6.99 8.32 6.79 7.36L5.57 1.52L5.83 1.35L3.1 7.09C2.98 7.35667 2.89667 7.57667 2.85 7.75C2.79667 7.93 2.76333 8.09 2.75 8.23C2.74333 8.37667 2.72667 8.54333 2.7 8.73C2.68 8.91 2.59 9.07 2.43 9.21C2.27 9.35667 2.08667 9.48333 1.88 9.59C1.66667 9.69667 1.46667 9.78333 1.28 9.85C1.09333 9.91 0.96 9.94 0.88 9.94ZM7.85 7.08H2.64V6.03H7.85V7.08ZM11.92 9.94H10.94C10.7733 9.94 10.6433 9.83667 10.55 9.63C10.4567 9.42333 10.4167 9.18333 10.43 8.91C10.4367 8.59667 10.4633 8.22 10.51 7.78C10.5567 7.34 10.6033 6.90667 10.65 6.48L11.04 3.17C11.1 2.75 11.1133 2.37667 11.08 2.05C11.0533 1.72333 11.0167 1.43667 10.97 1.19C10.9233 0.936666 10.9 0.72 10.9 0.54C10.9 0.44 10.9833 0.35 11.15 0.27C11.31 0.19 11.4967 0.123333 11.71 0.0699997C11.93 0.023333 12.1133 0 12.26 0C12.42 0 12.56 0.113333 12.68 0.34C12.8 0.566666 12.86 0.83 12.86 1.13C12.86 1.19667 12.85 1.38 12.83 1.68C12.8167 1.97333 12.78 2.31333 12.72 2.7L12.27 5.92C12.1767 6.59333 12.1133 7.26333 12.08 7.93C12.04 8.59667 11.9867 9.26667 11.92 9.94ZM18.62 9.89C18.4133 9.89 18.2033 9.79333 17.99 9.6C17.77 9.40667 17.56 9.14667 17.36 8.82C17.1533 8.5 16.9567 8.14333 16.77 7.75C16.59 7.35667 16.4367 6.96 16.31 6.56C16.27 6.44667 16.2267 6.31333 16.18 6.16C16.1333 6 16.11 5.84333 16.11 5.69C16.11 5.59 16.1267 5.49667 16.16 5.41C16.1933 5.31667 16.2433 5.22 16.31 5.12C16.4967 4.82 16.72 4.53667 16.98 4.27C17.2467 3.99667 17.54 3.75333 17.86 3.54C18.18 3.33333 18.5067 3.17 18.84 3.05C19.1733 2.93667 19.5 2.88 19.82 2.88C20.0733 2.88 20.24 2.94 20.32 3.06C20.4 3.18 20.44 3.35 20.44 3.57C20.44 3.77 20.4133 3.95 20.36 4.11C20.3067 4.26333 20.2433 4.38 20.17 4.46C20.0967 4.54667 20.0267 4.59 19.96 4.59C19.84 4.59 19.7 4.55333 19.54 4.48C19.38 4.4 19.19 4.36 18.97 4.36C18.5833 4.36 18.23 4.48667 17.91 4.74C17.59 4.98667 17.34 5.25667 17.16 5.55L17.3 4.95C17.7 6.02333 18.07 6.83 18.41 7.37C18.7433 7.91667 19.03 8.31333 19.27 8.56C19.43 8.72 19.57 8.83 19.69 8.89C19.8167 8.95 19.88 9.02667 19.88 9.12C19.88 9.24667 19.8 9.36667 19.64 9.48C19.4867 9.6 19.3133 9.7 19.12 9.78C18.9267 9.85333 18.76 9.89 18.62 9.89ZM15.35 9.94H14.37C14.2033 9.94 14.0733 9.83667 13.98 9.63C13.8867 9.42333 13.8467 9.18333 13.86 8.91C13.8667 8.59667 13.8933 8.22 13.94 7.78C13.9867 7.34 14.0333 6.90667 14.08 6.48L14.47 3.17C14.53 2.75 14.5433 2.37667 14.51 2.05C14.4833 1.72333 14.4467 1.43667 14.4 1.19C14.3533 0.936666 14.33 0.72 14.33 0.54C14.33 0.44 14.4133 0.35 14.58 0.27C14.74 0.19 14.9267 0.123333 15.14 0.0699997C15.36 0.023333 15.5433 0 15.69 0C15.85 0 15.99 0.113333 16.11 0.34C16.23 0.566666 16.29 0.83 16.29 1.13C16.29 1.19667 16.28 1.38 16.26 1.68C16.2467 1.97333 16.21 2.31333 16.15 2.7L15.7 5.92C15.6067 6.59333 15.5433 7.26333 15.51 7.93C15.47 8.59667 15.4167 9.26667 15.35 9.94ZM21.88 9.96C21.3533 9.96 20.98 9.75 20.76 9.33C20.5333 8.90333 20.42 8.30667 20.42 7.54C20.42 6.86 20.52 6.23667 20.72 5.67C20.92 5.09667 21.1933 4.60333 21.54 4.19C21.8867 3.77667 22.29 3.45333 22.75 3.22C23.2033 2.99333 23.6867 2.88 24.2 2.88C24.6 2.88 24.9667 2.93333 25.3 3.04C25.6333 3.14667 25.9167 3.25667 26.15 3.37L25.74 4.84C25.4867 4.67333 25.2033 4.52 24.89 4.38C24.5833 4.24 24.2967 4.13 24.03 4.05C23.7633 3.97 23.5633 3.93 23.43 3.93C23.17 3.93 22.93 4.05667 22.71 4.31C22.49 4.57 22.3167 4.92667 22.19 5.38C22.0633 5.83333 22 6.35333 22 6.94C22 7.48 22.04 7.89 22.12 8.17C22.2 8.45 22.33 8.59 22.51 8.59C22.63 8.59 22.8333 8.45333 23.12 8.18C23.4133 7.90667 23.7633 7.44667 24.17 6.8C24.5833 6.15333 25.02 5.28 25.48 4.18L25.87 5.43C25.3633 6.55 24.8833 7.44 24.43 8.1C23.97 8.76667 23.53 9.24333 23.11 9.53C22.69 9.81667 22.28 9.96 21.88 9.96ZM26.2 9.88H25.22C25.0333 9.88 24.9233 9.79 24.89 9.61C24.85 9.42333 24.83 9.23 24.83 9.03C24.83 8.87 24.85 8.67333 24.89 8.44C24.9367 8.20667 24.9933 7.95333 25.06 7.68C25.12 7.41333 25.19 7.14667 25.27 6.88L25.57 5.83L25.17 5.47L25.5 3.36C25.8 3.31333 26.0633 3.25 26.29 3.17C26.5233 3.09667 26.7167 3.03333 26.87 2.98C27.0233 2.92 27.1333 2.89 27.2 2.89C27.3 2.89 27.35 2.94667 27.35 3.06C27.35 3.10667 27.2933 3.30667 27.18 3.66C27.06 4.00667 26.9333 4.45 26.8 4.99C26.6667 5.53667 26.5667 6.12667 26.5 6.76L26.2 9.88ZM29.41 9.96C28.9633 9.96 28.6467 9.83 28.46 9.57C28.28 9.31 28.2233 8.9 28.29 8.34L28.84 4.07H28.39C28.25 4.07 28.18 3.99667 28.18 3.85C28.18 3.75667 28.2433 3.62 28.37 3.44C28.4967 3.26 28.6567 3.06333 28.85 2.85C29.0433 2.63667 29.2467 2.43333 29.46 2.24C29.6667 2.04 29.86 1.87667 30.04 1.75C30.22 1.62333 30.3567 1.56 30.45 1.56C30.55 1.56 30.62 1.6 30.66 1.68C30.6933 1.76 30.7 1.86 30.68 1.98L30.56 3.09H32.13C32.27 3.09 32.35 3.11333 32.37 3.16C32.3967 3.20667 32.39 3.28 32.35 3.38C32.2367 3.7 32.13 3.89333 32.03 3.96C31.9367 4.03333 31.76 4.07 31.5 4.07H30.38L30.03 7.07C30.01 7.24333 29.9933 7.41 29.98 7.57C29.9667 7.73 29.96 7.87333 29.96 8C29.96 8.22 30.01 8.37333 30.11 8.46C30.21 8.54667 30.3767 8.59 30.61 8.59C30.8367 8.59 31.03 8.54333 31.19 8.45C31.3567 8.35667 31.4733 8.31 31.54 8.31C31.6133 8.31 31.65 8.35667 31.65 8.45C31.65 8.54333 31.6 8.67333 31.5 8.84C31.4067 9.01333 31.2633 9.18667 31.07 9.36C30.8767 9.52667 30.64 9.67 30.36 9.79C30.08 9.90333 29.7633 9.96 29.41 9.96ZM34.32 9.4L33.99 7.29C34.3367 6.39667 34.6867 5.62 35.04 4.96C35.4 4.3 35.7667 3.79 36.14 3.43C36.5133 3.06333 36.8933 2.88 37.28 2.88C37.4933 2.88 37.6467 2.94667 37.74 3.08C37.8333 3.22 37.88 3.39 37.88 3.59C37.88 3.77667 37.86 3.95667 37.82 4.13C37.7733 4.30333 37.71 4.44667 37.63 4.56C37.5567 4.67333 37.4633 4.73 37.35 4.73C37.2433 4.73 37.1267 4.69667 37 4.63C36.88 4.56333 36.71 4.53 36.49 4.53C36.35 4.53 36.1733 4.67667 35.96 4.97C35.7467 5.25667 35.5267 5.64 35.3 6.12C35.0667 6.6 34.8633 7.12667 34.69 7.7C34.51 8.27333 34.3867 8.84 34.32 9.4ZM33.15 9.94C33.03 9.94 32.9367 9.91667 32.87 9.87C32.81 9.83 32.78 9.72 32.78 9.54C32.7733 9.36667 32.7933 9.08333 32.84 8.69L33.5 2.87H34.48C34.62 2.87 34.7467 2.97 34.86 3.17C34.9667 3.37667 35.02 3.61 35.02 3.87C35.02 3.99667 34.9867 4.18667 34.92 4.44C34.8467 4.7 34.7633 4.97 34.67 5.25C34.5767 5.53667 34.4933 5.78667 34.42 6L34.06 7.15L34.58 7.07L34.32 9.4C34.3133 9.49333 34.26 9.57667 34.16 9.65C34.0533 9.71667 33.9333 9.77333 33.8 9.82C33.6667 9.86 33.5367 9.89 33.41 9.91C33.29 9.93 33.2033 9.94 33.15 9.94ZM39.11 9.96C38.59 9.96 38.2167 9.75 37.99 9.33C37.77 8.90333 37.66 8.30667 37.66 7.54C37.66 6.86 37.76 6.23667 37.96 5.67C38.16 5.09667 38.4333 4.60333 38.78 4.19C39.12 3.77667 39.52 3.45333 39.98 3.22C40.44 2.99333 40.9267 2.88 41.44 2.88C41.84 2.88 42.2033 2.93333 42.53 3.04C42.8633 3.14667 43.1467 3.25667 43.38 3.37L42.98 4.84C42.7267 4.67333 42.4433 4.52 42.13 4.38C41.8167 4.24 41.5267 4.13 41.26 4.05C40.9933 3.97 40.7967 3.93 40.67 3.93C40.4033 3.93 40.16 4.05667 39.94 4.31C39.7267 4.57 39.5567 4.92667 39.43 5.38C39.3033 5.83333 39.24 6.35333 39.24 6.94C39.24 7.48 39.28 7.89 39.36 8.17C39.44 8.45 39.5667 8.59 39.74 8.59C39.86 8.59 40.0667 8.45333 40.36 8.18C40.6467 7.90667 40.9967 7.44667 41.41 6.8C41.8167 6.15333 42.25 5.28 42.71 4.18L43.1 5.43C42.6 6.55 42.12 7.44 41.66 8.1C41.2 8.76667 40.76 9.24333 40.34 9.53C39.92 9.81667 39.51 9.96 39.11 9.96ZM43.44 9.88H42.46C42.2733 9.88 42.16 9.79 42.12 9.61C42.0867 9.42333 42.07 9.23 42.07 9.03C42.07 8.87 42.09 8.67333 42.13 8.44C42.17 8.20667 42.2233 7.95333 42.29 7.68C42.3567 7.41333 42.4267 7.14667 42.5 6.88L42.81 5.83L42.4 5.47L42.74 3.36C43.04 3.31333 43.3033 3.25 43.53 3.17C43.7567 3.09667 43.9467 3.03333 44.1 2.98C44.2533 2.92 44.3633 2.89 44.43 2.89C44.5367 2.89 44.59 2.94667 44.59 3.06C44.59 3.10667 44.53 3.30667 44.41 3.66C44.2967 4.00667 44.17 4.45 44.03 4.99C43.8967 5.53667 43.7967 6.12667 43.73 6.76L43.44 9.88Z" fill="black"/>
</svg>
