<svg width="30" height="12" viewBox="0 0 30 12" fill="none" xmlns="http://www.w3.org/2000/svg">
<path d="M2.06 11.06C1.56667 11.06 1.18333 10.9167 0.91 10.63C0.636667 10.3367 0.5 9.94333 0.5 9.45C0.5 9.33 0.506667 9.21333 0.52 9.1C0.533333 8.98667 0.55 8.88333 0.57 8.79C0.736667 7.99667 1.16 7.08667 1.84 6.06C2.28667 5.37333 2.79 4.75 3.35 4.19C3.90333 3.63 4.47667 3.18 5.07 2.84C5.66333 2.50667 6.23333 2.34 6.78 2.34C7.1 2.34 7.33333 2.42667 7.48 2.6C7.63333 2.77333 7.71 3.00333 7.71 3.29C7.71 3.62333 7.62333 4.01 7.45 4.45C7.27667 4.89 7.06 5.30333 6.8 5.69C6.54667 6.07667 6.29667 6.36 6.05 6.54C6.01667 6.57333 5.97667 6.59 5.93 6.59C5.89 6.59 5.87 6.56667 5.87 6.52C5.87 6.42 5.93667 6.32 6.07 6.22C6.19 6.13333 6.32333 5.98333 6.47 5.77C6.61 5.56333 6.75 5.33 6.89 5.07C7.02333 4.81 7.13333 4.54667 7.22 4.28C7.31333 4.02 7.36 3.79667 7.36 3.61C7.36 3.16333 7.13333 2.94 6.68 2.94C5.83333 2.94 5.01333 3.26667 4.22 3.92C3.68667 4.34667 3.20333 4.84667 2.77 5.42C2.33667 6 1.96667 6.58667 1.66 7.18C1.36 7.78 1.14 8.34667 1 8.88C0.946667 9.08 0.92 9.28333 0.92 9.49C0.92 9.89 1.03333 10.2067 1.26 10.44C1.48667 10.6733 1.79667 10.7733 2.19 10.74C2.91 10.6733 3.70333 10.3867 4.57 9.88C5.13667 9.54667 5.68667 9.17 6.22 8.75C6.75333 8.33 7.25 7.89 7.71 7.43C8.16333 6.96333 8.56 6.51667 8.9 6.09L8.22 6.19C8.02 6.21667 7.85 6.24667 7.71 6.28C7.57667 6.31333 7.48667 6.34 7.44 6.36C7.42 6.36667 7.39667 6.37 7.37 6.37C7.31667 6.37 7.29 6.32667 7.29 6.24C7.29 6.16 7.32 6.06333 7.38 5.95C7.44 5.83667 7.50667 5.76333 7.58 5.73C7.83333 5.59667 8.43667 5.49667 9.39 5.43C9.79667 4.96333 10.22 4.49667 10.66 4.03C11.1267 3.53 11.52 3.1 11.84 2.74C12.1533 2.38667 12.4333 2.06 12.68 1.76C12.9267 1.45333 13.1667 1.13667 13.4 0.81C13.48 0.71 13.5567 0.66 13.63 0.66C13.6833 0.66 13.71 0.686667 13.71 0.74C13.71 0.8 13.6933 0.846667 13.66 0.88C13.34 1.32667 13.0067 1.76667 12.66 2.2C12.3133 2.62667 11.9333 3.08 11.52 3.56C11.1067 4.04 10.6367 4.58333 10.11 5.19L9.93 5.4L10.58 5.38L11.81 5.33C11.7967 5.35 11.8367 5.26667 11.93 5.08C12.0233 4.88667 12.1633 4.59 12.35 4.19C12.6167 3.64333 12.85 3.16 13.05 2.74C13.25 2.31333 13.4133 1.94667 13.54 1.64C13.8133 1.03333 13.9533 0.613333 13.96 0.38C13.9733 0.26 14.0367 0.166667 14.15 0.0999999C14.2567 0.0333332 14.38 0 14.52 0C14.6267 0 14.7233 0.0166669 14.81 0.0500002C14.8967 0.0833335 14.95 0.123333 14.97 0.17C15.0167 0.25 14.9467 0.473333 14.76 0.84C14.64 1.09333 14.49 1.38333 14.31 1.71C14.1367 2.03667 13.9367 2.4 13.71 2.8C13.4033 3.35333 13.14 3.84 12.92 4.26C12.7 4.68 12.5267 5.03333 12.4 5.32L13.47 5.26H13.52C13.6 5.26 13.64 5.29 13.64 5.35C13.64 5.38333 13.6167 5.42 13.57 5.46C13.5233 5.5 13.4633 5.52333 13.39 5.53L12.26 5.61C12.2467 5.63 12.1933 5.74333 12.1 5.95C12.0067 6.15667 11.8733 6.45 11.7 6.83C11.34 7.61667 11.16 8.28333 11.16 8.83C11.16 9.20333 11.3 9.39 11.58 9.39C11.66 9.39 11.7633 9.35667 11.89 9.29C12.01 9.21667 12.13 9.13333 12.25 9.04C12.3633 8.94667 12.45 8.86333 12.51 8.79C12.5767 8.69667 12.64 8.65 12.7 8.65C12.74 8.65 12.76 8.67 12.76 8.71C12.76 8.75667 12.7233 8.81667 12.65 8.89C12.5567 8.99 12.4333 9.10667 12.28 9.24C12.1333 9.37333 11.9867 9.48667 11.84 9.58C11.6867 9.67333 11.56 9.72333 11.46 9.73C10.86 9.77 10.56 9.5 10.56 8.92C10.56 8.57333 10.6467 8.17667 10.82 7.73C10.9933 7.28333 11.21 6.76 11.47 6.16L11.7 5.66C11.38 5.68667 10.9433 5.75667 10.39 5.87C10.1967 5.90333 10.0233 5.93333 9.87 5.96C9.71667 5.98 9.58667 6 9.48 6.02C8.93333 6.64667 8.34333 7.25667 7.71 7.85C7.07 8.45 6.42333 8.99333 5.77 9.48C5.11 9.96667 4.46333 10.35 3.83 10.63C3.20333 10.9167 2.61333 11.06 2.06 11.06ZM13.01 9.88C12.91 9.88 12.8233 9.85 12.75 9.79C12.6833 9.72333 12.6533 9.64333 12.66 9.55C12.68 9.16333 12.7533 8.79333 12.88 8.44C13.0067 8.08667 13.19 7.66333 13.43 7.17C13.4567 7.10333 13.4833 7.04333 13.51 6.99C13.53 6.94333 13.55 6.9 13.57 6.86C13.7767 6.42 13.9867 6 14.2 5.6C14.4133 5.2 14.63 4.80667 14.85 4.42L15.04 4.07C15.2667 3.67 15.4633 3.34667 15.63 3.1C15.7967 2.85333 15.9633 2.67333 16.13 2.56C16.35 2.43333 16.4833 2.37 16.53 2.37C16.6033 2.37 16.6767 2.43333 16.75 2.56C16.7967 2.65333 16.7033 2.88333 16.47 3.25C16.35 3.43667 16.2 3.67 16.02 3.95C15.8333 4.23 15.6133 4.54667 15.36 4.9C15.3133 4.96667 15.2367 5.08 15.13 5.24C15.0233 5.40667 14.8833 5.62 14.71 5.88C14.53 6.14 14.3733 6.37667 14.24 6.59C14.1133 6.79667 14.0067 6.98 13.92 7.14C13.7533 7.44667 13.5967 7.77667 13.45 8.13C13.2967 8.47667 13.22 8.75 13.22 8.95C13.22 9.12333 13.29 9.21 13.43 9.21C13.6567 9.21 14.0167 9.02 14.51 8.64C14.5633 8.64667 14.59 8.67333 14.59 8.72C14.59 8.76 14.5433 8.82667 14.45 8.92C14.37 9 14.2667 9.09 14.14 9.19C14.0133 9.29 13.8667 9.40333 13.7 9.53L13.47 9.7C13.3233 9.82 13.17 9.88 13.01 9.88ZM15.17 9.88C15.0633 9.88 14.9767 9.85 14.91 9.79C14.8367 9.72333 14.8067 9.64333 14.82 9.55C14.84 9.16333 14.91 8.79333 15.03 8.44C15.1567 8.08667 15.3433 7.66333 15.59 7.17C15.6167 7.10333 15.6433 7.04333 15.67 6.99C15.69 6.94333 15.71 6.9 15.73 6.86C15.9367 6.42 16.1467 6 16.36 5.6C16.5733 5.2 16.7867 4.80667 17 4.42L17.2 4.07C17.42 3.67 17.6167 3.34667 17.79 3.1C17.9567 2.85333 18.1233 2.67333 18.29 2.56C18.5033 2.43333 18.6333 2.37 18.68 2.37C18.7533 2.37 18.83 2.43333 18.91 2.56C18.9567 2.65333 18.8633 2.88333 18.63 3.25C18.5033 3.43667 18.35 3.67 18.17 3.95C17.99 4.23 17.7733 4.54667 17.52 4.9C17.4733 4.96667 17.3967 5.08 17.29 5.24C17.1833 5.40667 17.04 5.62 16.86 5.88C16.6867 6.14 16.5333 6.37667 16.4 6.59C16.2667 6.79667 16.16 6.98 16.08 7.14C15.9133 7.44667 15.7533 7.77667 15.6 8.13C15.4533 8.47667 15.38 8.75 15.38 8.95C15.38 9.12333 15.45 9.21 15.59 9.21C15.81 9.21 16.17 9.02 16.67 8.64C16.7233 8.64667 16.75 8.67333 16.75 8.72C16.75 8.76 16.7033 8.82667 16.61 8.92C16.5233 9 16.4167 9.09 16.29 9.19C16.17 9.29 16.0233 9.40333 15.85 9.53L15.63 9.7C15.4833 9.82 15.33 9.88 15.17 9.88ZM18.72 5.89C18.6 5.89 18.54 5.86333 18.54 5.81C18.54 5.76333 18.5767 5.69667 18.65 5.61C18.7167 5.51667 18.7967 5.44 18.89 5.38C19.0967 5.24667 19.26 5.13333 19.38 5.04C19.4933 4.94667 19.6333 4.78667 19.8 4.56C19.8133 4.58 19.82 4.62 19.82 4.68C19.82 4.8 19.77 4.94667 19.67 5.12C19.57 5.29333 19.46 5.45 19.34 5.59C19.22 5.73 19.1133 5.81667 19.02 5.85C18.9333 5.87667 18.8333 5.89 18.72 5.89ZM17.48 9.32C17.4067 9.32 17.3367 9.29333 17.27 9.24C17.2033 9.18667 17.17 9.11333 17.17 9.02C17.17 8.82 17.3067 8.46 17.58 7.94L17.73 7.63C17.75 7.61 17.7767 7.56333 17.81 7.49C17.8433 7.41667 17.89 7.32 17.95 7.2C18.0167 7.06667 18.07 6.95 18.11 6.85C18.1433 6.74333 18.17 6.64333 18.19 6.55C18.19 6.54333 18.21 6.52667 18.25 6.5C18.2833 6.46667 18.32 6.44333 18.36 6.43L18.44 6.41C18.52 6.41 18.5833 6.42333 18.63 6.45C18.6833 6.48333 18.7 6.52333 18.68 6.57C18.6133 6.71 18.5567 6.83 18.51 6.93C18.4633 7.03 18.4267 7.12 18.4 7.2H18.39C18.2833 7.43333 18.1967 7.65333 18.13 7.86C18.0567 8.07333 18.0267 8.27333 18.04 8.46L18.05 8.83C18.0433 8.92333 18.01 9.00333 17.95 9.07C17.9167 9.09667 17.8667 9.13333 17.8 9.18C17.7333 9.22 17.65 9.26333 17.55 9.31C17.5367 9.31667 17.5133 9.32 17.48 9.32ZM18.44 9.55C18.2933 9.55 18.1633 9.53667 18.05 9.51C17.95 9.47667 17.9 9.43667 17.9 9.39C17.9 9.31667 17.9733 9.27667 18.12 9.27C18.26 9.25667 18.3533 9.24333 18.4 9.23C18.4867 9.21 18.5867 9.19333 18.7 9.18C18.8 9.16667 18.8833 9.15333 18.95 9.14C19.3967 9.01333 19.62 8.81333 19.62 8.54C19.62 8.35333 19.5233 8.11667 19.33 7.83C19.2033 7.65 19.14 7.45333 19.14 7.24C19.14 6.98 19.2233 6.72333 19.39 6.47C19.55 6.21667 19.7567 5.99333 20.01 5.8C20.2567 5.61333 20.5033 5.48667 20.75 5.42C20.8633 5.39333 20.98 5.38 21.1 5.38C21.3 5.38 21.44 5.42667 21.52 5.52C21.58 5.57333 21.61 5.69333 21.61 5.88C21.61 6.02 21.5867 6.16333 21.54 6.31C21.4933 6.45 21.4267 6.56667 21.34 6.66C21.2933 6.70667 21.2567 6.73 21.23 6.73C21.1833 6.73 21.16 6.66667 21.16 6.54L21.17 6.26C21.1833 6.18667 21.1933 6.12 21.2 6.06C21.2 6.00667 21.2 5.96 21.2 5.92C21.2 5.76 21.1667 5.66667 21.1 5.64C21.0267 5.62 20.9767 5.61 20.95 5.61C20.7567 5.61 20.5467 5.7 20.32 5.88C20.0933 6.06 19.91 6.26667 19.77 6.5C19.7167 6.58 19.69 6.68 19.69 6.8C19.69 6.95333 19.73 7.13 19.81 7.33C19.89 7.53 19.9467 7.67667 19.98 7.77C20.0733 7.97667 20.1467 8.15333 20.2 8.3C20.2533 8.45333 20.28 8.58333 20.28 8.69C20.28 8.75 20.2733 8.79333 20.26 8.82C20.3067 8.8 20.42 8.77333 20.6 8.74C20.76 8.7 20.8967 8.68 21.01 8.68C21.07 8.68 21.1 8.69333 21.1 8.72C21.1 8.73333 21.0733 8.76667 21.02 8.82C20.9933 8.84667 20.9067 8.89 20.76 8.95C20.6133 9.01 20.4467 9.07333 20.26 9.14C20.0667 9.20667 19.8767 9.26667 19.69 9.32C19.5033 9.38 19.3433 9.42333 19.21 9.45C18.99 9.51667 18.7333 9.55 18.44 9.55ZM21.96 9.2C21.5933 9.2 21.41 9.03667 21.41 8.71C21.41 8.69 21.4133 8.65667 21.42 8.61C21.4267 8.56333 21.4333 8.50667 21.44 8.44C21.5333 8.06 21.7233 7.69 22.01 7.33C22.29 6.97 22.6167 6.65333 22.99 6.38C23.13 6.27333 23.3567 6.22 23.67 6.22C23.8433 6.22 24 6.24333 24.14 6.29C24.2733 6.34333 24.3667 6.42 24.42 6.52C24.48 6.61333 24.51 6.72333 24.51 6.85C24.51 6.86333 24.5067 6.89 24.5 6.93C24.4933 6.97 24.4867 7.01333 24.48 7.06C24.5 7.04667 24.53 7.04 24.57 7.04C24.61 7.04 24.6633 7.03667 24.73 7.03C24.7967 7.01667 24.86 7.00667 24.92 7C24.98 6.99333 25.0433 6.99 25.11 6.99H25.16C25.2667 6.99 25.28 7.02667 25.2 7.1C25.12 7.18 25.0133 7.23 24.88 7.25L24.41 7.31C24.3167 7.57 24.1567 7.83 23.93 8.09C23.6967 8.35 23.4433 8.57667 23.17 8.77C22.8967 8.96333 22.6367 9.08667 22.39 9.14C22.25 9.18 22.1067 9.2 21.96 9.2ZM23.75 7.11C23.8033 7.11 23.87 7.10667 23.95 7.1C24.03 7.1 24.1233 7.09333 24.23 7.08C24.2367 7.06667 24.24 7.02667 24.24 6.96C24.24 6.79333 24.17 6.67667 24.03 6.61C23.9567 6.56333 23.8633 6.54 23.75 6.54C23.61 6.54 23.4667 6.58333 23.32 6.67C23.18 6.75667 23.03 6.87 22.87 7.01C23.0633 7.07667 23.3567 7.11 23.75 7.11ZM22.38 8.71C22.4733 8.71 22.6067 8.66667 22.78 8.58C22.9533 8.48667 23.1333 8.36667 23.32 8.22C23.5067 8.06667 23.6733 7.90667 23.82 7.74C23.8667 7.69333 23.9133 7.63667 23.96 7.57C24.0067 7.49667 24.0567 7.42333 24.11 7.35L23.78 7.39C23.2533 7.46333 22.7867 7.50667 22.38 7.52C22.1733 7.85333 22.0467 8.13333 22 8.36C21.9933 8.48 22.0267 8.56667 22.1 8.62C22.1733 8.68 22.2667 8.71 22.38 8.71ZM24.87 9.18C24.7033 9.18 24.62 9.11667 24.62 8.99C24.62 8.90333 24.65 8.79667 24.71 8.67C24.77 8.53667 24.8333 8.41 24.9 8.29C25.0733 7.97 25.2367 7.66 25.39 7.36C25.5367 7.06667 25.68 6.75 25.82 6.41C25.8867 6.26333 25.9867 6.19 26.12 6.19C26.26 6.19 26.3 6.27333 26.24 6.44C26.1867 6.58 26.13 6.70667 26.07 6.82C25.81 7.35333 25.68 7.71333 25.68 7.9C25.68 7.98 25.71 8.03 25.77 8.05C25.8967 7.95 25.9933 7.87333 26.06 7.82C26.1267 7.76667 26.1633 7.73667 26.17 7.73C26.3033 7.62333 26.45 7.50333 26.61 7.37C26.7767 7.23667 26.9567 7.08 27.15 6.9C27.4567 6.62 27.7133 6.48 27.92 6.48C28.1733 6.48 28.28 6.71 28.24 7.17C28.2333 7.34333 28.2333 7.51667 28.24 7.69C28.2533 7.72333 28.26 7.77667 28.26 7.85C28.26 7.91667 28.26 7.99667 28.26 8.09C28.26 8.18333 28.3167 8.23 28.43 8.23C28.5567 8.23 28.6767 8.19333 28.79 8.12L29.1 7.91L29.41 7.71C29.4233 7.70333 29.4533 7.7 29.5 7.7C29.56 7.7 29.56 7.74333 29.5 7.83C28.9133 8.55667 28.43 8.92 28.05 8.92C27.9767 8.92 27.9 8.90667 27.82 8.88C27.76 8.84667 27.7133 8.76333 27.68 8.63C27.6533 8.49667 27.6367 8.35 27.63 8.19C27.63 8.03 27.63 7.91 27.63 7.83L27.64 7.36C27.64 7.16667 27.59 7.07 27.49 7.07C27.2433 7.07 26.6467 7.57 25.7 8.57C25.62 8.66333 25.5033 8.79 25.35 8.95C25.19 9.10333 25.03 9.18 24.87 9.18Z" fill="black"/>
</svg>
