<svg width="107" height="15" viewBox="0 0 107 15" fill="none" xmlns="http://www.w3.org/2000/svg">
<path d="M7.39 10.11V8.07L4.45 8.05L3.82 10.42C3.68 10.9533 3.54333 11.3933 3.41 11.74C3.28333 12.08 3.11333 12.43 2.9 12.79C2.44667 13.4967 1.78333 13.85 0.91 13.85V13.68C1.61 13.68 2.15667 13.4433 2.55 12.97C2.93667 12.5033 3.24667 11.86 3.48 11.04L3.62 10.74L3.6 10.73C3.28 11.4367 2.77333 11.79 2.08 11.79C1.62667 11.79 1.25 11.6367 0.95 11.33C0.65 11.0233 0.5 10.6367 0.5 10.17C0.5 8.65 1.77 7.89 4.31 7.89L5.71 2.59L5.28 2.58C5.24 2.58 5.2 2.58 5.16 2.58C4.64667 2.58 4.23333 2.7 3.92 2.94C3.6 3.17333 3.44 3.48667 3.44 3.88C3.44 4.06667 3.47 4.22 3.53 4.34L3.41 4.43C3.31 4.31667 3.26 4.12333 3.26 3.85C3.26 3.57 3.35667 3.30667 3.55 3.06C3.75 2.81333 4.00333 2.65 4.31 2.57C4.39667 2.55 4.50333 2.53 4.63 2.51V2.48L4.31 2.5C3.41667 2.38667 2.69 2.13 2.13 1.73C1.57 1.33667 1.29 0.766667 1.29 0.02L1.45 0C1.45 0.433333 1.56 0.806667 1.78 1.12C1.99333 1.43333 2.28667 1.67667 2.66 1.85C3.36667 2.19 4.20667 2.37667 5.18 2.41L7.59 2.52V10.11C7.59 10.67 7.48667 11.09 7.28 11.37C7.07333 11.6433 6.72333 11.78 6.23 11.78C5.97667 11.78 5.76667 11.75 5.6 11.69L5.63 11.55C5.83 11.5967 6.01667 11.62 6.19 11.62C6.65667 11.62 6.97333 11.5 7.14 11.26C7.30667 11.02 7.39 10.6367 7.39 10.11ZM4.49 7.89H5.16L7.39 7.9V2.68L5.89 2.61L4.49 7.89ZM0.7 10.17C0.7 10.5767 0.83 10.92 1.09 11.2C1.35 11.48 1.68 11.62 2.08 11.62C2.72667 11.62 3.20333 11.28 3.51 10.6C3.67667 10.22 3.82333 9.77333 3.95 9.26L4.27 8.05C1.89 8.07 0.7 8.77667 0.7 10.17ZM7.95 10.11V3.14C7.95 2.58 8.05333 2.16333 8.26 1.89C8.46667 1.61 8.81667 1.47 9.31 1.47C9.56333 1.47 9.77333 1.5 9.94 1.56L9.91 1.7C9.70333 1.65333 9.51667 1.63 9.35 1.63C8.88333 1.63 8.56667 1.75 8.4 1.99C8.23333 2.23667 8.15 2.62 8.15 3.14V10.11C8.15 10.6367 8.23333 11.02 8.4 11.26C8.56667 11.5 8.88333 11.62 9.35 11.62C9.51667 11.62 9.70333 11.5967 9.91 11.55L9.94 11.69C9.77333 11.75 9.56333 11.78 9.31 11.78C8.81667 11.78 8.46667 11.6433 8.26 11.37C8.05333 11.09 7.95 10.67 7.95 10.11ZM11.67 5.23V10.07C11.67 10.3767 11.6767 10.6067 11.69 10.76C11.71 10.9133 11.7533 11.0733 11.82 11.24C11.8933 11.4 12 11.51 12.14 11.57C12.2867 11.6367 12.4833 11.67 12.73 11.67C12.9767 11.67 13.16 11.63 13.28 11.55L13.37 11.65C13.23 11.7633 13.0067 11.82 12.7 11.82C12.1933 11.82 11.8667 11.69 11.72 11.43C11.5667 11.17 11.49 10.73 11.49 10.11V5.28C11.49 2.69333 12.3267 1.4 14 1.4V1.54C12.4467 1.54 11.67 2.77 11.67 5.23ZM19.49 6.98C19.49 5.98667 19.1567 5.32333 18.49 4.99C17.4167 5.47667 16.5367 6.32 15.85 7.52V10.67C15.85 11.3033 16.25 11.62 17.05 11.62H17.23L17.25 11.76C17.19 11.7733 17.0567 11.78 16.85 11.78C16.65 11.78 16.4267 11.72 16.18 11.6C15.94 11.4733 15.7967 11.29 15.75 11.05C15.7033 11.29 15.56 11.4733 15.32 11.6C15.08 11.72 14.82 11.78 14.54 11.78C14.26 11.78 14.0367 11.7467 13.87 11.68L13.9 11.55C14.1067 11.5967 14.2933 11.62 14.46 11.62C15.26 11.62 15.66 11.3033 15.66 10.67V6.88C15.66 5.64 15.26 5.02 14.46 5.02C14.22 5.02 14.0367 5.05667 13.91 5.13L13.83 5.03C13.97 4.91667 14.1933 4.86 14.5 4.86C15.4 4.86 15.85 5.53333 15.85 6.88V7.26C16.4833 6.14 17.37 5.32667 18.51 4.82C19.2833 5.16667 19.67 5.9 19.67 7.02C19.67 7.06667 19.67 7.10667 19.67 7.14V7.2C19.9833 6.66 20.3733 6.18333 20.84 5.77C21.3067 5.35 21.7933 5.03333 22.3 4.82C23.0733 5.16667 23.46 5.9 23.46 7.02C23.46 7.06667 23.46 7.10667 23.46 7.14L23.39 10.07C23.39 10.1367 23.39 10.2033 23.39 10.27C23.39 10.7233 23.4533 11.07 23.58 11.31C23.7067 11.55 24 11.67 24.46 11.67C24.7 11.67 24.88 11.63 25 11.55L25.09 11.65C24.95 11.7633 24.7233 11.82 24.41 11.82C23.91 11.82 23.5833 11.6867 23.43 11.42C23.2833 11.1533 23.21 10.7633 23.21 10.25C23.21 10.1967 23.21 10.1367 23.21 10.07L23.28 7.14C23.28 7.08667 23.28 7.03333 23.28 6.98C23.28 5.98667 22.95 5.32333 22.29 4.99C21.7633 5.23 21.2733 5.56667 20.82 6C20.3667 6.43333 19.9833 6.92333 19.67 7.47L19.7 10.67C19.7 11.3033 20.1 11.62 20.9 11.62C21.0667 11.62 21.2533 11.5967 21.46 11.55L21.49 11.68C21.3233 11.7467 21.1 11.78 20.82 11.78C20.54 11.78 20.28 11.72 20.04 11.6C19.8 11.4733 19.6567 11.29 19.61 11.05C19.5633 11.29 19.42 11.4733 19.18 11.6C18.9333 11.72 18.71 11.78 18.51 11.78C18.3033 11.78 18.17 11.7733 18.11 11.76L18.13 11.62H18.31C19.11 11.62 19.51 11.3033 19.51 10.67L19.49 7.54V7.14C19.49 7.08667 19.49 7.03333 19.49 6.98ZM28.11 11.82C27.4967 11.5933 27.01 11.1933 26.65 10.62C26.2967 10.04 26.12 9.39333 26.12 8.68C26.12 7.97333 26.2733 7.26667 26.58 6.56C26.8933 5.86 27.3133 5.28 27.84 4.82C29.46 4.82 30.27 5.37 30.27 6.47C30.27 6.82333 30.2033 7.17333 30.07 7.52C30.33 7.51333 30.6467 7.51 31.02 7.51V7.65C30.9267 7.65 30.84 7.65 30.76 7.65C29.4333 7.65 27.9667 7.77667 26.36 8.03C26.3333 8.27 26.32 8.49667 26.32 8.71C26.32 9.36333 26.4767 9.96 26.79 10.5C27.11 11.0333 27.56 11.4067 28.14 11.62C28.4867 11.48 28.8367 11.2767 29.19 11.01C29.5433 10.75 29.8333 10.47 30.06 10.17L30.18 10.25C29.9467 10.5567 29.6367 10.8567 29.25 11.15C28.8633 11.45 28.4833 11.6733 28.11 11.82ZM30.08 6.47C30.08 5.47 29.3533 4.97 27.9 4.97C27.1067 5.65667 26.6033 6.62 26.39 7.86C27.4033 7.69333 28.58 7.58 29.92 7.52C30.0267 7.16 30.08 6.81 30.08 6.47ZM37.34 6.98C37.34 5.98667 37.0067 5.32333 36.34 4.99C35.8 5.23 35.2867 5.57667 34.8 6.03C34.3067 6.48333 33.9067 6.98 33.6 7.52V10.67C33.6 11.3033 34 11.62 34.8 11.62C34.9667 11.62 35.1533 11.5967 35.36 11.55L35.39 11.68C35.2233 11.7467 35 11.78 34.72 11.78C34.44 11.78 34.1767 11.72 33.93 11.6C33.69 11.4733 33.5467 11.29 33.5 11.05C33.4533 11.29 33.31 11.4733 33.07 11.6C32.8367 11.72 32.58 11.78 32.3 11.78C32.02 11.78 31.7933 11.7467 31.62 11.68L31.65 11.55C31.8567 11.5967 32.0433 11.62 32.21 11.62C33.0167 11.62 33.42 11.3033 33.42 10.67V6.88C33.42 5.64 33.0167 5.02 32.21 5.02C31.97 5.02 31.79 5.05667 31.67 5.13L31.58 5.03C31.72 4.91667 31.9433 4.86 32.25 4.86C33.15 4.86 33.6 5.53333 33.6 6.88V7.26C33.9133 6.70667 34.32 6.22 34.82 5.8C35.3133 5.38 35.8267 5.05333 36.36 4.82C37.1333 5.16667 37.52 5.9 37.52 7.02C37.52 7.06667 37.52 7.10667 37.52 7.14L37.45 10.07C37.45 10.1367 37.45 10.2033 37.45 10.27C37.45 10.7233 37.5133 11.07 37.64 11.31C37.7667 11.55 38.0567 11.67 38.51 11.67C38.7567 11.67 38.94 11.63 39.06 11.55L39.14 11.65C39 11.7633 38.7767 11.82 38.47 11.82C37.9633 11.82 37.6367 11.6867 37.49 11.42C37.3433 11.1533 37.27 10.7633 37.27 10.25C37.27 10.1967 37.27 10.1367 37.27 10.07L37.34 7.14C37.34 7.08667 37.34 7.03333 37.34 6.98ZM44.59 4.37V9.76C44.59 11 44.99 11.62 45.79 11.62C46.0367 11.62 46.22 11.5833 46.34 11.51L46.42 11.61C46.28 11.7233 46.0567 11.78 45.75 11.78C44.8567 11.78 44.41 11.1067 44.41 9.76V9.45C44.09 9.98333 43.67 10.4667 43.15 10.9C42.6367 11.3267 42.15 11.6333 41.69 11.82C41.1967 11.56 40.8267 11.16 40.58 10.62C40.34 10.0733 40.22 9.44333 40.22 8.73C40.22 8.01 40.3867 7.29 40.72 6.57C41.0467 5.85 41.52 5.26667 42.14 4.82C42.96 4.82 43.7167 5.01667 44.41 5.41V4.37C44.41 3.10333 44.2267 2.28667 43.86 1.92C43.68 1.74667 43.4467 1.61667 43.16 1.53L43.19 1.39C43.8233 1.53667 44.2233 1.91 44.39 2.51C44.5233 2.97667 44.59 3.59667 44.59 4.37ZM42.18 4.97C41.6133 5.42333 41.1767 5.99 40.87 6.67C40.57 7.35 40.42 8.02667 40.42 8.7C40.42 9.38 40.5267 9.98 40.74 10.5C40.9533 11.0133 41.28 11.3867 41.72 11.62C42.1467 11.4533 42.6333 11.1333 43.18 10.66C43.7267 10.1933 44.1367 9.69667 44.41 9.17V5.58C43.7167 5.17333 42.9733 4.97 42.18 4.97ZM48.9 7.55V10.67C48.9 11.3033 49.3 11.62 50.1 11.62C50.2733 11.62 50.46 11.5967 50.66 11.55L50.69 11.68C50.5233 11.7467 50.3 11.78 50.02 11.78C49.74 11.78 49.48 11.72 49.24 11.6C48.9933 11.4733 48.8467 11.29 48.8 11.05C48.7533 11.29 48.6133 11.4733 48.38 11.6C48.14 11.72 47.88 11.78 47.6 11.78C47.32 11.78 47.0967 11.7467 46.93 11.68L46.95 11.55C47.1567 11.5967 47.3433 11.62 47.51 11.62C48.3167 11.62 48.72 11.3033 48.72 10.67V6.88C48.72 5.64 48.3167 5.02 47.51 5.02C47.27 5.02 47.09 5.05667 46.97 5.13L46.88 5.03C47.02 4.91667 47.2467 4.86 47.56 4.86C48.4533 4.86 48.9 5.53333 48.9 6.88V7.21C49.4133 5.99667 50.1567 5.2 51.13 4.82C51.4633 5.2 51.63 5.77333 51.63 6.54C51.63 6.58667 51.63 6.63 51.63 6.67H51.45C51.45 6.62333 51.45 6.57667 51.45 6.53C51.45 5.86333 51.32 5.36 51.06 5.02C50.5533 5.25333 50.1433 5.57333 49.83 5.98C49.5167 6.38 49.2067 6.90333 48.9 7.55ZM57.26 5.76V9.76C57.26 11 57.66 11.62 58.46 11.62C58.7067 11.62 58.89 11.5833 59.01 11.51L59.09 11.61C58.95 11.7233 58.7267 11.78 58.42 11.78C57.5267 11.78 57.08 11.1067 57.08 9.76V9.45C56.76 9.98333 56.34 10.4667 55.82 10.9C55.3067 11.3267 54.82 11.6333 54.36 11.82C53.8667 11.56 53.4967 11.16 53.25 10.62C53.01 10.0733 52.89 9.44333 52.89 8.73C52.89 8.01 53.0567 7.29 53.39 6.57C53.7167 5.85 54.19 5.26667 54.81 4.82C55.6367 4.82 56.3967 5.01667 57.09 5.41C57.1367 4.94333 57.29 4.54667 57.55 4.22L57.68 4.29C57.4 4.73667 57.26 5.22667 57.26 5.76ZM54.85 4.97C54.2833 5.42333 53.8467 5.99 53.54 6.67C53.24 7.35 53.09 8.02667 53.09 8.7C53.09 9.38 53.1967 9.98 53.41 10.5C53.6233 11.0133 53.95 11.3867 54.39 11.62C54.8167 11.4533 55.3033 11.1333 55.85 10.66C56.3967 10.1933 56.8067 9.69667 57.08 9.17V5.58C56.3867 5.17333 55.6433 4.97 54.85 4.97ZM65.84 11.13V2.44C66.9067 2.36667 67.65 2.33 68.07 2.33C68.49 2.33 68.88 2.41 69.24 2.57C69.6067 2.72333 69.9033 2.93333 70.13 3.2C70.3567 3.46 70.54 3.79 70.68 4.19C70.9333 4.89667 71.06 5.79333 71.06 6.88C71.06 7.96 70.8333 8.96333 70.38 9.89C69.9267 10.81 69.25 11.4433 68.35 11.79C67.4767 11.79 66.64 11.57 65.84 11.13ZM65.48 2.47V10.11C65.48 10.67 65.3767 11.09 65.17 11.37C64.9633 11.6433 64.6133 11.78 64.12 11.78C63.8667 11.78 63.6567 11.75 63.49 11.69L63.52 11.55C63.72 11.5967 63.9067 11.62 64.08 11.62C64.5467 11.62 64.8633 11.5 65.03 11.26C65.1967 11.02 65.28 10.6367 65.28 10.11V5.9C65.2133 5.90667 65.12 5.91 65 5.91C64.44 5.91 63.9867 5.73333 63.64 5.38C63.2933 5.02667 63.12 4.55667 63.12 3.97C63.12 3.37667 63.43 2.97 64.05 2.75C64.1633 2.71 64.2667 2.67667 64.36 2.65V2.62L64.03 2.68C63.1367 2.66 62.39 2.48 61.79 2.14C61.1833 1.8 60.8433 1.26 60.77 0.52L60.94 0.49C61.0867 1.83667 62.2433 2.51 64.41 2.51C64.7167 2.51 65.0733 2.49667 65.48 2.47ZM67.98 2.5C67.7467 2.5 67.1 2.53 66.04 2.59V11.02C66.82 11.42 67.5733 11.62 68.3 11.62C68.88 11.4 69.37 11.0233 69.77 10.49C70.5033 9.53 70.87 8.31333 70.87 6.84C70.87 4.72 70.3833 3.38333 69.41 2.83C69.0167 2.61 68.54 2.5 67.98 2.5ZM65 5.74C65.1333 5.74 65.2267 5.73667 65.28 5.73V2.65C64.76 2.69 64.3767 2.76 64.13 2.86C63.59 3.07333 63.32 3.44333 63.32 3.97C63.32 4.49667 63.4733 4.92333 63.78 5.25C64.0867 5.57667 64.4933 5.74 65 5.74ZM73.46 10.11V5.03H73.64V10.07C73.64 10.3767 73.6467 10.6067 73.66 10.76C73.6733 10.9133 73.7167 11.0733 73.79 11.24C73.8567 11.4 73.9633 11.51 74.11 11.57C74.25 11.6367 74.4467 11.67 74.7 11.67C74.9467 11.67 75.13 11.63 75.25 11.55L75.33 11.65C75.19 11.7633 74.9667 11.82 74.66 11.82C74.1533 11.82 73.8267 11.69 73.68 11.43C73.5333 11.17 73.46 10.73 73.46 10.11ZM73.85 2.59C73.85 2.67667 73.82 2.75333 73.76 2.82C73.7067 2.88667 73.6333 2.92 73.54 2.92C73.4467 2.92 73.3733 2.88667 73.32 2.82C73.26 2.75333 73.23 2.67667 73.23 2.59C73.23 2.39 73.3333 2.29 73.54 2.29C73.7467 2.29 73.85 2.39 73.85 2.59ZM76.68 6.79C76.68 7.02333 76.85 7.26333 77.19 7.51C77.5367 7.75 77.92 7.95667 78.34 8.13C78.7533 8.30333 79.1333 8.51667 79.48 8.77C79.82 9.03 79.99 9.29667 79.99 9.57C79.99 9.99667 79.8033 10.4167 79.43 10.83C79.0567 11.2367 78.63 11.5667 78.15 11.82C77.45 11.82 76.7767 11.6233 76.13 11.23L76.21 11.11C76.8967 11.4833 77.5333 11.67 78.12 11.67C78.5667 11.4367 78.96 11.1267 79.3 10.74C79.64 10.36 79.81 9.97 79.81 9.57C79.81 9.33667 79.6367 9.09667 79.29 8.85C78.95 8.61 78.57 8.40333 78.15 8.23C77.7367 8.05667 77.3567 7.84 77.01 7.58C76.6633 7.32667 76.49 7.04 76.49 6.72C76.49 6.39333 76.6667 6.04333 77.02 5.67C77.3667 5.29 77.7367 5.00667 78.13 4.82C78.7967 4.82 79.4133 4.98333 79.98 5.31L79.9 5.44C79.34 5.12667 78.7633 4.97 78.17 4.97C77.7967 5.15667 77.4567 5.42667 77.15 5.78C76.8367 6.12667 76.68 6.46333 76.68 6.79ZM83.03 13.47V11.34C82.7767 11.2667 82.55 11.23 82.35 11.23C82.1433 11.23 81.95 11.2533 81.77 11.3L81.74 11.18C81.9267 11.1133 82.1333 11.08 82.36 11.08C82.5867 11.08 82.81 11.1167 83.03 11.19V6.89C83.03 5.65 82.63 5.03 81.83 5.03C81.5833 5.03 81.4 5.06667 81.28 5.14L81.2 5.04C81.34 4.93333 81.5633 4.88 81.87 4.88C82.7633 4.88 83.21 5.55 83.21 6.89V7.19C83.53 6.65667 83.95 6.17333 84.47 5.74C84.9833 5.31333 85.47 5.00667 85.93 4.82C86.4233 5.08 86.7933 5.48 87.04 6.02C87.28 6.56667 87.4 7.19667 87.4 7.91C87.4 8.63 87.2333 9.35 86.9 10.07C86.5733 10.79 86.1 11.3733 85.48 11.82C84.6133 11.82 83.8567 11.69 83.21 11.43V13.47C83.21 14.1033 83.6133 14.42 84.42 14.42C84.5867 14.42 84.7733 14.3967 84.98 14.35L85.01 14.48C84.8367 14.5467 84.61 14.58 84.33 14.58C84.05 14.58 83.79 14.52 83.55 14.4C83.31 14.2733 83.1667 14.09 83.12 13.85C83.0733 14.09 82.93 14.2733 82.69 14.4C82.45 14.52 82.19 14.58 81.91 14.58C81.63 14.58 81.4067 14.5467 81.24 14.48L81.27 14.35C81.4767 14.3967 81.6633 14.42 81.83 14.42C82.63 14.42 83.03 14.1033 83.03 13.47ZM85.44 11.67C86.0067 11.2167 86.4433 10.65 86.75 9.97C87.05 9.29 87.2 8.61 87.2 7.93C87.2 7.25667 87.0933 6.66 86.88 6.14C86.6667 5.62667 86.34 5.25333 85.9 5.02C85.4733 5.18667 84.9867 5.50667 84.44 5.98C83.8933 6.44667 83.4833 6.94333 83.21 7.47V11.25C83.8167 11.53 84.56 11.67 85.44 11.67ZM89.98 5.23V10.07C89.98 10.3767 89.9867 10.6067 90 10.76C90.0133 10.9133 90.0533 11.0733 90.12 11.24C90.1933 11.4 90.3033 11.51 90.45 11.57C90.59 11.6367 90.7833 11.67 91.03 11.67C91.2767 11.67 91.4633 11.63 91.59 11.55L91.67 11.65C91.53 11.7633 91.3067 11.82 91 11.82C90.4933 11.82 90.1667 11.69 90.02 11.43C89.8667 11.17 89.79 10.73 89.79 10.11V5.28C89.79 2.69333 90.6267 1.4 92.3 1.4V1.54C90.7533 1.54 89.98 2.77 89.98 5.23ZM97.13 5.76V9.76C97.13 11 97.53 11.62 98.33 11.62C98.5767 11.62 98.76 11.5833 98.88 11.51L98.96 11.61C98.82 11.7233 98.5967 11.78 98.29 11.78C97.3967 11.78 96.95 11.1067 96.95 9.76V9.45C96.63 9.98333 96.2133 10.4667 95.7 10.9C95.18 11.3267 94.69 11.6333 94.23 11.82C93.7367 11.56 93.37 11.16 93.13 10.62C92.8833 10.0733 92.76 9.44333 92.76 8.73C92.76 8.01 92.9267 7.29 93.26 6.57C93.5933 5.85 94.0667 5.26667 94.68 4.82C95.5133 4.82 96.2733 5.01667 96.96 5.41C97.0067 4.94333 97.16 4.54667 97.42 4.22L97.55 4.29C97.27 4.73667 97.13 5.22667 97.13 5.76ZM94.72 4.97C94.1533 5.42333 93.7167 5.99 93.41 6.67C93.11 7.35 92.96 8.02667 92.96 8.7C92.96 9.38 93.0667 9.98 93.28 10.5C93.4933 11.0133 93.82 11.3867 94.26 11.62C94.6867 11.4533 95.1733 11.1333 95.72 10.66C96.2667 10.1933 96.6767 9.69667 96.95 9.17V5.58C96.2567 5.17333 95.5133 4.97 94.72 4.97ZM104.91 5.97V9.68C104.91 10.8467 105.033 12.0133 105.28 13.18C105.167 13.4333 104.94 13.7067 104.6 14C104.26 14.3 103.953 14.5067 103.68 14.62C103.18 14.62 102.633 14.5333 102.04 14.36C101.453 14.1867 100.95 13.96 100.53 13.68L100.66 13.53C101.62 14.1433 102.617 14.45 103.65 14.45C103.897 14.3367 104.17 14.15 104.47 13.89C104.777 13.63 104.987 13.3933 105.1 13.18C104.853 11.9667 104.73 10.8 104.73 9.68V9.4C104.09 10.48 103.203 11.2867 102.07 11.82C101.297 11.4733 100.91 10.74 100.91 9.62C100.91 9.57333 100.91 9.53333 100.91 9.5L100.98 6.57C100.98 6.50333 100.98 6.43667 100.98 6.37C100.98 5.91667 100.917 5.57 100.79 5.33C100.663 5.09 100.373 4.97 99.92 4.97C99.6733 4.97 99.49 5.01 99.37 5.09L99.29 4.99C99.43 4.87667 99.6533 4.82 99.96 4.82C100.46 4.82 100.787 4.95333 100.94 5.22C101.087 5.48667 101.16 5.87667 101.16 6.39C101.16 6.44333 101.16 6.50333 101.16 6.57L101.09 9.5C101.09 9.55333 101.09 9.60667 101.09 9.66C101.09 10.6533 101.423 11.3167 102.09 11.65C103.17 11.1167 104.05 10.2733 104.73 9.12V5.97C104.73 5.33667 104.33 5.02 103.53 5.02C103.363 5.02 103.177 5.04333 102.97 5.09L102.94 4.96C103.107 4.89333 103.33 4.86 103.61 4.86C103.89 4.86 104.15 4.92 104.39 5.04C104.63 5.16667 104.773 5.35 104.82 5.59C104.867 5.35 105.01 5.16667 105.25 5.04C105.49 4.92 105.75 4.86 106.03 4.86C106.31 4.86 106.537 4.89333 106.71 4.96L106.68 5.09C106.473 5.04333 106.287 5.02 106.12 5.02C105.313 5.02 104.91 5.33667 104.91 5.97Z" fill="black"/>
</svg>
