<svg width="87.878" height="16.8" viewBox="0 0 87.878 16.8" xmlns="http://www.w3.org/2000/svg"><path transform="translate(0 12.6) scale(.014 -.014)" d="m25 0 151 591h13l151-591h-17l-40 160h-202l-39-160zm60 176h194l-92 356-4 17-4-17z"/><path transform="translate(5.11 12.6) scale(.014 -.014)" d="M68 0V630H84V0Z"/><path transform="translate(7.238 12.6) scale(.014 -.014)" d="m187-8q-42 0-66.5 11.5t-35.5 31-14 42.5-3 46v372h16v-363q0-29 5-58t26.5-47.5 71.5-18.5q55 0 80 27.5t29 70.5v389h16v-495h-14l-2 50q-11-23-36.5-40.5t-72.5-17.5z"/><path transform="translate(12.558 12.6) scale(.014 -.014)" d="m68 0v495h14l2-50q11 23 36.5 40.5t72.5 17.5q59 0 83-21.5t31-51.5q11 34 40 53.5t75 19.5q42 0 66.5-11.5t35.5-31 14-42.5 3-46v-372h-16v363q0 30-5 58.5t-26.5 47-71.5 18.5q-55 0-80.5-32t-29.5-83v-372h-16v363q0 30-5 58.5t-26.5 47-71.5 18.5q-55 0-80-27.5t-29-70.5v-389z"/><path transform="translate(20.986 12.6) scale(.014 -.014)" d="m68 0v495h14l2-52q11 23 36.5 41.5t72.5 18.5q42 0 66.5-11.5t35.5-31 14-42.5 3-46v-372h-16v363q0 30-5 58.5t-26.5 47-71.5 18.5q-55 0-82-30t-27-73v-384z"/><path transform="translate(26.208 12.6) scale(.014 -.014)" d="m68 0v495h16v-495zm8 566q-14 0-14 14t14 14 14-14-14-14z"/><path transform="translate(30.506 12.6) scale(.014 -.014)" d="m167-9q-38 0-67 15.5t-44.5 53.5-15.5 103v12h16v-12q0-60 14.5-94t39.5-48 57-14q53 0 88 30.5t35 108.5q0 52-17.5 79.5t-47 42.5-64.5 28q-36 14-62.5 31.5t-41 45.5-14.5 75q0 67 29.5 107t98.5 40q60 0 95-33t35-93v-40h-16v36q0 54-30 84t-84 30q-62 0-87-37.5t-25-93.5q0-46 15.5-72t41-40 54.5-26q48-19 78-37t44-46.5 14-80.5q0-57-18.5-91t-50-49-70.5-15z"/><path transform="translate(35.35 12.6) scale(.014 -.014)" d="m160-4q-23 0-47.5 8t-41.5 32.5-17 75.5v34q0 32 14.5 56t35 40.5 40 27 28.5 15.5q40 22 62.5 38.5t32.5 34 10 42.5v14q0 34-14.5 49t-36.5 19-45 4q-44 0-65.5-15t-28-40-6.5-56v-41h-16v43q0 58 23 91.5t93 33.5q54 0 77.5-14t29-36.5 5.5-49.5v-402h-15v73q-12-35-42.5-56t-75.5-21zm3 16q44 0 68.5 19t35 52 10.5 74v184q-16-22-43.5-38.5t-56.5-33.5q-25-14-49.5-29.5t-41-39.5-16.5-62v-26q0-47 15-68t37-26.5 41-5.5z"/><path transform="translate(40.306 12.6) scale(.014 -.014)" d="m68 0v495h14l2-52q11 23 36.5 41.5t72.5 18.5q42 0 66.5-11.5t35.5-31 14-42.5 3-46v-372h-16v363q0 30-5 58.5t-26.5 47-71.5 18.5q-55 0-82-30t-27-73v-384z"/><path transform="translate(45.528 12.6) scale(.014 -.014)" d="m160-6q-52 0-85 25t-33 80v67h16v-67q0-44 28.5-66.5t73.5-22.5q47 0 75.5 20t28.5 66v38q0 38-16 59.5t-40.5 35-52.5 25.5q-31 14-57 28t-41.5 34.5-15.5 53.5v34q0 42 32 70t89 28q52 0 85.5-23.5t33.5-77.5v-65h-16v59q0 48-26.5 69.5t-76.5 21.5-77.5-25-27.5-66v-18q0-33 17-53t41-32.5 45-22.5q30-13 57.5-28.5t45-40 17.5-66.5v-38q0-39-17-61t-44-31.5-59-9.5z"/><path transform="translate(52.206 12.6) scale(.014 -.014)" d="m76 0v591h152q60 0 92-20.5t32-76.5v-76q0-52-12-84.5t-44-47.5-93-15h-111v-271zm16 287h111q55 0 83.5 12.5t39 41 10.5 76.5v54q0 60-22.5 82t-86.5 22h-135z"/><path transform="translate(57.624 12.6) scale(.014 -.014)" d="m68 0v495h16v-495zm8 566q-14 0-14 14t14 14 14-14-14-14z"/><path transform="translate(59.752 12.6) scale(.014 -.014)" d="m68 0v495h14l2-52q11 23 36.5 41.5t72.5 18.5q42 0 66.5-11.5t35.5-31 14-42.5 3-46v-372h-16v363q0 30-5 58.5t-26.5 47-71.5 18.5q-55 0-82-30t-27-73v-384z"/><path transform="translate(64.974 12.6) scale(.014 -.014)" d="m160-6q-52 0-85 25t-33 80v67h16v-67q0-44 28.5-66.5t73.5-22.5q47 0 75.5 20t28.5 66v38q0 38-16 59.5t-40.5 35-52.5 25.5q-31 14-57 28t-41.5 34.5-15.5 53.5v34q0 42 32 70t89 28q52 0 85.5-23.5t33.5-77.5v-65h-16v59q0 48-26.5 69.5t-76.5 21.5-77.5-25-27.5-66v-18q0-33 17-53t41-32.5 45-22.5q30-13 57.5-28.5t45-40 17.5-66.5v-38q0-39-17-61t-44-31.5-59-9.5z"/><path transform="translate(69.482 12.6) scale(.014 -.014)" d="m141 0q-39 0-56 23.5t-17 69.5v386h-38v14l38 2 3 97h13v-97h116v-16h-116v-391q0-28 11-50.5t45-22.5q14 0 28 1.5t32 3.5v-16q-7-1-23.5-2.5t-35.5-1.5z"/><path transform="translate(72.45 12.6) scale(.014 -.014)" d="m68 0v495h14l2-50q11 23 36.5 40.5t72.5 17.5q21 0 37-3v-16q-16 3-37 3-55 0-82-29t-27-69v-389z"/><path transform="translate(75.656 12.6) scale(.014 -.014)" d="m68 0v495h16v-495zm8 566q-14 0-14 14t14 14 14-14-14-14z"/><path transform="translate(77.784 12.6) scale(.014 -.014)" d="m68-116v611h14l2-50q5 20 28.5 39t75.5 19q42 0 66.5-11.5t35.5-31 14-42.5 3-46v-248q0-31-6-61t-31-50-82-20q-50 0-74 14.5t-30 30.5v-154zm120 125q39 0 60 11t30 28.5 11 38 2 40.5v242q0 30-4.5 57t-25.5 44-73 17q-48 0-70-17.5t-28-45.5-6-61v-236q0-20 2-40.5t11-38 30.5-28.5 60.5-11z"/><path transform="translate(82.908 12.6) scale(.014 -.014)" d="m179-7q-43 0-67.5 11.5t-35.5 30.5-14 42.5-3 46.5v248q0 31 7 61t32.5 50 80.5 20q56 0 81-19t31.5-49 6.5-63v-109h-223v-136q0-29 5.5-56.5t27.5-44.5 71-17 70.5 17 27 44 5.5 57v40h16v-43q0-31-6-61t-31-50-82-20zm-104 286h207v84q0 35-5 63t-26.5 44.5-71.5 16.5q-44 0-66.5-15.5t-30-43-7.5-65.5z"/></svg>