<svg width="51" height="9" viewBox="0 0 51 9" fill="none" xmlns="http://www.w3.org/2000/svg">
<path d="M1.42 8.88H0.5L2.33 0.61H3.47L5.27 8.88H4.32L3.87 6.96H1.84L1.42 8.88ZM2.88 1.68L1.87 6.47H3.86L2.88 1.68ZM7.08 8.88H6.23V0H7.08V8.88ZM10.09 8.99C9.60333 8.99 9.24333 8.90333 9.01 8.73C8.77667 8.55667 8.62667 8.33 8.56 8.05C8.5 7.77 8.47 7.47333 8.47 7.16V1.95H9.33V7.05C9.33 7.25 9.34333 7.45333 9.37 7.66C9.39 7.86 9.47667 8.02333 9.63 8.15C9.77667 8.27 10.0233 8.33 10.37 8.33C10.61 8.33 10.8 8.29 10.94 8.21C11.08 8.12333 11.19 8.02333 11.27 7.91C11.3433 7.79 11.39 7.68333 11.41 7.59V1.95H12.27V8.88H11.53L11.46 8.12C11.3867 8.34667 11.2367 8.55 11.01 8.73C10.7767 8.90333 10.47 8.99 10.09 8.99ZM14.63 8.88H13.76V1.95H14.49L14.58 2.72C14.6867 2.44667 14.8567 2.23333 15.09 2.08C15.33 1.92 15.6233 1.84 15.97 1.84C16.51 1.84 16.89 1.95 17.11 2.17C17.33 2.39667 17.4433 2.72333 17.45 3.15L17.3 3.17C17.3933 2.77 17.5733 2.44667 17.84 2.2C18.1067 1.96 18.45 1.84 18.87 1.84C19.45 1.84 19.8433 1.97333 20.05 2.24C20.2633 2.51333 20.37 2.93 20.37 3.49V8.88H19.5V3.64C19.5 3.19333 19.43 2.89 19.29 2.73C19.1567 2.56333 18.9267 2.48 18.6 2.48C18.2933 2.48 18.0367 2.57333 17.83 2.76C17.6233 2.94 17.5133 3.16333 17.5 3.43V8.88H16.63V3.53C16.63 3.15 16.56 2.88 16.42 2.72C16.2867 2.56 16.0467 2.48 15.7 2.48C15.3867 2.48 15.1467 2.55667 14.98 2.71C14.82 2.85667 14.7033 3.03333 14.63 3.24V8.88ZM22.61 8.88H21.74V1.95H22.45L22.56 2.69C22.64 2.41 22.8133 2.19667 23.08 2.05C23.3533 1.89667 23.6333 1.82 23.92 1.82C24.4133 1.82 24.7767 1.90667 25.01 2.08C25.2367 2.25333 25.3833 2.48 25.45 2.76C25.5167 3.03333 25.55 3.33333 25.55 3.66V8.88H24.68V3.78C24.68 3.61333 24.6733 3.45 24.66 3.29C24.6533 3.13667 24.62 2.99667 24.56 2.87C24.5 2.74333 24.4 2.64333 24.26 2.57C24.12 2.49 23.9133 2.45 23.64 2.45C23.4067 2.45 23.22 2.49667 23.08 2.59C22.9333 2.67667 22.8233 2.78 22.75 2.9C22.6833 3.01333 22.6367 3.12 22.61 3.22V8.88ZM27.77 8.88H26.92V1.95H27.77V8.88ZM27.35 1.1C27.21 1.1 27.09 1.05 26.99 0.95C26.8967 0.85 26.85 0.736667 26.85 0.61C26.85 0.47 26.8967 0.353334 26.99 0.26C27.09 0.173334 27.21 0.13 27.35 0.13C27.4833 0.13 27.6 0.173334 27.7 0.26C27.8067 0.353334 27.86 0.47 27.86 0.61C27.86 0.736667 27.8067 0.85 27.7 0.95C27.6 1.05 27.4833 1.1 27.35 1.1ZM33.67 8.98C33.25 8.98 32.8867 8.90333 32.58 8.75C32.28 8.60333 32.0433 8.35667 31.87 8.01C31.7033 7.65667 31.62 7.16667 31.62 6.54V6.08C31.7733 6.08 31.9267 6.08 32.08 6.08C32.2333 6.08 32.38 6.08 32.52 6.08V6.6C32.52 7.06667 32.57 7.42667 32.67 7.68C32.7633 7.94 32.8967 8.12 33.07 8.22C33.2433 8.32667 33.4433 8.38 33.67 8.38C34.03 8.38 34.3267 8.26333 34.56 8.03C34.7867 7.80333 34.9 7.39667 34.9 6.81C34.9 6.39 34.84 6.07333 34.72 5.86C34.5933 5.65333 34.4067 5.48667 34.16 5.36C33.9067 5.23333 33.5967 5.09667 33.23 4.95C32.93 4.82333 32.6633 4.67667 32.43 4.51C32.19 4.33667 32.0033 4.11 31.87 3.83C31.7433 3.55 31.68 3.19333 31.68 2.76C31.68 2.27333 31.7433 1.87 31.87 1.55C32.0033 1.23 32.22 0.99 32.52 0.83C32.82 0.67 33.2167 0.59 33.71 0.59C34.35 0.59 34.8467 0.753333 35.2 1.08C35.5467 1.4 35.72 1.85333 35.72 2.44V3.35C35.58 3.35 35.44 3.35 35.3 3.35C35.1533 3.35 35.0067 3.35 34.86 3.35V2.65C34.86 2.20333 34.7633 1.86333 34.57 1.63C34.3767 1.40333 34.0933 1.29 33.72 1.29C33.3133 1.29 33.0167 1.41 32.83 1.65C32.65 1.89 32.56 2.25 32.56 2.73C32.56 3.09667 32.63 3.38333 32.77 3.59C32.91 3.80333 33.0933 3.97 33.32 4.09C33.54 4.20333 33.7767 4.30667 34.03 4.4C34.45 4.56 34.79 4.72667 35.05 4.9C35.31 5.07333 35.5033 5.29333 35.63 5.56C35.75 5.83333 35.81 6.21333 35.81 6.7C35.81 7.26667 35.7167 7.71667 35.53 8.05C35.35 8.37667 35.1 8.61333 34.78 8.76C34.46 8.90667 34.09 8.98 33.67 8.98ZM38.34 8.98C38.1267 8.98 37.91 8.95 37.69 8.89C37.47 8.83 37.2833 8.69 37.13 8.47C36.9767 8.25 36.9 7.90667 36.9 7.44V6.77C36.9 6.30333 37.0433 5.92667 37.33 5.64C37.61 5.35333 38 5.1 38.5 4.88C38.8133 4.72 39.07 4.58 39.27 4.46C39.47 4.33333 39.6233 4.19667 39.73 4.05C39.83 3.90333 39.88 3.70333 39.88 3.45V3.15C39.88 2.93 39.8333 2.76 39.74 2.64C39.6467 2.51333 39.5233 2.42667 39.37 2.38C39.2167 2.33333 39.0567 2.31 38.89 2.31C38.47 2.31 38.1933 2.42667 38.06 2.66C37.9333 2.88667 37.87 3.22333 37.87 3.67V4.26H37.07V3.59C37.07 3.24333 37.1167 2.93667 37.21 2.67C37.3033 2.40333 37.48 2.19333 37.74 2.04C38 1.88667 38.3833 1.81 38.89 1.81C39.4233 1.81 39.82 1.87 40.08 1.99C40.3467 2.11 40.5267 2.28333 40.62 2.51C40.7067 2.73667 40.75 3.00333 40.75 3.31V8.88H39.9L39.88 8.01C39.7667 8.33 39.5667 8.57 39.28 8.73C38.9933 8.89667 38.68 8.98 38.34 8.98ZM38.66 8.39C39.08 8.39 39.3867 8.24 39.58 7.94C39.7733 7.64 39.87 7.24333 39.87 6.75V4.54C39.7767 4.68667 39.6233 4.82333 39.41 4.95C39.19 5.07 38.97 5.19 38.75 5.31C38.43 5.49667 38.1833 5.69 38.01 5.89C37.8367 6.09 37.75 6.36667 37.75 6.72V7.27C37.75 7.60333 37.7967 7.85 37.89 8.01C37.9833 8.17 38.1 8.27333 38.24 8.32C38.38 8.36667 38.52 8.39 38.66 8.39ZM42.98 8.88H42.11V1.95H42.82L42.93 2.69C43.01 2.41 43.1833 2.19667 43.45 2.05C43.7233 1.89667 44.0033 1.82 44.29 1.82C44.7833 1.82 45.1467 1.90667 45.38 2.08C45.6067 2.25333 45.7533 2.48 45.82 2.76C45.8867 3.03333 45.92 3.33333 45.92 3.66V8.88H45.05V3.78C45.05 3.61333 45.0433 3.45 45.03 3.29C45.0233 3.13667 44.99 2.99667 44.93 2.87C44.87 2.74333 44.77 2.64333 44.63 2.57C44.49 2.49 44.2833 2.45 44.01 2.45C43.7767 2.45 43.5867 2.49667 43.44 2.59C43.3 2.67667 43.1933 2.78 43.12 2.9C43.0533 3.01333 43.0067 3.12 42.98 3.22V8.88ZM48.97 8.98C48.4633 8.98 48.07 8.91667 47.79 8.79C47.51 8.66333 47.3133 8.46333 47.2 8.19C47.0933 7.91 47.04 7.54333 47.04 7.09V6.49H47.92V7.28C47.92 7.72 47.9933 8.02333 48.14 8.19C48.2933 8.36333 48.5633 8.45 48.95 8.45C49.2967 8.45 49.5533 8.36333 49.72 8.19C49.88 8.02333 49.96 7.74 49.96 7.34V6.95C49.96 6.73667 49.9267 6.55333 49.86 6.4C49.8 6.24 49.6767 6.09667 49.49 5.97C49.31 5.83667 49.0567 5.70667 48.73 5.58C48.4233 5.45333 48.1533 5.32 47.92 5.18C47.6867 5.04 47.5 4.86333 47.36 4.65C47.2267 4.43667 47.16 4.16333 47.16 3.83V3.41C47.16 2.91 47.3033 2.52333 47.59 2.25C47.8767 1.97667 48.36 1.84 49.04 1.84C49.4867 1.84 49.8433 1.9 50.11 2.02C50.3767 2.14 50.5733 2.33667 50.7 2.61C50.8267 2.87667 50.89 3.22667 50.89 3.66V4.25H50.03V3.57C50.03 3.10333 49.95 2.78333 49.79 2.61C49.6367 2.44333 49.3867 2.36 49.04 2.36C48.6467 2.36 48.3833 2.45333 48.25 2.64C48.11 2.82667 48.04 3.06 48.04 3.34V3.71C48.04 3.97667 48.1 4.19333 48.22 4.36C48.3333 4.52667 48.5 4.66667 48.72 4.78C48.9333 4.89333 49.19 5.01 49.49 5.13C49.7567 5.24333 49.9967 5.36333 50.21 5.49C50.4167 5.61 50.58 5.78 50.7 6C50.8267 6.21333 50.89 6.50667 50.89 6.88V7.2C50.89 7.57333 50.83 7.89333 50.71 8.16C50.5967 8.42667 50.4 8.63 50.12 8.77C49.84 8.91 49.4567 8.98 48.97 8.98Z" fill="black"/>
</svg>
