<svg width="95" height="12" viewBox="0 0 95 12" fill="none" xmlns="http://www.w3.org/2000/svg">
<path d="M4.14 1.12L1.68 9.28H0.5L3.3 0.33H5.14L7.94 9.28H6.77L4.31 1.12H4.14ZM6.26 5.67V6.64H2.18V5.67H6.26ZM14.92 4.91V9.28H13.78V5.03C13.78 4.66333 13.73 4.34667 13.63 4.08C13.53 3.81333 13.3667 3.60667 13.14 3.46C12.9133 3.31333 12.6033 3.24 12.21 3.24C11.8567 3.24 11.5467 3.30667 11.28 3.44C11.0133 3.58 10.8 3.76333 10.64 3.99C10.4733 4.22333 10.36 4.48667 10.3 4.78L10.09 3.97H10.34C10.4133 3.66333 10.5433 3.38333 10.73 3.13C10.9167 2.87667 11.1667 2.67333 11.48 2.52C11.8 2.36667 12.1867 2.29 12.64 2.29C13.18 2.29 13.6167 2.39333 13.95 2.6C14.2833 2.80667 14.53 3.10333 14.69 3.49C14.8433 3.87667 14.92 4.35 14.92 4.91ZM10.35 4.15V9.28H9.21V2.45H10.35L10.3 4.09L10.35 4.15ZM19.54 9.43C18.5 9.43 17.7167 9.17667 17.19 8.67C16.6633 8.16333 16.4 7.43667 16.4 6.49V5.27C16.4 4.31 16.6467 3.57 17.14 3.05C17.6267 2.53 18.34 2.27 19.28 2.27C19.92 2.27 20.45 2.38667 20.87 2.62C21.2967 2.85333 21.6167 3.18667 21.83 3.62C22.0433 4.06 22.15 4.58 22.15 5.18V5.43C22.15 5.57667 22.1467 5.72667 22.14 5.88C22.1267 6.02667 22.11 6.17333 22.09 6.32H21.05C21.0567 6.09333 21.0633 5.88 21.07 5.68C21.07 5.48 21.07 5.29667 21.07 5.13C21.07 4.71667 21.0033 4.36667 20.87 4.08C20.7367 3.79333 20.5367 3.57333 20.27 3.42C20.01 3.26667 19.68 3.19 19.28 3.19C18.6933 3.19 18.2533 3.36 17.96 3.7C17.6667 4.04 17.52 4.52667 17.52 5.16V5.82L17.53 5.96V6.61C17.53 6.89 17.57 7.14667 17.65 7.38C17.7367 7.60667 17.87 7.80333 18.05 7.97C18.23 8.13667 18.4567 8.26333 18.73 8.35C19.01 8.43667 19.3433 8.48 19.73 8.48C20.17 8.48 20.58 8.42 20.96 8.3C21.3467 8.18667 21.7067 8.02667 22.04 7.82L21.94 8.8C21.6333 8.99333 21.28 9.14667 20.88 9.26C20.48 9.37333 20.0333 9.43 19.54 9.43ZM21.85 5.47V6.32H17V5.47H21.85ZM26.23 5.47L29.46 9.28H28.1L25.4 6.09H24.68V5.21H25.4L27.99 2.45H29.34L26.23 5.74V5.47ZM24.79 0V9.28H23.67V0H24.79ZM35.17 5.51L35.05 9.28H33.92L34.26 0.33H36.06L38.18 6.8H38.28L40.4 0.33H42.21L42.55 9.28H41.43L41.3 5.51L41.18 1.55H41.05L38.84 8.25H37.63L35.42 1.55H35.29L35.17 5.51ZM49.55 4.86V9.28H48.43L48.47 7.62L48.43 7.45V5.27L48.44 4.87C48.44 4.31667 48.3 3.90667 48.02 3.64C47.7333 3.37333 47.2833 3.24 46.67 3.24C46.1833 3.24 45.7367 3.31 45.33 3.45C44.9167 3.59 44.5533 3.75333 44.24 3.94L44.34 2.97C44.52 2.86333 44.7333 2.75667 44.98 2.65C45.22 2.55 45.5 2.46333 45.82 2.39C46.1333 2.32333 46.48 2.29 46.86 2.29C47.3467 2.29 47.7633 2.35 48.11 2.47C48.45 2.58333 48.7267 2.75333 48.94 2.98C49.1533 3.20667 49.3067 3.47667 49.4 3.79C49.5 4.11 49.55 4.46667 49.55 4.86ZM46.07 9.43C45.3967 9.43 44.88 9.26333 44.52 8.93C44.1533 8.60333 43.97 8.13333 43.97 7.52V7.32C43.97 6.68667 44.1667 6.21667 44.56 5.91C44.9467 5.59667 45.5667 5.38 46.42 5.26L48.58 4.95L48.64 5.78L46.56 6.08C46.0333 6.15333 45.66 6.28 45.44 6.46C45.2133 6.64 45.1 6.90667 45.1 7.26V7.37C45.1 7.73 45.21 8.00333 45.43 8.19C45.65 8.38333 45.9833 8.48 46.43 8.48C46.8233 8.48 47.16 8.41333 47.44 8.28C47.72 8.14667 47.9467 7.96333 48.12 7.73C48.2933 7.50333 48.41 7.25 48.47 6.97L48.64 7.74H48.43C48.3633 8.04 48.24 8.31667 48.06 8.57C47.88 8.83 47.6267 9.03667 47.3 9.19C46.98 9.35 46.57 9.43 46.07 9.43ZM52.45 0V9.28H51.32V0H52.45ZM59.51 4.86V9.28H58.39L58.43 7.62L58.39 7.45V5.27L58.4 4.87C58.4 4.31667 58.26 3.90667 57.98 3.64C57.6933 3.37333 57.2467 3.24 56.64 3.24C56.1467 3.24 55.6967 3.31 55.29 3.45C54.8833 3.59 54.52 3.75333 54.2 3.94L54.3 2.97C54.48 2.86333 54.6933 2.75667 54.94 2.65C55.1867 2.55 55.4667 2.46333 55.78 2.39C56.0933 2.32333 56.44 2.29 56.82 2.29C57.3067 2.29 57.7233 2.35 58.07 2.47C58.41 2.58333 58.6867 2.75333 58.9 2.98C59.1133 3.20667 59.27 3.47667 59.37 3.79C59.4633 4.11 59.51 4.46667 59.51 4.86ZM56.03 9.43C55.3567 9.43 54.84 9.26333 54.48 8.93C54.1133 8.60333 53.93 8.13333 53.93 7.52V7.32C53.93 6.68667 54.1267 6.21667 54.52 5.91C54.9067 5.59667 55.5267 5.38 56.38 5.26L58.54 4.95L58.6 5.78L56.52 6.08C55.9933 6.15333 55.62 6.28 55.4 6.46C55.1733 6.64 55.06 6.90667 55.06 7.26V7.37C55.06 7.73 55.17 8.00333 55.39 8.19C55.6167 8.38333 55.95 8.48 56.39 8.48C56.7833 8.48 57.12 8.41333 57.4 8.28C57.68 8.14667 57.9067 7.96333 58.08 7.73C58.2533 7.50333 58.37 7.25 58.43 6.97L58.6 7.74H58.39C58.3233 8.04 58.2 8.31667 58.02 8.57C57.84 8.83 57.59 9.03667 57.27 9.19C56.9433 9.35 56.53 9.43 56.03 9.43ZM61.51 2.45L63.38 8.22H64.03L63.43 8.48L65.48 2.45H66.65L63.43 11.69H62.28L63.36 8.57L63.86 9H62.57L60.34 2.45H61.51ZM72.77 4.86V9.28H71.64L71.69 7.62L71.65 7.45V5.27L71.66 4.87C71.66 4.31667 71.5167 3.90667 71.23 3.64C70.95 3.37333 70.5033 3.24 69.89 3.24C69.4033 3.24 68.9567 3.31 68.55 3.45C68.1367 3.59 67.7733 3.75333 67.46 3.94L67.56 2.97C67.74 2.86333 67.9533 2.75667 68.2 2.65C68.44 2.55 68.72 2.46333 69.04 2.39C69.3533 2.32333 69.7 2.29 70.08 2.29C70.5667 2.29 70.9833 2.35 71.33 2.47C71.67 2.58333 71.9467 2.75333 72.16 2.98C72.3733 3.20667 72.5267 3.47667 72.62 3.79C72.72 4.11 72.77 4.46667 72.77 4.86ZM69.29 9.43C68.6167 9.43 68.0967 9.26333 67.73 8.93C67.37 8.60333 67.19 8.13333 67.19 7.52V7.32C67.19 6.68667 67.3867 6.21667 67.78 5.91C68.1667 5.59667 68.7833 5.38 69.63 5.26L71.8 4.95L71.86 5.78L69.77 6.08C69.25 6.15333 68.8767 6.28 68.65 6.46C68.43 6.64 68.32 6.90667 68.32 7.26V7.37C68.32 7.73 68.43 8.00333 68.65 8.19C68.87 8.38333 69.2033 8.48 69.65 8.48C70.0433 8.48 70.38 8.41333 70.66 8.28C70.94 8.14667 71.1667 7.96333 71.34 7.73C71.5067 7.50333 71.6233 7.25 71.69 6.97L71.86 7.74H71.64C71.58 8.04 71.46 8.31667 71.28 8.57C71.1 8.83 70.8467 9.03667 70.52 9.19C70.2 9.35 69.79 9.43 69.29 9.43ZM75.67 0V9.28H74.54V0H75.67ZM82.73 4.86V9.28H81.6L81.65 7.62L81.61 7.45V5.27L81.62 4.87C81.62 4.31667 81.48 3.90667 81.2 3.64C80.9133 3.37333 80.4633 3.24 79.85 3.24C79.3633 3.24 78.9167 3.31 78.51 3.45C78.0967 3.59 77.7333 3.75333 77.42 3.94L77.52 2.97C77.7 2.86333 77.9133 2.75667 78.16 2.65C78.4 2.55 78.68 2.46333 79 2.39C79.3133 2.32333 79.66 2.29 80.04 2.29C80.5267 2.29 80.9433 2.35 81.29 2.47C81.63 2.58333 81.9067 2.75333 82.12 2.98C82.3333 3.20667 82.4867 3.47667 82.58 3.79C82.68 4.11 82.73 4.46667 82.73 4.86ZM79.25 9.43C78.5767 9.43 78.06 9.26333 77.7 8.93C77.3333 8.60333 77.15 8.13333 77.15 7.52V7.32C77.15 6.68667 77.3467 6.21667 77.74 5.91C78.1267 5.59667 78.7467 5.38 79.6 5.26L81.76 4.95L81.82 5.78L79.74 6.08C79.2133 6.15333 78.84 6.28 78.62 6.46C78.3933 6.64 78.28 6.90667 78.28 7.26V7.37C78.28 7.73 78.39 8.00333 78.61 8.19C78.83 8.38333 79.1633 8.48 79.61 8.48C80.0033 8.48 80.34 8.41333 80.62 8.28C80.9 8.14667 81.1267 7.96333 81.3 7.73C81.4733 7.50333 81.59 7.25 81.65 6.97L81.82 7.74H81.6C81.54 8.04 81.42 8.31667 81.24 8.57C81.06 8.83 80.8067 9.03667 80.48 9.19C80.16 9.35 79.75 9.43 79.25 9.43ZM94.13 4.88V9.28H93V5C93 4.64 92.9533 4.33 92.86 4.07C92.7733 3.80333 92.6267 3.6 92.42 3.46C92.2067 3.31333 91.9267 3.24 91.58 3.24C91.2467 3.24 90.96 3.30667 90.72 3.44C90.4733 3.58 90.2767 3.76 90.13 3.98C89.9833 4.20667 89.88 4.46667 89.82 4.76L89.64 3.95H89.78C89.8533 3.65667 89.98 3.38333 90.16 3.13C90.3333 2.88333 90.5733 2.68333 90.88 2.53C91.18 2.37 91.5567 2.29 92.01 2.29C92.5167 2.29 92.9267 2.39 93.24 2.59C93.5467 2.79667 93.7733 3.09 93.92 3.47C94.06 3.85667 94.13 4.32667 94.13 4.88ZM85.6 4.16V9.28H84.47V2.45H85.6L85.55 4.09L85.6 4.16ZM89.86 4.84V9.28H88.74V5C88.74 4.64 88.6933 4.33 88.6 4.07C88.5067 3.80333 88.36 3.6 88.16 3.46C87.9533 3.31333 87.6733 3.24 87.32 3.24C86.9867 3.24 86.7 3.30667 86.46 3.44C86.2133 3.58 86.0167 3.76333 85.87 3.99C85.7167 4.22333 85.61 4.48667 85.55 4.78L85.34 3.97H85.59C85.6633 3.66333 85.7867 3.38333 85.96 3.13C86.1333 2.87667 86.3667 2.67333 86.66 2.52C86.96 2.36667 87.32 2.29 87.74 2.29C88.3733 2.29 88.8533 2.45333 89.18 2.78C89.5133 3.10667 89.72 3.58333 89.8 4.21C89.8267 4.30333 89.8433 4.40667 89.85 4.52C89.8567 4.62667 89.86 4.73333 89.86 4.84Z" fill="black"/>
</svg>
