<svg width="84" height="10" viewBox="0 0 84 10" fill="none" xmlns="http://www.w3.org/2000/svg">
<path d="M4.14 1.12L1.68 9.28H0.5L3.3 0.33H5.14L7.94 9.28H6.77L4.31 1.12H4.14ZM6.26 5.67V6.64H2.18V5.67H6.26ZM14.92 4.91V9.28H13.78V5.03C13.78 4.66333 13.73 4.34667 13.63 4.08C13.53 3.81333 13.3667 3.60667 13.14 3.46C12.9133 3.31333 12.6033 3.24 12.21 3.24C11.8567 3.24 11.5467 3.30667 11.28 3.44C11.0133 3.58 10.8 3.76333 10.64 3.99C10.4733 4.22333 10.36 4.48667 10.3 4.78L10.09 3.97H10.34C10.4133 3.66333 10.5433 3.38333 10.73 3.13C10.9167 2.87667 11.1667 2.67333 11.48 2.52C11.8 2.36667 12.1867 2.29 12.64 2.29C13.18 2.29 13.6167 2.39333 13.95 2.6C14.2833 2.80667 14.53 3.10333 14.69 3.49C14.8433 3.87667 14.92 4.35 14.92 4.91ZM10.35 4.15V9.28H9.21V2.45H10.35L10.3 4.09L10.35 4.15ZM19.54 9.43C18.5 9.43 17.7167 9.17667 17.19 8.67C16.6633 8.16333 16.4 7.43667 16.4 6.49V5.27C16.4 4.31 16.6467 3.57 17.14 3.05C17.6267 2.53 18.34 2.27 19.28 2.27C19.92 2.27 20.45 2.38667 20.87 2.62C21.2967 2.85333 21.6167 3.18667 21.83 3.62C22.0433 4.06 22.15 4.58 22.15 5.18V5.43C22.15 5.57667 22.1467 5.72667 22.14 5.88C22.1267 6.02667 22.11 6.17333 22.09 6.32H21.05C21.0567 6.09333 21.0633 5.88 21.07 5.68C21.07 5.48 21.07 5.29667 21.07 5.13C21.07 4.71667 21.0033 4.36667 20.87 4.08C20.7367 3.79333 20.5367 3.57333 20.27 3.42C20.01 3.26667 19.68 3.19 19.28 3.19C18.6933 3.19 18.2533 3.36 17.96 3.7C17.6667 4.04 17.52 4.52667 17.52 5.16V5.82L17.53 5.96V6.61C17.53 6.89 17.57 7.14667 17.65 7.38C17.7367 7.60667 17.87 7.80333 18.05 7.97C18.23 8.13667 18.4567 8.26333 18.73 8.35C19.01 8.43667 19.3433 8.48 19.73 8.48C20.17 8.48 20.58 8.42 20.96 8.3C21.3467 8.18667 21.7067 8.02667 22.04 7.82L21.94 8.8C21.6333 8.99333 21.28 9.14667 20.88 9.26C20.48 9.37333 20.0333 9.43 19.54 9.43ZM21.85 5.47V6.32H17V5.47H21.85ZM26.23 5.47L29.46 9.28H28.1L25.4 6.09H24.68V5.21H25.4L27.99 2.45H29.34L26.23 5.74V5.47ZM24.79 0V9.28H23.67V0H24.79ZM37.04 4.51L40.68 9.28H39.31L36.18 5.17H35.15V4.25H36.18L39.27 0.33H40.59L37.05 4.79L37.04 4.51ZM35.24 0.33V9.28H34.09V0.33H35.24ZM47.07 4.86V9.28H45.94L45.99 7.62L45.95 7.45V5.27V4.87C45.95 4.31667 45.81 3.90667 45.53 3.64C45.25 3.37333 44.8033 3.24 44.19 3.24C43.6967 3.24 43.2467 3.31 42.84 3.45C42.4333 3.59 42.07 3.75333 41.75 3.94L41.86 2.97C42.0333 2.86333 42.2433 2.75667 42.49 2.65C42.7367 2.55 43.0167 2.46333 43.33 2.39C43.6433 2.32333 43.99 2.29 44.37 2.29C44.8633 2.29 45.28 2.35 45.62 2.47C45.9667 2.58333 46.2433 2.75333 46.45 2.98C46.6633 3.20667 46.82 3.47667 46.92 3.79C47.02 4.11 47.07 4.46667 47.07 4.86ZM43.59 9.43C42.91 9.43 42.39 9.26333 42.03 8.93C41.67 8.60333 41.49 8.13333 41.49 7.52V7.32C41.49 6.68667 41.6833 6.21667 42.07 5.91C42.4633 5.59667 43.0833 5.38 43.93 5.26L46.09 4.95L46.16 5.78L44.07 6.08C43.55 6.15333 43.1767 6.28 42.95 6.46C42.7233 6.64 42.61 6.90667 42.61 7.26V7.37C42.61 7.73 42.7233 8.00333 42.95 8.19C43.17 8.38333 43.5 8.48 43.94 8.48C44.3333 8.48 44.67 8.41333 44.95 8.28C45.23 8.14667 45.4567 7.96333 45.63 7.73C45.8033 7.50333 45.92 7.25 45.98 6.97L46.16 7.74H45.94C45.8733 8.04 45.75 8.31667 45.57 8.57C45.39 8.83 45.14 9.03667 44.82 9.19C44.5 9.35 44.09 9.43 43.59 9.43ZM54.51 4.91V9.28H53.37V5.03C53.37 4.66333 53.32 4.34667 53.22 4.08C53.12 3.81333 52.9567 3.60667 52.73 3.46C52.5033 3.31333 52.1967 3.24 51.81 3.24C51.45 3.24 51.1367 3.30667 50.87 3.44C50.61 3.58 50.3967 3.76333 50.23 3.99C50.07 4.22333 49.9567 4.48667 49.89 4.78L49.68 3.97H49.93C50.0033 3.66333 50.1333 3.38333 50.32 3.13C50.5067 2.87667 50.7567 2.67333 51.07 2.52C51.39 2.36667 51.7767 2.29 52.23 2.29C52.77 2.29 53.21 2.39333 53.55 2.6C53.8833 2.80667 54.1267 3.10333 54.28 3.49C54.4333 3.87667 54.51 4.35 54.51 4.91ZM49.94 4.15V9.28H48.8V2.45H49.94L49.89 4.09L49.94 4.15ZM61.97 4.91V9.28H60.84V5.03C60.84 4.66333 60.79 4.34667 60.69 4.08C60.59 3.81333 60.4267 3.60667 60.2 3.46C59.9733 3.31333 59.6633 3.24 59.27 3.24C58.91 3.24 58.5967 3.30667 58.33 3.44C58.07 3.58 57.8567 3.76333 57.69 3.99C57.53 4.22333 57.4167 4.48667 57.35 4.78L57.15 3.97H57.39C57.4633 3.66333 57.5933 3.38333 57.78 3.13C57.9667 2.87667 58.22 2.67333 58.54 2.52C58.8533 2.36667 59.2367 2.29 59.69 2.29C60.2367 2.29 60.6767 2.39333 61.01 2.6C61.3433 2.80667 61.5867 3.10333 61.74 3.49C61.8933 3.87667 61.97 4.35 61.97 4.91ZM57.4 4.15V9.28H56.26V2.45H57.4L57.35 4.09L57.4 4.15ZM68.91 4.86V9.28H67.78L67.83 7.62L67.79 7.45V5.27V4.87C67.79 4.31667 67.65 3.90667 67.37 3.64C67.09 3.37333 66.6433 3.24 66.03 3.24C65.5433 3.24 65.0933 3.31 64.68 3.45C64.2733 3.59 63.91 3.75333 63.59 3.94L63.7 2.97C63.8733 2.86333 64.0833 2.75667 64.33 2.65C64.5767 2.55 64.8567 2.46333 65.17 2.39C65.4833 2.32333 65.83 2.29 66.21 2.29C66.7033 2.29 67.12 2.35 67.46 2.47C67.8067 2.58333 68.0833 2.75333 68.29 2.98C68.5033 3.20667 68.66 3.47667 68.76 3.79C68.86 4.11 68.91 4.46667 68.91 4.86ZM65.43 9.43C64.75 9.43 64.23 9.26333 63.87 8.93C63.51 8.60333 63.33 8.13333 63.33 7.52V7.32C63.33 6.68667 63.5233 6.21667 63.91 5.91C64.3033 5.59667 64.9233 5.38 65.77 5.26L67.93 4.95L68 5.78L65.91 6.08C65.39 6.15333 65.0167 6.28 64.79 6.46C64.57 6.64 64.46 6.90667 64.46 7.26V7.37C64.46 7.73 64.57 8.00333 64.79 8.19C65.01 8.38333 65.3433 8.48 65.79 8.48C66.1767 8.48 66.51 8.41333 66.79 8.28C67.07 8.14667 67.2967 7.96333 67.47 7.73C67.6433 7.50333 67.76 7.25 67.82 6.97L68 7.74H67.78C67.7133 8.04 67.59 8.31667 67.41 8.57C67.23 8.83 66.98 9.03667 66.66 9.19C66.34 9.35 65.93 9.43 65.43 9.43ZM72.9 9.43C72.0733 9.43 71.4467 9.17333 71.02 8.66C70.5933 8.15333 70.38 7.41333 70.38 6.44V5.31C70.38 4.33 70.5967 3.58333 71.03 3.07C71.4633 2.55 72.1033 2.29 72.95 2.29C73.37 2.29 73.7333 2.36333 74.04 2.51C74.3467 2.65 74.5967 2.85 74.79 3.11C74.9767 3.36333 75.1033 3.66667 75.17 4.02H75.54L75.21 5.06C75.1967 4.66 75.1067 4.32333 74.94 4.05C74.7733 3.77667 74.55 3.57 74.27 3.43C73.9833 3.29 73.66 3.22 73.3 3.22C72.72 3.22 72.2767 3.38667 71.97 3.72C71.6633 4.06 71.51 4.55667 71.51 5.21V6.51C71.51 7.15 71.6633 7.64 71.97 7.98C72.2767 8.31333 72.72 8.48 73.3 8.48C73.64 8.48 73.9433 8.41333 74.21 8.28C74.4767 8.14667 74.6967 7.96333 74.87 7.73C75.05 7.49667 75.1733 7.23 75.24 6.93L75.52 7.74H75.18C75.1133 8.04667 74.9867 8.33 74.8 8.59C74.62 8.84333 74.3733 9.04667 74.06 9.2C73.7533 9.35333 73.3667 9.43 72.9 9.43ZM76.31 0V9.28H75.18L75.23 7.63L75.21 7.26V4.41V4.17L75.19 2.23V0H76.31ZM83.34 4.86V9.28H82.21L82.26 7.62L82.22 7.45V5.27L82.23 4.87C82.23 4.31667 82.0867 3.90667 81.8 3.64C81.52 3.37333 81.0733 3.24 80.46 3.24C79.9733 3.24 79.5267 3.31 79.12 3.45C78.7067 3.59 78.3433 3.75333 78.03 3.94L78.13 2.97C78.31 2.86333 78.5233 2.75667 78.77 2.65C79.01 2.55 79.29 2.46333 79.61 2.39C79.9233 2.32333 80.27 2.29 80.65 2.29C81.1367 2.29 81.5533 2.35 81.9 2.47C82.24 2.58333 82.5167 2.75333 82.73 2.98C82.9433 3.20667 83.0967 3.47667 83.19 3.79C83.29 4.11 83.34 4.46667 83.34 4.86ZM79.86 9.43C79.1867 9.43 78.6667 9.26333 78.3 8.93C77.94 8.60333 77.76 8.13333 77.76 7.52V7.32C77.76 6.68667 77.9567 6.21667 78.35 5.91C78.7367 5.59667 79.3567 5.38 80.21 5.26L82.37 4.95L82.43 5.78L80.35 6.08C79.8233 6.15333 79.4467 6.28 79.22 6.46C79 6.64 78.89 6.90667 78.89 7.26V7.37C78.89 7.73 79 8.00333 79.22 8.19C79.44 8.38333 79.7733 8.48 80.22 8.48C80.6133 8.48 80.95 8.41333 81.23 8.28C81.51 8.14667 81.7367 7.96333 81.91 7.73C82.0767 7.50333 82.1933 7.25 82.26 6.97L82.43 7.74H82.21C82.15 8.04 82.03 8.31667 81.85 8.57C81.67 8.83 81.4167 9.03667 81.09 9.19C80.77 9.35 80.36 9.43 79.86 9.43Z" fill="black"/>
</svg>
