<svg width="83.993" height="23.38" viewBox="0 0 83.993 23.38" xmlns="http://www.w3.org/2000/svg"><path transform="translate(0 14.21) scale(.007 -.007)" d="M217 0H49L449 1278H711L1112 0H944L593 1166H568ZM871 377H289V515H871Z"/><path transform="translate(8.127 14.21) scale(.007 -.007)" d="m947 0h-162v607q0 79-21.5 136t-70 88.5-132.5 31.5q-77 0-133.5-29t-91.5-78.5-49-112.5l-29 115h35q16 66 56 120.5t107.5 87 165.5 32.5q116 0 187.5-44t104.5-126.5 33-202.5zm-653 0h-162v976h162l-7-234 7-9z"/><path transform="translate(15.589 14.21) scale(.007 -.007)" d="m542-22q-223 0-336 109t-113 312v174q0 206 105 317.5t307 111.5q136 0 227-50.5t137-143.5 46-222v-36q0-32-2.5-64t-6.5-63h-149q2 48 2.5 91t0.5 79q0 89-28.5 150.5t-85 94-141.5 32.5q-126 0-189-73t-63-209v-93l1-20v-93q0-61 18-110t56.5-84.5 98-54 141.5-18.5q95 0 177 25t154 68l-15-140q-65-41-151-65.5t-191-24.5zm330 445h-694v122h694z"/><path transform="translate(22.582 14.21) scale(.007 -.007)" d="M960 0H766L380 455H277V581H380L750 976H942L499 505V544ZM293 0H132V1325H293Z"/><path transform="translate(32.872 14.21) scale(.007 -.007)" d="M1093 0H897L449 587H303V719H449L891 1278H1080L574 641L573 682ZM316 0H151V1278H316Z"/><path transform="translate(40.803 14.21) scale(.007 -.007)" d="m872 0h-161l7 237-6 25v311l1 57q0 119-60.5 176t-191.5 57q-105 0-192.5-30t-155.5-70l15 138q38 23 90.5 45.5t120 37.5 148.5 15q105 0 178.5-25.5t119-73.5 66.5-116 21-152zm-497-21q-145 0-222.5 70.5t-77.5 201.5v29q0 135 83.5 201.5t265.5 92.5l309 44 9-118-298-43q-112-16-160-54.5t-48-113.5v-16q0-77 47.5-118t142.5-41q84 0 144 29t97 78 50 109l25-110h-31q-14-64-52.5-119t-107.5-88.5-176-33.5z"/><path transform="translate(47.719 14.21) scale(.007 -.007)" d="m947 0h-162v607q0 79-21.5 136t-70 88.5-132.5 31.5q-77 0-133.5-29t-91.5-78.5-49-112.5l-29 115h35q16 66 56 120.5t107.5 87 165.5 32.5q116 0 187.5-44t104.5-126.5 33-202.5zm-653 0h-162v976h162l-7-234 7-9z"/><path transform="translate(55.181 14.21) scale(.007 -.007)" d="m947 0h-162v607q0 79-21.5 136t-70 88.5-132.5 31.5q-77 0-133.5-29t-91.5-78.5-49-112.5l-29 115h35q16 66 56 120.5t107.5 87 165.5 32.5q116 0 187.5-44t104.5-126.5 33-202.5zm-653 0h-162v976h162l-7-234 7-9z"/><path transform="translate(62.643 14.21) scale(.007 -.007)" d="m872 0h-161l7 237-6 25v311l1 57q0 119-60.5 176t-191.5 57q-105 0-192.5-30t-155.5-70l15 138q38 23 90.5 45.5t120 37.5 148.5 15q105 0 178.5-25.5t119-73.5 66.5-116 21-152zm-497-21q-145 0-222.5 70.5t-77.5 201.5v29q0 135 83.5 201.5t265.5 92.5l309 44 9-118-298-43q-112-16-160-54.5t-48-113.5v-16q0-77 47.5-118t142.5-41q84 0 144 29t97 78 50 109l25-110h-31q-14-64-52.5-119t-107.5-88.5-176-33.5z"/><path transform="translate(69.559 14.21) scale(.007 -.007)" d="m454-21q-176 0-268 109t-92 318v161q0 210 93 320.5t274 110.5q90 0 156-30.5t107-85.5 55-130h53l-48-149q-3 86-38.5 144.5t-96 88.5-138.5 30q-124 0-189.5-72t-65.5-212v-186q0-138 65.5-210t189.5-72q74 0 131 28.5t94.5 79 51.5 114.5l40-116h-48q-14-66-53.5-121t-106-87.5-166.5-32.5zm488 21h-162l7 236-3 52v408l1 34-4 277v318h161z"/><path transform="translate(77.077 14.21) scale(.007 -.007)" d="m872 0h-161l7 237-6 25v311l1 57q0 119-60.5 176t-191.5 57q-105 0-192.5-30t-155.5-70l15 138q38 23 90.5 45.5t120 37.5 148.5 15q105 0 178.5-25.5t119-73.5 66.5-116 21-152zm-497-21q-145 0-222.5 70.5t-77.5 201.5v29q0 135 83.5 201.5t265.5 92.5l309 44 9-118-298-43q-112-16-160-54.5t-48-113.5v-16q0-77 47.5-118t142.5-41q84 0 144 29t97 78 50 109l25-110h-31q-14-64-52.5-119t-107.5-88.5-176-33.5z"/></svg>