<svg width="78.883" height="21.273" viewBox="0 0 78.883 21.273" xmlns="http://www.w3.org/2000/svg"><path transform="translate(0 13.825) scale(.007 -.007)" d="M49 0 449 1278H711L1112 0H944L593 1166H568L217 0ZM289 377V515H871V377Z"/><path transform="translate(8.127 13.825) scale(.007 -.007)" d="m785 0v607q0 79-21.5 136t-70 88.5-132.5 31.5q-77 0-133.5-29t-91.5-78.5-49-112.5l-29 115h35q16 66 56 120.5t107.5 87 165.5 32.5q116 0 187.5-44t104.5-126.5 33-202.5v-625zm-653 0v976h162l-7-234 7-9v-733z"/><path transform="translate(15.589 13.825) scale(.007 -.007)" d="m542-22q-223 0-336 109t-113 312v174q0 206 105 317.5t307 111.5q136 0 227-50.5t137-143.5 46-222v-36q0-32-2.5-64t-6.5-63h-149q2 48 2.5 91t0.5 79q0 89-28.5 150.5t-85 94-141.5 32.5q-126 0-189-73t-63-209v-93l1-20v-93q0-61 18-110t56.5-84.5 98-54 141.5-18.5q95 0 177 25t154 68l-15-140q-65-41-151-65.5t-191-24.5zm-364 445v122h694v-122z"/><path transform="translate(22.582 13.825) scale(.007 -.007)" d="M766 0 380 455H277V581H380L750 976H942L499 505V544L960 0ZM132 0V1325H293V0Z"/><path transform="translate(32.333 13.825) scale(.007 -.007)" d="m544-24q-145 0-243 58.5t-147.5 170.5-49.5 271v302q0 252 129.5 387.5t380.5 135.5q90 0 163.5-14.5t130.5-38 98-49.5l15-150q-69 44-162.5 77t-216.5 33q-186 0-277.5-99t-91.5-285v-298q0-172 80.5-265.5t241.5-93.5q82 0 140.5 28t96 74 54.5 101v315l27-59h-301v138h436v-505l-163 1q-16-62-55-116t-109-86.5-177-32.5zm349 288h155v-264h-162z"/><path transform="translate(40.593 13.825) scale(.007 -.007)" d="m281 976v-607q0-77 21.5-134.5t70.5-89 132-31.5q78 0 134 28.5t91.5 78.5 48.5 113l29-115h-35q-15-66-55-120.5t-107.5-87-166.5-32.5q-115 0-186.5 43.5t-104.5 127-33 201.5v625zm653 0v-976h-162l7 234-7 10v732z"/><path transform="translate(48.055 13.825) scale(.007 -.007)" d="m161 133v843h162v-843zm81 1003q-50 0-75 26.5t-25 72.5v5q0 47 25 73t75 26 74.5-26 24.5-73v-5q0-47-24.5-73t-74.5-26zm-201-1493q-42 0-80.5 7.5t-65.5 17.5l-14 134q28-13 58.5-19.5t64.5-6.5q90 0 123.5 48.5t33.5 139.5v309h162v-317q0-98-27.5-168t-89-107.5-165.5-37.5z"/><path transform="translate(51.261 13.825) scale(.007 -.007)" d="m711 0 7 237-6 25v311l1 57q0 119-60.5 176t-191.5 57q-105 0-192.5-30t-155.5-70l15 138q38 23 90.5 45.5t120 37.5 148.5 15q105 0 178.5-25.5t119-73.5 66.5-116 21-152v-632zm-336-21q-145 0-222.5 70.5t-77.5 201.5v29q0 135 83.5 201.5t265.5 92.5l309 44 9-118-298-43q-112-16-160-54.5t-48-113.5v-16q0-77 47.5-118t142.5-41q84 0 144 29t97 78 50 109l25-110h-31q-14-64-52.5-119t-107.5-88.5-176-33.5z"/><path transform="translate(58.177 13.825) scale(.007 -.007)" d="m286 597-37 125 40 2q32 124 110 195.5t207 71.5q32 0 57.5-5t45.5-12l10-157q-25 8-55.5 13t-67.5 5q-110 0-191.5-61t-118.5-177zm-154-597v976h158l-8-288 12-12v-676z"/><path transform="translate(63.399 13.825) scale(.007 -.007)" d="m711 0 7 237-6 25v311l1 57q0 119-60.5 176t-191.5 57q-105 0-192.5-30t-155.5-70l15 138q38 23 90.5 45.5t120 37.5 148.5 15q105 0 178.5-25.5t119-73.5 66.5-116 21-152v-632zm-336-21q-145 0-222.5 70.5t-77.5 201.5v29q0 135 83.5 201.5t265.5 92.5l309 44 9-118-298-43q-112-16-160-54.5t-48-113.5v-16q0-77 47.5-118t142.5-41q84 0 144 29t97 78 50 109l25-110h-31q-14-64-52.5-119t-107.5-88.5-176-33.5z"/><path transform="translate(70.315 13.825) scale(.007 -.007)" d="m487-20q-113 0-182 34t-100 103-31 172v616h160v-597q0-96 44-141.5t148-45.5q59 0 113.5 13t102.5 37l-15-139q-47-24-110-38t-130-14zm-473 852v130h718l-15-130zm161 114-1 274 163 21-7-295z"/><path transform="translate(75.852 13.825) scale(.007 -.007)" d="m135 0v976h162v-976zm81 1136q-50 0-74.5 26.5t-24.5 72.5v5q0 47 24.5 73t74.5 26 75-26 25-73v-5q0-47-25-73t-75-26z"/></svg>