<svg width="72" height="12" viewBox="0 0 72 12" fill="none" xmlns="http://www.w3.org/2000/svg">
<path d="M1.68 9.28H0.5L3.3 0.33H5.14L7.94 9.28H6.77L4.31 1.12H4.14L1.68 9.28ZM6.26 6.64H2.18V5.67H6.26V6.64ZM14.92 9.28H13.78V5.03C13.78 4.66333 13.73 4.34667 13.63 4.08C13.53 3.81333 13.3667 3.60667 13.14 3.46C12.9133 3.31333 12.6033 3.24 12.21 3.24C11.8567 3.24 11.5467 3.30667 11.28 3.44C11.0133 3.58 10.8 3.76333 10.64 3.99C10.4733 4.22333 10.36 4.48667 10.3 4.78L10.09 3.97H10.34C10.4133 3.66333 10.5433 3.38333 10.73 3.13C10.9167 2.87667 11.1667 2.67333 11.48 2.52C11.8 2.36667 12.1867 2.29 12.64 2.29C13.18 2.29 13.6167 2.39333 13.95 2.6C14.2833 2.80667 14.53 3.10333 14.69 3.49C14.8433 3.87667 14.92 4.35 14.92 4.91V9.28ZM10.35 9.28H9.21V2.45H10.35L10.3 4.09L10.35 4.15V9.28ZM19.54 9.43C18.5 9.43 17.7167 9.17667 17.19 8.67C16.6633 8.16333 16.4 7.43667 16.4 6.49V5.27C16.4 4.31 16.6467 3.57 17.14 3.05C17.6267 2.53 18.34 2.27 19.28 2.27C19.92 2.27 20.45 2.38667 20.87 2.62C21.2967 2.85333 21.6167 3.18667 21.83 3.62C22.0433 4.06 22.15 4.58 22.15 5.18V5.43C22.15 5.57667 22.1467 5.72667 22.14 5.88C22.1267 6.02667 22.11 6.17333 22.09 6.32H21.05C21.0567 6.09333 21.0633 5.88 21.07 5.68C21.07 5.48 21.07 5.29667 21.07 5.13C21.07 4.71667 21.0033 4.36667 20.87 4.08C20.7367 3.79333 20.5367 3.57333 20.27 3.42C20.01 3.26667 19.68 3.19 19.28 3.19C18.6933 3.19 18.2533 3.36 17.96 3.7C17.6667 4.04 17.52 4.52667 17.52 5.16V5.82L17.53 5.96V6.61C17.53 6.89 17.57 7.14667 17.65 7.38C17.7367 7.60667 17.87 7.80333 18.05 7.97C18.23 8.13667 18.4567 8.26333 18.73 8.35C19.01 8.43667 19.3433 8.48 19.73 8.48C20.17 8.48 20.58 8.42 20.96 8.3C21.3467 8.18667 21.7067 8.02667 22.04 7.82L21.94 8.8C21.6333 8.99333 21.28 9.14667 20.88 9.26C20.48 9.37333 20.0333 9.43 19.54 9.43ZM21.85 6.32H17V5.47H21.85V6.32ZM29.46 9.28H28.1L25.4 6.09H24.68V5.21H25.4L27.99 2.45H29.34L26.23 5.74V5.47L29.46 9.28ZM24.79 9.28H23.67V0H24.79V9.28ZM37.2 9.28H36.04V0.52H37.2V9.28ZM39.89 1.31H33.36V0.33H39.89V1.31ZM44.13 9.43C43.09 9.43 42.3067 9.17667 41.78 8.67C41.2533 8.16333 40.99 7.43667 40.99 6.49V5.27C40.99 4.31 41.2367 3.57 41.73 3.05C42.2167 2.53 42.9333 2.27 43.88 2.27C44.5133 2.27 45.04 2.38667 45.46 2.62C45.8867 2.85333 46.2067 3.18667 46.42 3.62C46.64 4.06 46.75 4.58 46.75 5.18V5.43C46.75 5.57667 46.7433 5.72667 46.73 5.88C46.7167 6.02667 46.7 6.17333 46.68 6.32H45.64C45.6467 6.09333 45.6533 5.88 45.66 5.68C45.66 5.48 45.66 5.29667 45.66 5.13C45.66 4.71667 45.5933 4.36667 45.46 4.08C45.3267 3.79333 45.13 3.57333 44.87 3.42C44.6033 3.26667 44.2733 3.19 43.88 3.19C43.2867 3.19 42.8433 3.36 42.55 3.7C42.2567 4.04 42.11 4.52667 42.11 5.16V5.82L42.12 5.96V6.61C42.12 6.89 42.16 7.14667 42.24 7.38C42.3267 7.60667 42.46 7.80333 42.64 7.97C42.82 8.13667 43.05 8.26333 43.33 8.35C43.6033 8.43667 43.9333 8.48 44.32 8.48C44.76 8.48 45.17 8.42 45.55 8.3C45.9367 8.18667 46.2967 8.02667 46.63 7.82L46.53 8.8C46.2233 8.99333 45.87 9.14667 45.47 9.26C45.07 9.37333 44.6233 9.43 44.13 9.43ZM46.44 6.32H41.59V5.47H46.44V6.32ZM49.42 9.28H48.29V0H49.42V9.28ZM51.22 2.45H52.35V6.7C52.35 7.06 52.4 7.37333 52.5 7.64C52.6 7.90667 52.7633 8.11333 52.99 8.26C53.2167 8.40667 53.5233 8.48 53.91 8.48C54.2767 8.48 54.59 8.41333 54.85 8.28C55.11 8.14667 55.3233 7.96333 55.49 7.73C55.6567 7.49667 55.77 7.23333 55.83 6.94L56.03 7.75H55.79C55.7167 8.05667 55.5867 8.33667 55.4 8.59C55.2133 8.84333 54.9633 9.04667 54.65 9.2C54.3367 9.35333 53.95 9.43 53.49 9.43C52.95 9.43 52.5133 9.32667 52.18 9.12C51.8467 8.92 51.6033 8.62333 51.45 8.23C51.2967 7.84333 51.22 7.37333 51.22 6.82V2.45ZM55.78 2.45H56.92V9.28H55.78L55.83 7.64L55.78 7.57V2.45ZM61.42 7.24C60.4933 7.24 59.7833 7.03667 59.29 6.63C58.79 6.22333 58.54 5.64 58.54 4.88V4.71C58.54 4.23667 58.6367 3.82667 58.83 3.48C59.0233 3.12667 59.3333 2.85 59.76 2.65C60.1867 2.45667 60.74 2.35 61.42 2.33L64.91 2.22V3.11L62.85 3.04V3.09C63.17 3.15667 63.4333 3.27 63.64 3.43C63.84 3.59 63.99 3.78667 64.09 4.02C64.1967 4.26 64.25 4.54 64.25 4.86V5.01C64.25 5.73 64.01 6.28333 63.53 6.67C63.0567 7.05 62.3533 7.24 61.42 7.24ZM61.38 11H61.54C61.96 11 62.32 10.97 62.62 10.91C62.92 10.8433 63.15 10.7433 63.31 10.61C63.4767 10.4767 63.56 10.2967 63.56 10.07V10.04C63.56 9.78 63.4667 9.58 63.28 9.44C63.0867 9.30667 62.7633 9.21667 62.31 9.17L60.37 9L60.7 8.99C60.4333 9.02333 60.2033 9.08333 60.01 9.17C59.81 9.25 59.6533 9.36 59.54 9.5C59.4267 9.64 59.37 9.81 59.37 10.01V10.03C59.37 10.27 59.4533 10.46 59.62 10.6C59.78 10.7467 60.01 10.85 60.31 10.91C60.61 10.97 60.9667 11 61.38 11ZM61.52 11.91H61.31C60.6967 11.91 60.1667 11.8567 59.72 11.75C59.2733 11.6433 58.9267 11.4733 58.68 11.24C58.44 11 58.32 10.6833 58.32 10.29V10.26C58.32 9.98 58.3867 9.74667 58.52 9.56C58.6533 9.37333 58.83 9.22667 59.05 9.12C59.2767 9.01333 59.53 8.94 59.81 8.9V8.86C59.4233 8.79333 59.14 8.68 58.96 8.52C58.78 8.36 58.69 8.15 58.69 7.89C58.69 7.71 58.73 7.55667 58.81 7.43C58.89 7.30333 59.0133 7.20333 59.18 7.13C59.3467 7.05667 59.5567 7.01 59.81 6.99V6.85L61.12 7.18L60.58 7.17C60.2667 7.17 60.05 7.20667 59.93 7.28C59.8033 7.35333 59.74 7.46333 59.74 7.61C59.74 7.76333 59.8267 7.88 60 7.96C60.1733 8.04 60.47 8.10333 60.89 8.15L62.54 8.32C63.2667 8.39333 63.7967 8.56667 64.13 8.84C64.4567 9.11333 64.62 9.51667 64.62 10.05V10.08C64.62 10.5067 64.4967 10.8567 64.25 11.13C63.9967 11.3967 63.6367 11.5933 63.17 11.72C62.71 11.8467 62.16 11.91 61.52 11.91ZM61.41 6.4C61.8033 6.4 62.13 6.34 62.39 6.22C62.65 6.10667 62.8433 5.93667 62.97 5.71C63.1033 5.47667 63.17 5.19333 63.17 4.86V4.69C63.17 4.36333 63.1067 4.08333 62.98 3.85C62.8533 3.62333 62.66 3.45 62.4 3.33C62.1467 3.21667 61.8267 3.16 61.44 3.16H61.4C60.98 3.16 60.6367 3.22333 60.37 3.35C60.11 3.47667 59.92 3.65667 59.8 3.89C59.68 4.11667 59.62 4.38333 59.62 4.69V4.86C59.62 5.19333 59.6867 5.47333 59.82 5.7C59.9533 5.93333 60.1533 6.10667 60.42 6.22C60.6867 6.34 61.0167 6.4 61.41 6.4ZM65.86 2.45H66.98V6.7C66.98 7.06 67.03 7.37333 67.13 7.64C67.23 7.90667 67.3967 8.11333 67.63 8.26C67.8567 8.40667 68.1633 8.48 68.55 8.48C68.9167 8.48 69.23 8.41333 69.49 8.28C69.75 8.14667 69.9633 7.96333 70.13 7.73C70.2967 7.49667 70.41 7.23333 70.47 6.94L70.67 7.75H70.43C70.3567 8.05667 70.2267 8.33667 70.04 8.59C69.8533 8.84333 69.6033 9.04667 69.29 9.2C68.9767 9.35333 68.5867 9.43 68.12 9.43C67.5867 9.43 67.1533 9.32667 66.82 9.12C66.4867 8.92 66.2433 8.62333 66.09 8.23C65.9367 7.84333 65.86 7.37333 65.86 6.82V2.45ZM70.42 2.45H71.55V9.28H70.42L70.47 7.64L70.42 7.57V2.45Z" fill="black"/>
</svg>
