<svg width="100" height="12" viewBox="0 0 100 12" fill="none" xmlns="http://www.w3.org/2000/svg">
<path d="M4.73 0L7.7 8.92H6.7L5.86 6.37H2.33L1.5 8.92H0.5L3.46 0H4.73ZM2.6 5.54H5.59L4.09 0.940001L2.6 5.54ZM14.58 4.99V8.92H13.64V4.99C13.64 4.41667 13.5167 3.97333 13.27 3.66C13.0233 3.34667 12.6233 3.19 12.07 3.19C11.7233 3.19 11.41 3.27 11.13 3.43C10.85 3.59 10.6133 3.80333 10.42 4.07C10.22 4.33667 10.07 4.64333 9.97 4.99C9.86333 5.33 9.81 5.68667 9.81 6.06V8.92H8.88V2.55H9.81V4.15C10.2633 2.98333 11.07 2.4 12.23 2.4C13.7967 2.4 14.58 3.26333 14.58 4.99ZM22.72 5.75C22.72 6.25 22.64 6.70333 22.48 7.11C22.3267 7.51667 22.1033 7.86333 21.81 8.15C21.5167 8.44333 21.1633 8.67 20.75 8.83C20.3433 8.99667 19.8867 9.08 19.38 9.08C18.88 9.08 18.4267 8.99667 18.02 8.83C17.6067 8.67 17.2533 8.44333 16.96 8.15C16.6667 7.86333 16.44 7.51667 16.28 7.11C16.1267 6.70333 16.05 6.25 16.05 5.75C16.05 5.27 16.1267 4.82 16.28 4.4C16.44 3.98667 16.6667 3.63333 16.96 3.34C17.2533 3.04667 17.6067 2.81667 18.02 2.65C18.4267 2.48333 18.88 2.4 19.38 2.4C19.8867 2.4 20.3433 2.48333 20.75 2.65C21.1633 2.81667 21.5167 3.04667 21.81 3.34C22.1033 3.63333 22.3267 3.98667 22.48 4.4C22.64 4.82 22.72 5.27 22.72 5.75ZM21.78 5.75C21.78 5.39 21.7267 5.05667 21.62 4.75C21.5133 4.44333 21.3567 4.17333 21.15 3.94C20.9367 3.70667 20.6833 3.52333 20.39 3.39C20.09 3.25667 19.7533 3.19 19.38 3.19C19.0067 3.19 18.67 3.25667 18.37 3.39C18.07 3.52333 17.8167 3.70667 17.61 3.94C17.41 4.17333 17.2567 4.44333 17.15 4.75C17.0367 5.05667 16.98 5.39 16.98 5.75C16.98 6.11667 17.0367 6.45333 17.15 6.76C17.2567 7.06667 17.41 7.33333 17.61 7.56C17.8167 7.78 18.07 7.95667 18.37 8.09C18.67 8.21667 19.0067 8.28 19.38 8.28C19.7533 8.28 20.09 8.21667 20.39 8.09C20.6833 7.95667 20.9367 7.78 21.15 7.56C21.3567 7.33333 21.5133 7.06667 21.62 6.76C21.7267 6.45333 21.78 6.11667 21.78 5.75ZM29.86 4.99V8.92H28.92V4.99C28.92 4.41667 28.7967 3.97333 28.55 3.66C28.3033 3.34667 27.9067 3.19 27.36 3.19C27.0133 3.19 26.7 3.27 26.42 3.43C26.1333 3.59 25.8933 3.80333 25.7 4.07C25.5067 4.33667 25.3567 4.64333 25.25 4.99C25.15 5.33 25.1 5.68667 25.1 6.06V8.92H24.16V2.55H25.1V4.15C25.5533 2.98333 26.3567 2.4 27.51 2.4C29.0767 2.4 29.86 3.26333 29.86 4.99ZM36.92 2.55H38.04L34.59 10.53C34.4167 10.9767 34.1667 11.27 33.84 11.41C33.52 11.55 33.1633 11.62 32.77 11.62C32.33 11.62 31.8933 11.54 31.46 11.38L31.64 10.57C31.8533 10.6633 32.0633 10.73 32.27 10.77C32.4767 10.81 32.6433 10.83 32.77 10.83C33.0767 10.83 33.29 10.7533 33.41 10.6C33.5233 10.4533 33.6233 10.2767 33.71 10.07L34.1 9.1L31.26 2.55H32.37L34.66 8.12L36.92 2.55ZM45.48 4.34V8.92H44.55V4.34C44.55 3.97333 44.4867 3.69 44.36 3.49C44.2267 3.29 44.04 3.19 43.8 3.19C43.4467 3.19 43.1867 3.37667 43.02 3.75C42.8533 4.12333 42.77 4.64667 42.77 5.32V8.92H41.83V4.34C41.83 3.97333 41.7633 3.69 41.63 3.49C41.5033 3.29 41.3167 3.19 41.07 3.19C40.85 3.19 40.6733 3.25667 40.54 3.39C40.4067 3.52333 40.3033 3.69333 40.23 3.9C40.1567 4.1 40.1067 4.32667 40.08 4.58C40.06 4.83333 40.05 5.08 40.05 5.32V8.92H39.11V2.55H40.05V3.47C40.2433 2.75667 40.67 2.4 41.33 2.4C41.95 2.4 42.3733 2.71333 42.6 3.34C42.9067 2.71333 43.3433 2.4 43.91 2.4C44.4567 2.4 44.8533 2.56 45.1 2.88C45.3533 3.2 45.48 3.68667 45.48 4.34ZM53.29 5.75C53.29 6.25 53.21 6.70333 53.05 7.11C52.8967 7.51667 52.6733 7.86333 52.38 8.15C52.0867 8.44333 51.7333 8.67 51.32 8.83C50.9133 8.99667 50.4567 9.08 49.95 9.08C49.45 9.08 48.9967 8.99667 48.59 8.83C48.1767 8.67 47.8233 8.44333 47.53 8.15C47.2367 7.86333 47.01 7.51667 46.85 7.11C46.6967 6.70333 46.62 6.25 46.62 5.75C46.62 5.27 46.6967 4.82 46.85 4.4C47.01 3.98667 47.2367 3.63333 47.53 3.34C47.8233 3.04667 48.1767 2.81667 48.59 2.65C48.9967 2.48333 49.45 2.4 49.95 2.4C50.4567 2.4 50.9133 2.48333 51.32 2.65C51.7333 2.81667 52.0867 3.04667 52.38 3.34C52.6733 3.63333 52.8967 3.98667 53.05 4.4C53.21 4.82 53.29 5.27 53.29 5.75ZM52.35 5.75C52.35 5.39 52.2967 5.05667 52.19 4.75C52.0833 4.44333 51.9267 4.17333 51.72 3.94C51.5067 3.70667 51.2533 3.52333 50.96 3.39C50.66 3.25667 50.3233 3.19 49.95 3.19C49.5767 3.19 49.24 3.25667 48.94 3.39C48.64 3.52333 48.3867 3.70667 48.18 3.94C47.98 4.17333 47.8267 4.44333 47.72 4.75C47.6133 5.05667 47.56 5.39 47.56 5.75C47.56 6.11667 47.6133 6.45333 47.72 6.76C47.8267 7.06667 47.98 7.33333 48.18 7.56C48.3867 7.78 48.64 7.95667 48.94 8.09C49.24 8.21667 49.5767 8.28 49.95 8.28C50.3233 8.28 50.66 8.21667 50.96 8.09C51.2533 7.95667 51.5067 7.78 51.72 7.56C51.9267 7.33333 52.0833 7.06667 52.19 6.76C52.2967 6.45333 52.35 6.11667 52.35 5.75ZM54.73 6.49V2.55H55.67V6.49C55.67 7.05667 55.7933 7.49667 56.04 7.81C56.2867 8.12333 56.6867 8.28 57.24 8.28C57.5867 8.28 57.9 8.2 58.18 8.04C58.46 7.88 58.6967 7.66667 58.89 7.4C59.0833 7.13333 59.2333 6.82667 59.34 6.48C59.44 6.14 59.49 5.78333 59.49 5.41V2.55H60.43V8.92H59.49V7.33C59.0433 8.49667 58.24 9.08 57.08 9.08C55.5133 9.08 54.73 8.21667 54.73 6.49ZM68.24 7.16C68.24 7.53333 68.1467 7.84333 67.96 8.09C67.7733 8.33667 67.5333 8.53 67.24 8.67C66.9467 8.81667 66.6167 8.92 66.25 8.98C65.89 9.04667 65.5367 9.08 65.19 9.08C64.61 9.08 64.0333 8.99333 63.46 8.82C62.8867 8.65333 62.39 8.43333 61.97 8.16L62.39 7.35C62.8567 7.65 63.32 7.88 63.78 8.04C64.2333 8.2 64.7033 8.28 65.19 8.28C66.5967 8.28 67.3 7.91333 67.3 7.18C67.3 7.00667 67.2433 6.86333 67.13 6.75C67.0167 6.63667 66.86 6.54667 66.66 6.48C66.4667 6.40667 66.2433 6.35 65.99 6.31C65.7367 6.27 65.47 6.23 65.19 6.19C64.8367 6.14333 64.4833 6.08333 64.13 6.01C63.7833 5.94333 63.4633 5.84333 63.17 5.71C62.8833 5.57 62.65 5.38667 62.47 5.16C62.2967 4.93333 62.21 4.63333 62.21 4.26C62.21 3.94 62.29 3.66333 62.45 3.43C62.6167 3.19667 62.8333 3.00333 63.1 2.85C63.3733 2.69667 63.6933 2.58333 64.06 2.51C64.42 2.43667 64.7967 2.4 65.19 2.4C65.75 2.4 66.2533 2.46333 66.7 2.59C67.14 2.72333 67.5367 2.91 67.89 3.15L67.52 3.88C67.1533 3.62667 66.7833 3.45 66.41 3.35C66.0367 3.24333 65.63 3.19 65.19 3.19C64.9967 3.19 64.78 3.20667 64.54 3.24C64.3 3.27333 64.0767 3.33333 63.87 3.42C63.67 3.50667 63.5 3.61667 63.36 3.75C63.22 3.88333 63.15 4.05333 63.15 4.26C63.15 4.43333 63.2067 4.57667 63.32 4.69C63.44 4.79667 63.5967 4.88333 63.79 4.95C63.9833 5.02333 64.2067 5.08 64.46 5.12C64.7133 5.16 64.98 5.2 65.26 5.24C65.6067 5.28667 65.9567 5.34333 66.31 5.41C66.6633 5.48333 66.9833 5.58333 67.27 5.71C67.5633 5.84333 67.7967 6.02333 67.97 6.25C68.15 6.48333 68.24 6.78667 68.24 7.16ZM83.68 2.55C83.68 3.41 83.4133 4.05 82.88 4.47C82.34 4.89 81.5833 5.1 80.61 5.1H78.6V8.92H77.66V0H80.6C81.58 0 82.34 0.213333 82.88 0.64C83.4133 1.06667 83.68 1.70333 83.68 2.55ZM82.75 2.55C82.75 1.93667 82.5567 1.49 82.17 1.21C81.7767 0.936667 81.2567 0.8 80.61 0.8H78.6V4.3H80.61C81.2567 4.3 81.7767 4.16333 82.17 3.89C82.5567 3.61 82.75 3.16333 82.75 2.55ZM91.3 2.68L90.99 3.44C90.65 3.27333 90.25 3.19 89.79 3.19C89.4033 3.19 89.06 3.27333 88.76 3.44C88.46 3.6 88.2067 3.81333 88 4.08C87.7867 4.34667 87.6233 4.65333 87.51 5C87.4033 5.34667 87.35 5.7 87.35 6.06V8.12H88.79V8.92H84.97V8.12H86.41V3.35H84.97V2.55H87.35V4.15C87.7767 2.98333 88.59 2.4 89.79 2.4C90.11 2.4 90.39 2.42 90.63 2.46C90.87 2.5 91.0933 2.57333 91.3 2.68ZM99.15 5.75C99.15 6.25 99.07 6.70333 98.91 7.11C98.75 7.51667 98.5233 7.86333 98.23 8.15C97.9367 8.44333 97.5867 8.67 97.18 8.83C96.7667 8.99667 96.3067 9.08 95.8 9.08C95.3067 9.08 94.8533 8.99667 94.44 8.83C94.0333 8.67 93.6833 8.44333 93.39 8.15C93.0967 7.86333 92.87 7.51667 92.71 7.11C92.55 6.70333 92.47 6.25 92.47 5.75C92.47 5.27 92.55 4.82 92.71 4.4C92.87 3.98667 93.0967 3.63333 93.39 3.34C93.6833 3.04667 94.0333 2.81667 94.44 2.65C94.8533 2.48333 95.3067 2.4 95.8 2.4C96.3067 2.4 96.7667 2.48333 97.18 2.65C97.5867 2.81667 97.9367 3.04667 98.23 3.34C98.5233 3.63333 98.75 3.98667 98.91 4.4C99.07 4.82 99.15 5.27 99.15 5.75ZM98.21 5.75C98.21 5.39 98.1567 5.05667 98.05 4.75C97.9433 4.44333 97.7833 4.17333 97.57 3.94C97.3633 3.70667 97.11 3.52333 96.81 3.39C96.51 3.25667 96.1733 3.19 95.8 3.19C95.4267 3.19 95.0933 3.25667 94.8 3.39C94.5 3.52333 94.2467 3.70667 94.04 3.94C93.8333 4.17333 93.6767 4.44333 93.57 4.75C93.4633 5.05667 93.41 5.39 93.41 5.75C93.41 6.11667 93.4633 6.45333 93.57 6.76C93.6767 7.06667 93.8333 7.33333 94.04 7.56C94.2467 7.78 94.5 7.95667 94.8 8.09C95.0933 8.21667 95.4267 8.28 95.8 8.28C96.1733 8.28 96.51 8.21667 96.81 8.09C97.11 7.95667 97.3633 7.78 97.57 7.56C97.7833 7.33333 97.9433 7.06667 98.05 6.76C98.1567 6.45333 98.21 6.11667 98.21 5.75Z" fill="black"/>
</svg>
