<svg width="30" height="11" viewBox="0 0 30 11" fill="none" xmlns="http://www.w3.org/2000/svg">
<path d="M7.54 10.15L6.62 7.56H2.31L1.41 10.15H0.5L4.04 0.35H4.9L8.56 10.15H7.54ZM4.42 1.41L2.54 6.86H6.37L4.42 1.41ZM10.55 3.08V3.92C11.25 3.40667 11.9133 3.13667 12.54 3.11C13.1067 3.11 13.5467 3.18 13.86 3.32C14.1667 3.46 14.42 3.65667 14.62 3.91C14.82 4.17 14.92 4.53333 14.92 5V10.15H14.01V5.24C14.01 4.89333 13.9367 4.62667 13.79 4.44C13.49 4.09333 13.03 3.92 12.41 3.92C11.8233 3.94667 11.2033 4.13667 10.55 4.49V10.15H9.64V3.15L10.55 3.08ZM19.64 9.14L19.81 9.9C19.6367 10.0667 19.3333 10.15 18.9 10.15C18.28 10.15 17.8633 9.99 17.65 9.67C17.2833 9.33 17.1 8.86333 17.1 8.27V3.96H16.32L16.45 3.15H17.1V1.76L18.01 1.68V3.15H19.64V3.96H18.01V8.5C18.01 9.04 18.29 9.31 18.85 9.31C19.0967 9.31 19.36 9.25333 19.64 9.14ZM21.37 3.15L22.28 3.08V10.15H21.37V3.15ZM21.79 1.27C21.6033 1.27 21.4633 1.21 21.37 1.09C21.27 0.97 21.22 0.816667 21.22 0.63C21.22 0.443333 21.2733 0.293334 21.38 0.18C21.4867 0.0600003 21.6333 0 21.82 0C22.0067 0 22.16 0.0600003 22.28 0.18C22.3933 0.293334 22.45 0.453334 22.45 0.66C22.45 0.866667 22.3867 1.02 22.26 1.12C22.1333 1.22 21.9767 1.27 21.79 1.27ZM28.58 5.56L28.51 4.09C28.13 3.97 27.74 3.91 27.34 3.91C26.5267 3.91 25.8733 4.17 25.38 4.69C24.8933 5.21 24.65 5.94667 24.65 6.9C24.65 8.56 25.42 9.39 26.96 9.39C27.5733 9.39 28.2067 9.29 28.86 9.09C28.9933 9.05 29.0733 9.02 29.1 9L29.33 9.76C29.0033 9.95333 28.41 10.0933 27.55 10.18C27.3033 10.2 27.0467 10.21 26.78 10.21C25.9867 10.21 25.3333 10.0133 24.82 9.62C24.1 9.08 23.74 8.18667 23.74 6.94C23.74 5.7 24.0733 4.74667 24.74 4.08C25.4067 3.41333 26.2667 3.08 27.32 3.08C27.66 3.08 28.0167 3.12333 28.39 3.21C28.77 3.30333 29.0633 3.44333 29.27 3.63V5.46L28.58 5.56Z" fill="black"/>
</svg>
