<svg width="66.038" height="16.66" viewBox="0 0 66.038 16.66" xmlns="http://www.w3.org/2000/svg"><path transform="translate(0 13.16) scale(.014 -.014)" d="M488 0V55H549L503 185H195L150 55H222V0H20V55H86L319 700H380L621 55H690V0ZM346 624 212 235H485Z"/><path transform="translate(9.954 13.16) scale(.014 -.014)" d="m50 450v50h132v-56q82 56 157 59 73 0 111-29 17-13 30.5-40.5t13.5-65.5v-318h77v-50h-202v50h60v293q0 97-114 97-62-2-133-41v-349h75v-50h-202v50h62v400z"/><path transform="translate(18.774 13.16) scale(.014 -.014)" d="m268 49 39 2 3-40q-1 0-14-3-30-7-67-7-34 2-62 11.5t-52 40-24 78.5v311h-51l8 48 44 9 8 96 56 5v-100h121v-58h-121v-294q0-99 112-99z"/><path transform="translate(23.674 13.16) scale(.014 -.014)" d="m59 450v50h132v-450h75v-50h-202v50h62v400zm98 184q-20 0-31 12.5t-11 33 11.5 33 31.5 12.5 32.5-12.5 12.5-34-13-33-33-11.5z"/><path transform="translate(28.098 13.16) scale(.014 -.014)" d="m300 446q-85 0-137.5-56.5t-52.5-158.5q0-177 165-177 64 0 107 10.5t47 13.5l14-47q-23-15-76-25t-96-10-78 9-70.5 32-56.5 72.5-21 120.5q0 131 67 198 75 77 189 77 36 0 76.5-9.5t62.5-29.5v-131l-49-7-5 105q-41 13-86 13z"/><path transform="translate(38.976 13.16) scale(.014 -.014)" d="m238 59q111 0 165 56 31 32 31 76t-21.5 72.5-55.5 44-75.5 27-83 24.5-75.5 31-55.5 51-21.5 79q0 80 60 131t159 51 186-20v-1h3l11-125-49-8-11 84q-56 10-123.5 10t-117.5-29.5-50-83.5 40-82 97-42.5 114-32.5 97-62 40-116q0-97-72-146t-179-49q-135 0-226 61l1 106 49 5 2-76q76-36 161-36z"/><path transform="translate(46.354 13.16) scale(.014 -.014)" d="M60 700V750H192V50H267V0H65V50H127V700Z"/><path transform="translate(50.652 13.16) scale(.014 -.014)" d="m182-4q-133 0-141 105-1 7-1 14 0 84 101 112 56 14 216 32v77q0 109-114 109-82-1-174-38l-17 43 10 4q78 34 119 41t60 7.5 36.5-0.5 45.5-9 48.5-22.5 35.5-43.5 15-69v-308h77v-50h-132l-10 38q-90-42-175-42zm18 46q76 0 157 34v143q-150-5-194-20-34-9-48-32.5t-14-37.5 0-19q3-36 31-52t68-16z"/><path transform="translate(58.198 13.16) scale(.014 -.014)" d="m50 700v50h132v-290q60 49 134 49 68 0 128-42 32-23 51.5-72t19.5-119q0-133-66-200-75-76-190-76-43 0-85.5 7t-56.5 16v677zm132-275v-369q29-7 63-7 99 0 152 58t53 164q0 123-72 161-35 19-84.5 19t-111.5-26z"/></svg>