<svg width="39" height="13" viewBox="0 0 39 13" fill="none" xmlns="http://www.w3.org/2000/svg">
<path d="M1.85 12.48H0.5L2.33 0.45H4.03L6.02 12.48H4.69L4.34 10.18H2.16L1.85 12.48ZM3.2 2.68L2.32 9.03H4.17L3.22 2.68H3.2ZM8.74 12.48H7.34V2.23H8.74V3.31C8.83333 2.99 9.02667 2.71 9.32 2.47C9.62 2.22333 9.97667 2.1 10.39 2.1C10.91 2.1 11.3133 2.28 11.6 2.64C11.8867 3.00667 12.03 3.56 12.03 4.3V12.48H10.63V4.31C10.63 3.94333 10.5467 3.68 10.38 3.52C10.2133 3.35333 10.0033 3.27 9.75 3.27C9.56333 3.27 9.39333 3.31333 9.24 3.4C9.08667 3.48 8.96333 3.60667 8.87 3.78C8.78333 3.95333 8.74 4.17667 8.74 4.45V12.48ZM16.73 12.54H15.77C15.33 12.54 15 12.4867 14.78 12.38C14.5533 12.28 14.4 12.1133 14.32 11.88C14.2467 11.6467 14.21 11.34 14.21 10.96V3.35H13.27V2.31H14.21V0.45H15.61V2.31H16.72V3.35H15.61V10.83C15.61 11.0033 15.6333 11.1333 15.68 11.22C15.7267 11.3067 15.83 11.3633 15.99 11.39C16.1433 11.4167 16.39 11.43 16.73 11.43V12.54ZM20.19 12.6C19.7033 12.6 19.31 12.5167 19.01 12.35C18.71 12.1833 18.48 11.9467 18.32 11.64C18.16 11.3333 18.05 10.9667 17.99 10.54C17.93 10.1067 17.9 9.62333 17.9 9.09V5.46C17.9 4.82 17.96 4.24667 18.08 3.74C18.2067 3.23333 18.4333 2.83333 18.76 2.54C19.0933 2.24667 19.57 2.1 20.19 2.1C20.6567 2.1 21.0367 2.18333 21.33 2.35C21.63 2.51667 21.86 2.75333 22.02 3.06C22.1867 3.36 22.3 3.71333 22.36 4.12C22.42 4.52667 22.45 4.97333 22.45 5.46V9.09C22.45 9.61667 22.4233 10.0933 22.37 10.52C22.3167 10.9467 22.21 11.3167 22.05 11.63C21.8967 11.9433 21.67 12.1833 21.37 12.35C21.07 12.5167 20.6767 12.6 20.19 12.6ZM20.19 11.43C20.4367 11.43 20.62 11.35 20.74 11.19C20.86 11.0233 20.94 10.7933 20.98 10.5C21.02 10.2067 21.04 9.86667 21.04 9.48V5.18C21.04 4.8 21.02 4.46667 20.98 4.18C20.94 3.89333 20.86 3.67 20.74 3.51C20.6133 3.35 20.43 3.27 20.19 3.27C19.9367 3.27 19.7467 3.35 19.62 3.51C19.4867 3.67 19.4033 3.89333 19.37 4.18C19.33 4.46667 19.31 4.8 19.31 5.18V9.48C19.31 9.86667 19.33 10.2067 19.37 10.5C19.4033 10.7933 19.4867 11.0233 19.62 11.19C19.7467 11.35 19.9367 11.43 20.19 11.43ZM25.68 12.48H24.28V2.23H25.68V3.31C25.7733 2.99 25.9667 2.71 26.26 2.47C26.56 2.22333 26.9167 2.1 27.33 2.1C27.85 2.1 28.2533 2.28 28.54 2.64C28.8267 3.00667 28.97 3.56 28.97 4.3V12.48H27.57V4.31C27.57 3.94333 27.4867 3.68 27.32 3.52C27.1533 3.35333 26.9433 3.27 26.69 3.27C26.5033 3.27 26.3333 3.31333 26.18 3.4C26.0267 3.48 25.9033 3.60667 25.81 3.78C25.7233 3.95333 25.68 4.17667 25.68 4.45V12.48ZM32.34 12.48H30.94V2.23H32.34V12.48ZM32.34 1.28H30.94V0H32.34V1.28ZM36.5 12.6C36.02 12.6 35.6267 12.5167 35.32 12.35C35.02 12.1833 34.79 11.9467 34.63 11.64C34.47 11.3333 34.36 10.9667 34.3 10.54C34.24 10.1067 34.21 9.62333 34.21 9.09V5.46C34.21 4.82 34.27 4.24667 34.39 3.74C34.5167 3.23333 34.7433 2.83333 35.07 2.54C35.4033 2.24667 35.88 2.1 36.5 2.1C36.9667 2.1 37.3467 2.18333 37.64 2.35C37.94 2.51667 38.17 2.75333 38.33 3.06C38.4967 3.36 38.61 3.71333 38.67 4.12C38.73 4.52667 38.76 4.97333 38.76 5.46V9.09C38.76 9.61667 38.7333 10.0933 38.68 10.52C38.6267 10.9467 38.52 11.3167 38.36 11.63C38.2067 11.9433 37.98 12.1833 37.68 12.35C37.38 12.5167 36.9867 12.6 36.5 12.6ZM36.5 11.43C36.7467 11.43 36.93 11.35 37.05 11.19C37.17 11.0233 37.25 10.7933 37.29 10.5C37.33 10.2067 37.35 9.86667 37.35 9.48V5.18C37.35 4.8 37.33 4.46667 37.29 4.18C37.25 3.89333 37.17 3.67 37.05 3.51C36.9233 3.35 36.74 3.27 36.5 3.27C36.2467 3.27 36.0567 3.35 35.93 3.51C35.7967 3.67 35.7133 3.89333 35.68 4.18C35.64 4.46667 35.62 4.8 35.62 5.18V9.48C35.62 9.86667 35.64 10.2067 35.68 10.5C35.7133 10.7933 35.7967 11.0233 35.93 11.19C36.0567 11.35 36.2467 11.43 36.5 11.43Z" fill="black"/>
</svg>
