<svg width="48.357" height="21.075" viewBox="0 0 48.357 21.075" xmlns="http://www.w3.org/2000/svg"><path transform="translate(0 16.468) scale(.0068359 -.0068359)" d="M30 0 200 1760H797L964 0H631L606 284H394L372 0ZM419 565H579L502 1460H486Z"/><path transform="translate(6.7949 16.468) scale(.0068359 -.0068359)" d="m72 0v1500h358v-191q20 86 74.5 146.5t151.5 60.5q156 0 226.5-96t70.5-263v-1157h-353v1120q0 44-18 81.5t-62 37.5q-41 0-60.5-28.5t-24.5-71-5-84.5v-1055z"/><path transform="translate(13.774 16.468) scale(.0068359 -.0068359)" d="m380-16q-145 0-195.5 61.5t-50.5 188.5v935h-101v273h101v318h348v-318h101v-273h-101v-851q0-37 12-52t46-15q24 0 43 4v-244q-12-4-75-15.5t-128-11.5z"/><path transform="translate(18.047 16.468) scale(.0068359 -.0068359)" d="m508-16q-448 0-448 465v602q0 212 119 338.5t329 126.5q211 0 330-126.5t119-338.5v-602q0-465-449-465zm0 276q45 0 64.5 32.5t19.5 82.5v733q0 131-84 131t-84-131v-733q0-50 19.5-82.5t64.5-32.5z"/><path transform="translate(24.999 16.468) scale(.0068359 -.0068359)" d="m72 0v1500h358v-191q20 86 74.5 146.5t151.5 60.5q156 0 226.5-96t70.5-263v-1157h-353v1120q0 44-18 81.5t-62 37.5q-41 0-60.5-28.5t-24.5-71-5-84.5v-1055z"/><path transform="translate(35.26 16.468) scale(.0068359 -.0068359)" d="m496-16q-241 0-347.5 120t-106.5 382v172h348v-220q0-61 18.5-95.5t64.5-34.5q48 0 66.5 28t18.5 92q0 81-16 135.5t-55.5 104-109.5 115.5l-158 150q-177 167-177 382 0 225 104.5 343t302.5 118q242 0 343.5-129t101.5-392h-358v121q0 36-20.5 56t-55.5 20q-42 0-61.5-23.5t-19.5-60.5 20-80 79-99l203-195q61-58 112-122.5t82-150 31-208.5q0-248-91.5-388.5t-318.5-140.5z"/><path transform="translate(41.72 16.468) scale(.0068359 -.0068359)" d="m488-16q-191 0-307.5 119t-116.5 333v812q0 256 101.5 392t330.5 136q125 0 222.5-46t153.5-137.5 56-230.5v-304h-350v260q0 79-20 106.5t-62 27.5q-49 0-66-35.5t-17-94.5v-881q0-73 21.5-103t61.5-30q45 0 63.5 37t18.5 96v317h354v-333q0-232-117-336.5t-327-104.5z"/></svg>