<svg width="58" height="15" viewBox="0 0 58 15" fill="none" xmlns="http://www.w3.org/2000/svg">
<path d="M3.66 1.52L0.5 10.99H1.98L2.81 8.37H6.57L7.39 10.99H8.88L5.71 1.52H3.66ZM6.32 7.4H3.06L4.68 2.37H4.7L6.32 7.4ZM10.03 2.7V10.99H11.45V4.3L11.15 2.7H10.03ZM15.23 6.25V10.99H16.65V6.24C16.65 5.11333 16.45 4.22667 16.05 3.58C15.65 2.93333 14.97 2.61 14.01 2.61C13.0433 2.61 12.2533 2.91 11.64 3.51C11.0267 4.11667 10.72 4.76 10.72 5.44L11.4 5.87C11.4 5.21667 11.6033 4.67667 12.01 4.25C12.4167 3.82333 12.9133 3.61 13.5 3.61C14.08 3.61 14.5133 3.81 14.8 4.21C15.0867 4.61 15.23 5.29 15.23 6.25ZM17.5 2.7L19.92 10.99H22.09L24.49 2.7H23L21.01 10.02H20.99L18.98 2.7H17.5ZM17.84 13.24V14.22C18.9133 14.22 19.7933 14.0067 20.48 13.58C21.1733 13.1533 21.71 12.29 22.09 10.99H20.77C20.5033 11.8967 20.1467 12.5 19.7 12.8C19.2533 13.0933 18.6333 13.24 17.84 13.24ZM25.57 0V10.99H26.86L26.99 9.66V0H25.57ZM29.63 11.05C30.6233 11.05 31.3633 10.6967 31.85 9.99C32.3433 9.28333 32.59 8.23 32.59 6.83C32.59 5.42333 32.3433 4.37 31.85 3.67C31.3633 2.97 30.6233 2.62 29.63 2.62C28.7233 2.62 27.9533 2.84667 27.32 3.3C26.68 3.75333 26.36 4.22667 26.36 4.72L26.98 5.47C26.98 4.99 27.1933 4.56 27.62 4.18C28.0533 3.8 28.5633 3.61 29.15 3.61C29.7767 3.61 30.2667 3.84 30.62 4.3C30.98 4.76 31.16 5.60333 31.16 6.83C31.16 8.06333 30.98 8.91 30.62 9.37C30.2667 9.83 29.7767 10.06 29.15 10.06C28.5633 10.06 28.0533 9.87 27.62 9.49C27.1933 9.11 26.98 8.67333 26.98 8.18L26.36 8.95C26.36 9.43667 26.68 9.90667 27.32 10.36C27.9533 10.82 28.7233 11.05 29.63 11.05ZM37.35 11.05C38.5967 11.05 39.5167 10.7033 40.11 10.01C40.7033 9.32333 41 8.26 41 6.82C41 5.37333 40.7033 4.31 40.11 3.63C39.5167 2.94333 38.5967 2.6 37.35 2.6C36.1167 2.6 35.2 2.94333 34.6 3.63C34.0067 4.31 33.71 5.37333 33.71 6.82C33.71 8.26 34.0067 9.32333 34.6 10.01C35.2 10.7033 36.1167 11.05 37.35 11.05ZM37.35 10.07C36.7033 10.07 36.17 9.84333 35.75 9.39C35.33 8.93667 35.12 8.08333 35.12 6.83C35.12 5.57 35.33 4.71333 35.75 4.26C36.17 3.80667 36.7033 3.58 37.35 3.58C38.0033 3.58 38.54 3.80667 38.96 4.26C39.38 4.71333 39.59 5.57 39.59 6.83C39.59 8.08333 39.38 8.93667 38.96 9.39C38.54 9.84333 38.0033 10.07 37.35 10.07ZM47.73 9.62L47.82 10.99H49.13V0H47.73V9.62ZM45.1 11.05C46.0067 11.05 46.7733 10.82 47.4 10.36C48.0267 9.90667 48.34 9.43667 48.34 8.95L47.73 8.18C47.73 8.66667 47.5167 9.1 47.09 9.48C46.67 9.86667 46.1667 10.06 45.58 10.06C44.9533 10.06 44.4567 9.83333 44.09 9.38C43.73 8.92 43.55 8.07 43.55 6.83C43.55 5.59 43.73 4.74333 44.09 4.29C44.4567 3.83667 44.9533 3.61 45.58 3.61C46.1667 3.61 46.67 3.8 47.09 4.18C47.5167 4.56 47.73 4.99 47.73 5.47L48.34 4.72C48.34 4.22667 48.0267 3.75333 47.4 3.3C46.7733 2.84667 46.0067 2.62 45.1 2.62C44.1067 2.62 43.3633 2.96667 42.87 3.66C42.37 4.35333 42.12 5.41 42.12 6.83C42.12 8.24333 42.37 9.3 42.87 10C43.3633 10.7 44.1067 11.05 45.1 11.05ZM50.08 2.7L52.5 10.99H54.66L57.07 2.7H55.58L53.59 10.02H53.57L51.56 2.7H50.08ZM50.42 13.24V14.22C51.4933 14.22 52.3733 14.0067 53.06 13.58C53.7533 13.1533 54.2867 12.29 54.66 10.99H53.35C53.0833 11.8967 52.7267 12.5 52.28 12.8C51.8333 13.0933 51.2133 13.24 50.42 13.24Z" fill="black"/>
</svg>
