<svg width="87.767" height="17.5" viewBox="0 0 87.767 17.5" xmlns="http://www.w3.org/2000/svg"><path transform="translate(0 13.74) scale(.0068359 -.0068359)" d="m-11 110q83 0 125.5 25.5t65.5 83.5l540 1281h171l494-1281q27-64 60-86.5t129-22.5v-110h-617v110q132 0 156.5 18t23 39-13.5 52l-90 251h-581l-103-251q-23-60 14-84.5t173-24.5v-110h-547zm1005 470-232 648-265-648z"/><path transform="translate(10.808 13.74) scale(.0068359 -.0068359)" d="m82 110q86 0 108 17.5t26.5 37.5 4.5 50v551q0 72-12.5 94t-67.5 22h-61v110q95 0 147.5 14.5t75 21 48.5 6.5q51 0 68.5-30t17.5-98v-20q86 101 195 136 39 12 78 12 75 0 116.5-43t41.5-106-40-103-97-40q-56 0-92.5 40t-32.5 100q-41-6-87.5-37.5t-81.5-85.5v-535q0-38 6.5-60.5t35-38 171.5-15.5v-110h-568z"/><path transform="translate(16.939 13.74) scale(.0068359 -.0068359)" d="m381 117q-43-41-43-117h-148v1291q0 72-12.5 94t-68.5 22h-71v110q97 0 152.5 14.5t79 21 50.5 6.5q53 0 69.5-30.5t16.5-97.5v-536q107 139 306.5 139t317-127.5 117.5-375.5-122.5-399.5-342.5-151.5q-181 0-301 137zm278-17q118 0 186.5 109t68.5 289q0 287-136 382-49 33-115.5 33t-114.5-32-80-88q-67-115-67-298t69.5-289 188.5-106z"/><path transform="translate(25.375 13.74) scale(.0068359 -.0068359)" d="m823 164q-125-184-334-184-151 0-235 93t-84 278v415q0 72-12.5 94t-67.5 22h-26v110q92 0 133.5 14.5t59.5 21 44 6.5q51 0 68-31.5t17-100.5v-558q0-110 23-150 44-77 151-77 72 0 142 57t99 133v459q-2 74-14 95t-67 21h-57v110q95 0 146.5 14.5t73.5 21 48 6.5q51 0 68.5-30t17.5-98v-640q0-97 9-120 16-44 80-44 34 0 58 11v-97q-48-36-131-36-174 0-210 184z"/><path transform="translate(33.51 13.74) scale(.0068359 -.0068359)" d="m499-20q-315 0-315 350v500q0 39-9.5 51.5t-40.5 12.5h-82v120h37q76 0 111.5 48t38.5 158l1 89h160v-295h307v-120h-307v-561q0-186 86-222 24-10 48-10 105 0 137 173h116q-10-205-171-272-52-22-117-22z"/><path transform="translate(39.231 13.74) scale(.0068359 -.0068359)" d="m823 164q-125-184-334-184-151 0-235 93t-84 278v415q0 72-12.5 94t-67.5 22h-26v110q92 0 133.5 14.5t59.5 21 44 6.5q51 0 68-31.5t17-100.5v-558q0-110 23-150 44-77 151-77 72 0 142 57t99 133v459q-2 74-14 95t-67 21h-57v110q95 0 146.5 14.5t73.5 21 48 6.5q51 0 68.5-30t17.5-98v-640q0-97 9-120 16-44 80-44 34 0 58 11v-97q-48-36-131-36-174 0-210 184z"/><path transform="translate(47.366 13.74) scale(.0068359 -.0068359)" d="m638 881q-51 51-167 51t-157-84q-11-24-11-54.5t24-59 62-54 85.5-49.5 98.5-52 108-59q209-114 209-252.5t-108-213-286.5-74.5-294.5 64-116 165q0 55 36.5 93t93 38 93.5-35.5 37-84.5-34-83q80-46 198.5-46t166.5 55q20 22 20 57 0 83-184 173-128 63-192 99-205 116-205 280 0 126 104.5 202t266.5 76 272.5-60.5 110.5-156.5q0-56-27-83-47-47-90-47-70 0-105.5 35.5t-35.5 81.5 27 78z"/><path transform="translate(58.693 13.74) scale(.0068359 -.0068359)" d="m840 1330q-52 70-222.5 70t-235.5-114q-22-39-22-96 0-105 94-192 62-58 171.5-119t184.5-109q283-180 283-394 0-190-139.5-293t-361-103-355 87.5-133.5 201 91 153.5q28 13 61 13 63 0 103.5-42t40.5-106-58-109q78-78 258.5-78t247.5 122q24 42 24 98 0 97-100 180-52 43-175.5 111.5t-194.5 114.5q-261 168-261 396 0 178 134.5 288t333 110 326-85 127.5-207q0-66-40.5-110.5t-102.5-44.5q-95 0-132 83-11 25-11 53 0 77 64 121z"/><path transform="translate(66.808 13.74) scale(.0068359 -.0068359)" d="m70 110q87 0 119.5 24t32.5 83v1083q0 72-12.5 94t-68.5 22h-81v110q101 0 158 14.5t81.5 21 51.5 6.5q52 0 69.5-30t17.5-98v-1223q0-62 26.5-84.5t123.5-22.5v-110h-518z"/><path transform="translate(71.319 13.74) scale(.0068359 -.0068359)" d="m955 239q0-119 47-119 45 0 66 30.5t21 110.5h105q1-13 1-41 0-90-45-156-55-84-175-84-78 0-133 44t-76 116q-145-160-367-160-122 0-212.5 71.5t-90.5 199.5q0 222 328 328 208 66 249 91.5t53.5 52 12.5 59.5q0 59-58 98.5t-151 39.5-164-50q50-37 50-95t-38.5-93-93-35-90 33-35.5 92q0 117 118 189.5t287 72.5q302 0 369-196 22-65 22-150zm-484-120q116 0 192 81.5t76 227.5v154q-64-33-135.5-60t-89.5-34q-88-38-132-97.5t-44-129.5 38-106 95-36z"/><path transform="translate(79.331 13.74) scale(.0068359 -.0068359)" d="m381 117q-43-41-43-117h-148v1291q0 72-12.5 94t-68.5 22h-71v110q97 0 152.5 14.5t79 21 50.5 6.5q53 0 69.5-30.5t16.5-97.5v-536q107 139 306.5 139t317-127.5 117.5-375.5-122.5-399.5-342.5-151.5q-181 0-301 137zm278-17q118 0 186.5 109t68.5 289q0 287-136 382-49 33-115.5 33t-114.5-32-80-88q-67-115-67-298t69.5-289 188.5-106z"/></svg>