<svg width="48" height="11" viewBox="0 0 48 11" fill="none" xmlns="http://www.w3.org/2000/svg">
<path d="M1.87 10.12H0.5L4.29 0.52H6.04L9.85 10.12H8.41L7.47 7.74H2.79L1.87 10.12ZM4.4 3.6L3.23 6.61H7.02L5.86 3.6C5.83333 3.51333 5.79 3.39667 5.73 3.25C5.67667 3.09667 5.61667 2.93 5.55 2.75C5.48333 2.57 5.42 2.38333 5.36 2.19C5.29333 1.99667 5.23 1.82 5.17 1.66H5.09C5.02333 1.84667 4.95 2.06333 4.87 2.31C4.78333 2.55 4.69667 2.78333 4.61 3.01C4.53 3.24333 4.46 3.44 4.4 3.6ZM12.15 10.12H10.91V2.76H11.91L12.02 3.97H12.12C12.1933 3.73667 12.2967 3.51667 12.43 3.31C12.5567 3.09667 12.7333 2.92333 12.96 2.79C13.18 2.65667 13.4533 2.59 13.78 2.59C13.92 2.59 14.05 2.6 14.17 2.62C14.2833 2.64667 14.37 2.67333 14.43 2.7V3.83H13.97C13.65 3.83 13.3767 3.88667 13.15 4C12.9167 4.10667 12.7267 4.25667 12.58 4.45C12.4333 4.64333 12.3233 4.87667 12.25 5.15C12.1833 5.42333 12.15 5.71333 12.15 6.02V10.12ZM18.22 10.29C17.5133 10.29 16.92 10.1533 16.44 9.88C15.96 9.6 15.5933 9.17333 15.34 8.6C15.0933 8.02667 14.97 7.30667 14.97 6.44C14.97 5.57333 15.0933 4.85333 15.34 4.28C15.5933 3.71333 15.9633 3.29 16.45 3.01C16.9433 2.73 17.5467 2.59 18.26 2.59C18.7667 2.59 19.2033 2.65333 19.57 2.78C19.9433 2.91333 20.25 3.10667 20.49 3.36C20.73 3.61333 20.91 3.91667 21.03 4.27C21.1433 4.62333 21.2 5.03 21.2 5.49H19.96C19.96 5.05667 19.9 4.70333 19.78 4.43C19.6667 4.15667 19.4833 3.95 19.23 3.81C18.9767 3.67667 18.6467 3.61 18.24 3.61C17.8267 3.61 17.47 3.7 17.17 3.88C16.87 4.06667 16.6433 4.35333 16.49 4.74C16.33 5.13333 16.25 5.65333 16.25 6.3V6.59C16.25 7.19667 16.3267 7.7 16.48 8.1C16.6333 8.50667 16.86 8.80333 17.16 8.99C17.46 9.17667 17.8233 9.27 18.25 9.27C18.67 9.27 19.0067 9.19333 19.26 9.04C19.52 8.89333 19.7067 8.68 19.82 8.4C19.94 8.12 20 7.78333 20 7.39H21.2C21.2 7.80333 21.1433 8.18667 21.03 8.54C20.91 8.89333 20.73 9.2 20.49 9.46C20.25 9.72 19.9433 9.92333 19.57 10.07C19.1967 10.2167 18.7467 10.29 18.22 10.29ZM23.92 10.12H22.69V0H23.92V3.68H24.02C24.2067 3.42667 24.4167 3.22 24.65 3.06C24.8833 2.90667 25.14 2.79 25.42 2.71C25.7067 2.63 26.02 2.59 26.36 2.59C26.8267 2.59 27.2333 2.67 27.58 2.83C27.9333 2.98333 28.21 3.24 28.41 3.6C28.61 3.95333 28.71 4.43333 28.71 5.04V10.12H27.48V5.21C27.48 4.89667 27.44 4.64333 27.36 4.45C27.28 4.25667 27.17 4.10333 27.03 3.99C26.8967 3.87667 26.7333 3.79667 26.54 3.75C26.3533 3.70333 26.1433 3.68 25.91 3.68C25.5633 3.68 25.2367 3.76 24.93 3.92C24.6233 4.08667 24.3767 4.32667 24.19 4.64C24.01 4.95333 23.92 5.33667 23.92 5.79V10.12ZM31.8 1.37H30.57V0H31.8V1.37ZM31.8 10.12H30.57V2.76H31.8V10.12ZM36.9 10.12H35.67L32.94 2.76H34.22L35.57 6.44C35.6367 6.61333 35.71 6.83333 35.79 7.1C35.8767 7.36667 35.9633 7.63667 36.05 7.91C36.1367 8.19 36.21 8.43667 36.27 8.65H36.34C36.4067 8.44333 36.48 8.20333 36.56 7.93C36.6467 7.65667 36.7333 7.38667 36.82 7.12C36.9067 6.85333 36.9833 6.62667 37.05 6.44L38.38 2.76H39.63L36.9 10.12ZM43.73 10.29C42.9833 10.29 42.3567 10.1533 41.85 9.88C41.3367 9.6 40.9467 9.17667 40.68 8.61C40.42 8.03667 40.29 7.31333 40.29 6.44C40.29 5.55333 40.42 4.82667 40.68 4.26C40.9467 3.69333 41.3367 3.27333 41.85 3C42.3567 2.72667 42.9833 2.59 43.73 2.59C44.4767 2.59 45.1033 2.72667 45.61 3C46.1233 3.27333 46.51 3.69333 46.77 4.26C47.03 4.82667 47.16 5.55333 47.16 6.44C47.16 7.31333 47.03 8.03667 46.77 8.61C46.51 9.17667 46.1233 9.6 45.61 9.88C45.1033 10.1533 44.4767 10.29 43.73 10.29ZM43.73 9.25C44.2033 9.25 44.6 9.15667 44.92 8.97C45.24 8.78333 45.48 8.49333 45.64 8.1C45.8067 7.7 45.89 7.19667 45.89 6.59V6.28C45.89 5.66667 45.8067 5.16333 45.64 4.77C45.48 4.37667 45.24 4.08667 44.92 3.9C44.6 3.71333 44.2033 3.62 43.73 3.62C43.2567 3.62 42.8567 3.71333 42.53 3.9C42.21 4.08667 41.97 4.37667 41.81 4.77C41.65 5.16333 41.57 5.66667 41.57 6.28V6.59C41.57 7.19667 41.65 7.7 41.81 8.1C41.97 8.49333 42.21 8.78333 42.53 8.97C42.8567 9.15667 43.2567 9.25 43.73 9.25Z" fill="black"/>
</svg>
