<svg width="91" height="13" viewBox="0 0 91 13" fill="none" xmlns="http://www.w3.org/2000/svg">
<path d="M8.47 9.74C8.23667 9.74 8.06333 9.61667 7.95 9.37C7.83667 9.12333 7.74 8.84667 7.66 8.54L6.9 5.9C6.86 5.82 6.81 5.78 6.75 5.78H3.6C3.54 5.78 3.49333 5.81667 3.46 5.89L1.82 9.36L0.54 9.63L0.5 9.49C1.33333 8.09 2.14667 6.67667 2.94 5.25C3.74 3.81667 4.51 2.37333 5.25 0.92C5.25667 0.893333 5.26 0.86 5.26 0.82C5.26 0.8 5.25 0.773333 5.23 0.74C5.20333 0.7 5.15667 0.676667 5.09 0.67L3.83 0.46V0.0799999H6.55C6.62333 0.46 6.73333 0.943333 6.88 1.53C7.02667 2.11 7.18667 2.72 7.36 3.36C7.54 4 7.70333 4.6 7.85 5.16C8.01 5.73333 8.18667 6.32667 8.38 6.94C8.56667 7.55333 8.78667 8.07 9.04 8.49C9.13333 8.64333 9.26 8.75333 9.42 8.82C9.58 8.88 9.75333 8.91 9.94 8.91C10.04 8.91 10.1433 8.90667 10.25 8.9C10.35 8.89333 10.4467 8.88333 10.54 8.87L10.55 9.24L9.1 9.66C8.89333 9.71333 8.68333 9.74 8.47 9.74ZM5.58 1.54C5.52667 1.54 5.5 1.55667 5.5 1.59L3.88 5.01C3.86667 5.01667 3.86 5.03667 3.86 5.07C3.86 5.10333 3.86 5.12333 3.86 5.13C3.86 5.19667 3.89333 5.23 3.96 5.23H6.59C6.65667 5.23 6.69 5.19667 6.69 5.13C6.69 5.13 6.68667 5.11333 6.68 5.08C6.66667 5.04 6.66 5.01667 6.66 5.01L5.68 1.59C5.66 1.55667 5.62667 1.54 5.58 1.54ZM16.25 4.17L15.5 4.85L15.33 4.78C15.29 4.58667 15.2133 4.40333 15.1 4.23C14.9933 4.05667 14.8233 3.97 14.59 3.97C14.2967 3.97 14.0633 4.07 13.89 4.27C13.71 4.46333 13.5833 4.65333 13.51 4.84C13.4433 4.98667 13.4067 5.2 13.4 5.48C13.3867 5.76 13.3867 6.05667 13.4 6.37C13.4067 6.68333 13.41 6.96667 13.41 7.22C13.41 7.92 13.4233 8.63 13.45 9.35L12.47 9.64L12.26 9.52C12.3067 9.02 12.3467 8.48333 12.38 7.91C12.4133 7.33 12.43 6.76 12.43 6.2C12.43 5.83333 12.4267 5.47 12.42 5.11C12.4067 4.74333 12.36 4.44 12.28 4.2C12.1933 3.95333 12.0433 3.83 11.83 3.83C11.67 3.83 11.4933 3.87667 11.3 3.97C11.1 4.06333 10.9133 4.16333 10.74 4.27L10.57 4.03C10.7567 3.87667 10.96 3.72333 11.18 3.57C11.4 3.41 11.62 3.27 11.84 3.15C12.0667 3.03667 12.2733 2.98 12.46 2.98C12.7733 2.98 13.01 3.07333 13.17 3.26C13.33 3.44667 13.43 3.69 13.47 3.99L13.61 4.04C13.75 3.91333 13.9067 3.77333 14.08 3.62C14.2467 3.46 14.4233 3.32667 14.61 3.22C14.7967 3.11333 14.9767 3.06 15.15 3.06C15.81 3.06 16.1767 3.43 16.25 4.17ZM22.24 4.84C22.24 4.92667 22.21 4.98667 22.15 5.02C22.09 5.06 22.0233 5.09667 21.95 5.13L18 6.84C18.0267 7.13333 18.1033 7.43333 18.23 7.74C18.3567 8.04667 18.55 8.30333 18.81 8.51C19.0633 8.71667 19.3967 8.82 19.81 8.82C20.19 8.82 20.5667 8.72 20.94 8.52C21.3067 8.32667 21.6467 8.10667 21.96 7.86L22.12 7.89L22.3 8.14C22.0133 8.41333 21.7 8.67333 21.36 8.92C21.0133 9.16667 20.6533 9.37 20.28 9.53C19.9 9.69 19.51 9.77 19.11 9.77C18.6433 9.77 18.2567 9.67 17.95 9.47C17.65 9.27667 17.4167 9.02 17.25 8.7C17.0767 8.37333 16.9567 8.01333 16.89 7.62C16.8167 7.22 16.78 6.82667 16.78 6.44C16.78 6.02667 16.8333 5.62333 16.94 5.23C17.04 4.83667 17.2267 4.48333 17.5 4.17C17.8467 3.77 18.26 3.46 18.74 3.24C19.22 3.02 19.7267 2.91 20.26 2.91C20.8667 2.91 21.35 3.09667 21.71 3.47C22.0633 3.84333 22.24 4.3 22.24 4.84ZM19.77 3.47C19.5367 3.47 19.32 3.52 19.12 3.62C18.9133 3.72667 18.7367 3.87333 18.59 4.06C18.3167 4.34667 18.1433 4.65 18.07 4.97C17.99 5.28333 17.95 5.61333 17.95 5.96C17.95 6 17.95 6.04 17.95 6.08C17.9567 6.12 17.9633 6.16333 17.97 6.21L18.03 6.27L20.86 5.15C20.9067 5.13 20.9467 5.09333 20.98 5.04C21.02 4.98 21.04 4.89333 21.04 4.78C21.04 4.58667 20.99 4.38667 20.89 4.18C20.7833 3.97333 20.6333 3.80333 20.44 3.67C20.2533 3.53667 20.03 3.47 19.77 3.47ZM22.57 3.92L22.62 3.61L22.72 3.52H24.19L24.27 3.44C24.27 3.2 24.2867 2.91667 24.32 2.59C24.3467 2.27 24.4167 1.98333 24.53 1.73C24.7433 1.23667 25.0433 0.863333 25.43 0.61C25.8167 0.356667 26.23 0.23 26.67 0.23C27.05 0.23 27.34 0.31 27.54 0.47C27.7333 0.63 27.8767 0.803333 27.97 0.99L27.16 1.75L26.99 1.69C26.97 1.59 26.94 1.47 26.9 1.33C26.86 1.19 26.7833 1.06667 26.67 0.96C26.5633 0.846667 26.4 0.79 26.18 0.79C25.98 0.79 25.8167 0.913333 25.69 1.16C25.57 1.4 25.48 1.72 25.42 2.12C25.3667 2.52667 25.34 2.96667 25.34 3.44L25.39 3.52H27.13L27.2 3.62L27.1 3.93L27 4.01H25.39L25.31 4.1V5.65C25.31 6.30333 25.3233 6.95333 25.35 7.6C25.37 8.25333 25.4033 8.86333 25.45 9.43L24.34 9.77L24.11 9.61C24.1567 8.92333 24.1967 8.24667 24.23 7.58C24.27 6.92 24.29 6.27333 24.29 5.64V4.13L24.2 4.01H22.64L22.57 3.92ZM33.08 4.97L33.05 5.08L36.73 9.22V9.35L35.35 9.71C35.0233 9.29 34.6767 8.85 34.31 8.39C33.95 7.93 33.6033 7.48667 33.27 7.06C32.9367 6.63333 32.6433 6.27 32.39 5.97C32.1433 5.66333 31.9667 5.46 31.86 5.36C31.78 5.27333 31.6867 5.23 31.58 5.23C31.58 5.90333 31.5833 6.57667 31.59 7.25C31.5967 7.93 31.6167 8.60667 31.65 9.28L30.49 9.68L30.34 9.56C30.3933 8.54 30.4267 7.52333 30.44 6.51C30.4533 5.49 30.46 4.47 30.46 3.45C30.46 3.39667 30.46 3.28 30.46 3.1C30.4533 2.92667 30.4467 2.71667 30.44 2.47C30.4333 2.23 30.43 1.98333 30.43 1.73C30.4233 1.47 30.42 1.24333 30.42 1.05C30.42 0.896666 30.3367 0.773333 30.17 0.68C30.01 0.586666 29.8433 0.52 29.67 0.48C29.4967 0.44 29.3867 0.42 29.34 0.42L29.36 0.18L29.44 0.0899997H33.25C34.11 0.0899997 34.7967 0.253333 35.31 0.58C35.83 0.906667 36.09 1.39667 36.09 2.05C36.09 2.69667 35.9533 3.22667 35.68 3.64C35.4133 4.04667 35.0533 4.35333 34.6 4.56C34.1467 4.76667 33.64 4.90333 33.08 4.97ZM31.57 4.42C31.57 4.46 31.58 4.50333 31.6 4.55C31.6133 4.60333 31.6433 4.63 31.69 4.63C32.2033 4.63 32.6933 4.55 33.16 4.39C33.62 4.23 33.9933 3.97667 34.28 3.63C34.5733 3.27667 34.72 2.82667 34.72 2.28C34.72 1.83333 34.6 1.49 34.36 1.25C34.12 1.01 33.8233 0.85 33.47 0.77C33.11 0.683333 32.7467 0.64 32.38 0.64H31.82C31.72 0.64 31.6633 0.76 31.65 1C31.6433 1.18 31.6367 1.41 31.63 1.69C31.6233 1.97 31.6167 2.26333 31.61 2.57C31.6033 2.87667 31.5967 3.17 31.59 3.45C31.5833 3.72333 31.5767 3.95 31.57 4.13C31.57 4.30333 31.57 4.4 31.57 4.42ZM45.68 8.1L45.79 8.13L45.95 8.4C45.73 8.58667 45.49 8.78 45.23 8.98C44.97 9.18667 44.71 9.36 44.45 9.5C44.19 9.64 43.9367 9.71 43.69 9.71C43.3767 9.71 43.1433 9.61333 42.99 9.42C42.8433 9.23333 42.7567 8.99333 42.73 8.7L42.61 8.69C42.35 8.85 42.07 9.01 41.77 9.17C41.4633 9.33667 41.16 9.47333 40.86 9.58C40.5533 9.68667 40.26 9.74 39.98 9.74C39.58 9.74 39.2767 9.65 39.07 9.47C38.8567 9.29667 38.71 9.08 38.63 8.82C38.55 8.55333 38.51 8.29 38.51 8.03C38.51 7.91667 38.5133 7.75333 38.52 7.54C38.5267 7.32667 38.5333 7.10333 38.54 6.87C38.5467 6.63667 38.5533 6.41667 38.56 6.21C38.5667 6.00333 38.57 5.85 38.57 5.75C38.57 5.32333 38.5633 5 38.55 4.78C38.5367 4.56 38.5133 4.4 38.48 4.3C38.4467 4.2 38.3967 4.12 38.33 4.06C38.2567 3.97333 38.1267 3.93 37.94 3.93C37.8467 3.93 37.6967 3.97667 37.49 4.07C37.2833 4.16333 37.1 4.25667 36.94 4.35L36.76 4.07C36.9467 3.93 37.15 3.78 37.37 3.62C37.59 3.46 37.8133 3.32667 38.04 3.22C38.26 3.10667 38.47 3.05 38.67 3.05C39.0233 3.05 39.26 3.14667 39.38 3.34C39.5 3.54 39.5667 3.86333 39.58 4.31C39.5867 4.76333 39.59 5.38667 39.59 6.18C39.59 6.66 39.6067 7.10333 39.64 7.51C39.6733 7.92333 39.7767 8.25667 39.95 8.51C40.1233 8.76333 40.4233 8.89 40.85 8.89C41.17 8.89 41.4867 8.80667 41.8 8.64C42.12 8.48 42.4133 8.31333 42.68 8.14C42.68 7.68667 42.6833 7.17333 42.69 6.6C42.6967 6.02667 42.7 5.49 42.7 4.99C42.7 4.66333 42.7 4.37333 42.7 4.12C42.7 3.86 42.6933 3.65667 42.68 3.51L43.76 3.02L43.94 3.17C43.8333 4.47 43.78 5.77 43.78 7.07C43.78 7.35 43.7867 7.61333 43.8 7.86C43.82 8.10667 43.88 8.30667 43.98 8.46C44.08 8.61333 44.24 8.69 44.46 8.69C44.6467 8.69 44.8533 8.62333 45.08 8.49C45.3 8.36333 45.5 8.23333 45.68 8.1ZM52.15 12.6L51.01 13L50.79 12.78C50.7967 12.64 50.8067 12.42 50.82 12.12C50.8267 11.82 50.8367 11.48 50.85 11.1C50.8567 10.7133 50.8633 10.3267 50.87 9.94C50.8833 9.54667 50.8933 9.18 50.9 8.84L50.8 8.77C50.4467 9.03667 50.0667 9.25667 49.66 9.43C49.2533 9.61 48.8333 9.7 48.4 9.7C48.0333 9.7 47.7233 9.61667 47.47 9.45C47.21 9.27667 47 9.05667 46.84 8.79C46.68 8.51667 46.5667 8.22333 46.5 7.91C46.4267 7.59 46.39 7.28667 46.39 7C46.39 6.51333 46.4567 6.03333 46.59 5.56C46.7233 5.08667 46.9233 4.65667 47.19 4.27C47.4633 3.88333 47.8133 3.57667 48.24 3.35C48.66 3.12333 49.1633 3.01 49.75 3.01C49.97 3.01 50.2067 3.04667 50.46 3.12C50.72 3.2 50.9467 3.29333 51.14 3.4L51.27 3.37L51.88 2.54L52.18 2.6C52.1133 3.41333 52.0633 4.29 52.03 5.23C51.9967 6.16333 51.98 7.09333 51.98 8.02C51.98 8.86667 51.9933 9.68667 52.02 10.48C52.0467 11.2667 52.09 11.9733 52.15 12.6ZM50.9 8.13V4.97C50.9 4.79 50.89 4.60667 50.87 4.42C50.8567 4.23333 50.7933 4.08333 50.68 3.97C50.56 3.84333 50.42 3.73667 50.26 3.65C50.1 3.56333 49.9267 3.52 49.74 3.52C49.22 3.52 48.8067 3.67 48.5 3.97C48.2 4.27 47.9867 4.65667 47.86 5.13C47.74 5.59667 47.68 6.09333 47.68 6.62C47.68 7 47.7333 7.36 47.84 7.7C47.9467 8.04 48.1167 8.31333 48.35 8.52C48.5833 8.72667 48.8933 8.83 49.28 8.83C49.5467 8.83 49.8267 8.76333 50.12 8.63C50.4067 8.50333 50.6667 8.33667 50.9 8.13ZM56.84 3.08C57.06 3.08 57.31 3.12 57.59 3.2C57.8633 3.28667 58.1133 3.41 58.34 3.57L59.08 3.13L59.15 3.2C59.09 4.22 59.06 5.23667 59.06 6.25C59.06 6.47 59.0533 6.72667 59.04 7.02C59.0267 7.32 59.03 7.61 59.05 7.89C59.07 8.17 59.12 8.40333 59.2 8.59C59.2867 8.77667 59.4233 8.87 59.61 8.87C59.71 8.87 59.85 8.84333 60.03 8.79C60.21 8.73 60.3733 8.67333 60.52 8.62L60.62 8.96C60.4333 9.06667 60.2333 9.18333 60.02 9.31C59.8 9.43667 59.59 9.54667 59.39 9.64C59.1833 9.72667 59.0033 9.77 58.85 9.77C58.59 9.77 58.4033 9.69 58.29 9.53C58.1833 9.37 58.1067 9.17333 58.06 8.94L57.85 8.89C57.5033 9.11 57.1367 9.31 56.75 9.49C56.37 9.67667 55.9733 9.77 55.56 9.77C55.1733 9.77 54.8467 9.68667 54.58 9.52C54.32 9.34667 54.11 9.12667 53.95 8.86C53.7967 8.58667 53.6833 8.29 53.61 7.97C53.5433 7.65 53.51 7.33 53.51 7.01C53.51 6.51667 53.5733 6.03667 53.7 5.57C53.82 5.10333 54.0133 4.68 54.28 4.3C54.5467 3.92 54.89 3.62 55.31 3.4C55.73 3.18667 56.24 3.08 56.84 3.08ZM56.54 8.84C56.8133 8.84 57.08 8.77667 57.34 8.65C57.5933 8.51667 57.8233 8.37 58.03 8.21V4.99C58.03 4.80333 58.02 4.62667 58 4.46C57.98 4.29333 57.9133 4.15 57.8 4.03C57.68 3.89667 57.5367 3.78667 57.37 3.7C57.2033 3.61333 57.03 3.57 56.85 3.57C56.3367 3.57 55.8933 3.74667 55.52 4.1C55.36 4.24667 55.2 4.52 55.04 4.92C54.8733 5.32667 54.7833 5.88333 54.77 6.59C54.7567 6.87667 54.78 7.17 54.84 7.47C54.8933 7.76333 55 8.03 55.16 8.27C55.3067 8.50333 55.51 8.65667 55.77 8.73C56.0233 8.80333 56.28 8.84 56.54 8.84ZM64.51 3.08C64.7367 3.08 64.9867 3.12 65.26 3.2C65.5333 3.28667 65.7833 3.41 66.01 3.57L66.75 3.13L66.82 3.2C66.7667 4.22 66.74 5.23667 66.74 6.25C66.74 6.47 66.73 6.72667 66.71 7.02C66.6967 7.32 66.7 7.61 66.72 7.89C66.74 8.17 66.7933 8.40333 66.88 8.59C66.96 8.77667 67.0933 8.87 67.28 8.87C67.3867 8.87 67.5267 8.84333 67.7 8.79C67.88 8.73 68.0433 8.67333 68.19 8.62L68.29 8.96C68.1033 9.06667 67.9033 9.18333 67.69 9.31C67.4767 9.43667 67.2667 9.54667 67.06 9.64C66.8533 9.72667 66.6767 9.77 66.53 9.77C66.2633 9.77 66.0767 9.69 65.97 9.53C65.8567 9.37 65.7767 9.17333 65.73 8.94L65.52 8.89C65.1733 9.11 64.81 9.31 64.43 9.49C64.0433 9.67667 63.6467 9.77 63.24 9.77C62.8467 9.77 62.52 9.68667 62.26 9.52C61.9933 9.34667 61.7833 9.12667 61.63 8.86C61.47 8.58667 61.3533 8.29 61.28 7.97C61.2133 7.65 61.18 7.33 61.18 7.01C61.18 6.51667 61.2433 6.03667 61.37 5.57C61.4967 5.10333 61.6933 4.68 61.96 4.3C62.22 3.92 62.56 3.62 62.98 3.4C63.4 3.18667 63.91 3.08 64.51 3.08ZM64.22 8.84C64.4867 8.84 64.75 8.77667 65.01 8.65C65.2633 8.51667 65.4933 8.37 65.7 8.21V4.99C65.7 4.80333 65.69 4.62667 65.67 4.46C65.65 4.29333 65.5867 4.15 65.48 4.03C65.3533 3.89667 65.2067 3.78667 65.04 3.7C64.8733 3.61333 64.7 3.57 64.52 3.57C64.0067 3.57 63.5633 3.74667 63.19 4.1C63.0367 4.24667 62.8767 4.52 62.71 4.92C62.55 5.32667 62.46 5.88333 62.44 6.59C62.4267 6.87667 62.45 7.17 62.51 7.47C62.5633 7.76333 62.67 8.03 62.83 8.27C62.9767 8.50333 63.18 8.65667 63.44 8.73C63.6933 8.80333 63.9533 8.84 64.22 8.84ZM74.18 9.28L74.16 9.61H70.45V9.25C70.79 9.18333 71.0467 9.12 71.22 9.06C71.3867 9 71.5 8.92 71.56 8.82C71.62 8.72667 71.6533 8.59333 71.66 8.42C71.6733 8.24667 71.6833 8.01333 71.69 7.72V2.64C71.69 2.37333 71.6867 2.10333 71.68 1.83C71.68 1.55667 71.67 1.29 71.65 1.03C71.6433 0.89 71.6133 0.793333 71.56 0.74C71.5067 0.693333 71.3933 0.65 71.22 0.61C71.0467 0.576667 70.7733 0.516666 70.4 0.43V0.12L70.5 0.04H74L74.09 0.12V0.42L73.15 0.63C72.9633 0.676667 72.86 0.796666 72.84 0.99C72.8 1.26333 72.78 1.61 72.78 2.03C72.7733 2.45667 72.7733 2.89667 72.78 3.35C72.7933 3.80333 72.8 4.21 72.8 4.57C72.8 5.03667 72.8 5.49 72.8 5.93C72.8067 6.37 72.8167 6.80333 72.83 7.23C72.8367 7.43 72.8367 7.66333 72.83 7.93C72.8167 8.19667 72.84 8.43333 72.9 8.64C72.9533 8.85333 73.0767 8.98667 73.27 9.04C73.3767 9.06667 73.5 9.1 73.64 9.14C73.78 9.17333 73.9067 9.20667 74.02 9.24C74.1267 9.26667 74.18 9.28 74.18 9.28ZM76.98 9.35L76 9.68L75.79 9.59C75.8033 9.41 75.8167 9.14667 75.83 8.8C75.8433 8.45333 75.8567 8.07333 75.87 7.66C75.8833 7.24667 75.8967 6.84 75.91 6.44C75.9167 6.04667 75.92 5.71 75.92 5.43C75.92 4.96333 75.8933 4.57667 75.84 4.27C75.78 3.97 75.6333 3.82 75.4 3.82C75.2533 3.82 75.0933 3.87 74.92 3.97C74.7467 4.06333 74.5567 4.17667 74.35 4.31L74.11 4C74.31 3.86 74.52 3.71333 74.74 3.56C74.9667 3.40667 75.1933 3.27667 75.42 3.17C75.64 3.06333 75.8333 3.01 76 3.01C76.36 3.01 76.61 3.10333 76.75 3.29C76.89 3.47667 76.9767 3.7 77.01 3.96L77.12 4.04C77.5133 3.8 77.94 3.57333 78.4 3.36C78.8667 3.14 79.3233 3.03 79.77 3.03C79.9767 3.03 80.1767 3.06 80.37 3.12C80.5567 3.17333 80.7167 3.28 80.85 3.44C80.9433 3.55333 81.0067 3.75667 81.04 4.05C81.08 4.34333 81.1033 4.67 81.11 5.03C81.1233 5.39 81.13 5.72 81.13 6.02C81.13 6.72 81.13 7.27 81.13 7.67C81.1367 8.07 81.1833 8.35 81.27 8.51C81.3633 8.67667 81.54 8.76 81.8 8.76C81.96 8.76 82.1433 8.7 82.35 8.58C82.55 8.46 82.74 8.33333 82.92 8.2H83.1L83.23 8.49C82.91 8.81 82.5467 9.1 82.14 9.36C81.7333 9.61333 81.3633 9.74 81.03 9.74C80.65 9.74 80.3867 9.62 80.24 9.38C80.0933 9.13333 80.02 8.84333 80.02 8.51L80.09 6.11C80.09 5.41 80.0033 4.86 79.83 4.46C79.6567 4.06 79.3233 3.86 78.83 3.86C78.5167 3.86 78.2 3.95 77.88 4.13C77.56 4.31667 77.2767 4.51 77.03 4.71C77.01 5.21667 76.99 5.76 76.97 6.34C76.95 6.92 76.94 7.46667 76.94 7.98C76.94 8.17333 76.9467 8.38 76.96 8.6C76.9667 8.82 76.9733 9.07 76.98 9.35ZM85.24 0.0899997V5.88H85.43L87.3 4.15C87.6667 3.81667 87.9433 3.56667 88.13 3.4C88.3167 3.23333 88.46 3.11 88.56 3.03C88.6667 2.95 88.7733 2.87667 88.88 2.81L89.53 3.22V3.37C89.0033 3.67667 88.49 4.00667 87.99 4.36C87.4967 4.72 87.0167 5.09333 86.55 5.48C86.5033 5.52 86.4467 5.56667 86.38 5.62C86.32 5.68 86.29 5.72667 86.29 5.76C86.29 5.8 86.3067 5.84 86.34 5.88C86.3667 5.91333 86.39 5.95 86.41 5.99C86.61 6.25 86.84 6.53 87.1 6.83C87.3533 7.13 87.6133 7.41 87.88 7.67C88.14 7.93667 88.38 8.15667 88.6 8.33C88.8267 8.49667 89.01 8.58 89.15 8.58C89.3833 8.58 89.5867 8.52667 89.76 8.42C89.9333 8.32 90.0933 8.19 90.24 8.03L90.51 8.31C90.3967 8.46333 90.25 8.65 90.07 8.87C89.8833 9.08333 89.6767 9.27667 89.45 9.45C89.2233 9.61667 88.9833 9.7 88.73 9.7C88.5233 9.7 88.3467 9.65 88.2 9.55C88.0467 9.45 87.8533 9.27 87.62 9.01C87.62 9.01 87.5533 8.92 87.42 8.74C87.2867 8.56 87.1067 8.32333 86.88 8.03C86.66 7.74333 86.4167 7.44 86.15 7.12C85.89 6.80667 85.6333 6.51 85.38 6.23L85.22 6.32V9.42L84.22 9.7L84.14 9.6C84.1667 8.5 84.2 7.40667 84.24 6.32C84.2867 5.24 84.31 4.15 84.31 3.05C84.31 2.69667 84.3 2.36 84.28 2.04C84.26 1.72 84.2267 1.46667 84.18 1.28C84.1133 1.06667 83.99 0.92 83.81 0.84C83.63 0.76 83.3533 0.703333 82.98 0.67V0.37L83.05 0.32L85.29 0L85.24 0.0899997Z" fill="black"/>
</svg>
