<svg width="77.84" height="16.8" viewBox="0 0 77.84 16.8" xmlns="http://www.w3.org/2000/svg"><path transform="translate(0 12.32) scale(.014 -.014)" d="m730-86q-4 0-8.5 0.5t-8.5 0.5h-4q-27 0-39.5 11.5t-16.5 28.5-6.5 35.5-11.5 31.5q-3 5-5.5 11.5t-2.5 15.5q0 14 6 24t6 15q0 15 1.5 43t3 56.5 2.5 42.5q1 16 2.5 33.5t1.5 17.5q-1 14-6 17.5t-4 17.5q-49-3-96.5-12t-94.5-20l-12-43q-12-34-18.5-67.5t-25.5-65.5q-21-36-57.5-67.5t-80-51.5-87.5-20q-81 0-124 44t-43 131q0 32 8.5 67.5t26.5 67.5 45.5 55 64.5 29q8 2 16.5 3.5t18.5 1.5q65 0 96.5-39.5t31.5-95.5q0-28-12-43.5t-31-23.5q-22-19-58-19-25 0-38 14-10 5-8 17-1 1-1 2t-1 2q-2 8-2 11 0 12 11 12 13 0 23-12 2 0 3-0.5t2-0.5q11 0 24 0.5t24 4.5q15 15 15 47 0 26-15 45.5t-38 29.5h-6q-19 0-33-1.5t-34-4.5q-4-16-14.5-18t-23.5-4l-1-1q2-15-2.5-21t-11.5-9.5-15-10.5l1-4q3-10 3-19 0-12-10-22l-2-2q5-8 5-13 0-12-13-21 7-7 7-17 0-5-2-11t-5-14l1-2q6-11 16-21t10-24q0-3-0.5-5.5t-1.5-5.5q21-7 22-29l1-1q7-7 22-13t30.5-9.5 25.5-3.5q6 0 11.5 2t11.5 2q7 0 10-1l1 1q11 6 18 1 56 20 99.5 66.5t56.5 101.5q5 23 11 45t12 44l-37-9q-10-3-16.5 4t-6.5 15q0 7 5 12 2 9 11 13 27 16 59 25 4 14 7 27t6 26q4 16 11 44t17.5 59.5 26 60 35 47 44.5 18.5q12 0 21 0t16-2q40-2 59.5-21.5t27.5-48 10-57.5q2-13 2-25.5t0-24.5v-34q0-10 0.5-22.5t0.5-27.5q15-1 29.5-6t27.5-15q10-7 10-17 0-16-19-16-11 0-23.5 3t-26.5 5q-1-16-2-32t-1-32v-85q0-2 0.5-12.5t0.5-21.5q0-8-0.5-14t-2.5-7q-1-7-2.5-25t-1.5-39q0-28 5-53.5t20-33.5h13q5 0 8 3 7 5 12 5 14 0 16-15 1-3 1-8 0-7-5.5-14t-19.5-9q-4-1-7.5-0.5t-7.5 0.5zm-267 428q3 0 6.5 0.5t7.5 0.5q9 5 15 10.5t18 5.5q5 0 9.5-1.5t8.5-3.5q18 0 38.5 4.5t39.5 4.5q11 0 22-1.5t23-3.5q0 13 0.5 28.5t0.5 31.5q0 29-3 57l-3 7q-1 3-6.5 16t-12 30-12.5 29q-20 18-50 18-5 0-7 1-10-6-20.5-20t-18.5-27.5-11-20.5q-16-40-26-82t-19-84z"/><path transform="translate(10.962 12.32) scale(.014 -.014)" d="m5-61q-4-3-10-3-14 0-14 13 0 5 5 12 14 15 20 22t27 11q2 0 3 0.5t2 0.5q6 8 14 22t13.5 29.5 2.5 25.5q-1 4-1.5 7.5t-0.5 6.5q0 15 7.5 24t8.5 17l6 5q1 1 1 1.5t0 0.5q0 4-8 8t-8 11q0 11 6 15.5t9 5.5v20q0 5 1 11t5 10q-2 5-4 9.5t-5 8.5q-13-6-28-7t-29-3h-3q-6 0-9.5 4.5t-3.5 9.5 3 9 9 5q10 2 28.5 2.5t24.5 8.5l3 4q4 5 9.5 8t12.5 1l13-4q15 12 23 16t27 14q8 3 11 3 9 0 9-12 0-9-3.5-20t-6.5-19q6 5 18.5 16t19.5 14q5 8 11 13t16 5q9 0 16-9h16q4 2 8 3.5t9 1.5q11 0 23.5-7.5t13.5-15.5q5-4 10-6.5t8-7.5q4-7 3.5-14t-0.5-15q0-12 0-30.5t-3-33.5-11-17h-6q-13-21-35-35t-56-14q-3 0-4 1-3-1-9-1-16 0-22.5 8.5t-8.5 20.5q-5 12-5 22 0 15 6 28 5 15 14.5 25t26.5 10q9 0 19-3 12-3 12-14 0-6-5-10.5t-14-3.5h-4q-14 0-22-15v-14q0-2-0.5-6.5t-0.5-8.5q6-8 13-9 12 2 26.5 5t19.5 5q-1 3-1 8 0 14 17 22-3 5-3 8 0 12 16 23-10 6-10 17 0 6 2 8t3 5q-5 6-5 12 0 3 1 5.5t1 3.5q0 2-4 4t-18 5q-4-1-9-3t-10-2q-8 0-13 5-4-1-7.5-1.5t-6.5-2.5q-8-9-23.5-18t-30.5-19q-10-10-17-22t-13-26q2-6-5-23t-9-24q-3-25-3.5-40t-0.5-29-3-36q9-2 17.5-4.5t18.5-3.5l1-1q8 0 12-8 13-1 13-14 0-5-4-10t-12-4q-4 0-18.5 2.5t-31.5 6.5q-4 0-8-0.5t-8-1.5q-5-11-18-11h-5q-10-5-19.5-10t-22.5-6q-10 0-15-0.5t-7-1.5q0 0-2-2-1-1-2.5-4.5t-9.5-8.5z"/><path transform="translate(15.526 12.32) scale(.014 -.014)" d="m125 2q-36 0-55 29-13 10-24.5 23.5t-11.5 27.5q0 7 3 14-5 11-1 15l1 1q-3 2-6 6t-3 11q0 10 4 15l-1 1q-1 3-1 9 0 11 7.5 21.5t14.5 17.5q-5 10-5 19 0 20 14.5 39t25.5 31q-2 24 22 24 7 0 15.5 6.5t21.5 6.5q5 0 8-1t6-3q22 0 41.5-22.5t32-51.5 12.5-51q-1-6-7-7.5t-14-2.5h-8q-7 0-13.5 0.5t-9.5 0.5q-10 0-28-1t-36-3-27-6q-10-4-14-21t-4-40q0-11 6-30t17.5-34 28.5-15q22 0 33.5 6t18.5 17q2 5 9 9.5t8 10.5q2 6 8 13t8 14q1 2-0.5 5.5t-1.5 7.5q0 3 2 6.5t8 3.5 11.5-7.5 5.5-21.5q0-3 0-6t-1-6q-3-12-6-15-1-3-4-6t-6-8q-7-8-19.5-20.5t-27-22-26.5-9.5zm-34 199q3-1 6-1t6 0q6 0 11.5 0.5t11.5 1.5q8 1 15.5 1.5t12.5 0.5h14q-1 2-1 6 0 13 15 24-2 11-4 24t-10 22l-9 3q-3 0-5 1-22-1-34-18.5t-19-35.5q-3-6-4.5-12.5t-5.5-16.5z"/><path transform="translate(22.05 12.32) scale(.014 -.014)" d="m229-105q-23 12-23 41v4q-5 5-5 12 0 25 19 38t38 13q7 0 10.5-1.5t11.5-1.5q9 0 20 8.5t23.5 18 25.5 12.5l28 6 5 3-1 2q-3 8-3 14 0 16 9 32.5t7 44.5q-2 27 8 39.5t17 19.5q-1 3-1 10 0 8 2.5 18t7.5 20q0 11-0.5 22t-1.5 21q-4 5-7.5 14t-3.5 22q0 14 1 22.5t1 13.5q0 6-2.5 10t-10.5 11q-11 8-15 16t-4 15q0 10 3.5 20t4.5 22q-1 14-10 23.5t-9 28.5q-43 8-49 50 0 3-0.5 6.5t-2.5 5.5q-16 9-24 15t-16 23q-24 10-53 10h-30q-33 0-66-4.5t-56.5-21.5-28.5-55q-1-7-1-15.5t0-16.5q2-39 12-77.5t28.5-71 46.5-52 64-19.5q44 0 62 17 2 16 14 28 1 5 1 10.5t0 12.5v12q-7 4-11 8t-4 13q0 11 4 24-11 23-25 35-6 2-11 4t-10 3q-3 1-7 5-19 0-19-12 0-10 10-16 12-7 12-15 0-7-7.5-12t-17.5-5q-12 0-23 10.5t-11 37.5q0 19 10 29.5t23 15 23 4.5q15 0 28-5.5t23-14.5q17-8 28.5-22t11.5-35v-5q2-6 4-12t3-13q9-5 15.5-12.5t6.5-19.5q0-16-6.5-26t-13.5-15l-4-3q-2-7-4.5-12.5t-6.5-10.5q0-2 0.5-4.5t0.5-4.5q0-6-3-15-5-14-21.5-25t-35.5-17-32-6q-16 0-28 7.5t-24 7.5q-7 0-12-1.5t-13-1.5q-14 0-19.5 6t-8.5 14-10 14q-21 0-29 10t-9 25.5-3 29.5q-28 8-35 15.5t-7 17.5q0 5 0.5 9.5t0.5 9.5q0 13-4 26-9 26-9 50 0 16 6.5 22.5t7.5 16.5q0 3 0 6t1 7q0 3-0.5 5.5t-0.5 5.5q0 9 1 17t2 15q2 14 5.5 28t10.5 26q13 19 36 33t50.5 20.5 50.5 3.5q3-1 6-0.5t6 0.5q9 14 25 14 36 0 64-3t44-35q42-19 75.5-53t53.5-76 21-86l4-92q12 0 19-6 3-2 10-17 2 7 4.5 11.5t4.5 7.5q0 8-0.5 16t-0.5 17q0 19 5 26t12 10 12 10q5 18 8 27t10 13q8 11 22 13.5t23 6.5q-2 8-2 11t4.5 22 11 39 12.5 25 14 8 16 4q4 4 8 5-1 5-1.5 9t-0.5 8q1 25 17 27.5t32 3.5q5 6 11 11t13 9q4 7 9.5 11.5t21.5 8.5q17 5 35.5 6t35.5-1q13 0 17-13 18-8 33-21.5t15-33.5q0-15-5-33t-18.5-31-39.5-13q-9 0-13.5 5.5t-4.5 12.5 4.5 12.5 13.5 5.5q26 3 26 41 0 5-17.5 17t-36.5 12q-9 0-23-3.5t-27-10.5v-1q-11-19-25-23v-2q-6-25-17.5-32t-22.5-9q-3-5-8.5-7t-13.5-3q-13-17-17.5-34t-8-32-13.5-27q-2-20-11.5-26.5t-35.5-7.5q-1-16-7.5-37.5t-16.5-40.5-20-29q-1-13-5.5-25t-15.5-25l-3-7q2-6 3-9.5t1-4.5q0-10-3-14t-8-6q-1-5-4.5-8.5t-7.5-5.5q-2-6-2-8 0-4 0.5-8t0.5-9q0-7-2-14t-9-12h-1q4-13 6-26 3-18 3-26.5t2-16.5 10-26l1-4h12q9 4 18.5 7.5t19.5 3.5q20 0 42-6t36-17q10-7 10-17 0-7-6-12t-17-4q-25 3-42.5 5.5t-42.5 2.5h-13q-4-1-7.5-2.5t-8.5-2.5q-6-12-22-12-4 0-8 1t-9 1q-16 0-36.5-12t-49.5-12q-4 0-7.5 0.5t-6.5 1.5q-20-4-39-18t-46-18q-6-1-19.5-3t-18.5-5q0-1 6.5-15t6.5-24q0-9-7-9-6 0-19 7z"/><path transform="translate(31.682 12.32) scale(.014 -.014)" d="m142-1q-34 0-53.5 14.5t-33.5 36.5q-4 5-2 14-10 10-19.5 23t-9.5 28q0 6 3 11t7 9v1q0 8 6 13.5t12 9.5q-5 6-5 14 0 7 4 13t10 11l3 4q-1 14 7 17.5t17 6.5q7 8 16 13.5t19 11.5q13 12 29 19 11 6 20 12t24 6q5 0 9.5-1t8.5-3q17-3 25-13.5t8-19.5q0-12-10-12t-24 11q-5-5-12-5h-24q-4 0-8.5-1t-8.5-3q-5-4-10.5-7t-10.5-6q-7-7-14.5-13.5t-16.5-11.5q-13-20-12-31.5t0-36.5q0-1 1.5-9.5t-0.5-10.5q11-6 14.5-19t5.5-27 7.5-24 20.5-10q29 0 53 10.5t34 35.5q0 4-0.5 7.5t-0.5 7.5q0 6 2 11.5t9 9.5l4 2q9 15 9 35 0 16-6.5 29t-20.5 17q-21 0-34-4-4-2-8.5-4.5t-7.5-5.5q-8-6-10.5-15t-2.5-19q0-7 0.5-14t1.5-12q2-6 6.5-11.5t9.5-12.5q6-7 6-13 0-10-15-10-12 0-25.5 11.5t-12.5 36.5q-1 4-1.5 8t-0.5 9h-1q0 26 11.5 47.5t34.5 29.5q32 15 73 15 28 0 42-17.5t19-42 5-45.5q0 2-3-8t-8.5-25-12-27-13.5-13q-10 0-16-7-6-14-23-14l-2-3q-1-1-2.5-1.5t-3.5-1.5l-3-4q-13-18-40.5-22.5t-48.5-4.5z"/><path transform="translate(36.47 12.32) scale(.014 -.014)" d="m303-12q-7-7-13-7-12 0-12 17 0 16-3 32.5t-6 32.5q-7 0-12.5-0.5t-10.5-1.5q-12-7-26-11-4-4-8.5-9t-14.5-12q-7-5-16.5-8.5t-20.5-3.5q-4 0-7.5 1t-5.5 2l-2 1-2-1q-4-4-9-6.5t-11-2.5q-9 0-15 5.5t-11 11.5q-33 4-33 23 0 10 8 31-13 13-13 25 0 11 12 21-11 10-11 18 0 7 6 13.5t11 15.5q-1 4-1 10 0 17 5.5 30t5.5 23q0 11-13 18t-54 10q-7 0-10 4.5t-3 8.5q0 15 15 15h18q17 0 29 1t28 1q28 0 60 8 13 7 26 11t25 15q4 4 10 4t10.5-4.5 4.5-9.5q0-6-5-11-10-11-26-19t-33-13q-5-3-9-8-8-9-14-32.5t-8.5-48-2.5-38.5v-30q0-10 0.5-20t2.5-18l12-9q6-5 14-5 9 0 17 4.5t18 4.5q2 0 5 0t5 1q9 5 25 10 8 3 17 6.5t19 3.5q14 0 23 16t15 38v14q0 25 4.5 45.5t7.5 42.5q-8 13-25 23-4-1-6.5-1t-4.5-1q-1 0-2-0.5t-3-0.5q-8 0-12 5t-4 10q0 11 11 14 5 5 13 5 2 0 5 0t6-2q14 3 28 3 21 0 38.5 1t33.5 6q13 16 28.5 27.5t33.5 15.5q2 0 3.5 0.5t2.5 0.5q13 0 13-12 0-7-5-12-27-33-58-45-18-25-32-46t-14-42q0-15-2-30.5t-13-17.5q-1-6-1.5-12.5t-0.5-12.5q0-7 0-13.5t-2-12.5q0-7-3-16t-3-17q0-3 2-9 20 12 39.5 22.5t38.5 19.5q9 5 14.5-1t5.5-14q0-10-8-15-23-15-40.5-19.5t-50.5-15.5q-13-9-23-24.5t-20-26.5z"/><path transform="translate(45.402 12.32) scale(.014 -.014)" d="m112-129q-48 0-76 36-20 14-31.5 34.5t-16.5 45.5q-5 11-9 20.5t-4 17.5q0 11 3.5 19.5t6.5 16.5q2 13 4 26.5t6 26.5q4 32 10 63t25.5 51 60.5 19q18-1 30.5 8.5t30.5 9.5q23 0 36-10t30-21q2-1 3-2t2-3q30-26 30-82 0-55-28-81.5t-76-26.5q-15 0-24.5 9.5t-13.5 19.5l-1 6v35q0 10 5.5 14.5t12.5 4.5 12.5-4.5 6.5-14.5l2-33q33 0 50 15.5t17 55.5q0 36-15 52.5t-56 16.5q-43 0-71.5-31.5t-42.5-76.5q-1-26-9-52-1-6-1-12.5t0-13.5 0-14 1-13q8-16 19.5-35.5t19.5-31.5q21-12 55-12 62 0 113 31.5t81 84 30 114.5q0 14-3.5 39.5t-12.5 36.5q-11 5-17.5 12.5t-10.5 15.5q-22 19-48.5 33t-54.5 27l-6 3q-15 1-33 14.5t-25 43.5q-18 26-29.5 54.5t-11.5 52.5v2q-5 8-5 19 0 41 17.5 65.5t45 36.5 58 16 55.5 4q21 0 45-9 5 0 10.5-1.5t7.5-6.5q17-9 30-23 18-14 27.5-37t9.5-42q0-27-7.5-51t-27-39-57.5-15q-26 0-50 13t-24 44q0 17 10 36t34 23q10 2 15.5-4t5.5-14q0-6-3.5-11t-11.5-7q-4-1-8.5-6.5t-4.5-16.5q0-13 13.5-16.5t23.5-3.5q33 0 44 17t11 51q0 26-17 43-6 4-8 8-7 4-15 4-17 0-22.5 4.5t-4.5 11.5l-4-1q-3-1-5.5-0.5t-3.5 0.5h-5q-4-3-11-3h-32q-10-7-18-13t-14-17q-8-13-22-19t-16-9q-3-13-2.5-27t0.5-28q5-9 6-21 1-4 1.5-10t0.5-12q8-17 20.5-33t22.5-33l6-3q14-7 26-12.5t23-11.5q2 0 3.5 0.5t2.5 0.5q26 0 38-13t22-30q11-10 21-23 16-2 23.5-9t8.5-28q2-17 15-38.5t13-54.5q0-16-5.5-23.5t-4.5-26.5q2-23-6.5-32.5t-18.5-25.5q0 1-0.5 1t-0.5 1q-5-19-8-34t-11.5-25-28.5-17l-8-4q-7-25-16-30.5t-19.5-4-24.5-4.5q0 0-2-4l-2-4q-6-12-23.5-18t-40-8.5-42.5-2.5-31 0z"/><path transform="translate(51.114 12.32) scale(.014 -.014)" d="m125 2q-36 0-55 29-13 10-24.5 23.5t-11.5 27.5q0 7 3 14-5 11-1 15l1 1q-3 2-6 6t-3 11q0 10 4 15l-1 1q-1 3-1 9 0 11 7.5 21.5t14.5 17.5q-5 10-5 19 0 20 14.5 39t25.5 31q-2 24 22 24 7 0 15.5 6.5t21.5 6.5q5 0 8-1t6-3q22 0 41.5-22.5t32-51.5 12.5-51q-1-6-7-7.5t-14-2.5h-8q-7 0-13.5 0.5t-9.5 0.5q-10 0-28-1t-36-3-27-6q-10-4-14-21t-4-40q0-11 6-30t17.5-34 28.5-15q22 0 33.5 6t18.5 17q2 5 9 9.5t8 10.5q2 6 8 13t8 14q1 2-0.5 5.5t-1.5 7.5q0 3 2 6.5t8 3.5 11.5-7.5 5.5-21.5q0-3 0-6t-1-6q-3-12-6-15-1-3-4-6t-6-8q-7-8-19.5-20.5t-27-22-26.5-9.5zm-34 199q3-1 6-1t6 0q6 0 11.5 0.5t11.5 1.5q8 1 15.5 1.5t12.5 0.5h14q-1 2-1 6 0 13 15 24-2 11-4 24t-10 22l-9 3q-3 0-5 1-22-1-34-18.5t-19-35.5q-3-6-4.5-12.5t-5.5-16.5z"/><path transform="translate(54.922 12.32) scale(.014 -.014)" d="m5-61q-4-3-10-3-14 0-14 13 0 5 5 12 14 15 20 22t27 11q2 0 3 0.5t2 0.5q6 8 14 22t13.5 29.5 2.5 25.5q-1 4-1.5 7.5t-0.5 6.5q0 15 7.5 24t8.5 17l6 5q1 1 1 1.5t0 0.5q0 4-8 8t-8 11q0 11 6 15.5t9 5.5v20q0 5 1 11t5 10q-2 5-4 9.5t-5 8.5q-13-6-28-7t-29-3h-3q-6 0-9.5 4.5t-3.5 9.5 3 9 9 5q10 2 28.5 2.5t24.5 8.5l3 4q4 5 9.5 8t12.5 1l13-4q15 12 23 16t27 14q8 3 11 3 9 0 9-12 0-9-3.5-20t-6.5-19q6 5 18.5 16t19.5 14q5 8 11 13t16 5q9 0 16-9h16q4 2 8 3.5t9 1.5q11 0 23.5-7.5t13.5-15.5q5-4 10-6.5t8-7.5q4-7 3.5-14t-0.5-15q0-12 0-30.5t-3-33.5-11-17h-6q-13-21-35-35t-56-14q-3 0-4 1-3-1-9-1-16 0-22.5 8.5t-8.5 20.5q-5 12-5 22 0 15 6 28 5 15 14.5 25t26.5 10q9 0 19-3 12-3 12-14 0-6-5-10.5t-14-3.5h-4q-14 0-22-15v-14q0-2-0.5-6.5t-0.5-8.5q6-8 13-9 12 2 26.5 5t19.5 5q-1 3-1 8 0 14 17 22-3 5-3 8 0 12 16 23-10 6-10 17 0 6 2 8t3 5q-5 6-5 12 0 3 1 5.5t1 3.5q0 2-4 4t-18 5q-4-1-9-3t-10-2q-8 0-13 5-4-1-7.5-1.5t-6.5-2.5q-8-9-23.5-18t-30.5-19q-10-10-17-22t-13-26q2-6-5-23t-9-24q-3-25-3.5-40t-0.5-29-3-36q9-2 17.5-4.5t18.5-3.5l1-1q8 0 12-8 13-1 13-14 0-5-4-10t-12-4q-4 0-18.5 2.5t-31.5 6.5q-4 0-8-0.5t-8-1.5q-5-11-18-11h-5q-10-5-19.5-10t-22.5-6q-10 0-15-0.5t-7-1.5q0 0-2-2-1-1-2.5-4.5t-9.5-8.5z"/><path transform="translate(59.486 12.32) scale(.014 -.014)" d="m207 378q-15 0-31 12.5t-16 30.5q0 8 9 17t15 14l14 11q2 2 6.5 2.5t7.5 0.5q13 0 22-12.5t9-21.5q0-8-3.5-21t-11-23-21.5-10zm10-386t-6 2q-2 0-5 1t-6 2q-7 2-13 3.5t-8 1.5q-4 0-10-2t-8-2q-1 0-3.5 1t-3.5 1q-3 1-6 2t-7 1q-5 2-12 1.5t-10-0.5l-61-1q-3 0-4 1-8-4-14-4h-3q-7-10-14-10t-11 8-4 18q0 14 14 14h3q6 5 14 5 3 0 9-2 6 2 10 2 6 0 10.5-1.5t10.5-1.5q5 0 13 4t14 8l3 9q-7 12-7 21 0 12 14 20-3 6-3 11 0 7 7 14-9 5-9 13 0 5 4 12 2 2 3 4-11 5-11 19 0 12 12 14 0 2-0.5 3t-0.5 2q0 6 3 10t7 7q-7 8-5 17-4 4-13 2-1 0-2-0.5t-3-0.5q-6-2-8-2l-10 2q-2-2-2-3-11-10-19.5-12t-8.5-2q-14 0-14 15 0 5 3.5 9.5t10.5 4.5h3q8 14 26 22t34 10q5 3 10 6t9 6q2 1 3.5 3t2.5 3l2 2q1 1 1 1.5t0 0.5l8 5 9 5q1 0 5 4 3 3 8.5 8t9.5 4q10 0 12.5-5t2.5-13q1-7 0-9-1-1-2.5-4.5t-3.5-11.5q-4-13-7.5-28.5t-7.5-30.5q-1-4 0-8.5t0-9.5q-2-10-4-19.5t-3-19.5q-1-12-1.5-29.5t-0.5-31 0-16.5 1.5-13 3.5-17q6-14 21-25 2-1 5-2t5-2l12-3q4-1 7.5-3t3.5-5v-1q0-5-5-9.5t-10-4.5z"/><path transform="translate(62.888 12.32) scale(.014 -.014)" d="m142-1q-34 0-53.5 14.5t-33.5 36.5q-4 5-2 14-10 10-19.5 23t-9.5 28q0 6 3 11t7 9v1q0 8 6 13.5t12 9.5q-5 6-5 14 0 7 4 13t10 11l3 4q-1 14 7 17.5t17 6.5q7 8 16 13.5t19 11.5q13 12 29 19 11 6 20 12t24 6q5 0 9.5-1t8.5-3q17-3 25-13.5t8-19.5q0-12-10-12t-24 11q-5-5-12-5h-24q-4 0-8.5-1t-8.5-3q-5-4-10.5-7t-10.5-6q-7-7-14.5-13.5t-16.5-11.5q-13-20-12-31.5t0-36.5q0-1 1.5-9.5t-0.5-10.5q11-6 14.5-19t5.5-27 7.5-24 20.5-10q29 0 53 10.5t34 35.5q0 4-0.5 7.5t-0.5 7.5q0 6 2 11.5t9 9.5l4 2q9 15 9 35 0 16-6.5 29t-20.5 17q-21 0-34-4-4-2-8.5-4.5t-7.5-5.5q-8-6-10.5-15t-2.5-19q0-7 0.5-14t1.5-12q2-6 6.5-11.5t9.5-12.5q6-7 6-13 0-10-15-10-12 0-25.5 11.5t-12.5 36.5q-1 4-1.5 8t-0.5 9h-1q0 26 11.5 47.5t34.5 29.5q32 15 73 15 28 0 42-17.5t19-42 5-45.5q0 2-3-8t-8.5-25-12-27-13.5-13q-10 0-16-7-6-14-23-14l-2-3q-1-1-2.5-1.5t-3.5-1.5l-3-4q-13-18-40.5-22.5t-48.5-4.5z"/><path transform="translate(67.676 12.32) scale(.014 -.014)" d="m303-12q-7-7-13-7-12 0-12 17 0 16-3 32.5t-6 32.5q-7 0-12.5-0.5t-10.5-1.5q-12-7-26-11-4-4-8.5-9t-14.5-12q-7-5-16.5-8.5t-20.5-3.5q-4 0-7.5 1t-5.5 2l-2 1-2-1q-4-4-9-6.5t-11-2.5q-9 0-15 5.5t-11 11.5q-33 4-33 23 0 10 8 31-13 13-13 25 0 11 12 21-11 10-11 18 0 7 6 13.5t11 15.5q-1 4-1 10 0 17 5.5 30t5.5 23q0 11-13 18t-54 10q-7 0-10 4.5t-3 8.5q0 15 15 15h18q17 0 29 1t28 1q28 0 60 8 13 7 26 11t25 15q4 4 10 4t10.5-4.5 4.5-9.5q0-6-5-11-10-11-26-19t-33-13q-5-3-9-8-8-9-14-32.5t-8.5-48-2.5-38.5v-30q0-10 0.5-20t2.5-18l12-9q6-5 14-5 9 0 17 4.5t18 4.5q2 0 5 0t5 1q9 5 25 10 8 3 17 6.5t19 3.5q14 0 23 16t15 38v14q0 25 4.5 45.5t7.5 42.5q-8 13-25 23-4-1-6.5-1t-4.5-1q-1 0-2-0.5t-3-0.5q-8 0-12 5t-4 10q0 11 11 14 5 5 13 5 2 0 5 0t6-2q14 3 28 3 21 0 38.5 1t33.5 6q13 16 28.5 27.5t33.5 15.5q2 0 3.5 0.5t2.5 0.5q13 0 13-12 0-7-5-12-27-33-58-45-18-25-32-46t-14-42q0-15-2-30.5t-13-17.5q-1-6-1.5-12.5t-0.5-12.5q0-7 0-13.5t-2-12.5q0-7-3-16t-3-17q0-3 2-9 20 12 39.5 22.5t38.5 19.5q9 5 14.5-1t5.5-14q0-10-8-15-23-15-40.5-19.5t-50.5-15.5q-13-9-23-24.5t-20-26.5z"/><path transform="translate(73.892 12.32) scale(.014 -.014)" d="m69-49q-12 0-29.5 5.5t-30.5 15.5-13 23q0 9 7 17-8 6-8 17 0 28 18 46.5t43.5 27.5 46.5 9h14q3 0 6 0t7-2q9-2 12-4 13-6 24-15.5t11-22.5q0-14-16-26.5t-25-14.5q-3-1-8-1-11 0-11 10 0 15 13 22l2 1q0 19-6 23-6 2-9 2-11 0-29-4t-31.5-13-13.5-25q0-8 0.5-21t5.5-22.5 17-9.5q9 0 17.5-3t16.5-5l15 1q6 3 15.5 8t26.5 5h6q1 2 3 4 6 15 20 22.5t26 14.5q4 9 4 37 0 17-13.5 32t-32.5 28q-26 11-53 22.5t-45.5 31.5-18.5 56q0 18 13.5 33.5t32.5 27 37.5 17.5 28.5 6q20 0 42.5-4.5t38-17.5 15.5-40q0-25-18.5-36.5t-37.5-13.5q-3-1-6-1.5t-6-0.5q-10 0-17.5 5.5t-12.5 13.5l-2 3q-5 6-5 14 0 10 12 10 5 0 10-2.5t9-8.5l2-3t0-0.5 1-0.5l1-1q4 0 6 1 8 3 15.5 13t7.5 18q0 5-10 13t-22 8q-9 0-28-5.5t-23-16.5q-3-8-5.5-14t-5.5-11q0-1-0.5-3t-0.5-4q0-9 3.5-18.5t7.5-23.5q1-4 1-6.5t0-4.5q10-7 21-14.5t21-13.5q32-13 57-32.5t25-60.5q0-21-8-32t-19-19q-6-8-16.5-15t-27.5-18q-3-5-5-8.5t-4-5.5q-4-7-9.5-12t-19.5-5h-30q-3-1-6-1t-6 0h-10q-7 0-15-0.5t-16-0.5z"/></svg>