<svg width="52" height="14" viewBox="0 0 52 14" fill="none" xmlns="http://www.w3.org/2000/svg">
<path d="M3.67 10.11C3.09 10.11 2.58 10.05 2.14 9.93C1.7 9.81 1.38667 9.67333 1.2 9.52C0.733333 9.16 0.5 8.74 0.5 8.26C0.5 7.86 0.676667 7.45667 1.03 7.05C1.37667 6.64333 1.91 6.27 2.63 5.93C3.35 5.59 4.25667 5.32333 5.35 5.13C5.81667 5.04333 6.29 4.97667 6.77 4.93C7.25 4.88333 7.73333 4.86 8.22 4.86C8.62667 4.86 9.04 4.88 9.46 4.92C9.87333 4.95333 10.28 5.01333 10.68 5.1C10.8133 5.12667 10.9633 5.16 11.13 5.2C11.2967 5.24667 11.47 5.29667 11.65 5.35C12.4233 4.55667 13.1767 3.76667 13.91 2.98C14.65 2.2 15.3667 1.54 16.06 1C16.54 0.613333 16.99 0.35 17.41 0.21C17.83 0.07 18.2033 0 18.53 0C18.9167 0 19.2333 0.0600003 19.48 0.18C19.7267 0.293334 19.8867 0.386667 19.96 0.46C19.9867 0.493333 19.9867 0.523334 19.96 0.55C19.9333 0.576667 19.9067 0.576667 19.88 0.55C19.8333 0.49 19.72 0.43 19.54 0.37C19.3667 0.303334 19.14 0.27 18.86 0.27C18.5133 0.27 18.1067 0.35 17.64 0.51C17.1733 0.663334 16.6533 0.96 16.08 1.4C15.38 1.95333 14.69 2.58667 14.01 3.3C13.3233 4.01333 12.6233 4.73 11.91 5.45C12.2767 5.57667 12.61 5.75333 12.91 5.98C13.2167 6.20667 13.3933 6.48333 13.44 6.81V6.86C13.44 6.9 13.43 6.92 13.41 6.92C13.3833 6.92 13.3567 6.89 13.33 6.83C13.29 6.73 13.1833 6.64333 13.01 6.57C12.8367 6.49667 12.64 6.43667 12.42 6.39C12.1933 6.34333 11.9767 6.30333 11.77 6.27C11.5633 6.24333 11.41 6.22667 11.31 6.22L11.16 6.2C10.38 6.94667 9.58 7.63667 8.76 8.27C7.93333 8.89667 7.05667 9.37 6.13 9.69C5.69 9.83667 5.26333 9.94333 4.85 10.01C4.43667 10.0767 4.04333 10.11 3.67 10.11ZM14.49 10.8C14.07 10.5 13.76 10.14 13.56 9.72C13.3667 9.3 13.27 8.84667 13.27 8.36C13.27 7.87333 13.3533 7.38667 13.52 6.9C13.6867 6.40667 13.9333 5.89333 14.26 5.36C14.58 4.83333 14.93 4.31333 15.31 3.8C15.6967 3.29333 16.07 2.82667 16.43 2.4C16.79 1.98 17.0933 1.63 17.34 1.35C17.5867 1.07 17.7333 0.896667 17.78 0.83C17.8333 0.756667 17.8733 0.72 17.9 0.72C17.94 0.72 17.97 0.75 17.99 0.81C18.01 0.87 18.02 0.936667 18.02 1.01C18.02 1.15667 17.9967 1.26333 17.95 1.33C17.7033 1.63667 17.4133 2.03 17.08 2.51C16.74 2.98333 16.4 3.51333 16.06 4.1C15.7133 4.68 15.39 5.28 15.09 5.9C14.79 6.51333 14.55 7.11333 14.37 7.7C14.19 8.28667 14.1 8.82333 14.1 9.31C14.1 9.59 14.1367 9.84667 14.21 10.08C14.2833 10.3133 14.4033 10.52 14.57 10.7C14.5833 10.7067 14.59 10.72 14.59 10.74C14.59 10.76 14.58 10.78 14.56 10.8C14.54 10.8133 14.5167 10.8133 14.49 10.8ZM3.71 9.87C4.05667 9.87 4.43 9.84 4.83 9.78C5.23 9.72 5.64333 9.62333 6.07 9.49C6.87667 9.24333 7.67667 8.81667 8.47 8.21C9.26333 7.60333 10.0433 6.92667 10.81 6.18C10.6833 6.16667 10.56 6.16 10.44 6.16C10.32 6.16 10.1933 6.16 10.06 6.16C9.40667 6.16 8.73 6.19333 8.03 6.26C7.32333 6.32667 6.65333 6.42 6.02 6.54C4.99333 6.72 4.15667 6.94 3.51 7.2C2.85667 7.46667 2.38 7.74667 2.08 8.04C1.77333 8.32667 1.62 8.6 1.62 8.86C1.62 9.11333 1.74667 9.33333 2 9.52C2.13333 9.61333 2.34667 9.69667 2.64 9.77C2.94 9.83667 3.29667 9.87 3.71 9.87ZM17.4 9.56C17 9.56 16.73 9.48333 16.59 9.33C16.45 9.17667 16.38 9.00667 16.38 8.82C16.38 8.58 16.4733 8.32333 16.66 8.05C16.7733 7.89 16.9 7.71 17.04 7.51C17.18 7.31 17.31 7.12333 17.43 6.95C17.55 6.77 17.6333 6.64333 17.68 6.57C17.7467 6.47667 17.7867 6.41333 17.8 6.38C17.8133 6.34667 17.82 6.31 17.82 6.27C17.82 6.21667 17.7867 6.16333 17.72 6.11C17.6467 6.06333 17.53 6.04 17.37 6.04C17.3233 6.04 17.2833 6.04 17.25 6.04C17.2167 6.04667 17.1833 6.05 17.15 6.05C17.0767 6.05 17.0333 6.04667 17.02 6.04L16.98 6.09C16.72 6.43667 16.44 6.77667 16.14 7.11C15.84 7.43667 15.5133 7.74 15.16 8.02C15.12 8.05333 15.0933 8.07 15.08 8.07C15.04 8.07 15.02 8.05 15.02 8.01C15.02 7.93667 15.0767 7.85333 15.19 7.76C15.4767 7.51333 15.76 7.24 16.04 6.94C16.32 6.63333 16.5733 6.31333 16.8 5.98C16.7133 5.92667 16.67 5.81333 16.67 5.64C16.67 5.39333 16.75 5.12333 16.91 4.83C17.0233 4.63667 17.1467 4.49 17.28 4.39C17.4133 4.29 17.5333 4.24 17.64 4.24C17.8333 4.24 17.93 4.35667 17.93 4.59C17.93 4.74333 17.8733 4.93 17.76 5.15C17.7133 5.26333 17.6233 5.40667 17.49 5.58C17.3567 5.75333 17.2233 5.87667 17.09 5.95C17.29 5.88333 17.54 5.84 17.84 5.82C18.1467 5.79333 18.4 5.78 18.6 5.78C18.7267 5.78 18.8767 5.81667 19.05 5.89C19.23 5.95667 19.32 6.08 19.32 6.26C19.32 6.38 19.2633 6.51 19.15 6.65C19.1233 6.69 19.05 6.78 18.93 6.92C18.8033 7.06 18.67 7.22667 18.53 7.42C18.3833 7.62 18.25 7.81667 18.13 8.01C18.01 8.19 17.9133 8.35333 17.84 8.5C17.7733 8.64667 17.74 8.77333 17.74 8.88C17.74 9.02667 17.8233 9.1 17.99 9.1C18.1833 9.1 18.4433 9.00667 18.77 8.82C19.0967 8.63333 19.45 8.39333 19.83 8.1C20.21 7.80667 20.5567 7.5 20.87 7.18C20.91 7.14667 20.9433 7.13 20.97 7.13C21.01 7.13 21.03 7.15333 21.03 7.2C21.03 7.25333 21.0067 7.30333 20.96 7.35C20.6333 7.67667 20.27 8.01 19.87 8.35C19.4767 8.69 19.0667 8.97667 18.64 9.21C18.2133 9.44333 17.8 9.56 17.4 9.56ZM23.48 5.27C23.3467 5.27 23.2467 5.22667 23.18 5.14C23.1133 5.05333 23.08 4.96333 23.08 4.87C23.08 4.68333 23.17 4.5 23.35 4.32C23.53 4.14 23.7167 4.05 23.91 4.05C24.0433 4.05 24.14 4.09 24.2 4.17C24.2667 4.25667 24.3 4.34667 24.3 4.44C24.3 4.63333 24.2133 4.82 24.04 5C23.8667 5.18 23.68 5.27 23.48 5.27ZM21.33 9.56C20.95 9.56 20.6933 9.48 20.56 9.32C20.42 9.15333 20.35 8.97 20.35 8.77C20.35 8.59667 20.38 8.43333 20.44 8.28C20.4933 8.12667 20.54 8.01667 20.58 7.95C20.6333 7.85667 20.71 7.75 20.81 7.63C20.91 7.51 21.02 7.38 21.14 7.24C20.9533 7.4 20.7767 7.55333 20.61 7.7C20.45 7.85333 20.3167 7.96667 20.21 8.04C20.1833 8.06667 20.1567 8.08 20.13 8.08C20.09 8.08 20.07 8.05667 20.07 8.01C20.07 7.93667 20.1233 7.86333 20.23 7.79C20.47 7.58333 20.7033 7.35667 20.93 7.11C21.1633 6.87 21.3833 6.64333 21.59 6.43C21.79 6.22333 21.97 6.07667 22.13 5.99C22.2967 5.89667 22.4333 5.83667 22.54 5.81C22.64 5.78333 22.7233 5.77 22.79 5.77C22.89 5.77 22.9633 5.78667 23.01 5.82C23.0567 5.85333 23.0667 5.88667 23.04 5.92C22.88 6.08 22.7233 6.28333 22.57 6.53C22.4167 6.77667 22.2767 7.03667 22.15 7.31C22.0167 7.58333 21.91 7.84 21.83 8.08C21.75 8.32 21.71 8.52667 21.71 8.7C21.71 8.93333 21.8033 9.05 21.99 9.05C22.17 9.05 22.4 8.96667 22.68 8.8C22.9667 8.64 23.2667 8.43333 23.58 8.18C23.8933 7.92667 24.1867 7.68 24.46 7.44C24.4933 7.4 24.5233 7.38 24.55 7.38C24.5967 7.38 24.6233 7.40333 24.63 7.45C24.6367 7.49667 24.6267 7.53 24.6 7.55C24.2867 7.83667 23.9367 8.13667 23.55 8.45C23.1633 8.76333 22.7767 9.02667 22.39 9.24C22.0033 9.45333 21.65 9.56 21.33 9.56ZM21.45 13.74C20.97 13.74 20.6133 13.67 20.38 13.53C20.14 13.3967 20.02 13.2233 20.02 13.01C20.02 12.71 20.24 12.37 20.68 11.99C21.1267 11.6033 21.7867 11.2467 22.66 10.92C23.1133 10.7467 23.5767 10.6067 24.05 10.5C24.5233 10.3867 24.99 10.33 25.45 10.33C25.59 10.33 25.73 10.3367 25.87 10.35C26.01 10.37 26.1467 10.3867 26.28 10.4C26.4467 10.44 26.59 10.5 26.71 10.58C26.83 10.66 26.89 10.7333 26.89 10.8C26.89 10.8533 26.8533 10.87 26.78 10.85C26.7133 10.83 26.64 10.8167 26.56 10.81C26.48 10.8033 26.3933 10.8 26.3 10.8C26.0133 10.8 25.6833 10.8333 25.31 10.9C24.9367 10.9733 24.5533 11.0667 24.16 11.18C23.7667 11.3 23.3933 11.43 23.04 11.57C22.48 11.77 22.0333 12.02 21.7 12.32C21.36 12.6133 21.19 12.8667 21.19 13.08C21.19 13.1933 21.25 13.2867 21.37 13.36C21.4833 13.4333 21.6733 13.47 21.94 13.47C22.2067 13.47 22.52 13.43 22.88 13.35C23.24 13.27 23.6 13.1667 23.96 13.04C24.32 12.9133 24.6433 12.79 24.93 12.67C25.4833 12.4367 25.99 12.14 26.45 11.78C26.91 11.42 27.28 11.0433 27.56 10.65C27.8333 10.25 27.97 9.88667 27.97 9.56C27.97 9.26667 27.8333 9.02333 27.56 8.83C27.28 8.63667 26.8233 8.54 26.19 8.54C25.8767 8.54 25.5633 8.56 25.25 8.6C24.9367 8.64667 24.67 8.69333 24.45 8.74C24.23 8.78667 24.1067 8.81 24.08 8.81C23.9867 8.81 23.94 8.77333 23.94 8.7C23.94 8.60667 23.9967 8.49667 24.11 8.37C24.2167 8.25 24.3233 8.17333 24.43 8.14C24.65 8.06 24.9167 7.98333 25.23 7.91C25.5433 7.83667 25.9567 7.69667 26.47 7.49C26.7767 7.36333 27.06 7.23333 27.32 7.1C27.5733 6.96667 27.7 6.85333 27.7 6.76C27.7 6.7 27.6433 6.65667 27.53 6.63C27.41 6.61 27.27 6.59333 27.11 6.58C26.9433 6.57333 26.7867 6.57 26.64 6.57C26.4133 6.57 26.17 6.58333 25.91 6.61C25.65 6.63667 25.4233 6.68667 25.23 6.76C25.03 6.84 24.9033 6.95667 24.85 7.11C24.71 7.03 24.64 6.9 24.64 6.72C24.64 6.40667 24.8067 6.15 25.14 5.95C25.34 5.83 25.5867 5.73667 25.88 5.67C26.1733 5.60333 26.5067 5.57 26.88 5.57C27.4267 5.57 27.8267 5.64 28.08 5.78C28.3267 5.92 28.45 6.09333 28.45 6.3C28.45 6.6 28.24 6.88667 27.82 7.16C27.6333 7.28 27.4 7.39333 27.12 7.5C26.8467 7.60667 26.5467 7.71 26.22 7.81C26.3133 7.80333 26.4033 7.79667 26.49 7.79C26.5833 7.79 26.67 7.79 26.75 7.79C27.4433 7.79 27.98 7.91333 28.36 8.16C28.7467 8.41333 28.94 8.75 28.94 9.17C28.94 9.49 28.81 9.85333 28.55 10.26C28.2967 10.6667 27.8933 11.0833 27.34 11.51C26.94 11.83 26.5267 12.1067 26.1 12.34C25.6733 12.58 25.3267 12.7567 25.06 12.87C24.5 13.11 23.8967 13.3133 23.25 13.48C22.5967 13.6533 21.9967 13.74 21.45 13.74ZM30.6 9.68C30.24 9.68 29.9667 9.58667 29.78 9.4C29.6 9.22 29.51 8.98667 29.51 8.7C29.51 8.52 29.5333 8.34667 29.58 8.18C29.6267 8.01333 29.6767 7.86333 29.73 7.73C29.67 7.79667 29.6067 7.85667 29.54 7.91C29.48 7.95667 29.4333 7.99333 29.4 8.02C29.36 8.05333 29.3267 8.07 29.3 8.07C29.26 8.07 29.24 8.04667 29.24 8C29.24 7.93333 29.2867 7.85667 29.38 7.77C29.7067 7.50333 29.9633 7.26333 30.15 7.05C30.3367 6.84333 30.5333 6.65 30.74 6.47C31.0867 6.17 31.4567 5.93667 31.85 5.77C32.2433 5.60333 32.6333 5.52 33.02 5.52C33.4333 5.52 33.7567 5.61667 33.99 5.81C34.2233 6.01 34.34 6.3 34.34 6.68C34.34 6.89333 34.2767 7.14 34.15 7.42C34.0233 7.7 33.8267 7.99 33.56 8.29C33.4467 8.41 33.32 8.53 33.18 8.65C33.04 8.76333 32.9167 8.85 32.81 8.91C33.27 8.86333 33.7 8.7 34.1 8.42C34.5 8.14667 34.86 7.87333 35.18 7.6C35.2267 7.57333 35.26 7.56 35.28 7.56C35.3267 7.56 35.35 7.58333 35.35 7.63C35.35 7.67 35.3267 7.71333 35.28 7.76C34.88 8.14 34.4467 8.46 33.98 8.72C33.52 8.98667 33.01 9.11333 32.45 9.1C32.1233 9.28 31.8033 9.42 31.49 9.52C31.1767 9.62667 30.88 9.68 30.6 9.68ZM31.23 9.28C31.3633 9.28 31.5033 9.25667 31.65 9.21C31.8033 9.16333 31.9533 9.10333 32.1 9.03C32.0467 9.03 31.9933 9.00333 31.94 8.95C31.8867 8.89 31.86 8.81333 31.86 8.72C31.86 8.53333 31.93 8.34333 32.07 8.15C32.21 7.95667 32.3833 7.79 32.59 7.65C32.7967 7.51 32.9967 7.44 33.19 7.44C33.3033 7.44 33.41 7.47 33.51 7.53C33.6033 7.59 33.6567 7.67 33.67 7.77C33.83 7.59667 33.94 7.40667 34 7.2C34.06 6.99333 34.09 6.8 34.09 6.62C34.09 6.38 34.0133 6.19667 33.86 6.07C33.7067 5.94333 33.4967 5.88 33.23 5.88C32.9833 5.88 32.7067 5.97 32.4 6.15C32.1 6.32333 31.8167 6.55 31.55 6.83C31.2833 7.11 31.0633 7.41333 30.89 7.74C30.7167 8.06667 30.63 8.38 30.63 8.68C30.63 9.08 30.83 9.28 31.23 9.28ZM35.04 9.62C34.9467 9.62 34.8333 9.6 34.7 9.56C34.5733 9.51333 34.4433 9.43667 34.31 9.33C34.4167 9.19 34.5633 9 34.75 8.76C34.9433 8.52 35.1467 8.25667 35.36 7.97C35.5733 7.67667 35.7733 7.38667 35.96 7.1C35.8133 7.24667 35.65 7.40667 35.47 7.58C35.2967 7.74667 35.12 7.9 34.94 8.04C34.9067 8.07333 34.8667 8.09 34.82 8.09C34.78 8.09 34.76 8.07333 34.76 8.04C34.76 7.99333 34.7967 7.93667 34.87 7.87C35.13 7.63667 35.4233 7.37 35.75 7.07C36.07 6.76333 36.3033 6.45 36.45 6.13C36.4967 6.02333 36.52 5.92333 36.52 5.83C36.52 5.70333 36.4967 5.62667 36.45 5.6C36.4167 5.57333 36.4 5.53667 36.4 5.49C36.4 5.40333 36.44 5.36 36.52 5.36C36.5667 5.36 36.6067 5.37 36.64 5.39C36.74 5.43667 36.8367 5.52667 36.93 5.66C37.0233 5.78667 37.07 5.98333 37.07 6.25C37.07 6.39667 37.05 6.56667 37.01 6.76C36.9767 6.94667 36.9133 7.16333 36.82 7.41C36.96 7.22333 37.1 7.04 37.24 6.86C37.3867 6.68667 37.52 6.53 37.64 6.39C37.8933 6.09667 38.15 5.88667 38.41 5.76C38.6633 5.63333 38.8933 5.57 39.1 5.57C39.34 5.57 39.5367 5.64 39.69 5.78C39.8367 5.92 39.91 6.10333 39.91 6.33C39.91 6.51 39.8633 6.69333 39.77 6.88C39.7433 6.95333 39.68 7.06667 39.58 7.22C39.4733 7.37333 39.36 7.54 39.24 7.72C39.12 7.89333 39.0067 8.05 38.9 8.19C38.78 8.34333 38.6967 8.47333 38.65 8.58C38.6033 8.68667 38.58 8.77333 38.58 8.84C38.58 8.93333 38.6333 8.98 38.74 8.98C38.8667 8.98 39.0467 8.91 39.28 8.77C39.42 8.68333 39.58 8.56667 39.76 8.42C39.9467 8.28 40.13 8.13333 40.31 7.98C40.49 7.82 40.6367 7.69 40.75 7.59C40.79 7.55 40.8233 7.53 40.85 7.53C40.89 7.53 40.91 7.55333 40.91 7.6C40.91 7.66 40.8867 7.71333 40.84 7.76C40.56 8.02 40.2333 8.30333 39.86 8.61C39.4933 8.91667 39.1333 9.15667 38.78 9.33C38.4867 9.47 38.22 9.54 37.98 9.54C37.7733 9.54 37.61 9.48333 37.49 9.37C37.37 9.26333 37.31 9.11 37.31 8.91C37.31 8.75667 37.3467 8.57667 37.42 8.37C37.5133 8.12333 37.6467 7.87333 37.82 7.62C37.9933 7.36667 38.1733 7.12667 38.36 6.9C38.5533 6.66667 38.72 6.47333 38.86 6.32C38.98 6.18667 39.04 6.07333 39.04 5.98C39.04 5.89333 38.9867 5.85 38.88 5.85C38.7667 5.85 38.6 5.91333 38.38 6.04C38.16 6.16667 37.9133 6.37 37.64 6.65C37.26 7.05 36.9267 7.48333 36.64 7.95C36.3467 8.41667 36.0133 8.85667 35.64 9.27C35.4333 9.50333 35.2333 9.62 35.04 9.62ZM43.79 5.27C43.6567 5.27 43.56 5.22667 43.5 5.14C43.4333 5.05333 43.4 4.96333 43.4 4.87C43.4 4.68333 43.4867 4.5 43.66 4.32C43.84 4.14 44.0267 4.05 44.22 4.05C44.3533 4.05 44.4533 4.09 44.52 4.17C44.5867 4.25667 44.62 4.34667 44.62 4.44C44.62 4.63333 44.5333 4.82 44.36 5C44.1867 5.18 43.9967 5.27 43.79 5.27ZM41.65 9.56C41.2633 9.56 41.0033 9.48 40.87 9.32C40.7367 9.15333 40.67 8.97 40.67 8.77C40.67 8.59667 40.6967 8.43333 40.75 8.28C40.81 8.12667 40.8567 8.01667 40.89 7.95C40.95 7.85667 41.0267 7.75 41.12 7.63C41.22 7.51 41.33 7.38 41.45 7.24C41.2633 7.4 41.09 7.55333 40.93 7.7C40.7633 7.85333 40.63 7.96667 40.53 8.04C40.5033 8.06667 40.4733 8.08 40.44 8.08C40.4067 8.08 40.39 8.05667 40.39 8.01C40.39 7.93667 40.44 7.86333 40.54 7.79C40.7867 7.58333 41.0233 7.35667 41.25 7.11C41.4767 6.87 41.6933 6.64333 41.9 6.43C42.1067 6.22333 42.29 6.07667 42.45 5.99C42.6167 5.89667 42.75 5.83667 42.85 5.81C42.9567 5.78333 43.04 5.77 43.1 5.77C43.2067 5.77 43.2833 5.78667 43.33 5.82C43.3767 5.85333 43.3867 5.88667 43.36 5.92C43.2 6.08 43.0433 6.28333 42.89 6.53C42.7367 6.77667 42.5933 7.03667 42.46 7.31C42.3267 7.58333 42.22 7.84 42.14 8.08C42.0667 8.32 42.03 8.52667 42.03 8.7C42.03 8.93333 42.1233 9.05 42.31 9.05C42.4833 9.05 42.7133 8.96667 43 8.8C43.2867 8.64 43.5833 8.43333 43.89 8.18C44.2033 7.92667 44.4967 7.68 44.77 7.44C44.81 7.4 44.8433 7.38 44.87 7.38C44.9167 7.38 44.94 7.40333 44.94 7.45C44.9467 7.49667 44.9367 7.53 44.91 7.55C44.6033 7.83667 44.2567 8.13667 43.87 8.45C43.4833 8.76333 43.0933 9.02667 42.7 9.24C42.3133 9.45333 41.9633 9.56 41.65 9.56ZM45.29 9.56C44.9967 9.56 44.7733 9.47 44.62 9.29C44.46 9.11 44.38 8.87333 44.38 8.58C44.38 8.31333 44.45 8.01667 44.59 7.69C44.7367 7.36333 44.97 7.03 45.29 6.69C45.6167 6.33667 46.0233 6.05 46.51 5.83C46.99 5.61 47.45 5.5 47.89 5.5C48.2433 5.5 48.5467 5.58 48.8 5.74C49.0533 5.89333 49.2233 6.08667 49.31 6.32C49.41 6.32 49.5367 6.34667 49.69 6.4C49.8433 6.45333 49.92 6.55667 49.92 6.71C49.92 6.81 49.87 6.92667 49.77 7.06C49.7033 7.15333 49.59 7.29333 49.43 7.48C49.2633 7.66667 49.11 7.86667 48.97 8.08C48.8567 8.24667 48.7667 8.40333 48.7 8.55C48.64 8.69667 48.61 8.82 48.61 8.92C48.61 9.06 48.68 9.13 48.82 9.13C48.9733 9.13 49.21 9.04 49.53 8.86C49.8767 8.66667 50.2067 8.44333 50.52 8.19C50.84 7.93667 51.09 7.73667 51.27 7.59C51.3167 7.55 51.3467 7.53 51.36 7.53C51.4 7.53 51.42 7.55333 51.42 7.6C51.42 7.66 51.3967 7.71333 51.35 7.76C51.2633 7.83333 51.1 7.97333 50.86 8.18C50.62 8.38667 50.3433 8.6 50.03 8.82C49.7167 9.04667 49.41 9.23 49.11 9.37C48.9633 9.43667 48.8267 9.48333 48.7 9.51C48.5733 9.54333 48.4567 9.56 48.35 9.56C48.1033 9.56 47.9133 9.49 47.78 9.35C47.6467 9.20333 47.58 9.01333 47.58 8.78C47.58 8.68667 47.5967 8.59 47.63 8.49C47.6567 8.38333 47.6867 8.28 47.72 8.18L47.82 7.94C47.58 8.24 47.3367 8.49 47.09 8.69C46.85 8.89 46.61 9.06333 46.37 9.21C46.1633 9.33667 45.97 9.42667 45.79 9.48C45.6033 9.53333 45.4367 9.56 45.29 9.56ZM45.72 9.2C45.8867 9.2 46.13 9.1 46.45 8.9C46.77 8.7 47.14 8.39 47.56 7.97C47.6133 7.91 47.7167 7.81 47.87 7.67C48.0233 7.52333 48.19 7.36 48.37 7.18C48.5433 6.99333 48.6933 6.81 48.82 6.63C48.9467 6.45 49.01 6.3 49.01 6.18C49.01 6 48.8567 5.91 48.55 5.91C48.2767 5.91 47.9533 6.01667 47.58 6.23C47.2 6.43667 46.8367 6.74667 46.49 7.16C46.1367 7.58 45.88 7.94 45.72 8.24C45.5533 8.54667 45.47 8.77667 45.47 8.93C45.47 9.11 45.5533 9.2 45.72 9.2Z" fill="black"/>
</svg>
