<svg width="56" height="14" viewBox="0 0 56 14" fill="none" xmlns="http://www.w3.org/2000/svg">
<path d="M7.59 10.27L6.56 7.9H2.39C2.25 8.38667 2.18 8.87 2.18 9.35C2.18 9.51667 2.19 9.68 2.21 9.84C2.22333 10 2.25333 10.1533 2.3 10.3L1.23 10.6C1.12333 10.6267 1.02 10.64 0.92 10.64C0.64 10.64 0.5 10.5033 0.5 10.23C0.5 10.21 0.503333 10.1933 0.51 10.18C0.516667 10.16 0.52 10.14 0.52 10.12C0.566667 9.73333 0.67 9.27667 0.83 8.75C0.99 8.22333 1.18333 7.66667 1.41 7.08C1.64333 6.49333 1.89 5.90333 2.15 5.31C2.41 4.71667 2.67 4.15333 2.93 3.62C3.18333 3.08667 3.41667 2.61 3.63 2.19C3.83667 1.77667 4.00333 1.44667 4.13 1.2C4.26333 0.96 4.33 0.84 4.33 0.84H5.02C5.25333 0.84 5.42333 0.876666 5.53 0.95C5.64333 1.02333 5.74667 1.17333 5.84 1.4L8.99 9.41L10.19 8.93L10.42 9.42C10.2667 9.56 10.0633 9.73 9.81 9.93C9.55667 10.1233 9.28667 10.2967 9 10.45C8.71333 10.5967 8.43667 10.67 8.17 10.67C8.04333 10.67 7.93 10.64 7.83 10.58C7.73 10.52 7.65 10.4167 7.59 10.27ZM4.57 2.41H4.49C4.09667 3.33 3.72333 4.17333 3.37 4.94C3.02333 5.7 2.77333 6.37333 2.62 6.96H6.21L4.57 2.41ZM10.73 4.2V3.68C10.8567 3.62667 11.05 3.57667 11.31 3.53C11.5633 3.49 11.8367 3.46 12.13 3.44C12.43 3.41333 12.6967 3.4 12.93 3.4C13.1167 3.4 13.2633 3.41667 13.37 3.45C13.47 3.47667 13.52 3.58333 13.52 3.77V5.41L14.39 4.17C14.7967 3.58333 15.34 3.29 16.02 3.29C16.1067 3.29 16.2133 3.29667 16.34 3.31C16.4733 3.33 16.59 3.36667 16.69 3.42C16.7967 3.47333 16.85 3.55667 16.85 3.67C16.85 3.71667 16.8467 3.75333 16.84 3.78L16.54 4.74C16.3667 4.68667 16.21 4.65 16.07 4.63C15.9367 4.60333 15.81 4.59 15.69 4.59C15.4433 4.59 15.2067 4.66 14.98 4.8C14.76 4.93333 14.5567 5.1 14.37 5.3C14.1833 5.49333 14.0167 5.68667 13.87 5.88C13.73 6.06667 13.6133 6.21333 13.52 6.32V8.44C13.52 9 13.5467 9.43667 13.6 9.75C13.6467 10.0567 13.6833 10.2733 13.71 10.4C13.59 10.4733 13.4333 10.5267 13.24 10.56C13.0467 10.6 12.8767 10.62 12.73 10.62C12.5033 10.62 12.3133 10.5733 12.16 10.48C12.0067 10.3867 11.93 10.2167 11.93 9.97V4.2H10.73ZM22.96 9.55L23.18 10.02C22.86 10.22 22.5333 10.3833 22.2 10.51C21.8667 10.6433 21.4433 10.71 20.93 10.71C20.2633 10.71 19.7367 10.5133 19.35 10.12C18.9633 9.72 18.77 9.17 18.77 8.47V4.34H17.36V4.03C17.36 3.83 17.4033 3.69 17.49 3.61C17.5767 3.53667 17.72 3.5 17.92 3.5H18.77V1.87C18.77 1.62333 18.8467 1.45333 19 1.36C19.1467 1.27333 19.3367 1.23 19.57 1.23C19.7167 1.23 19.8867 1.24667 20.08 1.28C20.2667 1.31333 20.4233 1.36667 20.55 1.44C20.5233 1.56667 20.4833 1.79 20.43 2.11C20.3833 2.42333 20.36 2.88667 20.36 3.5H22.74V3.79C22.74 3.99 22.6933 4.13333 22.6 4.22C22.5133 4.3 22.37 4.34 22.17 4.34H20.36V8.35C20.36 9.38333 20.7367 9.9 21.49 9.9C21.7167 9.9 21.9433 9.86667 22.17 9.8C22.4033 9.74 22.5933 9.68 22.74 9.62C22.8933 9.56 22.9667 9.53667 22.96 9.55ZM24.94 1.12C24.94 0.86 25.0333 0.64 25.22 0.46C25.4067 0.286667 25.6333 0.2 25.9 0.2C26.1667 0.2 26.3933 0.286667 26.58 0.46C26.7667 0.64 26.86 0.86 26.86 1.12C26.86 1.37333 26.7667 1.58667 26.58 1.76C26.3933 1.94 26.1667 2.03 25.9 2.03C25.6333 2.03 25.4067 1.94 25.22 1.76C25.0333 1.58667 24.94 1.37333 24.94 1.12ZM26.69 3.74V9.82H27.88V10.33C27.72 10.4167 27.4633 10.4867 27.11 10.54C26.7567 10.5933 26.4133 10.62 26.08 10.62C25.8067 10.62 25.5733 10.58 25.38 10.5C25.1933 10.42 25.1 10.2433 25.1 9.97V4.17H23.9V3.66C24.0267 3.6 24.2167 3.55 24.47 3.51C24.7233 3.47 25 3.43667 25.3 3.41C25.5933 3.39 25.86 3.38 26.1 3.38C26.2867 3.38 26.43 3.39333 26.53 3.42C26.6367 3.45333 26.69 3.56 26.69 3.74ZM33.3 4.34H31.9V10.61C31.9 11.35 31.7367 11.96 31.41 12.44C31.09 12.9267 30.6767 13.2833 30.17 13.51C29.6633 13.7433 29.1333 13.86 28.58 13.86C28.46 13.86 28.2933 13.8533 28.08 13.84C27.8667 13.82 27.6733 13.78 27.5 13.72C27.3333 13.66 27.25 13.57 27.25 13.45C27.25 13.4233 27.2567 13.3833 27.27 13.33L27.73 12.29C28.07 12.4367 28.4067 12.5767 28.74 12.71C29.0733 12.8433 29.35 12.91 29.57 12.91C29.83 12.91 30.0133 12.79 30.12 12.55C30.2267 12.31 30.2867 12.0133 30.3 11.66C30.32 11.3067 30.33 10.96 30.33 10.62L30.32 4.34H28.69V4.03C28.69 3.83 28.7333 3.69 28.82 3.61C28.9133 3.53667 29.0567 3.5 29.25 3.5H30.32V3.05C30.32 2.32333 30.4633 1.73667 30.75 1.29C31.0433 0.843333 31.4267 0.516667 31.9 0.31C32.3733 0.103333 32.8767 0 33.41 0C33.4967 0 33.62 0.00333356 33.78 0.0100002C33.94 0.0233336 34.1067 0.0466666 34.28 0.0799999C34.4467 0.113333 34.59 0.166666 34.71 0.24C34.83 0.306666 34.89 0.4 34.89 0.52C34.89 0.566667 34.8667 0.63 34.82 0.71L34.32 1.63C33.9733 1.44333 33.6533 1.27 33.36 1.11C33.06 0.95 32.7967 0.87 32.57 0.87C32.2633 0.87 32.0733 1.02 32 1.32C31.9333 1.61333 31.9 2.03333 31.9 2.58V3.5H33.86V3.79C33.86 3.99 33.8133 4.13333 33.72 4.22C33.6333 4.3 33.4933 4.34 33.3 4.34ZM36.04 1.12C36.04 0.86 36.1367 0.64 36.33 0.46C36.5167 0.286667 36.7433 0.2 37.01 0.2C37.2767 0.2 37.5033 0.286667 37.69 0.46C37.8767 0.64 37.97 0.86 37.97 1.12C37.97 1.37333 37.8767 1.58667 37.69 1.76C37.5033 1.94 37.2767 2.03 37.01 2.03C36.7433 2.03 36.5167 1.94 36.33 1.76C36.1367 1.58667 36.04 1.37333 36.04 1.12ZM37.79 3.74V9.82H38.98V10.33C38.8267 10.4167 38.5733 10.4867 38.22 10.54C37.8667 10.5933 37.5233 10.62 37.19 10.62C36.9167 10.62 36.6833 10.58 36.49 10.5C36.3033 10.42 36.21 10.2433 36.21 9.97V4.17H35.01V3.66C35.1367 3.6 35.3267 3.55 35.58 3.51C35.8333 3.47 36.11 3.43667 36.41 3.41C36.7033 3.39 36.97 3.38 37.21 3.38C37.3967 3.38 37.54 3.39333 37.64 3.42C37.74 3.45333 37.79 3.56 37.79 3.74ZM40.88 0.81H39.67V0.29C39.7967 0.236667 39.99 0.186667 40.25 0.14C40.5033 0.0999999 40.7767 0.0700002 41.07 0.0500002C41.3633 0.0233335 41.63 0.0100002 41.87 0.0100002C42.0567 0.0100002 42.2 0.0266666 42.3 0.0599999C42.4067 0.0866666 42.46 0.193333 42.46 0.38V8.44C42.46 9 42.4833 9.43667 42.53 9.75C42.5833 10.0567 42.6267 10.2733 42.66 10.4C42.5267 10.4733 42.3667 10.5267 42.18 10.56C41.9867 10.6 41.8167 10.62 41.67 10.62C41.4433 10.62 41.2533 10.5733 41.1 10.48C40.9533 10.3867 40.88 10.2167 40.88 9.97V0.81ZM46.81 3.79C46.81 4.01 46.7167 4.24667 46.53 4.5C46.3433 4.76 46.1067 5.02 45.82 5.28C45.5267 5.54 45.2267 5.78667 44.92 6.02C44.6133 6.26 44.34 6.47 44.1 6.65L46.26 9.42L47.28 8.76L47.55 9.18C47.4433 9.38667 47.2767 9.6 47.05 9.82C46.8167 10.0467 46.57 10.2367 46.31 10.39C46.0433 10.5433 45.8 10.62 45.58 10.62C45.3467 10.62 45.15 10.5133 44.99 10.3L42.75 7.43C42.75 7.43 42.7333 7.40667 42.7 7.36C42.6733 7.30667 42.66 7.24333 42.66 7.17C42.66 7.05 42.71 6.94667 42.81 6.86C42.95 6.73333 43.1467 6.56667 43.4 6.36C43.6467 6.15333 43.8967 5.92667 44.15 5.68C44.41 5.42667 44.6267 5.17333 44.8 4.92C44.9733 4.66 45.06 4.41333 45.06 4.18C45.06 4.06 45.0433 3.95333 45.01 3.86C45.3233 3.70667 45.5533 3.59 45.7 3.51C45.8533 3.42333 45.9733 3.36667 46.06 3.34C46.14 3.30667 46.2367 3.29 46.35 3.29C46.5033 3.29 46.62 3.34 46.7 3.44C46.7733 3.53333 46.81 3.65 46.81 3.79ZM53.2 9.97V9.9C53.2 9.89333 53.1333 9.93 53 10.01C52.8733 10.0967 52.6967 10.1933 52.47 10.3C52.25 10.4133 52.0067 10.51 51.74 10.59C51.4733 10.67 51.1967 10.71 50.91 10.71C50.5167 10.71 50.15 10.64 49.81 10.5C49.4767 10.3533 49.2067 10.13 49 9.83C48.7933 9.52333 48.69 9.13667 48.69 8.67C48.69 8.14333 48.8433 7.72333 49.15 7.41C49.45 7.09667 49.8667 6.87 50.4 6.73C50.9333 6.59 51.5433 6.52 52.23 6.52H53.2V6.01C53.2 5.65667 53.1767 5.32667 53.13 5.02C53.0833 4.71333 52.9833 4.46667 52.83 4.28C52.6767 4.1 52.44 4.01 52.12 4.01C51.8133 4.01 51.5033 4.08 51.19 4.22C50.8767 4.36 50.58 4.53 50.3 4.73C50.0133 4.93 49.7567 5.12 49.53 5.3L48.97 4.55C48.9033 4.47 48.87 4.38667 48.87 4.3C48.87 4.14667 48.9633 4.01 49.15 3.89C49.3367 3.77 49.5767 3.66333 49.87 3.57C50.1567 3.47667 50.4633 3.40667 50.79 3.36C51.1167 3.31333 51.42 3.29 51.7 3.29C52.26 3.29 52.7733 3.38 53.24 3.56C53.7067 3.74 54.08 4.03 54.36 4.43C54.64 4.82333 54.78 5.35 54.78 6.01V9.82H55.97V10.33C55.8167 10.4167 55.5633 10.4867 55.21 10.54C54.85 10.5933 54.5033 10.62 54.17 10.62C53.95 10.62 53.7367 10.5833 53.53 10.51C53.3233 10.4367 53.2133 10.2567 53.2 9.97ZM51.39 9.7C51.55 9.7 51.7333 9.68 51.94 9.64C52.1467 9.6 52.3433 9.55 52.53 9.49C52.7233 9.43667 52.8833 9.38667 53.01 9.34C53.1367 9.3 53.2 9.28 53.2 9.28V7.36H52.05C51.8233 7.36 51.57 7.39 51.29 7.45C51.01 7.51667 50.7667 7.63667 50.56 7.81C50.36 7.98333 50.26 8.24333 50.26 8.59C50.26 8.91667 50.3567 9.18333 50.55 9.39C50.7433 9.59667 51.0233 9.7 51.39 9.7Z" fill="black"/>
</svg>
