<svg width="33" height="11" viewBox="0 0 33 11" fill="none" xmlns="http://www.w3.org/2000/svg">
<path d="M7.54 10.36V9.18H8.4L7.58 6.83H3.6L2.8 9.18H3.86V10.36H0.5V9.18H1.4L4.63 0H6.64L9.86 9.18H10.9V10.36H7.54ZM5.57 1.06L3.98 5.7H7.18L5.57 1.06ZM16.75 3.24V4.78H15.45V4.34C15.2967 4.34 15.1433 4.36667 14.99 4.42C14.83 4.48 14.6833 4.56667 14.55 4.68C14.41 4.8 14.29 4.95 14.19 5.13C14.0833 5.31 14.01 5.52333 13.97 5.77V9.18H15.17V10.36H11.65V9.18H12.63L12.64 4.45H11.65V3.28H13.92V4.26C14 4.11333 14.09 3.97667 14.19 3.85C14.2967 3.72333 14.4133 3.61333 14.54 3.52C14.66 3.42667 14.7967 3.35333 14.95 3.3C15.1033 3.24667 15.27 3.22 15.45 3.22C15.6833 3.22 15.9067 3.22 16.12 3.22C16.3267 3.22 16.5367 3.22667 16.75 3.24ZM17.67 4.45V3.28H20.12V4.45H19.45L21.2 9.33L22.91 4.45H22.48V3.28H24.72V4.45H24.12L21.8 10.47H20.54L18.23 4.45H17.67ZM25.64 6.82C25.6467 6.26 25.7367 5.75 25.91 5.29C26.0833 4.83 26.33 4.43333 26.65 4.1C26.9633 3.77333 27.3367 3.52 27.77 3.34C28.2033 3.16 28.68 3.07 29.2 3.07C29.72 3.07 30.1967 3.16 30.63 3.34C31.07 3.52 31.4433 3.77 31.75 4.09C32.0633 4.41667 32.3067 4.81 32.48 5.27C32.6533 5.73 32.74 6.24333 32.74 6.81C32.74 7.35667 32.6533 7.86333 32.48 8.33C32.3067 8.79 32.0633 9.18667 31.75 9.52C31.4433 9.85333 31.07 10.1133 30.63 10.3C30.1967 10.48 29.72 10.57 29.2 10.57C28.6667 10.57 28.1833 10.48 27.75 10.3C27.3167 10.12 26.9433 9.86333 26.63 9.53C26.3233 9.19667 26.0833 8.8 25.91 8.34C25.7367 7.88 25.6467 7.37333 25.64 6.82ZM26.99 6.82C26.99 7.22667 27.0467 7.59333 27.16 7.92C27.28 8.24667 27.44 8.52667 27.64 8.76C27.84 8.98667 28.0733 9.16333 28.34 9.29C28.6067 9.41667 28.8933 9.48 29.2 9.48C29.5133 9.48 29.8033 9.41667 30.07 9.29C30.3433 9.17 30.58 8.99333 30.78 8.76C30.98 8.53333 31.1367 8.25667 31.25 7.93C31.3633 7.59667 31.42 7.22667 31.42 6.82C31.42 6.39333 31.3633 6.01333 31.25 5.68C31.1367 5.34667 30.98 5.06667 30.78 4.84C30.5867 4.62 30.3533 4.45333 30.08 4.34C29.8067 4.22667 29.5133 4.17 29.2 4.17C28.8933 4.17 28.6067 4.22667 28.34 4.34C28.0733 4.45333 27.84 4.62 27.64 4.84C27.44 5.06667 27.28 5.34667 27.16 5.68C27.0467 6.01333 26.99 6.39333 26.99 6.82Z" fill="black"/>
</svg>
