<svg width="27" height="10" viewBox="0 0 27 10" fill="none" xmlns="http://www.w3.org/2000/svg">
<path d="M2.93 9.34H0.77C0.656667 9.34 0.583333 9.30667 0.55 9.24C0.516667 9.17333 0.5 9.11333 0.5 9.06C0.5 9.00667 0.54 8.95667 0.62 8.91C0.693333 8.87 0.78 8.83333 0.88 8.8C0.973333 8.76667 1.07333 8.74 1.18 8.72C1.28 8.69333 1.35333 8.66667 1.4 8.64L4.26 0.73C4.36667 0.49 4.49 0.306667 4.63 0.18C4.77 0.0600003 4.94 0 5.14 0C5.26 0 5.37667 0.0199999 5.49 0.0599999C5.82333 0.88 6.10667 1.62 6.34 2.28C6.57333 2.93333 6.79667 3.57 7.01 4.19C7.21667 4.80333 7.43 5.43 7.65 6.07C7.87 6.71 8.13 7.43 8.43 8.23C8.51 8.41667 8.59 8.54 8.67 8.6C8.74333 8.65333 8.88667 8.71 9.1 8.77C9.18667 8.78333 9.25333 8.80667 9.3 8.84C9.34667 8.87333 9.37 8.93667 9.37 9.03C9.37 9.07667 9.33 9.14 9.25 9.22C9.17667 9.3 9.05667 9.34 8.89 9.34H6.76C6.64667 9.34 6.57667 9.30667 6.55 9.24C6.51667 9.17333 6.5 9.11333 6.5 9.06C6.5 8.97333 6.55333 8.91333 6.66 8.88L7.2 8.64C7.06667 8.27333 6.94667 7.92333 6.84 7.59C6.73333 7.25667 6.62667 6.92667 6.52 6.6C5.9 6.6 5.32333 6.59667 4.79 6.59C4.26333 6.58333 3.68333 6.58 3.05 6.58L2.45 8.33C2.45 8.46333 2.5 8.55333 2.6 8.6C2.70667 8.64667 2.81667 8.68333 2.93 8.71C3.05 8.73667 3.15667 8.77 3.25 8.81C3.35 8.84333 3.4 8.91667 3.4 9.03C3.4 9.23667 3.24333 9.34 2.93 9.34ZM4.84 1.39L3.32 5.78C3.9 5.78 4.41 5.78667 4.85 5.8C5.29667 5.80667 5.77667 5.81 6.29 5.81C6.08333 5.11 5.87333 4.41 5.66 3.71C5.44 3.00333 5.16667 2.23 4.84 1.39ZM9.65 8.72C9.65667 8.6 9.66 8.45333 9.66 8.28C9.66 8.10667 9.66667 7.94333 9.68 7.79C9.69333 7.63667 9.72667 7.50667 9.78 7.4C9.83333 7.29333 9.91333 7.24 10.02 7.24C10.08 7.24 10.13 7.27333 10.17 7.34C10.21 7.41333 10.25 7.5 10.29 7.6C10.33 7.69333 10.3633 7.78667 10.39 7.88C10.4233 7.97333 10.4567 8.05 10.49 8.11C10.59 8.29667 10.79 8.47 11.09 8.63C11.39 8.79667 11.73 8.88 12.11 8.88C12.35 8.88 12.5767 8.80333 12.79 8.65C12.9967 8.50333 13.1 8.29333 13.1 8.02C13.1 7.76 13.0167 7.54667 12.85 7.38C12.6833 7.21333 12.4767 7.06333 12.23 6.93C11.9833 6.80333 11.7133 6.68 11.42 6.56C11.1333 6.44667 10.8667 6.31 10.62 6.15C10.3733 5.99 10.1667 5.79667 10 5.57C9.82667 5.33667 9.74 5.04333 9.74 4.69C9.74 4.37667 9.81667 4.09333 9.97 3.84C10.1167 3.58667 10.31 3.37333 10.55 3.2C10.79 3.02667 11.0567 2.89333 11.35 2.8C11.65 2.70667 11.9467 2.66 12.24 2.66C12.8 2.66 13.21 2.75 13.47 2.93C13.73 3.11667 13.86 3.30333 13.86 3.49C13.86 3.58333 13.86 3.7 13.86 3.84C13.86 3.98667 13.85 4.13 13.83 4.27C13.81 4.40333 13.7767 4.51667 13.73 4.61C13.6833 4.70333 13.6133 4.75 13.52 4.75C13.4667 4.75 13.4133 4.71333 13.36 4.64C13.3133 4.56 13.27 4.48 13.23 4.4C13.1833 4.29333 13.14 4.17667 13.1 4.05C13.02 3.83667 12.88 3.68 12.68 3.58C12.48 3.48 12.1167 3.43 11.59 3.43C11.3833 3.43 11.2 3.49 11.04 3.61C10.8733 3.72333 10.79 3.92667 10.79 4.22C10.79 4.46 10.8767 4.66 11.05 4.82C11.2167 4.98667 11.4267 5.13667 11.68 5.27C11.94 5.39667 12.22 5.52333 12.52 5.65C12.8133 5.77667 13.09 5.92667 13.35 6.1C13.6033 6.27333 13.8167 6.48 13.99 6.72C14.1567 6.95333 14.24 7.25333 14.24 7.62C14.24 7.93333 14.1633 8.21333 14.01 8.46C13.8567 8.7 13.6567 8.90333 13.41 9.07C13.1567 9.23 12.8767 9.35333 12.57 9.44C12.2567 9.52 11.9433 9.56 11.63 9.56C11.4567 9.56 11.27 9.54 11.07 9.5C10.8767 9.46 10.6867 9.40333 10.5 9.33C10.3133 9.26333 10.1467 9.17667 10 9.07C9.84667 8.96333 9.73 8.84667 9.65 8.72ZM15.25 7.93C15.25 7.51 15.3567 7.15333 15.57 6.86C15.7833 6.57333 16.0667 6.33333 16.42 6.14C16.7733 5.94667 17.1767 5.8 17.63 5.7C18.0833 5.6 18.55 5.53 19.03 5.49V5.18C19.03 4.96 19.0133 4.73667 18.98 4.51C18.9533 4.28333 18.89 4.07667 18.79 3.89C18.6767 3.70333 18.5233 3.58667 18.33 3.54C18.1433 3.48667 17.9567 3.46 17.77 3.46C17.5167 3.46 17.32 3.46667 17.18 3.48C17.04 3.49333 16.9333 3.52 16.86 3.56C16.7933 3.59333 16.7533 3.64667 16.74 3.72C16.7267 3.78667 16.72 3.88333 16.72 4.01C16.72 4.13667 16.7333 4.21667 16.76 4.25C16.7933 4.28333 16.81 4.32333 16.81 4.37C16.81 4.44333 16.78 4.52 16.72 4.6C16.66 4.68 16.5867 4.75 16.5 4.81C16.4133 4.87 16.3133 4.92 16.2 4.96C16.0933 4.99333 15.9933 5.01 15.9 5.01C15.6867 5.01 15.5567 4.94667 15.51 4.82C15.4633 4.7 15.44 4.59333 15.44 4.5C15.44 4.27333 15.55 4.05333 15.77 3.84C15.99 3.62667 16.2567 3.43 16.57 3.25C16.8833 3.07 17.2067 2.92667 17.54 2.82C17.88 2.71333 18.1667 2.66 18.4 2.66C18.7867 2.66 19.1067 2.72 19.36 2.84C19.6067 2.96667 19.7933 3.12667 19.92 3.32C20.0533 3.51333 20.1433 3.73333 20.19 3.98C20.2367 4.23333 20.26 4.48333 20.26 4.73V8.74C20.36 8.74 20.4667 8.72 20.58 8.68C20.6933 8.63333 20.8067 8.61 20.92 8.61C21.02 8.61 21.0867 8.63 21.12 8.67C21.1533 8.70333 21.17 8.75333 21.17 8.82C21.17 8.86 21.1333 8.92 21.06 9C20.98 9.08 20.8733 9.16 20.74 9.24C20.6067 9.32667 20.45 9.40333 20.27 9.47C20.0967 9.53 19.9 9.56 19.68 9.56C19.5067 9.56 19.3533 9.52333 19.22 9.45C19.0933 9.37667 19.03 9.25 19.03 9.07V8.54C18.7833 8.84 18.5167 9.08667 18.23 9.28C17.9367 9.46667 17.5867 9.56 17.18 9.56C16.8333 9.56 16.5367 9.51 16.29 9.41C16.0433 9.31 15.8433 9.17667 15.69 9.01C15.5367 8.85 15.4233 8.67333 15.35 8.48C15.2833 8.28667 15.25 8.10333 15.25 7.93ZM16.56 7.46C16.56 7.83333 16.6533 8.14667 16.84 8.4C17.0267 8.65333 17.3733 8.78 17.88 8.78C18.0667 8.78 18.2633 8.71 18.47 8.57C18.6833 8.43 18.87 8.24667 19.03 8.02V6.13C18.7633 6.14333 18.4867 6.17 18.2 6.21C17.9133 6.25 17.6467 6.31667 17.4 6.41C17.16 6.50333 16.96 6.63667 16.8 6.81C16.64 6.97667 16.56 7.19333 16.56 7.46ZM21.9 9.06C21.9 9.01333 21.93 8.97 21.99 8.93C22.05 8.88333 22.12 8.84333 22.2 8.81C22.2867 8.77 22.3733 8.73333 22.46 8.7C22.54 8.66667 22.6 8.64333 22.64 8.63V4.02C22.4533 3.98 22.26 3.92 22.06 3.84C21.8667 3.75333 21.77 3.67667 21.77 3.61C21.77 3.51667 21.8267 3.42333 21.94 3.33C22.0533 3.23 22.19 3.14333 22.35 3.07C22.5167 2.99667 22.6933 2.93333 22.88 2.88C23.0667 2.82667 23.23 2.8 23.37 2.8C23.4433 2.8 23.5133 2.81 23.58 2.83C23.64 2.85 23.68 2.88667 23.7 2.94V4.24C23.9 3.80667 24.1533 3.43333 24.46 3.12C24.7733 2.81333 25.14 2.66 25.56 2.66C25.6467 2.66 25.7533 2.67333 25.88 2.7C26.0067 2.73333 26.1333 2.78667 26.26 2.86C26.3867 2.94 26.4933 3.05 26.58 3.19C26.6667 3.33 26.71 3.51 26.71 3.73C26.71 3.81 26.6833 3.89 26.63 3.97C26.57 4.05 26.5 4.12 26.42 4.18C26.3333 4.24 26.24 4.29333 26.14 4.34C26.0467 4.38 25.9533 4.40333 25.86 4.41C25.7867 4.41 25.7233 4.39333 25.67 4.36C25.6167 4.32667 25.58 4.24667 25.56 4.12C25.5133 3.90667 25.4467 3.76667 25.36 3.7C25.2733 3.63333 25.14 3.6 24.96 3.6C24.8333 3.6 24.7033 3.66667 24.57 3.8C24.4367 3.92667 24.3167 4.08667 24.21 4.28C24.1033 4.47333 24.0167 4.67333 23.95 4.88C23.8767 5.09333 23.84 5.27667 23.84 5.43V8.33C23.84 8.46333 23.91 8.55 24.05 8.59C24.19 8.63 24.3433 8.66333 24.51 8.69C24.67 8.71 24.82 8.74333 24.96 8.79C25.0933 8.83 25.16 8.91 25.16 9.03C25.16 9.23667 25 9.34 24.68 9.34H22.16C22.0467 9.34 21.9733 9.30667 21.94 9.24C21.9133 9.17333 21.9 9.11333 21.9 9.06Z" fill="black"/>
</svg>
