<svg width="167.79" height="18.2" viewBox="0 0 167.79 18.2" xmlns="http://www.w3.org/2000/svg"><path transform="translate(0 13.776) scale(.014 -.014)" d="M10 0 261 668H366L616 0H516L464 146H162L110 0ZM190 227H436L313 573Z"/><path transform="translate(8.764 13.776) scale(.014 -.014)" d="m221 0q-47 0-72.5 9.5t-35 36.5-9.5 78v305h-84v67h84v124h84v-124h103v-67h-103v-291q0-42 9.5-53t41.5-11h52v-74z"/><path transform="translate(13.328 13.776) scale(.014 -.014)" d="M72 0V708H156V273L356 496H457L270 291L482 0H379L214 229L156 166V0Z"/><path transform="translate(20.216 13.776) scale(.014 -.014)" d="m94 0v429h-69v67h153v-496zm34 590q-25 0-43.5 18.5t-18.5 43.5q0 26 18.5 44t43.5 18q26 0 44-18t18-44q0-25-18-43.5t-44-18.5z"/><path transform="translate(23.744 13.776) scale(.014 -.014)" d="m72 0v496h62l22-75q14 24 35.5 42.5t52 29.5 72.5 11q60 0 96-24t52-66.5 16-99.5v-314h-84v289q0 38-7 70.5t-30.5 52.5-71.5 20q-61 0-96-41.5t-35-121.5v-269z"/><path transform="translate(31.444 13.776) scale(.014 -.014)" d="m239-12q-43 0-84.5 13.5t-74 41-49.5 69.5l81 30q11-41 49-62t79-21q49 0 83 21t34 56q0 32-26 49t-81 29l-58 13q-42 10-75.5 26t-53 43-19.5 70 26 74.5 69.5 48.5 95.5 17q62 0 115-25.5t76-78.5l-79-29q-13 31-46.5 46.5t-71.5 15.5q-42 0-71.5-17.5t-29.5-49.5q0-27 21-41.5t64-24.5l58-13q52-11 90-28t59-45.5 21-75.5q0-45-27-79.5t-72.5-53.5-102.5-19z"/><path transform="translate(38.038 13.776) scale(.014 -.014)" d="m274-12q-43 0-85 15t-76.5 46.5-55.5 80.5-21 116 21 116 55.5 80.5 76.5 46.5 85 15 85-15 76.5-46.5 55.5-80.5 21-116-21-116-55.5-80.5-76.5-46.5-85-15zm0 74q38 0 71.5 19.5t55 60 21.5 104.5-21.5 104.5-55 60-71.5 19.5q-37 0-71-19.5t-55.5-60-21.5-104.5 21.5-104.5 55.5-60 71-19.5z"/><path transform="translate(45.71 13.776) scale(.014 -.014)" d="m72 0v496h62l22-75q14 24 35.5 42.5t52 29.5 72.5 11q60 0 96-24t52-66.5 16-99.5v-314h-84v289q0 38-7 70.5t-30.5 52.5-71.5 20q-61 0-96-41.5t-35-121.5v-269z"/><path transform="translate(57.33 13.776) scale(.014 -.014)" d="M78 0V668H172V384H522V668H616V0H522V303H172V0Z"/><path transform="translate(67.046 13.776) scale(.014 -.014)" d="m47-162v74h41q30 0 47.5 5t28.5 20.5 20 45.5l5 16-179 497h92l127-379 118 379h92l-174-518q-13-40-27-67t-32.5-43-46-23-69.5-7z"/><path transform="translate(73.332 13.776) scale(.014 -.014)" d="m72-162v658h61l23-78q15 26 38 45.5t53.5 30 69.5 10.5q57 0 105.5-30.5t78-88 29.5-139.5q0-81-29.5-139t-78-88.5-105.5-30.5q-39 0-69.5 10.5t-53.5 30.5-38 46v-237zm223 222q64 0 102.5 49t38.5 137q0 89-38.5 137.5t-102.5 48.5-102.5-48.5-38.5-137.5q0-88 38.5-137t102.5-49z"/><path transform="translate(81.256 13.776) scale(.014 -.014)" d="m279-12q-78 0-132 34.5t-82.5 93-28.5 131.5q0 79 32 136.5t86.5 89 122.5 31.5q59 0 104-23.5t74.5-63 43-89.5 9.5-103h-384q4-49 20.5-81t39.5-50 48.5-25 46.5-7q42 0 70.5 13.5t45.5 35.5l81-24q-27-43-77-71t-120-28zm-154 304h294q0 35-17.5 67t-49 52.5-75.5 20.5q-33 0-65.5-13t-56-43.5-30.5-83.5z"/><path transform="translate(88.788 13.776) scale(.014 -.014)" d="m72 0v496h61l27-92q18 30 43.5 52.5t59 35 74.5 12.5v-87q-68 0-107.5-23.5t-56.5-69-17-111.5v-213z"/><path transform="translate(93.674 13.776) scale(.014 -.014)" d="m187 0q-46 0-72 10t-36.5 35.5-10.5 72.5v590h84v-580q0-32 9.5-43t46.5-11h34v-74z"/><path transform="translate(97.342 13.776) scale(.014 -.014)" d="m279-12q-78 0-132 34.5t-82.5 93-28.5 131.5q0 79 32 136.5t86.5 89 122.5 31.5q59 0 104-23.5t74.5-63 43-89.5 9.5-103h-384q4-49 20.5-81t39.5-50 48.5-25 46.5-7q42 0 70.5 13.5t45.5 35.5l81-24q-27-43-77-71t-120-28zm-154 304h294q0 35-17.5 67t-49 52.5-75.5 20.5q-33 0-65.5-13t-56-43.5-30.5-83.5z"/><path transform="translate(104.87 13.776) scale(.014 -.014)" d="m272-192q-40 0-80 11.5t-70.5 37.5-43.5 67l82 25q11-33 42.5-50.5t75.5-17.5q37 0 65 12.5t44.5 40.5 16.5 75v85q-23-39-61-62t-97-23q-55 0-103 28.5t-77.5 84-29.5 134.5q0 80 29.5 135t77.5 84 103 29q59 0 97-23.5t61-62.5l23 78h61v-488q0-66-27-110.5t-75.5-67-113.5-22.5zm-5 271q38 0 69.5 18t51 57 19.5 102-19.5 102-51 56.5-69.5 17.5q-61 0-100.5-45.5t-39.5-130.5 39.5-131 100.5-46z"/><path transform="translate(112.69 13.776) scale(.014 -.014)" d="m94 0v429h-69v67h153v-496zm34 590q-25 0-43.5 18.5t-18.5 43.5q0 26 18.5 44t43.5 18q26 0 44-18t18-44q0-25-18-43.5t-44-18.5z"/><path transform="translate(116.21 13.776) scale(.014 -.014)" d="m317-12q-39 0-69.5 10.5t-53.5 30.5-38 46l-22-75h-62v708h84v-290q15 26 38 45.5t53.5 30 69.5 10.5q57 0 105.5-30.5t78-88 29.5-139.5-29.5-139.5-78-88-105.5-30.5zm-22 72q64 0 102.5 49t38.5 137q0 89-38.5 137.5t-102.5 48.5-102.5-48.5-38.5-137.5q0-59 17.5-100.5t49.5-63.5 74-22z"/><path transform="translate(124.14 13.776) scale(.014 -.014)" d="m187 0q-46 0-72 10t-36.5 35.5-10.5 72.5v590h84v-580q0-32 9.5-43t46.5-11h34v-74z"/><path transform="translate(127.81 13.776) scale(.014 -.014)" d="m279-12q-78 0-132 34.5t-82.5 93-28.5 131.5q0 79 32 136.5t86.5 89 122.5 31.5q59 0 104-23.5t74.5-63 43-89.5 9.5-103h-384q4-49 20.5-81t39.5-50 48.5-25 46.5-7q42 0 70.5 13.5t45.5 35.5l81-24q-27-43-77-71t-120-28zm-154 304h294q0 35-17.5 67t-49 52.5-75.5 20.5q-33 0-65.5-13t-56-43.5-30.5-83.5z"/><path transform="translate(139.26 13.776) scale(.014 -.014)" d="M78 0V668H217L521 100V668H615V0H477L172 571V0Z"/><path transform="translate(148.96 13.776) scale(.014 -.014)" d="m279-12q-78 0-132 34.5t-82.5 93-28.5 131.5q0 79 32 136.5t86.5 89 122.5 31.5q59 0 104-23.5t74.5-63 43-89.5 9.5-103h-384q4-49 20.5-81t39.5-50 48.5-25 46.5-7q42 0 70.5 13.5t45.5 35.5l81-24q-27-43-77-71t-120-28zm-154 304h294q0 35-17.5 67t-49 52.5-75.5 20.5q-33 0-65.5-13t-56-43.5-30.5-83.5z"/><path transform="translate(156.49 13.776) scale(.014 -.014)" d="M10 0 191 255 19 496H118L240 324L363 496H462L290 255L471 0H372L240 185L109 0Z"/><path transform="translate(163.23 13.776) scale(.014 -.014)" d="m221 0q-47 0-72.5 9.5t-35 36.5-9.5 78v305h-84v67h84v124h84v-124h103v-67h-103v-291q0-42 9.5-53t41.5-11h52v-74z"/></svg>