<svg width="93.181" height="17.5" viewBox="0 0 93.181 17.5" xmlns="http://www.w3.org/2000/svg"><path transform="translate(0 13.74) scale(.0068359 -.0068359)" d="m35 77q0 32 9 64.5t33 65.5q17 29 46.5 88t66.5 139 79.5 174.5 86.5 193 87.5 197 82.5 185 71 156.5 54 113q3 22 12 43.5t24 39 36 28 49 10.5q36 0 58.5-10t37-27.5 23.5-40.5 18-49q8-23 15-43.5t13-31.5q67-134 130.5-270t126-276.5 126.5-284.5 133-293l19-28q8-11 19-26.5t20.5-33.5 16-38 6.5-40q0-60-34-85.5t-83-25.5q-27 0-49.5 8.5t-39.5 23-27 34-13 41.5q-28 61-52 114.5t-46.5 103.5-43.5 97.5-42 95.5q-16 0-45 0.5t-65 2.5q-57 0-115.5 1t-119.5 1.5-126 0-136-3.5q-11-1-21-1.5t-21-0.5q-28-68-53-129.5t-45-113.5-35.5-92.5-23.5-65.5v1q-6-22-13.5-43t-21.5-37.5-38.5-27-64.5-10.5q-54 0-89.5 27t-35.5 79zm511 630q21 0 54.5 0t87-0.5 131.5-1 189-1.5q-46 100-104 225.5t-137 292.5q-23-51-49-112t-54.5-127-58-136-59.5-140z"/><path transform="translate(10.719 13.74) scale(.0068359 -.0068359)" d="m157 546q0 94 20.5 203t66.5 209q-20-6-37-6-38 0-59 13.5t-30.5 31.5-11 37-1.5 30q0 30 10 49.5t28 31.5 44.5 19 59.5 14q17 2 37 9.5t39 15.5q26 11 55 20t60 9q32 0 54.5-9t37-24.5 21-36 6.5-43.5q0-29-13-59t-37-57q-32-36-56-89t-40.5-114.5-25-127-8.5-126.5q0-188 77.5-277t228.5-89q49 0 98.5 14t97 38.5 91 58 81.5 72.5q2 85 3 157.5t1 141.5q0 42 0 79.5t-1 74-2 76-3 86.5q-31-9-59-14t-42-5q-21 0-40 7t-34 21-24 35.5-9 50.5q0 31 11.5 50.5t33 31 51.5 18.5 67 15q21 3 40.5 10.5t39.5 15 41 13 44 5.5q36 0 55-12.5t28-34 10.5-51 1.5-62.5q0-29 0-74.5t1-102.5q0-164 3-333.5t3-362.5q0-27 3.5-54.5t3.5-59.5q0-27-3.5-47.5t-17-34.5-40-22.5-73.5-9.5q-30 0-50.5 11.5t-33 28.5-18 36.5-5.5 35.5q0 11 1.5 17.5t3.5 16.5q-46-40-94.5-67.5t-95.5-45-91.5-25.5-82.5-8q-260 0-390.5 147t-130.5 428z"/><path transform="translate(20.542 13.74) scale(.0068359 -.0068359)" d="m285 290-6 705-121-1q-23 0-40 9.5t-28.5 26-17.5 37.5-6 44q0 39 9.5 59.5t27.5 30 44 11 60 1.5h71v37q0 37-0.5 60t-0.5 31q0 29-5.5 58t-5.5 59q0 25 6 44t20.5 32.5 38.5 20.5 59 7q24 0 45.5-4t38-15.5 26.5-31.5 10-52q0-43-7.5-85t-6.5-87v-73q78 2 121.5 3t70.5 2q4 0 7.5 0.5t6.5 0.5q12 1 27 1t24 0q19 0 37-6t31.5-20 21.5-36 8-53q0-24-4-45t-15-37-32-25.5-54-9.5q-31 0-62.5 3.5t-64.5 4.5l-121-1 7-789q41 7 72 13t58 12 53 14 57 20q17 9 40 18.5t48 9.5q49 0 77-33.5t28-87.5q0-14-6.5-31t-19.5-33.5-33.5-30-48.5-19.5q-30-6-69-15t-82-19-86-20-81-17.5-67-12.5-44-4q-18 0-39.5 4.5t-39.5 16-29.5 32-11.5 52.5z"/><path transform="translate(27.378 13.74) scale(.0068359 -.0068359)" d="m109 603q0 130 48.5 244.5t133 200 197.5 135 242 49.5q141 0 255.5-49.5t196-135 125.5-200 44-244.5q0-95-22.5-179t-63.5-154-98.5-125.5-126.5-94-147.5-59-162.5-20.5q-126 0-239 45.5t-198 128-134.5 199-49.5 259.5zm231 0q0-95 27-172t77.5-131.5 122.5-84 162-29.5q80 0 151 27t124.5 79.5 85 130.5 31.5 180q0 84-26.5 159.5t-76.5 131.5-123 89-166 33-165-33-122-89-76-131.5-26-159.5z"/><path transform="translate(37.358 13.74) scale(.0068359 -.0068359)" d="m157 546q0 94 20.5 203t66.5 209q-20-6-37-6-38 0-59 13.5t-30.5 31.5-11 37-1.5 30q0 30 10 49.5t28 31.5 44.5 19 59.5 14q17 2 37 9.5t39 15.5q26 11 55 20t60 9q32 0 54.5-9t37-24.5 21-36 6.5-43.5q0-29-13-59t-37-57q-32-36-56-89t-40.5-114.5-25-127-8.5-126.5q0-188 77.5-277t228.5-89q49 0 98.5 14t97 38.5 91 58 81.5 72.5q2 85 3 157.5t1 141.5q0 42 0 79.5t-1 74-2 76-3 86.5q-31-9-59-14t-42-5q-21 0-40 7t-34 21-24 35.5-9 50.5q0 31 11.5 50.5t33 31 51.5 18.5 67 15q21 3 40.5 10.5t39.5 15 41 13 44 5.5q36 0 55-12.5t28-34 10.5-51 1.5-62.5q0-29 0-74.5t1-102.5q0-164 3-333.5t3-362.5q0-27 3.5-54.5t3.5-59.5q0-27-3.5-47.5t-17-34.5-40-22.5-73.5-9.5q-30 0-50.5 11.5t-33 28.5-18 36.5-5.5 35.5q0 11 1.5 17.5t3.5 16.5q-46-40-94.5-67.5t-95.5-45-91.5-25.5-82.5-8q-260 0-390.5 147t-130.5 428z"/><path transform="translate(47.182 13.74) scale(.0068359 -.0068359)" d="m214 89q0 35 1 70t2 77v771q0 28-6 56.5t-6 59.5q0 53 38 81t103 28q28 0 49-9.5t35-24.5 21-34 7-39q0-17-2.5-34.5t-5.5-34.5q153 38 260.5 69t168.5 51q13 23 36.5 39.5t61.5 16.5q55 0 87.5-28.5t32.5-71.5q0-17-2-35t-2-36q-6-61-2.5-124t8.5-127q2-20 2.5-42.5t0.5-45.5q0-24-12-40t-30.5-25.5-40.5-13.5-43-4q-30 0-50 10.5t-32.5 27-18 37-5.5 40.5q0 46 1 93.5t2 104.5q-38-9-104.5-24t-145.5-32q-45-11-89-20.5t-89-19.5v-653l30 9q20 7 38 12.5t41 7.5q19-2 37.5-9t33-20 23.5-32.5 9-44.5q0-23-7.5-44t-20.5-37.5-30.5-27-38.5-11.5q-14-2-38-6.5t-56-10.5q-51-10-82.5-14t-52.5-4q-23 0-44.5 7.5t-37.5 22.5-25.5 37-9.5 51z"/><path transform="translate(60.997 13.74) scale(.0068359 -.0068359)" d="m144 773q0 178 50.5 325t143 253 223 164.5 289.5 58.5q168 0 296.5-58.5t216-164.5 132.5-253 45-325q0-169-49-315.5t-140-254.5-220-170-289-62q-106 0-199 28t-170.5 80-138.5 124.5-103.5 161.5-64.5 192-22 216zm228 0q0-75 14-148.5t41.5-140 68-123 93-98 117-65 139.5-23.5q79 0 144 23.5t117 65 90.5 98 64 123 38 140 12.5 148.5q0 120-28 227.5t-85.5 189.5-145 130-207.5 48q-113 0-201-43t-148.5-121-92-187.5-31.5-243.5z"/><path transform="translate(72.509 13.74) scale(.0068359 -.0068359)" d="m283 74q0 18 1.5 37t3.5 37q3 27 6 59t3 72q0 78-0.5 147.5t-2.5 143.5q0 2 0 6.5t-0.5 18.5-1 41-1.5 76-2.5 122.5-3.5 179.5q-13-2-30.5-3.5t-41.5-1.5q-18 0-36.5 6t-34 18.5-25 33-9.5 50.5q0 54 27.5 81.5t67.5 27.5q16 0 31-4t32-4q20 0 41 1t41 3q22 2 43.5 3t38.5 1q41 0 68-27t27-76q0-12-0.5-28t-2.5-31q34 33 77 63t93.5 53.5 108.5 37.5 123 14q127 0 222.5-41.5t160-120 97-192.5 32.5-259q0-44-6-92t-16.5-96-25-95.5-32.5-89.5q23 7 44 12t35 7q112 11 112-102 0-14-3-30.5t-12-32-25-29-41-22.5l-108-25q-50-15-80.5-25.5t-51-17-34.5-9-31-1.5q-24 0-42 11.5t-30 29-18 38.5-6 41q0 32 9 65t32 60q28 36 47.5 81t31.5 97 17.5 109 5.5 116q0 68-14.5 138.5t-49 128-91 94-141.5 36.5q-59 0-115.5-18.5t-108-49-96.5-69.5-79-80q-1-45-1.5-90.5t-0.5-91.5q-2-78-3-155t-1-156q0-23 0-46.5t2-49.5l27 8q11 3 21.5 5.5t18.5 2.5q54 0 82-26.5t28-77.5q0-38-15-60.5t-38-35-50.5-17.5-53.5-8q-14-2-27-3.5t-22-4.5q-32-9-55-15.5t-40-6.5q-59 0-80.5 27t-21.5 76z"/><path transform="translate(83.597 13.74) scale(.0068359 -.0068359)" d="m357 451q19-75 56.5-125.5t84.5-81.5 99.5-44.5 102.5-13.5q78 0 139 13.5t104.5 33 70.5 40.5 38 37q10 15 22.5 28.5t27 24 29 16.5 27.5 6q50 0 77.5-29.5t27.5-79.5q0-19-14-48t-52-64q-42-39-93.5-74t-113.5-61.5-134.5-42-156.5-15.5q-99 0-181 26.5t-147 72-113 105.5-80 128-48 140-16 140q0 148 48 267.5t132 204.5 199 131 249 46q96 0 180-28.5t149.5-80 110-123 62.5-157.5q20-17 29.5-44.5t9.5-54.5q0-45-30.5-73.5t-76.5-39.5q-101-26-202-48t-203-43-205.5-43-208.5-46zm-17 185q170 40 344 75t354 78q-17 46-46 87.5t-68 72.5-86.5 49-102.5 18q-85 0-154.5-27.5t-120.5-77-82-120-38-155.5z"/></svg>