<svg width="112.96" height="15.675" viewBox="0 0 112.96 15.675" xmlns="http://www.w3.org/2000/svg"><path transform="translate(0 12.496) scale(.0068359 -.0068359)" d="m857 593v6q0 94-161 470-28 65-29 65l-29-67q-166-387-166-470 0-14 17.5-15t26.5-1l78-2h71l7 1q185 0 185 13zm-834-533q0 25 57 58t84 84 76 184.5 133.5 336.5 134 364.5 67.5 204.5q41 98 116 98h28q19 0 47-21 57-43 119-184 21-48 63-164.5t168-455.5 141-369q25-52 85-83.5t60-50.5q0-42-50-52-34-7-172-7l-58-1q-185 0-185 50 0 9 23.5 43t23.5 86-37.5 149-63 120-217.5 23-224-21-69-113-37-149.5 35.5-101.5 35.5-46q0-36-122.5-36t-192 9.5-69.5 44.5z"/><path transform="translate(9.543 12.496) scale(.0068359 -.0068359)" d="m564-13h-23q-47 0-93 87-23 44-141 345t-144 347.5-81 83-55 55.5q0 31 44 40t201 9 157-45q0-3-11-32.5t-11-64.5q0-137 156-498 29-66 41-66t39 60q161 356 161 494 0 34-26 72t-26 39q0 43 186 43h24q122 0 122-42 0-36-53-70.5t-81-85.5q-13-23-133-320.5t-162-374-91-76.5z"/><path transform="translate(17.015 12.496) scale(.0068359 -.0068359)" d="m719 650v31q0 74-53 133.5t-130 59.5h-19q-14-2-19-2-70 0-132.5-80t-62.5-171v-13q0-32 38-32 15-3 16-3l23-1h6l7 1 193 11 36 4q97 0 97 62zm-416-265q0-114 86-191t218-77q53 0 96.5 15.5t95 37.5 64.5 22q40 0 40-43 0-58-148-124-96-43-206-43h-22q-188 0-312 114-67 62-104 158.5t-37 207.5l1 23v23q0 96 44 189 45 93 107 153 131 126 311 127 272 0 362-212 28-67 28-123v-20q0-69-57-92.5t-269-38.5-230-20q-68-17-68-86z"/><path transform="translate(24.001 12.496) scale(.0068359 -.0068359)" d="m588 39q0-39-181-39h-106l-42 2-63 1q-106 0-106 38 0 27 47.5 57.5t64 79 16.5 286.5-15.5 289-48.5 73q-59 39-59 57t21 32q62 42 210 42h19q57 0 81-57.5t39-57.5 51.5 28 88 56 114.5 28 96.5-32.5 33.5-83.5q-1-52-27-78t-56-26-79 24.5-82 24.5-72-27.5-66.5-98-27.5-241 24-220 74.5-90.5 50.5-67z"/><path transform="translate(30.105 12.496) scale(.0068359 -.0068359)" d="m457 1284q0-44-37.5-81.5t-74.5-37.5q-8-2-13-2l-22-2q-50 0-89.5 33t-39.5 85v18q0 52 41.5 87.5t95.5 35.5h5l34-4q31 0 64.5-33.5t33.5-67.5l2-9zm-349-364q73 44 231 44h29q54 0 61-50 4-27 4-363.5t14-386 67-76 53-53.5q0-38-248-38l-30-1h-122q-73 0-73 36 0 30 44.5 58t61.5 62q19 37 19 173l1 32v31l1 47v31l1 31q0 237-15.5 276.5t-67.5 64.5-52 47 21 35z"/><path transform="translate(34.494 12.496) scale(.0068359 -.0068359)" d="m613 463h-17q-131 0-218.5-58.5t-87.5-145.5v-20q0-51 31.5-91.5t81.5-40.5l12-2h30q104 0 170 85 29 37 29 152 0 9 0 18l1 24v24q0 55-32 55zm-486 323q0 74 117.5 132.5t243.5 58.5q4 0 8 0 120 0 192-29 146-58 167-246 2-19 2-251.5t12.5-272.5 68-59 55.5-36q0-36-36-55-72-38-141.5-38t-103.5 32q-61 57-65 57t-113-50.5-191-50.5q-123 0-193 68t-70 165v25q0 104 90 183t324 123q85 16 107 30 44 28 44 114t-46 132-123 46-148.5-89.5-130.5-89.5q-70 0-70 101z"/><path transform="translate(45.315 12.496) scale(.0068359 -.0068359)" d="m433 922q58-45 237-122t249-142q134-124 134-258v-36q0-166-132-270-61-48-152-76.5t-182-28.5h-37q-206 0-361 62-70 28-70 153v35q0 148 51 148 35 0 95-95t138.5-143 189.5-48 179 58.5 68 144.5q0 118-110 199-47 34-236 121.5t-262 163.5q-100 104-100 254t107 249q59 55 147 85.5t180 30.5h37q38 0 108-13l35-7q62-12 67-13l31-2 30-1q42-3 59-10 59-24 59-167t-56-143q-28 0-84 80t-99 109q-82 56-184.5 56t-167.5-53.5-65-150 97-170.5z"/><path transform="translate(53.163 12.496) scale(.0068359 -.0068359)" d="m719 650v31q0 74-53 133.5t-130 59.5h-19q-14-2-19-2-70 0-132.5-80t-62.5-171v-13q0-32 38-32 15-3 16-3l23-1h6l7 1 193 11 36 4q97 0 97 62zm-416-265q0-114 86-191t218-77q53 0 96.5 15.5t95 37.5 64.5 22q40 0 40-43 0-58-148-124-96-43-206-43h-22q-188 0-312 114-67 62-104 158.5t-37 207.5l1 23v23q0 96 44 189 45 93 107 153 131 126 311 127 272 0 362-212 28-67 28-123v-20q0-69-57-92.5t-269-38.5-230-20q-68-17-68-86z"/><path transform="translate(60.149 12.496) scale(.0068359 -.0068359)" d="m588 39q0-39-181-39h-106l-42 2-63 1q-106 0-106 38 0 27 47.5 57.5t64 79 16.5 286.5-15.5 289-48.5 73q-59 39-59 57t21 32q62 42 210 42h19q57 0 81-57.5t39-57.5 51.5 28 88 56 114.5 28 96.5-32.5 33.5-83.5q-1-52-27-78t-56-26-79 24.5-82 24.5-72-27.5-66.5-98-27.5-241 24-220 74.5-90.5 50.5-67z"/><path transform="translate(66.254 12.496) scale(.0068359 -.0068359)" d="m457 1284q0-44-37.5-81.5t-74.5-37.5q-8-2-13-2l-22-2q-50 0-89.5 33t-39.5 85v18q0 52 41.5 87.5t95.5 35.5h5l34-4q31 0 64.5-33.5t33.5-67.5l2-9zm-349-364q73 44 231 44h29q54 0 61-50 4-27 4-363.5t14-386 67-76 53-53.5q0-38-248-38l-30-1h-122q-73 0-73 36 0 30 44.5 58t61.5 62q19 37 19 173l1 32v31l1 47v31l1 31q0 237-15.5 276.5t-67.5 64.5-52 47 21 35z"/><path transform="translate(70.643 12.496) scale(.0068359 -.0068359)" d="m443-23h-55q-293 0-293 45 0 26 49.5 57t65 85.5 15.5 308.5-14.5 289-53.5 61.5-39 48 44.5 77 62.5 133.5q46 194 127 282 103 113 289 113 90 0 144-31.5t54-81.5-26.5-74-56-24-96 36-100.5 36q-55 0-84.5-68.5t-29.5-150.5 34-120q12-13 89-52.5t77-69.5q0-23-79-46.5t-98-51.5q-32-47-32-303.5t18.5-308.5 72.5-91 54-60q0-39-139-39z"/><path transform="translate(79.311 12.496) scale(.0068359 -.0068359)" d="m751-2h-30l-30 1h-149q-355 0-383 5-52 9-52 44 0 15 54.5 53t71 109.5 16.5 525.5-11.5 493.5-58.5 59.5q-74 32-74 68t112 36h60l29-1 90-1q242 0 242-36 0-12-71-81-40-39-57.5-133.5t-17.5-503.5 12.5-447 58.5-53q28-9 110-9 177 0 265 46 50 26 108 107t90.5 81 32.5-42v-26q0-220-54-269-30-27-364-27z"/><path transform="translate(87.616 12.496) scale(.0068359 -.0068359)" d="m457 1284q0-44-37.5-81.5t-74.5-37.5q-8-2-13-2l-22-2q-50 0-89.5 33t-39.5 85v18q0 52 41.5 87.5t95.5 35.5h5l34-4q31 0 64.5-33.5t33.5-67.5l2-9zm-349-364q73 44 231 44h29q54 0 61-50 4-27 4-363.5t14-386 67-76 53-53.5q0-38-248-38l-30-1h-122q-73 0-73 36 0 30 44.5 58t61.5 62q19 37 19 173l1 32v31l1 47v31l1 31q0 237-15.5 276.5t-67.5 64.5-52 47 21 35z"/><path transform="translate(92.005 12.496) scale(.0068359 -.0068359)" d="m617 852h-29q-53 0-103.5-29.5t-78-72.5-27.5-246v-159q0-148 45-204.5t155-56.5h21q106 0 171 100.5t65 228.5l2 23v71q0 147-64 246t-157 99zm-466-733q0 11 11.5 101t11.5 218v288l1 49v200l-1 49v49l-1 24q-1 25-1 83 0 119-63.5 149t-63.5 58q0 21 29 35 72 35 221 35 60 0 77-68 10-39 10-271t37-232q23 0 102 32t165 32q165 0 273.5-126t108.5-329v-26q0-98-35-190-69-180-233-253-88-39-181-39h-24q-39 0-119 19t-159 19l-82-7q-84 0-84 101z"/><path transform="translate(99.955 12.496) scale(.0068359 -.0068359)" d="m588 39q0-39-181-39h-106l-42 2-63 1q-106 0-106 38 0 27 47.5 57.5t64 79 16.5 286.5-15.5 289-48.5 73q-59 39-59 57t21 32q62 42 210 42h19q57 0 81-57.5t39-57.5 51.5 28 88 56 114.5 28 96.5-32.5 33.5-83.5q-1-52-27-78t-56-26-79 24.5-82 24.5-72-27.5-66.5-98-27.5-241 24-220 74.5-90.5 50.5-67z"/><path transform="translate(105.98 12.496) scale(.0068359 -.0068359)" d="m719 650v31q0 74-53 133.5t-130 59.5h-19q-14-2-19-2-70 0-132.5-80t-62.5-171v-13q0-32 38-32 15-3 16-3l23-1h6l7 1 193 11 36 4q97 0 97 62zm-416-265q0-114 86-191t218-77q53 0 96.5 15.5t95 37.5 64.5 22q40 0 40-43 0-58-148-124-96-43-206-43h-22q-188 0-312 114-67 62-104 158.5t-37 207.5l1 23v23q0 96 44 189 45 93 107 153 131 126 311 127 272 0 362-212 28-67 28-123v-20q0-69-57-92.5t-269-38.5-230-20q-68-17-68-86z"/></svg>