<svg width="47" height="14" viewBox="0 0 47 14" fill="none" xmlns="http://www.w3.org/2000/svg">
<path d="M0.54 9.76L0.5 9.36C0.94 9.27333 1.25333 9.18 1.44 9.08C1.62667 8.98667 1.74667 8.85 1.8 8.67L4.59 0.14L5.76 0L9.03 8.75C9.09 8.91 9.2 9.03333 9.36 9.12C9.51333 9.2 9.8 9.28 10.22 9.36L10.17 9.76C9.86333 9.74 9.56 9.73 9.26 9.73C8.96667 9.72333 8.65 9.72 8.31 9.72C7.57667 9.72 6.92 9.73333 6.34 9.76L6.3 9.36C6.78 9.26667 7.10667 9.18 7.28 9.1C7.44667 9.02667 7.53 8.93333 7.53 8.82L6.76 6.33H3.59L2.84 8.82C2.84 8.93333 2.92667 9.02667 3.1 9.1C3.28 9.18 3.59333 9.26667 4.04 9.36L4 9.76C3.69333 9.74 3.39 9.73 3.09 9.73C2.79 9.72333 2.47333 9.72 2.14 9.72C1.84667 9.72 1.6 9.72333 1.4 9.73C1.19333 9.73 0.906667 9.74 0.54 9.76ZM5.06 1.46L3.79 5.69H6.53L5.12 1.46H5.06ZM11.08 4.16C11.08 4.2 11.22 4.61 11.5 5.39C11.7733 6.17 12.14 7.30667 12.6 8.8C13.0933 7.28667 13.47 6.14333 13.73 5.37C13.99 4.60333 14.12 4.19667 14.12 4.15C14.12 3.94333 13.8633 3.80667 13.35 3.74L13.31 3.34C13.31 3.34 13.4133 3.34667 13.62 3.36C13.8267 3.37333 14.06 3.38 14.32 3.38C14.4933 3.38 14.69 3.37333 14.91 3.36C15.13 3.35333 15.3233 3.34667 15.49 3.34C15.6633 3.34 15.75 3.34 15.75 3.34L15.79 3.74C15.4633 3.78667 15.2433 3.85333 15.13 3.94C15.0167 4.03333 14.9367 4.15333 14.89 4.3L12.99 9.72L11.94 9.85L10.02 4.32C9.98 4.21333 9.90667 4.10333 9.8 3.99C9.68667 3.87 9.47667 3.78667 9.17 3.74L9.12 3.34C9.12 3.34 9.20667 3.34 9.38 3.34C9.54667 3.34667 9.74 3.35333 9.96 3.36C10.1867 3.37333 10.3833 3.38 10.55 3.38C10.73 3.38 10.9267 3.37333 11.14 3.36C11.3533 3.35333 11.5367 3.34667 11.69 3.34C11.8433 3.34 11.92 3.34 11.92 3.34L11.97 3.74C11.6567 3.78 11.43 3.84 11.29 3.92C11.15 4.00667 11.08 4.08667 11.08 4.16ZM21.09 8.56L21.26 8.98C20.9733 9.21333 20.6367 9.41667 20.25 9.59C19.8633 9.76333 19.4367 9.85 18.97 9.85C18.2767 9.85 17.71 9.71 17.27 9.43C16.8233 9.15667 16.4967 8.79 16.29 8.33C16.0767 7.87667 15.97 7.37333 15.97 6.82C15.97 6.37333 16.0333 5.94 16.16 5.52C16.2867 5.1 16.48 4.72333 16.74 4.39C17 4.05 17.3467 3.78 17.78 3.58C18.2067 3.38 18.72 3.28 19.32 3.28C19.6533 3.28 19.9833 3.36 20.31 3.52C20.6367 3.68 20.9067 3.93333 21.12 4.28C21.3333 4.63333 21.44 5.09667 21.44 5.67L20.97 6.25C20.93 6.23667 20.8667 6.23 20.78 6.23C20.6933 6.23 20.5833 6.23 20.45 6.23C20.2167 6.23 19.94 6.23333 19.62 6.24C19.3067 6.24667 18.9867 6.25333 18.66 6.26C18.3333 6.27333 18.0333 6.28667 17.76 6.3C17.4933 6.31333 17.2933 6.32333 17.16 6.33V6.46C17.16 7.33333 17.3433 7.97667 17.71 8.39C18.0833 8.80333 18.5633 9.01 19.15 9.01C19.4967 9.01 19.8233 8.97 20.13 8.89C20.4367 8.81667 20.7567 8.70667 21.09 8.56ZM20.18 5.24C20.18 4.92 20.12 4.67 20 4.49C19.8733 4.31 19.7167 4.17667 19.53 4.09C19.35 4.01 19.1767 3.97 19.01 3.97C18.55 3.97 18.1667 4.15 17.86 4.51C17.5533 4.86333 17.3467 5.28 17.24 5.76L20.14 5.65C20.1667 5.51 20.18 5.37333 20.18 5.24ZM24.12 3.29L24.38 3.42C24.3733 3.52 24.3667 3.67667 24.36 3.89C24.36 4.09667 24.36 4.32333 24.36 4.57C24.56 4.22333 24.8 3.95333 25.08 3.76C25.3533 3.56 25.61 3.41667 25.85 3.33C26.0833 3.24333 26.2467 3.2 26.34 3.2C26.3867 3.2 26.46 3.24667 26.56 3.34C26.66 3.44 26.76 3.56333 26.86 3.71C26.9533 3.86333 27.02 4.02 27.06 4.18L26.85 4.44C26.73 4.39333 26.5833 4.35 26.41 4.31C26.2433 4.27 26.0667 4.25 25.88 4.25C25.64 4.25 25.4033 4.30667 25.17 4.42C24.9367 4.54 24.7433 4.73667 24.59 5.01C24.4367 5.28333 24.36 5.66667 24.36 6.16C24.36 6.92667 24.3667 7.51 24.38 7.91C24.3933 8.30333 24.41 8.57667 24.43 8.73C24.4567 8.87667 24.4733 8.97667 24.48 9.03C24.5 9.11 24.64 9.18 24.9 9.24C25.16 9.3 25.4233 9.34 25.69 9.36L25.64 9.76C25.4933 9.75333 25.3067 9.74667 25.08 9.74C24.86 9.73333 24.6367 9.73 24.41 9.73C24.19 9.72333 24 9.72 23.84 9.72C23.6067 9.72 23.3367 9.72333 23.03 9.73C22.73 9.73 22.4667 9.74 22.24 9.76L22.28 9.36C22.3867 9.34667 22.5067 9.32667 22.64 9.3C22.7733 9.27333 22.8967 9.23667 23.01 9.19C23.1233 9.14333 23.1833 9.09667 23.19 9.05C23.19 9.05 23.2 8.98 23.22 8.84C23.24 8.7 23.26 8.44667 23.28 8.08C23.3 7.72 23.31 7.19667 23.31 6.51C23.31 5.83 23.3 5.32333 23.28 4.99C23.26 4.66333 23.24 4.44667 23.22 4.34C23.2 4.23333 23.19 4.18 23.19 4.18L22.3 3.91L22.27 3.55C22.4367 3.55 22.6333 3.53667 22.86 3.51C23.0933 3.49 23.32 3.45667 23.54 3.41C23.7667 3.37 23.96 3.33 24.12 3.29ZM33.27 8.99L33.41 9.36C33.0567 9.68667 32.67 9.85 32.25 9.85C32.0167 9.85 31.8067 9.77667 31.62 9.63C31.4333 9.48333 31.3167 9.25333 31.27 8.94C30.9233 9.2 30.58 9.41667 30.24 9.59C29.9 9.76333 29.5333 9.85 29.14 9.85C28.7667 9.85 28.4333 9.73333 28.14 9.5C27.8467 9.26667 27.7 8.89667 27.7 8.39C27.7 8.05667 27.8067 7.72667 28.02 7.4C28.24 7.08 28.6067 6.80667 29.12 6.58C29.64 6.34667 30.3433 6.20333 31.23 6.15V4.85C31.23 4.57667 31.13 4.37333 30.93 4.24C30.73 4.10667 30.49 4.04 30.21 4.04C29.7967 4.04 29.4933 4.13667 29.3 4.33C29.1 4.52333 29 4.76667 29 5.06C29 5.17333 29.0167 5.3 29.05 5.44L28.74 5.58C28.54 5.47333 28.3633 5.33 28.21 5.15C28.05 4.97 27.97 4.84 27.97 4.76C27.97 4.7 28.0267 4.59 28.14 4.43C28.26 4.27 28.4367 4.1 28.67 3.92C28.9033 3.74667 29.1867 3.59667 29.52 3.47C29.86 3.34333 30.2467 3.28 30.68 3.28C30.9733 3.28 31.2367 3.32333 31.47 3.41C31.71 3.49 31.9 3.63667 32.04 3.85C32.18 4.07 32.25 4.38 32.25 4.78C32.25 4.87333 32.2533 5.04 32.26 5.28C32.2667 5.52667 32.2733 5.80667 32.28 6.12C32.2867 6.44 32.2933 6.76 32.3 7.08C32.3067 7.4 32.3133 7.68333 32.32 7.93C32.3333 8.17 32.34 8.33667 32.34 8.43C32.3467 8.68333 32.4 8.86 32.5 8.96C32.5933 9.05333 32.7067 9.1 32.84 9.1C32.8933 9.1 32.96 9.09333 33.04 9.08C33.1133 9.06 33.19 9.03 33.27 8.99ZM31.23 8.4V6.78C30.41 6.8 29.8133 6.95333 29.44 7.24C29.0667 7.53333 28.88 7.84333 28.88 8.17C28.88 8.45 28.9633 8.66 29.13 8.8C29.2967 8.94 29.5167 9.01 29.79 9.01C29.9967 9.01 30.2233 8.96 30.47 8.86C30.7167 8.76 30.97 8.60667 31.23 8.4ZM38.51 3.71C38.5633 3.63 38.6533 3.51333 38.78 3.36C38.9067 3.21333 39.0467 3.08 39.2 2.96C39.3533 2.84 39.4967 2.78 39.63 2.78C39.6767 2.78 39.75 2.82667 39.85 2.92C39.9433 3.02 40.04 3.14333 40.14 3.29C40.24 3.44333 40.3067 3.6 40.34 3.76L40.13 4.02C40.07 3.98667 39.9867 3.95667 39.88 3.93C39.7667 3.91 39.6467 3.9 39.52 3.9C39.4267 3.9 39.3233 3.91 39.21 3.93C39.0967 3.95667 38.9833 3.99667 38.87 4.05C39.03 4.23667 39.1533 4.46333 39.24 4.73C39.32 4.99667 39.36 5.31667 39.36 5.69C39.36 6.05 39.2767 6.41 39.11 6.77C38.9367 7.12333 38.6633 7.41667 38.29 7.65C37.9167 7.88333 37.4267 8 36.82 8C36.6 8 36.3933 7.98667 36.2 7.96C36.04 8.16 35.9133 8.34 35.82 8.5C35.7267 8.65333 35.68 8.78 35.68 8.88C35.68 9 35.7533 9.08333 35.9 9.13C36.0467 9.17667 36.2767 9.2 36.59 9.2H37.64C38.54 9.2 39.2067 9.35 39.64 9.65C40.0733 9.95 40.29 10.37 40.29 10.91C40.29 11.29 40.14 11.6733 39.84 12.06C39.54 12.4533 39.1 12.7733 38.52 13.02C37.9467 13.2733 37.24 13.4 36.4 13.4C35.98 13.4 35.5767 13.3533 35.19 13.26C34.7967 13.1667 34.4767 13.0233 34.23 12.83C33.9767 12.63 33.85 12.3833 33.85 12.09C33.85 11.8233 33.9667 11.5133 34.2 11.16C34.4333 10.8067 34.7967 10.43 35.29 10.03C35.0033 9.96333 34.7833 9.87 34.63 9.75C34.4833 9.63 34.41 9.49333 34.41 9.34C34.41 9.15333 34.5333 8.93 34.78 8.67C35.0267 8.41 35.3233 8.14 35.67 7.86C35.2233 7.72 34.8767 7.47333 34.63 7.12C34.3767 6.76 34.25 6.25333 34.25 5.6C34.25 5.24 34.34 4.88333 34.52 4.53C34.7 4.17 34.9767 3.87333 35.35 3.64C35.73 3.40667 36.22 3.29 36.82 3.29C37.1533 3.29 37.4633 3.32 37.75 3.38C38.0433 3.44667 38.2967 3.55667 38.51 3.71ZM38.16 5.83C38.16 5.52333 38.1267 5.22 38.06 4.92C37.9933 4.62 37.8667 4.37 37.68 4.17C37.4867 3.97 37.2033 3.87 36.83 3.87C36.5433 3.87 36.3067 3.93333 36.12 4.06C35.9333 4.19333 35.7933 4.35667 35.7 4.55C35.6067 4.73667 35.54 4.92667 35.5 5.12C35.46 5.31333 35.44 5.47333 35.44 5.6C35.44 5.88 35.48 6.16 35.56 6.44C35.64 6.72 35.78 6.95333 35.98 7.14C36.1733 7.32667 36.4367 7.42 36.77 7.42C37.1367 7.42 37.4167 7.32667 37.61 7.14C37.81 6.95333 37.95 6.73667 38.03 6.49C38.11 6.23667 38.1533 6.01667 38.16 5.83ZM35.02 11.62C35.02 11.9667 35.1533 12.2567 35.42 12.49C35.68 12.7233 36.08 12.84 36.62 12.84C37.1267 12.84 37.5667 12.7467 37.94 12.56C38.3133 12.3667 38.6 12.1267 38.8 11.84C39.0067 11.5533 39.11 11.28 39.11 11.02C39.11 10.76 39 10.5367 38.78 10.35C38.5533 10.1633 38.1633 10.07 37.61 10.07H35.72C35.4867 10.33 35.3133 10.5933 35.2 10.86C35.08 11.1267 35.02 11.38 35.02 11.62ZM46.06 8.56L46.22 8.98C45.9333 9.21333 45.5967 9.41667 45.21 9.59C44.8233 9.76333 44.3967 9.85 43.93 9.85C43.2367 9.85 42.67 9.71 42.23 9.43C41.7833 9.15667 41.4567 8.79 41.25 8.33C41.0367 7.87667 40.93 7.37333 40.93 6.82C40.93 6.37333 40.9933 5.94 41.12 5.52C41.2467 5.1 41.44 4.72333 41.7 4.39C41.96 4.05 42.3067 3.78 42.74 3.58C43.1667 3.38 43.68 3.28 44.28 3.28C44.6133 3.28 44.9433 3.36 45.27 3.52C45.5967 3.68 45.8667 3.93333 46.08 4.28C46.3 4.63333 46.41 5.09667 46.41 5.67L45.93 6.25C45.89 6.23667 45.8267 6.23 45.74 6.23C45.6533 6.23 45.5433 6.23 45.41 6.23C45.1767 6.23 44.9033 6.23333 44.59 6.24C44.27 6.24667 43.9467 6.25333 43.62 6.26C43.2933 6.27333 42.9933 6.28667 42.72 6.3C42.4533 6.31333 42.2533 6.32333 42.12 6.33V6.46C42.12 7.33333 42.3067 7.97667 42.68 8.39C43.0467 8.80333 43.5233 9.01 44.11 9.01C44.4567 9.01 44.7833 8.97 45.09 8.89C45.3967 8.81667 45.72 8.70667 46.06 8.56ZM45.15 5.24C45.15 4.92 45.0867 4.67 44.96 4.49C44.8333 4.31 44.68 4.17667 44.5 4.09C44.3133 4.01 44.1367 3.97 43.97 3.97C43.51 3.97 43.1267 4.15 42.82 4.51C42.5133 4.86333 42.31 5.28 42.21 5.76L45.1 5.65C45.1333 5.51 45.15 5.37333 45.15 5.24Z" fill="black"/>
</svg>
