<svg width="76" height="14" viewBox="0 0 76 14" fill="none" xmlns="http://www.w3.org/2000/svg">
<path d="M8.94 9.84H7.61L6.51 6.69H2.85L1.75 9.84H0.5L4 0.17H5.44L8.94 9.84ZM3.22 5.67H6.16L4.94 2.18L4.71 1.4H4.66L4.43 2.18L3.22 5.67ZM14.57 3.46L12.34 9.84H11.03L8.8 3.46H10.01L11.66 8.57H11.71L13.37 3.46H14.57ZM18.21 9.03C18.8833 9.03 19.5567 8.83 20.23 8.43L20.63 9.27C19.85 9.76333 19.0133 10.01 18.12 10.01C17.2267 10.01 16.52 9.72667 16 9.16C15.4733 8.59333 15.21 7.78 15.21 6.72C15.21 5.65333 15.4833 4.81667 16.03 4.21C16.57 3.59667 17.2867 3.29 18.18 3.29C18.9933 3.29 19.6333 3.54 20.1 4.04C20.2933 4.24667 20.46 4.54667 20.6 4.94C20.7333 5.33333 20.8 5.79667 20.8 6.33L20.37 6.82H16.4C16.4333 8.29333 17.0367 9.03 18.21 9.03ZM19.62 5.93C19.62 5.41 19.4867 4.99 19.22 4.67C18.9467 4.35667 18.59 4.2 18.15 4.2C17.7033 4.2 17.3267 4.35667 17.02 4.67C16.7133 4.98333 16.5267 5.40333 16.46 5.93H19.62ZM22.27 9.84V3.46H23.03L23.38 4.58H23.43C23.9433 3.91333 24.65 3.51 25.55 3.37L25.67 4.48C25.23 4.50667 24.8067 4.61667 24.4 4.81C23.9867 5.01 23.6733 5.27333 23.46 5.6V9.84H22.27ZM30.18 6.02V5.4C30.18 4.64667 29.7867 4.27 29 4.27C28.3867 4.27 27.7433 4.47 27.07 4.87L26.67 4.03C27.45 3.53667 28.2933 3.29 29.2 3.29C29.8333 3.29 30.3533 3.45 30.76 3.77C31.1667 4.09 31.37 4.58667 31.37 5.26V9.84H30.61L30.26 9C29.9667 9.30667 29.6133 9.55 29.2 9.73C28.7867 9.91667 28.4133 10.01 28.08 10.01C27.5 10.01 27.0367 9.85 26.69 9.53C26.35 9.21667 26.18 8.80333 26.18 8.29C26.18 6.77667 27.5133 6.02 30.18 6.02ZM27.86 7.38C27.68 7.53333 27.56 7.67333 27.5 7.8C27.44 7.92667 27.41 8.09 27.41 8.29C27.41 8.49 27.4967 8.66333 27.67 8.81C27.8433 8.95667 28.07 9.03 28.35 9.03C28.9367 9.03 29.5467 8.76667 30.18 8.24V6.84C29.0067 6.86 28.2333 7.04 27.86 7.38ZM35.42 8.03C35.2 8.03 34.9933 8.01667 34.8 7.99C34.5667 8.43667 34.45 8.73 34.45 8.87C34.45 8.93667 34.5333 8.99333 34.7 9.04L36.41 9.42C37.2033 9.6 37.7667 9.80667 38.1 10.04C38.44 10.28 38.61 10.6333 38.61 11.1C38.61 11.5667 38.4467 11.96 38.12 12.28C37.4867 12.9133 36.5533 13.23 35.32 13.23C34.56 13.23 33.9067 13.09 33.36 12.81C32.8067 12.53 32.53 12.1267 32.53 11.6C32.53 11.08 32.9033 10.48 33.65 9.8C33.37 9.69333 33.23 9.54 33.23 9.34C33.23 9.13333 33.5067 8.62333 34.06 7.81C33.2533 7.46333 32.85 6.74 32.85 5.64C32.85 5.02667 33.07 4.48667 33.51 4.02C33.9433 3.56 34.58 3.33 35.42 3.33C35.9 3.33 36.3233 3.4 36.69 3.54L38.65 3.32V4.25H37.6C37.84 4.64333 37.96 5.14333 37.96 5.75C37.96 6.35 37.7467 6.88 37.32 7.34C36.8933 7.8 36.26 8.03 35.42 8.03ZM36.84 5.85C36.84 4.69 36.37 4.11 35.43 4.11C35.0567 4.11 34.7533 4.21 34.52 4.41C34.1533 4.72333 33.97 5.11667 33.97 5.59C33.97 6.06333 34.0833 6.45667 34.31 6.77C34.5367 7.09 34.8967 7.25 35.39 7.25C35.8833 7.25 36.25 7.1 36.49 6.8C36.7233 6.49333 36.84 6.17667 36.84 5.85ZM33.65 11.42C33.65 11.72 33.8133 11.95 34.14 12.11C34.4667 12.27 34.8933 12.35 35.42 12.35C35.94 12.35 36.4233 12.2433 36.87 12.03C37.3167 11.8233 37.54 11.5367 37.54 11.17C37.54 10.9833 37.4333 10.8333 37.22 10.72C37.0067 10.6 36.6333 10.4833 36.1 10.37L34.46 10.01C33.92 10.55 33.65 11.02 33.65 11.42ZM42.46 9.03C43.1333 9.03 43.8033 8.83 44.47 8.43L44.88 9.27C44.0933 9.76333 43.2567 10.01 42.37 10.01C41.4767 10.01 40.77 9.72667 40.25 9.16C39.7233 8.59333 39.46 7.78 39.46 6.72C39.46 5.65333 39.73 4.81667 40.27 4.21C40.8167 3.59667 41.5367 3.29 42.43 3.29C43.2433 3.29 43.8833 3.54 44.35 4.04C44.5433 4.24667 44.71 4.54667 44.85 4.94C44.9833 5.33333 45.05 5.79667 45.05 6.33L44.61 6.82H40.65C40.6767 8.29333 41.28 9.03 42.46 9.03ZM43.87 5.93C43.87 5.41 43.7367 4.99 43.47 4.67C43.1967 4.35667 42.84 4.2 42.4 4.2C41.9533 4.2 41.5767 4.35667 41.27 4.67C40.9633 4.98333 40.7767 5.40333 40.71 5.93H43.87ZM55.42 0.4L55.06 1.37C54.4067 1.14333 53.8 1.03 53.24 1.03C52.68 1.03 52.2233 1.17667 51.87 1.47C51.51 1.75667 51.33 2.10667 51.33 2.52C51.33 3.10667 51.6433 3.56667 52.27 3.9L54.25 5C55.35 5.61333 55.9 6.40667 55.9 7.38C55.9 8.18 55.6133 8.81667 55.04 9.29C54.4733 9.77 53.6733 10.01 52.64 10.01C51.6 10.01 50.67 9.82333 49.85 9.45L50.2 8.47C50.9667 8.80333 51.72 8.97 52.46 8.97C53.2 8.97 53.75 8.82667 54.11 8.54C54.4633 8.24667 54.64 7.89667 54.64 7.49C54.64 6.90333 54.3267 6.44 53.7 6.1L51.73 5.01C50.6233 4.39667 50.07 3.60333 50.07 2.63C50.07 1.83 50.3567 1.19 50.93 0.71C51.4967 0.236667 52.26 0 53.22 0C53.8733 0 54.6067 0.133333 55.42 0.4ZM60.97 6.02V5.4C60.97 4.64667 60.5767 4.27 59.79 4.27C59.1767 4.27 58.5333 4.47 57.86 4.87L57.45 4.03C58.2367 3.53667 59.0833 3.29 59.99 3.29C60.6233 3.29 61.1433 3.45 61.55 3.77C61.9567 4.09 62.16 4.58667 62.16 5.26V9.84H61.4L61.05 9C60.75 9.30667 60.3967 9.55 59.99 9.73C59.5767 9.91667 59.2033 10.01 58.87 10.01C58.29 10.01 57.8267 9.85 57.48 9.53C57.1333 9.21667 56.96 8.80333 56.96 8.29C56.96 6.77667 58.2967 6.02 60.97 6.02ZM58.64 7.38C58.4667 7.53333 58.35 7.67333 58.29 7.8C58.2233 7.92667 58.19 8.09 58.19 8.29C58.19 8.49 58.2767 8.66333 58.45 8.81C58.6233 8.95667 58.85 9.03 59.13 9.03C59.7167 9.03 60.33 8.76667 60.97 8.24V6.84C59.79 6.86 59.0133 7.04 58.64 7.38ZM69.6 5.01V9.84H68.41V5.07C68.41 4.82333 68.3167 4.63667 68.13 4.51C67.9367 4.37667 67.68 4.31 67.36 4.31C66.7 4.31 66.0167 4.54667 65.31 5.02V9.84H64.12V3.46H64.87L65.22 4.18C65.94 3.58667 66.72 3.29 67.56 3.29C68.1867 3.29 68.6833 3.44667 69.05 3.76C69.4167 4.08 69.6 4.49667 69.6 5.01ZM75.19 3.71L74.84 4.58C74.3667 4.37333 73.92 4.27 73.5 4.27C72.6867 4.27 72.28 4.51667 72.28 5.01C72.28 5.43667 72.82 5.85333 73.9 6.26C74.3 6.40667 74.6733 6.64 75.02 6.96C75.36 7.27333 75.53 7.65333 75.53 8.1C75.53 8.74667 75.32 9.22667 74.9 9.54C74.48 9.85333 73.8967 10.01 73.15 10.01C72.4033 10.01 71.6733 9.80333 70.96 9.39L71.31 8.52C71.8967 8.86 72.5633 9.03 73.31 9.03C73.63 9.03 73.8867 8.96 74.08 8.82C74.28 8.68667 74.38 8.50333 74.38 8.27C74.38 8.03667 74.2667 7.83667 74.04 7.67C73.82 7.50333 73.55 7.35333 73.23 7.22C72.91 7.09333 72.5933 6.95333 72.28 6.8C71.96 6.64 71.69 6.42 71.47 6.14C71.2433 5.86 71.13 5.53 71.13 5.15C71.13 4.55 71.3333 4.09 71.74 3.77C72.1467 3.45 72.6633 3.29 73.29 3.29C73.91 3.29 74.5433 3.43 75.19 3.71Z" fill="black"/>
</svg>
