<svg width="81.9" height="17.01" viewBox="0 0 81.9 17.01" xmlns="http://www.w3.org/2000/svg"><path transform="translate(0 13.51) scale(.007 -.007)" d="m210 0v1290l-30 200q60 8 123.5 14t128.5 6q116 0 221-14.5t184.5-52.5 126.5-104.5 47-169.5q0-109-47-188t-134-121l-154-44 147-14q61-18 115-46.5t93.5-69.5 62.5-97 23-129q0-85-22.5-152t-61.5-118-91-87.5-111.5-59-123.5-33-127-10.5zm185 160h110q99 0 176.5 14.5t131 48 81.5 89 28 138.5q0 75-26 128t-73.5 87-114.5 49.5-148 15.5h-165zm0 987v-262h105q61 3 120.5 19t106 47.5 75 80 28.5 116.5q0 66-30.5 109.5t-78.5 68.5-107.5 35-116.5 10q-34 0-70.5-2.5t-67.5-8.5z"/><path transform="translate(9.1 13.51) scale(.007 -.007)" d="m959 1344q-7 2-20.5 2.5t-24.5 0.5q-72 0-140-22.5t-128-63.5-110.5-98-89-125.5-63.5-146.5-33-161l83 117q25 16 58.5 30.5t70.5 25.5 75 17.5 72 6.5q87 0 167.5-24t143-74 100-128.5 37.5-187.5q0-108-36.5-204.5t-102.5-169-158-114.5-204-42q-98 0-173.5 31.5t-131.5 83.5-93.5 119-61 137.5-33.5 139.5-10 126q0 119 24.5 232t71 212.5 113.5 183 152.5 143 188 93 220.5 33.5q15 0 33-0.5t28-2.5zm-600-747q0-28 0.5-51t2.5-45 6-44.5 11-49.5q14-57 38.5-103.5t59-80 80-52 102.5-18.5q79 0 134.5 30t90.5 79.5 51.5 112.5 16.5 128q0 63-18.5 111t-52.5 79.5-81.5 47.5-105.5 16q-54 0-105-13t-95.5-35-79-51-55.5-61z"/><path transform="translate(18.2 13.51) scale(.007 -.007)" d="m238 0v160h345v966l58 227-136-186-212-188-108 121 458 420 150-20v-1340h345v-160z"/><path transform="translate(27.3 13.51) scale(.007 -.007)" d="m183 0v168q46 73 100 144t109.5 137.5 108.5 127 98 111.5q52 60 100.5 110.5t85.5 99.5 59 101.5 22 115.5q0 48-18 90.5t-50.5 74-77.5 50-99 18.5q-61 0-105.5-16.5t-78-43.5-58-60.5-45.5-67.5l-141 60q26 65 66.5 119.5t95.5 94 125 61.5 156 22q101 0 180-36t133.5-94.5 83-132.5 28.5-150q0-77-28.5-146.5t-71-132-91.5-117.5-90-103q-52-61-104-120t-99.5-115.5-88.5-109-71-100.5h700v-160z"/><path transform="translate(45.5 13.51) scale(.007 -.007)" d="m973 0v901l59 498-5 1-154-479-173-421h-100l-176 420-164 480-6-1 74-498v-901h-180v1290l-28 210 214 20 246-570 71-250 69 250 226 550 207 20v-1520z"/><path transform="translate(54.6 13.51) scale(.007 -.007)" d="m649-17q-111 0-203.5 43.5t-159.5 120-104.5 180.5-37.5 226q0 121 36 224.5t102 179 159.5 118 207.5 42.5q111 0 202-42.5t156.5-118 101.5-179 36-224.5q0-122-34.5-226t-99-180.5-156.5-120-206-43.5zm306 543q0 81-17 159t-54 139.5-96 99.5-143 38q-80 0-139-33t-97-88-56.5-125-18.5-144q0-81 18.5-159t57-139 99-98.5 144.5-37.5q79 0 136.5 33t94 87.5 54 124 17.5 143.5z"/><path transform="translate(63.7 13.51) scale(.007 -.007)" d="m391 0h-180v1100l180 20v-193l61 117q18 12 42.5 25t59.5 23.5 83 17.5 113 7q79 0 142.5-25.5t107-73.5 67-116 23.5-152v-750h-180v750q0 54-17.5 93t-48.5 64.5-72 37.5-87 12q-48 0-92.5-12t-82.5-30.5-68.5-40-50.5-40.5z"/><path transform="translate(72.8 13.51) scale(.007 -.007)" d="m649-17q-111 0-203.5 43.5t-159.5 120-104.5 180.5-37.5 226q0 121 36 224.5t102 179 159.5 118 207.5 42.5q111 0 202-42.5t156.5-118 101.5-179 36-224.5q0-122-34.5-226t-99-180.5-156.5-120-206-43.5zm306 543q0 81-17 159t-54 139.5-96 99.5-143 38q-80 0-139-33t-97-88-56.5-125-18.5-144q0-81 18.5-159t57-139 99-98.5 144.5-37.5q79 0 136.5 33t94 87.5 54 124 17.5 143.5z"/></svg>