<svg width="101.11" height="14" viewBox="0 0 101.11 14" xmlns="http://www.w3.org/2000/svg"><path transform="translate(0 10.5) scale(.0068359 -.0068359)" d="m96 0v31q93 3 138.5 14.5t60.5 41.5 15 86v824q0 58-15 87t-60.5 40.5-138.5 14.5v30q43-1 114-1.5t168-0.5q64 0 131.5 0.5t122 1 79.5 0.5q212 0 330.5-69.5t118.5-196.5q0-121-88.5-185t-287.5-103v-2q496-15 496-291 0-152-140-237t-389-85q-51 0-156.5 2.5t-218.5 2.5q-99 0-170-1t-110-4zm559 1137-190-1v-514h188q170 0 258 68t88 196q0 132-82.5 191t-261.5 60zm-2-1101q461 0 461 293 0 263-390 263h-259v-426q0-55 13.5-83t54-37.5 120.5-9.5z"/><path transform="translate(9.4199 10.5) scale(.0068359 -.0068359)" d="m320-23q-100 0-159.5 58t-59.5 170q0 80 30.5 127t79.5 72.5 105 40 108 28 87.5 37 43.5 67.5q-7 121-42.5 188t-101.5 67q-64 0-111.5-19.5t-47.5-52.5q0-31 22-68t22-70q0-31-20.5-49t-54.5-18q-39 0-63 27t-24 73q0 59 42 109t114 80 160 30q140 0 197.5-97t57.5-275v-399q0-78 48-78 27 0 52 7.5t42 44.5l17-27q-37-45-72.5-59t-91.5-14q-142 0-142 151-43-70-102-110.5t-136-40.5zm68 71q48 0 92.5 25t76.5 90v350q0 16 0 32-11-52-44.5-73t-76.5-32-84.5-29-68.5-62-27-134q0-82 35.5-124.5t96.5-42.5z"/><path transform="translate(15.395 10.5) scale(.0068359 -.0068359)" d="m462-23q-165 0-265.5 118.5t-100.5 317.5q0 137 48 240.5t134.5 162 201.5 58.5q122 0 205-62.5t83-157.5q0-64-26.5-107t-70.5-43q-36 0-58.5 21.5t-22.5 58.5q0 39 25 86t25 93q0 35-40 53.5t-99 18.5q-118 0-182-109t-64-300q0-189 66-292t188-103q83 0 145.5 38t96.5 133l29-33q-34-97-118.5-144.5t-199.5-47.5z"/><path transform="translate(21.219 10.5) scale(.0068359 -.0068359)" d="m320-23q-100 0-159.5 58t-59.5 170q0 80 30.5 127t79.5 72.5 105 40 108 28 87.5 37 43.5 67.5q-7 121-42.5 188t-101.5 67q-64 0-111.5-19.5t-47.5-52.5q0-31 22-68t22-70q0-31-20.5-49t-54.5-18q-39 0-63 27t-24 73q0 59 42 109t114 80 160 30q140 0 197.5-97t57.5-275v-399q0-78 48-78 27 0 52 7.5t42 44.5l17-27q-37-45-72.5-59t-91.5-14q-142 0-142 151-43-70-102-110.5t-136-40.5zm68 71q48 0 92.5 25t76.5 90v350q0 16 0 32-11-52-44.5-73t-76.5-32-84.5-29-68.5-62-27-134q0-82 35.5-124.5t96.5-42.5z"/><path transform="translate(27.193 10.5) scale(.0068359 -.0068359)" d="m374-23q-63 0-102.5 14.5t-63.5 28.5-43 14q-17 0-33.5-12t-23.5-41h-30q5 3 7.5 27.5t2 97.5-4.5 222h29q20-147 75-233.5t160-86.5q85 0 132.5 46.5t47.5 137.5q0 83-35.5 126.5t-130.5 71.5q-127 38-191 82.5t-64 147.5q0 118 67 186t173 68q57 0 89-14.5t52.5-29 42.5-14.5q32 0 50 53h28q-7-51-7.5-116t3.5-175h-29q-9 123-66.5 193t-143.5 70q-68 0-108.5-38.5t-40.5-117.5q0-76 47.5-111.5t153.5-67.5q115-34 167.5-89t52.5-160q0-133-70.5-206.5t-192.5-73.5z"/><path transform="translate(32.143 10.5) scale(.0068359 -.0068359)" d="m45 0v31q74 2 103.5 26t29.5 93v525q0 62-30 98.5t-103 46.5v31q32-3 59.5-4t52.5-1q102 0 170 23v-719q0-69 30-93t105-26v-31q-30 2-89.5 4.5t-118.5 2.5-119-2.5-90-4.5zm216 1053q-40 0-68 31.5t-28 73.5q0 43 28 73t68 30q38 0 66-30t28-73q0-42-28-73.5t-66-31.5z"/><path transform="translate(35.533 10.5) scale(.0068359 -.0068359)" d="m52 0v31q93-1 128 27t35 92v525q0 74-36.5 106.5t-126.5 38.5v31q28-4 59-4.5t64-0.5q52 0 99.5 5t89.5 18v-182q43 97 116 142t160 45q183 0 241-193 44 109 123.5 151t176.5 42q128 0 196.5-95t68.5-280v-349q0-67 35-93.5t129-25.5v-31q-34 2-103 4.5t-134 2.5q-59 0-115.5-2.5t-84.5-4.5v31q72-1 98 25.5t26 93.5v430q0 125-43 183t-128 58q-70 0-131-41.5t-103-143.5q12-62 12-137v-349q0-67 26.5-93.5t98.5-25.5v-31q-28 2-85 4.5t-113 2.5q-58 0-114.5-2.5t-84.5-4.5v31q71-1 97.5 25.5t26.5 93.5v430q0 125-43 183t-128 58q-136 0-221-204v-467q0-64 26.5-92t98.5-27v-31q-43 2-94 4.5t-107 2.5q-58 0-119-1.5t-117-5.5z"/><path transform="translate(46.73 10.5) scale(.0068359 -.0068359)" d="m482-23q-115 0-201 55t-134 153-48 225q0 209 105.5 336.5t290.5 127.5q102 0 177.5-54t116.5-140 39-181h-568q-1-11-1-31 0-223 71.5-330t202.5-107q84 0 155 40t112 131l27-33q-39-96-130.5-144t-214.5-48zm3 865q-54 0-101.5-45.5t-80-117-41.5-147.5h408q3 172-42.5 241t-142.5 69z"/><path transform="translate(56.54 10.5) scale(.0068359 -.0068359)" d="m8 0v31q77 8 127 36t82 99l460 1022h50l484-1041q26-55 72-83t126-33v-31q-54 2-117.5 3.5t-127.5 1.5q-97 0-173.5-1.5t-120.5-3.5v31q140 2 172 33t-6 113l-121 261h-541l-28-60q-81-173-45.5-261.5t169.5-85.5v-31q-46 1-117.5 3t-146.5 2q-42 0-80.5-1.5t-117.5-3.5zm381 469h513l-251 585z"/><path transform="translate(66.247 10.5) scale(.0068359 -.0068359)" d="m50 0v31q88-1 121.5 27t33.5 92v525q0 74-35 106.5t-120 38.5v31q29-4 59.5-4.5t61.5-0.5q48 0 94.5 5t88.5 18v-180q41 96 113 140.5t159 44.5q124 0 191-96.5t67-278.5v-349q0-67 33.5-93.5t121.5-25.5v-31q-33 2-99 4.5t-129 2.5q-58 0-112-2.5t-82-4.5v31q69-1 93.5 25.5t24.5 93.5v430q0 125-42.5 183t-127.5 58q-131 0-211-204v-467q0-64 25.5-92t92.5-27v-31q-38 2-88 4.5t-106 2.5q-61 0-121-1.5t-107-5.5z"/><path transform="translate(73.534 10.5) scale(.0068359 -.0068359)" d="m336-23q-102 0-146 60t-44 196v585h-137v31h137v252q39-1 77 6.5t72 17.5v-276h199v-31h-199v-694q0-49 18.5-72.5t63.5-23.5q44 0 78 52t47 130l23-7q-38-226-189-226z"/><path transform="translate(77.164 10.5) scale(.0068359 -.0068359)" d="m45 0v31q74 2 103.5 26t29.5 93v525q0 62-30 98.5t-103 46.5v31q32-3 59.5-4t52.5-1q102 0 170 23v-719q0-69 30-93t105-26v-31q-30 2-89.5 4.5t-118.5 2.5-119-2.5-90-4.5zm216 1053q-40 0-68 31.5t-28 73.5q0 43 28 73t68 30q38 0 66-30t28-73q0-42-28-73.5t-66-31.5z"/><path transform="translate(80.555 10.5) scale(.0068359 -.0068359)" d="m446-23q-106 0-184 60.5t-120.5 161-42.5 218.5q0 127 47 230.5t132.5 165 201.5 61.5q88 0 150.5-40.5t84.5-127.5q47 34 88.5 81t67.5 94l22-25q-22-41-30.5-74.5t-8.5-77.5v-936q0-68 34.5-92.5t124.5-26.5v-31q-34 2-98 4.5t-139 2.5q-77 0-156.5-2.5t-122.5-4.5v31q113 2 160.5 32t47.5 100v345q-34-65-100-107t-159-42zm-187 471q0-192 65.5-305.5t180.5-113.5q67 0 119.5 44.5t80.5 127.5v438q-23 104-72 147t-117 43q-121 0-189-100t-68-281z"/><path transform="translate(87.637 10.5) scale(.0068359 -.0068359)" d="m441-21q-125 0-192.5 92.5t-67.5 282.5v321q0 74-34.5 105.5t-122.5 39.5v31q21-3 52.5-4t62.5-1q50 0 96.5 5t95.5 18v-633q0-112 41.5-160t126.5-48q60 0 113 46.5t91 147.5v453q0 77-31.5 107t-112.5 38v31q23-3 53.5-4t58.5-1q48 0 92.5 4.5t88.5 18.5v-694q0-75 35.5-108t123.5-38v-30q-57 5-116 5-50 0-97-4.5t-95-18.5v174q-38-94-107.5-135t-154.5-41z"/><path transform="translate(94.801 10.5) scale(.0068359 -.0068359)" d="m482-23q-115 0-201 55t-134 153-48 225q0 209 105.5 336.5t290.5 127.5q102 0 177.5-54t116.5-140 39-181h-568q-1-11-1-31 0-223 71.5-330t202.5-107q84 0 155 40t112 131l27-33q-39-96-130.5-144t-214.5-48zm3 865q-54 0-101.5-45.5t-80-117-41.5-147.5h408q3 172-42.5 241t-142.5 69z"/></svg>