<svg width="89" height="14" viewBox="0 0 89 14" fill="none" xmlns="http://www.w3.org/2000/svg">
<path d="M5.86026 10.79L3.65026 10.78C3.22359 10.76 2.82359 10.6967 2.45026 10.59C2.08359 10.49 1.76026 10.3167 1.48026 10.07C1.20026 9.82333 0.98359 9.48 0.830256 9.04C0.676923 8.6 0.600256 8.04 0.600256 7.36C0.600256 6.7 0.690256 6.12667 0.870256 5.64C1.05692 5.15333 1.27359 4.76667 1.52026 4.48C1.77359 4.18667 2.00359 4.00667 2.21026 3.94L2.14026 3.68H1.90026C1.47359 3.68 1.13692 3.54 0.890256 3.26C0.64359 2.98667 0.51359 2.61667 0.500256 2.15C0.49359 1.68333 0.616923 1.30667 0.870256 1.02C1.13026 0.74 1.47359 0.6 1.90026 0.6H5.75026C6.75692 0.6 7.48692 0.84 7.94026 1.32C8.38692 1.8 8.61026 2.42333 8.61026 3.19C8.61026 3.80333 8.46692 4.31667 8.18026 4.73C7.89359 5.13667 7.46692 5.38333 6.90026 5.47V5.68C7.51359 5.70667 8.01359 5.92 8.40026 6.32C8.79359 6.71333 8.99026 7.29667 8.99026 8.07C8.99026 8.91 8.74692 9.57667 8.26026 10.07C7.77359 10.5567 6.97359 10.7967 5.86026 10.79ZM3.27026 3.89V4.49C3.27026 4.69667 3.31026 4.83333 3.39026 4.9C3.46359 4.96 3.60359 4.99 3.81026 4.99H5.09026C5.45026 4.99 5.72359 4.93667 5.91026 4.83C6.09692 4.72333 6.19026 4.51333 6.19026 4.2C6.19026 3.87333 6.09692 3.65667 5.91026 3.55C5.72359 3.45 5.45026 3.4 5.09026 3.4H3.81026C3.60359 3.4 3.46359 3.42667 3.39026 3.48C3.31026 3.54 3.27026 3.67667 3.27026 3.89ZM3.27026 6.56V7.3C3.27026 7.50667 3.31026 7.64667 3.39026 7.72C3.47026 7.8 3.61692 7.84 3.83026 7.84H5.28026C5.64026 7.84 5.92026 7.77333 6.12026 7.64C6.31359 7.50667 6.41026 7.27333 6.41026 6.94C6.41026 6.60667 6.31359 6.37667 6.12026 6.25C5.92026 6.12333 5.64026 6.06 5.28026 6.06H3.83026C3.61692 6.06 3.47026 6.09333 3.39026 6.16C3.31026 6.22 3.27026 6.35333 3.27026 6.56ZM11.6503 10.79C10.9569 10.79 10.4169 10.6033 10.0303 10.23C9.64359 9.85667 9.45026 9.33333 9.45026 8.66C9.45026 7.98667 9.67359 7.5 10.1203 7.2C10.5669 6.89333 11.1403 6.74 11.8403 6.74C12.2536 6.74 12.6269 6.77 12.9603 6.83C13.3003 6.88333 13.6036 6.96333 13.8703 7.07H13.9103V6.86C13.9103 6.64 13.8336 6.46667 13.6803 6.34C13.5203 6.22 13.3169 6.16333 13.0703 6.17C12.8369 6.17 12.6403 6.18333 12.4803 6.21C12.3136 6.23667 12.1103 6.28333 11.8703 6.35C11.4236 6.46333 11.0369 6.45333 10.7103 6.32C10.3836 6.19333 10.1603 5.93667 10.0403 5.55C9.92692 5.15 9.95026 4.81667 10.1103 4.55C10.2769 4.27667 10.5269 4.06667 10.8603 3.92C11.1536 3.78 11.4803 3.66333 11.8403 3.57C12.1936 3.47667 12.5803 3.43 13.0003 3.43C14.2269 3.43 15.1269 3.72333 15.7003 4.31C16.2736 4.90333 16.5603 5.89667 16.5603 7.29V9.46C16.5603 9.84 16.4436 10.1567 16.2103 10.41C15.9769 10.6633 15.6536 10.79 15.2403 10.79C14.7936 10.79 14.4603 10.6633 14.2403 10.41C14.0203 10.1567 13.9103 9.85 13.9103 9.49V9.17H13.6303C13.6303 9.41 13.5869 9.65667 13.5003 9.91C13.4136 10.1633 13.2336 10.3733 12.9603 10.54C12.6803 10.7067 12.2436 10.79 11.6503 10.79ZM11.7903 7.72C11.7903 7.88 11.8469 7.99333 11.9603 8.06C12.0803 8.12667 12.3336 8.16 12.7203 8.16C13.0803 8.16 13.3303 8.12667 13.4703 8.06C13.6103 7.99333 13.6803 7.88 13.6803 7.72C13.6803 7.57333 13.6103 7.47 13.4703 7.41C13.3303 7.35 13.0803 7.32 12.7203 7.32C12.3336 7.32 12.0803 7.35 11.9603 7.41C11.8469 7.47 11.7903 7.57333 11.7903 7.72ZM20.5503 13.67C19.9836 13.67 19.5003 13.61 19.1003 13.49C18.7069 13.37 18.3269 13.1833 17.9603 12.93C17.6403 12.71 17.4169 12.3967 17.2903 11.99C17.1569 11.59 17.2203 11.1867 17.4803 10.78C17.6536 10.5267 17.8436 10.3533 18.0503 10.26C18.2636 10.1667 18.4703 10.1267 18.6703 10.14C18.8703 10.1533 19.0436 10.1967 19.1903 10.27C19.5169 10.43 19.7703 10.5433 19.9503 10.61C20.1369 10.6833 20.3469 10.72 20.5803 10.72C20.9269 10.72 21.2169 10.6 21.4503 10.36C21.6903 10.1133 21.8103 9.77 21.8103 9.33V8.2H21.5603C21.4936 8.69333 21.3036 9.08333 20.9903 9.37C20.6769 9.65667 20.2503 9.8 19.7103 9.8C19.2969 9.8 18.8969 9.69667 18.5103 9.49C18.1169 9.28333 17.7936 8.95667 17.5403 8.51C17.2869 8.06333 17.1603 7.47 17.1603 6.73C17.1603 5.65 17.4003 4.84333 17.8803 4.31C18.3536 3.77667 18.9669 3.51 19.7203 3.51C20.2469 3.51 20.6969 3.68667 21.0703 4.04C21.4436 4.38667 21.6303 4.87333 21.6303 5.5L21.6703 5.48V4.7C21.6703 4.37333 21.7736 4.08667 21.9803 3.84C22.1936 3.59333 22.5236 3.47 22.9703 3.47C23.4503 3.47 23.7936 3.59333 24.0003 3.84C24.2136 4.08667 24.3203 4.37333 24.3203 4.7L24.3303 9.11C24.3369 10.0833 24.2169 10.91 23.9703 11.59C23.7236 12.27 23.3236 12.7867 22.7703 13.14C22.2169 13.4933 21.4769 13.67 20.5503 13.67ZM19.5103 6.49C19.5103 6.99667 19.8469 7.25 20.5203 7.25C20.9603 7.25 21.2703 7.19 21.4503 7.07C21.6236 6.94333 21.7103 6.75 21.7103 6.49C21.7103 6.22333 21.6203 6.03667 21.4403 5.93C21.2603 5.83 20.9503 5.78 20.5103 5.78C20.1903 5.78 19.9436 5.83 19.7703 5.93C19.5969 6.03667 19.5103 6.22333 19.5103 6.49ZM24.9903 7.15C24.9903 6.41 25.1369 5.76 25.4303 5.2C25.7236 4.64 26.1436 4.20333 26.6903 3.89C27.2369 3.57 27.8869 3.41 28.6403 3.41C29.2269 3.41 29.7569 3.51667 30.2303 3.73C30.7036 3.95 31.0736 4.23667 31.3403 4.59C31.6136 4.95 31.7503 5.34667 31.7503 5.78C31.7503 6.22667 31.6203 6.54333 31.3603 6.73C31.1003 6.91667 30.7136 7.01 30.2003 7.01H27.2603C27.2603 7.25 27.3536 7.45 27.5403 7.61C27.7336 7.77 28.0603 7.85 28.5203 7.85C28.7536 7.85 28.9703 7.82667 29.1703 7.78C29.3703 7.73333 29.5736 7.69 29.7803 7.65C29.9936 7.60333 30.2303 7.58 30.4903 7.58C30.8636 7.58 31.1703 7.71333 31.4103 7.98C31.6569 8.24667 31.7803 8.61333 31.7803 9.08C31.7803 9.63333 31.4969 10.0633 30.9303 10.37C30.3636 10.6767 29.6236 10.83 28.7103 10.83C28.0703 10.83 27.4669 10.7033 26.9003 10.45C26.3336 10.2033 25.8736 9.80667 25.5203 9.26C25.1669 8.71333 24.9903 8.01 24.9903 7.15ZM27.3003 6.55H29.5203C29.6603 6.55 29.7069 6.48333 29.6603 6.35C29.6269 6.22333 29.5169 6.09 29.3303 5.95C29.1436 5.81 28.8736 5.74 28.5203 5.74C28.1069 5.74 27.8003 5.82667 27.6003 6C27.4003 6.18 27.3003 6.36333 27.3003 6.55ZM33.7203 10.79C33.2669 10.79 32.9269 10.67 32.7003 10.43C32.4669 10.1833 32.3503 9.88 32.3503 9.52V1.4C32.3503 0.993333 32.4669 0.66 32.7003 0.4C32.9269 0.133333 33.2669 0 33.7203 0C34.1336 0 34.4536 0.133333 34.6803 0.4C34.9003 0.66 35.0103 0.983333 35.0103 1.37V9.52C35.0103 9.88 34.9003 10.1833 34.6803 10.43C34.4536 10.67 34.1336 10.79 33.7203 10.79ZM39.7903 10.79C39.3303 10.79 38.9669 10.6633 38.7003 10.41C38.4336 10.1567 38.3003 9.79 38.3003 9.31V7.33C38.3003 6.34333 38.4503 5.59333 38.7503 5.08C39.0503 4.56667 39.4269 4.19667 39.8803 3.97L39.8103 3.71H39.5803C39.1469 3.71 38.8069 3.57 38.5603 3.29C38.3136 3.01667 38.1869 2.64333 38.1803 2.17C38.1669 1.70333 38.2903 1.33 38.5503 1.05C38.8036 0.77 39.1469 0.63 39.5803 0.63H44.4803C45.4736 0.63 45.9703 1.09667 45.9703 2.03C45.9703 2.45 45.8503 2.78333 45.6103 3.03C45.3703 3.28333 44.9936 3.41 44.4803 3.41H41.7503C41.4036 3.41 41.2303 3.61 41.2303 4.01V5.02C41.6703 4.9 42.1269 4.76 42.6003 4.6C43.0736 4.44 43.5303 4.36 43.9703 4.36C44.4369 4.36 44.8003 4.47667 45.0603 4.71C45.3136 4.93667 45.4403 5.28333 45.4403 5.75C45.4403 6.21 45.3136 6.55333 45.0603 6.78C44.8003 7.00667 44.4369 7.12667 43.9703 7.14C43.5303 7.14667 43.0703 7.07333 42.5903 6.92C42.1103 6.76667 41.6503 6.63 41.2103 6.51L41.2003 9.31C41.2003 9.79 41.0736 10.1567 40.8203 10.41C40.5603 10.6633 40.2169 10.79 39.7903 10.79ZM48.6103 10.79C47.9169 10.79 47.3769 10.6033 46.9903 10.23C46.6036 9.85667 46.4103 9.33333 46.4103 8.66C46.4103 7.98667 46.6336 7.5 47.0803 7.2C47.5269 6.89333 48.1003 6.74 48.8003 6.74C49.2136 6.74 49.5869 6.77 49.9203 6.83C50.2603 6.88333 50.5636 6.96333 50.8303 7.07H50.8703V6.86C50.8703 6.64 50.7936 6.46667 50.6403 6.34C50.4803 6.22 50.2769 6.16333 50.0303 6.17C49.7969 6.17 49.6003 6.18333 49.4403 6.21C49.2736 6.23667 49.0703 6.28333 48.8303 6.35C48.3836 6.46333 47.9969 6.45333 47.6703 6.32C47.3436 6.19333 47.1203 5.93667 47.0003 5.55C46.8869 5.15 46.9103 4.81667 47.0703 4.55C47.2369 4.27667 47.4869 4.06667 47.8203 3.92C48.1136 3.78 48.4403 3.66333 48.8003 3.57C49.1536 3.47667 49.5403 3.43 49.9603 3.43C51.1869 3.43 52.0869 3.72333 52.6603 4.31C53.2336 4.90333 53.5203 5.89667 53.5203 7.29V9.46C53.5203 9.84 53.4036 10.1567 53.1703 10.41C52.9369 10.6633 52.6136 10.79 52.2003 10.79C51.7536 10.79 51.4203 10.6633 51.2003 10.41C50.9803 10.1567 50.8703 9.85 50.8703 9.49V9.17H50.5903C50.5903 9.41 50.5469 9.65667 50.4603 9.91C50.3736 10.1633 50.1936 10.3733 49.9203 10.54C49.6403 10.7067 49.2036 10.79 48.6103 10.79ZM48.7503 7.72C48.7503 7.88 48.8069 7.99333 48.9203 8.06C49.0403 8.12667 49.2936 8.16 49.6803 8.16C50.0403 8.16 50.2903 8.12667 50.4303 8.06C50.5703 7.99333 50.6403 7.88 50.6403 7.72C50.6403 7.57333 50.5703 7.47 50.4303 7.41C50.2903 7.35 50.0403 7.32 49.6803 7.32C49.2936 7.32 49.0403 7.35 48.9203 7.41C48.8069 7.47 48.7503 7.57333 48.7503 7.72ZM58.3103 10.83C57.8169 10.83 57.3703 10.72 56.9703 10.5C56.5769 10.2733 56.2669 9.95333 56.0403 9.54C55.8136 9.12 55.7003 8.63 55.7003 8.07V5.61L55.1903 5.68C54.9103 5.72 54.6603 5.62333 54.4403 5.39C54.2269 5.15667 54.1203 4.86 54.1203 4.5C54.1203 4.14667 54.2269 3.85667 54.4403 3.63C54.6603 3.40333 54.9103 3.30667 55.1903 3.34L55.7003 3.41L55.6903 2.46C55.6836 2.08667 55.7903 1.79 56.0103 1.57C56.2369 1.35 56.5636 1.24 56.9903 1.24C57.4236 1.24 57.7569 1.35 57.9903 1.57C58.2236 1.79 58.3303 2.08667 58.3103 2.46L58.2803 3.41L59.0203 3.31C59.5269 3.23667 59.9103 3.33 60.1703 3.59C60.4303 3.84333 60.5603 4.14667 60.5603 4.5C60.5603 4.86 60.4336 5.16667 60.1803 5.42C59.9203 5.68 59.5469 5.77667 59.0603 5.71L58.2803 5.61V7.7C58.2803 7.82 58.3236 7.92667 58.4103 8.02C58.4903 8.12 58.5903 8.15333 58.7103 8.12C58.8503 8.08 59.0003 8 59.1603 7.88C59.3136 7.76 59.5103 7.7 59.7503 7.7C60.1169 7.7 60.3969 7.83 60.5903 8.09C60.7836 8.35 60.8803 8.67 60.8803 9.05C60.8803 9.35 60.7769 9.64 60.5703 9.92C60.3569 10.1933 60.0603 10.4133 59.6803 10.58C59.3003 10.7467 58.8436 10.83 58.3103 10.83ZM68.6303 10.83C67.6303 10.83 66.7836 10.61 66.0903 10.17C65.4036 9.73667 64.8803 9.13 64.5203 8.35C64.1669 7.57667 63.9903 6.68667 63.9903 5.68C63.9903 4.68 64.1669 3.79 64.5203 3.01C64.8803 2.23 65.4036 1.62 66.0903 1.18C66.7836 0.733333 67.6303 0.51 68.6303 0.51C69.6236 0.51 70.4636 0.733333 71.1503 1.18C71.8369 1.62 72.3569 2.23 72.7103 3.01C73.0703 3.79 73.2503 4.68 73.2503 5.68C73.2503 6.68667 73.0703 7.57667 72.7103 8.35C72.3569 9.13 71.8369 9.73667 71.1503 10.17C70.4636 10.61 69.6236 10.83 68.6303 10.83ZM65.7603 5.46C65.7603 5.74667 65.8303 6.01667 65.9703 6.27C66.1103 6.53 66.3836 6.73667 66.7903 6.89C67.2036 7.04333 67.8169 7.12 68.6303 7.12C69.4369 7.12 70.0436 7.04333 70.4503 6.89C70.8569 6.73667 71.1303 6.53 71.2703 6.27C71.4103 6.01667 71.4803 5.74667 71.4803 5.46C71.4803 5.16 71.4103 4.89 71.2703 4.65C71.1303 4.41 70.8569 4.22 70.4503 4.08C70.0436 3.93333 69.4369 3.86 68.6303 3.86C67.8169 3.86 67.2036 3.93333 66.7903 4.08C66.3836 4.22 66.1103 4.41 65.9703 4.65C65.8303 4.89 65.7603 5.16 65.7603 5.46ZM75.2803 10.79C74.8669 10.79 74.5369 10.6667 74.2903 10.42C74.0436 10.1733 73.9203 9.86667 73.9203 9.5V4.87C73.9203 4.47667 74.0369 4.14333 74.2703 3.87C74.5036 3.60333 74.8403 3.47 75.2803 3.47C75.7069 3.47 76.0336 3.60333 76.2603 3.87C76.4803 4.14333 76.5903 4.48667 76.5903 4.9V5.6H76.8403C76.8403 5.06667 76.9369 4.64667 77.1303 4.34C77.3236 4.02667 77.5703 3.80333 77.8703 3.67C78.1636 3.53667 78.4603 3.47 78.7603 3.47C79.4803 3.47 80.0069 3.73 80.3403 4.25C80.6803 4.76333 80.8503 5.49667 80.8503 6.45V9.5C80.8503 9.86667 80.7269 10.1733 80.4803 10.42C80.2403 10.6667 79.9136 10.79 79.5003 10.79C79.0803 10.79 78.7469 10.6667 78.5003 10.42C78.2536 10.1733 78.1303 9.86667 78.1303 9.5V7.02C78.1303 6.68667 78.0669 6.42667 77.9403 6.24C77.8136 6.05333 77.6303 5.96 77.3903 5.96C77.1103 5.96 76.9069 6.06333 76.7803 6.27C76.6536 6.47667 76.5903 6.73667 76.5903 7.05V9.5C76.5903 9.86667 76.4736 10.1733 76.2403 10.42C76.0069 10.6667 75.6869 10.79 75.2803 10.79ZM81.5203 7.15C81.5203 6.41 81.6669 5.76 81.9603 5.2C82.2536 4.64 82.6736 4.20333 83.2203 3.89C83.7669 3.57 84.4169 3.41 85.1703 3.41C85.7636 3.41 86.2936 3.51667 86.7603 3.73C87.2336 3.95 87.6069 4.23667 87.8803 4.59C88.1469 4.95 88.2803 5.34667 88.2803 5.78C88.2803 6.22667 88.1503 6.54333 87.8903 6.73C87.6303 6.91667 87.2436 7.01 86.7303 7.01H83.7903C83.7903 7.25 83.8869 7.45 84.0803 7.61C84.2669 7.77 84.5903 7.85 85.0503 7.85C85.2836 7.85 85.5003 7.82667 85.7003 7.78C85.9003 7.73333 86.1069 7.69 86.3203 7.65C86.5269 7.60333 86.7603 7.58 87.0203 7.58C87.3936 7.58 87.7036 7.71333 87.9503 7.98C88.1903 8.24667 88.3103 8.61333 88.3103 9.08C88.3103 9.63333 88.0269 10.0633 87.4603 10.37C86.9003 10.6767 86.1603 10.83 85.2403 10.83C84.6003 10.83 83.9969 10.7033 83.4303 10.45C82.8636 10.2033 82.4036 9.80667 82.0503 9.26C81.6969 8.71333 81.5203 8.01 81.5203 7.15ZM83.8303 6.55H86.0603C86.2003 6.55 86.2469 6.48333 86.2003 6.35C86.1603 6.22333 86.0469 6.09 85.8603 5.95C85.6736 5.81 85.4036 5.74 85.0503 5.74C84.6369 5.74 84.3303 5.82667 84.1303 6C83.9303 6.18 83.8303 6.36333 83.8303 6.55Z" fill="black"/>
</svg>
