<svg width="88.382" height="20.272" viewBox="0 0 88.382 20.272" xmlns="http://www.w3.org/2000/svg"><path transform="translate(0 16.24) scale(.014 -.014)" d="m248 1q-46 2-85.5 13t-69.5 37.5-46.5 73.5-16.5 120q0 71 19.5 123t46.5 83 49 38l-5 19h-17q-46 0-72.5 29.5t-27.5 79.5 26.5 80.5 73.5 30.5h275q108 0 156-51.5t48-133.5q0-66-30.5-110t-91.5-53v-15q66-3 107.5-45.5t41.5-125.5q0-90-52-142.5t-171-51.5zm-27 449q0-22 8-29t30-7h92q38 0 58 11.5t20 45.5q0 35-20 46t-58 11h-92q-22 0-30-6t-8-29zm0-201q0-22 8.5-30t31.5-8h103q39 0 60 14t21 50-21 49.5-60 13.5h-103q-23 0-31.5-7t-8.5-29z"/><path transform="translate(9.016 16.24) scale(.014 -.014)" d="m175 0q-74 0-115.5 40t-41.5 112 48 104.5 123 32.5q44 0 80-6t65-17h3v15q0 23-17 36.5t-43 12.5q-25 0-42.5-3t-43.5-10q-48-12-83 2t-48 55q-12 43 5.5 72t53.5 45q31 15 69.5 25t83.5 10q131 0 192.5-63.5t61.5-212.5v-155q0-41-25-68t-69-27q-48 0-71.5 27t-23.5 66v23h-20q0-26-9.5-53t-39-45-93.5-18zm10 219q0-17 12.5-24t54.5-7q38 0 53 7t15 24q0 16-15 22.5t-53 6.5q-42 0-54.5-6.5t-12.5-22.5z"/><path transform="translate(16.73 16.24) scale(.014 -.014)" d="m260-206q-61 0-103.5 13t-81.5 40q-34 24-48 67t14 87q18 27 40.5 37t44 8.5 37.5-9.5q35-17 54.5-24.5t44.5-7.5q37 0 62.5 26t25.5 73v81h-18q-7-53-40.5-83.5t-91.5-30.5q-44 0-86 22t-69 70-27 127q0 116 51 173t132 57q56 0 96-37.5t40-104.5l3 1v56q0 35 22.5 61.5t70.5 26.5q51 0 73.5-26.5t22.5-61.5l1-315q1-104-25.5-177t-86-111-158.5-38zm-74 513q0-54 72-54 47 0 66 13t19 41q0 29-19.5 40t-66.5 11q-34 0-52.5-11t-18.5-40z"/><path transform="translate(24.486 16.24) scale(.014 -.014)" d="m23 260q0 79 31.5 139t90 94 139.5 34q63 0 113.5-23t79.5-61.5 29-84.5q0-48-28-68t-83-20h-210q0-26 20.5-43t69.5-17q25 0 46.5 5t44 9.5 50.5 4.5q40 0 66-28.5t26-78.5q0-59-60.5-92t-158.5-33q-69 0-129.5 27t-98.5 85.5-38 150.5zm324 43q15 0 10 14-4 14-24 29t-58 15q-44 0-65.5-19t-21.5-39z"/><path transform="translate(31.85 16.24) scale(.014 -.014)" d="m121 0q-49 0-73.5 26t-24.5 65v580q0 43 24.5 71.5t73.5 28.5q44 0 68-28.5t24-69.5v-582q0-39-24-65t-68-26z"/><path transform="translate(37.674 16.24) scale(.014 -.014)" d="m138 0q-49 0-77.5 27t-28.5 79v141q0 106 32 161t81 79l-5 19h-17q-46 0-72.5 29.5t-27.5 80.5q-1 50 26.5 80t73.5 30h350q107 0 107-100 0-45-26-72t-81-27h-195q-37 0-37-43v-72q47 13 98 30t98 17q50 0 77.5-24.5t27.5-74.5q0-49-27.5-73.5t-77.5-25.5q-47-1-98.5 15.5t-98.5 29.5l-1-200q0-52-27.5-79t-73.5-27z"/><path transform="translate(45.976 16.24) scale(.014 -.014)" d="m175 0q-74 0-115.5 40t-41.5 112 48 104.5 123 32.5q44 0 80-6t65-17h3v15q0 23-17 36.5t-43 12.5q-25 0-42.5-3t-43.5-10q-48-12-83 2t-48 55q-12 43 5.5 72t53.5 45q31 15 69.5 25t83.5 10q131 0 192.5-63.5t61.5-212.5v-155q0-41-25-68t-69-27q-48 0-71.5 27t-23.5 66v23h-20q0-26-9.5-53t-39-45-93.5-18zm10 219q0-17 12.5-24t54.5-7q38 0 53 7t15 24q0 16-15 22.5t-53 6.5q-42 0-54.5-6.5t-12.5-22.5z"/><path transform="translate(53.69 16.24) scale(.014 -.014)" d="m317-3q-53 0-95.5 24t-66.5 68.5-24 104.5v176l-37-5q-30-4-53 21t-23 63 23 62.5 53 20.5l37-5-1 68q-1 40 23 63.5t70 23.5 71-23.5 23-63.5l-2-68 53 7q54 8 82-19.5t28-65.5-27.5-65.5-79.5-20.5l-56 7v-149q0-13 9-23.5t22-6.5q15 4 31.5 17t42.5 13q39 0 60-28t21-69q0-32-22.5-61.5t-63.5-47.5-98-18z"/><path transform="translate(63.476 16.24) scale(.014 -.014)" d="m355-3q-107 0-181 47t-112 130-38 191q0 107 38 190.5t112 131 181 47.5 180.5-47.5 111.5-131 38-190.5q0-108-38-191t-111.5-130-180.5-47zm-205 384q0-31 15-58.5t59-44 131-16.5 130.5 16.5 58.5 44 15 58.5q0 32-15 57.5t-58.5 41-130.5 15.5-131-15.5-59-41-15-57.5z"/><path transform="translate(73.36 16.24) scale(.014 -.014)" d="m124 0q-44 0-70.5 26.5t-26.5 65.5v331q0 42 25 71t72 29q46 0 70-29t24-73v-50h18q0 57 20.5 90t52.5 47.5 64 14.5q77 0 113-55.5t36-157.5v-218q0-39-26-65.5t-70-26.5q-45 0-71.5 26.5t-26.5 65.5v177q0 36-13.5 56t-39.5 20q-30 0-43.5-22t-13.5-56v-175q0-39-25-65.5t-69-26.5z"/><path transform="translate(81.018 16.24) scale(.014 -.014)" d="m23 260q0 79 31.5 139t90 94 139.5 34q63 0 113.5-23t79.5-61.5 29-84.5q0-48-28-68t-83-20h-210q0-26 20.5-43t69.5-17q25 0 46.5 5t44 9.5 50.5 4.5q40 0 66-28.5t26-78.5q0-59-60.5-92t-158.5-33q-69 0-129.5 27t-98.5 85.5-38 150.5zm324 43q15 0 10 14-4 14-24 29t-58 15q-44 0-65.5-19t-21.5-39z"/></svg>