<svg width="31.43" height="16.8" viewBox="0 0 31.43 16.8" xmlns="http://www.w3.org/2000/svg"><path transform="translate(0 13.468) scale(.014 -.014)" d="m40 710h113q31 0 59.5-10t28.5-38l-1-10-29-255q-2-12-3.5-15.5t-7.5-7.5q24-4 37.5-8.5t13.5-13.5v-302q0-18-25.5-24t-49.5-6h-136zm107-288q9 3 9 9l10 216q0 4-14 4h-43q-12 0-12-4v-232q0-8 12-8zm-2-346q31 0 31 30v225q0 3-0.5 4.5t-3.5 1.5h-42q-3 0-6.5-2t-4.5-4v-252q1-1 4-2t7-1z"/><path transform="translate(4.018 13.468) scale(.014 -.014)" d="m35 47 1 244q-1 21 11.5 33.5t32.5 12.5l84-6 3 188-12 6-108 7v50h132q28 0 40-14.5t12-50.5l-3-458 18-10v-49h-145q-28 0-47 13.5t-19 33.5zm129 19-2 210h-56l-5-6-4-204q0-3 1.5-4t7.5-2l53-2z"/><path transform="translate(7.854 13.468) scale(.014 -.014)" d="m187 513q0 5-1.5 7t-7.5 2l-68-1 7-521h-66l-6 706 25 16h43l-2-140h97l40-28v-500l15-17v-37l-87-3z"/><path transform="translate(11.956 13.468) scale(.014 -.014)" d="m46 582h74l-8-531 14-30-1-45h-75zm-10 154h93v-95l-89-3z"/><path transform="translate(14.238 13.468) scale(.014 -.014)" d="m35 47 1 244q-1 21 11.5 33.5t32.5 12.5l84-6 3 188-12 6-108 7v50h132q28 0 40-14.5t12-50.5l-3-458 18-10v-49h-145q-28 0-47 13.5t-19 33.5zm129 19-2 210h-56l-5-6-4-204q0-3 1.5-4t7.5-2l53-2z"/><path transform="translate(18.074 13.468) scale(.014 -.014)" d="m45 562q19 12 46.5 16.5t81.5 4.5q27 0 44-13.5t17-34.5l-1-535h-62l6 516q0 3-1.5 4t-7.5 2h-59l-6-522h-58z"/><path transform="translate(21.98 13.468) scale(.014 -.014)" d="m46 582h74l-8-531 14-30-1-45h-75zm-10 154h93v-95l-89-3z"/><path transform="translate(24.262 13.468) scale(.014 -.014)" d="M56 49 63 528H20V558L63 581L80 710H128V582H226V522H126V72L183 54L193 137H228V0H99Z"/><path transform="translate(27.594 13.468) scale(.014 -.014)" d="m35 47 1 244q-1 21 11.5 33.5t32.5 12.5l84-6 3 188-12 6-108 7v50h132q28 0 40-14.5t12-50.5l-3-458 18-10v-49h-145q-28 0-47 13.5t-19 33.5zm129 19-2 210h-56l-5-6-4-204q0-3 1.5-4t7.5-2l53-2z"/></svg>