<svg width="29.022" height="16.1" viewBox="0 0 29.022 16.1" xmlns="http://www.w3.org/2000/svg"><path transform="translate(0 12.6) scale(.014 -.014)" d="m261 352v-302q0-18-25.5-24t-49.5-6h-136v690h113q31 0 59.5-10t28.5-38l-1-10-29-255q0-11-2-15t-9-8q24-4 37.5-8.5t13.5-13.5zm-142 55 38 15q9 2 9 9l10 216q0 4-14 4h-43q-12 0-12-4v-232q0-8 12-8zm69-307q0 6-2 6v225q3 2 3 3 0 3-7 3h-42q-3 0-6.5-2t-4.5-4v-252q1-1 4-2t7-1h15q18 0 25.5 8t7.5 16z"/><path transform="translate(4.284 12.6) scale(.014 -.014)" d="m275 0h-44l-36 266-80-38-22-228h-62l45 710h158zm-99 668-43-10q-6-3-6-10v-352q0-5 6-5l37 6q6 0 6 6l6 359q0 6-6 6z"/><path transform="translate(8.596 12.6) scale(.014 -.014)" d="m210 310-86 17v-327h-74v710h72l-11-315 99 5v310h73v-710h-44z"/><path transform="translate(13.258 12.6) scale(.014 -.014)" d="m134 20h-84v690h63z"/><path transform="translate(15.708 12.6) scale(.014 -.014)" d="m275 0h-44l-36 266-80-38-22-228h-62l45 710h158zm-99 668-43-10q-6-3-6-10v-352q0-5 6-5l37 6q6 0 6 6l6 359q0 6-6 6z"/><path transform="translate(20.02 12.6) scale(.014 -.014)" d="m275-20h-68l-98 574h-4l-19-574h-51l32 730h61l101-579h7v579h59z"/><path transform="translate(24.71 12.6) scale(.014 -.014)" d="m275 0h-44l-36 266-80-38-22-228h-62l45 710h158zm-99 668-43-10q-6-3-6-10v-352q0-5 6-5l37 6q6 0 6 6l6 359q0 6-6 6z"/></svg>