<svg width="93" height="10" viewBox="0 0 93 10" fill="none" xmlns="http://www.w3.org/2000/svg">
<path d="M1.28 4.28H5.13V5.21H1.28V4.28ZM3.52 5.21L3.97 4.51C4.60333 4.51 5.13 4.61333 5.55 4.82C5.97 5.03333 6.28667 5.31333 6.5 5.66C6.70667 6 6.81 6.38667 6.81 6.82C6.81 7.66667 6.50333 8.29667 5.89 8.71C5.28333 9.11667 4.41333 9.32 3.28 9.32C3.02667 9.32 2.77667 9.31333 2.53 9.3C2.27667 9.28667 2.02667 9.26333 1.78 9.23C1.54 9.19 1.30667 9.14333 1.08 9.09C0.693333 8.97667 0.5 8.76 0.5 8.44V1.27C0.5 1.12333 0.536667 1.00667 0.61 0.92C0.69 0.84 0.806667 0.78 0.96 0.74C1.27333 0.646667 1.61 0.583334 1.97 0.55C2.33 0.516667 2.71667 0.5 3.13 0.5C4.18333 0.5 5.00333 0.69 5.59 1.07C6.17667 1.45 6.47 2.02667 6.47 2.8C6.47 3.19333 6.37667 3.55333 6.19 3.88C5.99667 4.21333 5.68667 4.48 5.26 4.68C4.84 4.88 4.27333 4.98 3.56 4.98L3.44 4.28C4.05333 4.28 4.52 4.15333 4.84 3.9C5.15333 3.64 5.31 3.28333 5.31 2.83C5.31 2.36333 5.12667 2.01667 4.76 1.79C4.39333 1.55667 3.85 1.44 3.13 1.44C2.81 1.44 2.53 1.45333 2.29 1.48C2.04333 1.5 1.82 1.53 1.62 1.57V8.23C1.84 8.27667 2.09667 8.31333 2.39 8.34C2.68333 8.37333 2.98 8.39 3.28 8.39C4.05333 8.39 4.64333 8.25667 5.05 7.99C5.45 7.73 5.65 7.33 5.65 6.79C5.65 6.30333 5.47 5.91667 5.11 5.63C4.75 5.35 4.22 5.21 3.52 5.21ZM11 8.44C11.3867 8.44 11.71 8.4 11.97 8.32C12.2233 8.24 12.4067 8.16333 12.52 8.09V6.06L10.79 6.24C10.3033 6.28 9.94333 6.39 9.71 6.57C9.47667 6.74333 9.36 7 9.36 7.34C9.36 7.68 9.49667 7.95 9.77 8.15C10.0433 8.34333 10.4533 8.44 11 8.44ZM10.98 2.52C11.7933 2.52 12.4367 2.70333 12.91 3.07C13.39 3.43 13.63 4.00333 13.63 4.79V8.11C13.63 8.31 13.59 8.46333 13.51 8.57C13.43 8.68333 13.31 8.78667 13.15 8.88C12.93 9 12.6333 9.11 12.26 9.21C11.8867 9.31667 11.4667 9.37 11 9.37C10.12 9.37 9.44 9.19667 8.96 8.85C8.48 8.50333 8.24 8.00333 8.24 7.35C8.24 6.74333 8.44333 6.28 8.85 5.96C9.25667 5.63333 9.81667 5.44 10.53 5.38L12.52 5.18V4.79C12.52 4.32333 12.38 3.98333 12.1 3.77C11.82 3.55 11.4433 3.44 10.97 3.44C10.5833 3.44 10.2167 3.49667 9.87 3.61C9.51667 3.72333 9.20667 3.85 8.94 3.99C8.86667 3.92333 8.8 3.84667 8.74 3.76C8.67333 3.67333 8.64 3.58333 8.64 3.49C8.64 3.24333 8.77667 3.05667 9.05 2.93C9.30333 2.79667 9.59667 2.69667 9.93 2.63C10.2567 2.55667 10.6067 2.52 10.98 2.52ZM15.78 8.74V5.47L16.9 5.64V9.14C16.8533 9.16 16.7833 9.18333 16.69 9.21C16.5967 9.23 16.4967 9.24 16.39 9.24C16.19 9.24 16.04 9.2 15.94 9.12C15.8333 9.04 15.78 8.91333 15.78 8.74ZM16.9 0.5V6.17L15.78 6.02V0.0999999C15.8267 0.0799999 15.9 0.06 16 0.04C16.1 0.0133333 16.2 0 16.3 0C16.5067 0 16.66 0.0399999 16.76 0.12C16.8533 0.2 16.9 0.326667 16.9 0.5ZM25.12 5.94C25.12 6.62667 24.99 7.22667 24.73 7.74C24.47 8.25333 24.1 8.65 23.62 8.93C23.1467 9.21 22.5867 9.35 21.94 9.35C21.3 9.35 20.74 9.21 20.26 8.93C19.78 8.65 19.4067 8.25333 19.14 7.74C18.88 7.22667 18.75 6.62667 18.75 5.94C18.75 5.24 18.8833 4.63333 19.15 4.12C19.4167 3.61333 19.79 3.22 20.27 2.94C20.75 2.66 21.3067 2.52 21.94 2.52C22.58 2.52 23.1367 2.66 23.61 2.94C24.0833 3.22 24.4533 3.61333 24.72 4.12C24.9867 4.63333 25.12 5.24 25.12 5.94ZM21.94 3.44C21.32 3.44 20.8233 3.66333 20.45 4.11C20.0833 4.55 19.9 5.16 19.9 5.94C19.9 6.72 20.08 7.33 20.44 7.77C20.8 8.21 21.3 8.43 21.94 8.43C22.58 8.43 23.0767 8.20667 23.43 7.76C23.79 7.32 23.97 6.71333 23.97 5.94C23.97 5.16 23.79 4.55 23.43 4.11C23.0767 3.66333 22.58 3.44 21.94 3.44ZM32.86 5.94C32.86 6.62667 32.73 7.22667 32.47 7.74C32.21 8.25333 31.8433 8.65 31.37 8.93C30.89 9.21 30.33 9.35 29.69 9.35C29.0433 9.35 28.48 9.21 28 8.93C27.52 8.65 27.15 8.25333 26.89 7.74C26.6233 7.22667 26.49 6.62667 26.49 5.94C26.49 5.24 26.6233 4.63333 26.89 4.12C27.1567 3.61333 27.53 3.22 28.01 2.94C28.49 2.66 29.05 2.52 29.69 2.52C30.3233 2.52 30.8767 2.66 31.35 2.94C31.83 3.22 32.2033 3.61333 32.47 4.12C32.73 4.63333 32.86 5.24 32.86 5.94ZM29.69 3.44C29.0633 3.44 28.5667 3.66333 28.2 4.11C27.8267 4.55 27.64 5.16 27.64 5.94C27.64 6.72 27.82 7.33 28.18 7.77C28.54 8.21 29.0433 8.43 29.69 8.43C30.3233 8.43 30.82 8.20667 31.18 7.76C31.54 7.32 31.72 6.71333 31.72 5.94C31.72 5.16 31.54 4.55 31.18 4.11C30.82 3.66333 30.3233 3.44 29.69 3.44ZM44.29 1.62H41.4L41.33 0.66H44.6C44.6267 0.693333 44.6533 0.753334 44.68 0.84C44.7067 0.926667 44.72 1.01667 44.72 1.11C44.72 1.25667 44.6833 1.38 44.61 1.48C44.5367 1.57333 44.43 1.62 44.29 1.62ZM38.53 0.66H41.43L41.5 1.62H38.23C38.1967 1.57333 38.1667 1.51 38.14 1.43C38.1133 1.34333 38.1 1.25333 38.1 1.16C38.1 1 38.1367 0.876667 38.21 0.79C38.2833 0.703333 38.39 0.66 38.53 0.66ZM40.84 8.72V1.25H41.98V9.14C41.9333 9.16 41.86 9.18333 41.76 9.21C41.66 9.23 41.56 9.24 41.46 9.24C41.2533 9.24 41.1 9.19667 41 9.11C40.8933 9.03 40.84 8.9 40.84 8.72ZM48.43 8.44C48.8233 8.44 49.15 8.4 49.41 8.32C49.6633 8.24 49.8467 8.16333 49.96 8.09V6.06L48.22 6.24C47.7333 6.28 47.3733 6.39 47.14 6.57C46.9067 6.74333 46.79 7 46.79 7.34C46.79 7.68 46.93 7.95 47.21 8.15C47.4833 8.34333 47.89 8.44 48.43 8.44ZM48.42 2.52C49.2333 2.52 49.8767 2.70333 50.35 3.07C50.8233 3.43 51.06 4.00333 51.06 4.79V8.11C51.06 8.31 51.0233 8.46333 50.95 8.57C50.87 8.68333 50.75 8.78667 50.59 8.88C50.3633 9 50.0633 9.11 49.69 9.21C49.3167 9.31667 48.8967 9.37 48.43 9.37C47.5567 9.37 46.88 9.19667 46.4 8.85C45.9133 8.50333 45.67 8.00333 45.67 7.35C45.67 6.74333 45.8733 6.28 46.28 5.96C46.6867 5.63333 47.25 5.44 47.97 5.38L49.96 5.18V4.79C49.96 4.32333 49.82 3.98333 49.54 3.77C49.26 3.55 48.88 3.44 48.4 3.44C48.02 3.44 47.6533 3.49667 47.3 3.61C46.9533 3.72333 46.6433 3.85 46.37 3.99C46.2967 3.92333 46.23 3.84667 46.17 3.76C46.11 3.67333 46.08 3.58333 46.08 3.49C46.08 3.24333 46.2167 3.05667 46.49 2.93C46.7367 2.79667 47.0267 2.69667 47.36 2.63C47.6933 2.55667 48.0467 2.52 48.42 2.52ZM58.33 4.69V6.3H57.21V4.77C57.21 4.31667 57.0767 3.98333 56.81 3.77C56.5433 3.55 56.19 3.44 55.75 3.44C55.4633 3.44 55.1833 3.48667 54.91 3.58C54.6433 3.67333 54.4167 3.78333 54.23 3.91V6.3H53.11V3.96C53.11 3.77333 53.15 3.61667 53.23 3.49C53.31 3.35667 53.4467 3.23 53.64 3.11C53.8933 2.95 54.2133 2.81 54.6 2.69C54.9867 2.57667 55.3767 2.52 55.77 2.52C56.2433 2.52 56.6633 2.59333 57.03 2.74C57.39 2.88 57.66 3.07667 57.84 3.33C57.8933 3.39 57.94 3.44333 57.98 3.49C58.02 3.53667 58.0567 3.59667 58.09 3.67C58.1567 3.78333 58.2133 3.92667 58.26 4.1C58.3067 4.28 58.33 4.47667 58.33 4.69ZM62.43 4.72V6.3H61.31V4.77C61.31 4.31667 61.18 3.98333 60.92 3.77C60.66 3.55 60.31 3.44 59.87 3.44C59.5433 3.44 59.2267 3.51 58.92 3.65C58.62 3.78333 58.35 3.97667 58.11 4.23L57.66 3.42C57.9 3.17333 58.2167 2.96333 58.61 2.79C59.0033 2.61 59.45 2.52 59.95 2.52C60.4567 2.52 60.8933 2.6 61.26 2.76C61.6333 2.92 61.92 3.16333 62.12 3.49C62.3267 3.81667 62.43 4.22667 62.43 4.72ZM53.11 8.74V5.56H54.23V9.14C54.1833 9.16 54.1133 9.18333 54.02 9.21C53.9267 9.23 53.8233 9.24 53.71 9.24C53.5167 9.24 53.3667 9.2 53.26 9.12C53.16 9.04 53.11 8.91333 53.11 8.74ZM57.21 8.74V5.56H58.33V9.14C58.2833 9.16 58.21 9.18333 58.11 9.21C58.0167 9.23 57.9167 9.24 57.81 9.24C57.6033 9.24 57.4533 9.2 57.36 9.12C57.26 9.04 57.21 8.91333 57.21 8.74ZM61.31 8.74V5.56H62.43V9.14C62.3833 9.16 62.3133 9.18333 62.22 9.21C62.12 9.23 62.0167 9.24 61.91 9.24C61.71 9.24 61.56 9.2 61.46 9.12C61.36 9.04 61.31 8.91333 61.31 8.74ZM69.75 4.69V6.3H68.63V4.77C68.63 4.31667 68.4967 3.98333 68.23 3.77C67.97 3.55 67.62 3.44 67.18 3.44C66.8867 3.44 66.6067 3.48667 66.34 3.58C66.0667 3.67333 65.8367 3.78333 65.65 3.91V6.3H64.53V3.96C64.53 3.77333 64.57 3.61667 64.65 3.49C64.73 3.35667 64.8667 3.23 65.06 3.11C65.3133 2.95 65.6333 2.81 66.02 2.69C66.4067 2.57667 66.7967 2.52 67.19 2.52C67.67 2.52 68.09 2.59333 68.45 2.74C68.8167 2.88 69.0867 3.07667 69.26 3.33C69.32 3.39 69.3667 3.44333 69.4 3.49C69.44 3.53667 69.48 3.59667 69.52 3.67C69.58 3.78333 69.6333 3.92667 69.68 4.1C69.7267 4.28 69.75 4.47667 69.75 4.69ZM73.86 4.72V6.3H72.74V4.77C72.74 4.31667 72.6067 3.98333 72.34 3.77C72.08 3.55 71.73 3.44 71.29 3.44C70.9633 3.44 70.65 3.51 70.35 3.65C70.0433 3.78333 69.77 3.97667 69.53 4.23L69.08 3.42C69.3267 3.17333 69.6433 2.96333 70.03 2.79C70.4233 2.61 70.8733 2.52 71.38 2.52C71.88 2.52 72.3167 2.6 72.69 2.76C73.0567 2.92 73.3433 3.16333 73.55 3.49C73.7567 3.81667 73.86 4.22667 73.86 4.72ZM64.53 8.74V5.56H65.65V9.14C65.6033 9.16 65.5333 9.18333 65.44 9.21C65.3467 9.23 65.2433 9.24 65.13 9.24C64.9367 9.24 64.79 9.2 64.69 9.12C64.5833 9.04 64.53 8.91333 64.53 8.74ZM68.63 8.74V5.56H69.75V9.14C69.7033 9.16 69.6333 9.18333 69.54 9.21C69.44 9.23 69.34 9.24 69.24 9.24C69.0333 9.24 68.88 9.2 68.78 9.12C68.68 9.04 68.63 8.91333 68.63 8.74ZM72.74 8.74V5.56H73.86V9.14C73.8133 9.16 73.74 9.18333 73.64 9.21C73.54 9.23 73.44 9.24 73.34 9.24C73.1333 9.24 72.98 9.2 72.88 9.12C72.7867 9.04 72.74 8.91333 72.74 8.74ZM78.27 8.44C78.6567 8.44 78.98 8.4 79.24 8.32C79.4933 8.24 79.6767 8.16333 79.79 8.09V6.06L78.06 6.24C77.5733 6.28 77.2133 6.39 76.98 6.57C76.7467 6.74333 76.63 7 76.63 7.34C76.63 7.68 76.7667 7.95 77.04 8.15C77.3133 8.34333 77.7233 8.44 78.27 8.44ZM78.25 2.52C79.0633 2.52 79.7067 2.70333 80.18 3.07C80.66 3.43 80.9 4.00333 80.9 4.79V8.11C80.9 8.31 80.86 8.46333 80.78 8.57C80.7 8.68333 80.58 8.78667 80.42 8.88C80.2 9 79.9033 9.11 79.53 9.21C79.1567 9.31667 78.7367 9.37 78.27 9.37C77.39 9.37 76.71 9.19667 76.23 8.85C75.75 8.50333 75.51 8.00333 75.51 7.35C75.51 6.74333 75.7133 6.28 76.12 5.96C76.5267 5.63333 77.0867 5.44 77.8 5.38L79.79 5.18V4.79C79.79 4.32333 79.65 3.98333 79.37 3.77C79.09 3.55 78.7133 3.44 78.24 3.44C77.8533 3.44 77.4867 3.49667 77.14 3.61C76.7867 3.72333 76.4767 3.85 76.21 3.99C76.1367 3.92333 76.07 3.84667 76.01 3.76C75.9433 3.67333 75.91 3.58333 75.91 3.49C75.91 3.24333 76.0467 3.05667 76.32 2.93C76.5733 2.79667 76.8667 2.69667 77.2 2.63C77.5267 2.55667 77.8767 2.52 78.25 2.52ZM86.89 1.51C86.89 1.35 86.9967 1.19333 87.21 1.04C87.4233 0.88 87.71 0.746667 88.07 0.64C88.43 0.54 88.82 0.49 89.24 0.49C89.8267 0.49 90.3333 0.59 90.76 0.79C91.1867 0.99 91.5167 1.27333 91.75 1.64C91.9833 2 92.1 2.43 92.1 2.93C92.1 3.44333 91.9567 3.94667 91.67 4.44C91.3833 4.93333 90.89 5.50667 90.19 6.16L87.88 8.32H92.1C92.1267 8.35333 92.1533 8.40667 92.18 8.48C92.2067 8.56 92.22 8.64667 92.22 8.74C92.22 8.86 92.1867 8.96 92.12 9.04C92.0467 9.12667 91.9467 9.17 91.82 9.17H86.88C86.8 9.10333 86.7367 9.03 86.69 8.95C86.6433 8.86333 86.62 8.77333 86.62 8.68C86.62 8.54667 86.6467 8.42333 86.7 8.31C86.7533 8.19 86.83 8.08 86.93 7.98L89.51 5.52C90.09 4.96667 90.49 4.49667 90.71 4.11C90.9367 3.72333 91.05 3.32333 91.05 2.91C91.05 2.45667 90.8933 2.08667 90.58 1.8C90.2667 1.51333 89.8033 1.37 89.19 1.37C88.7767 1.37 88.4067 1.44 88.08 1.58C87.7533 1.72 87.4833 1.87 87.27 2.03C87.1767 1.99 87.09 1.92667 87.01 1.84C86.93 1.75333 86.89 1.64333 86.89 1.51Z" fill="black"/>
</svg>
