<svg width="107.23" height="32.144" viewBox="0 0 107.23 32.144" xmlns="http://www.w3.org/2000/svg"><path transform="translate(0 16.478) scale(.014 -.014)" d="m420 349v-66h-275v66zm-115-66 32 50q68 0 113-22.5t67.5-59.5 22.5-83q0-91-65.5-135t-186.5-44q-27 0-54 1.5t-53 5.5-50 10q-42 12-42 46v512q0 16 8.5 25t24.5 13q34 10 72.5 13.5t82.5 3.5q113 0 176-40.5t63-123.5q0-42-20.5-77.5t-66-57-121.5-21.5l-9 50q66 0 100 27.5t34 76.5q0 50-39.5 74.5t-116.5 24.5q-34 0-60-2.5t-48-6.5v-476q24-5 55.5-8t63.5-3q83 0 126 28t43 86q0 52-38.5 82.5t-113.5 30.5z"/><path transform="translate(8.386 16.478) scale(.014 -.014)" d="m240-14q-94 0-145.5 37t-51.5 107q0 65 43.5 99.5t120.5 41.5l142 14v28q0 50-30 73t-81 23q-41 0-78.5-12t-66.5-27q-8 7-14.5 16.5t-6.5 19.5q0 26 29 40 27 14 62.5 21.5t75.5 7.5q87 0 138-39t51-123v-237q0-22-8.5-33.5t-25.5-21.5q-24-13-64-24t-90-11zm0 66q42 0 69.5 8.5t39.5 16.5v145l-124-13q-52-4-77-23t-25-55q0-37 29.5-58t87.5-21z"/><path transform="translate(15.372 16.478) scale(.014 -.014)" d="m83 264 80-12v-250q-5-2-15-4.5t-22-2.5q-21 0-32 8.5t-11 27.5zm80-50-80 11v423q5 2 15.5 4.5t21.5 2.5q22 0 32.5-8.5t10.5-27.5z"/><path transform="translate(18.816 16.478) scale(.014 -.014)" d="m504 231q0-74-28-129t-79-85-120-30-120.5 30-79.5 85-28 129q0 75 28.5 129.5t80 84.5 119.5 30 119-30 79.5-84.5 28.5-129.5zm-227 178q-67 0-106.5-47.5t-39.5-130.5q0-84 38.5-131t107.5-47q68 0 106.5 47.5t38.5 130.5-38.5 130.5-106.5 47.5z"/><path transform="translate(26.558 16.478) scale(.014 -.014)" d="m504 231q0-74-28-129t-79-85-120-30-120.5 30-79.5 85-28 129q0 75 28.5 129.5t80 84.5 119.5 30 119-30 79.5-84.5 28.5-129.5zm-227 178q-67 0-106.5-47.5t-39.5-130.5q0-84 38.5-131t107.5-47q68 0 106.5 47.5t38.5 130.5-38.5 130.5-106.5 47.5z"/><path transform="translate(37.1 16.478) scale(.014 -.014)" d="m261 539-5 69h233q3-4 6-13t3-19q0-16-8-26.5t-23-10.5zm2 69 5-69h-234q-3 5-6 14t-3 19q0 17 8 26.5t23 9.5zm-42-42h81v-564q-5-2-15.5-4.5t-21.5-2.5q-22 0-33 9t-11 28z"/><path transform="translate(44.422 16.478) scale(.014 -.014)" d="m240-14q-94 0-145.5 37t-51.5 107q0 65 43.5 99.5t120.5 41.5l142 14v28q0 50-30 73t-81 23q-41 0-78.5-12t-66.5-27q-8 7-14.5 16.5t-6.5 19.5q0 26 29 40 27 14 62.5 21.5t75.5 7.5q87 0 138-39t51-123v-237q0-22-8.5-33.5t-25.5-21.5q-24-13-64-24t-90-11zm0 66q42 0 69.5 8.5t39.5 16.5v145l-124-13q-52-4-77-23t-25-55q0-37 29.5-58t87.5-21z"/><path transform="translate(51.408 16.478) scale(.014 -.014)" d="m448 320v-115h-80v109q0 49-28.5 72t-75.5 23q-31 0-60-10t-49-23v-171h-80v167q0 20 8.5 34t29.5 27q27 17 68.5 29.5t83.5 12.5q51 0 90-15.5t58-42.5q6-6 10-11t8-13q7-12 12-31t5-42zm293-2v-113h-80v109q0 49-28 72t-75 23q-35 0-67.5-14.5t-58.5-41.5l-32 58q26 26 68 45t96 19 93.5-17 61.5-52 22-88zm-666-60h80v-256q-5-2-15-4.5t-22-2.5q-21 0-32 8.5t-11 27.5zm293 0h80v-256q-5-2-15.5-4.5t-21.5-2.5q-22 0-32.5 8.5t-10.5 27.5zm293 0h80v-256q-5-2-15.5-4.5t-21.5-2.5q-22 0-32.5 8.5t-10.5 27.5z"/><path transform="translate(62.832 16.478) scale(.014 -.014)" d="m448 320v-115h-80v109q0 49-28.5 72t-75.5 23q-31 0-60-10t-49-23v-171h-80v167q0 20 8.5 34t29.5 27q27 17 68.5 29.5t83.5 12.5q51 0 90-15.5t58-42.5q6-6 10-11t8-13q7-12 12-31t5-42zm293-2v-113h-80v109q0 49-28 72t-75 23q-35 0-67.5-14.5t-58.5-41.5l-32 58q26 26 68 45t96 19 93.5-17 61.5-52 22-88zm-666-60h80v-256q-5-2-15-4.5t-22-2.5q-21 0-32 8.5t-11 27.5zm293 0h80v-256q-5-2-15.5-4.5t-21.5-2.5q-22 0-32.5 8.5t-10.5 27.5zm293 0h80v-256q-5-2-15.5-4.5t-21.5-2.5q-22 0-32.5 8.5t-10.5 27.5z"/><path transform="translate(74.256 16.478) scale(.014 -.014)" d="m75 169v91h80v-87q0-64 34-92t94-28q40 0 68 8.5t44 17.5v181h80v-178q0-21-5.5-33.5t-26.5-24.5q-22-13-63-25t-98-12q-66 0-112.5 19.5t-70.5 60-24 102.5zm400 39h-80v252q5 2 15.5 4.5t21.5 2.5q22 0 32.5-8.5t10.5-28.5zm-320 0h-80v252q5 2 15.5 4.5t22.5 2.5q21 0 31.5-8.5t10.5-28.5z"/><path transform="translate(81.956 16.478) scale(.014 -.014)" d="m390 79v336l80 1v-340q0-19-8.5-30.5t-26.5-22.5q-20-13-57-24.5t-85-11.5q-72 0-127 25t-86 78.5-31 138.5q0 87 30.5 141t82.5 79.5 114 25.5q39 0 74-11t55-27v-74q-19 19-49.5 32.5t-71.5 13.5-76-17.5-56-57.5-21-107q0-91 44-132.5t117-41.5q35 0 57.5 7.5t40.5 18.5zm80 317-80-1v253q5 2 15.5 4.5t21.5 2.5q22 0 32.5-8.5t10.5-27.5z"/><path transform="translate(89.614 16.478) scale(.014 -.014)" d="m75 169v91h80v-87q0-64 34-92t94-28q40 0 68 8.5t44 17.5v181h80v-178q0-21-5.5-33.5t-26.5-24.5q-22-13-63-25t-98-12q-66 0-112.5 19.5t-70.5 60-24 102.5zm400 39h-80v252q5 2 15.5 4.5t21.5 2.5q22 0 32.5-8.5t10.5-28.5zm-320 0h-80v252q5 2 15.5 4.5t22.5 2.5q21 0 31.5-8.5t10.5-28.5z"/><path transform="translate(100.11 16.478) scale(.014 -.014)" d="m57 545q0 18 23 35.5t62 28.5 85 11q64 0 110-21.5t71-60.5 25-92q0-55-30.5-108t-104.5-121l-163-151h297q4-4 7-12.5t3-19.5q0-16-8.5-25t-22.5-9h-353q-10 7-15 17.5t-5 22.5q0 16 6 28.5t18 23.5l180 173q62 58 85 97.5t23 82.5q0 47-32 77t-97 30q-44 0-78.5-15t-57.5-32q-11 5-19.5 15t-8.5 25z"/></svg>