<svg width="94" height="10" viewBox="0 0 94 10" fill="none" xmlns="http://www.w3.org/2000/svg">
<path d="M1.28 4.28H5.13V5.21H1.28V4.28ZM3.52 5.21L3.97 4.51C4.60333 4.51 5.13 4.61333 5.55 4.82C5.97 5.03333 6.28667 5.31333 6.5 5.66C6.70667 6 6.81 6.38667 6.81 6.82C6.81 7.66667 6.50333 8.29667 5.89 8.71C5.28333 9.11667 4.41333 9.32 3.28 9.32C3.02667 9.32 2.77667 9.31333 2.53 9.3C2.27667 9.28667 2.02667 9.26333 1.78 9.23C1.54 9.19 1.30667 9.14333 1.08 9.09C0.693333 8.97667 0.5 8.76 0.5 8.44V1.27C0.5 1.12333 0.536667 1.00667 0.61 0.92C0.69 0.84 0.806667 0.78 0.96 0.74C1.27333 0.646667 1.61 0.583334 1.97 0.55C2.33 0.516667 2.71667 0.5 3.13 0.5C4.18333 0.5 5.00333 0.69 5.59 1.07C6.17667 1.45 6.47 2.02667 6.47 2.8C6.47 3.19333 6.37667 3.55333 6.19 3.88C5.99667 4.21333 5.68667 4.48 5.26 4.68C4.84 4.88 4.27333 4.98 3.56 4.98L3.44 4.28C4.05333 4.28 4.52 4.15333 4.84 3.9C5.15333 3.64 5.31 3.28333 5.31 2.83C5.31 2.36333 5.12667 2.01667 4.76 1.79C4.39333 1.55667 3.85 1.44 3.13 1.44C2.81 1.44 2.53 1.45333 2.29 1.48C2.04333 1.5 1.82 1.53 1.62 1.57V8.23C1.84 8.27667 2.09667 8.31333 2.39 8.34C2.68333 8.37333 2.98 8.39 3.28 8.39C4.05333 8.39 4.64333 8.25667 5.05 7.99C5.45 7.73 5.65 7.33 5.65 6.79C5.65 6.30333 5.47 5.91667 5.11 5.63C4.75 5.35 4.22 5.21 3.52 5.21ZM11 9.37C10.12 9.37 9.44 9.19667 8.96 8.85C8.48 8.50333 8.24 8.00333 8.24 7.35C8.24 6.74333 8.44333 6.28 8.85 5.96C9.25667 5.63333 9.81667 5.44 10.53 5.38L12.52 5.18V4.79C12.52 4.32333 12.38 3.98333 12.1 3.77C11.82 3.55 11.4433 3.44 10.97 3.44C10.5833 3.44 10.2167 3.49667 9.87 3.61C9.51667 3.72333 9.20667 3.85 8.94 3.99C8.86667 3.92333 8.8 3.84667 8.74 3.76C8.67333 3.67333 8.64 3.58333 8.64 3.49C8.64 3.24333 8.77667 3.05667 9.05 2.93C9.30333 2.79667 9.59667 2.69667 9.93 2.63C10.2567 2.55667 10.6067 2.52 10.98 2.52C11.7933 2.52 12.4367 2.70333 12.91 3.07C13.39 3.43 13.63 4.00333 13.63 4.79V8.11C13.63 8.31 13.59 8.46333 13.51 8.57C13.43 8.68333 13.31 8.78667 13.15 8.88C12.93 9 12.6333 9.11 12.26 9.21C11.8867 9.31667 11.4667 9.37 11 9.37ZM11 8.44C11.3867 8.44 11.71 8.4 11.97 8.32C12.2233 8.24 12.4067 8.16333 12.52 8.09V6.06L10.79 6.24C10.3033 6.28 9.94333 6.39 9.71 6.57C9.47667 6.74333 9.36 7 9.36 7.34C9.36 7.68 9.49667 7.95 9.77 8.15C10.0433 8.34333 10.4533 8.44 11 8.44ZM15.78 8.74V5.47L16.9 5.64V9.14C16.8533 9.16 16.7833 9.18333 16.69 9.21C16.5967 9.23 16.4967 9.24 16.39 9.24C16.19 9.24 16.04 9.2 15.94 9.12C15.8333 9.04 15.78 8.91333 15.78 8.74ZM16.9 0.5V6.17L15.78 6.02V0.0999999C15.8267 0.0799999 15.9 0.06 16 0.04C16.1 0.0133333 16.2 0 16.3 0C16.5067 0 16.66 0.0399999 16.76 0.12C16.8533 0.2 16.9 0.326667 16.9 0.5ZM25.12 5.94C25.12 6.62667 24.99 7.22667 24.73 7.74C24.47 8.25333 24.1 8.65 23.62 8.93C23.1467 9.21 22.5867 9.35 21.94 9.35C21.3 9.35 20.74 9.21 20.26 8.93C19.78 8.65 19.4067 8.25333 19.14 7.74C18.88 7.22667 18.75 6.62667 18.75 5.94C18.75 5.24 18.8833 4.63333 19.15 4.12C19.4167 3.61333 19.79 3.22 20.27 2.94C20.75 2.66 21.3067 2.52 21.94 2.52C22.58 2.52 23.1367 2.66 23.61 2.94C24.0833 3.22 24.4533 3.61333 24.72 4.12C24.9867 4.63333 25.12 5.24 25.12 5.94ZM21.94 3.44C21.32 3.44 20.8233 3.66333 20.45 4.11C20.0833 4.55 19.9 5.16 19.9 5.94C19.9 6.72 20.08 7.33 20.44 7.77C20.8 8.21 21.3 8.43 21.94 8.43C22.58 8.43 23.0767 8.20667 23.43 7.76C23.79 7.32 23.97 6.71333 23.97 5.94C23.97 5.16 23.79 4.55 23.43 4.11C23.0767 3.66333 22.58 3.44 21.94 3.44ZM32.86 5.94C32.86 6.62667 32.73 7.22667 32.47 7.74C32.21 8.25333 31.8433 8.65 31.37 8.93C30.89 9.21 30.33 9.35 29.69 9.35C29.0433 9.35 28.48 9.21 28 8.93C27.52 8.65 27.15 8.25333 26.89 7.74C26.6233 7.22667 26.49 6.62667 26.49 5.94C26.49 5.24 26.6233 4.63333 26.89 4.12C27.1567 3.61333 27.53 3.22 28.01 2.94C28.49 2.66 29.05 2.52 29.69 2.52C30.3233 2.52 30.8767 2.66 31.35 2.94C31.83 3.22 32.2033 3.61333 32.47 4.12C32.73 4.63333 32.86 5.24 32.86 5.94ZM29.69 3.44C29.0633 3.44 28.5667 3.66333 28.2 4.11C27.8267 4.55 27.64 5.16 27.64 5.94C27.64 6.72 27.82 7.33 28.18 7.77C28.54 8.21 29.0433 8.43 29.69 8.43C30.3233 8.43 30.82 8.20667 31.18 7.76C31.54 7.32 31.72 6.71333 31.72 5.94C31.72 5.16 31.54 4.55 31.18 4.11C30.82 3.66333 30.3233 3.44 29.69 3.44ZM43.81 1.6C43.81 1.72 43.77 1.82667 43.69 1.92C43.61 2.02 43.52 2.09333 43.42 2.14C43.1867 1.97333 42.9033 1.81667 42.57 1.67C42.2433 1.51667 41.8167 1.44 41.29 1.44C40.7233 1.44 40.2133 1.57 39.76 1.83C39.3067 2.09667 38.9467 2.48667 38.68 3C38.4133 3.52 38.28 4.16333 38.28 4.93C38.28 6.07667 38.5633 6.94 39.13 7.52C39.6967 8.1 40.43 8.39 41.33 8.39C41.8167 8.39 42.2433 8.32 42.61 8.18C42.97 8.04 43.2667 7.88 43.5 7.7C43.5933 7.74 43.6833 7.80667 43.77 7.9C43.8567 8 43.9 8.11667 43.9 8.25C43.9 8.34333 43.8733 8.43333 43.82 8.52C43.7667 8.60667 43.68 8.69333 43.56 8.78C43.3467 8.92667 43.0533 9.06 42.68 9.18C42.3067 9.29333 41.83 9.35 41.25 9.35C40.4767 9.35 39.7733 9.18667 39.14 8.86C38.5133 8.52667 38.0167 8.03333 37.65 7.38C37.29 6.72667 37.11 5.91 37.11 4.93C37.11 3.95 37.2967 3.12667 37.67 2.46C38.05 1.8 38.55 1.30333 39.17 0.97C39.79 0.643334 40.47 0.48 41.21 0.48C41.7233 0.48 42.1767 0.533333 42.57 0.64C42.9567 0.753333 43.26 0.896667 43.48 1.07C43.7 1.24333 43.81 1.42 43.81 1.6ZM51.25 5.07V6.38H50.13V5.1C50.13 4.54 49.9733 4.12333 49.66 3.85C49.3467 3.57667 48.9433 3.44 48.45 3.44C48.0833 3.44 47.7433 3.51 47.43 3.65C47.1167 3.79 46.8533 3.96 46.64 4.16L46.43 3.25C46.6567 3.09 46.9533 2.92667 47.32 2.76C47.6867 2.6 48.1133 2.52 48.6 2.52C49.3733 2.52 50.0067 2.73 50.5 3.15C51 3.57 51.25 4.21 51.25 5.07ZM45.66 8.74V5.47H46.78V9.14C46.7333 9.16 46.6633 9.18333 46.57 9.21C46.4767 9.23 46.3733 9.24 46.26 9.24C46.0667 9.24 45.9167 9.2 45.81 9.12C45.71 9.04 45.66 8.91333 45.66 8.74ZM50.13 8.74V5.49L51.25 5.5V9.14C51.2033 9.16 51.13 9.18333 51.03 9.21C50.93 9.23 50.83 9.24 50.73 9.24C50.5233 9.24 50.37 9.2 50.27 9.12C50.1767 9.04 50.13 8.91333 50.13 8.74ZM46.78 0.5V6.02H45.66V0.0999999C45.7067 0.0799999 45.78 0.06 45.88 0.04C45.9733 0.0133333 46.0767 0 46.19 0C46.39 0 46.5367 0.0399999 46.63 0.12C46.73 0.2 46.78 0.326667 46.78 0.5ZM58.46 5.99L53.75 6.65L53.7 5.77L57.92 5.19C57.8867 4.67667 57.71 4.25667 57.39 3.93C57.0767 3.59667 56.64 3.43 56.08 3.43C55.5 3.43 55.02 3.63667 54.64 4.05C54.26 4.47 54.07 5.06667 54.07 5.84V6.15C54.1367 6.89667 54.3833 7.46333 54.81 7.85C55.2367 8.23667 55.8167 8.43 56.55 8.43C56.9433 8.43 57.3 8.36333 57.62 8.23C57.9333 8.10333 58.1833 7.96333 58.37 7.81C58.4767 7.87667 58.56 7.95333 58.62 8.04C58.68 8.13333 58.71 8.23333 58.71 8.34C58.71 8.52 58.61 8.68667 58.41 8.84C58.21 8.99333 57.9433 9.11667 57.61 9.21C57.2767 9.30333 56.9067 9.35 56.5 9.35C55.78 9.35 55.1567 9.22 54.63 8.96C54.1033 8.7 53.6967 8.31 53.41 7.79C53.1233 7.27 52.98 6.63667 52.98 5.89C52.98 5.36333 53.0567 4.89 53.21 4.47C53.3633 4.05667 53.58 3.70667 53.86 3.42C54.1333 3.12667 54.46 2.90333 54.84 2.75C55.2267 2.59667 55.6433 2.52 56.09 2.52C56.6567 2.52 57.1567 2.64 57.59 2.88C58.03 3.12667 58.3733 3.46667 58.62 3.9C58.8667 4.33333 58.99 4.83 58.99 5.39C58.99 5.59667 58.9433 5.74333 58.85 5.83C58.7567 5.91667 58.6267 5.97 58.46 5.99ZM60.63 7.48V5.47H61.75V7.41C61.75 7.78333 61.8567 8.04667 62.07 8.2C62.2833 8.35333 62.5767 8.43 62.95 8.43C63.11 8.43 63.2867 8.4 63.48 8.34C63.68 8.28667 63.8433 8.22333 63.97 8.15C64.03 8.20333 64.0833 8.27333 64.13 8.36C64.1767 8.44 64.2 8.53667 64.2 8.65C64.2 8.85667 64.0767 9.02667 63.83 9.16C63.59 9.28667 63.2533 9.35 62.82 9.35C62.1667 9.35 61.6367 9.20667 61.23 8.92C60.83 8.62667 60.63 8.14667 60.63 7.48ZM63.75 3.77H61.2V2.84H64.04C64.0667 2.88 64.0967 2.94 64.13 3.02C64.1567 3.10667 64.17 3.19667 64.17 3.29C64.17 3.43667 64.1333 3.55333 64.06 3.64C63.98 3.72667 63.8767 3.77 63.75 3.77ZM61.75 1.23V5.89H60.63V0.83C60.6767 0.81 60.7467 0.786667 60.84 0.76C60.94 0.74 61.0467 0.73 61.16 0.73C61.3533 0.73 61.5 0.77 61.6 0.85C61.7 0.93 61.75 1.05667 61.75 1.23ZM65.83 7.48V5.47H66.95V7.41C66.95 7.78333 67.06 8.04667 67.28 8.2C67.4933 8.35333 67.7867 8.43 68.16 8.43C68.32 8.43 68.4967 8.4 68.69 8.34C68.8833 8.28667 69.0467 8.22333 69.18 8.15C69.2333 8.20333 69.2833 8.27333 69.33 8.36C69.3767 8.44 69.4 8.53667 69.4 8.65C69.4 8.85667 69.28 9.02667 69.04 9.16C68.8 9.28667 68.4633 9.35 68.03 9.35C67.3767 9.35 66.8467 9.20667 66.44 8.92C66.0333 8.62667 65.83 8.14667 65.83 7.48ZM68.96 3.77H66.41V2.84H69.25C69.2767 2.88 69.3033 2.94 69.33 3.02C69.3633 3.10667 69.38 3.19667 69.38 3.29C69.38 3.43667 69.34 3.55333 69.26 3.64C69.1867 3.72667 69.0867 3.77 68.96 3.77ZM66.95 1.23V5.89H65.83V0.83C65.8767 0.81 65.95 0.786667 66.05 0.76C66.15 0.74 66.2567 0.73 66.37 0.73C66.5633 0.73 66.71 0.77 66.81 0.85C66.9033 0.93 66.95 1.05667 66.95 1.23ZM73.34 9.37C72.46 9.37 71.78 9.19667 71.3 8.85C70.82 8.50333 70.58 8.00333 70.58 7.35C70.58 6.74333 70.7833 6.28 71.19 5.96C71.5967 5.63333 72.16 5.44 72.88 5.38L74.86 5.18V4.79C74.86 4.32333 74.72 3.98333 74.44 3.77C74.16 3.55 73.7833 3.44 73.31 3.44C72.93 3.44 72.5633 3.49667 72.21 3.61C71.8633 3.72333 71.5533 3.85 71.28 3.99C71.2067 3.92333 71.14 3.84667 71.08 3.76C71.02 3.67333 70.99 3.58333 70.99 3.49C70.99 3.24333 71.1233 3.05667 71.39 2.93C71.6433 2.79667 71.9367 2.69667 72.27 2.63C72.5967 2.55667 72.9467 2.52 73.32 2.52C74.1333 2.52 74.78 2.70333 75.26 3.07C75.7333 3.43 75.97 4.00333 75.97 4.79V8.11C75.97 8.31 75.93 8.46333 75.85 8.57C75.77 8.68333 75.65 8.78667 75.49 8.88C75.27 9 74.9733 9.11 74.6 9.21C74.2267 9.31667 73.8067 9.37 73.34 9.37ZM73.34 8.44C73.7333 8.44 74.0567 8.4 74.31 8.32C74.57 8.24 74.7533 8.16333 74.86 8.09V6.06L73.13 6.24C72.6433 6.28 72.2833 6.39 72.05 6.57C71.8167 6.74333 71.7 7 71.7 7.34C71.7 7.68 71.8367 7.95 72.11 8.15C72.39 8.34333 72.8 8.44 73.34 8.44ZM83.61 4.9V6.33H82.49V4.96C82.49 4.43333 82.3433 4.05 82.05 3.81C81.7567 3.56333 81.3633 3.44 80.87 3.44C80.4967 3.44 80.1667 3.48667 79.88 3.58C79.5867 3.67333 79.3367 3.78333 79.13 3.91V6.33H78.01V3.96C78.01 3.76667 78.05 3.60667 78.13 3.48C78.21 3.35333 78.35 3.23 78.55 3.11C78.79 2.97 79.11 2.83667 79.51 2.71C79.91 2.58333 80.3633 2.52 80.87 2.52C81.7167 2.52 82.3867 2.71333 82.88 3.1C83.3667 3.48667 83.61 4.08667 83.61 4.9ZM78.01 8.74V5.56H79.13V9.14C79.0833 9.16 79.0133 9.18333 78.92 9.21C78.8267 9.23 78.7267 9.24 78.62 9.24C78.42 9.24 78.27 9.2 78.17 9.12C78.0633 9.04 78.01 8.91333 78.01 8.74ZM82.49 8.74V5.56H83.61V9.14C83.5633 9.16 83.4933 9.18333 83.4 9.21C83.3 9.23 83.2 9.24 83.1 9.24C82.8933 9.24 82.74 9.2 82.64 9.12C82.54 9.04 82.49 8.91333 82.49 8.74ZM88.26 1.54C88.26 1.37333 88.3667 1.20667 88.58 1.04C88.8 0.88 89.09 0.746667 89.45 0.64C89.8167 0.54 90.2133 0.49 90.64 0.49C91.24 0.49 91.7533 0.59 92.18 0.79C92.6133 0.99 92.9467 1.27333 93.18 1.64C93.4133 2 93.53 2.43 93.53 2.93C93.53 3.44333 93.3867 3.94667 93.1 4.44C92.8133 4.93333 92.3267 5.49667 91.64 6.13L89.35 8.25H93.51C93.55 8.28333 93.5833 8.34 93.61 8.42C93.6367 8.5 93.65 8.59 93.65 8.69C93.65 8.84333 93.61 8.96 93.53 9.04C93.45 9.12667 93.3467 9.17 93.22 9.17H88.28C88.1867 9.10333 88.1167 9.02333 88.07 8.93C88.0233 8.83 88 8.72333 88 8.61C88 8.46333 88.0267 8.33 88.08 8.21C88.1333 8.09667 88.2167 7.98667 88.33 7.88L90.85 5.46C91.43 4.92 91.8267 4.46667 92.04 4.1C92.2533 3.72667 92.36 3.34 92.36 2.94C92.36 2.5 92.2133 2.14 91.92 1.86C91.62 1.58 91.1667 1.44 90.56 1.44C90.1467 1.44 89.78 1.51 89.46 1.65C89.14 1.79 88.87 1.94 88.65 2.1C88.55 2.05333 88.46 1.98333 88.38 1.89C88.3 1.79667 88.26 1.68 88.26 1.54Z" fill="black"/>
</svg>
