<svg width="93.52" height="16.8" viewBox="0 0 93.52 16.8" xmlns="http://www.w3.org/2000/svg"><path transform="translate(0 12.6) scale(.014 -.014)" d="m138 3q9-1 33-2t50.5-2 43.5-2q25-1 69 0 43 1 74.5 6t68.5 16 67 27q42 25 68.5 63.5t34 82.5-7 87-54.5 76q-14 12-33 21 31 39 41 89t-5 99q-16 49-56 83-61 52-183 62-64 6-176-1-6 0-11-2-14 7-30 4-20-3-32.5-19.5t-8.5-37.5q4-29 6-65.5t3-58.5q0-32-0.5-70.5t-0.5-67.5q0-53 1-155 1-103 1-152-10-13-11-29-1-21 13-36t35-16zm63 97q0 41-1 116t-1 94l12-1q8-3 16-4 10 0 24-1 59-4 89-5 39 0 71 5 86-5 110-25 23-19 26.5-46.5t-10-54.5-43.5-44q-36-21-86.5-30t-99.5-7q-50 1-107 3zm57 304q-17 2-56 7h-3q1 148-3 198 90 5 144 1 91-8 128-39 22-19 27-48.5t-6-58.5-37-44q-17-11-46-16h-6q-33 2-95 1-37-1-47-1z"/><path transform="translate(9.59 12.6) scale(.014 -.014)" d="m343 16q33 14 63 45v-15q1-24 17-35.5t35.5-11 34 13.5 13.5 37q-1 32-1.5 77.5t-0.5 91-2 78.5q-4 66-17 126-1 22-17 36 0 1-6 7l-13 13q-7 6-16.5 14t-17.5 12q-69 34-130.5 24t-113-52-88.5-106q-29-49-43-100t1-115 67-107q61-53 154-49 45 2 81 16zm-45 90q-35-10-69-5t-57 24q-78 68 1 202 40 67 93 91.5t101-1.5q12-8 21-20 17-82 17-217-3-2-5-4-22-33-53-49t-49-21z"/><path transform="translate(17.514 12.6) scale(.014 -.014)" d="m160 48q3 88 3.5 191.5t-1.5 230.5-2 196q0 25-15 37.5t-35 12.5-35-12.5-15-37.5q0-60 1-133t2-146 1-133q0-69-4-202-1-25 13.5-38t34-13.5 35.5 11 17 36.5z"/><path transform="translate(20.636 12.6) scale(.014 -.014)" d="m172 0q60-12 126 3 69 14 114 51 59 49 50 116-11 82-93 119-34 15-127 31-63 13-81 26-15 11-6 47 8 34 61 37 29 1 59-7.5t49-20.5q8-5 14-10l14-17q10-10 20-19 18-16 37-14.5t33 15 16 32-16 36.5q0 0-8.5 8.5t-20 19-20.5 19.5-11 10q-33 22-79.5 34.5t-91.5 10.5q-53-3-96.5-29.5t-57.5-82.5q-23-97 43-146 36-27 123-44 84-15 104-24 32-14 35-42 3-17-15-33-25-19-70-29-46-10-86-2-24 3-36 14-11 9-14 22-3 11-3 16-1 4-2 9-3 14-6 25-7 24-25 31t-37 1-30-21.5-4-37.5q2-6 4-16l4-22q7-35 23-56 33-47 107-60z"/><path transform="translate(27.566 12.6) scale(.014 -.014)" d="m343 16q33 14 63 45v-15q1-24 17-35.5t35.5-11 34 13.5 13.5 37q-1 32-1.5 77.5t-0.5 91-2 78.5q-4 66-17 126-1 22-17 36 0 1-6 7l-13 13q-7 6-16.5 14t-17.5 12q-69 34-130.5 24t-113-52-88.5-106q-29-49-43-100t1-115 67-107q61-53 154-49 45 2 81 16zm-45 90q-35-10-69-5t-57 24q-78 68 1 202 40 67 93 91.5t101-1.5q12-8 21-20 17-82 17-217-3-2-5-4-22-33-53-49t-49-21z"/><path transform="translate(35.49 12.6) scale(.014 -.014)" d="m672 44q2-24 18-35t35.5-10 33.5 14.5 13 38.5q-1 8-2.5 25.5t-2.5 33-1 17.5v55q0 24 1 58t0.5 70.5-5.5 67.5q-12 64-47 105-45 47-119 46-101-6-163-84-19 34-43 53-46 37-115 31-65-6-110-59 1 33-14 46.5t-35 12-35.5-13.5-15.5-31q0-42 1.5-93.5t2.5-103.5 1-93q0-32-2-143-1-25 13.5-38t34-13.5 35.5 11 17 36.5q4 105 0 305 6 5 11 11 24 33 47 48 24 15 57 18 30 3 45-9 14-11 22-39 3-9 6-29t4-31q0-8 0.5-24t0.5-21v-50q0-65 3-178 1-25 17-37t35.5-11.5 34 13 13.5 37.5q-3 113-3 176 0 86-3 116 69 83 138 84 31 0 46-15.5t21-50.5q5-24 5-55.5t-1-64.5-1-58v-57q0-3 1.5-20t3-35.5 1.5-26.5z"/><path transform="translate(47.068 12.6) scale(.014 -.014)" d="m66 48q0-25 15-37t35-11.5 35 13.5 15 37q-2 75 1 229 2 154 2 202 0 25-15 37.5t-35 12.5-35-12.5-15-37.5q0-48-2-203-3-155-1-230zm93 656q-19 22-42 19.5t-40-19.5-20-40 18-44 44-18.5 39.5 19 19 39.5-18.5 44z"/><path transform="translate(50.344 12.6) scale(.014 -.014)" d="m522-146q9 271 6 496 2 7 0 15 0 49-1 112 0 21-15 35t-36 14q-17 0-30.5-11.5t-17.5-41.5l-3 1q-129 101-249 26-37-25-69.5-70t-50.5-102q-9-38-10.5-72t9.5-72q10-39 32-76 22-38 62-66t93-38q74-14 130 12 27 12 55 36-2-107-5-194-1-25 13.5-38t34-13.5 35.5 11.5 17 36zm-262 248q-47 9-76 40.5t-37.5 74.5 6.5 84q25 81 79 109 59 30 141-20 27-18 35-26 4-4 11-13l10-11v-137l-26-30q-16-19-35-38.5t-38-28.5q-27-12-70-4z"/><path transform="translate(62.3 12.6) scale(.014 -.014)" d="m291-10q70 0 131.5 26.5t99.5 75.5 38 113q0 69-47.5 112.5t-127.5 70.5q-60 20-96 34.5t-68 31.5q-34 19-50 37t-15 42q2 45 38 70.5t110 25.5q43 0 79.5-14.5t58.5-37.5q21-24 21-49 0-24 14-38.5t34-14.5q21 0 35.5 14.5t14.5 40.5q0 51-32 96t-90 72-132 27q-71 0-128.5-28.5t-89.5-74.5-32-96q0-111 123-172 43-21 142-54l31-11q50-16 79-36.5t29-50.5q0-50-42-82t-115-32q-152 0-166 129-3 20-16 30t-29 10q-21 0-36.5-14.5t-15.5-38.5q0-62 32.5-110.5t89.5-75.5q57-28 128-28z"/><path transform="translate(70.77 12.6) scale(.014 -.014)" d="m343 16q33 14 63 45v-15q1-24 17-35.5t35.5-11 34 13.5 13.5 37q-1 32-1.5 77.5t-0.5 91-2 78.5q-4 66-17 126-1 22-17 36 0 1-6 7l-13 13q-7 6-16.5 14t-17.5 12q-69 34-130.5 24t-113-52-88.5-106q-29-49-43-100t1-115 67-107q61-53 154-49 45 2 81 16zm-45 90q-35-10-69-5t-57 24q-78 68 1 202 40 67 93 91.5t101-1.5q12-8 21-20 17-82 17-217-3-2-5-4-22-33-53-49t-49-21z"/><path transform="translate(78.694 12.6) scale(.014 -.014)" d="m118 0q20 0 35 13.5t15 36.5l-1 159-2 142q34 34 72.5 56t74.5 22q50 0 74-40.5t24-125.5q0-37-5-102-7-95-7-111 0-23 15-36.5t35-13.5q19 0 33 12t16 32l3 43 5 67q3 36 3 150 0 103-46.5 164t-133.5 61q-101 0-163-81v31q0 24-15.5 37.5t-36.5 13.5q-20 0-34-13t-14-36q0-125 2-295 1-57 1-136 0-23 15-36.5t35-13.5z"/><path transform="translate(86.59 12.6) scale(.014 -.014)" d="m172 0q60-12 126 3 69 14 114 51 59 49 50 116-11 82-93 119-34 15-127 31-63 13-81 26-15 11-6 47 8 34 61 37 29 1 59-7.5t49-20.5q8-5 14-10l14-17q10-10 20-19 18-16 37-14.5t33 15 16 32-16 36.5q0 0-8.5 8.5t-20 19-20.5 19.5-11 10q-33 22-79.5 34.5t-91.5 10.5q-53-3-96.5-29.5t-57.5-82.5q-23-97 43-146 36-27 123-44 84-15 104-24 32-14 35-42 3-17-15-33-25-19-70-29-46-10-86-2-24 3-36 14-11 9-14 22-3 11-3 16-1 4-2 9-3 14-6 25-7 24-25 31t-37 1-30-21.5-4-37.5q2-6 4-16l4-22q7-35 23-56 33-47 107-60z"/></svg>