<svg width="129" height="11" viewBox="0 0 129 11" fill="none" xmlns="http://www.w3.org/2000/svg">
<path d="M4.74 4.83C4.69333 4.85 4.69333 4.87333 4.74 4.9C5.18 5.11333 5.52 5.42 5.76 5.82C6 6.22667 6.12333 6.71333 6.13 7.28C6.13 8.12 5.88 8.77333 5.38 9.24C4.88 9.70667 4.22 9.94 3.4 9.94H0.64C0.546667 9.94 0.5 9.89333 0.5 9.8V0.28C0.5 0.186667 0.546667 0.14 0.64 0.14H3.29C4.15 0.14 4.82 0.363333 5.3 0.81C5.78667 1.25 6.03 1.88 6.03 2.7C6.03 3.22667 5.92 3.66667 5.7 4.02C5.48 4.37333 5.16 4.64333 4.74 4.83ZM1.55 1.01C1.51667 1.01 1.5 1.02667 1.5 1.06V4.44C1.5 4.47333 1.51667 4.49 1.55 4.49H3.3C3.84 4.49 4.26667 4.33667 4.58 4.03C4.89333 3.72333 5.05 3.31 5.05 2.79C5.05 2.23667 4.89333 1.8 4.58 1.48C4.26667 1.16667 3.84 1.01 3.3 1.01H1.55ZM3.37 9.06C3.91 9.06 4.34 8.89 4.66 8.55C4.98 8.21667 5.14 7.76 5.14 7.18C5.14 6.59333 4.97667 6.13333 4.65 5.8C4.33 5.46 3.89333 5.29 3.34 5.29H1.55C1.51667 5.29 1.5 5.31 1.5 5.35V9C1.5 9.04 1.51667 9.06 1.55 9.06H3.37ZM10.08 2.74C10.8267 2.74 11.4133 2.95667 11.84 3.39C12.26 3.81667 12.47 4.38667 12.47 5.1V9.8C12.47 9.89333 12.4233 9.94 12.33 9.94H11.62C11.5267 9.94 11.48 9.89333 11.48 9.8V9.3C11.48 9.28 11.4733 9.26333 11.46 9.25C11.4467 9.24333 11.43 9.25 11.41 9.27C11.2033 9.53 10.94 9.72667 10.62 9.86C10.3067 9.98667 9.95333 10.05 9.56 10.05C8.97333 10.05 8.47 9.89333 8.05 9.58C7.63667 9.26 7.43 8.74 7.43 8.02C7.43 7.27333 7.67 6.70667 8.15 6.32C8.63 5.93333 9.28667 5.74 10.12 5.74H11.42C11.46 5.74 11.48 5.72 11.48 5.68V5.15C11.48 4.67667 11.36 4.30333 11.12 4.03C10.88 3.75 10.5267 3.61 10.06 3.61C9.7 3.61 9.39667 3.70333 9.15 3.89C8.91 4.07 8.76667 4.31 8.72 4.61C8.71333 4.69 8.66333 4.73 8.57 4.73L7.8 4.69C7.75333 4.69 7.71667 4.67667 7.69 4.65C7.67 4.62333 7.66333 4.59 7.67 4.55C7.73667 4.01 7.99 3.57333 8.43 3.24C8.87667 2.90667 9.42667 2.74 10.08 2.74ZM9.76 9.18C10.2267 9.18 10.63 9.05333 10.97 8.8C11.31 8.54 11.48 8.18333 11.48 7.73V6.59C11.48 6.55667 11.46 6.54 11.42 6.54H10.19C9.65667 6.54 9.23333 6.66333 8.92 6.91C8.6 7.15667 8.44 7.51 8.44 7.97C8.44 8.37667 8.56 8.68 8.8 8.88C9.04667 9.08 9.36667 9.18 9.76 9.18ZM16.91 2.79C17.19 2.79 17.4267 2.84333 17.62 2.95C17.6867 2.98333 17.71 3.04 17.69 3.12L17.53 3.85C17.5167 3.94333 17.46 3.97 17.36 3.93C17.2067 3.87 17.0433 3.84 16.87 3.84L16.7 3.85C16.2867 3.85667 15.9467 4.03333 15.68 4.38C15.4067 4.72667 15.27 5.14667 15.27 5.64V9.8C15.27 9.89333 15.2233 9.94 15.13 9.94H14.42C14.3267 9.94 14.28 9.89333 14.28 9.8V3C14.28 2.90667 14.3267 2.86 14.42 2.86H15.13C15.2233 2.86 15.27 2.90667 15.27 3V3.91C15.27 3.93667 15.2767 3.95 15.29 3.95C15.3033 3.95 15.3167 3.94 15.33 3.92C15.49 3.56667 15.7033 3.29 15.97 3.09C16.23 2.89 16.5433 2.79 16.91 2.79ZM18.98 9.94C18.8867 9.94 18.84 9.89333 18.84 9.8V0.28C18.84 0.186667 18.8867 0.14 18.98 0.14H19.7C19.7933 0.14 19.84 0.186667 19.84 0.28V9.8C19.84 9.89333 19.7933 9.94 19.7 9.94H18.98ZM24.15 10.05C23.47 10.05 22.91 9.86667 22.47 9.5C22.03 9.13333 21.7633 8.63667 21.67 8.01C21.6167 7.54333 21.59 7 21.59 6.38C21.59 5.76667 21.6167 5.23667 21.67 4.79C21.7567 4.17 22.02 3.67333 22.46 3.3C22.9067 2.92667 23.47 2.74 24.15 2.74C24.83 2.74 25.3933 2.92667 25.84 3.3C26.28 3.67333 26.5433 4.17 26.63 4.79C26.6833 5.16333 26.71 5.69333 26.71 6.38C26.71 7.09333 26.6833 7.63667 26.63 8.01C26.5433 8.63667 26.28 9.13333 25.84 9.5C25.3933 9.86667 24.83 10.05 24.15 10.05ZM24.15 9.18C24.55 9.18 24.8867 9.05667 25.16 8.81C25.44 8.56333 25.6067 8.23667 25.66 7.83C25.7 7.48333 25.72 7.00667 25.72 6.4C25.72 5.78 25.7 5.30333 25.66 4.97C25.6133 4.55667 25.4533 4.22667 25.18 3.98C24.9 3.73333 24.5567 3.61 24.15 3.61C23.7367 3.61 23.3967 3.73333 23.13 3.98C22.8567 4.22667 22.6933 4.55667 22.64 4.97C22.6 5.30333 22.58 5.78 22.58 6.4C22.58 7.01333 22.6 7.49 22.64 7.83C22.6867 8.23667 22.8467 8.56333 23.12 8.81C23.3933 9.05667 23.7367 9.18 24.15 9.18ZM29.55 9.94C29.47 9.94 29.42 9.89667 29.4 9.81L27.68 3.01L27.66 2.95C27.66 2.89 27.7033 2.86 27.79 2.86H28.49C28.57 2.86 28.62 2.9 28.64 2.98L29.9 8.36C29.9133 8.38667 29.9233 8.4 29.93 8.4C29.9367 8.4 29.9467 8.38667 29.96 8.36L31.23 2.98C31.25 2.9 31.3033 2.86 31.39 2.86H32.03C32.1233 2.86 32.1733 2.9 32.18 2.98L33.49 8.34C33.4967 8.37333 33.5033 8.39 33.51 8.39C33.5233 8.39 33.5333 8.37333 33.54 8.34L34.82 2.98C34.8333 2.9 34.8833 2.86 34.97 2.86L35.68 2.87C35.7267 2.87 35.7633 2.88333 35.79 2.91C35.81 2.93667 35.8133 2.97333 35.8 3.02L34.05 9.81C34.0367 9.89667 33.9833 9.94 33.89 9.94H33.16C33.08 9.94 33.03 9.89667 33.01 9.81L31.74 4.63C31.7267 4.60333 31.7133 4.59 31.7 4.59C31.6867 4.59 31.6767 4.60333 31.67 4.63L30.43 9.81C30.4167 9.89667 30.3667 9.94 30.28 9.94H29.55ZM42.53 10.05C41.65 10.05 40.9533 9.82 40.44 9.36C39.92 8.9 39.66 8.28 39.66 7.5V7.13C39.66 7.03667 39.7067 6.99 39.8 6.99H40.49C40.5833 6.99 40.63 7.03667 40.63 7.13V7.45C40.63 7.97 40.8067 8.39 41.16 8.71C41.5133 9.02333 41.9833 9.18 42.57 9.18C43.1233 9.18 43.5567 9.03333 43.87 8.74C44.19 8.44 44.35 8.04667 44.35 7.56C44.35 7.24 44.2767 6.96333 44.13 6.73C43.9767 6.49667 43.7567 6.28333 43.47 6.09C43.1767 5.89667 42.76 5.65 42.22 5.35C41.64 5.04333 41.1867 4.77333 40.86 4.54C40.5267 4.30667 40.2567 4.02 40.05 3.68C39.8433 3.34667 39.74 2.93667 39.74 2.45C39.74 1.69667 39.9833 1.10333 40.47 0.67C40.9567 0.243333 41.6067 0.0300002 42.42 0.0300002C43.2867 0.0300002 43.9767 0.266667 44.49 0.74C45.0033 1.22 45.26 1.85 45.26 2.63V2.95C45.26 3.04333 45.2133 3.09 45.12 3.09H44.42C44.3267 3.09 44.28 3.04333 44.28 2.95V2.65C44.28 2.12333 44.1133 1.7 43.78 1.38C43.44 1.06 42.9767 0.9 42.39 0.9C41.87 0.9 41.4633 1.03333 41.17 1.3C40.87 1.57333 40.72 1.95667 40.72 2.45C40.72 2.77 40.79 3.03667 40.93 3.25C41.07 3.46333 41.2733 3.66 41.54 3.84C41.8067 4.01333 42.2167 4.25 42.77 4.55C43.4033 4.90333 43.89 5.20333 44.23 5.45C44.57 5.69667 44.84 5.98333 45.04 6.31C45.24 6.63 45.34 7.02333 45.34 7.49C45.34 8.27667 45.09 8.9 44.59 9.36C44.0833 9.82 43.3967 10.05 42.53 10.05ZM49.38 9.18C49.7333 9.18 50.0367 9.09 50.29 8.91C50.55 8.73 50.7367 8.48667 50.85 8.18C50.8767 8.09333 50.93 8.06 51.01 8.08L51.66 8.2C51.7067 8.21333 51.7367 8.23667 51.75 8.27C51.7633 8.30333 51.7667 8.33667 51.76 8.37C51.6 8.89667 51.31 9.30667 50.89 9.6C50.47 9.9 49.96 10.05 49.36 10.05C48.68 10.05 48.1267 9.87 47.7 9.51C47.2667 9.15 47 8.66333 46.9 8.05C46.86 7.81667 46.8367 7.54 46.83 7.22C46.8167 6.90667 46.81 6.64333 46.81 6.43C46.81 6.22333 46.81 6.07667 46.81 5.99C46.81 5.51667 46.83 5.13 46.87 4.83C46.9433 4.20333 47.2033 3.7 47.65 3.32C48.09 2.93333 48.6467 2.74 49.32 2.74C50.04 2.74 50.6233 2.94667 51.07 3.36C51.5167 3.77333 51.77 4.31333 51.83 4.98C51.8567 5.29333 51.87 5.86 51.87 6.68C51.87 6.77333 51.8233 6.82 51.73 6.82H47.86C47.8267 6.82 47.81 6.83667 47.81 6.87C47.81 7.16333 47.82 7.48667 47.84 7.84C47.8867 8.24 48.0467 8.56333 48.32 8.81C48.5933 9.05667 48.9467 9.18 49.38 9.18ZM49.33 3.61C48.91 3.61 48.5667 3.73333 48.3 3.98C48.04 4.22667 47.8867 4.55333 47.84 4.96C47.82 5.34667 47.81 5.67333 47.81 5.94C47.81 5.97333 47.8267 5.99 47.86 5.99H50.82C50.8533 5.99 50.87 5.97333 50.87 5.94C50.87 5.66667 50.8533 5.34333 50.82 4.97C50.7733 4.57 50.6167 4.24333 50.35 3.99C50.0833 3.73667 49.7433 3.61 49.33 3.61ZM59.99 2.76C60.6167 2.76 61.11 2.96667 61.47 3.38C61.8233 3.79333 62 4.36667 62 5.1V9.8C62 9.89333 61.9533 9.94 61.86 9.94H61.16C61.0667 9.94 61.02 9.89333 61.02 9.8V5.24C61.02 4.74 60.8967 4.34667 60.65 4.06C60.4033 3.77333 60.08 3.63 59.68 3.63C59.26 3.63 58.92 3.77 58.66 4.05C58.4067 4.33667 58.28 4.72333 58.28 5.21V9.8C58.28 9.89333 58.2333 9.94 58.14 9.94H57.43C57.3367 9.94 57.29 9.89333 57.29 9.8V5.24C57.29 4.74 57.1633 4.34667 56.91 4.06C56.6633 3.77333 56.34 3.63 55.94 3.63C55.52 3.63 55.1833 3.77 54.93 4.05C54.6833 4.33667 54.56 4.72333 54.56 5.21V9.8C54.56 9.89333 54.5133 9.94 54.42 9.94H53.7C53.6067 9.94 53.56 9.89333 53.56 9.8V3C53.56 2.90667 53.6067 2.86 53.7 2.86H54.42C54.5133 2.86 54.56 2.90667 54.56 3V3.49C54.56 3.50333 54.5667 3.51333 54.58 3.52C54.5933 3.52667 54.61 3.52 54.63 3.5C54.8167 3.24667 55.0533 3.06 55.34 2.94C55.6267 2.82 55.9333 2.76 56.26 2.76C56.6733 2.76 57.0333 2.85333 57.34 3.04C57.6467 3.22667 57.88 3.48667 58.04 3.82C58.06 3.86667 58.0833 3.86667 58.11 3.82C58.2967 3.46 58.5567 3.19333 58.89 3.02C59.2233 2.84667 59.59 2.76 59.99 2.76ZM64.52 1.57C64.2867 1.57 64.1 1.49333 63.96 1.34C63.8133 1.19333 63.74 1.00667 63.74 0.78C63.74 0.546667 63.8133 0.36 63.96 0.22C64.1 0.0733336 64.2867 0 64.52 0C64.7467 0 64.9333 0.0733336 65.08 0.22C65.2333 0.36 65.31 0.546667 65.31 0.78C65.31 1.00667 65.2333 1.19333 65.08 1.34C64.9333 1.49333 64.7467 1.57 64.52 1.57ZM64.15 9.94C64.0567 9.94 64.01 9.89333 64.01 9.8V3C64.01 2.90667 64.0567 2.86 64.15 2.86H64.86C64.9533 2.86 65 2.90667 65 3V9.8C65 9.89333 64.9533 9.94 64.86 9.94H64.15ZM72.67 10.05C71.8233 10.05 71.14 9.8 70.62 9.3C70.1 8.79333 69.84 8.12333 69.84 7.29V2.77C69.84 1.94333 70.1 1.28 70.62 0.78C71.14 0.28 71.8233 0.0300002 72.67 0.0300002C73.53 0.0300002 74.22 0.276667 74.74 0.77C75.2533 1.26333 75.51 1.92 75.51 2.74V2.87C75.51 2.96333 75.4633 3.01 75.37 3.01L74.66 3.04C74.5667 3.04 74.52 2.99667 74.52 2.91V2.72C74.52 2.17333 74.35 1.73333 74.01 1.4C73.67 1.06667 73.2233 0.9 72.67 0.9C72.1233 0.9 71.68 1.06333 71.34 1.39C71.0067 1.72333 70.84 2.16667 70.84 2.72V7.36C70.84 7.91333 71.0067 8.35667 71.34 8.69C71.68 9.01667 72.1233 9.18 72.67 9.18C73.2233 9.18 73.67 9.01333 74.01 8.68C74.35 8.34667 74.52 7.90667 74.52 7.36V7.17C74.52 7.08333 74.5667 7.04 74.66 7.04L75.37 7.08C75.4633 7.08 75.51 7.12667 75.51 7.22V7.32C75.51 8.14 75.2533 8.8 74.74 9.3C74.22 9.8 73.53 10.05 72.67 10.05ZM79.59 10.05C78.91 10.05 78.35 9.86667 77.91 9.5C77.47 9.13333 77.2033 8.63667 77.11 8.01C77.0567 7.54333 77.03 7 77.03 6.38C77.03 5.76667 77.0567 5.23667 77.11 4.79C77.1967 4.17 77.46 3.67333 77.9 3.3C78.3467 2.92667 78.91 2.74 79.59 2.74C80.27 2.74 80.83 2.92667 81.27 3.3C81.7167 3.67333 81.9833 4.17 82.07 4.79C82.1233 5.16333 82.15 5.69333 82.15 6.38C82.15 7.09333 82.1233 7.63667 82.07 8.01C81.9833 8.63667 81.7167 9.13333 81.27 9.5C80.83 9.86667 80.27 10.05 79.59 10.05ZM79.59 9.18C79.99 9.18 80.3267 9.05667 80.6 8.81C80.88 8.56333 81.0467 8.23667 81.1 7.83C81.14 7.48333 81.16 7.00667 81.16 6.4C81.16 5.78 81.14 5.30333 81.1 4.97C81.0533 4.55667 80.8933 4.22667 80.62 3.98C80.34 3.73333 79.9967 3.61 79.59 3.61C79.1767 3.61 78.8367 3.73333 78.57 3.98C78.2967 4.22667 78.1333 4.55667 78.08 4.97C78.04 5.30333 78.02 5.78 78.02 6.4C78.02 7.01333 78.04 7.49 78.08 7.83C78.1267 8.23667 78.2867 8.56333 78.56 8.81C78.8333 9.05667 79.1767 9.18 79.59 9.18ZM86.67 2.76C87.3233 2.76 87.84 2.96667 88.22 3.38C88.6 3.79333 88.79 4.36 88.79 5.08V9.8C88.79 9.89333 88.7433 9.94 88.65 9.94H87.93C87.8367 9.94 87.79 9.89333 87.79 9.8V5.22C87.79 4.73333 87.6633 4.34667 87.41 4.06C87.1633 3.77333 86.82 3.63 86.38 3.63C85.94 3.63 85.5867 3.77667 85.32 4.07C85.0533 4.36333 84.92 4.75667 84.92 5.25V9.8C84.92 9.89333 84.8733 9.94 84.78 9.94H84.07C83.9767 9.94 83.93 9.89333 83.93 9.8V3C83.93 2.90667 83.9767 2.86 84.07 2.86H84.78C84.8733 2.86 84.92 2.90667 84.92 3V3.54C84.92 3.56 84.9267 3.57333 84.94 3.58C84.9533 3.59333 84.97 3.59 84.99 3.57C85.3567 3.03 85.9167 2.76 86.67 2.76ZM94.44 0.28C94.44 0.186667 94.4867 0.14 94.58 0.14H95.3C95.3933 0.14 95.44 0.186667 95.44 0.28V9.8C95.44 9.89333 95.3933 9.94 95.3 9.94H94.58C94.4867 9.94 94.44 9.89333 94.44 9.8V9.24C94.44 9.21333 94.4333 9.2 94.42 9.2C94.4067 9.2 94.39 9.21 94.37 9.23C94.0233 9.77667 93.4833 10.05 92.75 10.05C92.1633 10.05 91.6933 9.89333 91.34 9.58C90.9933 9.26667 90.7333 8.77 90.56 8.09C90.44 7.57667 90.38 7.03667 90.38 6.47C90.38 5.81667 90.4333 5.26 90.54 4.8C90.68 4.1 90.9367 3.58333 91.31 3.25C91.69 2.92333 92.1933 2.76 92.82 2.76C93.2133 2.76 93.5333 2.82667 93.78 2.96C94.0267 3.09333 94.2233 3.29667 94.37 3.57C94.3833 3.59667 94.3967 3.60667 94.41 3.6C94.43 3.6 94.44 3.58667 94.44 3.56V0.28ZM94.2 8.16C94.34 7.74 94.41 7.15333 94.41 6.4C94.41 5.63333 94.3367 5.03 94.19 4.59C94.0767 4.27667 93.9233 4.03333 93.73 3.86C93.5433 3.69333 93.29 3.61 92.97 3.61C92.3567 3.61 91.92 3.92667 91.66 4.56C91.48 5.02667 91.39 5.64 91.39 6.4C91.39 7.15333 91.4633 7.73667 91.61 8.15C91.7367 8.49667 91.9033 8.75667 92.11 8.93C92.3233 9.11 92.6067 9.2 92.96 9.2C93.2867 9.2 93.5467 9.11 93.74 8.93C93.94 8.75667 94.0933 8.5 94.2 8.16ZM99.79 9.18C100.143 9.18 100.45 9.09 100.71 8.91C100.963 8.73 101.147 8.48667 101.26 8.18C101.287 8.09333 101.343 8.06 101.43 8.08L102.07 8.2C102.117 8.21333 102.147 8.23667 102.16 8.27C102.173 8.30333 102.177 8.33667 102.17 8.37C102.01 8.89667 101.72 9.30667 101.3 9.6C100.88 9.9 100.373 10.05 99.78 10.05C99.0933 10.05 98.5367 9.87 98.11 9.51C97.6833 9.15 97.4167 8.66333 97.31 8.05C97.2767 7.81667 97.2533 7.54 97.24 7.22C97.2333 6.90667 97.23 6.64333 97.23 6.43C97.23 6.22333 97.23 6.07667 97.23 5.99C97.23 5.51667 97.2467 5.13 97.28 4.83C97.36 4.20333 97.62 3.7 98.06 3.32C98.5067 2.93333 99.0633 2.74 99.73 2.74C100.45 2.74 101.033 2.94667 101.48 3.36C101.933 3.77333 102.187 4.31333 102.24 4.98C102.267 5.29333 102.28 5.86 102.28 6.68C102.28 6.77333 102.233 6.82 102.14 6.82H98.28C98.24 6.82 98.22 6.83667 98.22 6.87C98.22 7.16333 98.23 7.48667 98.25 7.84C98.2967 8.24 98.4567 8.56333 98.73 8.81C99.01 9.05667 99.3633 9.18 99.79 9.18ZM99.75 3.61C99.33 3.61 98.9867 3.73333 98.72 3.98C98.4533 4.22667 98.2967 4.55333 98.25 4.96C98.23 5.34667 98.22 5.67333 98.22 5.94C98.22 5.97333 98.24 5.99 98.28 5.99H101.23C101.27 5.99 101.29 5.97333 101.29 5.94C101.29 5.66667 101.27 5.34333 101.23 4.97C101.183 4.57 101.027 4.24333 100.76 3.99C100.493 3.73667 100.157 3.61 99.75 3.61ZM106.72 2.76C107.373 2.76 107.89 2.96667 108.27 3.38C108.643 3.79333 108.83 4.36 108.83 5.08V9.8C108.83 9.89333 108.783 9.94 108.69 9.94H107.98C107.887 9.94 107.84 9.89333 107.84 9.8V5.22C107.84 4.73333 107.713 4.34667 107.46 4.06C107.207 3.77333 106.863 3.63 106.43 3.63C105.99 3.63 105.637 3.77667 105.37 4.07C105.103 4.36333 104.97 4.75667 104.97 5.25V9.8C104.97 9.89333 104.923 9.94 104.83 9.94H104.12C104.027 9.94 103.98 9.89333 103.98 9.8V3C103.98 2.90667 104.027 2.86 104.12 2.86H104.83C104.923 2.86 104.97 2.90667 104.97 3V3.54C104.97 3.56 104.977 3.57333 104.99 3.58C105.003 3.59333 105.02 3.59 105.04 3.57C105.407 3.03 105.967 2.76 106.72 2.76ZM112.81 10.01C112.09 10.01 111.51 9.83667 111.07 9.49C110.637 9.14333 110.42 8.7 110.42 8.16V8.04C110.42 7.94667 110.467 7.9 110.56 7.9H111.24C111.333 7.9 111.38 7.94667 111.38 8.04V8.13C111.38 8.43 111.513 8.69 111.78 8.91C112.047 9.13 112.39 9.24 112.81 9.24C113.223 9.24 113.553 9.13333 113.8 8.92C114.053 8.70667 114.18 8.43667 114.18 8.11C114.18 7.87667 114.11 7.68 113.97 7.52C113.83 7.36 113.657 7.23333 113.45 7.14C113.25 7.04667 112.967 6.94 112.6 6.82C112.16 6.66667 111.797 6.51667 111.51 6.37C111.217 6.22333 110.97 6.01667 110.77 5.75C110.57 5.48333 110.47 5.14333 110.47 4.73C110.47 4.13667 110.68 3.66333 111.1 3.31C111.52 2.96333 112.077 2.79 112.77 2.79C113.477 2.79 114.043 2.97 114.47 3.33C114.897 3.69667 115.11 4.16333 115.11 4.73V4.76C115.11 4.85333 115.063 4.9 114.97 4.9H114.32C114.227 4.9 114.18 4.85333 114.18 4.76V4.7C114.18 4.38667 114.053 4.12333 113.8 3.91C113.54 3.70333 113.197 3.6 112.77 3.6C112.37 3.6 112.043 3.7 111.79 3.9C111.543 4.1 111.42 4.36 111.42 4.68C111.42 5.00667 111.543 5.25333 111.79 5.42C112.043 5.58667 112.433 5.76333 112.96 5.95C113.42 6.09667 113.8 6.24667 114.1 6.4C114.4 6.54667 114.653 6.75333 114.86 7.02C115.073 7.28667 115.18 7.63 115.18 8.05C115.18 8.65 114.963 9.12667 114.53 9.48C114.103 9.83333 113.53 10.01 112.81 10.01ZM119.11 9.18C119.463 9.18 119.77 9.09 120.03 8.91C120.283 8.73 120.467 8.48667 120.58 8.18C120.607 8.09333 120.663 8.06 120.75 8.08L121.39 8.2C121.437 8.21333 121.467 8.23667 121.48 8.27C121.493 8.30333 121.497 8.33667 121.49 8.37C121.33 8.89667 121.04 9.30667 120.62 9.6C120.2 9.9 119.693 10.05 119.1 10.05C118.413 10.05 117.857 9.87 117.43 9.51C117.003 9.15 116.737 8.66333 116.63 8.05C116.597 7.81667 116.573 7.54 116.56 7.22C116.553 6.90667 116.55 6.64333 116.55 6.43C116.55 6.22333 116.55 6.07667 116.55 5.99C116.55 5.51667 116.567 5.13 116.6 4.83C116.68 4.20333 116.94 3.7 117.38 3.32C117.827 2.93333 118.383 2.74 119.05 2.74C119.77 2.74 120.353 2.94667 120.8 3.36C121.253 3.77333 121.507 4.31333 121.56 4.98C121.587 5.29333 121.6 5.86 121.6 6.68C121.6 6.77333 121.553 6.82 121.46 6.82H117.6C117.56 6.82 117.54 6.83667 117.54 6.87C117.54 7.16333 117.55 7.48667 117.57 7.84C117.617 8.24 117.777 8.56333 118.05 8.81C118.33 9.05667 118.683 9.18 119.11 9.18ZM119.07 3.61C118.65 3.61 118.307 3.73333 118.04 3.98C117.773 4.22667 117.617 4.55333 117.57 4.96C117.55 5.34667 117.54 5.67333 117.54 5.94C117.54 5.97333 117.56 5.99 117.6 5.99H120.55C120.59 5.99 120.61 5.97333 120.61 5.94C120.61 5.66667 120.59 5.34333 120.55 4.97C120.503 4.57 120.347 4.24333 120.08 3.99C119.813 3.73667 119.477 3.61 119.07 3.61ZM127.12 0.28C127.12 0.186667 127.167 0.14 127.26 0.14H127.97C128.063 0.14 128.11 0.186667 128.11 0.28V9.8C128.11 9.89333 128.063 9.94 127.97 9.94H127.26C127.167 9.94 127.12 9.89333 127.12 9.8V9.24C127.12 9.21333 127.113 9.2 127.1 9.2C127.087 9.2 127.07 9.21 127.05 9.23C126.703 9.77667 126.16 10.05 125.42 10.05C124.833 10.05 124.367 9.89333 124.02 9.58C123.667 9.26667 123.407 8.77 123.24 8.09C123.12 7.57667 123.06 7.03667 123.06 6.47C123.06 5.81667 123.11 5.26 123.21 4.8C123.35 4.1 123.61 3.58333 123.99 3.25C124.37 2.92333 124.87 2.76 125.49 2.76C125.883 2.76 126.203 2.82667 126.45 2.96C126.697 3.09333 126.897 3.29667 127.05 3.57C127.057 3.59667 127.07 3.60667 127.09 3.6C127.11 3.6 127.12 3.58667 127.12 3.56V0.28ZM126.88 8.16C127.02 7.74 127.09 7.15333 127.09 6.4C127.09 5.63333 127.017 5.03 126.87 4.59C126.757 4.27667 126.603 4.03333 126.41 3.86C126.217 3.69333 125.963 3.61 125.65 3.61C125.03 3.61 124.59 3.92667 124.33 4.56C124.157 5.02667 124.07 5.64 124.07 6.4C124.07 7.15333 124.143 7.73667 124.29 8.15C124.41 8.49667 124.577 8.75667 124.79 8.93C124.997 9.11 125.277 9.2 125.63 9.2C125.957 9.2 126.22 9.11 126.42 8.93C126.613 8.75667 126.767 8.5 126.88 8.16Z" fill="black"/>
</svg>
