<svg width="95.676" height="18.102" viewBox="0 0 95.676 18.102" xmlns="http://www.w3.org/2000/svg"><path transform="translate(0 13.972) scale(.014 -.014)" d="m40-3v25l20 2q39 4 57 12t23.5 30 5.5 67v444q0 45-5.5 67t-23.5 30-57 12l-20 2v25l148-3h122q132 0 203-41.5t71-118.5q0-62-41.5-107.5t-119.5-68.5l-3 7q100-4 153-50t53-129q0-95-69-148.5t-191-53.5h-178zm270 31h56q88 0 127 40.5t39 130.5q0 62-19 97t-65 49-128 14h-99v28h139q64 0 97.5 41t33.5 119q0 74-34 104.5t-117 30.5h-113v-553q0-55 18.5-78t64.5-23z"/><path transform="translate(9.604 13.972) scale(.014 -.014)" d="m405-11q-43 0-61.5 27t-18.5 88v216q0 59-22.5 84t-75.5 25q-36 0-57.5-9t-21.5-24q0-4 1.5-8.5t2.5-10.5q5-20 5-28 0-16-12.5-27.5t-32.5-11.5q-19 0-31 13.5t-12 34.5q0 28 22.5 49.5t62 34 90.5 12.5q79 0 115-37.5t36-120.5v-180q0-51 8-71.5t27-20.5q14 0 25.5 9.5t16.5 25.5l18-7q-18-63-85-63zm-242 0q-51 0-82 25t-31 65q0 38 31 72.5t99 71.5q30 17 67 33.5t82 32.5l1-19q-97-40-149.5-88t-52.5-95q0-29 17-45t48-16q28 0 55.5 14.5t49 38 30.5 51.5l6-33q-25-50-70.5-79t-100.5-29z"/><path transform="translate(16.464 13.972) scale(.014 -.014)" d="m211-11q-48 0-97 22-10 5-16.5 7.5t-10.5 2.5q-5 0-7.5-4t-5.5-17h-23l4 66 3 85h22l1-17q2-33 20.5-60t48.5-43.5 64-16.5q39 0 63.5 21t24.5 55q0 29-22.5 52t-72.5 43l-37 15q-55 22-79.5 51t-24.5 72q0 38 17 67.5t47.5 46.5 68.5 17q18 0 33-3.5t34-12.5q14-7 21-7 11 0 17 21l22-1-4-65v-70h-23q-7 53-34.5 83t-68.5 30q-34 0-56-20t-22-52q0-28 21-50t66-40l40-16q56-22 81.5-52.5t25.5-76.5q0-59-39.5-96t-101.5-37z"/><path transform="translate(21.966 13.972) scale(.014 -.014)" d="m15-3v23l16 2q33 4 48 11.5t19.5 27.5 4.5 60v485q0 45-18 63t-63 18h-7v23q52 0 88 2.5t70 9.5v-601q0-40 4.5-60t20-27.5 47.5-11.5l16-2v-23l-123 3zm509 0-111 3-201 226 45 54 182-204q26-30 41.5-41.5t27.5-12.5l16-2zm-356 149v38l153 183q13 18 13 28 0 15-24 18l-16 2v23l96-2 84 2v-23l-16-2q-39-5-70.5-24t-60.5-54z"/><path transform="translate(29.302 13.972) scale(.014 -.014)" d="m265-11q-65 0-115 28t-77.5 78-27.5 116q0 69 29.5 124t79.5 87 112 32q75 0 120-48t45-129q0-10-0.5-18.5t-2.5-13.5h-307l2 23h149q92 0 92 69 0 39-29 65.5t-72 26.5q-62 0-100-56t-38-148q0-95 41-150.5t112-55.5q48 0 84.5 27t55.5 78l24-9q-42-126-177-126z"/><path transform="translate(35.98 13.972) scale(.014 -.014)" d="m28-3v23l16 2q33 4 48 11.5t19.5 27.5 4.5 60v208q0 49-18.5 66.5t-69.5 17.5v23q40 0 77.5 3t80.5 9l-11-115h11v-212q0-40 4.5-60t20-27.5 47.5-11.5l16-2v-23l-123 3zm156 272-11 43q21 79 55 110.5t76 31.5q40 0 54-20t14-40q0-22-13-36t-36-14q-18 0-30 9.5t-12 24.5q0 5 1 9t2 11q1 4 1.5 7t0.5 5q0 10-14 10-18 0-35.5-20.5t-31.5-54.5-21-76z"/><path transform="translate(41.468 13.972) scale(.014 -.014)" d="m229 0-163 360q-11 26-25 37.5t-36 13.5l-18 2v23l103-3 102 3v-23l-16-2q-30-4-37.5-18t5.5-43l139-307h-25l129 303q14 32 6 46.5t-43 18.5l-17 2v23l90-3 84 3v-23l-23-3q-25-3-40.5-18.5t-32.5-55.5l-144-336z"/><path transform="translate(48.566 13.972) scale(.014 -.014)" d="m229 0-163 360q-11 26-25 37.5t-36 13.5l-18 2v23l103-3 102 3v-23l-16-2q-30-4-37.5-18t5.5-43l139-307h-25l129 303q14 32 6 46.5t-43 18.5l-17 2v23l90-3 84 3v-23l-23-3q-25-3-40.5-18.5t-32.5-55.5l-144-336z"/><path transform="translate(55.664 13.972) scale(.014 -.014)" d="m28-3v23l16 2q33 4 48 11.5t19.5 27.5 4.5 60v211q0 45-18 63t-63 18h-7v23q50 0 86.5 2.5t71.5 9.5v-327q0-40 4.5-60t20-27.5 47.5-11.5l16-2v-23l-123 3zm104 557q-26 0-41 18t-15 43q0 26 15 43.5t41 17.5q29 0 42.5-17.5t13.5-43.5q0-25-13.5-43t-42.5-18z"/><path transform="translate(59.64 13.972) scale(.014 -.014)" d="m15-3v23l16 2q33 4 48 11.5t19.5 27.5 4.5 60v485q0 45-18 63t-63 18h-7v23q50 0 86.5 2.5t71.5 9.5v-601q0-40 4.5-60t20-27.5 47.5-11.5l16-2v-23l-123 3z"/><path transform="translate(63.504 13.972) scale(.014 -.014)" d="m15-3v23l16 2q33 4 48 11.5t19.5 27.5 4.5 60v485q0 45-18 63t-63 18h-7v23q50 0 86.5 2.5t71.5 9.5v-601q0-40 4.5-60t20-27.5 47.5-11.5l16-2v-23l-123 3z"/><path transform="translate(67.368 13.972) scale(.014 -.014)" d="m265-11q-65 0-115 28t-77.5 78-27.5 116q0 69 29.5 124t79.5 87 112 32q75 0 120-48t45-129q0-10-0.5-18.5t-2.5-13.5h-307l2 23h149q92 0 92 69 0 39-29 65.5t-72 26.5q-62 0-100-56t-38-148q0-95 41-150.5t112-55.5q48 0 84.5 27t55.5 78l24-9q-42-126-177-126z"/><path transform="translate(77.742 13.972) scale(.014 -.014)" d="m309-11q-40 0-72.5 13t-58.5 26q-22 12-36.5 18t-25.5 6q-14 0-19.5-11.5t-8.5-25.5l-3-15h-25l5 118-3 129h25l11-47q11-44 39.5-86t72-69 99.5-27q31 0 59.5 13.5t47 41.5 18.5 73-19.5 77.5-56 58.5-88.5 50l-42 20q-75 36-111.5 79.5t-36.5 111.5q0 53 26 94t71.5 64 104.5 23q41 0 69-11t44-19q26-13 41-13 16 0 19 31h25l-3-96 2-97h-25q-6 56-31 95.5t-60.5 60.5-75.5 21q-59 0-95.5-34t-36.5-87q0-57 37-89.5t96-61.5l41-20q55-27 94.5-55.5t61-66.5 21.5-95q0-59-26.5-104t-71-69.5-99.5-24.5z"/><path transform="translate(85.596 13.972) scale(.014 -.014)" d="m386-11q-95 0-168.5 45.5t-114.5 127-41 187.5q0 81 25.5 149t71 119 107 79 134.5 28q37 0 78-9.5t78-27.5q17-8 26.5-11.5t14.5-3.5q10 0 17 10.5t8 27.5h25l-2-117 2-117h-25q-15 105-73 161.5t-151 56.5q-115 0-174.5-88t-59.5-257q0-330 227-330 97 0 159 58.5t75 161.5h24l-2-122 3-117h-24l-3 11q-12 36-29 36-5 0-12.5-3t-24.5-11q-46-23-86.5-33.5t-84.5-10.5z"/></svg>