<svg width="81" height="14" viewBox="0 0 81 14" fill="none" xmlns="http://www.w3.org/2000/svg">
<path d="M5.22 10.66H0.5V9.8L1.62 9.61V1.77L0.5 1.58V0.71H4.8C5.84 0.71 6.65 0.933333 7.23 1.38C7.81667 1.82667 8.11 2.5 8.11 3.4C8.11 3.84 7.97 4.23667 7.69 4.59C7.41 4.93667 7.04 5.19333 6.58 5.36C6.98667 5.44667 7.33 5.60667 7.61 5.84C8.21667 6.34 8.52 7.01 8.52 7.85C8.52 8.76333 8.22333 9.46 7.63 9.94C7.03667 10.42 6.23333 10.66 5.22 10.66ZM4.8 1.77H2.96V4.94H5.15C5.63 4.94 6.02 4.8 6.32 4.52C6.62 4.24 6.77 3.85667 6.77 3.37C6.77 2.83667 6.6 2.43667 6.26 2.17C5.92 1.90333 5.43333 1.77 4.8 1.77ZM5.43 5.99H2.96V9.61H5.22C5.83333 9.61 6.31 9.45667 6.65 9.15C6.99 8.85 7.16 8.42 7.16 7.86C7.16 7.47333 7.1 7.14 6.98 6.86C6.85333 6.58 6.66 6.36667 6.4 6.22C6.14 6.06667 5.81667 5.99 5.43 5.99ZM11.89 10.8C11.1167 10.8 10.53 10.6133 10.13 10.24C9.73 9.86667 9.53 9.33667 9.53 8.65C9.53 8.17667 9.66 7.76667 9.92 7.42C10.1733 7.06667 10.5433 6.79667 11.03 6.61C11.5167 6.41667 12.1 6.32 12.78 6.32H14.1V5.59C14.1 5.14333 13.9633 4.8 13.69 4.56C13.4233 4.31333 13.0433 4.19 12.55 4.19C12.2367 4.19 11.9667 4.22667 11.74 4.3C11.5133 4.37333 11.3067 4.47667 11.12 4.61L10.98 5.64H9.94V3.95C10.6067 3.40333 11.4833 3.13 12.57 3.13C13.47 3.13 14.1733 3.34333 14.68 3.77C15.1933 4.19667 15.45 4.81 15.45 5.61V9.17C15.45 9.26333 15.45 9.35667 15.45 9.45C15.45 9.54333 15.4567 9.63333 15.47 9.72L16.19 9.8V10.66H14.25C14.17 10.2867 14.1233 9.94667 14.11 9.64C13.85 9.97333 13.5233 10.25 13.13 10.47C12.7433 10.69 12.33 10.8 11.89 10.8ZM12.08 9.68C12.5267 9.68 12.9367 9.57 13.31 9.35C13.6767 9.13667 13.94 8.88 14.1 8.58V7.24H12.73C12.11 7.24 11.6467 7.39 11.34 7.69C11.0267 7.98333 10.87 8.31333 10.87 8.68C10.87 9.34667 11.2733 9.68 12.08 9.68ZM19.84 10.78C19.2933 10.78 18.86 10.6167 18.54 10.29C18.22 9.97 18.06 9.45667 18.06 8.75V4.26H16.89V3.26H18.06V1.48H19.41V3.26H21.01V4.26H19.41V8.75C19.41 9.11 19.48 9.37333 19.62 9.54C19.76 9.70667 19.9467 9.79 20.18 9.79C20.34 9.79 20.52 9.77667 20.72 9.75C20.9133 9.71667 21.0667 9.69 21.18 9.67L21.36 10.55C21.1667 10.61 20.9267 10.6633 20.64 10.71C20.3533 10.7567 20.0867 10.78 19.84 10.78ZM24.83 10.78C24.2833 10.78 23.85 10.6167 23.53 10.29C23.21 9.97 23.05 9.45667 23.05 8.75V4.26H21.88V3.26H23.05V1.48H24.4V3.26H26V4.26H24.4V8.75C24.4 9.11 24.47 9.37333 24.61 9.54C24.75 9.70667 24.9367 9.79 25.17 9.79C25.33 9.79 25.51 9.77667 25.71 9.75C25.9033 9.71667 26.0567 9.69 26.17 9.67L26.35 10.55C26.1567 10.61 25.9167 10.6633 25.63 10.71C25.3433 10.7567 25.0767 10.78 24.83 10.78ZM29.6 10.8C28.8333 10.8 28.25 10.6133 27.85 10.24C27.45 9.86667 27.25 9.33667 27.25 8.65C27.25 8.17667 27.38 7.76667 27.64 7.42C27.8933 7.06667 28.2633 6.79667 28.75 6.61C29.2367 6.41667 29.82 6.32 30.5 6.32H31.82V5.59C31.82 5.14333 31.6833 4.8 31.41 4.56C31.1433 4.31333 30.7633 4.19 30.27 4.19C29.9567 4.19 29.6867 4.22667 29.46 4.3C29.2333 4.37333 29.0267 4.47667 28.84 4.61L28.7 5.64H27.66V3.95C28.3267 3.40333 29.2033 3.13 30.29 3.13C31.1833 3.13 31.8867 3.34333 32.4 3.77C32.9133 4.19667 33.17 4.81 33.17 5.61V9.17C33.17 9.26333 33.17 9.35667 33.17 9.45C33.17 9.54333 33.1767 9.63333 33.19 9.72L33.9 9.8V10.66H31.97C31.89 10.2867 31.8433 9.94667 31.83 9.64C31.57 9.97333 31.2433 10.25 30.85 10.47C30.4633 10.69 30.0467 10.8 29.6 10.8ZM29.8 9.68C30.2467 9.68 30.6567 9.57 31.03 9.35C31.3967 9.13667 31.66 8.88 31.82 8.58V7.24H30.45C29.83 7.24 29.3667 7.39 29.06 7.69C28.7467 7.98333 28.59 8.31333 28.59 8.68C28.59 9.34667 28.9933 9.68 29.8 9.68ZM37.41 5.18V9.61L38.53 9.8V10.66H34.95V9.8L36.06 9.61V4.32L34.95 4.13V3.26H37.27L37.36 4.23C37.6 3.87667 37.9067 3.60333 38.28 3.41C38.6533 3.22333 39.0867 3.13 39.58 3.13C40.0733 3.13 40.4967 3.24333 40.85 3.47C41.2033 3.69667 41.4667 4.03667 41.64 4.49C41.8733 4.07667 42.1833 3.74667 42.57 3.5C42.95 3.25333 43.3967 3.13 43.91 3.13C44.6633 3.13 45.26 3.38667 45.7 3.9C46.1333 4.42 46.35 5.2 46.35 6.24V9.61L47.47 9.8V10.66H43.88V9.8L45 9.61V6.22C45 5.49333 44.8733 4.98 44.62 4.68C44.3733 4.37333 44.0033 4.22 43.51 4.22C43.0367 4.22 42.66 4.38667 42.38 4.72C42.0933 5.04667 41.9267 5.46 41.88 5.96V9.61L43 9.8V10.66H39.42V9.8L40.53 9.61V6.22C40.53 5.52667 40.4033 5.02 40.15 4.7C39.89 4.38 39.5167 4.22 39.03 4.22C38.6233 4.22 38.2867 4.30333 38.02 4.47C37.7533 4.64333 37.55 4.88 37.41 5.18ZM52.4 10.8C51.4467 10.8 50.73 10.4367 50.25 9.71L50.13 10.66H48.96V1.06L47.85 0.86V0H50.31V4.14C50.5433 3.81333 50.8333 3.56333 51.18 3.39C51.52 3.21667 51.92 3.13 52.38 3.13C52.9933 3.13 53.5167 3.29333 53.95 3.62C54.3833 3.95333 54.7133 4.41667 54.94 5.01C55.1667 5.61 55.28 6.30667 55.28 7.1V7.24C55.28 7.94667 55.1667 8.57 54.94 9.11C54.7067 9.64333 54.3733 10.06 53.94 10.36C53.5133 10.6533 53 10.8 52.4 10.8ZM52.05 9.71C52.6833 9.71 53.1567 9.48333 53.47 9.03C53.7767 8.58333 53.93 7.98667 53.93 7.24V7.1C53.93 6.52667 53.86 6.02333 53.72 5.59C53.5867 5.16333 53.38 4.82667 53.1 4.58C52.82 4.34 52.4667 4.22 52.04 4.22C51.6267 4.22 51.2767 4.32 50.99 4.52C50.7033 4.72 50.4767 4.99 50.31 5.33V8.6C50.4767 8.94 50.7067 9.21 51 9.41C51.2867 9.61 51.6367 9.71 52.05 9.71ZM58.68 10.8C57.9133 10.8 57.33 10.6133 56.93 10.24C56.53 9.86667 56.33 9.33667 56.33 8.65C56.33 8.17667 56.46 7.76667 56.72 7.42C56.9733 7.06667 57.3433 6.79667 57.83 6.61C58.3167 6.41667 58.9 6.32 59.58 6.32H60.9V5.59C60.9 5.14333 60.7633 4.8 60.49 4.56C60.2233 4.31333 59.8433 4.19 59.35 4.19C59.0367 4.19 58.7667 4.22667 58.54 4.3C58.3133 4.37333 58.1067 4.47667 57.92 4.61L57.78 5.64H56.74V3.95C57.4067 3.40333 58.2833 3.13 59.37 3.13C60.2633 3.13 60.9667 3.34333 61.48 3.77C61.9933 4.19667 62.25 4.81 62.25 5.61V9.17C62.25 9.26333 62.25 9.35667 62.25 9.45C62.25 9.54333 62.2567 9.63333 62.27 9.72L62.98 9.8V10.66H61.05C60.97 10.2867 60.9233 9.94667 60.91 9.64C60.65 9.97333 60.3233 10.25 59.93 10.47C59.5433 10.69 59.1267 10.8 58.68 10.8ZM58.88 9.68C59.3267 9.68 59.7367 9.57 60.11 9.35C60.4767 9.13667 60.74 8.88 60.9 8.58V7.24H59.53C58.91 7.24 58.4467 7.39 58.14 7.69C57.8267 7.98333 57.67 8.31333 57.67 8.68C57.67 9.34667 58.0733 9.68 58.88 9.68ZM66.49 5.27V9.61L67.61 9.8V10.66H64.03V9.8L65.14 9.61V4.32L64.03 4.13V3.26H66.35L66.44 4.36C66.6867 3.97333 66.9967 3.67 67.37 3.45C67.7433 3.23667 68.1667 3.13 68.64 3.13C69.4333 3.13 70.05 3.36333 70.49 3.83C70.93 4.29667 71.15 5.01667 71.15 5.99V9.61L72.26 9.8V10.66H68.69V9.8L69.8 9.61V6.02C69.8 5.36667 69.67 4.90333 69.41 4.63C69.1567 4.35667 68.7633 4.22 68.23 4.22C67.8433 4.22 67.5033 4.31333 67.21 4.5C66.91 4.68667 66.67 4.94333 66.49 5.27ZM78.4 3.26H80.45V4.12L79.53 4.32V10.56C79.53 11.2067 79.4133 11.7567 79.18 12.21C78.94 12.67 78.59 13.0233 78.13 13.27C77.67 13.5233 77.1133 13.65 76.46 13.65C76.1 13.65 75.7133 13.6 75.3 13.5C74.8867 13.4 74.5233 13.2667 74.21 13.1L74.56 12.05C74.8067 12.1833 75.1033 12.2933 75.45 12.38C75.79 12.4667 76.12 12.51 76.44 12.51C77.0467 12.51 77.49 12.3433 77.77 12.01C78.05 11.67 78.19 11.1867 78.19 10.56V9.86C77.6967 10.4867 77.02 10.8 76.16 10.8C75.5533 10.8 75.0333 10.65 74.6 10.35C74.16 10.0567 73.8233 9.64 73.59 9.1C73.3567 8.56667 73.24 7.94667 73.24 7.24V7.1C73.24 6.3 73.3567 5.60333 73.59 5.01C73.8233 4.41667 74.16 3.95333 74.6 3.62C75.0333 3.29333 75.5567 3.13 76.17 3.13C77.0833 3.13 77.7867 3.48333 78.28 4.19L78.4 3.26ZM78.19 8.65V5.25C78.0167 4.93 77.79 4.68 77.51 4.5C77.23 4.31333 76.8967 4.22 76.51 4.22C76.0767 4.22 75.72 4.34333 75.44 4.59C75.1533 4.83667 74.94 5.17333 74.8 5.6C74.6533 6.03333 74.58 6.53333 74.58 7.1V7.24C74.58 7.98667 74.74 8.58333 75.06 9.03C75.3733 9.48333 75.85 9.71 76.49 9.71C76.8967 9.71 77.2367 9.61667 77.51 9.43C77.7833 9.25 78.01 8.99 78.19 8.65Z" fill="black"/>
</svg>
