<svg width="53" height="10" viewBox="0 0 53 10" fill="none" xmlns="http://www.w3.org/2000/svg">
<path d="M1.8 3.29V9.94H0.5V3.26C0.5 2.3 0.81 1.51667 1.43 0.91C2.05 0.303333 2.81667 0 3.73 0C4.74333 0 5.50333 0.253334 6.01 0.76C6.51667 1.27333 6.77 1.89667 6.77 2.63C6.77 3.57667 6.33333 4.25333 5.46 4.66V4.72C6.66 5.06667 7.26 5.9 7.26 7.22C7.26 9.03333 6.19333 9.94 4.06 9.94H2.31V8.71H4.04C4.68667 8.71 5.16 8.58 5.46 8.32C5.75333 8.05333 5.9 7.63333 5.9 7.06C5.9 6.55333 5.74 6.16333 5.42 5.89C5.1 5.62333 4.66333 5.49 4.11 5.49H2.73V4.33H3.62C4.12667 4.33 4.56 4.19 4.92 3.91C5.28 3.63667 5.46 3.26667 5.46 2.8C5.46 2.35333 5.32 1.98 5.04 1.68C4.76667 1.38 4.32333 1.23 3.71 1.23C3.15 1.23 2.69 1.40667 2.33 1.76C1.97667 2.10667 1.8 2.61667 1.8 3.29ZM12.47 5.99V7.25C12.1167 6.98333 11.6833 6.85 11.17 6.85C10.73 6.85 10.39 6.93333 10.15 7.1C9.90333 7.27333 9.78 7.52 9.78 7.84C9.78 8.45333 10.2367 8.76 11.15 8.76H13V6.09C13 4.96333 12.45 4.4 11.35 4.4H9.11V3.22H11.42C12.3267 3.22 13.0233 3.44333 13.51 3.89C13.99 4.33667 14.23 4.98 14.23 5.82V9.94H11.11C10.3167 9.94 9.68667 9.76333 9.22 9.41C8.75333 9.05667 8.52 8.53667 8.52 7.85C8.52 7.17 8.76667 6.65333 9.26 6.3C9.76 5.94667 10.3833 5.77 11.13 5.77C11.55 5.77 11.9967 5.84333 12.47 5.99ZM21.35 3.22V9.94H18.92C17.8867 9.94 17.1467 9.78667 16.7 9.48C16.3 9.20667 16.0433 8.88 15.93 8.5C15.8233 8.12667 15.77 7.63 15.77 7.01V3.22H17.01V7C17.01 7.16667 17.0133 7.31 17.02 7.43C17.0267 7.54333 17.06 7.69333 17.12 7.88C17.1733 8.06 17.2533 8.20667 17.36 8.32C17.46 8.44 17.6067 8.54333 17.8 8.63C18 8.71667 18.24 8.76 18.52 8.76H20.11V3.22H21.35ZM23.17 9.94V3.22H29.34C30 3.22 30.5267 3.34667 30.92 3.6C31.32 3.85333 31.5833 4.18 31.71 4.58C31.8367 4.98 31.9 5.46 31.9 6.02V9.94H30.67V6.02C30.67 5.29333 30.45 4.81333 30.01 4.58C29.79 4.46 29.3367 4.4 28.65 4.4H28.08V9.94H26.85V4.4H24.4V9.94H23.17ZM37.32 5.99V7.25C36.9667 6.98333 36.5333 6.85 36.02 6.85C35.58 6.85 35.24 6.93333 35 7.1C34.7533 7.27333 34.63 7.52 34.63 7.84C34.63 8.45333 35.0867 8.76 36 8.76H37.85V6.09C37.85 4.96333 37.3 4.4 36.2 4.4H33.96V3.22H36.27C37.1767 3.22 37.8733 3.44333 38.36 3.89C38.84 4.33667 39.08 4.98 39.08 5.82V9.94H35.96C35.1667 9.94 34.5367 9.76333 34.07 9.41C33.6033 9.05667 33.37 8.53667 33.37 7.85C33.37 7.17 33.6167 6.65333 34.11 6.3C34.61 5.94667 35.2333 5.77 35.98 5.77C36.4 5.77 36.8467 5.84333 37.32 5.99ZM40.69 9.94V3.22H43.12C44.1533 3.22 44.8933 3.37333 45.34 3.68C45.74 3.95333 45.9967 4.27667 46.11 4.65C46.2167 5.03 46.27 5.53 46.27 6.15V9.94H45.03V6.16C45.03 5.99333 45.0267 5.85 45.02 5.73C45.0133 5.61667 44.98 5.46667 44.92 5.28C44.8667 5.1 44.7867 4.95333 44.68 4.84C44.58 4.72 44.4333 4.61667 44.24 4.53C44.04 4.44333 43.8 4.4 43.52 4.4H41.93V9.94H40.69ZM50.13 3.22H52.61V4.4H50.13C49.8567 4.4 49.6233 4.45 49.43 4.55C49.2367 4.65 49.14 4.79333 49.14 4.98C49.14 5.09333 49.1633 5.19333 49.21 5.28C49.2567 5.37333 49.31 5.44667 49.37 5.5C49.43 5.56 49.5233 5.62 49.65 5.68C49.7767 5.74 49.8733 5.78 49.94 5.8C50.0133 5.82667 50.31 5.92333 50.83 6.09C51.35 6.25667 51.7367 6.39667 51.99 6.51C52.2433 6.62333 52.4367 6.77667 52.57 6.97C52.71 7.15667 52.7967 7.34333 52.83 7.53C52.87 7.71 52.89 7.88667 52.89 8.06C52.89 9.31333 52.03 9.94 50.31 9.94H47.89V8.76H50.31C51.19 8.76 51.63 8.52667 51.63 8.06C51.63 7.84 51.5 7.65333 51.24 7.5C50.9867 7.35333 50.6767 7.23 50.31 7.13C49.9367 7.02333 49.5667 6.90333 49.2 6.77C48.8333 6.63667 48.52 6.41667 48.26 6.11C48.0067 5.81 47.88 5.43333 47.88 4.98C47.88 4.41333 48.0967 3.97667 48.53 3.67C48.97 3.37 49.5033 3.22 50.13 3.22Z" fill="black"/>
</svg>
