<svg width="30" height="11" viewBox="0 0 30 11" fill="none" xmlns="http://www.w3.org/2000/svg">
<path d="M3.07 9.9H0.56C0.52 9.9 0.5 9.87667 0.5 9.83L0.53 0.21C0.53 0.176667 0.55 0.16 0.59 0.16H3.28C3.80667 0.16 4.28333 0.286667 4.71 0.54C5.13 0.793333 5.46 1.13333 5.7 1.56C5.94 1.98 6.06 2.43667 6.06 2.93C6.06 3.33 5.97 3.70333 5.79 4.05C5.60333 4.39667 5.38667 4.67667 5.14 4.89C5.40667 5.15667 5.61667 5.47 5.77 5.83C5.91667 6.18333 5.99 6.55667 5.99 6.95C5.99 7.49 5.86 7.98333 5.6 8.43C5.34 8.87667 4.98667 9.23333 4.54 9.5C4.1 9.76667 3.61 9.9 3.07 9.9ZM3.28 1.82H2.21V4.02H3.28C3.6 4.02 3.86333 3.90667 4.07 3.68C4.27 3.44667 4.37 3.19667 4.37 2.93C4.37 2.63 4.26 2.37 4.04 2.15C3.82667 1.93 3.57333 1.82 3.28 1.82ZM3.07 5.72H2.21L2.2 8.19H3.07C3.40333 8.19 3.69333 8.06667 3.94 7.82C4.18 7.57333 4.3 7.28333 4.3 6.95C4.3 6.61 4.18 6.32 3.94 6.08C3.69333 5.84 3.40333 5.72 3.07 5.72ZM6.53 9.83L8.26 0.21C8.27333 0.176667 8.29667 0.16 8.33 0.16H10.36C10.4 0.16 10.4233 0.176667 10.43 0.21L12.1 9.83C12.1 9.87667 12.08 9.9 12.04 9.9H10.49C10.4433 9.9 10.42 9.87667 10.42 9.83L10.27 8.81H8.36L8.21 9.83C8.20333 9.87667 8.18 9.9 8.14 9.9H6.58C6.54667 9.9 6.53 9.87667 6.53 9.83ZM9.99 7.31L9.41 3.38L9.33 2.86L9.27 3.38L8.64 7.31H9.99ZM15.61 9.9H14C13.9733 9.9 13.96 9.88333 13.96 9.85L13.97 5.87L12.1 0.21C12.0867 0.176667 12.1 0.16 12.14 0.16H13.7C13.7467 0.16 13.7733 0.176667 13.78 0.21L14.81 3.98L15.86 0.21C15.8733 0.176667 15.8967 0.16 15.93 0.16H17.5C17.54 0.16 17.5567 0.176667 17.55 0.21L15.65 5.81L15.67 9.85C15.67 9.88333 15.65 9.9 15.61 9.9ZM20.9 10.04C20.4 10.04 19.94 9.91 19.52 9.65C19.1067 9.39667 18.7733 9.05667 18.52 8.63C18.2667 8.20333 18.14 7.73667 18.14 7.23L18.15 2.79C18.15 2.27 18.2767 1.80333 18.53 1.39C18.7767 0.97 19.11 0.633333 19.53 0.38C19.95 0.126667 20.4067 0 20.9 0C21.4067 0 21.8633 0.126667 22.27 0.38C22.6767 0.626667 23.0067 0.963333 23.26 1.39C23.5067 1.81 23.63 2.27667 23.63 2.79L23.64 7.23C23.64 7.73667 23.5167 8.20333 23.27 8.63C23.0233 9.05667 22.6933 9.39667 22.28 9.65C21.86 9.91 21.4 10.04 20.9 10.04ZM20.9 8.35C21.18 8.35 21.4233 8.23333 21.63 8C21.8433 7.77333 21.95 7.51667 21.95 7.23L21.93 2.79C21.93 2.48333 21.8333 2.22 21.64 2C21.4467 1.78667 21.2 1.68 20.9 1.68C20.6067 1.68 20.36 1.78667 20.16 2C19.9533 2.20667 19.85 2.47 19.85 2.79V7.23C19.85 7.53667 19.9533 7.8 20.16 8.02C20.36 8.24 20.6067 8.35 20.9 8.35ZM26.22 9.9H24.82C24.7467 9.9 24.71 9.86667 24.71 9.8L24.7 0.27C24.7 0.196667 24.7367 0.16 24.81 0.16H26.07L28.44 5.68L28.37 0.27C28.37 0.196667 28.41 0.16 28.49 0.16H29.88C29.9333 0.16 29.96 0.196667 29.96 0.27L29.97 9.82C29.97 9.87333 29.95 9.9 29.91 9.9H28.67L26.25 4.75L26.35 9.79C26.35 9.86333 26.3067 9.9 26.22 9.9Z" fill="black"/>
</svg>
