<svg width="58.016" height="18.76" viewBox="0 0 58.016 18.76" xmlns="http://www.w3.org/2000/svg"><path transform="translate(0 13.16) scale(.014 -.014)" d="m414-47q-47 0-92 6-2 0-2 2 0 5 9.5 16t21 20.5 16.5 9.5q8 0 17.5-1.5t18.5-2.5q20-2 41-3.5t42-1.5q35 0 72.5 6.5t65.5 28.5q24 20 48.5 49t24.5 62q0 34-24.5 57t-61.5 36.5-74 19-63 5.5q-16 0-31-2t-31-4h-2q-4 0-4 4 0 5 6.5 14.5t15 17.5 12.5 8q38 0 80.5 9t83.5 25 72 36q24 15 55.5 39t54.5 53.5 23 61.5q0 33-24.5 56.5t-60.5 39.5-72.5 25.5-61.5 13.5q-34 5-67.5 7.5t-68.5 2.5q-41 0-92-5.5t-103.5-18-99.5-34.5-81-55.5-46-80.5q-3-13-3-27 0-25 10-46.5t35-30.5h3q8 0 15.5 1.5t14.5 1.5q1 0 4-0.5t3-2.5q0-7-11-10.5t-16-3.5q-17 0-29 8t-19 8q-1 0-2-0.5t-1-0.5q-2-2-3-5t-5-3q-6 0-11 10.5t-8 23.5-3 18q0 21 5 44 13 57 49.5 99.5t88.5 72.5 111 48 118.5 26.5 110.5 8.5q73 0 143-15 30-6 67-19t71-33 56.5-48.5 22.5-65.5q0-39-25-72.5t-59.5-59.5-64.5-44q-10-6-28.5-16.5t-40.5-22-40.5-19-28.5-7.5q29-1 61.5-8t61-22 46.5-39.5 18-60.5q0-33-17.5-60.5t-43.5-47.5q-65-49-128-75.5t-146-26.5zm-405-86q-11 0-26 1t-24 6q-4 3-15 9.5t-11 12.5q0 7 5.5 6.5t5.5 7.5-3 16-3 16q0 9 5 24.5t16 15.5q3 0 3-3 0-10-5.5-19t-5.5-18q0-14 11.5-27t28-21.5 29.5-8.5q5 0 11 0t11 1q51 7 96 49.5t83.5 108 71 142 59 152.5 46.5 141 33 105q5 16 11 25.5t19 19.5q18 14 42 20.5t46 6.5q2 0 6.5-1t4.5-4q0-4-7-5.5t-9-1.5q-14 0-30-23t-32-58-30-72.5-24-67.5-14-41q-13-37-26-73.5t-27-72.5q-15-42-32-83.5t-39-80.5q-31-56-65.5-102.5t-82-74-119.5-28.5z"/><path transform="translate(10.808 13.16) scale(.014 -.014)" d="m62-4q-58 0-58 59 0 44 18 94.5t47 97 61 75.5q38 33 89 33 12 0 29.5-3t30.5-11.5 13-24.5q0-23-17-52.5t-31-47.5q5-1 12.5-3t7.5-8q0-3-5-3-9 0-18 2t-18 2q-34 0-69.5-10t-67.5-21q-10-24-17.5-53t-7.5-55q0-19 7.5-34t29.5-15q27 0 55.5 15.5t55 40 47.5 51.5 33 49q1-1 1-4 0-9-11-24.5t-22.5-30.5-13.5-22q-1-7-3.5-12t-5.5-11q-17-17-48.5-34.5t-65-28.5-58.5-11zm38 211q26 5 51.5 8t51.5 3q8 0 16 0t16-1q8 17 13.5 37t5.5 39q0 15-6 30.5t-26 15.5q-19 0-38.5-16t-31.5-29q-16-19-28.5-41.5t-23.5-45.5z"/><path transform="translate(14.812 13.16) scale(.014 -.014)" d="m29-2q-16 0-20.5 12.5t-4.5 25.5q0 47 18 101t47 103.5 63 81.5q36 33 85 33 20 0 39.5-4.5t38.5-12.5q17 12 37 21t41 9q5 0 8-6v-3q0-3-2.5-2.5t-4.5 0.5q-16 0-35-24.5t-38-62.5-34.5-80-25-77-9.5-53q0-7 2.5-16t11.5-9q5 0 8.5 2t7.5 4q22 13 43.5 35.5t40 49 30.5 48.5q1-1 1-4 0-6-7-17.5t-16-24.5-16.5-23-7.5-12q-1-7-3-11.5t-6-11.5q-13-13-33-30t-41.5-29.5-41.5-12.5q-31 0-31 33 0 20 8.5 46.5t20 53 20.5 44.5q0 1 0 3t-1 2-3-2q-12-16-35-46t-50.5-60.5-55.5-52-49-21.5zm44 43q11 0 27.5 14.5t35 35 33 39.5 20.5 28q12 18 27.5 45t27 56 11.5 49q0 31-31 31-18 0-38-16t-32-29q-13-16-29.5-46t-30.5-65-23.5-67-9.5-53q0-6 2-14t10-8z"/><path transform="translate(19.446 13.16) scale(.014 -.014)" d="m202-3q-18 0-24 10.5t-6 26.5q0 26 8.5 58.5t15.5 57.5q-26-40-60-79t-78-62q-7-4-16-7.5t-17-3.5q-14 0-18.5 10t-4.5 21v4q0 16 6 32.5t11 31.5q8 23 19.5 57.5t21 69.5 9.5 57q0 9-2.5 17t-13.5 9q0 0-1.5 0t-1.5 1q0 3 10.5 6.5t25.5 7.5 28 6.5 17 2.5q2 0 7.5-1t5.5-6q0-2-1-3-10-24-23-57t-25.5-69.5-20.5-71-8-61.5q0-5 2-10t8-5q11 0 27.5 13t23.5 20q37 39 67 95t46 107q5 15 10 21.5t18 16.5q16 11 35.5 20t39.5 9q2 0 5-2.5t3-5.5q0-2-2.5-2.5t-4.5-0.5q-13 0-27-16t-27-41-23.5-52-18-49.5-10.5-33.5q-4-19-8.5-38t-4.5-39q0-8 2.5-20.5t14.5-12.5q7 0 14 5 22 13 42 35.5t37 49 27 48.5q2-1 2-4 0-8-10.5-25.5t-21-33-11.5-18.5q-1-7-2.5-11.5t-4.5-11.5q-12-13-31.5-30t-40.5-30-40-13z"/><path transform="translate(26.572 13.16) scale(.014 -.014)" d="m126-133q-11 0-26 1t-24 6q-4 3-15 9.5t-11 12.5q0 7 5.5 6.5t5.5 7.5-3 16-3 16q0 9 5 24.5t16 15.5q3 0 3-3 0-8-5.5-19t-5.5-18q0-14 11.5-27t28-21.5 29.5-8.5q5 0 11 0t11 1q45 6 85 40.5t74 85.5 62 108.5 49 111 34 91.5q-2 5-7.5 18.5t-5.5 17.5q0 11 12.5 16t20.5 6q17 51 32.5 102t32.5 101q5 16 11 25.5t19 19.5q18 14 42 20.5t46 6.5q2 0 6.5-1t4.5-4q0-4-7-5.5t-9-1.5q-14 0-31.5-26t-35-65.5-33-81.5-26.5-75-15-45q5-15 11.5-30t13.5-29q2 2 5.5 5t6.5 3q38 0 80.5 9t83.5 25 72 36q24 15 55.5 39t54.5 53.5 23 61.5q0 33-24.5 56.5t-60.5 39.5-72.5 25.5-61.5 13.5q-34 5-67.5 7.5t-67.5 2.5q-41 0-92-5.5t-104-18-100-34.5-81-55.5-46-80.5q-3-13-3-27 0-25 10-46.5t35-30.5h3q8 0 15.5 1.5t14.5 1.5q1 0 4-0.5t3-2.5q0-7-11-10.5t-16-3.5q-17 0-29 8t-19 8q-1 0-2-0.5t-1-0.5q-2-2-3-5t-5-3q-6 0-11 10.5t-8 23.5-3 18q0 21 5 44 13 57 49.5 100t88.5 72.5 111 47.5 118.5 26.5 110.5 8.5q73 0 143-15 30-6 67-19t71-33 56.5-48.5 22.5-65.5q0-41-30.5-79.5t-79-72-104-60-106.5-43-85-20.5q11-21 30-52.5t43.5-66 52.5-64.5 57-49 56-19q24 0 39 14t24.5 34.5 14.5 39.5q2 8 3.5 17t3.5 16h2q2 0 2-5 1-4 1-10 0-10-3-21-3-15-4-30t-6-29q-11-31-33.5-49.5t-56.5-18.5q-40 0-77 21t-70.5 54.5-62 74-51 80-37.5 70.5q-17-49-36.5-98.5t-45.5-95.5q-32-56-66-103t-81-74.5-120-27.5z"/><path transform="translate(39.186 13.16) scale(.014 -.014)" d="m197 430q-8 0-24.5 6.5t-16.5 16.5q0 1 0.5 1.5t0.5 1.5q5 10 22.5 12t26.5 6q20 8 39 13t36 18q4-2 4-4 0-4-8.5-11t-11.5-12q-4-6-17.5-17.5t-28.5-21-22-9.5zm-169-433q-16 0-22 8t-6 23q0 33 13.5 80t30.5 95.5 27 86.5q4 14 19.5 19.5t26.5 13.5q16 11 34 18.5t38 7.5q5 0 6.5-2t1.5-3q0-6-7-6-14 0-29-16.5t-30-42.5-27-54-21-51.5-12-34.5q-5-16-10-37.5t-5-39.5q0-7 2-16.5t12-9.5q7 0 15 5 22 13 43.5 35.5t40 49 29.5 48.5q2-1 2-4 0-6-7-17.5t-16-24.5-16.5-23-7.5-12q-1-8-3-11.5t-6-11.5q-12-12-32-29.5t-42-30.5-42-13z"/><path transform="translate(41.3 13.16) scale(.014 -.014)" d="m45-1q-16 0-22.5 10t-7 24-0.5 26q0 19 3.5 55.5t10.5 77 18.5 74 27.5 45.5 40.5 18.5 43.5 6.5q2 0 5-2t4-4v-3q-1-3-2.5-2.5t-3.5 0.5q-19 0-35-19t-28-46-19.5-53-10.5-40q-4-19-6-39t-2-40q0-10 2.5-25.5t16.5-15.5 31.5 15 27.5 25q45 48 73 106t48 119q3 9 7 16t13 12q4 2 11 5.5t11 3.5q6 0 6-8 0-11-9.5-31t-14.5-30q-11-20-30-54.5t-44-73.5-53-73.5-57-57-55-22.5z"/><path transform="translate(44.968 13.16) scale(.014 -.014)" d="m29-2q-16 0-20.5 12.5t-4.5 25.5q0 47 18 101t47 103.5 63 81.5q36 33 85 33 20 0 39.5-4.5t38.5-12.5q17 12 37 21t41 9q5 0 8-6v-3q0-3-2.5-2.5t-4.5 0.5q-16 0-35-24.5t-38-62.5-34.5-80-25-77-9.5-53q0-7 2.5-16t11.5-9q5 0 8.5 2t7.5 4q22 13 43.5 35.5t40 49 30.5 48.5q1-1 1-4 0-6-7-17.5t-16-24.5-16.5-23-7.5-12q-1-7-3-11.5t-6-11.5q-13-13-33-30t-41.5-29.5-41.5-12.5q-31 0-31 33 0 20 8.5 46.5t20 53 20.5 44.5q0 1 0 3t-1 2-3-2q-12-16-35-46t-50.5-60.5-55.5-52-49-21.5zm44 43q11 0 27.5 14.5t35 35 33 39.5 20.5 28q12 18 27.5 45t27 56 11.5 49q0 31-31 31-18 0-38-16t-32-29q-13-16-29.5-46t-30.5-65-23.5-67-9.5-53q0-6 2-14t10-8z"/><path transform="translate(49.602 13.16) scale(.014 -.014)" d="m-110-278q-6 0-23 5t-31.5 13-14.5 16q0 2 4 2 6-2 9-2 1 0 5 2-4 6-4 12 0 5 3 6-2 6-5 11.5t-6 11.5q-2 4-9 12.5t-7 12.5q0 3 2 9 21-29 36-46t36-24.5 59-7.5q44 0 82.5 32t70 82.5 56 108.5 42 111.5 26.5 88.5q-12-16-35-46t-51-60.5-55.5-52-48.5-21.5q-16 0-20.5 12.5t-4.5 25.5q0 46 18 100.5t47 104.5 63 81q38 33 85 33 20 0 39.5-4.5t38.5-12.5q17 12 37 21t41 9q5 0 8-6v-3q-1-3-3-2.5t-4 0.5q-19 0-35.5-21t-29.5-51.5-22-58.5-13-42q-22-79-54.5-160.5t-84.5-147.5q-12-15-25-29.5t-27-28.5q-39-40-88-68t-107-28zm185 319q11 0 27.5 14.5t35 35 33 39.5 20.5 28q12 18 27.5 45t27 56 11.5 49q0 31-31 31-18 0-38-16t-32-29q-13-16-29.5-46t-30.5-65-23.5-67-9.5-53q0-6 2.5-14t9.5-8z"/><path transform="translate(54.012 13.16) scale(.014 -.014)" d="m62-4q-58 0-58 59 0 44 18 94.5t47 97 61 75.5q38 33 89 33 12 0 29.5-3t30.5-11.5 13-24.5q0-23-17-52.5t-31-47.5q5-1 12.5-3t7.5-8q0-3-5-3-9 0-18 2t-18 2q-34 0-69.5-10t-67.5-21q-10-24-17.5-53t-7.5-55q0-19 7.5-34t29.5-15q27 0 55.5 15.5t55 40 47.5 51.5 33 49q1-1 1-4 0-9-11-24.5t-22.5-30.5-13.5-22q-1-7-3.5-12t-5.5-11q-17-17-48.5-34.5t-65-28.5-58.5-11zm38 211q26 5 51.5 8t51.5 3q8 0 16 0t16-1q8 17 13.5 37t5.5 39q0 15-6 30.5t-26 15.5q-19 0-38.5-16t-31.5-29q-16-19-28.5-41.5t-23.5-45.5z"/></svg>