<svg width="44" height="11" viewBox="0 0 44 11" fill="none" xmlns="http://www.w3.org/2000/svg">
<path d="M2.12 1.21C1.93333 1.21 1.79667 1.22333 1.71 1.25C1.61667 1.27 1.54 1.31333 1.48 1.38C1.42 1.44 1.37 1.51667 1.33 1.61C1.29 1.71 1.27 1.80333 1.27 1.89L0.5 1.87C0.513333 1.43 0.653333 1.08 0.92 0.82C1.06 0.693333 1.22333 0.6 1.41 0.54C1.60333 0.473333 1.84333 0.436666 2.13 0.43H5.21C5.74333 0.43 6.22667 0.533333 6.66 0.74C7.08667 0.953333 7.42333 1.25 7.67 1.63C7.91667 2.01667 8.04 2.46 8.04 2.96C8.04 3.42667 7.94667 3.83333 7.76 4.18C7.56667 4.52 7.30667 4.74333 6.98 4.85C6.96667 4.85 6.94 4.86333 6.9 4.89C6.86 4.91 6.74667 4.95 6.56 5.01C6.61333 5.03 6.68 5.04667 6.76 5.06C6.84 5.08 6.92333 5.11 7.01 5.15C7.47667 5.36333 7.84 5.68667 8.1 6.12C8.36 6.55333 8.49 7.05667 8.49 7.63C8.49 8.54333 8.15333 9.21667 7.48 9.65C6.8 10.0833 5.84 10.3 4.6 10.3C3.81333 10.3 3.23333 10.2767 2.86 10.23L2.12 10.15V1.21ZM4.84 9.53C6.71333 9.53 7.65 8.88667 7.65 7.6C7.65 6.93333 7.42667 6.41333 6.98 6.04C6.53333 5.66 5.97333 5.47 5.3 5.47H3.97V4.7H5.2C5.80667 4.7 6.29333 4.54667 6.66 4.24C7.02 3.93333 7.2 3.50333 7.2 2.95C7.2 2.41 7.04 1.99333 6.72 1.7C6.4 1.40667 5.96333 1.24333 5.41 1.21H2.96V9.46L4.33 9.52L4.84 9.53ZM13 10.3C12.3 10.3 11.7067 10.1567 11.22 9.87C10.7333 9.57667 10.3667 9.17667 10.12 8.67C9.87333 8.16333 9.75 7.58667 9.75 6.94C9.75 6.30667 9.87 5.69 10.11 5.09C10.3433 4.49667 10.7 4.00667 11.18 3.62C11.6667 3.24 12.2533 3.05 12.94 3.05C13.4 3.05 13.8267 3.13667 14.22 3.31C14.6067 3.49 14.9167 3.74333 15.15 4.07C15.3767 4.39667 15.49 4.77333 15.49 5.2C15.49 5.89333 15.1967 6.43 14.61 6.81C14.0233 7.18333 13.21 7.36667 12.17 7.36L10.63 7.35C10.7167 8.06333 10.9567 8.60667 11.35 8.98C11.75 9.35333 12.3 9.54 13 9.54C13.42 9.54 13.81 9.48333 14.17 9.37C14.53 9.25 14.8767 9.07 15.21 8.83L15.63 9.39C15.2767 9.67 14.8733 9.89 14.42 10.05C13.9667 10.2167 13.4933 10.3 13 10.3ZM12.35 6.63C13.8833 6.63 14.65 6.15 14.65 5.19C14.65 4.72333 14.49 4.37667 14.17 4.15C13.8433 3.91667 13.4467 3.8 12.98 3.8C12.46 3.8 12.02 3.95 11.66 4.25C11.3 4.55 11.0333 4.92 10.86 5.36C10.68 5.8 10.59 6.22333 10.59 6.63H12.35ZM18.02 8.98C18.02 9.11333 18.0667 9.22333 18.16 9.31C18.2467 9.40333 18.35 9.45 18.47 9.45C18.6567 9.45 18.7933 9.37 18.88 9.21L19.49 9.67C19.4167 9.83 19.2867 9.96333 19.1 10.07C18.9133 10.1767 18.7033 10.23 18.47 10.23C18.0967 10.23 17.79 10.1133 17.55 9.88C17.3033 9.64667 17.18 9.34333 17.18 8.97V0H18.02V8.98ZM21.57 8.98C21.57 9.11333 21.6133 9.22333 21.7 9.31C21.7867 9.40333 21.89 9.45 22.01 9.45C22.1967 9.45 22.3333 9.37 22.42 9.21L23.04 9.67C22.96 9.83 22.8267 9.96333 22.64 10.07C22.4533 10.1767 22.2433 10.23 22.01 10.23C21.6367 10.23 21.33 10.1133 21.09 9.88C20.85 9.64667 20.73 9.34333 20.73 8.97V0H21.57V8.98ZM27 10.3C26.3333 10.3 25.7433 10.1467 25.23 9.84C24.71 9.53333 24.3067 9.10333 24.02 8.55C23.7267 7.99667 23.58 7.37 23.58 6.67C23.58 5.97 23.7267 5.34333 24.02 4.79C24.3133 4.23667 24.72 3.80333 25.24 3.49C25.76 3.17667 26.35 3.02 27.01 3.02C27.6633 3.02 28.25 3.17667 28.77 3.49C29.29 3.80333 29.6967 4.23333 29.99 4.78C30.2833 5.33333 30.43 5.96 30.43 6.66C30.43 7.36 30.2833 7.98667 29.99 8.54C29.6967 9.08667 29.29 9.51667 28.77 9.83C28.25 10.1433 27.66 10.3 27 10.3ZM27.01 9.54C27.7833 9.54 28.4067 9.27667 28.88 8.75C29.3533 8.21667 29.59 7.52 29.59 6.66C29.59 6.09333 29.4833 5.59333 29.27 5.16C29.05 4.72 28.7467 4.38 28.36 4.14C27.9667 3.9 27.5167 3.78 27.01 3.78C26.4967 3.78 26.0433 3.9 25.65 4.14C25.2633 4.38 24.96 4.72333 24.74 5.17C24.5267 5.61 24.42 6.11 24.42 6.67C24.42 7.23 24.5267 7.72667 24.74 8.16C24.96 8.6 25.2633 8.94 25.65 9.18C26.0433 9.42 26.4967 9.54 27.01 9.54ZM33.93 10.3C33.2967 10.3 32.83 10.12 32.53 9.76C32.23 9.4 32.08 8.86 32.08 8.14V1.41H32.92V3.19H35.12V3.94H32.92V8.14C32.92 9.07333 33.2567 9.54 33.93 9.54C34.4633 9.54 34.8733 9.25667 35.16 8.69L35.79 9.12C35.5767 9.51333 35.32 9.81 35.02 10.01C34.72 10.2033 34.3567 10.3 33.93 10.3ZM39.42 10.3C38.7733 10.3 38.22 10.1367 37.76 9.81C37.3067 9.48333 36.9633 9.05 36.73 8.51C36.4967 7.97 36.38 7.37333 36.38 6.72C36.38 6 36.52 5.36 36.8 4.8C37.08 4.24667 37.48 3.81667 38 3.51C38.5267 3.20333 39.14 3.05 39.84 3.05C40.0533 3.05 40.3233 3.06 40.65 3.08C40.9767 3.10667 41.2667 3.13667 41.52 3.17H42.36V8.96C42.36 9.14667 42.4033 9.28667 42.49 9.38C42.5767 9.48 42.6867 9.53 42.82 9.53C42.9867 9.53 43.12 9.45 43.22 9.29L43.83 9.77C43.69 9.96333 43.5333 10.1 43.36 10.18C43.1867 10.26 42.9867 10.3 42.76 10.3C42.4333 10.3 42.1467 10.1867 41.9 9.96C41.6533 9.74 41.53 9.47 41.53 9.15C41.3033 9.52333 41.01 9.81 40.65 10.01C40.2833 10.2033 39.8733 10.3 39.42 10.3ZM39.43 9.54C39.85 9.54 40.2267 9.44 40.56 9.24C40.9 9.03333 41.1533 8.76 41.32 8.42C41.4533 8.15333 41.52 7.85667 41.52 7.53V3.86L40.59 3.83L39.78 3.8C38.9333 3.8 38.2933 4.06667 37.86 4.6C37.4333 5.13333 37.22 5.83 37.22 6.69C37.22 7.48333 37.41 8.15667 37.79 8.71C38.1633 9.26333 38.71 9.54 39.43 9.54Z" fill="black"/>
</svg>
