<svg width="77" height="17" viewBox="0 0 77 17" fill="none" xmlns="http://www.w3.org/2000/svg">
<path d="M5.49 2.05C5.79667 1.83 6.16 1.58333 6.58 1.31C7 1.02333 7.34 0.88 7.6 0.88C7.86 0.88 8.06333 0.973333 8.21 1.16C8.35667 1.35333 8.38667 1.57333 8.3 1.82C8.21333 2.14667 8.32 2.3 8.62 2.28C8.80667 2.26667 9.07333 2.17333 9.42 2C9.84 1.77333 10.31 1.65 10.83 1.63C11.3567 1.61667 11.8 1.69667 12.16 1.87C12.5067 2.05667 12.82 2.37 13.1 2.81C13.3067 3.09667 13.4233 3.32667 13.45 3.5C13.4767 3.66667 13.44 3.97333 13.34 4.42C13.08 5.70667 12.2633 6.96667 10.89 8.2L9.84 9.1L10.23 9.77C10.4767 10.19 10.64 10.7033 10.72 11.31C10.78 11.55 10.7933 11.7667 10.76 11.96C10.7333 12.1533 10.69 12.32 10.63 12.46C10.57 12.6 10.4567 12.8 10.29 13.06C9.78333 13.7867 9.10667 14.3867 8.26 14.86C7.42 15.34 6.59667 15.59 5.79 15.61C5.41 15.61 5.1 15.57 4.86 15.49C4.61333 15.4167 4.29 15.23 3.89 14.93L2.88 14.22L2.34 14.75C2.07333 15.01 1.90333 15.1467 1.83 15.16C1.75 15.1667 1.61 15.0833 1.41 14.91C1.24333 14.77 1.14 14.6233 1.1 14.47C1.06667 14.33 1.07667 14.0733 1.13 13.7C1.19 13.32 1.20333 13.07 1.17 12.95C1.14333 12.8233 1.04333 12.72 0.87 12.64C0.623333 12.5 0.5 12.37 0.5 12.25C0.5 12.0233 0.63 11.82 0.89 11.64C1.15667 11.4533 1.43667 11.36 1.73 11.36C1.86333 11.36 1.97667 11.3533 2.07 11.34C2.15667 11.32 2.24333 11.2733 2.33 11.2C2.41667 11.1333 2.49667 11.0467 2.57 10.94C2.67667 10.8 2.79 10.6533 2.91 10.5C3.05667 10.2467 3.19333 9.88 3.32 9.4C3.44667 8.92667 3.55333 8.59333 3.64 8.4C3.69333 8.28667 3.75667 8.16667 3.83 8.04C3.91 7.91333 3.99 7.78333 4.07 7.65C4.14333 7.52333 4.20333 7.40667 4.25 7.3C4.37667 7.06 4.44333 6.82 4.45 6.58C4.45667 6.33333 4.44667 6.07667 4.42 5.81C4.39333 5.53667 4.39 5.30333 4.41 5.11C4.41667 5.06333 4.45 4.95333 4.51 4.78C4.56333 4.61333 4.62333 4.43667 4.69 4.25C4.75667 4.06333 4.82 3.89333 4.88 3.74C4.94667 3.58667 4.99333 3.51 5.02 3.51C4.4 3.67667 3.93 3.71333 3.61 3.62C3.30333 3.54 3.10333 3.41 3.01 3.23C2.91667 3.05 2.92667 2.87667 3.04 2.71C3.14667 2.53667 3.32333 2.40333 3.57 2.31C3.73667 2.24333 4.05333 2.22 4.52 2.24C4.98667 2.25333 5.31 2.19 5.49 2.05ZM8.96 11.36C8.96 10.7533 8.83667 10.35 8.59 10.15C8.45 10.0167 8.26333 9.94667 8.03 9.94C7.79 9.92667 7.50333 9.94 7.17 9.98C6.84333 10.0133 6.57667 10.0233 6.37 10.01C5.79667 9.95 5.41667 9.96667 5.23 10.06C5.11 10.1267 4.99667 10.3267 4.89 10.66C4.78333 11 4.70333 11.3633 4.65 11.75C4.59 12.1367 4.57 12.5067 4.59 12.86C4.61 13.2133 4.67 13.4433 4.77 13.55C4.95667 13.7367 5.19 13.8467 5.47 13.88C5.74333 13.9133 6.02333 13.8867 6.31 13.8C6.60333 13.7133 6.87 13.61 7.11 13.49C7.35 13.37 7.56333 13.24 7.75 13.1C8.55667 12.5133 8.96 11.9333 8.96 11.36ZM10.78 3.87C10.5333 3.58333 10.24 3.41333 9.9 3.36C9.49333 3.3 9.05 3.4 8.57 3.66C8.08333 3.92667 7.65333 4.26 7.28 4.66C6.90667 5.06 6.59667 5.49333 6.35 5.96C6.11 6.42667 6.00333 6.82333 6.03 7.15C6.09667 7.85 6.54 8.16333 7.36 8.09C8.13333 8.01667 8.94 7.67 9.78 7.05C10.6133 6.43667 11.0633 5.85 11.13 5.29C11.1967 4.69 11.08 4.21667 10.78 3.87ZM19.17 13.35C19.3767 13.1833 19.5567 13.1167 19.71 13.15C19.8633 13.1833 19.94 13.33 19.94 13.59C19.9467 13.6767 19.93 13.76 19.89 13.84C19.85 13.9267 19.8067 14 19.76 14.06C19.7133 14.12 19.6467 14.1867 19.56 14.26C19.4667 14.3333 19.3933 14.39 19.34 14.43C19.2867 14.47 19.2033 14.5233 19.09 14.59C18.9833 14.6633 18.9233 14.7067 18.91 14.72C18.6833 14.8733 18.4533 15 18.22 15.1C18.2 15.1133 18.1733 15.1267 18.14 15.14C18.1067 15.1533 18.0733 15.1667 18.04 15.18C18 15.1933 17.9633 15.2067 17.93 15.22C17.89 15.2333 17.8567 15.2467 17.83 15.26L17.8 15.27C17.2333 15.5033 16.6233 15.64 15.97 15.68C15.2967 15.7133 14.8067 15.65 14.5 15.49C14.46 15.4767 14.31 15.4133 14.05 15.3C13.79 15.1867 13.6033 15.0867 13.49 15C13.2767 14.86 13.07 14.5567 12.87 14.09C12.51 13.25 12.33 12.51 12.33 11.87C12.33 11.4767 12.4 10.9633 12.54 10.33C12.5467 10.29 12.56 10.21 12.58 10.09C12.6067 9.97 12.63 9.88 12.65 9.82C12.67 9.76 12.6933 9.67333 12.72 9.56C12.7467 9.45333 12.7733 9.36333 12.8 9.29C12.8267 9.21667 12.86 9.14 12.9 9.06C12.94 8.98 12.9767 8.90667 13.01 8.84C13.21 8.57333 13.37 8.38 13.49 8.26C13.99 7.73333 14.63 7.5 15.41 7.56C16.21 7.62 16.6433 7.88333 16.71 8.35C16.7633 8.71667 16.74 9.09333 16.64 9.48C16.5467 9.86667 16.4267 10.1867 16.28 10.44C16.1333 10.6933 15.9333 11.02 15.68 11.42C15.42 11.82 15.2367 12.1267 15.13 12.34C14.7167 13.12 14.51 13.5833 14.51 13.73C14.51 13.85 14.6267 14.0233 14.86 14.25C15.0067 14.39 15.14 14.4733 15.26 14.5C15.3733 14.5267 15.5867 14.5133 15.9 14.46C16.38 14.3933 16.9067 14.2767 17.48 14.11C17.6933 14.0367 18.0067 13.91 18.42 13.73C18.8267 13.55 19.0767 13.4233 19.17 13.35ZM13.74 12.36C13.82 12.36 14.0533 11.9967 14.44 11.27C14.8133 10.5367 15 10.0967 15 9.95C15 9.77 14.9033 9.65667 14.71 9.61C14.5233 9.55667 14.3733 9.6 14.26 9.74C14.1667 9.85333 14.0733 10.02 13.98 10.24C13.8867 10.4667 13.81 10.6967 13.75 10.93C13.7033 11.1633 13.6633 11.3867 13.63 11.6C13.59 11.8133 13.58 11.9933 13.6 12.14C13.62 12.2867 13.6667 12.36 13.74 12.36ZM26 13.23C26.2133 13.0767 26.3933 13.0267 26.54 13.08C26.6933 13.1333 26.76 13.29 26.74 13.55C26.7267 13.6167 26.7067 13.6833 26.68 13.75C26.6467 13.8233 26.6 13.8867 26.54 13.94C26.4867 13.9933 26.4333 14.0433 26.38 14.09C26.3267 14.1367 26.26 14.1867 26.18 14.24C26.0933 14.2933 26.0233 14.3333 25.97 14.36C25.91 14.3867 25.8367 14.4233 25.75 14.47C25.6633 14.5167 25.6067 14.55 25.58 14.57C25.3467 14.69 25.1033 14.7867 24.85 14.86C24.8367 14.8733 24.7233 14.9467 24.51 15.08C24.29 15.2133 24.04 15.3633 23.76 15.53C23.48 15.69 23.25 15.8 23.07 15.86C22.83 15.94 22.5767 16.0033 22.31 16.05C22.05 16.0967 21.7767 16.13 21.49 16.15C21.1967 16.1633 20.92 16.13 20.66 16.05C20.3933 15.9767 20.17 15.8667 19.99 15.72C19.7767 15.52 19.6033 15.25 19.47 14.91C19.33 14.57 19.24 14.2033 19.2 13.81C19.16 13.41 19.14 13.0367 19.14 12.69C19.14 12.35 19.1533 12.02 19.18 11.7C19.1867 11.6533 19.24 11.2533 19.34 10.5C19.44 9.75333 19.5333 9.01667 19.62 8.29L19.75 7.21C19.6367 7.14333 19.4267 7.09667 19.12 7.07C18.9333 7.05667 18.7433 7.05667 18.55 7.07C18.09 7.07 17.7667 7.05333 17.58 7.02C17.5467 7.01333 17.4933 7.01 17.42 7.01C17.3533 7.01 17.2833 7.01 17.21 7.01C17.1433 7.01 17.0733 7.01 17 7.01C16.9333 7.01 16.8767 7.00333 16.83 6.99C16.79 6.97667 16.7667 6.95667 16.76 6.93C16.74 6.77667 16.8 6.66667 16.94 6.6C16.9467 6.59333 17.01 6.55333 17.13 6.48C17.2433 6.41333 17.3633 6.34667 17.49 6.28C17.6167 6.21333 17.7867 6.15667 18 6.11C18.2133 6.05667 18.4333 6.03333 18.66 6.04C19.36 6.10667 19.7967 6.13 19.97 6.11C20.1433 6.08333 20.3133 5.98333 20.48 5.81C20.7333 5.57667 21.07 4.96333 21.49 3.97C21.51 3.93667 21.5367 3.88 21.57 3.8C21.73 3.42667 21.86 3.13333 21.96 2.92C22.0667 2.70667 22.2133 2.43333 22.4 2.1C22.5867 1.77333 22.79 1.49667 23.01 1.27C23.2367 1.04333 23.47 0.87 23.71 0.75C24.4967 0.376667 24.89 0.4 24.89 0.82C24.89 1.06667 24.7067 1.61333 24.34 2.46C24.24 2.69333 24.1667 2.87667 24.12 3.01C24.0667 3.17667 24.02 3.37667 23.98 3.61C23.94 3.84333 23.85 4.07667 23.71 4.31C23.49 4.70333 23.3033 5.03333 23.15 5.3C22.9767 5.62 22.9133 5.80667 22.96 5.86C23.0067 5.93333 23.4767 6.01667 24.37 6.11C24.9967 6.17667 25.3767 6.23333 25.51 6.28C25.65 6.32667 25.71 6.41667 25.69 6.55C25.67 6.72333 25.5667 6.79667 25.38 6.77C25.3067 6.76333 25.1567 6.76 24.93 6.76C24.71 6.76667 24.46 6.78 24.18 6.8C23.9 6.82 23.61 6.84667 23.31 6.88C23.0167 6.92 22.7733 6.95 22.58 6.97C22.48 6.99 22.3433 7.28667 22.17 7.86C22.0033 8.44 21.82 9.14333 21.62 9.97C21.42 10.7967 21.2733 11.35 21.18 11.63C20.7067 13.0567 20.7667 14.0367 21.36 14.57C21.6333 14.81 21.8867 14.9267 22.12 14.92C22.26 14.92 22.4133 14.87 22.58 14.77C22.6067 14.73 22.7033 14.6733 22.87 14.6C23.03 14.5267 23.1967 14.4567 23.37 14.39C23.5433 14.33 23.72 14.27 23.9 14.21C24.0867 14.1433 24.1833 14.11 24.19 14.11C24.9367 13.81 25.54 13.5167 26 13.23ZM34.78 12.78C34.9867 12.6 35.1667 12.5267 35.32 12.56C35.4733 12.5933 35.55 12.74 35.55 13C35.55 13.0733 35.54 13.1467 35.52 13.22C35.4933 13.2867 35.4567 13.3533 35.41 13.42C35.3633 13.4867 35.3133 13.5467 35.26 13.6C35.2133 13.6467 35.15 13.7 35.07 13.76C34.99 13.8133 34.9267 13.86 34.88 13.9C34.8333 13.9333 34.7667 13.98 34.68 14.04C34.6 14.0933 34.5467 14.13 34.52 14.15C34.5067 14.15 34.49 14.1533 34.47 14.16C34.4567 14.1733 34.45 14.1833 34.45 14.19C34.4167 14.21 34.3767 14.2367 34.33 14.27C34.2833 14.3033 34.2533 14.3233 34.24 14.33C33.92 14.5567 33.6333 14.71 33.38 14.79C33.1267 14.8567 32.8133 14.91 32.44 14.95C31.4933 15.05 30.7833 14.83 30.31 14.29C29.8433 13.75 29.5133 12.76 29.32 11.32C29.2667 10.8667 29.2067 10.64 29.14 10.64C29.0867 10.64 28.7567 10.9 28.15 11.42C27.8033 11.74 27.5533 11.9933 27.4 12.18C27.3267 12.2533 27.2633 12.35 27.21 12.47C27.15 12.59 27.0933 12.7333 27.04 12.9C26.98 13.0733 26.9367 13.1867 26.91 13.24C26.8833 13.3067 26.82 13.46 26.72 13.7L26.51 14.22C26.47 14.3067 26.4467 14.4433 26.44 14.63C26.4267 14.8233 26.39 14.9767 26.33 15.09C26.27 15.2033 26.1567 15.2733 25.99 15.3C25.6633 15.3467 25.3833 15.2 25.15 14.86C24.9967 14.66 24.9167 14.5067 24.91 14.4C24.9033 14.3 24.9533 14.11 25.06 13.83C25.0933 13.77 25.1167 13.7133 25.13 13.66C25.15 13.6133 25.1833 13.5267 25.23 13.4C25.27 13.2733 25.2967 13.19 25.31 13.15C25.3233 13.11 25.35 13.0333 25.39 12.92C25.4233 12.8133 25.4533 12.7333 25.48 12.68C25.5 12.6267 25.53 12.5533 25.57 12.46C25.61 12.3667 25.6433 12.2867 25.67 12.22C25.7033 12.1533 25.7433 12.0767 25.79 11.99C25.83 11.91 25.8733 11.8267 25.92 11.74C26.1 11.4267 26.2333 10.94 26.32 10.28C26.4067 9.62 26.4633 9.24333 26.49 9.15C26.65 8.49 26.9633 7.54333 27.43 6.31C27.5167 6.07667 27.6133 5.72333 27.72 5.25C27.8333 4.78333 27.9467 4.34667 28.06 3.94C28.1733 3.53333 28.3133 3.11333 28.48 2.68C28.6467 2.25333 28.8733 1.89 29.16 1.59C29.4467 1.29 29.7767 1.09333 30.15 1C30.4633 0.926667 30.72 0.943333 30.92 1.05C31.12 1.15667 31.26 1.32 31.34 1.54C31.4133 1.75333 31.4533 2.00667 31.46 2.3C31.46 2.59333 31.4433 2.85667 31.41 3.09C31.3767 3.32333 31.3333 3.54667 31.28 3.76C31.18 4.10667 31.0167 4.51 30.79 4.97C30.5633 5.41667 30.41 5.73667 30.33 5.93C30.1967 6.29667 30.0133 6.66667 29.78 7.04C29.6667 7.2 29.5033 7.46333 29.29 7.83C29.07 8.19667 28.89 8.46333 28.75 8.63C28.55 8.89667 28.3333 9.15333 28.1 9.4C28.0733 9.43333 28.02 9.48667 27.94 9.56C27.8533 9.64 27.78 9.71667 27.72 9.79C27.66 9.85667 27.62 9.92333 27.6 9.99C27.5867 10.0167 27.5933 10.05 27.62 10.09C27.64 10.13 27.6667 10.1433 27.7 10.13C27.7133 10.13 27.7367 10.12 27.77 10.1C27.8433 10.0467 27.9467 9.95333 28.08 9.82C28.2067 9.69333 28.33 9.59333 28.45 9.52C28.5633 9.44 28.6867 9.39333 28.82 9.38C28.8933 9.36667 28.9667 9.35667 29.04 9.35C29.44 9.30333 29.7633 9.34 30.01 9.46C30.2567 9.58 30.4667 9.8 30.64 10.12C30.7867 10.4467 30.86 10.82 30.86 11.24C30.86 11.6133 30.92 12.05 31.04 12.55C31.1533 13.0567 31.28 13.4367 31.42 13.69C31.5067 13.8367 31.6 13.9233 31.7 13.95C31.8 13.9833 32.01 13.98 32.33 13.94C32.7167 13.8933 33.03 13.8233 33.27 13.73C33.9033 13.3967 34.4067 13.08 34.78 12.78ZM29.35 4.22C29.33 4.26 29.3033 4.31333 29.27 4.38C29.23 4.45333 29.1967 4.52 29.17 4.58C29.1433 4.64 29.1133 4.7 29.08 4.76C28.88 5.18667 28.7167 5.63333 28.59 6.1C28.5433 6.28 28.4867 6.46 28.42 6.64C28.36 6.82 28.28 7.03667 28.18 7.29C28.08 7.54333 28.0133 7.71667 27.98 7.81C27.92 7.95667 27.93 8.05333 28.01 8.1C28.0433 8.12667 28.0933 8.11 28.16 8.05C28.3067 7.89667 28.4333 7.73 28.54 7.55C28.64 7.37 28.74 7.15667 28.84 6.91C28.94 6.67 29.02 6.48333 29.08 6.35C29.3533 5.85667 29.5833 5.23667 29.77 4.49C29.79 4.44333 29.8267 4.35667 29.88 4.23C29.94 4.10333 29.9867 3.99 30.02 3.89C30.06 3.79667 30.0867 3.69 30.1 3.57C30.1133 3.44333 30.0867 3.36333 30.02 3.33C29.9533 3.27 29.8733 3.29667 29.78 3.41C29.7067 3.48333 29.61 3.65667 29.49 3.93C29.45 4.02333 29.4033 4.12 29.35 4.22ZM50.99 2.33C51.19 2.48333 51.35 2.66 51.47 2.86C51.59 3.06 51.6533 3.24333 51.66 3.41C51.6667 3.57667 51.6 3.75667 51.46 3.95C51.3267 4.14333 51.1633 4.3 50.97 4.42C50.7833 4.54 50.5967 4.6 50.41 4.6C49.8833 4.6 49.1067 4.23667 48.08 3.51C47.5133 3.09 46.81 3.24333 45.97 3.97C45.5833 4.27 45.34 4.42 45.24 4.42C45.1733 4.42 45.09 4.50333 44.99 4.67C44.8833 4.83667 44.8 5.04333 44.74 5.29C44.6733 5.53 44.6233 5.77333 44.59 6.02C44.5567 6.26 44.5467 6.47 44.56 6.65C44.5733 6.82333 44.6233 6.92 44.71 6.94C44.73 6.94 44.7867 6.94333 44.88 6.95C44.96 6.96333 45.0933 6.97333 45.28 6.98C45.4467 6.98 45.6 6.98 45.74 6.98C46.0133 7 46.2233 7.02333 46.37 7.05C46.5233 7.07667 46.65 7.13 46.75 7.21C46.8567 7.28333 46.9633 7.39333 47.07 7.54C47.3233 7.84 47.5433 8.21 47.73 8.65C47.7967 8.81667 47.8267 8.96667 47.82 9.1C47.8133 9.24 47.7933 9.34667 47.76 9.42C47.72 9.5 47.6433 9.58333 47.53 9.67C47.41 9.75667 47.31 9.81667 47.23 9.85C47.1567 9.87667 47.0333 9.92333 46.86 9.99C46.6933 10.0567 46.5767 10.1033 46.51 10.13C46.3433 10.2033 46.1133 10.2933 45.82 10.4C45.5267 10.5 45.3133 10.58 45.18 10.64C45.0533 10.7 44.8833 10.8167 44.67 10.99C44.4633 11.1567 44.25 11.37 44.03 11.63C43.7167 12.03 43.58 12.3567 43.62 12.61C43.68 13.0967 43.92 13.4333 44.34 13.62C44.76 13.8067 45.2533 13.86 45.82 13.78C46.3867 13.7 46.9733 13.5633 47.58 13.37C48.1933 13.1833 48.7333 12.9733 49.2 12.74C49.6667 12.5133 50 12.32 50.2 12.16C50.4133 11.9867 50.6 11.9167 50.76 11.95C50.9267 11.9767 51.0133 12.13 51.02 12.41C51.02 12.5233 50.9733 12.6567 50.88 12.81C50.7867 12.9633 50.69 13.0967 50.59 13.21C50.4967 13.3167 50.3667 13.4533 50.2 13.62C50.04 13.7867 49.9467 13.8833 49.92 13.91C49.5533 14.31 49.0533 14.6267 48.42 14.86C47.7933 15.0933 47.12 15.2733 46.4 15.4C44.8533 15.6467 43.6133 15.4433 42.68 14.79C42.54 14.69 42.4167 14.59 42.31 14.49C42.21 14.3833 42.13 14.2733 42.07 14.16C42.01 14.04 41.9567 13.9267 41.91 13.82C41.87 13.7133 41.8467 13.5933 41.84 13.46C41.84 13.32 41.84 13.1967 41.84 13.09C41.8467 12.9833 41.8667 12.8533 41.9 12.7C41.9333 12.5467 41.96 12.42 41.98 12.32C42.0067 12.2133 42.0433 12.0733 42.09 11.9C42.1633 11.6333 42.4333 11.08 42.9 10.24C43.44 9.24667 43.8 8.79667 43.98 8.89C44 8.89667 44.0133 8.90333 44.02 8.91C43.5533 8.31667 43.1933 7.75 42.94 7.21C42.6867 6.66333 42.6 6.10667 42.68 5.54C42.7467 4.98 42.91 4.47667 43.17 4.03C43.43 3.58333 43.8033 3.15667 44.29 2.75C44.6367 2.47 45.0067 2.25333 45.4 2.1C45.7933 1.94 46.4033 1.77667 47.23 1.61C47.4767 1.55 47.6333 1.49333 47.7 1.44C47.7667 1.38 47.7967 1.25667 47.79 1.07C47.77 0.99 47.77 0.906667 47.79 0.82C47.8167 0.74 47.8567 0.66 47.91 0.58C47.9567 0.506667 48.02 0.433333 48.1 0.36C48.1733 0.286667 48.25 0.223333 48.33 0.17C48.4167 0.116667 48.5033 0.0766666 48.59 0.05C48.67 0.0166666 48.7533 0 48.84 0C49.0067 0 49.31 0.0833333 49.75 0.25C50.19 0.423333 50.41 0.553333 50.41 0.64C50.41 0.713333 50.2867 0.89 50.04 1.17C49.8467 1.44333 49.77 1.63333 49.81 1.74C49.85 1.84667 50.05 1.94333 50.41 2.03C50.6033 2.08333 50.7967 2.18333 50.99 2.33ZM52.3 10.22C51.9933 10.5933 51.7267 10.9433 51.5 11.27C51.28 11.5967 51.18 11.8 51.2 11.88C51.2 12.0333 51.33 12.3733 51.59 12.9C51.9033 13.5067 52.27 13.81 52.69 13.81C52.7767 13.81 52.8633 13.8033 52.95 13.79C53.0433 13.77 53.1567 13.7367 53.29 13.69C53.4233 13.6433 53.51 13.6133 53.55 13.6C53.65 13.5733 53.8167 13.49 54.05 13.35C54.3433 13.1767 54.62 12.9867 54.88 12.78C55.0867 12.6 55.2667 12.5267 55.42 12.56C55.5733 12.5933 55.6533 12.74 55.66 13C55.66 13.0867 55.64 13.17 55.6 13.25C55.56 13.3367 55.5167 13.41 55.47 13.47C55.4233 13.53 55.3533 13.6 55.26 13.68C55.1733 13.76 55.1033 13.82 55.05 13.86C54.99 13.8933 54.91 13.9467 54.81 14.02C54.7033 14.0867 54.6367 14.13 54.61 14.15C54.5367 14.1967 54.4267 14.2667 54.28 14.36C54.1267 14.4533 54.0133 14.5233 53.94 14.57C53.62 14.7833 53.2967 14.91 52.97 14.95C52.6567 14.9967 52.42 15 52.26 14.96C52.1 14.9133 51.8667 14.7867 51.56 14.58C51.1667 14.3133 50.85 14.02 50.61 13.7C50.3633 13.3867 50.2 13.0833 50.12 12.79C50.0333 12.5033 49.99 12.1667 49.99 11.78C49.99 11.4 50.0133 11.06 50.06 10.76C50.1067 10.4533 50.1667 10.0767 50.24 9.63C50.3067 9.19 50.3467 8.81 50.36 8.49C50.3667 8.37 50.3767 8.24667 50.39 8.12C50.4033 7.98667 50.4167 7.86667 50.43 7.76C50.4433 7.65333 50.4667 7.52333 50.5 7.37C50.5267 7.22333 50.5467 7.10667 50.56 7.02C50.5733 6.94 50.6033 6.81667 50.65 6.65C50.6967 6.49 50.7267 6.37667 50.74 6.31C50.7533 6.24333 50.7867 6.12 50.84 5.94C50.8933 5.76 50.9267 5.64667 50.94 5.6C50.9533 5.55333 50.99 5.42667 51.05 5.22C51.11 5.02 51.1433 4.90333 51.15 4.87C51.2567 4.52333 51.3467 4.27 51.42 4.11C51.5067 3.94333 51.62 3.78 51.76 3.62C51.9067 3.45333 52.04 3.32 52.16 3.22C52.2733 3.11333 52.4267 2.98 52.62 2.82C52.7 2.76667 52.83 2.66667 53.01 2.52C53.19 2.36667 53.3233 2.26 53.41 2.2C53.49 2.14 53.6033 2.05667 53.75 1.95C53.8967 1.84333 54.0367 1.75 54.17 1.67C54.3033 1.59 54.45 1.51333 54.61 1.44C54.9633 1.26 55.24 1.19333 55.44 1.24C55.5867 1.28 55.7133 1.36333 55.82 1.49C55.92 1.61667 55.99 1.75667 56.03 1.91C56.0567 2.02333 56.0767 2.14 56.09 2.26C56.1033 2.37333 56.1067 2.49667 56.1 2.63C56.0867 2.77 56.08 2.88667 56.08 2.98C56.0733 3.07333 56.05 3.2 56.01 3.36C55.9767 3.51333 55.9533 3.62667 55.94 3.7C55.92 3.76667 55.88 3.88667 55.82 4.06C55.76 4.23333 55.7233 4.34333 55.71 4.39C55.6967 4.43667 55.6567 4.55667 55.59 4.75C55.5167 4.94333 55.4767 5.05333 55.47 5.08C55.2367 5.70667 55.05 6.11667 54.91 6.31C54.8167 6.44333 54.5433 6.93333 54.09 7.78C53.6367 8.62667 53.32 9.13667 53.14 9.31C52.8867 9.54333 52.6067 9.84667 52.3 10.22ZM52.12 6.81C52.02 6.90333 51.9 7.22333 51.76 7.77C51.6267 8.31 51.6033 8.62 51.69 8.7C51.7367 8.74 51.8133 8.7 51.92 8.58C52.0267 8.46667 52.1567 8.28667 52.31 8.04C52.4633 7.79333 52.6133 7.49667 52.76 7.15C53.0733 6.53667 53.23 6.2 53.23 6.14C53.23 6.11333 53.3733 5.79667 53.66 5.19C53.9467 4.59 54.09 4.22667 54.09 4.1C54.09 3.82667 53.97 3.79667 53.73 4.01C53.57 4.13667 53.4167 4.33 53.27 4.59C53.0367 5.01667 52.8167 5.36 52.61 5.62C52.4233 5.86667 52.33 6.09667 52.33 6.31C52.33 6.51667 52.26 6.68333 52.12 6.81ZM57.06 10.22C56.7467 10.5933 56.48 10.9433 56.26 11.27C56.0333 11.5967 55.93 11.8 55.95 11.88C55.95 12.0333 56.08 12.3733 56.34 12.9C56.66 13.5067 57.03 13.81 57.45 13.81C57.53 13.81 57.6167 13.8033 57.71 13.79C57.7967 13.77 57.9067 13.7367 58.04 13.69C58.18 13.6433 58.2667 13.6133 58.3 13.6C58.4067 13.5733 58.5767 13.49 58.81 13.35C59.0967 13.1767 59.37 12.9867 59.63 12.78C59.8367 12.6 60.0167 12.5267 60.17 12.56C60.3233 12.5933 60.4067 12.74 60.42 13C60.42 13.0867 60.3967 13.17 60.35 13.25C60.31 13.3367 60.2667 13.41 60.22 13.47C60.1733 13.53 60.1067 13.6 60.02 13.68C59.9267 13.76 59.8533 13.82 59.8 13.86C59.7467 13.8933 59.6667 13.9467 59.56 14.02C59.46 14.0867 59.3967 14.13 59.37 14.15C59.29 14.1967 59.1767 14.2667 59.03 14.36C58.8833 14.4533 58.77 14.5233 58.69 14.57C58.3767 14.7833 58.0567 14.91 57.73 14.95C57.41 14.9967 57.17 15 57.01 14.96C56.8567 14.9133 56.6233 14.7867 56.31 14.58C55.9233 14.3133 55.6067 14.02 55.36 13.7C55.12 13.3867 54.9567 13.0833 54.87 12.79C54.79 12.5033 54.75 12.1667 54.75 11.78C54.75 11.4 54.7733 11.06 54.82 10.76C54.8667 10.4533 54.9233 10.0767 54.99 9.63C55.0633 9.19 55.1033 8.81 55.11 8.49C55.1167 8.37 55.1267 8.24667 55.14 8.12C55.16 7.98667 55.1767 7.86667 55.19 7.76C55.2033 7.65333 55.2233 7.52333 55.25 7.37C55.2767 7.22333 55.2967 7.10667 55.31 7.02C55.3233 6.94 55.3533 6.81667 55.4 6.65C55.4467 6.49 55.4767 6.37667 55.49 6.31C55.51 6.24333 55.5433 6.12 55.59 5.94C55.6433 5.76 55.6767 5.64667 55.69 5.6C55.7033 5.55333 55.74 5.42667 55.8 5.22C55.86 5.02 55.8967 4.90333 55.91 4.87C56.01 4.52333 56.0967 4.27 56.17 4.11C56.2567 3.94333 56.3733 3.78 56.52 3.62C56.66 3.45333 56.79 3.32 56.91 3.22C57.0233 3.11333 57.18 2.98 57.38 2.82C57.4533 2.76667 57.58 2.66667 57.76 2.52C57.9467 2.36667 58.08 2.26 58.16 2.2C58.2467 2.14 58.36 2.05667 58.5 1.95C58.6467 1.84333 58.7867 1.75 58.92 1.67C59.06 1.59 59.21 1.51333 59.37 1.44C59.7233 1.26 59.9967 1.19333 60.19 1.24C60.3433 1.28 60.47 1.36333 60.57 1.49C60.67 1.61667 60.74 1.75667 60.78 1.91C60.8067 2.02333 60.8267 2.14 60.84 2.26C60.8533 2.37333 60.8567 2.49667 60.85 2.63C60.8433 2.77 60.8367 2.88667 60.83 2.98C60.8233 3.07333 60.8033 3.2 60.77 3.36C60.73 3.51333 60.7033 3.62667 60.69 3.7C60.6767 3.76667 60.64 3.88667 60.58 4.06C60.52 4.23333 60.48 4.34333 60.46 4.39C60.4467 4.43667 60.4067 4.55667 60.34 4.75C60.2667 4.94333 60.2267 5.05333 60.22 5.08C59.9867 5.70667 59.8 6.11667 59.66 6.31C59.5667 6.44333 59.2967 6.93333 58.85 7.78C58.39 8.62667 58.0733 9.13667 57.9 9.31C57.6467 9.54333 57.3667 9.84667 57.06 10.22ZM56.87 6.81C56.77 6.90333 56.6533 7.22333 56.52 7.77C56.38 8.31 56.3533 8.62 56.44 8.7C56.4867 8.74 56.5633 8.7 56.67 8.58C56.7767 8.46667 56.9067 8.28667 57.06 8.04C57.2133 7.79333 57.3667 7.49667 57.52 7.15C57.8267 6.53667 57.98 6.2 57.98 6.14C57.98 6.11333 58.1233 5.79667 58.41 5.19C58.7033 4.59 58.85 4.22667 58.85 4.1C58.85 3.82667 58.7267 3.79667 58.48 4.01C58.3267 4.13667 58.1733 4.33 58.02 4.59C57.7867 5.01667 57.5667 5.36 57.36 5.62C57.1733 5.86667 57.08 6.09667 57.08 6.31C57.08 6.51667 57.01 6.68333 56.87 6.81ZM66.11 13.35C66.31 13.1833 66.49 13.1167 66.65 13.15C66.8033 13.1833 66.88 13.33 66.88 13.59C66.8867 13.6767 66.87 13.76 66.83 13.84C66.7833 13.9267 66.7367 14 66.69 14.06C66.6433 14.12 66.5767 14.1867 66.49 14.26C66.4033 14.3333 66.33 14.39 66.27 14.43C66.2167 14.47 66.1367 14.5233 66.03 14.59C65.9233 14.6633 65.86 14.7067 65.84 14.72C65.6133 14.8733 65.3833 15 65.15 15.1C65.1367 15.1133 65.1133 15.1267 65.08 15.14C65.0467 15.1533 65.01 15.1667 64.97 15.18C64.9367 15.1933 64.9 15.2067 64.86 15.22C64.82 15.2333 64.79 15.2467 64.77 15.26L64.73 15.27C64.1633 15.5033 63.5533 15.64 62.9 15.68C62.2267 15.7133 61.7367 15.65 61.43 15.49C61.39 15.4767 61.24 15.4133 60.98 15.3C60.72 15.1867 60.5333 15.0867 60.42 15C60.2067 14.86 60.0033 14.5567 59.81 14.09C59.4433 13.25 59.26 12.51 59.26 11.87C59.26 11.4767 59.33 10.9633 59.47 10.33C59.4767 10.29 59.4933 10.21 59.52 10.09C59.54 9.97 59.56 9.88 59.58 9.82C59.6 9.76 59.6233 9.67333 59.65 9.56C59.6767 9.45333 59.7067 9.36333 59.74 9.29C59.7667 9.21667 59.7967 9.14 59.83 9.06C59.87 8.98 59.91 8.90667 59.95 8.84C60.1433 8.57333 60.3 8.38 60.42 8.26C60.9267 7.73333 61.5667 7.5 62.34 7.56C63.14 7.62 63.5733 7.88333 63.64 8.35C63.7 8.71667 63.68 9.09333 63.58 9.48C63.48 9.86667 63.36 10.1867 63.22 10.44C63.0733 10.6933 62.87 11.02 62.61 11.42C62.3567 11.82 62.1733 12.1267 62.06 12.34C61.6467 13.12 61.44 13.5833 61.44 13.73C61.44 13.85 61.5567 14.0233 61.79 14.25C61.9433 14.39 62.0767 14.4733 62.19 14.5C62.31 14.5267 62.5233 14.5133 62.83 14.46C63.3167 14.3933 63.8433 14.2767 64.41 14.11C64.6233 14.0367 64.9367 13.91 65.35 13.73C65.7633 13.55 66.0167 13.4233 66.11 13.35ZM60.67 12.36C60.7567 12.36 60.99 11.9967 61.37 11.27C61.7433 10.5367 61.93 10.0967 61.93 9.95C61.93 9.77 61.8367 9.65667 61.65 9.61C61.4567 9.55667 61.3033 9.6 61.19 9.74C61.0967 9.85333 61.0033 10.02 60.91 10.24C60.8167 10.4667 60.7433 10.6967 60.69 10.93C60.6433 11.1633 60.6 11.3867 60.56 11.6C60.5267 11.8133 60.5167 11.9933 60.53 12.14C60.55 12.2867 60.5967 12.36 60.67 12.36ZM65.26 12.99C65.4067 12.7367 65.6967 12.16 66.13 11.26C66.5567 10.36 66.9233 9.72667 67.23 9.36C67.2767 9.29333 67.33 9.23333 67.39 9.18C67.5033 9.06 67.6567 8.97 67.85 8.91C68.0433 8.85 68.22 8.85667 68.38 8.93C68.44 8.96333 68.48 9.06 68.5 9.22C68.5267 9.38 68.5633 9.46333 68.61 9.47C68.67 9.48333 68.8267 9.4 69.08 9.22C69.5133 8.92 70.19 8.67333 71.11 8.48C71.4833 8.38667 71.7267 8.35 71.84 8.37C71.9533 8.39 72.0933 8.47333 72.26 8.62C72.4733 8.83333 72.5867 9.09333 72.6 9.4C72.6067 9.71333 72.5033 10.0033 72.29 10.27C72.13 10.5033 71.9233 10.9667 71.67 11.66C71.4167 12.3467 71.29 12.8233 71.29 13.09C71.29 13.2767 71.3533 13.48 71.48 13.7C71.6067 13.9133 71.76 14.0933 71.94 14.24C72.1267 14.3867 72.2933 14.46 72.44 14.46C72.6667 14.46 73.14 14.2733 73.86 13.9C74.5733 13.5267 75.1367 13.17 75.55 12.83C75.8567 12.5967 76.0767 12.49 76.21 12.51C76.3367 12.5233 76.4 12.66 76.4 12.92C76.4 13.0333 76.3533 13.16 76.26 13.3C76.16 13.4467 76.03 13.6 75.87 13.76C75.7033 13.9067 75.5067 14.0567 75.28 14.21C75.06 14.3633 74.8333 14.4867 74.6 14.58C73.98 14.8733 73.5367 15.0833 73.27 15.21C72.8033 15.43 72.39 15.4933 72.03 15.4C71.67 15.3067 71.2467 15.0167 70.76 14.53C70.3667 14.1367 70.1367 13.8667 70.07 13.72C69.9967 13.58 69.96 13.3033 69.96 12.89C69.96 12.29 70.07 11.67 70.29 11.03C70.4767 10.3833 70.55 10.0333 70.51 9.98C70.4567 9.92 70.08 10.22 69.38 10.88C68.68 11.54 67.9933 12.2367 67.32 12.97C66.6467 13.7033 66.31 14.1233 66.31 14.23C66.31 14.3233 66.25 14.4267 66.13 14.54C66.0167 14.6533 65.8767 14.7433 65.71 14.81C65.5433 14.8833 65.3933 14.9067 65.26 14.88C65.0467 14.8533 64.8967 14.6833 64.81 14.37C64.7433 14.17 64.7333 13.99 64.78 13.83C64.8267 13.67 64.9867 13.39 65.26 12.99Z" fill="black"/>
</svg>
