<svg width="105.22" height="17.71" viewBox="0 0 105.22 17.71" xmlns="http://www.w3.org/2000/svg"><path transform="translate(0 14) scale(.014 -.014)" d="m80 0v740h285q71 0 121.5-25.5t77.5-68 27-92.5q0-55-20-89t-45-51.5-40-23.5v-6q24-7 55.5-26.5t54.5-55.5 23-94q0-51-25-99t-79-78.5-143-30.5zm281 655h-183v-236h183q48 0 77.5 17t43 44.5 13.5 56.5q0 30-13.5 57t-43 44-77.5 17zm8-315h-191v-255h191q55 0 88 18.5t48.5 48 15.5 61.5-15.5 61-48.5 47.5-88 18.5z"/><path transform="translate(9.436 14) scale(.014 -.014)" d="m311-10q-65 0-112.5 23.5t-78 63.5-45.5 88.5-15 99.5q0 50 14.5 99t45 89 77 63.5 110.5 23.5q68 0 120-31t82-92 30-153v-28h-383q3-45 21.5-82.5t52.5-60 81-22.5q41 0 66.5 13.5t40.5 31.5 20.5 31.5 5.5 13.5h89t-5-17.5-18-42.5-38-50.5-64-43-97-17.5zm-154 320h289q-2 52-22 84.5t-51 48.5-66 16q-63 0-103-40.5t-47-108.5z"/><path transform="translate(21.042 14) scale(.014 -.014)" d="M291 0 30 740H134L353 112L572 740H676L414 0Z"/><path transform="translate(30.926 14) scale(.014 -.014)" d="m132 631q-27 0-44.5 18t-17.5 43q0 26 17.5 44t44.5 18q26 0 44-18t18-44q0-25-18-43t-44-18zm-47-631v530h95v-530z"/><path transform="translate(34.622 14) scale(.014 -.014)" d="m311-10q-65 0-112.5 23.5t-78 63.5-45.5 88.5-15 99.5q0 50 14.5 99t45 89 77 63.5 110.5 23.5q68 0 120-31t82-92 30-153v-28h-383q3-45 21.5-82.5t52.5-60 81-22.5q41 0 66.5 13.5t40.5 31.5 20.5 31.5 5.5 13.5h89t-5-17.5-18-42.5-38-50.5-64-43-97-17.5zm-154 320h289q-2 52-22 84.5t-51 48.5-66 16q-63 0-103-40.5t-47-108.5z"/><path transform="translate(43.008 14) scale(.014 -.014)" d="m295-10q-82 0-123.5 42t-41.5 118v302h-95v78h95v133h95v-133h129v-78h-129v-302q0-40 22-58.5t64-18.5q22 0 42 3t20 3v-81t-23-4-55-4z"/><path transform="translate(49 14) scale(.014 -.014)" d="m70 0v530h95v-77h6q7 12 23.5 33t47.5 37.5 78 16.5q58 0 99-26.5t62.5-71.5 21.5-101v-341h-95v335q0 53-29.5 88t-85.5 35q-45 0-73-22.5t-41.5-59-13.5-77.5v-299z"/><path transform="translate(57.022 14) scale(.014 -.014)" d="m300 540q50 0 84-16t55-37.5 32-40.5h6v84h95v-530h-95v84h-6q-11-19-32-41t-55-37.5-84-15.5q-60 0-105 23.5t-75 63-45 88.5-15 100 15 100 45 88.5 75 63 105 23.5zm16-81q-53 0-89-28.5t-53.5-72.5-17.5-93q0-48 17.5-92.5t53.5-73 89-28.5 88.5 28.5 53 73 17.5 92.5q0 49-17.5 93t-53 72.5-88.5 28.5z"/><path transform="translate(66.01 14) scale(.014 -.014)" d="m70 0v530h95v-77h4q8 15 25 35.5t46.5 36 74.5 15.5q59 0 99.5-28.5t60.5-76.5h1q22 44 62.5 74.5t105.5 30.5q86 0 132.5-58.5t46.5-150.5v-331h-95v326q0 59-28 95.5t-81 36.5q-46 0-73.5-25t-39.5-62-12-74v-297h-95v326q0 59-27.5 95.5t-81.5 36.5q-46 0-73.5-25t-39.5-62.5-12-73.5v-297z"/><path transform="translate(81.732 14) scale(.014 -.014)" d="m80 0v740h264q85 0 141.5-35t85-90.5 28.5-115.5q0-61-28.5-116.5t-85-91-141.5-35.5h-166v-256zm264 654h-166v-312h166q53 0 88 23t52.5 58.5 17.5 74.5-17.5 75-52.5 58.5-88 22.5z"/><path transform="translate(90.748 14) scale(.014 -.014)" d="m70 0v530h95v-66h4q17 30 50 53t93 23q17 0 31-1.5t14-1.5v-91t-15.5 1.5-32.5 1.5q-69 0-106.5-39.5t-37.5-128.5v-281z"/><path transform="translate(96.236 14) scale(.014 -.014)" d="m321-10q-85 0-143 39.5t-88 102.5-30 133q0 71 30 133.5t88 102 143 39.5 143-39.5 88-102 30-133.5q0-70-30-133t-88-102.5-143-39.5zm0 83q54 0 90.5 27.5t55 71.5 18.5 93q0 50-18.5 93.5t-55 71-90.5 27.5q-53 0-90-27.5t-55.5-71-18.5-93.5q0-49 18.5-93t55.5-71.5 90-27.5z"/></svg>