<svg width="98.378" height="16.8" viewBox="0 0 98.378 16.8" xmlns="http://www.w3.org/2000/svg"><path transform="translate(0 13.797) scale(.007 -.007)" d="m119 0v1600h167v-1600zm274 0v153h44q78 0 109.5 28t33.5 95q2 81 2 149.5t-2 148.5q-2 88-32.5 122t-106.5 34h-48v152h53q70 0 99 35t30 114q3 81 2.5 151t-2.5 151q-1 64-32.5 90t-109.5 26h-40v151h40q163 0 236-63.5t74-210.5q0-94 0.5-163t-2.5-135q-4-87-36.5-137t-106.5-70v-32q77-21 111-71.5t38-137.5q4-84 3-153t-3-153q-5-146-76.5-210t-233.5-64z"/><path transform="translate(5.88 13.797) scale(.007 -.007)" d="M86 1435V1600H303V1435ZM111 0V1200H278V0Z"/><path transform="translate(8.603 13.797) scale(.007 -.007)" d="m334-340q-121 7-184.5 48.5t-72.5 117.5q-1 12-2 25.5t0 26.5q4 54 42 87t91 41v29q-105 26-112 105-1 14-0.5 22t0.5 19q3 41 35 71t77 36v29q-61 29-90.5 87.5t-35.5 150.5q-2 59-3 105t-1 88.5 1 90 3 107.5q8 131 66.5 194t185.5 73v-133q-45-8-65.5-36.5t-22.5-82.5q-2-62-3-137.5t-0.5-150 3.5-134.5q2-54 25-82t66-36v-137q-55-4-79-22.5t-24-49.5q0-2 0-5t0-6q0-29 22.5-44.5t77.5-21.5v-120q-58-4-93.5-25t-38.5-71q-2-10-2-22.5t2-23.5q4-48 39-68t93-24zm107 1v119q64 5 104 26t47 70q3 13 2.5 24t-3.5 24q-6 50-46.5 67.5t-103.5 22.5v116q138-10 211-56t82-147q1-12 2-28.5t-2-33.5q-9-108-90-153t-203-51zm0 626v134q40 9 61.5 36t24.5 81q3 62 3.5 135t-1 149-4.5 143q-3 52-22 79.5t-62 35.5v133q164-12 215-119h29q4 51 40 78.5t95 27.5v-130h-22q-49 0-77.5-34t-28.5-107v-51q2-63 2-112.5t-0.5-98.5-3.5-112q-7-131-64-194t-185-74z"/><path transform="translate(17.283 13.797) scale(.007 -.007)" d="m353-12q-134 10-195.5 76.5t-66.5 206.5q-1 55-1.5 104t1 98.5 3.5 106.5h161q-4-87-4.5-168.5t4.5-163.5q2-53 24.5-80t73.5-35zm107 0v145q48 9 68.5 35.5t24.5 79.5q4 44 5 92.5t-0.5 97.5-4.5 92q-2 78-31.5 118t-94.5 57l-117 28q-83 20-130.5 59t-68 105-23.5 166q-1 63 0 131t2 138q4 139 65 205t198 75v-145q-49-8-71-34.5t-25-79.5q-5-75-4.5-145t4.5-145q3-83 24.5-123.5t75.5-53.5l109-24q94-22 149-62t79.5-106 27.5-164q2-41 2-86t-0.5-89-2.5-84q-6-140-66.5-207t-194.5-76zm91 1054q3 89 3.5 164t-2.5 147q-2 53-23 79.5t-69 34.5v145q131-10 190.5-76t64.5-206q2-60 1-134t-3-154z"/><path transform="translate(22.96 13.797) scale(.007 -.007)" d="m110 0v1600h170v-1600zm461 0-2 970q0 63-26.5 90.5t-86.5 27.5q-40 0-69-12v102q24 19 56 28t75 9q112 0 166-61t54-197l2-957z"/><path transform="translate(28.868 13.797) scale(.007 -.007)" d="m93 273q-3 61-4 143t-1 172 1 178 4 160q7 144 64.5 211t192.5 76v-133q-47-9-67.5-37.5t-22.5-81.5q-2-81-4-168.5t-2.5-180 1.5-186.5 6-186q2-54 22.5-83t66.5-37v-133q-136 9-193.5 77t-63.5 209zm364-286v133q46 9 66 37.5t21 80.5q3 91 5 180.5t2.5 179-1.5 180.5-6 186q-1 52-21 80t-66 36v133q91-6 145-38t80-93.5 30-155.5q3-66 4.5-148.5t1.5-171-1.5-174-4.5-159.5q-5-94-30.5-155t-79.5-93-145-38z"/><path transform="translate(34.503 13.797) scale(.007 -.007)" d="m92 245v955h169l1-969q0-63 26.5-90.5t85.5-27.5q39 0 69 14v-106q-53-36-125-36-111 0-168.5 61t-57.5 199zm458-245v1200h170v-1200z"/><path transform="translate(40.313 13.797) scale(.007 -.007)" d="M110 0V1600H277V0Z"/><path transform="translate(43.022 13.797) scale(.007 -.007)" d="m92 243q-2 80-3 173t-1 188.5 1 186.5 3 166q5 141 63 199.5t164 58.5q41 0 72-8.5t55-25.5v-106q-31 13-69 13-60 0-86-27t-28-88q-4-123-5.5-255t-0.5-256.5 5-226.5q2-68 29.5-95t84.5-27q41 0 70 12v-104q-26-17-57.5-26.5t-73.5-9.5q-111 0-164 60.5t-59 197.5zm458-243v1600h171v-1600z"/><path transform="translate(48.839 13.797) scale(.007 -.007)" d="m92 252q-2 70-3 158.5t-1 184 1 186 3 165.5q7 131 66.5 194.5t187.5 72.5v-133q-45-9-64-37t-20-75q-3-93-4-183t-1-180 1-182 4-188q1-53 21-79.5t63-35.5v-133q-132 10-189.5 73t-64.5 192zm361-265v134q39 8 57 35t20 80q2 30 2.5 80t-2.5 107h165q3-33 3.5-86t-1.5-85q-6-130-61.5-193t-182.5-72zm-102 580v121h181q1 57 1 114.5t-0.5 102-2.5 63.5q-2 50-21 76.5t-56 34.5v134q126-10 182.5-73t61.5-188q1-23 2-87t0.5-144-4.5-154z"/><path transform="translate(54.285 13.797) scale(.007 -.007)" d="m110 0v1200h172v-1200zm278 1055v128q41 22 106 22 19 0 38-1.5t37-3.5v-130h-74q-64 0-107-15z"/><path transform="translate(58.492 13.797) scale(.007 -.007)" d="m77 252q-1 45-0.5 87.5t2.5 83.5h152q-2-62-1.5-108t0.5-80q1-53 19-79.5t58-34.5v-134q-123 9-174 72t-56 193zm337-265v132q46 8 66.5 35t22.5 82q1 29 1 48.5t0 38-1 42.5q-2 68-20 101t-72 50l-113 32q-80 23-128 58t-70.5 91-24.5 144q-1 34-1 56.5t1 48.5q2 131 56.5 194.5t185.5 72.5v-133q-40-8-56.5-34t-18.5-78q-1-18-2-46.5t0-64.5q1-69 17-110.5t78-59.5l105-28q114-29 168.5-94t54.5-194q0-34-0.5-61t-2.5-62q-3-128-58-190t-188-71zm81 794q2 31 2 66.5t0 67.5-1 54q-1 51-17 77t-55 33v134q121-9 173.5-71.5t57.5-192.5q0-15 0-46.5t-0.5-65-3.5-56.5z"/><path transform="translate(66.542 13.797) scale(.007 -.007)" d="m353-12q-134 10-195.5 76.5t-66.5 206.5q-1 55-1.5 104t1 98.5 3.5 106.5h161q-4-87-4.5-168.5t4.5-163.5q2-53 24.5-80t73.5-35zm107 0v145q48 9 68.5 35.5t24.5 79.5q4 44 5 92.5t-0.5 97.5-4.5 92q-2 78-31.5 118t-94.5 57l-117 28q-83 20-130.5 59t-68 105-23.5 166q-1 63 0 131t2 138q4 139 65 205t198 75v-145q-49-8-71-34.5t-25-79.5q-5-75-4.5-145t4.5-145q3-83 24.5-123.5t75.5-53.5l109-24q94-22 149-62t79.5-106 27.5-164q2-41 2-86t-0.5-89-2.5-84q-6-140-66.5-207t-194.5-76zm91 1054q3 89 3.5 164t-2.5 147q-2 53-23 79.5t-69 34.5v145q131-10 190.5-76t64.5-206q2-60 1-134t-3-154z"/><path transform="translate(72.219 13.797) scale(.007 -.007)" d="m29 1070v130h96v340h169v-1304q0-72 27-97t107-25q30 0 51.5 1.5t49.5 4.5v-125q-24-5-49.5-7.5t-54.5-2.5q-165 0-232.5 61t-67.5 209v815zm343 0v130h134v-130z"/><path transform="translate(76.139 13.797) scale(.007 -.007)" d="m92 252q-2 70-3 158.5t-1 184 1 186 3 165.5q7 131 66.5 194.5t187.5 72.5v-133q-45-9-64-37t-20-75q-3-93-4-183t-1-180 1-182 4-188q1-53 21-79.5t63-35.5v-133q-132 10-189.5 73t-64.5 192zm361-265v134q39 8 57 35t20 80q2 30 2.5 80t-2.5 107h165q3-33 3.5-86t-1.5-85q-6-130-61.5-193t-182.5-72zm-102 580v121h181q1 57 1 114.5t-0.5 102-2.5 63.5q-2 50-21 76.5t-56 34.5v134q126-10 182.5-73t61.5-188q1-23 2-87t0.5-144-4.5-154z"/><path transform="translate(81.585 13.797) scale(.007 -.007)" d="m110 0v1200h169v-1200zm463 0-1 970q-1 63-28.5 90.5t-87.5 27.5q-20 0-37.5-4t-33.5-10v100q26 21 58.5 31t74.5 10q112 0 166.5-61t55.5-197v-957z"/><path transform="translate(87.493 13.797) scale(.007 -.007)" d="m92 252q-2 70-3 158.5t-1 184 1 186 3 165.5q7 131 65.5 194.5t186.5 72.5v-133q-43-8-62-34.5t-20-77.5q-3-93-4-183.5t-1-180.5 1-181.5 4-187.5q1-52 20.5-79t61.5-35v-134q-131 10-188 73t-64 192zm358-265v133q43 9 61 35.5t19 80.5q2 41 2 84.5t-2 102.5h165q3-35 3.5-86t-1.5-85q-5-130-62-193t-185-72zm80 794q1 31 1.5 64t0 65.5-1.5 58.5q-1 51-19.5 77t-60.5 34v133q128-9 186-71t61-190q2-40 1.5-87t-3.5-84z"/><path transform="translate(92.946 13.797) scale(.007 -.007)" d="M86 1435V1600H303V1435ZM111 0V1200H278V0Z"/><path transform="translate(95.669 13.797) scale(.007 -.007)" d="M110 0V1600H277V0Z"/></svg>