<svg width="80" height="14" viewBox="0 0 80 14" fill="none" xmlns="http://www.w3.org/2000/svg">
<path d="M4.88 10.54C4.88 10.7133 4.84667 10.8 4.78 10.8C4.71333 10.8 4.65667 10.7433 4.61 10.63C4.55667 10.5167 4.52333 10.41 4.51 10.31C4.49667 10.2033 4.49 10.1167 4.49 10.05C4.26333 9.95 4.02333 9.81667 3.77 9.65C3.52333 9.48333 3.4 9.32333 3.4 9.17C3.4 9.11667 3.42333 9.09 3.47 9.09C3.49667 9.09 3.58 9.13333 3.72 9.22C3.86 9.30667 4.01 9.40333 4.17 9.51C4.33667 9.62333 4.44333 9.68667 4.49 9.7C4.49 8.67333 4.77667 7.30333 5.35 5.59C5.92333 3.87 6.51667 2.38 7.13 1.12C6.00333 0.853333 5.04333 0.72 4.25 0.72C3.85667 0.72 3.48333 0.753334 3.13 0.82C2.77667 0.893333 2.43667 1.00667 2.11 1.16C1.78333 1.31333 1.52 1.54333 1.32 1.85C1.12667 2.15667 1.03 2.52 1.03 2.94C1.03 3.89333 1.48333 4.79 2.39 5.63C2.42333 5.44333 2.47 5.35 2.53 5.35C2.59667 5.35 2.67667 5.45 2.77 5.65C2.87 5.85 2.92 5.98667 2.92 6.06C2.92 6.18667 2.83667 6.25 2.67 6.25C2.32333 6.25 1.97667 6.05 1.63 5.65C1.27667 5.25667 1 4.81 0.8 4.31C0.6 3.81667 0.5 3.39667 0.5 3.05C0.5 2.53667 0.613333 2.09667 0.84 1.73C1.06667 1.36333 1.37667 1.08667 1.77 0.9C2.16333 0.713333 2.57 0.576667 2.99 0.49C3.41 0.41 3.85667 0.37 4.33 0.37C5.19 0.37 6.18667 0.49 7.32 0.73C7.44667 0.423333 7.58667 0.203334 7.74 0.0700002C7.74667 0.0700002 7.75333 0.0700002 7.76 0.0700002C7.8 0.0700002 7.84333 0.0666666 7.89 0.0599999C7.93667 0.0466666 7.98667 0.0333333 8.04 0.02C8.1 0.00666665 8.14667 0 8.18 0C8.44667 0 8.58 0.0566667 8.58 0.17C8.58 0.176667 8.57667 0.186667 8.57 0.2C8.56333 0.206667 8.56 0.216667 8.56 0.23C8.46 0.37 8.32667 0.596667 8.16 0.91C8.5 1.00333 8.85 1.11667 9.21 1.25C9.56333 1.39 9.94 1.56667 10.34 1.78C10.74 1.99333 11.0633 2.25333 11.31 2.56C11.5567 2.87333 11.68 3.20667 11.68 3.56C11.68 3.88667 11.5767 4.18667 11.37 4.46C11.1567 4.73333 10.8767 4.96667 10.53 5.16C10.1767 5.35333 9.85 5.51 9.55 5.63C9.24333 5.75 8.92667 5.85333 8.6 5.94C8.94 5.96 9.30667 6.01 9.7 6.09C10.0867 6.17667 10.49 6.3 10.91 6.46C11.33 6.61333 11.68 6.83667 11.96 7.13C12.2333 7.41667 12.37 7.74333 12.37 8.11C12.37 8.46333 12.2067 8.81333 11.88 9.16C10.94 10.1467 9.6 10.64 7.86 10.64C6.71333 10.64 5.71667 10.4867 4.87 10.18C4.87 10.22 4.87 10.2767 4.87 10.35C4.87667 10.43 4.88 10.4933 4.88 10.54ZM11.03 3.59C11.03 3.29667 10.9167 3.01667 10.69 2.75C10.4633 2.48333 10.1733 2.25667 9.82 2.07C9.46 1.88333 9.13 1.73 8.83 1.61C8.53 1.49 8.23667 1.38667 7.95 1.3H7.93C7.17667 2.62 6.50667 4.18 5.92 5.98C6.06667 5.93333 6.27333 5.9 6.54 5.88C6.80667 5.85333 6.98 5.83 7.06 5.81C7.4 5.75667 7.75333 5.68 8.12 5.58C8.48667 5.48 8.91333 5.34333 9.4 5.17C9.88 4.99 10.27 4.76333 10.57 4.49C10.8767 4.21667 11.03 3.91667 11.03 3.59ZM11.12 9.38C11.5133 8.98667 11.71 8.60333 11.71 8.23C11.71 7.85667 11.56 7.53333 11.26 7.26C10.9533 6.98667 10.57 6.78333 10.11 6.65C9.65 6.52333 9.21333 6.43 8.8 6.37C8.38667 6.30333 8.01333 6.27 7.68 6.27C7.58 6.27 7.38333 6.28667 7.09 6.32C6.80333 6.35333 6.52667 6.38333 6.26 6.41C5.99333 6.44333 5.83333 6.46 5.78 6.46C5.76667 6.46 5.76 6.46 5.76 6.46C5.28667 7.93333 4.99667 9.06 4.89 9.84C5.69667 10.16 6.69333 10.32 7.88 10.32C9.42667 10.32 10.5067 10.0067 11.12 9.38ZM16.08 1.99C16.08 2.11 15.99 2.26333 15.81 2.45C15.6367 2.63667 15.5267 2.78333 15.48 2.89C15.36 3.19667 15.23 3.36667 15.09 3.4C14.9033 3.4 14.81 3.24667 14.81 2.94C14.81 2.74667 14.9533 2.53333 15.24 2.3C15.5267 2.06667 15.78 1.95 16 1.95C16.0467 1.95 16.0733 1.96333 16.08 1.99ZM15.28 4.38C15.26 4.41333 15.1967 4.53 15.09 4.73C14.9833 4.93667 14.8933 5.11667 14.82 5.27C14.7467 5.41667 14.6433 5.63333 14.51 5.92C14.3833 6.21333 14.2667 6.49 14.16 6.75C14.06 7.01 13.9533 7.32333 13.84 7.69C13.7267 8.05 13.63 8.41333 13.55 8.78C13.5367 8.80667 13.53 8.84333 13.53 8.89C13.53 9.00333 13.5767 9.06 13.67 9.06C13.73 9.06 13.8833 8.99 14.13 8.85C14.3767 8.71 14.5367 8.64 14.61 8.64C14.6767 8.64 14.7133 8.66 14.72 8.7C14.72 8.80667 14.4833 9.01333 14.01 9.32C13.53 9.62 13.2033 9.77 13.03 9.77C12.85 9.77 12.76 9.68667 12.76 9.52C12.76 9.44 12.78 9.34333 12.82 9.23C12.92 8.93667 13.0233 8.63667 13.13 8.33C13.2367 8.02333 13.32 7.78667 13.38 7.62C13.4333 7.45333 13.49 7.28 13.55 7.1C13.61 6.92 13.6567 6.78667 13.69 6.7C13.7167 6.61333 13.74 6.52667 13.76 6.44C13.7867 6.34667 13.8033 6.27667 13.81 6.23C13.8233 6.18333 13.83 6.13667 13.83 6.09C13.83 6.05667 13.8233 6.02333 13.81 5.99C13.79 5.95667 13.78 5.93 13.78 5.91C13.78 5.87 13.7967 5.81 13.83 5.73C14.03 5.14333 14.21 4.75 14.37 4.55C14.53 4.35667 14.7633 4.26 15.07 4.26C15.19 4.26 15.26 4.3 15.28 4.38ZM18.63 0.97C18.1167 2.03 17.5933 3.31333 17.06 4.82C16.5267 6.33333 16.1333 7.65333 15.88 8.78C15.8733 8.80667 15.87 8.84333 15.87 8.89C15.87 9.00333 15.9167 9.06 16.01 9.06C16.0633 9.06 16.2167 8.99 16.47 8.85C16.7167 8.71 16.87 8.64 16.93 8.64C16.99 8.64 17.0333 8.66 17.06 8.7C17.06 8.80667 16.8267 9.01333 16.36 9.32C15.8933 9.62 15.5633 9.77 15.37 9.77C15.19 9.77 15.1 9.68667 15.1 9.52C15.1 9.42667 15.12 9.33 15.16 9.23C15.4 8.56333 15.6267 7.90333 15.84 7.25C16.0467 6.59667 16.2867 5.82 16.56 4.92C16.8267 4.02 17.0267 3.35667 17.16 2.93C17.1867 2.84333 17.2 2.76 17.2 2.68C17.2 2.64 17.1933 2.60333 17.18 2.57C17.1667 2.53667 17.16 2.50667 17.16 2.48C17.16 2.45333 17.1733 2.39667 17.2 2.31C17.3867 1.72333 17.56 1.33333 17.72 1.14C17.88 0.94 18.1133 0.84 18.42 0.84C18.5467 0.84 18.6167 0.883334 18.63 0.97ZM17.91 9.54C17.8633 9.64667 17.8167 9.7 17.77 9.7C17.69 9.7 17.5967 9.64667 17.49 9.54C17.39 9.42667 17.34 9.29333 17.34 9.14C17.34 9 17.4533 8.64667 17.68 8.08C17.7067 8.00667 17.75 7.95 17.81 7.91C17.87 7.87667 17.9033 7.84333 17.91 7.81C18.9233 5.19 19.7233 2.87333 20.31 0.86L20.42 0.77C20.4867 0.716667 20.57 0.66 20.67 0.6C20.7633 0.546667 20.8433 0.52 20.91 0.52C21.0033 0.52 21.05 0.59 21.05 0.73C20.95 1.11 20.6233 2.04667 20.07 3.54C19.5167 5.03333 19.0633 6.21 18.71 7.07C19.0633 6.53667 19.5333 5.94333 20.12 5.29C20.7 4.63 21.1367 4.3 21.43 4.3C21.6167 4.3 21.71 4.47333 21.71 4.82V4.92C21.6967 5.10667 21.6067 5.52667 21.44 6.18C21.6467 6.07333 21.7867 6.02 21.86 6.02C21.8867 6.02 21.9 6.03 21.9 6.05C21.9 6.09667 21.8433 6.16667 21.73 6.26C21.61 6.35333 21.49 6.42333 21.37 6.47C21.01 7.67667 20.6567 8.47 20.31 8.85C20.1767 8.99 19.91 9.18333 19.51 9.43C19.11 9.67667 18.8633 9.8 18.77 9.8C18.3833 9.8 18.0967 9.71333 17.91 9.54ZM20.67 6.81C19.57 7.38333 18.86 7.84333 18.54 8.19C18.4867 8.30333 18.42 8.45 18.34 8.63C18.26 8.80333 18.2067 8.92 18.18 8.98C18.4067 9.22667 18.6367 9.35 18.87 9.35C19.25 9.35 19.6067 9.06667 19.94 8.5C20.2667 7.93333 20.51 7.37 20.67 6.81ZM20.78 6.5C20.9333 6.10667 21.02 5.7 21.04 5.28C21.04 5.08667 20.9933 4.99 20.9 4.99C20.5867 4.99 19.8333 5.94 18.64 7.84C19.2 7.38667 19.9133 6.94 20.78 6.5ZM25.43 5.52C25.61 5.54667 25.7 5.59667 25.7 5.67C25.7 5.74333 25.63 5.81667 25.49 5.89C25.35 5.95667 25.2233 5.99 25.11 5.99C25.11 7.08333 24.8267 8.01667 24.26 8.79C23.6867 9.57 23.12 9.96 22.56 9.96C22.02 9.96 21.75 9.56667 21.75 8.78C21.75 8.56667 21.77 8.35333 21.81 8.14C21.8567 7.89333 21.94 7.58 22.06 7.2C22.18 6.81333 22.3367 6.39667 22.53 5.95C22.73 5.50333 22.9733 5.12333 23.26 4.81C23.54 4.49667 23.8267 4.34 24.12 4.34H24.21C24.21 4.21333 24.25 4.10333 24.33 4.01C24.4033 3.91667 24.5033 3.87 24.63 3.87C24.7633 3.87667 24.88 4.15 24.98 4.69C25.0867 5.22333 25.2367 5.5 25.43 5.52ZM24.72 5.88C24.6333 5.83333 24.53 5.67 24.41 5.39C24.29 5.10333 24.2067 4.96 24.16 4.96C23.8667 4.96 23.53 5.38667 23.15 6.24C22.77 7.09333 22.5333 7.76667 22.44 8.26C22.4 8.47333 22.38 8.67 22.38 8.85C22.38 9.31 22.51 9.54 22.77 9.54C23.1433 9.54 23.5633 9.16 24.03 8.4C24.49 7.63333 24.72 6.79333 24.72 5.88ZM30.11 10.45C30.55 10.45 31.0033 10.3967 31.47 10.29C31.9433 10.19 32.3633 10.0233 32.73 9.79C33.1033 9.55667 33.29 9.29 33.29 8.99C33.29 8.94333 33.2833 8.9 33.27 8.86C33.2233 8.55333 33 8.29667 32.6 8.09C32.2 7.89 31.7367 7.71667 31.21 7.57C30.6833 7.42333 30.16 7.26333 29.64 7.09C29.12 6.91 28.68 6.64333 28.32 6.29C27.96 5.93667 27.78 5.49333 27.78 4.96C27.78 4.28 27.97 3.64667 28.35 3.06C28.73 2.48 29.22 1.99333 29.82 1.6C30.42 1.21333 31.06 0.896667 31.74 0.65C32.4133 0.396667 33.0933 0.226667 33.78 0.14C34.18 0.0866665 34.5567 0.0599999 34.91 0.0599999C36.5033 0.0599999 37.3 0.586667 37.3 1.64C37.3 2.19333 37.04 2.72667 36.52 3.24C36 3.75333 35.39 4.01 34.69 4.01C34.6233 4.01 34.5733 3.99667 34.54 3.97C34.5067 3.95 34.49 3.92333 34.49 3.89C34.49 3.87667 34.4933 3.85667 34.5 3.83C34.5133 3.81 34.53 3.79333 34.55 3.78C34.5767 3.76 34.6033 3.74667 34.63 3.74C34.6567 3.73333 34.69 3.73 34.73 3.73C35.2033 3.73 35.6567 3.55 36.09 3.19C36.5167 2.83 36.73 2.38333 36.73 1.85C36.73 1.57667 36.6733 1.34667 36.56 1.16C36.44 0.966667 36.2767 0.816667 36.07 0.71C35.8633 0.603333 35.6433 0.526667 35.41 0.48C35.17 0.433333 34.91 0.41 34.63 0.41C34.49 0.41 34.3533 0.413333 34.22 0.42C34.08 0.433333 33.9467 0.446667 33.82 0.46C32.9333 0.573333 32.1 0.8 31.32 1.14C30.54 1.48 29.8833 1.95667 29.35 2.57C28.8167 3.18333 28.55 3.86333 28.55 4.61C28.55 5.05667 28.6767 5.44 28.93 5.76C29.1833 6.08667 29.5 6.32333 29.88 6.47C30.2533 6.61667 30.6667 6.76 31.12 6.9C31.5667 7.04 31.9867 7.15667 32.38 7.25C32.78 7.34333 33.1233 7.49 33.41 7.69C33.7033 7.88333 33.8733 8.12 33.92 8.4L33.93 8.57C33.93 8.95 33.7233 9.32333 33.31 9.69C32.89 10.0567 32.3467 10.3533 31.68 10.58C31.0067 10.8067 30.3133 10.92 29.6 10.92C28.6533 10.92 28.18 10.5767 28.18 9.89C28.18 9.51667 28.3033 9.33 28.55 9.33C28.5833 9.33 28.6067 9.36 28.62 9.42C28.64 9.48 28.6633 9.55667 28.69 9.65C28.7233 9.75 28.7567 9.83333 28.79 9.9C28.8567 10.0133 28.9333 10.1067 29.02 10.18C29.1133 10.2533 29.2133 10.31 29.32 10.35C29.4333 10.3833 29.5533 10.4067 29.68 10.42C29.8067 10.44 29.95 10.45 30.11 10.45ZM41.83 4.64C41.83 4.69333 41.7433 4.90667 41.57 5.28C41.4033 5.65333 41.17 6.12333 40.87 6.69C40.5767 7.26333 40.2833 7.78333 39.99 8.25C39.8767 8.42333 39.79 8.57 39.73 8.69C39.67 8.80333 39.63 8.88667 39.61 8.94C39.5967 8.99333 39.5633 9.10667 39.51 9.28C39.4567 9.46 39.4133 9.61667 39.38 9.75C39.34 9.81 39.2867 9.84 39.22 9.84C39.1267 9.84 39.0333 9.78333 38.94 9.67C38.84 9.55 38.79 9.44 38.79 9.34C38.79 9.3 38.7933 9.24 38.8 9.16C38.8 9.08667 38.8 9.02667 38.8 8.98C38.8 7.7 38.5433 6.44 38.03 5.2C37.6967 5.39333 37.22 6.10333 36.6 7.33C35.98 8.55667 35.67 9.38 35.67 9.8C35.6367 9.90667 35.5833 9.96 35.51 9.96C35.4167 9.96 35.3133 9.89333 35.2 9.76C35.0933 9.62667 35.04 9.51 35.04 9.41C35.04 9.38333 35.0433 9.36333 35.05 9.35C35.4433 8.39 35.64 7.50333 35.64 6.69C35.64 6.29 35.6067 5.96333 35.54 5.71C35.4733 5.45 35.4 5.27333 35.32 5.18C35.2333 5.08667 35.1433 5.04 35.05 5.04C35.03 5.04 34.9633 5.07667 34.85 5.15C34.7433 5.23 34.67 5.27 34.63 5.27C34.6033 5.27 34.59 5.25333 34.59 5.22C34.59 5.09333 34.71 4.92333 34.95 4.71C35.1967 4.49 35.3833 4.38 35.51 4.38C35.8967 4.38 36.09 5.04 36.09 6.36C36.09 6.64 36.0733 7.01667 36.04 7.49C36.3333 6.95667 36.7233 6.31667 37.21 5.57C37.7033 4.82333 38.0467 4.45 38.24 4.45C38.3133 4.35 38.4067 4.3 38.52 4.3C38.7 4.3 38.79 4.40333 38.79 4.61C38.79 4.63667 38.7833 4.67667 38.77 4.73C38.7633 4.77667 38.76 4.81667 38.76 4.85C38.76 4.90333 38.8033 5.05 38.89 5.29C38.9633 5.51667 39.0567 5.87 39.17 6.35C39.2767 6.83 39.3733 7.25 39.46 7.61C39.5467 7.97 39.5933 8.15 39.6 8.15C39.7333 8.15 40.0233 7.71 40.47 6.83C40.9167 5.95667 41.1533 5.28 41.18 4.8C41.18 4.74667 41.1633 4.66333 41.13 4.55C41.09 4.43667 41.07 4.35 41.07 4.29C41.07 4.17667 41.1167 4.06667 41.21 3.96H41.22C41.3267 3.88 41.4067 3.84 41.46 3.84C41.58 3.84 41.6733 3.93 41.74 4.11C41.8 4.29 41.83 4.46667 41.83 4.64ZM45.9 8.57C45.8933 8.57667 45.85 8.61667 45.77 8.69C45.6967 8.75667 45.6367 8.81 45.59 8.85C45.5433 8.89 45.4767 8.95 45.39 9.03C45.3033 9.10333 45.2267 9.16333 45.16 9.21C45.0933 9.25667 45.0133 9.31333 44.92 9.38C44.8267 9.44667 44.7467 9.49667 44.68 9.53C44.6067 9.56333 44.5333 9.59333 44.46 9.62C44.3867 9.64667 44.3167 9.66 44.25 9.66C44.05 9.66 43.9333 9.54333 43.9 9.31C43.9 8.91667 44.0533 8.19333 44.36 7.14C43.1067 8.86667 42.21 9.73 41.67 9.73C41.45 9.73 41.34 9.56333 41.34 9.23C41.34 8.79667 41.4667 8.21333 41.72 7.48C41.98 6.75333 42.2967 6.09333 42.67 5.5C43.0433 4.90667 43.37 4.61 43.65 4.61H43.69L43.84 4.5C43.9267 4.40667 44.0567 4.36 44.23 4.36C44.37 4.36 44.5667 4.39667 44.82 4.47C45.0733 4.54333 45.2133 4.58 45.24 4.58C45.28 4.58 45.33 4.54333 45.39 4.47C45.45 4.39667 45.5233 4.36 45.61 4.36C45.8433 4.36 45.96 4.46 45.96 4.66C45.96 4.74667 45.9433 4.84 45.91 4.94C45.8767 5.04667 45.83 5.16667 45.77 5.3C45.71 5.43333 45.6733 5.51667 45.66 5.55C45.6533 5.56333 45.61 5.59 45.53 5.63C45.45 5.67 45.4067 5.70333 45.4 5.73C45.1933 6.31 45.01 6.92667 44.85 7.58C44.69 8.24 44.61 8.64333 44.61 8.79C44.61 9.02333 44.6767 9.14 44.81 9.14C44.9367 9.14 45.0967 9.06333 45.29 8.91C45.4833 8.75 45.65 8.59 45.79 8.43C45.93 8.27 46.0033 8.19 46.01 8.19C46.03 8.19 46.04 8.21 46.04 8.25C46.04 8.39 45.9933 8.49667 45.9 8.57ZM45.02 4.85H44.98C44.92 4.85 44.8233 4.84 44.69 4.82C44.5567 4.8 44.4433 4.79 44.35 4.79C44.2167 4.79 44.0767 4.81 43.93 4.85C43.6967 4.91 43.3133 5.46 42.78 6.5C42.2467 7.54667 41.98 8.32667 41.98 8.84C41.98 8.99333 42.0267 9.07 42.12 9.07C42.3133 9.07 42.66 8.78667 43.16 8.22C43.66 7.65333 43.99 7.24667 44.15 7C44.3833 6.62667 44.5967 6.22333 44.79 5.79C44.99 5.35667 45.09 5.07 45.09 4.93C45.09 4.87667 45.0667 4.85 45.02 4.85ZM49.88 4.89C49.86 5.07667 49.7367 5.34333 49.51 5.69C49.29 6.03 49.1167 6.2 48.99 6.2C48.9567 6.2 48.94 6.17333 48.94 6.12C48.94 6.03333 48.99 5.86333 49.09 5.61C49.1967 5.35 49.25 5.18333 49.25 5.11C49.25 4.97 49.1633 4.9 48.99 4.9C48.9633 4.9 48.81 4.92333 48.53 4.97C48.2967 5.03 47.9933 5.18 47.62 5.42C47.24 5.66 47.05 5.92667 47.05 6.22C47.05 6.32 47.0733 6.41333 47.12 6.5C47.24 6.74 47.4533 6.94333 47.76 7.11C48.06 7.28333 48.32 7.44333 48.54 7.59C48.76 7.73667 48.87 7.93333 48.87 8.18C48.87 8.58667 48.5533 8.98 47.92 9.36C47.2933 9.74 46.7567 9.93 46.31 9.93C46.23 9.93 46.1667 9.9 46.12 9.84C46.0733 9.78 46.05 9.71667 46.05 9.65C46.05 9.53667 46.1033 9.48 46.21 9.48C46.5167 9.48 46.9467 9.38333 47.5 9.19C48.06 9.00333 48.34 8.79667 48.34 8.57C48.34 8.43667 48.2333 8.28333 48.02 8.11C47.8133 7.93 47.5867 7.76667 47.34 7.62C47.0867 7.46667 46.8567 7.28667 46.65 7.08C46.4367 6.86667 46.33 6.66333 46.33 6.47C46.33 6.31 46.3867 6.16 46.5 6.02C46.5867 5.92 46.6767 5.82 46.77 5.72C46.8633 5.62 46.95 5.53333 47.03 5.46C47.1167 5.38667 47.2133 5.31333 47.32 5.24C47.4267 5.16667 47.5233 5.1 47.61 5.04C47.69 4.98667 47.7867 4.93 47.9 4.87C48.0133 4.81667 48.1033 4.77333 48.17 4.74C48.2367 4.70667 48.3233 4.66667 48.43 4.62C48.5367 4.57333 48.61 4.54333 48.65 4.53C48.69 4.51667 48.7567 4.49 48.85 4.45C48.9433 4.41667 48.9967 4.4 49.01 4.4C49.17 4.35333 49.29 4.33 49.37 4.33C49.71 4.33 49.88 4.51667 49.88 4.89ZM54.09 4.73C53.5833 5.54333 53.1133 6.44667 52.68 7.44C52.2467 8.43333 52.03 9.20667 52.03 9.76C52.03 9.89333 52.0667 9.96 52.14 9.96C52.1733 9.96 52.2567 9.91667 52.39 9.83C52.5233 9.74333 52.6033 9.7 52.63 9.7C52.6767 9.7 52.7 9.73 52.7 9.79C52.7 9.90333 52.6133 10.02 52.44 10.14C52.26 10.2667 52.0867 10.33 51.92 10.33C51.6867 10.33 51.57 10.16 51.57 9.82C51.57 9.41333 51.7 8.84667 51.96 8.12C52.22 7.38667 52.4833 6.71667 52.75 6.11C53.01 5.51 53.14 5.17333 53.14 5.1C53.14 5.08 53.1333 5.07 53.12 5.07C53.0867 5.07 53.0033 5.14 52.87 5.28C52.2833 5.94 51.79 6.58667 51.39 7.22C50.99 7.84667 50.72 8.33 50.58 8.67C50.4467 9.00333 50.3067 9.27 50.16 9.47C50.02 9.67 49.85 9.77 49.65 9.77C49.57 9.77 49.53 9.72333 49.53 9.63C49.53 9.55 49.5533 9.45667 49.6 9.35C49.8467 8.69667 50.0867 8.02 50.32 7.32C50.5533 6.62 50.8033 5.84 51.07 4.98C51.3367 4.11333 51.5533 3.43 51.72 2.93C51.7533 2.84333 51.77 2.76 51.77 2.68C51.77 2.64 51.7633 2.60333 51.75 2.57C51.7433 2.53667 51.74 2.51 51.74 2.49C51.74 2.45667 51.7533 2.39667 51.78 2.31C51.9933 1.71667 52.1767 1.32333 52.33 1.13C52.4767 0.936667 52.7033 0.84 53.01 0.84C53.13 0.84 53.2 0.883334 53.22 0.97C52.2067 3.02333 51.38 5.20667 50.74 7.52C52.1333 5.34667 53.1833 4.26 53.89 4.26C54.09 4.26 54.19 4.32333 54.19 4.45C54.19 4.53667 54.1567 4.63 54.09 4.73ZM66.91 7.74C66.95 7.74 66.97 7.78333 66.97 7.87C66.97 7.95667 66.95 8.06 66.91 8.18C66.8633 8.3 66.8133 8.40667 66.76 8.5C66.7067 8.59333 66.6567 8.66333 66.61 8.71C66.03 9.29667 65.25 9.78333 64.27 10.17C63.29 10.55 62.35 10.74 61.45 10.74C59.9767 10.74 58.8533 10.3867 58.08 9.68C57.3067 8.96667 56.92 7.99 56.92 6.75C56.92 6.65 56.9233 6.54333 56.93 6.43C56.99 5.38333 57.38 4.37667 58.1 3.41C58.8267 2.44333 59.7167 1.67667 60.77 1.11C61.8233 0.55 62.8667 0.27 63.9 0.27C64.94 0.27 65.6367 0.503334 65.99 0.97C66.0767 0.716667 66.12 0.533333 66.12 0.42C66.12 0.4 66.11 0.363333 66.09 0.31C66.07 0.256667 66.0633 0.213333 66.07 0.18C66.0833 0.146666 66.1233 0.13 66.19 0.13C66.2633 0.13 66.3367 0.146666 66.41 0.18C66.4833 0.22 66.52 0.266667 66.52 0.32C66.52 0.433334 66.5033 0.55 66.47 0.67C66.4367 0.783333 66.3967 0.916667 66.35 1.07C66.2967 1.22333 66.26 1.33333 66.24 1.4C66.3267 1.62667 66.37 1.88333 66.37 2.17C66.37 2.80333 66.23 3.12 65.95 3.12C65.79 3.12 65.6767 3.09 65.61 3.03C65.5433 2.96333 65.51 2.86 65.51 2.72C65.51 2.63333 65.5167 2.55 65.53 2.47C65.5367 2.39 65.5533 2.31 65.58 2.23C65.6 2.14333 65.62 2.07 65.64 2.01C65.66 1.95 65.6867 1.87 65.72 1.77C65.7533 1.67667 65.7767 1.60667 65.79 1.56C65.6367 1.29333 65.39 1.07667 65.05 0.91C64.7167 0.743333 64.3333 0.66 63.9 0.66C62.9133 0.66 61.9467 0.93 61 1.47C60.0533 2.00333 59.27 2.72333 58.65 3.63C58.0367 4.53667 57.7033 5.48667 57.65 6.48C57.65 6.56 57.65 6.63667 57.65 6.71C57.65 7.80333 58.03 8.68667 58.79 9.36C59.55 10.04 60.4933 10.38 61.62 10.38C62.1133 10.38 62.5867 10.3333 63.04 10.24C63.4867 10.1467 63.8567 10.0367 64.15 9.91C64.4433 9.79 64.74 9.63 65.04 9.43C65.34 9.23 65.56 9.06333 65.7 8.93C65.84 8.80333 66.0067 8.64 66.2 8.44C66.3933 8.24667 66.5067 8.13667 66.54 8.11C66.5667 8.06333 66.6267 7.99 66.72 7.89C66.8133 7.79 66.8767 7.74 66.91 7.74ZM71.74 8.57C71.7333 8.57667 71.6933 8.61667 71.62 8.69C71.5467 8.75667 71.4867 8.81 71.44 8.85C71.3933 8.89 71.3233 8.95 71.23 9.03C71.1433 9.10333 71.0667 9.16333 71 9.21C70.9333 9.25667 70.8533 9.31333 70.76 9.38C70.6667 9.44667 70.5867 9.49667 70.52 9.53C70.4467 9.56333 70.3733 9.59333 70.3 9.62C70.2267 9.64667 70.1567 9.66 70.09 9.66C69.8967 9.66 69.78 9.54333 69.74 9.31C69.74 8.91667 69.8933 8.19333 70.2 7.14C68.9533 8.86667 68.06 9.73 67.52 9.73C67.2933 9.73 67.18 9.56333 67.18 9.23C67.18 8.79667 67.3067 8.21333 67.56 7.48C67.82 6.75333 68.1367 6.09333 68.51 5.5C68.8833 4.90667 69.21 4.61 69.49 4.61H69.53L69.69 4.5C69.77 4.40667 69.9 4.36 70.08 4.36C70.22 4.36 70.4167 4.39667 70.67 4.47C70.9167 4.54333 71.0567 4.58 71.09 4.58C71.1233 4.58 71.17 4.54333 71.23 4.47C71.29 4.39667 71.3633 4.36 71.45 4.36C71.6833 4.36 71.8 4.46 71.8 4.66C71.8 4.74667 71.7833 4.84 71.75 4.94C71.7167 5.04667 71.67 5.16667 71.61 5.3C71.55 5.43333 71.5167 5.51667 71.51 5.55C71.4967 5.56333 71.45 5.59 71.37 5.63C71.29 5.67 71.2467 5.70333 71.24 5.73C71.0333 6.31 70.85 6.92667 70.69 7.58C70.5367 8.24 70.46 8.64333 70.46 8.79C70.46 9.02333 70.5233 9.14 70.65 9.14C70.7833 9.14 70.9467 9.06333 71.14 8.91C71.3267 8.75 71.49 8.59 71.63 8.43C71.77 8.27 71.8467 8.19 71.86 8.19C71.8733 8.19 71.88 8.21 71.88 8.25C71.88 8.39 71.8333 8.49667 71.74 8.57ZM70.86 4.85H70.82C70.7667 4.85 70.67 4.84 70.53 4.82C70.3967 4.8 70.2833 4.79 70.19 4.79C70.0567 4.79 69.9167 4.81 69.77 4.85C69.5367 4.91 69.1533 5.46 68.62 6.5C68.0867 7.54667 67.82 8.32667 67.82 8.84C67.82 8.99333 67.8667 9.07 67.96 9.07C68.16 9.07 68.51 8.78667 69.01 8.22C69.51 7.65333 69.8367 7.24667 69.99 7C70.2233 6.62667 70.44 6.22333 70.64 5.79C70.8333 5.35667 70.93 5.07 70.93 4.93C70.93 4.87667 70.9067 4.85 70.86 4.85ZM75.29 6.68C75.3433 6.66 75.43 6.62667 75.55 6.58C75.67 6.53333 75.7833 6.49667 75.89 6.47C75.99 6.44333 76.0933 6.43 76.2 6.43C76.26 6.43 76.29 6.44333 76.29 6.47C76.29 6.53667 76.2433 6.59667 76.15 6.65C76.0567 6.69667 75.9167 6.75 75.73 6.81C75.5367 6.86333 75.4067 6.90333 75.34 6.93C75.3867 7.17667 75.41 7.44333 75.41 7.73C75.41 8.45667 75.2267 8.98667 74.86 9.32C74.4933 9.65333 74.0567 9.82 73.55 9.82C73.01 9.82 72.59 9.69667 72.29 9.45C72.2033 9.69667 72.0433 10.1567 71.81 10.83C71.5767 11.51 71.41 11.9967 71.31 12.29C71.3033 12.31 71.3 12.33 71.3 12.35C71.3 12.3767 71.3167 12.42 71.35 12.48C71.3767 12.5333 71.39 12.5867 71.39 12.64C71.39 12.7533 71.32 12.9333 71.18 13.18C71.04 13.4267 70.8967 13.55 70.75 13.55C70.6367 13.55 70.58 13.4333 70.58 13.2C70.58 13.0067 70.6567 12.6667 70.81 12.18C70.9633 11.6933 71.1867 11.06 71.48 10.28C71.78 9.50667 71.9333 9.1 71.94 9.06C71.9133 8.99333 71.9 8.91333 71.9 8.82C71.9 8.60667 72.0033 8.43333 72.21 8.3C72.83 6.37333 73.1933 5.22333 73.3 4.85C73.3 4.83667 73.2467 4.82333 73.14 4.81C73.04 4.79667 72.99 4.76667 72.99 4.72C72.99 4.64667 73.0633 4.57667 73.21 4.51L73.42 4.43C73.3867 4.39 73.37 4.35 73.37 4.31C73.37 4.18333 73.4567 4.04333 73.63 3.89C73.81 3.73667 73.96 3.66 74.08 3.66C74.1533 3.66 74.19 3.70667 74.19 3.8C74.19 3.88 74.1667 3.96667 74.12 4.06L73.97 4.4C74.63 4.86667 75.07 5.62667 75.29 6.68ZM74.74 7.13C74.58 7.13 74.2567 7.27667 73.77 7.57C73.29 7.86333 72.9567 8.09333 72.77 8.26L72.46 9.14C72.7867 9.36 73.1033 9.47 73.41 9.47C73.8833 9.47 74.2367 9.31333 74.47 9C74.6967 8.68667 74.81 8.30667 74.81 7.86C74.81 7.65333 74.7867 7.41 74.74 7.13ZM74.67 6.9C74.6033 6.56667 74.5133 6.25667 74.4 5.97C74.2933 5.67667 74.19 5.45667 74.09 5.31C73.99 5.15667 73.9067 5.08 73.84 5.08C73.8133 5.08 73.7533 5.21333 73.66 5.48C73.5667 5.74667 73.44 6.13333 73.28 6.64C73.1267 7.14 73.0067 7.51667 72.92 7.77C73.3667 7.46333 73.95 7.17333 74.67 6.9ZM79.72 4.89C79.7067 5.07667 79.5867 5.34333 79.36 5.69C79.1333 6.03 78.96 6.2 78.84 6.2C78.8067 6.2 78.79 6.17333 78.79 6.12C78.79 6.03333 78.84 5.86333 78.94 5.61C79.04 5.35 79.09 5.18333 79.09 5.11C79.09 4.97 79.0067 4.9 78.84 4.9C78.8133 4.9 78.66 4.92333 78.38 4.97C78.1467 5.03 77.84 5.18 77.46 5.42C77.0867 5.66 76.9 5.92667 76.9 6.22C76.9 6.32 76.9233 6.41333 76.97 6.5C77.09 6.74 77.3 6.94333 77.6 7.11C77.9067 7.28333 78.17 7.44333 78.39 7.59C78.61 7.73667 78.72 7.93333 78.72 8.18C78.72 8.58667 78.4033 8.98 77.77 9.36C77.1433 9.74 76.6033 9.93 76.15 9.93C76.0767 9.93 76.0167 9.9 75.97 9.84C75.9233 9.78 75.9 9.71667 75.9 9.65C75.9 9.53667 75.9533 9.48 76.06 9.48C76.3667 9.48 76.7967 9.38333 77.35 9.19C77.9033 9.00333 78.18 8.79667 78.18 8.57C78.18 8.43667 78.0767 8.28333 77.87 8.11C77.6567 7.93 77.4267 7.76667 77.18 7.62C76.9333 7.46667 76.7067 7.28667 76.5 7.08C76.2867 6.86667 76.18 6.66333 76.18 6.47C76.18 6.31 76.2367 6.16 76.35 6.02C76.4367 5.92 76.5267 5.82 76.62 5.72C76.7133 5.62 76.8 5.53333 76.88 5.46C76.9667 5.38667 77.0633 5.31333 77.17 5.24C77.2767 5.16667 77.3733 5.1 77.46 5.04C77.54 4.98667 77.6367 4.93 77.75 4.87C77.8633 4.81667 77.9533 4.77333 78.02 4.74C78.08 4.70667 78.1633 4.66667 78.27 4.62C78.3833 4.57333 78.46 4.54333 78.5 4.53C78.54 4.51667 78.6067 4.49 78.7 4.45C78.7933 4.41667 78.8467 4.4 78.86 4.4C79.0133 4.35333 79.1333 4.33 79.22 4.33C79.5533 4.33 79.72 4.51667 79.72 4.89Z" fill="black"/>
</svg>
