<svg width="262.74" height="21.686" viewBox="0 0 262.74 21.686" xmlns="http://www.w3.org/2000/svg"><path transform="translate(0 15.778) scale(.014 -.014)" d="m1168 187q0-90-67.5-138.5t-194.5-48.5h-839v83h221v520h-221v83h823q109 0 168.5-49t59.5-129q0-53-28-92t-75-61q153-36 153-168zm-777 416v-219h475q70 0 109.5 27.5t39.5 84.5q0 55-37 81t-93 26zm673-408q0 58-44.5 85.5t-123.5 26.5l-505 1v-225h505q168 0 168 112z"/><path transform="translate(17.752 15.778) scale(.014 -.014)" d="m232 638q0 27 24.5 44.5t63.5 17.5q40 0 63.5-17t23.5-45q0-27-23-43.5t-64-16.5q-39 0-63.5 17t-24.5 43zm351-559v-79h-511v79h210v313h-210v79h308v-392z"/><path transform="translate(26.53 15.778) scale(.014 -.014)" d="m79 237q0 78 59 134t159 84.5 222 28.5q119 0 218-29t157.5-85 58.5-133-58-134-158-87-222-29q-120-1-219.5 29.5t-158 87-58.5 133.5zm771 0q0 81-94 124.5t-241 43.5q-147-1-240.5-44t-93.5-124q0-53 44-92t120-59 170-20q95 0 171 20t120 59 44 92z"/><path transform="translate(40.964 15.778) scale(.014 -.014)" d="m1352 257v-31q0-66-30-121t-83-87-118-32q-63 0-114 24.5t-90 61.5-84 93q-45 54-72.5 79.5t-67 40.5-100.5 15h-202v-216h216v-84h-540v83h221v520h-221v83h850q127 0 197-52t70-142q0-56-30.5-99t-89-67.5-139.5-24.5h-133q31-13 61-37.5t71-68.5q40-44 67.5-68.5t58.5-38.5 71-14q39 0 71 19t51 53.5 19 77.5v33zm-961 346v-224h529q78 0 119.5 31t41.5 82q0 50-41.5 80.5t-119.5 30.5z"/><path transform="translate(60.074 15.778) scale(.014 -.014)" d="m1216 79v-79h-472v79h177v96q0 96-45.5 158.5t-159.5 62.5q-170 0-373-182v-135h178v-79h-486v79h210v528h-210v79h308v-392q90 82 186.5 135.5t202.5 53.5q154 0 220.5-89.5t66.5-226.5v-88z"/><path transform="translate(77.238 15.778) scale(.014 -.014)" d="m998 392h-156l-287-425q-72-104-137-154.5t-154-50.5q-58 0-100 12t-117 43l33 78q55-23 96.5-34.5t89.5-11.5q64 0 110 30t92 95l-300 418h-145v79h388v-79h-130l242-337 227 337h-126v79h374z"/><path transform="translate(91.168 15.778) scale(.014 -.014)" d="m1647 79v-79h-464v79h163v127q0 91-35.5 142t-117.5 51q-142 0-284-170 1-9 1-27v-123h163v-79h-420v79h162v127q0 193-152 193-145 0-283-170v-150h162v-79h-470v79h210v313h-210v79h308v-159q58 77 134 124t162 47q187 0 225-183 57 81 136 132t169 51q126 0 182.5-77.5t56.5-203.5v-123z"/><path transform="translate(114.37 15.778) scale(.014 -.014)" d="m896 82q-166-96-388-96-120 0-217.5 28t-154.5 82.5-57 132.5q0 77 58 135t158.5 89 223.5 31q164 0 259-42t95-119q0-73-84.5-110t-236.5-37q-173 0-378 66v-10q0-51 44.5-89.5t123-59 178.5-20.5q103 0 187 22.5t155 64.5zm-701 217q87-26 180-38.5t178-12.5q111 0 166.5 17.5t55.5 59.5-66 65-182 23q-110 0-202-30t-130-84z"/><path transform="translate(134.2 15.778) scale(.014 -.014)" d="M1059 425V603H390V386H720V495H804V197H720V307H390V83H1059V261H1152V0H67V83H288V603H67V686H1152V425Z"/><path transform="translate(152.1 15.778) scale(.014 -.014)" d="M607 239 886 78H1011V-1H586V71H749L528 203L300 71H463V-1H70V78H193L470 234L205 392H70V471H496V399H340L551 271L769 399H618V471H1011V392H872Z"/><path transform="translate(167.24 15.778) scale(.014 -.014)" d="m1120 253q0-81-52.5-141.5t-141-93-194.5-32.5q-196 0-383 83v-208h209v-79h-516v79h209v531h-209v79h307v-147q116 76 224 118t225 42q95 0 168-27t113.5-79 40.5-125zm-103-5q0 71-61.5 111.5t-172.5 40.5q-95 0-207.5-39t-226.5-109v-114q85-32 182.5-51t189.5-18q85-1 152.5 21.5t105.5 63.5 38 94z"/><path transform="translate(184.03 15.778) scale(.014 -.014)" d="m1044 23q-51-35-113-35-46 0-81 27t-48 72q-98-47-212-73.5t-225-26.5q-128 0-196.5 38t-68.5 108q0 77 85.5 118t241.5 41q184 0 368-52-5 84-72.5 125.5t-206.5 41.5q-169 0-382-66l-22 74q207 68 420 68 177 0 264.5-67t87.5-189v-75q0-41 19-61.5t47-20.5q35 0 67 22zm-657 42q89 0 199 21t210 57v41q-183 35-369 35-106 0-164.5-21.5t-58.5-60.5q0-36 44.5-54t138.5-18z"/><path transform="translate(198.76 15.778) scale(.014 -.014)" d="m1253 79v-79h-471v79h176v96q0 96-45.5 158.5t-159.5 62.5q-170 0-373-182v-135h177v-79h-485v79h210v313h-210v79h308v-177q89 82 186.5 135.5t203.5 53.5q153 0 219.5-89.5t66.5-226.5v-88z"/><path transform="translate(216.44 15.778) scale(.014 -.014)" d="m1110 23q-25-17-53-26t-65-9q-62 0-101.5 40t-39.5 113v5q-116-76-225-118.5t-225-42.5q-95 0-168 27t-113.5 79-40.5 125q0 81 52 141.5t140.5 93 194.5 32.5q191 0 385-83v207h-205v79h303v-529q0-44 18.5-65.5t46.5-21.5q36 0 70 23zm-259 196v110q-82 32-181 52t-193 20q-85 0-152-22.5t-105.5-63.5-38.5-94q0-70 62-111t172-41q95 0 208 39.5t228 110.5z"/><path transform="translate(232.75 15.778) scale(.014 -.014)" d="m896 82q-166-96-388-96-120 0-217.5 28t-154.5 82.5-57 132.5q0 77 58 135t158.5 89 223.5 31q164 0 259-42t95-119q0-73-84.5-110t-236.5-37q-173 0-378 66v-10q0-51 44.5-89.5t123-59 178.5-20.5q103 0 187 22.5t155 64.5zm-701 217q87-26 180-38.5t178-12.5q111 0 166.5 17.5t55.5 59.5-66 65-182 23q-110 0-202-30t-130-84z"/><path transform="translate(246.43 15.778) scale(.014 -.014)" d="m1110 23q-25-17-53-26t-65-9q-62 0-101.5 40t-39.5 113v5q-116-76-225-118.5t-225-42.5q-95 0-168 27t-113.5 79-40.5 125q0 81 52 141.5t140.5 93 194.5 32.5q191 0 385-83v207h-205v79h303v-529q0-44 18.5-65.5t46.5-21.5q36 0 70 23zm-259 196v110q-82 32-181 52t-193 20q-85 0-152-22.5t-105.5-63.5-38.5-94q0-70 62-111t172-41q95 0 208 39.5t228 110.5z"/></svg>