<svg width="168" height="16.8" viewBox="0 0 168 16.8" xmlns="http://www.w3.org/2000/svg"><path transform="translate(0 11.76) scale(.014 -.014)" d="m52 1-1-1h-1q-9 0-16.5 2.5t-13.5 7-10.5 10.5-7 13.5-2.5 16.5v1l1 1h51zm-4 0v51h51l1-1v-1q0-9-2.5-16.5t-7-13.5-10.5-10.5-13.5-7-16.5-2.5h-1zm0 98 1 1h1q9 0 16.5-2.5t13.5-7 10.5-10.5 7-13.5 2.5-16.5v-1l-1-1h-51zm4 0v-51h-51l-1 1v1q0 9 2.5 16.5t7 13.5 10.5 10.5 13.5 7 16.5 2.5h1zm0 2-1-1h-1q-9 0-16.5 2.5t-13.5 7-10.5 10.5-7 13.5-2.5 16.5v1l1 1h51zm-4 0v51h51l1-1v-1q0-9-2.5-16.5t-7-13.5-10.5-10.5-13.5-7-16.5-2.5h-1zm0 98 1 1h1q9 0 16.5-2.5t13.5-7 10.5-10.5 7-13.5 2.5-16.5v-1l-1-1h-51zm4 0v-51h-51l-1 1v1q0 9 2.5 16.5t7 13.5 10.5 10.5 13.5 7 16.5 2.5h1zm0 2-1-1h-1q-9 0-16.5 2.5t-13.5 7-10.5 10.5-7 13.5-2.5 16.5v1l1 1h51zm-4 0v51h51l1-1v-1q0-9-2.5-16.5t-7-13.5-10.5-10.5-13.5-7-16.5-2.5h-1zm0 98 1 1h1q9 0 16.5-2.5t13.5-7 10.5-10.5 7-13.5 2.5-16.5v-1l-1-1h-51zm4 0v-51h-51l-1 1v1q0 9 2.5 16.5t7 13.5 10.5 10.5 13.5 7 16.5 2.5h1zm0 2-1-1h-1q-9 0-16.5 2.5t-13.5 7-10.5 10.5-7 13.5-2.5 16.5v1l1 1h51zm-4 0v51h51l1-1v-1q0-9-2.5-16.5t-7-13.5-10.5-10.5-13.5-7-16.5-2.5h-1zm0 98 1 1h1q9 0 16.5-2.5t13.5-7 10.5-10.5 7-13.5 2.5-16.5v-1l-1-1h-51zm4 0v-51h-51l-1 1v1q0 9 2.5 16.5t7 13.5 10.5 10.5 13.5 7 16.5 2.5h1zm0 2-1-1h-1q-9 0-16.5 2.5t-13.5 7-10.5 10.5-7 13.5-2.5 16.5v1l1 1h51zm-4 0v51h51l1-1v-1q0-9-2.5-16.5t-7-13.5-10.5-10.5-13.5-7-16.5-2.5h-1zm0 98 1 1h1q9 0 16.5-2.5t13.5-7 10.5-10.5 7-13.5 2.5-16.5v-1l-1-1h-51zm4 0v-51h-51l-1 1v1q0 9 2.5 16.5t7 13.5 10.5 10.5 13.5 7 16.5 2.5h1zm0 2-1-1h-1q-9 0-16.5 2.5t-13.5 7-10.5 10.5-7 13.5-2.5 16.5v1l1 1h51zm-4 0v51h51l1-1v-1q0-9-2.5-16.5t-7-13.5-10.5-10.5-13.5-7-16.5-2.5h-1zm0 98 1 1h1q9 0 16.5-2.5t13.5-7 10.5-10.5 7-13.5 2.5-16.5v-1l-1-1h-51zm4 0v-51h-51l-1 1v1q0 9 2.5 16.5t7 13.5 10.5 10.5 13.5 7 16.5 2.5h1zm100-598-1-1h-1q-9 0-16.5 2.5t-13.5 7-10.5 10.5-7 13.5-2.5 16.5v1l1 1h51zm-4 0v51h51l1-1v-1q0-9-2.5-16.5t-7-13.5-10.5-10.5-13.5-7-16.5-2.5h-1zm0 98 1 1h1q9 0 16.5-2.5t13.5-7 10.5-10.5 7-13.5 2.5-16.5v-1l-1-1h-51zm4 0v-51h-51l-1 1v1q0 9 2.5 16.5t7 13.5 10.5 10.5 13.5 7 16.5 2.5h1zm0 202-1-1h-1q-9 0-16.5 2.5t-13.5 7-10.5 10.5-7 13.5-2.5 16.5v1l1 1h51zm-4 0v51h51l1-1v-1q0-9-2.5-16.5t-7-13.5-10.5-10.5-13.5-7-16.5-2.5h-1zm0 98 1 1h1q9 0 16.5-2.5t13.5-7 10.5-10.5 7-13.5 2.5-16.5v-1l-1-1h-51zm4 0v-51h-51l-1 1v1q0 9 2.5 16.5t7 13.5 10.5 10.5 13.5 7 16.5 2.5h1zm0 102-1-1h-1q-9 0-16.5 2.5t-13.5 7-10.5 10.5-7 13.5-2.5 16.5v1l1 1h51zm-4 0v51h51l1-1v-1q0-9-2.5-16.5t-7-13.5-10.5-10.5-13.5-7-16.5-2.5h-1zm0 98 1 1h1q9 0 16.5-2.5t13.5-7 10.5-10.5 7-13.5 2.5-16.5v-1l-1-1h-51zm4 0v-51h-51l-1 1v1q0 9 2.5 16.5t7 13.5 10.5 10.5 13.5 7 16.5 2.5h1zm100-598-1-1h-1q-9 0-16.5 2.5t-13.5 7-10.5 10.5-7 13.5-2.5 16.5v1l1 1h51zm-4 0v51h51l1-1v-1q0-9-2.5-16.5t-7-13.5-10.5-10.5-13.5-7-16.5-2.5h-1zm0 98 1 1h1q9 0 16.5-2.5t13.5-7 10.5-10.5 7-13.5 2.5-16.5v-1l-1-1h-51zm4 0v-51h-51l-1 1v1q0 9 2.5 16.5t7 13.5 10.5 10.5 13.5 7 16.5 2.5h1zm0 202-1-1h-1q-9 0-16.5 2.5t-13.5 7-10.5 10.5-7 13.5-2.5 16.5v1l1 1h51zm-4 0v51h51l1-1v-1q0-9-2.5-16.5t-7-13.5-10.5-10.5-13.5-7-16.5-2.5h-1zm0 98 1 1h1q9 0 16.5-2.5t13.5-7 10.5-10.5 7-13.5 2.5-16.5v-1l-1-1h-51zm4 0v-51h-51l-1 1v1q0 9 2.5 16.5t7 13.5 10.5 10.5 13.5 7 16.5 2.5h1zm0 102-1-1h-1q-9 0-16.5 2.5t-13.5 7-10.5 10.5-7 13.5-2.5 16.5v1l1 1h51zm-4 0v51h51l1-1v-1q0-9-2.5-16.5t-7-13.5-10.5-10.5-13.5-7-16.5-2.5h-1zm0 98 1 1h1q9 0 16.5-2.5t13.5-7 10.5-10.5 7-13.5 2.5-16.5v-1l-1-1h-51zm4 0v-51h-51l-1 1v1q0 9 2.5 16.5t7 13.5 10.5 10.5 13.5 7 16.5 2.5h1zm100-598-1-1h-1q-9 0-16.5 2.5t-13.5 7-10.5 10.5-7 13.5-2.5 16.5v1l1 1h51zm-4 0v51h51l1-1v-1q0-9-2.5-16.5t-7-13.5-10.5-10.5-13.5-7-16.5-2.5h-1zm0 98 1 1h1q9 0 16.5-2.5t13.5-7 10.5-10.5 7-13.5 2.5-16.5v-1l-1-1h-51zm4 0v-51h-51l-1 1v1q0 9 2.5 16.5t7 13.5 10.5 10.5 13.5 7 16.5 2.5h1zm0 202-1-1h-1q-9 0-16.5 2.5t-13.5 7-10.5 10.5-7 13.5-2.5 16.5v1l1 1h51zm-4 0v51h51l1-1v-1q0-9-2.5-16.5t-7-13.5-10.5-10.5-13.5-7-16.5-2.5h-1zm0 98 1 1h1q9 0 16.5-2.5t13.5-7 10.5-10.5 7-13.5 2.5-16.5v-1l-1-1h-51zm4 0v-51h-51l-1 1v1q0 9 2.5 16.5t7 13.5 10.5 10.5 13.5 7 16.5 2.5h1zm0 102-1-1h-1q-9 0-16.5 2.5t-13.5 7-10.5 10.5-7 13.5-2.5 16.5v1l1 1h51zm-4 0v51h51l1-1v-1q0-9-2.5-16.5t-7-13.5-10.5-10.5-13.5-7-16.5-2.5h-1zm0 98 1 1h1q9 0 16.5-2.5t13.5-7 10.5-10.5 7-13.5 2.5-16.5v-1l-1-1h-51zm4 0v-51h-51l-1 1v1q0 9 2.5 16.5t7 13.5 10.5 10.5 13.5 7 16.5 2.5h1zm100-498-1-1h-1q-9 0-16.5 2.5t-13.5 7-10.5 10.5-7 13.5-2.5 16.5v1l1 1h51zm-4 0v51h51l1-1v-1q0-9-2.5-16.5t-7-13.5-10.5-10.5-13.5-7-16.5-2.5h-1zm0 98 1 1h1q9 0 16.5-2.5t13.5-7 10.5-10.5 7-13.5 2.5-16.5v-1l-1-1h-51zm4 0v-51h-51l-1 1v1q0 9 2.5 16.5t7 13.5 10.5 10.5 13.5 7 16.5 2.5h1zm0 2-1-1h-1q-9 0-16.5 2.5t-13.5 7-10.5 10.5-7 13.5-2.5 16.5v1l1 1h51zm-4 0v51h51l1-1v-1q0-9-2.5-16.5t-7-13.5-10.5-10.5-13.5-7-16.5-2.5h-1zm0 98 1 1h1q9 0 16.5-2.5t13.5-7 10.5-10.5 7-13.5 2.5-16.5v-1l-1-1h-51zm4 0v-51h-51l-1 1v1q0 9 2.5 16.5t7 13.5 10.5 10.5 13.5 7 16.5 2.5h1zm0 102-1-1h-1q-9 0-16.5 2.5t-13.5 7-10.5 10.5-7 13.5-2.5 16.5v1l1 1h51zm-4 0v51h51l1-1v-1q0-9-2.5-16.5t-7-13.5-10.5-10.5-13.5-7-16.5-2.5h-1zm0 98 1 1h1q9 0 16.5-2.5t13.5-7 10.5-10.5 7-13.5 2.5-16.5v-1l-1-1h-51zm4 0v-51h-51l-1 1v1q0 9 2.5 16.5t7 13.5 10.5 10.5 13.5 7 16.5 2.5h1z"/><path transform="translate(8.4 11.76) scale(.014 -.014)" d="m52 1-1-1h-1q-9 0-16.5 2.5t-13.5 7-10.5 10.5-7 13.5-2.5 16.5v1l1 1h51zm-4 0v51h51l1-1v-1q0-9-2.5-16.5t-7-13.5-10.5-10.5-13.5-7-16.5-2.5h-1zm0 98 1 1h1q9 0 16.5-2.5t13.5-7 10.5-10.5 7-13.5 2.5-16.5v-1l-1-1h-51zm4 0v-51h-51l-1 1v1q0 9 2.5 16.5t7 13.5 10.5 10.5 13.5 7 16.5 2.5h1zm0 202-1-1h-1q-9 0-16.5 2.5t-13.5 7-10.5 10.5-7 13.5-2.5 16.5v1l1 1h51zm-4 0v51h51l1-1v-1q0-9-2.5-16.5t-7-13.5-10.5-10.5-13.5-7-16.5-2.5h-1zm0 98 1 1h1q9 0 16.5-2.5t13.5-7 10.5-10.5 7-13.5 2.5-16.5v-1l-1-1h-51zm4 0v-51h-51l-1 1v1q0 9 2.5 16.5t7 13.5 10.5 10.5 13.5 7 16.5 2.5h1zm100-398-1-1h-1q-9 0-16.5 2.5t-13.5 7-10.5 10.5-7 13.5-2.5 16.5v1l1 1h51zm-4 0v51h51l1-1v-1q0-9-2.5-16.5t-7-13.5-10.5-10.5-13.5-7-16.5-2.5h-1zm0 98 1 1h1q9 0 16.5-2.5t13.5-7 10.5-10.5 7-13.5 2.5-16.5v-1l-1-1h-51zm4 0v-51h-51l-1 1v1q0 9 2.5 16.5t7 13.5 10.5 10.5 13.5 7 16.5 2.5h1zm0 202-1-1h-1q-9 0-16.5 2.5t-13.5 7-10.5 10.5-7 13.5-2.5 16.5v1l1 1h51zm-4 0v51h51l1-1v-1q0-9-2.5-16.5t-7-13.5-10.5-10.5-13.5-7-16.5-2.5h-1zm0 98 1 1h1q9 0 16.5-2.5t13.5-7 10.5-10.5 7-13.5 2.5-16.5v-1l-1-1h-51zm4 0v-51h-51l-1 1v1q0 9 2.5 16.5t7 13.5 10.5 10.5 13.5 7 16.5 2.5h1zm100-398-1-1h-1q-9 0-16.5 2.5t-13.5 7-10.5 10.5-7 13.5-2.5 16.5v1l1 1h51zm-4 0v51h51l1-1v-1q0-9-2.5-16.5t-7-13.5-10.5-10.5-13.5-7-16.5-2.5h-1zm0 98 1 1h1q9 0 16.5-2.5t13.5-7 10.5-10.5 7-13.5 2.5-16.5v-1l-1-1h-51zm4 0v-51h-51l-1 1v1q0 9 2.5 16.5t7 13.5 10.5 10.5 13.5 7 16.5 2.5h1zm0 2-1-1h-1q-9 0-16.5 2.5t-13.5 7-10.5 10.5-7 13.5-2.5 16.5v1l1 1h51zm-4 0v51h51l1-1v-1q0-9-2.5-16.5t-7-13.5-10.5-10.5-13.5-7-16.5-2.5h-1zm0 98 1 1h1q9 0 16.5-2.5t13.5-7 10.5-10.5 7-13.5 2.5-16.5v-1l-1-1h-51zm4 0v-51h-51l-1 1v1q0 9 2.5 16.5t7 13.5 10.5 10.5 13.5 7 16.5 2.5h1zm0 2-1-1h-1q-9 0-16.5 2.5t-13.5 7-10.5 10.5-7 13.5-2.5 16.5v1l1 1h51zm-4 0v51h51l1-1v-1q0-9-2.5-16.5t-7-13.5-10.5-10.5-13.5-7-16.5-2.5h-1zm0 98 1 1h1q9 0 16.5-2.5t13.5-7 10.5-10.5 7-13.5 2.5-16.5v-1l-1-1h-51zm4 0v-51h-51l-1 1v1q0 9 2.5 16.5t7 13.5 10.5 10.5 13.5 7 16.5 2.5h1zm0 2-1-1h-1q-9 0-16.5 2.5t-13.5 7-10.5 10.5-7 13.5-2.5 16.5v1l1 1h51zm-4 0v51h51l1-1v-1q0-9-2.5-16.5t-7-13.5-10.5-10.5-13.5-7-16.5-2.5h-1zm0 98 1 1h1q9 0 16.5-2.5t13.5-7 10.5-10.5 7-13.5 2.5-16.5v-1l-1-1h-51zm4 0v-51h-51l-1 1v1q0 9 2.5 16.5t7 13.5 10.5 10.5 13.5 7 16.5 2.5h1zm0 102-1-1h-1q-9 0-16.5 2.5t-13.5 7-10.5 10.5-7 13.5-2.5 16.5v1l1 1h51zm-4 0v51h51l1-1v-1q0-9-2.5-16.5t-7-13.5-10.5-10.5-13.5-7-16.5-2.5h-1zm0 98 1 1h1q9 0 16.5-2.5t13.5-7 10.5-10.5 7-13.5 2.5-16.5v-1l-1-1h-51zm4 0v-51h-51l-1 1v1q0 9 2.5 16.5t7 13.5 10.5 10.5 13.5 7 16.5 2.5h1zm100-598-1-1h-1q-9 0-16.5 2.5t-13.5 7-10.5 10.5-7 13.5-2.5 16.5v1l1 1h51zm-4 0v51h51l1-1v-1q0-9-2.5-16.5t-7-13.5-10.5-10.5-13.5-7-16.5-2.5h-1zm0 98 1 1h1q9 0 16.5-2.5t13.5-7 10.5-10.5 7-13.5 2.5-16.5v-1l-1-1h-51zm4 0v-51h-51l-1 1v1q0 9 2.5 16.5t7 13.5 10.5 10.5 13.5 7 16.5 2.5h1zm100-98-1-1h-1q-9 0-16.5 2.5t-13.5 7-10.5 10.5-7 13.5-2.5 16.5v1l1 1h51zm-4 0v51h51l1-1v-1q0-9-2.5-16.5t-7-13.5-10.5-10.5-13.5-7-16.5-2.5h-1zm0 98 1 1h1q9 0 16.5-2.5t13.5-7 10.5-10.5 7-13.5 2.5-16.5v-1l-1-1h-51zm4 0v-51h-51l-1 1v1q0 9 2.5 16.5t7 13.5 10.5 10.5 13.5 7 16.5 2.5h1z"/><path transform="translate(16.8 11.76) scale(.014 -.014)" d="m52 401-1-1h-1q-9 0-16.5 2.5t-13.5 7-10.5 10.5-7 13.5-2.5 16.5v1l1 1h51zm-4 0v51h51l1-1v-1q0-9-2.5-16.5t-7-13.5-10.5-10.5-13.5-7-16.5-2.5h-1zm0 98 1 1h1q9 0 16.5-2.5t13.5-7 10.5-10.5 7-13.5 2.5-16.5v-1l-1-1h-51zm4 0v-51h-51l-1 1v1q0 9 2.5 16.5t7 13.5 10.5 10.5 13.5 7 16.5 2.5h1zm100-398-1-1h-1q-9 0-16.5 2.5t-13.5 7-10.5 10.5-7 13.5-2.5 16.5v1l1 1h51zm-4 0v51h51l1-1v-1q0-9-2.5-16.5t-7-13.5-10.5-10.5-13.5-7-16.5-2.5h-1zm0 98 1 1h1q9 0 16.5-2.5t13.5-7 10.5-10.5 7-13.5 2.5-16.5v-1l-1-1h-51zm4 0v-51h-51l-1 1v1q0 9 2.5 16.5t7 13.5 10.5 10.5 13.5 7 16.5 2.5h1zm0 2-1-1h-1q-9 0-16.5 2.5t-13.5 7-10.5 10.5-7 13.5-2.5 16.5v1l1 1h51zm-4 0v51h51l1-1v-1q0-9-2.5-16.5t-7-13.5-10.5-10.5-13.5-7-16.5-2.5h-1zm0 98 1 1h1q9 0 16.5-2.5t13.5-7 10.5-10.5 7-13.5 2.5-16.5v-1l-1-1h-51zm4 0v-51h-51l-1 1v1q0 9 2.5 16.5t7 13.5 10.5 10.5 13.5 7 16.5 2.5h1zm0 2-1-1h-1q-9 0-16.5 2.5t-13.5 7-10.5 10.5-7 13.5-2.5 16.5v1l1 1h51zm-4 0v51h51l1-1v-1q0-9-2.5-16.5t-7-13.5-10.5-10.5-13.5-7-16.5-2.5h-1zm0 98 1 1h1q9 0 16.5-2.5t13.5-7 10.5-10.5 7-13.5 2.5-16.5v-1l-1-1h-51zm4 0v-51h-51l-1 1v1q0 9 2.5 16.5t7 13.5 10.5 10.5 13.5 7 16.5 2.5h1zm0 2-1-1h-1q-9 0-16.5 2.5t-13.5 7-10.5 10.5-7 13.5-2.5 16.5v1l1 1h51zm-4 0v51h51l1-1v-1q0-9-2.5-16.5t-7-13.5-10.5-10.5-13.5-7-16.5-2.5h-1zm0 98 1 1h1q9 0 16.5-2.5t13.5-7 10.5-10.5 7-13.5 2.5-16.5v-1l-1-1h-51zm4 0v-51h-51l-1 1v1q0 9 2.5 16.5t7 13.5 10.5 10.5 13.5 7 16.5 2.5h1zm0 2-1-1h-1q-9 0-16.5 2.5t-13.5 7-10.5 10.5-7 13.5-2.5 16.5v1l1 1h51zm-4 0v51h51l1-1v-1q0-9-2.5-16.5t-7-13.5-10.5-10.5-13.5-7-16.5-2.5h-1zm0 98 1 1h1q9 0 16.5-2.5t13.5-7 10.5-10.5 7-13.5 2.5-16.5v-1l-1-1h-51zm4 0v-51h-51l-1 1v1q0 9 2.5 16.5t7 13.5 10.5 10.5 13.5 7 16.5 2.5h1zm100-598-1-1h-1q-9 0-16.5 2.5t-13.5 7-10.5 10.5-7 13.5-2.5 16.5v1l1 1h51zm-4 0v51h51l1-1v-1q0-9-2.5-16.5t-7-13.5-10.5-10.5-13.5-7-16.5-2.5h-1zm0 98 1 1h1q9 0 16.5-2.5t13.5-7 10.5-10.5 7-13.5 2.5-16.5v-1l-1-1h-51zm4 0v-51h-51l-1 1v1q0 9 2.5 16.5t7 13.5 10.5 10.5 13.5 7 16.5 2.5h1zm0 302-1-1h-1q-9 0-16.5 2.5t-13.5 7-10.5 10.5-7 13.5-2.5 16.5v1l1 1h51zm-4 0v51h51l1-1v-1q0-9-2.5-16.5t-7-13.5-10.5-10.5-13.5-7-16.5-2.5h-1zm0 98 1 1h1q9 0 16.5-2.5t13.5-7 10.5-10.5 7-13.5 2.5-16.5v-1l-1-1h-51zm4 0v-51h-51l-1 1v1q0 9 2.5 16.5t7 13.5 10.5 10.5 13.5 7 16.5 2.5h1zm100-498-1-1h-1q-9 0-16.5 2.5t-13.5 7-10.5 10.5-7 13.5-2.5 16.5v1l1 1h51zm-4 0v51h51l1-1v-1q0-9-2.5-16.5t-7-13.5-10.5-10.5-13.5-7-16.5-2.5h-1zm0 98 1 1h1q9 0 16.5-2.5t13.5-7 10.5-10.5 7-13.5 2.5-16.5v-1l-1-1h-51zm4 0v-51h-51l-1 1v1q0 9 2.5 16.5t7 13.5 10.5 10.5 13.5 7 16.5 2.5h1zm0 302-1-1h-1q-9 0-16.5 2.5t-13.5 7-10.5 10.5-7 13.5-2.5 16.5v1l1 1h51zm-4 0v51h51l1-1v-1q0-9-2.5-16.5t-7-13.5-10.5-10.5-13.5-7-16.5-2.5h-1zm0 98 1 1h1q9 0 16.5-2.5t13.5-7 10.5-10.5 7-13.5 2.5-16.5v-1l-1-1h-51zm4 0v-51h-51l-1 1v1q0 9 2.5 16.5t7 13.5 10.5 10.5 13.5 7 16.5 2.5h1zm100-498-1-1h-1q-9 0-16.5 2.5t-13.5 7-10.5 10.5-7 13.5-2.5 16.5v1l1 1h51zm-4 0v51h51l1-1v-1q0-9-2.5-16.5t-7-13.5-10.5-10.5-13.5-7-16.5-2.5h-1zm0 98 1 1h1q9 0 16.5-2.5t13.5-7 10.5-10.5 7-13.5 2.5-16.5v-1l-1-1h-51zm4 0v-51h-51l-1 1v1q0 9 2.5 16.5t7 13.5 10.5 10.5 13.5 7 16.5 2.5h1zm0 302-1-1h-1q-9 0-16.5 2.5t-13.5 7-10.5 10.5-7 13.5-2.5 16.5v1l1 1h51zm-4 0v51h51l1-1v-1q0-9-2.5-16.5t-7-13.5-10.5-10.5-13.5-7-16.5-2.5h-1zm0 98 1 1h1q9 0 16.5-2.5t13.5-7 10.5-10.5 7-13.5 2.5-16.5v-1l-1-1h-51zm4 0v-51h-51l-1 1v1q0 9 2.5 16.5t7 13.5 10.5 10.5 13.5 7 16.5 2.5h1z"/><path transform="translate(25.2 11.76) scale(.014 -.014)" d="m52 101-1-1h-1q-9 0-16.5 2.5t-13.5 7-10.5 10.5-7 13.5-2.5 16.5v1l1 1h51zm-4 0v51h51l1-1v-1q0-9-2.5-16.5t-7-13.5-10.5-10.5-13.5-7-16.5-2.5h-1zm0 98 1 1h1q9 0 16.5-2.5t13.5-7 10.5-10.5 7-13.5 2.5-16.5v-1l-1-1h-51zm4 0v-51h-51l-1 1v1q0 9 2.5 16.5t7 13.5 10.5 10.5 13.5 7 16.5 2.5h1zm0 2-1-1h-1q-9 0-16.5 2.5t-13.5 7-10.5 10.5-7 13.5-2.5 16.5v1l1 1h51zm-4 0v51h51l1-1v-1q0-9-2.5-16.5t-7-13.5-10.5-10.5-13.5-7-16.5-2.5h-1zm0 98 1 1h1q9 0 16.5-2.5t13.5-7 10.5-10.5 7-13.5 2.5-16.5v-1l-1-1h-51zm4 0v-51h-51l-1 1v1q0 9 2.5 16.5t7 13.5 10.5 10.5 13.5 7 16.5 2.5h1zm0 2-1-1h-1q-9 0-16.5 2.5t-13.5 7-10.5 10.5-7 13.5-2.5 16.5v1l1 1h51zm-4 0v51h51l1-1v-1q0-9-2.5-16.5t-7-13.5-10.5-10.5-13.5-7-16.5-2.5h-1zm0 98 1 1h1q9 0 16.5-2.5t13.5-7 10.5-10.5 7-13.5 2.5-16.5v-1l-1-1h-51zm4 0v-51h-51l-1 1v1q0 9 2.5 16.5t7 13.5 10.5 10.5 13.5 7 16.5 2.5h1zm100-398-1-1h-1q-9 0-16.5 2.5t-13.5 7-10.5 10.5-7 13.5-2.5 16.5v1l1 1h51zm-4 0v51h51l1-1v-1q0-9-2.5-16.5t-7-13.5-10.5-10.5-13.5-7-16.5-2.5h-1zm0 98 1 1h1q9 0 16.5-2.5t13.5-7 10.5-10.5 7-13.5 2.5-16.5v-1l-1-1h-51zm4 0v-51h-51l-1 1v1q0 9 2.5 16.5t7 13.5 10.5 10.5 13.5 7 16.5 2.5h1zm0 302-1-1h-1q-9 0-16.5 2.5t-13.5 7-10.5 10.5-7 13.5-2.5 16.5v1l1 1h51zm-4 0v51h51l1-1v-1q0-9-2.5-16.5t-7-13.5-10.5-10.5-13.5-7-16.5-2.5h-1zm0 98 1 1h1q9 0 16.5-2.5t13.5-7 10.5-10.5 7-13.5 2.5-16.5v-1l-1-1h-51zm4 0v-51h-51l-1 1v1q0 9 2.5 16.5t7 13.5 10.5 10.5 13.5 7 16.5 2.5h1zm100-498-1-1h-1q-9 0-16.5 2.5t-13.5 7-10.5 10.5-7 13.5-2.5 16.5v1l1 1h51zm-4 0v51h51l1-1v-1q0-9-2.5-16.5t-7-13.5-10.5-10.5-13.5-7-16.5-2.5h-1zm0 98 1 1h1q9 0 16.5-2.5t13.5-7 10.5-10.5 7-13.5 2.5-16.5v-1l-1-1h-51zm4 0v-51h-51l-1 1v1q0 9 2.5 16.5t7 13.5 10.5 10.5 13.5 7 16.5 2.5h1zm0 302-1-1h-1q-9 0-16.5 2.5t-13.5 7-10.5 10.5-7 13.5-2.5 16.5v1l1 1h51zm-4 0v51h51l1-1v-1q0-9-2.5-16.5t-7-13.5-10.5-10.5-13.5-7-16.5-2.5h-1zm0 98 1 1h1q9 0 16.5-2.5t13.5-7 10.5-10.5 7-13.5 2.5-16.5v-1l-1-1h-51zm4 0v-51h-51l-1 1v1q0 9 2.5 16.5t7 13.5 10.5 10.5 13.5 7 16.5 2.5h1zm100-498-1-1h-1q-9 0-16.5 2.5t-13.5 7-10.5 10.5-7 13.5-2.5 16.5v1l1 1h51zm-4 0v51h51l1-1v-1q0-9-2.5-16.5t-7-13.5-10.5-10.5-13.5-7-16.5-2.5h-1zm0 98 1 1h1q9 0 16.5-2.5t13.5-7 10.5-10.5 7-13.5 2.5-16.5v-1l-1-1h-51zm4 0v-51h-51l-1 1v1q0 9 2.5 16.5t7 13.5 10.5 10.5 13.5 7 16.5 2.5h1zm0 302-1-1h-1q-9 0-16.5 2.5t-13.5 7-10.5 10.5-7 13.5-2.5 16.5v1l1 1h51zm-4 0v51h51l1-1v-1q0-9-2.5-16.5t-7-13.5-10.5-10.5-13.5-7-16.5-2.5h-1zm0 98 1 1h1q9 0 16.5-2.5t13.5-7 10.5-10.5 7-13.5 2.5-16.5v-1l-1-1h-51zm4 0v-51h-51l-1 1v1q0 9 2.5 16.5t7 13.5 10.5 10.5 13.5 7 16.5 2.5h1zm100-398-1-1h-1q-9 0-16.5 2.5t-13.5 7-10.5 10.5-7 13.5-2.5 16.5v1l1 1h51zm-4 0v51h51l1-1v-1q0-9-2.5-16.5t-7-13.5-10.5-10.5-13.5-7-16.5-2.5h-1zm0 98 1 1h1q9 0 16.5-2.5t13.5-7 10.5-10.5 7-13.5 2.5-16.5v-1l-1-1h-51zm4 0v-51h-51l-1 1v1q0 9 2.5 16.5t7 13.5 10.5 10.5 13.5 7 16.5 2.5h1zm0 202-1-1h-1q-9 0-16.5 2.5t-13.5 7-10.5 10.5-7 13.5-2.5 16.5v1l1 1h51zm-4 0v51h51l1-1v-1q0-9-2.5-16.5t-7-13.5-10.5-10.5-13.5-7-16.5-2.5h-1zm0 98 1 1h1q9 0 16.5-2.5t13.5-7 10.5-10.5 7-13.5 2.5-16.5v-1l-1-1h-51zm4 0v-51h-51l-1 1v1q0 9 2.5 16.5t7 13.5 10.5 10.5 13.5 7 16.5 2.5h1z"/><path transform="translate(33.6 11.76) scale(.014 -.014)" d="m52 101-1-1h-1q-9 0-16.5 2.5t-13.5 7-10.5 10.5-7 13.5-2.5 16.5v1l1 1h51zm-4 0v51h51l1-1v-1q0-9-2.5-16.5t-7-13.5-10.5-10.5-13.5-7-16.5-2.5h-1zm0 98 1 1h1q9 0 16.5-2.5t13.5-7 10.5-10.5 7-13.5 2.5-16.5v-1l-1-1h-51zm4 0v-51h-51l-1 1v1q0 9 2.5 16.5t7 13.5 10.5 10.5 13.5 7 16.5 2.5h1zm0 2-1-1h-1q-9 0-16.5 2.5t-13.5 7-10.5 10.5-7 13.5-2.5 16.5v1l1 1h51zm-4 0v51h51l1-1v-1q0-9-2.5-16.5t-7-13.5-10.5-10.5-13.5-7-16.5-2.5h-1zm0 98 1 1h1q9 0 16.5-2.5t13.5-7 10.5-10.5 7-13.5 2.5-16.5v-1l-1-1h-51zm4 0v-51h-51l-1 1v1q0 9 2.5 16.5t7 13.5 10.5 10.5 13.5 7 16.5 2.5h1zm0 2-1-1h-1q-9 0-16.5 2.5t-13.5 7-10.5 10.5-7 13.5-2.5 16.5v1l1 1h51zm-4 0v51h51l1-1v-1q0-9-2.5-16.5t-7-13.5-10.5-10.5-13.5-7-16.5-2.5h-1zm0 98 1 1h1q9 0 16.5-2.5t13.5-7 10.5-10.5 7-13.5 2.5-16.5v-1l-1-1h-51zm4 0v-51h-51l-1 1v1q0 9 2.5 16.5t7 13.5 10.5 10.5 13.5 7 16.5 2.5h1zm100-398-1-1h-1q-9 0-16.5 2.5t-13.5 7-10.5 10.5-7 13.5-2.5 16.5v1l1 1h51zm-4 0v51h51l1-1v-1q0-9-2.5-16.5t-7-13.5-10.5-10.5-13.5-7-16.5-2.5h-1zm0 98 1 1h1q9 0 16.5-2.5t13.5-7 10.5-10.5 7-13.5 2.5-16.5v-1l-1-1h-51zm4 0v-51h-51l-1 1v1q0 9 2.5 16.5t7 13.5 10.5 10.5 13.5 7 16.5 2.5h1zm0 302-1-1h-1q-9 0-16.5 2.5t-13.5 7-10.5 10.5-7 13.5-2.5 16.5v1l1 1h51zm-4 0v51h51l1-1v-1q0-9-2.5-16.5t-7-13.5-10.5-10.5-13.5-7-16.5-2.5h-1zm0 98 1 1h1q9 0 16.5-2.5t13.5-7 10.5-10.5 7-13.5 2.5-16.5v-1l-1-1h-51zm4 0v-51h-51l-1 1v1q0 9 2.5 16.5t7 13.5 10.5 10.5 13.5 7 16.5 2.5h1zm100-498-1-1h-1q-9 0-16.5 2.5t-13.5 7-10.5 10.5-7 13.5-2.5 16.5v1l1 1h51zm-4 0v51h51l1-1v-1q0-9-2.5-16.5t-7-13.5-10.5-10.5-13.5-7-16.5-2.5h-1zm0 98 1 1h1q9 0 16.5-2.5t13.5-7 10.5-10.5 7-13.5 2.5-16.5v-1l-1-1h-51zm4 0v-51h-51l-1 1v1q0 9 2.5 16.5t7 13.5 10.5 10.5 13.5 7 16.5 2.5h1zm0 302-1-1h-1q-9 0-16.5 2.5t-13.5 7-10.5 10.5-7 13.5-2.5 16.5v1l1 1h51zm-4 0v51h51l1-1v-1q0-9-2.5-16.5t-7-13.5-10.5-10.5-13.5-7-16.5-2.5h-1zm0 98 1 1h1q9 0 16.5-2.5t13.5-7 10.5-10.5 7-13.5 2.5-16.5v-1l-1-1h-51zm4 0v-51h-51l-1 1v1q0 9 2.5 16.5t7 13.5 10.5 10.5 13.5 7 16.5 2.5h1zm100-498-1-1h-1q-9 0-16.5 2.5t-13.5 7-10.5 10.5-7 13.5-2.5 16.5v1l1 1h51zm-4 0v51h51l1-1v-1q0-9-2.5-16.5t-7-13.5-10.5-10.5-13.5-7-16.5-2.5h-1zm0 98 1 1h1q9 0 16.5-2.5t13.5-7 10.5-10.5 7-13.5 2.5-16.5v-1l-1-1h-51zm4 0v-51h-51l-1 1v1q0 9 2.5 16.5t7 13.5 10.5 10.5 13.5 7 16.5 2.5h1zm0 302-1-1h-1q-9 0-16.5 2.5t-13.5 7-10.5 10.5-7 13.5-2.5 16.5v1l1 1h51zm-4 0v51h51l1-1v-1q0-9-2.5-16.5t-7-13.5-10.5-10.5-13.5-7-16.5-2.5h-1zm0 98 1 1h1q9 0 16.5-2.5t13.5-7 10.5-10.5 7-13.5 2.5-16.5v-1l-1-1h-51zm4 0v-51h-51l-1 1v1q0 9 2.5 16.5t7 13.5 10.5 10.5 13.5 7 16.5 2.5h1zm100-398-1-1h-1q-9 0-16.5 2.5t-13.5 7-10.5 10.5-7 13.5-2.5 16.5v1l1 1h51zm-4 0v51h51l1-1v-1q0-9-2.5-16.5t-7-13.5-10.5-10.5-13.5-7-16.5-2.5h-1zm0 98 1 1h1q9 0 16.5-2.5t13.5-7 10.5-10.5 7-13.5 2.5-16.5v-1l-1-1h-51zm4 0v-51h-51l-1 1v1q0 9 2.5 16.5t7 13.5 10.5 10.5 13.5 7 16.5 2.5h1zm0 2-1-1h-1q-9 0-16.5 2.5t-13.5 7-10.5 10.5-7 13.5-2.5 16.5v1l1 1h51zm-4 0v51h51l1-1v-1q0-9-2.5-16.5t-7-13.5-10.5-10.5-13.5-7-16.5-2.5h-1zm0 98 1 1h1q9 0 16.5-2.5t13.5-7 10.5-10.5 7-13.5 2.5-16.5v-1l-1-1h-51zm4 0v-51h-51l-1 1v1q0 9 2.5 16.5t7 13.5 10.5 10.5 13.5 7 16.5 2.5h1zm0 2-1-1h-1q-9 0-16.5 2.5t-13.5 7-10.5 10.5-7 13.5-2.5 16.5v1l1 1h51zm-4 0v51h51l1-1v-1q0-9-2.5-16.5t-7-13.5-10.5-10.5-13.5-7-16.5-2.5h-1zm0 98 1 1h1q9 0 16.5-2.5t13.5-7 10.5-10.5 7-13.5 2.5-16.5v-1l-1-1h-51zm4 0v-51h-51l-1 1v1q0 9 2.5 16.5t7 13.5 10.5 10.5 13.5 7 16.5 2.5h1z"/><path transform="translate(42 11.76) scale(.014 -.014)" d="m52 101-1-1h-1q-9 0-16.5 2.5t-13.5 7-10.5 10.5-7 13.5-2.5 16.5v1l1 1h51zm-4 0v51h51l1-1v-1q0-9-2.5-16.5t-7-13.5-10.5-10.5-13.5-7-16.5-2.5h-1zm0 98 1 1h1q9 0 16.5-2.5t13.5-7 10.5-10.5 7-13.5 2.5-16.5v-1l-1-1h-51zm4 0v-51h-51l-1 1v1q0 9 2.5 16.5t7 13.5 10.5 10.5 13.5 7 16.5 2.5h1zm0 2-1-1h-1q-9 0-16.5 2.5t-13.5 7-10.5 10.5-7 13.5-2.5 16.5v1l1 1h51zm-4 0v51h51l1-1v-1q0-9-2.5-16.5t-7-13.5-10.5-10.5-13.5-7-16.5-2.5h-1zm0 98 1 1h1q9 0 16.5-2.5t13.5-7 10.5-10.5 7-13.5 2.5-16.5v-1l-1-1h-51zm4 0v-51h-51l-1 1v1q0 9 2.5 16.5t7 13.5 10.5 10.5 13.5 7 16.5 2.5h1zm0 2-1-1h-1q-9 0-16.5 2.5t-13.5 7-10.5 10.5-7 13.5-2.5 16.5v1l1 1h51zm-4 0v51h51l1-1v-1q0-9-2.5-16.5t-7-13.5-10.5-10.5-13.5-7-16.5-2.5h-1zm0 98 1 1h1q9 0 16.5-2.5t13.5-7 10.5-10.5 7-13.5 2.5-16.5v-1l-1-1h-51zm4 0v-51h-51l-1 1v1q0 9 2.5 16.5t7 13.5 10.5 10.5 13.5 7 16.5 2.5h1zm0 2-1-1h-1q-9 0-16.5 2.5t-13.5 7-10.5 10.5-7 13.5-2.5 16.5v1l1 1h51zm-4 0v51h51l1-1v-1q0-9-2.5-16.5t-7-13.5-10.5-10.5-13.5-7-16.5-2.5h-1zm0 98 1 1h1q9 0 16.5-2.5t13.5-7 10.5-10.5 7-13.5 2.5-16.5v-1l-1-1h-51zm4 0v-51h-51l-1 1v1q0 9 2.5 16.5t7 13.5 10.5 10.5 13.5 7 16.5 2.5h1zm100-498-1-1h-1q-9 0-16.5 2.5t-13.5 7-10.5 10.5-7 13.5-2.5 16.5v1l1 1h51zm-4 0v51h51l1-1v-1q0-9-2.5-16.5t-7-13.5-10.5-10.5-13.5-7-16.5-2.5h-1zm0 98 1 1h1q9 0 16.5-2.5t13.5-7 10.5-10.5 7-13.5 2.5-16.5v-1l-1-1h-51zm4 0v-51h-51l-1 1v1q0 9 2.5 16.5t7 13.5 10.5 10.5 13.5 7 16.5 2.5h1zm100-98-1-1h-1q-9 0-16.5 2.5t-13.5 7-10.5 10.5-7 13.5-2.5 16.5v1l1 1h51zm-4 0v51h51l1-1v-1q0-9-2.5-16.5t-7-13.5-10.5-10.5-13.5-7-16.5-2.5h-1zm0 98 1 1h1q9 0 16.5-2.5t13.5-7 10.5-10.5 7-13.5 2.5-16.5v-1l-1-1h-51zm4 0v-51h-51l-1 1v1q0 9 2.5 16.5t7 13.5 10.5 10.5 13.5 7 16.5 2.5h1zm100 2-1-1h-1q-9 0-16.5 2.5t-13.5 7-10.5 10.5-7 13.5-2.5 16.5v1l1 1h51zm-4 0v51h51l1-1v-1q0-9-2.5-16.5t-7-13.5-10.5-10.5-13.5-7-16.5-2.5h-1zm0 98 1 1h1q9 0 16.5-2.5t13.5-7 10.5-10.5 7-13.5 2.5-16.5v-1l-1-1h-51zm4 0v-51h-51l-1 1v1q0 9 2.5 16.5t7 13.5 10.5 10.5 13.5 7 16.5 2.5h1zm100-198-1-1h-1q-9 0-16.5 2.5t-13.5 7-10.5 10.5-7 13.5-2.5 16.5v1l1 1h51zm-4 0v51h51l1-1v-1q0-9-2.5-16.5t-7-13.5-10.5-10.5-13.5-7-16.5-2.5h-1zm0 98 1 1h1q9 0 16.5-2.5t13.5-7 10.5-10.5 7-13.5 2.5-16.5v-1l-1-1h-51zm4 0v-51h-51l-1 1v1q0 9 2.5 16.5t7 13.5 10.5 10.5 13.5 7 16.5 2.5h1zm0 2-1-1h-1q-9 0-16.5 2.5t-13.5 7-10.5 10.5-7 13.5-2.5 16.5v1l1 1h51zm-4 0v51h51l1-1v-1q0-9-2.5-16.5t-7-13.5-10.5-10.5-13.5-7-16.5-2.5h-1zm0 98 1 1h1q9 0 16.5-2.5t13.5-7 10.5-10.5 7-13.5 2.5-16.5v-1l-1-1h-51zm4 0v-51h-51l-1 1v1q0 9 2.5 16.5t7 13.5 10.5 10.5 13.5 7 16.5 2.5h1zm0 2-1-1h-1q-9 0-16.5 2.5t-13.5 7-10.5 10.5-7 13.5-2.5 16.5v1l1 1h51zm-4 0v51h51l1-1v-1q0-9-2.5-16.5t-7-13.5-10.5-10.5-13.5-7-16.5-2.5h-1zm0 98 1 1h1q9 0 16.5-2.5t13.5-7 10.5-10.5 7-13.5 2.5-16.5v-1l-1-1h-51zm4 0v-51h-51l-1 1v1q0 9 2.5 16.5t7 13.5 10.5 10.5 13.5 7 16.5 2.5h1zm0 2-1-1h-1q-9 0-16.5 2.5t-13.5 7-10.5 10.5-7 13.5-2.5 16.5v1l1 1h51zm-4 0v51h51l1-1v-1q0-9-2.5-16.5t-7-13.5-10.5-10.5-13.5-7-16.5-2.5h-1zm0 98 1 1h1q9 0 16.5-2.5t13.5-7 10.5-10.5 7-13.5 2.5-16.5v-1l-1-1h-51zm4 0v-51h-51l-1 1v1q0 9 2.5 16.5t7 13.5 10.5 10.5 13.5 7 16.5 2.5h1zm0 2-1-1h-1q-9 0-16.5 2.5t-13.5 7-10.5 10.5-7 13.5-2.5 16.5v1l1 1h51zm-4 0v51h51l1-1v-1q0-9-2.5-16.5t-7-13.5-10.5-10.5-13.5-7-16.5-2.5h-1zm0 98 1 1h1q9 0 16.5-2.5t13.5-7 10.5-10.5 7-13.5 2.5-16.5v-1l-1-1h-51zm4 0v-51h-51l-1 1v1q0 9 2.5 16.5t7 13.5 10.5 10.5 13.5 7 16.5 2.5h1z"/><path transform="translate(50.4 11.76) scale(.014 -.014)" d="m52 1-1-1h-1q-9 0-16.5 2.5t-13.5 7-10.5 10.5-7 13.5-2.5 16.5v1l1 1h51zm-4 0v51h51l1-1v-1q0-9-2.5-16.5t-7-13.5-10.5-10.5-13.5-7-16.5-2.5h-1zm0 98 1 1h1q9 0 16.5-2.5t13.5-7 10.5-10.5 7-13.5 2.5-16.5v-1l-1-1h-51zm4 0v-51h-51l-1 1v1q0 9 2.5 16.5t7 13.5 10.5 10.5 13.5 7 16.5 2.5h1zm0 2-1-1h-1q-9 0-16.5 2.5t-13.5 7-10.5 10.5-7 13.5-2.5 16.5v1l1 1h51zm-4 0v51h51l1-1v-1q0-9-2.5-16.5t-7-13.5-10.5-10.5-13.5-7-16.5-2.5h-1zm0 98 1 1h1q9 0 16.5-2.5t13.5-7 10.5-10.5 7-13.5 2.5-16.5v-1l-1-1h-51zm4 0v-51h-51l-1 1v1q0 9 2.5 16.5t7 13.5 10.5 10.5 13.5 7 16.5 2.5h1zm0 2-1-1h-1q-9 0-16.5 2.5t-13.5 7-10.5 10.5-7 13.5-2.5 16.5v1l1 1h51zm-4 0v51h51l1-1v-1q0-9-2.5-16.5t-7-13.5-10.5-10.5-13.5-7-16.5-2.5h-1zm0 98 1 1h1q9 0 16.5-2.5t13.5-7 10.5-10.5 7-13.5 2.5-16.5v-1l-1-1h-51zm4 0v-51h-51l-1 1v1q0 9 2.5 16.5t7 13.5 10.5 10.5 13.5 7 16.5 2.5h1zm0 2-1-1h-1q-9 0-16.5 2.5t-13.5 7-10.5 10.5-7 13.5-2.5 16.5v1l1 1h51zm-4 0v51h51l1-1v-1q0-9-2.5-16.5t-7-13.5-10.5-10.5-13.5-7-16.5-2.5h-1zm0 98 1 1h1q9 0 16.5-2.5t13.5-7 10.5-10.5 7-13.5 2.5-16.5v-1l-1-1h-51zm4 0v-51h-51l-1 1v1q0 9 2.5 16.5t7 13.5 10.5 10.5 13.5 7 16.5 2.5h1zm0 2-1-1h-1q-9 0-16.5 2.5t-13.5 7-10.5 10.5-7 13.5-2.5 16.5v1l1 1h51zm-4 0v51h51l1-1v-1q0-9-2.5-16.5t-7-13.5-10.5-10.5-13.5-7-16.5-2.5h-1zm0 98 1 1h1q9 0 16.5-2.5t13.5-7 10.5-10.5 7-13.5 2.5-16.5v-1l-1-1h-51zm4 0v-51h-51l-1 1v1q0 9 2.5 16.5t7 13.5 10.5 10.5 13.5 7 16.5 2.5h1zm100-198-1-1h-1q-9 0-16.5 2.5t-13.5 7-10.5 10.5-7 13.5-2.5 16.5v1l1 1h51zm-4 0v51h51l1-1v-1q0-9-2.5-16.5t-7-13.5-10.5-10.5-13.5-7-16.5-2.5h-1zm0 98 1 1h1q9 0 16.5-2.5t13.5-7 10.5-10.5 7-13.5 2.5-16.5v-1l-1-1h-51zm4 0v-51h-51l-1 1v1q0 9 2.5 16.5t7 13.5 10.5 10.5 13.5 7 16.5 2.5h1zm100 2-1-1h-1q-9 0-16.5 2.5t-13.5 7-10.5 10.5-7 13.5-2.5 16.5v1l1 1h51zm-4 0v51h51l1-1v-1q0-9-2.5-16.5t-7-13.5-10.5-10.5-13.5-7-16.5-2.5h-1zm0 98 1 1h1q9 0 16.5-2.5t13.5-7 10.5-10.5 7-13.5 2.5-16.5v-1l-1-1h-51zm4 0v-51h-51l-1 1v1q0 9 2.5 16.5t7 13.5 10.5 10.5 13.5 7 16.5 2.5h1zm100-98-1-1h-1q-9 0-16.5 2.5t-13.5 7-10.5 10.5-7 13.5-2.5 16.5v1l1 1h51zm-4 0v51h51l1-1v-1q0-9-2.5-16.5t-7-13.5-10.5-10.5-13.5-7-16.5-2.5h-1zm0 98 1 1h1q9 0 16.5-2.5t13.5-7 10.5-10.5 7-13.5 2.5-16.5v-1l-1-1h-51zm4 0v-51h-51l-1 1v1q0 9 2.5 16.5t7 13.5 10.5 10.5 13.5 7 16.5 2.5h1zm100-498-1-1h-1q-9 0-16.5 2.5t-13.5 7-10.5 10.5-7 13.5-2.5 16.5v1l1 1h51zm-4 0v51h51l1-1v-1q0-9-2.5-16.5t-7-13.5-10.5-10.5-13.5-7-16.5-2.5h-1zm0 98 1 1h1q9 0 16.5-2.5t13.5-7 10.5-10.5 7-13.5 2.5-16.5v-1l-1-1h-51zm4 0v-51h-51l-1 1v1q0 9 2.5 16.5t7 13.5 10.5 10.5 13.5 7 16.5 2.5h1zm0 2-1-1h-1q-9 0-16.5 2.5t-13.5 7-10.5 10.5-7 13.5-2.5 16.5v1l1 1h51zm-4 0v51h51l1-1v-1q0-9-2.5-16.5t-7-13.5-10.5-10.5-13.5-7-16.5-2.5h-1zm0 98 1 1h1q9 0 16.5-2.5t13.5-7 10.5-10.5 7-13.5 2.5-16.5v-1l-1-1h-51zm4 0v-51h-51l-1 1v1q0 9 2.5 16.5t7 13.5 10.5 10.5 13.5 7 16.5 2.5h1zm0 2-1-1h-1q-9 0-16.5 2.5t-13.5 7-10.5 10.5-7 13.5-2.5 16.5v1l1 1h51zm-4 0v51h51l1-1v-1q0-9-2.5-16.5t-7-13.5-10.5-10.5-13.5-7-16.5-2.5h-1zm0 98 1 1h1q9 0 16.5-2.5t13.5-7 10.5-10.5 7-13.5 2.5-16.5v-1l-1-1h-51zm4 0v-51h-51l-1 1v1q0 9 2.5 16.5t7 13.5 10.5 10.5 13.5 7 16.5 2.5h1zm0 2-1-1h-1q-9 0-16.5 2.5t-13.5 7-10.5 10.5-7 13.5-2.5 16.5v1l1 1h51zm-4 0v51h51l1-1v-1q0-9-2.5-16.5t-7-13.5-10.5-10.5-13.5-7-16.5-2.5h-1zm0 98 1 1h1q9 0 16.5-2.5t13.5-7 10.5-10.5 7-13.5 2.5-16.5v-1l-1-1h-51zm4 0v-51h-51l-1 1v1q0 9 2.5 16.5t7 13.5 10.5 10.5 13.5 7 16.5 2.5h1z"/><path transform="translate(58.8 11.76) scale(.014 -.014)" d="m52 401-1-1h-1q-9 0-16.5 2.5t-13.5 7-10.5 10.5-7 13.5-2.5 16.5v1l1 1h51zm-4 0v51h51l1-1v-1q0-9-2.5-16.5t-7-13.5-10.5-10.5-13.5-7-16.5-2.5h-1zm0 98 1 1h1q9 0 16.5-2.5t13.5-7 10.5-10.5 7-13.5 2.5-16.5v-1l-1-1h-51zm4 0v-51h-51l-1 1v1q0 9 2.5 16.5t7 13.5 10.5 10.5 13.5 7 16.5 2.5h1zm100-398-1-1h-1q-9 0-16.5 2.5t-13.5 7-10.5 10.5-7 13.5-2.5 16.5v1l1 1h51zm-4 0v51h51l1-1v-1q0-9-2.5-16.5t-7-13.5-10.5-10.5-13.5-7-16.5-2.5h-1zm0 98 1 1h1q9 0 16.5-2.5t13.5-7 10.5-10.5 7-13.5 2.5-16.5v-1l-1-1h-51zm4 0v-51h-51l-1 1v1q0 9 2.5 16.5t7 13.5 10.5 10.5 13.5 7 16.5 2.5h1zm0 2-1-1h-1q-9 0-16.5 2.5t-13.5 7-10.5 10.5-7 13.5-2.5 16.5v1l1 1h51zm-4 0v51h51l1-1v-1q0-9-2.5-16.5t-7-13.5-10.5-10.5-13.5-7-16.5-2.5h-1zm0 98 1 1h1q9 0 16.5-2.5t13.5-7 10.5-10.5 7-13.5 2.5-16.5v-1l-1-1h-51zm4 0v-51h-51l-1 1v1q0 9 2.5 16.5t7 13.5 10.5 10.5 13.5 7 16.5 2.5h1zm0 2-1-1h-1q-9 0-16.5 2.5t-13.5 7-10.5 10.5-7 13.5-2.5 16.5v1l1 1h51zm-4 0v51h51l1-1v-1q0-9-2.5-16.5t-7-13.5-10.5-10.5-13.5-7-16.5-2.5h-1zm0 98 1 1h1q9 0 16.5-2.5t13.5-7 10.5-10.5 7-13.5 2.5-16.5v-1l-1-1h-51zm4 0v-51h-51l-1 1v1q0 9 2.5 16.5t7 13.5 10.5 10.5 13.5 7 16.5 2.5h1zm0 2-1-1h-1q-9 0-16.5 2.5t-13.5 7-10.5 10.5-7 13.5-2.5 16.5v1l1 1h51zm-4 0v51h51l1-1v-1q0-9-2.5-16.5t-7-13.5-10.5-10.5-13.5-7-16.5-2.5h-1zm0 98 1 1h1q9 0 16.5-2.5t13.5-7 10.5-10.5 7-13.5 2.5-16.5v-1l-1-1h-51zm4 0v-51h-51l-1 1v1q0 9 2.5 16.5t7 13.5 10.5 10.5 13.5 7 16.5 2.5h1zm0 2-1-1h-1q-9 0-16.5 2.5t-13.5 7-10.5 10.5-7 13.5-2.5 16.5v1l1 1h51zm-4 0v51h51l1-1v-1q0-9-2.5-16.5t-7-13.5-10.5-10.5-13.5-7-16.5-2.5h-1zm0 98 1 1h1q9 0 16.5-2.5t13.5-7 10.5-10.5 7-13.5 2.5-16.5v-1l-1-1h-51zm4 0v-51h-51l-1 1v1q0 9 2.5 16.5t7 13.5 10.5 10.5 13.5 7 16.5 2.5h1zm100-598-1-1h-1q-9 0-16.5 2.5t-13.5 7-10.5 10.5-7 13.5-2.5 16.5v1l1 1h51zm-4 0v51h51l1-1v-1q0-9-2.5-16.5t-7-13.5-10.5-10.5-13.5-7-16.5-2.5h-1zm0 98 1 1h1q9 0 16.5-2.5t13.5-7 10.5-10.5 7-13.5 2.5-16.5v-1l-1-1h-51zm4 0v-51h-51l-1 1v1q0 9 2.5 16.5t7 13.5 10.5 10.5 13.5 7 16.5 2.5h1zm0 302-1-1h-1q-9 0-16.5 2.5t-13.5 7-10.5 10.5-7 13.5-2.5 16.5v1l1 1h51zm-4 0v51h51l1-1v-1q0-9-2.5-16.5t-7-13.5-10.5-10.5-13.5-7-16.5-2.5h-1zm0 98 1 1h1q9 0 16.5-2.5t13.5-7 10.5-10.5 7-13.5 2.5-16.5v-1l-1-1h-51zm4 0v-51h-51l-1 1v1q0 9 2.5 16.5t7 13.5 10.5 10.5 13.5 7 16.5 2.5h1zm100-498-1-1h-1q-9 0-16.5 2.5t-13.5 7-10.5 10.5-7 13.5-2.5 16.5v1l1 1h51zm-4 0v51h51l1-1v-1q0-9-2.5-16.5t-7-13.5-10.5-10.5-13.5-7-16.5-2.5h-1zm0 98 1 1h1q9 0 16.5-2.5t13.5-7 10.5-10.5 7-13.5 2.5-16.5v-1l-1-1h-51zm4 0v-51h-51l-1 1v1q0 9 2.5 16.5t7 13.5 10.5 10.5 13.5 7 16.5 2.5h1zm0 302-1-1h-1q-9 0-16.5 2.5t-13.5 7-10.5 10.5-7 13.5-2.5 16.5v1l1 1h51zm-4 0v51h51l1-1v-1q0-9-2.5-16.5t-7-13.5-10.5-10.5-13.5-7-16.5-2.5h-1zm0 98 1 1h1q9 0 16.5-2.5t13.5-7 10.5-10.5 7-13.5 2.5-16.5v-1l-1-1h-51zm4 0v-51h-51l-1 1v1q0 9 2.5 16.5t7 13.5 10.5 10.5 13.5 7 16.5 2.5h1zm100-498-1-1h-1q-9 0-16.5 2.5t-13.5 7-10.5 10.5-7 13.5-2.5 16.5v1l1 1h51zm-4 0v51h51l1-1v-1q0-9-2.5-16.5t-7-13.5-10.5-10.5-13.5-7-16.5-2.5h-1zm0 98 1 1h1q9 0 16.5-2.5t13.5-7 10.5-10.5 7-13.5 2.5-16.5v-1l-1-1h-51zm4 0v-51h-51l-1 1v1q0 9 2.5 16.5t7 13.5 10.5 10.5 13.5 7 16.5 2.5h1zm0 302-1-1h-1q-9 0-16.5 2.5t-13.5 7-10.5 10.5-7 13.5-2.5 16.5v1l1 1h51zm-4 0v51h51l1-1v-1q0-9-2.5-16.5t-7-13.5-10.5-10.5-13.5-7-16.5-2.5h-1zm0 98 1 1h1q9 0 16.5-2.5t13.5-7 10.5-10.5 7-13.5 2.5-16.5v-1l-1-1h-51zm4 0v-51h-51l-1 1v1q0 9 2.5 16.5t7 13.5 10.5 10.5 13.5 7 16.5 2.5h1z"/><path transform="translate(75.6 11.76) scale(.014 -.014)" d="m52 101-1-1h-1q-9 0-16.5 2.5t-13.5 7-10.5 10.5-7 13.5-2.5 16.5v1l1 1h51zm-4 0v51h51l1-1v-1q0-9-2.5-16.5t-7-13.5-10.5-10.5-13.5-7-16.5-2.5h-1zm0 98 1 1h1q9 0 16.5-2.5t13.5-7 10.5-10.5 7-13.5 2.5-16.5v-1l-1-1h-51zm4 0v-51h-51l-1 1v1q0 9 2.5 16.5t7 13.5 10.5 10.5 13.5 7 16.5 2.5h1zm0 2-1-1h-1q-9 0-16.5 2.5t-13.5 7-10.5 10.5-7 13.5-2.5 16.5v1l1 1h51zm-4 0v51h51l1-1v-1q0-9-2.5-16.5t-7-13.5-10.5-10.5-13.5-7-16.5-2.5h-1zm0 98 1 1h1q9 0 16.5-2.5t13.5-7 10.5-10.5 7-13.5 2.5-16.5v-1l-1-1h-51zm4 0v-51h-51l-1 1v1q0 9 2.5 16.5t7 13.5 10.5 10.5 13.5 7 16.5 2.5h1zm0 2-1-1h-1q-9 0-16.5 2.5t-13.5 7-10.5 10.5-7 13.5-2.5 16.5v1l1 1h51zm-4 0v51h51l1-1v-1q0-9-2.5-16.5t-7-13.5-10.5-10.5-13.5-7-16.5-2.5h-1zm0 98 1 1h1q9 0 16.5-2.5t13.5-7 10.5-10.5 7-13.5 2.5-16.5v-1l-1-1h-51zm4 0v-51h-51l-1 1v1q0 9 2.5 16.5t7 13.5 10.5 10.5 13.5 7 16.5 2.5h1zm0 2-1-1h-1q-9 0-16.5 2.5t-13.5 7-10.5 10.5-7 13.5-2.5 16.5v1l1 1h51zm-4 0v51h51l1-1v-1q0-9-2.5-16.5t-7-13.5-10.5-10.5-13.5-7-16.5-2.5h-1zm0 98 1 1h1q9 0 16.5-2.5t13.5-7 10.5-10.5 7-13.5 2.5-16.5v-1l-1-1h-51zm4 0v-51h-51l-1 1v1q0 9 2.5 16.5t7 13.5 10.5 10.5 13.5 7 16.5 2.5h1zm100-498-1-1h-1q-9 0-16.5 2.5t-13.5 7-10.5 10.5-7 13.5-2.5 16.5v1l1 1h51zm-4 0v51h51l1-1v-1q0-9-2.5-16.5t-7-13.5-10.5-10.5-13.5-7-16.5-2.5h-1zm0 98 1 1h1q9 0 16.5-2.5t13.5-7 10.5-10.5 7-13.5 2.5-16.5v-1l-1-1h-51zm4 0v-51h-51l-1 1v1q0 9 2.5 16.5t7 13.5 10.5 10.5 13.5 7 16.5 2.5h1zm0 402-1-1h-1q-9 0-16.5 2.5t-13.5 7-10.5 10.5-7 13.5-2.5 16.5v1l1 1h51zm-4 0v51h51l1-1v-1q0-9-2.5-16.5t-7-13.5-10.5-10.5-13.5-7-16.5-2.5h-1zm0 98 1 1h1q9 0 16.5-2.5t13.5-7 10.5-10.5 7-13.5 2.5-16.5v-1l-1-1h-51zm4 0v-51h-51l-1 1v1q0 9 2.5 16.5t7 13.5 10.5 10.5 13.5 7 16.5 2.5h1zm100-598-1-1h-1q-9 0-16.5 2.5t-13.5 7-10.5 10.5-7 13.5-2.5 16.5v1l1 1h51zm-4 0v51h51l1-1v-1q0-9-2.5-16.5t-7-13.5-10.5-10.5-13.5-7-16.5-2.5h-1zm0 98 1 1h1q9 0 16.5-2.5t13.5-7 10.5-10.5 7-13.5 2.5-16.5v-1l-1-1h-51zm4 0v-51h-51l-1 1v1q0 9 2.5 16.5t7 13.5 10.5 10.5 13.5 7 16.5 2.5h1zm0 402-1-1h-1q-9 0-16.5 2.5t-13.5 7-10.5 10.5-7 13.5-2.5 16.5v1l1 1h51zm-4 0v51h51l1-1v-1q0-9-2.5-16.5t-7-13.5-10.5-10.5-13.5-7-16.5-2.5h-1zm0 98 1 1h1q9 0 16.5-2.5t13.5-7 10.5-10.5 7-13.5 2.5-16.5v-1l-1-1h-51zm4 0v-51h-51l-1 1v1q0 9 2.5 16.5t7 13.5 10.5 10.5 13.5 7 16.5 2.5h1zm100-598-1-1h-1q-9 0-16.5 2.5t-13.5 7-10.5 10.5-7 13.5-2.5 16.5v1l1 1h51zm-4 0v51h51l1-1v-1q0-9-2.5-16.5t-7-13.5-10.5-10.5-13.5-7-16.5-2.5h-1zm0 98 1 1h1q9 0 16.5-2.5t13.5-7 10.5-10.5 7-13.5 2.5-16.5v-1l-1-1h-51zm4 0v-51h-51l-1 1v1q0 9 2.5 16.5t7 13.5 10.5 10.5 13.5 7 16.5 2.5h1zm0 102-1-1h-1q-9 0-16.5 2.5t-13.5 7-10.5 10.5-7 13.5-2.5 16.5v1l1 1h51zm-4 0v51h51l1-1v-1q0-9-2.5-16.5t-7-13.5-10.5-10.5-13.5-7-16.5-2.5h-1zm0 98 1 1h1q9 0 16.5-2.5t13.5-7 10.5-10.5 7-13.5 2.5-16.5v-1l-1-1h-51zm4 0v-51h-51l-1 1v1q0 9 2.5 16.5t7 13.5 10.5 10.5 13.5 7 16.5 2.5h1zm0 202-1-1h-1q-9 0-16.5 2.5t-13.5 7-10.5 10.5-7 13.5-2.5 16.5v1l1 1h51zm-4 0v51h51l1-1v-1q0-9-2.5-16.5t-7-13.5-10.5-10.5-13.5-7-16.5-2.5h-1zm0 98 1 1h1q9 0 16.5-2.5t13.5-7 10.5-10.5 7-13.5 2.5-16.5v-1l-1-1h-51zm4 0v-51h-51l-1 1v1q0 9 2.5 16.5t7 13.5 10.5 10.5 13.5 7 16.5 2.5h1zm100-498-1-1h-1q-9 0-16.5 2.5t-13.5 7-10.5 10.5-7 13.5-2.5 16.5v1l1 1h51zm-4 0v51h51l1-1v-1q0-9-2.5-16.5t-7-13.5-10.5-10.5-13.5-7-16.5-2.5h-1zm0 98 1 1h1q9 0 16.5-2.5t13.5-7 10.5-10.5 7-13.5 2.5-16.5v-1l-1-1h-51zm4 0v-51h-51l-1 1v1q0 9 2.5 16.5t7 13.5 10.5 10.5 13.5 7 16.5 2.5h1zm0 2-1-1h-1q-9 0-16.5 2.5t-13.5 7-10.5 10.5-7 13.5-2.5 16.5v1l1 1h51zm-4 0v51h51l1-1v-1q0-9-2.5-16.5t-7-13.5-10.5-10.5-13.5-7-16.5-2.5h-1zm0 98 1 1h1q9 0 16.5-2.5t13.5-7 10.5-10.5 7-13.5 2.5-16.5v-1l-1-1h-51zm4 0v-51h-51l-1 1v1q0 9 2.5 16.5t7 13.5 10.5 10.5 13.5 7 16.5 2.5h1zm0 102-1-1h-1q-9 0-16.5 2.5t-13.5 7-10.5 10.5-7 13.5-2.5 16.5v1l1 1h51zm-4 0v51h51l1-1v-1q0-9-2.5-16.5t-7-13.5-10.5-10.5-13.5-7-16.5-2.5h-1zm0 98 1 1h1q9 0 16.5-2.5t13.5-7 10.5-10.5 7-13.5 2.5-16.5v-1l-1-1h-51zm4 0v-51h-51l-1 1v1q0 9 2.5 16.5t7 13.5 10.5 10.5 13.5 7 16.5 2.5h1z"/><path transform="translate(84 11.76) scale(.014 -.014)" d="m52 1-1-1h-1q-9 0-16.5 2.5t-13.5 7-10.5 10.5-7 13.5-2.5 16.5v1l1 1h51zm-4 0v51h51l1-1v-1q0-9-2.5-16.5t-7-13.5-10.5-10.5-13.5-7-16.5-2.5h-1zm0 98 1 1h1q9 0 16.5-2.5t13.5-7 10.5-10.5 7-13.5 2.5-16.5v-1l-1-1h-51zm4 0v-51h-51l-1 1v1q0 9 2.5 16.5t7 13.5 10.5 10.5 13.5 7 16.5 2.5h1zm0 302-1-1h-1q-9 0-16.5 2.5t-13.5 7-10.5 10.5-7 13.5-2.5 16.5v1l1 1h51zm-4 0v51h51l1-1v-1q0-9-2.5-16.5t-7-13.5-10.5-10.5-13.5-7-16.5-2.5h-1zm0 98 1 1h1q9 0 16.5-2.5t13.5-7 10.5-10.5 7-13.5 2.5-16.5v-1l-1-1h-51zm4 0v-51h-51l-1 1v1q0 9 2.5 16.5t7 13.5 10.5 10.5 13.5 7 16.5 2.5h1zm100-498-1-1h-1q-9 0-16.5 2.5t-13.5 7-10.5 10.5-7 13.5-2.5 16.5v1l1 1h51zm-4 0v51h51l1-1v-1q0-9-2.5-16.5t-7-13.5-10.5-10.5-13.5-7-16.5-2.5h-1zm0 98 1 1h1q9 0 16.5-2.5t13.5-7 10.5-10.5 7-13.5 2.5-16.5v-1l-1-1h-51zm4 0v-51h-51l-1 1v1q0 9 2.5 16.5t7 13.5 10.5 10.5 13.5 7 16.5 2.5h1zm0 2-1-1h-1q-9 0-16.5 2.5t-13.5 7-10.5 10.5-7 13.5-2.5 16.5v1l1 1h51zm-4 0v51h51l1-1v-1q0-9-2.5-16.5t-7-13.5-10.5-10.5-13.5-7-16.5-2.5h-1zm0 98 1 1h1q9 0 16.5-2.5t13.5-7 10.5-10.5 7-13.5 2.5-16.5v-1l-1-1h-51zm4 0v-51h-51l-1 1v1q0 9 2.5 16.5t7 13.5 10.5 10.5 13.5 7 16.5 2.5h1zm0 2-1-1h-1q-9 0-16.5 2.5t-13.5 7-10.5 10.5-7 13.5-2.5 16.5v1l1 1h51zm-4 0v51h51l1-1v-1q0-9-2.5-16.5t-7-13.5-10.5-10.5-13.5-7-16.5-2.5h-1zm0 98 1 1h1q9 0 16.5-2.5t13.5-7 10.5-10.5 7-13.5 2.5-16.5v-1l-1-1h-51zm4 0v-51h-51l-1 1v1q0 9 2.5 16.5t7 13.5 10.5 10.5 13.5 7 16.5 2.5h1zm0 2-1-1h-1q-9 0-16.5 2.5t-13.5 7-10.5 10.5-7 13.5-2.5 16.5v1l1 1h51zm-4 0v51h51l1-1v-1q0-9-2.5-16.5t-7-13.5-10.5-10.5-13.5-7-16.5-2.5h-1zm0 98 1 1h1q9 0 16.5-2.5t13.5-7 10.5-10.5 7-13.5 2.5-16.5v-1l-1-1h-51zm4 0v-51h-51l-1 1v1q0 9 2.5 16.5t7 13.5 10.5 10.5 13.5 7 16.5 2.5h1zm0 2-1-1h-1q-9 0-16.5 2.5t-13.5 7-10.5 10.5-7 13.5-2.5 16.5v1l1 1h51zm-4 0v51h51l1-1v-1q0-9-2.5-16.5t-7-13.5-10.5-10.5-13.5-7-16.5-2.5h-1zm0 98 1 1h1q9 0 16.5-2.5t13.5-7 10.5-10.5 7-13.5 2.5-16.5v-1l-1-1h-51zm4 0v-51h-51l-1 1v1q0 9 2.5 16.5t7 13.5 10.5 10.5 13.5 7 16.5 2.5h1zm100-498-1-1h-1q-9 0-16.5 2.5t-13.5 7-10.5 10.5-7 13.5-2.5 16.5v1l1 1h51zm-4 0v51h51l1-1v-1q0-9-2.5-16.5t-7-13.5-10.5-10.5-13.5-7-16.5-2.5h-1zm0 98 1 1h1q9 0 16.5-2.5t13.5-7 10.5-10.5 7-13.5 2.5-16.5v-1l-1-1h-51zm4 0v-51h-51l-1 1v1q0 9 2.5 16.5t7 13.5 10.5 10.5 13.5 7 16.5 2.5h1zm0 202-1-1h-1q-9 0-16.5 2.5t-13.5 7-10.5 10.5-7 13.5-2.5 16.5v1l1 1h51zm-4 0v51h51l1-1v-1q0-9-2.5-16.5t-7-13.5-10.5-10.5-13.5-7-16.5-2.5h-1zm0 98 1 1h1q9 0 16.5-2.5t13.5-7 10.5-10.5 7-13.5 2.5-16.5v-1l-1-1h-51zm4 0v-51h-51l-1 1v1q0 9 2.5 16.5t7 13.5 10.5 10.5 13.5 7 16.5 2.5h1zm100 2-1-1h-1q-9 0-16.5 2.5t-13.5 7-10.5 10.5-7 13.5-2.5 16.5v1l1 1h51zm-4 0v51h51l1-1v-1q0-9-2.5-16.5t-7-13.5-10.5-10.5-13.5-7-16.5-2.5h-1zm0 98 1 1h1q9 0 16.5-2.5t13.5-7 10.5-10.5 7-13.5 2.5-16.5v-1l-1-1h-51zm4 0v-51h-51l-1 1v1q0 9 2.5 16.5t7 13.5 10.5 10.5 13.5 7 16.5 2.5h1zm100-98-1-1h-1q-9 0-16.5 2.5t-13.5 7-10.5 10.5-7 13.5-2.5 16.5v1l1 1h51zm-4 0v51h51l1-1v-1q0-9-2.5-16.5t-7-13.5-10.5-10.5-13.5-7-16.5-2.5h-1zm0 98 1 1h1q9 0 16.5-2.5t13.5-7 10.5-10.5 7-13.5 2.5-16.5v-1l-1-1h-51zm4 0v-51h-51l-1 1v1q0 9 2.5 16.5t7 13.5 10.5 10.5 13.5 7 16.5 2.5h1z"/><path transform="translate(92.4 11.76) scale(.014 -.014)" d="m52 1-1-1h-1q-9 0-16.5 2.5t-13.5 7-10.5 10.5-7 13.5-2.5 16.5v1l1 1h51zm-4 0v51h51l1-1v-1q0-9-2.5-16.5t-7-13.5-10.5-10.5-13.5-7-16.5-2.5h-1zm0 98 1 1h1q9 0 16.5-2.5t13.5-7 10.5-10.5 7-13.5 2.5-16.5v-1l-1-1h-51zm4 0v-51h-51l-1 1v1q0 9 2.5 16.5t7 13.5 10.5 10.5 13.5 7 16.5 2.5h1zm0 202-1-1h-1q-9 0-16.5 2.5t-13.5 7-10.5 10.5-7 13.5-2.5 16.5v1l1 1h51zm-4 0v51h51l1-1v-1q0-9-2.5-16.5t-7-13.5-10.5-10.5-13.5-7-16.5-2.5h-1zm0 98 1 1h1q9 0 16.5-2.5t13.5-7 10.5-10.5 7-13.5 2.5-16.5v-1l-1-1h-51zm4 0v-51h-51l-1 1v1q0 9 2.5 16.5t7 13.5 10.5 10.5 13.5 7 16.5 2.5h1zm100-398-1-1h-1q-9 0-16.5 2.5t-13.5 7-10.5 10.5-7 13.5-2.5 16.5v1l1 1h51zm-4 0v51h51l1-1v-1q0-9-2.5-16.5t-7-13.5-10.5-10.5-13.5-7-16.5-2.5h-1zm0 98 1 1h1q9 0 16.5-2.5t13.5-7 10.5-10.5 7-13.5 2.5-16.5v-1l-1-1h-51zm4 0v-51h-51l-1 1v1q0 9 2.5 16.5t7 13.5 10.5 10.5 13.5 7 16.5 2.5h1zm0 202-1-1h-1q-9 0-16.5 2.5t-13.5 7-10.5 10.5-7 13.5-2.5 16.5v1l1 1h51zm-4 0v51h51l1-1v-1q0-9-2.5-16.5t-7-13.5-10.5-10.5-13.5-7-16.5-2.5h-1zm0 98 1 1h1q9 0 16.5-2.5t13.5-7 10.5-10.5 7-13.5 2.5-16.5v-1l-1-1h-51zm4 0v-51h-51l-1 1v1q0 9 2.5 16.5t7 13.5 10.5 10.5 13.5 7 16.5 2.5h1zm100-398-1-1h-1q-9 0-16.5 2.5t-13.5 7-10.5 10.5-7 13.5-2.5 16.5v1l1 1h51zm-4 0v51h51l1-1v-1q0-9-2.5-16.5t-7-13.5-10.5-10.5-13.5-7-16.5-2.5h-1zm0 98 1 1h1q9 0 16.5-2.5t13.5-7 10.5-10.5 7-13.5 2.5-16.5v-1l-1-1h-51zm4 0v-51h-51l-1 1v1q0 9 2.5 16.5t7 13.5 10.5 10.5 13.5 7 16.5 2.5h1zm0 2-1-1h-1q-9 0-16.5 2.5t-13.5 7-10.5 10.5-7 13.5-2.5 16.5v1l1 1h51zm-4 0v51h51l1-1v-1q0-9-2.5-16.5t-7-13.5-10.5-10.5-13.5-7-16.5-2.5h-1zm0 98 1 1h1q9 0 16.5-2.5t13.5-7 10.5-10.5 7-13.5 2.5-16.5v-1l-1-1h-51zm4 0v-51h-51l-1 1v1q0 9 2.5 16.5t7 13.5 10.5 10.5 13.5 7 16.5 2.5h1zm0 2-1-1h-1q-9 0-16.5 2.5t-13.5 7-10.5 10.5-7 13.5-2.5 16.5v1l1 1h51zm-4 0v51h51l1-1v-1q0-9-2.5-16.5t-7-13.5-10.5-10.5-13.5-7-16.5-2.5h-1zm0 98 1 1h1q9 0 16.5-2.5t13.5-7 10.5-10.5 7-13.5 2.5-16.5v-1l-1-1h-51zm4 0v-51h-51l-1 1v1q0 9 2.5 16.5t7 13.5 10.5 10.5 13.5 7 16.5 2.5h1zm0 2-1-1h-1q-9 0-16.5 2.5t-13.5 7-10.5 10.5-7 13.5-2.5 16.5v1l1 1h51zm-4 0v51h51l1-1v-1q0-9-2.5-16.5t-7-13.5-10.5-10.5-13.5-7-16.5-2.5h-1zm0 98 1 1h1q9 0 16.5-2.5t13.5-7 10.5-10.5 7-13.5 2.5-16.5v-1l-1-1h-51zm4 0v-51h-51l-1 1v1q0 9 2.5 16.5t7 13.5 10.5 10.5 13.5 7 16.5 2.5h1zm0 102-1-1h-1q-9 0-16.5 2.5t-13.5 7-10.5 10.5-7 13.5-2.5 16.5v1l1 1h51zm-4 0v51h51l1-1v-1q0-9-2.5-16.5t-7-13.5-10.5-10.5-13.5-7-16.5-2.5h-1zm0 98 1 1h1q9 0 16.5-2.5t13.5-7 10.5-10.5 7-13.5 2.5-16.5v-1l-1-1h-51zm4 0v-51h-51l-1 1v1q0 9 2.5 16.5t7 13.5 10.5 10.5 13.5 7 16.5 2.5h1zm100-598-1-1h-1q-9 0-16.5 2.5t-13.5 7-10.5 10.5-7 13.5-2.5 16.5v1l1 1h51zm-4 0v51h51l1-1v-1q0-9-2.5-16.5t-7-13.5-10.5-10.5-13.5-7-16.5-2.5h-1zm0 98 1 1h1q9 0 16.5-2.5t13.5-7 10.5-10.5 7-13.5 2.5-16.5v-1l-1-1h-51zm4 0v-51h-51l-1 1v1q0 9 2.5 16.5t7 13.5 10.5 10.5 13.5 7 16.5 2.5h1zm100-98-1-1h-1q-9 0-16.5 2.5t-13.5 7-10.5 10.5-7 13.5-2.5 16.5v1l1 1h51zm-4 0v51h51l1-1v-1q0-9-2.5-16.5t-7-13.5-10.5-10.5-13.5-7-16.5-2.5h-1zm0 98 1 1h1q9 0 16.5-2.5t13.5-7 10.5-10.5 7-13.5 2.5-16.5v-1l-1-1h-51zm4 0v-51h-51l-1 1v1q0 9 2.5 16.5t7 13.5 10.5 10.5 13.5 7 16.5 2.5h1z"/><path transform="translate(100.8 11.76) scale(.014 -.014)" d="m52 101-1-1h-1q-9 0-16.5 2.5t-13.5 7-10.5 10.5-7 13.5-2.5 16.5v1l1 1h51zm-4 0v51h51l1-1v-1q0-9-2.5-16.5t-7-13.5-10.5-10.5-13.5-7-16.5-2.5h-1zm0 98 1 1h1q9 0 16.5-2.5t13.5-7 10.5-10.5 7-13.5 2.5-16.5v-1l-1-1h-51zm4 0v-51h-51l-1 1v1q0 9 2.5 16.5t7 13.5 10.5 10.5 13.5 7 16.5 2.5h1zm0 2-1-1h-1q-9 0-16.5 2.5t-13.5 7-10.5 10.5-7 13.5-2.5 16.5v1l1 1h51zm-4 0v51h51l1-1v-1q0-9-2.5-16.5t-7-13.5-10.5-10.5-13.5-7-16.5-2.5h-1zm0 98 1 1h1q9 0 16.5-2.5t13.5-7 10.5-10.5 7-13.5 2.5-16.5v-1l-1-1h-51zm4 0v-51h-51l-1 1v1q0 9 2.5 16.5t7 13.5 10.5 10.5 13.5 7 16.5 2.5h1zm0 2-1-1h-1q-9 0-16.5 2.5t-13.5 7-10.5 10.5-7 13.5-2.5 16.5v1l1 1h51zm-4 0v51h51l1-1v-1q0-9-2.5-16.5t-7-13.5-10.5-10.5-13.5-7-16.5-2.5h-1zm0 98 1 1h1q9 0 16.5-2.5t13.5-7 10.5-10.5 7-13.5 2.5-16.5v-1l-1-1h-51zm4 0v-51h-51l-1 1v1q0 9 2.5 16.5t7 13.5 10.5 10.5 13.5 7 16.5 2.5h1zm100-398-1-1h-1q-9 0-16.5 2.5t-13.5 7-10.5 10.5-7 13.5-2.5 16.5v1l1 1h51zm-4 0v51h51l1-1v-1q0-9-2.5-16.5t-7-13.5-10.5-10.5-13.5-7-16.5-2.5h-1zm0 98 1 1h1q9 0 16.5-2.5t13.5-7 10.5-10.5 7-13.5 2.5-16.5v-1l-1-1h-51zm4 0v-51h-51l-1 1v1q0 9 2.5 16.5t7 13.5 10.5 10.5 13.5 7 16.5 2.5h1zm0 302-1-1h-1q-9 0-16.5 2.5t-13.5 7-10.5 10.5-7 13.5-2.5 16.5v1l1 1h51zm-4 0v51h51l1-1v-1q0-9-2.5-16.5t-7-13.5-10.5-10.5-13.5-7-16.5-2.5h-1zm0 98 1 1h1q9 0 16.5-2.5t13.5-7 10.5-10.5 7-13.5 2.5-16.5v-1l-1-1h-51zm4 0v-51h-51l-1 1v1q0 9 2.5 16.5t7 13.5 10.5 10.5 13.5 7 16.5 2.5h1zm100-498-1-1h-1q-9 0-16.5 2.5t-13.5 7-10.5 10.5-7 13.5-2.5 16.5v1l1 1h51zm-4 0v51h51l1-1v-1q0-9-2.5-16.5t-7-13.5-10.5-10.5-13.5-7-16.5-2.5h-1zm0 98 1 1h1q9 0 16.5-2.5t13.5-7 10.5-10.5 7-13.5 2.5-16.5v-1l-1-1h-51zm4 0v-51h-51l-1 1v1q0 9 2.5 16.5t7 13.5 10.5 10.5 13.5 7 16.5 2.5h1zm0 302-1-1h-1q-9 0-16.5 2.5t-13.5 7-10.5 10.5-7 13.5-2.5 16.5v1l1 1h51zm-4 0v51h51l1-1v-1q0-9-2.5-16.5t-7-13.5-10.5-10.5-13.5-7-16.5-2.5h-1zm0 98 1 1h1q9 0 16.5-2.5t13.5-7 10.5-10.5 7-13.5 2.5-16.5v-1l-1-1h-51zm4 0v-51h-51l-1 1v1q0 9 2.5 16.5t7 13.5 10.5 10.5 13.5 7 16.5 2.5h1zm100-398-1-1h-1q-9 0-16.5 2.5t-13.5 7-10.5 10.5-7 13.5-2.5 16.5v1l1 1h51zm-4 0v51h51l1-1v-1q0-9-2.5-16.5t-7-13.5-10.5-10.5-13.5-7-16.5-2.5h-1zm0 98 1 1h1q9 0 16.5-2.5t13.5-7 10.5-10.5 7-13.5 2.5-16.5v-1l-1-1h-51zm4 0v-51h-51l-1 1v1q0 9 2.5 16.5t7 13.5 10.5 10.5 13.5 7 16.5 2.5h1zm0 202-1-1h-1q-9 0-16.5 2.5t-13.5 7-10.5 10.5-7 13.5-2.5 16.5v1l1 1h51zm-4 0v51h51l1-1v-1q0-9-2.5-16.5t-7-13.5-10.5-10.5-13.5-7-16.5-2.5h-1zm0 98 1 1h1q9 0 16.5-2.5t13.5-7 10.5-10.5 7-13.5 2.5-16.5v-1l-1-1h-51zm4 0v-51h-51l-1 1v1q0 9 2.5 16.5t7 13.5 10.5 10.5 13.5 7 16.5 2.5h1zm100-498-1-1h-1q-9 0-16.5 2.5t-13.5 7-10.5 10.5-7 13.5-2.5 16.5v1l1 1h51zm-4 0v51h51l1-1v-1q0-9-2.5-16.5t-7-13.5-10.5-10.5-13.5-7-16.5-2.5h-1zm0 98 1 1h1q9 0 16.5-2.5t13.5-7 10.5-10.5 7-13.5 2.5-16.5v-1l-1-1h-51zm4 0v-51h-51l-1 1v1q0 9 2.5 16.5t7 13.5 10.5 10.5 13.5 7 16.5 2.5h1zm0 2-1-1h-1q-9 0-16.5 2.5t-13.5 7-10.5 10.5-7 13.5-2.5 16.5v1l1 1h51zm-4 0v51h51l1-1v-1q0-9-2.5-16.5t-7-13.5-10.5-10.5-13.5-7-16.5-2.5h-1zm0 98 1 1h1q9 0 16.5-2.5t13.5-7 10.5-10.5 7-13.5 2.5-16.5v-1l-1-1h-51zm4 0v-51h-51l-1 1v1q0 9 2.5 16.5t7 13.5 10.5 10.5 13.5 7 16.5 2.5h1zm0 2-1-1h-1q-9 0-16.5 2.5t-13.5 7-10.5 10.5-7 13.5-2.5 16.5v1l1 1h51zm-4 0v51h51l1-1v-1q0-9-2.5-16.5t-7-13.5-10.5-10.5-13.5-7-16.5-2.5h-1zm0 98 1 1h1q9 0 16.5-2.5t13.5-7 10.5-10.5 7-13.5 2.5-16.5v-1l-1-1h-51zm4 0v-51h-51l-1 1v1q0 9 2.5 16.5t7 13.5 10.5 10.5 13.5 7 16.5 2.5h1zm0 2-1-1h-1q-9 0-16.5 2.5t-13.5 7-10.5 10.5-7 13.5-2.5 16.5v1l1 1h51zm-4 0v51h51l1-1v-1q0-9-2.5-16.5t-7-13.5-10.5-10.5-13.5-7-16.5-2.5h-1zm0 98 1 1h1q9 0 16.5-2.5t13.5-7 10.5-10.5 7-13.5 2.5-16.5v-1l-1-1h-51zm4 0v-51h-51l-1 1v1q0 9 2.5 16.5t7 13.5 10.5 10.5 13.5 7 16.5 2.5h1zm0 2-1-1h-1q-9 0-16.5 2.5t-13.5 7-10.5 10.5-7 13.5-2.5 16.5v1l1 1h51zm-4 0v51h51l1-1v-1q0-9-2.5-16.5t-7-13.5-10.5-10.5-13.5-7-16.5-2.5h-1zm0 98 1 1h1q9 0 16.5-2.5t13.5-7 10.5-10.5 7-13.5 2.5-16.5v-1l-1-1h-51zm4 0v-51h-51l-1 1v1q0 9 2.5 16.5t7 13.5 10.5 10.5 13.5 7 16.5 2.5h1zm0 2-1-1h-1q-9 0-16.5 2.5t-13.5 7-10.5 10.5-7 13.5-2.5 16.5v1l1 1h51zm-4 0v51h51l1-1v-1q0-9-2.5-16.5t-7-13.5-10.5-10.5-13.5-7-16.5-2.5h-1zm0 98 1 1h1q9 0 16.5-2.5t13.5-7 10.5-10.5 7-13.5 2.5-16.5v-1l-1-1h-51zm4 0v-51h-51l-1 1v1q0 9 2.5 16.5t7 13.5 10.5 10.5 13.5 7 16.5 2.5h1z"/><path transform="translate(117.6 11.76) scale(.014 -.014)" d="m52 1-1-1h-1q-9 0-16.5 2.5t-13.5 7-10.5 10.5-7 13.5-2.5 16.5v1l1 1h51zm-4 0v51h51l1-1v-1q0-9-2.5-16.5t-7-13.5-10.5-10.5-13.5-7-16.5-2.5h-1zm0 98 1 1h1q9 0 16.5-2.5t13.5-7 10.5-10.5 7-13.5 2.5-16.5v-1l-1-1h-51zm4 0v-51h-51l-1 1v1q0 9 2.5 16.5t7 13.5 10.5 10.5 13.5 7 16.5 2.5h1zm0 302-1-1h-1q-9 0-16.5 2.5t-13.5 7-10.5 10.5-7 13.5-2.5 16.5v1l1 1h51zm-4 0v51h51l1-1v-1q0-9-2.5-16.5t-7-13.5-10.5-10.5-13.5-7-16.5-2.5h-1zm0 98 1 1h1q9 0 16.5-2.5t13.5-7 10.5-10.5 7-13.5 2.5-16.5v-1l-1-1h-51zm4 0v-51h-51l-1 1v1q0 9 2.5 16.5t7 13.5 10.5 10.5 13.5 7 16.5 2.5h1zm100-498-1-1h-1q-9 0-16.5 2.5t-13.5 7-10.5 10.5-7 13.5-2.5 16.5v1l1 1h51zm-4 0v51h51l1-1v-1q0-9-2.5-16.5t-7-13.5-10.5-10.5-13.5-7-16.5-2.5h-1zm0 98 1 1h1q9 0 16.5-2.5t13.5-7 10.5-10.5 7-13.5 2.5-16.5v-1l-1-1h-51zm4 0v-51h-51l-1 1v1q0 9 2.5 16.5t7 13.5 10.5 10.5 13.5 7 16.5 2.5h1zm0 202-1-1h-1q-9 0-16.5 2.5t-13.5 7-10.5 10.5-7 13.5-2.5 16.5v1l1 1h51zm-4 0v51h51l1-1v-1q0-9-2.5-16.5t-7-13.5-10.5-10.5-13.5-7-16.5-2.5h-1zm0 98 1 1h1q9 0 16.5-2.5t13.5-7 10.5-10.5 7-13.5 2.5-16.5v-1l-1-1h-51zm4 0v-51h-51l-1 1v1q0 9 2.5 16.5t7 13.5 10.5 10.5 13.5 7 16.5 2.5h1zm0 102-1-1h-1q-9 0-16.5 2.5t-13.5 7-10.5 10.5-7 13.5-2.5 16.5v1l1 1h51zm-4 0v51h51l1-1v-1q0-9-2.5-16.5t-7-13.5-10.5-10.5-13.5-7-16.5-2.5h-1zm0 98 1 1h1q9 0 16.5-2.5t13.5-7 10.5-10.5 7-13.5 2.5-16.5v-1l-1-1h-51zm4 0v-51h-51l-1 1v1q0 9 2.5 16.5t7 13.5 10.5 10.5 13.5 7 16.5 2.5h1zm100-598-1-1h-1q-9 0-16.5 2.5t-13.5 7-10.5 10.5-7 13.5-2.5 16.5v1l1 1h51zm-4 0v51h51l1-1v-1q0-9-2.5-16.5t-7-13.5-10.5-10.5-13.5-7-16.5-2.5h-1zm0 98 1 1h1q9 0 16.5-2.5t13.5-7 10.5-10.5 7-13.5 2.5-16.5v-1l-1-1h-51zm4 0v-51h-51l-1 1v1q0 9 2.5 16.5t7 13.5 10.5 10.5 13.5 7 16.5 2.5h1zm0 102-1-1h-1q-9 0-16.5 2.5t-13.5 7-10.5 10.5-7 13.5-2.5 16.5v1l1 1h51zm-4 0v51h51l1-1v-1q0-9-2.5-16.5t-7-13.5-10.5-10.5-13.5-7-16.5-2.5h-1zm0 98 1 1h1q9 0 16.5-2.5t13.5-7 10.5-10.5 7-13.5 2.5-16.5v-1l-1-1h-51zm4 0v-51h-51l-1 1v1q0 9 2.5 16.5t7 13.5 10.5 10.5 13.5 7 16.5 2.5h1zm0 2-1-1h-1q-9 0-16.5 2.5t-13.5 7-10.5 10.5-7 13.5-2.5 16.5v1l1 1h51zm-4 0v51h51l1-1v-1q0-9-2.5-16.5t-7-13.5-10.5-10.5-13.5-7-16.5-2.5h-1zm0 98 1 1h1q9 0 16.5-2.5t13.5-7 10.5-10.5 7-13.5 2.5-16.5v-1l-1-1h-51zm4 0v-51h-51l-1 1v1q0 9 2.5 16.5t7 13.5 10.5 10.5 13.5 7 16.5 2.5h1zm0 102-1-1h-1q-9 0-16.5 2.5t-13.5 7-10.5 10.5-7 13.5-2.5 16.5v1l1 1h51zm-4 0v51h51l1-1v-1q0-9-2.5-16.5t-7-13.5-10.5-10.5-13.5-7-16.5-2.5h-1zm0 98 1 1h1q9 0 16.5-2.5t13.5-7 10.5-10.5 7-13.5 2.5-16.5v-1l-1-1h-51zm4 0v-51h-51l-1 1v1q0 9 2.5 16.5t7 13.5 10.5 10.5 13.5 7 16.5 2.5h1zm100-598-1-1h-1q-9 0-16.5 2.5t-13.5 7-10.5 10.5-7 13.5-2.5 16.5v1l1 1h51zm-4 0v51h51l1-1v-1q0-9-2.5-16.5t-7-13.5-10.5-10.5-13.5-7-16.5-2.5h-1zm0 98 1 1h1q9 0 16.5-2.5t13.5-7 10.5-10.5 7-13.5 2.5-16.5v-1l-1-1h-51zm4 0v-51h-51l-1 1v1q0 9 2.5 16.5t7 13.5 10.5 10.5 13.5 7 16.5 2.5h1zm0 102-1-1h-1q-9 0-16.5 2.5t-13.5 7-10.5 10.5-7 13.5-2.5 16.5v1l1 1h51zm-4 0v51h51l1-1v-1q0-9-2.5-16.5t-7-13.5-10.5-10.5-13.5-7-16.5-2.5h-1zm0 98 1 1h1q9 0 16.5-2.5t13.5-7 10.5-10.5 7-13.5 2.5-16.5v-1l-1-1h-51zm4 0v-51h-51l-1 1v1q0 9 2.5 16.5t7 13.5 10.5 10.5 13.5 7 16.5 2.5h1zm0 202-1-1h-1q-9 0-16.5 2.5t-13.5 7-10.5 10.5-7 13.5-2.5 16.5v1l1 1h51zm-4 0v51h51l1-1v-1q0-9-2.5-16.5t-7-13.5-10.5-10.5-13.5-7-16.5-2.5h-1zm0 98 1 1h1q9 0 16.5-2.5t13.5-7 10.5-10.5 7-13.5 2.5-16.5v-1l-1-1h-51zm4 0v-51h-51l-1 1v1q0 9 2.5 16.5t7 13.5 10.5 10.5 13.5 7 16.5 2.5h1zm100-498-1-1h-1q-9 0-16.5 2.5t-13.5 7-10.5 10.5-7 13.5-2.5 16.5v1l1 1h51zm-4 0v51h51l1-1v-1q0-9-2.5-16.5t-7-13.5-10.5-10.5-13.5-7-16.5-2.5h-1zm0 98 1 1h1q9 0 16.5-2.5t13.5-7 10.5-10.5 7-13.5 2.5-16.5v-1l-1-1h-51zm4 0v-51h-51l-1 1v1q0 9 2.5 16.5t7 13.5 10.5 10.5 13.5 7 16.5 2.5h1zm0 302-1-1h-1q-9 0-16.5 2.5t-13.5 7-10.5 10.5-7 13.5-2.5 16.5v1l1 1h51zm-4 0v51h51l1-1v-1q0-9-2.5-16.5t-7-13.5-10.5-10.5-13.5-7-16.5-2.5h-1zm0 98 1 1h1q9 0 16.5-2.5t13.5-7 10.5-10.5 7-13.5 2.5-16.5v-1l-1-1h-51zm4 0v-51h-51l-1 1v1q0 9 2.5 16.5t7 13.5 10.5 10.5 13.5 7 16.5 2.5h1z"/><path transform="translate(126 11.76) scale(.014 -.014)" d="m52 1-1-1h-1q-9 0-16.5 2.5t-13.5 7-10.5 10.5-7 13.5-2.5 16.5v1l1 1h51zm-4 0v51h51l1-1v-1q0-9-2.5-16.5t-7-13.5-10.5-10.5-13.5-7-16.5-2.5h-1zm0 98 1 1h1q9 0 16.5-2.5t13.5-7 10.5-10.5 7-13.5 2.5-16.5v-1l-1-1h-51zm4 0v-51h-51l-1 1v1q0 9 2.5 16.5t7 13.5 10.5 10.5 13.5 7 16.5 2.5h1zm0 202-1-1h-1q-9 0-16.5 2.5t-13.5 7-10.5 10.5-7 13.5-2.5 16.5v1l1 1h51zm-4 0v51h51l1-1v-1q0-9-2.5-16.5t-7-13.5-10.5-10.5-13.5-7-16.5-2.5h-1zm0 98 1 1h1q9 0 16.5-2.5t13.5-7 10.5-10.5 7-13.5 2.5-16.5v-1l-1-1h-51zm4 0v-51h-51l-1 1v1q0 9 2.5 16.5t7 13.5 10.5 10.5 13.5 7 16.5 2.5h1zm100-398-1-1h-1q-9 0-16.5 2.5t-13.5 7-10.5 10.5-7 13.5-2.5 16.5v1l1 1h51zm-4 0v51h51l1-1v-1q0-9-2.5-16.5t-7-13.5-10.5-10.5-13.5-7-16.5-2.5h-1zm0 98 1 1h1q9 0 16.5-2.5t13.5-7 10.5-10.5 7-13.5 2.5-16.5v-1l-1-1h-51zm4 0v-51h-51l-1 1v1q0 9 2.5 16.5t7 13.5 10.5 10.5 13.5 7 16.5 2.5h1zm0 202-1-1h-1q-9 0-16.5 2.5t-13.5 7-10.5 10.5-7 13.5-2.5 16.5v1l1 1h51zm-4 0v51h51l1-1v-1q0-9-2.5-16.5t-7-13.5-10.5-10.5-13.5-7-16.5-2.5h-1zm0 98 1 1h1q9 0 16.5-2.5t13.5-7 10.5-10.5 7-13.5 2.5-16.5v-1l-1-1h-51zm4 0v-51h-51l-1 1v1q0 9 2.5 16.5t7 13.5 10.5 10.5 13.5 7 16.5 2.5h1zm100-398-1-1h-1q-9 0-16.5 2.5t-13.5 7-10.5 10.5-7 13.5-2.5 16.5v1l1 1h51zm-4 0v51h51l1-1v-1q0-9-2.5-16.5t-7-13.5-10.5-10.5-13.5-7-16.5-2.5h-1zm0 98 1 1h1q9 0 16.5-2.5t13.5-7 10.5-10.5 7-13.5 2.5-16.5v-1l-1-1h-51zm4 0v-51h-51l-1 1v1q0 9 2.5 16.5t7 13.5 10.5 10.5 13.5 7 16.5 2.5h1zm0 2-1-1h-1q-9 0-16.5 2.5t-13.5 7-10.5 10.5-7 13.5-2.5 16.5v1l1 1h51zm-4 0v51h51l1-1v-1q0-9-2.5-16.5t-7-13.5-10.5-10.5-13.5-7-16.5-2.5h-1zm0 98 1 1h1q9 0 16.5-2.5t13.5-7 10.5-10.5 7-13.5 2.5-16.5v-1l-1-1h-51zm4 0v-51h-51l-1 1v1q0 9 2.5 16.5t7 13.5 10.5 10.5 13.5 7 16.5 2.5h1zm0 2-1-1h-1q-9 0-16.5 2.5t-13.5 7-10.5 10.5-7 13.5-2.5 16.5v1l1 1h51zm-4 0v51h51l1-1v-1q0-9-2.5-16.5t-7-13.5-10.5-10.5-13.5-7-16.5-2.5h-1zm0 98 1 1h1q9 0 16.5-2.5t13.5-7 10.5-10.5 7-13.5 2.5-16.5v-1l-1-1h-51zm4 0v-51h-51l-1 1v1q0 9 2.5 16.5t7 13.5 10.5 10.5 13.5 7 16.5 2.5h1zm0 2-1-1h-1q-9 0-16.5 2.5t-13.5 7-10.5 10.5-7 13.5-2.5 16.5v1l1 1h51zm-4 0v51h51l1-1v-1q0-9-2.5-16.5t-7-13.5-10.5-10.5-13.5-7-16.5-2.5h-1zm0 98 1 1h1q9 0 16.5-2.5t13.5-7 10.5-10.5 7-13.5 2.5-16.5v-1l-1-1h-51zm4 0v-51h-51l-1 1v1q0 9 2.5 16.5t7 13.5 10.5 10.5 13.5 7 16.5 2.5h1zm0 102-1-1h-1q-9 0-16.5 2.5t-13.5 7-10.5 10.5-7 13.5-2.5 16.5v1l1 1h51zm-4 0v51h51l1-1v-1q0-9-2.5-16.5t-7-13.5-10.5-10.5-13.5-7-16.5-2.5h-1zm0 98 1 1h1q9 0 16.5-2.5t13.5-7 10.5-10.5 7-13.5 2.5-16.5v-1l-1-1h-51zm4 0v-51h-51l-1 1v1q0 9 2.5 16.5t7 13.5 10.5 10.5 13.5 7 16.5 2.5h1zm100-598-1-1h-1q-9 0-16.5 2.5t-13.5 7-10.5 10.5-7 13.5-2.5 16.5v1l1 1h51zm-4 0v51h51l1-1v-1q0-9-2.5-16.5t-7-13.5-10.5-10.5-13.5-7-16.5-2.5h-1zm0 98 1 1h1q9 0 16.5-2.5t13.5-7 10.5-10.5 7-13.5 2.5-16.5v-1l-1-1h-51zm4 0v-51h-51l-1 1v1q0 9 2.5 16.5t7 13.5 10.5 10.5 13.5 7 16.5 2.5h1zm100-98-1-1h-1q-9 0-16.5 2.5t-13.5 7-10.5 10.5-7 13.5-2.5 16.5v1l1 1h51zm-4 0v51h51l1-1v-1q0-9-2.5-16.5t-7-13.5-10.5-10.5-13.5-7-16.5-2.5h-1zm0 98 1 1h1q9 0 16.5-2.5t13.5-7 10.5-10.5 7-13.5 2.5-16.5v-1l-1-1h-51zm4 0v-51h-51l-1 1v1q0 9 2.5 16.5t7 13.5 10.5 10.5 13.5 7 16.5 2.5h1z"/><path transform="translate(134.4 11.76) scale(.014 -.014)" d="m52 1-1-1h-1q-9 0-16.5 2.5t-13.5 7-10.5 10.5-7 13.5-2.5 16.5v1l1 1h51zm-4 0v51h51l1-1v-1q0-9-2.5-16.5t-7-13.5-10.5-10.5-13.5-7-16.5-2.5h-1zm0 98 1 1h1q9 0 16.5-2.5t13.5-7 10.5-10.5 7-13.5 2.5-16.5v-1l-1-1h-51zm4 0v-51h-51l-1 1v1q0 9 2.5 16.5t7 13.5 10.5 10.5 13.5 7 16.5 2.5h1zm0 2-1-1h-1q-9 0-16.5 2.5t-13.5 7-10.5 10.5-7 13.5-2.5 16.5v1l1 1h51zm-4 0v51h51l1-1v-1q0-9-2.5-16.5t-7-13.5-10.5-10.5-13.5-7-16.5-2.5h-1zm0 98 1 1h1q9 0 16.5-2.5t13.5-7 10.5-10.5 7-13.5 2.5-16.5v-1l-1-1h-51zm4 0v-51h-51l-1 1v1q0 9 2.5 16.5t7 13.5 10.5 10.5 13.5 7 16.5 2.5h1zm0 2-1-1h-1q-9 0-16.5 2.5t-13.5 7-10.5 10.5-7 13.5-2.5 16.5v1l1 1h51zm-4 0v51h51l1-1v-1q0-9-2.5-16.5t-7-13.5-10.5-10.5-13.5-7-16.5-2.5h-1zm0 98 1 1h1q9 0 16.5-2.5t13.5-7 10.5-10.5 7-13.5 2.5-16.5v-1l-1-1h-51zm4 0v-51h-51l-1 1v1q0 9 2.5 16.5t7 13.5 10.5 10.5 13.5 7 16.5 2.5h1zm0 2-1-1h-1q-9 0-16.5 2.5t-13.5 7-10.5 10.5-7 13.5-2.5 16.5v1l1 1h51zm-4 0v51h51l1-1v-1q0-9-2.5-16.5t-7-13.5-10.5-10.5-13.5-7-16.5-2.5h-1zm0 98 1 1h1q9 0 16.5-2.5t13.5-7 10.5-10.5 7-13.5 2.5-16.5v-1l-1-1h-51zm4 0v-51h-51l-1 1v1q0 9 2.5 16.5t7 13.5 10.5 10.5 13.5 7 16.5 2.5h1zm0 2-1-1h-1q-9 0-16.5 2.5t-13.5 7-10.5 10.5-7 13.5-2.5 16.5v1l1 1h51zm-4 0v51h51l1-1v-1q0-9-2.5-16.5t-7-13.5-10.5-10.5-13.5-7-16.5-2.5h-1zm0 98 1 1h1q9 0 16.5-2.5t13.5-7 10.5-10.5 7-13.5 2.5-16.5v-1l-1-1h-51zm4 0v-51h-51l-1 1v1q0 9 2.5 16.5t7 13.5 10.5 10.5 13.5 7 16.5 2.5h1zm100-198-1-1h-1q-9 0-16.5 2.5t-13.5 7-10.5 10.5-7 13.5-2.5 16.5v1l1 1h51zm-4 0v51h51l1-1v-1q0-9-2.5-16.5t-7-13.5-10.5-10.5-13.5-7-16.5-2.5h-1zm0 98 1 1h1q9 0 16.5-2.5t13.5-7 10.5-10.5 7-13.5 2.5-16.5v-1l-1-1h-51zm4 0v-51h-51l-1 1v1q0 9 2.5 16.5t7 13.5 10.5 10.5 13.5 7 16.5 2.5h1zm100 2-1-1h-1q-9 0-16.5 2.5t-13.5 7-10.5 10.5-7 13.5-2.5 16.5v1l1 1h51zm-4 0v51h51l1-1v-1q0-9-2.5-16.5t-7-13.5-10.5-10.5-13.5-7-16.5-2.5h-1zm0 98 1 1h1q9 0 16.5-2.5t13.5-7 10.5-10.5 7-13.5 2.5-16.5v-1l-1-1h-51zm4 0v-51h-51l-1 1v1q0 9 2.5 16.5t7 13.5 10.5 10.5 13.5 7 16.5 2.5h1zm100-98-1-1h-1q-9 0-16.5 2.5t-13.5 7-10.5 10.5-7 13.5-2.5 16.5v1l1 1h51zm-4 0v51h51l1-1v-1q0-9-2.5-16.5t-7-13.5-10.5-10.5-13.5-7-16.5-2.5h-1zm0 98 1 1h1q9 0 16.5-2.5t13.5-7 10.5-10.5 7-13.5 2.5-16.5v-1l-1-1h-51zm4 0v-51h-51l-1 1v1q0 9 2.5 16.5t7 13.5 10.5 10.5 13.5 7 16.5 2.5h1zm100-498-1-1h-1q-9 0-16.5 2.5t-13.5 7-10.5 10.5-7 13.5-2.5 16.5v1l1 1h51zm-4 0v51h51l1-1v-1q0-9-2.5-16.5t-7-13.5-10.5-10.5-13.5-7-16.5-2.5h-1zm0 98 1 1h1q9 0 16.5-2.5t13.5-7 10.5-10.5 7-13.5 2.5-16.5v-1l-1-1h-51zm4 0v-51h-51l-1 1v1q0 9 2.5 16.5t7 13.5 10.5 10.5 13.5 7 16.5 2.5h1zm0 2-1-1h-1q-9 0-16.5 2.5t-13.5 7-10.5 10.5-7 13.5-2.5 16.5v1l1 1h51zm-4 0v51h51l1-1v-1q0-9-2.5-16.5t-7-13.5-10.5-10.5-13.5-7-16.5-2.5h-1zm0 98 1 1h1q9 0 16.5-2.5t13.5-7 10.5-10.5 7-13.5 2.5-16.5v-1l-1-1h-51zm4 0v-51h-51l-1 1v1q0 9 2.5 16.5t7 13.5 10.5 10.5 13.5 7 16.5 2.5h1zm0 2-1-1h-1q-9 0-16.5 2.5t-13.5 7-10.5 10.5-7 13.5-2.5 16.5v1l1 1h51zm-4 0v51h51l1-1v-1q0-9-2.5-16.5t-7-13.5-10.5-10.5-13.5-7-16.5-2.5h-1zm0 98 1 1h1q9 0 16.5-2.5t13.5-7 10.5-10.5 7-13.5 2.5-16.5v-1l-1-1h-51zm4 0v-51h-51l-1 1v1q0 9 2.5 16.5t7 13.5 10.5 10.5 13.5 7 16.5 2.5h1zm0 2-1-1h-1q-9 0-16.5 2.5t-13.5 7-10.5 10.5-7 13.5-2.5 16.5v1l1 1h51zm-4 0v51h51l1-1v-1q0-9-2.5-16.5t-7-13.5-10.5-10.5-13.5-7-16.5-2.5h-1zm0 98 1 1h1q9 0 16.5-2.5t13.5-7 10.5-10.5 7-13.5 2.5-16.5v-1l-1-1h-51zm4 0v-51h-51l-1 1v1q0 9 2.5 16.5t7 13.5 10.5 10.5 13.5 7 16.5 2.5h1z"/><path transform="translate(142.8 11.76) scale(.014 -.014)" d="m52 201-1-1h-1q-9 0-16.5 2.5t-13.5 7-10.5 10.5-7 13.5-2.5 16.5v1l1 1h51zm-4 0v51h51l1-1v-1q0-9-2.5-16.5t-7-13.5-10.5-10.5-13.5-7-16.5-2.5h-1zm0 98 1 1h1q9 0 16.5-2.5t13.5-7 10.5-10.5 7-13.5 2.5-16.5v-1l-1-1h-51zm4 0v-51h-51l-1 1v1q0 9 2.5 16.5t7 13.5 10.5 10.5 13.5 7 16.5 2.5h1zm0 2-1-1h-1q-9 0-16.5 2.5t-13.5 7-10.5 10.5-7 13.5-2.5 16.5v1l1 1h51zm-4 0v51h51l1-1v-1q0-9-2.5-16.5t-7-13.5-10.5-10.5-13.5-7-16.5-2.5h-1zm0 98 1 1h1q9 0 16.5-2.5t13.5-7 10.5-10.5 7-13.5 2.5-16.5v-1l-1-1h-51zm4 0v-51h-51l-1 1v1q0 9 2.5 16.5t7 13.5 10.5 10.5 13.5 7 16.5 2.5h1zm100-498-1-1h-1q-9 0-16.5 2.5t-13.5 7-10.5 10.5-7 13.5-2.5 16.5v1l1 1h51zm-4 0v51h51l1-1v-1q0-9-2.5-16.5t-7-13.5-10.5-10.5-13.5-7-16.5-2.5h-1zm0 98 1 1h1q9 0 16.5-2.5t13.5-7 10.5-10.5 7-13.5 2.5-16.5v-1l-1-1h-51zm4 0v-51h-51l-1 1v1q0 9 2.5 16.5t7 13.5 10.5 10.5 13.5 7 16.5 2.5h1zm0 102-1-1h-1q-9 0-16.5 2.5t-13.5 7-10.5 10.5-7 13.5-2.5 16.5v1l1 1h51zm-4 0v51h51l1-1v-1q0-9-2.5-16.5t-7-13.5-10.5-10.5-13.5-7-16.5-2.5h-1zm0 98 1 1h1q9 0 16.5-2.5t13.5-7 10.5-10.5 7-13.5 2.5-16.5v-1l-1-1h-51zm4 0v-51h-51l-1 1v1q0 9 2.5 16.5t7 13.5 10.5 10.5 13.5 7 16.5 2.5h1zm0 202-1-1h-1q-9 0-16.5 2.5t-13.5 7-10.5 10.5-7 13.5-2.5 16.5v1l1 1h51zm-4 0v51h51l1-1v-1q0-9-2.5-16.5t-7-13.5-10.5-10.5-13.5-7-16.5-2.5h-1zm0 98 1 1h1q9 0 16.5-2.5t13.5-7 10.5-10.5 7-13.5 2.5-16.5v-1l-1-1h-51zm4 0v-51h-51l-1 1v1q0 9 2.5 16.5t7 13.5 10.5 10.5 13.5 7 16.5 2.5h1zm100-598-1-1h-1q-9 0-16.5 2.5t-13.5 7-10.5 10.5-7 13.5-2.5 16.5v1l1 1h51zm-4 0v51h51l1-1v-1q0-9-2.5-16.5t-7-13.5-10.5-10.5-13.5-7-16.5-2.5h-1zm0 98 1 1h1q9 0 16.5-2.5t13.5-7 10.5-10.5 7-13.5 2.5-16.5v-1l-1-1h-51zm4 0v-51h-51l-1 1v1q0 9 2.5 16.5t7 13.5 10.5 10.5 13.5 7 16.5 2.5h1zm0 102-1-1h-1q-9 0-16.5 2.5t-13.5 7-10.5 10.5-7 13.5-2.5 16.5v1l1 1h51zm-4 0v51h51l1-1v-1q0-9-2.5-16.5t-7-13.5-10.5-10.5-13.5-7-16.5-2.5h-1zm0 98 1 1h1q9 0 16.5-2.5t13.5-7 10.5-10.5 7-13.5 2.5-16.5v-1l-1-1h-51zm4 0v-51h-51l-1 1v1q0 9 2.5 16.5t7 13.5 10.5 10.5 13.5 7 16.5 2.5h1zm0 202-1-1h-1q-9 0-16.5 2.5t-13.5 7-10.5 10.5-7 13.5-2.5 16.5v1l1 1h51zm-4 0v51h51l1-1v-1q0-9-2.5-16.5t-7-13.5-10.5-10.5-13.5-7-16.5-2.5h-1zm0 98 1 1h1q9 0 16.5-2.5t13.5-7 10.5-10.5 7-13.5 2.5-16.5v-1l-1-1h-51zm4 0v-51h-51l-1 1v1q0 9 2.5 16.5t7 13.5 10.5 10.5 13.5 7 16.5 2.5h1zm100-598-1-1h-1q-9 0-16.5 2.5t-13.5 7-10.5 10.5-7 13.5-2.5 16.5v1l1 1h51zm-4 0v51h51l1-1v-1q0-9-2.5-16.5t-7-13.5-10.5-10.5-13.5-7-16.5-2.5h-1zm0 98 1 1h1q9 0 16.5-2.5t13.5-7 10.5-10.5 7-13.5 2.5-16.5v-1l-1-1h-51zm4 0v-51h-51l-1 1v1q0 9 2.5 16.5t7 13.5 10.5 10.5 13.5 7 16.5 2.5h1zm0 102-1-1h-1q-9 0-16.5 2.5t-13.5 7-10.5 10.5-7 13.5-2.5 16.5v1l1 1h51zm-4 0v51h51l1-1v-1q0-9-2.5-16.5t-7-13.5-10.5-10.5-13.5-7-16.5-2.5h-1zm0 98 1 1h1q9 0 16.5-2.5t13.5-7 10.5-10.5 7-13.5 2.5-16.5v-1l-1-1h-51zm4 0v-51h-51l-1 1v1q0 9 2.5 16.5t7 13.5 10.5 10.5 13.5 7 16.5 2.5h1zm0 202-1-1h-1q-9 0-16.5 2.5t-13.5 7-10.5 10.5-7 13.5-2.5 16.5v1l1 1h51zm-4 0v51h51l1-1v-1q0-9-2.5-16.5t-7-13.5-10.5-10.5-13.5-7-16.5-2.5h-1zm0 98 1 1h1q9 0 16.5-2.5t13.5-7 10.5-10.5 7-13.5 2.5-16.5v-1l-1-1h-51zm4 0v-51h-51l-1 1v1q0 9 2.5 16.5t7 13.5 10.5 10.5 13.5 7 16.5 2.5h1zm100-498-1-1h-1q-9 0-16.5 2.5t-13.5 7-10.5 10.5-7 13.5-2.5 16.5v1l1 1h51zm-4 0v51h51l1-1v-1q0-9-2.5-16.5t-7-13.5-10.5-10.5-13.5-7-16.5-2.5h-1zm0 98 1 1h1q9 0 16.5-2.5t13.5-7 10.5-10.5 7-13.5 2.5-16.5v-1l-1-1h-51zm4 0v-51h-51l-1 1v1q0 9 2.5 16.5t7 13.5 10.5 10.5 13.5 7 16.5 2.5h1zm0 2-1-1h-1q-9 0-16.5 2.5t-13.5 7-10.5 10.5-7 13.5-2.5 16.5v1l1 1h51zm-4 0v51h51l1-1v-1q0-9-2.5-16.5t-7-13.5-10.5-10.5-13.5-7-16.5-2.5h-1zm0 98 1 1h1q9 0 16.5-2.5t13.5-7 10.5-10.5 7-13.5 2.5-16.5v-1l-1-1h-51zm4 0v-51h-51l-1 1v1q0 9 2.5 16.5t7 13.5 10.5 10.5 13.5 7 16.5 2.5h1zm0 2-1-1h-1q-9 0-16.5 2.5t-13.5 7-10.5 10.5-7 13.5-2.5 16.5v1l1 1h51zm-4 0v51h51l1-1v-1q0-9-2.5-16.5t-7-13.5-10.5-10.5-13.5-7-16.5-2.5h-1zm0 98 1 1h1q9 0 16.5-2.5t13.5-7 10.5-10.5 7-13.5 2.5-16.5v-1l-1-1h-51zm4 0v-51h-51l-1 1v1q0 9 2.5 16.5t7 13.5 10.5 10.5 13.5 7 16.5 2.5h1zm0 2-1-1h-1q-9 0-16.5 2.5t-13.5 7-10.5 10.5-7 13.5-2.5 16.5v1l1 1h51zm-4 0v51h51l1-1v-1q0-9-2.5-16.5t-7-13.5-10.5-10.5-13.5-7-16.5-2.5h-1zm0 98 1 1h1q9 0 16.5-2.5t13.5-7 10.5-10.5 7-13.5 2.5-16.5v-1l-1-1h-51zm4 0v-51h-51l-1 1v1q0 9 2.5 16.5t7 13.5 10.5 10.5 13.5 7 16.5 2.5h1zm0 2-1-1h-1q-9 0-16.5 2.5t-13.5 7-10.5 10.5-7 13.5-2.5 16.5v1l1 1h51zm-4 0v51h51l1-1v-1q0-9-2.5-16.5t-7-13.5-10.5-10.5-13.5-7-16.5-2.5h-1zm0 98 1 1h1q9 0 16.5-2.5t13.5-7 10.5-10.5 7-13.5 2.5-16.5v-1l-1-1h-51zm4 0v-51h-51l-1 1v1q0 9 2.5 16.5t7 13.5 10.5 10.5 13.5 7 16.5 2.5h1z"/><path transform="translate(151.2 11.76) scale(.014 -.014)" d="m52 1-1-1h-1q-9 0-16.5 2.5t-13.5 7-10.5 10.5-7 13.5-2.5 16.5v1l1 1h51zm-4 0v51h51l1-1v-1q0-9-2.5-16.5t-7-13.5-10.5-10.5-13.5-7-16.5-2.5h-1zm0 98 1 1h1q9 0 16.5-2.5t13.5-7 10.5-10.5 7-13.5 2.5-16.5v-1l-1-1h-51zm4 0v-51h-51l-1 1v1q0 9 2.5 16.5t7 13.5 10.5 10.5 13.5 7 16.5 2.5h1zm0 402-1-1h-1q-9 0-16.5 2.5t-13.5 7-10.5 10.5-7 13.5-2.5 16.5v1l1 1h51zm-4 0v51h51l1-1v-1q0-9-2.5-16.5t-7-13.5-10.5-10.5-13.5-7-16.5-2.5h-1zm0 98 1 1h1q9 0 16.5-2.5t13.5-7 10.5-10.5 7-13.5 2.5-16.5v-1l-1-1h-51zm4 0v-51h-51l-1 1v1q0 9 2.5 16.5t7 13.5 10.5 10.5 13.5 7 16.5 2.5h1zm100-598-1-1h-1q-9 0-16.5 2.5t-13.5 7-10.5 10.5-7 13.5-2.5 16.5v1l1 1h51zm-4 0v51h51l1-1v-1q0-9-2.5-16.5t-7-13.5-10.5-10.5-13.5-7-16.5-2.5h-1zm0 98 1 1h1q9 0 16.5-2.5t13.5-7 10.5-10.5 7-13.5 2.5-16.5v-1l-1-1h-51zm4 0v-51h-51l-1 1v1q0 9 2.5 16.5t7 13.5 10.5 10.5 13.5 7 16.5 2.5h1zm0 402-1-1h-1q-9 0-16.5 2.5t-13.5 7-10.5 10.5-7 13.5-2.5 16.5v1l1 1h51zm-4 0v51h51l1-1v-1q0-9-2.5-16.5t-7-13.5-10.5-10.5-13.5-7-16.5-2.5h-1zm0 98 1 1h1q9 0 16.5-2.5t13.5-7 10.5-10.5 7-13.5 2.5-16.5v-1l-1-1h-51zm4 0v-51h-51l-1 1v1q0 9 2.5 16.5t7 13.5 10.5 10.5 13.5 7 16.5 2.5h1zm100-598-1-1h-1q-9 0-16.5 2.5t-13.5 7-10.5 10.5-7 13.5-2.5 16.5v1l1 1h51zm-4 0v51h51l1-1v-1q0-9-2.5-16.5t-7-13.5-10.5-10.5-13.5-7-16.5-2.5h-1zm0 98 1 1h1q9 0 16.5-2.5t13.5-7 10.5-10.5 7-13.5 2.5-16.5v-1l-1-1h-51zm4 0v-51h-51l-1 1v1q0 9 2.5 16.5t7 13.5 10.5 10.5 13.5 7 16.5 2.5h1zm0 2-1-1h-1q-9 0-16.5 2.5t-13.5 7-10.5 10.5-7 13.5-2.5 16.5v1l1 1h51zm-4 0v51h51l1-1v-1q0-9-2.5-16.5t-7-13.5-10.5-10.5-13.5-7-16.5-2.5h-1zm0 98 1 1h1q9 0 16.5-2.5t13.5-7 10.5-10.5 7-13.5 2.5-16.5v-1l-1-1h-51zm4 0v-51h-51l-1 1v1q0 9 2.5 16.5t7 13.5 10.5 10.5 13.5 7 16.5 2.5h1zm0 2-1-1h-1q-9 0-16.5 2.5t-13.5 7-10.5 10.5-7 13.5-2.5 16.5v1l1 1h51zm-4 0v51h51l1-1v-1q0-9-2.5-16.5t-7-13.5-10.5-10.5-13.5-7-16.5-2.5h-1zm0 98 1 1h1q9 0 16.5-2.5t13.5-7 10.5-10.5 7-13.5 2.5-16.5v-1l-1-1h-51zm4 0v-51h-51l-1 1v1q0 9 2.5 16.5t7 13.5 10.5 10.5 13.5 7 16.5 2.5h1zm0 2-1-1h-1q-9 0-16.5 2.5t-13.5 7-10.5 10.5-7 13.5-2.5 16.5v1l1 1h51zm-4 0v51h51l1-1v-1q0-9-2.5-16.5t-7-13.5-10.5-10.5-13.5-7-16.5-2.5h-1zm0 98 1 1h1q9 0 16.5-2.5t13.5-7 10.5-10.5 7-13.5 2.5-16.5v-1l-1-1h-51zm4 0v-51h-51l-1 1v1q0 9 2.5 16.5t7 13.5 10.5 10.5 13.5 7 16.5 2.5h1zm0 2-1-1h-1q-9 0-16.5 2.5t-13.5 7-10.5 10.5-7 13.5-2.5 16.5v1l1 1h51zm-4 0v51h51l1-1v-1q0-9-2.5-16.5t-7-13.5-10.5-10.5-13.5-7-16.5-2.5h-1zm0 98 1 1h1q9 0 16.5-2.5t13.5-7 10.5-10.5 7-13.5 2.5-16.5v-1l-1-1h-51zm4 0v-51h-51l-1 1v1q0 9 2.5 16.5t7 13.5 10.5 10.5 13.5 7 16.5 2.5h1zm0 2-1-1h-1q-9 0-16.5 2.5t-13.5 7-10.5 10.5-7 13.5-2.5 16.5v1l1 1h51zm-4 0v51h51l1-1v-1q0-9-2.5-16.5t-7-13.5-10.5-10.5-13.5-7-16.5-2.5h-1zm0 98 1 1h1q9 0 16.5-2.5t13.5-7 10.5-10.5 7-13.5 2.5-16.5v-1l-1-1h-51zm4 0v-51h-51l-1 1v1q0 9 2.5 16.5t7 13.5 10.5 10.5 13.5 7 16.5 2.5h1zm100-598-1-1h-1q-9 0-16.5 2.5t-13.5 7-10.5 10.5-7 13.5-2.5 16.5v1l1 1h51zm-4 0v51h51l1-1v-1q0-9-2.5-16.5t-7-13.5-10.5-10.5-13.5-7-16.5-2.5h-1zm0 98 1 1h1q9 0 16.5-2.5t13.5-7 10.5-10.5 7-13.5 2.5-16.5v-1l-1-1h-51zm4 0v-51h-51l-1 1v1q0 9 2.5 16.5t7 13.5 10.5 10.5 13.5 7 16.5 2.5h1zm100-98-1-1h-1q-9 0-16.5 2.5t-13.5 7-10.5 10.5-7 13.5-2.5 16.5v1l1 1h51zm-4 0v51h51l1-1v-1q0-9-2.5-16.5t-7-13.5-10.5-10.5-13.5-7-16.5-2.5h-1zm0 98 1 1h1q9 0 16.5-2.5t13.5-7 10.5-10.5 7-13.5 2.5-16.5v-1l-1-1h-51zm4 0v-51h-51l-1 1v1q0 9 2.5 16.5t7 13.5 10.5 10.5 13.5 7 16.5 2.5h1z"/><path transform="translate(159.6 11.76) scale(.014 -.014)" d="m52 101-1-1h-1q-9 0-16.5 2.5t-13.5 7-10.5 10.5-7 13.5-2.5 16.5v1l1 1h51zm-4 0v51h51l1-1v-1q0-9-2.5-16.5t-7-13.5-10.5-10.5-13.5-7-16.5-2.5h-1zm0 98 1 1h1q9 0 16.5-2.5t13.5-7 10.5-10.5 7-13.5 2.5-16.5v-1l-1-1h-51zm4 0v-51h-51l-1 1v1q0 9 2.5 16.5t7 13.5 10.5 10.5 13.5 7 16.5 2.5h1zm0 2-1-1h-1q-9 0-16.5 2.5t-13.5 7-10.5 10.5-7 13.5-2.5 16.5v1l1 1h51zm-4 0v51h51l1-1v-1q0-9-2.5-16.5t-7-13.5-10.5-10.5-13.5-7-16.5-2.5h-1zm0 98 1 1h1q9 0 16.5-2.5t13.5-7 10.5-10.5 7-13.5 2.5-16.5v-1l-1-1h-51zm4 0v-51h-51l-1 1v1q0 9 2.5 16.5t7 13.5 10.5 10.5 13.5 7 16.5 2.5h1zm0 2-1-1h-1q-9 0-16.5 2.5t-13.5 7-10.5 10.5-7 13.5-2.5 16.5v1l1 1h51zm-4 0v51h51l1-1v-1q0-9-2.5-16.5t-7-13.5-10.5-10.5-13.5-7-16.5-2.5h-1zm0 98 1 1h1q9 0 16.5-2.5t13.5-7 10.5-10.5 7-13.5 2.5-16.5v-1l-1-1h-51zm4 0v-51h-51l-1 1v1q0 9 2.5 16.5t7 13.5 10.5 10.5 13.5 7 16.5 2.5h1zm100-398-1-1h-1q-9 0-16.5 2.5t-13.5 7-10.5 10.5-7 13.5-2.5 16.5v1l1 1h51zm-4 0v51h51l1-1v-1q0-9-2.5-16.5t-7-13.5-10.5-10.5-13.5-7-16.5-2.5h-1zm0 98 1 1h1q9 0 16.5-2.5t13.5-7 10.5-10.5 7-13.5 2.5-16.5v-1l-1-1h-51zm4 0v-51h-51l-1 1v1q0 9 2.5 16.5t7 13.5 10.5 10.5 13.5 7 16.5 2.5h1zm0 102-1-1h-1q-9 0-16.5 2.5t-13.5 7-10.5 10.5-7 13.5-2.5 16.5v1l1 1h51zm-4 0v51h51l1-1v-1q0-9-2.5-16.5t-7-13.5-10.5-10.5-13.5-7-16.5-2.5h-1zm0 98 1 1h1q9 0 16.5-2.5t13.5-7 10.5-10.5 7-13.5 2.5-16.5v-1l-1-1h-51zm4 0v-51h-51l-1 1v1q0 9 2.5 16.5t7 13.5 10.5 10.5 13.5 7 16.5 2.5h1zm0 102-1-1h-1q-9 0-16.5 2.5t-13.5 7-10.5 10.5-7 13.5-2.5 16.5v1l1 1h51zm-4 0v51h51l1-1v-1q0-9-2.5-16.5t-7-13.5-10.5-10.5-13.5-7-16.5-2.5h-1zm0 98 1 1h1q9 0 16.5-2.5t13.5-7 10.5-10.5 7-13.5 2.5-16.5v-1l-1-1h-51zm4 0v-51h-51l-1 1v1q0 9 2.5 16.5t7 13.5 10.5 10.5 13.5 7 16.5 2.5h1zm100-498-1-1h-1q-9 0-16.5 2.5t-13.5 7-10.5 10.5-7 13.5-2.5 16.5v1l1 1h51zm-4 0v51h51l1-1v-1q0-9-2.5-16.5t-7-13.5-10.5-10.5-13.5-7-16.5-2.5h-1zm0 98 1 1h1q9 0 16.5-2.5t13.5-7 10.5-10.5 7-13.5 2.5-16.5v-1l-1-1h-51zm4 0v-51h-51l-1 1v1q0 9 2.5 16.5t7 13.5 10.5 10.5 13.5 7 16.5 2.5h1zm0 102-1-1h-1q-9 0-16.5 2.5t-13.5 7-10.5 10.5-7 13.5-2.5 16.5v1l1 1h51zm-4 0v51h51l1-1v-1q0-9-2.5-16.5t-7-13.5-10.5-10.5-13.5-7-16.5-2.5h-1zm0 98 1 1h1q9 0 16.5-2.5t13.5-7 10.5-10.5 7-13.5 2.5-16.5v-1l-1-1h-51zm4 0v-51h-51l-1 1v1q0 9 2.5 16.5t7 13.5 10.5 10.5 13.5 7 16.5 2.5h1zm0 102-1-1h-1q-9 0-16.5 2.5t-13.5 7-10.5 10.5-7 13.5-2.5 16.5v1l1 1h51zm-4 0v51h51l1-1v-1q0-9-2.5-16.5t-7-13.5-10.5-10.5-13.5-7-16.5-2.5h-1zm0 98 1 1h1q9 0 16.5-2.5t13.5-7 10.5-10.5 7-13.5 2.5-16.5v-1l-1-1h-51zm4 0v-51h-51l-1 1v1q0 9 2.5 16.5t7 13.5 10.5 10.5 13.5 7 16.5 2.5h1zm100-498-1-1h-1q-9 0-16.5 2.5t-13.5 7-10.5 10.5-7 13.5-2.5 16.5v1l1 1h51zm-4 0v51h51l1-1v-1q0-9-2.5-16.5t-7-13.5-10.5-10.5-13.5-7-16.5-2.5h-1zm0 98 1 1h1q9 0 16.5-2.5t13.5-7 10.5-10.5 7-13.5 2.5-16.5v-1l-1-1h-51zm4 0v-51h-51l-1 1v1q0 9 2.5 16.5t7 13.5 10.5 10.5 13.5 7 16.5 2.5h1zm0 102-1-1h-1q-9 0-16.5 2.5t-13.5 7-10.5 10.5-7 13.5-2.5 16.5v1l1 1h51zm-4 0v51h51l1-1v-1q0-9-2.5-16.5t-7-13.5-10.5-10.5-13.5-7-16.5-2.5h-1zm0 98 1 1h1q9 0 16.5-2.5t13.5-7 10.5-10.5 7-13.5 2.5-16.5v-1l-1-1h-51zm4 0v-51h-51l-1 1v1q0 9 2.5 16.5t7 13.5 10.5 10.5 13.5 7 16.5 2.5h1zm0 102-1-1h-1q-9 0-16.5 2.5t-13.5 7-10.5 10.5-7 13.5-2.5 16.5v1l1 1h51zm-4 0v51h51l1-1v-1q0-9-2.5-16.5t-7-13.5-10.5-10.5-13.5-7-16.5-2.5h-1zm0 98 1 1h1q9 0 16.5-2.5t13.5-7 10.5-10.5 7-13.5 2.5-16.5v-1l-1-1h-51zm4 0v-51h-51l-1 1v1q0 9 2.5 16.5t7 13.5 10.5 10.5 13.5 7 16.5 2.5h1zm100-498-1-1h-1q-9 0-16.5 2.5t-13.5 7-10.5 10.5-7 13.5-2.5 16.5v1l1 1h51zm-4 0v51h51l1-1v-1q0-9-2.5-16.5t-7-13.5-10.5-10.5-13.5-7-16.5-2.5h-1zm0 98 1 1h1q9 0 16.5-2.5t13.5-7 10.5-10.5 7-13.5 2.5-16.5v-1l-1-1h-51zm4 0v-51h-51l-1 1v1q0 9 2.5 16.5t7 13.5 10.5 10.5 13.5 7 16.5 2.5h1zm0 102-1-1h-1q-9 0-16.5 2.5t-13.5 7-10.5 10.5-7 13.5-2.5 16.5v1l1 1h51zm-4 0v51h51l1-1v-1q0-9-2.5-16.5t-7-13.5-10.5-10.5-13.5-7-16.5-2.5h-1zm0 98 1 1h1q9 0 16.5-2.5t13.5-7 10.5-10.5 7-13.5 2.5-16.5v-1l-1-1h-51zm4 0v-51h-51l-1 1v1q0 9 2.5 16.5t7 13.5 10.5 10.5 13.5 7 16.5 2.5h1zm0 2-1-1h-1q-9 0-16.5 2.5t-13.5 7-10.5 10.5-7 13.5-2.5 16.5v1l1 1h51zm-4 0v51h51l1-1v-1q0-9-2.5-16.5t-7-13.5-10.5-10.5-13.5-7-16.5-2.5h-1zm0 98 1 1h1q9 0 16.5-2.5t13.5-7 10.5-10.5 7-13.5 2.5-16.5v-1l-1-1h-51zm4 0v-51h-51l-1 1v1q0 9 2.5 16.5t7 13.5 10.5 10.5 13.5 7 16.5 2.5h1z"/></svg>