<svg width="116.4" height="14" viewBox="0 0 116.4 14" xmlns="http://www.w3.org/2000/svg"><path transform="translate(0 12.318) scale(.0068359 -.0068359)" d="m61 1556h702q213 0 332-61 61-32 108-83 89-96 89-222 0-304-400-350v-8q212-7 341-92 169-110 169-311 0-195-141-304-60-47-157-80-131-45-288-45h-755v74q130 13 166 44 37 33 37 118v1085q0 90-52 121-42 26-151 40zm348-679h248q186 0 310 62 165 82 165 255 0 153-120 210-104 50-292 50h-152q-88 0-122-31-37-33-37-119zm0-102v-523q0-89 39-119 40-30 166-30h116q220 0 343 57 165 77 165 269 0 210-198 290-136 56-383 56z"/><path transform="translate(10.363 12.318) scale(.0068359 -.0068359)" d="m84 1556h610v-74q-157-14-194-50-35-35-35-136v-1036q0-105 45-140 40-32 184-46v-74h-610v74q150 16 188 49 41 35 41 137v1036q0 123-59 153-45 23-170 33z"/><path transform="translate(15.682 12.318) scale(.0068359 -.0068359)" d="m207 1556h1104v-118l-1022-1336h531q269 0 360 94 75 78 113 316h71l-30-512h-1223v110l1024 1344h-504q-191 0-278-85-80-79-105-263h-71z"/><path transform="translate(30.434 12.318) scale(.0068359 -.0068359)" d="m27 1556h553v-74q-142-13-172-41-33-30-33-120v-682q0-256 95-378 135-173 395-173 181 0 298 94 83 68 123 153 58 124 58 312v674q0 91-37 120-35 27-166 41v74h521v-74q-144-13-176-44-29-27-29-117v-674q0-309-143-483-167-203-465-203-321 0-499 221-84 104-108 258-12 81-12 199v682q0 90-37 118-35 27-166 43z"/><path transform="translate(41.911 12.318) scale(.0068359 -.0068359)" d="m49 1556h702q364 0 569-229 193-215 193-547 0-370-212-580-202-200-558-200h-694v74q128 15 164 43 39 30 39 118v1086q0 90-41 120-43 32-162 41zm350-252v-1052q0-91 37-119 40-31 165-31h117q318 0 480 191 147 172 147 487 0 345-172 514-162 160-463 160h-154q-86 0-120-31-37-33-37-119z"/><path transform="translate(53.108 12.318) scale(.0068359 -.0068359)" d="m39 1556h684q222 0 385-76 46-22 81-47 163-119 163-321 0-158-99-269-84-92-244-134-131-33-352-33h-268v-440q0-82 51-118 46-33 168-44v-74h-569v74q138 16 171 46 34 30 34 116v1085q0 88-47 120-44 31-158 41zm350-778h250q279 0 408 74 133 76 133 258 0 344-488 344h-143q-89 0-123-31-37-33-37-119z"/><path transform="translate(62.911 12.318) scale(.0068359 -.0068359)" d="m41 1556h398l542-1175 555 1175h380v-74q-131-16-165-43-37-28-37-118v-1086q0-89 42-123 32-26 160-38v-74h-552v74q133 12 168 44 37 34 37 117v1116h-9l-564-1195h-80l-551 1222h-8v-1143q0-89 37-118 35-28 165-43v-74h-518v74q129 18 164 45 39 30 39 116v1086q0 88-41 118-35 26-162 43z"/><path transform="translate(76.351 12.318) scale(.0068359 -.0068359)" d="m348 1653q35 0 68-20 59-38 59-107 0-50-35-87-37-40-92-40-32 0-60 15-67 37-67 112 0 58 44 96 36 31 83 31zm-272-1653v74q138 5 173 42 32 33 32 122v649q0 82-43 109-41 26-142 36v74q150 0 330 41v-909q0-96 38-131 35-31 158-33v-74z"/><path transform="translate(80.972 12.318) scale(.0068359 -.0068359)" d="m49 0v74q115 5 151 39 37 34 37 125v649q0 89-39 117-29 20-143 28v74q178 0 325 41v-195q66 92 171 147 93 48 187 48 191 0 303-138 91-113 91-313v-458q0-96 38-128 35-30 152-36v-74h-507v74q104 6 141 39 33 29 33 125v464q0 149-74 239-71 87-190 87-188 0-345-229v-561q0-94 35-125 35-32 137-39v-74z"/><path transform="translate(90.214 12.318) scale(.0068359 -.0068359)" d="m1116 272q-161-313-479-313-174 0-307 92-236 162-236 504 0 226 113 379 102 139 272 189 84 24 172 24 182 0 299-93 105-82 105-177 0-35-14-66-30-63-101-63-59 0-90 45-19 26-19 62 0 72 49 97-63 97-227 97-182 0-296-153-99-134-99-341 0-151 55-263 50-103 139-161 89-57 199-57 246 0 401 264z"/><path transform="translate(98.335 12.318) scale(.0068359 -.0068359)" d="m49 0v74q115 5 151 39 37 34 37 125v1099q0 90-39 117-29 21-143 29v74q178 0 325 41v-646q65 91 171 147 93 48 187 48 191 0 303-138 91-113 91-313v-458q0-96 38-128 35-30 152-36v-74h-507v74q104 6 141 39 33 29 33 125v464q0 149-74 239-71 87-190 87-188 0-345-229v-561q0-94 35-125 35-32 137-39v-74z"/><path transform="translate(107.71 12.318) scale(.0068359 -.0068359)" d="m636 1147q268 0 418-210 113-158 113-387 0-233-111-388-146-203-422-203-237 0-382 155-150 161-150 436 0 258 140 421 150 176 394 176zm-4-98q-136 0-233-100-133-135-133-394 0-209 111-355 108-143 258-143 137 0 243 125 125 149 125 374 0 208-91 342-103 151-280 151z"/></svg>