<svg width="118" height="12" viewBox="0 0 118 12" fill="none" xmlns="http://www.w3.org/2000/svg">
<path d="M6.53 11.17H0.5V0.67H5.95C6.95667 0.67 7.67333 0.866667 8.1 1.26C8.53333 1.65333 8.75 2.22333 8.75 2.97C8.75 3.72333 8.61333 4.30333 8.34 4.71C8.06667 5.11667 7.69667 5.38333 7.23 5.51V5.61C8.58333 5.84333 9.26 6.76667 9.26 8.38C9.26 9.22 9.04 9.89667 8.6 10.41C8.15333 10.9167 7.46333 11.17 6.53 11.17ZM5.18 6.98H3.86V8.71H5.15C5.62333 8.71 5.86 8.42 5.86 7.84C5.86 7.26667 5.63333 6.98 5.18 6.98ZM4.92 2.97H3.86V4.53H4.9C5.32667 4.53 5.54 4.27 5.54 3.75C5.54 3.23 5.33333 2.97 4.92 2.97ZM10.44 9.59V0.25L13.8 0V8.76C13.98 8.8 14.14 8.83 14.28 8.85C14.42 8.86333 14.5367 8.87667 14.63 8.89L14.47 11.35C13.0433 11.35 12.0967 11.2667 11.63 11.1C11.2367 10.96 10.94 10.7767 10.74 10.55C10.54 10.33 10.44 10.01 10.44 9.59ZM19.61 2.52C22.2967 2.52 23.64 3.44333 23.64 5.29V11.17H21.96L21.01 10.22C20.8433 10.4067 20.6467 10.5733 20.42 10.72C20.1867 10.8733 19.94 11 19.68 11.1C19.42 11.2 19.1533 11.28 18.88 11.34C18.6133 11.3933 18.3533 11.42 18.1 11.42C17.62 11.42 17.1933 11.3733 16.82 11.28C16.44 11.18 16.12 11.0233 15.86 10.81C15.6 10.59 15.4 10.3033 15.26 9.95C15.12 9.59667 15.05 9.16333 15.05 8.65C15.05 6.63667 16.57 5.63 19.61 5.63H20.28V5.02C20.1067 5.01333 19.9467 5.00667 19.8 5C19.6533 4.98667 19.52 4.98 19.4 4.98C18.14 4.98 17.0533 5.13333 16.14 5.44L15.73 3.04C16.85 2.69333 18.1433 2.52 19.61 2.52ZM18.43 8.29V8.97H19.13C19.6167 8.97 19.9367 8.91333 20.09 8.8C20.2167 8.68 20.28 8.53667 20.28 8.37V7.57H19.6C19.1933 7.57 18.8967 7.61333 18.71 7.7C18.5233 7.78 18.43 7.97667 18.43 8.29ZM31.31 8.65L31.52 11.07C30.9467 11.3033 30.1967 11.42 29.27 11.42C27.7033 11.42 26.57 11.0533 25.87 10.32C25.17 9.58667 24.82 8.47 24.82 6.97C24.82 5.47 25.17 4.35333 25.87 3.62C26.57 2.88667 27.7033 2.52 29.27 2.52C30.27 2.52 31.02 2.63667 31.52 2.87L31.12 5.15C30.82 5.09667 30.5533 5.05333 30.32 5.02C30.0867 4.98667 29.88 4.97 29.7 4.97C28.8533 4.97 28.43 5.26667 28.43 5.86V8.87C28.59 8.90333 28.7733 8.92667 28.98 8.94C29.1933 8.96 29.43 8.97 29.69 8.97C30.21 8.97 30.75 8.86333 31.31 8.65ZM37.64 11.17H41.27L39.24 6.77L41.18 2.77H37.56L36.34 5.54H36.23V0L32.87 0.25V11.17H36.23V7.84H36.34L37.64 11.17ZM52.36 11.17H55.72V0.67H52.36V4.38H49.84V0.67H46.48V11.17H49.84V7.46H52.36V11.17ZM61.37 2.52C64.0567 2.52 65.4 3.44333 65.4 5.29V11.17H63.72L62.77 10.22C62.6033 10.4067 62.4067 10.5733 62.18 10.72C61.9467 10.8733 61.7 11 61.44 11.1C61.18 11.2 60.9133 11.28 60.64 11.34C60.3733 11.3933 60.1133 11.42 59.86 11.42C59.3867 11.42 58.96 11.3733 58.58 11.28C58.2 11.18 57.88 11.0233 57.62 10.81C57.36 10.59 57.16 10.3033 57.02 9.95C56.88 9.59667 56.81 9.16333 56.81 8.65C56.81 6.63667 58.33 5.63 61.37 5.63H62.04V5.02C61.8667 5.01333 61.7067 5.00667 61.56 5C61.4133 4.98667 61.28 4.98 61.16 4.98C59.9 4.98 58.8133 5.13333 57.9 5.44L57.49 3.04C58.61 2.69333 59.9033 2.52 61.37 2.52ZM60.2 8.29V8.97H60.9C61.38 8.97 61.6967 8.91333 61.85 8.8C61.9767 8.68 62.04 8.53667 62.04 8.37V7.57H61.36C60.96 7.57 60.6667 7.61333 60.48 7.7C60.2933 7.78 60.2 7.97667 60.2 8.29ZM66.92 11.17V2.77H68.6L69.44 3.61C70.4733 2.88333 71.5933 2.52 72.8 2.52C73.5933 2.52 74.21 2.69 74.65 3.03C75.0967 3.37 75.32 3.84333 75.32 4.45V11.17H71.96V5.29H71.44C71.0533 5.29 70.7633 5.33 70.57 5.41C70.3767 5.49 70.28 5.66333 70.28 5.93V11.17H66.92ZM80.69 10.99L81.17 8.22C82.1967 8.46667 83.1233 8.59 83.95 8.59C84.37 8.59 84.7433 8.58333 85.07 8.57C85.39 8.55667 85.6767 8.53333 85.93 8.5V7.66L84.42 7.53C83.7333 7.46333 83.1633 7.35 82.71 7.19C82.25 7.03667 81.8833 6.82 81.61 6.54C81.3367 6.26667 81.14 5.93667 81.02 5.55C80.9067 5.16333 80.85 4.70667 80.85 4.18C80.85 3.46667 80.9233 2.86667 81.07 2.38C81.2167 1.9 81.4533 1.51333 81.78 1.22C82.1067 0.926667 82.53 0.72 83.05 0.6C83.57 0.48 84.2033 0.42 84.95 0.42C86.43 0.42 87.7733 0.56 88.98 0.84L88.56 3.53C87.5133 3.35667 86.6767 3.27 86.05 3.27C85.43 3.27 84.9 3.3 84.46 3.36V4.18L85.66 4.3C86.4 4.37333 87.0167 4.49667 87.51 4.67C88.0033 4.84333 88.4033 5.07 88.71 5.35C89.01 5.63 89.2233 5.96 89.35 6.34C89.4767 6.72 89.54 7.16 89.54 7.66C89.54 8.36667 89.4467 8.96333 89.26 9.45C89.0733 9.93667 88.85 10.3033 88.59 10.55C88.3767 10.7567 88.11 10.92 87.79 11.04C87.47 11.1533 87.1333 11.24 86.78 11.3C86.4267 11.3533 86.07 11.3867 85.71 11.4C85.35 11.4133 85.0267 11.42 84.74 11.42C84.0133 11.42 83.3133 11.3833 82.64 11.31C81.9667 11.2367 81.3167 11.13 80.69 10.99ZM94.78 2.52C97.4667 2.52 98.81 3.44333 98.81 5.29V11.17H97.13L96.18 10.22C96.0067 10.4067 95.8067 10.5733 95.58 10.72C95.3533 10.8733 95.11 11 94.85 11.1C94.5833 11.2 94.3167 11.28 94.05 11.34C93.7767 11.3933 93.5133 11.42 93.26 11.42C92.7867 11.42 92.36 11.3733 91.98 11.28C91.6067 11.18 91.2867 11.0233 91.02 10.81C90.76 10.59 90.56 10.3033 90.42 9.95C90.28 9.59667 90.21 9.16333 90.21 8.65C90.21 6.63667 91.7333 5.63 94.78 5.63H95.45V5.02C95.27 5.01333 95.11 5.00667 94.97 5C94.8233 4.98667 94.69 4.98 94.57 4.98C93.31 4.98 92.22 5.13333 91.3 5.44L90.9 3.04C92.02 2.69333 93.3133 2.52 94.78 2.52ZM93.6 8.29V8.97H94.3C94.7867 8.97 95.1033 8.91333 95.25 8.8C95.3833 8.68 95.45 8.53667 95.45 8.37V7.57H94.76C94.36 7.57 94.0667 7.61333 93.88 7.7C93.6933 7.78 93.6 7.97667 93.6 8.29ZM100.32 11.17V2.77H102L102.84 3.61C103.873 2.88333 104.993 2.52 106.2 2.52C106.993 2.52 107.613 2.69 108.06 3.03C108.5 3.37 108.72 3.84333 108.72 4.45V11.17H105.36V5.29H104.84C104.46 5.29 104.17 5.33 103.97 5.41C103.777 5.49 103.68 5.66333 103.68 5.93V11.17H100.32ZM111.13 3.11C111.85 2.71667 112.833 2.52 114.08 2.52C115.34 2.52 116.493 2.69333 117.54 3.04L117.15 5.32C116.71 5.18667 116.277 5.09333 115.85 5.04C115.417 4.98 114.977 4.95 114.53 4.95C114.397 4.95 114.237 4.95667 114.05 4.97C113.857 4.97667 113.64 4.99333 113.4 5.02V5.56C113.913 5.56 114.44 5.58333 114.98 5.63C115.52 5.68333 116.013 5.80667 116.46 6C116.9 6.18667 117.263 6.47 117.55 6.85C117.83 7.23 117.97 7.74667 117.97 8.4C117.97 8.85333 117.92 9.26 117.82 9.62C117.72 9.98 117.56 10.2667 117.34 10.48C117.12 10.7 116.89 10.8733 116.65 11C116.41 11.1333 116.1 11.2267 115.72 11.28C115.42 11.3267 115.1 11.3633 114.76 11.39C114.42 11.41 114.053 11.42 113.66 11.42C112.287 11.42 111.033 11.2567 109.9 10.93L110.32 8.55C110.793 8.69 111.283 8.79667 111.79 8.87C112.29 8.95 112.817 8.99 113.37 8.99C113.623 8.99 113.863 8.98333 114.09 8.97C114.317 8.96333 114.537 8.94667 114.75 8.92V8.38C113.857 8.38 113.11 8.32333 112.51 8.21C111.903 8.09 111.417 7.91 111.05 7.67C110.683 7.43 110.423 7.11333 110.27 6.72C110.117 6.32667 110.04 5.86 110.04 5.32C110.04 4.23333 110.403 3.49667 111.13 3.11Z" fill="black"/>
</svg>
