<svg width="89.054" height="16.8" viewBox="0 0 89.054 16.8" xmlns="http://www.w3.org/2000/svg"><path transform="translate(0 13.048) scale(.014 -.014)" d="m66 0v23q27 1 42.5 6t21.5 21 6 50v465q0 35-7.5 50.5t-27.5 20.5-60 6v23h95q49 0 80 1.5t57.5 2.5 61.5 1q106 0 155-36.5t49-95.5q0-61-40-97t-98-57v-2q61-3 108.5-23.5t75.5-57.5 28-90q0-52-27.5-100.5t-86-79.5-152.5-31zm155 370q13 9 24.5 11.5t27.5 3.5q30 3 60.5 9.5t56 21.5 41.5 41.5 16 67.5q0 47-22 70t-55 31-68 8q-43 0-62-11t-19-58zm118-334q71 0 110.5 26t55.5 64.5 16 76.5q0 55-27.5 87.5t-74 47-104.5 14.5q-49 0-71.5-12.5t-22.5-46.5v-193q0-29 10-42.5t35.5-17.5 72.5-4z"/><path transform="translate(9.282 13.048) scale(.014 -.014)" d="m274 455q58 0 106.5-28.5t78.5-79.5 30-119q0-60-20.5-105.5t-54.5-76-74.5-46-79.5-15.5q-57 0-106 28.5t-78.5 79.5-29.5 119q0 60 20.5 105.5t54.5 76 74 46 79 15.5zm3-430q59 0 93 42.5t34 131.5q0 61-18.5 110t-51.5 77.5-77 28.5q-58 0-92-42.5t-34-131.5q0-60 18.5-109t51.5-78 76-29z"/><path transform="translate(16.772 13.048) scale(.014 -.014)" d="m481 101q0-35 6.5-51t25-21 53.5-6v-23h-225v23q22 1 35 6t19 21 6 51v215q0 35-15.5 55t-53.5 20q-33 0-69-14t-74-44v-232q0-35 6.5-51t25-21 53.5-6v-23h-225v23q23 1 36 6t18.5 21 5.5 51v227q0 27-8 35.5t-22 8.5q-11 0-21.5-2.5t-21.5-7.5l-10 23 161 75 6-6q-2-9-4.5-35t-2.5-55h2q38 40 82.5 65.5t96.5 25.5q64 0 89-31.5t25-83.5z"/><path transform="translate(24.906 13.048) scale(.014 -.014)" d="m158-15q-47 0-76.5 24.5t-29.5 70.5q0 37 23 68t76 57 144 48v65q0 41-17.5 68t-66.5 27q-47 0-74.5-29.5t-38.5-91.5h-23v125q35 17 74.5 27.5t87.5 10.5q55 0 84.5-14.5t41.5-40.5 12-61v-242q0-53 33-53 12 0 27.5 8t36.5 33l16-16q-46-79-110-79-66 0-81 67h-2q-55-72-137-72zm37 59q48 0 100 44v134q-72-18-106-39.5t-44.5-43-10.5-39.5q0-29 18-42.5t43-13.5z"/><path transform="translate(35.77 13.048) scale(.014 -.014)" d="m632-8q-15 23-33 46.5t-49 57.5l-365 413h-2v-409q0-37 18.5-56t77.5-21v-23h-211v23q41 2 55.5 21t14.5 56v465q0 39-22.5 57t-72.5 20v23h136q15-25 32.5-49t38.5-47l369-413h2v409q0 37-18.5 56t-77.5 21v23h211v-23q-40-2-55-21t-15-56v-465q0-28 0.5-53.5t1.5-54.5z"/><path transform="translate(46.662 13.048) scale(.014 -.014)" d="m274 455q58 0 106.5-28.5t78.5-79.5 30-119q0-60-20.5-105.5t-54.5-76-74.5-46-79.5-15.5q-57 0-106 28.5t-78.5 79.5-29.5 119q0 60 20.5 105.5t54.5 76 74 46 79 15.5zm3-430q59 0 93 42.5t34 131.5q0 61-18.5 110t-51.5 77.5-77 28.5q-58 0-92-42.5t-34-131.5q0-60 18.5-109t51.5-78 76-29z"/><path transform="translate(54.152 13.048) scale(.014 -.014)" d="m213-10q-7 26-13.5 45t-17.5 44l-112 263q-14 34-25.5 49t-24 20-30.5 6v23h211v-23q-34-1-48-6.5t-12-21 15-47.5l97-230h2l95 230q20 47 7.5 60t-65.5 15v23h177v-23q-15-1-27-6.5t-22.5-21-24.5-47.5l-111-263q-11-27-16-45t-11-44z"/><path transform="translate(60.648 13.048) scale(.014 -.014)" d="m158-15q-47 0-76.5 24.5t-29.5 70.5q0 37 23 68t76 57 144 48v65q0 41-17.5 68t-66.5 27q-47 0-74.5-29.5t-38.5-91.5h-23v125q35 17 74.5 27.5t87.5 10.5q55 0 84.5-14.5t41.5-40.5 12-61v-242q0-53 33-53 12 0 27.5 8t36.5 33l16-16q-46-79-110-79-66 0-81 67h-2q-55-72-137-72zm37 59q48 0 100 44v134q-72-18-106-39.5t-44.5-43-10.5-39.5q0-29 18-42.5t43-13.5z"/><path transform="translate(71.512 13.048) scale(.014 -.014)" d="m262-15q-28 0-62 6.5t-64.5 20.5-50 38.5-19.5 60.5q0 20 5 42t13 36h23q4-76 50-120t117-44q49 0 78.5 18t43 46.5 13.5 60.5q0 46-23 75.5t-59.5 50-77 39-77 41.5-59.5 57-23 86q0 54 27 94.5t76 63.5 115 23q58 0 95.5-9t60.5-18v-145h-23q-6 64-38 98t-102 34q-49 0-79.5-15.5t-44-40-13.5-51.5q0-40 23-66t59.5-45 78-38 78-44 59.5-62 23-94q0-62-28.5-106.5t-79-68.5-115.5-24z"/><path transform="translate(79.198 13.048) scale(.014 -.014)" d="m406-15q-73 0-136 24.5t-110.5 70-73.5 108.5-26 139q0 82 30 147.5t82 111.5 120 70 144 24q37 0 75.5-5t72-13.5 55.5-18.5v-158h-23q-4 59-33 92.5t-71.5 48-88.5 14.5q-71 0-132-32t-97.5-97.5-36.5-167.5q0-97 34-168.5t90.5-110.5 125.5-39q63 0 111.5 29.5t79.5 74.5 41 91h23l-6-117q-38-47-98-82.5t-152-35.5z"/></svg>