<svg width="50" height="11" viewBox="0 0 50 11" fill="none" xmlns="http://www.w3.org/2000/svg">
<path d="M4.62 10.5H0.5V10.01L1.83 9.6V1.6L0.5 1.33L0.64 0.7H4.62C5.64 0.7 6.43667 0.913333 7.01 1.34C7.58333 1.76 7.87 2.37333 7.87 3.18C7.87 3.64667 7.76333 4.03 7.55 4.33C7.33 4.62333 7.05667 4.84667 6.73 5C6.40333 5.16 6.07333 5.26667 5.74 5.32V5.39C6.16 5.39667 6.56667 5.49333 6.96 5.68C7.36 5.86 7.69 6.12 7.95 6.46C8.20333 6.8 8.33 7.22333 8.33 7.73C8.33 8.45 8.18 9.01 7.88 9.41C7.57333 9.81 7.14333 10.0933 6.59 10.26C6.04333 10.42 5.38667 10.5 4.62 10.5ZM3.23 5.11H4.84C5.08667 5.11 5.33 5.04333 5.57 4.91C5.80333 4.77 6 4.56333 6.16 4.29C6.32 4.01667 6.4 3.66333 6.4 3.23C6.4 2.68333 6.24667 2.25333 5.94 1.94C5.62667 1.62667 5.18667 1.47 4.62 1.47H3.23V5.11ZM3.23 9.73H4.62C5.17333 9.73 5.61333 9.63333 5.94 9.44C6.26667 9.25333 6.5 9.00667 6.64 8.7C6.78667 8.4 6.86 8.08 6.86 7.74C6.86 7.42667 6.78333 7.12 6.63 6.82C6.47667 6.52667 6.24667 6.28667 5.94 6.1C5.64 5.90667 5.26667 5.81 4.82 5.81H3.23V9.73ZM14.88 3.32V5.19L14.15 5.32L13.78 4.26C13.74 4.24667 13.6933 4.24 13.64 4.24C13.58 4.24 13.5333 4.24 13.5 4.24C13.2 4.24 12.8867 4.30667 12.56 4.44C12.2333 4.56667 11.9767 4.74 11.79 4.96V9.63L13.08 9.83L12.94 10.5H9.32V10.08L10.54 9.66V4.3L9.38 4.07L9.31 3.46L11.79 3.12V4.27C12.1033 3.93667 12.44 3.66 12.8 3.44C13.16 3.22667 13.5467 3.12 13.96 3.12C14.2667 3.12 14.5733 3.18667 14.88 3.32ZM21.97 10.5H19.84V9.37C19.6533 9.59 19.4167 9.79333 19.13 9.98C18.8433 10.1667 18.5433 10.32 18.23 10.44C17.9233 10.5533 17.6333 10.61 17.36 10.61C16.8667 10.61 16.4333 10.4533 16.06 10.14C15.6867 9.82 15.5 9.36667 15.5 8.78C15.5 8.31333 15.62 7.93333 15.86 7.64C16.0933 7.34667 16.5133 7.12 17.12 6.96C17.58 6.84 18.0233 6.74 18.45 6.66C18.87 6.58 19.3333 6.51 19.84 6.45V5.31C19.84 4.78333 19.7 4.41 19.42 4.19C19.14 3.97 18.8033 3.86 18.41 3.86C18.1967 3.86 17.9767 3.87667 17.75 3.91C17.53 3.93667 17.31 3.98667 17.09 4.06L16.7 5.66L15.97 5.53V3.71C16.3367 3.55 16.7267 3.40667 17.14 3.28C17.56 3.15333 18.0067 3.09 18.48 3.09C18.9667 3.09 19.4067 3.16 19.8 3.3C20.2 3.43333 20.5167 3.66333 20.75 3.99C20.9833 4.31667 21.1 4.76 21.1 5.32V9.62L22.11 9.86L21.97 10.5ZM16.9 8.67C16.9 9.10333 17.0033 9.39 17.21 9.53C17.4233 9.66333 17.67 9.73 17.95 9.73C18.17 9.73 18.4067 9.67333 18.66 9.56C18.9133 9.44667 19.1467 9.30333 19.36 9.13C19.5667 8.96333 19.7267 8.8 19.84 8.64V7.04C19.54 7.08 19.24 7.12 18.94 7.16C18.64 7.2 18.3433 7.26333 18.05 7.35C17.61 7.47 17.3067 7.64667 17.14 7.88C16.98 8.11333 16.9 8.37667 16.9 8.67ZM31.67 4.03L30.7 3.89L30.84 3.22H33.52V3.64L32.45 4.06L30.72 10.5H29.93L27.96 5.36L26.31 10.5H25.55L23.1 4.03L22.08 3.85L22.22 3.22H25.42V3.64L24.33 3.99L26.11 8.6L27.83 3.22H28.41L30.45 8.54L31.67 4.03ZM35.6 0V9.63L36.79 9.83L36.65 10.5H33.11V10.08L34.34 9.66V1.12L33.21 0.91L33.14 0.34L35.6 0ZM43.81 6.75H38.84C38.84 7.36333 38.9467 7.89333 39.16 8.34C39.38 8.78 39.68 9.12 40.06 9.36C40.44 9.6 40.8633 9.72 41.33 9.72C41.99 9.72 42.6767 9.49 43.39 9.03L43.69 9.56C43.2367 9.91333 42.7667 10.18 42.28 10.36C41.7933 10.54 41.3167 10.63 40.85 10.63C40.2367 10.63 39.67 10.4833 39.15 10.19C38.63 9.89 38.2133 9.45667 37.9 8.89C37.5933 8.32333 37.44 7.63667 37.44 6.83C37.44 6.21667 37.5367 5.67667 37.73 5.21C37.9233 4.74333 38.1833 4.35333 38.51 4.04C38.8367 3.72667 39.2033 3.49333 39.61 3.34C40.01 3.18667 40.41 3.11 40.81 3.11C41.4367 3.11 41.9467 3.21333 42.34 3.42C42.7267 3.63333 43.03 3.91667 43.25 4.27C43.4633 4.62333 43.61 5.01667 43.69 5.45C43.77 5.87667 43.81 6.31 43.81 6.75ZM38.88 5.99H42.41C42.41 5.49667 42.33 5.09333 42.17 4.78C42.0167 4.46667 41.8167 4.23667 41.57 4.09C41.3167 3.93667 41.05 3.86 40.77 3.86C40.4767 3.86 40.19 3.94333 39.91 4.11C39.6233 4.27 39.3833 4.51 39.19 4.83C39.0033 5.15 38.9 5.53667 38.88 5.99ZM49.99 3.32V5.19L49.27 5.32L48.89 4.26C48.85 4.24667 48.8033 4.24 48.75 4.24C48.69 4.24 48.6433 4.24 48.61 4.24C48.31 4.24 47.9967 4.30667 47.67 4.44C47.3433 4.56667 47.0867 4.74 46.9 4.96V9.63L48.19 9.83L48.05 10.5H44.44V10.08L45.65 9.66V4.3L44.49 4.07L44.42 3.46L46.9 3.12V4.27C47.22 3.93667 47.5567 3.66 47.91 3.44C48.27 3.22667 48.6567 3.12 49.07 3.12C49.3767 3.12 49.6833 3.18667 49.99 3.32Z" fill="black"/>
</svg>
