<svg width="86" height="14" viewBox="0 0 86 14" fill="none" xmlns="http://www.w3.org/2000/svg">
<path d="M3.06 8.57C3.68667 8.57 4.28 8.38667 4.84 8.02C5.4 7.66 5.68 7.23 5.68 6.73C5.68 6.37667 5.54 6.08333 5.26 5.85C4.77333 5.45667 4.09667 5.26 3.23 5.26C3.01667 5.26 2.90333 5.26667 2.89 5.28C2.87667 5.28667 2.87 5.72 2.87 6.58C2.87 7.44 2.91 8.09667 2.99 8.55C3.01 8.56333 3.03333 8.57 3.06 8.57ZM4.15 3.56C4.39667 3.46667 4.60667 3.31667 4.78 3.11C4.95333 2.91 5.04 2.7 5.04 2.48C5.04 2.26667 4.97333 2.09333 4.84 1.96C4.70667 1.82667 4.54333 1.73 4.35 1.67C4.15667 1.60333 3.96667 1.55667 3.78 1.53C3.6 1.49667 3.42667 1.48 3.26 1.48C3.09333 1.48 3 1.48667 2.98 1.5C2.96667 1.52 2.95 1.90333 2.93 2.65C2.90333 3.40333 2.89 3.80333 2.89 3.85C2.90333 3.85667 2.95333 3.86 3.04 3.86C3.12667 3.86 3.27333 3.83667 3.48 3.79C3.68667 3.73667 3.91 3.66 4.15 3.56ZM1.12 7.56L1.19 2.21C1.19 1.83667 1.18 1.64 1.16 1.62C1.05333 1.52 0.916667 1.29333 0.75 0.94C0.583333 0.593333 0.5 0.37 0.5 0.27L0.51 0.22C0.57 0.173333 0.866667 0.133333 1.4 0.0999999C1.94 0.0599999 2.47333 0.04 3 0.04C3.52667 0.04 4.01 0.0733332 4.45 0.14C4.89 0.206667 5.31667 0.31 5.73 0.45C6.14333 0.59 6.47667 0.796667 6.73 1.07C6.98333 1.34333 7.11 1.65 7.11 1.99C7.11 2.33667 7.03667 2.64667 6.89 2.92C6.74333 3.19333 6.56333 3.42333 6.35 3.61C6.02333 3.89 5.70667 4.10667 5.4 4.26C5.38 4.27333 5.37 4.28667 5.37 4.3C5.38333 4.30667 5.45 4.33 5.57 4.37C5.69667 4.40333 5.82 4.44667 5.94 4.5C6.05333 4.55333 6.19667 4.62 6.37 4.7C6.53667 4.78667 6.69 4.88667 6.83 5C6.97 5.12 7.1 5.25333 7.22 5.4C7.49333 5.72 7.63 6.15333 7.63 6.7C7.63 7.24667 7.46 7.75667 7.12 8.23C6.78667 8.71 6.34 9.08333 5.78 9.35C4.66 9.89 3.38667 10.16 1.96 10.16L1.24 10.12C1.21333 10.0867 1.18667 9.75 1.16 9.11C1.13333 8.47 1.12 7.95333 1.12 7.56ZM12.05 8.99L12.04 8.69L12.02 8.67C11.8 9.01 11.5167 9.28333 11.17 9.49C10.83 9.69667 10.4967 9.8 10.17 9.8C9.19 9.8 8.63 9.04 8.49 7.52C8.47667 7.27333 8.47 6.64667 8.47 5.64C8.47 4.63333 8.51 4.03667 8.59 3.85C8.83667 3.65667 9.23 3.56 9.77 3.56C9.98333 3.56 10.1133 3.58333 10.16 3.63C10.16 3.63667 10.1567 3.76 10.15 4C10.1033 4.71333 10.08 5.26 10.08 5.64C10.08 6.02667 10.0833 6.31 10.09 6.49C10.0967 6.67 10.1033 6.78667 10.11 6.84C10.1167 6.89333 10.13 6.98333 10.15 7.11C10.1767 7.24333 10.2133 7.35667 10.26 7.45C10.4 7.71667 10.6167 7.85 10.91 7.85C11.2033 7.85 11.4633 7.70333 11.69 7.41C11.9233 7.11667 12.0333 6.91 12.02 6.79V6.31C12.02 4.60333 12.05 3.68667 12.11 3.56C12.1567 3.47333 12.3033 3.38333 12.55 3.29C12.7967 3.19667 13.04 3.15 13.28 3.15C13.5267 3.15 13.6667 3.17 13.7 3.21L13.67 3.86C13.6167 5.2 13.59 6.23333 13.59 6.96C13.59 7.68667 13.61 8.14667 13.65 8.34C13.71 8.80667 13.8333 9.18 14.02 9.46C14.02 9.55333 13.83 9.70333 13.45 9.91C13.07 10.1167 12.7433 10.22 12.47 10.22C12.3967 10.22 12.3133 10.08 12.22 9.8C12.1267 9.52 12.07 9.25 12.05 8.99ZM14.96 7.5L14.93 2.34C14.93 1.17333 14.9533 0.566667 15 0.52C15.1133 0.406667 15.3 0.3 15.56 0.2C15.8133 0.0933331 16.0567 0.04 16.29 0.04C16.5233 0.04 16.64 0.0599999 16.64 0.0999999C16.62 0.193333 16.5967 0.723333 16.57 1.69C16.5367 2.65667 16.5233 3.25667 16.53 3.49H16.75C17.79 3.49 18.6367 3.72667 19.29 4.2C19.55 4.39333 19.7767 4.68333 19.97 5.07C20.17 5.46333 20.27 5.91667 20.27 6.43C20.27 7.31667 19.91 8.05667 19.19 8.65C18.47 9.23667 17.5867 9.61667 16.54 9.79C16.54 10.0033 16.5367 10.12 16.53 10.14C16.41 10.26 16.1967 10.3533 15.89 10.42C15.59 10.48 15.3433 10.51 15.15 10.51C14.9567 10.51 14.86 10.4967 14.86 10.47C14.9267 10.21 14.96 9.22 14.96 7.5ZM16.57 8.25C16.8167 8.25 17.07 8.21 17.33 8.13C17.59 8.05 17.8 7.95 17.96 7.83C18.1267 7.70333 18.2767 7.51 18.41 7.25C18.55 6.99 18.62 6.65 18.62 6.23C18.62 5.81 18.47 5.48667 18.17 5.26C17.8767 5.04 17.54 4.93 17.16 4.93L16.52 4.97V5.98C16.52 7.24 16.5367 7.99667 16.57 8.25ZM21.07 7.5L21.04 2.34C21.04 1.17333 21.0633 0.566667 21.11 0.52C21.2233 0.406667 21.4067 0.3 21.66 0.2C21.92 0.0933331 22.1667 0.04 22.4 0.04C22.6333 0.04 22.75 0.0599999 22.75 0.0999999C22.73 0.193333 22.7033 0.723333 22.67 1.69C22.6367 2.65667 22.6233 3.25667 22.63 3.49H22.86C23.8933 3.49 24.7367 3.72667 25.39 4.2C25.65 4.39333 25.88 4.68333 26.08 5.07C26.2733 5.46333 26.37 5.91667 26.37 6.43C26.37 7.31667 26.01 8.05667 25.29 8.65C24.5767 9.23667 23.6967 9.61667 22.65 9.79C22.65 10.0033 22.6433 10.12 22.63 10.14C22.51 10.26 22.3 10.3533 22 10.42C21.6933 10.48 21.4433 10.51 21.25 10.51C21.0633 10.51 20.97 10.4967 20.97 10.47C21.0367 10.21 21.07 9.22 21.07 7.5ZM22.68 8.25C22.92 8.25 23.17 8.21 23.43 8.13C23.69 8.05 23.9033 7.95 24.07 7.83C24.23 7.70333 24.38 7.51 24.52 7.25C24.6533 6.99 24.72 6.65 24.72 6.23C24.72 5.81 24.5733 5.48667 24.28 5.26C23.9867 5.04 23.6467 4.93 23.26 4.93L22.62 4.97V5.98C22.62 7.24 22.64 7.99667 22.68 8.25ZM27.49 7.53L27.55 2.46C27.55 1.72667 27.54 1.23 27.52 0.97C27.5 0.703333 27.49 0.563334 27.49 0.55C27.49 0.456667 27.6467 0.346666 27.96 0.22C28.2733 0.0999998 28.55 0.04 28.79 0.04C29.0367 0.04 29.16 0.0599999 29.16 0.0999999C29.1133 0.446667 29.09 1.66 29.09 3.74L29.06 7.17C29.06 7.81 29.07 8.20667 29.09 8.36C29.1367 8.76667 29.27 9.14 29.49 9.48C29.49 9.57333 29.3 9.72333 28.92 9.93C28.54 10.13 28.2133 10.23 27.94 10.23C27.8667 10.23 27.7833 10.09 27.69 9.81C27.5967 9.53 27.54 9.29 27.52 9.09C27.5 8.88333 27.49 8.36333 27.49 7.53ZM33.85 5.07C33.85 4.79667 33.7033 4.66 33.41 4.66C33.03 4.66 32.6967 4.85667 32.41 5.25C32.1167 5.64333 31.97 6.11333 31.97 6.66C31.97 6.79333 31.99 6.86 32.03 6.86C32.3633 6.85333 32.75 6.66 33.19 6.28C33.63 5.9 33.85 5.49667 33.85 5.07ZM35.07 9.52C34.75 9.73333 34.1267 9.84 33.2 9.84C32.28 9.84 31.5733 9.56667 31.08 9.02C30.58 8.46667 30.33 7.73 30.33 6.81C30.33 5.89 30.6267 5.09333 31.22 4.42C31.8133 3.74 32.6467 3.4 33.72 3.4C34.16 3.4 34.5633 3.51667 34.93 3.75C35.3033 3.98333 35.49 4.39333 35.49 4.98C35.49 5.56 35.2333 6.13667 34.72 6.71C34.2133 7.27667 33.52 7.71 32.64 8.01C32.64 8.12333 32.7567 8.21333 32.99 8.28C33.2167 8.35333 33.4433 8.39 33.67 8.39C34.3767 8.39 34.9367 8.26333 35.35 8.01C35.3567 7.99667 35.37 7.99 35.39 7.99C35.41 7.99 35.42 8.08 35.42 8.26C35.42 8.8 35.3033 9.22 35.07 9.52ZM41.66 4.27V6.05L41.69 9.37C41.69 10.0967 41.59 10.7433 41.39 11.31C41.1967 11.87 40.96 12.3067 40.68 12.62C40.4 12.9333 40.0767 13.1867 39.71 13.38C39.1233 13.7067 38.5333 13.87 37.94 13.87C37.9067 13.87 37.85 13.8 37.77 13.66C37.6833 13.52 37.6033 13.33 37.53 13.09C37.4567 12.85 37.42 12.6267 37.42 12.42H37.68C37.8667 12.42 38.0467 12.4033 38.22 12.37C38.3933 12.3367 38.6067 12.2467 38.86 12.1C39.1133 11.9467 39.3267 11.75 39.5 11.51C39.68 11.2633 39.8367 10.9033 39.97 10.43C40.0967 9.95667 40.16 9.4 40.16 8.76C40.16 8.72667 40.1567 8.71 40.15 8.71L40.11 8.75C39.7167 9.35667 39.1033 9.66 38.27 9.66C37.6433 9.66 37.1433 9.41333 36.77 8.92C36.3967 8.42667 36.21 7.87 36.21 7.25C36.21 6.13 36.57 5.20667 37.29 4.48C38.01 3.75333 39.0433 3.39 40.39 3.39C40.7167 3.39 40.88 3.41333 40.88 3.46C40.9067 3.62 40.92 3.79333 40.92 3.98L40.9 4.19H41.06C41.36 4.19 41.56 4.21667 41.66 4.27ZM40.13 4.87L39.84 4.83C39.24 4.83 38.7667 5.02333 38.42 5.41C38.0667 5.79667 37.89 6.28 37.89 6.86C37.89 7.14667 37.9767 7.4 38.15 7.62C38.3233 7.83333 38.5767 7.94 38.91 7.94C39.2433 7.94 39.52 7.81 39.74 7.55C39.9667 7.28333 40.08 7.07333 40.08 6.92C40.08 5.85333 40.0967 5.17 40.13 4.87ZM46.2 8.99L46.18 8.69L46.17 8.67C45.9433 9.01 45.66 9.28333 45.32 9.49C44.98 9.69667 44.6467 9.8 44.32 9.8C43.34 9.8 42.78 9.04 42.64 7.52C42.62 7.27333 42.61 6.64667 42.61 5.64C42.61 4.63333 42.6533 4.03667 42.74 3.85C42.98 3.65667 43.37 3.56 43.91 3.56C44.13 3.56 44.2633 3.58333 44.31 3.63C44.31 3.63667 44.3033 3.76 44.29 4C44.2433 4.71333 44.22 5.26 44.22 5.64C44.22 6.02667 44.2267 6.31 44.24 6.49C44.2467 6.67 44.2533 6.78667 44.26 6.84C44.26 6.89333 44.2733 6.98333 44.3 7.11C44.32 7.24333 44.3533 7.35667 44.4 7.45C44.54 7.71667 44.76 7.85 45.06 7.85C45.3533 7.85 45.6133 7.70333 45.84 7.41C46.0667 7.11667 46.1767 6.91 46.17 6.79V6.31C46.17 4.60333 46.1967 3.68667 46.25 3.56C46.2967 3.47333 46.4433 3.38333 46.69 3.29C46.9367 3.19667 47.1833 3.15 47.43 3.15C47.67 3.15 47.81 3.17 47.85 3.21L47.82 3.86C47.7667 5.2 47.74 6.23333 47.74 6.96C47.74 7.68667 47.7567 8.14667 47.79 8.34C47.8567 8.80667 47.9833 9.18 48.17 9.46C48.17 9.55333 47.98 9.70333 47.6 9.91C47.2133 10.1167 46.8867 10.22 46.62 10.22C46.54 10.22 46.4533 10.08 46.36 9.8C46.2667 9.52 46.2133 9.25 46.2 8.99ZM49.11 7.78L49.07 4.49C49.07 3.89667 49.0933 3.57667 49.14 3.53C49.2467 3.42333 49.4167 3.32667 49.65 3.24C49.8833 3.15333 50.11 3.11 50.33 3.11C50.5433 3.11 50.65 3.12667 50.65 3.16C50.61 3.57333 50.59 3.88667 50.59 4.1C50.59 4.31333 50.6 4.42 50.62 4.42C50.64 4.42 50.6667 4.4 50.7 4.36C50.74 4.32 50.81 4.25333 50.91 4.16C51.0033 4.07333 51.1833 3.95333 51.45 3.8C51.7167 3.64667 51.9633 3.57 52.19 3.57C52.7967 3.57 53.2533 3.84 53.56 4.38C54.0933 3.63333 54.68 3.26 55.32 3.26C55.9 3.26 56.3167 3.50667 56.57 4C56.83 4.55333 56.9833 5.10667 57.03 5.66C57.09 6.46 57.12 7.29 57.12 8.15L57.06 9.79C57.06 9.85 56.9067 9.91 56.6 9.97C56.2933 10.0367 56.0467 10.07 55.86 10.07L55.41 10C55.51 9.07333 55.56 8.32667 55.56 7.76C55.56 7.18667 55.5533 6.77667 55.54 6.53C55.5267 6.28333 55.4933 6.03667 55.44 5.79C55.38 5.54333 55.2933 5.36667 55.18 5.26C55.06 5.15333 54.9133 5.1 54.74 5.1C54.56 5.1 54.4 5.14667 54.26 5.24C54.12 5.34 54.02 5.43667 53.96 5.53C53.9 5.62333 53.87 5.68333 53.87 5.71C53.8967 6.01 53.91 6.7 53.91 7.78L53.85 8.89C53.85 8.96333 53.7033 9.03 53.41 9.09C53.11 9.14333 52.8667 9.17 52.68 9.17L52.23 9.1C52.3167 8.34667 52.36 7.64 52.36 6.98C52.36 6.32 52.3233 5.85667 52.25 5.59C52.1833 5.32333 52 5.19 51.7 5.19C51.4 5.19 51.1467 5.34 50.94 5.64C50.7333 5.94 50.63 6.17 50.63 6.33V6.62L50.65 8.11C50.65 9.02333 50.63 9.50333 50.59 9.55C50.3567 9.77 49.8667 9.88 49.12 9.88C49.0467 9.88 49.01 9.86667 49.01 9.84C49.0767 9.44 49.11 8.75333 49.11 7.78ZM66.26 1.53C66.1067 1.51 65.9367 1.5 65.75 1.5C65.5567 1.5 65.3233 1.51667 65.05 1.55C64.77 1.59 64.4833 1.65 64.19 1.73C63.8967 1.81 63.6567 1.93333 63.47 2.1C63.2833 2.26667 63.19 2.47 63.19 2.71C63.19 2.95 63.3333 3.16 63.62 3.34C63.9067 3.52 64.25 3.68667 64.65 3.84C65.05 3.99333 65.4533 4.17 65.86 4.37C66.2667 4.56333 66.61 4.85 66.89 5.23C67.1767 5.61 67.32 6.06333 67.32 6.59C67.32 7.53667 66.87 8.33667 65.97 8.99C65.07 9.65 63.9333 9.98 62.56 9.98C61.8733 9.98 61.36 9.94333 61.02 9.87C60.94 9.78333 60.9 9.28333 60.9 8.37C60.9 7.45 60.9167 6.89667 60.95 6.71C60.9767 6.62333 61.14 6.52 61.44 6.4C61.74 6.28 62.03 6.22 62.31 6.22C62.31 7.32 62.4267 7.98667 62.66 8.22C62.7533 8.31333 62.93 8.36 63.19 8.36C63.79 8.36 64.31 8.19 64.75 7.85C65.1967 7.51667 65.42 7.12 65.42 6.66C65.42 6.35333 65.2733 6.08333 64.98 5.85C64.6933 5.61667 64.3433 5.41333 63.93 5.24C63.51 5.06667 63.0967 4.88667 62.69 4.7C62.2767 4.50667 61.9267 4.24333 61.64 3.91C61.3467 3.57 61.2 3.17333 61.2 2.72C61.2 2.03333 61.61 1.41 62.43 0.85C63.2433 0.283333 64.4267 0 65.98 0C66.34 0 66.5433 0.0233335 66.59 0.0700002C66.6033 0.0966668 66.61 0.163333 66.61 0.27C66.61 0.376667 66.5767 0.586667 66.51 0.9C66.4433 1.20667 66.36 1.41667 66.26 1.53ZM73.3 5.68V6.4C73.3 7.56667 73.3133 8.24667 73.34 8.44C73.4133 8.95333 73.5733 9.32333 73.82 9.55C73.82 9.65 73.6367 9.80333 73.27 10.01C72.8967 10.2167 72.56 10.32 72.26 10.32C72.18 10.32 72.0933 10.1967 72 9.95C71.9067 9.70333 71.8533 9.51667 71.84 9.39C71.8267 9.27 71.8133 9.21 71.8 9.21L71.76 9.24C71.2667 9.63333 70.6867 9.83 70.02 9.83C69.36 9.83 68.85 9.66667 68.49 9.34C68.13 9.02 67.95 8.6 67.95 8.08C67.95 7.55333 68.0667 7.11 68.3 6.75C68.5267 6.39667 68.7933 6.12667 69.1 5.94C69.4067 5.75333 69.7467 5.60333 70.12 5.49C70.6933 5.30333 71.1433 5.21 71.47 5.21L71.49 5.19C71.49 4.73667 70.9133 4.51 69.76 4.51C69.3 4.51 68.96 4.52667 68.74 4.56H68.72C68.72 4.37333 68.78 4.14 68.9 3.86C69.0133 3.58 69.11 3.4 69.19 3.32C69.27 3.23333 69.6033 3.19 70.19 3.19C71.2567 3.19 72.04 3.39333 72.54 3.8C73.0467 4.20667 73.3 4.83333 73.3 5.68ZM71.75 7.29V6.76C71.75 6.55333 71.7433 6.45 71.73 6.45C71.1033 6.45 70.5633 6.61333 70.11 6.94C69.8167 7.14667 69.67 7.40333 69.67 7.71C69.67 7.91 69.74 8.07333 69.88 8.2C70.02 8.33333 70.2333 8.4 70.52 8.4C70.8067 8.4 71.0833 8.31667 71.35 8.15C71.6167 7.98333 71.75 7.69667 71.75 7.29ZM76.42 6.17V6.37L76.44 6.89V7.95C76.44 8.95 76.42 9.47 76.38 9.51C76.26 9.63 76.05 9.72333 75.75 9.79C75.45 9.85 75.2067 9.88 75.02 9.88C74.8267 9.88 74.73 9.86667 74.73 9.84C74.7967 9.42 74.83 8.73 74.83 7.77L74.78 4.62C74.78 4.04 74.8033 3.72667 74.85 3.68C74.9567 3.58 75.1367 3.49 75.39 3.41C75.6367 3.33 75.87 3.29 76.09 3.29C76.31 3.29 76.42 3.31333 76.42 3.36C76.3933 3.58667 76.38 3.81 76.38 4.03C76.38 4.25667 76.3933 4.37 76.42 4.37L76.46 4.34C76.5067 4.27333 76.5767 4.19 76.67 4.09C76.7633 3.99667 76.9633 3.86667 77.27 3.7C77.57 3.54 77.86 3.46 78.14 3.46C78.4133 3.46 78.6467 3.51 78.84 3.61C79.0267 3.70333 79.1833 3.82 79.31 3.96C79.43 4.1 79.5333 4.3 79.62 4.56C79.7067 4.82667 79.7733 5.07 79.82 5.29C79.8667 5.51667 79.9067 5.81667 79.94 6.19C79.9667 6.70333 79.98 7.35667 79.98 8.15L79.94 9.79C79.94 9.85 79.7833 9.91 79.47 9.97C79.1633 10.0367 78.9167 10.07 78.73 10.07L78.27 10C78.3633 9.16 78.41 8.34333 78.41 7.55C78.41 6.76333 78.36 6.17 78.26 5.77C78.1533 5.37667 77.9467 5.18 77.64 5.18C77.3333 5.18 77.0833 5.26333 76.89 5.43C76.6967 5.59667 76.5733 5.76667 76.52 5.94L76.42 6.17ZM85.17 7.91C85.17 8.41667 84.9367 8.86667 84.47 9.26C83.9967 9.66 83.4867 9.94333 82.94 10.11C82.3933 10.2833 81.9133 10.37 81.5 10.37C81.4533 10.37 81.39 10.3167 81.31 10.21C81.0767 9.89667 80.96 9.53667 80.96 9.13V9.03C81.6867 9.03 82.24 8.90333 82.62 8.65C83.0067 8.39667 83.2 8.13667 83.2 7.87C83.2 7.69 83.0833 7.50333 82.85 7.31C82.6167 7.11 82.36 6.93667 82.08 6.79C81.8 6.64333 81.5433 6.44667 81.31 6.2C81.0767 5.94667 80.96 5.68667 80.96 5.42C80.96 4.84667 81.3133 4.32333 82.02 3.85C82.7333 3.37667 83.49 3.14 84.29 3.14C84.3833 3.14 84.5033 3.26667 84.65 3.52C84.8033 3.78 84.8833 4.04333 84.89 4.31C84.7033 4.31 84.4233 4.36667 84.05 4.48C83.3167 4.71333 82.95 5.00333 82.95 5.35C82.95 5.59 83.3133 5.92 84.04 6.34C84.32 6.5 84.5767 6.72 84.81 7C85.0433 7.28 85.1633 7.58333 85.17 7.91Z" fill="black"/>
</svg>
