<svg width="130.35" height="18.48" viewBox="0 0 130.35 18.48" xmlns="http://www.w3.org/2000/svg"><path transform="translate(0 14.28) scale(.014 -.014)" d="m489-10h-384q-46 0-46 46v648q0 46 46 46h319q105 0 153.5-40t48.5-123v-48q0-71-40-102 54-13 80.5-52t26.5-109v-92q0-88-49-131t-155-43zm0 10q100 0 147 40t47 124v92q0 74-30.5 111.5t-95.5 43.5q59 25 59 108v48q0 79-47 116t-145 37h-319q-36 0-36-36v-648q0-36 36-36zm-309 630h203q56 0 84-14.5t37.5-38.5 9.5-53v-64q0-30-10.5-55t-53.5-36q56 0 83.5-15t37-41 9.5-59v-64q0-29-9.5-52t-37.5-35.5-84-12.5h-269zm10-271v-259h259q50 0 76 11t35.5 31.5 9.5 47.5v64q0 30-9 53.5t-34.5 37.5-76.5 14zm193 10q55 0 80.5 13t33 33.5 7.5 44.5v64q0 27-9 49t-35 34.5-77 12.5h-193v-251zm-89-81h130q38 0 38-39v-39q0-40-38-40h-130zm10-10v-98h120q28 0 28 30v39q0 29-28 29zm-10 272h85q38 0 38-40v-28q0-40-38-40h-85zm10-10v-88h75q28 0 28 30v28q0 30-28 30z"/><path transform="translate(10.15 14.28) scale(.014 -.014)" d="m692 189q0-47-13.5-86.5t-48.5-68-97-44-160-15.5q-97 0-159.5 15.5t-97.5 44-48.5 68-13.5 86.5v495q0 46 46 46h157q46 0 46-46v-456q0-18 15.5-27.5t56.5-9.5q42 0 57.5 9.5t15.5 27.5v456q0 24 10.5 35t35.5 11h152q46 0 46-46zm-10 0v495q0 36-36 36h-152q-36 0-36-36v-456q0-20-15-33.5t-68-13.5q-52 0-67 13.5t-15 33.5v456q0 36-36 36h-157q-36 0-36-36v-495q0-46 13.5-83.5t48-64.5 94.5-41.5 153-14.5 153 14.5 94.5 41.5 48 64.5 13.5 83.5zm-508 441h10v-417q0-37 16.5-65.5t58-44 115.5-15.5q75 0 116.5 15.5t58 44 16.5 65.5v417h10v-417q0-40-17.5-70.5t-61-47.5-122.5-17q-78 0-121.5 17t-61 47.5-17.5 70.5z"/><path transform="translate(20.594 14.28) scale(.014 -.014)" d="m255-10h-150q-46 0-46 46v648q0 46 46 46h104q40 0 67-30l176-201v185q0 46 46 46h150q46 0 46-46v-648q0-46-46-46h-150q-46 0-46 46v119l-151 183v-302q0-46-46-46zm0 10q36 0 36 36v330l171-207v-123q0-36 36-36h150q36 0 36 36v648q0 36-36 36h-150q-36 0-36-36v-213l-194 222q-23 27-59 27h-104q-36 0-36-36v-648q0-36 36-36zm-54 622 368-414v422h10v-540h-10v103l-378 424q-3 3-5 3t-2-3v-527h-10v529q0 12 12 12 6 0 15-9z"/><path transform="translate(31.136 14.28) scale(.014 -.014)" d="m619-10h-315q-132 0-194 52.5t-62 161.5v312q0 109 62 161.5t194 52.5h250q46 0 46-46v-121q0-46-46-46h-208q-51 0-51-40v-239q0-39 36-39h87v146q0 46 46 46h155q46 0 46-46v-309q0-46-46-46zm0 10q36 0 36 36v309q0 36-36 36h-155q-36 0-36-36v-156h-97q-46 0-46 49v239q0 50 61 50h208q36 0 36 36v121q0 36-36 36h-250q-126 0-186-50t-60-154v-312q0-104 60-154t186-50zm-73 291v-201h-199q-73 0-112 13t-53.5 41.5-14.5 74.5v280q0 48 13.5 76.5t48 41.5 98.5 13h173v-10h-173q-59 0-91.5-11.5t-45.5-38-13-71.5v-280q0-43 14.5-69.5t51.5-38 104-11.5h189v191z"/><path transform="translate(41.048 14.28) scale(.014 -.014)" d="m569-10h-464q-46 0-46 46v648q0 46 46 46h464q46 0 46-46v-117q0-46-46-46h-266v-57h185q46 0 46-46v-107q0-46-46-46h-185v-66h266q46 0 46-46v-117q0-46-46-46zm0 10q36 0 36 36v117q0 36-36 36h-276v86h195q36 0 36 36v107q0 36-36 36h-195v77h276q36 0 36 36v117q0 36-36 36h-464q-36 0-36-36v-648q0-36 36-36zm-54 100v-10h-337v540h337v-10h-327v-251h246v-10h-246v-259z"/><path transform="translate(50.204 14.28) scale(.014 -.014)" d="m569-10h-464q-46 0-46 46v648q0 46 46 46h464q46 0 46-46v-117q0-46-46-46h-266v-57h185q46 0 46-46v-107q0-46-46-46h-185v-66h266q46 0 46-46v-117q0-46-46-46zm0 10q36 0 36 36v117q0 36-36 36h-276v86h195q36 0 36 36v107q0 36-36 36h-195v77h276q36 0 36 36v117q0 36-36 36h-464q-36 0-36-36v-648q0-36 36-36zm-54 100v-10h-337v540h337v-10h-327v-251h246v-10h-246v-259z"/><path transform="translate(62.51 14.28) scale(.014 -.014)" d="m689 189q0-47-13.5-86.5t-48-68-97.5-44-161-15.5-161 15.5-98 44-48.5 68-13.5 86.5v341q0 47 13.5 86.5t48.5 68.5 98 44.5 161 15.5 161-15.5 97.5-44.5 48-68.5 13.5-86.5zm-10 0v341q0 46-13.5 83.5t-47.5 64.5-94.5 42-154.5 15-154.5-15-94.5-42-48-64.5-14-83.5v-341q0-46 14-83.5t48-64.5 94.5-41.5 154.5-14.5 154.5 14.5 94.5 41.5 47.5 64.5 13.5 83.5zm-312-112q-78 0-122 17t-61.5 47.5-17.5 70.5v295q0 41 17.5 71t61.5 47 122 17q79 0 123-17t62-47 18-71v-295q0-40-18-70.5t-62-47.5-123-17zm0 10q75 0 117 15.5t59 44 17 65.5v295q0 38-17 66t-59 43.5-117 15.5q-74 0-116-15.5t-58.5-43.5-16.5-66v-295q0-37 16.5-65.5t58.5-44 116-15.5zm-82 138v269q0 20 15 33t69 13q55 0 69.5-13t14.5-33v-269q0-20-14.5-33.5t-69.5-13.5q-54 0-69 13.5t-15 33.5zm10 0q0-18 15.5-27.5t58.5-9.5 58.5 9.5 15.5 27.5v269q0 17-15.5 26.5t-58.5 9.5q-42 0-58-9.5t-16-26.5z"/><path transform="translate(72.828 14.28) scale(.014 -.014)" d="m692 189q0-47-13.5-86.5t-48.5-68-97-44-160-15.5q-97 0-159.5 15.5t-97.5 44-48.5 68-13.5 86.5v495q0 46 46 46h157q46 0 46-46v-456q0-18 15.5-27.5t56.5-9.5q42 0 57.5 9.5t15.5 27.5v456q0 24 10.5 35t35.5 11h152q46 0 46-46zm-10 0v495q0 36-36 36h-152q-36 0-36-36v-456q0-20-15-33.5t-68-13.5q-52 0-67 13.5t-15 33.5v456q0 36-36 36h-157q-36 0-36-36v-495q0-46 13.5-83.5t48-64.5 94.5-41.5 153-14.5 153 14.5 94.5 41.5 48 64.5 13.5 83.5zm-508 441h10v-417q0-37 16.5-65.5t58-44 115.5-15.5q75 0 116.5 15.5t58 44 16.5 65.5v417h10v-417q0-40-17.5-70.5t-61-47.5-122.5-17q-78 0-121.5 17t-61 47.5-17.5 70.5z"/><path transform="translate(83.272 14.28) scale(.014 -.014)" d="m409-10h-162q-46 0-46 46v481h-137q-46 0-46 46v121q0 46 46 46h528q46 0 46-46v-121q0-46-46-46h-137v-481q0-46-46-46zm0 10q36 0 36 36v491h147q36 0 36 36v121q0 36-36 36h-528q-36 0-36-36v-121q0-36 36-36h147v-491q0-36 36-36zm-86 90v530h-205v10h420v-10h-205v-530z"/><path transform="translate(92.456 14.28) scale(.014 -.014)" d="m614-10h-509q-46 0-46 46v648q0 46 46 46h155q46 0 46-46v-485h117v152q0 46 46 46h145q46 0 46-46v-315q0-46-46-46zm0 10q36 0 36 36v315q0 36-36 36h-145q-36 0-36-36v-162h-137v495q0 36-36 36h-155q-36 0-36-36v-648q0-36 36-36zm-68 297v-207h-368v540h10v-530h348v197z"/><path transform="translate(102.19 14.28) scale(.014 -.014)" d="m89-10q-46 0-46 46v119q0 46 46 46h89v316h-89q-46 0-46 46v121q0 46 46 46h426q46 0 46-46v-121q0-46-46-46h-87v-316h87q46 0 46-46v-119q0-46-46-46zm0 10h426q36 0 36 36v119q0 36-36 36h-97v336h97q36 0 36 36v121q0 36-36 36h-426q-36 0-36-36v-121q0-36 36-36h99v-336h-99q-36 0-36-36v-119q0-36 36-36zm54 630h318v-10h-153v-520h153v-10h-318v10h155v520h-155z"/><path transform="translate(110.66 14.28) scale(.014 -.014)" d="m255-10h-150q-46 0-46 46v648q0 46 46 46h104q40 0 67-30l176-201v185q0 46 46 46h150q46 0 46-46v-648q0-46-46-46h-150q-46 0-46 46v119l-151 183v-302q0-46-46-46zm0 10q36 0 36 36v330l171-207v-123q0-36 36-36h150q36 0 36 36v648q0 36-36 36h-150q-36 0-36-36v-213l-194 222q-23 27-59 27h-104q-36 0-36-36v-648q0-36 36-36zm-54 622 368-414v422h10v-540h-10v103l-378 424q-3 3-5 3t-2-3v-527h-10v529q0 12 12 12 6 0 15-9z"/><path transform="translate(121.2 14.28) scale(.014 -.014)" d="m569-10h-464q-46 0-46 46v648q0 46 46 46h464q46 0 46-46v-117q0-46-46-46h-266v-57h185q46 0 46-46v-107q0-46-46-46h-185v-66h266q46 0 46-46v-117q0-46-46-46zm0 10q36 0 36 36v117q0 36-36 36h-276v86h195q36 0 36 36v107q0 36-36 36h-195v77h276q36 0 36 36v117q0 36-36 36h-464q-36 0-36-36v-648q0-36 36-36zm-54 100v-10h-337v540h337v-10h-327v-251h246v-10h-246v-259z"/></svg>