<svg width="129" height="13" viewBox="0 0 129 13" fill="none" xmlns="http://www.w3.org/2000/svg">
<path d="M6.52 11.89H1.14C0.92 11.89 0.756667 11.8367 0.65 11.73C0.55 11.63 0.5 11.4667 0.5 11.24V2.17C0.5 2.05 0.516667 1.94667 0.55 1.86C0.583333 1.78 0.633333 1.71 0.7 1.65L2.5 0.13C2.54667 0.0899996 2.61 0.0566664 2.69 0.0299997C2.77 0.00999973 2.85667 0 2.95 0H7.42C8.38667 0 9.1 0.19 9.56 0.57C10.0133 0.943333 10.24 1.51333 10.24 2.28V2.95C10.24 3.27667 10.1967 3.55667 10.11 3.79C10.0233 4.02333 9.89 4.21 9.71 4.35L9.67 4.38C10.1767 4.49333 10.5533 4.73333 10.8 5.1C11.0533 5.47333 11.18 5.98667 11.18 6.64V7.92C11.18 8.34 11.12 8.70333 11 9.01C10.88 9.31 10.6967 9.56333 10.45 9.77L8.65 11.3C8.41667 11.4933 8.12333 11.64 7.77 11.74C7.41 11.84 6.99333 11.89 6.52 11.89ZM2.95 10.22H8.33C9.25 10.22 9.93333 10.0333 10.38 9.66C10.82 9.28667 11.04 8.70667 11.04 7.92V6.64C11.04 5.95333 10.8967 5.43333 10.61 5.08C10.3167 4.72667 9.87333 4.52333 9.28 4.47C9.56 4.34333 9.76667 4.15667 9.9 3.91C10.0333 3.66333 10.1 3.34333 10.1 2.95V2.28C10.1 1.55333 9.88333 1.01667 9.45 0.67C9.01 0.316666 8.33333 0.14 7.42 0.14H2.95C2.77 0.14 2.64 0.18 2.56 0.26C2.48667 0.34 2.45 0.466667 2.45 0.64V9.72C2.45 9.89333 2.48667 10.02 2.56 10.1C2.64 10.18 2.77 10.22 2.95 10.22ZM7.77 8.96H4V1.4H6.84C7.22667 1.4 7.54 1.44 7.78 1.52C8.02 1.6 8.20667 1.70667 8.34 1.84C8.47333 1.97333 8.56333 2.13 8.61 2.31C8.65667 2.49 8.68 2.68 8.68 2.88V3.78C8.68 4.06 8.63 4.31667 8.53 4.55C8.43 4.78333 8.18 4.95 7.78 5.05C8.16 5.05 8.47333 5.09 8.72 5.17C8.96 5.25 9.14667 5.36333 9.28 5.51C9.40667 5.65667 9.49333 5.82667 9.54 6.02C9.58 6.21333 9.6 6.42667 9.6 6.66V7.56C9.6 7.76667 9.57667 7.95667 9.53 8.13C9.48333 8.30333 9.39667 8.45 9.27 8.57C9.14333 8.69 8.96 8.78333 8.72 8.85C8.47333 8.92333 8.15667 8.96 7.77 8.96ZM6.84 1.54H4.14V5.05H6.84C7.22667 5.05 7.53 5.01667 7.75 4.95C7.97667 4.87667 8.14667 4.78333 8.26 4.67C8.38 4.55 8.45667 4.41333 8.49 4.26C8.52333 4.10667 8.54 3.94667 8.54 3.78V2.88C8.54 2.50667 8.43 2.19 8.21 1.93C7.99667 1.67 7.54 1.54 6.84 1.54ZM5.6 4.03V2.52H6.79C6.96333 2.52 7.09667 2.56667 7.19 2.66C7.27667 2.75333 7.32 2.89333 7.32 3.08V3.47C7.32 3.65667 7.27667 3.79667 7.19 3.89C7.09667 3.98333 6.96333 4.03 6.79 4.03H5.6ZM7.78 5.19H4.14V8.82H7.77C8.47 8.82 8.92667 8.70667 9.14 8.48C9.35333 8.24667 9.46 7.94 9.46 7.56V6.66C9.46 6.24 9.35667 5.89 9.15 5.61C8.93667 5.33 8.48 5.19 7.78 5.19ZM5.6 7.84V6.19H7.42C7.59333 6.19 7.72667 6.23333 7.82 6.32C7.90667 6.40667 7.95 6.54333 7.95 6.73V7.28C7.95 7.46667 7.90667 7.60667 7.82 7.7C7.72667 7.79333 7.59333 7.84 7.42 7.84H5.6ZM16.45 12.1C15.5433 12.1 14.7967 12.0033 14.21 11.81C13.63 11.6167 13.1767 11.3633 12.85 11.05C12.5233 10.73 12.2967 10.3633 12.17 9.95C12.0433 9.54333 11.98 9.12 11.98 8.68V2.17C11.98 2.05 11.9967 1.94667 12.03 1.86C12.0633 1.78 12.1133 1.71 12.18 1.65L13.98 0.13C14.0267 0.0899996 14.09 0.0566664 14.17 0.0299997C14.25 0.00999973 14.3367 0 14.43 0H16.63C16.85 0 17.0133 0.0499996 17.12 0.15C17.22 0.256666 17.27 0.42 17.27 0.64V7.03C17.27 7.11 17.2833 7.18667 17.31 7.26C17.3433 7.32667 17.4067 7.38 17.5 7.42V2.17C17.5 2.05 17.5133 1.94667 17.54 1.86C17.5667 1.78 17.6067 1.71667 17.66 1.67L17.68 1.65L19.5 0.13C19.5467 0.0899996 19.6067 0.0566664 19.68 0.0299997C19.7533 0.00999973 19.8433 0 19.95 0H22.07C22.2967 0 22.46 0.0499996 22.56 0.15C22.6667 0.256666 22.72 0.42 22.72 0.64V7.57C22.72 8.00333 22.66 8.4 22.54 8.76C22.4133 9.12667 22.1933 9.44 21.88 9.7L20.06 11.21C19.7333 11.49 19.28 11.7067 18.7 11.86C18.12 12.02 17.37 12.1 16.45 12.1ZM22.58 7.57V0.64C22.58 0.466667 22.54 0.34 22.46 0.26C22.38 0.18 22.25 0.14 22.07 0.14H19.95C19.77 0.14 19.64 0.18 19.56 0.26C19.48 0.34 19.44 0.466667 19.44 0.64V7.03C19.44 7.21667 19.37 7.37333 19.23 7.5C19.09 7.62667 18.7733 7.69 18.28 7.69C17.7933 7.69 17.48 7.62667 17.34 7.5C17.2 7.37333 17.13 7.21667 17.13 7.03V0.64C17.13 0.466667 17.09 0.34 17.01 0.26C16.93 0.18 16.8033 0.14 16.63 0.14H14.43C14.25 0.14 14.1233 0.18 14.05 0.26C13.97 0.34 13.93 0.466667 13.93 0.64V7.57C13.93 8.00333 13.9933 8.39333 14.12 8.74C14.24 9.09333 14.4633 9.39333 14.79 9.64C15.11 9.88667 15.55 10.08 16.11 10.22C16.67 10.36 17.3833 10.43 18.25 10.43C19.1167 10.43 19.83 10.36 20.39 10.22C20.95 10.08 21.3933 9.88667 21.72 9.64C22.04 9.39333 22.2633 9.09333 22.39 8.74C22.5167 8.39333 22.58 8.00333 22.58 7.57ZM15.47 7.24V1.4H15.61V7.24C15.61 7.76 15.7933 8.18333 16.16 8.51C16.5267 8.83 17.23 8.99 18.27 8.99C19.3033 8.99 20.0067 8.83 20.38 8.51C20.7533 8.18333 20.94 7.76 20.94 7.24V1.4H21.08V7.24C21.08 7.8 20.8833 8.25333 20.49 8.6C20.0967 8.95333 19.3567 9.13 18.27 9.13C17.1767 9.13 16.4367 8.95333 16.05 8.6C15.6633 8.25333 15.47 7.8 15.47 7.24ZM27.69 1.51L32.84 7.31V1.4H32.98V8.96H32.84V7.52L27.55 1.58C27.5367 1.57333 27.5233 1.56333 27.51 1.55C27.4967 1.54333 27.4867 1.54 27.48 1.54C27.4667 1.54 27.46 1.54333 27.46 1.55C27.4533 1.56333 27.45 1.57333 27.45 1.58V8.96H27.31V1.55C27.31 1.49667 27.33 1.45667 27.37 1.43C27.4033 1.40333 27.44 1.39 27.48 1.39C27.5133 1.39 27.5467 1.39667 27.58 1.41C27.6067 1.43 27.6433 1.46333 27.69 1.51ZM26.34 10.22H28.44C28.62 10.22 28.75 10.18 28.83 10.1C28.91 10.02 28.95 9.89333 28.95 9.72V5.1L31.34 7.99V9.72C31.34 9.89333 31.38 10.02 31.46 10.1C31.54 10.18 31.67 10.22 31.85 10.22H33.95C34.1233 10.22 34.25 10.18 34.33 10.1C34.41 10.02 34.45 9.89333 34.45 9.72V0.64C34.45 0.466667 34.41 0.34 34.33 0.26C34.25 0.18 34.1233 0.14 33.95 0.14H31.85C31.67 0.14 31.54 0.18 31.46 0.26C31.38 0.34 31.34 0.466667 31.34 0.64V3.63L28.63 0.52C28.5033 0.38 28.3767 0.28 28.25 0.22C28.13 0.166666 27.98 0.14 27.8 0.14H26.34C26.1667 0.14 26.04 0.18 25.96 0.26C25.88 0.34 25.84 0.466667 25.84 0.64V9.72C25.84 9.89333 25.88 10.02 25.96 10.1C26.04 10.18 26.1667 10.22 26.34 10.22ZM28.89 10.23L27.07 11.75C27.0367 11.7833 26.98 11.8133 26.9 11.84C26.82 11.8733 26.7333 11.89 26.64 11.89H24.54C24.3133 11.89 24.15 11.8367 24.05 11.73C23.9433 11.63 23.89 11.4667 23.89 11.24V2.17C23.89 2.05 23.9067 1.94667 23.94 1.86C23.9733 1.78 24.0233 1.71 24.09 1.65L25.9 0.13C25.9467 0.0899996 26.0067 0.0566664 26.08 0.0299997C26.16 0.00999973 26.2467 0 26.34 0H27.8C28.0067 0 28.18 0.0333332 28.32 0.0999999C28.46 0.166667 28.6 0.273333 28.74 0.42L29.7 1.54L31.4 0.13C31.4467 0.0899996 31.51 0.0566664 31.59 0.0299997C31.67 0.00999973 31.7567 0 31.85 0H33.95C34.17 0 34.3333 0.0499996 34.44 0.15C34.54 0.256666 34.59 0.42 34.59 0.64V9.72C34.59 9.84 34.5733 9.94 34.54 10.02C34.5067 10.1067 34.4567 10.1767 34.39 10.23L32.57 11.75C32.5367 11.7833 32.48 11.8133 32.4 11.84C32.32 11.8733 32.2333 11.89 32.14 11.89H30.04C29.8133 11.89 29.65 11.8367 29.55 11.73C29.45 11.63 29.4 11.4667 29.4 11.24V9.58L29.09 9.2V9.72C29.09 9.84 29.0733 9.94 29.04 10.02C29.0067 10.1067 28.9567 10.1767 28.89 10.23ZM43.68 11.89H39.27C38.0433 11.89 37.14 11.57 36.56 10.93C35.9733 10.2967 35.68 9.47667 35.68 8.47V4.52C35.68 4.00667 35.7567 3.56333 35.91 3.19C36.0567 2.81667 36.2733 2.50333 36.56 2.25L38.37 0.73C38.6567 0.483333 39.0267 0.3 39.48 0.18C39.9333 0.0599998 40.4633 0 41.07 0H44.57C44.7967 0 44.96 0.0499996 45.06 0.15C45.1667 0.256666 45.22 0.42 45.22 0.64V2.34C45.22 2.46 45.2033 2.56333 45.17 2.65C45.1367 2.73 45.0867 2.8 45.02 2.86L43.2 4.37C43.16 4.40333 43.1033 4.43667 43.03 4.47C42.95 4.49667 42.8633 4.51 42.77 4.51H40.95V6.52C40.9567 6.50667 40.9733 6.48667 41 6.46C41.02 6.44 41.04 6.42 41.06 6.4L42.86 4.87C42.9067 4.83667 42.97 4.80667 43.05 4.78C43.13 4.76 43.2167 4.75 43.31 4.75H45.48C45.7067 4.75 45.87 4.8 45.97 4.9C46.0767 5 46.13 5.16333 46.13 5.39V9.72C46.13 9.84 46.1133 9.94 46.08 10.02C46.0467 10.1067 45.9967 10.1767 45.93 10.23L44.11 11.75C44.07 11.7833 44.01 11.8133 43.93 11.84C43.8567 11.8733 43.7733 11.89 43.68 11.89ZM41.07 10.22H45.48C45.66 10.22 45.79 10.18 45.87 10.1C45.95 10.02 45.99 9.89333 45.99 9.72V5.39C45.99 5.21 45.95 5.08333 45.87 5.01C45.79 4.93 45.66 4.89 45.48 4.89H43.31C43.1367 4.89 43.01 4.93 42.93 5.01C42.85 5.08333 42.81 5.21 42.81 5.39V7.57H41.45C41.2367 7.57 41.0767 7.51667 40.97 7.41C40.8633 7.29667 40.81 7.12333 40.81 6.89V3.54C40.81 3.30667 40.88 3.13333 41.02 3.02C41.16 2.9 41.3733 2.84 41.66 2.84H44.57C44.75 2.84 44.88 2.8 44.96 2.72C45.04 2.64 45.08 2.51333 45.08 2.34V0.64C45.08 0.466667 45.04 0.34 44.96 0.26C44.88 0.18 44.75 0.14 44.57 0.14H41.07C39.9033 0.14 39.0367 0.373333 38.47 0.84C37.91 1.30667 37.63 2.02667 37.63 3V7.36C37.63 8.33333 37.91 9.05333 38.47 9.52C39.0367 9.98667 39.9033 10.22 41.07 10.22ZM44.46 8.96H41.67C41.1567 8.96 40.7367 8.92667 40.41 8.86C40.0833 8.79333 39.8267 8.69 39.64 8.55C39.4533 8.40333 39.3267 8.21667 39.26 7.99C39.1867 7.75667 39.15 7.47667 39.15 7.15V3.23C39.15 2.57 39.3 2.1 39.6 1.82C39.9 1.54 40.4967 1.4 41.39 1.4H43.82V1.54H41.39C40.57 1.54 40.0167 1.67 39.73 1.93C39.4367 2.18333 39.29 2.61667 39.29 3.23V7.15C39.29 7.75667 39.4533 8.18667 39.78 8.44C40.1 8.69333 40.73 8.82 41.67 8.82H44.32V6.15H44.46V8.96ZM54.29 11.89H47.79C47.57 11.89 47.4067 11.8367 47.3 11.73C47.2 11.63 47.15 11.4667 47.15 11.24V2.17C47.15 2.05 47.1667 1.94667 47.2 1.86C47.2333 1.78 47.28 1.71 47.34 1.65L49.15 0.13C49.1967 0.0899996 49.26 0.0566664 49.34 0.0299997C49.42 0.00999973 49.5067 0 49.6 0H56.09C56.3167 0 56.48 0.0499996 56.58 0.15C56.6867 0.256666 56.74 0.42 56.74 0.64V2.28C56.74 2.4 56.7233 2.50333 56.69 2.59C56.6567 2.67667 56.6067 2.74667 56.54 2.8L55.34 3.79C55.4333 3.83667 55.5 3.90667 55.54 4C55.58 4.09333 55.6 4.21667 55.6 4.37V5.87C55.6 5.99 55.5833 6.09 55.55 6.17C55.5233 6.25667 55.4767 6.32667 55.41 6.38L54.16 7.43H56.09C56.3167 7.43 56.48 7.48333 56.58 7.59C56.6867 7.69 56.74 7.85333 56.74 8.08V9.72C56.74 9.84 56.7233 9.94 56.69 10.02C56.6567 10.1067 56.6067 10.1767 56.54 10.23L54.72 11.75C54.6867 11.7833 54.63 11.8133 54.55 11.84C54.47 11.8733 54.3833 11.89 54.29 11.89ZM49.6 10.22H56.09C56.27 10.22 56.4 10.18 56.48 10.1C56.56 10.02 56.6 9.89333 56.6 9.72V8.08C56.6 7.9 56.56 7.77 56.48 7.69C56.4 7.61 56.27 7.57 56.09 7.57H52.23V6.37H54.96C55.14 6.37 55.2667 6.33 55.34 6.25C55.42 6.17 55.46 6.04333 55.46 5.87V4.37C55.46 4.19 55.42 4.06 55.34 3.98C55.2667 3.9 55.14 3.86 54.96 3.86H52.23V2.79H56.09C56.27 2.79 56.4 2.75 56.48 2.67C56.56 2.59 56.6 2.46 56.6 2.28V0.64C56.6 0.466667 56.56 0.34 56.48 0.26C56.4 0.18 56.27 0.14 56.09 0.14H49.6C49.42 0.14 49.29 0.18 49.21 0.26C49.13 0.34 49.09 0.466667 49.09 0.64V9.72C49.09 9.89333 49.13 10.02 49.21 10.1C49.29 10.18 49.42 10.22 49.6 10.22ZM50.76 8.82H55.34V8.96H50.62V1.4H55.34V1.54H50.76V5.05H54.2V5.19H50.76V8.82ZM64.84 11.89H58.35C58.1233 11.89 57.96 11.8367 57.86 11.73C57.7533 11.63 57.7 11.4667 57.7 11.24V2.17C57.7 2.05 57.7167 1.94667 57.75 1.86C57.7833 1.78 57.8333 1.71 57.9 1.65L59.71 0.13C59.7567 0.0899996 59.8167 0.0566664 59.89 0.0299997C59.97 0.00999973 60.0567 0 60.15 0H66.65C66.8767 0 67.04 0.0499996 67.14 0.15C67.24 0.256666 67.29 0.42 67.29 0.64V2.28C67.29 2.4 67.2767 2.50333 67.25 2.59C67.2167 2.67667 67.1667 2.74667 67.1 2.8L65.89 3.79C65.9833 3.83667 66.0533 3.90667 66.1 4C66.14 4.09333 66.16 4.21667 66.16 4.37V5.87C66.16 5.99 66.1433 6.09 66.11 6.17C66.0767 6.25667 66.0267 6.32667 65.96 6.38L64.72 7.43H66.65C66.8767 7.43 67.04 7.48333 67.14 7.59C67.24 7.69 67.29 7.85333 67.29 8.08V9.72C67.29 9.84 67.2767 9.94 67.25 10.02C67.2167 10.1067 67.1667 10.1767 67.1 10.23L65.28 11.75C65.24 11.7833 65.18 11.8133 65.1 11.84C65.02 11.8733 64.9333 11.89 64.84 11.89ZM60.15 10.22H66.65C66.83 10.22 66.9567 10.18 67.03 10.1C67.11 10.02 67.15 9.89333 67.15 9.72V8.08C67.15 7.9 67.11 7.77 67.03 7.69C66.9567 7.61 66.83 7.57 66.65 7.57H62.79V6.37H65.52C65.6933 6.37 65.82 6.33 65.9 6.25C65.98 6.17 66.02 6.04333 66.02 5.87V4.37C66.02 4.19 65.98 4.06 65.9 3.98C65.82 3.9 65.6933 3.86 65.52 3.86H62.79V2.79H66.65C66.83 2.79 66.9567 2.75 67.03 2.67C67.11 2.59 67.15 2.46 67.15 2.28V0.64C67.15 0.466667 67.11 0.34 67.03 0.26C66.9567 0.18 66.83 0.14 66.65 0.14H60.15C59.9767 0.14 59.85 0.18 59.77 0.26C59.69 0.34 59.65 0.466667 59.65 0.64V9.72C59.65 9.89333 59.69 10.02 59.77 10.1C59.85 10.18 59.9767 10.22 60.15 10.22ZM61.32 8.82H65.89V8.96H61.18V1.4H65.89V1.54H61.32V5.05H64.76V5.19H61.32V8.82ZM77.63 11.89H73.2C72.98 11.89 72.8167 11.8367 72.71 11.73C72.61 11.63 72.56 11.4667 72.56 11.24V9.6C72.56 9.48 72.5767 9.38 72.61 9.3C72.6433 9.21333 72.69 9.14333 72.75 9.09L74.15 7.91C73.6567 7.76333 73.2667 7.51 72.98 7.15C72.7 6.79 72.56 6.27333 72.56 5.6V4.13C72.56 3.71 72.63 3.33667 72.77 3.01C72.91 2.68333 73.11 2.40667 73.37 2.18L75.19 0.66C75.4433 0.453333 75.7567 0.293333 76.13 0.18C76.5033 0.0599998 76.9267 0 77.4 0H81.32C81.5467 0 81.71 0.0499996 81.81 0.15C81.9167 0.256666 81.97 0.42 81.97 0.64V2.31C81.97 2.43 81.9533 2.53333 81.92 2.62C81.8867 2.7 81.8367 2.77 81.77 2.83L80.51 3.88C81.0967 4.00667 81.57 4.25 81.93 4.61C82.29 4.97 82.47 5.53 82.47 6.29V7.76C82.47 8.18 82.4 8.55333 82.26 8.88C82.12 9.20667 81.9133 9.48 81.64 9.7L79.84 11.21C79.58 11.43 79.2633 11.5967 78.89 11.71C78.5167 11.83 78.0967 11.89 77.63 11.89ZM75.01 10.22H79.43C80.33 10.22 81.0367 10.0067 81.55 9.58C82.07 9.16 82.33 8.55333 82.33 7.76V6.29C82.33 5.50333 82.13 4.94333 81.73 4.61C81.33 4.27 80.8033 4.05333 80.15 3.96L78.06 3.68C77.94 3.67333 77.8467 3.62667 77.78 3.54C77.7133 3.46 77.68 3.35667 77.68 3.23C77.68 3.11 77.7133 3.01 77.78 2.93C77.8467 2.85 77.94 2.81 78.06 2.81H81.32C81.5 2.81 81.63 2.77 81.71 2.69C81.79 2.61667 81.83 2.49 81.83 2.31V0.64C81.83 0.466667 81.79 0.34 81.71 0.26C81.63 0.18 81.5 0.14 81.32 0.14H77.4C76.4933 0.14 75.7833 0.353333 75.27 0.78C74.7567 1.2 74.5 1.80667 74.5 2.6V4.07C74.5 4.85667 74.7 5.41667 75.1 5.75C75.4933 6.09 76.0167 6.30667 76.67 6.4L78.77 6.69C78.8967 6.70333 78.99 6.74667 79.05 6.82C79.11 6.89333 79.14 7.01 79.14 7.17C79.14 7.28333 79.11 7.37667 79.05 7.45C78.99 7.53 78.8967 7.57 78.77 7.57H75.01C74.83 7.57 74.7 7.61 74.62 7.69C74.54 7.77 74.5 7.9 74.5 8.08V9.72C74.5 9.89333 74.54 10.02 74.62 10.1C74.7 10.18 74.83 10.22 75.01 10.22ZM77.46 1.4H80.57V1.54H77.46C77.0667 1.54 76.7533 1.64667 76.52 1.86C76.2867 2.07333 76.17 2.34333 76.17 2.67V3.82C76.17 4.14667 76.2367 4.37667 76.37 4.51C76.4967 4.63667 76.6667 4.72 76.88 4.76L79.84 5.36C80.12 5.42 80.35 5.54333 80.53 5.73C80.71 5.91667 80.8 6.25 80.8 6.73V7.55C80.8 7.95667 80.66 8.29333 80.38 8.56C80.1 8.82667 79.7233 8.96 79.25 8.96H75.76V8.82H79.25C79.6767 8.82 80.02 8.7 80.28 8.46C80.5333 8.22667 80.66 7.92333 80.66 7.55V6.73C80.66 6.29667 80.5833 5.99667 80.43 5.83C80.2767 5.67 80.07 5.56 79.81 5.5L76.86 4.9C76.6133 4.85333 76.4133 4.75667 76.26 4.61C76.1067 4.47 76.03 4.20667 76.03 3.82V2.67C76.03 2.29667 76.16 1.99333 76.42 1.76C76.68 1.52 77.0267 1.4 77.46 1.4ZM86.91 8.96H86.77V1.4H86.91V5.11H92.28V1.4H92.42V8.96H92.28V5.25H86.91V8.96ZM85.76 10.22H87.93C88.11 10.22 88.2367 10.18 88.31 10.1C88.39 10.02 88.43 9.89333 88.43 9.72V6.61H90.77V9.72C90.77 9.89333 90.81 10.02 90.89 10.1C90.97 10.18 91.1 10.22 91.28 10.22H93.45C93.6233 10.22 93.75 10.18 93.83 10.1C93.91 10.02 93.95 9.89333 93.95 9.72V0.64C93.95 0.466667 93.91 0.34 93.83 0.26C93.75 0.18 93.6233 0.14 93.45 0.14H91.28C91.1 0.14 90.97 0.18 90.89 0.26C90.81 0.34 90.77 0.466667 90.77 0.64V3.68H88.43V0.64C88.43 0.466667 88.39 0.34 88.31 0.26C88.2367 0.18 88.11 0.14 87.93 0.14H85.76C85.58 0.14 85.45 0.18 85.37 0.26C85.2967 0.34 85.26 0.466667 85.26 0.64V9.72C85.26 9.89333 85.2967 10.02 85.37 10.1C85.45 10.18 85.58 10.22 85.76 10.22ZM88.38 10.23L86.56 11.75C86.52 11.7833 86.46 11.8133 86.38 11.84C86.3 11.8733 86.2133 11.89 86.12 11.89H83.95C83.73 11.89 83.5667 11.8367 83.46 11.73C83.36 11.63 83.31 11.4667 83.31 11.24V2.17C83.31 2.05 83.3267 1.94667 83.36 1.86C83.3933 1.78 83.4433 1.71 83.51 1.65L85.31 0.13C85.3567 0.0899996 85.42 0.0566664 85.5 0.0299997C85.58 0.00999973 85.6667 0 85.76 0H87.93C88.1567 0 88.32 0.0499996 88.42 0.15C88.52 0.256666 88.57 0.42 88.57 0.64V3.54H88.83V2.17C88.83 2.05 88.8433 1.94667 88.87 1.86C88.9033 1.78 88.9533 1.71 89.02 1.65L90.83 0.13C90.8767 0.0899996 90.94 0.0566664 91.02 0.0299997C91.1 0.00999973 91.1867 0 91.28 0H93.45C93.67 0 93.8333 0.0499996 93.94 0.15C94.04 0.256666 94.09 0.42 94.09 0.64V9.72C94.09 9.84 94.0733 9.94 94.04 10.02C94.0067 10.1067 93.9567 10.1767 93.89 10.23L92.07 11.75C92.0367 11.7833 91.98 11.8133 91.9 11.84C91.82 11.8733 91.7333 11.89 91.64 11.89H89.47C89.2433 11.89 89.08 11.8367 88.98 11.73C88.88 11.63 88.83 11.4667 88.83 11.24V8.27H88.57V9.72C88.57 9.84 88.5533 9.94 88.52 10.02C88.4933 10.1067 88.4467 10.1767 88.38 10.23ZM98.7 5.98V6.41H104.16V5.98C104.16 5.72667 104.137 5.49333 104.09 5.28C104.05 5.06667 103.997 4.86667 103.93 4.68L102.97 2.39C102.863 2.15 102.753 1.94667 102.64 1.78C102.533 1.62 102.347 1.54 102.08 1.54H100.71C100.43 1.54 100.233 1.62 100.12 1.78C100.013 1.94667 99.9133 2.14667 99.82 2.38L98.92 4.68C98.8533 4.86667 98.8 5.06667 98.76 5.28C98.72 5.49333 98.7 5.72667 98.7 5.98ZM100.28 5.21L100.94 3.08C100.973 2.99333 101.01 2.93333 101.05 2.9C101.097 2.86 101.147 2.84 101.2 2.84H101.55C101.61 2.84 101.66 2.86 101.7 2.9C101.74 2.93333 101.78 2.99333 101.82 3.08L102.48 5.21H100.28ZM104.3 8.96H104.16V6.55H98.7V8.96H98.56V5.98C98.56 5.72 98.58 5.48 98.62 5.26C98.66 5.04 98.7167 4.82667 98.79 4.62L99.69 2.32C99.79 2.06 99.9067 1.84333 100.04 1.67C100.173 1.49 100.397 1.4 100.71 1.4H102.08C102.393 1.4 102.61 1.49 102.73 1.67C102.857 1.84333 102.977 2.06667 103.09 2.34L104.06 4.62C104.133 4.82667 104.19 5.04 104.23 5.26C104.277 5.48 104.3 5.72 104.3 5.98V8.96ZM100.14 9.72V7.76H102.62V9.72C102.62 9.89333 102.663 10.02 102.75 10.1C102.837 10.18 102.973 10.22 103.16 10.22H105.28C105.453 10.22 105.58 10.18 105.66 10.1C105.74 10.02 105.78 9.89333 105.78 9.72V6.02C105.78 5.74 105.737 5.41667 105.65 5.05C105.557 4.69 105.417 4.26667 105.23 3.78L104.02 0.6C103.96 0.44 103.873 0.323333 103.76 0.25C103.64 0.176667 103.493 0.14 103.32 0.14H99.55C99.3633 0.14 99.21 0.176667 99.09 0.25C98.9767 0.323333 98.8933 0.44 98.84 0.6L97.62 3.78C97.4333 4.26667 97.2933 4.69 97.2 5.05C97.1133 5.41667 97.07 5.74 97.07 6.02V9.72C97.07 9.89333 97.11 10.02 97.19 10.1C97.27 10.18 97.4 10.22 97.58 10.22H99.63C99.81 10.22 99.94 10.18 100.02 10.1C100.1 10.02 100.14 9.89333 100.14 9.72ZM100.08 10.23L98.26 11.75C98.2267 11.7833 98.17 11.8133 98.09 11.84C98.01 11.8733 97.9233 11.89 97.83 11.89H95.77C95.5433 11.89 95.38 11.8367 95.28 11.73C95.18 11.63 95.13 11.4667 95.13 11.24V7.55C95.13 7.25667 95.1733 6.92667 95.26 6.56C95.3467 6.19333 95.49 5.75667 95.69 5.25L96.89 2.09C96.9167 2.00333 96.95 1.93 96.99 1.87C97.0367 1.81 97.0833 1.75667 97.13 1.71L97.14 1.69L98.93 0.2C99.01 0.133333 99.1 0.083333 99.2 0.0499997C99.3 0.0166664 99.4167 0 99.55 0H103.32C103.533 0 103.707 0.043333 103.84 0.13C103.973 0.223333 104.073 0.363333 104.14 0.55L105.36 3.72C105.553 4.22667 105.697 4.66333 105.79 5.03C105.877 5.40333 105.92 5.73333 105.92 6.02V9.72C105.92 9.84 105.903 9.94 105.87 10.02C105.837 10.1067 105.787 10.1767 105.72 10.23L103.9 11.75C103.867 11.7833 103.81 11.8133 103.73 11.84C103.65 11.8733 103.563 11.89 103.47 11.89H101.36C101.127 11.89 100.953 11.8333 100.84 11.72C100.727 11.6133 100.67 11.4533 100.67 11.24V9.42H100.28V9.72C100.28 9.84 100.263 9.94 100.23 10.02C100.197 10.1067 100.147 10.1767 100.08 10.23ZM116.83 9.63L115.01 11.14C114.717 11.3867 114.347 11.5733 113.9 11.7C113.453 11.8267 112.927 11.89 112.32 11.89H107.6C107.373 11.89 107.21 11.8367 107.11 11.73C107.01 11.63 106.96 11.4667 106.96 11.24V2.17C106.96 2.05 106.973 1.94667 107 1.86C107.033 1.78 107.083 1.71 107.15 1.65L108.96 0.13C109.007 0.0899996 109.07 0.0566664 109.15 0.0299997C109.23 0.00999973 109.317 0 109.41 0H114.12C115.347 0 116.25 0.246666 116.83 0.74C117.417 1.23333 117.71 1.98667 117.71 3V7.36C117.71 7.86667 117.633 8.31 117.48 8.69C117.333 9.06333 117.117 9.37667 116.83 9.63ZM109.41 10.22H114.12C115.287 10.22 116.153 9.98667 116.72 9.52C117.287 9.05333 117.57 8.33333 117.57 7.36V3C117.57 2.02667 117.287 1.30667 116.72 0.84C116.153 0.373333 115.287 0.14 114.12 0.14H109.41C109.23 0.14 109.1 0.18 109.02 0.26C108.94 0.34 108.9 0.466667 108.9 0.64V9.72C108.9 9.89333 108.94 10.02 109.02 10.1C109.1 10.18 109.23 10.22 109.41 10.22ZM113.82 8.96H110.43V1.4H113.82C114.293 1.4 114.677 1.45 114.97 1.55C115.263 1.65667 115.49 1.79667 115.65 1.97C115.81 2.14333 115.917 2.34667 115.97 2.58C116.03 2.82 116.06 3.07667 116.06 3.35V7.06C116.06 7.32667 116.033 7.57667 115.98 7.81C115.927 8.04333 115.82 8.24333 115.66 8.41C115.507 8.58333 115.28 8.71667 114.98 8.81C114.68 8.91 114.293 8.96 113.82 8.96ZM113.82 1.54H110.57V8.82H113.82C114.267 8.82 114.627 8.77667 114.9 8.69C115.173 8.59667 115.387 8.47333 115.54 8.32C115.687 8.16667 115.787 7.98 115.84 7.76C115.893 7.54 115.92 7.30667 115.92 7.06V3.35C115.92 3.09667 115.89 2.85667 115.83 2.63C115.777 2.41 115.673 2.22 115.52 2.06C115.373 1.9 115.163 1.77333 114.89 1.68C114.61 1.58667 114.253 1.54 113.82 1.54ZM112.08 7.57V2.81H113.75C113.97 2.81 114.133 2.86333 114.24 2.97C114.347 3.08333 114.4 3.25667 114.4 3.49V6.89C114.4 7.12333 114.347 7.29667 114.24 7.41C114.133 7.51667 113.97 7.57 113.75 7.57H112.08ZM112.46 7.43V5.01C112.46 4.89 112.44 4.78667 112.4 4.7C112.367 4.62 112.307 4.56 112.22 4.52V7.43H112.46ZM125.94 11.89H119.44C119.22 11.89 119.057 11.8367 118.95 11.73C118.85 11.63 118.8 11.4667 118.8 11.24V2.17C118.8 2.05 118.817 1.94667 118.85 1.86C118.883 1.78 118.933 1.71 119 1.65L120.8 0.13C120.847 0.0899996 120.91 0.0566664 120.99 0.0299997C121.07 0.00999973 121.157 0 121.25 0H127.75C127.97 0 128.133 0.0499996 128.24 0.15C128.34 0.256666 128.39 0.42 128.39 0.64V2.28C128.39 2.4 128.373 2.50333 128.34 2.59C128.307 2.67667 128.257 2.74667 128.19 2.8L126.99 3.79C127.083 3.83667 127.15 3.90667 127.19 4C127.237 4.09333 127.26 4.21667 127.26 4.37V5.87C127.26 5.99 127.243 6.09 127.21 6.17C127.177 6.25667 127.127 6.32667 127.06 6.38L125.81 7.43H127.75C127.97 7.43 128.133 7.48333 128.24 7.59C128.34 7.69 128.39 7.85333 128.39 8.08V9.72C128.39 9.84 128.373 9.94 128.34 10.02C128.307 10.1067 128.257 10.1767 128.19 10.23L126.37 11.75C126.337 11.7833 126.28 11.8133 126.2 11.84C126.12 11.8733 126.033 11.89 125.94 11.89ZM121.25 10.22H127.75C127.923 10.22 128.05 10.18 128.13 10.1C128.21 10.02 128.25 9.89333 128.25 9.72V8.08C128.25 7.9 128.21 7.77 128.13 7.69C128.05 7.61 127.923 7.57 127.75 7.57H123.88V6.37H126.61C126.79 6.37 126.92 6.33 127 6.25C127.08 6.17 127.12 6.04333 127.12 5.87V4.37C127.12 4.19 127.08 4.06 127 3.98C126.92 3.9 126.79 3.86 126.61 3.86H123.88V2.79H127.75C127.923 2.79 128.05 2.75 128.13 2.67C128.21 2.59 128.25 2.46 128.25 2.28V0.64C128.25 0.466667 128.21 0.34 128.13 0.26C128.05 0.18 127.923 0.14 127.75 0.14H121.25C121.07 0.14 120.94 0.18 120.86 0.26C120.787 0.34 120.75 0.466667 120.75 0.64V9.72C120.75 9.89333 120.787 10.02 120.86 10.1C120.94 10.18 121.07 10.22 121.25 10.22ZM122.41 8.82H126.99V8.96H122.27V1.4H126.99V1.54H122.41V5.05H125.86V5.19H122.41V8.82Z" fill="black"/>
</svg>
