<svg width="107.58" height="18.48" viewBox="0 0 107.58 18.48" xmlns="http://www.w3.org/2000/svg"><path transform="translate(0 14.28) scale(.014 -.014)" d="m489 0h-384q-36 0-36 36v648q0 36 36 36h319q98 0 145-37t47-116v-48q0-83-59-108 65-6 95.5-43.5t30.5-111.5v-92q0-84-47-124t-147-40zm-195 288v-118h130q38 0 38 40v39q0 39-38 39zm0 262v-108h85q38 0 38 40v28q0 40-38 40z"/><path transform="translate(10.15 14.28) scale(.014 -.014)" d="m682 189q0-46-13.5-83.5t-48-64.5-94.5-41.5-153-14.5-153 14.5-94.5 41.5-48 64.5-13.5 83.5v495q0 36 36 36h157q36 0 36-36v-456q0-20 15-33.5t67-13.5q53 0 68 13.5t15 33.5v456q0 36 36 36h152q36 0 36-36z"/><path transform="translate(20.594 14.28) scale(.014 -.014)" d="m255 0h-150q-36 0-36 36v648q0 36 36 36h104q36 0 59-27l194-222v213q0 36 36 36h150q36 0 36-36v-648q0-36-36-36h-150q-36 0-36 36v123l-171 207v-330q0-36-36-36z"/><path transform="translate(31.136 14.28) scale(.014 -.014)" d="m619 0h-315q-126 0-186 50t-60 154v312q0 104 60 154t186 50h250q36 0 36-36v-121q0-36-36-36h-208q-61 0-61-50v-239q0-49 46-49h97v156q0 36 36 36h155q36 0 36-36v-309q0-36-36-36z"/><path transform="translate(41.048 14.28) scale(.014 -.014)" d="m569 0h-464q-36 0-36 36v648q0 36 36 36h464q36 0 36-36v-117q0-36-36-36h-276v-77h195q36 0 36-36v-107q0-36-36-36h-195v-86h276q36 0 36-36v-117q0-36-36-36z"/><path transform="translate(50.204 14.28) scale(.014 -.014)" d="m569 0h-464q-36 0-36 36v648q0 36 36 36h464q36 0 36-36v-117q0-36-36-36h-276v-77h195q36 0 36-36v-107q0-36-36-36h-195v-86h276q36 0 36-36v-117q0-36-36-36z"/><path transform="translate(62.51 14.28) scale(.014 -.014)" d="m403 0h-316q-36 0-36 36v117q0 36 36 36h269q13 0 19.5 8.5t6.5 20.5q0 17-6.5 25t-19.5 9l-150 21q-70 11-112.5 46.5t-42.5 119.5v105q0 86 55 131t152 45h280q36 0 36-36v-119q0-36-36-36h-233q-27 0-27-30 0-29 27-32l149-20q47-7 82-24.5t54.5-51.5 19.5-90v-105q0-85-55-130.5t-152-45.5z"/><path transform="translate(71.61 14.28) scale(.014 -.014)" d="m260 0h-155q-36 0-36 36v648q0 36 36 36h306q91 0 142.5-24.5t72.5-68.5 21-102v-128q0-58-21-102t-72.5-68.5-142.5-24.5h-115v-166q0-36-36-36zm34 533v-151h90q29 0 38 15t9 34v53q0 20-9 34.5t-38 14.5z"/><path transform="translate(81.158 14.28) scale(.014 -.014)" d="m89 0q-36 0-36 36v119q0 36 36 36h99v336h-99q-36 0-36 36v121q0 36 36 36h426q36 0 36-36v-121q0-36-36-36h-97v-336h97q36 0 36-36v-119q0-36-36-36z"/><path transform="translate(89.628 14.28) scale(.014 -.014)" d="m548 0h-244q-126 0-186 50t-60 154v311q0 105 60 155t186 50h244q36 0 36-36v-121q0-36-36-36h-201q-61 0-61-50v-238q0-48 61-48h201q36 0 36-36v-119q0-36-36-36z"/><path transform="translate(98.42 14.28) scale(.014 -.014)" d="m569 0h-464q-36 0-36 36v648q0 36 36 36h464q36 0 36-36v-117q0-36-36-36h-276v-77h195q36 0 36-36v-107q0-36-36-36h-195v-86h276q36 0 36-36v-117q0-36-36-36z"/></svg>