<svg width="99.89" height="18.48" viewBox="0 0 99.89 18.48" xmlns="http://www.w3.org/2000/svg"><path transform="translate(0 14.28) scale(.014 -.014)" d="m489 0h-384q-36 0-36 36v648q0 36 36 36h319q98 0 145-37t47-116v-48q0-83-59-108 65-6 95.5-43.5t30.5-111.5v-92q0-84-47-124t-147-40zm-195 288v-118h130q38 0 38 40v39q0 39-38 39zm0 262v-108h85q38 0 38 40v28q0 40-38 40z"/><path transform="translate(10.15 14.28) scale(.014 -.014)" d="m682 189q0-46-13.5-83.5t-48-64.5-94.5-41.5-153-14.5-153 14.5-94.5 41.5-48 64.5-13.5 83.5v495q0 36 36 36h157q36 0 36-36v-456q0-20 15-33.5t67-13.5q53 0 68 13.5t15 33.5v456q0 36 36 36h152q36 0 36-36z"/><path transform="translate(20.594 14.28) scale(.014 -.014)" d="m255 0h-150q-36 0-36 36v648q0 36 36 36h104q36 0 59-27l194-222v213q0 36 36 36h150q36 0 36-36v-648q0-36-36-36h-150q-36 0-36 36v123l-171 207v-330q0-36-36-36z"/><path transform="translate(31.136 14.28) scale(.014 -.014)" d="m619 0h-315q-126 0-186 50t-60 154v312q0 104 60 154t186 50h250q36 0 36-36v-121q0-36-36-36h-208q-61 0-61-50v-239q0-49 46-49h97v156q0 36 36 36h155q36 0 36-36v-309q0-36-36-36z"/><path transform="translate(41.048 14.28) scale(.014 -.014)" d="m569 0h-464q-36 0-36 36v648q0 36 36 36h464q36 0 36-36v-117q0-36-36-36h-276v-77h195q36 0 36-36v-107q0-36-36-36h-195v-86h276q36 0 36-36v-117q0-36-36-36z"/><path transform="translate(50.204 14.28) scale(.014 -.014)" d="m569 0h-464q-36 0-36 36v648q0 36 36 36h464q36 0 36-36v-117q0-36-36-36h-276v-77h195q36 0 36-36v-107q0-36-36-36h-195v-86h276q36 0 36-36v-117q0-36-36-36z"/><path transform="translate(62.51 14.28) scale(.014 -.014)" d="m409 0h-162q-36 0-36 36v491h-147q-36 0-36 36v121q0 36 36 36h528q36 0 36-36v-121q0-36-36-36h-147v-491q0-36-36-36z"/><path transform="translate(71.694 14.28) scale(.014 -.014)" d="m89 0q-36 0-36 36v119q0 36 36 36h99v336h-99q-36 0-36 36v121q0 36 36 36h426q36 0 36-36v-121q0-36-36-36h-97v-336h97q36 0 36-36v-119q0-36-36-36z"/><path transform="translate(80.164 14.28) scale(.014 -.014)" d="m255 0h-150q-36 0-36 36v648q0 36 36 36h104q36 0 59-27l194-222v213q0 36 36 36h150q36 0 36-36v-648q0-36-36-36h-150q-36 0-36 36v123l-171 207v-330q0-36-36-36z"/><path transform="translate(90.706 14.28) scale(.014 -.014)" d="m409 0h-162q-36 0-36 36v491h-147q-36 0-36 36v121q0 36 36 36h528q36 0 36-36v-121q0-36-36-36h-147v-491q0-36-36-36z"/></svg>