<svg width="132.16" height="17.136" viewBox="0 0 132.16 17.136" xmlns="http://www.w3.org/2000/svg"><path transform="translate(0 13.93) scale(.014 -.014)" d="m387-14q-100 0-175.5 44.5t-118 123.5-42.5 182q0 102 43.5 181t119.5 124 172 45q47 0 95-10t97-39l4-144h-52l-18 119q-29 17-58 24t-58 7q-73 0-131-36t-91.5-104.5-33.5-166.5q0-99 32.5-167.5t89-104.5 128.5-36q33 0 66 7.5t64 23.5l19 119h52l-4-143q-47-27-97-38t-103-11z"/><path transform="translate(8.876 13.93) scale(.014 -.014)" d="m418-11q-36 0-58 22.5t-27 60.5q-43-43-75-64t-79-21q-54 0-92.5 31t-38.5 92q0 31 14 57.5t49 49 99 41.5q31 9 61.5 18t60.5 17v29q0 76-23.5 101t-76.5 25q-30 0-68-12l-18-65q-12-40-44-40-36 0-41 35 15 56 65 88.5t123 32.5q77 0 115-38.5t38-127.5v-217q0-40 10-55t29-15q13 0 22 5t18 15l18-19q-16-25-36.5-35.5t-44.5-10.5zm-211 53q27 0 52.5 13.5t72.5 51.5v154q-27-8-53.5-17t-52.5-17q-44-14-66.5-31.5t-30-36-7.5-37.5q0-40 24-60t61-20z"/><path transform="translate(15.988 13.93) scale(.014 -.014)" d="m272-13q-105 0-165 65.5t-60 179.5q0 81 32.5 138t85 87 112.5 30q64 0 112-34.5t61-89.5q-6-33-40-33-21 0-31.5 11t-15.5 29l-20 66q-33 12-64 12-68 0-113.5-54.5t-45.5-154.5 48.5-148.5 120.5-48.5q39 0 75.5 14.5t69.5 51.5l19-16q-29-49-71.5-77t-109.5-28z"/><path transform="translate(22.82 13.93) scale(.014 -.014)" d="m209-13q-109 0-109 115 0 20 0.5 37t0.5 44v245h-90v38l93 9 23 138h50l-5-139h137v-46h-138v-318q0-41 15.5-59.5t43.5-18.5q19 0 34.5 6t34.5 18l20-23q-38-46-110-46z"/><path transform="translate(27.398 13.93) scale(.014 -.014)" d="m419-7-7 91q-78-97-179-97-63 0-98 40.5t-34 141.5l3 253-75 13v32l137 12 9-10-4-123v-169q0-72 22-101t66-29q78 0 151 76l2 301-75 11v32l136 12 9-10-3-123v-303l71-11v-32z"/><path transform="translate(35.644 13.93) scale(.014 -.014)" d="m200-13q-42 0-76 9t-71 27l-4 108h46l18-88q38-18 89-18 60 0 90 23.5t30 60.5q0 34-22.5 54t-74.5 38l-47 17q-54 20-87 51.5t-33 81.5q0 37 20 67.5t57.5 49.5 91.5 19q41 0 73-10.5t65-30.5l-4-99h-44l-14 80q-37 21-78 21-50 0-75.5-21.5t-25.5-54.5q0-34 22-53t73-38l36-13q73-27 103.5-61t30.5-81q0-37-21-68.5t-63-51-105-19.5z"/><path transform="translate(45.01 13.93) scale(.014 -.014)" d="m387-14q-100 0-175.5 44.5t-118 123.5-42.5 182q0 102 43.5 181t119.5 124 172 45q47 0 95-10t97-39l4-144h-52l-18 119q-29 17-58 24t-58 7q-73 0-131-36t-91.5-104.5-33.5-166.5q0-99 32.5-167.5t89-104.5 128.5-36q33 0 66 7.5t64 23.5l19 119h52l-4-143q-47-27-97-38t-103-11z"/><path transform="translate(53.886 13.93) scale(.014 -.014)" d="m28 0v32l86 12q1 41 1.5 83.5t0.5 82.5v457l-85 7v32l143 36 14-8-3-143v-381q0-40 0.5-82.5t1.5-83.5l84-12v-32z"/><path transform="translate(58.072 13.93) scale(.014 -.014)" d="m418-11q-36 0-58 22.5t-27 60.5q-43-43-75-64t-79-21q-54 0-92.5 31t-38.5 92q0 31 14 57.5t49 49 99 41.5q31 9 61.5 18t60.5 17v29q0 76-23.5 101t-76.5 25q-30 0-68-12l-18-65q-12-40-44-40-36 0-41 35 15 56 65 88.5t123 32.5q77 0 115-38.5t38-127.5v-217q0-40 10-55t29-15q13 0 22 5t18 15l18-19q-16-25-36.5-35.5t-44.5-10.5zm-211 53q27 0 52.5 13.5t72.5 51.5v154q-27-8-53.5-17t-52.5-17q-44-14-66.5-31.5t-30-36-7.5-37.5q0-40 24-60t61-20z"/><path transform="translate(65.184 13.93) scale(.014 -.014)" d="m200-13q-42 0-76 9t-71 27l-4 108h46l18-88q38-18 89-18 60 0 90 23.5t30 60.5q0 34-22.5 54t-74.5 38l-47 17q-54 20-87 51.5t-33 81.5q0 37 20 67.5t57.5 49.5 91.5 19q41 0 73-10.5t65-30.5l-4-99h-44l-14 80q-37 21-78 21-50 0-75.5-21.5t-25.5-54.5q0-34 22-53t73-38l36-13q73-27 103.5-61t30.5-81q0-37-21-68.5t-63-51-105-19.5z"/><path transform="translate(71.232 13.93) scale(.014 -.014)" d="m200-13q-42 0-76 9t-71 27l-4 108h46l18-88q38-18 89-18 60 0 90 23.5t30 60.5q0 34-22.5 54t-74.5 38l-47 17q-54 20-87 51.5t-33 81.5q0 37 20 67.5t57.5 49.5 91.5 19q41 0 73-10.5t65-30.5l-4-99h-44l-14 80q-37 21-78 21-50 0-75.5-21.5t-25.5-54.5q0-34 22-53t73-38l36-13q73-27 103.5-61t30.5-81q0-37-21-68.5t-63-51-105-19.5z"/><path transform="translate(77.28 13.93) scale(.014 -.014)" d="m38 0v32l79 12q1 38 1.5 85t0.5 81v48q0 44-0.5 77t-2.5 65l-83 6v31l145 48 13-9-2-130v-136q0-34 0.5-81t1.5-85l72-12v-32zm109 599q-24 0-41 15t-17 40q0 24 17 40t41 16q23 0 40.5-16t17.5-40q0-25-17.5-40t-40.5-15z"/><path transform="translate(81.466 13.93) scale(.014 -.014)" d="m272-13q-105 0-165 65.5t-60 179.5q0 81 32.5 138t85 87 112.5 30q64 0 112-34.5t61-89.5q-6-33-40-33-21 0-31.5 11t-15.5 29l-20 66q-33 12-64 12-68 0-113.5-54.5t-45.5-154.5 48.5-148.5 120.5-48.5q39 0 75.5 14.5t69.5 51.5l19-16q-29-49-71.5-77t-109.5-28z"/><path transform="translate(88.298 13.93) scale(.014 -.014)" d="m418-11q-36 0-58 22.5t-27 60.5q-43-43-75-64t-79-21q-54 0-92.5 31t-38.5 92q0 31 14 57.5t49 49 99 41.5q31 9 61.5 18t60.5 17v29q0 76-23.5 101t-76.5 25q-30 0-68-12l-18-65q-12-40-44-40-36 0-41 35 15 56 65 88.5t123 32.5q77 0 115-38.5t38-127.5v-217q0-40 10-55t29-15q13 0 22 5t18 15l18-19q-16-25-36.5-35.5t-44.5-10.5zm-211 53q27 0 52.5 13.5t72.5 51.5v154q-27-8-53.5-17t-52.5-17q-44-14-66.5-31.5t-30-36-7.5-37.5q0-40 24-60t61-20z"/><path transform="translate(95.41 13.93) scale(.014 -.014)" d="m28 0v32l86 12q1 41 1.5 83.5t0.5 82.5v457l-85 7v32l143 36 14-8-3-143v-381q0-40 0.5-82.5t1.5-83.5l84-12v-32z"/><path transform="translate(102.91 13.93) scale(.014 -.014)" d="m237-14q-57 0-108.5 15.5t-84.5 37.5l6 136h50l18-117q28-16 54.5-23t62.5-7q74 0 119 33.5t45 96.5q0 50-30.5 79.5t-102.5 57.5l-38 16q-78 31-123 77t-45 119q0 58 29 97.5t78 60.5 109 21q52 0 91-13.5t72-37.5l-5-128h-51l-18 113q-22 13-44.5 18t-48.5 5q-61 0-102-30t-41-89q0-49 31-80.5t86-53.5l40-15q102-40 142.5-86.5t40.5-116.5q0-58-30-99.5t-82-64-120-22.5z"/><path transform="translate(110.1 13.93) scale(.014 -.014)" d="m276-13q-103 0-166 63t-63 182q0 77 30.5 134t81.5 89 112 32q54 0 96-23.5t66-66 24-100.5q0-17-2-31t-5-25h-330q1-100 48-149.5t126-49.5q93 0 151 65l18-15q-31-48-74-76.5t-113-28.5zm-5 461q-35 0-67.5-19t-54.5-56.5-27-95.5h213q32 0 42.5 13.5t10.5 35.5q0 56-31.5 89t-85.5 33z"/><path transform="translate(117.17 13.93) scale(.014 -.014)" d="m42 0v32l77 12q1 38 1.5 85t0.5 81v48q0 44-0.5 77t-2.5 65l-83 6v31l133 48 14-9 9-120q24 60 65.5 95.5t84.5 35.5q23 0 43-10t27-25q0-61-51-61-16 0-30 7t-28 19l-12 10q-65-40-99-135v-82q0-34 0.5-80.5t1.5-84.5l85-13v-32z"/><path transform="translate(123.02 13.93) scale(.014 -.014)" d="m38 0v32l79 12q1 38 1.5 85t0.5 81v48q0 44-0.5 77t-2.5 65l-83 6v31l145 48 13-9-2-130v-136q0-34 0.5-81t1.5-85l72-12v-32zm109 599q-24 0-41 15t-17 40q0 24 17 40t41 16q23 0 40.5-16t17.5-40q0-25-17.5-40t-40.5-15z"/><path transform="translate(127.2 13.93) scale(.014 -.014)" d="m35 0v32l84 12q3 83 3 166v218h-88v38l88 9q6 83 23 135.5t58 91.5q28 27 59.5 38.5t64.5 11.5 58-12 32-37q-1-16-14.5-27.5t-36.5-11.5q-17 0-33 8t-36 23l-24 19q-26-14-45-44t-28.5-73-8.5-123h144v-46h-143v-218q0-41 0.5-82.5t1.5-83.5l94-12v-32z"/></svg>