<svg width="152" height="13" viewBox="0 0 152 13" fill="none" xmlns="http://www.w3.org/2000/svg">
<path d="M5.89402 12.224C4.37269 12.224 3.13602 11.7293 2.18402 10.74C1.24135 9.75068 0.77002 8.46735 0.77002 6.89001C0.77002 5.34068 1.25535 4.06668 2.22602 3.06801C3.19669 2.06001 4.41935 1.55601 5.89402 1.55601C6.97669 1.55601 7.94269 1.80801 8.79202 2.31201L8.84802 4.51001H8.07802L7.74202 2.62001C7.20069 2.33068 6.63602 2.18601 6.04802 2.18601C4.90002 2.18601 3.97135 2.59668 3.26202 3.41801C2.51535 4.26735 2.14202 5.42468 2.14202 6.89001C2.14202 8.37401 2.49669 9.53601 3.20602 10.376C3.89669 11.188 4.81135 11.594 5.95002 11.594C6.65002 11.594 7.29402 11.4493 7.88202 11.16L8.21802 9.25601H8.97402L8.93202 11.468C8.05469 11.972 7.04202 12.224 5.89402 12.224Z" fill="black"/>
<path d="M12.41 12.196C11.822 12.196 11.346 12.0373 10.982 11.72C10.59 11.384 10.394 10.9267 10.394 10.348C10.394 9.85335 10.5667 9.43801 10.912 9.10201C11.2854 8.71935 11.9294 8.36468 12.844 8.03801C13.572 7.81401 14.1927 7.64601 14.706 7.53401V7.08601C14.706 6.33935 14.5847 5.82601 14.342 5.54601C14.118 5.29401 13.7307 5.16801 13.18 5.16801C12.8254 5.16801 12.4987 5.21935 12.2 5.32201L11.892 6.35801C11.78 6.76868 11.5514 6.97401 11.206 6.97401C10.8234 6.97401 10.618 6.79668 10.59 6.44201C10.7394 5.87268 11.066 5.42468 11.57 5.09801C12.0834 4.77135 12.7134 4.60801 13.46 4.60801C14.2534 4.60801 14.832 4.79935 15.196 5.18201C15.5787 5.58335 15.77 6.23201 15.77 7.12801V10.446C15.77 11.1553 15.9707 11.51 16.372 11.51C16.5867 11.51 16.7967 11.398 17.002 11.174L17.24 11.468C16.932 11.9347 16.526 12.168 16.022 12.168C15.6674 12.168 15.378 12.0607 15.154 11.846C14.9394 11.622 14.7994 11.314 14.734 10.922C14.2767 11.3887 13.8987 11.7107 13.6 11.888C13.236 12.0933 12.8394 12.196 12.41 12.196ZM12.816 11.37C13.096 11.37 13.3714 11.3 13.642 11.16C13.8847 11.0293 14.2394 10.7773 14.706 10.404V7.98201C14.062 8.15935 13.5394 8.32735 13.138 8.48601C12.5127 8.71935 12.074 8.99001 11.822 9.29801C11.626 9.54068 11.528 9.82535 11.528 10.152C11.528 10.5533 11.6494 10.8613 11.892 11.076C12.116 11.272 12.424 11.37 12.816 11.37Z" fill="black"/>
<path d="M21.4646 12.196C20.438 12.196 19.6166 11.8553 19.0006 11.174C18.3846 10.4833 18.0766 9.55935 18.0766 8.40201C18.0766 7.25401 18.4313 6.32534 19.1406 5.61601C19.8033 4.94401 20.6106 4.60801 21.5626 4.60801C22.2066 4.60801 22.7713 4.78068 23.2566 5.12601C23.7513 5.47135 24.064 5.91935 24.1946 6.47001C24.1386 6.81535 23.9333 6.98801 23.5786 6.98801C23.2146 6.98801 22.9766 6.78735 22.8646 6.38601L22.5566 5.33601C22.2206 5.22401 21.9033 5.16801 21.6046 5.16801C20.886 5.16801 20.3073 5.44335 19.8686 5.99401C19.4113 6.56335 19.1826 7.33335 19.1826 8.30401C19.1826 9.26535 19.4253 10.026 19.9106 10.586C20.3773 11.1367 20.9933 11.412 21.7586 11.412C22.2066 11.412 22.6173 11.314 22.9906 11.118C23.3733 10.9127 23.6906 10.628 23.9426 10.264L24.2366 10.404C23.7326 11.5987 22.8086 12.196 21.4646 12.196Z" fill="black"/>
<path d="M27.9648 12.196C26.8635 12.196 26.3128 11.608 26.3128 10.432C26.3128 10.3293 26.3128 10.1707 26.3128 9.95601C26.3221 9.66668 26.3268 9.41935 26.3268 9.21401V5.44801H24.9548V4.93001L26.3828 4.76201L26.7188 2.69001H27.4888L27.4048 4.80401H29.5048V5.44801H27.3908V10.376C27.3908 11.16 27.6941 11.552 28.3008 11.552C28.6275 11.552 28.9821 11.4167 29.3648 11.146L29.6448 11.496C29.2341 11.9627 28.6741 12.196 27.9648 12.196Z" fill="black"/>
<path d="M33.278 12.196C32.6154 12.196 32.1254 11.9907 31.808 11.58C31.4534 11.132 31.2807 10.4133 31.29 9.42401L31.332 5.53201L30.17 5.33601V4.88801L32.27 4.70601L32.41 4.86001L32.34 6.98801V9.34001C32.34 10.0493 32.452 10.558 32.676 10.866C32.8907 11.1553 33.2314 11.3 33.698 11.3C34.5007 11.3 35.2614 10.9267 35.98 10.18L36.008 5.53201L34.86 5.33601V4.88801L36.932 4.70601L37.086 4.86001L37.03 6.98801V11.384L38.108 11.552V12L36.12 12.126L36.008 10.726C35.2147 11.706 34.3047 12.196 33.278 12.196Z" fill="black"/>
<path d="M41.7434 12.196C41.0248 12.196 40.2781 12.014 39.5034 11.65L39.4474 10.012H40.1194L40.4274 11.37C40.8288 11.5473 41.2674 11.636 41.7434 11.636C42.3501 11.636 42.8121 11.5193 43.1294 11.286C43.4281 11.062 43.5774 10.754 43.5774 10.362C43.5774 10.026 43.4608 9.75068 43.2274 9.53601C43.0128 9.34001 42.6441 9.14401 42.1214 8.94801L41.4214 8.68201C40.1894 8.23401 39.5734 7.55735 39.5734 6.65201C39.5734 6.08268 39.7928 5.60668 40.2314 5.22401C40.7074 4.81335 41.3421 4.60801 42.1354 4.60801C42.8448 4.60801 43.5448 4.80868 44.2354 5.21001L44.1794 6.72201H43.5634L43.3114 5.47601C42.9381 5.27068 42.5461 5.16801 42.1354 5.16801C41.6408 5.16801 41.2581 5.27535 40.9874 5.49001C40.7261 5.69535 40.5954 5.97535 40.5954 6.33001C40.5954 6.67535 40.7028 6.95068 40.9174 7.15601C41.1134 7.33335 41.4821 7.52468 42.0234 7.73001L42.5694 7.92601C43.2974 8.19668 43.8248 8.50468 44.1514 8.85001C44.4594 9.19535 44.6134 9.60601 44.6134 10.082C44.6134 10.67 44.3754 11.16 43.8994 11.552C43.3674 11.9813 42.6488 12.196 41.7434 12.196Z" fill="black"/>
<path d="M58.1616 12.224C56.6403 12.224 55.4036 11.7293 54.4516 10.74C53.5089 9.75068 53.0376 8.46735 53.0376 6.89001C53.0376 5.34068 53.5229 4.06668 54.4936 3.06801C55.4643 2.06001 56.6869 1.55601 58.1616 1.55601C59.2443 1.55601 60.2103 1.80801 61.0596 2.31201L61.1156 4.51001H60.3456L60.0096 2.62001C59.4683 2.33068 58.9036 2.18601 58.3156 2.18601C57.1676 2.18601 56.2389 2.59668 55.5296 3.41801C54.7829 4.26735 54.4096 5.42468 54.4096 6.89001C54.4096 8.37401 54.7643 9.53601 55.4736 10.376C56.1643 11.188 57.0789 11.594 58.2176 11.594C58.9176 11.594 59.5616 11.4493 60.1496 11.16L60.4856 9.25601H61.2416L61.1996 11.468C60.3223 11.972 59.3096 12.224 58.1616 12.224Z" fill="black"/>
<path d="M62.3536 12V11.552L63.6556 11.37C63.6743 10.2687 63.6836 9.41468 63.6836 8.80801V1.83601L62.4096 1.72401V1.29001L64.5796 0.702012L64.7896 0.828012L64.7476 2.98401V8.80801C64.7476 9.41468 64.7569 10.2687 64.7756 11.37L66.0356 11.552V12H62.3536Z" fill="black"/>
<path d="M69.2167 12.196C68.6287 12.196 68.1527 12.0373 67.7887 11.72C67.3967 11.384 67.2007 10.9267 67.2007 10.348C67.2007 9.85335 67.3733 9.43801 67.7187 9.10201C68.092 8.71935 68.736 8.36468 69.6507 8.03801C70.3787 7.81401 70.9993 7.64601 71.5127 7.53401V7.08601C71.5127 6.33935 71.3913 5.82601 71.1487 5.54601C70.9247 5.29401 70.5373 5.16801 69.9867 5.16801C69.632 5.16801 69.3053 5.21935 69.0067 5.32201L68.6987 6.35801C68.5867 6.76868 68.358 6.97401 68.0127 6.97401C67.63 6.97401 67.4247 6.79668 67.3967 6.44201C67.546 5.87268 67.8727 5.42468 68.3767 5.09801C68.89 4.77135 69.52 4.60801 70.2667 4.60801C71.06 4.60801 71.6387 4.79935 72.0027 5.18201C72.3853 5.58335 72.5767 6.23201 72.5767 7.12801V10.446C72.5767 11.1553 72.7773 11.51 73.1787 11.51C73.3933 11.51 73.6033 11.398 73.8087 11.174L74.0467 11.468C73.7387 11.9347 73.3327 12.168 72.8287 12.168C72.474 12.168 72.1847 12.0607 71.9607 11.846C71.746 11.622 71.606 11.314 71.5407 10.922C71.0833 11.3887 70.7053 11.7107 70.4067 11.888C70.0427 12.0933 69.646 12.196 69.2167 12.196ZM69.6227 11.37C69.9027 11.37 70.178 11.3 70.4487 11.16C70.6913 11.0293 71.046 10.7773 71.5127 10.404V7.98201C70.8687 8.15935 70.346 8.32735 69.9447 8.48601C69.3193 8.71935 68.8807 8.99001 68.6287 9.29801C68.4327 9.54068 68.3347 9.82535 68.3347 10.152C68.3347 10.5533 68.456 10.8613 68.6987 11.076C68.9227 11.272 69.2307 11.37 69.6227 11.37Z" fill="black"/>
<path d="M77.2493 12.196C76.5306 12.196 75.784 12.014 75.0093 11.65L74.9533 10.012H75.6253L75.9333 11.37C76.3346 11.5473 76.7733 11.636 77.2493 11.636C77.8559 11.636 78.318 11.5193 78.6353 11.286C78.934 11.062 79.0833 10.754 79.0833 10.362C79.0833 10.026 78.9666 9.75068 78.7333 9.53601C78.5186 9.34001 78.15 9.14401 77.6273 8.94801L76.9273 8.68201C75.6953 8.23401 75.0793 7.55735 75.0793 6.65201C75.0793 6.08268 75.2986 5.60668 75.7373 5.22401C76.2133 4.81335 76.848 4.60801 77.6413 4.60801C78.3506 4.60801 79.0506 4.80868 79.7413 5.21001L79.6853 6.72201H79.0693L78.8173 5.47601C78.444 5.27068 78.052 5.16801 77.6413 5.16801C77.1466 5.16801 76.764 5.27535 76.4933 5.49001C76.232 5.69535 76.1013 5.97535 76.1013 6.33001C76.1013 6.67535 76.2086 6.95068 76.4233 7.15601C76.6193 7.33335 76.9879 7.52468 77.5293 7.73001L78.0753 7.92601C78.8033 8.19668 79.3306 8.50468 79.6573 8.85001C79.9653 9.19535 80.1193 9.60601 80.1193 10.082C80.1193 10.67 79.8813 11.16 79.4053 11.552C78.8733 11.9813 78.1546 12.196 77.2493 12.196Z" fill="black"/>
<path d="M83.8255 12.196C83.1068 12.196 82.3601 12.014 81.5855 11.65L81.5295 10.012H82.2015L82.5095 11.37C82.9108 11.5473 83.3495 11.636 83.8255 11.636C84.4321 11.636 84.8941 11.5193 85.2115 11.286C85.5101 11.062 85.6595 10.754 85.6595 10.362C85.6595 10.026 85.5428 9.75068 85.3095 9.53601C85.0948 9.34001 84.7261 9.14401 84.2035 8.94801L83.5035 8.68201C82.2715 8.23401 81.6555 7.55735 81.6555 6.65201C81.6555 6.08268 81.8748 5.60668 82.3135 5.22401C82.7895 4.81335 83.4241 4.60801 84.2175 4.60801C84.9268 4.60801 85.6268 4.80868 86.3175 5.21001L86.2615 6.72201H85.6455L85.3935 5.47601C85.0201 5.27068 84.6281 5.16801 84.2175 5.16801C83.7228 5.16801 83.3401 5.27535 83.0695 5.49001C82.8081 5.69535 82.6775 5.97535 82.6775 6.33001C82.6775 6.67535 82.7848 6.95068 82.9995 7.15601C83.1955 7.33335 83.5641 7.52468 84.1055 7.73001L84.6515 7.92601C85.3795 8.19668 85.9068 8.50468 86.2335 8.85001C86.5415 9.19535 86.6955 9.60601 86.6955 10.082C86.6955 10.67 86.4575 11.16 85.9815 11.552C85.4495 11.9813 84.7308 12.196 83.8255 12.196Z" fill="black"/>
<path d="M87.9236 12V11.552L89.1276 11.37C89.1463 10.3433 89.1556 9.48935 89.1556 8.80801V8.02401C89.1556 7.07201 89.1463 6.36268 89.1276 5.89601L87.8396 5.81201V5.35001L90.0376 4.62201L90.2476 4.76201L90.2056 6.75001V8.80801C90.2056 9.48935 90.215 10.3433 90.2336 11.37L91.3396 11.552V12H87.9236ZM89.6456 1.01001C89.907 1.01001 90.1216 1.08935 90.2896 1.24801C90.4576 1.40668 90.5416 1.61201 90.5416 1.86401C90.5416 2.11601 90.453 2.32135 90.2756 2.48001C90.1076 2.63868 89.8976 2.71801 89.6456 2.71801C89.3936 2.71801 89.1836 2.63868 89.0156 2.48001C88.8476 2.32135 88.7636 2.11601 88.7636 1.86401C88.7636 1.61201 88.8476 1.40668 89.0156 1.24801C89.1836 1.08935 89.3936 1.01001 89.6456 1.01001Z" fill="black"/>
<path d="M95.9764 12.196C94.9497 12.196 94.1284 11.8553 93.5124 11.174C92.8964 10.4833 92.5884 9.55935 92.5884 8.40201C92.5884 7.25401 92.943 6.32534 93.6524 5.61601C94.315 4.94401 95.1224 4.60801 96.0744 4.60801C96.7184 4.60801 97.283 4.78068 97.7684 5.12601C98.263 5.47135 98.5757 5.91935 98.7064 6.47001C98.6504 6.81535 98.445 6.98801 98.0904 6.98801C97.7264 6.98801 97.4884 6.78735 97.3764 6.38601L97.0684 5.33601C96.7324 5.22401 96.415 5.16801 96.1164 5.16801C95.3977 5.16801 94.819 5.44335 94.3804 5.99401C93.923 6.56335 93.6944 7.33335 93.6944 8.30401C93.6944 9.26535 93.937 10.026 94.4224 10.586C94.889 11.1367 95.505 11.412 96.2704 11.412C96.7184 11.412 97.129 11.314 97.5024 11.118C97.885 10.9127 98.2024 10.628 98.4544 10.264L98.7484 10.404C98.2444 11.5987 97.3204 12.196 95.9764 12.196Z" fill="black"/>
<path d="M102.057 12.196C101.469 12.196 100.993 12.0373 100.629 11.72C100.237 11.384 100.041 10.9267 100.041 10.348C100.041 9.85335 100.213 9.43801 100.559 9.10201C100.932 8.71935 101.576 8.36468 102.491 8.03801C103.219 7.81401 103.839 7.64601 104.353 7.53401V7.08601C104.353 6.33935 104.231 5.82601 103.989 5.54601C103.765 5.29401 103.377 5.16801 102.827 5.16801C102.472 5.16801 102.145 5.21935 101.847 5.32201L101.539 6.35801C101.427 6.76868 101.198 6.97401 100.853 6.97401C100.47 6.97401 100.265 6.79668 100.237 6.44201C100.386 5.87268 100.713 5.42468 101.217 5.09801C101.73 4.77135 102.36 4.60801 103.107 4.60801C103.9 4.60801 104.479 4.79935 104.843 5.18201C105.225 5.58335 105.417 6.23201 105.417 7.12801V10.446C105.417 11.1553 105.617 11.51 106.019 11.51C106.233 11.51 106.443 11.398 106.649 11.174L106.887 11.468C106.579 11.9347 106.173 12.168 105.669 12.168C105.314 12.168 105.025 12.0607 104.801 11.846C104.586 11.622 104.446 11.314 104.381 10.922C103.923 11.3887 103.545 11.7107 103.247 11.888C102.883 12.0933 102.486 12.196 102.057 12.196ZM102.463 11.37C102.743 11.37 103.018 11.3 103.289 11.16C103.531 11.0293 103.886 10.7773 104.353 10.404V7.98201C103.709 8.15935 103.186 8.32735 102.785 8.48601C102.159 8.71935 101.721 8.99001 101.469 9.29801C101.273 9.54068 101.175 9.82535 101.175 10.152C101.175 10.5533 101.296 10.8613 101.539 11.076C101.763 11.272 102.071 11.37 102.463 11.37Z" fill="black"/>
<path d="M107.457 12V11.552L108.759 11.37C108.778 10.2687 108.787 9.41468 108.787 8.80801V1.83601L107.513 1.72401V1.29001L109.683 0.702012L109.893 0.828012L109.851 2.98401V8.80801C109.851 9.41468 109.86 10.2687 109.879 11.37L111.139 11.552V12H107.457Z" fill="black"/>
<path d="M122.174 12.224C121.633 12.224 121.087 12.1447 120.536 11.986C120.051 11.8367 119.626 11.6453 119.262 11.412L119.332 9.31201H120.046L120.382 11.16C120.886 11.4493 121.46 11.594 122.104 11.594C122.888 11.594 123.504 11.426 123.952 11.09C124.419 10.7353 124.652 10.2407 124.652 9.60601C124.652 9.11135 124.494 8.71001 124.176 8.40201C123.878 8.10335 123.355 7.80468 122.608 7.50601L122.034 7.28201C121.204 6.94601 120.583 6.55401 120.172 6.10601C119.706 5.60201 119.472 5.00001 119.472 4.30001C119.472 3.45068 119.794 2.77401 120.438 2.27001C121.045 1.79401 121.824 1.55601 122.776 1.55601C123.691 1.55601 124.512 1.82201 125.24 2.35401L125.17 4.31401H124.428L124.092 2.53601C123.7 2.30268 123.252 2.18601 122.748 2.18601C122.086 2.18601 121.558 2.34001 121.166 2.64801C120.746 2.96535 120.536 3.41801 120.536 4.00601C120.536 4.50068 120.695 4.91601 121.012 5.25201C121.292 5.56935 121.726 5.84001 122.314 6.06401L122.916 6.28801C123.943 6.69868 124.666 7.13735 125.086 7.60401C125.506 8.07068 125.716 8.65868 125.716 9.36801C125.716 10.2453 125.38 10.9453 124.708 11.468C124.064 11.972 123.22 12.224 122.174 12.224Z" fill="black"/>
<path d="M130.457 12.196C129.449 12.196 128.642 11.8693 128.035 11.216C127.4 10.544 127.083 9.62001 127.083 8.44401C127.083 7.30535 127.424 6.37201 128.105 5.64401C128.758 4.95335 129.561 4.60801 130.513 4.60801C131.334 4.60801 132.006 4.86468 132.529 5.37801C133.052 5.90068 133.313 6.59601 133.313 7.46401C133.313 7.84668 133.28 8.13601 133.215 8.33201L128.217 8.31801C128.226 9.31668 128.474 10.0913 128.959 10.642C129.417 11.1553 130.032 11.412 130.807 11.412C131.666 11.412 132.398 11.048 133.005 10.32L133.299 10.544C132.674 11.6453 131.726 12.196 130.457 12.196ZM128.231 7.78601H131.507C131.796 7.78601 132.002 7.71601 132.123 7.57601C132.216 7.46401 132.263 7.28201 132.263 7.03001C132.263 6.52601 132.095 6.09201 131.759 5.72801C131.404 5.35468 130.966 5.16801 130.443 5.16801C129.892 5.16801 129.417 5.38268 129.015 5.81201C128.577 6.28801 128.315 6.94601 128.231 7.78601Z" fill="black"/>
<path d="M134.711 12V11.552L135.859 11.384C135.887 10.6 135.901 9.74135 135.901 8.80801V8.03801C135.901 7.48735 135.882 6.82935 135.845 6.06401C135.845 5.99868 135.845 5.94735 135.845 5.91001L134.599 5.81201V5.36401L136.615 4.62201L136.811 4.76201L136.951 6.59601C137.203 5.98001 137.534 5.49468 137.945 5.14001C138.355 4.78535 138.785 4.60801 139.233 4.60801C139.466 4.60801 139.681 4.65468 139.877 4.74801C140.082 4.84135 140.222 4.96268 140.297 5.11201C140.297 5.74668 140.035 6.06401 139.513 6.06401C139.233 6.06401 138.934 5.92868 138.617 5.65801L138.421 5.49001C137.795 5.90068 137.31 6.58201 136.965 7.53401V8.80801C136.965 9.47068 136.974 10.3247 136.993 11.37L138.281 11.552V12H134.711Z" fill="black"/>
<path d="M140.984 12V11.552L142.188 11.37C142.207 10.3433 142.216 9.48935 142.216 8.80801V8.02401C142.216 7.07201 142.207 6.36268 142.188 5.89601L140.9 5.81201V5.35001L143.098 4.62201L143.308 4.76201L143.266 6.75001V8.80801C143.266 9.48935 143.276 10.3433 143.294 11.37L144.4 11.552V12H140.984ZM142.706 1.01001C142.968 1.01001 143.182 1.08935 143.35 1.24801C143.518 1.40668 143.602 1.61201 143.602 1.86401C143.602 2.11601 143.514 2.32135 143.336 2.48001C143.168 2.63868 142.958 2.71801 142.706 2.71801C142.454 2.71801 142.244 2.63868 142.076 2.48001C141.908 2.32135 141.824 2.11601 141.824 1.86401C141.824 1.61201 141.908 1.40668 142.076 1.24801C142.244 1.08935 142.454 1.01001 142.706 1.01001Z" fill="black"/>
<path d="M145.495 12V11.552L146.797 11.37C146.816 10.2313 146.825 9.37735 146.825 8.80801V5.44801H145.481V4.93001L146.839 4.76201C146.886 3.94068 146.993 3.27335 147.161 2.76001C147.32 2.24668 147.567 1.81735 147.903 1.47201C148.444 0.865345 149.121 0.562012 149.933 0.562012C150.288 0.562012 150.582 0.622678 150.815 0.744012C151.076 0.874679 151.244 1.06135 151.319 1.30401C151.3 1.48134 151.221 1.62601 151.081 1.73801C150.95 1.84068 150.768 1.89201 150.535 1.89201C150.208 1.89201 149.858 1.74734 149.485 1.45801L149.079 1.13601C148.808 1.27601 148.589 1.48134 148.421 1.75201C148.01 2.35868 147.824 3.37601 147.861 4.80401H150.059V5.44801H147.889V8.80801C147.889 9.37735 147.898 10.2313 147.917 11.37L149.345 11.552V12H145.495Z" fill="black"/>
</svg>
