<svg width="42" height="11" viewBox="0 0 42 11" fill="none" xmlns="http://www.w3.org/2000/svg">
<path d="M4.79 10.32C3.30333 10.32 2.21667 9.93333 1.53 9.16C0.843333 8.38 0.5 7.16667 0.5 5.52C0.5 2.28667 1.93 0.67 4.79 0.67C5.91 0.67 6.75667 0.946667 7.33 1.5C7.65 1.80667 7.81 2.15667 7.81 2.55C7.81 2.94333 7.72333 3.25 7.55 3.47C7.37667 3.69667 7.18 3.81 6.96 3.81C6.74 3.81 6.55 3.75667 6.39 3.65C6.22333 3.54333 6.11667 3.4 6.07 3.22C6.25667 2.94667 6.35 2.67 6.35 2.39C6.35 2.10333 6.21 1.87333 5.93 1.7C5.64333 1.52667 5.26667 1.44 4.8 1.44C3.8 1.44 3.08 1.76 2.64 2.4C2.20667 3.04 1.99 4.08 1.99 5.52C1.99 6.95333 2.20333 7.98333 2.63 8.61C3.05667 9.23667 3.77667 9.55 4.79 9.55C5.11667 9.55 5.46 9.48333 5.82 9.35C6.52 9.09 7.01 8.57333 7.29 7.8L7.99 8.05C7.84333 8.45 7.64333 8.80333 7.39 9.11C7.13667 9.41 6.89 9.63667 6.65 9.79C6.40333 9.93667 6.13667 10.0533 5.85 10.14C5.43667 10.26 5.08333 10.32 4.79 10.32ZM10.92 10.33C10.32 10.33 9.85667 10.18 9.53 9.88C9.19667 9.57333 9.03 9.12 9.03 8.52C9.03 7.92 9.26 7.43333 9.72 7.06C10.18 6.68667 10.8533 6.46667 11.74 6.4L12.93 6.31V5.08C12.93 4.58 12.83 4.21333 12.63 3.98C12.43 3.75333 12.11 3.64 11.67 3.64C10.8767 3.64 10.48 3.87 10.48 4.33C10.48 4.57667 10.6367 4.76333 10.95 4.89C10.95 5.36333 10.66 5.6 10.08 5.6C9.82 5.6 9.61 5.52 9.45 5.36C9.29 5.2 9.21 4.99 9.21 4.73C9.21 4.21 9.43 3.79667 9.87 3.49C10.3167 3.19 10.93 3.04 11.71 3.04C12.49 3.04 13.1033 3.22 13.55 3.58C13.9967 3.94 14.22 4.44 14.22 5.08V9.3C14.4533 9.47333 14.8033 9.60667 15.27 9.7L15.22 10.22H13.13L12.98 9.55C12.4267 10.07 11.74 10.33 10.92 10.33ZM10.36 8.47C10.36 9.29 10.6767 9.7 11.31 9.7C11.8167 9.7 12.3567 9.41 12.93 8.83V6.93L11.8 7.03C11.3533 7.06333 11 7.21333 10.74 7.48C10.4867 7.74 10.36 8.07 10.36 8.47ZM16.94 9.3V4.98C16.94 4.60667 16.8633 4.35333 16.71 4.22C16.5567 4.08667 16.2833 4.01 15.89 3.99L15.93 3.54C16.1367 3.50667 16.7533 3.34 17.78 3.04L18.04 3.18L18.16 3.96C18.2333 3.86667 18.3267 3.76333 18.44 3.65C18.56 3.54333 18.7667 3.41333 19.06 3.26C19.3533 3.11333 19.65 3.04 19.95 3.04C20.8567 3.04 21.5 3.36667 21.88 4.02C22.5333 3.36667 23.19 3.04 23.85 3.04C24.5167 3.04 25.0633 3.22 25.49 3.58C25.91 3.94667 26.12 4.52333 26.12 5.31V9.3C26.3533 9.47333 26.7033 9.60667 27.17 9.7L27.12 10.22H23.8L23.84 9.7C24.2133 9.64667 24.5433 9.51333 24.83 9.3V5.26C24.83 4.26667 24.4533 3.77 23.7 3.77C23.3667 3.77 23.0533 3.89333 22.76 4.14C22.46 4.38667 22.2633 4.65333 22.17 4.94V9.3C22.4033 9.47333 22.7533 9.60667 23.22 9.7L23.17 10.22H19.85L19.89 9.7C20.2633 9.64667 20.5967 9.51333 20.89 9.3V5.26C20.89 4.26667 20.51 3.77 19.75 3.77C19.4167 3.77 19.1033 3.89333 18.81 4.14C18.5167 4.38667 18.3233 4.65333 18.23 4.94V9.3C18.4767 9.48667 18.8267 9.62 19.28 9.7L19.22 10.22H15.89L15.94 9.67C16.3467 9.61 16.68 9.48667 16.94 9.3ZM29.34 10.22H28.63V1.85C28.63 1.53 28.5467 1.30667 28.38 1.18C28.22 1.05333 27.9533 0.983333 27.58 0.97L27.62 0.52C28 0.453333 28.6667 0.28 29.62 0L29.92 0.15V4.09C30.32 3.39 30.8967 3.04 31.65 3.04C32.6433 3.04 33.3667 3.36 33.82 4C34.28 4.64667 34.51 5.52333 34.51 6.63C34.51 7.73667 34.24 8.63 33.7 9.31C33.1533 9.99 32.3733 10.33 31.36 10.33C30.7333 10.33 30.1633 10.0833 29.65 9.59C29.51 9.79667 29.4067 10.0067 29.34 10.22ZM29.92 7.13V8.93C30.46 9.43667 30.9333 9.69 31.34 9.69C31.7533 9.69 32.08 9.60333 32.32 9.43C32.5667 9.25667 32.7467 9.00667 32.86 8.68C33.0467 8.14 33.14 7.55333 33.14 6.92C33.14 6.28 33.1233 5.81333 33.09 5.52C33.0633 5.22 33.0033 4.91667 32.91 4.61C32.7233 3.99 32.3033 3.68 31.65 3.68C30.9167 3.68 30.4333 4.05 30.2 4.79C30.0133 5.39667 29.92 6.17667 29.92 7.13ZM37 6.68C37 7.72667 37.14 8.48 37.42 8.94C37.7 9.4 38.1567 9.63 38.79 9.63C39.4167 9.63 39.87 9.4 40.15 8.94C40.43 8.48 40.57 7.72667 40.57 6.68C40.57 5.64 40.43 4.89 40.15 4.43C39.87 3.97 39.4133 3.74 38.78 3.74C38.1467 3.74 37.69 3.96667 37.41 4.42C37.1367 4.88 37 5.63333 37 6.68ZM41.11 9.4C40.5833 10.02 39.8067 10.33 38.78 10.33C37.7533 10.33 36.9767 10.02 36.45 9.4C35.9233 8.78 35.66 7.87333 35.66 6.68C35.66 5.49333 35.9233 4.59 36.45 3.97C36.9767 3.35 37.7533 3.04 38.78 3.04C39.8067 3.04 40.5833 3.35 41.11 3.97C41.6367 4.59 41.9 5.49333 41.9 6.68C41.9 7.87333 41.6367 8.78 41.11 9.4Z" fill="black"/>
</svg>
