<svg width="49" height="14" viewBox="0 0 49 14" fill="none" xmlns="http://www.w3.org/2000/svg">
<path d="M8.18 0.51C7.57333 0.31 7.13 0.183333 6.85 0.13C6.43 0.0433334 5.89333 0 5.24 0C4.6 0 3.94333 0.136667 3.27 0.41C2.68333 0.643333 2.18 0.973333 1.76 1.4C1.36667 1.8 1.05667 2.3 0.83 2.9C0.61 3.5 0.5 4.18 0.5 4.94C0.5 6.42 0.936667 7.61667 1.81 8.53C2.23 8.95 2.75 9.28667 3.37 9.54C3.99 9.8 4.66667 9.93 5.4 9.93C6.47333 9.93 7.43667 9.72 8.29 9.3L8.01 8.39C7.18333 8.70333 6.43 8.86 5.75 8.86C4.93667 8.86 4.22 8.69 3.6 8.35C3.04 8.02333 2.59667 7.56667 2.27 6.98C1.94333 6.38667 1.78 5.7 1.78 4.92C1.78 4.12 1.92333 3.42333 2.21 2.83C2.49667 2.24333 2.90667 1.79333 3.44 1.48C3.95333 1.19333 4.66667 1.05 5.58 1.05C6.03333 1.05 6.42 1.08333 6.74 1.15C7.06 1.21667 7.43 1.32 7.85 1.46L8.18 0.51ZM11.95 3.94C11.7033 3.94 11.4067 3.96667 11.06 4.02C10.72 4.07333 10.4133 4.14 10.14 4.22L9.92 3.38C10.7 3.11333 11.4267 2.98 12.1 2.98C12.86 2.98 13.44 3.09667 13.84 3.33C14.1867 3.59 14.4267 3.86333 14.56 4.15C14.6933 4.44333 14.76 4.87 14.76 5.43V9.77H13.91L13.66 9.14C12.9933 9.68 12.31 9.95 11.61 9.95C11.0033 9.95 10.4933 9.77333 10.08 9.42C9.66667 9.07333 9.46 8.63 9.46 8.09C9.46 7.56333 9.62 7.13 9.94 6.79C10.26 6.44333 10.6533 6.21 11.12 6.09C11.72 5.94333 12.5567 5.85667 13.63 5.83V5.78C13.63 5.3 13.5833 4.95 13.49 4.73C13.3033 4.20333 12.79 3.94 11.95 3.94ZM11.77 9.04C12.1567 9.04 12.4967 8.97 12.79 8.83C13.0767 8.69667 13.3567 8.50667 13.63 8.26V6.65C12.8233 6.66333 12.2267 6.71333 11.84 6.8C11.4067 6.88667 11.0867 7.02333 10.88 7.21C10.6667 7.39 10.56 7.64333 10.56 7.97C10.56 8.31 10.68 8.57 10.92 8.75C11.16 8.94333 11.4433 9.04 11.77 9.04ZM24.69 5.5C24.69 4.4 24.25 3.85 23.37 3.85C22.9433 3.85 22.4067 4.05 21.76 4.45C21.8 4.57667 21.82 4.83333 21.82 5.22V9.77H20.68V5.5C20.68 4.4 20.2367 3.85 19.35 3.85C18.93 3.85 18.41 4.02 17.79 4.36V9.77H16.65V3.05H17.44L17.69 3.61C18.0833 3.34333 18.45 3.15667 18.79 3.05C19.0567 2.97667 19.3667 2.94 19.72 2.94C20.1 2.94 20.44 3.01667 20.74 3.17C21.04 3.32333 21.2833 3.53333 21.47 3.8C21.85 3.52 22.2167 3.30667 22.57 3.16C22.9167 3.01333 23.3 2.94 23.72 2.94C24.4133 2.94 24.9433 3.15 25.31 3.57C25.6767 3.98333 25.86 4.53333 25.86 5.22V9.77H24.69V5.5ZM28.59 9.77H27.78V0.46H28.92V3.22C29.3733 3.01333 29.9167 2.91 30.55 2.91C31.49 2.91 32.26 3.19 32.86 3.75C33.4733 4.37 33.78 5.28 33.78 6.48C33.78 7.52 33.5167 8.35 32.99 8.97C32.4567 9.59667 31.6967 9.91 30.71 9.91C30.0567 9.91 29.42 9.70667 28.8 9.3L28.59 9.77ZM30.43 8.95C31.1767 8.95 31.7233 8.74333 32.07 8.33C32.4233 7.92333 32.6 7.28333 32.6 6.41C32.6 5.63 32.4133 5.00667 32.04 4.54C31.6733 4.07333 31.13 3.84 30.41 3.84C29.8633 3.84 29.3667 3.92667 28.92 4.1V8.55C29.1867 8.68333 29.43 8.78333 29.65 8.85C29.8633 8.91667 30.1233 8.95 30.43 8.95ZM37.6 3.94C37.3533 3.94 37.06 3.96667 36.72 4.02C36.3733 4.07333 36.0667 4.14 35.8 4.22L35.57 3.38C36.35 3.11333 37.08 2.98 37.76 2.98C38.5133 2.98 39.09 3.09667 39.49 3.33C39.8367 3.59 40.08 3.86333 40.22 4.15C40.3533 4.44333 40.42 4.87 40.42 5.43V9.77H39.56L39.32 9.14C38.6533 9.68 37.97 9.95 37.27 9.95C36.6633 9.95 36.1533 9.77333 35.74 9.42C35.32 9.07333 35.11 8.63 35.11 8.09C35.11 7.56333 35.2733 7.13 35.6 6.79C35.92 6.44333 36.3133 6.21 36.78 6.09C37.3733 5.94333 38.2067 5.85667 39.28 5.83V5.78C39.28 5.3 39.2333 4.95 39.14 4.73C38.9533 4.20333 38.44 3.94 37.6 3.94ZM37.43 9.04C37.81 9.04 38.1467 8.97 38.44 8.83C38.7333 8.69667 39.0133 8.50667 39.28 8.26V6.65C38.4733 6.66333 37.88 6.71333 37.5 6.8C37.0667 6.88667 36.7433 7.02333 36.53 7.21C36.3233 7.39 36.22 7.64333 36.22 7.97C36.22 8.31 36.34 8.57 36.58 8.75C36.8133 8.94333 37.0967 9.04 37.43 9.04ZM48.12 3.05L44.28 13.38H43.11L44.41 10.12L41.71 3.05H42.9L44.97 8.62L47.03 3.05H48.12Z" fill="black"/>
</svg>
