<svg width="54" height="11" viewBox="0 0 54 11" fill="none" xmlns="http://www.w3.org/2000/svg">
<path d="M0.5 5.69C0.5 4.91 0.64 4.21 0.92 3.59C1.2 2.96333 1.58 2.43333 2.06 2C2.54 1.56667 3.09667 1.23333 3.73 1C4.36333 0.766667 5.03333 0.65 5.74 0.65C6.24 0.65 6.74667 0.696667 7.26 0.79C7.77333 0.89 8.28667 1.06333 8.8 1.31L8.37 3.5C7.97 3.28 7.57333 3.11667 7.18 3.01C6.79333 2.89667 6.43333 2.84 6.1 2.84C5.70667 2.84 5.35333 2.90667 5.04 3.04C4.72667 3.16667 4.46 3.35333 4.24 3.6C4.02 3.84667 3.85333 4.14667 3.74 4.5C3.62 4.84667 3.56 5.24333 3.56 5.69C3.56 6.13 3.62 6.52667 3.74 6.88C3.85333 7.22667 4.02 7.52333 4.24 7.77C4.46 8.01667 4.72667 8.20667 5.04 8.34C5.35333 8.46667 5.70667 8.53 6.1 8.53C6.43333 8.53 6.79333 8.47667 7.18 8.37C7.57333 8.25667 7.97 8.09333 8.37 7.88L8.8 10.06C8.28667 10.3067 7.77333 10.4733 7.26 10.56C6.74667 10.6533 6.24 10.7 5.74 10.7C5.03333 10.7 4.36333 10.5833 3.73 10.35C3.09667 10.1233 2.54 9.79333 2.06 9.36C1.58 8.93333 1.2 8.41 0.92 7.79C0.64 7.17 0.5 6.47 0.5 5.69ZM12.47 10.7C12.1767 10.7 11.8967 10.66 11.63 10.58C11.3633 10.4933 11.1267 10.3667 10.92 10.2C10.72 10.0333 10.5567 9.82 10.43 9.56C10.31 9.3 10.25 8.99667 10.25 8.65C10.25 8.31 10.3067 8.01667 10.42 7.77C10.5267 7.52333 10.6733 7.31 10.86 7.13C11.0467 6.95 11.2633 6.80333 11.51 6.69C11.7567 6.57 12.02 6.48 12.3 6.42C12.5733 6.35333 12.86 6.30667 13.16 6.28C13.4533 6.25333 13.7367 6.24 14.01 6.24C14.2033 6.24 14.39 6.24333 14.57 6.25C14.7433 6.26333 14.91 6.27667 15.07 6.29C15.0567 6.00333 15 5.76333 14.9 5.57C14.8 5.38333 14.67 5.23333 14.51 5.12C14.3433 5.01333 14.15 4.93667 13.93 4.89C13.71 4.84333 13.48 4.82 13.24 4.82C13.02 4.82 12.79 4.83333 12.55 4.86C12.3167 4.89333 12.09 4.93 11.87 4.97C11.6433 5.01667 11.43 5.06333 11.23 5.11C11.0233 5.16333 10.8433 5.21 10.69 5.25V3.34C10.9167 3.28667 11.1567 3.23667 11.41 3.19C11.67 3.14333 11.94 3.1 12.22 3.06C12.4933 3.02667 12.7767 2.99667 13.07 2.97C13.3567 2.95 13.64 2.94 13.92 2.94C14.2733 2.94 14.62 2.96 14.96 3C15.3 3.04667 15.62 3.12 15.92 3.22C16.2267 3.32 16.51 3.45333 16.77 3.62C17.0233 3.79333 17.2433 4.00333 17.43 4.25C17.61 4.49667 17.7533 4.79 17.86 5.13C17.9667 5.46333 18.02 5.85333 18.02 6.3V10.5H15.2V9.28C15.0933 9.5 14.9433 9.69667 14.75 9.87C14.55 10.05 14.3267 10.2 14.08 10.32C13.8333 10.4467 13.5733 10.54 13.3 10.6C13.02 10.6667 12.7433 10.7 12.47 10.7ZM13.62 9.09C13.7533 9.09 13.9 9.05667 14.06 8.99C14.2267 8.91667 14.3867 8.80667 14.54 8.66C14.6867 8.51333 14.81 8.33 14.91 8.11C15.0167 7.88333 15.07 7.61667 15.07 7.31H14.84C14.62 7.31 14.3967 7.33333 14.17 7.38C13.9367 7.42 13.7267 7.48667 13.54 7.58C13.3467 7.67333 13.1867 7.78667 13.06 7.92C12.94 8.04667 12.88 8.19667 12.88 8.37C12.88 8.51 12.9033 8.62667 12.95 8.72C12.9967 8.80667 13.0533 8.88 13.12 8.94C13.1933 8.99333 13.2733 9.03333 13.36 9.06C13.4467 9.08 13.5333 9.09 13.62 9.09ZM20 10.5V3.12H22.95C22.9233 3.28 22.8967 3.48 22.87 3.72C22.8433 3.96667 22.83 4.22 22.83 4.48C22.9833 4.24667 23.18 4.03667 23.42 3.85C23.6533 3.65667 23.91 3.49333 24.19 3.36C24.4767 3.22667 24.7767 3.12333 25.09 3.05C25.41 2.97667 25.73 2.94 26.05 2.94C26.4033 2.94 26.74 2.99333 27.06 3.1C27.38 3.20667 27.66 3.37667 27.9 3.61C28.1467 3.84333 28.34 4.14667 28.48 4.52C28.62 4.88667 28.69 5.33667 28.69 5.87V10.5H25.74V6.3C25.74 6.01333 25.71 5.77667 25.65 5.59C25.59 5.40333 25.5067 5.25667 25.4 5.15C25.3 5.03667 25.1767 4.96 25.03 4.92C24.8833 4.87333 24.7267 4.85 24.56 4.85C24.38 4.85 24.2 4.88 24.02 4.94C23.84 5 23.68 5.08333 23.54 5.19C23.3933 5.29667 23.2667 5.42 23.16 5.56C23.0533 5.7 22.9833 5.85 22.95 6.01V10.5H20ZM33.58 10.7C33.1333 10.7 32.71 10.6233 32.31 10.47C31.9033 10.3233 31.55 10.09 31.25 9.77C30.95 9.45667 30.71 9.05667 30.53 8.57C30.35 8.07667 30.26 7.49333 30.26 6.82C30.26 6.11333 30.35 5.51 30.53 5.01C30.7167 4.51667 30.96 4.11667 31.26 3.81C31.56 3.50333 31.9033 3.28 32.29 3.14C32.6767 3.00667 33.0767 2.94 33.49 2.94C33.75 2.94 34.01 2.97 34.27 3.03C34.53 3.09 34.7733 3.17333 35 3.28C35.2267 3.38667 35.4333 3.51333 35.62 3.66C35.8 3.80667 35.9433 3.96667 36.05 4.14V0H39V10.5H36.05V9.28C35.9233 9.50667 35.77 9.70667 35.59 9.88C35.4167 10.0533 35.22 10.2033 35 10.33C34.7867 10.45 34.56 10.54 34.32 10.6C34.0733 10.6667 33.8267 10.7 33.58 10.7ZM33.21 6.83C33.21 7.20333 33.25 7.51667 33.33 7.77C33.41 8.01667 33.52 8.21667 33.66 8.37C33.7933 8.52333 33.9433 8.63333 34.11 8.7C34.2833 8.76667 34.46 8.8 34.64 8.8C34.8133 8.8 34.9867 8.76667 35.16 8.7C35.3267 8.63333 35.4767 8.52333 35.61 8.37C35.7433 8.21667 35.85 8.01333 35.93 7.76C36.01 7.50667 36.05 7.19333 36.05 6.82C36.05 6.45333 36.01 6.14333 35.93 5.89C35.85 5.63667 35.7433 5.43333 35.61 5.28C35.4767 5.12 35.3267 5.01 35.16 4.95C34.9933 4.88333 34.82 4.85 34.64 4.85C34.4667 4.85 34.2933 4.88333 34.12 4.95C33.9533 5.01 33.8 5.12 33.66 5.28C33.52 5.43333 33.41 5.63667 33.33 5.89C33.25 6.14333 33.21 6.45667 33.21 6.83ZM42.91 10.7C42.6167 10.7 42.3367 10.66 42.07 10.58C41.8033 10.4933 41.5667 10.3667 41.36 10.2C41.16 10.0333 41 9.82 40.88 9.56C40.7533 9.3 40.69 8.99667 40.69 8.65C40.69 8.31 40.7467 8.01667 40.86 7.77C40.9667 7.52333 41.1133 7.31 41.3 7.13C41.4867 6.95 41.7033 6.80333 41.95 6.69C42.1967 6.57 42.46 6.48 42.74 6.42C43.02 6.35333 43.3067 6.30667 43.6 6.28C43.8933 6.25333 44.1767 6.24 44.45 6.24C44.6433 6.24 44.83 6.24333 45.01 6.25C45.1833 6.26333 45.35 6.27667 45.51 6.29C45.4967 6.00333 45.44 5.76333 45.34 5.57C45.24 5.38333 45.11 5.23333 44.95 5.12C44.7833 5.01333 44.59 4.93667 44.37 4.89C44.15 4.84333 43.92 4.82 43.68 4.82C43.46 4.82 43.23 4.83333 42.99 4.86C42.7567 4.89333 42.53 4.93 42.31 4.97C42.0833 5.01667 41.87 5.06333 41.67 5.11C41.4633 5.16333 41.2833 5.21 41.13 5.25V3.34C41.3567 3.28667 41.5967 3.23667 41.85 3.19C42.11 3.14333 42.38 3.1 42.66 3.06C42.9333 3.02667 43.2167 2.99667 43.51 2.97C43.7967 2.95 44.0833 2.94 44.37 2.94C44.7167 2.94 45.06 2.96 45.4 3C45.74 3.04667 46.06 3.12 46.36 3.22C46.6667 3.32 46.95 3.45333 47.21 3.62C47.4633 3.79333 47.6833 4.00333 47.87 4.25C48.0567 4.49667 48.2 4.79 48.3 5.13C48.4067 5.46333 48.46 5.85333 48.46 6.3V10.5H45.64V9.28C45.5333 9.5 45.3833 9.69667 45.19 9.87C44.99 10.05 44.7667 10.2 44.52 10.32C44.2733 10.4467 44.0133 10.54 43.74 10.6C43.46 10.6667 43.1833 10.7 42.91 10.7ZM44.06 9.09C44.1933 9.09 44.3433 9.05667 44.51 8.99C44.67 8.91667 44.8267 8.80667 44.98 8.66C45.1267 8.51333 45.25 8.33 45.35 8.11C45.4567 7.88333 45.51 7.61667 45.51 7.31H45.28C45.06 7.31 44.8367 7.33333 44.61 7.38C44.3767 7.42 44.1667 7.48667 43.98 7.58C43.7867 7.67333 43.6267 7.78667 43.5 7.92C43.38 8.04667 43.32 8.19667 43.32 8.37C43.32 8.51 43.3433 8.62667 43.39 8.72C43.4367 8.80667 43.4933 8.88 43.56 8.94C43.6333 8.99333 43.7133 9.03333 43.8 9.06C43.8867 9.08 43.9733 9.09 44.06 9.09ZM50.44 10.5V0H53.4V10.5H50.44Z" fill="black"/>
</svg>
