<svg width="41.398" height="16.81" viewBox="0 0 41.398 16.81" xmlns="http://www.w3.org/2000/svg"><path transform="translate(0 13.303) scale(.0068359 -.0068359)" d="m870 1464q250 0 455-155l-119-119q-156 119-336 119-233 0-398-174t-165-418 165-418 398-174q184 0 336 117l119-119q-207-154-455-154-307 0-527 220.5t-220 527.5 220 527 527 220z"/><path transform="translate(9.6592 13.303) scale(.0068359 -.0068359)" d="m111 324q0 137 100 229t281 92h272v78q0 94-37 134t-137 40q-74 0-225-16l-138-17v160q111 8 164 14 180 16 268 17 145 0 213-82t68-189v-784h-129l-29 100h-6q-178-121-342-120-156 0-239.5 105.5t-83.5 238.5zm178 0q0-80 42-143.5t138-63.5q68 0 152 29.5t141 68.5h2v293h-272q-203 0-203-184z"/><path transform="translate(17.172 13.303) scale(.0068359 -.0068359)" d="m143 0v1024h123l25-72q131 100 233 101 111 0 205-49l-67-138q-88 31-162 31-102 0-187-76v-821z"/><path transform="translate(22.907 13.303) scale(.0068359 -.0068359)" d="m143 0v1024h123l21-59q115 90 248 90 78 0 156.5-28t123.5-79q119 106 268 107 121 0 223.5-60.5t102.5-165.5v-829h-174v748q0 150-178 149-111 0-195-68v-829h-174v748q0 150-178 149-115 0-197-70v-827z"/><path transform="translate(33.742 13.303) scale(.0068359 -.0068359)" d="m111 516q0 246 131 392.5t346 146.5q428 0 428-604h-735q10-127 93-226.5t253-99.5q197 0 338 65v-161q-154-59-316-60-141 0-246.5 44t-168 121-93 173-30.5 209zm176 70h553q-14 137-76 225t-180 88q-117 0-199-86t-98-227z"/></svg>