<svg width="85" height="11" viewBox="0 0 85 11" fill="none" xmlns="http://www.w3.org/2000/svg">
<path d="M5.93 8.2L6.95 8.63C6.69 9.19 6.33333 9.64333 5.88 9.99C5.42 10.3367 4.81667 10.51 4.07 10.51C3.69667 10.51 3.30333 10.4367 2.89 10.29C2.47 10.15 2.08333 9.88333 1.73 9.49C1.37667 9.09667 1.08333 8.56 0.85 7.88C0.616667 7.2 0.5 6.32667 0.5 5.26C0.5 4.21333 0.613333 3.35 0.84 2.67C1.06 1.99 1.34667 1.45333 1.7 1.06C2.04667 0.666667 2.43 0.393334 2.85 0.24C3.27 0.0866669 3.68 0.0100002 4.08 0.0100002C4.44667 0.0100002 4.77667 0.0566668 5.07 0.15C5.36333 0.243333 5.62333 0.366667 5.85 0.52C6.07 0.673333 6.26333 0.853334 6.43 1.06C6.59 1.26667 6.72333 1.48 6.83 1.7L5.78 2.11C5.62667 1.73 5.41667 1.44 5.15 1.24C4.89 1.04667 4.53333 0.95 4.08 0.95C3.76667 0.95 3.46667 1.01667 3.18 1.15C2.89333 1.28333 2.64333 1.51667 2.43 1.85C2.21667 2.18333 2.04667 2.62333 1.92 3.17C1.79333 3.72333 1.73 4.42 1.73 5.26C1.73 6.09333 1.79667 6.78333 1.93 7.33C2.05667 7.88333 2.23 8.32333 2.45 8.65C2.67 8.97667 2.92333 9.21 3.21 9.35C3.49667 9.49 3.79333 9.56 4.1 9.56C4.61333 9.56 5.00333 9.43 5.27 9.17C5.54333 8.91667 5.76333 8.59333 5.93 8.2ZM13.63 10.3H12.67L12.61 9.46C12.4033 9.74 12.1367 9.97333 11.81 10.16C11.4767 10.3467 11.0533 10.44 10.54 10.44C10.2667 10.44 9.99333 10.4 9.72 10.32C9.44667 10.24 9.2 10.1133 8.98 9.94C8.76 9.76667 8.58 9.54667 8.44 9.28C8.3 9.00667 8.23 8.67333 8.23 8.28C8.23 7.46 8.56667 6.81333 9.24 6.34C9.92 5.86 11.01 5.60667 12.51 5.58V4.95C12.51 4.50333 12.4 4.13333 12.18 3.84C11.96 3.54667 11.59 3.4 11.07 3.4C10.67 3.4 10.3367 3.5 10.07 3.7C9.80333 3.9 9.6 4.19 9.46 4.57L8.44 4.18C8.66 3.68 8.99667 3.28 9.45 2.98C9.89667 2.68 10.4467 2.53 11.1 2.53C11.5267 2.53 11.9 2.59 12.22 2.71C12.5333 2.82333 12.7967 2.98 13.01 3.18C13.2167 3.38 13.3733 3.61667 13.48 3.89C13.58 4.17 13.63 4.46667 13.63 4.78V10.3ZM10.85 9.54C11.2033 9.54 11.5133 9.46333 11.78 9.31C12.0533 9.15 12.2967 8.94667 12.51 8.7V6.46C11.4367 6.48 10.65 6.63333 10.15 6.92C9.64333 7.20667 9.39 7.63333 9.39 8.2C9.39 8.67333 9.53333 9.01667 9.82 9.23C10.1 9.43667 10.4433 9.54 10.85 9.54ZM16.99 10.3H15.87V2.74H16.89L16.94 3.8C17.1267 3.38 17.3633 3.07 17.65 2.87C17.9367 2.66333 18.26 2.56 18.62 2.56C18.7467 2.56 18.8567 2.56333 18.95 2.57C19.0433 2.58333 19.1567 2.61333 19.29 2.66L19.01 3.71C18.9233 3.69 18.8367 3.67333 18.75 3.66C18.6633 3.64667 18.5633 3.64 18.45 3.64C18.2633 3.64 18.0967 3.68 17.95 3.76C17.8033 3.83333 17.6733 3.94 17.56 4.08C17.44 4.22 17.3333 4.38333 17.24 4.57C17.1467 4.75 17.0633 4.93667 16.99 5.13V10.3ZM21.64 10.3H20.52V2.74H21.54L21.58 3.8C21.7667 3.38 22.0067 3.07 22.3 2.87C22.5867 2.66333 22.9067 2.56 23.26 2.56C23.3933 2.56 23.5067 2.56333 23.6 2.57C23.6933 2.58333 23.8067 2.61333 23.94 2.66L23.66 3.71C23.5733 3.69 23.4867 3.67333 23.4 3.66C23.3067 3.64667 23.2067 3.64 23.1 3.64C22.9133 3.64 22.7467 3.68 22.6 3.76C22.4533 3.83333 22.3233 3.94 22.21 4.08C22.09 4.22 21.9833 4.38333 21.89 4.57C21.7967 4.75 21.7133 4.93667 21.64 5.13V10.3ZM24.83 6.52C24.83 5.74667 24.9233 5.10333 25.11 4.59C25.29 4.07667 25.5267 3.66667 25.82 3.36C26.1133 3.06 26.4433 2.84667 26.81 2.72C27.1833 2.59333 27.55 2.53 27.91 2.53C28.2633 2.53 28.6233 2.59 28.99 2.71C29.3567 2.83 29.6867 3.04333 29.98 3.35C30.2733 3.65 30.5133 4.05667 30.7 4.57C30.8867 5.08333 30.98 5.73333 30.98 6.52C30.98 7.30667 30.8867 7.95 30.7 8.45C30.52 8.95667 30.2867 9.35667 30 9.65C29.7067 9.94333 29.3767 10.1467 29.01 10.26C28.6433 10.38 28.2767 10.44 27.91 10.44C27.5567 10.44 27.1967 10.38 26.83 10.26C26.4567 10.1467 26.1233 9.94 25.83 9.64C25.5367 9.34 25.2967 8.94 25.11 8.44C24.9233 7.93333 24.83 7.29333 24.83 6.52ZM26.01 6.52C26.01 7.58667 26.1833 8.36 26.53 8.84C26.8833 9.32667 27.35 9.57 27.93 9.57C28.5033 9.57 28.9633 9.33333 29.31 8.86C29.65 8.38 29.82 7.6 29.82 6.52C29.82 5.98 29.7733 5.51333 29.68 5.12C29.5867 4.72667 29.4533 4.40333 29.28 4.15C29.1133 3.89 28.9133 3.7 28.68 3.58C28.4467 3.46 28.19 3.4 27.91 3.4C27.3633 3.4 26.91 3.65333 26.55 4.16C26.19 4.66667 26.01 5.45333 26.01 6.52ZM34.18 1.37H32.9V0.0100002H34.18V1.37ZM34.1 10.3H32.98V2.74H34.1V10.3ZM38.26 10.44C37.6333 10.44 37.1067 10.32 36.68 10.08C36.26 9.83333 35.9233 9.47333 35.67 9L36.65 8.49C36.7767 8.79 36.99 9.03667 37.29 9.23C37.5833 9.42333 37.9167 9.52 38.29 9.52C38.4767 9.52 38.6567 9.49333 38.83 9.44C39.01 9.38667 39.17 9.30667 39.31 9.2C39.45 9.09333 39.56 8.96333 39.64 8.81C39.7267 8.65667 39.77 8.47333 39.77 8.26C39.77 7.98667 39.7167 7.76667 39.61 7.6C39.5033 7.44 39.36 7.30667 39.18 7.2C39.0067 7.09333 38.8033 7.00667 38.57 6.94C38.3433 6.87333 38.1133 6.80333 37.88 6.73C37.22 6.52333 36.7333 6.25 36.42 5.91C36.1133 5.57 35.96 5.14667 35.96 4.64C35.96 4.3 36.0267 3.99667 36.16 3.73C36.2867 3.47 36.4633 3.25333 36.69 3.08C36.9167 2.9 37.1733 2.76333 37.46 2.67C37.7467 2.57667 38.05 2.53 38.37 2.53C38.9833 2.53 39.5033 2.65667 39.93 2.91C40.3567 3.16333 40.6633 3.51333 40.85 3.96L39.85 4.38C39.7233 4.07333 39.5467 3.83333 39.32 3.66C39.0867 3.48667 38.7667 3.4 38.36 3.4C38.1867 3.4 38.0267 3.42333 37.88 3.47C37.7333 3.51667 37.5967 3.58333 37.47 3.67C37.35 3.75667 37.2567 3.87 37.19 4.01C37.1167 4.15 37.08 4.32 37.08 4.52C37.08 4.71333 37.1167 4.88 37.19 5.02C37.2567 5.16 37.3633 5.28333 37.51 5.39C37.6567 5.49 37.8433 5.58333 38.07 5.67C38.2967 5.75 38.5633 5.83667 38.87 5.93C39.49 6.11667 39.9833 6.38 40.35 6.72C40.7167 7.06 40.9 7.53333 40.9 8.14C40.9 8.48667 40.8367 8.8 40.71 9.08C40.5767 9.36 40.3933 9.6 40.16 9.8C39.9267 10 39.6467 10.1567 39.32 10.27C38.9933 10.3833 38.64 10.44 38.26 10.44ZM53.11 4.74V10.3H52.19L52.12 9.67C51.8667 9.95667 51.57 10.1667 51.23 10.3C50.89 10.4333 50.5333 10.5 50.16 10.5C49.6933 10.5 49.2567 10.41 48.85 10.23C48.4433 10.05 48.09 9.75667 47.79 9.35C47.4833 8.95 47.24 8.41333 47.06 7.74C46.8867 7.06667 46.8 6.23667 46.8 5.25C46.8 4.25 46.9 3.41333 47.1 2.74C47.3 2.06667 47.5667 1.52667 47.9 1.12C48.24 0.713334 48.6267 0.426667 49.06 0.26C49.4933 0.0866669 49.9433 0 50.41 0C51.1033 0 51.6633 0.136667 52.09 0.41C52.5167 0.683334 52.8533 1.07333 53.1 1.58L52.09 2.04C51.93 1.68667 51.7233 1.41 51.47 1.21C51.2233 1.01 50.8833 0.91 50.45 0.91C50.09 0.91 49.7567 0.986667 49.45 1.14C49.15 1.3 48.8933 1.55333 48.68 1.9C48.4733 2.24667 48.31 2.69333 48.19 3.24C48.0767 3.79333 48.02 4.46333 48.02 5.25C48.02 6.07667 48.0733 6.76667 48.18 7.32C48.2867 7.86667 48.4433 8.31 48.65 8.65C48.85 8.98333 49.09 9.22 49.37 9.36C49.65 9.5 49.97 9.57 50.33 9.57C51.1033 9.57 51.6767 9.29 52.05 8.73V5.69H50.33V4.74H53.11ZM55.07 6.52C55.07 5.74667 55.1633 5.10333 55.35 4.59C55.53 4.07667 55.7667 3.66667 56.06 3.36C56.3533 3.06 56.6833 2.84667 57.05 2.72C57.4233 2.59333 57.79 2.53 58.15 2.53C58.5033 2.53 58.8633 2.59 59.23 2.71C59.5967 2.83 59.9267 3.04333 60.22 3.35C60.5133 3.65 60.7533 4.05667 60.94 4.57C61.1267 5.08333 61.22 5.73333 61.22 6.52C61.22 7.30667 61.13 7.95 60.95 8.45C60.7633 8.95667 60.5267 9.35667 60.24 9.65C59.9467 9.94333 59.6167 10.1467 59.25 10.26C58.8833 10.38 58.5167 10.44 58.15 10.44C57.7967 10.44 57.4367 10.38 57.07 10.26C56.6967 10.1467 56.3633 9.94 56.07 9.64C55.7767 9.34 55.5367 8.94 55.35 8.44C55.1633 7.93333 55.07 7.29333 55.07 6.52ZM56.25 6.52C56.25 7.58667 56.4233 8.36 56.77 8.84C57.1233 9.32667 57.59 9.57 58.17 9.57C58.7433 9.57 59.2033 9.33333 59.55 8.86C59.89 8.38 60.06 7.6 60.06 6.52C60.06 5.98 60.0133 5.51333 59.92 5.12C59.8267 4.72667 59.6933 4.40333 59.52 4.15C59.3533 3.89 59.1533 3.7 58.92 3.58C58.6867 3.46 58.43 3.4 58.15 3.4C57.6033 3.4 57.15 3.65333 56.79 4.16C56.43 4.66667 56.25 5.45333 56.25 6.52ZM66.29 9.31L66.57 10.16C66.21 10.3067 65.8133 10.38 65.38 10.38C64.76 10.38 64.2933 10.2133 63.98 9.88C63.66 9.54667 63.5 9.08333 63.5 8.49V3.65H62.31L62.45 2.74H63.51L63.58 0.92H64.62V2.74H66.24V3.65H64.62V8.44C64.62 8.81333 64.7033 9.07333 64.87 9.22C65.0367 9.37333 65.2667 9.45 65.56 9.45C65.7 9.45 65.82 9.43667 65.92 9.41C66.0133 9.39 66.1367 9.35667 66.29 9.31ZM69.02 10.3H67.9V0.0100002H69.02V3.68C69.3133 3.26667 69.65 2.97333 70.03 2.8C70.41 2.62 70.7767 2.53 71.13 2.53C71.4567 2.53 71.7567 2.57667 72.03 2.67C72.2967 2.76333 72.5267 2.91333 72.72 3.12C72.9133 3.32667 73.0633 3.59667 73.17 3.93C73.2767 4.26333 73.33 4.67333 73.33 5.16V10.3H72.21V5.34C72.21 4.98 72.18 4.67667 72.12 4.43C72.0667 4.18333 71.9867 3.98667 71.88 3.84C71.7733 3.69333 71.6367 3.59 71.47 3.53C71.2967 3.47 71.1 3.44 70.88 3.44C70.5067 3.44 70.1667 3.55333 69.86 3.78C69.5467 4 69.2667 4.30667 69.02 4.7V10.3ZM76.77 1.37H75.48V0.0100002H76.77V1.37ZM76.69 10.3H75.57V2.74H76.69V10.3ZM79.87 6.51C79.87 7.57 80.04 8.34333 80.38 8.83C80.7267 9.31667 81.19 9.56 81.77 9.56C82.17 9.56 82.5 9.46333 82.76 9.27C83.0267 9.07667 83.28 8.78 83.52 8.38L84.43 8.97C84.1567 9.39667 83.8 9.75667 83.36 10.05C82.9133 10.3367 82.38 10.48 81.76 10.48C81.34 10.48 80.9433 10.4067 80.57 10.26C80.2033 10.12 79.88 9.89 79.6 9.57C79.32 9.25667 79.1 8.85 78.94 8.35C78.7733 7.85 78.69 7.24333 78.69 6.53C78.69 5.84333 78.77 5.24667 78.93 4.74C79.09 4.24 79.31 3.82667 79.59 3.5C79.87 3.17333 80.1967 2.93 80.57 2.77C80.95 2.61 81.36 2.53 81.8 2.53C82.3333 2.53 82.7933 2.62 83.18 2.8C83.5733 2.98667 83.94 3.30333 84.28 3.75L83.41 4.38C83.1633 4.02667 82.9167 3.78 82.67 3.64C82.4233 3.5 82.1333 3.43 81.8 3.43C81.22 3.43 80.7533 3.67667 80.4 4.17C80.0467 4.66333 79.87 5.44333 79.87 6.51Z" fill="black"/>
</svg>
