<svg width="74.826" height="21.561" viewBox="0 0 74.826 21.561" xmlns="http://www.w3.org/2000/svg"><path transform="translate(0 15.477) scale(.0068359 -.0068359)" d="m126 676q0 110 26.5 211.5t75.5 189.5 118.5 160 155.5 123.5 186.5 79.5 211.5 28q88 0 154.5-11.5t116-29 83-38.5 55.5-40q-1 0-1-7 0-15 2.5-55t6-89 6-99.5 2.5-87.5q0-6-4-13.5t-20-7.5q-9 0-22 3-21 6-53 27.5t-74.5 45-95 42-114.5 18.5q-82 0-149-32.5t-114-89.5-73-135.5-26-171.5q0-82 18-156.5t54.5-130.5 91-89.5 126.5-33.5q57 0 101 4t82 13 74.5 24 78.5 38q2 1 10 1 7 0 9.5-5.5t2.5-22.5v-120q0-33-0.5-64.5t-1-56.5-1-40.5-1.5-15.5q-46-29-98.5-47.5t-108-29-111.5-14-108-3.5q-141 0-264 53.5t-213.5 149.5-142.5 230-52 295z"/><path transform="translate(8.8457 15.477) scale(.0068359 -.0068359)" d="m1141 201q-1-4-1-7.5t0-6.5q0-25 8-41.5t17.5-27 17.5-17 8-11.5q0-14-30-26l-269-115q-1-1-7-1-8 0-16 14t-15.5 35.5-14 46-11.5 45.5q-63-73-136-107t-145-34q-84 0-164 37t-142 105.5-99.5 165.5-37.5 218q0 143 41.5 261t112.5 203 165.5 131.5 200.5 46.5q75 0 142-30.5t127-78.5q6 30 7 48t4.5 28 13.5 13.5 33 5.5q72 10 143.5 18.5t149.5 12.5zm-299 377q10 57 13.5 107.5t5.5 92.5q-16 12-34.5 25t-40 24.5-45 18.5-49.5 7q-54 0-90.5-35t-59-86-32-108-9.5-101q0-158 41.5-231.5t115.5-73.5q30 0 67 17t75 47z"/><path transform="translate(17.377 15.477) scale(.0068359 -.0068359)" d="m938 814q-21 2-47 4.5t-55 2.5q-44 0-89.5-7.5t-84.5-29.5-67-60.5-36-99.5q-7-74-11.5-121.5t-6.5-78-3.5-49-2.5-34.5q0-4-1.5-22t-4.5-42-5.5-52-5.5-52-4.5-42-1.5-22q0-8 0.5-13.5t0.5-10.5q0-8-7.5-13.5t-33.5-12.5l-265-95q-11-4-29-10t-35-6q-14 0-24.5 7t-10.5 24l86 991q3 33 7.5 45.5t22.5 16.5q91 18 188 36.5t188 47.5q8 0 9.5-2.5t1.5-7.5q0-2-0.5-6t-3-18-7-42.5-12.5-79.5q46 36 101.5 66t111.5 51.5 108 34 91 12.5z"/><path transform="translate(23.557 15.477) scale(.0068359 -.0068359)" d="m659 771q-14-105-26.5-209.5t-15.5-195.5q0-39 6-65t17.5-41 27.5-21.5 36-6.5q32 0 70 9.5t76 24.5q12 5 20.5 7.5t14.5 2.5q10 0 13.5-9t7-31.5 10.5-60.5 23-96q1-5 1.5-8.5t0.5-6.5q0-14-10.5-20t-34.5-14q-41-14-86.5-28.5t-90-26.5-85.5-19.5-72-7.5q-167 0-243.5 83t-76.5 253q0 29 2 59.5t5 63.5q10 100 17.5 189.5t15.5 171.5h-105q-54 0-78 4.5t-24 18.5q0 4 10 21.5t25.5 42 33.5 52.5 34.5 52.5 28.5 42.5 15 22h71q9 76 14.5 127.5t9 85.5 6.5 52.5 6.5 27.5 9 11.5 14.5 4.5q45 9 87 16.5t84 15.5 85.5 18.5 90.5 24.5q3 0 4 0.5t4 0.5q12 0 12-8v-2q-5-55-15.5-153t-23.5-222h268q8 0 15.5-5.5t7.5-18.5q0-5-12-36t-34-81l-36-81q-7-15-14.5-22t-30.5-9z"/><path transform="translate(29.941 15.477) scale(.0068359 -.0068359)" d="m716 1116q95 0 172.5-35.5t133-92 85.5-126.5 30-140q0-62-38-124.5t-106.5-112.5-164.5-81-211-31q-60 0-126 12 4-43 25-74t53-51 72.5-29.5 83.5-9.5q48 0 92.5 8.5t85.5 22.5 79 31 72 34q9 2 15.5 3.5t12.5 1.5q0 0-0.5-16t-0.5-45-0.5-70-1.5-91q3-5 4-10t1-8q0-12-22-26t-57.5-29-81-29-92.5-25.5-91-18-77-6.5q-108 0-209.5 37.5t-180 107.5-125.5 170-47 225q0 131 45 245.5t126.5 199.5 194.5 134 249 49zm-12-266q-41 0-75.5-17.5t-63-50-49.5-78-34-100.5q103 18 171 38t109 40.5 58 41 17 39.5q0 18-13.5 34t-33.5 28-43.5 18.5-42.5 6.5z"/><path transform="translate(37.748 15.477) scale(.0068359 -.0068359)" d="m938 814q-21 2-47 4.5t-55 2.5q-44 0-89.5-7.5t-84.5-29.5-67-60.5-36-99.5q-7-74-11.5-121.5t-6.5-78-3.5-49-2.5-34.5q0-4-1.5-22t-4.5-42-5.5-52-5.5-52-4.5-42-1.5-22q0-8 0.5-13.5t0.5-10.5q0-8-7.5-13.5t-33.5-12.5l-265-95q-11-4-29-10t-35-6q-14 0-24.5 7t-10.5 24l86 991q3 33 7.5 45.5t22.5 16.5q91 18 188 36.5t188 47.5q8 0 9.5-2.5t1.5-7.5q0-2-0.5-6t-3-18-7-42.5-12.5-79.5q46 36 101.5 66t111.5 51.5 108 34 91 12.5z"/><path transform="translate(46.936 15.477) scale(.0068359 -.0068359)" d="m561 682q0-72 15.5-144.5t51.5-130.5 95-94 146-36q67 4 117.5 27.5t87 61 60.5 86 38 102 19.5 109.5 5.5 108q0 71-19 137.5t-57 117.5-94.5 82-131.5 31q-59 0-106.5-22t-84.5-58.5-63.5-84-44-98-26-101-9.5-93.5zm195-734q-150 0-268 56t-199.5 151.5-125 221-43.5 265.5q0 157 44.5 289.5t124.5 235 190.5 173 242.5 104.5q12 0 18.5 19t11.5 42 12 42 20 19q194-20 349-68.5t263-138.5 165.5-227.5 57.5-335.5q0-127-31-239t-87-206.5-134.5-169-174.5-126.5-206.5-79.5-229.5-27.5z"/><path transform="translate(57.982 15.477) scale(.0068359 -.0068359)" d="m950-36q-11-3-29-9.5t-35-6.5q-14 0-24.5 7t-10.5 24v6q6 54 10 91.5t7.5 68 6 61 6.5 71 9.5 96 13.5 138.5q5 51 9 104t4 98q0 30-4.5 55.5t-16 44-31.5 28.5-51 10q-23 0-63.5-10t-80.5-33-71-60.5-35-92.5q-6-74-11-126.5t-9-89-6.5-59.5-3.5-39q-1-4-3-22t-4.5-43-5-53-5-53-4-43-1.5-22q0-8 0.5-13.5t0.5-10.5q0-8-7.5-13.5t-33.5-12.5l-265-91q-11-4-29-10t-35-6q-14 0-24.5 7t-10.5 24l91 1022q3 33 7.5 45.5t22.5 16.5q91 18 187 36.5t187 47.5q8 0 9.5-2.5t1.5-7.5q0-2-0.5-6t-3-18-7-42.5-12.5-79.5q69 40 129.5 64.5t114 38 100.5 18 88 4.5q141 0 205-85.5t64-256.5q0-24-1-49.5t-4-52.5l-46-430q-5-42-6-77.5t-1-82.5q0-8 0.5-13.5t0.5-9.5q0-9-7.5-14t-33.5-13z"/><path transform="translate(67.02 15.477) scale(.0068359 -.0068359)" d="m716 1116q95 0 172.5-35.5t133-92 85.5-126.5 30-140q0-62-38-124.5t-106.5-112.5-164.5-81-211-31q-60 0-126 12 4-43 25-74t53-51 72.5-29.5 83.5-9.5q48 0 92.5 8.5t85.5 22.5 79 31 72 34q9 2 15.5 3.5t12.5 1.5q0 0-0.5-16t-0.5-45-0.5-70-1.5-91q3-5 4-10t1-8q0-12-22-26t-57.5-29-81-29-92.5-25.5-91-18-77-6.5q-108 0-209.5 37.5t-180 107.5-125.5 170-47 225q0 131 45 245.5t126.5 199.5 194.5 134 249 49zm-12-266q-41 0-75.5-17.5t-63-50-49.5-78-34-100.5q103 18 171 38t109 40.5 58 41 17 39.5q0 18-13.5 34t-33.5 28-43.5 18.5-42.5 6.5z"/></svg>