<svg width="33" height="11" viewBox="0 0 33 11" fill="none" xmlns="http://www.w3.org/2000/svg">
<path d="M1.89167 10.3006C1.75167 10.2472 1.60833 10.1872 1.46167 10.1206C1.315 10.0539 1.17833 9.96056 1.05167 9.84056C0.925 9.71389 0.815 9.53722 0.721667 9.31056C0.628333 9.03722 0.568333 8.77056 0.541667 8.51056C0.508333 8.25056 0.495 7.94722 0.501667 7.60056C0.501667 7.11389 0.538333 6.69056 0.611667 6.33056C0.678333 5.97722 0.785 5.61389 0.931667 5.24056C0.951667 5.20722 0.988333 5.12389 1.04167 4.99056C1.095 4.85722 1.155 4.71056 1.22167 4.55056C1.295 4.39056 1.34833 4.27056 1.38167 4.19056C1.455 4.03056 1.56833 3.81722 1.72167 3.55056C1.88167 3.28389 2.04833 3.02389 2.22167 2.77056C2.495 2.37056 2.71833 2.05389 2.89167 1.82056C3.07167 1.58722 3.24167 1.39056 3.40167 1.23056C3.56167 1.07056 3.74167 0.920556 3.94167 0.780556C4.14167 0.633889 4.39833 0.453889 4.71167 0.240555C4.91833 0.087222 5.145 0.00722222 5.39167 0.000555557C5.63833 -0.00611111 5.87167 0.0472221 6.09167 0.160555C6.305 0.280555 6.46167 0.450556 6.56167 0.670556C6.66833 0.870556 6.72167 1.10722 6.72167 1.38056C6.72167 1.65389 6.67833 1.94389 6.59167 2.25056C6.505 2.55055 6.38833 2.83722 6.24167 3.11056C6.095 3.37722 5.92167 3.60056 5.72167 3.78056C5.60167 3.89389 5.49167 3.93722 5.39167 3.91056C5.29833 3.87722 5.185 3.80056 5.05167 3.68056C4.965 3.52056 4.92167 3.42722 4.92167 3.40056C4.915 3.37389 4.93167 3.35722 4.97167 3.35056C5.025 3.28389 5.09833 3.17056 5.19167 3.01056C5.285 2.85056 5.37833 2.68056 5.47167 2.50056C5.565 2.32055 5.63167 2.17389 5.67167 2.06056C5.745 1.66722 5.795 1.39056 5.82167 1.23056C5.84833 1.06389 5.82167 0.937222 5.74167 0.850555C5.70167 0.817222 5.64833 0.803889 5.58167 0.810556C5.50833 0.823889 5.39167 0.870555 5.23167 0.950555C5.01833 1.04389 4.73833 1.25056 4.39167 1.57056C4.045 1.89722 3.72833 2.25722 3.44167 2.65056C3.06833 3.14389 2.755 3.58055 2.50167 3.96056C2.24833 4.34722 2.05833 4.74056 1.93167 5.14056C1.91167 5.17389 1.88167 5.24389 1.84167 5.35056C1.795 5.45056 1.77167 5.50056 1.77167 5.50056C1.785 5.54056 1.77167 5.63056 1.73167 5.77056C1.69833 5.91722 1.65833 6.04389 1.61167 6.15056C1.505 6.57722 1.44167 7.02056 1.42167 7.48056C1.40833 7.94722 1.435 8.35722 1.50167 8.71056C1.575 9.06389 1.68167 9.31056 1.82167 9.45056C1.94167 9.53722 2.105 9.56389 2.31167 9.53056C2.525 9.50389 2.765 9.44056 3.03167 9.34056C3.305 9.23389 3.58167 9.12055 3.86167 9.00056C4.08833 8.90722 4.295 8.80389 4.48167 8.69056C4.66833 8.58389 4.80833 8.48722 4.90167 8.40056C4.975 8.34722 5.06833 8.29056 5.18167 8.23056C5.30167 8.16389 5.40167 8.13056 5.48167 8.13056C5.615 8.08389 5.69167 8.06722 5.71167 8.08056C5.73167 8.08722 5.74167 8.12722 5.74167 8.20056C5.74167 8.33389 5.66833 8.48056 5.52167 8.64056C5.375 8.80056 5.19167 8.94389 4.97167 9.07056C4.89167 9.14389 4.79167 9.22389 4.67167 9.31056C4.55167 9.39722 4.425 9.46389 4.29167 9.51056C4.09833 9.65722 3.85833 9.80056 3.57167 9.94056C3.27833 10.0806 2.985 10.1872 2.69167 10.2606C2.39833 10.3339 2.13167 10.3472 1.89167 10.3006ZM7.00167 9.02056C6.96167 8.94056 6.915 8.88056 6.86167 8.84056C6.80167 8.80056 6.77167 8.76056 6.77167 8.72056C6.77167 8.68722 6.77167 8.64722 6.77167 8.60056C6.765 8.56056 6.74167 8.52056 6.70167 8.48056C6.655 8.42722 6.66167 8.30056 6.72167 8.10056C6.775 7.90056 6.86833 7.65389 7.00167 7.36056C7.12833 7.06722 7.28167 6.75722 7.46167 6.43056C7.535 6.35056 7.60833 6.25056 7.68167 6.13056C7.755 6.01056 7.81167 5.93056 7.85167 5.89056C7.85167 5.85722 7.865 5.82389 7.89167 5.79056C7.91833 5.75722 7.95167 5.74056 7.99167 5.74056V5.66056C7.99167 5.61389 8.035 5.53389 8.12167 5.42056C8.215 5.30722 8.325 5.18389 8.45167 5.05056C8.585 4.91056 8.72167 4.77722 8.86167 4.65056C9.00167 4.53056 9.11833 4.44056 9.21167 4.38056C9.405 4.25389 9.60833 4.17389 9.82167 4.14056C10.0283 4.11389 10.2083 4.16056 10.3617 4.28056C10.3883 4.31389 10.435 4.36056 10.5017 4.42056C10.5617 4.48722 10.6383 4.56056 10.7317 4.64056C10.8183 4.72056 10.9083 4.80389 11.0017 4.89056L11.5217 5.35056L11.2717 6.05056C11.145 6.42389 11.115 6.75056 11.1817 7.03056C11.2417 7.31056 11.3317 7.55389 11.4517 7.76056C11.4983 7.86056 11.595 7.95722 11.7417 8.05056C11.8817 8.14389 12.0183 8.20055 12.1517 8.22056C12.225 8.22722 12.295 8.25389 12.3617 8.30056C12.4283 8.34722 12.4617 8.42389 12.4617 8.53056C12.4617 8.62389 12.4417 8.69722 12.4017 8.75056C12.3617 8.80389 12.295 8.84056 12.2017 8.86056C11.895 8.90056 11.6083 8.82722 11.3417 8.64056C11.075 8.45389 10.8317 8.14389 10.6117 7.71056C10.5717 7.65722 10.5217 7.55389 10.4617 7.40056C10.4017 7.24722 10.3683 7.14722 10.3617 7.10056C10.3217 7.14722 10.2517 7.23389 10.1517 7.36056C10.045 7.48722 9.965 7.57722 9.91167 7.63056C9.245 8.30389 8.67167 8.75389 8.19167 8.98056C7.71167 9.20722 7.315 9.22056 7.00167 9.02056ZM7.50167 8.23056C7.50167 8.29722 7.60167 8.29722 7.80167 8.23056C8.00167 8.15722 8.21833 8.02722 8.45167 7.84056C8.77167 7.56722 9.09167 7.26722 9.41167 6.94056C9.73167 6.61389 9.99167 6.31056 10.1917 6.03056L10.5017 5.53056C10.4083 5.31722 10.305 5.17056 10.1917 5.09056C10.085 5.01056 9.995 4.97056 9.92167 4.97056C9.80167 4.97056 9.62167 5.08389 9.38167 5.31056C9.14833 5.53056 8.895 5.82722 8.62167 6.20056C8.34833 6.57389 8.09167 6.98389 7.85167 7.43056C7.75833 7.61722 7.675 7.79722 7.60167 7.97056C7.535 8.14389 7.50167 8.23056 7.50167 8.23056ZM13.9017 8.67056C13.835 8.61055 13.7517 8.44056 13.6517 8.16056C13.5583 7.88056 13.465 7.55056 13.3717 7.17056C13.285 6.79722 13.215 6.45056 13.1617 6.13056C13.1217 5.94389 13.0817 5.78722 13.0417 5.66056C12.995 5.52722 12.9583 5.41722 12.9317 5.33056C12.885 5.16389 12.8717 5.02389 12.8917 4.91056C12.9117 4.80389 12.9783 4.71722 13.0917 4.65056C13.1383 4.62389 13.195 4.60056 13.2617 4.58056C13.335 4.56722 13.3883 4.56722 13.4217 4.58056C13.535 4.61389 13.6383 4.78389 13.7317 5.09056C13.825 5.39056 13.9083 5.79056 13.9817 6.29056C14.0217 6.57722 14.0683 6.82389 14.1217 7.03056C14.1817 7.23722 14.2117 7.35722 14.2117 7.39056C14.245 7.46389 14.2883 7.53722 14.3417 7.61056C14.395 7.67722 14.4583 7.67389 14.5317 7.60056C14.565 7.56722 14.6417 7.48389 14.7617 7.35056C14.875 7.21722 14.9883 7.07722 15.1017 6.93056C15.3017 6.67056 15.4583 6.45722 15.5717 6.29056C15.6917 6.11722 15.825 5.93722 15.9717 5.75056C16.0383 5.65722 16.1117 5.55722 16.1917 5.45056C16.2783 5.33722 16.365 5.23056 16.4517 5.13056C16.545 5.03056 16.6283 4.97389 16.7017 4.96056C16.9217 4.92056 17.0417 4.96722 17.0617 5.10056C17.0817 5.22722 16.9983 5.42056 16.8117 5.68056C16.7383 5.79389 16.6817 5.90056 16.6417 6.00056C16.595 6.10055 16.555 6.16722 16.5217 6.20056C16.4417 6.35389 16.325 6.54389 16.1717 6.77056C16.0117 6.99722 15.855 7.20722 15.7017 7.40056C15.555 7.59389 15.455 7.71722 15.4017 7.77056C15.3617 7.81056 15.2783 7.88056 15.1517 7.98056C15.025 8.08056 14.905 8.21056 14.7917 8.37056C14.5717 8.58389 14.395 8.71389 14.2617 8.76056C14.135 8.80722 14.015 8.77722 13.9017 8.67056ZM19.8317 9.03056C19.6383 9.19722 19.415 9.29389 19.1617 9.32056C18.9017 9.35389 18.6517 9.31722 18.4117 9.21056C18.165 9.09722 17.9617 8.93056 17.8017 8.71056C17.6483 8.50389 17.5483 8.26722 17.5017 8.00056C17.455 7.73389 17.4483 7.38722 17.4817 6.96056C17.5083 6.59389 17.625 6.22722 17.8317 5.86056C18.0383 5.49389 18.2883 5.16389 18.5817 4.87056C18.875 4.58389 19.1683 4.38389 19.4617 4.27056C19.6017 4.17722 19.7183 4.13389 19.8117 4.14056C19.9117 4.14056 20.065 4.15056 20.2717 4.17056C20.485 4.19722 20.645 4.24056 20.7517 4.30056C20.8583 4.35389 20.945 4.42722 21.0117 4.52056C21.1517 4.66056 21.245 4.79722 21.2917 4.93056C21.3383 5.07056 21.3617 5.20389 21.3617 5.33056C21.3217 5.53722 21.185 5.78722 20.9517 6.08056C20.7117 6.37389 20.4017 6.61389 20.0217 6.80056C19.815 6.86722 19.5883 6.89722 19.3417 6.89056C19.1017 6.87722 18.9017 6.81722 18.7417 6.71056C18.5683 6.63056 18.4517 6.64056 18.3917 6.74056C18.3383 6.84056 18.2883 7.07722 18.2417 7.45056C18.2017 7.80389 18.2283 8.06389 18.3217 8.23056C18.415 8.39056 18.5417 8.48389 18.7017 8.51056C18.8883 8.55056 19.035 8.57722 19.1417 8.59056C19.2483 8.60389 19.3817 8.56389 19.5417 8.47056C19.6883 8.37722 19.7817 8.32389 19.8217 8.31056C19.8617 8.29722 19.8917 8.27722 19.9117 8.25056C19.9383 8.23055 19.9983 8.17389 20.0917 8.08056C20.1517 8.01389 20.2017 7.96389 20.2417 7.93056C20.2817 7.89722 20.325 7.88056 20.3717 7.88056C20.4183 7.88056 20.4583 7.90389 20.4917 7.95056C20.5317 7.99056 20.5683 8.02056 20.6017 8.04056C20.695 8.04056 20.7183 8.09389 20.6717 8.20056C20.6183 8.31389 20.5183 8.44722 20.3717 8.60056C20.2183 8.75389 20.0383 8.89722 19.8317 9.03056ZM19.8217 6.06056C19.9217 6.01389 20.0283 5.94722 20.1417 5.86056C20.255 5.77389 20.3517 5.67389 20.4317 5.56056C20.5117 5.45389 20.5517 5.36389 20.5517 5.29056C20.5517 5.16389 20.4917 5.05389 20.3717 4.96056C20.245 4.87389 20.0617 4.86389 19.8217 4.93056C19.7217 4.95722 19.605 5.02389 19.4717 5.13056C19.3383 5.23722 19.215 5.35722 19.1017 5.49056C18.9817 5.61722 18.8883 5.73389 18.8217 5.84056C18.7483 5.94056 18.7217 6.00056 18.7417 6.02056C18.7683 6.06722 18.8483 6.10389 18.9817 6.13056C19.115 6.15056 19.2617 6.15722 19.4217 6.15056C19.5883 6.13722 19.7217 6.10722 19.8217 6.06056ZM22.0217 9.02056C21.9817 8.94056 21.935 8.88056 21.8817 8.84056C21.8217 8.80056 21.7917 8.76056 21.7917 8.72056C21.7917 8.68722 21.7917 8.64722 21.7917 8.60056C21.785 8.56056 21.7617 8.52056 21.7217 8.48056C21.675 8.42722 21.6817 8.30056 21.7417 8.10056C21.795 7.90056 21.8883 7.65389 22.0217 7.36056C22.1483 7.06722 22.3017 6.75722 22.4817 6.43056C22.555 6.35056 22.6283 6.25056 22.7017 6.13056C22.7817 6.01056 22.8383 5.93056 22.8717 5.89056C22.8717 5.85722 22.885 5.82389 22.9117 5.79056C22.945 5.75722 22.9783 5.74056 23.0117 5.74056V5.66056C23.0117 5.61389 23.0583 5.53389 23.1517 5.42056C23.2383 5.30722 23.345 5.18389 23.4717 5.05056C23.605 4.91056 23.7417 4.77722 23.8817 4.65056C24.0217 4.53056 24.1383 4.44056 24.2317 4.38056C24.425 4.25389 24.6283 4.17389 24.8417 4.14056C25.0483 4.11389 25.2283 4.16056 25.3817 4.28056C25.4083 4.31389 25.455 4.36056 25.5217 4.42056C25.5883 4.48722 25.665 4.56056 25.7517 4.64056C25.8383 4.72056 25.9283 4.80389 26.0217 4.89056L26.5417 5.35056L26.2917 6.05056C26.1717 6.42389 26.1417 6.75056 26.2017 7.03056C26.2617 7.31056 26.3517 7.55389 26.4717 7.76056C26.5183 7.86056 26.615 7.95722 26.7617 8.05056C26.9017 8.14389 27.0383 8.20055 27.1717 8.22056C27.245 8.22722 27.315 8.25389 27.3817 8.30056C27.4483 8.34722 27.4817 8.42389 27.4817 8.53056C27.4817 8.62389 27.4617 8.69722 27.4217 8.75056C27.3883 8.80389 27.325 8.84056 27.2317 8.86056C26.9183 8.90056 26.6317 8.82722 26.3717 8.64056C26.105 8.45389 25.8583 8.14389 25.6317 7.71056C25.5917 7.65722 25.5417 7.55389 25.4817 7.40056C25.4217 7.24722 25.3883 7.14722 25.3817 7.10056C25.3417 7.14722 25.2717 7.23389 25.1717 7.36056C25.065 7.48722 24.985 7.57722 24.9317 7.63056C24.2717 8.30389 23.7017 8.75389 23.2217 8.98056C22.735 9.20722 22.335 9.22056 22.0217 9.02056ZM22.5217 8.23056C22.5217 8.29722 22.6217 8.29722 22.8217 8.23056C23.0217 8.15722 23.2383 8.02722 23.4717 7.84056C23.7917 7.56722 24.1117 7.26722 24.4317 6.94056C24.7583 6.61389 25.0183 6.31056 25.2117 6.03056L25.5217 5.53056C25.4283 5.31722 25.3283 5.17056 25.2217 5.09056C25.115 5.01056 25.0217 4.97056 24.9417 4.97056C24.8217 4.97056 24.645 5.08389 24.4117 5.31056C24.1717 5.53056 23.915 5.82722 23.6417 6.20056C23.375 6.57389 23.1183 6.98389 22.8717 7.43056C22.7783 7.61722 22.6983 7.79722 22.6317 7.97056C22.5583 8.14389 22.5217 8.23056 22.5217 8.23056ZM29.1417 9.42056C29.0417 9.40055 28.9383 9.34722 28.8317 9.26056C28.725 9.17389 28.6317 9.07056 28.5517 8.95056C28.4717 8.83722 28.4183 8.73389 28.3917 8.64056C28.3917 8.62055 28.3783 8.59722 28.3517 8.57056C28.3317 8.54389 28.3217 8.53056 28.3217 8.53056C28.2817 8.49722 28.2617 8.37056 28.2617 8.15056C28.255 7.93722 28.265 7.69389 28.2917 7.42056C28.3183 7.14722 28.3517 6.93389 28.3917 6.78056C28.4383 6.62722 28.5083 6.42389 28.6017 6.17056C28.695 5.91055 28.775 5.67722 28.8417 5.47056L29.2117 4.66056L28.6517 4.51056C28.5917 4.49056 28.5383 4.45389 28.4917 4.40056C28.4517 4.34056 28.4317 4.29389 28.4317 4.26056C28.4317 4.18056 28.475 4.08722 28.5617 3.98056C28.6417 3.87389 28.7017 3.82056 28.7417 3.82056C28.7883 3.83389 28.875 3.84056 29.0017 3.84056C29.1283 3.84056 29.2517 3.83389 29.3717 3.82056C29.4917 3.81389 29.565 3.80389 29.5917 3.79056C29.6317 3.77722 29.6683 3.75389 29.7017 3.72056C29.7417 3.68722 29.7717 3.63722 29.7917 3.57056C29.8383 3.47056 29.8783 3.37389 29.9117 3.28056C29.9517 3.19389 30.005 3.09389 30.0717 2.98056C30.1383 2.86056 30.1917 2.75722 30.2317 2.67056C30.2717 2.59056 30.3383 2.47389 30.4317 2.32056C30.4783 2.26056 30.5317 2.18389 30.5917 2.09056C30.645 1.99722 30.715 1.91722 30.8017 1.85056C30.8817 1.77722 30.9683 1.74056 31.0617 1.74056C31.1483 1.74722 31.2617 1.81056 31.4017 1.93056C31.475 2.02389 31.515 2.09389 31.5217 2.14056C31.535 2.18722 31.4983 2.27722 31.4117 2.41056C31.3383 2.57056 31.2517 2.72722 31.1517 2.88056C31.0583 3.04056 30.9683 3.20056 30.8817 3.36056C30.735 3.56722 30.7083 3.68389 30.8017 3.71056C30.895 3.73722 31.155 3.71722 31.5817 3.65056C31.855 3.60389 32.0517 3.61722 32.1717 3.69056C32.2917 3.75722 32.3617 3.87056 32.3817 4.03056C32.4083 4.25722 32.385 4.39389 32.3117 4.44056C32.2383 4.48722 32.0217 4.51056 31.6617 4.51056C31.4417 4.54389 31.2517 4.56389 31.0917 4.57056C30.9317 4.57722 30.815 4.58056 30.7417 4.58056C30.6217 4.58722 30.5417 4.59056 30.5017 4.59056C30.4683 4.59056 30.4117 4.60056 30.3317 4.62056C30.2583 4.64056 30.205 4.67056 30.1717 4.71056C30.1383 4.75056 30.105 4.81056 30.0717 4.89056C30.0317 4.92389 29.975 5.02056 29.9017 5.18056C29.8283 5.34056 29.735 5.51389 29.6217 5.70056C29.4883 6.09389 29.375 6.48389 29.2817 6.87056C29.1883 7.25722 29.115 7.63056 29.0617 7.99056C29.0217 8.22389 29.025 8.38722 29.0717 8.48056C29.1183 8.56722 29.2417 8.62055 29.4417 8.64056C29.5417 8.64722 29.7083 8.64389 29.9417 8.63056C30.1683 8.61722 30.345 8.59056 30.4717 8.55056C30.5783 8.50389 30.6883 8.45722 30.8017 8.41056C30.9083 8.35722 31.0083 8.30389 31.1017 8.25056C31.1883 8.20389 31.275 8.15389 31.3617 8.10056C31.4417 8.04722 31.4817 8.02056 31.4817 8.02056C31.5283 7.94722 31.5817 7.92389 31.6417 7.95056C31.695 7.97722 31.7417 8.04722 31.7817 8.16056C31.7817 8.27389 31.7583 8.39056 31.7117 8.51056C31.665 8.63056 31.4917 8.77722 31.1917 8.95056C30.7717 9.21056 30.385 9.36389 30.0317 9.41056C29.685 9.46389 29.3883 9.46722 29.1417 9.42056Z" fill="black"/>
</svg>
