<svg width="65" height="10" viewBox="0 0 65 10" fill="none" xmlns="http://www.w3.org/2000/svg">
<path d="M2.57444 0.71C2.70111 0.656667 2.97111 0.636667 3.38444 0.65C3.79778 0.663333 4.09111 0.703333 4.26444 0.77L4.61444 0.88C4.90778 1.07333 5.07111 1.17 5.10444 1.17C5.49111 1.47 5.71111 1.86333 5.76444 2.35C5.81778 2.55667 5.82778 2.74333 5.79444 2.91C5.79444 2.96333 5.77444 3.08333 5.73444 3.27L5.59444 3.6L5.42444 3.83C5.37111 3.84333 5.34111 3.85 5.33444 3.85C4.98778 3.90333 4.72111 3.91 4.53444 3.87C4.34778 3.83 4.18444 3.73 4.04444 3.57C4.01778 3.51 4.00444 3.45667 4.00444 3.41C4.01111 3.36333 4.02444 3.32333 4.04444 3.29L4.11444 3.06C4.23444 2.76667 4.22444 2.51667 4.08444 2.31C4.08444 2.28333 4.03778 2.23 3.94444 2.15C3.85111 2.07667 3.77778 2.02333 3.72444 1.99C3.67778 1.95 3.58778 1.94333 3.45444 1.97C3.22778 2.06333 3.03778 2.35 2.88444 2.83C2.69778 3.07 2.56444 3.38667 2.48444 3.78C2.37778 4.48 2.32444 4.87667 2.32444 4.97L2.30444 5.28V5.4C2.28444 5.42 2.29444 5.82667 2.33444 6.62C2.34111 6.66667 2.36111 6.73333 2.39444 6.82C2.42111 6.92 2.46111 7.08667 2.51444 7.32L2.69444 7.63C2.74111 7.65667 2.80444 7.74 2.88444 7.88C2.93111 7.88 2.96778 7.91333 2.99444 7.98C3.06111 8.04667 3.08778 8.08333 3.07444 8.09C3.12111 8.09667 3.19111 8.12333 3.28444 8.17C3.53778 8.30333 3.75778 8.27667 3.94444 8.09C4.01111 8.02333 4.09444 7.93333 4.19444 7.82C4.28778 7.7 4.36111 7.60667 4.41444 7.54C4.46778 7.46667 4.54778 7.39667 4.65444 7.33C4.96778 7.09667 5.23444 7.10667 5.45444 7.36C5.50111 7.43333 5.50778 7.61333 5.47444 7.9C5.44111 8.18667 5.30778 8.48333 5.07444 8.79C5.06111 8.84333 5.00111 8.93333 4.89444 9.06C4.79444 9.18667 4.68778 9.28667 4.57444 9.36C4.55444 9.42667 4.20111 9.47333 3.51444 9.5C3.47444 9.5 3.39778 9.49333 3.28444 9.48C3.18444 9.50667 3.04778 9.49 2.87444 9.43C2.70111 9.37667 2.60444 9.35 2.58444 9.35L2.40444 9.31C2.33111 9.31 2.25778 9.28667 2.18444 9.24C2.10444 9.19333 1.97778 9.11 1.80444 8.99C1.63778 8.87667 1.50778 8.78333 1.41444 8.71C1.13444 8.48333 0.931111 8.22667 0.804444 7.94C0.771111 7.87333 0.747778 7.78 0.734444 7.66C0.727778 7.54667 0.711111 7.46 0.684444 7.4C0.611111 7.32667 0.574444 7.20667 0.574444 7.04C0.581111 6.87333 0.571111 6.66667 0.544444 6.42C0.544444 6.31333 0.547778 6.25 0.554444 6.23C0.507778 6.18333 0.491111 6.1 0.504444 5.98C0.511111 5.86667 0.514444 5.70667 0.514444 5.5C0.541111 5.44667 0.551111 5.28 0.544444 5C0.544444 4.72667 0.554444 4.52 0.574444 4.38C0.534444 4.29333 0.527778 4.17333 0.554444 4.02L0.574444 3.6C0.581111 3.42667 0.621111 3.24667 0.694444 3.06C0.707778 2.98 0.727778 2.88 0.754444 2.76C0.781111 2.64667 0.901111 2.41333 1.11444 2.06C1.11444 1.98 1.18444 1.88667 1.32444 1.78C1.32444 1.74 1.36111 1.68333 1.43444 1.61C1.51444 1.53667 1.60111 1.44333 1.69444 1.33C1.82111 1.17 1.96444 1.05333 2.12444 0.98C2.28444 0.906667 2.43444 0.816667 2.57444 0.71ZM9.48444 5.26C9.47778 5.05333 9.43111 4.89667 9.34445 4.79C9.26445 4.68333 9.11111 4.62 8.88445 4.6C8.81778 4.64667 8.73111 4.80333 8.62444 5.07C8.51778 5.33667 8.45111 5.62 8.42444 5.92C8.33111 6.36667 8.28444 6.81333 8.28444 7.26C8.29111 7.72 8.36445 8.05667 8.50445 8.27C8.52445 8.31 8.54444 8.32333 8.56444 8.31C8.61111 8.31 8.68444 8.21667 8.78444 8.03C9.28444 7.13667 9.51778 6.21333 9.48444 5.26ZM9.92445 7.94L9.71445 8.48C9.71445 8.5 9.57778 8.7 9.30445 9.08C9.22445 9.26 9.06778 9.36 8.83444 9.38C8.60778 9.4 8.38778 9.37667 8.17444 9.31C7.88111 9.20333 7.66111 9.08 7.51444 8.94C7.36778 8.8 7.22111 8.56667 7.07444 8.24C6.92778 7.90667 6.85111 7.63333 6.84444 7.42C6.79778 7.11333 6.77444 6.91667 6.77444 6.83V6.49C6.77444 6.15667 6.78778 5.96333 6.81444 5.91C6.82111 5.87 6.84444 5.77 6.88444 5.61C6.93111 5.21667 7.04444 4.84333 7.22444 4.49C7.56444 3.81 7.91778 3.46 8.28444 3.44H8.35444C8.37444 3.45333 8.40111 3.46 8.43444 3.46H8.62444C8.95111 3.48667 9.15111 3.51333 9.22445 3.54C9.36445 3.58 9.48444 3.6 9.58444 3.6L9.95444 3.67C10.0611 3.65667 10.2078 3.68 10.3944 3.74C10.5744 3.79333 10.6711 3.83333 10.6844 3.86C10.6978 3.88667 10.7244 3.99 10.7644 4.17C10.7978 4.35 10.8211 4.47667 10.8344 4.55C10.8544 4.63 10.8678 4.71333 10.8744 4.8C10.9478 5.48 11.0678 6.11333 11.2344 6.7C11.2478 6.73333 11.2578 6.77667 11.2644 6.83C11.2778 6.88333 11.3111 6.99333 11.3644 7.16C11.4178 7.32 11.4611 7.45667 11.4944 7.57C11.5211 7.68333 11.5711 7.83333 11.6444 8.02C11.6978 8.16 11.7811 8.32333 11.8944 8.51C12.1011 8.79667 11.9944 9.02 11.5744 9.18C11.5211 9.2 11.4244 9.21 11.2844 9.21C11.2511 9.21 11.1611 9.16333 11.0144 9.07C10.9211 9.07 10.8311 9.02 10.7444 8.92L10.6344 8.89C10.5678 8.82333 10.5111 8.79 10.4644 8.79C10.4511 8.77 10.2844 8.39333 9.96445 7.66C9.93778 7.76 9.92445 7.85333 9.92445 7.94ZM14.7344 7.77L14.9244 6.72C14.9244 6.66 14.9311 6.61333 14.9444 6.58C14.9578 6.55333 14.9644 6.51 14.9644 6.45C14.9711 6.37667 14.9944 6.25667 15.0344 6.09C15.0344 6.01667 15.0511 5.95667 15.0844 5.91C15.1044 5.75667 15.2211 5.46 15.4344 5.02C15.4744 4.89333 15.5378 4.78333 15.6244 4.69C15.6244 4.63 15.6511 4.56333 15.7044 4.49L15.8744 4.2C15.8744 4.18 15.9078 4.11 15.9744 3.99C16.0278 3.96333 16.0644 3.91333 16.0844 3.84C16.1044 3.77333 16.1611 3.67333 16.2544 3.54C16.2811 3.45333 16.3878 3.37333 16.5744 3.3H16.7944L17.1044 3.4L17.3144 3.54C17.3611 3.58667 17.3944 3.65333 17.4144 3.74C17.4344 3.72 17.4444 3.72 17.4444 3.74C17.4311 3.82 17.3744 4.03 17.2744 4.37C17.1811 4.67667 17.1144 4.89333 17.0744 5.02C17.0411 5.14667 17.0011 5.27333 16.9544 5.4C16.9544 5.41333 16.9144 5.54667 16.8344 5.8C16.7611 6.06 16.6978 6.23667 16.6444 6.33L16.3744 7.31C16.2744 7.55 16.2111 7.76333 16.1844 7.95C15.9778 8.86333 15.8744 9.34 15.8744 9.38C15.8744 9.41333 15.8378 9.53 15.7644 9.73C15.7444 9.87667 15.5811 9.95 15.2744 9.95C15.2278 9.90333 15.1644 9.86333 15.0844 9.83C15.0578 9.86333 14.9344 9.86667 14.7144 9.84C14.3078 9.88667 13.9644 9.83 13.6844 9.67C13.6244 9.55667 13.5711 9.38 13.5244 9.14C13.3978 8.93333 13.3311 8.77 13.3244 8.65L13.1844 8.4C13.1844 8.28 13.1644 8.16667 13.1244 8.06C13.0778 7.96 13.0511 7.85667 13.0444 7.75C13.0178 7.69 13.0044 7.61667 13.0044 7.53C12.9844 7.45667 12.9744 7.37667 12.9744 7.29C12.9344 7.11667 12.9211 6.93333 12.9344 6.74C12.9411 6.54667 12.9311 6.31667 12.9044 6.05C12.9044 5.89 12.9011 5.79 12.8944 5.75L12.9044 5.39C12.9044 5.21 12.9078 5.10333 12.9144 5.07C12.8811 4.91667 12.8644 4.78333 12.8644 4.67L12.8444 4.41C12.8444 4.29667 12.8378 4.19 12.8244 4.09C12.8044 3.98333 12.8111 3.88 12.8444 3.78C12.9111 3.70667 12.9811 3.64667 13.0544 3.6C13.1678 3.50667 13.3378 3.5 13.5644 3.58L13.9144 3.74L14.0344 3.83C14.0544 3.85 14.0511 3.89667 14.0244 3.97L14.0944 4.65C14.0944 4.86333 14.1211 5.13667 14.1744 5.47C14.2344 5.79667 14.2744 6.07 14.2944 6.29C14.3078 6.51 14.3411 6.81333 14.3944 7.2C14.4478 7.58667 14.4778 7.82667 14.4844 7.92C14.4844 8.1 14.5044 8.2 14.5444 8.22C14.6244 8.08 14.6878 7.93 14.7344 7.77ZM21.0644 4.8C21.1044 4.66 21.1011 4.48333 21.0544 4.27C20.9878 4.21 20.8978 4.18 20.7844 4.18C20.6444 4.18 20.5178 4.31333 20.4044 4.58C20.2578 4.8 20.1478 5.04667 20.0744 5.32H20.0544C19.9544 5.71333 19.9044 5.92333 19.9044 5.95C20.0511 5.98333 20.1711 6 20.2644 6C20.3578 5.99333 20.4678 5.94333 20.5944 5.85C20.8078 5.64333 20.9644 5.29333 21.0644 4.8ZM21.0244 6.82L20.5044 6.86C20.2178 6.86 19.9911 6.83 19.8244 6.77L19.8644 7.04C19.8911 7.81333 20.1044 8.32333 20.5044 8.57C20.6178 8.61667 20.7111 8.64 20.7844 8.64C20.8578 8.64 20.9578 8.6 21.0844 8.52C21.1178 8.48667 21.1478 8.43667 21.1744 8.37C21.1878 8.28333 21.2344 8.24667 21.3144 8.26C21.7011 7.77333 21.9911 7.58 22.1844 7.68C22.3844 7.81333 22.4844 7.91667 22.4844 7.99C22.4844 8.03 22.4611 8.07333 22.4144 8.12V8.2C22.4144 8.29333 22.3544 8.46333 22.2344 8.71C22.1211 8.95 21.9978 9.15333 21.8644 9.32C21.7978 9.46 21.7144 9.56 21.6144 9.62C21.3144 9.80667 20.9978 9.88 20.6644 9.84C20.5844 9.83333 20.5311 9.81333 20.5044 9.78C20.4311 9.76667 20.3744 9.76333 20.3344 9.77L20.2244 9.76C20.1444 9.76 20.0744 9.74 20.0144 9.7C19.9211 9.64667 19.8578 9.62 19.8244 9.62C19.5778 9.52667 19.4311 9.45667 19.3844 9.41C19.3311 9.36333 19.2844 9.33 19.2444 9.31C19.2111 9.29 19.1244 9.19 18.9844 9.01C18.8578 8.91 18.7878 8.84667 18.7744 8.82C18.7144 8.73333 18.6644 8.67333 18.6244 8.64C18.5844 8.6 18.5578 8.51333 18.5444 8.38C18.5111 8.33333 18.4944 8.27333 18.4944 8.2L18.4344 8.09C18.4344 8.02333 18.4078 7.97333 18.3544 7.94C18.2944 7.88 18.2644 7.81 18.2644 7.73V7.61C18.2311 7.59667 18.2211 7.54333 18.2344 7.45V7.08L18.2244 6.96V6.86C18.2178 6.82 18.2278 6.74 18.2544 6.62L18.2344 6.49C18.2478 6.48333 18.2644 6.41 18.2844 6.27C18.3178 6.07667 18.3578 5.95667 18.4044 5.91V5.78C18.4178 5.75333 18.4244 5.71667 18.4244 5.67C18.4244 5.62333 18.4344 5.57 18.4544 5.51C18.4811 5.45667 18.5544 5.24667 18.6744 4.88L18.8944 4.39C18.9611 4.25 19.0644 4.09667 19.2044 3.93C19.2111 3.88333 19.2478 3.8 19.3144 3.68L19.4944 3.51C19.5544 3.43 19.6411 3.37 19.7544 3.33C19.8811 3.26333 19.9778 3.23 20.0444 3.23L20.4344 3.18C20.4811 3.18667 20.5144 3.19 20.5344 3.19H20.7144C20.9211 3.21 21.0911 3.25333 21.2244 3.32C21.5044 3.4 21.7078 3.50667 21.8344 3.64C22.1278 3.96667 22.2744 4.28 22.2744 4.58C22.2744 4.87333 22.2278 5.13 22.1344 5.35C21.9011 5.87667 21.7311 6.21 21.6244 6.35C21.4578 6.66333 21.2578 6.82 21.0244 6.82ZM26.2644 5.26C26.2511 5.05333 26.2044 4.89667 26.1244 4.79C26.0378 4.68333 25.8811 4.62 25.6544 4.6C25.5944 4.64667 25.5111 4.80333 25.4044 5.07C25.2911 5.33667 25.2211 5.62 25.1944 5.92C25.1011 6.36667 25.0544 6.81333 25.0544 7.26C25.0678 7.72 25.1444 8.05667 25.2844 8.27C25.2978 8.31 25.3144 8.32333 25.3344 8.31C25.3811 8.31 25.4578 8.21667 25.5644 8.03C26.0578 7.13667 26.2911 6.21333 26.2644 5.26ZM26.6944 7.94L26.4844 8.48C26.4844 8.5 26.3478 8.7 26.0744 9.08C25.9944 9.26 25.8411 9.36 25.6144 9.38C25.3811 9.4 25.1578 9.37667 24.9444 9.31C24.6578 9.20333 24.4378 9.08 24.2844 8.94C24.1378 8.8 23.9911 8.56667 23.8444 8.24C23.6978 7.90667 23.6211 7.63333 23.6144 7.42C23.5678 7.11333 23.5444 6.91667 23.5444 6.83V6.49C23.5444 6.15667 23.5578 5.96333 23.5844 5.91C23.5978 5.87 23.6211 5.77 23.6544 5.61C23.7011 5.21667 23.8144 4.84333 23.9944 4.49C24.3411 3.81 24.6944 3.46 25.0544 3.44H25.1244C25.1444 3.45333 25.1744 3.46 25.2144 3.46H25.3944C25.7211 3.48667 25.9211 3.51333 25.9944 3.54C26.1344 3.58 26.2544 3.6 26.3544 3.6L26.7244 3.67C26.8378 3.65667 26.9844 3.68 27.1644 3.74C27.3444 3.79333 27.4411 3.83333 27.4544 3.86C27.4678 3.88667 27.4944 3.99 27.5344 4.17C27.5744 4.35 27.6011 4.47667 27.6144 4.55C27.6278 4.63 27.6378 4.71333 27.6444 4.8C27.7178 5.48 27.8411 6.11333 28.0144 6.7C28.0211 6.73333 28.0278 6.77667 28.0344 6.83C28.0478 6.88333 28.0811 6.99333 28.1344 7.16C28.1944 7.32 28.2378 7.45667 28.2644 7.57C28.2911 7.68333 28.3411 7.83333 28.4144 8.02C28.4744 8.16 28.5578 8.32333 28.6644 8.51C28.8711 8.79667 28.7644 9.02 28.3444 9.18C28.2911 9.2 28.1944 9.21 28.0544 9.21C28.0278 9.21 27.9378 9.16333 27.7844 9.07C27.6911 9.07 27.6044 9.02 27.5244 8.92L27.4044 8.89C27.3444 8.82333 27.2911 8.79 27.2444 8.79C27.2244 8.77 27.0544 8.39333 26.7344 7.66C26.7078 7.76 26.6944 7.85333 26.6944 7.94ZM30.5544 4.34L30.5744 4.21C30.3744 4.19 30.2344 4.17333 30.1544 4.16C30.0811 4.14667 29.9544 4.13 29.7744 4.11C29.5944 4.09667 29.4544 4.07 29.3544 4.03C29.1611 3.96333 29.0478 3.79333 29.0144 3.52C28.9878 3.24667 29.0778 3.07667 29.2844 3.01C29.4711 2.96333 29.6011 2.94 29.6744 2.94C29.7478 2.94 29.8878 2.93 30.0944 2.91C30.2011 2.85667 30.3411 2.82333 30.5144 2.81L30.7244 2.76C30.7244 2.76667 30.7611 2.75667 30.8344 2.73L30.9044 2.43C30.9044 2.28333 30.9478 2.13667 31.0344 1.99C31.0344 1.92333 31.0944 1.74 31.2144 1.44C31.2144 1.4 31.2978 1.13 31.4644 0.63C31.5044 0.583333 31.6444 0.476667 31.8844 0.31C32.0378 0.23 32.2478 0.28 32.5144 0.46C32.6678 0.526667 32.7711 0.616667 32.8244 0.73C32.7711 0.783333 32.7444 0.913334 32.7444 1.12C32.7311 1.18667 32.6644 1.53 32.5444 2.15V2.55C32.6178 2.55667 32.7411 2.58 32.9144 2.62C33.0878 2.65333 33.2978 2.69333 33.5444 2.74C34.0111 2.83333 34.3044 3.02 34.4244 3.3C34.4711 3.50667 34.4611 3.65333 34.3944 3.74C34.3278 3.82 34.1678 3.88 33.9144 3.92C33.7144 3.92667 33.4478 3.93 33.1144 3.93C32.7811 3.93 32.5344 3.95333 32.3744 4C32.3611 4.16667 32.3544 4.29667 32.3544 4.39L32.3344 4.6C32.3344 4.66667 32.2944 5.01333 32.2144 5.64C32.1544 5.72667 32.1078 6.16 32.0744 6.94V7.96C32.0744 8.13333 32.0878 8.29333 32.1144 8.44C32.1211 8.64667 32.1444 8.79 32.1844 8.87C32.1844 8.95667 32.2078 9.13667 32.2544 9.41C32.1411 9.67667 31.9544 9.81 31.6944 9.81C31.4411 9.81 31.2178 9.71667 31.0244 9.53L30.8644 9.31C30.8378 9.23667 30.8178 9.18333 30.8044 9.15C30.7911 9.12333 30.7778 9.09333 30.7644 9.06C30.7044 8.87333 30.6544 8.75667 30.6144 8.71C30.5611 8.63 30.5344 8.57333 30.5344 8.54C30.5344 8.5 30.5344 8.45333 30.5344 8.4C30.5144 8.24 30.4911 8.10333 30.4644 7.99C30.4178 7.94333 30.3944 7.78667 30.3944 7.52C30.4078 7.02 30.4078 6.73333 30.3944 6.66C30.4211 6.63333 30.4244 6.45667 30.4044 6.13L30.4444 5.82C30.4444 5.78667 30.4644 5.64667 30.5044 5.4C30.4844 5.36667 30.4778 5.26667 30.4844 5.1C30.4978 4.94 30.5144 4.82667 30.5344 4.76C30.5478 4.64667 30.5544 4.50667 30.5544 4.34ZM40.7744 3.61L40.8744 3.48L41.1044 3.01C41.1511 2.87667 41.1711 2.77333 41.1644 2.7C41.1578 2.62667 41.1544 2.56667 41.1544 2.52C41.1544 2.47333 41.1511 2.41333 41.1444 2.34C41.1311 2.27333 41.1011 2.20333 41.0544 2.13C41.0011 2.06333 40.9478 2.01667 40.8944 1.99C40.8478 1.97 40.7544 1.93 40.6144 1.87L40.3044 1.86C40.0244 1.80667 39.7844 1.83 39.5844 1.93C39.5844 2.13667 39.5344 2.56667 39.4344 3.22L39.3544 4.18L39.2844 4.69C39.3444 4.69 39.5111 4.63667 39.7844 4.53L39.9844 4.37C40.0178 4.35667 40.1344 4.25333 40.3344 4.06C40.3811 4.04 40.4311 3.99333 40.4844 3.92L40.6244 3.75C40.6511 3.75667 40.7011 3.71 40.7744 3.61ZM39.2544 7.22L39.2844 7.56C39.3178 7.64 39.3178 7.76 39.2844 7.92C39.2444 8.08 39.2378 8.20333 39.2644 8.29C39.2644 8.44333 39.2711 8.53667 39.2844 8.57C39.3644 8.57 39.4911 8.53 39.6644 8.45C39.8378 8.37667 39.9478 8.33667 39.9944 8.33C40.0411 8.31667 40.1011 8.28 40.1744 8.22C40.4078 8.09333 40.6511 7.95333 40.9044 7.8L41.2244 7.5C41.4978 7.17333 41.6844 6.93667 41.7844 6.79L41.8744 6.54C41.9944 6.27333 41.8778 6.02333 41.5244 5.79C41.4444 5.68333 41.2878 5.61 41.0544 5.57H41.0444C40.7178 5.47667 40.5278 5.44 40.4744 5.46L39.8544 5.6C39.7411 5.65333 39.6411 5.68 39.5544 5.68C39.4678 5.68 39.3711 5.64 39.2644 5.56L39.2844 5.95C39.2178 6.12333 39.1978 6.29667 39.2244 6.47C39.2644 6.63667 39.2744 6.88667 39.2544 7.22ZM39.8644 9.71H39.7444C39.6511 9.73 39.4678 9.71667 39.1944 9.67C38.7211 9.59667 38.3378 9.44667 38.0444 9.22C37.9644 9.14667 37.8711 9.04667 37.7644 8.92C37.6578 8.79333 37.6044 8.70667 37.6044 8.66C37.6044 8.61333 37.6044 8.55333 37.6044 8.48C37.6111 8.40667 37.6044 8.33333 37.5844 8.26V8.15C37.5578 8.09 37.5644 7.98667 37.6044 7.84C37.6378 7.7 37.6444 7.58333 37.6244 7.49C37.6111 7.37 37.5978 7.24 37.5844 7.1C37.5578 7.06 37.5711 6.95667 37.6244 6.79C37.7044 5.53 37.7444 4.84 37.7444 4.72L37.8144 4.3C37.7678 4.02 37.7744 3.77667 37.8344 3.57V3.26C37.8278 3.12667 37.8678 2.75 37.9544 2.13C37.9144 2.01667 37.7878 1.87 37.5744 1.69C37.5278 1.64333 37.4811 1.57333 37.4344 1.48C37.3878 1.38 37.4044 1.22333 37.4844 1.01C37.5444 0.93 37.7078 0.806667 37.9744 0.64C37.9944 0.586667 38.2478 0.48 38.7344 0.32L39.0044 0.21C39.1311 0.163333 39.3911 0.143333 39.7844 0.15C39.9978 0.176667 40.1711 0.22 40.3044 0.28C40.7778 0.513334 41.2144 0.78 41.6144 1.08C41.7411 1.13333 41.8278 1.20667 41.8744 1.3C42.0411 1.41333 42.1944 1.59333 42.3344 1.84C42.4811 2.08667 42.5644 2.24333 42.5844 2.31C42.6311 2.61 42.5844 2.97 42.4444 3.39C42.3778 3.60333 42.0711 4.05 41.5244 4.73C41.6178 4.75667 41.7744 4.83667 41.9944 4.97C42.0211 5.00333 42.1211 5.06667 42.2944 5.16C42.3078 5.19333 42.3311 5.22667 42.3644 5.26C42.3978 5.3 42.4244 5.33333 42.4444 5.36L42.5544 5.43L42.6944 5.64L42.9044 5.82C42.9978 5.91333 43.0744 6.01667 43.1344 6.13C43.2744 6.26333 43.3478 6.37 43.3544 6.45L43.3844 6.72C43.3711 6.82 43.2311 7.15667 42.9644 7.73C42.8578 7.93 42.7278 8.08667 42.5744 8.2L42.3644 8.45C42.3044 8.53 42.1978 8.62333 42.0444 8.73C41.8911 8.84333 41.7644 8.95333 41.6644 9.06C41.6178 9.07333 41.5444 9.11333 41.4444 9.18C41.3444 9.24667 41.1978 9.32667 41.0044 9.42C40.8178 9.51333 40.6911 9.57 40.6244 9.59C40.4378 9.64333 40.1844 9.68333 39.8644 9.71ZM44.4144 5.89L44.2944 5.15C44.2944 5.06333 44.2844 4.96667 44.2644 4.86V4.76C44.2711 4.69333 44.2678 4.62333 44.2544 4.55C44.2544 4.45667 44.2611 4.37333 44.2744 4.3C44.2744 4.11333 44.2978 3.99 44.3444 3.93C44.3444 3.88333 44.4111 3.77667 44.5444 3.61C44.5844 3.57 44.6544 3.51 44.7544 3.43C44.9011 3.38333 45.0044 3.35333 45.0644 3.34C45.0978 3.30667 45.2244 3.32333 45.4444 3.39C45.5378 3.39667 45.6811 3.42667 45.8744 3.48C45.9411 3.5 46.0244 3.57667 46.1244 3.71C46.1044 3.74333 46.0744 3.88 46.0344 4.12C45.9944 4.36 45.9778 4.55333 45.9844 4.7C46.0444 4.65333 46.1444 4.55667 46.2844 4.41C46.4244 4.25667 46.4978 4.17667 46.5044 4.17C46.7444 4.05667 46.9811 3.97667 47.2144 3.93C47.5544 3.90333 47.7744 3.92667 47.8744 4C47.9611 4.02667 48.0278 4.07 48.0744 4.13C48.1544 4.20333 48.2244 4.33 48.2844 4.51C48.3378 4.69667 48.3311 4.81333 48.2644 4.86C48.2111 4.90667 48.0244 4.94333 47.7044 4.97C47.6911 4.97 47.6278 5.00667 47.5144 5.08L46.7844 5.65C46.6378 5.73 46.5344 5.79667 46.4744 5.85L46.2144 6.34C46.2011 6.36 46.1911 6.48 46.1844 6.7C46.1711 6.92667 46.1711 7.09 46.1844 7.19C46.1911 7.28333 46.1911 7.59667 46.1844 8.13V8.73C46.1844 9.05667 46.1778 9.24667 46.1644 9.3C46.1578 9.35333 46.1211 9.44333 46.0544 9.57C46.0278 9.61667 45.9411 9.64 45.7944 9.64C45.4278 9.91333 45.1944 9.9 45.0944 9.6L44.9044 9.49C44.8311 9.45 44.7844 9.40333 44.7644 9.35C44.6911 9.25 44.6544 9.19 44.6544 9.17L44.6044 8.97L44.5144 8.8C44.4878 8.79333 44.4644 8.61333 44.4444 8.26C44.4244 7.91333 44.4144 7.7 44.4144 7.62C44.4144 7.54 44.4078 7.45333 44.3944 7.36C44.4544 7.29333 44.4844 7.18333 44.4844 7.03C44.4778 6.87 44.4644 6.74667 44.4444 6.66C44.4244 6.56667 44.4244 6.51 44.4444 6.49C44.4644 6.46333 44.4611 6.33333 44.4344 6.1C44.4078 6.06667 44.4011 5.99667 44.4144 5.89ZM53.3744 5.4L53.3944 5.67C53.3944 5.69667 53.4211 5.99 53.4744 6.55V6.72C53.4744 6.94 53.5111 7.27667 53.5844 7.73C53.5844 7.92333 53.6844 8.26333 53.8844 8.75C53.9311 8.77667 53.9644 8.84 53.9844 8.94L53.9644 9.08C53.9844 9.12667 53.9611 9.18 53.8944 9.24C53.8944 9.30667 53.8078 9.34 53.6344 9.34C53.4544 9.34 53.3411 9.34667 53.2944 9.36C53.2478 9.38 53.1744 9.37333 53.0744 9.34C53.0344 9.35333 52.9211 9.31333 52.7344 9.22C52.6478 9.20667 52.5811 9.12333 52.5344 8.97L52.4244 8.71C52.4244 8.53667 52.3778 8.38667 52.2844 8.26C52.2844 8.21333 52.2644 8.13 52.2244 8.01C52.1844 7.88333 52.1544 7.81667 52.1344 7.81C52.0411 8.18333 51.9244 8.47333 51.7844 8.68C51.7844 8.72667 51.7544 8.78333 51.6944 8.85L51.5544 9.11C51.5544 9.13 51.5144 9.18333 51.4344 9.27C51.3744 9.39 51.2478 9.45 51.0544 9.45C50.8744 9.45 50.6611 9.40333 50.4144 9.31C50.3478 9.29667 50.2144 9.25333 50.0144 9.18C49.9611 9.19333 49.8744 9.17667 49.7544 9.13C49.6411 9.09 49.5744 9.07 49.5544 9.07C49.5278 9.04333 49.4644 8.99667 49.3644 8.93L49.1244 8.68C49.1111 8.66667 49.0944 8.62333 49.0744 8.55C49.0478 8.47 49.0411 8.41333 49.0544 8.38C49.0611 8.34667 49.0611 8.29667 49.0544 8.23C49.0411 8.16333 49.0444 8.09667 49.0644 8.03C49.0644 7.84333 49.0844 7.64 49.1244 7.42C49.1111 7.39333 49.1044 7.36 49.1044 7.32C49.1044 7.28 49.1244 7.21 49.1644 7.11C49.1578 7.06333 49.1544 7.03 49.1544 7.01L49.2244 6.47C49.2244 6.33667 49.2278 6.24333 49.2344 6.19V5.98C49.2411 5.94 49.2444 5.88667 49.2444 5.82L49.3144 5.15C49.3144 5.05 49.3211 4.98333 49.3344 4.95V4.81C49.3544 4.79667 49.3644 4.72333 49.3644 4.59L49.4844 4.2L49.5844 4.03C49.5911 3.99 49.6411 3.94667 49.7344 3.9C49.8878 3.80667 50.1044 3.76 50.3844 3.76C50.4978 3.78 50.6178 3.82667 50.7444 3.9C50.7711 3.89333 50.8378 3.91333 50.9444 3.96C51.1311 4.04667 51.1411 4.28333 50.9744 4.67C50.9344 4.92333 50.9144 5.05667 50.9144 5.07C50.8744 5.14333 50.8544 5.20333 50.8544 5.25C50.8011 5.55 50.7744 5.70667 50.7744 5.72C50.8144 5.68667 50.8011 5.74333 50.7344 5.89L50.6744 6.41C50.6078 6.63667 50.5811 6.88333 50.5944 7.15L50.5344 7.33C50.5478 7.37667 50.5444 7.52333 50.5244 7.77C50.5444 7.79667 50.5544 7.83 50.5544 7.87L50.5644 7.98C50.5578 8.00667 50.5611 8.03333 50.5744 8.06C50.5944 8.08 50.6478 8.08667 50.7344 8.08C50.8278 8.08 50.9078 8.06 50.9744 8.02C51.1011 7.86 51.1878 7.69333 51.2344 7.52C51.2811 7.34667 51.3044 7.24667 51.3044 7.22C51.4644 6.82 51.5644 6.58667 51.6044 6.52C51.6511 6.26667 51.7278 5.97667 51.8344 5.65C51.8211 5.60333 51.8211 5.51 51.8344 5.37L52.0244 4.63C52.1044 4.49 52.1444 4.40333 52.1444 4.37C52.1444 4.33667 52.2011 4.21 52.3144 3.99C52.3144 3.95 52.3411 3.87333 52.3944 3.76C52.4611 3.66 52.5778 3.56333 52.7444 3.47H52.7944C52.9944 3.45 53.1711 3.47667 53.3244 3.55C53.3444 3.59 53.3544 3.65667 53.3544 3.75C53.3678 3.84333 53.3844 4.01 53.4044 4.25V4.39L53.3544 4.7C53.4278 4.93333 53.4344 5.16667 53.3744 5.4ZM55.4944 3.85C55.7478 3.54333 56.0911 3.38 56.5244 3.36C57.2444 3.33333 57.7811 3.51 58.1344 3.89C58.4811 4.27 58.6678 4.64667 58.6944 5.02C58.7144 5.39333 58.6178 5.59667 58.4044 5.63C58.0978 5.63667 57.8978 5.59333 57.8044 5.5C57.7178 5.50667 57.6111 5.44667 57.4844 5.32C57.4244 5.29333 57.3478 5.18667 57.2544 5L57.1044 4.65C57.0311 4.47667 56.9378 4.38333 56.8244 4.37C56.6844 4.42333 56.6144 4.56333 56.6144 4.79C56.6478 5.22333 56.8578 5.64333 57.2444 6.05C57.2444 6.05 57.2511 6.06 57.2644 6.08C57.2778 6.10667 57.3444 6.18333 57.4644 6.31C58.2044 7.12333 58.5878 7.77667 58.6144 8.27C58.6144 8.59 58.5478 8.8 58.4144 8.9C58.0144 9.38 57.4944 9.62667 56.8544 9.64C56.2078 9.66 55.6744 9.46 55.2544 9.04C55.1411 8.92667 55.0844 8.82 55.0844 8.72C55.0311 8.54 55.0144 8.42333 55.0344 8.37C55.0011 8.11 55.0011 7.91333 55.0344 7.78C55.0878 7.48 55.3044 7.32667 55.6844 7.32C55.8244 7.32 55.9144 7.40333 55.9544 7.57C56.0744 8.05 56.1878 8.36333 56.2944 8.51C56.4011 8.65667 56.5778 8.72667 56.8244 8.72C57.1311 8.7 57.2778 8.52667 57.2644 8.2C57.2511 7.87333 57.0944 7.57 56.7944 7.29C56.7011 7.17667 56.6111 7.09 56.5244 7.03C56.4311 6.97 56.3711 6.92667 56.3444 6.9C56.3378 6.87333 56.3144 6.84667 56.2744 6.82C56.0878 6.66667 55.8511 6.41667 55.5644 6.07C55.2844 5.73 55.1344 5.41 55.1144 5.11C55.0744 4.57667 55.2011 4.15667 55.4944 3.85ZM61.4944 3.83L61.3444 5.74L61.4244 5.54C61.4644 5.46 61.6011 5.26333 61.8344 4.95C61.8344 4.92333 61.9778 4.67667 62.2644 4.21L62.5044 3.93L62.6344 3.74C62.8078 3.6 62.9578 3.53 63.0844 3.53C63.3311 3.49 63.6011 3.56333 63.8944 3.75C63.9611 3.75667 64.0444 3.82667 64.1444 3.96C64.3044 4.08 64.3744 4.25333 64.3544 4.48C64.3544 4.5 64.3511 4.52667 64.3444 4.56C64.1644 6.02 64.0711 7.04 64.0644 7.62C64.0511 8.20667 64.0978 8.69333 64.2044 9.08C64.2778 9.40667 64.1544 9.63667 63.8344 9.77C63.7544 9.82333 63.6244 9.83333 63.4444 9.8C63.2844 9.8 63.1644 9.77667 63.0844 9.73C63.0044 9.69 62.9244 9.59667 62.8444 9.45L62.7744 9.17C62.7344 9.09667 62.7144 8.99333 62.7144 8.86L62.6644 8.45C62.6711 8.43667 62.6744 8.31667 62.6744 8.09L62.6844 7.73C62.6578 7.59667 62.6644 7.34 62.7044 6.96L62.7344 6.35V6C62.7411 5.97333 62.7111 5.91 62.6444 5.81C62.4044 5.99667 62.1344 6.62 61.8344 7.68L61.4744 8.8C61.3011 9.4 61.1178 9.72333 60.9244 9.77L60.7744 9.8C60.6411 9.8 60.4611 9.76333 60.2344 9.69C60.0611 9.49 59.9744 9.29333 59.9744 9.1C59.9944 9.06 59.9978 9.01667 59.9844 8.97C59.9578 8.85 59.9678 8.68333 60.0144 8.47C60.0078 8.44333 60.0044 8.40667 60.0044 8.36L60.0144 8.15C59.9944 8.10333 59.9744 7.97 59.9544 7.75C59.9411 7.53 59.9411 7.36333 59.9544 7.25C59.9411 7.21 59.9711 7.08333 60.0444 6.87C59.9711 6.75667 59.9278 6.63 59.9144 6.49C59.8811 6.11 59.8711 5.82333 59.8844 5.63C59.8978 5.44333 59.9044 5.26333 59.9044 5.09C59.8844 4.92333 59.8778 4.72333 59.8844 4.49L59.9844 3.36L60.0844 2.55C60.0844 2.48333 60.0644 2.38 60.0244 2.24C59.9778 2.10667 59.9644 1.94667 59.9844 1.76C60.0044 1.57333 60.0244 1.45667 60.0444 1.41C60.0711 1.35667 60.1078 1.21667 60.1544 0.99C60.1544 0.803334 60.1744 0.663334 60.2144 0.57L60.2944 0.32C60.3011 0.253334 60.4211 0.146667 60.6544 0H60.8144C61.1744 0.0266667 61.4411 0.086667 61.6144 0.18C61.6878 0.226667 61.7044 0.39 61.6644 0.67C61.6444 1.06333 61.6311 1.30667 61.6244 1.4C61.6178 1.49333 61.5944 1.9 61.5544 2.62C61.5144 3.33333 61.4944 3.73667 61.4944 3.83Z" fill="black"/>
</svg>
