<svg width="84" height="10" viewBox="0 0 84 10" fill="none" xmlns="http://www.w3.org/2000/svg">
<path d="M2.04 10L0.5 8.46V1.74L2.04 0.2H6.24L7.72 1.68V2.58H6.66V2.03L5.76 1.15H2.52L1.56 2.09V8.11L2.52 9.05H5.76L6.66 8.17V7.62H7.72V8.52L6.24 10H2.04ZM9.4 10V0H10.44V4.48L11.9 3.03H14.07L15.35 4.32V10H14.32V4.64L13.62 3.95H12.18L10.44 5.69V10H9.4ZM18.32 10L17.17 8.85V7.07L18.32 5.94H22.05V4.61L21.35 3.92H18.97L18.27 4.61V5.18H17.23V4.32L18.52 3.03H21.78L23.07 4.32V10H22.07V8.77L20.79 10H18.32ZM18.77 9.1H20.58L22.05 7.69V6.84H18.77L18.21 7.38V8.56L18.77 9.1ZM25.1 10V0H26.13V5.91H27.77L29.82 3.03H30.96L28.61 6.39L31.1 10H29.96L27.77 6.84H26.13V10H25.1ZM32.43 10V3.03H33.44V4.27L34.69 3.03H36.49V3.95H34.95L33.47 5.44V10H32.43ZM38.41 10L37.26 8.85V7.07L38.41 5.94H42.14V4.61L41.44 3.92H39.06L38.36 4.61V5.18H37.32V4.32L38.61 3.03H41.87L43.16 4.32V10H42.16V8.77L40.88 10H38.41ZM38.86 9.1H40.67L42.14 7.69V6.84H38.86L38.3 7.38V8.56L38.86 9.1ZM48.67 10V0.2H54.27L55.56 1.49V4.64L54.26 5.94H49.74V10H48.67ZM49.74 5.02H53.81L54.51 4.33V1.81L53.81 1.12H49.74V5.02ZM58.11 10L56.82 8.71V4.32L58.11 3.03H61.62L62.93 4.32V6.82H57.86V8.39L58.56 9.08H61.18L61.88 8.39V7.86H62.91V8.71L61.62 10H58.11ZM57.86 5.93H61.89V4.64L61.19 3.95H58.56L57.86 4.64V5.93ZM66.73 10L65.45 8.71V3.94H64.19V3.03H65.47V0.76H66.48V3.03H68.67V3.94H66.48V8.39L67.18 9.09H68.67V10H66.73ZM71.21 10L69.93 8.71V4.32L71.21 3.03H74.57L75.86 4.32V5.17H74.83V4.64L74.13 3.95H71.66L70.96 4.64V8.39L71.66 9.08H74.13L74.83 8.39V7.86H75.86V8.71L74.57 10H71.21ZM77.54 10V0H78.58V4.48L80.03 3.03H82.2L83.49 4.32V10H82.46V4.64L81.76 3.95H80.31L78.58 5.69V10H77.54Z" fill="black"/>
</svg>
