<svg width="85.862" height="18.2" viewBox="0 0 85.862 18.2" xmlns="http://www.w3.org/2000/svg"><path transform="translate(0 13.888) scale(.014 -.014)" d="m70 110v480l110 110h300l106-106v-64h-76v39l-64 63h-232l-68-67v-430l68-67h232l64 63v39h76v-64l-106-106h-300z"/><path transform="translate(8.834 13.888) scale(.014 -.014)" d="M75 714H149V394L253 498H408L500 406V0H426V383L376 432H273L149 308V0H75Z"/><path transform="translate(16.814 13.888) scale(.014 -.014)" d="m60 82v127l82 81h266v95l-50 49h-170l-50-49v-41h-74v62l92 92h233l92-92v-406h-71v88l-92-88h-176zm243-18 105 101v61h-234l-40-39v-84l40-39z"/><path transform="translate(24.528 13.888) scale(.014 -.014)" d="M75 714H149V292H266L412 498H494L326 258L504 0H422L266 226H149V0H75Z"/><path transform="translate(31.864 13.888) scale(.014 -.014)" d="M75 498H147V409L236 498H365V432H255L149 326V0H75Z"/><path transform="translate(37.254 13.888) scale(.014 -.014)" d="m60 82v127l82 81h266v95l-50 49h-170l-50-49v-41h-74v62l92 92h233l92-92v-406h-71v88l-92-88h-176zm243-18 105 101v61h-234l-40-39v-84l40-39z"/><path transform="translate(48.384 13.888) scale(.014 -.014)" d="M80 700H480L572 608V383L479 290H156V0H80ZM447 356 497 405V585L447 634H156V356Z"/><path transform="translate(57.092 13.888) scale(.014 -.014)" d="m65 92v314l92 92h251l93-92v-179h-362v-112l50-49h187l50 49v38h74v-61l-92-92h-251zm362 199v92l-50 49h-188l-50-49v-92z"/><path transform="translate(64.946 13.888) scale(.014 -.014)" d="M120 92V433H30V498H122V660H194V498H350V433H194V115L244 65H350V0H212Z"/><path transform="translate(70.406 13.888) scale(.014 -.014)" d="m65 92v314l92 92h240l92-92v-61h-74v38l-50 49h-176l-50-49v-268l50-49h176l50 49v38h74v-61l-92-92h-240z"/><path transform="translate(77.882 13.888) scale(.014 -.014)" d="M75 714H149V394L253 498H408L500 406V0H426V383L376 432H273L149 308V0H75Z"/></svg>