<svg width="27" height="6" viewBox="0 0 27 6" fill="none" xmlns="http://www.w3.org/2000/svg">
<path d="M2.63 5.67H1.64C1.27333 5.67 0.993333 5.56 0.8 5.34C0.6 5.12 0.5 4.8 0.5 4.38V1.3C0.5 0.906667 0.6 0.593333 0.8 0.36C1 0.126666 1.28 0.0100002 1.64 0.0100002H2.63C2.98333 0.0100002 3.26 0.126666 3.46 0.36C3.66 0.593333 3.76 0.906667 3.76 1.3V1.68C3.76 1.74667 3.74667 1.80333 3.72 1.85C3.69333 1.89667 3.64667 1.92 3.58 1.92H3.48C3.36 1.92 3.3 1.84 3.3 1.68V1.3C3.3 0.78 3.07667 0.52 2.63 0.52H1.64C1.2 0.52 0.98 0.78 0.98 1.3V4.37C0.98 4.90333 1.2 5.17 1.64 5.17H2.63C3.07667 5.17 3.3 4.90333 3.3 4.37V3.99C3.3 3.85 3.36 3.78 3.48 3.78H3.58C3.64 3.78 3.68333 3.80333 3.71 3.85C3.74333 3.89667 3.76 3.94333 3.76 3.99V4.38C3.76 4.8 3.66333 5.12 3.47 5.34C3.27667 5.56 2.99667 5.67 2.63 5.67ZM7.28 5.67H7.18C7.08667 5.67 7.04 5.61 7.04 5.49V2.66C7.04 2.17333 6.83333 1.93 6.42 1.93H5.92C5.48 1.93 5.26 2.16333 5.26 2.63V5.49C5.26 5.61 5.21 5.67 5.11 5.67H5.01C4.96333 5.67 4.92667 5.65 4.9 5.61C4.88 5.57667 4.87 5.53667 4.87 5.49V0.18C4.87 0.0600003 4.91667 0 5.01 0H5.11C5.21 0 5.26 0.0600003 5.26 0.18V1.67C5.4 1.59 5.52333 1.54 5.63 1.52C5.73667 1.49333 5.83333 1.48 5.92 1.48H6.42C6.73333 1.48 6.98333 1.58333 7.17 1.79C7.35667 1.99 7.45 2.28 7.45 2.66V5.49C7.45 5.61 7.39333 5.67 7.28 5.67ZM10.85 5.67H10.76C10.7 5.67 10.64 5.61 10.58 5.49C10.3267 5.61 10.1167 5.67 9.95 5.67H9.45C9.13 5.67 8.88333 5.56667 8.71 5.36C8.53 5.15333 8.44 4.87333 8.44 4.52V2.7C8.44 2.34667 8.53 2.06667 8.71 1.86C8.88333 1.65333 9.13 1.55 9.45 1.55H10.85C10.9633 1.55 11.02 1.60667 11.02 1.72V5.49C11.02 5.61 10.9633 5.67 10.85 5.67ZM10.64 2.58V2.39C10.64 2.35667 10.63 2.30333 10.61 2.23C10.59 2.16333 10.5567 2.11 10.51 2.07C10.4633 2.03667 10.39 2.01 10.29 1.99H9.45C9.03667 1.99 8.83 2.22667 8.83 2.7V4.51C8.83 4.99667 9.03667 5.24 9.45 5.24H9.94C10.3933 5.24 10.62 5.01 10.62 4.55C10.62 3.91667 10.6233 3.45333 10.63 3.16C10.6367 2.87333 10.64 2.68 10.64 2.58ZM13.66 5.67H13.42C13.1133 5.67 12.8667 5.56667 12.68 5.36C12.4933 5.15333 12.4 4.87333 12.4 4.52V1.96H12.01C11.9167 1.96 11.87 1.90333 11.87 1.79V1.69C11.87 1.57 11.9167 1.51 12.01 1.51H12.4V0.97C12.4 0.923334 12.4133 0.876667 12.44 0.83C12.4733 0.79 12.5133 0.77 12.56 0.77H12.65C12.6967 0.77 12.7333 0.79 12.76 0.83C12.78 0.876667 12.79 0.923334 12.79 0.97V1.51H13.59C13.6967 1.51 13.75 1.57 13.75 1.69V1.79C13.75 1.85667 13.7333 1.9 13.7 1.92C13.6667 1.94667 13.63 1.96 13.59 1.96H12.79V4.52C12.79 4.98667 13 5.22 13.42 5.22H13.66C13.7667 5.22 13.82 5.27667 13.82 5.39V5.5C13.82 5.56667 13.8033 5.61 13.77 5.63C13.7367 5.65667 13.7 5.67 13.66 5.67ZM17.09 5.67H16.99C16.8967 5.67 16.85 5.61 16.85 5.49V2.66C16.85 2.17333 16.6467 1.93 16.24 1.93H15.73C15.2967 1.93 15.08 2.16333 15.08 2.63V5.49C15.08 5.61 15.0267 5.67 14.92 5.67H14.82C14.7733 5.67 14.74 5.65 14.72 5.61C14.6933 5.57667 14.68 5.53667 14.68 5.49V0.18C14.68 0.0600003 14.7267 0 14.82 0H14.92C15.0267 0 15.08 0.0600003 15.08 0.18V1.67C15.22 1.59 15.3433 1.54 15.45 1.52C15.5567 1.49333 15.65 1.48 15.73 1.48H16.24C16.5467 1.48 16.7933 1.58333 16.98 1.79C17.1667 1.99 17.26 2.28 17.26 2.66V5.49C17.26 5.61 17.2033 5.67 17.09 5.67ZM20.73 5.67H20.65C20.5833 5.67 20.5233 5.61 20.47 5.49C20.3433 5.55667 20.2333 5.60333 20.14 5.63C20.04 5.65667 19.9333 5.67 19.82 5.67H19.33C19.0233 5.67 18.7767 5.56667 18.59 5.36C18.4033 5.15333 18.31 4.87333 18.31 4.52V1.72C18.31 1.60667 18.36 1.55 18.46 1.55H18.58C18.6267 1.55 18.6633 1.56667 18.69 1.6C18.7167 1.63333 18.73 1.67333 18.73 1.72V4.51C18.73 4.99667 18.93 5.24 19.33 5.24H19.82C20.2667 5.24 20.49 5.01 20.49 4.55V1.72C20.49 1.60667 20.5433 1.55 20.65 1.55H20.73C20.7767 1.55 20.8133 1.56667 20.84 1.6C20.8733 1.63333 20.89 1.67333 20.89 1.72V5.49C20.89 5.61 20.8367 5.67 20.73 5.67ZM22.94 1.99H22.69C22.5033 1.99 22.36 2.06333 22.26 2.21C22.1533 2.35 22.1 2.53667 22.1 2.77V5.49C22.1 5.61 22.0533 5.67 21.96 5.67H21.88C21.8067 5.67 21.77 5.61 21.77 5.49V1.72C21.77 1.60667 21.8067 1.55 21.88 1.55H21.96C22 1.55 22.03 1.56 22.05 1.58C22.07 1.6 22.0967 1.65667 22.13 1.75C22.25 1.68333 22.35 1.63333 22.43 1.6C22.51 1.56667 22.6033 1.55 22.71 1.55H22.94C22.98 1.55 23.0133 1.56667 23.04 1.6C23.0667 1.63333 23.08 1.67333 23.08 1.72V1.82C23.08 1.93333 23.0333 1.99 22.94 1.99ZM26.32 5.67H26.23C26.17 5.67 26.11 5.61 26.05 5.49C25.7967 5.61 25.5867 5.67 25.42 5.67H24.92C24.6 5.67 24.3533 5.56667 24.18 5.36C24 5.15333 23.91 4.87333 23.91 4.52V2.7C23.91 2.34667 24 2.06667 24.18 1.86C24.3533 1.65333 24.6 1.55 24.92 1.55H26.32C26.4333 1.55 26.49 1.60667 26.49 1.72V5.49C26.49 5.61 26.4333 5.67 26.32 5.67ZM26.11 2.58V2.39C26.11 2.35667 26.1 2.30333 26.08 2.23C26.06 2.16333 26.0267 2.11 25.98 2.07C25.9333 2.03667 25.86 2.01 25.76 1.99H24.92C24.5067 1.99 24.3 2.22667 24.3 2.7V4.51C24.3 4.99667 24.5067 5.24 24.92 5.24H25.41C25.8633 5.24 26.09 5.01 26.09 4.55C26.09 3.91667 26.0933 3.45333 26.1 3.16C26.1067 2.87333 26.11 2.68 26.11 2.58Z" fill="black"/>
</svg>
