<svg width="155" height="14" viewBox="0 0 155 14" fill="none" xmlns="http://www.w3.org/2000/svg">
<path d="M10.27 4.61C10.4233 4.40333 10.5767 4.16 10.73 3.88C10.8767 3.6 10.95 3.32 10.95 3.04C10.95 2.72 10.8433 2.45667 10.63 2.25C10.4167 2.05 10.16 1.89 9.86 1.77C9.56 1.65 9.24333 1.56667 8.91 1.52C8.57667 1.47333 8.28667 1.45 8.04 1.45C7.44667 1.45 6.84667 1.56 6.24 1.78C5.64 2 5.09333 2.30667 4.6 2.7C4.10667 3.09333 3.70333 3.55667 3.39 4.09C3.07667 4.63 2.92 5.22 2.92 5.86C2.92 6.24 2.99 6.57667 3.13 6.87C3.27 7.16333 3.46 7.41333 3.7 7.62C3.94 7.82667 4.21667 8.00333 4.53 8.15C4.83667 8.29667 5.16333 8.41 5.51 8.49C5.85 8.57667 6.19333 8.63667 6.54 8.67C6.88667 8.71 7.21 8.73 7.51 8.73C8.25667 8.73 9 8.66667 9.74 8.54C10.48 8.40667 11.2133 8.24 11.94 8.04L12.47 9.47C12.0767 9.59667 11.6633 9.70333 11.23 9.79C10.8033 9.88333 10.3667 9.95667 9.92 10.01C9.48 10.0633 9.04 10.1067 8.6 10.14C8.15333 10.1667 7.72667 10.18 7.32 10.18C6.92 10.18 6.47 10.15 5.97 10.09C5.47667 10.0367 4.97667 9.95 4.47 9.83C3.97 9.70333 3.48 9.54 3 9.34C2.52667 9.14 2.10333 8.89 1.73 8.59C1.35667 8.29 1.05667 7.94 0.83 7.54C0.61 7.14 0.5 6.68 0.5 6.16C0.5 5.52667 0.62 4.93667 0.86 4.39C1.1 3.83667 1.42 3.33333 1.82 2.88C2.22 2.43333 2.69 2.03333 3.23 1.68C3.77 1.32667 4.33667 1.03 4.93 0.79C5.51667 0.55 6.11667 0.366667 6.73 0.24C7.34333 0.12 7.93 0.0599999 8.49 0.0599999C9.02333 0.0599999 9.56333 0.0999998 10.11 0.18C10.6633 0.266667 11.1667 0.423333 11.62 0.65C12.0667 0.883333 12.4333 1.20333 12.72 1.61C13.0133 2.01667 13.16 2.54667 13.16 3.2C13.16 3.44 13.14 3.67667 13.1 3.91C13.0667 4.15 13.0133 4.38333 12.94 4.61H10.27ZM19.17 3.63C19.57 3.63 19.95 3.68667 20.31 3.8C20.6633 3.91333 20.9733 4.08333 21.24 4.31C21.5133 4.53667 21.7267 4.81667 21.88 5.15C22.0333 5.47667 22.11 5.85333 22.11 6.28C22.11 6.38 22.1067 6.53333 22.1 6.74C22.1 6.95333 22.1 7.19 22.1 7.45C22.1 7.71 22.1 7.98 22.1 8.26C22.1 8.54667 22.1033 8.81333 22.11 9.06C22.1167 9.3 22.13 9.51333 22.15 9.7C22.17 9.88 22.1967 9.99667 22.23 10.05H19.9C20.0333 9.66333 20.14 9.24 20.22 8.78C20.3067 8.32667 20.35 7.89 20.35 7.47C20.35 7.13 20.3133 6.81 20.24 6.51C20.1733 6.21 20.06 5.95 19.9 5.73C19.74 5.50333 19.53 5.32667 19.27 5.2C19.01 5.07333 18.69 5.01 18.31 5.01C17.91 5.01 17.5233 5.11 17.15 5.31C16.7833 5.51 16.4733 5.76 16.22 6.06C16.2067 6.35333 16.2 6.64667 16.2 6.94C16.2 7.24 16.2 7.54 16.2 7.84C16.2 7.88667 16.2 7.97667 16.2 8.11C16.2 8.25 16.2 8.41 16.2 8.59C16.2 8.77 16.2067 8.96 16.22 9.16C16.2267 9.36667 16.2367 9.55667 16.25 9.73C16.2567 9.89667 16.27 10.0433 16.29 10.17C16.3033 10.29 16.3233 10.3667 16.35 10.4H13.93C13.97 10.3533 14.0067 10.1967 14.04 9.93C14.0733 9.66333 14.1033 9.34667 14.13 8.98C14.1633 8.61333 14.1933 8.21333 14.22 7.78C14.2467 7.34667 14.27 6.93667 14.29 6.55C14.31 6.16333 14.3267 5.82333 14.34 5.53C14.3533 5.23667 14.3633 5.04 14.37 4.94C14.3967 4.22667 14.41 3.50667 14.41 2.78C14.41 2.73333 14.41 2.64333 14.41 2.51C14.41 2.38333 14.41 2.23 14.41 2.05C14.4033 1.87 14.3967 1.68333 14.39 1.49C14.3767 1.29 14.3633 1.10667 14.35 0.94C14.33 0.773333 14.3033 0.63 14.27 0.51C14.2367 0.39 14.1967 0.323333 14.15 0.31L16.77 0.33C16.7233 0.33 16.6867 0.366667 16.66 0.44C16.6267 0.513333 16.6067 0.563334 16.6 0.59C16.5267 0.83 16.48 1.08 16.46 1.34C16.4333 1.6 16.4133 1.85333 16.4 2.1C16.36 2.48667 16.33 2.87667 16.31 3.27C16.2967 3.65667 16.28 4.04333 16.26 4.43C16.6667 4.14333 17.13 3.93667 17.65 3.81C18.17 3.69 18.6767 3.63 19.17 3.63ZM27.43 10.4C26.9833 10.4 26.51 10.34 26.01 10.22C25.51 10.1 25.0467 9.91333 24.62 9.66C24.1933 9.41333 23.8433 9.09667 23.57 8.71C23.29 8.33 23.15 7.87667 23.15 7.35C23.15 6.70333 23.2767 6.12333 23.53 5.61C23.79 5.09667 24.1333 4.66667 24.56 4.32C24.9867 3.96667 25.4833 3.69667 26.05 3.51C26.6167 3.32333 27.21 3.23 27.83 3.23C28.3167 3.23 28.7533 3.31 29.14 3.47C29.52 3.63 29.84 3.85333 30.1 4.14C30.3533 4.42667 30.5467 4.76667 30.68 5.16C30.8067 5.55333 30.87 5.98667 30.87 6.46C30.87 6.91333 30.8033 7.35 30.67 7.77H24.97C25.0567 8.04333 25.2 8.26667 25.4 8.44C25.5933 8.61333 25.8167 8.74667 26.07 8.84C26.3167 8.94 26.58 9.00667 26.86 9.04C27.14 9.08 27.4033 9.1 27.65 9.1C27.8033 9.1 28.01 9.08667 28.27 9.06C28.53 9.04 28.7967 9.00333 29.07 8.95C29.3433 8.90333 29.6 8.84333 29.84 8.77C30.08 8.69667 30.26 8.60333 30.38 8.49L31.05 9.67C30.45 9.89667 29.8567 10.0733 29.27 10.2C28.69 10.3333 28.0767 10.4 27.43 10.4ZM27.43 4.52C27.1567 4.52 26.8867 4.57333 26.62 4.68C26.3467 4.78667 26.1 4.93 25.88 5.11C25.6667 5.29 25.4767 5.5 25.31 5.74C25.1433 5.98 25.0233 6.22667 24.95 6.48H28.86C28.8933 6.20667 28.8967 5.95 28.87 5.71C28.85 5.47 28.79 5.26 28.69 5.08C28.59 4.90667 28.44 4.77 28.24 4.67C28.0333 4.57 27.7633 4.52 27.43 4.52ZM34.2 4.99C34.4133 4.81 34.6667 4.64 34.96 4.48C35.2467 4.31333 35.5467 4.16667 35.86 4.04C36.1733 3.92 36.49 3.82333 36.81 3.75C37.1367 3.67667 37.44 3.64 37.72 3.64V4.82C37.4333 4.82 37.11 4.88333 36.75 5.01C36.3967 5.13667 36.05 5.3 35.71 5.5C35.3633 5.7 35.0533 5.92667 34.78 6.18C34.5067 6.44 34.3067 6.7 34.18 6.96C34.18 7.02667 34.1833 7.14667 34.19 7.32C34.1967 7.49333 34.2 7.69333 34.2 7.92C34.2067 8.14667 34.2133 8.38667 34.22 8.64C34.2333 8.88667 34.25 9.12 34.27 9.34C34.2833 9.56 34.3 9.74667 34.32 9.9C34.34 10.06 34.3633 10.1567 34.39 10.19H32.17C32.21 10.17 32.2433 10.0733 32.27 9.9C32.2967 9.72 32.3167 9.50333 32.33 9.25C32.3433 8.99 32.3567 8.71333 32.37 8.42C32.3833 8.12667 32.3933 7.84333 32.4 7.57C32.4067 7.29 32.41 7.05 32.41 6.85C32.41 6.65 32.41 6.52 32.41 6.46C32.41 6.37333 32.41 6.2 32.41 5.94C32.41 5.67333 32.4033 5.39333 32.39 5.1C32.3833 4.81333 32.37 4.54333 32.35 4.29C32.33 4.03667 32.3033 3.88333 32.27 3.83H34.29C34.2767 3.88333 34.2633 3.96333 34.25 4.07C34.2433 4.17667 34.2333 4.29 34.22 4.41C34.2133 4.52333 34.2067 4.63667 34.2 4.75C34.2 4.85667 34.2 4.93667 34.2 4.99ZM40.24 4.99C40.46 4.81 40.7133 4.64 41 4.48C41.2867 4.31333 41.5867 4.16667 41.9 4.04C42.2133 3.92 42.5333 3.82333 42.86 3.75C43.18 3.67667 43.4833 3.64 43.77 3.64V4.82C43.4767 4.82 43.1533 4.88333 42.8 5.01C42.44 5.13667 42.09 5.3 41.75 5.5C41.41 5.7 41.1033 5.92667 40.83 6.18C40.5567 6.44 40.3567 6.7 40.23 6.96C40.23 7.02667 40.23 7.14667 40.23 7.32C40.2367 7.49333 40.2433 7.69333 40.25 7.92C40.25 8.14667 40.2567 8.38667 40.27 8.64C40.2767 8.88667 40.29 9.12 40.31 9.34C40.33 9.56 40.3467 9.74667 40.36 9.9C40.38 10.06 40.4033 10.1567 40.43 10.19H38.22C38.2533 10.17 38.2833 10.0733 38.31 9.9C38.3367 9.72 38.3567 9.50333 38.37 9.25C38.3833 8.99 38.3967 8.71333 38.41 8.42C38.4233 8.12667 38.4333 7.84333 38.44 7.57C38.4467 7.29 38.45 7.05 38.45 6.85C38.45 6.65 38.45 6.52 38.45 6.46C38.45 6.37333 38.45 6.2 38.45 5.94C38.45 5.67333 38.4433 5.39333 38.43 5.1C38.4233 4.81333 38.41 4.54333 38.39 4.29C38.3767 4.03667 38.35 3.88333 38.31 3.83H40.34C40.32 3.88333 40.3033 3.96333 40.29 4.07C40.2833 4.17667 40.2767 4.29 40.27 4.41C40.2567 4.52333 40.25 4.63667 40.25 4.75C40.2433 4.85667 40.24 4.93667 40.24 4.99ZM52.46 3.33C52.4267 3.38333 52.4 3.51 52.38 3.71C52.36 3.91 52.3467 4.12667 52.34 4.36C52.3333 4.59333 52.33 4.81667 52.33 5.03C52.33 5.24333 52.33 5.39 52.33 5.47C52.33 6.21667 52.3333 6.96333 52.34 7.71C52.3467 8.45 52.35 9.19 52.35 9.93C52.35 10.4967 52.2267 10.99 51.98 11.41C51.7267 11.8367 51.4 12.19 51 12.47C50.6 12.7433 50.15 12.95 49.65 13.09C49.1433 13.2233 48.64 13.29 48.14 13.29C47.5867 13.29 47.0333 13.2867 46.48 13.28C45.9267 13.2733 45.3767 13.2633 44.83 13.25L44.97 11.67C45.11 11.7233 45.3033 11.7733 45.55 11.82C45.8033 11.8733 46.0667 11.9167 46.34 11.95C46.6133 11.9767 46.8767 12 47.13 12.02C47.3833 12.04 47.5933 12.05 47.76 12.05C48.1867 12.05 48.57 12.0133 48.91 11.94C49.2433 11.8667 49.53 11.74 49.77 11.56C50.0033 11.3867 50.1867 11.1433 50.32 10.83C50.4467 10.5233 50.51 10.1367 50.51 9.67C50.51 9.59 50.5067 9.50667 50.5 9.42C50.4933 9.33333 50.4867 9.24667 50.48 9.16C50.1133 9.42667 49.7133 9.62333 49.28 9.75C48.84 9.87667 48.3967 9.94 47.95 9.94C47.2967 9.94 46.7533 9.84 46.32 9.64C45.8867 9.43333 45.54 9.15 45.28 8.79C45.0267 8.43 44.8467 8 44.74 7.5C44.64 7.00667 44.59 6.46667 44.59 5.88C44.59 5.6 44.5967 5.32 44.61 5.04C44.63 4.75333 44.64 4.47 44.64 4.19C44.64 4.06333 44.6333 3.92333 44.62 3.77C44.6067 3.62333 44.56 3.5 44.48 3.4L46.97 3.41C46.8967 3.53 46.83 3.70333 46.77 3.93C46.71 4.15667 46.66 4.39667 46.62 4.65C46.5867 4.91 46.56 5.16 46.54 5.4C46.5267 5.64 46.52 5.83333 46.52 5.98C46.52 6.34667 46.5433 6.68333 46.59 6.99C46.6433 7.30333 46.74 7.57333 46.88 7.8C47.0267 8.03333 47.2267 8.21667 47.48 8.35C47.7267 8.48333 48.0533 8.55 48.46 8.55C48.62 8.55 48.8067 8.53667 49.02 8.51C49.2267 8.48333 49.4267 8.43 49.62 8.35C49.8133 8.27 49.98 8.16667 50.12 8.04C50.2667 7.91333 50.3533 7.75 50.38 7.55C50.4133 7.39 50.43 7.22333 50.43 7.05C50.43 6.88333 50.43 6.72333 50.43 6.57C50.43 6.43 50.42 6.2 50.4 5.88C50.3867 5.55333 50.3667 5.22 50.34 4.88C50.3133 4.54 50.2767 4.22 50.23 3.92C50.1767 3.62667 50.1133 3.43667 50.04 3.35L52.46 3.33ZM68.12 4.61C68.2733 4.40333 68.4233 4.16 68.57 3.88C68.7233 3.6 68.8 3.32 68.8 3.04C68.8 2.72 68.6933 2.45667 68.48 2.25C68.2667 2.05 68.01 1.89 67.71 1.77C67.41 1.65 67.0933 1.56667 66.76 1.52C66.4267 1.47333 66.1367 1.45 65.89 1.45C65.2967 1.45 64.6967 1.56 64.09 1.78C63.4833 2 62.9333 2.30667 62.44 2.7C61.9467 3.09333 61.5433 3.55667 61.23 4.09C60.9167 4.63 60.76 5.22 60.76 5.86C60.76 6.24 60.83 6.57667 60.97 6.87C61.11 7.16333 61.3033 7.41333 61.55 7.62C61.79 7.82667 62.0633 8.00333 62.37 8.15C62.6833 8.29667 63.01 8.41 63.35 8.49C63.69 8.57667 64.0333 8.63667 64.38 8.67C64.7267 8.71 65.05 8.73 65.35 8.73C66.1033 8.73 66.8467 8.66667 67.58 8.54C68.32 8.40667 69.0533 8.24 69.78 8.04L70.32 9.47C69.9267 9.59667 69.5133 9.70333 69.08 9.79C68.6467 9.88333 68.21 9.95667 67.77 10.01C67.3233 10.0633 66.88 10.1067 66.44 10.14C66 10.1667 65.5733 10.18 65.16 10.18C64.76 10.18 64.3133 10.15 63.82 10.09C63.32 10.0367 62.82 9.95 62.32 9.83C61.82 9.70333 61.33 9.54 60.85 9.34C60.37 9.14 59.9433 8.89 59.57 8.59C59.1967 8.29 58.9 7.94 58.68 7.54C58.4533 7.14 58.34 6.68 58.34 6.16C58.34 5.52667 58.46 4.93667 58.7 4.39C58.9467 3.83667 59.27 3.33333 59.67 2.88C60.07 2.43333 60.54 2.03333 61.08 1.68C61.6133 1.32667 62.1767 1.03 62.77 0.79C63.3633 0.55 63.9667 0.366667 64.58 0.24C65.1867 0.12 65.7733 0.0599999 66.34 0.0599999C66.8667 0.0599999 67.4067 0.0999998 67.96 0.18C68.5133 0.266667 69.0133 0.423333 69.46 0.65C69.9133 0.883333 70.2833 1.20333 70.57 1.61C70.8567 2.01667 71 2.54667 71 3.2C71 3.44 70.9833 3.67667 70.95 3.91C70.91 4.15 70.8533 4.38333 70.78 4.61H68.12ZM73.87 4.99C74.09 4.81 74.3433 4.64 74.63 4.48C74.9167 4.31333 75.2167 4.16667 75.53 4.04C75.85 3.92 76.17 3.82333 76.49 3.75C76.8167 3.67667 77.12 3.64 77.4 3.64V4.82C77.1067 4.82 76.7833 4.88333 76.43 5.01C76.0767 5.13667 75.7267 5.3 75.38 5.5C75.04 5.7 74.7333 5.92667 74.46 6.18C74.1867 6.44 73.9867 6.7 73.86 6.96C73.86 7.02667 73.8633 7.14667 73.87 7.32C73.87 7.49333 73.8733 7.69333 73.88 7.92C73.8867 8.14667 73.8933 8.38667 73.9 8.64C73.9067 8.88667 73.92 9.12 73.94 9.34C73.96 9.56 73.98 9.74667 74 9.9C74.0133 10.06 74.0333 10.1567 74.06 10.19H71.85C71.8833 10.17 71.9133 10.0733 71.94 9.9C71.9733 9.72 71.9967 9.50333 72.01 9.25C72.0233 8.99 72.0367 8.71333 72.05 8.42C72.0633 8.12667 72.07 7.84333 72.07 7.57C72.0767 7.29 72.08 7.05 72.08 6.85C72.08 6.65 72.08 6.52 72.08 6.46C72.08 6.37333 72.08 6.2 72.08 5.94C72.08 5.67333 72.0767 5.39333 72.07 5.1C72.0567 4.81333 72.0433 4.54333 72.03 4.29C72.01 4.03667 71.98 3.88333 71.94 3.83H73.97C73.95 3.88333 73.9367 3.96333 73.93 4.07C73.9167 4.17667 73.9067 4.29 73.9 4.41C73.8933 4.52333 73.8867 4.63667 73.88 4.75C73.8733 4.85667 73.87 4.93667 73.87 4.99ZM81.83 10.4C81.3833 10.4 80.91 10.34 80.41 10.22C79.91 10.1 79.4467 9.91333 79.02 9.66C78.5933 9.41333 78.2433 9.09667 77.97 8.71C77.69 8.33 77.55 7.87667 77.55 7.35C77.55 6.70333 77.6767 6.12333 77.93 5.61C78.19 5.09667 78.5333 4.66667 78.96 4.32C79.3867 3.96667 79.8833 3.69667 80.45 3.51C81.0167 3.32333 81.61 3.23 82.23 3.23C82.7167 3.23 83.1533 3.31 83.54 3.47C83.92 3.63 84.24 3.85333 84.5 4.14C84.7533 4.42667 84.9467 4.76667 85.08 5.16C85.2067 5.55333 85.27 5.98667 85.27 6.46C85.27 6.91333 85.2033 7.35 85.07 7.77H79.37C79.4633 8.04333 79.6067 8.26667 79.8 8.44C79.9933 8.61333 80.2167 8.74667 80.47 8.84C80.7233 8.94 80.9867 9.00667 81.26 9.04C81.54 9.08 81.8033 9.1 82.05 9.1C82.2033 9.1 82.41 9.08667 82.67 9.06C82.93 9.04 83.1967 9.00333 83.47 8.95C83.7433 8.90333 84 8.84333 84.24 8.77C84.48 8.69667 84.66 8.60333 84.78 8.49L85.45 9.67C84.85 9.89667 84.26 10.0733 83.68 10.2C83.0933 10.3333 82.4767 10.4 81.83 10.4ZM81.83 4.52C81.5567 4.52 81.2867 4.57333 81.02 4.68C80.7467 4.78667 80.5 4.93 80.28 5.11C80.0667 5.29 79.8767 5.5 79.71 5.74C79.5433 5.98 79.4233 6.22667 79.35 6.48H83.27C83.2967 6.20667 83.2967 5.95 83.27 5.71C83.25 5.47 83.19 5.26 83.09 5.08C82.99 4.90667 82.84 4.77 82.64 4.67C82.44 4.57 82.17 4.52 81.83 4.52ZM94.12 10.35H91.59C91.7433 10.31 91.84 10.21 91.88 10.05C91.9133 9.89 91.9367 9.74667 91.95 9.62C91.5367 9.74667 91.12 9.84 90.7 9.9C90.28 9.96667 89.86 10 89.44 10C89.1667 10 88.8433 9.97667 88.47 9.93C88.09 9.88333 87.73 9.79667 87.39 9.67C87.0433 9.54333 86.75 9.36667 86.51 9.14C86.27 8.91333 86.15 8.61 86.15 8.23C86.15 7.91667 86.2667 7.64333 86.5 7.41C86.7333 7.18333 87.03 6.99667 87.39 6.85C87.7567 6.69667 88.1667 6.58 88.62 6.5C89.08 6.42 89.5267 6.35667 89.96 6.31C90.4 6.26333 90.81 6.23667 91.19 6.23C91.5767 6.21667 91.88 6.20667 92.1 6.2C92.1 6.07333 92.1 5.95 92.1 5.83C92.1067 5.71 92.11 5.58667 92.11 5.46C92.11 5.23333 92.07 5.03333 91.99 4.86C91.9033 4.69333 91.79 4.55667 91.65 4.45C91.51 4.33667 91.3433 4.25667 91.15 4.21C90.9633 4.15667 90.7633 4.13 90.55 4.13C90.35 4.13 90.1333 4.16 89.9 4.22C89.6667 4.27333 89.4467 4.35333 89.24 4.46C89.0333 4.57333 88.85 4.71333 88.69 4.88C88.5367 5.04667 88.4433 5.24 88.41 5.46L86.68 5.23C86.8467 4.81 87.0767 4.45333 87.37 4.16C87.6567 3.86667 87.9867 3.63 88.36 3.45C88.7267 3.27 89.12 3.13667 89.54 3.05C89.96 2.96333 90.38 2.92 90.8 2.92C91.2 2.92 91.59 2.97 91.97 3.07C92.3433 3.17 92.68 3.32 92.98 3.52C93.2733 3.72667 93.51 3.99 93.69 4.31C93.87 4.63 93.96 5.01 93.96 5.45C93.96 5.91 93.9533 6.37 93.94 6.83C93.9267 7.29 93.92 7.75333 93.92 8.22C93.92 8.3 93.92 8.45 93.92 8.67C93.92 8.88333 93.9267 9.10667 93.94 9.34C93.9533 9.56667 93.9733 9.78 94 9.98C94.0267 10.1733 94.0667 10.2967 94.12 10.35ZM88.01 8.23C88.01 8.37 88.0833 8.47667 88.23 8.55C88.3767 8.62333 88.5467 8.68 88.74 8.72C88.9333 8.76 89.1267 8.78667 89.32 8.8C89.5133 8.80667 89.65 8.81 89.73 8.81C90.1167 8.81 90.5033 8.78333 90.89 8.73C91.2833 8.67667 91.6633 8.59 92.03 8.47C92.0367 8.30333 92.0433 8.14 92.05 7.98C92.0567 7.81333 92.06 7.65333 92.06 7.5L91.7 7.48C91.62 7.48 91.4733 7.48333 91.26 7.49C91.04 7.49667 90.7933 7.50667 90.52 7.52C90.2467 7.53333 89.9633 7.55667 89.67 7.59C89.3767 7.61667 89.1067 7.66 88.86 7.72C88.6133 7.77333 88.41 7.84333 88.25 7.93C88.09 8.01667 88.01 8.11667 88.01 8.23ZM107.97 10.19H105.58C105.667 10.0233 105.74 9.79 105.8 9.49C105.86 9.19 105.907 8.87667 105.94 8.55C105.973 8.22333 105.997 7.90333 106.01 7.59C106.023 7.27 106.03 7.01667 106.03 6.83C106.03 6.59 106.01 6.35333 105.97 6.12C105.93 5.88667 105.86 5.68333 105.76 5.51C105.653 5.33 105.51 5.18667 105.33 5.08C105.15 4.96667 104.917 4.91 104.63 4.91C104.283 4.91 103.957 5.00333 103.65 5.19C103.337 5.37 103.063 5.58 102.83 5.82C102.857 6.02667 102.87 6.22667 102.87 6.42C102.87 6.82667 102.867 7.23 102.86 7.63C102.847 8.03 102.84 8.43667 102.84 8.85C102.84 9.07667 102.843 9.30333 102.85 9.53C102.857 9.75 102.877 9.97 102.91 10.19H100.52C100.613 10.0233 100.687 9.79 100.74 9.49C100.8 9.19 100.85 8.87667 100.89 8.55C100.923 8.22333 100.947 7.90333 100.96 7.59C100.967 7.27 100.97 7.01667 100.97 6.83C100.97 6.59 100.95 6.35333 100.91 6.12C100.87 5.88667 100.8 5.68333 100.7 5.51C100.6 5.33 100.457 5.18667 100.27 5.08C100.09 4.96667 99.86 4.91 99.58 4.91C99.2133 4.91 98.8667 5.01 98.54 5.21C98.22 5.41 97.94 5.64333 97.7 5.91C97.6867 6.33 97.6733 6.75 97.66 7.17C97.6533 7.59 97.65 8.01333 97.65 8.44C97.65 8.50667 97.65 8.63333 97.65 8.82C97.65 9.00667 97.6533 9.20333 97.66 9.41C97.6733 9.62333 97.6867 9.81667 97.7 9.99C97.72 10.17 97.7533 10.2767 97.8 10.31H95.38C95.4133 10.2633 95.45 10.1333 95.49 9.92C95.5233 9.70667 95.5533 9.45333 95.58 9.16C95.6067 8.86 95.63 8.54 95.65 8.2C95.67 7.86 95.6867 7.53333 95.7 7.22C95.7133 6.91333 95.7233 6.64 95.73 6.4C95.73 6.16667 95.73 6.00333 95.73 5.91C95.73 5.83667 95.73 5.68333 95.73 5.45C95.7233 5.21667 95.71 4.97667 95.69 4.73C95.6767 4.47667 95.6467 4.24667 95.6 4.04C95.56 3.82667 95.5 3.70667 95.42 3.68L97.81 3.7C97.79 3.8 97.78 3.90667 97.78 4.02C97.78 4.13333 97.7767 4.24333 97.77 4.35C98.11 4.10333 98.4867 3.9 98.9 3.74C99.3133 3.58 99.7333 3.5 100.16 3.5C100.62 3.5 101.053 3.59333 101.46 3.78C101.86 3.97333 102.183 4.27 102.43 4.67C102.79 4.33 103.22 4.05 103.72 3.83C104.227 3.61 104.727 3.5 105.22 3.5C105.66 3.5 106.047 3.57333 106.38 3.72C106.72 3.86 107.003 4.06 107.23 4.32C107.457 4.58 107.63 4.88667 107.75 5.24C107.87 5.59333 107.93 5.98667 107.93 6.42C107.93 6.82667 107.923 7.23 107.91 7.63C107.897 8.03 107.89 8.43667 107.89 8.85C107.89 9.07667 107.893 9.30333 107.9 9.53C107.913 9.75 107.937 9.97 107.97 10.19ZM123.12 4.71C123.167 4.51 123.207 4.31 123.24 4.11C123.28 3.91667 123.3 3.71333 123.3 3.5C123.3 3.09333 123.227 2.75667 123.08 2.49C122.933 2.21667 122.733 2 122.48 1.84C122.233 1.68 121.947 1.57333 121.62 1.52C121.3 1.46 120.96 1.43 120.6 1.43C120.38 1.43 120.13 1.44333 119.85 1.47C119.57 1.50333 119.28 1.55333 118.98 1.62C118.687 1.69333 118.393 1.78333 118.1 1.89C117.807 2.00333 117.55 2.14 117.33 2.3C117.103 2.46667 116.92 2.66 116.78 2.88C116.64 3.10667 116.57 3.36 116.57 3.64C116.57 3.88667 116.66 4.1 116.84 4.28C117.013 4.45333 117.24 4.60333 117.52 4.73C117.8 4.86333 118.113 4.97 118.46 5.05C118.807 5.13 119.147 5.2 119.48 5.26C119.82 5.32 120.137 5.36667 120.43 5.4C120.717 5.43333 120.947 5.46333 121.12 5.49C121.34 5.52333 121.607 5.56667 121.92 5.62C122.233 5.66667 122.56 5.73333 122.9 5.82C123.24 5.9 123.573 6 123.9 6.12C124.233 6.23333 124.533 6.37667 124.8 6.55C125.067 6.71667 125.28 6.91 125.44 7.13C125.607 7.35667 125.69 7.61667 125.69 7.91C125.69 8.21667 125.607 8.49 125.44 8.73C125.267 8.96333 125.043 9.17 124.77 9.35C124.49 9.53 124.18 9.67667 123.84 9.79C123.493 9.90333 123.147 9.99667 122.8 10.07C122.447 10.1433 122.11 10.1933 121.79 10.22C121.47 10.2467 121.203 10.26 120.99 10.26C120.023 10.26 119.063 10.18 118.11 10.02C117.163 9.86 116.24 9.60333 115.34 9.25C115.247 9.21 115.14 9.16667 115.02 9.12C114.907 9.06667 114.787 9.01333 114.66 8.96C114.527 8.90667 114.403 8.86 114.29 8.82C114.17 8.78667 114.063 8.76333 113.97 8.75C114.023 8.69667 114.107 8.62 114.22 8.52C114.34 8.42 114.457 8.31 114.57 8.19C114.683 8.07667 114.787 7.96667 114.88 7.86C114.973 7.75333 115.03 7.67333 115.05 7.62C115.857 8.11333 116.733 8.47667 117.68 8.71C118.633 8.95 119.58 9.07 120.52 9.07C120.673 9.07 120.917 9.05667 121.25 9.03C121.583 9.01 121.917 8.96333 122.25 8.89C122.583 8.81667 122.877 8.71333 123.13 8.58C123.377 8.45333 123.5 8.28 123.5 8.06C123.5 7.76667 123.37 7.53333 123.11 7.36C122.85 7.18667 122.507 7.04333 122.08 6.93C121.653 6.81667 121.167 6.72667 120.62 6.66C120.073 6.58667 119.513 6.51 118.94 6.43C118.373 6.35 117.817 6.25333 117.27 6.14C116.723 6.02667 116.233 5.87 115.8 5.67C115.373 5.47667 115.03 5.23 114.77 4.93C114.51 4.63 114.38 4.25 114.38 3.79C114.38 3.31 114.48 2.88333 114.68 2.51C114.873 2.13667 115.137 1.80667 115.47 1.52C115.803 1.24 116.18 1.00333 116.6 0.81C117.027 0.616667 117.47 0.463333 117.93 0.35C118.39 0.23 118.847 0.143333 119.3 0.0900002C119.76 0.0300002 120.18 0 120.56 0C121.2 0 121.807 0.0500001 122.38 0.15C122.953 0.256667 123.453 0.44 123.88 0.7C124.3 0.966667 124.637 1.33667 124.89 1.81C125.143 2.28333 125.27 2.89333 125.27 3.64C125.27 3.82 125.26 3.99667 125.24 4.17C125.227 4.34333 125.213 4.52333 125.2 4.71H123.12ZM131.23 3.6C131.73 3.6 132.257 3.67 132.81 3.81C133.37 3.95 133.877 4.16333 134.33 4.45C134.783 4.74333 135.16 5.10667 135.46 5.54C135.767 5.98 135.92 6.49667 135.92 7.09C135.92 7.47667 135.847 7.83 135.7 8.15C135.553 8.46333 135.36 8.74 135.12 8.98C134.873 9.22 134.59 9.43 134.27 9.61C133.957 9.79 133.623 9.93667 133.27 10.05C132.917 10.1633 132.56 10.2467 132.2 10.3C131.833 10.3533 131.49 10.38 131.17 10.38C130.65 10.38 130.117 10.32 129.57 10.2C129.023 10.0867 128.523 9.89667 128.07 9.63C127.623 9.36333 127.257 9.02 126.97 8.6C126.683 8.17333 126.54 7.65 126.54 7.03C126.54 6.42333 126.687 5.90333 126.98 5.47C127.28 5.03667 127.657 4.68 128.11 4.4C128.563 4.12 129.067 3.91667 129.62 3.79C130.173 3.66333 130.71 3.6 131.23 3.6ZM128.59 7.02C128.59 7.37333 128.67 7.67333 128.83 7.92C128.99 8.16667 129.193 8.36667 129.44 8.52C129.693 8.67333 129.973 8.78667 130.28 8.86C130.593 8.92667 130.9 8.96 131.2 8.96C131.48 8.96 131.777 8.92333 132.09 8.85C132.397 8.77667 132.683 8.66333 132.95 8.51C133.217 8.35667 133.433 8.15667 133.6 7.91C133.773 7.67 133.86 7.38333 133.86 7.05C133.86 6.71 133.78 6.41333 133.62 6.16C133.453 5.91333 133.243 5.70333 132.99 5.53C132.737 5.36333 132.453 5.24 132.14 5.16C131.82 5.08 131.517 5.04 131.23 5.04C130.923 5.04 130.617 5.07667 130.31 5.15C130.003 5.23 129.72 5.35 129.46 5.51C129.207 5.67 128.997 5.87333 128.83 6.12C128.67 6.37333 128.59 6.67333 128.59 7.02ZM145.81 10.19H143.41C143.457 10.07 143.487 9.91667 143.5 9.73C143.513 9.54333 143.52 9.38667 143.52 9.26C143.133 9.54 142.703 9.74667 142.23 9.88C141.757 10.0133 141.283 10.08 140.81 10.08C140.357 10.08 139.883 10.0133 139.39 9.88C138.897 9.74667 138.443 9.55 138.03 9.29C137.623 9.02333 137.287 8.69333 137.02 8.3C136.747 7.9 136.61 7.43667 136.61 6.91C136.61 6.34333 136.763 5.85 137.07 5.43C137.377 5.00333 137.76 4.65 138.22 4.37C138.68 4.08333 139.183 3.87 139.73 3.73C140.277 3.59 140.79 3.52 141.27 3.52C141.657 3.52 142.04 3.56333 142.42 3.65C142.793 3.74333 143.15 3.89667 143.49 4.11C143.483 4.01667 143.477 3.85667 143.47 3.63C143.463 3.41 143.453 3.15667 143.44 2.87C143.427 2.58333 143.41 2.28333 143.39 1.97C143.363 1.66333 143.333 1.37667 143.3 1.11C143.26 0.836667 143.217 0.61 143.17 0.43C143.117 0.243333 143.06 0.136667 143 0.11L145.6 0.0999999C145.533 0.146667 145.48 0.273333 145.44 0.48C145.407 0.693333 145.383 0.926666 145.37 1.18C145.357 1.43333 145.347 1.67667 145.34 1.91C145.34 2.14333 145.34 2.30667 145.34 2.4C145.34 2.58667 145.343 2.9 145.35 3.34C145.357 3.78 145.373 4.27333 145.4 4.82C145.42 5.37333 145.443 5.95 145.47 6.55C145.497 7.14333 145.527 7.69667 145.56 8.21C145.593 8.71667 145.633 9.15333 145.68 9.52C145.727 9.88667 145.77 10.11 145.81 10.19ZM141.15 8.84C141.35 8.84 141.59 8.8 141.87 8.72C142.15 8.64 142.413 8.53 142.66 8.39C142.9 8.24333 143.107 8.07 143.28 7.87C143.453 7.67 143.54 7.44667 143.54 7.2C143.54 7.05333 143.547 6.9 143.56 6.74C143.567 6.58667 143.56 6.44333 143.54 6.31C143.507 6.06333 143.417 5.84667 143.27 5.66C143.123 5.48 142.947 5.33 142.74 5.21C142.54 5.09667 142.32 5.01 142.08 4.95C141.847 4.89 141.613 4.86 141.38 4.86C141.073 4.86 140.757 4.9 140.43 4.98C140.11 5.06 139.817 5.18667 139.55 5.36C139.29 5.53333 139.073 5.75333 138.9 6.02C138.733 6.28667 138.65 6.6 138.65 6.96C138.65 7.3 138.727 7.58667 138.88 7.82C139.033 8.06 139.23 8.25667 139.47 8.41C139.71 8.55667 139.977 8.66333 140.27 8.73C140.563 8.80333 140.857 8.84 141.15 8.84ZM154.55 10.35H152.02C152.173 10.31 152.27 10.21 152.31 10.05C152.343 9.89 152.367 9.74667 152.38 9.62C151.967 9.74667 151.55 9.84 151.13 9.9C150.71 9.96667 150.29 10 149.87 10C149.597 10 149.273 9.97667 148.9 9.93C148.52 9.88333 148.16 9.79667 147.82 9.67C147.473 9.54333 147.18 9.36667 146.94 9.14C146.7 8.91333 146.58 8.61 146.58 8.23C146.58 7.91667 146.697 7.64333 146.93 7.41C147.163 7.18333 147.46 6.99667 147.82 6.85C148.187 6.69667 148.597 6.58 149.05 6.5C149.51 6.42 149.957 6.35667 150.39 6.31C150.83 6.26333 151.24 6.23667 151.62 6.23C152.007 6.21667 152.31 6.20667 152.53 6.2C152.53 6.07333 152.53 5.95 152.53 5.83C152.537 5.71 152.54 5.58667 152.54 5.46C152.54 5.23333 152.5 5.03333 152.42 4.86C152.333 4.69333 152.22 4.55667 152.08 4.45C151.94 4.33667 151.773 4.25667 151.58 4.21C151.393 4.15667 151.193 4.13 150.98 4.13C150.78 4.13 150.563 4.16 150.33 4.22C150.097 4.27333 149.877 4.35333 149.67 4.46C149.457 4.57333 149.273 4.71333 149.12 4.88C148.967 5.04667 148.873 5.24 148.84 5.46L147.11 5.23C147.277 4.81 147.507 4.45333 147.8 4.16C148.087 3.86667 148.417 3.63 148.79 3.45C149.157 3.27 149.55 3.13667 149.97 3.05C150.39 2.96333 150.81 2.92 151.23 2.92C151.63 2.92 152.02 2.97 152.4 3.07C152.773 3.17 153.11 3.32 153.41 3.52C153.703 3.72667 153.94 3.99 154.12 4.31C154.3 4.63 154.39 5.01 154.39 5.45C154.39 5.91 154.383 6.37 154.37 6.83C154.357 7.29 154.35 7.75333 154.35 8.22C154.35 8.3 154.35 8.45 154.35 8.67C154.35 8.88333 154.357 9.10667 154.37 9.34C154.383 9.56667 154.403 9.78 154.43 9.98C154.457 10.1733 154.497 10.2967 154.55 10.35ZM148.44 8.23C148.44 8.37 148.513 8.47667 148.66 8.55C148.807 8.62333 148.977 8.68 149.17 8.72C149.363 8.76 149.557 8.78667 149.75 8.8C149.943 8.80667 150.08 8.81 150.16 8.81C150.547 8.81 150.933 8.78333 151.32 8.73C151.713 8.67667 152.093 8.59 152.46 8.47C152.467 8.30333 152.473 8.14 152.48 7.98C152.487 7.81333 152.49 7.65333 152.49 7.5L152.13 7.48C152.05 7.48 151.903 7.48333 151.69 7.49C151.47 7.49667 151.223 7.50667 150.95 7.52C150.677 7.53333 150.393 7.55667 150.1 7.59C149.807 7.61667 149.537 7.66 149.29 7.72C149.043 7.77333 148.84 7.84333 148.68 7.93C148.52 8.01667 148.44 8.11667 148.44 8.23Z" fill="black"/>
</svg>
