<svg width="31" height="12" viewBox="0 0 31 12" fill="none" xmlns="http://www.w3.org/2000/svg">
<path d="M1.89 10.37C1.73667 10.37 1.61667 10.3267 1.53 10.24C1.44333 10.1533 1.38 10.11 1.34 10.11C1.32 10.0033 1.26667 9.92667 1.18 9.88C1.09333 9.83333 1.01667 9.78333 0.95 9.73C0.91 9.70333 0.88 9.67 0.86 9.63C0.833333 9.59 0.806667 9.55333 0.78 9.52C0.686667 9.38667 0.616667 9.28667 0.57 9.22C0.523333 9.16 0.5 9.04333 0.5 8.87C0.5 8.69667 0.533333 8.50333 0.6 8.29C0.666667 8.08333 0.736667 7.90333 0.81 7.75C0.83 7.71667 0.86 7.66333 0.9 7.59C0.94 7.52333 0.966667 7.47667 0.98 7.45H0.99C0.983333 7.51 0.96 7.56667 0.92 7.62C0.886667 7.67333 0.87 7.73333 0.87 7.8C0.903333 7.76667 0.966667 7.68667 1.06 7.56C1.15333 7.42667 1.20667 7.34333 1.22 7.31C1.20667 7.31 1.2 7.30667 1.2 7.3C1.2 7.29333 1.2 7.29 1.2 7.29H1.17C1.16333 7.30333 1.16 7.31667 1.16 7.33C1.16 7.35 1.15 7.37 1.13 7.39C1.11 7.35 1.1 7.32333 1.1 7.31C1.1 7.24333 1.12333 7.18333 1.17 7.13C1.21667 7.07667 1.25 7.02667 1.27 6.98V6.89C1.34333 6.84333 1.40333 6.76333 1.45 6.65C1.49667 6.54333 1.54333 6.46 1.59 6.4C1.62333 6.36667 1.65667 6.34333 1.69 6.33C1.73 6.31667 1.76 6.29333 1.78 6.26C1.80667 6.21333 1.82667 6.16333 1.84 6.11C1.85333 6.05667 1.88 6.01333 1.92 5.98C1.95333 5.94667 2 5.92667 2.06 5.92C2.11333 5.91333 2.14 5.87667 2.14 5.81L2.1 5.82L2.11 5.75C2.26333 5.58333 2.40667 5.41 2.54 5.23C2.67333 5.05667 2.81667 4.89 2.97 4.73C3.01667 4.69 3.05667 4.65667 3.09 4.63C3.13 4.60333 3.16667 4.57 3.2 4.53C3.29333 4.45 3.38667 4.36333 3.48 4.27C3.57333 4.18333 3.66667 4.1 3.76 4.02C3.93333 3.86 4.10333 3.69333 4.27 3.52C4.43667 3.34667 4.61333 3.2 4.8 3.08C4.84667 3.04 4.89667 3.00667 4.95 2.98C4.99667 2.95333 5.04333 2.92667 5.09 2.9C5.27667 2.76667 5.46333 2.64 5.65 2.52C5.83667 2.4 6.02333 2.27667 6.21 2.15C6.34333 2.07667 6.48 2.01 6.62 1.95C6.76 1.89 6.89667 1.82667 7.03 1.76C7.17667 1.68667 7.33 1.62 7.49 1.56C7.65 1.5 7.80667 1.44 7.96 1.38C8.09333 1.33333 8.25 1.28 8.43 1.22C8.61667 1.15333 8.77333 1.12 8.9 1.12C9.01333 1.12 9.10667 1.13667 9.18 1.17C9.25333 1.21 9.33 1.26667 9.41 1.34C9.48333 1.40667 9.58667 1.49 9.72 1.59C9.85333 1.69667 9.97667 1.80667 10.09 1.92C10.2033 2.02667 10.26 2.13333 10.26 2.24C10.26 2.36 10.2167 2.46667 10.13 2.56C10.0367 2.65333 9.94 2.72667 9.84 2.78C9.74 2.84667 9.64333 2.92 9.55 3C9.45667 3.08 9.34667 3.15333 9.22 3.22C9.16667 3.31333 9.05667 3.40667 8.89 3.5C8.72333 3.59333 8.58667 3.64 8.48 3.64V3.67C8.41333 3.71667 8.33667 3.77667 8.25 3.85C8.16333 3.92333 8.08333 3.97 8.01 3.99C7.99667 3.99667 7.97667 4 7.95 4C7.94333 4.01333 7.93 4.03 7.91 4.05C7.89 4.07667 7.87667 4.09333 7.87 4.1V4.11C7.82333 4.12333 7.78 4.14 7.74 4.16C7.7 4.18667 7.65667 4.2 7.61 4.2C7.58333 4.24667 7.54333 4.27 7.49 4.27C7.47667 4.29 7.45667 4.30667 7.43 4.32C7.40333 4.33333 7.38667 4.35333 7.38 4.38H7.36L7.32 4.37C7.29333 4.40333 7.26 4.42 7.22 4.42C7.18667 4.42 7.14667 4.43 7.1 4.45C7.08667 4.45667 7.05667 4.47667 7.01 4.51C6.96333 4.53667 6.93 4.55 6.91 4.55H6.9L6.91 4.52C7.13667 4.38 7.35667 4.22667 7.57 4.06C7.77667 3.9 7.98667 3.74667 8.2 3.6C8.28667 3.54 8.41333 3.44667 8.58 3.32C8.74667 3.18667 8.92333 3.04 9.11 2.88C9.29667 2.72 9.45333 2.56333 9.58 2.41C9.70667 2.25667 9.77 2.13333 9.77 2.04C9.77 1.94667 9.72 1.88 9.62 1.84C9.51333 1.8 9.42333 1.78 9.35 1.78C9.17 1.78 9.03 1.81667 8.93 1.89C8.83 1.96333 8.72667 2 8.62 2L8.61 2.04C8.54333 2.04 8.48333 2.06667 8.43 2.12C8.37 2.17333 8.30333 2.2 8.23 2.2C8.21 2.21333 8.15667 2.24333 8.07 2.29C7.98333 2.33667 7.89333 2.38333 7.8 2.43C7.70667 2.47667 7.64 2.51667 7.6 2.55C7.43333 2.64333 7.26667 2.73667 7.1 2.83C6.92667 2.92333 6.76333 3.02333 6.61 3.13C6.57 3.15 6.53 3.17667 6.49 3.21C6.45667 3.24333 6.42 3.27333 6.38 3.3L6.02 3.5C6.00667 3.5 5.96 3.53333 5.88 3.6C5.79333 3.66 5.71 3.72333 5.63 3.79C5.55 3.85667 5.51 3.89 5.51 3.89C5.46333 3.91667 5.37 3.98667 5.23 4.1C5.09 4.21333 4.93 4.35 4.75 4.51C4.57 4.66333 4.39333 4.82 4.22 4.98C4.04667 5.14 3.9 5.28 3.78 5.4C3.66667 5.52 3.60667 5.59667 3.6 5.63C3.50667 5.67667 3.41667 5.76 3.33 5.88C3.24333 6 3.17 6.09667 3.11 6.17C2.72333 6.65667 2.37667 7.11667 2.07 7.55C1.76333 7.98333 1.51667 8.51 1.33 9.13C1.31 9.19 1.29 9.25667 1.27 9.33C1.25 9.39667 1.24 9.47 1.24 9.55C1.24 9.70333 1.28333 9.79667 1.37 9.83C1.45667 9.86333 1.56 9.88 1.68 9.88C1.96 9.88 2.25667 9.84 2.57 9.76C2.88333 9.67333 3.14667 9.51333 3.36 9.28C3.52 9.19333 3.66 9.12667 3.78 9.08C3.9 9.02667 4.03333 8.95667 4.18 8.87C4.24 8.83667 4.3 8.78 4.36 8.7C4.42 8.62 4.48333 8.56667 4.55 8.54C4.60333 8.51333 4.63333 8.50333 4.64 8.51C4.64667 8.51667 4.65333 8.52 4.66 8.52C4.66667 8.51333 4.70333 8.49 4.77 8.45V8.43L4.8 8.45H4.83C4.90333 8.41667 5.02333 8.33 5.19 8.19C5.35 8.05667 5.50333 7.93 5.65 7.81C5.80333 7.69 5.89667 7.62333 5.93 7.61C5.95 7.59667 5.98 7.57333 6.02 7.54C6.05333 7.51333 6.09 7.49667 6.13 7.49C6.22333 7.44333 6.32 7.35 6.42 7.21C6.51333 7.07 6.60333 7 6.69 7C6.71667 7 6.73 7.02333 6.73 7.07C6.66333 7.16333 6.55333 7.28333 6.4 7.43C6.24 7.58333 6.07333 7.73333 5.9 7.88C5.72667 8.02667 5.57667 8.15333 5.45 8.26C5.32333 8.36 5.26 8.41667 5.26 8.43C5.23333 8.43 5.16667 8.47333 5.06 8.56C4.95333 8.64667 4.83 8.74667 4.69 8.86C4.55 8.97333 4.42 9.08 4.3 9.18C4.17333 9.28667 4.08667 9.35333 4.04 9.38C3.93333 9.46 3.77667 9.55667 3.57 9.67C3.36333 9.78333 3.14 9.89333 2.9 10C2.66667 10.1067 2.45667 10.1967 2.27 10.27C2.08333 10.3367 1.95667 10.37 1.89 10.37ZM8.76 10.08L8.64 10.18C8.6 10.1867 8.54667 10.1933 8.48 10.2C8.40667 10.2133 8.32667 10.22 8.24 10.22C8.14667 10.22 8.05333 10.21 7.96 10.19C7.86667 10.17 7.80333 10.1433 7.77 10.11C7.75667 10.07 7.75 10.0467 7.75 10.04C7.75 10.0267 7.74333 10.0033 7.73 9.97C7.69667 9.91 7.68 9.89 7.68 9.91C7.67333 9.93 7.66 9.91 7.64 9.85C7.63333 9.82333 7.63 9.77333 7.63 9.7C7.63 9.58667 7.63667 9.46333 7.65 9.33C7.66333 9.19667 7.67 9.10667 7.67 9.06C7.67 8.92667 7.68667 8.81 7.72 8.71C7.75333 8.60333 7.78333 8.5 7.81 8.4C7.85667 8.2 7.92333 8.01333 8.01 7.84C8.09 7.66 8.17667 7.48667 8.27 7.32C8.34333 7.18667 8.42333 7.05333 8.51 6.92C8.59667 6.78667 8.68667 6.66 8.78 6.54L8.82 6.48C8.76 6.48667 8.71667 6.51333 8.69 6.56C8.65667 6.6 8.62333 6.64 8.59 6.68C8.51667 6.77333 8.43333 6.85667 8.34 6.93C8.17333 7.07667 7.98 7.26333 7.76 7.49C7.54 7.71 7.32333 7.94333 7.11 8.19C6.89667 8.43 6.70333 8.65667 6.53 8.87C6.35667 9.09 6.23333 9.26333 6.16 9.39C6.08667 9.52333 6.03333 9.57333 6 9.54C5.97333 9.50667 5.94667 9.49333 5.92 9.5C5.86667 9.46667 5.82 9.43 5.78 9.39C5.74 9.35667 5.72 9.31667 5.72 9.27C5.72 9.20333 5.74 9.14667 5.78 9.1C5.87333 8.94 5.98333 8.77 6.11 8.59C6.23667 8.41667 6.41667 8.14667 6.65 7.78C6.77 7.59333 6.88 7.41333 6.98 7.24C7.07333 7.06 7.16667 6.88667 7.26 6.72C7.36667 6.6 7.42333 6.51333 7.43 6.46C7.44333 6.40667 7.45 6.36 7.45 6.32C7.45 6.28 7.48 6.21667 7.54 6.13C7.56 6.11 7.59 6.05333 7.63 5.96C7.66333 5.86667 7.68667 5.81667 7.7 5.81C7.74667 5.73667 7.79 5.66 7.83 5.58C7.87 5.5 7.91333 5.42333 7.96 5.35C8.05333 5.21 8.12667 5.09 8.18 4.99C8.23333 4.89 8.31 4.77667 8.41 4.65C8.43667 4.61667 8.49 4.53333 8.57 4.4C8.64333 4.26667 8.72 4.13 8.8 3.99C8.88 3.85667 8.92333 3.79 8.93 3.79C8.93667 3.74333 8.96667 3.69333 9.02 3.64C9.07333 3.58 9.11333 3.53333 9.14 3.5C9.19333 3.42667 9.24333 3.35 9.29 3.27C9.33667 3.19 9.39 3.11333 9.45 3.04C9.49667 2.96 9.54667 2.89333 9.6 2.84C9.64667 2.78667 9.69333 2.72667 9.74 2.66C9.86 2.49333 9.97333 2.35 10.08 2.23C10.18 2.11667 10.3 1.98333 10.44 1.83C10.48 1.79667 10.5333 1.74 10.6 1.66C10.6733 1.58667 10.7333 1.54 10.78 1.52L11.2 1.36C11.2467 1.32667 11.2567 1.29333 11.23 1.26C11.1967 1.22 11.2 1.18667 11.24 1.16C11.2933 1.11333 11.3533 1.07 11.42 1.03C11.48 0.996666 11.54 0.96 11.6 0.92C11.6467 0.893333 11.6933 0.86 11.74 0.82C11.7867 0.786667 11.8433 0.763333 11.91 0.75C11.9367 0.723333 12.0133 0.676667 12.14 0.61C12.2667 0.55 12.35 0.513333 12.39 0.5L12.85 0.25C12.89 0.23 12.9267 0.216667 12.96 0.21C13 0.21 13.0333 0.2 13.06 0.18L13.37 0.14L13.42 0.12C13.44 0.0933332 13.4967 0.0733333 13.59 0.0599999C13.6833 0.0466666 13.78 0.0366664 13.88 0.0299997C13.98 0.0166664 14.0467 0.00999975 14.08 0.00999975H14.21C14.2167 0.00333309 14.2333 0 14.26 0C14.3867 0 14.4967 0.00333309 14.59 0.00999975C14.69 0.0233331 14.7867 0.0433335 14.88 0.0700002C14.92 0.0766668 14.9567 0.0833335 14.99 0.0900002C15.03 0.0966668 15.0667 0.106667 15.1 0.12C15.14 0.153333 15.2167 0.196667 15.33 0.25C15.4433 0.303333 15.5033 0.35 15.51 0.39L15.47 0.45L15.4 0.38C15.34 0.346667 15.2833 0.31 15.23 0.27C15.1767 0.23 15.1167 0.203333 15.05 0.19C15.01 0.176667 14.9733 0.17 14.94 0.17C14.9067 0.17 14.8733 0.17 14.84 0.17C14.72 0.17 14.6 0.183333 14.48 0.21C14.3667 0.236667 14.2533 0.26 14.14 0.28L13.89 0.31L13.66 0.43L13.61 0.42C13.5967 0.44 13.5433 0.456666 13.45 0.47C13.35 0.49 13.3033 0.513333 13.31 0.54C13.2767 0.54 13.26 0.536666 13.26 0.53C13.1667 0.596666 13.09 0.663333 13.03 0.73C12.9633 0.79 12.8767 0.853333 12.77 0.92C12.71 0.946667 12.6233 0.976666 12.51 1.01C12.39 1.03667 12.2933 1.06 12.22 1.08C12.18 1.16 12.0967 1.22667 11.97 1.28C11.8367 1.33333 11.7333 1.38667 11.66 1.44C11.4 1.64667 11.1433 1.85333 10.89 2.06C10.6367 2.26 10.39 2.47 10.15 2.69L9.97 2.92C9.59667 3.29333 9.25333 3.71667 8.94 4.19C8.63333 4.66333 8.41667 5.07667 8.29 5.43L8.24 5.54C8.23333 5.56667 8.21333 5.59333 8.18 5.62C8.14667 5.64 8.12 5.66667 8.1 5.7L8.09 5.79C7.93 6.08333 7.81667 6.3 7.75 6.44C7.67667 6.58667 7.63 6.69 7.61 6.75C7.58333 6.81 7.55667 6.86 7.53 6.9L7.35 7.18L7.11 7.61L7 7.77L6.9 7.98L6.8 8.08L6.75 8.24C6.73667 8.28 6.70333 8.34333 6.65 8.43C6.59 8.51 6.53667 8.58667 6.49 8.66C6.53 8.63333 6.56333 8.60333 6.59 8.57C6.61 8.53 6.64333 8.49 6.69 8.45L6.9 8.23L7.01 8.06C7.09667 7.93333 7.19667 7.81667 7.31 7.71C7.43 7.61 7.54 7.5 7.64 7.38C7.65333 7.36667 7.69333 7.32667 7.76 7.26C7.83333 7.18667 7.87333 7.15 7.88 7.15C7.9 7.08333 7.95 7.02 8.03 6.96C8.11 6.9 8.16667 6.85333 8.2 6.82L8.54 6.47L8.55 6.45L8.57 6.47V6.45C8.58333 6.40333 8.62333 6.36 8.69 6.32C8.75 6.28 8.79667 6.24 8.83 6.2C8.87667 6.15333 8.95667 6.06333 9.07 5.93C9.18333 5.79 9.31333 5.72 9.46 5.72C9.53333 5.72 9.60333 5.74 9.67 5.78C9.69667 5.78667 9.74667 5.82333 9.82 5.89C9.88667 5.95667 9.94667 6.01667 10 6.07C10.0533 6.13 10.0667 6.17 10.04 6.19C10 6.22333 9.96667 6.24667 9.94 6.26C9.9 6.28667 9.84 6.34 9.76 6.42C9.67333 6.50667 9.60667 6.54667 9.56 6.54C9.56 6.54 9.54 6.57 9.5 6.63C9.45333 6.69667 9.33667 6.84667 9.15 7.08C9.13667 7.06 9.09 7.11333 9.01 7.24C8.93667 7.36 8.89 7.44333 8.87 7.49C8.82333 7.59 8.77 7.67667 8.71 7.75C8.65 7.81667 8.59333 7.89667 8.54 7.99V8.01C8.54 8.04333 8.53 8.06667 8.51 8.08C8.49 8.09333 8.47 8.11 8.45 8.13V8.23C8.45 8.25667 8.42667 8.31667 8.38 8.41C8.33333 8.49667 8.29667 8.59 8.27 8.69C8.28333 8.71667 8.29 8.76 8.29 8.82C8.29 8.92 8.25333 9.00667 8.18 9.08C8.11333 9.14667 8.08333 9.24667 8.09 9.38C8.09667 9.41333 8.09667 9.51667 8.09 9.69C8.08333 9.86333 8.12667 9.99333 8.22 10.08C8.24667 10.1067 8.28333 10.12 8.33 10.12C8.41 10.12 8.51 10.09 8.63 10.03C8.74333 9.97 8.82 9.93 8.86 9.91L8.94 9.85C8.94 9.86333 8.93667 9.87 8.93 9.87C8.92333 9.89 8.89667 9.92333 8.85 9.97C8.81 10.0233 8.79333 10.06 8.8 10.08C8.77333 10.08 8.76 10.08 8.76 10.08ZM10.16 9.76C10.0867 9.79333 9.98333 9.81 9.85 9.81C9.73 9.81 9.61 9.78667 9.49 9.74C9.33 9.67333 9.21667 9.56333 9.15 9.41C9.12333 9.36333 9.1 9.31 9.08 9.25C9.06667 9.19667 9.06 9.13667 9.06 9.07C9.06 8.95 9.09 8.84 9.15 8.74C9.21 8.64 9.26333 8.54333 9.31 8.45C9.43 8.23667 9.53333 8.03333 9.62 7.84C9.71333 7.64 9.84667 7.45333 10.02 7.28C10.0467 7.25333 10.11 7.18667 10.21 7.08C10.31 6.98 10.4067 6.88 10.5 6.78C10.6 6.68 10.6633 6.63 10.69 6.63C10.6833 6.62333 10.6967 6.60667 10.73 6.58C10.7633 6.55333 10.7833 6.54 10.79 6.54L11.18 6.12L11.2 6.13C11.22 6.13 11.2333 6.11 11.24 6.07C11.2467 6.02333 11.27 5.99667 11.31 5.99L11.39 5.98L11.44 5.86C11.4667 5.78667 11.4967 5.74 11.53 5.72C11.5633 5.69333 11.6067 5.66333 11.66 5.63L12.04 5.36L12.5 5.02C12.52 5.00667 12.5233 4.99 12.51 4.97C12.5033 4.95667 12.5133 4.94667 12.54 4.94C12.6133 4.93333 12.65 4.93 12.65 4.93C12.65 4.93 12.65 4.92333 12.65 4.91C12.6967 4.89 12.75 4.87333 12.81 4.86C12.8767 4.84667 12.9367 4.84 12.99 4.84C13.0633 4.84 13.15 4.88333 13.25 4.97C13.35 5.05 13.44 5.14 13.52 5.24C13.5933 5.34 13.63 5.42667 13.63 5.5L13.62 5.64C13.6467 5.75333 13.5967 5.87 13.47 5.99C13.3433 6.11 13.2033 6.21667 13.05 6.31C12.8967 6.39667 12.78 6.46333 12.7 6.51L12.49 6.69L12.28 6.8H12.19L12.11 6.87C12.11 6.85 12.0967 6.84 12.07 6.84C12.01 6.9 11.9467 6.93 11.88 6.93H11.87C11.83 6.96333 11.7867 6.99667 11.74 7.03C11.6933 7.05667 11.6467 7.08333 11.6 7.11L11.39 7.24C11.3567 7.25333 11.32 7.26667 11.28 7.28C11.2333 7.28667 11.1867 7.3 11.14 7.32L11.04 7.38L10.69 7.46L10.65 7.49C10.6233 7.51667 10.6067 7.52 10.6 7.5C10.5867 7.48 10.5933 7.46333 10.62 7.45C10.64 7.43667 10.6567 7.42667 10.67 7.42C10.7433 7.36 10.82 7.30667 10.9 7.26C10.9867 7.20667 11.0667 7.15667 11.14 7.11C11.1867 7.08333 11.24 7.04667 11.3 7C11.3533 6.95333 11.4133 6.93 11.48 6.93C11.4867 6.91 11.5233 6.87667 11.59 6.83C11.6567 6.78333 11.7267 6.74 11.8 6.7C11.8733 6.65333 11.92 6.63 11.94 6.63C11.9467 6.63 11.95 6.62667 11.95 6.62C11.9967 6.55333 12.06 6.50333 12.14 6.47C12.2133 6.43667 12.2767 6.40333 12.33 6.37L12.63 6.14C12.73 6.06667 12.8367 5.98 12.95 5.88C13.07 5.78667 13.1633 5.68 13.23 5.56C13.25 5.54 13.2633 5.51667 13.27 5.49C13.2767 5.45667 13.2867 5.42667 13.3 5.4V5.39H13.27C13.2167 5.44333 13.15 5.48 13.07 5.5C12.9967 5.52 12.9233 5.54667 12.85 5.58L12.72 5.7C12.58 5.77333 12.44 5.85 12.3 5.93C12.16 6.01667 12.0267 6.11 11.9 6.21C11.86 6.21 11.84 6.23 11.84 6.27C11.82 6.27 11.76 6.30667 11.66 6.38C11.56 6.45333 11.4633 6.52667 11.37 6.6C11.2833 6.66667 11.24 6.70667 11.24 6.72C11.2133 6.75333 11.1667 6.78667 11.1 6.82C11.0333 6.84667 11 6.89333 11 6.96H10.9V7.07H10.85V7.08C10.8367 7.1 10.82 7.12333 10.8 7.15C10.7733 7.17667 10.7467 7.19667 10.72 7.21C10.7 7.23 10.69 7.23 10.69 7.21C10.6833 7.23667 10.67 7.25333 10.65 7.26C10.63 7.26 10.6133 7.27 10.6 7.29L10.5 7.46H10.48L10.53 7.57C10.5167 7.57 10.4767 7.59333 10.41 7.64C10.35 7.68667 10.32 7.71667 10.32 7.73H10.3V7.8C10.2333 7.80667 10.1933 7.83333 10.18 7.88C10.1667 7.92667 10.1467 7.97333 10.12 8.02L9.97 8.19L9.83 8.4L9.71 8.54C9.70333 8.54667 9.69333 8.56667 9.68 8.6C9.66667 8.63333 9.67 8.65 9.69 8.65H9.7L9.74 8.54C9.76 8.57333 9.73667 8.65333 9.67 8.78C9.60333 8.9 9.56333 8.98333 9.55 9.03C9.53667 9.05 9.53 9.07333 9.53 9.1C9.53 9.12667 9.53 9.15 9.53 9.17C9.53 9.23667 9.52667 9.28667 9.52 9.32L9.49 9.41C9.49 9.41667 9.48667 9.42333 9.48 9.43C9.48 9.43 9.48 9.43667 9.48 9.45C9.48 9.51667 9.52 9.55667 9.6 9.57C9.67333 9.58333 9.73333 9.58333 9.78 9.57C9.81333 9.56333 9.87667 9.53667 9.97 9.49C10.0633 9.44333 10.15 9.39333 10.23 9.34C10.3167 9.29333 10.36 9.26 10.36 9.24L10.37 9.25H10.41C10.45 9.20333 10.5033 9.16333 10.57 9.13C10.6367 9.09 10.6933 9.05 10.74 9.01C10.8867 8.90333 11.0333 8.78333 11.18 8.65C11.4467 8.43667 11.7067 8.2 11.96 7.94C12.22 7.67333 12.46 7.42333 12.68 7.19C12.7267 7.14333 12.76 7.12 12.78 7.12C12.8 7.12 12.81 7.13667 12.81 7.17C12.81 7.19667 12.7967 7.23333 12.77 7.28C12.7367 7.33333 12.6667 7.41 12.56 7.51C12.4533 7.61 12.3367 7.73667 12.21 7.89L11.63 8.54C11.4833 8.71333 11.3267 8.87667 11.16 9.03C10.9867 9.19 10.8133 9.33333 10.64 9.46C10.5667 9.52 10.49 9.57333 10.41 9.62C10.33 9.67333 10.2467 9.72 10.16 9.76ZM12.91 7.15C12.89 7.15 12.88 7.13333 12.88 7.1C12.88 7.06 12.89 7.04 12.91 7.04C12.9167 7.04 12.9333 7.03333 12.96 7.02C12.9867 7.00667 13.0067 7 13.02 7C13.0267 7 13.03 7.00333 13.03 7.01C13.03 7.02333 13.0133 7.05 12.98 7.09C12.94 7.13 12.9167 7.15 12.91 7.15ZM12.51 10.22C12.45 10.2 12.3767 10.1733 12.29 10.14C12.2033 10.1067 12.1467 10.05 12.12 9.97C12.1133 9.95 12.11 9.91 12.11 9.85C12.11 9.77667 12.1267 9.71333 12.16 9.66C12.2 9.6 12.2333 9.54333 12.26 9.49C12.3533 9.33 12.4533 9.17667 12.56 9.03C12.6667 8.87667 12.7767 8.72667 12.89 8.58C12.9633 8.48 13.04 8.37333 13.12 8.26C13.1933 8.14667 13.2667 8.04333 13.34 7.95C13.34 7.95 13.3533 7.93 13.38 7.89C13.4067 7.85667 13.4833 7.77 13.61 7.63H13.59C13.59 7.59 13.5967 7.57 13.61 7.57C13.6367 7.54333 13.65 7.50667 13.65 7.46C13.6767 7.44 13.71 7.39667 13.75 7.33C13.7967 7.27 13.8267 7.24 13.84 7.24L13.82 7.19C13.8733 7.14333 13.9267 7.07333 13.98 6.98C14.04 6.88 14.0867 6.79667 14.12 6.73C14.2267 6.60333 14.3333 6.48 14.44 6.36C14.5467 6.24667 14.6333 6.11333 14.7 5.96L14.71 5.93H14.7C14.66 5.96333 14.6133 5.98 14.56 5.98C14.5133 5.98 14.4633 5.96333 14.41 5.93C14.3567 5.90333 14.3067 5.87667 14.26 5.85L14.17 5.79C14.1233 5.85 14.07 5.90333 14.01 5.95C13.9567 6.00333 13.9 6.06333 13.84 6.13L13.06 7.03L12.75 7.35C12.7033 7.39667 12.6633 7.42 12.63 7.42C12.59 7.42 12.57 7.40667 12.57 7.38C12.57 7.34 12.6067 7.28333 12.68 7.21C12.7867 7.10333 12.89 7.00333 12.99 6.91C13.09 6.81 13.1867 6.71 13.28 6.61C13.36 6.51667 13.4367 6.42333 13.51 6.33C13.5833 6.24333 13.6533 6.15333 13.72 6.06C13.7733 5.98667 13.8333 5.91333 13.9 5.84C13.9667 5.77333 14.0167 5.69667 14.05 5.61V5.6C14.05 5.58 14.0433 5.55667 14.03 5.53C14.0167 5.51 14.01 5.48667 14.01 5.46C14.01 5.4 14.02 5.33667 14.04 5.27C14.06 5.19667 14.08 5.13667 14.1 5.09C14.2 4.89667 14.3233 4.71667 14.47 4.55C14.61 4.38333 14.7567 4.21333 14.91 4.04C14.9633 3.98 15.0233 3.91667 15.09 3.85C15.1567 3.78333 15.2233 3.72667 15.29 3.68L15.47 3.55L15.61 3.48C15.6767 3.49333 15.7667 3.54 15.88 3.62C16 3.70667 16.05 3.78667 16.03 3.86C16.03 3.90667 15.9833 3.97333 15.89 4.06C15.8033 4.15333 15.7433 4.22333 15.71 4.27L15.5 4.52L15.38 4.6L15.22 4.79C15.1867 4.82333 15.1533 4.85333 15.12 4.88C15.0933 4.91333 15.0633 4.94333 15.03 4.97C15.0167 5.00333 14.99 5.02 14.95 5.02C14.91 5.08667 14.8233 5.16667 14.69 5.26C14.5567 5.34667 14.49 5.42667 14.49 5.5C14.4767 5.50667 14.4567 5.55 14.43 5.63C14.4033 5.70333 14.4233 5.74 14.49 5.74V5.72H14.5C14.52 5.72 14.5633 5.71 14.63 5.69C14.6967 5.66333 14.73 5.64667 14.73 5.64H14.77C14.7967 5.61333 14.8267 5.59333 14.86 5.58C14.8933 5.57333 14.9233 5.56667 14.95 5.56C14.99 5.54 15.02 5.52 15.04 5.5C15.0667 5.48 15.0967 5.46667 15.13 5.46C15.1567 5.44667 15.2 5.44 15.26 5.44C15.3733 5.44 15.4767 5.47667 15.57 5.55C15.67 5.61667 15.7433 5.69667 15.79 5.79L15.8 5.82C15.8 5.84667 15.7867 5.87 15.76 5.89L15.58 5.99L15.47 6.07L15.38 6.1L15.19 6.28L15.17 6.3C15.1433 6.3 15.13 6.31 15.13 6.33C15.0967 6.38333 15.06 6.41 15.02 6.41H15.01V6.48C14.9967 6.48667 14.98 6.50333 14.96 6.53C14.9467 6.55 14.93 6.56 14.91 6.56C14.8833 6.56 14.87 6.56667 14.87 6.58H14.85L14.87 6.62C14.8033 6.64 14.75 6.66667 14.71 6.7C14.6833 6.73333 14.6667 6.76333 14.66 6.79C14.6467 6.81667 14.63 6.84 14.61 6.86C14.5833 6.89333 14.5367 6.94333 14.47 7.01C14.41 7.07667 14.3733 7.13 14.36 7.17C14.36 7.17667 14.3567 7.18 14.35 7.18V7.19L14.25 7.25C14.25 7.29 14.2167 7.34333 14.15 7.41C14.0833 7.48333 14.02 7.55 13.96 7.61C13.9 7.67 13.87 7.71333 13.87 7.74L13.89 7.78H13.87C13.8367 7.80667 13.78 7.86667 13.7 7.96C13.6267 8.05333 13.59 8.12333 13.59 8.17H13.58C13.58 8.17 13.5633 8.17667 13.53 8.19C13.4967 8.21 13.4567 8.27333 13.41 8.38C13.3833 8.4 13.33 8.46333 13.25 8.57C13.17 8.67 13.13 8.74 13.13 8.78C13.13 8.78667 13.1267 8.79 13.12 8.79C13.0733 8.85667 13.0267 8.95 12.98 9.07C12.94 9.19 12.94 9.25 12.98 9.25C13.1333 9.15 13.29 9.03 13.45 8.89C13.5833 8.75667 13.72 8.62667 13.86 8.5C14.0067 8.36667 14.1467 8.23333 14.28 8.1C14.3733 8 14.4733 7.89 14.58 7.77C14.6867 7.65667 14.7867 7.55333 14.88 7.46L15.15 7.21C15.1767 7.18333 15.1933 7.17 15.2 7.17C15.22 7.17 15.2067 7.20667 15.16 7.28C15.1133 7.35333 15.08 7.4 15.06 7.42C14.9933 7.48667 14.93 7.56333 14.87 7.65C14.81 7.73667 14.7567 7.80333 14.71 7.85C14.63 7.93667 14.5533 8.02667 14.48 8.12C14.4133 8.22 14.3367 8.31333 14.25 8.4C14.2233 8.43333 14.19 8.46667 14.15 8.5C14.1167 8.52667 14.08 8.55667 14.04 8.59C13.9733 8.65667 13.91 8.73667 13.85 8.83C13.79 8.91667 13.7333 8.99667 13.68 9.07C13.66 9.09667 13.6267 9.14 13.58 9.2C13.5333 9.26 13.51 9.30667 13.51 9.34L13.49 9.35L13.34 9.56C13.3 9.60667 13.27 9.62667 13.25 9.62C13.2233 9.62 13.1967 9.64333 13.17 9.69L13.1 9.76C12.9867 9.95333 12.8333 10.0933 12.64 10.18C12.6333 10.18 12.61 10.18 12.57 10.18C12.53 10.1867 12.51 10.2 12.51 10.22ZM15.26 7.18C15.2333 7.18 15.22 7.16 15.22 7.12C15.22 7.08667 15.2333 7.07 15.26 7.07C15.2667 7.07 15.2833 7.06333 15.31 7.05C15.33 7.03667 15.3467 7.03 15.36 7.03C15.3667 7.03 15.37 7.03333 15.37 7.04C15.37 7.06 15.3533 7.08667 15.32 7.12C15.2867 7.16 15.2667 7.18 15.26 7.18ZM18.56 4.66C18.56 4.66 18.51 4.65 18.41 4.63C18.3033 4.61 18.1967 4.57 18.09 4.51C18.0567 4.47667 18.01 4.44333 17.95 4.41C17.89 4.37 17.88 4.32667 17.92 4.28C17.94 4.25333 17.9633 4.24 17.99 4.24C18.0167 4.2 18.0467 4.16667 18.08 4.14C18.1133 4.11333 18.14 4.08 18.16 4.04C18.3333 3.82 18.52 3.61333 18.72 3.42C18.92 3.22667 19.13 3.04333 19.35 2.87C19.4233 2.80333 19.4933 2.73667 19.56 2.67C19.62 2.60333 19.6933 2.55333 19.78 2.52C19.88 2.47333 19.9467 2.46333 19.98 2.49C20.0067 2.51667 20.02 2.53 20.02 2.53C20.02 2.54333 20.0133 2.55 20 2.55C19.9867 2.60333 19.97 2.65 19.95 2.69C19.91 2.73667 19.8633 2.78 19.81 2.82C19.75 2.86 19.7133 2.91 19.7 2.97C19.7 2.99667 19.6933 3.01 19.68 3.01C19.6467 3.04333 19.58 3.10667 19.48 3.2C19.38 3.29333 19.33 3.36333 19.33 3.41C19.3033 3.41 19.29 3.41667 19.29 3.43H19.28C19.2667 3.49667 19.2367 3.54667 19.19 3.58C19.1433 3.62 19.0967 3.66333 19.05 3.71C19.0167 3.74333 18.99 3.78667 18.97 3.84C18.95 3.89333 18.9267 3.94333 18.9 3.99C18.8733 4.02333 18.8433 4.05333 18.81 4.08C18.7767 4.1 18.75 4.13 18.73 4.17C18.69 4.23667 18.68 4.31 18.7 4.39C18.72 4.47 18.72 4.54667 18.7 4.62C18.6933 4.64667 18.6667 4.66333 18.62 4.67C18.58 4.67 18.56 4.66667 18.56 4.66ZM14.8 9.85C14.5533 9.75667 14.4433 9.57 14.47 9.29L14.53 9.18C14.5767 9.10667 14.6133 9.03333 14.64 8.96C14.6667 8.88667 14.7 8.81667 14.74 8.75C14.9333 8.41 15.13 8.07667 15.33 7.75C15.5367 7.41667 15.75 7.09 15.97 6.77C15.9833 6.76333 15.99 6.75333 15.99 6.74C15.9967 6.72667 16.0033 6.72 16.01 6.72V6.69C16.0567 6.65 16.1233 6.56667 16.21 6.44C16.2967 6.32 16.3867 6.18667 16.48 6.04C16.58 5.89333 16.6633 5.78333 16.73 5.71C16.6633 5.75667 16.5933 5.80667 16.52 5.86C16.4533 5.92 16.3933 5.98667 16.34 6.06C16.3067 6.1 16.2367 6.17667 16.13 6.29C16.0233 6.41 15.9067 6.54 15.78 6.68C15.6467 6.82667 15.53 6.96 15.43 7.08C15.3233 7.19333 15.2567 7.27 15.23 7.31C15.1167 7.43 15.0367 7.49 14.99 7.49C14.97 7.49 14.96 7.48 14.96 7.46C14.96 7.42 14.9933 7.36 15.06 7.28L15.51 6.77C15.5767 6.69667 15.64 6.63 15.7 6.57C15.76 6.51 15.8167 6.44667 15.87 6.38C15.9167 6.33333 15.9633 6.28333 16.01 6.23C16.05 6.17 16.0933 6.11667 16.14 6.07L16.36 5.84C16.4067 5.79333 16.4533 5.74 16.5 5.68C16.54 5.61333 16.5833 5.55667 16.63 5.51C16.91 5.22333 17.1067 5.04333 17.22 4.97C17.3333 4.89667 17.42 4.88333 17.48 4.93C17.5 4.91 17.5233 4.9 17.55 4.9C17.5833 4.9 17.6133 4.90667 17.64 4.92C17.6667 4.93333 17.69 4.94333 17.71 4.95C17.7433 4.97 17.8 5.00667 17.88 5.06C17.9533 5.11333 18.0133 5.17 18.06 5.23C18.1067 5.29 18.1 5.34667 18.04 5.4C17.9867 5.46667 17.9233 5.51333 17.85 5.54C17.7767 5.56667 17.7067 5.61333 17.64 5.68C17.5933 5.72 17.5433 5.76333 17.49 5.81C17.4367 5.85667 17.3967 5.90667 17.37 5.96L17.36 5.98C17.3667 6.08 17.3 6.18333 17.16 6.29C17.02 6.39667 16.9133 6.48667 16.84 6.56C16.8133 6.59333 16.79 6.64 16.77 6.7H16.76L16.69 6.72C16.67 6.78667 16.63 6.84 16.57 6.88C16.51 6.92 16.48 6.97667 16.48 7.05C16.42 7.07 16.37 7.13333 16.33 7.24C16.29 7.34 16.2467 7.39 16.2 7.39V7.43C16.2 7.47667 16.17 7.53 16.11 7.59C16.0567 7.65 16.01 7.68 15.97 7.68C15.97 7.69333 15.97 7.71 15.97 7.73C15.97 7.74333 15.9667 7.75 15.96 7.75C15.92 7.78333 15.9 7.83667 15.9 7.91H15.86V7.92L15.89 7.99L15.8 8.01C15.7933 8.04333 15.7633 8.10333 15.71 8.19C15.65 8.28333 15.5967 8.33 15.55 8.33V8.34H15.54L15.61 8.41H15.59V8.43H15.58C15.54 8.41 15.5133 8.4 15.5 8.4V8.41C15.5133 8.45 15.52 8.48 15.52 8.5C15.52 8.55333 15.49 8.58 15.43 8.58C15.43 8.58667 15.43 8.59 15.43 8.59L15.45 8.62V8.64C15.39 8.64667 15.36 8.69667 15.36 8.79H15.33L15.3 8.78C15.28 8.84 15.26 8.90667 15.24 8.98C15.2133 9.04667 15.1867 9.11333 15.16 9.18C15.1533 9.22667 15.1367 9.27333 15.11 9.32C15.09 9.36 15.08 9.40667 15.08 9.46H15.09V9.45C15.19 9.37667 15.31 9.3 15.45 9.22C15.59 9.14 15.7067 9.05333 15.8 8.96L16.9 7.92L17.32 7.52C17.3333 7.5 17.37 7.46667 17.43 7.42C17.4833 7.37333 17.53 7.34 17.57 7.32C17.59 7.31333 17.6167 7.31667 17.65 7.33C17.69 7.34333 17.7 7.36 17.68 7.38L17.29 7.71C17.17 7.80333 17.0867 7.89667 17.04 7.99C16.9933 8.08333 16.9067 8.18333 16.78 8.29C16.7 8.36333 16.6233 8.44 16.55 8.52C16.47 8.60667 16.39 8.68667 16.31 8.76L15.93 9.1C15.8433 9.17333 15.7633 9.25667 15.69 9.35C15.61 9.44333 15.5233 9.52667 15.43 9.6L15.24 9.76C15.2067 9.78667 15.16 9.81333 15.1 9.84C15.04 9.86667 14.98 9.88 14.92 9.88C14.8933 9.88 14.8533 9.87 14.8 9.85ZM17.74 7.26C17.72 7.26 17.71 7.24333 17.71 7.21C17.71 7.17 17.72 7.15 17.74 7.15C17.7533 7.15 17.7733 7.14333 17.8 7.13C17.82 7.11667 17.8367 7.11 17.85 7.11C17.8567 7.11 17.86 7.11333 17.86 7.12C17.86 7.14 17.8433 7.17 17.81 7.21C17.7767 7.24333 17.7533 7.26 17.74 7.26ZM17.22 11.17C17.16 11.13 17.1 11.0867 17.04 11.04C16.98 10.9867 16.94 10.9333 16.92 10.88L16.84 10.65C16.82 10.5833 16.7933 10.52 16.76 10.46C16.72 10.3933 16.7 10.3233 16.7 10.25C16.72 9.93667 16.8067 9.66 16.96 9.42C17.1133 9.18 17.28 8.94333 17.46 8.71C17.6133 8.49 17.78 8.28 17.96 8.08C18.14 7.88 18.33 7.7 18.53 7.54C18.61 7.48667 18.6833 7.44 18.75 7.4C18.8233 7.35333 18.8967 7.31333 18.97 7.28L19.08 7.22L19.11 7.25C19.05 7.30333 18.99 7.35 18.93 7.39C18.8633 7.43 18.7967 7.47333 18.73 7.52L18.66 7.6L18.51 7.7C18.4767 7.72667 18.45 7.75333 18.43 7.78C18.4033 7.80667 18.3767 7.83 18.35 7.85C18.2833 7.91667 18.22 7.98333 18.16 8.05C18.0933 8.12333 18.0367 8.19667 17.99 8.27C17.9633 8.29667 17.93 8.34 17.89 8.4C17.8233 8.49333 17.7633 8.58667 17.71 8.68C17.65 8.77333 17.5933 8.87 17.54 8.97C17.5 9.03667 17.4633 9.1 17.43 9.16C17.39 9.22 17.36 9.28667 17.34 9.36C17.3067 9.44667 17.2767 9.53333 17.25 9.62C17.23 9.7 17.2067 9.78667 17.18 9.88V10.04C17.18 10.0933 17.1733 10.17 17.16 10.27C17.1533 10.3633 17.15 10.4633 17.15 10.57C17.15 10.6967 17.1667 10.8133 17.2 10.92C17.24 11.0333 17.32 11.09 17.44 11.09C17.5067 11.05 17.59 11.03 17.69 11.03L17.96 10.92L18.42 10.55C18.6267 10.3967 18.8067 10.22 18.96 10.02C19.1133 9.82666 19.26 9.63 19.4 9.43C19.56 9.21667 19.71 8.99667 19.85 8.77C19.99 8.54333 20.06 8.28333 20.06 7.99C20.06 7.92333 20.0567 7.86 20.05 7.8C20.0367 7.73333 20.0067 7.68 19.96 7.64C19.9333 7.61333 19.8767 7.53333 19.79 7.4C19.71 7.27333 19.65 7.19 19.61 7.15C19.5433 7.10333 19.48 7.02667 19.42 6.92C19.36 6.81333 19.2833 6.67667 19.19 6.51C19.1633 6.46333 19.13 6.39667 19.09 6.31C19.0567 6.23 19.03 6.17 19.01 6.13C19.0033 6.13 18.9833 6.14667 18.95 6.18C18.9233 6.21333 18.91 6.23333 18.91 6.24L18.81 6.33C18.75 6.38333 18.6867 6.44333 18.62 6.51C18.5533 6.57667 18.4933 6.64667 18.44 6.72C18.3333 6.83333 18.22 6.94333 18.1 7.05C17.98 7.15667 17.8633 7.26667 17.75 7.38C17.73 7.40667 17.6833 7.45333 17.61 7.52C17.5367 7.58 17.47 7.64333 17.41 7.71L17.4 7.73C17.38 7.73 17.3633 7.70667 17.35 7.66C17.3367 7.62 17.34 7.59 17.36 7.57C17.3867 7.52333 17.43 7.46667 17.49 7.4C17.55 7.34 17.5867 7.30333 17.6 7.29C17.7067 7.19 17.8 7.10333 17.88 7.03C17.96 6.95 18.0467 6.85667 18.14 6.75C18.2133 6.66333 18.2933 6.58 18.38 6.5C18.4667 6.42 18.55 6.34333 18.63 6.27C18.7433 6.17 18.82 6.07333 18.86 5.98C18.8933 5.89333 18.93 5.81667 18.97 5.75C18.95 5.67667 18.94 5.60333 18.94 5.53C18.94 5.43667 18.96 5.33333 19 5.22C19.0333 5.10667 19.1067 4.99 19.22 4.87C19.3333 4.75 19.4833 4.60333 19.67 4.43C19.8567 4.25667 20.0467 4.11333 20.24 4C20.3333 3.95333 20.44 3.90333 20.56 3.85C20.6733 3.79 20.7733 3.75667 20.86 3.75C20.8933 3.74333 20.91 3.74667 20.91 3.76C20.91 3.78 20.9267 3.79 20.96 3.79C20.9867 3.79 21.0133 3.78333 21.04 3.77C21.0667 3.75667 21.0933 3.75 21.12 3.75C21.2 3.75 21.2767 3.8 21.35 3.9C21.4233 4.00667 21.47 4.09333 21.49 4.16C21.4967 4.17333 21.5233 4.21667 21.57 4.29C21.61 4.35667 21.62 4.4 21.6 4.42C21.6 4.42 21.5967 4.42667 21.59 4.44C21.5767 4.45333 21.5533 4.46 21.52 4.46C21.46 4.46 21.3733 4.42333 21.26 4.35C21.12 4.37667 21.0433 4.40333 21.03 4.43C21.01 4.45 20.9633 4.47667 20.89 4.51C20.89 4.51 20.8733 4.52333 20.84 4.55C20.8067 4.57667 20.7667 4.60333 20.72 4.63H20.7C20.6867 4.67 20.6633 4.69 20.63 4.69L20.59 4.76C20.5433 4.83333 20.45 4.92 20.31 5.02C20.17 5.12667 20.0633 5.21667 19.99 5.29L19.54 5.74C19.5067 5.77333 19.4567 5.82 19.39 5.88C19.3233 5.94667 19.28 6.00333 19.26 6.05C19.24 6.13 19.2767 6.25 19.37 6.41C19.4567 6.57 19.5567 6.72667 19.67 6.88C19.7833 7.03333 19.8633 7.14667 19.91 7.22C19.9833 7.32667 20.0467 7.42667 20.1 7.52C20.16 7.61333 20.2133 7.72 20.26 7.84L20.37 8.24C20.3767 8.28 20.3833 8.31667 20.39 8.35C20.3967 8.38333 20.4 8.41667 20.4 8.45C20.4 8.51667 20.3933 8.58667 20.38 8.66C20.3733 8.72667 20.3633 8.79667 20.35 8.87C20.35 8.91 20.35 8.95 20.35 8.99C20.3433 9.02333 20.3367 9.06 20.33 9.1C20.3167 9.10667 20.3067 9.11333 20.3 9.12C20.3 9.12667 20.3 9.13 20.3 9.13C20.28 9.13 20.26 9.11667 20.24 9.09C20.22 9.07 20.1933 9.09667 20.16 9.17C20.14 9.20333 20.13 9.22667 20.13 9.24C20.13 9.26667 20.15 9.27667 20.19 9.27C20.2233 9.27 20.2167 9.3 20.17 9.36C20.1633 9.38 20.13 9.42667 20.07 9.5C20.01 9.56667 19.95 9.63333 19.89 9.7C19.8367 9.76667 19.81 9.81333 19.81 9.84L19.77 9.83V9.9C19.71 9.90667 19.6767 9.93 19.67 9.97C19.6567 10.0167 19.6267 10.0567 19.58 10.09C19.5533 10.1167 19.52 10.1367 19.48 10.15C19.44 10.1567 19.41 10.18 19.39 10.22L19.36 10.32H19.32L19.33 10.36H19.32V10.37C19.28 10.3833 19.24 10.4067 19.2 10.44C19.16 10.4667 19.1333 10.5 19.12 10.54C19.12 10.56 19.1167 10.57 19.11 10.57L19.01 10.54V10.53H19C18.9867 10.59 18.9233 10.6533 18.81 10.72C18.69 10.78 18.63 10.8167 18.63 10.83L18.65 10.89C18.5633 10.89 18.47 10.9167 18.37 10.97C18.2767 11.03 18.19 11.0733 18.11 11.1C18.05 11.14 17.96 11.1733 17.84 11.2C17.7267 11.2267 17.6133 11.24 17.5 11.24C17.3867 11.24 17.2933 11.2167 17.22 11.17ZM19.26 5.82V5.81H19.28C19.3733 5.67667 19.4967 5.54667 19.65 5.42C19.8033 5.28667 19.94 5.16 20.06 5.04C20.1067 4.99333 20.1567 4.94667 20.21 4.9C20.2567 4.86 20.29 4.81333 20.31 4.76H20.33L20.41 4.66C20.4367 4.58667 20.45 4.54333 20.45 4.53C20.45 4.52333 20.45 4.51667 20.45 4.51C20.4433 4.51 20.44 4.51 20.44 4.51C20.42 4.51 20.3867 4.52333 20.34 4.55C20.2933 4.57667 20.2467 4.61 20.2 4.65L20 4.81C19.88 4.91667 19.7733 5.02667 19.68 5.14L19.43 5.36C19.3833 5.4 19.3533 5.44333 19.34 5.49C19.3267 5.53667 19.2967 5.58333 19.25 5.63C19.25 5.63667 19.25 5.67 19.25 5.73C19.25 5.79 19.2533 5.82 19.26 5.82ZM23.99 10.08L23.87 10.18C23.83 10.1867 23.7767 10.1933 23.71 10.2C23.6367 10.2133 23.56 10.22 23.48 10.22C23.3867 10.22 23.2933 10.21 23.2 10.19C23.1067 10.17 23.04 10.1433 23 10.11C22.9933 10.07 22.99 10.0467 22.99 10.04C22.99 10.0267 22.98 10.0033 22.96 9.97C22.9333 9.91 22.9167 9.89 22.91 9.91C22.9033 9.93 22.89 9.91 22.87 9.85C22.8633 9.82333 22.86 9.77333 22.86 9.7C22.86 9.58667 22.8667 9.46333 22.88 9.33C22.8933 9.19667 22.9 9.10667 22.9 9.06C22.9 8.92667 22.9167 8.81 22.95 8.71C22.9833 8.60333 23.0133 8.5 23.04 8.4C23.0867 8.2 23.1533 8.01333 23.24 7.84C23.32 7.66 23.4067 7.48667 23.5 7.32C23.58 7.18667 23.66 7.05333 23.74 6.92C23.8267 6.78667 23.9167 6.66 24.01 6.54L24.05 6.48C23.9967 6.48667 23.9533 6.51333 23.92 6.56C23.8867 6.6 23.8567 6.64 23.83 6.68C23.75 6.77333 23.6633 6.85667 23.57 6.93C23.4033 7.07667 23.21 7.26333 22.99 7.49C22.77 7.71 22.5533 7.94333 22.34 8.19C22.1267 8.43 21.9333 8.65667 21.76 8.87C21.5867 9.09 21.4633 9.26333 21.39 9.39C21.3167 9.52333 21.2667 9.57333 21.24 9.54C21.2067 9.50667 21.1767 9.49333 21.15 9.5C21.0967 9.46667 21.05 9.43 21.01 9.39C20.9767 9.35667 20.96 9.31667 20.96 9.27C20.96 9.20333 20.9767 9.14667 21.01 9.1C21.1033 8.94 21.2133 8.77 21.34 8.59C21.4667 8.41667 21.6467 8.14667 21.88 7.78C22 7.59333 22.11 7.41333 22.21 7.24C22.31 7.06 22.4067 6.88667 22.5 6.72C22.6 6.6 22.6533 6.51333 22.66 6.46C22.6733 6.40667 22.68 6.36 22.68 6.32C22.68 6.28 22.7133 6.21667 22.78 6.13C22.7933 6.11 22.82 6.05333 22.86 5.96C22.9 5.86667 22.9233 5.81667 22.93 5.81C22.9767 5.73667 23.02 5.66 23.06 5.58C23.1067 5.5 23.1533 5.42333 23.2 5.35C23.2933 5.21 23.3633 5.09 23.41 4.99C23.4633 4.89 23.54 4.77667 23.64 4.65C23.6733 4.61667 23.7267 4.53333 23.8 4.4C23.8733 4.26667 23.95 4.13 24.03 3.99C24.11 3.85667 24.1533 3.79 24.16 3.79C24.1733 3.74333 24.2033 3.69333 24.25 3.64C24.3033 3.58 24.3433 3.53333 24.37 3.5C24.43 3.42667 24.4833 3.35 24.53 3.27C24.5767 3.19 24.6267 3.11333 24.68 3.04C24.7267 2.96 24.7767 2.89333 24.83 2.84C24.8767 2.78667 24.9233 2.72667 24.97 2.66C25.0967 2.49333 25.21 2.35 25.31 2.23C25.41 2.11667 25.53 1.98333 25.67 1.83C25.71 1.79667 25.7667 1.74 25.84 1.66C25.9067 1.58667 25.9633 1.54 26.01 1.52L26.43 1.36C26.4767 1.32667 26.4867 1.29333 26.46 1.26C26.4333 1.22 26.4367 1.18667 26.47 1.16C26.53 1.11333 26.59 1.07 26.65 1.03C26.71 0.996666 26.7733 0.96 26.84 0.92C26.8867 0.893333 26.9333 0.86 26.98 0.82C27.0267 0.786667 27.08 0.763333 27.14 0.75C27.1733 0.723333 27.25 0.676667 27.37 0.61C27.4967 0.55 27.58 0.513333 27.62 0.5L28.08 0.25C28.12 0.23 28.1567 0.216667 28.19 0.21C28.23 0.21 28.2633 0.2 28.29 0.18L28.6 0.14L28.66 0.12C28.6733 0.0933332 28.7267 0.0733333 28.82 0.0599999C28.9133 0.0466666 29.01 0.0366664 29.11 0.0299997C29.21 0.0166664 29.2767 0.00999975 29.31 0.00999975H29.44C29.4467 0.00333309 29.4667 0 29.5 0C29.62 0 29.73 0.00333309 29.83 0.00999975C29.9233 0.0233331 30.0167 0.0433335 30.11 0.0700002C30.15 0.0766668 30.1867 0.0833335 30.22 0.0900002C30.26 0.0966668 30.3 0.106667 30.34 0.12C30.3733 0.153333 30.4467 0.196667 30.56 0.25C30.6733 0.303333 30.7333 0.35 30.74 0.39L30.7 0.45L30.63 0.38C30.5767 0.346667 30.52 0.31 30.46 0.27C30.4067 0.23 30.3467 0.203333 30.28 0.19C30.24 0.176667 30.2067 0.17 30.18 0.17C30.1467 0.17 30.11 0.17 30.07 0.17C29.95 0.17 29.83 0.183333 29.71 0.21C29.5967 0.236667 29.4833 0.26 29.37 0.28L29.12 0.31L28.89 0.43L28.84 0.42C28.8267 0.44 28.7733 0.456666 28.68 0.47C28.58 0.49 28.5333 0.513333 28.54 0.54C28.5067 0.54 28.49 0.536666 28.49 0.53C28.3967 0.596666 28.32 0.663333 28.26 0.73C28.2 0.79 28.1133 0.853333 28 0.92C27.94 0.946667 27.8533 0.976666 27.74 1.01C27.62 1.03667 27.5233 1.06 27.45 1.08C27.4167 1.16 27.3333 1.22667 27.2 1.28C27.0667 1.33333 26.9633 1.38667 26.89 1.44C26.63 1.64667 26.3733 1.85333 26.12 2.06C25.8667 2.26 25.62 2.47 25.38 2.69L25.2 2.92C24.8267 3.29333 24.4867 3.71667 24.18 4.19C23.8667 4.66333 23.6467 5.07667 23.52 5.43L23.48 5.54C23.4667 5.56667 23.4433 5.59333 23.41 5.62C23.3767 5.64 23.3533 5.66667 23.34 5.7L23.32 5.79C23.16 6.08333 23.0467 6.3 22.98 6.44C22.9067 6.58667 22.86 6.69 22.84 6.75C22.8133 6.81 22.7867 6.86 22.76 6.9L22.58 7.18L22.34 7.61L22.23 7.77L22.13 7.98L22.03 8.08L21.98 8.24C21.9667 8.28 21.9333 8.34333 21.88 8.43C21.8267 8.51 21.7767 8.58667 21.73 8.66C21.7633 8.63333 21.7933 8.60333 21.82 8.57C21.84 8.53 21.8733 8.49 21.92 8.45L22.13 8.23L22.24 8.06C22.3267 7.93333 22.43 7.81667 22.55 7.71C22.6633 7.61 22.77 7.5 22.87 7.38C22.8833 7.36667 22.9233 7.32667 22.99 7.26C23.0633 7.18667 23.1033 7.15 23.11 7.15C23.13 7.08333 23.18 7.02 23.26 6.96C23.34 6.9 23.3967 6.85333 23.43 6.82L23.77 6.47L23.78 6.45L23.8 6.47V6.45C23.82 6.40333 23.86 6.36 23.92 6.32C23.98 6.28 24.0267 6.24 24.06 6.2C24.1067 6.15333 24.1867 6.06333 24.3 5.93C24.4133 5.79 24.5433 5.72 24.69 5.72C24.77 5.72 24.84 5.74 24.9 5.78C24.9333 5.78667 24.9833 5.82333 25.05 5.89C25.1233 5.95667 25.1833 6.01667 25.23 6.07C25.2833 6.13 25.2967 6.17 25.27 6.19C25.23 6.22333 25.1967 6.24667 25.17 6.26C25.13 6.28667 25.07 6.34 24.99 6.42C24.9033 6.50667 24.8367 6.54667 24.79 6.54C24.79 6.54 24.77 6.57 24.73 6.63C24.69 6.69667 24.5767 6.84667 24.39 7.08C24.37 7.06 24.3233 7.11333 24.25 7.24C24.17 7.36 24.1233 7.44333 24.11 7.49C24.0633 7.59 24.01 7.67667 23.95 7.75C23.8833 7.81667 23.8233 7.89667 23.77 7.99V8.01C23.77 8.04333 23.76 8.06667 23.74 8.08C23.72 8.09333 23.7033 8.11 23.69 8.13V8.23C23.69 8.25667 23.6667 8.31667 23.62 8.41C23.5733 8.49667 23.5333 8.59 23.5 8.69C23.5133 8.71667 23.52 8.76 23.52 8.82C23.52 8.92 23.4833 9.00667 23.41 9.08C23.3433 9.14667 23.3133 9.24667 23.32 9.38C23.3333 9.41333 23.3333 9.51667 23.32 9.69C23.3133 9.86333 23.3567 9.99333 23.45 10.08C23.4767 10.1067 23.5133 10.12 23.56 10.12C23.6467 10.12 23.7467 10.09 23.86 10.03C23.98 9.97 24.0567 9.93 24.09 9.91L24.18 9.85C24.18 9.86333 24.1733 9.87 24.16 9.87C24.1533 9.89 24.13 9.92333 24.09 9.97C24.0433 10.0233 24.0267 10.06 24.04 10.08C24.0067 10.08 23.99 10.08 23.99 10.08Z" fill="black"/>
</svg>
