<svg width="154.9" height="17.131" viewBox="0 0 154.9 17.131" xmlns="http://www.w3.org/2000/svg"><path transform="translate(0 13.754) scale(.013672 -.013672)" d="m791 523q0 35-23.5 57.5t-56.5 35.5-69.5 18-63.5 5q-65 0-131.5-24t-120.5-67-88.5-102-34.5-129q0-42 15.5-74t42-55 60.5-39 71.5-25 75.5-13 71-4q82 0 163 14t161 36l39-104q-43-14-90.5-24t-96-16-97-9-93.5-3q-44 0-98.5 6t-109.5 19.5-107.5 35.5-93.5 55-65.5 77-24.5 101q0 69 26.5 129.5t70.5 110 103 88 124 65 132 40 129 13.5q58 0 118.5-9t110-34.5 81-70 31.5-116.5q0-26-4-52t-12-51h-195q17 23 33.5 53.5t16.5 61.5z"/><path transform="translate(13.166 13.754) scale(.013672 -.013672)" d="m429 480q44 0 83-12.5t68.5-37.5 46.5-61 17-83q0-11-0.5-34t-0.5-51.5 0-59.5 1-58 3-47 6-26h-171q15 43 24 93t9 96q0 37-7.5 70t-25 57.5-46 38.5-70.5 14q-44 0-84.5-22t-68.5-55q-1-32-1-64.5t0-65.5q0-5 0-20t0-35 1-42 2-41 3-32.5 5-16.5h-177q4 5 7.5 34t7 69.5 6.5 88 5 90 3.5 74.5 2.5 43q3 78 3 158 0 5 0 19.5t-0.5 34-1.5 41-3 40-5.5 31.5-8.5 15l191-2q-5 0-8-8t-4-11q-8-26-10.5-54.5t-4.5-55.5q-4-43-6-85.5t-4-85.5q45 32 102 45.5t111 13.5z"/><path transform="translate(22.654 13.754) scale(.013672 -.013672)" d="m339-15q-49 0-104 13t-101.5 40.5-77 69.5-30.5 100q0 71 28 127t75 94.5 109 59 130 20.5q54 0 96-17.5t70-49 42.5-74.5 14.5-95q0-50-15-96h-417q10-30 31.5-49t49-29.5 58-14.5 57.5-4q17 0 45.5 2.5t58.5 8 56.5 13.5 39.5 20l49-86q-66-25-130-39t-135-14zm0 430q-30 0-59.5-12t-53.5-31.5-42-46-26-54.5h286q3 30 0.5 56.5t-13.5 46-33 30.5-59 11z"/><path transform="translate(31.336 13.754) scale(.013672 -.013672)" d="m199 380q24 20 55.5 38t66 31.5 70 21.5 66.5 8v-86q-32 0-71-14t-76.5-36-67.5-50-44-57q0-7 0.5-26t1-44 1.5-52.5 3-51.5 4-41 5-21h-162q4 2 7 21.5t4.5 47.5 3 60.5 2 62.5 0.5 52 0 29q0 9 0 38t-1 61-3 59.5-6 33.5h148q-2-6-3-17.5t-2-24.5-1.5-25-0.5-18z"/><path transform="translate(37.379 13.754) scale(.013672 -.013672)" d="m199 380q24 20 55.5 38t66 31.5 70 21.5 66.5 8v-86q-32 0-71-14t-76.5-36-67.5-50-44-57q0-7 0.5-26t1-44 1.5-52.5 3-51.5 4-41 5-21h-162q4 2 7 21.5t4.5 47.5 3 60.5 2 62.5 0.5 52 0 29q0 9 0 38t-1 61-3 59.5-6 33.5h148q-2-6-3-17.5t-2-24.5-1.5-25-0.5-18z"/><path transform="translate(43.846 13.754) scale(.013672 -.013672)" d="m610 345q0-82 1-163.5t1-162.5q0-62-27.5-108.5t-71.5-77-99-45.5-110-15q-61 0-121.5 1t-120.5 2l10 116q15-6 42.5-11.5t57.5-9 58-5.5 46-2q47 0 84 8t63 27.5 40 53.5 14 85q0 9-0.5 18.5t-1.5 18.5q-40-29-88-43t-97-14q-72 0-119.5 22.5t-75.5 62-39.5 94-11.5 118.5q0 31 2 62t2 62q0 14-1.5 30.5t-10.5 27.5l182-1q-8-13-14.5-38t-10.5-53-6-54.5-2-42.5q0-40 5.5-74t21.5-59.5 43.5-40 71.5-14.5q18 0 41 3t44 11.5 37 22.5 19 36q3 18 3 36.5t0 35.5q0 15-1.5 50.5t-4.5 73-8.5 70-13.5 41.5l177 2q-4-6-6-28t-3-47.5-1-49 0-32.5z"/><path transform="translate(57.846 13.754) scale(.013672 -.013672)" d="m791 523q0 35-23.5 57.5t-56.5 35.5-69.5 18-63.5 5q-65 0-131.5-24t-120.5-67-88.5-102-34.5-129q0-42 15.5-74t42-55 60.5-39 71.5-25 75.5-13 71-4q82 0 163 14t161 36l39-104q-43-14-90.5-24t-96-16-97-9-93.5-3q-44 0-98.5 6t-109.5 19.5-107.5 35.5-93.5 55-65.5 77-24.5 101q0 69 26.5 129.5t70.5 110 103 88 124 65 132 40 129 13.5q58 0 118.5-9t110-34.5 81-70 31.5-116.5q0-26-4-52t-12-51h-195q17 23 33.5 53.5t16.5 61.5z"/><path transform="translate(71.012 13.754) scale(.013672 -.013672)" d="m199 380q24 20 55.5 38t66 31.5 70 21.5 66.5 8v-86q-32 0-71-14t-76.5-36-67.5-50-44-57q0-7 0.5-26t1-44 1.5-52.5 3-51.5 4-41 5-21h-162q4 2 7 21.5t4.5 47.5 3 60.5 2 62.5 0.5 52 0 29q0 9 0 38t-1 61-3 59.5-6 33.5h148q-2-6-3-17.5t-2-24.5-1.5-25-0.5-18z"/><path transform="translate(77.055 13.754) scale(.013672 -.013672)" d="m339-15q-49 0-104 13t-101.5 40.5-77 69.5-30.5 100q0 71 28 127t75 94.5 109 59 130 20.5q54 0 96-17.5t70-49 42.5-74.5 14.5-95q0-50-15-96h-417q10-30 31.5-49t49-29.5 58-14.5 57.5-4q17 0 45.5 2.5t58.5 8 56.5 13.5 39.5 20l49-86q-66-25-130-39t-135-14zm0 430q-30 0-59.5-12t-53.5-31.5-42-46-26-54.5h286q3 30 0.5 56.5t-13.5 46-33 30.5-59 11z"/><path transform="translate(85.736 13.754) scale(.013672 -.013672)" d="m418-12q17 5 21 22.5t5 31.5q-45-14-91-21t-92-7q-30 0-71.5 5t-79 19-64 39-26.5 66q0 35 25.5 60t65.5 41.5 90 25.5 98 14 90 6 66 2q0 14 0.5 27t0.5 27q0 25-9 43.5t-24.5 30.5-36.5 17.5-44 5.5q-22 0-47.5-6t-48.5-18-40-30.5-21-42.5l-126 17q18 46 50 78t72.5 52 86.5 29.5 92 9.5q44 0 85.5-11t74-33.5 52-57.5 19.5-83q0-51-1.5-101.5t-1.5-101.5q0-9 0-32.5t1.5-49 4.5-47 9-27.5zm-262 155q0-15 16-23t37.5-12.5 42.5-5.5 30-1q42 0 85 6t83 19q1 18 1.5 36t0.5 35l-26 1q-9 0-32.5-0.5t-53.5-2-62.5-5-59.5-9.5-44.5-15.5-17.5-22.5z"/><path transform="translate(94.473 13.754) scale(.013672 -.013672)" d="m802 0q10 18 16.5 51t10 69 5 70.5 1.5 55.5q0 26-4.5 51.5t-15.5 45-31 31.5-51 12q-38 0-72-20t-60-46q3-23 3-44 0-45-1-89t-1-89q0-25 0.5-49.5t4.5-48.5h-175q10 18 16.5 51t10.5 69 5 70.5 1 55.5q0 26-4.5 51.5t-15.5 45-31 31.5-51 12q-40 0-75.5-22t-61.5-51q-2-46-3-92t-1-93q0-7 0-27.5t1-43.5 3-42.5 7-23.5h-177q4 5 8 28.5t7 56 5 70 3.5 71.5 2 60 0.5 36q0 8-0.5 33.5t-2.5 53-6.5 50.5-13.5 26l175-1q-2-11-2-23.5t-1-24.5q37 27 82.5 44.5t92.5 17.5q50 0 94.5-20.5t71.5-64.5q39 37 94.5 61t109.5 24q48 0 85-15.5t62-44 38-67.5 13-86q0-45-1.5-89t-1.5-89q0-25 1-49.5t5-48.5z"/><path transform="translate(113.56 13.754) scale(.013672 -.013672)" d="m702 489q0 45-16 74.5t-43.5 47-63 24-74.5 6.5q-24 0-55-3.5t-63.5-11-64.5-19.5-56.5-30-40-42.5-15.5-55.5q0-27 19.5-46.5t50-33.5 68.5-23 75-15.5 69-10 51-6.5q24-4 58.5-9.5t71.5-14.5 73.5-22 65.5-31.5 47-43 18-56.5q0-34-18.5-60t-49-45.5-68-32-76-20.5-73.5-11-59-3q-106 0-210 17.5t-203 56.5q-10 4-23 9.5t-27 11.5-27 10-23 5q6 6 18.5 17t25 24 23 24.5 12.5 17.5q88-54 192.5-80t207.5-26q17 0 53.5 2.5t73 10.5 64 22.5 27.5 38.5q0 32-28.5 51t-75.5 31.5-107 20-122.5 16.5-122.5 21.5-107 34-75.5 54.5-28.5 83q0 53 21.5 94t58 72 83 52 97 34 100.5 19 92 6q70 0 133-11t109.5-40 74-81 27.5-134q0-20-1.5-39t-3.5-39h-152q5 22 9 43.5t4 44.5z"/><path transform="translate(125.97 13.754) scale(.013672 -.013672)" d="m374 482q55 0 116-15.5t111-47 83-79.5 33-113q0-43-16-77.5t-42.5-61-61.5-46-73.5-32-78.5-18.5-75-6q-57 0-117 13t-109.5 42-81 75.5-31.5 114.5q0 67 32.5 114.5t82.5 78 110.5 44.5 117.5 14zm-193-250q0-39 17.5-66t45-44 61.5-24.5 67-7.5q31 0 65 8t63 25 48 43.5 19 63.5-18 64.5-46 46-62.5 27.5-66.5 9q-33 0-67-8.5t-62-26-46-45-18-65.5z"/><path transform="translate(136.2 13.754) scale(.013672 -.013672)" d="m517 0q5 13 6.5 33.5t1.5 34.5q-42-31-94-45.5t-104-14.5q-50 0-104 14.5t-99 43.5-74.5 72.5-29.5 101.5q0 62 33.5 108.5t84 77.5 110.5 46.5 113 15.5q42 0 83.5-10t78.5-33q-1 10-1.5 34.5t-2 56-4 65.5-6.5 63.5-9.5 49.5-12.5 23l190 1q-7-5-11-28t-5.5-51-2-53.5-0.5-35.5q0-21 1-69t3.5-108.5 5.5-126 6.5-121.5 8.5-96 10-49zm-165 99q22 0 52.5 8.5t57.5 24.5 46 38 19 49q0 16 1 33t-1 32q-4 27-20 47t-38.5 33-48.5 19.5-51 6.5q-34 0-69.5-9t-64.5-28-47.5-48-18.5-69q0-37 17-63t43-42.5 58.5-24 64.5-7.5z"/><path transform="translate(146.17 13.754) scale(.013672 -.013672)" d="m418-12q17 5 21 22.5t5 31.5q-45-14-91-21t-92-7q-30 0-71.5 5t-79 19-64 39-26.5 66q0 35 25.5 60t65.5 41.5 90 25.5 98 14 90 6 66 2q0 14 0.5 27t0.5 27q0 25-9 43.5t-24.5 30.5-36.5 17.5-44 5.5q-22 0-47.5-6t-48.5-18-40-30.5-21-42.5l-126 17q18 46 50 78t72.5 52 86.5 29.5 92 9.5q44 0 85.5-11t74-33.5 52-57.5 19.5-83q0-51-1.5-101.5t-1.5-101.5q0-9 0-32.5t1.5-49 4.5-47 9-27.5zm-262 155q0-15 16-23t37.5-12.5 42.5-5.5 30-1q42 0 85 6t83 19q1 18 1.5 36t0.5 35l-26 1q-9 0-32.5-0.5t-53.5-2-62.5-5-59.5-9.5-44.5-15.5-17.5-22.5z"/></svg>