<svg width="126.84" height="16.52" viewBox="0 0 126.84 16.52" xmlns="http://www.w3.org/2000/svg"><path transform="translate(0 13.58) scale(.014 -.014)" d="m396-9q-106 0-181 44t-115.5 125-40.5 193q0 111 40.5 192t115.5 125 181 44q60 0 115-17t94-49q16-10 21.5-23.5t2.5-26.5-11.5-22.5-21.5-11.5-28 7q-71 56-170 56-115 0-175.5-71.5t-60.5-202.5 60.5-203 175.5-72q47 0 89.5 14t78.5 42q16 9 29.5 7.5t22.5-11 12-22.5-1.5-26-19.5-22q-40-34-95.5-51.5t-117.5-17.5z"/><path transform="translate(9.45 13.58) scale(.014 -.014)" d="m119-7q-47 0-47 48 0 0 0 26.5t0 71 0 100 0 114 0 114 0 100 0 71 0 26.5q0 48 47 48 48 0 48-48 0 0 0-20.5t0-52.5 0-68.5 0-68.5 0-52 0-20-6.5 0-6.5 0q21 56 68.5 85t108.5 29q87 0 130-48t43-147q0 0 0-18.5t0-48.5 0-63 0-62.5 0-48.5 0-19q0-23-12.5-35.5t-35.5-12.5q-22 0-34.5 12.5t-12.5 35.5q0 0 0 18.5t0 47.5 0 61.5 0 61.5 0 47.5 0 18.5q0 65-25 94t-79 29q-62 0-100-38.5t-38-104.5q0 0 0-17t0-43.5 0-56.5 0-57 0-44 0-17q0-48-48-48z"/><path transform="translate(17.486 13.58) scale(.014 -.014)" d="m119-5q-23 0-35 13.5t-12 37.5q0 0 0 21t0 56.5 0 78 0 84.5 0 77.5 0 56.5 0 21q0 51 47 51 48 0 48-51 0 0 0-21t0-56.5 0-77.5 0-84.5 0-78 0-56.5 0-21q0-24-12-37.5t-36-13.5zm0 604q-28 0-43.5 14.5t-15.5 40.5 15.5 40 43.5 14q60 0 60-54 0-55-60-55z"/><path transform="translate(20.832 13.58) scale(.014 -.014)" d="m120-7q-48 0-48 48 0 0 0 22t0 58.5 0 79.5 0 86 0 79 0 58 0 22q0 48 47 48 22 0 34-12t12-36q0 0 0-11t0-26.5 0-26.5 0-11-5 0-5 0q15 59 61 92.5t109 34.5q17 0 26.5-8.5t9.5-30.5q1-20-8.5-31.5t-32.5-13.5q0 0-8-1t-8-1q-66-6-101-42t-35-98q0 0 0-16.5t0-43 0-56 0-55.5 0-43 0-17q0-23-12-35.5t-36-12.5z"/><path transform="translate(25.998 13.58) scale(.014 -.014)" d="m281-9q-72 0-125.5 31t-82.5 87.5-29 134.5q0 77 29 133.5t82.5 87.5 125.5 31q73 0 126-31t82.5-87.5 29.5-133.5q0-78-29.5-134.5t-82.5-87.5-126-31zm0 75q65 0 103.5 45.5t38.5 132.5-38.5 132-103.5 45q-64 0-102.5-45t-38.5-132 38.5-132.5 102.5-45.5z"/><path transform="translate(33.88 13.58) scale(.014 -.014)" d="m119-7q-47 0-47 48 0 0 0 22t0 58.5 0 79.5 0 86 0 79 0 58 0 22q0 48 47 48 22 0 34-12t12-36q0 0 0-12t0-28 0-28 0-12-2.5 4-5.5 8-3 4q21 56 68.5 85t108.5 29q87 0 130-48t43-147q0 0 0-18.5t0-48.5 0-63 0-62.5 0-48.5 0-19q0-23-12.5-35.5t-35.5-12.5q-22 0-34.5 12.5t-12.5 35.5q0 0 0 18.5t0 47.5 0 61.5 0 61.5 0 47.5 0 18.5q0 65-25 94t-79 29q-62 0-100-38.5t-38-104.5q0 0 0-17t0-43.5 0-56.5 0-57 0-44 0-17q0-48-48-48z"/><path transform="translate(45.584 13.58) scale(.014 -.014)" d="m411-9q-114 0-193 43.5t-119 124.5-40 192q0 112 41 193.5t117.5 125.5 184.5 44q63 0 120.5-16.5t102.5-53.5q14-8 18.5-20.5t1.5-25.5-11.5-22.5-21-12-27.5 6.5q-38 30-84 44t-99 14q-118 0-179.5-72t-61.5-205q0-134 63.5-204.5t189.5-70.5q92 0 175 33 0 0-3-7.5t-7-17.5-7.5-17.5-3.5-7.5 0 17.5 0 44.5 0 57 0 57.5 0 44.5 0 17-13 0-33 0-39.5 0-33 0-13.5 0q-41 0-41 38 0 36 41 36 0 0 17.5 0t43.5 0 52 0 44 0 18 0q40 0 40-41 0 0 0-18t0-47 0-62 0-62 0-47.5 0-18.5q0-17-6-28.5t-21-16.5q-42-18-100-28.5t-113-10.5z"/><path transform="translate(55.79 13.58) scale(.014 -.014)" d="m281-9q-72 0-125.5 31t-82.5 87.5-29 134.5q0 77 29 133.5t82.5 87.5 125.5 31q73 0 126-31t82.5-87.5 29.5-133.5q0-78-29.5-134.5t-82.5-87.5-126-31zm0 75q65 0 103.5 45.5t38.5 132.5-38.5 132-103.5 45q-64 0-102.5-45t-38.5-132 38.5-132.5 102.5-45.5z"/><path transform="translate(63.672 13.58) scale(.014 -.014)" d="m132-7q-23 0-35.5 13t-12.5 37q0 0 0 25.5t0 69 0 98.5 0 113 0 113 0 98.5 0 69 0 25.5q0 25 13 37.5t36 12.5q0 0 24 0t60 0 71 0 59 0 24 0q115 0 176.5-54t61.5-152q0-96-62.5-150t-175.5-54q0 0 5 7.5t5 7.5 6 0 12 0 6 0q40 0 69.5-20.5t52.5-63.5q0 0 9-17t22.5-41.5 27-49.5 22.5-41.5 9-16.5q9-16 8-31.5t-11-25.5-30-10q-21 0-34 9t-23 26q0 0-10.5 20.5t-26.5 49.5-32 58-26.5 49-10.5 20q-22 41-50 54.5t-73 13.5q0 0-12 0t-29 0-34.5 0-29.5 0-12 0 0-18 0-46.5 0-60.5 0-60.5 0-46.5 0-18q0-50-49-50zm49 374t17.5 0 44 0 52.5 0 43.5 0 17.5 0q79 0 118.5 33t39.5 97-39.5 96.5-118.5 32.5q0 0-17.5 0t-43.5 0-52.5 0-44 0-17.5 0 0-19 0-48 0-62 0-62.5 0-48.5 0-19z"/><path transform="translate(73.108 13.58) scale(.014 -.014)" d="m281-9q-72 0-125.5 31t-82.5 87.5-29 134.5q0 77 29 133.5t82.5 87.5 125.5 31q73 0 126-31t82.5-87.5 29.5-133.5q0-78-29.5-134.5t-82.5-87.5-126-31zm0 75q65 0 103.5 45.5t38.5 132.5-38.5 132-103.5 45q-64 0-102.5-45t-38.5-132 38.5-132.5 102.5-45.5z"/><path transform="translate(80.99 13.58) scale(.014 -.014)" d="m247-9q-90 0-133.5 49.5t-43.5 146.5q0 0 0 18.5t0 48 0 63 0 63 0 48 0 18.5q0 24 12 36t35 12 35.5-12 12.5-36q0 0 0-18.5t0-48 0-62.5 0-63 0-48.5 0-18.5q0-60 25-89.5t78-29.5q58 0 95 39.5t37 104.5q0 0 0 17t0 43.5 0 56.5 0 56.5 0 43.5 0 17q0 24 12 36t35 12 35.5-12 12.5-36q0 0 0-22t0-58 0-79 0-86 0-79.5 0-58.5 0-22q0-48-46-48-47 0-47 48 0 0 0 13.5t0 30.5 0 30 0 13 3.5-4.5 6.5-9.5 3-5q-20-58-64.5-88t-103.5-30z"/><path transform="translate(88.928 13.58) scale(.014 -.014)" d="m119-7q-47 0-47 48 0 0 0 22t0 58.5 0 79.5 0 86 0 79 0 58 0 22q0 48 47 48 22 0 34-12t12-36q0 0 0-12t0-28 0-28 0-12-2.5 4-5.5 8-3 4q21 56 68.5 85t108.5 29q87 0 130-48t43-147q0 0 0-18.5t0-48.5 0-63 0-62.5 0-48.5 0-19q0-23-12.5-35.5t-35.5-12.5q-22 0-34.5 12.5t-12.5 35.5q0 0 0 18.5t0 47.5 0 61.5 0 61.5 0 47.5 0 18.5q0 65-25 94t-79 29q-62 0-100-38.5t-38-104.5q0 0 0-17t0-43.5 0-56.5 0-57 0-44 0-17q0-48-48-48z"/><path transform="translate(96.964 13.58) scale(.014 -.014)" d="m259-9q-65 0-113.5 30.5t-75 87.5-26.5 135 26.5 134.5 75 87 113.5 30.5q64 0 111-32t62-86q0 0-5.5 0t-5.5 0 0 21 0 53 0 69 0 69 0 53 0 21q0 48 48 48 23 0 35.5-12t12.5-36q0 0 0-26.5t0-71 0-100 0-114 0-114 0-100 0-71 0-26.5q0-48-48-48-47 0-47 48 0 0 0 13.5t0 31.5 0 31.5 0 13.5 3-5 5.5-9.5 2.5-4.5q-15-55-62-88t-112-33zm22 75q65 0 103.5 45.5t38.5 132.5-38.5 132-103.5 45q-64 0-102.5-45t-38.5-132 38.5-132.5 102.5-45.5z"/><path transform="translate(108.86 13.58) scale(.014 -.014)" d="m304-7q-23 0-35.5 13t-12.5 37q0 0 0 31t0 83 0 114 0 124 0 113.5 0 83 0 31.5-16 0-40 0-52 0-52 0-40 0-16 0q-43 0-43 41t43 41q0 0 28.5 0t75.5 0 103.5 0 113 0 104 0 76 0 28.5 0q43 0 43-41t-43-41q0 0-16 0t-40.5 0-52 0-51.5 0-40 0-16 0 0-31.5 0-83 0-113.5 0-124 0-114 0-83 0-31q0-50-49-50z"/><path transform="translate(117.39 13.58) scale(.014 -.014)" d="m396-9q-106 0-181 44t-115.5 125-40.5 193q0 111 40.5 192t115.5 125 181 44q60 0 115-17t94-49q16-10 21.5-23.5t2.5-26.5-11.5-22.5-21.5-11.5-28 7q-71 56-170 56-115 0-175.5-71.5t-60.5-202.5 60.5-203 175.5-72q47 0 89.5 14t78.5 42q16 9 29.5 7.5t22.5-11 12-22.5-1.5-26-19.5-22q-40-34-95.5-51.5t-117.5-17.5z"/></svg>