<svg width="84" height="11" viewBox="0 0 84 11" fill="none" xmlns="http://www.w3.org/2000/svg">
<path d="M4.29 10.22H4.1C3.58667 10.22 3.11 10.1467 2.67 10C2.23667 9.84667 1.85667 9.60667 1.53 9.28C1.20333 8.94667 0.95 8.50333 0.77 7.95C0.59 7.40333 0.5 6.72667 0.5 5.92V4.63C0.5 3.83 0.593333 3.15333 0.78 2.6C0.966667 2.05333 1.22333 1.61333 1.55 1.28C1.87667 0.946666 2.25667 0.706667 2.69 0.56C3.12333 0.413333 3.58667 0.34 4.08 0.34H4.28C5.00667 0.34 5.63 0.48 6.15 0.76C6.66333 1.04 7.05667 1.46 7.33 2.02C7.60333 2.58667 7.74 3.29333 7.74 4.14H6.32C6.32 3.52667 6.25333 3.02667 6.12 2.64C5.98667 2.25333 5.76 1.97 5.44 1.79C5.12 1.60333 4.69667 1.51 4.17 1.51C3.85667 1.51 3.57333 1.55333 3.32 1.64C3.06 1.73333 2.83333 1.88333 2.64 2.09C2.44667 2.30333 2.29333 2.59 2.18 2.95C2.06667 3.31667 2.01 3.77667 2.01 4.33V6.22C2.01 6.76667 2.06667 7.22667 2.18 7.6C2.29333 7.96667 2.44667 8.25333 2.64 8.46C2.83333 8.67333 3.06 8.82333 3.32 8.91C3.57333 8.99667 3.85667 9.04 4.17 9.04C4.97 9.04 5.53667 8.83333 5.87 8.42C6.19667 8.00667 6.36 7.34333 6.36 6.43H7.74C7.74 7.25 7.60333 7.94 7.33 8.5C7.05667 9.06 6.66333 9.48667 6.15 9.78C5.63667 10.0733 5.01667 10.22 4.29 10.22ZM10.98 10.08H9.58V0H10.98V3.88C11.2267 3.51333 11.5467 3.24 11.94 3.06C12.3267 2.88 12.73 2.79 13.15 2.79C13.63 2.79 14.06 2.88333 14.44 3.07C14.8133 3.25667 15.1067 3.53667 15.32 3.91C15.54 4.28333 15.65 4.75333 15.65 5.32V10.08H14.25V5.63C14.25 5.04333 14.11 4.6 13.83 4.3C13.55 4.00667 13.1667 3.86 12.68 3.86C12.36 3.86 12.07 3.94 11.81 4.1C11.55 4.25333 11.3467 4.46 11.2 4.72C11.0533 4.98667 10.98 5.29 10.98 5.63V10.08ZM22.07 10.08H20.67V4.02H18.11V2.93H22.07V10.08ZM24.49 10.08H18.11V9H24.49V10.08ZM21.93 1.46H20.62V0.11H21.93V1.46ZM30.11 10.08H28.62L25.84 2.93H27.34L29.42 8.41H29.46L31.55 2.93H32.92L30.11 10.08ZM37.78 10.22C37.0867 10.22 36.4933 10.0667 36 9.76C35.5067 9.45333 35.13 9.02667 34.87 8.48C34.61 7.93333 34.48 7.31333 34.48 6.62V6.38C34.48 5.67333 34.61 5.05 34.87 4.51C35.13 3.97 35.5067 3.54667 36 3.24C36.4933 2.94 37.0833 2.79 37.77 2.79C38.47 2.79 39.0667 2.94333 39.56 3.25C40.0533 3.55667 40.43 3.98 40.69 4.52C40.95 5.06 41.08 5.68 41.08 6.38V6.62C41.08 7.33333 40.95 7.96 40.69 8.5C40.43 9.04 40.0533 9.46333 39.56 9.77C39.0667 10.07 38.4733 10.22 37.78 10.22ZM37.78 9.23C38.32 9.23 38.7633 9.03 39.11 8.63C39.4567 8.23667 39.63 7.68333 39.63 6.97V6.03C39.63 5.32333 39.4567 4.77 39.11 4.37C38.7633 3.97667 38.32 3.78 37.78 3.78C37.2467 3.78 36.8067 3.97667 36.46 4.37C36.1067 4.77 35.93 5.32333 35.93 6.03V6.97C35.93 7.68333 36.1067 8.23667 36.46 8.63C36.8067 9.03 37.2467 9.23 37.78 9.23ZM52.4 10.08H51.22V0.48H53.21L54.54 8.04H54.59L55.98 0.48H57.94V10.08H56.62V2.18H56.55L55.14 10.08H53.84L52.47 2.18H52.4V10.08ZM62.98 10.22C62.2867 10.22 61.6933 10.0667 61.2 9.76C60.7067 9.45333 60.33 9.02667 60.07 8.48C59.81 7.93333 59.68 7.31333 59.68 6.62V6.38C59.68 5.67333 59.81 5.05 60.07 4.51C60.33 3.97 60.7067 3.54667 61.2 3.24C61.6933 2.94 62.2833 2.79 62.97 2.79C63.67 2.79 64.2667 2.94333 64.76 3.25C65.2533 3.55667 65.63 3.98 65.89 4.52C66.15 5.06 66.28 5.68 66.28 6.38V6.62C66.28 7.33333 66.15 7.96 65.89 8.5C65.63 9.04 65.2533 9.46333 64.76 9.77C64.2667 10.07 63.6733 10.22 62.98 10.22ZM62.98 9.23C63.52 9.23 63.9633 9.03 64.31 8.63C64.6567 8.23667 64.83 7.68333 64.83 6.97V6.03C64.83 5.32333 64.6567 4.77 64.31 4.37C63.9633 3.97667 63.52 3.78 62.98 3.78C62.4467 3.78 62.0067 3.97667 61.66 4.37C61.3067 4.77 61.13 5.32333 61.13 6.03V6.97C61.13 7.68333 61.3067 8.23667 61.66 8.63C62.0067 9.03 62.4467 9.23 62.98 9.23ZM69.78 10.08H68.38V2.93H69.52L69.66 3.95C69.8733 3.55 70.1767 3.25667 70.57 3.07C70.9633 2.88333 71.3967 2.79 71.87 2.79C72.6567 2.79 73.2833 3.00667 73.75 3.44C74.2167 3.88 74.45 4.53 74.45 5.39V10.08H73.05V5.8C73.05 5.12667 72.91 4.63667 72.63 4.33C72.3567 4.01667 71.9733 3.86 71.48 3.86C71.1333 3.86 70.8333 3.94667 70.58 4.12C70.3267 4.29333 70.13 4.53333 69.99 4.84C69.85 5.14 69.78 5.48667 69.78 5.88V10.08ZM79.78 10.22C79.0867 10.22 78.4933 10.0667 78 9.76C77.5067 9.45333 77.13 9.02667 76.87 8.48C76.61 7.93333 76.48 7.31333 76.48 6.62V6.38C76.48 5.67333 76.61 5.05 76.87 4.51C77.13 3.97 77.5067 3.54667 78 3.24C78.4933 2.94 79.0833 2.79 79.77 2.79C80.47 2.79 81.0667 2.94333 81.56 3.25C82.0533 3.55667 82.43 3.98 82.69 4.52C82.95 5.06 83.08 5.68 83.08 6.38V6.62C83.08 7.33333 82.95 7.96 82.69 8.5C82.43 9.04 82.0533 9.46333 81.56 9.77C81.0667 10.07 80.4733 10.22 79.78 10.22ZM79.78 9.23C80.32 9.23 80.7633 9.03 81.11 8.63C81.4567 8.23667 81.63 7.68333 81.63 6.97V6.03C81.63 5.32333 81.4567 4.77 81.11 4.37C80.7633 3.97667 80.32 3.78 79.78 3.78C79.2467 3.78 78.8067 3.97667 78.46 4.37C78.1067 4.77 77.93 5.32333 77.93 6.03V6.97C77.93 7.68333 78.1067 8.23667 78.46 8.63C78.8067 9.03 79.2467 9.23 79.78 9.23Z" fill="black"/>
</svg>
