<svg width="65" height="14" viewBox="0 0 65 14" fill="none" xmlns="http://www.w3.org/2000/svg">
<path d="M7.73 0L7.77 0.19C7.63 0.236667 7.49 0.293333 7.35 0.36C7.21667 0.42 7.08667 0.483334 6.96 0.55C7.21333 0.77 7.42 1.04 7.58 1.36C7.73333 1.68667 7.81 2.06333 7.81 2.49C7.81 2.83 7.76667 3.14667 7.68 3.44C7.59333 3.73333 7.47 3.98333 7.31 4.19C7.15 4.40333 6.96 4.57 6.74 4.69C6.52667 4.80333 6.29 4.86 6.03 4.86C5.84333 4.86 5.66 4.83 5.48 4.77C5.3 4.70333 5.13667 4.60333 4.99 4.47C4.85 4.34333 4.73333 4.18 4.64 3.98C4.55333 3.78 4.51 3.54333 4.51 3.27C4.51 2.96333 4.56 2.67333 4.66 2.4C4.76 2.12667 4.89667 1.87 5.07 1.63C5.23667 1.39667 5.43667 1.18333 5.67 0.99C5.89667 0.796667 6.13333 0.626667 6.38 0.48C6.24667 0.42 6.10667 0.37 5.96 0.33C5.80667 0.29 5.65 0.27 5.49 0.27C5.21 0.27 4.91333 0.323334 4.6 0.43C4.28667 0.53 3.97667 0.686667 3.67 0.9C3.35667 1.10667 3.06 1.36333 2.78 1.67C2.5 1.98333 2.25333 2.34333 2.04 2.75C1.82 3.16333 1.64667 3.62333 1.52 4.13C1.39333 4.63 1.33 5.18333 1.33 5.79C1.33 6.39667 1.42 6.97333 1.6 7.52C1.77333 8.06667 2.03333 8.55 2.38 8.97C2.72 9.38333 3.14 9.71 3.64 9.95C4.14 10.19 4.71 10.31 5.35 10.31C5.72333 10.31 6.09 10.2533 6.45 10.14C6.80333 10.0333 7.14 9.88 7.46 9.68C7.78 9.48 8.07667 9.24333 8.35 8.97C8.61667 8.69667 8.84667 8.39667 9.04 8.07L9.25 8.19C9.03667 8.59667 8.77333 8.96 8.46 9.28C8.15333 9.6 7.81333 9.87 7.44 10.09C7.06667 10.3167 6.67 10.49 6.25 10.61C5.82333 10.7233 5.38667 10.78 4.94 10.78C4.3 10.78 3.70667 10.67 3.16 10.45C2.62 10.2233 2.15333 9.90333 1.76 9.49C1.36667 9.07 1.06 8.56667 0.84 7.98C0.613333 7.4 0.5 6.75 0.5 6.03C0.5 5.37667 0.573333 4.77333 0.72 4.22C0.86 3.67333 1.05333 3.17667 1.3 2.73C1.54667 2.28333 1.83333 1.89 2.16 1.55C2.48 1.21 2.82667 0.926667 3.2 0.7C3.56667 0.466667 3.94667 0.293334 4.34 0.18C4.73333 0.0600003 5.11667 0 5.49 0C5.69667 0 5.89667 0.0333337 6.09 0.1C6.29 0.16 6.47667 0.243334 6.65 0.35C6.83 0.263334 7.01333 0.19 7.2 0.13C7.38 0.0766668 7.55667 0.0333333 7.73 0ZM7.55 2.47C7.55 2.09667 7.47333 1.76 7.32 1.46C7.17333 1.15333 6.97333 0.903333 6.72 0.71C6.49333 0.856667 6.28333 1.02333 6.09 1.21C5.89667 1.39667 5.73 1.60667 5.59 1.84C5.45 2.06667 5.34 2.31667 5.26 2.59C5.18 2.86333 5.14 3.15333 5.14 3.46C5.14 3.62667 5.16 3.78 5.2 3.92C5.24667 4.06 5.31 4.18 5.39 4.28C5.47 4.38 5.57 4.45667 5.69 4.51C5.81 4.57 5.94333 4.6 6.09 4.6C6.33667 4.6 6.55 4.53 6.73 4.39C6.91667 4.24333 7.07 4.06667 7.19 3.86C7.31 3.64667 7.4 3.41667 7.46 3.17C7.52 2.91667 7.55 2.68333 7.55 2.47ZM12.33 1.21C12.33 1.49667 12.2967 1.8 12.23 2.12C12.1633 2.44667 12.0767 2.77667 11.97 3.11C11.8633 3.44333 11.74 3.77667 11.6 4.11C11.46 4.45 11.32 4.77333 11.18 5.08C11.04 5.39333 10.9 5.68667 10.76 5.96C10.6267 6.24 10.5067 6.49 10.4 6.71C10.42 7.08333 10.4533 7.42 10.5 7.72C10.5467 8.02 10.6033 8.27667 10.67 8.49C10.7367 8.70333 10.82 8.86667 10.92 8.98C11.0133 9.09333 11.12 9.15 11.24 9.15C11.38 9.15 11.5167 9.08667 11.65 8.96C11.7833 8.83333 11.92 8.65333 12.06 8.42C12.1933 8.18667 12.33 7.90667 12.47 7.58C12.6167 7.25333 12.76 6.88667 12.9 6.48L13.17 6.55C13.0633 6.86333 12.94 7.19333 12.8 7.54C12.6667 7.88667 12.5133 8.20667 12.34 8.5C12.1733 8.79333 11.99 9.03667 11.79 9.23C11.5967 9.41667 11.3833 9.51 11.15 9.51C10.9233 9.51 10.7333 9.44 10.58 9.3C10.4267 9.16 10.3 8.97333 10.2 8.74C10.1 8.51333 10.0233 8.25333 9.97 7.96C9.91 7.66667 9.86667 7.36667 9.84 7.06C9.81333 6.75333 9.79667 6.45667 9.79 6.17C9.79 5.87667 9.79 5.62 9.79 5.4C9.79 4.98667 9.80667 4.57333 9.84 4.16C9.87333 3.74667 9.92667 3.35333 10 2.98C10.0667 2.60667 10.15 2.26 10.25 1.94C10.35 1.62 10.4667 1.34333 10.6 1.11C10.74 0.876667 10.89 0.693333 11.05 0.56C11.21 0.426667 11.3867 0.36 11.58 0.36C11.7133 0.36 11.83 0.383334 11.93 0.43C12.0233 0.476667 12.1 0.536667 12.16 0.61C12.22 0.69 12.2633 0.78 12.29 0.88C12.3167 0.986667 12.33 1.09667 12.33 1.21ZM10.36 5.14C10.36 5.31333 10.36 5.48333 10.36 5.65C10.36 5.81667 10.3667 5.98 10.38 6.14C10.4933 5.90667 10.6133 5.65667 10.74 5.39C10.8667 5.11667 10.9933 4.83667 11.12 4.55C11.2467 4.25667 11.3667 3.96333 11.48 3.67C11.5933 3.37 11.6933 3.08 11.78 2.8C11.8667 2.51333 11.9367 2.24 11.99 1.98C12.0367 1.72667 12.06 1.49333 12.06 1.28C12.06 1.21333 12.0567 1.14 12.05 1.06C12.0367 0.986667 12.0167 0.916667 11.99 0.85C11.9567 0.783334 11.9133 0.726667 11.86 0.68C11.8067 0.64 11.7367 0.62 11.65 0.62C11.4767 0.62 11.31 0.733333 11.15 0.96C10.9967 1.18667 10.86 1.5 10.74 1.9C10.6267 2.3 10.5333 2.77667 10.46 3.33C10.3933 3.88333 10.36 4.48667 10.36 5.14ZM13.69 9.11C13.4033 9.11 13.1667 8.99333 12.98 8.76C12.7867 8.52667 12.69 8.17667 12.69 7.71C12.69 7.39667 12.7533 7 12.88 6.52C13.0067 6.04 13.2233 5.49667 13.53 4.89L13.79 4.96C13.7633 5.08 13.7167 5.24333 13.65 5.45C13.59 5.65 13.53 5.87667 13.47 6.13C13.41 6.38333 13.3567 6.64667 13.31 6.92C13.2633 7.2 13.24 7.46667 13.24 7.72C13.24 7.93333 13.2567 8.10667 13.29 8.24C13.3233 8.38 13.3633 8.48667 13.41 8.56C13.4633 8.63333 13.5267 8.68333 13.6 8.71C13.6667 8.73667 13.7433 8.75 13.83 8.75C13.9633 8.75 14.0867 8.71 14.2 8.63C14.32 8.55 14.4333 8.44333 14.54 8.31C14.6467 8.17 14.7467 8.01667 14.84 7.85C14.9333 7.69 15.02 7.52333 15.1 7.35C15.1733 7.18333 15.24 7.02333 15.3 6.87C15.36 6.71667 15.4067 6.58667 15.44 6.48L15.71 6.55C15.6567 6.68333 15.5967 6.84 15.53 7.02C15.4633 7.2 15.39 7.38667 15.31 7.58C15.2233 7.76667 15.1267 7.95333 15.02 8.14C14.92 8.32 14.8033 8.48333 14.67 8.63C14.5367 8.77 14.39 8.88667 14.23 8.98C14.0633 9.06667 13.8833 9.11 13.69 9.11ZM14.8 2.74C14.8 2.9 14.7367 3.02333 14.61 3.11C14.49 3.19667 14.3367 3.24 14.15 3.24C14.0567 3.24 13.9667 3.22333 13.88 3.19C13.7933 3.16333 13.72 3.12667 13.66 3.08C13.6 3.02667 13.5533 2.97 13.52 2.91C13.4867 2.84333 13.47 2.77333 13.47 2.7C13.47 2.54 13.53 2.41333 13.65 2.32C13.77 2.22667 13.91 2.18 14.07 2.18C14.1833 2.18 14.2833 2.19667 14.37 2.23C14.4633 2.26333 14.5433 2.30667 14.61 2.36C14.67 2.41333 14.7167 2.47333 14.75 2.54C14.7833 2.60667 14.8 2.67333 14.8 2.74ZM14.43 2.74C14.43 2.69333 14.41 2.65 14.37 2.61C14.33 2.57 14.2733 2.55 14.2 2.55C14.0533 2.55 13.98 2.60333 13.98 2.71C13.98 2.76333 14.0033 2.80667 14.05 2.84C14.09 2.87333 14.1467 2.89 14.22 2.89C14.2933 2.89 14.3467 2.87333 14.38 2.84C14.4133 2.81333 14.43 2.78 14.43 2.74ZM17.08 6.27C17.08 5.99667 17.1467 5.75667 17.28 5.55C17.4067 5.35 17.5733 5.15667 17.78 4.97C17.7133 4.93 17.6433 4.9 17.57 4.88C17.4967 4.86 17.4267 4.85 17.36 4.85C17.2133 4.85 17.0533 4.88667 16.88 4.96C16.7067 5.04 16.55 5.16667 16.41 5.34C16.2633 5.52 16.1433 5.76 16.05 6.06C15.9567 6.35333 15.91 6.72333 15.91 7.17C15.91 7.54333 15.9533 7.86 16.04 8.12C16.1267 8.38667 16.2467 8.60667 16.4 8.78C16.56 8.94667 16.74 9.07 16.94 9.15C17.1467 9.23 17.3667 9.27 17.6 9.27C17.88 9.27 18.13 9.2 18.35 9.06C18.5633 8.91333 18.7633 8.71333 18.95 8.46C19.13 8.20667 19.3 7.91 19.46 7.57C19.6133 7.23667 19.77 6.87333 19.93 6.48L20.18 6.55C20.0933 6.77 20 7 19.9 7.24C19.8 7.47333 19.6933 7.70667 19.58 7.94C19.4667 8.16667 19.34 8.38333 19.2 8.59C19.06 8.79667 18.9 8.97667 18.72 9.13C18.54 9.28333 18.3367 9.40667 18.11 9.5C17.89 9.59333 17.64 9.64 17.36 9.64C17.08 9.64 16.8133 9.59333 16.56 9.5C16.3067 9.40667 16.0833 9.26333 15.89 9.07C15.6967 8.88333 15.5433 8.64667 15.43 8.36C15.3167 8.07333 15.26 7.73667 15.26 7.35C15.26 6.95667 15.3267 6.59 15.46 6.25C15.5867 5.91667 15.75 5.62667 15.95 5.38C16.15 5.13333 16.3733 4.94 16.62 4.8C16.86 4.65333 17.09 4.58 17.31 4.58C17.5633 4.58 17.79 4.64667 17.99 4.78C18.03 4.75333 18.0667 4.72667 18.1 4.7C18.1333 4.66667 18.1667 4.63333 18.2 4.6L18.35 4.81C18.3233 4.83667 18.2967 4.86 18.27 4.88C18.2433 4.90667 18.2167 4.93333 18.19 4.96C18.27 5.06 18.3367 5.18 18.39 5.32C18.4433 5.45333 18.47 5.60333 18.47 5.77C18.47 5.95667 18.4467 6.12333 18.4 6.27C18.36 6.41 18.3033 6.53 18.23 6.63C18.15 6.73 18.0633 6.80667 17.97 6.86C17.8767 6.91333 17.7767 6.94 17.67 6.94C17.6167 6.94 17.5533 6.92667 17.48 6.9C17.4133 6.87333 17.35 6.83333 17.29 6.78C17.23 6.72667 17.18 6.66 17.14 6.58C17.1 6.49333 17.08 6.39 17.08 6.27ZM18.19 5.77C18.19 5.63667 18.17 5.52 18.13 5.42C18.09 5.31333 18.04 5.22 17.98 5.14C17.8067 5.28667 17.66 5.45 17.54 5.63C17.42 5.81 17.36 6.02333 17.36 6.27C17.36 6.39667 17.3933 6.49333 17.46 6.56C17.52 6.63333 17.5933 6.67 17.68 6.67C17.78 6.67 17.8633 6.63667 17.93 6.57C17.9967 6.51 18.05 6.43333 18.09 6.34C18.1233 6.24667 18.1467 6.14667 18.16 6.04C18.18 5.94 18.19 5.85 18.19 5.77ZM22.31 1.42C22.31 1.74 22.2533 2.09667 22.14 2.49C22.02 2.87667 21.87 3.29333 21.69 3.74C21.5033 4.18 21.2933 4.64 21.06 5.12C20.8333 5.59333 20.6067 6.08333 20.38 6.59C20.3533 6.92333 20.3267 7.24 20.3 7.54C20.2667 7.84 20.2367 8.12 20.21 8.38C20.2767 8.22 20.3567 8.03333 20.45 7.82C20.5367 7.60667 20.6367 7.39 20.75 7.17C20.8567 6.94333 20.9733 6.72333 21.1 6.51C21.2333 6.29 21.3733 6.09667 21.52 5.93C21.6667 5.75667 21.8233 5.61667 21.99 5.51C22.1567 5.41 22.3333 5.36 22.52 5.36C22.6467 5.36 22.77 5.38667 22.89 5.44C23.0033 5.49333 23.1033 5.56667 23.19 5.66C23.2767 5.75333 23.3467 5.86333 23.4 5.99C23.4467 6.11 23.47 6.23667 23.47 6.37C23.47 6.60333 23.42 6.80667 23.32 6.98C23.2133 7.15333 23.08 7.30333 22.92 7.43C22.7533 7.56333 22.57 7.67333 22.37 7.76C22.17 7.84667 21.9733 7.91333 21.78 7.96C21.8 8.04667 21.84 8.15 21.9 8.27C21.96 8.39 22.04 8.50333 22.14 8.61C22.2333 8.71667 22.35 8.80667 22.49 8.88C22.6233 8.95333 22.7767 8.99 22.95 8.99C23.3033 8.99 23.6367 8.78333 23.95 8.37C24.2633 7.95 24.5767 7.32 24.89 6.48L25.15 6.55C25.0033 6.95667 24.85 7.33333 24.69 7.68C24.53 8.02 24.3567 8.31667 24.17 8.57C23.99 8.82333 23.7933 9.02 23.58 9.16C23.36 9.3 23.1233 9.37 22.87 9.37C22.77 9.37 22.6567 9.35667 22.53 9.33C22.3967 9.30333 22.26 9.24333 22.12 9.15C21.98 9.06333 21.8433 8.93667 21.71 8.77C21.57 8.61 21.4433 8.39 21.33 8.11C21.3167 8.08333 21.3067 8.05 21.3 8.01C21.2867 7.97 21.28 7.93667 21.28 7.91C21.28 7.82333 21.3 7.76333 21.34 7.73C21.38 7.69667 21.43 7.67333 21.49 7.66C21.5567 7.64667 21.6267 7.63667 21.7 7.63C21.7733 7.62333 21.8433 7.60667 21.91 7.58C22.2433 7.44667 22.4933 7.25667 22.66 7.01C22.82 6.75667 22.9 6.47333 22.9 6.16C22.9 5.96 22.8567 5.82 22.77 5.74C22.6833 5.66 22.5833 5.62 22.47 5.62C22.3767 5.62 22.2833 5.64333 22.19 5.69C22.1033 5.74333 22.0233 5.80333 21.95 5.87C21.7633 6.05667 21.59 6.27333 21.43 6.52C21.2633 6.76667 21.1133 7.02333 20.98 7.29C20.8467 7.55667 20.7267 7.82 20.62 8.08C20.5133 8.34 20.4233 8.57 20.35 8.77C20.27 8.97 20.21 9.13667 20.17 9.27C20.1367 9.39667 20.12 9.46 20.12 9.46L19.85 9.42C19.8433 9.36667 19.84 9.30333 19.84 9.23C19.84 9.17 19.84 9.09667 19.84 9.01C19.84 8.92333 19.84 8.82 19.84 8.7C19.84 8.44 19.8433 8.12 19.85 7.74C19.8567 7.36 19.8733 6.93333 19.9 6.46C19.9267 5.98667 19.9633 5.47667 20.01 4.93C20.0567 4.37667 20.12 3.8 20.2 3.2C20.26 2.70667 20.3433 2.29 20.45 1.95C20.55 1.61667 20.6633 1.34333 20.79 1.13C20.9167 0.923333 21.0533 0.776667 21.2 0.69C21.34 0.596667 21.4833 0.55 21.63 0.55C21.75 0.55 21.85 0.573334 21.93 0.62C22.0167 0.666667 22.09 0.73 22.15 0.81C22.2033 0.89 22.2433 0.98 22.27 1.08C22.2967 1.18667 22.31 1.3 22.31 1.42ZM21.7 0.83C21.58 0.83 21.4733 0.896667 21.38 1.03C21.2867 1.16333 21.2033 1.34667 21.13 1.58C21.05 1.80667 20.9767 2.07667 20.91 2.39C20.8433 2.70333 20.7867 3.04 20.74 3.4C20.6867 3.76667 20.6367 4.14667 20.59 4.54C20.5433 4.93333 20.5033 5.32667 20.47 5.72C20.5767 5.48 20.69 5.23 20.81 4.97C20.9367 4.71 21.0567 4.44667 21.17 4.18C21.29 3.91333 21.4033 3.64667 21.51 3.38C21.6167 3.12 21.71 2.87 21.79 2.63C21.87 2.39 21.9333 2.16667 21.98 1.96C22.0267 1.75333 22.05 1.57333 22.05 1.42C22.05 1.36667 22.0467 1.30333 22.04 1.23C22.0333 1.16333 22.0167 1.1 21.99 1.04C21.97 0.98 21.9367 0.93 21.89 0.89C21.8433 0.85 21.78 0.83 21.7 0.83ZM26.4 9.72C26.1667 9.72 25.9433 9.68 25.73 9.6C25.5167 9.52 25.3267 9.39667 25.16 9.23C25 9.06333 24.8733 8.85333 24.78 8.6C24.6867 8.35333 24.64 8.06 24.64 7.72C24.64 7.31333 24.6967 6.94667 24.81 6.62C24.93 6.3 25.0833 6.03 25.27 5.81C25.45 5.59 25.6567 5.42 25.89 5.3C26.1167 5.18667 26.34 5.13 26.56 5.13C26.84 5.13 27.0633 5.22333 27.23 5.41C27.3967 5.59667 27.48 5.84 27.48 6.14C27.48 6.39333 27.4333 6.62333 27.34 6.83C27.24 7.03667 27.1133 7.21333 26.96 7.36C26.8 7.50667 26.62 7.62333 26.42 7.71C26.2133 7.79 26 7.83 25.78 7.83C25.68 7.83 25.5833 7.82333 25.49 7.81C25.3967 7.80333 25.3133 7.79333 25.24 7.78C25.2667 8.06 25.32 8.30333 25.4 8.51C25.48 8.71667 25.5833 8.88333 25.71 9.01C25.83 9.14333 25.9667 9.24333 26.12 9.31C26.2733 9.37 26.4333 9.4 26.6 9.4C26.8 9.4 26.9867 9.35 27.16 9.25C27.3333 9.15 27.4933 9.02 27.64 8.86C27.7867 8.7 27.92 8.51333 28.04 8.3C28.16 8.09333 28.27 7.88 28.37 7.66C28.4633 7.44667 28.5467 7.23667 28.62 7.03C28.7 6.82333 28.77 6.64 28.83 6.48L29.09 6.55C29.03 6.69667 28.96 6.87667 28.88 7.09C28.8 7.30333 28.71 7.53 28.61 7.77C28.5033 8.00333 28.38 8.23667 28.24 8.47C28.1 8.70333 27.94 8.91333 27.76 9.1C27.58 9.28667 27.3767 9.43667 27.15 9.55C26.93 9.66333 26.68 9.72 26.4 9.72ZM26.57 5.4C26.4033 5.4 26.2367 5.45333 26.07 5.56C25.91 5.66667 25.7667 5.81333 25.64 6C25.5133 6.18667 25.41 6.40667 25.33 6.66C25.25 6.91333 25.21 7.18667 25.21 7.48C25.27 7.50667 25.3533 7.52667 25.46 7.54C25.5667 7.55333 25.6967 7.56 25.85 7.56C26.0167 7.56 26.18 7.52667 26.34 7.46C26.5 7.38667 26.6467 7.28667 26.78 7.16C26.9067 7.04 27.01 6.89333 27.09 6.72C27.17 6.54667 27.21 6.35667 27.21 6.15C27.21 6.05 27.1967 5.95333 27.17 5.86C27.1433 5.77333 27.1033 5.69333 27.05 5.62C26.9967 5.55333 26.93 5.5 26.85 5.46C26.77 5.42 26.6767 5.4 26.57 5.4ZM29.22 6.18C29.1733 6.34 29.1267 6.47667 29.08 6.59C29.0333 6.70333 28.9833 6.81 28.93 6.91C28.8767 7.01 28.8167 7.10333 28.75 7.19C28.6833 7.27667 28.6067 7.37333 28.52 7.48L28.47 7.43C28.5767 7.15667 28.67 6.90333 28.75 6.67C28.83 6.43 28.9 6.19333 28.96 5.96C28.8867 5.85333 28.8233 5.72 28.77 5.56C28.7233 5.40667 28.7 5.22 28.7 5C28.7 4.80667 28.73 4.64333 28.79 4.51C28.85 4.38333 28.93 4.32 29.03 4.32C29.0833 4.32 29.1333 4.34333 29.18 4.39C29.2333 4.44333 29.2733 4.51 29.3 4.59C29.3333 4.67 29.36 4.76333 29.38 4.87C29.4 4.97667 29.41 5.09 29.41 5.21C29.41 5.26333 29.4067 5.32333 29.4 5.39C29.3933 5.45667 29.3833 5.52333 29.37 5.59C29.3633 5.65 29.3533 5.71333 29.34 5.78C29.3267 5.84 29.3133 5.89 29.3 5.93C29.3267 5.95 29.37 5.97 29.43 5.99C29.49 6.00333 29.57 6.01 29.67 6.01C29.8433 6.01 29.9967 5.98667 30.13 5.94C30.2633 5.88667 30.37 5.82333 30.45 5.75C30.5167 5.63667 30.57 5.55 30.61 5.49C30.6433 5.43 30.6733 5.38667 30.7 5.36C30.72 5.33333 30.7367 5.31333 30.75 5.3C30.7633 5.29333 30.7767 5.29 30.79 5.29C30.8433 5.29 30.8867 5.30667 30.92 5.34C30.9533 5.36667 30.97 5.40333 30.97 5.45C30.97 5.46333 30.96 5.48333 30.94 5.51C30.9267 5.53 30.91 5.56 30.89 5.6C30.6967 5.87333 30.5467 6.17667 30.44 6.51C30.3267 6.84333 30.27 7.21333 30.27 7.62C30.27 8.08667 30.3467 8.42667 30.5 8.64C30.6533 8.84667 30.8733 8.95 31.16 8.95C31.3133 8.95 31.46 8.90333 31.6 8.81C31.74 8.71667 31.88 8.57 32.02 8.37C32.1533 8.17667 32.29 7.92333 32.43 7.61C32.57 7.29667 32.72 6.92 32.88 6.48L33.15 6.55C32.95 7.12333 32.7633 7.59667 32.59 7.97C32.4167 8.34333 32.2467 8.63667 32.08 8.85C31.9133 9.07 31.74 9.22 31.56 9.3C31.38 9.38667 31.1867 9.43 30.98 9.43C30.8467 9.43 30.71 9.4 30.57 9.34C30.43 9.28 30.3 9.18667 30.18 9.06C30.0667 8.93333 29.9733 8.77 29.9 8.57C29.8267 8.36333 29.79 8.11667 29.79 7.83C29.79 7.69 29.8033 7.54333 29.83 7.39C29.85 7.23667 29.8833 7.09 29.93 6.95C29.97 6.80333 30.0133 6.66333 30.06 6.53C30.1133 6.39667 30.1667 6.27333 30.22 6.16C30.0533 6.24 29.8767 6.28 29.69 6.28C29.5033 6.28 29.3467 6.24667 29.22 6.18ZM37.34 2.72C37.34 2.98 37.39 3.21 37.49 3.41C37.5967 3.61667 37.74 3.80333 37.92 3.97C38.0933 4.13 38.3 4.28 38.54 4.42C38.78 4.56 39.0367 4.69667 39.31 4.83C39.5767 4.95667 39.8533 5.08333 40.14 5.21C40.42 5.33667 40.6967 5.47 40.97 5.61C41.2367 5.74333 41.49 5.89333 41.73 6.06C41.97 6.22 42.1767 6.4 42.35 6.6C42.53 6.79333 42.6733 7.01333 42.78 7.26C42.88 7.50667 42.93 7.78 42.93 8.08C42.93 8.64 42.8267 9.12333 42.62 9.53C42.4133 9.93667 42.1333 10.2733 41.78 10.54C41.4267 10.8067 41.02 11.0067 40.56 11.14C40.0933 11.2667 39.6067 11.33 39.1 11.33C38.6533 11.33 38.2333 11.2733 37.84 11.16C37.44 11.04 37.09 10.8767 36.79 10.67C36.49 10.4633 36.2533 10.2167 36.08 9.93C35.9 9.63667 35.81 9.32 35.81 8.98C35.81 8.68 35.8567 8.42333 35.95 8.21C36.0433 7.99667 36.1467 7.82333 36.26 7.69C36.3733 7.55 36.48 7.45 36.58 7.39C36.68 7.32333 36.7367 7.28667 36.75 7.28L36.9 7.61C36.8933 7.61 36.85 7.63667 36.77 7.69C36.69 7.74333 36.6067 7.82333 36.52 7.93C36.4333 8.04333 36.35 8.18333 36.27 8.35C36.1967 8.52333 36.16 8.73333 36.16 8.98C36.16 9.22667 36.2067 9.44667 36.3 9.64C36.3933 9.83333 36.52 10.0033 36.68 10.15C36.8333 10.2967 37.0133 10.42 37.22 10.52C37.42 10.6267 37.63 10.7133 37.85 10.78C38.07 10.8467 38.29 10.8933 38.51 10.92C38.7233 10.9533 38.9233 10.97 39.11 10.97C39.5967 10.97 40.0367 10.91 40.43 10.79C40.8167 10.67 41.15 10.5033 41.43 10.29C41.7033 10.0767 41.9167 9.83 42.07 9.55C42.2167 9.27 42.29 8.96667 42.29 8.64C42.29 8.28 42.2133 7.96667 42.06 7.7C41.9067 7.43333 41.7 7.2 41.44 7C41.1867 6.8 40.8967 6.61667 40.57 6.45C40.2433 6.29 39.9133 6.13333 39.58 5.98C39.24 5.82667 38.9067 5.66333 38.58 5.49C38.2533 5.31667 37.9633 5.12 37.71 4.9C37.45 4.67333 37.2433 4.41333 37.09 4.12C36.9367 3.82667 36.86 3.47667 36.86 3.07C36.86 2.62333 36.9367 2.21333 37.09 1.84C37.2433 1.46667 37.4533 1.14333 37.72 0.87C37.9867 0.596667 38.3 0.386667 38.66 0.24C39.02 0.0933336 39.4067 0.02 39.82 0.02C40.2467 0.02 40.62 0.066667 40.94 0.16C41.26 0.26 41.5267 0.396667 41.74 0.57C41.96 0.75 42.1233 0.963333 42.23 1.21C42.3367 1.45667 42.39 1.72667 42.39 2.02C42.39 2.26 42.36 2.49667 42.3 2.73C42.2467 2.95667 42.1833 3.16333 42.11 3.35C42.0433 3.53 41.98 3.67667 41.92 3.79C41.86 3.90333 41.83 3.96667 41.83 3.98L41.52 3.81C41.52 3.80333 41.5467 3.75 41.6 3.65C41.6533 3.54333 41.71 3.40667 41.77 3.24C41.8367 3.06667 41.8967 2.87667 41.95 2.67C42.0033 2.45667 42.03 2.24 42.03 2.02C42.03 1.77333 41.9833 1.55 41.89 1.35C41.8033 1.14333 41.67 0.97 41.49 0.83C41.3033 0.69 41.0733 0.58 40.8 0.5C40.52 0.426667 40.19 0.39 39.81 0.39C39.4567 0.39 39.13 0.446667 38.83 0.56C38.53 0.68 38.27 0.843334 38.05 1.05C37.83 1.25667 37.6567 1.50333 37.53 1.79C37.4033 2.07667 37.34 2.38667 37.34 2.72ZM45.85 6.27C45.85 5.99667 45.9133 5.75667 46.04 5.55C46.1733 5.35 46.34 5.15667 46.54 4.97C46.48 4.93 46.4133 4.9 46.34 4.88C46.2667 4.86 46.1967 4.85 46.13 4.85C45.9767 4.85 45.8167 4.88667 45.65 4.96C45.4767 5.04 45.3167 5.16667 45.17 5.34C45.03 5.52 44.91 5.76 44.81 6.06C44.7167 6.35333 44.67 6.72333 44.67 7.17C44.67 7.54333 44.7133 7.86 44.8 8.12C44.8933 8.38667 45.0167 8.60667 45.17 8.78C45.3233 8.94667 45.5033 9.07 45.71 9.15C45.9167 9.23 46.1367 9.27 46.37 9.27C46.6433 9.27 46.89 9.2 47.11 9.06C47.33 8.91333 47.53 8.71333 47.71 8.46C47.8967 8.20667 48.0667 7.91 48.22 7.57C48.38 7.23667 48.5367 6.87333 48.69 6.48L48.95 6.55C48.8567 6.77 48.7633 7 48.67 7.24C48.57 7.47333 48.4633 7.70667 48.35 7.94C48.23 8.16667 48.1 8.38333 47.96 8.59C47.82 8.79667 47.66 8.97667 47.48 9.13C47.3 9.28333 47.1 9.40667 46.88 9.5C46.6533 9.59333 46.4033 9.64 46.13 9.64C45.8433 9.64 45.5733 9.59333 45.32 9.5C45.0667 9.40667 44.8467 9.26333 44.66 9.07C44.4667 8.88333 44.3133 8.64667 44.2 8.36C44.0867 8.07333 44.03 7.73667 44.03 7.35C44.03 6.95667 44.0933 6.59 44.22 6.25C44.3533 5.91667 44.52 5.62667 44.72 5.38C44.92 5.13333 45.14 4.94 45.38 4.8C45.62 4.65333 45.85 4.58 46.07 4.58C46.33 4.58 46.56 4.64667 46.76 4.78C46.7933 4.75333 46.8267 4.72667 46.86 4.7C46.8933 4.66667 46.93 4.63333 46.97 4.6L47.12 4.81C47.0933 4.83667 47.0667 4.86 47.04 4.88C47.0133 4.90667 46.9833 4.93333 46.95 4.96C47.0367 5.06 47.1067 5.18 47.16 5.32C47.2067 5.45333 47.23 5.60333 47.23 5.77C47.23 5.95667 47.21 6.12333 47.17 6.27C47.1233 6.41 47.0633 6.53 46.99 6.63C46.9167 6.73 46.8333 6.80667 46.74 6.86C46.64 6.91333 46.5367 6.94 46.43 6.94C46.3767 6.94 46.3167 6.92667 46.25 6.9C46.1833 6.87333 46.12 6.83333 46.06 6.78C46 6.72667 45.95 6.66 45.91 6.58C45.87 6.49333 45.85 6.39 45.85 6.27ZM46.95 5.77C46.95 5.63667 46.9333 5.52 46.9 5.42C46.86 5.31333 46.8067 5.22 46.74 5.14C46.5733 5.28667 46.43 5.45 46.31 5.63C46.19 5.81 46.13 6.02333 46.13 6.27C46.13 6.39667 46.16 6.49333 46.22 6.56C46.2867 6.63333 46.3633 6.67 46.45 6.67C46.55 6.67 46.6333 6.63667 46.7 6.57C46.7667 6.51 46.8167 6.43333 46.85 6.34C46.89 6.24667 46.9167 6.14667 46.93 6.04C46.9433 5.94 46.95 5.85 46.95 5.77ZM49.08 6.18C49.0333 6.34 48.9867 6.47667 48.94 6.59C48.9 6.70333 48.85 6.81 48.79 6.91C48.7367 7.01 48.6767 7.10333 48.61 7.19C48.5433 7.27667 48.47 7.37333 48.39 7.48L48.34 7.43C48.44 7.15667 48.53 6.90333 48.61 6.67C48.69 6.43 48.7633 6.19333 48.83 5.96C48.7567 5.85333 48.6933 5.72 48.64 5.56C48.5867 5.40667 48.56 5.22 48.56 5C48.56 4.80667 48.59 4.64333 48.65 4.51C48.7167 4.38333 48.8 4.32 48.9 4.32C48.9533 4.32 49.0033 4.34333 49.05 4.39C49.0967 4.44333 49.1367 4.51 49.17 4.59C49.2033 4.67 49.2267 4.76333 49.24 4.87C49.26 4.97667 49.27 5.09 49.27 5.21C49.27 5.26333 49.2667 5.32333 49.26 5.39C49.2533 5.45667 49.2467 5.52333 49.24 5.59C49.2267 5.65 49.2133 5.71333 49.2 5.78C49.1867 5.84 49.1733 5.89 49.16 5.93C49.1867 5.95 49.2333 5.97 49.3 5.99C49.36 6.00333 49.44 6.01 49.54 6.01C49.7133 6.01 49.8667 5.98667 50 5.94C50.1267 5.88667 50.23 5.82333 50.31 5.75C50.3767 5.63667 50.43 5.55 50.47 5.49C50.51 5.43 50.54 5.38667 50.56 5.36C50.5867 5.33333 50.6067 5.31333 50.62 5.3C50.6267 5.29333 50.64 5.29 50.66 5.29C50.7067 5.29 50.7467 5.30667 50.78 5.34C50.8133 5.36667 50.83 5.40333 50.83 5.45C50.83 5.46333 50.8233 5.48333 50.81 5.51C50.7967 5.53 50.78 5.56 50.76 5.6C50.5667 5.87333 50.4133 6.17667 50.3 6.51C50.1933 6.84333 50.14 7.21333 50.14 7.62C50.14 8.08667 50.2167 8.42667 50.37 8.64C50.5233 8.84667 50.74 8.95 51.02 8.95C51.1733 8.95 51.3233 8.90333 51.47 8.81C51.61 8.71667 51.7467 8.57 51.88 8.37C52.02 8.17667 52.16 7.92333 52.3 7.61C52.44 7.29667 52.5867 6.92 52.74 6.48L53.01 6.55C52.8167 7.12333 52.6333 7.59667 52.46 7.97C52.2867 8.34333 52.1133 8.63667 51.94 8.85C51.7733 9.07 51.6033 9.22 51.43 9.3C51.25 9.38667 51.0533 9.43 50.84 9.43C50.7133 9.43 50.5767 9.4 50.43 9.34C50.29 9.28 50.1633 9.18667 50.05 9.06C49.93 8.93333 49.8333 8.77 49.76 8.57C49.6867 8.36333 49.65 8.11667 49.65 7.83C49.65 7.69 49.6633 7.54333 49.69 7.39C49.7167 7.23667 49.75 7.09 49.79 6.95C49.83 6.80333 49.8767 6.66333 49.93 6.53C49.9767 6.39667 50.03 6.27333 50.09 6.16C49.9233 6.24 49.7433 6.28 49.55 6.28C49.3633 6.28 49.2067 6.24667 49.08 6.18ZM53.53 9.11C53.2433 9.11 53.0067 8.99333 52.82 8.76C52.6267 8.52667 52.53 8.17667 52.53 7.71C52.53 7.39667 52.5933 7 52.72 6.52C52.8467 6.04 53.0633 5.49667 53.37 4.89L53.63 4.96C53.6033 5.08 53.5567 5.24333 53.49 5.45C53.43 5.65 53.37 5.87667 53.31 6.13C53.25 6.38333 53.1967 6.64667 53.15 6.92C53.1033 7.2 53.08 7.46667 53.08 7.72C53.08 7.93333 53.0967 8.10667 53.13 8.24C53.1633 8.38 53.2033 8.48667 53.25 8.56C53.3033 8.63333 53.3667 8.68333 53.44 8.71C53.5067 8.73667 53.5833 8.75 53.67 8.75C53.8033 8.75 53.9267 8.71 54.04 8.63C54.16 8.55 54.2733 8.44333 54.38 8.31C54.4867 8.17 54.5867 8.01667 54.68 7.85C54.7733 7.69 54.86 7.52333 54.94 7.35C55.0133 7.18333 55.08 7.02333 55.14 6.87C55.2 6.71667 55.2467 6.58667 55.28 6.48L55.55 6.55C55.4967 6.68333 55.4367 6.84 55.37 7.02C55.3033 7.2 55.23 7.38667 55.15 7.58C55.0633 7.76667 54.9667 7.95333 54.86 8.14C54.76 8.32 54.6433 8.48333 54.51 8.63C54.3767 8.77 54.23 8.88667 54.07 8.98C53.9033 9.06667 53.7233 9.11 53.53 9.11ZM54.64 2.74C54.64 2.9 54.5767 3.02333 54.45 3.11C54.33 3.19667 54.1767 3.24 53.99 3.24C53.8967 3.24 53.8067 3.22333 53.72 3.19C53.6333 3.16333 53.56 3.12667 53.5 3.08C53.44 3.02667 53.3933 2.97 53.36 2.91C53.3267 2.84333 53.31 2.77333 53.31 2.7C53.31 2.54 53.37 2.41333 53.49 2.32C53.61 2.22667 53.75 2.18 53.91 2.18C54.0233 2.18 54.1233 2.19667 54.21 2.23C54.3033 2.26333 54.3833 2.30667 54.45 2.36C54.51 2.41333 54.5567 2.47333 54.59 2.54C54.6233 2.60667 54.64 2.67333 54.64 2.74ZM54.27 2.74C54.27 2.69333 54.25 2.65 54.21 2.61C54.17 2.57 54.1133 2.55 54.04 2.55C53.8933 2.55 53.82 2.60333 53.82 2.71C53.82 2.76333 53.8433 2.80667 53.89 2.84C53.93 2.87333 53.9867 2.89 54.06 2.89C54.1333 2.89 54.1867 2.87333 54.22 2.84C54.2533 2.81333 54.27 2.78 54.27 2.74ZM58.66 8.9C58.8067 8.9 58.9467 8.85667 59.08 8.77C59.22 8.68333 59.35 8.57333 59.47 8.44C59.59 8.3 59.7033 8.14 59.81 7.96C59.9167 7.78667 60.0133 7.61 60.1 7.43C60.1933 7.25 60.2733 7.07667 60.34 6.91C60.4133 6.74333 60.4767 6.6 60.53 6.48L60.8 6.55C60.74 6.69667 60.6733 6.86333 60.6 7.05C60.52 7.23667 60.4333 7.43 60.34 7.63C60.24 7.82333 60.13 8.01333 60.01 8.2C59.8967 8.38 59.77 8.54333 59.63 8.69C59.49 8.83667 59.3367 8.95333 59.17 9.04C59.0033 9.13333 58.8267 9.18 58.64 9.18C58.46 9.18 58.28 9.14 58.1 9.06C57.94 9.18 57.7667 9.27333 57.58 9.34C57.3933 9.40667 57.1867 9.44 56.96 9.44C56.82 9.44 56.7067 9.42333 56.62 9.39C56.5333 9.35 56.4667 9.30667 56.42 9.26C56.3733 9.20667 56.34 9.15333 56.32 9.1C56.3 9.04 56.29 8.99 56.29 8.95C56.29 8.86333 56.31 8.78333 56.35 8.71C56.3967 8.63667 56.4533 8.57667 56.52 8.53C56.5867 8.47667 56.6633 8.44 56.75 8.42C56.8433 8.39333 56.9367 8.38 57.03 8.38C57.1833 8.38 57.33 8.40667 57.47 8.46C57.6167 8.52 57.7567 8.58 57.89 8.64C57.99 8.51333 58.0833 8.36667 58.17 8.2C58.25 8.03333 58.3167 7.86333 58.37 7.69C58.4233 7.51667 58.4667 7.34333 58.5 7.17C58.5267 6.99667 58.54 6.83333 58.54 6.68C58.54 6.33333 58.4833 6.08 58.37 5.92C58.25 5.76667 58.11 5.69 57.95 5.69C57.7767 5.69 57.6067 5.74667 57.44 5.86C57.2733 5.96667 57.1033 6.13667 56.93 6.37C56.7633 6.60333 56.59 6.89667 56.41 7.25C56.23 7.61 56.0367 8.03667 55.83 8.53C55.8033 8.57667 55.7833 8.62 55.77 8.66C55.7567 8.70667 55.74 8.75 55.72 8.79C55.76 9.33 55.8 9.84667 55.84 10.34C55.8867 10.8333 55.91 11.2767 55.91 11.67C55.91 12.4033 55.8267 12.9467 55.66 13.3C55.4867 13.6533 55.2267 13.83 54.88 13.83C54.74 13.83 54.62 13.7967 54.52 13.73C54.42 13.6633 54.3367 13.5767 54.27 13.47C54.2033 13.3633 54.1567 13.2333 54.13 13.08C54.0967 12.9333 54.08 12.7767 54.08 12.61C54.08 12.3433 54.1133 12.05 54.18 11.73C54.2467 11.4167 54.3333 11.0867 54.44 10.74C54.5467 10.3933 54.6733 10.04 54.82 9.68C54.9667 9.31333 55.12 8.95 55.28 8.59C55.24 8.13667 55.2033 7.69 55.17 7.25C55.1433 6.81 55.13 6.38333 55.13 5.97C55.13 5.61667 55.1567 5.34 55.21 5.14C55.2567 4.94 55.3333 4.84 55.44 4.84C55.4733 4.84 55.5133 4.84667 55.56 4.86C55.6133 4.88 55.6633 4.91 55.71 4.95C55.7567 4.99 55.7967 5.03667 55.83 5.09C55.8633 5.14333 55.88 5.20667 55.88 5.28C55.88 5.46667 55.8567 5.66 55.81 5.86C55.7567 6.05333 55.6867 6.24667 55.6 6.44C55.6 6.65333 55.6033 6.87333 55.61 7.1C55.6167 7.32 55.6267 7.54667 55.64 7.78C55.84 7.36 56.0367 7 56.23 6.7C56.4233 6.4 56.6167 6.15667 56.81 5.97C56.9967 5.77667 57.1867 5.63667 57.38 5.55C57.5667 5.46333 57.7567 5.42 57.95 5.42C58.1233 5.42 58.2767 5.45667 58.41 5.53C58.55 5.60333 58.6667 5.70333 58.76 5.83C58.8533 5.95667 58.9267 6.10667 58.98 6.28C59.0333 6.45333 59.06 6.64 59.06 6.84C59.06 7.20667 59 7.57 58.88 7.93C58.7667 8.28333 58.59 8.58667 58.35 8.84C58.4367 8.88 58.54 8.9 58.66 8.9ZM55.52 12.14C55.52 11.74 55.5067 11.3267 55.48 10.9C55.4533 10.4733 55.42 10.0467 55.38 9.62C55.1133 10.2733 54.8933 10.8633 54.72 11.39C54.5533 11.91 54.47 12.3833 54.47 12.81C54.47 13.0167 54.5067 13.1933 54.58 13.34C54.66 13.4867 54.7767 13.56 54.93 13.56C55.0167 13.56 55.0933 13.5367 55.16 13.49C55.2333 13.4433 55.2967 13.3667 55.35 13.26C55.3967 13.1467 55.4367 13 55.47 12.82C55.5033 12.64 55.52 12.4133 55.52 12.14ZM56.93 9.18C57.0767 9.18 57.21 9.15333 57.33 9.1C57.4567 9.04 57.57 8.96333 57.67 8.87C57.55 8.81 57.4367 8.75667 57.33 8.71C57.2233 8.66333 57.12 8.64 57.02 8.64C56.8467 8.64 56.7267 8.67333 56.66 8.74C56.5933 8.80667 56.56 8.87333 56.56 8.94C56.56 8.98667 56.59 9.04 56.65 9.1C56.71 9.15333 56.8033 9.18 56.93 9.18ZM58.98 4.32L59.09 4.06C59.1567 4.10667 59.2367 4.15667 59.33 4.21C59.43 4.26333 59.5433 4.31333 59.67 4.36C59.7967 4.41333 59.94 4.46333 60.1 4.51C60.2533 4.55 60.4233 4.58 60.61 4.6C60.6767 4.18667 60.76 3.81667 60.86 3.49C60.96 3.15667 61.07 2.87333 61.19 2.64C61.31 2.40667 61.4367 2.22667 61.57 2.1C61.6967 1.97333 61.8233 1.91 61.95 1.91C62.09 1.91 62.19 1.96333 62.25 2.07C62.31 2.18333 62.34 2.33 62.34 2.51C62.34 2.64333 62.3233 2.79 62.29 2.95C62.2633 3.11 62.2267 3.28 62.18 3.46C62.14 3.64 62.0867 3.82667 62.02 4.02C61.96 4.21333 61.8933 4.40667 61.82 4.6C62.28 4.56 62.7 4.48333 63.08 4.37C63.4667 4.26333 63.8033 4.15333 64.09 4.04L64.22 4.29C63.84 4.43 63.45 4.55667 63.05 4.67C62.65 4.78333 62.2033 4.85333 61.71 4.88C61.5967 5.17333 61.4767 5.45333 61.35 5.72C61.23 5.98667 61.12 6.22 61.02 6.42C61.0267 6.67333 61.0433 6.95 61.07 7.25C61.09 7.54333 61.14 7.82 61.22 8.08C61.2933 8.34 61.4 8.55667 61.54 8.73C61.68 8.90333 61.8633 8.99 62.09 8.99C62.2833 8.99 62.46 8.91 62.62 8.75C62.7733 8.59 62.92 8.38333 63.06 8.13C63.1933 7.88333 63.3167 7.61333 63.43 7.32C63.5433 7.02 63.65 6.74 63.75 6.48L64.02 6.55C63.9533 6.71 63.8833 6.89333 63.81 7.1C63.7367 7.30667 63.6567 7.51333 63.57 7.72C63.4767 7.93333 63.3733 8.14 63.26 8.34C63.1533 8.54 63.0333 8.71667 62.9 8.87C62.7667 9.03 62.6233 9.15667 62.47 9.25C62.31 9.34333 62.1367 9.39 61.95 9.39C61.7433 9.39 61.5533 9.34333 61.38 9.25C61.2067 9.16333 61.0533 9 60.92 8.76C60.7933 8.52667 60.6933 8.21 60.62 7.81C60.54 7.40333 60.5 6.89 60.5 6.27C60.5 5.76333 60.53 5.29333 60.59 4.86C60.1967 4.81333 59.8667 4.73667 59.6 4.63C59.3333 4.52333 59.1267 4.42 58.98 4.32ZM61.99 2.27C61.95 2.27 61.8867 2.31333 61.8 2.4C61.72 2.48 61.6333 2.61333 61.54 2.8C61.4533 2.98 61.3667 3.22 61.28 3.52C61.1933 3.82 61.1267 4.18667 61.08 4.62H61.21H61.54C61.6267 4.39333 61.7 4.17333 61.76 3.96C61.82 3.74667 61.8733 3.54667 61.92 3.36C61.9667 3.18 62 3.01333 62.02 2.86C62.0467 2.71333 62.06 2.59333 62.06 2.5C62.06 2.34667 62.0367 2.27 61.99 2.27ZM61.02 5.86V5.87C61.1 5.71 61.1733 5.55 61.24 5.39C61.3067 5.22333 61.3733 5.05667 61.44 4.89H61.19H61.05C61.0433 5.03667 61.0367 5.19 61.03 5.35C61.0233 5.51667 61.02 5.68667 61.02 5.86Z" fill="black"/>
</svg>
