<svg width="32" height="11" viewBox="0 0 32 11" fill="none" xmlns="http://www.w3.org/2000/svg">
<path d="M6.72 7.33L7.91 7.51C7.89 7.95 7.85333 8.32333 7.8 8.63C7.74 8.93667 7.65667 9.21 7.55 9.45C7.44333 9.69 7.31333 9.88667 7.16 10.04C7.00667 10.1867 6.80667 10.3067 6.56 10.4C6.32 10.4933 6.04667 10.56 5.74 10.6C5.44 10.6333 5.07333 10.65 4.64 10.65C4.23333 10.65 3.86667 10.64 3.54 10.62C3.22 10.6 2.92667 10.5567 2.66 10.49C2.39333 10.4167 2.16 10.3467 1.96 10.28C1.76 10.2133 1.58667 10.1033 1.44 9.95C1.28667 9.79667 1.15667 9.65667 1.05 9.53C0.95 9.41 0.863333 9.22333 0.79 8.97C0.723333 8.71667 0.67 8.49333 0.63 8.3C0.596667 8.11333 0.57 7.83667 0.55 7.47C0.53 7.10333 0.516667 6.78333 0.51 6.51C0.503333 6.23667 0.5 5.86 0.5 5.38C0.5 4.86667 0.503333 4.45667 0.51 4.15C0.516667 3.83667 0.53 3.49667 0.55 3.13C0.57 2.77 0.6 2.49 0.64 2.29C0.673333 2.09 0.726667 1.87 0.8 1.63C0.873333 1.39 0.96 1.21 1.06 1.09C1.15333 0.976666 1.27667 0.85 1.43 0.71C1.58333 0.576666 1.75333 0.483333 1.94 0.43C2.12667 0.376666 2.35 0.323333 2.61 0.27C2.87667 0.216667 3.16333 0.183333 3.47 0.17C3.77 0.156666 4.12 0.15 4.52 0.15C4.93333 0.15 5.28667 0.163333 5.58 0.19C5.87333 0.223333 6.14667 0.28 6.4 0.36C6.65333 0.446666 6.86333 0.56 7.03 0.7C7.19667 0.84 7.34 1.02 7.46 1.24C7.58667 1.46667 7.68667 1.73 7.76 2.03C7.82667 2.33667 7.87667 2.7 7.91 3.12L6.71 3.35C6.69 3.11667 6.67 2.92333 6.65 2.77C6.63 2.61667 6.60333 2.46333 6.57 2.31C6.53667 2.16333 6.51 2.04333 6.49 1.95C6.47 1.85667 6.42667 1.76667 6.36 1.68C6.3 1.58667 6.25 1.51667 6.21 1.47C6.17 1.43 6.09667 1.38667 5.99 1.34C5.88333 1.3 5.79667 1.27333 5.73 1.26C5.65667 1.24 5.54 1.22333 5.38 1.21C5.22 1.19667 5.08 1.19 4.96 1.19C4.84 1.19 4.66667 1.19 4.44 1.19C4.12 1.19 3.86 1.19333 3.66 1.2C3.45333 1.20667 3.25 1.22333 3.05 1.25C2.84333 1.27667 2.68333 1.31333 2.57 1.36C2.45667 1.40667 2.35 1.47 2.25 1.55C2.15 1.63 2.07667 1.73 2.03 1.85C1.99 1.96333 1.96333 2.10333 1.95 2.27C1.91 3.47 1.89 4.69667 1.89 5.95C1.89 6.82333 1.91 7.67667 1.95 8.51C1.97667 8.77 2.05 8.97333 2.17 9.12C2.29667 9.26667 2.54333 9.38333 2.91 9.47C3.27 9.55667 3.78333 9.6 4.45 9.6C4.80333 9.6 5.1 9.59 5.34 9.57C5.58 9.55 5.78333 9.50333 5.95 9.43C6.11667 9.35 6.24333 9.28 6.33 9.22C6.41667 9.16 6.48667 9.04 6.54 8.86C6.58667 8.68667 6.62 8.54 6.64 8.42C6.65333 8.29333 6.67 8.08667 6.69 7.8C6.69667 7.73333 6.7 7.68333 6.7 7.65C6.7 7.61 6.70333 7.56 6.71 7.5C6.71667 7.44 6.72 7.38333 6.72 7.33ZM12.66 9.65C13.3067 9.63667 13.7567 9.59 14.01 9.51C14.2633 9.42333 14.39 9.26 14.39 9.02C14.4367 8.36667 14.46 7.61333 14.46 6.76C14.46 6.47333 14.45 6.06667 14.43 5.54C14.4033 5.01333 14.39 4.62333 14.39 4.37C14.39 4.29667 14.38 4.22667 14.36 4.16C14.3333 4.09333 14.29 4.04 14.23 4C14.1767 3.95333 14.12 3.91667 14.06 3.89C14.0067 3.85667 13.9267 3.83 13.82 3.81C13.72 3.79 13.6333 3.77333 13.56 3.76C13.4933 3.74667 13.3933 3.74 13.26 3.74C13.1333 3.73333 13.0333 3.73 12.96 3.73C12.8867 3.73 12.7833 3.73 12.65 3.73C12.51 3.73 12.4067 3.73 12.34 3.73C12.2667 3.73 12.1667 3.73333 12.04 3.74C11.9067 3.74 11.8067 3.74667 11.74 3.76C11.6667 3.77333 11.58 3.79 11.48 3.81C11.3733 3.83 11.2933 3.85667 11.24 3.89C11.18 3.91667 11.1233 3.95333 11.07 4C11.01 4.04 10.9667 4.09333 10.94 4.16C10.92 4.22667 10.91 4.29667 10.91 4.37C10.91 4.62333 10.8967 5.01333 10.87 5.54C10.85 6.06667 10.84 6.47333 10.84 6.76C10.84 7.61333 10.8633 8.36667 10.91 9.02C10.91 9.26 11.0433 9.42667 11.31 9.52C11.5767 9.60667 12.0267 9.65 12.66 9.65ZM12.64 10.59C12.1333 10.59 11.7133 10.57 11.38 10.53C11.04 10.49 10.75 10.4 10.51 10.26C10.2633 10.12 10.0767 9.97333 9.95 9.82C9.82333 9.66 9.72333 9.41 9.65 9.07C9.57667 8.73 9.53333 8.39333 9.52 8.06C9.5 7.72667 9.49 7.26667 9.49 6.68C9.49 6.23333 9.49667 5.86333 9.51 5.57C9.52333 5.27 9.55 4.98 9.59 4.7C9.63 4.41333 9.68 4.18333 9.74 4.01C9.8 3.83 9.89 3.66333 10.01 3.51C10.1233 3.35 10.2533 3.23 10.4 3.15C10.5467 3.07 10.7333 2.99667 10.96 2.93C11.1867 2.87 11.4333 2.83 11.7 2.81C11.9667 2.79 12.2833 2.78 12.65 2.78C13.0167 2.78 13.3333 2.79 13.6 2.81C13.8667 2.83 14.1133 2.87 14.34 2.93C14.5667 2.99667 14.7533 3.07 14.9 3.15C15.0467 3.23 15.1767 3.35 15.29 3.51C15.41 3.66333 15.5 3.83 15.56 4.01C15.62 4.18333 15.67 4.41333 15.71 4.7C15.75 4.98 15.7767 5.27 15.79 5.57C15.8033 5.86333 15.81 6.23333 15.81 6.68C15.81 7.26667 15.8 7.72667 15.78 8.06C15.7667 8.39333 15.7233 8.73 15.65 9.07C15.5767 9.41 15.4767 9.66 15.35 9.82C15.2167 9.98 15.03 10.1267 14.79 10.26C14.5433 10.4 14.25 10.49 13.91 10.53C13.5767 10.57 13.1533 10.59 12.64 10.59ZM23.66 0V10.49H22.43L22.3 9.55C22.0267 10.2433 21.3 10.59 20.12 10.59C19.8067 10.59 19.5267 10.57 19.28 10.53C19.0267 10.49 18.81 10.42 18.63 10.32C18.45 10.22 18.2967 10.1167 18.17 10.01C18.0433 9.90333 17.94 9.74667 17.86 9.54C17.7733 9.34 17.7067 9.15667 17.66 8.99C17.6133 8.82333 17.5767 8.59333 17.55 8.3C17.53 8 17.5167 7.74 17.51 7.52C17.5033 7.3 17.5 7 17.5 6.62C17.5 6.25333 17.5067 5.93333 17.52 5.66C17.5333 5.39333 17.5567 5.12667 17.59 4.86C17.6233 4.6 17.67 4.38 17.73 4.2C17.7833 4.02 17.8567 3.84333 17.95 3.67C18.05 3.50333 18.1667 3.37 18.3 3.27C18.4333 3.16333 18.5933 3.07 18.78 2.99C18.9667 2.91 19.18 2.85667 19.42 2.83C19.6667 2.79667 19.94 2.78 20.24 2.78C20.8333 2.78 21.2933 2.85667 21.62 3.01C21.94 3.17 22.1733 3.42 22.32 3.76V0.11L23.66 0ZM22.32 8.75V4.76C22.32 4.36667 22.1967 4.09333 21.95 3.94C21.7033 3.79333 21.24 3.72 20.56 3.72C20.0333 3.72 19.64 3.76 19.38 3.84C19.1733 3.9 19.0333 4.08667 18.96 4.4C18.8867 4.71333 18.85 5.13333 18.85 5.66C18.85 6.43333 18.8633 7.51333 18.89 8.9C18.9167 9.2 19.04 9.4 19.26 9.5C19.48 9.60667 19.9133 9.66 20.56 9.66C21.2 9.66 21.6467 9.59333 21.9 9.46C22.1467 9.33333 22.2867 9.09667 22.32 8.75ZM31.28 5.53V10.49H30.22L30 9.42C29.86 9.88667 29.6133 10.2 29.26 10.36C28.9 10.5133 28.3767 10.59 27.69 10.59C27.2367 10.59 26.8633 10.5467 26.57 10.46C26.2767 10.3733 26.0433 10.2233 25.87 10.01C25.6967 9.80333 25.5767 9.54667 25.51 9.24C25.4433 8.94 25.41 8.55 25.41 8.07C25.41 7.85667 25.45 7.66667 25.53 7.5C25.6033 7.32667 25.7033 7.18333 25.83 7.07C25.9633 6.95 26.1367 6.84667 26.35 6.76C26.57 6.67333 26.7967 6.60333 27.03 6.55C27.2567 6.50333 27.5367 6.46333 27.87 6.43C28.2033 6.40333 28.5267 6.38333 28.84 6.37C29.1533 6.36333 29.52 6.36 29.94 6.36V4.33C29.94 4.09667 29.83 3.93667 29.61 3.85C29.39 3.76333 29 3.72 28.44 3.72C28.0467 3.72 27.7533 3.72667 27.56 3.74C27.3667 3.76 27.2167 3.81333 27.11 3.9C27.01 3.99333 26.95 4.08333 26.93 4.17C26.9167 4.25667 26.9067 4.41667 26.9 4.65C26.9 4.73667 26.9 4.80667 26.9 4.86L25.85 4.82C25.8433 4.74667 25.84 4.63667 25.84 4.49C25.84 4.19 25.8833 3.93333 25.97 3.72C26.0567 3.50667 26.17 3.34 26.31 3.22C26.4567 3.1 26.6533 3.00667 26.9 2.94C27.1467 2.86667 27.39 2.82333 27.63 2.81C27.87 2.79 28.17 2.78 28.53 2.78C29.0767 2.78 29.52 2.82333 29.86 2.91C30.2067 2.99 30.4867 3.14 30.7 3.36C30.92 3.58 31.0733 3.86 31.16 4.2C31.24 4.54 31.28 4.98333 31.28 5.53ZM29.94 8.34V7.17C29.04 7.17 28.35 7.20667 27.87 7.28C27.3833 7.34667 27.06 7.44 26.9 7.56C26.74 7.68 26.66 7.85 26.66 8.07C26.66 8.07667 26.66 8.09 26.66 8.11C26.66 8.80333 26.7167 9.23333 26.83 9.4C26.9433 9.57333 27.29 9.66 27.87 9.66C28.37 9.66 28.7733 9.6 29.08 9.48C29.3933 9.36 29.61 9.20667 29.73 9.02C29.85 8.84 29.92 8.61333 29.94 8.34Z" fill="black"/>
</svg>
