<svg width="41.188" height="7" viewBox="0 0 41.188 7" xmlns="http://www.w3.org/2000/svg"><path transform="translate(0 10.5) scale(.014 -.014)" d="m473 497q0 21-17.5 36t-41.5 15q-48 0-79-54.5t-31-123.5q0-53 20-95.5t58-67.5 88-25q37 0 71 14.5t55 32 43.5 32 39.5 14.5q22 0 38-17.5t16-36.5q0-21-12.5-49t-39.5-59.5-63-58-89.5-44-112.5-17.5q-78 0-144.5 23.5t-115.5 67-77 109.5-28 148q0 162 97 256t254 94q80 0 148-27t108-75 40-105q0-66-44-119.5t-114-53.5q-40 0-72 22t-32 63q0 19 18.5 53t18.5 48z"/><path transform="translate(10.962 10.5) scale(.014 -.014)" d="m369 237q0 52-13 91.5t-38 39.5q-17 0-30-20t-19-49-6-62q0-51 14-89.5t40-38.5 39 38 13 90zm-52-244q-78 0-140.5 28t-100 84-37.5 131q0 114 78 181t200 67 199-67 77-181q0-113-78.5-178t-197.5-65z"/><path transform="translate(19.796 10.5) scale(.014 -.014)" d="m43 616q0 33 28.5 54.5t80.5 21.5q109 0 109-76 0-42-27.5-59t-81.5-17q-47 0-78 18t-31 58zm217-509q0-60-25-83.5t-88-23.5q-59 0-80.5 27.5t-21.5 90.5v246q0 51 27.5 82t73.5 31q54 0 84-23.5t30-86.5z"/><path transform="translate(24.066 10.5) scale(.014 -.014)" d="m353 269q0 56-44 56-21 0-34.5-17.5t-15.5-46.5v-154q0-61-25-84t-88-23q-59 0-80.5 27.5t-21.5 90.5v246q0 51 27.5 82t73.5 31q38 0 64-11t39-38q78 51 190 51 71 0 102.5-56t31.5-184q0-63-3-102.5t-9.5-68-20.5-42.5-32.5-20-47.5-6q-56 0-80.5 21t-24.5 62z"/><path transform="translate(32.69 10.5) scale(.014 -.014)" d="m564 282q0-171-10-239-8-61-25-105.5t-48-79-79-51.5-114-17q-53 0-98.5 15.5t-72 38-41.5 44.5-15 38 10.5 29.5 28.5 13.5q13 0 30.5-8t33.5-18 38-18 43-8q54 0 76.5 27t22.5 77q-17-7-33-12t-31-8-28.5-4-26.5-1q-59 0-101 33t-60.5 81.5-18.5 104.5 1.5 95 6.5 69.5 11.5 48.5 18.5 29.5 27 15.5 36 4q63 0 88.5-21.5t25.5-67.5l1-161q0-16 0-23.5t1.5-18.5 4-16 7-10.5 12-7.5 18.5-2q30 0 37.5 16.5t7.5 60.5l1 162q0 31 10.5 50t35.5 29 68 10q26 0 44.5-8.5t29.5-22 16.5-40 7.5-53.5 2-71z"/></svg>