<svg width="41" height="13" viewBox="0 0 41 13" fill="none" xmlns="http://www.w3.org/2000/svg">
<path d="M6.41 2.73C6.41 2.53667 6.33 2.37 6.17 2.23C6.00333 2.09 5.81 2.02 5.59 2.02C5.13667 2.02 4.76667 2.27333 4.48 2.78C4.19333 3.28667 4.05 3.86333 4.05 4.51C4.05 5.00333 4.14333 5.45 4.33 5.85C4.51667 6.24333 4.78667 6.55667 5.14 6.79C5.49333 7.02333 5.90333 7.14 6.37 7.14C6.71667 7.14 7.04667 7.07333 7.36 6.94C7.68 6.80667 7.93667 6.65667 8.13 6.49C8.33 6.33 8.53333 6.18 8.74 6.04C8.95333 5.90667 9.14 5.84 9.3 5.84C9.5 5.84 9.67667 5.92 9.83 6.08C9.97667 6.24667 10.05 6.42 10.05 6.6C10.05 6.79333 9.99333 7.02 9.88 7.28C9.76 7.54 9.57333 7.82 9.32 8.12C9.07333 8.41333 8.78 8.68333 8.44 8.93C8.10667 9.17667 7.69 9.38 7.19 9.54C6.69 9.70667 6.16333 9.79 5.61 9.79C4.88333 9.79 4.21 9.68 3.59 9.46C2.97 9.24 2.43 8.92667 1.97 8.52C1.51667 8.11333 1.16 7.60333 0.9 6.99C0.633333 6.37 0.5 5.68 0.5 4.92C0.5 3.40667 0.953333 2.21 1.86 1.33C2.76667 0.456667 3.95333 0.02 5.42 0.02C6.16667 0.02 6.85667 0.143333 7.49 0.39C8.12333 0.643333 8.62667 0.993333 9 1.44C9.37333 1.89333 9.56 2.38333 9.56 2.91C9.56 3.53 9.35667 4.09 8.95 4.59C8.53667 5.09 8.00333 5.34 7.35 5.34C6.97667 5.34 6.64 5.23667 6.34 5.03C6.04 4.82333 5.89 4.53 5.89 4.15C5.89 3.97 5.97667 3.72 6.15 3.4C6.32333 3.08667 6.41 2.86333 6.41 2.73ZM15.78 6.37C15.78 5.88333 15.72 5.45667 15.6 5.09C15.4733 4.72333 15.2933 4.54 15.06 4.54C14.9067 4.54 14.7667 4.63333 14.64 4.82C14.52 5.00667 14.4333 5.23333 14.38 5.5C14.32 5.77333 14.29 6.06333 14.29 6.37C14.29 6.85 14.3567 7.27 14.49 7.63C14.6233 7.98333 14.81 8.16 15.05 8.16C15.29 8.16 15.4733 7.98333 15.6 7.63C15.72 7.27667 15.78 6.85667 15.78 6.37ZM15.05 9.79C14.3233 9.79 13.6667 9.66 13.08 9.4C12.5 9.13333 12.0333 8.74 11.68 8.22C11.3333 7.7 11.16 7.09 11.16 6.39C11.16 5.32333 11.5233 4.47667 12.25 3.85C12.9767 3.22333 13.91 2.91 15.05 2.91C16.19 2.91 17.12 3.22333 17.84 3.85C18.5533 4.47667 18.91 5.32333 18.91 6.39C18.91 7.44333 18.5433 8.27333 17.81 8.88C17.0833 9.48667 16.1633 9.79 15.05 9.79ZM20.05 1.07C20.05 0.756667 20.1833 0.5 20.45 0.3C20.7167 0.1 21.09 0 21.57 0C22.59 0 23.1 0.356667 23.1 1.07C23.1 1.45667 22.97 1.73 22.71 1.89C22.4567 2.05 22.0767 2.13 21.57 2.13C21.1367 2.13 20.7733 2.04667 20.48 1.88C20.1933 1.71333 20.05 1.44333 20.05 1.07ZM23.09 4.55V8.19C23.09 8.75 22.9733 9.14 22.74 9.36C22.5067 9.58 22.0933 9.69 21.5 9.69C20.9533 9.69 20.58 9.56333 20.38 9.31C20.18 9.05 20.08 8.62667 20.08 8.04V4.59C20.08 4.11667 20.2067 3.73667 20.46 3.45C20.72 3.15667 21.0633 3.01 21.49 3.01C21.9967 3.01 22.39 3.12 22.67 3.34C22.95 3.56 23.09 3.96333 23.09 4.55ZM28.67 8.53L28.66 5.92C28.66 5.4 28.4533 5.14 28.04 5.14C27.8467 5.14 27.6867 5.22333 27.56 5.39C27.4333 5.55 27.36 5.76667 27.34 6.04V8.19C27.34 8.76333 27.2233 9.15667 26.99 9.37C26.7567 9.58333 26.3467 9.69 25.76 9.69C25.2067 9.69 24.83 9.56333 24.63 9.31C24.43 9.05 24.33 8.62667 24.33 8.04V4.59C24.33 4.11667 24.46 3.73667 24.72 3.45C24.9733 3.15667 25.3167 3.01 25.75 3.01C26.1033 3.01 26.4 3.06333 26.64 3.17C26.8867 3.27 27.07 3.44667 27.19 3.7C27.9167 3.22 28.8033 2.98 29.85 2.98C30.51 2.98 30.9867 3.24333 31.28 3.77C31.5733 4.29 31.72 5.14667 31.72 6.34C31.72 6.93333 31.7067 7.41333 31.68 7.78C31.6533 8.14667 31.61 8.46333 31.55 8.73C31.49 8.99667 31.3933 9.19667 31.26 9.33C31.1333 9.45667 30.9833 9.55 30.81 9.61C30.6367 9.66333 30.4133 9.69 30.14 9.69C29.62 9.69 29.2433 9.59333 29.01 9.4C28.7833 9.2 28.67 8.91 28.67 8.53ZM40.24 5.74C40.24 7.34 40.1933 8.45667 40.1 9.09C40.02 9.65667 39.9033 10.15 39.75 10.57C39.59 10.9833 39.3633 11.35 39.07 11.67C38.7833 11.99 38.4167 12.23 37.97 12.39C37.5233 12.55 36.99 12.63 36.37 12.63C35.8767 12.63 35.4167 12.5567 34.99 12.41C34.57 12.27 34.2367 12.0933 33.99 11.88C33.7367 11.6733 33.54 11.4667 33.4 11.26C33.26 11.0533 33.19 10.8767 33.19 10.73C33.19 10.5767 33.24 10.4367 33.34 10.31C33.44 10.1833 33.5733 10.12 33.74 10.12C33.86 10.12 34.0033 10.16 34.17 10.24C34.33 10.3133 34.4867 10.3967 34.64 10.49C34.7867 10.5833 34.9633 10.6667 35.17 10.74C35.3767 10.8133 35.5767 10.85 35.77 10.85C36.2767 10.85 36.6333 10.7233 36.84 10.47C37.0533 10.2233 37.16 9.86667 37.16 9.4C37 9.46 36.8433 9.51333 36.69 9.56C36.5433 9.60667 36.4 9.64667 36.26 9.68C36.12 9.70667 35.9867 9.72333 35.86 9.73C35.7333 9.74333 35.61 9.75 35.49 9.75C34.9367 9.75 34.4667 9.59333 34.08 9.28C33.6867 8.97333 33.4033 8.59333 33.23 8.14C33.0567 7.68667 32.97 7.2 32.97 6.68C32.97 6.16 32.9767 5.71667 32.99 5.35C33.0033 4.98333 33.0333 4.66 33.08 4.38C33.1267 4.09333 33.18 3.86667 33.24 3.7C33.3 3.53333 33.3867 3.39333 33.5 3.28C33.6133 3.17333 33.74 3.10333 33.88 3.07C34.02 3.03 34.1867 3.01 34.38 3.01C34.9733 3.01 35.3867 3.11 35.62 3.31C35.86 3.51 35.98 3.82667 35.98 4.26L35.99 6.51C35.99 6.66333 35.99 6.77333 35.99 6.84C35.99 6.91333 35.9967 7 36.01 7.1C36.03 7.2 36.05 7.27333 36.07 7.32C36.0967 7.36667 36.13 7.41667 36.17 7.47C36.21 7.52333 36.2667 7.56 36.34 7.58C36.4067 7.59333 36.4933 7.6 36.6 7.6C36.88 7.6 37.0533 7.52333 37.12 7.37C37.1933 7.21667 37.23 6.93667 37.23 6.53L37.24 4.26C37.24 3.96667 37.29 3.73333 37.39 3.56C37.4833 3.38 37.6467 3.24333 37.88 3.15C38.1133 3.05667 38.4333 3.01 38.84 3.01C39.08 3.01 39.2867 3.05 39.46 3.13C39.6333 3.21 39.77 3.31333 39.87 3.44C39.9767 3.56667 40.0533 3.75333 40.1 4C40.1533 4.24667 40.19 4.49667 40.21 4.75C40.23 5.00333 40.24 5.33333 40.24 5.74Z" fill="black"/>
</svg>
