<svg width="52" height="11" viewBox="0 0 52 11" fill="none" xmlns="http://www.w3.org/2000/svg">
<path d="M4.788 1.106C4.256 1.106 3.77533 1.19933 3.346 1.386C2.91667 1.56333 2.55267 1.82933 2.254 2.184C1.95533 2.52933 1.72667 2.954 1.568 3.458C1.40933 3.95267 1.33 4.51267 1.33 5.138C1.33 5.95933 1.456 6.67333 1.708 7.28C1.96933 7.88667 2.352 8.35333 2.856 8.68C3.36933 9.00667 4.00867 9.17 4.774 9.17C5.21267 9.17 5.628 9.13267 6.02 9.058C6.412 8.98333 6.79467 8.89 7.168 8.778V9.87C6.79467 10.01 6.40733 10.1127 6.006 10.178C5.614 10.2433 5.14267 10.276 4.592 10.276C3.57467 10.276 2.72533 10.066 2.044 9.646C1.36267 9.226 0.849333 8.62867 0.504 7.854C0.168 7.07933 0 6.16933 0 5.124C0 4.368 0.102667 3.67733 0.308 3.052C0.522667 2.42667 0.830667 1.88533 1.232 1.428C1.64267 0.970667 2.14667 0.620667 2.744 0.378C3.34133 0.126 4.02733 0 4.802 0C5.31533 0 5.81 0.0513332 6.286 0.154C6.762 0.256667 7.18667 0.401333 7.56 0.588L7.056 1.652C6.748 1.512 6.40267 1.386 6.02 1.274C5.64667 1.162 5.236 1.106 4.788 1.106Z" fill="black"/>
<path d="M15.7057 6.37C15.7057 6.99533 15.6217 7.55067 15.4537 8.036C15.295 8.512 15.0617 8.918 14.7537 9.254C14.455 9.59 14.0864 9.84667 13.6477 10.024C13.2184 10.192 12.7377 10.276 12.2057 10.276C11.711 10.276 11.2537 10.192 10.8337 10.024C10.4137 9.84667 10.0497 9.59 9.7417 9.254C9.4337 8.918 9.19104 8.512 9.0137 8.036C8.8457 7.55067 8.7617 6.99533 8.7617 6.37C8.7617 5.53933 8.9017 4.83933 9.1817 4.27C9.4617 3.69133 9.86304 3.25267 10.3857 2.954C10.9084 2.646 11.529 2.492 12.2477 2.492C12.929 2.492 13.5264 2.646 14.0397 2.954C14.5624 3.25267 14.9684 3.69133 15.2577 4.27C15.5564 4.83933 15.7057 5.53933 15.7057 6.37ZM10.0357 6.37C10.0357 6.958 10.1104 7.47133 10.2597 7.91C10.4184 8.33933 10.661 8.67067 10.9877 8.904C11.3144 9.13733 11.7297 9.254 12.2337 9.254C12.7377 9.254 13.153 9.13733 13.4797 8.904C13.8064 8.67067 14.0444 8.33933 14.1937 7.91C14.3524 7.47133 14.4317 6.958 14.4317 6.37C14.4317 5.77267 14.3524 5.264 14.1937 4.844C14.035 4.424 13.7924 4.102 13.4657 3.878C13.1484 3.64467 12.733 3.528 12.2197 3.528C11.4544 3.528 10.899 3.78 10.5537 4.284C10.2084 4.788 10.0357 5.48333 10.0357 6.37Z" fill="black"/>
<path d="M21.2703 2.492C22.1663 2.492 22.8429 2.71133 23.3003 3.15C23.7576 3.57933 23.9863 4.27933 23.9863 5.25V10.136H22.7683V5.334C22.7683 4.72733 22.6329 4.27467 22.3623 3.976C22.0916 3.67733 21.6669 3.528 21.0883 3.528C20.2576 3.528 19.6836 3.76133 19.3663 4.228C19.0489 4.69467 18.8903 5.36667 18.8903 6.244V10.136H17.6583V2.632H18.6523L18.8343 3.654H18.9043C19.0723 3.39267 19.2776 3.178 19.5203 3.01C19.7723 2.83267 20.0476 2.702 20.3463 2.618C20.6449 2.534 20.9529 2.492 21.2703 2.492Z" fill="black"/>
<path d="M28.8186 9.268C29.0052 9.268 29.1966 9.254 29.3926 9.226C29.5886 9.18867 29.7472 9.15133 29.8686 9.114V10.052C29.7379 10.1173 29.5512 10.1687 29.3086 10.206C29.0659 10.2527 28.8326 10.276 28.6086 10.276C28.2166 10.276 27.8526 10.2107 27.5166 10.08C27.1899 9.94 26.9239 9.702 26.7186 9.366C26.5132 9.03 26.4106 8.55867 26.4106 7.952V3.584H25.3466V2.996L26.4246 2.506L26.9146 0.91H27.6426V2.632H29.8126V3.584H27.6426V7.924C27.6426 8.38133 27.7499 8.722 27.9646 8.946C28.1886 9.16067 28.4732 9.268 28.8186 9.268Z" fill="black"/>
<path d="M34.2692 2.492C34.9132 2.492 35.4638 2.632 35.9212 2.912C36.3878 3.192 36.7425 3.58867 36.9852 4.102C37.2372 4.606 37.3632 5.19867 37.3632 5.88V6.622H32.2252C32.2438 7.47133 32.4585 8.12 32.8692 8.568C33.2892 9.00667 33.8725 9.226 34.6192 9.226C35.0952 9.226 35.5152 9.184 35.8792 9.1C36.2525 9.00667 36.6352 8.876 37.0272 8.708V9.786C36.6445 9.954 36.2665 10.0753 35.8932 10.15C35.5198 10.234 35.0765 10.276 34.5632 10.276C33.8538 10.276 33.2238 10.1313 32.6732 9.842C32.1318 9.55267 31.7072 9.12333 31.3992 8.554C31.1005 7.97533 30.9512 7.27067 30.9512 6.44C30.9512 5.61867 31.0865 4.914 31.3572 4.326C31.6372 3.738 32.0245 3.28533 32.5192 2.968C33.0232 2.65067 33.6065 2.492 34.2692 2.492ZM34.2552 3.5C33.6672 3.5 33.2005 3.69133 32.8552 4.074C32.5192 4.44733 32.3185 4.97 32.2532 5.642H36.0752C36.0752 5.21267 36.0098 4.83933 35.8792 4.522C35.7485 4.20467 35.5478 3.95733 35.2772 3.78C35.0158 3.59333 34.6752 3.5 34.2552 3.5Z" fill="black"/>
<path d="M42.8855 2.492C43.7815 2.492 44.4582 2.71133 44.9155 3.15C45.3728 3.57933 45.6015 4.27933 45.6015 5.25V10.136H44.3835V5.334C44.3835 4.72733 44.2482 4.27467 43.9775 3.976C43.7068 3.67733 43.2822 3.528 42.7035 3.528C41.8728 3.528 41.2988 3.76133 40.9815 4.228C40.6642 4.69467 40.5055 5.36667 40.5055 6.244V10.136H39.2735V2.632H40.2675L40.4495 3.654H40.5195C40.6875 3.39267 40.8928 3.178 41.1355 3.01C41.3875 2.83267 41.6628 2.702 41.9615 2.618C42.2602 2.534 42.5682 2.492 42.8855 2.492Z" fill="black"/>
<path d="M50.4338 9.268C50.6205 9.268 50.8118 9.254 51.0078 9.226C51.2038 9.18867 51.3625 9.15133 51.4838 9.114V10.052C51.3531 10.1173 51.1665 10.1687 50.9238 10.206C50.6811 10.2527 50.4478 10.276 50.2238 10.276C49.8318 10.276 49.4678 10.2107 49.1318 10.08C48.8051 9.94 48.5391 9.702 48.3338 9.366C48.1285 9.03 48.0258 8.55867 48.0258 7.952V3.584H46.9618V2.996L48.0398 2.506L48.5298 0.91H49.2578V2.632H51.4278V3.584H49.2578V7.924C49.2578 8.38133 49.3651 8.722 49.5798 8.946C49.8038 9.16067 50.0885 9.268 50.4338 9.268Z" fill="black"/>
</svg>
