<svg width="92" height="10" viewBox="0 0 92 10" fill="none" xmlns="http://www.w3.org/2000/svg">
<path d="M5.62 0C6.06667 0 6.52 0.0399999 6.98 0.12C7.43333 0.206667 7.79667 0.33 8.07 0.49C8.15667 0.523334 8.21 0.563333 8.23 0.61C8.25667 0.65 8.27333 0.72 8.28 0.82L8.43 2.39C8.43 2.41667 8.40667 2.43333 8.36 2.44C8.31333 2.44667 8.28667 2.43333 8.28 2.4C8.07333 1.68667 7.69333 1.15667 7.14 0.81C6.58667 0.47 5.89667 0.3 5.07 0.3C4.36333 0.3 3.74333 0.456667 3.21 0.77C2.67667 1.08333 2.26667 1.52667 1.98 2.1C1.69333 2.66667 1.55 3.32333 1.55 4.07C1.55 4.93667 1.72667 5.74 2.08 6.48C2.44 7.21333 2.92667 7.79667 3.54 8.23C4.15333 8.65667 4.81333 8.87 5.52 8.87C6.19333 8.87 6.77667 8.68667 7.27 8.32C7.76333 7.95333 8.14333 7.38667 8.41 6.62C8.41 6.59333 8.42667 6.58 8.46 6.58C8.48667 6.58 8.51333 6.58333 8.54 6.59C8.56 6.59667 8.57 6.61 8.57 6.63L8.38 8.21C8.36 8.32333 8.34 8.39667 8.32 8.43C8.29333 8.46333 8.23667 8.5 8.15 8.54C7.31 8.89333 6.42333 9.07 5.49 9.07C4.37 9.07 3.43667 8.84333 2.69 8.39C1.93667 7.93667 1.38333 7.36 1.03 6.66C0.676667 5.96 0.5 5.22333 0.5 4.45C0.5 3.59 0.736667 2.82 1.21 2.14C1.68333 1.46 2.31333 0.933333 3.1 0.56C3.88667 0.186667 4.72667 0 5.62 0ZM13.03 9.07C12.3767 9.07 11.7933 8.91667 11.28 8.61C10.7733 8.29667 10.38 7.88 10.1 7.36C9.82 6.84 9.68 6.27667 9.68 5.67C9.68 4.93667 9.87 4.30667 10.25 3.78C10.6233 3.25333 11.1033 2.85667 11.69 2.59C12.27 2.31667 12.8633 2.18 13.47 2.18C14.1233 2.18 14.7 2.34 15.2 2.66C15.7 2.98667 16.0833 3.40667 16.35 3.92C16.6167 4.43333 16.75 4.97 16.75 5.53C16.75 6.15 16.5833 6.73333 16.25 7.28C15.91 7.82667 15.4567 8.26333 14.89 8.59C14.3167 8.91 13.6967 9.07 13.03 9.07ZM13.39 8.77C14.1167 8.77 14.6967 8.51333 15.13 8C15.5633 7.48667 15.78 6.78 15.78 5.88C15.78 5.25333 15.67 4.68333 15.45 4.17C15.2367 3.65667 14.92 3.24667 14.5 2.94C14.08 2.62667 13.58 2.47 13 2.47C12.2533 2.47 11.6733 2.72 11.26 3.22C10.8533 3.72 10.65 4.42 10.65 5.32C10.65 5.96 10.7567 6.54333 10.97 7.07C11.19 7.59 11.51 8.00333 11.93 8.31C12.3433 8.61667 12.83 8.77 13.39 8.77ZM20.7 8.73C20.72 8.73 20.73 8.76 20.73 8.82C20.73 8.87333 20.72 8.9 20.7 8.9C20.44 8.9 20.24 8.89667 20.1 8.89L19.21 8.87L18.39 8.89C18.23 8.89667 18.0133 8.9 17.74 8.9C17.7267 8.9 17.72 8.87333 17.72 8.82C17.72 8.76 17.7267 8.73 17.74 8.73C18.0533 8.73 18.28 8.70667 18.42 8.66C18.5667 8.61333 18.6667 8.52333 18.72 8.39C18.78 8.25667 18.81 8.05 18.81 7.77V3.48C18.81 3.2 18.7833 2.99667 18.73 2.87C18.6767 2.73667 18.58 2.64333 18.44 2.59C18.2933 2.54333 18.0667 2.52 17.76 2.52C17.74 2.52 17.73 2.49 17.73 2.43C17.73 2.37667 17.74 2.35 17.76 2.35L18.4 2.36C18.74 2.38 19.01 2.39 19.21 2.39C19.3833 2.39 19.54 2.38667 19.68 2.38C19.8267 2.36667 19.95 2.35667 20.05 2.35C20.35 2.32333 20.6267 2.31 20.88 2.31C21.4867 2.31 21.95 2.42667 22.27 2.66C22.5833 2.89333 22.74 3.22667 22.74 3.66C22.74 4.04667 22.63 4.40333 22.41 4.73C22.1833 5.05667 21.8733 5.31667 21.48 5.51C21.0867 5.69667 20.6567 5.79 20.19 5.79C19.8967 5.79 19.64 5.77333 19.42 5.74L19.41 5.46C19.6433 5.52 19.9367 5.55 20.29 5.55C20.87 5.55 21.2733 5.42333 21.5 5.17C21.7333 4.91 21.85 4.53333 21.85 4.04C21.85 3.01333 21.4067 2.5 20.52 2.5C20.16 2.5 19.9267 2.57667 19.82 2.73C19.7133 2.87667 19.66 3.13667 19.66 3.51V7.77C19.66 8.05667 19.6833 8.26667 19.73 8.4C19.7767 8.52667 19.87 8.61333 20.01 8.66C20.15 8.70667 20.38 8.73 20.7 8.73ZM24.86 8.73C24.8733 8.73 24.88 8.76 24.88 8.82C24.88 8.87333 24.8733 8.9 24.86 8.9H23.22C23.0533 8.9 22.75 8.61 22.31 8.03C21.87 7.45 21.3467 6.65667 20.74 5.65L21.48 5.36C22.02 6.24667 22.4733 6.92667 22.84 7.4C23.2067 7.88 23.5433 8.22 23.85 8.42C24.1633 8.62667 24.5 8.73 24.86 8.73ZM26.16 7.37L26.31 2.66L26.59 2.7L26.44 7.37C26.4267 7.87 26.49 8.22 26.63 8.42C26.77 8.62667 27.01 8.73 27.35 8.73C27.3767 8.73 27.39 8.76 27.39 8.82C27.39 8.87333 27.3767 8.9 27.35 8.9C27.15 8.9 27 8.89667 26.9 8.89L26.28 8.87L25.7 8.89C25.5733 8.89667 25.4033 8.9 25.19 8.9C25.17 8.9 25.16 8.87333 25.16 8.82C25.16 8.76 25.17 8.73 25.19 8.73C25.5367 8.73 25.78 8.62667 25.92 8.42C26.06 8.22 26.14 7.87 26.16 7.37ZM33.94 8.73C33.96 8.73 33.97 8.76 33.97 8.82C33.97 8.87333 33.96 8.9 33.94 8.9C33.68 8.9 33.4767 8.89667 33.33 8.89L32.5 8.87L31.55 8.89C31.39 8.89667 31.17 8.9 30.89 8.9C30.87 8.9 30.86 8.87333 30.86 8.82C30.86 8.76 30.87 8.73 30.89 8.73C31.2367 8.73 31.4933 8.70667 31.66 8.66C31.8267 8.61333 31.94 8.52333 32 8.39C32.0533 8.25667 32.0767 8.05 32.07 7.77L31.87 2.63L32.11 2.52L29.48 8.8C29.46 8.84 29.4267 8.86 29.38 8.86C29.32 8.86 29.2833 8.84 29.27 8.8L26.59 3.51C26.2633 2.85 25.8333 2.52 25.3 2.52C25.2733 2.52 25.26 2.49 25.26 2.43C25.26 2.37667 25.2733 2.35 25.3 2.35L26.07 2.36L26.75 2.35C26.87 2.35 26.9667 2.39 27.04 2.47C27.1133 2.55667 27.23 2.76 27.39 3.08L29.76 7.78L29.36 8.41L31.76 2.7C31.7933 2.59333 31.85 2.51 31.93 2.45C32.01 2.38333 32.0933 2.35 32.18 2.35L32.92 2.36L33.86 2.35C33.88 2.35 33.89 2.37667 33.89 2.43C33.89 2.49 33.88 2.52 33.86 2.52C33.44 2.52 33.1467 2.58 32.98 2.7C32.8067 2.82667 32.73 3.07667 32.75 3.45L32.92 7.77C32.94 8.05667 32.9733 8.26667 33.02 8.4C33.0667 8.52667 33.1567 8.61333 33.29 8.66C33.4233 8.70667 33.64 8.73 33.94 8.73ZM38.2 9.07C37.5467 9.07 36.9633 8.91667 36.45 8.61C35.9433 8.29667 35.55 7.88 35.27 7.36C34.99 6.84 34.85 6.27667 34.85 5.67C34.85 4.93667 35.04 4.30667 35.42 3.78C35.8 3.25333 36.28 2.85667 36.86 2.59C37.4467 2.31667 38.0433 2.18 38.65 2.18C39.3033 2.18 39.8767 2.34 40.37 2.66C40.87 2.98667 41.2533 3.40667 41.52 3.92C41.7867 4.43333 41.92 4.97 41.92 5.53C41.92 6.15 41.7533 6.73333 41.42 7.28C41.08 7.82667 40.6267 8.26333 40.06 8.59C39.4933 8.91 38.8733 9.07 38.2 9.07ZM38.56 8.77C39.2867 8.77 39.8667 8.51333 40.3 8C40.74 7.48667 40.96 6.78 40.96 5.88C40.96 5.25333 40.85 4.68333 40.63 4.17C40.41 3.65667 40.09 3.24667 39.67 2.94C39.25 2.62667 38.75 2.47 38.17 2.47C37.4233 2.47 36.8433 2.72 36.43 3.22C36.0233 3.72 35.82 4.42 35.82 5.32C35.82 5.96 35.93 6.54333 36.15 7.07C36.37 7.59 36.6867 8.00333 37.1 8.31C37.5133 8.61667 38 8.77 38.56 8.77ZM45.87 8.73C45.89 8.73 45.9 8.76 45.9 8.82C45.9 8.87333 45.89 8.9 45.87 8.9C45.61 8.9 45.41 8.89667 45.27 8.89L44.39 8.87L43.56 8.89C43.4 8.89667 43.1867 8.9 42.92 8.9C42.9 8.9 42.89 8.87333 42.89 8.82C42.89 8.76 42.9 8.73 42.92 8.73C43.2267 8.73 43.45 8.70667 43.59 8.66C43.7367 8.61333 43.84 8.52333 43.9 8.39C43.9533 8.25667 43.98 8.05 43.98 7.77V3.48C43.98 3.2 43.9533 2.99667 43.9 2.87C43.8533 2.73667 43.7567 2.64333 43.61 2.59C43.4633 2.54333 43.2367 2.52 42.93 2.52C42.91 2.52 42.9 2.49 42.9 2.43C42.9 2.37667 42.91 2.35 42.93 2.35L43.57 2.36C43.91 2.38 44.1833 2.39 44.39 2.39C44.5567 2.39 44.7133 2.38667 44.86 2.38C45 2.36667 45.1233 2.35667 45.23 2.35C45.5233 2.32333 45.7967 2.31 46.05 2.31C46.6567 2.31 47.12 2.42667 47.44 2.66C47.7533 2.89333 47.91 3.22667 47.91 3.66C47.91 4.04667 47.8 4.40333 47.58 4.73C47.3533 5.05667 47.0433 5.31667 46.65 5.51C46.2633 5.69667 45.8367 5.79 45.37 5.79C45.07 5.79 44.8133 5.77333 44.6 5.74L44.58 5.46C44.8133 5.52 45.1067 5.55 45.46 5.55C46.04 5.55 46.4467 5.42333 46.68 5.17C46.9067 4.91 47.02 4.53333 47.02 4.04C47.02 3.01333 46.5767 2.5 45.69 2.5C45.3367 2.5 45.1067 2.57667 45 2.73C44.8867 2.87667 44.83 3.13667 44.83 3.51V7.77C44.83 8.05667 44.8533 8.26667 44.9 8.4C44.9467 8.52667 45.04 8.61333 45.18 8.66C45.32 8.70667 45.55 8.73 45.87 8.73ZM50.03 8.73C50.05 8.73 50.06 8.76 50.06 8.82C50.06 8.87333 50.05 8.9 50.03 8.9H48.39C48.2233 8.9 47.92 8.61 47.48 8.03C47.04 7.45 46.5167 6.65667 45.91 5.65L46.65 5.36C47.1967 6.24667 47.65 6.92667 48.01 7.4C48.3767 7.88 48.7167 8.22 49.03 8.42C49.3433 8.62667 49.6767 8.73 50.03 8.73ZM52.31 5.68L52.53 5.43H55.08L55.18 5.68H52.31ZM57.67 8.73C57.71 8.73 57.73 8.76 57.73 8.82C57.73 8.87333 57.71 8.9 57.67 8.9C57.5033 8.9 57.2333 8.89 56.86 8.87C56.4867 8.85 56.2167 8.84 56.05 8.84C55.8967 8.84 55.7 8.85 55.46 8.87C55.22 8.89 55.0333 8.9 54.9 8.9C54.86 8.9 54.84 8.87333 54.84 8.82C54.84 8.76 54.86 8.73 54.9 8.73C55.1533 8.73 55.3367 8.7 55.45 8.64C55.57 8.58 55.63 8.47667 55.63 8.33C55.63 8.19667 55.57 7.99333 55.45 7.72L53.32 3.13L53.68 2.82L51.93 7.18C51.7833 7.53333 51.71 7.82667 51.71 8.06C51.71 8.3 51.7933 8.47333 51.96 8.58C52.1267 8.68 52.3833 8.73 52.73 8.73C52.7767 8.73 52.8 8.76 52.8 8.82C52.8 8.87333 52.7767 8.9 52.73 8.9C52.59 8.9 52.4 8.89 52.16 8.87C51.8933 8.85 51.65 8.84 51.43 8.84C51.1967 8.84 50.92 8.85 50.6 8.87C50.32 8.89 50.0967 8.9 49.93 8.9C49.8833 8.9 49.86 8.87333 49.86 8.82C49.86 8.76 49.8833 8.73 49.93 8.73C50.2167 8.73 50.4467 8.69 50.62 8.61C50.7867 8.53 50.9433 8.37333 51.09 8.14C51.23 7.90667 51.4033 7.54333 51.61 7.05L53.63 2.14C53.6433 2.1 53.67 2.08 53.71 2.08C53.75 2.08 53.7733 2.1 53.78 2.14L56.03 6.98C56.2767 7.50667 56.4733 7.88667 56.62 8.12C56.76 8.35333 56.9067 8.51333 57.06 8.6C57.2133 8.68667 57.4167 8.73 57.67 8.73ZM59.09 7.37V2.66L59.37 2.7V7.37C59.37 7.87 59.44 8.22 59.58 8.42C59.72 8.62667 59.96 8.73 60.3 8.73C60.32 8.73 60.33 8.76 60.33 8.82C60.33 8.87333 60.32 8.9 60.3 8.9C60.1 8.9 59.9433 8.89667 59.83 8.89L59.24 8.87L58.64 8.89C58.52 8.89667 58.35 8.9 58.13 8.9C58.1167 8.9 58.11 8.87333 58.11 8.82C58.11 8.76 58.1167 8.73 58.13 8.73C58.4767 8.73 58.7233 8.62667 58.87 8.42C59.0167 8.22 59.09 7.87 59.09 7.37ZM64.31 9.05C64.31 9.07 64.2867 9.08667 64.24 9.1C64.1933 9.10667 64.16 9.1 64.14 9.08L59.55 3.5C59.25 3.14 58.99 2.88667 58.77 2.74C58.55 2.59333 58.3367 2.52 58.13 2.52C58.1167 2.52 58.11 2.49 58.11 2.43C58.11 2.37667 58.1167 2.35 58.13 2.35L58.92 2.36L59.66 2.35C59.7267 2.35 59.78 2.36667 59.82 2.4C59.86 2.44 59.9233 2.52 60.01 2.64C60.0833 2.76 60.1867 2.90667 60.32 3.08L64.17 7.82L64.31 9.05ZM64.31 3.87V9.05L64.03 8.62V3.87C64.03 3.37667 63.9633 3.02667 63.83 2.82C63.69 2.62 63.4467 2.52 63.1 2.52C63.0733 2.52 63.06 2.49 63.06 2.43C63.06 2.37667 63.0733 2.35 63.1 2.35L63.58 2.36C63.82 2.38 64.0167 2.39 64.17 2.39C64.3167 2.39 64.52 2.38 64.78 2.36L65.27 2.35C65.3033 2.35 65.32 2.37667 65.32 2.43C65.32 2.49 65.3033 2.52 65.27 2.52C64.93 2.52 64.6833 2.62 64.53 2.82C64.3833 3.02667 64.31 3.37667 64.31 3.87ZM67.79 2.53C67.4367 2.53 67.1567 2.58 66.95 2.68C66.75 2.77333 66.59 2.93667 66.47 3.17C66.3567 3.40333 66.2667 3.73667 66.2 4.17C66.2 4.19 66.1733 4.2 66.12 4.2C66.0667 4.2 66.04 4.19 66.04 4.17C66.0733 3.95667 66.1067 3.61 66.14 3.13C66.18 2.65667 66.2 2.29333 66.2 2.04C66.2 1.99333 66.2267 1.97 66.28 1.97C66.34 1.97 66.37 1.99333 66.37 2.04C66.37 2.16 66.44 2.23667 66.58 2.27C66.72 2.30333 66.89 2.32 67.09 2.32C67.9167 2.34 68.6233 2.35 69.21 2.35L70.43 2.33C70.5967 2.32333 70.8133 2.32 71.08 2.32C71.42 2.32 71.67 2.3 71.83 2.26C71.9833 2.21333 72.0833 2.12 72.13 1.98C72.15 1.95333 72.1833 1.94 72.23 1.94C72.2767 1.94 72.3 1.95333 72.3 1.98C72.2467 2.99333 72.22 3.72333 72.22 4.17C72.22 4.19 72.1933 4.2 72.14 4.2C72.0867 4.2 72.06 4.19 72.06 4.17C72.0533 3.75 72.0067 3.42333 71.92 3.19C71.8267 2.95667 71.68 2.78667 71.48 2.68C71.2733 2.58 70.9867 2.53 70.62 2.53C70.22 2.53 69.9533 2.59333 69.82 2.72C69.68 2.84667 69.61 3.1 69.61 3.48V7.77C69.61 8.05667 69.64 8.26667 69.7 8.4C69.7533 8.52667 69.8633 8.61333 70.03 8.66C70.19 8.70667 70.4533 8.73 70.82 8.73C70.8467 8.73 70.86 8.76 70.86 8.82C70.86 8.87333 70.8467 8.9 70.82 8.9C70.5267 8.9 70.3033 8.89667 70.15 8.89L69.17 8.87L68.23 8.89C68.0633 8.89667 67.83 8.9 67.53 8.9C67.51 8.9 67.5 8.87333 67.5 8.82C67.5 8.76 67.51 8.73 67.53 8.73C67.8833 8.73 68.1433 8.70667 68.31 8.66C68.4767 8.61333 68.59 8.52333 68.65 8.39C68.7167 8.25667 68.75 8.05 68.75 7.77V3.45C68.75 3.18333 68.7267 2.98667 68.68 2.86C68.64 2.73333 68.5533 2.64667 68.42 2.6C68.2933 2.55333 68.0833 2.53 67.79 2.53ZM77.94 1.79C77.94 2.15 78.03 2.46667 78.21 2.74C78.39 3.01333 78.6033 3.24 78.85 3.42C79.1033 3.6 79.46 3.83 79.92 4.11C80.4067 4.40333 80.7833 4.64667 81.05 4.84C81.3233 5.03333 81.5567 5.28333 81.75 5.59C81.9367 5.89 82.03 6.25 82.03 6.67C82.03 7.12333 81.92 7.53 81.7 7.89C81.4733 8.25667 81.1433 8.54333 80.71 8.75C80.2767 8.96333 79.7567 9.07 79.15 9.07C78.43 9.07 77.77 8.90667 77.17 8.58C77.1233 8.55333 77.0933 8.52 77.08 8.48C77.0667 8.44 77.0567 8.38333 77.05 8.31L76.87 6.41C76.8567 6.37 76.8767 6.34667 76.93 6.34C76.9833 6.32667 77.0133 6.34 77.02 6.38C77.16 7.04 77.4367 7.61667 77.85 8.11C78.2567 8.59667 78.7967 8.84 79.47 8.84C79.9367 8.84 80.33 8.71333 80.65 8.46C80.9767 8.2 81.14 7.79 81.14 7.23C81.14 6.81 81.0467 6.44667 80.86 6.14C80.6733 5.83333 80.4467 5.58 80.18 5.38C79.9133 5.18 79.55 4.94333 79.09 4.67C78.6433 4.40333 78.29 4.17 78.03 3.97C77.7767 3.77667 77.56 3.53 77.38 3.23C77.2067 2.93 77.12 2.58 77.12 2.18C77.12 1.71333 77.2433 1.31333 77.49 0.98C77.7367 0.653333 78.0567 0.406667 78.45 0.24C78.85 0.0800003 79.2733 0 79.72 0C80.2733 0 80.82 0.11 81.36 0.33C81.5 0.376667 81.57 0.456667 81.57 0.57L81.67 2.17C81.67 2.21667 81.6433 2.24 81.59 2.24C81.5367 2.24 81.5067 2.22 81.5 2.18C81.4333 1.69333 81.2367 1.24333 80.91 0.83C80.5833 0.416667 80.1133 0.21 79.5 0.21C78.9733 0.21 78.5833 0.36 78.33 0.66C78.07 0.966667 77.94 1.34333 77.94 1.79ZM88.6 0C89.0467 0 89.5 0.0399999 89.96 0.12C90.4133 0.206667 90.7767 0.33 91.05 0.49C91.13 0.523334 91.1833 0.563333 91.21 0.61C91.23 0.65 91.2467 0.72 91.26 0.82L91.41 2.39C91.41 2.41667 91.3867 2.43333 91.34 2.44C91.2933 2.44667 91.2667 2.43333 91.26 2.4C91.0533 1.68667 90.6733 1.15667 90.12 0.81C89.56 0.47 88.87 0.3 88.05 0.3C87.3433 0.3 86.7233 0.456667 86.19 0.77C85.6567 1.08333 85.2467 1.52667 84.96 2.1C84.6667 2.66667 84.52 3.32333 84.52 4.07C84.52 4.93667 84.7 5.74 85.06 6.48C85.42 7.21333 85.9067 7.79667 86.52 8.23C87.1333 8.65667 87.7933 8.87 88.5 8.87C89.1733 8.87 89.7567 8.68667 90.25 8.32C90.7433 7.95333 91.12 7.38667 91.38 6.62C91.38 6.59333 91.4 6.58 91.44 6.58C91.4667 6.58 91.4933 6.58333 91.52 6.59C91.54 6.59667 91.55 6.61 91.55 6.63L91.36 8.21C91.34 8.32333 91.3167 8.39667 91.29 8.43C91.27 8.46333 91.2167 8.5 91.13 8.54C90.29 8.89333 89.4033 9.07 88.47 9.07C87.35 9.07 86.4133 8.84333 85.66 8.39C84.9133 7.93667 84.3633 7.36 84.01 6.66C83.65 5.96 83.47 5.22333 83.47 4.45C83.47 3.59 83.71 2.82 84.19 2.14C84.6633 1.46 85.2933 0.933333 86.08 0.56C86.86 0.186667 87.7 0 88.6 0Z" fill="black"/>
</svg>
