<svg width="63.238" height="16.94" viewBox="0 0 63.238 16.94" xmlns="http://www.w3.org/2000/svg"><path transform="translate(0 14) scale(.014 -.014)" d="m250 90q48 0 80.5 44.5t44.5 125.5h80q-15-127-69.5-198.5t-135.5-71.5q-67 0-115 49t-74 141-26 220 26 220 74 141 115 49q81 0 135.5-71t69.5-199h-80q-12 81-44.5 125.5t-80.5 44.5q-66 0-103-82t-37-228q0-145 37-227.5t103-82.5z"/><path transform="translate(6.58 14) scale(.014 -.014)" d="m25 300q0 146 47.5 228t132.5 82 132.5-82 47.5-228q0-145-47.5-227.5t-132.5-82.5-132.5 82.5-47.5 227.5zm75 0q0-100 28-157.5t77-57.5q50 0 77.5 57.5t27.5 157.5q0 101-27.5 158t-77.5 57q-49 0-77-57t-28-158z"/><path transform="translate(12.32 14) scale(.014 -.014)" d="m21 180h75q0-45 24-70t61-25q38 0 61.5 22.5t23.5 52.5-20 52.5-65 37.5q-90 30-122.5 76.5t-32.5 113.5q0 40 18 79t52.5 65 84.5 26 84.5-26.5 52.5-70 18-93.5h-75q0 45-21 70t-59 25q-37 0-58.5-22.5t-21.5-52.5 17.5-52.5 62.5-37.5q90-30 125-76t35-114q0-40-19-79t-55-65-86-26-86 26.5-55 70-19 93.5z"/><path transform="translate(17.304 14) scale(.014 -.014)" d="m21 180h75q0-45 24-70t61-25q38 0 61.5 22.5t23.5 52.5-20 52.5-65 37.5q-90 30-122.5 76.5t-32.5 113.5q0 40 18 79t52.5 65 84.5 26 84.5-26.5 52.5-70 18-93.5h-75q0 45-21 70t-59 25q-37 0-58.5-22.5t-21.5-52.5 17.5-52.5 62.5-37.5q90-30 125-76t35-114q0-40-19-79t-55-65-86-26-86 26.5-55 70-19 93.5z"/><path transform="translate(22.288 14) scale(.014 -.014)" d="m375 180q-18-90-61-140t-109-50q-85 0-132.5 82.5t-47.5 227.5q0 146 47.5 228t132.5 82 132.5-82 47.5-228q0-10-0.5-20t-1.5-20h-285q6-82 33.5-128.5t73.5-46.5q33 0 57 25t36 70zm-170 335q-44 0-71.5-43.5t-34.5-121.5h212q-7 78-34.5 121.5t-71.5 43.5z"/><path transform="translate(28.028 14) scale(.014 -.014)" d="m10 600h50v150h80v-150h70v-90h-70v-390q0-30 30-30h40v-90h-50q-45 0-72.5 27.5t-27.5 72.5v410h-50z"/><path transform="translate(31.108 14) scale(.014 -.014)" d="m10 600h50v150h80v-150h70v-90h-70v-390q0-30 30-30h40v-90h-50q-45 0-72.5 27.5t-27.5 72.5v410h-50z"/><path transform="translate(34.188 14) scale(.014 -.014)" d="m375 180q-18-90-61-140t-109-50q-85 0-132.5 82.5t-47.5 227.5q0 146 47.5 228t132.5 82 132.5-82 47.5-228q0-10-0.5-20t-1.5-20h-285q6-82 33.5-128.5t73.5-46.5q33 0 57 25t36 70zm-170 335q-44 0-71.5-43.5t-34.5-121.5h212q-7 78-34.5 121.5t-71.5 43.5z"/><path transform="translate(42.448 14) scale(.014 -.014)" d="M170 0V700H10V800H410V700H250V0Z"/><path transform="translate(48.328 14) scale(.014 -.014)" d="M45 660V760H125V660ZM45 0V600H125V0Z"/><path transform="translate(50.708 14) scale(.014 -.014)" d="m10 600h50v150h80v-150h70v-90h-70v-390q0-30 30-30h40v-90h-50q-45 0-72.5 27.5t-27.5 72.5v410h-50z"/><path transform="translate(53.788 14) scale(.014 -.014)" d="m125 500h5q8 38 33 69t62 31h30v-100h-30q-100 0-100-200v-300h-80v600h80z"/><path transform="translate(57.498 14) scale(.014 -.014)" d="m375 180q-18-90-61-140t-109-50q-85 0-132.5 82.5t-47.5 227.5q0 146 47.5 228t132.5 82 132.5-82 47.5-228q0-10-0.5-20t-1.5-20h-285q6-82 33.5-128.5t73.5-46.5q33 0 57 25t36 70zm-170 335q-44 0-71.5-43.5t-34.5-121.5h212q-7 78-34.5 121.5t-71.5 43.5z"/></svg>