<svg width="63" height="11" viewBox="0 0 63 11" fill="none" xmlns="http://www.w3.org/2000/svg">
<path d="M8.8 3.55H8.23C8.19 3.55 8.13667 3.50667 8.07 3.42C8.01 3.33333 7.93667 3.22333 7.85 3.09C7.76333 2.96333 7.66667 2.81667 7.56 2.65C7.45333 2.49 7.32333 2.33 7.17 2.17C7.02333 2.01 6.86667 1.86333 6.7 1.73C6.53333 1.60333 6.33667 1.49667 6.11 1.41C5.89 1.32333 5.65667 1.28 5.41 1.28C4.99 1.28 4.6 1.35667 4.24 1.51C3.88 1.66333 3.57333 1.87 3.32 2.13C3.07333 2.38333 2.86 2.68333 2.68 3.03C2.5 3.37667 2.36667 3.74 2.28 4.12C2.19333 4.5 2.15 4.89333 2.15 5.3C2.15 5.68 2.20333 6.05 2.31 6.41C2.41 6.77667 2.56667 7.12 2.78 7.44C2.99333 7.76667 3.24667 8.05 3.54 8.29C3.84 8.53667 4.20333 8.73 4.63 8.87C5.05 9.01667 5.51 9.09 6.01 9.09C7.07 9.09 8.05 8.75333 8.95 8.08C9.12333 8.32 9.21 8.55333 9.21 8.78C9.21 9.10667 9.03333 9.41 8.68 9.69C8.32667 9.96333 7.89333 10.17 7.38 10.31C6.86667 10.45 6.34667 10.52 5.82 10.52C5.12 10.52 4.47667 10.4233 3.89 10.23C3.29667 10.0367 2.79333 9.77333 2.38 9.44C1.97333 9.10667 1.62667 8.71667 1.34 8.27C1.04667 7.83 0.833333 7.36 0.7 6.86C0.566667 6.36667 0.5 5.85333 0.5 5.32C0.5 4.60667 0.616667 3.92667 0.85 3.28C1.08333 2.63333 1.40333 2.06667 1.81 1.58C2.22333 1.1 2.73333 0.716667 3.34 0.43C3.94 0.143334 4.59333 0 5.3 0C5.74667 0 6.19667 0.1 6.65 0.3C7.11 0.5 7.48 0.793334 7.76 1.18C7.76 0.493334 7.85 0.15 8.03 0.15H8.8C9.02 0.15 9.13 0.39 9.13 0.87V2.69C9.13 2.95 9.11667 3.14 9.09 3.26C9.06333 3.38 9.03 3.45667 8.99 3.49C8.95 3.51667 8.88667 3.53667 8.8 3.55ZM9.99 8.35C9.77667 7.85667 9.67 7.3 9.67 6.68C9.67 6.06667 9.77667 5.51 9.99 5.01C10.21 4.51667 10.5033 4.11667 10.87 3.81C11.2367 3.50333 11.6433 3.26667 12.09 3.1C12.5433 2.93333 13.0167 2.85 13.51 2.85C13.9967 2.85 14.4667 2.93333 14.92 3.1C15.3667 3.26667 15.7733 3.50333 16.14 3.81C16.5 4.11667 16.79 4.51667 17.01 5.01C17.23 5.51 17.34 6.06667 17.34 6.68C17.34 7.3 17.23 7.85667 17.01 8.35C16.79 8.85 16.5 9.25667 16.14 9.57C15.7733 9.87667 15.3667 10.1133 14.92 10.28C14.4667 10.44 13.9967 10.52 13.51 10.52C13.0167 10.52 12.5433 10.44 12.09 10.28C11.6433 10.1133 11.2367 9.87667 10.87 9.57C10.5033 9.25667 10.21 8.85 9.99 8.35ZM11.93 4.72C11.4833 5.18667 11.26 5.84 11.26 6.68C11.26 7.52 11.4833 8.17667 11.93 8.65C12.37 9.12333 12.89 9.36 13.49 9.36C13.7767 9.36 14.0533 9.3 14.32 9.18C14.5867 9.06667 14.8233 8.90333 15.03 8.69C15.2433 8.47 15.4133 8.18667 15.54 7.84C15.6733 7.5 15.74 7.11333 15.74 6.68C15.74 6.25333 15.6733 5.86667 15.54 5.52C15.4133 5.17333 15.2433 4.89333 15.03 4.68C14.8233 4.46667 14.5867 4.30333 14.32 4.19C14.0533 4.07667 13.7767 4.02 13.49 4.02C12.89 4.02 12.37 4.25333 11.93 4.72ZM25.22 3.46V8.47C25.22 8.59 25.2233 8.67667 25.23 8.73C25.2367 8.77667 25.25 8.83 25.27 8.89C25.29 8.95667 25.3233 9 25.37 9.02C25.4167 9.04 25.4833 9.05667 25.57 9.07C25.65 9.09 25.7567 9.1 25.89 9.1C26.0967 9.1 26.23 9.12333 26.29 9.17C26.3433 9.22333 26.37 9.32667 26.37 9.48C26.37 9.70667 26.3433 9.90667 26.29 10.08C26.2433 10.26 26.1967 10.3633 26.15 10.39C25.8167 10.3567 25.5067 10.34 25.22 10.34C25.0333 10.34 24.84 10.35 24.64 10.37C24.44 10.3833 24.3167 10.39 24.27 10.39C24.0833 10.39 23.9733 10.3367 23.94 10.23C23.9 10.1233 23.88 9.83333 23.88 9.36C23.56 9.72667 23.1767 10.0133 22.73 10.22C22.2767 10.42 21.8167 10.52 21.35 10.52C21.0167 10.52 20.7033 10.4667 20.41 10.36C20.1167 10.2467 19.85 10.08 19.61 9.86C19.3767 9.64 19.19 9.34667 19.05 8.98C18.9167 8.61333 18.85 8.19333 18.85 7.72V4.97C18.85 4.53667 18.7333 4.31333 18.5 4.3C18.4667 4.29333 18.4167 4.28667 18.35 4.28C18.2833 4.28 18.23 4.27667 18.19 4.27C18.15 4.26333 18.1033 4.25667 18.05 4.25C17.9967 4.24333 17.9533 4.23667 17.92 4.23C17.8933 4.22333 17.8567 4.21333 17.81 4.2C17.77 4.19333 17.7367 4.18333 17.71 4.17C17.69 4.15667 17.6667 4.14 17.64 4.12C17.62 4.1 17.6033 4.07667 17.59 4.05C17.5833 4.03 17.58 4.00333 17.58 3.97C17.58 3.44333 17.6567 3.11 17.81 2.97C18.2367 3.02333 18.63 3.05 18.99 3.05C19.2433 3.05 19.5 3.03667 19.76 3.01C20.02 2.98333 20.1567 2.97 20.17 2.97C20.3233 2.97 20.4 3.13333 20.4 3.46V7.8C20.4 8.3 20.53 8.67333 20.79 8.92C21.05 9.17333 21.3833 9.3 21.79 9.3C22.13 9.3 22.4733 9.21 22.82 9.03C23.1667 8.84333 23.45 8.59333 23.67 8.28V4.97C23.67 4.53667 23.5567 4.31333 23.33 4.3C23.2967 4.29333 23.2467 4.28667 23.18 4.28C23.1133 4.28 23.06 4.27667 23.02 4.27C22.98 4.26333 22.9333 4.25667 22.88 4.25C22.8267 4.24333 22.7833 4.23667 22.75 4.23C22.7167 4.22333 22.68 4.21333 22.64 4.2C22.5933 4.19333 22.56 4.18333 22.54 4.17C22.5133 4.15667 22.49 4.14 22.47 4.12C22.4433 4.1 22.4267 4.07667 22.42 4.05C22.4133 4.03 22.41 4.00333 22.41 3.97C22.41 3.43667 22.4833 3.10333 22.63 2.97C23.0633 3.02333 23.46 3.05 23.82 3.05C24.12 3.05 24.4267 3.03667 24.74 3.01C25.0467 2.98333 25.2067 2.97 25.22 2.97C25.22 2.97 25.22 3.13333 25.22 3.46ZM33.05 8.53C33.05 8.99 32.91 9.37 32.63 9.67C32.35 9.97667 31.98 10.1967 31.52 10.33C31.06 10.4567 30.5167 10.52 29.89 10.52C28.9233 10.52 28.1667 10.3833 27.62 10.11C27.0733 9.83 26.8 9.40333 26.8 8.83C26.8 8.17667 27.2 7.85 28 7.85C28.1267 7.85 28.21 7.87667 28.25 7.93C28.29 7.97667 28.31 8.07 28.31 8.21V9.14C28.4833 9.23333 28.7333 9.30667 29.06 9.36C29.3933 9.40667 29.7267 9.43 30.06 9.43C30.4667 9.43 30.8 9.34667 31.06 9.18C31.32 9.01333 31.45 8.78333 31.45 8.49C31.45 8.29 31.3833 8.10667 31.25 7.94C31.1167 7.78 30.9433 7.65 30.73 7.55C30.5167 7.45 30.2733 7.35 30 7.25C29.7267 7.14333 29.4467 7.04667 29.16 6.96C28.8733 6.87333 28.5933 6.76333 28.32 6.63C28.04 6.50333 27.7933 6.36 27.58 6.2C27.3667 6.04667 27.1933 5.84667 27.06 5.6C26.9267 5.34667 26.86 5.06333 26.86 4.75C26.86 4.34333 27.0133 3.99333 27.32 3.7C27.62 3.4 27.9867 3.18333 28.42 3.05C28.8533 2.91667 29.32 2.85 29.82 2.85C31.86 2.85 32.88 3.44333 32.88 4.63C32.88 4.70333 32.8667 4.78 32.84 4.86C32.8133 4.94667 32.7667 5.04333 32.7 5.15C32.6267 5.26333 32.5067 5.35333 32.34 5.42C32.1733 5.49333 31.97 5.53 31.73 5.53C31.6833 5.53 31.6467 5.52333 31.62 5.51C31.5867 5.50333 31.5633 5.49333 31.55 5.48C31.5367 5.47333 31.5233 5.45333 31.51 5.42C31.4967 5.39333 31.49 5.37333 31.49 5.36C31.49 5.34667 31.4867 5.31333 31.48 5.26C31.4733 5.21333 31.47 5.18333 31.47 5.17L31.37 4.21C31.3033 4.14333 31.1067 4.07333 30.78 4C30.4467 3.92 30.1633 3.88 29.93 3.88C29.4633 3.88 29.1167 3.96667 28.89 4.14C28.6633 4.31333 28.55 4.53333 28.55 4.8C28.55 4.98667 28.6333 5.15333 28.8 5.3C28.9667 5.44667 29.1833 5.57 29.45 5.67C29.71 5.77667 30 5.88 30.32 5.98C30.64 6.08 30.96 6.2 31.28 6.34C31.6 6.48 31.8933 6.63667 32.16 6.81C32.42 6.99 32.6333 7.22667 32.8 7.52C32.9667 7.81333 33.05 8.15 33.05 8.53ZM38.33 8.97C38.4633 9.23 38.53 9.47333 38.53 9.7C38.53 9.83333 38.4767 9.94667 38.37 10.04C38.2567 10.1333 38.11 10.2033 37.93 10.25C37.7567 10.3033 37.58 10.34 37.4 10.36C37.22 10.38 37.0467 10.39 36.88 10.39C36.6267 10.39 36.39 10.3567 36.17 10.29C35.95 10.2167 35.74 10.0967 35.54 9.93C35.3467 9.76333 35.19 9.52 35.07 9.2C34.9567 8.88667 34.9 8.51 34.9 8.07V4.11H34.61C34.07 4.11 33.7767 4.11 33.73 4.11C33.5767 4.05667 33.5 3.88333 33.5 3.59C33.5 3.23 33.6133 3.05 33.84 3.05H34.9C34.92 2.90333 34.9367 2.71333 34.95 2.48C34.97 2.24 34.9867 2.05333 35 1.92C35.0133 1.78 35.0333 1.61667 35.06 1.43C35.0933 1.24333 35.1367 1.09667 35.19 0.99C35.2433 0.883334 35.31 0.776667 35.39 0.67C35.47 0.57 35.5767 0.493333 35.71 0.44C35.8367 0.393333 35.99 0.37 36.17 0.37C36.29 0.37 36.3867 0.39 36.46 0.43V3.05H37.36C37.9067 3.05 38.1933 3.03667 38.22 3.01C38.4467 3.01 38.56 3.20667 38.56 3.6C38.56 3.89333 38.4867 4.07 38.34 4.13C38.1867 4.11667 37.89 4.11 37.45 4.11H36.46V8.03C36.46 8.78333 36.7033 9.16 37.19 9.16C37.51 9.16 37.89 9.09667 38.33 8.97ZM44.14 9.41C43.8067 9.76333 43.3867 10.0367 42.88 10.23C42.3733 10.4233 41.8567 10.52 41.33 10.52C40.6767 10.52 40.14 10.35 39.72 10.01C39.2933 9.66333 39.08 9.16 39.08 8.5C39.08 7.8 39.42 7.27333 40.1 6.92C40.6067 6.64667 41.48 6.40667 42.72 6.2C42.9533 6.16 43.3333 6.10333 43.86 6.03C43.86 5.25 43.76 4.71667 43.56 4.43C43.3667 4.13667 42.9933 3.99 42.44 3.99C42.0333 3.99 41.58 4.08 41.08 4.26C40.5867 4.44667 40.19 4.7 39.89 5.02C39.5233 4.71333 39.34 4.41 39.34 4.11C39.34 3.85667 39.5167 3.63 39.87 3.43C40.2167 3.23 40.63 3.08333 41.11 2.99C41.5833 2.89667 42.06 2.85 42.54 2.85C42.9933 2.85 43.39 2.90667 43.73 3.02C44.0633 3.13333 44.36 3.31667 44.62 3.57C44.88 3.83 45.08 4.18333 45.22 4.63C45.3533 5.07667 45.42 5.61667 45.42 6.25V8.44C45.42 8.62667 45.4333 8.76667 45.46 8.86C45.4933 8.95333 45.5267 9.01 45.56 9.03C45.6 9.05 45.66 9.06667 45.74 9.08C45.88 9.09333 45.9833 9.10333 46.05 9.11C46.1233 9.12333 46.2033 9.14 46.29 9.16C46.3833 9.18667 46.45 9.21667 46.49 9.25C46.53 9.29 46.55 9.33667 46.55 9.39C46.55 9.93 46.4733 10.2633 46.32 10.39C46.1 10.3567 45.8167 10.34 45.47 10.34C45.15 10.34 44.8533 10.3567 44.58 10.39C44.5467 10.3633 44.5067 10.33 44.46 10.29C44.4067 10.25 44.34 10.1467 44.26 9.98C44.18 9.80667 44.14 9.61667 44.14 9.41ZM41.64 9.31C42.06 9.31 42.51 9.19333 42.99 8.96C43.4767 8.73333 43.77 8.52667 43.87 8.34V7.13C42.6233 7.35 41.7833 7.55 41.35 7.73C40.91 7.91 40.69 8.16 40.69 8.48C40.69 9.03333 41.0067 9.31 41.64 9.31ZM49.53 3.64V4.09C49.73 3.75667 50.0333 3.46667 50.44 3.22C50.8467 2.97333 51.2333 2.85 51.6 2.85C51.8467 2.85 52.0767 2.89 52.29 2.97C52.51 3.05 52.7 3.19333 52.86 3.4C53.0267 3.60667 53.11 3.85667 53.11 4.15C53.11 4.96333 52.68 5.37 51.82 5.37C51.8 5.37 51.78 5.36667 51.76 5.36C51.74 5.36 51.7267 5.35333 51.72 5.34C51.7067 5.33333 51.6967 5.32667 51.69 5.32C51.6767 5.30667 51.6667 5.29 51.66 5.27C51.6533 5.25667 51.6467 5.24333 51.64 5.23C51.64 5.21667 51.6367 5.19333 51.63 5.16C51.6233 5.13333 51.62 5.11 51.62 5.09C51.62 5.07 51.6167 5.04333 51.61 5.01C51.61 4.97667 51.6067 4.95 51.6 4.93L51.52 4.22C51.4 4.16 51.2667 4.13 51.12 4.13C50.8533 4.13 50.5867 4.22667 50.32 4.42C50.0533 4.61333 49.8567 4.83667 49.73 5.09V8.55C49.73 8.61667 49.7333 8.67 49.74 8.71C49.7467 8.75 49.7633 8.79333 49.79 8.84C49.8167 8.89333 49.86 8.93333 49.92 8.96C49.9867 8.98 50.07 8.99 50.17 8.99C50.3433 8.99 50.49 9.02 50.61 9.08C50.7367 9.13333 50.8 9.21333 50.8 9.32C50.8 9.54 50.7633 9.75667 50.69 9.97C50.6167 10.1833 50.51 10.3233 50.37 10.39C50.05 10.3567 49.5833 10.34 48.97 10.34C48.35 10.34 47.8767 10.3567 47.55 10.39C47.3967 10.3233 47.2867 10.1833 47.22 9.97C47.1533 9.76333 47.12 9.54667 47.12 9.32C47.12 9.21333 47.18 9.13333 47.3 9.08C47.4267 9.02 47.5767 8.99 47.75 8.99C47.9233 8.99 48.04 8.95333 48.1 8.88C48.1533 8.80667 48.18 8.7 48.18 8.56V4.97C48.18 4.72333 48.11 4.55 47.97 4.45C47.83 4.35 47.5633 4.29333 47.17 4.28C47.11 4.26667 47.07 4.23667 47.05 4.19C47.0367 4.14333 47.03 4.04333 47.03 3.89C47.03 3.66333 47.0567 3.46 47.11 3.28C47.1567 3.1 47.2067 2.99667 47.26 2.97C47.58 3.02333 47.8967 3.05 48.21 3.05C48.3967 3.05 48.5967 3.03667 48.81 3.01C49.0233 2.98333 49.1367 2.97 49.15 2.97C49.31 2.97 49.4133 3.01 49.46 3.09C49.5067 3.17 49.53 3.35333 49.53 3.64ZM59.48 7.17V5.38C59.24 4.94667 58.92 4.61 58.52 4.37C58.1267 4.13 57.7167 4.01 57.29 4.01C56.71 4.01 56.22 4.24 55.82 4.7C55.42 5.15333 55.22 5.82 55.22 6.7C55.22 7.53333 55.4333 8.18667 55.86 8.66C56.2933 9.12667 56.8033 9.36 57.39 9.36C57.6433 9.36 57.8933 9.31333 58.14 9.22C58.3867 9.12667 58.61 8.99333 58.81 8.82C59.01 8.64 59.17 8.40667 59.29 8.12C59.4167 7.83333 59.48 7.51667 59.48 7.17ZM61.03 1.13V8.62C61.03 8.68667 61.0333 8.74 61.04 8.78C61.0533 8.82667 61.0733 8.87333 61.1 8.92C61.1333 8.96667 61.1833 9.00333 61.25 9.03C61.3167 9.06333 61.4067 9.08 61.52 9.08C61.9467 9.1 62.16 9.19667 62.16 9.37C62.16 9.91667 62.0833 10.2567 61.93 10.39C61.6767 10.3567 61.4033 10.34 61.11 10.34C60.7033 10.34 60.3033 10.3567 59.91 10.39C59.6233 10.2633 59.48 9.94667 59.48 9.44V9.38C59.2333 9.74667 58.8833 10.03 58.43 10.23C57.9833 10.4233 57.52 10.52 57.04 10.52C56.6 10.52 56.18 10.44 55.78 10.28C55.38 10.1133 55.0167 9.87667 54.69 9.57C54.3633 9.26333 54.1033 8.86 53.91 8.36C53.71 7.86667 53.61 7.31333 53.61 6.7C53.61 6.08 53.7133 5.52333 53.92 5.03C54.1267 4.53 54.4 4.12667 54.74 3.82C55.0867 3.51333 55.4733 3.27667 55.9 3.11C56.32 2.95 56.76 2.86667 57.22 2.86H57.26C58.16 2.86 58.9 3.19667 59.48 3.87V2.08C59.48 1.83333 59.41 1.66 59.27 1.56C59.13 1.46 58.8633 1.4 58.47 1.38C58.41 1.36667 58.37 1.34 58.35 1.3C58.3367 1.25333 58.33 1.15333 58.33 1C58.33 0.766667 58.3567 0.563334 58.41 0.39C58.4567 0.21 58.5067 0.106667 58.56 0.0799999C58.9333 0.126667 59.2933 0.15 59.64 0.15C59.8467 0.15 60.0633 0.14 60.29 0.12C60.5167 0.0933337 60.6367 0.0799999 60.65 0.0799999C60.81 0.0799999 60.9167 0.12 60.97 0.2C61.0167 0.28 61.04 0.463333 61.04 0.75C61.04 0.783333 61.0367 0.84 61.03 0.92C61.03 1.00667 61.03 1.07667 61.03 1.13Z" fill="black"/>
</svg>
