<svg width="78" height="11" viewBox="0 0 78 11" fill="none" xmlns="http://www.w3.org/2000/svg">
<path d="M0.5 5.74C0.5 4.84 0.633333 4.05 0.9 3.37C1.16667 2.69 1.52 2.16333 1.96 1.79C2.82 1.06333 3.79333 0.7 4.88 0.7C5.96667 0.7 6.94333 0.936666 7.81 1.41C7.93 1.47667 7.99 1.57 7.99 1.69V3.5C7.99 3.64 7.92 3.71 7.78 3.71H7C6.86 3.71 6.79333 3.64 6.8 3.5L6.84 2.52C6.26667 2.12667 5.61 1.93 4.87 1.93C3.07667 1.93 2.18 3.12333 2.18 5.51C2.18 6.25667 2.27 6.91 2.45 7.47C2.62333 8.02333 2.93667 8.48 3.39 8.84C3.83667 9.20667 4.43333 9.39 5.18 9.39C5.92667 9.39 6.48667 9.24 6.86 8.94L6.8 7.96C6.79333 7.82 6.86 7.75 7 7.75H7.8C7.94 7.75 8.01 7.82 8.01 7.96V9.74C8.01 9.87333 7.96333 9.96333 7.87 10.01C7.04333 10.41 6.10333 10.61 5.05 10.61C3.52333 10.61 2.38333 10.1767 1.63 9.31C0.876667 8.43667 0.5 7.24667 0.5 5.74ZM11.51 4.71C11.6633 4.33667 11.92 4.01667 12.28 3.75C12.6333 3.49 13.02 3.36 13.44 3.36C13.86 3.36 14.18 3.39667 14.4 3.47C14.5133 3.50333 14.57 3.58667 14.57 3.72V5.61C14.57 5.75 14.5 5.82 14.36 5.82H13.45C13.31 5.82 13.2467 5.75 13.26 5.61L13.31 4.8C13.2633 4.78667 13.1833 4.78 13.07 4.78C12.6433 4.78 12.29 4.95667 12.01 5.31C11.73 5.65667 11.59 6.12667 11.59 6.72V9.33H13.13C13.27 9.33 13.34 9.4 13.34 9.54V10.23C13.34 10.37 13.27 10.44 13.13 10.44H9.28C9.14 10.44 9.07 10.37 9.07 10.23V9.54C9.07 9.4 9.14 9.33 9.28 9.33H10.02V4.66H9.27C9.13 4.66 9.06 4.59 9.06 4.45V3.72C9.06 3.58 9.13 3.51 9.27 3.51H11.11C11.2433 3.51 11.3233 3.58 11.35 3.72L11.51 4.71ZM18.73 10.61C17.6167 10.61 16.8033 10.2867 16.29 9.64C15.77 8.98667 15.51 8.12667 15.51 7.06C15.51 5.99333 15.7867 5.11 16.34 4.41C16.8867 3.71 17.68 3.36 18.72 3.36C19.2333 3.36 19.6733 3.45333 20.04 3.64C20.4067 3.83333 20.69 4.09333 20.89 4.42C21.2633 5.05333 21.45 5.78667 21.45 6.62C21.45 7.01333 21.43 7.22667 21.39 7.26C21.35 7.3 21.28 7.32 21.18 7.32H17.06C17.1067 7.99333 17.2733 8.51333 17.56 8.88C17.8467 9.24667 18.34 9.43 19.04 9.43C19.5533 9.43 20.08 9.31 20.62 9.07C20.7533 9.00333 20.8467 9.04 20.9 9.18L21.17 9.82C21.2167 9.93333 21.1733 10.0267 21.04 10.1C20.4267 10.44 19.6567 10.61 18.73 10.61ZM17.06 6.28H19.98C19.9933 5.11333 19.5333 4.53 18.6 4.53C18.0533 4.53 17.6667 4.70667 17.44 5.06C17.2067 5.40667 17.08 5.81333 17.06 6.28ZM26.07 4.66H24.65V8.19C24.65 8.62333 24.7067 8.94 24.82 9.14C24.9333 9.33333 25.1433 9.43 25.45 9.43C25.7567 9.43 26.0567 9.36667 26.35 9.24C26.45 9.2 26.5233 9.23667 26.57 9.35L26.82 9.99C26.8333 10.0167 26.84 10.0567 26.84 10.11C26.84 10.1633 26.7933 10.2167 26.7 10.27C26.2467 10.4967 25.7133 10.61 25.1 10.61C24.2667 10.61 23.72 10.3933 23.46 9.96C23.2733 9.68 23.1667 9.41 23.14 9.15C23.1 8.79667 23.08 8.42333 23.08 8.03V4.66H22.29C22.15 4.66 22.08 4.59 22.08 4.45V3.72C22.08 3.58 22.15 3.51 22.29 3.51H23.08V1.62C23.08 1.48 23.15 1.41 23.29 1.41H24.44C24.58 1.41 24.65 1.48 24.65 1.62V3.51H26.07C26.21 3.51 26.28 3.58 26.28 3.72V4.45C26.28 4.59 26.21 4.66 26.07 4.66ZM30.74 10.61C29.6333 10.61 28.82 10.2867 28.3 9.64C27.78 8.98667 27.52 8.12667 27.52 7.06C27.52 5.99333 27.7967 5.11 28.35 4.41C28.8967 3.71 29.69 3.36 30.73 3.36C31.2433 3.36 31.6833 3.45333 32.05 3.64C32.4167 3.83333 32.7 4.09333 32.9 4.42C33.2733 5.05333 33.46 5.78667 33.46 6.62C33.46 7.01333 33.44 7.22667 33.4 7.26C33.3667 7.3 33.2967 7.32 33.19 7.32H29.08C29.1267 7.99333 29.29 8.51333 29.57 8.88C29.8567 9.24667 30.35 9.43 31.05 9.43C31.5633 9.43 32.09 9.31 32.63 9.07C32.7633 9.00333 32.8567 9.04 32.91 9.18L33.18 9.82C33.2267 9.93333 33.1833 10.0267 33.05 10.1C32.4367 10.44 31.6667 10.61 30.74 10.61ZM29.08 6.28H31.99C32.01 5.11333 31.5533 4.53 30.62 4.53C30.0667 4.53 29.6767 4.70667 29.45 5.06C29.2167 5.40667 29.0933 5.81333 29.08 6.28ZM37.24 10.23V9.54C37.24 9.4 37.31 9.33 37.45 9.33H38.18V2.05H37.45C37.31 2.05 37.24 1.98 37.24 1.84V1.14C37.24 1 37.31 0.93 37.45 0.93C38.6433 0.876666 39.6367 0.85 40.43 0.85C42.8567 0.85 44.07 1.71667 44.07 3.45C44.07 4.05667 43.9167 4.59333 43.61 5.06C43.3033 5.52 42.8933 5.87 42.38 6.11L44.01 9.33H44.88C45.02 9.33 45.09 9.4 45.09 9.54V10.23C45.09 10.37 45.02 10.44 44.88 10.44H43.03C42.89 10.44 42.79 10.38 42.73 10.26L40.82 6.49H40.54C40.24 6.49 39.9733 6.47667 39.74 6.45V9.33H40.63C40.77 9.33 40.84 9.4 40.84 9.54V10.23C40.84 10.37 40.77 10.44 40.63 10.44H37.45C37.31 10.44 37.24 10.37 37.24 10.23ZM40.25 2.01H39.74V5.39C39.82 5.39667 39.93 5.4 40.07 5.4C40.8233 5.4 41.41 5.25 41.83 4.95C42.25 4.65 42.46 4.20333 42.46 3.61C42.46 2.54333 41.7233 2.01 40.25 2.01ZM45.79 7.08C45.79 6.38 45.8967 5.77333 46.11 5.26C46.33 4.74667 46.61 4.36 46.95 4.1C47.6167 3.60667 48.3367 3.36 49.11 3.36C49.6767 3.36 50.1567 3.44667 50.55 3.62C50.9433 3.8 51.25 4.00667 51.47 4.24C51.69 4.47333 51.8767 4.81 52.03 5.25C52.1833 5.68333 52.26 6.19667 52.26 6.79C52.26 8.03667 51.9433 8.98667 51.31 9.64C50.6833 10.2867 49.88 10.61 48.9 10.61C47.92 10.61 47.1567 10.3133 46.61 9.72C46.0633 9.12667 45.79 8.24667 45.79 7.08ZM49.01 9.46C49.57 9.46 49.98 9.25333 50.24 8.84C50.4933 8.42 50.62 7.8 50.62 6.98C50.62 6.16 50.4933 5.54333 50.24 5.13C49.98 4.71 49.56 4.5 48.98 4.5C47.9067 4.5 47.37 5.25667 47.37 6.77C47.37 8.56333 47.9167 9.46 49.01 9.46ZM59.89 3.72V9.33H60.51C60.65 9.33 60.72 9.4 60.72 9.54V10.23C60.72 10.37 60.65 10.44 60.51 10.44H58.94C58.8267 10.44 58.7567 10.37 58.73 10.23L58.6 9.45C58.0067 10.2233 57.2233 10.61 56.25 10.61C54.7367 10.61 53.98 9.81667 53.98 8.23V4.66H53.24C53.1 4.66 53.03 4.59 53.03 4.45V3.72C53.03 3.58 53.1 3.51 53.24 3.51H55.34C55.48 3.51 55.55 3.58 55.55 3.72V7.81C55.55 8.37 55.6233 8.76667 55.77 9C55.91 9.24 56.2167 9.36 56.69 9.36C57.1633 9.36 57.5533 9.22 57.86 8.94C58.1667 8.66 58.32 8.34333 58.32 7.99V4.66H57.44C57.3 4.66 57.23 4.59 57.23 4.45V3.72C57.23 3.58 57.3 3.51 57.44 3.51H59.68C59.82 3.51 59.89 3.58 59.89 3.72ZM61.49 4.46V3.72C61.49 3.58 61.56 3.51 61.7 3.51H63.6C63.72 3.51 63.7933 3.58 63.82 3.72L63.95 4.53C64.47 3.75 65.2167 3.36 66.19 3.36C67.6367 3.36 68.36 4.15333 68.36 5.74V9.33H69.17C69.31 9.33 69.38 9.4 69.38 9.54V10.23C69.38 10.37 69.31 10.44 69.17 10.44H66.12C65.98 10.44 65.91 10.37 65.91 10.23V9.54C65.91 9.4 65.98 9.33 66.12 9.33H66.79V6.44C66.79 5.84667 66.7167 5.41667 66.57 5.15C66.4167 4.87667 66.1067 4.74 65.64 4.74C65.1733 4.74 64.7867 4.88 64.48 5.16C64.1733 5.44 64.02 5.75667 64.02 6.11V9.33H64.89C65.03 9.33 65.1 9.4 65.1 9.54V10.23C65.1 10.37 65.03 10.44 64.89 10.44H61.71C61.57 10.44 61.5 10.37 61.5 10.23V9.54C61.5 9.4 61.57 9.33 61.71 9.33H62.45V4.66H61.7C61.56 4.66 61.49 4.59333 61.49 4.46ZM76.52 0.21V9.33H77.12C77.26 9.33 77.33 9.4 77.33 9.54V10.23C77.33 10.37 77.26 10.44 77.12 10.44H75.54C75.42 10.44 75.35 10.37 75.33 10.23L75.22 9.4C74.7467 10.2067 73.9867 10.61 72.94 10.61C72.0267 10.61 71.32 10.3233 70.82 9.75C70.3267 9.17667 70.08 8.28333 70.08 7.07C70.08 5.86333 70.3667 4.94333 70.94 4.31C71.5133 3.67667 72.2533 3.36 73.16 3.36C73.5733 3.36 73.9367 3.43667 74.25 3.59C74.57 3.74333 74.8033 3.92667 74.95 4.14V1.16H74.21C74.07 1.16 74 1.09 74 0.95V0.21C74 0.07 74.07 0 74.21 0H76.31C76.45 0 76.52 0.07 76.52 0.21ZM74.95 7.81V5.34C74.83 5.15333 74.62 4.98333 74.32 4.83C74.0133 4.67 73.7067 4.59 73.4 4.59C72.24 4.59 71.66 5.37333 71.66 6.94C71.66 8.14667 71.9233 8.89667 72.45 9.19C72.67 9.32333 72.9767 9.39 73.37 9.39C73.7633 9.39 74.1267 9.24667 74.46 8.96C74.7867 8.66667 74.95 8.28333 74.95 7.81Z" fill="black"/>
</svg>
