<svg width="40.824" height="19.236" viewBox="0 0 40.824 19.236" xmlns="http://www.w3.org/2000/svg"><path transform="translate(0 14.137) scale(.0068359 -.0068359)" d="m338-38q-40 0-63 25.5t-23 62.5q0 29 10 56t26 50l411 817q52 81 103.5 109.5t79.5 28.5q45 0 64-26t19-62q0-59-37-122-32-59-72-131.5t-112-199.5q-67-116-135.5-224.5t-132.5-195.5q158 16 302 102t254 210q109 122 170.5 258.5t61.5 251.5q0 134-67 220t-207 86q-86 0-172.5-21t-159.5-56.5-121-79.5q-46-50-70.5-87t-59.5-80q-30-35-64-57t-80-22q-86 0-86 76 0 73 67.5 158t182.5 161q114 75 265 124t313 49q172 0 283.5-65.5t166-177.5 54.5-250q0-139-62.5-292.5t-183-293-293.5-239.5q-130-75-289-119t-343-44z"/><path transform="translate(9.5498 14.137) scale(.0068359 -.0068359)" d="m261-25q-34 0-81 19t-82.5 63-35.5 118q0 62 28 155t88 183q60 92 153.5 153t216.5 61q44 0 77-11t56-24q13-8 24.5-16.5t21.5-18.5l35 17q15 7 31.5 12.5t28.5 5.5q38 0 62-21t24-46q0-8-1-11-7-28-25.5-77t-39.5-109q-21-58-35.5-112t-14.5-89q0-30 10-49.5t34-19.5q29 0 78 33.5t101 79.5q28 25 58 53.5t61 60.5q16 13 31 13 20 0 33.5-19.5t13.5-43.5q0-28-19-47-40-37-82-79t-116-103q-66-54-136-92.5t-126-38.5q-70 0-102 54.5t-32 116.5q0 45 13 80-41-55-97-113.5t-121-98-133-39.5zm80 176q32 0 80.5 41t93.5 96q50 60 79 109t29 66q0 38-44 60.5t-79 22.5q-62 0-117.5-40t-90.5-102.5-35-129.5q0-39 14.5-81t69.5-42z"/><path transform="translate(16.276 14.137) scale(.0068359 -.0068359)" d="m98-26q-36 0-57 23t-21 55q0 26 28 98t65 154q40 87 77.5 169t59.5 134q18 43 47.5 64t58.5 21q25 0 44.5-18.5t19.5-53.5q0-25-12-57 36 33 78.5 71.5t98.5 65.5 131 27q56 0 98-29t46-97q47 47 109 86.5t150 39.5q67 0 117-30.5t50-106.5q0-60-27.5-114t-64.5-99q-14-17-42.5-50t-52-71-23.5-71q0-22 13.5-28t35.5-6q42 0 90.5 24.5t96 60.5 87 74 64.5 65q12 13 30 13t32.5-16 14.5-42q0-20-12-44t-41-47q-69-67-145.5-127.5t-154.5-98.5-154-38q-74 0-119.5 35t-45.5 111q0 68 33.5 127.5t76 111 69.5 94.5q10 16 16 30.5t6 29.5q0 37-35 37-59 0-115-36.5t-103-92.5q-49-57-86.5-117t-68.5-109q-19-35-39-87.5t-48.5-93.5-72.5-41q-26 0-51.5 17t-27.5 43q0 65 40 139t92.5 147 89.5 134q10 16 16 30.5t6 29.5q0 37-35 37-59 0-115-36.5t-103-92.5q-49-57-86.5-117t-68.5-109q-19-35-39-87.5t-48.5-93.5-72.5-41z"/><path transform="translate(25.245 14.137) scale(.0068359 -.0068359)" d="m461 794q-62 0-87 19.5t-28 51.5q0 47 34.5 92.5t102.5 45.5q58 0 81-22.5t23-56.5q0-38-29.5-84t-96.5-46zm-245-819q-81 0-127.5 41.5t-46.5 129.5q0 61 22.5 121.5t50 114 43.5 93.5q5 13 17.5 40t26.5 55l34 70q17 28 39 40t45 12q38 0 65.5-24.5t27.5-62.5q-1-9-2.5-18t-6.5-18q-22-40-38-74.5t-33-69.5q-14-29-35-71t-37-84.5-16-75.5q0-27 13.5-35.5t38.5-8.5q40 0 88.5 25t92.5 62q46 37 85 75.5t58 62.5q19 19 40 19 18 0 29.5-16t11.5-41q0-23-11.5-49t-37.5-49q-66-67-138-127.5t-147.5-98.5-151.5-38z"/><path transform="translate(28.526 14.137) scale(.0068359 -.0068359)" d="m251-25q-40 0-90.5 21.5t-87.5 68.5-37 124q0 62 29.5 152t90.5 178q62 89 159 148.5t225 59.5q51 0 108.5-19t98.5-63.5 41-122.5q0-64-32-149 18-22 51-22 31 0 72 25t81 61q41 36 74.5 72t52.5 58q7 7 17 7 22 0 32-28t-4-70.5-65-87.5q-30-32-73.5-78.5t-94-82-102.5-35.5q-53 0-100 34-74-116-188-183.5t-258-67.5zm87 175q63 0 118 42t89 106 34 131q0 26-5.5 54.5t-24.5 48-61 19.5q-62 0-117-39.5t-89.5-102-34.5-130.5q0-25 6-55.5t25.5-52 59.5-21.5z"/><path transform="translate(34.323 14.137) scale(.0068359 -.0068359)" d="m92-25q-35 0-55 22t-20 54q0 26 30 97.5t70 153.5q51 107 90 185.5t58 119.5q20 43 50 64t59 21q24 0 43-17.5t19-51.5q0-13-3-28t-11-32q31 39 92 76.5t132 62.5 131 25q53 0 88.5-25.5t35.5-86.5q0-52-23-112.5t-55-116.5q-34-59-63.5-103.5t-45.5-73.5q-13-16-13-37 0-20 21-20 7 0 16 1.5t22 10.5q75 28 149.5 71t137 89 100.5 81q16 13 31 13 36 0 36-46 0-31-19.5-69t-61.5-71q-73-52-136.5-96.5t-134.5-80.5-169-64q-51-16-87-16-102 0-102 112 0 7 0.5 13.5t1.5 14.5q3 45 32 104.5t63 117.5q34 56 61 105t27 73q0 36-34 36-63 0-120.5-37t-108-93.5-92.5-118-74-111.5q-23-38-44.5-89t-50-89-73.5-38z"/></svg>