<svg width="102" height="11" viewBox="0 0 102 11" fill="none" xmlns="http://www.w3.org/2000/svg">
<path d="M7.92 4.62C7.94 4.68667 7.93667 4.75333 7.91 4.82C7.87667 4.88667 7.87 4.95667 7.89 5.03C7.89 5.07 7.88 5.10667 7.86 5.14C7.86 5.16 7.85667 5.17667 7.85 5.19C7.84333 5.20333 7.84 5.21667 7.84 5.23C7.84667 5.37667 7.84667 5.47667 7.84 5.53C7.84 5.57667 7.81667 5.67667 7.77 5.83C7.77667 5.86333 7.78333 5.90667 7.79 5.96C7.79 6.01333 7.79667 6.06667 7.81 6.12C7.79667 6.18667 7.77333 6.27 7.74 6.37C7.71333 6.35667 7.68667 6.34333 7.66 6.33C7.64 6.32333 7.62 6.31333 7.6 6.3C7.54 6.28667 7.51 6.31 7.51 6.37C7.51 6.43667 7.52333 6.49667 7.55 6.55C7.57 6.60333 7.6 6.65333 7.64 6.7C7.62 6.77333 7.60333 6.85 7.59 6.93C7.57667 7.01667 7.56 7.10667 7.54 7.2C7.49333 7.28667 7.44333 7.37333 7.39 7.46C7.33 7.54667 7.25333 7.61333 7.16 7.66C7.15333 7.70667 7.14667 7.74667 7.14 7.78C7.12667 7.81333 7.11 7.85333 7.09 7.9C7.01 7.96667 6.92667 8.03333 6.84 8.1C6.76 8.17333 6.69 8.24667 6.63 8.32C6.58333 8.36 6.54333 8.37333 6.51 8.36C6.47 8.35333 6.43 8.35333 6.39 8.36C6.33 8.40667 6.27 8.45333 6.21 8.5C6.14333 8.54667 6.08 8.59333 6.02 8.64C5.95333 8.68 5.89 8.72333 5.83 8.77C5.77667 8.81667 5.71667 8.86333 5.65 8.91H5.44C5.39333 8.94333 5.35333 8.97333 5.32 9C5.28 9.02 5.23667 9.04667 5.19 9.08C5.16333 9.08 5.14333 9.08 5.13 9.08C5.11667 9.08667 5.1 9.08667 5.08 9.08C4.98667 9.06667 4.92 9.06667 4.88 9.08C4.84667 9.09333 4.77333 9.12333 4.66 9.17C4.57333 9.20333 4.49 9.23667 4.41 9.27C4.32333 9.29667 4.23667 9.33 4.15 9.37C4.05 9.32333 3.94667 9.3 3.84 9.3C3.73333 9.3 3.62333 9.3 3.51 9.3C3.45667 9.26 3.4 9.22667 3.34 9.2C3.30667 9.18 3.27667 9.16667 3.25 9.16C3.23 9.15333 3.2 9.14333 3.16 9.13C3.14 9.13 3.11333 9.13 3.08 9.13C3.04667 9.13 3.01333 9.14 2.98 9.16C2.96 9.16667 2.93667 9.18 2.91 9.2C2.88333 9.22 2.86 9.24333 2.84 9.27C2.66 9.24333 2.47667 9.22 2.29 9.2C2.10333 9.17333 1.91667 9.14 1.73 9.1C1.65667 9.08667 1.58333 9.06667 1.51 9.04C1.44333 9.02 1.37333 9 1.3 8.98C1.24 8.98667 1.18333 8.99667 1.13 9.01C1.07667 9.01667 1.01667 9.03 0.95 9.05C0.796667 9.07 0.69 9.00333 0.63 8.85C0.63 8.83 0.626667 8.81333 0.62 8.8C0.613333 8.78 0.61 8.76333 0.61 8.75C0.63 8.65 0.65 8.55333 0.67 8.46C0.69 8.36667 0.703333 8.27667 0.71 8.19C0.71 8.17667 0.73 8.15 0.77 8.11V8.05C0.73 8.02333 0.693333 7.99667 0.66 7.97C0.626667 7.94333 0.596667 7.91667 0.57 7.89L0.56 6.63V6.61H0.65C0.643333 6.59 0.63 6.57333 0.61 6.56C0.59 6.54667 0.573333 6.53667 0.56 6.53C0.56 6.53 0.573333 6.48667 0.6 6.4C0.626667 6.32 0.643333 6.26 0.65 6.22C0.67 6.16667 0.67 6.12 0.65 6.08C0.623333 6.04 0.606667 6.00333 0.6 5.97C0.62 5.93 0.636667 5.89333 0.65 5.86C0.67 5.82667 0.686667 5.79333 0.7 5.76C0.686667 5.71333 0.67 5.67 0.65 5.63C0.636667 5.59667 0.62 5.56 0.6 5.52C0.586667 5.47333 0.59 5.42333 0.61 5.37C0.623333 5.32333 0.63 5.28 0.63 5.24C0.643333 5.19333 0.646667 5.14667 0.64 5.1C0.633333 5.05333 0.63 4.99667 0.63 4.93C0.596667 4.83 0.553333 4.72 0.5 4.6C0.526667 4.54 0.55 4.48333 0.57 4.43C0.59 4.37 0.61 4.31333 0.63 4.26L0.58 4.06C0.6 3.98667 0.623333 3.91 0.65 3.83C0.67 3.75 0.686667 3.68 0.7 3.62C0.66 3.48 0.643333 3.34 0.65 3.2C0.65 3.06667 0.65 2.93 0.65 2.79C0.65 2.71667 0.673333 2.63333 0.72 2.54C0.74 2.52 0.753333 2.49667 0.76 2.47C0.766667 2.45 0.773333 2.43667 0.78 2.43C0.733333 2.33667 0.706667 2.26667 0.7 2.22C0.7 2.16 0.706667 2.1 0.72 2.04C0.74 1.98 0.726667 1.92667 0.68 1.88C0.653333 1.78 0.643333 1.68333 0.65 1.59C0.663333 1.50333 0.68 1.41333 0.7 1.32C0.746667 1.27333 0.786667 1.22333 0.82 1.17C0.846667 1.12333 0.88 1.07 0.92 1.01C0.966667 1.00333 1.01667 0.993333 1.07 0.98C1.11667 0.966667 1.16 0.963334 1.2 0.97C1.34667 0.996667 1.50667 0.973333 1.68 0.9C1.72667 0.873333 1.77333 0.863334 1.82 0.87C1.87333 0.883334 1.92667 0.896667 1.98 0.91C2.16 0.883334 2.34 0.856667 2.52 0.83C2.69333 0.803333 2.86333 0.766667 3.03 0.72C3.07667 0.7 3.12333 0.693334 3.17 0.7C3.21667 0.713334 3.27333 0.72 3.34 0.72L3.59 0.61C3.63667 0.616667 3.68333 0.626667 3.73 0.64C3.77667 0.653334 3.82333 0.67 3.87 0.69C3.93 0.683333 3.98667 0.67 4.04 0.65C4.1 0.63 4.16 0.616667 4.22 0.61C4.26 0.623333 4.3 0.646667 4.34 0.68C4.37333 0.706667 4.41 0.73 4.45 0.75C4.55 0.736667 4.64333 0.716667 4.73 0.69C4.82333 0.663333 4.91667 0.643333 5.01 0.63C5.04333 0.67 5.07 0.71 5.09 0.75C5.11 0.796667 5.14 0.833333 5.18 0.86C5.21333 0.906667 5.26667 0.926667 5.34 0.92C5.40667 0.913333 5.45333 0.883333 5.48 0.83C5.5 0.783333 5.53 0.763333 5.57 0.77C5.61667 0.783333 5.66333 0.826667 5.71 0.9C5.76333 0.9 5.82 0.896667 5.88 0.89C5.93333 0.876667 5.99333 0.87 6.06 0.87C6.10667 0.896667 6.14667 0.923334 6.18 0.95C6.21333 0.97 6.24667 1 6.28 1.04C6.32 1.08 6.35667 1.11333 6.39 1.14C6.43 1.17333 6.47333 1.20667 6.52 1.24C6.57333 1.26667 6.61 1.30667 6.63 1.36C6.67 1.42 6.71667 1.47333 6.77 1.52C6.81667 1.57333 6.86333 1.62333 6.91 1.67C6.98333 1.75667 7.09667 1.82333 7.25 1.87C7.27 1.87667 7.29 1.88333 7.31 1.89C7.33667 1.90333 7.35333 1.91333 7.36 1.92C7.38 1.99333 7.4 2.06667 7.42 2.14C7.44667 2.20667 7.46333 2.28 7.47 2.36C7.46333 2.44 7.45 2.51 7.43 2.57C7.45 2.65 7.48667 2.71667 7.54 2.77C7.6 2.82333 7.65333 2.87667 7.7 2.93C7.82667 3.13667 7.89 3.37333 7.89 3.64C7.89 3.73333 7.89667 3.82667 7.91 3.92C7.91667 4.00667 7.91 4.09333 7.89 4.18C7.88333 4.25333 7.89 4.32667 7.91 4.4C7.93667 4.47333 7.94 4.54667 7.92 4.62ZM5.85 4.36C5.83 4.31333 5.80333 4.26333 5.77 4.21C5.73667 4.15667 5.71 4.10333 5.69 4.05C5.66333 3.99667 5.64 3.94 5.62 3.88C5.60667 3.81333 5.59 3.75 5.57 3.69C5.41667 3.67 5.28667 3.62333 5.18 3.55C5.07333 3.47 4.97 3.39333 4.87 3.32H4.66C4.56667 3.24667 4.47667 3.18 4.39 3.12C4.31 3.06 4.22333 2.99667 4.13 2.93C3.97 2.91 3.81333 2.90667 3.66 2.92C3.50667 2.93333 3.36333 2.92667 3.23 2.9C3.14333 2.92667 3.07 2.95 3.01 2.97C2.95 2.98333 2.89333 2.99667 2.84 3.01C2.78 3.05 2.74333 3.08 2.73 3.1C2.69667 3.24 2.68667 3.38 2.7 3.52C2.70667 3.66 2.71667 3.8 2.73 3.94C2.76333 3.99333 2.77 4.04667 2.75 4.1C2.72333 4.15333 2.71667 4.20333 2.73 4.25C2.73667 4.27667 2.74333 4.30333 2.75 4.33C2.75 4.35667 2.75667 4.39333 2.77 4.44C2.75 4.5 2.73667 4.56 2.73 4.62C2.73 4.68 2.72333 4.74667 2.71 4.82C2.71 4.96667 2.69667 5.10667 2.67 5.24C2.69667 5.28667 2.72 5.33 2.74 5.37C2.76 5.41667 2.78 5.46333 2.8 5.51C2.76667 5.59 2.73667 5.67667 2.71 5.77C2.67667 5.85667 2.65 5.93667 2.63 6.01C2.63 6.05667 2.63 6.10333 2.63 6.15C2.63667 6.19667 2.63667 6.24333 2.63 6.29C2.61667 6.40333 2.58667 6.51667 2.54 6.63L2.6 6.72C2.65333 6.86 2.76667 6.91333 2.94 6.88C3.04 6.88 3.12333 6.86667 3.19 6.84C3.25667 6.82 3.32 6.81667 3.38 6.83C3.44 6.84333 3.50333 6.84667 3.57 6.84C3.64333 6.82 3.72333 6.79333 3.81 6.76C3.89667 6.72667 3.98 6.69667 4.06 6.67C4.10667 6.65667 4.14667 6.64667 4.18 6.64C4.22 6.63333 4.25667 6.63333 4.29 6.64C4.37667 6.64667 4.46667 6.64667 4.56 6.64C4.65333 6.63333 4.74667 6.62333 4.84 6.61C4.86 6.59 4.88667 6.57333 4.92 6.56C4.96 6.54667 4.99333 6.53 5.02 6.51C5.16 6.45 5.28333 6.34333 5.39 6.19C5.43667 6.12333 5.47667 6.05 5.51 5.97C5.53667 5.89667 5.57 5.82667 5.61 5.76C5.68333 5.6 5.74 5.44333 5.78 5.29C5.81333 5.13667 5.82333 4.97667 5.81 4.81C5.79667 4.77 5.79333 4.73 5.8 4.69C5.80667 4.65667 5.81333 4.62 5.82 4.58C5.82667 4.54667 5.83667 4.51 5.85 4.47C5.85667 4.43 5.85667 4.39333 5.85 4.36ZM15.83 8.4C15.8567 8.46667 15.8667 8.53 15.86 8.59C15.8467 8.64333 15.8267 8.69667 15.8 8.75C15.7933 8.76333 15.7767 8.77667 15.75 8.79C15.7167 8.80333 15.6933 8.82 15.68 8.84C15.64 8.84667 15.6067 8.85 15.58 8.85C15.5533 8.85 15.52 8.86 15.48 8.88C15.34 8.90667 15.2567 8.98 15.23 9.1C15.2167 9.12 15.1967 9.14333 15.17 9.17C15.1033 9.18333 15.0567 9.19667 15.03 9.21C15.0033 9.22333 14.9467 9.25333 14.86 9.3C14.8 9.3 14.7367 9.31 14.67 9.33C14.6033 9.35 14.5433 9.38667 14.49 9.44C14.47 9.44 14.4533 9.44333 14.44 9.45C14.4333 9.45 14.42 9.45 14.4 9.45C14.3667 9.47 14.3267 9.46333 14.28 9.43C14.2333 9.39667 14.21 9.35667 14.21 9.31V9.23C14.17 9.21 14.1233 9.21 14.07 9.23C14.0233 9.25 13.9833 9.23 13.95 9.17V8.96C13.9233 8.94667 13.9 8.93 13.88 8.91C13.8533 8.89667 13.8267 8.88667 13.8 8.88C13.76 8.80667 13.7167 8.72667 13.67 8.64C13.6233 8.56 13.5767 8.48667 13.53 8.42C13.4967 8.39333 13.4667 8.38333 13.44 8.39C13.4067 8.39667 13.3833 8.41 13.37 8.43C13.35 8.45 13.3333 8.47 13.32 8.49C13.3133 8.51667 13.3 8.54 13.28 8.56C13.26 8.58 13.2467 8.60333 13.24 8.63C13.2333 8.65667 13.22 8.68 13.2 8.7C13.08 8.75333 12.9567 8.80333 12.83 8.85C12.71 8.89 12.5933 8.92333 12.48 8.95C12.42 8.99667 12.3567 9.04 12.29 9.08C12.2233 9.11333 12.1633 9.15 12.11 9.19C12.05 9.19667 11.9933 9.21 11.94 9.23C11.88 9.25 11.8267 9.26333 11.78 9.27C11.7267 9.24333 11.6733 9.23667 11.62 9.25C11.5733 9.26333 11.51 9.28 11.43 9.3C11.35 9.28 11.2633 9.26 11.17 9.24C11.0767 9.21333 10.9767 9.19 10.87 9.17C10.8433 9.18333 10.8167 9.19 10.79 9.19C10.7633 9.19 10.74 9.19333 10.72 9.2C10.68 9.18 10.65 9.16333 10.63 9.15C10.6033 9.13 10.5733 9.11333 10.54 9.1C10.4933 9.08667 10.45 9.08667 10.41 9.1C10.3767 9.12 10.3367 9.14 10.29 9.16C10.2433 9.14 10.19 9.13 10.13 9.13C10.0767 9.12333 10.02 9.11333 9.96 9.1C9.91333 9.05333 9.87667 9.01333 9.85 8.98C9.81667 8.94 9.79333 8.89333 9.78 8.84C9.76 8.82 9.74333 8.80333 9.73 8.79C9.71 8.77667 9.69333 8.76333 9.68 8.75C9.64667 8.62333 9.60667 8.51333 9.56 8.42C9.42667 8.14 9.33667 7.83 9.29 7.49C9.27 7.47667 9.25333 7.45667 9.24 7.43C9.22 7.41 9.19667 7.38333 9.17 7.35C9.15667 7.27 9.14667 7.19 9.14 7.11C9.12667 7.03 9.11333 6.94333 9.1 6.85C9.11333 6.79667 9.12 6.74667 9.12 6.7C9.10667 6.60667 9.09 6.52 9.07 6.44C9.10333 6.33333 9.14333 6.22333 9.19 6.11C9.23 5.99667 9.24 5.88 9.22 5.76C9.24 5.72 9.26333 5.68333 9.29 5.65C9.31667 5.61667 9.34 5.58667 9.36 5.56C9.44667 5.46667 9.50667 5.36 9.54 5.24C9.57333 5.14 9.62333 5.05 9.69 4.97C9.76333 4.89667 9.84 4.83667 9.92 4.79C10.0267 4.74333 10.1267 4.69333 10.22 4.64C10.32 4.59333 10.4167 4.55 10.51 4.51C10.53 4.51 10.5567 4.51333 10.59 4.52C10.6233 4.52667 10.6467 4.52333 10.66 4.51C10.8333 4.48333 10.98 4.47333 11.1 4.48C11.1533 4.49333 11.21 4.49333 11.27 4.48C11.3233 4.47333 11.3733 4.47 11.42 4.47L11.71 4.41C11.77 4.42333 11.8267 4.44 11.88 4.46C11.94 4.47333 11.9967 4.46667 12.05 4.44C12.07 4.44 12.0867 4.44333 12.1 4.45C12.1133 4.45667 12.1233 4.46 12.13 4.46C12.1767 4.47333 12.22 4.49333 12.26 4.52C12.3 4.54 12.3433 4.55 12.39 4.55C12.49 4.57 12.5533 4.55333 12.58 4.5C12.5733 4.34 12.5633 4.23667 12.55 4.19C12.5367 4.14333 12.5067 4.07 12.46 3.97C12.4267 3.91 12.4067 3.85 12.4 3.79C12.3933 3.73 12.3833 3.67333 12.37 3.62C12.3633 3.58 12.3567 3.54333 12.35 3.51C12.3433 3.47667 12.3233 3.44333 12.29 3.41C12.17 3.37 12.02 3.34 11.84 3.32H11.76C11.6733 3.36 11.5833 3.38 11.49 3.38C11.3967 3.38 11.3 3.39 11.2 3.41C11.1333 3.41667 11.0633 3.43333 10.99 3.46C10.9233 3.48667 10.8533 3.51 10.78 3.53C10.7 3.57 10.6233 3.55333 10.55 3.48C10.5233 3.39333 10.5133 3.30667 10.52 3.22C10.52 3.12667 10.5267 3.03333 10.54 2.94C10.52 2.88 10.4967 2.80333 10.47 2.71C10.4433 2.62333 10.43 2.52 10.43 2.4L10.44 2.3C10.4333 2.28 10.4167 2.26 10.39 2.24C10.37 2.22667 10.35 2.21333 10.33 2.2C10.3033 2.17333 10.2967 2.14667 10.31 2.12C10.31 2.09333 10.3267 2.08 10.36 2.08C10.4333 2.06 10.5033 2.04333 10.57 2.03C10.63 2.02333 10.6933 2.01667 10.76 2.01L10.93 1.84C10.95 1.82667 10.9733 1.82 11 1.82C11.2133 1.86 11.37 1.87667 11.47 1.87C11.57 1.85667 11.72 1.81667 11.92 1.75C12.0267 1.76333 12.13 1.78 12.23 1.8C12.3233 1.81333 12.4233 1.81667 12.53 1.81C12.5567 1.83667 12.5867 1.86333 12.62 1.89C12.6533 1.91 12.6867 1.93333 12.72 1.96C12.7667 1.94667 12.8133 1.93 12.86 1.91C12.9067 1.89667 12.95 1.88667 12.99 1.88C13.0433 1.92 13.1033 1.95667 13.17 1.99C13.2167 2.00333 13.2567 1.99333 13.29 1.96C13.3233 1.93333 13.3567 1.92 13.39 1.92C13.4767 1.93333 13.5467 1.97333 13.6 2.04C13.6467 2.11333 13.7033 2.17333 13.77 2.22C13.83 2.25333 13.8833 2.3 13.93 2.36C13.9833 2.41333 14.0367 2.46333 14.09 2.51C14.11 2.53667 14.13 2.56333 14.15 2.59C14.17 2.62333 14.1833 2.65333 14.19 2.68C14.2367 2.71333 14.28 2.74333 14.32 2.77C14.3533 2.79 14.3867 2.82 14.42 2.86C14.4667 2.9 14.5133 2.92667 14.56 2.94C14.6133 2.96 14.6533 2.99333 14.68 3.04C14.7 3.08667 14.72 3.13667 14.74 3.19C14.76 3.24333 14.7933 3.28667 14.84 3.32C14.8667 3.41333 14.8933 3.51 14.92 3.61C14.9467 3.71 14.95 3.81 14.93 3.91C14.93 3.95667 14.9267 4 14.92 4.04C14.94 4.08667 14.9533 4.13667 14.96 4.19C14.9733 4.24333 14.9867 4.29333 15 4.34V4.41C15 4.44333 15 4.47333 15 4.5C14.9933 4.53333 14.9933 4.56 15 4.58C15.02 4.64 15.0433 4.68333 15.07 4.71C15.07 4.76333 15.0467 4.81333 15 4.86C14.9867 4.87333 14.9633 4.88333 14.93 4.89C14.9033 4.89667 14.88 4.91 14.86 4.93C14.7533 4.99667 14.74 5.08 14.82 5.18C14.8333 5.19333 14.85 5.21 14.87 5.23C14.8967 5.25667 14.9133 5.28333 14.92 5.31C14.9267 5.35 14.93 5.39 14.93 5.43C14.93 5.47 14.9367 5.51333 14.95 5.56C14.91 5.74 14.84 5.91 14.74 6.07C14.7667 6.19667 14.81 6.32 14.87 6.44C14.93 6.56667 14.9833 6.69333 15.03 6.82C15.0767 6.84667 15.1133 6.87667 15.14 6.91C15.1733 6.93667 15.2067 6.96 15.24 6.98C15.2533 7.00667 15.26 7.02333 15.26 7.03C15.2667 7.04333 15.27 7.05667 15.27 7.07C15.27 7.16333 15.2833 7.25667 15.31 7.35C15.33 7.44333 15.36 7.53333 15.4 7.62C15.4333 7.70667 15.47 7.78667 15.51 7.86C15.5433 7.93333 15.59 8.00667 15.65 8.08C15.6967 8.12 15.7333 8.17333 15.76 8.24C15.7867 8.3 15.81 8.35333 15.83 8.4ZM12.76 6.51C12.7067 6.37 12.6367 6.27667 12.55 6.23C12.45 6.18333 12.3867 6.12333 12.36 6.05C12.3467 6.01667 12.3267 5.99333 12.3 5.98C12.2733 5.97333 12.2467 5.96333 12.22 5.95C12.18 5.95 12.1333 5.95333 12.08 5.96C12.0333 5.96667 11.9867 5.97333 11.94 5.98C11.88 5.98 11.8267 5.97 11.78 5.95C11.7267 5.93667 11.6767 5.92333 11.63 5.91C11.5433 5.91 11.4633 5.93333 11.39 5.98C11.3567 6.00667 11.3233 6.03333 11.29 6.06C11.2633 6.08 11.2367 6.11 11.21 6.15L11.03 6.49C11.05 6.54333 11.0733 6.59 11.1 6.63C11.1267 6.67667 11.1267 6.73667 11.1 6.81C11.12 6.89 11.14 6.97667 11.16 7.07C11.1867 7.15667 11.2233 7.24333 11.27 7.33C11.2833 7.34333 11.2967 7.35 11.31 7.35C11.41 7.37 11.5133 7.38 11.62 7.38C11.72 7.38 11.8167 7.37667 11.91 7.37C11.95 7.37 11.9767 7.36333 11.99 7.35C12.0967 7.29667 12.2233 7.24667 12.37 7.2C12.43 7.19333 12.4833 7.15 12.53 7.07C12.5633 6.99 12.6 6.9 12.64 6.8C12.6733 6.7 12.7133 6.60333 12.76 6.51ZM9.8 8.81C9.8 8.81 9.79667 8.81 9.79 8.81C9.78333 8.81 9.78 8.82 9.78 8.84C9.8 8.82 9.80667 8.81 9.8 8.81ZM21.98 3.18C21.9933 3.33333 21.97 3.44 21.91 3.5C21.8633 3.56 21.8333 3.62333 21.82 3.69C21.8 3.75 21.7867 3.82 21.78 3.9C21.76 3.92667 21.7433 3.95333 21.73 3.98C21.7167 4.00667 21.7 4.03333 21.68 4.06C21.6467 4.1 21.6133 4.14333 21.58 4.19C21.5467 4.23667 21.5167 4.28333 21.49 4.33C21.47 4.37 21.4533 4.41333 21.44 4.46C21.4333 4.50667 21.42 4.55333 21.4 4.6C21.3933 4.60667 21.3867 4.61667 21.38 4.63C21.3733 4.64333 21.3667 4.65667 21.36 4.67C21.3533 4.67667 21.3433 4.68 21.33 4.68C21.31 4.68 21.2967 4.68333 21.29 4.69H21.22C21.0133 4.61 20.8133 4.60667 20.62 4.68C20.58 4.68667 20.5467 4.69 20.52 4.69C20.4933 4.69 20.46 4.69 20.42 4.69C20.3933 4.70333 20.37 4.71 20.35 4.71C20.3233 4.71 20.3 4.71333 20.28 4.72C20.1667 4.76667 20.07 4.82667 19.99 4.9C19.9033 4.98 19.8233 5.06 19.75 5.14C19.71 5.25333 19.67 5.36667 19.63 5.48C19.59 5.6 19.57 5.73 19.57 5.87C19.57 5.87667 19.5633 5.89333 19.55 5.92C19.5433 5.94 19.5367 5.96 19.53 5.98C19.5167 6.02 19.5033 6.05 19.49 6.07C19.4767 6.09667 19.46 6.12667 19.44 6.16C19.42 6.22 19.3967 6.27667 19.37 6.33C19.3433 6.39 19.32 6.44667 19.3 6.5C19.32 6.56667 19.32 6.62667 19.3 6.68C19.2733 6.74 19.26 6.79667 19.26 6.85C19.28 6.93667 19.2833 7.01333 19.27 7.08C19.2567 7.15333 19.24 7.22667 19.22 7.3C19.1933 7.38 19.18 7.46667 19.18 7.56C19.1867 7.64667 19.19 7.73333 19.19 7.82C19.1833 7.92 19.18 8.02667 19.18 8.14C19.1867 8.25333 19.19 8.36 19.19 8.46C19.19 8.52667 19.1867 8.59667 19.18 8.67C19.1667 8.74333 19.16 8.81667 19.16 8.89C19.1333 8.95 19.11 8.99 19.09 9.01C19.0233 9.11 18.9433 9.18 18.85 9.22C18.7567 9.26667 18.6567 9.28333 18.55 9.27C18.47 9.26333 18.3933 9.25333 18.32 9.24C18.24 9.23333 18.16 9.22667 18.08 9.22C18.0467 9.20667 18 9.19333 17.94 9.18C17.8867 9.16667 17.8367 9.15 17.79 9.13C17.75 9.14333 17.72 9.15 17.7 9.15C17.6733 9.15667 17.6467 9.16333 17.62 9.17C17.5 9.13667 17.39 9.06667 17.29 8.96C17.2967 8.9 17.3 8.83667 17.3 8.77C17.3 8.70333 17.3033 8.63667 17.31 8.57C17.3033 8.54333 17.2967 8.51 17.29 8.47C17.29 8.42333 17.28 8.38333 17.26 8.35C17.2467 8.29 17.2333 8.23333 17.22 8.18C17.2 8.12667 17.1933 8.06667 17.2 8C17.1933 7.86 17.1667 7.69667 17.12 7.51C17.14 7.49 17.1567 7.46333 17.17 7.43C17.1833 7.39667 17.1933 7.36667 17.2 7.34C17.2133 7.31333 17.22 7.28667 17.22 7.26C17.2267 7.24 17.23 7.21667 17.23 7.19C17.23 7.17 17.2333 7.15333 17.24 7.14C17.2533 7.12667 17.25 7.11 17.23 7.09C17.2233 7.06333 17.2167 7.03333 17.21 7C17.2033 6.96667 17.1967 6.93667 17.19 6.91C17.1767 6.81667 17.1767 6.72333 17.19 6.63C17.1967 6.59 17.2033 6.55333 17.21 6.52C17.2167 6.48667 17.2233 6.45333 17.23 6.42C17.25 6.37333 17.2567 6.32 17.25 6.26C17.2433 6.20667 17.2167 6.16 17.17 6.12C17.1633 6.11333 17.1567 6.10333 17.15 6.09C17.15 6.07667 17.14 6.06333 17.12 6.05C17.1067 6.00333 17.1 5.95333 17.1 5.9C17.0933 5.84 17.08 5.78667 17.06 5.74C17.0533 5.68 17.0433 5.62 17.03 5.56C17.0167 5.50667 17.01 5.44667 17.01 5.38C17.0233 5.26667 17.0267 5.15667 17.02 5.05C17.0133 4.94333 17.0233 4.83333 17.05 4.72C17.05 4.7 17.0467 4.67667 17.04 4.65C17.0333 4.62333 17.03 4.6 17.03 4.58C17.0233 4.48 17.0167 4.37667 17.01 4.27C17.01 4.17 17.0267 4.07 17.06 3.97C17.08 3.93 17.09 3.88667 17.09 3.84C17.09 3.79333 17.09 3.74667 17.09 3.7C17.09 3.61333 17.0933 3.53333 17.1 3.46C17.1 3.38 17.12 3.3 17.16 3.22C17.16 3.19333 17.1467 3.14667 17.12 3.08C17.14 3.03333 17.1567 2.98667 17.17 2.94C17.1833 2.88667 17.1933 2.83667 17.2 2.79C17.22 2.74333 17.2333 2.7 17.24 2.66C17.2533 2.61333 17.2633 2.57333 17.27 2.54C17.33 2.48 17.3833 2.45667 17.43 2.47C17.5233 2.49667 17.6167 2.49667 17.71 2.47C17.81 2.45 17.9067 2.44333 18 2.45C18.0267 2.45 18.0533 2.44333 18.08 2.43C18.1133 2.41667 18.1433 2.40667 18.17 2.4C18.33 2.35333 18.46 2.35667 18.56 2.41C18.6267 2.52333 18.6633 2.60667 18.67 2.66C18.6833 2.72 18.6933 2.85667 18.7 3.07C18.7267 3.17 18.7767 3.26667 18.85 3.36C18.87 3.38 18.9033 3.39333 18.95 3.4C18.99 3.40667 19.02 3.4 19.04 3.38C19.0733 3.35333 19.1033 3.32667 19.13 3.3C19.1633 3.28 19.1933 3.25 19.22 3.21C19.2733 3.16333 19.3267 3.11333 19.38 3.06C19.4333 3.01333 19.4767 2.97 19.51 2.93C19.6167 2.88333 19.7167 2.83667 19.81 2.79C19.91 2.74333 20.02 2.69667 20.14 2.65H20.46L20.49 2.64C20.5033 2.64 20.51 2.63667 20.51 2.63C20.5167 2.62333 20.5233 2.62667 20.53 2.64L20.58 2.62C20.6867 2.68 20.7833 2.69333 20.87 2.66C21.0167 2.61333 21.16 2.63333 21.3 2.72C21.3867 2.76 21.4667 2.79667 21.54 2.83C21.6133 2.87 21.6933 2.91333 21.78 2.96C21.8067 2.99333 21.84 3.03 21.88 3.07C21.9133 3.11 21.9467 3.14667 21.98 3.18ZM29.02 3.94C29.04 3.99333 29.0467 4.05 29.04 4.11C29.0333 4.16333 29.02 4.21333 29 4.26C28.9867 4.32667 28.9767 4.39333 28.97 4.46C28.9633 4.53333 28.96 4.60667 28.96 4.68C28.96 4.77333 28.96 4.86333 28.96 4.95C28.9533 5.04333 28.95 5.13667 28.95 5.23C28.95 5.29 28.95 5.36 28.95 5.44C28.95 5.51333 28.94 5.59 28.92 5.67C28.88 5.82333 28.8367 5.98 28.79 6.14C28.7433 6.29333 28.7067 6.45667 28.68 6.63C28.6733 6.64333 28.6667 6.66667 28.66 6.7C28.6533 6.73333 28.6433 6.77 28.63 6.81C28.5433 6.98333 28.4567 7.18 28.37 7.4C28.3367 7.44667 28.2967 7.49667 28.25 7.55C28.21 7.60333 28.1667 7.65333 28.12 7.7C28.0867 7.73333 28.0467 7.75667 28 7.77C27.96 7.79 27.92 7.81 27.88 7.83C27.8667 7.83 27.8533 7.85 27.84 7.89C27.86 7.90333 27.8767 7.92667 27.89 7.96C27.9033 7.98667 27.9167 8.01 27.93 8.03C27.85 8.13667 27.7367 8.24333 27.59 8.35C27.55 8.35667 27.5067 8.36667 27.46 8.38C27.4067 8.39333 27.3533 8.40667 27.3 8.42C27.2067 8.47333 27.0967 8.54667 26.97 8.64C26.9633 8.66 26.95 8.68667 26.93 8.72C26.91 8.75333 26.8933 8.78 26.88 8.8C26.8133 8.83333 26.75 8.84667 26.69 8.84C26.63 8.82667 26.56 8.81667 26.48 8.81C26.4533 8.81667 26.43 8.83 26.41 8.85C26.3833 8.86333 26.3567 8.87667 26.33 8.89C26.31 8.90333 26.29 8.92 26.27 8.94C26.2433 8.96667 26.22 8.98333 26.2 8.99C26.0933 9.03667 25.9833 9.05 25.87 9.03C25.7567 9.01667 25.6433 9.02333 25.53 9.05C25.4833 9.02333 25.4367 9 25.39 8.98C25.3367 8.96 25.2867 8.94 25.24 8.92C25.24 8.9 25.24 8.88333 25.24 8.87C25.2467 8.85 25.2567 8.82667 25.27 8.8C25.25 8.73333 25.2067 8.69333 25.14 8.68C25.0733 8.66667 25.01 8.65 24.95 8.63C24.89 8.61 24.8267 8.61 24.76 8.63C24.6933 8.63 24.66 8.58333 24.66 8.49C24.6467 8.40333 24.6167 8.36 24.57 8.36H24.51C24.4433 8.38667 24.38 8.39 24.32 8.37C24.26 8.34333 24.2033 8.30667 24.15 8.26C24.11 8.22667 24.0867 8.17667 24.08 8.11C24.08 8.04333 24.06 7.97667 24.02 7.91C23.9933 7.86333 23.95 7.82667 23.89 7.8C23.83 7.76667 23.7767 7.73 23.73 7.69C23.67 7.55 23.6133 7.41667 23.56 7.29C23.5 7.16333 23.4467 7.04 23.4 6.92C23.3733 6.86667 23.3633 6.81667 23.37 6.77C23.3767 6.73 23.38 6.67667 23.38 6.61L23.33 6.54C23.33 6.54 23.3233 6.52333 23.31 6.49C23.2433 6.30333 23.2 6.11667 23.18 5.93C23.16 5.74333 23.18 5.55 23.24 5.35C23.2267 5.32333 23.2133 5.29667 23.2 5.27C23.1867 5.24333 23.17 5.22 23.15 5.2C23.13 5.15333 23.1333 5.10667 23.16 5.06C23.18 5.01333 23.19 4.97 23.19 4.93C23.1767 4.80333 23.1833 4.69667 23.21 4.61C23.23 4.56333 23.2333 4.51667 23.22 4.47C23.2133 4.42333 23.2133 4.38 23.22 4.34C23.2467 4.23333 23.2667 4.12667 23.28 4.02C23.2867 3.90667 23.2967 3.8 23.31 3.7C23.3167 3.49333 23.3433 3.29333 23.39 3.1C23.41 3.02667 23.4367 2.96 23.47 2.9C23.51 2.84667 23.55 2.79 23.59 2.73C23.6033 2.71667 23.6267 2.70333 23.66 2.69C23.6867 2.68333 23.7133 2.67333 23.74 2.66C23.7933 2.65333 23.85 2.64667 23.91 2.64C23.9767 2.62667 24.05 2.61667 24.13 2.61C24.1767 2.61667 24.23 2.62667 24.29 2.64C24.35 2.64667 24.4133 2.65 24.48 2.65C24.5467 2.65667 24.6133 2.66333 24.68 2.67C24.7467 2.67667 24.8167 2.68333 24.89 2.69C24.8967 2.71667 24.9067 2.74 24.92 2.76C24.9267 2.78 24.9333 2.8 24.94 2.82C24.94 2.88667 24.94 2.95 24.94 3.01C24.9333 3.07 24.93 3.13333 24.93 3.2C24.9367 3.22667 24.9467 3.25 24.96 3.27C24.98 3.29667 24.9933 3.32667 25 3.36C24.9933 3.4 24.98 3.44333 24.96 3.49C24.9467 3.53667 24.9333 3.58333 24.92 3.63C24.9467 3.77667 24.96 3.93333 24.96 4.1C24.96 4.26 24.97 4.42 24.99 4.58C25.0033 4.68667 25.0167 4.78667 25.03 4.88C25.0367 4.98 25.0533 5.08 25.08 5.18C25.0733 5.24667 25.08 5.31333 25.1 5.38C25.12 5.44667 25.1367 5.51333 25.15 5.58C25.1833 5.64 25.2067 5.70333 25.22 5.77C25.2333 5.83667 25.25 5.90667 25.27 5.98C25.3167 6.13333 25.3867 6.27 25.48 6.39C25.5333 6.44333 25.5733 6.48 25.6 6.5C25.62 6.50667 25.6433 6.51 25.67 6.51C25.69 6.51 25.71 6.51667 25.73 6.53C25.7967 6.53 25.8467 6.51 25.88 6.47C25.92 6.43667 25.9633 6.41333 26.01 6.4C26.11 6.35333 26.2067 6.31667 26.3 6.29C26.3467 6.29667 26.3933 6.3 26.44 6.3H26.54L26.76 6.16C26.8067 6.08667 26.84 6.00333 26.86 5.91C26.88 5.81667 26.9233 5.73667 26.99 5.67C27.0367 5.59667 27.0767 5.52333 27.11 5.45C27.15 5.37667 27.1967 5.31667 27.25 5.27C27.27 5.13667 27.2867 5.01333 27.3 4.9C27.3067 4.79333 27.33 4.68333 27.37 4.57C27.3767 4.54333 27.3767 4.51333 27.37 4.48C27.37 4.44667 27.37 4.41667 27.37 4.39C27.3567 4.33 27.35 4.27333 27.35 4.22C27.3433 4.17333 27.34 4.14 27.34 4.12C27.3467 4.02 27.35 3.92667 27.35 3.84C27.35 3.75333 27.3567 3.67333 27.37 3.6C27.3767 3.52667 27.38 3.45 27.38 3.37C27.38 3.29 27.3833 3.21667 27.39 3.15C27.41 3.00333 27.4767 2.90333 27.59 2.85C27.63 2.83 27.6633 2.81333 27.69 2.8C27.7167 2.78667 27.75 2.77333 27.79 2.76C27.8233 2.75333 27.86 2.75 27.9 2.75C27.9333 2.75 27.98 2.74333 28.04 2.73C28.0867 2.74333 28.1333 2.76 28.18 2.78C28.2333 2.79333 28.29 2.81 28.35 2.83C28.4033 2.84333 28.4567 2.84333 28.51 2.83C28.5567 2.82333 28.61 2.81 28.67 2.79C28.7033 2.79667 28.7367 2.80667 28.77 2.82C28.7967 2.82667 28.8267 2.84 28.86 2.86C28.8733 2.86667 28.8833 2.87667 28.89 2.89C28.9033 2.91 28.91 2.92667 28.91 2.94C28.9167 2.98667 28.9233 3.04 28.93 3.1C28.9433 3.15333 28.95 3.21 28.95 3.27C28.9567 3.37667 28.9633 3.48667 28.97 3.6C28.9767 3.71333 28.9933 3.82667 29.02 3.94ZM39.62 6.47C39.6067 6.54333 39.6 6.62667 39.6 6.72C39.5933 6.80667 39.5833 6.89333 39.57 6.98C39.5633 7.05333 39.56 7.12333 39.56 7.19C39.56 7.25 39.5467 7.32 39.52 7.4C39.5 7.44667 39.49 7.49333 39.49 7.54C39.49 7.59333 39.49 7.64667 39.49 7.7C39.49 7.74667 39.49 7.79667 39.49 7.85C39.49 7.90333 39.4867 7.95333 39.48 8C39.4667 8.07333 39.4533 8.15 39.44 8.23C39.4267 8.31 39.41 8.38667 39.39 8.46C39.3833 8.5 39.37 8.54 39.35 8.58C39.33 8.62 39.31 8.65333 39.29 8.68L39.2 8.78C39.14 8.84 39.0733 8.86 39 8.84C38.9533 8.82 38.91 8.80667 38.87 8.8C38.8233 8.78667 38.7767 8.8 38.73 8.84C38.67 8.79333 38.5933 8.75667 38.5 8.73H38.34C38.32 8.73 38.3033 8.72333 38.29 8.71C38.27 8.70333 38.25 8.7 38.23 8.7C38.2033 8.70667 38.1767 8.71667 38.15 8.73C38.1167 8.73667 38.0933 8.74333 38.08 8.75C38.02 8.75 37.98 8.74667 37.96 8.74C37.86 8.65333 37.81 8.55 37.81 8.43C37.8033 8.33 37.7833 8.23 37.75 8.13C37.7233 8.03 37.6967 7.93 37.67 7.83C37.69 7.75667 37.6967 7.67667 37.69 7.59C37.6833 7.51 37.6867 7.42667 37.7 7.34C37.7067 7.29333 37.71 7.24333 37.71 7.19C37.7033 7.14333 37.7167 7.09667 37.75 7.05C37.75 6.93667 37.7667 6.81 37.8 6.67C37.8067 6.63 37.8067 6.58667 37.8 6.54C37.7867 6.44667 37.77 6.35667 37.75 6.27C37.7233 6.18333 37.6867 6.09667 37.64 6.01C37.62 5.97 37.6 5.93333 37.58 5.9C37.5533 5.87333 37.5167 5.85333 37.47 5.84C37.4367 5.81333 37.3967 5.79 37.35 5.77C37.3033 5.75 37.26 5.73333 37.22 5.72C37.1533 5.74667 37.0967 5.76333 37.05 5.77C37.0367 5.76333 37.0133 5.75333 36.98 5.74C36.9533 5.73333 36.93 5.72667 36.91 5.72C36.9033 5.72667 36.8933 5.73 36.88 5.73C36.8667 5.73 36.8533 5.73333 36.84 5.74C36.7867 5.82667 36.7167 5.89667 36.63 5.95C36.5967 5.96333 36.56 5.98667 36.52 6.02C36.4867 6.05333 36.45 6.08333 36.41 6.11C36.3833 6.13667 36.35 6.15333 36.31 6.16C36.2633 6.17333 36.2167 6.19 36.17 6.21C36.1633 6.23667 36.1567 6.26333 36.15 6.29C36.1433 6.31667 36.1333 6.34333 36.12 6.37C36.1067 6.39 36.0933 6.41333 36.08 6.44C36.0667 6.47333 36.0567 6.49667 36.05 6.51C36.0033 6.64333 35.9733 6.76667 35.96 6.88C35.9533 6.90667 35.95 6.93333 35.95 6.96C35.97 7.02 35.9667 7.06333 35.94 7.09C35.92 7.12333 35.9 7.16 35.88 7.2C35.8667 7.36 35.86 7.52 35.86 7.68C35.8533 7.83333 35.8467 7.99 35.84 8.15C35.84 8.21 35.8333 8.25667 35.82 8.29C35.8 8.35 35.7833 8.41 35.77 8.47C35.7567 8.53 35.74 8.59333 35.72 8.66L35.43 8.6C35.3833 8.6 35.3333 8.6 35.28 8.6C35.22 8.6 35.1633 8.59667 35.11 8.59H34.83C34.7633 8.59 34.6967 8.59 34.63 8.59C34.5633 8.59 34.5 8.58333 34.44 8.57C34.3333 8.57 34.2567 8.53333 34.21 8.46C34.1767 8.34667 34.1433 8.23333 34.11 8.12C34.0833 8 34.07 7.88 34.07 7.76C34.07 7.72 34.0733 7.68333 34.08 7.65C34.0867 7.61 34.0967 7.57667 34.11 7.55C34.13 7.47667 34.1433 7.41 34.15 7.35C34.1567 7.29667 34.16 7.23667 34.16 7.17C34.1467 7.04333 34.1467 6.91 34.16 6.77C34.1733 6.63 34.1767 6.49333 34.17 6.36C34.1633 6.32 34.16 6.28667 34.16 6.26C34.16 6.23333 34.16 6.20667 34.16 6.18C34.1467 6.13333 34.13 6.09 34.11 6.05C34.0967 6.01667 34.0933 5.98 34.1 5.94C34.1 5.89333 34.1033 5.84667 34.11 5.8C34.11 5.75333 34.11 5.70667 34.11 5.66C34.0833 5.62 34.06 5.58667 34.04 5.56C34.0133 5.53333 33.9833 5.5 33.95 5.46C33.9167 5.46 33.8833 5.46 33.85 5.46C33.8233 5.45333 33.79 5.44667 33.75 5.44C33.71 5.42 33.6667 5.39667 33.62 5.37C33.5667 5.33667 33.5167 5.31333 33.47 5.3C33.43 5.28 33.39 5.26 33.35 5.24C33.31 5.22 33.2767 5.20667 33.25 5.2C33.17 5.22667 33.09 5.26333 33.01 5.31C32.9833 5.31667 32.9533 5.32333 32.92 5.33C32.8867 5.33667 32.85 5.34333 32.81 5.35C32.7633 5.39667 32.7167 5.44333 32.67 5.49C32.6167 5.53667 32.56 5.59 32.5 5.65C32.4867 5.68333 32.47 5.72333 32.45 5.77C32.43 5.81 32.41 5.85333 32.39 5.9C32.3367 6.02667 32.2933 6.16 32.26 6.3C32.2267 6.43333 32.21 6.58 32.21 6.74V7.2C32.21 7.36 32.2 7.51667 32.18 7.67C32.16 7.82333 32.1367 7.98 32.11 8.14C32.1033 8.20667 32.0867 8.26667 32.06 8.32C32.04 8.37333 32.02 8.44 32 8.52C31.9533 8.58 31.9033 8.63667 31.85 8.69C31.79 8.74333 31.7233 8.78 31.65 8.8C31.5167 8.78667 31.43 8.78333 31.39 8.79C31.35 8.79667 31.2633 8.82333 31.13 8.87C31.0967 8.87667 31.0633 8.88333 31.03 8.89C30.9967 8.90333 30.9567 8.91333 30.91 8.92C30.8633 8.93333 30.82 8.93333 30.78 8.92C30.7467 8.91333 30.6833 8.89667 30.59 8.87C30.55 8.81 30.5033 8.74667 30.45 8.68C30.4033 8.62 30.3567 8.55667 30.31 8.49C30.3167 8.46333 30.3233 8.43333 30.33 8.4C30.33 8.37333 30.3367 8.35 30.35 8.33C30.37 8.21 30.37 8.09333 30.35 7.98C30.3233 7.87333 30.3 7.76333 30.28 7.65C30.26 7.53667 30.2367 7.43333 30.21 7.34C30.21 7.26667 30.2267 7.20667 30.26 7.16C30.2933 7.11333 30.3133 7.05333 30.32 6.98C30.34 6.91333 30.35 6.83333 30.35 6.74C30.3567 6.65333 30.3667 6.57 30.38 6.49C30.38 6.39667 30.38 6.30333 30.38 6.21C30.38 6.12333 30.3867 6.04333 30.4 5.97C30.4 5.90333 30.3967 5.86 30.39 5.84C30.3633 5.65333 30.3733 5.47333 30.42 5.3C30.44 5.25333 30.45 5.21333 30.45 5.18C30.4567 5.14667 30.4633 5.12 30.47 5.1C30.5033 5.04667 30.5433 5.01 30.59 4.99C30.6367 4.97 30.6767 4.94 30.71 4.9C30.7567 4.82 30.77 4.73667 30.75 4.65C30.7233 4.57 30.7067 4.48333 30.7 4.39C30.72 4.34333 30.7367 4.29333 30.75 4.24C30.77 4.18667 30.7867 4.13333 30.8 4.08C30.8733 4.00667 30.94 3.92667 31 3.84C31.06 3.75333 31.1167 3.67333 31.17 3.6C31.19 3.58 31.2 3.54667 31.2 3.5C31.2 3.45333 31.22 3.42333 31.26 3.41C31.28 3.39667 31.3 3.38667 31.32 3.38C31.3467 3.38 31.3633 3.37333 31.37 3.36C31.53 3.31333 31.69 3.26667 31.85 3.22C32.0033 3.17333 32.1567 3.12 32.31 3.06C32.4767 2.98 32.6433 2.94 32.81 2.94C32.83 2.94 32.85 2.94 32.87 2.94C32.89 2.93333 32.9133 2.93 32.94 2.93C33.06 2.88333 33.1833 2.85667 33.31 2.85C33.4367 2.83667 33.5633 2.83 33.69 2.83H33.86C33.9067 2.84333 33.9567 2.85667 34.01 2.87C34.0633 2.88333 34.1133 2.90667 34.16 2.94C34.2333 2.98 34.3033 3.01667 34.37 3.05C34.4433 3.08333 34.52 3.10333 34.6 3.11C34.64 3.12333 34.67 3.14 34.69 3.16C34.7167 3.18667 34.7433 3.20667 34.77 3.22C34.8167 3.26 34.8567 3.30333 34.89 3.35C34.9233 3.39667 34.96 3.44333 35 3.49C35.0133 3.53 35.0267 3.57 35.04 3.61C35.06 3.65 35.0733 3.69333 35.08 3.74C35.12 3.78 35.1567 3.81667 35.19 3.85C35.23 3.89 35.2833 3.90667 35.35 3.9C35.3967 3.85333 35.4433 3.80667 35.49 3.76C35.5367 3.72 35.5767 3.67667 35.61 3.63C35.6367 3.63667 35.68 3.64 35.74 3.64L36.09 3.41C36.11 3.36333 36.1267 3.32333 36.14 3.29C36.16 3.26333 36.1767 3.23333 36.19 3.2C36.2367 3.18667 36.2833 3.18 36.33 3.18C36.3767 3.17333 36.4233 3.16333 36.47 3.15C36.53 3.11667 36.59 3.08667 36.65 3.06C36.7033 3.04 36.76 3.01 36.82 2.97C36.8667 2.97 36.9133 2.97333 36.96 2.98C37.0133 2.98667 37.0633 2.99 37.11 2.99C37.15 2.99667 37.19 2.99667 37.23 2.99C37.27 2.99 37.31 2.99667 37.35 3.01C37.47 3.05 37.59 3.07333 37.71 3.08C37.83 3.08 37.9533 3.09 38.08 3.11C38.0933 3.13 38.13 3.14 38.19 3.14L38.5 3.43C38.5 3.44333 38.5033 3.45333 38.51 3.46C38.5167 3.47333 38.52 3.48333 38.52 3.49C38.6067 3.73 38.7467 3.90333 38.94 4.01C38.9533 4.03 38.96 4.05667 38.96 4.09C38.9667 4.11667 38.9767 4.14 38.99 4.16C39.0433 4.22 39.1033 4.25 39.17 4.25C39.2833 4.26333 39.3333 4.31333 39.32 4.4C39.32 4.51333 39.3367 4.62667 39.37 4.74C39.4033 4.84667 39.44 4.95333 39.48 5.06L39.57 5.41C39.57 5.47667 39.5733 5.55 39.58 5.63C39.5867 5.71667 39.59 5.79667 39.59 5.87C39.59 5.91 39.5933 5.94333 39.6 5.97C39.6 6.00333 39.6067 6.04 39.62 6.08C39.6467 6.2 39.6467 6.33 39.62 6.47ZM47.57 8.4C47.5967 8.46667 47.6067 8.53 47.6 8.59C47.5867 8.64333 47.5667 8.69667 47.54 8.75C47.5333 8.76333 47.5133 8.77667 47.48 8.79C47.4533 8.80333 47.43 8.82 47.41 8.84C47.3767 8.84667 47.3467 8.85 47.32 8.85C47.2867 8.85 47.2533 8.86 47.22 8.88C47.08 8.90667 46.9967 8.98 46.97 9.1C46.9567 9.12 46.9367 9.14333 46.91 9.17C46.8433 9.18333 46.7967 9.19667 46.77 9.21C46.7433 9.22333 46.6867 9.25333 46.6 9.3C46.5333 9.3 46.47 9.31 46.41 9.33C46.3433 9.35 46.28 9.38667 46.22 9.44C46.2067 9.44 46.1933 9.44333 46.18 9.45C46.1733 9.45 46.16 9.45 46.14 9.45C46.1 9.47 46.0567 9.46333 46.01 9.43C45.9633 9.39667 45.94 9.35667 45.94 9.31V9.23C45.9067 9.21 45.8633 9.21 45.81 9.23C45.7567 9.25 45.7167 9.23 45.69 9.17V8.96C45.6633 8.94667 45.64 8.93 45.62 8.91C45.5933 8.89667 45.5667 8.88667 45.54 8.88C45.5 8.80667 45.4567 8.72667 45.41 8.64C45.3633 8.56 45.3167 8.48667 45.27 8.42C45.2367 8.39333 45.2033 8.38333 45.17 8.39C45.1433 8.39667 45.12 8.41 45.1 8.43C45.0867 8.45 45.0733 8.47 45.06 8.49C45.0533 8.51667 45.04 8.54 45.02 8.56C45 8.58 44.9867 8.60333 44.98 8.63C44.9667 8.65667 44.9533 8.68 44.94 8.7C44.8133 8.75333 44.69 8.80333 44.57 8.85C44.45 8.89 44.3333 8.92333 44.22 8.95C44.1533 8.99667 44.09 9.04 44.03 9.08C43.9633 9.11333 43.9 9.15 43.84 9.19C43.7867 9.19667 43.7333 9.21 43.68 9.23C43.62 9.25 43.5667 9.26333 43.52 9.27C43.4667 9.24333 43.4133 9.23667 43.36 9.25C43.3067 9.26333 43.2433 9.28 43.17 9.3C43.09 9.28 43.0033 9.26 42.91 9.24C42.8167 9.21333 42.7167 9.19 42.61 9.17C42.5833 9.18333 42.5567 9.19 42.53 9.19C42.5033 9.19 42.48 9.19333 42.46 9.2C42.42 9.18 42.39 9.16333 42.37 9.15C42.3433 9.13 42.3133 9.11333 42.28 9.1C42.2333 9.08667 42.19 9.08667 42.15 9.1C42.11 9.12 42.0667 9.14 42.02 9.16C41.9733 9.14 41.9233 9.13 41.87 9.13C41.8167 9.12333 41.76 9.11333 41.7 9.1C41.6533 9.05333 41.6133 9.01333 41.58 8.98C41.5467 8.94 41.5267 8.89333 41.52 8.84C41.5 8.82 41.48 8.80333 41.46 8.79C41.4467 8.77667 41.4333 8.76333 41.42 8.75C41.3867 8.62333 41.3467 8.51333 41.3 8.42C41.1667 8.14 41.0767 7.83 41.03 7.49C41.01 7.47667 40.99 7.45667 40.97 7.43C40.9567 7.41 40.9333 7.38333 40.9 7.35C40.8933 7.27 40.8867 7.19 40.88 7.11C40.8667 7.03 40.85 6.94333 40.83 6.85C40.85 6.79667 40.86 6.74667 40.86 6.7C40.84 6.60667 40.8233 6.52 40.81 6.44C40.8433 6.33333 40.88 6.22333 40.92 6.11C40.9667 5.99667 40.98 5.88 40.96 5.76C40.98 5.72 41.0033 5.68333 41.03 5.65C41.0567 5.61667 41.08 5.58667 41.1 5.56C41.1867 5.46667 41.2467 5.36 41.28 5.24C41.3067 5.14 41.3567 5.05 41.43 4.97C41.4967 4.89667 41.5733 4.83667 41.66 4.79C41.76 4.74333 41.86 4.69333 41.96 4.64C42.06 4.59333 42.1567 4.55 42.25 4.51C42.27 4.51 42.2967 4.51333 42.33 4.52C42.3567 4.52667 42.38 4.52333 42.4 4.51C42.5667 4.48333 42.7133 4.47333 42.84 4.48C42.8933 4.49333 42.9467 4.49333 43 4.48C43.06 4.47333 43.1133 4.47 43.16 4.47L43.45 4.41C43.51 4.42333 43.5667 4.44 43.62 4.46C43.6733 4.47333 43.73 4.46667 43.79 4.44C43.81 4.44 43.8267 4.44333 43.84 4.45C43.8533 4.45667 43.8633 4.46 43.87 4.46C43.9167 4.47333 43.96 4.49333 44 4.52C44.0333 4.54 44.0733 4.55 44.12 4.55C44.2267 4.57 44.2933 4.55333 44.32 4.5C44.3133 4.34 44.3 4.23667 44.28 4.19C44.2667 4.14333 44.2367 4.07 44.19 3.97C44.1633 3.91 44.1467 3.85 44.14 3.79C44.1267 3.73 44.1167 3.67333 44.11 3.62C44.1033 3.58 44.0967 3.54333 44.09 3.51C44.0833 3.47667 44.0633 3.44333 44.03 3.41C43.9033 3.37 43.7533 3.34 43.58 3.32H43.49C43.41 3.36 43.3233 3.38 43.23 3.38C43.1367 3.38 43.0367 3.39 42.93 3.41C42.87 3.41667 42.8033 3.43333 42.73 3.46C42.6633 3.48667 42.59 3.51 42.51 3.53C42.4367 3.57 42.3633 3.55333 42.29 3.48C42.2633 3.39333 42.2533 3.30667 42.26 3.22C42.26 3.12667 42.2667 3.03333 42.28 2.94C42.26 2.88 42.2367 2.80333 42.21 2.71C42.1767 2.62333 42.16 2.52 42.16 2.4L42.18 2.3C42.1667 2.28 42.15 2.26 42.13 2.24C42.1033 2.22667 42.0833 2.21333 42.07 2.2C42.0367 2.17333 42.03 2.14667 42.05 2.12C42.05 2.09333 42.0633 2.08 42.09 2.08C42.17 2.06 42.24 2.04333 42.3 2.03C42.3667 2.02333 42.4333 2.01667 42.5 2.01L42.67 1.84C42.69 1.82667 42.7133 1.82 42.74 1.82C42.9533 1.86 43.11 1.87667 43.21 1.87C43.3033 1.85667 43.4533 1.81667 43.66 1.75C43.7667 1.76333 43.8667 1.78 43.96 1.8C44.06 1.81333 44.16 1.81667 44.26 1.81C44.2933 1.83667 44.3233 1.86333 44.35 1.89C44.3833 1.91 44.42 1.93333 44.46 1.96C44.5067 1.94667 44.5533 1.93 44.6 1.91C44.6467 1.89667 44.69 1.88667 44.73 1.88C44.7833 1.92 44.8433 1.95667 44.91 1.99C44.9567 2.00333 44.9967 1.99333 45.03 1.96C45.0633 1.93333 45.0967 1.92 45.13 1.92C45.2167 1.93333 45.2867 1.97333 45.34 2.04C45.3867 2.11333 45.4433 2.17333 45.51 2.22C45.5633 2.25333 45.6167 2.3 45.67 2.36C45.7233 2.41333 45.7767 2.46333 45.83 2.51C45.85 2.53667 45.87 2.56333 45.89 2.59C45.91 2.62333 45.9233 2.65333 45.93 2.68C45.9767 2.71333 46.02 2.74333 46.06 2.77C46.0933 2.79 46.1233 2.82 46.15 2.86C46.1967 2.9 46.2467 2.92667 46.3 2.94C46.3533 2.96 46.3933 2.99333 46.42 3.04C46.44 3.08667 46.46 3.13667 46.48 3.19C46.4933 3.24333 46.5233 3.28667 46.57 3.32C46.6033 3.41333 46.6333 3.51 46.66 3.61C46.6867 3.71 46.69 3.81 46.67 3.91C46.67 3.95667 46.6667 4 46.66 4.04C46.68 4.08667 46.6933 4.13667 46.7 4.19C46.7067 4.24333 46.72 4.29333 46.74 4.34V4.41C46.74 4.44333 46.74 4.47333 46.74 4.5C46.7333 4.53333 46.7333 4.56 46.74 4.58C46.76 4.64 46.7833 4.68333 46.81 4.71C46.81 4.76333 46.7867 4.81333 46.74 4.86C46.72 4.87333 46.6967 4.88333 46.67 4.89C46.6433 4.89667 46.62 4.91 46.6 4.93C46.4867 4.99667 46.4733 5.08 46.56 5.18C46.5667 5.19333 46.5833 5.21 46.61 5.23C46.63 5.25667 46.6467 5.28333 46.66 5.31C46.6667 5.35 46.67 5.39 46.67 5.43C46.67 5.47 46.6767 5.51333 46.69 5.56C46.65 5.74 46.58 5.91 46.48 6.07C46.5067 6.19667 46.55 6.32 46.61 6.44C46.67 6.56667 46.7233 6.69333 46.77 6.82C46.8167 6.84667 46.8533 6.87667 46.88 6.91C46.9067 6.93667 46.94 6.96 46.98 6.98C46.9867 7.00667 46.9933 7.02333 47 7.03C47.0067 7.04333 47.01 7.05667 47.01 7.07C47.01 7.16333 47.02 7.25667 47.04 7.35C47.0667 7.44333 47.0967 7.53333 47.13 7.62C47.17 7.70667 47.21 7.78667 47.25 7.86C47.2833 7.93333 47.33 8.00667 47.39 8.08C47.4367 8.12 47.4733 8.17333 47.5 8.24C47.5267 8.3 47.55 8.35333 47.57 8.4ZM44.5 6.51C44.4467 6.37 44.3767 6.27667 44.29 6.23C44.19 6.18333 44.1267 6.12333 44.1 6.05C44.0867 6.01667 44.0667 5.99333 44.04 5.98C44.0133 5.97333 43.9867 5.96333 43.96 5.95C43.92 5.95 43.8733 5.95333 43.82 5.96C43.7733 5.96667 43.7267 5.97333 43.68 5.98C43.62 5.98 43.5667 5.97 43.52 5.95C43.4667 5.93667 43.4167 5.92333 43.37 5.91C43.2833 5.91 43.2033 5.93333 43.13 5.98C43.09 6.00667 43.0567 6.03333 43.03 6.06C43.0033 6.08 42.9767 6.11 42.95 6.15L42.77 6.49C42.7833 6.54333 42.8067 6.59 42.84 6.63C42.8667 6.67667 42.8667 6.73667 42.84 6.81C42.8533 6.89 42.8733 6.97667 42.9 7.07C42.92 7.15667 42.9533 7.24333 43 7.33C43.02 7.34333 43.0367 7.35 43.05 7.35C43.15 7.37 43.25 7.38 43.35 7.38C43.4567 7.38 43.5567 7.37667 43.65 7.37C43.6833 7.37 43.71 7.36333 43.73 7.35C43.8367 7.29667 43.9633 7.24667 44.11 7.2C44.1633 7.19333 44.2133 7.15 44.26 7.07C44.3 6.99 44.34 6.9 44.38 6.8C44.4133 6.7 44.4533 6.60333 44.5 6.51ZM41.53 8.81C41.5233 8.81 41.52 8.82 41.52 8.84C41.54 8.82 41.5433 8.81 41.53 8.81ZM54.6 2.83C54.5533 2.99667 54.5233 3.16667 54.51 3.34C54.5033 3.51333 54.4933 3.68333 54.48 3.85C54.4733 4.02333 54.47 4.19333 54.47 4.36C54.47 4.53333 54.47 4.70667 54.47 4.88C54.47 5.02 54.46 5.16 54.44 5.3C54.42 5.44 54.4067 5.58333 54.4 5.73C54.4 5.77 54.3967 5.81333 54.39 5.86C54.39 5.90667 54.39 5.95333 54.39 6C54.39 6.12667 54.37 6.24667 54.33 6.36C54.3033 6.48 54.29 6.6 54.29 6.72C54.29 6.78667 54.2833 6.85667 54.27 6.93C54.2633 7.01 54.2467 7.08667 54.22 7.16C54.2067 7.20667 54.2 7.27667 54.2 7.37C54.1933 7.44333 54.1767 7.51667 54.15 7.59C54.13 7.65667 54.11 7.72 54.09 7.78C54.07 7.84 54.0533 7.90667 54.04 7.98C54 8.04 53.9633 8.1 53.93 8.16C53.8967 8.22 53.8633 8.27667 53.83 8.33C53.7433 8.37667 53.6733 8.44 53.62 8.52C53.5267 8.59333 53.4333 8.67 53.34 8.75C53.2533 8.83667 53.1667 8.91667 53.08 8.99C52.9733 9.08333 52.8633 9.13 52.75 9.13C52.7367 9.13 52.7233 9.13667 52.71 9.15C52.6967 9.15667 52.68 9.16 52.66 9.16C52.4867 9.18 52.3433 9.23667 52.23 9.33C52.2233 9.33667 52.2133 9.34333 52.2 9.35C52.18 9.35667 52.1633 9.36667 52.15 9.38C52.0233 9.4 51.9 9.39333 51.78 9.36C51.6533 9.32 51.5367 9.27333 51.43 9.22H51.21C51.17 9.22 51.1333 9.21667 51.1 9.21C51.06 9.20333 51.0167 9.19667 50.97 9.19C50.7167 9.13 50.4733 9.02333 50.24 8.87C50.2133 8.83667 50.18 8.81667 50.14 8.81C50.1067 8.80333 50.0667 8.79333 50.02 8.78C49.96 8.77333 49.9033 8.76 49.85 8.74C49.7967 8.72 49.74 8.7 49.68 8.68C49.6333 8.65333 49.5967 8.61333 49.57 8.56C49.5433 8.51333 49.5167 8.47 49.49 8.43C49.4433 8.33667 49.4 8.25 49.36 8.17C49.32 8.09 49.2767 8.00333 49.23 7.91C49.1967 7.83667 49.1567 7.76 49.11 7.68C49.0633 7.6 49.0167 7.53 48.97 7.47C48.97 7.45667 48.9733 7.45 48.98 7.45C48.9933 7.45 49 7.44667 49 7.44L48.97 7.41C48.97 7.41667 48.9667 7.42333 48.96 7.43C48.9533 7.43667 48.95 7.44333 48.95 7.45C48.9433 7.44333 48.9333 7.43667 48.92 7.43C48.9067 7.42333 48.8933 7.41667 48.88 7.41C48.8467 7.39 48.82 7.36 48.8 7.32C48.78 7.28 48.76 7.24 48.74 7.2C48.7733 7.14667 48.79 7.07333 48.79 6.98C48.8033 6.85333 48.7967 6.74333 48.77 6.65C48.7367 6.51 48.72 6.37 48.72 6.23C48.7267 6.09 48.7333 5.94667 48.74 5.8C48.74 5.75333 48.76 5.69333 48.8 5.62C48.8667 5.46 48.9033 5.32 48.91 5.2C49.0033 5.06667 49.08 4.92667 49.14 4.78C49.1933 4.62667 49.2567 4.48667 49.33 4.36C49.3767 4.34 49.4167 4.32 49.45 4.3C49.4833 4.28 49.52 4.26667 49.56 4.26C49.5733 4.24 49.5867 4.21667 49.6 4.19C49.6067 4.16333 49.6233 4.14 49.65 4.12C49.6833 4.1 49.7167 4.08333 49.75 4.07C49.79 4.05667 49.8333 4.04667 49.88 4.04C49.9 4.00667 49.9167 3.97667 49.93 3.95C49.9433 3.92333 49.96 3.89667 49.98 3.87C50.0067 3.84333 50.0233 3.83 50.03 3.83C50.2433 3.75 50.4667 3.69333 50.7 3.66C50.74 3.64667 50.78 3.64 50.82 3.64C50.8667 3.63333 50.9067 3.62667 50.94 3.62C51.06 3.58 51.1833 3.56333 51.31 3.57C51.43 3.58333 51.55 3.58333 51.67 3.57C51.6967 3.57 51.7267 3.57667 51.76 3.59C51.7933 3.59667 51.8233 3.60667 51.85 3.62C51.8767 3.62 51.9133 3.62667 51.96 3.64C52.0067 3.66 52.0367 3.66 52.05 3.64C52.1433 3.62667 52.21 3.63667 52.25 3.67C52.29 3.71 52.31 3.73 52.31 3.73C52.33 3.73667 52.37 3.73667 52.43 3.73C52.49 3.73 52.5267 3.73 52.54 3.73C52.62 3.71 52.67 3.67 52.69 3.61C52.7033 3.55 52.7 3.52 52.68 3.52L52.65 3.49C52.6567 3.37 52.6533 3.25 52.64 3.13C52.6267 3.00333 52.6267 2.88 52.64 2.76C52.6467 2.71333 52.65 2.66333 52.65 2.61C52.65 2.56333 52.65 2.51667 52.65 2.47C52.6433 2.42333 52.6433 2.38 52.65 2.34C52.6567 2.29333 52.66 2.24667 52.66 2.2C52.66 2.15333 52.6633 2.11 52.67 2.07C52.6767 2.03 52.67 1.99333 52.65 1.96C52.6233 1.88667 52.6133 1.81333 52.62 1.74C52.62 1.66667 52.63 1.59333 52.65 1.52C52.6767 1.41333 52.6967 1.31 52.71 1.21C52.7233 1.10333 52.7233 0.99 52.71 0.87V0.8C52.7433 0.706667 52.7633 0.613333 52.77 0.52C52.7767 0.426667 52.7833 0.343333 52.79 0.27C52.8367 0.203333 52.8967 0.16 52.97 0.14C53.0367 0.113334 53.09 0.0833335 53.13 0.0500002C53.2767 0.0366669 53.4167 0.0366669 53.55 0.0500002C53.6767 0.0566669 53.8067 0.04 53.94 0C54.0067 0.0333333 54.07 0.0566668 54.13 0.0700002C54.19 0.0833335 54.2433 0.0933337 54.29 0.1C54.39 0.173334 54.44 0.273333 54.44 0.4C54.44 0.446667 54.44 0.496667 54.44 0.55C54.44 0.603334 54.4367 0.66 54.43 0.72C54.4367 0.753334 54.45 0.786667 54.47 0.82C54.49 0.846667 54.5033 0.883334 54.51 0.93C54.5033 0.95 54.4967 0.973333 54.49 1C54.4833 1.03333 54.4767 1.07 54.47 1.11C54.4767 1.15 54.4867 1.19667 54.5 1.25C54.5067 1.30333 54.5167 1.35333 54.53 1.4C54.53 1.55333 54.53 1.7 54.53 1.84C54.5367 1.98 54.5367 2.12 54.53 2.26C54.53 2.40667 54.53 2.50333 54.53 2.55C54.5367 2.59667 54.56 2.69 54.6 2.83ZM52.55 6.36C52.5233 6.28667 52.5033 6.21333 52.49 6.14C52.4767 6.07333 52.46 6.01 52.44 5.95C52.4133 5.89 52.38 5.83 52.34 5.77C52.2933 5.71667 52.2567 5.65667 52.23 5.59C52.1367 5.54333 52.0667 5.49667 52.02 5.45C51.9733 5.43 51.93 5.41667 51.89 5.41C51.8433 5.39667 51.7967 5.38667 51.75 5.38C51.7167 5.36 51.6833 5.34333 51.65 5.33C51.6167 5.31667 51.58 5.30667 51.54 5.3C51.48 5.32667 51.42 5.35333 51.36 5.38C51.2933 5.40667 51.2333 5.43333 51.18 5.46C51.0333 5.52667 50.93 5.65 50.87 5.83C50.8633 5.86333 50.86 5.9 50.86 5.94C50.86 5.98 50.8533 6.02333 50.84 6.07C50.8333 6.09667 50.82 6.12333 50.8 6.15C50.7733 6.17667 50.75 6.21333 50.73 6.26V6.51C50.75 6.63667 50.7867 6.75333 50.84 6.86C50.8867 6.96667 50.9733 7.05667 51.1 7.13C51.1267 7.13667 51.15 7.15333 51.17 7.18C51.1967 7.2 51.2267 7.22 51.26 7.24C51.32 7.3 51.3767 7.33 51.43 7.33C51.5833 7.31 51.73 7.29333 51.87 7.28C52.01 7.26667 52.1433 7.23 52.27 7.17C52.33 7.12333 52.3733 7.07667 52.4 7.03C52.4267 6.99667 52.45 6.96333 52.47 6.93C52.49 6.89667 52.5133 6.86 52.54 6.82V6.58C52.54 6.53333 52.54 6.49333 52.54 6.46C52.54 6.42 52.5433 6.38667 52.55 6.36ZM60.69 3.18C60.7033 3.33333 60.68 3.44 60.62 3.5C60.5733 3.56 60.5433 3.62333 60.53 3.69C60.51 3.75 60.4967 3.82 60.49 3.9C60.47 3.92667 60.4533 3.95333 60.44 3.98C60.4267 4.00667 60.41 4.03333 60.39 4.06C60.3567 4.1 60.3233 4.14333 60.29 4.19C60.2567 4.23667 60.2267 4.28333 60.2 4.33C60.18 4.37 60.1633 4.41333 60.15 4.46C60.1433 4.50667 60.13 4.55333 60.11 4.6C60.1033 4.60667 60.0967 4.61667 60.09 4.63C60.0833 4.64333 60.0767 4.65667 60.07 4.67C60.0633 4.67667 60.0533 4.68 60.04 4.68C60.02 4.68 60.0067 4.68333 60 4.69H59.93C59.7233 4.61 59.5233 4.60667 59.33 4.68C59.29 4.68667 59.2567 4.69 59.23 4.69C59.2033 4.69 59.17 4.69 59.13 4.69C59.1033 4.70333 59.08 4.71 59.06 4.71C59.0333 4.71 59.01 4.71333 58.99 4.72C58.8767 4.76667 58.78 4.82667 58.7 4.9C58.6133 4.98 58.5333 5.06 58.46 5.14C58.42 5.25333 58.38 5.36667 58.34 5.48C58.3 5.6 58.28 5.73 58.28 5.87C58.28 5.87667 58.2733 5.89333 58.26 5.92C58.2533 5.94 58.2467 5.96 58.24 5.98C58.2267 6.02 58.2133 6.05 58.2 6.07C58.1867 6.09667 58.17 6.12667 58.15 6.16C58.13 6.22 58.1067 6.27667 58.08 6.33C58.0533 6.39 58.03 6.44667 58.01 6.5C58.03 6.56667 58.03 6.62667 58.01 6.68C57.9833 6.74 57.97 6.79667 57.97 6.85C57.99 6.93667 57.9933 7.01333 57.98 7.08C57.9667 7.15333 57.95 7.22667 57.93 7.3C57.9033 7.38 57.89 7.46667 57.89 7.56C57.8967 7.64667 57.9 7.73333 57.9 7.82C57.8933 7.92 57.89 8.02667 57.89 8.14C57.8967 8.25333 57.9 8.36 57.9 8.46C57.9 8.52667 57.8967 8.59667 57.89 8.67C57.8767 8.74333 57.87 8.81667 57.87 8.89C57.8433 8.95 57.82 8.99 57.8 9.01C57.7333 9.11 57.6533 9.18 57.56 9.22C57.4667 9.26667 57.3667 9.28333 57.26 9.27C57.18 9.26333 57.1033 9.25333 57.03 9.24C56.95 9.23333 56.87 9.22667 56.79 9.22C56.7567 9.20667 56.71 9.19333 56.65 9.18C56.5967 9.16667 56.5467 9.15 56.5 9.13C56.46 9.14333 56.43 9.15 56.41 9.15C56.3833 9.15667 56.3567 9.16333 56.33 9.17C56.21 9.13667 56.1 9.06667 56 8.96C56.0067 8.9 56.01 8.83667 56.01 8.77C56.01 8.70333 56.0133 8.63667 56.02 8.57C56.0133 8.54333 56.0067 8.51 56 8.47C56 8.42333 55.99 8.38333 55.97 8.35C55.9567 8.29 55.9433 8.23333 55.93 8.18C55.91 8.12667 55.9033 8.06667 55.91 8C55.9033 7.86 55.8767 7.69667 55.83 7.51C55.85 7.49 55.8667 7.46333 55.88 7.43C55.8933 7.39667 55.9033 7.36667 55.91 7.34C55.9233 7.31333 55.93 7.28667 55.93 7.26C55.9367 7.24 55.94 7.21667 55.94 7.19C55.94 7.17 55.9433 7.15333 55.95 7.14C55.9633 7.12667 55.96 7.11 55.94 7.09C55.9333 7.06333 55.9267 7.03333 55.92 7C55.9133 6.96667 55.9067 6.93667 55.9 6.91C55.8867 6.81667 55.8867 6.72333 55.9 6.63C55.9067 6.59 55.9133 6.55333 55.92 6.52C55.9267 6.48667 55.9333 6.45333 55.94 6.42C55.96 6.37333 55.9667 6.32 55.96 6.26C55.9533 6.20667 55.9267 6.16 55.88 6.12C55.8733 6.11333 55.8667 6.10333 55.86 6.09C55.86 6.07667 55.85 6.06333 55.83 6.05C55.8167 6.00333 55.81 5.95333 55.81 5.9C55.8033 5.84 55.79 5.78667 55.77 5.74C55.7633 5.68 55.7533 5.62 55.74 5.56C55.7267 5.50667 55.72 5.44667 55.72 5.38C55.7333 5.26667 55.7367 5.15667 55.73 5.05C55.7233 4.94333 55.7333 4.83333 55.76 4.72C55.76 4.7 55.7567 4.67667 55.75 4.65C55.7433 4.62333 55.74 4.6 55.74 4.58C55.7333 4.48 55.7267 4.37667 55.72 4.27C55.72 4.17 55.7367 4.07 55.77 3.97C55.79 3.93 55.8 3.88667 55.8 3.84C55.8 3.79333 55.8 3.74667 55.8 3.7C55.8 3.61333 55.8033 3.53333 55.81 3.46C55.81 3.38 55.83 3.3 55.87 3.22C55.87 3.19333 55.8567 3.14667 55.83 3.08C55.85 3.03333 55.8667 2.98667 55.88 2.94C55.8933 2.88667 55.9033 2.83667 55.91 2.79C55.93 2.74333 55.9433 2.7 55.95 2.66C55.9633 2.61333 55.9733 2.57333 55.98 2.54C56.04 2.48 56.0933 2.45667 56.14 2.47C56.2333 2.49667 56.3267 2.49667 56.42 2.47C56.52 2.45 56.6167 2.44333 56.71 2.45C56.7367 2.45 56.7633 2.44333 56.79 2.43C56.8233 2.41667 56.8533 2.40667 56.88 2.4C57.04 2.35333 57.17 2.35667 57.27 2.41C57.3367 2.52333 57.3733 2.60667 57.38 2.66C57.3933 2.72 57.4033 2.85667 57.41 3.07C57.4367 3.17 57.4867 3.26667 57.56 3.36C57.58 3.38 57.6133 3.39333 57.66 3.4C57.7 3.40667 57.73 3.4 57.75 3.38C57.7833 3.35333 57.8133 3.32667 57.84 3.3C57.8733 3.28 57.9033 3.25 57.93 3.21C57.9833 3.16333 58.0367 3.11333 58.09 3.06C58.1433 3.01333 58.1867 2.97 58.22 2.93C58.3267 2.88333 58.4267 2.83667 58.52 2.79C58.62 2.74333 58.73 2.69667 58.85 2.65H59.17L59.2 2.64C59.2133 2.64 59.22 2.63667 59.22 2.63C59.2267 2.62333 59.2333 2.62667 59.24 2.64L59.29 2.62C59.3967 2.68 59.4933 2.69333 59.58 2.66C59.7267 2.61333 59.87 2.63333 60.01 2.72C60.0967 2.76 60.1767 2.79667 60.25 2.83C60.3233 2.87 60.4033 2.91333 60.49 2.96C60.5167 2.99333 60.55 3.03 60.59 3.07C60.6233 3.11 60.6567 3.14667 60.69 3.18ZM68.04 5.27C68.0667 5.38333 68.06 5.48667 68.02 5.58C68 5.62667 67.9867 5.67333 67.98 5.72C67.9733 5.76667 67.9733 5.81333 67.98 5.86C67.9867 5.86667 67.99 5.87667 67.99 5.89C67.9833 5.90333 67.98 5.92 67.98 5.94C67.94 6.01333 67.9233 6.09333 67.93 6.18C67.9367 6.26 67.9433 6.34 67.95 6.42L67.81 6.61V6.79C67.79 6.81 67.7667 6.83333 67.74 6.86C67.7133 6.88 67.6767 6.91 67.63 6.95C67.61 7.01667 67.5833 7.08667 67.55 7.16C67.5167 7.23333 67.4933 7.30333 67.48 7.37V7.51C67.44 7.54333 67.3933 7.57667 67.34 7.61C67.28 7.63667 67.2333 7.67667 67.2 7.73C67.16 7.75667 67.12 7.78 67.08 7.8C67.0467 7.82 67.0067 7.84333 66.96 7.87C66.94 7.88333 66.92 7.88667 66.9 7.88C66.8733 7.87333 66.85 7.87667 66.83 7.89C66.69 7.89 66.62 7.95333 66.62 8.08C66.52 8.14667 66.42 8.21667 66.32 8.29C66.22 8.36333 66.12 8.44 66.02 8.52C65.86 8.64 65.6533 8.72333 65.4 8.77C65.32 8.77667 65.2433 8.79667 65.17 8.83C65.09 8.86333 65.01 8.89 64.93 8.91C64.91 8.91 64.8867 8.90333 64.86 8.89C64.8333 8.88333 64.81 8.88333 64.79 8.89C64.6767 8.90333 64.56 8.89667 64.44 8.87C64.4 8.85667 64.3633 8.85667 64.33 8.87C64.29 8.87667 64.2567 8.88333 64.23 8.89C64.1633 8.88333 64.0967 8.87667 64.03 8.87C63.9633 8.85667 63.8933 8.84667 63.82 8.84C63.74 8.8 63.6633 8.75667 63.59 8.71C63.5233 8.66333 63.45 8.62333 63.37 8.59C63.3167 8.57 63.2667 8.53667 63.22 8.49C63.1733 8.44333 63.1367 8.39667 63.11 8.35C63.0967 8.33 63.0833 8.31333 63.07 8.3C63.0567 8.28667 63.04 8.27 63.02 8.25C62.9933 8.23 62.9667 8.21333 62.94 8.2C62.9133 8.18667 62.8867 8.16667 62.86 8.14C62.7067 8.03333 62.5733 7.92 62.46 7.8C62.34 7.68 62.2533 7.53 62.2 7.35C62.1533 7.23 62.0967 7.12333 62.03 7.03C62.01 6.99667 61.99 6.96333 61.97 6.93C61.9433 6.89667 61.92 6.86 61.9 6.82C61.9133 6.8 61.93 6.76333 61.95 6.71C61.93 6.68333 61.91 6.65667 61.89 6.63C61.87 6.59667 61.86 6.56333 61.86 6.53C61.86 6.50333 61.86 6.47333 61.86 6.44C61.8533 6.40667 61.8533 6.37 61.86 6.33C61.88 6.26333 61.8867 6.2 61.88 6.14C61.8667 6.07333 61.8667 6.00667 61.88 5.94C61.8867 5.88667 61.8833 5.82667 61.87 5.76C61.8567 5.69333 61.8633 5.63333 61.89 5.58C61.91 5.51333 61.9233 5.45 61.93 5.39C61.9433 5.33667 61.9567 5.28333 61.97 5.23C61.99 5.17 62.01 5.11333 62.03 5.06C62.05 5.01333 62.07 4.96667 62.09 4.92C62.1033 4.86 62.12 4.80333 62.14 4.75C62.16 4.69667 62.19 4.63667 62.23 4.57C62.23 4.55 62.23 4.52667 62.23 4.5C62.23 4.47333 62.2333 4.45333 62.24 4.44C62.28 4.36667 62.3067 4.29667 62.32 4.23C62.34 4.16333 62.3467 4.1 62.34 4.04C62.3733 3.99333 62.4067 3.95333 62.44 3.92C62.4667 3.89333 62.49 3.86333 62.51 3.83C62.5233 3.78333 62.5433 3.73667 62.57 3.69C62.59 3.65 62.6167 3.61 62.65 3.57C62.6767 3.49667 62.7167 3.43333 62.77 3.38C62.81 3.33333 62.8433 3.29333 62.87 3.26C62.8967 3.22667 62.92 3.2 62.94 3.18C62.9667 3.12667 62.9767 3.08 62.97 3.04C62.9567 2.99333 62.95 2.95667 62.95 2.93C62.97 2.88333 62.9867 2.85667 63 2.85C63.0267 2.83667 63.05 2.82 63.07 2.8C63.0967 2.78667 63.1233 2.77333 63.15 2.76C63.2233 2.71333 63.3033 2.66667 63.39 2.62C63.47 2.57333 63.5533 2.53667 63.64 2.51C63.7267 2.45667 63.8133 2.41667 63.9 2.39C63.9867 2.37 64.0767 2.34333 64.17 2.31C64.2433 2.31 64.32 2.31 64.4 2.31C64.4733 2.31 64.5433 2.31667 64.61 2.33H64.73C64.8367 2.36333 64.9433 2.38 65.05 2.38C65.1567 2.38 65.26 2.37667 65.36 2.37C65.4067 2.37 65.4567 2.36667 65.51 2.36C65.5633 2.36 65.6133 2.36 65.66 2.36C65.7067 2.39333 65.7467 2.42333 65.78 2.45C65.8067 2.47 65.84 2.5 65.88 2.54C65.9067 2.54667 65.9333 2.56 65.96 2.58C65.9933 2.6 66.0267 2.61333 66.06 2.62C66.1933 2.63333 66.3133 2.67667 66.42 2.75C66.5267 2.82333 66.6267 2.89667 66.72 2.97C66.72 2.99 66.72 3.01667 66.72 3.05C66.72 3.08333 66.7233 3.11333 66.73 3.14C66.73 3.18667 66.76 3.23 66.82 3.27C66.8467 3.27667 66.88 3.28 66.92 3.28C66.9533 3.28 66.99 3.29 67.03 3.31C67.05 3.34333 67.0767 3.38333 67.11 3.43C67.1367 3.47667 67.1667 3.52333 67.2 3.57C67.2333 3.61 67.27 3.65 67.31 3.69C67.3433 3.72333 67.37 3.76333 67.39 3.81C67.41 3.83 67.4267 3.85333 67.44 3.88C67.4533 3.90667 67.4667 3.93 67.48 3.95C67.5067 3.97667 67.5333 4.00667 67.56 4.04C67.5867 4.06667 67.6067 4.10333 67.62 4.15C67.6333 4.21667 67.66 4.28 67.7 4.34C67.74 4.40667 67.7667 4.47667 67.78 4.55C67.7933 4.58333 67.81 4.61333 67.83 4.64C67.8567 4.66667 67.8833 4.7 67.91 4.74C67.93 4.82 67.9467 4.90667 67.96 5C67.9733 5.09333 68 5.18333 68.04 5.27ZM66.08 5.77C66.0867 5.70333 66.0767 5.64667 66.05 5.6C66.0233 5.54667 66.0133 5.49333 66.02 5.44C66.02 5.42 66.0067 5.39667 65.98 5.37C65.9667 5.35 65.96 5.31 65.96 5.25C65.9733 5.23667 65.98 5.21333 65.98 5.18C65.98 5.14667 65.98 5.12333 65.98 5.11C65.9133 5.01 65.8533 4.91667 65.8 4.83C65.74 4.73667 65.6767 4.65 65.61 4.57C65.61 4.55 65.6033 4.53667 65.59 4.53C65.57 4.53 65.55 4.51333 65.53 4.48C65.37 4.48 65.1967 4.44 65.01 4.36C64.8967 4.3 64.7633 4.29333 64.61 4.34C64.5967 4.34 64.5833 4.34667 64.57 4.36C64.5567 4.36667 64.54 4.38 64.52 4.4H64.45C64.3033 4.37333 64.2067 4.43 64.16 4.57C64.14 4.60333 64.12 4.64333 64.1 4.69C64.0733 4.73 64.0567 4.77333 64.05 4.82C64.0367 4.86 64.0167 4.9 63.99 4.94C63.9633 4.98 63.94 5.02 63.92 5.06C63.88 5.10667 63.8467 5.15667 63.82 5.21C63.7933 5.27 63.76 5.32333 63.72 5.37C63.7133 5.46333 63.6933 5.55667 63.66 5.65C63.6267 5.74333 63.6067 5.83 63.6 5.91C63.6267 5.95667 63.6533 6.00667 63.68 6.06C63.7067 6.11333 63.73 6.16333 63.75 6.21C63.81 6.33 63.8333 6.44667 63.82 6.56C63.82 6.57333 63.8267 6.59 63.84 6.61C63.8467 6.63 63.8533 6.65 63.86 6.67C63.9467 6.69 64.03 6.70667 64.11 6.72C64.19 6.74 64.2667 6.76333 64.34 6.79C64.4067 6.81 64.4733 6.82667 64.54 6.84C64.6 6.84667 64.6633 6.83667 64.73 6.81H64.77C64.85 6.83 64.9233 6.83 64.99 6.81C65.0633 6.79667 65.14 6.78333 65.22 6.77C65.2867 6.72333 65.3567 6.67 65.43 6.61C65.4967 6.55667 65.5667 6.51 65.64 6.47C65.7067 6.34333 65.7867 6.22667 65.88 6.12C65.9733 6.02 66.04 5.90333 66.08 5.77ZM75.39 5.97C75.3767 5.97667 75.3733 5.99 75.38 6.01C75.3867 6.03 75.3833 6.04333 75.37 6.05C75.3433 6.11667 75.32 6.18 75.3 6.24C75.2733 6.3 75.2467 6.36333 75.22 6.43C75.1733 6.56333 75.1067 6.67667 75.02 6.77C74.9533 6.86333 74.89 6.95333 74.83 7.04C74.77 7.12667 74.7133 7.21333 74.66 7.3C74.5667 7.37333 74.47 7.44 74.37 7.5C74.27 7.56 74.1667 7.61333 74.06 7.66C74 7.68 73.9567 7.70333 73.93 7.73C73.8833 7.79 73.8267 7.82667 73.76 7.84C73.7133 7.86 73.6667 7.88333 73.62 7.91C73.5733 7.93 73.5267 7.96333 73.48 8.01C73.3867 8.05 73.2967 8.09333 73.21 8.14C73.1233 8.18667 73.0267 8.21333 72.92 8.22C72.8933 8.22 72.87 8.22333 72.85 8.23C72.8233 8.23667 72.79 8.24333 72.75 8.25C72.7167 8.23 72.6767 8.21333 72.63 8.2C72.5833 8.18667 72.5367 8.16667 72.49 8.14C72.4033 8.14667 72.32 8.15667 72.24 8.17C72.1533 8.18333 72.0633 8.2 71.97 8.22C71.93 8.2 71.8933 8.18333 71.86 8.17C71.8333 8.15 71.8 8.13333 71.76 8.12C71.72 8.10667 71.6867 8.09 71.66 8.07C71.6333 8.05667 71.5967 8.06 71.55 8.08C71.51 8.12 71.4767 8.16333 71.45 8.21C71.4233 8.25667 71.3967 8.30667 71.37 8.36C71.3567 8.4 71.35 8.43667 71.35 8.47C71.35 8.51 71.35 8.54333 71.35 8.57L71.41 8.81C71.41 8.87667 71.4 8.92667 71.38 8.96C71.3467 9.06667 71.3433 9.17667 71.37 9.29C71.4033 9.41 71.42 9.53333 71.42 9.66C71.4133 9.79333 71.41 9.92667 71.41 10.06C71.37 10.1533 71.35 10.25 71.35 10.35C71.35 10.45 71.3433 10.5533 71.33 10.66C71.33 10.6867 71.3233 10.71 71.31 10.73C71.2367 10.83 71.1433 10.88 71.03 10.88C70.93 10.88 70.8267 10.88 70.72 10.88C70.6133 10.88 70.5067 10.8567 70.4 10.81C70.3733 10.8033 70.34 10.8 70.3 10.8C70.2667 10.8 70.23 10.8 70.19 10.8C70.11 10.8067 70.0267 10.8067 69.94 10.8C69.8533 10.8 69.77 10.78 69.69 10.74C69.65 10.72 69.6067 10.71 69.56 10.71C69.5067 10.71 69.4567 10.71 69.41 10.71C69.3967 10.6967 69.3867 10.6867 69.38 10.68C69.3733 10.6733 69.37 10.6667 69.37 10.66C69.3367 10.5867 69.3133 10.51 69.3 10.43C69.28 10.3567 69.2633 10.2867 69.25 10.22C69.25 10.1733 69.2433 10.1267 69.23 10.08C69.21 10.0333 69.1933 9.98667 69.18 9.94C69.18 9.86667 69.1967 9.79667 69.23 9.73C69.2567 9.65667 69.2733 9.58667 69.28 9.52C69.2733 9.46 69.2667 9.4 69.26 9.34C69.2533 9.27333 69.2567 9.21333 69.27 9.16C69.27 9.10667 69.2633 9.05 69.25 8.99C69.2367 8.93667 69.22 8.87667 69.2 8.81C69.22 8.78333 69.24 8.74667 69.26 8.7C69.2867 8.65333 69.3033 8.61 69.31 8.57C69.33 8.50333 69.3267 8.44333 69.3 8.39C69.2667 8.33667 69.2567 8.26333 69.27 8.17C69.29 8.13 69.3067 8.09 69.32 8.05C69.3333 8.00333 69.35 7.95667 69.37 7.91C69.35 7.80333 69.3333 7.62667 69.32 7.38C69.3133 7.12667 69.3067 6.88333 69.3 6.65C69.3 6.41667 69.3033 6.26333 69.31 6.19C69.29 6.06333 69.29 5.94 69.31 5.82C69.33 5.70667 69.3567 5.58667 69.39 5.46C69.4033 5.41333 69.4167 5.37333 69.43 5.34C69.4433 5.31333 69.46 5.28 69.48 5.24C69.5 5.17333 69.52 5.08333 69.54 4.97C69.5667 4.85 69.5833 4.78667 69.59 4.78C69.63 4.62667 69.6533 4.52 69.66 4.46C69.6667 4.4 69.6867 4.34667 69.72 4.3C69.7533 4.24667 69.8167 4.16 69.91 4.04C70.0033 3.91333 70.0867 3.76333 70.16 3.59C70.16 3.59 70.17 3.57667 70.19 3.55C70.2033 3.51667 70.2133 3.47667 70.22 3.43C70.24 3.41667 70.2533 3.40333 70.26 3.39C70.2733 3.38333 70.2833 3.37333 70.29 3.36L70.39 3.17C70.47 2.99 70.6033 2.86333 70.79 2.79C70.85 2.77 70.91 2.74 70.97 2.7C71.03 2.66 71.1033 2.61667 71.19 2.57C71.31 2.53667 71.4333 2.49667 71.56 2.45C71.6933 2.40333 71.8333 2.36333 71.98 2.33C72.04 2.31 72.1033 2.3 72.17 2.3C72.23 2.3 72.2933 2.29667 72.36 2.29C72.4067 2.29667 72.4533 2.30333 72.5 2.31C72.5467 2.31 72.6 2.31 72.66 2.31C72.74 2.32333 72.82 2.33333 72.9 2.34C72.98 2.35333 73.0567 2.38333 73.13 2.43C73.17 2.43667 73.21 2.44333 73.25 2.45C73.29 2.45 73.33 2.45667 73.37 2.47C73.4367 2.47 73.5067 2.47 73.58 2.47C73.6533 2.47 73.7233 2.48 73.79 2.5C73.8167 2.51333 73.88 2.54333 73.98 2.59C74.08 2.63667 74.1333 2.66 74.14 2.66C74.18 2.68 74.2033 2.7 74.21 2.72C74.23 2.74 74.25 2.76333 74.27 2.79C74.2833 2.81667 74.3067 2.84 74.34 2.86C74.4667 2.95333 74.58 3.06 74.68 3.18C74.78 3.29333 74.8767 3.41667 74.97 3.55C75.0167 3.63 75.0667 3.69 75.12 3.73C75.1467 3.75667 75.1733 3.78667 75.2 3.82C75.22 3.85333 75.2433 3.88667 75.27 3.92C75.27 3.98 75.27 4.04 75.27 4.1C75.27 4.16 75.2767 4.21667 75.29 4.27C75.29 4.31 75.2967 4.35333 75.31 4.4C75.3233 4.44667 75.3333 4.49333 75.34 4.54C75.3333 4.56667 75.33 4.64333 75.33 4.77C75.33 4.89667 75.3333 4.98333 75.34 5.03C75.3867 5.16333 75.3867 5.28 75.34 5.38C75.3267 5.43333 75.3367 5.49 75.37 5.55C75.3833 5.58333 75.3867 5.65333 75.38 5.76C75.3733 5.86 75.3767 5.93 75.39 5.97ZM73.57 5.44C73.5567 5.28 73.5233 5.13667 73.47 5.01C73.4233 4.88333 73.3467 4.76333 73.24 4.65C73.16 4.55667 73.08 4.48 73 4.42C72.92 4.36 72.83 4.30333 72.73 4.25C72.5567 4.21667 72.4067 4.22 72.28 4.26C72.24 4.3 72.1733 4.32333 72.08 4.33C71.98 4.33667 71.9167 4.36 71.89 4.4C71.85 4.47333 71.7933 4.55333 71.72 4.64C71.6533 4.73333 71.61 4.78333 71.59 4.79C71.5367 4.91 71.5033 5.04667 71.49 5.2C71.4767 5.34667 71.4833 5.47667 71.51 5.59C71.53 5.68333 71.5467 5.77333 71.56 5.86C71.58 5.94 71.6 6.01667 71.62 6.09C71.62 6.12333 71.63 6.14667 71.65 6.16C71.67 6.17333 71.6833 6.21333 71.69 6.28C71.6967 6.34 71.7167 6.38 71.75 6.4C71.7633 6.46 71.7933 6.49667 71.84 6.51C71.8867 6.52333 71.9433 6.55333 72.01 6.6C72.0367 6.6 72.0667 6.60333 72.1 6.61C72.1267 6.61 72.1567 6.61 72.19 6.61C72.27 6.61 72.34 6.61333 72.4 6.62C72.4667 6.62667 72.5333 6.63667 72.6 6.65C72.6933 6.69667 72.8067 6.69333 72.94 6.64C72.9533 6.62 72.9833 6.60333 73.03 6.59C73.07 6.57667 73.1 6.55667 73.12 6.53C73.1733 6.51667 73.2033 6.48667 73.21 6.44C73.2167 6.38667 73.2267 6.35 73.24 6.33C73.3667 6.18333 73.45 6.03333 73.49 5.88C73.53 5.72667 73.5567 5.58 73.57 5.44ZM85.89 8.21C85.8767 8.19667 85.87 8.19 85.87 8.19C85.8633 8.19 85.86 8.19 85.86 8.19L85.87 8.21C85.8367 8.23 85.8133 8.27 85.8 8.33C85.78 8.39667 85.7533 8.44333 85.72 8.47C85.7067 8.50333 85.6733 8.54667 85.62 8.6C85.5667 8.65333 85.5233 8.67667 85.49 8.67C85.3633 8.64333 85.21 8.64333 85.03 8.67C85.0033 8.69667 84.9767 8.72333 84.95 8.75C84.9233 8.78333 84.8867 8.81667 84.84 8.85C84.8267 8.85 84.8167 8.85333 84.81 8.86C84.7967 8.86667 84.7833 8.87 84.77 8.87C84.7367 8.87667 84.6933 8.88 84.64 8.88C84.34 8.87333 84.0467 8.93 83.76 9.05C83.6933 9.07 83.6233 9.08 83.55 9.08C83.4767 9.08667 83.4 9.07667 83.32 9.05C83.2667 9.02333 83.2133 9.00667 83.16 9C83.1133 8.99333 83.06 8.99667 83 9.01C82.88 9.01 82.7633 8.99 82.65 8.95C82.6033 8.95667 82.5567 8.96667 82.51 8.98C82.4567 8.98667 82.4067 9 82.36 9.02C82.3133 9.04 82.2667 9.06667 82.22 9.1C82.1733 9.13333 82.12 9.14333 82.06 9.13C82.0533 9.11 82.04 9.09 82.02 9.07C82 9.04333 81.9833 9.01333 81.97 8.98C81.95 8.96667 81.9267 8.95333 81.9 8.94C81.8667 8.92667 81.8433 8.91667 81.83 8.91C81.7033 8.89 81.59 8.84667 81.49 8.78C81.35 8.68667 81.2133 8.61667 81.08 8.57C81.02 8.55 80.9667 8.51667 80.92 8.47C80.88 8.41667 80.8367 8.37 80.79 8.33C80.75 8.23667 80.7167 8.15 80.69 8.07C80.6633 7.98333 80.6467 7.89333 80.64 7.8C80.6067 7.78 80.5833 7.76 80.57 7.74C80.55 7.71333 80.53 7.69333 80.51 7.68C80.4567 7.64 80.43 7.60667 80.43 7.58C80.4167 7.49333 80.3867 7.42667 80.34 7.38C80.2933 7.33333 80.2533 7.27 80.22 7.19C80.22 7.17 80.2167 7.14 80.21 7.1C80.2033 7.06667 80.1967 7.03 80.19 6.99C80.19 6.97 80.19 6.94333 80.19 6.91C80.19 6.87667 80.1833 6.85333 80.17 6.84C80.1367 6.76 80.1 6.68667 80.06 6.62C80.0267 6.54667 79.9933 6.48 79.96 6.42C79.96 6.37333 79.97 6.30333 79.99 6.21C80.0367 6.01 80.0333 5.81667 79.98 5.63C79.9533 5.56333 79.9333 5.5 79.92 5.44C79.9133 5.37333 79.9 5.30667 79.88 5.24C79.8867 5.22 79.9 5.19333 79.92 5.16C79.9333 5.12667 79.9467 5.10333 79.96 5.09L79.87 4.79C79.85 4.74333 79.8233 4.7 79.79 4.66C79.7567 4.62 79.7267 4.58 79.7 4.54C79.6867 4.46667 79.7033 4.39667 79.75 4.33C79.79 4.26333 79.8133 4.19667 79.82 4.13C79.82 4.10333 79.82 4.07667 79.82 4.05C79.8133 4.02333 79.81 3.99667 79.81 3.97C79.8833 3.86333 79.9333 3.75333 79.96 3.64C79.98 3.53333 79.9967 3.41667 80.01 3.29C80.07 3.25667 80.1233 3.21667 80.17 3.17C80.2167 3.12333 80.25 3.06333 80.27 2.99C80.2833 2.95667 80.29 2.92333 80.29 2.89C80.2967 2.85 80.3033 2.81333 80.31 2.78C80.3567 2.7 80.4067 2.62333 80.46 2.55C80.5133 2.47 80.5633 2.39667 80.61 2.33C80.63 2.28333 80.6467 2.23 80.66 2.17C80.6733 2.11667 80.6967 2.07 80.73 2.03C80.7767 2.00333 80.8133 1.96667 80.84 1.92C80.86 1.87333 80.88 1.82667 80.9 1.78C80.9667 1.77333 81.0233 1.76 81.07 1.74C81.1167 1.72 81.16 1.70667 81.2 1.7C81.2467 1.67333 81.27 1.64333 81.27 1.61C81.2967 1.48333 81.3533 1.39 81.44 1.33C81.5267 1.27 81.6267 1.22333 81.74 1.19C81.78 1.18333 81.8133 1.17667 81.84 1.17C81.8667 1.17 81.9033 1.16333 81.95 1.15C81.97 1.13 81.9933 1.10333 82.02 1.07C82.0467 1.04333 82.0767 1.01 82.11 0.97C82.1633 0.95 82.2167 0.93 82.27 0.91C82.3167 0.896667 82.36 0.88 82.4 0.86H82.5C82.5733 0.886667 82.65 0.913333 82.73 0.94C82.81 0.96 82.8967 0.983334 82.99 1.01C83.0633 1.00333 83.14 0.986667 83.22 0.96C83.3 0.94 83.3767 0.94 83.45 0.96C83.4567 0.96 83.4667 0.96 83.48 0.96C83.4867 0.966667 83.4967 0.966667 83.51 0.96C83.57 0.96 83.6333 0.95 83.7 0.93C83.7667 0.91 83.8333 0.903334 83.9 0.91C83.9533 0.91 84.01 0.906667 84.07 0.9C84.13 0.893333 84.19 0.873334 84.25 0.84C84.2967 0.833333 84.34 0.826667 84.38 0.82C84.42 0.82 84.4633 0.826667 84.51 0.84C84.5433 0.873334 84.5733 0.9 84.6 0.92C84.6267 0.946667 84.66 0.976667 84.7 1.01C84.7733 1.02333 84.8533 1.04 84.94 1.06C85.0267 1.08667 85.1167 1.11333 85.21 1.14C85.2567 1.14667 85.3033 1.17 85.35 1.21C85.39 1.24333 85.4433 1.27 85.51 1.29C85.5633 1.31 85.62 1.32333 85.68 1.33C85.74 1.33 85.8033 1.33 85.87 1.33C86.0233 1.48333 86.2 1.58667 86.4 1.64C86.42 1.65333 86.44 1.66333 86.46 1.67C86.48 1.67667 86.5 1.68667 86.52 1.7C86.5933 1.76667 86.6633 1.83333 86.73 1.9C86.8033 1.97333 86.8733 2.04 86.94 2.1C87 2.18 87.0367 2.26 87.05 2.34C87.1233 2.40667 87.1667 2.45667 87.18 2.49C87.1933 2.52333 87.2 2.61333 87.2 2.76C87.26 2.78667 87.3133 2.81667 87.36 2.85C87.4067 2.88333 87.4333 2.93333 87.44 3C87.46 3.04 87.48 3.07667 87.5 3.11C87.5133 3.13667 87.5267 3.17 87.54 3.21C87.5667 3.25 87.5967 3.28 87.63 3.3C87.6633 3.32667 87.6967 3.35667 87.73 3.39C87.7633 3.45667 87.7867 3.52 87.8 3.58C87.82 3.64 87.82 3.70667 87.8 3.78C87.7867 3.84667 87.7833 3.91667 87.79 3.99C87.7967 4.07 87.7967 4.15 87.79 4.23C87.7833 4.30333 87.7833 4.38333 87.79 4.47C87.7967 4.55667 87.8067 4.63667 87.82 4.71C87.8267 4.74333 87.83 4.78333 87.83 4.83C87.83 4.87 87.8367 4.90333 87.85 4.93C87.8833 4.99667 87.9033 5.06333 87.91 5.13C87.9167 5.19667 87.9133 5.26 87.9 5.32C87.9 5.36 87.9033 5.39667 87.91 5.43C87.9167 5.46333 87.92 5.50333 87.92 5.55C87.88 5.67 87.8467 5.79333 87.82 5.92C87.7933 6.04667 87.75 6.16667 87.69 6.28C87.6367 6.38 87.58 6.48 87.52 6.58C87.4667 6.68667 87.4033 6.78667 87.33 6.88V7.12C87.2833 7.14667 87.24 7.17667 87.2 7.21C87.1533 7.24333 87.1167 7.26667 87.09 7.28C87.0233 7.39333 86.9833 7.49333 86.97 7.58C86.9567 7.67333 86.9367 7.75667 86.91 7.83C86.87 7.87 86.8333 7.90667 86.8 7.94C86.76 7.98 86.7167 8.01667 86.67 8.05C86.6233 8.09 86.57 8.12 86.51 8.14C86.45 8.16667 86.3833 8.16667 86.31 8.14C86.2233 8.12 86.1533 8.12333 86.1 8.15C86.06 8.16333 86.02 8.17333 85.98 8.18C85.9467 8.18667 85.9167 8.19667 85.89 8.21ZM85.66 5.04C85.64 4.99333 85.63 4.95 85.63 4.91C85.6233 4.87 85.6167 4.82667 85.61 4.78C85.61 4.70667 85.6033 4.64667 85.59 4.6C85.57 4.52 85.5467 4.43667 85.52 4.35C85.4867 4.26333 85.45 4.17667 85.41 4.09C85.4033 4.05667 85.3867 4.01667 85.36 3.97C85.34 3.93 85.32 3.89 85.3 3.85C85.2267 3.70333 85.11 3.61667 84.95 3.59C84.9233 3.57667 84.89 3.56333 84.85 3.55C84.81 3.53667 84.7767 3.52 84.75 3.5C84.6967 3.46667 84.64 3.44 84.58 3.42C84.5267 3.4 84.4733 3.38667 84.42 3.38C84.34 3.36 84.26 3.33667 84.18 3.31C84.0933 3.29 84.0133 3.27667 83.94 3.27C83.8467 3.22333 83.7567 3.22667 83.67 3.28C83.4233 3.38 83.1967 3.51333 82.99 3.68C82.7833 3.84 82.6067 4.06 82.46 4.34C82.4267 4.38 82.4 4.42333 82.38 4.47C82.3533 4.51667 82.3333 4.56333 82.32 4.61C82.28 4.65667 82.2467 4.70667 82.22 4.76C82.1933 4.80667 82.17 4.85333 82.15 4.9C82.1567 4.98 82.19 5.04333 82.25 5.09C82.3033 5.13667 82.3333 5.19667 82.34 5.27C82.34 5.30333 82.3267 5.33667 82.3 5.37C82.2733 5.40333 82.2567 5.44 82.25 5.48C82.2633 5.51333 82.2867 5.55333 82.32 5.6C82.3467 5.64667 82.37 5.69333 82.39 5.74C82.4167 5.78667 82.4367 5.83667 82.45 5.89C82.4633 5.94333 82.4733 5.99667 82.48 6.05C82.5 6.09667 82.5167 6.14333 82.53 6.19C82.5433 6.23667 82.5567 6.28333 82.57 6.33L82.76 6.49C82.7933 6.50333 82.8267 6.52667 82.86 6.56C82.8867 6.59333 82.92 6.62 82.96 6.64C83.0733 6.66667 83.17 6.69333 83.25 6.72C83.33 6.74 83.3967 6.75 83.45 6.75C83.5033 6.75 83.5633 6.75 83.63 6.75C83.6233 6.75 83.62 6.75667 83.62 6.77H83.65C83.6367 6.77 83.63 6.76333 83.63 6.75C83.65 6.73 83.6733 6.72 83.7 6.72C83.7267 6.71333 83.75 6.71 83.77 6.71C83.83 6.71 83.89 6.71333 83.95 6.72C84.01 6.72 84.0733 6.71667 84.14 6.71C84.1533 6.69 84.1767 6.68667 84.21 6.7C84.2433 6.71333 84.2733 6.72667 84.3 6.74C84.34 6.74 84.37 6.73 84.39 6.71C84.39 6.67 84.3867 6.63667 84.38 6.61C84.3733 6.58333 84.3867 6.56 84.42 6.54C84.54 6.47333 84.6567 6.42333 84.77 6.39C84.8167 6.35 84.8567 6.31667 84.89 6.29C84.9167 6.26333 84.9467 6.23 84.98 6.19C85.0133 6.17 85.0433 6.14667 85.07 6.12C85.09 6.09333 85.12 6.07667 85.16 6.07C85.24 6.03667 85.3133 5.99667 85.38 5.95C85.44 5.89667 85.4967 5.84333 85.55 5.79C85.5567 5.77 85.5633 5.75333 85.57 5.74C85.5767 5.72667 85.5833 5.71 85.59 5.69C85.6967 5.47667 85.72 5.26 85.66 5.04ZM94.62 7.03C94.62 7.10333 94.6233 7.18 94.63 7.26C94.6367 7.34 94.63 7.41667 94.61 7.49C94.59 7.53667 94.5833 7.58 94.59 7.62C94.61 7.66667 94.6133 7.71667 94.6 7.77C94.5867 7.81667 94.5833 7.86333 94.59 7.91C94.61 7.97667 94.6167 8.05 94.61 8.13C94.5967 8.21 94.5967 8.28667 94.61 8.36C94.57 8.42667 94.51 8.46 94.43 8.46C94.3367 8.46 94.2367 8.46333 94.13 8.47C94.0167 8.48333 93.91 8.50667 93.81 8.54C93.7567 8.56 93.6967 8.57 93.63 8.57C93.5633 8.57 93.4967 8.57 93.43 8.57C93.3767 8.53667 93.3367 8.50333 93.31 8.47C93.1967 8.51 93.1033 8.47 93.03 8.35C92.99 8.29 92.96 8.23 92.94 8.17C92.9133 8.10333 92.9 8.03333 92.9 7.96C92.9067 7.88 92.9067 7.80333 92.9 7.73C92.8933 7.65667 92.8933 7.57667 92.9 7.49C92.92 7.35 92.9 7.21667 92.84 7.09C92.8333 7.06333 92.8267 7.03333 92.82 7C92.8067 6.97333 92.8 6.94667 92.8 6.92C92.8 6.82 92.7967 6.71667 92.79 6.61C92.7767 6.49667 92.7567 6.39333 92.73 6.3C92.7233 6.25333 92.7167 6.21 92.71 6.17C92.7033 6.13 92.7 6.09 92.7 6.05C92.6733 5.93667 92.6133 5.85 92.52 5.79C92.5133 5.71 92.5033 5.64 92.49 5.58C92.4833 5.52 92.47 5.45333 92.45 5.38C92.43 5.36 92.3933 5.33333 92.34 5.3C92.3 5.26667 92.2567 5.24333 92.21 5.23C92.1567 5.21 92.1067 5.18667 92.06 5.16C92.04 5.14 92.02 5.11333 92 5.08C91.9733 5.04667 91.9467 5.01667 91.92 4.99H91.84C91.8 4.99667 91.7667 5.00333 91.74 5.01C91.7133 5.01667 91.6767 5.01333 91.63 5C91.61 4.99333 91.5867 4.99333 91.56 5C91.5267 5 91.5033 5 91.49 5C91.4433 5.06667 91.3967 5.13667 91.35 5.21C91.31 5.23667 91.2733 5.26333 91.24 5.29C91.2067 5.31 91.18 5.33 91.16 5.35C91.1333 5.37667 91.12 5.40667 91.12 5.44L91.02 5.73C91.04 5.78333 91.04 5.83667 91.02 5.89C91.0067 5.94333 91.0133 5.99667 91.04 6.05C91.0467 6.07667 91.0467 6.10667 91.04 6.14C91.0267 6.16667 91.0167 6.19 91.01 6.21C90.9833 6.24333 90.98 6.27 91 6.29C91.0133 6.31 91.0267 6.33333 91.04 6.36C91.0467 6.36667 91.0567 6.38667 91.07 6.42C91.07 6.52667 91.07 6.63333 91.07 6.74C91.07 6.84 91.05 6.94333 91.01 7.05C91.0167 7.08333 91.0233 7.11667 91.03 7.15C91.0367 7.18333 91.0433 7.22333 91.05 7.27C91.0433 7.32333 91.0333 7.38667 91.02 7.46C91.0067 7.52667 91.0033 7.6 91.01 7.68C91.0167 7.72667 91.02 7.77667 91.02 7.83C91.0133 7.88333 91 7.94 90.98 8C90.9733 8.02667 90.9733 8.05333 90.98 8.08C91.0067 8.19333 91.0067 8.29333 90.98 8.38C90.9533 8.46 90.9033 8.54667 90.83 8.64C90.8167 8.65333 90.7967 8.66333 90.77 8.67C90.7433 8.67667 90.72 8.68667 90.7 8.7C90.68 8.72 90.6633 8.73 90.65 8.73C90.63 8.73667 90.61 8.74333 90.59 8.75C90.55 8.75 90.5133 8.75 90.48 8.75C90.44 8.74333 90.4067 8.74 90.38 8.74C90.34 8.74667 90.31 8.76 90.29 8.78C90.2633 8.79333 90.2267 8.81333 90.18 8.84C90.06 8.82 89.9367 8.79667 89.81 8.77C89.6833 8.74333 89.56 8.75333 89.44 8.8C89.3867 8.78667 89.34 8.76333 89.3 8.73C89.2667 8.69 89.2333 8.64667 89.2 8.6C89.1667 8.54667 89.1433 8.48333 89.13 8.41C89.1233 8.34333 89.11 8.27667 89.09 8.21C89.11 8.05 89.12 7.94 89.12 7.88C89.12 7.82 89.1067 7.68333 89.08 7.47C89.1067 7.31667 89.1233 7.16333 89.13 7.01C89.1433 6.85667 89.15 6.70667 89.15 6.56C89.15 6.36 89.15 6.15667 89.15 5.95C89.15 5.75 89.1533 5.54667 89.16 5.34C89.16 5.28 89.1667 5.22333 89.18 5.17C89.1867 5.11667 89.1933 5.06667 89.2 5.02C89.22 4.91333 89.24 4.81333 89.26 4.72C89.28 4.62667 89.3033 4.54 89.33 4.46C89.35 4.39333 89.3833 4.33667 89.43 4.29C89.4767 4.24333 89.51 4.18667 89.53 4.12C89.5433 3.98667 89.58 3.87333 89.64 3.78C89.7067 3.68 89.77 3.58333 89.83 3.49C89.8767 3.35667 89.9633 3.30667 90.09 3.34C90.1033 3.34 90.11 3.33333 90.11 3.32C90.1433 3.29333 90.1533 3.25667 90.14 3.21C90.12 3.16333 90.13 3.12 90.17 3.08C90.2567 3.00667 90.3533 2.95 90.46 2.91C90.5733 2.87 90.6767 2.83 90.77 2.79C90.8567 2.79 90.9133 2.8 90.94 2.82C91.06 2.85333 91.1767 2.85333 91.29 2.82C91.3767 2.8 91.45 2.82333 91.51 2.89C91.6033 2.91 91.6933 2.92667 91.78 2.94C91.8667 2.96 91.9567 2.98 92.05 3C92.0833 2.99333 92.12 2.98667 92.16 2.98C92.1933 2.97333 92.23 2.96667 92.27 2.96C92.3633 2.99333 92.44 3.04667 92.5 3.12C92.56 3.18667 92.6233 3.26 92.69 3.34C92.7367 3.37333 92.7867 3.38667 92.84 3.38C92.9 3.36667 92.9633 3.37 93.03 3.39C93.0767 3.43667 93.1233 3.49 93.17 3.55C93.2233 3.60333 93.2767 3.65333 93.33 3.7C93.3433 3.74 93.3567 3.77333 93.37 3.8C93.3833 3.83333 93.3933 3.87 93.4 3.91C93.4467 3.91667 93.48 3.94 93.5 3.98C93.52 4.02 93.5333 4.05333 93.54 4.08C93.6333 4.11333 93.7267 4.14 93.82 4.16C93.8667 4.20667 93.91 4.26 93.95 4.32C93.99 4.38 94.05 4.41 94.13 4.41C94.15 4.50333 94.17 4.59 94.19 4.67C94.21 4.74333 94.2267 4.81667 94.24 4.89C94.26 5.03 94.2933 5.15 94.34 5.25C94.38 5.33 94.4133 5.40667 94.44 5.48C94.4667 5.56 94.48 5.64667 94.48 5.74C94.4933 5.8 94.5167 5.85333 94.55 5.9C94.5767 5.94667 94.6 5.99667 94.62 6.05C94.6133 6.09 94.6067 6.12667 94.6 6.16C94.5933 6.2 94.59 6.24333 94.59 6.29C94.59 6.33 94.5933 6.36333 94.6 6.39C94.6067 6.41667 94.6133 6.45333 94.62 6.5C94.62 6.52 94.6233 6.54667 94.63 6.58C94.6367 6.61333 94.6333 6.63667 94.62 6.65C94.6 6.71667 94.5967 6.78333 94.61 6.85C94.6167 6.91667 94.62 6.97667 94.62 7.03ZM101.89 4.15C101.877 4.24333 101.87 4.33667 101.87 4.43C101.863 4.53 101.85 4.62667 101.83 4.72C101.823 4.81333 101.82 4.91333 101.82 5.02C101.82 5.12667 101.8 5.23667 101.76 5.35C101.74 5.37667 101.717 5.40667 101.69 5.44C101.663 5.47333 101.637 5.51333 101.61 5.56C101.61 5.6 101.61 5.63333 101.61 5.66C101.617 5.68667 101.627 5.72 101.64 5.76C101.62 5.80667 101.59 5.84667 101.55 5.88C101.517 5.91333 101.48 5.93667 101.44 5.95C101.347 5.98333 101.26 6.01333 101.18 6.04C101.1 6.06667 101.02 6.09 100.94 6.11C100.807 6.13 100.67 6.13333 100.53 6.12C100.39 6.1 100.25 6.09667 100.11 6.11C99.99 6.11 99.86 6.11333 99.72 6.12C99.5867 6.12 99.45 6.12 99.31 6.12H98.53C98.49 6.14667 98.45 6.15667 98.41 6.15C98.37 6.14333 98.33 6.14667 98.29 6.16C98.25 6.14667 98.2067 6.14667 98.16 6.16C98.1133 6.17333 98.0667 6.17 98.02 6.15C97.9867 6.15667 97.9533 6.16333 97.92 6.17C97.8867 6.17667 97.8467 6.18333 97.8 6.19C97.76 6.18333 97.7267 6.17333 97.7 6.16C97.6733 6.14667 97.64 6.15333 97.6 6.18C97.62 6.20667 97.6433 6.23667 97.67 6.27C97.69 6.30333 97.7067 6.34333 97.72 6.39C97.7467 6.42333 97.77 6.46 97.79 6.5C97.8033 6.54 97.82 6.58333 97.84 6.63C97.86 6.66333 97.8733 6.7 97.88 6.74C97.8933 6.78667 97.9033 6.82667 97.91 6.86C97.9567 6.90667 98.01 6.95333 98.07 7C98.1233 7.04667 98.1767 7.09333 98.23 7.14C98.2767 7.15333 98.3267 7.16333 98.38 7.17C98.4333 7.18333 98.4833 7.19333 98.53 7.2C98.5833 7.20667 98.64 7.21667 98.7 7.23C98.7533 7.23667 98.8133 7.23667 98.88 7.23C98.9467 7.21 99.0067 7.21 99.06 7.23C99.1133 7.25667 99.1733 7.27333 99.24 7.28C99.3267 7.27333 99.4133 7.26667 99.5 7.26C99.5867 7.24667 99.6733 7.23667 99.76 7.23C99.8 7.20333 99.84 7.17667 99.88 7.15C99.92 7.13 99.96 7.10333 100 7.07C100.12 7.04333 100.24 7.05 100.36 7.09C100.387 7.13667 100.423 7.18333 100.47 7.23C100.51 7.27667 100.55 7.32667 100.59 7.38C100.643 7.46667 100.697 7.55 100.75 7.63C100.81 7.71 100.85 7.8 100.87 7.9C100.883 7.94667 100.91 7.99333 100.95 8.04C100.99 8.08667 101.017 8.13 101.03 8.17C101.043 8.21667 101.043 8.25667 101.03 8.29C101.017 8.33 101.003 8.37333 100.99 8.42C100.957 8.45333 100.91 8.48667 100.85 8.52C100.843 8.52 100.833 8.52667 100.82 8.54C100.813 8.56 100.8 8.57667 100.78 8.59C100.727 8.62333 100.67 8.66 100.61 8.7C100.557 8.73333 100.507 8.77 100.46 8.81C100.327 8.92333 100.19 8.98 100.05 8.98C99.9967 8.98 99.9567 8.98333 99.93 8.99C99.8833 9.00333 99.8367 9.02333 99.79 9.05C99.7433 9.07667 99.69 9.1 99.63 9.12C99.5833 9.12 99.5367 9.12667 99.49 9.14C99.4433 9.15333 99.3967 9.16333 99.35 9.17C99.3233 9.17 99.2933 9.17 99.26 9.17C99.22 9.16333 99.18 9.16 99.14 9.16C99.06 9.16667 98.9767 9.16333 98.89 9.15C98.81 9.13 98.7267 9.12 98.64 9.12C98.6133 9.10667 98.5867 9.09667 98.56 9.09C98.5267 9.08333 98.4967 9.08 98.47 9.08C98.31 9.08667 98.16 9.06 98.02 9C97.88 8.94 97.74 8.87667 97.6 8.81C97.4933 8.78333 97.4167 8.73333 97.37 8.66C97.3033 8.58 97.23 8.51667 97.15 8.47C97.07 8.41667 96.9833 8.37 96.89 8.33C96.8367 8.31667 96.78 8.29333 96.72 8.26C96.6667 8.22667 96.6067 8.19 96.54 8.15C96.5333 8.11667 96.52 8.08 96.5 8.04C96.48 8 96.46 7.96333 96.44 7.93C96.42 7.90333 96.3933 7.87333 96.36 7.84C96.3333 7.81333 96.3033 7.78667 96.27 7.76C96.2433 7.73333 96.22 7.7 96.2 7.66C96.1533 7.5 96.1067 7.34333 96.06 7.19C96.0133 7.03667 95.9533 6.88667 95.88 6.74C95.8933 6.67333 95.9 6.60667 95.9 6.54C95.9067 6.46667 95.9 6.38667 95.88 6.3C95.8733 6.28667 95.87 6.26333 95.87 6.23C95.87 6.20333 95.87 6.18 95.87 6.16C95.87 6.11333 95.8733 6.07667 95.88 6.05C95.88 6.01667 95.8767 5.98333 95.87 5.95C95.8567 5.87667 95.8467 5.80333 95.84 5.73C95.8333 5.65667 95.8367 5.58667 95.85 5.52C95.87 5.44667 95.89 5.37333 95.91 5.3C95.93 5.22 95.9533 5.14 95.98 5.06C95.9733 5.04 95.97 5.01 95.97 4.97C95.97 4.93667 95.9633 4.9 95.95 4.86C95.97 4.76 95.99 4.65667 96.01 4.55C96.03 4.45 96.0533 4.35333 96.08 4.26C96.1067 4.20667 96.1367 4.15333 96.17 4.1C96.2033 4.04667 96.2367 3.99333 96.27 3.94C96.3367 3.82667 96.39 3.72 96.43 3.62C96.5433 3.56 96.61 3.52333 96.63 3.51C96.6567 3.49667 96.6767 3.47667 96.69 3.45C96.71 3.42333 96.7733 3.36667 96.88 3.28C96.8667 3.25333 96.89 3.21 96.95 3.15C97.0033 3.09667 97.02 3.05 97 3.01C97.0867 2.85667 97.21 2.73333 97.37 2.64C97.4233 2.6 97.4767 2.56 97.53 2.52C97.5767 2.47333 97.62 2.43333 97.66 2.4C97.7067 2.37333 97.75 2.36 97.79 2.36C97.8367 2.36667 97.8767 2.37 97.91 2.37C97.9367 2.36333 97.9667 2.35667 98 2.35C98.0333 2.34333 98.07 2.33667 98.11 2.33C98.13 2.31667 98.1533 2.30667 98.18 2.3C98.2067 2.29333 98.23 2.28 98.25 2.26C98.27 2.24667 98.2867 2.23667 98.3 2.23C98.32 2.22333 98.34 2.22 98.36 2.22C98.4467 2.20667 98.5267 2.18333 98.6 2.15C98.6733 2.11 98.7433 2.07 98.81 2.03C98.95 2.09 99.0933 2.11 99.24 2.09C99.3333 2.08333 99.4267 2.08667 99.52 2.1C99.6067 2.12 99.6867 2.14333 99.76 2.17L99.96 2.12C100.033 2.12667 100.103 2.15 100.17 2.19C100.23 2.22333 100.293 2.26 100.36 2.3H100.49C100.497 2.30667 100.507 2.31333 100.52 2.32C100.527 2.32667 100.533 2.33333 100.54 2.34C100.647 2.43333 100.747 2.52 100.84 2.6C100.933 2.68 101.03 2.76333 101.13 2.85C101.27 2.94333 101.36 3.05333 101.4 3.18C101.433 3.24 101.467 3.28333 101.5 3.31C101.607 3.40333 101.703 3.53 101.79 3.69C101.79 3.70333 101.793 3.72667 101.8 3.76C101.8 3.79333 101.8 3.82333 101.8 3.85C101.793 3.89667 101.803 3.94333 101.83 3.99C101.857 4.03667 101.877 4.09 101.89 4.15ZM100.11 4.61V4.26C100.11 4.21333 100.107 4.18667 100.1 4.18C100.087 4.14667 100.073 4.11667 100.06 4.09C100.047 4.06333 100.037 4.04667 100.03 4.04V3.8L99.98 3.76C99.9467 3.76 99.9 3.75 99.84 3.73C99.8267 3.64333 99.8033 3.57667 99.77 3.53C99.7433 3.49667 99.7067 3.47333 99.66 3.46C99.6133 3.45333 99.5633 3.44 99.51 3.42C99.39 3.46 99.26 3.49333 99.12 3.52C98.98 3.54667 98.8433 3.58333 98.71 3.63C98.6433 3.63667 98.5833 3.64 98.53 3.64C98.47 3.64 98.4133 3.64667 98.36 3.66C98.2667 3.69333 98.1833 3.75 98.11 3.83C98.0433 3.91 97.9767 3.98667 97.91 4.06C97.8767 4.10667 97.8433 4.16 97.81 4.22C97.7833 4.27333 97.7533 4.32333 97.72 4.37C97.7067 4.38333 97.7 4.41333 97.7 4.46C97.7267 4.53333 97.77 4.58 97.83 4.6C97.8833 4.60667 97.94 4.62 98 4.64C98.0533 4.66 98.1133 4.67667 98.18 4.69C98.2067 4.68333 98.23 4.68 98.25 4.68C98.2767 4.68 98.3033 4.67667 98.33 4.67C98.4433 4.62333 98.5367 4.61667 98.61 4.65C98.6833 4.66333 98.7533 4.66333 98.82 4.65C98.88 4.64333 98.94 4.63333 99 4.62C99.06 4.65333 99.12 4.67333 99.18 4.68C99.24 4.68667 99.2967 4.7 99.35 4.72C99.4767 4.76 99.5933 4.78 99.7 4.78C99.8133 4.78 99.9267 4.76667 100.04 4.74C100.087 4.69333 100.11 4.65 100.11 4.61Z" fill="black"/>
</svg>
