<svg width="65" height="11" viewBox="0 0 65 11" fill="none" xmlns="http://www.w3.org/2000/svg">
<path d="M4.04 10.6H0.56V10.31C0.86 10.25 1.1 10.18 1.28 10.1C1.46 10.02 1.55 9.95 1.55 9.89V2.48C1.62333 2.47333 1.4 2.50333 0.88 2.57C0.806667 2.58333 0.7 2.6 0.56 2.62L0.5 2.19C0.913333 2.07667 1.42667 1.98 2.04 1.9C2.66 1.82 3.23333 1.78 3.76 1.78C4.60667 1.78 5.34 1.94667 5.96 2.28C6.58 2.61333 7.05667 3.09667 7.39 3.73C7.73 4.35667 7.9 5.10667 7.9 5.98C7.9 7.04667 7.7 7.92667 7.3 8.62C6.90667 9.31333 6.41333 9.81667 5.82 10.13C5.23333 10.4433 4.64 10.6 4.04 10.6ZM2.65 2.38V9.55C2.65 9.65 2.67333 9.73 2.72 9.79C2.78667 9.87667 2.91 9.93667 3.09 9.97C3.27 10.01 3.53667 10.03 3.89 10.03C4.33667 10.03 4.78 9.88667 5.22 9.6C5.65333 9.30667 6.01333 8.87667 6.3 8.31C6.58667 7.74333 6.73 7.05667 6.73 6.25C6.73 5.44333 6.59667 4.74667 6.33 4.16C6.06333 3.58 5.67667 3.13333 5.17 2.82C4.65667 2.51333 4.04 2.36 3.32 2.36C3.08667 2.36 2.86333 2.36667 2.65 2.38ZM13.32 10.81C13.1667 10.81 13.04 10.7 12.94 10.48C12.84 10.2667 12.7867 9.98 12.78 9.62C12.3933 10.0133 12 10.31 11.6 10.51C11.1933 10.71 10.8333 10.81 10.52 10.81C10.2867 10.81 10.0567 10.7567 9.83 10.65C9.61 10.5433 9.42667 10.38 9.28 10.16C9.14 9.94 9.07 9.66333 9.07 9.33C9.07 9.00333 9.12333 8.72333 9.23 8.49C9.33667 8.26333 9.48667 8.05333 9.68 7.86C9.84667 7.69333 10.0367 7.54667 10.25 7.42C10.4633 7.3 10.77 7.18667 11.17 7.08C11.5767 6.96667 12.1133 6.86333 12.78 6.77V5.8C12.78 5.46667 12.6967 5.20333 12.53 5.01C12.37 4.81667 12.0933 4.72 11.7 4.72C11.4933 4.72 11.2967 4.76 11.11 4.84C10.9167 4.91333 10.7667 5.02333 10.66 5.17C10.5467 5.31 10.4967 5.47 10.51 5.65C10.5167 5.70333 10.4533 5.76 10.32 5.82C10.1933 5.88 10.04 5.93333 9.86 5.98C9.68 6.02667 9.53667 6.05 9.43 6.05C9.39 6.05 9.36333 6.04667 9.35 6.04L9.26 5.77C9.39333 5.47667 9.62333 5.19667 9.95 4.93C10.2767 4.65667 10.6433 4.44 11.05 4.28C11.4633 4.12 11.86 4.04 12.24 4.04C12.7333 4.04 13.1167 4.17 13.39 4.43C13.6633 4.69 13.8 5.05667 13.8 5.53V9.38C13.8 9.74 13.8933 9.92 14.08 9.92C14.2267 9.92 14.45 9.85667 14.75 9.73L14.85 10.04C14.4767 10.3 14.16 10.4933 13.9 10.62C13.6467 10.7467 13.4533 10.81 13.32 10.81ZM12.78 9.05V7.28C12.2933 7.35333 11.9067 7.43 11.62 7.51C11.3333 7.59 11.1167 7.67333 10.97 7.76C10.8233 7.84667 10.6933 7.94667 10.58 8.06C10.32 8.33333 10.19 8.65667 10.19 9.03C10.19 9.25667 10.23 9.43333 10.31 9.56C10.3967 9.69333 10.4967 9.78667 10.61 9.84C10.7167 9.89333 10.8233 9.92 10.93 9.92C11.49 9.92 12.1067 9.63 12.78 9.05ZM20.95 5L19.02 10.2C18.9067 10.4867 18.6 10.69 18.1 10.81L15.84 5C15.8 4.88 15.7233 4.78667 15.61 4.72C15.4967 4.65333 15.32 4.59333 15.08 4.54V4.24H17.72V4.54C17.42 4.58 17.21 4.62 17.09 4.66C16.97 4.70667 16.91 4.77333 16.91 4.86C16.91 4.89333 16.9233 4.94 16.95 5L18.63 9.38L20.21 5C20.23 4.95333 20.24 4.90667 20.24 4.86C20.24 4.77333 20.1867 4.71 20.08 4.67C19.9733 4.62333 19.78 4.58 19.5 4.54V4.24H21.71V4.54C21.5167 4.58 21.3733 4.62 21.28 4.66C21.1867 4.69333 21.1167 4.73667 21.07 4.79C21.0233 4.83667 20.9833 4.90667 20.95 5ZM23.72 2.92C23.34 2.92 23.15 2.7 23.15 2.26C23.15 2.09333 23.1833 1.93667 23.25 1.79C23.3233 1.65 23.42 1.53667 23.54 1.45C23.66 1.37 23.79 1.33 23.93 1.33C24.3167 1.33 24.51 1.54667 24.51 1.98C24.51 2.24 24.4367 2.46 24.29 2.64C24.1367 2.82667 23.9467 2.92 23.72 2.92ZM22.33 10.6V10.31C22.6233 10.25 22.8567 10.18 23.03 10.1C23.1967 10.02 23.28 9.95 23.28 9.89V6.02C23.28 5.66 23.2667 5.41333 23.24 5.28C23.2133 5.14667 23.1367 5.05 23.01 4.99C22.8833 4.93667 22.6567 4.89333 22.33 4.86V4.58C22.6233 4.52667 22.9333 4.45 23.26 4.35C23.58 4.25 23.8533 4.14667 24.08 4.04H24.31V9.89C24.31 9.95 24.3933 10.02 24.56 10.1C24.7267 10.18 24.9633 10.25 25.27 10.31V10.6H22.33ZM31.31 10.81C31.1567 10.81 31.0333 10.7 30.94 10.48C30.8467 10.2667 30.7833 9.92 30.75 9.44C30.37 9.90667 30.0067 10.25 29.66 10.47C29.32 10.6967 28.93 10.81 28.49 10.81C28.1367 10.81 27.7833 10.6767 27.43 10.41C27.07 10.1433 26.7733 9.76333 26.54 9.27C26.3067 8.77667 26.19 8.20667 26.19 7.56C26.19 7.02667 26.33 6.48667 26.61 5.94C26.8833 5.39333 27.2667 4.94 27.76 4.58C28.2533 4.22 28.8033 4.04 29.41 4.04C29.65 4.04 29.8733 4.07 30.08 4.13C30.2867 4.19 30.5067 4.30333 30.74 4.47V1.89C30.74 1.52333 30.72 1.27 30.68 1.13C30.6467 0.983333 30.5667 0.883333 30.44 0.83C30.3133 0.776667 30.08 0.74 29.74 0.72V0.45C30.0667 0.41 30.3567 0.353333 30.61 0.28C30.87 0.213333 31.1833 0.12 31.55 0L31.76 0.21V8.86C31.76 9.16667 31.7733 9.39667 31.8 9.55C31.8267 9.69667 31.8667 9.80667 31.92 9.88C31.9467 9.91333 31.9933 9.93 32.06 9.93C32.1733 9.93 32.4 9.86333 32.74 9.73L32.83 10.03C32.41 10.31 32.0833 10.51 31.85 10.63C31.6167 10.75 31.4367 10.81 31.31 10.81ZM30.74 5.61C30.5867 5.35 30.3733 5.14667 30.1 5C29.8267 4.86 29.5267 4.79 29.2 4.79C28.8067 4.79 28.46 4.88667 28.16 5.08C27.86 5.26667 27.6267 5.55333 27.46 5.94C27.3 6.32667 27.22 6.79667 27.22 7.35C27.22 7.83667 27.31 8.27667 27.49 8.67C27.67 9.06333 27.8967 9.37 28.17 9.59C28.4433 9.81 28.71 9.92 28.97 9.92C29.17 9.92 29.3667 9.87 29.56 9.77C29.7533 9.67 29.9367 9.54333 30.11 9.39C30.2833 9.24333 30.4933 9.05333 30.74 8.82V5.61ZM41.97 10.6H36.14V10.31C36.44 10.25 36.68 10.18 36.86 10.1C37.04 10.02 37.13 9.95 37.13 9.89V2.7C37.13 2.64667 37.04 2.57667 36.86 2.49C36.6867 2.41 36.4467 2.34 36.14 2.28V1.99H39.21V2.28C38.9033 2.34667 38.6633 2.41667 38.49 2.49C38.31 2.57 38.22 2.64 38.22 2.7V9.48C38.22 9.65333 38.3133 9.78 38.5 9.86C38.6867 9.94 39.0167 9.98 39.49 9.98H40.47C40.7767 9.98 41.01 9.95667 41.17 9.91C41.33 9.85667 41.4667 9.75 41.58 9.59C41.7 9.43 41.8233 9.17 41.95 8.81L42.25 8.93C42.1967 9.51 42.1033 10.0667 41.97 10.6ZM44.33 2.92C43.95 2.92 43.76 2.7 43.76 2.26C43.76 2.09333 43.7933 1.93667 43.86 1.79C43.9333 1.65 44.03 1.53667 44.15 1.45C44.27 1.37 44.4 1.33 44.54 1.33C44.9333 1.33 45.13 1.54667 45.13 1.98C45.13 2.24 45.0533 2.46 44.9 2.64C44.7467 2.82667 44.5567 2.92 44.33 2.92ZM42.94 10.6V10.31C43.2333 10.25 43.4667 10.18 43.64 10.1C43.8067 10.02 43.89 9.95 43.89 9.89V6.02C43.89 5.66 43.8767 5.41333 43.85 5.28C43.8233 5.14667 43.7467 5.05 43.62 4.99C43.4933 4.93667 43.2667 4.89333 42.94 4.86V4.58C43.2333 4.52667 43.5433 4.45 43.87 4.35C44.19 4.25 44.4633 4.14667 44.69 4.04H44.92V9.89C44.92 9.95 45.0033 10.02 45.17 10.1C45.3367 10.18 45.5733 10.25 45.88 10.31V10.6H42.94ZM49.46 10.81C49.2733 10.81 48.97 10.73 48.55 10.57C48.1233 10.41 47.6767 10.2 47.21 9.94V1.74C47.21 1.46 47.19 1.26333 47.15 1.15C47.1033 1.03667 47.0267 0.963333 46.92 0.93C46.82 0.896666 46.62 0.86 46.32 0.82V0.55C46.7267 0.456666 47.0467 0.373333 47.28 0.3C47.5133 0.226666 47.7467 0.126667 47.98 0C48.0267 0.0466667 48.0767 0.0933332 48.13 0.14C48.1833 0.186667 48.22 0.22 48.24 0.24V5.63C48.5267 5.28333 48.8167 4.99 49.11 4.75C49.41 4.51 49.69 4.33333 49.95 4.22C50.2033 4.1 50.4233 4.04 50.61 4.04C51.0233 4.04 51.3933 4.16667 51.72 4.42C52.04 4.68 52.29 5.05 52.47 5.53C52.6567 6.01667 52.75 6.58667 52.75 7.24C52.75 7.78667 52.61 8.33667 52.33 8.89C52.0567 9.44333 51.67 9.9 51.17 10.26C50.67 10.6267 50.1 10.81 49.46 10.81ZM50.13 4.96C50.0033 4.96 49.8367 5.00667 49.63 5.1C49.43 5.2 49.2067 5.36 48.96 5.58C48.7133 5.79333 48.4733 6.07667 48.24 6.43V9.21C48.5533 9.45 48.8933 9.63 49.26 9.75C49.62 9.86333 49.91 9.92 50.13 9.92C50.4833 9.92 50.79 9.82 51.05 9.62C51.3033 9.42 51.4967 9.16 51.63 8.84C51.7567 8.51333 51.82 8.17 51.82 7.81C51.82 7.23 51.7433 6.72333 51.59 6.29C51.43 5.85667 51.2233 5.52667 50.97 5.3C50.71 5.07333 50.43 4.96 50.13 4.96ZM58.33 5.98H58.04C57.9867 5.63333 57.8933 5.38333 57.76 5.23C57.6267 5.07 57.4667 4.99 57.28 4.99C57.1333 4.99 56.9667 5.07333 56.78 5.24C56.5867 5.4 56.3967 5.64667 56.21 5.98C56.0233 6.31333 55.86 6.72333 55.72 7.21V9.89C55.72 9.96333 55.8133 10.0367 56 10.11C56.18 10.1833 56.4733 10.25 56.88 10.31V10.6H53.74V10.31C54.06 10.2367 54.3 10.1667 54.46 10.1C54.62 10.0333 54.7 9.96333 54.7 9.89V5.91C54.7 5.63667 54.6833 5.43667 54.65 5.31C54.6233 5.18333 54.5867 5.09333 54.54 5.04C54.48 4.98 54.3967 4.94 54.29 4.92C54.1767 4.89333 53.9933 4.87333 53.74 4.86V4.58C54.1667 4.47333 54.4967 4.38333 54.73 4.31C54.97 4.23667 55.1867 4.14667 55.38 4.04L55.62 4.28L55.71 5.83C55.97 5.28333 56.2667 4.84667 56.6 4.52C56.9267 4.2 57.2767 4.04 57.65 4.04C58.0033 4.04 58.33 4.12333 58.63 4.29C58.6633 4.31 58.68 4.38333 58.68 4.51C58.68 4.69 58.6433 4.93333 58.57 5.24C58.4967 5.54 58.4167 5.78667 58.33 5.98ZM64.07 7.25H60.48C60.4867 7.73 60.5733 8.17333 60.74 8.58C60.9 8.98 61.1333 9.30333 61.44 9.55C61.7467 9.79667 62.1 9.92 62.5 9.92C62.72 9.92 62.9167 9.89667 63.09 9.85C63.2633 9.81 63.4667 9.72333 63.7 9.59C63.9267 9.45667 64.2033 9.25667 64.53 8.99C64.6167 9.03667 64.7033 9.13 64.79 9.27C64.3833 9.71 64.04 10.0367 63.76 10.25C63.4733 10.47 63.2067 10.6167 62.96 10.69C62.7133 10.77 62.4233 10.81 62.09 10.81C61.6167 10.81 61.18 10.6767 60.78 10.41C60.3733 10.1433 60.05 9.77 59.81 9.29C59.57 8.81 59.45 8.25667 59.45 7.63C59.45 7.01 59.5867 6.42667 59.86 5.88C60.1267 5.33333 60.4933 4.9 60.96 4.58C61.18 4.42667 61.43 4.29667 61.71 4.19C61.9967 4.09 62.2567 4.04 62.49 4.04C63.0433 4.04 63.4967 4.18 63.85 4.46C64.2033 4.74667 64.4533 5.09667 64.6 5.51C64.7533 5.93 64.83 6.35667 64.83 6.79C64.6833 6.95667 64.43 7.11 64.07 7.25ZM60.52 6.64H63.45C63.55 6.64 63.6167 6.62 63.65 6.58C63.69 6.54667 63.71 6.48333 63.71 6.39C63.71 6.17667 63.67 5.94667 63.59 5.7C63.51 5.44667 63.3667 5.22667 63.16 5.04C62.9467 4.85333 62.66 4.76 62.3 4.76C61.9867 4.76 61.7067 4.83667 61.46 4.99C61.2133 5.15 61.0067 5.37 60.84 5.65C60.68 5.93667 60.5733 6.26667 60.52 6.64Z" fill="black"/>
</svg>
