<svg width="131.38" height="20.272" viewBox="0 0 131.38 20.272" xmlns="http://www.w3.org/2000/svg"><path transform="translate(0 16.24) scale(.014 -.014)" d="m853 368q0-111-50-194t-150-128.5-246-45.5q-89 0-181 0t-186 1q8 197 8 367 0 172-8 359 119 10 320 10 188 0 297-45.5t152.5-126 43.5-197.5zm-418-169q93 0 124 45t31 124q0 76-32.5 123t-122.5 47q-97 0-145-6v-333z"/><path transform="translate(12.502 16.24) scale(.014 -.014)" d="m569 250h-326q8-44 39.5-71.5t89.5-27.5q42 0 79 16.5t59 46.5q67-33 178-71-31-70-112.5-111.5t-212.5-41.5q-170 0-251.5 78.5t-81.5 206.5q0 125 81 203t252 78q102 0 177-34t115-94.5 40-138.5q0-26-2-39zm-319 84h236q-12 32-39 51.5t-70 19.5q-50 0-82-19t-45-52z"/><path transform="translate(22.652 16.24) scale(.014 -.014)" d="m274 216q0-149 2-216h-236l1 113q2 186 2 287 0 96-2 272l-1 108h236q-2-142-2-232 0-100 1-148-1-60-1-184z"/><path transform="translate(27.076 16.24) scale(.014 -.014)" d="m681 166q0-34 8-48t32-20l-4-94q-32-5-55.5-7t-62.5-2q-86 0-114 38.5t-28 98.5v25q-29-82-84.5-122t-141.5-40q-100 0-150.5 40t-50.5 119q0 65 43 102t133 51q-76 54-152 94 60 76 137 115.5t187 39.5q154 0 228.5-66.5t74.5-204.5zm-442 146q60 7 150 7 37 0 52 9t15 23q0 12-15 20.5t-42 8.5q-51 0-90-17t-70-51zm218-76v26q-24-12-53-18.5t-70-12.5l-36-6q-56-11-56-38 0-29 52-29 56 0 101 21.5t62 56.5z"/><path transform="translate(40.25 16.24) scale(.014 -.014)" d="m452 414h427v-414h-176l-21 177q-30-95-107-141t-188-46q-101 0-179.5 45t-123 129-44.5 196q0 179 107 283t333 104q129 0 227.5-42t167.5-130q-45-23-176-92l-25-14q-39 39-91 58.5t-110 19.5q-96 0-143-50.5t-47-124.5q0-80 50.5-129t154.5-49q45 0 87.5 13t71.5 45h-195z"/><path transform="translate(53.116 16.24) scale(.014 -.014)" d="m30 275q0 125 80.5 203t251.5 78q115 0 192.5-37.5t114.5-101 37-142.5q0-129-85.5-207t-258.5-78q-171 0-251.5 78.5t-80.5 206.5zm465-1q0 49-32 80.5t-97 31.5-95-31-30-81q0-52 30-83t95-31 97 31 32 83z"/><path transform="translate(63.42 16.24) scale(.014 -.014)" d="m493 367q-92 6-168 9l-1-106q0-54 23.5-84.5t83.5-30.5q23 0 44 4-4-37-4-75 0-18 2-82-44-8-74-10t-78-2q-117 0-165.5 56.5t-48.5 157.5l1 169q-47-2-98-6v177q52 0 88 33t43 79h272q-51-70-113-112h193z"/><path transform="translate(70.602 16.24) scale(.014 -.014)" d="m430 0q6 147 6 271 0 44-21.5 70t-54.5 26q-35 0-59.5-34t-24.5-93l-1 2q0-163 4-242h-239q8 144 8 390t-8 390h238l1-308-1-53q24 70 71.5 103.5t107.5 33.5 104-26.5 66.5-71.5 22.5-101v-144q0-133 5-213z"/><path transform="translate(80.332 16.24) scale(.014 -.014)" d="m50 717q0 49 30.5 81t93.5 32q60 0 92-32.5t32-80.5q0-50-31-81t-93-31q-63 0-93.5 31t-30.5 81zm8-717q7 161 7 266 0 125-8 280h240q-8-149-8-280 0-110 7-266z"/><path transform="translate(85.204 16.24) scale(.014 -.014)" d="m366 160q33 0 59 12.5t48 37.5q85-33 199-57-33-77-111.5-120t-203.5-43q-167 0-247 78t-80 205 80 205 247 78q125 0 203.5-43t111.5-120q-89-19-199-57-22 25-48 37.5t-59 12.5q-60 0-90.5-31t-32.5-82q2-51 32.5-82t90.5-31z"/><path transform="translate(97.902 16.24) scale(.014 -.014)" d="m40 369q0 178 107.5 278t337.5 100q231 0 338.5-100t107.5-278q0-181-107-280t-339-99q-229 0-337 99.5t-108 279.5zm654 0q0 88-49 131t-160 43q-110 0-159-43t-49-131q0-89 49-132t159-43q111 0 160 42.5t49 132.5z"/><path transform="translate(111.5 16.24) scale(.014 -.014)" d="m430 0q6 147 6 271 0 44-21.5 70t-54.5 26-56-29.5-27-80.5q-2-76-2-108 0-68 4-149h-239q8 144 8 272t-8 274q66-3 101-3 37 0 101 3l29-147q23 80 72 118.5t114 38.5q60 0 104-26.5t66.5-71.5 22.5-101v-144q0-133 5-213z"/><path transform="translate(121.23 16.24) scale(.014 -.014)" d="m569 250h-326q8-44 39.5-71.5t89.5-27.5q42 0 79 16.5t59 46.5q67-33 178-71-31-70-112.5-111.5t-212.5-41.5q-170 0-251.5 78.5t-81.5 206.5q0 125 81 203t252 78q102 0 177-34t115-94.5 40-138.5q0-26-2-39zm-319 84h236q-12 32-39 51.5t-70 19.5q-50 0-82-19t-45-52z"/></svg>