<svg width="56" height="12" viewBox="0 0 56 12" fill="none" xmlns="http://www.w3.org/2000/svg">
<path d="M3.77 11.79H1.56C1.22667 11.7833 1.01667 11.7533 0.93 11.7C0.85 11.64 0.806667 11.5167 0.8 11.33L0.5 0.8C0.5 0.646667 0.526667 0.53 0.58 0.45C0.64 0.37 0.756667 0.313333 0.93 0.28C1.10333 0.253333 1.37 0.24 1.73 0.24H3.74C4.96667 0.24 5.85 0.446667 6.39 0.86C6.92333 1.27333 7.18 1.87667 7.16 2.67L6.96 9.58C6.94 10.26 6.67667 10.8 6.17 11.2C5.66333 11.5933 4.86333 11.79 3.77 11.79ZM3.87 1.42H2.97L2.71 10.68H3.83C4.26333 10.68 4.56333 10.6067 4.73 10.46C4.89 10.3133 4.96333 10.0467 4.95 9.66L4.76 2.34C4.74667 1.94667 4.66667 1.69333 4.52 1.58C4.38 1.47333 4.16333 1.42 3.87 1.42ZM11.68 11.87C11.22 11.87 10.7833 11.81 10.37 11.69C9.95 11.57 9.60333 11.3667 9.33 11.08C9.06333 10.7933 8.92 10.4 8.9 9.9L8.74 5.57C8.72 5.08333 8.85667 4.68667 9.15 4.38C9.43667 4.07333 9.81 3.85 10.27 3.71C10.73 3.56333 11.2133 3.49 11.72 3.49C12.2 3.49 12.66 3.56333 13.1 3.71C13.5467 3.85 13.9067 4.07333 14.18 4.38C14.4533 4.68667 14.5767 5.08333 14.55 5.57L14.45 8.09C14.4433 8.25667 14.3833 8.36333 14.27 8.41C14.15 8.45667 13.8867 8.48 13.48 8.48H10.82L10.77 9.96C10.7633 10.3067 10.84 10.5467 11 10.68C11.16 10.82 11.3833 10.89 11.67 10.89C11.97 10.89 12.1867 10.8267 12.32 10.7C12.4533 10.5667 12.52 10.34 12.52 10.02V9.81C12.52 9.63667 12.5767 9.52 12.69 9.46C12.8033 9.39333 13.0633 9.36 13.47 9.36C13.87 9.36 14.1233 9.39 14.23 9.45C14.3433 9.51 14.4 9.62667 14.4 9.8V10.1C14.4 10.58 14.2667 10.9467 14 11.2C13.74 11.4533 13.4033 11.63 12.99 11.73C12.57 11.8233 12.1333 11.87 11.68 11.87ZM10.91 5.45L10.85 7.46H12.52L12.45 5.45C12.4367 5.06333 12.3633 4.81667 12.23 4.71C12.09 4.61 11.92 4.56 11.72 4.56C11.4933 4.56 11.3033 4.61 11.15 4.71C10.9967 4.81667 10.9167 5.06333 10.91 5.45ZM17.18 11.79C16.7933 11.79 16.55 11.7667 16.45 11.72C16.35 11.6733 16.2967 11.5667 16.29 11.4L16.07 4.07C16.0633 3.87667 16.12 3.74667 16.24 3.68C16.3533 3.60667 16.6433 3.57 17.11 3.57C17.5767 3.57 17.8667 3.60667 17.98 3.68C18.0933 3.74667 18.15 3.87667 18.15 4.07L18.14 4.49C18.3933 4.19667 18.6667 3.95667 18.96 3.77C19.2533 3.58333 19.6033 3.49 20.01 3.49C20.57 3.49 21.0367 3.68667 21.41 4.08C21.7767 4.47333 21.95 5.01667 21.93 5.71L21.76 11.4C21.76 11.5667 21.7067 11.6733 21.6 11.72C21.4933 11.7667 21.25 11.79 20.87 11.79C20.4833 11.79 20.24 11.7667 20.14 11.72C20.04 11.6733 19.9867 11.5667 19.98 11.4L19.82 5.9C19.8133 5.54 19.7367 5.3 19.59 5.18C19.45 5.06 19.2667 5 19.04 5C18.8733 5 18.7233 5.04667 18.59 5.14C18.4567 5.23333 18.34 5.34667 18.24 5.48L18.07 11.4C18.07 11.5667 18.0167 11.6733 17.91 11.72C17.8033 11.7667 17.56 11.79 17.18 11.79ZM24.7 11.79C24.3133 11.79 24.07 11.7667 23.97 11.72C23.87 11.6733 23.8167 11.5667 23.81 11.4L23.59 0.5C23.59 0.373333 23.6133 0.273333 23.66 0.2C23.7067 0.126666 23.81 0.0766669 23.97 0.0500002C24.1233 0.0166669 24.3667 0 24.7 0C25.0333 0 25.2767 0.0166669 25.43 0.0500002C25.59 0.0766669 25.6933 0.126666 25.74 0.2C25.7867 0.273333 25.8067 0.373333 25.8 0.5L25.59 11.4C25.59 11.5667 25.5367 11.6733 25.43 11.72C25.3233 11.7667 25.08 11.79 24.7 11.79ZM28.37 11.79C28.0167 11.79 27.79 11.7667 27.69 11.72C27.5967 11.6733 27.5133 11.5667 27.44 11.4L26.11 8.08L27.13 4.02C27.1833 3.83333 27.28 3.71333 27.42 3.66C27.56 3.6 27.8633 3.57 28.33 3.57C28.7567 3.57 29.0233 3.59 29.13 3.63C29.2367 3.66333 29.29 3.75667 29.29 3.91C29.29 3.95667 29.28 4.01333 29.26 4.08C29.2467 4.14667 29.2233 4.22333 29.19 4.31L27.94 8.08L29.09 11.2C29.1633 11.4067 29.2 11.53 29.2 11.57C29.2 11.6633 29.15 11.7233 29.05 11.75C28.9567 11.7767 28.73 11.79 28.37 11.79ZM37.12 11.87C36.3867 11.87 35.7933 11.7733 35.34 11.58C34.8867 11.38 34.5533 11.1167 34.34 10.79C34.1333 10.4633 34.0233 10.1033 34.01 9.71L33.82 2.46C33.8 1.77333 34.05 1.22 34.57 0.8C35.09 0.373334 35.94 0.16 37.12 0.16C38.3067 0.16 39.16 0.373334 39.68 0.8C40.2 1.22 40.45 1.77333 40.43 2.46L40.23 9.71C40.2233 10.1033 40.1133 10.4633 39.9 10.79C39.6933 11.1167 39.3633 11.38 38.91 11.58C38.4567 11.7733 37.86 11.87 37.12 11.87ZM37.12 10.76C37.5267 10.76 37.8167 10.69 37.99 10.55C38.1567 10.41 38.2367 10.15 38.23 9.77L38.03 2.25C38.0167 1.85 37.9367 1.59667 37.79 1.49C37.6367 1.39 37.4133 1.34 37.12 1.34C36.8333 1.34 36.6133 1.39 36.46 1.49C36.3133 1.59667 36.2333 1.85 36.22 2.25L36.02 9.77C36.0133 10.15 36.0967 10.41 36.27 10.55C36.4367 10.69 36.72 10.76 37.12 10.76ZM43.2 11.79C42.82 11.79 42.5767 11.7667 42.47 11.72C42.37 11.6733 42.3167 11.5667 42.31 11.4L42.09 4.07C42.09 3.87667 42.1467 3.74667 42.26 3.68C42.38 3.60667 42.67 3.57 43.13 3.57C43.5967 3.57 43.8867 3.60667 44 3.68C44.12 3.74667 44.1767 3.87667 44.17 4.07V4.49C44.4233 4.19667 44.6967 3.95667 44.99 3.77C45.2767 3.58333 45.6267 3.49 46.04 3.49C46.5933 3.49 47.0567 3.68667 47.43 4.08C47.8033 4.47333 47.9767 5.01667 47.95 5.71L47.79 11.4C47.7833 11.5667 47.7267 11.6733 47.62 11.72C47.52 11.7667 47.2767 11.79 46.89 11.79C46.51 11.79 46.27 11.7667 46.17 11.72C46.0633 11.6733 46.0067 11.5667 46 11.4L45.85 5.9C45.8367 5.54 45.76 5.3 45.62 5.18C45.4733 5.06 45.29 5 45.07 5C44.9033 5 44.75 5.04667 44.61 5.14C44.4767 5.23333 44.3633 5.34667 44.27 5.48L44.1 11.4C44.0933 11.5667 44.0367 11.6733 43.93 11.72C43.83 11.7667 43.5867 11.79 43.2 11.79ZM52.4 11.87C51.94 11.87 51.5 11.81 51.08 11.69C50.66 11.57 50.3167 11.3667 50.05 11.08C49.7767 10.7933 49.63 10.4 49.61 9.9L49.46 5.57C49.44 5.08333 49.5733 4.68667 49.86 4.38C50.1467 4.07333 50.52 3.85 50.98 3.71C51.44 3.56333 51.9233 3.49 52.43 3.49C52.91 3.49 53.3733 3.56333 53.82 3.71C54.26 3.85 54.6167 4.07333 54.89 4.38C55.1633 4.68667 55.29 5.08333 55.27 5.57L55.16 8.09C55.16 8.25667 55.1 8.36333 54.98 8.41C54.8667 8.45667 54.6033 8.48 54.19 8.48H51.53L51.49 9.96C51.4767 10.3067 51.55 10.5467 51.71 10.68C51.87 10.82 52.0967 10.89 52.39 10.89C52.6833 10.89 52.9 10.8267 53.04 10.7C53.1733 10.5667 53.24 10.34 53.24 10.02V9.81C53.24 9.63667 53.2933 9.52 53.4 9.46C53.5133 9.39333 53.7733 9.36 54.18 9.36C54.5867 9.36 54.8433 9.39 54.95 9.45C55.0567 9.51 55.11 9.62667 55.11 9.8V10.1C55.11 10.58 54.98 10.9467 54.72 11.2C54.4533 11.4533 54.1133 11.63 53.7 11.73C53.2867 11.8233 52.8533 11.87 52.4 11.87ZM51.62 5.45L51.56 7.46H53.24L53.17 5.45C53.1567 5.06333 53.08 4.81667 52.94 4.71C52.8067 4.61 52.6367 4.56 52.43 4.56C52.21 4.56 52.0233 4.61 51.87 4.71C51.7167 4.81667 51.6333 5.06333 51.62 5.45Z" fill="black"/>
</svg>
