<svg width="102" height="14" viewBox="0 0 102 14" fill="none" xmlns="http://www.w3.org/2000/svg">
<path d="M3.94 9.95H0.5V9.81L0.79 9.7C1.09 9.58 1.24 9.34 1.24 8.98V1.68C1.24 1.30667 1.09 1.06667 0.79 0.96L0.5 0.85V0.71H4.19C5.18333 0.71 6.03667 0.893333 6.75 1.26C7.46333 1.63333 8.01333 2.16 8.4 2.84C8.78667 3.52667 8.98 4.35333 8.98 5.32C8.98 6.3 8.77 7.13333 8.35 7.82C7.93 8.51333 7.34667 9.04 6.6 9.4C5.84667 9.76667 4.96 9.95 3.94 9.95ZM3.34 0.99V9.67H3.94C4.61333 9.67 5.15667 9.53667 5.57 9.27C5.97667 9.00333 6.27667 8.55667 6.47 7.93C6.66333 7.29667 6.76 6.43 6.76 5.33C6.76 4.23 6.66333 3.36333 6.47 2.73C6.27667 2.10333 5.98 1.65667 5.58 1.39C5.18 1.12333 4.65333 0.99 4 0.99H3.34ZM11.39 9.95H9.54V9.81L9.82 9.71C10.14 9.61 10.3 9.34333 10.3 8.91V1.75C10.3 1.56333 10.28 1.41333 10.24 1.3C10.1933 1.18667 10.0833 1.09333 9.91 1.02L9.54 0.85V0.71H12.24L14.83 7.49L17.27 0.71H20.03V0.85L19.8 0.93C19.6267 0.996666 19.5067 1.09 19.44 1.21C19.3733 1.32333 19.34 1.47333 19.34 1.66V8.98C19.34 9.16667 19.3633 9.31333 19.41 9.42C19.4567 9.52 19.57 9.60667 19.75 9.68L20.03 9.81V9.95H16.54V9.81L16.84 9.68C17.0133 9.60667 17.1233 9.52 17.17 9.42C17.2167 9.31333 17.24 9.16667 17.24 8.98V5.83L17.27 1.83L14.34 9.95H13.64L10.59 1.93L10.63 5.41V8.94C10.63 9.14667 10.6633 9.31333 10.73 9.44C10.79 9.56667 10.9067 9.65667 11.08 9.71L11.39 9.81V9.95ZM26.71 10.2C26.1967 10.2 25.6733 10.1367 25.14 10.01C24.6067 9.88333 24.1633 9.72 23.81 9.52L23.88 7.61H24.02L24.45 8.52C24.5833 8.78 24.7233 9.01333 24.87 9.22C25.0233 9.42 25.23 9.57333 25.49 9.68C25.6767 9.77333 25.8567 9.83667 26.03 9.87C26.2033 9.90333 26.3967 9.92 26.61 9.92C27.1767 9.92 27.6267 9.76667 27.96 9.46C28.2933 9.15333 28.46 8.75667 28.46 8.27C28.46 7.81 28.3467 7.45333 28.12 7.2C27.8933 6.94 27.5333 6.69 27.04 6.45L26.47 6.2C25.6633 5.84667 25.0333 5.43667 24.58 4.97C24.1333 4.51 23.91 3.89667 23.91 3.13C23.91 2.58333 24.05 2.10667 24.33 1.7C24.6167 1.3 25.0133 0.993333 25.52 0.78C26.0333 0.566666 26.63 0.46 27.31 0.46C27.8033 0.46 28.27 0.523333 28.71 0.65C29.1567 0.783333 29.5433 0.963333 29.87 1.19L29.79 2.87H29.65L29.07 1.82C28.91 1.49333 28.7533 1.26 28.6 1.12C28.44 0.986667 28.2567 0.893333 28.05 0.84C27.93 0.8 27.8167 0.773333 27.71 0.76C27.61 0.746666 27.48 0.74 27.32 0.74C26.8467 0.74 26.4467 0.876666 26.12 1.15C25.7933 1.42333 25.63 1.79333 25.63 2.26C25.63 2.74 25.7567 3.12333 26.01 3.41C26.2567 3.69 26.6233 3.94333 27.11 4.17L27.76 4.45C28.6533 4.84333 29.2967 5.26 29.69 5.7C30.0833 6.14667 30.28 6.72 30.28 7.42C30.28 8.24 29.97 8.90667 29.35 9.42C28.7233 9.94 27.8433 10.2 26.71 10.2ZM34.48 3.01C35.0867 3.01 35.6033 3.13333 36.03 3.38C36.4567 3.62667 36.7867 3.96 37.02 4.38C37.2467 4.80667 37.36 5.29 37.36 5.83C37.36 5.93667 37.3567 6.04333 37.35 6.15C37.3367 6.25667 37.3167 6.35333 37.29 6.44H33.12C33.1267 7.44667 33.3067 8.17 33.66 8.61C34.0067 9.05667 34.5267 9.28 35.22 9.28C35.6867 9.28 36.0633 9.20333 36.35 9.05C36.6433 8.90333 36.9133 8.68667 37.16 8.4L37.3 8.52C37.0133 9.03333 36.63 9.43667 36.15 9.73C35.67 10.0167 35.0933 10.16 34.42 10.16C33.76 10.16 33.1733 10.0167 32.66 9.73C32.1467 9.45 31.7433 9.04333 31.45 8.51C31.1633 7.97667 31.02 7.34 31.02 6.6C31.02 5.84 31.1867 5.19 31.52 4.65C31.86 4.11667 32.2933 3.71 32.82 3.43C33.3467 3.15 33.9 3.01 34.48 3.01ZM34.43 3.29C34.1633 3.29 33.9333 3.37 33.74 3.53C33.5467 3.69667 33.3967 3.98667 33.29 4.4C33.1833 4.81333 33.1267 5.4 33.12 6.16H35.51C35.6033 5.14 35.5667 4.40667 35.4 3.96C35.2333 3.51333 34.91 3.29 34.43 3.29ZM41.69 9.95H38.06V9.81L38.27 9.75C38.4567 9.69667 38.5867 9.61333 38.66 9.5C38.7267 9.38667 38.76 9.24333 38.76 9.07V4.69C38.76 4.48333 38.7267 4.33 38.66 4.23C38.5867 4.13 38.4567 4.06333 38.27 4.03L38.06 3.97V3.83L40.47 3.02L40.61 3.16L40.73 4.36V4.48C40.8633 4.21333 41.0367 3.97 41.25 3.75C41.4567 3.53667 41.69 3.36 41.95 3.22C42.2033 3.08 42.4567 3.01 42.71 3.01C43.0633 3.01 43.3333 3.10667 43.52 3.3C43.7067 3.49333 43.8 3.74 43.8 4.04C43.8 4.36 43.71 4.60667 43.53 4.78C43.3433 4.95333 43.1267 5.04 42.88 5.04C42.4867 5.04 42.14 4.84333 41.84 4.45L41.81 4.42C41.7167 4.28667 41.61 4.21333 41.49 4.2C41.37 4.18667 41.2567 4.24667 41.15 4.38C41.0567 4.46 40.98 4.56 40.92 4.68C40.86 4.79333 40.8033 4.92667 40.75 5.08V8.98C40.75 9.35333 40.9133 9.58667 41.24 9.68L41.69 9.81V9.95ZM45.91 2.28C45.5967 2.28 45.33 2.18 45.11 1.98C44.89 1.78 44.78 1.52333 44.78 1.21C44.78 0.896667 44.89 0.64 45.11 0.44C45.33 0.246666 45.5967 0.15 45.91 0.15C46.23 0.15 46.4967 0.246666 46.71 0.44C46.9233 0.64 47.03 0.896667 47.03 1.21C47.03 1.52333 46.9233 1.78 46.71 1.98C46.4967 2.18 46.23 2.28 45.91 2.28ZM47.54 9.95H44.26V9.81L44.46 9.75C44.6467 9.69667 44.7733 9.61333 44.84 9.5C44.9133 9.38667 44.95 9.23667 44.95 9.05V4.67C44.95 4.47667 44.9133 4.33 44.84 4.23C44.7733 4.13 44.6467 4.06333 44.46 4.03L44.26 3.99V3.85L46.82 3.02L46.96 3.16L46.92 5.15V9.07C46.92 9.25667 46.9567 9.40667 47.03 9.52C47.0967 9.62667 47.22 9.71 47.4 9.77L47.54 9.81V9.95ZM51.85 9.95H48.18V9.81L48.36 9.77C48.54 9.72333 48.68 9.64 48.78 9.52C48.8867 9.40667 48.94 9.25667 48.94 9.07C48.94 8.72333 48.9433 8.38 48.95 8.04C48.95 7.7 48.95 7.35667 48.95 7.01V3.5H48.17V3.34L48.48 3.29C48.6667 3.27 48.8 3.20333 48.88 3.09C48.9667 2.97667 49.0267 2.82333 49.06 2.63C49.1533 2.26333 49.2933 1.94333 49.48 1.67C49.66 1.39667 49.8667 1.14333 50.1 0.91C50.4533 0.57 50.83 0.333333 51.23 0.2C51.6233 0.0666665 52.0133 0 52.4 0C52.7733 0 53.1133 0.0766667 53.42 0.23C53.7267 0.383333 53.88 0.636666 53.88 0.99C53.88 1.24333 53.8067 1.44 53.66 1.58C53.5067 1.72667 53.2967 1.8 53.03 1.8C52.8033 1.8 52.5967 1.74 52.41 1.62C52.2233 1.5 52.04 1.28667 51.86 0.98L51.67 0.74C51.5633 0.606666 51.46 0.543333 51.36 0.55C51.26 0.556666 51.1867 0.633333 51.14 0.78C51.0733 1.10667 51.0233 1.49 50.99 1.93C50.9567 2.37 50.94 2.8 50.94 3.22H52.51V3.5H50.94V9.04C50.94 9.39333 51.1267 9.62333 51.5 9.73L51.85 9.81V9.95ZM59.48 9.95H56.04V9.81L56.33 9.7C56.63 9.58 56.78 9.34 56.78 8.98V1.68C56.78 1.30667 56.63 1.06667 56.33 0.96L56.04 0.85V0.71H59.73C60.7233 0.71 61.5767 0.893333 62.29 1.26C63.0033 1.63333 63.5533 2.16 63.94 2.84C64.3267 3.52667 64.52 4.35333 64.52 5.32C64.52 6.3 64.31 7.13333 63.89 7.82C63.47 8.51333 62.8833 9.04 62.13 9.4C61.3833 9.76667 60.5 9.95 59.48 9.95ZM58.88 0.99V9.67H59.48C60.1533 9.67 60.6933 9.53667 61.1 9.27C61.5133 9.00333 61.8167 8.55667 62.01 7.93C62.1967 7.29667 62.29 6.43 62.29 5.33C62.29 4.23 62.1967 3.36333 62.01 2.73C61.8167 2.10333 61.52 1.65667 61.12 1.39C60.72 1.12333 60.1933 0.99 59.54 0.99H58.88ZM66.76 2.28C66.44 2.28 66.1733 2.18 65.96 1.98C65.74 1.78 65.63 1.52333 65.63 1.21C65.63 0.896667 65.74 0.64 65.96 0.44C66.1733 0.246666 66.44 0.15 66.76 0.15C67.08 0.15 67.3467 0.246666 67.56 0.44C67.7733 0.64 67.88 0.896667 67.88 1.21C67.88 1.52333 67.7733 1.78 67.56 1.98C67.3467 2.18 67.08 2.28 66.76 2.28ZM68.38 9.95H65.11V9.81L65.3 9.75C65.4867 9.69667 65.6167 9.61333 65.69 9.5C65.7567 9.38667 65.79 9.23667 65.79 9.05V4.67C65.79 4.47667 65.7567 4.33 65.69 4.23C65.6167 4.13 65.4867 4.06333 65.3 4.03L65.11 3.99V3.85L67.67 3.02L67.81 3.16L67.77 5.15V9.07C67.77 9.25667 67.8033 9.40667 67.87 9.52C67.9433 9.62667 68.0667 9.71 68.24 9.77L68.38 9.81V9.95ZM71.42 10.16C70.9667 10.16 70.5567 10.1067 70.19 10C69.8233 9.89333 69.4867 9.76 69.18 9.6L69.2 7.93H69.34L69.81 8.77C70.0167 9.14333 70.2433 9.42333 70.49 9.61C70.7367 9.79 71.0533 9.88 71.44 9.88C71.8867 9.88 72.2467 9.78 72.52 9.58C72.7933 9.38 72.93 9.11 72.93 8.77C72.93 8.46333 72.8333 8.21333 72.64 8.02C72.4467 7.82 72.0833 7.64333 71.55 7.49L70.96 7.3C70.3933 7.13333 69.9467 6.87333 69.62 6.52C69.2933 6.16667 69.13 5.73333 69.13 5.22C69.13 4.6 69.37 4.07667 69.85 3.65C70.3367 3.22333 71.0333 3.01 71.94 3.01C72.3067 3.01 72.65 3.05 72.97 3.13C73.29 3.20333 73.6 3.32 73.9 3.48L73.82 4.99H73.68L73.19 4.13C73.01 3.81667 72.8333 3.59667 72.66 3.47C72.4867 3.35 72.2267 3.29 71.88 3.29C71.5667 3.29 71.27 3.37667 70.99 3.55C70.71 3.73 70.57 3.98333 70.57 4.31C70.57 4.62333 70.6867 4.87333 70.92 5.06C71.16 5.24667 71.5133 5.42 71.98 5.58L72.61 5.76C73.2833 5.96667 73.7633 6.25 74.05 6.61C74.3433 6.97 74.49 7.40333 74.49 7.91C74.49 8.59 74.22 9.13333 73.68 9.54C73.1467 9.95333 72.3933 10.16 71.42 10.16ZM78.51 13.17H75.1V13.03L75.27 12.97C75.6167 12.8767 75.79 12.6533 75.79 12.3V4.69C75.79 4.48333 75.7567 4.32667 75.69 4.22C75.6167 4.12 75.4867 4.05 75.3 4.01L75.1 3.97V3.83L77.48 3.02L77.62 3.16L77.75 3.59C78.0567 3.40333 78.4 3.26 78.78 3.16C79.16 3.06 79.55 3.01 79.95 3.01C80.75 3.01 81.3867 3.31333 81.86 3.92C82.3333 4.53333 82.57 5.41 82.57 6.55C82.57 7.67 82.31 8.55 81.79 9.19C81.27 9.83667 80.54 10.16 79.6 10.16C78.86 10.16 78.24 10.0533 77.74 9.84V12.26C77.74 12.6333 77.9067 12.8667 78.24 12.96L78.51 13.03V13.17ZM78.93 9.75C79.3967 9.75 79.7667 9.51 80.04 9.03C80.3133 8.54333 80.45 7.73333 80.45 6.6C80.45 5.47333 80.32 4.68333 80.06 4.23C79.8 3.77667 79.4233 3.55 78.93 3.55C78.5833 3.55 78.2 3.66333 77.78 3.89V9.53C78.1333 9.67667 78.5167 9.75 78.93 9.75ZM86.58 9.95H83.24V9.81L83.41 9.75C83.7433 9.64333 83.91 9.41 83.91 9.05V1.56C83.91 1.37333 83.8733 1.23333 83.8 1.14C83.7267 1.04 83.5967 0.966666 83.41 0.92L83.22 0.88V0.74L85.79 0.14L85.95 0.26L85.9 2.22V7.01C85.9 7.35667 85.9033 7.7 85.91 8.04C85.91 8.38 85.91 8.71667 85.91 9.05C85.91 9.23667 85.9467 9.39 86.02 9.51C86.1 9.62333 86.2267 9.71 86.4 9.77L86.58 9.81V9.95ZM89.24 10.16C88.7 10.16 88.2467 10.0067 87.88 9.7C87.5133 9.39333 87.33 8.95 87.33 8.37C87.33 7.93 87.5533 7.52667 88 7.16C88.4467 6.78667 89.15 6.50667 90.11 6.32C90.2633 6.29333 90.4333 6.26333 90.62 6.23C90.8067 6.19667 91 6.16333 91.2 6.13V5.02C91.2 4.38667 91.1233 3.94 90.97 3.68C90.8167 3.42667 90.5767 3.3 90.25 3.3C90.03 3.3 89.8533 3.37333 89.72 3.52C89.5867 3.66 89.5033 3.91 89.47 4.27L89.44 4.42C89.42 4.82 89.3233 5.11333 89.15 5.3C88.97 5.48667 88.75 5.58 88.49 5.58C88.2433 5.58 88.0433 5.50667 87.89 5.36C87.73 5.20667 87.65 5.00667 87.65 4.76C87.65 4.37333 87.7833 4.05 88.05 3.79C88.3167 3.53 88.6667 3.33333 89.1 3.2C89.54 3.07333 90.0167 3.01 90.53 3.01C91.3633 3.01 92.0067 3.21 92.46 3.61C92.9133 4.01667 93.14 4.68 93.14 5.6V8.69C93.14 9.11 93.3333 9.32 93.72 9.32H94.03L94.16 9.43C93.98 9.65667 93.7867 9.83 93.58 9.95C93.3667 10.07 93.07 10.13 92.69 10.13C92.2767 10.13 91.9533 10.0333 91.72 9.84C91.48 9.65333 91.3233 9.4 91.25 9.08C90.97 9.38 90.6833 9.63333 90.39 9.84C90.09 10.0533 89.7067 10.16 89.24 10.16ZM90.1 9.31C90.2867 9.31 90.46 9.26333 90.62 9.17C90.7867 9.08333 90.98 8.94667 91.2 8.76V6.41C91.1067 6.43 91.0133 6.44667 90.92 6.46C90.8267 6.48 90.72 6.5 90.6 6.52C90.1733 6.63333 89.83 6.82333 89.57 7.09C89.3167 7.35667 89.19 7.71333 89.19 8.16C89.19 8.54 89.2767 8.82667 89.45 9.02C89.63 9.21333 89.8467 9.31 90.1 9.31ZM95.74 13.31C95.3667 13.31 95.07 13.2167 94.85 13.03C94.63 12.8433 94.52 12.6067 94.52 12.32C94.52 12.0533 94.6133 11.8433 94.8 11.69C94.9867 11.53 95.1967 11.45 95.43 11.45C95.6633 11.45 95.86 11.4967 96.02 11.59C96.18 11.69 96.32 11.8333 96.44 12.02L96.54 12.13C96.7467 12.41 96.95 12.4067 97.15 12.12C97.2367 11.98 97.3333 11.7967 97.44 11.57C97.5467 11.3367 97.67 11.03 97.81 10.65L95.1 4.15C95.0333 3.97667 94.9633 3.83667 94.89 3.73C94.81 3.62333 94.6867 3.53 94.52 3.45L94.27 3.36V3.22H97.76V3.34L97.48 3.45C97.2733 3.51667 97.1667 3.62333 97.16 3.77C97.1533 3.91667 97.19 4.09667 97.27 4.31L98.72 8.09L100.11 4.27C100.183 4.05 100.21 3.87 100.19 3.73C100.17 3.58333 100.053 3.48333 99.84 3.43L99.55 3.36V3.22H101.49V3.36L101.19 3.45C100.97 3.51667 100.82 3.61 100.74 3.73C100.653 3.85667 100.573 4.02667 100.5 4.24L98.25 10.38C97.8833 11.36 97.5167 12.0933 97.15 12.58C96.79 13.0667 96.32 13.31 95.74 13.31Z" fill="black"/>
</svg>
