<svg width="55.944" height="18.228" viewBox="0 0 55.944 18.228" xmlns="http://www.w3.org/2000/svg"><path transform="translate(0 13.888) scale(.014 -.014)" d="m75 0v700h206q123 0 203-42.5t118.5-121 38.5-188.5q0-108-38.5-186t-118.5-120-203-42zm84 70h120q102 0 162.5 33.5t86.5 96 26 148.5q0 88-26 151t-86.5 97-162.5 34h-120z"/><path transform="translate(9.632 13.888) scale(.014 -.014)" d="M75 0V700H173L421 211L668 700H767V0H683V550L452 98H389L159 548V0Z"/><path transform="translate(25.144 13.888) scale(.014 -.014)" d="m298-12q-77 0-134 28t-88 78-31 116h88q0-41 19-75.5t55.5-55 90.5-20.5q47 0 80.5 15.5t51 42.5 17.5 61q0 41-17.5 66.5t-47.5 41.5-69.5 28.5-82.5 27.5q-83 28-122 69.5t-39 108.5q0 57 26.5 100t76 67.5 117.5 24.5q67 0 116.5-25t77.5-68.5 28-100.5h-88q0 29-15 57t-45.5 46.5-76.5 18.5q-38 1-67.5-12.5t-46-38.5-16.5-61q0-34 14.5-55t42-35.5 64.5-26.5 82-27q51-17 90.5-41.5t62-62.5 22.5-97q0-50-26.5-94.5t-78.5-72.5-131-28z"/><path transform="translate(33.264 13.888) scale(.014 -.014)" d="m234-12q-61 0-102 21.5t-61 57-20 77.5q0 51 26.5 86.5t75 54 114.5 18.5h133q0 47-14.5 78.5t-42 47.5-68.5 16q-48 0-83-24t-43-71h-86q6 54 36.5 90.5t77.5 56 98 19.5q70 0 116.5-25.5t69.5-71 23-107.5v-312h-75l-5 89q-10-21-25.5-39.5t-36-32-47.5-21.5-61-8zm13 71q35 0 63.5 14.5t48.5 40 30.5 56.5 10.5 65v3h-126q-49 0-79-11.5t-43-32-13-46.5q0-27 12.5-47t37-31 58.5-11z"/><path transform="translate(40.88 13.888) scale(.014 -.014)" d="m70 0v504h76l4-88q24 47 68.5 73.5t101.5 26.5q59 0 102-23.5t67-71 24-120.5v-301h-84v292q0 76-33.5 114t-94.5 38q-42 0-75-20.5t-52.5-59-19.5-95.5v-269z"/><path transform="translate(48.916 13.888) scale(.014 -.014)" d="m260-12q-62 0-109 21t-74.5 58.5-33.5 88.5h86q5-26 21-48t43.5-35.5 67.5-13.5q35 0 58 10.5t34.5 28.5 11.5 39q0 31-14.5 47t-42.5 25.5-68 16.5q-33 6-65 16t-57 26.5-39.5 40.5-14.5 59q0 43 22.5 76.5t63.5 52.5 96 19q81 0 131-39t59-113h-83q-5 38-32.5 59.5t-75.5 21.5q-47 0-71.5-19t-24.5-50q0-20 13.5-35.5t40.5-26.5 65-18q50-9 91-24t66.5-44.5 25.5-83.5q0-47-23.5-82t-66.5-54.5-101-19.5z"/></svg>