<svg width="101.49" height="19.194" viewBox="0 0 101.49 19.194" xmlns="http://www.w3.org/2000/svg"><path transform="translate(0 14.504) scale(.014 -.014)" d="m22 0v10l21 8q32 13 32 51v522q0 40-32 51l-21 8v10h264q106 0 182.5-39.5t118-113 41.5-176.5q0-105-45-179t-125.5-113-189.5-39zm203 20h43q72 0 116 28.5t64.5 96 20.5 185.5-20.5 185.5-63.5 96-113 28.5h-47z"/><path transform="translate(9.072 14.504) scale(.014 -.014)" d="m20 0v10l20 7q34 11 34 57v512q0 20-4.5 32t-23.5 20l-26 12v10h193l185-484 174 484h197v-10l-16-6q-19-7-26-19.5t-7-32.5v-523q0-20 5-31t24-19l20-9v-10h-249v10l21 9q19 8 24 19t5 31v225l2 286-209-580h-50l-218 573 3-249v-252q0-22 6.5-35.5t25.5-19.5l22-7v-10z"/><path transform="translate(23.198 14.504) scale(.014 -.014)" d="m237-18q-55 0-112 13.5t-95 35.5l5 136h10l31-65q14-28 30-49.5t44-33.5q20-10 38.5-13.5t41.5-3.5q61 0 96.5 33t35.5 85q0 49-24 76.5t-77 53.5l-41 18q-86 38-134.5 87.5t-48.5 131.5q0 59 30.5 102t85 66 127.5 23q53 0 100.5-14t82.5-38l-6-120h-10l-41 75q-17 35-34 49.5t-39 20.5q-13 4-24 5.5t-28 1.5q-51 0-86-29.5t-35-79.5q0-51 27-81.5t79-54.5l46-20q96-42 138-89.5t42-122.5q0-88-66.5-143.5t-188.5-55.5z"/><path transform="translate(30.492 14.504) scale(.014 -.014)" d="m271 496q65 0 111-26.5t70.5-72 24.5-103.5q0-11-1-22.5t-4-20.5h-298q1-108 38.5-155.5t111.5-47.5q50 0 81 16t58 47l10-9q-31-55-82.5-86t-123.5-31q-71 0-126 30.5t-86 87.5-31 136q0 82 36 139.5t92.5 87.5 118.5 30zm-3-20q-29 0-49.5-17.5t-32-62-12.5-125.5h171q10 109-8 157t-69 48z"/><path transform="translate(37.59 14.504) scale(.014 -.014)" d="m20 0v10l15 4q20 6 27.5 18t7.5 31v313q0 22-7.5 32.5t-27.5 14.5l-15 4v10l172 58 10-10 9-86v-8q14 28 36.5 51.5t50 38.5 54.5 15q38 0 58-21t20-53q0-34-19.5-52.5t-46.5-18.5q-42 0-74 42l-2 2q-10 14-23 15.5t-24-12.5q-10-9-16.5-21.5t-12.5-28.5v-279q0-40 35-50l32-9v-10z"/><path transform="translate(43.764 14.504) scale(.014 -.014)" d="m140 548q-34 0-57.5 21.5t-23.5 54.5q0 34 23.5 55t57.5 21 57-21 23-55q0-33-23-54.5t-57-21.5zm-118-548v10l14 4q20 6 27.5 18t7.5 32v313q0 21-7.5 31.5t-27.5 14.5l-14 3v10l183 59 10-10-3-142v-280q0-20 7.5-32t26.5-18l10-3v-10z"/><path transform="translate(47.684 14.504) scale(.014 -.014)" d="m22 0v10l13 3q19 5 30 17.5t11 32.5q0 37 0.5 73.5t0.5 73.5v251h-56v11l22 4q20 2 29 14t13 33q10 39 29.5 68.5t44.5 54.5q38 36 80.5 50.5t83.5 14.5q40 0 73-16.5t33-54.5q0-27-16-42.5t-45-15.5q-24 0-44 13t-39 46l-14 17q-11 14-22 13.5t-16-16.5q-7-35-10.5-82t-3.5-92h112v-20h-112v-396q0-38 40-49l25-6v-10z"/><path transform="translate(55.538 14.504) scale(.014 -.014)" d="m22 0v10l21 8q32 13 32 51v522q0 40-32 51l-21 8v10h264q106 0 182.5-39.5t118-113 41.5-176.5q0-105-45-179t-125.5-113-189.5-39zm203 20h43q72 0 116 28.5t64.5 96 20.5 185.5-20.5 185.5-63.5 96-113 28.5h-47z"/><path transform="translate(64.61 14.504) scale(.014 -.014)" d="m140 548q-34 0-57.5 21.5t-23.5 54.5q0 34 23.5 55t57.5 21 57-21 23-55q0-33-23-54.5t-57-21.5zm-118-548v10l14 4q20 6 27.5 18t7.5 32v313q0 21-7.5 31.5t-27.5 14.5l-14 3v10l183 59 10-10-3-142v-280q0-20 7.5-32t26.5-18l10-3v-10z"/><path transform="translate(68.53 14.504) scale(.014 -.014)" d="m193-15q-49 0-88 11.5t-72 28.5l1 119h10l34-60q22-40 48.5-59.5t67.5-19.5q48 0 77.5 21.5t29.5 57.5q0 33-21 54t-78 38l-42 13q-61 18-96 56t-35 93q0 66 52 112t149 46q39 0 73.5-8.5t66.5-25.5l-6-108h-10l-35 62q-19 33-37.5 46.5t-55.5 13.5q-34 0-64-19t-30-54q0-34 25.5-54t75.5-37l45-13q72-22 103-60.5t31-92.5q0-73-57.5-117t-161.5-44z"/><path transform="translate(74.634 14.504) scale(.014 -.014)" d="m20-230v10l12 4q37 10 37 48v544q0 22-7.5 33t-27.5 15l-14 3v10l170 58 10-10 9-31q33 20 73.5 31t83.5 11q86 0 136.5-65.5t50.5-187.5q0-120-55.5-189t-156.5-69q-79 0-133 23v-173q0-40 36-50l19-5v-10zm273 244q50 0 79.5 52t29.5 173-28 169.5-81 48.5q-37 0-82-24v-403q38-16 82-16z"/><path transform="translate(82.726 14.504) scale(.014 -.014)" d="m23 0v10l12 4q36 12 36 50v535q0 20-8 30.5t-28 15.5l-13 3v10l183 43 12-9-4-140v-342q0-37 0.5-73.5t0.5-72.5q0-20 8-32.5t27-18.5l13-3v-10z"/><path transform="translate(86.73 14.504) scale(.014 -.014)" d="m166-15q-58 0-97.5 33t-39.5 95q0 47 48 86.5t151 59.5q16 3 36 6.5t42 7.5v79q0 68-16.5 95.5t-51.5 27.5q-24 0-38-15.5t-18-53.5l-2-11q-2-43-21-63t-47-20q-26 0-43 16t-17 43q0 41 28.5 69t75.5 42 102 14q89 0 137.5-43.5t48.5-141.5v-221q0-45 42-45h22l9-8q-19-24-41.5-37t-63.5-13q-44 0-69.5 20.5t-33.5 54.5q-30-32-61.5-54.5t-81.5-22.5zm61 61q20 0 37.5 9.5t41.5 29.5v168q-10-2-20-4t-23-4q-46-12-73.5-40.5t-27.5-76.5q0-41 19-61.5t46-20.5z"/><path transform="translate(93.982 14.504) scale(.014 -.014)" d="m112-240q-40 0-63.5 20t-23.5 51q0 28 20 45t45 17 42-10.5 30-30.5l7-8q22-30 44 1 9 15 20.5 39.5t26.5 65.5l-194 464q-7 19-15 30.5t-26 19.5l-18 7v10h249v-9l-20-8q-22-7-22.5-22.5t7.5-38.5l104-270 99 273q8 23 6 38.5t-25 21.5l-21 5v10h139v-10l-22-7q-23-7-32-20t-17-36l-161-439q-39-105-78-157t-101-52z"/></svg>