<svg width="33" height="8" viewBox="0 0 33 8" fill="none" xmlns="http://www.w3.org/2000/svg">
<path d="M5.18 4.76L5.82 3.42L5.75 2.79L5.47 2.03L5.44 1.87L5.35 1.71L4.44 0.889999L4.25 0.759999L2.25 0.3H0.74L0.5 0.55V3.84V4.57V6.64L0.89 6.92L1.94 6.81L3.95 6.04L4.97 4.95L5.02 4.79L5.18 4.76ZM3.97 2.03L4.31 2.38V4.05L4.17 4.5L3.88 4.93L3.5 5.31L2.77 5.45L2.18 5.63L2.22 4.89V1.95L2.34 1.39L3.39 1.49L3.97 2.03ZM7.43 3.28C7.40333 3.44667 7.38667 3.60667 7.38 3.76C7.38 3.90667 7.38 4.04 7.38 4.16C7.38 4.38667 7.41 4.58333 7.47 4.75L7.61 4.93L9.1 5.37H9.43C9.47 5.35667 9.51333 5.34 9.56 5.32C9.60667 5.30667 9.65667 5.28 9.71 5.24L10.89 4.85C10.9567 4.82333 11.0533 4.77667 11.18 4.71C11.3067 4.64333 11.4267 4.56667 11.54 4.48C11.66 4.38667 11.76 4.28667 11.84 4.18C11.9267 4.06667 11.97 3.95 11.97 3.83C11.97 3.37667 11.8567 2.97 11.63 2.61C11.3967 2.24333 11.07 1.96333 10.65 1.77H10.62C10.5867 1.77 10.5233 1.77333 10.43 1.78C10.3367 1.79333 10.2533 1.8 10.18 1.8C10.1133 1.8 10.0533 1.79 10 1.77C9.94667 1.75 9.92 1.72 9.92 1.68L8.93 1.84C8.76333 1.88667 8.59667 1.95 8.43 2.03C8.25667 2.11667 8.1 2.21667 7.96 2.33C7.82 2.45 7.70333 2.58667 7.61 2.74C7.51667 2.89333 7.45667 3.07333 7.43 3.28ZM10.02 2.64C10.1333 2.67333 10.2567 2.70333 10.39 2.73C10.5167 2.76333 10.6367 2.80333 10.75 2.85C10.8633 2.90333 10.9633 2.97333 11.05 3.06C11.1367 3.14 11.2033 3.26333 11.25 3.43L10.89 3.97L9.39 4.27H9.2L8.83 3.95L8.9 3.11C8.96 3.08333 9.01667 3.04333 9.07 2.99C9.12333 2.93 9.18667 2.87 9.26 2.81C9.32667 2.75 9.40667 2.7 9.5 2.66C9.58667 2.61333 9.68 2.59 9.78 2.59C9.84667 2.59 9.92667 2.60667 10.02 2.64ZM16.34 3.91V3.88C16.3 3.9 16.26 3.91 16.22 3.91C16.16 3.91 16.1133 3.88333 16.08 3.83L16 3.39C15.9933 3.19667 15.99 2.94 15.99 2.62C15.99 2.30667 15.9833 1.98333 15.97 1.65C15.9633 1.31667 15.95 1.00333 15.93 0.71C15.91 0.416667 15.8767 0.196667 15.83 0.0500002C15.67 0.0500002 15.5533 0.0500002 15.48 0.0500002C15.4067 0.0500002 15.34 0.0466666 15.28 0.04C15.22 0.0333333 15.1533 0.0299997 15.08 0.0299997C15 0.0233331 14.8967 0.0133333 14.77 0C14.71 0.06 14.6633 0.0900002 14.63 0.0900002C14.59 0.0966668 14.5533 0.12 14.52 0.16V0.79C14.52 1.23667 14.5133 1.65333 14.5 2.04C14.48 2.42667 14.4667 2.80667 14.46 3.18C14.4533 3.55333 14.4433 3.93 14.43 4.31C14.4233 4.69 14.42 5.09 14.42 5.51C14.42 5.66333 14.42 5.82667 14.42 6C14.42 6.16667 14.4233 6.34333 14.43 6.53C14.41 6.56333 14.3933 6.6 14.38 6.64C14.3667 6.68 14.36 6.70667 14.36 6.72C14.3867 6.78667 14.41 6.84333 14.43 6.89C14.45 6.93 14.47 6.96667 14.49 7L14.63 7.27C14.7433 7.27 14.8767 7.27333 15.03 7.28C15.19 7.28 15.3533 7.28 15.52 7.28C15.68 7.27333 15.84 7.25667 16 7.23C16.16 7.20333 16.31 7.15 16.45 7.07C16.43 6.90333 16.4233 6.72333 16.43 6.53C16.43 6.33 16.4033 6.11333 16.35 5.88C16.3033 5.70667 16.2767 5.58667 16.27 5.52C16.2567 5.45333 16.25 5.37333 16.25 5.28C16.25 5.23333 16.2533 5.18333 16.26 5.13C16.2667 5.07 16.3 5.02333 16.36 4.99C16.68 5.22333 16.93 5.41667 17.11 5.57C17.2833 5.72333 17.4233 5.85 17.53 5.95C17.63 6.04333 17.6933 6.11333 17.72 6.16C17.7467 6.20667 17.77 6.24 17.79 6.26L17.85 6.36V6.37C17.85 6.38333 17.8633 6.41667 17.89 6.47C17.9167 6.51667 18.0067 6.61 18.16 6.75C18.24 6.82333 18.3033 6.87667 18.35 6.91C18.39 6.94333 18.4233 6.97 18.45 6.99C18.4767 7.01 18.4967 7.02333 18.51 7.03C18.5233 7.04333 18.5533 7.06333 18.6 7.09L18.86 7.21C18.9667 7.16333 19.0767 7.08 19.19 6.96C19.3033 6.83333 19.4733 6.71667 19.7 6.61C19.8067 6.56333 19.89 6.53 19.95 6.51C20.0033 6.49667 20.03 6.46 20.03 6.4C20.03 6.34667 20.0067 6.29 19.96 6.23C19.9133 6.17667 19.8567 6.12 19.79 6.06C19.73 6 19.6633 5.94 19.59 5.88C19.5233 5.82667 19.47 5.77333 19.43 5.72C19.2367 5.53333 19.0467 5.37667 18.86 5.25C18.6733 5.13 18.5 5.02 18.34 4.92C18.18 4.81333 18.0267 4.72 17.88 4.64C17.74 4.55333 17.6067 4.46333 17.48 4.37C17.64 4.25667 17.7867 4.14667 17.92 4.04C18.0467 3.93333 18.1767 3.82333 18.31 3.71C18.4433 3.59 18.5833 3.46 18.73 3.32C18.8767 3.17333 19.05 3.00667 19.25 2.82C19.2233 2.76 19.1933 2.7 19.16 2.64C19.1267 2.57333 19.0767 2.52 19.01 2.48C18.99 2.49333 18.9533 2.5 18.9 2.5C18.86 2.5 18.8167 2.49333 18.77 2.48C18.7233 2.47333 18.6733 2.45 18.62 2.41C18.4867 2.48333 18.38 2.54333 18.3 2.59C18.2133 2.63667 18.1233 2.69 18.03 2.75C17.9367 2.80333 17.8333 2.87667 17.72 2.97C17.6067 3.06333 17.4667 3.19333 17.3 3.36C17.1333 3.44 17.0233 3.50333 16.97 3.55C16.91 3.60333 16.8333 3.65 16.74 3.69C16.6933 3.72333 16.6367 3.76 16.57 3.8C16.51 3.83333 16.44 3.89 16.36 3.97C16.3467 3.95667 16.34 3.93667 16.34 3.91ZM23.52 3.11L23.2 3.22L22.44 3.57C22.2067 3.70333 22.0233 3.83667 21.89 3.97C21.7633 4.09667 21.6633 4.24 21.59 4.4C21.51 4.56 21.4567 4.73333 21.43 4.92C21.4033 5.10667 21.37 5.31667 21.33 5.55C21.3233 5.57667 21.32 5.62333 21.32 5.69C21.32 5.83667 21.3633 5.97667 21.45 6.11C21.53 6.23667 21.6367 6.34667 21.77 6.44C21.8967 6.52667 22.04 6.59667 22.2 6.65C22.3533 6.69667 22.5 6.73 22.64 6.75L23.81 6.88C23.9167 6.95333 24.0233 7 24.13 7.02C24.2367 7.04 24.34 7.05 24.44 7.05L25.06 6.85H25.98L26.14 6.98H26.35L26.5 6.65V4.19L26.49 4.15L26.39 4.12V0.719999L25.95 0.49H25.25L24.99 0.679999C24.99 0.826666 24.9733 0.96 24.94 1.08C24.9067 1.2 24.89 1.29333 24.89 1.36C24.89 1.40667 24.9133 1.43 24.96 1.43V2.06L24.75 2.69V2.79L23.92 3.11C23.92 3.13 23.89 3.14 23.83 3.14C23.7433 3.14 23.68 3.13667 23.64 3.13C23.6067 3.13 23.5667 3.12333 23.52 3.11ZM24.6 3.8H24.72V4.61L24.61 5.25V5.62H24.44C24.2667 5.64667 24.1133 5.66667 23.98 5.68C23.8467 5.69333 23.7033 5.7 23.55 5.7C23.4567 5.7 23.36 5.69667 23.26 5.69C23.16 5.67667 23.05 5.64667 22.93 5.6C22.91 5.6 22.8933 5.60333 22.88 5.61C22.8667 5.61667 22.8567 5.62 22.85 5.62C22.6767 5.62 22.5533 5.56 22.48 5.44C22.4 5.32667 22.36 5.13 22.36 4.85C22.36 4.64333 22.3867 4.49333 22.44 4.4C22.4933 4.30667 22.5767 4.23667 22.69 4.19C22.7967 4.14333 22.9167 4.11 23.05 4.09C23.1833 4.07 23.33 4.03667 23.49 3.99C23.5833 3.97667 23.6667 3.95667 23.74 3.93C23.8067 3.91 23.8833 3.89333 23.97 3.88H24.04C24.0467 3.89333 24.0633 3.9 24.09 3.9C24.1367 3.9 24.2033 3.88333 24.29 3.85C24.37 3.81667 24.4733 3.8 24.6 3.8ZM28.29 3.28C28.2633 3.44667 28.2467 3.60667 28.24 3.76C28.24 3.90667 28.24 4.04 28.24 4.16C28.24 4.38667 28.27 4.58333 28.33 4.75L28.47 4.93L29.96 5.37H30.29C30.33 5.35667 30.3733 5.34 30.42 5.32C30.4667 5.30667 30.5167 5.28 30.57 5.24L31.75 4.85C31.8167 4.82333 31.9133 4.77667 32.04 4.71C32.1667 4.64333 32.2867 4.56667 32.4 4.48C32.52 4.38667 32.62 4.28667 32.7 4.18C32.7867 4.06667 32.83 3.95 32.83 3.83C32.83 3.37667 32.7167 2.97 32.49 2.61C32.2567 2.24333 31.93 1.96333 31.51 1.77H31.48C31.4467 1.77 31.3833 1.77333 31.29 1.78C31.1967 1.79333 31.1133 1.8 31.04 1.8C30.9733 1.8 30.9133 1.79 30.86 1.77C30.8067 1.75 30.78 1.72 30.78 1.68L29.79 1.84C29.6233 1.88667 29.4567 1.95 29.29 2.03C29.1167 2.11667 28.96 2.21667 28.82 2.33C28.68 2.45 28.5633 2.58667 28.47 2.74C28.3767 2.89333 28.3167 3.07333 28.29 3.28ZM30.88 2.64C30.9933 2.67333 31.1167 2.70333 31.25 2.73C31.3767 2.76333 31.4967 2.80333 31.61 2.85C31.7233 2.90333 31.8233 2.97333 31.91 3.06C31.9967 3.14 32.0633 3.26333 32.11 3.43L31.75 3.97L30.25 4.27H30.06L29.69 3.95L29.76 3.11C29.82 3.08333 29.8767 3.04333 29.93 2.99C29.9833 2.93 30.0467 2.87 30.12 2.81C30.1867 2.75 30.2667 2.7 30.36 2.66C30.4467 2.61333 30.54 2.59 30.64 2.59C30.7067 2.59 30.7867 2.60667 30.88 2.64Z" fill="black"/>
</svg>
