<svg width="53" height="11" viewBox="0 0 53 11" fill="none" xmlns="http://www.w3.org/2000/svg">
<path d="M3.08 1.46V9.86H5.25C5.75 9.86 6.18 9.78667 6.54 9.64C6.9 9.48667 7.19667 9.25333 7.43 8.94C7.69 8.61333 7.88333 8.18333 8.01 7.65C8.13667 7.11667 8.2 6.48 8.2 5.74C8.2 4.28667 7.94333 3.20667 7.43 2.5C7.19 2.14 6.87667 1.87667 6.49 1.71C6.11 1.54333 5.65 1.46 5.11 1.46H3.08ZM0.5 1.22V0.62H5.21C6.59667 0.62 7.67667 1.01333 8.45 1.8C8.89 2.24667 9.22667 2.79667 9.46 3.45C9.69333 4.10333 9.81 4.80333 9.81 5.55C9.81 6.33 9.68667 7.06333 9.44 7.75C9.19333 8.43667 8.85 9.01333 8.41 9.48C7.63667 10.2933 6.52667 10.7 5.08 10.7H0.5V10.1L1.68 9.8V1.52L0.5 1.22ZM18.06 6.85C18.06 7.45667 17.9667 8.03333 17.78 8.58C17.6 9.12667 17.3467 9.57667 17.02 9.93C16.74 10.2367 16.3967 10.4667 15.99 10.62C15.5767 10.7667 15.11 10.84 14.59 10.84C14.0767 10.84 13.6167 10.7667 13.21 10.62C12.81 10.48 12.47 10.26 12.19 9.96C11.8767 9.61333 11.6333 9.18667 11.46 8.68C11.2867 8.16667 11.2 7.61333 11.2 7.02C11.2 6.41333 11.2867 5.83 11.46 5.27C11.64 4.71667 11.8967 4.26333 12.23 3.91C12.53 3.59 12.88 3.36 13.28 3.22C13.6733 3.07333 14.1267 3 14.64 3C15.1533 3 15.6167 3.07333 16.03 3.22C16.4367 3.36 16.78 3.58 17.06 3.88C17.3867 4.22667 17.6367 4.66 17.81 5.18C17.9767 5.69333 18.06 6.25 18.06 6.85ZM12.7 6.86C12.7 7.43333 12.7433 7.92667 12.83 8.34C12.9167 8.75333 13.04 9.09667 13.2 9.37C13.36 9.60333 13.55 9.78667 13.77 9.92C13.99 10.0467 14.2767 10.11 14.63 10.11C15.27 10.11 15.75 9.89 16.07 9.45C16.2367 9.21 16.36 8.87667 16.44 8.45C16.52 8.01667 16.56 7.52 16.56 6.96C16.56 6.4 16.5167 5.91 16.43 5.49C16.3367 5.07 16.2133 4.73 16.06 4.47C15.9067 4.23 15.7167 4.04667 15.49 3.92C15.2633 3.79333 14.97 3.73 14.61 3.73C13.9567 3.73 13.4867 3.94333 13.2 4.37C12.8667 4.89667 12.7 5.72667 12.7 6.86ZM19.21 10.13L20.28 9.86V3.98L19.21 3.71V3.14H21.22L21.53 4.54H21.59C21.8567 4.07333 22.2167 3.7 22.67 3.42C23.1233 3.14 23.6067 3 24.12 3C24.5 3 24.84 3.07333 25.14 3.22C25.44 3.36 25.66 3.54 25.8 3.76C25.9467 3.99333 26.0667 4.3 26.16 4.68C26.46 4.16 26.85 3.75 27.33 3.45C27.8033 3.15 28.31 3 28.85 3C29.2233 3 29.56 3.07333 29.86 3.22C30.16 3.36 30.39 3.55667 30.55 3.81C30.6567 3.99 30.7433 4.22 30.81 4.5C30.8767 4.78 30.9233 5.14 30.95 5.58C30.9767 6.02667 30.99 6.59 30.99 7.27V9.86L32.07 10.13V10.7H28.7V10.13L29.64 9.86V6.74C29.64 6.13333 29.6233 5.68 29.59 5.38C29.5567 5.08 29.4967 4.84667 29.41 4.68C29.2967 4.45333 29.14 4.28333 28.94 4.17C28.74 4.05 28.5067 3.99 28.24 3.99C28.0067 3.99 27.7767 4.03667 27.55 4.13C27.3233 4.22333 27.1233 4.35 26.95 4.51C26.7433 4.69667 26.59 4.91667 26.49 5.17C26.3967 5.42333 26.34 5.74 26.32 6.12V9.86L27.26 10.13V10.7H24.02V10.13L24.96 9.86V6.74C24.96 6.13333 24.9433 5.68 24.91 5.38C24.8767 5.08 24.82 4.84667 24.74 4.68C24.6267 4.45333 24.47 4.28333 24.27 4.17C24.07 4.05 23.8333 3.99 23.56 3.99C23.3267 3.99 23.0967 4.03667 22.87 4.13C22.65 4.22333 22.45 4.35 22.27 4.51C22.0633 4.69667 21.9133 4.91667 21.82 5.17C21.72 5.42333 21.66 5.74 21.64 6.12V9.86L22.58 10.13V10.7H19.21V10.13ZM33.93 9.86V3.98L32.86 3.71V3.14H35.29V9.86L36.37 10.13V10.7H32.86V10.13L33.93 9.86ZM33.74 0.89C33.74 0.616667 33.82 0.4 33.98 0.24C34.1333 0.0799998 34.3433 0 34.61 0C34.8767 0 35.09 0.0799998 35.25 0.24C35.41 0.4 35.49 0.616667 35.49 0.89C35.49 1.15 35.41 1.36 35.25 1.52C35.09 1.67333 34.8767 1.75 34.61 1.75C34.3367 1.75 34.1233 1.67333 33.97 1.52C33.8167 1.36667 33.74 1.15667 33.74 0.89ZM37.22 10.13L38.3 9.86V3.98L37.22 3.71V3.14H39.24L39.55 4.54H39.6C39.88 4.06667 40.26 3.69 40.74 3.41C41.2133 3.13667 41.72 3 42.26 3C43.04 3 43.6167 3.25333 43.99 3.76C44.1767 4.02 44.3067 4.38667 44.38 4.86C44.46 5.32667 44.5 5.96333 44.5 6.77V9.86L45.58 10.13V10.7H42.21V10.13L43.15 9.86V6.74C43.15 6.13333 43.1333 5.68 43.1 5.38C43.0667 5.08 43.0067 4.84667 42.92 4.68C42.8067 4.45333 42.6467 4.28333 42.44 4.17C42.2267 4.05 41.9767 3.99 41.69 3.99C41.15 3.99 40.6833 4.16333 40.29 4.51C39.91 4.85667 39.7 5.39333 39.66 6.12V9.86L40.6 10.13V10.7H37.22V10.13ZM52.85 7H47.96C47.96 7.68667 48.0533 8.25333 48.24 8.7C48.4267 9.12667 48.6933 9.43333 49.04 9.62C49.3867 9.80667 49.76 9.9 50.16 9.9C50.6 9.9 51 9.81 51.36 9.63C51.7267 9.45 52.0533 9.2 52.34 8.88L52.79 9.22C52.4633 9.66667 52.0667 10.0467 51.6 10.36C51.1333 10.68 50.5333 10.84 49.8 10.84C49.1533 10.84 48.5833 10.7033 48.09 10.43C47.5967 10.15 47.2167 9.74667 46.95 9.22C46.81 8.92667 46.71 8.60333 46.65 8.25C46.5833 7.89667 46.55 7.52 46.55 7.12C46.55 5.81333 46.85 4.8 47.45 4.08C48.05 3.36 48.87 3 49.91 3C50.8633 3 51.5967 3.29667 52.11 3.89C52.63 4.48333 52.89 5.30333 52.89 6.35C52.89 6.44333 52.8867 6.53 52.88 6.61C52.88 6.68333 52.87 6.81333 52.85 7ZM49.82 3.76C48.7 3.76 48.0867 4.61333 47.98 6.32H51.48V5.86C51.48 5.18667 51.3367 4.66667 51.05 4.3C50.7633 3.94 50.3533 3.76 49.82 3.76Z" fill="black"/>
</svg>
