<svg width="75.38" height="17.5" viewBox="0 0 75.38 17.5" xmlns="http://www.w3.org/2000/svg"><path transform="translate(0 14.082) scale(.0068359 -.0068359)" d="m182 1427h512q79 0 151.5-11t134.5-39 113-78 87-128 55.5-188 19.5-258q0-153-18-266.5t-52-194-83-132-111.5-81-137-40.5-159.5-11h-512zm447-1204q51 0 99 2.5t89.5 17.5 76 45.5 59 86.5 38 141.5 13.5 210.5q0 116-13 196.5t-37 133.5-57.5 82.5-75.5 44-90.5 17.5-101.5 3h-207v-981z"/><path transform="translate(9.3652 14.082) scale(.0068359 -.0068359)" d="m94 528q0 134 29 237.5t90.5 174.5 155.5 108 225 37 225.5-37 155.5-108 90-174.5 29-237.5-29-238.5-90-175.5-155.5-108-225.5-37-225 37-155.5 108-90.5 175.5-29 238.5zm500-358q79 0 128 23.5t76 69 36.5 112 9.5 153.5q0 86-9.5 152.5t-36.5 112-76 69-128 23.5q-78 0-127-23.5t-76.5-69-37-112-9.5-152.5q0-87 9.5-153.5t37-112 76.5-69 127-23.5z"/><path transform="translate(17.486 14.082) scale(.0068359 -.0068359)" d="m403-485h-237v1540h174l29-78q55 30 120 54 56 20 128.5 37t156.5 17 146-31.5 103.5-99 62-173 20.5-253.5q0-157-24.5-264t-73-172.5-119.5-94-164-28.5q-67 0-125.5 11t-102.5 25q-51 16-94 36zm0 696q29-9 65-15 31-5 73.5-9.5t95.5-4.5q65 0 107.5 12.5t67 50.5 34.5 107.5 10 182.5q0 93-7.5 157.5t-28 105-57 58.5-93.5 18q-52 0-100-7.5t-85-15.5q-44-10-82-22z"/><path transform="translate(25.812 14.082) scale(.0068359 -.0068359)" d="m403-485h-237v1540h174l29-78q55 30 120 54 56 20 128.5 37t156.5 17 146-31.5 103.5-99 62-173 20.5-253.5q0-157-24.5-264t-73-172.5-119.5-94-164-28.5q-67 0-125.5 11t-102.5 25q-51 16-94 36zm0 696q29-9 65-15 31-5 73.5-9.5t95.5-4.5q65 0 107.5 12.5t67 50.5 34.5 107.5 10 182.5q0 93-7.5 157.5t-28 105-57 58.5-93.5 18q-52 0-100-7.5t-85-15.5q-44-10-82-22z"/><path transform="translate(34.139 14.082) scale(.0068359 -.0068359)" d="m303 1234q-41 0-67.5 6t-43 21-23 41-6.5 67 6.5 67.5 23 42.5 43 22 67.5 6 67.5-6 42.5-22 22-42.5 6-67.5-6-67-22-41-42.5-21-67.5-6zm-119-179h238v-1055h-238z"/><path transform="translate(38.268 14.082) scale(.0068359 -.0068359)" d="m94 528q0 134 29 237.5t90.5 174.5 155.5 108 225 37 225.5-37 155.5-108 90-174.5 29-237.5-29-238.5-90-175.5-155.5-108-225.5-37-225 37-155.5 108-90.5 175.5-29 238.5zm500-358q79 0 128 23.5t76 69 36.5 112 9.5 153.5q0 86-9.5 152.5t-36.5 112-76 69-128 23.5q-78 0-127-23.5t-76.5-69-37-112-9.5-152.5q0-87 9.5-153.5t37-112 76.5-69 127-23.5z"/><path transform="translate(49.889 14.082) scale(.0068359 -.0068359)" d="m702-31q-92 0-171 13t-144 45.5-115.5 86.5-85.5 136.5-53 195.5-18 263q0 225 40 370t116 228.5 185 116 246 32.5q91 0 170-14t144-47 115-88.5 84.5-138.5 52.5-196.5 18-262.5-18-262-52.5-195.5-84.5-137-115-86.5-144-45.5-170-13.5zm0 221q98 0 162.5 23t102.5 81.5 53.5 159 15.5 255.5q0 156-15.5 257t-53.5 160.5-102.5 83-162.5 23.5-163-23.5-103-83-53.5-160.5-15.5-257q0-155 15.5-255.5t53.5-159 103-81.5 163-23z"/><path transform="translate(59.466 14.082) scale(.0068359 -.0068359)" d="m166 1055h174l29-78q55 30 120 54 56 20 129 37t156 17q156 0 230.5-81.5t74.5-255.5v-748h-237v719q0 41-5.5 70.5t-23.5 48-52 27.5-91 9q-60 0-109-7.5t-84-15.5q-41-10-74-22v-829h-237z"/><path transform="translate(67.963 14.082) scale(.0068359 -.0068359)" d="m94 539q0 165 43 271t114 167 162 84.5 187 23.5q121 0 200.5-33t126.5-92.5 66-142.5 19-183q0-47-3.5-97t-9.5-103h-661q1-71 15.5-119.5t48-79 89-44 138.5-13.5q70 0 131 3.5t107 8.5q54 5 98 13v-166q-51-19-111-34-51-13-119-23.5t-145-10.5q-118 0-210 29.5t-155.5 97-97 176.5-33.5 267zm699 73v38q0 60-7.5 104.5t-30.5 73.5-65 43-112 14q-75 0-122.5-17.5t-74-52-36-85.5-9.5-118z"/></svg>