<svg width="77" height="20.272" viewBox="0 0 77 20.272" xmlns="http://www.w3.org/2000/svg"><path transform="translate(0 16.24) scale(.014 -.014)" d="M28 787H349V726H410V664H472V97H410V35H349V-28H28ZM338 46V107H400V653H338V715H102V46Z"/><path transform="translate(7 16.24) scale(.014 -.014)" d="m91 97h-63v320h63v61h62v62h196v-62h61v-61h62v-320h-62v-62h-61v-63h-196v63h-62zm72 10v-61h175v61h62v299h-62v62h-175v-62h-61v-299z"/><path transform="translate(14 16.24) scale(.014 -.014)" d="M184 468H59V540H184V726H256V540H441V468H256V46H441V-28H245V35H184Z"/><path transform="translate(21 16.24) scale(.014 -.014)" d="M91 97H28V664H91V726H153V787H349V726H410V664H472V529H400V653H338V715H163V653H102V107H163V46H338V107H400V344H214V417H472V97H410V35H349V-28H153V35H91Z"/><path transform="translate(28 16.24) scale(.014 -.014)" d="m91 97h-63v320h63v61h62v62h196v-62h61v-61h62v-320h-62v-62h-61v-63h-196v63h-62zm72 10v-61h175v61h62v299h-62v62h-175v-62h-61v-299z"/><path transform="translate(35 16.24) scale(.014 -.014)" d="M184 468H59V540H184V726H256V540H441V468H256V46H441V-28H245V35H184Z"/><path transform="translate(42 16.24) scale(.014 -.014)" d="m28 726h74v-248h51v62h196v-62h61v-61h62v-445h-72v434h-62v62h-175v-62h-61v-434h-74z"/><path transform="translate(49 16.24) scale(.014 -.014)" d="m213 726h73v-135h-73zm0-186h73v-568h-73z"/><path transform="translate(56 16.24) scale(.014 -.014)" d="m91 97h-63v320h63v61h62v62h196v-62h61v-61h62v-73h-72v62h-62v62h-175v-62h-61v-299h61v-61h175v61h62v62h72v-72h-62v-62h-61v-63h-196v63h-62z"/><path transform="translate(63 16.24) scale(.014 -.014)" d="M275 715H152V787H348V-28H275Z"/><path transform="translate(70 16.24) scale(.014 -.014)" d="m91 97h-63v567h63v62h62v61h196v-61h61v-62h62v-135h-72v124h-62v62h-175v-62h-61v-236h51v61h196v-61h61v-62h62v-258h-62v-62h-61v-63h-196v63h-62zm72 10v-61h175v61h62v237h-62v62h-175v-62h-61v-237z"/></svg>