<svg width="72.365" height="17.5" viewBox="0 0 72.365 17.5" xmlns="http://www.w3.org/2000/svg"><path transform="translate(0 13.809) scale(.0068359 -.0068359)" d="m220 0v1554h482q573 0 692-455 37-144 37-323v-41q0-351-191-542-193-193-546-193zm173 157h301q271 0 417 159 141 153 141 419v41q-6 319-132 466-132 154-422 154h-305z"/><path transform="translate(10.534 13.809) scale(.0068359 -.0068359)" d="m1128 967v-500q0-405 13-467h-156l-20 162q-121-127-281-168-56-14-130.5-13t-145.5 27-120 75q-102 102-98 285v789l170 14v-743q0-158 46-226 48-70 160-71t206 41.5 193 125.5l-4 73q-3 48-3 136v650l171 14q-1-109-1-204z"/><path transform="translate(19.852 13.809) scale(.0068359 -.0068359)" d="m371 742q4-76 4-192v-550h-169q0 1061-12 1157l166 14v-281q133 281 357 281 77 0 127-12l-37-178q-48 24-107.5 24.5t-108.5-26.5-89.5-67-72.5-86z"/><path transform="translate(25.683 13.809) scale(.0068359 -.0068359)" d="m1128 967v-500q0-405 13-467h-156l-20 162q-121-127-281-168-56-14-130.5-13t-145.5 27-120 75q-102 102-98 285v789l170 14v-743q0-158 46-226 48-70 160-71t206 41.5 193 125.5l-4 73q-3 48-3 136v650l171 14q-1-109-1-204z"/><path transform="translate(39.689 13.809) scale(.0068359 -.0068359)" d="m636 1568 32 1q150 0 343-59l-32-150q-444 142-596-72-45-63-45-136.5t24.5-116 66.5-75.5q66-52 182-95t194.5-83.5 140.5-94.5q139-121 139-280 0-130-55.5-216t-127.5-131q-132-80-339-80-211 0-448 82l31 153q192-72 421-81 194-7 289 114 49 64 49 132t-26.5 112.5-71.5 81.5q-82 69-196 109t-188 76.5-133 88.5q-129 115-129 294 0 290 279 392 94 34 196 34z"/><path transform="translate(47.858 13.809) scale(.0068359 -.0068359)" d="m1061-9q-33-11-82-11t-80.5 11-54.5 31q-45 38-58 101-54-83-194-126-126-39-254 5-138 46-199 169-31 62-31 136.5t29 126 77 84.5q90 63 241 76 121 12 313 17v180q0 127-14.5 159t-34.5 48q-34 26-138 26l-38-1q-156-8-303-51l-28 148q175 51 344 51 241 0 316-91 45-55 54-135t10-148v-571q0-85 15.5-101.5t36-16.5 62.5 7zm-293 375q0 71 4 131-351 0-442-67-51-36-51-112 0-87 59-142 57-53 149-53 177-5 281 111z"/><path transform="translate(56.034 13.809) scale(.0068359 -.0068359)" d="m206 0 1 339q0 432-3 551l-4 158q-3 92-6 109l172 9q-1-12-1.5-31.5t-0.5-48.5v-75q234 160 413.5 160t271.5-87.5 97-277.5v-806h-172v745q0 153-44 215-44 60-155 60-149 0-297-75-50-25-105-57l2-91q2-76 2-154v-643z"/><path transform="translate(65.365 13.809) scale(.0068359 -.0068359)" d="m813 979q-117 41-256 41-128 0-178-92-15-27-19-67.5t11.5-76 45.5-62.5q47-43 123-73t114.5-47 73.5-38 65.5-48 52.5-61q47-72 44.5-165t-35-150-87.5-92q-103-68-286-68-182 0-355 66l30 151q159-63 329-67 162-6 209 84 36 68 6 136-28 61-112 104-40 21-90.5 41.5t-108 48.5-104.5 69q-105 93-105 241v15q0 76 37 134.5t90 94.5q102 69 252 73 151 0 287-44z"/></svg>