<svg width="86" height="19" viewBox="0 0 86 19" fill="none" xmlns="http://www.w3.org/2000/svg">
<path d="M8.57962 4.67C8.69295 4.58333 8.74295 4.50333 8.72962 4.43C8.72295 4.35 8.69295 4.28 8.63962 4.22C8.57295 4.15333 8.47961 4.09 8.35961 4.03C8.14628 3.92333 7.86628 3.84667 7.51962 3.8C7.17295 3.76 6.80628 3.74 6.41962 3.74C5.86628 3.74 5.34295 3.79 4.84962 3.89C4.36295 3.99 3.92962 4.17333 3.54962 4.44C3.16962 4.70667 2.85628 5.07333 2.60962 5.54C2.36295 6.00667 2.20628 6.60333 2.13962 7.33C2.42628 7.33667 2.70628 7.34 2.97962 7.34C3.25295 7.34 3.52628 7.34 3.79962 7.34C4.11962 7.34 4.47962 7.33333 4.87962 7.32C5.27962 7.30667 5.68962 7.29 6.10962 7.27C6.52295 7.25 6.92962 7.22667 7.32962 7.2C7.72962 7.18 8.09295 7.16 8.41962 7.14C8.73962 7.12667 9.00962 7.12 9.22962 7.12C9.44295 7.12 9.57295 7.13 9.61962 7.15C9.67295 7.17667 9.68295 7.22 9.64962 7.28C9.61628 7.34 9.54962 7.41 9.44962 7.49C9.35628 7.57 9.23628 7.65667 9.08962 7.75C8.94962 7.83667 8.79962 7.92333 8.63962 8.01C8.47962 8.09667 8.31961 8.17333 8.15962 8.24C7.99295 8.31333 7.84295 8.37 7.70962 8.41C7.81628 8.23 7.83628 8.10333 7.76962 8.03C7.70295 7.95667 7.52295 7.92 7.22962 7.92C7.09628 7.92 6.97628 7.92333 6.86962 7.93C6.75628 7.93 6.62962 7.93667 6.48962 7.95C6.34962 7.96333 6.17295 7.97667 5.95962 7.99C5.75295 8.00333 5.48295 8.02333 5.14962 8.05C4.81628 8.07667 4.40295 8.10667 3.90962 8.14C3.42295 8.17333 2.82628 8.21 2.11962 8.25C2.13962 8.99 2.26628 9.61667 2.49962 10.13C2.73295 10.65 3.05295 11.0767 3.45962 11.41C3.86628 11.7367 4.35295 11.99 4.91962 12.17C5.47962 12.3433 6.09962 12.4567 6.77962 12.51C7.17295 12.53 7.55961 12.5133 7.93961 12.46C8.10628 12.4333 8.27962 12.4 8.45962 12.36C8.63962 12.32 8.81962 12.2667 8.99962 12.2C9.17962 12.1333 9.35628 12.0533 9.52962 11.96C9.70295 11.8667 9.86295 11.7533 10.0096 11.62C9.67628 11.9067 9.32628 12.1667 8.95962 12.4C8.59295 12.6333 8.21295 12.8367 7.81961 13.01C7.43295 13.1767 7.03628 13.3067 6.62962 13.4C6.22962 13.4933 5.83295 13.54 5.43962 13.54C5.09295 13.54 4.72628 13.5133 4.33962 13.46C3.95295 13.4 3.57295 13.3033 3.19962 13.17C2.82628 13.0367 2.46962 12.86 2.12962 12.64C1.78962 12.42 1.49295 12.1433 1.23962 11.81C0.992949 11.4833 0.802949 11.0933 0.669615 10.64C0.529615 10.1933 0.476282 9.67667 0.509615 9.09C0.542949 8.41667 0.672949 7.79 0.899615 7.21C1.11962 6.63667 1.41295 6.12 1.77962 5.66C2.14628 5.2 2.56962 4.79333 3.04962 4.44C3.52295 4.08667 4.03295 3.79 4.57962 3.55C5.12628 3.31667 5.69295 3.13667 6.27962 3.01C6.86628 2.89 7.44962 2.83 8.02961 2.83C8.28295 2.83 8.51628 2.84333 8.72962 2.87C8.94295 2.89 9.13628 2.91667 9.30962 2.95C9.48295 2.98333 9.62962 3.02 9.74962 3.06C9.87628 3.09333 9.97295 3.12667 10.0396 3.16C10.2463 3.25333 10.3496 3.36 10.3496 3.48C10.3496 3.55333 10.3096 3.63 10.2296 3.71C10.1563 3.79667 10.0629 3.88 9.94962 3.96C9.82962 4.04 9.69962 4.12 9.55962 4.2C9.42628 4.27333 9.29295 4.34333 9.15962 4.41C9.03295 4.47 8.91628 4.52333 8.80962 4.57C8.70295 4.61667 8.62628 4.65 8.57962 4.67ZM21.0896 12.16C20.8963 12.3467 20.6896 12.52 20.4696 12.68C20.2496 12.84 20.0263 12.9767 19.7996 13.09C19.5796 13.2033 19.3629 13.2933 19.1496 13.36C18.9429 13.4267 18.753 13.4667 18.5796 13.48C18.4796 13.4867 18.3563 13.4833 18.2096 13.47C18.0563 13.4633 17.9096 13.4233 17.7696 13.35C17.6363 13.2833 17.5196 13.1767 17.4196 13.03C17.3129 12.8833 17.2596 12.6767 17.2596 12.41V11.6C17.0129 11.8467 16.7496 12.08 16.4696 12.3C16.1896 12.5267 15.9029 12.73 15.6096 12.91C15.3163 13.0833 15.0196 13.22 14.7196 13.32C14.4196 13.4267 14.1229 13.48 13.8296 13.48C13.4563 13.48 13.1296 13.3967 12.8496 13.23C12.5629 13.0633 12.3263 12.8467 12.1396 12.58C11.9463 12.3133 11.8029 12.0167 11.7096 11.69C11.6096 11.3633 11.5596 11.0367 11.5596 10.71C11.5596 10.47 11.5796 10.2333 11.6196 10C11.6529 9.76667 11.6996 9.54333 11.7596 9.33C11.8129 9.12333 11.8796 8.93667 11.9596 8.77C12.0329 8.59667 12.1096 8.45667 12.1896 8.35C12.3429 8.14333 12.5363 7.94333 12.7696 7.75C13.0029 7.56333 13.2563 7.38333 13.5296 7.21C13.8029 7.04333 14.0963 6.89333 14.4096 6.76C14.7163 6.62 15.0229 6.5 15.3296 6.4C15.6363 6.3 15.9363 6.22333 16.2296 6.17C16.5229 6.11667 16.7929 6.09 17.0396 6.09C17.2929 6.09 17.5929 6.1 17.9396 6.12C18.2863 6.14667 18.6796 6.2 19.1196 6.28C19.1063 6.8 19.093 7.26333 19.0796 7.67C19.0663 8.07 19.0529 8.42667 19.0396 8.74C19.0329 9.06 19.0263 9.35 19.0196 9.61C19.0129 9.87 19.0096 10.1233 19.0096 10.37C19.0096 10.6167 19.0063 10.86 18.9996 11.1C18.993 11.3467 19.0129 11.5633 19.0596 11.75C19.0996 11.9433 19.1896 12.1 19.3296 12.22C19.4629 12.34 19.6696 12.4 19.9496 12.4C20.1163 12.4 20.2963 12.3767 20.4896 12.33C20.6829 12.29 20.8829 12.2333 21.0896 12.16ZM17.2796 7.26C17.0063 7.18667 16.7129 7.13667 16.3996 7.11C16.0929 7.07667 15.7963 7.06 15.5096 7.06C15.3563 7.06 15.2096 7.06667 15.0696 7.08C14.9363 7.08667 14.8096 7.09667 14.6896 7.11C14.5763 7.12333 14.4763 7.14 14.3896 7.16C14.3029 7.18 14.2396 7.20667 14.1996 7.24C14.1129 7.28 14.0163 7.37667 13.9096 7.53C13.7963 7.69 13.6896 7.88667 13.5896 8.12C13.4896 8.35333 13.4063 8.61333 13.3396 8.9C13.2663 9.19333 13.2296 9.49667 13.2296 9.81C13.2296 10.1033 13.2729 10.4 13.3596 10.7C13.4463 11 13.5729 11.2667 13.7396 11.5C13.9063 11.74 14.1129 11.9333 14.3596 12.08C14.5996 12.2267 14.8763 12.3 15.1896 12.3C15.4896 12.3 15.7529 12.2533 15.9796 12.16C16.2063 12.06 16.4029 11.9267 16.5696 11.76C16.743 11.5933 16.8829 11.4 16.9896 11.18C17.1029 10.9533 17.1929 10.7133 17.2596 10.46C17.2596 10.2667 17.2596 10.06 17.2596 9.84C17.2596 9.62667 17.2596 9.39 17.2596 9.13C17.2596 8.87 17.2629 8.58667 17.2696 8.28C17.2696 7.97333 17.2729 7.63333 17.2796 7.26ZM29.0196 6.33C29.0063 6.91667 28.9963 7.44 28.9896 7.9C28.9763 8.36667 28.9663 8.78 28.9596 9.14C28.9529 9.50667 28.9496 9.82667 28.9496 10.1C28.9429 10.3667 28.9396 10.6 28.9396 10.8C28.9329 11.2533 28.9329 11.5767 28.9396 11.77C28.9329 12.2767 28.9263 12.72 28.9196 13.1C28.9129 13.48 28.8896 13.8233 28.8496 14.13C28.8029 14.43 28.7296 14.6933 28.6296 14.92C28.5296 15.1533 28.3763 15.3667 28.1696 15.56C27.8096 15.9 27.4396 16.24 27.0596 16.58C26.6729 16.92 26.2729 17.2267 25.8596 17.5C25.4463 17.7733 25.0163 17.9933 24.5696 18.16C24.1229 18.3267 23.6596 18.41 23.1796 18.41C22.8929 18.41 22.5929 18.3667 22.2796 18.28C21.9596 18.1933 21.6629 18.07 21.3896 17.91C21.1163 17.7433 20.893 17.5367 20.7196 17.29C20.5463 17.0433 20.4596 16.7567 20.4596 16.43C20.4596 16.17 20.5363 15.9167 20.6896 15.67C20.8429 15.43 21.0696 15.2067 21.3696 15C21.5429 14.88 21.7363 14.74 21.9496 14.58C22.1429 14.4533 22.3729 14.2967 22.6396 14.11C22.9063 13.93 23.2096 13.7267 23.5496 13.5C23.2029 13.4733 22.8996 13.3733 22.6396 13.2C22.3796 13.0267 22.1596 12.81 21.9796 12.55C21.8063 12.29 21.6763 12.0067 21.5896 11.7C21.5029 11.3867 21.4596 11.0733 21.4596 10.76C21.4596 10.52 21.4796 10.28 21.5196 10.04C21.5529 9.80667 21.5996 9.58667 21.6596 9.38C21.7129 9.17333 21.7796 8.98333 21.8596 8.81C21.9329 8.63667 22.0096 8.49667 22.0896 8.39C22.2496 8.17 22.4463 7.96333 22.6796 7.77C22.9129 7.57 23.1696 7.38667 23.4496 7.22C23.7296 7.05333 24.0229 6.90333 24.3296 6.77C24.6296 6.63667 24.9329 6.52333 25.2396 6.43C25.5396 6.33667 25.8296 6.26667 26.1096 6.22C26.3896 6.16667 26.6463 6.14 26.8796 6.14C27.1396 6.14 27.4463 6.15333 27.7996 6.18C28.1596 6.20667 28.5663 6.25667 29.0196 6.33ZM27.1796 7.29C26.9063 7.22333 26.6129 7.17667 26.2996 7.15C25.9929 7.12333 25.6963 7.11 25.4096 7.11C25.0296 7.11 24.6963 7.14667 24.4096 7.22C24.1229 7.3 23.8863 7.44333 23.6996 7.65C23.5129 7.85 23.3696 8.13 23.2696 8.49C23.1763 8.84333 23.1296 9.29667 23.1296 9.85C23.1296 10.15 23.1729 10.4467 23.2596 10.74C23.3463 11.04 23.4729 11.3067 23.6396 11.54C23.8063 11.78 24.0096 11.9733 24.2496 12.12C24.4963 12.2667 24.7763 12.34 25.0896 12.34C25.3963 12.34 25.6663 12.2933 25.8996 12.2C26.1263 12.1 26.323 11.97 26.4896 11.81C26.6496 11.6433 26.7829 11.45 26.8896 11.23C26.9963 11.0167 27.0829 10.7867 27.1496 10.54C27.1496 10.1533 27.153 9.69667 27.1596 9.17C27.1596 8.64333 27.1663 8.01667 27.1796 7.29ZM22.3696 14.8C22.1296 15.04 22.0096 15.29 22.0096 15.55C22.0096 15.75 22.0629 15.9267 22.1696 16.08C22.2763 16.2333 22.4163 16.37 22.5896 16.49C22.7563 16.61 22.9463 16.71 23.1596 16.79C23.3796 16.87 23.5963 16.9333 23.8096 16.98C24.0229 17.0333 24.2296 17.07 24.4296 17.09C24.6229 17.1167 24.7863 17.13 24.9196 17.13C25.2196 17.13 25.4963 17.1 25.7496 17.04C26.0096 16.9867 26.2096 16.91 26.3496 16.81C26.5029 16.69 26.6296 16.47 26.7296 16.15C26.8296 15.8367 26.9096 15.45 26.9696 14.99C27.0296 14.53 27.0729 14.0167 27.0996 13.45C27.1263 12.8767 27.143 12.28 27.1496 11.66C26.9163 11.8867 26.6729 12.1033 26.4196 12.31C26.1663 12.5233 25.9063 12.7133 25.6396 12.88C25.3729 13.0467 25.0996 13.1833 24.8196 13.29C24.5396 13.4033 24.2596 13.4733 23.9796 13.5C23.7063 13.7067 23.4696 13.89 23.2696 14.05C23.0696 14.2033 22.9029 14.3367 22.7696 14.45C22.6163 14.5833 22.4829 14.7 22.3696 14.8ZM36.0096 11.95C35.5563 12.2633 35.1729 12.5233 34.8596 12.73C34.5529 12.93 34.2829 13.09 34.0496 13.21C33.8229 13.33 33.6163 13.4133 33.4296 13.46C33.2429 13.5067 33.0463 13.53 32.8396 13.53C32.6663 13.53 32.4963 13.4867 32.3296 13.4C32.1629 13.32 32.0129 13.1667 31.8796 12.94C31.7529 12.7133 31.6496 12.4033 31.5696 12.01C31.4963 11.6167 31.4596 11.1067 31.4596 10.48C31.4596 9.86667 31.4663 9.22333 31.4796 8.55C31.493 7.87667 31.5063 7.2 31.5196 6.52C31.5329 5.84 31.5496 5.17333 31.5696 4.52C31.583 3.86667 31.5896 3.26 31.5896 2.7C31.5896 2.14 31.503 1.70667 31.3296 1.4C31.163 1.08667 30.9063 0.93 30.5596 0.93C30.4529 0.93 30.3363 0.946667 30.2096 0.98C30.0829 1.00667 29.9496 1.05667 29.8096 1.13C29.9896 1.00333 30.1763 0.873333 30.3696 0.74C30.5629 0.606667 30.7629 0.483333 30.9696 0.37C31.1696 0.263333 31.3729 0.173333 31.5796 0.1C31.7863 0.0333335 31.993 0 32.1996 0C32.4596 0 32.6629 0.0633334 32.8096 0.19C32.9629 0.323333 33.0729 0.483333 33.1396 0.67C33.2129 0.863333 33.2563 1.07333 33.2696 1.3C33.2829 1.52667 33.2896 1.73333 33.2896 1.92C33.2896 2.21333 33.2863 2.56667 33.2796 2.98C33.2729 3.38667 33.2629 3.82667 33.2496 4.3C33.2429 4.77333 33.2363 5.26333 33.2296 5.77C33.2163 6.27 33.2063 6.76333 33.1996 7.25C33.1929 7.73667 33.1863 8.2 33.1796 8.64C33.1729 9.07333 33.1629 9.45667 33.1496 9.79C33.1429 10.2367 33.1763 10.6233 33.2496 10.95C33.3229 11.2767 33.4263 11.5433 33.5596 11.75C33.6996 11.9633 33.8629 12.12 34.0496 12.22C34.2429 12.32 34.4563 12.37 34.6896 12.37C35.1096 12.37 35.5496 12.23 36.0096 11.95ZM39.7596 8.32L44.7696 6.69C44.2496 6.94333 43.7629 7.17 43.3096 7.37C42.8629 7.57 42.4696 7.73667 42.1296 7.87C41.7296 8.03 41.3629 8.17 41.0296 8.29C40.8296 8.37667 40.6029 8.46667 40.3496 8.56C40.1029 8.64667 39.8463 8.73333 39.5796 8.82C39.3063 8.9 39.0296 8.98333 38.7496 9.07C38.4696 9.15667 38.1929 9.24 37.9196 9.32V9.46C37.9196 9.92667 37.9963 10.3467 38.1496 10.72C38.2963 11.0933 38.4996 11.4133 38.7596 11.68C39.0263 11.94 39.3429 12.14 39.7096 12.28C40.0829 12.42 40.4929 12.49 40.9396 12.49C41.1729 12.49 41.4029 12.47 41.6296 12.43C41.8629 12.3967 42.083 12.3467 42.2896 12.28C42.4963 12.22 42.6896 12.1467 42.8696 12.06C43.0563 11.9733 43.2196 11.88 43.3596 11.78C43.0129 12.0933 42.6563 12.3533 42.2896 12.56C41.923 12.7733 41.5563 12.9433 41.1896 13.07C40.8229 13.1967 40.4596 13.29 40.0996 13.35C39.7396 13.41 39.3963 13.4433 39.0696 13.45C38.7363 13.4567 38.4096 13.4067 38.0896 13.3C37.7696 13.1867 37.4763 13.0167 37.2096 12.79C36.9496 12.5567 36.7263 12.2733 36.5396 11.94C36.3596 11.6 36.2429 11.2033 36.1896 10.75C36.1629 10.59 36.1529 10.4367 36.1596 10.29C36.1596 10.1433 36.1729 9.99667 36.1996 9.85C36.0396 9.91 35.8963 9.96333 35.7696 10.01C35.6363 10.0633 35.5296 10.1133 35.4496 10.16C35.583 10.0667 35.7129 9.98 35.8396 9.9C35.9729 9.82667 36.1029 9.75333 36.2296 9.68C36.3096 9.32667 36.4429 8.98667 36.6296 8.66C36.8229 8.34 37.0529 8.04 37.3196 7.76C37.5863 7.48 37.8829 7.23 38.2096 7.01C38.5363 6.78333 38.8763 6.59 39.2296 6.43C39.5829 6.27 39.9429 6.14667 40.3096 6.06C40.6763 5.97333 41.0296 5.93 41.3696 5.93C41.5963 5.93 41.7896 5.96333 41.9496 6.03C42.1029 6.09667 42.2063 6.21667 42.2596 6.39C42.2863 6.57667 42.2229 6.77333 42.0696 6.98C41.9963 7.07333 41.903 7.17 41.7896 7.27C41.6696 7.37667 41.5196 7.48667 41.3396 7.6C41.1529 7.71333 40.9296 7.83 40.6696 7.95C40.4163 8.07667 40.1129 8.2 39.7596 8.32ZM39.3496 8.35C39.5496 8.26333 39.7263 8.17 39.8796 8.07C40.0396 7.97 40.1629 7.86333 40.2496 7.75C40.3363 7.64333 40.3829 7.53 40.3896 7.41C40.3963 7.29667 40.3496 7.17333 40.2496 7.04C40.1763 6.94 40.0796 6.87 39.9596 6.83C39.8396 6.79 39.7163 6.77 39.5896 6.77C39.4696 6.77 39.3563 6.78333 39.2496 6.81C39.1429 6.83667 39.0463 6.87 38.9596 6.91C38.9063 6.94333 38.8329 7.01333 38.7396 7.12C38.6396 7.22667 38.5396 7.36333 38.4396 7.53C38.3396 7.70333 38.2463 7.90333 38.1596 8.13C38.0729 8.35667 38.0063 8.60333 37.9596 8.87C38.2463 8.76333 38.5063 8.67 38.7396 8.59C38.9729 8.51 39.1763 8.43 39.3496 8.35ZM56.5596 12.06C56.0529 12.38 55.5563 12.6367 55.0696 12.83C54.5896 13.0233 54.1063 13.17 53.6196 13.27C53.1329 13.3767 52.6363 13.44 52.1296 13.46C51.6229 13.4867 51.0963 13.4867 50.5496 13.46C50.3696 13.46 50.2129 13.4533 50.0796 13.44C49.9396 13.4333 49.8263 13.4033 49.7396 13.35C49.6529 13.2967 49.5863 13.21 49.5396 13.09C49.493 12.9767 49.4696 12.8067 49.4696 12.58C49.4696 12.4667 49.4696 12.27 49.4696 11.99C49.4763 11.7033 49.4796 11.3667 49.4796 10.98C49.4796 10.5867 49.4829 10.16 49.4896 9.7C49.4963 9.24 49.4996 8.77 49.4996 8.29C49.5063 7.81667 49.5129 7.35333 49.5196 6.9C49.5196 6.44667 49.5229 6.03667 49.5296 5.67C49.5363 5.30333 49.5396 4.99333 49.5396 4.74C49.5463 4.48667 49.5529 4.32333 49.5596 4.25C49.5596 4.17 49.5429 4.1 49.5096 4.04C49.4696 3.98667 49.4163 3.94333 49.3496 3.91C49.2829 3.87667 49.2029 3.85333 49.1096 3.84C49.0229 3.82667 48.9296 3.82 48.8296 3.82C48.6696 3.82 48.4963 3.83333 48.3096 3.86C48.1229 3.89333 47.9496 3.93 47.7896 3.97C48.0229 3.81667 48.2496 3.67667 48.4696 3.55C48.6963 3.41667 48.9229 3.30333 49.1496 3.21C49.3829 3.11667 49.6163 3.04333 49.8496 2.99C50.0896 2.93667 50.3363 2.91 50.5896 2.91C50.6896 2.91 50.7863 2.91667 50.8796 2.93C50.9663 2.93667 51.0463 2.95333 51.1196 2.98C51.1863 3.00667 51.2396 3.04 51.2796 3.08C51.3196 3.12667 51.3396 3.18 51.3396 3.24C51.3396 3.41333 51.3329 3.84667 51.3196 4.54C51.3129 4.84 51.3096 5.20667 51.3096 5.64C51.3029 6.08 51.2963 6.61 51.2896 7.23C51.2829 7.85 51.2763 8.57 51.2696 9.39C51.2629 10.2167 51.2563 11.16 51.2496 12.22C51.6763 12.2667 52.0796 12.3 52.4596 12.32C52.8329 12.3467 53.1896 12.36 53.5296 12.36C54.0029 12.36 54.4263 12.3433 54.7996 12.31C55.1729 12.2833 55.4896 12.25 55.7496 12.21C56.0563 12.1633 56.3263 12.1133 56.5596 12.06ZM66.7196 12.16C66.5263 12.3467 66.3196 12.52 66.0996 12.68C65.8796 12.84 65.6563 12.9767 65.4296 13.09C65.2096 13.2033 64.993 13.2933 64.7796 13.36C64.573 13.4267 64.3829 13.4667 64.2096 13.48C64.1096 13.4867 63.9863 13.4833 63.8396 13.47C63.6863 13.4633 63.5396 13.4233 63.3996 13.35C63.2663 13.2833 63.1463 13.1767 63.0396 13.03C62.9396 12.8833 62.8896 12.6767 62.8896 12.41V11.6C62.6429 11.8467 62.3796 12.08 62.0996 12.3C61.8196 12.5267 61.5329 12.73 61.2396 12.91C60.9463 13.0833 60.6496 13.22 60.3496 13.32C60.0496 13.4267 59.7529 13.48 59.4596 13.48C59.0863 13.48 58.7596 13.3967 58.4796 13.23C58.1929 13.0633 57.9563 12.8467 57.7696 12.58C57.5763 12.3133 57.4329 12.0167 57.3396 11.69C57.2396 11.3633 57.1896 11.0367 57.1896 10.71C57.1896 10.47 57.2096 10.2333 57.2496 10C57.2829 9.76667 57.3296 9.54333 57.3896 9.33C57.4429 9.12333 57.5096 8.93667 57.5896 8.77C57.6629 8.59667 57.7396 8.45667 57.8196 8.35C57.9729 8.14333 58.1663 7.94333 58.3996 7.75C58.6329 7.56333 58.8863 7.38333 59.1596 7.21C59.4329 7.04333 59.7263 6.89333 60.0396 6.76C60.3463 6.62 60.6529 6.5 60.9596 6.4C61.2663 6.3 61.5663 6.22333 61.8596 6.17C62.153 6.11667 62.4229 6.09 62.6696 6.09C62.9229 6.09 63.2229 6.1 63.5696 6.12C63.9163 6.14667 64.3096 6.2 64.7496 6.28C64.7363 6.8 64.723 7.26333 64.7096 7.67C64.6963 8.07 64.683 8.42667 64.6696 8.74C64.6629 9.06 64.6563 9.35 64.6496 9.61C64.643 9.87 64.6396 10.1233 64.6396 10.37C64.6396 10.6167 64.6363 10.86 64.6296 11.1C64.6229 11.3467 64.643 11.5633 64.6896 11.75C64.7296 11.9433 64.8196 12.1 64.9596 12.22C65.0929 12.34 65.2996 12.4 65.5796 12.4C65.7463 12.4 65.9263 12.3767 66.1196 12.33C66.313 12.29 66.513 12.2333 66.7196 12.16ZM62.9096 7.26C62.6363 7.18667 62.3429 7.13667 62.0296 7.11C61.7229 7.07667 61.4263 7.06 61.1396 7.06C60.9863 7.06 60.8396 7.06667 60.6996 7.08C60.5663 7.08667 60.4396 7.09667 60.3196 7.11C60.2063 7.12333 60.1063 7.14 60.0196 7.16C59.9329 7.18 59.8696 7.20667 59.8296 7.24C59.7429 7.28 59.6463 7.37667 59.5396 7.53C59.4263 7.69 59.3196 7.88667 59.2196 8.12C59.1196 8.35333 59.0363 8.61333 58.9696 8.9C58.8963 9.19333 58.8596 9.49667 58.8596 9.81C58.8596 10.1033 58.9029 10.4 58.9896 10.7C59.0763 11 59.2029 11.2667 59.3696 11.5C59.5363 11.74 59.7429 11.9333 59.9896 12.08C60.2296 12.2267 60.5063 12.3 60.8196 12.3C61.1196 12.3 61.3829 12.2533 61.6096 12.16C61.8363 12.06 62.0329 11.9267 62.1996 11.76C62.3729 11.5933 62.5129 11.4 62.6196 11.18C62.7329 10.9533 62.8229 10.7133 62.8896 10.46C62.8896 10.2667 62.8896 10.06 62.8896 9.84C62.8896 9.62667 62.8896 9.39 62.8896 9.13C62.8896 8.87 62.8929 8.58667 62.8996 8.28C62.8996 7.97333 62.9029 7.63333 62.9096 7.26ZM69.2396 12.45L67.5996 13.63C67.6196 12.4433 67.6363 11.3767 67.6496 10.43C67.6696 9.49 67.6863 8.65333 67.6996 7.92C67.7063 7.18 67.7163 6.54 67.7296 6C67.7363 5.45333 67.743 4.98667 67.7496 4.6C67.763 3.69333 67.7696 3.06 67.7696 2.7C67.783 2.14 67.7029 1.70667 67.5296 1.4C67.363 1.08667 67.0996 0.93 66.7396 0.93C66.6263 0.93 66.5063 0.946667 66.3796 0.98C66.2596 1.00667 66.1296 1.05667 65.9896 1.13C66.1696 1.00333 66.3563 0.873333 66.5496 0.74C66.7496 0.606667 66.9496 0.483333 67.1496 0.37C67.3496 0.263333 67.5563 0.173333 67.7696 0.1C67.9763 0.0333335 68.1796 0 68.3796 0C68.5663 0 68.723 0.0333335 68.8496 0.1C68.9763 0.166667 69.0829 0.256667 69.1696 0.37C69.2496 0.483333 69.313 0.61 69.3596 0.75C69.4063 0.896667 69.4396 1.04667 69.4596 1.2C69.4796 1.35333 69.493 1.50667 69.4996 1.66C69.4996 1.82 69.4996 1.96333 69.4996 2.09L69.3496 7.95C69.5963 7.67 69.8763 7.41 70.1896 7.17C70.4963 6.93 70.8196 6.72667 71.1596 6.56C71.4996 6.39333 71.8363 6.26667 72.1696 6.18C72.5096 6.1 72.8296 6.07667 73.1296 6.11C73.3029 6.13667 73.4696 6.19 73.6296 6.27C73.783 6.35 73.9163 6.45333 74.0296 6.58C74.143 6.71333 74.2329 6.86333 74.2996 7.03C74.3663 7.20333 74.3996 7.38667 74.3996 7.58C74.3996 7.90667 74.323 8.19667 74.1696 8.45C74.0229 8.71 73.8329 8.93333 73.5996 9.12C73.3596 9.31333 73.0996 9.47333 72.8196 9.6C72.533 9.72667 72.2563 9.82 71.9896 9.88C72.1163 10.0133 72.263 10.17 72.4296 10.35C72.5963 10.5233 72.7729 10.7067 72.9596 10.9C73.153 11.0867 73.3563 11.2733 73.5696 11.46C73.7763 11.64 73.9863 11.8033 74.1996 11.95C74.4129 12.0967 74.6196 12.2133 74.8196 12.3C75.0263 12.3933 75.2229 12.44 75.4096 12.44C75.7763 12.44 76.1463 12.3233 76.5196 12.09C76.1929 12.3233 75.903 12.53 75.6496 12.71C75.403 12.8967 75.173 13.0533 74.9596 13.18C74.7396 13.3 74.5229 13.39 74.3096 13.45C74.0963 13.51 73.8563 13.5267 73.5896 13.5C73.3229 13.4867 73.063 13.4 72.8096 13.24C72.5563 13.08 72.313 12.8933 72.0796 12.68C71.8463 12.4667 71.6229 12.24 71.4096 12C71.1963 11.76 70.993 11.5433 70.7996 11.35C70.7196 11.2567 70.6296 11.1667 70.5296 11.08C70.4429 11.0133 70.3396 10.9467 70.2196 10.88C70.0996 10.8133 69.963 10.7667 69.8096 10.74C69.9696 10.6067 70.1296 10.4867 70.2896 10.38C70.4563 10.28 70.6063 10.19 70.7396 10.11C70.893 10.0233 71.043 9.94667 71.1896 9.88C71.3496 9.81333 71.513 9.73333 71.6796 9.64C71.853 9.54667 72.0096 9.44 72.1496 9.32C72.2963 9.2 72.4163 9.06333 72.5096 8.91C72.603 8.75 72.6496 8.56667 72.6496 8.36C72.6496 8.19333 72.6196 8.03 72.5596 7.87C72.5063 7.71 72.4263 7.56667 72.3196 7.44C72.213 7.31333 72.0896 7.21333 71.9496 7.14C71.8029 7.06 71.643 7.02 71.4696 7.02C71.2963 7.02 71.1296 7.05 70.9696 7.11C70.8163 7.16333 70.6863 7.22 70.5796 7.28C70.4863 7.32667 70.3696 7.47 70.2296 7.71C70.0829 7.94333 69.9396 8.27667 69.7996 8.71C69.6596 9.13667 69.5363 9.66 69.4296 10.28C69.323 10.9067 69.2596 11.63 69.2396 12.45ZM80.1996 8.32L85.2096 6.69C84.6896 6.94333 84.2029 7.17 83.7496 7.37C83.303 7.57 82.9096 7.73667 82.5696 7.87C82.1696 8.03 81.803 8.17 81.4696 8.29C81.2696 8.37667 81.043 8.46667 80.7896 8.56C80.543 8.64667 80.2863 8.73333 80.0196 8.82C79.7529 8.9 79.4763 8.98333 79.1896 9.07C78.9096 9.15667 78.6329 9.24 78.3596 9.32V9.46C78.3596 9.92667 78.4363 10.3467 78.5896 10.72C78.7363 11.0933 78.9429 11.4133 79.2096 11.68C79.4696 11.94 79.7863 12.14 80.1596 12.28C80.5263 12.42 80.933 12.49 81.3796 12.49C81.6129 12.49 81.8429 12.47 82.0696 12.43C82.3029 12.3967 82.5229 12.3467 82.7296 12.28C82.9363 12.22 83.1296 12.1467 83.3096 12.06C83.4963 11.9733 83.6596 11.88 83.7996 11.78C83.4529 12.0933 83.0963 12.3533 82.7296 12.56C82.3629 12.7733 81.9963 12.9433 81.6296 13.07C81.2629 13.1967 80.8996 13.29 80.5396 13.35C80.1796 13.41 79.8363 13.4433 79.5096 13.45C79.1763 13.4567 78.8496 13.4067 78.5296 13.3C78.2096 13.1867 77.9163 13.0167 77.6496 12.79C77.3896 12.5567 77.1663 12.2733 76.9796 11.94C76.7996 11.6 76.683 11.2033 76.6296 10.75C76.603 10.59 76.5929 10.4367 76.5996 10.29C76.5996 10.1433 76.613 9.99667 76.6396 9.85C76.4796 9.91 76.3363 9.96333 76.2096 10.01C76.0763 10.0633 75.9696 10.1133 75.8896 10.16C76.0229 10.0667 76.1563 9.98 76.2896 9.9C76.4163 9.82667 76.5463 9.75333 76.6796 9.68C76.753 9.32667 76.8863 8.98667 77.0796 8.66C77.2663 8.34 77.493 8.04 77.7596 7.76C78.0263 7.48 78.323 7.23 78.6496 7.01C78.9763 6.78333 79.3163 6.59 79.6696 6.43C80.0229 6.27 80.3829 6.14667 80.7496 6.06C81.1163 5.97333 81.4696 5.93 81.8096 5.93C82.0363 5.93 82.2296 5.96333 82.3896 6.03C82.543 6.09667 82.6496 6.21667 82.7096 6.39C82.7363 6.57667 82.6696 6.77333 82.5096 6.98C82.4363 7.07333 82.3429 7.17 82.2296 7.27C82.1163 7.37667 81.9663 7.48667 81.7796 7.6C81.5929 7.71333 81.373 7.83 81.1196 7.95C80.8596 8.07667 80.5529 8.2 80.1996 8.32ZM79.7896 8.35C79.9896 8.26333 80.1663 8.17 80.3196 8.07C80.4796 7.97 80.603 7.86333 80.6896 7.75C80.783 7.64333 80.8296 7.53 80.8296 7.41C80.8363 7.29667 80.7896 7.17333 80.6896 7.04C80.623 6.94 80.5263 6.87 80.3996 6.83C80.2796 6.79 80.1563 6.77 80.0296 6.77C79.9096 6.77 79.7963 6.78333 79.6896 6.81C79.583 6.83667 79.4863 6.87 79.3996 6.91C79.3463 6.94333 79.2729 7.01333 79.1796 7.12C79.0796 7.22667 78.9796 7.36333 78.8796 7.53C78.7796 7.70333 78.6863 7.90333 78.5996 8.13C78.5129 8.35667 78.4496 8.60333 78.4096 8.87C78.6963 8.76333 78.9529 8.67 79.1796 8.59C79.4129 8.51 79.6163 8.43 79.7896 8.35Z" fill="black"/>
</svg>
