<svg width="64" height="10" viewBox="0 0 64 10" fill="none" xmlns="http://www.w3.org/2000/svg">
<path d="M3.72 3.85C3.7 3.85 3.67 3.85667 3.63 3.87C3.59 3.87667 3.55 3.88 3.51 3.88H3.48L3.44 3.87C3.41333 3.87 3.37667 3.88 3.33 3.9C3.29 3.92667 3.25667 3.94 3.23 3.94L3.08 4.02L2.94 3.99L2.73 4.05L2.57 4.02C2.55 4.02 2.51 4.04 2.45 4.08C2.38333 4.12667 2.33667 4.15 2.31 4.15L2.18 4.16L1.96 4.78C1.92667 4.86 1.9 4.94 1.88 5.02C1.85333 5.1 1.84 5.15333 1.84 5.18V5.35L1.9 5.42H1.96C1.98667 5.42 2.02667 5.42667 2.08 5.44C2.12667 5.45333 2.16333 5.46 2.19 5.46H2.53C2.87667 5.49333 3.10667 5.51 3.22 5.51H3.27C3.29 5.51 3.34333 5.51333 3.43 5.52C3.51 5.52667 3.55667 5.53 3.57 5.53C3.57667 5.53 3.6 5.53 3.64 5.53C3.67333 5.52333 3.71333 5.52 3.76 5.52C3.8 5.52 3.83667 5.51667 3.87 5.51C3.90333 5.51 3.92333 5.51 3.93 5.51L4.57 5.62C4.60333 5.62 4.65 5.62333 4.71 5.63C4.77 5.64333 4.83 5.65667 4.89 5.67C4.95 5.68333 5.00667 5.7 5.06 5.72C5.10667 5.73333 5.13 5.74667 5.13 5.76C5.13 5.86 5.08 5.94333 4.98 6.01C4.88 6.07667 4.81 6.12667 4.77 6.16H4.76C4.55333 6.20667 4.36667 6.23333 4.2 6.24C4.04 6.24667 3.85667 6.25 3.65 6.25H3.1C3.04667 6.23 2.99 6.22 2.93 6.22C2.87 6.22 2.80667 6.22 2.74 6.22C2.65333 6.22 2.48667 6.23 2.24 6.25C1.99333 6.27667 1.76 6.29 1.54 6.29L1.28 6.35C1.22 6.33667 1.15 6.32 1.07 6.3C0.996667 6.28667 0.943333 6.26 0.91 6.22L0.56 5.81L0.5 5.67V5.44L0.61 5.2C0.61 5.18667 0.62 5.14333 0.64 5.07L0.68 4.99C0.7 4.93 0.72 4.88333 0.74 4.85C0.76 4.81 0.783333 4.76333 0.81 4.71L0.84 4.75C0.853333 4.71 0.86 4.67667 0.86 4.65V4.62L0.81 4.65L0.78 4.62C0.78 4.56667 0.79 4.50333 0.81 4.43C0.836667 4.36333 0.853333 4.28 0.86 4.18C0.873333 4.18667 0.89 4.19 0.91 4.19C0.936667 4.19 0.966667 4.17667 1 4.15C1.04 4.13 1.07 4.11 1.09 4.09L1 4.08C1 3.98667 1.02333 3.90667 1.07 3.84C1.11667 3.77333 1.14 3.69333 1.14 3.6C1.08667 3.6 1.04667 3.61333 1.02 3.64C0.993333 3.66 0.97 3.68333 0.95 3.71C0.93 3.74333 0.91 3.77667 0.89 3.81C0.87 3.83667 0.836667 3.86667 0.79 3.9V3.81C0.79 3.80333 0.803333 3.75333 0.83 3.66C0.85 3.57333 0.883333 3.47333 0.93 3.36C0.97 3.24 1.02 3.12333 1.08 3.01C1.14 2.89 1.20667 2.79333 1.28 2.72L1.31 2.76C1.33667 2.72667 1.36333 2.68667 1.39 2.64C1.41 2.6 1.42 2.55667 1.42 2.51V2.47L1.37 2.59L1.31 2.57L1.37 2.4L1.4 2.43C1.40667 2.43667 1.43 2.44 1.47 2.44C1.47667 2.44 1.49333 2.39 1.52 2.29C1.54 2.19667 1.55333 2.12667 1.56 2.08C1.54667 2.12667 1.52333 2.17333 1.49 2.22C1.45667 2.27333 1.43333 2.30333 1.42 2.31H1.4C1.4 2.28333 1.41333 2.23333 1.44 2.16C1.46667 2.08667 1.48 2.03667 1.48 2.01L1.54 1.71V1.57L1.24 1.33L1.1 1.22C1.08 1.21333 1.06667 1.18333 1.06 1.13C1.05333 1.07667 1.05 1.04667 1.05 1.04C1.05 0.966667 1.09 0.93 1.17 0.93H1.98C2.02 0.93 2.07667 0.916667 2.15 0.89L2.33 0.84L2.67 0.860001C2.81667 0.846667 2.96333 0.84 3.11 0.84C3.25667 0.84 3.40333 0.826667 3.55 0.8H4.97C5.02333 0.8 5.1 0.836667 5.2 0.91C5.30667 0.976667 5.36 1.03333 5.36 1.08C5.36 1.12667 5.34333 1.15667 5.31 1.17C5.27667 1.18333 5.26 1.20667 5.26 1.24L5.27 1.31C5.27 1.32333 5.22333 1.34 5.13 1.36C5.03 1.37333 4.94667 1.38 4.88 1.38H4.64C4.53333 1.38 4.44 1.39667 4.36 1.43C4.28667 1.45667 4.22 1.49 4.16 1.53C4.1 1.57 4.04333 1.60667 3.99 1.64C3.93 1.66667 3.87333 1.68 3.82 1.68C3.82 1.72 3.79333 1.75 3.74 1.77C3.68667 1.79 3.62667 1.80667 3.56 1.82C3.48667 1.84 3.41667 1.86333 3.35 1.89C3.27667 1.91 3.22333 1.94 3.19 1.98C3.11667 2.05333 3.04667 2.13333 2.98 2.22C2.91333 2.31333 2.84667 2.40667 2.78 2.5C2.70667 2.6 2.63667 2.70667 2.57 2.82C2.57 2.85333 2.59 2.87 2.63 2.87C2.60333 2.96333 2.56333 3.02667 2.51 3.06C2.45667 3.08667 2.43 3.16 2.43 3.28C2.65667 3.28 2.87333 3.27333 3.08 3.26C3.28 3.24667 3.49333 3.24 3.72 3.24H4.11C4.13667 3.24 4.17667 3.24667 4.23 3.26C4.28333 3.27333 4.32 3.28 4.34 3.28L4.5 3.35V3.41L4.62 3.35L4.59 3.49L4.53 3.69C4.51 3.69 4.49333 3.69667 4.48 3.71C4.46 3.73 4.43333 3.75333 4.4 3.78C4.36667 3.81333 4.32667 3.83667 4.28 3.85C4.23333 3.87 4.16667 3.88 4.08 3.88C4.02667 3.88 3.96333 3.87667 3.89 3.87C3.82333 3.85667 3.76667 3.85 3.72 3.85ZM1.06 4.25H0.92C0.9 4.26333 0.89 4.28667 0.89 4.32V4.37C0.95 4.31667 1.00667 4.29 1.06 4.29V4.25ZM7.81 5.98C7.97667 6.02667 8.06 6.06 8.06 6.08L8.05 6.21C8.05 6.31 8.06667 6.39667 8.1 6.47C8.12 6.51 8.14 6.53333 8.16 6.54C8.16 6.56 8.12 6.57333 8.04 6.58C7.96 6.58 7.86667 6.58667 7.76 6.6C7.65333 6.60667 7.54667 6.61333 7.44 6.62C7.33333 6.62667 7.24667 6.63 7.18 6.63H7.08C6.87333 6.63 6.7 6.59667 6.56 6.53C6.42 6.46333 6.31 6.35 6.23 6.19L6.17 6.16L6.14 5.98C6.12 5.90667 6.10333 5.83667 6.09 5.77C6.07 5.70333 6.06 5.63333 6.06 5.56C6.06667 5.50667 6.09 5.45667 6.13 5.41C6.16333 5.37 6.19667 5.33333 6.23 5.3C6.26333 5.26667 6.29 5.24333 6.31 5.23C6.33 5.21 6.32667 5.2 6.3 5.2C6.3 5.15333 6.32667 5.09333 6.38 5.02C6.43333 4.94 6.50333 4.86333 6.59 4.79C6.67667 4.71667 6.76333 4.64333 6.85 4.57C6.93667 4.50333 7.01 4.45 7.07 4.41L7.18 4.44C7.2 4.44 7.25 4.43 7.33 4.41C7.40333 4.38333 7.46333 4.36 7.51 4.34L7.71 4.2C7.77667 4.19333 7.81 4.16333 7.81 4.11L8.35 3.85C8.36333 3.83667 8.38 3.81667 8.4 3.79C8.42667 3.77 8.44 3.75333 8.44 3.74L8.33 3.29C8.33 3.27667 8.31333 3.27 8.28 3.27C8.27333 3.27 8.27 3.27 8.27 3.27C8.27 3.27667 8.26667 3.28 8.26 3.28H8.23C8.18333 3.28 8.1 3.29 7.98 3.31C7.86667 3.33 7.75 3.35333 7.63 3.38C7.50333 3.40667 7.39333 3.43 7.3 3.45C7.2 3.47 7.15 3.48 7.15 3.48C7.14333 3.48667 7.13 3.49 7.11 3.49C7.05 3.49 6.99 3.46333 6.93 3.41C6.87 3.35 6.81667 3.29667 6.77 3.25L6.63 3.2L6.56 3.14C6.56 3.12 6.55667 3.10333 6.55 3.09C6.53667 3.07667 6.52667 3.06 6.52 3.04L6.49 2.99C6.49 2.94333 6.56667 2.9 6.72 2.86C6.87333 2.82 7.06667 2.78667 7.3 2.76C7.53333 2.73333 7.78333 2.71333 8.05 2.7C8.31667 2.68667 8.56333 2.68 8.79 2.68H8.83C8.96333 2.68 9.07 2.7 9.15 2.74C9.23667 2.78 9.30667 2.83 9.36 2.89C9.42 2.95667 9.46667 3.02333 9.5 3.09C9.54 3.16333 9.58333 3.22667 9.63 3.28V3.52C9.63 3.62 9.63 3.7 9.63 3.76C9.63667 3.82 9.64 3.88 9.64 3.94C9.64 3.99333 9.63667 4.05 9.63 4.11C9.61667 4.17 9.59667 4.25333 9.57 4.36C9.57 4.40667 9.58 4.44667 9.6 4.48C9.62 4.51333 9.63 4.54667 9.63 4.58V4.6L9.64 4.69L9.53 4.82L9.61 4.92L9.52 5.04C9.52 5.06 9.51 5.08333 9.49 5.11C9.47667 5.14333 9.47 5.16667 9.47 5.18L9.49 5.2L9.46 5.42L9.57 5.45L9.56 5.53L9.47 5.58L9.5 5.63L9.49 5.73C9.44333 5.81667 9.41 5.93667 9.39 6.09C9.37 6.25 9.35667 6.36667 9.35 6.44C9.33667 6.46 9.3 6.47333 9.24 6.48C9.18 6.48667 9.11667 6.49 9.05 6.49C8.97667 6.49667 8.91 6.5 8.85 6.5C8.79 6.5 8.76 6.5 8.76 6.5C8.67333 6.5 8.6 6.47667 8.54 6.43C8.48 6.38333 8.43333 6.32333 8.4 6.25C8.36667 6.18333 8.34333 6.11 8.33 6.03C8.31667 5.95 8.31 5.87667 8.31 5.81C8.31 5.65667 8.33667 5.53 8.39 5.43C8.44333 5.33 8.47 5.19333 8.47 5.02C8.45 4.94 8.44667 4.86333 8.46 4.79C8.47333 4.71 8.43667 4.67 8.35 4.67C8.33667 4.68333 8.31667 4.70333 8.29 4.73C8.27 4.75 8.25 4.76667 8.23 4.78C8.21667 4.76667 8.19333 4.76 8.16 4.76C8.14 4.76 8.09667 4.77667 8.03 4.81C7.96333 4.83667 7.89333 4.86667 7.82 4.9C7.74667 4.94 7.68 4.98 7.62 5.02C7.56 5.05333 7.52333 5.08 7.51 5.1C7.41 5.16667 7.31 5.22333 7.21 5.27C7.11667 5.31667 7.03667 5.37333 6.97 5.44L6.94 5.65C6.94 5.65667 6.93667 5.67667 6.93 5.71C6.91667 5.74333 6.91 5.77333 6.91 5.8L6.93 5.81L6.98 5.77L7.02 5.84C7.08667 5.85333 7.15333 5.85667 7.22 5.85C7.28667 5.84333 7.33333 5.85 7.36 5.87C7.36667 5.87 7.37333 5.86667 7.38 5.86C7.38667 5.86 7.39333 5.86 7.4 5.86C7.44667 5.86 7.50667 5.88333 7.58 5.93C7.64667 5.97667 7.71 6 7.77 6C7.78333 6 7.79667 5.99333 7.81 5.98ZM12.16 6.78C12.1333 6.78 12.0933 6.77667 12.04 6.77C11.9933 6.77 11.9367 6.76333 11.87 6.75C11.81 6.74333 11.7567 6.73333 11.71 6.72C11.6567 6.70667 11.6167 6.69333 11.59 6.68L11.25 6.56C11.23 6.56 11.1933 6.54667 11.14 6.52C11.0867 6.5 10.9933 6.46667 10.86 6.42L10.68 6.19C10.68 6.11 10.7267 6.03 10.82 5.95C10.9133 5.87667 10.9967 5.82667 11.07 5.8C11.0767 5.8 11.1033 5.80333 11.15 5.81C11.19 5.82333 11.2333 5.83667 11.28 5.85C11.3267 5.86333 11.37 5.87333 11.41 5.88C11.4567 5.89333 11.4833 5.9 11.49 5.9C11.5767 5.9 11.69 5.89333 11.83 5.88C11.97 5.87333 12.1067 5.86333 12.24 5.85C12.3733 5.83667 12.49 5.81667 12.59 5.79C12.69 5.77 12.74 5.74667 12.74 5.72L12.81 5.35C12.81 5.25 12.7767 5.16667 12.71 5.1C12.6433 5.03333 12.5633 5 12.47 5C12.4433 5 12.42 5.01 12.4 5.03L12.02 4.96H11.88C11.8067 4.96 11.69 4.94333 11.53 4.91C11.37 4.87667 11.2133 4.82667 11.06 4.76C10.9067 4.7 10.7733 4.61667 10.66 4.51C10.54 4.41 10.48 4.29 10.48 4.15C10.48 4.06333 10.4933 4.00667 10.52 3.98C10.54 3.95333 10.57 3.89333 10.61 3.8L10.57 3.77C10.57 3.74333 10.58 3.7 10.6 3.64C10.6267 3.58667 10.6533 3.53 10.68 3.47C10.7133 3.41 10.7467 3.35 10.78 3.29C10.8067 3.23667 10.8233 3.19667 10.83 3.17L11.32 2.62C11.34 2.6 11.36 2.59333 11.38 2.6C11.4067 2.60667 11.42 2.6 11.42 2.58L11.74 2.37H11.81C11.81 2.37 11.84 2.36 11.9 2.34L12.27 2.27H12.4L12.43 2.3C12.4767 2.32 12.5233 2.33 12.57 2.33C12.6233 2.33 12.6833 2.33 12.75 2.33H12.99C13.01 2.33 13.0333 2.35333 13.06 2.4C13.0933 2.45333 13.12 2.48 13.14 2.48C13.2267 2.54 13.3033 2.58667 13.37 2.62C13.43 2.66 13.4867 2.7 13.54 2.74C13.5933 2.78 13.6333 2.83 13.66 2.89C13.6867 2.95667 13.7 3.04333 13.7 3.15C13.7 3.18333 13.6767 3.20667 13.63 3.22C13.5833 3.24 13.55 3.26 13.53 3.28H13.28C13.2733 3.28 13.2533 3.28333 13.22 3.29C13.1867 3.30333 13.15 3.31333 13.11 3.32C13.0633 3.33333 13.0233 3.34333 12.99 3.35C12.95 3.35667 12.9267 3.36 12.92 3.36H12.4C12.38 3.40667 12.3267 3.44 12.24 3.46C12.1533 3.47333 12.0867 3.49333 12.04 3.52C11.9067 3.59333 11.8267 3.67333 11.8 3.76C11.7733 3.85333 11.75 3.96333 11.73 4.09C11.87 4.18333 12.0333 4.25 12.22 4.29C12.4133 4.32333 12.5467 4.34 12.62 4.34L13 4.46C13.2533 4.53333 13.43 4.63667 13.53 4.77C13.6233 4.90333 13.69 5.03667 13.73 5.17L13.77 5.35V5.46C13.77 5.5 13.7667 5.53333 13.76 5.56C13.7467 5.58667 13.7367 5.69333 13.73 5.88L13.66 6.09L13.62 6.12C13.5133 6.26 13.4267 6.37 13.36 6.45C13.2867 6.53 13.1633 6.58333 12.99 6.61C12.9767 6.61 12.9633 6.62 12.95 6.64C12.9367 6.66 12.9033 6.68 12.85 6.7C12.8033 6.71333 12.7267 6.73 12.62 6.75C12.5133 6.77 12.36 6.78 12.16 6.78ZM10.72 4.08C10.72 4.16 10.7533 4.22 10.82 4.26C10.8933 4.3 10.9667 4.32 11.04 4.32L11 4.16V4.13C11 4.07 11.0033 4.03333 11.01 4.02C11.0233 4.01333 11.03 3.97333 11.03 3.9C10.99 3.9 10.97 3.88 10.97 3.84C10.97 3.82 10.98 3.78667 11 3.74C11.02 3.69333 11.04 3.66667 11.06 3.66V3.74C11.0867 3.74 11.1 3.71667 11.1 3.67C11.1067 3.62333 11.11 3.58667 11.11 3.56C11.11 3.51333 11.1 3.49 11.08 3.49L11.06 3.56V3.38H11.03C11.0167 3.40667 10.9967 3.44 10.97 3.48C10.9433 3.52667 10.92 3.56333 10.9 3.59C10.88 3.65667 10.87 3.72 10.87 3.78C10.8633 3.84667 10.8467 3.91333 10.82 3.98C10.8 4.02667 10.7767 4.04667 10.75 4.04C10.73 4.02667 10.72 4.04 10.72 4.08ZM11.78 2.8H11.76C11.6 2.8 11.4667 2.86333 11.36 2.99C11.2533 3.11667 11.1767 3.25667 11.13 3.41V3.42C11.2033 3.42 11.25 3.37333 11.27 3.28C11.2967 3.18667 11.3267 3.11667 11.36 3.07C11.3733 3.06333 11.3967 3.05 11.43 3.03C11.47 3.01 11.5133 2.98667 11.56 2.96C11.6067 2.93333 11.65 2.90667 11.69 2.88C11.7367 2.86 11.7667 2.83333 11.78 2.8ZM18.7 3.04H18.71L18.69 3.11L18.7 3.04L18.35 3.18C18.3433 3.19333 18.33 3.2 18.31 3.2C18.29 3.2 18.28 3.19 18.28 3.17L18.21 3.18C18.1367 3.19333 18.04 3.20333 17.92 3.21C17.8067 3.21667 17.6933 3.22667 17.58 3.24C17.4667 3.24667 17.37 3.26333 17.29 3.29C17.21 3.31 17.17 3.34 17.17 3.38V3.39L17.2 3.42C17.18 3.44 17.1667 3.45 17.16 3.45C17.1533 3.45 17.15 3.46 17.15 3.48C17.15 3.49333 17.1567 3.51667 17.17 3.55C17.17 3.59667 17.1567 3.62 17.13 3.62C17.1033 3.62 17.09 3.65667 17.09 3.73C17.09 3.76333 17.1167 3.78 17.17 3.78C17.1167 3.81333 17.09 3.87667 17.09 3.97C17.09 4.04333 17.1033 4.08333 17.13 4.09L17.17 4.23C17.11 4.29667 17.08 4.35667 17.08 4.41C17.08 4.45667 17.0833 4.49 17.09 4.51C17.09 4.58333 17.0867 4.63667 17.08 4.67C17.08 4.69667 17.08 4.71333 17.08 4.72C17.08 4.72 17.0767 4.72333 17.07 4.73C17.0633 4.73667 17.06 4.75333 17.06 4.78L17.08 4.79C17.08 4.86333 17.0633 4.95333 17.03 5.06C16.9967 5.17333 16.97 5.23667 16.95 5.25H16.92V5.31H16.99C16.97 5.33 16.9533 5.34333 16.94 5.35C16.92 5.36333 16.91 5.37667 16.91 5.39C16.91 5.40333 16.9133 5.41333 16.92 5.42H17.02L16.92 5.87L16.98 5.9C17.0333 5.92 17.1133 5.93 17.22 5.93C17.3 5.91667 17.3733 5.89333 17.44 5.86C17.5067 5.82667 17.5767 5.80667 17.65 5.8H17.69C17.73 5.8 17.7733 5.79667 17.82 5.79C17.8733 5.79 17.9233 5.79 17.97 5.79H18.63C18.6367 5.79 18.66 5.79667 18.7 5.81C18.74 5.82333 18.78 5.84 18.82 5.86C18.86 5.87333 18.8933 5.89 18.92 5.91C18.9533 5.93 18.97 5.94 18.97 5.94C18.97 5.98667 18.94 6.04 18.88 6.1C18.8267 6.16 18.7767 6.21 18.73 6.25L18.1 6.44L17.29 6.53C17.21 6.53 17.1067 6.56333 16.98 6.63C16.8467 6.70333 16.7167 6.74 16.59 6.74V6.68L16.15 6.64C16.05 6.56667 15.9767 6.52 15.93 6.5C15.8833 6.48 15.8467 6.47 15.82 6.47C15.7867 6.46333 15.7633 6.45333 15.75 6.44C15.73 6.43333 15.6967 6.40667 15.65 6.36C15.65 6.33333 15.65 6.27667 15.65 6.19C15.65 6.09667 15.65 6.00333 15.65 5.91C15.6567 5.81667 15.6667 5.73 15.68 5.65C15.6867 5.57 15.7 5.52333 15.72 5.51L15.76 6.11L15.82 6.19C15.82 6.06333 15.82 5.86667 15.82 5.6C15.8267 5.34 15.8433 5.03667 15.87 4.69L15.86 4.72C15.8467 4.73333 15.84 4.71667 15.84 4.67C15.8333 4.62333 15.83 4.57 15.83 4.51C15.83 4.41 15.8333 4.36 15.84 4.36H15.86L15.9 4.51L16.01 3.73H15.96V3.59V3.49C15.9 3.51 15.8333 3.52 15.76 3.52C15.6867 3.52 15.6167 3.54333 15.55 3.59L15.26 3.6L15.14 3.59L15.07 3.62L15.03 3.57C14.9567 3.57 14.87 3.50667 14.77 3.38C14.6633 3.24667 14.61 3.11667 14.61 2.99C14.61 2.93 14.67 2.88333 14.79 2.85C14.9033 2.81667 15.04 2.78667 15.2 2.76C15.36 2.73333 15.52 2.70667 15.68 2.68C15.8467 2.66 15.98 2.63667 16.08 2.61C16.1067 2.52333 16.1267 2.41 16.14 2.27C16.16 2.13 16.17 2 16.17 1.88C16.1767 1.76 16.1833 1.66333 16.19 1.59C16.19 1.51 16.19 1.49 16.19 1.53C16.19 1.52333 16.2 1.49 16.22 1.43C16.24 1.36333 16.26 1.29667 16.28 1.23C16.3067 1.15667 16.33 1.09 16.35 1.03C16.37 0.970001 16.38 0.93 16.38 0.91C16.3667 0.903333 16.36 0.89 16.36 0.87C16.36 0.843333 16.37 0.806667 16.39 0.76C16.41 0.713334 16.42 0.676667 16.42 0.650001L16.45 0.63C16.51 0.63 16.6033 0.650001 16.73 0.690001C16.8567 0.730001 16.98 0.78 17.1 0.84C17.2267 0.9 17.3367 0.973334 17.43 1.06C17.5233 1.14667 17.57 1.24333 17.57 1.35C17.57 1.45 17.5233 1.57 17.43 1.71C17.3367 1.85 17.29 2 17.29 2.16L17.2 2.48C17.4533 2.48 17.7133 2.47 17.98 2.45C18.2467 2.42333 18.4433 2.41 18.57 2.41C18.65 2.41 18.7133 2.42333 18.76 2.45C18.8133 2.48333 18.84 2.55 18.84 2.65L18.7 3.04ZM15.69 4.99L15.72 5.38L15.65 5.39C15.65 5.37667 15.65 5.31333 15.65 5.2C15.6567 5.08667 15.67 5.01667 15.69 4.99ZM16.33 5.83H16.26L16.19 5.98V6.12L16.33 5.83ZM16.33 5.55C16.2967 5.55 16.28 5.57333 16.28 5.62C16.28 5.66667 16.2967 5.69 16.33 5.69C16.3767 5.69 16.4 5.66667 16.4 5.62C16.4 5.57333 16.3767 5.55 16.33 5.55ZM22.75 5.76C22.8433 5.73333 22.9533 5.72 23.08 5.72C23.34 5.72 23.5833 5.73667 23.81 5.77C24.0367 5.81 24.2433 5.83333 24.43 5.84L24.54 5.77L24.92 5.74C24.9267 5.75333 24.94 5.76 24.96 5.76C24.9933 5.76 25.02 5.74667 25.04 5.72C25.06 5.68667 25.0833 5.67 25.11 5.67C25.1967 5.67 25.3 5.65333 25.42 5.62C25.54 5.58 25.62 5.53333 25.66 5.48C25.7267 5.26667 25.7733 5.05 25.8 4.83C25.8267 4.61667 25.84 4.43 25.84 4.27L25.76 4.11C25.76 4.06333 25.7233 4.02667 25.65 4C25.5833 3.98 25.54 3.97 25.52 3.97L25.36 3.91C25.28 3.91 25.21 3.89667 25.15 3.87C25.09 3.84333 25.0233 3.81333 24.95 3.78C24.8833 3.75333 24.7967 3.72667 24.69 3.7C24.59 3.67333 24.46 3.66 24.3 3.66H24.17C24.1367 3.66 24.12 3.64 24.12 3.6C24.0467 3.52667 23.9633 3.48 23.87 3.46C23.7833 3.44 23.7067 3.39 23.64 3.31C23.62 3.29667 23.5967 3.25667 23.57 3.19C23.5433 3.11667 23.5167 3.03667 23.49 2.95C23.4633 2.86333 23.44 2.77667 23.42 2.69C23.4 2.61 23.39 2.55333 23.39 2.52C23.4367 2.52 23.46 2.49 23.46 2.43C23.46 2.41 23.4567 2.39 23.45 2.37C23.45 2.35 23.45 2.33 23.45 2.31C23.45 2.29667 23.4633 2.27333 23.49 2.24L23.54 2.2C23.58 2.16667 23.5933 2.13333 23.58 2.1C23.5667 2.06667 23.5767 2.04 23.61 2.02V2.15L23.64 2.13L23.96 1.12L24.4 0.66L24.65 0.51L24.92 0.610001C24.98 0.610001 25.0567 0.593334 25.15 0.56C25.2367 0.533334 25.3167 0.52 25.39 0.52C25.5233 0.52 25.6767 0.543333 25.85 0.59C26.03 0.636667 26.2033 0.696667 26.37 0.77C26.5367 0.836667 26.69 0.906667 26.83 0.98C26.9633 1.04667 27.0533 1.1 27.1 1.14C27.0933 1.20667 27.08 1.24 27.06 1.24C27.04 1.24 27.03 1.24667 27.03 1.26C27.03 1.29333 27.0333 1.31667 27.04 1.33C27.0533 1.34333 27.06 1.36333 27.06 1.39C27.06 1.41667 27.0367 1.45 26.99 1.49C26.9433 1.52333 26.9 1.54 26.86 1.54L26.05 1.47H26.01C25.9633 1.47 25.89 1.47 25.79 1.47C25.69 1.46333 25.6167 1.46 25.57 1.46C25.43 1.46 25.3067 1.49667 25.2 1.57C25.0867 1.64333 24.99 1.74333 24.91 1.87C24.83 1.99667 24.77 2.13667 24.73 2.29C24.6833 2.44333 24.66 2.60667 24.66 2.78C24.66 2.80667 24.68 2.83333 24.72 2.86C24.76 2.88667 24.8033 2.90667 24.85 2.92C24.8967 2.93333 24.9433 2.94667 24.99 2.96C25.0367 2.96667 25.0733 2.97 25.1 2.97L25.15 2.99C25.2167 3.03667 25.26 3.06667 25.28 3.08C25.3 3.1 25.3333 3.11 25.38 3.11H25.43L25.6 3.1L25.84 3.18C25.86 3.19333 25.8933 3.2 25.94 3.2H26.09C26.2433 3.25333 26.39 3.31333 26.53 3.38C26.67 3.44667 26.7933 3.53667 26.9 3.65C27.0067 3.77 27.0933 3.92 27.16 4.1C27.22 4.28 27.25 4.51 27.25 4.79C27.25 4.87667 27.2467 4.96 27.24 5.04C27.2333 5.12 27.2133 5.20667 27.18 5.3L27.17 5.32C27.15 5.34 27.1167 5.38333 27.07 5.45C27.0233 5.51667 26.99 5.55333 26.97 5.56L26.92 5.72L26.85 5.77L26.3 6.49C26.18 6.50333 26.0667 6.53333 25.96 6.58C25.8533 6.62 25.7433 6.64 25.63 6.64C25.61 6.64 25.5733 6.63 25.52 6.61C25.4467 6.63 25.3767 6.64 25.31 6.64C25.2433 6.64 25.1767 6.64 25.11 6.64C25.0167 6.64 24.8533 6.63 24.62 6.61C24.3867 6.59 24.1433 6.56667 23.89 6.54C23.63 6.50667 23.3833 6.47333 23.15 6.44C22.91 6.40667 22.7333 6.37667 22.62 6.35C22.62 6.31667 22.63 6.3 22.65 6.3C22.6767 6.29333 22.69 6.27 22.69 6.23C22.69 6.22333 22.6867 6.22 22.68 6.22H22.66C22.64 6.22 22.6267 6.20667 22.62 6.18C22.64 6.18 22.67 6.17333 22.71 6.16C22.75 6.15333 22.77 6.14 22.77 6.12L22.73 6.02L22.76 5.98C22.7667 5.96 22.7767 5.94667 22.79 5.94C22.7967 5.93333 22.8 5.92333 22.8 5.91C22.8 5.86333 22.79 5.84667 22.77 5.86C22.7567 5.86667 22.75 5.83333 22.75 5.76ZM23.73 1.6C23.73 1.62 23.7167 1.67667 23.69 1.77C23.67 1.87 23.6533 1.93 23.64 1.95C23.6133 1.95 23.6 1.93667 23.6 1.91C23.6 1.89667 23.6133 1.84667 23.64 1.76C23.6667 1.67333 23.6967 1.62 23.73 1.6ZM23.82 1.24C23.82 1.24667 23.8267 1.25 23.84 1.25H23.88L23.75 1.46C23.7367 1.46 23.73 1.44667 23.73 1.42C23.73 1.4 23.74 1.37 23.76 1.33C23.7867 1.28333 23.8067 1.25333 23.82 1.24ZM29.44 4.89L29.45 4.86C29.51 4.86 29.5533 4.84667 29.58 4.82C29.6133 4.79333 29.64 4.76667 29.66 4.74C29.68 4.70667 29.7 4.67667 29.72 4.65C29.7467 4.62333 29.78 4.61 29.82 4.61C29.94 4.61 30.0533 4.56 30.16 4.46C30.2667 4.36667 30.32 4.13667 30.32 3.77V3.5C30.32 3.45333 30.3 3.41333 30.26 3.38C30.2267 3.34 30.2 3.32 30.18 3.32C30.1733 3.33333 30.14 3.35333 30.08 3.38C30.0267 3.40667 29.9667 3.44 29.9 3.48C29.8333 3.52667 29.7667 3.57333 29.7 3.62C29.64 3.66667 29.59 3.71333 29.55 3.76V3.9C29.53 4.04667 29.4933 4.21 29.44 4.39C29.38 4.56333 29.35 4.73 29.35 4.89H29.44ZM31.45 4.37V4.46L31.27 4.67L31.19 4.72C31.0833 4.76667 30.9833 4.81667 30.89 4.87C30.7967 4.92333 30.7033 4.96333 30.61 4.99L30.56 5.04H30.49C30.43 5.04 30.3933 5.06 30.38 5.1C30.3667 5.14 30.3333 5.16333 30.28 5.17C30.1733 5.19 30.1067 5.21 30.08 5.23C30.0533 5.24333 30.04 5.25667 30.04 5.27C30.0467 5.29 30.05 5.3 30.05 5.3C30.05 5.30667 30.0367 5.31333 30.01 5.32C29.9767 5.33333 29.94 5.34 29.9 5.34C29.86 5.34667 29.8267 5.35333 29.8 5.36C29.7733 5.36667 29.7633 5.37 29.77 5.37H29.7C29.6733 5.39667 29.6 5.41333 29.48 5.42C29.36 5.43333 29.2633 5.46333 29.19 5.51L29.27 5.84C29.3167 5.86 29.38 5.88 29.46 5.9C29.54 5.92 29.62 5.93333 29.7 5.94C29.7867 5.94667 29.8667 5.95333 29.94 5.96C30.0133 5.96667 30.07 5.97 30.11 5.97C30.2433 5.97 30.37 5.96333 30.49 5.95C30.6167 5.93667 30.75 5.93 30.89 5.93C31.0233 5.93 31.15 5.94 31.27 5.96C31.39 5.98667 31.5067 6.03667 31.62 6.11V6.21C31.62 6.25667 31.62 6.31 31.62 6.37C31.6133 6.43 31.5967 6.47 31.57 6.49L31.51 6.51C31.5033 6.52333 31.4667 6.53667 31.4 6.55C31.3333 6.56333 31.2567 6.58 31.17 6.6C31.09 6.62 31.0067 6.63667 30.92 6.65C30.8267 6.66333 30.7567 6.67 30.71 6.67C30.5233 6.67 30.34 6.67333 30.16 6.68C29.98 6.68 29.7967 6.68 29.61 6.68C29.47 6.68 29.3167 6.65667 29.15 6.61C28.99 6.56333 28.8367 6.5 28.69 6.42C28.5433 6.33333 28.4167 6.23 28.31 6.11C28.2033 5.99 28.1367 5.85333 28.11 5.7L28.15 5.6C28.15 5.58667 28.1533 5.55 28.16 5.49C28.1733 5.43667 28.1833 5.37333 28.19 5.3V5.17H28.29L28.3 5.16C28.3 5.1 28.3067 5.06667 28.32 5.06C28.32 5.04667 28.3133 5.03333 28.3 5.02C28.2867 5.00667 28.28 4.99 28.28 4.97C28.28 4.96333 28.2933 4.95 28.32 4.93L28.33 4.75C28.33 4.71 28.3333 4.66667 28.34 4.62C28.3467 4.57333 28.3667 4.51333 28.4 4.44L28.44 4.41C28.44 4.37667 28.4233 4.34 28.39 4.3C28.4167 4.29333 28.4333 4.26667 28.44 4.22C28.4533 4.17333 28.47 4.15 28.49 4.15C28.4967 4.15 28.5 4.15 28.5 4.15C28.5 4.15667 28.5033 4.16 28.51 4.16L28.57 4.2C28.5767 4.19333 28.58 4.19 28.58 4.19H28.63C28.6567 4.19 28.67 4.18 28.67 4.16C28.67 4.11333 28.65 4.07333 28.61 4.04C28.5633 4.00667 28.54 3.96667 28.54 3.92C28.54 3.90667 28.5467 3.89333 28.56 3.88C28.56 3.86 28.5533 3.84667 28.54 3.84C28.5333 3.83333 28.53 3.82333 28.53 3.81L28.57 3.8C28.6233 3.66 28.6867 3.55333 28.76 3.48C28.8267 3.4 28.9033 3.32333 28.99 3.25L29.06 3.21C29.1933 3.12333 29.3233 3.03 29.45 2.93C29.57 2.83 29.71 2.78 29.87 2.78C30.03 2.78 30.2 2.79333 30.38 2.82C30.5667 2.85333 30.7433 2.87 30.91 2.87C31.13 2.98333 31.2567 3.05333 31.29 3.08C31.3233 3.1 31.35 3.11 31.37 3.11L31.36 3.25L31.47 3.34L31.51 3.42L31.41 3.55L31.5 3.66L31.41 3.78C31.39 3.8 31.38 3.82333 31.38 3.85C31.38 3.88333 31.38 3.90667 31.38 3.92L31.4 3.94L31.41 4.01L31.38 4.16L31.48 4.2V4.29L31.43 4.33L31.45 4.37ZM31.48 3.88H31.51C31.53 3.88 31.54 3.89333 31.54 3.92C31.54 3.96 31.52 3.98 31.48 3.98C31.46 3.98 31.45 3.96 31.45 3.92C31.45 3.89333 31.46 3.88 31.48 3.88ZM31.54 4.08C31.54 4.11333 31.53 4.13 31.51 4.13C31.49 4.13 31.48 4.11333 31.48 4.08C31.48 4.06 31.4867 4.05 31.5 4.05C31.5067 4.05 31.52 4.06 31.54 4.08ZM34.21 5.98C34.3767 6.02667 34.46 6.06 34.46 6.08L34.45 6.21C34.45 6.31 34.47 6.39667 34.51 6.47C34.5233 6.51 34.54 6.53333 34.56 6.54C34.56 6.56 34.52 6.57333 34.44 6.58C34.36 6.58 34.2667 6.58667 34.16 6.6C34.0533 6.60667 33.9467 6.61333 33.84 6.62C33.7333 6.62667 33.6467 6.63 33.58 6.63H33.48C33.28 6.63 33.11 6.59667 32.97 6.53C32.83 6.46333 32.7167 6.35 32.63 6.19L32.57 6.16L32.55 5.98C32.53 5.90667 32.51 5.83667 32.49 5.77C32.47 5.70333 32.46 5.63333 32.46 5.56C32.4733 5.50667 32.4967 5.45667 32.53 5.41C32.57 5.37 32.6067 5.33333 32.64 5.3C32.6733 5.26667 32.6967 5.24333 32.71 5.23C32.73 5.21 32.7267 5.2 32.7 5.2C32.7 5.15333 32.7267 5.09333 32.78 5.02C32.84 4.94 32.91 4.86333 32.99 4.79C33.0767 4.71667 33.1633 4.64333 33.25 4.57C33.3433 4.50333 33.4167 4.45 33.47 4.41L33.58 4.44C33.6 4.44 33.65 4.43 33.73 4.41C33.81 4.38333 33.8733 4.36 33.92 4.34L34.11 4.2C34.1767 4.19333 34.21 4.16333 34.21 4.11L34.76 3.85C34.7667 3.83667 34.7833 3.81667 34.81 3.79C34.83 3.77 34.84 3.75333 34.84 3.74L34.73 3.29C34.73 3.27667 34.7167 3.27 34.69 3.27C34.6767 3.27 34.67 3.27 34.67 3.27C34.67 3.27667 34.6667 3.28 34.66 3.28H34.63C34.5833 3.28 34.5033 3.29 34.39 3.31C34.27 3.33 34.15 3.35333 34.03 3.38C33.91 3.40667 33.8 3.43 33.7 3.45C33.6 3.47 33.55 3.48 33.55 3.48C33.5433 3.48667 33.53 3.49 33.51 3.49C33.4567 3.49 33.4 3.46333 33.34 3.41C33.28 3.35 33.2267 3.29667 33.18 3.25L33.04 3.2L32.97 3.14C32.97 3.12 32.9633 3.10333 32.95 3.09C32.9433 3.07667 32.9333 3.06 32.92 3.04L32.9 2.99C32.9 2.94333 32.9767 2.9 33.13 2.86C33.2833 2.82 33.4767 2.78667 33.71 2.76C33.9433 2.73333 34.1933 2.71333 34.46 2.7C34.7267 2.68667 34.97 2.68 35.19 2.68H35.23C35.3633 2.68 35.4733 2.7 35.56 2.74C35.64 2.78 35.71 2.83 35.77 2.89C35.8233 2.95667 35.87 3.02333 35.91 3.09C35.9433 3.16333 35.9833 3.22667 36.03 3.28V3.52C36.03 3.62 36.0333 3.7 36.04 3.76C36.0467 3.82 36.05 3.88 36.05 3.94C36.05 3.99333 36.0433 4.05 36.03 4.11C36.0233 4.17 36.0067 4.25333 35.98 4.36C35.98 4.40667 35.9867 4.44667 36 4.48C36.02 4.51333 36.03 4.54667 36.03 4.58V4.6L36.05 4.69L35.93 4.82L36.02 4.92L35.92 5.04C35.92 5.06 35.9133 5.08333 35.9 5.11C35.8867 5.14333 35.88 5.16667 35.88 5.18L35.89 5.2L35.86 5.42L35.98 5.45L35.96 5.53L35.88 5.58L35.91 5.63L35.89 5.73C35.8433 5.81667 35.81 5.93667 35.79 6.09C35.7767 6.25 35.7633 6.36667 35.75 6.44C35.7433 6.46 35.71 6.47333 35.65 6.48C35.59 6.48667 35.5233 6.49 35.45 6.49C35.3833 6.49667 35.3167 6.5 35.25 6.5C35.19 6.5 35.16 6.5 35.16 6.5C35.08 6.5 35.01 6.47667 34.95 6.43C34.89 6.38333 34.8433 6.32333 34.81 6.25C34.7767 6.18333 34.7533 6.11 34.74 6.03C34.7267 5.95 34.72 5.87667 34.72 5.81C34.72 5.65667 34.7433 5.53 34.79 5.43C34.8433 5.33 34.87 5.19333 34.87 5.02C34.85 4.94 34.8467 4.86333 34.86 4.79C34.8733 4.71 34.84 4.67 34.76 4.67C34.74 4.68333 34.72 4.70333 34.7 4.73C34.6733 4.75 34.65 4.76667 34.63 4.78C34.6233 4.76667 34.6 4.76 34.56 4.76C34.54 4.76 34.5 4.77667 34.44 4.81C34.3733 4.83667 34.3033 4.86667 34.23 4.9C34.15 4.94 34.08 4.98 34.02 5.02C33.96 5.05333 33.9267 5.08 33.92 5.1C33.8133 5.16667 33.7133 5.22333 33.62 5.27C33.52 5.31667 33.4367 5.37333 33.37 5.44L33.34 5.65C33.34 5.65667 33.3367 5.67667 33.33 5.71C33.3233 5.74333 33.32 5.77333 33.32 5.8L33.33 5.81L33.39 5.77L33.43 5.84C33.4967 5.85333 33.56 5.85667 33.62 5.85C33.6867 5.84333 33.7333 5.85 33.76 5.87C33.7733 5.87 33.78 5.86667 33.78 5.86C33.7867 5.86 33.7967 5.86 33.81 5.86C33.8567 5.86 33.9133 5.88333 33.98 5.93C34.0533 5.97667 34.1167 6 34.17 6C34.19 6 34.2033 5.99333 34.21 5.98ZM39.9 4.05C39.9 4.04333 39.9033 4.01 39.91 3.95C39.9167 3.89667 39.93 3.83667 39.95 3.77C39.9633 3.70333 39.9733 3.64 39.98 3.58C39.9867 3.52 39.99 3.48 39.99 3.46L40.04 3.29C40.04 3.26333 40.0567 3.22667 40.09 3.18C40.13 3.13333 40.15 3.1 40.15 3.08L40.22 3.13C40.22 3.11667 40.2167 3.10667 40.21 3.1C40.2033 3.08667 40.2 3.07333 40.2 3.06C40.2 3.02 40.2033 2.98667 40.21 2.96C40.2167 2.93333 40.22 2.91 40.22 2.89L40.26 2.78C40.26 2.76667 40.2567 2.75333 40.25 2.74C40.25 2.72667 40.25 2.71 40.25 2.69C40.25 2.65667 40.25 2.62333 40.25 2.59C40.2567 2.55667 40.26 2.53 40.26 2.51C40.2133 2.51 40.1867 2.51333 40.18 2.52L40.15 2.54C40.15 2.5 40.1567 2.42667 40.17 2.32C40.1833 2.21333 40.2033 2.09333 40.23 1.96C40.2567 1.82 40.2933 1.67333 40.34 1.52C40.38 1.36 40.4267 1.2 40.48 1.04C40.5133 1.01333 40.5367 0.963334 40.55 0.89C40.57 0.823334 40.6 0.753334 40.64 0.68C40.6733 0.613334 40.7233 0.553333 40.79 0.5C40.8567 0.446667 40.95 0.42 41.07 0.42C41.09 0.42 41.1467 0.436667 41.24 0.47C41.3333 0.496667 41.45 0.51 41.59 0.51C41.69 0.51 41.7733 0.52 41.84 0.54C41.9 0.566667 41.93 0.63 41.93 0.73C41.93 0.79 41.9233 0.833334 41.91 0.860001L41.83 1.53C41.97 1.43667 42.08 1.36333 42.16 1.31C42.2467 1.25 42.37 1.19333 42.53 1.14L42.88 0.98C42.9 0.993334 42.9133 1.01 42.92 1.03C42.9267 1.04333 42.9533 1.05667 43 1.07L43.12 1.11C43.36 1.21 43.5767 1.35333 43.77 1.54C43.9567 1.72 44.1067 1.94667 44.22 2.22C44.2467 2.26667 44.26 2.31333 44.26 2.36C44.2533 2.40667 44.26 2.45667 44.28 2.51L44.29 2.54C44.33 2.57333 44.35 2.63 44.35 2.71C44.3567 2.78333 44.39 2.86667 44.45 2.96L44.47 3C44.53 3 44.56 3.02333 44.56 3.07C44.56 3.11667 44.5533 3.14333 44.54 3.15L44.61 3.13C44.61 3.15667 44.6133 3.17333 44.62 3.18C44.6267 3.18 44.63 3.2 44.63 3.24C44.63 3.26 44.6233 3.27667 44.61 3.29C44.6033 3.31 44.6 3.32667 44.6 3.34V3.38L44.64 3.36C44.68 3.39333 44.7067 3.45667 44.72 3.55C44.7333 3.65 44.75 3.72333 44.77 3.77C44.75 3.77 44.74 3.78333 44.74 3.81V3.85H44.78C44.76 3.91667 44.72 3.98667 44.66 4.06C44.6 4.12667 44.5667 4.19333 44.56 4.26V4.27C44.56 4.29 44.5533 4.3 44.54 4.3C44.5267 4.29333 44.51 4.29333 44.49 4.3C44.4233 4.36 44.3533 4.42667 44.28 4.5C44.2133 4.57333 44.1533 4.64667 44.1 4.72C44.04 4.78667 43.99 4.85 43.95 4.91C43.91 4.97 43.89 5.00667 43.89 5.02C43.81 5.08 43.7267 5.17 43.64 5.29C43.5533 5.40333 43.4733 5.51667 43.4 5.63C43.32 5.74333 43.2567 5.84 43.21 5.92C43.1633 6 43.14 6.04 43.14 6.04L43.1 6.02C43.08 6.04 43.0533 6.07333 43.02 6.12C42.98 6.16 42.94 6.20333 42.9 6.25C42.86 6.29667 42.8167 6.33667 42.77 6.37C42.7233 6.41 42.6833 6.43333 42.65 6.44C42.6367 6.45333 42.6067 6.46 42.56 6.46C42.52 6.46 42.5 6.47333 42.5 6.5C42.5 6.52 42.5033 6.53333 42.51 6.54H42.39L42.32 6.49C42.3 6.50333 42.2867 6.50667 42.28 6.5C42.28 6.49333 42.28 6.49667 42.28 6.51C42.2333 6.51 42.1833 6.5 42.13 6.48C42.0767 6.45333 42.0267 6.44 41.98 6.44C41.7733 6.43333 41.59 6.42333 41.43 6.41C41.2633 6.39667 41.0867 6.39 40.9 6.39H40.74C40.74 6.42333 40.6967 6.44 40.61 6.44L40.57 6.43C40.55 6.43 40.54 6.44333 40.54 6.47V6.5H40.39L40.34 6.53C40.3267 6.45667 40.3033 6.41 40.27 6.39C40.2567 6.41667 40.2333 6.43 40.2 6.43H40.08L40.04 6.37C40.0267 6.37 40.02 6.37333 40.02 6.38C40.02 6.38667 40.0167 6.39 40.01 6.39H39.98C39.88 6.35 39.81 6.29 39.77 6.21C39.73 6.13 39.71 6.1 39.71 6.12L39.7 6.04V6.02C39.7 6.00667 39.7033 5.98333 39.71 5.95C39.7233 5.92333 39.73 5.89667 39.73 5.87C39.73 5.83 39.7233 5.81 39.71 5.81C39.7033 5.80333 39.7 5.79 39.7 5.77C39.7 5.76333 39.7033 5.75333 39.71 5.74C39.71 5.72667 39.7167 5.69 39.73 5.63C39.7367 5.57667 39.7467 5.49333 39.76 5.38C39.7667 5.26667 39.7733 5.11333 39.78 4.92L39.8 4.78C39.82 4.68667 39.83 4.64 39.83 4.64C39.83 4.6 39.82 4.58 39.8 4.58C39.8533 4.50667 39.88 4.42333 39.88 4.33C39.88 4.23667 39.8867 4.14333 39.9 4.05ZM41.16 5.55V5.6C41.1667 5.6 41.17 5.61 41.17 5.63C41.17 5.65 41.17 5.66333 41.17 5.67C41.2433 5.67 41.3133 5.68 41.38 5.7C41.4467 5.71333 41.5167 5.72 41.59 5.72C41.6433 5.72 41.71 5.70333 41.79 5.67H42.26C42.2733 5.67 42.31 5.63667 42.37 5.57C42.43 5.49667 42.4967 5.41333 42.57 5.32C42.6433 5.22 42.72 5.11667 42.8 5.01C42.88 4.90333 42.9533 4.81333 43.02 4.74L43.3 4.4C43.3533 4.33333 43.3867 4.28333 43.4 4.25C43.4067 4.21667 43.4467 4.13667 43.52 4.01L43.61 3.88L43.48 3.7C43.46 3.67333 43.4267 3.58 43.38 3.42C43.3267 3.26 43.2633 3.08333 43.19 2.89C43.1233 2.70333 43.05 2.52667 42.97 2.36C42.89 2.18667 42.8067 2.07333 42.72 2.02H42.7C42.68 2.02 42.66 1.99 42.64 1.93C42.62 1.87 42.6 1.84 42.58 1.84C42.5667 1.84 42.5533 1.84333 42.54 1.85C42.5333 1.86333 42.52 1.87667 42.5 1.89C42.2733 2.06333 42.0933 2.17333 41.96 2.22C41.8267 2.26667 41.7367 2.32667 41.69 2.4C41.6033 2.54 41.5467 2.69 41.52 2.85C41.4933 3.00333 41.45 3.16667 41.39 3.34C41.39 3.35333 41.3867 3.36667 41.38 3.38C41.3733 3.38667 41.37 3.39667 41.37 3.41L41.39 3.45L41.31 3.55C41.31 3.56333 41.32 3.58 41.34 3.6V3.62C41.34 3.65333 41.3333 3.67667 41.32 3.69C41.3067 3.70333 41.3 3.72 41.3 3.74C41.3 3.78667 41.3167 3.83333 41.35 3.88C41.39 3.92667 41.41 3.97333 41.41 4.02L41.42 4.04L41.37 4.06C41.3833 4.08 41.39 4.10333 41.39 4.13V4.16L41.35 4.19L41.38 4.29C41.38 4.29667 41.3733 4.31 41.36 4.33C41.3467 4.35 41.34 4.37 41.34 4.39L41.31 4.36C41.29 4.38 41.28 4.39667 41.28 4.41C41.2933 4.44333 41.3067 4.46 41.32 4.46L41.3 4.6L41.27 4.62V4.68L41.31 4.75C41.27 4.75667 41.25 4.78333 41.25 4.83L41.28 4.92C41.28 4.96667 41.26 5.01333 41.22 5.06C41.18 5.11333 41.16 5.16333 41.16 5.21H41.18C41.1667 5.23 41.1567 5.25333 41.15 5.28C41.1433 5.30667 41.14 5.33667 41.14 5.37C41.14 5.46333 41.1467 5.52333 41.16 5.55ZM40.58 2.73H40.53L40.47 2.83C40.47 2.87 40.4567 2.92 40.43 2.98C40.41 3.04 40.4 3.08333 40.4 3.11V3.34H40.47L40.53 3.22C40.53 3.18667 40.5367 3.14333 40.55 3.09C40.57 3.03667 40.58 2.99333 40.58 2.96V2.73ZM40.11 3.64L40.05 3.74C40.0433 3.75333 40.04 3.76333 40.04 3.77V3.97L40.11 3.91V3.64ZM40.22 3.29H40.15C40.13 3.31 40.1167 3.34333 40.11 3.39C40.11 3.43 40.11 3.45333 40.11 3.46V3.53L40.16 3.46L40.22 3.29ZM40.41 2.34V2.31C40.41 2.29667 40.4033 2.29 40.39 2.29C40.37 2.29 40.36 2.29667 40.36 2.31C40.36 2.35667 40.3733 2.38 40.4 2.38C40.4067 2.38 40.41 2.36667 40.41 2.34ZM45.38 5.03L45.43 4.93C45.43 4.91 45.4333 4.89333 45.44 4.88C45.4467 4.86667 45.4567 4.85 45.47 4.83L45.51 4.79C45.51 4.66333 45.5533 4.5 45.64 4.3C45.7333 4.10667 45.8333 3.97333 45.94 3.9L46.06 3.84C46.0733 3.83333 46.08 3.81333 46.08 3.78C46.08 3.74667 46.0867 3.72 46.1 3.7L46.15 3.63C46.23 3.53 46.3167 3.42333 46.41 3.31C46.5033 3.20333 46.5933 3.11 46.68 3.03C46.7667 2.94333 46.8467 2.87333 46.92 2.82C47 2.77333 47.0667 2.75 47.12 2.75C47.14 2.75 47.1567 2.75333 47.17 2.76C47.1833 2.77333 47.2233 2.78667 47.29 2.8L47.44 3C47.48 3.00667 47.5133 3.04333 47.54 3.11L47.58 3.21V3.43L47.62 3.49C47.64 3.51 47.6567 3.52667 47.67 3.54C47.6767 3.55333 47.69 3.56333 47.71 3.57L47.88 3.69C47.8867 3.72333 47.9133 3.77 47.96 3.83C48.0067 3.88333 48.0533 3.93667 48.1 3.99L48.3 4.22C48.3133 4.24667 48.33 4.29667 48.35 4.37C48.37 4.44333 48.3867 4.52333 48.4 4.61C48.4133 4.69667 48.4267 4.77333 48.44 4.84C48.4467 4.91333 48.45 4.96333 48.45 4.99V5.1L48.32 5.39L48.31 5.51L48.17 5.66L47.96 5.83C47.9133 5.85667 47.8533 5.87 47.78 5.87C47.7067 5.87 47.64 5.89333 47.58 5.94L47.47 5.98C47.4167 6.02 47.37 6.04 47.33 6.04C47.3233 6.04 47.3167 6.03667 47.31 6.03C47.3033 6.02333 47.2967 6.02 47.29 6.02L47.12 6.05C47.08 6.07667 47 6.09 46.88 6.09C46.8133 6.09 46.7633 6.08667 46.73 6.08L46.41 6L46.08 5.88C45.9533 5.84667 45.8533 5.81667 45.78 5.79C45.7133 5.75667 45.6367 5.66333 45.55 5.51C45.53 5.46333 45.5133 5.41667 45.5 5.37C45.48 5.32333 45.46 5.28333 45.44 5.25L45.38 5.03ZM46.56 5.07L46.57 5.41L46.64 5.42C46.72 5.4 46.81 5.38333 46.91 5.37C47.01 5.35667 47.0833 5.33667 47.13 5.31L47.27 5.21L47.39 5.09L47.43 4.96L47.26 4.32L47.02 4.22L46.98 4.25C46.96 4.25667 46.9333 4.29 46.9 4.35C46.86 4.41 46.82 4.48333 46.78 4.57C46.7333 4.65 46.69 4.73667 46.65 4.83C46.61 4.92333 46.58 5.00333 46.56 5.07ZM46.13 4.23L46.06 4.18C46.0133 4.22667 45.9567 4.31 45.89 4.43C45.8233 4.55 45.79 4.65667 45.79 4.75C45.79 4.79 45.7933 4.81667 45.8 4.83L45.83 4.76L46.06 4.36C46.0933 4.3 46.1167 4.25667 46.13 4.23ZM49.18 6.16L49.19 5.98L49.26 5.93H49.19V5.86C49.19 5.84667 49.2 5.83 49.22 5.81L49.26 5.87L49.5 5.6C49.4933 5.58667 49.49 5.57333 49.49 5.56C49.49 5.55333 49.4733 5.54 49.44 5.52C49.4133 5.54667 49.3967 5.56333 49.39 5.57C49.3767 5.57667 49.33 5.58 49.25 5.58C49.2367 5.56 49.23 5.53667 49.23 5.51C49.23 5.43 49.2467 5.36667 49.28 5.32C49.3133 5.27333 49.33 5.22667 49.33 5.18H49.3C49.2867 5.18 49.2633 5.16333 49.23 5.13C49.2167 5.13 49.2 5.13667 49.18 5.15C49.1667 5.16333 49.1567 5.17 49.15 5.17C49.1567 5.13 49.1833 5.07667 49.23 5.01C49.27 4.93667 49.29 4.88667 49.29 4.86L49.23 4.68C49.23 4.65333 49.2333 4.62 49.24 4.58C49.2467 4.54667 49.25 4.50667 49.25 4.46C49.25 4.41333 49.2467 4.36667 49.24 4.32C49.2333 4.27333 49.23 4.22 49.23 4.16L49.26 4.11C49.26 3.97667 49.25 3.90667 49.23 3.9C49.2167 3.9 49.21 3.87667 49.21 3.83C49.21 3.81667 49.2267 3.79333 49.26 3.76C49.24 3.74 49.23 3.72333 49.23 3.71C49.23 3.69667 49.2433 3.67333 49.27 3.64C49.29 3.61333 49.3 3.58333 49.3 3.55L49.26 3.53C49.2867 3.45667 49.3067 3.36333 49.32 3.25C49.3267 3.13667 49.3367 3.02333 49.35 2.91C49.3567 2.79 49.3633 2.68333 49.37 2.59C49.37 2.49 49.38 2.41333 49.4 2.36C49.4 2.12667 49.4267 1.93667 49.48 1.79C49.5333 1.64333 49.56 1.47667 49.56 1.29C49.56 1.19667 49.5633 1.08667 49.57 0.96C49.5767 0.826667 49.5867 0.703333 49.6 0.59C49.62 0.47 49.6333 0.366667 49.64 0.280001C49.6467 0.200001 49.65 0.15 49.65 0.13H49.75L49.99 0H50.14C50.1867 0 50.2267 0.023334 50.26 0.0700006C50.2933 0.116667 50.34 0.163333 50.4 0.21L50.62 0.42L50.7 0.51C50.7 0.53 50.7 0.550001 50.7 0.570001C50.6933 0.596667 50.69 0.616667 50.69 0.63L50.65 0.89C50.65 0.95 50.66 1.06333 50.68 1.23C50.7067 1.39 50.72 1.50333 50.72 1.57C50.7067 1.59 50.7 1.6 50.7 1.6L50.72 1.96C50.72 1.98 50.71 2 50.69 2.02C50.67 2.04 50.66 2.07333 50.66 2.12C50.6733 2.14 50.68 2.15667 50.68 2.17C50.68 2.21 50.6633 2.23 50.63 2.23C50.6033 2.23 50.59 2.24 50.59 2.26L50.61 2.27H50.66C50.66 2.29 50.6533 2.31333 50.64 2.34C50.6267 2.36667 50.62 2.39 50.62 2.41C50.66 2.43 50.6833 2.48333 50.69 2.57C50.6967 2.65 50.7 2.73667 50.7 2.83L50.73 2.85C50.7233 2.86333 50.7133 2.87333 50.7 2.88C50.6933 2.88667 50.69 2.9 50.69 2.92C50.69 2.93333 50.7 2.95 50.72 2.97C50.72 3.01667 50.7067 3.04333 50.68 3.05C50.6467 3.05667 50.63 3.09667 50.63 3.17C50.63 3.19667 50.66 3.21 50.72 3.21C50.66 3.26333 50.63 3.28667 50.63 3.28C50.63 3.3 50.65 3.31333 50.69 3.32L50.73 3.46C50.6767 3.53333 50.65 3.6 50.65 3.66V3.69C50.6967 3.67 50.74 3.63667 50.78 3.59C50.82 3.54333 50.86 3.50667 50.9 3.48L51.18 3.32L51.15 3.31C51.1967 3.31 51.25 3.29333 51.31 3.26C51.37 3.22667 51.43 3.19333 51.49 3.16C51.5433 3.12667 51.59 3.09333 51.63 3.06C51.6767 3.02667 51.7033 3.01 51.71 3.01C51.71 2.99667 51.71 2.98333 51.71 2.97C51.7033 2.96333 51.7 2.95333 51.7 2.94L51.74 2.9L52.36 2.4L52.48 2.27C52.5 2.26333 52.5367 2.23333 52.59 2.18C52.6367 2.12667 52.67 2.09333 52.69 2.08L52.72 2.05H52.66L52.83 1.88C52.8233 1.87333 52.82 1.86333 52.82 1.85C52.82 1.81667 52.8367 1.78 52.87 1.74C52.91 1.7 52.9433 1.68 52.97 1.68C52.9833 1.68 52.99 1.68667 52.99 1.7C52.9967 1.72 53.01 1.73 53.03 1.73L53.1 1.71C53.1067 1.71 53.1233 1.72333 53.15 1.75C53.17 1.77 53.19 1.78 53.21 1.78C53.23 1.78 53.2433 1.77667 53.25 1.77C53.2633 1.77 53.2767 1.77 53.29 1.77C53.3233 1.77 53.3567 1.78667 53.39 1.82C53.43 1.86 53.4667 1.90667 53.5 1.96C53.5333 2.00667 53.56 2.06 53.58 2.12C53.6067 2.17333 53.62 2.22 53.62 2.26L53.57 2.37L53.49 2.45C53.4033 2.53667 53.3133 2.61333 53.22 2.68C53.1267 2.74667 53.0433 2.81667 52.97 2.89L52.44 3.46L52.33 3.55C52.3767 3.62333 52.4233 3.72333 52.47 3.85C52.5233 3.98333 52.55 4.06 52.55 4.08L52.66 4.48C52.7 4.62 52.7733 4.76667 52.88 4.92C52.9867 5.08 53.0867 5.24667 53.18 5.42L53.14 5.63L53.29 5.74L53.43 5.93L53.39 6.08L53.53 6.15L53.49 6.32C53.49 6.34 53.4933 6.36667 53.5 6.4C53.5133 6.44 53.53 6.46333 53.55 6.47L53.57 6.53C53.6167 6.69667 53.6867 6.89333 53.78 7.12C53.8667 7.34 53.9533 7.55333 54.04 7.76C54.1333 7.96667 54.21 8.13667 54.27 8.27C54.33 8.40333 54.36 8.47 54.36 8.47V8.33C54.34 8.31667 54.33 8.26667 54.33 8.18C54.33 8.09333 54.32 8.04333 54.3 8.03L54.37 8C54.3967 8.12 54.42 8.21333 54.44 8.28C54.46 8.34667 54.4733 8.4 54.48 8.44C54.4933 8.48 54.5 8.51333 54.5 8.54C54.5067 8.56 54.51 8.58333 54.51 8.61C54.51 8.65 54.5067 8.68 54.5 8.7L54.43 8.84L54.27 8.92L54.13 9.06L53.97 9.03L53.87 9.08L53.83 9.19C53.79 9.19667 53.75 9.2 53.71 9.2C53.6767 9.19333 53.6367 9.19333 53.59 9.2L53.56 9.15C53.54 9.09 53.5033 8.99667 53.45 8.87C53.39 8.74333 53.33 8.61 53.27 8.47C53.2033 8.33 53.14 8.19667 53.08 8.07C53.02 7.95 52.9733 7.86 52.94 7.8L52.79 7.66L52.72 7.47L52.65 7.44L52.55 7.21C52.4767 7.08333 52.4267 6.98333 52.4 6.91C52.38 6.84333 52.37 6.79 52.37 6.75C52.37 6.72333 52.3833 6.7 52.41 6.68L52.33 6.51L52.27 6.35C52.0833 5.89 51.9267 5.56333 51.8 5.37C51.6733 5.17 51.6033 5.06 51.59 5.04V5.02H51.66V4.97C51.66 4.95667 51.6467 4.92333 51.62 4.87C51.6 4.81667 51.59 4.78667 51.59 4.78V4.75C51.59 4.73 51.5933 4.72 51.6 4.72C51.6067 4.71333 51.61 4.7 51.61 4.68H51.59L51.5 4.55C51.48 4.54333 51.4633 4.50333 51.45 4.43C51.43 4.35667 51.41 4.31 51.39 4.29L51.35 4.19C51.2567 4.28333 51.1567 4.35 51.05 4.39C50.9433 4.43667 50.8467 4.5 50.76 4.58L50.51 4.68V5.86L50.55 5.87C50.53 5.92333 50.52 5.97 50.52 6.01C50.52 6.05 50.53 6.07 50.55 6.07L50.52 6.14C50.5133 6.15333 50.51 6.17667 50.51 6.21C50.51 6.25667 50.52 6.29667 50.54 6.33C50.5533 6.37 50.56 6.41333 50.56 6.46V6.53L50.54 6.56L50.59 6.63C50.5833 6.63667 50.5767 6.64333 50.57 6.65C50.5633 6.66333 50.5533 6.67333 50.54 6.68V6.65C50.48 6.67 50.4467 6.68667 50.44 6.7L50.58 6.72C50.52 6.78 50.4667 6.81 50.42 6.81C50.3867 6.78333 50.3667 6.76333 50.36 6.75C50.3533 6.74333 50.3267 6.74 50.28 6.74C50.18 6.74 50.0733 6.75333 49.96 6.78C49.8467 6.80667 49.76 6.83 49.7 6.85C49.5133 6.82333 49.3867 6.77333 49.32 6.7C49.26 6.63333 49.23 6.56333 49.23 6.49C49.23 6.45 49.2367 6.42 49.25 6.4V6.39C49.25 6.35 49.2633 6.32667 49.29 6.32C49.3167 6.32 49.33 6.28333 49.33 6.21C49.33 6.17667 49.28 6.16 49.18 6.16ZM53.83 6.77L53.97 6.91L53.92 6.99L53.8 6.84C53.8 6.84 53.7867 6.8 53.76 6.72L53.83 6.77ZM49.44 5.44C49.4867 5.44 49.51 5.42 49.51 5.38C49.51 5.34 49.5267 5.26 49.56 5.14C49.54 5.14 49.52 5.15333 49.5 5.18C49.48 5.21333 49.47 5.23667 49.47 5.25C49.47 5.26333 49.4733 5.27 49.48 5.27C49.4867 5.27 49.49 5.27333 49.49 5.28C49.49 5.3 49.48 5.32 49.46 5.34C49.44 5.36 49.43 5.38333 49.43 5.41C49.43 5.41667 49.4333 5.42667 49.44 5.44ZM54.2 7.62L54.26 7.59L54.29 7.66L54.25 7.73L54.16 7.7L54.2 7.62ZM53.6 6.39C53.62 6.37667 53.63 6.37 53.63 6.37C53.67 6.37 53.69 6.39 53.69 6.43C53.69 6.45667 53.6733 6.47 53.64 6.47C53.6067 6.47 53.59 6.45333 53.59 6.42C53.59 6.40667 53.5933 6.39667 53.6 6.39ZM54.13 7.45H54.16C54.18 7.45 54.19 7.45667 54.19 7.47C54.19 7.48333 54.18 7.49667 54.16 7.51C54.14 7.51667 54.1233 7.52 54.11 7.52C54.09 7.52 54.08 7.51667 54.08 7.51C54.08 7.49 54.0967 7.47 54.13 7.45ZM53.71 6.56C53.7233 6.57333 53.73 6.58 53.73 6.58V6.6V6.61C53.69 6.61 53.67 6.58667 53.67 6.54H53.69C53.6967 6.54 53.7033 6.54667 53.71 6.56ZM53.94 7.19L54.02 7.17L54.05 7.21L53.94 7.19ZM49.3 5.1L49.29 5.04H49.26L49.25 5.06C49.25 5.06667 49.2667 5.08 49.3 5.1ZM49.3 5.35L49.33 5.38V5.31C49.3233 5.31 49.3133 5.32333 49.3 5.35ZM57.69 6.42H57.66C57.5333 6.47333 57.3767 6.52 57.19 6.56C57.0033 6.59333 56.8333 6.61 56.68 6.61C56.6 6.61 56.4867 6.6 56.34 6.58C56.1933 6.56667 56.0467 6.53667 55.9 6.49C55.76 6.44333 55.6367 6.38667 55.53 6.32C55.4233 6.25333 55.37 6.17 55.37 6.07C55.37 6.03 55.3667 5.99 55.36 5.95C55.3533 5.90333 55.35 5.86333 55.35 5.83C55.37 5.57 55.3867 5.37333 55.4 5.24C55.4133 5.10667 55.4333 5.00333 55.46 4.93C55.48 4.85667 55.5067 4.79 55.54 4.73C55.5733 4.67 55.6167 4.57333 55.67 4.44C55.67 4.43333 55.6833 4.42333 55.71 4.41C55.73 4.39667 55.75 4.38 55.77 4.36L55.87 4.32H55.94C55.94 4.35333 55.9333 4.37667 55.92 4.39C55.9067 4.40333 55.9 4.42667 55.9 4.46V4.48C55.9333 4.46667 55.9633 4.44 55.99 4.4C56.01 4.36 56.0367 4.32333 56.07 4.29L56.71 3.74H56.49C56.5233 3.70667 56.5833 3.67 56.67 3.63C56.75 3.59 56.84 3.55 56.94 3.51C57.04 3.47 57.13 3.43 57.21 3.39C57.2967 3.35667 57.3533 3.32333 57.38 3.29C57.5133 3.19 57.6367 3.12 57.75 3.08C57.87 3.04667 57.99 2.97333 58.11 2.86C58.1367 2.69333 58.1633 2.51 58.19 2.31C58.2233 2.11667 58.2567 1.92 58.29 1.72C58.33 1.52 58.3733 1.32333 58.42 1.13C58.4733 0.936667 58.53 0.756667 58.59 0.59C58.6033 0.563334 58.6333 0.546667 58.68 0.54C58.7267 0.54 58.7667 0.54 58.8 0.54C58.8133 0.54 58.83 0.543334 58.85 0.55C58.87 0.556667 58.89 0.56 58.91 0.56L59.03 0.54H59.06C59.1267 0.54 59.2067 0.556667 59.3 0.59C59.3933 0.63 59.4833 0.673334 59.57 0.72C59.65 0.773334 59.72 0.83 59.78 0.89C59.84 0.943334 59.87 0.990001 59.87 1.03C59.87 1.06333 59.8567 1.09 59.83 1.11L59.87 1.14C59.8633 1.14 59.8433 1.15333 59.81 1.18C59.7767 1.20667 59.7433 1.24333 59.71 1.29C59.67 1.33 59.6367 1.37 59.61 1.41C59.5833 1.45 59.57 1.48667 59.57 1.52C59.57 1.58 59.5533 1.66667 59.52 1.78C59.4933 1.89333 59.4633 2.01 59.43 2.13C59.3967 2.24333 59.3667 2.34667 59.34 2.44C59.3133 2.53333 59.3 2.59333 59.3 2.62L59.34 2.69C59.34 2.75667 59.3233 2.83 59.29 2.91C59.2567 2.99 59.24 3.06667 59.24 3.14C59.24 3.16 59.2333 3.18333 59.22 3.21C59.2067 3.23667 59.19 3.28667 59.17 3.36C59.1567 3.44 59.1333 3.54667 59.1 3.68C59.0667 3.81333 59.03 4.00333 58.99 4.25C58.9567 4.29667 58.94 4.38 58.94 4.5C58.9467 4.62667 58.94 4.72333 58.92 4.79L58.89 4.89C58.89 4.91 58.8967 4.94333 58.91 4.99C58.9167 5.04333 58.92 5.09333 58.92 5.14C58.8933 5.14 58.87 5.15667 58.85 5.19C58.83 5.22333 58.82 5.26 58.82 5.3V5.38L58.88 5.21C58.8867 5.25 58.8967 5.29333 58.91 5.34C58.9167 5.38667 58.92 5.42 58.92 5.44L58.89 5.53V5.65C58.89 5.66333 58.89 5.67667 58.89 5.69C58.8833 5.69667 58.88 5.70667 58.88 5.72V5.74H58.82V5.9H58.89L58.92 5.97L58.89 6.14L58.92 6.16C58.92 6.17333 58.9267 6.2 58.94 6.24C58.9467 6.28 58.95 6.31 58.95 6.33L58.92 6.36V6.47L58.66 6.6L58.04 6.7C57.9533 6.7 57.88 6.65333 57.82 6.56C57.76 6.46667 57.7167 6.42 57.69 6.42ZM56.37 5.77C56.43 5.79667 56.51 5.81667 56.61 5.83C56.7167 5.85 56.8233 5.86 56.93 5.86C57.0367 5.86667 57.1367 5.87333 57.23 5.88C57.33 5.89333 57.4133 5.91 57.48 5.93C57.4867 5.93 57.5133 5.94 57.56 5.96C57.6 5.98667 57.63 6 57.65 6C57.6567 6 57.66 5.97667 57.66 5.93V5.8C57.66 5.77333 57.67 5.70667 57.69 5.6C57.71 5.49333 57.72 5.35333 57.72 5.18V5.07H57.7C57.7 5.04333 57.7067 5.02 57.72 5C57.7267 4.98 57.73 4.95333 57.73 4.92V4.51L57.77 4.46V4.09C57.7433 4.09 57.6733 4.11333 57.56 4.16C57.4533 4.20667 57.3367 4.26 57.21 4.32C57.0833 4.38 56.9667 4.43667 56.86 4.49C56.76 4.54333 56.7067 4.57333 56.7 4.58C56.5733 4.74 56.4933 4.87667 56.46 4.99C56.42 5.11 56.39 5.21333 56.37 5.3V5.37C56.37 5.38333 56.3733 5.4 56.38 5.42C56.3867 5.44 56.39 5.45333 56.39 5.46L56.42 5.58C56.42 5.58667 56.41 5.61667 56.39 5.67C56.3767 5.71667 56.37 5.75 56.37 5.77ZM56.32 3.88C56.32 3.9 56.29 3.94 56.23 4C56.1767 4.06 56.14 4.1 56.12 4.12V4.08C56.12 4.02 56.14 3.97333 56.18 3.94C56.2267 3.9 56.2733 3.88 56.32 3.88ZM56.05 4.04L56.07 4.11C56.07 4.12333 56.06 4.15333 56.04 4.2C56.02 4.24667 55.99 4.27 55.95 4.27V4.16L56.05 4.04ZM56.44 3.73C56.4533 3.73 56.46 3.74 56.46 3.76C56.46 3.78667 56.45 3.81667 56.43 3.85C56.41 3.89 56.3867 3.91 56.36 3.91C56.3533 3.91 56.35 3.90667 56.35 3.9C56.35 3.88 56.36 3.84667 56.38 3.8C56.4067 3.75333 56.4267 3.73 56.44 3.73ZM60.59 5.03L60.63 4.93C60.63 4.91 60.6333 4.89333 60.64 4.88C60.6533 4.86667 60.6633 4.85 60.67 4.83L60.71 4.79C60.71 4.66333 60.7567 4.5 60.85 4.3C60.9367 4.10667 61.0367 3.97333 61.15 3.9L61.26 3.84C61.28 3.83333 61.29 3.81333 61.29 3.78C61.29 3.74667 61.2933 3.72 61.3 3.7L61.36 3.63C61.4333 3.53 61.5167 3.42333 61.61 3.31C61.7033 3.20333 61.7933 3.11 61.88 3.03C61.9733 2.94333 62.0567 2.87333 62.13 2.82C62.2033 2.77333 62.2667 2.75 62.32 2.75C62.34 2.75 62.3567 2.75333 62.37 2.76C62.3833 2.77333 62.4233 2.78667 62.49 2.8L62.65 3C62.6833 3.00667 62.7133 3.04333 62.74 3.11L62.79 3.21V3.43L62.83 3.49C62.85 3.51 62.8633 3.52667 62.87 3.54C62.8767 3.55333 62.89 3.56333 62.91 3.57L63.08 3.69C63.0867 3.72333 63.1133 3.77 63.16 3.83C63.2067 3.88333 63.2533 3.93667 63.3 3.99L63.5 4.22C63.52 4.24667 63.54 4.29667 63.56 4.37C63.5733 4.44333 63.5867 4.52333 63.6 4.61C63.62 4.69667 63.6333 4.77333 63.64 4.84C63.6467 4.91333 63.65 4.96333 63.65 4.99V5.1L63.53 5.39L63.51 5.51L63.37 5.66L63.16 5.83C63.1133 5.85667 63.0533 5.87 62.98 5.87C62.9067 5.87 62.8433 5.89333 62.79 5.94L62.67 5.98C62.6167 6.02 62.57 6.04 62.53 6.04C62.5233 6.04 62.5167 6.03667 62.51 6.03C62.51 6.02333 62.5033 6.02 62.49 6.02L62.32 6.05C62.2867 6.07667 62.21 6.09 62.09 6.09C62.0233 6.09 61.97 6.08667 61.93 6.08L61.61 6L61.29 5.88C61.1567 5.84667 61.0567 5.81667 60.99 5.79C60.9167 5.75667 60.84 5.66333 60.76 5.51C60.74 5.46333 60.72 5.41667 60.7 5.37C60.68 5.32333 60.66 5.28333 60.64 5.25L60.59 5.03ZM61.76 5.07L61.78 5.41L61.85 5.42C61.9233 5.4 62.01 5.38333 62.11 5.37C62.2167 5.35667 62.2933 5.33667 62.34 5.31L62.48 5.21L62.59 5.09L62.63 4.96L62.46 4.32L62.23 4.22L62.18 4.25C62.1667 4.25667 62.14 4.29 62.1 4.35C62.06 4.41 62.02 4.48333 61.98 4.57C61.94 4.65 61.8967 4.73667 61.85 4.83C61.81 4.92333 61.78 5.00333 61.76 5.07ZM61.33 4.23L61.26 4.18C61.2133 4.22667 61.1567 4.31 61.09 4.43C61.0233 4.55 60.99 4.65667 60.99 4.75C60.99 4.79 60.9967 4.81667 61.01 4.83L61.04 4.76L61.26 4.36C61.3 4.3 61.3233 4.25667 61.33 4.23Z" fill="black"/>
</svg>
