<svg width="63.854" height="14" viewBox="0 0 63.854 14" xmlns="http://www.w3.org/2000/svg"><path transform="translate(0 9.884) scale(.014 -.014)" d="m260 184q-2 0-6.5-1t-8.5-1h-2l-3 1q-3 0-7.5-2.5t-7.5-2.5l-11-6-10 2-15-4-11 2q-2 0-9-4.5t-10-4.5l-9-1-16-44q-3-9-5.5-17.5t-2.5-11.5v-12l4-5h4q3 0 8.5-1.5t8.5-1.5h24q37-3 49-3h4q2 0 11-1t10-1 5 0.5 8.5 0.5 8 0.5 4.5 0.5l46-8q3 0 9.5-1t13-2.5 12-3.5 5.5-3q0-11-11-18t-15-11h-1q-22-5-39.5-5.5t-39.5-0.5h-39q-6 2-12.5 2t-13.5 0q-9 0-35.5-2.5t-50.5-2.5l-18-4q-7 1-15 3t-12 6l-25 29-4 10v17l8 17q0 1 2 9l3 6q2 6 4 10t5 10l2-3q2 4 2 7v2l-4-2-2 2q0 6 2.5 13.5t3.5 18.5q1-1 3-1 3 0 7 2.5t6 4.5l-6 1q0 10 5 17t5 17q-6 0-9-2.5t-5-5.5-4-6.5-7-6.5v6q0 1 2.5 10.5t7 22 11 25 14.5 20.5l2-3q3 4 5.5 8.5t2.5 9.5v3l-4-9-4 2 4 12 2-2q1-1 5-1 1 0 3.5 10.5t3.5 15.5q-2-5-5.5-10.5t-4.5-6.5h-2q0 3 3 11t3 11l4 21v10l-21 17-10 8q-2 1-3 6.5t-1 6.5q0 8 9 8h58q4 0 12 3l13 3 24-1q16 1 31.5 1t31.5 3h101q6 0 17-7.5t11-12.5-3.5-6.5-3.5-4.5l1-5q0-2-10.5-3.5t-17.5-1.5h-17q-12 0-20-3.5t-14.5-7.5-12.5-7.5-12-3.5q0-4-5.5-6t-13-4-15-4.5-11.5-6.5q-8-8-15-17.5t-14-19.5q-8-11-15-23 0-4 4-4-3-10-8.5-13t-5.5-16q24 0 46 1.5t46 1.5h28q3 0 8.5-1.5t7.5-1.5l12-5v-4l8 4-2-10-4-14q-2 0-4-2t-5.5-5-8.5-5-14-2q-6 0-13.5 1t-12.5 1zm-200-28q-2-2-2-5v-4q6 6 12 6v3z"/><path transform="translate(5.558 9.884) scale(.014 -.014)" d="m155 32q18-5 18-7l-1-9q0-11 4-19 2-4 4-5 0-2-8.5-2.5t-20-1.5-23-1.5-18.5-0.5h-7q-22 0-37 7t-24 24l-4 2-2 13q-2 8-4 15t-2 15q1 6 5 10.5t7.5 8 5.5 5.5-1 2q0 5 6 13t15 16 18.5 15.5 15.5 11.5l8-2q2 0 10.5 2.5t13.5 4.5l14 10q7 1 7 7l39 18q1 2 3.5 4.5t2.5 3.5l-8 32q0 2-3 2-1 0-1-0.5t-1-0.5h-2q-5 0-17.5-2t-25.5-5-23.5-5-10.5-2q-1-1-3-1-6 0-12.5 6t-11.5 11l-10 4-5 4q0 2-1 3.5t-2 3.5l-2 4q0 5 16.5 9t41.5 7 53.5 4.5 52.5 1.5h3q14 0 23-4.5t15-11 10-14 9-13.5v-17q0-11 0.5-17.5t0.5-12.5-1-12.5-4-17.5q0-5 2-8.5t2-7.5v-1l1-7-8-9 6-7-7-9q0-2-1.5-5t-1.5-5l1-1-2-16 8-2-1-6-6-3 2-4-1-7q-5-9-7-26t-3-25q-1-2-7.5-2.5t-14-1-14-0.5-6.5 0q-9 0-15.5 5t-10 12.5-5 16-1.5 15.5q0 17 5.5 27.5t5.5 29.5q-2 8-0.5 16.5t-7.5 8.5q-2-2-4.5-4.5t-4.5-3.5q-1 1-5 1-2 0-9-3t-15-7-14.5-8-7.5-6q-11-7-21.5-12t-17.5-12l-2-15q0-1-1-4.5t-1-6.5l1-1 4 3 3-5q7-1 14-0.5t10-1.5q1 0 1.5 0.5t1.5 0.5q5 0 12.5-5t13.5-5q2 0 3 1z"/><path transform="translate(9.982 9.884) scale(.014 -.014)" d="m150-25q-3 0-8.5 0.5t-12 1.5-12 2.5-8.5 2.5l-24 9q-2 0-8 2.5t-20 7.5l-13 16q0 9 10 17t18 11q1 0 5.5-1t9.5-2.5 9.5-2.5 5.5-1q9 0 24 1t29.5 2.5 25 4 10.5 5.5l5 26q0 11-7 18t-17 7q-3 0-5-2l-27 5h-10q-8 0-25 3.5t-33.5 10.5-29 18-12.5 26q0 9 2.5 12t6.5 13l-3 2q0 3 2.5 9t6 12.5 6.5 12.5 4 9l35 39q2 2 4.5 1.5t2.5 1.5l23 15h5t6 2l27 5h9l2-2q5-2 10.5-2t12.5 0h17q2 0 5.5-5.5t5.5-5.5q9-6 16-10t12.5-8.5 8.5-11 3-18.5q0-3-5-5t-7-4h-18q-1 0-4.5-1t-8-2-8.5-2-5-1h-37q-2-5-11.5-6.5t-14.5-4.5q-14-8-17-17.5t-5-23.5q15-10 35.5-14t28.5-4l27-8q27-8 37.5-22.5t14.5-28.5l3-13v-8q0-4-1-7t-2-23l-5-15-3-2q-11-15-18.5-23.5t-26.5-11.5q-1 0-2.5-2t-7-4-17-4-32.5-2zm-103 193q0-9 7.5-13t15.5-4l-3 11v2q0 7 1 8t1 9q-4 0-4 4 0 2 2 7t4 6v-6q3 0 3.5 5t0.5 8q0 5-2 5l-2-5v13h-2q-1-3-4-7.5t-5-7.5q-2-7-2.5-14t-3.5-14q-2-5-4.5-4t-2.5-3zm74 91q-17 0-28.5-13.5t-16.5-29.5v-1q8 0 10.5 10t6.5 15q1 1 5 3t9 5 9.5 5.5 6.5 5.5z"/><path transform="translate(14.112 9.884) scale(.014 -.014)" d="m323 242-2-5 1 5-25-10q-1-1-3-1t-2 2l-5-1q-8-1-20.5-2t-24.5-2-20.5-3.5-8.5-6.5v-1l2-2q-2-2-3-2t-1-2 2-5q0-5-3-5t-3-8q0-4 6-4-6-3-6-13 0-8 3-9l3-10q-7-7-7-13 0-5 1-7 0-8-0.5-11t-0.5-3.5-0.5-1-0.5-3.5l1-1q0-8-3.5-19.5t-5.5-13.5h-2v-4h5q-2-2-4-3t-2-3q0-1 1-2h7l-7-32 4-2q6-2 17-2 9 1 16 4.5t15 4.5h3q4 0 9.5 0.5t10.5 0.5h47q1 0 5-1.5t8.5-3.5 7.5-4 3-2q0-5-6-11.5t-11-10.5l-45-14-58-6q-8 0-22-7.5t-28-7.5v4l-31 3q-11 8-16 10t-8 2.5-5 1.5-7 6q0 3 0 12.5t0.5 19.5 1.5 18.5 3 10.5l3-43 4-6q0 14 0.5 42t3.5 65l-1-2q-1-1-1.5 4t-0.5 11q0 11 1 11h1l3-11 8 56h-4v17q-6-2-14-2t-15-5l-21-1-8 1-5-2-3 3q-8 0-19 14t-11 28q0 6 12.5 9.5t29.5 6.5 34.5 5.5 28.5 5.5q3 9 4.5 24t2 28 1 21 0.5 4q0 1 2 7.5t4.5 14 4.5 14 2 8.5q-1 1-1 3 0 3 2 8t2 8l2 1q7 0 20.5-4t26.5-10.5 23-16 10-20.5-10-26-10-32l-6-23q27 0 55.5 2.5t42.5 2.5q8 0 13.5-3t5.5-14l-10-28zm-214-167-5-1q0 2 0.5 14t2.5 15zm39-32-5-11v-10l10 21zm5 20q-4 0-4-5t4-5q5 0 5 5t-5 5z"/><path transform="translate(22.12 9.884) scale(.014 -.014)" d="m39 48q10 3 24 3 28 0 52-4t44-5l8 5 27 2q1-1 3-1 4 0 6 3t5 3q9 0 22 4t17 10q7 23 10 46t3 40l-6 12q0 5-7.5 7.5t-9.5 2.5l-11 4q-9 0-15.5 3t-14 6-18.5 6-28 3h-9q-4 0-4 4-8 8-17.5 10t-16.5 11q-2 1-5 8.5t-6 17-5 18.5-2 12q5 0 5 7 0 2-0.5 4t-0.5 4 3 5l4 3q4 4 2.5 7.5t2.5 5.5v-9l2 1 23 72 31 33 18 11 19-7q7 0 16.5 3t17.5 3q14 0 33-5t37-12.5 32.5-15 19.5-11.5q-1-7-3-7t-2-2q0-3 1-4.5t1-4.5-5-7-9-4l-58 5h-3q-5 0-15.5 0.5t-15.5 0.5q-15 0-27-8t-20.5-21.5-13-30-4.5-34.5q0-3 4-6t9-4.5 10-2.5 8-1l4-1q7-5 9-7t7-2h4l12 1 17-6q2-1 7-1h11q16-6 31-13t26.5-19.5 18.5-32 7-49.5q0-9-1-17.5t-4-18.5l-1-2q-2-2-7-9t-7-8l-4-11-5-4-39-51q-13-2-24.5-6.5t-23.5-4.5q-2 0-8 2-8-2-15-2t-14 0q-10 0-35 2t-52.5 5.5-53 7-37.5 6.5q0 3 2.5 3.5t2.5 4.5q0 1-1 1h-1q-2 0-3 3 2 0 6.5 1t4.5 3l-3 7 2 3q1 2 2 3t1 2q0 5-2 4t-2 7zm70 297q0-2-2.5-12.5t-3.5-12.5q-3 0-3 3 0 1 3 10.5t6 11.5zm7 26q0-1 1-1h3l-9-15q-2 0-2 3 0 2 2.5 6.5t4.5 6.5z"/><path transform="translate(27.608 9.884) scale(.014 -.014)" d="m126 112q6 0 9.5 3t5.5 6 4.5 6 6.5 3q13 0 24.5 10.5t11.5 49.5v19q0 5-4 9t-6 4q-1-1-7-4t-13-7.5-14-9.5-11-10v-10q-2-16-8-35t-6-36h6zm143 29-13-15-6-4q-11-5-21-10.5t-20-8.5l-4-4h-5q-6 0-7.5-4t-7.5-5q-11-2-14-4t-3-3q1-2 1-2 0-1-3.5-2t-7.5-1.5-7-1-2-0.5h-5q-3-3-16-4t-21-6l6-24q5-2 13.5-4t17.5-3 17-1.5 12-0.5q14 0 27.5 1.5t28.5 1.5q14 0 27-2.5t25-10.5v-7q0-5-0.5-11.5t-3.5-8.5l-4-2q-1-1-8-2.5t-16-3.5-18.5-3.5-14.5-1.5q-20 0-39.5-0.5t-39.5-0.5q-15 0-32.5 5t-33 14-27 22-14.5 29l3 7q0 2 1 8t2 14v9h7l1 1q0 6 1 7 0 1-1.5 2.5t-1.5 3.5q0 1 3 3l1 13q0 4 0.5 9t4.5 13l3 2q0 4-4 8 3 1 4 6t3 5q1 0 1-0.5t1-0.5l4-3q1 1 1 1h3q3 0 3 2 0 5-4.5 8.5t-4.5 8.5q0 2 1 3 0 2-1 3t-1 2l3 1q6 15 13.5 23t16.5 16l5 3q14 9 27.5 20t30.5 11 36.5-3.5 37.5-3.5q24-12 27.5-14.5t5.5-2.5l-1-10 8-6 3-6-7-9 6-8-6-9q-2-2-2-5t0-5l1-1 1-5-2-11 7-3v-6l-4-3 2-3zm2 41h2q2 0 2-3 0-4-4-4-2 0-2 4 0 3 2 3zm4-14q0-4-2-4t-2 4q0 2 1 2t3-2z"/><path transform="translate(31.962 9.884) scale(.014 -.014)" d="m155 32q18-5 18-7l-1-9q0-11 4-19 2-4 4-5 0-2-8.5-2.5t-20-1.5-23-1.5-18.5-0.5h-7q-22 0-37 7t-24 24l-4 2-2 13q-2 8-4 15t-2 15q1 6 5 10.5t7.5 8 5.5 5.5-1 2q0 5 6 13t15 16 18.5 15.5 15.5 11.5l8-2q2 0 10.5 2.5t13.5 4.5l14 10q7 1 7 7l39 18q1 2 3.5 4.5t2.5 3.5l-8 32q0 2-3 2-1 0-1-0.5t-1-0.5h-2q-5 0-17.5-2t-25.5-5-23.5-5-10.5-2q-1-1-3-1-6 0-12.5 6t-11.5 11l-10 4-5 4q0 2-1 3.5t-2 3.5l-2 4q0 5 16.5 9t41.5 7 53.5 4.5 52.5 1.5h3q14 0 23-4.5t15-11 10-14 9-13.5v-17q0-11 0.5-17.5t0.5-12.5-1-12.5-4-17.5q0-5 2-8.5t2-7.5v-1l1-7-8-9 6-7-7-9q0-2-1.5-5t-1.5-5l1-1-2-16 8-2-1-6-6-3 2-4-1-7q-5-9-7-26t-3-25q-1-2-7.5-2.5t-14-1-14-0.5-6.5 0q-9 0-15.5 5t-10 12.5-5 16-1.5 15.5q0 17 5.5 27.5t5.5 29.5q-2 8-0.5 16.5t-7.5 8.5q-2-2-4.5-4.5t-4.5-3.5q-1 1-5 1-2 0-9-3t-15-7-14.5-8-7.5-6q-11-7-21.5-12t-17.5-12l-2-15q0-1-1-4.5t-1-6.5l1-1 4 3 3-5q7-1 14-0.5t10-1.5q1 0 1.5 0.5t1.5 0.5q5 0 12.5-5t13.5-5q2 0 3 1z"/><path transform="translate(39.186 9.884) scale(.014 -.014)" d="m45 170q0 1 1 7t2.5 13 2.5 13.5 1 8.5l3 12q0 3 4 8t4 7l5-3q0 1-0.5 2t-0.5 3q0 4 0.5 7t0.5 5l3 8q0 1-0.5 2.5t-0.5 3.5q0 4 0.5 7.5t0.5 5.5q-5 0-6-1l-2-1q0 4 1.5 15.5t4.5 26 7.5 31.5 10.5 34q3 3 5 10.5t6 15 11 13 20 5.5q2 0 12-3t25-3q11 0 17.5-2.5t6.5-13.5q0-6-1-9l-6-48q15 10 24 16t26 12l25 11q2-1 3-3t6-3l8-3q26-11 46.5-30.5t32.5-48.5q3-5 2.5-10t1.5-11l1-2q4-4 4.5-12t6.5-18l2-3q6 0 6-5t-1-6l5 2q0-3 0.5-3.5t0.5-4.5q0-2-1-4t-1-3v-3l3 1q4-3 5.5-13.5t3.5-15.5q-2 0-2-3v-3h3q-2-7-8.5-14.5t-7.5-14.5v-1q0-2-1.5-1.5t-3.5-0.5q-7-6-14.5-14t-13.5-15.5-10.5-14-4.5-7.5q-8-7-17.5-19.5t-17.5-24.5-13-20.5-5-8.5l-3 1q-2-2-6-6.5t-8.5-9.5-9.5-9-8-5q-2-1-6.5-1t-4.5-3q0-2 1-3h-9l-5 4q-2-2-2.5-1t-0.5-1q-5 0-10.5 2.5t-10.5 2.5q-22 1-39.5 2.5t-37.5 1.5h-12q0-4-9-4l-3 1q-2 0-2-3v-2h-11l-3-2q-2 8-5 10-2-3-5-3h-9l-3 4q-1 0-1-0.5t-1-0.5h-2q-11 4-15 12.5t-4 6.5l-1 6v1q0 2 1 5t1 6q0 4-1 4.5t-1 2.5q0 1 0.5 2.5t1.5 7.5 2 18 2 33l1 10q2 10 2 10 0 4-2 4 6 8 6 18t1 20zm90-111q1 0 1-2t0-3q8 0 15-1.5t15-1.5q6 0 14 3h34q1 0 7.5 7.5t14.5 18 16.5 22 15.5 19.5l20 24q6 7 7 10.5t9 17.5l6 9-9 13q-2 3-7.5 20t-13 37.5-16 38.5-17.5 24h-2q-2 0-4 6.5t-4 6.5-3-1-3-3q-24-18-38.5-23t-19.5-13q-9-15-12-32t-9-35q0-2-1-3t-1-2l2-3-6-7q0-2 2-4v-1q0-4-1.5-5.5t-1.5-3.5q0-5 4-10t4-10l1-1-4-2q2-2 2-5v-2l-3-2 2-7q0-1-1.5-3t-1.5-4l-2 2q-2-2-2-4 1-3 3-3l-2-10-2-2v-4l3-5q-4-1-4-6l2-6q0-5-4.5-10.5t-4.5-10.5h2q-2-2-2.5-5t-0.5-6q0-10 1-13zm-45 205-4-7q0-4-2.5-10.5t-2.5-9.5v-16h5l4 8q0 4 2 9.5t2 9.5v16zm-34-72q-1-1-1-2v-14l5 4v19zm7 32q-2-2-2.5-6.5t-0.5-5.5v-5l4 5 4 12zm19 70q0 2-2 2t-2-2q0-5 3-5 1 0 1 3z"/><path transform="translate(45.024 9.884) scale(.014 -.014)" d="m23 107q0 2 1 3.5t2 3.5l3 3q0 14 9.5 35t21.5 29l8 4q2 1 2 4.5t1 5.5l4 5q8 11 18 22.5t19.5 20.5 17.5 14.5 14 5.5q2 0 3.5-1t8.5-3l11-14q4-1 7-8l3-7v-16l3-4q2-2 3-3.5t3-2.5l12-8q1-4 6-10t10-12l14-16q2-3 4-11t3.5-17 2.5-16.5 1-10.5v-8l-9-21-1-8-10-11-15-12q-5-3-13-3t-14-5l-8-3q-6-4-10-4-1 0-1.5 0.5t-1.5 0.5l-12-2q-4-3-17-3-7 0-11 1l-23 6-23 8q-14 4-21.5 7t-16.5 20q-2 5-4 10t-4 8l-4 16zm82-34 5-1q8 2 19 3.5t16 4.5l10 7 8 9 3 9-12 46-17 7-3-2q-2-1-6-7.5t-8.5-15.5-9-19-6.5-17zm-37 88q-5-5-12-18t-7-23q0-4 1-6l2 5 16 29q4 6 5 9z"/><path transform="translate(48.65 9.884) scale(.014 -.014)" d="m33 32 5 4h-5v5q0 1 2 3l3-4 17 19q-1 2-1 3t-3 3q-3-3-4-3.5t-10-0.5q-1 2-1 5 0 8 3.5 13t3.5 10h-2q-2 0-5 4-2 0-3.5-1.5t-2.5-1.5q1 4 5.5 11.5t4.5 10.5l-4 13q0 3 0.5 7t0.5 9-0.5 10-0.5 11l2 4q0 14-2 14.5t-2 5.5q0 1 4 5-2 2-2 3 0 2 2.5 5t2.5 7l-3 1q3 8 4 20t2 24.5 1.5 23 2.5 16.5q0 25 5.5 40.5t5.5 35.5q0 10 1 24t2.5 26.5 2.5 21.5 1 11h7l17 9h11q5 0 8.5-5t9.5-10l16-15 6-6q0-2-0.5-4.5t-0.5-4.5l-3-18q0-7 2.5-24.5t2.5-24.5q-1-2-1-2l1-26q0-2-2-4t-2-7q1-2 1-4 0-4-3-4t-3-2l1-1h4q0-2-1.5-5t-1.5-5q4-2 5-11t1-19l2-1q-1-2-2-2.5t-1-2.5 2-4q0-5-3-5.5t-3-8.5q0-3 6-3-6-6-6-5 0-2 4-3l3-10q-6-8-6-14v-2q5 2 9.5 7t8.5 8l20 11-2 1q5 0 11.5 3.5t12.5 7 10.5 7 5.5 3.5q0 2-0.5 3t-0.5 2l3 3 44 36 9 9q2 1 7.5 6.5t7.5 7.5l2 2h-4l12 12q-1 1-1 2 0 4 4 8t7 4q1 0 1.5-1.5t2.5-1.5l5 1q1 0 3.5-2.5t4.5-2.5 3 0.5 3 0.5q3 0 7-4t7.5-9.5 6-11.5 2.5-10l-3-8-6-6q-9-9-19-16t-18-15l-38-41-8-6q5-8 10.5-22t5.5-16l8-29q4-15 15.5-31.5t21.5-35.5l-3-15 11-8 10-13-3-11 10-5-3-12q0-2 1-6t3-5l2-4q5-18 14.5-42t19-46 16-36.5 6.5-14.5v10q-2 2-2 11t-2 11l5 2q3-13 5-20t3-11.5 1.5-7 0.5-5.5q0-4-1-6l-5-10-11-6-10-10-12 2-7-3-3-8q-4-1-8-0.5t-9-0.5l-2 4q-2 6-8 19.5t-13 28.5-13.5 28.5-9.5 19.5l-11 10-5 14-5 2-7 16q-8 14-10.5 21.5t-2.5 11.5q0 3 3 5l-6 12-4 12q-20 49-33.5 70t-15.5 23v2h5v3q0 2-2.5 7.5t-2.5 6.5v2q0 2 1 2.5t1 2.5h-2l-6 9q-2 1-4 9t-4 10l-3 7q-10-10-21.5-14.5t-20.5-13.5l-18-7v-84l3-1q-2-6-2-10t2-4l-2-5q-1-2-1-5 0-5 2-9t2-9v-5l-2-2 4-5q-1-1-1.5-2t-2.5-2v2q-6-2-7-3l10-2q-6-6-11-6-4 3-4.5 4t-5.5 1q-11 0-23-3t-19-5q-20 3-26.5 10.5t-6.5 15.5q0 4 1 6v1q0 4 3 4.5t3 8.5q0 3-11 3zm341-66-3-6-9 11t-3 8l5-3zm-323 105q5 0 5 4t3 17q-2 0-4-3t-2-5q0-1 0.5-1t0.5-1q0-2-2-4t-2-5q0-1 1-2zm344-154 2-5-3-5-6 2 3 6zm-47 86q2 1 2 1 4 0 4-4 0-3-3-3-4 0-4 4 0 1 1 2zm38-76h2q2 0 2-1 0-2-2-3t-4-1-2 1q0 2 4 4zm-30 64q1-2 1-2v-2q-4 0-4 5h1q1 0 2-1zm22-44 2-3-8 2zm-338 152h-2l-1-1q0-1 4-3zm3-24v5q-1 0-2-3z"/><path transform="translate(54.852 9.884) scale(.014 -.014)" d="m195 1q-14-6-34-10t-36-4q-9 0-24.5 2t-31 7-27 12-11.5 18q0 4-0.5 8.5t-0.5 8.5q2 28 3.5 42t4 22 6 14.5 9.5 20.5q0 1 2.5 2.5t4.5 3.5l7 3h5q0-4-1.5-5.5t-1.5-4.5v-2q4 2 6.5 6t5.5 8l46 39h-16q4 4 13 8t19.5 8.5 19.5 8.5 12 7q14 11 26.5 15t25.5 16q3 18 6 39t7 42.5 9.5 42 11.5 38.5q2 3 7 3.5t8 0.5q2 0 4-1t4-1l9 2h2q7 0 17-4t19-9.5 15.5-11.5 6.5-10-3-6l3-2q-1 0-4.5-3t-7.5-7.5-7-9-3-7.5q0-7-3-19t-6.5-24.5-6.5-22.5-3-13l3-5q0-7-3.5-15.5t-3.5-16.5q0-2-1.5-5t-3.5-11-5.5-22.5-7.5-40.5q-4-5-3.5-18.5t-1.5-20.5l-2-7q0-2 1-7.5t1-10.5q-3 0-5-3.5t-2-7.5v-6l4 12q1-4 2-9t1-7l-2-7v-8q0-2-0.5-3t-0.5-2v-2h-4v-11h5l2-5-2-12 2-2q0-1 1-5.5t1-6.5l-2-2v-8l-19-9-44-7q-9 0-15.5 10t-9.5 10zm-92 46q6-3 17-4.5t22.5-2 22-1.5 17.5-3q1 0 5.5-2.5t6.5-2.5q1 0 1 5v9q0 3 2 14.5t2 29.5v8h-1q0 3 1 5t1 6v29l3 4v26q-3 0-15-5t-25.5-11.5-24.5-12-12-6.5q-13-17-17-29.5t-6-21.5v-5q0-2 0.5-4t0.5-3l2-8q0-1-1.5-6.5t-1.5-7.5zm-4 135q0-2-6-8.5t-8-8.5v3q0 6 4.5 10t9.5 4zm-18-16q0-2-2-7t-6-5v8l7 9zm27 27q1 0 1-2 0-3-2-7t-5-4q-1 0-1 1 0 2 2.5 7t4.5 5z"/><path transform="translate(60.228 9.884) scale(.014 -.014)" d="m23 107q0 2 1 3.5t2 3.5l3 3q0 14 9.5 35t21.5 29l8 4q2 1 2 4.5t1 5.5l4 5q8 11 18 22.5t19.5 20.5 17.5 14.5 14 5.5q2 0 3.5-1t8.5-3l11-14q4-1 7-8l3-7v-16l3-4q2-2 3-3.5t3-2.5l12-8q1-4 6-10t10-12l14-16q2-3 4-11t3.5-17 2.5-16.5 1-10.5v-8l-9-21-1-8-10-11-15-12q-5-3-13-3t-14-5l-8-3q-6-4-10-4-1 0-1.5 0.5t-1.5 0.5l-12-2q-4-3-17-3-7 0-11 1l-23 6-23 8q-14 4-21.5 7t-16.5 20q-2 5-4 10t-4 8l-4 16zm82-34 5-1q8 2 19 3.5t16 4.5l10 7 8 9 3 9-12 46-17 7-3-2q-2-1-6-7.5t-8.5-15.5-9-19-6.5-17zm-37 88q-5-5-12-18t-7-23q0-4 1-6l2 5 16 29q4 6 5 9z"/></svg>