<?xml version="1.0" encoding="utf-8" ?>
<svg baseProfile="tiny" height="100%" version="1.2" width="100%" xmlns="http://www.w3.org/2000/svg" xmlns:ev="http://www.w3.org/2001/xml-events" xmlns:xlink="http://www.w3.org/1999/xlink"><defs /><g><path d="M664 1765Q645 1765 631.5 1778.5Q618 1792 618 1811Q618 1831 631.5 1844.5Q645 1858 664 1858Q684 1858 697.0 1844.5Q710 1831 710 1811Q710 1792 697.0 1778.5Q684 1765 664 1765ZM778 1765Q759 1765 745.5 1778.5Q732 1792 732 1811Q732 1831 745.5 1844.5Q759 1858 778 1858Q798 1858 811.0 1844.5Q824 1831 824 1811Q824 1792 811.0 1778.5Q798 1765 778 1765ZM892 1765Q873 1765 859.5 1778.5Q846 1792 846 1811Q846 1831 859.5 1844.5Q873 1858 892 1858Q912 1858 925.0 1844.5Q938 1831 938 1811Q938 1792 925.0 1778.5Q912 1765 892 1765ZM1007 1765Q988 1765 974.5 1778.5Q961 1792 961 1811Q961 1831 974.5 1844.5Q988 1858 1007 1858Q1027 1858 1040.0 1844.5Q1053 1831 1053 1811Q1053 1792 1040.0 1778.5Q1027 1765 1007 1765ZM1120 1765Q1101 1765 1087.5 1778.5Q1074 1792 1074 1811Q1074 1831 1087.5 1844.5Q1101 1858 1120 1858Q1140 1858 1153.0 1844.5Q1166 1831 1166 1811Q1166 1792 1153.0 1778.5Q1140 1765 1120 1765ZM1234 1765Q1215 1765 1201.5 1778.5Q1188 1792 1188 1811Q1188 1831 1201.5 1844.5Q1215 1858 1234 1858Q1254 1858 1267.0 1844.5Q1280 1831 1280 1811Q1280 1792 1267.0 1778.5Q1254 1765 1234 1765ZM1349 1765Q1330 1765 1316.5 1778.5Q1303 1792 1303 1811Q1303 1831 1316.5 1844.5Q1330 1858 1349 1858Q1369 1858 1382.0 1844.5Q1395 1831 1395 1811Q1395 1792 1382.0 1778.5Q1369 1765 1349 1765ZM1463 1765Q1444 1765 1430.5 1778.5Q1417 1792 1417 1811Q1417 1831 1430.5 1844.5Q1444 1858 1463 1858Q1483 1858 1496.0 1844.5Q1509 1831 1509 1811Q1509 1792 1496.0 1778.5Q1483 1765 1463 1765ZM525 955Q506 955 492.5 968.5Q479 982 479 1001Q479 1021 492.5 1034.5Q506 1048 525 1048Q545 1048 558.0 1034.5Q571 1021 571 1001Q571 982 558.0 968.5Q545 955 525 955ZM638 955Q619 955 605.5 968.5Q592 982 592 1001Q592 1021 605.5 1034.5Q619 1048 638 1048Q658 1048 671.0 1034.5Q684 1021 684 1001Q684 982 671.0 968.5Q658 955 638 955ZM751 955Q732 955 718.5 968.5Q705 982 705 1001Q705 1021 718.5 1034.5Q732 1048 751 1048Q771 1048 784.0 1034.5Q797 1021 797 1001Q797 982 784.0 968.5Q771 955 751 955ZM865 955Q846 955 832.5 968.5Q819 982 819 1001Q819 1021 832.5 1034.5Q846 1048 865 1048Q885 1048 898.0 1034.5Q911 1021 911 1001Q911 982 898.0 968.5Q885 955 865 955ZM979 955Q960 955 946.5 968.5Q933 982 933 1001Q933 1021 946.5 1034.5Q960 1048 979 1048Q999 1048 1012.0 1034.5Q1025 1021 1025 1001Q1025 982 1012.0 968.5Q999 955 979 955ZM1092 955Q1073 955 1059.5 968.5Q1046 982 1046 1001Q1046 1021 1059.5 1034.5Q1073 1048 1092 1048Q1112 1048 1125.0 1034.5Q1138 1021 1138 1001Q1138 982 1125.0 968.5Q1112 955 1092 955ZM1205 955Q1186 955 1172.5 968.5Q1159 982 1159 1001Q1159 1021 1172.5 1034.5Q1186 1048 1205 1048Q1225 1048 1238.0 1034.5Q1251 1021 1251 1001Q1251 982 1238.0 968.5Q1225 955 1205 955ZM359 -1Q340 -1 326.5 12.5Q313 26 313 45Q313 65 326.5 78.5Q340 92 359 92Q379 92 392.0 78.5Q405 65 405 45Q405 26 392.0 12.5Q379 -1 359 -1ZM473 -1Q454 -1 440.5 12.5Q427 26 427 45Q427 65 440.5 78.5Q454 92 473 92Q493 92 506.0 78.5Q519 65 519 45Q519 26 506.0 12.5Q493 -1 473 -1ZM587 -1Q568 -1 554.5 12.5Q541 26 541 45Q541 65 554.5 78.5Q568 92 587 92Q607 92 620.0 78.5Q633 65 633 45Q633 26 620.0 12.5Q607 -1 587 -1ZM701 -1Q682 -1 668.5 12.5Q655 26 655 45Q655 65 668.5 78.5Q682 92 701 92Q721 92 734.0 78.5Q747 65 747 45Q747 26 734.0 12.5Q721 -1 701 -1ZM815 -1Q796 -1 782.5 12.5Q769 26 769 45Q769 65 782.5 78.5Q796 92 815 92Q835 92 848.0 78.5Q861 65 861 45Q861 26 848.0 12.5Q835 -1 815 -1ZM929 -1Q910 -1 896.5 12.5Q883 26 883 45Q883 65 896.5 78.5Q910 92 929 92Q949 92 962.0 78.5Q975 65 975 45Q975 26 962.0 12.5Q949 -1 929 -1ZM1044 -1Q1025 -1 1011.5 12.5Q998 26 998 45Q998 65 1011.5 78.5Q1025 92 1044 92Q1064 92 1077.0 78.5Q1090 65 1090 45Q1090 26 1077.0 12.5Q1064 -1 1044 -1ZM1157 -1Q1138 -1 1124.5 12.5Q1111 26 1111 45Q1111 65 1124.5 78.5Q1138 92 1157 92Q1177 92 1190.0 78.5Q1203 65 1203 45Q1203 26 1190.0 12.5Q1177 -1 1157 -1ZM238 -1Q219 -1 205.5 12.5Q192 26 192 45Q192 65 205.5 78.5Q219 92 238 92Q258 92 271.0 78.5Q284 65 284 45Q284 26 271.0 12.5Q258 -1 238 -1ZM257 109Q238 109 224.5 122.5Q211 136 211 155Q211 175 224.5 188.5Q238 202 257 202Q277 202 290.0 188.5Q303 175 303 155Q303 136 290.0 122.5Q277 109 257 109ZM277 220Q258 220 244.5 233.5Q231 247 231 266Q231 286 244.5 299.5Q258 313 277 313Q297 313 310.0 299.5Q323 286 323 266Q323 247 310.0 233.5Q297 220 277 220ZM296 330Q277 330 263.5 343.5Q250 357 250 376Q250 396 263.5 409.5Q277 423 296 423Q316 423 329.0 409.5Q342 396 342 376Q342 357 329.0 343.5Q316 330 296 330ZM316 440Q297 440 283.5 453.5Q270 467 270 486Q270 506 283.5 519.5Q297 533 316 533Q336 533 349.0 519.5Q362 506 362 486Q362 467 349.0 453.5Q336 440 316 440ZM335 551Q316 551 302.5 564.5Q289 578 289 597Q289 617 302.5 630.5Q316 644 335 644Q355 644 368.0 630.5Q381 617 381 597Q381 578 368.0 564.5Q355 551 335 551ZM354 661Q335 661 321.5 674.5Q308 688 308 707Q308 727 321.5 740.5Q335 754 354 754Q374 754 387.0 740.5Q400 727 400 707Q400 688 387.0 674.5Q374 661 354 661ZM375 771Q356 771 342.5 784.5Q329 798 329 817Q329 837 342.5 850.5Q356 864 375 864Q395 864 408.0 850.5Q421 837 421 817Q421 798 408.0 784.5Q395 771 375 771ZM394 882Q375 882 361.5 895.5Q348 909 348 928Q348 948 361.5 961.5Q375 975 394 975Q414 975 427.0 961.5Q440 948 440 928Q440 909 427.0 895.5Q414 882 394 882ZM414 992Q395 992 381.5 1005.5Q368 1019 368 1038Q368 1058 381.5 1071.5Q395 1085 414 1085Q434 1085 447.0 1071.5Q460 1058 460 1038Q460 1019 447.0 1005.5Q434 992 414 992ZM433 1103Q414 1103 400.5 1116.5Q387 1130 387 1149Q387 1169 400.5 1182.5Q414 1196 433 1196Q453 1196 466.0 1182.5Q479 1169 479 1149Q479 1130 466.0 1116.5Q453 1103 433 1103ZM453 1213Q434 1213 420.5 1226.5Q407 1240 407 1259Q407 1279 420.5 1292.5Q434 1306 453 1306Q473 1306 486.0 1292.5Q499 1279 499 1259Q499 1240 486.0 1226.5Q473 1213 453 1213ZM472 1324Q453 1324 439.5 1337.5Q426 1351 426 1370Q426 1390 439.5 1403.5Q453 1417 472 1417Q492 1417 505.0 1403.5Q518 1390 518 1370Q518 1351 505.0 1337.5Q492 1324 472 1324ZM491 1434Q472 1434 458.5 1447.5Q445 1461 445 1480Q445 1500 458.5 1513.5Q472 1527 491 1527Q511 1527 524.0 1513.5Q537 1500 537 1480Q537 1461 524.0 1447.5Q511 1434 491 1434ZM511 1544Q492 1544 478.5 1557.5Q465 1571 465 1590Q465 1610 478.5 1623.5Q492 1637 511 1637Q531 1637 544.0 1623.5Q557 1610 557 1590Q557 1571 544.0 1557.5Q531 1544 511 1544ZM530 1655Q511 1655 497.5 1668.5Q484 1682 484 1701Q484 1721 497.5 1734.5Q511 1748 530 1748Q550 1748 563.0 1734.5Q576 1721 576 1701Q576 1682 563.0 1668.5Q550 1655 530 1655ZM543 1761Q521 1761 505.0 1777.0Q489 1793 489 1815Q489 1837 505.0 1852.5Q521 1868 543 1868Q566 1868 581.5 1852.5Q597 1837 597 1815Q597 1793 581.5 1777.0Q566 1761 543 1761ZM543 1786Q572 1786 572 1816Q572 1827 563.5 1835.0Q555 1843 543 1843Q531 1843 522.5 1835.0Q514 1827 514 1816Q514 1786 543 1786Z" transform="translate(0.0, 72) scale(0.036, -0.036)" /><path d="M663 908Q644 908 630.5 921.5Q617 935 617 954Q617 974 630.5 987.5Q644 1001 663 1001Q683 1001 696.0 987.5Q709 974 709 954Q709 935 696.0 921.5Q683 908 663 908ZM553 906Q534 906 520.5 919.5Q507 933 507 952Q507 972 520.5 985.5Q534 999 553 999Q573 999 586.0 985.5Q599 972 599 952Q599 933 586.0 919.5Q573 906 553 906ZM443 880Q424 880 410.5 893.5Q397 907 397 926Q397 946 410.5 959.5Q424 973 443 973Q463 973 476.0 959.5Q489 946 489 926Q489 907 476.0 893.5Q463 880 443 880ZM347 825Q328 825 314.5 838.5Q301 852 301 871Q301 891 314.5 904.5Q328 918 347 918Q367 918 380.0 904.5Q393 891 393 871Q393 852 380.0 838.5Q367 825 347 825ZM268 745Q249 745 235.5 758.5Q222 772 222 791Q222 811 235.5 824.5Q249 838 268 838Q288 838 301.0 824.5Q314 811 314 791Q314 772 301.0 758.5Q288 745 268 745ZM208 650Q189 650 175.5 663.5Q162 677 162 696Q162 716 175.5 729.5Q189 743 208 743Q228 743 241.0 729.5Q254 716 254 696Q254 677 241.0 663.5Q228 650 208 650ZM163 548Q144 548 130.5 561.5Q117 575 117 594Q117 614 130.5 627.5Q144 641 163 641Q183 641 196.0 627.5Q209 614 209 594Q209 575 196.0 561.5Q183 548 163 548ZM133 441Q114 441 100.5 454.5Q87 468 87 487Q87 507 100.5 520.5Q114 534 133 534Q153 534 166.0 520.5Q179 507 179 487Q179 468 166.0 454.5Q153 441 133 441ZM116 330Q97 330 83.5 343.5Q70 357 70 376Q70 396 83.5 409.5Q97 423 116 423Q136 423 149.0 409.5Q162 396 162 376Q162 357 149.0 343.5Q136 330 116 330ZM117 213Q98 213 84.5 226.5Q71 240 71 259Q71 279 84.5 292.5Q98 306 117 306Q137 306 150.0 292.5Q163 279 163 259Q163 240 150.0 226.5Q137 213 117 213ZM148 96Q129 96 115.5 109.5Q102 123 102 142Q102 162 115.5 175.5Q129 189 148 189Q168 189 181.0 175.5Q194 162 194 142Q194 123 181.0 109.5Q168 96 148 96ZM219 -6Q200 -6 186.5 7.5Q173 21 173 40Q173 60 186.5 73.5Q200 87 219 87Q239 87 252.0 73.5Q265 60 265 40Q265 21 252.0 7.5Q239 -6 219 -6ZM335 -9Q316 -9 302.5 4.5Q289 18 289 37Q289 57 302.5 70.5Q316 84 335 84Q355 84 368.0 70.5Q381 57 381 37Q381 18 368.0 4.5Q355 -9 335 -9ZM434 62Q415 62 401.5 75.5Q388 89 388 108Q388 128 401.5 141.5Q415 155 434 155Q454 155 467.0 141.5Q480 128 480 108Q480 89 467.0 75.5Q454 62 434 62ZM514 150Q495 150 481.5 163.5Q468 177 468 196Q468 216 481.5 229.5Q495 243 514 243Q534 243 547.0 229.5Q560 216 560 196Q560 177 547.0 163.5Q534 150 514 150ZM583 244Q564 244 550.5 257.5Q537 271 537 290Q537 310 550.5 323.5Q564 337 583 337Q603 337 616.0 323.5Q629 310 629 290Q629 271 616.0 257.5Q603 244 583 244ZM650 343Q631 343 617.5 356.5Q604 370 604 389Q604 409 617.5 422.5Q631 436 650 436Q670 436 683.0 422.5Q696 409 696 389Q696 370 683.0 356.5Q670 343 650 343ZM709 437Q690 437 676.5 450.5Q663 464 663 483Q663 503 676.5 516.5Q690 530 709 530Q729 530 742.0 516.5Q755 503 755 483Q755 464 742.0 450.5Q729 437 709 437ZM768 536Q749 536 735.5 549.5Q722 563 722 582Q722 602 735.5 615.5Q749 629 768 629Q788 629 801.0 615.5Q814 602 814 582Q814 563 801.0 549.5Q788 536 768 536ZM730 -1Q711 -1 697.5 12.5Q684 26 684 45Q684 65 697.5 78.5Q711 92 730 92Q750 92 763.0 78.5Q776 65 776 45Q776 26 763.0 12.5Q750 -1 730 -1ZM750 109Q731 109 717.5 122.5Q704 136 704 155Q704 175 717.5 188.5Q731 202 750 202Q770 202 783.0 188.5Q796 175 796 155Q796 136 783.0 122.5Q770 109 750 109ZM769 220Q750 220 736.5 233.5Q723 247 723 266Q723 286 736.5 299.5Q750 313 769 313Q789 313 802.0 299.5Q815 286 815 266Q815 247 802.0 233.5Q789 220 769 220ZM789 330Q770 330 756.5 343.5Q743 357 743 376Q743 396 756.5 409.5Q770 423 789 423Q809 423 822.0 409.5Q835 396 835 376Q835 357 822.0 343.5Q809 330 789 330ZM808 440Q789 440 775.5 453.5Q762 467 762 486Q762 506 775.5 519.5Q789 533 808 533Q828 533 841.0 519.5Q854 506 854 486Q854 467 841.0 453.5Q828 440 808 440ZM827 551Q808 551 794.5 564.5Q781 578 781 597Q781 617 794.5 630.5Q808 644 827 644Q847 644 860.0 630.5Q873 617 873 597Q873 578 860.0 564.5Q847 551 827 551ZM847 661Q828 661 814.5 674.5Q801 688 801 707Q801 727 814.5 740.5Q828 754 847 754Q867 754 880.0 740.5Q893 727 893 707Q893 688 880.0 674.5Q867 661 847 661ZM867 771Q848 771 834.5 784.5Q821 798 821 817Q821 837 834.5 850.5Q848 864 867 864Q887 864 900.0 850.5Q913 837 913 817Q913 798 900.0 784.5Q887 771 867 771ZM887 882Q868 882 854.5 895.5Q841 909 841 928Q841 948 854.5 961.5Q868 975 887 975Q907 975 920.0 961.5Q933 948 933 928Q933 909 920.0 895.5Q907 882 887 882ZM906 992Q887 992 873.5 1005.5Q860 1019 860 1038Q860 1058 873.5 1071.5Q887 1085 906 1085Q926 1085 939.0 1071.5Q952 1058 952 1038Q952 1019 939.0 1005.5Q926 992 906 992ZM925 1103Q906 1103 892.5 1116.5Q879 1130 879 1149Q879 1169 892.5 1182.5Q906 1196 925 1196Q945 1196 958.0 1182.5Q971 1169 971 1149Q971 1130 958.0 1116.5Q945 1103 925 1103ZM945 1213Q926 1213 912.5 1226.5Q899 1240 899 1259Q899 1279 912.5 1292.5Q926 1306 945 1306Q965 1306 978.0 1292.5Q991 1279 991 1259Q991 1240 978.0 1226.5Q965 1213 945 1213ZM964 1324Q945 1324 931.5 1337.5Q918 1351 918 1370Q918 1390 931.5 1403.5Q945 1417 964 1417Q984 1417 997.0 1403.5Q1010 1390 1010 1370Q1010 1351 997.0 1337.5Q984 1324 964 1324ZM984 1434Q965 1434 951.5 1447.5Q938 1461 938 1480Q938 1500 951.5 1513.5Q965 1527 984 1527Q1004 1527 1017.0 1513.5Q1030 1500 1030 1480Q1030 1461 1017.0 1447.5Q1004 1434 984 1434ZM1003 1544Q984 1544 970.5 1557.5Q957 1571 957 1590Q957 1610 970.5 1623.5Q984 1637 1003 1637Q1023 1637 1036.0 1623.5Q1049 1610 1049 1590Q1049 1571 1036.0 1557.5Q1023 1544 1003 1544ZM1023 1655Q1004 1655 990.5 1668.5Q977 1682 977 1701Q977 1721 990.5 1734.5Q1004 1748 1023 1748Q1043 1748 1056.0 1734.5Q1069 1721 1069 1701Q1069 1682 1056.0 1668.5Q1043 1655 1023 1655ZM1035 1761Q1013 1761 997.0 1777.0Q981 1793 981 1815Q981 1837 997.0 1852.5Q1013 1868 1035 1868Q1058 1868 1073.5 1852.5Q1089 1837 1089 1815Q1089 1793 1073.5 1777.0Q1058 1761 1035 1761ZM1035 1786Q1064 1786 1064 1816Q1064 1827 1055.5 1835.0Q1047 1843 1035 1843Q1023 1843 1014.5 1835.0Q1006 1827 1006 1816Q1006 1786 1035 1786ZM777 894Q755 894 739.0 910.0Q723 926 723 948Q723 970 739.0 985.5Q755 1001 777 1001Q800 1001 815.5 985.5Q831 970 831 948Q831 926 815.5 910.0Q800 894 777 894ZM777 919Q806 919 806 949Q806 960 797.5 968.0Q789 976 777 976Q765 976 756.5 968.0Q748 960 748 949Q748 919 777 919Z" transform="translate(51.12, 72) scale(0.036, -0.036)" /><path d="M784 393Q765 393 751.5 406.5Q738 420 738 439Q738 459 751.5 472.5Q765 486 784 486Q804 486 817.0 472.5Q830 459 830 439Q830 420 817.0 406.5Q804 393 784 393ZM721 290Q702 290 688.5 303.5Q675 317 675 336Q675 356 688.5 369.5Q702 383 721 383Q741 383 754.0 369.5Q767 356 767 336Q767 317 754.0 303.5Q741 290 721 290ZM651 190Q632 190 618.5 203.5Q605 217 605 236Q605 256 618.5 269.5Q632 283 651 283Q671 283 684.0 269.5Q697 256 697 236Q697 217 684.0 203.5Q671 190 651 190ZM569 98Q550 98 536.5 111.5Q523 125 523 144Q523 164 536.5 177.5Q550 191 569 191Q589 191 602.0 177.5Q615 164 615 144Q615 125 602.0 111.5Q589 98 569 98ZM481 28Q462 28 448.5 41.5Q435 55 435 74Q435 94 448.5 107.5Q462 121 481 121Q501 121 514.0 107.5Q527 94 527 74Q527 55 514.0 41.5Q501 28 481 28ZM369 -11Q350 -11 336.5 2.5Q323 16 323 35Q323 55 336.5 68.5Q350 82 369 82Q389 82 402.0 68.5Q415 55 415 35Q415 16 402.0 2.5Q389 -11 369 -11ZM258 23Q239 23 225.5 36.5Q212 50 212 69Q212 89 225.5 102.5Q239 116 258 116Q278 116 291.0 102.5Q304 89 304 69Q304 50 291.0 36.5Q278 23 258 23ZM183 113Q164 113 150.5 126.5Q137 140 137 159Q137 179 150.5 192.5Q164 206 183 206Q203 206 216.0 192.5Q229 179 229 159Q229 140 216.0 126.5Q203 113 183 113ZM157 231Q138 231 124.5 244.5Q111 258 111 277Q111 297 124.5 310.5Q138 324 157 324Q177 324 190.0 310.5Q203 297 203 277Q203 258 190.0 244.5Q177 231 157 231ZM172 350Q153 350 139.5 363.5Q126 377 126 396Q126 416 139.5 429.5Q153 443 172 443Q192 443 205.0 429.5Q218 416 218 396Q218 377 205.0 363.5Q192 350 172 350ZM192 462Q173 462 159.5 475.5Q146 489 146 508Q146 528 159.5 541.5Q173 555 192 555Q212 555 225.0 541.5Q238 528 238 508Q238 489 225.0 475.5Q212 462 192 462ZM211 573Q192 573 178.5 586.5Q165 600 165 619Q165 639 178.5 652.5Q192 666 211 666Q231 666 244.0 652.5Q257 639 257 619Q257 600 244.0 586.5Q231 573 211 573ZM232 684Q213 684 199.5 697.5Q186 711 186 730Q186 750 199.5 763.5Q213 777 232 777Q252 777 265.0 763.5Q278 750 278 730Q278 711 265.0 697.5Q252 684 232 684ZM251 796Q232 796 218.5 809.5Q205 823 205 842Q205 862 218.5 875.5Q232 889 251 889Q271 889 284.0 875.5Q297 862 297 842Q297 823 284.0 809.5Q271 796 251 796ZM760 0Q741 0 727.5 13.5Q714 27 714 46Q714 66 727.5 79.5Q741 93 760 93Q780 93 793.0 79.5Q806 66 806 46Q806 27 793.0 13.5Q780 0 760 0ZM780 113Q761 113 747.5 126.5Q734 140 734 159Q734 179 747.5 192.5Q761 206 780 206Q800 206 813.0 192.5Q826 179 826 159Q826 140 813.0 126.5Q800 113 780 113ZM800 227Q781 227 767.5 240.5Q754 254 754 273Q754 293 767.5 306.5Q781 320 800 320Q820 320 833.0 306.5Q846 293 846 273Q846 254 833.0 240.5Q820 227 800 227ZM820 340Q801 340 787.5 353.5Q774 367 774 386Q774 406 787.5 419.5Q801 433 820 433Q840 433 853.0 419.5Q866 406 866 386Q866 367 853.0 353.5Q840 340 820 340ZM840 454Q821 454 807.5 467.5Q794 481 794 500Q794 520 807.5 533.5Q821 547 840 547Q860 547 873.0 533.5Q886 520 886 500Q886 481 873.0 467.5Q860 454 840 454ZM861 567Q842 567 828.5 580.5Q815 594 815 613Q815 633 828.5 646.5Q842 660 861 660Q881 660 894.0 646.5Q907 633 907 613Q907 594 894.0 580.5Q881 567 861 567ZM881 681Q862 681 848.5 694.5Q835 708 835 727Q835 747 848.5 760.5Q862 774 881 774Q901 774 914.0 760.5Q927 747 927 727Q927 708 914.0 694.5Q901 681 881 681ZM920 908Q901 908 887.5 921.5Q874 935 874 954Q874 974 887.5 987.5Q901 1001 920 1001Q940 1001 953.0 987.5Q966 974 966 954Q966 935 953.0 921.5Q940 908 920 908ZM900 795Q881 795 867.5 808.5Q854 822 854 841Q854 861 867.5 874.5Q881 888 900 888Q920 888 933.0 874.5Q946 861 946 841Q946 822 933.0 808.5Q920 795 900 795ZM271 901Q249 901 233.0 917.0Q217 933 217 955Q217 977 233.0 992.5Q249 1008 271 1008Q294 1008 309.5 992.5Q325 977 325 955Q325 933 309.5 917.0Q294 901 271 901ZM271 926Q300 926 300 956Q300 967 291.5 975.0Q283 983 271 983Q259 983 250.5 975.0Q242 967 242 956Q242 926 271 926Z" transform="translate(88.56, 72) scale(0.036, -0.036)" /><path d="M597 952Q578 952 564.5 965.5Q551 979 551 998Q551 1018 564.5 1031.5Q578 1045 597 1045Q617 1045 630.0 1031.5Q643 1018 643 998Q643 979 630.0 965.5Q617 952 597 952ZM728 952Q709 952 695.5 965.5Q682 979 682 998Q682 1018 695.5 1031.5Q709 1045 728 1045Q748 1045 761.0 1031.5Q774 1018 774 998Q774 979 761.0 965.5Q748 952 728 952ZM858 952Q839 952 825.5 965.5Q812 979 812 998Q812 1018 825.5 1031.5Q839 1045 858 1045Q878 1045 891.0 1031.5Q904 1018 904 998Q904 979 891.0 965.5Q878 952 858 952ZM1045 -1Q1026 -1 1012.5 12.5Q999 26 999 45Q999 65 1012.5 78.5Q1026 92 1045 92Q1065 92 1078.0 78.5Q1091 65 1091 45Q1091 26 1078.0 12.5Q1065 -1 1045 -1ZM1036 116Q1017 116 1003.5 129.5Q990 143 990 162Q990 182 1003.5 195.5Q1017 209 1036 209Q1056 209 1069.0 195.5Q1082 182 1082 162Q1082 143 1069.0 129.5Q1056 116 1036 116ZM1027 235Q1008 235 994.5 248.5Q981 262 981 281Q981 301 994.5 314.5Q1008 328 1027 328Q1047 328 1060.0 314.5Q1073 301 1073 281Q1073 262 1060.0 248.5Q1047 235 1027 235ZM1017 352Q998 352 984.5 365.5Q971 379 971 398Q971 418 984.5 431.5Q998 445 1017 445Q1037 445 1050.0 431.5Q1063 418 1063 398Q1063 379 1050.0 365.5Q1037 352 1017 352ZM1007 470Q988 470 974.5 483.5Q961 497 961 516Q961 536 974.5 549.5Q988 563 1007 563Q1027 563 1040.0 549.5Q1053 536 1053 516Q1053 497 1040.0 483.5Q1027 470 1007 470ZM998 587Q979 587 965.5 600.5Q952 614 952 633Q952 653 965.5 666.5Q979 680 998 680Q1018 680 1031.0 666.5Q1044 653 1044 633Q1044 614 1031.0 600.5Q1018 587 998 587ZM988 706Q969 706 955.5 719.5Q942 733 942 752Q942 772 955.5 785.5Q969 799 988 799Q1008 799 1021.0 785.5Q1034 772 1034 752Q1034 733 1021.0 719.5Q1008 706 988 706ZM979 823Q960 823 946.5 836.5Q933 850 933 869Q933 889 946.5 902.5Q960 916 979 916Q999 916 1012.0 902.5Q1025 889 1025 869Q1025 850 1012.0 836.5Q999 823 979 823ZM969 941Q950 941 936.5 954.5Q923 968 923 987Q923 1007 936.5 1020.5Q950 1034 969 1034Q989 1034 1002.0 1020.5Q1015 1007 1015 987Q1015 968 1002.0 954.5Q989 941 969 941ZM960 1058Q941 1058 927.5 1071.5Q914 1085 914 1104Q914 1124 927.5 1137.5Q941 1151 960 1151Q980 1151 993.0 1137.5Q1006 1124 1006 1104Q1006 1085 993.0 1071.5Q980 1058 960 1058ZM950 1177Q931 1177 917.5 1190.5Q904 1204 904 1223Q904 1243 917.5 1256.5Q931 1270 950 1270Q970 1270 983.0 1256.5Q996 1243 996 1223Q996 1204 983.0 1190.5Q970 1177 950 1177ZM941 1294Q922 1294 908.5 1307.5Q895 1321 895 1340Q895 1360 908.5 1373.5Q922 1387 941 1387Q961 1387 974.0 1373.5Q987 1360 987 1340Q987 1321 974.0 1307.5Q961 1294 941 1294ZM932 1411Q913 1411 899.5 1424.5Q886 1438 886 1457Q886 1477 899.5 1490.5Q913 1504 932 1504Q952 1504 965.0 1490.5Q978 1477 978 1457Q978 1438 965.0 1424.5Q952 1411 932 1411ZM922 1529Q903 1529 889.5 1542.5Q876 1556 876 1575Q876 1595 889.5 1608.5Q903 1622 922 1622Q942 1622 955.0 1608.5Q968 1595 968 1575Q968 1556 955.0 1542.5Q942 1529 922 1529ZM912 1647Q893 1647 879.5 1660.5Q866 1674 866 1693Q866 1713 879.5 1726.5Q893 1740 912 1740Q932 1740 945.0 1726.5Q958 1713 958 1693Q958 1674 945.0 1660.5Q932 1647 912 1647ZM-3 -1Q-22 -1 -35.5 12.5Q-49 26 -49 45Q-49 65 -35.5 78.5Q-22 92 -3 92Q17 92 30.0 78.5Q43 65 43 45Q43 26 30.0 12.5Q17 -1 -3 -1ZM50 103Q31 103 17.5 116.5Q4 130 4 149Q4 169 17.5 182.5Q31 196 50 196Q70 196 83.0 182.5Q96 169 96 149Q96 130 83.0 116.5Q70 103 50 103ZM104 207Q85 207 71.5 220.5Q58 234 58 253Q58 273 71.5 286.5Q85 300 104 300Q124 300 137.0 286.5Q150 273 150 253Q150 234 137.0 220.5Q124 207 104 207ZM157 311Q138 311 124.5 324.5Q111 338 111 357Q111 377 124.5 390.5Q138 404 157 404Q177 404 190.0 390.5Q203 377 203 357Q203 338 190.0 324.5Q177 311 157 311ZM210 414Q191 414 177.5 427.5Q164 441 164 460Q164 480 177.5 493.5Q191 507 210 507Q230 507 243.0 493.5Q256 480 256 460Q256 441 243.0 427.5Q230 414 210 414ZM264 518Q245 518 231.5 531.5Q218 545 218 564Q218 584 231.5 597.5Q245 611 264 611Q284 611 297.0 597.5Q310 584 310 564Q310 545 297.0 531.5Q284 518 264 518ZM316 622Q297 622 283.5 635.5Q270 649 270 668Q270 688 283.5 701.5Q297 715 316 715Q336 715 349.0 701.5Q362 688 362 668Q362 649 349.0 635.5Q336 622 316 622ZM370 726Q351 726 337.5 739.5Q324 753 324 772Q324 792 337.5 805.5Q351 819 370 819Q390 819 403.0 805.5Q416 792 416 772Q416 753 403.0 739.5Q390 726 370 726ZM423 830Q404 830 390.5 843.5Q377 857 377 876Q377 896 390.5 909.5Q404 923 423 923Q443 923 456.0 909.5Q469 896 469 876Q469 857 456.0 843.5Q443 830 423 830ZM476 934Q457 934 443.5 947.5Q430 961 430 980Q430 1000 443.5 1013.5Q457 1027 476 1027Q496 1027 509.0 1013.5Q522 1000 522 980Q522 961 509.0 947.5Q496 934 476 934ZM530 1038Q511 1038 497.5 1051.5Q484 1065 484 1084Q484 1104 497.5 1117.5Q511 1131 530 1131Q550 1131 563.0 1117.5Q576 1104 576 1084Q576 1065 563.0 1051.5Q550 1038 530 1038ZM583 1141Q564 1141 550.5 1154.5Q537 1168 537 1187Q537 1207 550.5 1220.5Q564 1234 583 1234Q603 1234 616.0 1220.5Q629 1207 629 1187Q629 1168 616.0 1154.5Q603 1141 583 1141ZM636 1246Q617 1246 603.5 1259.5Q590 1273 590 1292Q590 1312 603.5 1325.5Q617 1339 636 1339Q656 1339 669.0 1325.5Q682 1312 682 1292Q682 1273 669.0 1259.5Q656 1246 636 1246ZM689 1350Q670 1350 656.5 1363.5Q643 1377 643 1396Q643 1416 656.5 1429.5Q670 1443 689 1443Q709 1443 722.0 1429.5Q735 1416 735 1396Q735 1377 722.0 1363.5Q709 1350 689 1350ZM743 1453Q724 1453 710.5 1466.5Q697 1480 697 1499Q697 1519 710.5 1532.5Q724 1546 743 1546Q763 1546 776.0 1532.5Q789 1519 789 1499Q789 1480 776.0 1466.5Q763 1453 743 1453ZM797 1557Q778 1557 764.5 1570.5Q751 1584 751 1603Q751 1623 764.5 1636.5Q778 1650 797 1650Q817 1650 830.0 1636.5Q843 1623 843 1603Q843 1584 830.0 1570.5Q817 1557 797 1557ZM849 1661Q830 1661 816.5 1674.5Q803 1688 803 1707Q803 1727 816.5 1740.5Q830 1754 849 1754Q869 1754 882.0 1740.5Q895 1727 895 1707Q895 1688 882.0 1674.5Q869 1661 849 1661ZM903 1758Q881 1758 865.0 1774.0Q849 1790 849 1812Q849 1834 865.0 1849.5Q881 1865 903 1865Q926 1865 941.5 1849.5Q957 1834 957 1812Q957 1790 941.5 1774.0Q926 1758 903 1758ZM903 1783Q932 1783 932 1813Q932 1824 923.5 1832.0Q915 1840 903 1840Q891 1840 882.5 1832.0Q874 1824 874 1813Q874 1783 903 1783Z" transform="translate(139.752, 72) scale(0.036, -0.036)" /><path d="M471 1652Q452 1652 438.5 1665.5Q425 1679 425 1698Q425 1718 438.5 1731.5Q452 1745 471 1745Q491 1745 504.0 1731.5Q517 1718 517 1698Q517 1679 504.0 1665.5Q491 1652 471 1652ZM451 1539Q432 1539 418.5 1552.5Q405 1566 405 1585Q405 1605 418.5 1618.5Q432 1632 451 1632Q471 1632 484.0 1618.5Q497 1605 497 1585Q497 1566 484.0 1552.5Q471 1539 451 1539ZM431 1426Q412 1426 398.5 1439.5Q385 1453 385 1472Q385 1492 398.5 1505.5Q412 1519 431 1519Q451 1519 464.0 1505.5Q477 1492 477 1472Q477 1453 464.0 1439.5Q451 1426 431 1426ZM412 1313Q393 1313 379.5 1326.5Q366 1340 366 1359Q366 1379 379.5 1392.5Q393 1406 412 1406Q432 1406 445.0 1392.5Q458 1379 458 1359Q458 1340 445.0 1326.5Q432 1313 412 1313ZM391 1200Q372 1200 358.5 1213.5Q345 1227 345 1246Q345 1266 358.5 1279.5Q372 1293 391 1293Q411 1293 424.0 1279.5Q437 1266 437 1246Q437 1227 424.0 1213.5Q411 1200 391 1200ZM371 1087Q352 1087 338.5 1100.5Q325 1114 325 1133Q325 1153 338.5 1166.5Q352 1180 371 1180Q391 1180 404.0 1166.5Q417 1153 417 1133Q417 1114 404.0 1100.5Q391 1087 371 1087ZM351 974Q332 974 318.5 987.5Q305 1001 305 1020Q305 1040 318.5 1053.5Q332 1067 351 1067Q371 1067 384.0 1053.5Q397 1040 397 1020Q397 1001 384.0 987.5Q371 974 351 974ZM331 861Q312 861 298.5 874.5Q285 888 285 907Q285 927 298.5 940.5Q312 954 331 954Q351 954 364.0 940.5Q377 927 377 907Q377 888 364.0 874.5Q351 861 331 861ZM312 748Q293 748 279.5 761.5Q266 775 266 794Q266 814 279.5 827.5Q293 841 312 841Q332 841 345.0 827.5Q358 814 358 794Q358 775 345.0 761.5Q332 748 312 748ZM291 634Q272 634 258.5 647.5Q245 661 245 680Q245 700 258.5 713.5Q272 727 291 727Q311 727 324.0 713.5Q337 700 337 680Q337 661 324.0 647.5Q311 634 291 634ZM272 522Q253 522 239.5 535.5Q226 549 226 568Q226 588 239.5 601.5Q253 615 272 615Q292 615 305.0 601.5Q318 588 318 568Q318 549 305.0 535.5Q292 522 272 522ZM252 407Q233 407 219.5 420.5Q206 434 206 453Q206 473 219.5 486.5Q233 500 252 500Q272 500 285.0 486.5Q298 473 298 453Q298 434 285.0 420.5Q272 407 252 407ZM238 289Q219 289 205.5 302.5Q192 316 192 335Q192 355 205.5 368.5Q219 382 238 382Q258 382 271.0 368.5Q284 355 284 335Q284 316 271.0 302.5Q258 289 238 289ZM244 169Q225 169 211.5 182.5Q198 196 198 215Q198 235 211.5 248.5Q225 262 244 262Q264 262 277.0 248.5Q290 235 290 215Q290 196 277.0 182.5Q264 169 244 169ZM284 58Q265 58 251.5 71.5Q238 85 238 104Q238 124 251.5 137.5Q265 151 284 151Q304 151 317.0 137.5Q330 124 330 104Q330 85 317.0 71.5Q304 58 284 58ZM380 -2Q361 -2 347.5 11.5Q334 25 334 44Q334 64 347.5 77.5Q361 91 380 91Q400 91 413.0 77.5Q426 64 426 44Q426 25 413.0 11.5Q400 -2 380 -2ZM495 12Q476 12 462.5 25.5Q449 39 449 58Q449 78 462.5 91.5Q476 105 495 105Q515 105 528.0 91.5Q541 78 541 58Q541 39 528.0 25.5Q515 12 495 12ZM600 63Q581 63 567.5 76.5Q554 90 554 109Q554 129 567.5 142.5Q581 156 600 156Q620 156 633.0 142.5Q646 129 646 109Q646 90 633.0 76.5Q620 63 600 63ZM694 135Q675 135 661.5 148.5Q648 162 648 181Q648 201 661.5 214.5Q675 228 694 228Q714 228 727.0 214.5Q740 201 740 181Q740 162 727.0 148.5Q714 135 694 135ZM778 220Q759 220 745.5 233.5Q732 247 732 266Q732 286 745.5 299.5Q759 313 778 313Q798 313 811.0 299.5Q824 286 824 266Q824 247 811.0 233.5Q798 220 778 220ZM855 315Q836 315 822.5 328.5Q809 342 809 361Q809 381 822.5 394.5Q836 408 855 408Q875 408 888.0 394.5Q901 381 901 361Q901 342 888.0 328.5Q875 315 855 315ZM925 416Q906 416 892.5 429.5Q879 443 879 462Q879 482 892.5 495.5Q906 509 925 509Q945 509 958.0 495.5Q971 482 971 462Q971 443 958.0 429.5Q945 416 925 416ZM990 519Q971 519 957.5 532.5Q944 546 944 565Q944 585 957.5 598.5Q971 612 990 612Q1010 612 1023.0 598.5Q1036 585 1036 565Q1036 546 1023.0 532.5Q1010 519 990 519ZM1051 623Q1032 623 1018.5 636.5Q1005 650 1005 669Q1005 689 1018.5 702.5Q1032 716 1051 716Q1071 716 1084.0 702.5Q1097 689 1097 669Q1097 650 1084.0 636.5Q1071 623 1051 623ZM1107 730Q1088 730 1074.5 743.5Q1061 757 1061 776Q1061 796 1074.5 809.5Q1088 823 1107 823Q1127 823 1140.0 809.5Q1153 796 1153 776Q1153 757 1140.0 743.5Q1127 730 1107 730ZM1162 839Q1143 839 1129.5 852.5Q1116 866 1116 885Q1116 905 1129.5 918.5Q1143 932 1162 932Q1182 932 1195.0 918.5Q1208 905 1208 885Q1208 866 1195.0 852.5Q1182 839 1162 839ZM1214 951Q1195 951 1181.5 964.5Q1168 978 1168 997Q1168 1017 1181.5 1030.5Q1195 1044 1214 1044Q1234 1044 1247.0 1030.5Q1260 1017 1260 997Q1260 978 1247.0 964.5Q1234 951 1214 951ZM1265 1056Q1246 1056 1232.5 1069.5Q1219 1083 1219 1102Q1219 1122 1232.5 1135.5Q1246 1149 1265 1149Q1285 1149 1298.0 1135.5Q1311 1122 1311 1102Q1311 1083 1298.0 1069.5Q1285 1056 1265 1056ZM1315 1164Q1296 1164 1282.5 1177.5Q1269 1191 1269 1210Q1269 1230 1282.5 1243.5Q1296 1257 1315 1257Q1335 1257 1348.0 1243.5Q1361 1230 1361 1210Q1361 1191 1348.0 1177.5Q1335 1164 1315 1164ZM1479 1765Q1460 1765 1446.5 1778.5Q1433 1792 1433 1811Q1433 1831 1446.5 1844.5Q1460 1858 1479 1858Q1499 1858 1512.0 1844.5Q1525 1831 1525 1811Q1525 1792 1512.0 1778.5Q1499 1765 1479 1765ZM1167 0Q1148 0 1134.5 13.5Q1121 27 1121 46Q1121 66 1134.5 79.5Q1148 93 1167 93Q1187 93 1200.0 79.5Q1213 66 1213 46Q1213 27 1200.0 13.5Q1187 0 1167 0ZM1187 110Q1168 110 1154.5 123.5Q1141 137 1141 156Q1141 176 1154.5 189.5Q1168 203 1187 203Q1207 203 1220.0 189.5Q1233 176 1233 156Q1233 137 1220.0 123.5Q1207 110 1187 110ZM1206 221Q1187 221 1173.5 234.5Q1160 248 1160 267Q1160 287 1173.5 300.5Q1187 314 1206 314Q1226 314 1239.0 300.5Q1252 287 1252 267Q1252 248 1239.0 234.5Q1226 221 1206 221ZM1226 331Q1207 331 1193.5 344.5Q1180 358 1180 377Q1180 397 1193.5 410.5Q1207 424 1226 424Q1246 424 1259.0 410.5Q1272 397 1272 377Q1272 358 1259.0 344.5Q1246 331 1226 331ZM1245 441Q1226 441 1212.5 454.5Q1199 468 1199 487Q1199 507 1212.5 520.5Q1226 534 1245 534Q1265 534 1278.0 520.5Q1291 507 1291 487Q1291 468 1278.0 454.5Q1265 441 1245 441ZM1264 552Q1245 552 1231.5 565.5Q1218 579 1218 598Q1218 618 1231.5 631.5Q1245 645 1264 645Q1284 645 1297.0 631.5Q1310 618 1310 598Q1310 579 1297.0 565.5Q1284 552 1264 552ZM1284 662Q1265 662 1251.5 675.5Q1238 689 1238 708Q1238 728 1251.5 741.5Q1265 755 1284 755Q1304 755 1317.0 741.5Q1330 728 1330 708Q1330 689 1317.0 675.5Q1304 662 1284 662ZM1304 772Q1285 772 1271.5 785.5Q1258 799 1258 818Q1258 838 1271.5 851.5Q1285 865 1304 865Q1324 865 1337.0 851.5Q1350 838 1350 818Q1350 799 1337.0 785.5Q1324 772 1304 772ZM1324 883Q1305 883 1291.5 896.5Q1278 910 1278 929Q1278 949 1291.5 962.5Q1305 976 1324 976Q1344 976 1357.0 962.5Q1370 949 1370 929Q1370 910 1357.0 896.5Q1344 883 1324 883ZM1343 993Q1324 993 1310.5 1006.5Q1297 1020 1297 1039Q1297 1059 1310.5 1072.5Q1324 1086 1343 1086Q1363 1086 1376.0 1072.5Q1389 1059 1389 1039Q1389 1020 1376.0 1006.5Q1363 993 1343 993ZM1362 1103Q1343 1103 1329.5 1116.5Q1316 1130 1316 1149Q1316 1169 1329.5 1182.5Q1343 1196 1362 1196Q1382 1196 1395.0 1182.5Q1408 1169 1408 1149Q1408 1130 1395.0 1116.5Q1382 1103 1362 1103ZM1382 1214Q1363 1214 1349.5 1227.5Q1336 1241 1336 1260Q1336 1280 1349.5 1293.5Q1363 1307 1382 1307Q1402 1307 1415.0 1293.5Q1428 1280 1428 1260Q1428 1241 1415.0 1227.5Q1402 1214 1382 1214ZM1401 1325Q1382 1325 1368.5 1338.5Q1355 1352 1355 1371Q1355 1391 1368.5 1404.5Q1382 1418 1401 1418Q1421 1418 1434.0 1404.5Q1447 1391 1447 1371Q1447 1352 1434.0 1338.5Q1421 1325 1401 1325ZM1421 1435Q1402 1435 1388.5 1448.5Q1375 1462 1375 1481Q1375 1501 1388.5 1514.5Q1402 1528 1421 1528Q1441 1528 1454.0 1514.5Q1467 1501 1467 1481Q1467 1462 1454.0 1448.5Q1441 1435 1421 1435ZM1440 1545Q1421 1545 1407.5 1558.5Q1394 1572 1394 1591Q1394 1611 1407.5 1624.5Q1421 1638 1440 1638Q1460 1638 1473.0 1624.5Q1486 1611 1486 1591Q1486 1572 1473.0 1558.5Q1460 1545 1440 1545ZM1460 1656Q1441 1656 1427.5 1669.5Q1414 1683 1414 1702Q1414 1722 1427.5 1735.5Q1441 1749 1460 1749Q1480 1749 1493.0 1735.5Q1506 1722 1506 1702Q1506 1683 1493.0 1669.5Q1480 1656 1460 1656ZM491 1765Q469 1765 453.0 1781.0Q437 1797 437 1819Q437 1841 453.0 1856.5Q469 1872 491 1872Q514 1872 529.5 1856.5Q545 1841 545 1819Q545 1797 529.5 1781.0Q514 1765 491 1765ZM491 1790Q520 1790 520 1820Q520 1831 511.5 1839.0Q503 1847 491 1847Q479 1847 470.5 1839.0Q462 1831 462 1820Q462 1790 491 1790Z" transform="translate(185.07600000000002, 72) scale(0.036, -0.036)" /><path d="M1254 1765Q1235 1765 1221.5 1778.5Q1208 1792 1208 1811Q1208 1831 1221.5 1844.5Q1235 1858 1254 1858Q1274 1858 1287.0 1844.5Q1300 1831 1300 1811Q1300 1792 1287.0 1778.5Q1274 1765 1254 1765ZM1203 1661Q1184 1661 1170.5 1674.5Q1157 1688 1157 1707Q1157 1727 1170.5 1740.5Q1184 1754 1203 1754Q1223 1754 1236.0 1740.5Q1249 1727 1249 1707Q1249 1688 1236.0 1674.5Q1223 1661 1203 1661ZM1151 1557Q1132 1557 1118.5 1570.5Q1105 1584 1105 1603Q1105 1623 1118.5 1636.5Q1132 1650 1151 1650Q1171 1650 1184.0 1636.5Q1197 1623 1197 1603Q1197 1584 1184.0 1570.5Q1171 1557 1151 1557ZM1100 1453Q1081 1453 1067.5 1466.5Q1054 1480 1054 1499Q1054 1519 1067.5 1532.5Q1081 1546 1100 1546Q1120 1546 1133.0 1532.5Q1146 1519 1146 1499Q1146 1480 1133.0 1466.5Q1120 1453 1100 1453ZM1048 1350Q1029 1350 1015.5 1363.5Q1002 1377 1002 1396Q1002 1416 1015.5 1429.5Q1029 1443 1048 1443Q1068 1443 1081.0 1429.5Q1094 1416 1094 1396Q1094 1377 1081.0 1363.5Q1068 1350 1048 1350ZM997 1246Q978 1246 964.5 1259.5Q951 1273 951 1292Q951 1312 964.5 1325.5Q978 1339 997 1339Q1017 1339 1030.0 1325.5Q1043 1312 1043 1292Q1043 1273 1030.0 1259.5Q1017 1246 997 1246ZM946 1141Q927 1141 913.5 1154.5Q900 1168 900 1187Q900 1207 913.5 1220.5Q927 1234 946 1234Q966 1234 979.0 1220.5Q992 1207 992 1187Q992 1168 979.0 1154.5Q966 1141 946 1141ZM895 1038Q876 1038 862.5 1051.5Q849 1065 849 1084Q849 1104 862.5 1117.5Q876 1131 895 1131Q915 1131 928.0 1117.5Q941 1104 941 1084Q941 1065 928.0 1051.5Q915 1038 895 1038ZM843 934Q824 934 810.5 947.5Q797 961 797 980Q797 1000 810.5 1013.5Q824 1027 843 1027Q863 1027 876.0 1013.5Q889 1000 889 980Q889 961 876.0 947.5Q863 934 843 934ZM792 830Q773 830 759.5 843.5Q746 857 746 876Q746 896 759.5 909.5Q773 923 792 923Q812 923 825.0 909.5Q838 896 838 876Q838 857 825.0 843.5Q812 830 792 830ZM740 726Q721 726 707.5 739.5Q694 753 694 772Q694 792 707.5 805.5Q721 819 740 819Q760 819 773.0 805.5Q786 792 786 772Q786 753 773.0 739.5Q760 726 740 726ZM689 622Q670 622 656.5 635.5Q643 649 643 668Q643 688 656.5 701.5Q670 715 689 715Q709 715 722.0 701.5Q735 688 735 668Q735 649 722.0 635.5Q709 622 689 622ZM637 518Q618 518 604.5 531.5Q591 545 591 564Q591 584 604.5 597.5Q618 611 637 611Q657 611 670.0 597.5Q683 584 683 564Q683 545 670.0 531.5Q657 518 637 518ZM587 414Q568 414 554.5 427.5Q541 441 541 460Q541 480 554.5 493.5Q568 507 587 507Q607 507 620.0 493.5Q633 480 633 460Q633 441 620.0 427.5Q607 414 587 414ZM535 311Q516 311 502.5 324.5Q489 338 489 357Q489 377 502.5 390.5Q516 404 535 404Q555 404 568.0 390.5Q581 377 581 357Q581 338 568.0 324.5Q555 311 535 311ZM484 207Q465 207 451.5 220.5Q438 234 438 253Q438 273 451.5 286.5Q465 300 484 300Q504 300 517.0 286.5Q530 273 530 253Q530 234 517.0 220.5Q504 207 484 207ZM432 103Q413 103 399.5 116.5Q386 130 386 149Q386 169 399.5 182.5Q413 196 432 196Q452 196 465.0 182.5Q478 169 478 149Q478 130 465.0 116.5Q452 103 432 103ZM381 -1Q362 -1 348.5 12.5Q335 26 335 45Q335 65 348.5 78.5Q362 92 381 92Q401 92 414.0 78.5Q427 65 427 45Q427 26 414.0 12.5Q401 -1 381 -1ZM375 116Q356 116 342.5 129.5Q329 143 329 162Q329 182 342.5 195.5Q356 209 375 209Q395 209 408.0 195.5Q421 182 421 162Q421 143 408.0 129.5Q395 116 375 116ZM368 235Q349 235 335.5 248.5Q322 262 322 281Q322 301 335.5 314.5Q349 328 368 328Q388 328 401.0 314.5Q414 301 414 281Q414 262 401.0 248.5Q388 235 368 235ZM363 352Q344 352 330.5 365.5Q317 379 317 398Q317 418 330.5 431.5Q344 445 363 445Q383 445 396.0 431.5Q409 418 409 398Q409 379 396.0 365.5Q383 352 363 352ZM356 470Q337 470 323.5 483.5Q310 497 310 516Q310 536 323.5 549.5Q337 563 356 563Q376 563 389.0 549.5Q402 536 402 516Q402 497 389.0 483.5Q376 470 356 470ZM350 587Q331 587 317.5 600.5Q304 614 304 633Q304 653 317.5 666.5Q331 680 350 680Q370 680 383.0 666.5Q396 653 396 633Q396 614 383.0 600.5Q370 587 350 587ZM343 706Q324 706 310.5 719.5Q297 733 297 752Q297 772 310.5 785.5Q324 799 343 799Q363 799 376.0 785.5Q389 772 389 752Q389 733 376.0 719.5Q363 706 343 706ZM337 823Q318 823 304.5 836.5Q291 850 291 869Q291 889 304.5 902.5Q318 916 337 916Q357 916 370.0 902.5Q383 889 383 869Q383 850 370.0 836.5Q357 823 337 823ZM331 941Q312 941 298.5 954.5Q285 968 285 987Q285 1007 298.5 1020.5Q312 1034 331 1034Q351 1034 364.0 1020.5Q377 1007 377 987Q377 968 364.0 954.5Q351 941 331 941ZM325 1058Q306 1058 292.5 1071.5Q279 1085 279 1104Q279 1124 292.5 1137.5Q306 1151 325 1151Q345 1151 358.0 1137.5Q371 1124 371 1104Q371 1085 358.0 1071.5Q345 1058 325 1058ZM318 1177Q299 1177 285.5 1190.5Q272 1204 272 1223Q272 1243 285.5 1256.5Q299 1270 318 1270Q338 1270 351.0 1256.5Q364 1243 364 1223Q364 1204 351.0 1190.5Q338 1177 318 1177ZM312 1294Q293 1294 279.5 1307.5Q266 1321 266 1340Q266 1360 279.5 1373.5Q293 1387 312 1387Q332 1387 345.0 1373.5Q358 1360 358 1340Q358 1321 345.0 1307.5Q332 1294 312 1294ZM305 1411Q286 1411 272.5 1424.5Q259 1438 259 1457Q259 1477 272.5 1490.5Q286 1504 305 1504Q325 1504 338.0 1490.5Q351 1477 351 1457Q351 1438 338.0 1424.5Q325 1411 305 1411ZM300 1529Q281 1529 267.5 1542.5Q254 1556 254 1575Q254 1595 267.5 1608.5Q281 1622 300 1622Q320 1622 333.0 1608.5Q346 1595 346 1575Q346 1556 333.0 1542.5Q320 1529 300 1529ZM293 1647Q274 1647 260.5 1660.5Q247 1674 247 1693Q247 1713 260.5 1726.5Q274 1740 293 1740Q313 1740 326.0 1726.5Q339 1713 339 1693Q339 1674 326.0 1660.5Q313 1647 293 1647ZM286 1765Q264 1765 248.0 1781.0Q232 1797 232 1819Q232 1841 248.0 1856.5Q264 1872 286 1872Q309 1872 324.5 1856.5Q340 1841 340 1819Q340 1797 324.5 1781.0Q309 1765 286 1765ZM286 1790Q315 1790 315 1820Q315 1831 306.5 1839.0Q298 1847 286 1847Q274 1847 265.5 1839.0Q257 1831 257 1820Q257 1790 286 1790Z" transform="translate(253.58400000000003, 72) scale(0.036, -0.036)" /><path d="M281 0Q262 0 248.5 13.5Q235 27 235 46Q235 66 248.5 79.5Q262 93 281 93Q301 93 314.0 79.5Q327 66 327 46Q327 27 314.0 13.5Q301 0 281 0ZM300 110Q281 110 267.5 123.5Q254 137 254 156Q254 176 267.5 189.5Q281 203 300 203Q320 203 333.0 189.5Q346 176 346 156Q346 137 333.0 123.5Q320 110 300 110ZM320 221Q301 221 287.5 234.5Q274 248 274 267Q274 287 287.5 300.5Q301 314 320 314Q340 314 353.0 300.5Q366 287 366 267Q366 248 353.0 234.5Q340 221 320 221ZM339 331Q320 331 306.5 344.5Q293 358 293 377Q293 397 306.5 410.5Q320 424 339 424Q359 424 372.0 410.5Q385 397 385 377Q385 358 372.0 344.5Q359 331 339 331ZM358 441Q339 441 325.5 454.5Q312 468 312 487Q312 507 325.5 520.5Q339 534 358 534Q378 534 391.0 520.5Q404 507 404 487Q404 468 391.0 454.5Q378 441 358 441ZM378 552Q359 552 345.5 565.5Q332 579 332 598Q332 618 345.5 631.5Q359 645 378 645Q398 645 411.0 631.5Q424 618 424 598Q424 579 411.0 565.5Q398 552 378 552ZM397 662Q378 662 364.5 675.5Q351 689 351 708Q351 728 364.5 741.5Q378 755 397 755Q417 755 430.0 741.5Q443 728 443 708Q443 689 430.0 675.5Q417 662 397 662ZM418 772Q399 772 385.5 785.5Q372 799 372 818Q372 838 385.5 851.5Q399 865 418 865Q438 865 451.0 851.5Q464 838 464 818Q464 799 451.0 785.5Q438 772 418 772ZM437 883Q418 883 404.5 896.5Q391 910 391 929Q391 949 404.5 962.5Q418 976 437 976Q457 976 470.0 962.5Q483 949 483 929Q483 910 470.0 896.5Q457 883 437 883ZM457 993Q438 993 424.5 1006.5Q411 1020 411 1039Q411 1059 424.5 1072.5Q438 1086 457 1086Q477 1086 490.0 1072.5Q503 1059 503 1039Q503 1020 490.0 1006.5Q477 993 457 993ZM476 1103Q457 1103 443.5 1116.5Q430 1130 430 1149Q430 1169 443.5 1182.5Q457 1196 476 1196Q496 1196 509.0 1182.5Q522 1169 522 1149Q522 1130 509.0 1116.5Q496 1103 476 1103ZM495 1214Q476 1214 462.5 1227.5Q449 1241 449 1260Q449 1280 462.5 1293.5Q476 1307 495 1307Q515 1307 528.0 1293.5Q541 1280 541 1260Q541 1241 528.0 1227.5Q515 1214 495 1214ZM515 1325Q496 1325 482.5 1338.5Q469 1352 469 1371Q469 1391 482.5 1404.5Q496 1418 515 1418Q535 1418 548.0 1404.5Q561 1391 561 1371Q561 1352 548.0 1338.5Q535 1325 515 1325ZM534 1435Q515 1435 501.5 1448.5Q488 1462 488 1481Q488 1501 501.5 1514.5Q515 1528 534 1528Q554 1528 567.0 1514.5Q580 1501 580 1481Q580 1462 567.0 1448.5Q554 1435 534 1435ZM554 1545Q535 1545 521.5 1558.5Q508 1572 508 1591Q508 1611 521.5 1624.5Q535 1638 554 1638Q574 1638 587.0 1624.5Q600 1611 600 1591Q600 1572 587.0 1558.5Q574 1545 554 1545ZM458 1765Q439 1765 425.5 1778.5Q412 1792 412 1811Q412 1831 425.5 1844.5Q439 1858 458 1858Q478 1858 491.0 1844.5Q504 1831 504 1811Q504 1792 491.0 1778.5Q478 1765 458 1765ZM586 1762Q564 1762 548.0 1778.0Q532 1794 532 1816Q532 1838 548.0 1853.5Q564 1869 586 1869Q609 1869 624.5 1853.5Q640 1838 640 1816Q640 1794 624.5 1778.0Q609 1762 586 1762ZM586 1787Q615 1787 615 1817Q615 1828 606.5 1836.0Q598 1844 586 1844Q574 1844 565.5 1836.0Q557 1828 557 1817Q557 1787 586 1787ZM715 1765Q696 1765 682.5 1778.5Q669 1792 669 1811Q669 1831 682.5 1844.5Q696 1858 715 1858Q735 1858 748.0 1844.5Q761 1831 761 1811Q761 1792 748.0 1778.5Q735 1765 715 1765ZM573 1656Q554 1656 540.5 1669.5Q527 1683 527 1702Q527 1722 540.5 1735.5Q554 1749 573 1749Q593 1749 606.0 1735.5Q619 1722 619 1702Q619 1683 606.0 1669.5Q593 1656 573 1656ZM152 0Q133 0 119.5 13.5Q106 27 106 46Q106 66 119.5 79.5Q133 93 152 93Q172 93 185.0 79.5Q198 66 198 46Q198 27 185.0 13.5Q172 0 152 0ZM408 0Q389 0 375.5 13.5Q362 27 362 46Q362 66 375.5 79.5Q389 93 408 93Q428 93 441.0 79.5Q454 66 454 46Q454 27 441.0 13.5Q428 0 408 0Z" transform="translate(290.196, 72) scale(0.036, -0.036)" /><path d="M1445 1584Q1426 1584 1412.5 1597.5Q1399 1611 1399 1630Q1399 1650 1412.5 1663.5Q1426 1677 1445 1677Q1465 1677 1478.0 1663.5Q1491 1650 1491 1630Q1491 1611 1478.0 1597.5Q1465 1584 1445 1584ZM1356 1655Q1337 1655 1323.5 1668.5Q1310 1682 1310 1701Q1310 1721 1323.5 1734.5Q1337 1748 1356 1748Q1376 1748 1389.0 1734.5Q1402 1721 1402 1701Q1402 1682 1389.0 1668.5Q1376 1655 1356 1655ZM1254 1714Q1235 1714 1221.5 1727.5Q1208 1741 1208 1760Q1208 1780 1221.5 1793.5Q1235 1807 1254 1807Q1274 1807 1287.0 1793.5Q1300 1780 1300 1760Q1300 1741 1287.0 1727.5Q1274 1714 1254 1714ZM1143 1750Q1124 1750 1110.5 1763.5Q1097 1777 1097 1796Q1097 1816 1110.5 1829.5Q1124 1843 1143 1843Q1163 1843 1176.0 1829.5Q1189 1816 1189 1796Q1189 1777 1176.0 1763.5Q1163 1750 1143 1750ZM1024 1763Q1005 1763 991.5 1776.5Q978 1790 978 1809Q978 1829 991.5 1842.5Q1005 1856 1024 1856Q1044 1856 1057.0 1842.5Q1070 1829 1070 1809Q1070 1790 1057.0 1776.5Q1044 1763 1024 1763ZM910 1756Q891 1756 877.5 1769.5Q864 1783 864 1802Q864 1822 877.5 1835.5Q891 1849 910 1849Q930 1849 943.0 1835.5Q956 1822 956 1802Q956 1783 943.0 1769.5Q930 1756 910 1756ZM794 1723Q775 1723 761.5 1736.5Q748 1750 748 1769Q748 1789 761.5 1802.5Q775 1816 794 1816Q814 1816 827.0 1802.5Q840 1789 840 1769Q840 1750 827.0 1736.5Q814 1723 794 1723ZM691 1668Q672 1668 658.5 1681.5Q645 1695 645 1714Q645 1734 658.5 1747.5Q672 1761 691 1761Q711 1761 724.0 1747.5Q737 1734 737 1714Q737 1695 724.0 1681.5Q711 1668 691 1668ZM599 1593Q580 1593 566.5 1606.5Q553 1620 553 1639Q553 1659 566.5 1672.5Q580 1686 599 1686Q619 1686 632.0 1672.5Q645 1659 645 1639Q645 1620 632.0 1606.5Q619 1593 599 1593ZM522 1510Q503 1510 489.5 1523.5Q476 1537 476 1556Q476 1576 489.5 1589.5Q503 1603 522 1603Q542 1603 555.0 1589.5Q568 1576 568 1556Q568 1537 555.0 1523.5Q542 1510 522 1510ZM453 1417Q434 1417 420.5 1430.5Q407 1444 407 1463Q407 1483 420.5 1496.5Q434 1510 453 1510Q473 1510 486.0 1496.5Q499 1483 499 1463Q499 1444 486.0 1430.5Q473 1417 453 1417ZM392 1314Q373 1314 359.5 1327.5Q346 1341 346 1360Q346 1380 359.5 1393.5Q373 1407 392 1407Q412 1407 425.0 1393.5Q438 1380 438 1360Q438 1341 425.0 1327.5Q412 1314 392 1314ZM342 1202Q323 1202 309.5 1215.5Q296 1229 296 1248Q296 1268 309.5 1281.5Q323 1295 342 1295Q362 1295 375.0 1281.5Q388 1268 388 1248Q388 1229 375.0 1215.5Q362 1202 342 1202ZM306 1094Q287 1094 273.5 1107.5Q260 1121 260 1140Q260 1160 273.5 1173.5Q287 1187 306 1187Q326 1187 339.0 1173.5Q352 1160 352 1140Q352 1121 339.0 1107.5Q326 1094 306 1094ZM277 982Q258 982 244.5 995.5Q231 1009 231 1028Q231 1048 244.5 1061.5Q258 1075 277 1075Q297 1075 310.0 1061.5Q323 1048 323 1028Q323 1009 310.0 995.5Q297 982 277 982ZM257 869Q238 869 224.5 882.5Q211 896 211 915Q211 935 224.5 948.5Q238 962 257 962Q277 962 290.0 948.5Q303 935 303 915Q303 896 290.0 882.5Q277 869 257 869ZM243 755Q224 755 210.5 768.5Q197 782 197 801Q197 821 210.5 834.5Q224 848 243 848Q263 848 276.0 834.5Q289 821 289 801Q289 782 276.0 768.5Q263 755 243 755ZM235 634Q216 634 202.5 647.5Q189 661 189 680Q189 700 202.5 713.5Q216 727 235 727Q255 727 268.0 713.5Q281 700 281 680Q281 661 268.0 647.5Q255 634 235 634ZM239 514Q220 514 206.5 527.5Q193 541 193 560Q193 580 206.5 593.5Q220 607 239 607Q259 607 272.0 593.5Q285 580 285 560Q285 541 272.0 527.5Q259 514 239 514ZM259 402Q240 402 226.5 415.5Q213 429 213 448Q213 468 226.5 481.5Q240 495 259 495Q279 495 292.0 481.5Q305 468 305 448Q305 429 292.0 415.5Q279 402 259 402ZM296 293Q277 293 263.5 306.5Q250 320 250 339Q250 359 263.5 372.5Q277 386 296 386Q316 386 329.0 372.5Q342 359 342 339Q342 320 329.0 306.5Q316 293 296 293ZM350 192Q331 192 317.5 205.5Q304 219 304 238Q304 258 317.5 271.5Q331 285 350 285Q370 285 383.0 271.5Q396 258 396 238Q396 219 383.0 205.5Q370 192 350 192ZM429 100Q410 100 396.5 113.5Q383 127 383 146Q383 166 396.5 179.5Q410 193 429 193Q449 193 462.0 179.5Q475 166 475 146Q475 127 462.0 113.5Q449 100 429 100ZM527 33Q508 33 494.5 46.5Q481 60 481 79Q481 99 494.5 112.5Q508 126 527 126Q547 126 560.0 112.5Q573 99 573 79Q573 60 560.0 46.5Q547 33 527 33ZM643 1Q624 1 610.5 14.5Q597 28 597 47Q597 67 610.5 80.5Q624 94 643 94Q663 94 676.0 80.5Q689 67 689 47Q689 28 676.0 14.5Q663 1 643 1ZM761 6Q742 6 728.5 19.5Q715 33 715 52Q715 72 728.5 85.5Q742 99 761 99Q781 99 794.0 85.5Q807 72 807 52Q807 33 794.0 19.5Q781 6 761 6ZM873 39Q854 39 840.5 52.5Q827 66 827 85Q827 105 840.5 118.5Q854 132 873 132Q893 132 906.0 118.5Q919 105 919 85Q919 66 906.0 52.5Q893 39 873 39ZM976 92Q957 92 943.5 105.5Q930 119 930 138Q930 158 943.5 171.5Q957 185 976 185Q996 185 1009.0 171.5Q1022 158 1022 138Q1022 119 1009.0 105.5Q996 92 976 92ZM1071 160Q1052 160 1038.5 173.5Q1025 187 1025 206Q1025 226 1038.5 239.5Q1052 253 1071 253Q1091 253 1104.0 239.5Q1117 226 1117 206Q1117 187 1104.0 173.5Q1091 160 1071 160ZM1157 237Q1138 237 1124.5 250.5Q1111 264 1111 283Q1111 303 1124.5 316.5Q1138 330 1157 330Q1177 330 1190.0 316.5Q1203 303 1203 283Q1203 264 1190.0 250.5Q1177 237 1157 237ZM1239 323Q1220 323 1206.5 336.5Q1193 350 1193 369Q1193 389 1206.5 402.5Q1220 416 1239 416Q1259 416 1272.0 402.5Q1285 389 1285 369Q1285 350 1272.0 336.5Q1259 323 1239 323ZM1316 409Q1297 409 1283.5 422.5Q1270 436 1270 455Q1270 475 1283.5 488.5Q1297 502 1316 502Q1336 502 1349.0 488.5Q1362 475 1362 455Q1362 436 1349.0 422.5Q1336 409 1316 409ZM1532 1496Q1510 1496 1494.0 1512.0Q1478 1528 1478 1550Q1478 1572 1494.0 1587.5Q1510 1603 1532 1603Q1555 1603 1570.5 1587.5Q1586 1572 1586 1550Q1586 1528 1570.5 1512.0Q1555 1496 1532 1496ZM1532 1521Q1561 1521 1561 1551Q1561 1562 1552.5 1570.0Q1544 1578 1532 1578Q1520 1578 1511.5 1570.0Q1503 1562 1503 1551Q1503 1521 1532 1521Z" transform="translate(316.944, 72) scale(0.036, -0.036)" /><path d="M1244 1765Q1225 1765 1211.5 1778.5Q1198 1792 1198 1811Q1198 1831 1211.5 1844.5Q1225 1858 1244 1858Q1264 1858 1277.0 1844.5Q1290 1831 1290 1811Q1290 1792 1277.0 1778.5Q1264 1765 1244 1765ZM1193 1661Q1174 1661 1160.5 1674.5Q1147 1688 1147 1707Q1147 1727 1160.5 1740.5Q1174 1754 1193 1754Q1213 1754 1226.0 1740.5Q1239 1727 1239 1707Q1239 1688 1226.0 1674.5Q1213 1661 1193 1661ZM1142 1557Q1123 1557 1109.5 1570.5Q1096 1584 1096 1603Q1096 1623 1109.5 1636.5Q1123 1650 1142 1650Q1162 1650 1175.0 1636.5Q1188 1623 1188 1603Q1188 1584 1175.0 1570.5Q1162 1557 1142 1557ZM1091 1453Q1072 1453 1058.5 1466.5Q1045 1480 1045 1499Q1045 1519 1058.5 1532.5Q1072 1546 1091 1546Q1111 1546 1124.0 1532.5Q1137 1519 1137 1499Q1137 1480 1124.0 1466.5Q1111 1453 1091 1453ZM1039 1350Q1020 1350 1006.5 1363.5Q993 1377 993 1396Q993 1416 1006.5 1429.5Q1020 1443 1039 1443Q1059 1443 1072.0 1429.5Q1085 1416 1085 1396Q1085 1377 1072.0 1363.5Q1059 1350 1039 1350ZM988 1246Q969 1246 955.5 1259.5Q942 1273 942 1292Q942 1312 955.5 1325.5Q969 1339 988 1339Q1008 1339 1021.0 1325.5Q1034 1312 1034 1292Q1034 1273 1021.0 1259.5Q1008 1246 988 1246ZM936 1141Q917 1141 903.5 1154.5Q890 1168 890 1187Q890 1207 903.5 1220.5Q917 1234 936 1234Q956 1234 969.0 1220.5Q982 1207 982 1187Q982 1168 969.0 1154.5Q956 1141 936 1141ZM885 1038Q866 1038 852.5 1051.5Q839 1065 839 1084Q839 1104 852.5 1117.5Q866 1131 885 1131Q905 1131 918.0 1117.5Q931 1104 931 1084Q931 1065 918.0 1051.5Q905 1038 885 1038ZM834 934Q815 934 801.5 947.5Q788 961 788 980Q788 1000 801.5 1013.5Q815 1027 834 1027Q854 1027 867.0 1013.5Q880 1000 880 980Q880 961 867.0 947.5Q854 934 834 934ZM783 830Q764 830 750.5 843.5Q737 857 737 876Q737 896 750.5 909.5Q764 923 783 923Q803 923 816.0 909.5Q829 896 829 876Q829 857 816.0 843.5Q803 830 783 830ZM731 726Q712 726 698.5 739.5Q685 753 685 772Q685 792 698.5 805.5Q712 819 731 819Q751 819 764.0 805.5Q777 792 777 772Q777 753 764.0 739.5Q751 726 731 726ZM680 622Q661 622 647.5 635.5Q634 649 634 668Q634 688 647.5 701.5Q661 715 680 715Q700 715 713.0 701.5Q726 688 726 668Q726 649 713.0 635.5Q700 622 680 622ZM628 518Q609 518 595.5 531.5Q582 545 582 564Q582 584 595.5 597.5Q609 611 628 611Q648 611 661.0 597.5Q674 584 674 564Q674 545 661.0 531.5Q648 518 628 518ZM577 414Q558 414 544.5 427.5Q531 441 531 460Q531 480 544.5 493.5Q558 507 577 507Q597 507 610.0 493.5Q623 480 623 460Q623 441 610.0 427.5Q597 414 577 414ZM526 311Q507 311 493.5 324.5Q480 338 480 357Q480 377 493.5 390.5Q507 404 526 404Q546 404 559.0 390.5Q572 377 572 357Q572 338 559.0 324.5Q546 311 526 311ZM475 207Q456 207 442.5 220.5Q429 234 429 253Q429 273 442.5 286.5Q456 300 475 300Q495 300 508.0 286.5Q521 273 521 253Q521 234 508.0 220.5Q495 207 475 207ZM423 103Q404 103 390.5 116.5Q377 130 377 149Q377 169 390.5 182.5Q404 196 423 196Q443 196 456.0 182.5Q469 169 469 149Q469 130 456.0 116.5Q443 103 423 103ZM372 -1Q353 -1 339.5 12.5Q326 26 326 45Q326 65 339.5 78.5Q353 92 372 92Q392 92 405.0 78.5Q418 65 418 45Q418 26 405.0 12.5Q392 -1 372 -1ZM366 116Q347 116 333.5 129.5Q320 143 320 162Q320 182 333.5 195.5Q347 209 366 209Q386 209 399.0 195.5Q412 182 412 162Q412 143 399.0 129.5Q386 116 366 116ZM359 235Q340 235 326.5 248.5Q313 262 313 281Q313 301 326.5 314.5Q340 328 359 328Q379 328 392.0 314.5Q405 301 405 281Q405 262 392.0 248.5Q379 235 359 235ZM354 352Q335 352 321.5 365.5Q308 379 308 398Q308 418 321.5 431.5Q335 445 354 445Q374 445 387.0 431.5Q400 418 400 398Q400 379 387.0 365.5Q374 352 354 352ZM347 470Q328 470 314.5 483.5Q301 497 301 516Q301 536 314.5 549.5Q328 563 347 563Q367 563 380.0 549.5Q393 536 393 516Q393 497 380.0 483.5Q367 470 347 470ZM341 587Q322 587 308.5 600.5Q295 614 295 633Q295 653 308.5 666.5Q322 680 341 680Q361 680 374.0 666.5Q387 653 387 633Q387 614 374.0 600.5Q361 587 341 587ZM334 706Q315 706 301.5 719.5Q288 733 288 752Q288 772 301.5 785.5Q315 799 334 799Q354 799 367.0 785.5Q380 772 380 752Q380 733 367.0 719.5Q354 706 334 706ZM328 823Q309 823 295.5 836.5Q282 850 282 869Q282 889 295.5 902.5Q309 916 328 916Q348 916 361.0 902.5Q374 889 374 869Q374 850 361.0 836.5Q348 823 328 823ZM322 941Q303 941 289.5 954.5Q276 968 276 987Q276 1007 289.5 1020.5Q303 1034 322 1034Q342 1034 355.0 1020.5Q368 1007 368 987Q368 968 355.0 954.5Q342 941 322 941ZM316 1058Q297 1058 283.5 1071.5Q270 1085 270 1104Q270 1124 283.5 1137.5Q297 1151 316 1151Q336 1151 349.0 1137.5Q362 1124 362 1104Q362 1085 349.0 1071.5Q336 1058 316 1058ZM309 1177Q290 1177 276.5 1190.5Q263 1204 263 1223Q263 1243 276.5 1256.5Q290 1270 309 1270Q329 1270 342.0 1256.5Q355 1243 355 1223Q355 1204 342.0 1190.5Q329 1177 309 1177ZM303 1294Q284 1294 270.5 1307.5Q257 1321 257 1340Q257 1360 270.5 1373.5Q284 1387 303 1387Q323 1387 336.0 1373.5Q349 1360 349 1340Q349 1321 336.0 1307.5Q323 1294 303 1294ZM296 1411Q277 1411 263.5 1424.5Q250 1438 250 1457Q250 1477 263.5 1490.5Q277 1504 296 1504Q316 1504 329.0 1490.5Q342 1477 342 1457Q342 1438 329.0 1424.5Q316 1411 296 1411ZM291 1529Q272 1529 258.5 1542.5Q245 1556 245 1575Q245 1595 258.5 1608.5Q272 1622 291 1622Q311 1622 324.0 1608.5Q337 1595 337 1575Q337 1556 324.0 1542.5Q311 1529 291 1529ZM284 1647Q265 1647 251.5 1660.5Q238 1674 238 1693Q238 1713 251.5 1726.5Q265 1740 284 1740Q304 1740 317.0 1726.5Q330 1713 330 1693Q330 1674 317.0 1660.5Q304 1647 284 1647ZM277 1765Q255 1765 239.0 1781.0Q223 1797 223 1819Q223 1841 239.0 1856.5Q255 1872 277 1872Q300 1872 315.5 1856.5Q331 1841 331 1819Q331 1797 315.5 1781.0Q300 1765 277 1765ZM277 1790Q306 1790 306 1820Q306 1831 297.5 1839.0Q289 1847 277 1847Q265 1847 256.5 1839.0Q248 1831 248 1820Q248 1790 277 1790ZM2212 1765Q2193 1765 2179.5 1778.5Q2166 1792 2166 1811Q2166 1831 2179.5 1844.5Q2193 1858 2212 1858Q2232 1858 2245.0 1844.5Q2258 1831 2258 1811Q2258 1792 2245.0 1778.5Q2232 1765 2212 1765ZM2161 1661Q2142 1661 2128.5 1674.5Q2115 1688 2115 1707Q2115 1727 2128.5 1740.5Q2142 1754 2161 1754Q2181 1754 2194.0 1740.5Q2207 1727 2207 1707Q2207 1688 2194.0 1674.5Q2181 1661 2161 1661ZM2109 1557Q2090 1557 2076.5 1570.5Q2063 1584 2063 1603Q2063 1623 2076.5 1636.5Q2090 1650 2109 1650Q2129 1650 2142.0 1636.5Q2155 1623 2155 1603Q2155 1584 2142.0 1570.5Q2129 1557 2109 1557ZM2058 1453Q2039 1453 2025.5 1466.5Q2012 1480 2012 1499Q2012 1519 2025.5 1532.5Q2039 1546 2058 1546Q2078 1546 2091.0 1532.5Q2104 1519 2104 1499Q2104 1480 2091.0 1466.5Q2078 1453 2058 1453ZM2007 1350Q1988 1350 1974.5 1363.5Q1961 1377 1961 1396Q1961 1416 1974.5 1429.5Q1988 1443 2007 1443Q2027 1443 2040.0 1429.5Q2053 1416 2053 1396Q2053 1377 2040.0 1363.5Q2027 1350 2007 1350ZM1956 1246Q1937 1246 1923.5 1259.5Q1910 1273 1910 1292Q1910 1312 1923.5 1325.5Q1937 1339 1956 1339Q1976 1339 1989.0 1325.5Q2002 1312 2002 1292Q2002 1273 1989.0 1259.5Q1976 1246 1956 1246ZM1904 1141Q1885 1141 1871.5 1154.5Q1858 1168 1858 1187Q1858 1207 1871.5 1220.5Q1885 1234 1904 1234Q1924 1234 1937.0 1220.5Q1950 1207 1950 1187Q1950 1168 1937.0 1154.5Q1924 1141 1904 1141ZM1853 1038Q1834 1038 1820.5 1051.5Q1807 1065 1807 1084Q1807 1104 1820.5 1117.5Q1834 1131 1853 1131Q1873 1131 1886.0 1117.5Q1899 1104 1899 1084Q1899 1065 1886.0 1051.5Q1873 1038 1853 1038ZM1801 934Q1782 934 1768.5 947.5Q1755 961 1755 980Q1755 1000 1768.5 1013.5Q1782 1027 1801 1027Q1821 1027 1834.0 1013.5Q1847 1000 1847 980Q1847 961 1834.0 947.5Q1821 934 1801 934ZM1750 830Q1731 830 1717.5 843.5Q1704 857 1704 876Q1704 896 1717.5 909.5Q1731 923 1750 923Q1770 923 1783.0 909.5Q1796 896 1796 876Q1796 857 1783.0 843.5Q1770 830 1750 830ZM1699 726Q1680 726 1666.5 739.5Q1653 753 1653 772Q1653 792 1666.5 805.5Q1680 819 1699 819Q1719 819 1732.0 805.5Q1745 792 1745 772Q1745 753 1732.0 739.5Q1719 726 1699 726ZM1648 622Q1629 622 1615.5 635.5Q1602 649 1602 668Q1602 688 1615.5 701.5Q1629 715 1648 715Q1668 715 1681.0 701.5Q1694 688 1694 668Q1694 649 1681.0 635.5Q1668 622 1648 622ZM1596 518Q1577 518 1563.5 531.5Q1550 545 1550 564Q1550 584 1563.5 597.5Q1577 611 1596 611Q1616 611 1629.0 597.5Q1642 584 1642 564Q1642 545 1629.0 531.5Q1616 518 1596 518ZM1545 414Q1526 414 1512.5 427.5Q1499 441 1499 460Q1499 480 1512.5 493.5Q1526 507 1545 507Q1565 507 1578.0 493.5Q1591 480 1591 460Q1591 441 1578.0 427.5Q1565 414 1545 414ZM1493 311Q1474 311 1460.5 324.5Q1447 338 1447 357Q1447 377 1460.5 390.5Q1474 404 1493 404Q1513 404 1526.0 390.5Q1539 377 1539 357Q1539 338 1526.0 324.5Q1513 311 1493 311ZM1442 207Q1423 207 1409.5 220.5Q1396 234 1396 253Q1396 273 1409.5 286.5Q1423 300 1442 300Q1462 300 1475.0 286.5Q1488 273 1488 253Q1488 234 1475.0 220.5Q1462 207 1442 207ZM1391 103Q1372 103 1358.5 116.5Q1345 130 1345 149Q1345 169 1358.5 182.5Q1372 196 1391 196Q1411 196 1424.0 182.5Q1437 169 1437 149Q1437 130 1424.0 116.5Q1411 103 1391 103ZM1340 -1Q1321 -1 1307.5 12.5Q1294 26 1294 45Q1294 65 1307.5 78.5Q1321 92 1340 92Q1360 92 1373.0 78.5Q1386 65 1386 45Q1386 26 1373.0 12.5Q1360 -1 1340 -1ZM1333 116Q1314 116 1300.5 129.5Q1287 143 1287 162Q1287 182 1300.5 195.5Q1314 209 1333 209Q1353 209 1366.0 195.5Q1379 182 1379 162Q1379 143 1366.0 129.5Q1353 116 1333 116ZM1327 235Q1308 235 1294.5 248.5Q1281 262 1281 281Q1281 301 1294.5 314.5Q1308 328 1327 328Q1347 328 1360.0 314.5Q1373 301 1373 281Q1373 262 1360.0 248.5Q1347 235 1327 235ZM1321 352Q1302 352 1288.5 365.5Q1275 379 1275 398Q1275 418 1288.5 431.5Q1302 445 1321 445Q1341 445 1354.0 431.5Q1367 418 1367 398Q1367 379 1354.0 365.5Q1341 352 1321 352ZM1315 470Q1296 470 1282.5 483.5Q1269 497 1269 516Q1269 536 1282.5 549.5Q1296 563 1315 563Q1335 563 1348.0 549.5Q1361 536 1361 516Q1361 497 1348.0 483.5Q1335 470 1315 470ZM1308 587Q1289 587 1275.5 600.5Q1262 614 1262 633Q1262 653 1275.5 666.5Q1289 680 1308 680Q1328 680 1341.0 666.5Q1354 653 1354 633Q1354 614 1341.0 600.5Q1328 587 1308 587ZM1302 706Q1283 706 1269.5 719.5Q1256 733 1256 752Q1256 772 1269.5 785.5Q1283 799 1302 799Q1322 799 1335.0 785.5Q1348 772 1348 752Q1348 733 1335.0 719.5Q1322 706 1302 706ZM1295 823Q1276 823 1262.5 836.5Q1249 850 1249 869Q1249 889 1262.5 902.5Q1276 916 1295 916Q1315 916 1328.0 902.5Q1341 889 1341 869Q1341 850 1328.0 836.5Q1315 823 1295 823ZM1290 941Q1271 941 1257.5 954.5Q1244 968 1244 987Q1244 1007 1257.5 1020.5Q1271 1034 1290 1034Q1310 1034 1323.0 1020.5Q1336 1007 1336 987Q1336 968 1323.0 954.5Q1310 941 1290 941ZM1283 1058Q1264 1058 1250.5 1071.5Q1237 1085 1237 1104Q1237 1124 1250.5 1137.5Q1264 1151 1283 1151Q1303 1151 1316.0 1137.5Q1329 1124 1329 1104Q1329 1085 1316.0 1071.5Q1303 1058 1283 1058ZM1277 1177Q1258 1177 1244.5 1190.5Q1231 1204 1231 1223Q1231 1243 1244.5 1256.5Q1258 1270 1277 1270Q1297 1270 1310.0 1256.5Q1323 1243 1323 1223Q1323 1204 1310.0 1190.5Q1297 1177 1277 1177ZM1270 1294Q1251 1294 1237.5 1307.5Q1224 1321 1224 1340Q1224 1360 1237.5 1373.5Q1251 1387 1270 1387Q1290 1387 1303.0 1373.5Q1316 1360 1316 1340Q1316 1321 1303.0 1307.5Q1290 1294 1270 1294ZM1264 1411Q1245 1411 1231.5 1424.5Q1218 1438 1218 1457Q1218 1477 1231.5 1490.5Q1245 1504 1264 1504Q1284 1504 1297.0 1490.5Q1310 1477 1310 1457Q1310 1438 1297.0 1424.5Q1284 1411 1264 1411ZM1258 1529Q1239 1529 1225.5 1542.5Q1212 1556 1212 1575Q1212 1595 1225.5 1608.5Q1239 1622 1258 1622Q1278 1622 1291.0 1608.5Q1304 1595 1304 1575Q1304 1556 1291.0 1542.5Q1278 1529 1258 1529ZM1252 1647Q1233 1647 1219.5 1660.5Q1206 1674 1206 1693Q1206 1713 1219.5 1726.5Q1233 1740 1252 1740Q1272 1740 1285.0 1726.5Q1298 1713 1298 1693Q1298 1674 1285.0 1660.5Q1272 1647 1252 1647Z" transform="translate(381.636, 72) scale(0.036, -0.036)" /><path d="M597 952Q578 952 564.5 965.5Q551 979 551 998Q551 1018 564.5 1031.5Q578 1045 597 1045Q617 1045 630.0 1031.5Q643 1018 643 998Q643 979 630.0 965.5Q617 952 597 952ZM728 952Q709 952 695.5 965.5Q682 979 682 998Q682 1018 695.5 1031.5Q709 1045 728 1045Q748 1045 761.0 1031.5Q774 1018 774 998Q774 979 761.0 965.5Q748 952 728 952ZM858 952Q839 952 825.5 965.5Q812 979 812 998Q812 1018 825.5 1031.5Q839 1045 858 1045Q878 1045 891.0 1031.5Q904 1018 904 998Q904 979 891.0 965.5Q878 952 858 952ZM1045 -1Q1026 -1 1012.5 12.5Q999 26 999 45Q999 65 1012.5 78.5Q1026 92 1045 92Q1065 92 1078.0 78.5Q1091 65 1091 45Q1091 26 1078.0 12.5Q1065 -1 1045 -1ZM1036 116Q1017 116 1003.5 129.5Q990 143 990 162Q990 182 1003.5 195.5Q1017 209 1036 209Q1056 209 1069.0 195.5Q1082 182 1082 162Q1082 143 1069.0 129.5Q1056 116 1036 116ZM1027 235Q1008 235 994.5 248.5Q981 262 981 281Q981 301 994.5 314.5Q1008 328 1027 328Q1047 328 1060.0 314.5Q1073 301 1073 281Q1073 262 1060.0 248.5Q1047 235 1027 235ZM1017 352Q998 352 984.5 365.5Q971 379 971 398Q971 418 984.5 431.5Q998 445 1017 445Q1037 445 1050.0 431.5Q1063 418 1063 398Q1063 379 1050.0 365.5Q1037 352 1017 352ZM1007 470Q988 470 974.5 483.5Q961 497 961 516Q961 536 974.5 549.5Q988 563 1007 563Q1027 563 1040.0 549.5Q1053 536 1053 516Q1053 497 1040.0 483.5Q1027 470 1007 470ZM998 587Q979 587 965.5 600.5Q952 614 952 633Q952 653 965.5 666.5Q979 680 998 680Q1018 680 1031.0 666.5Q1044 653 1044 633Q1044 614 1031.0 600.5Q1018 587 998 587ZM988 706Q969 706 955.5 719.5Q942 733 942 752Q942 772 955.5 785.5Q969 799 988 799Q1008 799 1021.0 785.5Q1034 772 1034 752Q1034 733 1021.0 719.5Q1008 706 988 706ZM979 823Q960 823 946.5 836.5Q933 850 933 869Q933 889 946.5 902.5Q960 916 979 916Q999 916 1012.0 902.5Q1025 889 1025 869Q1025 850 1012.0 836.5Q999 823 979 823ZM969 941Q950 941 936.5 954.5Q923 968 923 987Q923 1007 936.5 1020.5Q950 1034 969 1034Q989 1034 1002.0 1020.5Q1015 1007 1015 987Q1015 968 1002.0 954.5Q989 941 969 941ZM960 1058Q941 1058 927.5 1071.5Q914 1085 914 1104Q914 1124 927.5 1137.5Q941 1151 960 1151Q980 1151 993.0 1137.5Q1006 1124 1006 1104Q1006 1085 993.0 1071.5Q980 1058 960 1058ZM950 1177Q931 1177 917.5 1190.5Q904 1204 904 1223Q904 1243 917.5 1256.5Q931 1270 950 1270Q970 1270 983.0 1256.5Q996 1243 996 1223Q996 1204 983.0 1190.5Q970 1177 950 1177ZM941 1294Q922 1294 908.5 1307.5Q895 1321 895 1340Q895 1360 908.5 1373.5Q922 1387 941 1387Q961 1387 974.0 1373.5Q987 1360 987 1340Q987 1321 974.0 1307.5Q961 1294 941 1294ZM932 1411Q913 1411 899.5 1424.5Q886 1438 886 1457Q886 1477 899.5 1490.5Q913 1504 932 1504Q952 1504 965.0 1490.5Q978 1477 978 1457Q978 1438 965.0 1424.5Q952 1411 932 1411ZM922 1529Q903 1529 889.5 1542.5Q876 1556 876 1575Q876 1595 889.5 1608.5Q903 1622 922 1622Q942 1622 955.0 1608.5Q968 1595 968 1575Q968 1556 955.0 1542.5Q942 1529 922 1529ZM912 1647Q893 1647 879.5 1660.5Q866 1674 866 1693Q866 1713 879.5 1726.5Q893 1740 912 1740Q932 1740 945.0 1726.5Q958 1713 958 1693Q958 1674 945.0 1660.5Q932 1647 912 1647ZM-3 -1Q-22 -1 -35.5 12.5Q-49 26 -49 45Q-49 65 -35.5 78.5Q-22 92 -3 92Q17 92 30.0 78.5Q43 65 43 45Q43 26 30.0 12.5Q17 -1 -3 -1ZM50 103Q31 103 17.5 116.5Q4 130 4 149Q4 169 17.5 182.5Q31 196 50 196Q70 196 83.0 182.5Q96 169 96 149Q96 130 83.0 116.5Q70 103 50 103ZM104 207Q85 207 71.5 220.5Q58 234 58 253Q58 273 71.5 286.5Q85 300 104 300Q124 300 137.0 286.5Q150 273 150 253Q150 234 137.0 220.5Q124 207 104 207ZM157 311Q138 311 124.5 324.5Q111 338 111 357Q111 377 124.5 390.5Q138 404 157 404Q177 404 190.0 390.5Q203 377 203 357Q203 338 190.0 324.5Q177 311 157 311ZM210 414Q191 414 177.5 427.5Q164 441 164 460Q164 480 177.5 493.5Q191 507 210 507Q230 507 243.0 493.5Q256 480 256 460Q256 441 243.0 427.5Q230 414 210 414ZM264 518Q245 518 231.5 531.5Q218 545 218 564Q218 584 231.5 597.5Q245 611 264 611Q284 611 297.0 597.5Q310 584 310 564Q310 545 297.0 531.5Q284 518 264 518ZM316 622Q297 622 283.5 635.5Q270 649 270 668Q270 688 283.5 701.5Q297 715 316 715Q336 715 349.0 701.5Q362 688 362 668Q362 649 349.0 635.5Q336 622 316 622ZM370 726Q351 726 337.5 739.5Q324 753 324 772Q324 792 337.5 805.5Q351 819 370 819Q390 819 403.0 805.5Q416 792 416 772Q416 753 403.0 739.5Q390 726 370 726ZM423 830Q404 830 390.5 843.5Q377 857 377 876Q377 896 390.5 909.5Q404 923 423 923Q443 923 456.0 909.5Q469 896 469 876Q469 857 456.0 843.5Q443 830 423 830ZM476 934Q457 934 443.5 947.5Q430 961 430 980Q430 1000 443.5 1013.5Q457 1027 476 1027Q496 1027 509.0 1013.5Q522 1000 522 980Q522 961 509.0 947.5Q496 934 476 934ZM530 1038Q511 1038 497.5 1051.5Q484 1065 484 1084Q484 1104 497.5 1117.5Q511 1131 530 1131Q550 1131 563.0 1117.5Q576 1104 576 1084Q576 1065 563.0 1051.5Q550 1038 530 1038ZM583 1141Q564 1141 550.5 1154.5Q537 1168 537 1187Q537 1207 550.5 1220.5Q564 1234 583 1234Q603 1234 616.0 1220.5Q629 1207 629 1187Q629 1168 616.0 1154.5Q603 1141 583 1141ZM636 1246Q617 1246 603.5 1259.5Q590 1273 590 1292Q590 1312 603.5 1325.5Q617 1339 636 1339Q656 1339 669.0 1325.5Q682 1312 682 1292Q682 1273 669.0 1259.5Q656 1246 636 1246ZM689 1350Q670 1350 656.5 1363.5Q643 1377 643 1396Q643 1416 656.5 1429.5Q670 1443 689 1443Q709 1443 722.0 1429.5Q735 1416 735 1396Q735 1377 722.0 1363.5Q709 1350 689 1350ZM743 1453Q724 1453 710.5 1466.5Q697 1480 697 1499Q697 1519 710.5 1532.5Q724 1546 743 1546Q763 1546 776.0 1532.5Q789 1519 789 1499Q789 1480 776.0 1466.5Q763 1453 743 1453ZM797 1557Q778 1557 764.5 1570.5Q751 1584 751 1603Q751 1623 764.5 1636.5Q778 1650 797 1650Q817 1650 830.0 1636.5Q843 1623 843 1603Q843 1584 830.0 1570.5Q817 1557 797 1557ZM849 1661Q830 1661 816.5 1674.5Q803 1688 803 1707Q803 1727 816.5 1740.5Q830 1754 849 1754Q869 1754 882.0 1740.5Q895 1727 895 1707Q895 1688 882.0 1674.5Q869 1661 849 1661ZM903 1758Q881 1758 865.0 1774.0Q849 1790 849 1812Q849 1834 865.0 1849.5Q881 1865 903 1865Q926 1865 941.5 1849.5Q957 1834 957 1812Q957 1790 941.5 1774.0Q926 1758 903 1758ZM903 1783Q932 1783 932 1813Q932 1824 923.5 1832.0Q915 1840 903 1840Q891 1840 882.5 1832.0Q874 1824 874 1813Q874 1783 903 1783Z" transform="translate(453.672, 72) scale(0.036, -0.036)" /><path d="M1166 109Q1147 109 1133.5 122.5Q1120 136 1120 155Q1120 175 1133.5 188.5Q1147 202 1166 202Q1186 202 1199.0 188.5Q1212 175 1212 155Q1212 136 1199.0 122.5Q1186 109 1166 109ZM1125 220Q1106 220 1092.5 233.5Q1079 247 1079 266Q1079 286 1092.5 299.5Q1106 313 1125 313Q1145 313 1158.0 299.5Q1171 286 1171 266Q1171 247 1158.0 233.5Q1145 220 1125 220ZM1085 330Q1066 330 1052.5 343.5Q1039 357 1039 376Q1039 396 1052.5 409.5Q1066 423 1085 423Q1105 423 1118.0 409.5Q1131 396 1131 376Q1131 357 1118.0 343.5Q1105 330 1085 330ZM1045 440Q1026 440 1012.5 453.5Q999 467 999 486Q999 506 1012.5 519.5Q1026 533 1045 533Q1065 533 1078.0 519.5Q1091 506 1091 486Q1091 467 1078.0 453.5Q1065 440 1045 440ZM1004 551Q985 551 971.5 564.5Q958 578 958 597Q958 617 971.5 630.5Q985 644 1004 644Q1024 644 1037.0 630.5Q1050 617 1050 597Q1050 578 1037.0 564.5Q1024 551 1004 551ZM963 661Q944 661 930.5 674.5Q917 688 917 707Q917 727 930.5 740.5Q944 754 963 754Q983 754 996.0 740.5Q1009 727 1009 707Q1009 688 996.0 674.5Q983 661 963 661ZM923 771Q904 771 890.5 784.5Q877 798 877 817Q877 837 890.5 850.5Q904 864 923 864Q943 864 956.0 850.5Q969 837 969 817Q969 798 956.0 784.5Q943 771 923 771ZM883 882Q864 882 850.5 895.5Q837 909 837 928Q837 948 850.5 961.5Q864 975 883 975Q903 975 916.0 961.5Q929 948 929 928Q929 909 916.0 895.5Q903 882 883 882ZM842 992Q823 992 809.5 1005.5Q796 1019 796 1038Q796 1058 809.5 1071.5Q823 1085 842 1085Q862 1085 875.0 1071.5Q888 1058 888 1038Q888 1019 875.0 1005.5Q862 992 842 992ZM801 1103Q782 1103 768.5 1116.5Q755 1130 755 1149Q755 1169 768.5 1182.5Q782 1196 801 1196Q821 1196 834.0 1182.5Q847 1169 847 1149Q847 1130 834.0 1116.5Q821 1103 801 1103ZM761 1213Q742 1213 728.5 1226.5Q715 1240 715 1259Q715 1279 728.5 1292.5Q742 1306 761 1306Q781 1306 794.0 1292.5Q807 1279 807 1259Q807 1240 794.0 1226.5Q781 1213 761 1213ZM720 1324Q701 1324 687.5 1337.5Q674 1351 674 1370Q674 1390 687.5 1403.5Q701 1417 720 1417Q740 1417 753.0 1403.5Q766 1390 766 1370Q766 1351 753.0 1337.5Q740 1324 720 1324ZM679 1434Q660 1434 646.5 1447.5Q633 1461 633 1480Q633 1500 646.5 1513.5Q660 1527 679 1527Q699 1527 712.0 1513.5Q725 1500 725 1480Q725 1461 712.0 1447.5Q699 1434 679 1434ZM640 1544Q621 1544 607.5 1557.5Q594 1571 594 1590Q594 1610 607.5 1623.5Q621 1637 640 1637Q660 1637 673.0 1623.5Q686 1610 686 1590Q686 1571 673.0 1557.5Q660 1544 640 1544ZM599 1655Q580 1655 566.5 1668.5Q553 1682 553 1701Q553 1721 566.5 1734.5Q580 1748 599 1748Q619 1748 632.0 1734.5Q645 1721 645 1701Q645 1682 632.0 1668.5Q619 1655 599 1655ZM1207 0Q1188 0 1174.5 13.5Q1161 27 1161 46Q1161 66 1174.5 79.5Q1188 93 1207 93Q1227 93 1240.0 79.5Q1253 66 1253 46Q1253 27 1240.0 13.5Q1227 0 1207 0ZM1226 110Q1207 110 1193.5 123.5Q1180 137 1180 156Q1180 176 1193.5 189.5Q1207 203 1226 203Q1246 203 1259.0 189.5Q1272 176 1272 156Q1272 137 1259.0 123.5Q1246 110 1226 110ZM1245 221Q1226 221 1212.5 234.5Q1199 248 1199 267Q1199 287 1212.5 300.5Q1226 314 1245 314Q1265 314 1278.0 300.5Q1291 287 1291 267Q1291 248 1278.0 234.5Q1265 221 1245 221ZM1265 331Q1246 331 1232.5 344.5Q1219 358 1219 377Q1219 397 1232.5 410.5Q1246 424 1265 424Q1285 424 1298.0 410.5Q1311 397 1311 377Q1311 358 1298.0 344.5Q1285 331 1265 331ZM1284 441Q1265 441 1251.5 454.5Q1238 468 1238 487Q1238 507 1251.5 520.5Q1265 534 1284 534Q1304 534 1317.0 520.5Q1330 507 1330 487Q1330 468 1317.0 454.5Q1304 441 1284 441ZM1304 552Q1285 552 1271.5 565.5Q1258 579 1258 598Q1258 618 1271.5 631.5Q1285 645 1304 645Q1324 645 1337.0 631.5Q1350 618 1350 598Q1350 579 1337.0 565.5Q1324 552 1304 552ZM1323 662Q1304 662 1290.5 675.5Q1277 689 1277 708Q1277 728 1290.5 741.5Q1304 755 1323 755Q1343 755 1356.0 741.5Q1369 728 1369 708Q1369 689 1356.0 675.5Q1343 662 1323 662ZM1344 772Q1325 772 1311.5 785.5Q1298 799 1298 818Q1298 838 1311.5 851.5Q1325 865 1344 865Q1364 865 1377.0 851.5Q1390 838 1390 818Q1390 799 1377.0 785.5Q1364 772 1344 772ZM1363 883Q1344 883 1330.5 896.5Q1317 910 1317 929Q1317 949 1330.5 962.5Q1344 976 1363 976Q1383 976 1396.0 962.5Q1409 949 1409 929Q1409 910 1396.0 896.5Q1383 883 1363 883ZM1382 993Q1363 993 1349.5 1006.5Q1336 1020 1336 1039Q1336 1059 1349.5 1072.5Q1363 1086 1382 1086Q1402 1086 1415.0 1072.5Q1428 1059 1428 1039Q1428 1020 1415.0 1006.5Q1402 993 1382 993ZM1402 1103Q1383 1103 1369.5 1116.5Q1356 1130 1356 1149Q1356 1169 1369.5 1182.5Q1383 1196 1402 1196Q1422 1196 1435.0 1182.5Q1448 1169 1448 1149Q1448 1130 1435.0 1116.5Q1422 1103 1402 1103ZM1421 1214Q1402 1214 1388.5 1227.5Q1375 1241 1375 1260Q1375 1280 1388.5 1293.5Q1402 1307 1421 1307Q1441 1307 1454.0 1293.5Q1467 1280 1467 1260Q1467 1241 1454.0 1227.5Q1441 1214 1421 1214ZM1441 1325Q1422 1325 1408.5 1338.5Q1395 1352 1395 1371Q1395 1391 1408.5 1404.5Q1422 1418 1441 1418Q1461 1418 1474.0 1404.5Q1487 1391 1487 1371Q1487 1352 1474.0 1338.5Q1461 1325 1441 1325ZM1460 1435Q1441 1435 1427.5 1448.5Q1414 1462 1414 1481Q1414 1501 1427.5 1514.5Q1441 1528 1460 1528Q1480 1528 1493.0 1514.5Q1506 1501 1506 1481Q1506 1462 1493.0 1448.5Q1480 1435 1460 1435ZM1479 1545Q1460 1545 1446.5 1558.5Q1433 1572 1433 1591Q1433 1611 1446.5 1624.5Q1460 1638 1479 1638Q1499 1638 1512.0 1624.5Q1525 1611 1525 1591Q1525 1572 1512.0 1558.5Q1499 1545 1479 1545ZM1518 1765Q1499 1765 1485.5 1778.5Q1472 1792 1472 1811Q1472 1831 1485.5 1844.5Q1499 1858 1518 1858Q1538 1858 1551.0 1844.5Q1564 1831 1564 1811Q1564 1792 1551.0 1778.5Q1538 1765 1518 1765ZM1499 1656Q1480 1656 1466.5 1669.5Q1453 1683 1453 1702Q1453 1722 1466.5 1735.5Q1480 1749 1499 1749Q1519 1749 1532.0 1735.5Q1545 1722 1545 1702Q1545 1683 1532.0 1669.5Q1519 1656 1499 1656ZM266 110Q247 110 233.5 123.5Q220 137 220 156Q220 176 233.5 189.5Q247 203 266 203Q286 203 299.0 189.5Q312 176 312 156Q312 137 299.0 123.5Q286 110 266 110ZM285 221Q266 221 252.5 234.5Q239 248 239 267Q239 287 252.5 300.5Q266 314 285 314Q305 314 318.0 300.5Q331 287 331 267Q331 248 318.0 234.5Q305 221 285 221ZM305 331Q286 331 272.5 344.5Q259 358 259 377Q259 397 272.5 410.5Q286 424 305 424Q325 424 338.0 410.5Q351 397 351 377Q351 358 338.0 344.5Q325 331 305 331ZM324 441Q305 441 291.5 454.5Q278 468 278 487Q278 507 291.5 520.5Q305 534 324 534Q344 534 357.0 520.5Q370 507 370 487Q370 468 357.0 454.5Q344 441 324 441ZM344 552Q325 552 311.5 565.5Q298 579 298 598Q298 618 311.5 631.5Q325 645 344 645Q364 645 377.0 631.5Q390 618 390 598Q390 579 377.0 565.5Q364 552 344 552ZM363 662Q344 662 330.5 675.5Q317 689 317 708Q317 728 330.5 741.5Q344 755 363 755Q383 755 396.0 741.5Q409 728 409 708Q409 689 396.0 675.5Q383 662 363 662ZM383 772Q364 772 350.5 785.5Q337 799 337 818Q337 838 350.5 851.5Q364 865 383 865Q403 865 416.0 851.5Q429 838 429 818Q429 799 416.0 785.5Q403 772 383 772ZM403 883Q384 883 370.5 896.5Q357 910 357 929Q357 949 370.5 962.5Q384 976 403 976Q423 976 436.0 962.5Q449 949 449 929Q449 910 436.0 896.5Q423 883 403 883ZM422 993Q403 993 389.5 1006.5Q376 1020 376 1039Q376 1059 389.5 1072.5Q403 1086 422 1086Q442 1086 455.0 1072.5Q468 1059 468 1039Q468 1020 455.0 1006.5Q442 993 422 993ZM442 1103Q423 1103 409.5 1116.5Q396 1130 396 1149Q396 1169 409.5 1182.5Q423 1196 442 1196Q462 1196 475.0 1182.5Q488 1169 488 1149Q488 1130 475.0 1116.5Q462 1103 442 1103ZM461 1214Q442 1214 428.5 1227.5Q415 1241 415 1260Q415 1280 428.5 1293.5Q442 1307 461 1307Q481 1307 494.0 1293.5Q507 1280 507 1260Q507 1241 494.0 1227.5Q481 1214 461 1214ZM480 1325Q461 1325 447.5 1338.5Q434 1352 434 1371Q434 1391 447.5 1404.5Q461 1418 480 1418Q500 1418 513.0 1404.5Q526 1391 526 1371Q526 1352 513.0 1338.5Q500 1325 480 1325ZM500 1435Q481 1435 467.5 1448.5Q454 1462 454 1481Q454 1501 467.5 1514.5Q481 1528 500 1528Q520 1528 533.0 1514.5Q546 1501 546 1481Q546 1462 533.0 1448.5Q520 1435 500 1435ZM519 1545Q500 1545 486.5 1558.5Q473 1572 473 1591Q473 1611 486.5 1624.5Q500 1638 519 1638Q539 1638 552.0 1624.5Q565 1611 565 1591Q565 1572 552.0 1558.5Q539 1545 519 1545ZM558 1765Q539 1765 525.5 1778.5Q512 1792 512 1811Q512 1831 525.5 1844.5Q539 1858 558 1858Q578 1858 591.0 1844.5Q604 1831 604 1811Q604 1792 591.0 1778.5Q578 1765 558 1765ZM539 1656Q520 1656 506.5 1669.5Q493 1683 493 1702Q493 1722 506.5 1735.5Q520 1749 539 1749Q559 1749 572.0 1735.5Q585 1722 585 1702Q585 1683 572.0 1669.5Q559 1656 539 1656ZM246 -7Q224 -7 208.0 9.0Q192 25 192 47Q192 69 208.0 84.5Q224 100 246 100Q269 100 284.5 84.5Q300 69 300 47Q300 25 284.5 9.0Q269 -7 246 -7ZM246 18Q275 18 275 48Q275 59 266.5 67.0Q258 75 246 75Q234 75 225.5 67.0Q217 59 217 48Q217 18 246 18Z" transform="translate(511.956, 72) scale(0.036, -0.036)" /><path d="M586 -1Q567 -1 553.5 12.5Q540 26 540 45Q540 65 553.5 78.5Q567 92 586 92Q606 92 619.0 78.5Q632 65 632 45Q632 26 619.0 12.5Q606 -1 586 -1ZM605 109Q586 109 572.5 122.5Q559 136 559 155Q559 175 572.5 188.5Q586 202 605 202Q625 202 638.0 188.5Q651 175 651 155Q651 136 638.0 122.5Q625 109 605 109ZM625 220Q606 220 592.5 233.5Q579 247 579 266Q579 286 592.5 299.5Q606 313 625 313Q645 313 658.0 299.5Q671 286 671 266Q671 247 658.0 233.5Q645 220 625 220ZM644 330Q625 330 611.5 343.5Q598 357 598 376Q598 396 611.5 409.5Q625 423 644 423Q664 423 677.0 409.5Q690 396 690 376Q690 357 677.0 343.5Q664 330 644 330ZM664 440Q645 440 631.5 453.5Q618 467 618 486Q618 506 631.5 519.5Q645 533 664 533Q684 533 697.0 519.5Q710 506 710 486Q710 467 697.0 453.5Q684 440 664 440ZM683 551Q664 551 650.5 564.5Q637 578 637 597Q637 617 650.5 630.5Q664 644 683 644Q703 644 716.0 630.5Q729 617 729 597Q729 578 716.0 564.5Q703 551 683 551ZM703 661Q684 661 670.5 674.5Q657 688 657 707Q657 727 670.5 740.5Q684 754 703 754Q723 754 736.0 740.5Q749 727 749 707Q749 688 736.0 674.5Q723 661 703 661ZM723 771Q704 771 690.5 784.5Q677 798 677 817Q677 837 690.5 850.5Q704 864 723 864Q743 864 756.0 850.5Q769 837 769 817Q769 798 756.0 784.5Q743 771 723 771ZM742 882Q723 882 709.5 895.5Q696 909 696 928Q696 948 709.5 961.5Q723 975 742 975Q762 975 775.0 961.5Q788 948 788 928Q788 909 775.0 895.5Q762 882 742 882ZM762 992Q743 992 729.5 1005.5Q716 1019 716 1038Q716 1058 729.5 1071.5Q743 1085 762 1085Q782 1085 795.0 1071.5Q808 1058 808 1038Q808 1019 795.0 1005.5Q782 992 762 992ZM781 1103Q762 1103 748.5 1116.5Q735 1130 735 1149Q735 1169 748.5 1182.5Q762 1196 781 1196Q801 1196 814.0 1182.5Q827 1169 827 1149Q827 1130 814.0 1116.5Q801 1103 781 1103ZM801 1213Q782 1213 768.5 1226.5Q755 1240 755 1259Q755 1279 768.5 1292.5Q782 1306 801 1306Q821 1306 834.0 1292.5Q847 1279 847 1259Q847 1240 834.0 1226.5Q821 1213 801 1213ZM820 1324Q801 1324 787.5 1337.5Q774 1351 774 1370Q774 1390 787.5 1403.5Q801 1417 820 1417Q840 1417 853.0 1403.5Q866 1390 866 1370Q866 1351 853.0 1337.5Q840 1324 820 1324ZM839 1434Q820 1434 806.5 1447.5Q793 1461 793 1480Q793 1500 806.5 1513.5Q820 1527 839 1527Q859 1527 872.0 1513.5Q885 1500 885 1480Q885 1461 872.0 1447.5Q859 1434 839 1434ZM859 1544Q840 1544 826.5 1557.5Q813 1571 813 1590Q813 1610 826.5 1623.5Q840 1637 859 1637Q879 1637 892.0 1623.5Q905 1610 905 1590Q905 1571 892.0 1557.5Q879 1544 859 1544ZM878 1655Q859 1655 845.5 1668.5Q832 1682 832 1701Q832 1721 845.5 1734.5Q859 1748 878 1748Q898 1748 911.0 1734.5Q924 1721 924 1701Q924 1682 911.0 1668.5Q898 1655 878 1655ZM891 1761Q869 1761 853.0 1777.0Q837 1793 837 1815Q837 1837 853.0 1852.5Q869 1868 891 1868Q914 1868 929.5 1852.5Q945 1837 945 1815Q945 1793 929.5 1777.0Q914 1761 891 1761ZM891 1786Q920 1786 920 1816Q920 1827 911.5 1835.0Q903 1843 891 1843Q879 1843 870.5 1835.0Q862 1827 862 1816Q862 1786 891 1786ZM549 1765Q530 1765 516.5 1778.5Q503 1792 503 1811Q503 1831 516.5 1844.5Q530 1858 549 1858Q569 1858 582.0 1844.5Q595 1831 595 1811Q595 1792 582.0 1778.5Q569 1765 549 1765ZM663 1765Q644 1765 630.5 1778.5Q617 1792 617 1811Q617 1831 630.5 1844.5Q644 1858 663 1858Q683 1858 696.0 1844.5Q709 1831 709 1811Q709 1792 696.0 1778.5Q683 1765 663 1765ZM777 1765Q758 1765 744.5 1778.5Q731 1792 731 1811Q731 1831 744.5 1844.5Q758 1858 777 1858Q797 1858 810.0 1844.5Q823 1831 823 1811Q823 1792 810.0 1778.5Q797 1765 777 1765ZM1005 1765Q986 1765 972.5 1778.5Q959 1792 959 1811Q959 1831 972.5 1844.5Q986 1858 1005 1858Q1025 1858 1038.0 1844.5Q1051 1831 1051 1811Q1051 1792 1038.0 1778.5Q1025 1765 1005 1765ZM1119 1765Q1100 1765 1086.5 1778.5Q1073 1792 1073 1811Q1073 1831 1086.5 1844.5Q1100 1858 1119 1858Q1139 1858 1152.0 1844.5Q1165 1831 1165 1811Q1165 1792 1152.0 1778.5Q1139 1765 1119 1765ZM1234 1765Q1215 1765 1201.5 1778.5Q1188 1792 1188 1811Q1188 1831 1201.5 1844.5Q1215 1858 1234 1858Q1254 1858 1267.0 1844.5Q1280 1831 1280 1811Q1280 1792 1267.0 1778.5Q1254 1765 1234 1765ZM1347 1765Q1328 1765 1314.5 1778.5Q1301 1792 1301 1811Q1301 1831 1314.5 1844.5Q1328 1858 1347 1858Q1367 1858 1380.0 1844.5Q1393 1831 1393 1811Q1393 1792 1380.0 1778.5Q1367 1765 1347 1765ZM1461 1765Q1442 1765 1428.5 1778.5Q1415 1792 1415 1811Q1415 1831 1428.5 1844.5Q1442 1858 1461 1858Q1481 1858 1494.0 1844.5Q1507 1831 1507 1811Q1507 1792 1494.0 1778.5Q1481 1765 1461 1765ZM428 1765Q409 1765 395.5 1778.5Q382 1792 382 1811Q382 1831 395.5 1844.5Q409 1858 428 1858Q448 1858 461.0 1844.5Q474 1831 474 1811Q474 1792 461.0 1778.5Q448 1765 428 1765ZM307 1765Q288 1765 274.5 1778.5Q261 1792 261 1811Q261 1831 274.5 1844.5Q288 1858 307 1858Q327 1858 340.0 1844.5Q353 1831 353 1811Q353 1792 340.0 1778.5Q327 1765 307 1765Z" transform="translate(569.664, 72) scale(0.036, -0.036)" /><path d="M667 1767Q648 1767 634.5 1780.5Q621 1794 621 1813Q621 1833 634.5 1846.5Q648 1860 667 1860Q687 1860 700.0 1846.5Q713 1833 713 1813Q713 1794 700.0 1780.5Q687 1767 667 1767ZM779 1767Q760 1767 746.5 1780.5Q733 1794 733 1813Q733 1833 746.5 1846.5Q760 1860 779 1860Q799 1860 812.0 1846.5Q825 1833 825 1813Q825 1794 812.0 1780.5Q799 1767 779 1767ZM894 1760Q875 1760 861.5 1773.5Q848 1787 848 1806Q848 1826 861.5 1839.5Q875 1853 894 1853Q914 1853 927.0 1839.5Q940 1826 940 1806Q940 1787 927.0 1773.5Q914 1760 894 1760ZM1007 1735Q988 1735 974.5 1748.5Q961 1762 961 1781Q961 1801 974.5 1814.5Q988 1828 1007 1828Q1027 1828 1040.0 1814.5Q1053 1801 1053 1781Q1053 1762 1040.0 1748.5Q1027 1735 1007 1735ZM1116 1692Q1097 1692 1083.5 1705.5Q1070 1719 1070 1738Q1070 1758 1083.5 1771.5Q1097 1785 1116 1785Q1136 1785 1149.0 1771.5Q1162 1758 1162 1738Q1162 1719 1149.0 1705.5Q1136 1692 1116 1692ZM1218 1633Q1199 1633 1185.5 1646.5Q1172 1660 1172 1679Q1172 1699 1185.5 1712.5Q1199 1726 1218 1726Q1238 1726 1251.0 1712.5Q1264 1699 1264 1679Q1264 1660 1251.0 1646.5Q1238 1633 1218 1633ZM1310 1558Q1291 1558 1277.5 1571.5Q1264 1585 1264 1604Q1264 1624 1277.5 1637.5Q1291 1651 1310 1651Q1330 1651 1343.0 1637.5Q1356 1624 1356 1604Q1356 1585 1343.0 1571.5Q1330 1558 1310 1558ZM1389 1468Q1370 1468 1356.5 1481.5Q1343 1495 1343 1514Q1343 1534 1356.5 1547.5Q1370 1561 1389 1561Q1409 1561 1422.0 1547.5Q1435 1534 1435 1514Q1435 1495 1422.0 1481.5Q1409 1468 1389 1468ZM1451 1366Q1432 1366 1418.5 1379.5Q1405 1393 1405 1412Q1405 1432 1418.5 1445.5Q1432 1459 1451 1459Q1471 1459 1484.0 1445.5Q1497 1432 1497 1412Q1497 1393 1484.0 1379.5Q1471 1366 1451 1366ZM1492 1263Q1473 1263 1459.5 1276.5Q1446 1290 1446 1309Q1446 1329 1459.5 1342.5Q1473 1356 1492 1356Q1512 1356 1525.0 1342.5Q1538 1329 1538 1309Q1538 1290 1525.0 1276.5Q1512 1263 1492 1263ZM1518 1150Q1499 1150 1485.5 1163.5Q1472 1177 1472 1196Q1472 1216 1485.5 1229.5Q1499 1243 1518 1243Q1538 1243 1551.0 1229.5Q1564 1216 1564 1196Q1564 1177 1551.0 1163.5Q1538 1150 1518 1150ZM1526 1029Q1507 1029 1493.5 1042.5Q1480 1056 1480 1075Q1480 1095 1493.5 1108.5Q1507 1122 1526 1122Q1546 1122 1559.0 1108.5Q1572 1095 1572 1075Q1572 1056 1559.0 1042.5Q1546 1029 1526 1029ZM1516 916Q1497 916 1483.5 929.5Q1470 943 1470 962Q1470 982 1483.5 995.5Q1497 1009 1516 1009Q1536 1009 1549.0 995.5Q1562 982 1562 962Q1562 943 1549.0 929.5Q1536 916 1516 916ZM1493 800Q1474 800 1460.5 813.5Q1447 827 1447 846Q1447 866 1460.5 879.5Q1474 893 1493 893Q1513 893 1526.0 879.5Q1539 866 1539 846Q1539 827 1526.0 813.5Q1513 800 1493 800ZM1456 684Q1437 684 1423.5 697.5Q1410 711 1410 730Q1410 750 1423.5 763.5Q1437 777 1456 777Q1476 777 1489.0 763.5Q1502 750 1502 730Q1502 711 1489.0 697.5Q1476 684 1456 684ZM1410 576Q1391 576 1377.5 589.5Q1364 603 1364 622Q1364 642 1377.5 655.5Q1391 669 1410 669Q1430 669 1443.0 655.5Q1456 642 1456 622Q1456 603 1443.0 589.5Q1430 576 1410 576ZM1354 476Q1335 476 1321.5 489.5Q1308 503 1308 522Q1308 542 1321.5 555.5Q1335 569 1354 569Q1374 569 1387.0 555.5Q1400 542 1400 522Q1400 503 1387.0 489.5Q1374 476 1354 476ZM1287 377Q1268 377 1254.5 390.5Q1241 404 1241 423Q1241 443 1254.5 456.5Q1268 470 1287 470Q1307 470 1320.0 456.5Q1333 443 1333 423Q1333 404 1320.0 390.5Q1307 377 1287 377ZM1208 288Q1189 288 1175.5 301.5Q1162 315 1162 334Q1162 354 1175.5 367.5Q1189 381 1208 381Q1228 381 1241.0 367.5Q1254 354 1254 334Q1254 315 1241.0 301.5Q1228 288 1208 288ZM1124 212Q1105 212 1091.5 225.5Q1078 239 1078 258Q1078 278 1091.5 291.5Q1105 305 1124 305Q1144 305 1157.0 291.5Q1170 278 1170 258Q1170 239 1157.0 225.5Q1144 212 1124 212ZM1024 143Q1005 143 991.5 156.5Q978 170 978 189Q978 209 991.5 222.5Q1005 236 1024 236Q1044 236 1057.0 222.5Q1070 209 1070 189Q1070 170 1057.0 156.5Q1044 143 1024 143ZM922 92Q903 92 889.5 105.5Q876 119 876 138Q876 158 889.5 171.5Q903 185 922 185Q942 185 955.0 171.5Q968 158 968 138Q968 119 955.0 105.5Q942 92 922 92ZM809 50Q790 50 776.5 63.5Q763 77 763 96Q763 116 776.5 129.5Q790 143 809 143Q829 143 842.0 129.5Q855 116 855 96Q855 77 842.0 63.5Q829 50 809 50ZM699 22Q680 22 666.5 35.5Q653 49 653 68Q653 88 666.5 101.5Q680 115 699 115Q719 115 732.0 101.5Q745 88 745 68Q745 49 732.0 35.5Q719 22 699 22ZM587 5Q568 5 554.5 18.5Q541 32 541 51Q541 71 554.5 84.5Q568 98 587 98Q607 98 620.0 84.5Q633 71 633 51Q633 32 620.0 18.5Q607 5 587 5ZM473 -1Q454 -1 440.5 12.5Q427 26 427 45Q427 65 440.5 78.5Q454 92 473 92Q493 92 506.0 78.5Q519 65 519 45Q519 26 506.0 12.5Q493 -1 473 -1ZM354 -1Q335 -1 321.5 12.5Q308 26 308 45Q308 65 321.5 78.5Q335 92 354 92Q374 92 387.0 78.5Q400 65 400 45Q400 26 387.0 12.5Q374 -1 354 -1ZM238 -1Q219 -1 205.5 12.5Q192 26 192 45Q192 65 205.5 78.5Q219 92 238 92Q258 92 271.0 78.5Q284 65 284 45Q284 26 271.0 12.5Q258 -1 238 -1ZM257 109Q238 109 224.5 122.5Q211 136 211 155Q211 175 224.5 188.5Q238 202 257 202Q277 202 290.0 188.5Q303 175 303 155Q303 136 290.0 122.5Q277 109 257 109ZM277 220Q258 220 244.5 233.5Q231 247 231 266Q231 286 244.5 299.5Q258 313 277 313Q297 313 310.0 299.5Q323 286 323 266Q323 247 310.0 233.5Q297 220 277 220ZM296 330Q277 330 263.5 343.5Q250 357 250 376Q250 396 263.5 409.5Q277 423 296 423Q316 423 329.0 409.5Q342 396 342 376Q342 357 329.0 343.5Q316 330 296 330ZM316 440Q297 440 283.5 453.5Q270 467 270 486Q270 506 283.5 519.5Q297 533 316 533Q336 533 349.0 519.5Q362 506 362 486Q362 467 349.0 453.5Q336 440 316 440ZM335 551Q316 551 302.5 564.5Q289 578 289 597Q289 617 302.5 630.5Q316 644 335 644Q355 644 368.0 630.5Q381 617 381 597Q381 578 368.0 564.5Q355 551 335 551ZM354 661Q335 661 321.5 674.5Q308 688 308 707Q308 727 321.5 740.5Q335 754 354 754Q374 754 387.0 740.5Q400 727 400 707Q400 688 387.0 674.5Q374 661 354 661ZM375 771Q356 771 342.5 784.5Q329 798 329 817Q329 837 342.5 850.5Q356 864 375 864Q395 864 408.0 850.5Q421 837 421 817Q421 798 408.0 784.5Q395 771 375 771ZM394 882Q375 882 361.5 895.5Q348 909 348 928Q348 948 361.5 961.5Q375 975 394 975Q414 975 427.0 961.5Q440 948 440 928Q440 909 427.0 895.5Q414 882 394 882ZM414 992Q395 992 381.5 1005.5Q368 1019 368 1038Q368 1058 381.5 1071.5Q395 1085 414 1085Q434 1085 447.0 1071.5Q460 1058 460 1038Q460 1019 447.0 1005.5Q434 992 414 992ZM433 1103Q414 1103 400.5 1116.5Q387 1130 387 1149Q387 1169 400.5 1182.5Q414 1196 433 1196Q453 1196 466.0 1182.5Q479 1169 479 1149Q479 1130 466.0 1116.5Q453 1103 433 1103ZM453 1213Q434 1213 420.5 1226.5Q407 1240 407 1259Q407 1279 420.5 1292.5Q434 1306 453 1306Q473 1306 486.0 1292.5Q499 1279 499 1259Q499 1240 486.0 1226.5Q473 1213 453 1213ZM472 1324Q453 1324 439.5 1337.5Q426 1351 426 1370Q426 1390 439.5 1403.5Q453 1417 472 1417Q492 1417 505.0 1403.5Q518 1390 518 1370Q518 1351 505.0 1337.5Q492 1324 472 1324ZM491 1434Q472 1434 458.5 1447.5Q445 1461 445 1480Q445 1500 458.5 1513.5Q472 1527 491 1527Q511 1527 524.0 1513.5Q537 1500 537 1480Q537 1461 524.0 1447.5Q511 1434 491 1434ZM511 1544Q492 1544 478.5 1557.5Q465 1571 465 1590Q465 1610 478.5 1623.5Q492 1637 511 1637Q531 1637 544.0 1623.5Q557 1610 557 1590Q557 1571 544.0 1557.5Q531 1544 511 1544ZM530 1655Q511 1655 497.5 1668.5Q484 1682 484 1701Q484 1721 497.5 1734.5Q511 1748 530 1748Q550 1748 563.0 1734.5Q576 1721 576 1701Q576 1682 563.0 1668.5Q550 1655 530 1655ZM543 1761Q521 1761 505.0 1777.0Q489 1793 489 1815Q489 1837 505.0 1852.5Q521 1868 543 1868Q566 1868 581.5 1852.5Q597 1837 597 1815Q597 1793 581.5 1777.0Q566 1761 543 1761ZM543 1786Q572 1786 572 1816Q572 1827 563.5 1835.0Q555 1843 543 1843Q531 1843 522.5 1835.0Q514 1827 514 1816Q514 1786 543 1786Z" transform="translate(626.58, 72) scale(0.036, -0.036)" /><path d="M475 -7Q456 -7 442.5 6.5Q429 20 429 39Q429 59 442.5 72.5Q456 86 475 86Q495 86 508.0 72.5Q521 59 521 39Q521 20 508.0 6.5Q495 -7 475 -7ZM587 17Q568 17 554.5 30.5Q541 44 541 63Q541 83 554.5 96.5Q568 110 587 110Q607 110 620.0 96.5Q633 83 633 63Q633 44 620.0 30.5Q607 17 587 17ZM686 75Q667 75 653.5 88.5Q640 102 640 121Q640 141 653.5 154.5Q667 168 686 168Q706 168 719.0 154.5Q732 141 732 121Q732 102 719.0 88.5Q706 75 686 75ZM762 157Q743 157 729.5 170.5Q716 184 716 203Q716 223 729.5 236.5Q743 250 762 250Q782 250 795.0 236.5Q808 223 808 203Q808 184 795.0 170.5Q782 157 762 157ZM815 264Q796 264 782.5 277.5Q769 291 769 310Q769 330 782.5 343.5Q796 357 815 357Q835 357 848.0 343.5Q861 330 861 310Q861 291 848.0 277.5Q835 264 815 264ZM846 377Q827 377 813.5 390.5Q800 404 800 423Q800 443 813.5 456.5Q827 470 846 470Q866 470 879.0 456.5Q892 443 892 423Q892 404 879.0 390.5Q866 377 846 377ZM867 498Q848 498 834.5 511.5Q821 525 821 544Q821 564 834.5 577.5Q848 591 867 591Q887 591 900.0 577.5Q913 564 913 544Q913 525 900.0 511.5Q887 498 867 498ZM862 616Q843 616 829.5 629.5Q816 643 816 662Q816 682 829.5 695.5Q843 709 862 709Q882 709 895.0 695.5Q908 682 908 662Q908 643 895.0 629.5Q882 616 862 616ZM843 735Q824 735 810.5 748.5Q797 762 797 781Q797 801 810.5 814.5Q824 828 843 828Q863 828 876.0 814.5Q889 801 889 781Q889 762 876.0 748.5Q863 735 843 735ZM696 898Q677 898 663.5 911.5Q650 925 650 944Q650 964 663.5 977.5Q677 991 696 991Q716 991 729.0 977.5Q742 964 742 944Q742 925 729.0 911.5Q716 898 696 898ZM585 917Q566 917 552.5 930.5Q539 944 539 963Q539 983 552.5 996.5Q566 1010 585 1010Q605 1010 618.0 996.5Q631 983 631 963Q631 944 618.0 930.5Q605 917 585 917ZM472 911Q453 911 439.5 924.5Q426 938 426 957Q426 977 439.5 990.5Q453 1004 472 1004Q492 1004 505.0 990.5Q518 977 518 957Q518 938 505.0 924.5Q492 911 472 911ZM367 870Q348 870 334.5 883.5Q321 897 321 916Q321 936 334.5 949.5Q348 963 367 963Q387 963 400.0 949.5Q413 936 413 916Q413 897 400.0 883.5Q387 870 367 870ZM279 793Q260 793 246.5 806.5Q233 820 233 839Q233 859 246.5 872.5Q260 886 279 886Q299 886 312.0 872.5Q325 859 325 839Q325 820 312.0 806.5Q299 793 279 793ZM214 692Q195 692 181.5 705.5Q168 719 168 738Q168 758 181.5 771.5Q195 785 214 785Q234 785 247.0 771.5Q260 758 260 738Q260 719 247.0 705.5Q234 692 214 692ZM170 581Q151 581 137.5 594.5Q124 608 124 627Q124 647 137.5 660.5Q151 674 170 674Q190 674 203.0 660.5Q216 647 216 627Q216 608 203.0 594.5Q190 581 170 581ZM145 468Q126 468 112.5 481.5Q99 495 99 514Q99 534 112.5 547.5Q126 561 145 561Q165 561 178.0 547.5Q191 534 191 514Q191 495 178.0 481.5Q165 468 145 468ZM135 344Q116 344 102.5 357.5Q89 371 89 390Q89 410 102.5 423.5Q116 437 135 437Q155 437 168.0 423.5Q181 410 181 390Q181 371 168.0 357.5Q155 344 135 344ZM145 227Q126 227 112.5 240.5Q99 254 99 273Q99 293 112.5 306.5Q126 320 145 320Q165 320 178.0 306.5Q191 293 191 273Q191 254 178.0 240.5Q165 227 145 227ZM186 121Q167 121 153.5 134.5Q140 148 140 167Q140 187 153.5 200.5Q167 214 186 214Q206 214 219.0 200.5Q232 187 232 167Q232 148 219.0 134.5Q206 121 186 121ZM259 40Q240 40 226.5 53.5Q213 67 213 86Q213 106 226.5 119.5Q240 133 259 133Q279 133 292.0 119.5Q305 106 305 86Q305 67 292.0 53.5Q279 40 259 40ZM362 -2Q343 -2 329.5 11.5Q316 25 316 44Q316 64 329.5 77.5Q343 91 362 91Q382 91 395.0 77.5Q408 64 408 44Q408 25 395.0 11.5Q382 -2 362 -2ZM783 824Q761 824 745.0 840.0Q729 856 729 878Q729 900 745.0 915.5Q761 931 783 931Q806 931 821.5 915.5Q837 900 837 878Q837 856 821.5 840.0Q806 824 783 824ZM783 849Q812 849 812 879Q812 890 803.5 898.0Q795 906 783 906Q771 906 762.5 898.0Q754 890 754 879Q754 849 783 849Z" transform="translate(681.984, 72) scale(0.036, -0.036)" /><path d="M170 0Q151 0 137.5 13.5Q124 27 124 46Q124 66 137.5 79.5Q151 93 170 93Q190 93 203.0 79.5Q216 66 216 46Q216 27 203.0 13.5Q190 0 170 0ZM190 110Q171 110 157.5 123.5Q144 137 144 156Q144 176 157.5 189.5Q171 203 190 203Q210 203 223.0 189.5Q236 176 236 156Q236 137 223.0 123.5Q210 110 190 110ZM209 220Q190 220 176.5 233.5Q163 247 163 266Q163 286 176.5 299.5Q190 313 209 313Q229 313 242.0 299.5Q255 286 255 266Q255 247 242.0 233.5Q229 220 209 220ZM228 331Q209 331 195.5 344.5Q182 358 182 377Q182 397 195.5 410.5Q209 424 228 424Q248 424 261.0 410.5Q274 397 274 377Q274 358 261.0 344.5Q248 331 228 331ZM248 441Q229 441 215.5 454.5Q202 468 202 487Q202 507 215.5 520.5Q229 534 248 534Q268 534 281.0 520.5Q294 507 294 487Q294 468 281.0 454.5Q268 441 248 441ZM268 551Q249 551 235.5 564.5Q222 578 222 597Q222 617 235.5 630.5Q249 644 268 644Q288 644 301.0 630.5Q314 617 314 597Q314 578 301.0 564.5Q288 551 268 551ZM288 662Q269 662 255.5 675.5Q242 689 242 708Q242 728 255.5 741.5Q269 755 288 755Q308 755 321.0 741.5Q334 728 334 708Q334 689 321.0 675.5Q308 662 288 662ZM307 772Q288 772 274.5 785.5Q261 799 261 818Q261 838 274.5 851.5Q288 865 307 865Q327 865 340.0 851.5Q353 838 353 818Q353 799 340.0 785.5Q327 772 307 772ZM327 882Q308 882 294.5 895.5Q281 909 281 928Q281 948 294.5 961.5Q308 975 327 975Q347 975 360.0 961.5Q373 948 373 928Q373 909 360.0 895.5Q347 882 327 882ZM346 992Q327 992 313.5 1005.5Q300 1019 300 1038Q300 1058 313.5 1071.5Q327 1085 346 1085Q366 1085 379.0 1071.5Q392 1058 392 1038Q392 1019 379.0 1005.5Q366 992 346 992ZM365 1103Q346 1103 332.5 1116.5Q319 1130 319 1149Q319 1169 332.5 1182.5Q346 1196 365 1196Q385 1196 398.0 1182.5Q411 1169 411 1149Q411 1130 398.0 1116.5Q385 1103 365 1103ZM385 1214Q366 1214 352.5 1227.5Q339 1241 339 1260Q339 1280 352.5 1293.5Q366 1307 385 1307Q405 1307 418.0 1293.5Q431 1280 431 1260Q431 1241 418.0 1227.5Q405 1214 385 1214ZM404 1324Q385 1324 371.5 1337.5Q358 1351 358 1370Q358 1390 371.5 1403.5Q385 1417 404 1417Q424 1417 437.0 1403.5Q450 1390 450 1370Q450 1351 437.0 1337.5Q424 1324 404 1324ZM424 1435Q405 1435 391.5 1448.5Q378 1462 378 1481Q378 1501 391.5 1514.5Q405 1528 424 1528Q444 1528 457.0 1514.5Q470 1501 470 1481Q470 1462 457.0 1448.5Q444 1435 424 1435ZM438 1541Q416 1541 400.0 1557.0Q384 1573 384 1595Q384 1617 400.0 1632.5Q416 1648 438 1648Q461 1648 476.5 1632.5Q492 1617 492 1595Q492 1573 476.5 1557.0Q461 1541 438 1541ZM438 1566Q467 1566 467 1596Q467 1607 458.5 1615.0Q450 1623 438 1623Q426 1623 417.5 1615.0Q409 1607 409 1596Q409 1566 438 1566ZM421 927Q402 927 388.5 940.5Q375 954 375 973Q375 993 388.5 1006.5Q402 1020 421 1020Q441 1020 454.0 1006.5Q467 993 467 973Q467 954 454.0 940.5Q441 927 421 927ZM524 927Q505 927 491.5 940.5Q478 954 478 973Q478 993 491.5 1006.5Q505 1020 524 1020Q544 1020 557.0 1006.5Q570 993 570 973Q570 954 557.0 940.5Q544 927 524 927ZM626 927Q607 927 593.5 940.5Q580 954 580 973Q580 993 593.5 1006.5Q607 1020 626 1020Q646 1020 659.0 1006.5Q672 993 672 973Q672 954 659.0 940.5Q646 927 626 927ZM26 927Q7 927 -6.5 940.5Q-20 954 -20 973Q-20 993 -6.5 1006.5Q7 1020 26 1020Q46 1020 59.0 1006.5Q72 993 72 973Q72 954 59.0 940.5Q46 927 26 927ZM129 927Q110 927 96.5 940.5Q83 954 83 973Q83 993 96.5 1006.5Q110 1020 129 1020Q149 1020 162.0 1006.5Q175 993 175 973Q175 954 162.0 940.5Q149 927 129 927ZM231 927Q212 927 198.5 940.5Q185 954 185 973Q185 993 198.5 1006.5Q212 1020 231 1020Q251 1020 264.0 1006.5Q277 993 277 973Q277 954 264.0 940.5Q251 927 231 927Z" transform="translate(716.616, 72) scale(0.036, -0.036)" /><path d="M691 856Q672 856 658.5 869.5Q645 883 645 902Q645 922 658.5 935.5Q672 949 691 949Q711 949 724.0 935.5Q737 922 737 902Q737 883 724.0 869.5Q711 856 691 856ZM583 897Q564 897 550.5 910.5Q537 924 537 943Q537 963 550.5 976.5Q564 990 583 990Q603 990 616.0 976.5Q629 963 629 943Q629 924 616.0 910.5Q603 897 583 897ZM467 913Q448 913 434.5 926.5Q421 940 421 959Q421 979 434.5 992.5Q448 1006 467 1006Q487 1006 500.0 992.5Q513 979 513 959Q513 940 500.0 926.5Q487 913 467 913ZM349 893Q330 893 316.5 906.5Q303 920 303 939Q303 959 316.5 972.5Q330 986 349 986Q369 986 382.0 972.5Q395 959 395 939Q395 920 382.0 906.5Q369 893 349 893ZM248 828Q229 828 215.5 841.5Q202 855 202 874Q202 894 215.5 907.5Q229 921 248 921Q268 921 281.0 907.5Q294 894 294 874Q294 855 281.0 841.5Q268 828 248 828ZM214 718Q195 718 181.5 731.5Q168 745 168 764Q168 784 181.5 797.5Q195 811 214 811Q234 811 247.0 797.5Q260 784 260 764Q260 745 247.0 731.5Q234 718 214 718ZM254 614Q235 614 221.5 627.5Q208 641 208 660Q208 680 221.5 693.5Q235 707 254 707Q274 707 287.0 693.5Q300 680 300 660Q300 641 287.0 627.5Q274 614 254 614ZM337 539Q318 539 304.5 552.5Q291 566 291 585Q291 605 304.5 618.5Q318 632 337 632Q357 632 370.0 618.5Q383 605 383 585Q383 566 370.0 552.5Q357 539 337 539ZM440 473Q421 473 407.5 486.5Q394 500 394 519Q394 539 407.5 552.5Q421 566 440 566Q460 566 473.0 552.5Q486 539 486 519Q486 500 473.0 486.5Q460 473 440 473ZM533 412Q514 412 500.5 425.5Q487 439 487 458Q487 478 500.5 491.5Q514 505 533 505Q553 505 566.0 491.5Q579 478 579 458Q579 439 566.0 425.5Q553 412 533 412ZM612 330Q593 330 579.5 343.5Q566 357 566 376Q566 396 579.5 409.5Q593 423 612 423Q632 423 645.0 409.5Q658 396 658 376Q658 357 645.0 343.5Q632 330 612 330ZM645 216Q626 216 612.5 229.5Q599 243 599 262Q599 282 612.5 295.5Q626 309 645 309Q665 309 678.0 295.5Q691 282 691 262Q691 243 678.0 229.5Q665 216 645 216ZM614 104Q595 104 581.5 117.5Q568 131 568 150Q568 170 581.5 183.5Q595 197 614 197Q634 197 647.0 183.5Q660 170 660 150Q660 131 647.0 117.5Q634 104 614 104ZM526 28Q507 28 493.5 41.5Q480 55 480 74Q480 94 493.5 107.5Q507 121 526 121Q546 121 559.0 107.5Q572 94 572 74Q572 55 559.0 41.5Q546 28 526 28ZM417 -7Q398 -7 384.5 6.5Q371 20 371 39Q371 59 384.5 72.5Q398 86 417 86Q437 86 450.0 72.5Q463 59 463 39Q463 20 450.0 6.5Q437 -7 417 -7ZM306 8Q287 8 273.5 21.5Q260 35 260 54Q260 74 273.5 87.5Q287 101 306 101Q326 101 339.0 87.5Q352 74 352 54Q352 35 339.0 21.5Q326 8 306 8ZM201 53Q182 53 168.5 66.5Q155 80 155 99Q155 119 168.5 132.5Q182 146 201 146Q221 146 234.0 132.5Q247 119 247 99Q247 80 234.0 66.5Q221 53 201 53ZM105 113Q86 113 72.5 126.5Q59 140 59 159Q59 179 72.5 192.5Q86 206 105 206Q125 206 138.0 192.5Q151 179 151 159Q151 140 138.0 126.5Q125 113 105 113ZM794 787Q772 787 756.0 803.0Q740 819 740 841Q740 863 756.0 878.5Q772 894 794 894Q817 894 832.5 878.5Q848 863 848 841Q848 819 832.5 803.0Q817 787 794 787ZM794 812Q823 812 823 842Q823 853 814.5 861.0Q806 869 794 869Q782 869 773.5 861.0Q765 853 765 842Q765 812 794 812Z" transform="translate(737.424, 72) scale(0.036, -0.036)" /></g></svg>