<svg width="98" height="16" viewBox="0 0 98 16" fill="none" xmlns="http://www.w3.org/2000/svg">
<path d="M0.862308 10.811C0.715641 10.811 0.615641 10.761 0.562308 10.661C0.502308 10.5677 0.485641 10.4577 0.512308 10.331L2.98231 0.411C3.01564 0.277667 3.06897 0.177667 3.14231 0.111C3.20897 0.0376668 3.33231 0.001 3.51231 0.001C3.69897 0.001 3.80231 0.0609998 3.82231 0.181C3.84231 0.294333 3.83231 0.427667 3.79231 0.581L1.37231 10.381C1.34564 10.461 1.30231 10.5543 1.24231 10.661C1.17564 10.761 1.04897 10.811 0.862308 10.811ZM5.81231 10.811H0.892308L1.09231 10.071H5.81231C5.93897 10.071 6.04231 10.0977 6.12231 10.151C6.20231 10.211 6.24231 10.291 6.24231 10.391C6.24231 10.511 6.20231 10.611 6.12231 10.691C6.04231 10.771 5.93897 10.811 5.81231 10.811ZM5.55231 5.691H2.10231L2.28231 4.941H5.55231C5.68564 4.941 5.79231 4.971 5.87231 5.031C5.95231 5.09767 5.99231 5.191 5.99231 5.311C5.99231 5.42433 5.95231 5.51433 5.87231 5.581C5.79231 5.65433 5.68564 5.691 5.55231 5.691ZM7.95231 0.741H3.31231L3.51231 0.001H7.95231C8.07897 0.001 8.18231 0.0310002 8.26231 0.0910002C8.34231 0.151 8.38231 0.244333 8.38231 0.371C8.38231 0.491 8.34231 0.584333 8.26231 0.651C8.18231 0.711 8.07897 0.741 7.95231 0.741ZM12.2623 10.811C11.9823 10.811 11.7623 10.7143 11.6023 10.521C11.4423 10.3343 11.349 10.061 11.3223 9.701C11.2956 9.341 11.3423 8.91433 11.4623 8.421L13.4823 0.411C13.529 0.257667 13.5956 0.151 13.6823 0.0910002C13.769 0.0310002 13.8923 0.001 14.0523 0.001C14.1923 0.001 14.2856 0.0443335 14.3323 0.131C14.3723 0.224333 14.3723 0.334333 14.3323 0.461L12.2923 8.601C12.179 9.04767 12.1256 9.40433 12.1323 9.671C12.1456 9.93767 12.2156 10.071 12.3423 10.071C12.4356 10.071 12.569 9.97767 12.7423 9.791C12.9156 9.60433 13.1323 9.33433 13.3923 8.981C13.5523 8.781 13.6723 8.641 13.7523 8.561C13.8323 8.47433 13.9223 8.431 14.0223 8.431C14.129 8.431 14.2123 8.46433 14.2723 8.531C14.3323 8.60433 14.3623 8.69767 14.3623 8.811C14.3623 8.90433 14.3356 8.99433 14.2823 9.081C14.2356 9.16767 14.1323 9.321 13.9723 9.541C13.6323 9.961 13.3223 10.2777 13.0423 10.491C12.7623 10.7043 12.5023 10.811 12.2623 10.811ZM9.60231 10.811C9.04897 10.811 8.65564 10.551 8.42231 10.031C8.18231 9.50433 8.16564 8.811 8.37231 7.951C8.53231 7.34433 8.75231 6.81433 9.03231 6.361C9.31898 5.91433 9.65231 5.561 10.0323 5.301C10.419 5.04767 10.8323 4.921 11.2723 4.921C11.6056 4.921 11.8623 5.03767 12.0423 5.271C12.229 5.50433 12.3323 5.83433 12.3523 6.261C12.379 6.68767 12.3156 7.19767 12.1623 7.791C12.0156 8.411 11.8123 8.94767 11.5523 9.401C11.2856 9.85433 10.989 10.2043 10.6623 10.451C10.329 10.691 9.97564 10.811 9.60231 10.811ZM9.78231 10.071C10.1823 10.071 10.5556 9.841 10.9023 9.381C11.2423 8.92767 11.499 8.34433 11.6723 7.631C11.8323 6.97767 11.859 6.48767 11.7523 6.161C11.6456 5.83433 11.4223 5.671 11.0823 5.671C10.6823 5.671 10.3156 5.89767 9.98231 6.351C9.64231 6.80433 9.38564 7.38433 9.21231 8.091C9.05231 8.74433 9.02564 9.23767 9.13231 9.571C9.23897 9.90433 9.45564 10.071 9.78231 10.071ZM16.1923 10.811C15.9323 10.811 15.719 10.761 15.5523 10.661C15.3856 10.5543 15.2723 10.391 15.2123 10.171C15.1523 9.94433 15.139 9.65433 15.1723 9.301C15.199 8.95433 15.2756 8.53767 15.4023 8.051L16.0523 5.411C16.099 5.25767 16.169 5.14767 16.2623 5.081C16.349 5.021 16.4723 4.991 16.6323 4.991C16.7723 4.991 16.8623 5.03433 16.9023 5.121C16.9423 5.20767 16.9456 5.31767 16.9123 5.451L16.2223 8.141C16.109 8.58767 16.039 8.951 16.0123 9.231C15.9856 9.511 16.0056 9.71433 16.0723 9.841C16.139 9.97433 16.2456 10.041 16.3923 10.041C16.539 10.041 16.7223 9.961 16.9423 9.801C17.1623 9.641 17.3956 9.43433 17.6423 9.181C17.889 8.921 18.1256 8.63767 18.3523 8.331C18.579 8.02433 18.7756 7.721 18.9423 7.421C19.109 7.11433 19.2256 6.841 19.2923 6.601L18.8823 8.491C18.629 8.93767 18.349 9.33433 18.0423 9.681C17.7356 10.0343 17.4223 10.311 17.1023 10.511C16.789 10.711 16.4856 10.811 16.1923 10.811ZM18.6723 10.811C18.499 10.811 18.3956 10.751 18.3623 10.631C18.3356 10.511 18.3423 10.3743 18.3823 10.221L19.5823 5.411C19.629 5.25767 19.699 5.14767 19.7923 5.081C19.879 5.021 20.0023 4.991 20.1623 4.991C20.3023 4.991 20.3923 5.03433 20.4323 5.121C20.4723 5.20767 20.4756 5.31767 20.4423 5.451L19.2223 10.281C19.1823 10.4277 19.1356 10.5543 19.0823 10.661C19.0223 10.761 18.8856 10.811 18.6723 10.811ZM28.2323 10.811C28.0856 10.811 27.9823 10.7543 27.9223 10.641C27.8623 10.5277 27.8456 10.411 27.8723 10.291L30.3523 0.391H31.2023L28.7023 10.431C28.689 10.5177 28.6456 10.601 28.5723 10.681C28.499 10.7677 28.3856 10.811 28.2323 10.811ZM33.7123 0.741H27.8123C27.6456 0.741 27.5323 0.704333 27.4723 0.631C27.4123 0.557667 27.3823 0.474333 27.3823 0.381C27.3823 0.281 27.4123 0.191 27.4723 0.111C27.5323 0.0376668 27.6456 0.001 27.8123 0.001H33.7123C33.8723 0.001 33.9823 0.0376668 34.0423 0.111C34.1023 0.191 34.1323 0.281 34.1323 0.381C34.1323 0.474333 34.1023 0.557667 34.0423 0.631C33.9823 0.704333 33.8723 0.741 33.7123 0.741ZM31.9623 10.811C31.8756 10.811 31.8023 10.7877 31.7423 10.741C31.6823 10.6943 31.649 10.6277 31.6423 10.541C31.629 10.461 31.6556 10.3677 31.7223 10.261L37.8123 0.381C37.8856 0.281 37.9523 0.191 38.0123 0.111C38.0723 0.0376668 38.1823 0.001 38.3423 0.001C38.4623 0.001 38.559 0.0376668 38.6323 0.111C38.699 0.177667 38.7323 0.254333 38.7323 0.341L38.8623 10.401C38.8623 10.5277 38.8323 10.6277 38.7723 10.701C38.7123 10.7743 38.6023 10.811 38.4423 10.811C38.329 10.811 38.2456 10.791 38.1923 10.751C38.1323 10.7177 38.0956 10.6743 38.0823 10.621C38.0623 10.5677 38.0523 10.5143 38.0523 10.461L37.9523 1.181L38.2223 1.251L32.5623 10.431C32.469 10.5843 32.3856 10.6843 32.3123 10.731C32.2456 10.7843 32.129 10.811 31.9623 10.811ZM38.4023 5.381H35.2223L35.6423 4.621H38.3823L38.4023 5.381ZM43.3723 10.811C42.6256 10.811 42.0056 10.5677 41.5123 10.081C41.0256 9.59433 40.7356 8.931 40.6423 8.091C40.6223 7.851 40.7523 7.721 41.0323 7.701C41.1656 7.69433 41.269 7.71767 41.3423 7.771C41.4223 7.81767 41.469 7.89767 41.4823 8.011C41.549 8.63767 41.7523 9.131 42.0923 9.491C42.439 9.85767 42.8823 10.041 43.4223 10.041C43.9823 10.041 44.4723 9.85433 44.8923 9.481C45.3056 9.10767 45.5856 8.59767 45.7323 7.951C45.8923 7.26433 45.8523 6.72767 45.6123 6.341C45.3656 5.961 44.889 5.67767 44.1823 5.491C43.3156 5.25767 42.7023 4.911 42.3423 4.451C41.9823 3.99767 41.8823 3.43433 42.0423 2.761C42.169 2.22767 42.419 1.75433 42.7923 1.341C43.1656 0.927667 43.609 0.601 44.1223 0.361C44.629 0.121 45.1423 0.001 45.6623 0.001C46.2356 0.001 46.7023 0.177666 47.0623 0.531C47.4223 0.891 47.699 1.42433 47.8923 2.131C47.919 2.21767 47.9056 2.311 47.8523 2.411C47.8056 2.511 47.7156 2.571 47.5823 2.591C47.4823 2.611 47.3823 2.601 47.2823 2.561C47.1823 2.52767 47.1156 2.45433 47.0823 2.341C46.9023 1.80767 46.6956 1.411 46.4623 1.151C46.229 0.891 45.9356 0.761 45.5823 0.761C45.2023 0.761 44.819 0.857666 44.4323 1.051C44.0523 1.251 43.719 1.51433 43.4323 1.841C43.1456 2.16767 42.9523 2.53433 42.8523 2.941C42.7523 3.341 42.8256 3.68767 43.0723 3.981C43.319 4.26767 43.739 4.491 44.3323 4.651C45.3523 4.911 46.0356 5.311 46.3823 5.851C46.729 6.39767 46.789 7.141 46.5623 8.081C46.4223 8.641 46.199 9.12767 45.8923 9.541C45.5856 9.94767 45.219 10.261 44.7923 10.481C44.3656 10.701 43.8923 10.811 43.3723 10.811ZM54.7523 5.071L54.9323 4.521C56.1123 4.60767 57.0323 4.53433 57.6923 4.301C58.3523 4.06767 58.749 3.671 58.8823 3.111C59.0023 2.61767 58.9656 2.19433 58.7723 1.841C58.5856 1.49433 58.2556 1.22433 57.7823 1.031C57.309 0.837666 56.7156 0.741 56.0023 0.741L55.8123 0.001C56.779 -0.00566666 57.579 0.117667 58.2123 0.371C58.8456 0.631 59.289 0.997666 59.5423 1.471C59.8023 1.951 59.8523 2.52433 59.6923 3.191C59.519 3.95767 59.0156 4.48767 58.1823 4.781C57.349 5.06767 56.2056 5.16433 54.7523 5.071ZM53.2223 10.811L53.6723 10.081C54.619 10.081 55.419 10.0143 56.0723 9.881C56.7323 9.74767 57.2523 9.541 57.6323 9.261C58.019 8.98767 58.2623 8.64433 58.3623 8.231C58.4956 7.70433 58.439 7.23433 58.1923 6.821C57.9456 6.40767 57.5323 6.07433 56.9523 5.821C56.3723 5.561 55.6423 5.40433 54.7623 5.351L54.9323 4.781C56.4923 4.881 57.6523 5.251 58.4123 5.891C59.1723 6.531 59.4223 7.37433 59.1623 8.421C58.9556 9.21433 58.359 9.811 57.3723 10.211C56.379 10.611 54.9956 10.811 53.2223 10.811ZM53.2223 10.811C53.0823 10.8043 52.979 10.7443 52.9123 10.631C52.839 10.5243 52.8223 10.401 52.8623 10.261L55.3023 0.411C55.349 0.251 55.409 0.141 55.4823 0.0809999C55.5623 0.0209999 55.6723 -0.00566666 55.8123 0.001C55.9723 0.0143333 56.079 0.0609999 56.1323 0.141C56.1856 0.227667 56.189 0.364333 56.1423 0.551L53.6923 10.361C53.6523 10.5277 53.5923 10.6477 53.5123 10.721C53.4323 10.7877 53.3356 10.8177 53.2223 10.811ZM61.7523 10.811C61.3856 10.811 61.0856 10.691 60.8523 10.451C60.619 10.2177 60.4723 9.88433 60.4123 9.451C60.3456 9.02433 60.3823 8.52433 60.5223 7.951C60.6823 7.34433 60.9023 6.81433 61.1823 6.361C61.469 5.91433 61.8023 5.561 62.1823 5.301C62.569 5.04767 62.9823 4.921 63.4223 4.921C63.7623 4.921 64.049 5.021 64.2823 5.221C64.509 5.42767 64.6223 5.681 64.6223 5.981C64.6223 6.32767 64.4523 6.68767 64.1123 7.061C63.7723 7.43433 63.309 7.78433 62.7223 8.111C62.1423 8.44433 61.4823 8.72767 60.7423 8.961L60.9123 8.051C61.4656 7.891 61.9556 7.701 62.3823 7.481C62.809 7.25433 63.149 7.01433 63.4023 6.761C63.6556 6.51433 63.7823 6.27433 63.7823 6.041C63.7823 5.93433 63.7323 5.84767 63.6323 5.781C63.5256 5.70767 63.3923 5.671 63.2323 5.671C62.9723 5.671 62.7223 5.77433 62.4823 5.981C62.2356 6.18767 62.019 6.471 61.8323 6.831C61.639 7.19767 61.4823 7.61767 61.3623 8.091C61.2023 8.74433 61.1756 9.23767 61.2823 9.571C61.389 9.90433 61.6056 10.071 61.9323 10.071C62.259 10.071 62.629 9.911 63.0423 9.591C63.4623 9.27767 63.9456 8.80767 64.4923 8.181C64.5723 8.08767 64.6723 8.03767 64.7923 8.031C64.9123 8.02433 65.019 8.061 65.1123 8.141C65.199 8.201 65.2423 8.28767 65.2423 8.401C65.249 8.50767 65.2156 8.611 65.1423 8.711C64.5356 9.411 63.9556 9.93433 63.4023 10.281C62.8556 10.6343 62.3056 10.811 61.7523 10.811ZM67.5223 10.811C66.969 10.811 66.5723 10.551 66.3323 10.031C66.099 9.50433 66.0856 8.811 66.2923 7.951C66.4456 7.34433 66.6656 6.81433 66.9523 6.361C67.239 5.91433 67.5723 5.561 67.9523 5.301C68.339 5.04767 68.749 4.921 69.1823 4.921C69.5223 4.921 69.7823 5.03767 69.9623 5.271C70.1423 5.50433 70.2456 5.83433 70.2723 6.261C70.2923 6.68767 70.229 7.19767 70.0823 7.791C69.9356 8.411 69.729 8.94767 69.4623 9.401C69.2023 9.85433 68.9056 10.2043 68.5723 10.451C68.2456 10.691 67.8956 10.811 67.5223 10.811ZM67.7023 10.071C68.1023 10.071 68.4723 9.841 68.8123 9.381C69.1523 8.92767 69.4123 8.34433 69.5923 7.631C69.7523 6.97767 69.779 6.48767 69.6723 6.161C69.5656 5.83433 69.3423 5.671 69.0023 5.671C68.6023 5.671 68.2356 5.89767 67.9023 6.351C67.5623 6.80433 67.3056 7.38433 67.1323 8.091C66.9723 8.74433 66.9456 9.23767 67.0523 9.571C67.159 9.90433 67.3756 10.071 67.7023 10.071ZM67.0423 15.791C66.649 15.791 66.299 15.6843 65.9923 15.471C65.679 15.2577 65.4056 14.9377 65.1723 14.511C65.1256 14.4243 65.1156 14.341 65.1423 14.261C65.169 14.181 65.2156 14.1143 65.2823 14.061C65.3556 14.0143 65.4256 13.9843 65.4923 13.971C65.5923 13.9577 65.679 13.9643 65.7523 13.991C65.819 14.0177 65.8723 14.0577 65.9123 14.111C66.099 14.4243 66.2956 14.6577 66.5023 14.811C66.7023 14.971 66.9056 15.051 67.1123 15.051C67.3256 15.051 67.509 14.961 67.6623 14.781C67.809 14.601 67.929 14.3277 68.0223 13.961L70.1823 5.311C70.2023 5.22433 70.259 5.14767 70.3523 5.081C70.4456 5.021 70.5523 4.991 70.6723 4.991C70.7923 4.99767 70.889 5.03433 70.9623 5.101C71.0356 5.16767 71.059 5.251 71.0323 5.351L68.8823 14.021C68.729 14.6143 68.499 15.0577 68.1923 15.351C67.8856 15.6443 67.5023 15.791 67.0423 15.791ZM71.7723 10.811C71.599 10.811 71.499 10.751 71.4723 10.631C71.439 10.511 71.4423 10.3743 71.4823 10.221L72.7023 5.411C72.7356 5.25767 72.799 5.14767 72.8923 5.081C72.979 5.021 73.1023 4.991 73.2623 4.991C73.4023 4.991 73.4923 5.03433 73.5323 5.121C73.5723 5.20767 73.5756 5.31767 73.5423 5.451L72.3223 10.281C72.2823 10.4277 72.2356 10.5543 72.1823 10.661C72.129 10.761 71.9923 10.811 71.7723 10.811ZM73.7223 3.531C73.5823 3.531 73.4656 3.47767 73.3723 3.371C73.279 3.26433 73.2323 3.151 73.2323 3.031C73.2323 2.90433 73.2756 2.79433 73.3623 2.701C73.4556 2.601 73.5756 2.551 73.7223 2.551C73.8556 2.551 73.9756 2.59433 74.0823 2.681C74.189 2.77433 74.2423 2.891 74.2423 3.031C74.2423 3.151 74.189 3.26433 74.0823 3.371C73.9823 3.47767 73.8623 3.531 73.7223 3.531ZM78.0223 10.811C77.8423 10.811 77.739 10.751 77.7123 10.631C77.6856 10.511 77.689 10.3743 77.7223 10.221L78.3723 7.691C78.4923 7.231 78.5623 6.85433 78.5823 6.561C78.609 6.26767 78.589 6.04767 78.5223 5.901C78.4556 5.761 78.349 5.691 78.2023 5.691C78.0556 5.691 77.8656 5.771 77.6323 5.931C77.4056 6.09767 77.1623 6.31433 76.9023 6.581C76.6423 6.841 76.389 7.131 76.1423 7.451C75.9023 7.771 75.6923 8.08433 75.5123 8.391C75.339 8.69767 75.219 8.971 75.1523 9.211L75.5423 7.341C75.8023 6.881 76.1023 6.471 76.4423 6.111C76.7756 5.74433 77.1156 5.45433 77.4623 5.241C77.809 5.02767 78.1223 4.921 78.4023 4.921C78.669 4.921 78.8856 4.97433 79.0523 5.081C79.2123 5.19433 79.3223 5.36767 79.3823 5.601C79.4423 5.83433 79.459 6.131 79.4323 6.491C79.4056 6.851 79.3256 7.27767 79.1923 7.771L78.5623 10.281C78.529 10.4277 78.4823 10.5543 78.4223 10.661C78.369 10.761 78.2356 10.811 78.0223 10.811ZM74.3223 10.811C74.149 10.811 74.0456 10.751 74.0123 10.631C73.9856 10.511 73.9923 10.3743 74.0323 10.221L75.2523 5.411C75.299 5.25767 75.3623 5.14767 75.4423 5.081C75.529 5.021 75.6523 4.991 75.8123 4.991C75.9523 4.991 76.0423 5.03433 76.0823 5.121C76.1223 5.20767 76.1256 5.31767 76.0923 5.451L74.8823 10.281C74.849 10.4277 74.8023 10.5543 74.7423 10.661C74.6756 10.761 74.5356 10.811 74.3223 10.811ZM84.0723 10.811C83.8923 10.811 83.789 10.751 83.7623 10.631C83.7356 10.511 83.739 10.3743 83.7723 10.221L84.4223 7.691C84.5423 7.231 84.6123 6.85433 84.6323 6.561C84.659 6.26767 84.639 6.04767 84.5723 5.901C84.5056 5.761 84.399 5.691 84.2523 5.691C84.099 5.691 83.909 5.771 83.6823 5.931C83.4556 6.09767 83.2123 6.31433 82.9523 6.581C82.6856 6.841 82.4323 7.131 82.1923 7.451C81.9523 7.771 81.7423 8.08433 81.5623 8.391C81.3823 8.69767 81.2623 8.971 81.2023 9.211L81.5923 7.341C81.8523 6.881 82.149 6.471 82.4823 6.111C82.8223 5.74433 83.1656 5.45433 83.5123 5.241C83.8523 5.02767 84.1623 4.921 84.4423 4.921C84.7156 4.921 84.9356 4.97433 85.1023 5.081C85.2623 5.19433 85.3723 5.36767 85.4323 5.601C85.4923 5.83433 85.509 6.131 85.4823 6.491C85.4556 6.851 85.3756 7.27767 85.2423 7.771L84.6123 10.281C84.579 10.4277 84.5323 10.5543 84.4723 10.661C84.419 10.761 84.2856 10.811 84.0723 10.811ZM80.3723 10.811C80.1923 10.811 80.089 10.751 80.0623 10.631C80.0356 10.511 80.0423 10.3743 80.0823 10.221L81.2923 5.411C81.339 5.25767 81.4056 5.14767 81.4923 5.081C81.579 5.021 81.699 4.991 81.8523 4.991C81.9923 4.991 82.0856 5.03433 82.1323 5.121C82.1723 5.20767 82.1723 5.31767 82.1323 5.451L80.9323 10.281C80.8923 10.4277 80.8423 10.5543 80.7823 10.661C80.7223 10.761 80.5856 10.811 80.3723 10.811ZM87.7523 10.811C87.3856 10.811 87.0856 10.691 86.8523 10.451C86.619 10.2177 86.469 9.88433 86.4023 9.451C86.3423 9.02433 86.3823 8.52433 86.5223 7.951C86.6756 7.34433 86.8956 6.81433 87.1823 6.361C87.469 5.91433 87.8023 5.561 88.1823 5.301C88.569 5.04767 88.979 4.921 89.4123 4.921C89.759 4.921 90.0456 5.021 90.2723 5.221C90.5056 5.42767 90.6223 5.681 90.6223 5.981C90.6223 6.32767 90.4523 6.68767 90.1123 7.061C89.7723 7.43433 89.309 7.78433 88.7223 8.111C88.1423 8.44433 87.4823 8.72767 86.7423 8.961L86.9123 8.051C87.459 7.891 87.949 7.701 88.3823 7.481C88.809 7.25433 89.149 7.01433 89.4023 6.761C89.6556 6.51433 89.7823 6.27433 89.7823 6.041C89.7823 5.93433 89.729 5.84767 89.6223 5.781C89.5223 5.70767 89.3923 5.671 89.2323 5.671C88.9723 5.671 88.7223 5.77433 88.4823 5.981C88.2356 6.18767 88.019 6.471 87.8323 6.831C87.639 7.19767 87.4823 7.61767 87.3623 8.091C87.2023 8.74433 87.1756 9.23767 87.2823 9.571C87.389 9.90433 87.6056 10.071 87.9323 10.071C88.259 10.071 88.629 9.911 89.0423 9.591C89.4623 9.27767 89.9456 8.80767 90.4923 8.181C90.5656 8.08767 90.6656 8.03767 90.7923 8.031C90.9123 8.02433 91.019 8.061 91.1123 8.141C91.1923 8.201 91.2356 8.28767 91.2423 8.401C91.249 8.50767 91.2156 8.611 91.1423 8.711C90.5356 9.411 89.9556 9.93433 89.4023 10.281C88.849 10.6343 88.299 10.811 87.7523 10.811ZM92.1923 10.811C92.0123 10.811 91.909 10.751 91.8823 10.631C91.8556 10.511 91.859 10.3743 91.8923 10.221L93.1123 5.411C93.159 5.25767 93.2256 5.14767 93.3123 5.081C93.3923 5.00767 93.5123 4.97767 93.6723 4.991C93.8123 4.99767 93.9023 5.04433 93.9423 5.131C93.989 5.211 93.9923 5.31767 93.9523 5.451L92.7523 10.281C92.7123 10.4277 92.6623 10.5543 92.6023 10.661C92.5423 10.761 92.4056 10.811 92.1923 10.811ZM93.0123 9.211L93.4023 7.341C93.669 6.881 93.959 6.471 94.2723 6.111C94.5923 5.74433 94.9156 5.45433 95.2423 5.241C95.569 5.02767 95.8756 4.921 96.1623 4.921C96.669 4.921 97.0156 5.27433 97.2023 5.981C97.2223 6.09433 97.199 6.191 97.1323 6.271C97.0656 6.351 96.9823 6.39767 96.8823 6.411C96.7423 6.451 96.6256 6.44767 96.5323 6.401C96.439 6.35433 96.3756 6.271 96.3423 6.151C96.289 5.84433 96.1656 5.691 95.9723 5.691C95.819 5.691 95.6323 5.771 95.4123 5.931C95.1856 6.09767 94.9456 6.31433 94.6923 6.581C94.439 6.841 94.1956 7.131 93.9623 7.451C93.729 7.771 93.529 8.08433 93.3623 8.391C93.1956 8.69767 93.079 8.971 93.0123 9.211Z" fill="black"/>
</svg>
