<?xml version="1.0" encoding="utf-8" ?>
<svg baseProfile="tiny" height="100%" version="1.2" width="100%" xmlns="http://www.w3.org/2000/svg" xmlns:ev="http://www.w3.org/2001/xml-events" xmlns:xlink="http://www.w3.org/1999/xlink"><defs /><g><path d="M247 0Q213 0 201.0 16.0Q189 32 194 62L500 1791Q505 1824 519.0 1840.5Q533 1857 574 1857H1509Q1547 1857 1559.0 1840.5Q1571 1824 1571 1801Q1571 1777 1559.5 1765.5Q1548 1754 1509 1754H614L490 1055H1254Q1292 1055 1304.0 1040.0Q1316 1025 1316 1000Q1316 977 1304.0 962.5Q1292 948 1254 948H472L324 106H1223Q1262 106 1274.0 95.5Q1286 85 1286 63Q1286 39 1273.0 19.5Q1260 0 1223 0ZM247 0Q213 0 201.0 16.0Q189 32 194 62L500 1791Q505 1824 519.0 1840.5Q533 1857 574 1857H1509Q1547 1857 1559.0 1840.5Q1571 1824 1571 1801Q1571 1777 1559.5 1765.5Q1548 1754 1509 1754H614L490 1055H1254Q1292 1055 1304.0 1040.0Q1316 1025 1316 1000Q1316 977 1304.0 962.5Q1292 948 1254 948H472L324 106H1223Q1262 106 1274.0 95.5Q1286 85 1286 63Q1286 39 1273.0 19.5Q1260 0 1223 0ZM-10 -849H1430V-865H-10ZM-10 32H1430V0H-10ZM-10 1003H1430V987H-10ZM-10 2452H1430V2436H-10Z" transform="translate(0.0, 72) scale(0.036, -0.036)" /><path d="M271 -12Q155 -12 101.5 99.5Q48 211 84 411Q117 590 191.5 722.5Q266 855 375.5 928.0Q485 1001 624 1001H836L981 1816Q985 1841 1002.5 1850.0Q1020 1859 1042 1857Q1070 1856 1086.0 1840.0Q1102 1824 1097 1795L789 50Q785 22 770.5 11.0Q756 0 735 0Q717 0 701.0 8.0Q685 16 676.5 31.0Q668 46 672 67L741 457Q636 238 515.0 113.0Q394 -12 271 -12ZM295 94Q359 94 425.0 153.0Q491 212 555.5 309.5Q620 407 681.0 525.0Q742 643 795 761L819 899H634Q522 899 435.0 838.0Q348 777 290.0 668.0Q232 559 206 415Q182 268 207.0 181.0Q232 94 295 94ZM271 -12Q155 -12 101.5 99.5Q48 211 84 411Q117 590 191.5 722.5Q266 855 375.5 928.0Q485 1001 624 1001H836L981 1816Q985 1841 1002.5 1850.0Q1020 1859 1042 1857Q1070 1856 1086.0 1840.0Q1102 1824 1097 1795L789 50Q785 22 770.5 11.0Q756 0 735 0Q717 0 701.0 8.0Q685 16 676.5 31.0Q668 46 672 67L741 457Q636 238 515.0 113.0Q394 -12 271 -12ZM295 94Q359 94 425.0 153.0Q491 212 555.5 309.5Q620 407 681.0 525.0Q742 643 795 761L819 899H634Q522 899 435.0 838.0Q348 777 290.0 668.0Q232 559 206 415Q182 268 207.0 181.0Q232 94 295 94ZM-10 -849H1050V-865H-10ZM-10 32H1050V0H-10ZM-10 1003H1050V987H-10ZM-10 2452H1050V2436H-10Z" transform="translate(51.12, 72) scale(0.036, -0.036)" /><path d="M375 -18Q228 -18 159.0 79.0Q90 176 119 339L228 952Q230 964 239.0 982.5Q248 1001 295 1001Q333 1001 341.5 982.0Q350 963 347 946L240 335Q222 232 260.0 160.5Q298 89 385 89Q468 89 556.0 176.0Q644 263 759 435L849 944Q851 955 861.5 978.0Q872 1001 918 1001Q957 1001 964.5 983.0Q972 965 969 948L814 67Q810 43 800.5 28.0Q791 13 774.0 6.5Q757 0 730 0Q702 0 694.5 14.0Q687 28 693 62L728 265Q631 110 550.0 46.0Q469 -18 375 -18ZM375 -18Q228 -18 159.0 79.0Q90 176 119 339L228 952Q230 964 239.0 982.5Q248 1001 295 1001Q333 1001 341.5 982.0Q350 963 347 946L240 335Q222 232 260.0 160.5Q298 89 385 89Q468 89 556.0 176.0Q644 263 759 435L849 944Q851 955 861.5 978.0Q872 1001 918 1001Q957 1001 964.5 983.0Q972 965 969 948L814 67Q810 43 800.5 28.0Q791 13 774.0 6.5Q757 0 730 0Q702 0 694.5 14.0Q687 28 693 62L728 265Q631 110 550.0 46.0Q469 -18 375 -18ZM-10 -849H1072V-865H-10ZM-10 32H1072V0H-10ZM-10 1003H1072V987H-10ZM-10 2452H1072V2436H-10Z" transform="translate(88.56, 72) scale(0.036, -0.036)" /><path d="M-10 -849H370V-865H-10ZM-10 32H370V0H-10ZM-10 1003H370V987H-10ZM-10 2452H370V2436H-10Z" transform="translate(126.792, 72) scale(0.036, -0.036)" /><path d="M0 -5Q-19 -5 -33.0 3.0Q-47 11 -49.5 27.5Q-52 44 -39 68L862 1798Q879 1831 888.5 1846.5Q898 1862 937 1862Q969 1862 981.5 1851.0Q994 1840 995 1820L1144 56Q1147 27 1136.0 11.0Q1125 -5 1092 -5Q1053 -5 1042.5 13.5Q1032 32 1030 54L959 948H539L86 61Q66 21 52.0 8.0Q38 -5 0 -5ZM594 1055H951L920 1439V1726L800 1458ZM0 -5Q-19 -5 -33.0 3.0Q-47 11 -49.5 27.5Q-52 44 -39 68L862 1798Q879 1831 888.5 1846.5Q898 1862 937 1862Q969 1862 981.5 1851.0Q994 1840 995 1820L1144 56Q1147 27 1136.0 11.0Q1125 -5 1092 -5Q1053 -5 1042.5 13.5Q1032 32 1030 54L959 948H539L86 61Q66 21 52.0 8.0Q38 -5 0 -5ZM594 1055H951L920 1439V1726L800 1458ZM-10 -849H1269V-865H-10ZM-10 32H1269V0H-10ZM-10 1003H1269V987H-10ZM-10 2452H1269V2436H-10Z" transform="translate(139.752, 72) scale(0.036, -0.036)" /><path d="M394 -18Q272 -18 219.0 105.5Q166 229 215 511L439 1782Q443 1804 452.5 1821.0Q462 1838 477.5 1847.5Q493 1857 513 1857Q541 1856 553.5 1838.5Q566 1821 561 1793L335 510Q323 439 313.0 365.0Q303 291 306.5 228.5Q310 166 335.5 127.5Q361 89 418 89Q528 89 654.0 193.5Q780 298 908.0 486.5Q1036 675 1153.0 928.5Q1270 1182 1362 1480L1418 1800Q1423 1824 1437.5 1840.5Q1452 1857 1486 1857Q1523 1857 1534.5 1842.0Q1546 1827 1541 1798L1234 56Q1230 27 1211.5 13.5Q1193 0 1170 0Q1142 0 1124.0 15.5Q1106 31 1112 65L1276 993Q1142 651 988.0 426.5Q834 202 680.5 92.0Q527 -18 394 -18ZM394 -18Q272 -18 219.0 105.5Q166 229 215 511L439 1782Q443 1804 452.5 1821.0Q462 1838 477.5 1847.5Q493 1857 513 1857Q541 1856 553.5 1838.5Q566 1821 561 1793L335 510Q323 439 313.0 365.0Q303 291 306.5 228.5Q310 166 335.5 127.5Q361 89 418 89Q528 89 654.0 193.5Q780 298 908.0 486.5Q1036 675 1153.0 928.5Q1270 1182 1362 1480L1418 1800Q1423 1824 1437.5 1840.5Q1452 1857 1486 1857Q1523 1857 1534.5 1842.0Q1546 1827 1541 1798L1234 56Q1230 27 1211.5 13.5Q1193 0 1170 0Q1142 0 1124.0 15.5Q1106 31 1112 65L1276 993Q1142 651 988.0 426.5Q834 202 680.5 92.0Q527 -18 394 -18ZM-10 -849H1553V-865H-10ZM-10 32H1553V0H-10ZM-10 1003H1553V987H-10ZM-10 2452H1553V2436H-10Z" transform="translate(185.07600000000002, 72) scale(0.036, -0.036)" /><path d="M-10 -849H370V-865H-10ZM-10 32H370V0H-10ZM-10 1003H370V987H-10ZM-10 2452H370V2436H-10Z" transform="translate(240.62400000000002, 72) scale(0.036, -0.036)" /><path d="M392 -5Q361 -5 346.0 17.0Q331 39 327 64L232 1800Q231 1831 241.5 1846.5Q252 1862 284 1862Q326 1862 339.0 1844.5Q352 1827 352 1807L426 209L1195 1799Q1213 1834 1230.5 1848.0Q1248 1862 1286 1862Q1315 1862 1328.0 1844.5Q1341 1827 1322 1789L468 61Q453 30 440.0 12.5Q427 -5 392 -5ZM392 -5Q361 -5 346.0 17.0Q331 39 327 64L232 1800Q231 1831 241.5 1846.5Q252 1862 284 1862Q326 1862 339.0 1844.5Q352 1827 352 1807L426 209L1195 1799Q1213 1834 1230.5 1848.0Q1248 1862 1286 1862Q1315 1862 1328.0 1844.5Q1341 1827 1322 1789L468 61Q453 30 440.0 12.5Q427 -5 392 -5ZM-10 -849H1027V-865H-10ZM-10 32H1027V0H-10ZM-10 1003H1027V987H-10ZM-10 2452H1027V2436H-10Z" transform="translate(253.58400000000003, 72) scale(0.036, -0.036)" /><path d="M312 70Q309 37 295.0 19.0Q281 1 243 -2Q207 -4 198.5 14.0Q190 32 194 70L489 1783Q492 1816 506.5 1834.0Q521 1852 558 1855Q594 1857 603.0 1839.0Q612 1821 607 1783ZM312 70Q309 37 295.0 19.0Q281 1 243 -2Q207 -4 198.5 14.0Q190 32 194 70L489 1783Q492 1816 506.5 1834.0Q521 1852 558 1855Q594 1857 603.0 1839.0Q612 1821 607 1783ZM-10 -849H619V-865H-10ZM-10 32H619V0H-10ZM-10 1003H619V987H-10ZM-10 2452H619V2436H-10Z" transform="translate(290.196, 72) scale(0.036, -0.036)" /><path d="M680 -5Q577 -5 477.5 51.5Q378 108 304.0 219.0Q230 330 201.0 492.5Q172 655 210 868Q232 992 268.0 1129.0Q304 1266 363.0 1396.0Q422 1526 514.0 1631.5Q606 1737 738.0 1799.5Q870 1862 1053 1862Q1186 1862 1310.5 1802.0Q1435 1742 1540 1630Q1559 1613 1562.0 1589.5Q1565 1566 1549 1551Q1536 1534 1514.5 1532.0Q1493 1530 1467 1555Q1368 1659 1261.0 1708.5Q1154 1758 1050 1758Q893 1758 779.0 1699.0Q665 1640 586.5 1542.5Q508 1445 456.5 1327.5Q405 1210 375.0 1090.5Q345 971 327 870Q295 683 315.0 540.0Q335 397 390.5 299.5Q446 202 523.0 152.0Q600 102 682 102Q830 102 949.0 179.0Q1068 256 1188 371Q1235 412 1253.5 440.0Q1272 468 1301 468Q1325 468 1337.5 458.5Q1350 449 1354 428Q1356 415 1345.0 388.0Q1334 361 1283 305Q1158 168 1011.5 81.5Q865 -5 680 -5ZM680 -5Q577 -5 477.5 51.5Q378 108 304.0 219.0Q230 330 201.0 492.5Q172 655 210 868Q232 992 268.0 1129.0Q304 1266 363.0 1396.0Q422 1526 514.0 1631.5Q606 1737 738.0 1799.5Q870 1862 1053 1862Q1186 1862 1310.5 1802.0Q1435 1742 1540 1630Q1559 1613 1562.0 1589.5Q1565 1566 1549 1551Q1536 1534 1514.5 1532.0Q1493 1530 1467 1555Q1368 1659 1261.0 1708.5Q1154 1758 1050 1758Q893 1758 779.0 1699.0Q665 1640 586.5 1542.5Q508 1445 456.5 1327.5Q405 1210 375.0 1090.5Q345 971 327 870Q295 683 315.0 540.0Q335 397 390.5 299.5Q446 202 523.0 152.0Q600 102 682 102Q830 102 949.0 179.0Q1068 256 1188 371Q1235 412 1253.5 440.0Q1272 468 1301 468Q1325 468 1337.5 458.5Q1350 449 1354 428Q1356 415 1345.0 388.0Q1334 361 1283 305Q1158 168 1011.5 81.5Q865 -5 680 -5ZM-10 -849H1447V-865H-10ZM-10 32H1447V0H-10ZM-10 1003H1447V987H-10ZM-10 2452H1447V2436H-10Z" transform="translate(312.12, 72) scale(0.036, -0.036)" /><path d="M-10 -849H370V-865H-10ZM-10 32H370V0H-10ZM-10 1003H370V987H-10ZM-10 2452H370V2436H-10Z" transform="translate(363.852, 72) scale(0.036, -0.036)" /><path d="M388 -5Q354 -5 337.5 13.5Q321 32 318 64L223 1800Q221 1831 231.5 1846.5Q242 1862 275 1862Q317 1862 329.0 1844.5Q341 1827 341 1807L420 213L1186 1801Q1193 1815 1212.5 1838.5Q1232 1862 1261 1862Q1305 1862 1318.5 1844.0Q1332 1826 1335 1806L1416 222L2179 1799Q2196 1832 2214.5 1847.0Q2233 1862 2260 1862Q2284 1862 2299.0 1854.0Q2314 1846 2316.5 1830.0Q2319 1814 2307 1789L1454 61Q1439 27 1421.5 11.0Q1404 -5 1381 -5Q1347 -5 1334.0 4.5Q1321 14 1319 39L1237 1663L463 64Q453 40 435.5 17.5Q418 -5 388 -5ZM388 -5Q354 -5 337.5 13.5Q321 32 318 64L223 1800Q221 1831 231.5 1846.5Q242 1862 275 1862Q317 1862 329.0 1844.5Q341 1827 341 1807L420 213L1186 1801Q1193 1815 1212.5 1838.5Q1232 1862 1261 1862Q1305 1862 1318.5 1844.0Q1332 1826 1335 1806L1416 222L2179 1799Q2196 1832 2214.5 1847.0Q2233 1862 2260 1862Q2284 1862 2299.0 1854.0Q2314 1846 2316.5 1830.0Q2319 1814 2307 1789L1454 61Q1439 27 1421.5 11.0Q1404 -5 1381 -5Q1347 -5 1334.0 4.5Q1321 14 1319 39L1237 1663L463 64Q453 40 435.5 17.5Q418 -5 388 -5ZM-10 -849H2011V-865H-10ZM-10 32H2011V0H-10ZM-10 1003H2011V987H-10ZM-10 2452H2011V2436H-10Z" transform="translate(376.81199999999995, 72) scale(0.036, -0.036)" /><path d="M0 -5Q-19 -5 -33.0 3.0Q-47 11 -49.5 27.5Q-52 44 -39 68L862 1798Q879 1831 888.5 1846.5Q898 1862 937 1862Q969 1862 981.5 1851.0Q994 1840 995 1820L1144 56Q1147 27 1136.0 11.0Q1125 -5 1092 -5Q1053 -5 1042.5 13.5Q1032 32 1030 54L959 948H539L86 61Q66 21 52.0 8.0Q38 -5 0 -5ZM594 1055H951L920 1439V1726L800 1458ZM0 -5Q-19 -5 -33.0 3.0Q-47 11 -49.5 27.5Q-52 44 -39 68L862 1798Q879 1831 888.5 1846.5Q898 1862 937 1862Q969 1862 981.5 1851.0Q994 1840 995 1820L1144 56Q1147 27 1136.0 11.0Q1125 -5 1092 -5Q1053 -5 1042.5 13.5Q1032 32 1030 54L959 948H539L86 61Q66 21 52.0 8.0Q38 -5 0 -5ZM594 1055H951L920 1439V1726L800 1458ZM-10 -849H1269V-865H-10ZM-10 32H1269V0H-10ZM-10 1003H1269V987H-10ZM-10 2452H1269V2436H-10Z" transform="translate(448.84799999999996, 72) scale(0.036, -0.036)" /><path d="M-10 -849H370V-865H-10ZM-10 32H370V0H-10ZM-10 1003H370V987H-10ZM-10 2452H370V2436H-10Z" transform="translate(494.17199999999997, 72) scale(0.036, -0.036)" /><path d="M248 0Q216 0 202.5 16.5Q189 33 193 62L499 1790Q505 1824 518.5 1840.5Q532 1857 571 1857Q605 1857 624.0 1841.5Q643 1826 649 1807L1210 250L1485 1791Q1490 1823 1505.5 1840.0Q1521 1857 1557 1857Q1591 1857 1599.0 1839.0Q1607 1821 1599 1783L1295 62Q1291 40 1282.5 20.0Q1274 0 1237 0Q1210 0 1194.5 12.5Q1179 25 1172 43L589 1626L316 69Q312 44 300.5 22.0Q289 0 248 0ZM248 0Q216 0 202.5 16.5Q189 33 193 62L499 1790Q505 1824 518.5 1840.5Q532 1857 571 1857Q605 1857 624.0 1841.5Q643 1826 649 1807L1210 250L1485 1791Q1490 1823 1505.5 1840.0Q1521 1857 1557 1857Q1591 1857 1599.0 1839.0Q1607 1821 1599 1783L1295 62Q1291 40 1282.5 20.0Q1274 0 1237 0Q1210 0 1194.5 12.5Q1179 25 1172 43L589 1626L316 69Q312 44 300.5 22.0Q289 0 248 0ZM-10 -849H1613V-865H-10ZM-10 32H1613V0H-10ZM-10 1003H1613V987H-10ZM-10 2452H1613V2436H-10Z" transform="translate(507.13199999999995, 72) scale(0.036, -0.036)" /><path d="M590 0Q555 0 543.5 16.0Q532 32 537 62L831 1754H323Q285 1754 273.0 1768.0Q261 1782 261 1806Q261 1829 273.0 1843.0Q285 1857 323 1857H1452Q1488 1857 1499.5 1843.0Q1511 1829 1511 1806Q1511 1782 1499.5 1768.0Q1488 1754 1452 1754H949L653 62Q650 40 639.0 20.0Q628 0 590 0ZM590 0Q555 0 543.5 16.0Q532 32 537 62L831 1754H323Q285 1754 273.0 1768.0Q261 1782 261 1806Q261 1829 273.0 1843.0Q285 1857 323 1857H1452Q1488 1857 1499.5 1843.0Q1511 1829 1511 1806Q1511 1782 1499.5 1768.0Q1488 1754 1452 1754H949L653 62Q650 40 639.0 20.0Q628 0 590 0ZM-10 -849H1231V-865H-10ZM-10 32H1231V0H-10ZM-10 1003H1231V987H-10ZM-10 2452H1231V2436H-10Z" transform="translate(564.8399999999999, 72) scale(0.036, -0.036)" /><path d="M-10 -849H370V-865H-10ZM-10 32H370V0H-10ZM-10 1003H370V987H-10ZM-10 2452H370V2436H-10Z" transform="translate(608.7959999999999, 72) scale(0.036, -0.036)" /><path d="M662 -18Q532 -18 433.0 48.5Q334 115 273.0 235.0Q212 355 194.5 516.5Q177 678 210 868Q389 1857 1053 1857Q1186 1857 1306.5 1798.5Q1427 1740 1533 1628Q1551 1610 1553.0 1587.5Q1555 1565 1540 1549Q1524 1533 1504.0 1530.5Q1484 1528 1460 1552Q1360 1657 1257.0 1705.5Q1154 1754 1050 1754Q482 1754 330 870Q302 705 312.0 563.0Q322 421 366.5 314.5Q411 208 486.5 148.0Q562 88 665 88Q746 88 826.0 129.0Q906 170 981.5 247.5Q1057 325 1125.5 433.0Q1194 541 1252 675Q1276 731 1298.5 757.5Q1321 784 1360 784Q1393 784 1401.0 770.5Q1409 757 1402 722L1287 67Q1283 43 1269.5 21.0Q1256 -1 1213 0Q1179 2 1171.0 20.5Q1163 39 1167 62L1228 416Q1071 179 935.0 80.5Q799 -18 662 -18ZM662 -18Q532 -18 433.0 48.5Q334 115 273.0 235.0Q212 355 194.5 516.5Q177 678 210 868Q389 1857 1053 1857Q1186 1857 1306.5 1798.5Q1427 1740 1533 1628Q1551 1610 1553.0 1587.5Q1555 1565 1540 1549Q1524 1533 1504.0 1530.5Q1484 1528 1460 1552Q1360 1657 1257.0 1705.5Q1154 1754 1050 1754Q482 1754 330 870Q302 705 312.0 563.0Q322 421 366.5 314.5Q411 208 486.5 148.0Q562 88 665 88Q746 88 826.0 129.0Q906 170 981.5 247.5Q1057 325 1125.5 433.0Q1194 541 1252 675Q1276 731 1298.5 757.5Q1321 784 1360 784Q1393 784 1401.0 770.5Q1409 757 1402 722L1287 67Q1283 43 1269.5 21.0Q1256 -1 1213 0Q1179 2 1171.0 20.5Q1163 39 1167 62L1228 416Q1071 179 935.0 80.5Q799 -18 662 -18ZM-10 -849H1563V-865H-10ZM-10 32H1563V0H-10ZM-10 1003H1563V987H-10ZM-10 2452H1563V2436H-10Z" transform="translate(621.756, 72) scale(0.036, -0.036)" /><path d="M375 -18Q228 -18 159.0 79.0Q90 176 119 339L228 952Q230 964 239.0 982.5Q248 1001 295 1001Q333 1001 341.5 982.0Q350 963 347 946L240 335Q222 232 260.0 160.5Q298 89 385 89Q468 89 556.0 176.0Q644 263 759 435L849 944Q851 955 861.5 978.0Q872 1001 918 1001Q957 1001 964.5 983.0Q972 965 969 948L814 67Q810 43 800.5 28.0Q791 13 774.0 6.5Q757 0 730 0Q702 0 694.5 14.0Q687 28 693 62L728 265Q631 110 550.0 46.0Q469 -18 375 -18ZM375 -18Q228 -18 159.0 79.0Q90 176 119 339L228 952Q230 964 239.0 982.5Q248 1001 295 1001Q333 1001 341.5 982.0Q350 963 347 946L240 335Q222 232 260.0 160.5Q298 89 385 89Q468 89 556.0 176.0Q644 263 759 435L849 944Q851 955 861.5 978.0Q872 1001 918 1001Q957 1001 964.5 983.0Q972 965 969 948L814 67Q810 43 800.5 28.0Q791 13 774.0 6.5Q757 0 730 0Q702 0 694.5 14.0Q687 28 693 62L728 265Q631 110 550.0 46.0Q469 -18 375 -18ZM-10 -849H1072V-865H-10ZM-10 32H1072V0H-10ZM-10 1003H1072V987H-10ZM-10 2452H1072V2436H-10Z" transform="translate(677.664, 72) scale(0.036, -0.036)" /><path d="M143 0Q106 0 97.5 17.0Q89 34 92 48L248 934Q252 958 261.5 973.0Q271 988 288.0 994.5Q305 1001 332 1001Q361 1001 368.0 987.5Q375 974 369 940L213 54Q211 43 201.0 21.5Q191 0 143 0ZM379 1263Q348 1263 327.0 1288.0Q306 1313 306 1347Q306 1381 325.5 1404.0Q345 1427 379 1427Q409 1427 431.0 1405.5Q453 1384 453 1347Q453 1313 432.0 1288.0Q411 1263 379 1263ZM143 0Q106 0 97.5 17.0Q89 34 92 48L248 934Q252 958 261.5 973.0Q271 988 288.0 994.5Q305 1001 332 1001Q361 1001 368.0 987.5Q375 974 369 940L213 54Q211 43 201.0 21.5Q191 0 143 0ZM379 1263Q348 1263 327.0 1288.0Q306 1313 306 1347Q306 1381 325.5 1404.0Q345 1427 379 1427Q409 1427 431.0 1405.5Q453 1384 453 1347Q453 1313 432.0 1288.0Q411 1263 379 1263ZM-10 -849H470V-865H-10ZM-10 32H470V0H-10ZM-10 1003H470V987H-10ZM-10 2452H470V2436H-10Z" transform="translate(715.896, 72) scale(0.036, -0.036)" /><path d="M271 -12Q155 -12 101.5 99.5Q48 211 84 411Q117 590 191.5 722.5Q266 855 375.5 928.0Q485 1001 624 1001H836L981 1816Q985 1841 1002.5 1850.0Q1020 1859 1042 1857Q1070 1856 1086.0 1840.0Q1102 1824 1097 1795L789 50Q785 22 770.5 11.0Q756 0 735 0Q717 0 701.0 8.0Q685 16 676.5 31.0Q668 46 672 67L741 457Q636 238 515.0 113.0Q394 -12 271 -12ZM295 94Q359 94 425.0 153.0Q491 212 555.5 309.5Q620 407 681.0 525.0Q742 643 795 761L819 899H634Q522 899 435.0 838.0Q348 777 290.0 668.0Q232 559 206 415Q182 268 207.0 181.0Q232 94 295 94ZM271 -12Q155 -12 101.5 99.5Q48 211 84 411Q117 590 191.5 722.5Q266 855 375.5 928.0Q485 1001 624 1001H836L981 1816Q985 1841 1002.5 1850.0Q1020 1859 1042 1857Q1070 1856 1086.0 1840.0Q1102 1824 1097 1795L789 50Q785 22 770.5 11.0Q756 0 735 0Q717 0 701.0 8.0Q685 16 676.5 31.0Q668 46 672 67L741 457Q636 238 515.0 113.0Q394 -12 271 -12ZM295 94Q359 94 425.0 153.0Q491 212 555.5 309.5Q620 407 681.0 525.0Q742 643 795 761L819 899H634Q522 899 435.0 838.0Q348 777 290.0 668.0Q232 559 206 415Q182 268 207.0 181.0Q232 94 295 94ZM-10 -849H1050V-865H-10ZM-10 32H1050V0H-10ZM-10 1003H1050V987H-10ZM-10 2452H1050V2436H-10Z" transform="translate(732.4559999999999, 72) scale(0.036, -0.036)" /><path d="M320 -18Q208 -18 144.0 69.0Q80 156 80 302Q80 442 122.5 571.0Q165 700 238.0 801.0Q311 902 404.5 960.5Q498 1019 601 1019Q695 1019 748.5 971.0Q802 923 802 837Q802 774 768.0 721.5Q734 669 682.0 626.5Q630 584 574.5 551.0Q519 518 475 493Q416 460 333.5 419.5Q251 379 195 350Q193 332 192.0 313.5Q191 295 191 276Q191 200 229.0 144.0Q267 88 323 88Q382 88 447.5 137.0Q513 186 574 257Q613 308 639.5 316.0Q666 324 685 309Q699 300 704.5 286.5Q710 273 701.5 249.5Q693 226 663 187Q596 98 503.5 40.0Q411 -18 320 -18ZM218 478Q261 501 312.0 527.0Q363 553 408 578Q479 620 542.0 664.5Q605 709 644.0 751.0Q683 793 683 828Q683 856 657.0 884.5Q631 913 584 913Q503 913 429.5 853.0Q356 793 300.5 694.0Q245 595 218 478ZM320 -18Q208 -18 144.0 69.0Q80 156 80 302Q80 442 122.5 571.0Q165 700 238.0 801.0Q311 902 404.5 960.5Q498 1019 601 1019Q695 1019 748.5 971.0Q802 923 802 837Q802 774 768.0 721.5Q734 669 682.0 626.5Q630 584 574.5 551.0Q519 518 475 493Q416 460 333.5 419.5Q251 379 195 350Q193 332 192.0 313.5Q191 295 191 276Q191 200 229.0 144.0Q267 88 323 88Q382 88 447.5 137.0Q513 186 574 257Q613 308 639.5 316.0Q666 324 685 309Q699 300 704.5 286.5Q710 273 701.5 249.5Q693 226 663 187Q596 98 503.5 40.0Q411 -18 320 -18ZM218 478Q261 501 312.0 527.0Q363 553 408 578Q479 620 542.0 664.5Q605 709 644.0 751.0Q683 793 683 828Q683 856 657.0 884.5Q631 913 584 913Q503 913 429.5 853.0Q356 793 300.5 694.0Q245 595 218 478ZM-10 -849H831V-865H-10ZM-10 32H831V0H-10ZM-10 1003H831V987H-10ZM-10 2452H831V2436H-10Z" transform="translate(769.896, 72) scale(0.036, -0.036)" /><path d="M406 -18Q348 -18 271.5 6.0Q195 30 124 84Q87 111 68.0 131.0Q49 151 67 179Q78 200 108.0 200.0Q138 200 168 178Q202 153 267.5 117.5Q333 82 406 82Q490 82 544.0 135.5Q598 189 598 256Q598 303 575.5 334.5Q553 366 524 389Q493 415 442.0 446.5Q391 478 330 515Q269 553 215.0 616.5Q161 680 161 761Q161 871 246.5 936.0Q332 1001 487 1001Q544 1001 609.5 987.5Q675 974 753 930Q793 908 806.0 883.5Q819 859 804 834Q791 813 762.0 809.0Q733 805 697 824Q672 838 615.5 868.5Q559 899 487 899Q393 899 335.5 859.5Q278 820 278 761Q278 713 323.0 673.5Q368 634 414 601Q475 561 529.5 530.5Q584 500 630 451Q668 415 692.0 370.5Q716 326 716 249Q716 176 676.0 115.0Q636 54 566.0 18.0Q496 -18 406 -18ZM406 -18Q348 -18 271.5 6.0Q195 30 124 84Q87 111 68.0 131.0Q49 151 67 179Q78 200 108.0 200.0Q138 200 168 178Q202 153 267.5 117.5Q333 82 406 82Q490 82 544.0 135.5Q598 189 598 256Q598 303 575.5 334.5Q553 366 524 389Q493 415 442.0 446.5Q391 478 330 515Q269 553 215.0 616.5Q161 680 161 761Q161 871 246.5 936.0Q332 1001 487 1001Q544 1001 609.5 987.5Q675 974 753 930Q793 908 806.0 883.5Q819 859 804 834Q791 813 762.0 809.0Q733 805 697 824Q672 838 615.5 868.5Q559 899 487 899Q393 899 335.5 859.5Q278 820 278 761Q278 713 323.0 673.5Q368 634 414 601Q475 561 529.5 530.5Q584 500 630 451Q668 415 692.0 370.5Q716 326 716 249Q716 176 676.0 115.0Q636 54 566.0 18.0Q496 -18 406 -18ZM-10 -849H885V-865H-10ZM-10 32H885V0H-10ZM-10 1003H885V987H-10ZM-10 2452H885V2436H-10Z" transform="translate(799.452, 72) scale(0.036, -0.036)" /></g></svg>