<svg width="134.22" height="17.64" viewBox="0 0 134.22 17.64" xmlns="http://www.w3.org/2000/svg"><path transform="translate(0 14.224) scale(.014 -.014)" d="m37 32 75 708q2 14 8.5 23t25.5 9l25-37-75-705-29-30q-16 0-24 9.5t-6 22.5zm435-3q0-11-7.5-20t-24.5-9h-373l5 55h368q17 0 24.5-7.5t7.5-18.5zm14 387q0-10-9-19t-27-9h-344l6 55h341q17 0 25-8t8-19zm62 329q0-10-7.5-18.5t-24.5-8.5h-377l7 54h370q17 0 24.5-8t7.5-19z"/><path transform="translate(7.63 14.224) scale(.014 -.014)" d="m268 0q-12 0-21.5 8t-7.5 24l76 715q2 14 11 19.5t19 5.5q12 0 21.5-8.5t7.5-22.5l-76-715q-1-13-10-19.5t-20-6.5zm-256 144q0 40 11 87t33 89 55.5 69 79.5 27h114l-6-60h-104q-32 0-55.5-22t-38.5-55-22.5-68-7.5-61q0-58 10-76.5t34-18.5q18 0 43.5 20.5t56.5 67.5 62 124l-11-130q-21-38-46-70.5t-53.5-52-60.5-19.5q-22 0-44 12.5t-36 45-14 91.5z"/><path transform="translate(13.286 14.224) scale(.014 -.014)" d="m264 0q-15 0-19.5 8.5t-3.5 23.5l38 352q1 10 7 21t25 11 23.5-11 2.5-24l-36-349q-2-16-11-24t-26-8zm-152-5q-34 0-56.5 19.5t-31.5 52.5-5 71l29 246q1 10 6 21t24 11q20 0 24.5-11t2.5-24l-27-243q-3-36 6-60.5t31-24.5q25 0 50.5 21t55.5 69.5 66 129.5l-10-130q-25-42-50.5-75.5t-53.5-53-61-19.5z"/><path transform="translate(22.834 14.224) scale(.014 -.014)" d="m516 21-375 685 4 66q16 0 24.5-6.5t13.5-17.5l368-668-2-80q-12 0-20 5.5t-13 15.5zm-449-21q-16 0-24 9.5t-6 22.5l75 708q2 14 8 23t25 9l25-45-74-694q-1-10-5-21.5t-24-11.5zm559 772q17 0 22-10t3-27l-75-705q-1-14-6-22t-21-8l-30 57 73 683q2 14 9 23t25 9z"/><path transform="translate(32.55 14.224) scale(.014 -.014)" d="m182-5q-61 0-107 28t-57 74q-4 14-1 26.5t16 16.5 24.5-1.5 14.5-20.5q8-28 40.5-48t88.5-20q42 0 80 16t64.5 49.5 31.5 85.5q5 59-29.5 104.5t-113.5 90.5q-35 20-66 43t-54 50-34.5 57.5-8.5 66.5q5 44 33 81.5t79.5 60 127.5 22.5q70 0 110.5-29t54.5-71q6-16 3.5-28.5t-14.5-16.5-23 1-16 17q-11 32-39 52t-73 20q-85 0-133-31.5t-53-82.5q-3-33 14.5-61.5t53-54.5 83.5-54q48-27 85.5-62.5t57-80.5 13.5-103q-5-50-26-87t-54-61.5-77-36.5-96-12z"/><path transform="translate(39.55 14.224) scale(.014 -.014)" d="m652 30q-5-13-11-21.5t-23-8.5l3 81 47 142 206 520q8 17 15 23t23 6q13 0 22-9.5t1-28.5zm-470 3-108 708q-2 14 4 22.5t22 8.5q20 0 26-9.5t7-18.5l77-519 17-150-12-75q-13 0-22 9.5t-11 23.5zm67-2q-3-10-9.5-20.5t-24.5-10.5v77l50 148 202 519q4 10 12 19t22 9v-71l-33-113zm337-1-83 554-14 123 12 65q22 0 28.5-9t7.5-19l77-516 14-151-10-77q-15 0-22.5 9.5t-9.5 20.5z"/><path transform="translate(56.56 14.224) scale(.014 -.014)" d="m-15 0q-13 4-17 16t5 32l312 696q6 14 13.5 21t22.5 7q17 0 23-8t8-21l-36-50-290-664q-6-14-16.5-23.5t-24.5-5.5zm177 391 22 51h190l10-51zm273-391q-19-1-26 9t-9 24l-93 663 45 47 108-703q2-16-3-27t-22-13z"/><path transform="translate(63.616 14.224) scale(.014 -.014)" d="m251-5q-84 0-134.5 48.5t-64.5 140 11 220.5q20 104 58.5 187t98 131.5 141.5 48.5q47 0 80-9.5t56.5-24.5 39.5-30q8-7 12-19t-7-26q-12-13-26-10t-23 10q-19 14-52 32.5t-76 18.5q-68 0-116-41t-79-112-48-163q-31-175 4-261t120-86q48 0 85.5 19.5t64 49 41.5 58.5q10 20 21.5 29t26.5 1 14.5-21.5-12.5-36.5q-18-37-53.5-72.5t-82-58.5-100.5-23z"/><path transform="translate(71.554 14.224) scale(.014 -.014)" d="m173 0q-16 0-21.5 13t-4.5 31l74 697h59l-73-701q-2-14-9-27t-25-13zm-152 743q0 11 6 20t24 9h397q18 0 25-9t7-20-5.5-20.5-23.5-9.5h-396q-18 0-26 9.5t-8 20.5z"/><path transform="translate(81.578 14.224) scale(.014 -.014)" d="m67 0q-16 0-24 9.5t-6 22.5l75 708q2 14 8.5 23t25.5 9l25-37-75-705q-1-9-5-19.5t-24-10.5zm408 416q0-10-7.5-19t-25.5-9h-335l7 55h328q18 0 25.5-8t7.5-19zm73 329q0-10-7.5-18.5t-24.5-8.5h-376l6 54h370q17 0 24.5-8t7.5-19z"/><path transform="translate(88.83 14.224) scale(.014 -.014)" d="m114-5q-24 0-48 11t-39 37-15 70q0 50 10 103t31.5 98.5 56.5 73.5 85 28q42 0 73-15.5t48-42.5 13-63q-4-32-17.5-72t-34.5-80-47.5-73.5-56-54-59.5-20.5zm0 60q17 0 41 23t48.5 59 42.5 77.5 22 78.5q4 31-15 47t-58 16q-33 0-56-23t-37.5-59-21.5-75.5-8-73.5q-1-25 8-47.5t34-22.5z"/><path transform="translate(94.052 14.224) scale(.014 -.014)" d="m264 0q-15 0-19.5 8.5t-3.5 23.5l38 352q1 10 7 21t25 11 23.5-11 2.5-24l-36-349q-2-16-11-24t-26-8zm-152-5q-34 0-56.5 19.5t-31.5 52.5-5 71l29 246q1 10 6 21t24 11q20 0 24.5-11t2.5-24l-27-243q-3-36 6-60.5t31-24.5q25 0 50.5 21t55.5 69.5 66 129.5l-10-130q-25-42-50.5-75.5t-53.5-53-61-19.5z"/><path transform="translate(99.708 14.224) scale(.014 -.014)" d="m37 0q-19 0-24 11.5t-3 25.5l39 347q2 16 11 24t27 8q15 0 19-8.5t2-23.5l-40-347q-2-12-5-24.5t-26-12.5zm230 0q-19 0-23 11.5t-3 25.5l29 241q2 16-1.5 35.5t-12 34-23.5 14.5q-37 0-75.5-52t-94.5-175l12 133q34 71 73 112t88 41q35 0 57-21.5t31-54.5 5-67l-30-241q-1-12-5-24.5t-27-12.5z"/><path transform="translate(105.27 14.224) scale(.014 -.014)" d="m268 0q-12 0-21.5 8t-7.5 24l76 715q2 14 11 19.5t19 5.5q12 0 21.5-8.5t7.5-22.5l-76-715q-1-13-10-19.5t-20-6.5zm-256 144q0 40 11 87t33 89 55.5 69 79.5 27h114l-6-60h-104q-32 0-55.5-22t-38.5-55-22.5-68-7.5-61q0-58 10-76.5t34-18.5q18 0 43.5 20.5t56.5 67.5 62 124l-11-130q-21-38-46-70.5t-53.5-52-60.5-19.5q-22 0-44 12.5t-36 45-14 91.5z"/><path transform="translate(110.92 14.224) scale(.014 -.014)" d="m106-5q-22 0-44 12.5t-36 45-14 91.5q0 40 11 87t33 89 55.5 69 79.5 27h110l-6-60h-100q-32 0-55.5-22t-38.5-55-22.5-68-7.5-61q0-58 10-76.5t34-18.5q18 0 43.5 20.5t56.5 66.5 62 124l-11-132q-32-57-72-98t-88-41zm160 5q-19 0-23.5 11t-3.5 21l41 384h36q8 0 14.5-10.5t5.5-21.5l-38-347q-1-12-5-24.5t-27-12.5z"/><path transform="translate(116.48 14.224) scale(.014 -.014)" d="m108 0q-11 0-21 7.5t-9 21.5l79 721q2 12 10 18.5t18 6.5q13 0 23-8.5t8-25.5l-78-714q-2-14-10-20.5t-20-6.5zm-112 390q0 11 6 18.5t24 7.5h253q18 0 25-7.5t7-18.5-5-19.5-23-8.5h-253q-18 0-26 8.5t-8 19.5z"/><path transform="translate(120.79 14.224) scale(.014 -.014)" d="m48 0q-12 0-20.5 8.5t-7.5 24.5l37 351q2 16 12 24t21 8 19.5-9 6.5-27l-36-347q-2-16-11.5-24.5t-20.5-8.5zm51 506q-16 0-28.5 13t-12.5 29q0 17 12.5 28.5t28.5 11.5 27.5-11.5 11.5-28.5q0-16-11.5-29t-27.5-13z"/><path transform="translate(123.44 14.224) scale(.014 -.014)" d="m114-5q-24 0-48 11t-39 37-15 70q0 50 10 103t31.5 98.5 56.5 73.5 85 28q42 0 73-15.5t48-42.5 13-63q-4-32-17.5-72t-34.5-80-47.5-73.5-56-54-59.5-20.5zm0 60q17 0 41 23t48.5 59 42.5 77.5 22 78.5q4 31-15 47t-58 16q-33 0-56-23t-37.5-59-21.5-75.5-8-73.5q-1-25 8-47.5t34-22.5z"/><path transform="translate(128.66 14.224) scale(.014 -.014)" d="m37 0q-19 0-24 11.5t-3 25.5l39 347q2 16 11 24t27 8q15 0 19-8.5t2-23.5l-40-347q-2-12-5-24.5t-26-12.5zm230 0q-19 0-23 11.5t-3 25.5l29 241q2 16-1.5 35.5t-12 34-23.5 14.5q-37 0-75.5-52t-94.5-175l12 133q34 71 73 112t88 41q35 0 57-21.5t31-54.5 5-67l-30-241q-1-12-5-24.5t-27-12.5z"/></svg>