<svg width="85.372" height="17.64" viewBox="0 0 85.372 17.64" xmlns="http://www.w3.org/2000/svg"><path transform="translate(0 14.224) scale(.014 -.014)" d="m69 0q-16 0-23.5 9.5t-6.5 22.5l75 708q2 14 8.5 23t26.5 9h369q18 0 25-8t7-19q0-10-7-18.5t-25-8.5h-347l-69-663h340q18 0 25-7.5t7-18.5-7-20-25-9zm39 388 6 55h341q18 0 25.5-8t7.5-19q0-10-9-19t-26-9z"/><path transform="translate(7.938 14.224) scale(.014 -.014)" d="m156-1q-52 0-83.5 31t-44 79-7.5 100q8 69 33.5 116t63.5 71.5 82 24.5q26 0 56.5-12t52.5-37l-6-55q-17 26-48 37.5t-57 11.5q-43 0-76-42t-41-118q-4-39 2-74t24.5-57 49.5-22q25 0 47 22.5t40.5 58 31.5 77 20 79.5l-17-193q-10-21-23-38.5t-29-31-33.5-21-37.5-7.5zm139 1q-12 0-20.5 8.5t-7.5 24.5l74 707q2 17 12 24.5t21 7.5 19.5-9 6.5-26l-73-704q-2-16-11.5-24.5t-20.5-8.5z"/><path transform="translate(13.958 14.224) scale(.014 -.014)" d="m119-1q-52 0-76 40.5t-17 98.5l29 246q1 10 6 21t25 11 24-11 2-24l-26-243q-4-36 5-58.5t31-22.5q25 0 50.5 20t55.5 67.5 67 128.5l-11-130q-37-64-76.5-104t-88.5-40zm152 1q-15 0-19.5 8.5t-3.5 23.5l38 352q1 10 7 21t25 11 24-11 3-24l-37-349q-2-16-10.5-24t-26.5-8z"/><path transform="translate(23.534 14.224) scale(.014 -.014)" d="m183-6q-41 0-75.5 13t-57.5 36.5-31 53.5q-4 14-1 26.5t16 16.5 24.5-1.5 15.5-20.5q5-18 21-34t43-25.5 64-9.5q42 0 80 16.5t64.5 50 31.5 85.5q5 59-29.5 104.5t-113.5 90.5q-35 20-66 43t-54 50-34.5 57.5-8.5 66.5q5 44 33 81.5t79.5 60.5 127.5 23q70 0 111-29.5t55-71.5q5-16 2.5-28.5t-14.5-16.5-22.5 1-15.5 17q-12 32-40 52.5t-73 20.5q-85 0-132.5-32t-53.5-83q-3-33 14.5-61.5t53-54.5 83.5-54q48-27 85.5-62.5t57-80.5 13.5-103q-10-100-79.5-149t-173.5-49z"/><path transform="translate(30.548 14.224) scale(.014 -.014)" d="m-8 0q-13 4-17 16t5 32l312 696q7 14 14 21t22 7q17 0 23-8t8-21l108-703q2-16-3-27t-22-13q-19-1-24.5 9t-7.5 24l-99 680 19-3-296-681q-6-14-17-23.5t-25-5.5zm177 388 22 54h190l10-54z"/><path transform="translate(41.874 14.224) scale(.014 -.014)" d="m68 0q-13 0-21.5 11t-7.5 26l74 703q2 17 10 24t23 8q129 8 216.5-14.5t129.5-69.5 33-113q-4-29-13.5-56t-33-50-66.5-41-112.5-30-173.5-17l5 43q105 4 169.5 18t99 35 48.5 47.5 18 55.5q5 41-27.5 75t-99.5 52.5-169 11.5l-69-664q169 2 263 48.5t102 121.5q5 52-35.5 88.5t-120 52.5-190.5 5l5 52q131 10 223.5-11.5t138.5-71 38-124.5q-7-67-64-115.5t-157-74.5-236-26z"/><path transform="translate(50.246 14.224) scale(.014 -.014)" d="m156-1q-39 0-66.5 18t-44 48-22.5 67.5-2 76.5q8 69 33.5 116t63.5 71.5 82 24.5q29 0 54.5-11.5t41.5-30 16-40.5q0-23-22.5-50.5t-58.5-55.5-76.5-54.5-76.5-49.5l-7 58q27 17 58.5 38t59.5 42.5 45.5 39 17.5 27.5q0 11-13 21.5t-41 10.5q-43 0-76-42t-41-118q-4-39 2.5-74t26-57 52.5-22q23 0 46 17.5t39 49.5q5 9 16.5 12t22.5-4q11-6 14-17t-2-20q-22-40-57-66t-85-26z"/><path transform="translate(55.468 14.224) scale(.014 -.014)" d="m156-1q-52 0-83.5 31t-44 79-7.5 100q8 69 33.5 116t63.5 71.5 82 24.5q26 0 56.5-12t52.5-37l-6-55q-17 26-48 37.5t-57 11.5q-43 0-76-42t-41-118q-4-39 2-74t24.5-57 49.5-22q25 0 47 22.5t40.5 58 31.5 77 20 79.5l-17-193q-10-21-23-38.5t-29-31-33.5-21-37.5-7.5zm-34-355q-34 0-67 13t-55 35q-11 12-10 23.5t14 20.5q8 5 17 4t16-8q32-34 87-34 50 0 83.5 42t40.5 114l56 530q2 16 12 24t21 8 20-9 7-27l-56-526q-11-97-60.5-153.5t-125.5-56.5z"/><path transform="translate(61.32 14.224) scale(.014 -.014)" d="m56 0q-12 0-20.5 8.5t-6.5 24.5l36 351q2 16 12 24t22 8q11 0 19.5-9t6.5-27l-37-347q-1-16-11-24.5t-21-8.5zm53 508q-17 0-31.5 14t-14.5 33 13.5 32 32.5 13q18 0 31.5-12.5t13.5-32.5q0-19-13-33t-32-14z"/><path transform="translate(63.994 14.224) scale(.014 -.014)" d="m43 0q-19 0-24 11.5t-4 25.5l40 347q2 16 11 24t27 8q15 0 19-8.5t2-23.5l-40-347q-2-12-5-24.5t-26-12.5zm230 0q-19 0-23 11.5t-3 25.5l29 241q5 39-5.5 61.5t-31.5 22.5q-37 0-75.5-52t-94.5-175l12 133q34 71 73 112t88 41q51 0 76-38.5t17-104.5l-30-241q-1-12-5-24.5t-27-12.5z"/><path transform="translate(69.594 14.224) scale(.014 -.014)" d="m43 0q-19 0-24 11.5t-4 25.5l40 347q2 16 11 24t27 8q15 0 19-8.5t2-23.5l-40-347q-2-12-5-24.5t-26-12.5zm230 0q-19 0-23 11.5t-3 25.5l29 241q5 39-5.5 61.5t-31.5 22.5q-37 0-75.5-52t-94.5-175l12 133q34 71 73 112t88 41q51 0 76-38.5t17-104.5l-30-241q-1-12-5-24.5t-27-12.5z"/><path transform="translate(75.194 14.224) scale(.014 -.014)" d="m156-1q-39 0-66.5 18t-44 48-22.5 67.5-2 76.5q8 69 33.5 116t63.5 71.5 82 24.5q29 0 54.5-11.5t41.5-30 16-40.5q0-23-22.5-50.5t-58.5-55.5-76.5-54.5-76.5-49.5l-7 58q27 17 58.5 38t59.5 42.5 45.5 39 17.5 27.5q0 11-13 21.5t-41 10.5q-43 0-76-42t-41-118q-4-39 2.5-74t26-57 52.5-22q23 0 46 17.5t39 49.5q5 9 16.5 12t22.5-4q11-6 14-17t-2-20q-22-40-57-66t-85-26z"/><path transform="translate(80.416 14.224) scale(.014 -.014)" d="m43 0q-12 0-20.5 8t-7.5 24l37 352q2 16 12.5 24t21.5 8 19.5-9 6.5-27l-37-348q-2-16-11.5-24t-20.5-8zm267 301q-10-6-23-3t-15 13q-4 20-12 35.5t-24 15.5q-24 0-49-23t-54-72.5-66-131.5l11 131q37 77 75 116t87 39q35 0 57.5-23.5t30.5-56.5q4-17-2-26t-16-14z"/></svg>