<svg width="159.8" height="24.353" viewBox="0 0 159.8 24.353" xmlns="http://www.w3.org/2000/svg"><path transform="translate(0 18.032) scale(.007 -.007)" d="m247 0q-34 0-46 16t-7 46l306 1729q5 33 19 49.5t55 16.5h935q38 0 50-16.5t12-39.5q0-24-11.5-35.5t-50.5-11.5h-895l-124-699h764q38 0 50-15t12-40q0-23-12-37.5t-50-14.5h-782l-148-842h899q39 0 51-10.5t12-32.5q0-24-13-43.5t-50-19.5z"/><path transform="translate(9.94 18.032) scale(.007 -.007)" d="m206 415q-24-147 1-234t88-87q64 0 130 59t130.5 156.5 125.5 215.5 114 236l24 138h-185q-112 0-199-61t-145-170-84-253zm-122-4q33 179 107.5 311.5t184 205.5 248.5 73h212l145 815q4 25 21.5 34t39.5 7q28-1 44-17t11-45l-254-1442q-7-45-11.5-103.5t3-101.5 35.5-43q34 0 63.5 25t63.5 83l17 28q21 36 36.5 51t35.5 15 33-13 13-39q0-15-18.5-47t-42.5-72q-43-70-96-103t-128-33q-66 0-99 47t-36.5 136 18.5 214l11 60q-105-219-226-344t-244-125q-116 0-169.5 111.5t-17.5 311.5z"/><path transform="translate(18.172 18.032) scale(.007 -.007)" d="m375-18q-147 0-216 97t-40 260l109 613q2 12 11 30.5t56 18.5q38 0 46.5-19t5.5-36l-107-611q-18-103 20-174.5t125-71.5q83 0 171 87t203 259l90 509q2 11 12.5 34t56.5 23q39 0 46.5-18t4.5-35l-102-584q-6-33-11-77t-4.5-85.5 9.5-69 31-27.5q34 0 63.5 25t63.5 83l17 28q21 36 36.5 51t35.5 15 33-13 13-39q0-15-18.5-47t-42.5-72q-43-70-96-103t-127-33q-82 0-114 70.5t-22 199.5q-108-163-188-225.5t-171-62.5z"/><path transform="translate(28.308 18.032) scale(.007 -.007)" d="m392-5q-31 0-46 22t-19 47l-95 1736q-1 31 9.5 46.5t42.5 15.5q42 0 55-17.5t13-37.5l74-1598 769 1590q18 35 35.5 49t55.5 14q29 0 42-17.5t-6-55.5l-854-1728q-15-31-28-48.5t-48-17.5z"/><path transform="translate(35.427 18.032) scale(.007 -.007)" d="m145 0q-36 0-47.5 14.5t-11.5 37.5q0 25 11.5 39.5t47.5 14.5h84l291 1648h-60q-37 0-49.5 15.5t-12.5 37.5q0 23 12 36.5t50 13.5h260q37 0 48-13.5t11-36.5q0-22-11.5-37.5t-47.5-15.5h-80l-290-1648h67q38 0 50-14.5t12-39.5q0-23-12-37.5t-50-14.5z"/><path transform="translate(40.488 18.032) scale(.007 -.007)" d="m680-5q-103 0-202.5 56.5t-173.5 167.5-103 273.5 9 375.5q22 124 58 261t95 267 151 235.5 224 168 315 62.5q133 0 257.5-60t229.5-172q19-17 22-40.5t-13-38.5q-13-17-34.5-19t-47.5 23q-99 104-206 153.5t-211 49.5q-157 0-271-59t-192.5-156.5-130-215-81.5-237-48-220.5q-32-187-12-330t75.5-240.5 132.5-147.5 159-50q148 0 267 77t239 192q47 41 65.5 69t47.5 28q24 0 36.5-9.5t16.5-30.5q2-13-9-40t-62-83q-125-137-271.5-223.5t-331.5-86.5z"/><path transform="translate(52.297 18.032) scale(.007 -.007)" d="m388-5q-34 0-50.5 18.5t-19.5 50.5l-95 1736q-2 31 8.5 46.5t43.5 15.5q42 0 54-17.5t12-37.5l79-1594 766 1588q7 14 26.5 37.5t48.5 23.5q44 0 57.5-18t16.5-38l81-1584 763 1577q17 33 35.5 48t45.5 15q24 0 39-8t17.5-24-9.5-41l-853-1728q-15-34-32.5-50t-40.5-16q-34 0-47 9.5t-15 34.5l-82 1624-774-1599q-10-24-27.5-46.5t-47.5-22.5z"/><path transform="translate(66.304 18.032) scale(.007 -.007)" d="m0-5q-19 0-33 8t-16.5 24.5 10.5 40.5l901 1730q17 33 26.5 48.5t48.5 15.5q32 0 44.5-11t13.5-31l149-1764q3-29-8-45t-44-16q-39 0-49.5 18.5t-12.5 40.5l-71 894h-420l-453-887q-20-40-34-53t-52-13zm594 1060h357l-31 384v287l-120-268z"/><path transform="translate(76.867 18.032) scale(.007 -.007)" d="m248 0q-32 0-45.5 16.5t-9.5 45.5l306 1728q6 34 19.5 50.5t52.5 16.5q34 0 53-15.5t25-34.5l561-1557 275 1541q5 32 20.5 49t51.5 17q34 0 42-18t0-56l-304-1721q-4-22-12.5-42t-45.5-20q-27 0-42.5 12.5t-22.5 30.5l-583 1583-273-1557q-4-25-15.5-47t-52.5-22z"/><path transform="translate(88.088 18.032) scale(.007 -.007)" d="m560 0q-35 0-46.5 16t-6.5 46l294 1692h-508q-38 0-50 14t-12 38q0 23 12 37t50 14h1129q36 0 47.5-14t11.5-37q0-24-11.5-38t-47.5-14h-503l-296-1692q-3-22-14-42t-49-20z"/><path transform="translate(97.825 18.032) scale(.007 -.007)" d="m246 0q-33 0-45 16t-7 46l305 1728q5 33 21.5 50t53.5 17q29 0 39-18.5t4-55.5l-128-728h861l132 750q4 21 18 36.5t48 15.5q36 0 46.5-16.5t4.5-49.5l-306-1738q-3-19-16-36t-48-17q-40 0-49 19t-5 43l155 886h-860l-156-886q-4-22-15.5-42t-52.5-20z"/><path transform="translate(109.03 18.032) scale(.007 -.007)" d="m204 422q-25-149 7-241t80-92q68 0 156.5 91t182.5 246.5 178 348.5l22 124h-216q-82 0-166.5-59t-150.5-166-93-252zm-121-6q33 181 115 312t189.5 202 216.5 71h321q25 0 30-22.5t-2-61.5l-97-553q-6-33-11-77t-4.5-85.5 9.5-69 31-27.5q34 0 63.5 25t63.5 83l17 28q21 36 36.5 51t35.5 15 33-13 13-39q0-15-18.5-47t-42.5-72q-43-70-96-103t-128-33q-100 0-126.5 105t8.5 292l14 73q-67-138-151-248.5t-171-175-165-64.5q-68 0-118.5 52.5t-70 150 4.5 231.5z"/><path transform="translate(117.34 18.032) scale(.007 -.007)" d="m270 0q-22 0-38 16.5t-11 48.5l100 568q6 34 11 78.5t5.5 86-8.5 69-30 27.5q-34 0-60.5-25t-59.5-83l-17-28q-21-36-36.5-51t-35.5-15-33.5 13-13.5 38q0 15 19 47.5t43 72.5q44 71 98.5 109t139.5 26q46-7 72-42.5t34.5-94 2.5-134.5q104 156 190.5 224t197.5 68q100 0 161.5-51.5t85-133.5 7.5-173l-53-305q-8-45-12.5-104t3-103 35.5-44q34 0 63.5 25t63.5 83l17 28q21 36 36.5 51t35.5 15 33-13 13-39q0-15-18.5-47t-42.5-72q-43-70-96-103t-128-33q-50 0-80.5 27t-44 78.5-11 125.5 19.5 168l47 267q9 52 1.5 109t-41 97.5-104.5 40.5q-90 0-185-84.5t-217-261.5l-88-501q-5-34-25-50t-46-16z"/><path transform="translate(126.95 18.032) scale(.007 -.007)" d="m206 415q-24-147 1-234t88-87q64 0 130 59t130.5 156.5 125.5 215.5 114 236l24 138h-185q-112 0-199-61t-145-170-84-253zm-122-4q33 179 107.5 311.5t184 205.5 248.5 73h212l145 815q4 25 21.5 34t39.5 7q28-1 44-17t11-45l-254-1442q-7-45-11.5-103.5t3-101.5 35.5-43q34 0 63.5 25t63.5 83l17 28q21 36 36.5 51t35.5 15 33-13 13-39q0-15-18.5-47t-42.5-72q-43-70-96-103t-128-33q-66 0-99 47t-36.5 136 18.5 214l11 60q-105-219-226-344t-244-125q-116 0-169.5 111.5t-17.5 311.5z"/><path transform="translate(136.93 18.032) scale(.007 -.007)" d="m249 0q-33 0-46.5 16.5t-9.5 45.5l306 1728q6 34 20 50.5t54 16.5q312 0 533.5-49t332-151.5 88.5-264.5q-19-144-105-231.5t-226.5-133-325-61.5-400.5-18l-156-886q-4-22-14.5-42t-50.5-20zm239 1055q180 2 340.5 16.5t287 51.5 204.5 104.5 91 175.5q10 80-31 143.5t-137.5 109-253 70.5-377.5 28z"/><path transform="translate(146.56 18.032) scale(.007 -.007)" d="m270 0q-22 0-38 16.5t-11 48.5l100 568q6 34 11 78.5t5.5 86-8.5 69-30 27.5q-34 0-60.5-25t-59.5-83l-17-28q-21-36-36.5-51t-35.5-15-33.5 13-13.5 38q0 15 19 47.5t43 72.5q44 71 98.5 109t139.5 26q48-7 74.5-45.5t34-102-1.5-145.5q85 144 174 220t171 76q40 0 56.5-19t32-38.5 52.5-19.5q25 0 54 15t44 26q27 18 53 22t43.5-6 17.5-34q0-20-9.5-36t-26.5-29.5-40-27.5q-37-23-76.5-32.5t-62.5-9.5q-39 0-66 22t-49.5 43.5-47.5 21.5q-27 0-71.5-27.5t-111-103-161.5-219.5l-85-483q-5-34-25-50t-46-16z"/><path transform="translate(154.05 18.032) scale(.007 -.007)" d="m320-18q-112 0-176 87t-64 233q0 140 42.5 269t115.5 230 166.5 159.5 196.5 58.5q94 0 147.5-48t53.5-134q0-63-34-115.5t-86-95-107.5-75.5-99.5-58q-59-33-141.5-73.5t-138.5-69.5q-2-18-3-36.5t-1-37.5q0-76 38-132t94-56q59 0 124.5 49t126.5 120q39 51 65.5 59t45.5-7q14-9 19.5-22.5t-3-37-38.5-62.5q-67-89-159.5-147t-183.5-58zm-102 496q43 23 94 49t96 51q71 42 134 86.5t102 86.5 39 77q0 28-26 56.5t-73 28.5q-81 0-154.5-60t-129-159-82.5-216z"/></svg>