<svg width="58.884" height="21.882" viewBox="0 0 58.884 21.882" xmlns="http://www.w3.org/2000/svg"><path transform="translate(0 14.266) scale(.014 -.014)" d="m106 0v540q0 45-12.5 72.5t-57.5 27.5h-20v20h426q35 0 53-11.5t25-30 7-38.5v-75h-20q0 60-32.5 87.5t-92.5 27.5h-186v-260h270v-40h-270v-280h175q68 0 107.5 25t62.5 85l20-5-35-95q-8-23-26.5-36.5t-48.5-13.5z"/><path transform="translate(8.26 14.266) scale(.014 -.014)" d="m76 0v540q0 45-12.5 72.5t-57.5 27.5h-20v20h90q35 0 54.5-9t27.5-35 8-76v-540z"/><path transform="translate(15.148 14.266) scale(.014 -.014)" d="m841-45q-72 0-112.5 22.5t-56.5 70-16 122.5v385l-250-555h-20l-260 565v-565h-40v660h95l240-520 235 520h90v-490q0-91 23-143t72-52z"/><path transform="translate(27.118 14.266) scale(.014 -.014)" d="m255-10q-70 0-116.5 33t-70 89-23.5 123q0 68 24 123.5t69 88.5 107 33q68 0 112.5-25.5t66-74.5 21.5-120l-2-40h-303q0-82 35.5-136t99.5-54q49 0 81.5 21t58.5 59l20-15q-22-38-49.5-61t-60-33.5-70.5-10.5zm-115 270h210q0 87-26 133.5t-79 46.5q-30 0-53.5-23.5t-37.5-64-14-92.5z"/><path transform="translate(33.95 14.266) scale(.014 -.014)" d="m229-10q-60 0-98 10.5t-57 29.5-22 43-3 62h20q8-49 42-77t98-28q57 0 83.5 20t26.5 50-22.5 50.5-67.5 39.5l-60 25q-57 23-88.5 54.5t-31.5 80.5q0 63 47 96.5t118 33.5q57 0 94-10.5t56-29.5 22-43 3-62h-20q-8 49-41.5 77t-93.5 28q-49 0-74.5-20t-25.5-50q0-26 21-47.5t59-37.5l60-25q64-26 97-57t33-83q0-63-50-96.5t-125-33.5z"/><path transform="translate(40.194 14.266) scale(.014 -.014)" d="m229-10q-60 0-98 10.5t-57 29.5-22 43-3 62h20q8-49 42-77t98-28q57 0 83.5 20t26.5 50-22.5 50.5-67.5 39.5l-60 25q-57 23-88.5 54.5t-31.5 80.5q0 63 47 96.5t118 33.5q57 0 94-10.5t56-29.5 22-43 3-62h-20q-8 49-41.5 77t-93.5 28q-49 0-74.5-20t-25.5-50q0-26 21-47.5t59-37.5l60-25q64-26 97-57t33-83q0-63-50-96.5t-125-33.5z"/><path transform="translate(46.438 14.266) scale(.014 -.014)" d="m87 0v350q0 45-12.5 72.5t-57.5 27.5h-20v20h90q35 0 54.5-9t27.5-35 8-76v-350zm38 530q-23 0-39.5 19t-16.5 45q0 21 12.5 33t33.5 12q23 0 39.5-19t16.5-45q0-21-12.5-33t-33.5-12z"/><path transform="translate(49.882 14.266) scale(.014 -.014)" d="m80 0v350q0 45-12.5 72.5t-57.5 27.5h-10v20h80q38 0 57.5-11t27.5-34q17 17 49.5 36t75.5 19q15 0 32-3.5t28-11.5 19-19 16-26l-40-30q-11 15-32.5 22.5t-47.5 7.5q-30 0-55-13.5t-40-36.5q0-5 0-14.5t0-15.5v-340z"/><path transform="translate(55.44 14.266) scale(.014 -.014)" d="m87 0v350q0 45-12.5 72.5t-57.5 27.5h-20v20h90q35 0 54.5-9t27.5-35 8-76v-350zm38 530q-23 0-39.5 19t-16.5 45q0 21 12.5 33t33.5 12q23 0 39.5-19t16.5-45q0-21-12.5-33t-33.5-12z"/></svg>