<svg width="111" height="10" viewBox="0 0 111 10" fill="none" xmlns="http://www.w3.org/2000/svg">
<path d="M4.77 4.75C5.85667 4.87 6.65 5.00333 7.15 5.15C7.15 5.40333 7.09667 5.59 6.99 5.71C6.24333 5.75 5.44 5.86667 4.58 6.06C4.46 7.02 4.36 8.01 4.28 9.03C4.28 9.09 4.20667 9.18 4.06 9.3C3.91333 9.42 3.78667 9.48 3.68 9.48H0.5C1.10667 7.26667 1.55667 4.31333 1.85 0.62C1.85 0.56 1.92333 0.47 2.07 0.35C2.22333 0.236667 2.35333 0.18 2.46 0.18H5.63C5.28333 1.68 4.99667 3.20333 4.77 4.75ZM7.71 4.32C7.59667 3.63333 7.39 2.94667 7.09 2.26C6.78333 1.58 6.47333 1.06667 6.16 0.72C6.18667 0.506666 6.25333 0.326666 6.36 0.18H8.84C8.80667 0.62 8.74 1.21333 8.64 1.96C8.53333 2.7 8.42 3.33333 8.3 3.86C8.28667 3.94 8.21 4.03667 8.07 4.15C7.93 4.26333 7.81 4.32 7.71 4.32ZM7.39 6.67C7.44333 6.60333 7.56 6.51333 7.74 6.4C7.91333 6.28 8.05 6.22 8.15 6.22C7.99667 7.57333 7.85 8.49667 7.71 8.99C7.67 9.07667 7.59 9.18 7.47 9.3C7.34333 9.42 7.24333 9.48 7.17 9.48H4.66C5.78 8.72667 6.69 7.79 7.39 6.67ZM12.84 9.48H9.97C10.4633 7.4 10.8 5.29333 10.98 3.16C10.98 3.1 11.05 3.01667 11.19 2.91C11.3367 2.79667 11.4933 2.72667 11.66 2.7C11.82 2.67333 12.2133 2.63667 12.84 2.59C13.4733 2.53667 13.9667 2.51 14.32 2.51C13.92 4.53 13.6267 6.70333 13.44 9.03C13.44 9.09 13.3667 9.18 13.22 9.3C13.0733 9.42 12.9467 9.48 12.84 9.48ZM17.39 9.48H14.68C15.1533 6.74 15.39 5.05333 15.39 4.42C15.39 3.78 15.2433 3.46 14.95 3.46C15.01 3.22 15.11 3.01333 15.25 2.84C15.71 2.62 16.2367 2.51 16.83 2.51C17.4233 2.51 17.86 2.65333 18.14 2.94C18.42 3.23333 18.56 3.67 18.56 4.25C18.56 4.55667 18.4733 5.27667 18.3 6.41C18.1333 7.55 18.03 8.42333 17.99 9.03C17.99 9.09 17.9167 9.18 17.77 9.3C17.6233 9.42 17.4967 9.48 17.39 9.48ZM19.81 9.49C19.5433 9.22333 19.41 8.93 19.41 8.61C19.41 8.28333 19.4967 7.54 19.67 6.38C19.8433 5.22 19.93 4.50333 19.93 4.23C19.93 3.95667 19.85 3.76 19.69 3.64C19.53 3.52 19.3467 3.46 19.14 3.46C19.18 3.2 19.2533 2.99333 19.36 2.84C19.5333 2.76 19.81 2.68667 20.19 2.62C20.5767 2.54667 20.9267 2.51 21.24 2.51C21.8467 2.51 22.3033 2.65 22.61 2.93C22.91 3.21 23.06 3.65 23.06 4.25C23.06 4.59 22.98 5.17 22.82 5.99C22.66 6.81 22.58 7.31667 22.58 7.51C22.58 7.70333 22.5867 7.84667 22.6 7.94C22.6133 8.04 22.6267 8.11333 22.64 8.16C22.6533 8.21333 22.6867 8.27667 22.74 8.35C22.7933 8.42333 22.8233 8.47 22.83 8.49C22.8433 8.50333 22.89 8.55 22.97 8.63C23.0567 8.70333 23.1033 8.74667 23.11 8.76C23.11 8.81333 23.0433 8.91667 22.91 9.07C22.7767 9.21667 22.6533 9.31333 22.54 9.36C21.9533 9.44667 21.0433 9.49 19.81 9.49ZM28.6 9.02C28.6 9.08 28.5267 9.17333 28.38 9.3C28.2333 9.42 28.1067 9.48 28 9.48H25.18C25.38 8.62 25.61 7.19 25.87 5.19C26.1367 3.18333 26.32 1.61 26.42 0.47C26.42 0.41 26.4933 0.32 26.64 0.2C26.7867 0.0799998 26.91 0.02 27.01 0.02H29.89C29.65 1.02 29.4 2.46667 29.14 4.36C28.88 6.24667 28.7 7.8 28.6 9.02ZM29.24 9.43C29.7533 9.10333 30.1467 8.56667 30.42 7.82C30.6933 7.07333 30.83 6.26 30.83 5.38C30.83 4.5 30.5867 3.69667 30.1 2.97C30.1 2.90333 30.17 2.81 30.31 2.69C30.45 2.57 30.5733 2.51 30.68 2.51C31.2867 2.51 31.8367 2.63333 32.33 2.88C32.83 3.12667 33.23 3.49 33.53 3.97C33.83 4.44333 33.98 4.99333 33.98 5.62C33.98 6.77333 33.57 7.69667 32.75 8.39C31.93 9.08333 30.76 9.43 29.24 9.43ZM38.93 9.02C38.93 9.08 38.86 9.17333 38.72 9.3C38.5733 9.42 38.4433 9.48 38.33 9.48H35.52C35.72 8.62 35.95 7.19 36.21 5.19C36.47 3.18333 36.65 1.61 36.75 0.47C36.75 0.41 36.8233 0.32 36.97 0.2C37.1167 0.0799998 37.2433 0.02 37.35 0.02H40.23C39.9833 1.02 39.73 2.46667 39.47 4.36C39.21 6.24667 39.03 7.8 38.93 9.02ZM47.57 2.69C48.19 2.90333 48.66 3.2 48.98 3.58C49.3 3.96667 49.46 4.38 49.46 4.82C49.46 5.41333 49.2033 5.92 48.69 6.34C48.1767 6.75333 47.4733 6.96 46.58 6.96C46.3067 6.96 46.0033 6.91333 45.67 6.82C46.15 6.52 46.4767 6.13 46.65 5.65C46.79 5.23 46.86 4.73667 46.86 4.17C46.86 4.05667 46.85 3.72 46.83 3.16C46.8233 3.1 46.9167 3.00667 47.11 2.88C47.2967 2.75333 47.45 2.69 47.57 2.69ZM46.46 2.58C45.8933 2.96 45.4467 3.46333 45.12 4.09C44.7867 4.71 44.62 5.37667 44.62 6.09C44.62 6.80333 44.8933 7.38333 45.44 7.83C45.9867 8.27667 46.7833 8.5 47.83 8.5C48.1233 8.5 48.4333 8.47333 48.76 8.42C48.5467 8.76 48.1333 9.04 47.52 9.26C46.9067 9.48667 46.2667 9.6 45.6 9.6C44.9267 9.6 44.3533 9.53333 43.88 9.4C43.4067 9.26667 42.9867 9.06667 42.62 8.8C42.2467 8.54 41.9533 8.19667 41.74 7.77C41.5267 7.34333 41.42 6.87333 41.42 6.36C41.42 5.84667 41.4967 5.38333 41.65 4.97C41.81 4.55667 42.03 4.2 42.31 3.9C42.59 3.60667 42.9133 3.35333 43.28 3.14C44.0133 2.72 44.86 2.51 45.82 2.51C46.0533 2.51 46.2667 2.53333 46.46 2.58ZM53.63 9.48H50.76C51.2533 7.4 51.59 5.29333 51.77 3.16C51.77 3.1 51.84 3.01667 51.98 2.91C52.1267 2.79667 52.2833 2.72667 52.45 2.7C52.61 2.67333 53.0033 2.63667 53.63 2.59C54.2633 2.53667 54.7567 2.51 55.11 2.51C54.71 4.53 54.4167 6.70333 54.23 9.03C54.23 9.09 54.1567 9.18 54.01 9.3C53.8633 9.42 53.7367 9.48 53.63 9.48ZM58.18 9.48H55.47C55.9433 6.74 56.18 5.05333 56.18 4.42C56.18 3.78 56.0333 3.46 55.74 3.46C55.8 3.22 55.9 3.01333 56.04 2.84C56.5067 2.62 57.0333 2.51 57.62 2.51C58.2133 2.51 58.65 2.65333 58.93 2.94C59.21 3.23333 59.35 3.67 59.35 4.25C59.35 4.55667 59.2633 5.27667 59.09 6.41C58.9233 7.55 58.82 8.42333 58.78 9.03C58.78 9.09 58.7067 9.18 58.56 9.3C58.4133 9.42 58.2867 9.48 58.18 9.48ZM60.6 9.49C60.3333 9.22333 60.2 8.93 60.2 8.61C60.2 8.28333 60.2867 7.54 60.46 6.38C60.6333 5.22 60.72 4.50333 60.72 4.23C60.72 3.95667 60.64 3.76 60.48 3.64C60.32 3.52 60.1367 3.46 59.93 3.46C59.97 3.2 60.0433 2.99333 60.15 2.84C60.3233 2.76 60.6 2.68667 60.98 2.62C61.3667 2.54667 61.7167 2.51 62.03 2.51C62.6367 2.51 63.0933 2.65 63.4 2.93C63.7 3.21 63.85 3.65 63.85 4.25C63.85 4.59 63.77 5.17 63.61 5.99C63.45 6.81 63.37 7.31667 63.37 7.51C63.37 7.70333 63.3767 7.84667 63.39 7.94C63.4033 8.04 63.4167 8.11333 63.43 8.16C63.4433 8.21333 63.4767 8.27667 63.53 8.35C63.5833 8.42333 63.6133 8.47 63.62 8.49C63.6333 8.50333 63.68 8.55 63.76 8.63C63.8467 8.70333 63.8933 8.74667 63.9 8.76C63.9 8.81333 63.8333 8.91667 63.7 9.07C63.5667 9.21667 63.4433 9.31333 63.33 9.36C62.7433 9.44667 61.8333 9.49 60.6 9.49ZM74.01 9.21C73.1233 9.39667 72.17 9.49 71.15 9.49C70.9167 9.17667 70.8 8.84667 70.8 8.5C70.8 8.15333 70.9 7.27667 71.1 5.87C71.3067 4.45667 71.4133 3.51667 71.42 3.05C71.42 2.99667 71.4933 2.91 71.64 2.79C71.7933 2.67 71.92 2.61 72.02 2.61C72.9933 2.61 73.9133 2.74 74.78 3C74.76 3.14667 74.6367 3.72667 74.41 4.74C74.19 5.75333 74.08 6.56667 74.08 7.18C74.08 7.79333 74.2433 8.26333 74.57 8.59C74.57 8.65667 74.5067 8.76333 74.38 8.91C74.2533 9.05667 74.13 9.15667 74.01 9.21ZM70.84 2.51C70.3 2.91667 69.89 3.46333 69.61 4.15C69.33 4.83667 69.19 5.51 69.19 6.17C69.19 6.83667 69.2633 7.43333 69.41 7.96C69.5567 8.48667 69.7567 8.84 70.01 9.02C70.01 9.08667 69.9367 9.18 69.79 9.3C69.6433 9.42 69.52 9.48 69.42 9.48C68.3733 9.48 67.5333 9.21667 66.9 8.69C66.2733 8.17 65.96 7.45667 65.96 6.55C65.96 5.42333 66.3867 4.47667 67.24 3.71C67.6467 3.34333 68.16 3.05333 68.78 2.84C69.4067 2.62 70.0933 2.51 70.84 2.51ZM85.01 9.62C85.6767 9.06 86.1733 8.24667 86.5 7.18C86.82 6.11333 86.98 4.99333 86.98 3.82C86.98 2.64 86.86 1.57333 86.62 0.62C86.62 0.553333 86.6933 0.46 86.84 0.34C86.9933 0.22 87.12 0.16 87.22 0.16C87.88 0.286667 88.4433 0.563334 88.91 0.99C89.7967 1.79667 90.24 2.91667 90.24 4.35C90.24 5.43667 89.9667 6.41667 89.42 7.29C88.8133 8.27 87.98 8.94667 86.92 9.32C86.3333 9.52 85.6967 9.62 85.01 9.62ZM86.37 0C85.6967 0.56 85.1967 1.37 84.87 2.43C84.5433 3.49 84.38 4.61333 84.38 5.8C84.38 6.98667 84.5067 8.05 84.76 8.99C84.76 9.05 84.6833 9.14333 84.53 9.27C84.3833 9.39 84.2567 9.45 84.15 9.45C83.1433 9.25 82.3833 8.75 81.87 7.95C81.3767 7.17667 81.13 6.28667 81.13 5.28C81.13 4.18667 81.4033 3.2 81.95 2.32C82.5567 1.34667 83.39 0.676667 84.45 0.31C85.0367 0.103333 85.6767 0 86.37 0ZM94.31 9.48H91.44C91.9133 7.48667 92.2433 5.38 92.43 3.16C92.43 3.1 92.5 3.01667 92.64 2.91C92.7867 2.79667 92.9433 2.72667 93.11 2.7C93.27 2.67333 93.6667 2.63667 94.3 2.59C94.9267 2.53667 95.4133 2.51 95.76 2.51C95.3933 4.42333 95.11 6.59667 94.91 9.03C94.91 9.09 94.8367 9.18 94.69 9.3C94.5433 9.42 94.4167 9.48 94.31 9.48ZM96.78 9.55C96.5133 9.29667 96.38 8.96667 96.38 8.56C96.38 8.16 96.4833 7.39667 96.69 6.27C96.89 5.13667 96.99 4.44 96.99 4.18C96.99 3.92 96.9267 3.73 96.8 3.61C96.68 3.49667 96.52 3.44 96.32 3.44C96.36 3.16667 96.4367 2.96 96.55 2.82C96.7167 2.74 96.98 2.66667 97.34 2.6C97.7067 2.52667 98.0433 2.49 98.35 2.49C98.9567 2.49 99.4133 2.63 99.72 2.91C100.02 3.19 100.17 3.63 100.17 4.23C100.17 4.57 100.097 5.16333 99.95 6.01C99.8033 6.85667 99.73 7.37667 99.73 7.57C99.73 7.75667 99.74 7.9 99.76 8C99.7733 8.09333 99.7867 8.16667 99.8 8.22C99.8133 8.27333 99.8433 8.33667 99.89 8.41C99.9433 8.48333 99.9767 8.52667 99.99 8.54C100.003 8.55333 100.047 8.6 100.12 8.68C100.2 8.75333 100.247 8.79667 100.26 8.81C100.26 8.87667 100.193 8.98333 100.06 9.13C99.9267 9.27667 99.8067 9.37333 99.7 9.42C99.1133 9.50667 98.14 9.55 96.78 9.55ZM108.21 2.69C108.83 2.90333 109.3 3.2 109.62 3.58C109.94 3.96667 110.1 4.38 110.1 4.82C110.1 5.41333 109.843 5.92 109.33 6.34C108.817 6.75333 108.117 6.96 107.23 6.96C106.95 6.96 106.643 6.91333 106.31 6.82C106.79 6.52 107.117 6.13 107.29 5.65C107.437 5.23 107.51 4.73667 107.51 4.17C107.51 4.05667 107.497 3.72 107.47 3.16C107.463 3.1 107.557 3.00667 107.75 2.88C107.937 2.75333 108.09 2.69 108.21 2.69ZM107.1 2.58C106.533 2.96 106.087 3.46333 105.76 4.09C105.427 4.71 105.26 5.37667 105.26 6.09C105.26 6.80333 105.533 7.38333 106.08 7.83C106.627 8.27667 107.427 8.5 108.48 8.5C108.767 8.5 109.073 8.47333 109.4 8.42C109.187 8.76 108.773 9.04 108.16 9.26C107.553 9.48667 106.913 9.6 106.24 9.6C105.573 9.6 105.003 9.53333 104.53 9.4C104.05 9.26667 103.627 9.06667 103.26 8.8C102.887 8.54 102.593 8.19667 102.38 7.77C102.167 7.34333 102.06 6.87333 102.06 6.36C102.06 5.84667 102.14 5.38333 102.3 4.97C102.46 4.55667 102.677 4.2 102.95 3.9C103.23 3.60667 103.553 3.35333 103.92 3.14C104.653 2.72 105.5 2.51 106.46 2.51C106.7 2.51 106.913 2.53333 107.1 2.58Z" fill="black"/>
</svg>
