<svg width="103" height="11" viewBox="0 0 103 11" fill="none" xmlns="http://www.w3.org/2000/svg">
<path d="M6.99 10.49H0.5V0.13H6.91V1.09H1.63V9.53H6.99V10.49ZM6.23 5.65H1.22V4.69H6.23V5.65ZM9.74 10.49H8.68V2.16H9.82L14.76 9.18H14.52V2.16H15.59V10.49H14.44L9.51 3.47H9.74V10.49ZM21.56 10.6C20.72 10.6 19.9933 10.46 19.38 10.18C18.7667 9.9 18.2933 9.44667 17.96 8.82C17.6267 8.2 17.46 7.37333 17.46 6.34C17.46 5.35333 17.6267 4.54333 17.96 3.91C18.2933 3.27667 18.7733 2.81 19.4 2.51C20.02 2.20333 20.7733 2.05 21.66 2.05C21.9933 2.05 22.32 2.07 22.64 2.11C22.96 2.15 23.2667 2.21 23.56 2.29V3.23C23.26 3.15 22.9567 3.09333 22.65 3.06C22.35 3.02 22.04 3 21.72 3C21.0533 3 20.49 3.11 20.03 3.33C19.5767 3.54333 19.2333 3.89333 19 4.38C18.7667 4.86667 18.65 5.51667 18.65 6.33C18.65 7.16333 18.7667 7.82333 19 8.31C19.2333 8.79 19.5767 9.13333 20.03 9.34C20.4767 9.54667 21.0167 9.65 21.65 9.65C21.97 9.65 22.2833 9.62667 22.59 9.58C22.8967 9.52667 23.22 9.45 23.56 9.35V10.29C23.2733 10.3833 22.96 10.4567 22.62 10.51C22.28 10.57 21.9267 10.6 21.56 10.6ZM28.07 10.6C27.3167 10.6 26.6567 10.45 26.09 10.15C25.53 9.85 25.0933 9.38667 24.78 8.76C24.4733 8.13333 24.32 7.32333 24.32 6.33C24.32 5.33667 24.4767 4.52667 24.79 3.9C25.1033 3.26667 25.54 2.8 26.1 2.5C26.66 2.2 27.3167 2.05 28.07 2.05C28.8233 2.05 29.48 2.2 30.04 2.5C30.6067 2.8 31.0467 3.26667 31.36 3.9C31.6667 4.52667 31.82 5.33667 31.82 6.33C31.82 7.32333 31.6633 8.13333 31.35 8.76C31.0367 9.38667 30.6 9.85 30.04 10.15C29.4733 10.45 28.8167 10.6 28.07 10.6ZM28.07 9.68C28.59 9.68 29.0467 9.57 29.44 9.35C29.8267 9.13667 30.1267 8.78667 30.34 8.3C30.56 7.81333 30.67 7.16333 30.67 6.35C30.67 5.52333 30.56 4.86333 30.34 4.37C30.1267 3.87 29.8267 3.51333 29.44 3.3C29.0467 3.08 28.59 2.97 28.07 2.97C27.55 2.97 27.0933 3.07667 26.7 3.29C26.3133 3.51 26.0133 3.86333 25.8 4.35C25.5867 4.83667 25.48 5.48667 25.48 6.3C25.48 7.12667 25.5867 7.78667 25.8 8.28C26.0133 8.78 26.3133 9.13667 26.7 9.35C27.0867 9.57 27.5433 9.68 28.07 9.68ZM35.83 10.56C35.49 10.56 35.14 10.55 34.78 10.53C34.42 10.51 34.0533 10.48 33.68 10.44V2.31C33.9267 2.25667 34.1833 2.21333 34.45 2.18C34.7167 2.14 34.99 2.11333 35.27 2.1C35.5433 2.08 35.8067 2.07 36.06 2.07C37.5533 2.07 38.6767 2.41667 39.43 3.11C40.1833 3.80333 40.56 4.87667 40.56 6.33C40.56 7.31 40.3833 8.11 40.03 8.73C39.6767 9.35 39.15 9.81 38.45 10.11C37.75 10.41 36.8767 10.56 35.83 10.56ZM36.08 9.64C36.82 9.64 37.4367 9.52667 37.93 9.3C38.4233 9.07333 38.7933 8.71667 39.04 8.23C39.2867 7.74333 39.41 7.11 39.41 6.33C39.41 5.55 39.29 4.91333 39.05 4.42C38.8033 3.93333 38.4367 3.57333 37.95 3.34C37.47 3.10667 36.8633 2.99 36.13 2.99C35.91 2.99 35.6833 3 35.45 3.02C35.2167 3.04 35.0067 3.06667 34.82 3.1V9.57C35.0133 9.59667 35.2133 9.61667 35.42 9.63C35.6267 9.63667 35.8467 9.64 36.08 9.64ZM48.09 10.49H42.43V2.16H48.03V3.05H43.55V9.6H48.09V10.49ZM47.45 6.67H43.13V5.79H47.45V6.67ZM55.25 10.62C54.8367 10.62 54.41 10.5867 53.97 10.52C53.5233 10.4467 53.1 10.34 52.7 10.2V9.22C52.9867 9.32 53.2767 9.4 53.57 9.46C53.87 9.52667 54.1633 9.57667 54.45 9.61C54.73 9.64333 55 9.66 55.26 9.66C56.12 9.66 56.7567 9.49667 57.17 9.17C57.5767 8.84333 57.78 8.37 57.78 7.75C57.78 7.22333 57.6267 6.82333 57.32 6.55C57.0067 6.27 56.4767 6.03 55.73 5.83L55.17 5.69C54.29 5.46333 53.63 5.12333 53.19 4.67C52.75 4.21667 52.53 3.61667 52.53 2.87C52.53 1.97667 52.84 1.27333 53.46 0.76C54.08 0.253333 55 0 56.22 0C56.6267 0 57.0233 0.0266666 57.41 0.0799999C57.8033 0.133333 58.16 0.21 58.48 0.31V1.29C58.1267 1.17667 57.7633 1.09333 57.39 1.04C57.0167 0.986667 56.6367 0.96 56.25 0.96C55.6567 0.96 55.1733 1.03333 54.8 1.18C54.42 1.32667 54.14 1.53667 53.96 1.81C53.7733 2.08333 53.68 2.41333 53.68 2.8C53.68 3.31333 53.8233 3.71 54.11 3.99C54.3967 4.27 54.89 4.50333 55.59 4.69L56.15 4.83C56.79 4.99 57.3133 5.19667 57.72 5.45C58.1333 5.70333 58.44 6.01333 58.64 6.38C58.84 6.74667 58.94 7.18 58.94 7.68C58.94 8.30667 58.7967 8.84 58.51 9.28C58.2167 9.71333 57.7967 10.0467 57.25 10.28C56.6967 10.5067 56.03 10.62 55.25 10.62ZM60.81 10.49H59.7L62.81 2.16H64.42L67.55 10.49H66.4L63.52 2.65H63.69L60.81 10.49ZM65.82 7.89H61.4L61.66 7H65.57L65.82 7.89ZM70.01 10.49H68.96V2.16H70.1L75.03 9.18H74.8V2.16H75.87V10.49H74.72L69.78 3.47H70.01V10.49ZM79.97 10.6C79.6033 10.6 79.2267 10.57 78.84 10.51C78.4467 10.4567 78.0833 10.3767 77.75 10.27V9.34C78.0033 9.41333 78.2567 9.47333 78.51 9.52C78.77 9.57333 79.0233 9.61333 79.27 9.64C79.5233 9.66667 79.7567 9.68 79.97 9.68C80.4567 9.68 80.8567 9.62333 81.17 9.51C81.4767 9.40333 81.7033 9.24333 81.85 9.03C81.9967 8.81667 82.07 8.56 82.07 8.26C82.07 8 82.02 7.78333 81.92 7.61C81.82 7.43 81.65 7.27667 81.41 7.15C81.17 7.02333 80.8367 6.91 80.41 6.81L79.97 6.72C79.13 6.53333 78.5233 6.25667 78.15 5.89C77.7767 5.52333 77.59 5.03 77.59 4.41C77.59 3.94333 77.7067 3.53333 77.94 3.18C78.1733 2.82667 78.5333 2.55 79.02 2.35C79.5 2.15 80.1133 2.05 80.86 2.05C81.1933 2.05 81.53 2.07333 81.87 2.12C82.21 2.16 82.5167 2.21667 82.79 2.29V3.23C82.4767 3.14333 82.16 3.07667 81.84 3.03C81.52 2.98333 81.1967 2.96 80.87 2.96C80.3567 2.96 79.94 3.01667 79.62 3.13C79.3067 3.24333 79.0767 3.40333 78.93 3.61C78.7833 3.81667 78.71 4.06333 78.71 4.35C78.71 4.73667 78.8233 5.03667 79.05 5.25C79.2767 5.46333 79.7 5.64333 80.32 5.79L80.77 5.89C81.3433 6.01667 81.8067 6.18 82.16 6.38C82.5133 6.58 82.7733 6.83 82.94 7.13C83.1067 7.43 83.19 7.78333 83.19 8.19C83.19 8.68333 83.0667 9.10667 82.82 9.46C82.58 9.82 82.22 10.1 81.74 10.3C81.26 10.5 80.67 10.6 79.97 10.6ZM90.37 10.62C89.9567 10.62 89.5267 10.5867 89.08 10.52C88.64 10.4467 88.2167 10.34 87.81 10.2V9.22C88.1033 9.32 88.3967 9.4 88.69 9.46C88.99 9.52667 89.28 9.57667 89.56 9.61C89.8467 9.64333 90.12 9.66 90.38 9.66C91.24 9.66 91.8767 9.49667 92.29 9.17C92.6967 8.84333 92.9 8.37 92.9 7.75C92.9 7.22333 92.7467 6.82333 92.44 6.55C92.1267 6.27 91.5967 6.03 90.85 5.83L90.29 5.69C89.41 5.46333 88.75 5.12333 88.31 4.67C87.87 4.21667 87.65 3.61667 87.65 2.87C87.65 1.97667 87.96 1.27333 88.58 0.76C89.2 0.253333 90.12 0 91.34 0C91.74 0 92.1367 0.0266666 92.53 0.0799999C92.9233 0.133333 93.28 0.21 93.6 0.31V1.29C93.2467 1.17667 92.8833 1.09333 92.51 1.04C92.13 0.986667 91.75 0.96 91.37 0.96C90.7767 0.96 90.29 1.03333 89.91 1.18C89.5367 1.32667 89.2567 1.53667 89.07 1.81C88.89 2.08333 88.8 2.41333 88.8 2.8C88.8 3.31333 88.9433 3.71 89.23 3.99C89.5167 4.27 90.01 4.50333 90.71 4.69L91.27 4.83C91.9033 4.99 92.4267 5.19667 92.84 5.45C93.2533 5.70333 93.56 6.01333 93.76 6.38C93.96 6.74667 94.06 7.18 94.06 7.68C94.06 8.30667 93.9133 8.84 93.62 9.28C93.3333 9.71333 92.9133 10.0467 92.36 10.28C91.8133 10.5067 91.15 10.62 90.37 10.62ZM100 10.62C99.2867 10.62 98.6433 10.5267 98.07 10.34C97.49 10.1533 96.9967 9.85 96.59 9.43C96.1767 9.01667 95.86 8.47 95.64 7.79C95.42 7.11667 95.31 6.29667 95.31 5.33C95.31 4.07667 95.5033 3.06 95.89 2.28C96.27 1.49333 96.8167 0.916666 97.53 0.55C98.25 0.183333 99.11 0 100.11 0C100.517 0 100.9 0.023333 101.26 0.0699997C101.627 0.123333 101.99 0.2 102.35 0.3V1.29C101.99 1.17667 101.627 1.09667 101.26 1.05C100.9 1.00333 100.533 0.98 100.16 0.98C99.3733 0.98 98.7067 1.12 98.16 1.4C97.62 1.68 97.21 2.13667 96.93 2.77C96.65 3.39667 96.51 4.24 96.51 5.3C96.51 6.39333 96.6533 7.25667 96.94 7.89C97.22 8.52333 97.6267 8.97333 98.16 9.24C98.7 9.50667 99.3433 9.64 100.09 9.64C100.47 9.64 100.84 9.60667 101.2 9.54C101.56 9.48 101.943 9.38333 102.35 9.25V10.24C102.01 10.36 101.64 10.4533 101.24 10.52C100.847 10.5867 100.433 10.62 100 10.62Z" fill="black"/>
</svg>
