<svg width="162.67" height="17.5" viewBox="0 0 162.67 17.5" xmlns="http://www.w3.org/2000/svg"><path transform="translate(0 14.42) scale(.007 -.007)" d="M364 138H1236V0H194V1480H1226V1342H364V828H1124V691H364Z"/><path transform="translate(9.366 14.42) scale(.007 -.007)" d="m176 1085h140l12-124h11q79 68 181 104.5t213 36.5q191 0 298.5-103t107.5-322v-677h-168v672q0 150-69.5 216.5t-203.5 66.5q-95 0-190-36t-164-110v-809h-168z"/><path transform="translate(18.459 14.42) scale(.007 -.007)" d="m112 542q0 279 148 419.5t432 140.5q146 0 265-35v-139q-65 17-125 25.5t-127 8.5q-213 0-316.5-100.5t-103.5-316.5q0-219 97-322t289-103q64 0 132 12t154 39v-139q-142-51-303-51-263 0-402.5 140.5t-139.5 420.5z"/><path transform="translate(25.543 14.42) scale(.007 -.007)" d="m112 543q0 185 64 310t181 187 278 62q247 0 384.5-139.5t137.5-419.5q0-185-64.5-311t-182-188.5-275.5-62.5q-160 0-277 61t-181.5 187-64.5 314zm876-2q0 222-91.5 322.5t-261.5 100.5-261.5-100-91.5-320q0-426 353-426t353 423z"/><path transform="translate(34.433 14.42) scale(.007 -.007)" d="m112 520q0 287 154 435t449 148q114 0 235-22v535h168v-1616h-142l-11 125h-11q-63-68-154-105.5t-199-37.5q-145 0-254.5 57.5t-172 177.5-62.5 303zm838-252v672q-106 27-230 27-222 0-330-106t-108-327q0-411 354-411 92 0 173 35t141 110z"/><path transform="translate(43.491 14.42) scale(.007 -.007)" d="m1079 489h-797q7-198 112-287.5t317-89.5q136 0 310 48v-131q-172-48-332-48-285 0-431 137.5t-146 423.5q0 181 58.5 306.5t169 189.5 265.5 64q229 0 351.5-145t122.5-420zm-798 110h638q-5 197-84 291t-232 94q-154 0-235.5-94.5t-86.5-290.5z"/><path transform="translate(55.594 14.42) scale(.007 -.007)" d="m116 47v144q103-34 214.5-51.5t210.5-17.5q406 0 406 275 0 76-33 125.5t-104.5 82-194.5 56.5l-90 17q-225 44-329 142.5t-104 262.5q0 130 65 223t194.5 143 319.5 50q203 0 379-52v-144q-180 55-378 55-207 0-307.5-69t-100.5-199q0-75 29-125t95-83 179-56l90-17q165-32 266.5-86t148-132 46.5-186q0-134-68-229.5t-198.5-145-313.5-49.5q-107 0-215 17t-207 49z"/><path transform="translate(64.071 14.42) scale(.007 -.007)" d="m1006 697v-697h-142l-12 123h-11q-61-65-157.5-103t-202.5-38q-116 0-198.5 36.5t-125 103.5-42.5 157q0 141 102.5 218.5t328.5 99.5l294 32v76q0 103-35 160.5t-103.5 80.5-179.5 23q-77 0-164-13t-168-40v132q76 26 170 40t182 14q158 0 259.5-38t153-127 51.5-240zm-166-458v281l-284-31q-145-17-207.5-64t-62.5-133q0-89 58-137.5t175-48.5q90 0 173 33.5t148 99.5z"/><path transform="translate(72.233 14.42) scale(.007 -.007)" d="m176 1085h140l12-124h11q79 68 181 104.5t213 36.5q191 0 298.5-103t107.5-322v-677h-168v672q0 150-69.5 216.5t-203.5 66.5q-95 0-190-36t-164-110v-809h-168z"/><path transform="translate(81.326 14.42) scale(.007 -.007)" d="m132 28v128q91-26 177-37.5t179-11.5q162 0 234 46.5t72 136.5q0 48-17 80t-58 53.5-113 34.5l-184 30q-163 27-235.5 100t-72.5 196q0 146 119 232t362 86q159 0 301-40v-128q-144 41-300 41-172 0-245-49t-73-136q0-66 40.5-108t141.5-60l184-30q164-27 239-95.5t75-195.5q0-151-119-235.5t-353-84.5q-200 0-354 47z"/><path transform="translate(92.533 14.42) scale(.007 -.007)" d="M364 138H1236V0H194V1480H1226V1342H364V828H1124V691H364Z"/><path transform="translate(101.9 14.42) scale(.007 -.007)" d="M682 550 1136 0H938L580 434L222 0H28L480 547L38 1085H235L584 662L932 1085H1123Z"/><path transform="translate(110.03 14.42) scale(.007 -.007)" d="m176 1085h142l12-127h10q63 68 154.5 106t199.5 38q143 0 252-55.5t172.5-176 63.5-306.5q0-288-153-435.5t-449-147.5q-104 0-236 20v-441h-168zm836-535q0 410-354 410-92 0-173-35t-141-110v-671q47-13 107.5-20t122.5-7q223 0 330.5 106t107.5 327z"/><path transform="translate(119.09 14.42) scale(.007 -.007)" d="m1006 697v-697h-142l-12 123h-11q-61-65-157.5-103t-202.5-38q-116 0-198.5 36.5t-125 103.5-42.5 157q0 141 102.5 218.5t328.5 99.5l294 32v76q0 103-35 160.5t-103.5 80.5-179.5 23q-77 0-164-13t-168-40v132q76 26 170 40t182 14q158 0 259.5-38t153-127 51.5-240zm-166-458v281l-284-31q-145-17-207.5-64t-62.5-133q0-89 58-137.5t175-48.5q90 0 173 33.5t148 99.5z"/><path transform="translate(127.25 14.42) scale(.007 -.007)" d="m176 1085h140l12-124h11q79 68 181 104.5t213 36.5q191 0 298.5-103t107.5-322v-677h-168v672q0 150-69.5 216.5t-203.5 66.5q-95 0-190-36t-164-110v-809h-168z"/><path transform="translate(136.35 14.42) scale(.007 -.007)" d="m112 520q0 287 154 435t449 148q114 0 235-22v535h168v-1616h-142l-11 125h-11q-63-68-154-105.5t-199-37.5q-145 0-254.5 57.5t-172 177.5-62.5 303zm838-252v672q-106 27-230 27-222 0-330-106t-108-327q0-411 354-411 92 0 173 35t141 110z"/><path transform="translate(145.4 14.42) scale(.007 -.007)" d="m1079 489h-797q7-198 112-287.5t317-89.5q136 0 310 48v-131q-172-48-332-48-285 0-431 137.5t-146 423.5q0 181 58.5 306.5t169 189.5 265.5 64q229 0 351.5-145t122.5-420zm-798 110h638q-5 197-84 291t-232 94q-154 0-235.5-94.5t-86.5-290.5z"/><path transform="translate(153.61 14.42) scale(.007 -.007)" d="m112 520q0 287 154 435t449 148q114 0 235-22v535h168v-1616h-142l-11 125h-11q-63-68-154-105.5t-199-37.5q-145 0-254.5 57.5t-172 177.5-62.5 303zm838-252v672q-106 27-230 27-222 0-330-106t-108-327q0-411 354-411 92 0 173 35t141 110z"/></svg>