<svg width="71.61" height="20.888" viewBox="0 0 71.61 20.888" xmlns="http://www.w3.org/2000/svg"><path transform="translate(0 16.142) scale(.014 -.014)" d="M29 691H589V400H373V360H589V297H373V257H598V0H29Z"/><path transform="translate(8.764 16.142) scale(.014 -.014)" d="m327 0h-298v591h251l10-73q2 3 5 8t17 17.5 32 22.5q50 25 126 25v-318l-143 14z"/><path transform="translate(15.456 16.142) scale(.014 -.014)" d="m177 792q150 0 150-121 0-69-37-99t-113-30-112 30-36 96 36.5 95 111.5 29zm-148-792v519h298v-519z"/><path transform="translate(20.44 16.142) scale(.014 -.014)" d="m565 20q-65-30-229-30t-235.5 75-71.5 233 80 230.5 240 72.5q72 0 126-10t72-20l18-10v-264h-205v-44q18-3 61-3 72 0 129 6l15 1z"/><path transform="translate(28.742 16.142) scale(.014 -.014)" d="m616 378-5-123 25 1v-227q-18-15-62-27t-83-12-62 7-34 15.5-17 19.5q-9 16-9 27-55-69-175-69-165 0-165 140 0 84 64 119.5t224 42.5q0 35-77 35-52 0-99.5-13t-68.5-26l-22-13v263q9 7 27 17.5t85 28 147 17.5q160 0 233.5-54t73.5-169zm-283-159v40l-57-16v-24q0-13 8.5-21t21-8 20 8 7.5 21z"/><path transform="translate(41.958 16.142) scale(.014 -.014)" d="m359 701h83q180 0 262-85t82-267-82.5-270.5-261.5-88.5h-83q-179 0-262 88.5t-83 270.5 82.5 267 262.5 85zm13-329v-116q0-13 7.5-21t20-8 21 8 8.5 21v116q0 12-8.5 20t-21 8-20-8-7.5-20z"/><path transform="translate(53.172 16.142) scale(.014 -.014)" d="m312 317v-317h-283v591h251l10-73q4 11 18 27t30 27q44 29 117 29 98 0 147.5-54t49.5-157v-390h-283v317q0 12-8.5 20.5t-20.5 8.5-20-8.5-8-20.5z"/><path transform="translate(62.706 16.142) scale(.014 -.014)" d="m608 327-5-77h-276v-34q25-6 73-6 102 0 165 9l21 3v-188q-8-5-25.5-12.5t-83.5-19.5-147-12q-160 0-230.5 76t-70.5 228.5 69.5 229.5 227.5 77 220-64 62-210zm-296 12v-39h57v39q0 13-8.5 21t-21 8-20-8-7.5-21z"/></svg>