<svg width="49.112" height="17.836" viewBox="0 0 49.112 17.836" xmlns="http://www.w3.org/2000/svg"><path transform="translate(0 13.776) scale(.014 -.014)" d="m309 383q43 0 55 39 4 15 10 51 4 4 18 4t20-4q-8-61-8-116.5t8-116.5q-4-4-19.5-4t-18.5 4q-6 34-10.5 48.5t-17.5 26-37 11.5h-111l6-195q2-42 15.5-58.5t50.5-16.5h135q46 0 77.5 31.5t61.5 98.5q2 2 15.5 2t22.5-9l-52-189q-127 13-265.5 13t-221.5-3q-3 3-3 17.5t6 20.5q36 0 51 12.5t16 39.5l9 523q0 27-15.5 39.5t-51.5 12.5q-7 5-7 20.5t2 17.5q84-3 208-3t254 13l14-176q-4-4-20-4t-19 4q-9 63-33 84.5t-77 21.5h-188l8-260z"/><path transform="translate(8.554 13.776) scale(.014 -.014)" d="m236 490q54 0 93-25.5t39-63.5q0-23-13.5-37t-34-14-34 9-13.5 23.5 4 23.5 4 15q0 22-46 22t-72.5-20-26.5-48 26-51 63-42 74-39.5 63-51.5 26-69q0-64-53.5-98t-124.5-34-119.5 33-48.5 97q0 22 13 35.5t36 13.5q49 0 49-34 0-16-12-30t-12-19q0-18 28.5-31t62.5-13 68 17.5 34 55.5q0 39-88 79-37 16-74 34.5t-62.5 50-25.5 71.5q0 66 48.5 103t128.5 37z"/><path transform="translate(14.532 13.776) scale(.014 -.014)" d="m329 79q4-4 10-15t6-15-1-5q-58-54-135-54-121 0-121 165 0 5 5 263h-63q-6 6-6 19.5t3 16.5q52 12 73.5 38.5t30.5 73.5q4 4 17 4t19-4l2-96h152q5-14 5-29t-8-23h-149l4-244q1-65 14.5-93.5t53-28.5 88.5 27z"/><path transform="translate(19.544 13.776) scale(.014 -.014)" d="m432 59q-69-69-172.5-69t-159.5 70.5-56 179 55.5 179.5 153 71 144-68.5 46.5-176.5h-311q0-81 35.5-136.5t101.5-55.5q90 0 152 45 4-3 10-14t6-15.5-5-9.5zm-299 238 141-1q76 0 81 6 1 5 1 17 0 47-27 85t-77.5 38-82-39.5-36.5-105.5z"/><path transform="translate(26.334 13.776) scale(.014 -.014)" d="m415 235q0 207-137 207-42 0-83-34t-40-74l6-211q18-33 51-56.5t65-23.5q67 0 102.5 56.5t35.5 135.5zm-305-241q-4-4-18.5-4t-17.5 4l5 643q0 51-83 51-3 3-3 16.5t6 19.5q38 3 62.5 9.5t44.5 26.5q4 4 17 4t19-4l10-329q59 59 148 59t145.5-74.5 56.5-181-53.5-175.5-149.5-69q-44 0-85.5 23t-68.5 58z"/><path transform="translate(33.978 13.776) scale(.014 -.014)" d="m240 266 69 14v25q0 70-23.5 101.5t-78.5 31.5q-76 0-76-31 0-6 12-19.5t12-29-13.5-25-35.5-9.5-35.5 13-13.5 36q0 51 49.5 84t107.5 33q94 0 134-39.5t40-105.5q0-2-4-237-1-64 43-64 18 0 41 10 7-12 7-22.5t-2-12.5q-10-10-35-19.5t-53-9.5q-43 0-72 54-63-54-143-54-55 0-93 35.5t-38 90.5 46.5 91.5 154.5 58.5zm72-180-2 142-52-13q-77-19-102.5-38.5t-25.5-53 18-54.5 44-21 60.5 11.5 59.5 26.5z"/><path transform="translate(40.698 13.776) scale(.014 -.014)" d="m187 403q87 87 159.5 87t114-43 43.5-113l7-247q1-28 18-39.5t57-11.5q5-5 5-19.5t-2-16.5l-119 6-122-6q-3 3-3 16.5t6 19.5q38 0 54.5 11.5t17.5 39.5l4 229q1 50-27 81t-78 31q-36 0-75-30-13-10-31.5-27t-22.5-20l8-264q1-28 17-39.5t54-11.5q5-5 5-19.5t-2-16.5l-115 6-127-6q-3 3-3 16.5t6 19.5q40 0 58.5 11.5t18.5 39.5l3 280q0 28-18.5 39.5t-59.5 11.5q-3 3-3 16.5t6 19.5q4 0 19 2t19 2.5 15.5 3 17.5 6.5q20 11 27.5 18.5t20.5 7.5 19-4z"/></svg>