<svg width="42.252" height="18.9" viewBox="0 0 42.252 18.9" xmlns="http://www.w3.org/2000/svg"><path transform="translate(0 14) scale(.014 -.014)" d="m25 524q0 54 27.5 98t74.5 70 106 26q33 0 73.5-11t76-40.5 53.5-83.5v117h160v-249h-160q0 22-13 45.5t-36.5 40.5-55.5 17q-27 0-45-13t-18-33q0-13 7.5-23.5t16.5-10.5q0-46-36-71t-85-25q-65 0-105.5 41.5t-40.5 104.5zm0-362q0 105 135 166.5t391 61.5v-84q-106 0-169.5-13.5t-91.5-35.5-28-48q0-19 18.5-32t49.5-13q21 0 44.5 8t41.5 27.5 20 53.5h192q0-95-38.5-155t-109-88-167.5-28q-96 0-160 24t-96 65-32 91z"/><path transform="translate(9.072 14) scale(.014 -.014)" d="m474 536q0 10-7 18t-16 8q-7 0-15-6-13 20-13 47t14 53.5 42.5 44 69.5 17.5q60 0 99-37t39-92q0-49-39-95.5t-136-103.5l-63 109q25 19 25 37zm-39-536-280 487q-11 20-31.5 31.5t-43.5 11.5h-35v170h242l280-487q11-19 32-31t43-12h27v-170zm-197 177q0-11 7-19.5t17-8.5q9 0 16 7 16-26 16-56 0-26-14-53.5t-43.5-46-75.5-18.5q-45 0-79 18.5t-53 49.5-19 70q0 53 42 102.5t145 110.5l67-116q-26-20-26-40z"/><path transform="translate(18.83 14) scale(.014 -.014)" d="m342 170v-170h-312v170h6q23 0 36.5 14t13.5 36v260q0 23-13.5 36.5t-36.5 13.5h-6v170h312v-170h-6q-22 0-36-13.5t-14-36.5v-260q0-22 14-36t36-14z"/><path transform="translate(24.038 14) scale(.014 -.014)" d="m30 112q0 36 16.5 66.5t47.5 48.5q6-20 22-20 21 0 21 29v244q0 23-13.5 36.5t-36.5 13.5h-6v170h312v-170h-6q-22 0-36-13.5t-14-36.5v-308q0-94-41-142t-116-48q-68 0-109 36.5t-41 93.5zm352-112v170h66q23 0 36.5 14t13.5 36v65h140v-285z"/><path transform="translate(33.18 14) scale(.014 -.014)" d="m25 524q0 54 27.5 98t74.5 70 106 26q33 0 73.5-11t76-40.5 53.5-83.5v117h160v-249h-160q0 22-13 45.5t-36.5 40.5-55.5 17q-27 0-45-13t-18-33q0-13 7.5-23.5t16.5-10.5q0-46-36-71t-85-25q-65 0-105.5 41.5t-40.5 104.5zm0-362q0 105 135 166.5t391 61.5v-84q-106 0-169.5-13.5t-91.5-35.5-28-48q0-19 18.5-32t49.5-13q21 0 44.5 8t41.5 27.5 20 53.5h192q0-95-38.5-155t-109-88-167.5-28q-96 0-160 24t-96 65-32 91z"/></svg>