<svg width="27" height="12" viewBox="0 0 27 12" fill="none" xmlns="http://www.w3.org/2000/svg">
<path d="M3.19 7.52C2.67 7.52 2.16333 7.52 1.67 7.52C1.17 7.51333 0.813333 7.51 0.6 7.51C0.533333 7.51 0.5 7.47333 0.5 7.4C0.5 7.32 0.533333 7.18667 0.6 7C0.66 6.81333 0.773333 6.54 0.94 6.18C1.12667 5.74 1.31667 5.29333 1.51 4.84C1.71 4.38667 1.90333 3.93333 2.09 3.48C1.95 3.48667 1.81 3.49667 1.67 3.51C1.53667 3.52333 1.40333 3.53 1.27 3.53H1.26C1.26 3.51 1.29667 3.47333 1.37 3.42C1.44333 3.36667 1.52 3.34 1.6 3.34H2.13C2.31667 2.87333 2.49667 2.40667 2.67 1.94C2.85 1.47333 3.02 1.01 3.18 0.549999C3.20667 0.449999 3.22 0.369999 3.22 0.309999C3.22 0.229999 3.19333 0.176666 3.14 0.15C3.08 0.13 3 0.12 2.9 0.12C2.79333 0.12 2.68 0.12 2.56 0.12C2.44 0.126667 2.33333 0.129999 2.24 0.129999C2.22 0.129999 2.21 0.119999 2.21 0.0999994C2.21 0.0333328 2.24 0 2.3 0C2.44 0.0133333 2.64 0.0233331 2.9 0.0299997C3.16667 0.0433331 3.38667 0.0499992 3.56 0.0499992C3.75333 0.0499992 3.94333 0.0499992 4.13 0.0499992C4.31667 0.0499992 4.50667 0.0433331 4.7 0.0299997C5.08667 0.0233331 5.46 0.0166659 5.82 0.00999928C6.18667 0.00333261 6.55667 0 6.93 0C6.97667 0 6.99 0.0166659 6.97 0.0499992C6.95 0.0833326 6.94 0.106667 6.94 0.12C6.84667 0.333333 6.77 0.549999 6.71 0.77C6.64333 0.996666 6.57333 1.21667 6.5 1.43C6.48667 1.45667 6.45667 1.47 6.41 1.47C6.41 1.47 6.42667 1.41667 6.46 1.31C6.49333 1.19667 6.53 1.07333 6.57 0.94C6.60333 0.8 6.62667 0.696666 6.64 0.629999C6.67333 0.443332 6.59667 0.316667 6.41 0.25C6.21667 0.176667 5.92667 0.136666 5.54 0.129999C5.46667 0.129999 5.39 0.126667 5.31 0.12C5.23 0.12 5.15 0.12 5.07 0.12C4.91 0.12 4.75 0.123332 4.59 0.129999C4.42333 0.136666 4.26667 0.149999 4.12 0.169999C3.94667 0.189999 3.82333 0.243333 3.75 0.33C3.67667 0.41 3.61333 0.506667 3.56 0.62C3.43333 0.893333 3.26 1.27333 3.04 1.76C2.81333 2.25333 2.58 2.78 2.34 3.34C2.43333 3.34 2.52667 3.34 2.62 3.34C2.71333 3.34 2.80667 3.33333 2.9 3.32C3.27333 3.31333 3.64333 3.30667 4.01 3.3C4.37667 3.29333 4.74667 3.29 5.12 3.29C5.16667 3.29 5.18333 3.30667 5.17 3.34C5.15 3.37333 5.14 3.39667 5.14 3.41C5.04667 3.62333 4.98 3.79667 4.94 3.93C4.90667 4.06333 4.87 4.18667 4.83 4.3C4.82333 4.32 4.79667 4.33333 4.75 4.34C4.70333 4.35333 4.68333 4.35 4.69 4.33C4.71667 4.28333 4.74667 4.22 4.78 4.14C4.81333 4.06 4.83 3.96 4.83 3.84C4.83 3.70667 4.77333 3.61 4.66 3.55C4.54667 3.48333 4.32667 3.45 4 3.45H3.15C3.00333 3.45 2.86 3.45 2.72 3.45C2.58 3.45 2.44 3.45333 2.3 3.46C2.06667 4 1.84667 4.54 1.64 5.08C1.43333 5.61333 1.26333 6.07667 1.13 6.47C1.10333 6.56333 1.08 6.64667 1.06 6.72C1.04667 6.8 1.04 6.87 1.04 6.93C1.04 7.05667 1.08667 7.15 1.18 7.21C1.27333 7.27667 1.43667 7.32 1.67 7.34C1.79 7.34667 1.96333 7.35667 2.19 7.37C2.41667 7.37667 2.66333 7.38 2.93 7.38C3.10333 7.38 3.27667 7.37667 3.45 7.37C3.62333 7.37 3.78333 7.36333 3.93 7.35C4.23 7.32333 4.51 7.28667 4.77 7.24C5.02333 7.18667 5.22 7.11333 5.36 7.02C5.4 6.99333 5.47333 6.88667 5.58 6.7C5.68667 6.52 5.76 6.31333 5.8 6.08C5.80667 6.06 5.83 6.05667 5.87 6.07C5.91667 6.07667 5.93333 6.09333 5.92 6.12C5.87333 6.27333 5.81667 6.45 5.75 6.65C5.67667 6.85667 5.60667 7.04 5.54 7.2C5.48 7.36 5.42 7.44333 5.36 7.45C5.2 7.47667 4.91667 7.49667 4.51 7.51C4.11 7.51667 3.67 7.52 3.19 7.52ZM8.26 7.62C8.19333 7.62 8.14667 7.57667 8.12 7.49C8.08 7.35 8.04667 7.06667 8.02 6.64C8.01333 6.44667 8.00333 6.25 7.99 6.05C7.97667 5.85667 7.96333 5.66667 7.95 5.48C7.74333 5.7 7.51667 5.95 7.27 6.23C7.02333 6.50333 6.8 6.76 6.6 7C6.4 7.24667 6.26667 7.43333 6.2 7.56C6.19333 7.59333 6.17 7.61 6.13 7.61C6.05667 7.61 6.01 7.55667 5.99 7.45C5.98333 7.42333 5.97667 7.39667 5.97 7.37C5.96333 7.34333 5.96 7.31333 5.96 7.28C5.96 7.22 5.98333 7.16 6.03 7.1C6.11 7.02667 6.26 6.89333 6.48 6.7C6.69333 6.51333 6.93667 6.29667 7.21 6.05C7.48333 5.81 7.73 5.57667 7.95 5.35C7.94333 5.09667 7.94 4.84667 7.94 4.6C7.94 4.34667 7.94 4.09333 7.94 3.84C7.94 3.70667 7.93 3.58667 7.91 3.48C7.89 3.36667 7.85333 3.27333 7.8 3.2C7.70667 3.06 7.57667 2.99 7.41 2.99H6.83C6.80333 2.99 6.79333 2.98 6.8 2.96C6.81333 2.94 6.82333 2.93 6.83 2.93C6.90333 2.93 7.03667 2.93 7.23 2.93C7.42333 2.93 7.60667 2.92667 7.78 2.92C7.96 2.90667 8.07333 2.89 8.12 2.87C8.12667 2.87 8.13333 2.87 8.14 2.87C8.14667 2.86333 8.15333 2.86 8.16 2.86C8.23333 2.86 8.25333 2.89667 8.22 2.97C8.16 3.12333 8.12333 3.41333 8.11 3.84C8.09667 3.95333 8.09 4.06667 8.09 4.18C8.09 4.28667 8.09 4.39667 8.09 4.51C8.09 4.63 8.09 4.74667 8.09 4.86C8.09 4.97333 8.09667 5.08667 8.11 5.2C8.35 4.92 8.58667 4.63333 8.82 4.34C9.05333 4.05333 9.27333 3.76667 9.48 3.48C9.57333 3.34667 9.65333 3.22 9.72 3.1C9.78 2.98 9.82667 2.85667 9.86 2.73C9.87333 2.65 9.9 2.61 9.94 2.61C9.98 2.61 10.0167 2.63 10.05 2.67C10.0767 2.71 10.0967 2.74 10.11 2.76C10.13 2.82 10.14 2.86333 10.14 2.89C10.14 2.94333 10.1267 2.99333 10.1 3.04C10.08 3.08667 10.06 3.13 10.04 3.17C10.0133 3.23667 9.95333 3.32 9.86 3.42C9.76667 3.52 9.65333 3.63667 9.52 3.77C9.26667 4.02333 9.02333 4.27667 8.79 4.53C8.55667 4.77667 8.33 5.03333 8.11 5.3C8.12333 5.73333 8.16333 6.14667 8.23 6.54C8.25 6.65333 8.27333 6.75667 8.3 6.85C8.32 6.94333 8.34333 7.02333 8.37 7.09C8.43 7.25 8.53333 7.33 8.68 7.33C8.72667 7.33 8.77333 7.32333 8.82 7.31C8.86667 7.30333 8.91333 7.28667 8.96 7.26L9.39 7H9.41C9.41 7 9.41333 7 9.42 7C9.42 7 9.42 7.00667 9.42 7.02C9.42 7.06667 9.39333 7.1 9.34 7.12C9.22 7.19333 9.05667 7.28 8.85 7.38C8.64333 7.48667 8.47333 7.56333 8.34 7.61C8.32667 7.61667 8.3 7.62 8.26 7.62ZM6.51 11.46C6.13 11.46 5.85 11.3933 5.67 11.26C5.49 11.1267 5.37667 10.98 5.33 10.82C5.28333 10.6533 5.26 10.52 5.26 10.42C5.26 10.1867 5.29667 9.98 5.37 9.8C5.43667 9.61333 5.51333 9.44333 5.6 9.29C5.62667 9.22333 5.65333 9.2 5.68 9.22C5.7 9.24667 5.7 9.27333 5.68 9.3C5.60667 9.37333 5.54667 9.48667 5.5 9.64C5.45333 9.79333 5.43 9.92333 5.43 10.03C5.43 10.8567 5.83333 11.27 6.64 11.27C7.04 11.27 7.39667 11.1533 7.71 10.92C8.03 10.6867 8.31 10.39 8.55 10.03C8.79667 9.67667 9.01 9.30667 9.19 8.92C9.37 8.54 9.52667 8.20333 9.66 7.91L9.81 7.56H9.21C9.18333 7.56 9.18 7.55 9.2 7.53C9.22 7.50333 9.23667 7.49 9.25 7.49C9.39 7.49 9.49333 7.45667 9.56 7.39C9.62 7.31667 9.71 7.28 9.83 7.28C9.87667 7.28 9.91333 7.28667 9.94 7.3C10.0733 6.99333 10.22 6.64 10.38 6.24C10.5467 5.84667 10.7033 5.45 10.85 5.05C10.9967 4.65667 11.1233 4.29667 11.23 3.97C11.33 3.64333 11.38 3.39333 11.38 3.22C11.38 3.12 11.3567 3.05667 11.31 3.03C11.2633 3.00333 11.1933 2.99 11.1 2.99H10.53C10.5033 2.99 10.4933 2.98 10.5 2.96C10.5067 2.94 10.52 2.93 10.54 2.93C10.7267 2.93 10.9367 2.92667 11.17 2.92C11.4033 2.92 11.58 2.91333 11.7 2.9C11.78 2.89333 11.83 2.88333 11.85 2.87C11.8767 2.86333 11.8933 2.86 11.9 2.86C11.9733 2.86 11.9933 2.89667 11.96 2.97C11.7533 3.40333 11.56 3.84333 11.38 4.29C11.2067 4.74333 11.03 5.19667 10.85 5.65C11.0633 5.32333 11.3033 4.97667 11.57 4.61C11.8367 4.24333 12.1067 3.91333 12.38 3.62C12.66 3.32 12.9067 3.10333 13.12 2.97C13.24 2.89667 13.35 2.86 13.45 2.86C13.65 2.86 13.75 3.01 13.75 3.31C13.75 3.64333 13.6833 4.00333 13.55 4.39C13.41 4.77667 13.2333 5.15333 13.02 5.52C12.8067 5.88667 12.58 6.21 12.34 6.49C12.1 6.77667 11.88 6.99 11.68 7.13C11.4467 7.27667 11.19 7.38667 10.91 7.46C10.6367 7.52667 10.36 7.56 10.08 7.56C9.99333 7.74667 9.91 7.93333 9.83 8.12C9.74333 8.30667 9.65333 8.49333 9.56 8.68C9.42 8.96 9.25 9.26333 9.05 9.59C8.85 9.91 8.62333 10.21 8.37 10.49C8.11 10.77 7.82333 11 7.51 11.18C7.19667 11.3667 6.86333 11.46 6.51 11.46ZM10.47 7.41C10.6567 7.41 10.85 7.38333 11.05 7.33C11.25 7.27 11.4033 7.20667 11.51 7.14C11.89 6.87333 12.2467 6.48333 12.58 5.97C12.9133 5.46333 13.1633 4.89333 13.33 4.26C13.3967 4.02667 13.43 3.81333 13.43 3.62C13.43 3.30667 13.3433 3.15 13.17 3.15C13.09 3.15 12.9933 3.19333 12.88 3.28C12.6933 3.41333 12.46 3.64667 12.18 3.98C11.9 4.31333 11.6233 4.68667 11.35 5.1C11.0833 5.5 10.8667 5.87 10.7 6.21C10.5267 6.54333 10.3467 6.93 10.16 7.37C10.2467 7.39667 10.35 7.41 10.47 7.41ZM13.71 7.62C13.6233 7.62 13.58 7.57333 13.58 7.48C13.58 7.40667 13.6167 7.25667 13.69 7.03C13.7633 6.81 13.8633 6.55333 13.99 6.26C14.1767 5.79333 14.3933 5.27 14.64 4.69C14.8867 4.11667 15.1167 3.55667 15.33 3.01C15.4967 2.60333 15.6633 2.19333 15.83 1.78C15.99 1.37333 16.1467 0.963333 16.3 0.549999C16.3133 0.496666 16.32 0.453332 16.32 0.419999C16.32 0.319999 16.2867 0.256666 16.22 0.23C16.1467 0.203333 16.0833 0.183332 16.03 0.169999C15.9367 0.163332 15.8467 0.16 15.76 0.16C15.68 0.16 15.5867 0.16 15.48 0.16C15.4467 0.16 15.4333 0.149999 15.44 0.129999C15.4533 0.109999 15.4733 0.0999994 15.5 0.0999994H16.1C16.26 0.0999994 16.4 0.0999994 16.52 0.0999994C16.64 0.0933328 16.73 0.0766659 16.79 0.0499992C16.8967 0.0166659 16.9233 0.0433325 16.87 0.129999C16.75 0.323332 16.6467 0.523333 16.56 0.73C16.4667 0.93 16.3733 1.13667 16.28 1.35L15.48 3.18C15.2667 3.68667 15.0633 4.17333 14.87 4.64C14.67 5.10667 14.5 5.53 14.36 5.91C14.22 6.28333 14.1233 6.57667 14.07 6.79C14.0633 6.85667 14.0533 6.92667 14.04 7C14.02 7.06667 14.01 7.13 14.01 7.19C14.01 7.29667 14.0433 7.35 14.11 7.35C14.1833 7.35 14.2767 7.32333 14.39 7.27C14.4967 7.21667 14.5967 7.15667 14.69 7.09C14.7833 7.02333 14.8433 6.98 14.87 6.96C15.0367 6.83333 15.1933 6.69 15.34 6.53C15.4933 6.37 15.6333 6.2 15.76 6.02C15.8 5.96667 15.8333 5.94 15.86 5.94C15.88 5.94 15.89 5.95333 15.89 5.98C15.89 6.02 15.87 6.05667 15.83 6.09C15.57 6.41 15.27 6.71333 14.93 7C14.59 7.29333 14.2133 7.49667 13.8 7.61C13.7733 7.61667 13.7433 7.62 13.71 7.62ZM16.28 7.66C15.9933 7.66 15.85 7.48667 15.85 7.14C15.85 6.92 15.9033 6.65333 16.01 6.34C16.1167 6.02667 16.2433 5.71 16.39 5.39C16.41 5.36333 16.43 5.33 16.45 5.29C16.47 5.25 16.4933 5.21 16.52 5.17C16.4533 5.03667 16.42 4.88333 16.42 4.71C16.42 4.40333 16.52 4.1 16.72 3.8C16.92 3.50667 17.17 3.26333 17.47 3.07C17.77 2.87667 18.0733 2.78 18.38 2.78C18.6867 2.78 18.9 2.85333 19.02 3C19.1333 3.14667 19.19 3.33 19.19 3.55C19.19 3.81 19.1333 4.1 19.02 4.42C18.9 4.74 18.7867 5.02333 18.68 5.27C18.4933 5.67 18.2633 6.05333 17.99 6.42C17.7167 6.78 17.4333 7.07333 17.14 7.3C16.84 7.53333 16.5533 7.65333 16.28 7.66ZM16.52 7.45C16.7733 7.44333 17.02 7.34 17.26 7.14C17.4933 6.94 17.7167 6.67667 17.93 6.35C18.15 6.03 18.3433 5.69333 18.51 5.34C18.61 5.12667 18.7 4.87333 18.78 4.58C18.86 4.29333 18.9 4.02 18.9 3.76C18.9 3.51333 18.85 3.31 18.75 3.15C18.6433 2.98333 18.47 2.9 18.23 2.9C17.91 2.9 17.63 3.00333 17.39 3.21C17.1433 3.41667 16.9567 3.67 16.83 3.97C16.6967 4.26333 16.63 4.55667 16.63 4.85V4.97C16.79 4.72333 16.9867 4.45333 17.22 4.16C17.4533 3.87333 17.6933 3.62667 17.94 3.42C18.1867 3.21333 18.41 3.12 18.61 3.14C18.6233 3.14 18.63 3.15333 18.63 3.18C18.6233 3.2 18.61 3.21 18.59 3.21C18.43 3.19 18.2567 3.25667 18.07 3.41C17.8833 3.55667 17.7 3.74333 17.52 3.97C17.34 4.20333 17.1767 4.43667 17.03 4.67C16.8833 4.91 16.77 5.11 16.69 5.27C16.7233 5.39 16.7933 5.48333 16.9 5.55L17.05 5.65C17.07 5.65667 17.07 5.66333 17.05 5.67C17.03 5.68333 17.0133 5.68333 17 5.67C16.92 5.62333 16.85 5.57667 16.79 5.53C16.73 5.47667 16.6767 5.42333 16.63 5.37C16.3233 6.03 16.17 6.56 16.17 6.96C16.17 7.28667 16.2867 7.45 16.52 7.45ZM19.24 7.65C19.2067 7.65 19.18 7.62667 19.16 7.58C19.1333 7.53333 19.1167 7.5 19.11 7.48C19.1033 7.46 19.0967 7.43667 19.09 7.41C19.0833 7.38333 19.08 7.36 19.08 7.34C19.08 7.29333 19.0933 7.24667 19.12 7.2C19.14 7.15333 19.16 7.11 19.18 7.07C19.2733 6.87667 19.3867 6.62333 19.52 6.31C19.66 5.99667 19.7967 5.66333 19.93 5.31C20.0633 4.95667 20.1833 4.61667 20.29 4.29C20.39 3.97 20.45 3.70333 20.47 3.49C20.47 3.46333 20.4733 3.43667 20.48 3.41C20.48 3.37667 20.48 3.34667 20.48 3.32C20.48 3.22667 20.4633 3.14667 20.43 3.08C20.39 3.02 20.31 2.99 20.19 2.99H19.61C19.5833 2.99 19.5767 2.98 19.59 2.96C19.5967 2.94 19.6033 2.93 19.61 2.93C19.69 2.93 19.8233 2.93 20.01 2.93C20.2033 2.93 20.39 2.92667 20.57 2.92C20.7433 2.90667 20.8533 2.89 20.9 2.87C20.9133 2.87 20.92 2.87 20.92 2.87C20.9267 2.86333 20.9333 2.86 20.94 2.86C21.02 2.86 21.04 2.89667 21 2.97L20.83 3.38L20.36 4.65C20.4667 4.44333 20.6067 4.2 20.78 3.92C20.9467 3.63333 21.1433 3.38333 21.37 3.17C21.5967 2.95667 21.8467 2.85 22.12 2.85C22.28 2.85 22.4 2.88333 22.48 2.95C22.56 3.02333 22.6 3.14667 22.6 3.32C22.6 3.38667 22.59 3.46667 22.57 3.56C22.55 3.65333 22.5267 3.75667 22.5 3.87C22.4867 3.89667 22.48 3.92667 22.48 3.96C22.4733 3.99333 22.46 4.02333 22.44 4.05C22.4333 4.09 22.4167 4.11 22.39 4.11C22.3567 4.11 22.3467 4.1 22.36 4.08C22.4067 3.97333 22.44 3.89 22.46 3.83C22.4733 3.76333 22.48 3.66333 22.48 3.53C22.48 3.23 22.3133 3.08 21.98 3.08C21.7733 3.08 21.57 3.17333 21.37 3.36C21.17 3.54667 20.98 3.77667 20.8 4.05C20.6267 4.32333 20.4733 4.59333 20.34 4.86C20.2133 5.13333 20.1167 5.35 20.05 5.51C19.9167 5.85 19.7867 6.18333 19.66 6.51C19.5333 6.83667 19.42 7.18 19.32 7.54C19.2933 7.61333 19.2667 7.65 19.24 7.65ZM22.19 7.65C22.01 7.65 21.92 7.51 21.92 7.23C21.92 6.93667 21.9833 6.61333 22.11 6.26C22.23 5.9 22.3933 5.53333 22.6 5.16C22.8 4.78667 23.0333 4.43667 23.3 4.11C23.56 3.79 23.83 3.52667 24.11 3.32C24.2767 3.19333 24.4567 3.09 24.65 3.01C24.7567 2.96333 24.8733 2.94 25 2.94C25.1267 2.93333 25.25 2.93 25.37 2.93H26.36C26.3867 2.93 26.3967 2.94 26.39 2.96C26.3833 2.98 26.37 2.99 26.35 2.99C26.21 2.99 26.0933 3.04333 26 3.15C25.9067 3.26333 25.83 3.37333 25.77 3.48C25.69 3.62667 25.58 3.85333 25.44 4.16C25.3067 4.46667 25.17 4.8 25.03 5.16C24.89 5.52 24.7733 5.87 24.68 6.21C24.5867 6.54333 24.54 6.82333 24.54 7.05C24.54 7.12333 24.55 7.19667 24.57 7.27C24.59 7.32333 24.6333 7.35 24.7 7.35C24.78 7.35 24.8733 7.32333 24.98 7.27C25.08 7.21667 25.1733 7.15667 25.26 7.09C25.3533 7.02333 25.4067 6.98 25.42 6.96C25.58 6.83333 25.7267 6.69 25.86 6.53C25.9867 6.37 26.1133 6.2 26.24 6.02C26.2733 5.96667 26.3033 5.94 26.33 5.94C26.35 5.94 26.36 5.95333 26.36 5.98C26.36 6.00667 26.3467 6.04333 26.32 6.09C26.0867 6.41 25.81 6.71333 25.49 7C25.1767 7.29333 24.82 7.49667 24.42 7.61C24.4 7.61667 24.37 7.62 24.33 7.62C24.2167 7.62 24.16 7.54667 24.16 7.4C24.16 7.27333 24.19 7.1 24.25 6.88C24.3167 6.65333 24.3933 6.40667 24.48 6.14C24.5667 5.87333 24.6567 5.61667 24.75 5.37C24.8367 5.11667 24.9133 4.9 24.98 4.72C25.0533 4.54667 25.0933 4.43667 25.1 4.39C24.9267 4.68333 24.7267 4.99333 24.5 5.32C24.2733 5.64 24.0533 5.93667 23.84 6.21C23.6267 6.49 23.4367 6.72667 23.27 6.92C23.2233 6.97333 23.1333 7.06 23 7.18C22.8733 7.29333 22.7333 7.4 22.58 7.5C22.4333 7.6 22.3033 7.65 22.19 7.65ZM22.47 7.38C22.5433 7.38 22.65 7.33333 22.79 7.24C22.9033 7.18667 23.0567 7.04667 23.25 6.82C23.45 6.58667 23.6833 6.28333 23.95 5.91C24.2233 5.53667 24.4933 5.13667 24.76 4.71C25.0267 4.27667 25.2567 3.86 25.45 3.46C25.51 3.34667 25.54 3.26667 25.54 3.22C25.54 3.12667 25.4233 3.08 25.19 3.08C24.77 3.08 24.3833 3.21333 24.03 3.48C23.6833 3.74667 23.3767 4.09 23.11 4.51C22.8433 4.92333 22.6367 5.35 22.49 5.79C22.3433 6.23667 22.27 6.63667 22.27 6.99C22.27 7.25 22.3367 7.38 22.47 7.38Z" fill="black"/>
</svg>
