<svg width="87" height="14" viewBox="0 0 87 14" fill="none" xmlns="http://www.w3.org/2000/svg">
<path d="M6.5 10.61H0.5V0.43H6.29V1.44H1.83V9.6H6.5V10.61ZM5.82 5.77H2.36C2.42667 5.59 2.51 5.42667 2.61 5.28C2.71 5.12667 2.84 5.00667 3 4.92C3.15333 4.83333 3.34 4.79 3.56 4.79H5.82V5.77ZM13.95 10.61H12.49C12.11 9.99667 11.7267 9.39 11.34 8.79C10.9533 8.19 10.56 7.58667 10.16 6.98L7.76 3.37H9.23L10.73 5.88L10.81 6.17L10.91 5.88L12.44 3.37H13.81L11.43 6.93L13.95 10.61ZM8.99 10.61H7.64L9.79 7.46C9.91667 7.60667 10.0167 7.77667 10.09 7.97C10.1567 8.15667 10.1833 8.35333 10.17 8.56C10.15 8.76 10.0767 8.95667 9.95 9.15L8.99 10.61ZM16.85 13.98H15.56V5.77C15.56 5.21 15.5367 4.73 15.49 4.33C15.4433 3.93667 15.3933 3.61667 15.34 3.37H16.27C16.3967 3.47 16.4933 3.57333 16.56 3.68C16.6333 3.78667 16.7 3.93667 16.76 4.13L16.79 4.35L16.9 4.1C17.1933 3.78 17.53 3.55333 17.91 3.42C18.2767 3.29333 18.61 3.23 18.91 3.23C19.5633 3.23 20.1167 3.39667 20.57 3.73C21.03 4.06333 21.38 4.51667 21.62 5.09C21.8533 5.66333 21.97 6.31 21.97 7.03C21.97 7.59 21.8833 8.09333 21.71 8.54C21.53 8.99333 21.2867 9.38 20.98 9.7C20.6733 10.02 20.3267 10.2667 19.94 10.44C19.5467 10.6067 19.14 10.69 18.72 10.69C18.5133 10.69 18.2933 10.6733 18.06 10.64C17.82 10.6067 17.5733 10.5467 17.32 10.46C17.46 10.2267 17.6333 10.0367 17.84 9.89C18.0533 9.74333 18.32 9.67667 18.64 9.69C18.96 9.69667 19.27 9.61 19.57 9.43C19.87 9.24333 20.1133 8.95333 20.3 8.56C20.4933 8.16667 20.59 7.65667 20.59 7.03C20.59 6.48333 20.5167 6 20.37 5.58C20.2233 5.16 20.01 4.83333 19.73 4.6C19.4433 4.36 19.0933 4.24 18.68 4.24C18.3667 4.24 18.0567 4.32333 17.75 4.49C17.4367 4.65667 17.1367 4.91333 16.85 5.26V13.98ZM25.15 10.61H23.88V0H25.15V10.61ZM30.41 10.75C29.8967 10.75 29.4333 10.6533 29.02 10.46C28.6 10.2733 28.2433 10.0067 27.95 9.66C27.65 9.32 27.42 8.91667 27.26 8.45C27.1067 7.98333 27.03 7.47667 27.03 6.93C27.03 6.17 27.1667 5.51333 27.44 4.96C27.72 4.40667 28.1167 3.98 28.63 3.68C29.1433 3.38 29.7533 3.23 30.46 3.23C30.94 3.23 31.3633 3.33667 31.73 3.55C32.0967 3.76333 32.3933 4.05333 32.62 4.42C32.8467 4.78667 32.9867 5.2 33.04 5.66C33.0933 6.12667 33.0433 6.61 32.89 7.11H28.83C28.93 6.84333 29.07 6.62 29.25 6.44C29.43 6.26 29.6867 6.17 30.02 6.17H31.8C31.84 5.81 31.8 5.48667 31.68 5.2C31.5533 4.90667 31.37 4.67333 31.13 4.5C30.89 4.32667 30.62 4.24 30.32 4.24C29.9267 4.24 29.58 4.34667 29.28 4.56C28.98 4.76667 28.7467 5.07333 28.58 5.48C28.4133 5.88 28.33 6.36667 28.33 6.94C28.33 7.49333 28.4267 7.98 28.62 8.4C28.8133 8.82667 29.0767 9.15667 29.41 9.39C29.75 9.62333 30.13 9.74 30.55 9.74C30.8767 9.74 31.1833 9.70667 31.47 9.64C31.7633 9.57333 32.1067 9.44 32.5 9.24L32.85 10.16C32.4033 10.3867 31.97 10.5433 31.55 10.63C31.13 10.71 30.75 10.75 30.41 10.75ZM37.65 10.76C36.89 10.76 36.3067 10.51 35.9 10.01C35.4933 9.51667 35.29 8.82667 35.29 7.94V4.34H34V3.71L35.29 3.37V1.52L36.52 1.13V8.09C36.52 8.57 36.6233 8.97333 36.83 9.3C37.0367 9.62 37.31 9.78 37.65 9.78C37.8367 9.78 38.0133 9.76667 38.18 9.74C38.3533 9.70667 38.56 9.65 38.8 9.57L39.11 10.46C38.7567 10.5733 38.48 10.6533 38.28 10.7C38.0867 10.74 37.8767 10.76 37.65 10.76ZM39 4.34H38.2C37.98 4.34 37.7933 4.29667 37.64 4.21C37.4867 4.12333 37.36 4.00667 37.26 3.86C37.16 3.71333 37.08 3.55 37.02 3.37H39V4.34ZM42.85 10.75C42.4767 10.75 42.1367 10.6833 41.83 10.55C41.5233 10.41 41.2767 10.1767 41.09 9.85C40.91 9.52333 40.82 9.07333 40.82 8.5V3.37H42.13V8.64C42.13 8.96 42.2 9.22333 42.34 9.43C42.48 9.63667 42.6967 9.74 42.99 9.74C43.0967 9.74 43.1933 9.73 43.28 9.71C43.36 9.68333 43.4633 9.65667 43.59 9.63C43.8633 9.56333 44.1167 9.56 44.35 9.62C44.5767 9.67333 44.79 9.80333 44.99 10.01C44.4967 10.3033 44.0767 10.5 43.73 10.6C43.39 10.7 43.0967 10.75 42.85 10.75ZM46.89 10.61H45.91C45.69 10.3567 45.5433 10.1067 45.47 9.86C45.4033 9.61333 45.37 9.35 45.37 9.07V3.37H46.67V8.85C46.67 9.10333 46.6867 9.37667 46.72 9.67C46.7533 9.96333 46.81 10.2767 46.89 10.61ZM51.11 10.75C50.75 10.75 50.37 10.72 49.97 10.66C49.5633 10.5933 49.0867 10.4267 48.54 10.16L48.88 9.24C49.24 9.41333 49.6 9.54 49.96 9.62C50.32 9.7 50.6467 9.74 50.94 9.74C51.36 9.74 51.6733 9.64333 51.88 9.45C52.08 9.25 52.18 8.99667 52.18 8.69C52.18 8.43667 52.1 8.22667 51.94 8.06C51.7733 7.88667 51.5633 7.73667 51.31 7.61C51.05 7.47667 50.7767 7.34333 50.49 7.21C50.2033 7.07667 49.93 6.92333 49.67 6.75C49.4167 6.57667 49.2067 6.35667 49.04 6.09C48.88 5.83 48.8 5.50667 48.8 5.12C48.8 4.82 48.8833 4.52667 49.05 4.24C49.2233 3.95333 49.4767 3.71667 49.81 3.53C50.1433 3.34333 50.5533 3.25 51.04 3.25C51.3067 3.25 51.5967 3.27333 51.91 3.32C52.23 3.37333 52.5867 3.47 52.98 3.61L52.66 4.52C52.3667 4.42 52.0933 4.35 51.84 4.31C51.5933 4.26333 51.3733 4.24 51.18 4.24C50.8533 4.24 50.5833 4.31333 50.37 4.46C50.1633 4.61333 50.06 4.83333 50.06 5.12C50.06 5.36667 50.14 5.57333 50.3 5.74C50.4667 5.91333 50.6767 6.06333 50.93 6.19C51.19 6.32333 51.4633 6.46 51.75 6.6C52.0367 6.73333 52.31 6.89 52.57 7.07C52.8233 7.25667 53.0333 7.48333 53.2 7.75C53.36 8.01667 53.44 8.35333 53.44 8.76C53.44 9.11333 53.3333 9.44333 53.12 9.75C52.9 10.05 52.61 10.29 52.25 10.47C51.8967 10.6567 51.5167 10.75 51.11 10.75ZM61.2 10.78C60.8067 10.78 60.34 10.73 59.8 10.63C59.2667 10.5367 58.7633 10.3767 58.29 10.15L58.65 9.24C59.07 9.42667 59.4933 9.56 59.92 9.64C60.3467 9.72667 60.7233 9.77 61.05 9.77C61.7033 9.77 62.2133 9.60333 62.58 9.27C62.9467 8.93667 63.13 8.53 63.13 8.05C63.13 7.65 63.0167 7.31333 62.79 7.04C62.5633 6.76667 62.2733 6.52667 61.92 6.32C61.56 6.10667 61.18 5.9 60.78 5.7C60.38 5.5 60 5.27333 59.64 5.02C59.2867 4.77333 58.9967 4.47 58.77 4.11C58.5433 3.75 58.43 3.30667 58.43 2.78C58.43 2.31333 58.55 1.89 58.79 1.51C59.0233 1.13 59.3533 0.823334 59.78 0.59C60.2067 0.363333 60.7 0.25 61.26 0.25C61.66 0.25 62.0633 0.283333 62.47 0.35C62.8767 0.416667 63.3167 0.523333 63.79 0.67L63.41 1.58C63.0167 1.46 62.6467 1.37667 62.3 1.33C61.96 1.29 61.66 1.27 61.4 1.27C60.8733 1.27 60.47 1.42 60.19 1.72C59.91 2.02 59.77 2.37333 59.77 2.78C59.77 3.14667 59.8867 3.46 60.12 3.72C60.3467 3.98 60.64 4.21667 61 4.43C61.36 4.63667 61.7433 4.84667 62.15 5.06C62.55 5.27333 62.93 5.51333 63.29 5.78C63.65 6.04 63.9433 6.35667 64.17 6.73C64.4033 7.09667 64.52 7.54667 64.52 8.08C64.52 8.54 64.39 8.97667 64.13 9.39C63.8767 9.79667 63.5033 10.13 63.01 10.39C62.51 10.65 61.9067 10.78 61.2 10.78ZM68.21 10.75C67.73 10.75 67.3133 10.6633 66.96 10.49C66.6067 10.3167 66.3367 10.08 66.15 9.78C65.9567 9.48 65.86 9.14 65.86 8.76C65.86 8.29333 65.9833 7.90333 66.23 7.59C66.4767 7.27667 66.8833 7.02667 67.45 6.84C68.0233 6.64667 68.7867 6.49333 69.74 6.38C69.72 6.49333 69.68 6.62667 69.62 6.78C69.5533 6.93333 69.45 7.07667 69.31 7.21C69.17 7.33667 68.9767 7.42 68.73 7.46C68.3233 7.52667 68.0133 7.62333 67.8 7.75C67.5867 7.87667 67.44 8.02 67.36 8.18C67.2867 8.34 67.25 8.50667 67.25 8.68C67.25 8.96 67.3533 9.20667 67.56 9.42C67.76 9.63333 68.04 9.74 68.4 9.74C68.7133 9.74 69.0333 9.66 69.36 9.5C69.68 9.34667 69.9733 9.09 70.24 8.73V6.12C70.24 5.56 70.1067 5.10667 69.84 4.76C69.5733 4.41333 69.12 4.24 68.48 4.24C68.2267 4.24 67.9767 4.26667 67.73 4.32C67.4833 4.36667 67.1933 4.45333 66.86 4.58L66.53 3.71C66.99 3.51 67.3967 3.38 67.75 3.32C68.0967 3.26 68.4233 3.23 68.73 3.23C69.63 3.23 70.3267 3.49 70.82 4.01C71.3133 4.53 71.56 5.26333 71.56 6.21V8.22C71.56 8.78 71.5833 9.25667 71.63 9.65C71.67 10.0433 71.72 10.3633 71.78 10.61H70.83C70.7033 10.53 70.6 10.4267 70.52 10.3C70.4467 10.1733 70.3833 10.04 70.33 9.9L70.31 9.64L70.16 9.9C69.8067 10.2533 69.4767 10.4833 69.17 10.59C68.87 10.6967 68.55 10.75 68.21 10.75ZM79.72 10.61H78.38V5.35C78.38 5.02333 78.3067 4.75667 78.16 4.55C78.0133 4.34333 77.7967 4.24 77.51 4.24C77.3967 4.24 77.3 4.25 77.22 4.27C77.1333 4.29667 77.03 4.32333 76.91 4.35C76.6367 4.41 76.3833 4.41333 76.15 4.36C75.9167 4.3 75.7033 4.17 75.51 3.97C76.01 3.67667 76.4267 3.48 76.76 3.38C77.0933 3.28 77.3867 3.23 77.64 3.23C78.0133 3.23 78.3567 3.29667 78.67 3.43C78.99 3.57 79.2467 3.80333 79.44 4.13C79.6267 4.45667 79.72 4.91 79.72 5.49V10.61ZM75.13 10.61H73.79V5.14C73.79 4.87333 73.7733 4.59333 73.74 4.3C73.7133 4.00667 73.66 3.69667 73.58 3.37H74.58C74.8067 3.62333 74.9567 3.87333 75.03 4.12C75.0967 4.36667 75.13 4.63 75.13 4.91V10.61ZM84.01 10.75C83.65 10.75 83.27 10.72 82.87 10.66C82.4633 10.5933 81.9867 10.4267 81.44 10.16L81.78 9.24C82.14 9.41333 82.5 9.54 82.86 9.62C83.22 9.7 83.5467 9.74 83.84 9.74C84.26 9.74 84.5733 9.64333 84.78 9.45C84.98 9.25 85.08 8.99667 85.08 8.69C85.08 8.43667 85 8.22667 84.84 8.06C84.6733 7.88667 84.4633 7.73667 84.21 7.61C83.95 7.47667 83.6767 7.34333 83.39 7.21C83.1033 7.07667 82.83 6.92333 82.57 6.75C82.3167 6.57667 82.1067 6.35667 81.94 6.09C81.78 5.83 81.7 5.50667 81.7 5.12C81.7 4.82 81.7833 4.52667 81.95 4.24C82.1233 3.95333 82.3767 3.71667 82.71 3.53C83.0433 3.34333 83.4533 3.25 83.94 3.25C84.2 3.25 84.49 3.27333 84.81 3.32C85.13 3.37333 85.4867 3.47 85.88 3.61L85.56 4.52C85.2667 4.42 84.9933 4.35 84.74 4.31C84.4933 4.26333 84.2733 4.24 84.08 4.24C83.7533 4.24 83.4833 4.31333 83.27 4.46C83.0633 4.61333 82.96 4.83333 82.96 5.12C82.96 5.36667 83.04 5.57333 83.2 5.74C83.3667 5.91333 83.5767 6.06333 83.83 6.19C84.09 6.32333 84.3633 6.46 84.65 6.6C84.9367 6.73333 85.21 6.89 85.47 7.07C85.7233 7.25667 85.9333 7.48333 86.1 7.75C86.26 8.01667 86.34 8.35333 86.34 8.76C86.34 9.11333 86.2333 9.44333 86.02 9.75C85.8 10.05 85.51 10.29 85.15 10.47C84.7967 10.6567 84.4167 10.75 84.01 10.75Z" fill="black"/>
</svg>
