<svg width="77" height="11" viewBox="0 0 77 11" fill="none" xmlns="http://www.w3.org/2000/svg">
<path d="M1.58 8.27V6.93L1.52 2.81C1.52 2.17 1.50333 1.68 1.47 1.34C1.43667 1.00667 1.41333 0.84 1.4 0.84H0.78C0.626667 0.84 0.543333 0.813333 0.53 0.76C0.51 0.7 0.5 0.643333 0.5 0.59C0.5 0.43 0.56 0.35 0.68 0.35L1.3 0.37C1.70667 0.383333 2.01 0.39 2.21 0.39L5.83 0.35C6.27667 0.35 6.53667 0.343333 6.61 0.33C6.69 0.323333 6.73333 0.276666 6.74 0.19C6.74 0.103333 6.75667 0.0499997 6.79 0.0299997C6.82333 0.00999973 6.88333 0 6.97 0C7.06333 0 7.13 0.0133333 7.17 0.04C7.21 0.0666666 7.23 0.116666 7.23 0.19L7.17 2.04C7.17 2.10667 7.15333 2.15 7.12 2.17C7.08667 2.19 7.01667 2.2 6.91 2.2C6.74333 2.2 6.66 2.13 6.66 1.99L6.7 0.9C6.3 0.84 5.00667 0.81 2.82 0.81C2.76667 0.81 2.74 1.32667 2.74 2.36C2.74 3.39333 2.74333 4.04333 2.75 4.31C2.76333 4.57667 2.77333 4.71333 2.78 4.72C2.78667 4.72667 2.84333 4.73 2.95 4.73H5.37C5.85667 4.73 6.1 4.67 6.1 4.55V3.81C6.1 3.72333 6.19333 3.68 6.38 3.68C6.50667 3.68 6.57667 3.69333 6.59 3.72C6.61 3.74 6.62 3.76333 6.62 3.79L6.59 4.93L6.62 6.27C6.62 6.34333 6.53333 6.38 6.36 6.38C6.18667 6.38 6.1 6.33667 6.1 6.25V5.4C6.1 5.29333 6.02 5.23333 5.86 5.22C5.7 5.2 5.53667 5.19 5.37 5.19H2.95C2.85 5.19 2.79333 5.2 2.78 5.22C2.77333 5.23333 2.77 5.38333 2.77 5.67C2.77667 5.96333 2.78333 6.46333 2.79 7.17C2.80333 8.57667 2.82333 9.28 2.85 9.28H3.98C4.06667 9.28 4.12 9.29667 4.14 9.33C4.16667 9.36333 4.18 9.42667 4.18 9.52C4.18 9.62 4.16667 9.69 4.14 9.73C4.12 9.77 4.06667 9.79 3.98 9.79L2.3 9.74L0.83 9.79C0.736667 9.79 0.68 9.77 0.66 9.73C0.633333 9.69667 0.62 9.62667 0.62 9.52C0.62 9.40667 0.64 9.34 0.68 9.32C0.72 9.29333 0.8 9.28 0.92 9.28H1.5C1.55333 9.28 1.58 8.94333 1.58 8.27ZM12.23 5.95L12.14 8.8C12.14 8.98 12.2067 9.1 12.34 9.16C12.36 9.17333 12.3867 9.18 12.42 9.18C12.4467 9.18 12.5433 9.12333 12.71 9.01C12.87 8.89 12.96 8.83 12.98 8.83C13 8.83 13.0367 8.86667 13.09 8.94C13.15 9.01333 13.18 9.06333 13.18 9.09C13.18 9.11667 13.15 9.15333 13.09 9.2C13.0233 9.24667 12.92 9.32 12.78 9.42C12.64 9.52667 12.4767 9.64667 12.29 9.78C12.11 9.91333 11.98 9.98 11.9 9.98C11.8133 9.98 11.74 9.97 11.68 9.95C11.6267 9.92333 11.5833 9.89667 11.55 9.87C11.5167 9.83667 11.4833 9.79333 11.45 9.74C11.4167 9.68667 11.3933 9.64333 11.38 9.61C11.3667 9.57 11.35 9.52 11.33 9.46C11.31 9.4 11.2933 9.35 11.28 9.31C11.26 9.25 11.2133 9.24333 11.14 9.29C10.4467 9.72333 9.87333 9.94 9.42 9.94C8.96667 9.94 8.61333 9.82667 8.36 9.6C8.10667 9.38 7.98 9.08333 7.98 8.71C7.98 8.29 8.15333 7.93333 8.5 7.64C8.84667 7.34667 9.2 7.13667 9.56 7.01C10.1333 6.81667 10.6667 6.67667 11.16 6.59C11.2067 6.58333 11.23 6.51 11.23 6.37C11.23 6.23667 11.23 6.12667 11.23 6.04C11.23 5.94667 11.2233 5.83 11.21 5.69C11.2033 5.55 11.19 5.44 11.17 5.36C11.1433 5.28 11.1133 5.18667 11.08 5.08C11.0467 4.97333 11 4.89 10.94 4.83C10.88 4.77 10.81 4.71333 10.73 4.66C10.5833 4.54667 10.3933 4.49 10.16 4.49C9.93333 4.49 9.74333 4.52333 9.59 4.59C9.43 4.65667 9.33 4.75 9.29 4.87C9.24333 4.98333 9.22 5.15667 9.22 5.39C9.22 5.61667 9.17333 5.76 9.08 5.82C8.99333 5.88 8.85 5.96 8.65 6.06C8.45667 6.16 8.34333 6.21 8.31 6.21C8.22333 6.21 8.18 6.11 8.18 5.91C8.18 5.71 8.22667 5.50667 8.32 5.3C8.40667 5.1 8.52667 4.92667 8.68 4.78C8.82667 4.63333 8.99667 4.50667 9.19 4.4C9.56333 4.18 9.92 4.07 10.26 4.07C10.6 4.07 10.88 4.1 11.1 4.16C11.3133 4.22 11.4933 4.30333 11.64 4.41C11.78 4.51667 11.8933 4.65 11.98 4.81C12.1467 5.09667 12.23 5.47667 12.23 5.95ZM9.05 8.31C9.05 8.46333 9.08333 8.60667 9.15 8.74C9.21 8.88 9.31 9 9.45 9.1C9.58333 9.19333 9.73667 9.24 9.91 9.24C10.0833 9.24 10.2733 9.21333 10.48 9.16C10.98 9.04 11.23 8.93667 11.23 8.85V7.01C11.23 6.93667 11.22 6.9 11.2 6.9C11.18 6.9 11.1267 6.90667 11.04 6.92C9.71333 7.18 9.05 7.64333 9.05 8.31ZM14.61 4.84L13.75 4.9C13.7033 4.9 13.68 4.87667 13.68 4.83C13.68 4.79 13.7 4.72 13.74 4.62C13.78 4.52 13.81 4.46333 13.83 4.45C13.85 4.43667 13.8967 4.42667 13.97 4.42C14.0433 4.42 14.29 4.40667 14.71 4.38C15.1233 4.35333 15.37 4.33667 15.45 4.33C15.5367 4.32333 15.5867 4.32 15.6 4.32C15.6133 4.32667 15.6267 4.33 15.64 4.33C15.6533 4.32333 15.6667 4.32333 15.68 4.33C15.6867 4.33667 15.6933 4.34333 15.7 4.35C15.7067 4.35 15.71 4.35333 15.71 4.36C15.7167 4.37333 15.72 4.38333 15.72 4.39C15.7267 4.39 15.73 4.39667 15.73 4.41V5C15.73 5.05333 15.7367 5.08 15.75 5.08C15.7567 5.08 15.7667 5.07667 15.78 5.07C15.7867 5.06333 15.7967 5.05667 15.81 5.05C15.8367 5.03 15.8633 5.01 15.89 4.99C15.9233 4.97 15.9933 4.92333 16.1 4.85C16.2 4.78333 16.2833 4.73 16.35 4.69C16.41 4.65 16.4967 4.6 16.61 4.54C16.7233 4.48 16.83 4.43667 16.93 4.41C17.1767 4.32333 17.4233 4.28 17.67 4.28C17.91 4.28 18.1233 4.30333 18.31 4.35C18.4967 4.39667 18.6533 4.46 18.78 4.54C18.9133 4.62 19.03 4.72 19.13 4.84C19.2233 4.96667 19.3 5.09667 19.36 5.23C19.42 5.37 19.4667 5.53 19.5 5.71C19.56 6.01667 19.59 6.38 19.59 6.8L19.52 9.18C19.52 9.24667 19.5233 9.28333 19.53 9.29C19.5433 9.30333 19.5767 9.31 19.63 9.31H20.05C20.1433 9.31 20.2067 9.32333 20.24 9.35C20.2733 9.38333 20.29 9.44 20.29 9.52C20.29 9.60667 20.2767 9.67 20.25 9.71C20.2233 9.75 20.1667 9.77 20.08 9.77L19.03 9.74L17.81 9.77C17.71 9.77 17.65 9.75667 17.63 9.73C17.61 9.70333 17.6 9.64333 17.6 9.55C17.6 9.39 17.6767 9.31 17.83 9.31H18.43C18.4833 9.31 18.51 8.82667 18.51 7.86C18.51 6.89333 18.5 6.32667 18.48 6.16C18.4533 5.99333 18.4133 5.83 18.36 5.67C18.3 5.51667 18.22 5.39 18.12 5.29C17.9133 5.06333 17.61 4.95 17.21 4.95C16.9033 4.95 16.5433 5.05667 16.13 5.27C15.9367 5.37 15.8233 5.44 15.79 5.48C15.7633 5.51333 15.75 5.56333 15.75 5.63L15.74 9.08C15.74 9.19333 15.7467 9.26 15.76 9.28C15.7733 9.3 15.8133 9.31 15.88 9.31H16.41C16.5033 9.31 16.56 9.32667 16.58 9.36C16.6 9.39333 16.61 9.44 16.61 9.5C16.61 9.56 16.61 9.6 16.61 9.62C16.6033 9.64667 16.5967 9.67 16.59 9.69C16.57 9.74333 16.5167 9.77 16.43 9.77L15.25 9.74L13.98 9.77C13.8867 9.77 13.8333 9.75333 13.82 9.72C13.8067 9.67333 13.8 9.61 13.8 9.53C13.8 9.45 13.81 9.39333 13.83 9.36C13.85 9.32667 13.9 9.31 13.98 9.31H14.61C14.6833 9.31 14.72 8.66333 14.72 7.37C14.72 6.07667 14.7133 5.35 14.7 5.19C14.6933 5.03 14.6867 4.94 14.68 4.92C14.6733 4.9 14.67 4.88333 14.67 4.87C14.6567 4.85 14.6367 4.84 14.61 4.84ZM28.86 4.34L29.61 4.31C29.7233 4.31 29.78 4.37 29.78 4.49C29.78 4.61 29.77 4.68667 29.75 4.72C29.7233 4.75333 29.6733 4.77 29.6 4.77H29.51C29.4167 4.77 29.34 4.83 29.28 4.95C29.22 5.07667 29.1 5.38667 28.92 5.88C28.32 7.48 27.9433 8.44 27.79 8.76C27.6367 9.08 27.4967 9.32 27.37 9.48C27.2433 9.64 27.1467 9.78333 27.08 9.91C27.0067 10.03 26.9267 10.09 26.84 10.09C26.6933 10.09 26.5467 9.79333 26.4 9.2C26.3867 9.17333 26.27 8.78 26.05 8.02C25.8233 7.25333 25.66 6.72333 25.56 6.43C25.46 6.13667 25.4033 5.97667 25.39 5.95C25.37 5.90333 25.3533 5.88 25.34 5.88C25.32 5.88 25.29 5.93 25.25 6.03C25.21 6.13 25.1233 6.36 24.99 6.72C24.8633 7.07333 24.7633 7.35 24.69 7.55C24.3433 8.45 24.1167 8.97667 24.01 9.13C23.9033 9.29 23.8267 9.39 23.78 9.43C23.66 9.56333 23.5633 9.69667 23.49 9.83C23.41 9.96333 23.35 10.04 23.31 10.06C23.27 10.08 23.2333 10.09 23.2 10.09C23.1733 10.09 23.1433 10.08 23.11 10.06C23.0833 10.0333 23.0567 9.99667 23.03 9.95C23.0033 9.90333 22.98 9.85333 22.96 9.8C22.9333 9.75333 22.9067 9.69333 22.88 9.62C22.86 9.55333 22.84 9.49667 22.82 9.45C22.8067 9.40333 22.79 9.34333 22.77 9.27C22.75 9.20333 22.7267 9.13 22.7 9.05C22.68 8.97 22.59 8.70667 22.43 8.26C22.27 7.80667 22.0733 7.24667 21.84 6.58C21.6067 5.91333 21.4467 5.45667 21.36 5.21C21.2733 4.95667 21.2167 4.82 21.19 4.8C21.1633 4.78 21.1133 4.77 21.04 4.77H20.82C20.7333 4.77 20.68 4.75333 20.66 4.72C20.6333 4.69333 20.62 4.64333 20.62 4.57C20.62 4.50333 20.6233 4.45667 20.63 4.43C20.6433 4.35 20.7067 4.31 20.82 4.31L21.79 4.34L23 4.31C23.12 4.31 23.1867 4.35333 23.2 4.44C23.2 4.46667 23.2 4.51 23.2 4.57C23.2 4.63667 23.19 4.68667 23.17 4.72C23.15 4.75333 23.1 4.77 23.02 4.77H22.64C22.5133 4.77 22.45 4.80333 22.45 4.87C22.45 4.98333 22.6233 5.55 22.97 6.57C23.3167 7.58333 23.53 8.18 23.61 8.36C23.6833 8.54667 23.7333 8.64 23.76 8.64C23.7867 8.64 23.8133 8.60667 23.84 8.54C23.86 8.48 23.87 8.44667 23.87 8.44C23.8833 8.40667 23.96 8.21667 24.1 7.87C24.24 7.51667 24.3533 7.23 24.44 7.01C24.68 6.40333 24.8533 5.96 24.96 5.68C25.06 5.4 25.11 5.24 25.11 5.2C25.11 5.16 25.1067 5.13333 25.1 5.12C25.1 5.11333 25.1 5.1 25.1 5.08C25.0933 5.06667 25.0867 5.05667 25.08 5.05C25.0667 5.01667 25.0467 4.97333 25.02 4.92C24.9667 4.82 24.8267 4.77 24.6 4.77H24.43C24.35 4.77 24.2967 4.75333 24.27 4.72C24.25 4.68667 24.24 4.63667 24.24 4.57C24.24 4.50333 24.24 4.45667 24.24 4.43C24.2533 4.35 24.3167 4.31 24.43 4.31L25.48 4.34L26.49 4.31C26.61 4.31 26.6733 4.35333 26.68 4.44C26.6867 4.46667 26.69 4.50333 26.69 4.55C26.69 4.69667 26.62 4.77 26.48 4.77H26.18C26.1 4.77 26.06 4.79667 26.06 4.85V4.88C26.08 5.00667 26.2333 5.54333 26.52 6.49C26.8067 7.43667 27.0033 8.04667 27.11 8.32C27.2167 8.58667 27.28 8.72 27.3 8.72C27.3267 8.72 27.3967 8.59 27.51 8.33C27.6233 8.06333 27.8333 7.47 28.14 6.55C28.44 5.62333 28.59 5.09333 28.59 4.96C28.59 4.83333 28.5533 4.77 28.48 4.77H28C27.9267 4.77 27.8767 4.75333 27.85 4.72C27.83 4.68667 27.82 4.63 27.82 4.55C27.82 4.47 27.8333 4.41 27.86 4.37C27.88 4.33 27.9333 4.31 28.02 4.31L28.86 4.34ZM30.17 7.11C30.17 6.71 30.24 6.32667 30.38 5.96C30.52 5.59333 30.7167 5.27333 30.97 5C31.51 4.41333 32.2133 4.12 33.08 4.12C33.8533 4.12 34.4767 4.39667 34.95 4.95C35.4233 5.49 35.66 6.15333 35.66 6.94C35.66 7.82 35.4133 8.54 34.92 9.1C34.4133 9.66667 33.7267 9.95 32.86 9.95C32.0933 9.95 31.4533 9.67667 30.94 9.13C30.4267 8.57667 30.17 7.90333 30.17 7.11ZM31.25 7.33C31.25 8.02333 31.4467 8.59333 31.84 9.04C32.1133 9.35333 32.4533 9.51 32.86 9.51C34 9.51 34.57 8.62 34.57 6.84C34.57 6.02667 34.33 5.39 33.85 4.93C33.59 4.68333 33.2767 4.56 32.91 4.56C31.8033 4.56 31.25 5.48333 31.25 7.33ZM36.41 7.11C36.41 6.71 36.48 6.32667 36.62 5.96C36.7667 5.59333 36.9633 5.27333 37.21 5C37.75 4.41333 38.4533 4.12 39.32 4.12C40.0933 4.12 40.7167 4.39667 41.19 4.95C41.6633 5.49 41.9 6.15333 41.9 6.94C41.9 7.82 41.6533 8.54 41.16 9.1C40.6533 9.66667 39.9667 9.95 39.1 9.95C38.3333 9.95 37.6933 9.67667 37.18 9.13C36.6667 8.57667 36.41 7.90333 36.41 7.11ZM37.49 7.33C37.49 8.02333 37.6867 8.59333 38.08 9.04C38.3533 9.35333 38.6933 9.51 39.1 9.51C40.24 9.51 40.81 8.62 40.81 6.84C40.81 6.02667 40.57 5.39 40.09 4.93C39.83 4.68333 39.5167 4.56 39.15 4.56C38.0433 4.56 37.49 5.48333 37.49 7.33ZM46.99 9.89L47 9.39C47 9.32333 46.95 9.32 46.85 9.38C46.2633 9.74667 45.7 9.93 45.16 9.93C44.0867 9.93 43.3433 9.49 42.93 8.61C42.7433 8.21 42.65 7.77 42.65 7.29C42.65 6.81 42.7267 6.39667 42.88 6.05C43.0267 5.70333 43.2267 5.40333 43.48 5.15C44.0267 4.61667 44.71 4.35 45.53 4.35C45.9767 4.35 46.43 4.45667 46.89 4.67C46.9433 4.69 46.98 4.7 47 4.7C47.0133 4.7 47.02 4.52333 47.02 4.17C47.02 3.81667 47.0033 3.15667 46.97 2.19C46.9367 1.22333 46.9 0.74 46.86 0.74L45.93 0.86C45.87 0.86 45.8467 0.816667 45.86 0.73C45.8733 0.636667 45.88 0.58 45.88 0.56C45.8867 0.533333 45.89 0.516666 45.89 0.51C45.89 0.496666 45.8933 0.483333 45.9 0.47C45.9 0.456666 45.9033 0.446666 45.91 0.44C45.91 0.433333 45.9133 0.426666 45.92 0.42C45.92 0.413333 45.9267 0.406666 45.94 0.4C45.9533 0.4 46.03 0.39 46.17 0.37C46.31 0.356667 46.5367 0.326666 46.85 0.28C47.1567 0.24 47.4067 0.206666 47.6 0.18C47.7933 0.153333 47.9167 0.14 47.97 0.14C48.03 0.14 48.06 0.19 48.06 0.29C48.06 0.396667 48.0533 0.72 48.04 1.26C47.9933 2.98 47.97 4.48667 47.97 5.78C47.97 7.08 47.9767 7.97333 47.99 8.46C48.0033 8.94 48.03 9.22667 48.07 9.32C48.11 9.41333 48.19 9.46 48.31 9.46C48.3167 9.46 48.3533 9.45667 48.42 9.45L48.63 9.42C48.71 9.40667 48.7733 9.39667 48.82 9.39C48.9067 9.37 48.95 9.39667 48.95 9.47C48.95 9.53667 48.95 9.58667 48.95 9.62C48.95 9.64667 48.9467 9.68 48.94 9.72C48.9267 9.79333 48.89 9.83333 48.83 9.84C47.7233 9.98667 47.1467 10.06 47.1 10.06C47.0533 10.06 47.0233 10.05 47.01 10.03C46.9967 10.0033 46.99 9.95667 46.99 9.89ZM44.1 5.71C43.9867 5.91 43.9 6.12333 43.84 6.35C43.7867 6.58333 43.76 6.84333 43.76 7.13C43.76 7.41667 43.8 7.69667 43.88 7.97C43.96 8.23667 44.08 8.47 44.24 8.67C44.5867 9.10333 45.12 9.32 45.84 9.32C46.0467 9.32 46.2967 9.27333 46.59 9.18C46.8767 9.08667 47.02 8.99333 47.02 8.9V5.4C47.02 5.31333 46.9267 5.20667 46.74 5.08C46.3867 4.84 46.0667 4.72 45.78 4.72C45.4933 4.72 45.2467 4.76 45.04 4.84C44.8333 4.92667 44.6533 5.04333 44.5 5.19C44.3467 5.33667 44.2133 5.51 44.1 5.71ZM52.83 2.07C52.8167 2.15667 52.8 2.21 52.78 2.23C52.7533 2.25667 52.6667 2.27 52.52 2.27C52.38 2.27 52.31 2.21667 52.31 2.11C52.31 2.10333 52.3233 2 52.35 1.8C52.4433 1.12667 52.5 0.68 52.52 0.46C52.5333 0.246667 52.5567 0.123333 52.59 0.0899997C52.6167 0.0566663 52.6967 0.04 52.83 0.04C52.9567 0.04 53.02 0.0833329 53.02 0.17V0.31C53.02 0.356667 53.51 0.38 54.49 0.38H59.49C60.4767 0.38 60.9733 0.336667 60.98 0.25C60.98 0.17 60.9967 0.116666 61.03 0.0899997C61.0633 0.0566663 61.1167 0.04 61.19 0.04C61.2567 0.04 61.3033 0.04 61.33 0.04C61.3567 0.0466666 61.3833 0.0533333 61.41 0.0599999C61.4567 0.0799999 61.48 0.14 61.48 0.24L61.42 2.13C61.42 2.19 61.4033 2.23 61.37 2.25C61.3367 2.26333 61.27 2.27 61.17 2.27C61.0633 2.27 60.9933 2.25333 60.96 2.22C60.9267 2.19333 60.91 2.14333 60.91 2.07L60.95 0.95C60.95 0.883333 60.4333 0.85 59.4 0.85H57.79C57.7367 0.85 57.7067 1.19 57.7 1.87C57.6933 2.55667 57.69 2.94 57.69 3.02L57.6 8.41C57.6 8.99 57.61 9.28 57.63 9.28H58.62C58.7 9.28 58.7533 9.29667 58.78 9.33C58.8067 9.36333 58.82 9.42667 58.82 9.52C58.82 9.62 58.8067 9.69 58.78 9.73C58.7533 9.77 58.7 9.79 58.62 9.79L56.94 9.74L55.22 9.79C55.1267 9.79 55.07 9.77 55.05 9.73C55.0233 9.69667 55.01 9.62333 55.01 9.51C55.01 9.40333 55.0267 9.33667 55.06 9.31C55.0867 9.29 55.16 9.28 55.28 9.28H56.14C56.2 9.28 56.2467 8.37333 56.28 6.56C56.3133 4.75333 56.33 3.35 56.33 2.35C56.33 1.35 56.3 0.85 56.24 0.85H54.25C53.39 0.85 52.9533 0.896666 52.94 0.99L52.83 2.07ZM64.92 6.59L61.8 6.52C61.7733 6.58667 61.76 6.76667 61.76 7.06C61.76 7.36 61.8167 7.65333 61.93 7.94C62.0433 8.23333 62.1933 8.47333 62.38 8.66C62.78 9.05333 63.24 9.25 63.76 9.25C64.3933 9.25 64.9733 8.98 65.5 8.44C65.56 8.37333 65.5967 8.34 65.61 8.34C65.63 8.34 65.68 8.37667 65.76 8.45C65.8467 8.52333 65.89 8.57 65.89 8.59C65.89 8.60333 65.85 8.65667 65.77 8.75C65.6967 8.85 65.5867 8.96667 65.44 9.1C65.2933 9.23333 65.1233 9.36333 64.93 9.49C64.47 9.79667 63.9967 9.95 63.51 9.95C63.03 9.95 62.6167 9.88 62.27 9.74C61.9233 9.6 61.6367 9.40333 61.41 9.15C61.1833 8.90333 61.01 8.60667 60.89 8.26C60.77 7.90667 60.71 7.52333 60.71 7.11C60.71 6.69 60.78 6.29667 60.92 5.93C61.06 5.56333 61.2533 5.24667 61.5 4.98C62.04 4.40667 62.7367 4.12 63.59 4.12C64.2767 4.12 64.81 4.35 65.19 4.81C65.5433 5.23667 65.72 5.76 65.72 6.38C65.72 6.52 65.4533 6.59 64.92 6.59ZM61.95 6.2L64.35 6.14C64.5633 6.14 64.67 6.12333 64.67 6.09C64.67 5.41667 64.4633 4.95 64.05 4.69C63.85 4.56333 63.64 4.5 63.42 4.5C63.2067 4.5 63 4.55333 62.8 4.66C62.6067 4.76667 62.44 4.9 62.3 5.06C62.0133 5.40667 61.8533 5.76333 61.82 6.13C61.82 6.17667 61.8633 6.2 61.95 6.2ZM68.12 9.77L67.21 9.74L66.35 9.77C66.2833 9.77 66.2433 9.75333 66.23 9.72C66.2167 9.69333 66.21 9.63 66.21 9.53C66.21 9.43667 66.2233 9.37667 66.25 9.35C66.2767 9.32333 66.3433 9.31 66.45 9.31C66.55 9.31 66.63 9.29 66.69 9.25C66.75 9.21 66.87 9.1 67.05 8.92L68.73 7.19C68.7767 7.14333 68.8033 7.11 68.81 7.09C68.8167 7.07 68.8033 7.03333 68.77 6.98L67.27 4.97C67.1967 4.87667 67.1467 4.82 67.12 4.8C67.0933 4.78 67.05 4.77 66.99 4.77H66.68C66.5933 4.77 66.54 4.75333 66.52 4.72C66.5 4.69333 66.49 4.64333 66.49 4.57C66.49 4.50333 66.49 4.45667 66.49 4.43C66.5033 4.35 66.5667 4.31 66.68 4.31L67.82 4.34L68.68 4.31C68.7533 4.31 68.8 4.32667 68.82 4.36C68.84 4.4 68.85 4.45333 68.85 4.52C68.85 4.58 68.85 4.62 68.85 4.64C68.85 4.66667 68.8433 4.69 68.83 4.71C68.8167 4.75 68.7433 4.77 68.61 4.77C68.4833 4.77 68.42 4.79 68.42 4.83C68.42 4.87667 68.4567 4.94667 68.53 5.04L69.41 6.33C69.47 6.43 69.5233 6.46 69.57 6.42C69.5767 6.41333 69.59 6.39667 69.61 6.37C69.63 6.35 69.66 6.32 69.7 6.28C69.74 6.24 69.9167 6.03667 70.23 5.67C70.6633 5.15667 70.88 4.88 70.88 4.84C70.88 4.79333 70.7833 4.77 70.59 4.77H70.37C70.2833 4.77 70.23 4.75333 70.21 4.72C70.19 4.68667 70.18 4.64 70.18 4.58C70.18 4.51333 70.1833 4.47 70.19 4.45C70.19 4.43 70.1967 4.40667 70.21 4.38C70.23 4.33333 70.2867 4.31 70.38 4.31L71.18 4.34L71.98 4.31C72.0533 4.31 72.0967 4.32667 72.11 4.36C72.13 4.39333 72.14 4.45333 72.14 4.54C72.14 4.62667 72.13 4.68667 72.11 4.72C72.09 4.75333 72.0433 4.77 71.97 4.77C71.8967 4.77 71.83 4.78333 71.77 4.81C71.71 4.83667 71.6667 4.86 71.64 4.88C71.6133 4.9 71.5633 4.94667 71.49 5.02C71.4167 5.09333 71.3333 5.17333 71.24 5.26C71.14 5.35333 70.9967 5.49 70.81 5.67C70.6233 5.85667 70.43 6.05333 70.23 6.26C70.0233 6.47333 69.8933 6.60333 69.84 6.65C69.7867 6.70333 69.76 6.74 69.76 6.76C69.76 6.78 69.9633 7.07333 70.37 7.64C70.77 8.2 71.0733 8.61 71.28 8.87C71.4867 9.13 71.6033 9.26667 71.63 9.28C71.65 9.3 71.69 9.31 71.75 9.31H71.92C72.04 9.31 72.1033 9.35333 72.11 9.44C72.1167 9.46 72.12 9.49 72.12 9.53C72.12 9.57 72.1167 9.6 72.11 9.62C72.11 9.64667 72.1033 9.67 72.09 9.69C72.07 9.74333 72.0167 9.77 71.93 9.77L70.92 9.74L69.95 9.77C69.8233 9.77 69.7567 9.72667 69.75 9.64C69.75 9.61333 69.75 9.57 69.75 9.51C69.75 9.37667 69.81 9.31 69.93 9.31H70.11C70.2433 9.31 70.31 9.28667 70.31 9.24C70.31 9.2 70.2967 9.16 70.27 9.12C70.2433 9.07333 70.2067 9.02 70.16 8.96C70.1133 8.89333 70.0233 8.75333 69.89 8.54C69.7567 8.32 69.6 8.09 69.42 7.85C69.24 7.61 69.1433 7.48 69.13 7.46C69.1167 7.44667 69.11 7.43667 69.11 7.43C69.1033 7.42333 69.0933 7.41667 69.08 7.41C69.0667 7.39667 69.0533 7.39 69.04 7.39C69.0267 7.39 68.9967 7.41667 68.95 7.47C68.91 7.52333 68.7833 7.67333 68.57 7.92C67.87 8.73333 67.5267 9.17667 67.54 9.25C67.5467 9.29 67.6 9.31 67.7 9.31H68.12C68.2467 9.31 68.3133 9.35333 68.32 9.44C68.32 9.46 68.32 9.49 68.32 9.53C68.32 9.57 68.32 9.6 68.32 9.62C68.32 9.64667 68.3133 9.67 68.3 9.69C68.2733 9.74333 68.2133 9.77 68.12 9.77ZM73.47 8.87L73.5 5.84C73.5 5.29333 73.4467 5.02 73.34 5.02H72.99C72.9167 5.02 72.88 4.97333 72.88 4.88C72.88 4.83333 72.9033 4.78667 72.95 4.74L74.23 2.97C74.2833 2.88333 74.3433 2.84 74.41 2.84C74.51 2.84 74.56 2.89667 74.56 3.01L74.48 4.35C74.48 4.40333 74.4833 4.43333 74.49 4.44C74.5033 4.44667 74.5367 4.45 74.59 4.45H76.03C76.0967 4.45 76.13 4.48 76.13 4.54C76.13 4.54667 76.1167 4.61 76.09 4.73C76.0633 4.84333 76.0333 4.92 76 4.96C75.9667 4.99333 75.92 5.01 75.86 5.01H74.53C74.4967 5.01 74.48 5.21 74.48 5.61V8.3C74.48 8.64 74.5133 8.84667 74.58 8.92C74.7133 9.06 74.8733 9.13 75.06 9.13C75.2533 9.13 75.4333 9.11 75.6 9.07C75.7733 9.03667 75.9167 9 76.03 8.96C76.15 8.92 76.23 8.9 76.27 8.9C76.31 8.9 76.33 8.94667 76.33 9.04C76.33 9.12667 76.3267 9.17667 76.32 9.19C76.3067 9.20333 76.25 9.24667 76.15 9.32C76.05 9.39333 75.81 9.50333 75.43 9.65C75.05 9.79667 74.7533 9.87 74.54 9.87C74.3333 9.87 74.1567 9.84 74.01 9.78C73.87 9.71333 73.7633 9.63 73.69 9.53C73.5433 9.33667 73.47 9.11667 73.47 8.87Z" fill="black"/>
</svg>
