<svg width="46" height="12" viewBox="0 0 46 12" fill="none" xmlns="http://www.w3.org/2000/svg">
<path d="M7.53111 0.582667C7.55778 0.662666 7.57111 0.716 7.57111 0.742667C7.59111 0.769333 7.62444 0.809333 7.67111 0.862667C7.72444 0.909333 7.76444 0.932667 7.79111 0.932667C7.89778 0.932667 7.96111 0.939334 7.98111 0.952667C7.98778 0.952667 7.99444 0.956 8.00111 0.962667C8.00778 0.969333 8.01444 0.972667 8.02111 0.972667C8.02111 1.07267 8.02778 1.12933 8.04111 1.14267C8.05444 1.156 8.06111 1.16933 8.06111 1.18267C8.06111 1.22933 8.05444 1.29267 8.04111 1.37267C8.01444 1.45267 7.98111 1.526 7.94111 1.59267L7.80111 1.81267C7.76111 1.886 7.71444 1.95267 7.66111 2.01267L7.52111 2.20267C7.48111 2.256 7.44778 2.31933 7.42111 2.39267C7.40111 2.45267 7.35778 2.50933 7.29111 2.56267C7.22444 2.60933 7.15778 2.656 7.09111 2.70267C7.03111 2.74267 6.97444 2.79267 6.92111 2.85267L6.75111 3.05267C6.73111 3.09933 6.70778 3.13933 6.68111 3.17267C6.65444 3.19267 6.62778 3.226 6.60111 3.27267C6.55444 3.346 6.51111 3.42933 6.47111 3.52267C6.43778 3.60933 6.37778 3.68267 6.29111 3.74267C6.15111 3.98267 6.00444 4.18933 5.85111 4.36267C5.67778 4.56933 5.52111 4.776 5.38111 4.98267C5.50111 4.98933 5.60444 4.986 5.69111 4.97267C5.74444 4.966 5.80111 4.95933 5.86111 4.95267C5.92111 4.95267 5.98111 4.94933 6.04111 4.94267C6.31444 4.92267 6.57111 4.90933 6.81111 4.90267C7.04444 4.88933 7.28111 4.88267 7.52111 4.88267C7.59444 4.94267 7.61778 5.01267 7.59111 5.09267C7.54444 5.09267 7.50778 5.10267 7.48111 5.12267C7.46111 5.14933 7.42778 5.15267 7.38111 5.13267C7.34111 5.15267 7.31778 5.176 7.31111 5.20267C7.31111 5.22267 7.29778 5.246 7.27111 5.27267C7.21778 5.43267 7.09778 5.516 6.91111 5.52267C6.81778 5.52933 6.72778 5.53267 6.64111 5.53267C6.55444 5.53933 6.47444 5.546 6.40111 5.55267C6.30111 5.55933 6.24778 5.566 6.24111 5.57267C6.23444 5.57933 6.22778 5.58267 6.22111 5.58267L5.72111 5.64267C5.63444 5.656 5.55111 5.666 5.47111 5.67267C5.38444 5.686 5.30111 5.696 5.22111 5.70267C5.17444 5.74267 5.12111 5.756 5.06111 5.74267C5.00111 5.72933 4.95111 5.73267 4.91111 5.75267C4.87778 5.77267 4.85778 5.79267 4.85111 5.81267C4.84444 5.83933 4.83111 5.86933 4.81111 5.90267C4.77111 5.94933 4.73111 6.006 4.69111 6.07267C4.65111 6.146 4.60778 6.206 4.56111 6.25267C4.47444 6.33933 4.39444 6.44933 4.32111 6.58267C4.28111 6.616 4.25111 6.646 4.23111 6.67267C4.21111 6.71933 4.18444 6.756 4.15111 6.78267C4.01111 6.98267 3.85444 7.18933 3.68111 7.40267C3.65444 7.44267 3.62778 7.48267 3.60111 7.52267C3.58111 7.56267 3.55778 7.60267 3.53111 7.64267L3.37111 7.89267C3.31778 7.99933 3.27444 8.11267 3.24111 8.23267C3.20778 8.31933 3.17778 8.38267 3.15111 8.42267C3.13111 8.44267 3.11444 8.46933 3.10111 8.50267C3.09444 8.52933 3.08444 8.55933 3.07111 8.59267C3.03111 8.666 2.98778 8.74267 2.94111 8.82267C2.89444 8.90267 2.84778 8.98933 2.80111 9.08267C2.68111 9.26267 2.55444 9.456 2.42111 9.66267C2.29444 9.86933 2.17111 10.0827 2.05111 10.3027C2.03111 10.3293 2.01444 10.356 2.00111 10.3827C1.98111 10.4093 1.96444 10.4393 1.95111 10.4727C1.92444 10.5327 1.88778 10.586 1.84111 10.6327C1.81444 10.666 1.78444 10.6927 1.75111 10.7127C1.73778 10.7193 1.72444 10.7293 1.71111 10.7427C1.69778 10.7493 1.68444 10.756 1.67111 10.7627C1.59778 10.816 1.51111 10.876 1.41111 10.9427C1.31111 11.0093 1.22444 11.0627 1.15111 11.1027C1.05111 11.1427 0.981111 11.1893 0.941111 11.2427C0.907778 11.296 0.881111 11.356 0.861111 11.4227C0.721111 11.4827 0.624444 11.4827 0.571111 11.4227C0.517778 11.356 0.494444 11.296 0.501111 11.2427C0.501111 11.2093 0.527778 11.1593 0.581111 11.0927C0.601111 11.0593 0.621111 11.0327 0.641111 11.0127C0.661111 10.986 0.674444 10.9627 0.681111 10.9427L0.821111 10.7427C0.847778 10.6693 0.867778 10.6193 0.881111 10.5927C0.894444 10.5593 0.911111 10.5293 0.931111 10.5027L0.981111 10.4227C0.994444 10.4027 1.00111 10.376 1.00111 10.3427C1.04111 10.2893 1.07778 10.2327 1.11111 10.1727C1.12444 10.1393 1.13778 10.1093 1.15111 10.0827C1.16444 10.0493 1.18111 10.016 1.20111 9.98267C1.28111 9.90933 1.34444 9.82267 1.39111 9.72267C1.44444 9.62933 1.51444 9.53933 1.60111 9.45267C1.61444 9.39933 1.63778 9.35267 1.67111 9.31267C1.69778 9.27933 1.72778 9.24267 1.76111 9.20267C1.81444 9.10267 1.87444 8.996 1.94111 8.88267C2.00111 8.78267 2.04111 8.65933 2.06111 8.51267C2.09444 8.37267 2.14111 8.26267 2.20111 8.18267C2.24778 8.116 2.29778 8.03933 2.35111 7.95267C2.37111 7.886 2.38778 7.826 2.40111 7.77267C2.42111 7.71933 2.45444 7.66933 2.50111 7.62267C2.55444 7.52933 2.60111 7.446 2.64111 7.37267C2.67444 7.29933 2.71444 7.21933 2.76111 7.13267C2.80778 7.01267 2.87444 6.88267 2.96111 6.74267C2.97444 6.72933 2.98444 6.716 2.99111 6.70267C3.00444 6.68933 3.01444 6.67933 3.02111 6.67267C3.02778 6.65933 3.03778 6.646 3.05111 6.63267C3.05778 6.61933 3.06444 6.60267 3.07111 6.58267C3.11778 6.516 3.14778 6.456 3.16111 6.40267C3.18111 6.356 3.21111 6.296 3.25111 6.22267C3.27778 6.18267 3.30778 6.146 3.34111 6.11267C3.37444 6.07933 3.39111 6.026 3.39111 5.95267C3.31111 5.93267 3.23778 5.94267 3.17111 5.98267C3.11778 5.98267 3.06111 5.98933 3.00111 6.00267C2.93444 6.00933 2.86444 6.01933 2.79111 6.03267C2.63111 6.05267 2.48778 6.06267 2.36111 6.06267C2.31444 6.06267 2.26444 6.066 2.21111 6.07267C2.15111 6.07267 2.09444 6.07933 2.04111 6.09267L1.90111 6.15267C1.85444 6.17267 1.80778 6.15933 1.76111 6.11267C1.72778 6.066 1.70444 6.03933 1.69111 6.03267C1.67111 6.01933 1.65778 6.006 1.65111 5.99267C1.59778 5.89267 1.54778 5.81933 1.50111 5.77267C1.49444 5.75933 1.48444 5.736 1.47111 5.70267C1.46444 5.676 1.44444 5.656 1.41111 5.64267C1.38444 5.60933 1.35444 5.55933 1.32111 5.49267C1.41444 5.37267 1.53778 5.31267 1.69111 5.31267C1.89111 5.266 2.09111 5.226 2.29111 5.19267C2.49111 5.15933 2.68778 5.136 2.88111 5.12267C3.08111 5.10267 3.27778 5.07933 3.47111 5.05267C3.66444 5.03267 3.85444 5.00933 4.04111 4.98267C4.07444 4.96267 4.09778 4.936 4.11111 4.90267C4.12444 4.86933 4.13778 4.84267 4.15111 4.82267C4.17778 4.78933 4.20444 4.75933 4.23111 4.73267C4.25111 4.706 4.27444 4.68267 4.30111 4.66267C4.34778 4.60933 4.38444 4.546 4.41111 4.47267C4.45778 4.45267 4.48111 4.43267 4.48111 4.41267C4.48778 4.386 4.50778 4.36267 4.54111 4.34267C4.57444 4.28933 4.59444 4.246 4.60111 4.21267C4.60778 4.17267 4.61778 4.146 4.63111 4.13267C4.74444 3.99267 4.81444 3.896 4.84111 3.84267C4.87444 3.776 4.91444 3.71267 4.96111 3.65267C4.98778 3.626 5.01111 3.596 5.03111 3.56267C5.05111 3.536 5.07444 3.50933 5.10111 3.48267C5.12111 3.46267 5.14444 3.43933 5.17111 3.41267C5.19111 3.386 5.21111 3.35933 5.23111 3.33267C5.25111 3.306 5.27111 3.28267 5.29111 3.26267C5.30444 3.24933 5.31778 3.23267 5.33111 3.21267L5.41111 3.11267C5.48444 2.986 5.58111 2.85267 5.70111 2.71267C5.80111 2.59933 5.88444 2.47267 5.95111 2.33267C6.00444 2.326 6.03778 2.29933 6.05111 2.25267C6.06444 2.21933 6.08778 2.186 6.12111 2.15267C6.16778 2.046 6.22444 1.94933 6.29111 1.86267C6.35111 1.76933 6.40444 1.66933 6.45111 1.56267C6.40444 1.556 6.35111 1.566 6.29111 1.59267C6.23111 1.61933 6.16111 1.63267 6.08111 1.63267C6.03444 1.63933 5.99444 1.64933 5.96111 1.66267C5.92111 1.66933 5.88778 1.676 5.86111 1.68267C5.83444 1.696 5.80444 1.706 5.77111 1.71267C5.74444 1.726 5.71111 1.736 5.67111 1.74267C5.53778 1.76267 5.39444 1.80267 5.24111 1.86267C5.16778 1.896 5.09444 1.926 5.02111 1.95267C4.94778 1.97933 4.87778 1.99933 4.81111 2.01267C4.63778 2.03267 4.46778 2.05267 4.30111 2.07267C4.14111 2.086 3.98444 2.10267 3.83111 2.12267C3.67111 2.14267 3.51444 2.15933 3.36111 2.17267C3.20111 2.19267 3.04111 2.20933 2.88111 2.22267C2.84778 2.22267 2.81111 2.226 2.77111 2.23267C2.73778 2.23933 2.70111 2.246 2.66111 2.25267C2.62778 2.25267 2.59111 2.256 2.55111 2.26267C2.51778 2.26267 2.48444 2.26267 2.45111 2.26267C2.30444 2.26267 2.15778 2.276 2.01111 2.30267C1.96444 2.296 1.92111 2.296 1.88111 2.30267C1.85444 2.30933 1.81444 2.30933 1.76111 2.30267C1.65444 2.26933 1.58778 2.24267 1.56111 2.22267C1.53444 2.20267 1.49778 2.19267 1.45111 2.19267C1.40444 2.166 1.37778 2.14933 1.37111 2.14267C1.35111 2.12267 1.33111 2.11267 1.31111 2.11267C1.24444 2.03267 1.20778 1.97933 1.20111 1.95267C1.19444 1.93267 1.22111 1.90267 1.28111 1.86267C1.32111 1.776 1.39778 1.72267 1.51111 1.70267C1.61778 1.68267 1.71111 1.656 1.79111 1.62267C1.85111 1.60933 1.91444 1.596 1.98111 1.58267C2.04778 1.56267 2.10778 1.54933 2.16111 1.54267C2.22778 1.536 2.29444 1.526 2.36111 1.51267C2.42111 1.49933 2.48444 1.486 2.55111 1.47267C2.62444 1.446 2.69111 1.426 2.75111 1.41267C2.80444 1.406 2.85444 1.39933 2.90111 1.39267C2.97444 1.386 3.05111 1.366 3.13111 1.33267C3.26444 1.326 3.39444 1.306 3.52111 1.27267C3.58111 1.25267 3.64444 1.236 3.71111 1.22267C3.77111 1.20933 3.83111 1.196 3.89111 1.18267C3.91778 1.16933 3.95778 1.156 4.01111 1.14267C4.05778 1.136 4.09111 1.12267 4.11111 1.10267C4.21111 1.10267 4.26111 1.09267 4.26111 1.07267C4.49444 1.026 4.72444 0.976 4.95111 0.922667C5.17778 0.869333 5.40111 0.816 5.62111 0.762667C6.05444 0.642667 6.51444 0.559334 7.00111 0.512667C7.20111 0.486 7.37778 0.509333 7.53111 0.582667ZM9.71111 6.58267L9.69111 6.69267C9.70444 6.726 9.69444 6.77933 9.66111 6.85267C9.62111 6.906 9.59444 6.966 9.58111 7.03267C9.56111 7.07267 9.54444 7.106 9.53111 7.13267C9.51778 7.15933 9.50778 7.196 9.50111 7.24267C9.48111 7.296 9.47444 7.35933 9.48111 7.43267C9.48778 7.466 9.48778 7.49933 9.48111 7.53267C9.48111 7.566 9.47778 7.59933 9.47111 7.63267C9.45778 7.73267 9.44444 7.83267 9.43111 7.93267C9.42444 8.026 9.41444 8.12267 9.40111 8.22267C9.40111 8.32267 9.39444 8.436 9.38111 8.56267C9.36111 8.68933 9.34111 8.80267 9.32111 8.90267C9.36111 8.976 9.38444 9.046 9.39111 9.11267C9.39778 9.17933 9.43111 9.23933 9.49111 9.29267C9.67111 9.266 9.81444 9.22267 9.92111 9.16267C10.0344 9.10267 10.1411 9.016 10.2411 8.90267C10.3144 8.876 10.3711 8.846 10.4111 8.81267C10.4444 8.77933 10.4978 8.74267 10.5711 8.70267L10.6811 8.59267C10.7878 8.53267 10.8478 8.496 10.8611 8.48267C10.8678 8.476 10.8811 8.466 10.9011 8.45267C10.9144 8.446 10.9311 8.436 10.9511 8.42267C11.1044 8.32267 11.2211 8.21933 11.3011 8.11267C11.3744 8.05933 11.4344 8.00267 11.4811 7.94267C11.5144 7.88933 11.5844 7.84267 11.6911 7.80267C11.7511 7.72933 11.8178 7.666 11.8911 7.61267C11.9644 7.566 12.0278 7.506 12.0811 7.43267C12.1344 7.43267 12.1711 7.43933 12.1911 7.45267C12.2044 7.466 12.2211 7.476 12.2411 7.48267C12.2544 7.496 12.2711 7.506 12.2911 7.51267C12.3178 7.586 12.3211 7.65933 12.3011 7.73267C12.2878 7.81267 12.2578 7.886 12.2111 7.95267C12.1644 8.01267 12.1411 8.04933 12.1411 8.06267C12.1411 8.06933 12.1344 8.076 12.1211 8.08267C12.0944 8.116 12.0611 8.15267 12.0211 8.19267C11.9811 8.21933 11.9478 8.25267 11.9211 8.29267C11.8744 8.37267 11.8378 8.41267 11.8111 8.41267C11.7844 8.41267 11.7611 8.42267 11.7411 8.44267C11.6611 8.48933 11.6044 8.526 11.5711 8.55267C11.5378 8.586 11.4844 8.62267 11.4111 8.66267C11.3178 8.70933 11.2611 8.746 11.2411 8.77267C11.2144 8.79267 11.1944 8.806 11.1811 8.81267C11.0744 8.93267 10.9678 9.036 10.8611 9.12267C10.7678 9.18933 10.6644 9.28933 10.5511 9.42267C10.5178 9.44933 10.4811 9.47933 10.4411 9.51267C10.4078 9.53933 10.3778 9.57267 10.3511 9.61267C10.2644 9.67267 10.1978 9.72933 10.1511 9.78267C10.0978 9.836 10.0411 9.89933 9.98111 9.97267C9.92778 9.99933 9.86778 10.0393 9.80111 10.0927C9.72111 10.146 9.65444 10.1893 9.60111 10.2227C9.57444 10.236 9.53444 10.256 9.48111 10.2827C9.43444 10.3027 9.39111 10.3127 9.35111 10.3127C9.24444 10.3327 9.14444 10.3227 9.05111 10.2827C8.96444 10.256 8.87778 10.2293 8.79111 10.2027C8.75111 10.1493 8.70444 10.106 8.65111 10.0727C8.57111 9.97267 8.51111 9.85267 8.47111 9.71267C8.43778 9.57933 8.40444 9.43267 8.37111 9.27267C8.28444 9.326 8.21444 9.386 8.16111 9.45267C8.10778 9.51933 8.02444 9.57933 7.91111 9.63267C7.82444 9.71933 7.73111 9.80267 7.63111 9.88267C7.53778 9.96933 7.43778 10.0527 7.33111 10.1327C7.23111 10.206 7.13111 10.286 7.03111 10.3727C6.92444 10.4593 6.81778 10.546 6.71111 10.6327C6.63778 10.706 6.58778 10.7327 6.56111 10.7127C6.48111 10.8127 6.33444 10.8427 6.12111 10.8027C6.04778 10.7693 5.96778 10.7393 5.88111 10.7127C5.81444 10.6927 5.74111 10.666 5.66111 10.6327C5.50778 10.606 5.37778 10.536 5.27111 10.4227C5.16444 10.316 5.07444 10.1893 5.00111 10.0427C4.97444 9.96267 4.95444 9.89267 4.94111 9.83267C4.93444 9.806 4.92778 9.77267 4.92111 9.73267C4.91444 9.69933 4.90444 9.65933 4.89111 9.61267C4.89111 9.53933 4.87778 9.47933 4.85111 9.43267C4.83111 9.37933 4.83111 9.33267 4.85111 9.29267C4.83111 9.266 4.82778 9.236 4.84111 9.20267C4.84778 9.156 4.85111 9.11933 4.85111 9.09267C4.84444 8.966 4.85778 8.82933 4.89111 8.68267C4.91778 8.54267 4.96111 8.41267 5.02111 8.29267C5.04778 8.246 5.08111 8.19933 5.12111 8.15267C5.14778 8.126 5.16444 8.09933 5.17111 8.07267C5.17111 8.05267 5.18444 8.02933 5.21111 8.00267C5.23111 7.976 5.25778 7.94933 5.29111 7.92267C5.33778 7.88267 5.36778 7.856 5.38111 7.84267C5.40778 7.80933 5.43444 7.776 5.46111 7.74267C5.48111 7.716 5.50778 7.69267 5.54111 7.67267C5.57444 7.646 5.60444 7.61933 5.63111 7.59267C5.65778 7.566 5.68444 7.53933 5.71111 7.51267C5.74444 7.47933 5.77111 7.446 5.79111 7.41267C5.81111 7.37933 5.84444 7.35267 5.89111 7.33267C5.93111 7.27267 5.97111 7.21933 6.01111 7.17267C6.05778 7.13267 6.10778 7.08933 6.16111 7.04267C6.32111 6.856 6.51444 6.69933 6.74111 6.57267C6.97444 6.43933 7.17778 6.29267 7.35111 6.13267C7.41778 6.106 7.47444 6.07267 7.52111 6.03267C7.56778 5.99933 7.61111 5.96267 7.65111 5.92267C7.77111 5.82267 7.89444 5.79267 8.02111 5.83267L8.38111 5.92267C8.47444 6.00933 8.56444 6.09267 8.65111 6.17267C8.73778 6.25267 8.81111 6.34267 8.87111 6.44267C8.90444 6.44267 8.93778 6.43933 8.97111 6.43267C9.01111 6.43267 9.05111 6.436 9.09111 6.44267C9.17111 6.44933 9.25778 6.44267 9.35111 6.42267C9.37778 6.42267 9.40444 6.41267 9.43111 6.39267C9.45778 6.37933 9.48111 6.37267 9.50111 6.37267C9.64111 6.41933 9.71111 6.48933 9.71111 6.58267ZM7.90111 6.78267C7.65444 6.90267 7.43111 7.04267 7.23111 7.20267C7.03111 7.36267 6.84111 7.53267 6.66111 7.71267C6.63444 7.73933 6.60778 7.76267 6.58111 7.78267C6.56111 7.80267 6.53778 7.82267 6.51111 7.84267C6.49111 7.86267 6.46778 7.886 6.44111 7.91267C6.42111 7.93267 6.40111 7.95267 6.38111 7.97267C6.34778 8.01933 6.31444 8.076 6.28111 8.14267C6.24778 8.20267 6.21778 8.26267 6.19111 8.32267C6.18444 8.336 6.17444 8.35267 6.16111 8.37267C6.15444 8.386 6.14778 8.396 6.14111 8.40267C6.12778 8.416 6.11778 8.42933 6.11111 8.44267C6.10444 8.456 6.09444 8.46933 6.08111 8.48267C6.06111 8.52933 6.05444 8.576 6.06111 8.62267C6.06778 8.64933 6.07111 8.69933 6.07111 8.77267V8.90267C6.07111 8.92933 6.07444 8.976 6.08111 9.04267C6.10778 9.14267 6.12111 9.24267 6.12111 9.34267C6.12111 9.416 6.12778 9.506 6.14111 9.61267C6.15444 9.71267 6.19111 9.78267 6.25111 9.82267C6.30444 9.856 6.36111 9.866 6.42111 9.85267C6.48111 9.826 6.53111 9.81267 6.57111 9.81267C6.89111 9.566 7.19444 9.306 7.48111 9.03267C7.76111 8.766 8.01111 8.46267 8.23111 8.12267C8.21111 7.90267 8.20778 7.67267 8.22111 7.43267C8.23444 7.21267 8.21444 7.006 8.16111 6.81267C8.12778 6.79267 8.08444 6.786 8.03111 6.79267C7.99778 6.79933 7.95444 6.796 7.90111 6.78267ZM12.5611 8.30267L12.6411 8.37267C12.6678 8.406 12.6611 8.456 12.6211 8.52267C12.6078 8.556 12.5944 8.586 12.5811 8.61267C12.5678 8.63933 12.5578 8.66267 12.5511 8.68267C12.5578 8.70267 12.5611 8.72267 12.5611 8.74267C12.5678 8.756 12.5744 8.766 12.5811 8.77267C12.5878 8.79933 12.5811 8.82933 12.5611 8.86267C12.6278 8.916 12.6711 8.96933 12.6911 9.02267C12.7111 9.096 12.7411 9.156 12.7811 9.20267C12.8344 9.26267 12.8811 9.30933 12.9211 9.34267C12.9744 9.376 13.0244 9.416 13.0711 9.46267C13.1178 9.436 13.1544 9.42267 13.1811 9.42267C13.2144 9.42267 13.2511 9.416 13.2911 9.40267C13.3644 9.30267 13.4278 9.17267 13.4811 9.01267C13.4878 8.97933 13.4978 8.93933 13.5111 8.89267C13.5178 8.846 13.5211 8.806 13.5211 8.77267C13.5144 8.65267 13.4778 8.52933 13.4111 8.40267C13.3444 8.26933 13.2944 8.146 13.2611 8.03267C13.2278 7.95267 13.2178 7.86933 13.2311 7.78267C13.2444 7.68933 13.2411 7.60933 13.2211 7.54267C13.2144 7.496 13.2011 7.45933 13.1811 7.43267C13.1678 7.41933 13.1578 7.40267 13.1511 7.38267C13.1444 7.36933 13.1344 7.35267 13.1211 7.33267C13.1078 7.25267 13.1011 7.17267 13.1011 7.09267C13.1144 6.99933 13.0944 6.91933 13.0411 6.85267C12.9878 6.906 12.9011 7.00933 12.7811 7.16267C12.6611 7.316 12.5444 7.46933 12.4311 7.62267C12.3111 7.76933 12.2278 7.86933 12.1811 7.92267C12.1611 7.956 12.1378 7.986 12.1111 8.01267C12.0844 8.046 12.0578 8.07267 12.0311 8.09267C12.0044 8.11267 11.9778 8.13933 11.9511 8.17267C11.9244 8.19933 11.9011 8.22933 11.8811 8.26267C11.7344 8.44267 11.6244 8.576 11.5511 8.66267C11.4844 8.74933 11.4178 8.83933 11.3511 8.93267C11.2778 9.026 11.1678 9.17267 11.0211 9.37267C10.9678 9.446 10.8811 9.56267 10.7611 9.72267C10.6411 9.88933 10.5244 10.0493 10.4111 10.2027C10.3044 10.356 10.2378 10.456 10.2111 10.5027C10.1578 10.596 10.0878 10.676 10.0011 10.7427C9.91444 10.8093 9.81111 10.8427 9.69111 10.8427C9.69111 10.8427 9.68111 10.8093 9.66111 10.7427C9.64778 10.676 9.63111 10.606 9.61111 10.5327C9.59778 10.466 9.58778 10.4293 9.58111 10.4227C9.60778 10.3693 9.62778 10.316 9.64111 10.2627C9.65444 10.2093 9.69444 10.1593 9.76111 10.1127C9.78111 10.0527 9.83444 9.95267 9.92111 9.81267C10.0078 9.67267 10.1078 9.52267 10.2211 9.36267C10.3344 9.20267 10.4411 9.05267 10.5411 8.91267C10.6344 8.77933 10.6978 8.686 10.7311 8.63267C10.7911 8.57267 10.8778 8.46933 10.9911 8.32267C11.0978 8.176 11.2078 8.02933 11.3211 7.88267C11.4344 7.736 11.5144 7.62933 11.5611 7.56267C11.6078 7.44267 11.6944 7.28933 11.8211 7.10267C11.9544 6.92267 12.0944 6.73267 12.2411 6.53267C12.3878 6.33933 12.5078 6.17267 12.6011 6.03267C12.6478 5.95933 12.6878 5.896 12.7211 5.84267C12.7544 5.78933 12.7878 5.72933 12.8211 5.66267C12.8611 5.62933 12.8944 5.58933 12.9211 5.54267C12.9411 5.476 12.9311 5.42267 12.8911 5.38267C12.8578 5.34933 12.8444 5.30267 12.8511 5.24267C12.9311 5.08933 13.0111 4.99267 13.0911 4.95267C13.1711 4.906 13.2511 4.82933 13.3311 4.72267C13.3844 4.68933 13.4278 4.66267 13.4611 4.64267C13.5078 4.616 13.5511 4.58267 13.5911 4.54267C13.6511 4.48267 13.7444 4.466 13.8711 4.49267C13.9978 4.526 14.0711 4.566 14.0911 4.61267C14.0978 4.63933 14.0978 4.676 14.0911 4.72267C14.0911 4.74267 14.0878 4.766 14.0811 4.79267C14.0744 4.81267 14.0711 4.836 14.0711 4.86267C14.0578 4.90267 14.0478 4.93933 14.0411 4.97267C14.0344 5.01267 14.0244 5.04933 14.0111 5.08267C14.0044 5.116 13.9944 5.15267 13.9811 5.19267C13.9744 5.23267 13.9678 5.27267 13.9611 5.31267C13.9411 5.41267 13.9244 5.506 13.9111 5.59267C13.8978 5.686 13.9278 5.77267 14.0011 5.85267C13.9878 5.89933 13.9878 5.956 14.0011 6.02267C14.0211 6.08267 14.0378 6.14267 14.0511 6.20267C14.0711 6.48933 14.1244 6.776 14.2111 7.06267C14.2978 7.356 14.3911 7.61933 14.4911 7.85267C14.4911 7.89933 14.4978 7.946 14.5111 7.99267C14.5244 8.03933 14.5411 8.08267 14.5611 8.12267C14.5878 8.416 14.5611 8.706 14.4811 8.99267C14.4344 9.13267 14.3944 9.276 14.3611 9.42267C14.3211 9.56267 14.2811 9.69933 14.2411 9.83267C14.1878 9.926 14.1444 10.0327 14.1111 10.1527C14.0778 10.2527 14.0311 10.3393 13.9711 10.4127C13.9244 10.486 13.8844 10.566 13.8511 10.6527C13.8111 10.746 13.7378 10.8193 13.6311 10.8727C13.5711 10.8927 13.5078 10.8927 13.4411 10.8727C13.3878 10.8527 13.3311 10.8527 13.2711 10.8727C13.2311 10.8793 13.1911 10.8927 13.1511 10.9127C13.1178 10.926 13.0811 10.9327 13.0411 10.9327C12.9211 10.9527 12.8244 10.9393 12.7511 10.8927C12.6778 10.8593 12.5844 10.8293 12.4711 10.8027C12.4711 10.776 12.4578 10.756 12.4311 10.7427C12.3978 10.7293 12.3744 10.7127 12.3611 10.6927C12.3278 10.5593 12.2911 10.456 12.2511 10.3827C12.2178 10.316 12.1911 10.246 12.1711 10.1727C12.1378 10.0727 12.1211 9.976 12.1211 9.88267C12.1211 9.78267 12.1011 9.686 12.0611 9.59267C12.0211 9.506 12.0044 9.456 12.0111 9.44267C12.0178 9.42267 12.0211 9.39267 12.0211 9.35267C12.0211 9.23933 12.0144 9.10933 12.0011 8.96267C11.9811 8.82267 12.0378 8.70933 12.1711 8.62267C12.2178 8.58267 12.2511 8.53267 12.2711 8.47267C12.2911 8.426 12.3278 8.376 12.3811 8.32267C12.4011 8.30267 12.4311 8.29267 12.4711 8.29267C12.5044 8.29267 12.5344 8.296 12.5611 8.30267ZM19.6311 2.83267C19.8311 2.866 20.0044 2.886 20.1511 2.89267C20.3044 2.906 20.4678 2.896 20.6411 2.86267L21.1811 2.79267C21.3278 2.77267 21.5044 2.74933 21.7111 2.72267C21.7644 2.72267 21.8211 2.72267 21.8811 2.72267C21.9144 2.72933 21.9444 2.73267 21.9711 2.73267C21.9978 2.73933 22.0244 2.74267 22.0511 2.74267C22.1711 2.74267 22.2878 2.736 22.4011 2.72267C22.5144 2.716 22.6211 2.70933 22.7211 2.70267C22.7411 2.696 22.7578 2.68933 22.7711 2.68267C22.7911 2.68267 22.8078 2.67933 22.8211 2.67267C22.8478 2.666 22.8744 2.666 22.9011 2.67267C22.9411 2.67267 22.9811 2.67267 23.0211 2.67267C23.0611 2.67267 23.1011 2.66933 23.1411 2.66267C23.2278 2.66267 23.3011 2.69267 23.3611 2.75267C23.3878 2.846 23.3978 2.896 23.3911 2.90267C23.3778 2.916 23.3678 2.92933 23.3611 2.94267C23.3544 3.06267 23.3411 3.12267 23.3211 3.12267C23.2944 3.12267 23.2811 3.13267 23.2811 3.15267C23.2078 3.166 23.1478 3.18267 23.1011 3.20267C23.0478 3.216 23.0078 3.24267 22.9811 3.28267C22.8278 3.316 22.6844 3.32267 22.5511 3.30267C22.4178 3.28267 22.2844 3.306 22.1511 3.37267C22.0778 3.39933 22.0111 3.43267 21.9511 3.47267C21.8844 3.51267 21.8011 3.516 21.7011 3.48267C21.6078 3.48267 21.5011 3.486 21.3811 3.49267C21.2611 3.49933 21.1478 3.50933 21.0411 3.52267C20.8878 3.536 20.7144 3.54933 20.5211 3.56267C20.3278 3.58267 20.1778 3.59267 20.0711 3.59267C19.9711 3.59933 19.8278 3.606 19.6411 3.61267C19.4544 3.626 19.2878 3.63267 19.1411 3.63267C19.0678 3.686 19.0211 3.76267 19.0011 3.86267C18.9744 3.956 18.9244 4.02933 18.8511 4.08267C18.7711 4.26267 18.7111 4.37933 18.6711 4.43267C18.6311 4.486 18.6011 4.556 18.5811 4.64267C18.4544 4.80267 18.3378 4.97267 18.2311 5.15267C18.1378 5.31933 18.0178 5.486 17.8711 5.65267C17.8511 5.75267 17.8144 5.84267 17.7611 5.92267C17.7211 5.996 17.6878 6.096 17.6611 6.22267C17.5678 6.356 17.4944 6.506 17.4411 6.67267C17.4211 6.75933 17.3944 6.846 17.3611 6.93267C17.3344 7.01933 17.3044 7.106 17.2711 7.19267C17.2511 7.266 17.2278 7.33933 17.2011 7.41267C17.1811 7.47933 17.1578 7.54933 17.1311 7.62267C17.0978 7.70267 17.0544 7.786 17.0011 7.87267C16.9744 7.91267 16.9511 7.95267 16.9311 7.99267C16.9044 8.03933 16.8811 8.08267 16.8611 8.12267C16.8411 8.14267 16.8311 8.16933 16.8311 8.20267C16.8311 8.22267 16.8244 8.246 16.8111 8.27267C16.7978 8.306 16.7844 8.33933 16.7711 8.37267C16.7578 8.39933 16.7444 8.426 16.7311 8.45267C16.7178 8.47933 16.6944 8.526 16.6611 8.59267C16.6478 8.626 16.6378 8.67267 16.6311 8.73267C16.6244 8.79933 16.6144 8.84933 16.6011 8.88267C16.5944 8.896 16.5878 8.90933 16.5811 8.92267C16.5811 8.936 16.5778 8.946 16.5711 8.95267C16.5644 8.95933 16.5578 8.97267 16.5511 8.99267C16.5511 9.006 16.5478 9.01933 16.5411 9.03267C16.5144 9.15933 16.5144 9.246 16.5411 9.29267C16.5678 9.33267 16.5911 9.376 16.6111 9.42267C16.6178 9.44933 16.6278 9.476 16.6411 9.50267C16.6478 9.52267 16.6544 9.546 16.6611 9.57267C16.6878 9.61267 16.7044 9.656 16.7111 9.70267C16.7311 9.70933 16.7511 9.716 16.7711 9.72267C16.7978 9.736 16.8178 9.746 16.8311 9.75267C16.8711 9.77267 16.9144 9.78267 16.9611 9.78267C17.0211 9.78933 17.0811 9.76267 17.1411 9.70267C17.2078 9.64267 17.2644 9.60933 17.3111 9.60267C17.3644 9.58267 17.4244 9.57267 17.4911 9.57267C17.5511 9.57267 17.6044 9.55933 17.6511 9.53267C17.6778 9.51267 17.7011 9.48933 17.7211 9.46267C17.7478 9.44267 17.7711 9.42267 17.7911 9.40267C17.8178 9.356 17.8678 9.32267 17.9411 9.30267C18.0811 9.26933 18.1578 9.23933 18.1711 9.21267C18.1711 9.19267 18.2011 9.15933 18.2611 9.11267C18.2944 9.086 18.3278 9.06267 18.3611 9.04267C18.3878 9.02267 18.4111 9.00267 18.4311 8.98267C18.4711 8.94933 18.5344 8.906 18.6211 8.85267C18.7144 8.806 18.7678 8.77933 18.7811 8.77267C18.7944 8.75933 18.8311 8.726 18.8911 8.67267C18.9378 8.65267 18.9811 8.62933 19.0211 8.60267C19.0611 8.576 19.0944 8.54933 19.1211 8.52267C19.1744 8.476 19.2478 8.426 19.3411 8.37267C19.4544 8.326 19.5144 8.296 19.5211 8.28267C19.5344 8.276 19.5444 8.26267 19.5511 8.24267C19.5578 8.22267 19.6078 8.18267 19.7011 8.12267C19.7344 8.056 19.7744 7.99933 19.8211 7.95267C19.8478 7.926 19.8744 7.89933 19.9011 7.87267C19.9278 7.83933 19.9578 7.806 19.9911 7.77267C20.0511 7.706 20.1078 7.64933 20.1611 7.60267C20.2211 7.556 20.2711 7.51267 20.3111 7.47267C20.3311 7.45933 20.3544 7.43933 20.3811 7.41267C20.4078 7.386 20.4411 7.36933 20.4811 7.36267C20.5078 7.336 20.5311 7.316 20.5511 7.30267C20.5711 7.28267 20.5911 7.26267 20.6111 7.24267C20.6311 7.22267 20.6511 7.20267 20.6711 7.18267C20.6978 7.16267 20.7311 7.136 20.7711 7.10267L20.8311 7.03267C20.8644 6.99933 20.8878 6.98267 20.9011 6.98267C20.9411 6.98267 20.9711 6.996 20.9911 7.02267C21.0178 7.04933 21.0478 7.06267 21.0811 7.06267C21.0744 7.12267 21.0711 7.16933 21.0711 7.20267C21.0711 7.24267 21.0711 7.26933 21.0711 7.28267C21.0711 7.32267 21.0611 7.35933 21.0411 7.39267C20.9878 7.47933 20.9244 7.52267 20.8511 7.52267C20.7844 7.536 20.7344 7.586 20.7011 7.67267C20.6744 7.65933 20.6378 7.656 20.5911 7.66267C20.5511 7.66933 20.5244 7.68267 20.5111 7.70267C20.5244 7.736 20.5311 7.76933 20.5311 7.80267C20.5311 7.816 20.5378 7.846 20.5511 7.89267C20.3778 8.05933 20.2678 8.19267 20.2211 8.29267C20.1078 8.41267 20.0478 8.47933 20.0411 8.49267L20.0311 8.51267L19.9211 8.62267C19.7944 8.72267 19.6978 8.816 19.6311 8.90267C19.5711 8.98933 19.4744 9.07267 19.3411 9.15267C19.2411 9.226 19.1744 9.27933 19.1411 9.31267C19.1211 9.33267 19.0978 9.356 19.0711 9.38267C19.0444 9.40933 19.0111 9.436 18.9711 9.46267C18.9511 9.48933 18.9178 9.52933 18.8711 9.58267C18.8244 9.636 18.7878 9.676 18.7611 9.70267C18.7011 9.74267 18.6378 9.78267 18.5711 9.82267C18.5244 9.84933 18.4711 9.896 18.4111 9.96267C18.2844 10.0227 18.1878 10.0927 18.1211 10.1727C18.0611 10.2527 17.9711 10.3327 17.8511 10.4127C17.7711 10.466 17.6611 10.5327 17.5211 10.6127C17.3811 10.6993 17.2611 10.7593 17.1611 10.7927C17.1478 10.7993 17.1344 10.8027 17.1211 10.8027C17.1011 10.8093 17.0878 10.816 17.0811 10.8227C17.0744 10.8227 17.0644 10.826 17.0511 10.8327C17.0378 10.8393 17.0244 10.8427 17.0111 10.8427C16.9378 10.8027 16.8644 10.7593 16.7911 10.7127C16.7244 10.666 16.6678 10.6027 16.6211 10.5227C16.5344 10.456 16.4678 10.4093 16.4211 10.3827C16.3678 10.3493 16.3211 10.3127 16.2811 10.2727C16.2344 10.1927 16.1878 10.116 16.1411 10.0427C16.0878 9.96267 16.0311 9.886 15.9711 9.81267C15.8578 9.65267 15.7711 9.47933 15.7111 9.29267C15.6978 9.266 15.6844 9.226 15.6711 9.17267L15.6511 9.04267C15.6444 9.00933 15.6344 8.976 15.6211 8.94267C15.6144 8.90933 15.6078 8.87933 15.6011 8.85267C15.5811 8.806 15.5744 8.736 15.5811 8.64267C15.5811 8.58267 15.5911 8.526 15.6111 8.47267C15.6178 8.43933 15.6278 8.406 15.6411 8.37267C15.6478 8.33933 15.6578 8.30267 15.6711 8.26267C15.6844 8.20267 15.7044 8.146 15.7311 8.09267C15.7511 8.03267 15.7744 7.976 15.8011 7.92267C15.8544 7.796 15.8911 7.676 15.9111 7.56267C15.9644 7.376 16.0244 7.196 16.0911 7.02267C16.1044 6.98933 16.1144 6.946 16.1211 6.89267C16.1278 6.85267 16.1544 6.82267 16.2011 6.80267C16.2344 6.616 16.2944 6.43933 16.3811 6.27267C16.4611 6.106 16.5411 5.946 16.6211 5.79267C16.6744 5.69267 16.7244 5.596 16.7711 5.50267C16.8111 5.40267 16.8544 5.30267 16.9011 5.20267C16.9478 5.10267 16.9944 5.00267 17.0411 4.90267C17.0878 4.80267 17.1344 4.706 17.1811 4.61267C17.1878 4.51267 17.2244 4.42267 17.2911 4.34267C17.2978 4.24933 17.3344 4.14933 17.4011 4.04267C17.4678 3.94267 17.5144 3.846 17.5411 3.75267C17.4411 3.726 17.3278 3.72267 17.2011 3.74267C17.0811 3.76933 16.9744 3.78933 16.8811 3.80267C16.7211 3.80933 16.5478 3.80933 16.3611 3.80267C16.3344 3.80267 16.3044 3.79933 16.2711 3.79267C16.2444 3.786 16.2144 3.77933 16.1811 3.77267C16.1211 3.75933 16.0644 3.75267 16.0111 3.75267C15.9244 3.75933 15.8611 3.75267 15.8211 3.73267C15.7744 3.706 15.7311 3.70267 15.6911 3.72267C15.5644 3.616 15.4344 3.51933 15.3011 3.43267C15.1678 3.35267 15.0811 3.24933 15.0411 3.12267C15.0411 3.096 15.0544 3.07267 15.0811 3.05267C15.1144 3.026 15.1378 3.00933 15.1511 3.00267C15.2244 2.976 15.3044 2.96933 15.3911 2.98267C15.4778 2.98267 15.5511 2.966 15.6111 2.93267C15.7444 2.95267 15.8778 2.94267 16.0111 2.90267C16.1378 2.86933 16.2678 2.856 16.4011 2.86267C16.4211 2.86267 16.4511 2.866 16.4911 2.87267C16.5244 2.886 16.5511 2.89267 16.5711 2.89267C16.6178 2.89267 16.6544 2.89267 16.6811 2.89267C16.7011 2.886 16.7211 2.87933 16.7411 2.87267C16.7611 2.87267 16.7811 2.86933 16.8011 2.86267C16.8544 2.856 16.9144 2.856 16.9811 2.86267C17.0411 2.86933 17.1044 2.86933 17.1711 2.86267C17.3044 2.856 17.4478 2.866 17.6011 2.89267C17.7678 2.926 17.9144 2.91933 18.0411 2.87267C18.0678 2.81267 18.0944 2.74933 18.1211 2.68267C18.1411 2.616 18.1678 2.54933 18.2011 2.48267C18.2678 2.356 18.3178 2.226 18.3511 2.09267C18.3844 2.03933 18.4211 1.97933 18.4611 1.91267C18.4944 1.846 18.5211 1.77933 18.5411 1.71267L18.6711 1.49267C18.6844 1.466 18.7011 1.43933 18.7211 1.41267C18.7411 1.386 18.7611 1.35933 18.7811 1.33267C18.8478 1.19933 18.8978 1.07267 18.9311 0.952667C18.9444 0.892667 18.9611 0.829333 18.9811 0.762667C19.0078 0.696 19.0344 0.626 19.0611 0.552667C19.1211 0.486 19.1778 0.416 19.2311 0.342667C19.2911 0.262667 19.3511 0.179333 19.4111 0.0926667C19.4778 0.0993334 19.5311 0.0793334 19.5711 0.0326668C19.6111 -0.0139999 19.6711 -0.0106668 19.7511 0.0426665C19.7511 0.0759999 19.7644 0.102666 19.7911 0.122666C19.8111 0.142666 19.8111 0.176 19.7911 0.222667C19.8844 0.316 19.9444 0.399334 19.9711 0.472667C19.9911 0.546 19.9844 0.629333 19.9511 0.722667C19.9178 0.816 19.9244 0.906 19.9711 0.992667C19.9911 1.03267 19.9978 1.076 19.9911 1.12267C19.9778 1.16933 19.9811 1.206 20.0011 1.23267C20.0211 1.286 20.0478 1.33267 20.0811 1.37267C20.1078 1.41933 20.1211 1.47933 20.1211 1.55267C20.1211 1.57933 20.1144 1.61267 20.1011 1.65267C20.0878 1.69267 20.0711 1.736 20.0511 1.78267C20.0244 1.92267 19.9978 2.01933 19.9711 2.07267C19.9644 2.09933 19.9578 2.126 19.9511 2.15267C19.9378 2.186 19.9278 2.21933 19.9211 2.25267C19.8544 2.326 19.8211 2.37267 19.8211 2.39267C19.8211 2.406 19.8178 2.426 19.8111 2.45267C19.7978 2.47933 19.7844 2.50933 19.7711 2.54267C19.7578 2.576 19.7411 2.61267 19.7211 2.65267C19.7011 2.686 19.6844 2.71933 19.6711 2.75267C19.6578 2.786 19.6444 2.81267 19.6311 2.83267ZM20.2711 9.34267C20.4778 9.16267 20.6711 8.966 20.8511 8.75267C20.9444 8.646 21.0378 8.536 21.1311 8.42267C21.2311 8.316 21.3344 8.20933 21.4411 8.10267C21.4811 8.056 21.5244 7.99933 21.5711 7.93267C21.6178 7.87267 21.6644 7.806 21.7111 7.73267C21.7444 7.67933 21.7911 7.626 21.8511 7.57267C21.9044 7.51933 21.9478 7.47267 21.9811 7.43267C22.0078 7.386 22.0411 7.34933 22.0811 7.32267C22.1078 7.30933 22.1311 7.29267 22.1511 7.27267C22.1711 7.25933 22.1911 7.24267 22.2111 7.22267C22.2578 7.176 22.3011 7.13933 22.3411 7.11267C22.3744 7.07933 22.4144 7.04267 22.4611 7.00267C22.5011 6.976 22.5411 6.94267 22.5811 6.90267C22.6211 6.86933 22.6578 6.836 22.6911 6.80267C22.7644 6.736 22.8511 6.67933 22.9511 6.63267C23.0111 6.626 23.0544 6.606 23.0811 6.57267C23.0944 6.55267 23.1244 6.51933 23.1711 6.47267C23.2244 6.47933 23.2644 6.476 23.2911 6.46267C23.3111 6.44933 23.3311 6.43933 23.3511 6.43267C23.3711 6.426 23.3944 6.416 23.4211 6.40267C23.5478 6.42933 23.6511 6.47933 23.7311 6.55267C23.8044 6.626 23.8778 6.69933 23.9511 6.77267C24.0178 6.79933 24.0678 6.826 24.1011 6.85267C24.1411 6.87267 24.1778 6.896 24.2111 6.92267C24.2511 6.996 24.2844 7.066 24.3111 7.13267C24.3378 7.19267 24.3511 7.26267 24.3511 7.34267C24.3511 7.38267 24.3444 7.43933 24.3311 7.51267C24.3311 7.53933 24.3278 7.566 24.3211 7.59267C24.3144 7.61933 24.3111 7.646 24.3111 7.67267C24.2711 7.786 24.2578 7.846 24.2711 7.85267C24.2778 7.85933 24.2811 7.87267 24.2811 7.89267C24.2878 7.97267 24.2611 8.04933 24.2011 8.12267C24.1478 8.196 24.1344 8.276 24.1611 8.36267C24.1678 8.396 24.1544 8.46267 24.1211 8.56267C24.0878 8.66267 24.0778 8.73267 24.0911 8.77267C24.1111 8.81933 24.1211 8.88933 24.1211 8.98267C24.1211 9.076 24.1411 9.136 24.1811 9.16267C24.2811 9.20267 24.3444 9.22267 24.3711 9.22267H24.4711C24.5778 9.16933 24.7144 9.076 24.8811 8.94267C25.0478 8.80933 25.1711 8.696 25.2511 8.60267C25.2978 8.56933 25.3411 8.53267 25.3811 8.49267C25.4211 8.45933 25.4611 8.426 25.5011 8.39267C25.5878 8.31267 25.6878 8.246 25.8011 8.19267C25.9144 8.11267 25.9878 8.056 26.0211 8.02267L26.1911 7.82267C26.2178 7.796 26.2544 7.76933 26.3011 7.74267C26.3411 7.716 26.3778 7.686 26.4111 7.65267C26.4844 7.57933 26.5578 7.52933 26.6311 7.50267H26.7911C26.8511 7.50267 26.8944 7.51933 26.9211 7.55267C26.9411 7.626 26.9411 7.68933 26.9211 7.74267C26.9011 7.796 26.8778 7.846 26.8511 7.89267C26.8178 7.946 26.7778 7.996 26.7311 8.04267C26.6911 8.10933 26.6478 8.16933 26.6011 8.22267C26.5811 8.24267 26.5578 8.266 26.5311 8.29267C26.5044 8.31933 26.4778 8.34933 26.4511 8.38267C26.3978 8.44267 26.3344 8.48933 26.2611 8.52267C26.2411 8.54933 26.2211 8.576 26.2011 8.60267C26.1811 8.62267 26.1578 8.64267 26.1311 8.66267L26.0011 8.79267C25.9544 8.846 25.9144 8.896 25.8811 8.94267C25.8478 8.996 25.8078 9.046 25.7611 9.09267C25.7078 9.13933 25.6578 9.18267 25.6111 9.22267C25.5644 9.26267 25.5144 9.29933 25.4611 9.33267C25.3678 9.406 25.2811 9.496 25.2011 9.60267C25.1544 9.62267 25.1178 9.64267 25.0911 9.66267C25.0711 9.676 25.0378 9.696 24.9911 9.72267C24.8778 9.756 24.7611 9.82267 24.6411 9.92267C24.5278 10.0227 24.4111 10.116 24.2911 10.2027C24.1711 10.2893 24.0444 10.326 23.9111 10.3127C23.8111 10.3593 23.7244 10.3627 23.6511 10.3227C23.5778 10.2827 23.5044 10.2393 23.4311 10.1927C23.3311 10.126 23.2344 10.0527 23.1411 9.97267C23.0544 9.89267 23.0011 9.77933 22.9811 9.63267C22.9611 9.39267 22.9878 9.16933 23.0611 8.96267C23.1411 8.74933 23.1978 8.53933 23.2311 8.33267C23.2311 8.31267 23.2444 8.22933 23.2711 8.08267C23.3044 7.936 23.3078 7.84267 23.2811 7.80267C23.2678 7.78267 23.2578 7.74933 23.2511 7.70267C23.2444 7.656 23.2044 7.60933 23.1311 7.56267C23.0911 7.54267 23.0744 7.53933 23.0811 7.55267C23.0811 7.57267 23.0444 7.58267 22.9711 7.58267C22.8911 7.60933 22.8278 7.646 22.7811 7.69267C22.7478 7.71267 22.7178 7.736 22.6911 7.76267C22.6644 7.78267 22.6344 7.80267 22.6011 7.82267C22.5144 7.92267 22.4111 8.016 22.2911 8.10267C22.1844 8.176 22.0878 8.26933 22.0011 8.38267C21.9278 8.46933 21.8578 8.55267 21.7911 8.63267C21.7378 8.706 21.6644 8.78933 21.5711 8.88267C21.3178 9.16933 21.0678 9.436 20.8211 9.68267C20.7878 9.72267 20.7578 9.75933 20.7311 9.79267C20.6978 9.83267 20.6678 9.86933 20.6411 9.90267C20.6144 9.94267 20.5878 9.97933 20.5611 10.0127C20.5278 10.0527 20.4944 10.0893 20.4611 10.1227C20.3544 10.2627 20.2378 10.396 20.1111 10.5227C20.0578 10.6093 19.9811 10.696 19.8811 10.7827C19.7811 10.8627 19.6811 10.9193 19.5811 10.9527C19.5544 10.9393 19.5244 10.9393 19.4911 10.9527C19.4578 10.9727 19.4278 10.9827 19.4011 10.9827C19.3478 10.9627 19.3044 10.946 19.2711 10.9327C19.2378 10.9193 19.2178 10.9127 19.2111 10.9127C19.1911 10.8993 19.1778 10.876 19.1711 10.8427C19.0778 10.7893 19.0411 10.7027 19.0611 10.5827C19.0878 10.456 19.1078 10.3493 19.1211 10.2627C19.1678 10.056 19.2244 9.84933 19.2911 9.64267C19.3511 9.436 19.4211 9.23267 19.5011 9.03267C19.5811 8.83267 19.6511 8.63267 19.7111 8.43267C19.7778 8.23267 19.8344 8.036 19.8811 7.84267C19.9278 7.68267 19.9711 7.53933 20.0111 7.41267C20.0578 7.27933 20.1144 7.13933 20.1811 6.99267C20.2478 6.846 20.2911 6.716 20.3111 6.60267C20.3244 6.48933 20.3678 6.35933 20.4411 6.21267C20.4811 6.13933 20.5111 6.07267 20.5311 6.01267C20.5578 5.93267 20.5878 5.86267 20.6211 5.80267C20.7211 5.616 20.8144 5.38933 20.9011 5.12267C20.9944 4.856 21.0911 4.61933 21.1911 4.41267C21.2978 4.11933 21.4111 3.836 21.5311 3.56267C21.6511 3.28933 21.7844 3.01933 21.9311 2.75267C22.0178 2.39933 22.1578 2.07267 22.3511 1.77267C22.4444 1.65267 22.5078 1.556 22.5411 1.48267C22.5811 1.38933 22.6178 1.31933 22.6511 1.27267C22.7644 1.146 22.8878 1.046 23.0211 0.972667C23.1544 0.899334 23.2744 0.796 23.3811 0.662667C23.4544 0.622667 23.5244 0.596 23.5911 0.582667C23.6244 0.569333 23.6578 0.559333 23.6911 0.552667C23.7244 0.539333 23.7578 0.526 23.7911 0.512667C23.8178 0.539333 23.8311 0.592667 23.8311 0.672667C23.8511 0.672667 23.8544 0.702667 23.8411 0.762667C23.8344 0.816 23.8344 0.859334 23.8411 0.892667C23.8411 1.01933 23.8311 1.11267 23.8111 1.17267L23.7511 1.32267C23.7378 1.38933 23.7311 1.436 23.7311 1.46267C23.7311 1.496 23.7278 1.536 23.7211 1.58267C23.6944 1.66933 23.6811 1.716 23.6811 1.72267C23.6878 1.72933 23.6911 1.746 23.6911 1.77267C23.6911 1.786 23.6878 1.826 23.6811 1.89267C23.6678 1.95933 23.6611 2.006 23.6611 2.03267C23.6611 2.11933 23.6378 2.22267 23.5911 2.34267C23.5511 2.44267 23.5178 2.54267 23.4911 2.64267C23.4311 2.70933 23.3978 2.75933 23.3911 2.79267C23.3844 2.83267 23.3678 2.856 23.3411 2.86267C23.3078 2.94267 23.2811 3.01933 23.2611 3.09267C23.2344 3.166 23.2111 3.23933 23.1911 3.31267C23.1444 3.45267 23.0744 3.58933 22.9811 3.72267C22.9478 3.82267 22.9011 3.92267 22.8411 4.02267C22.8078 4.06267 22.7778 4.10933 22.7511 4.16267C22.7244 4.20933 22.7011 4.256 22.6811 4.30267L22.6211 4.43267C22.5944 4.486 22.5744 4.52933 22.5611 4.56267C22.4944 4.676 22.4278 4.796 22.3611 4.92267C22.2944 5.04267 22.2144 5.15267 22.1211 5.25267C21.9544 5.59933 21.7811 5.94933 21.6011 6.30267C21.4211 6.656 21.2444 6.996 21.0711 7.32267C21.0378 7.36933 21.0078 7.416 20.9811 7.46267C20.9611 7.50267 20.9444 7.54267 20.9311 7.58267C20.9111 7.62933 20.8944 7.686 20.8811 7.75267C20.8744 7.806 20.8511 7.85267 20.8111 7.89267C20.7978 7.93267 20.7844 7.97267 20.7711 8.01267C20.7578 8.05267 20.7444 8.08933 20.7311 8.12267C20.7111 8.196 20.6778 8.266 20.6311 8.33267C20.5978 8.51267 20.5411 8.68267 20.4611 8.84267C20.3811 8.996 20.3178 9.16267 20.2711 9.34267ZM30.3911 6.58267L30.3811 6.69267C30.3878 6.726 30.3778 6.77933 30.3511 6.85267C30.3044 6.906 30.2778 6.966 30.2711 7.03267C30.2511 7.07267 30.2344 7.106 30.2211 7.13267C30.2078 7.15933 30.1978 7.196 30.1911 7.24267C30.1711 7.296 30.1611 7.35933 30.1611 7.43267C30.1678 7.466 30.1711 7.49933 30.1711 7.53267C30.1644 7.566 30.1611 7.59933 30.1611 7.63267C30.1411 7.73267 30.1278 7.83267 30.1211 7.93267C30.1078 8.026 30.0978 8.12267 30.0911 8.22267C30.0911 8.32267 30.0811 8.436 30.0611 8.56267C30.0478 8.68933 30.0311 8.80267 30.0111 8.90267C30.0511 8.976 30.0744 9.046 30.0811 9.11267C30.0811 9.17933 30.1111 9.23933 30.1711 9.29267C30.3578 9.266 30.5044 9.22267 30.6111 9.16267C30.7178 9.10267 30.8211 9.016 30.9211 8.90267C30.9944 8.876 31.0511 8.846 31.0911 8.81267C31.1311 8.77933 31.1844 8.74267 31.2511 8.70267L31.3611 8.59267C31.4744 8.53267 31.5378 8.496 31.5511 8.48267C31.5578 8.476 31.5678 8.466 31.5811 8.45267C31.6011 8.446 31.6178 8.436 31.6311 8.42267C31.7911 8.32267 31.9111 8.21933 31.9911 8.11267C32.0578 8.05933 32.1144 8.00267 32.1611 7.94267C32.2011 7.88933 32.2711 7.84267 32.3711 7.80267C32.4311 7.72933 32.4978 7.666 32.5711 7.61267C32.6444 7.566 32.7111 7.506 32.7711 7.43267C32.8178 7.43267 32.8544 7.43933 32.8811 7.45267C32.8944 7.466 32.9078 7.476 32.9211 7.48267C32.9411 7.496 32.9578 7.506 32.9711 7.51267C33.0044 7.586 33.0111 7.65933 32.9911 7.73267C32.9711 7.81267 32.9378 7.886 32.8911 7.95267C32.8444 8.01267 32.8211 8.04933 32.8211 8.06267C32.8211 8.06933 32.8178 8.076 32.8111 8.08267C32.7844 8.116 32.7511 8.15267 32.7111 8.19267C32.6711 8.21933 32.6378 8.25267 32.6111 8.29267C32.5644 8.37267 32.5278 8.41267 32.5011 8.41267C32.4744 8.41267 32.4511 8.42267 32.4311 8.44267C32.3444 8.48933 32.2878 8.526 32.2611 8.55267C32.2211 8.586 32.1678 8.62267 32.1011 8.66267C32.0078 8.70933 31.9478 8.746 31.9211 8.77267C31.9011 8.79267 31.8844 8.806 31.8711 8.81267C31.7578 8.93267 31.6511 9.036 31.5511 9.12267C31.4511 9.18933 31.3478 9.28933 31.2411 9.42267C31.2011 9.44933 31.1644 9.47933 31.1311 9.51267C31.0911 9.53933 31.0578 9.57267 31.0311 9.61267C30.9511 9.67267 30.8844 9.72933 30.8311 9.78267C30.7844 9.836 30.7278 9.89933 30.6611 9.97267C30.6078 9.99933 30.5511 10.0393 30.4911 10.0927C30.4111 10.146 30.3411 10.1893 30.2811 10.2227C30.2611 10.236 30.2211 10.256 30.1611 10.2827C30.1211 10.3027 30.0811 10.3127 30.0411 10.3127C29.9344 10.3327 29.8311 10.3227 29.7311 10.2827C29.6444 10.256 29.5578 10.2293 29.4711 10.2027C29.4378 10.1493 29.3944 10.106 29.3411 10.0727C29.2544 9.97267 29.1944 9.85267 29.1611 9.71267C29.1278 9.57933 29.0911 9.43267 29.0511 9.27267C28.9711 9.326 28.9044 9.386 28.8511 9.45267C28.7911 9.51933 28.7078 9.57933 28.6011 9.63267C28.5078 9.71933 28.4144 9.80267 28.3211 9.88267C28.2278 9.96933 28.1278 10.0527 28.0211 10.1327C27.9211 10.206 27.8178 10.286 27.7111 10.3727C27.6044 10.4593 27.5011 10.546 27.4011 10.6327C27.3278 10.706 27.2778 10.7327 27.2511 10.7127C27.1644 10.8127 27.0178 10.8427 26.8111 10.8027C26.7378 10.7693 26.6544 10.7393 26.5611 10.7127C26.5011 10.6927 26.4278 10.666 26.3411 10.6327C26.1878 10.606 26.0578 10.536 25.9511 10.4227C25.8511 10.316 25.7644 10.1893 25.6911 10.0427C25.6644 9.96267 25.6444 9.89267 25.6311 9.83267C25.6244 9.806 25.6178 9.77267 25.6111 9.73267C25.5978 9.69933 25.5878 9.65933 25.5811 9.61267C25.5744 9.53933 25.5611 9.47933 25.5411 9.43267C25.5211 9.37933 25.5211 9.33267 25.5411 9.29267C25.5211 9.266 25.5144 9.236 25.5211 9.20267C25.5344 9.156 25.5411 9.11933 25.5411 9.09267C25.5278 8.966 25.5378 8.82933 25.5711 8.68267C25.6044 8.54267 25.6478 8.41267 25.7011 8.29267C25.7278 8.246 25.7644 8.19933 25.8111 8.15267C25.8311 8.126 25.8444 8.09933 25.8511 8.07267C25.8578 8.05267 25.8711 8.02933 25.8911 8.00267C25.9178 7.976 25.9444 7.94933 25.9711 7.92267C26.0178 7.88267 26.0511 7.856 26.0711 7.84267C26.0911 7.80933 26.1144 7.776 26.1411 7.74267C26.1678 7.716 26.1978 7.69267 26.2311 7.67267C26.2644 7.646 26.2944 7.61933 26.3211 7.59267C26.3478 7.566 26.3744 7.53933 26.4011 7.51267C26.4344 7.47933 26.4578 7.446 26.4711 7.41267C26.4978 7.37933 26.5344 7.35267 26.5811 7.33267C26.6144 7.27267 26.6544 7.21933 26.7011 7.17267C26.7478 7.13267 26.7978 7.08933 26.8511 7.04267C27.0044 6.856 27.1944 6.69933 27.4211 6.57267C27.6544 6.43933 27.8611 6.29267 28.0411 6.13267C28.1011 6.106 28.1544 6.07267 28.2011 6.03267C28.2478 5.99933 28.2944 5.96267 28.3411 5.92267C28.4544 5.82267 28.5778 5.79267 28.7111 5.83267L29.0611 5.92267C29.1544 6.00933 29.2444 6.09267 29.3311 6.17267C29.4178 6.25267 29.4944 6.34267 29.5611 6.44267C29.5878 6.44267 29.6211 6.43933 29.6611 6.43267C29.6944 6.43267 29.7344 6.436 29.7811 6.44267C29.8611 6.44933 29.9478 6.44267 30.0411 6.42267C30.0678 6.42267 30.0944 6.41267 30.1211 6.39267C30.1478 6.37933 30.1711 6.37267 30.1911 6.37267C30.3244 6.41933 30.3911 6.48933 30.3911 6.58267ZM28.5911 6.78267C28.3444 6.90267 28.1211 7.04267 27.9211 7.20267C27.7211 7.36267 27.5278 7.53267 27.3411 7.71267C27.3211 7.73933 27.2978 7.76267 27.2711 7.78267C27.2444 7.80267 27.2211 7.82267 27.2011 7.84267C27.1744 7.86267 27.1511 7.886 27.1311 7.91267C27.1111 7.93267 27.0911 7.95267 27.0711 7.97267C27.0311 8.01933 26.9978 8.076 26.9711 8.14267C26.9378 8.20267 26.9078 8.26267 26.8811 8.32267C26.8678 8.336 26.8578 8.35267 26.8511 8.37267C26.8444 8.386 26.8344 8.396 26.8211 8.40267C26.8144 8.416 26.8044 8.42933 26.7911 8.44267C26.7844 8.456 26.7778 8.46933 26.7711 8.48267C26.7511 8.52933 26.7444 8.576 26.7511 8.62267C26.7511 8.64933 26.7511 8.69933 26.7511 8.77267V8.90267C26.7511 8.92933 26.7578 8.976 26.7711 9.04267C26.7978 9.14267 26.8111 9.24267 26.8111 9.34267C26.8111 9.416 26.8178 9.506 26.8311 9.61267C26.8444 9.71267 26.8778 9.78267 26.9311 9.82267C26.9911 9.856 27.0478 9.866 27.1011 9.85267C27.1678 9.826 27.2211 9.81267 27.2611 9.81267C27.5811 9.566 27.8811 9.306 28.1611 9.03267C28.4478 8.766 28.6978 8.46267 28.9111 8.12267C28.8978 7.90267 28.8978 7.67267 28.9111 7.43267C28.9244 7.21267 28.9044 7.006 28.8511 6.81267C28.8111 6.79267 28.7678 6.786 28.7211 6.79267C28.6811 6.79933 28.6378 6.796 28.5911 6.78267ZM32.9711 8.70267C33.0444 8.656 33.1044 8.596 33.1511 8.52267C33.1778 8.48933 33.2044 8.45267 33.2311 8.41267C33.2578 8.37933 33.2878 8.34267 33.3211 8.30267C33.4344 8.16933 33.5611 8.056 33.7011 7.96267C33.7611 7.86933 33.8411 7.79933 33.9411 7.75267C34.0344 7.69933 34.1078 7.62267 34.1611 7.52267C34.1744 7.50933 34.1911 7.48267 34.2111 7.44267C34.2311 7.40933 34.2478 7.38267 34.2611 7.36267C34.4344 7.12267 34.6211 6.92267 34.8211 6.76267C34.8478 6.736 34.8744 6.71267 34.9011 6.69267C34.9278 6.666 34.9544 6.64267 34.9811 6.62267C35.0144 6.58933 35.0744 6.54267 35.1611 6.48267C35.2011 6.46267 35.2444 6.436 35.2911 6.40267C35.3311 6.376 35.3678 6.346 35.4011 6.31267C35.4744 6.23933 35.5578 6.18267 35.6511 6.14267C35.7111 6.116 35.7711 6.096 35.8311 6.08267C35.8578 6.076 35.8878 6.06933 35.9211 6.06267C35.9478 6.056 35.9778 6.046 36.0111 6.03267C36.0778 6.01933 36.1344 6.00267 36.1811 5.98267C36.2344 5.96933 36.2911 5.97267 36.3511 5.99267C36.4978 6.05267 36.6078 6.176 36.6811 6.36267C36.7078 6.42933 36.6944 6.57267 36.6411 6.79267C36.5811 7.01267 36.5111 7.23933 36.4311 7.47267C36.3578 7.706 36.3044 7.886 36.2711 8.01267C36.2511 8.086 36.2478 8.126 36.2611 8.13267C36.2678 8.13933 36.2711 8.15267 36.2711 8.17267C36.2511 8.21267 36.2378 8.25267 36.2311 8.29267C36.2178 8.326 36.2078 8.366 36.2011 8.41267C36.1811 8.486 36.1678 8.586 36.1611 8.71267C36.1544 8.83267 36.1578 8.92933 36.1711 9.00267C36.2644 8.996 36.3178 8.986 36.3311 8.97267C36.3378 8.966 36.3511 8.96267 36.3711 8.96267C36.4044 8.94933 36.4311 8.946 36.4511 8.95267C36.4778 8.95933 36.5078 8.956 36.5411 8.94267C36.7278 8.896 36.8978 8.796 37.0511 8.64267C37.1311 8.60933 37.2078 8.57267 37.2811 8.53267C37.3611 8.49933 37.4344 8.46267 37.5011 8.42267C37.6278 8.336 37.7311 8.27267 37.8111 8.23267C37.8844 8.19267 38.0011 8.136 38.1611 8.06267C38.2211 7.98933 38.3011 7.92933 38.4011 7.88267C38.4878 7.84267 38.5744 7.786 38.6611 7.71267C38.6878 7.686 38.7111 7.66267 38.7311 7.64267C38.7578 7.60267 38.7844 7.596 38.8111 7.62267C38.8578 7.66933 38.8878 7.716 38.9011 7.76267C38.9144 7.816 38.9178 7.84933 38.9111 7.86267C38.8444 7.936 38.8044 7.99267 38.7911 8.03267C38.7844 8.07267 38.7744 8.09933 38.7611 8.11267C38.7144 8.15933 38.6444 8.19933 38.5511 8.23267C38.4778 8.266 38.4311 8.296 38.4111 8.32267C38.3911 8.34933 38.3744 8.36933 38.3611 8.38267C38.3344 8.40933 38.3111 8.43267 38.2911 8.45267C38.2644 8.466 38.2378 8.486 38.2111 8.51267C38.1911 8.53933 38.1678 8.55267 38.1411 8.55267L38.0511 8.58267C37.9911 8.62267 37.9444 8.66267 37.9111 8.70267C37.8778 8.736 37.8378 8.776 37.7911 8.82267C37.7178 8.88933 37.6711 8.94267 37.6511 8.98267C37.6311 9.016 37.5811 9.05933 37.5011 9.11267L37.2311 9.27267C37.1044 9.33933 36.9744 9.41933 36.8411 9.51267C36.7144 9.59933 36.5878 9.68933 36.4611 9.78267C36.3811 9.82933 36.2878 9.876 36.1811 9.92267C36.0878 9.96267 35.9978 10.0127 35.9111 10.0727C35.8711 10.0727 35.8478 10.0693 35.8411 10.0627C35.8278 10.056 35.8011 10.0627 35.7611 10.0827C35.7211 10.0627 35.6778 10.0593 35.6311 10.0727C35.5778 10.0993 35.5311 10.1027 35.4911 10.0827C35.4444 10.0427 35.4078 10.0127 35.3811 9.99267C35.3478 9.97267 35.3244 9.956 35.3111 9.94267C35.2778 9.92933 35.2511 9.906 35.2311 9.87267C35.2111 9.83267 35.2044 9.78267 35.2111 9.72267C35.2178 9.66933 35.2078 9.626 35.1811 9.59267C35.1811 9.39267 35.1878 9.19933 35.2011 9.01267C35.2144 8.83267 35.2444 8.64267 35.2911 8.44267C35.2978 8.376 35.3178 8.266 35.3511 8.11267C35.3911 7.95267 35.4211 7.79933 35.4411 7.65267C35.4678 7.506 35.4611 7.42267 35.4211 7.40267C35.3211 7.456 35.2178 7.53933 35.1111 7.65267C35.0644 7.706 35.0144 7.756 34.9611 7.80267C34.9144 7.84267 34.8678 7.88267 34.8211 7.92267L34.6111 8.07267C34.5778 8.09267 34.5444 8.116 34.5111 8.14267C34.4711 8.16933 34.4344 8.196 34.4011 8.22267C34.3344 8.26933 34.2778 8.316 34.2311 8.36267C34.1844 8.40267 34.1344 8.456 34.0811 8.52267C34.0478 8.556 34.0178 8.586 33.9911 8.61267C33.9644 8.646 33.9344 8.67933 33.9011 8.71267C33.8478 8.766 33.7844 8.82267 33.7111 8.88267C33.6644 8.92267 33.6311 8.94933 33.6111 8.96267C33.5911 8.98267 33.5611 9.00933 33.5211 9.04267L33.3911 9.17267C33.3511 9.21267 33.2978 9.246 33.2311 9.27267C33.0911 9.47267 32.9311 9.66267 32.7511 9.84267C32.5711 10.0227 32.4278 10.206 32.3211 10.3927C32.2078 10.486 32.0911 10.566 31.9711 10.6327C31.8511 10.706 31.7044 10.7127 31.5311 10.6527C31.4378 10.5993 31.3778 10.556 31.3511 10.5227C31.3244 10.4893 31.2911 10.4593 31.2511 10.4327C31.2644 10.3327 31.2744 10.2393 31.2811 10.1527C31.2878 10.0593 31.3144 9.96267 31.3611 9.86267L31.4411 9.72267C31.4878 9.64933 31.5178 9.55933 31.5311 9.45267C31.5444 9.346 31.5744 9.24933 31.6211 9.16267C31.6744 9.076 31.7078 9.00267 31.7211 8.94267C31.7344 8.88933 31.7578 8.836 31.7911 8.78267C31.8111 8.72933 31.8344 8.686 31.8611 8.65267C31.8878 8.61933 31.9144 8.576 31.9411 8.52267C31.9611 8.476 31.9911 8.42267 32.0311 8.36267C32.0711 8.30933 32.1044 8.25933 32.1311 8.21267C32.1844 8.01267 32.2578 7.80933 32.3511 7.60267C32.3644 7.54267 32.3811 7.48267 32.4011 7.42267C32.4211 7.36267 32.4444 7.306 32.4711 7.25267C32.4911 7.19933 32.5144 7.14933 32.5411 7.10267C32.5611 7.04933 32.5844 7.00267 32.6111 6.96267C32.6311 6.90933 32.6511 6.85933 32.6711 6.81267C32.6978 6.766 32.7211 6.716 32.7411 6.66267C32.7678 6.60933 32.7944 6.56267 32.8211 6.52267C32.8411 6.48267 32.8711 6.43933 32.9111 6.39267C32.9244 6.366 32.9378 6.34267 32.9511 6.32267C32.9644 6.30267 32.9744 6.27933 32.9811 6.25267C32.9944 6.23267 33.0078 6.20933 33.0211 6.18267C33.0344 6.16267 33.0478 6.13933 33.0611 6.11267C33.0744 6.09267 33.0878 6.06933 33.1011 6.04267C33.1144 6.02267 33.1244 5.996 33.1311 5.96267C33.1511 5.90267 33.1844 5.846 33.2311 5.79267C33.2644 5.75267 33.2944 5.716 33.3211 5.68267C33.3478 5.64933 33.3678 5.616 33.3811 5.58267C33.4144 5.52267 33.4744 5.48267 33.5611 5.46267C33.6411 5.496 33.7244 5.47933 33.8111 5.41267C33.8911 5.346 33.9578 5.35267 34.0111 5.43267C34.1444 5.51267 34.2311 5.576 34.2711 5.62267C34.3311 5.676 34.3678 5.726 34.3811 5.77267C34.4278 5.85933 34.4344 5.946 34.4011 6.03267C34.3611 6.11933 34.2978 6.19267 34.2111 6.25267C34.1778 6.39267 34.1111 6.53933 34.0111 6.69267C33.9711 6.75933 33.9278 6.826 33.8811 6.89267C33.8411 6.95933 33.8044 7.026 33.7711 7.09267L33.6611 7.36267C33.6078 7.48933 33.5511 7.616 33.4911 7.74267C33.4311 7.86933 33.3644 7.99267 33.2911 8.11267C33.2311 8.23933 33.1878 8.31933 33.1611 8.35267C33.1278 8.386 33.1011 8.42267 33.0811 8.46267C33.0611 8.496 33.0244 8.576 32.9711 8.70267ZM42.5611 9.20267C42.6211 9.20267 42.6678 9.20933 42.7011 9.22267C42.7278 9.22933 42.7478 9.23267 42.7611 9.23267C42.8544 9.23267 42.9744 9.16933 43.1211 9.04267C43.2611 8.90933 43.3744 8.80933 43.4611 8.74267C43.6478 8.70267 43.8011 8.58267 43.9211 8.38267C44.0344 8.18267 44.1644 8.00933 44.3111 7.86267C44.4978 7.676 44.6478 7.50933 44.7611 7.36267C44.8811 7.216 44.9811 7.14267 45.0611 7.14267C45.1344 7.14267 45.1878 7.176 45.2211 7.24267C45.2611 7.32933 45.2911 7.386 45.3111 7.41267C45.2911 7.43267 45.2811 7.46267 45.2811 7.50267C45.2811 7.54267 45.2711 7.57267 45.2511 7.59267C45.2311 7.61933 45.2044 7.646 45.1711 7.67267C45.1378 7.69933 45.1044 7.73267 45.0711 7.77267L44.9411 7.93267C44.8211 8.05267 44.7078 8.20267 44.6011 8.38267C44.5011 8.56933 44.3978 8.74267 44.2911 8.90267C44.1911 9.06267 44.0844 9.17933 43.9711 9.25267C43.7244 9.406 43.5311 9.56933 43.3911 9.74267C43.2444 9.90933 43.0844 10.046 42.9111 10.1527C42.8978 10.1527 42.8878 10.1493 42.8811 10.1427C42.8744 10.136 42.8678 10.1327 42.8611 10.1327C42.8211 10.1327 42.7911 10.1427 42.7711 10.1627C42.7511 10.1827 42.7278 10.1927 42.7011 10.1927C42.5278 10.126 42.3911 10.0527 42.2911 9.97267C42.1911 9.89267 42.0611 9.71933 41.9011 9.45267C41.8611 9.386 41.8244 9.30933 41.7911 9.22267C41.7644 9.136 41.7278 9.05933 41.6811 8.99267L41.5011 8.65267C41.4478 8.55933 41.4211 8.406 41.4211 8.19267C41.4211 8.106 41.4311 7.96933 41.4511 7.78267C41.4711 7.60267 41.4911 7.456 41.5111 7.34267C41.3644 7.48933 41.2344 7.666 41.1211 7.87267C41.0611 7.97267 41.0044 8.07267 40.9511 8.17267C40.8911 8.266 40.8344 8.356 40.7811 8.44267C40.6344 8.66267 40.4778 8.88267 40.3111 9.10267C40.1444 9.316 40.0611 9.47933 40.0611 9.59267C40.0011 9.646 39.9411 9.726 39.8811 9.83267C39.8144 9.93267 39.7644 10.0227 39.7311 10.1027C39.6978 10.176 39.6978 10.196 39.7311 10.1627C39.6044 10.376 39.4178 10.526 39.1711 10.6127C38.9311 10.6993 38.7078 10.7427 38.5011 10.7427C38.4611 10.736 38.4178 10.7293 38.3711 10.7227C38.3311 10.716 38.2911 10.7127 38.2511 10.7127C38.1778 10.706 38.1011 10.6727 38.0211 10.6127L37.8111 10.4627C37.6711 10.3893 37.5711 10.276 37.5111 10.1227C37.4578 9.96933 37.4311 9.79933 37.4311 9.61267C37.5444 9.326 37.6111 9.06933 37.6311 8.84267C37.6511 8.62267 37.7044 8.40267 37.7911 8.18267C37.9178 7.84267 38.0978 7.54267 38.3311 7.28267C38.5644 7.016 38.8078 6.77267 39.0611 6.55267C39.2678 6.37933 39.5044 6.18933 39.7711 5.98267C40.0378 5.776 40.2278 5.60267 40.3411 5.46267C40.4878 5.436 40.6144 5.38933 40.7211 5.32267C40.8211 5.26267 40.9244 5.20267 41.0311 5.14267C41.1311 5.08267 41.2544 5.05267 41.4011 5.05267C41.6078 5.05267 41.7311 5.08933 41.7711 5.16267C41.8044 5.236 41.8578 5.336 41.9311 5.46267C41.9911 5.30933 42.0378 5.156 42.0711 5.00267C42.0844 4.92267 42.1044 4.846 42.1311 4.77267C42.1578 4.706 42.1878 4.63933 42.2211 4.57267C42.2744 4.29267 42.3678 3.99267 42.5011 3.67267C42.6344 3.35267 42.7644 3.05933 42.8911 2.79267C43.0044 2.57267 43.1144 2.36267 43.2211 2.16267C43.3278 1.96267 43.3978 1.836 43.4311 1.78267C43.5778 1.56267 43.7311 1.37933 43.8911 1.23267C44.0511 1.07933 44.1911 0.916 44.3111 0.742667C44.4044 0.636 44.4944 0.512666 44.5811 0.372666C44.6678 0.212666 44.7378 0.119333 44.7911 0.0926667C45.0444 0.159333 45.1778 0.259334 45.1911 0.392667C45.2044 0.519334 45.2111 0.669333 45.2111 0.842667C45.2111 0.989333 45.1978 1.13267 45.1711 1.27267L44.7111 2.25267C44.5778 2.486 44.4544 2.726 44.3411 2.97267C44.2278 3.21933 44.1211 3.46933 44.0211 3.72267C43.8544 4.04933 43.6711 4.336 43.4711 4.58267C43.3711 4.70933 43.2744 4.83933 43.1811 4.97267C43.0944 5.09933 43.0111 5.236 42.9311 5.38267C42.8978 5.476 42.8478 5.56933 42.7811 5.66267C42.7544 5.70267 42.7278 5.746 42.7011 5.79267C42.6678 5.83267 42.6378 5.876 42.6111 5.92267L42.3711 6.51267C42.3178 6.586 42.2911 6.656 42.2911 6.72267C42.3044 6.76267 42.3111 6.79933 42.3111 6.83267V6.89267C42.3111 6.93933 42.3111 6.98267 42.3111 7.02267C42.3111 7.06267 42.3111 7.10267 42.3111 7.14267C42.3044 7.18267 42.3011 7.226 42.3011 7.27267C42.3011 7.31267 42.3011 7.356 42.3011 7.40267C42.3011 7.86933 42.3178 8.326 42.3511 8.77267C42.3378 8.79933 42.3311 8.82267 42.3311 8.84267C42.3311 8.90267 42.3644 8.966 42.4311 9.03267C42.4978 9.09933 42.5411 9.156 42.5611 9.20267ZM41.2511 5.88267L40.9011 6.10267C40.8344 6.12267 40.7444 6.18933 40.6311 6.30267L40.3411 6.57267L40.0611 6.83267C39.9944 6.946 39.9078 7.046 39.8011 7.13267C39.6878 7.21267 39.5944 7.30267 39.5211 7.40267C39.4211 7.52933 39.3244 7.67933 39.2311 7.85267C39.1378 8.026 39.0944 8.17267 39.1011 8.29267C39.0811 8.37267 39.0578 8.44933 39.0311 8.52267C39.0044 8.58933 38.9778 8.65267 38.9511 8.71267C38.8978 8.826 38.8711 8.95933 38.8711 9.11267C38.8711 9.23267 38.9078 9.29267 38.9811 9.29267C39.0611 9.29933 39.1178 9.30267 39.1511 9.30267C39.2911 9.20933 39.4378 9.076 39.5911 8.90267C39.7444 8.72933 39.8844 8.54933 40.0111 8.36267C40.1311 8.176 40.2144 8.01933 40.2611 7.89267C40.3611 7.71933 40.4744 7.536 40.6011 7.34267C40.7278 7.14267 40.8711 6.966 41.0311 6.81267L41.3811 6.24267C41.3944 6.216 41.4044 6.19267 41.4111 6.17267C41.4178 6.15267 41.4278 6.13267 41.4411 6.11267C41.4544 6.086 41.4611 6.046 41.4611 5.99267C41.4611 5.93267 41.4444 5.87933 41.4111 5.83267C41.3778 5.83267 41.3444 5.83933 41.3111 5.85267C41.2844 5.866 41.2644 5.876 41.2511 5.88267Z" fill="black"/>
</svg>
