<svg width="96" height="10" viewBox="0 0 96 10" fill="none" xmlns="http://www.w3.org/2000/svg">
<path d="M9.52 8.96H6.86L8.4 0.21H13.86L13.11 2.45H10.65L10.45 3.63H12.72L12.34 5.71H10.08L9.52 8.96ZM7.96 0.21L7.85 0.84L1.93 0.21H7.96ZM7.72 1.55L7.63 2.18L1.69 1.55H7.72ZM7.5 2.9L7.39 3.53L1.45 2.9H7.5ZM7.26 4.24L7.15 4.87L1.21 4.24H7.26ZM7.02 5.59L6.91 6.22L0.98 5.59H7.02ZM6.79 6.93L6.67 7.56L0.74 6.93H6.79ZM6.55 8.29L6.44 8.92L0.5 8.29H6.55ZM17.59 8.96H15.17L18.28 1.55H21.75L22.3 8.96H19.85L19.79 7.83H18.03L17.59 8.96ZM17.82 1.55L17.57 2.16L11.85 1.55H17.82ZM17.26 2.9L17.01 3.51L11.28 2.9H17.26ZM19.6 3.7L18.77 5.82H19.79V3.7H19.6ZM16.7 4.24L16.43 4.86L10.71 4.24H16.7ZM16.12 5.59L15.87 6.2L10.13 5.59H16.12ZM15.56 6.93L15.3 7.55L9.56 6.93H15.56ZM14.99 8.29L14.72 8.9L8.98 8.29H14.99ZM28.77 9.13C28.33 9.13 27.8833 9.10667 27.43 9.06C26.9767 9.01333 26.53 8.93 26.09 8.81L26.78 6.73C27.5067 6.93667 28.2067 7.04 28.88 7.04C29.0467 7.04 29.2067 7.03667 29.36 7.03C29.5133 7.03 29.6733 7.02 29.84 7L29.91 6.55L29.03 6.45C28.2567 6.37 27.7167 6.19 27.41 5.91C27.1033 5.63 26.95 5.24667 26.95 4.76C26.95 4.66 26.9567 4.54667 26.97 4.42C26.9833 4.3 27 4.18 27.02 4.06C27.14 3.38667 27.3233 2.86 27.57 2.48C27.8167 2.09333 28.1667 1.82 28.62 1.66C29.0733 1.49333 29.6667 1.41 30.4 1.41C31.2867 1.41 32.1233 1.51 32.91 1.71L32.24 3.75C31.9133 3.67667 31.6133 3.62 31.34 3.58C31.0733 3.54667 30.78 3.53 30.46 3.53C30.28 3.53 30.1367 3.53 30.03 3.53C29.9167 3.53667 29.78 3.55 29.62 3.57L29.55 3.98L30.25 4.06C31.07 4.15333 31.65 4.36333 31.99 4.69C32.33 5.01667 32.5 5.42667 32.5 5.92C32.5 6.00667 32.4967 6.09667 32.49 6.19C32.4833 6.28333 32.47 6.37667 32.45 6.47C32.3367 7.11 32.16 7.61333 31.92 7.98C31.6733 8.34667 31.3833 8.61 31.05 8.77C30.71 8.93667 30.3467 9.03667 29.96 9.07C29.5667 9.11 29.17 9.13 28.77 9.13ZM27.27 2.14L21.81 1.55H27.84C27.7267 1.63667 27.6233 1.72667 27.53 1.82C27.43 1.91333 27.3433 2.02 27.27 2.14ZM26.69 3.53L20.84 2.9H26.88C26.84 2.99333 26.8067 3.09333 26.78 3.2C26.7533 3.30667 26.7233 3.41667 26.69 3.53ZM26.53 4.76V4.87L20.59 4.24H26.55C26.5433 4.32667 26.5367 4.41333 26.53 4.5C26.53 4.58667 26.53 4.67333 26.53 4.76ZM27.06 6.22L21.14 5.59H26.65C26.7367 5.83 26.8733 6.04 27.06 6.22ZM26.26 6.93L26.06 7.55L20.23 6.93H26.26ZM25.81 8.29L25.62 8.92L19.76 8.29H25.81ZM39.49 8.96H37.03L37.95 3.65H36.4L36.77 1.55H42.3L41.93 3.65H40.41L39.49 8.96ZM36.31 1.55L36.21 2.18L30.28 1.55H36.31ZM36.09 2.9L35.98 3.53L30.04 2.9H36.09ZM37.43 4.24L37.32 4.87L31.38 4.24H37.43ZM37.19 5.59L37.08 6.22L31.15 5.59H37.19ZM36.96 6.93L36.84 7.56L30.91 6.93H36.96ZM36.72 8.29L36.61 8.92L30.67 8.29H36.72ZM49.67 8.96H44.73L46.01 1.55H50.94L50.28 3.65H48L47.83 4.61H49.93L49.7 5.95H47.61L47.44 6.9H50.03L49.67 8.96ZM45.55 1.55L45.45 2.18L39.52 1.55H45.55ZM45.33 2.9L45.22 3.53L39.28 2.9H45.33ZM45.09 4.24L44.98 4.87L39.04 4.24H45.09ZM44.85 5.59L44.74 6.22L38.8 5.59H44.85ZM44.61 6.93L44.5 7.56L38.57 6.93H44.61ZM44.38 8.29L44.26 8.92L38.33 8.29H44.38ZM56.26 8.96H53.91L55.2 1.55H58.75C59.2767 1.55 59.6867 1.63 59.98 1.79C60.2733 1.95 60.4833 2.17 60.61 2.45C60.7367 2.73 60.8 3.04667 60.8 3.4C60.8 3.68 60.76 4.02 60.68 4.42C60.6 4.82667 60.4567 5.21667 60.25 5.59C60.0367 5.97 59.73 6.27333 59.33 6.5L60.13 8.96H57.51L56.98 6.8H56.64L56.26 8.96ZM54.74 1.55L54.64 2.18L48.7 1.55H54.74ZM54.51 2.9L54.4 3.53L48.46 2.9H54.51ZM57.2 3.6L56.98 4.89H57.42C57.6067 4.89 57.77 4.86333 57.91 4.81C58.0433 4.75667 58.1233 4.64333 58.15 4.47L58.24 3.98C58.24 3.96 58.24 3.94333 58.24 3.93C58.2467 3.91667 58.25 3.90333 58.25 3.89C58.25 3.76333 58.1833 3.68333 58.05 3.65C57.91 3.61667 57.73 3.6 57.51 3.6H57.2ZM54.27 4.24L54.16 4.87L48.23 4.24H54.27ZM54.04 5.59L53.92 6.22L47.99 5.59H54.04ZM53.8 6.93L53.69 7.56L47.75 6.93H53.8ZM53.56 8.29L53.45 8.92L47.51 8.29H53.56ZM70.14 9.17C68.9267 9.17 68.0733 8.93333 67.58 8.46C67.0933 7.98 66.85 7.27333 66.85 6.34C66.85 6.08 66.8667 5.80667 66.9 5.52C66.9267 5.22667 66.97 4.91667 67.03 4.59C67.2033 3.57667 67.4633 2.73 67.81 2.05C68.1567 1.37667 68.6433 0.866667 69.27 0.52C69.8967 0.173333 70.7233 0 71.75 0C72.9633 0 73.8133 0.236667 74.3 0.71C74.7933 1.17667 75.04 1.88333 75.04 2.83C75.04 3.21 75.0067 3.64667 74.94 4.14C74.88 4.64 74.78 5.14667 74.64 5.66C74.4933 6.17333 74.3 6.65667 74.06 7.11C73.8133 7.57 73.51 7.96333 73.15 8.29C72.7767 8.61667 72.34 8.84333 71.84 8.97C71.3467 9.10333 70.78 9.17 70.14 9.17ZM68.29 0.67L64 0.21H68.92C68.8067 0.276667 68.7 0.346667 68.6 0.42C68.4933 0.493333 68.39 0.576667 68.29 0.67ZM67.31 2.11L62.07 1.55H67.59C67.5433 1.64333 67.4967 1.73667 67.45 1.83C67.4033 1.91667 67.3567 2.01 67.31 2.11ZM70.14 3.14L69.49 6.78H70.6C70.9067 6.78 71.16 6.74 71.36 6.66C71.56 6.58667 71.6933 6.37667 71.76 6.03L72.4 2.39H71.28C70.9733 2.39 70.7233 2.43 70.53 2.51C70.33 2.58333 70.2 2.79333 70.14 3.14ZM67.01 2.9L66.85 3.47L61.41 2.9H67.01ZM66.58 4.83L61.08 4.24H66.68L66.64 4.52C66.6267 4.58 66.6167 4.63333 66.61 4.68C66.5967 4.73333 66.5867 4.78333 66.58 4.83ZM66.44 6.17L60.92 5.59H66.48C66.4533 5.79 66.44 5.98333 66.44 6.17ZM66.55 7.52L61.11 6.93H66.45C66.47 7.03 66.4867 7.13 66.5 7.23C66.5133 7.33 66.53 7.42667 66.55 7.52ZM67.29 8.81L62.45 8.29H66.87C66.9967 8.50333 67.1367 8.67667 67.29 8.81ZM80.57 8.96H78.21L79.5 1.55H81.41L82.86 4.31H82.95L83.42 1.55H85.76L84.46 8.96H82.55L81.11 6.19H81.06L80.57 8.96ZM79.04 1.55L78.94 2.18L73.01 1.55H79.04ZM78.82 2.9L78.7 3.53L72.77 2.9H78.82ZM78.58 4.24L78.47 4.87L72.53 4.24H78.58ZM78.34 5.59L78.23 6.22L72.29 5.59H78.34ZM78.1 6.93L77.99 7.56L72.05 6.93H78.1ZM77.86 8.29L77.75 8.92L71.82 8.29H77.86ZM93.92 8.96H88.98L90.27 1.55H95.2L94.54 3.65H92.26L92.09 4.61H94.19L93.95 5.95H91.86L91.7 6.9H94.29L93.92 8.96ZM89.81 1.55L89.71 2.18L83.77 1.55H89.81ZM89.58 2.9L89.47 3.53L83.53 2.9H89.58ZM89.34 4.24L89.23 4.87L83.3 4.24H89.34ZM89.11 5.59L88.99 6.22L83.06 5.59H89.11ZM88.87 6.93L88.76 7.56L82.82 6.93H88.87ZM88.63 8.29L88.52 8.92L82.58 8.29H88.63Z" fill="black"/>
</svg>
