<svg width="92.148" height="14.882" viewBox="0 0 92.148 14.882" xmlns="http://www.w3.org/2000/svg"><path transform="translate(0 12.572) scale(.014 -.014)" d="m204 0 110 625h390l-53-160h-176l-14-84h162l-27-149h-162l-40-232zm71 580-423 45h431zm-16-96-424 45h431zm-17-96-424 45h432zm-17-96-424 45h432zm-17-96-424 45h432zm-17-96-424 45h432zm-17-97-424 45h432z"/><path transform="translate(9.324 12.572) scale(.014 -.014)" d="m192 0 222 529h248l39-529h-175l-4 81h-126l-31-81zm171 486-408 43h426zm-40-97-409 44h427zm126-165h73v152h-14zm-167 69-409 44h428zm-40-96-410 44h428zm-41-96-410 44h429zm-41-97-410 44h429z"/><path transform="translate(19.936 12.572) scale(.014 -.014)" d="m405-12q-47 0-95.5 5t-95.5 18l49 148q78-22 150-22 18 0 34.5 0.5t34.5 2.5l5 32-63 7q-83 9-116 39t-33 82q0 11 1.5 24t3.5 26q13 72 39.5 113t75 58.5 127.5 17.5q95 0 179-21l-48-146q-35 8-64 12t-63 4q-19 0-31-0.5t-29-2.5l-5-29 50-6q88-10 124.5-45t36.5-88q0-9-1-19t-3-20q-12-69-38-108t-62-56.5-78-21.5-85-4zm-107 499-390 42h431q-12-9-22.5-19t-18.5-23zm-41-99-418 45h431q-4-10-7-21.5t-6-23.5zm-12-96-424 45h426q-1-9-1.5-18.5t-0.5-18.5zm38-96-423 45h394q9-26 29-45zm-71-95-417 44h431zm-32-98-418 45h432z"/><path transform="translate(29.988 12.572) scale(.014 -.014)" d="m277 0 66 379h-111l27 150h395l-27-150h-108l-66-379zm-58 484-424 45h431zm-17-96-424 45h432zm96-96-424 45h432zm-17-96-424 45h432zm-17-96-424 45h432zm-17-97-424 45h432z"/><path transform="translate(38.71 12.572) scale(.014 -.014)" d="m204 0 92 529h352l-47-150h-163l-12-68h150l-17-96h-149l-12-68h185l-26-147zm52 484-424 45h431zm-17-96-424 45h432zm-17-96-424 45h432zm-17-96-424 45h432zm-17-96-424 45h432zm-17-97-424 45h432z"/><path transform="translate(47.894 12.572) scale(.014 -.014)" d="m204 0 92 529h254q56 0 87.5-17t45-47 13.5-68q0-30-8.5-73t-31-83.5-65.5-64.5l57-176h-187l-38 154h-24l-27-154zm52 484-424 45h431zm-17-96-424 45h432zm184-97h32q20 0 34.5 5.5t17.5 24.5l6 35q0 2 0.5 3.5t0.5 2.5q0 14-14.5 17.5t-38.5 3.5h-22zm-201 1-424 45h432zm-17-96-424 45h432zm-17-96-424 45h432zm-17-97-424 45h432z"/><path transform="translate(60.788 12.572) scale(.014 -.014)" d="m442-15q-130 0-182.5 51t-52.5 151q0 28 3.5 59t9.5 66q19 109 56 181.5t104 109.5 177 37q130 0 182.5-50.5t52.5-151.5q0-41-6.5-94t-22-108-41.5-104-65-84q-40-35-93-49t-122-14zm-132 607-306 33h351q-12-7-23-15t-22-18zm-70-103-374 40h394q-5-10-10-19.5t-10-20.5zm156-333h79q33 0 54.5 8t28.5 45l46 260h-80q-33 0-54-8t-28-45zm-189 236-388 41h400zm-19-97-393 42h400l-3-20q-1-6-2-11.5t-2-10.5zm-10-96-394 42h397q-3-22-3-42zm8-96-389 42h382q2-11 3.5-21.5t3.5-20.5zm53-92-346 37h316q13-23 30-37z"/><path transform="translate(72.198 12.572) scale(.014 -.014)" d="m204 0 92 529h136l104-197h6l34 197h167l-93-529h-136l-103 198h-4l-35-198zm52 484-424 45h431zm-17-96-424 45h432zm-17-96-424 45h432zm-17-96-424 45h432zm-17-96-424 45h432zm-17-97-424 45h432z"/><path transform="translate(82.964 12.572) scale(.014 -.014)" d="m204 0 92 529h352l-47-150h-163l-12-68h150l-17-96h-149l-12-68h185l-26-147zm52 484-424 45h431zm-17-96-424 45h432zm-17-96-424 45h432zm-17-96-424 45h432zm-17-96-424 45h432zm-17-97-424 45h432z"/></svg>