<svg width="75.6" height="16.8" viewBox="0 0 75.6 16.8" xmlns="http://www.w3.org/2000/svg"><path transform="translate(0 13.09) scale(.014 -.014)" d="M225 376H495V306H225V0H138V689H544L534 617H225Z"/><path transform="translate(8.4 13.09) scale(.014 -.014)" d="m362 714q0-26-17-42.5t-45-16.5q-27 0-43.5 16.5t-16.5 42.5 16.5 42.5 43.5 16.5q28 0 45-16.5t17-42.5zm5-647h148v-67h-394v67h162v393h-157v67h241z"/><path transform="translate(16.8 13.09) scale(.014 -.014)" d="m530 527-12-179h-68v113h-5q-122 0-173-174v-222h107v-65h-274v65h83v397h-83v65h146l16-125q32 68 76.5 102t112.5 34q32 0 74-11z"/><path transform="translate(25.2 13.09) scale(.014 -.014)" d="m521 48-21-60q-77 10-96 75-28-36-70.5-55t-94.5-19q-79 0-124.5 44t-45.5 118q0 81 63.5 125t182.5 44h78v43q0 56-32 80.5t-93 24.5q-60 0-137-27l-23 64q93 33 173 33 96 0 146.5-45t50.5-125v-253q0-31 10-45.5t33-21.5zm-128 79v135h-76q-84 0-121-28t-37-82q0-100 101-100 39 0 74.5 20t58.5 55z"/><path transform="translate(42 13.09) scale(.014 -.014)" d="m570 0h-84l-21 360q-6 95-6 249l-116-485h-87l-124 485q2-36 2-96 0-92-4-153l-18-360h-82l39 689h121l112-472 107 472h122z"/><path transform="translate(50.4 13.09) scale(.014 -.014)" d="m527 264q0-124-59.5-199.5t-167.5-75.5q-109 0-168 73.5t-59 200.5q0 125 59.5 200t168.5 75 167.5-73.5 58.5-200.5zm-363-1q0-104 33.5-154.5t102.5-50.5 102.5 50.5 33.5 155.5q0 104-33.5 154.5t-101.5 50.5q-69 0-103-51t-34-155z"/><path transform="translate(58.8 13.09) scale(.014 -.014)" d="m100 527h72l7-74q31 40 78.5 62.5t95.5 22.5q148 0 148-156v-382h-84v320q0 59-6.5 90t-25.5 46-58 15q-43 0-81-26t-62-62v-383h-84z"/><path transform="translate(67.2 13.09) scale(.014 -.014)" d="m527 264q0-124-59.5-199.5t-167.5-75.5q-109 0-168 73.5t-59 200.5q0 125 59.5 200t168.5 75 167.5-73.5 58.5-200.5zm-363-1q0-104 33.5-154.5t102.5-50.5 102.5 50.5 33.5 155.5q0 104-33.5 154.5t-101.5 50.5q-69 0-103-51t-34-155z"/></svg>