<svg width="57.54" height="16.8" viewBox="0 0 57.54 16.8" xmlns="http://www.w3.org/2000/svg"><path transform="translate(0 13.09) scale(.014 -.014)" d="M100 0V689H466L455 613H195V378H420V303H195V0Z"/><path transform="translate(6.874 13.09) scale(.014 -.014)" d="m187 527v-527h-92v527zm18 190q0-27-18-44.5t-47-17.5q-28 0-46 17.5t-18 44.5 18 45 46 18q29 0 47-18t18-45z"/><path transform="translate(10.822 13.09) scale(.014 -.014)" d="m376 533-17-90q-24 6-46 6-49 0-79-36t-47-112v-301h-92v527h79l9-107q21 59 57 89t84 30q28 0 52-6z"/><path transform="translate(16.226 13.09) scale(.014 -.014)" d="m494 52-21-64q-41 5-66 23t-37 56q-53-79-157-79-78 0-123 44t-45 115q0 84 60.5 129t171.5 45h81v39q0 56-27 80t-83 24q-58 0-142-28l-23 67q98 36 182 36 93 0 139-45.5t46-129.5v-241q0-32 11-47.5t33-23.5zm-136 87v121h-69q-146 0-146-108 0-47 23-71t68-24q79 0 124 82z"/><path transform="translate(27.552 13.09) scale(.014 -.014)" d="m483 621-52-58q-39 31-76.5 45.5t-80.5 14.5q-54 0-89-25t-35-73q0-30 12-50.5t44.5-37.5 94.5-36q65-20 108-43t69.5-63.5 26.5-102.5q0-60-29.5-106t-85-72-131.5-26q-143 0-234 89l52 58q42-34 85-51.5t96-17.5q64 0 106 31.5t42 91.5q0 34-13 56.5t-44.5 40.5-91.5 36q-106 32-155 77t-49 122q0 52 27.5 93t77 64 112.5 23q69 0 118-19.5t95-60.5z"/><path transform="translate(35.182 13.09) scale(.014 -.014)" d="m494 52-21-64q-41 5-66 23t-37 56q-53-79-157-79-78 0-123 44t-45 115q0 84 60.5 129t171.5 45h81v39q0 56-27 80t-83 24q-58 0-142-28l-23 67q98 36 182 36 93 0 139-45.5t46-129.5v-241q0-32 11-47.5t33-23.5zm-136 87v121h-69q-146 0-146-108 0-47 23-71t68-24q79 0 124 82z"/><path transform="translate(42.798 13.09) scale(.014 -.014)" d="m496 378v-378h-92v365q0 56-21 79t-62 23q-42 0-74-24t-60-69v-374h-92v527h79l8-78q28 42 69.5 66t91.5 24q72 0 112.5-43t40.5-118z"/><path transform="translate(51.002 13.09) scale(.014 -.014)" d="m417 479-39-58q-36 23-68.5 34t-68.5 11q-45 0-71-18.5t-26-50.5 24.5-50 88.5-35q88-22 131.5-60t43.5-104q0-78-60.5-119t-147.5-41q-120 0-199 69l49 56q67-51 148-51 52 0 82.5 21.5t30.5 58.5q0 27-11 43.5t-38 29-79 26.5q-84 22-121.5 59t-37.5 94q0 41 24.5 74.5t68 52 97.5 18.5 97-15 82-45z"/></svg>