<svg width="52" height="17" viewBox="0 0 52 17" fill="none" xmlns="http://www.w3.org/2000/svg">
<path d="M0.5 12.98V1.3H4.97V2.75H2.27V6.19H4.39V7.59H2.27V12.98H0.5ZM6.85 2.26C6.53667 2.26 6.28333 2.16 6.09 1.96C5.89 1.76 5.79 1.47667 5.79 1.11C5.79 0.703333 5.89 0.416667 6.09 0.25C6.28333 0.0833333 6.54 0 6.86 0C7.2 0 7.46333 0.09 7.65 0.27C7.83667 0.456667 7.93 0.736667 7.93 1.11C7.93 1.47 7.83667 1.75 7.65 1.95C7.45667 2.15667 7.19 2.26 6.85 2.26ZM6 13.77V3.57H7.73V13.55C7.73 14.2367 7.64333 14.7567 7.47 15.11C7.29 15.4633 7.06 15.7033 6.78 15.83C6.5 15.9567 6.19667 16.02 5.87 16.02C5.73667 16.02 5.59667 16.0067 5.45 15.98C5.31 15.9533 5.17333 15.91 5.04 15.85V14.85C5.07333 14.85 5.11 14.8533 5.15 14.86C5.18333 14.86 5.21667 14.86 5.25 14.86C5.45667 14.86 5.63333 14.78 5.78 14.62C5.92667 14.4667 6 14.1833 6 13.77ZM11.15 7.75C11.3233 7.66333 11.51 7.57333 11.71 7.48C11.9167 7.39333 12.1033 7.32 12.27 7.26V6.12C12.27 5.88 12.26 5.65667 12.24 5.45C12.22 5.25 12.1567 5.08333 12.05 4.95C11.95 4.82333 11.7767 4.76 11.53 4.76C11.2833 4.76 11.0633 4.86 10.87 5.06C10.67 5.26 10.57 5.63 10.57 6.17V6.55H9.25C9.17 6.19 9.13 5.88 9.13 5.62C9.13 4.91333 9.36 4.37667 9.82 4.01C10.28 3.64333 10.8667 3.46 11.58 3.46C12.2067 3.46 12.6967 3.55 13.05 3.73C13.3967 3.90333 13.6433 4.16667 13.79 4.52C13.93 4.87333 14 5.32 14 5.86V12.98H12.67L12.54 12.17C12.36 12.4367 12.12 12.6567 11.82 12.83C11.52 13.0033 11.17 13.09 10.77 13.09C10.3633 13.09 10.0267 12.9833 9.76 12.77C9.49333 12.5633 9.29667 12.2867 9.17 11.94C9.03667 11.6 8.97 11.2267 8.97 10.82C8.97 10.0467 9.15667 9.43 9.53 8.97C9.89667 8.51 10.4367 8.10333 11.15 7.75ZM11.54 11.77C11.6867 11.77 11.82 11.7333 11.94 11.66C12.06 11.58 12.17 11.4867 12.27 11.38V8.41C12.1833 8.45 12.09 8.49333 11.99 8.54C11.89 8.59333 11.7733 8.66 11.64 8.74C11.4 8.89333 11.1733 9.12 10.96 9.42C10.7533 9.71333 10.65 10.09 10.65 10.55C10.65 10.91 10.72 11.2033 10.86 11.43C11 11.6567 11.2267 11.77 11.54 11.77ZM15.74 12.98V0.55H17.47V12.98H15.74ZM19.23 12.98V0.55H20.96V12.98H19.23ZM24.39 7.75C24.5633 7.66333 24.75 7.57333 24.95 7.48C25.15 7.39333 25.3333 7.32 25.5 7.26V6.12C25.5 5.88 25.49 5.65667 25.47 5.45C25.45 5.25 25.39 5.08333 25.29 4.95C25.1833 4.82333 25.0067 4.76 24.76 4.76C24.52 4.76 24.3 4.86 24.1 5.06C23.9067 5.26 23.81 5.63 23.81 6.17V6.55H22.49C22.41 6.19 22.37 5.88 22.37 5.62C22.37 4.91333 22.6 4.37667 23.06 4.01C23.52 3.64333 24.1067 3.46 24.82 3.46C25.4467 3.46 25.9333 3.55 26.28 3.73C26.6333 3.90333 26.88 4.16667 27.02 4.52C27.16 4.87333 27.23 5.32 27.23 5.86V12.98H25.9L25.78 12.17C25.5933 12.4367 25.35 12.6567 25.05 12.83C24.75 13.0033 24.4033 13.09 24.01 13.09C23.5967 13.09 23.2567 12.9833 22.99 12.77C22.73 12.5633 22.5333 12.2867 22.4 11.94C22.2733 11.6 22.21 11.2267 22.21 10.82C22.21 10.0467 22.3933 9.43 22.76 8.97C23.1333 8.51 23.6767 8.10333 24.39 7.75ZM24.77 11.77C24.9167 11.77 25.05 11.7333 25.17 11.66C25.2967 11.58 25.4067 11.4867 25.5 11.38V8.41C25.4133 8.45 25.32 8.49333 25.22 8.54C25.12 8.59333 25.0033 8.66 24.87 8.74C24.63 8.89333 24.4067 9.12 24.2 9.42C23.9867 9.71333 23.88 10.09 23.88 10.55C23.88 10.91 23.95 11.2033 24.09 11.43C24.2367 11.6567 24.4633 11.77 24.77 11.77ZM34.8 13.08C34.52 13.08 34.21 13.04 33.87 12.96C33.5367 12.88 33.22 12.71 32.92 12.45C32.62 12.19 32.3733 11.7967 32.18 11.27C31.9867 10.75 31.89 10.0533 31.89 9.18V5.04C31.89 4.34 31.9567 3.75667 32.09 3.29C32.2167 2.82333 32.3867 2.45 32.6 2.17C32.8133 1.89 33.05 1.68 33.31 1.54C33.5633 1.4 33.82 1.31 34.08 1.27C34.34 1.22333 34.58 1.2 34.8 1.2C35.0067 1.2 35.24 1.22 35.5 1.26C35.76 1.3 36.0167 1.39 36.27 1.53C36.5233 1.66333 36.7567 1.87 36.97 2.15C37.1833 2.42333 37.3533 2.79667 37.48 3.27C37.6133 3.73667 37.68 4.32667 37.68 5.04V9.18C37.68 10.0467 37.58 10.74 37.38 11.26C37.18 11.78 36.9267 12.17 36.62 12.43C36.3133 12.69 35.9967 12.8633 35.67 12.95C35.3433 13.0367 35.0533 13.08 34.8 13.08ZM34.8 11.69C35.1533 11.69 35.4133 11.56 35.58 11.3C35.7467 11.0333 35.83 10.5367 35.83 9.81V4.55C35.83 3.80333 35.7467 3.29 35.58 3.01C35.4133 2.73 35.1533 2.59 34.8 2.59C34.44 2.59 34.1733 2.73 34 3.01C33.8333 3.29 33.75 3.80333 33.75 4.55V9.81C33.75 10.5367 33.8333 11.0333 34 11.3C34.1733 11.56 34.44 11.69 34.8 11.69ZM39.34 12.98V3.57H40.66L40.83 4.57V4.58C41.0967 4.14667 41.4033 3.85 41.75 3.69C42.09 3.53667 42.4333 3.46 42.78 3.46C43.3267 3.46 43.75 3.65333 44.05 4.04C44.35 4.42667 44.5 5.00333 44.5 5.77V12.98H42.77V5.97C42.77 5.55667 42.7067 5.27 42.58 5.11C42.4533 4.95 42.2667 4.87 42.02 4.87C41.8467 4.87 41.6767 4.92667 41.51 5.04C41.35 5.15333 41.2033 5.31 41.07 5.51V12.98H39.34ZM46.02 9.12V7.35C46.02 6.63 46.08 6.03333 46.2 5.56C46.3267 5.08667 46.49 4.70667 46.69 4.42C46.8967 4.14 47.12 3.93 47.36 3.79C47.6067 3.65667 47.85 3.56667 48.09 3.52C48.33 3.48 48.55 3.46 48.75 3.46C49.1633 3.46 49.5467 3.54667 49.9 3.72C50.2533 3.89333 50.5333 4.19333 50.74 4.62C50.9533 5.04667 51.06 5.64 51.06 6.4C51.06 6.77333 51.04 7.16 51 7.56C50.96 7.95333 50.9067 8.3 50.84 8.6H47.75V9.56C47.75 10.38 47.82 10.9567 47.96 11.29C48.1 11.63 48.3667 11.8 48.76 11.8C48.9733 11.8 49.1667 11.7067 49.34 11.52C49.5133 11.3333 49.6 10.9933 49.6 10.5V10.09H51.02V10.52C51.02 11.4133 50.8067 12.0633 50.38 12.47C49.9533 12.8767 49.3367 13.08 48.53 13.08C47.7233 13.08 47.1033 12.77 46.67 12.15C46.2367 11.53 46.02 10.52 46.02 9.12ZM47.75 7.44H49.45C49.4567 7.34 49.4633 7.18667 49.47 6.98C49.4767 6.78 49.48 6.61667 49.48 6.49C49.48 5.87 49.4133 5.42333 49.28 5.15C49.1467 4.88333 48.9367 4.74667 48.65 4.74C48.3433 4.74 48.1167 4.89333 47.97 5.2C47.8233 5.51333 47.75 6.07333 47.75 6.88V7.44Z" fill="black"/>
</svg>
