<svg width="62" height="16" viewBox="0 0 62 16" fill="none" xmlns="http://www.w3.org/2000/svg">
<path d="M0.56 10.99L0.5 10.37C0.586667 10.3433 0.68 10.32 0.78 10.3C0.88 10.28 0.986667 10.26 1.1 10.24C1.20667 10.22 1.31 10.2033 1.41 10.19C1.51667 10.1833 1.61667 10.1733 1.71 10.16V1.91L0.61 1.7C0.596667 1.68 0.59 1.64333 0.59 1.59C0.59 1.53667 0.59 1.49333 0.59 1.46C0.59 1.39333 0.596667 1.32333 0.61 1.25C0.63 1.17667 0.653333 1.12333 0.68 1.09H7.24L7.34 1.2C7.34667 1.37333 7.34 1.57 7.32 1.79C7.3 2.00333 7.27667 2.21667 7.25 2.43C7.22333 2.64333 7.19333 2.84 7.16 3.02C7.12667 3.20667 7.09667 3.35 7.07 3.45C6.97 3.47 6.85 3.48 6.71 3.48C6.57667 3.47333 6.44333 3.46333 6.31 3.45L6.18 1.89H2.93V5.69L6.07 5.66C6.09 5.79333 6.09333 5.94333 6.08 6.11C6.06 6.27667 6.03667 6.43333 6.01 6.58L2.93 6.5V10.16L4.76 10.37C4.77333 10.3967 4.78 10.43 4.78 10.47C4.78 10.5167 4.78 10.5567 4.78 10.59C4.78 10.65 4.77 10.7233 4.75 10.81C4.73 10.8967 4.71333 10.9567 4.7 10.99H0.56ZM9.75 2.75C9.63667 2.75 9.53333 2.74 9.44 2.72C9.34667 2.69333 9.26333 2.65 9.19 2.59C9.11667 2.52333 9.06 2.44 9.02 2.34C8.98 2.24 8.96 2.11333 8.96 1.96C8.96 1.80667 8.98 1.68 9.02 1.58C9.06 1.48 9.11667 1.4 9.19 1.34C9.26333 1.28 9.34667 1.23667 9.44 1.21C9.53333 1.18333 9.63667 1.17 9.75 1.17C9.85667 1.17 9.95667 1.18333 10.05 1.21C10.15 1.23667 10.2333 1.28 10.3 1.34C10.3733 1.4 10.43 1.48 10.47 1.58C10.51 1.68 10.53 1.80667 10.53 1.96C10.53 2.11333 10.51 2.24 10.47 2.34C10.43 2.44 10.3733 2.52333 10.3 2.59C10.2333 2.65 10.15 2.69333 10.05 2.72C9.95667 2.74 9.85667 2.75 9.75 2.75ZM9.32 10.81V5.24H8.15L8.06 4.65C8.14667 4.62333 8.26 4.58667 8.4 4.54C8.54 4.5 8.68667 4.46 8.84 4.42C8.99333 4.38667 9.14333 4.36 9.29 4.34C9.43667 4.31333 9.56 4.3 9.66 4.3C9.86 4.3 10.0133 4.32333 10.12 4.37C10.2333 4.42333 10.3133 4.48667 10.36 4.56C10.4067 4.63333 10.4333 4.71333 10.44 4.8C10.4533 4.88667 10.46 4.96333 10.46 5.03V10.81C10.46 11.0567 10.4567 11.31 10.45 11.57C10.4433 11.8367 10.42 12.1 10.38 12.36C10.3467 12.62 10.2867 12.8767 10.2 13.13C10.12 13.39 10.0067 13.6433 9.86 13.89C9.70667 14.13 9.51333 14.3633 9.28 14.59C9.05333 14.8167 8.77 15.03 8.43 15.23L7.96 14.72C8.12667 14.5333 8.27333 14.36 8.4 14.2C8.53333 14.04 8.64667 13.8867 8.74 13.74C8.83333 13.6 8.91333 13.4633 8.98 13.33C9.04667 13.2033 9.1 13.0767 9.14 12.95C9.2 12.79 9.24 12.63 9.26 12.47C9.28667 12.31 9.30333 12.1433 9.31 11.97C9.31667 11.7967 9.32 11.6133 9.32 11.42C9.32 11.2267 9.32 11.0233 9.32 10.81ZM12.17 7.74C12.17 7.26667 12.2367 6.82 12.37 6.4C12.51 5.98 12.72 5.61667 13 5.31C13.28 4.99667 13.6333 4.75 14.06 4.57C14.4867 4.39 14.9933 4.3 15.58 4.3C16.1667 4.3 16.6467 4.39 17.02 4.57C17.3933 4.75 17.6867 4.99667 17.9 5.31C18.12 5.61667 18.27 5.98 18.35 6.4C18.4367 6.82 18.48 7.26667 18.48 7.74C18.48 8.22 18.41 8.67 18.27 9.09C18.1367 9.50333 17.93 9.86667 17.65 10.18C17.3633 10.4933 17.0067 10.74 16.58 10.92C16.1533 11.1 15.6467 11.19 15.06 11.19C14.4733 11.19 13.9933 11.1 13.62 10.92C13.2467 10.74 12.9533 10.4933 12.74 10.18C12.5267 9.86667 12.38 9.50333 12.3 9.09C12.2133 8.67 12.17 8.22 12.17 7.74ZM13.43 7.74C13.43 8.3 13.4733 8.75333 13.56 9.1C13.6467 9.45333 13.77 9.73 13.93 9.93C14.0967 10.13 14.2933 10.2667 14.52 10.34C14.7533 10.42 15.02 10.46 15.32 10.46C15.58 10.46 15.8267 10.42 16.06 10.34C16.2867 10.2667 16.4867 10.13 16.66 9.93C16.8333 9.73 16.9667 9.45333 17.06 9.1C17.16 8.75333 17.21 8.3 17.21 7.74C17.21 7.19333 17.1667 6.74333 17.08 6.39C16.9933 6.03667 16.87 5.76 16.71 5.56C16.55 5.35333 16.35 5.21333 16.11 5.14C15.8767 5.06667 15.6133 5.03 15.32 5.03C15.06 5.03 14.8133 5.06667 14.58 5.14C14.3533 5.21333 14.1533 5.35333 13.98 5.56C13.8067 5.76 13.6733 6.03667 13.58 6.39C13.48 6.74333 13.43 7.19333 13.43 7.74ZM19.89 10.99L19.83 10.46C20.0033 10.4 20.1867 10.3533 20.38 10.32C20.5733 10.2933 20.7567 10.2633 20.93 10.23V5.24H19.71L19.62 4.65C19.72 4.61 19.8433 4.57 19.99 4.53C20.1367 4.49 20.2833 4.45333 20.43 4.42C20.5833 4.38667 20.7333 4.35667 20.88 4.33C21.02 4.31 21.14 4.3 21.24 4.3C21.4267 4.3 21.5767 4.32333 21.69 4.37C21.7967 4.42333 21.8733 4.49 21.92 4.57C21.9733 4.65667 22.0067 4.76 22.02 4.88C22.0267 4.99333 22.03 5.11333 22.03 5.24V5.77C22.05 5.73 22.0833 5.66667 22.13 5.58C22.17 5.5 22.2167 5.41667 22.27 5.33C22.3233 5.23667 22.3767 5.15 22.43 5.07C22.4833 4.99 22.5267 4.93 22.56 4.89C22.7067 4.70333 22.89 4.55333 23.11 4.44C23.3367 4.32667 23.61 4.27 23.93 4.27C23.9633 4.27 24.0067 4.27 24.06 4.27C24.1133 4.27667 24.17 4.28 24.23 4.28C24.29 4.28667 24.35 4.29333 24.41 4.3C24.47 4.30667 24.5233 4.31667 24.57 4.33C24.57 4.38333 24.5733 4.45333 24.58 4.54C24.58 4.62667 24.58 4.72 24.58 4.82C24.5733 4.92 24.5667 5.02333 24.56 5.13C24.5533 5.23 24.5433 5.32333 24.53 5.41C24.4567 5.39667 24.3633 5.38333 24.25 5.37C24.13 5.35667 24 5.35 23.86 5.35C23.6867 5.35 23.5133 5.36333 23.34 5.39C23.1733 5.42333 23.02 5.47 22.88 5.53C22.7133 5.60333 22.5667 5.7 22.44 5.82C22.32 5.94667 22.2 6.08333 22.08 6.23V10.23L23.66 10.39C23.6667 10.41 23.67 10.4467 23.67 10.5C23.67 10.56 23.67 10.6033 23.67 10.63C23.67 10.6967 23.6667 10.7667 23.66 10.84C23.6533 10.9067 23.64 10.9567 23.62 10.99H19.89ZM27.75 11.19C27.2567 11.19 26.86 11.1033 26.56 10.93C26.2533 10.7567 26.02 10.5233 25.86 10.23C25.6933 9.93667 25.58 9.59333 25.52 9.2C25.4667 8.80667 25.44 8.39 25.44 7.95C25.44 7.31 25.5133 6.76 25.66 6.3C25.8 5.84 26.0067 5.46 26.28 5.16C26.5533 4.86 26.8867 4.64333 27.28 4.51C27.6733 4.37 28.12 4.3 28.62 4.3C28.7133 4.3 28.8267 4.30333 28.96 4.31C29.0867 4.31667 29.22 4.33333 29.36 4.36C29.5 4.38 29.6433 4.41 29.79 4.45C29.9367 4.49 30.08 4.53667 30.22 4.59V0.94H28.91L28.83 0.35C28.8833 0.33 28.9833 0.3 29.13 0.26C29.27 0.22 29.4233 0.18 29.59 0.14C29.7633 0.106667 29.94 0.0733333 30.12 0.04C30.2933 0.0133333 30.4467 0 30.58 0C30.7667 0 30.9133 0.023333 31.02 0.0699997C31.12 0.123333 31.1967 0.186666 31.25 0.26C31.3033 0.333333 31.3333 0.413333 31.34 0.5C31.3533 0.586667 31.3633 0.666666 31.37 0.74V10.27H32.69L32.74 10.83C32.6867 10.8567 32.5967 10.89 32.47 10.93C32.3367 10.97 32.19 11.01 32.03 11.05C31.8767 11.09 31.7167 11.1233 31.55 11.15C31.3833 11.1767 31.2367 11.19 31.11 11.19C30.9233 11.19 30.7767 11.1633 30.67 11.11C30.5633 11.0567 30.4833 10.9933 30.43 10.92C30.3767 10.8467 30.3433 10.7633 30.33 10.67C30.3233 10.5833 30.32 10.5067 30.32 10.44V10.2H30.3C30.1667 10.3133 30.0033 10.4267 29.81 10.54C29.61 10.66 29.3933 10.7667 29.16 10.86C28.9333 10.9533 28.6967 11.0333 28.45 11.1C28.2033 11.16 27.97 11.19 27.75 11.19ZM28.06 10.28C28.2333 10.28 28.4167 10.26 28.61 10.22C28.8033 10.18 28.9967 10.1233 29.19 10.05C29.3767 9.98333 29.56 9.90667 29.74 9.82C29.92 9.73333 30.08 9.64333 30.22 9.55V5.27C30.08 5.23667 29.8933 5.20333 29.66 5.17C29.42 5.13 29.16 5.11 28.88 5.11C28.4 5.11 28.0133 5.18 27.72 5.32C27.4267 5.46 27.2 5.65667 27.04 5.91C26.8867 6.16333 26.7833 6.46333 26.73 6.81C26.6767 7.16333 26.65 7.55 26.65 7.97C26.65 8.32333 26.67 8.64333 26.71 8.93C26.7433 9.21667 26.81 9.46 26.91 9.66C27.0167 9.86 27.1633 10.0133 27.35 10.12C27.53 10.2267 27.7667 10.28 28.06 10.28ZM41.48 11.26H40.99C40.4567 11.26 39.9933 11.2 39.6 11.08C39.2 10.9533 38.86 10.7733 38.58 10.54C38.3 10.3133 38.07 10.04 37.89 9.72C37.71 9.40667 37.5667 9.05667 37.46 8.67C37.3533 8.28333 37.28 7.87333 37.24 7.44C37.2067 7.00667 37.19 6.55667 37.19 6.09V6.07C37.19 5.59667 37.22 5.13667 37.28 4.69C37.3467 4.24333 37.45 3.83 37.59 3.45C37.7233 3.07 37.9033 2.72 38.13 2.4C38.35 2.08667 38.62 1.82 38.94 1.6C39.2533 1.37333 39.6167 1.2 40.03 1.08C40.45 0.953333 40.9233 0.89 41.45 0.89H41.93C42.47 0.89 42.9333 0.95 43.32 1.07C43.7133 1.19667 44.05 1.37 44.33 1.59C44.6033 1.81 44.8233 2.07333 44.99 2.38C45.1633 2.69333 45.2967 3.04 45.39 3.42C45.4833 3.8 45.5467 4.21 45.58 4.65C45.6133 5.09 45.63 5.55 45.63 6.03V6.12C45.63 6.84 45.5533 7.51 45.4 8.13C45.2533 8.75667 45.0133 9.30333 44.68 9.77C44.3533 10.23 43.9267 10.5933 43.4 10.86C42.8733 11.1267 42.2333 11.26 41.48 11.26ZM41.38 10.42C42 10.42 42.5033 10.31 42.89 10.09C43.2767 9.87667 43.5767 9.57667 43.79 9.19C43.9967 8.79667 44.1367 8.33667 44.21 7.81C44.2833 7.27667 44.32 6.69667 44.32 6.07C44.32 5.69667 44.3133 5.33 44.3 4.97C44.28 4.61 44.2367 4.27 44.17 3.95C44.1033 3.63 44.0067 3.33667 43.88 3.07C43.7533 2.79667 43.5833 2.56333 43.37 2.37C43.1567 2.17667 42.89 2.02667 42.57 1.92C42.25 1.80667 41.8667 1.75 41.42 1.75C41.0067 1.75 40.6467 1.8 40.34 1.9C40.0333 2 39.77 2.14 39.55 2.32C39.3367 2.50667 39.1633 2.73 39.03 2.99C38.8967 3.24333 38.79 3.53 38.71 3.85C38.63 4.17 38.5767 4.51667 38.55 4.89C38.5233 5.26333 38.51 5.65667 38.51 6.07C38.51 6.43 38.52 6.78333 38.54 7.13C38.56 7.48333 38.6033 7.82 38.67 8.14C38.73 8.46 38.8267 8.76 38.96 9.04C39.0867 9.32 39.2567 9.56333 39.47 9.77C39.6767 9.97 39.9367 10.13 40.25 10.25C40.5633 10.3633 40.94 10.42 41.38 10.42ZM47.41 10.99L47.34 10.46C47.5133 10.4067 47.6933 10.3633 47.88 10.33C48.0667 10.2967 48.2433 10.2633 48.41 10.23V5.24H47.23L47.15 4.65C47.2033 4.63 47.2933 4.6 47.42 4.56C47.5467 4.52 47.69 4.48 47.85 4.44C48.0033 4.4 48.16 4.36667 48.32 4.34C48.4867 4.31333 48.6367 4.3 48.77 4.3C48.9567 4.3 49.1033 4.32333 49.21 4.37C49.3167 4.42333 49.3933 4.48667 49.44 4.56C49.4933 4.63333 49.5233 4.71333 49.53 4.8C49.5433 4.88667 49.5533 4.96333 49.56 5.03V5.15C49.9467 4.85667 50.3267 4.64333 50.7 4.51C51.0733 4.37 51.4667 4.3 51.88 4.3C52.24 4.3 52.5433 4.33 52.79 4.39C53.03 4.45667 53.2267 4.57333 53.38 4.74C53.5267 4.9 53.63 5.12333 53.69 5.41C53.7567 5.69667 53.79 6.06 53.79 6.5V10.25L54.86 10.44C54.8733 10.4667 54.88 10.4967 54.88 10.53C54.88 10.57 54.88 10.6033 54.88 10.63C54.88 10.6967 54.87 10.7667 54.85 10.84C54.83 10.9067 54.81 10.9567 54.79 10.99H51.77L51.72 10.46C51.8867 10.4067 52.04 10.3667 52.18 10.34C52.3267 10.3133 52.48 10.2833 52.64 10.25V6.57C52.64 6.31 52.6233 6.09333 52.59 5.92C52.5567 5.74667 52.5 5.60667 52.42 5.5C52.3333 5.4 52.2233 5.33 52.09 5.29C51.9633 5.24333 51.8033 5.22 51.61 5.22C51.4033 5.22 51.21 5.23 51.03 5.25C50.85 5.27 50.68 5.29667 50.52 5.33C50.3533 5.36333 50.1933 5.41 50.04 5.47C49.88 5.52333 49.72 5.58667 49.56 5.66V10.23L50.64 10.44C50.6467 10.4667 50.65 10.4967 50.65 10.53C50.65 10.57 50.65 10.6033 50.65 10.63C50.65 10.6967 50.6433 10.7667 50.63 10.84C50.61 10.9067 50.5933 10.9567 50.58 10.99H47.41ZM55.92 8.05C55.92 7.38333 55.9867 6.81333 56.12 6.34C56.26 5.86667 56.46 5.48 56.72 5.18C56.9733 4.87333 57.2833 4.65 57.65 4.51C58.0167 4.37 58.4267 4.3 58.88 4.3C59.38 4.3 59.79 4.35667 60.11 4.47C60.43 4.59 60.68 4.77333 60.86 5.02C61.04 5.26667 61.1667 5.58333 61.24 5.97C61.3067 6.35667 61.34 6.82333 61.34 7.37L57.1 7.4C57.1 7.72667 57.1067 8.02333 57.12 8.29C57.1267 8.55667 57.1533 8.8 57.2 9.02C57.2533 9.23333 57.3233 9.42333 57.41 9.59C57.5033 9.75 57.63 9.88333 57.79 9.99C57.9567 10.0967 58.1567 10.1767 58.39 10.23C58.63 10.2833 58.9233 10.31 59.27 10.31C59.4433 10.31 59.63 10.2967 59.83 10.27C60.03 10.2367 60.22 10.2 60.4 10.16C60.58 10.1133 60.7367 10.0733 60.87 10.04C60.9967 10 61.08 9.97333 61.12 9.96L61.35 10.54C61.3167 10.56 61.2333 10.6067 61.1 10.68C60.9733 10.7467 60.8033 10.82 60.59 10.9C60.3767 10.9733 60.1267 11.04 59.84 11.1C59.5533 11.16 59.24 11.19 58.9 11.19C58.4733 11.19 58.08 11.1533 57.72 11.08C57.3533 11 57.04 10.85 56.78 10.63C56.5133 10.4033 56.3067 10.0867 56.16 9.68C56.0067 9.26667 55.9267 8.72333 55.92 8.05ZM57.14 6.74L60.16 6.63C60.1533 6.24333 60.1033 5.94 60.01 5.72C59.9233 5.5 59.8167 5.33667 59.69 5.23C59.5567 5.12333 59.4167 5.05667 59.27 5.03C59.1167 5.00333 58.9733 4.99 58.84 4.99C58.54 4.99 58.29 5.02333 58.09 5.09C57.8833 5.15667 57.7133 5.26333 57.58 5.41C57.4533 5.55 57.3533 5.73 57.28 5.95C57.2133 6.17 57.1667 6.43333 57.14 6.74Z" fill="black"/>
</svg>
