<svg width="62.18" height="17.5" viewBox="0 0 62.18 17.5" xmlns="http://www.w3.org/2000/svg"><path transform="translate(0 13.262) scale(.0068359 -.0068359)" d="m102 90q19 7 41.5 11.5t46 8.5 46.5 6.5 43 5.5v1206l-161 31q-2 5-2.5 16.5t-0.5 18.5q0 15 4 31t9 23h961l14-16q1-38-3-85.5t-10-94-13.5-87-12.5-62.5q-23-5-53-4t-59 4l-18 228h-476v-556l459 5q5-29 1.5-66t-9.5-69l-451 12v-535l268-32q2-5 2-14.5t0-16.5q0-14-4-33t-7-26h-606z"/><path transform="translate(7.8955 13.262) scale(.0068359 -.0068359)" d="m300 1205q-24 0-44.5 5.5t-36.5 19-25 36-9 55.5 9 55 25 35.5 36.5 19 44.5 5.5 45-5.5 36.5-19 24.5-35.5 9-55-9-55.5-24.5-36-36.5-19-45-5.5zm-63-364h-171l-12 86q19 7 49.5 16.5t64 17 65.5 13 55 5.5q43 0 67-11t34.5-27 12.5-35 2-34v-845q0-55-1.5-112.5t-9.5-114.5-26-113.5-51-110-83.5-103-124.5-93.5l-70 74q37 42 65.5 77t49.5 66.5 35.5 60 23.5 56.5q12 34 17 69.5t7 73.5 1.5 80-0.5 90z"/><path transform="translate(11.724 13.262) scale(.0068359 -.0068359)" d="m95 475q0 105 29.5 196.5t91 160 155 108 222.5 39.5 211-39.5 129.5-108 65.5-160 18-196.5-30-196.5-91.5-160-155.5-108-222-39.5q-129 0-211 39.5t-129 108-65 160-18 196.5zm184 0q0-122 19-199t54.5-121 86.5-60.5 116-16.5q58 0 108.5 16.5t88 60.5 59 121 21.5 199q0 121-19 198.5t-54.5 121.5-87 60.5-116.5 16.5q-57 0-107.5-16.5t-88-60.5-59-121.5-21.5-198.5z"/><path transform="translate(19.353 13.262) scale(.0068359 -.0068359)" d="m99 78q38 13 80.5 19.5t80.5 13.5v730h-179l-13 86q22 9 54 18t65.5 16.5 65 12.5 52.5 5q42 0 65.5-11t35-29.5 13.5-44 2-53.5v-77q4 9 14 27t21.5 37.5 23 37.5 19.5 27q32 41 80.5 65.5t119.5 24.5q7 0 19-0.5t25-1.5 26-2.5 23-4.5q1-12 1.5-31t0-41-2-44.5-4.5-41.5q-17 3-42 6t-57 3q-38 0-75-6.5t-67-19.5q-38-16-65-43t-53-59v-586l231-23q2-5 2-17t0-19q0-14-1.5-29.5t-5.5-22.5h-546z"/><path transform="translate(24.992 13.262) scale(.0068359 -.0068359)" d="m433-29q-108 0-174.5 38t-103 102.5-48.5 150.5-12 182q0 141 31.5 242t91 166.5 146 96 196.5 30.5q21 0 49-2t59-7 63.5-13.5 62.5-20.5v534h-192l-11 86q12 5 43 13.5t68.5 17 76.5 15 67 6.5q42 0 64.5-11t34-27.5 14-35.5 3.5-34v-1394h193l8-83q-12-5-40.5-14t-63-17.5-71-14.5-64.5-6q-41 0-64.5 11.5t-35 28-14 36-2.5 34.5v34h-3q-28-24-71.5-49.5t-94-46.5-104.5-34.5-102-13.5zm45 133q38 0 80.5 9t84.5 24 81 34 70 39v627q-30 7-82.5 15t-113.5 8q-106 0-170-30.5t-98.5-86-46-132.5-11.5-169q0-78 8-140.5t30.5-106.5 63-67.5 104.5-23.5z"/><path transform="translate(36.381 13.262) scale(.0068359 -.0068359)" d="m704-40q-117 0-204 27.5t-149 78-101.5 120-62.5 154-31.5 180-8.5 197.5v2q0 105 14 202.5t44.5 181.5 79.5 153 118 118 160.5 76 207.5 27h70q118 0 204-26.5t146.5-75 97.5-116.5 58-151.5 28-180 7-201.5v-13q0-158-33-295t-105.5-239-188-160.5-280.5-58.5zm56 123q137 0 221.5 48t131 133 62.5 201.5 16 253.5q0 82-4 161t-18.5 149.5-42 129.5-74.5 101.5-117 66.5-169 24q-91 0-158-21.5t-114.5-61.5-77-97-46.5-127-23.5-152-6.5-173q0-78 4.5-155t19-147.5 42.5-131.5 74.5-106 115-70.5 164.5-25.5z"/><path transform="translate(46.785 13.262) scale(.0068359 -.0068359)" d="m111 78q37 11 78.5 18.5t77.5 14.5v730h-172l-12 86q12 5 39.5 14t62 17.5 70 14.5 64.5 6q42 0 65-11t34-27 13.5-35 3.5-34v-17q85 63 167 93.5t173 30.5q79 0 132.5-14t86-50 46.5-98.5 14-159.5v-549l157-27q2-6 2-14t0-15q0-14-4.5-29.5t-8.5-22.5h-442l-7 78q36 11 68 17t67 13v539q0 57-7.5 95t-25.5 60.5-47 32-71 9.5q-45 0-84.5-4t-75.5-12-70-20-70-28v-669l158-30q2-6 2-14t0-15q0-14-3.5-29.5t-7.5-22.5h-464z"/><path transform="translate(55.46 13.262) scale(.0068359 -.0068359)" d="m97 430q-1 146 29.5 250t86.5 170.5 136.5 97.5 180.5 31q109 0 179-25.5t110-80 55.5-139.5 14.5-204l-620-5q0-71 2.5-130t13-106.5 30.5-83 55.5-59 88-35.5 127.5-12q38 0 82.5 7t84 16 68 17.5 36.5 11.5l34-85q-7-5-36-20.5t-75.5-32-109.5-29.5-138-13q-93 0-172.5 16.5t-137.5 65.5-91 139-34 238zm620 208q-2 85-21.5 133t-48 71.5-61.5 29-63 5.5q-65 0-109.5-14.5t-73.5-45.5-44-79.5-21-115.5z"/></svg>