<svg width="53" height="11" viewBox="0 0 53 11" fill="none" xmlns="http://www.w3.org/2000/svg">
<path d="M1.65 10.32V2.65H0.82C0.726667 2.65 0.65 2.61667 0.59 2.55C0.53 2.49 0.5 2.41333 0.5 2.32C0.5 2.22667 0.53 2.15 0.59 2.09C0.65 2.02333 0.726667 1.99 0.82 1.99H7.01C7.25 1.99 7.37 2.1 7.37 2.32V3.47C7.37 3.56333 7.33333 3.64 7.26 3.7C7.18667 3.76 7.1 3.79 7 3.79C6.89333 3.79 6.80333 3.76 6.73 3.7C6.65667 3.64 6.62 3.56333 6.62 3.47V2.65H2.4V5.89H5.95V5.38C5.95 5.28667 5.98333 5.20667 6.05 5.14C6.12333 5.08 6.21 5.05 6.31 5.05C6.41 5.05 6.49667 5.08 6.57 5.14C6.63667 5.20667 6.67 5.28667 6.67 5.38V7.08C6.67 7.17333 6.63667 7.25 6.57 7.31C6.49667 7.37667 6.41 7.41 6.31 7.41C6.21 7.41 6.12333 7.37667 6.05 7.31C5.98333 7.25 5.95 7.17333 5.95 7.08V6.55H2.4V10.32C2.4 10.4133 2.36333 10.49 2.29 10.55C2.21667 10.61 2.13 10.64 2.03 10.64C1.92333 10.64 1.83333 10.61 1.76 10.55C1.68667 10.49 1.65 10.4133 1.65 10.32ZM9.89 9.84H10.44C10.5333 9.84 10.61 9.87333 10.67 9.94C10.73 10.0067 10.76 10.0867 10.76 10.18C10.76 10.2733 10.73 10.35 10.67 10.41C10.61 10.47 10.5333 10.5 10.44 10.5H9.89C9.13667 10.5 8.76 10.1967 8.76 9.59V0.66H7.84C7.74667 0.66 7.66667 0.63 7.6 0.57C7.54 0.51 7.51 0.433333 7.51 0.34C7.51 0.246667 7.54 0.166667 7.6 0.0999999C7.66667 0.0333332 7.74667 0 7.84 0H9.14C9.24 0 9.32667 0.0333332 9.4 0.0999999C9.48 0.166667 9.52 0.246667 9.52 0.34V9.58C9.52 9.75333 9.64333 9.84 9.89 9.84ZM15.31 8.6V8.33C14.6967 8.16333 14.1733 8.08 13.74 8.08C13.3067 8.08 12.95 8.16333 12.67 8.33C12.3967 8.49667 12.26 8.73333 12.26 9.04C12.26 9.34 12.35 9.57333 12.53 9.74C12.7033 9.91333 12.9433 10 13.25 10C14.11 10 14.7967 9.53333 15.31 8.6ZM16.43 9.84H16.98C17.0733 9.84 17.15 9.87333 17.21 9.94C17.27 10.0067 17.3 10.0867 17.3 10.18C17.3 10.2733 17.27 10.35 17.21 10.41C17.15 10.47 17.0733 10.5 16.98 10.5H16.36C16.0267 10.5 15.77 10.4267 15.59 10.28C15.4033 10.1267 15.31 9.91667 15.31 9.65C15.31 9.60333 15.3167 9.55 15.33 9.49C14.83 10.2567 14.11 10.64 13.17 10.64C12.65 10.64 12.24 10.5 11.94 10.22C11.6467 9.94 11.5 9.55 11.5 9.05C11.5 8.55 11.7 8.16 12.1 7.88C12.4933 7.59333 12.9867 7.45 13.58 7.45C14.1733 7.45 14.75 7.54667 15.31 7.74V6.78C15.31 6.32667 15.1467 6.03667 14.82 5.91C14.5667 5.81667 14.22 5.77 13.78 5.77C13.3333 5.77 12.9233 5.84333 12.55 5.99V6.87C12.55 6.96333 12.5133 7.04333 12.44 7.11C12.3667 7.17 12.28 7.2 12.18 7.2C12.0733 7.2 11.9833 7.17 11.91 7.11C11.8367 7.04333 11.8 6.96333 11.8 6.87V5.81C11.8 5.69 11.86 5.59667 11.98 5.53C12.44 5.25667 13.0467 5.12 13.8 5.12C14.5533 5.12 15.1167 5.24667 15.49 5.5C15.8633 5.74667 16.05 6.17333 16.05 6.78V9.58C16.05 9.75333 16.1767 9.84 16.43 9.84ZM26.12 6.64V9.58C26.12 9.75333 26.2467 9.84 26.5 9.84H27.04C27.1333 9.84 27.21 9.87333 27.27 9.94C27.3367 10.0067 27.37 10.0867 27.37 10.18C27.37 10.2733 27.3367 10.35 27.27 10.41C27.21 10.47 27.1333 10.5 27.04 10.5H26.5C25.74 10.5 25.36 10.1967 25.36 9.59V6.64C25.36 6.06 25.09 5.77 24.55 5.77C23.8233 5.77 23.2233 6.17667 22.75 6.99V10.32C22.75 10.4133 22.71 10.49 22.63 10.55C22.5567 10.61 22.47 10.64 22.37 10.64C22.2633 10.64 22.1733 10.61 22.1 10.55C22.0267 10.49 21.99 10.4133 21.99 10.32V6.64C21.99 6.06 21.72 5.77 21.18 5.77C20.76 5.77 20.4067 5.87667 20.12 6.09C19.8333 6.30333 19.56 6.64 19.3 7.1V10.32C19.3 10.4133 19.2633 10.49 19.19 10.55C19.1167 10.61 19.0267 10.64 18.92 10.64C18.82 10.64 18.7333 10.61 18.66 10.55C18.5867 10.49 18.55 10.4133 18.55 10.32V6.19C18.55 6.01 18.46 5.92 18.28 5.92H17.62C17.5267 5.92 17.45 5.89 17.39 5.83C17.33 5.77 17.3 5.69333 17.3 5.6C17.3 5.50667 17.33 5.42667 17.39 5.36C17.45 5.29333 17.5267 5.26 17.62 5.26H18.38C18.96 5.26 19.25 5.58 19.25 6.22C19.5367 5.84667 19.8267 5.57 20.12 5.39C20.4133 5.21 20.77 5.12 21.19 5.12C21.9967 5.12 22.4933 5.45667 22.68 6.13C22.96 5.79667 23.2433 5.54667 23.53 5.38C23.8167 5.20667 24.18 5.12 24.62 5.12C25.06 5.12 25.42 5.25 25.7 5.51C25.98 5.76333 26.12 6.14 26.12 6.64ZM32.22 7.42C32.1933 6.91333 32.0467 6.51333 31.78 6.22C31.5133 5.92 31.13 5.77 30.63 5.77C30.1367 5.77 29.72 5.92 29.38 6.22C29.0467 6.52667 28.8367 6.92667 28.75 7.42H32.22ZM32.25 9.16C32.3167 9.04667 32.3933 8.99 32.48 8.99C32.56 8.99 32.6433 9.01 32.73 9.05C32.81 9.09 32.8667 9.15667 32.9 9.25C32.9333 9.33667 32.9267 9.41667 32.88 9.49C32.4067 10.2567 31.65 10.64 30.61 10.64C29.79 10.64 29.1433 10.3767 28.67 9.85C28.2033 9.32333 27.97 8.65667 27.97 7.85C27.97 7.05 28.2133 6.39667 28.7 5.89C29.18 5.37667 29.8167 5.12 30.61 5.12C31.4033 5.12 31.9933 5.36 32.38 5.84C32.7733 6.31333 32.97 6.94667 32.97 7.74C32.97 7.95333 32.8467 8.06 32.6 8.06L28.72 8.08C28.76 8.66 28.95 9.12333 29.29 9.47C29.63 9.82333 30.07 10 30.61 10C31.3433 10 31.89 9.72 32.25 9.16ZM34.6 5.92H33.95C33.8567 5.92 33.7767 5.89 33.71 5.83C33.65 5.77 33.62 5.69333 33.62 5.6C33.62 5.50667 33.65 5.42667 33.71 5.36C33.7767 5.29333 33.8567 5.26 33.95 5.26H34.7C35.28 5.26 35.57 5.58 35.57 6.22C36.13 5.48667 36.8333 5.12 37.68 5.12C38.1867 5.12 38.6 5.25 38.92 5.51C39.2467 5.76333 39.41 6.14 39.41 6.64V9.58C39.41 9.75333 39.5333 9.84 39.78 9.84H40.33C40.4233 9.84 40.5 9.87333 40.56 9.94C40.62 10.0067 40.65 10.0867 40.65 10.18C40.65 10.2733 40.62 10.35 40.56 10.41C40.5 10.47 40.4233 10.5 40.33 10.5H39.78C39.0267 10.5 38.65 10.1967 38.65 9.59V6.64C38.65 6.36 38.5633 6.14333 38.39 5.99C38.2167 5.84333 37.9767 5.77 37.67 5.77C36.81 5.77 36.13 6.21667 35.63 7.11V10.32C35.63 10.4133 35.59 10.49 35.51 10.55C35.4367 10.61 35.35 10.64 35.25 10.64C35.1433 10.64 35.0533 10.61 34.98 10.55C34.9067 10.49 34.87 10.4133 34.87 10.32V6.19C34.87 6.01 34.78 5.92 34.6 5.92ZM45.51 9.16C45.5833 9.04667 45.66 8.99 45.74 8.99C45.82 8.99 45.9033 9.00667 45.99 9.04C46.1167 9.1 46.18 9.18 46.18 9.28C46.18 9.37333 46.1667 9.44333 46.14 9.49C45.6667 10.2567 44.91 10.64 43.87 10.64C43.0767 10.64 42.4433 10.3733 41.97 9.84C41.49 9.3 41.25 8.63667 41.25 7.85C41.25 7.07 41.5 6.42 42 5.9C42.5 5.38 43.12 5.12 43.86 5.12C44.6067 5.12 45.2533 5.29333 45.8 5.64C45.9133 5.71333 45.97 5.80333 45.97 5.91V7.08C45.97 7.17333 45.9333 7.25 45.86 7.31C45.7867 7.37667 45.6967 7.41 45.59 7.41C45.49 7.41 45.4033 7.37667 45.33 7.31C45.2567 7.25 45.22 7.17333 45.22 7.08V6.09C44.8467 5.87667 44.3967 5.77 43.87 5.77C43.35 5.77 42.9067 5.96667 42.54 6.36C42.18 6.74667 42 7.25333 42 7.88C42 8.5 42.1733 9.00667 42.52 9.4C42.8733 9.8 43.3233 10 43.87 10C44.5967 10 45.1433 9.72 45.51 9.16ZM49.95 10C50.5167 10 50.98 9.80333 51.34 9.41C51.7 9.01667 51.88 8.51 51.88 7.89C51.88 7.27 51.7 6.76 51.34 6.36C50.98 5.96667 50.5167 5.77 49.95 5.77C49.3767 5.77 48.91 5.96667 48.55 6.36C48.1967 6.76 48.02 7.27 48.02 7.89C48.02 8.51 48.1967 9.01667 48.55 9.41C48.91 9.80333 49.3767 10 49.95 10ZM48.01 9.86C47.51 9.34667 47.26 8.68667 47.26 7.88C47.26 7.08 47.5133 6.42 48.02 5.9C48.52 5.38 49.1633 5.12 49.95 5.12C50.73 5.12 51.37 5.38 51.87 5.9C52.37 6.42 52.62 7.08333 52.62 7.89C52.62 8.69667 52.37 9.35667 51.87 9.87C51.37 10.3833 50.7267 10.64 49.94 10.64C49.1533 10.64 48.51 10.38 48.01 9.86Z" fill="black"/>
</svg>
