<svg width="77" height="13" viewBox="0 0 77 13" fill="none" xmlns="http://www.w3.org/2000/svg">
<path d="M1.86 12.54C1.65333 12.54 1.44667 12.5033 1.24 12.43C1.02667 12.3567 0.85 12.24 0.71 12.08C0.57 11.92 0.5 11.72 0.5 11.48C0.5 11.44 0.503333 11.3967 0.51 11.35C0.51 11.3033 0.516667 11.2633 0.53 11.23C0.576667 10.9967 0.713333 10.8033 0.94 10.65C1.16667 10.4967 1.39667 10.4233 1.63 10.43C1.71667 10.29 1.84333 10.22 2.01 10.22C2.13 10.22 2.23667 10.2667 2.33 10.36C2.37 10.3667 2.41 10.3733 2.45 10.38C2.49667 10.3867 2.54333 10.39 2.59 10.39C2.66333 10.39 2.73333 10.38 2.8 10.36C2.86 10.34 2.89667 10.3067 2.91 10.26C2.93667 10.1667 2.97 10.1633 3.01 10.25C3.02333 10.3167 3.01667 10.3933 2.99 10.48C2.96333 10.5667 2.87 10.62 2.71 10.64C2.63667 10.64 2.55333 10.6167 2.46 10.57L2.47 10.6C2.49 10.6733 2.5 10.7333 2.5 10.78C2.5 10.8333 2.49667 10.89 2.49 10.95C2.47667 11.0033 2.47 11.0533 2.47 11.1C2.47 11.1933 2.50333 11.2733 2.57 11.34C2.63667 11.4067 2.70667 11.43 2.78 11.41C2.70667 11.5433 2.6 11.61 2.46 11.61C2.34667 11.61 2.24333 11.5633 2.15 11.47C2.05 11.3833 1.99333 11.27 1.98 11.13C1.97333 10.9433 1.95 10.8 1.91 10.7C1.86333 10.6067 1.78 10.55 1.66 10.53H1.65C1.47 10.5167 1.29333 10.59 1.12 10.75C0.94 10.9033 0.826667 11.0767 0.78 11.27C0.773333 11.31 0.766667 11.35 0.76 11.39C0.753333 11.43 0.75 11.47 0.75 11.51C0.75 11.77 0.853333 11.9733 1.06 12.12C1.26667 12.2733 1.5 12.35 1.76 12.35C2.18 12.35 2.62333 12.19 3.09 11.87C3.55667 11.5567 4.03333 11.1367 4.52 10.61C5.00667 10.09 5.49 9.51333 5.97 8.88C6.45 8.24 6.90333 7.60333 7.33 6.97H5.51C4.77667 6.97 4.23667 7.12333 3.89 7.43C3.54333 7.74333 3.37 8.09 3.37 8.47C3.37 8.67667 3.41667 8.87667 3.51 9.07C3.60333 9.25667 3.74 9.42667 3.92 9.58L3.87 9.63C3.73 9.58333 3.59333 9.49 3.46 9.35C3.32667 9.21 3.21667 9.04667 3.13 8.86C3.05 8.67333 3.01 8.49667 3.01 8.33C3.01 7.91 3.22667 7.54667 3.66 7.24C4.09333 6.93333 4.71 6.78 5.51 6.78H5.96C5.84 6.74 5.72 6.67667 5.6 6.59C5.48667 6.49667 5.43 6.39 5.43 6.27C5.43 6.17 5.46667 6.07667 5.54 5.99C5.61333 5.91 5.68667 5.86333 5.76 5.85H5.81C5.84333 5.85 5.86 5.86 5.86 5.88C5.86 5.90667 5.83667 5.94333 5.79 5.99C5.76333 6.01667 5.75 6.05333 5.75 6.1C5.75 6.21333 5.80667 6.33667 5.92 6.47C6.03333 6.59667 6.13 6.68333 6.21 6.73C6.28333 6.74333 6.33 6.76 6.35 6.78H7.47C7.58333 6.62 7.69333 6.45667 7.8 6.29C7.90667 6.11667 8.01333 5.95667 8.12 5.81C8.32 5.50333 8.56 5.17333 8.84 4.82C9.12 4.46 9.43 4.10333 9.77 3.75C10.1033 3.39 10.4467 3.06333 10.8 2.77C10.2067 2.64333 9.58667 2.50333 8.94 2.35C8.3 2.20333 7.66333 2.07667 7.03 1.97C6.40333 1.86333 5.8 1.81 5.22 1.81C4.68667 1.81 4.19 1.87 3.73 1.99C3.26333 2.11 2.85333 2.32333 2.5 2.63C2.18667 2.92333 1.94667 3.23333 1.78 3.56C1.62 3.89333 1.54 4.22 1.54 4.54C1.54 4.97333 1.69667 5.34667 2.01 5.66C2.33 5.96667 2.80667 6.1 3.44 6.06C3.43333 6.04 3.43 6.01667 3.43 5.99C3.43 5.96333 3.43 5.94 3.43 5.92C3.43 5.68667 3.52333 5.5 3.71 5.36C3.83667 5.26667 3.95333 5.20667 4.06 5.18C4.16 5.15333 4.25667 5.13333 4.35 5.12C4.45 5.10667 4.56 5.05667 4.68 4.97C4.79333 4.88333 4.85 4.78 4.85 4.66C4.85 4.64 4.84333 4.60333 4.83 4.55C4.84333 4.55 4.87333 4.55333 4.92 4.56C4.96 4.57333 5 4.61667 5.04 4.69C5.06667 4.73 5.08333 4.77667 5.09 4.83C5.10333 4.88333 5.11 4.94 5.11 5C5.11 5.19333 5.05667 5.40667 4.95 5.64C4.83667 5.86667 4.71667 6.04 4.59 6.16C4.49667 6.24667 4.39667 6.30667 4.29 6.34C4.18333 6.38 4.07667 6.4 3.97 6.4C3.78333 6.4 3.65 6.35333 3.57 6.26C3.53 6.22 3.50667 6.19 3.5 6.17C3.01333 6.20333 2.59333 6.15 2.24 6.01C1.88 5.87667 1.59 5.69333 1.37 5.46C1.39 5.51333 1.40333 5.57 1.41 5.63C1.41667 5.68333 1.42 5.74333 1.42 5.81C1.42 5.90333 1.40667 6 1.38 6.1C1.44667 6.14 1.49333 6.19 1.52 6.25C1.54667 6.31 1.56 6.37333 1.56 6.44C1.56 6.54 1.54 6.64 1.5 6.74C1.46 6.84 1.41 6.92333 1.35 6.99C1.29 7.05 1.18 7.14 1.02 7.26C0.86 7.37333 0.7 7.41667 0.54 7.39C0.566667 7.35667 0.623333 7.28667 0.71 7.18C0.796667 7.08 0.84 6.94 0.84 6.76C0.84 6.68 0.823333 6.59333 0.79 6.5C0.756667 6.34 0.8 6.22333 0.92 6.15C1.04 6.07 1.15333 6.04 1.26 6.06C1.26667 6.01333 1.27333 5.97 1.28 5.93C1.28 5.89 1.28 5.85 1.28 5.81C1.28 5.64333 1.24333 5.46 1.17 5.26C1.16333 5.24667 1.16 5.22333 1.16 5.19C0.933333 4.85667 0.82 4.48 0.82 4.06C0.82 3.64 0.943333 3.22333 1.19 2.81C1.43 2.39 1.79667 2.04 2.29 1.76C2.63 1.56667 2.99333 1.43 3.38 1.35C3.77333 1.27 4.18667 1.23 4.62 1.23C5.28667 1.23 5.99 1.30667 6.73 1.46C7.47 1.60667 8.20333 1.78333 8.93 1.99C9.66333 2.19667 10.3667 2.38667 11.04 2.56C11.4133 2.26 11.7633 2.05667 12.09 1.95C12.4167 1.83667 12.7067 1.78 12.96 1.78C13.06 1.78 13.1567 1.78667 13.25 1.8C13.3367 1.81333 13.4167 1.83 13.49 1.85C13.6967 1.90333 13.8567 1.99333 13.97 2.12C14.0833 2.24667 14.14 2.37667 14.14 2.51C14.14 2.67667 14.0467 2.82333 13.86 2.95C13.68 3.08333 13.39 3.15 12.99 3.15C12.8233 3.15 12.63 3.13667 12.41 3.11C12.21 3.08333 12.0033 3.04333 11.79 2.99C11.5833 2.93667 11.3567 2.88667 11.11 2.84C10.8233 3.08667 10.5167 3.42667 10.19 3.86C9.86333 4.29333 9.53333 4.76667 9.2 5.28C8.86667 5.79333 8.55333 6.29333 8.26 6.78H9.31C9.74333 6.78 10.09 6.75667 10.35 6.71C10.6033 6.67 10.7633 6.57667 10.83 6.43L10.94 6.47C10.8667 6.64333 10.71 6.77 10.47 6.85C10.47 6.85667 10.4567 6.86 10.43 6.86C10.27 6.9 10.1133 6.96333 9.96 7.05C9.81333 7.13667 9.69 7.23333 9.59 7.34C9.68333 7.38667 9.75333 7.45667 9.8 7.55C9.84667 7.65 9.87 7.75 9.87 7.85C9.87 7.93 9.85333 8.00667 9.82 8.08C9.77333 8.20667 9.72 8.31 9.66 8.39C9.59333 8.46333 9.52667 8.52667 9.46 8.58C9.41333 8.62667 9.37 8.69333 9.33 8.78C9.28333 8.86 9.26 8.94 9.26 9.02C9.26 9.12667 9.30333 9.21 9.39 9.27C9.36333 9.29667 9.33 9.31 9.29 9.31C9.11667 9.31 8.98 9.18667 8.88 8.94C8.78 8.69333 8.73 8.44667 8.73 8.2C8.73 7.91333 8.81333 7.68667 8.98 7.52C9.15333 7.35333 9.31333 7.27667 9.46 7.29C9.58 7.14333 9.68333 7.03333 9.77 6.96C9.61667 6.96667 9.45667 6.97 9.29 6.97C9.12333 6.97 8.94667 6.97 8.76 6.97H8.13C7.99667 7.19667 7.87 7.41 7.75 7.61C7.62333 7.81 7.50333 8 7.39 8.18C6.53667 9.52 5.65 10.5833 4.73 11.37C3.81667 12.15 2.86 12.54 1.86 12.54ZM12.92 2.95C13.1867 2.95 13.3767 2.90333 13.49 2.81C13.5967 2.71 13.65 2.6 13.65 2.48C13.65 2.29333 13.5633 2.16333 13.39 2.09C13.2167 2.02333 13.0467 1.99 12.88 1.99C12.6 1.99 12.3267 2.05667 12.06 2.19C11.8 2.32333 11.55 2.47 11.31 2.63C11.4367 2.65667 11.61 2.7 11.83 2.76C12.05 2.81333 12.2767 2.86333 12.51 2.91C12.67 2.93667 12.8067 2.95 12.92 2.95ZM11.95 10C11.9167 10 11.8767 9.99667 11.83 9.99C11.7833 9.98333 11.7367 9.97667 11.69 9.97C11.4167 9.90333 11.22 9.78 11.1 9.6C10.9867 9.41333 10.93 9.19 10.93 8.93C10.93 8.72333 10.96 8.50333 11.02 8.27C11.08 8.03 11.1567 7.78 11.25 7.52C11.41 7.10667 11.61 6.65 11.85 6.15C12.0833 5.65 12.3533 5.13667 12.66 4.61C12.96 4.08333 13.2833 3.57333 13.63 3.08C13.97 2.58667 14.32 2.14 14.68 1.74C14.8933 1.49333 15.11 1.27333 15.33 1.08C15.55 0.88 15.7667 0.72 15.98 0.6C16.3467 0.38 16.6833 0.27 16.99 0.27C17.1767 0.27 17.3233 0.313333 17.43 0.4C17.5367 0.486667 17.59 0.623333 17.59 0.81C17.59 0.93 17.5667 1.07 17.52 1.23C17.4667 1.38333 17.38 1.55667 17.26 1.75C17.0267 2.14333 16.7267 2.55333 16.36 2.98C15.9867 3.41333 15.5867 3.83333 15.16 4.24C14.7267 4.64 14.2933 5.01 13.86 5.35C13.4267 5.68333 13.02 5.95667 12.64 6.17C12.4533 6.51 12.2767 6.87 12.11 7.25C11.9367 7.62333 11.8 7.98 11.7 8.32C11.6 8.66 11.55 8.95333 11.55 9.2C11.55 9.38667 11.5867 9.53667 11.66 9.65C11.7333 9.75667 11.85 9.81 12.01 9.81C12.2167 9.81 12.4533 9.71667 12.72 9.53C12.9933 9.34333 13.2767 9.09 13.57 8.77C13.8633 8.45 14.14 8.07333 14.4 7.64C14.4467 7.58667 14.4933 7.56 14.54 7.56C14.5667 7.56 14.59 7.58 14.61 7.62C14.6233 7.65333 14.62 7.69 14.6 7.73C14.14 8.43 13.6933 8.98333 13.26 9.39C12.8267 9.79667 12.39 10 11.95 10ZM12.74 5.91C13.0333 5.74333 13.38 5.48667 13.78 5.14C14.1733 4.79333 14.5767 4.40667 14.99 3.98C15.4033 3.56 15.7833 3.14 16.13 2.72C16.4833 2.3 16.7567 1.93 16.95 1.61C17.05 1.44333 17.1233 1.3 17.17 1.18C17.2167 1.05333 17.24 0.95 17.24 0.87C17.24 0.703333 17.1667 0.62 17.02 0.62C16.8267 0.62 16.5667 0.753333 16.24 1.02C16.0067 1.22 15.7867 1.43667 15.58 1.67C15.3733 1.91 15.2267 2.08667 15.14 2.2C14.7133 2.76667 14.3 3.38333 13.9 4.05C13.5 4.71667 13.1133 5.33667 12.74 5.91ZM15.37 10C15.1233 10 14.8933 9.94 14.68 9.82C14.4667 9.70667 14.31 9.51667 14.21 9.25C14.1433 9.08333 14.11 8.89333 14.11 8.68C14.11 8.42 14.16 8.16333 14.26 7.91C14.3933 7.60333 14.5867 7.3 14.84 7C15.0867 6.7 15.3667 6.43 15.68 6.19C15.9867 5.94333 16.2933 5.75 16.6 5.61C16.9067 5.46333 17.1833 5.39 17.43 5.39C17.63 5.39 17.7933 5.44667 17.92 5.56C18 5.64 18.04 5.76 18.04 5.92C18.04 6.12667 17.9633 6.36333 17.81 6.63C17.6567 6.89667 17.44 7.12667 17.16 7.32C16.98 7.44 16.7733 7.54 16.54 7.62C16.3 7.7 16.05 7.74 15.79 7.74C15.7033 7.74 15.6167 7.73667 15.53 7.73C15.4433 7.71667 15.3567 7.70333 15.27 7.69C15.2033 7.76333 15.1267 7.88 15.04 8.04C14.9533 8.20667 14.88 8.38667 14.82 8.58C14.7533 8.78 14.72 8.96667 14.72 9.14C14.7333 9.38667 14.8033 9.55667 14.93 9.65C15.0567 9.75 15.2067 9.8 15.38 9.8C15.7333 9.8 16.0767 9.68667 16.41 9.46C16.7433 9.22667 17.0433 8.94333 17.31 8.61C17.5833 8.27667 17.8133 7.95333 18 7.64C18.0267 7.60667 18.05 7.58667 18.07 7.58C18.09 7.57333 18.1033 7.57 18.11 7.57C18.1367 7.57 18.1633 7.58667 18.19 7.62C18.21 7.64667 18.2133 7.68333 18.2 7.73C18.0733 7.92333 17.9167 8.15667 17.73 8.43C17.5367 8.69667 17.3133 8.95667 17.06 9.21C16.8 9.45667 16.51 9.65667 16.19 9.81C16.07 9.87667 15.9367 9.92333 15.79 9.95C15.65 9.98333 15.51 10 15.37 10ZM15.66 7.55C16.1 7.55 16.5 7.43333 16.86 7.2C17.22 6.97333 17.48 6.69667 17.64 6.37C17.6867 6.29667 17.7167 6.22667 17.73 6.16C17.7433 6.09333 17.75 6.04333 17.75 6.01C17.75 5.85 17.66 5.77 17.48 5.77C17.3667 5.77 17.2433 5.79667 17.11 5.85C16.9767 5.91 16.8567 5.97667 16.75 6.05C16.5767 6.17667 16.3933 6.33667 16.2 6.53C16.0067 6.72333 15.8367 6.91 15.69 7.09C15.5433 7.27 15.43 7.41333 15.35 7.52C15.3967 7.52667 15.45 7.53333 15.51 7.54C15.5633 7.54667 15.6133 7.55 15.66 7.55ZM20.66 10.02C20.4733 10.02 20.31 9.95667 20.17 9.83C20.03 9.69667 19.96 9.51 19.96 9.27C19.96 9.16333 19.9833 9.02667 20.03 8.86C19.8967 9.02 19.7467 9.19 19.58 9.37C19.4067 9.54333 19.22 9.69 19.02 9.81C18.8133 9.93667 18.61 10 18.41 10C18.2967 10 18.1967 9.98 18.11 9.94C17.9633 9.88667 17.86 9.79667 17.8 9.67C17.74 9.54333 17.71 9.40333 17.71 9.25C17.71 8.99 17.7633 8.72 17.87 8.44C17.9767 8.16 18.07 7.94 18.15 7.78C18.1433 7.79333 18.13 7.8 18.11 7.8C18.0767 7.8 18.0433 7.78333 18.01 7.75C17.9767 7.71667 17.9733 7.68 18 7.64C18.0667 7.56 18.1667 7.42 18.3 7.22C18.4333 7.02667 18.5867 6.81333 18.76 6.58C18.9267 6.34667 19.0833 6.12667 19.23 5.92C19.37 5.71333 19.4767 5.55667 19.55 5.45C19.63 5.43 19.74 5.39667 19.88 5.35C20.0267 5.31 20.16 5.29 20.28 5.29C20.42 5.29 20.5233 5.32667 20.59 5.4C20.49 5.56 20.3467 5.77 20.16 6.03C19.9733 6.29667 19.77 6.58333 19.55 6.89C19.33 7.19667 19.12 7.51333 18.92 7.84C18.7267 8.16667 18.5667 8.47667 18.44 8.77C18.3133 9.06333 18.25 9.31667 18.25 9.53C18.25 9.69 18.3333 9.77 18.5 9.77C18.7 9.76333 18.9333 9.64 19.2 9.4C19.4667 9.16 19.74 8.86 20.02 8.5C20.3067 8.13333 20.58 7.76 20.84 7.38C21.26 6.74667 21.5867 6.25 21.82 5.89C22.0533 5.53667 22.17 5.36 22.17 5.36C22.2433 5.35333 22.35 5.32667 22.49 5.28C22.6233 5.24 22.75 5.22 22.87 5.22C23.01 5.22 23.1 5.26333 23.14 5.35C23.0733 5.45 22.94 5.64 22.74 5.92C22.54 6.2 22.3167 6.52333 22.07 6.89C21.8233 7.25 21.5867 7.61667 21.36 7.99C21.2867 8.11667 21.2033 8.26 21.11 8.42C21.0167 8.58667 20.9333 8.73333 20.86 8.86C20.7733 9.01333 20.72 9.13667 20.7 9.23C20.6733 9.32333 20.66 9.39667 20.66 9.45C20.66 9.63667 20.7533 9.73 20.94 9.73C21.04 9.73 21.1667 9.69 21.32 9.61C21.4667 9.53 21.6067 9.42 21.74 9.28C21.9133 9.11333 22.0933 8.90667 22.28 8.66C22.46 8.41333 22.67 8.07333 22.91 7.64C22.93 7.60667 22.9733 7.59 23.04 7.59C23.0867 7.59 23.1133 7.60667 23.12 7.64C23.1333 7.67333 23.13 7.70333 23.11 7.73C22.93 8.01667 22.76 8.29333 22.6 8.56C22.4333 8.82667 22.2333 9.08667 22 9.34C21.7867 9.57333 21.5633 9.74667 21.33 9.86C21.09 9.96667 20.8667 10.02 20.66 10.02ZM24.22 10.01C24.0333 10.01 23.8667 9.95333 23.72 9.84C23.5733 9.72667 23.5 9.57 23.5 9.37C23.5 9.13667 23.5633 8.88333 23.69 8.61C23.8167 8.33667 23.9533 8.09 24.1 7.87C24.2533 7.65667 24.3533 7.51667 24.4 7.45C24.5667 7.22333 24.7233 6.99 24.87 6.75C25.01 6.51667 25.08 6.32333 25.08 6.17C25.08 6.03 25.02 5.94333 24.9 5.91C24.8 5.87 24.6933 5.83 24.58 5.79C24.4667 5.75 24.3833 5.72333 24.33 5.71C24.3033 5.75667 24.2367 5.86667 24.13 6.04C24.03 6.21333 23.91 6.41 23.77 6.63C23.6367 6.85 23.51 7.06333 23.39 7.27C23.27 7.47 23.1767 7.62333 23.11 7.73C23.0567 7.79667 23.01 7.83 22.97 7.83C22.93 7.83 22.9033 7.81 22.89 7.77C22.8767 7.73 22.8833 7.68667 22.91 7.64C23.19 7.20667 23.44 6.79667 23.66 6.41C23.8733 6.03 24.0133 5.78667 24.08 5.68C23.9867 5.62 23.91 5.51 23.85 5.35C23.7967 5.19 23.77 5.02667 23.77 4.86C23.77 4.67333 23.8067 4.50333 23.88 4.35C23.9533 4.20333 24.08 4.13 24.26 4.13C24.38 4.13 24.4633 4.18667 24.51 4.3C24.5567 4.42 24.58 4.55333 24.58 4.7C24.58 4.83333 24.5667 4.96 24.54 5.08C24.5133 5.2 24.49 5.28333 24.47 5.33L24.37 5.56C24.4833 5.56667 24.65 5.58333 24.87 5.61C25.0967 5.64333 25.33 5.67667 25.57 5.71C25.71 5.73 25.8267 5.78333 25.92 5.87C26.0067 5.95 26.05 6.06 26.05 6.2C26.05 6.34 26.0033 6.51 25.91 6.71C25.8167 6.90333 25.6567 7.12667 25.43 7.38C25.3233 7.50667 25.19 7.68 25.03 7.9C24.87 8.11333 24.72 8.32 24.58 8.52C24.44 8.72 24.3367 8.87667 24.27 8.99C24.15 9.18333 24.09 9.36 24.09 9.52C24.09 9.7 24.1867 9.79 24.38 9.79C24.6 9.79 24.83 9.70667 25.07 9.54C25.31 9.38 25.5467 9.17667 25.78 8.93C26.0133 8.69 26.2233 8.45 26.41 8.21C26.59 7.97 26.7233 7.78 26.81 7.64C26.8433 7.58 26.8933 7.55 26.96 7.55C27.0067 7.55 27.03 7.57333 27.03 7.62C27.03 7.66667 27.02 7.70333 27 7.73C26.9067 7.87 26.7567 8.08 26.55 8.36C26.3367 8.64 26.0867 8.92333 25.8 9.21C25.5067 9.49 25.1833 9.71 24.83 9.87C24.7167 9.91667 24.6067 9.95333 24.5 9.98C24.3867 10 24.2933 10.01 24.22 10.01ZM34.73 12.08C34.7033 12.08 34.6567 12.0567 34.59 12.01C34.5033 11.93 34.46 11.7967 34.46 11.61C34.46 11.3433 34.5267 11.1233 34.66 10.95C34.8 10.77 34.9633 10.68 35.15 10.68C35.2367 10.68 35.2933 10.69 35.32 10.71C35.3867 10.5967 35.4967 10.5067 35.65 10.44C35.4767 10.4067 35.3 10.36 35.12 10.3C34.9467 10.24 34.78 10.1767 34.62 10.11C34 10.7233 33.3633 11.19 32.71 11.51C32.0567 11.8233 31.3867 11.9633 30.7 11.93C30.3933 11.91 30.1033 11.8033 29.83 11.61C29.5567 11.4233 29.42 11.15 29.42 10.79C29.42 10.7433 29.4233 10.6967 29.43 10.65C29.4367 10.6033 29.4433 10.5567 29.45 10.51C29.4967 10.2967 29.6267 10.11 29.84 9.95C30.06 9.79667 30.2767 9.7 30.49 9.66C30.5233 9.65333 30.5567 9.65 30.59 9.65C30.6167 9.65 30.6433 9.65 30.67 9.65C30.7233 9.65 30.7667 9.65333 30.8 9.66C30.8533 9.68 30.8933 9.7 30.92 9.72C30.94 9.72667 30.96 9.73333 30.98 9.74C31 9.75333 31.0167 9.76333 31.03 9.77C31.1233 9.78333 31.2433 9.75667 31.39 9.69C31.5367 9.63 31.6 9.55333 31.58 9.46V9.42C31.58 9.36667 31.6033 9.34 31.65 9.34C31.6967 9.34 31.7333 9.36333 31.76 9.41C31.7867 9.46333 31.8 9.52333 31.8 9.59C31.8 9.63 31.7867 9.67333 31.76 9.72C31.7333 9.77333 31.6833 9.82333 31.61 9.87C31.5433 9.91 31.46 9.93 31.36 9.93C31.2933 9.93 31.2233 9.92 31.15 9.9C31.2033 9.96667 31.25 10.0533 31.29 10.16C31.3233 10.2733 31.3467 10.41 31.36 10.57C31.36 10.6367 31.3833 10.6967 31.43 10.75C31.4767 10.7967 31.53 10.82 31.59 10.82C31.6367 10.82 31.68 10.8067 31.72 10.78C31.6333 10.96 31.4967 11.05 31.31 11.05C31.19 11.05 31.0733 11 30.96 10.9C30.84 10.8 30.7667 10.6567 30.74 10.47C30.7333 10.3233 30.69 10.1967 30.61 10.09C30.53 9.98333 30.43 9.93 30.31 9.93C30.2633 9.93 30.21 9.94333 30.15 9.97L30.14 9.98C29.9267 10.1333 29.79 10.33 29.73 10.57C29.7233 10.61 29.7167 10.6533 29.71 10.7C29.7033 10.7467 29.7 10.7867 29.7 10.82C29.7 11.1133 29.81 11.3367 30.03 11.49C30.2433 11.65 30.4933 11.73 30.78 11.73C31.2467 11.73 31.75 11.5433 32.29 11.17C32.8233 10.79 33.36 10.3 33.9 9.7C33.78 9.62 33.66 9.52667 33.54 9.42C33.4 9.3 33.2733 9.17667 33.16 9.05C33.0467 8.92333 32.9433 8.8 32.85 8.68C32.7567 8.60667 32.6733 8.55667 32.6 8.53C32.52 8.49667 32.4367 8.48 32.35 8.48C32.35 8.52667 32.3367 8.58 32.31 8.64C32.2633 8.73333 32.2 8.78333 32.12 8.79C32.04 8.80333 31.9767 8.80333 31.93 8.79C31.9033 8.78333 31.8767 8.78 31.85 8.78C31.8167 8.78 31.7867 8.78 31.76 8.78C31.6667 8.78 31.5867 8.8 31.52 8.84C31.4467 8.88 31.4 8.95667 31.38 9.07C31.3467 9.03667 31.33 8.97667 31.33 8.89C31.33 8.79 31.36 8.68 31.42 8.56C31.48 8.44667 31.53 8.37 31.57 8.33C31.63 8.25667 31.6967 8.20667 31.77 8.18C31.8367 8.14667 31.9033 8.13 31.97 8.13C32.17 8.13 32.2933 8.21667 32.34 8.39C32.4667 8.39 32.59 8.41333 32.71 8.46C32.65 8.34667 32.5933 8.23 32.54 8.11C32.4867 7.99667 32.4433 7.88333 32.41 7.77C32.3033 7.79 32.2 7.80667 32.1 7.82C32.0067 7.83333 31.9067 7.84 31.8 7.84C31.2533 7.84 30.8167 7.66667 30.49 7.32C30.1633 6.96667 30 6.53333 30 6.02C30 5.78667 30.0333 5.54333 30.1 5.29C30.1733 5.03667 30.2833 4.78 30.43 4.52C30.7233 4.00667 31.1333 3.56 31.66 3.18C32.1867 2.79333 32.7633 2.47333 33.39 2.22C34.01 1.96 34.6067 1.77 35.18 1.65C34.98 1.47667 34.7367 1.33667 34.45 1.23C34.1633 1.13 33.8233 1.08 33.43 1.08C33.3567 1.08 33.28 1.08 33.2 1.08C33.12 1.08667 33.0433 1.09667 32.97 1.11C32.83 1.13667 32.69 1.20667 32.55 1.32C32.4167 1.44 32.3133 1.65667 32.24 1.97C32.1667 2.29 32.0133 2.53 31.78 2.69C31.5533 2.85667 31.3233 2.94 31.09 2.94C30.93 2.94 30.8133 2.90333 30.74 2.83C30.6667 2.75667 30.64 2.7 30.66 2.66C30.8067 2.66667 30.93 2.62667 31.03 2.54C31.1367 2.45333 31.1933 2.30667 31.2 2.1C31.22 1.7 31.3333 1.39 31.54 1.17C31.7533 0.95 31.99 0.826666 32.25 0.8C32.1833 0.726666 32.1267 0.656666 32.08 0.59C32.0667 0.53 32.06 0.486667 32.06 0.46C32.06 0.36 32.0967 0.263333 32.17 0.17C32.25 0.0766667 32.3333 0.02 32.42 0H32.45C32.4967 0 32.52 0.0133333 32.52 0.04C32.52 0.0533333 32.4967 0.0900001 32.45 0.15C32.4033 0.196667 32.4033 0.28 32.45 0.4C32.5033 0.513333 32.5767 0.623333 32.67 0.73C32.7633 0.83 32.8467 0.893333 32.92 0.92C32.9667 0.96 32.9867 0.983333 32.98 0.99L32.99 1.01C33.0967 0.996666 33.1933 0.99 33.28 0.99C33.3667 0.983333 33.4533 0.98 33.54 0.98C33.98 0.98 34.36 1.03333 34.68 1.14C35 1.24667 35.2633 1.4 35.47 1.6C36.0433 1.49333 36.6833 1.44 37.39 1.44C37.8367 1.44 38.2933 1.46333 38.76 1.51C39.2267 1.55667 39.69 1.63333 40.15 1.74C40.2767 1.62667 40.4033 1.51667 40.53 1.41C40.6567 1.30333 40.7867 1.20333 40.92 1.11C41.2333 0.876666 41.5467 0.71 41.86 0.61C42.1667 0.51 42.45 0.46 42.71 0.46C42.97 0.46 43.19 0.5 43.37 0.58C43.5433 0.66 43.65 0.756667 43.69 0.87L43.58 0.94C43.5067 0.853333 43.4 0.783333 43.26 0.73C43.12 0.67 42.9567 0.64 42.77 0.64C42.55 0.64 42.3 0.69 42.02 0.79C41.7333 0.89 41.4133 1.07 41.06 1.33C40.8933 1.45 40.71 1.61333 40.51 1.82C41.1567 2 41.7467 2.24667 42.28 2.56C42.82 2.88 43.25 3.28 43.57 3.76C43.89 4.24 44.05 4.81667 44.05 5.49C44.05 6.10333 43.92 6.67333 43.66 7.2C43.3933 7.72667 43.03 8.2 42.57 8.62C42.11 9.04 41.5867 9.39667 41 9.69C40.4133 9.99 39.79 10.2167 39.13 10.37C38.4767 10.53 37.8233 10.61 37.17 10.61C36.9633 10.61 36.76 10.6033 36.56 10.59C36.3667 10.5767 36.1733 10.55 35.98 10.51C35.94 10.51 35.8967 10.5133 35.85 10.52C35.8033 10.5267 35.7567 10.5333 35.71 10.54C35.6433 10.5667 35.58 10.6 35.52 10.64C35.46 10.68 35.4167 10.7233 35.39 10.77C35.4567 10.83 35.49 10.9167 35.49 11.03C35.49 11.15 35.45 11.2567 35.37 11.35C35.31 11.43 35.2433 11.4867 35.17 11.52C35.1033 11.56 35.04 11.5933 34.98 11.62C34.9267 11.64 34.87 11.68 34.81 11.74C34.75 11.8 34.72 11.8667 34.72 11.94C34.72 11.98 34.7333 12.0233 34.76 12.07C34.7467 12.07 34.74 12.07 34.74 12.07C34.74 12.0767 34.7367 12.08 34.73 12.08ZM36.75 6.02L37.64 4.69C37.9133 4.27667 38.2533 3.82 38.66 3.32C39.0733 2.81333 39.5133 2.34 39.98 1.9C39.5867 1.82 39.1833 1.76 38.77 1.72C38.3567 1.67333 37.9467 1.65 37.54 1.65C37.2 1.65 36.87 1.66333 36.55 1.69C36.23 1.71 35.93 1.74333 35.65 1.79C35.7833 1.95 35.8867 2.13 35.96 2.33C36.0333 2.53 36.08 2.73667 36.1 2.95L36.12 2.94C36.2133 2.76 36.36 2.63333 36.56 2.56V2.55C36.5733 2.41667 36.6533 2.29 36.8 2.17C36.94 2.05 37.1233 1.99 37.35 1.99C37.4967 1.99 37.66 2.02333 37.84 2.09C38.0133 2.16333 38.17 2.25667 38.31 2.37C38.45 2.49 38.53 2.62 38.55 2.76V2.81C38.55 2.87 38.5433 2.91 38.53 2.93C38.5167 2.95667 38.5 2.97333 38.48 2.98C38.46 2.90667 38.42 2.85333 38.36 2.82C38.2933 2.78667 38.2233 2.77 38.15 2.77C38.0233 2.77 37.91 2.80333 37.81 2.87C37.7433 2.91 37.66 2.95667 37.56 3.01C37.4667 3.06333 37.34 3.09 37.18 3.09C37.0467 3.09 36.92 3.05333 36.8 2.98C36.68 2.90667 36.6067 2.80333 36.58 2.67C36.4267 2.73667 36.31 2.86333 36.23 3.05C36.17 3.17 36.1333 3.3 36.12 3.44C36.1067 3.46 36.1 3.48333 36.1 3.51C36.1 3.54333 36.1 3.56667 36.1 3.58L36.09 3.67C36.03 4.16333 35.8667 4.66667 35.6 5.18L35.78 5.26C35.9667 5.35333 36.14 5.46333 36.3 5.59C36.46 5.71667 36.61 5.86 36.75 6.02ZM31.78 7.64C31.9533 7.64 32.1433 7.61333 32.35 7.56C32.33 7.46667 32.3167 7.37667 32.31 7.29C32.2967 7.19667 32.29 7.11 32.29 7.03C32.29 6.51667 32.44 6.06667 32.74 5.68C33.04 5.29333 33.4367 5.05333 33.93 4.96C34.0233 4.91333 34.0967 4.85667 34.15 4.79C34.2033 4.72333 34.2367 4.66667 34.25 4.62C34.13 4.6 34.03 4.53333 33.95 4.42C33.87 4.31333 33.83 4.19667 33.83 4.07C33.83 3.94333 33.8533 3.83667 33.9 3.75C33.9467 3.67 33.99 3.59667 34.03 3.53C34.05 3.48333 34.07 3.43333 34.09 3.38C34.1033 3.32667 34.11 3.27333 34.11 3.22C34.11 3.15333 34.1 3.09333 34.08 3.04C34.0533 2.98 34.0033 2.94333 33.93 2.93C33.9767 2.89 34.0333 2.87 34.1 2.87C34.2 2.87 34.29 2.9 34.37 2.96C34.45 3.02 34.51 3.07333 34.55 3.12C34.6433 3.23333 34.7067 3.36667 34.74 3.52C34.78 3.67333 34.8 3.81 34.8 3.93C34.8 4.11 34.7567 4.26 34.67 4.38C34.5767 4.5 34.4767 4.57667 34.37 4.61C34.35 4.66333 34.3267 4.71667 34.3 4.77C34.28 4.81667 34.2467 4.86333 34.2 4.91C34.3733 4.89667 34.5533 4.9 34.74 4.92C34.9267 4.94667 35.1233 4.99667 35.33 5.07C35.6567 4.46333 35.82 3.86667 35.82 3.28C35.82 3.00667 35.78 2.74667 35.7 2.5C35.62 2.25333 35.5033 2.03667 35.35 1.85L34.9 1.93C34.16 2.11 33.5233 2.36 32.99 2.68C32.45 3 32.0067 3.33667 31.66 3.69C31.32 4.03667 31.07 4.35 30.91 4.63C30.85 4.72333 30.8 4.82 30.76 4.92C30.72 5.02 30.68 5.11667 30.64 5.21C30.6867 5.28333 30.7667 5.36333 30.88 5.45C30.9933 5.53 31.09 5.57 31.17 5.57C31.2167 5.57 31.2567 5.55667 31.29 5.53C31.3233 5.49 31.36 5.47 31.4 5.47C31.4533 5.47 31.48 5.5 31.48 5.56C31.48 5.62667 31.4533 5.69667 31.4 5.77C31.34 5.84333 31.2567 5.88 31.15 5.88C31.07 5.88 30.9933 5.86 30.92 5.82C30.84 5.78667 30.7667 5.71667 30.7 5.61C30.64 5.51 30.6033 5.42667 30.59 5.36C30.4967 5.65333 30.45 5.94 30.45 6.22C30.45 6.64 30.5633 6.98333 30.79 7.25C31.0167 7.51 31.3467 7.64 31.78 7.64ZM36.77 10.33C37.49 10.33 38.2133 10.2067 38.94 9.96C39.66 9.71333 40.33 9.37 40.95 8.93C41.5633 8.49 42.08 7.98333 42.5 7.41C42.92 6.83 43.1767 6.20333 43.27 5.53C43.2967 5.34333 43.31 5.17 43.31 5.01C43.31 4.45 43.1767 3.97333 42.91 3.58C42.6433 3.18 42.29 2.85 41.85 2.59C41.4033 2.33 40.9067 2.13 40.36 1.99C40.0133 2.38333 39.6533 2.85333 39.28 3.4C38.9067 3.95333 38.54 4.52 38.18 5.1C37.82 5.67333 37.49 6.20333 37.19 6.69C37.2967 6.87667 37.3667 7.06333 37.4 7.25C37.4133 7.26333 37.42 7.27333 37.42 7.28C37.4533 7.42667 37.5333 7.58 37.66 7.74C37.7867 7.89333 37.94 7.96333 38.12 7.95C38.1467 7.77667 38.2567 7.66667 38.45 7.62C38.4967 7.6 38.54 7.59 38.58 7.59C38.62 7.59 38.6567 7.59 38.69 7.59C38.7367 7.59 38.7767 7.59 38.81 7.59C38.8433 7.59667 38.88 7.60667 38.92 7.62C39 7.62667 39.0967 7.61333 39.21 7.58C39.3233 7.54667 39.3733 7.47333 39.36 7.36C39.38 7.36 39.4033 7.37667 39.43 7.41C39.4633 7.43667 39.48 7.49 39.48 7.57C39.48 7.72333 39.4033 7.88 39.25 8.04C39.1033 8.19333 38.96 8.29333 38.82 8.34C38.7333 8.37333 38.6533 8.39 38.58 8.39C38.3467 8.39 38.1967 8.31 38.13 8.15C38.11 8.11 38.1 8.07667 38.1 8.05C38 8.05667 37.89 8.03 37.77 7.97C37.6567 7.90333 37.5633 7.82333 37.49 7.73V7.85C37.49 8.19667 37.3867 8.51333 37.18 8.8C36.9733 9.08667 36.72 9.24333 36.42 9.27L36.4 9.2C36.7133 9.12667 36.94 8.95667 37.08 8.69C37.2133 8.43 37.28 8.15667 37.28 7.87C37.28 7.53 37.21 7.20667 37.07 6.9L36.86 7.24C36.5333 7.76 36.1967 8.24667 35.85 8.7C35.5033 9.15333 35.1533 9.56333 34.8 9.93C35.1 10.07 35.4167 10.17 35.75 10.23C36.09 10.2967 36.43 10.33 36.77 10.33ZM32.9 7.35C33.02 7.30333 33.1433 7.24333 33.27 7.17C33.3967 7.09667 33.5233 7.01667 33.65 6.93C33.9767 6.70333 34.2733 6.45 34.54 6.17C34.8067 5.88333 35.0333 5.58667 35.22 5.28C35.1333 5.26 35.05 5.24333 34.97 5.23C34.8833 5.21667 34.8 5.21 34.72 5.21C34.3533 5.21 34.03 5.31 33.75 5.51C33.47 5.71 33.2567 5.97 33.11 6.29C32.9567 6.61667 32.8867 6.97 32.9 7.35ZM34.09 9.51C34.5233 9.01 34.9533 8.47667 35.38 7.91C35.8067 7.34333 36.22 6.77333 36.62 6.2C36.48 6.04 36.33 5.89333 36.17 5.76C36.0033 5.62667 35.8267 5.51667 35.64 5.43C35.6133 5.41 35.5867 5.39667 35.56 5.39C35.54 5.38333 35.5167 5.37333 35.49 5.36C35.3033 5.68667 35.0733 6 34.8 6.3C34.5267 6.6 34.2233 6.86 33.89 7.08C33.5367 7.31333 33.21 7.48667 32.91 7.6C32.9567 7.89333 33.0533 8.18667 33.2 8.48C33.34 8.77333 33.5567 9.04667 33.85 9.3C33.8833 9.33333 33.9233 9.36667 33.97 9.4C34.01 9.43333 34.05 9.47 34.09 9.51ZM44.98 10C44.7333 10 44.5033 9.94 44.29 9.82C44.0767 9.70667 43.92 9.51667 43.82 9.25C43.7533 9.08333 43.72 8.89333 43.72 8.68C43.72 8.42 43.77 8.16333 43.87 7.91C44.0033 7.60333 44.1967 7.3 44.45 7C44.6967 6.7 44.9767 6.43 45.29 6.19C45.5967 5.94333 45.9033 5.75 46.21 5.61C46.5167 5.46333 46.7933 5.39 47.04 5.39C47.24 5.39 47.4033 5.44667 47.53 5.56C47.61 5.64 47.65 5.76 47.65 5.92C47.65 6.12667 47.5733 6.36333 47.42 6.63C47.2667 6.89667 47.05 7.12667 46.77 7.32C46.59 7.44 46.3833 7.54 46.15 7.62C45.91 7.7 45.66 7.74 45.4 7.74C45.3133 7.74 45.2267 7.73667 45.14 7.73C45.0533 7.71667 44.9667 7.70333 44.88 7.69C44.8133 7.76333 44.7367 7.88 44.65 8.04C44.5633 8.20667 44.4867 8.38667 44.42 8.58C44.36 8.78 44.33 8.96667 44.33 9.14C44.3433 9.38667 44.4133 9.55667 44.54 9.65C44.6667 9.75 44.8167 9.8 44.99 9.8C45.3433 9.8 45.6867 9.68667 46.02 9.46C46.3533 9.22667 46.6533 8.94333 46.92 8.61C47.1933 8.27667 47.4233 7.95333 47.61 7.64C47.6367 7.60667 47.66 7.58667 47.68 7.58C47.7 7.57333 47.7133 7.57 47.72 7.57C47.7467 7.57 47.7733 7.58667 47.8 7.62C47.82 7.64667 47.8233 7.68333 47.81 7.73C47.6833 7.92333 47.5267 8.15667 47.34 8.43C47.1467 8.69667 46.9233 8.95667 46.67 9.21C46.41 9.45667 46.12 9.65667 45.8 9.81C45.68 9.87667 45.5467 9.92333 45.4 9.95C45.26 9.98333 45.12 10 44.98 10ZM45.27 7.55C45.71 7.55 46.11 7.43333 46.47 7.2C46.83 6.97333 47.09 6.69667 47.25 6.37C47.2967 6.29667 47.3267 6.22667 47.34 6.16C47.3533 6.09333 47.36 6.04333 47.36 6.01C47.36 5.85 47.27 5.77 47.09 5.77C46.9767 5.77 46.8533 5.79667 46.72 5.85C46.5867 5.91 46.4667 5.97667 46.36 6.05C46.1867 6.17667 46.0033 6.33667 45.81 6.53C45.6167 6.72333 45.4467 6.91 45.3 7.09C45.1533 7.27 45.04 7.41333 44.96 7.52C45.0067 7.52667 45.06 7.53333 45.12 7.54C45.1733 7.54667 45.2233 7.55 45.27 7.55ZM57.62 11.82C57.5667 11.82 57.5 11.8033 57.42 11.77C57.36 11.7433 57.3233 11.71 57.31 11.67C57.3033 11.63 57.3333 11.61 57.4 11.61C57.4733 11.61 57.54 11.5667 57.6 11.48C57.66 11.3933 57.69 11.31 57.69 11.23C57.69 11.1433 57.6533 11.0367 57.58 10.91C57.5133 10.7767 57.42 10.6667 57.3 10.58C56.9133 10.4067 56.53 10.23 56.15 10.05C55.77 9.86333 55.3933 9.68333 55.02 9.51C54.5333 9.91667 53.9733 10.2433 53.34 10.49C52.7133 10.73 52.0667 10.85 51.4 10.85C51.2933 10.85 51.19 10.8433 51.09 10.83C50.99 10.8167 50.8933 10.8 50.8 10.78V10.81C50.7267 10.7633 50.6433 10.74 50.55 10.74C50.4767 10.74 50.4033 10.7533 50.33 10.78C50.25 10.8067 50.1867 10.84 50.14 10.88C50.0467 10.9467 49.9767 11.02 49.93 11.1C49.8833 11.1867 49.88 11.2567 49.92 11.31C49.94 11.35 49.95 11.37 49.95 11.37C49.95 11.3967 49.93 11.41 49.89 11.41C49.8567 11.41 49.8167 11.3967 49.77 11.37C49.6433 11.2833 49.58 11.18 49.58 11.06C49.58 10.8733 49.7033 10.7333 49.95 10.64C50.0633 10.6 50.18 10.5867 50.3 10.6C49.9733 10.4333 49.7233 10.2033 49.55 9.91C49.3767 9.62333 49.29 9.33 49.29 9.03C49.29 8.63667 49.4433 8.28333 49.75 7.97C50.0567 7.65667 50.5367 7.5 51.19 7.5C51.49 7.5 51.8267 7.54333 52.2 7.63C52.5733 7.71667 52.9833 7.85333 53.43 8.04C53.6633 8.13333 53.91 8.24667 54.17 8.38C54.4233 8.51333 54.69 8.66 54.97 8.82L55.02 8.78C55.3133 8.48 55.57 8.15 55.79 7.79C56.01 7.43 56.2233 7.07 56.43 6.71C56.2167 6.69 55.9967 6.66667 55.77 6.64C55.55 6.60667 55.33 6.56667 55.11 6.52C54.3633 6.35333 53.7533 6.12 53.28 5.82C52.8067 5.52667 52.4433 5.19667 52.19 4.83C52.13 4.80333 52.07 4.78333 52.01 4.77C51.95 4.76333 51.8933 4.76 51.84 4.76C51.8 4.76 51.7633 4.76 51.73 4.76C51.6967 4.76 51.6667 4.77 51.64 4.79C51.7 4.87 51.73 4.95667 51.73 5.05C51.73 5.27 51.6433 5.45 51.47 5.59C51.3633 5.69 51.2567 5.76 51.15 5.8C51.05 5.83333 50.9567 5.86 50.87 5.88C50.7767 5.90667 50.6733 5.96667 50.56 6.06C50.4533 6.14667 50.4 6.24667 50.4 6.36C50.4 6.40667 50.4133 6.45333 50.44 6.5H50.42C50.4067 6.5 50.38 6.49333 50.34 6.48C50.3 6.46 50.2567 6.42333 50.21 6.37C50.15 6.27667 50.12 6.15 50.12 5.99C50.12 5.79667 50.16 5.59333 50.24 5.38C50.3267 5.16 50.4267 4.99 50.54 4.87C50.64 4.77 50.7467 4.69667 50.86 4.65C50.98 4.60333 51.09 4.58 51.19 4.58C51.35 4.58 51.4733 4.61667 51.56 4.69C51.7 4.61667 51.8667 4.59333 52.06 4.62C51.8267 4.19333 51.7233 3.74667 51.75 3.28C51.69 3.1 51.6033 2.97667 51.49 2.91C51.37 2.81667 51.2567 2.77 51.15 2.77C51.0833 2.77 51.0367 2.79 51.01 2.83C51.0033 2.85667 50.9867 2.87 50.96 2.87C50.9 2.87 50.8833 2.81333 50.91 2.7C50.97 2.51333 51.0833 2.42 51.25 2.42C51.3967 2.42 51.5367 2.5 51.67 2.66C51.7233 2.72667 51.7667 2.82 51.8 2.94C51.88 2.54 52.0533 2.17 52.32 1.83C52.5867 1.49667 52.9233 1.22667 53.33 1.02C53.7367 0.813333 54.19 0.71 54.69 0.71C55.0767 0.71 55.4833 0.78 55.91 0.92C56.45 1.1 56.86 1.36667 57.14 1.72C57.42 2.07333 57.56 2.44333 57.56 2.83C57.56 3.20333 57.4433 3.52333 57.21 3.79C57.2433 3.88333 57.2333 3.99 57.18 4.11C57.1267 4.22333 57.0267 4.31333 56.88 4.38C56.8133 4.40667 56.73 4.42 56.63 4.42C56.41 4.42 56.2 4.37333 56 4.28C55.9667 4.27333 55.9367 4.26667 55.91 4.26C55.8833 4.26 55.8567 4.26 55.83 4.26C55.7633 4.26 55.7 4.26667 55.64 4.28C55.58 4.3 55.54 4.33333 55.52 4.38C55.5 4.42 55.4833 4.45 55.47 4.47C55.4567 4.49667 55.44 4.49 55.42 4.45C55.4 4.39667 55.39 4.35667 55.39 4.33C55.39 4.20333 55.4467 4.1 55.56 4.02C55.68 3.92667 55.8267 3.86667 56 3.84C56.1733 3.80667 56.3033 3.8 56.39 3.82C56.3967 3.83333 56.4133 3.84 56.44 3.84C56.3933 3.79333 56.37 3.73667 56.37 3.67C56.37 3.58333 56.4 3.52333 56.46 3.49C56.4867 3.47 56.51 3.46667 56.53 3.48C56.55 3.49333 56.55 3.51333 56.53 3.54C56.5167 3.56 56.51 3.58333 56.51 3.61C56.51 3.67667 56.5433 3.73333 56.61 3.78C56.6767 3.82667 56.7467 3.85 56.82 3.85C56.8867 3.83 56.9467 3.81 57 3.79C57.0467 3.76333 57.09 3.73667 57.13 3.71C57.31 3.47667 57.4 3.21 57.4 2.91C57.4 2.56333 57.27 2.22333 57.01 1.89C56.7567 1.55667 56.3667 1.3 55.84 1.12L55.76 1.09C55.84 1.13667 55.92 1.20667 56 1.3C56.08 1.41333 56.12 1.53667 56.12 1.67C56.12 1.90333 55.9933 2.02667 55.74 2.04C55.6667 2.04 55.6167 2.02333 55.59 1.99C55.5633 1.95 55.5767 1.92 55.63 1.9C55.7167 1.87333 55.76 1.8 55.76 1.68C55.76 1.60667 55.7367 1.51333 55.69 1.4C55.6633 1.32667 55.6033 1.24667 55.51 1.16C55.4233 1.08 55.33 1.02 55.23 0.98C55.1833 0.973333 55.13 0.97 55.07 0.97C55.0167 0.97 54.9667 0.97 54.92 0.97C54.4733 0.97 54.0633 1.07 53.69 1.27C53.3167 1.47667 53.0067 1.74667 52.76 2.08C52.52 2.41333 52.3633 2.77333 52.29 3.16C52.37 3.08 52.4533 3.00667 52.54 2.94C52.6333 2.87333 52.75 2.82333 52.89 2.79V2.77C52.9233 2.65 53.01 2.54667 53.15 2.46C53.29 2.36667 53.4533 2.32 53.64 2.32C53.6867 2.32 53.7333 2.32333 53.78 2.33C53.82 2.33667 53.86 2.34333 53.9 2.35C54.0533 2.39 54.22 2.47 54.4 2.59C54.58 2.71 54.73 2.85 54.85 3.01C54.9767 3.17 55.04 3.32333 55.04 3.47C55.04 3.57667 55.0233 3.64333 54.99 3.67C54.95 3.70333 54.92 3.72667 54.9 3.74C54.8933 3.62 54.84 3.53333 54.74 3.48C54.6467 3.42667 54.5433 3.4 54.43 3.4C54.3433 3.4 54.2633 3.41333 54.19 3.44C54.0967 3.47333 53.9933 3.50333 53.88 3.53C53.7667 3.55667 53.6333 3.56 53.48 3.54C53.3267 3.52 53.19 3.45667 53.07 3.35C52.95 3.23667 52.8833 3.10333 52.87 2.95C52.7433 2.99 52.6267 3.05333 52.52 3.14C52.42 3.22 52.3267 3.35 52.24 3.53C52.2333 3.90333 52.3267 4.27333 52.52 4.64C52.7067 5.00667 53.0167 5.34 53.45 5.64C53.8767 5.93333 54.4467 6.16333 55.16 6.33C55.4 6.37667 55.6333 6.41667 55.86 6.45C56.0933 6.48333 56.3267 6.50333 56.56 6.51C56.76 6.15667 56.9667 5.79 57.18 5.41C57.3867 5.03 57.6067 4.64 57.84 4.24C58.1067 3.8 58.3867 3.36 58.68 2.92C58.9733 2.47333 59.3033 2.06333 59.67 1.69C60.0367 1.31 60.4633 1.00333 60.95 0.77C61.1367 0.67 61.33 0.596666 61.53 0.55C61.73 0.51 61.92 0.49 62.1 0.49C62.5267 0.49 62.8933 0.606666 63.2 0.84C63.5 1.07333 63.65 1.40333 63.65 1.83C63.65 2.06333 63.5967 2.32 63.49 2.6C63.3767 2.88 63.1967 3.18333 62.95 3.51C62.2433 4.44333 61.41 5.19 60.45 5.75C59.4967 6.30333 58.44 6.61667 57.28 6.69C57.02 7.06333 56.7567 7.43667 56.49 7.81C56.2167 8.17667 55.93 8.53667 55.63 8.89C55.6033 8.93 55.5733 8.96667 55.54 9C55.5067 9.02667 55.4767 9.05667 55.45 9.09L56.15 9.49H56.19C56.35 9.55 56.5233 9.58 56.71 9.58C56.8567 9.58 56.97 9.56 57.05 9.52C57.0367 9.49333 57.0267 9.46667 57.02 9.44C57.02 9.42 57.02 9.39667 57.02 9.37C57.02 9.25667 57.06 9.15667 57.14 9.07C57.22 8.97667 57.31 8.91333 57.41 8.88C57.5233 8.84 57.6367 8.82 57.75 8.82C57.7967 8.82 57.8367 8.82333 57.87 8.83C57.91 8.83 57.9467 8.83667 57.98 8.85C58.0867 8.85667 58.2067 8.83333 58.34 8.78C58.4733 8.73333 58.5333 8.64333 58.52 8.51C58.5333 8.52333 58.56 8.54 58.6 8.56C58.64 8.58667 58.66 8.66 58.66 8.78C58.66 8.95333 58.5767 9.14 58.41 9.34C58.25 9.53333 58.0833 9.66667 57.91 9.74C57.79 9.78667 57.6833 9.81 57.59 9.81C57.3767 9.81 57.2133 9.74 57.1 9.6C56.94 9.70667 56.76 9.74667 56.56 9.72C57.2 10.0933 57.8367 10.43 58.47 10.73C59.0967 11.0367 59.6567 11.22 60.15 11.28C60.1967 11.2933 60.24 11.3 60.28 11.3C60.32 11.3 60.3567 11.3 60.39 11.3C60.7567 11.3 61.0467 11.21 61.26 11.03C61.4733 10.8567 61.58 10.6667 61.58 10.46C61.58 10.2467 61.4767 10.0767 61.27 9.95L61.36 9.83C61.66 10.0033 61.81 10.2233 61.81 10.49C61.81 10.7367 61.6767 10.9667 61.41 11.18C61.1433 11.3867 60.8033 11.49 60.39 11.49C60.3567 11.49 60.3167 11.49 60.27 11.49C60.2233 11.49 60.1767 11.4867 60.13 11.48C59.7567 11.4333 59.3633 11.3433 58.95 11.21C58.5367 11.07 58.1133 10.9133 57.68 10.74C57.78 10.8333 57.8567 10.9433 57.91 11.07C57.97 11.1967 58 11.3 58 11.38C58 11.5 57.9633 11.6033 57.89 11.69C57.81 11.7767 57.72 11.82 57.62 11.82ZM57.44 6.48C58.4733 6.38 59.44 6.06 60.34 5.52C61.2333 4.98667 62.02 4.28 62.7 3.4C62.96 3.07333 63.1467 2.77667 63.26 2.51C63.3733 2.23667 63.43 1.99667 63.43 1.79C63.43 1.55 63.3567 1.36333 63.21 1.23C63.07 1.10333 62.8767 1.04 62.63 1.04C62.25 1.04 61.7733 1.22667 61.2 1.6C60.6267 1.98 60.05 2.59333 59.47 3.44C59.1233 3.95333 58.7833 4.46667 58.45 4.98C58.1233 5.48667 57.7867 5.98667 57.44 6.48ZM51.4 10.64C51.4333 10.64 51.4633 10.64 51.49 10.64C51.5167 10.64 51.55 10.6367 51.59 10.63C51.5567 10.63 51.5333 10.62 51.52 10.6C51.4267 10.5533 51.3433 10.5067 51.27 10.46C51.2033 10.42 51.1467 10.3667 51.1 10.3C51.04 10.22 51.01 10.1267 51.01 10.02C51.01 9.94 51.0367 9.86333 51.09 9.79C51.1433 9.72333 51.22 9.69 51.32 9.69C51.3933 9.69 51.4433 9.70667 51.47 9.74C51.49 9.77333 51.4767 9.79333 51.43 9.8C51.3567 9.80667 51.32 9.87667 51.32 10.01C51.32 10.0567 51.33 10.1167 51.35 10.19C51.37 10.2567 51.4167 10.3333 51.49 10.42C51.5633 10.5 51.6567 10.57 51.77 10.63C52.3367 10.5833 52.8467 10.44 53.3 10.2C53.7533 9.96 54.17 9.65333 54.55 9.28C54.29 9.15333 54.04 9.04333 53.8 8.95C53.2933 8.73 52.8367 8.57667 52.43 8.49C52.0233 8.40333 51.6633 8.36 51.35 8.36C50.7767 8.36 50.3533 8.47333 50.08 8.7C49.8067 8.92667 49.67 9.18 49.67 9.46C49.67 9.75333 49.8167 10.0233 50.11 10.27C50.4033 10.5167 50.8333 10.64 51.4 10.64ZM61.32 10C61.0733 10 60.8433 9.94 60.63 9.82C60.4167 9.70667 60.2567 9.51667 60.15 9.25C60.09 9.08333 60.06 8.89333 60.06 8.68C60.06 8.42 60.11 8.16333 60.21 7.91C60.3433 7.60333 60.5333 7.3 60.78 7C61.0333 6.7 61.3133 6.43 61.62 6.19C61.9333 5.94333 62.2433 5.75 62.55 5.61C62.8567 5.46333 63.13 5.39 63.37 5.39C63.5767 5.39 63.74 5.44667 63.86 5.56C63.9467 5.64 63.99 5.76 63.99 5.92C63.99 6.12667 63.9133 6.36333 63.76 6.63C63.6067 6.89667 63.39 7.12667 63.11 7.32C62.93 7.44 62.72 7.54 62.48 7.62C62.2467 7.7 62 7.74 61.74 7.74C61.6533 7.74 61.5667 7.73667 61.48 7.73C61.3867 7.71667 61.3 7.70333 61.22 7.69C61.1533 7.76333 61.0767 7.88 60.99 8.04C60.8967 8.20667 60.82 8.38667 60.76 8.58C60.7 8.78 60.67 8.96667 60.67 9.14C60.6833 9.38667 60.75 9.55667 60.87 9.65C60.9967 9.75 61.15 9.8 61.33 9.8C61.6833 9.8 62.0267 9.68667 62.36 9.46C62.6933 9.22667 62.9933 8.94333 63.26 8.61C63.5333 8.27667 63.7633 7.95333 63.95 7.64C63.9767 7.60667 64 7.58667 64.02 7.58C64.04 7.57333 64.0533 7.57 64.06 7.57C64.0867 7.57 64.1133 7.58667 64.14 7.62C64.16 7.64667 64.16 7.68333 64.14 7.73C64.02 7.92333 63.8633 8.15667 63.67 8.43C63.4833 8.69667 63.26 8.95667 63 9.21C62.7467 9.45667 62.46 9.65667 62.14 9.81C62.02 9.87667 61.8867 9.92333 61.74 9.95C61.6 9.98333 61.46 10 61.32 10ZM61.61 7.55C62.05 7.55 62.45 7.43333 62.81 7.2C63.17 6.97333 63.4267 6.69667 63.58 6.37C63.6267 6.29667 63.6567 6.22667 63.67 6.16C63.69 6.09333 63.7 6.04333 63.7 6.01C63.7 5.85 63.61 5.77 63.43 5.77C63.3167 5.77 63.1933 5.79667 63.06 5.85C62.9267 5.91 62.8067 5.97667 62.7 6.05C62.5267 6.17667 62.3433 6.33667 62.15 6.53C61.9567 6.72333 61.7867 6.91 61.64 7.09C61.4867 7.27 61.3733 7.41333 61.3 7.52C61.3467 7.52667 61.4 7.53333 61.46 7.54C61.5133 7.54667 61.5633 7.55 61.61 7.55ZM64.41 9.95C64.15 9.95 63.95 9.85 63.81 9.65C63.67 9.45 63.6 9.19333 63.6 8.88C63.6 8.53333 63.6933 8.13 63.88 7.67C63.98 7.41667 64.1333 7.16 64.34 6.9C64.5467 6.63333 64.7833 6.38333 65.05 6.15C65.3233 5.92333 65.6167 5.73667 65.93 5.59C66.2433 5.45 66.5633 5.38 66.89 5.38C67.1433 5.38 67.3167 5.44333 67.41 5.57C67.5033 5.70333 67.55 5.86333 67.55 6.05C67.55 6.22333 67.52 6.40333 67.46 6.59L68.25 5.4C68.31 5.35333 68.4533 5.33 68.68 5.33C68.8467 5.33 69.0067 5.35 69.16 5.39C69.3133 5.43 69.36 5.48667 69.3 5.56C69.22 5.65333 69.09 5.79667 68.91 5.99C68.73 6.17667 68.5333 6.4 68.32 6.66C68.1133 6.92667 67.9167 7.20333 67.73 7.49C67.6367 7.65 67.4967 7.88333 67.31 8.19C67.13 8.49667 66.99 8.79 66.89 9.07C66.83 9.23667 66.8 9.37333 66.8 9.48C66.8 9.67333 66.8867 9.77 67.06 9.77C67.1533 9.77 67.2767 9.73667 67.43 9.67C67.59 9.59667 67.7467 9.5 67.9 9.38C68.1933 9.14 68.4533 8.84667 68.68 8.5C68.9067 8.16 69.1067 7.86 69.28 7.6C69.2933 7.59333 69.3067 7.58333 69.32 7.57C69.3333 7.56333 69.3567 7.56 69.39 7.56C69.43 7.56 69.46 7.57667 69.48 7.61C69.5 7.64333 69.49 7.68333 69.45 7.73C69.19 8.12333 68.9333 8.49 68.68 8.83C68.4267 9.17 68.17 9.44333 67.91 9.65C67.65 9.85 67.3667 9.95 67.06 9.95C66.8133 9.95 66.6167 9.88 66.47 9.74C66.33 9.59333 66.26 9.39333 66.26 9.14C66.26 9.02667 66.27 8.91 66.29 8.79C66.3167 8.67 66.3467 8.56 66.38 8.46C66.2333 8.65333 66.05 8.86667 65.83 9.1C65.61 9.33333 65.38 9.53333 65.14 9.7C64.8933 9.86667 64.65 9.95 64.41 9.95ZM64.54 9.69C64.7267 9.69 64.9233 9.61333 65.13 9.46C65.3433 9.31333 65.5567 9.12 65.77 8.88C65.9833 8.64667 66.18 8.39333 66.36 8.12C66.5067 7.89333 66.6533 7.65667 66.8 7.41C66.94 7.15667 67.06 6.90667 67.16 6.66C67.26 6.42 67.31 6.20333 67.31 6.01C67.31 5.71 67.2033 5.56 66.99 5.56C66.8367 5.56 66.6633 5.62333 66.47 5.75C66.27 5.88333 66.07 6.05333 65.87 6.26C65.67 6.46667 65.4833 6.68667 65.31 6.92C65.1367 7.16 65 7.39333 64.9 7.62C64.8733 7.67333 64.8067 7.80667 64.7 8.02C64.5933 8.23333 64.49 8.46667 64.39 8.72C64.29 8.97333 64.24 9.19333 64.24 9.38C64.24 9.58667 64.34 9.69 64.54 9.69ZM71.37 10.01C70.8567 10.01 70.6 9.75333 70.6 9.24C70.6 9.05333 70.67 8.83 70.81 8.57C70.9567 8.31 71.1333 8.04 71.34 7.76C71.5467 7.48667 71.7433 7.23667 71.93 7.01C72.1167 6.79 72.2567 6.62667 72.35 6.52C72.63 6.18667 72.77 5.95 72.77 5.81C72.77 5.71 72.71 5.66 72.59 5.66C72.4967 5.66 72.4067 5.67667 72.32 5.71C71.9733 5.83 71.6233 6.05333 71.27 6.38C70.9167 6.70667 70.5767 7.08333 70.25 7.51C69.93 7.93667 69.6433 8.36 69.39 8.78C69.1433 9.2 68.9433 9.56333 68.79 9.87C68.7833 9.89667 68.7333 9.91667 68.64 9.93C68.5533 9.94333 68.46 9.95 68.36 9.95C68.2667 9.95 68.1833 9.94333 68.11 9.93C68.0433 9.91667 68.01 9.89667 68.01 9.87C68.01 9.87 68.0933 9.71667 68.26 9.41C68.4267 9.10333 68.6567 8.69333 68.95 8.18C69.2367 7.67333 69.5633 7.11333 69.93 6.5C70.3033 5.88 70.69 5.26333 71.09 4.65C71.4167 4.14333 71.7533 3.64 72.1 3.14C72.44 2.63333 72.82 2.16 73.24 1.72C73.6533 1.27333 74.1267 0.9 74.66 0.6C74.8667 0.48 75.05 0.4 75.21 0.36C75.3767 0.313333 75.52 0.29 75.64 0.29C75.76 0.29 75.8667 0.306666 75.96 0.34C76.1733 0.393333 76.28 0.556667 76.28 0.83C76.28 1.03 76.2233 1.27333 76.11 1.56C76.0033 1.84667 75.86 2.12667 75.68 2.4C75.5 2.67333 75.3167 2.92 75.13 3.14C74.63 3.68667 74.1367 4.11333 73.65 4.42C73.1633 4.72 72.7267 4.93333 72.34 5.06C71.9533 5.18667 71.6567 5.27333 71.45 5.32C71.3767 5.42 71.27 5.57667 71.13 5.79C70.99 5.99667 70.8367 6.22333 70.67 6.47C70.5767 6.59667 70.53 6.67667 70.53 6.71C70.53 6.71667 70.5467 6.70667 70.58 6.68C70.62 6.66 70.6633 6.62667 70.71 6.58C70.95 6.34 71.2033 6.11667 71.47 5.91C71.7367 5.70333 72.0067 5.55 72.28 5.45C72.4733 5.37 72.67 5.33 72.87 5.33C73.0567 5.33 73.22 5.36667 73.36 5.44C73.5067 5.50667 73.58 5.62 73.58 5.78C73.58 5.92 73.51 6.09 73.37 6.29C73.25 6.44333 73.08 6.67 72.86 6.97C72.64 7.27 72.4167 7.58667 72.19 7.92C71.9567 8.26 71.7633 8.57667 71.61 8.87C71.45 9.16333 71.37 9.38333 71.37 9.53C71.37 9.67 71.4333 9.74 71.56 9.74C71.7467 9.74 71.9567 9.66333 72.19 9.51C72.4167 9.35667 72.6467 9.16667 72.88 8.94C73.1133 8.71333 73.3267 8.47667 73.52 8.23C73.7067 7.99 73.8567 7.78 73.97 7.6C74.01 7.58 74.0433 7.57 74.07 7.57C74.1633 7.57 74.1867 7.62333 74.14 7.73C73.86 8.17 73.5567 8.56 73.23 8.9C72.9033 9.24667 72.58 9.52 72.26 9.72C71.9333 9.91333 71.6367 10.01 71.37 10.01ZM71.63 5.05C71.81 5.01667 72.06 4.93 72.38 4.79C72.7067 4.65 73.07 4.44 73.47 4.16C73.8767 3.88 74.29 3.50667 74.71 3.04C74.8833 2.85333 75.0767 2.62 75.29 2.34C75.51 2.06 75.6767 1.80333 75.79 1.57C75.8633 1.40333 75.9167 1.26 75.95 1.14C75.9833 1.02667 76 0.93 76 0.85C76 0.683333 75.9267 0.6 75.78 0.6C75.6267 0.6 75.44 0.67 75.22 0.81C74.9933 0.943333 74.7933 1.09 74.62 1.25C74.3267 1.51 74.0233 1.83 73.71 2.21C73.39 2.58333 73.0867 2.96667 72.8 3.36C72.52 3.75333 72.2733 4.10333 72.06 4.41C71.8533 4.71667 71.71 4.93 71.63 5.05Z" fill="black"/>
</svg>
