<svg width="68.46" height="16.8" viewBox="0 0 68.46 16.8" xmlns="http://www.w3.org/2000/svg"><path transform="translate(0 14) scale(.014 -.014)" d="M-45 470H331V170H-45Z"/><path transform="translate(4.004 14) scale(.014 -.014)" d="M-45 470H331V170H-45Z"/><path transform="translate(8.008 14) scale(.014 -.014)" d="M-45 470H617V170H-45Z"/><path transform="translate(16.016 14) scale(.014 -.014)" d="M-45 470H617V170H-45Z"/><path transform="translate(32.424 14) scale(.014 -.014)" d="M-45 470H617V170H-45Z"/><path transform="translate(40.432 14) scale(.014 -.014)" d="M-45 470H331V170H-45Z"/><path transform="translate(44.436 14) scale(.014 -.014)" d="M-45 470H617V170H-45Z"/><path transform="translate(52.444 14) scale(.014 -.014)" d="M-45 470H617V170H-45Z"/><path transform="translate(60.452 14) scale(.014 -.014)" d="M-45 470H617V170H-45Z"/></svg>