<svg width="79.632" height="16.8" viewBox="0 0 79.632 16.8" xmlns="http://www.w3.org/2000/svg"><path transform="translate(0 14) scale(.014 -.014)" d="m-150 321q0 43 19.5 76.5t53 53 76.5 19.5h288q43 0 76.5-19.5t53-53 19.5-76.5v-2q0-43-19.5-76.5t-53-53-76.5-19.5h-288q-43 0-76.5 19.5t-53 53-19.5 76.5z"/><path transform="translate(4.004 14) scale(.014 -.014)" d="m-150 321q0 43 19.5 76.5t53 53 76.5 19.5h288q43 0 76.5-19.5t53-53 19.5-76.5v-2q0-43-19.5-76.5t-53-53-76.5-19.5h-288q-43 0-76.5 19.5t-53 53-19.5 76.5z"/><path transform="translate(8.008 14) scale(.014 -.014)" d="m-150 321q0 43 19.5 76.5t53 53 76.5 19.5h564q43 0 76.5-19.5t53-53 19.5-76.5v-2q0-43-19.5-76.5t-53-53-76.5-19.5h-564q-43 0-76.5 19.5t-53 53-19.5 76.5z"/><path transform="translate(15.876 14) scale(.014 -.014)" d="m-150 321q0 43 19.5 76.5t53 53 76.5 19.5h564q43 0 76.5-19.5t53-53 19.5-76.5v-2q0-43-19.5-76.5t-53-53-76.5-19.5h-564q-43 0-76.5 19.5t-53 53-19.5 76.5z"/><path transform="translate(32.144 14) scale(.014 -.014)" d="m-150 321q0 43 19.5 76.5t53 53 76.5 19.5h564q43 0 76.5-19.5t53-53 19.5-76.5v-2q0-43-19.5-76.5t-53-53-76.5-19.5h-564q-43 0-76.5 19.5t-53 53-19.5 76.5z"/><path transform="translate(40.012 14) scale(.014 -.014)" d="m-150 321q0 43 19.5 76.5t53 53 76.5 19.5h288q43 0 76.5-19.5t53-53 19.5-76.5v-2q0-43-19.5-76.5t-53-53-76.5-19.5h-288q-43 0-76.5 19.5t-53 53-19.5 76.5z"/><path transform="translate(44.016 14) scale(.014 -.014)" d="m-150 321q0 43 19.5 76.5t53 53 76.5 19.5h288q43 0 76.5-19.5t53-53 19.5-76.5v-2q0-43-19.5-76.5t-53-53-76.5-19.5h-288q-43 0-76.5 19.5t-53 53-19.5 76.5z"/><path transform="translate(48.02 14) scale(.014 -.014)" d="m-150 321q0 43 19.5 76.5t53 53 76.5 19.5h564q43 0 76.5-19.5t53-53 19.5-76.5v-2q0-43-19.5-76.5t-53-53-76.5-19.5h-564q-43 0-76.5 19.5t-53 53-19.5 76.5z"/><path transform="translate(55.888 14) scale(.014 -.014)" d="m-150 321q0 43 19.5 76.5t53 53 76.5 19.5h564q43 0 76.5-19.5t53-53 19.5-76.5v-2q0-43-19.5-76.5t-53-53-76.5-19.5h-564q-43 0-76.5 19.5t-53 53-19.5 76.5z"/><path transform="translate(63.756 14) scale(.014 -.014)" d="m-150 321q0 43 19.5 76.5t53 53 76.5 19.5h288q43 0 76.5-19.5t53-53 19.5-76.5v-2q0-43-19.5-76.5t-53-53-76.5-19.5h-288q-43 0-76.5 19.5t-53 53-19.5 76.5z"/><path transform="translate(67.76 14) scale(.014 -.014)" d="m-150 321q0 43 19.5 76.5t53 53 76.5 19.5h564q43 0 76.5-19.5t53-53 19.5-76.5v-2q0-43-19.5-76.5t-53-53-76.5-19.5h-564q-43 0-76.5 19.5t-53 53-19.5 76.5z"/><path transform="translate(75.628 14) scale(.014 -.014)" d="m-150 321q0 43 19.5 76.5t53 53 76.5 19.5h288q43 0 76.5-19.5t53-53 19.5-76.5v-2q0-43-19.5-76.5t-53-53-76.5-19.5h-288q-43 0-76.5 19.5t-53 53-19.5 76.5z"/></svg>