<svg width="136" height="19" viewBox="0 0 136 19" fill="none" xmlns="http://www.w3.org/2000/svg">
<path d="M11.44 2.5L11.38 8.09L9.75 3.79L6.2 4.11L6.12 7.66L7.29 7.57L8.7 5.07L8.58 11.47L7.2 9.09L6.09 9.01L6.04 12.04L9.06 13.33L0.94 13.3C1.42 13.0933 1.90333 12.88 2.39 12.66C2.87 12.44 3.36 12.2333 3.86 12.04L3.64 4.46C3.11333 4.3 2.59 4.12667 2.07 3.94C1.55 3.74667 1.02667 3.56 0.5 3.38C2.33333 3.23333 4.15667 3.08333 5.97 2.93C7.78333 2.77 9.60667 2.62667 11.44 2.5ZM20.9 9.24C20.9 9.86667 20.7433 10.3967 20.43 10.83C20.11 11.2633 19.7067 11.6167 19.22 11.89C18.7333 12.1567 18.2033 12.35 17.63 12.47C17.0567 12.5967 16.51 12.66 15.99 12.66C15.4767 12.66 14.9467 12.5967 14.4 12.47C13.8467 12.3433 13.34 12.1433 12.88 11.87C12.42 11.5967 12.04 11.2433 11.74 10.81C11.4467 10.3767 11.3 9.85333 11.3 9.24C11.3 8.57333 11.46 8.02333 11.78 7.59C12.1 7.15 12.5033 6.80333 12.99 6.55C13.4767 6.29667 14.0133 6.11667 14.6 6.01C15.1867 5.91 15.7533 5.86 16.3 5.86C16.8067 5.86 17.33 5.92667 17.87 6.06C18.41 6.18667 18.9067 6.38333 19.36 6.65C19.8133 6.91667 20.1833 7.26667 20.47 7.7C20.7567 8.12667 20.9 8.64 20.9 9.24ZM18.64 9.21C18.64 8.88333 18.58 8.58333 18.46 8.31C18.3333 8.03667 18.1633 7.8 17.95 7.6C17.7367 7.4 17.49 7.24667 17.21 7.14C16.9233 7.02667 16.62 6.97 16.3 6.97C15.9733 6.97 15.6467 7.02 15.32 7.12C14.9933 7.21333 14.6967 7.35 14.43 7.53C14.1633 7.71667 13.95 7.94667 13.79 8.22C13.6233 8.5 13.54 8.81667 13.54 9.17C13.54 9.53 13.5967 9.85333 13.71 10.14C13.8233 10.4333 13.9867 10.6867 14.2 10.9C14.42 11.1067 14.6733 11.2667 14.96 11.38C15.2533 11.4933 15.5767 11.55 15.93 11.55C16.3167 11.55 16.6733 11.5067 17 11.42C17.3267 11.3333 17.6133 11.1967 17.86 11.01C18.1067 10.8167 18.3 10.57 18.44 10.27C18.5733 9.97667 18.64 9.62333 18.64 9.21ZM28.79 10.75L30.6 11.65L24.67 11.69L27.23 10.7V8.24C27.23 7.76 27.11 7.37667 26.87 7.09C26.6233 6.80333 26.2533 6.66 25.76 6.66C25.52 6.66 25.26 6.7 24.98 6.78C24.7 6.86 24.4933 7.01667 24.36 7.25L24.06 9.9C24.1467 9.97333 24.29 10.0633 24.49 10.17C24.6833 10.2833 24.8833 10.3933 25.09 10.5C25.33 10.6267 25.5867 10.76 25.86 10.9L20.24 10.92L22.54 9.98L22.13 6.68C21.8633 6.61333 21.5567 6.53 21.21 6.43C20.8633 6.33667 20.53 6.24 20.21 6.14C19.85 6.02667 19.4733 5.91333 19.08 5.8L24.51 4.89L24.44 5.73C24.76 5.60333 25.1 5.47333 25.46 5.34C25.8267 5.21333 26.1833 5.15 26.53 5.15C27.3567 5.15 28 5.37333 28.46 5.82C28.9133 6.26667 29.14 6.91 29.14 7.75C29.14 7.96333 29.13 8.2 29.11 8.46C29.0833 8.71333 29.0533 8.97333 29.02 9.24C28.98 9.50667 28.94 9.77 28.9 10.03C28.86 10.29 28.8233 10.53 28.79 10.75ZM33.12 3.44L35.76 3.72L35.64 5C35.1933 4.96667 34.75 4.93333 34.31 4.9C33.87 4.86667 33.4267 4.82667 32.98 4.78C32.9067 5.64667 32.83 6.51 32.75 7.37C32.67 8.22333 32.5867 9.08333 32.5 9.95C32.5 9.99667 32.4967 10.0433 32.49 10.09C32.4833 10.1367 32.48 10.1833 32.48 10.23C32.48 10.3567 32.4933 10.4867 32.52 10.62C32.5467 10.7467 32.5933 10.8633 32.66 10.97C32.72 11.0767 32.8033 11.1633 32.91 11.23C33.0167 11.2967 33.1467 11.33 33.3 11.33C33.6 11.33 33.8633 11.26 34.09 11.12C34.3167 10.98 34.5067 10.8 34.66 10.58C34.82 10.36 34.9433 10.1167 35.03 9.85C35.1233 9.58333 35.1833 9.31667 35.21 9.05C35.3233 9.47667 35.38 9.9 35.38 10.32C35.38 10.72 35.3133 11.0833 35.18 11.41C35.0533 11.73 34.8767 12.0067 34.65 12.24C34.4233 12.4733 34.15 12.6533 33.83 12.78C33.51 12.9067 33.16 12.97 32.78 12.97C32.38 12.97 32.03 12.9033 31.73 12.77C31.4233 12.63 31.1733 12.44 30.98 12.2C30.7867 11.96 30.64 11.6767 30.54 11.35C30.4467 11.0167 30.4 10.6633 30.4 10.29C30.4 10.2167 30.4 10.15 30.4 10.09C30.4 10.0233 30.4033 9.95333 30.41 9.88C30.4833 9 30.5533 8.13 30.62 7.27C30.6933 6.40333 30.7567 5.53 30.81 4.65C30.5633 4.63 30.32 4.61 30.08 4.59C29.84 4.56333 29.5967 4.53667 29.35 4.51L29.4 3.43C29.5933 3.42333 29.7933 3.39333 30 3.34C30.2133 3.28 30.4167 3.20667 30.61 3.12C30.81 3.02667 30.9933 2.91667 31.16 2.79C31.3267 2.66333 31.4667 2.51667 31.58 2.35C31.68 2.18333 31.7733 2.00667 31.86 1.82C31.9467 1.62667 32.0233 1.42667 32.09 1.22C32.1567 1.00667 32.2133 0.796667 32.26 0.59C32.3067 0.39 32.3367 0.193333 32.35 0L33.48 0.03L33.12 3.44ZM43.29 13.51L46.25 14.2L41.51 14.86L41.58 13.67C41.32 13.7367 41.0533 13.7833 40.78 13.81C40.5067 13.8367 40.2333 13.85 39.96 13.85C39.42 13.85 38.88 13.7867 38.34 13.66C37.7933 13.54 37.3033 13.3433 36.87 13.07C36.4367 12.7967 36.0833 12.44 35.81 12C35.5367 11.5667 35.4 11.0333 35.4 10.4C35.4 9.89333 35.51 9.43667 35.73 9.03C35.95 8.62333 36.2367 8.27667 36.59 7.99C36.95 7.70333 37.3533 7.48333 37.8 7.33C38.2533 7.17 38.7167 7.09 39.19 7.09C39.6567 7.09 40.1233 7.14 40.59 7.24C41.0633 7.33333 41.5033 7.47667 41.91 7.67L42.16 2.95L39.14 1.52L44.77 1.91L43.29 13.51ZM41.66 12.45L41.83 8.94C41.5633 8.76 41.2333 8.62667 40.84 8.54C40.4533 8.46 40.1 8.42 39.78 8.42C39.4533 8.42 39.15 8.47667 38.87 8.59C38.59 8.69667 38.3533 8.85 38.16 9.05C37.96 9.25 37.8067 9.49 37.7 9.77C37.5933 10.0433 37.54 10.3467 37.54 10.68C37.54 11.0333 37.6267 11.34 37.8 11.6C37.9733 11.86 38.1967 12.0733 38.47 12.24C38.7433 12.4133 39.0433 12.5367 39.37 12.61C39.6967 12.69 40.01 12.73 40.31 12.73C40.77 12.73 41.22 12.6367 41.66 12.45ZM49.33 2.88C49.33 3.08 49.2933 3.27 49.22 3.45C49.14 3.63 49.0333 3.78667 48.9 3.92C48.7733 4.04667 48.62 4.15 48.44 4.23C48.26 4.31 48.07 4.35 47.87 4.35C47.67 4.35 47.4833 4.31 47.31 4.23C47.1367 4.15 46.9833 4.04667 46.85 3.92C46.7233 3.78667 46.62 3.63 46.54 3.45C46.46 3.27 46.42 3.08 46.42 2.88C46.42 2.68 46.46 2.49333 46.54 2.32C46.62 2.14667 46.7233 1.99667 46.85 1.87C46.9833 1.73667 47.1367 1.63 47.31 1.55C47.4833 1.47 47.67 1.43 47.87 1.43C48.07 1.43 48.26 1.47 48.44 1.55C48.62 1.63 48.7733 1.73667 48.9 1.87C49.0333 1.99667 49.14 2.14667 49.22 2.32C49.2933 2.49333 49.33 2.68 49.33 2.88ZM48.84 11.16L50.93 12.58L44.81 12.47L47.08 11.06L46.89 6.52L44.28 5.29H49.29L48.84 11.16ZM58.52 10.75L60.34 11.65L54.41 11.69L56.96 10.7V8.24C56.96 7.76 56.84 7.37667 56.6 7.09C56.36 6.80333 55.9933 6.66 55.5 6.66C55.2533 6.66 54.99 6.7 54.71 6.78C54.4367 6.86 54.23 7.01667 54.09 7.25L53.79 9.9C53.8833 9.97333 54.0267 10.0633 54.22 10.17C54.42 10.2833 54.6233 10.3933 54.83 10.5C55.07 10.6267 55.3267 10.76 55.6 10.9L49.98 10.92L52.27 9.98L51.86 6.68C51.6 6.61333 51.2967 6.53 50.95 6.43C50.6033 6.33667 50.27 6.24 49.95 6.14C49.5833 6.02667 49.2067 5.91333 48.82 5.8L54.24 4.89L54.17 5.73C54.49 5.60333 54.8333 5.47333 55.2 5.34C55.5667 5.21333 55.9233 5.15 56.27 5.15C57.0967 5.15 57.7367 5.37333 58.19 5.82C58.65 6.26667 58.88 6.91 58.88 7.75C58.88 7.96333 58.8667 8.2 58.84 8.46C58.82 8.71333 58.79 8.97333 58.75 9.24C58.7167 9.50667 58.68 9.77 58.64 10.03C58.6 10.29 58.56 10.53 58.52 10.75ZM67.4 10.06C67.4 10.1267 67.3967 10.19 67.39 10.25C67.3833 10.3167 67.38 10.38 67.38 10.44L61.82 10.55C61.94 11.09 62.2067 11.4867 62.62 11.74C63.04 12 63.5167 12.13 64.05 12.13C64.3033 12.13 64.5633 12.11 64.83 12.07C65.09 12.0367 65.3467 11.9767 65.6 11.89C65.86 11.81 66.1033 11.7033 66.33 11.57C66.5567 11.4367 66.76 11.28 66.94 11.1C66.84 11.4867 66.6733 11.8233 66.44 12.11C66.2 12.4033 65.92 12.6467 65.6 12.84C65.2733 13.0267 64.92 13.17 64.54 13.27C64.1667 13.3633 63.7933 13.41 63.42 13.41C62.9067 13.41 62.42 13.32 61.96 13.14C61.5 12.9533 61.1 12.7033 60.76 12.39C60.42 12.07 60.1467 11.6867 59.94 11.24C59.74 10.7933 59.64 10.3033 59.64 9.77C59.64 9.21667 59.7567 8.71333 59.99 8.26C60.2167 7.8 60.5167 7.41 60.89 7.09C61.2633 6.76333 61.6967 6.51333 62.19 6.34C62.6767 6.16667 63.19 6.08 63.73 6.08C64.2967 6.08 64.8067 6.18667 65.26 6.4C65.7067 6.60667 66.09 6.89333 66.41 7.26C66.73 7.62667 66.9733 8.04667 67.14 8.52C67.3133 9 67.4 9.51333 67.4 10.06ZM61.82 9.31L65.3 9.36C65.2867 9.12 65.2367 8.88333 65.15 8.65C65.07 8.42333 64.9567 8.22333 64.81 8.05C64.6633 7.87667 64.49 7.73667 64.29 7.63C64.0833 7.53 63.8433 7.48 63.57 7.48C63.2967 7.48 63.06 7.53 62.86 7.63C62.66 7.73 62.49 7.86333 62.35 8.03C62.2167 8.19667 62.1067 8.39333 62.02 8.62C61.9333 8.84 61.8667 9.07 61.82 9.31ZM75.31 5.88C75.31 6.25333 75.1967 6.56 74.97 6.8C74.7433 7.04 74.4367 7.16 74.05 7.16C73.77 7.16 73.5533 7.11 73.4 7.01C73.24 6.90333 73.11 6.78333 73.01 6.65C72.9033 6.51667 72.7967 6.4 72.69 6.3C72.59 6.19333 72.4433 6.14 72.25 6.14C71.91 6.14 71.64 6.24667 71.44 6.46C71.24 6.67333 71.09 6.92667 70.99 7.22C70.9833 7.24 70.9767 7.32667 70.97 7.48C70.9633 7.63333 70.9567 7.83 70.95 8.07C70.9433 8.30333 70.9333 8.56 70.92 8.84C70.9133 9.12667 70.9067 9.39667 70.9 9.65C70.8867 9.90333 70.8767 10.13 70.87 10.33C70.8567 10.5233 70.85 10.6533 70.85 10.72L74.18 11.92L66.27 12.73C66.75 12.43 67.2267 12.13 67.7 11.83C68.1733 11.5367 68.6467 11.2433 69.12 10.95L68.61 6.18L65.56 5.36L71.07 4.16L71.05 5.41C71.43 5.15 71.8233 4.92667 72.23 4.74C72.6367 4.55333 73.0867 4.46 73.58 4.46C73.74 4.46 73.9067 4.47667 74.08 4.51C74.2533 4.55 74.4167 4.60667 74.57 4.68C74.73 4.74667 74.8667 4.84333 74.98 4.97C75.1 5.09 75.1867 5.23667 75.24 5.41C75.2867 5.57667 75.31 5.73333 75.31 5.88ZM88.49 10.05C88.49 10.5833 88.35 11.0367 88.07 11.41C87.7833 11.7767 87.4267 12.0733 87 12.3C86.5733 12.5333 86.11 12.7 85.61 12.8C85.1033 12.9067 84.6333 12.96 84.2 12.96C83.6533 12.96 83.1033 12.8767 82.55 12.71C81.9967 12.5367 81.4967 12.2933 81.05 11.98L79.97 14.18L80.47 9.08C80.5833 9.48667 80.7567 9.85667 80.99 10.19C81.2233 10.5233 81.4967 10.81 81.81 11.05C82.1167 11.2833 82.46 11.4633 82.84 11.59C83.22 11.7167 83.6233 11.78 84.05 11.78C84.2033 11.78 84.3867 11.7667 84.6 11.74C84.8133 11.7067 85.02 11.65 85.22 11.57C85.4133 11.4833 85.58 11.3733 85.72 11.24C85.8533 11.1 85.92 10.93 85.92 10.73C85.92 10.4767 85.8167 10.2533 85.61 10.06C85.41 9.86667 85.1667 9.70667 84.88 9.58C84.6 9.44667 84.31 9.34 84.01 9.26C83.71 9.17333 83.4667 9.11333 83.28 9.08C82.9067 9.00667 82.5033 8.90667 82.07 8.78C81.63 8.65333 81.22 8.48 80.84 8.26C80.46 8.04667 80.1433 7.78 79.89 7.46C79.6367 7.13333 79.51 6.73333 79.51 6.26C79.51 5.71333 79.6367 5.25667 79.89 4.89C80.1433 4.51667 80.47 4.22333 80.87 4.01C81.2633 3.79 81.7 3.63333 82.18 3.54C82.66 3.44667 83.1267 3.4 83.58 3.4C84.24 3.4 84.83 3.48 85.35 3.64C85.87 3.79333 86.4167 4.03 86.99 4.35L88.35 2.68L87.85 7.18C87.6233 6.81333 87.3567 6.47 87.05 6.15C86.7433 5.83 86.4067 5.55 86.04 5.31C85.68 5.07 85.29 4.88 84.87 4.74C84.4567 4.59333 84.0333 4.52 83.6 4.52C83.44 4.52 83.26 4.54333 83.06 4.59C82.8533 4.63 82.6533 4.69333 82.46 4.78C82.2667 4.86667 82.1067 4.97667 81.98 5.11C81.8467 5.25 81.78 5.42 81.78 5.62C81.78 5.81333 81.86 5.97333 82.02 6.1C82.18 6.23333 82.37 6.34333 82.59 6.43C82.8167 6.51667 83.0433 6.58667 83.27 6.64C83.4967 6.7 83.68 6.74333 83.82 6.77C84.2267 6.85667 84.7 6.98 85.24 7.14C85.7733 7.29333 86.2833 7.49667 86.77 7.75C87.25 8.00333 87.6567 8.31667 87.99 8.69C88.3233 9.07 88.49 9.52333 88.49 10.05ZM96.01 4.93L102.01 5.19L99.35 6.14L96.28 12.82L94.34 8.89L92.58 12.78L89.38 6.17L86.81 5.1L93.99 4.77L91.68 5.74L93.1 8.93L94.79 5L96.6 9.02L97.99 6L96.01 4.93ZM108.89 12.69L104.56 12.86L104.65 12.1C104.357 12.1333 104.067 12.1533 103.78 12.16C103.487 12.1667 103.193 12.17 102.9 12.17C102.633 12.17 102.343 12.1367 102.03 12.07C101.71 12.01 101.413 11.9067 101.14 11.76C100.867 11.62 100.637 11.4367 100.45 11.21C100.27 10.9833 100.18 10.7067 100.18 10.38C100.18 10.0133 100.267 9.70333 100.44 9.45C100.613 9.19 100.833 8.98333 101.1 8.83C101.373 8.67667 101.673 8.56333 102 8.49C102.327 8.41667 102.647 8.38 102.96 8.38C103.34 8.38 103.713 8.39667 104.08 8.43C104.44 8.47 104.807 8.50333 105.18 8.53C105.2 8.41 105.217 8.29 105.23 8.17C105.237 8.04333 105.24 7.91667 105.24 7.79C105.24 7.54333 105.22 7.30333 105.18 7.07C105.14 6.83 105.067 6.61667 104.96 6.43C104.853 6.24333 104.707 6.09667 104.52 5.99C104.333 5.87667 104.093 5.82 103.8 5.82C103.527 5.82 103.28 5.86333 103.06 5.95C102.833 6.03667 102.633 6.18667 102.46 6.4C102.593 6.5 102.68 6.61 102.72 6.73C102.767 6.85667 102.79 6.99667 102.79 7.15V7.23C102.657 7.87 102.257 8.19 101.59 8.19C101.29 8.19 101.043 8.08333 100.85 7.87C100.657 7.65667 100.56 7.40333 100.56 7.11C100.56 6.71 100.677 6.36333 100.91 6.07C101.137 5.77667 101.417 5.53333 101.75 5.34C102.083 5.15333 102.443 5.01333 102.83 4.92C103.217 4.82667 103.573 4.78 103.9 4.78C104.947 4.78 105.763 5.02333 106.35 5.51C106.943 5.99 107.24 6.77667 107.24 7.87C107.24 7.99 107.237 8.11 107.23 8.23C107.223 8.35 107.217 8.47 107.21 8.59L106.88 11.73C107.227 11.8833 107.563 12.0433 107.89 12.21C108.217 12.37 108.55 12.53 108.89 12.69ZM104.82 10.99L105.03 9.45C104.797 9.42333 104.56 9.39333 104.32 9.36C104.087 9.32667 103.85 9.31 103.61 9.31C103.457 9.31 103.303 9.32667 103.15 9.36C103.003 9.39333 102.867 9.44333 102.74 9.51C102.62 9.58333 102.523 9.68333 102.45 9.81C102.377 9.93 102.34 10.0833 102.34 10.27C102.34 10.4033 102.373 10.5233 102.44 10.63C102.5 10.7367 102.583 10.8267 102.69 10.9C102.797 10.9733 102.91 11.0267 103.03 11.06C103.157 11.0933 103.277 11.11 103.39 11.11C103.63 11.11 103.87 11.0967 104.11 11.07C104.35 11.0433 104.587 11.0167 104.82 10.99ZM116.23 10.75L118.05 11.65L112.12 11.69L114.67 10.7V8.24C114.67 7.76 114.55 7.37667 114.31 7.09C114.07 6.80333 113.703 6.66 113.21 6.66C112.963 6.66 112.7 6.7 112.42 6.78C112.147 6.86 111.94 7.01667 111.8 7.25L111.5 9.9C111.593 9.97333 111.737 10.0633 111.93 10.17C112.13 10.2833 112.333 10.3933 112.54 10.5C112.78 10.6267 113.037 10.76 113.31 10.9L107.69 10.92L109.98 9.98L109.57 6.68C109.31 6.61333 109.007 6.53 108.66 6.43C108.313 6.33667 107.98 6.24 107.66 6.14C107.293 6.02667 106.913 5.91333 106.52 5.8L111.95 4.89L111.88 5.73C112.2 5.60333 112.543 5.47333 112.91 5.34C113.277 5.21333 113.633 5.15 113.98 5.15C114.807 5.15 115.447 5.37333 115.9 5.82C116.36 6.26667 116.59 6.91 116.59 7.75C116.59 7.96333 116.577 8.2 116.55 8.46C116.53 8.71333 116.5 8.97333 116.46 9.24C116.427 9.50667 116.39 9.77 116.35 10.03C116.31 10.29 116.27 10.53 116.23 10.75ZM126.03 11.87L128.82 12.58L122.22 13.99L124.41 12.34L121.63 8.09L120.55 8.82L120.5 11.32L123.23 12.41L115.94 12.7L118.64 11.33L118.06 2.46L114.84 1.71L120.77 1.26L120.61 7.34L123.5 4.88L121.34 3.59H128.37L125.23 5.07L122.96 6.79L126.03 11.87ZM130.74 5.56L135.75 6.1L135.41 14.25C135.383 14.93 135.273 15.5533 135.08 16.12C134.893 16.6867 134.62 17.17 134.26 17.57C133.9 17.9767 133.447 18.29 132.9 18.51C132.36 18.73 131.73 18.84 131.01 18.84C130.61 18.84 130.203 18.78 129.79 18.66C129.383 18.54 129.013 18.3633 128.68 18.13C128.347 17.9033 128.077 17.62 127.87 17.28C127.657 16.94 127.55 16.5467 127.55 16.1C127.55 15.76 127.66 15.4767 127.88 15.25C128.1 15.03 128.383 14.92 128.73 14.92C129.017 14.92 129.263 15.0267 129.47 15.24C129.67 15.46 129.77 15.7133 129.77 16C129.77 16.18 129.713 16.3467 129.6 16.5C129.48 16.6533 129.343 16.7667 129.19 16.84C129.39 17.1067 129.65 17.3067 129.97 17.44C130.29 17.58 130.61 17.65 130.93 17.65C131.403 17.65 131.783 17.53 132.07 17.29C132.357 17.0567 132.577 16.7633 132.73 16.41C132.89 16.05 132.997 15.6633 133.05 15.25C133.11 14.8367 133.153 14.4467 133.18 14.08C133.2 13.7067 133.213 13.34 133.22 12.98C133.227 12.62 133.237 12.2567 133.25 11.89C132.823 12.0033 132.427 12.0967 132.06 12.17C131.687 12.25 131.283 12.29 130.85 12.29C130.403 12.29 129.977 12.24 129.57 12.14C129.163 12.04 128.807 11.88 128.5 11.66C128.193 11.44 127.95 11.1567 127.77 10.81C127.59 10.4633 127.5 10.0467 127.5 9.56C127.5 9.42 127.523 9.23333 127.57 9C127.623 8.76667 127.683 8.52667 127.75 8.28C127.817 8.04 127.887 7.80333 127.96 7.57C128.033 7.34333 128.09 7.17 128.13 7.05L126.17 4.89L130.86 6.51C130.807 6.66333 130.73 6.88667 130.63 7.18C130.537 7.46667 130.44 7.77 130.34 8.09C130.24 8.40333 130.153 8.70333 130.08 8.99C130.007 9.27667 129.97 9.48667 129.97 9.62C129.97 9.85333 130.027 10.05 130.14 10.21C130.247 10.3767 130.383 10.5133 130.55 10.62C130.723 10.7333 130.91 10.8133 131.11 10.86C131.317 10.9133 131.52 10.94 131.72 10.94C131.96 10.94 132.227 10.9167 132.52 10.87C132.82 10.8233 133.083 10.75 133.31 10.65L133.33 7.25L130.74 5.56Z" fill="black"/>
</svg>
