<svg width="53.004" height="16.94" viewBox="0 0 53.004 16.94" xmlns="http://www.w3.org/2000/svg"><path transform="translate(0 13.636) scale(.014 -.014)" d="m121-10q-20 0-29.5 5.5t-12.5 16-3 24.5v607q0 26 10.5 35.5t37.5 9.5h402q14 0 23.5-3t14.5-13 5-30-5.5-29.5-15.5-12.5-24-3h-358v-207h249q14 0 23.5-3t14.5-12 5-28q0-18-5-27t-14.5-11.5-24.5-2.5h-248v-271q0-14-3-24t-12.5-15.5-29.5-5.5z"/><path transform="translate(8.834 13.636) scale(.014 -.014)" d="m107-10q-19 0-28.5 5.5t-12 16-2.5 24.5v394q0 15 3 25t12 14.5 29 4.5q18 0 27.5-4.5t13-13 3.5-19.5l-4-30q7 13 16.5 26t24 23.5 35 17.5 50.5 7q15 0 28.5-2.5t26-7.5 21.5-11.5 14.5-14 5.5-17.5q0-22-14-37.5t-29-15.5q-13 0-19 3.5t-11.5 7.5-15.5 7.5-32 3.5q-15 0-31.5-6t-31.5-17.5-24.5-29.5-9.5-42v-268q0-14-3-24t-12.5-15-29.5-5z"/><path transform="translate(14.518 13.636) scale(.014 -.014)" d="m291-15q-60 0-107 20t-79.5 54.5-49.5 79.5-17 97q0 69 32 123t88.5 85.5 129.5 31.5q50 0 89.5-15.5t67.5-41.5 43-58 15-64q0-51-24-71.5t-59-20.5h-289q-1-44 23.5-75.5t62-48.5 75.5-17q28 0 48 3t35 8 26 10 19.5 10 16.5 7q9 2 17.5-1.5t13.5-13.5q6-8 8-15t2-15q0-14-24-31t-66.5-29-96.5-12zm-160 279h251q19 0 28.5 5t9.5 27q0 28-17 50.5t-46.5 36.5-67.5 14q-44 0-80.5-17.5t-57.5-47.5-20-68z"/><path transform="translate(22.078 13.636) scale(.014 -.014)" d="m272-10q-45 0-86 18t-71.5 51-48 77.5-17.5 97.5q0 52 17.5 96t48 76.5 71.5 50.5 86 18q49 0 88.5-18t68-50.5 43.5-77 15-96.5q1-53-14.5-97t-43.5-77-67.5-51-89.5-18zm13 85q42 0 75.5 20t53 55.5 19.5 81.5q0 47-19.5 82.5t-53 55.5-75.5 20-76-20-53.5-55.5-19.5-82.5q0-46 19.5-81.5t54-55.5 75.5-20zm196-85q-22 0-32 8t-12 27v626q0 15 2.5 25t12 15.5 28.5 5.5 28.5-5.5 12.5-15.5 3-24v-616q0-14-3-24.5t-12-16-28-5.5z"/><path transform="translate(30.282 13.636) scale(.014 -.014)" d="m282-16q-49 0-93.5 19t-79.5 52.5-55 78.5-20 98q0 52 19 96.5t53 78.5 78.5 53.5 95.5 19.5q69 0 124.5-32.5t88.5-88.5 33-126q0-55-20-100.5t-54-78.5-78-51.5-92-18.5zm-2 87q42 0 78 21t58 58 22 84-20.5 83-56.5 56-82 20q-44 0-79.5-21t-57-57-21.5-82q0-48 22-84.5t58.5-57 78.5-20.5z"/><path transform="translate(38.122 13.636) scale(.014 -.014)" d="m435 68q19-15 20.5-29t-14.5-33q-12-14-21.5-18.5t-19.5-1-23 14.5l-226 184v-150q0-14-3.5-24t-12.5-15.5-29-5.5q-18 0-28 5.5t-12.5 16-2.5 24.5v617q0 14 3 24t13 15.5 28 5.5q20 0 29-5.5t12-16 3-24.5v-354l165 158q11 11 21.5 15.5t21 1.5 21.5-16q18-20 17.5-33.5t-18.5-30.5l-162-153z"/><path transform="translate(44.968 13.636) scale(.014 -.014)" d="m475-9q-22 0-31.5 9t-11.5 28l4 50q-10-16-31-36.5t-55-36-83-15.5q-48 0-89.5 19t-73 53-49 78-17.5 94q0 49 17.5 92.5t49.5 76.5 73.5 52 88.5 19q44 0 75-11.5t53.5-30 39.5-41.5l-2 42q-1 22 9.5 31.5t33.5 9.5q19 0 27.5-6t11.5-17 3-27v-386q0-14-3-25t-12-16.5-28-5.5zm-193 83q40 0 73.5 21t53 56.5 19.5 81.5q0 47-20.5 82.5t-54 56-73.5 20.5q-47 0-81.5-21.5t-54.5-57.5-20-82q0-45 20-80.5t55.5-56 82.5-20.5z"/></svg>