<svg width="72.324" height="19.305" viewBox="0 0 72.324 19.305" xmlns="http://www.w3.org/2000/svg"><path transform="translate(0 14.697) scale(.013672 -.013672)" d="m759 274q-14-1-28 2.5t-28 3.5q-10 1-20 0t-20-1q-11 0-20.5 1t-18.5 0q-31-3-63.5-1.5t-61.5 0.5q-20 0-37.5-0.5t-36.5 1.5q6-14 5-33.5t-2-39.5q0-5 0.5-10.5t0.5-10.5q-5-24-3.5-43t1.5-37q0-20 0-38.5t-5-35.5q-1-5-1-9.5t-2-6.5-9.5-5-12.5-4q-14 0-19-2t-10-2q-3 0-6 1t-7 1q-9 1-18 0t-20-2q-10 0-20.5 2t-21.5 3q-7 0-13 0.5t-14 0.5q-11 2-22 2t-21 2q-15 3-22.5 2t-15.5-1q-11 0-23 1.5t-20 7.5q-2 2-4 4.5t-6 2.5q-2 7-11 11.5t-10 12.5q-2 5-0.5 11.5t1.5 12.5v27q0 8 0 14.5t-1 12.5q-2 24 7 33 2 2 5 3t4 4q4 7 2 12.5t-6 10-8.5 8.5-5.5 8q0 3 1 6.5t1 5.5q1 8 0.5 15.5t-0.5 14.5q4 17 2.5 30t3.5 27q2 7 13 16 3 3 6.5 7.5t4.5 7.5-0.5 11.5-3.5 13.5q-1 4-3.5 7t-5.5 7q-7 8-9 14-1 16-0.5 34.5t2.5 36.5q0 20 0.5 45t0.5 50q0 5 1 10t1 11q2 11-1 21t-1 21q1 5 1.5 11.5t2.5 11.5q0 6-1 12.5t1 11.5q1 3 3 6t4 6q5 8 9.5 12t12.5 9q4 10 6.5 21t8.5 19q4 2 7.5 4.5t5.5 7.5q7 2 15.5 0.5t15.5-3.5q13 1 30 1.5t35-0.5 36-3 33-5q31 6 62.5 1t67.5-4q6 0 12 1.5t12 1.5q5 0 11-1t13-1q8-1 17.5 0t19.5-1q5-2 8-6t8-6q8-4 20.5-5.5t23.5 0.5q8 1 13.5 6t12.5 6q6 1 12.5 0.5t12.5 1.5q8 1 14.5 0.5t14.5-0.5q25-1 52.5-1t52.5-2q5-1 9-2t9-3q8-6 18.5-12.5t13.5-19.5q2-7-0.5-13.5t-2.5-14.5q-1-10-1.5-20t-0.5-19q0-7 1.5-14t0.5-13q0-8-4.5-13.5t-8.5-7.5q-5 0-9.5-2t-9.5-3q-9-1-18.5 0t-18.5 2q-2 0-5-0.5t-6-0.5q-14 1-27.5 1t-29.5 1q-6 1-12 2t-12 1q-5 0-10-1t-10 0q-8 0-15 2t-15-1q-17 3-33.5 3.5t-33.5-1.5q-5-1-10.5-1.5t-10.5 2.5q-5 1-8 5t-6 8-6.5 6.5-8.5 1.5q-4-1-5-3.5t-3-5.5q-6-10-23-10-8 0-15.5 0t-12.5-5q-4-9-2.5-18t-0.5-17q0-6-1.5-12t-1.5-12q-1-5 0-10t1-10q-1-8-2.5-16t-1.5-16q-1-10-1-21t0-21q23-4 47-2t47-3q8-8 19-13t25-2q5 2 9.5 4.5t9.5 4.5q8 2 19 2 10 1 17.5 0t15.5-1q15 0 20 0.5t10 0.5q11 0 23-0.5t23-1.5q5 0 10-0.5t10-1.5q13-1 24.5-0.5t21.5-3.5q4-2 9.5-8.5t7.5-11.5 0.5-11-1.5-14q0-2 1-6.5t1-7.5q-2-7-9.5-10t-7.5-12q0-4 2.5-8t4.5-9q3-15-3-24t-16-15q-5 0-10.5-2t-10.5-2zm-3 426q-12-4-5.5-12t15.5-9 17 5.5 3 13.5q-3 1-5.5 3t-5.5 4q-4-4-9-3.5t-10-1.5zm-593-478q5 5 4.5 13t0.5 14q2 12 2 25t-6 23q-7 0-10.5-3.5t-5.5-9-2.5-12.5-0.5-13q-2-11-1.5-21.5t8.5-14.5q7 5 7.5 2t3.5-3zm43 408q1 19 4.5 28.5t1.5 17.5q-1 5-4.5 15t-8.5 9q-7-2-8-8.5t-3-11.5q-2-4-5-8.5t-5-8.5-5-6-5-5q-4-9-6-11t-4-4q-3-6-3.5-18.5t1.5-18.5q1-5 5-7.5t9.5-2.5 10.5 1.5 9 3.5q4 7 9.5 14.5t6.5 20.5zm44 40q5 1 7.5 5.5t2 9.5-2.5 9.5-6 6.5q-3-6-6-16t5-15zm99-576q8-5 14.5-0.5t11.5 8.5q10 19 9 32t1 27q2 8 3 14.5t0 11.5q-14 1-19.5-4t-10.5-13-3.5-19-0.5-20q-1-6-3.5-11.5t-4.5-10.5q2-5 1.5-9t1.5-6zm31-54q5 3 4.5 8.5t-5.5 9.5q-10 5-14.5-4t2.5-17q4 0 6.5 1.5t6.5 1.5zm332 309q14-2 26.5 4t14.5 23q-6 6-17.5 5.5t-20-5-11.5-12 8-15.5zm-586 407q1-11-2.5-19t-8.5-14-11.5-11.5-11.5-11.5q-10-11-9.5-24t-1.5-27q0-3-1-6t-2-5v-15q-1-7-2.5-12.5t0.5-10.5q1-4 3-7.5t3-8.5q1-8-1.5-17.5t-1.5-17.5q-5-4-12-3t-5 11q-2 3-6 4.5t-5 5.5l2 12q0 3 1.5 6.5t1.5 5.5q0 5-1 9.5t-1 8.5q0 2 1.5 5.5t1.5 7.5 0 6 1 7q1 6 1 12.5t0 14.5q1 13 2 25t1 25q1 2 1 5.5t2 5.5q1 5 5 8t3 8q8 3 11 11 5 1 10.5 4.5t11.5 6 11 2 9-6.5zm759-80q0-4 0.5-7.5t-0.5-8.5q-2-19-9-35-3-7-10.5-7t-8.5 8q-1 6 1.5 13t2.5 13q1 16 2.5 23.5t0.5 17.5q0 3-0.5 8t-2.5 7q-1 2-3.5 4.5t-4.5 4.5q-1 0-3 2t-3 4-1 3.5 4 2.5q4 0 7.5-3t8.5-5 10.5-2 7.5-4q4-6 2.5-18.5t-1.5-20.5zm-420-174q-5 8-2.5 18.5t2.5 21.5q0 7 2 14t8 10q3-1 5.5 2t5.5 3q3 1 7-0.5t8-0.5q10 1 19.5 3t20.5 2q2-2 4.5-5.5t2.5-7.5q-1-8-8.5-10t-15.5-1q-4 1-6.5 2.5t-5.5 0.5q-5-1-12-4t-11-6q-3-4-4-9.5t-2-11.5-3-10-7-5zm98 53q-1 7 5.5 10.5t13.5 4.5q7-5 3.5-14.5t-11.5-8.5q-3 0-6.5 3t-4.5 5zm255-265q13-7 12-20.5t-3-24.5q-3-10-12-12t-18-4q-19 1-30.5 4t-22.5 1q-8-1-19.5-1.5t-19.5 7.5q-2 10 4 13.5t12 5.5q8-3 16.5-6t19.5-2q3 1 6 2t7 1q7 0 15.5-0.5t13.5 2.5q6 4 10 16.5t9 17.5zm-372-203q5 6 11 3.5t8-7.5q0-9-1-16.5t-5-12.5q-7 1-9 4.5t-2.5 8.5-0.5 10-1 10zm-3-48q5 5 10.5 0.5t5.5-8.5q1-11-2-28.5t-5-28.5q-12-6-25.5-10t-29.5-3q-6 1-11.5 2t-11.5 2q-4 0-8.5 0t-6.5 3q1 4 1.5 6.5t-1.5 7.5q8 4 15.5 1.5t15.5-2.5q10 0 23 7t19 13q9 13 8 21.5t3 16.5z"/><path transform="translate(12.045 14.697) scale(.013672 -.013672)" d="m829 682q2-17 2-32.5t-6-32.5q-11-1-11 3.5t-1 8.5q-5 14-11.5 27t-14.5 25q-10 7-19.5 13t-19.5 14q-13 2-26 6.5t-29 5.5q-12 0-15 1.5t-7 1.5q-5 0-11.5-0.5t-12.5 0-9.5 3-1.5 10.5q3 6 9.5 8t14 2 15.5-0.5 13-0.5q19-2 35-10.5t33-14.5q8-2 10.5-3.5t4.5-2.5q8-2 16-2t13-7q10-3 16-10t13-13zm-640 24q-10-1-20 1.5t-10 10.5q-1 8 6 7t12 1q7-5 18.5-3t16.5-3q1-5-7.5-9t-15.5-5zm590-75q7-12 10.5-22.5t5.5-27.5q5-29 3.5-63t-4.5-68q-1-20-9-38-2-5-3-10.5t-3-9.5-6-5.5-10 0.5q-5-5-10-10t-7-13q-1-12-4-16t-5-6q-8-4-8-5t-2-2q-7-2-11.5-5t-8.5-5q-10 2-20-2t-18-2q-3 0-5 1.5t-6 0.5q-5-13-1-19.5t9-13.5q8-13 14-25t16-22q-1-3 2-5.5t4-7.5q-1-12 0-13t1-3q3-7 4.5-14.5t6.5-11.5q11-4 13.5-6.5t6.5-0.5q9-12 20.5-23.5t11.5-31.5q-8-2-19-2t-22 0q-8 0-16.5-1.5t-16.5 0.5q-11-2-21.5-3t-24.5 1q-11-3-23.5 0t-18.5 11q-2 10-10.5 19t-6.5 21q-4 7-3.5 15t-4.5 13q-6 5-12.5 6.5t-11.5 6.5q-4 3-6 7t-4 8q-5 8-11 14t-8 14q-9 9-16 20t-13 22q-8 6-11 8-5-2-8.5-1.5t-8.5 1.5q-14 2-31.5 0t-34.5-2q-11 0-24-1t-25-4q1-23 0-53t2-51q-2-10-1.5-22.5t0-23.5-4.5-20.5-14-13.5q-9 0-19-2t-20-2q-5 0-10.5 1t-11.5 1q-7-1-16-1.5t-17 0.5q-5 0-9.5 1.5t-9.5 1.5q-14 0-26 0t-23 5q-5 2-9 4.5t-11 0.5q-8-2-13.5-6.5t-10.5-4.5q-5-1-15.5 3.5t-14.5 7.5-8.5 11-5.5 14q-4 15 6 23 0 9 3.5 15t2.5 15q-1 11-8 17t-12 14q-2 23-0.5 49t0.5 50q0 5-1.5 10t-0.5 10q1 3 2.5 5.5t3.5 6.5q2 5 2.5 11t5.5 9q-1 6 0.5 11.5t0.5 11.5q-5 9-4.5 12.5t-0.5 5.5q-2 6-5.5 10.5t-4.5 9.5q-2 9 0 17v106q1 10 2 18t1 16q-1 3-2 6t-1 6q0 4 0.5 7.5t0.5 6.5q0 4-0.5 7.5t-0.5 7.5q2 36 32 44 11 2 17 1.5t13 0.5q3 1 6 2t6 1q12 0 19-7t20-7q6-1 11 0t10 2q7 2 13.5 5t14.5 6q21 3 44 3 5 0 10.5-1t10.5-1q8 0 16.5 1.5t16.5 2.5q7 0 13-1t13-1q17-2 35.5-1.5t35.5 0.5q13-1 17.5 0t9.5 1q6 1 11.5 0t10.5-1q10 0 19 2t18 2q12-1 14 0t4 1q13 2 25.5 0t25.5-1q13-11 24-11 14 0 27 6t27 7q3 0 5.5-1t5.5-1q11-1 22-2t19-4q6-5 12.5-10t14.5-8q10-9 18-20.5t16-22.5zm-618-463q5 3 6 12.5t-3 15.5q-3 4-9 4.5t-11-1.5q-5-4-11.5-13.5t-2.5-18.5q7-1 15.5-2t15.5 3zm-1 455q2 7-1.5 11.5t-6.5 9.5q-10 2-15 7.5t-13 3.5q-10-2-9.5-15.5t0.5-21.5q-1-12 0.5-15.5t1.5-7.5q1-6 0-17.5t3-15.5 9.5-1 7.5 6q2 5-0.5 9t-2.5 9q-1 5 0 9.5t2 9.5 2 9 3 8q4 2 9 1t10 1zm243 6q-5 3-11.5 0.5t-8.5-7.5q2-7 9-12 3 1 7.5 2t9.5 1.5 8.5 2.5 3.5 6q0 3-3.5 6t-8.5 3zm-53-13q2 4 1 8t-3 6q-7 4-13 2.5t-11-2.5q-6-1-10.5-0.5t-9.5-1.5q-8-5-9.5-14.5t-3.5-20.5q-1-6-2-12t0-11q0-4 4-12 4-14 12-17.5t11 4.5q1 8-0.5 18t0.5 21q1 6 4 14.5t8 10.5zm184-129q0 5-1 8.5t-1 7.5q0 10 1.5 20t0.5 20q0 10-5 14.5t-10 9.5q-3 2-5.5 4.5t-4.5 3.5q-6 3-11.5 3t-13.5 1q-6 2-10 6t-9 6q-18-7-27.5-7t-18.5 0q-6 0-12-1.5t-12-1.5q-11-1-21.5 0.5t-21.5-2.5q-2-9 0-17t2-17q0-25-0.5-40t0.5-29q1-5 2.5-9t2.5-9q0-10-1.5-21t1.5-20q11 1 19-0.5t16-3.5q8 2 20 2.5t22 0.5q12-5 16.5-6.5t8.5-0.5q5 2 10 6.5t10 6.5q9 2 18 3t15 5q2 1 4.5 4t4.5 5l6 11q1 2 2 7t1 8q0 6 0 11.5t2 10.5zm176 102q2-4 6.5-5t9.5-2q5 3 9 10t4 15q-1 6-5 12t-4 12q-6 5-17.5 11.5t-23.5 6.5q-3 0-6.5-4.5t-2.5-9.5q2-5 9.5-7.5t12.5-5.5q9-7 9.5-14.5t-1.5-18.5zm42-59q0 7 1 13t-4 9q-4-3-7.5-1t-6.5 1q-5-1-8.5-6t-2.5-9q1-8 11-9.5t17 2.5zm-333 33q8-1 15.5 1.5t12.5-2.5q3-11-5.5-13t-16.5-4q-8-3-11-8.5t-8-9.5q-2-4-4-6.5t-3-5.5q-5-5-10.5-5.5t-7.5 10.5q-1 5-1 11.5t0 12.5q-1 13 5 17t18 4h12zm64-3q2-2 5.5-7t3.5-7-3.5-6-5.5-5q-10-5-18.5 3t-4.5 20q5 2 11.5 3.5t11.5-1.5zm284-213q2 8 10.5 11.5t13.5-7.5q0-16-10-22-15 7-14 18zm-3-21q7-2 8-13t-2-16q-2-2-7-7t-8-7q-5-2-11-1t-11 1q-2-15 6-24.5t10-21.5q1-4 0-7.5t-1-7.5q-15 2-21.5 11.5t-11.5 17.5q-5 10-5 19.5t5 20.5q11 7 15.5 8t9.5 6q3 2 5.5 6.5t5 8 5.5 6 8 0.5zm-376-51q14 8 30.5 6.5t32.5-2.5q-19-10-31.5-15.5t-18.5-18.5q-1-16-6.5-27t-8.5-24q-6 17-6 40.5t8 40.5zm-336-61q11 6 15-1t3.5-17.5-6-20.5-13.5-10q-8 9-4.5 24t5.5 25zm326-69q-4 4-3 11t4.5 12 8.5 7 9-3q1-12-3-20.5t-16-6.5zm231-49q16 0 29.5-1t25.5 0q3-4 1-7.5t-6.5-6-10.5-4.5-11-3q-8-1-18.5-0.5t-18.5 1.5q-15 1-25 13-2 7-4.5 13t-2.5 16q2 2 4 3.5t6 1.5q8-5 15.5-12.5t15.5-13.5zm-420-15q4-2 9-1.5t9.5 1 8.5 0 6-4.5q-10-4-16.5-5.5t-14.5-1.5q-6 0-12 1t-12 1q-5 0-9-1.5t-8-2.5q-11-2-23-2t-24-2q-8-1-18-0.5t-15 2.5q-11 4-13 15.5t0 22.5q2 2 5 3t5 4q8 0 9.5-8t7.5-11q10-5 22.5-2.5t26.5 3.5q3 0 6.5-1t7.5-1q7 0 11.5 0.5t8.5-0.5q11-6 15-5.5t7-3.5z"/><path transform="translate(23.762 14.697) scale(.013672 -.013672)" d="m150 690q-5 1-10.5 0.5t-10 0-7.5 3.5-2 11q7 6 13 6t11 1q11-3 14-13-3-7-8-9zm-60 1q-10 3-19 0.5t-18-6.5q-2-2-3.5-6t-3.5-8q-1-5-2.5-9.5t-1.5-8.5q-1-5-0.5-10t-4.5-7q-20 9-15 29 0 3 1.5 6.5t1.5 7.5q1 8 1.5 14t5.5 10q5 5 11.5 4.5t13.5-0.5q16 4 21.5 0t12.5-4q1-10-1-12zm368-559q-1-6 1-11t2-10q0-9-3-16.5t-5-13.5q-3-2-6-3t-4-5q-9-1-17-4-12 2-22 1.5t-21 0.5q-4 0-11 0.5t-12 2.5q-16 7-31 15t-35 6q-4 0-7-1.5t-7 0.5q-8-4-16-4t-14-4q-13-2-25-4.5t-26-1.5q-6 1-12 0.5t-11-0.5q-7 0-14 1t-15 2q-11 0-16 1-11 1-22.5 1t-22 2.5-17.5 8-7 19.5q0 3 1.5 6t1.5 6q-2 11-5 22.5t0 19.5q7 13 8 17.5t6 8.5q11 4 22.5 6t25.5 2q2 4 1.5 8.5t0.5 9.5q3 2 4.5 5.5t6.5 4.5q4 8 6.5 14.5t0.5 14.5q-2 6-7 11t-5 13q0 6 2 13.5t3 15.5q0 12 3 15.5t5 6.5q2 11 4 14t4 8q2 9 3.5 16.5t1.5 18.5q-1 4-0.5 8.5t-1.5 8.5q-2 6-6 10.5t-6 9.5q-2 8-3.5 16t-0.5 16q0 9 0.5 19.5t0.5 21.5q2 15 0 26-4 14-4 18t-4 6q-10-2-21-3.5t-21 1.5q-7 5-15 10t-11 18q-2 8 0.5 17.5t3.5 19.5q1 12 0 22t1 19q2 7 7 10t8 6q16 2 32.5 2.5t32.5-4.5q3-9 13-13t18-1q3 1 4.5 3.5t3.5 4.5q10 4 19.5 2t20.5 0q14-2 28-2.5t28-1.5q5 0 9-0.5t9-4.5q3-19 26-19 4 0 6.5 1.5t6.5 3.5h12q14 2 19.5-0.5t10.5-2.5q9 0 17 4 7 2 11.5 5.5t9.5 5.5q7-1 15.5-0.5t14.5-0.5q17-2 25-7 12-7 8-18 2-10 3-23t-0.5-25-5.5-22-12-14q-5 2-9.5-0.5t-8.5-3.5q-9-2-18.5-1t-19.5 0q-1-7-2.5-12t2.5-9q-3-16-3-28.5t-1.5-24-5-21.5-11.5-16q-4-11-4-21.5t2-20.5 4-20.5 3-21.5q1-5-0.5-10t-2.5-10q-2-29 1-61t-4-67q11-3 20.5-2.5t20.5-3.5q3-2 5.5-3.5t5.5-2.5q7-3 11.5-4.5t6.5-9.5q1-2 1-6t0-8q1-8-0.5-13.5t-2.5-11.5zm-334-12q5 1 9.5 4.5t4.5 7.5q-1 3-7 7t-11 6-7 0-7-3q-2-5-3.5-8.5t-1.5-10.5q11-2 15-3t8 0zm46 401q11-1 15 1.5t8 5.5q1 11 6 22t4 22q-1 8-5 12.5t-7 9.5q-13 3-24 7t-20-7q2-4 5.5-4t7.5-2q6-3 10-14 3-7 2.5-13t-1.5-12q-1-7 0-14.5t-1-13.5zm30-60q1 7 2 14t-4 11q-3 3-9.5 3.5t-9.5-1.5q-3-5-2-10t1-11q9-7 22-6zm321 120q-7-6-9.5 0.5t-1.5 13.5q3 4 7.5 3.5t5.5-5.5q1-3-1-5t-1-7zm-1-22q4-5 4-11.5t-2-13.5-4-13.5-3-11.5q-2-1-4.5-2.5t-6.5-2.5q-4 0-8.5 1.5t-9.5 1.5q-11 3-11.5 7t-0.5 8q17 3 26 15 3 5 3.5 12.5t2.5 12.5q4 3 8 1.5t6-4.5zm-107-329q0 14 0.5 26.5t2.5 27.5q1 9 1 17t1 14q0 6 4 13t11 2q1-2 1-5.5t1-5.5q-2-17-0.5-38t6.5-37q4-4 8-7.5t12-4.5q5-4 3.5-11t-6.5-9q-11 3-22 5t-19 7zm-333-162q6 2 19 0.5t17-9.5q-22-11-41-13t-34 5q-14 6-13.5 18t1.5 22q1 7 1 15.5t1 15.5 4 11.5 10 4.5q5-4 5.5-10.5t1.5-13.5q0-7-1.5-13t-1.5-11q1-13 9-17t22-5z"/><path transform="translate(31.281 14.697) scale(.013672 -.013672)" d="m274 613q-7 2-11 10t-4 16q0 11 2 25t9 19q8-3 13.5 2.5t10.5-0.5q-2-8 2-16t-3-15q-13-4-10.5-15.5t-2.5-22.5zm269 53q-10 11-2 15.5t15-0.5q6 2 10 1t11-2q7-5 5.5-15.5t-9.5-13.5q-3 2-7.5 2.5t-9.5 2.5q-4 2-7 5t-6 5zm-21-564q-16-7-25.5-9.5t-17.5-3.5q-12-2-25-2t-21 8q-10 4-18.5 2t-16.5-6.5-15.5-9.5-16.5-6q-10-2-21-2.5t-22-1.5h-24q-5 0-8.5 1t-7.5-1q-8 2-14.5 1t-13.5 0q-5 0-10.5 0.5t-10.5 0.5q-3 0-6-1t-6-1q-12 2-17 0.5t-10-1.5q-5-1-8.5 0t-7.5 1q-10-1-20-2t-21-1q-8 1-16.5 3.5t-16.5 3.5q-2 1-4.5 3t-4.5 4q-4 2-7.5 4.5t-9.5 3.5q-5 6-10 9-3 8-6 9t-5 3q-2 7-6 12.5t-6 12.5q-2 6-1.5 12t-1.5 11q-2 6-7 10.5t-8 9.5q-4 5-7.5 10.5t-5.5 13.5q-1 7 0 13.5t0 13.5q0 7 0.5 13t1.5 11q0 5 2 11 5 15 5 19.5t4 7.5q13 4 17 7t11 4q3 1 6.5 0t6.5-1q13 1 25.5 3t23.5-3q3-2 6.5-5.5t4.5-6.5q3-6 2.5-12.5t-1.5-14.5q-1-4 0-7.5t1-7.5q-1-5-4-11t-1-14q1-4 4-5.5t6-3.5q3-3 6-7t6-7q5-4 11.5-9t13.5-6q4-1 9-0.5t11 0.5q5 0 9-1t8-1q16-1 34 1t32 4q11 2 19.5 6.5t14.5 9.5q1 8 3.5 14t5.5 12q4 14 2 27.5t0 27.5q2 19-0.5 27t2.5 16q1 3 3 5.5t4 5.5q4 12 6 18t1 14-5 16.5-9 11.5q-8 5-8.5 10.5t-1.5 9.5q0 5 0.5 12t0.5 13q-1 13-1 23t2 21q2 10 3.5 17.5t-1.5 19.5q-4 14-6 17.5t-3 6.5q-2 5-2 16t-1 19q-1 14-2.5 27.5t-0.5 24.5q1 9 5 18t12 11q12-2 18-1t8 2q6 0 11-1.5t12-1.5q5-1 12 0.5t14 2.5q4 0 8-0.5t9-0.5q6 1 12.5 3t12.5 2q6 1 12 0.5t12-0.5q17 2 26.5 2.5t15.5-2.5q4-2 6-6t7-4q5-10 16-14t23-7q4-4 8-8.5t7-9.5q2-3 5-7t3-7q2-5 1-11t-1-11q0-8 2-15.5t2-15.5q-2-11-1.5-15t1.5-9q2-32 5.5-65t5.5-68q-2-11-6-21t-5-22q0-8 2-15.5t4-15.5q2-6 4-11.5t2-10.5q1-8 2-16.5t1-19.5q1-4 0.5-8.5t-0.5-9.5q1-5 2-9.5t0-9.5q-3-18-3.5-30t-4.5-22q-1-3-2.5-6t-3.5-6q-1-3-1.5-6.5t-2.5-5.5q-5-8-11-14.5t-9-15.5q-5 1-7-1.5t-4-4.5q-10-3-13-7t-8-6zm10 184q-1-9 1.5-16.5t9.5-7.5q10 1 10.5 13.5t-5.5 20.5q-12-5-13-6.5t-3-3.5zm-14-112q1-5 0-10.5t2-9.5q5 0 8.5-1.5t8.5-0.5q5 2 7 6.5t7 5.5q1 8 5.5 16t2.5 19q-2 17 1 28t-7 16q-6-7-9-17t-6-20.5-7-19-13-12.5zm-437 28q8 2 11 14t-6 13q-10-2-13-6.5t-3.5-9.5 2-8.5 9.5-2.5zm79-67q4 4 8.5 6.5t4.5 10.5q-11 3-23 5t-19 10q-3 5-6 8.5t-6 7.5q-8-2-14-4-5-6 1.5-12.5t9.5-10.5q10-11 15-18 7-3 12.5-3.5t16.5 0.5zm232 469q5 10-3 15t-16 7q-11-2-16.5 0.5t-11.5-1.5q-1-1-4-6t-3-10q-1-5 0-12.5t1-14.5q0-11 3-19t14-5q8 9 7.5 16.5t3.5 12.5q5 5 12 8.5t13 8.5zm62 13q2 12-9.5 12t-15.5-6q-2-8 1.5-11t8.5-3 10 2.5 5 5.5zm-150-270q-5-10-4.5-11.5t0.5-3.5q-2-6-8.5-9.5t-11.5 4.5q-5 12-3 23.5t2 24.5q0 4-0.5 7t0.5 7q2 20 1 31.5t1 22.5q11-12 11-25t2-26q2-7 5.5-12.5t5.5-13.5q2-9-1-19zm-203-18q0-4-3-5.5t-6-1-5.5 3.5-2.5 7q3 5 10 3t7-7zm49-12q-9-2-15.5 1.5t-4.5 12.5q12 4 19.5 4t13.5-2q8-3 13.5-13.5t7.5-21.5q1-5 0.5-14t-2.5-14q-2-3-6.5-4t-8.5-3q-5 2-6 6t0 9.5 2.5 10.5 0.5 10q-1 7-5 10.5t-9 7.5zm471-63q6-1 10-5.5t6-11.5 2-14-2-13q-3-9-10-7.5t-10 9.5-2.5 17-1.5 17q2 2 3 5.5t5 2.5zm1-75q7 0 8-5.5t7-6.5q4-23 0.5-45t-20.5-30q-19-18-40-24-6-1-12.5-3.5t-11.5-3.5q-3 0-6 0.5t-6 0.5q-14-4-18.5-4t-8.5-2q-5-2-8.5-8t-11.5-4q-5 1-8 10.5t3 13.5q5 2 14 4t13 0q4 2 9.5 4t11.5 0q3 1 6 3.5t7 1.5q9 5 18.5 9.5t18 10.5 14.5 14 8 20q5 8 6.5 20.5t6.5 23.5zm-212-117q6 3 9-0.5t8-4.5q2-3 1.5-7t-1.5-7q-5-5-17-1t-14 8q-3 6 1.5 13t12.5-1z"/><path transform="translate(40.51 14.697) scale(.013672 -.013672)" d="m196 666q-4-1-6.5-3t-7.5 0q-6 6 1 17 4 2 7.5 4t7.5 3q5 3 9 6t10 4q10 6 20 12.5t24 3.5q12-2 14-4.5t0-7.5q-4-2-8.5-2.5t-9.5-2.5q-4-1-7-2.5t-6-3.5q-5-2-11-2t-9-5q-17-5-28-17zm577-506q-10-7-15-15-24-17-48.5-34t-52.5-30q-11-7-18.5-9.5t-15.5-5.5q-4-1-6-3t-4-3q-13-3-18-5t-10-4q-4-1-12-5-12-4-27.5-2.5t-31.5-0.5q-6-1-14-2t-16-3q-8 2-19.5 2t-22.5 1q-7 1-14 3t-15 3q-10 1-20 1.5t-21 3.5q-13-2-22.5 2t-20.5 3q-6 2-13.5 3.5t-14 3.5-11 6-3.5 12q-5 7-14.5 11t-18.5 8q-7 1-12-2t-11-3q-3-1-7.5 0t-8.5 2q-8 2-13.5 5t-13.5 8q-3 2-6 2t-6 2q-8 5-15 10.5t-15 7.5q-15 20-30 38t-24 42q-5 6-7.5 12.5t-5.5 14.5q-2 2-4.5 4t-6.5 4q-9 11-14.5 25t-13.5 25q-4 29-8.5 59.5t7.5 60.5q4 12 10 16.5t8 14.5q1 3 0 7t0 8q2 6 3 13.5t3 14.5q7 14 12.5 28t13.5 25q3 11 12 20 7 7 15 13 5 2 9 2t9 2 10 5.5 10 5.5q10 14 15.5 25t13.5 18q8 6 15 9.5t15 7.5q14 2 20 12 10 4 18.5 4.5t18.5 3.5q8 2 13.5 3.5t11.5 2.5q5 1 9.5 3t9.5 2q8 0 14.5-2t12.5 3q11 3 20 2t20-1q6 0 11.5 0.5t10.5 0.5q4 0 7-1t6-2q4 0 8 0.5t9 0.5q13 0 30.5-2.5t33.5-4.5q7 0 15-2t16-1q20-4 31.5-8t25.5-7q5-1 10-1t7-3q20-8 40-14.5t37-17.5q5-3 10-7t10-6q8-5 16-9t11-11q8-2 13.5-7t12.5-7q8-9 17.5-16.5t14.5-18.5q8-5 12-11t9-11q8-20 16-35.5t9-35.5q5-11 10.5-26t-5.5-26q-3-8-7.5-15.5t-7.5-15.5q-1-5-2-13.5t1-12.5q3-6 10-12t11-13q1-3 1-6t2-5q-4-7-6.5-17.5t-6.5-20.5q-1-10-0.5-10.5t0.5-2.5q-12-22-18-35.5t-16-26.5q-2-4-4.5-8.5t-6.5-8.5q-3-4-7.5-6.5t-4.5-7.5zm-643 341q3 5 3 17t-4 14q-5-2-10.5-5.5t-7.5-9.5q-3-10 1-16 3-3 9.5-3.5t8.5 3.5zm98 106q6 6 6 13-18 2-23-7-11-5-16-15.5t-14-16.5q-4-2-10-5t-11-8q-2-2-3.5-5.5t-1.5-6.5q1-2 4.5-3.5t5.5-1.5q7 0 11 5.5t9 10.5q6 3 10 8t8 9q5 6 12 11.5t13 11.5zm14-449q5 0 8.5 4t3.5 8q1 3-1 5.5t-4 4.5q-4 5-7.5 12.5t-5.5 12.5q-2 6-2 12t0 11.5-1 10-6 8.5q-6-7-5-15.5t-1-19.5q-2-13-1-25.5t6-18.5q2-2 8.5-5.5t7.5-4.5zm347 145q2 15 2.5 29.5t2.5 28.5q2 8 6 15.5t5 15.5q2 13-1.5 26t-4.5 27q0 14 1.5 27t2.5 27q0 5-1.5 7t-1.5 6q-2 5-1.5 9t-1.5 6q-1 2-4.5 5.5t-5.5 5.5q-5 5-13 8t-14 5q-3 4-7.5 7t-6.5 9q-2 1-4.5 3.5t-6.5 2.5q-6 1-10.5-2t-9.5-4q-9 0-10-0.5t-3-0.5q-14 1-17 2t-8 2q-11 2-20.5 2t-16.5 6q-3 2-5 5.5t-4 5.5q-3 1-11 3-11-1-18.5-10t-15.5-11q-12 1-15.5 0.5t-8.5-1.5q-13-2-22-5.5t-19-8.5q-7-8-11-17t-9-21q-2-8-1-14.5t1-11.5q-2-11-3-23.5t-3-23.5q-2-8-3-16.5t-3-16.5q-1-4-1.5-8t-1.5-8q0-17-1.5-22.5t-3.5-11.5q-7-7-10-15.5t-5-16.5q-2-15 1-30.5t4-29.5q1-15 0-27.5t0-25.5q2-4 5.5-5.5t4.5-5.5q7-5 12.5-9t13.5-8q3-2 5.5-3t5.5-3q6-2 11.5-2t10.5-2q3 0 5.5-1t5.5-2q11-2 21.5-3t17.5-5q22-2 39.5-3t37.5-3q13 0 26.5 2t25.5 5q8 2 16.5 4t14.5 6q5 2 12 9.5t11 12.5 5 12.5 3 15.5q1 6 2 11.5t2 10.5q2 12 2 25.5t2 26.5zm174 201q2 11-6.5 17t-15.5 13q-7-3-7-8.5t4.5-10.5 11-8.5 13.5-2.5zm16-89q3-4 2-10t3-8q2 8 7.5 13t7.5 13q2 5 0 11t-3 12q-5 19-12 25-5-15-4.5-28.5t-0.5-27.5zm-632 218q-5-13-15.5-20t-25.5-5q-2 15 9.5 23.5t23.5 11.5q5 4 9.5 7t10.5 3q0-6-5-8.5t-9-6.5zm731-141q2-7 5-15.5t0-16.5q-2-6-5-11.5t-9-7.5q-9 34-21 57.5t-24 47.5q5 6 10.5 3.5t10.5-7.5q6-6 9.5-11.5t8.5-12.5q2-4 4.5-6.5t4.5-6.5q2-2 3-6t3-7zm-413 51q8 2 17.5-1.5t7.5-11.5q-1-5-9.5-7.5t-13.5-0.5q-6 2-9 10.5t7 10.5zm90-14q3 0 5-2.5t4-4.5q3-4 7-11.5t6-15.5 2-16.5-4-15.5q-10-3-18 2-6 8-5 20.5t-4 20.5q-5 9-15.5 9t-18.5 6q1 4-0.5 8.5t2.5 6.5q11-2 21-3.5t18-3.5zm288-321q5-19-5.5-32.5t-18.5-21.5q2-14-4-21.5t-13-14.5q-5-1-13.5-5t-12.5-9q-9-10-16-22.5t-18-20.5q-6-1-14-3t-15 0q-2 1-7 6.5t-4 7.5q0 4 4 6t5 7q5 2 10 2.5t10 3.5q13 12 20.5 14.5t13.5 8.5q5 6 10 11.5t10 10.5q8 8 14.5 14.5t13.5 14.5q5 7 9 14.5t9 15.5q2 4 2.5 7.5t2.5 5.5zm-178-155q5 4 17 6t16-6q2-2 2-6.5t-3-9.5-14.5-6.5-18.5-1.5q-8 2-6.5 11t7.5 13zm-358-8q-6-9-14.5-6.5t-16.5 4.5q-3 1-6.5 0.5t-6.5 0.5q-8 2-15 6.5t-15 6.5q-3 1-7 2.5t-7 4-3.5 5.5 3.5 7q3 4 13 5.5t14-0.5q8-7 9-6.5t3-0.5q7-9 8.5-10t2.5-3q6-8 9.5-8t6.5-1q5-2 10.5-3.5t11.5-3.5zm-268 468q-1-3 0.5-7t0.5-9q-2-7-3-17t-5-15q-2-2-8.5-4.5t-11.5-0.5q-2 2-4.5 6.5t-2.5 6.5q0 6 3 14.5t6 14.5q6 13 12.5 25.5t13.5 22.5q5 6 10 10t10 9q8 0 9.5-8t-3.5-14q-11-7-18.5-18t-8.5-16z"/><path transform="translate(52.814 14.697) scale(.013672 -.013672)" d="m367 646q0 2-4 3.5t-8 3-7.5 4-3.5 5.5 4 4 6 1q8 1 15.5-2.5t13.5-5.5q8-5 12.5-20.5t3.5-28.5q0-4-1.5-9t-1.5-11q0-5 0-10.5t2-8.5q4-8 9-15.5t-1-16.5q-7-4-15.5-1.5t-9.5 10.5q-1 4 0 8.5t1 9.5q0 11-3 24t-3 24-2.5 18.5-6.5 13.5zm300-572q-5-2-8.5-5.5t-8.5-5.5q-7-2-15.5-1t-17.5 0q-9 0-16.5-2t-15.5 1q-3 1-5 3.5t-5 3.5q-14 5-20 6t-14-1q-3-1-5.5-3t-7.5-4q-6-2-11.5-2t-11 1-11.5 1-12-3q-13 5-31 6t-26-11q-8-2-17.5-1t-18.5 1q-3 0-6-1t-5-1q-9 2-13 1.5t-8-0.5q-16 2-24 1t-14 1q-5 1-8 4.5t-7 7-8.5 5.5-10.5 0q-3-1-7.5-4.5t-7.5-5.5q-2-4-3-6.5t-5-4.5q-5-2-10.5-1.5t-10.5-0.5q-13-1-23-3t-21 1q-6-3-12.5-0.5t-11.5-2.5q-6 1-13.5 2t-13.5-2q-5 2-8 5t-6 7q-2 2-5 3.5t-5 3.5-3 5.5-5 4.5q1 7-4.5 11.5t-7.5 11.5q-4 9-4.5 27.5t-0.5 32.5q-1 19-1 40.5t0 41.5q0 8-1.5 16.5t-1.5 16.5q0 6 1 10.5t0 8.5q0 3-1 6t-1 5q0 9 6.5 16.5t3.5 22.5q-1 7-7 11t-8 11-0.5 18 1.5 19q-1 5-1.5 8t-0.5 6q0 11 4 17t10 16q1 20-7 40-2 4-4 7t-3 6q-2 7-2 15t0 17q0 17-2 37t6 35q8 8 20 13t24 9q5-3 14-2t17 1q22-1 35.5 1t26.5 1q8-1 15 0.5t14 1.5q5 0 10-0.5t11-0.5q15 2 29.5 2t29.5 1q6-2 11.5-5.5t7.5-13.5q1-5 0-9.5t-1-8.5q1-5 1.5-11t0.5-14q0-3-0.5-6t-0.5-7q-1-8 0-17.5t2-18.5q1-12 0.5-24t2.5-23q3-12 2.5-15t-0.5-6q0-14 0-27t1-26q1-11 1-16.5t0.5-11.5 0.5-12-3-11q-2-5-5-7.5t-5-6.5q-3-6-4.5-16.5t0.5-18.5q2-5 5-10t5-10q2-8 2-14.5t1-13.5q2-15 5.5-30t3.5-35q5-4 13-7 7 2 14 3t15 2q3 0 6-1t5 0q9 3 11 2t4-1q11 0 21 1.5t19 1.5 12-1.5 7-2.5q2-2 5.5-2.5t5.5-1.5q2-2 4.5-4.5t5.5-3.5q5-2 10-4t12 0q5 1 10.5 4.5t11.5 5.5q5 2 8 1.5t5 3.5q15 1 31 2.5t30-0.5q13-3 17-1.5t7 1.5q7-2 11-9t7-12q-2-10-1-18.5t3-17.5 3.5-18-0.5-19q-3-5-7.5-8.5t-6.5-10.5zm-539 511q-5-10-1.5-19.5t3.5-20.5q6-6 4.5-8.5t-1.5-7.5q1-5 5-9t9-5q5 4 3 9.5t-3 10.5 0.5 16 4.5 13q2 2 5 2t6 2q8 4 9 12.5t-6 15.5q-19-2-26-2.5t-12-8.5zm42-384q1 5-3 10t-6 10q-5 0-8-1t-8-2q-4-5-3.5-12.5t5.5-11.5q7-2 14-0.5t9 7.5zm21-106q8 3 11 10t-2 13q-3 4-8.5 5t-11.5 1.5-11 2-6 6.5q-1 3 0.5 6t2.5 6q0 8-3 15.5t-11 5.5q-6-1-8.5-9t-3.5-13q-2-8-2-12-1-2-2-6t-1-6q1-6 7.5-14t11.5-10q8-2 18-2t19 1zm54 469q8 0 8 10.5t-6 15.5q-6 2-12 3t-14-1q-3-1-8-4t-6-5q-4-10 3.5-15.5t15.5-5.5q5 1 10.5 1.5t8.5 0.5zm-189-127q-11 0-15 4 0 14-2.5 26t-1.5 23q2 12 1 15.5t-1 8.5 1 8 0 7q0 4-1 6.5t-1 5.5q-1 5 1 11t2 11q2 4 6.5 7t8.5-2q0-9 0.5-18t1.5-20q0-9 0-17t3-14q10-15 9-26t-3-19q-2-6-3-10t-6-7zm346-175q4-8 8.5-13t9.5-10q4 1 7.5-0.5t8.5-1.5q5-1 10-0.5t7-4.5q-1-5-0.5-6t-2.5-6q-3-2-5.5-4t-5.5-3q-12 2-17.5-0.5t-11.5-1.5q-7 1-14 3.5t-10 7.5-2.5 9.5 0.5 12.5q1 13-3.5 23.5t-2.5 24.5q5 6 11.5 3.5t8.5-7.5 2-12.5 2-13.5zm-324-173q0-15 6-24t14.5-15 18.5-10.5 18-10.5q0-4 1-7t-1-5q-12-5-24-2-14 8-26 16.5t-19 22.5q-6 11-6.5 28.5t1.5 31.5q12-1 12-10.5t5-14.5zm643-15q4-26-11-38.5t-36-12.5q-7 0-12.5 2t-12.5 1q0 11 7.5 11t9.5 5q15-1 21.5 8.5t12.5 18.5q2 8 0 17.5t2 15.5 8 4 7-7.5 4-13 0-11.5z"/><path transform="translate(62.412 14.697) scale(.013672 -.013672)" d="m95 692q-3-1-6-0.5t-5-0.5q-8-2-17-9.5t-12-16.5q-4-13-5-26t-12-21q-7 10-10 22t3 20q2 4 5.5 5t6.5 3q4 12 2 25-3 2-7 2t-6 3q2 11 13.5 12.5t22.5-0.5q14 5 32 3.5t31-6.5q10 2 19-1t20-1q3 0 5.5 1.5t6.5 2.5q12 4 24-6-3-6-12-8-7-2-15.5-2.5t-15.5-1.5q-11-3-14-2t-5 2q-3 1-5.5 0t-5.5 0q-6 1-13 2.5t-15 0.5zm565-538q2-11-3-17.5t-5-14.5q0-7 5.5-14t4.5-15q-2-6-11.5-13t-14.5-10q-2-2-4.5-4.5t-4.5-2.5q-5-1-10 0.5t-10 2.5q-17 0-36 1t-37 1q-4 0-7-0.5t-7-0.5-8 0.5-9 0.5q-11 0-22.5-1t-22.5 1q-5 3-11.5 8.5t-14.5 3.5q-4-1-7-3.5t-7-3.5q-5-1-12.5 1.5t-15.5 2.5h-11q-5 1-10 3.5t-11 2.5q-11 2-21-1-3 0-6.5-2t-6.5-2q-2-1-6 0.5t-8 2.5q-8 2-15 1.5t-13 0.5q-8 2-13.5 7t-11.5 9q-14 9-27.5 1.5t-21.5-15.5q-17 3-39 0t-41 4q-9 1-17.5 1t-16.5 2-17 12-11 18q-1 3 0 7t0 8q-1 5-2 8.5t-1 7.5l6 12q3 6 5 11t6 10q-4 8-6.5 13t-6.5 12q-4 5-6 7t-2 9q0 8 2 16t4 16 2.5 17.5 1.5 17.5q1 9 1.5 18t2.5 17q2 5 4.5 8.5t2.5 8.5q0 6-3.5 11t-3.5 12q-1 7 0.5 15.5t1.5 16.5q0 4-0.5 7t-0.5 5q2 6 6 10.5t7 11.5q7 14 7.5 29.5t-6.5 28.5q-2 4-6 7t-6 8-0.5 11.5 2.5 14.5q1 10 0.5 20.5t0.5 18.5q3 21 2 34t3 24q2 9 7 15t11 13q15 8 32.5 8.5t35.5-1.5q9-1 23-2.5t24-1.5q5 0 12 0t15-2q5-2 8-6t8-6q3-2 7-3.5t6-2.5q17-3 28 5.5t25 10.5q8-3 16.5-2.5t16.5-0.5q10-1 18.5-3t17.5-2h26q9 0 14-1 3 0 7 1t7 0q12-7 17-6t11-1q3 2 5 5t5 4q5 2 11.5 1t11.5-1q27 0 56-2t55-2q5-3 10-5t7-8q2-9 0-19t-7-15q-4-13 3.5-21t10.5-16q2-17 3.5-23t-3.5-12q-5 0-9.5-2.5t-9.5-2.5q-6-1-12.5 0.5t-13.5 1.5q-20 1-45 2.5t-45 1.5q-15 1-30.5 0t-26.5 1q-3 1-6.5 3.5t-6.5 3.5q-7 2-13-2t-12 1q-14-2-30-0.5t-29-2.5q-5-6-5.5-16.5t-2.5-20.5q-4-12-3.5-14.5t-1.5-4.5q-2-5-5.5-7.5t-4.5-7.5q0-7 5.5-9t8.5-7q-2-8-1-17.5t7-11.5q15 0 21.5-0.5t11.5-0.5q7 0 17 0.5t15-3.5q2-2 3.5-5.5t5.5-6.5q2-1 7-3t9-1q5 1 9 4.5t9 5.5 11.5 1.5 13.5 0.5q14 1 20-0.5t12-2.5q5 0 10.5 0t10.5-1q13-3 29-3.5t29 1.5q9-2 16.5-5.5t10.5-10.5q2-4 4-14.5t0-17.5q-1-5-4-9.5t-3-9.5q-1-7 1.5-14.5t0.5-14.5q-1-4-4-6t-5-5q-9-4-25-1.5t-29 2.5h-13q-10 0-20.5-1t-20.5-2q-6 0-12.5 1t-12.5 1-12.5-1.5-11.5-0.5-9.5 5-9.5 4q-4 0-7-2t-6-3q-19-5-40.5-2.5t-39.5-2.5q-9-22-10.5-45t-2.5-48q7-7 16.5-8.5t19.5-0.5 20.5 2 21.5 0q5 0 10-2t10-2q6-1 11.5-0.5t12.5-0.5q5 0 10-0.5t10-0.5q5-1 11-0.5t11-0.5q6-1 9.5-4.5t8.5-5.5q10-4 20-4 8 0 15.5 4.5t15.5 6.5q5 0 12.5-0.5t14.5-1.5q11-1 22.5-0.5t21-1.5 16-8 8.5-18zm-530 457q0-10-1.5-13.5t-1.5-6.5q0-6-0.5-12t1.5-10q11 3 10.5 6.5t-0.5 6.5q3 14 13.5 20.5t15.5 19.5q-8 10-21 6t-16-17zm-1-383q2 8 1.5 16.5t-4.5 16.5q-8 1-11.5-6t-3.5-15 4.5-13 13.5 1zm-3-97q6-1 15.5-2.5t18-1.5 15 2.5 6.5 10.5q-5 6-14.5 8.5t-18.5 1.5q-7 7-11.5 16.5t-3.5 21.5q-5 5-9 1.5t-6-6.5q-4-5-5.5-14t-3.5-17q-3-15 3.5-17.5t13.5-3.5zm186 434q-2-3-3-8t-1-10 1.5-9.5 5.5-5.5q5-1 6.5 3t5.5 6q3 6 6 11.5t8 10.5q3 3 7.5 5t6.5 6q-13 1-21.5 4t-17.5-6zm-12-319q6 0 7 6.5t-1 12.5q-4-1-8-3t-5-6 1.5-7 5.5-3zm33 79q2 3 4 5t-1 7q-6 2-14.5 4t-12.5-3q-4-10-7-21t-5-22q14 5 22 14.5t14 15.5zm245-226q11-5 21.5-2t12.5 15q-15 10-24.5 4.5t-9.5-17.5zm98 479q-2-4-6.5-4.5t-9.5-1.5q-4 6-6 11.5t0 13.5q1 5 5.5 8.5t4.5 8.5q1 7-2.5 11.5t-3.5 11.5q17 6 20.5-4t2.5-18q0-3-1-6.5t-1-7.5q-1-7-1-13t-2-10zm-651 21q5 1 8 1t5-5q1-16 1-31.5t-7-27.5q-16 2-14 11.5t1 17.5q-7 6-3.5 17t9.5 17zm407-98q-1 7 2.5 10t9 3.5 11-2 7.5-5.5q-2-8-13-9.5t-17 3.5zm-48 13q8 2 22 2.5t19-6.5q-12-11-22.5-14t-15.5-11q-1-8-6-14-9 4-10 10.5t0 13.5 4 12.5 9 6.5zm308-332q6-4 13.5-8.5t2.5-15.5q-12-9-16.5 0t-6.5 19q-2 11-12.5 16t-23.5 7q-7 0-13.5-1.5t-12.5-0.5q-14 4-19.5 4t-10.5 1q-3 0-9-0.5t-11-0.5-8.5 2-1.5 7q14 5 30.5 3.5t33.5-3.5q4-1 11-1 6 1 11.5 3.5t12.5-0.5q3 3 8.5 2t10.5 0q8-4 7.5-6t0.5-5q4-13 3-16t0-6zm-2-45q10-13 10-24t-4-18q-17-5-14 20 0 4 3 12.5t5 9.5z"/></svg>