<svg width="51" height="12" viewBox="0 0 51 12" fill="none" xmlns="http://www.w3.org/2000/svg">
<path d="M3.46 2.96L4 5.37C4.41333 5.30333 4.77 5.24667 5.07 5.2C5.36333 5.14667 5.64333 5.09 5.91 5.03C6.17667 4.97667 6.47333 4.91667 6.8 4.85C6.9 5.00333 6.97 5.17333 7.01 5.36C7.05667 5.55333 7.08 5.74333 7.08 5.93C7.08 6.22333 7.04 6.49667 6.96 6.75C6.88667 7.00333 6.81 7.17333 6.73 7.26C6.65 7.27333 6.56667 7.28 6.48 7.28C6.4 7.28667 6.31667 7.29 6.23 7.29C5.87 7.29 5.51 7.24 5.15 7.14C4.79 7.03333 4.44667 6.89 4.12 6.71L4.09 6.74C4.25667 7.21333 4.4 7.69333 4.52 8.18C4.64 8.66667 4.67667 9.17333 4.63 9.7C4.60333 9.99333 4.46667 10.25 4.22 10.47C3.97333 10.69 3.68333 10.8633 3.35 10.99C3.02333 11.11 2.72 11.17 2.44 11.17C2.15333 11.17 1.88667 11.0933 1.64 10.94C1.39333 10.7933 1.17667 10.6167 0.99 10.41C0.81 10.2033 0.673333 10.0133 0.58 9.84L1.02 8.9H2.62C2.26 7.79333 1.95667 6.86333 1.71 6.11C1.46333 5.36333 1.26333 4.75667 1.11 4.29C0.956667 3.82333 0.84 3.46667 0.76 3.22C0.673333 2.96667 0.613333 2.78667 0.58 2.68C0.546667 2.56667 0.526667 2.49 0.52 2.45C0.513333 2.41 0.506667 2.36333 0.5 2.31C0.5 2.03 0.57 1.71333 0.71 1.36C0.843333 1 1.01667 0.713333 1.23 0.5L4.3 1.14L6.72 0.44C6.94 0.553333 7.1 0.75 7.2 1.03C7.30667 1.31 7.36 1.61333 7.36 1.94C7.36 2.28667 7.3 2.62333 7.18 2.95C7.06 3.27667 6.88667 3.52 6.66 3.68C6.14 3.60667 5.60667 3.50333 5.06 3.37C4.52 3.24333 3.98667 3.10667 3.46 2.96ZM10.23 11.17C10.01 11.17 9.79667 11.15 9.59 11.11C9.37667 11.0633 9.2 10.9733 9.06 10.84C8.98667 10.7733 8.88667 10.6533 8.76 10.48C8.62667 10.3067 8.52 10.11 8.44 9.89C8.36 9.67 8.36 9.46333 8.44 9.27L8.99 7.92L7.76 3.76C7.94667 3.5 8.2 3.30333 8.52 3.17C8.83333 3.03 9.16333 2.96 9.51 2.96C9.88333 2.96 10.2133 3.03333 10.5 3.18L10.45 7.29L10.53 7.3C10.57 7.09333 10.62 6.80667 10.68 6.44C10.74 6.07333 10.8067 5.67667 10.88 5.25C10.9533 4.83 11.0367 4.42333 11.13 4.03C11.2233 3.63667 11.33 3.31333 11.45 3.06C11.5967 3.02 11.74 2.99333 11.88 2.98C12.0267 2.96667 12.1667 2.96 12.3 2.96C12.76 2.96 13.17 3.02333 13.53 3.15C13.8833 3.28333 14.1533 3.41333 14.34 3.54C14.4067 3.98667 14.42 4.46 14.38 4.96C14.3467 5.45333 14.2933 5.92333 14.22 6.37C14.14 6.81667 14.06 7.19333 13.98 7.5C13.66 7.68 13.3467 7.77333 13.04 7.78C12.74 7.78667 12.44 7.75333 12.14 7.68C12.1467 7.54 12.15 7.34667 12.15 7.1C12.15 6.85333 12.15 6.59667 12.15 6.33C12.15 6.06333 12.1467 5.83333 12.14 5.64L11.8 5.59C11.7133 5.85667 11.6133 6.19333 11.5 6.6C11.38 7 11.2633 7.42333 11.15 7.87C11.0367 8.31667 10.9233 8.74667 10.81 9.16L12.06 8.99L12.45 9.91C12.1767 10.35 11.8467 10.67 11.46 10.87C11.0733 11.07 10.6633 11.17 10.23 11.17ZM16.96 11.17C16.8333 11.17 16.7133 11.1367 16.6 11.07C16.48 11.0033 16.35 10.92 16.21 10.82C16.1033 10.74 15.9733 10.6533 15.82 10.56C15.6733 10.4667 15.5433 10.3667 15.43 10.26C15.3167 10.1533 15.26 10.04 15.26 9.92L15.84 7.11L14.78 4.17C14.9067 3.85667 15.1067 3.60333 15.38 3.41C15.6467 3.22333 15.94 3.09 16.26 3.01C16.5867 2.93 16.8867 2.89 17.16 2.89C17.4733 2.89 17.71 2.92667 17.87 3C17.8967 3.25333 17.9133 3.52 17.92 3.8C17.9333 4.08 17.94 4.37 17.94 4.67C17.94 5.33667 17.9167 5.98 17.87 6.6C17.8167 7.22 17.7233 7.84333 17.59 8.47L17.8 8.56C17.9267 8.44 18.0667 8.25333 18.22 8C18.3733 7.75333 18.5233 7.48333 18.67 7.19C18.8167 6.90333 18.9433 6.63333 19.05 6.38C19.1567 6.12667 19.2233 5.93667 19.25 5.81C19.1967 5.15667 19.1567 4.65 19.13 4.29C19.1033 3.93 19.0833 3.66667 19.07 3.5C19.0633 3.33333 19.06 3.21333 19.06 3.14C19.1333 3.09333 19.2767 3.05 19.49 3.01C19.7033 2.97 19.94 2.95 20.2 2.95C21 2.95 21.6333 3.22667 22.1 3.78V3.85C22.1 4.01 22.07 4.29 22.01 4.69C21.9433 5.09 21.8567 5.54667 21.75 6.06C21.6433 6.57333 21.5167 7.08333 21.37 7.59C21.23 8.09667 21.08 8.54 20.92 8.92L22.11 8.3L22.69 9.12C22.53 9.48 22.35 9.81667 22.15 10.13C21.95 10.4433 21.73 10.6933 21.49 10.88C21.25 11.0733 21 11.17 20.74 11.17C20.5267 11.17 20.2967 11.1067 20.05 10.98C19.81 10.8533 19.5933 10.6867 19.4 10.48C19.3333 10.4 19.2567 10.31 19.17 10.21C19.09 10.1033 19.05 9.93667 19.05 9.71C19.05 9.67667 19.05 9.64333 19.05 9.61C19.0567 9.58333 19.06 9.55333 19.06 9.52C19.1 9.17333 19.1367 8.85667 19.17 8.57C19.21 8.28333 19.2533 7.98667 19.3 7.68L19.19 7.63C19.0767 7.93 18.9333 8.28 18.76 8.68C18.58 9.07333 18.3867 9.46 18.18 9.84C17.9733 10.22 17.7667 10.5367 17.56 10.79C17.3467 11.0433 17.1467 11.17 16.96 11.17ZM24.72 11.17C24.6267 11.1567 24.4867 11.1067 24.3 11.02C24.1067 10.9333 23.9167 10.83 23.73 10.71C23.5367 10.5833 23.39 10.45 23.29 10.31C23.31 9.64333 23.3733 8.97333 23.48 8.3C23.5867 7.62667 23.72 7.02667 23.88 6.5C23.68 5.86667 23.5133 5.27 23.38 4.71C23.24 4.15 23.1167 3.57333 23.01 2.98C22.9033 2.39333 22.79 1.73667 22.67 1.01C22.8967 0.73 23.2167 0.493334 23.63 0.3C24.05 0.106667 24.47 0.00666667 24.89 0C25.09 0 25.28 0.0233335 25.46 0.0700002C25.6467 0.123334 25.8167 0.206667 25.97 0.32C25.9967 0.926667 25.9933 1.61667 25.96 2.39C25.9333 3.17 25.8867 3.97667 25.82 4.81C25.76 5.63667 25.69 6.43333 25.61 7.2C25.5233 7.96667 25.44 8.64 25.36 9.22L25.43 9.25C25.75 8.72333 26.05 8.16333 26.33 7.57C26.61 6.97667 26.87 6.39667 27.11 5.83C26.8967 5.65667 26.7033 5.45667 26.53 5.23C26.3633 5.00333 26.2133 4.73667 26.08 4.43C26.2267 4.13 26.44 3.86 26.72 3.62C27 3.38 27.3067 3.18667 27.64 3.04C27.9667 2.88667 28.2767 2.80667 28.57 2.8C28.7767 2.99333 28.97 3.24333 29.15 3.55C29.3233 3.86333 29.4667 4.19 29.58 4.53C29.6867 4.87667 29.7367 5.20333 29.73 5.51C29.6033 5.73 29.3867 6.06333 29.08 6.51C28.78 6.95 28.42 7.41 28 7.89C28.0733 7.99 28.18 8.11667 28.32 8.27C28.46 8.43 28.5833 8.56333 28.69 8.67C28.9633 8.53667 29.2333 8.32667 29.5 8.04L30.31 8.66C30.31 9.02 30.29 9.31 30.25 9.53C30.2167 9.75667 30.1433 9.99 30.03 10.23C29.8767 10.5567 29.6767 10.7967 29.43 10.95C29.1833 11.0967 28.91 11.17 28.61 11.17C28.3967 11.17 28.1667 11.13 27.92 11.05C27.6 10.95 27.3433 10.7333 27.15 10.4C26.95 10.0667 26.7967 9.70667 26.69 9.32C26.3633 9.66667 26.04 10.0033 25.72 10.33C25.4067 10.65 25.0733 10.93 24.72 11.17ZM33.43 11.17C33.2233 11.17 32.99 11.1167 32.73 11.01C32.4767 10.9033 32.23 10.7633 31.99 10.59C31.75 10.4167 31.5533 10.2267 31.4 10.02C31.2467 9.80667 31.1667 9.59667 31.16 9.39C31.16 9.33 31.17 9.24333 31.19 9.13C31.21 9.02333 31.25 8.85 31.31 8.61C31.3767 8.37667 31.4733 8.05333 31.6 7.64L31.26 5.19L30.6 5.15C30.5333 4.96333 30.4933 4.74667 30.48 4.5C30.46 4.25333 30.4567 4.06667 30.47 3.94L31.23 3.67L31.65 1.19C31.7567 1.13 31.9333 1.09 32.18 1.07C32.42 1.05 32.6833 1.06 32.97 1.1C33.2567 1.14 33.51 1.22 33.73 1.34L33.65 3.26L35.17 2.95C35.3567 3.26333 35.4533 3.56667 35.46 3.86C35.46 4.15333 35.4267 4.41333 35.36 4.64C35.2867 4.87333 35.2267 5.05667 35.18 5.19C34.9667 5.20333 34.7133 5.22 34.42 5.24C34.1267 5.26 33.8467 5.27333 33.58 5.28L33.6 8.9L35.07 7.68L35.94 8.64C35.88 8.81333 35.7567 9.03667 35.57 9.31C35.39 9.59 35.1767 9.87333 34.93 10.16C34.6767 10.4467 34.42 10.6867 34.16 10.88C33.9 11.0733 33.6567 11.17 33.43 11.17ZM38.16 11.17C38.0267 11.17 37.9033 11.1367 37.79 11.07C37.67 11.0033 37.54 10.92 37.4 10.82C37.2933 10.74 37.1633 10.6533 37.01 10.56C36.8633 10.4667 36.7333 10.3667 36.62 10.26C36.5067 10.1533 36.45 10.04 36.45 9.92L37.03 7.11L35.97 4.17C36.0967 3.85667 36.2967 3.60333 36.57 3.41C36.8367 3.22333 37.1333 3.09 37.46 3.01C37.78 2.93 38.0767 2.89 38.35 2.89C38.6633 2.89 38.9033 2.92667 39.07 3C39.09 3.25333 39.1067 3.52 39.12 3.8C39.1267 4.08 39.13 4.37 39.13 4.67C39.13 5.33667 39.1067 5.98 39.06 6.6C39.0067 7.22 38.9133 7.84333 38.78 8.47L38.99 8.56C39.1167 8.44 39.2567 8.25333 39.41 8C39.5633 7.75333 39.7133 7.48333 39.86 7.19C40.0067 6.90333 40.1333 6.63333 40.24 6.38C40.3467 6.12667 40.4167 5.93667 40.45 5.81C40.39 5.15667 40.3467 4.65 40.32 4.29C40.2933 3.93 40.2733 3.66667 40.26 3.5C40.2533 3.33333 40.25 3.21333 40.25 3.14C40.3233 3.09333 40.4667 3.05 40.68 3.01C40.8933 2.97 41.1333 2.95 41.4 2.95C42.1933 2.95 42.8233 3.22667 43.29 3.78V3.85C43.29 4.01 43.26 4.29 43.2 4.69C43.14 5.09 43.0533 5.54667 42.94 6.06C42.8333 6.57333 42.71 7.08333 42.57 7.59C42.4233 8.09667 42.27 8.54 42.11 8.92L43.3 8.3L43.88 9.12C43.7267 9.48 43.5467 9.81667 43.34 10.13C43.14 10.4433 42.92 10.6933 42.68 10.88C42.4467 11.0733 42.1967 11.17 41.93 11.17C41.7167 11.17 41.4867 11.1067 41.24 10.98C41 10.8533 40.7867 10.6867 40.6 10.48C40.5267 10.4 40.4467 10.31 40.36 10.21C40.28 10.1033 40.24 9.93667 40.24 9.71C40.24 9.67667 40.24 9.64333 40.24 9.61C40.2467 9.58333 40.25 9.55333 40.25 9.52C40.29 9.17333 40.3267 8.85667 40.36 8.57C40.4 8.28333 40.4433 7.98667 40.49 7.68L40.38 7.63C40.2667 7.93 40.1233 8.28 39.95 8.68C39.77 9.07333 39.5767 9.46 39.37 9.84C39.17 10.22 38.9633 10.5367 38.75 10.79C38.5433 11.0433 38.3467 11.17 38.16 11.17ZM46.4 11.17C46.18 11.17 45.9667 11.15 45.76 11.11C45.5467 11.0633 45.3667 10.9733 45.22 10.84C45.1533 10.7733 45.0567 10.6533 44.93 10.48C44.7967 10.3067 44.69 10.11 44.61 9.89C44.53 9.67 44.53 9.46333 44.61 9.27L45.16 7.92L43.93 3.76C44.1167 3.5 44.3667 3.30333 44.68 3.17C45 3.03 45.3333 2.96 45.68 2.96C46.0533 2.96 46.3833 3.03333 46.67 3.18L46.62 7.29L46.69 7.3C46.7367 7.09333 46.79 6.80667 46.85 6.44C46.91 6.07333 46.9767 5.67667 47.05 5.25C47.1233 4.83 47.2067 4.42333 47.3 4.03C47.3933 3.63667 47.5 3.31333 47.62 3.06C47.7667 3.02 47.91 2.99333 48.05 2.98C48.1967 2.96667 48.3333 2.96 48.46 2.96C48.9267 2.96 49.3367 3.02333 49.69 3.15C50.05 3.28333 50.3233 3.41333 50.51 3.54C50.57 3.98667 50.5833 4.46 50.55 4.96C50.5167 5.45333 50.4633 5.92333 50.39 6.37C50.31 6.81667 50.23 7.19333 50.15 7.5C49.83 7.68 49.5167 7.77333 49.21 7.78C48.91 7.78667 48.61 7.75333 48.31 7.68C48.31 7.54 48.31 7.34667 48.31 7.1C48.31 6.85333 48.31 6.59667 48.31 6.33C48.31 6.06333 48.31 5.83333 48.31 5.64L47.97 5.59C47.8833 5.85667 47.78 6.19333 47.66 6.6C47.5467 7 47.4333 7.42333 47.32 7.87C47.2067 8.31667 47.0933 8.74667 46.98 9.16L48.23 8.99L48.62 9.91C48.34 10.35 48.01 10.67 47.63 10.87C47.2433 11.07 46.8333 11.17 46.4 11.17Z" fill="black"/>
</svg>
