<svg width="69.594" height="20.552" viewBox="0 0 69.594 20.552" xmlns="http://www.w3.org/2000/svg"><path transform="translate(0 14.644) scale(.014 -.014)" d="M512 264H246L200 0H19L146 720H648L620 564H298L273 420H539Z"/><path transform="translate(8.428 14.644) scale(.014 -.014)" d="m504 154q0-26 26.5-26t44.5 10l-5-113q-48-39-108-39-113 0-123 87-60-87-161.5-87t-131.5 46q-20 29-20 66t6 68l56 315h170l-47-266q-3-18-3-36 0-48 54-48 45 0 72 31l57 319h170l-56-315q-1-6-1-12z"/><path transform="translate(17.038 14.644) scale(.014 -.014)" d="m-8-157q0 88 112 153-85 27-85 129 0 25 5 55l20 117q16 90 74 143.5t150.5 53.5 126.5-45l6 32h149l-88-497q-22-127-100.5-201t-179.5-74-145.5 37-44.5 97zm206 359q-2-9-2-25t15-31.5 50.5-15.5 61.5 28l30 168q-14 25-53 25t-61-20-28-54zm7-350q65 0 85 118l10 58q-139-65-139-131 0-20 11.5-32.5t32.5-12.5z"/><path transform="translate(24.836 14.644) scale(.014 -.014)" d="m491 154q0-26 26.5-26t44.5 10l-5-113q-48-39-108-39-110 0-122 80-50-80-147-80-164 0-164 141 0 24 5 53l21 117q16 90 73.5 143.5t150 53.5 125.5-43l5 30h152l-56-315q-1-6-1-12zm-296 48q-2-9-2-25t15-31.5 50.5-15.5 61.5 28l30 168q-11 25-52 25-77 0-90-74z"/><path transform="translate(33.264 14.644) scale(.014 -.014)" d="M443 0H-6L19 140L301 341H54L79 481H528L503 341L230 140H468Z"/><path transform="translate(44.198 14.644) scale(.014 -.014)" d="m408 727q241 0 241-197 0-33-7-71l-35-200q-24-139-104-206t-225-67-202 67q-39 46-39 127 0 36 8 79l35 200q47 268 328 268zm-103-586q50 0 80 26t42 96l34 192q3 20 3 36 0 81-82 81-103-2-123-117l-34-192q-4-25-4-52 0-70 84-70z"/><path transform="translate(53.494 14.644) scale(.014 -.014)" d="m344 307q0 43-41.5 43t-68.5-31l-56-319h-170l85 481h158l-11-59q59 73 149 73t117-44q17-28 17-64t-5-67l-27-154q-1-6-1-11 0-27 30-27 23 0 41 10l-5-113q-47-39-107-39-136 0-136 114 0 20 4 43l24 133q3 18 3 31z"/><path transform="translate(61.866 14.644) scale(.014 -.014)" d="m224-14q-208 0-208 144 0 20 4 43l21 124q17 96 88.5 147.5t189.5 51.5q201 0 201-152 0-22-4-48l-12-71h-305l-4-23q-2-12-2-22 0-55 65-55 24 0 41 15t20 35l166-2q-33-187-261-187zm120 300q4 17 4 31.5t-13 29.5-41.5 15-52-19-32.5-57z"/></svg>