<svg width="24" height="14" viewBox="0 0 24 14" fill="none" xmlns="http://www.w3.org/2000/svg">
<path d="M2.69 9.98C2.46333 9.51333 2.29333 8.94667 2.18 8.28C2.06 7.61333 2 6.91 2 6.17C2 6.03667 2 5.90667 2 5.78C2 5.64667 2.00333 5.51667 2.01 5.39C1.91 5.39667 1.81 5.41 1.71 5.43C1.60333 5.45667 1.50333 5.48 1.41 5.5C1.34333 5.50667 1.23333 5.54 1.08 5.6C0.926667 5.65333 0.826667 5.7 0.78 5.74C0.746667 5.76667 0.71 5.78 0.67 5.78C0.596667 5.78 0.583333 5.71333 0.63 5.58C0.683333 5.44 0.746667 5.34667 0.82 5.3C0.88 5.26667 1 5.22333 1.18 5.17C1.36 5.11667 1.49667 5.08667 1.59 5.08L2.04 5.02C2.08667 4.52 2.16 4.02333 2.26 3.53C2.36 3.04333 2.49333 2.58333 2.66 2.15C2.54 2.19 2.42 2.23333 2.3 2.28C2.18667 2.33333 2.07333 2.38333 1.96 2.43C1.85333 2.49 1.71667 2.56333 1.55 2.65C1.38333 2.73667 1.22 2.82667 1.06 2.92C0.893333 3.01333 0.763333 3.09667 0.67 3.17C0.623333 3.21 0.58 3.23 0.54 3.23C0.513333 3.23 0.5 3.21667 0.5 3.19C0.5 3.11667 0.533333 3.04667 0.6 2.98C0.666667 2.92 0.77 2.84667 0.91 2.76C1.05 2.67333 1.19333 2.58333 1.34 2.49C1.49333 2.39667 1.61 2.33 1.69 2.29C1.85667 2.21 2.03333 2.13333 2.22 2.06C2.40667 1.99333 2.59333 1.92667 2.78 1.86C2.96 1.42667 3.19 1.04333 3.47 0.71C3.61 0.543333 3.8 0.383333 4.04 0.23C4.28667 0.0766667 4.53667 0 4.79 0C4.93667 0 5.07667 0.0466665 5.21 0.14C5.35 0.233333 5.47333 0.386667 5.58 0.6C5.6 0.653333 5.61 0.69 5.61 0.71C5.61 0.783333 5.58667 0.82 5.54 0.82C5.49333 0.82 5.44667 0.783333 5.4 0.71C5.32 0.496666 5.16667 0.39 4.94 0.39C4.73333 0.39 4.51333 0.463333 4.28 0.61C4.04667 0.763333 3.88 0.903334 3.78 1.03C3.69333 1.13667 3.61667 1.24333 3.55 1.35C3.47667 1.46333 3.40333 1.57667 3.33 1.69C3.53667 1.64333 3.74 1.6 3.94 1.56C4.14 1.51333 4.34333 1.47667 4.55 1.45C4.72333 1.43 4.89667 1.41333 5.07 1.4C5.24333 1.38667 5.41333 1.38 5.58 1.38C6.01333 1.38 6.41 1.41667 6.77 1.49C7.13 1.55667 7.42667 1.65667 7.66 1.79C7.74 1.82333 7.82 1.89667 7.9 2.01C7.98 2.11667 8.02 2.22333 8.02 2.33C8.02 2.41 8 2.49 7.96 2.57C7.92667 2.65667 7.85667 2.74 7.75 2.82C7.65667 2.88667 7.58667 2.92 7.54 2.92C7.53333 2.92 7.52667 2.92 7.52 2.92C7.52 2.91333 7.52 2.91 7.52 2.91C7.52 2.88333 7.54667 2.84 7.6 2.78C7.72 2.7 7.78 2.61333 7.78 2.52C7.78 2.41333 7.72667 2.32 7.62 2.24C7.51333 2.15333 7.42667 2.09667 7.36 2.07C6.81333 1.81667 6.13667 1.69 5.33 1.69C5.18333 1.69 5.02667 1.69667 4.86 1.71C4.68667 1.72333 4.52333 1.74 4.37 1.76C4.16333 1.78667 3.96 1.82 3.76 1.86C3.56 1.89333 3.36 1.94 3.16 2C2.92667 2.45333 2.74667 2.93667 2.62 3.45C2.48667 3.96333 2.39667 4.48333 2.35 5.01C2.40333 4.99667 2.46333 4.99 2.53 4.99C2.59 4.99 2.65 4.99 2.71 4.99C3.13 4.99 3.53333 5.01667 3.92 5.07C4.3 5.12333 4.58 5.19667 4.76 5.29C4.87333 5.34333 4.93 5.41333 4.93 5.5C4.93 5.56667 4.88333 5.58 4.79 5.54C4.65667 5.46667 4.44667 5.40667 4.16 5.36C3.88 5.32 3.57667 5.3 3.25 5.3C2.93 5.3 2.62 5.31333 2.32 5.34C2.31333 5.47333 2.30667 5.60667 2.3 5.74C2.29333 5.88 2.29 6.01333 2.29 6.14C2.29 6.79333 2.34667 7.43667 2.46 8.07C2.57333 8.69667 2.72 9.28667 2.9 9.84C2.92667 9.90667 2.94 9.96667 2.94 10.02C2.94 10.0867 2.91667 10.12 2.87 10.12C2.81 10.12 2.75 10.0733 2.69 9.98ZM5.08 8.93C5.04 8.93667 5.00667 8.94333 4.98 8.95C4.95333 8.95667 4.93 8.96 4.91 8.96C4.79 8.96 4.73 8.89667 4.73 8.77C4.73 8.69667 4.75333 8.60333 4.8 8.49L5.25 7.5C5.33 7.31333 5.41667 7.08333 5.51 6.81C5.60333 6.54333 5.65 6.29333 5.65 6.06C5.65 6.02 5.64667 5.97667 5.64 5.93C5.63333 5.88333 5.60667 5.86 5.56 5.86C5.5 5.86 5.43 5.89333 5.35 5.96C5.26333 6.02667 5.2 6.06 5.16 6.06C5.13333 6.06 5.12 6.05 5.12 6.03C5.12 5.97667 5.16333 5.92333 5.25 5.87C5.33 5.81667 5.42333 5.77333 5.53 5.74C5.63 5.7 5.70333 5.68 5.75 5.68C5.88333 5.68 5.98 5.72333 6.04 5.81C6.1 5.89 6.13 5.99 6.13 6.11C6.13 6.24333 6.08667 6.42 6 6.64C5.90667 6.86 5.8 7.09333 5.68 7.34C5.56 7.58667 5.44 7.81667 5.32 8.03C5.2 8.24333 5.10667 8.41333 5.04 8.54C5.01333 8.59333 5 8.63333 5 8.66C5 8.72 5.02667 8.75 5.08 8.75C5.13333 8.75 5.18333 8.73 5.23 8.69C5.38333 8.59 5.57 8.42 5.79 8.18C6.01667 7.94 6.22667 7.68333 6.42 7.41C6.62 7.13667 6.75333 6.9 6.82 6.7C6.84667 6.60667 6.92 6.56 7.04 6.56C7.10667 6.56 7.16333 6.57333 7.21 6.6C7.25667 6.63333 7.28 6.67667 7.28 6.73C7.28 6.75 7.26667 6.79 7.24 6.85C7.22 6.91 7.2 6.95333 7.18 6.98C7.08667 7.21333 6.99 7.44333 6.89 7.67C6.78333 7.89 6.73 8.12333 6.73 8.37C6.73 8.46333 6.74 8.52 6.76 8.54C6.78 8.56667 6.80667 8.58 6.84 8.58C6.92 8.58 7.02333 8.51333 7.15 8.38C7.28333 8.25333 7.41 8.11667 7.53 7.97C7.65 7.82333 7.73 7.72333 7.77 7.67C7.81667 7.60333 7.85667 7.57 7.89 7.57C7.92333 7.57 7.94 7.58 7.94 7.6C7.94 7.63333 7.90667 7.69 7.84 7.77C7.77333 7.84333 7.68 7.96333 7.56 8.13C7.44 8.29667 7.31 8.45333 7.17 8.6C7.03 8.74667 6.89667 8.82 6.77 8.82C6.62333 8.82 6.51 8.77 6.43 8.67C6.35 8.57 6.31 8.45 6.31 8.31C6.31 8.19 6.33667 8.05667 6.39 7.91C6.44333 7.77 6.48667 7.65333 6.52 7.56C6.40667 7.66667 6.26667 7.82 6.1 8.02C5.92667 8.22667 5.75 8.41667 5.57 8.59C5.39 8.77 5.22667 8.88333 5.08 8.93ZM7.73 13.14C7.32333 13.14 7.03333 13.0367 6.86 12.83C6.68 12.63 6.59 12.3733 6.59 12.06C6.59 11.8867 6.62 11.7 6.68 11.5C6.82 11.0067 7.06 10.5867 7.4 10.24C7.74667 9.9 8.15 9.62333 8.61 9.41C9.06333 9.20333 9.52 9.06 9.98 8.98C10.0467 8.62667 10.1 8.3 10.14 8C10.18 7.70667 10.21 7.47 10.23 7.29C10.09 7.43 9.91333 7.59667 9.7 7.79C9.48667 7.99 9.26 8.16667 9.02 8.32C8.78 8.47333 8.54333 8.55 8.31 8.55C8.29667 8.55 8.27333 8.55 8.24 8.55C8.21333 8.55 8.19 8.54667 8.17 8.54C7.91 8.48 7.78 8.33333 7.78 8.1C7.78 7.89333 7.87333 7.64333 8.06 7.35C8.24667 7.05667 8.48667 6.76667 8.78 6.48C9.06667 6.18667 9.37 5.94667 9.69 5.76C10.0167 5.56667 10.31 5.47 10.57 5.47C10.65 5.47 10.71 5.47333 10.75 5.48C10.85 5.5 10.9533 5.55667 11.06 5.65C11.16 5.73667 11.1967 5.84 11.17 5.96C11.17 6.01333 11.1467 6.03333 11.1 6.02C11.0733 6.02 11.06 5.99 11.06 5.93C11.02 5.85667 10.9433 5.81 10.83 5.79L10.51 5.75C10.2967 5.75 10.0667 5.82667 9.82 5.98C9.57333 6.13333 9.33667 6.33 9.11 6.57C8.89 6.81 8.7 7.05667 8.54 7.31C8.38 7.57 8.28 7.79667 8.24 7.99C8.23333 8.01667 8.22667 8.04333 8.22 8.07C8.22 8.10333 8.22 8.13333 8.22 8.16C8.22 8.21333 8.23667 8.26667 8.27 8.32C8.31 8.37333 8.37667 8.4 8.47 8.4C8.59667 8.4 8.74667 8.34667 8.92 8.24C9.08667 8.14 9.26 8.01333 9.44 7.86C9.62 7.71333 9.78333 7.56667 9.93 7.42C10.0767 7.28 10.1833 7.16667 10.25 7.08C10.2633 6.98667 10.28 6.87 10.3 6.73C10.32 6.59 10.3667 6.46333 10.44 6.35C10.5467 6.21 10.6467 6.14 10.74 6.14C10.88 6.14 10.9267 6.23333 10.88 6.42C10.86 6.52667 10.7967 6.64333 10.69 6.77C10.5833 6.90333 10.49 7.01667 10.41 7.11C10.41 7.29667 10.3933 7.55333 10.36 7.88C10.32 8.21333 10.2767 8.56667 10.23 8.94C10.2767 8.93333 10.3167 8.93 10.35 8.93C10.3833 8.93 10.4133 8.93 10.44 8.93C10.56 8.93 10.62 8.94333 10.62 8.97C10.62 9.03667 10.48 9.09333 10.2 9.14C10.1533 9.54 10.09 9.97 10.01 10.43C9.92333 10.8967 9.79333 11.3333 9.62 11.74C9.44667 12.1533 9.21 12.49 8.91 12.75C8.60333 13.01 8.21 13.14 7.73 13.14ZM7.98 12.9C8.33333 12.8667 8.62667 12.71 8.86 12.43C9.09333 12.15 9.28333 11.81 9.43 11.41C9.57 11.0033 9.68333 10.6 9.77 10.2C9.85667 9.8 9.91667 9.46 9.95 9.18C9.53 9.25333 9.11667 9.39 8.71 9.59C8.30333 9.78333 7.94333 10.0433 7.63 10.37C7.32333 10.6967 7.1 11.0933 6.96 11.56C6.9 11.7267 6.87 11.89 6.87 12.05C6.87 12.31 6.95667 12.5267 7.13 12.7C7.30333 12.8733 7.58667 12.94 7.98 12.9ZM10.93 13.14C10.53 13.14 10.24 13.0367 10.06 12.83C9.88667 12.63 9.8 12.3733 9.8 12.06C9.8 11.8867 9.82667 11.7 9.88 11.5C10.02 11.0067 10.2633 10.5867 10.61 10.24C10.9567 9.9 11.3567 9.62333 11.81 9.41C12.27 9.20333 12.73 9.06 13.19 8.98C13.25 8.62667 13.3033 8.3 13.35 8C13.39 7.70667 13.42 7.47 13.44 7.29C13.3 7.43 13.1233 7.59667 12.91 7.79C12.69 7.99 12.4633 8.16667 12.23 8.32C11.99 8.47333 11.7533 8.55 11.52 8.55C11.5 8.55 11.4767 8.55 11.45 8.55C11.4233 8.55 11.4 8.54667 11.38 8.54C11.12 8.48 10.99 8.33333 10.99 8.1C10.99 7.89333 11.0833 7.64333 11.27 7.35C11.4567 7.05667 11.6933 6.76667 11.98 6.48C12.2733 6.18667 12.58 5.94667 12.9 5.76C13.22 5.56667 13.51 5.47 13.77 5.47C13.8567 5.47 13.92 5.47333 13.96 5.48C14.06 5.5 14.16 5.55667 14.26 5.65C14.3667 5.73667 14.4067 5.84 14.38 5.96C14.38 6.01333 14.3567 6.03333 14.31 6.02C14.2767 6.02 14.26 5.99 14.26 5.93C14.2267 5.85667 14.1533 5.81 14.04 5.79L13.72 5.75C13.5067 5.75 13.2733 5.82667 13.02 5.98C12.7733 6.13333 12.54 6.33 12.32 6.57C12.0933 6.81 11.9 7.05667 11.74 7.31C11.5867 7.57 11.49 7.79667 11.45 7.99C11.4433 8.01667 11.4367 8.04333 11.43 8.07C11.4233 8.10333 11.42 8.13333 11.42 8.16C11.42 8.21333 11.44 8.26667 11.48 8.32C11.5133 8.37333 11.5767 8.4 11.67 8.4C11.8033 8.4 11.9533 8.34667 12.12 8.24C12.2867 8.14 12.4633 8.01333 12.65 7.86C12.83 7.71333 12.9933 7.56667 13.14 7.42C13.28 7.28 13.3833 7.16667 13.45 7.08C13.47 6.98667 13.49 6.87 13.51 6.73C13.53 6.59 13.5767 6.46333 13.65 6.35C13.75 6.21 13.8467 6.14 13.94 6.14C14.08 6.14 14.1267 6.23333 14.08 6.42C14.06 6.52667 13.9967 6.64333 13.89 6.77C13.7833 6.90333 13.6933 7.01667 13.62 7.11C13.62 7.29667 13.6 7.55333 13.56 7.88C13.5267 8.21333 13.4867 8.56667 13.44 8.94C13.4867 8.93333 13.5267 8.93 13.56 8.93C13.5933 8.93 13.6233 8.93 13.65 8.93C13.77 8.93 13.83 8.94333 13.83 8.97C13.83 9.03667 13.69 9.09333 13.41 9.14C13.3633 9.54 13.2967 9.97 13.21 10.43C13.13 10.8967 13.0033 11.3333 12.83 11.74C12.6567 12.1533 12.4167 12.49 12.11 12.75C11.81 13.01 11.4167 13.14 10.93 13.14ZM11.18 12.9C11.54 12.8667 11.8367 12.71 12.07 12.43C12.3033 12.15 12.49 11.81 12.63 11.41C12.7767 11.0033 12.8933 10.6 12.98 10.2C13.06 9.8 13.12 9.46 13.16 9.18C12.74 9.25333 12.3267 9.39 11.92 9.59C11.5133 9.78333 11.1533 10.0433 10.84 10.37C10.5267 10.6967 10.3 11.0933 10.16 11.56C10.1067 11.7267 10.08 11.89 10.08 12.05C10.08 12.31 10.1667 12.5267 10.34 12.7C10.5133 12.8733 10.7933 12.94 11.18 12.9ZM15.17 9.33C14.9567 9.33 14.7833 9.24667 14.65 9.08C14.5167 8.91333 14.45 8.66667 14.45 8.34C14.45 7.86667 14.5267 7.34333 14.68 6.77C14.84 6.20333 15.0567 5.63 15.33 5.05C15.5967 4.47 15.9067 3.93667 16.26 3.45C16.6067 2.95667 16.9733 2.55667 17.36 2.25C17.5 2.13667 17.6733 2.03 17.88 1.93C18.08 1.83667 18.27 1.79 18.45 1.79C18.61 1.79 18.7433 1.84333 18.85 1.95C18.9567 2.05667 19.01 2.24667 19.01 2.52C19.01 2.83333 18.9133 3.16667 18.72 3.52C18.52 3.88 18.2633 4.23 17.95 4.57C17.6367 4.91667 17.3 5.24 16.94 5.54C16.5733 5.84 16.2167 6.1 15.87 6.32C15.53 6.54 15.2333 6.69667 14.98 6.79C14.96 6.88333 14.9233 7.06 14.87 7.32C14.81 7.58 14.78 7.84667 14.78 8.12C14.78 8.35333 14.8167 8.55667 14.89 8.73C14.97 8.91 15.11 9.00333 15.31 9.01C15.5633 9.03 15.8167 8.96667 16.07 8.82C16.3233 8.68 16.5667 8.49 16.8 8.25C17.0333 8.01 17.2467 7.76 17.44 7.5C17.5 7.43333 17.5467 7.4 17.58 7.4C17.62 7.4 17.6167 7.43667 17.57 7.51C17.4567 7.67 17.31 7.85333 17.13 8.06C16.9567 8.26667 16.76 8.46667 16.54 8.66C16.32 8.86 16.0933 9.02333 15.86 9.15C15.6267 9.27 15.3967 9.33 15.17 9.33ZM15.08 6.53C15.4867 6.39 15.9033 6.16667 16.33 5.86C16.7567 5.55333 17.1467 5.20333 17.5 4.81C17.8533 4.41667 18.1367 4.02 18.35 3.62C18.5633 3.22 18.67 2.85667 18.67 2.53C18.67 2.31667 18.6367 2.17 18.57 2.09C18.4967 2.01 18.41 1.97 18.31 1.97C18.19 1.97 18.0533 2.01333 17.9 2.1C17.7533 2.18 17.6333 2.26667 17.54 2.36C17.2867 2.56667 17.04 2.83667 16.8 3.17C16.5533 3.51 16.32 3.87667 16.1 4.27C15.8867 4.65667 15.69 5.05 15.51 5.45C15.33 5.84333 15.1867 6.20333 15.08 6.53ZM17.78 9.12C17.6 9.14 17.4567 9.10333 17.35 9.01C17.2433 8.91667 17.19 8.77333 17.19 8.58C17.19 8.37333 17.2367 8.13333 17.33 7.86C17.4233 7.59333 17.5367 7.33333 17.67 7.08C17.7967 6.82667 17.9133 6.62 18.02 6.46C18.0067 6.45333 17.99 6.42333 17.97 6.37C17.9433 6.32333 17.93 6.28 17.93 6.24C17.93 6.2 17.9433 6.18 17.97 6.18C18.0033 6.18 18.0567 6.20333 18.13 6.25C18.1967 6.15 18.2767 6.03 18.37 5.89C18.47 5.75 18.5767 5.62667 18.69 5.52C18.81 5.41333 18.9367 5.36 19.07 5.36C19.21 5.36 19.3 5.43 19.34 5.57C19.38 5.71 19.4 5.82667 19.4 5.92C19.4 6.10667 19.33 6.26 19.19 6.38C19.05 6.5 18.8733 6.57 18.66 6.59C18.5733 6.59 18.4867 6.58 18.4 6.56C18.3133 6.53333 18.26 6.51 18.24 6.49C18.1733 6.62333 18.0833 6.81667 17.97 7.07C17.85 7.31667 17.7433 7.57333 17.65 7.84C17.5567 8.1 17.51 8.31667 17.51 8.49C17.51 8.59667 17.54 8.68667 17.6 8.76C17.66 8.83333 17.7533 8.86667 17.88 8.86C18.0667 8.84 18.27 8.75667 18.49 8.61C18.7033 8.47 18.92 8.29333 19.14 8.08C19.3533 7.87333 19.53 7.66667 19.67 7.46C19.69 7.43333 19.7067 7.42 19.72 7.42C19.74 7.42 19.7567 7.43333 19.77 7.46C19.7767 7.48667 19.7767 7.51 19.77 7.53C19.6367 7.73667 19.4567 7.96 19.23 8.2C18.9967 8.44 18.7533 8.65 18.5 8.83C18.24 9.01 18 9.10667 17.78 9.12ZM18.62 6.42C18.7467 6.4 18.84 6.34333 18.9 6.25C18.9533 6.15667 18.97 6.04667 18.95 5.92C18.95 5.88 18.9433 5.84 18.93 5.8C18.9167 5.76 18.8867 5.74 18.84 5.74C18.76 5.74667 18.6667 5.83333 18.56 6C18.4467 6.16 18.3667 6.27667 18.32 6.35C18.34 6.36333 18.39 6.37667 18.47 6.39C18.55 6.41 18.6 6.42 18.62 6.42ZM20.55 9.07C20.51 9.07 20.4267 9.06333 20.3 9.05C20.18 9.04333 20.11 9.02 20.09 8.98C20.09 8.98 20.08 8.96667 20.06 8.94L20.03 8.89C20.03 8.87 20.06 8.86 20.12 8.86C20.2133 8.86 20.2967 8.85667 20.37 8.85C20.45 8.84333 20.5333 8.84 20.62 8.84C20.7067 8.84 20.81 8.82333 20.93 8.79C21.05 8.76333 21.1567 8.71333 21.25 8.64C21.3433 8.57333 21.39 8.48667 21.39 8.38C21.39 8.31333 21.3633 8.24667 21.31 8.18C21.2633 8.10667 21.2167 8.05333 21.17 8.02C20.9833 7.9 20.7867 7.77 20.58 7.63C20.3733 7.49 20.2 7.32333 20.06 7.13C19.92 6.93667 19.85 6.71333 19.85 6.46C19.85 6.21333 19.93 5.96 20.09 5.7C20.2567 5.44667 20.47 5.21 20.73 4.99C20.99 4.77667 21.2633 4.60333 21.55 4.47C21.8367 4.33667 22.1 4.27 22.34 4.27C22.5 4.27 22.67 4.31333 22.85 4.4C23.0367 4.48667 23.13 4.62333 23.13 4.81C23.13 4.87 23.1067 4.95333 23.06 5.06C23.02 5.16667 22.9667 5.22 22.9 5.22C22.8733 5.22 22.8567 5.20667 22.85 5.18C22.85 5.14667 22.85 5.12333 22.85 5.11C22.85 5.05 22.8533 4.99333 22.86 4.94C22.8667 4.89333 22.87 4.84667 22.87 4.8C22.87 4.63333 22.7867 4.55 22.62 4.55C22.4 4.55 22.1533 4.61333 21.88 4.74C21.6067 4.86 21.3467 5.02333 21.1 5.23C20.8467 5.43667 20.64 5.66667 20.48 5.92C20.32 6.17333 20.24 6.42333 20.24 6.67C20.24 6.87 20.32 7.05 20.48 7.21C20.64 7.37667 20.8233 7.53333 21.03 7.68C21.2433 7.82 21.43 7.95667 21.59 8.09C21.7433 8.21667 21.82 8.35 21.82 8.49C21.82 8.65 21.74 8.77333 21.58 8.86C21.4133 8.94 21.23 8.99667 21.03 9.03C20.83 9.05667 20.67 9.07 20.55 9.07Z" fill="black"/>
</svg>
