<svg width="57" height="15" viewBox="0 0 57 15" fill="none" xmlns="http://www.w3.org/2000/svg">
<path d="M5.23 14.84C4.66333 14.84 4.19 14.7433 3.81 14.55C3.43 14.35 3.14667 14.0967 2.96 13.79C2.77333 13.4833 2.68 13.1667 2.68 12.84C2.68 12.5533 2.75 12.28 2.89 12.02C3.02333 11.7667 3.22333 11.5567 3.49 11.39C3.75667 11.23 4.08 11.15 4.46 11.15C4.56667 11.15 4.63667 11.1667 4.67 11.2C4.71 11.2267 4.73 11.26 4.73 11.3C4.73 11.3533 4.67333 11.4333 4.56 11.54C4.44667 11.6533 4.33333 11.8067 4.22 12C4.1 12.1933 4.04 12.4633 4.04 12.81C4.04 13.1633 4.16333 13.47 4.41 13.73C4.65667 13.9833 5.01 14.11 5.47 14.11C6.05667 14.11 6.51 13.8833 6.83 13.43C7.14333 12.9833 7.3 12.2133 7.3 11.12V9.8C6.96667 10.08 6.59667 10.3033 6.19 10.47C5.78333 10.63 5.33333 10.71 4.84 10.71C3.86 10.71 3.05 10.4833 2.41 10.03C1.77 9.57667 1.29333 8.97 0.98 8.21C0.66 7.45 0.5 6.61 0.5 5.69C0.5 5.02333 0.593333 4.39333 0.78 3.8C0.966667 3.2 1.25333 2.67 1.64 2.21C2.02667 1.74333 2.51 1.37667 3.09 1.11C3.67 0.836666 4.35 0.7 5.13 0.7C5.79667 0.7 6.38 0.793333 6.88 0.98C7.38667 1.16667 7.78333 1.42333 8.07 1.75C8.36333 2.07667 8.51 2.46 8.51 2.9C8.51 3.38667 8.36667 3.78 8.08 4.08C7.79333 4.38667 7.43667 4.54 7.01 4.54C6.86333 4.54 6.77667 4.52667 6.75 4.5C6.73 4.48 6.72 4.43667 6.72 4.37C6.72 4.32333 6.75333 4.25 6.82 4.15C6.89333 4.05667 6.96333 3.92333 7.03 3.75C7.10333 3.57667 7.14 3.36 7.14 3.1C7.14 2.62 6.95667 2.23 6.59 1.93C6.22333 1.63667 5.73667 1.49 5.13 1.49C4.54333 1.49 4.05 1.61667 3.65 1.87C3.25 2.13 2.93 2.46667 2.69 2.88C2.45 3.29333 2.27667 3.74 2.17 4.22C2.06333 4.7 2.01 5.16667 2.01 5.62C2.01 6.38 2.12667 7.08 2.36 7.72C2.59333 8.36 2.93333 8.87 3.38 9.25C3.82 9.63 4.35 9.82 4.97 9.82C5.45 9.82 5.88667 9.73333 6.28 9.56C6.66667 9.39333 7.00667 9.16 7.3 8.86V8.15C7.3 7.71 7.24 7.40667 7.12 7.24C7 7.07333 6.76333 6.94333 6.41 6.85L6.09 6.76L6.25 6.29H9.19L9.38 6.51L9.19 6.76C8.97 7.08 8.81 7.40667 8.71 7.74C8.61 8.08 8.56 8.53333 8.56 9.1V10.73C8.56 11.7167 8.42333 12.5133 8.15 13.12C7.87667 13.7267 7.49333 14.1667 7 14.44C6.5 14.7067 5.91 14.84 5.23 14.84ZM12.82 11.15C12.38 11.15 11.97 11.0233 11.59 10.77C11.2033 10.5167 10.8933 10.1367 10.66 9.63C10.4267 9.13 10.31 8.5 10.31 7.74C10.31 6.93333 10.4567 6.23333 10.75 5.64C11.05 5.05333 11.47 4.60333 12.01 4.29C12.5567 3.97 13.2 3.81 13.94 3.81C14.38 3.81 14.8367 3.86 15.31 3.96C15.79 4.05333 16.2667 4.12 16.74 4.16L16.89 4.34L16.73 4.59C16.67 4.67667 16.6233 4.76 16.59 4.84C16.5567 4.92 16.54 5.02 16.54 5.14V9.72C16.54 10.0067 16.68 10.15 16.96 10.15C17.1933 10.15 17.4267 10.0667 17.66 9.9L17.93 10.26C17.69 10.5333 17.43 10.75 17.15 10.91C16.8767 11.07 16.62 11.15 16.38 11.15C15.9933 11.15 15.7167 11.0333 15.55 10.8C15.3833 10.5667 15.3 10.1867 15.3 9.66C14.9 10.2333 14.4967 10.6233 14.09 10.83C13.6833 11.0433 13.26 11.15 12.82 11.15ZM13.38 10.07C13.7333 10.07 14.0767 9.96667 14.41 9.76C14.7433 9.55333 15.04 9.23 15.3 8.79V5.01C14.8667 4.72333 14.41 4.58 13.93 4.58C13.2433 4.58 12.7133 4.83333 12.34 5.34C11.9667 5.85333 11.78 6.56667 11.78 7.48C11.78 8.11333 11.8567 8.62 12.01 9C12.1567 9.37333 12.3533 9.64667 12.6 9.82C12.8467 9.98667 13.1067 10.07 13.38 10.07ZM22.13 11.15C21.59 11.15 21.0867 11.07 20.62 10.91C20.1533 10.75 19.7833 10.5333 19.51 10.26V1.51C19.51 1.31 19.4167 1.21 19.23 1.21H18.62L18.49 0.84C18.7633 0.6 19.0733 0.4 19.42 0.24C19.7733 0.0799998 20.08 0 20.34 0C20.4667 0 20.5733 0.043333 20.66 0.13C20.7467 0.21 20.79 0.316666 20.79 0.45V9.91C21.0033 10.0633 21.2267 10.1767 21.46 10.25C21.6933 10.3233 21.96 10.36 22.26 10.36C22.88 10.36 23.3733 10.1 23.74 9.58C24.1067 9.05333 24.29 8.35333 24.29 7.48C24.29 6.90667 24.2067 6.40333 24.04 5.97C23.88 5.53667 23.6533 5.2 23.36 4.96C23.0733 4.71333 22.7367 4.59 22.35 4.59C22.0633 4.59 21.86 4.62 21.74 4.68C21.6267 4.74667 21.5333 4.78 21.46 4.78C21.4 4.78 21.35 4.74667 21.31 4.68C21.27 4.61333 21.25 4.54333 21.25 4.47C21.25 4.35667 21.29 4.27333 21.37 4.22C21.6033 4.06667 21.84 3.96 22.08 3.9C22.32 3.84 22.5567 3.81 22.79 3.81C23.3767 3.81 23.8933 3.95333 24.34 4.24C24.7867 4.53333 25.1367 4.93333 25.39 5.44C25.6433 5.94667 25.77 6.53333 25.77 7.2C25.77 7.95333 25.61 8.62667 25.29 9.22C24.9767 9.81333 24.5467 10.2833 24 10.63C23.4533 10.9767 22.83 11.15 22.13 11.15ZM29.7 10.95H27.25L27.1 10.52L27.39 10.45C27.6367 10.39 27.7967 10.2867 27.87 10.14C27.9433 9.98667 27.98 9.74 27.98 9.4V5.46C27.98 5.25333 27.8867 5.15 27.7 5.15H27.09L26.96 4.79C27.2333 4.55 27.5433 4.35 27.89 4.19C28.2433 4.03 28.55 3.95 28.81 3.95C28.9367 3.95 29.0433 3.99333 29.13 4.08C29.2167 4.16 29.26 4.26667 29.26 4.4V5.9H29.34C29.5 5.27333 29.7467 4.76667 30.08 4.38C30.4067 4 30.7667 3.81 31.16 3.81C31.54 3.81 31.8633 3.93667 32.13 4.19C32.39 4.44333 32.52 4.79333 32.52 5.24C32.52 5.59333 32.39 5.89 32.13 6.13C31.8767 6.37667 31.55 6.5 31.15 6.5C30.97 6.5 30.88 6.44667 30.88 6.34C30.88 6.29333 30.9133 6.23 30.98 6.15C31.0467 6.06333 31.11 5.95667 31.17 5.83C31.2367 5.69667 31.27 5.54667 31.27 5.38C31.27 5.21333 31.2267 5.08 31.14 4.98C31.0533 4.88 30.9433 4.83 30.81 4.83C30.6167 4.83 30.3967 4.95333 30.15 5.2C29.91 5.44667 29.7 5.85667 29.52 6.43C29.3467 7.01 29.26 7.79 29.26 8.77C29.26 9.19 29.29 9.52667 29.35 9.78C29.4167 10.04 29.5333 10.2867 29.7 10.52L29.87 10.74L29.7 10.95ZM35.11 11.15C34.7233 11.15 34.4467 11.0333 34.28 10.8C34.1133 10.5667 34.03 10.1867 34.03 9.66V5.32C34.03 5.11333 33.9367 5.01 33.75 5.01H33.13L33.01 4.65C33.2767 4.41 33.5867 4.21 33.94 4.05C34.2867 3.89 34.5933 3.81 34.86 3.81C34.9867 3.81 35.09 3.85333 35.17 3.94C35.25 4.02 35.29 4.12667 35.29 4.26V9.72C35.29 10.0333 35.43 10.19 35.71 10.19C35.9433 10.19 36.1767 10.0933 36.41 9.9L36.68 10.26C36.4333 10.5333 36.17 10.75 35.89 10.91C35.61 11.07 35.35 11.15 35.11 11.15ZM34.69 2.65C34.5833 2.65 34.4633 2.59667 34.33 2.49C34.1967 2.39 34.08 2.27 33.98 2.13C33.88 1.99 33.83 1.86 33.83 1.74C33.83 1.62 33.88 1.48667 33.98 1.34C34.08 1.19333 34.1933 1.07 34.32 0.97C34.4533 0.863333 34.5767 0.81 34.69 0.81C34.81 0.81 34.9367 0.863333 35.07 0.97C35.21 1.07 35.3267 1.19333 35.42 1.34C35.52 1.48667 35.57 1.62 35.57 1.74C35.57 1.86 35.52 1.99 35.42 2.13C35.3267 2.27 35.21 2.39 35.07 2.49C34.9367 2.59667 34.81 2.65 34.69 2.65ZM40.74 11.15C40.0867 11.15 39.52 11 39.04 10.7C38.5533 10.4 38.18 9.98 37.92 9.44C37.6533 8.90667 37.52 8.28 37.52 7.56C37.52 6.80667 37.6667 6.15 37.96 5.59C38.26 5.03 38.6833 4.59333 39.23 4.28C39.7767 3.96667 40.4133 3.81 41.14 3.81C41.68 3.81 42.1267 3.90667 42.48 4.1C42.8267 4.3 43.0867 4.55667 43.26 4.87C43.4333 5.18333 43.52 5.51667 43.52 5.87C43.52 6.25 43.42 6.62333 43.22 6.99C43.02 7.35 42.7233 7.64667 42.33 7.88C41.93 8.11333 41.4367 8.23 40.85 8.23C40.7567 8.23 40.6233 8.22 40.45 8.2C40.2767 8.17333 40.1033 8.13667 39.93 8.09C39.7567 8.03667 39.61 7.96667 39.49 7.88C39.37 7.8 39.31 7.7 39.31 7.58C39.31 7.5 39.33 7.43 39.37 7.37C39.41 7.30333 39.46 7.27 39.52 7.27C39.5933 7.27 39.69 7.3 39.81 7.36C39.9233 7.42 40.1233 7.45 40.41 7.45C40.8167 7.45 41.15 7.37333 41.41 7.22C41.67 7.06667 41.8667 6.86667 42 6.62C42.1267 6.37333 42.19 6.11667 42.19 5.85C42.19 5.51 42.08 5.2 41.86 4.92C41.6333 4.64667 41.3 4.51 40.86 4.51C40.2667 4.51 39.8 4.77 39.46 5.29C39.1267 5.81667 38.96 6.57333 38.96 7.56C38.96 8.38 39.1333 9.03 39.48 9.51C39.8333 9.98333 40.35 10.22 41.03 10.22C41.4233 10.22 41.7933 10.1567 42.14 10.03C42.48 9.89667 42.79 9.69333 43.07 9.42C43.11 9.38667 43.1533 9.37 43.2 9.37C43.2733 9.37 43.3533 9.41333 43.44 9.5C43.52 9.58667 43.56 9.67667 43.56 9.77C43.56 9.81667 43.5433 9.86 43.51 9.9C42.79 10.7333 41.8667 11.15 40.74 11.15ZM46.74 11.15C46.36 11.15 46.0867 11.0333 45.92 10.8C45.7467 10.5667 45.66 10.1867 45.66 9.66V1.51C45.66 1.31 45.5667 1.21 45.38 1.21H44.77L44.64 0.84C44.9133 0.6 45.2233 0.4 45.57 0.24C45.9233 0.0799998 46.23 0 46.49 0C46.6233 0 46.73 0.043333 46.81 0.13C46.8833 0.21 46.92 0.316666 46.92 0.45V9.72C46.92 10.0333 47.06 10.19 47.34 10.19C47.5733 10.19 47.8067 10.0933 48.04 9.9L48.31 10.26C48.07 10.5333 47.81 10.75 47.53 10.91C47.25 11.07 46.9867 11.15 46.74 11.15ZM51.66 11.15C51.22 11.15 50.8067 11.0233 50.42 10.77C50.04 10.5167 49.7333 10.1367 49.5 9.63C49.2667 9.13 49.15 8.5 49.15 7.74C49.15 6.93333 49.2967 6.23333 49.59 5.64C49.8833 5.05333 50.3033 4.60333 50.85 4.29C51.3967 3.97 52.04 3.81 52.78 3.81C53.2133 3.81 53.67 3.86 54.15 3.96C54.6233 4.05333 55.1 4.12 55.58 4.16L55.73 4.34L55.56 4.59C55.5067 4.67667 55.4633 4.76 55.43 4.84C55.3967 4.92 55.38 5.02 55.38 5.14V9.72C55.38 10.0067 55.52 10.15 55.8 10.15C56.0333 10.15 56.2667 10.0667 56.5 9.9L56.77 10.26C56.5233 10.5333 56.2633 10.75 55.99 10.91C55.7167 11.07 55.4567 11.15 55.21 11.15C54.83 11.15 54.5567 11.0333 54.39 10.8C54.2167 10.5667 54.13 10.1867 54.13 9.66C53.73 10.2333 53.3267 10.6233 52.92 10.83C52.5133 11.0433 52.0933 11.15 51.66 11.15ZM52.22 10.07C52.5733 10.07 52.9167 9.96667 53.25 9.76C53.5767 9.55333 53.87 9.23 54.13 8.79V5.01C53.7033 4.72333 53.2467 4.58 52.76 4.58C52.08 4.58 51.5533 4.83333 51.18 5.34C50.8067 5.85333 50.62 6.56667 50.62 7.48C50.62 8.11333 50.6933 8.62 50.84 9C50.9933 9.37333 51.1933 9.64667 51.44 9.82C51.6867 9.98667 51.9467 10.07 52.22 10.07Z" fill="black"/>
</svg>
