<svg width="36" height="14" viewBox="0 0 36 14" fill="none" xmlns="http://www.w3.org/2000/svg">
<path d="M4.68 6.32V5.65H7.11L7.09 9.59C6.31 10.15 5.43333 10.43 4.46 10.43C3.95333 10.43 3.52 10.4 3.16 10.34C2.79333 10.2733 2.43333 10.1467 2.08 9.96C1.72667 9.76667 1.44333 9.50333 1.23 9.17C0.743333 8.43 0.5 7.29333 0.5 5.76C0.5 2.62667 1.88667 1.06 4.66 1.06C5.02 1.06 5.45 1.10333 5.95 1.19C6.45 1.28333 6.85 1.39 7.15 1.51L6.9 2.24C6.23333 2.03333 5.48667 1.93 4.66 1.93C3.45333 1.93 2.62 2.21333 2.16 2.78C1.70667 3.35333 1.48 4.34333 1.48 5.75C1.48 7.36333 1.77667 8.42333 2.37 8.93C2.67 9.18333 2.97667 9.35 3.29 9.43C3.60333 9.51667 3.99 9.56 4.45 9.56C5.20333 9.56 5.79333 9.41333 6.22 9.12V6.32H4.68ZM13.78 6.11L13.77 7.78C13.77 8.04 13.7733 8.28333 13.78 8.51L14.09 10.22L14.11 10.29H13.49L13.43 10.24L13.1 9.43C12.2333 10.03 11.38 10.3433 10.54 10.37C9.94667 10.37 9.49333 10.2133 9.18 9.9C8.87333 9.58667 8.72 9.14667 8.72 8.58C8.72 7.79333 8.93667 7.26 9.37 6.98C9.81 6.7 10.4133 6.56 11.18 6.56C11.2733 6.56 11.8367 6.59 12.87 6.65V5.74C12.87 5.12 12.7567 4.69333 12.53 4.46C12.3033 4.22 11.9833 4.1 11.57 4.1C11.1633 4.1 10.37 4.22667 9.19 4.48L9.07 3.8C10.2233 3.46 11.0533 3.29 11.56 3.29C12.3267 3.29 12.9333 3.52667 13.38 4C13.6467 4.28667 13.78 4.99 13.78 6.11ZM12.87 8.82V7.35L11.4 7.29C10.6533 7.29 10.17 7.36333 9.95 7.51C9.72333 7.66333 9.61 7.96 9.61 8.4C9.61 8.84667 9.68667 9.15 9.84 9.31C9.98667 9.47667 10.2433 9.56 10.61 9.56C10.9833 9.56 11.42 9.48333 11.92 9.33C12.4133 9.18333 12.73 9.01333 12.87 8.82ZM17.02 2.29V3.3C17.02 3.37333 17.2167 3.41 17.61 3.41C18.01 3.41 18.2933 3.41 18.46 3.41C18.6267 3.40333 18.7333 3.4 18.78 3.4L18.66 4.08H17.13C17.0567 4.08 17.02 4.1 17.02 4.14V11.34L16.53 13.07L16.49 13.11H15.84L16.15 11.34V4.17C16.15 4.12333 16.09 4.1 15.97 4.1H15.49L15.51 3.69C15.89 3.51667 16.1033 3.42 16.15 3.4V3.38L16.14 2.29C16.14 1.80333 16.2367 1.39667 16.43 1.07C16.6233 0.736667 16.86 0.5 17.14 0.36C17.6733 0.12 18.1733 0 18.64 0C18.6667 0 18.6967 0 18.73 0L19.02 0.0100002L18.87 0.7C18.8567 0.713334 18.81 0.713334 18.73 0.7C18.65 0.686667 18.5767 0.68 18.51 0.68C18.4367 0.68 18.3233 0.706667 18.17 0.76C18.01 0.813334 17.84 0.88 17.66 0.96C17.4867 1.04667 17.3367 1.20667 17.21 1.44C17.0833 1.67333 17.02 1.95667 17.02 2.29ZM24.75 6.11L24.73 7.78C24.73 8.04 24.7367 8.28333 24.75 8.51L25.05 10.22L25.07 10.29H24.45L24.4 10.24L24.06 9.43C23.1933 10.03 22.34 10.3433 21.5 10.37C20.9133 10.37 20.4633 10.2133 20.15 9.9C19.8367 9.58667 19.68 9.14667 19.68 8.58C19.68 7.79333 19.9 7.26 20.34 6.98C20.7733 6.7 21.3733 6.56 22.14 6.56C22.2333 6.56 22.8 6.59 23.84 6.65V5.74C23.84 5.12 23.7233 4.69333 23.49 4.46C23.2633 4.22 22.9433 4.1 22.53 4.1C22.1233 4.1 21.33 4.22667 20.15 4.48L20.03 3.8C21.1833 3.46 22.0133 3.29 22.52 3.29C23.2867 3.29 23.8933 3.52667 24.34 4C24.6133 4.28667 24.75 4.99 24.75 6.11ZM23.84 8.82V7.35L22.37 7.29C21.6233 7.29 21.1367 7.36333 20.91 7.51C20.6833 7.66333 20.57 7.96 20.57 8.4C20.57 8.84667 20.6467 9.15 20.8 9.31C20.9467 9.47667 21.2067 9.56 21.58 9.56C21.9467 9.56 22.38 9.48333 22.88 9.33C23.38 9.18333 23.7 9.01333 23.84 8.82ZM27.01 8.54V4.14C27.01 4.09333 26.9867 4.07 26.94 4.07H26.38V3.66L27.03 3.4L27.18 2.17H27.9V3.29C27.9267 3.35 28.1167 3.38 28.47 3.38H29.3L29.18 4.04L28.01 4.06C27.9233 4.06 27.88 4.07667 27.88 4.11V8.54L28.25 10.36H27.63L27.57 10.31L27.01 8.54ZM35.34 6.11L35.33 7.78C35.33 8.04 35.3333 8.28333 35.34 8.51L35.65 10.22L35.67 10.29H35.05L34.99 10.24L34.66 9.43C33.7933 10.03 32.94 10.3433 32.1 10.37C31.5067 10.37 31.0533 10.2133 30.74 9.9C30.4333 9.58667 30.28 9.14667 30.28 8.58C30.28 7.79333 30.4967 7.26 30.93 6.98C31.37 6.7 31.9733 6.56 32.74 6.56C32.8333 6.56 33.3967 6.59 34.43 6.65V5.74C34.43 5.12 34.3167 4.69333 34.09 4.46C33.8633 4.22 33.5433 4.1 33.13 4.1C32.7233 4.1 31.93 4.22667 30.75 4.48L30.63 3.8C31.7833 3.46 32.6133 3.29 33.12 3.29C33.8867 3.29 34.4933 3.52667 34.94 4C35.2067 4.28667 35.34 4.99 35.34 6.11ZM34.43 8.82V7.35L32.96 7.29C32.2133 7.29 31.73 7.36333 31.51 7.51C31.2833 7.66333 31.17 7.96 31.17 8.4C31.17 8.84667 31.2467 9.15 31.4 9.31C31.5467 9.47667 31.8033 9.56 32.17 9.56C32.5433 9.56 32.9767 9.48333 33.47 9.33C33.97 9.18333 34.29 9.01333 34.43 8.82Z" fill="black"/>
</svg>
