<svg width="111" height="11" viewBox="0 0 111 11" fill="none" xmlns="http://www.w3.org/2000/svg">
<path d="M7.99 6.4V6.76C7.73 6.82 7.55 6.9 7.45 7C7.34333 7.10667 7.29 7.21333 7.29 7.32V9.51C7.29 9.51 7.22667 9.53667 7.1 9.59C6.98 9.64333 6.83667 9.70333 6.67 9.77C6.51 9.83 6.37 9.88 6.25 9.92C6.12333 9.96 6.06 9.96333 6.06 9.93V7.32C6.06 7.22 5.97667 7.12333 5.81 7.03C5.64333 6.93667 5.29333 6.84667 4.76 6.76V6.4H7.99ZM7.31 2.48C7.35 2.51333 7.32667 2.59667 7.24 2.73C7.15333 2.86333 7.04667 3.00333 6.92 3.15C6.79333 3.29667 6.69333 3.40667 6.62 3.48L6.32 3.42C6.02 3.08667 5.70333 2.86 5.37 2.74C5.03667 2.62667 4.65333 2.57 4.22 2.57C4.04667 2.57 3.82667 2.63 3.56 2.75C3.28667 2.86333 3.01333 3.06 2.74 3.34C2.47333 3.62 2.24667 3.99667 2.06 4.47C1.88 4.94333 1.79 5.53667 1.79 6.25C1.79 7.08333 1.92333 7.77 2.19 8.31C2.46333 8.85 2.81 9.25 3.23 9.51C3.65 9.77 4.08667 9.9 4.54 9.9C5 9.9 5.4 9.83333 5.74 9.7C6.07333 9.56667 6.36 9.38667 6.6 9.16C6.64 9.18 6.71 9.21333 6.81 9.26C6.91667 9.31333 7.02 9.36333 7.12 9.41C7.22 9.45667 7.27667 9.49 7.29 9.51C6.84333 9.88333 6.44667 10.16 6.1 10.34C5.75333 10.5267 5.44 10.65 5.16 10.71C4.88 10.7767 4.6 10.81 4.32 10.81C3.84667 10.81 3.38333 10.7233 2.93 10.55C2.47667 10.3767 2.06667 10.1167 1.7 9.77C1.33333 9.42333 1.04333 8.98667 0.83 8.46C0.61 7.93333 0.5 7.32 0.5 6.62C0.5 5.60667 0.71 4.74 1.13 4.02C1.54333 3.3 2.1 2.74667 2.8 2.36C3.5 1.97333 4.27667 1.78 5.13 1.78C5.33 1.78 5.56333 1.80667 5.83 1.86C6.09667 1.92 6.36 2 6.62 2.1C6.88 2.2 7.11 2.32667 7.31 2.48ZM14.37 6.81C14.2833 6.90333 14.1633 6.99333 14.01 7.08C13.85 7.17333 13.6967 7.24667 13.55 7.3H9.56L9.57 6.64H12.82C12.92 6.64 12.9867 6.62 13.02 6.58C13.06 6.54667 13.08 6.48333 13.08 6.39C13.08 6.22333 13.0433 6.01333 12.97 5.76C12.8967 5.50667 12.7667 5.28 12.58 5.08C12.3867 4.88667 12.1067 4.79 11.74 4.79C11.2067 4.79 10.7967 5.01667 10.51 5.47C10.2167 5.93 10.07 6.51333 10.07 7.22C10.07 7.69333 10.1467 8.12667 10.3 8.52C10.4533 8.92 10.6733 9.23667 10.96 9.47C11.2467 9.71 11.5933 9.83 12 9.83C12.1867 9.83 12.37 9.81 12.55 9.77C12.73 9.73667 12.9367 9.65667 13.17 9.53C13.4033 9.40333 13.6933 9.20333 14.04 8.93C14.1 8.96333 14.1567 9.02 14.21 9.1C14.27 9.17333 14.31 9.23 14.33 9.27C13.9167 9.70333 13.5633 10.03 13.27 10.25C12.97 10.4767 12.6867 10.6267 12.42 10.7C12.1533 10.7733 11.8533 10.81 11.52 10.81C11.04 10.81 10.5933 10.6767 10.18 10.41C9.77333 10.1433 9.44667 9.77 9.2 9.29C8.94667 8.81667 8.82 8.25667 8.82 7.61C8.82 6.99667 8.95 6.42667 9.21 5.9C9.47 5.36667 9.83333 4.93667 10.3 4.61C10.5133 4.46333 10.7733 4.33 11.08 4.21C11.38 4.09667 11.67 4.04 11.95 4.04C12.3967 4.04 12.7733 4.12333 13.08 4.29C13.3867 4.45667 13.6367 4.67667 13.83 4.95C14.0167 5.22333 14.1533 5.52333 14.24 5.85C14.3267 6.17 14.37 6.49 14.37 6.81ZM22.56 10.6H19.45V10.24C20.07 10.0733 20.38 9.93333 20.38 9.82V6.38C20.38 5.84 20.32 5.48333 20.2 5.31C20.0733 5.13 19.86 5.04 19.56 5.04C19.3 5.04 18.9867 5.15667 18.62 5.39C18.2533 5.63 17.85 6.04667 17.41 6.64V9.82C17.41 9.88667 17.4933 9.95667 17.66 10.03C17.8267 10.1033 18.0567 10.1733 18.35 10.24V10.6H15.24V10.24C15.54 10.16 15.7733 10.09 15.94 10.03C16.1 9.96333 16.18 9.89333 16.18 9.82V5.79C16.18 5.55 16.1633 5.37333 16.13 5.26C16.1033 5.15333 16.0233 5.07667 15.89 5.03C15.7567 4.98333 15.54 4.94333 15.24 4.91V4.56C15.5867 4.52 15.9067 4.45333 16.2 4.36C16.4867 4.27333 16.77 4.16667 17.05 4.04L17.31 4.29L17.38 5.75C17.8267 5.19667 18.3033 4.77333 18.81 4.48C19.3167 4.18667 19.7467 4.04 20.1 4.04C20.4933 4.04 20.8433 4.16333 21.15 4.41C21.4567 4.66333 21.61 5.06667 21.61 5.62V9.82C21.61 9.88 21.68 9.94333 21.82 10.01C21.9533 10.07 22.2 10.1467 22.56 10.24V10.6ZM27.27 9.31L27.5 9.71C27 10.0833 26.5433 10.36 26.13 10.54C25.71 10.72 25.38 10.81 25.14 10.81C24.8067 10.81 24.51 10.6733 24.25 10.4C23.9967 10.1267 23.87 9.67 23.87 9.03V4.96H23.01L22.84 4.75L23.38 4.24H23.87V2.64L24.87 1.83L25.1 2.02V4.24H27.29L27.5 4.45C27.4133 4.59 27.3 4.73667 27.16 4.89C27.02 5.04333 26.9033 5.14667 26.81 5.2C26.6967 5.14667 26.53 5.09333 26.31 5.04C26.09 4.98667 25.8167 4.96 25.49 4.96H25.1V8.43C25.1 8.95 25.1533 9.30667 25.26 9.5C25.3733 9.69333 25.5467 9.79 25.78 9.79C25.9467 9.79 26.1433 9.76 26.37 9.7C26.6033 9.63333 26.9033 9.50333 27.27 9.31ZM30.54 1.98C30.54 2.25333 30.4533 2.48333 30.28 2.67C30.1067 2.85667 29.89 2.95 29.63 2.95C29.17 2.95 28.94 2.72 28.94 2.26C28.94 1.98 29.0267 1.75 29.2 1.57C29.3733 1.39 29.5867 1.3 29.84 1.3C30.0533 1.3 30.2233 1.35667 30.35 1.47C30.4767 1.58333 30.54 1.75333 30.54 1.98ZM31.26 10.6H28.15V10.24C28.7767 10.1133 29.09 9.97333 29.09 9.82V6.07C29.09 5.75667 29.0733 5.52333 29.04 5.37C29.0133 5.21667 28.9367 5.11 28.81 5.05C28.6767 4.98333 28.4567 4.93667 28.15 4.91V4.56C28.47 4.50667 28.7967 4.43667 29.13 4.35C29.4633 4.25667 29.76 4.15333 30.02 4.04H30.32V9.82C30.32 9.87333 30.3933 9.94 30.54 10.02C30.6867 10.1 30.9267 10.1733 31.26 10.24V10.6ZM38.99 9.6L39.09 9.97C38.7567 10.19 38.4267 10.3833 38.1 10.55C37.7733 10.7233 37.5567 10.81 37.45 10.81C37.2833 10.81 37.1433 10.7133 37.03 10.52C36.9167 10.3333 36.8433 10.0033 36.81 9.53C36.43 9.89 36.0967 10.1633 35.81 10.35C35.5167 10.53 35.26 10.65 35.04 10.71C34.8133 10.7767 34.6 10.81 34.4 10.81C34.12 10.81 33.8533 10.75 33.6 10.63C33.3467 10.5167 33.14 10.31 32.98 10.01C32.82 9.70333 32.74 9.26333 32.74 8.69V5.79C32.74 5.50333 32.7267 5.29667 32.7 5.17C32.6667 5.03667 32.59 4.95 32.47 4.91C32.35 4.87 32.1533 4.83667 31.88 4.81V4.47C32.2533 4.43 32.58 4.37667 32.86 4.31C33.14 4.25 33.4433 4.16 33.77 4.04L33.97 4.32V8.3C33.97 8.91333 34.0567 9.32667 34.23 9.54C34.3967 9.75333 34.6333 9.86 34.94 9.86C35.2 9.86 35.4767 9.78333 35.77 9.63C36.07 9.47667 36.4167 9.20333 36.81 8.81V5.79C36.81 5.51667 36.79 5.31333 36.75 5.18C36.71 5.04667 36.6233 4.95667 36.49 4.91C36.3567 4.85667 36.15 4.82333 35.87 4.81V4.47C36.2433 4.43 36.5933 4.37 36.92 4.29C37.24 4.21 37.54 4.12667 37.82 4.04L38.04 4.32V8.8C38.04 9.35333 38.0933 9.67 38.2 9.75C38.2467 9.79 38.3333 9.8 38.46 9.78C38.58 9.76 38.7567 9.7 38.99 9.6ZM50.44 10.6H47.35V10.24C47.6767 10.1533 47.9067 10.0767 48.04 10.01C48.18 9.94333 48.25 9.88 48.25 9.82V6.34C48.25 5.78 48.19 5.41333 48.07 5.24C47.95 5.06 47.7567 4.97 47.49 4.97C47.2233 4.97 46.9233 5.10333 46.59 5.37C46.2567 5.63667 45.9267 6.00667 45.6 6.48V9.82C45.6 9.88 45.6667 9.94333 45.8 10.01C45.9267 10.07 46.17 10.1467 46.53 10.24V10.6H43.47V10.24C43.7967 10.1533 44.03 10.0767 44.17 10.01C44.3033 9.94333 44.37 9.88 44.37 9.82V6.34C44.37 5.78 44.3133 5.41333 44.2 5.24C44.0933 5.06 43.9033 4.97 43.63 4.97C43.3567 4.97 43.0633 5.10333 42.75 5.37C42.43 5.63 42.0867 6 41.72 6.48V9.82C41.72 9.97333 42.0267 10.1133 42.64 10.24V10.6H39.55V10.24C39.85 10.16 40.0833 10.09 40.25 10.03C40.41 9.96333 40.49 9.89333 40.49 9.82V5.79C40.49 5.55 40.4733 5.37333 40.44 5.26C40.4067 5.14667 40.3233 5.07 40.19 5.03C40.0567 4.98333 39.8433 4.94333 39.55 4.91V4.56C39.9367 4.50667 40.2667 4.43667 40.54 4.35C40.8133 4.26333 41.0867 4.16 41.36 4.04L41.62 4.29L41.69 5.62C42.13 5.06667 42.5533 4.66333 42.96 4.41C43.3667 4.16333 43.7333 4.04 44.06 4.04C44.4933 4.04 44.8467 4.15 45.12 4.37C45.3933 4.59 45.54 4.95 45.56 5.45L45.57 5.58C45.99 5.05333 46.4033 4.66333 46.81 4.41C47.2233 4.16333 47.5967 4.04 47.93 4.04C48.3567 4.04 48.7233 4.16333 49.03 4.41C49.33 4.66333 49.48 5.06667 49.48 5.62V9.82C49.48 9.88 49.55 9.94333 49.69 10.01C49.83 10.07 50.08 10.1467 50.44 10.24V10.6ZM60.91 8.17C60.91 8.94333 60.6133 9.55667 60.02 10.01C59.42 10.47 58.63 10.7 57.65 10.7C57.3767 10.7 57.0533 10.6933 56.68 10.68C56.3133 10.6667 55.94 10.6533 55.56 10.64C55.1867 10.6267 54.85 10.6133 54.55 10.6L56.24 9.88C56.38 9.95333 56.57 10.0033 56.81 10.03C57.0433 10.0567 57.2633 10.07 57.47 10.07C58.1233 10.07 58.6367 9.91333 59.01 9.6C59.3833 9.28667 59.57 8.87333 59.57 8.36C59.57 8.02667 59.4967 7.69333 59.35 7.36C59.2033 7.02 58.9667 6.74 58.64 6.52C58.32 6.29333 57.8967 6.18 57.37 6.18C57.0633 6.18 56.8 6.19667 56.58 6.23C56.3533 6.26333 56.14 6.3 55.94 6.34L55.87 5.61H56.5C57.1667 5.61 57.6667 5.52667 58 5.36C58.34 5.19333 58.57 4.98333 58.69 4.73C58.81 4.47667 58.87 4.22 58.87 3.96C58.87 3.50667 58.7133 3.13333 58.4 2.84C58.0867 2.54667 57.5033 2.4 56.65 2.4C56.41 2.4 56.1367 2.41333 55.83 2.44C55.5167 2.46667 55.2033 2.5 54.89 2.54C54.5767 2.58 54.2933 2.62 54.04 2.66L53.96 2.19C54.2133 2.12333 54.5133 2.06 54.86 2C55.2133 1.93333 55.58 1.88 55.96 1.84C56.3467 1.8 56.71 1.78 57.05 1.78C58.01 1.78 58.7667 1.94333 59.32 2.27C59.8733 2.60333 60.15 3.05667 60.15 3.63C60.15 4.11667 60.03 4.53667 59.79 4.89C59.5433 5.25 59.2033 5.50667 58.77 5.66C59.1767 5.73333 59.5433 5.88667 59.87 6.12C60.19 6.36 60.4433 6.65333 60.63 7C60.8167 7.35333 60.91 7.74333 60.91 8.17ZM57.25 10.6H54.04V10.24C54.34 10.1733 54.5767 10.1033 54.75 10.03C54.9233 9.95 55.01 9.88 55.01 9.82V2.33L56.31 2.18V9.83C56.31 9.89 56.3833 9.96 56.53 10.04C56.6767 10.12 56.9167 10.19 57.25 10.25V10.6ZM68.28 7.28C68.28 7.74 68.1933 8.18 68.02 8.6C67.8533 9.02 67.6233 9.39667 67.33 9.73C67.03 10.0567 66.6867 10.3167 66.3 10.51C65.92 10.71 65.5167 10.81 65.09 10.81C64.4967 10.81 63.98 10.6667 63.54 10.38C63.1 10.1 62.76 9.71667 62.52 9.23C62.28 8.73667 62.16 8.18 62.16 7.56C62.16 7.11333 62.24 6.68 62.4 6.26C62.56 5.83333 62.7867 5.45333 63.08 5.12C63.3733 4.78667 63.7133 4.52333 64.1 4.33C64.4867 4.13667 64.9067 4.04 65.36 4.04C65.9467 4.04 66.4567 4.18 66.89 4.46C67.33 4.74667 67.67 5.13333 67.91 5.62C68.1567 6.10667 68.28 6.66 68.28 7.28ZM67 7.52C67 7.04 66.91 6.59667 66.73 6.19C66.55 5.78333 66.32 5.45333 66.04 5.2C65.76 4.94667 65.4667 4.82 65.16 4.82C64.72 4.82 64.3767 4.93333 64.13 5.16C63.8833 5.38 63.7067 5.68333 63.6 6.07C63.4933 6.45667 63.44 6.89 63.44 7.37C63.44 7.84333 63.5367 8.28333 63.73 8.69C63.9167 9.09 64.15 9.41333 64.43 9.66C64.7167 9.9 65 10.02 65.28 10.02C65.8933 10.02 66.3333 9.79667 66.6 9.35C66.8667 8.90333 67 8.29333 67 7.52ZM75.42 7.28C75.42 7.74 75.3367 8.18 75.17 8.6C74.9967 9.02 74.7633 9.39667 74.47 9.73C74.17 10.0567 73.83 10.3167 73.45 10.51C73.0633 10.71 72.6567 10.81 72.23 10.81C71.6433 10.81 71.13 10.6667 70.69 10.38C70.25 10.1 69.9067 9.71667 69.66 9.23C69.42 8.73667 69.3 8.18 69.3 7.56C69.3 7.11333 69.38 6.68 69.54 6.26C69.7067 5.83333 69.9333 5.45333 70.22 5.12C70.5133 4.78667 70.8533 4.52333 71.24 4.33C71.6267 4.13667 72.0467 4.04 72.5 4.04C73.0867 4.04 73.6 4.18 74.04 4.46C74.4733 4.74667 74.8133 5.13333 75.06 5.62C75.3 6.10667 75.42 6.66 75.42 7.28ZM74.14 7.52C74.14 7.04 74.05 6.59667 73.87 6.19C73.6967 5.78333 73.47 5.45333 73.19 5.2C72.91 4.94667 72.6133 4.82 72.3 4.82C71.8667 4.82 71.5233 4.93333 71.27 5.16C71.0233 5.38 70.8467 5.68333 70.74 6.07C70.64 6.45667 70.59 6.89 70.59 7.37C70.59 7.84333 70.6833 8.28333 70.87 8.69C71.0567 9.09 71.2933 9.41333 71.58 9.66C71.86 9.9 72.1433 10.02 72.43 10.02C73.0367 10.02 73.4733 9.79667 73.74 9.35C74.0067 8.90333 74.14 8.29333 74.14 7.52ZM82.82 4.24V4.6C82.62 4.62 82.43 4.66 82.25 4.72C82.07 4.78667 81.8833 4.89333 81.69 5.04L78.94 7.21L78.29 7L80.33 5.21C80.5367 5.03 80.6433 4.89667 80.65 4.81C80.6567 4.73 80.6 4.67667 80.48 4.65C80.3667 4.61667 80.23 4.6 80.07 4.6V4.24H82.82ZM79.08 10.6H76.16V10.24C76.4667 10.16 76.7 10.09 76.86 10.03C77.02 9.97 77.1 9.9 77.1 9.82V1.81C77.1 1.54333 77.0767 1.35 77.03 1.23C76.9833 1.11 76.8933 1.03 76.76 0.99C76.62 0.95 76.42 0.916667 76.16 0.89V0.55C76.52 0.49 76.8633 0.416667 77.19 0.33C77.5167 0.25 77.8067 0.14 78.06 0L78.33 0.25V9.82C78.33 9.88667 78.37 9.94667 78.45 10C78.5367 10.0533 78.7467 10.1333 79.08 10.24V10.6ZM83.02 10.08L83.06 10.44C82.7933 10.5 82.52 10.5533 82.24 10.6C81.96 10.6467 81.7733 10.67 81.68 10.67C81.3333 10.67 81.0667 10.55 80.88 10.31L78.3 7L79.17 6.48L81.98 9.75C82.1067 9.90333 82.2467 10 82.4 10.04C82.5467 10.0867 82.7533 10.1 83.02 10.08ZM93.08 4.2C93.08 4.67333 92.9867 5.08667 92.8 5.44C92.6133 5.78667 92.3733 6.07333 92.08 6.3C91.7867 6.52667 91.4767 6.69667 91.15 6.81C90.8233 6.92333 90.5233 6.98 90.25 6.98C89.81 6.98 89.4367 6.91 89.13 6.77L88.95 6.19C89.1367 6.27667 89.3133 6.33333 89.48 6.36C89.6467 6.38667 89.81 6.4 89.97 6.4C90.2433 6.4 90.52 6.32667 90.8 6.18C91.08 6.04 91.3167 5.83 91.51 5.55C91.7033 5.26333 91.8 4.90667 91.8 4.48C91.8 4 91.69 3.61 91.47 3.31C91.2567 3.00333 90.9667 2.77667 90.6 2.63C90.2333 2.47667 89.82 2.4 89.36 2.4C88.88 2.4 88.3833 2.43 87.87 2.49C87.3633 2.54333 86.89 2.60667 86.45 2.68L86.38 2.19C86.84 2.07 87.3733 1.97333 87.98 1.9C88.5867 1.82 89.1767 1.78 89.75 1.78C90.7567 1.78 91.5633 1.98667 92.17 2.4C92.7767 2.82 93.08 3.42 93.08 4.2ZM89.9 10.6H86.45V10.24C86.7567 10.1733 86.9967 10.1033 87.17 10.03C87.3367 9.95 87.42 9.88 87.42 9.82V2.38H88.72V9.82C88.72 9.87333 88.7967 9.93667 88.95 10.01C89.11 10.0833 89.4267 10.16 89.9 10.24V10.6ZM97.29 10.6H94.05V10.24C94.4433 10.1733 94.7067 10.1033 94.84 10.03C94.98 9.96333 95.05 9.89333 95.05 9.82V1.81C95.05 1.54333 95.0267 1.35 94.98 1.23C94.9267 1.11667 94.8333 1.04 94.7 1C94.5667 0.953333 94.3733 0.916667 94.12 0.89V0.55C94.4867 0.49 94.8167 0.42 95.11 0.34C95.41 0.26 95.7133 0.146667 96.02 0L96.28 0.25V9.82C96.28 9.88667 96.3567 9.95667 96.51 10.03C96.6567 10.1033 96.9167 10.1733 97.29 10.24V10.6ZM104.96 9.6L105.06 9.97C104.727 10.19 104.397 10.3833 104.07 10.55C103.743 10.7233 103.523 10.81 103.41 10.81C103.25 10.81 103.113 10.7133 103 10.52C102.887 10.3333 102.813 10.0033 102.78 9.53C102.4 9.89 102.067 10.1633 101.78 10.35C101.487 10.53 101.227 10.65 101 10.71C100.773 10.7767 100.563 10.81 100.37 10.81C100.09 10.81 99.8233 10.75 99.57 10.63C99.3167 10.5167 99.11 10.31 98.95 10.01C98.79 9.70333 98.71 9.26333 98.71 8.69V5.79C98.71 5.50333 98.6933 5.29667 98.66 5.17C98.6333 5.03667 98.56 4.95 98.44 4.91C98.32 4.87 98.1233 4.83667 97.85 4.81V4.47C98.2167 4.43 98.54 4.37667 98.82 4.31C99.1 4.25 99.4033 4.16 99.73 4.04L99.94 4.32V8.3C99.94 8.91333 100.023 9.32667 100.19 9.54C100.363 9.75333 100.6 9.86 100.9 9.86C101.16 9.86 101.44 9.78333 101.74 9.63C102.04 9.47667 102.387 9.20333 102.78 8.81V5.79C102.78 5.51667 102.76 5.31333 102.72 5.18C102.673 5.04667 102.587 4.95667 102.46 4.91C102.327 4.85667 102.12 4.82333 101.84 4.81V4.47C102.207 4.43 102.553 4.37 102.88 4.29C103.207 4.21 103.51 4.12667 103.79 4.04L104.01 4.32V8.8C104.01 9.35333 104.06 9.67 104.16 9.75C104.213 9.79 104.3 9.8 104.42 9.78C104.547 9.76 104.727 9.7 104.96 9.6ZM110.13 8.67C110.13 9.15 110.03 9.53333 109.83 9.82C109.637 10.1067 109.4 10.32 109.12 10.46C108.84 10.6067 108.567 10.7 108.3 10.74C108.027 10.7867 107.813 10.81 107.66 10.81C107.42 10.81 107.133 10.77 106.8 10.69C106.467 10.61 106.15 10.4833 105.85 10.31C105.817 10.29 105.793 10.2133 105.78 10.08C105.767 9.94667 105.763 9.78333 105.77 9.59C105.777 9.39667 105.79 9.20667 105.81 9.02C105.83 8.82667 105.857 8.66667 105.89 8.54L106.27 8.62C106.317 9.04 106.5 9.38667 106.82 9.66C107.14 9.93333 107.523 10.07 107.97 10.07C108.29 10.07 108.547 9.98333 108.74 9.81C108.933 9.63667 109.03 9.4 109.03 9.1C109.03 8.77333 108.89 8.51 108.61 8.31C108.33 8.10333 107.913 7.85333 107.36 7.56C107.1 7.43333 106.857 7.29 106.63 7.13C106.397 6.97 106.203 6.78667 106.05 6.58C105.903 6.37333 105.83 6.12333 105.83 5.83C105.83 5.45 105.933 5.12667 106.14 4.86C106.347 4.59333 106.617 4.39 106.95 4.25C107.283 4.11 107.633 4.04 108 4.04C108.32 4.04 108.667 4.08667 109.04 4.18C109.407 4.27333 109.687 4.4 109.88 4.56C109.913 4.59333 109.91 4.69333 109.87 4.86C109.83 5.02667 109.777 5.2 109.71 5.38C109.637 5.55333 109.573 5.67333 109.52 5.74L109.19 5.68C109.01 5.34 108.803 5.09 108.57 4.93C108.343 4.77 108.107 4.69 107.86 4.69C107.567 4.69 107.337 4.77 107.17 4.93C107.01 5.09 106.93 5.26333 106.93 5.45C106.93 5.71 107.053 5.93 107.3 6.11C107.547 6.29 107.93 6.51333 108.45 6.78C108.717 6.91333 108.977 7.06333 109.23 7.23C109.49 7.39 109.703 7.58333 109.87 7.81C110.043 8.03667 110.13 8.32333 110.13 8.67Z" fill="black"/>
</svg>
