<svg width="110.65" height="20.508" viewBox="0 0 110.65 20.508" xmlns="http://www.w3.org/2000/svg"><path transform="translate(0 15.381) scale(.0068359 -.0068359)" d="m1160 562q-57-13-79.5-36t-22.5-46v-321t-27.5-11.5-63-25.5-62.5-22.5-27-1.5v382q0 22-36.5 42.5t-154.5 39.5v53h473zm-100 626q9-7-10-36.5t-46.5-62-44.5-48.5l-43 9q-66 74-139.5 99.5t-168.5 25.5q-37 0-96.5-26t-119-87-99.5-165-40-260q0-183 59-301.5t151.5-175.5 191.5-57q102 0 175.5 29t125.5 78q9-4 32-14.5t44.5-21 25.5-15.5q-99-81-174.5-121.5t-137.5-54-123-13.5q-103 0-202.5 37.5t-180 113.5-128 191.5-47.5 269.5q0 222 91 380.5t244.5 243 341.5 84.5q44 0 102-12t115-34.5 101-55.5z"/><path transform="translate(8.251 15.381) scale(.0068359 -.0068359)" d="m886 555q-18-21-53-40.5t-67-31.5h-584l2 97h475q23 0 30.5 7.5t7.5 28.5q0 37-15.5 92.5t-57.5 98.5-123 43q-116 0-179.5-100t-63.5-255q0-104 33-191t96-139 152-52q42 0 81.5 8t90.5 36 127 87q13-7 25.5-24t16.5-25q-90-96-155-144.5t-124-64.5-131-16q-106 0-196 58t-144.5 163-54.5 246q0 135 56.5 251t159.5 188q47 33 113.5 58.5t127.5 25.5q98 0 165.5-36.5t109.5-96.5 60.5-131.5 18.5-140.5z"/><path transform="translate(14.82 15.381) scale(.0068359 -.0068359)" d="m668 0v53q137 36 137 61v504q0 118-27 156.5t-93 38.5q-57 0-137.5-51.5t-177.5-182.5v-465q0-15 36.5-31t101.5-30v-53h-455v53q66 17 101.5 31t35.5 30v590q0 52-6.5 76.5t-35.5 34.5-95 18v50q76 10 139.5 29.5t125.5 47.5l37-37 11-214q97 122 208.5 186.5t189.5 64.5q86 0 153.5-55t67.5-176v-615q0-13 29.5-27t108.5-34v-53z"/><path transform="translate(22.682 15.381) scale(.0068359 -.0068359)" d="m696 130q-109-81-200.5-120.5t-144.5-39.5q-74 0-130 59.5t-56 199.5v596h-126l-24 31 78 74h72v234l147 119 33-28v-325h320l31-31q-19-30-50-64t-51-45q-24 12-72.5 23.5t-120.5 11.5h-57v-508q0-114 24-156.5t76-42.5q36 0 86.5 14t130.5 56z"/><path transform="translate(27.624 15.381) scale(.0068359 -.0068359)" d="m418 1261q0-60-38.5-101t-95.5-41q-101 0-101 101 0 61 38.5 101t93.5 40q47 0 75-25t28-75zm-350-1261v53q137 28 137 61v549q0 68-6 102t-34.5 47.5-96.5 20.5v50q70 12 143 32t130 45h44v-846q0-12 32.5-29.5t105.5-31.5v-53z"/><path transform="translate(31.555 15.381) scale(.0068359 -.0068359)" d="m1094 92q-73-48-145-85t-96-37q-36 0-60.5 41.5t-32.5 144.5q-83-79-146.5-119t-113-53.5-92.5-13.5q-62 0-117.5 25t-90.5 92-35 192v425q0 63-6.5 91t-33 37-86.5 15v50q81 9 142.5 23t133.5 40l30-41v-582q0-135 37-182t104-47q57 0 122.5 34t151.5 120v442q0 60-9 89t-38 40-90 14v50q81 9 152.5 26.5t132.5 36.5l32-41v-655q0-122 23-140 11-8 38-3.5t78 26.5z"/><path transform="translate(39.129 15.381) scale(.0068359 -.0068359)" d="m1194 0v53q72 19 101.5 33.5t29.5 27.5v509q0 123-26 161.5t-84 38.5q-59 0-132-58t-145-162v-489q0-13 28.5-27t107.5-34v-53h-448v53q72 19 102 33.5t30 27.5v509q0 123-24.5 161.5t-83.5 38.5q-60 0-129.5-57.5t-150.5-162.5v-489q0-33 135-61v-53h-452v53q66 17 101.5 31t35.5 30v590q0 53-7.5 77.5t-36.5 34-93 17.5v50q85 12 145 31.5t120 45.5l37-37 11-194q97 121 186 176t161 55q95 0 155-48.5t64-158.5l1-19q93 116 182.5 171t162.5 55q95 0 161-55t66-176v-615q0-13 31-27t110-34v-53z"/><path transform="translate(53.648 15.381) scale(.0068359 -.0068359)" d="m1054 356q0-170-131-270t-346-100q-61 0-142 2.5t-163.5 5.5-148.5 6l247 106q31-17 83-22.5t97-5.5q144 0 225.5 68.5t81.5 180.5q0 74-32 147.5t-103 122.5-187 49q-66 0-115.5-7t-93.5-16l-10 107h93q145 0 219.5 36.5t100.5 92 26 112.5q0 100-69 164t-255 64q-53 0-121-5.5t-137-14-125-18.5l-11 69q55 15 132 28.5t161 22.5 159 9q210 0 332-72t122-198q0-107-54-185t-149-112q90-16 161-68t112-129 41-170zm-1006-356v53q67 14 104.5 31t37.5 30v1096l190 21v-1119q0-12 32.5-30t105.5-31v-51z"/><path transform="translate(61.585 15.381) scale(.0068359 -.0068359)" d="m970 485q0-100-37-192t-102-165-149.5-115.5-177.5-42.5q-130 0-226.5 62t-149.5 169-53 243q0 99 35.5 191.5t99.5 166 149 116 184 42.5q129 0 225-62t149-169 53-244zm-187-35q0 106-39 195.5t-100.5 144.5-129.5 55q-96 0-150.5-49t-77.5-133.5-23-189.5 41.5-193.5 103.5-141.5 124-53q134 0 192.5 98t58.5 267z"/><path transform="translate(68.729 15.381) scale(.0068359 -.0068359)" d="m970 485q0-100-37-192t-102-165-149.5-115.5-177.5-42.5q-130 0-226.5 62t-149.5 169-53 243q0 99 35.5 191.5t99.5 166 149 116 184 42.5q129 0 225-62t149-169 53-244zm-187-35q0 106-39 195.5t-100.5 144.5-129.5 55q-96 0-150.5-49t-77.5-133.5-23-189.5 41.5-193.5 103.5-141.5 124-53q134 0 192.5 98t58.5 267z"/><path transform="translate(75.872 15.381) scale(.0068359 -.0068359)" d="m1008 877q-44-4-83.5-17.5t-81.5-46.5l-403-317-95 30 299 263q44 39 45.5 57.5t-23.5 24.5-60 6v53h402zm-974-877v53q66 17 101.5 30t35.5 31v1172q0 59-10.5 85t-40 34.5-86.5 14.5v50q78 14 150 32t128 48l39-36v-1400q0-15 18-26.5t92-34.5v-53zm1009 23q-59-13-120-23t-82-10q-76 0-117 53l-377 483 127 76 411-478q28-33 60.5-42.5t91.5-5.5z"/><path transform="translate(86.064 15.381) scale(.0068359 -.0068359)" d="m1017 936q0-104-41-180.5t-105-126.5-135.5-74.5-132.5-24.5q-96 0-163 30l-26 85q41-19 77.5-24.5t71.5-5.5q60 0 121.5 31t103.5 93 42 156q0 105-47.5 172t-128 99.5-181.5 32.5q-105 0-217-12t-208-29l-11 72q101 26 234.5 43t258.5 17q221 0 354-91t133-263zm-969-936v53q67 14 104.5 31t37.5 30v1089h190v-1089q0-12 34-28t139-33v-53z"/><path transform="translate(93.591 15.381) scale(.0068359 -.0068359)" d="m58 0v53q86 15 116.5 30t30.5 31v1172q0 59-11 84.5t-40.5 34.5-85.5 15v50q81 14 146 31t133 49l38-36v-1400q0-15 33-31t115-30v-53z"/><path transform="translate(97.521 15.381) scale(.0068359 -.0068359)" d="m1094 92q-73-48-145-85t-96-37q-36 0-60.5 41.5t-32.5 144.5q-83-79-146.5-119t-113-53.5-92.5-13.5q-62 0-117.5 25t-90.5 92-35 192v425q0 63-6.5 91t-33 37-86.5 15v50q81 9 142.5 23t133.5 40l30-41v-582q0-135 37-182t104-47q57 0 122.5 34t151.5 120v442q0 60-9 89t-38 40-90 14v50q81 9 152.5 26.5t132.5 36.5l32-41v-655q0-122 23-140 11-8 38-3.5t78 26.5z"/><path transform="translate(105.1 15.381) scale(.0068359 -.0068359)" d="m727 283q0-106-42.5-169t-104-94-121-40.5-93.5-9.5q-53 0-125.5 17.5t-139.5 55.5q-7 4-9.5 33.5t-1.5 71.5 5.5 83.5 12.5 69.5l55-11q10-92 80-152t168-60q71 0 113.5 38t42.5 104q0 71-61.5 115.5t-183.5 108.5q-56 29-107 63.5t-83.5 80.5-32.5 110q0 83 45.5 141.5t118 89.5 153.5 31q70 0 151.5-21t123.5-56q8-7-1-43.5t-24.5-75.5-26.5-53l-49 8q-40 76-90.5 111t-104.5 35q-64 0-100-35.5t-36-76.5q0-57 54.5-96t168.5-98q58-30 114.5-65.5t93.5-85.5 37-125z"/></svg>