<svg width="76.651" height="20.508" viewBox="0 0 76.651 20.508" xmlns="http://www.w3.org/2000/svg"><path transform="translate(0 15.381) scale(.0068359 -.0068359)" d="m1145 567q-57-13-81-36t-24-46v-331t-22.5-11-52.5-24-52.5-20.5-22.5-0.5v387q0 22-42 42.5t-164 39.5v43h461zm-103 621q10-7-7.5-29t-44-47-44.5-41l-33 6q-66 63-141.5 83t-173.5 20q-37 0-99-27t-125-88.5-106-166.5-43-261q0-185 62.5-306.5t159.5-181 198-59.5 180 28 131 77q13-7 45.5-20t38.5-21q-99-81-171-120t-131-51.5-120-12.5q-100 0-197.5 37.5t-177 114-126.5 191.5-47 269q0 222 90.5 380.5t242 243 334.5 84.5q66 0 153.5-26.5t151.5-75.5z"/><path transform="translate(8.1621 15.381) scale(.0068359 -.0068359)" d="m866 557q-18-20-48-37t-62-30h-574l2 90h480q23 0 30.5 7.5t7.5 28.5q0 27-8 67t-29.5 79.5-62.5 66-106 26.5q-80 0-140-47t-93-127.5-33-183.5q0-105 35.5-195.5t102-146 158.5-55.5q42 0 81.5 8.5t90.5 37.5 125 90q13-7 23-20t14-21q-89-97-152-145.5t-118.5-64-124.5-15.5q-102 0-190 57.5t-141.5 161.5-53.5 245q0 135 58.5 255.5t162.5 191.5q44 31 107 55t116 24q98 0 164-38.5t105-99.5 56-131 17-134z"/><path transform="translate(14.629 15.381) scale(.0068359 -.0068359)" d="m670 0v43q140 36 140 61v529q0 122-28.5 159.5t-99.5 37.5q-61 0-150.5-63t-186.5-218v-445q0-15 38-31t102-30v-43h-430v43q66 17 103 31t37 30v607q0 52-7 77t-36 35-97 17v40q68 11 126.5 31.5t113.5 48.5l35-35 11-249q59 89 131.5 152.5t143.5 97.5 123 34q86 0 153.5-53t67.5-166v-637q0-13 30.5-27t109.5-34v-43z"/><path transform="translate(22.354 15.381) scale(.0068359 -.0068359)" d="m676 117q-98-73-188.5-110t-143.5-37q-69 0-121.5 56t-52.5 195v614h-129l-21 28 78 67h72v246l119 104 31-25v-325h327l29-29q-19-28-50-60t-51-41q-24 12-73 23.5t-130 11.5h-52v-528q0-120 24-163.5t84-43.5q35 0 88 14t131 54z"/><path transform="translate(27.173 15.381) scale(.0068359 -.0068359)" d="m390 1261q0-56-33-96.5t-83-40.5q-84 0-84 96 0 57 34 96.5t81 39.5q85 0 85-95zm-320-1261v43q140 28 140 61v566q0 69-6 103t-35 47.5-99 19.5v40q63 12 134 33.5t122 46.5h34v-856q0-12 33.5-29.5t106.5-31.5v-43z"/><path transform="translate(30.967 15.381) scale(.0068359 -.0068359)" d="m1069 82q-73-48-133.5-80t-85.5-32q-35 0-57 46.5t-28 149.5q-83-83-147.5-125t-115.5-56.5-94-14.5q-62 0-116.5 25t-88 92-33.5 192v432q0 64-6.5 91.5t-33.5 36.5-89 15v40q72 9 128.5 24.5t122.5 41.5l28-39v-587q0-140 40.5-192t112.5-52q65 0 134.5 39t157.5 133v449q0 60-9.5 89.5t-39 40-91.5 13.5v40q72 9 138.5 28t121.5 38l30-39v-667q0-61 5-100.5t18-49.5q11-8 40.5-3.5t80.5 26.5z"/><path transform="translate(38.384 15.381) scale(.0068359 -.0068359)" d="m1186 0v43q139 36 139 61v529q0 123-26.5 165t-86.5 42q-66 0-146-71t-156-196v-469q0-13 31-27t110-34v-43h-430v43q139 36 139 61v529q0 123-25.5 165t-87.5 42q-67 0-142-70.5t-160-196.5v-469q0-15 38-31t102-30v-43h-430v43q66 17 103 31t37 30v607q0 53-8 77.5t-37.5 34.5-94.5 17v40q76 12 131 33t109 47l35-35 11-229q89 133 182 198.5t165 65.5q95 0 158.5-50.5t63.5-184.5v-21q84 125 177 190.5t166 65.5q95 0 158.5-53t63.5-166v-637q0-13 31-27t110-34v-43z"/><path transform="translate(52.712 15.381) scale(.0068359 -.0068359)" d="m982 936q0-104-41-179.5t-105-124.5-134-73-129-24q-93 0-161 30l-23 75q41-19 80-24.5t74-5.5q62 0 127.5 32t111 95.5 45.5 157.5q0 110-50.5 178.5t-135.5 100.5-188 32q-105 0-205.5-10.5t-197.5-27.5l-9 62q97 26 222.5 43t246.5 17q215 0 343.5-91t128.5-263zm-932-936v43q68 14 106.5 31t38.5 30v1106h160v-1106q0-12 35.5-28t139.5-33v-43z"/><path transform="translate(60.033 15.381) scale(.0068359 -.0068359)" d="m60 0v43q86 15 118 30t32 31v1192q0 59-11.5 84.5t-42 34.5-86.5 15v40q72 14 132.5 31t121.5 49l36-34v-1412q0-15 34-31t116-30v-43z"/><path transform="translate(63.827 15.381) scale(.0068359 -.0068359)" d="m1069 82q-73-48-133.5-80t-85.5-32q-35 0-57 46.5t-28 149.5q-83-83-147.5-125t-115.5-56.5-94-14.5q-62 0-116.5 25t-88 92-33.5 192v432q0 64-6.5 91.5t-33.5 36.5-89 15v40q72 9 128.5 24.5t122.5 41.5l28-39v-587q0-140 40.5-192t112.5-52q65 0 134.5 39t157.5 133v449q0 60-9.5 89.5t-39 40-91.5 13.5v40q72 9 138.5 28t121.5 38l30-39v-667q0-61 5-100.5t18-49.5q11-8 40.5-3.5t80.5 26.5z"/><path transform="translate(71.244 15.381) scale(.0068359 -.0068359)" d="m700 283q0-106-41.5-169t-101-94-116-40.5-85.5-9.5q-47 0-115 18t-135 55q-6 4-8.5 32.5t-1.5 68.5 5.5 78.5 11.5 60.5l43-11q5-84 76-143t174-59q72 0 118 43.5t46 113.5q0 46-25 78t-79.5 65-143.5 79q-55 29-105 63t-81.5 79.5-31.5 108.5q0 83 43 141t111 88.5 143 30.5q42 0 93-9.5t97.5-26.5 72.5-41q8-7-1.5-39.5t-24.5-66-24-44.5l-39 8q-47 71-99 100t-101 29q-66 0-103.5-39.5t-37.5-80.5q0-55 54-93.5t167-97.5q58-30 114.5-65.5t93.5-85.5 37-125z"/></svg>