<svg width="74.76" height="16.254" viewBox="0 0 74.76 16.254" xmlns="http://www.w3.org/2000/svg"><path transform="translate(0 12.754) scale(.014 -.014)" d="m163 397v-106q0-82 8-100.5t27.5-39 34.5-20.5 38 21 32 38q6 17 7 50h-69v111h199v-351h-97l-12 68q-69-80-102-80t-104.5 65.5-88.5 106.5q-11 26-11 131v106q0 125 20 160t85.5 95 97.5 60q55 0 126-64t90-140l-111-77q-16 54-51 100t-49 46q-25 0-57-49-13-19-13-131z"/><path transform="translate(6.72 12.754) scale(.014 -.014)" d="m404 271v-36h-242q0-60 15-95 5-12 18-24.5t27-12.5 35 24 33 58l103-73q-27-50-82.5-87t-89.5-37-98.5 53-78.5 82.5-14 146 14 146 78.5 82.5 94.5 53 94.5-53 78.5-82.5 14-144.5zm-242 59h114q-3 53-10.5 66.5t-23 26.5-29 13-30.5-26.5-21-79.5z"/><path transform="translate(12.936 12.754) scale(.014 -.014)" d="m197 0h-132v345q0 51-12.5 79.5t-37.5 49.5l110 77q36-30 55-70 74 70 104 70 20 0 61-37t48-81l-107-77q-1 24-11.5 47t-18.5 23q-17 0-59-42z"/><path transform="translate(18.298 12.754) scale(.014 -.014)" d="m418 0h-132v372q0 17-18 35.5t-30.5 18.5-40.5-24v-402h-132v345q0 51-12 79t-38 49l110 77q33-28 49-57 65 58 90 58 15 0 49-22t62-53q79 75 109.5 75t92-55.5 61.5-109.5v-193q0-51 12-79t38-49l-110-77q-72 57-72 162v222q0 17-18 35.5t-29.5 18.5-42.5-25q2-10 2-15z"/><path transform="translate(28.14 12.754) scale(.014 -.014)" d="m410 539v-410q6-35 47-62l-90-77q-13 9-32 32t-32 47q-83-81-116-81-24 0-77.5 53t-66.5 86-13 142.5 13 142.5 66.5 86 77.5 53q35 0 113-72l12 60zm-240-150q-13-18-13-119.5t13-119.5q4-10 16.5-23.5t23.5-13.5 32.5 13.5 28 24.5 7.5 117q0 106-7 118.5t-28.5 26-32.5 13.5-23.5-13-16.5-24z"/><path transform="translate(34.748 12.754) scale(.014 -.014)" d="m197 0h-132v345q0 51-12 79t-38 49l110 77q37-30 55-69 74 70 104.5 70t92-55.5 61.5-109.5v-193q0-51 12-79t38-49l-110-77q-72 57-72 162v222q0 17-18 35.5t-33.5 18.5-57.5-42z"/><path transform="translate(41.79 12.754) scale(.014 -.014)" d="m40 539h132v-346q0-51 12-79t38-49l-110-77q-72 57-72 162zm68.5 209q10.5 0 48.5-32.5t38-44-38.5-44.5-49-33-48.5 32.5-38 44 38.5 44.5 49 33z"/><path transform="translate(44.898 12.754) scale(.014 -.014)" d="m410 539v-410q6-35 47-62l-90-77q-13 9-32 32t-32 47q-83-81-116-81-24 0-77.5 53t-66.5 86-13 142.5 13 142.5 66.5 86 77.5 53q35 0 113-72l12 60zm-240-150q-13-18-13-119.5t13-119.5q4-10 16.5-23.5t23.5-13.5 32.5 13.5 28 24.5 7.5 117q0 106-7 118.5t-28.5 26-32.5 13.5-23.5-13-16.5-24z"/><path transform="translate(55.006 12.754) scale(.014 -.014)" d="m36 160q-11 26-11 131v118q0 105 11 131 17 41 88.5 106.5t107.5 65.5 107.5-65.5 88.5-106.5q11-26 11-131v-118q0-105-11-131-17-41-88.5-106.5t-107.5-65.5-107.5 65.5-88.5 106.5zm265 131v118q0 82-8 100.5t-27.5 39-33.5 20.5-33.5-20.5-27.5-39-8-100.5v-118q0-82 8-100.5t27.5-39 33.5-20.5 33.5 20.5 27.5 39 8 100.5z"/><path transform="translate(61.502 12.754) scale(.014 -.014)" d="m197 0h-132v345q0 51-12 79t-38 49l110 77q37-30 55-69 74 70 104.5 70t92-55.5 61.5-109.5v-193q0-51 12-79t38-49l-110-77q-72 57-72 162v222q0 17-18 35.5t-33.5 18.5-57.5-42z"/><path transform="translate(68.544 12.754) scale(.014 -.014)" d="m404 271v-36h-242q0-60 15-95 5-12 18-24.5t27-12.5 35 24 33 58l103-73q-27-50-82.5-87t-89.5-37-98.5 53-78.5 82.5-14 146 14 146 78.5 82.5 94.5 53 94.5-53 78.5-82.5 14-144.5zm-242 59h114q-3 53-10.5 66.5t-23 26.5-29 13-30.5-26.5-21-79.5z"/></svg>