<svg width="37.338" height="17.227" viewBox="0 0 37.338 17.227" xmlns="http://www.w3.org/2000/svg"><path transform="translate(0 13.398) scale(.0068359 -.0068359)" d="m618 1435q116 0 209.5-35.5t164.5-85.5l-80-120q-60 43-132 72t-162 29q-109 0-178-45.5t-104-124.5q-35-81-42.5-192.5t-7.5-224.5q0-112 7.5-224t42.5-193q35-79 104-124.5t178-45.5 178.5 45.5 103.5 124.5q27 62 37 139.5t12 171.5h-301v140h458q0-148-8-275.5t-53-228.5q-51-115-158.5-186t-268.5-71q-160 0-268 71.5t-159 185.5q-43 97-52 221.5t-9 248.5q0 126 9 251t52 219q53 117 161.5 187t265.5 70z"/><path transform="translate(8.4492 13.398) scale(.0068359 -.0068359)" d="m310 0h-150v1082h150zm-75 1454q46 0 74.5-29.5t28.5-74.5q0-46-28.5-74.5t-74.5-28.5-74.5 28.5-28.5 74.5q0 45 28.5 74.5t74.5 29.5z"/><path transform="translate(11.662 13.398) scale(.0068359 -.0068359)" d="m520 1098q93 0 162-35.5t123-95.5v529h150v-1496h-150v115q-54-60-123-95.5t-162-35.5q-105 0-187 45t-128 115q-54 83-67 177.5t-13 219.5 13 219.5 67 177.5q46 70 128 115t187 45zm20-134q-70 0-121.5-27t-83.5-71q-41-57-50.5-137.5t-9.5-187.5q0-106 9.5-187t50.5-138q32-43 83.5-70.5t121.5-27.5 122 27.5 83 70.5q41 57 50.5 138t9.5 187q0 107-9.5 187.5t-50.5 137.5q-31 44-83 71t-122 27z"/><path transform="translate(19.284 13.398) scale(.0068359 -.0068359)" d="m550 1098q103 0 183.5-35.5t129.5-90.5q56-62 79.5-134t28-147.5 4.5-149.5q0-73-4.5-149t-28-148-79.5-134q-49-55-129.5-90.5t-183.5-35.5-183 35.5-130 90.5q-56 62-79.5 134t-28 148-4.5 149q0 74 4.5 149.5t28 147.5 79.5 134q50 55 130 90.5t183 35.5zm0-134q-67 0-117.5-22t-81.5-57q-57-65-66.5-156.5t-9.5-187.5 9.5-187.5 66.5-156.5q31-35 81.5-57t117.5-22 117.5 22 81.5 57q57 65 66.5 156.5t9.5 187.5-9.5 187.5-66.5 156.5q-31 35-81.5 57t-117.5 22z"/><path transform="translate(26.804 13.398) scale(.0068359 -.0068359)" d="m160 1496h150v-1305q0-16 1.5-32t9.5-27q11-14 35-14 22 0 46 6l24-128q-40-12-92-12-42 0-77 18.5t-59 47.5q-28 35-33 75.5t-5 65.5z"/><path transform="translate(30.126 13.398) scale(.0068359 -.0068359)" d="m530 1098q129 0 227.5-67t141.5-176q27-69 31.5-139t4.5-174v-33h-660q0-73 7.5-153t49.5-139q69-99 218-99 77 0 151 22t135 51l57-124q-72-34-161-58.5t-182-24.5q-120 0-208 45t-138 118q-59 86-69 187t-10 207q0 89 4.5 165.5t32.5 149.5q41 109 139.5 175.5t228.5 66.5zm0-134q-83 0-141-42t-84-107q-16-40-22-86.5t-7-95.5h509q-1 44-6.5 91t-22.5 90q-27 68-86.5 109t-139.5 41z"/></svg>