<svg width="48" height="12" viewBox="0 0 48 12" fill="none" xmlns="http://www.w3.org/2000/svg">
<path d="M6.57 11.23C5.33 11.23 4.25667 11.0033 3.35 10.55C2.43667 10.1033 1.73333 9.47 1.24 8.65C0.746667 7.83 0.5 6.86333 0.5 5.75C0.5 4.67 0.746667 3.72333 1.24 2.91C1.73333 2.09667 2.42667 1.46333 3.32 1.01C4.21333 0.556667 5.25667 0.33 6.45 0.33C6.81 0.33 7.11 0.343334 7.35 0.37C7.59 0.39 7.80333 0.416667 7.99 0.45C8.17667 0.476667 8.38333 0.5 8.61 0.52C8.83667 0.546667 9.12333 0.56 9.47 0.56L9.89 3.36H9.75C9.58333 2.47333 9.20667 1.77667 8.62 1.27C8.04 0.77 7.31667 0.52 6.45 0.52C5.91667 0.52 5.43 0.643334 4.99 0.89C4.55 1.14333 4.17667 1.49333 3.87 1.94C3.56333 2.4 3.32333 2.95333 3.15 3.6C2.97667 4.24 2.89 4.95333 2.89 5.74C2.89 6.53333 2.97333 7.25333 3.14 7.9C3.3 8.54667 3.52667 9.1 3.82 9.56C4.11333 10.02 4.47 10.3733 4.89 10.62C5.30333 10.8733 5.76667 11 6.28 11C6.66 11 7.02667 10.9367 7.38 10.81C7.72667 10.6767 7.99333 10.5133 8.18 10.32V6.75C8.18 6.41 8.08 6.13667 7.88 5.93C7.67333 5.73 7.4 5.63 7.06 5.63H7.02V5.49H11.53V5.63H11.47C11.1367 5.63 10.8667 5.73 10.66 5.93C10.4533 6.13667 10.35 6.41 10.35 6.75V10.32C10.1633 10.5067 9.86667 10.6667 9.46 10.8C9.06 10.9333 8.60333 11.0367 8.09 11.11C7.58333 11.19 7.07667 11.23 6.57 11.23ZM15.48 11.03H11.19V10.89C11.53 10.89 11.8033 10.79 12.01 10.59C12.2233 10.39 12.33 10.1167 12.33 9.77V1.79C12.33 1.45667 12.2233 1.18667 12.01 0.98C11.8033 0.773333 11.53 0.67 11.19 0.67V0.53H12.62C13.1 0.53 13.4633 0.48 13.71 0.38C13.9433 0.273333 14.1067 0.146667 14.2 0H14.34V9.77C14.34 10.1167 14.4467 10.39 14.66 10.59C14.8667 10.79 15.14 10.89 15.48 10.89V11.03ZM19.33 11.23C18.5633 11.23 17.8933 11.0733 17.32 10.76C16.7467 10.4533 16.3 10.02 15.98 9.46C15.6667 8.9 15.51 8.23667 15.51 7.47C15.51 6.71 15.6667 6.05 15.98 5.49C16.3 4.93 16.7467 4.49333 17.32 4.18C17.8933 3.87333 18.5633 3.72 19.33 3.72C20.0967 3.72 20.7633 3.87333 21.33 4.18C21.8967 4.49333 22.34 4.93 22.66 5.49C22.98 6.05 23.14 6.71 23.14 7.47C23.14 8.23667 22.98 8.9 22.66 9.46C22.34 10.02 21.8967 10.4533 21.33 10.76C20.7633 11.0733 20.0967 11.23 19.33 11.23ZM19.31 11.04C19.6367 11.04 19.9167 10.8767 20.15 10.55C20.3833 10.2233 20.5667 9.78667 20.7 9.24C20.8333 8.7 20.9 8.10667 20.9 7.46C20.9 6.76 20.83 6.14 20.69 5.6C20.5567 5.06667 20.37 4.64667 20.13 4.34C19.8967 4.04 19.63 3.89 19.33 3.89C19.01 3.89 18.7333 4.05333 18.5 4.38C18.26 4.70667 18.0733 5.14 17.94 5.68C17.8133 6.22 17.75 6.81333 17.75 7.46C17.75 8.16667 17.82 8.79333 17.96 9.34C18.1 9.88 18.2867 10.3 18.52 10.6C18.76 10.8933 19.0233 11.04 19.31 11.04ZM27.69 11.23C26.9233 11.23 26.2533 11.0733 25.68 10.76C25.1067 10.4533 24.66 10.02 24.34 9.46C24.02 8.9 23.86 8.23667 23.86 7.47C23.86 6.71 24.02 6.05 24.34 5.49C24.66 4.93 25.1067 4.49333 25.68 4.18C26.2533 3.87333 26.9233 3.72 27.69 3.72C28.45 3.72 29.1167 3.87333 29.69 4.18C30.2567 4.49333 30.7 4.93 31.02 5.49C31.3333 6.05 31.49 6.71 31.49 7.47C31.49 8.23667 31.3333 8.9 31.02 9.46C30.7 10.02 30.2567 10.4533 29.69 10.76C29.1167 11.0733 28.45 11.23 27.69 11.23ZM27.67 11.04C27.9967 11.04 28.2767 10.8767 28.51 10.55C28.7433 10.2233 28.9267 9.78667 29.06 9.24C29.1867 8.7 29.25 8.10667 29.25 7.46C29.25 6.76 29.1833 6.14 29.05 5.6C28.9167 5.06667 28.73 4.64667 28.49 4.34C28.25 4.04 27.9833 3.89 27.69 3.89C27.37 3.89 27.09 4.05333 26.85 4.38C26.6167 4.70667 26.4333 5.14 26.3 5.68C26.1667 6.22 26.1 6.81333 26.1 7.46C26.1 8.16667 26.17 8.79333 26.31 9.34C26.45 9.88 26.64 10.3 26.88 10.6C27.12 10.8933 27.3833 11.04 27.67 11.04ZM35.47 11.23C34.8367 11.23 34.2733 11.0733 33.78 10.76C33.28 10.4467 32.8933 10.01 32.62 9.45C32.3467 8.89 32.21 8.25 32.21 7.53C32.21 6.78333 32.3633 6.12333 32.67 5.55C32.9767 4.97667 33.4 4.53 33.94 4.21C34.4733 3.88333 35.0767 3.72 35.75 3.72C36.5367 3.72 37.1867 3.93333 37.7 4.36C38.22 4.78667 38.53 5.36333 38.63 6.09L36.95 7.03C36.95 6.07667 36.83 5.32 36.59 4.76C36.35 4.20667 36.01 3.93 35.57 3.93C35.27 3.93 35.01 4.05333 34.79 4.3C34.57 4.54 34.4033 4.86667 34.29 5.28C34.17 5.68667 34.11 6.14333 34.11 6.65C34.11 7.29 34.21 7.85667 34.41 8.35C34.6033 8.83667 34.8767 9.22 35.23 9.5C35.5833 9.77333 36.0033 9.91 36.49 9.91C36.9367 9.91 37.3633 9.79667 37.77 9.57C38.1767 9.35 38.51 9.04667 38.77 8.66L38.91 8.71C38.7567 9.21 38.5067 9.65 38.16 10.03C37.8133 10.41 37.41 10.7033 36.95 10.91C36.4833 11.1233 35.99 11.23 35.47 11.23ZM43.04 11.03H38.76V10.89H38.77C39.11 10.89 39.3833 10.7867 39.59 10.58C39.79 10.3733 39.89 10.1033 39.89 9.77V1.79C39.89 1.45667 39.7867 1.18667 39.58 0.98C39.3667 0.773333 39.0933 0.67 38.76 0.67V0.53H40.19C40.6633 0.53 41.0267 0.48 41.28 0.38C41.5133 0.273333 41.6767 0.146667 41.77 0H41.91V7.36L44.29 5.36C44.67 5.04 44.9 4.75667 44.98 4.51C45.0333 4.27667 44.97 4.14 44.79 4.1L44.61 4.06V3.92H46.7V4.06L46.56 4.09C46.3333 4.12333 46.1 4.21667 45.86 4.37C45.6267 4.51667 45.2867 4.77667 44.84 5.15L43.87 5.96L46.66 10.25C46.8333 10.4833 46.9867 10.6467 47.12 10.74C47.2467 10.84 47.39 10.89 47.55 10.89V11.03H43.86V10.89C44.0933 10.89 44.2467 10.87 44.32 10.83C44.4 10.8033 44.44 10.7433 44.44 10.65C44.44 10.57 44.41 10.4633 44.35 10.33C44.31 10.2567 44.2633 10.17 44.21 10.07C44.1633 9.97 44.1 9.86 44.02 9.74L42.43 7.18L41.91 7.63V9.77C41.91 10.1033 42.0133 10.3733 42.22 10.58C42.4267 10.7867 42.6967 10.89 43.03 10.89H43.04V11.03Z" fill="black"/>
</svg>
