<svg width="28" height="12" viewBox="0 0 28 12" fill="none" xmlns="http://www.w3.org/2000/svg">
<path d="M6.87 4.93V9.59C6.87 9.70333 6.80333 9.78667 6.67 9.84C6.53667 9.89333 6.36333 9.93333 6.15 9.96C5.94333 9.98 5.72667 9.99 5.5 9.99C3.88667 9.99 2.65 9.6 1.79 8.82C0.93 8.03333 0.5 6.88 0.5 5.36C0.5 4.33333 0.696667 3.45 1.09 2.71C1.47667 1.97667 2.00333 1.41 2.67 1.01C3.33667 0.616666 4.08333 0.42 4.91 0.42C5.19 0.42 5.49 0.43 5.81 0.45C6.13 0.476666 6.39 0.523333 6.59 0.59C6.67667 0.616666 6.73333 0.64 6.76 0.66C6.78667 0.686666 6.8 0.733333 6.8 0.8V1.38C6.8 1.47333 6.78667 1.53333 6.76 1.56C6.72667 1.58 6.68 1.57667 6.62 1.55C6.38667 1.42333 6.14333 1.33667 5.89 1.29C5.63 1.25 5.35667 1.23 5.07 1.23C4.75 1.23 4.39 1.29667 3.99 1.43C3.59 1.55667 3.20667 1.77 2.84 2.07C2.48 2.37 2.18 2.78 1.94 3.3C1.7 3.82667 1.58 4.48 1.58 5.26C1.58 6.08 1.7 6.74667 1.94 7.26C2.18 7.77333 2.48333 8.17 2.85 8.45C3.21667 8.73 3.60667 8.92333 4.02 9.03C4.44 9.13 4.83 9.18 5.19 9.18C5.56333 9.18 5.78333 9.13 5.85 9.03V5.68C5.85 5.62667 5.84 5.59 5.82 5.57C5.80667 5.55 5.77667 5.54 5.73 5.54H3.68C3.63333 5.54 3.60333 5.53 3.59 5.51C3.57667 5.49667 3.57 5.47 3.57 5.43V4.84C3.57 4.80667 3.57667 4.78 3.59 4.76C3.60333 4.74 3.63333 4.73 3.68 4.73H6.69C6.77667 4.73 6.83 4.74333 6.85 4.77C6.86333 4.79 6.87 4.84333 6.87 4.93ZM8.69 9.81V0.0999999C8.69 0.0333332 8.72333 0 8.79 0H9.58C9.65333 0 9.69 0.0333332 9.69 0.0999999V9.81C9.69 9.87667 9.65333 9.91 9.58 9.91H8.79C8.72333 9.91 8.69 9.87667 8.69 9.81ZM14.06 9.99C13.3 9.99 12.71 9.84667 12.29 9.56C11.87 9.27333 11.58 8.87333 11.42 8.36C11.2533 7.84667 11.17 7.25667 11.17 6.59C11.17 5.93667 11.2633 5.35667 11.45 4.85C11.63 4.34333 11.93 3.94333 12.35 3.65C12.77 3.36333 13.34 3.22 14.06 3.22C14.7867 3.22 15.36 3.36333 15.78 3.65C16.2 3.94333 16.5 4.34333 16.68 4.85C16.86 5.35667 16.95 5.93667 16.95 6.59C16.95 7.24333 16.87 7.82667 16.71 8.34C16.5433 8.85333 16.2533 9.25667 15.84 9.55C15.4267 9.84333 14.8333 9.99 14.06 9.99ZM14.06 9.2C14.76 9.2 15.2467 8.97333 15.52 8.52C15.7933 8.06667 15.93 7.43 15.93 6.61C15.93 5.78333 15.78 5.15333 15.48 4.72C15.1867 4.28 14.7133 4.06 14.06 4.06C13.4133 4.06 12.94 4.28 12.64 4.72C12.3333 5.15333 12.18 5.78333 12.18 6.61C12.18 7.43667 12.32 8.07333 12.6 8.52C12.88 8.97333 13.3667 9.2 14.06 9.2ZM20.47 3.23C21.0367 3.23 21.5167 3.30667 21.91 3.46C21.9567 3.48667 21.9933 3.51 22.02 3.53C22.04 3.54333 22.0467 3.57333 22.04 3.62L21.9 4.16C21.8867 4.20667 21.87 4.23333 21.85 4.24C21.8233 4.24667 21.7867 4.24333 21.74 4.23C21.5733 4.17 21.3933 4.13 21.2 4.11C21 4.08333 20.8167 4.07 20.65 4.07C20.5033 4.07 20.35 4.08333 20.19 4.11C20.03 4.14333 19.8867 4.17333 19.76 4.2C19.6333 4.23333 19.5367 4.26667 19.47 4.3C19.4367 4.32667 19.39 4.35667 19.33 4.39C19.2767 4.43 19.25 4.51667 19.25 4.65V9.76C19.25 9.82 19.24 9.86 19.22 9.88C19.2 9.9 19.1667 9.91 19.12 9.91H18.37C18.3433 9.91 18.3167 9.9 18.29 9.88C18.27 9.86 18.26 9.82667 18.26 9.78V4.06C18.26 3.92 18.2767 3.82667 18.31 3.78C18.35 3.73333 18.4067 3.69 18.48 3.65C18.76 3.52333 19.0867 3.42 19.46 3.34C19.8333 3.26667 20.17 3.23 20.47 3.23ZM24.3 8.93C24.0867 8.61 23.88 8.22667 23.68 7.78C23.48 7.32667 23.2967 6.84333 23.13 6.33C22.97 5.81667 22.8333 5.31 22.72 4.81C22.6067 4.31 22.52 3.86333 22.46 3.47C22.44 3.35667 22.4767 3.3 22.57 3.3H23.34C23.3933 3.3 23.4367 3.31333 23.47 3.34C23.5033 3.37333 23.5233 3.43 23.53 3.51C23.55 3.74333 23.5967 4.02667 23.67 4.36C23.7367 4.69333 23.8233 5.04 23.93 5.4C24.03 5.76667 24.1367 6.12667 24.25 6.48C24.3633 6.83333 24.48 7.15667 24.6 7.45C24.72 7.73667 24.83 7.96 24.93 8.12C24.97 8.18667 25.01 8.22 25.05 8.22C25.0833 8.22 25.1067 8.2 25.12 8.16C25.2467 7.92667 25.38 7.62 25.52 7.24C25.66 6.85333 25.8 6.43667 25.94 5.99C26.08 5.54333 26.2033 5.09667 26.31 4.65C26.41 4.21 26.48 3.81333 26.52 3.46C26.52 3.39333 26.5333 3.35 26.56 3.33C26.5933 3.31 26.64 3.3 26.7 3.3H27.38C27.4267 3.3 27.4667 3.31 27.5 3.33C27.5267 3.35 27.5333 3.4 27.52 3.48C27.4733 3.80667 27.4133 4.13333 27.34 4.46C27.2667 4.78 27.1867 5.1 27.1 5.42C27.0067 5.74667 26.9067 6.08667 26.8 6.44C26.6867 6.75333 26.5533 7.13333 26.4 7.58C26.2467 8.02 26.0567 8.47667 25.83 8.95C25.6033 9.42333 25.3433 9.86333 25.05 10.27C24.75 10.6767 24.4 11.0033 24 11.25C23.6067 11.5033 23.1567 11.63 22.65 11.63C22.51 11.63 22.38 11.6233 22.26 11.61C22.14 11.5967 22.0267 11.5767 21.92 11.55C21.8133 11.5033 21.7767 11.4333 21.81 11.34L22.01 10.9C22.0367 10.8533 22.0633 10.83 22.09 10.83C22.1167 10.8233 22.1533 10.83 22.2 10.85C22.4333 10.8833 22.6833 10.86 22.95 10.78C23.2167 10.6933 23.45 10.57 23.65 10.41C23.8367 10.2833 23.9767 10.16 24.07 10.04C24.17 9.92667 24.2667 9.79 24.36 9.63C24.4067 9.53 24.4267 9.41667 24.42 9.29C24.42 9.17 24.38 9.05 24.3 8.93Z" fill="black"/>
</svg>
