<svg width="112" height="13" viewBox="0 0 112 13" fill="none" xmlns="http://www.w3.org/2000/svg">
<path d="M0.5 7.29C0.5 6.69667 0.583333 6.15333 0.75 5.66C0.916667 5.16 1.15 4.71333 1.45 4.32C1.75 3.92 2.11 3.57333 2.53 3.28C2.94333 2.98 3.4 2.73 3.9 2.53C4.4 2.33 4.93 2.18 5.49 2.08C6.05 1.98667 6.62667 1.94 7.22 1.94C7.58 1.94 7.93667 1.96333 8.29 2.01C8.65 2.05 8.99667 2.11333 9.33 2.2C9.67 2.28 9.99333 2.37667 10.3 2.49C10.6067 2.60333 10.89 2.73 11.15 2.87L11.67 2.2H13.2V5.53H11.47C11.2767 5.19 11.0433 4.88667 10.77 4.62C10.5033 4.36 10.2067 4.13667 9.88 3.95C9.55333 3.77 9.20667 3.63333 8.84 3.54C8.47333 3.44667 8.09667 3.4 7.71 3.4C7.28333 3.4 6.88 3.47333 6.5 3.62C6.11333 3.76667 5.77667 3.99 5.49 4.29C5.20333 4.59 4.97667 4.97 4.81 5.43C4.64333 5.89667 4.56 6.44667 4.56 7.08C4.56 7.68667 4.65 8.22 4.83 8.68C5.01667 9.14667 5.26333 9.53333 5.57 9.84C5.88333 10.1533 6.24667 10.39 6.66 10.55C7.07333 10.71 7.50667 10.79 7.96 10.79C8.36 10.79 8.70667 10.76 9 10.7C9.29333 10.6467 9.55667 10.5467 9.79 10.4V8.69L7.8 6.78H13.29V12H11.67L11.3 11.32C11.0267 11.4933 10.7367 11.64 10.43 11.76C10.13 11.88 9.81333 11.9767 9.48 12.05C9.14667 12.1233 8.80333 12.18 8.45 12.22C8.10333 12.2533 7.75 12.27 7.39 12.27C6.77 12.27 6.17 12.2333 5.59 12.16C5.01 12.0867 4.46333 11.97 3.95 11.81C3.44333 11.6433 2.97667 11.4333 2.55 11.18C2.13 10.92 1.76667 10.6067 1.46 10.24C1.15333 9.87333 0.916667 9.44667 0.75 8.96C0.583333 8.47333 0.5 7.91667 0.5 7.29ZM15.29 8.22C15.29 7.53333 15.43 6.93667 15.71 6.43C15.99 5.91667 16.38 5.49333 16.88 5.16C17.38 4.82667 17.9767 4.57667 18.67 4.41C19.3567 4.25 20.1067 4.17 20.92 4.17C21.7333 4.17 22.4867 4.25 23.18 4.41C23.8667 4.57667 24.46 4.82667 24.96 5.16C25.46 5.49333 25.85 5.91667 26.13 6.43C26.41 6.93667 26.55 7.53333 26.55 8.22C26.55 8.93333 26.41 9.54667 26.13 10.06C25.85 10.5667 25.46 10.9867 24.96 11.32C24.46 11.6467 23.8667 11.8867 23.18 12.04C22.4867 12.1933 21.7333 12.27 20.92 12.27C20.1067 12.27 19.3567 12.1933 18.67 12.04C17.9767 11.8867 17.38 11.6467 16.88 11.32C16.38 10.9867 15.99 10.5667 15.71 10.06C15.43 9.54667 15.29 8.93333 15.29 8.22ZM18.88 8.22C18.88 8.64 18.9333 9.02 19.04 9.36C19.1533 9.7 19.3 9.99 19.48 10.23C19.6667 10.47 19.8833 10.6567 20.13 10.79C20.3767 10.9167 20.64 10.98 20.92 10.98C21.2 10.98 21.4633 10.9167 21.71 10.79C21.9567 10.6567 22.1733 10.47 22.36 10.23C22.5467 9.99 22.6933 9.7 22.8 9.36C22.9067 9.02 22.96 8.64 22.96 8.22C22.96 7.79333 22.9067 7.40667 22.8 7.06C22.6933 6.71333 22.5467 6.42 22.36 6.18C22.1733 5.93333 21.9567 5.74 21.71 5.6C21.4633 5.46667 21.2 5.4 20.92 5.4C20.64 5.4 20.3767 5.46667 20.13 5.6C19.8833 5.74 19.6667 5.93333 19.48 6.18C19.3 6.42 19.1533 6.71333 19.04 7.06C18.9333 7.40667 18.88 7.79333 18.88 8.22ZM27.51 12L29.36 10.33V2.91L27.57 1.38L32.62 1.17V5.7C32.9467 5.18 33.3733 4.79333 33.9 4.54C34.4267 4.29333 35.0233 4.17 35.69 4.17C36.3967 4.17 37.02 4.27667 37.56 4.49C38.1 4.71 38.55 5.00667 38.91 5.38C39.2767 5.75333 39.5533 6.19333 39.74 6.7C39.9267 7.2 40.02 7.73667 40.02 8.31C40.02 8.81667 39.9367 9.31 39.77 9.79C39.61 10.2633 39.3567 10.6833 39.01 11.05C38.6633 11.4167 38.22 11.7133 37.68 11.94C37.14 12.16 36.49 12.27 35.73 12.27C35.0433 12.27 34.4333 12.15 33.9 11.91C33.3733 11.67 32.9467 11.2967 32.62 10.79V12H27.51ZM32.62 8.22C32.62 8.62667 32.6767 8.97667 32.79 9.27C32.9033 9.55667 33.05 9.79 33.23 9.97C33.41 10.15 33.6133 10.28 33.84 10.36C34.0667 10.44 34.2933 10.48 34.52 10.48C34.8 10.48 35.0567 10.4333 35.29 10.34C35.5233 10.2467 35.7233 10.1033 35.89 9.91C36.0567 9.72333 36.1867 9.48667 36.28 9.2C36.3733 8.92 36.42 8.59333 36.42 8.22C36.42 7.84667 36.3733 7.51667 36.28 7.23C36.1867 6.93667 36.0567 6.69 35.89 6.49C35.7233 6.29667 35.5233 6.15 35.29 6.05C35.0567 5.95 34.8 5.9 34.52 5.9C34.28 5.9 34.0433 5.94 33.81 6.02C33.5833 6.10667 33.3833 6.24333 33.21 6.43C33.0367 6.61 32.8933 6.84667 32.78 7.14C32.6733 7.43333 32.62 7.79333 32.62 8.22ZM40.98 12L42.83 10.33V2.91L41.04 1.38L46.02 1.17V10.33L47.88 12H40.98ZM51.58 3.56C51.3333 3.56 51.1033 3.51333 50.89 3.42C50.67 3.32667 50.48 3.2 50.32 3.04C50.16 2.88 50.0333 2.69 49.94 2.47C49.8467 2.25667 49.8 2.02667 49.8 1.78C49.8 1.53333 49.8467 1.30333 49.94 1.09C50.0333 0.87 50.16 0.68 50.32 0.52C50.48 0.36 50.67 0.233333 50.89 0.14C51.1033 0.0466665 51.3333 0 51.58 0C51.8267 0 52.0567 0.0466665 52.27 0.14C52.49 0.233333 52.68 0.36 52.84 0.52C53 0.68 53.1267 0.87 53.22 1.09C53.3133 1.30333 53.36 1.53333 53.36 1.78C53.36 2.02667 53.3133 2.25667 53.22 2.47C53.1267 2.69 53 2.88 52.84 3.04C52.68 3.2 52.49 3.32667 52.27 3.42C52.0567 3.51333 51.8267 3.56 51.58 3.56ZM48.29 12L50.14 10.33V6.17L48.35 4.64L53.33 4.43V10.33L55.18 12H48.29ZM55.5 12L57.35 10.33V6.17L55.56 4.64L60.61 4.43V5.92C60.9367 5.36 61.37 4.92667 61.91 4.62C62.4433 4.32 63.0567 4.17 63.75 4.17C64.2767 4.17 64.7467 4.25 65.16 4.41C65.5733 4.57 65.92 4.81 66.2 5.13C66.48 5.45667 66.6933 5.86 66.84 6.34C66.9867 6.82 67.06 7.37667 67.06 8.01V10.33L68.91 12H62.54L63.8 10.33V8.15C63.8 7.85667 63.77 7.58 63.71 7.32C63.6567 7.06 63.5733 6.83333 63.46 6.64C63.34 6.44667 63.19 6.29333 63.01 6.18C62.83 6.06 62.61 6 62.35 6C62.0967 6 61.8633 6.05667 61.65 6.17C61.4367 6.28333 61.2533 6.44667 61.1 6.66C60.94 6.87333 60.82 7.13333 60.74 7.44C60.6533 7.74667 60.61 8.09667 60.61 8.49V10.33L61.87 12H55.5ZM73.71 7.1C73.71 6.47333 73.8033 5.90667 73.99 5.4C74.1767 4.9 74.4267 4.46 74.74 4.08C75.0533 3.69333 75.4233 3.36667 75.85 3.1C76.27 2.82667 76.72 2.60333 77.2 2.43C77.6733 2.26333 78.1633 2.14 78.67 2.06C79.1767 1.98 79.67 1.94 80.15 1.94C80.6833 1.94 81.2133 1.98 81.74 2.06C82.2667 2.14 82.7667 2.26333 83.24 2.43C83.72 2.60333 84.1633 2.82667 84.57 3.1C84.9833 3.36667 85.34 3.69333 85.64 4.08C85.94 4.46 86.1767 4.9 86.35 5.4C86.5233 5.90667 86.61 6.47333 86.61 7.1C86.61 7.72 86.52 8.27667 86.34 8.77C86.16 9.27 85.9167 9.71 85.61 10.09C85.2967 10.4767 84.9333 10.8067 84.52 11.08C84.1 11.3533 83.6533 11.5767 83.18 11.75C82.7 11.93 82.2033 12.06 81.69 12.14C81.17 12.2267 80.6567 12.27 80.15 12.27C79.65 12.27 79.14 12.23 78.62 12.15C78.1067 12.07 77.6133 11.9467 77.14 11.78C76.66 11.6133 76.2133 11.3967 75.8 11.13C75.38 10.8567 75.0167 10.53 74.71 10.15C74.4033 9.76333 74.16 9.32 73.98 8.82C73.8 8.31333 73.71 7.74 73.71 7.1ZM77.73 7.1C77.73 7.64 77.79 8.13667 77.91 8.59C78.03 9.05 78.1967 9.45 78.41 9.79C78.6233 10.1233 78.88 10.3867 79.18 10.58C79.4733 10.7733 79.7967 10.87 80.15 10.87C80.51 10.87 80.8367 10.77 81.13 10.57C81.43 10.3767 81.6867 10.11 81.9 9.77C82.12 9.43667 82.29 9.04 82.41 8.58C82.53 8.12 82.59 7.62667 82.59 7.1C82.59 6.56667 82.5333 6.06667 82.42 5.6C82.3067 5.13333 82.1433 4.72667 81.93 4.38C81.7167 4.04 81.46 3.77 81.16 3.57C80.86 3.37 80.5233 3.27 80.15 3.27C79.7967 3.27 79.4733 3.37 79.18 3.57C78.88 3.77 78.6233 4.04 78.41 4.38C78.1967 4.72667 78.03 5.13333 77.91 5.6C77.79 6.06667 77.73 6.56667 77.73 7.1ZM87.5 12L89.35 10.33V6.17L87.56 4.64L92.61 4.43V5.92C92.9367 5.36 93.3667 4.92667 93.9 4.62C94.44 4.32 95.0567 4.17 95.75 4.17C96.2767 4.17 96.7467 4.25 97.16 4.41C97.5733 4.57 97.92 4.81 98.2 5.13C98.48 5.45667 98.6933 5.86 98.84 6.34C98.9867 6.82 99.06 7.37667 99.06 8.01V10.33L100.91 12H94.54L95.8 10.33V8.15C95.8 7.85667 95.77 7.58 95.71 7.32C95.6567 7.06 95.5733 6.83333 95.46 6.64C95.34 6.44667 95.19 6.29333 95.01 6.18C94.83 6.06 94.61 6 94.35 6C94.0967 6 93.8633 6.05667 93.65 6.17C93.4367 6.28333 93.25 6.44667 93.09 6.66C92.9367 6.87333 92.82 7.13333 92.74 7.44C92.6533 7.74667 92.61 8.09667 92.61 8.49V10.33L93.87 12H87.5ZM101.56 8.33C101.56 7.77667 101.64 7.28667 101.8 6.86C101.96 6.43333 102.18 6.06667 102.46 5.76C102.733 5.45333 103.053 5.19667 103.42 4.99C103.787 4.79 104.177 4.62667 104.59 4.5C105.003 4.38 105.43 4.29333 105.87 4.24C106.31 4.19333 106.74 4.17 107.16 4.17C107.82 4.17 108.437 4.24 109.01 4.38C109.577 4.52667 110.07 4.76333 110.49 5.09C110.91 5.41 111.24 5.83333 111.48 6.36C111.72 6.88667 111.84 7.53 111.84 8.29H105.16C105.18 8.76333 105.26 9.15333 105.4 9.46C105.547 9.76667 105.733 10.01 105.96 10.19C106.187 10.37 106.447 10.4967 106.74 10.57C107.033 10.6433 107.333 10.68 107.64 10.68C107.92 10.68 108.22 10.6633 108.54 10.63C108.867 10.5967 109.19 10.5367 109.51 10.45C109.837 10.3633 110.147 10.2433 110.44 10.09C110.74 9.93 111 9.72667 111.22 9.48L111.91 10.02C111.797 10.3 111.64 10.55 111.44 10.77C111.233 10.99 110.997 11.1833 110.73 11.35C110.47 11.5167 110.183 11.6567 109.87 11.77C109.563 11.89 109.25 11.9833 108.93 12.05C108.603 12.1233 108.28 12.18 107.96 12.22C107.633 12.2533 107.323 12.27 107.03 12.27C106.197 12.27 105.443 12.1833 104.77 12.01C104.097 11.8367 103.52 11.58 103.04 11.24C102.567 10.9067 102.2 10.4967 101.94 10.01C101.687 9.51667 101.56 8.95667 101.56 8.33ZM105.21 7.22H108.53C108.53 6.88667 108.5 6.60333 108.44 6.37C108.38 6.14333 108.287 5.95667 108.16 5.81C108.04 5.67 107.887 5.57 107.7 5.51C107.513 5.45 107.297 5.42 107.05 5.42C106.53 5.42 106.12 5.57667 105.82 5.89C105.513 6.20333 105.31 6.64667 105.21 7.22Z" fill="black"/>
</svg>
