<svg width="112.68" height="17.5" viewBox="0 0 112.68 17.5" xmlns="http://www.w3.org/2000/svg"><path transform="translate(0 13.125) scale(.0068359 -.0068359)" d="m90 689q0 130 37 239t103 196 157.5 152 201 109 232.5 65.5 253 21.5q78 0 156.5-10t152.5-28 141.5-43 124.5-55l76 98h224v-488h-254q-42 75-101.5 133t-131 98-152 60.5-165.5 20.5q-93 0-177-32t-147-98-100-167.5-37-240.5q0-133 40.5-234.5t108.5-170 158.5-103.5 190.5-35q88 0 152 12.5t116 44.5v250l-291 280h803v-764h-237l-55 100q-59-38-126-64.5t-140-43-150-24-156-7.5q-135 0-262.5 16t-239.5 51.5-205 92-160 137-104 187.5-37 244z"/><path transform="translate(14.725 13.125) scale(.0068359 -.0068359)" d="m100 553q0 151 61.5 262.5t171.5 185 261 109.5 330 36 330-36 261-109.5 171.5-185 61.5-262.5q0-157-61.5-269t-171.5-184-261-105.5-330-33.5-330 33.5-261 105.5-171.5 184-61.5 269zm526 0q0-92 23.5-167t64-127.5 95-81 115.5-28.5 115.5 28.5 95 81 64 127.5 23.5 167q0 93-23.5 169t-64 130-95 84-115.5 30-115.5-30-95-84-64-130-23.5-169z"/><path transform="translate(27.357 13.125) scale(.0068359 -.0068359)" d="m311 244v1086l-262 224 739 30v-662q71 114 186.5 169t261.5 55q155 0 273.5-47.5t198.5-130 121-192.5 41-236q0-112-36-216.5t-112-185-194.5-129-284.5-48.5q-152 0-268 52.5t-187 163.5v-177h-748zm477 309q0-90 24.5-153t64-102.5 89-57.5 100.5-18q61 0 112 21t88 62.5 57.5 103.5 20.5 144-20.5 145.5-57.5 107-88 65.5-112 22q-54 0-104-18.5t-88.5-59-62-105-23.5-157.5z"/><path transform="translate(40.824 13.125) scale(.0068359 -.0068359)" d="M311 244V1330L49 1554L778 1584V244L1049 0H40Z"/><path transform="translate(48.132 13.125) scale(.0068359 -.0068359)" d="m522 1235q-54 0-101.5 20.5t-82.5 55.5-55.5 82.5-20.5 101.5 20.5 101.5 55.5 83 82.5 56 101.5 20.5 101.5-20.5 83-56 56-83 20.5-101.5-20.5-101.5-56-82.5-83-55.5-101.5-20.5zm-211-991v609l-262 224 729 30v-863l271-244h-1009z"/><path transform="translate(55.344 13.125) scale(.0068359 -.0068359)" d="m311 244v609l-262 224 739 30v-217q72 123 189.5 189.5t269.5 66.5q116 0 206.5-35.5t152-106 93.5-176 32-244.5v-340l271-244h-932l184 244v319q0 64-12 121t-37.5 100-65.5 68-96 25-103-24.5-81-71-52.5-114-18.5-154.5v-269l184-244h-932z"/><path transform="translate(73.22 13.125) scale(.0068359 -.0068359)" d="m90 717q0 138 40.5 248t109.5 194 162 143.5 197.5 97 215.5 55 217 17.5q116 0 231.5-17.5t220-55 194.5-97 156.5-143.5 104-194 37.5-248q0-136-39-245t-107-193-159.5-144-196-99-218-57-224.5-18-224 17-217.5 54-196 96-159 143-106.5 194.5-39 251.5zm588 0q0-118 26-218.5t73-174.5 112-116 143-42 143 43 112.5 117 74 174.5 26.5 216.5q0 117-25 219.5t-71.5 178-112.5 119-147 43.5q-78 0-143-43.5t-112-119-73-178-26-219.5z"/><path transform="translate(87.343 13.125) scale(.0068359 -.0068359)" d="m311 244v609l-262 224 739 30v-217q72 123 189.5 189.5t269.5 66.5q116 0 206.5-35.5t152-106 93.5-176 32-244.5v-340l271-244h-932l184 244v319q0 64-12 121t-37.5 100-65.5 68-96 25-103-24.5-81-71-52.5-114-18.5-154.5v-269l184-244h-932z"/><path transform="translate(100.99 13.125) scale(.0068359 -.0068359)" d="m100 537q0 122 35.5 215t96 160.5 141 112.5 171.5 72 187.5 38 187.5 11q145 0 270.5-32t217.5-103 144.5-186.5 52.5-281.5h-977q4-104 35.5-171.5t81.5-107 114-55.5 132-16q61 0 132 7t142 26.5 136 53.5 113 89l102-80q-25-61-70-109t-103-84.5-125.5-62-138.5-41.5-142-23.5-136-7.5q-183 0-330.5 38t-252 111.5-161 181-56.5 245.5zm1020 162q0 74-13.5 124.5t-40.5 81.5-67.5 44.5-94.5 13.5q-114 0-181-69t-88-195z"/></svg>