<svg width="61.523" height="14" viewBox="0 0 61.523 14" xmlns="http://www.w3.org/2000/svg"><path transform="translate(0 11.17) scale(.013672 -.013672)" d="m52 374q0 174 87.5 283.5t238.5 109.5q51 0 95-15.5t73.5-41.5 49-50.5 32.5-51.5l-68-24q-71 115-182 115-115 0-179.5-89.5t-64.5-235.5q0-152 66-237.5t174-85.5q98 0 151 64t53 151v70h-212v68h290v-404h-58l-6 110q-59-128-220-128-143 0-231.5 105t-88.5 287z"/><path transform="translate(9.9258 11.17) scale(.013672 -.013672)" d="m122 269q0-102 47-162t117-60q69 0 116.5 60t47.5 162q0 104-48 163t-116 59q-69 0-116.5-59t-47.5-163zm-78 0q0 123 63.5 205t178.5 82q114 0 178-82t64-205q0-52-13.5-101t-41-91.5-76-68.5-111.5-26q-62 0-110.5 25.5t-76 68-41.5 91.5-14 102z"/><path transform="translate(17.746 11.17) scale(.013672 -.013672)" d="m20 473v65h94v172h78v-172h142v-65h-142v-315q0-50 19-71t61-21h62v-66h-72q-148 0-148 151v322z"/><path transform="translate(22.736 11.17) scale(.013672 -.013672)" d="m86 0v777h76v-326h2q20 43 64.5 74t101.5 31q174 0 174-208v-348h-76v335q0 156-112 156-62 0-108-51t-46-121v-319z"/><path transform="translate(30.652 11.17) scale(.013672 -.013672)" d="M88 659V760H186V659ZM100 0V538H176V0Z"/><path transform="translate(34.412 11.17) scale(.013672 -.013672)" d="m44 269q0 128 65 207.5t175 79.5q72 0 123.5-41.5t68.5-98.5l-66-19q-15 40-48.5 67t-77.5 27q-74 0-118-63t-44-159q0-102 46-162t116-60q47 0 85.5 30.5t54.5 70.5l66-21q-21-60-76.5-102.5t-129.5-42.5q-107 0-173.5 78t-66.5 209z"/><path transform="translate(44.857 11.17) scale(.013672 -.013672)" d="m184 280h282l-88 252q-8 23-25.5 73.5t-24.5 70.5h-6q-42-123-49-144zm-188-280 280 749h98l280-749h-88l-76 216h-330l-76-216z"/><path transform="translate(53.744 11.17) scale(.013672 -.013672)" d="m103 573v61h30q86 0 117 26t31 75v23h68v-768h-82v583z"/></svg>