<svg width="56" height="16" viewBox="0 0 56 16" fill="none" xmlns="http://www.w3.org/2000/svg">
<path d="M5.38 9.69C5.08667 10.1233 4.76 10.46 4.4 10.7C4.03333 10.94 3.63667 11.06 3.21 11.06C2.77667 11.06 2.39333 10.9567 2.06 10.75C1.72 10.5433 1.43667 10.25 1.21 9.87C0.976667 9.49 0.8 9.03 0.68 8.49C0.56 7.95667 0.5 7.36333 0.5 6.71C0.5 6.24333 0.546667 5.76667 0.64 5.28C0.74 4.79333 0.88 4.32 1.06 3.86C1.24667 3.4 1.47333 2.96667 1.74 2.56C2 2.15333 2.3 1.79667 2.64 1.49C2.97333 1.19 3.34333 0.95 3.75 0.77C4.15667 0.596667 4.59333 0.51 5.06 0.51C5.30667 0.51 5.54 0.55 5.76 0.63C5.98 0.71 6.17 0.823333 6.33 0.97C6.48333 1.12333 6.60667 1.30667 6.7 1.52C6.79333 1.73333 6.84 1.97333 6.84 2.24C6.84 2.5 6.79667 2.74667 6.71 2.98C6.62333 3.22 6.50333 3.44333 6.35 3.65C6.20333 3.85667 6.03333 4.04667 5.84 4.22C5.64 4.39333 5.43333 4.54333 5.22 4.67C5.00667 4.79667 4.79 4.89333 4.57 4.96C4.34333 5.03333 4.12667 5.07 3.92 5.07C3.75333 5.07 3.61 5.01333 3.49 4.9C3.37 4.79333 3.31 4.62667 3.31 4.4C3.31 4.34667 3.31333 4.29 3.32 4.23C3.32667 4.17 3.33667 4.11667 3.35 4.07C3.36333 4.01667 3.38 3.97333 3.4 3.94C3.41333 3.90667 3.43667 3.89 3.47 3.89C3.49 3.89 3.51 3.89667 3.53 3.91C3.55 3.93 3.57667 3.94667 3.61 3.96C3.64333 3.98 3.69 3.99667 3.75 4.01C3.81 4.02333 3.89333 4.03 4 4.03C4.18 4.03 4.37 3.98333 4.57 3.89C4.77 3.79667 4.95667 3.67 5.13 3.51C5.30333 3.35 5.44667 3.16667 5.56 2.96C5.67333 2.75333 5.73 2.53667 5.73 2.31C5.73 2.23 5.71667 2.14333 5.69 2.05C5.66333 1.95667 5.61667 1.87333 5.55 1.8C5.48333 1.72 5.39333 1.65333 5.28 1.6C5.17333 1.54667 5.04 1.52 4.88 1.52C4.58667 1.52 4.30333 1.59333 4.03 1.74C3.75667 1.88 3.50333 2.07333 3.27 2.32C3.03 2.56667 2.81 2.85667 2.61 3.19C2.41667 3.52333 2.24667 3.88333 2.1 4.27C1.96 4.65 1.85333 5.04667 1.78 5.46C1.7 5.87333 1.66 6.28333 1.66 6.69C1.66 7.19667 1.7 7.65333 1.78 8.06C1.86 8.46 1.97 8.8 2.11 9.08C2.25 9.36667 2.41667 9.58667 2.61 9.74C2.80333 9.89333 3.01333 9.97 3.24 9.97C3.48 9.97 3.7 9.92 3.9 9.82C4.1 9.72 4.28 9.59 4.44 9.43C4.6 9.26333 4.73667 9.07333 4.85 8.86C4.97 8.64667 5.07 8.42667 5.15 8.2C5.23 7.96667 5.29 7.74 5.33 7.52C5.37 7.29333 5.39 7.08333 5.39 6.89C5.39 6.81667 5.38667 6.73333 5.38 6.64C5.37333 6.54667 5.37 6.47667 5.37 6.43C5.37 6.35667 5.38 6.30333 5.4 6.27C5.42667 6.23 5.46 6.20333 5.5 6.19C5.54 6.17 5.59 6.15667 5.65 6.15C5.70333 6.15 5.76 6.15 5.82 6.15C5.88 6.15 5.95333 6.16333 6.04 6.19C6.12 6.21667 6.19667 6.25333 6.27 6.3C6.34333 6.34667 6.40667 6.40333 6.46 6.47C6.51333 6.53 6.54 6.6 6.54 6.68C6.50667 7.06 6.48333 7.42 6.47 7.76C6.46333 8.09333 6.46 8.43667 6.46 8.79C6.46 9.11667 6.46333 9.46 6.47 9.82C6.47 10.1733 6.47 10.5633 6.47 10.99C6.60333 10.97 6.73333 10.9533 6.86 10.94C6.98667 10.9333 7.10667 10.9267 7.22 10.92C7.38 10.9067 7.48667 10.9567 7.54 11.07C7.58667 11.1833 7.59333 11.31 7.56 11.45C7.52667 11.59 7.46 11.72 7.36 11.84C7.26667 11.96 7.15667 12.02 7.03 12.02C6.93 12.02 6.83333 12.0233 6.74 12.03C6.64667 12.0367 6.55 12.0433 6.45 12.05C6.43667 12.3167 6.41333 12.5833 6.38 12.85C6.35333 13.1167 6.31 13.3767 6.25 13.63C6.19 13.8833 6.11 14.1233 6.01 14.35C5.91 14.57 5.79 14.76 5.65 14.92C5.50333 15.0867 5.32667 15.2167 5.12 15.31C4.91333 15.41 4.67333 15.46 4.4 15.46C4.16667 15.46 3.95333 15.4167 3.76 15.33C3.56667 15.2433 3.4 15.1267 3.26 14.98C3.12667 14.8333 3.02333 14.66 2.95 14.46C2.87667 14.26 2.84 14.04 2.84 13.8C2.84 13.4467 2.91333 13.13 3.06 12.85C3.2 12.5767 3.39 12.3367 3.63 12.13C3.87 11.9167 4.14667 11.7367 4.46 11.59C4.76667 11.45 5.08333 11.3267 5.41 11.22V11.09C5.41 10.79 5.40333 10.5233 5.39 10.29C5.38333 10.0567 5.38 9.85667 5.38 9.69ZM4.43 14.38C4.58333 14.38 4.71667 14.3233 4.83 14.21C4.94333 14.09 5.03667 13.9333 5.11 13.74C5.18333 13.5467 5.24 13.3233 5.28 13.07C5.32 12.8167 5.35 12.5467 5.37 12.26C4.90333 12.4067 4.54667 12.61 4.3 12.87C4.04667 13.1233 3.92 13.4233 3.92 13.77C3.92 13.99 3.97 14.1467 4.07 14.24C4.17 14.3333 4.29 14.38 4.43 14.38ZM10.68 10.89C10.5133 10.89 10.3433 10.8633 10.17 10.81C10.0033 10.7633 9.85 10.6767 9.71 10.55C9.57 10.43 9.45667 10.27 9.37 10.07C9.27667 9.86333 9.23 9.60667 9.23 9.3C9.23 8.84667 9.29333 8.36667 9.42 7.86C9.54 7.36 9.71333 6.80667 9.94 6.2H8.87H8.72C8.71333 6.34 8.70333 6.51333 8.69 6.72C8.67667 6.92667 8.65667 7.15 8.63 7.39C8.60333 7.63 8.57 7.87 8.53 8.11C8.48333 8.35 8.43 8.57333 8.37 8.78C8.32333 8.92667 8.25 9.01 8.15 9.03C8.05 9.05 7.95333 9.03333 7.86 8.98C7.76667 8.92 7.69 8.83667 7.63 8.73C7.57 8.62333 7.55667 8.51 7.59 8.39C7.62333 8.25 7.65333 8.07667 7.68 7.87C7.70667 7.67 7.73 7.45667 7.75 7.23C7.76333 7.00333 7.77667 6.77667 7.79 6.55C7.79667 6.32333 7.80333 6.12333 7.81 5.95C7.63667 5.85 7.49333 5.72667 7.38 5.58C7.26 5.43333 7.2 5.25667 7.2 5.05C7.2 4.95667 7.22 4.87 7.26 4.79C7.3 4.71 7.35333 4.64 7.42 4.58C7.48 4.52667 7.55333 4.48333 7.64 4.45C7.72667 4.42333 7.81667 4.41 7.91 4.41C7.99 4.41 8.07667 4.42 8.17 4.44C8.25667 4.46667 8.34 4.51 8.42 4.57C8.5 4.63 8.57 4.70667 8.63 4.8C8.69667 4.89333 8.75 5.01 8.79 5.15C8.90333 5.16333 9 5.17667 9.08 5.19C9.16 5.19667 9.22667 5.2 9.28 5.2C9.33333 5.20667 9.38 5.21 9.42 5.21C9.45333 5.21 9.49 5.21 9.53 5.21H10.26C10.3 5.21 10.36 5.23333 10.44 5.28C10.52 5.33333 10.6 5.4 10.68 5.48C10.7533 5.56 10.8167 5.64667 10.87 5.74C10.9233 5.82667 10.9433 5.91333 10.93 6C10.93 6.02667 10.9133 6.09 10.88 6.19C10.8467 6.29667 10.81 6.43 10.77 6.59C10.7233 6.75 10.6733 6.93333 10.62 7.14C10.56 7.34667 10.51 7.56333 10.47 7.79C10.4233 8.01667 10.3833 8.25333 10.35 8.5C10.3167 8.74667 10.3 8.98333 10.3 9.21C10.3 9.31 10.3133 9.40667 10.34 9.5C10.36 9.58667 10.3933 9.66667 10.44 9.74C10.4867 9.80667 10.5433 9.86333 10.61 9.91C10.6833 9.95 10.7667 9.97 10.86 9.97C11.02 9.97 11.1567 9.92 11.27 9.82C11.3833 9.72 11.48 9.59333 11.56 9.44C11.64 9.28667 11.7033 9.12333 11.75 8.95C11.7967 8.77667 11.8367 8.61333 11.87 8.46C11.8967 8.31333 11.94 8.20667 12 8.14C12.0667 8.07333 12.1333 8.04 12.2 8.04C12.2533 8.04 12.31 8.05667 12.37 8.09C12.43 8.12333 12.4833 8.16667 12.53 8.22C12.5767 8.28 12.6167 8.34333 12.65 8.41C12.6767 8.47667 12.69 8.54333 12.69 8.61C12.69 8.63667 12.69 8.65667 12.69 8.67C12.6833 8.68333 12.68 8.69667 12.68 8.71C12.6133 8.94333 12.53 9.18667 12.43 9.44C12.33 9.69333 12.2 9.92667 12.04 10.14C11.88 10.36 11.6867 10.54 11.46 10.68C11.24 10.82 10.98 10.89 10.68 10.89ZM15.89 9.97C16.03 9.97 16.15 9.92 16.25 9.82C16.3567 9.72 16.4467 9.59333 16.52 9.44C16.5933 9.28667 16.6533 9.12333 16.7 8.95C16.7467 8.77667 16.7867 8.61333 16.82 8.46C16.8533 8.31333 16.9 8.20667 16.96 8.14C17.0267 8.07333 17.0933 8.04 17.16 8.04C17.22 8.04 17.2767 8.05667 17.33 8.09C17.39 8.12333 17.4433 8.16667 17.49 8.22C17.5367 8.28 17.5767 8.34333 17.61 8.41C17.6367 8.47667 17.65 8.54333 17.65 8.61C17.65 8.62333 17.65 8.63667 17.65 8.65C17.65 8.66333 17.6467 8.68333 17.64 8.71C17.58 8.94333 17.4967 9.18667 17.39 9.44C17.29 9.69333 17.16 9.92667 17 10.14C16.84 10.36 16.6467 10.54 16.42 10.68C16.1933 10.82 15.93 10.89 15.63 10.89C15.3833 10.89 15.17 10.8367 14.99 10.73C14.81 10.63 14.6667 10.4933 14.56 10.32C14.42 10.4733 14.25 10.6067 14.05 10.72C13.85 10.8333 13.62 10.89 13.36 10.89C13.0867 10.89 12.8467 10.8367 12.64 10.73C12.4267 10.6167 12.25 10.4667 12.11 10.28C11.97 10.0867 11.8633 9.86333 11.79 9.61C11.7233 9.35 11.69 9.07333 11.69 8.78C11.69 8.19333 11.7833 7.67 11.97 7.21C12.1567 6.74333 12.4033 6.34667 12.71 6.02C13.0233 5.69333 13.38 5.44333 13.78 5.27C14.18 5.09667 14.5933 5.01 15.02 5.01C15.2133 5.01 15.3667 5.06333 15.48 5.17C15.6 5.27667 15.66 5.42 15.66 5.6C15.66 5.72 15.6467 5.80333 15.62 5.85C15.6 5.89667 15.5533 5.92 15.48 5.92C15.42 5.92 15.3533 5.91667 15.28 5.91C15.2133 5.89667 15.1433 5.89 15.07 5.89C14.81 5.89 14.5433 5.95 14.27 6.07C13.9967 6.18333 13.7467 6.36 13.52 6.6C13.3 6.84 13.12 7.14333 12.98 7.51C12.84 7.87667 12.77 8.31333 12.77 8.82C12.77 9.18667 12.84 9.47 12.98 9.67C13.12 9.87 13.3133 9.97 13.56 9.97C13.7533 9.97 13.9133 9.89667 14.04 9.75C14.1667 9.61 14.27 9.44 14.35 9.24V7.08C14.35 7.01333 14.3467 6.95667 14.34 6.91C14.3333 6.86333 14.3267 6.82333 14.32 6.79C14.3133 6.76333 14.3067 6.73667 14.3 6.71C14.2933 6.68333 14.29 6.66 14.29 6.64C14.29 6.56667 14.3267 6.50667 14.4 6.46C14.4733 6.42 14.56 6.4 14.66 6.4C14.8867 6.4 15.07 6.46 15.21 6.58C15.3433 6.7 15.41 6.84333 15.41 7.01V9.32C15.41 9.4 15.42 9.47667 15.44 9.55C15.46 9.63 15.4867 9.7 15.52 9.76C15.56 9.82 15.61 9.87 15.67 9.91C15.73 9.95 15.8033 9.97 15.89 9.97ZM16.88 10.27V5.84C16.88 5.70667 16.87 5.61 16.85 5.55C16.83 5.49 16.82 5.43667 16.82 5.39C16.82 5.31667 16.8567 5.26 16.93 5.22C17.0033 5.17333 17.09 5.15 17.19 5.15C17.4233 5.15 17.6067 5.21333 17.74 5.34C17.8733 5.46 17.94 5.60333 17.94 5.77V6.4C18.04 6.2 18.1433 6.01667 18.25 5.85C18.3633 5.68333 18.4867 5.53667 18.62 5.41C18.7467 5.28333 18.8833 5.18667 19.03 5.12C19.1833 5.04667 19.3467 5.01 19.52 5.01C19.7467 5.01 19.9367 5.05333 20.09 5.14C20.2433 5.22667 20.3633 5.34 20.45 5.48C20.5367 5.61333 20.5967 5.76333 20.63 5.93C20.6633 6.10333 20.68 6.27 20.68 6.43V9.32C20.68 9.35333 20.6833 9.40667 20.69 9.48C20.69 9.54667 20.7033 9.61667 20.73 9.69C20.75 9.76333 20.7833 9.82667 20.83 9.88C20.8767 9.94 20.9467 9.97 21.04 9.97C21.18 9.97 21.3033 9.92 21.41 9.82C21.51 9.72 21.5967 9.59333 21.67 9.44C21.75 9.28667 21.8133 9.12333 21.86 8.95C21.9067 8.77667 21.9467 8.61333 21.98 8.46C22.0067 8.31333 22.05 8.20667 22.11 8.14C22.1767 8.07333 22.2433 8.04 22.31 8.04C22.3633 8.04 22.42 8.05667 22.48 8.09C22.54 8.12333 22.5933 8.16667 22.64 8.22C22.6933 8.28 22.7333 8.34333 22.76 8.41C22.7867 8.47667 22.8 8.54333 22.8 8.61C22.8 8.62333 22.8 8.63667 22.8 8.65C22.8 8.66333 22.7967 8.68333 22.79 8.71C22.73 8.94333 22.65 9.18667 22.55 9.44C22.4433 9.69333 22.31 9.92667 22.15 10.14C21.99 10.36 21.7967 10.54 21.57 10.68C21.35 10.82 21.09 10.89 20.79 10.89C20.6033 10.89 20.4367 10.8533 20.29 10.78C20.15 10.7133 20.0267 10.62 19.92 10.5C19.82 10.38 19.7433 10.24 19.69 10.08C19.6367 9.92 19.61 9.75333 19.61 9.58V6.73C19.61 6.62333 19.6067 6.52333 19.6 6.43C19.6 6.33 19.59 6.24333 19.57 6.17C19.55 6.09667 19.52 6.04 19.48 6C19.44 5.95333 19.3867 5.93 19.32 5.93C19.22 5.93 19.0967 6 18.95 6.14C18.8033 6.27333 18.66 6.45 18.52 6.67C18.38 6.89 18.2567 7.13667 18.15 7.41C18.0367 7.69 17.9667 7.96667 17.94 8.24V10.29C17.94 10.3567 17.94 10.4267 17.94 10.5C17.94 10.5667 17.9267 10.63 17.9 10.69C17.8733 10.7433 17.8333 10.79 17.78 10.83C17.7267 10.87 17.65 10.89 17.55 10.89C17.4833 10.89 17.41 10.8833 17.33 10.87C17.25 10.85 17.1767 10.82 17.11 10.78C17.0433 10.7333 16.99 10.67 16.95 10.59C16.9033 10.51 16.88 10.4033 16.88 10.27ZM23.5 10.89C23.2267 10.89 22.98 10.8433 22.76 10.75C22.5333 10.65 22.3433 10.5067 22.19 10.32C22.03 10.1333 21.9067 9.89667 21.82 9.61C21.74 9.33 21.7 9.00667 21.7 8.64C21.7 8.1 21.7733 7.62 21.92 7.2C22.0733 6.78 22.28 6.41667 22.54 6.11C22.8 5.81 23.1 5.57 23.44 5.39C23.78 5.21 24.1433 5.09333 24.53 5.04V1.87C24.53 1.77 24.52 1.69 24.5 1.63C24.4867 1.57 24.4733 1.52333 24.46 1.49C24.44 1.45667 24.4233 1.43 24.41 1.41C24.39 1.39 24.38 1.37 24.38 1.35C24.38 1.32333 24.3933 1.3 24.42 1.28C24.4533 1.26 24.49 1.24333 24.53 1.23C24.5767 1.21667 24.6267 1.20667 24.68 1.2C24.7333 1.19333 24.7833 1.19 24.83 1.19C25.0633 1.19 25.2467 1.25 25.38 1.37C25.52 1.49 25.59 1.63333 25.59 1.8V9.32C25.59 9.4 25.5967 9.47667 25.61 9.55C25.63 9.63 25.66 9.7 25.7 9.76C25.74 9.82 25.79 9.87 25.85 9.91C25.91 9.95 25.98 9.97 26.06 9.97C26.2067 9.97 26.33 9.92 26.43 9.82C26.53 9.72 26.62 9.59333 26.7 9.44C26.7733 9.28667 26.8333 9.12333 26.88 8.95C26.9267 8.77667 26.9667 8.61333 27 8.46C27.0267 8.31333 27.0733 8.20667 27.14 8.14C27.2 8.07333 27.2667 8.04 27.34 8.04C27.3933 8.04 27.45 8.05667 27.51 8.09C27.57 8.12333 27.6233 8.16667 27.67 8.22C27.7167 8.28 27.7533 8.34333 27.78 8.41C27.8133 8.47667 27.83 8.54333 27.83 8.61C27.83 8.62333 27.83 8.63667 27.83 8.65C27.83 8.66333 27.8233 8.68333 27.81 8.71C27.7567 8.94333 27.6767 9.18667 27.57 9.44C27.47 9.69333 27.34 9.92667 27.18 10.14C27.0133 10.36 26.82 10.54 26.6 10.68C26.3733 10.82 26.11 10.89 25.81 10.89C25.57 10.89 25.36 10.84 25.18 10.74C24.9933 10.64 24.85 10.5067 24.75 10.34C24.59 10.5 24.41 10.6333 24.21 10.74C24.0033 10.84 23.7667 10.89 23.5 10.89ZM23.71 9.97C23.8967 9.97 24.0567 9.91667 24.19 9.81C24.3233 9.70333 24.4367 9.57333 24.53 9.42V5.96C24.3033 6 24.0833 6.07667 23.87 6.19C23.6567 6.30333 23.47 6.46 23.31 6.66C23.1433 6.86 23.0133 7.11333 22.92 7.42C22.8267 7.72667 22.78 8.1 22.78 8.54C22.78 8.79333 22.8067 9.01 22.86 9.19C22.9067 9.37 22.9733 9.51667 23.06 9.63C23.1467 9.74333 23.2467 9.82667 23.36 9.88C23.4733 9.94 23.59 9.97 23.71 9.97ZM35.07 1.29V6.28H37.26V1.5C37.26 1 37.33 0.626667 37.47 0.38C37.6167 0.126667 37.79 0 37.99 0C38.09 0 38.1833 0.0300002 38.27 0.0900002C38.3567 0.15 38.4367 0.22 38.51 0.3C38.5767 0.38 38.63 0.46 38.67 0.54C38.71 0.626667 38.73 0.696667 38.73 0.75C38.73 0.796667 38.71 0.823333 38.67 0.83C38.63 0.836667 38.5867 0.863333 38.54 0.91C38.4933 0.95 38.45 1.03333 38.41 1.16C38.37 1.28667 38.35 1.49667 38.35 1.79V10.57C38.35 10.69 38.31 10.7733 38.23 10.82C38.15 10.8667 38.0567 10.89 37.95 10.89C37.87 10.89 37.79 10.88 37.71 10.86C37.6233 10.8333 37.5467 10.8033 37.48 10.77C37.42 10.73 37.3667 10.6867 37.32 10.64C37.28 10.5933 37.26 10.5433 37.26 10.49V7.25H35.07V10.57C35.07 10.69 35.0333 10.7733 34.96 10.82C34.88 10.8667 34.7867 10.89 34.68 10.89C34.6 10.89 34.5167 10.88 34.43 10.86C34.35 10.8333 34.2767 10.8033 34.21 10.77C34.1433 10.73 34.09 10.6867 34.05 10.64C34.0033 10.5933 33.98 10.5433 33.98 10.49V7.25H32.98C32.9067 7.25 32.84 7.22667 32.78 7.18C32.72 7.14 32.6667 7.08333 32.62 7.01C32.58 6.93667 32.5467 6.86 32.52 6.78C32.4933 6.7 32.48 6.62333 32.48 6.55C32.48 6.47 32.5 6.40333 32.54 6.35C32.5733 6.30333 32.6233 6.28 32.69 6.28H33.98V1.75C33.5467 1.75 33.15 1.82333 32.79 1.97C32.4233 2.11 32.11 2.31333 31.85 2.58C31.59 2.84667 31.3867 3.17 31.24 3.55C31.0867 3.93 31.01 4.35333 31.01 4.82C31.01 5.11333 31.04 5.38 31.1 5.62C31.16 5.85333 31.23 6.05333 31.31 6.22C31.3967 6.38667 31.48 6.51667 31.56 6.61C31.64 6.70333 31.7033 6.75 31.75 6.75C31.79 6.75 31.82 6.73667 31.84 6.71C31.86 6.69 31.8867 6.68 31.92 6.68C31.96 6.68 31.9833 6.70333 31.99 6.75C32.0033 6.80333 32.01 6.85333 32.01 6.9C32.01 7.04667 31.98 7.18667 31.92 7.32C31.86 7.44667 31.7833 7.55 31.69 7.63C31.6033 7.71 31.5067 7.76 31.4 7.78C31.2867 7.8 31.18 7.77333 31.08 7.7C30.96 7.61333 30.83 7.48667 30.69 7.32C30.55 7.16 30.4233 6.96333 30.31 6.73C30.19 6.49 30.0933 6.21333 30.02 5.9C29.9467 5.58667 29.91 5.24 29.91 4.86C29.91 4.36667 29.9733 3.92 30.1 3.52C30.2333 3.12 30.41 2.76667 30.63 2.46C30.85 2.15333 31.11 1.88667 31.41 1.66C31.71 1.44 32.03 1.26 32.37 1.12C32.71 0.973333 33.0633 0.866667 33.43 0.8C33.7967 0.733334 34.1567 0.7 34.51 0.7C34.5833 0.7 34.6567 0.713333 34.73 0.74C34.7967 0.773333 34.8533 0.813333 34.9 0.86C34.9533 0.913333 34.9967 0.976667 35.03 1.05C35.0567 1.12333 35.07 1.20333 35.07 1.29ZM44.76 8.19C44.7667 8.13667 44.7967 8.09 44.85 8.05C44.9033 8.01667 44.9633 7.99333 45.03 7.98C45.1033 7.96667 45.1767 7.96667 45.25 7.98C45.3233 7.99333 45.39 8.02333 45.45 8.07C45.5033 8.11667 45.5433 8.18333 45.57 8.27C45.5967 8.35 45.5933 8.45667 45.56 8.59C45.52 8.78333 45.4533 8.96333 45.36 9.13C45.2667 9.29667 45.15 9.44333 45.01 9.57C44.87 9.69667 44.7033 9.79667 44.51 9.87C44.3167 9.94333 44.1033 9.98 43.87 9.98C43.7367 9.98 43.6167 9.97333 43.51 9.96C43.3967 9.94667 43.2867 9.92 43.18 9.88C43.0067 10.1867 42.7833 10.43 42.51 10.61C42.2367 10.7967 41.9 10.89 41.5 10.89C41.1467 10.89 40.84 10.82 40.58 10.68C40.3267 10.54 40.1167 10.35 39.95 10.11C39.7833 9.87 39.66 9.59333 39.58 9.28C39.5 8.96667 39.46 8.63667 39.46 8.29C39.46 7.77 39.52 7.30667 39.64 6.9C39.76 6.49333 39.9 6.14667 40.06 5.86C40.22 5.57333 40.3767 5.35667 40.53 5.21C40.69 5.05667 40.81 4.98 40.89 4.98C40.9767 4.98 41.0567 5.02 41.13 5.1C41.21 5.18 41.2667 5.27333 41.3 5.38C41.3333 5.48667 41.3433 5.59667 41.33 5.71C41.31 5.81667 41.2567 5.9 41.17 5.96C41.11 6.04667 41.0433 6.14667 40.97 6.26C40.8967 6.37333 40.8267 6.51667 40.76 6.69C40.6933 6.86333 40.6367 7.07 40.59 7.31C40.5433 7.55667 40.52 7.85333 40.52 8.2C40.52 8.5 40.5467 8.76 40.6 8.98C40.6533 9.19333 40.7267 9.37667 40.82 9.53C40.9133 9.67667 41.02 9.78667 41.14 9.86C41.26 9.93333 41.39 9.97 41.53 9.97C41.73 9.97 41.8933 9.92 42.02 9.82C42.1533 9.72 42.2633 9.59 42.35 9.43C42.0233 9.15 41.7767 8.79333 41.61 8.36C41.4367 7.92 41.35 7.45 41.35 6.95C41.35 6.73 41.3733 6.52 41.42 6.32C41.4667 6.12 41.5367 5.94667 41.63 5.8C41.7233 5.64667 41.8433 5.52667 41.99 5.44C42.13 5.34667 42.2933 5.3 42.48 5.3C42.64 5.3 42.7933 5.36 42.94 5.48C43.0867 5.6 43.2167 5.76333 43.33 5.97C43.4367 6.18333 43.52 6.43333 43.58 6.72C43.64 7.00667 43.67 7.32 43.67 7.66C43.67 7.92 43.6567 8.17667 43.63 8.43C43.5967 8.68333 43.5467 8.93 43.48 9.17C43.5267 9.18333 43.5733 9.19333 43.62 9.2C43.66 9.2 43.7067 9.2 43.76 9.2C43.9067 9.2 44.04 9.17333 44.16 9.12C44.2733 9.06667 44.37 8.99333 44.45 8.9C44.5367 8.80667 44.6033 8.7 44.65 8.58C44.7033 8.45333 44.74 8.32333 44.76 8.19ZM42.09 6.89C42.09 7.20333 42.14 7.50333 42.24 7.79C42.3333 8.07 42.46 8.31333 42.62 8.52C42.6467 8.3 42.66 8.08667 42.66 7.88C42.66 7.64667 42.6567 7.42667 42.65 7.22C42.6433 7.02 42.6267 6.84667 42.6 6.7C42.58 6.55333 42.5467 6.43667 42.5 6.35C42.46 6.27 42.4033 6.23 42.33 6.23C42.17 6.23 42.09 6.45 42.09 6.89ZM43.5 3.92C43.6067 3.92667 43.7233 3.93333 43.85 3.94C43.9633 3.94667 44.0967 3.95 44.25 3.95C44.4033 3.95667 44.5767 3.96 44.77 3.96V1.59C44.77 1.49 44.76 1.41 44.74 1.35C44.7267 1.29 44.7133 1.24333 44.7 1.21C44.68 1.17667 44.6633 1.15 44.65 1.13C44.63 1.11 44.62 1.09 44.62 1.07C44.62 1.04333 44.6367 1.02 44.67 1C44.6967 0.98 44.73 0.963333 44.77 0.95C44.8167 0.936666 44.8667 0.926667 44.92 0.92C44.9733 0.913333 45.0267 0.91 45.08 0.91C45.3067 0.91 45.49 0.97 45.63 1.09C45.7633 1.21 45.83 1.35333 45.83 1.52V3.98C46.2567 3.98 46.7067 3.97333 47.18 3.96C47.66 3.95333 48.14 3.94 48.62 3.92C48.68 3.84667 48.73 3.82 48.77 3.84C48.81 3.86 48.8367 3.90333 48.85 3.97C48.8567 4.03667 48.8567 4.12 48.85 4.22C48.8433 4.32667 48.8233 4.42667 48.79 4.52C48.7633 4.61333 48.7267 4.69333 48.68 4.76C48.6333 4.82667 48.58 4.86 48.52 4.86C47.96 4.87333 47.4633 4.88 47.03 4.88C46.6033 4.88667 46.2033 4.89 45.83 4.89V9.32C45.83 9.55333 45.8733 9.72 45.96 9.82C46.0467 9.92 46.1633 9.97 46.31 9.97C46.45 9.97 46.57 9.92 46.67 9.82C46.7767 9.72 46.8667 9.59333 46.94 9.44C47.0133 9.28667 47.0733 9.12333 47.12 8.95C47.1667 8.77667 47.2067 8.61333 47.24 8.46C47.2667 8.31333 47.3133 8.20667 47.38 8.14C47.4467 8.07333 47.5133 8.04 47.58 8.04C47.6333 8.04 47.69 8.05667 47.75 8.09C47.81 8.12333 47.8633 8.16667 47.91 8.22C47.9567 8.28 47.9967 8.34333 48.03 8.41C48.0567 8.47667 48.07 8.54333 48.07 8.61C48.07 8.62333 48.07 8.63667 48.07 8.65C48.07 8.66333 48.0667 8.68333 48.06 8.71C48 8.94333 47.9167 9.18667 47.81 9.44C47.71 9.69333 47.58 9.92667 47.42 10.14C47.2533 10.36 47.06 10.54 46.84 10.68C46.6133 10.82 46.35 10.89 46.05 10.89C45.8633 10.89 45.6933 10.86 45.54 10.8C45.38 10.7467 45.2433 10.6567 45.13 10.53C45.0167 10.4033 44.9267 10.2433 44.86 10.05C44.8 9.85 44.77 9.61333 44.77 9.34V4.89C44.6167 4.89 44.4767 4.88667 44.35 4.88C44.23 4.88 44.13 4.87667 44.05 4.87C43.9567 4.87 43.8733 4.86667 43.8 4.86C43.6867 4.86 43.59 4.81 43.51 4.71C43.4233 4.61667 43.3633 4.51 43.33 4.39C43.2967 4.27 43.2933 4.16 43.32 4.06C43.34 3.96667 43.4 3.92 43.5 3.92ZM50.52 6.43C50.52 6.69 50.4767 6.95667 50.39 7.23C50.3033 7.50333 50.17 7.76 49.99 8C49.8167 8.24667 49.6 8.46667 49.34 8.66C49.0867 8.85333 48.79 9 48.45 9.1C48.4967 9.22 48.5567 9.33333 48.63 9.44C48.71 9.54667 48.8 9.63667 48.9 9.71C49.0067 9.79 49.13 9.85333 49.27 9.9C49.41 9.94667 49.57 9.97 49.75 9.97C50.0233 9.97 50.26 9.91667 50.46 9.81C50.6533 9.71 50.8167 9.57667 50.95 9.41C51.0833 9.23667 51.1933 9.04667 51.28 8.84C51.36 8.62667 51.42 8.41333 51.46 8.2C51.4933 8.04667 51.56 7.94333 51.66 7.89C51.7533 7.83667 51.8533 7.82333 51.96 7.85C52.06 7.88333 52.1467 7.94333 52.22 8.03C52.3 8.11667 52.33 8.22333 52.31 8.35C52.2967 8.49 52.2667 8.65 52.22 8.83C52.18 9.01667 52.1167 9.20333 52.03 9.39C51.9433 9.57667 51.8333 9.76 51.7 9.94C51.56 10.12 51.3933 10.28 51.2 10.42C51.0067 10.56 50.7767 10.6733 50.51 10.76C50.2433 10.8467 49.94 10.89 49.6 10.89C49.28 10.89 48.97 10.8267 48.67 10.7C48.3767 10.5733 48.1133 10.3933 47.88 10.16C47.6533 9.92667 47.47 9.63667 47.33 9.29C47.19 8.95 47.12 8.56 47.12 8.12C47.12 7.68 47.18 7.27 47.3 6.89C47.4267 6.51 47.59 6.18 47.79 5.9C47.99 5.62 48.2167 5.40333 48.47 5.25C48.73 5.09 48.9933 5.01 49.26 5.01C49.4533 5.01 49.63 5.04333 49.79 5.11C49.9433 5.18333 50.0767 5.28 50.19 5.4C50.2967 5.52667 50.38 5.67667 50.44 5.85C50.4933 6.02333 50.52 6.21667 50.52 6.43ZM48.27 8.08C48.27 8.12 48.27 8.16 48.27 8.2C48.2767 8.24 48.28 8.28333 48.28 8.33C48.4533 8.25 48.61 8.14667 48.75 8.02C48.8967 7.89333 49.02 7.74667 49.12 7.58C49.22 7.41333 49.2967 7.23333 49.35 7.04C49.4033 6.84667 49.43 6.64667 49.43 6.44C49.43 6.28667 49.4033 6.16667 49.35 6.08C49.2967 5.99333 49.2267 5.95 49.14 5.95C49.0267 5.95 48.9233 5.98667 48.83 6.06C48.7433 6.14 48.6667 6.24333 48.6 6.37C48.5333 6.49667 48.48 6.63667 48.44 6.79C48.3933 6.95 48.3567 7.11 48.33 7.27C48.3033 7.43 48.2833 7.58 48.27 7.72C48.2633 7.86667 48.2633 7.98667 48.27 8.08ZM52.52 2.37V6.36C52.5733 6.26 52.6233 6.13 52.67 5.97C52.7167 5.81 52.76 5.63 52.8 5.43C52.8467 5.23667 52.8867 5.03333 52.92 4.82C52.96 4.60667 52.9933 4.39667 53.02 4.19C53.0467 3.98333 53.0667 3.79 53.08 3.61C53.1 3.43 53.11 3.27667 53.11 3.15C53.11 2.68333 53.0767 2.34333 53.01 2.13C52.9367 1.91 52.8433 1.8 52.73 1.8C52.6967 1.8 52.6667 1.82 52.64 1.86C52.6133 1.89333 52.59 1.94 52.57 2C52.55 2.05333 52.5367 2.11333 52.53 2.18C52.5233 2.24667 52.52 2.31 52.52 2.37ZM54.51 8.47C54.5367 8.33 54.58 8.23 54.64 8.17C54.6933 8.11 54.7533 8.07667 54.82 8.07C54.8867 8.06333 54.9533 8.08 55.02 8.12C55.0867 8.16 55.1467 8.21 55.2 8.27C55.2467 8.33667 55.2833 8.41 55.31 8.49C55.3367 8.57 55.34 8.64667 55.32 8.72C55.26 8.90667 55.17 9.12667 55.05 9.38C54.93 9.62667 54.78 9.86333 54.6 10.09C54.4133 10.31 54.2 10.5 53.96 10.66C53.7133 10.8133 53.43 10.89 53.11 10.89C52.8367 10.89 52.6 10.8467 52.4 10.76C52.1933 10.6667 52.02 10.54 51.88 10.38C51.74 10.22 51.6367 10.0267 51.57 9.8C51.4967 9.57333 51.46 9.32 51.46 9.04V2.67C51.46 2.41 51.4933 2.17 51.56 1.95C51.6267 1.73 51.7167 1.54 51.83 1.38C51.95 1.22667 52.0867 1.10667 52.24 1.02C52.3933 0.926667 52.5567 0.88 52.73 0.88C52.9367 0.88 53.11 0.916666 53.25 0.99C53.39 1.07 53.5067 1.17 53.6 1.29C53.6933 1.41667 53.7667 1.56 53.82 1.72C53.8667 1.88 53.9033 2.04 53.93 2.2C53.95 2.36667 53.9633 2.53333 53.97 2.7C53.9767 2.86 53.98 3.00667 53.98 3.14C53.98 3.48 53.9467 3.83667 53.88 4.21C53.8133 4.59 53.7333 4.96333 53.64 5.33C53.54 5.69 53.4333 6.03667 53.32 6.37C53.2 6.71 53.0867 7.01 52.98 7.27C52.8733 7.53 52.7767 7.74 52.69 7.9C52.61 8.06667 52.5533 8.16333 52.52 8.19V9C52.52 9.28667 52.58 9.52 52.7 9.7C52.82 9.88 53.01 9.97 53.27 9.97C53.4233 9.97 53.57 9.92 53.71 9.82C53.85 9.72 53.9733 9.59667 54.08 9.45C54.1867 9.30333 54.2767 9.14333 54.35 8.97C54.4233 8.79 54.4767 8.62333 54.51 8.47Z" fill="black"/>
</svg>
