<svg width="96" height="11" viewBox="0 0 96 11" fill="none" xmlns="http://www.w3.org/2000/svg">
<path d="M4.88 10.36C3.92 10.36 3.11667 10.1667 2.47 9.78C1.82333 9.38667 1.33333 8.83 1 8.11C0.666667 7.38333 0.5 6.51333 0.5 5.5C0.5 4.55333 0.653333 3.71333 0.96 2.98C1.26667 2.25333 1.71333 1.68333 2.3 1.27C2.89333 0.856667 3.61667 0.65 4.47 0.65C5.01 0.65 5.48667 0.73 5.9 0.89C6.31333 1.04333 6.66667 1.24333 6.96 1.49C7.25333 1.73 7.48 1.98 7.64 2.24C7.58667 2.30667 7.5 2.4 7.38 2.52C7.25333 2.64 7.12 2.76 6.98 2.88C6.84 3 6.70333 3.1 6.57 3.18C6.37667 2.88 6.17667 2.64667 5.97 2.48C5.76333 2.30667 5.53333 2.18667 5.28 2.12C5.03333 2.04667 4.74667 2.01 4.42 2.01C4.12667 2.01 3.83333 2.08 3.54 2.22C3.25333 2.36 2.98667 2.57333 2.74 2.86C2.5 3.14667 2.30667 3.50667 2.16 3.94C2.01333 4.37333 1.94 4.88 1.94 5.46C1.94 6.20667 2.04667 6.85 2.26 7.39C2.46667 7.93 2.79 8.34667 3.23 8.64C3.66333 8.92667 4.21667 9.07 4.89 9.07C5.39667 9.07 5.8 8.96667 6.1 8.76C6.39333 8.55333 6.60667 8.27667 6.74 7.93C6.86667 7.59 6.93 7.22333 6.93 6.83C6.93 6.75 6.92667 6.66667 6.92 6.58C6.92 6.49333 6.91667 6.41333 6.91 6.34C6.80333 6.31333 6.63 6.28333 6.39 6.25C6.14333 6.21667 5.87 6.18 5.57 6.14C5.27 6.10667 4.98 6.07333 4.7 6.04C4.41333 6.00667 4.18333 5.99 4.01 5.99C4.00333 5.90333 4 5.79333 4 5.66C4 5.52667 4.00333 5.39 4.01 5.25C4.01667 5.11 4.02 4.99667 4.02 4.91C4.37333 4.92333 4.8 4.95333 5.3 5C5.8 5.04667 6.30333 5.10667 6.81 5.18C7.32333 5.24667 7.77333 5.32333 8.16 5.41C8.19333 5.60333 8.21667 5.80667 8.23 6.02C8.25 6.23333 8.26 6.43667 8.26 6.63C8.26 7.34333 8.14 7.98 7.9 8.54C7.66667 9.10667 7.30333 9.55 6.81 9.87C6.31667 10.1967 5.67333 10.36 4.88 10.36ZM10.86 3.82C11 3.58 11.2033 3.36333 11.47 3.17C11.7367 2.97 12.04 2.81333 12.38 2.7C12.72 2.58 13.06 2.52 13.4 2.52C13.62 2.52 13.84 2.54 14.06 2.58C14.2867 2.62 14.4633 2.67667 14.59 2.75L14.31 4.15C14.1967 4.10333 14.0533 4.05333 13.88 4C13.7 3.94667 13.4833 3.92 13.23 3.92C12.9567 3.92 12.6833 3.97 12.41 4.07C12.1367 4.17 11.8833 4.30667 11.65 4.48C11.4233 4.65333 11.2333 4.85333 11.08 5.08C11.1467 5.40667 11.21 5.80333 11.27 6.27C11.3367 6.74333 11.3933 7.22667 11.44 7.72C11.4933 8.22 11.5367 8.67333 11.57 9.08C11.6033 9.48667 11.62 9.79333 11.62 10C11.42 10.02 11.1733 10.03 10.88 10.03C10.5933 10.0367 10.33 10.0367 10.09 10.03C10.09 9.59667 10.08 9.14 10.06 8.66C10.04 8.17333 10.01 7.67667 9.97 7.17C9.93 6.66333 9.88 6.16 9.82 5.66C9.76 5.15333 9.69 4.66333 9.61 4.19C9.52333 3.71667 9.43 3.26667 9.33 2.84C9.45667 2.80667 9.60333 2.77 9.77 2.73C9.94333 2.69667 10.1033 2.66667 10.25 2.64C10.39 2.60667 10.4867 2.59 10.54 2.59C10.6 2.74333 10.6633 2.94667 10.73 3.2C10.7967 3.45333 10.84 3.66 10.86 3.82ZM18.58 10.17C17.9933 10.17 17.4633 10.09 16.99 9.93C16.5167 9.77667 16.14 9.52667 15.86 9.18C15.58 8.82667 15.44 8.36333 15.44 7.79C15.44 7.23 15.5967 6.77 15.91 6.41C16.2233 6.04333 16.6467 5.77333 17.18 5.6C17.7133 5.42667 18.3133 5.34 18.98 5.34C19.2867 5.34 19.5867 5.36 19.88 5.4C20.1733 5.44667 20.4267 5.5 20.64 5.56C20.8533 5.62 21 5.66333 21.08 5.69C21.06 5.53667 21.03 5.38 20.99 5.22C20.95 5.06 20.8933 4.92 20.82 4.8C20.64 4.48667 20.38 4.22667 20.04 4.02C19.7067 3.82 19.2833 3.72 18.77 3.72C18.2367 3.72 17.7833 3.83667 17.41 4.07C17.0367 4.29667 16.7567 4.57 16.57 4.89L15.43 4.14C15.6367 3.83333 15.91 3.56333 16.25 3.33C16.5833 3.09667 16.97 2.91333 17.41 2.78C17.85 2.64667 18.32 2.58 18.82 2.58C19.6067 2.58 20.2567 2.73 20.77 3.03C21.2833 3.33 21.6567 3.72333 21.89 4.21C22.0167 4.45667 22.1133 4.72667 22.18 5.02C22.2533 5.31333 22.2967 5.67667 22.31 6.11C22.3167 6.57 22.3267 6.96 22.34 7.28C22.3533 7.60667 22.3667 7.88667 22.38 8.12C22.4 8.42 22.4467 8.61333 22.52 8.7C22.5867 8.79333 22.6867 8.84 22.82 8.84C22.9667 8.84 23.0933 8.77333 23.2 8.64C23.3 8.51333 23.3567 8.33333 23.37 8.1L24.04 8.84C24.0133 9.23333 23.8767 9.53333 23.63 9.74C23.3833 9.94667 23.0933 10.05 22.76 10.05C22.5 10.05 22.27 10 22.07 9.9C21.87 9.8 21.7133 9.67 21.6 9.51C21.4867 9.35 21.42 9.18667 21.4 9.02C21.3067 9.19333 21.1233 9.36667 20.85 9.54C20.5833 9.72 20.2567 9.87 19.87 9.99C19.4767 10.11 19.0467 10.17 18.58 10.17ZM18.83 9.07C19.13 9.07 19.4267 9.02333 19.72 8.93C20.0067 8.83667 20.2733 8.71333 20.52 8.56C20.7667 8.40667 20.9667 8.23667 21.12 8.05C21.12 7.75667 21.12 7.49667 21.12 7.27C21.1267 7.04333 21.1367 6.83667 21.15 6.65C21.01 6.60333 20.75 6.54 20.37 6.46C19.9833 6.38 19.55 6.34 19.07 6.34C18.6567 6.34 18.28 6.39667 17.94 6.51C17.6 6.61667 17.3333 6.77333 17.14 6.98C16.94 7.18667 16.84 7.43333 16.84 7.72C16.84 8.07333 16.9267 8.34667 17.1 8.54C17.2667 8.73333 17.5 8.87 17.8 8.95C18.1 9.03 18.4433 9.07 18.83 9.07ZM26.23 10.11C26.1433 10.11 26.0367 10.11 25.91 10.11C25.7833 10.1167 25.6567 10.1167 25.53 10.11C25.4167 10.1033 25.2833 10.0967 25.13 10.09C24.9833 10.0833 24.8767 10.0767 24.81 10.07C24.8567 9.68333 24.8967 9.26 24.93 8.8C24.9633 8.34 24.9933 7.82 25.02 7.24C25.04 6.66667 25.0567 6.01333 25.07 5.28C25.0833 4.54667 25.09 3.71 25.09 2.77C25.2033 2.75 25.34 2.73333 25.5 2.72C25.6533 2.70667 25.81 2.7 25.97 2.7C26.0767 2.7 26.1833 2.70333 26.29 2.71C26.39 2.71667 26.48 2.72667 26.56 2.74C26.5667 2.79333 26.57 2.88667 26.57 3.02C26.5767 3.15333 26.5767 3.30333 26.57 3.47C26.57 3.63 26.57 3.77333 26.57 3.9C26.7433 3.70667 26.9867 3.51 27.3 3.31C27.62 3.11 27.9767 2.94333 28.37 2.81C28.7633 2.67 29.1567 2.6 29.55 2.6C30.2633 2.6 30.8033 2.74 31.17 3.02C31.5367 3.30667 31.7867 3.72333 31.92 4.27C32.0533 4.82333 32.12 5.50667 32.12 6.32C32.12 6.64 32.1133 7 32.1 7.4C32.08 7.8 32.0533 8.22667 32.02 8.68C31.9867 9.12667 31.94 9.58 31.88 10.04C31.8133 10.0533 31.7167 10.0633 31.59 10.07C31.4567 10.0767 31.3133 10.08 31.16 10.08C31.0133 10.08 30.8733 10.0767 30.74 10.07C30.6 10.0633 30.49 10.0533 30.41 10.04C30.47 9.64667 30.5267 9.23333 30.58 8.8C30.6333 8.36667 30.6767 7.93667 30.71 7.51C30.7433 7.08333 30.76 6.68 30.76 6.3C30.76 5.81333 30.7233 5.39 30.65 5.03C30.5767 4.66333 30.4333 4.38 30.22 4.18C30.0067 3.98 29.6967 3.88 29.29 3.88C28.8633 3.88 28.4733 3.95 28.12 4.09C27.76 4.23 27.45 4.39667 27.19 4.59C26.9233 4.78333 26.71 4.95333 26.55 5.1C26.53 5.88667 26.5 6.61 26.46 7.27C26.4267 7.93 26.39 8.5 26.35 8.98C26.3033 9.46667 26.2633 9.84333 26.23 10.11ZM39.41 10C39.41 9.92 39.4067 9.8 39.4 9.64C39.3933 9.48 39.39 9.32 39.39 9.16C39.39 9.00667 39.39 8.89333 39.39 8.82C39.3633 8.87333 39.2933 8.96333 39.18 9.09C39.0667 9.21667 38.9067 9.35 38.7 9.49C38.5 9.63 38.2467 9.74667 37.94 9.84C37.6333 9.94 37.2667 9.99 36.84 9.99C36.2133 9.99 35.68 9.85333 35.24 9.58C34.7933 9.30667 34.4533 8.92667 34.22 8.44C33.9933 7.94667 33.88 7.38 33.88 6.74C33.88 6.13333 33.9967 5.57 34.23 5.05C34.4633 4.53 34.8133 4.11 35.28 3.79C35.7467 3.47 36.33 3.31 37.03 3.31C37.45 3.31 37.8233 3.35667 38.15 3.45C38.4833 3.54333 38.76 3.65333 38.98 3.78C39.2 3.90667 39.3567 4.02 39.45 4.12C39.4567 3.91333 39.47 3.66 39.49 3.36C39.51 3.05333 39.5333 2.73 39.56 2.39C39.58 2.05 39.6033 1.72 39.63 1.4C39.65 1.08 39.67 0.8 39.69 0.56C39.71 0.313333 39.7267 0.143334 39.74 0.0500002C39.9267 0.0500002 40.1333 0.0566668 40.36 0.0700002C40.5867 0.0900002 40.78 0.116667 40.94 0.15C40.86 1.24333 40.7967 2.33 40.75 3.41C40.7033 4.49 40.6733 5.58 40.66 6.68C40.6467 7.78 40.64 8.89667 40.64 10.03C40.5733 10.03 40.4567 10.03 40.29 10.03C40.1233 10.03 39.9567 10.0267 39.79 10.02C39.6167 10.0133 39.49 10.0067 39.41 10ZM37.18 8.7C37.5 8.7 37.7867 8.65333 38.04 8.56C38.2867 8.46667 38.5 8.35 38.68 8.21C38.86 8.07 39.0067 7.93333 39.12 7.8C39.2333 7.66 39.3133 7.55 39.36 7.47C39.36 7.35667 39.36 7.19667 39.36 6.99C39.3667 6.78333 39.37 6.56333 39.37 6.33C39.37 6.10333 39.3733 5.89 39.38 5.69C39.38 5.49 39.3833 5.34 39.39 5.24C39.2833 5.14 39.1233 5.03333 38.91 4.92C38.6967 4.8 38.4467 4.7 38.16 4.62C37.88 4.53333 37.5767 4.49 37.25 4.49C36.5767 4.49 36.0667 4.68333 35.72 5.07C35.3667 5.46333 35.19 5.99333 35.19 6.66C35.19 7.33333 35.36 7.84333 35.7 8.19C36.0467 8.53 36.54 8.7 37.18 8.7ZM45.28 10.59C44.8467 10.59 44.4167 10.53 43.99 10.41C43.5567 10.2833 43.1633 10.12 42.81 9.92C42.4633 9.71333 42.1833 9.48667 41.97 9.24C42.0033 9.18 42.05 9.09333 42.11 8.98C42.17 8.86667 42.24 8.74667 42.32 8.62C42.4 8.5 42.48 8.38667 42.56 8.28C42.64 8.17333 42.71 8.09333 42.77 8.04C42.97 8.26667 43.21 8.48333 43.49 8.69C43.77 8.89667 44.07 9.06333 44.39 9.19C44.7167 9.31667 45.04 9.38 45.36 9.38C45.6667 9.38 45.9433 9.33667 46.19 9.25C46.4433 9.15667 46.6433 9.02333 46.79 8.85C46.9367 8.67667 47.01 8.47 47.01 8.23C47.01 7.95 46.92 7.70667 46.74 7.5C46.5667 7.3 46.33 7.12 46.03 6.96C45.73 6.80667 45.4 6.66333 45.04 6.53C44.6067 6.37667 44.2133 6.20333 43.86 6.01C43.5 5.82333 43.2133 5.58667 43 5.3C42.7867 5.02 42.68 4.66 42.68 4.22C42.68 3.76667 42.81 3.39333 43.07 3.1C43.3233 2.8 43.6567 2.57333 44.07 2.42C44.49 2.26667 44.9433 2.19 45.43 2.19C45.97 2.19 46.4667 2.25667 46.92 2.39C47.38 2.53 47.73 2.69 47.97 2.87C47.95 2.95 47.91 3.05333 47.85 3.18C47.79 3.31333 47.72 3.44333 47.64 3.57C47.56 3.70333 47.48 3.82333 47.4 3.93C47.1733 3.78333 46.9 3.64 46.58 3.5C46.2533 3.36667 45.9033 3.3 45.53 3.3C45.2767 3.3 45.0333 3.33 44.8 3.39C44.5667 3.45 44.3733 3.54667 44.22 3.68C44.0733 3.81333 44 3.99667 44 4.23C44 4.43 44.0733 4.61 44.22 4.77C44.3667 4.93 44.5667 5.07 44.82 5.19C45.0733 5.31667 45.3567 5.43667 45.67 5.55C46.0567 5.67667 46.4133 5.82 46.74 5.98C47.0667 6.14667 47.35 6.33333 47.59 6.54C47.83 6.74667 48.0167 6.98333 48.15 7.25C48.2833 7.51667 48.35 7.82 48.35 8.16C48.35 8.69333 48.2133 9.14 47.94 9.5C47.6667 9.86 47.3 10.13 46.84 10.31C46.3733 10.4967 45.8533 10.59 45.28 10.59ZM54.63 8.72C54.5567 8.94 54.4467 9.17333 54.3 9.42C54.16 9.66667 53.96 9.87333 53.7 10.04C53.4467 10.2133 53.1167 10.3 52.71 10.3C52.1833 10.3 51.77 10.1867 51.47 9.96C51.1633 9.72667 50.9433 9.42333 50.81 9.05C50.6833 8.67667 50.62 8.27333 50.62 7.84C50.62 7.60667 50.6233 7.33333 50.63 7.02C50.6367 6.71333 50.6433 6.39 50.65 6.05C50.6567 5.71667 50.6667 5.39 50.68 5.07C50.6933 4.75667 50.7033 4.48 50.71 4.24C50.7233 4 50.73 3.82333 50.73 3.71C50.2767 3.75667 49.8833 3.80667 49.55 3.86C49.2167 3.91333 49.0033 3.95333 48.91 3.98C48.8833 3.82667 48.86 3.67 48.84 3.51C48.8267 3.34333 48.8167 3.19333 48.81 3.06C48.8033 2.92 48.8 2.82667 48.8 2.78C49.06 2.74667 49.3633 2.70667 49.71 2.66C50.0567 2.62 50.4 2.58667 50.74 2.56C50.7467 2.38 50.75 2.15667 50.75 1.89C50.75 1.62333 50.75 1.37 50.75 1.13C50.7433 0.93 50.7333 0.736667 50.72 0.55C50.7067 0.356667 50.6967 0.196667 50.69 0.0700002L52 0C52.0133 0.0666667 52.0233 0.233333 52.03 0.5C52.0433 0.76 52.05 1.07667 52.05 1.45C52.05 1.59 52.05 1.76 52.05 1.96C52.05 2.16 52.05 2.33667 52.05 2.49C52.19 2.47667 52.3633 2.46667 52.57 2.46C52.7767 2.45333 52.9433 2.45 53.07 2.45C53.2833 2.44333 53.4933 2.44 53.7 2.44C53.9 2.44 54.07 2.44333 54.21 2.45C54.3567 2.45 54.4467 2.45333 54.48 2.46C54.5 2.58667 54.5133 2.76 54.52 2.98C54.5333 3.20667 54.54 3.39333 54.54 3.54C54.4933 3.54 54.3333 3.53667 54.06 3.53C53.7867 3.53 53.5167 3.53333 53.25 3.54C53.0567 3.54 52.8467 3.54667 52.62 3.56C52.3867 3.57333 52.19 3.58333 52.03 3.59C52.0233 3.71667 52.0133 3.89667 52 4.13C51.9933 4.37 51.9833 4.63667 51.97 4.93C51.9633 5.23 51.9567 5.53333 51.95 5.84C51.9367 6.14667 51.9267 6.43 51.92 6.69C51.92 6.95667 51.92 7.17 51.92 7.33C51.92 7.62333 51.9367 7.90333 51.97 8.17C52.0033 8.43667 52.0867 8.65667 52.22 8.83C52.3533 8.99667 52.5667 9.08 52.86 9.08C53.0533 9.08 53.21 9.01 53.33 8.87C53.45 8.73 53.5433 8.57 53.61 8.39C53.6833 8.21 53.7367 8.05667 53.77 7.93C53.81 7.97667 53.87 8.04 53.95 8.12C54.03 8.19333 54.12 8.27333 54.22 8.36C54.3133 8.44667 54.4 8.52 54.48 8.58C54.5533 8.64667 54.6033 8.69333 54.63 8.72ZM58.77 10.17C58.19 10.17 57.66 10.09 57.18 9.93C56.7067 9.77667 56.33 9.52667 56.05 9.18C55.77 8.82667 55.63 8.36333 55.63 7.79C55.63 7.23 55.7867 6.77 56.1 6.41C56.4133 6.04333 56.8367 5.77333 57.37 5.6C57.91 5.42667 58.51 5.34 59.17 5.34C59.4767 5.34 59.7767 5.36 60.07 5.4C60.3633 5.44667 60.62 5.5 60.84 5.56C61.0533 5.62 61.1967 5.66333 61.27 5.69C61.2567 5.53667 61.23 5.38 61.19 5.22C61.15 5.06 61.09 4.92 61.01 4.8C60.83 4.48667 60.5733 4.22667 60.24 4.02C59.9 3.82 59.4767 3.72 58.97 3.72C58.43 3.72 57.9733 3.83667 57.6 4.07C57.2267 4.29667 56.9467 4.57 56.76 4.89L55.63 4.14C55.8367 3.83333 56.1067 3.56333 56.44 3.33C56.7733 3.09667 57.16 2.91333 57.6 2.78C58.04 2.64667 58.5133 2.58 59.02 2.58C59.8 2.58 60.4467 2.73 60.96 3.03C61.4733 3.33 61.85 3.72333 62.09 4.21C62.21 4.45667 62.3067 4.72667 62.38 5.02C62.4467 5.31333 62.4867 5.67667 62.5 6.11C62.5133 6.57 62.5233 6.96 62.53 7.28C62.5433 7.60667 62.5567 7.88667 62.57 8.12C62.5967 8.42 62.6433 8.61333 62.71 8.7C62.7833 8.79333 62.8833 8.84 63.01 8.84C63.1633 8.84 63.29 8.77333 63.39 8.64C63.49 8.51333 63.55 8.33333 63.57 8.1L64.24 8.84C64.2133 9.23333 64.0733 9.53333 63.82 9.74C63.5733 9.94667 63.2867 10.05 62.96 10.05C62.6933 10.05 62.4633 10 62.27 9.9C62.07 9.8 61.91 9.67 61.79 9.51C61.6767 9.35 61.61 9.18667 61.59 9.02C61.4967 9.19333 61.3167 9.36667 61.05 9.54C60.7833 9.72 60.4533 9.87 60.06 9.99C59.6733 10.11 59.2433 10.17 58.77 10.17ZM59.02 9.07C59.3267 9.07 59.6233 9.02333 59.91 8.93C60.2033 8.83667 60.47 8.71333 60.71 8.56C60.9567 8.40667 61.16 8.23667 61.32 8.05C61.3133 7.75667 61.3133 7.49667 61.32 7.27C61.3267 7.04333 61.3333 6.83667 61.34 6.65C61.2067 6.60333 60.9467 6.54 60.56 6.46C60.18 6.38 59.75 6.34 59.27 6.34C58.85 6.34 58.4733 6.39667 58.14 6.51C57.8 6.61667 57.53 6.77333 57.33 6.98C57.13 7.18667 57.03 7.43333 57.03 7.72C57.03 8.07333 57.1167 8.34667 57.29 8.54C57.4633 8.73333 57.6967 8.87 57.99 8.95C58.29 9.03 58.6333 9.07 59.02 9.07ZM66.43 10.11C66.3433 10.11 66.2367 10.11 66.11 10.11C65.9833 10.1167 65.8567 10.1167 65.73 10.11C65.61 10.1033 65.4767 10.0967 65.33 10.09C65.1833 10.0833 65.0733 10.0767 65 10.07C65.0467 9.68333 65.0867 9.26 65.12 8.8C65.1533 8.34 65.1833 7.82 65.21 7.24C65.2367 6.66667 65.2567 6.01333 65.27 5.28C65.2833 4.54667 65.29 3.71 65.29 2.77C65.3967 2.75 65.53 2.73333 65.69 2.72C65.8433 2.70667 66.0033 2.7 66.17 2.7C66.27 2.7 66.3733 2.70333 66.48 2.71C66.5867 2.71667 66.68 2.72667 66.76 2.74C66.76 2.79333 66.7633 2.88667 66.77 3.02C66.77 3.15333 66.77 3.30333 66.77 3.47C66.7633 3.63 66.76 3.77333 66.76 3.9C66.9333 3.70667 67.18 3.51 67.5 3.31C67.8133 3.11 68.1667 2.94333 68.56 2.81C68.9533 2.67 69.35 2.6 69.75 2.6C70.4567 2.6 70.9933 2.74 71.36 3.02C71.7333 3.30667 71.9867 3.72333 72.12 4.27C72.2467 4.82333 72.31 5.50667 72.31 6.32C72.31 6.64 72.3033 7 72.29 7.4C72.2767 7.8 72.25 8.22667 72.21 8.68C72.1767 9.12667 72.1333 9.58 72.08 10.04C72.0133 10.0533 71.9133 10.0633 71.78 10.07C71.6467 10.0767 71.5067 10.08 71.36 10.08C71.2067 10.08 71.0633 10.0767 70.93 10.07C70.7967 10.0633 70.69 10.0533 70.61 10.04C70.67 9.64667 70.7267 9.23333 70.78 8.8C70.8267 8.36667 70.8667 7.93667 70.9 7.51C70.9333 7.08333 70.95 6.68 70.95 6.3C70.95 5.81333 70.9133 5.39 70.84 5.03C70.7667 4.66333 70.6233 4.38 70.41 4.18C70.2033 3.98 69.8933 3.88 69.48 3.88C69.0533 3.88 68.6633 3.95 68.31 4.09C67.9567 4.23 67.6467 4.39667 67.38 4.59C67.12 4.78333 66.9067 4.95333 66.74 5.1C66.7267 5.88667 66.7 6.61 66.66 7.27C66.62 7.93 66.58 8.5 66.54 8.98C66.5 9.46667 66.4633 9.84333 66.43 10.11ZM79.6 10C79.6 9.92 79.6 9.8 79.6 9.64C79.5933 9.48 79.59 9.32 79.59 9.16C79.59 9.00667 79.59 8.89333 79.59 8.82C79.5567 8.87333 79.4833 8.96333 79.37 9.09C79.2567 9.21667 79.1 9.35 78.9 9.49C78.6933 9.63 78.4367 9.74667 78.13 9.84C77.8233 9.94 77.4567 9.99 77.03 9.99C76.41 9.99 75.8767 9.85333 75.43 9.58C74.99 9.30667 74.6533 8.92667 74.42 8.44C74.1867 7.94667 74.07 7.38 74.07 6.74C74.07 6.13333 74.1867 5.57 74.42 5.05C74.6533 4.53 75.0033 4.11 75.47 3.79C75.9367 3.47 76.52 3.31 77.22 3.31C77.64 3.31 78.0167 3.35667 78.35 3.45C78.6767 3.54333 78.95 3.65333 79.17 3.78C79.39 3.90667 79.5467 4.02 79.64 4.12C79.6467 3.91333 79.66 3.66 79.68 3.36C79.7 3.05333 79.7233 2.73 79.75 2.39C79.77 2.05 79.7933 1.72 79.82 1.4C79.84 1.08 79.8633 0.8 79.89 0.56C79.91 0.313333 79.9233 0.143334 79.93 0.0500002C80.1167 0.0500002 80.3233 0.0566668 80.55 0.0700002C80.7767 0.0900002 80.9733 0.116667 81.14 0.15C81.0533 1.24333 80.9867 2.33 80.94 3.41C80.9 4.49 80.8733 5.58 80.86 6.68C80.84 7.78 80.83 8.89667 80.83 10.03C80.7633 10.03 80.6467 10.03 80.48 10.03C80.3133 10.03 80.1467 10.0267 79.98 10.02C79.8133 10.0133 79.6867 10.0067 79.6 10ZM77.37 8.7C77.69 8.7 77.9767 8.65333 78.23 8.56C78.4833 8.46667 78.6967 8.35 78.87 8.21C79.05 8.07 79.1967 7.93333 79.31 7.8C79.4233 7.66 79.5033 7.55 79.55 7.47C79.55 7.35667 79.5533 7.19667 79.56 6.99C79.56 6.78333 79.56 6.56333 79.56 6.33C79.5667 6.10333 79.57 5.89 79.57 5.69C79.57 5.49 79.5733 5.34 79.58 5.24C79.4733 5.14 79.3133 5.03333 79.1 4.92C78.8867 4.8 78.64 4.7 78.36 4.62C78.0733 4.53333 77.7667 4.49 77.44 4.49C76.7733 4.49 76.2633 4.68333 75.91 5.07C75.5567 5.46333 75.38 5.99333 75.38 6.66C75.38 7.33333 75.5533 7.84333 75.9 8.19C76.24 8.53 76.73 8.7 77.37 8.7ZM89.25 8.46C89.1567 8.58667 89.02 8.73667 88.84 8.91C88.66 9.08333 88.4333 9.24667 88.16 9.4C87.8933 9.56 87.58 9.69 87.22 9.79C86.86 9.89 86.4533 9.94 86 9.94C85.3 9.94 84.6867 9.8 84.16 9.52C83.6333 9.23333 83.2233 8.81667 82.93 8.27C82.6433 7.71667 82.5 7.04667 82.5 6.26C82.5 5.50667 82.6567 4.85 82.97 4.29C83.2833 3.73667 83.7167 3.31 84.27 3.01C84.8233 2.70333 85.4567 2.55 86.17 2.55C87.0633 2.55 87.76 2.82333 88.26 3.37C88.7667 3.91667 89.0467 4.65 89.1 5.57C89.1067 5.71667 89.11 5.86 89.11 6C89.11 6.14 89.1033 6.28 89.09 6.42C89.03 6.41333 88.9067 6.40667 88.72 6.4C88.5333 6.39333 88.3133 6.38667 88.06 6.38C87.8067 6.37333 87.5533 6.36667 87.3 6.36C87.0467 6.35333 86.8267 6.35 86.64 6.35C86.1733 6.35 85.69 6.37333 85.19 6.42C84.6967 6.46667 84.2567 6.52 83.87 6.58C83.8767 6.70667 83.89 6.82667 83.91 6.94C83.93 7.05333 83.9533 7.16667 83.98 7.28C84.06 7.56 84.2033 7.80333 84.41 8.01C84.6233 8.22333 84.8733 8.38333 85.16 8.49C85.4533 8.60333 85.7633 8.66 86.09 8.66C86.4367 8.66 86.7367 8.61 86.99 8.51C87.25 8.40333 87.4733 8.27667 87.66 8.13C87.84 7.98333 87.9867 7.84 88.1 7.7C88.22 7.56667 88.31 7.46667 88.37 7.4C88.3967 7.42667 88.45 7.47667 88.53 7.55C88.61 7.63 88.7 7.72333 88.8 7.83C88.8933 7.93667 88.9833 8.04333 89.07 8.15C89.1567 8.26333 89.2167 8.36667 89.25 8.46ZM83.89 5.65C84.23 5.59 84.6267 5.54 85.08 5.5C85.5333 5.45333 86.05 5.43 86.63 5.43C86.93 5.43 87.1867 5.43667 87.4 5.45C87.6133 5.45667 87.7633 5.46333 87.85 5.47C87.85 5.31667 87.83 5.15333 87.79 4.98C87.7433 4.74667 87.65 4.52 87.51 4.3C87.3767 4.08 87.1933 3.89667 86.96 3.75C86.7333 3.60333 86.4433 3.53 86.09 3.53C85.69 3.53 85.3267 3.61667 85 3.79C84.6667 3.95667 84.4033 4.19667 84.21 4.51C84.01 4.83 83.9033 5.21 83.89 5.65ZM91.67 3.82C91.81 3.58 92.0133 3.36333 92.28 3.17C92.5467 2.97 92.85 2.81333 93.19 2.7C93.53 2.58 93.87 2.52 94.21 2.52C94.43 2.52 94.6533 2.54 94.88 2.58C95.1 2.62 95.2733 2.67667 95.4 2.75L95.12 4.15C95.0067 4.10333 94.8633 4.05333 94.69 4C94.5167 3.94667 94.3 3.92 94.04 3.92C93.7667 3.92 93.4933 3.97 93.22 4.07C92.9467 4.17 92.6967 4.30667 92.47 4.48C92.2433 4.65333 92.05 4.85333 91.89 5.08C91.9567 5.40667 92.0233 5.80333 92.09 6.27C92.15 6.74333 92.2067 7.22667 92.26 7.72C92.3067 8.22 92.3467 8.67333 92.38 9.08C92.4133 9.48667 92.43 9.79333 92.43 10C92.23 10.02 91.9867 10.03 91.7 10.03C91.4067 10.0367 91.14 10.0367 90.9 10.03C90.9 9.59667 90.89 9.14 90.87 8.66C90.85 8.17333 90.82 7.67667 90.78 7.17C90.74 6.66333 90.69 6.16 90.63 5.66C90.57 5.15333 90.5 4.66333 90.42 4.19C90.34 3.71667 90.2467 3.26667 90.14 2.84C90.2667 2.80667 90.4167 2.77 90.59 2.73C90.7567 2.69667 90.9133 2.66667 91.06 2.64C91.2067 2.60667 91.3033 2.59 91.35 2.59C91.4167 2.74333 91.48 2.94667 91.54 3.2C91.6067 3.45333 91.65 3.66 91.67 3.82Z" fill="black"/>
</svg>
