<svg width="99.68" height="20.272" viewBox="0 0 99.68 20.272" xmlns="http://www.w3.org/2000/svg"><path transform="translate(0 16.24) scale(.014 -.014)" d="m379-17q-101 0-178.5 47t-121.5 129.5-44 187.5 44 185.5 121.5 126 178.5 45.5q78 0 144-28.5t99-79.5q14-22 17-36t-2-22q-7-12-21.5-8.5t-14.5 19.5q0 8 4 13t5.5 11-6.5 17q-31 46-92 71.5t-133 25.5q-95 0-169-43.5t-115.5-120-41.5-176.5 41.5-179 115.5-124 169-44q35 0 71.5 7.5t67.5 20.5 50 30 19 38v196l-187 1v17l280-1v-17h-47q-16 0-22-7t-6-22v-218q0-15 6-21.5t22-6.5h47v-17h-93v54q-20-23-55.5-39t-76-24-76.5-8z"/><path transform="translate(10.36 16.24) scale(.014 -.014)" d="m35 0v17h37q16 0 22 6.5t6 21.5v317q0 15-6 21.5t-22 6.5h-37v17h83v-72q15 40 52.5 64.5t83.5 24.5q44 0 72-18.5t38-42.5 0-39q-7-10-17.5-6t-12.5 13q-1 11 3.5 15t7 8.5-4.5 15.5q-10 17-35 27t-51 10q-49 0-79-24t-43.5-57.5-13.5-61.5v-247h54v-17z"/><path transform="translate(16.1 16.24) scale(.014 -.014)" d="m211-17q-43 0-77.5 17t-55 47.5-20.5 70.5q0 57 44.5 94.5t118.5 40.5q50 2 87.5-6.5t68.5-19.5v48q0 58-39.5 97t-116.5 35q-33-1-62.5-16t-43.5-38q-5-9-2.5-15.5t5-13-2.5-16.5q-4-7-13-8.5t-16 3.5q-14 11-6 30 15 40 55 65t86 27q84 4 129-40t45-109v-161q0-43 26-70.5t66-27.5v-17q-42 0-69.5 23.5t-34.5 54.5q-13-31-40.5-52t-62.5-32-69-11zm0 17q36 0 74.5 14.5t65 44 26.5 74.5v73q-25 13-64 22t-92 7q-66-1-105.5-34t-39.5-83q0-52 38.5-84.5t96.5-33.5z"/><path transform="translate(23.198 16.24) scale(.014 -.014)" d="m35 0v17h37q16 0 22 6.5t6 21.5v317q0 15-6 21.5t-22 6.5h-37v17h83v-75q19 38 60 65t99 27q77 0 125-44.5t48-128.5v-234h54v-17h-137v17h37q16 0 22 6.5t6 21.5v206q0 76-43.5 115.5t-111.5 39.5q-44 0-80.5-18.5t-57.5-52-21-78.5v-240h54v-17z"/><path transform="translate(30.534 16.24) scale(.014 -.014)" d="m239-18q-61 0-108.5 28t-74 78-26.5 115 26.5 115 74 78 108.5 28q68 0 118-33.5t74-90.5v342q0 15-6 21.5t-22 6.5h-37v17h83v-642q0-15 6-21.5t22-6.5h37v-17h-83v106q-24-57-74-90.5t-118-33.5zm0 18q57 1 100 27t67.5 71.5 24.5 104.5-24.5 104.5-67.5 72-100 26.5q-56 0-99-26.5t-67.5-72-24.5-104.5 24.5-104.5 67.5-71.5 99-27z"/><path transform="translate(38.01 16.24) scale(.014 -.014)" d="m128 553q-16 0-26.5 10.5t-10.5 26.5q0 15 10.5 24.5t26.5 9.5q15 0 24.5-9.5t9.5-24.5q0-16-9.5-26.5t-24.5-10.5zm-93-553v17h59q16 0 22 6.5t6 21.5v317q0 15-6 21.5t-22 6.5h-37v17h83v-390h75v-17z"/><path transform="translate(41.818 16.24) scale(.014 -.014)" d="m20 0v17h72q16 0 22 6.5t6 21.5l1 323q-3 22-27 22h-74v17h101v60q0 122 46.5 180t119.5 58q17 0 35.5-5t31.5-14.5 12-23.5q0-10-8-15.5t-19-1.5q-11 7-10 14t1.5 13-11.5 10q-6 2-15.5 3.5t-16.5 1.5q-65 0-106.5-53t-41.5-167v-60h118q13 0 17 6t8.5 12.5 16.5 6.5q8 0 14.5-6t6.5-14q0-10-6.5-16t-14.5-6h-160l-1-373h94v-17z"/><path transform="translate(47.082 16.24) scale(.014 -.014)" d="m35 0v17h72q16 0 22 6.5t6 21.5v597q0 15-6 21.5t-22 6.5h-37v17h83v-670h94v-17z"/><path transform="translate(51.03 16.24) scale(.014 -.014)" d="m240-18q-61 0-108 28t-74 78-28 115q0 65 26.5 115t74 78 109.5 28 109-28 73.5-78 26.5-115-26.5-115-73.5-78-109-28zm0 18q56 0 99 25.5t67.5 71.5 24.5 106-24.5 106-67.5 72-99 25q-56 0-99.5-26.5t-68-72-24.5-104.5 24.5-104.5 68-71.5 99.5-27z"/><path transform="translate(57.736 16.24) scale(.014 -.014)" d="m35 0v17h37q16 0 22 6.5t6 21.5v317q0 15-6 21.5t-22 6.5h-37v17h83v-72q15 40 52.5 64.5t83.5 24.5q44 0 72-18.5t38-42.5 0-39q-7-10-17.5-6t-12.5 13q-1 11 3.5 15t7 8.5-4.5 15.5q-10 17-35 27t-51 10q-49 0-79-24t-43.5-57.5-13.5-61.5v-247h54v-17z"/><path transform="translate(63.476 16.24) scale(.014 -.014)" d="m211-17q-43 0-77.5 17t-55 47.5-20.5 70.5q0 57 44.5 94.5t118.5 40.5q50 2 87.5-6.5t68.5-19.5v48q0 58-39.5 97t-116.5 35q-33-1-62.5-16t-43.5-38q-5-9-2.5-15.5t5-13-2.5-16.5q-4-7-13-8.5t-16 3.5q-14 11-6 30 15 40 55 65t86 27q84 4 129-40t45-109v-161q0-43 26-70.5t66-27.5v-17q-42 0-69.5 23.5t-34.5 54.5q-13-31-40.5-52t-62.5-32-69-11zm0 17q36 0 74.5 14.5t65 44 26.5 74.5v73q-25 13-64 22t-92 7q-66-1-105.5-34t-39.5-83q0-52 38.5-84.5t96.5-33.5z"/><path transform="translate(75.054 16.24) scale(.014 -.014)" d="m379-17q-101 0-178.5 46t-121.5 128-44 190q0 105 44 185.5t121.5 126 178.5 45.5q100 0 177-45.5t120.5-126 43.5-185.5q0-108-43.5-190t-120.5-128-177-46zm0 17q95 1 168 45t114 122 41 180q0 100-41 176.5t-114 120-168 43.5-169-43.5-115.5-120-41.5-176.5q0-102 41.5-180t115.5-122 169-45z"/><path transform="translate(85.624 16.24) scale(.014 -.014)" d="m35 0v17h37q16 0 22 6.5t6 21.5v317q0 15-6 21.5t-22 6.5h-37v17h83v-75q19 38 60 65t99 27q77 0 125-44.5t48-128.5v-234h54v-17h-137v17h37q16 0 22 6.5t6 21.5v206q0 76-43.5 115.5t-111.5 39.5q-44 0-80.5-18.5t-57.5-52-21-78.5v-240h54v-17z"/><path transform="translate(92.96 16.24) scale(.014 -.014)" d="m401 241q1 48-21 85.5t-60.5 59-89.5 21.5q-71-1-119.5-46.5t-59.5-118.5zm-171-258q-57 0-102.5 28t-71.5 77.5-26 114.5q1 65 26.5 115t70.5 78.5 103 28.5q56 0 98.5-23.5t67-65 24.5-95.5v-17l-371 1-1-22q-2-55 21-101t65.5-73.5 95.5-28.5q56 1 94 18.5t56 45.5l14-11q-21-31-63-50.5t-101-19.5z"/></svg>