<svg width="74" height="12" viewBox="0 0 74 12" fill="none" xmlns="http://www.w3.org/2000/svg">
<path d="M1.84 1.26L2.21 1.52C2.15 1.86 2.09667 2.18667 2.05 2.5C1.99667 2.81333 1.95667 3.15 1.93 3.51C1.90333 3.86333 1.89 4.28333 1.89 4.77C1.89 5.47 1.92667 6.02667 2 6.44C2.08 6.84667 2.18333 7.16 2.31 7.38C2.43 7.59333 2.56 7.74 2.7 7.82C2.84 7.90667 2.96667 7.97 3.08 8.01C3.28 8.07 3.57 8.11333 3.95 8.14C4.33 8.16 4.67333 8.16667 4.98 8.16C5 8.08667 5.01333 7.96667 5.02 7.8C5.03333 7.64 5.04333 7.46 5.05 7.26C5.05667 7.06 5.06 6.86667 5.06 6.68C5.06 6.5 5.06 6.36333 5.06 6.27L4.03 5.99L4.21 4.74C4.47 4.75333 4.75 4.78 5.05 4.82C5.35 4.86 5.61333 4.91333 5.84 4.98C6.06667 5.04 6.21 5.11 6.27 5.19C6.27667 5.34333 6.28667 5.53667 6.3 5.77C6.30667 6.01 6.31 6.26667 6.31 6.54C6.31 6.80667 6.30667 7.06333 6.3 7.31C6.28667 7.55667 6.27333 7.77333 6.26 7.96C6.24667 8.14 6.23 8.25333 6.21 8.3C6.14333 8.35333 6.03333 8.42333 5.88 8.51C5.72667 8.59667 5.55333 8.68333 5.36 8.77C5.17333 8.85667 4.98 8.93667 4.78 9.01C4.58667 9.09 4.41 9.15333 4.25 9.2C4.09 9.24667 3.97333 9.27 3.9 9.27C3.75333 9.27 3.56 9.25 3.32 9.21C3.08 9.17 2.83 9.11 2.57 9.03C2.30333 8.95667 2.05333 8.85667 1.82 8.73C1.58667 8.60333 1.40333 8.45667 1.27 8.29C1.11 8.07 0.973333 7.82 0.86 7.54C0.74 7.26 0.65 6.93333 0.59 6.56C0.53 6.18667 0.5 5.75333 0.5 5.26C0.5 4.62 0.54 4.03333 0.62 3.5C0.7 2.96667 0.8 2.54 0.92 2.22C1.02 2.07333 1.15667 1.91333 1.33 1.74C1.49667 1.56667 1.66667 1.40667 1.84 1.26ZM3.23 8.08H2.8V1.82C2.8 1.71333 2.84 1.55 2.92 1.33C2.99333 1.10333 3.07667 0.863333 3.17 0.61H3.52V7.28C3.52 7.33333 3.49667 7.42667 3.45 7.56C3.40333 7.68667 3.33 7.86 3.23 8.08ZM6.11 0.71L5.95 3.13H5.19L5.02 1.71C4.90667 1.67667 4.74333 1.64667 4.53 1.62C4.31667 1.59333 4.11 1.57 3.91 1.55C3.71 1.53 3.55667 1.52 3.45 1.52C3.35667 1.52 3.27667 1.52333 3.21 1.53C3.13667 1.53667 3.07667 1.54333 3.03 1.55L3.17 0.61C3.21667 0.596666 3.25667 0.586667 3.29 0.58C3.31667 0.573333 3.34667 0.57 3.38 0.57C3.46 0.57 3.60333 0.576666 3.81 0.59C4.02333 0.596666 4.26667 0.606667 4.54 0.62C4.81333 0.633333 5.09333 0.646667 5.38 0.66C5.66667 0.673333 5.91 0.69 6.11 0.71ZM8.61 9.27C8.57667 9.27 8.52333 9.23667 8.45 9.17C8.37667 9.10333 8.30333 9.03333 8.23 8.96C8.16333 8.88667 8.13 8.83333 8.13 8.8V3.65L7.64 3.48V2.97C7.64 2.97 7.69333 2.95667 7.8 2.93C7.90667 2.91 8.03667 2.88333 8.19 2.85C8.33667 2.82333 8.47333 2.8 8.6 2.78C8.72667 2.75333 8.80333 2.74 8.83 2.74C8.85667 2.74 8.91667 2.77667 9.01 2.85C9.10333 2.93 9.19 3.01 9.27 3.09C9.35 3.17667 9.39 3.23333 9.39 3.26L9.36 3.81C9.49333 3.67667 9.61667 3.54667 9.73 3.42C9.85 3.29333 9.96 3.18 10.06 3.08C10.1667 2.97333 10.2533 2.89 10.32 2.83C10.3933 2.77 10.4367 2.74 10.45 2.74C10.5567 2.74 10.7133 2.77 10.92 2.83C11.12 2.88333 11.2767 2.93 11.39 2.97C11.41 3.02333 11.43 3.09667 11.45 3.19C11.47 3.28333 11.48 3.35333 11.48 3.4C11.48 3.42667 11.4633 3.47667 11.43 3.55C11.3967 3.63 11.36 3.71 11.32 3.79C11.2733 3.87667 11.23 3.95333 11.19 4.02C11.15 4.08 11.12 4.11667 11.1 4.13C11.0333 4.10333 10.9567 4.07333 10.87 4.04C10.79 4.01333 10.7067 3.99 10.62 3.97C10.5267 3.95667 10.44 3.95 10.36 3.95C10.3267 3.95 10.28 3.96 10.22 3.98C10.1533 4.00667 10.0767 4.04 9.99 4.08C9.91 4.12 9.82 4.16667 9.72 4.22C9.62 4.27333 9.51333 4.33 9.4 4.39V8.26L10.12 8.47V9.04C10.12 9.04 10.0733 9.04667 9.98 9.06C9.88667 9.07333 9.77 9.09333 9.63 9.12C9.49 9.14 9.34333 9.16333 9.19 9.19C9.04333 9.21 8.91667 9.23 8.81 9.25C8.70333 9.26333 8.63667 9.27 8.61 9.27ZM13.24 6.07C13.24 6.67667 13.32 7.14 13.48 7.46C13.6467 7.78 13.8333 7.99333 14.04 8.1C14.2467 8.21333 14.4133 8.27 14.54 8.27C14.58 8.27 14.67 8.27 14.81 8.27C14.95 8.26333 15.1133 8.25333 15.3 8.24C15.4867 8.23333 15.6733 8.22667 15.86 8.22C16.0467 8.20667 16.21 8.2 16.35 8.2V8.78C16.1833 8.83333 15.99 8.88667 15.77 8.94C15.5567 9 15.3433 9.05333 15.13 9.1C14.9167 9.14667 14.7267 9.18667 14.56 9.22C14.4 9.25333 14.2867 9.27 14.22 9.27C13.84 9.27 13.47 9.16333 13.11 8.95C12.7567 8.74333 12.4667 8.42333 12.24 7.99C12.0133 7.55 11.9 6.99667 11.9 6.33C11.9 5.86333 11.93 5.43333 11.99 5.04C12.0567 4.64667 12.1367 4.36 12.23 4.18C12.3033 4.07333 12.4367 3.93667 12.63 3.77C12.8233 3.61 13.0333 3.45333 13.26 3.3C13.4867 3.14 13.7 3.00667 13.9 2.9C14.0933 2.79333 14.2367 2.74 14.33 2.74C14.8433 2.74 15.26 2.82333 15.58 2.99C15.9067 3.16333 16.15 3.48 16.31 3.94C16.4633 4.4 16.54 5.08 16.54 5.98L12.62 6.38V5.85L15.19 5.43C15.19 4.86333 15.1267 4.41333 15 4.08C14.88 3.74667 14.62 3.58 14.22 3.58C14.1467 3.58 14.0667 3.58667 13.98 3.6C13.8867 3.60667 13.79 3.63333 13.69 3.68C13.5567 3.74667 13.45 3.99667 13.37 4.43C13.2833 4.86333 13.24 5.41 13.24 6.07ZM18.48 9.27C18.4467 9.27 18.3933 9.23667 18.32 9.17C18.2467 9.10333 18.1767 9.03333 18.11 8.96C18.0367 8.88667 18 8.83333 18 8.8V3.69L17.51 3.48V2.97C17.51 2.97 17.57 2.95667 17.69 2.93C17.8033 2.91 17.94 2.88667 18.1 2.86C18.26 2.84 18.4067 2.81667 18.54 2.79C18.6733 2.77 18.7533 2.76 18.78 2.76C18.8133 2.76 18.8667 2.79 18.94 2.85C19.0133 2.91 19.08 2.97667 19.14 3.05C19.2 3.12333 19.23 3.17333 19.23 3.2V3.74C19.35 3.64667 19.49 3.54333 19.65 3.43C19.8033 3.31667 19.9533 3.21 20.1 3.11C20.2467 3.00333 20.3767 2.91667 20.49 2.85C20.5967 2.77667 20.6567 2.74 20.67 2.74C21.09 2.74 21.45 2.81 21.75 2.95C22.05 3.09 22.2833 3.33333 22.45 3.68C22.61 4.02667 22.69 4.50333 22.69 5.11V8.31L23.18 8.52V9.04C23.18 9.04 23.1233 9.05333 23.01 9.08C22.89 9.1 22.75 9.12333 22.59 9.15C22.4233 9.18333 22.2733 9.21 22.14 9.23C22.0133 9.25667 21.9367 9.27 21.91 9.27C21.8767 9.27 21.82 9.23667 21.74 9.17C21.6667 9.10333 21.5933 9.03333 21.52 8.96C21.4533 8.88667 21.42 8.83333 21.42 8.8V5.11C21.42 4.66333 21.3667 4.34667 21.26 4.16C21.1467 3.98 21.0267 3.87333 20.9 3.84C20.7667 3.80667 20.6667 3.79 20.6 3.79C20.5467 3.79 20.4467 3.82 20.3 3.88C20.16 3.93333 19.9967 4 19.81 4.08C19.63 4.16 19.45 4.24 19.27 4.32V8.31L19.75 8.52V9.04C19.75 9.04 19.6933 9.05333 19.58 9.08C19.46 9.1 19.32 9.12333 19.16 9.15C19 9.18333 18.8533 9.21 18.72 9.23C18.5867 9.25667 18.5067 9.27 18.48 9.27ZM28.7 9.14H24.52C24.4733 9.07333 24.4133 8.96 24.34 8.8C24.2667 8.64667 24.22 8.54667 24.2 8.5C24.68 7.72 25.1167 6.97333 25.51 6.26C25.91 5.54 26.3567 4.75333 26.85 3.9L26.82 3.74L25.28 3.65L25.15 4.58H24.43L24.31 2.87H28.16C28.2 2.92333 28.2567 3.02 28.33 3.16C28.4033 3.29333 28.4567 3.40667 28.49 3.5C28.0567 4.26667 27.6267 5.02333 27.2 5.77C26.7667 6.52333 26.3333 7.27333 25.9 8.02V8.22L27.77 8.3L27.94 7.12H28.65L28.7 9.14ZM31.05 6.07C31.05 6.67667 31.13 7.14 31.29 7.46C31.4567 7.78 31.6433 7.99333 31.85 8.1C32.05 8.21333 32.2167 8.27 32.35 8.27C32.39 8.27 32.48 8.27 32.62 8.27C32.76 8.26333 32.9233 8.25333 33.11 8.24C33.2967 8.23333 33.4833 8.22667 33.67 8.22C33.8567 8.20667 34.02 8.2 34.16 8.2V8.78C33.9867 8.83333 33.7933 8.88667 33.58 8.94C33.3667 9 33.1533 9.05333 32.94 9.1C32.7267 9.14667 32.5367 9.18667 32.37 9.22C32.21 9.25333 32.0967 9.27 32.03 9.27C31.6433 9.27 31.2733 9.16333 30.92 8.95C30.5667 8.74333 30.2767 8.42333 30.05 7.99C29.8167 7.55 29.7 6.99667 29.7 6.33C29.7 5.86333 29.7333 5.43333 29.8 5.04C29.8667 4.64667 29.9467 4.36 30.04 4.18C30.1133 4.07333 30.2467 3.93667 30.44 3.77C30.6333 3.61 30.8433 3.45333 31.07 3.3C31.2967 3.14 31.51 3.00667 31.71 2.9C31.9033 2.79333 32.0467 2.74 32.14 2.74C32.6533 2.74 33.07 2.82333 33.39 2.99C33.7167 3.16333 33.9567 3.48 34.11 3.94C34.27 4.4 34.35 5.08 34.35 5.98L30.43 6.38V5.85L32.99 5.43C32.99 4.86333 32.93 4.41333 32.81 4.08C32.69 3.74667 32.43 3.58 32.03 3.58C31.9567 3.58 31.8733 3.58667 31.78 3.6C31.6933 3.60667 31.6 3.63333 31.5 3.68C31.3667 3.74667 31.2567 3.99667 31.17 4.43C31.09 4.86333 31.05 5.41 31.05 6.07ZM38.97 1.26L39.34 1.52C39.28 1.86 39.2233 2.18667 39.17 2.5C39.1233 2.81333 39.0867 3.15 39.06 3.51C39.0267 3.86333 39.01 4.28333 39.01 4.77C39.01 5.47 39.05 6.02667 39.13 6.44C39.21 6.84667 39.31 7.16 39.43 7.38C39.5567 7.59333 39.69 7.74 39.83 7.82C39.97 7.90667 40.0933 7.97 40.2 8.01C40.4067 8.07 40.7 8.11333 41.08 8.14C41.46 8.16 41.8033 8.16667 42.11 8.16C42.13 8.08667 42.1433 7.96667 42.15 7.8C42.1567 7.64 42.1667 7.46 42.18 7.26C42.1867 7.06 42.19 6.86667 42.19 6.68C42.19 6.5 42.19 6.36333 42.19 6.27L41.16 5.99L41.34 4.74C41.6 4.75333 41.88 4.78 42.18 4.82C42.48 4.86 42.7433 4.91333 42.97 4.98C43.1967 5.04 43.34 5.11 43.4 5.19C43.4067 5.34333 43.4133 5.53667 43.42 5.77C43.4333 6.01 43.44 6.26667 43.44 6.54C43.44 6.80667 43.4333 7.06333 43.42 7.31C43.4133 7.55667 43.4033 7.77333 43.39 7.96C43.3767 8.14 43.36 8.25333 43.34 8.3C43.2733 8.35333 43.1633 8.42333 43.01 8.51C42.8567 8.59667 42.6833 8.68333 42.49 8.77C42.3033 8.85667 42.11 8.93667 41.91 9.01C41.7167 9.09 41.54 9.15333 41.38 9.2C41.22 9.24667 41.1033 9.27 41.03 9.27C40.8833 9.27 40.69 9.25 40.45 9.21C40.21 9.17 39.9567 9.11 39.69 9.03C39.4233 8.95667 39.1733 8.85667 38.94 8.73C38.7067 8.60333 38.5267 8.45667 38.4 8.29C38.24 8.07 38.1033 7.82 37.99 7.54C37.87 7.26 37.78 6.93333 37.72 6.56C37.66 6.18667 37.63 5.75333 37.63 5.26C37.63 4.62 37.67 4.03333 37.75 3.5C37.83 2.96667 37.93 2.54 38.05 2.22C38.15 2.07333 38.2833 1.91333 38.45 1.74C38.6233 1.56667 38.7967 1.40667 38.97 1.26ZM40.36 8.08H39.92V1.82C39.92 1.71333 39.96 1.55 40.04 1.33C40.12 1.10333 40.2067 0.863333 40.3 0.61H40.65V7.28C40.65 7.33333 40.6267 7.42667 40.58 7.56C40.5333 7.68667 40.46 7.86 40.36 8.08ZM43.24 0.71L43.07 3.13H42.32L42.15 1.71C42.0367 1.67667 41.8733 1.64667 41.66 1.62C41.4467 1.59333 41.24 1.57 41.04 1.55C40.84 1.53 40.6867 1.52 40.58 1.52C40.4867 1.52 40.4067 1.52333 40.34 1.53C40.2667 1.53667 40.2067 1.54333 40.16 1.55L40.3 0.61C40.3467 0.596666 40.3833 0.586667 40.41 0.58C40.4433 0.573333 40.4767 0.57 40.51 0.57C40.5833 0.57 40.7267 0.576666 40.94 0.59C41.1467 0.596666 41.39 0.606667 41.67 0.62C41.9433 0.633333 42.2233 0.646667 42.51 0.66C42.79 0.673333 43.0333 0.69 43.24 0.71ZM47.74 9.27C46.7733 9.27 46.0467 9.02667 45.56 8.54C45.0667 8.05333 44.82 7.28667 44.82 6.24C44.82 5.82 44.8533 5.41667 44.92 5.03C44.9867 4.64333 45.0667 4.36 45.16 4.18C45.2333 4.07333 45.3667 3.93667 45.56 3.77C45.7533 3.61 45.9633 3.45333 46.19 3.3C46.4167 3.14 46.63 3.00667 46.83 2.9C47.0233 2.79333 47.1633 2.74 47.25 2.74C48.19 2.74 48.9 2.99667 49.38 3.51C49.86 4.01667 50.1 4.74 50.1 5.68C50.1 6.14 50.0667 6.56667 50 6.96C49.94 7.34667 49.87 7.65333 49.79 7.88C49.7167 7.97333 49.5867 8.09667 49.4 8.25C49.2133 8.40333 49.0067 8.56 48.78 8.72C48.5533 8.88 48.3433 9.01 48.15 9.11C47.9567 9.21667 47.82 9.27 47.74 9.27ZM47.81 8.47C47.8433 8.45667 47.9167 8.42333 48.03 8.37C48.1433 8.31667 48.2533 8.26 48.36 8.2C48.4667 8.14667 48.52 8.12 48.52 8.12C48.5667 7.90667 48.6167 7.62 48.67 7.26C48.73 6.90667 48.76 6.44 48.76 5.86C48.76 5.39333 48.7 4.99 48.58 4.65C48.4667 4.31 48.2933 4.04333 48.06 3.85C47.8267 3.66333 47.5333 3.57 47.18 3.57C47.0867 3.57 46.9933 3.57667 46.9 3.59C46.8067 3.60333 46.7133 3.63333 46.62 3.68C46.4933 3.74667 46.3867 3.98333 46.3 4.39C46.2133 4.80333 46.17 5.35667 46.17 6.05C46.17 6.71 46.2533 7.21667 46.42 7.57C46.5867 7.91667 46.7967 8.15333 47.05 8.28C47.3033 8.40667 47.5567 8.47 47.81 8.47ZM52.64 9.27C52.5533 9.27 52.4533 9.23 52.34 9.15C52.22 9.07 52.1033 8.97 51.99 8.85C51.8767 8.72333 51.7833 8.6 51.71 8.48C51.6367 8.36 51.6 8.25667 51.6 8.17V3.61H50.7V3.19L51.6 2.74L52.38 1.79C52.4267 1.79 52.4967 1.81 52.59 1.85C52.6767 1.88333 52.77 1.93 52.87 1.99V2.87H54.23V3.68H52.87V7.56C52.87 7.84667 52.8933 8.04333 52.94 8.15C52.9867 8.25 53.0767 8.3 53.21 8.3L54.36 8.33V9C54.2267 9.02667 54.0733 9.05667 53.9 9.09C53.72 9.12333 53.5433 9.15333 53.37 9.18C53.1967 9.2 53.0433 9.22 52.91 9.24C52.7767 9.26 52.6867 9.27 52.64 9.27ZM56.08 9.27C56.0533 9.27 55.9933 9.23 55.9 9.15C55.8067 9.07667 55.72 9 55.64 8.92C55.56 8.83333 55.52 8.77667 55.52 8.75V3.64L55.03 3.48V2.97C55.03 2.97 55.0833 2.95667 55.19 2.93C55.2967 2.91 55.4267 2.88333 55.58 2.85C55.7267 2.82333 55.8633 2.8 55.99 2.78C56.1167 2.75333 56.1933 2.74 56.22 2.74C56.26 2.74 56.3233 2.77667 56.41 2.85C56.4967 2.91667 56.58 2.99333 56.66 3.08C56.74 3.16 56.78 3.22333 56.78 3.27V8.38L57.27 8.52V9.04C57.27 9.04 57.2167 9.05333 57.11 9.08C57.0033 9.1 56.8733 9.12333 56.72 9.15C56.5733 9.18333 56.4367 9.21 56.31 9.23C56.1833 9.25667 56.1067 9.27 56.08 9.27ZM55.34 0.88L55.38 0.59C55.38 0.57 55.42 0.53 55.5 0.47C55.58 0.41 55.67 0.34 55.77 0.26C55.8767 0.186666 55.97 0.126667 56.05 0.0799999C56.1367 0.0266666 56.19 0 56.21 0C56.2433 0 56.3033 0.0333332 56.39 0.0999999C56.47 0.16 56.5567 0.236667 56.65 0.33C56.7367 0.423333 56.8133 0.513333 56.88 0.6C56.9467 0.686667 56.9733 0.753333 56.96 0.8L56.91 1.08C56.8967 1.10667 56.8533 1.15 56.78 1.21C56.7067 1.27 56.62 1.33667 56.52 1.41C56.42 1.47667 56.33 1.53667 56.25 1.59C56.1633 1.63667 56.1067 1.66 56.08 1.66C56.04 1.66 55.98 1.62667 55.9 1.56C55.8133 1.48667 55.73 1.40333 55.65 1.31C55.5633 1.21667 55.49 1.13 55.43 1.05C55.37 0.963333 55.34 0.906666 55.34 0.88ZM60.83 9.27C60.7367 9.27 60.5867 9.26333 60.38 9.25C60.1733 9.24333 59.94 9.23 59.68 9.21C59.42 9.19 59.1667 9.17 58.92 9.15C58.68 9.12333 58.4767 9.1 58.31 9.08L58.33 7.07L59.03 7.05L59.33 8.12C59.4767 8.16667 59.6433 8.21333 59.83 8.26C60.0167 8.30667 60.1933 8.34333 60.36 8.37C60.5333 8.39667 60.66 8.41 60.74 8.41C60.8 8.41 60.86 8.37 60.92 8.29C60.9867 8.20333 61.0467 8.09667 61.1 7.97C61.1533 7.84333 61.18 7.73 61.18 7.63C61.18 7.45 61.1367 7.30333 61.05 7.19C60.9633 7.07 60.8233 6.95 60.63 6.83C60.4367 6.71 60.17 6.56 59.83 6.38C59.47 6.17333 59.18 5.99 58.96 5.83C58.74 5.66333 58.58 5.48667 58.48 5.3C58.38 5.11333 58.33 4.9 58.33 4.66C58.33 4.54 58.3367 4.41667 58.35 4.29C58.3567 4.16333 58.3733 4.05667 58.4 3.97C58.48 3.86333 58.5867 3.73667 58.72 3.59C58.8533 3.44333 58.9967 3.30667 59.15 3.18C59.3033 3.05333 59.45 2.95 59.59 2.87C59.7233 2.78333 59.8267 2.74 59.9 2.74C60.0133 2.74 60.17 2.74667 60.37 2.76C60.57 2.76667 60.7867 2.77333 61.02 2.78C61.2533 2.79333 61.4767 2.80667 61.69 2.82C61.91 2.83333 62.09 2.85 62.23 2.87L62.18 4.58H61.4L61.3 3.83C61.2667 3.81667 61.18 3.79667 61.04 3.77C60.9 3.75 60.7433 3.72667 60.57 3.7C60.3967 3.68 60.2367 3.66 60.09 3.64C59.9433 3.62 59.8467 3.61 59.8 3.61C59.7467 3.61 59.6967 3.63 59.65 3.67C59.6033 3.70333 59.5667 3.76333 59.54 3.85C59.5133 3.93 59.5 4.04667 59.5 4.2C59.5 4.37333 59.55 4.52333 59.65 4.65C59.75 4.77667 59.88 4.88667 60.04 4.98C60.1933 5.07333 60.3467 5.17333 60.5 5.28C60.6733 5.38 60.8733 5.49667 61.1 5.63C61.3267 5.75667 61.55 5.89667 61.77 6.05C61.99 6.19667 62.17 6.36 62.31 6.54C62.45 6.72667 62.52 6.92667 62.52 7.14C62.52 7.23333 62.5167 7.34 62.51 7.46C62.4967 7.58 62.4667 7.71 62.42 7.85C62.3533 7.97 62.2567 8.11 62.13 8.27C61.9967 8.43 61.85 8.58667 61.69 8.74C61.5367 8.89333 61.3833 9.02 61.23 9.12C61.07 9.22 60.9367 9.27 60.83 9.27ZM65.36 9.27C65.0467 9.27 64.7333 9.16333 64.42 8.95C64.1133 8.74333 63.86 8.42 63.66 7.98C63.46 7.54 63.36 6.98 63.36 6.3C63.36 5.83333 63.3933 5.4 63.46 5C63.5267 4.59333 63.6067 4.30333 63.7 4.13C63.7733 4.01667 63.9033 3.88333 64.09 3.73C64.2767 3.57667 64.48 3.42333 64.7 3.27C64.92 3.11667 65.1233 2.99 65.31 2.89C65.5033 2.79 65.6433 2.74 65.73 2.74C65.9433 2.74 66.19 2.76667 66.47 2.82C66.75 2.87333 67.0167 2.93667 67.27 3.01L67.22 4.8H66.37L66.17 3.83C66.0767 3.78333 65.9467 3.73667 65.78 3.69C65.6067 3.63667 65.45 3.61 65.31 3.61C65.27 3.61 65.2333 3.61333 65.2 3.62C65.1667 3.63333 65.1367 3.65 65.11 3.67C65.0233 3.73 64.95 3.87667 64.89 4.11C64.83 4.34333 64.7833 4.63333 64.75 4.98C64.7167 5.32667 64.7 5.70667 64.7 6.12C64.7 6.64 64.7567 7.05667 64.87 7.37C64.9833 7.68333 65.1167 7.90667 65.27 8.04C65.4233 8.17333 65.56 8.24 65.68 8.24H67.27V8.83C67.0967 8.89 66.9133 8.94333 66.72 8.99C66.5267 9.04333 66.3367 9.09 66.15 9.13C65.9633 9.17667 65.8 9.21 65.66 9.23C65.52 9.25667 65.42 9.27 65.36 9.27ZM68.61 1.03L68.12 0.84V0.32C68.12 0.32 68.16 0.313333 68.24 0.3C68.32 0.286666 68.4167 0.266666 68.53 0.24C68.65 0.22 68.77 0.196667 68.89 0.17C69.01 0.15 69.1167 0.133333 69.21 0.12C69.3033 0.106667 69.3633 0.0999999 69.39 0.0999999C69.4233 0.0999999 69.48 0.13 69.56 0.19C69.6333 0.256667 69.7067 0.326667 69.78 0.4C69.8467 0.466667 69.88 0.52 69.88 0.56L69.81 3.72L69.88 3.74C70.0067 3.64667 70.1467 3.54333 70.3 3.43C70.4533 3.31667 70.6033 3.21 70.75 3.11C70.89 3.00333 71.0133 2.91667 71.12 2.85C71.22 2.77667 71.2733 2.74 71.28 2.74C71.7133 2.74 72.08 2.81 72.38 2.95C72.6733 3.09 72.9 3.33333 73.06 3.68C73.22 4.02667 73.3 4.50333 73.3 5.11V8.75C73.3 9.03 73.25 9.32667 73.15 9.64C73.0433 9.95333 72.8967 10.24 72.71 10.5C72.5167 10.76 72.28 10.9567 72 11.09L71.59 10.75C71.7233 10.5367 71.82 10.32 71.88 10.1C71.94 9.88 71.98 9.66 72 9.44C72.02 9.22 72.03 9.00667 72.03 8.8V5.11C72.03 4.66333 71.9767 4.34667 71.87 4.16C71.7567 3.98 71.64 3.87333 71.52 3.84C71.3933 3.80667 71.29 3.79 71.21 3.79C71.1767 3.79 71.0667 3.82667 70.88 3.9C70.6933 3.98 70.5 4.06 70.3 4.14C70.1067 4.22667 69.9667 4.28667 69.88 4.32V8.31L70.36 8.52V9.04C70.36 9.04 70.3033 9.05333 70.19 9.08C70.07 9.1 69.93 9.12333 69.77 9.15C69.6033 9.18333 69.4533 9.21 69.32 9.23C69.18 9.25667 69.0967 9.27 69.07 9.27C69.0433 9.27 68.9933 9.23667 68.92 9.17C68.8467 9.10333 68.7767 9.03333 68.71 8.96C68.6433 8.88667 68.61 8.83333 68.61 8.8V1.03Z" fill="black"/>
</svg>
