<svg width="33" height="13" viewBox="0 0 33 13" fill="none" xmlns="http://www.w3.org/2000/svg">
<path d="M2.88 11.51C2.53333 11.51 2.22667 11.4167 1.96 11.23C1.7 11.0367 1.57 10.71 1.57 10.25C1.57 9.95 1.62667 9.66 1.74 9.38C1.86 9.09333 1.99667 8.84 2.15 8.62C2.30333 8.4 2.44 8.24 2.56 8.14C2.6 8.11333 2.62667 8.11333 2.64 8.14C2.66 8.16667 2.66 8.19 2.64 8.21C2.53333 8.35667 2.42333 8.54667 2.31 8.78C2.19667 9.01333 2.10333 9.26 2.03 9.52C1.95667 9.78667 1.92 10.0367 1.92 10.27C1.92 10.3167 1.92 10.36 1.92 10.4C1.92667 10.44 1.93333 10.4833 1.94 10.53C1.98667 10.8233 2.08667 11.03 2.24 11.15C2.38667 11.27 2.56 11.33 2.76 11.33C2.96 11.33 3.17 11.2733 3.39 11.16C3.61 11.0467 3.80333 10.9167 3.97 10.77C4.23667 10.53 4.51333 10.1867 4.8 9.74C5.08667 9.3 5.36333 8.81333 5.63 8.28C5.89667 7.74667 6.13333 7.22 6.34 6.7C6.54667 6.18667 6.69 5.72667 6.77 5.32C6.59667 5.55333 6.36 5.79 6.06 6.03C5.76 6.27 5.47 6.48333 5.19 6.67C4.90333 6.85667 4.68333 6.98667 4.53 7.06C4.10333 7.27333 3.70667 7.43 3.34 7.53C2.98 7.63 2.65 7.68 2.35 7.68C1.76333 7.68 1.31 7.51667 0.99 7.19C0.663333 6.86333 0.5 6.44333 0.5 5.93C0.5 5.51667 0.606667 5.06667 0.82 4.58C1.04 4.08667 1.37667 3.58667 1.83 3.08C2.25 2.61333 2.73333 2.18667 3.28 1.8C3.82667 1.41333 4.41667 1.10333 5.05 0.87C5.67667 0.636667 6.32667 0.52 7 0.52C7.34667 0.52 7.59 0.596667 7.73 0.75C7.80333 0.656667 7.85667 0.556666 7.89 0.45C7.93 0.35 7.98333 0.276666 8.05 0.23C8.12333 0.163333 8.20333 0.13 8.29 0.13C8.43 0.13 8.5 0.18 8.5 0.28C8.5 0.326666 8.48 0.373333 8.44 0.42C8.14 0.806667 7.89333 1.18 7.7 1.54C7.51333 1.90667 7.34 2.31 7.18 2.75C7.15333 2.82333 7.10667 2.86 7.04 2.86C7 2.86 6.96667 2.84333 6.94 2.81C6.91333 2.77667 6.91333 2.73333 6.94 2.68C6.98 2.59333 7.03333 2.47 7.1 2.31C7.16 2.14333 7.23333 1.97333 7.32 1.8C7.40667 1.6 7.45 1.44 7.45 1.32C7.45 1.10667 7.36 0.966666 7.18 0.9C7 0.833333 6.78667 0.8 6.54 0.8C5.96 0.8 5.4 0.93 4.86 1.19C4.32667 1.44333 3.83667 1.77 3.39 2.17C2.95 2.57667 2.57667 2.99 2.27 3.41C1.95 3.85667 1.71667 4.27 1.57 4.65C1.43 5.03667 1.36 5.37667 1.36 5.67C1.36 6.15667 1.51333 6.53333 1.82 6.8C2.12667 7.06667 2.52333 7.2 3.01 7.2C3.45667 7.2 3.94667 7.08 4.48 6.84C4.62 6.77333 4.80667 6.66333 5.04 6.51C5.27333 6.35667 5.51333 6.18 5.76 5.98C6.00667 5.78667 6.22333 5.58333 6.41 5.37C6.59667 5.15 6.71 4.94667 6.75 4.76C6.64333 4.72667 6.48 4.71 6.26 4.71C5.9 4.71 5.53333 4.74667 5.16 4.82C5.06 4.84 4.99 4.87 4.95 4.91C4.91667 4.95 4.9 4.99333 4.9 5.04C4.9 5.08667 4.91333 5.13333 4.94 5.18C4.96667 5.22667 4.99 5.26667 5.01 5.3V5.31C5.01 5.33667 5 5.36667 4.98 5.4C4.96 5.43333 4.94333 5.43667 4.93 5.41C4.86333 5.36333 4.78 5.27667 4.68 5.15C4.58 5.02333 4.50333 4.91333 4.45 4.82C4.40333 4.74667 4.38 4.68 4.38 4.62C4.38 4.48 4.47667 4.41 4.67 4.41C4.73 4.41 4.83333 4.41333 4.98 4.42C5.12 4.42667 5.28333 4.43 5.47 4.43C5.75 4.43 6.06 4.42667 6.4 4.42C6.74 4.41333 7.06667 4.41 7.38 4.41C7.68667 4.40333 7.94 4.39667 8.14 4.39C8.34 4.39 8.44 4.39 8.44 4.39C8.48 4.39667 8.49667 4.42 8.49 4.46C8.48333 4.49333 8.47 4.52333 8.45 4.55C8.35 4.55 8.23667 4.55333 8.11 4.56C7.98333 4.56667 7.85333 4.62333 7.72 4.73C7.58667 4.83667 7.45 5.05 7.31 5.37C7.10333 5.83667 6.90333 6.35 6.71 6.91C6.51667 7.47 6.30667 8.02667 6.08 8.58C5.85333 9.13333 5.57667 9.64 5.25 10.1C4.92333 10.5667 4.52 10.9333 4.04 11.2C3.88667 11.2933 3.70667 11.37 3.5 11.43C3.29333 11.4833 3.08667 11.51 2.88 11.51ZM10.29 7.65C10.1367 7.63 10.03 7.57 9.97 7.47C9.90333 7.36333 9.87 7.24 9.87 7.1C9.87 6.90667 9.91 6.69 9.99 6.45C10.07 6.21 10.1567 5.99 10.25 5.79C10.35 5.58333 10.4267 5.42667 10.48 5.32L10.72 4.93C10.6 4.97667 10.4933 5 10.4 5C10.1733 5 10.01 4.89 9.91 4.67C9.87 4.71667 9.82667 4.77667 9.78 4.85C9.73333 4.92333 9.70333 4.98 9.69 5.02C9.55 5.21333 9.38 5.43667 9.18 5.69C8.98667 5.95 8.79 6.19333 8.59 6.42C8.39667 6.65333 8.22 6.83333 8.06 6.96H8.05C8.03667 6.96 8.02667 6.94667 8.02 6.92C8.01333 6.89333 8.01667 6.87 8.03 6.85C8.16333 6.71667 8.29667 6.57333 8.43 6.42C8.55667 6.26667 8.67667 6.11667 8.79 5.97C8.89 5.83667 9.00667 5.67667 9.14 5.49C9.27333 5.30333 9.39333 5.11333 9.5 4.92C9.61333 4.73333 9.69333 4.57 9.74 4.43C9.73333 4.35667 9.74 4.23667 9.76 4.07C9.77333 3.91 9.85 3.69333 9.99 3.42C10.05 3.3 10.15 3.24 10.29 3.24C10.3833 3.24 10.4733 3.26667 10.56 3.32C10.6467 3.36667 10.7067 3.42667 10.74 3.5C10.5667 3.64 10.42 3.79 10.3 3.95C10.2533 4.01667 10.2033 4.10333 10.15 4.21C10.09 4.31667 10.06 4.42333 10.06 4.53C10.06 4.59 10.08 4.64667 10.12 4.7C10.16 4.75333 10.2333 4.78 10.34 4.78C10.4933 4.78 10.6467 4.74333 10.8 4.67C10.9533 4.59 11.0967 4.52667 11.23 4.48C11.29 4.46667 11.35 4.45 11.41 4.43C11.4633 4.41 11.5133 4.4 11.56 4.4C11.6933 4.4 11.7533 4.47 11.74 4.61C11.54 4.81667 11.3533 5.04333 11.18 5.29C11.0133 5.53667 10.8667 5.79667 10.74 6.07C10.7067 6.13 10.6633 6.23 10.61 6.37C10.5567 6.50333 10.5067 6.64333 10.46 6.79C10.42 6.93 10.4 7.05667 10.4 7.17C10.4 7.35 10.46 7.44 10.58 7.44C10.6267 7.44 10.6867 7.42667 10.76 7.4C10.8267 7.38 10.9067 7.33667 11 7.27C11.2133 7.12333 11.4333 6.93 11.66 6.69C11.8867 6.45 12.0933 6.20667 12.28 5.96C12.4733 5.71333 12.63 5.5 12.75 5.32C12.77 5.30667 12.79 5.3 12.81 5.3C12.83 5.3 12.8467 5.31667 12.86 5.35C12.8733 5.39 12.86 5.43333 12.82 5.48C12.5333 5.88667 12.2433 6.25333 11.95 6.58C11.6633 6.9 11.3833 7.15667 11.11 7.35C10.9567 7.47667 10.8067 7.56 10.66 7.6C10.5133 7.64 10.39 7.65667 10.29 7.65ZM13.14 7.79C12.7667 7.79 12.5033 7.70667 12.35 7.54C12.1967 7.36667 12.12 7.15667 12.12 6.91C12.12 6.75667 12.1433 6.6 12.19 6.44C12.2367 6.28667 12.2967 6.13 12.37 5.97C12.31 5.93 12.28 5.88333 12.28 5.83C12.28 5.74333 12.3767 5.66667 12.57 5.6C12.6567 5.48 12.7633 5.31667 12.89 5.11C13.01 4.89667 13.15 4.68333 13.31 4.47C13.4633 4.25667 13.6233 4.07333 13.79 3.92C13.9567 3.77333 14.12 3.7 14.28 3.7C14.4067 3.7 14.49 3.75 14.53 3.85C14.57 3.84333 14.62 3.84 14.68 3.84C14.9533 3.84 15.09 3.98 15.09 4.26C15.09 4.47333 15.0167 4.67667 14.87 4.87C14.7167 5.06333 14.5367 5.18333 14.33 5.23L14.35 5.3C14.35 5.3 14.3967 5.29 14.49 5.27C14.5833 5.25667 14.6633 5.24667 14.73 5.24C14.8833 5.23333 15.0533 5.23333 15.24 5.24C15.4267 5.24667 15.55 5.29 15.61 5.37C15.63 5.38333 15.6267 5.39667 15.6 5.41C15.58 5.41667 15.56 5.41667 15.54 5.41C15.4667 5.37 15.3433 5.35 15.17 5.35C14.95 5.35 14.6867 5.38 14.38 5.44C14.08 5.49333 13.8033 5.56 13.55 5.64C13.2967 5.72 13.1233 5.79333 13.03 5.86C12.95 5.98667 12.8667 6.15 12.78 6.35C12.6933 6.55 12.65 6.74333 12.65 6.93C12.65 7.10333 12.7 7.24667 12.8 7.36C12.9 7.48 13.08 7.54 13.34 7.54C13.62 7.54 13.88 7.47 14.12 7.33C14.3533 7.19 14.5733 7.01333 14.78 6.8C14.9867 6.59333 15.17 6.39667 15.33 6.21C15.35 6.19 15.4133 6.11333 15.52 5.98C15.6333 5.85333 15.7533 5.71333 15.88 5.56C16.0067 5.4 16.0967 5.28 16.15 5.2C16.15 5.2 16.16 5.21 16.18 5.23C16.2 5.26333 16.1967 5.3 16.17 5.34C16.05 5.48667 15.9267 5.64333 15.8 5.81C15.68 5.98333 15.5567 6.14667 15.43 6.3C15.2433 6.53333 15.0333 6.76667 14.8 7C14.5733 7.22667 14.3233 7.41333 14.05 7.56C13.7833 7.71333 13.48 7.79 13.14 7.79ZM13.17 5.58C13.35 5.51333 13.49 5.46667 13.59 5.44C13.6967 5.40667 13.79 5.37333 13.87 5.34C13.9567 5.29333 14.04 5.24 14.12 5.18C14.2 5.12 14.2867 5.03333 14.38 4.92C14.46 4.81333 14.53 4.7 14.59 4.58C14.6433 4.45333 14.67 4.33667 14.67 4.23C14.67 4.13667 14.6433 4.06333 14.59 4.01C14.53 3.95 14.43 3.98333 14.29 4.11C14.15 4.23667 14 4.39333 13.84 4.58C13.6933 4.76667 13.5567 4.95333 13.43 5.14C13.3033 5.32667 13.2167 5.47333 13.17 5.58ZM16.15 12.59C15.8433 12.59 15.58 12.4967 15.36 12.31C15.1333 12.1233 15.02 11.8433 15.02 11.47C15.02 11.3967 15.0233 11.3167 15.03 11.23C15.0433 11.1367 15.0633 11.0433 15.09 10.95C15.1633 10.6833 15.2433 10.4567 15.33 10.27C15.41 10.09 15.54 9.86 15.72 9.58C15.9067 9.30667 16.1033 9.02667 16.31 8.74C16.5233 8.45333 16.7433 8.16333 16.97 7.87C17.0033 7.82333 17.05 7.72667 17.11 7.58C17.1633 7.42667 17.2 7.27333 17.22 7.12C17.24 6.99333 17.2567 6.82667 17.27 6.62C17.2833 6.40667 17.29 6.19333 17.29 5.98C17.29 5.29333 17.15 4.95 16.87 4.95C16.67 4.95 16.4367 5.11333 16.17 5.44L15.5 6.25C15.48 6.27 15.4633 6.28 15.45 6.28C15.4367 6.28 15.42 6.26333 15.4 6.23C15.3867 6.20333 15.3967 6.17667 15.43 6.15C15.57 5.97 15.7033 5.79 15.83 5.61C15.9633 5.43 16.0633 5.29333 16.13 5.2C16.2833 4.95333 16.4533 4.76 16.64 4.62C16.8267 4.47333 17.0067 4.4 17.18 4.4C17.4133 4.4 17.5733 4.48667 17.66 4.66C17.7467 4.83333 17.79 5.05 17.79 5.31C17.79 5.53667 17.7667 5.77667 17.72 6.03C17.6733 6.29 17.6167 6.53333 17.55 6.76C17.49 6.98667 17.4367 7.17667 17.39 7.33C17.8633 6.72333 18.34 6.07 18.82 5.37C19.3 4.67667 19.7267 4.04667 20.1 3.48C20.1467 3.4 20.2267 3.33667 20.34 3.29C20.4533 3.24333 20.56 3.22 20.66 3.22H20.76C20.8333 3.22 20.8833 3.22667 20.91 3.24C20.9433 3.26 20.9433 3.28333 20.91 3.31C20.77 3.47667 20.56 3.73 20.28 4.07C20 4.41 19.6967 4.79 19.37 5.21C19.0367 5.62333 18.7133 6.02667 18.4 6.42C18.0867 6.82 17.8267 7.16 17.62 7.44C17.3533 7.79333 17.0733 8.17333 16.78 8.58C16.4933 8.98667 16.24 9.4 16.02 9.82C15.8 10.2467 15.6567 10.66 15.59 11.06C15.5833 11.1 15.58 11.1367 15.58 11.17C15.58 11.2033 15.58 11.2433 15.58 11.29C15.58 11.55 15.65 11.7933 15.79 12.02C15.93 12.24 16.1367 12.35 16.41 12.35C16.5167 12.35 16.64 12.3267 16.78 12.28C16.9133 12.2267 17.0533 12.14 17.2 12.02C17.2467 11.98 17.29 11.96 17.33 11.96C17.3567 11.96 17.37 11.98 17.37 12.02C17.37 12.08 17.3467 12.1267 17.3 12.16C17.1267 12.3067 16.94 12.4167 16.74 12.49C16.5333 12.5567 16.3367 12.59 16.15 12.59ZM25.18 7.89C24.5267 7.89 24.0567 7.72667 23.77 7.4C23.4833 7.08 23.34 6.66667 23.34 6.16C23.34 5.85333 23.3867 5.52667 23.48 5.18C23.5733 4.82667 23.6967 4.46333 23.85 4.09C24.1233 3.49667 24.4467 2.95 24.82 2.45C25.1933 1.95667 25.6 1.53333 26.04 1.18C25.9667 1.18667 25.89 1.20333 25.81 1.23C25.73 1.25 25.6533 1.27 25.58 1.29C25.4533 1.33 25.3433 1.35 25.25 1.35C25.1433 1.35 25.09 1.31667 25.09 1.25C25.09 1.17667 25.14 1.09667 25.24 1.01C25.34 0.93 25.4533 0.87 25.58 0.83C26.0067 0.716667 26.42 0.646667 26.82 0.62C26.94 0.546667 27.1033 0.463333 27.31 0.37C27.5167 0.276667 27.7333 0.193333 27.96 0.12C28.1933 0.0399999 28.3967 0 28.57 0C28.73 0 28.8533 0.0333328 28.94 0.0999994C29.0333 0.166666 29.07 0.29 29.05 0.47C29.0367 0.523334 29.0067 0.553333 28.96 0.559999C28.9133 0.559999 28.89 0.536666 28.89 0.49C28.89 0.303333 28.8133 0.21 28.66 0.21C28.5333 0.21 28.39 0.253333 28.23 0.34C28.0633 0.426667 27.9067 0.516666 27.76 0.61C28.4333 0.703333 28.92 0.97 29.22 1.41C29.5267 1.85667 29.68 2.36333 29.68 2.93C29.68 3.55667 29.52 4.16 29.2 4.74C29.0067 5.11333 28.7733 5.48333 28.5 5.85C28.2333 6.21667 27.93 6.55333 27.59 6.86C27.2433 7.17333 26.87 7.42333 26.47 7.61C26.07 7.79667 25.64 7.89 25.18 7.89ZM25.1 7.66C25.4933 7.66 25.8767 7.55667 26.25 7.35C26.63 7.13667 26.99 6.86333 27.33 6.53C27.6633 6.20333 27.96 5.85667 28.22 5.49C28.48 5.11667 28.6867 4.77333 28.84 4.46C29.12 3.84 29.26 3.26333 29.26 2.73C29.26 2.20333 29.13 1.77 28.87 1.43C28.6167 1.09667 28.2567 0.93 27.79 0.93C27.6033 0.93 27.3867 0.966667 27.14 1.04C26.8267 1.23333 26.4367 1.56333 25.97 2.03C25.5033 2.49667 25.0633 3.12 24.65 3.9C24.4167 4.34667 24.2433 4.76667 24.13 5.16C24.01 5.56 23.95 5.91667 23.95 6.23C23.95 6.67 24.05 7.02 24.25 7.28C24.4433 7.53333 24.7267 7.66 25.1 7.66ZM29.24 12C28.7667 12 28.31 11.9033 27.87 11.71C27.43 11.51 27.0067 11.2533 26.6 10.94C26.1867 10.6333 25.7833 10.3 25.39 9.94C24.99 9.58 24.5933 9.23667 24.2 8.91C23.9333 8.68333 23.6733 8.57 23.42 8.57C23.26 8.57 23.1433 8.63667 23.07 8.77C23.0433 8.82333 23.0167 8.90667 22.99 9.02C22.9567 9.13333 22.9467 9.24667 22.96 9.36V9.38C22.96 9.48667 22.9267 9.54 22.86 9.54C22.8133 9.54 22.79 9.48 22.79 9.36C22.7967 9.08667 22.84 8.82667 22.92 8.58C22.9933 8.33333 23.0967 8.13333 23.23 7.98C23.3633 7.83333 23.5233 7.78333 23.71 7.83C23.89 7.87 24.1167 8.00667 24.39 8.24C24.67 8.48 24.98 8.76667 25.32 9.1C25.6667 9.44 26.04 9.78667 26.44 10.14C26.8467 10.4933 27.2733 10.8133 27.72 11.1C28.1667 11.3867 28.6233 11.5933 29.09 11.72C29.2033 11.76 29.3233 11.78 29.45 11.78C29.75 11.78 29.99 11.69 30.17 11.51C30.3433 11.3233 30.43 11.11 30.43 10.87C30.43 10.7033 30.3933 10.55 30.32 10.41C30.32 10.3967 30.3167 10.39 30.31 10.39C30.31 10.3833 30.31 10.38 30.31 10.38C30.31 10.34 30.33 10.3233 30.37 10.33C30.41 10.3367 30.44 10.3467 30.46 10.36C30.6467 10.6267 30.74 10.87 30.74 11.09C30.74 11.3233 30.6533 11.5067 30.48 11.64C30.3067 11.78 30.1033 11.8733 29.87 11.92C29.6367 11.9733 29.4267 12 29.24 12ZM30.34 7.75C30.1133 7.75 29.9233 7.66333 29.77 7.49C29.6167 7.32333 29.54 7.06333 29.54 6.71C29.54 6.39 29.61 6.07333 29.75 5.76C29.89 5.44 30.0767 5.15333 30.31 4.9C30.55 4.64 30.8167 4.44667 31.11 4.32C31.1833 4.28667 31.2533 4.26333 31.32 4.25C31.38 4.23 31.4433 4.22 31.51 4.22C31.65 4.22 31.7733 4.25667 31.88 4.33C31.98 4.40333 32.03 4.52 32.03 4.68C32.03 4.72 32.0267 4.75333 32.02 4.78C32.02 4.80667 32.0133 4.84 32 4.88C31.9933 4.91333 31.9667 4.93667 31.92 4.95C31.88 4.95667 31.86 4.94 31.86 4.9C31.88 4.74667 31.85 4.62333 31.77 4.53C31.69 4.44333 31.59 4.4 31.47 4.4C31.3833 4.4 31.3033 4.42 31.23 4.46C30.9967 4.56667 30.7933 4.73667 30.62 4.97C30.4467 5.19667 30.3167 5.44667 30.23 5.72C30.1433 5.98667 30.1 6.24667 30.1 6.5C30.1067 7.04 30.2867 7.31 30.64 7.31C30.84 7.31 31.0467 7.23 31.26 7.07C31.4733 6.91667 31.66 6.7 31.82 6.42C31.98 6.14 32.1067 5.83667 32.2 5.51C32.2933 5.19 32.34 4.9 32.34 4.64C32.34 4.48 32.32 4.33333 32.28 4.2C32.2467 4.07333 32.1833 3.97667 32.09 3.91C32.0433 3.87 31.9667 3.85 31.86 3.85C31.7 3.85 31.58 3.88333 31.5 3.95C31.44 3.99 31.4067 4.01 31.4 4.01C31.36 4.01 31.34 3.98667 31.34 3.94C31.34 3.9 31.36 3.85333 31.4 3.8C31.4533 3.70667 31.5433 3.63667 31.67 3.59C31.79 3.54333 31.9133 3.52 32.04 3.52C32.1933 3.52 32.3267 3.55333 32.44 3.62C32.68 3.74667 32.8 4.02 32.8 4.44C32.8 4.74 32.7367 5.07667 32.61 5.45C32.4833 5.82333 32.31 6.18 32.09 6.52C31.87 6.86 31.62 7.13667 31.34 7.35C31.0067 7.61667 30.6733 7.75 30.34 7.75Z" fill="black"/>
</svg>
