<svg width="49" height="13" viewBox="0 0 49 13" fill="none" xmlns="http://www.w3.org/2000/svg">
<path d="M1.59 12.5C1.34333 12.5 1.13333 12.4733 0.96 12.42C0.653333 12.3133 0.5 12.1033 0.5 11.79C0.5 11.5433 0.6 11.27 0.8 10.97C0.993333 10.6633 1.28667 10.3767 1.68 10.11C2.02667 9.86333 2.41 9.67 2.83 9.53C3.25667 9.38333 3.68667 9.28 4.12 9.22C4.55333 9.16 4.95667 9.13333 5.33 9.14C5.42333 8.93333 5.51333 8.72333 5.6 8.51C5.68 8.29667 5.76667 8.08667 5.86 7.88C5.5 8.06 5.14333 8.19 4.79 8.27C4.44333 8.35667 4.10667 8.4 3.78 8.4C3.08 8.4 2.49 8.22 2.01 7.86C1.53667 7.5 1.26333 7.00667 1.19 6.38C1.17667 6.30667 1.17 6.23667 1.17 6.17C1.17 6.10333 1.17 6.04 1.17 5.98C1.17 5.30667 1.31667 4.65667 1.61 4.03C1.89667 3.40333 2.25667 2.86667 2.69 2.42C2.42333 2.23333 2.23333 2.04333 2.12 1.85C2 1.65 1.94 1.45667 1.94 1.27C1.94 0.916667 2.12 0.616667 2.48 0.37C2.84 0.123333 3.29 0 3.83 0C4.05 0 4.25333 0.0166669 4.44 0.0500002C4.63333 0.0900002 4.79667 0.146667 4.93 0.22C4.97667 0.24 5 0.273334 5 0.320001C5 0.386667 4.94667 0.400001 4.84 0.360001C4.74 0.326667 4.6 0.296667 4.42 0.27C4.24667 0.25 4.06 0.24 3.86 0.24C3.40667 0.24 3.03333 0.343334 2.74 0.55C2.45333 0.763334 2.31 1.01667 2.31 1.31C2.31 1.46333 2.35 1.62 2.43 1.78C2.51667 1.94667 2.65333 2.11 2.84 2.27C3.26 1.85 3.72333 1.50667 4.23 1.24C4.74333 0.98 5.26667 0.786667 5.8 0.66C6.34 0.533333 6.85667 0.47 7.35 0.47C7.97667 0.47 8.44333 0.573333 8.75 0.78C9.06333 0.986666 9.22 1.23 9.22 1.51C9.22 1.78333 9.07333 2.05667 8.78 2.33C8.48 2.60333 8.03 2.82 7.43 2.98C7.15 3.05333 6.85667 3.11333 6.55 3.16C6.24333 3.20667 5.92667 3.23 5.6 3.23C5.18667 3.23 4.77667 3.19 4.37 3.11C3.95667 3.03 3.57333 2.90333 3.22 2.73C2.86667 3.15667 2.57 3.67 2.33 4.27C2.09 4.87667 1.97 5.48333 1.97 6.09C1.97 6.61 2.06 7.02333 2.24 7.33C2.42667 7.63 2.67 7.84667 2.97 7.98C3.26333 8.10667 3.58333 8.17 3.93 8.17C4.28333 8.17 4.64333 8.11667 5.01 8.01C5.37667 7.89667 5.7 7.76 5.98 7.6C6.22 6.97333 6.47667 6.39 6.75 5.85C7.03 5.31 7.34 4.91333 7.68 4.66C7.79333 4.57333 7.91667 4.53 8.05 4.53C8.16333 4.53 8.26333 4.56667 8.35 4.64C8.43667 4.70667 8.48 4.82 8.48 4.98C8.48 5.11333 8.44 5.28 8.36 5.48C8.27333 5.68 8.12333 5.91667 7.91 6.19C7.74333 6.40333 7.54333 6.62333 7.31 6.85C7.08333 7.07667 6.82 7.29 6.52 7.49C6.44667 7.77 6.36667 8.05333 6.28 8.34C6.2 8.63333 6.10667 8.91333 6 9.18C6.18 9.22 6.34 9.26333 6.48 9.31C6.62 9.35667 6.73333 9.41667 6.82 9.49C6.87333 9.53 6.9 9.57667 6.9 9.63C6.9 9.65 6.89 9.66333 6.87 9.67C6.84333 9.68333 6.80667 9.67 6.76 9.63C6.68667 9.56333 6.57333 9.51333 6.42 9.48C6.27333 9.44 6.10667 9.40667 5.92 9.38C5.82 9.64 5.71 9.89 5.59 10.13C5.47667 10.3767 5.34 10.5967 5.18 10.79C4.87333 11.19 4.50667 11.5167 4.08 11.77C3.65333 12.0233 3.22 12.2067 2.78 12.32C2.34667 12.44 1.95 12.5 1.59 12.5ZM5.57 3.05C6.23 3.05 6.81333 2.97 7.32 2.81C7.78 2.67 8.12333 2.48333 8.35 2.25C8.57667 2.01 8.69 1.77333 8.69 1.54C8.69 1.30667 8.57 1.1 8.33 0.92C8.09667 0.746667 7.74 0.66 7.26 0.66C6.62667 0.66 5.95333 0.823334 5.24 1.15C4.52667 1.47667 3.89333 1.95667 3.34 2.59C3.66 2.75 4.01333 2.86667 4.4 2.94C4.78667 3.01333 5.17667 3.05 5.57 3.05ZM6.63 7.12C6.80333 6.99333 6.96667 6.85333 7.12 6.7C7.28 6.55333 7.43667 6.39 7.59 6.21C7.83667 5.92333 8.01333 5.67333 8.12 5.46C8.23333 5.25333 8.29 5.09 8.29 4.97C8.29 4.80333 8.22 4.72 8.08 4.72C7.99333 4.72 7.9 4.75 7.8 4.81C7.53333 4.96333 7.31333 5.25333 7.14 5.68C6.96 6.11333 6.79 6.59333 6.63 7.12ZM1.58 12.28C1.88 12.28 2.21 12.21 2.57 12.07C2.93667 11.93 3.30333 11.7133 3.67 11.42C4.04333 11.1333 4.37667 10.7733 4.67 10.34C4.77667 10.2 4.87667 10.0433 4.97 9.87C5.06333 9.70333 5.15667 9.52667 5.25 9.34C4.73667 9.34 4.17 9.41667 3.55 9.57C2.93 9.73 2.36667 9.97333 1.86 10.3C1.51333 10.5267 1.24667 10.7667 1.06 11.02C0.866667 11.28 0.77 11.5167 0.77 11.73C0.77 11.97 0.896667 12.1333 1.15 12.22C1.21 12.24 1.28 12.2533 1.36 12.26C1.43333 12.2733 1.50667 12.28 1.58 12.28ZM9.56 8.38C9.38 8.38 9.22667 8.31 9.1 8.17C8.96667 8.02333 8.9 7.81 8.9 7.53C8.9 7.39667 8.92 7.24667 8.96 7.08C8.99333 6.91333 9.05667 6.73333 9.15 6.54C9.37 6.07333 9.53 5.73333 9.63 5.52C9.73 5.31333 9.79667 5.18 9.83 5.12C9.85667 5.06667 9.86 5.04333 9.84 5.05C9.82 5.06333 9.75333 5.15 9.64 5.31C9.52 5.47667 9.38667 5.66333 9.24 5.87C9.08667 6.08333 8.95 6.26333 8.83 6.41C8.80333 6.45 8.77 6.47 8.73 6.47C8.69667 6.47 8.68 6.45 8.68 6.41C8.68 6.37 8.69667 6.32667 8.73 6.28C8.99667 5.89333 9.21667 5.56667 9.39 5.3C9.57 5.03333 9.74667 4.75333 9.92 4.46C10.0133 4.30667 10.1267 4.23 10.26 4.23C10.3933 4.23667 10.5333 4.24 10.68 4.24C10.64 4.30667 10.5667 4.46667 10.46 4.72C10.3467 4.98 10.2233 5.26667 10.09 5.58C9.96333 5.89333 9.84333 6.16667 9.73 6.4C9.61 6.68 9.51 6.93 9.43 7.15C9.35667 7.37667 9.32 7.57 9.32 7.73C9.32 7.97667 9.42 8.12 9.62 8.16C9.74 8.18667 9.88333 8.13333 10.05 8C10.2167 7.86667 10.3933 7.68333 10.58 7.45C10.7667 7.21667 10.9433 6.96 11.11 6.68C11.2833 6.4 11.43 6.12333 11.55 5.85C11.6633 5.59667 11.77 5.34333 11.87 5.09C11.97 4.83 12.06 4.61333 12.14 4.44C12.1867 4.33333 12.2867 4.28333 12.44 4.29C12.5933 4.29667 12.73 4.3 12.85 4.3C12.7633 4.38 12.66 4.54667 12.54 4.8C12.4133 5.05333 12.2833 5.34667 12.15 5.68C12.0167 6.00667 11.91 6.34 11.83 6.68C11.7433 7.01333 11.7 7.3 11.7 7.54C11.7 7.72 11.73 7.86667 11.79 7.98C11.85 8.09333 11.9467 8.15 12.08 8.15C12.2667 8.15 12.46 8.05667 12.66 7.87C12.86 7.69 13.0467 7.46333 13.22 7.19C13.3933 6.91 13.5367 6.63667 13.65 6.37C13.65 6.35667 13.6433 6.30333 13.63 6.21C13.6167 6.11 13.61 5.96667 13.61 5.78C13.61 5.68 13.6133 5.56 13.62 5.42C13.6267 5.28 13.64 5.13 13.66 4.97C13.7067 4.65 13.79 4.41 13.91 4.25C14.0233 4.08333 14.1467 4 14.28 4C14.4 4 14.48 4.03333 14.52 4.1C14.5667 4.16667 14.59 4.25667 14.59 4.37C14.59 4.55667 14.54 4.78 14.44 5.04C14.34 5.3 14.2333 5.54333 14.12 5.77C14.0133 6.00333 13.9367 6.17 13.89 6.27C13.9367 6.55667 14.0067 6.75667 14.1 6.87C14.2 6.98333 14.31 7.04 14.43 7.04C14.6433 7.04 14.85 6.93667 15.05 6.73C15.2433 6.52333 15.42 6.30333 15.58 6.07C15.6 6.05667 15.62 6.05 15.64 6.05C15.6733 6.05 15.69 6.07667 15.69 6.13C15.69 6.17667 15.6667 6.23667 15.62 6.31C15.48 6.51 15.31 6.71667 15.11 6.93C14.91 7.14333 14.6733 7.25 14.4 7.25C14.2467 7.25 14.1067 7.2 13.98 7.1C13.8533 7.00667 13.76 6.86 13.7 6.66C13.7 6.66 13.66 6.74667 13.58 6.92C13.4933 7.09333 13.37 7.29333 13.21 7.52C13.0567 7.75333 12.87 7.95333 12.65 8.12C12.43 8.29333 12.1833 8.38 11.91 8.38C11.7033 8.38 11.5367 8.3 11.41 8.14C11.2767 7.97333 11.21 7.72667 11.21 7.4C11.21 7.29333 11.22 7.17333 11.24 7.04C11.26 6.90667 11.2867 6.76667 11.32 6.62C11.0867 7.08667 10.8167 7.49667 10.51 7.85C10.2033 8.20333 9.88667 8.38 9.56 8.38ZM16.6 8.41C16.1733 8.41 15.87 8.26667 15.69 7.98C15.5033 7.68667 15.41 7.36 15.41 7C15.41 6.86 15.4233 6.71667 15.45 6.57C15.4833 6.42333 15.5167 6.29 15.55 6.17C15.6567 5.87 15.7933 5.59333 15.96 5.34C16.1333 5.08 16.3233 4.86333 16.53 4.69C16.71 4.52333 16.9 4.39333 17.1 4.3C17.3 4.20667 17.4833 4.16 17.65 4.16C17.81 4.16 17.94 4.20333 18.04 4.29C18.1333 4.37667 18.18 4.52333 18.18 4.73C18.18 4.89 18.15 5.06667 18.09 5.26C17.9833 5.6 17.77 5.89333 17.45 6.14C17.13 6.38667 16.79 6.51 16.43 6.51C16.37 6.51 16.3067 6.50333 16.24 6.49C16.1733 6.47667 16.1033 6.46 16.03 6.44C15.99 6.58 15.96 6.72 15.94 6.86C15.9133 7.00667 15.9 7.14667 15.9 7.28C15.9 7.54 15.9567 7.76333 16.07 7.95C16.1833 8.13667 16.38 8.23 16.66 8.23C16.8733 8.23 17.1167 8.15 17.39 7.99C17.6567 7.83 17.93 7.63 18.21 7.39C18.4833 7.15 18.73 6.9 18.95 6.64C19.1767 6.38667 19.3567 6.15667 19.49 5.95C19.5167 5.90333 19.5433 5.88 19.57 5.88C19.6167 5.88 19.64 5.90667 19.64 5.96C19.64 5.98667 19.6267 6.02333 19.6 6.07C19.3667 6.41 19.1 6.74333 18.8 7.07C18.5 7.39667 18.1867 7.67667 17.86 7.91C17.64 8.07 17.4233 8.19333 17.21 8.28C17.0033 8.36667 16.8 8.41 16.6 8.41ZM16.36 6.41C16.54 6.41 16.7267 6.34333 16.92 6.21C17.12 6.07 17.3 5.91 17.46 5.73C17.6133 5.55 17.7233 5.39 17.79 5.25C17.93 4.95 18 4.72 18 4.56C18 4.36667 17.9167 4.27 17.75 4.27C17.6367 4.27 17.4967 4.32667 17.33 4.44C17.1633 4.56 16.9967 4.73 16.83 4.95C16.67 5.17 16.5233 5.40333 16.39 5.65C16.2633 5.90333 16.16 6.12333 16.08 6.31C16.16 6.37667 16.2533 6.41 16.36 6.41ZM18.87 8.47C18.87 8.47 18.9433 8.30333 19.09 7.97C19.2433 7.63667 19.44 7.16 19.68 6.54C19.8867 6.07333 20.04 5.73333 20.14 5.52C20.2467 5.31333 20.3133 5.18 20.34 5.12C20.3667 5.06667 20.37 5.04333 20.35 5.05C20.3367 5.06333 20.27 5.15 20.15 5.31C20.0367 5.47667 19.9067 5.66333 19.76 5.87C19.6133 6.08333 19.4767 6.26333 19.35 6.41C19.3167 6.45 19.2833 6.47 19.25 6.47C19.21 6.47 19.19 6.45 19.19 6.41C19.19 6.37 19.21 6.32667 19.25 6.28C19.51 5.89333 19.73 5.56667 19.91 5.3C20.0833 5.03333 20.26 4.75333 20.44 4.46C20.5333 4.30667 20.6433 4.23 20.77 4.23C20.9033 4.23667 21.0433 4.24 21.19 4.24C21.1567 4.32667 21.0967 4.46667 21.01 4.66C20.93 4.85333 20.8367 5.07667 20.73 5.33C20.6167 5.57667 20.5133 5.82 20.42 6.06C20.58 5.78667 20.7933 5.48 21.06 5.14C21.3267 4.8 21.6033 4.54333 21.89 4.37C22.1367 4.21667 22.3633 4.14 22.57 4.14C22.7167 4.14 22.8367 4.18 22.93 4.26C23.0233 4.34 23.07 4.46 23.07 4.62C23.07 4.76667 23.0233 4.94 22.93 5.14C22.8167 5.37333 22.6733 5.65 22.5 5.97C22.32 6.29 22.1533 6.60667 22 6.92C21.8467 7.23333 21.7367 7.50333 21.67 7.73C21.6633 7.76333 21.6567 7.79667 21.65 7.83C21.6433 7.86333 21.64 7.9 21.64 7.94C21.64 8.14 21.7533 8.24 21.98 8.24C22.06 8.24 22.17 8.21667 22.31 8.17C22.5833 8.06333 22.8667 7.87 23.16 7.59C23.4533 7.31667 23.7333 7.02 24 6.7C24.2667 6.37333 24.48 6.08667 24.64 5.84C24.6667 5.8 24.6933 5.78 24.72 5.78C24.7467 5.78 24.77 5.8 24.79 5.84C24.8033 5.87333 24.7933 5.91333 24.76 5.96C24.6067 6.22 24.3933 6.51 24.12 6.83C23.8467 7.15 23.56 7.44333 23.26 7.71C22.9533 7.98333 22.66 8.18 22.38 8.3C22.2867 8.34 22.2 8.36667 22.12 8.38C22.0333 8.4 21.9533 8.41 21.88 8.41C21.6867 8.41 21.5267 8.35333 21.4 8.24C21.2733 8.12 21.21 7.95333 21.21 7.74C21.21 7.48 21.2933 7.18667 21.46 6.86C21.6267 6.53333 21.8167 6.20333 22.03 5.87C22.2367 5.53667 22.4 5.23667 22.52 4.97C22.56 4.89667 22.58 4.82 22.58 4.74C22.58 4.52667 22.4767 4.42 22.27 4.42C22.1767 4.42 22.0667 4.45667 21.94 4.53C21.72 4.66333 21.5033 4.86667 21.29 5.14C21.07 5.42 20.86 5.71667 20.66 6.03C20.3933 6.46333 20.1467 6.89333 19.92 7.32C19.6933 7.74667 19.53 8.08667 19.43 8.34C19.31 8.34 19.1867 8.36333 19.06 8.41C18.9333 8.45 18.87 8.47 18.87 8.47ZM27.48 8.4C27.2267 8.4 27.0467 8.30333 26.94 8.11C26.8333 7.91667 26.78 7.69 26.78 7.43C26.78 7.25667 26.8033 7.06 26.85 6.84C26.8233 6.90667 26.7667 7.01667 26.68 7.17C26.6 7.32333 26.4933 7.48667 26.36 7.66C26.2267 7.83333 26.08 7.98667 25.92 8.12C25.7533 8.24667 25.5733 8.32667 25.38 8.36C25.3533 8.36667 25.3233 8.37 25.29 8.37C25.2567 8.37 25.2267 8.37 25.2 8.37C24.9067 8.37 24.6733 8.26667 24.5 8.06C24.32 7.84667 24.23 7.55333 24.23 7.18C24.23 6.81333 24.33 6.38 24.53 5.88C24.6233 5.63333 24.7633 5.38667 24.95 5.14C25.1367 4.88667 25.3633 4.67 25.63 4.49C25.9033 4.31667 26.2033 4.23 26.53 4.23C26.8633 4.23 27.09 4.28333 27.21 4.39C27.3233 4.49667 27.4167 4.59 27.49 4.67C27.71 4.05 27.9433 3.42 28.19 2.78C28.4433 2.14 28.7467 1.55667 29.1 1.03C29.24 0.816666 29.3967 0.66 29.57 0.56C29.7433 0.453334 29.9067 0.400001 30.06 0.400001C30.2067 0.400001 30.3267 0.45 30.42 0.55C30.5133 0.65 30.56 0.806667 30.56 1.02C30.56 1.23333 30.5 1.49333 30.38 1.8C30.2 2.24 29.8933 2.77667 29.46 3.41C29.0267 4.03667 28.4133 4.73333 27.62 5.5C27.58 5.59333 27.53 5.75 27.47 5.97C27.4033 6.19 27.3433 6.43 27.29 6.69C27.2367 6.95 27.21 7.19333 27.21 7.42C27.21 7.62667 27.2433 7.8 27.31 7.94C27.3767 8.08667 27.4933 8.16 27.66 8.16C27.7533 8.16 27.86 8.13333 27.98 8.08C28.2533 7.96667 28.5333 7.77667 28.82 7.51C29.1133 7.24333 29.3867 6.95667 29.64 6.65C29.9 6.34333 30.11 6.06333 30.27 5.81C30.3233 5.71667 30.3733 5.67 30.42 5.67C30.4467 5.67 30.46 5.69333 30.46 5.74C30.46 5.77333 30.4333 5.84333 30.38 5.95C30.22 6.21 30.01 6.49667 29.75 6.81C29.49 7.12333 29.21 7.41333 28.91 7.68C28.61 7.94667 28.32 8.14 28.04 8.26C27.8267 8.35333 27.64 8.4 27.48 8.4ZM27.69 5.22C28.27 4.64 28.7767 4.03333 29.21 3.4C29.6433 2.76667 29.9633 2.21667 30.17 1.75C30.2433 1.59 30.2933 1.45 30.32 1.33C30.3467 1.21 30.36 1.10333 30.36 1.01C30.36 0.81 30.3 0.71 30.18 0.71C30.1067 0.71 30.01 0.763333 29.89 0.87C29.77 0.97 29.6333 1.14 29.48 1.38C29.12 1.97333 28.7967 2.59333 28.51 3.24C28.2233 3.88667 27.95 4.54667 27.69 5.22ZM25.27 8.17C25.3233 8.17 25.3633 8.16667 25.39 8.16C25.6167 8.11333 25.8267 7.98333 26.02 7.77C26.22 7.55667 26.4033 7.28667 26.57 6.96C26.7367 6.64 26.8933 6.29667 27.04 5.93C27.1867 5.55667 27.32 5.2 27.44 4.86C27.3933 4.79333 27.3233 4.72333 27.23 4.65C27.1433 4.57 27.02 4.50333 26.86 4.45C26.8133 4.43 26.7667 4.41667 26.72 4.41C26.6733 4.39667 26.6267 4.39 26.58 4.39C26.3467 4.39 26.1367 4.48333 25.95 4.67C25.7567 4.85 25.5867 5.06667 25.44 5.32C25.3 5.57333 25.1833 5.8 25.09 6C24.8833 6.43333 24.78 6.88333 24.78 7.35C24.78 7.58333 24.8167 7.78 24.89 7.94C24.9633 8.09333 25.09 8.17 25.27 8.17ZM31.25 8.48C30.8167 8.48 30.5033 8.32 30.31 8C30.11 7.68 30.01 7.3 30.01 6.86C30.01 6.44667 30.0867 6.03 30.24 5.61C30.3867 5.19 30.5967 4.84 30.87 4.56C31.1367 4.28 31.4433 4.14 31.79 4.14C31.8567 4.14 31.9 4.15 31.92 4.17C32.02 4.05667 32.1333 3.96667 32.26 3.9C32.3867 3.82667 32.5233 3.79 32.67 3.79C32.9967 3.79 33.2267 3.90667 33.36 4.14C33.4933 4.36667 33.56 4.64667 33.56 4.98C33.56 5.30667 33.5067 5.65667 33.4 6.03C33.3 6.40333 33.17 6.75 33.01 7.07C32.85 7.38333 32.6833 7.63 32.51 7.81C32.5567 7.81667 32.6033 7.82333 32.65 7.83C32.6967 7.83667 32.7433 7.84 32.79 7.84C33.1233 7.84 33.43 7.75 33.71 7.57C33.99 7.38333 34.2467 7.16 34.48 6.9C34.7133 6.64 34.9267 6.38333 35.12 6.13C35.1533 6.10333 35.1767 6.09 35.19 6.09C35.23 6.09 35.2533 6.10667 35.26 6.14C35.2733 6.18 35.2667 6.22333 35.24 6.27C35.1533 6.37 35.03 6.52 34.87 6.72C34.71 6.91333 34.52 7.11333 34.3 7.32C34.0733 7.52667 33.83 7.7 33.57 7.84C33.31 7.98 33.04 8.05 32.76 8.05C32.6867 8.05 32.6167 8.04333 32.55 8.03C32.4833 8.01667 32.4133 8 32.34 7.98C32.1867 8.12667 32.02 8.24667 31.84 8.34C31.66 8.43333 31.4633 8.48 31.25 8.48ZM32.27 7.73C32.4767 7.50333 32.6433 7.23667 32.77 6.93C32.9033 6.62333 33.0033 6.30667 33.07 5.98C33.1433 5.65333 33.18 5.35 33.18 5.07C33.18 4.74333 33.1367 4.47667 33.05 4.27C32.9567 4.06333 32.8233 3.98333 32.65 4.03C32.4167 4.08333 32.2133 4.22 32.04 4.44C31.8733 4.65333 31.7467 4.91 31.66 5.21C31.5733 5.50333 31.53 5.80667 31.53 6.12C31.53 6.46 31.5867 6.78 31.7 7.08C31.82 7.38 32.01 7.59667 32.27 7.73ZM31.32 8.24C31.4733 8.24 31.6167 8.20333 31.75 8.13C31.8833 8.05667 32.0033 7.97333 32.11 7.88C31.8433 7.72 31.6467 7.46667 31.52 7.12C31.3933 6.78 31.33 6.41667 31.33 6.03C31.33 5.74333 31.3667 5.46 31.44 5.18C31.5067 4.9 31.6 4.65333 31.72 4.44H31.68C31.5333 4.44 31.3867 4.51667 31.24 4.67C31.0933 4.83 30.9633 5.04 30.85 5.3C30.7433 5.55333 30.6533 5.82667 30.58 6.12C30.5133 6.41333 30.48 6.7 30.48 6.98C30.48 7.32667 30.5433 7.62333 30.67 7.87C30.8033 8.11667 31.02 8.24 31.32 8.24ZM35.66 8.55C35.4267 8.55 35.23 8.47333 35.07 8.32C34.9167 8.16667 34.84 7.92333 34.84 7.59C34.84 7.33667 34.8967 7.00333 35.01 6.59C35.1233 6.17 35.31 5.63333 35.57 4.98C35.8433 4.29333 36.16 3.60667 36.52 2.92C36.88 2.23333 37.2733 1.60333 37.7 1.03C37.86 0.816666 38.0267 0.66 38.2 0.56C38.38 0.453334 38.5433 0.400001 38.69 0.400001C38.8233 0.400001 38.9333 0.443333 39.02 0.53C39.1133 0.616666 39.16 0.753334 39.16 0.940001C39.16 1.04 39.14 1.16333 39.1 1.31C39.06 1.45 38.9933 1.61333 38.9 1.8C38.6867 2.24 38.3533 2.73 37.9 3.27C37.4467 3.80333 36.7933 4.45333 35.94 5.22C35.5267 6.25333 35.32 7.05667 35.32 7.63C35.32 7.88333 35.3633 8.06333 35.45 8.17C35.5433 8.27667 35.6533 8.33 35.78 8.33C35.9133 8.33 36.0567 8.28667 36.21 8.2C36.3633 8.12 36.51 8.02667 36.65 7.92C36.95 7.68667 37.25 7.39667 37.55 7.05C37.8567 6.69667 38.13 6.34 38.37 5.98C38.3833 5.96 38.4067 5.95 38.44 5.95C38.4667 5.95 38.4933 5.96333 38.52 5.99C38.54 6.01667 38.5433 6.04333 38.53 6.07C38.2767 6.44333 37.98 6.82333 37.64 7.21C37.3067 7.59 36.98 7.90667 36.66 8.16C36.32 8.42 35.9867 8.55 35.66 8.55ZM36.1 4.83C36.74 4.24333 37.2733 3.7 37.7 3.2C38.1267 2.7 38.4633 2.21667 38.71 1.75C38.8833 1.40333 38.97 1.13667 38.97 0.95C38.97 0.79 38.9167 0.71 38.81 0.71C38.73 0.71 38.6267 0.763333 38.5 0.87C38.3667 0.976667 38.2167 1.14667 38.05 1.38C37.7767 1.77333 37.5333 2.14667 37.32 2.5C37.1067 2.86 36.9033 3.22333 36.71 3.59C36.5233 3.95667 36.32 4.37 36.1 4.83ZM37.18 12.77C36.9467 12.77 36.7533 12.7133 36.6 12.6C36.4467 12.4933 36.37 12.34 36.37 12.14C36.37 12.0067 36.4033 11.86 36.47 11.7C36.5433 11.54 36.66 11.3667 36.82 11.18C37.08 10.8733 37.4167 10.5867 37.83 10.32C38.25 10.0533 38.6833 9.80333 39.13 9.57C39.5767 9.33 39.9733 9.10333 40.32 8.89C40.3933 8.50333 40.48 8.13 40.58 7.77C40.6733 7.41667 40.7667 7.06667 40.86 6.72C40.7333 6.98667 40.5767 7.25333 40.39 7.52C40.21 7.78667 40.01 8.00667 39.79 8.18C39.57 8.35333 39.33 8.44 39.07 8.44C38.8567 8.44 38.6867 8.35 38.56 8.17C38.4333 7.99667 38.37 7.77 38.37 7.49C38.37 7.19 38.4467 6.87333 38.6 6.54C38.7 6.31333 38.8067 6.08667 38.92 5.86C39.0333 5.62667 39.1267 5.43333 39.2 5.28C39.2733 5.12 39.3 5.04333 39.28 5.05C39.26 5.06333 39.1933 5.15 39.08 5.31C38.96 5.47667 38.8267 5.66333 38.68 5.87C38.5333 6.08333 38.3967 6.26333 38.27 6.41C38.2433 6.45 38.2133 6.47 38.18 6.47C38.14 6.47 38.12 6.45 38.12 6.41C38.12 6.37 38.14 6.32667 38.18 6.28C38.4267 5.89333 38.6433 5.56667 38.83 5.3C39.01 5.03333 39.19 4.75333 39.37 4.46C39.4633 4.30667 39.5733 4.23 39.7 4.23C39.8333 4.23667 39.9733 4.24 40.12 4.24C40.0867 4.36 40.0167 4.55 39.91 4.81C39.7967 5.06333 39.68 5.33667 39.56 5.63C39.4333 5.92333 39.3167 6.18667 39.21 6.42C39.09 6.71333 38.9933 6.98333 38.92 7.23C38.8467 7.47667 38.81 7.68333 38.81 7.85C38.81 8.14333 38.92 8.29 39.14 8.29C39.32 8.29 39.5267 8.18 39.76 7.96C39.9933 7.74667 40.2167 7.47 40.43 7.13C40.6433 6.79 40.8167 6.44333 40.95 6.09C40.97 6.05 41.0033 5.96 41.05 5.82C41.0967 5.67333 41.1467 5.51333 41.2 5.34C41.2533 5.16667 41.3033 5.00667 41.35 4.86C41.3967 4.70667 41.4267 4.61333 41.44 4.58C41.5333 4.42 41.6433 4.32333 41.77 4.29C41.9033 4.25667 42.0433 4.24 42.19 4.24C42.11 4.36 42.01 4.58 41.89 4.9C41.7633 5.21333 41.6333 5.58667 41.5 6.02C41.3667 6.44667 41.24 6.89 41.12 7.35C40.9933 7.81667 40.89 8.26 40.81 8.68C41.31 8.34 41.7233 8.02333 42.05 7.73C42.3767 7.43 42.6633 7.12667 42.91 6.82C43.15 6.52 43.3933 6.19667 43.64 5.85C43.6667 5.81 43.6967 5.79 43.73 5.79C43.7767 5.79 43.8 5.82 43.8 5.88C43.8 5.92667 43.7833 5.97333 43.75 6.02C43.5433 6.3 43.31 6.6 43.05 6.92C42.79 7.24 42.4733 7.57667 42.1 7.93C41.7333 8.27667 41.28 8.63333 40.74 9C40.5867 9.72667 40.3433 10.33 40.01 10.81C39.6767 11.29 39.32 11.6733 38.94 11.96C38.56 12.2467 38.2267 12.4533 37.94 12.58C37.6867 12.7067 37.4333 12.77 37.18 12.77ZM37.11 12.56C37.37 12.56 37.6233 12.4833 37.87 12.33C38.3633 12.03 38.8067 11.6267 39.2 11.12C39.5933 10.6133 39.93 9.96667 40.21 9.18C39.8833 9.36667 39.52 9.57 39.12 9.79C38.7267 10.01 38.3467 10.2433 37.98 10.49C37.6133 10.7367 37.3133 11.01 37.08 11.31C36.9267 11.5033 36.8133 11.6733 36.74 11.82C36.6733 11.9667 36.64 12.09 36.64 12.19C36.64 12.31 36.6867 12.4 36.78 12.46C36.8733 12.5267 36.9833 12.56 37.11 12.56ZM42.99 8.47C42.99 8.47 43.0667 8.30333 43.22 7.97C43.3667 7.63667 43.56 7.16 43.8 6.54C44.0067 6.07333 44.1633 5.73333 44.27 5.52C44.37 5.31333 44.4333 5.18 44.46 5.12C44.4867 5.06667 44.4933 5.04333 44.48 5.05C44.46 5.06333 44.39 5.15 44.27 5.31C44.1567 5.47667 44.0267 5.66333 43.88 5.87C43.7333 6.08333 43.5967 6.26333 43.47 6.41C43.4433 6.45 43.41 6.47 43.37 6.47C43.33 6.47 43.31 6.45 43.31 6.41C43.31 6.37 43.33 6.32667 43.37 6.28C43.63 5.89333 43.85 5.56667 44.03 5.3C44.2033 5.03333 44.38 4.75333 44.56 4.46C44.6533 4.30667 44.7667 4.23 44.9 4.23C45.0267 4.23667 45.1667 4.24 45.32 4.24C45.28 4.32667 45.2167 4.46667 45.13 4.66C45.05 4.85333 44.9567 5.07667 44.85 5.33C44.7433 5.57667 44.6433 5.82 44.55 6.06C44.7033 5.78667 44.9133 5.48 45.18 5.14C45.4467 4.8 45.7267 4.54333 46.02 4.37C46.26 4.21667 46.4833 4.14 46.69 4.14C46.8367 4.14 46.9567 4.18 47.05 4.26C47.1433 4.34 47.19 4.46 47.19 4.62C47.19 4.76667 47.1433 4.94 47.05 5.14C46.9367 5.37333 46.7933 5.65 46.62 5.97C46.44 6.29 46.2733 6.60667 46.12 6.92C45.9667 7.23333 45.8567 7.50333 45.79 7.73C45.7833 7.76333 45.7767 7.79667 45.77 7.83C45.7633 7.86333 45.76 7.9 45.76 7.94C45.76 8.14 45.8733 8.24 46.1 8.24C46.1867 8.24 46.3 8.21667 46.44 8.17C46.7067 8.06333 46.9867 7.87 47.28 7.59C47.5733 7.31667 47.8533 7.02 48.12 6.7C48.3867 6.37333 48.6 6.08667 48.76 5.84C48.7867 5.8 48.8133 5.78 48.84 5.78C48.8733 5.78 48.8967 5.8 48.91 5.84C48.9233 5.87333 48.9167 5.91333 48.89 5.96C48.73 6.22 48.5133 6.51 48.24 6.83C47.9733 7.15 47.6867 7.44333 47.38 7.71C47.08 7.98333 46.79 8.18 46.51 8.3C46.4167 8.34 46.3267 8.36667 46.24 8.38C46.1533 8.4 46.0733 8.41 46 8.41C45.8067 8.41 45.6467 8.35333 45.52 8.24C45.3933 8.12 45.33 7.95333 45.33 7.74C45.33 7.48 45.4133 7.18667 45.58 6.86C45.7467 6.53333 45.9367 6.20333 46.15 5.87C46.3567 5.53667 46.5233 5.23667 46.65 4.97C46.6833 4.89667 46.7 4.82 46.7 4.74C46.7 4.52667 46.5967 4.42 46.39 4.42C46.2967 4.42 46.1867 4.45667 46.06 4.53C45.8467 4.66333 45.63 4.86667 45.41 5.14C45.19 5.42 44.98 5.71667 44.78 6.03C44.5133 6.46333 44.2667 6.89333 44.04 7.32C43.82 7.74667 43.6567 8.08667 43.55 8.34C43.43 8.34 43.3067 8.36333 43.18 8.41C43.0533 8.45 42.99 8.47 42.99 8.47Z" fill="black"/>
</svg>
