<svg width="61" height="11" viewBox="0 0 61 11" fill="none" xmlns="http://www.w3.org/2000/svg">
<path d="M3.5 10.5212H2.12V0.13125H3.5V10.5212ZM2.12 5.52125V4.74125C2.81333 4.77458 3.50667 4.80458 4.2 4.83125C4.9 4.85125 5.59333 4.86125 6.28 4.86125C6.97333 4.86125 7.66667 4.85125 8.36 4.83125C9.05333 4.80458 9.74667 4.77458 10.44 4.74125V5.52125C9.74667 5.56125 9.05333 5.59125 8.36 5.61125C7.66667 5.63792 6.97333 5.65125 6.28 5.65125C5.59333 5.65125 4.9 5.63792 4.2 5.61125C3.50667 5.59125 2.81333 5.56125 2.12 5.52125ZM10.44 10.5212H9.07V0.13125H10.44V10.5212ZM11.97 10.5212H7.57C7.48333 10.5212 7.44 10.4746 7.44 10.3812V10.2013C7.44 10.1079 7.48667 10.0546 7.58 10.0413L8.79 9.83125C8.90333 9.81792 8.97667 9.78458 9.01 9.73125C9.05 9.67792 9.07 9.59458 9.07 9.48125V7.51125H10.44V9.50125C10.44 9.61458 10.46 9.69458 10.5 9.74125C10.5467 9.78792 10.6233 9.81792 10.73 9.83125L11.98 10.0413C12.0667 10.0746 12.11 10.1312 12.11 10.2112V10.3912C12.11 10.4779 12.0633 10.5212 11.97 10.5212ZM5.02 10.5212H0.63C0.543333 10.5212 0.5 10.4746 0.5 10.3812V10.2013C0.5 10.1079 0.546667 10.0546 0.64 10.0413L1.84 9.83125C1.95333 9.81792 2.03 9.78458 2.07 9.73125C2.10333 9.67792 2.12 9.59458 2.12 9.48125V7.51125H3.5V9.50125C3.5 9.61458 3.52 9.69458 3.56 9.74125C3.6 9.78792 3.67667 9.81792 3.79 9.83125L5.04 10.0413C5.12 10.0746 5.16 10.1312 5.16 10.2112V10.3912C5.16 10.4779 5.11333 10.5212 5.02 10.5212ZM7.44 0.45125V0.27125C7.44 0.177917 7.48333 0.13125 7.57 0.13125H11.97C12.0633 0.13125 12.11 0.174583 12.11 0.26125V0.44125C12.11 0.527917 12.0667 0.584584 11.98 0.61125L10.73 0.82125C10.6233 0.84125 10.5467 0.874583 10.5 0.92125C10.46 0.967917 10.44 1.04458 10.44 1.15125V3.14125H9.07V1.17125C9.07 1.05792 9.05 0.974584 9.01 0.92125C8.97667 0.874583 8.90333 0.84125 8.79 0.82125L7.58 0.61125C7.48667 0.597917 7.44 0.544583 7.44 0.45125ZM0.5 0.45125V0.27125C0.5 0.177917 0.543333 0.13125 0.63 0.13125H5.02C5.11333 0.13125 5.16 0.174583 5.16 0.26125V0.44125C5.16 0.527917 5.12 0.584584 5.04 0.61125L3.79 0.82125C3.67667 0.84125 3.6 0.874583 3.56 0.92125C3.52 0.967917 3.5 1.04458 3.5 1.15125V3.14125H2.12V1.17125C2.12 1.05792 2.10333 0.974584 2.07 0.92125C2.03 0.874583 1.95333 0.84125 1.84 0.82125L0.64 0.61125C0.546667 0.597917 0.5 0.544583 0.5 0.45125ZM15.1 10.6313C14.54 10.6313 14.0833 10.4679 13.73 10.1412C13.3767 9.81458 13.2 9.39458 13.2 8.88125C13.2 8.30125 13.4067 7.85458 13.82 7.54125C14.2333 7.22125 14.88 7.01125 15.76 6.91125L17.71 6.67125L17.68 7.30125L16.01 7.52125C15.45 7.60792 15.0467 7.74458 14.8 7.93125C14.5533 8.11792 14.43 8.38458 14.43 8.73125C14.43 9.03125 14.53 9.26792 14.73 9.44125C14.93 9.62125 15.2033 9.71125 15.55 9.71125C15.9033 9.71125 16.2167 9.65125 16.49 9.53125C16.77 9.41792 17.0033 9.28458 17.19 9.13125C17.3767 8.98458 17.5067 8.86125 17.58 8.76125L17.75 8.94125C17.7233 9.08792 17.6367 9.25792 17.49 9.45125C17.3433 9.64458 17.1533 9.83125 16.92 10.0112C16.68 10.1912 16.4067 10.3412 16.1 10.4612C15.7867 10.5746 15.4533 10.6313 15.1 10.6313ZM17.55 8.25125V5.93125C17.55 5.40458 17.4167 5.00125 17.15 4.72125C16.8767 4.43458 16.4933 4.29125 16 4.29125C15.7533 4.29125 15.5333 4.31792 15.34 4.37125C15.1467 4.41792 14.98 4.52125 14.84 4.68125C14.7067 4.83458 14.6067 5.06458 14.54 5.37125L14.44 5.86125C14.4133 5.94125 14.36 5.98125 14.28 5.98125H14.12C14.0267 5.98125 13.9767 5.93458 13.97 5.84125C13.91 5.58125 13.8567 5.32458 13.81 5.07125C13.7567 4.81125 13.7067 4.55458 13.66 4.30125C13.64 4.22792 13.6733 4.16792 13.76 4.12125C14 4.00792 14.3267 3.88125 14.74 3.74125C15.16 3.59458 15.6267 3.52125 16.14 3.52125C16.98 3.52125 17.64 3.73125 18.12 4.15125C18.6 4.57125 18.84 5.14458 18.84 5.87125V8.25125H17.55ZM17.55 8.25125H18.84V10.1312L18.57 9.69125L19.78 9.97125C19.86 10.0046 19.9 10.0612 19.9 10.1412V10.3112C19.9 10.3979 19.8533 10.4446 19.76 10.4513L19.02 10.5212C18.6 10.5612 18.2867 10.5746 18.08 10.5613C17.88 10.5413 17.7467 10.4779 17.68 10.3713C17.6133 10.2579 17.58 10.0846 17.58 9.85125V9.13125L17.55 9.02125V8.25125ZM22.83 10.5212H21.54V2.55125H22.83V10.5212ZM26.53 10.5212V5.97125C26.53 5.51125 26.4133 5.16458 26.18 4.93125C25.9467 4.69125 25.6 4.57125 25.14 4.57125C24.7467 4.57125 24.34 4.67458 23.92 4.88125C23.4933 5.08792 23.0867 5.38125 22.7 5.76125L22.59 5.42125C22.8233 5.06125 23.1167 4.73458 23.47 4.44125C23.8167 4.15458 24.19 3.93125 24.59 3.77125C24.9967 3.60458 25.38 3.52125 25.74 3.52125C26.4333 3.52125 26.9533 3.71125 27.3 4.09125C27.64 4.47792 27.81 5.04792 27.81 5.80125V10.5212H26.53ZM23.98 10.5212H20.7C20.62 10.5212 20.58 10.4746 20.58 10.3812V10.2413C20.58 10.1479 20.6267 10.0979 20.72 10.0912L21.26 9.96125C21.3933 9.93458 21.4733 9.90125 21.5 9.86125C21.5267 9.82792 21.54 9.74458 21.54 9.61125V8.00125H22.83V9.62125C22.83 9.74792 22.8467 9.82792 22.88 9.86125C22.9133 9.90125 22.9933 9.93125 23.12 9.95125L23.99 10.1012C24.0767 10.1079 24.12 10.1579 24.12 10.2512V10.3912C24.12 10.4779 24.0733 10.5212 23.98 10.5212ZM22.83 2.57125H21.54V0.52125L21.79 0.94125L20.59 0.75125C20.5033 0.737917 20.46 0.684584 20.46 0.59125V0.43125C20.46 0.344583 20.5067 0.297917 20.6 0.29125L22.47 0.0112499C22.5967 -0.00875014 22.69 -0.00208302 22.75 0.0312503C22.8033 0.0645836 22.83 0.14125 22.83 0.26125V2.57125ZM28.96 10.5212H25.69C25.6033 10.5212 25.56 10.4746 25.56 10.3812V10.2413C25.56 10.1479 25.6067 10.0979 25.7 10.0912L26.25 9.96125C26.3767 9.93458 26.4533 9.90125 26.48 9.86125C26.5133 9.82792 26.53 9.74458 26.53 9.61125V8.00125H27.81V9.62125C27.81 9.74792 27.8267 9.82792 27.86 9.86125C27.8933 9.90125 27.9767 9.93125 28.11 9.95125L28.98 10.1012C29.06 10.1079 29.1 10.1579 29.1 10.2512V10.3912C29.1 10.4779 29.0533 10.5212 28.96 10.5212ZM42.85 10.5212H39.39C39.31 10.5212 39.27 10.4746 39.27 10.3812V10.2413C39.27 10.1479 39.3167 10.0979 39.41 10.0912L40.13 9.96125C40.2633 9.93458 40.3433 9.90125 40.37 9.86125C40.3967 9.82792 40.41 9.74458 40.41 9.61125V5.97125C40.41 5.51125 40.3067 5.16458 40.1 4.93125C39.8867 4.69125 39.58 4.57125 39.18 4.57125C38.4067 4.57125 37.6467 4.96792 36.9 5.76125L36.77 5.42125C36.9967 5.04792 37.2733 4.72125 37.6 4.44125C37.9267 4.15458 38.2767 3.93125 38.65 3.77125C39.0233 3.60458 39.3967 3.52125 39.77 3.52125C40.4033 3.52125 40.8833 3.71125 41.21 4.09125C41.5367 4.47792 41.7 5.04792 41.7 5.80125V9.62125C41.7 9.74792 41.7167 9.82792 41.75 9.86125C41.7833 9.90125 41.8667 9.93125 42 9.95125L42.86 10.1012C42.9467 10.1079 42.99 10.1579 42.99 10.2512V10.3912C42.99 10.4779 42.9433 10.5212 42.85 10.5212ZM33.33 10.5212H30.19C30.11 10.5212 30.07 10.4746 30.07 10.3812V10.2413C30.07 10.1479 30.1167 10.0979 30.21 10.0912L30.77 9.96125C30.8967 9.93458 30.9767 9.90125 31.01 9.86125C31.0367 9.82792 31.05 9.74458 31.05 9.61125V6.10125H32.34V9.62125C32.34 9.74792 32.3567 9.82792 32.39 9.86125C32.4167 9.90125 32.4967 9.93458 32.63 9.96125L33.34 10.0912C33.4267 10.1179 33.47 10.1712 33.47 10.2512V10.3912C33.47 10.4779 33.4233 10.5212 33.33 10.5212ZM37.88 10.5212H34.79C34.7033 10.5212 34.66 10.4746 34.66 10.3812V10.2413C34.66 10.1479 34.7067 10.0979 34.8 10.0912L35.42 9.96125C35.5467 9.93458 35.6233 9.90125 35.65 9.86125C35.6833 9.82792 35.7 9.74458 35.7 9.61125V5.97125C35.7 5.51125 35.5967 5.16458 35.39 4.93125C35.1833 4.69125 34.88 4.57125 34.48 4.57125C33.7133 4.57125 32.9467 4.96792 32.18 5.76125L32.06 5.42125C32.4133 4.86125 32.8633 4.40458 33.41 4.05125C33.9633 3.69792 34.52 3.52125 35.08 3.52125C35.7133 3.52125 36.19 3.71458 36.51 4.10125C36.8233 4.48792 36.98 5.05458 36.98 5.80125V9.62125C36.98 9.74792 36.9967 9.82792 37.03 9.86125C37.0633 9.90125 37.1467 9.93458 37.28 9.96125L37.89 10.0912C37.9767 10.1179 38.02 10.1712 38.02 10.2512V10.3912C38.02 10.4779 37.9733 10.5212 37.88 10.5212ZM32.34 6.10125H31.05V4.05125L31.3 4.47125L30.1 4.28125C30.0133 4.26792 29.97 4.21458 29.97 4.12125V3.95125C29.97 3.87792 30.0167 3.82792 30.11 3.80125L31.89 3.53125C32.0167 3.51792 32.11 3.52792 32.17 3.56125C32.2233 3.58792 32.25 3.66458 32.25 3.79125V5.17125L32.34 5.41125V6.10125ZM45.92 10.5212H44.63V2.55125H45.92V10.5212ZM47.06 10.5212H43.79C43.7033 10.5212 43.66 10.4746 43.66 10.3812V10.2413C43.66 10.1479 43.7067 10.0979 43.8 10.0912L44.35 9.96125C44.4767 9.93458 44.5567 9.90125 44.59 9.86125C44.6167 9.82792 44.63 9.74458 44.63 9.61125V8.00125H45.92V9.62125C45.92 9.74792 45.9367 9.82792 45.97 9.86125C45.9967 9.90125 46.0767 9.93125 46.21 9.95125L47.08 10.1012C47.16 10.1079 47.2 10.1579 47.2 10.2512V10.3912C47.2 10.4779 47.1533 10.5212 47.06 10.5212ZM45.92 2.57125H44.63V0.52125L44.88 0.94125L43.68 0.75125C43.5933 0.737917 43.55 0.684584 43.55 0.59125V0.43125C43.55 0.344583 43.5967 0.297917 43.69 0.29125L45.55 0.0112499C45.6833 -0.00875014 45.7767 -0.00208302 45.83 0.0312503C45.89 0.0645836 45.92 0.14125 45.92 0.26125V2.57125ZM51.38 10.6313C50.7733 10.6313 50.2167 10.4912 49.71 10.2112C49.2033 9.92458 48.8033 9.51125 48.51 8.97125C48.2167 8.43792 48.07 7.79125 48.07 7.03125C48.07 6.27125 48.2233 5.63125 48.53 5.11125C48.8433 4.59125 49.2567 4.19792 49.77 3.93125C50.2833 3.65792 50.8467 3.52125 51.46 3.52125C51.98 3.52125 52.46 3.64458 52.9 3.89125C53.3333 4.13792 53.68 4.49125 53.94 4.95125C54.2 5.40458 54.33 5.95125 54.33 6.59125C54.33 6.62458 54.33 6.67125 54.33 6.73125C54.33 6.78458 54.3267 6.83458 54.32 6.88125C54.2867 6.96792 54.23 7.01125 54.15 7.01125H49.18V6.36125H53.48L53.15 6.67125C53.15 6.62458 53.15 6.58125 53.15 6.54125C53.15 6.49458 53.15 6.45458 53.15 6.42125C53.15 6.00792 53.0733 5.64458 52.92 5.33125C52.76 5.01125 52.5433 4.75792 52.27 4.57125C51.99 4.38458 51.6733 4.29125 51.32 4.29125C50.7067 4.29125 50.23 4.52125 49.89 4.98125C49.5433 5.44792 49.37 6.10792 49.37 6.96125C49.37 7.49458 49.4733 7.97792 49.68 8.41125C49.8867 8.83792 50.1667 9.17458 50.52 9.42125C50.8733 9.66792 51.2767 9.79125 51.73 9.79125C52.4567 9.79125 53.0567 9.58792 53.53 9.18125C53.5967 9.12125 53.6533 9.12792 53.7 9.20125L53.83 9.39125C53.8767 9.45125 53.87 9.52458 53.81 9.61125C53.5233 9.93125 53.1667 10.1812 52.74 10.3612C52.3133 10.5413 51.86 10.6313 51.38 10.6313ZM58.26 10.6213C57.62 10.6213 57.14 10.4412 56.82 10.0813C56.4933 9.72125 56.33 9.18792 56.33 8.48125V3.77125L56.36 3.63125V2.29125C56.36 2.20458 56.4067 2.14792 56.5 2.12125C56.5933 2.10125 56.6967 2.08458 56.81 2.07125C56.9233 2.05792 57.04 2.04458 57.16 2.03125C57.28 2.01792 57.39 2.01125 57.49 2.01125C57.5767 2.01125 57.62 2.05792 57.62 2.15125V8.45125C57.62 8.91792 57.7267 9.25458 57.94 9.46125C58.1533 9.66125 58.5033 9.76125 58.99 9.76125C59.1433 9.76125 59.3 9.75458 59.46 9.74125C59.6267 9.72125 59.8033 9.68792 59.99 9.64125C60.07 9.62125 60.1167 9.65792 60.13 9.75125L60.14 9.93125C60.1467 10.0046 60.1133 10.0746 60.04 10.1412C59.8933 10.2346 59.7167 10.3179 59.51 10.3912C59.3033 10.4579 59.0933 10.5146 58.88 10.5613C58.6667 10.6013 58.46 10.6213 58.26 10.6213ZM60.04 4.32125H55.45C55.3767 4.32125 55.3433 4.27458 55.35 4.18125L55.41 3.88125C55.43 3.80125 55.4867 3.75458 55.58 3.74125L56.36 3.63125H59.24L60.11 3.59125C60.1967 3.59125 60.24 3.63792 60.24 3.73125C60.2467 3.80458 60.25 3.88125 60.25 3.96125C60.2433 4.04125 60.23 4.11792 60.21 4.19125C60.1833 4.27792 60.1267 4.32125 60.04 4.32125Z" fill="black"/>
</svg>
