<svg width="121" height="11" viewBox="0 0 121 11" fill="none" xmlns="http://www.w3.org/2000/svg">
<path d="M2.28 6.82V10.72C1.84667 10.6933 1.32667 10.68 0.72 10.68H0.5V1.55C0.786667 1.57667 0.99 1.59 1.11 1.59H1.39C1.75 1.59 2.04667 1.57 2.28 1.53V5.18H5.49V1.55C5.87 1.57667 6.24 1.59 6.6 1.59C6.96 1.59 7.18333 1.57 7.27 1.53V10.72C7.05 10.6933 6.61667 10.68 5.97 10.68H5.49V6.82H2.28ZM14.31 10.26C13.6633 10.6067 13.0767 10.78 12.55 10.78C12.0233 10.78 11.5733 10.7333 11.2 10.64C10.8267 10.54 10.51 10.3933 10.25 10.2C9.72333 9.81333 9.46 9.25333 9.46 8.52C9.46 7.86667 9.78333 7.32 10.43 6.88C11.13 6.40667 12.0833 6.17 13.29 6.17L13.56 6.18C13.6133 6.18 13.6767 6.18333 13.75 6.19C13.8167 6.19 13.8767 6.19333 13.93 6.2C13.8967 5.47333 13.5833 5.04667 12.99 4.92C12.79 4.88 12.58 4.86 12.36 4.86C12.14 4.86 11.9233 4.88 11.71 4.92C11.4967 4.96 11.29 5.01 11.09 5.07C10.65 5.21667 10.3333 5.38 10.14 5.56L10.12 5.55L9.92 4.04C10.7267 3.61333 11.6067 3.4 12.56 3.4C14.0467 3.4 14.9967 3.93667 15.41 5.01C15.5433 5.35 15.61 5.73333 15.61 6.16V8.64C15.61 9.16667 15.7967 9.52667 16.17 9.72L14.93 10.85C14.6767 10.7167 14.47 10.52 14.31 10.26ZM13.94 8.86V7.43C13.8133 7.41 13.6833 7.4 13.55 7.4H13.28C12.2733 7.4 11.6333 7.62333 11.36 8.07C11.28 8.20333 11.24 8.34333 11.24 8.49C11.24 8.63 11.2667 8.75667 11.32 8.87C11.3667 8.98333 11.4533 9.07667 11.58 9.15C11.8133 9.28333 12.1633 9.35 12.63 9.35C13.1033 9.35 13.54 9.24 13.94 9.02C13.94 8.96667 13.94 8.91333 13.94 8.86ZM19.59 5.87V8.7C19.59 9.72667 19.6067 10.3867 19.64 10.68H17.86V3.54H19.59V4.15C20.2167 3.65 20.8567 3.4 21.51 3.4C22.2833 3.4 22.8467 3.73333 23.2 4.4C23.5533 4.04 23.8433 3.80333 24.07 3.69C24.4633 3.49667 24.8533 3.4 25.24 3.4C25.6267 3.4 25.9567 3.46667 26.23 3.6C26.5033 3.73333 26.73 3.92 26.91 4.16C27.27 4.64667 27.45 5.31667 27.45 6.17V8.89C27.45 9.65667 27.4633 10.12 27.49 10.28C27.51 10.4333 27.54 10.5333 27.58 10.58C27.62 10.6267 27.6533 10.6667 27.68 10.7L27.66 10.73C27.3 10.6967 27.0333 10.68 26.86 10.68H26.34C26.1733 10.68 25.9667 10.6867 25.72 10.7V7C25.72 5.93333 25.5567 5.3 25.23 5.1C25.1233 5.04 24.9933 5.01 24.84 5.01C24.6933 5.01 24.5633 5.02667 24.45 5.06C24.3367 5.09333 24.23 5.14667 24.13 5.22C23.9633 5.34667 23.77 5.59 23.55 5.95C23.5567 5.98333 23.56 6.02 23.56 6.06C23.56 6.09333 23.56 6.69333 23.56 7.86C23.56 9.02667 23.5867 9.96667 23.64 10.68C23.2533 10.68 22.9267 10.68 22.66 10.68C22.3867 10.68 22.1267 10.6867 21.88 10.7V7C21.88 6.25333 21.8367 5.77 21.75 5.55C21.6567 5.32333 21.56 5.17667 21.46 5.11C21.36 5.04333 21.2367 5.01 21.09 5.01C20.49 5.01 19.99 5.29667 19.59 5.87ZM31.28 5.87V8.7C31.28 9.72667 31.2967 10.3867 31.33 10.68H29.55V3.54H31.28V4.15C31.9067 3.65 32.5467 3.4 33.2 3.4C33.9733 3.4 34.5367 3.73333 34.89 4.4C35.2433 4.04 35.5333 3.80333 35.76 3.69C36.1467 3.49667 36.5367 3.4 36.93 3.4C37.3167 3.4 37.6467 3.46667 37.92 3.6C38.1933 3.73333 38.42 3.92 38.6 4.16C38.96 4.64667 39.14 5.31667 39.14 6.17V8.89C39.14 9.65667 39.1533 10.12 39.18 10.28C39.2 10.4333 39.23 10.5333 39.27 10.58C39.31 10.6267 39.3433 10.6667 39.37 10.7L39.35 10.73C38.99 10.6967 38.7233 10.68 38.55 10.68H38.03C37.8633 10.68 37.6567 10.6867 37.41 10.7V7C37.41 5.93333 37.2467 5.3 36.92 5.1C36.8133 5.04 36.6833 5.01 36.53 5.01C36.3833 5.01 36.2533 5.02667 36.14 5.06C36.0267 5.09333 35.92 5.14667 35.82 5.22C35.6533 5.34667 35.46 5.59 35.24 5.95C35.2467 5.98333 35.25 6.02 35.25 6.06C35.25 6.09333 35.25 6.69333 35.25 7.86C35.25 9.02667 35.2767 9.96667 35.33 10.68C34.9433 10.68 34.6167 10.68 34.35 10.68C34.0767 10.68 33.8167 10.6867 33.57 10.7V7C33.57 6.25333 33.5267 5.77 33.44 5.55C33.3467 5.32333 33.25 5.17667 33.15 5.11C33.05 5.04333 32.9267 5.01 32.78 5.01C32.18 5.01 31.68 5.29667 31.28 5.87ZM40.78 7.17C40.78 6.63667 40.87 6.14 41.05 5.68C41.2367 5.22667 41.4967 4.83 41.83 4.49C42.5367 3.76333 43.4667 3.4 44.62 3.4C45.5867 3.4 46.3633 3.72 46.95 4.36C47.53 4.98 47.82 5.76 47.82 6.7C47.82 7.06 47.7933 7.30667 47.74 7.44C47.2867 7.56667 46.36 7.63 44.96 7.63H42.55C42.67 8.11667 42.9467 8.49667 43.38 8.77C43.8133 9.04333 44.3767 9.18 45.07 9.18C45.79 9.18 46.41 9.05 46.93 8.79C47.07 8.71667 47.1733 8.65333 47.24 8.6C47.2333 8.78667 47.2233 8.98 47.21 9.18L47.13 10.25C46.7833 10.4833 46.2233 10.6467 45.45 10.74C45.2233 10.7667 45.0033 10.78 44.79 10.78C43.6367 10.78 42.68 10.4433 41.92 9.77C41.16 9.09 40.78 8.22333 40.78 7.17ZM46 6.31C45.8133 5.33 45.28 4.84 44.4 4.84C43.7133 4.84 43.19 5.13667 42.83 5.73C42.7167 5.91 42.63 6.11 42.57 6.33C42.6833 6.33667 42.82 6.34333 42.98 6.35H43.48C43.6467 6.35 43.81 6.35 43.97 6.35H44.36C44.5933 6.35 44.82 6.35 45.04 6.35L45.6 6.33C45.7533 6.32333 45.8867 6.31667 46 6.31ZM50.92 5.7V9.91C50.92 10.3033 50.93 10.56 50.95 10.68H49.24V3.54H50.92V4.06C51.3067 3.62 51.7133 3.4 52.14 3.4C52.5667 3.4 52.9033 3.45333 53.15 3.56L53.02 5.4L53 5.42C52.84 5.13333 52.51 4.99 52.01 4.99C51.8167 4.99 51.62 5.05667 51.42 5.19C51.22 5.31667 51.0533 5.48667 50.92 5.7ZM56.39 10.78C55.1033 10.78 54.1333 10.5467 53.48 10.08C53.4933 9.94 53.5067 9.78333 53.52 9.61L53.59 9.12C53.6233 8.8 53.6433 8.6 53.65 8.52C53.6633 8.44 53.67 8.39667 53.67 8.39C53.6767 8.38333 53.7133 8.42 53.78 8.5C53.8533 8.58 53.9833 8.67667 54.17 8.79C54.3633 8.90333 54.5867 9.00333 54.84 9.09C55.38 9.27667 55.9433 9.37 56.53 9.37C57.3167 9.37 57.71 9.10667 57.71 8.58C57.71 8.41333 57.6367 8.29 57.49 8.21C57.2233 8.07 56.8267 7.96333 56.3 7.89C55.78 7.82333 55.3533 7.72 55.02 7.58C54.6867 7.44667 54.4167 7.28333 54.21 7.09C53.8233 6.73 53.63 6.26 53.63 5.68C53.63 4.96667 53.9033 4.40667 54.45 4C54.99 3.6 55.74 3.4 56.7 3.4C57.6467 3.4 58.4533 3.67 59.12 4.21C59.0867 4.32333 59.0533 4.43667 59.02 4.55C58.9133 4.85 58.8367 5.06667 58.79 5.2L58.63 5.6C58.6233 5.64 58.6167 5.66 58.61 5.66C58.6033 5.66 58.5667 5.61 58.5 5.51C58.2133 5.17667 57.7667 4.96 57.16 4.86C56.9733 4.82 56.7833 4.8 56.59 4.8C55.7567 4.8 55.34 5.05 55.34 5.55C55.34 5.72333 55.4267 5.85667 55.6 5.95C55.9267 6.12333 56.37 6.25 56.93 6.33C57.4967 6.41667 57.9233 6.52667 58.21 6.66C58.5033 6.8 58.74 6.97 58.92 7.17C59.2467 7.52333 59.41 7.99333 59.41 8.58C59.41 9.22667 59.1533 9.75 58.64 10.15C58.1 10.57 57.35 10.78 56.39 10.78ZM62.84 5.87V8.7C62.84 9.72667 62.86 10.3867 62.9 10.68H61.11V3.54H62.84V4.15C63.4667 3.65 64.1067 3.4 64.76 3.4C65.5333 3.4 66.0967 3.73333 66.45 4.4C66.8033 4.04 67.0967 3.80333 67.33 3.69C67.7167 3.49667 68.1033 3.4 68.49 3.4C68.8833 3.4 69.2167 3.46667 69.49 3.6C69.7633 3.73333 69.9867 3.92 70.16 4.16C70.52 4.64667 70.7 5.31667 70.7 6.17V8.89C70.7 9.65667 70.7133 10.12 70.74 10.28C70.76 10.4333 70.79 10.5333 70.83 10.58C70.87 10.6267 70.9033 10.6667 70.93 10.7L70.91 10.73C70.55 10.6967 70.2833 10.68 70.11 10.68H69.59C69.4233 10.68 69.2167 10.6867 68.97 10.7V7C68.97 5.93333 68.8067 5.3 68.48 5.1C68.3733 5.04 68.2433 5.01 68.09 5.01C67.9433 5.01 67.8133 5.02667 67.7 5.06C67.5867 5.09333 67.48 5.14667 67.38 5.22C67.2133 5.34667 67.0233 5.59 66.81 5.95C66.81 5.98333 66.81 6.02 66.81 6.06C66.81 6.09333 66.81 6.69333 66.81 7.86C66.81 9.02667 66.8367 9.96667 66.89 10.68C66.5033 10.68 66.1767 10.68 65.91 10.68C65.6367 10.68 65.3767 10.6867 65.13 10.7V7C65.13 6.25333 65.0867 5.77 65 5.55C64.9067 5.32333 64.81 5.17667 64.71 5.11C64.61 5.04333 64.4867 5.01 64.34 5.01C63.74 5.01 63.24 5.29667 62.84 5.87ZM74 2.61L72.47 1.5C72.83 0.926667 73.21 0.426667 73.61 0L75.08 1.15C74.88 1.39 74.6967 1.62667 74.53 1.86C74.53 1.86 74.3533 2.11 74 2.61ZM74.26 3.54V9.91C74.26 10.3033 74.27 10.56 74.29 10.68H72.55V3.54H74.26ZM79.36 9.18C79.9533 9.18 80.3567 9.02667 80.57 8.72H80.63L80.65 10.3C80.4233 10.5267 80.0067 10.6767 79.4 10.75C79.24 10.77 79.0367 10.78 78.79 10.78C78.55 10.78 78.2867 10.7367 78 10.65C77.7133 10.5567 77.47 10.4067 77.27 10.2C76.8567 9.78 76.65 9.11667 76.65 8.21V5.11H75.62C75.6133 4.97667 75.61 4.84333 75.61 4.71V3.65C75.61 3.57667 75.6133 3.54 75.62 3.54H76.65V1.59H78.32V3.54H80.2V5.11H78.32V7.9C78.32 8.61333 78.52 9.02 78.92 9.12C79.0467 9.16 79.1933 9.18 79.36 9.18ZM83.89 5.93V9.91C83.89 10.3033 83.9 10.56 83.92 10.68H82.21V0.9H83.89V4.07C84.4767 3.62333 85.0833 3.4 85.71 3.4C86.4767 3.4 87.09 3.65333 87.55 4.16C88.01 4.66667 88.24 5.33667 88.24 6.17V8.89C88.24 9.65667 88.25 10.12 88.27 10.28C88.29 10.4333 88.32 10.5333 88.36 10.58C88.4 10.6267 88.4333 10.6667 88.46 10.7L88.45 10.73C88.0767 10.6967 87.8067 10.68 87.64 10.68H87.16C87.0067 10.68 86.8067 10.6867 86.56 10.7V6.74C86.56 6.11333 86.42 5.65 86.14 5.35C85.9333 5.12333 85.65 5.01 85.29 5.01C84.7567 5.01 84.29 5.31667 83.89 5.93ZM95.75 9.6C95.3367 9.20667 95.01 8.73 94.77 8.17C94.53 7.61667 94.41 7.00667 94.41 6.34C94.41 5.68 94.52 5.05333 94.74 4.46C94.9667 3.86667 95.2867 3.34333 95.7 2.89C96.1133 2.44333 96.6167 2.08667 97.21 1.82C97.7967 1.55333 98.4533 1.42 99.18 1.42C100.44 1.42 101.5 1.81667 102.36 2.61C103.28 3.45667 103.74 4.6 103.74 6.04C103.74 7.43333 103.267 8.59333 102.32 9.52C101.733 10.0867 101.037 10.4767 100.23 10.69C99.8367 10.7967 99.3733 10.85 98.84 10.85C98.3133 10.85 97.77 10.74 97.21 10.52C96.65 10.3 96.1633 9.99333 95.75 9.6ZM96.31 6.25C96.31 6.67667 96.38 7.06667 96.52 7.42C96.66 7.77333 96.8567 8.08 97.11 8.34C97.6433 8.87333 98.33 9.14 99.17 9.14C99.9633 9.14 100.603 8.88333 101.09 8.37C101.583 7.83667 101.83 7.11 101.83 6.19C101.83 5.32333 101.593 4.6 101.12 4.02C100.613 3.4 99.92 3.09 99.04 3.09C98.1933 3.09 97.5167 3.40667 97.01 4.04C96.5433 4.62667 96.31 5.36333 96.31 6.25ZM107.12 5.9V9.81C107.12 10.21 107.14 10.5 107.18 10.68H105.46V3.54H107.12V4.14C107.727 3.64667 108.37 3.4 109.05 3.4C109.797 3.4 110.393 3.65333 110.84 4.16C111.287 4.66667 111.51 5.33667 111.51 6.17V8.89C111.51 9.65667 111.523 10.12 111.55 10.28C111.57 10.4333 111.6 10.5333 111.64 10.58C111.68 10.6267 111.713 10.6667 111.74 10.7L111.72 10.73C111.353 10.6967 111.087 10.68 110.92 10.68H110.44C110.293 10.68 110.097 10.6867 109.85 10.7V6.97C109.85 5.63667 109.447 4.97 108.64 4.97C108.033 4.97 107.527 5.28 107.12 5.9ZM113.17 7.17C113.17 6.63667 113.26 6.14 113.44 5.68C113.62 5.22667 113.877 4.83 114.21 4.49C114.923 3.76333 115.853 3.4 117 3.4C117.973 3.4 118.753 3.72 119.34 4.36C119.92 4.98 120.21 5.76 120.21 6.7C120.21 7.06 120.183 7.30667 120.13 7.44C119.67 7.56667 118.74 7.63 117.34 7.63H114.94C115.06 8.11667 115.333 8.49667 115.76 8.77C116.193 9.04333 116.757 9.18 117.45 9.18C118.177 9.18 118.8 9.05 119.32 8.79C119.453 8.71667 119.557 8.65333 119.63 8.6C119.617 8.78667 119.603 8.98 119.59 9.18L119.52 10.25C119.173 10.4833 118.613 10.6467 117.84 10.74C117.607 10.7667 117.387 10.78 117.18 10.78C116.02 10.78 115.063 10.4433 114.31 9.77C113.55 9.09 113.17 8.22333 113.17 7.17ZM118.39 6.31C118.203 5.33 117.67 4.84 116.79 4.84C116.097 4.84 115.57 5.13667 115.21 5.73C115.103 5.91 115.02 6.11 114.96 6.33C115.067 6.33667 115.2 6.34333 115.36 6.35H115.87C116.037 6.35 116.197 6.35 116.35 6.35H116.74C116.973 6.35 117.203 6.35 117.43 6.35L117.99 6.33C118.137 6.32333 118.27 6.31667 118.39 6.31Z" fill="black"/>
</svg>
