<svg width="46" height="12" viewBox="0 0 46 12" fill="none" xmlns="http://www.w3.org/2000/svg">
<path d="M7.3 1.73C7.44 1.51 7.65667 1.4 7.95 1.4C8.05667 1.4 8.15667 1.42667 8.25 1.48C8.31667 2.5 8.35 3.50333 8.35 4.49C8.35 5.48333 8.33 6.74 8.29 8.26C8.25 9.78 8.22333 10.7633 8.21 11.21C7.99 11.3633 7.81 11.44 7.67 11.44C7.53 11.44 7.42 11.4233 7.34 11.39C7.28667 10.8967 7.26 10.3933 7.26 9.88L7.34 6.69C6.54 6.61667 5.64667 6.58 4.66 6.58C3.66667 6.58 2.63333 6.67667 1.56 6.87C1.48667 8.71667 1.45 10.08 1.45 10.96C1.21667 11.1467 1.02667 11.24 0.88 11.24C0.74 11.24 0.626667 11.2167 0.54 11.17C0.513333 10.71 0.5 10.0667 0.5 9.24C0.5 8.40667 0.556667 7.03 0.67 5.11C0.79 3.19667 0.853333 2.09 0.86 1.79C0.98 1.59667 1.19 1.5 1.49 1.5C1.58333 1.5 1.67333 1.51667 1.76 1.55C1.78667 1.81 1.8 2.14333 1.8 2.55C1.8 2.95 1.77333 3.56333 1.72 4.39C1.66 5.21667 1.63 5.78667 1.63 6.1C2.76333 5.91333 3.81 5.82 4.77 5.82C5.73 5.82 6.58 5.85333 7.32 5.92C7.34667 5.57333 7.36 5.06333 7.36 4.39C7.36 3.72333 7.34 2.83667 7.3 1.73ZM14.61 7.28L14.54 8.89C14.54 9.70333 14.6333 10.25 14.82 10.53C14.9333 10.7167 15.0867 10.81 15.28 10.81C15.34 10.81 15.42 10.7933 15.52 10.76C15.7133 10.7067 15.8767 10.7367 16.01 10.85C15.9433 11.1767 15.6167 11.34 15.03 11.34C14.63 11.34 14.3633 11.17 14.23 10.83C14.13 10.5833 14.0567 10.27 14.01 9.89C13.9633 9.51 13.9267 9.25 13.9 9.11C13.2933 10.27 12.7033 10.9767 12.13 11.23C11.8433 11.3567 11.5067 11.42 11.12 11.42C10.74 11.42 10.4433 11.2367 10.23 10.87C10.0233 10.5033 9.92 9.96333 9.92 9.25C9.92 8.54333 10.0367 7.8 10.27 7.02C10.5033 6.24 10.8433 5.58 11.29 5.04C11.7367 4.50667 12.2267 4.24 12.76 4.24C13.5267 4.24 14.0367 4.55667 14.29 5.19C14.5033 5.73 14.61 6.42667 14.61 7.28ZM11.18 6.82C11.0467 7.33333 10.95 7.81667 10.89 8.27C10.8233 8.71667 10.79 9.11667 10.79 9.47C10.79 9.81667 10.86 10.1167 11 10.37C11.1467 10.6233 11.3367 10.75 11.57 10.75C12.0767 10.75 12.5633 10.2733 13.03 9.32C13.4967 8.36667 13.73 7.48 13.73 6.66C13.73 6.12667 13.59 5.69 13.31 5.35C13.1233 5.12333 12.8767 5.01 12.57 5.01C12.27 5.01 11.9967 5.18333 11.75 5.53C11.5033 5.88333 11.3133 6.31333 11.18 6.82ZM22.23 10.92C22.0567 11.0933 21.8633 11.18 21.65 11.18C21.25 11.18 20.9533 10.9667 20.76 10.54C20.56 10.1133 20.4433 9.59 20.41 8.97C20.3767 8.35667 20.3567 7.74 20.35 7.12C20.3433 6.50667 20.2933 5.98667 20.2 5.56C20.1133 5.12667 19.95 4.91 19.71 4.91C19.3833 4.91 19.1033 5.20333 18.87 5.79C18.6433 6.38333 18.4833 7.03667 18.39 7.75C18.13 9.75667 17.8767 10.8833 17.63 11.13C17.4633 11.21 17.32 11.25 17.2 11.25C17.08 11.25 16.9767 11.2367 16.89 11.21C16.6967 10.35 16.57 8.87 16.51 6.77C16.4967 5.73 16.48 5.05333 16.46 4.74C16.6533 4.61333 16.82 4.55 16.96 4.55C17.1 4.55 17.2133 4.56333 17.3 4.59C17.3467 4.99 17.37 5.81 17.37 7.05C17.3767 8.29667 17.3867 9.01333 17.4 9.2C17.4467 9 17.5033 8.68 17.57 8.24C17.6433 7.80667 17.7067 7.44667 17.76 7.16C17.8133 6.87333 17.9033 6.54 18.03 6.16C18.15 5.77333 18.2833 5.46667 18.43 5.24C18.5833 5.01333 18.79 4.81667 19.05 4.65C19.31 4.49 19.6033 4.41 19.93 4.41C20.37 4.41 20.69 4.60667 20.89 5C21.09 5.4 21.2 5.89333 21.22 6.48C21.24 7.06667 21.25 7.66333 21.25 8.27C21.2567 8.87667 21.3333 9.43333 21.48 9.94C21.62 10.44 21.87 10.7667 22.23 10.92ZM28.4 0.0999999C28.0467 3.30667 27.87 5.59333 27.87 6.96C27.87 8.32667 27.9967 9.69333 28.25 11.06C28.0633 11.2467 27.9 11.34 27.76 11.34C27.62 11.34 27.5033 11.32 27.41 11.28C27.21 10.5933 27.0933 9.84333 27.06 9.03C26.8333 9.38333 26.6667 9.63333 26.56 9.78C26.4533 9.93333 26.27 10.1533 26.01 10.44C25.53 11 24.9633 11.28 24.31 11.28C23.8167 11.28 23.46 11.05 23.24 10.59C23.02 10.13 22.91 9.53667 22.91 8.81C22.91 8.09 22.9933 7.4 23.16 6.74C23.32 6.08 23.6 5.51 24 5.03C24.4067 4.55 24.9033 4.31 25.49 4.31C25.8433 4.31 26.17 4.38333 26.47 4.53C26.77 4.68333 26.9733 4.88667 27.08 5.14C27.1 4.88667 27.12 4.49667 27.14 3.97C27.16 3.45 27.18 2.98667 27.2 2.58C27.2267 2.17333 27.2667 1.76 27.32 1.34C27.4267 0.446667 27.6567 0 28.01 0C28.13 0 28.26 0.0333332 28.4 0.0999999ZM26.77 5.64C26.65 5.43333 26.4933 5.28333 26.3 5.19C26.1067 5.09 25.8467 5.04 25.52 5.04C25.2 5.04 24.9 5.22 24.62 5.58C24.0667 6.3 23.79 7.34333 23.79 8.71C23.79 9.14333 23.86 9.58 24 10.02C24.14 10.4533 24.3467 10.67 24.62 10.67C25.0133 10.67 25.3967 10.4133 25.77 9.9C26.1433 9.38667 26.4333 8.79333 26.64 8.12C26.84 7.45333 26.94 6.85667 26.94 6.33C26.94 6.07667 26.8833 5.84667 26.77 5.64ZM30.22 2.94C30.22 2.01333 30.0933 1.39333 29.84 1.08C29.96 0.9 30.17 0.81 30.47 0.81C30.53 0.81 30.59 0.813334 30.65 0.82C30.8833 1.05333 31 1.73 31 2.85C31 3.45667 30.9733 4.16333 30.92 4.97C30.8067 6.37 30.75 7.39667 30.75 8.05C30.75 9.81 31.09 10.69 31.77 10.69C31.77 10.69 31.9433 10.66 32.29 10.6C32.3767 10.6 32.4467 10.6367 32.5 10.71C32.4733 11.0433 32.2 11.21 31.68 11.21C31.1667 11.21 30.77 11.0533 30.49 10.74C30.21 10.4267 30.0333 10.0367 29.96 9.57C29.8933 9.09667 29.86 8.70667 29.86 8.4C29.86 8.09333 29.8633 7.75333 29.87 7.38C29.8767 7.01333 29.92 6.48333 30 5.79C30.1467 4.39 30.22 3.44 30.22 2.94ZM33.8 8.47C33.7867 8.65667 33.78 8.78333 33.78 8.85C33.78 9.41 33.95 9.84333 34.29 10.15C34.63 10.4567 35.0333 10.61 35.5 10.61C35.9667 10.61 36.3467 10.5433 36.64 10.41C36.9333 10.2833 37.1467 10.1433 37.28 9.99C37.6133 9.57 37.92 9.36 38.2 9.36C38.3 9.36 38.42 9.39 38.56 9.45C38.4667 9.90333 38.1167 10.32 37.51 10.7C36.8967 11.08 36.1267 11.27 35.2 11.27C34.5467 11.27 33.9867 11.0633 33.52 10.65C33.0467 10.23 32.81 9.66 32.81 8.94C32.81 8.22667 32.9533 7.53 33.24 6.85C33.52 6.17667 33.93 5.59667 34.47 5.11C35.0033 4.63 35.55 4.39 36.11 4.39C36.6633 4.39 37.11 4.50667 37.45 4.74C37.79 4.96667 37.96 5.3 37.96 5.74C37.96 6.55333 37.6 7.22333 36.88 7.75C36.1533 8.27667 35.3833 8.54 34.57 8.54C34.3567 8.54 34.1 8.51667 33.8 8.47ZM34.87 8.01C35.31 8.01 35.7 7.87 36.04 7.59C36.3867 7.31 36.6333 7.01333 36.78 6.7C36.9267 6.39333 37 6.11333 37 5.86C37 5.61333 36.9 5.39333 36.7 5.2C36.5067 5.00667 36.28 4.91 36.02 4.91C35.5533 4.91 35.12 5.23333 34.72 5.88C34.3267 6.52 34.0433 7.18667 33.87 7.88C34.2833 7.96667 34.6167 8.01 34.87 8.01ZM40.43 8.47C40.41 8.65667 40.4 8.78333 40.4 8.85C40.4 9.41 40.57 9.84333 40.91 10.15C41.25 10.4567 41.6533 10.61 42.12 10.61C42.5867 10.61 42.9667 10.5433 43.26 10.41C43.5533 10.2833 43.7667 10.1433 43.9 9.99C44.2333 9.57 44.54 9.36 44.82 9.36C44.9267 9.36 45.05 9.39 45.19 9.45C45.0967 9.90333 44.7433 10.32 44.13 10.7C43.5167 11.08 42.75 11.27 41.83 11.27C41.1767 11.27 40.6133 11.0633 40.14 10.65C39.6667 10.23 39.43 9.66 39.43 8.94C39.43 8.22667 39.5733 7.53 39.86 6.85C40.1467 6.17667 40.5567 5.59667 41.09 5.11C41.63 4.63 42.1767 4.39 42.73 4.39C43.2833 4.39 43.73 4.50667 44.07 4.74C44.41 4.96667 44.58 5.3 44.58 5.74C44.58 6.55333 44.22 7.22333 43.5 7.75C42.7733 8.27667 42.0067 8.54 41.2 8.54C40.98 8.54 40.7233 8.51667 40.43 8.47ZM41.49 8.01C41.93 8.01 42.3233 7.87 42.67 7.59C43.01 7.31 43.2533 7.01333 43.4 6.7C43.5467 6.39333 43.62 6.11333 43.62 5.86C43.62 5.61333 43.52 5.39333 43.32 5.2C43.1267 5.00667 42.9 4.91 42.64 4.91C42.1733 4.91 41.74 5.23333 41.34 5.88C40.9467 6.52 40.6667 7.18667 40.5 7.88C40.9067 7.96667 41.2367 8.01 41.49 8.01Z" fill="black"/>
</svg>
