<svg width="67" height="11" viewBox="0 0 67 11" fill="none" xmlns="http://www.w3.org/2000/svg">
<path d="M7.72 5.55H2.96V8.9L4.08 9.09V9.95H0.5V9.09L1.62 8.9V1.06L0.5 0.87V0H4.08V0.87L2.96 1.06V4.49H7.72V1.06L6.61 0.87V0H10.18V0.87L9.07 1.06V8.9L10.18 9.09V9.95H6.61V9.09L7.72 8.9V5.55ZM13.64 10.09C12.8667 10.09 12.28 9.90333 11.88 9.53C11.48 9.15667 11.28 8.62667 11.28 7.94C11.28 7.46667 11.41 7.05667 11.67 6.71C11.9233 6.35667 12.2933 6.08667 12.78 5.9C13.2667 5.70667 13.85 5.61 14.53 5.61H15.85V4.88C15.85 4.43333 15.7133 4.09 15.44 3.85C15.1733 3.60333 14.7933 3.48 14.3 3.48C13.9867 3.48 13.7167 3.51667 13.49 3.59C13.2633 3.66333 13.0567 3.76667 12.87 3.9L12.73 4.93H11.69V3.24C12.3567 2.69333 13.2333 2.42 14.32 2.42C15.22 2.42 15.9233 2.63333 16.43 3.06C16.9433 3.48667 17.2 4.1 17.2 4.9V8.46C17.2 8.55333 17.2 8.64667 17.2 8.74C17.2 8.83333 17.2067 8.92333 17.22 9.01L17.94 9.09V9.95H16C15.92 9.57667 15.8733 9.23667 15.86 8.93C15.6 9.26333 15.2733 9.54 14.88 9.76C14.4933 9.98 14.08 10.09 13.64 10.09ZM13.83 8.97C14.2767 8.97 14.6867 8.86 15.06 8.64C15.4267 8.42667 15.69 8.17 15.85 7.87V6.53H14.48C13.86 6.53 13.3967 6.68 13.09 6.98C12.7767 7.27333 12.62 7.60333 12.62 7.97C12.62 8.63667 13.0233 8.97 13.83 8.97ZM21.44 4.56V8.9L22.56 9.09V9.95H18.98V9.09L20.1 8.9V3.61L18.98 3.42V2.55H21.3L21.39 3.65C21.6367 3.26333 21.9467 2.96 22.32 2.74C22.6933 2.52667 23.1167 2.42 23.59 2.42C24.3833 2.42 25 2.65333 25.44 3.12C25.88 3.58667 26.1 4.30667 26.1 5.28V8.9L27.21 9.09V9.95H23.64V9.09L24.75 8.9V5.31C24.75 4.65667 24.62 4.19333 24.36 3.92C24.1067 3.64667 23.7167 3.51 23.19 3.51C22.7967 3.51 22.4533 3.60333 22.16 3.79C21.86 3.97667 21.62 4.23333 21.44 4.56ZM31.42 10.09C30.6133 10.09 29.9867 9.83333 29.54 9.32C29.0867 8.80667 28.86 8.00333 28.86 6.91V3.61L28.01 3.42V2.55H30.21V6.93C30.21 7.71667 30.3233 8.26 30.55 8.56C30.7833 8.85333 31.1467 9 31.64 9C32.12 9 32.5167 8.90333 32.83 8.71C33.1433 8.51667 33.3767 8.24333 33.53 7.89V3.61L32.54 3.42V2.55H34.88V8.9L35.73 9.09V9.95H33.67L33.58 8.86C33.3467 9.25333 33.0467 9.55667 32.68 9.77C32.3133 9.98333 31.8933 10.09 31.42 10.09ZM39.13 4.47V8.9L40.25 9.09V9.95H36.67V9.09L37.79 8.9V3.61L36.67 3.42V2.55H39L39.09 3.52C39.3233 3.16667 39.6267 2.89333 40 2.7C40.3733 2.51333 40.8067 2.42 41.3 2.42C41.7933 2.42 42.2167 2.53333 42.57 2.76C42.9233 2.98667 43.19 3.32667 43.37 3.78C43.5967 3.36667 43.9033 3.03667 44.29 2.79C44.67 2.54333 45.1167 2.42 45.63 2.42C46.3833 2.42 46.98 2.67667 47.42 3.19C47.86 3.71 48.08 4.49 48.08 5.53V8.9L49.19 9.09V9.95H45.61V9.09L46.72 8.9V5.51C46.72 4.78333 46.5967 4.27 46.35 3.97C46.0967 3.66333 45.7233 3.51 45.23 3.51C44.7633 3.51 44.3867 3.67667 44.1 4.01C43.8133 4.33667 43.6467 4.75 43.6 5.25V8.9L44.72 9.09V9.95H41.14V9.09L42.26 8.9V5.51C42.26 4.81667 42.13 4.31 41.87 3.99C41.6167 3.67 41.2433 3.51 40.75 3.51C40.3433 3.51 40.0067 3.59333 39.74 3.76C39.48 3.93333 39.2767 4.17 39.13 4.47ZM52.58 10.09C51.8067 10.09 51.22 9.90333 50.82 9.53C50.42 9.15667 50.22 8.62667 50.22 7.94C50.22 7.46667 50.35 7.05667 50.61 6.71C50.8633 6.35667 51.2367 6.08667 51.73 5.9C52.2167 5.70667 52.8 5.61 53.48 5.61H54.79V4.88C54.79 4.43333 54.6567 4.09 54.39 3.85C54.1167 3.60333 53.7333 3.48 53.24 3.48C52.9333 3.48 52.6667 3.51667 52.44 3.59C52.2067 3.66333 51.9967 3.76667 51.81 3.9L51.67 4.93H50.63V3.24C51.3033 2.69333 52.18 2.42 53.26 2.42C54.16 2.42 54.8667 2.63333 55.38 3.06C55.8867 3.48667 56.14 4.1 56.14 4.9V8.46C56.14 8.55333 56.14 8.64667 56.14 8.74C56.1467 8.83333 56.1533 8.92333 56.16 9.01L56.88 9.09V9.95H54.95C54.87 9.57667 54.82 9.23667 54.8 8.93C54.54 9.26333 54.2167 9.54 53.83 9.76C53.4367 9.98 53.02 10.09 52.58 10.09ZM52.78 8.97C53.2267 8.97 53.6333 8.86 54 8.64C54.3733 8.42667 54.6367 8.17 54.79 7.87V6.53H53.43C52.81 6.53 52.3433 6.68 52.03 6.98C51.7233 7.27333 51.57 7.60333 51.57 7.97C51.57 8.63667 51.9733 8.97 52.78 8.97ZM60.39 4.56V8.9L61.5 9.09V9.95H57.93V9.09L59.04 8.9V3.61L57.93 3.42V2.55H60.24L60.34 3.65C60.5867 3.26333 60.8933 2.96 61.26 2.74C61.6333 2.52667 62.0567 2.42 62.53 2.42C63.33 2.42 63.95 2.65333 64.39 3.12C64.8233 3.58667 65.04 4.30667 65.04 5.28V8.9L66.16 9.09V9.95H62.58V9.09L63.7 8.9V5.31C63.7 4.65667 63.57 4.19333 63.31 3.92C63.05 3.64667 62.6567 3.51 62.13 3.51C61.7433 3.51 61.4 3.60333 61.1 3.79C60.8 3.97667 60.5633 4.23333 60.39 4.56Z" fill="black"/>
</svg>
