<svg width="52" height="8" viewBox="0 0 52 8" fill="none" xmlns="http://www.w3.org/2000/svg">
<path d="M1.55 7.49H0.5C0.54 7.28333 0.563333 6.98667 0.57 6.6C0.576667 6.21333 0.58 5.76667 0.58 5.26V2.24C0.58 1.73333 0.576667 1.28667 0.57 0.9C0.563333 0.506666 0.54 0.206667 0.5 0H1.55V3.21H5.24V0H6.29C6.25667 0.206667 6.23667 0.506666 6.23 0.9C6.22333 1.28667 6.22 1.73333 6.22 2.24V5.26C6.22 5.76667 6.22333 6.21333 6.23 6.6C6.23667 6.98667 6.25667 7.28333 6.29 7.49H5.24V4.03H1.55V7.49ZM9.39 7.61C8.91 7.61 8.51333 7.46667 8.2 7.18C7.88667 6.89333 7.73 6.56 7.73 6.18C7.73 5.92 7.79 5.66333 7.91 5.41C8.03 5.15 8.24 4.92333 8.54 4.73C8.83333 4.53667 9.24667 4.41667 9.78 4.37C9.89333 4.35667 10.0467 4.34 10.24 4.32C10.4333 4.3 10.6167 4.28333 10.79 4.27C10.97 4.25 11.0933 4.24 11.16 4.24V3.85C11.16 3.54333 11.05 3.32 10.83 3.18C10.6167 3.04667 10.3167 2.98 9.93 2.98C9.65667 2.98 9.38667 3.03333 9.12 3.14C8.84667 3.25333 8.56333 3.41333 8.27 3.62C8.27 3.50667 8.27333 3.34 8.28 3.12C8.28667 2.9 8.29667 2.73333 8.31 2.62C8.57667 2.50667 8.85333 2.4 9.14 2.3C9.43333 2.20667 9.77333 2.16 10.16 2.16C10.7533 2.16 11.2267 2.29667 11.58 2.57C11.9333 2.85 12.11 3.19 12.11 3.59V5.6C12.11 5.96667 12.1433 6.3 12.21 6.6C12.2833 6.90667 12.3767 7.20333 12.49 7.49H11.57C11.5367 7.41 11.4933 7.3 11.44 7.16C11.3933 7.01333 11.35 6.86 11.31 6.7C11.01 7.02 10.6933 7.25333 10.36 7.4C10.0333 7.54 9.71 7.61 9.39 7.61ZM9.54 6.77C9.80667 6.77 10.0667 6.71667 10.32 6.61C10.5733 6.49667 10.8533 6.23667 11.16 5.83V4.95C11.0733 4.95667 10.9467 4.96667 10.78 4.98C10.6067 5 10.4333 5.02 10.26 5.04C10.08 5.05333 9.93333 5.06667 9.82 5.08C9.39333 5.13333 9.09 5.25 8.91 5.43C8.73667 5.61 8.65 5.81667 8.65 6.05C8.65 6.28333 8.73 6.46 8.89 6.58C9.05 6.70667 9.26667 6.77 9.54 6.77ZM14.73 7.49H13.78V4.34C13.78 3.84 13.75 3.41333 13.69 3.06C13.63 2.70667 13.5733 2.44 13.52 2.26H14.44C14.48 2.36667 14.52 2.53 14.56 2.75C14.6 2.97 14.6267 3.14333 14.64 3.27C14.8933 2.91 15.1767 2.63333 15.49 2.44C15.8033 2.25333 16.0767 2.16 16.31 2.16C16.5967 2.16 16.8267 2.24 17 2.4C17.1733 2.56 17.3 2.77333 17.38 3.04C17.4533 3.3 17.49 3.58 17.49 3.88L16.67 4.06C16.67 3.80667 16.6233 3.58 16.53 3.38C16.4367 3.18 16.2867 3.08 16.08 3.08C15.94 3.08 15.7767 3.15333 15.59 3.3C15.41 3.44 15.24 3.62 15.08 3.84C14.92 4.06 14.8033 4.28667 14.73 4.52V7.49ZM19.39 7.49H18.44V4.34C18.44 3.84 18.41 3.41333 18.35 3.06C18.29 2.70667 18.2333 2.44 18.18 2.26H19.1C19.14 2.36667 19.1733 2.49667 19.2 2.65C19.2267 2.80333 19.2467 2.94 19.26 3.06C19.58 2.69333 19.8767 2.45333 20.15 2.34C20.4233 2.22 20.7067 2.16 21 2.16C21.34 2.16 21.6133 2.24667 21.82 2.42C22.0333 2.59333 22.18 2.79333 22.26 3.02C22.58 2.67333 22.8833 2.44333 23.17 2.33C23.4567 2.21667 23.7333 2.16 24 2.16C24.52 2.16 24.88 2.32667 25.08 2.66C25.28 2.99333 25.38 3.47667 25.38 4.11V7.49H24.43V4.67C24.43 4.23 24.41 3.89333 24.37 3.66C24.3233 3.42667 24.2467 3.27 24.14 3.19C24.0333 3.10333 23.8833 3.06 23.69 3.06C23.4433 3.06 23.2 3.15333 22.96 3.34C22.7267 3.53333 22.5333 3.79 22.38 4.11V7.49H21.44V4.57C21.44 4.15 21.4167 3.83 21.37 3.61C21.33 3.39667 21.2533 3.25 21.14 3.17C21.0333 3.09667 20.8833 3.06 20.69 3.06C20.4433 3.06 20.1967 3.15667 19.95 3.35C19.71 3.54333 19.5233 3.79667 19.39 4.11V7.49ZM28.33 7.61C27.8433 7.61 27.4433 7.46667 27.13 7.18C26.8167 6.89333 26.66 6.56 26.66 6.18C26.66 5.92 26.72 5.66333 26.84 5.41C26.96 5.15 27.17 4.92333 27.47 4.73C27.77 4.53667 28.1833 4.41667 28.71 4.37C28.83 4.35667 28.9867 4.34 29.18 4.32C29.3667 4.3 29.55 4.28333 29.73 4.27C29.9033 4.25 30.0233 4.24 30.09 4.24V3.85C30.09 3.54333 29.9833 3.32 29.77 3.18C29.55 3.04667 29.2467 2.98 28.86 2.98C28.5933 2.98 28.3233 3.03333 28.05 3.14C27.7833 3.25333 27.5 3.41333 27.2 3.62C27.2 3.50667 27.2067 3.34 27.22 3.12C27.2267 2.9 27.2367 2.73333 27.25 2.62C27.5167 2.50667 27.7933 2.4 28.08 2.3C28.3667 2.20667 28.7067 2.16 29.1 2.16C29.6867 2.16 30.1567 2.29667 30.51 2.57C30.8633 2.85 31.04 3.19 31.04 3.59V5.6C31.04 5.96667 31.0767 6.3 31.15 6.6C31.2233 6.90667 31.3167 7.20333 31.43 7.49H30.5C30.4733 7.41 30.4333 7.3 30.38 7.16C30.3333 7.01333 30.29 6.86 30.25 6.7C29.9433 7.02 29.6267 7.25333 29.3 7.4C28.9733 7.54 28.65 7.61 28.33 7.61ZM28.48 6.77C28.7467 6.77 29.0067 6.71667 29.26 6.61C29.5133 6.49667 29.79 6.23667 30.09 5.83V4.95C30.01 4.95667 29.8833 4.96667 29.71 4.98C29.5433 5 29.37 5.02 29.19 5.04C29.01 5.05333 28.8667 5.06667 28.76 5.08C28.3267 5.13333 28.0233 5.25 27.85 5.43C27.67 5.61 27.58 5.81667 27.58 6.05C27.58 6.28333 27.66 6.46 27.82 6.58C27.98 6.70667 28.2 6.77 28.48 6.77ZM34.54 7.61C34.14 7.61 33.8 7.51 33.52 7.31C33.2333 7.10333 33.09 6.70333 33.09 6.11V0.719999H34.04V5.49C34.04 6.01667 34.0933 6.36333 34.2 6.53C34.3 6.69 34.4667 6.77 34.7 6.77C34.9867 6.77 35.3567 6.64333 35.81 6.39V7.21C35.5767 7.36333 35.35 7.46667 35.13 7.52C34.9167 7.58 34.72 7.61 34.54 7.61ZM35.71 3.14H32.07V2.39H35.71V3.14ZM38.82 7.61C38.42 7.61 38.08 7.51 37.8 7.31C37.5133 7.10333 37.37 6.70333 37.37 6.11V0.719999H38.32V5.49C38.32 6.01667 38.3733 6.36333 38.48 6.53C38.58 6.69 38.7467 6.77 38.98 6.77C39.2667 6.77 39.6367 6.64333 40.09 6.39V7.21C39.8567 7.36333 39.63 7.46667 39.41 7.52C39.1967 7.58 39 7.61 38.82 7.61ZM39.99 3.14H36.35V2.39H39.99V3.14ZM42.63 7.61C42.15 7.61 41.75 7.46667 41.43 7.18C41.1167 6.89333 40.96 6.56 40.96 6.18C40.96 5.92 41.02 5.66333 41.14 5.41C41.26 5.15 41.47 4.92333 41.77 4.73C42.07 4.53667 42.4833 4.41667 43.01 4.37C43.13 4.35667 43.2867 4.34 43.48 4.32C43.6667 4.3 43.85 4.28333 44.03 4.27C44.2033 4.25 44.3233 4.24 44.39 4.24V3.85C44.39 3.54333 44.2833 3.32 44.07 3.18C43.85 3.04667 43.5467 2.98 43.16 2.98C42.8933 2.98 42.6233 3.03333 42.35 3.14C42.0833 3.25333 41.8 3.41333 41.5 3.62C41.5 3.50667 41.5067 3.34 41.52 3.12C41.5267 2.9 41.5367 2.73333 41.55 2.62C41.8167 2.50667 42.0933 2.4 42.38 2.3C42.6667 2.20667 43.0067 2.16 43.4 2.16C43.9867 2.16 44.4567 2.29667 44.81 2.57C45.1633 2.85 45.34 3.19 45.34 3.59V5.6C45.34 5.96667 45.3767 6.3 45.45 6.6C45.5233 6.90667 45.6167 7.20333 45.73 7.49H44.8C44.7733 7.41 44.7333 7.3 44.68 7.16C44.6333 7.01333 44.59 6.86 44.55 6.7C44.2433 7.02 43.9267 7.25333 43.6 7.4C43.2733 7.54 42.95 7.61 42.63 7.61ZM42.78 6.77C43.0467 6.77 43.3067 6.71667 43.56 6.61C43.8133 6.49667 44.09 6.23667 44.39 5.83V4.95C44.31 4.95667 44.1833 4.96667 44.01 4.98C43.8433 5 43.67 5.02 43.49 5.04C43.31 5.05333 43.1667 5.06667 43.06 5.08C42.6267 5.13333 42.3233 5.25 42.15 5.43C41.9767 5.61 41.89 5.81667 41.89 6.05C41.89 6.28333 41.9667 6.46 42.12 6.58C42.28 6.70667 42.5 6.77 42.78 6.77ZM47.96 7.49H47.01C47.01 7.49 47.01 7.37667 47.01 7.15C47.01 6.92333 47.01 6.63667 47.01 6.29C47.01 5.94333 47.01 5.59333 47.01 5.24C47.01 4.88667 47.01 4.58667 47.01 4.34C47.01 3.84 46.9833 3.41333 46.93 3.06C46.87 2.70667 46.81 2.44 46.75 2.26H47.68C47.72 2.36667 47.7567 2.53 47.79 2.75C47.83 2.97 47.86 3.14333 47.88 3.27C48.2067 2.87667 48.5367 2.59333 48.87 2.42C49.2033 2.24667 49.55 2.16 49.91 2.16C50.45 2.16 50.8667 2.33667 51.16 2.69C51.4533 3.05 51.6 3.58333 51.6 4.29C51.6 4.45667 51.6 4.67333 51.6 4.94C51.6 5.20667 51.6 5.48667 51.6 5.78C51.6 6.07333 51.6 6.35 51.6 6.61C51.6 6.87 51.6 7.08 51.6 7.24C51.6 7.40667 51.6 7.49 51.6 7.49H50.65C50.65 7.49 50.65 7.38 50.65 7.16C50.65 6.94 50.65 6.66667 50.65 6.34C50.65 6.02 50.65 5.70667 50.65 5.4C50.65 5.09333 50.65 4.85 50.65 4.67C50.65 4.03 50.5667 3.60333 50.4 3.39C50.2333 3.17 49.9733 3.06 49.62 3.06C49.3733 3.06 49.14 3.13333 48.92 3.28C48.6933 3.42667 48.4967 3.61 48.33 3.83C48.1633 4.05667 48.04 4.28667 47.96 4.52V7.49Z" fill="black"/>
</svg>
