<svg width="86" height="19" viewBox="0 0 86 19" fill="none" xmlns="http://www.w3.org/2000/svg">
<path d="M1.1 0C1.18 0 1.29 0.0199999 1.43 0.0599999C1.56333 0.106667 1.72 0.163333 1.9 0.23C2.08667 0.296667 2.29667 0.366666 2.53 0.44C2.75667 0.506666 3.00667 0.57 3.28 0.63C3.54 0.683333 3.81667 0.726667 4.11 0.76C4.40333 0.793333 4.68 0.82 4.94 0.84C5.2 0.86 5.43 0.876667 5.63 0.89C5.83 0.903333 5.96333 0.913333 6.03 0.92C6.09667 0.926666 6.14667 0.94 6.18 0.96C6.22 0.973333 6.24 1.00333 6.24 1.05C6.24 1.09667 6.22 1.13 6.18 1.15C6.14 1.16333 6.09333 1.17 6.04 1.17C5.94 1.17 5.79333 1.16333 5.6 1.15C5.40667 1.13667 5.20333 1.13 4.99 1.13C4.83 1.13 4.69 1.14667 4.57 1.18C4.45 1.20667 4.35 1.25333 4.27 1.32C4.19 1.39333 4.12667 1.48333 4.08 1.59C4.03333 1.70333 4.00667 1.84333 4 2.01C3.99333 2.11 3.98667 2.23667 3.98 2.39C3.98 2.53667 3.98 2.70333 3.98 2.89C3.97333 3.08333 3.97 3.28333 3.97 3.49C3.97 3.70333 3.97 3.92 3.97 4.14C3.97 4.40667 3.97 4.66333 3.97 4.91C3.97 5.16333 3.97 5.39333 3.97 5.6C3.97 5.81333 3.97333 5.99333 3.98 6.14C3.98 6.28 3.98333 6.38 3.99 6.44C3.99 6.55333 4.00333 6.64667 4.03 6.72C4.05 6.79333 4.08 6.85 4.12 6.89C4.16 6.93667 4.21 6.96667 4.27 6.98C4.32333 6.99333 4.38333 7 4.45 7C4.57667 7 4.73333 6.99333 4.92 6.98C5.1 6.96667 5.29333 6.95 5.5 6.93C5.70667 6.91667 5.91667 6.89667 6.13 6.87C6.33667 6.84333 6.53 6.82 6.71 6.8C6.89 6.78 7.05 6.76 7.19 6.74C7.32333 6.72667 7.41667 6.71333 7.47 6.7C7.63 6.67333 7.75333 6.62333 7.84 6.55C7.93333 6.47 8 6.37333 8.04 6.26C8.08667 6.15333 8.11667 6.03 8.13 5.89C8.13667 5.75 8.14 5.60667 8.14 5.46C8.14 5.25333 8.13333 5.04333 8.12 4.83C8.1 4.61 8.08 4.40333 8.06 4.21C8.04 4.01 8.01667 3.83 7.99 3.67C7.96333 3.51 7.94333 3.39 7.93 3.31C7.90333 3.13667 7.86333 3 7.81 2.9C7.75667 2.8 7.69667 2.72667 7.63 2.68C7.56333 2.63333 7.49333 2.60333 7.42 2.59C7.35333 2.57667 7.29 2.57 7.23 2.57C7.07667 2.57 6.92 2.57667 6.76 2.59C6.6 2.59667 6.47333 2.6 6.38 2.6C6.28667 2.6 6.21667 2.58333 6.17 2.55C6.12333 2.51 6.1 2.46 6.1 2.4C6.1 2.35333 6.12 2.30667 6.16 2.26C6.19333 2.21333 6.28333 2.18667 6.43 2.18C6.57 2.17333 6.72667 2.16333 6.9 2.15C7.06667 2.14333 7.24667 2.13 7.44 2.11C7.62667 2.08333 7.81667 2.05667 8.01 2.03C8.21 2.00333 8.40333 1.97 8.59 1.93C8.76333 1.89 8.95 1.84 9.15 1.78C9.35 1.72667 9.54333 1.67333 9.73 1.62C9.92333 1.56667 10.1 1.52 10.26 1.48C10.4267 1.44667 10.5633 1.43 10.67 1.43C10.77 1.43 10.8333 1.44333 10.86 1.47C10.8867 1.50333 10.9 1.54 10.9 1.58C10.9 1.64 10.8767 1.68333 10.83 1.71C10.7767 1.73667 10.7167 1.75 10.65 1.75C10.6167 1.75 10.5733 1.75 10.52 1.75C10.4667 1.75667 10.41 1.76667 10.35 1.78C10.29 1.78667 10.23 1.8 10.17 1.82C10.11 1.84 10.06 1.86667 10.02 1.9C9.94667 1.96 9.88 2.04 9.82 2.14C9.76 2.24 9.71333 2.39333 9.68 2.6C9.66 2.76667 9.64333 2.97333 9.63 3.22C9.61667 3.46667 9.60667 3.72667 9.6 4C9.58667 4.27333 9.57667 4.54667 9.57 4.82C9.56333 5.09333 9.56 5.33667 9.56 5.55C9.55333 5.66333 9.54667 5.82667 9.54 6.04C9.53333 6.24667 9.52667 6.49 9.52 6.77C9.52 7.04333 9.51667 7.34333 9.51 7.67C9.50333 7.99667 9.49667 8.32667 9.49 8.66C9.48333 8.99333 9.48 9.33 9.48 9.67C9.48 10.0033 9.48 10.3167 9.48 10.61C9.48 10.85 9.48 11.0733 9.48 11.28C9.48 11.4867 9.48333 11.6633 9.49 11.81C9.49667 11.9567 9.51667 12.0767 9.55 12.17C9.58333 12.2633 9.62333 12.3367 9.67 12.39C9.71667 12.45 9.76333 12.4933 9.81 12.52C9.86333 12.5533 9.91333 12.5767 9.96 12.59C10.06 12.63 10.1667 12.66 10.28 12.68C10.3933 12.6933 10.5167 12.7167 10.65 12.75C10.7167 12.7633 10.7567 12.78 10.77 12.8C10.79 12.82 10.8 12.8467 10.8 12.88C10.8 12.8867 10.7967 12.8967 10.79 12.91C10.79 12.93 10.78 12.9467 10.76 12.96C10.7467 12.9733 10.7233 12.9833 10.69 12.99C10.65 13.0033 10.6 13.01 10.54 13.01C10.48 13.01 10.38 13.0033 10.24 12.99C10.1067 12.9767 9.95333 12.9633 9.78 12.95C9.60667 12.93 9.42667 12.9167 9.24 12.91C9.06 12.8967 8.9 12.89 8.76 12.89C8.57333 12.89 8.38667 12.8967 8.2 12.91C8.02 12.93 7.84667 12.95 7.68 12.97C7.52 12.99 7.36667 13.0067 7.22 13.02C7.07333 13.04 6.94333 13.05 6.83 13.05C6.63667 13.05 6.51333 13.0233 6.46 12.97C6.40667 12.9233 6.38 12.8733 6.38 12.82C6.38 12.7467 6.40667 12.7 6.46 12.68C6.52 12.66 6.59 12.65 6.67 12.65C6.93 12.6433 7.15 12.63 7.33 12.61C7.50333 12.5967 7.66667 12.5567 7.82 12.49C7.93333 12.43 8.02667 12.3633 8.1 12.29C8.16667 12.2167 8.22 12.1333 8.26 12.04C8.29333 11.9533 8.31333 11.8633 8.32 11.77C8.33333 11.6767 8.34 11.5867 8.34 11.5C8.34 11.4333 8.33667 11.31 8.33 11.13C8.31667 10.9567 8.30333 10.75 8.29 10.51C8.27667 10.27 8.25667 10.0133 8.23 9.74C8.21 9.46667 8.19 9.20333 8.17 8.95C8.15 8.69 8.12667 8.45333 8.1 8.24C8.08 8.02667 8.06333 7.85667 8.05 7.73C8.02333 7.59667 7.99333 7.49 7.96 7.41C7.92667 7.33 7.88667 7.27 7.84 7.23C7.79333 7.19 7.73667 7.16333 7.67 7.15C7.61 7.13667 7.54 7.13 7.46 7.13C7.38 7.13 7.25667 7.13667 7.09 7.15C6.92333 7.16333 6.73667 7.18 6.53 7.2C6.31667 7.22667 6.1 7.25333 5.88 7.28C5.65333 7.30667 5.44 7.33333 5.24 7.36C5.04 7.38667 4.86333 7.41333 4.71 7.44C4.55667 7.46667 4.45 7.49333 4.39 7.52C4.30333 7.54667 4.23333 7.58333 4.18 7.63C4.13333 7.67 4.1 7.71667 4.08 7.77C4.05333 7.82333 4.03667 7.88 4.03 7.94C4.02333 7.99333 4.01667 8.04667 4.01 8.1C4.01 8.23333 4.01333 8.41333 4.02 8.64C4.02 8.87333 4.02 9.12667 4.02 9.4C4.02667 9.67333 4.03 9.96333 4.03 10.27C4.03667 10.57 4.04 10.8633 4.04 11.15C4.04667 11.43 4.05 11.69 4.05 11.93C4.05 12.17 4.05 12.3633 4.05 12.51C4.05 12.7233 4.06667 12.8967 4.1 13.03C4.12667 13.1633 4.16333 13.27 4.21 13.35C4.25 13.43 4.30333 13.4933 4.37 13.54C4.43 13.5867 4.49667 13.6333 4.57 13.68C4.65 13.72 4.72333 13.7567 4.79 13.79C4.86333 13.8233 4.9 13.87 4.9 13.93C4.9 13.9633 4.88333 13.9867 4.85 14C4.82333 14.0133 4.79 14.02 4.75 14.02C4.65 14.02 4.55 14.0067 4.45 13.98C4.34333 13.9533 4.22333 13.9267 4.09 13.9C3.95 13.8667 3.78667 13.8367 3.6 13.81C3.41333 13.7833 3.18667 13.77 2.92 13.77C2.64667 13.77 2.39333 13.7867 2.16 13.82C1.93333 13.8533 1.73 13.8867 1.55 13.92C1.36333 13.96 1.20333 13.9967 1.07 14.03C0.943333 14.0633 0.836667 14.08 0.75 14.08C0.583333 14.08 0.5 14.02 0.5 13.9C0.5 13.8267 0.52 13.7733 0.56 13.74C0.6 13.7133 0.65 13.6867 0.71 13.66C0.736667 13.6533 0.783333 13.6433 0.85 13.63C0.91 13.6167 0.986667 13.6 1.08 13.58C1.16667 13.5667 1.26333 13.5467 1.37 13.52C1.47667 13.5 1.58333 13.4767 1.69 13.45C1.83667 13.41 1.95 13.36 2.03 13.3C2.11 13.2333 2.17 13.16 2.21 13.08C2.25 13 2.27333 12.9167 2.28 12.83C2.29333 12.7367 2.3 12.6433 2.3 12.55C2.3 12.5233 2.30333 12.4333 2.31 12.28C2.31667 12.12 2.32333 11.92 2.33 11.68C2.34333 11.44 2.35333 11.1667 2.36 10.86C2.36667 10.5533 2.37667 10.2367 2.39 9.91C2.39667 9.57667 2.40333 9.24333 2.41 8.91C2.41 8.58333 2.41333 8.27 2.42 7.97C2.42 7.90333 2.42 7.79333 2.42 7.64C2.42667 7.48 2.43 7.29 2.43 7.07C2.43 6.85 2.43 6.60667 2.43 6.34C2.43 6.07333 2.43 5.79333 2.43 5.5C2.43 5.11333 2.43 4.72 2.43 4.32C2.43 3.92 2.42667 3.54333 2.42 3.19C2.41333 2.84333 2.40333 2.53667 2.39 2.27C2.37667 2.01 2.36333 1.82333 2.35 1.71C2.33 1.57667 2.30333 1.45667 2.27 1.35C2.23667 1.25 2.19333 1.16 2.14 1.08C2.08667 0.993334 2.02333 0.916667 1.95 0.85C1.87 0.783333 1.78 0.716667 1.68 0.65C1.58 0.59 1.48333 0.54 1.39 0.5C1.29667 0.453333 1.21667 0.41 1.15 0.37C1.07667 0.336667 1.02 0.3 0.98 0.26C0.94 0.22 0.92 0.176667 0.92 0.13C0.92 0.0899999 0.933333 0.0566666 0.96 0.03C0.986667 0.00999997 1.03333 0 1.1 0ZM16.5 8.64C16.5667 8.74 16.6267 8.88 16.68 9.06C16.7333 9.24 16.76 9.42 16.76 9.6C16.76 9.93333 16.7033 10.23 16.59 10.49C16.4833 10.7567 16.3267 10.98 16.12 11.16C15.9133 11.34 15.6667 11.4767 15.38 11.57C15.0867 11.6633 14.76 11.71 14.4 11.71C13.8867 11.71 13.4233 11.6233 13.01 11.45C12.6033 11.2767 12.26 11.0333 11.98 10.72C11.7067 10.4 11.4967 10.0233 11.35 9.59C11.2033 9.15667 11.13 8.68 11.13 8.16C11.13 7.68667 11.18 7.26 11.28 6.88C11.38 6.5 11.5167 6.15667 11.69 5.85C11.8633 5.55 12.0633 5.29 12.29 5.07C12.5167 4.84333 12.76 4.65667 13.02 4.51C13.2733 4.37 13.5333 4.26333 13.8 4.19C14.06 4.11667 14.3133 4.08 14.56 4.08C14.8 4.08 15.05 4.11333 15.31 4.18C15.57 4.24667 15.81 4.35667 16.03 4.51C16.2433 4.66333 16.42 4.86667 16.56 5.12C16.7 5.37333 16.77 5.69 16.77 6.07C16.77 6.40333 16.72 6.69667 16.62 6.95C16.5267 7.19667 16.4 7.41333 16.24 7.6C16.08 7.78 15.8967 7.93 15.69 8.05C15.49 8.17 15.2833 8.26333 15.07 8.33C14.8567 8.40333 14.65 8.45333 14.45 8.48C14.2433 8.50667 14.0633 8.52 13.91 8.52C13.69 8.52 13.4733 8.50333 13.26 8.47C13.0467 8.44333 12.88 8.41 12.76 8.37C12.78 8.72333 12.8367 9.06667 12.93 9.4C13.0233 9.72667 13.1567 10.0167 13.33 10.27C13.5033 10.5233 13.72 10.7233 13.98 10.87C14.2333 11.0233 14.5333 11.1 14.88 11.1C15.1267 11.1 15.3367 11.0567 15.51 10.97C15.6833 10.89 15.8267 10.78 15.94 10.64C16.0533 10.5 16.14 10.34 16.2 10.16C16.2533 9.98 16.28 9.79 16.28 9.59C16.28 9.47 16.27 9.34667 16.25 9.22C16.2367 9.09333 16.21 8.97333 16.17 8.86C16.1433 8.78667 16.12 8.72 16.1 8.66C16.08 8.60667 16.07 8.56 16.07 8.52C16.07 8.42667 16.1133 8.38 16.2 8.38C16.24 8.38 16.2867 8.40333 16.34 8.45C16.4 8.49 16.4533 8.55333 16.5 8.64ZM12.74 7.92C12.8533 7.95333 12.9867 7.98333 13.14 8.01C13.2933 8.03667 13.4833 8.05 13.71 8.05C13.97 8.05 14.2133 8 14.44 7.9C14.66 7.8 14.85 7.66 15.01 7.48C15.17 7.3 15.2967 7.08333 15.39 6.83C15.4833 6.57 15.53 6.28333 15.53 5.97C15.53 5.69 15.4967 5.45667 15.43 5.27C15.37 5.08333 15.29 4.93333 15.19 4.82C15.09 4.7 14.9767 4.61667 14.85 4.57C14.7167 4.52333 14.5833 4.5 14.45 4.5C14.2767 4.5 14.0867 4.55333 13.88 4.66C13.68 4.76667 13.4967 4.95 13.33 5.21C13.1567 5.46333 13.0133 5.81 12.9 6.25C12.7933 6.69 12.74 7.24667 12.74 7.92ZM19.33 3.46C19.37 3.46 19.4067 3.51667 19.44 3.63C19.48 3.74333 19.5167 3.89333 19.55 4.08C19.59 4.26667 19.6267 4.48333 19.66 4.73C19.7 4.97667 19.7367 5.22333 19.77 5.47L20.02 7.19C20.04 7.04333 20.08 6.87333 20.14 6.68C20.1933 6.48 20.27 6.27667 20.37 6.07C20.4633 5.85667 20.5767 5.65 20.71 5.45C20.85 5.25 21.01 5.07 21.19 4.91C21.37 4.75 21.5733 4.62333 21.8 4.53C22.0267 4.43 22.2767 4.38 22.55 4.38C22.8967 4.38 23.1933 4.44333 23.44 4.57C23.6933 4.70333 23.9 4.88333 24.06 5.11C24.2267 5.34333 24.35 5.62 24.43 5.94C24.5033 6.26 24.54 6.60667 24.54 6.98C24.54 7.32667 24.52 7.67 24.48 8.01C24.4467 8.35667 24.4067 8.69667 24.36 9.03C24.32 9.36333 24.28 9.68333 24.24 9.99C24.2 10.3033 24.18 10.5933 24.18 10.86C24.18 11.02 24.1933 11.16 24.22 11.28C24.2467 11.3933 24.2867 11.5 24.34 11.6C24.4067 11.7 24.4867 11.7833 24.58 11.85C24.6733 11.9233 24.7633 11.99 24.85 12.05C24.93 12.11 25 12.1733 25.06 12.24C25.1267 12.3 25.16 12.3633 25.16 12.43C25.16 12.47 25.1467 12.5067 25.12 12.54C25.1 12.5667 25.0633 12.58 25.01 12.58C24.9233 12.58 24.8333 12.55 24.74 12.49C24.64 12.43 24.5167 12.3533 24.37 12.26C24.23 12.1667 24.06 12.0667 23.86 11.96C23.66 11.8533 23.4167 11.7533 23.13 11.66C22.9167 11.5867 22.7 11.53 22.48 11.49C22.2667 11.45 22.0167 11.4233 21.73 11.41C21.57 11.3967 21.49 11.35 21.49 11.27C21.49 11.1833 21.54 11.14 21.64 11.14C21.7067 11.14 21.7967 11.14 21.91 11.14C22.0233 11.14 22.14 11.1367 22.26 11.13C22.44 11.11 22.59 11.0533 22.71 10.96C22.83 10.86 22.92 10.6767 22.98 10.41C22.9933 10.31 23.01 10.1767 23.03 10.01C23.05 9.85 23.0667 9.67667 23.08 9.49C23.0933 9.31 23.1033 9.12333 23.11 8.93C23.1233 8.73667 23.13 8.55333 23.13 8.38C23.13 8.22667 23.1267 8.05 23.12 7.85C23.1133 7.64333 23.1 7.43333 23.08 7.22C23.0533 7 23.0133 6.78333 22.96 6.57C22.9067 6.36333 22.83 6.17667 22.73 6.01C22.63 5.85 22.5033 5.71667 22.35 5.61C22.1967 5.51 22.0067 5.46 21.78 5.46C21.5867 5.46 21.4133 5.50667 21.26 5.6C21.1 5.7 20.96 5.83333 20.84 6C20.7133 6.17333 20.6067 6.37667 20.52 6.61C20.4333 6.84333 20.3667 7.09667 20.32 7.37C20.2733 7.65667 20.2433 7.94667 20.23 8.24C20.21 8.54 20.2 8.84 20.2 9.14C20.2 9.38667 20.21 9.62667 20.23 9.86C20.25 10.0867 20.2733 10.2967 20.3 10.49C20.3333 10.6833 20.3733 10.8567 20.42 11.01C20.4667 11.1567 20.52 11.2733 20.58 11.36C20.6667 11.48 20.76 11.57 20.86 11.63C20.96 11.69 21.0433 11.73 21.11 11.75C21.2033 11.7833 21.27 11.81 21.31 11.83C21.3433 11.85 21.36 11.8767 21.36 11.91C21.36 11.9367 21.34 11.9633 21.3 11.99C21.2533 12.01 21.18 12.02 21.08 12.02C20.9867 12.02 20.8833 12.0133 20.77 12C20.6567 11.98 20.5367 11.9633 20.41 11.95C20.29 11.93 20.1633 11.91 20.03 11.89C19.8967 11.8767 19.7667 11.87 19.64 11.87C19.5133 11.87 19.3833 11.8733 19.25 11.88C19.1167 11.8933 18.99 11.9033 18.87 11.91C18.75 11.9233 18.64 11.9333 18.54 11.94C18.44 11.9467 18.36 11.95 18.3 11.95C18.12 11.95 18.03 11.8933 18.03 11.78C18.03 11.74 18.0467 11.7067 18.08 11.68C18.1067 11.6467 18.16 11.6267 18.24 11.62C18.3 11.6133 18.3567 11.6067 18.41 11.6C18.4633 11.6 18.5133 11.5967 18.56 11.59C18.6133 11.59 18.67 11.5867 18.73 11.58C18.7833 11.58 18.85 11.5733 18.93 11.56C19.0767 11.54 19.1767 11.4867 19.23 11.4C19.2833 11.32 19.31 11.2067 19.31 11.06C19.31 10.8067 19.2867 10.5 19.24 10.14C19.2 9.78 19.1433 9.38333 19.07 8.95C18.9967 8.51667 18.9067 8.05667 18.8 7.57C18.7 7.09 18.5933 6.59667 18.48 6.09C18.4267 5.83 18.3633 5.63667 18.29 5.51C18.2167 5.37667 18.1167 5.31 17.99 5.31C17.9167 5.31 17.8433 5.32333 17.77 5.35C17.7033 5.37667 17.6333 5.40333 17.56 5.43C17.4867 5.46333 17.42 5.49333 17.36 5.52C17.2933 5.54 17.2333 5.55 17.18 5.55C17.0933 5.55 17.05 5.51333 17.05 5.44C17.05 5.38667 17.0733 5.34667 17.12 5.32C17.1667 5.29333 17.22 5.27 17.28 5.25C17.4067 5.19667 17.5433 5.13 17.69 5.05C17.8367 4.97667 17.9967 4.87333 18.17 4.74C18.3367 4.60667 18.4867 4.46667 18.62 4.32C18.7533 4.16667 18.8667 4.02667 18.96 3.9C19.06 3.77333 19.14 3.66667 19.2 3.58C19.26 3.5 19.3033 3.46 19.33 3.46ZM27.31 3.46C27.35 3.46 27.3867 3.51667 27.42 3.63C27.4533 3.74333 27.49 3.89333 27.53 4.08C27.5633 4.26667 27.6 4.48333 27.64 4.73C27.6733 4.97667 27.71 5.22333 27.75 5.47L27.99 7.19C28.0167 7.04333 28.0567 6.87333 28.11 6.68C28.17 6.48 28.2467 6.27667 28.34 6.07C28.44 5.85667 28.5567 5.65 28.69 5.45C28.83 5.25 28.99 5.07 29.17 4.91C29.35 4.75 29.55 4.62333 29.77 4.53C29.9967 4.43 30.25 4.38 30.53 4.38C30.87 4.38 31.1667 4.44333 31.42 4.57C31.6667 4.70333 31.8733 4.88333 32.04 5.11C32.2067 5.34333 32.3267 5.62 32.4 5.94C32.48 6.26 32.52 6.60667 32.52 6.98C32.52 7.32667 32.5 7.67 32.46 8.01C32.42 8.35667 32.38 8.69667 32.34 9.03C32.2933 9.36333 32.2533 9.68333 32.22 9.99C32.18 10.3033 32.16 10.5933 32.16 10.86C32.16 11.02 32.1733 11.16 32.2 11.28C32.2267 11.3933 32.2667 11.5 32.32 11.6C32.3867 11.7 32.4667 11.7833 32.56 11.85C32.6533 11.9233 32.74 11.99 32.82 12.05C32.9067 12.11 32.98 12.1733 33.04 12.24C33.1 12.3 33.13 12.3633 33.13 12.43C33.13 12.47 33.12 12.5067 33.1 12.54C33.08 12.5667 33.04 12.58 32.98 12.58C32.9 12.58 32.81 12.55 32.71 12.49C32.6167 12.43 32.4967 12.3533 32.35 12.26C32.21 12.1667 32.04 12.0667 31.84 11.96C31.64 11.8533 31.3933 11.7533 31.1 11.66C30.8867 11.5867 30.6733 11.53 30.46 11.49C30.24 11.45 29.9867 11.4233 29.7 11.41C29.54 11.3967 29.46 11.35 29.46 11.27C29.46 11.1833 29.5133 11.14 29.62 11.14C29.6867 11.14 29.7767 11.14 29.89 11.14C30.0033 11.14 30.12 11.1367 30.24 11.13C30.42 11.11 30.57 11.0533 30.69 10.96C30.81 10.86 30.8967 10.6767 30.95 10.41C30.97 10.31 30.99 10.1767 31.01 10.01C31.03 9.85 31.0467 9.67667 31.06 9.49C31.0733 9.31 31.0833 9.12333 31.09 8.93C31.0967 8.73667 31.1 8.55333 31.1 8.38C31.1 8.22667 31.1 8.05 31.1 7.85C31.0933 7.64333 31.0767 7.43333 31.05 7.22C31.03 7 30.9933 6.78333 30.94 6.57C30.8867 6.36333 30.81 6.17667 30.71 6.01C30.61 5.85 30.4833 5.71667 30.33 5.61C30.17 5.51 29.98 5.46 29.76 5.46C29.5667 5.46 29.39 5.50667 29.23 5.6C29.0767 5.7 28.9367 5.83333 28.81 6C28.69 6.17333 28.5867 6.37667 28.5 6.61C28.4133 6.84333 28.3467 7.09667 28.3 7.37C28.2533 7.65667 28.22 7.94667 28.2 8.24C28.1867 8.54 28.18 8.84 28.18 9.14C28.18 9.38667 28.19 9.62667 28.21 9.86C28.2233 10.0867 28.2467 10.2967 28.28 10.49C28.3133 10.6833 28.3533 10.8567 28.4 11.01C28.4467 11.1567 28.4967 11.2733 28.55 11.36C28.6367 11.48 28.73 11.57 28.83 11.63C28.9367 11.69 29.0233 11.73 29.09 11.75C29.1767 11.7833 29.24 11.81 29.28 11.83C29.32 11.85 29.34 11.8767 29.34 11.91C29.34 11.9367 29.32 11.9633 29.28 11.99C29.2333 12.01 29.16 12.02 29.06 12.02C28.9667 12.02 28.8633 12.0133 28.75 12C28.6367 11.98 28.5167 11.9633 28.39 11.95C28.27 11.93 28.1433 11.91 28.01 11.89C27.8767 11.8767 27.7467 11.87 27.62 11.87C27.4933 11.87 27.3633 11.8733 27.23 11.88C27.0967 11.8933 26.97 11.9033 26.85 11.91C26.73 11.9233 26.62 11.9333 26.52 11.94C26.42 11.9467 26.34 11.95 26.28 11.95C26.1 11.95 26.01 11.8933 26.01 11.78C26.01 11.74 26.0267 11.7067 26.06 11.68C26.0867 11.6467 26.14 11.6267 26.22 11.62C26.28 11.6133 26.3367 11.6067 26.39 11.6C26.4367 11.6 26.4867 11.5967 26.54 11.59C26.5933 11.59 26.65 11.5867 26.71 11.58C26.7633 11.58 26.83 11.5733 26.91 11.56C27.0567 11.54 27.1533 11.4867 27.2 11.4C27.2533 11.32 27.28 11.2067 27.28 11.06C27.28 10.8067 27.26 10.5 27.22 10.14C27.1733 9.78 27.1133 9.38333 27.04 8.95C26.9667 8.51667 26.88 8.05667 26.78 7.57C26.68 7.09 26.5733 6.59667 26.46 6.09C26.4 5.83 26.3367 5.63667 26.27 5.51C26.1967 5.37667 26.0933 5.31 25.96 5.31C25.8933 5.31 25.8233 5.32333 25.75 5.35C25.6767 5.37667 25.6067 5.40333 25.54 5.43C25.4667 5.46333 25.3967 5.49333 25.33 5.52C25.27 5.54 25.2133 5.55 25.16 5.55C25.0733 5.55 25.03 5.51333 25.03 5.44C25.03 5.38667 25.0533 5.34667 25.1 5.32C25.1467 5.29333 25.1967 5.27 25.25 5.25C25.3767 5.19667 25.5167 5.13 25.67 5.05C25.8167 4.97667 25.9767 4.87333 26.15 4.74C26.3167 4.60667 26.4667 4.46667 26.6 4.32C26.7333 4.16667 26.8467 4.02667 26.94 3.9C27.0333 3.77333 27.11 3.66667 27.17 3.58C27.23 3.5 27.2767 3.46 27.31 3.46ZM37.2 4.75C37.2333 4.75 37.2633 4.76 37.29 4.78C37.3167 4.8 37.33 4.83333 37.33 4.88C37.33 4.94667 37.3 5.00333 37.24 5.05C37.18 5.09667 37.0933 5.15333 36.98 5.22C36.86 5.28667 36.7033 5.39333 36.51 5.54C36.39 5.62667 36.2967 5.72333 36.23 5.83C36.17 5.93 36.1233 6.04333 36.09 6.17C36.0567 6.29 36.0367 6.42667 36.03 6.58C36.0233 6.72667 36.02 6.88333 36.02 7.05C36.0267 7.39 36.05 7.72667 36.09 8.06C36.13 8.38667 36.1833 8.69333 36.25 8.98C36.31 9.26 36.38 9.51667 36.46 9.75C36.5333 9.97667 36.61 10.17 36.69 10.33C36.85 10.6567 37.0467 10.9167 37.28 11.11C37.52 11.31 37.81 11.41 38.15 11.41C38.3833 11.41 38.5867 11.35 38.76 11.23C38.94 11.1167 39.09 10.97 39.21 10.79C39.3367 10.6033 39.4367 10.3933 39.51 10.16C39.59 9.92667 39.6533 9.68667 39.7 9.44C39.7467 9.2 39.7767 8.96667 39.79 8.74C39.8033 8.51333 39.81 8.31333 39.81 8.14C39.81 7.69333 39.7733 7.35 39.7 7.11C39.6267 6.87667 39.52 6.71333 39.38 6.62C39.32 6.58 39.25 6.54667 39.17 6.52C39.09 6.49333 39.0133 6.47 38.94 6.45C38.86 6.43 38.7867 6.41 38.72 6.39C38.6533 6.37667 38.6 6.36333 38.56 6.35C38.46 6.33 38.39 6.3 38.35 6.26C38.31 6.22667 38.29 6.17667 38.29 6.11C38.29 6.05 38.31 6 38.35 5.96C38.3967 5.92 38.4533 5.9 38.52 5.9C38.6533 5.9 38.83 5.91333 39.05 5.94C39.2767 5.96 39.54 5.97 39.84 5.97C40.0067 5.97 40.1867 5.96 40.38 5.94C40.58 5.92 40.7733 5.89333 40.96 5.86C41.1467 5.83333 41.3167 5.80333 41.47 5.77C41.63 5.73667 41.75 5.70667 41.83 5.68C41.8967 5.65333 41.95 5.63667 41.99 5.63C42.03 5.62333 42.06 5.62 42.08 5.62C42.14 5.62 42.1867 5.63333 42.22 5.66C42.2533 5.68667 42.27 5.72667 42.27 5.78C42.27 5.82667 42.26 5.86667 42.24 5.9C42.22 5.92667 42.19 5.95333 42.15 5.98C42.0433 6.05333 41.94 6.12333 41.84 6.19C41.74 6.25 41.6667 6.33667 41.62 6.45C41.58 6.54333 41.5467 6.66 41.52 6.8C41.5 6.93333 41.48 7.1 41.46 7.3C41.4467 7.5 41.4333 7.73667 41.42 8.01C41.4 8.28333 41.3767 8.61 41.35 8.99C41.3167 9.40333 41.2733 9.84667 41.22 10.32C41.1667 10.7933 41.0967 11.2867 41.01 11.8C40.9167 12.3133 40.8033 12.8433 40.67 13.39C40.5433 13.9367 40.3867 14.49 40.2 15.05C40.0133 15.6167 39.7967 16.1233 39.55 16.57C39.3033 17.0167 39.03 17.4 38.73 17.72C38.4233 18.0333 38.0933 18.2733 37.74 18.44C37.38 18.6067 37.0033 18.69 36.61 18.69C36.3233 18.69 36.0633 18.6467 35.83 18.56C35.6033 18.4733 35.4067 18.35 35.24 18.19C35.0733 18.03 34.9433 17.8433 34.85 17.63C34.7567 17.41 34.71 17.1633 34.71 16.89C34.71 16.6033 34.7533 16.3433 34.84 16.11C34.9267 15.87 35.0433 15.66 35.19 15.48C35.3367 15.3067 35.5133 15.1733 35.72 15.08C35.92 14.98 36.14 14.93 36.38 14.93C36.58 14.93 36.7533 14.9633 36.9 15.03C37.0467 15.09 37.17 15.1733 37.27 15.28C37.37 15.3867 37.4467 15.5067 37.5 15.64C37.5467 15.7733 37.57 15.91 37.57 16.05C37.57 16.1767 37.55 16.2933 37.51 16.4C37.4767 16.5067 37.4233 16.6 37.35 16.68C37.2767 16.76 37.1867 16.8233 37.08 16.87C36.9733 16.9167 36.8533 16.94 36.72 16.94C36.56 16.94 36.4333 16.9133 36.34 16.86C36.24 16.8133 36.1567 16.7533 36.09 16.68C36.03 16.6067 35.98 16.5233 35.94 16.43C35.9 16.3433 35.86 16.2633 35.82 16.19C35.7867 16.1167 35.75 16.0567 35.71 16.01C35.6633 15.9567 35.6067 15.93 35.54 15.93C35.4667 15.93 35.4 15.9567 35.34 16.01C35.28 16.0633 35.23 16.1367 35.19 16.23C35.1433 16.3167 35.11 16.4167 35.09 16.53C35.07 16.6433 35.06 16.7567 35.06 16.87C35.06 17.09 35.0967 17.29 35.17 17.47C35.25 17.65 35.36 17.8033 35.5 17.93C35.64 18.0633 35.8033 18.1633 35.99 18.23C36.1833 18.3033 36.3933 18.34 36.62 18.34C37.0067 18.34 37.3433 18.2533 37.63 18.08C37.9167 17.9067 38.1667 17.6867 38.38 17.42C38.6 17.1533 38.7833 16.8633 38.93 16.55C39.0767 16.23 39.1967 15.9267 39.29 15.64C39.3767 15.3533 39.4433 15.1033 39.49 14.89C39.53 14.67 39.5567 14.5267 39.57 14.46C39.7033 13.6533 39.7867 12.9567 39.82 12.37C39.86 11.7833 39.88 11.3167 39.88 10.97C39.88 10.8567 39.88 10.76 39.88 10.68C39.88 10.5933 39.8767 10.52 39.87 10.46C39.8633 10.3933 39.8567 10.3333 39.85 10.28C39.8233 10.38 39.7867 10.4833 39.74 10.59C39.7 10.6767 39.6567 10.7767 39.61 10.89C39.5567 11.0033 39.5 11.1133 39.44 11.22C39.3533 11.36 39.25 11.4967 39.13 11.63C39.0033 11.77 38.8567 11.8933 38.69 12C38.5233 12.1067 38.34 12.1933 38.14 12.26C37.9333 12.3267 37.7133 12.36 37.48 12.36C37.0733 12.36 36.72 12.2733 36.42 12.1C36.1267 11.9333 35.8733 11.71 35.66 11.43C35.4467 11.1433 35.2667 10.8167 35.12 10.45C34.98 10.0833 34.86 9.70333 34.76 9.31C34.66 8.91 34.5767 8.51333 34.51 8.12C34.4367 7.72 34.3667 7.35 34.3 7.01C34.2733 6.87 34.23 6.77667 34.17 6.73C34.1167 6.68333 34.0533 6.66 33.98 6.66C33.8933 6.66 33.8033 6.67 33.71 6.69C33.6167 6.71 33.5467 6.72 33.5 6.72C33.46 6.72 33.4267 6.70667 33.4 6.68C33.3733 6.66 33.36 6.63 33.36 6.59C33.36 6.51667 33.4067 6.46667 33.5 6.44C33.7 6.38 33.8833 6.32667 34.05 6.28C34.21 6.22667 34.3567 6.17667 34.49 6.13C34.6233 6.07667 34.75 6.02333 34.87 5.97C34.99 5.92333 35.11 5.87 35.23 5.81C35.5167 5.67 35.7633 5.53667 35.97 5.41C36.1833 5.28333 36.3667 5.17333 36.52 5.08C36.6733 4.98 36.8033 4.9 36.91 4.84C37.0167 4.78 37.1133 4.75 37.2 4.75ZM52.28 1.79C52.56 1.79 52.8533 1.82333 53.16 1.89C53.4667 1.95667 53.7467 2.08 54 2.26C54.26 2.44 54.47 2.68667 54.63 3C54.7967 3.32 54.88 3.73 54.88 4.23C54.88 4.69667 54.8267 5.10333 54.72 5.45C54.6133 5.80333 54.47 6.10667 54.29 6.36C54.1167 6.61333 53.9133 6.82 53.68 6.98C53.4467 7.14667 53.21 7.28 52.97 7.38C52.7233 7.47333 52.4767 7.54 52.23 7.58C51.9833 7.62 51.7533 7.64 51.54 7.64C51.24 7.64 50.9833 7.62333 50.77 7.59C50.5567 7.56333 50.3767 7.53 50.23 7.49C50.2367 7.72333 50.24 7.96333 50.24 8.21C50.2467 8.45667 50.25 8.69 50.25 8.91C50.25 9.13667 50.2533 9.33333 50.26 9.5C50.26 9.67333 50.26 9.79667 50.26 9.87C50.2667 10.03 50.2767 10.23 50.29 10.47C50.3033 10.7033 50.3233 10.95 50.35 11.21C50.3833 11.4633 50.4233 11.7133 50.47 11.96C50.5167 12.2 50.5767 12.4033 50.65 12.57C50.7233 12.7433 50.8233 12.89 50.95 13.01C51.07 13.1367 51.2033 13.24 51.35 13.32C51.49 13.4 51.64 13.4667 51.8 13.52C51.9533 13.5667 52.1033 13.6033 52.25 13.63C52.3233 13.6433 52.3967 13.6567 52.47 13.67C52.5433 13.6833 52.61 13.6967 52.67 13.71C52.73 13.73 52.78 13.75 52.82 13.77C52.86 13.7967 52.88 13.83 52.88 13.87C52.88 13.93 52.8567 13.9733 52.81 14C52.7633 14.0333 52.67 14.05 52.53 14.05C52.3833 14.05 52.1967 14.03 51.97 13.99C51.75 13.9433 51.5033 13.8933 51.23 13.84C50.95 13.7867 50.6567 13.74 50.35 13.7C50.0367 13.6533 49.7267 13.63 49.42 13.63C49.08 13.63 48.76 13.65 48.46 13.69C48.1667 13.7233 47.9 13.7633 47.66 13.81C47.4267 13.85 47.23 13.89 47.07 13.93C46.9033 13.9633 46.7867 13.98 46.72 13.98C46.7 13.98 46.6767 13.98 46.65 13.98C46.63 13.98 46.6067 13.9733 46.58 13.96C46.5533 13.9533 46.5333 13.94 46.52 13.92C46.5 13.9 46.49 13.8733 46.49 13.84C46.49 13.7867 46.52 13.7467 46.58 13.72C46.6467 13.6867 46.73 13.6533 46.83 13.62C46.93 13.5867 47.0467 13.55 47.18 13.51C47.3067 13.4633 47.4367 13.4067 47.57 13.34C47.83 13.2 48.0267 13.0167 48.16 12.79C48.2933 12.5567 48.39 12.29 48.45 11.99C48.4833 11.8567 48.5133 11.66 48.54 11.4C48.5667 11.14 48.5967 10.8433 48.63 10.51C48.6567 10.17 48.68 9.81 48.7 9.43C48.7267 9.04333 48.75 8.65667 48.77 8.27C48.79 7.88333 48.8033 7.51333 48.81 7.16C48.8233 6.8 48.83 6.48 48.83 6.2C48.83 5.64 48.8133 5.15 48.78 4.73C48.7467 4.30333 48.68 3.97333 48.58 3.74C48.4933 3.55333 48.3833 3.40333 48.25 3.29C48.11 3.17667 47.9567 3.09 47.79 3.03C47.6233 2.97 47.4467 2.93 47.26 2.91C47.08 2.89 46.9033 2.87667 46.73 2.87C46.5033 2.86333 46.35 2.84667 46.27 2.82C46.1967 2.78667 46.16 2.72667 46.16 2.64C46.16 2.50667 46.2767 2.44 46.51 2.44C46.61 2.44 46.7667 2.44667 46.98 2.46C47.2 2.47333 47.4633 2.48 47.77 2.48C47.9967 2.48 48.24 2.47333 48.5 2.46C48.7667 2.44667 49.04 2.42333 49.32 2.39C49.56 2.36333 49.77 2.32667 49.95 2.28C50.1367 2.24 50.31 2.19667 50.47 2.15C50.6233 2.11 50.77 2.06667 50.91 2.02C51.0433 1.98 51.1833 1.94 51.33 1.9C51.47 1.86667 51.6167 1.84 51.77 1.82C51.9233 1.8 52.0933 1.79 52.28 1.79ZM50.31 3.87C50.2967 4.06333 50.2833 4.28333 50.27 4.53C50.2633 4.77667 50.2567 5.04333 50.25 5.33C50.2433 5.61 50.2367 5.90333 50.23 6.21C50.23 6.51667 50.23 6.82 50.23 7.12C50.3767 7.16667 50.54 7.2 50.72 7.22C50.9067 7.24 51.1267 7.25 51.38 7.25C51.72 7.25 52.01 7.16667 52.25 7C52.49 6.84 52.6833 6.62333 52.83 6.35C52.9767 6.07667 53.0833 5.77 53.15 5.43C53.2167 5.08333 53.25 4.73333 53.25 4.38C53.25 4.08667 53.2233 3.80333 53.17 3.53C53.1233 3.25667 53.04 3.01667 52.92 2.81C52.8 2.60333 52.64 2.43667 52.44 2.31C52.24 2.18333 51.9933 2.12 51.7 2.12C51.4733 2.12 51.2767 2.16333 51.11 2.25C50.95 2.33 50.8133 2.44667 50.7 2.6C50.5933 2.75333 50.51 2.93667 50.45 3.15C50.3833 3.37 50.3367 3.61 50.31 3.87ZM60.2 8.64C60.26 8.74 60.3167 8.88 60.37 9.06C60.4233 9.24 60.45 9.42 60.45 9.6C60.45 9.93333 60.3967 10.23 60.29 10.49C60.1767 10.7567 60.02 10.98 59.82 11.16C59.6133 11.34 59.3633 11.4767 59.07 11.57C58.7833 11.6633 58.46 11.71 58.1 11.71C57.58 11.71 57.1167 11.6233 56.71 11.45C56.3033 11.2767 55.96 11.0333 55.68 10.72C55.4 10.4 55.1867 10.0233 55.04 9.59C54.9 9.15667 54.83 8.68 54.83 8.16C54.83 7.68667 54.88 7.26 54.98 6.88C55.08 6.5 55.2167 6.15667 55.39 5.85C55.5633 5.55 55.7633 5.29 55.99 5.07C56.2167 4.84333 56.4567 4.65667 56.71 4.51C56.9633 4.37 57.2233 4.26333 57.49 4.19C57.7567 4.11667 58.0133 4.08 58.26 4.08C58.5 4.08 58.75 4.11333 59.01 4.18C59.27 4.24667 59.5067 4.35667 59.72 4.51C59.94 4.66333 60.12 4.86667 60.26 5.12C60.3933 5.37333 60.46 5.69 60.46 6.07C60.46 6.40333 60.4133 6.69667 60.32 6.95C60.22 7.19667 60.09 7.41333 59.93 7.6C59.77 7.78 59.59 7.93 59.39 8.05C59.1833 8.17 58.9767 8.26333 58.77 8.33C58.5567 8.40333 58.3467 8.45333 58.14 8.48C57.94 8.50667 57.7633 8.52 57.61 8.52C57.3833 8.52 57.1633 8.50333 56.95 8.47C56.7433 8.44333 56.58 8.41 56.46 8.37C56.48 8.72333 56.5367 9.06667 56.63 9.4C56.7233 9.72667 56.8567 10.0167 57.03 10.27C57.2033 10.5233 57.4167 10.7233 57.67 10.87C57.93 11.0233 58.2333 11.1 58.58 11.1C58.82 11.1 59.0267 11.0567 59.2 10.97C59.38 10.89 59.5267 10.78 59.64 10.64C59.7533 10.5 59.8367 10.34 59.89 10.16C59.9433 9.98 59.97 9.79 59.97 9.59C59.97 9.47 59.9633 9.34667 59.95 9.22C59.93 9.09333 59.9 8.97333 59.86 8.86C59.8333 8.78667 59.81 8.72 59.79 8.66C59.7767 8.60667 59.77 8.56 59.77 8.52C59.77 8.42667 59.81 8.38 59.89 8.38C59.93 8.38 59.98 8.40333 60.04 8.45C60.0933 8.49 60.1467 8.55333 60.2 8.64ZM56.43 7.92C56.55 7.95333 56.6833 7.98333 56.83 8.01C56.9833 8.03667 57.1733 8.05 57.4 8.05C57.6667 8.05 57.91 8 58.13 7.9C58.3567 7.8 58.55 7.66 58.71 7.48C58.87 7.3 58.9933 7.08333 59.08 6.83C59.1733 6.57 59.22 6.28333 59.22 5.97C59.22 5.69 59.19 5.45667 59.13 5.27C59.07 5.08333 58.99 4.93333 58.89 4.82C58.79 4.7 58.6733 4.61667 58.54 4.57C58.4133 4.52333 58.28 4.5 58.14 4.5C57.9667 4.5 57.78 4.55333 57.58 4.66C57.38 4.76667 57.1933 4.95 57.02 5.21C56.8533 5.46333 56.7133 5.81 56.6 6.25C56.4867 6.69 56.43 7.24667 56.43 7.92ZM63.03 3.46C63.0633 3.46 63.1 3.51667 63.14 3.63C63.1733 3.74333 63.21 3.89333 63.25 4.08C63.2833 4.26667 63.32 4.48333 63.36 4.73C63.3933 4.97667 63.43 5.22333 63.47 5.47L63.71 7.19C63.7367 7.04333 63.7767 6.87333 63.83 6.68C63.89 6.48 63.9667 6.27667 64.06 6.07C64.1533 5.85667 64.27 5.65 64.41 5.45C64.5433 5.25 64.7 5.07 64.88 4.91C65.06 4.75 65.2633 4.62333 65.49 4.53C65.7167 4.43 65.97 4.38 66.25 4.38C66.59 4.38 66.8867 4.44333 67.14 4.57C67.3867 4.70333 67.5933 4.88333 67.76 5.11C67.92 5.34333 68.04 5.62 68.12 5.94C68.2 6.26 68.24 6.60667 68.24 6.98C68.24 7.32667 68.22 7.67 68.18 8.01C68.14 8.35667 68.1 8.69667 68.06 9.03C68.0133 9.36333 67.97 9.68333 67.93 9.99C67.8967 10.3033 67.88 10.5933 67.88 10.86C67.88 11.02 67.8933 11.16 67.92 11.28C67.9467 11.3933 67.9867 11.5 68.04 11.6C68.1 11.7 68.1767 11.7833 68.27 11.85C68.37 11.9233 68.46 11.99 68.54 12.05C68.6267 12.11 68.7 12.1733 68.76 12.24C68.82 12.3 68.85 12.3633 68.85 12.43C68.85 12.47 68.84 12.5067 68.82 12.54C68.7933 12.5667 68.7533 12.58 68.7 12.58C68.62 12.58 68.53 12.55 68.43 12.49C68.3367 12.43 68.2167 12.3533 68.07 12.26C67.9233 12.1667 67.75 12.0667 67.55 11.96C67.35 11.8533 67.1067 11.7533 66.82 11.66C66.6067 11.5867 66.3933 11.53 66.18 11.49C65.96 11.45 65.7067 11.4233 65.42 11.41C65.26 11.3967 65.18 11.35 65.18 11.27C65.18 11.1833 65.2333 11.14 65.34 11.14C65.4 11.14 65.49 11.14 65.61 11.14C65.7233 11.14 65.8367 11.1367 65.95 11.13C66.1367 11.11 66.29 11.0533 66.41 10.96C66.5233 10.86 66.61 10.6767 66.67 10.41C66.69 10.31 66.71 10.1767 66.73 10.01C66.7433 9.85 66.7567 9.67667 66.77 9.49C66.7833 9.31 66.7967 9.12333 66.81 8.93C66.8167 8.73667 66.82 8.55333 66.82 8.38C66.82 8.22667 66.82 8.05 66.82 7.85C66.8133 7.64333 66.7967 7.43333 66.77 7.22C66.7433 7 66.7033 6.78333 66.65 6.57C66.6033 6.36333 66.53 6.17667 66.43 6.01C66.33 5.85 66.2 5.71667 66.04 5.61C65.8867 5.51 65.7 5.46 65.48 5.46C65.2867 5.46 65.11 5.50667 64.95 5.6C64.7967 5.7 64.6567 5.83333 64.53 6C64.41 6.17333 64.3067 6.37667 64.22 6.61C64.1333 6.84333 64.0667 7.09667 64.02 7.37C63.9667 7.65667 63.9333 7.94667 63.92 8.24C63.9067 8.54 63.9 8.84 63.9 9.14C63.9 9.38667 63.9067 9.62667 63.92 9.86C63.94 10.0867 63.9667 10.2967 64 10.49C64.0333 10.6833 64.0733 10.8567 64.12 11.01C64.16 11.1567 64.21 11.2733 64.27 11.36C64.3567 11.48 64.45 11.57 64.55 11.63C64.65 11.69 64.7367 11.73 64.81 11.75C64.8967 11.7833 64.96 11.81 65 11.83C65.04 11.85 65.06 11.8767 65.06 11.91C65.06 11.9367 65.0367 11.9633 64.99 11.99C64.95 12.01 64.88 12.02 64.78 12.02C64.68 12.02 64.5733 12.0133 64.46 12C64.3467 11.98 64.23 11.9633 64.11 11.95C63.9833 11.93 63.8567 11.91 63.73 11.89C63.5967 11.8767 63.4667 11.87 63.34 11.87C63.2067 11.87 63.0767 11.8733 62.95 11.88C62.8167 11.8933 62.69 11.9033 62.57 11.91C62.45 11.9233 62.34 11.9333 62.24 11.94C62.1333 11.9467 62.0533 11.95 62 11.95C61.82 11.95 61.73 11.8933 61.73 11.78C61.73 11.74 61.7433 11.7067 61.77 11.68C61.8033 11.6467 61.8567 11.6267 61.93 11.62C61.9967 11.6133 62.0567 11.6067 62.11 11.6C62.1567 11.6 62.2067 11.5967 62.26 11.59C62.3133 11.59 62.3667 11.5867 62.42 11.58C62.48 11.58 62.55 11.5733 62.63 11.56C62.77 11.54 62.8667 11.4867 62.92 11.4C62.9733 11.32 63 11.2067 63 11.06C63 10.8067 62.98 10.5 62.94 10.14C62.8933 9.78 62.8333 9.38333 62.76 8.95C62.6867 8.51667 62.6 8.05667 62.5 7.57C62.3933 7.09 62.2833 6.59667 62.17 6.09C62.1167 5.83 62.0567 5.63667 61.99 5.51C61.9167 5.37667 61.8133 5.31 61.68 5.31C61.6133 5.31 61.5433 5.32333 61.47 5.35C61.3967 5.37667 61.3233 5.40333 61.25 5.43C61.1833 5.46333 61.1167 5.49333 61.05 5.52C60.99 5.54 60.9333 5.55 60.88 5.55C60.7933 5.55 60.75 5.51333 60.75 5.44C60.75 5.38667 60.7733 5.34667 60.82 5.32C60.8667 5.29333 60.9167 5.27 60.97 5.25C61.0967 5.19667 61.2333 5.13 61.38 5.05C61.5333 4.97667 61.6967 4.87333 61.87 4.74C62.0367 4.60667 62.1867 4.46667 62.32 4.32C62.4533 4.16667 62.5667 4.02667 62.66 3.9C62.7533 3.77333 62.83 3.66667 62.89 3.58C62.95 3.5 62.9967 3.46 63.03 3.46ZM71.01 3.46C71.0433 3.46 71.08 3.51667 71.12 3.63C71.1533 3.74333 71.1867 3.89333 71.22 4.08C71.26 4.26667 71.2967 4.48333 71.33 4.73C71.37 4.97667 71.4067 5.22333 71.44 5.47L71.69 7.19C71.71 7.04333 71.75 6.87333 71.81 6.68C71.8633 6.48 71.94 6.27667 72.04 6.07C72.1333 5.85667 72.25 5.65 72.39 5.45C72.5233 5.25 72.68 5.07 72.86 4.91C73.04 4.75 73.2433 4.62333 73.47 4.53C73.6967 4.43 73.95 4.38 74.23 4.38C74.57 4.38 74.8633 4.44333 75.11 4.57C75.3633 4.70333 75.5733 4.88333 75.74 5.11C75.9 5.34333 76.02 5.62 76.1 5.94C76.1733 6.26 76.21 6.60667 76.21 6.98C76.21 7.32667 76.1933 7.67 76.16 8.01C76.12 8.35667 76.0767 8.69667 76.03 9.03C75.99 9.36333 75.95 9.68333 75.91 9.99C75.87 10.3033 75.85 10.5933 75.85 10.86C75.85 11.02 75.8633 11.16 75.89 11.28C75.9167 11.3933 75.96 11.5 76.02 11.6C76.08 11.7 76.1567 11.7833 76.25 11.85C76.3433 11.9233 76.4333 11.99 76.52 12.05C76.6067 12.11 76.68 12.1733 76.74 12.24C76.8 12.3 76.83 12.3633 76.83 12.43C76.83 12.47 76.82 12.5067 76.8 12.54C76.7733 12.5667 76.7333 12.58 76.68 12.58C76.6 12.58 76.51 12.55 76.41 12.49C76.31 12.43 76.19 12.3533 76.05 12.26C75.9033 12.1667 75.73 12.0667 75.53 11.96C75.33 11.8533 75.0867 11.7533 74.8 11.66C74.5867 11.5867 74.37 11.53 74.15 11.49C73.9367 11.45 73.6867 11.4233 73.4 11.41C73.24 11.3967 73.16 11.35 73.16 11.27C73.16 11.1833 73.2133 11.14 73.32 11.14C73.38 11.14 73.4667 11.14 73.58 11.14C73.6933 11.14 73.81 11.1367 73.93 11.13C74.1167 11.11 74.2667 11.0533 74.38 10.96C74.5 10.86 74.59 10.6767 74.65 10.41C74.67 10.31 74.6867 10.1767 74.7 10.01C74.72 9.85 74.7367 9.67667 74.75 9.49C74.7633 9.31 74.7767 9.12333 74.79 8.93C74.7967 8.73667 74.8 8.55333 74.8 8.38C74.8 8.22667 74.7967 8.05 74.79 7.85C74.79 7.64333 74.7767 7.43333 74.75 7.22C74.7233 7 74.6833 6.78333 74.63 6.57C74.5767 6.36333 74.5 6.17667 74.4 6.01C74.3 5.85 74.1733 5.71667 74.02 5.61C73.8667 5.51 73.6767 5.46 73.45 5.46C73.2633 5.46 73.09 5.50667 72.93 5.6C72.77 5.7 72.63 5.83333 72.51 6C72.39 6.17333 72.2867 6.37667 72.2 6.61C72.1133 6.84333 72.0467 7.09667 72 7.37C71.9467 7.65667 71.9133 7.94667 71.9 8.24C71.88 8.54 71.87 8.84 71.87 9.14C71.87 9.38667 71.88 9.62667 71.9 9.86C71.92 10.0867 71.9467 10.2967 71.98 10.49C72.0067 10.6833 72.0433 10.8567 72.09 11.01C72.1367 11.1567 72.19 11.2733 72.25 11.36C72.3367 11.48 72.43 11.57 72.53 11.63C72.63 11.69 72.7133 11.73 72.78 11.75C72.8733 11.7833 72.94 11.81 72.98 11.83C73.02 11.85 73.04 11.8767 73.04 11.91C73.04 11.9367 73.0167 11.9633 72.97 11.99C72.93 12.01 72.86 12.02 72.76 12.02C72.66 12.02 72.5533 12.0133 72.44 12C72.3267 11.98 72.21 11.9633 72.09 11.95C71.9633 11.93 71.8333 11.91 71.7 11.89C71.5667 11.8767 71.4367 11.87 71.31 11.87C71.1833 11.87 71.0533 11.8733 70.92 11.88C70.7933 11.8933 70.6667 11.9033 70.54 11.91C70.42 11.9233 70.31 11.9333 70.21 11.94C70.11 11.9467 70.03 11.95 69.97 11.95C69.7967 11.95 69.71 11.8933 69.71 11.78C69.71 11.74 69.7233 11.7067 69.75 11.68C69.7833 11.6467 69.8367 11.6267 69.91 11.62C69.9767 11.6133 70.0333 11.6067 70.08 11.6C70.1333 11.6 70.1867 11.5967 70.24 11.59C70.2933 11.59 70.3467 11.5867 70.4 11.58C70.46 11.58 70.5267 11.5733 70.6 11.56C70.7467 11.54 70.8467 11.4867 70.9 11.4C70.9533 11.32 70.98 11.2067 70.98 11.06C70.98 10.8067 70.9567 10.5 70.91 10.14C70.87 9.78 70.8133 9.38333 70.74 8.95C70.6667 8.51667 70.58 8.05667 70.48 7.57C70.3733 7.09 70.2633 6.59667 70.15 6.09C70.0967 5.83 70.0333 5.63667 69.96 5.51C69.8933 5.37667 69.7933 5.31 69.66 5.31C69.5933 5.31 69.5233 5.32333 69.45 5.35C69.3767 5.37667 69.3033 5.40333 69.23 5.43C69.1633 5.46333 69.0967 5.49333 69.03 5.52C68.9633 5.54 68.9033 5.55 68.85 5.55C68.7633 5.55 68.72 5.51333 68.72 5.44C68.72 5.38667 68.7433 5.34667 68.79 5.32C68.8433 5.29333 68.8967 5.27 68.95 5.25C69.0767 5.19667 69.2133 5.13 69.36 5.05C69.5067 4.97667 69.6667 4.87333 69.84 4.74C70.0133 4.60667 70.1633 4.46667 70.29 4.32C70.4233 4.16667 70.54 4.02667 70.64 3.9C70.7333 3.77333 70.81 3.66667 70.87 3.58C70.93 3.5 70.9767 3.46 71.01 3.46ZM80.89 4.75C80.93 4.75 80.9633 4.76 80.99 4.78C81.0167 4.8 81.03 4.83333 81.03 4.88C81.03 4.94667 80.9967 5.00333 80.93 5.05C80.8767 5.09667 80.79 5.15333 80.67 5.22C80.55 5.28667 80.3967 5.39333 80.21 5.54C80.09 5.62667 79.9967 5.72333 79.93 5.83C79.8633 5.93 79.8133 6.04333 79.78 6.17C79.7533 6.29 79.7367 6.42667 79.73 6.58C79.7167 6.72667 79.71 6.88333 79.71 7.05C79.7167 7.39 79.74 7.72667 79.78 8.06C79.82 8.38667 79.8733 8.69333 79.94 8.98C80.0067 9.26 80.0767 9.51667 80.15 9.75C80.23 9.97667 80.3067 10.17 80.38 10.33C80.54 10.6567 80.74 10.9167 80.98 11.11C81.2133 11.31 81.5 11.41 81.84 11.41C82.08 11.41 82.2867 11.35 82.46 11.23C82.6333 11.1167 82.7833 10.97 82.91 10.79C83.03 10.6033 83.13 10.3933 83.21 10.16C83.2833 9.92667 83.3433 9.68667 83.39 9.44C83.4367 9.2 83.4667 8.96667 83.48 8.74C83.5 8.51333 83.51 8.31333 83.51 8.14C83.51 7.69333 83.4733 7.35 83.4 7.11C83.3267 6.87667 83.2167 6.71333 83.07 6.62C83.01 6.58 82.9433 6.54667 82.87 6.52C82.79 6.49333 82.71 6.47 82.63 6.45C82.5567 6.43 82.4867 6.41 82.42 6.39C82.3467 6.37667 82.29 6.36333 82.25 6.35C82.15 6.33 82.08 6.3 82.04 6.26C82 6.22667 81.98 6.17667 81.98 6.11C81.98 6.05 82.0033 6 82.05 5.96C82.09 5.92 82.1467 5.9 82.22 5.9C82.3533 5.9 82.53 5.91333 82.75 5.94C82.97 5.96 83.2333 5.97 83.54 5.97C83.7 5.97 83.88 5.96 84.08 5.94C84.28 5.92 84.4733 5.89333 84.66 5.86C84.8467 5.83333 85.0167 5.80333 85.17 5.77C85.3233 5.73667 85.4433 5.70667 85.53 5.68C85.59 5.65333 85.64 5.63667 85.68 5.63C85.72 5.62333 85.7533 5.62 85.78 5.62C85.8333 5.62 85.88 5.63333 85.92 5.66C85.9533 5.68667 85.97 5.72667 85.97 5.78C85.97 5.82667 85.96 5.86667 85.94 5.9C85.92 5.92667 85.89 5.95333 85.85 5.98C85.7433 6.05333 85.64 6.12333 85.54 6.19C85.44 6.25 85.3633 6.33667 85.31 6.45C85.27 6.54333 85.24 6.66 85.22 6.8C85.1933 6.93333 85.1733 7.1 85.16 7.3C85.1467 7.5 85.13 7.73667 85.11 8.01C85.0967 8.28333 85.0767 8.61 85.05 8.99C85.0167 9.40333 84.9733 9.84667 84.92 10.32C84.86 10.7933 84.7867 11.2867 84.7 11.8C84.6133 12.3133 84.5033 12.8433 84.37 13.39C84.2367 13.9367 84.08 14.49 83.9 15.05C83.7133 15.6167 83.4967 16.1233 83.25 16.57C83.0033 17.0167 82.7267 17.4 82.42 17.72C82.1133 18.0333 81.7833 18.2733 81.43 18.44C81.0767 18.6067 80.7 18.69 80.3 18.69C80.02 18.69 79.7633 18.6467 79.53 18.56C79.2967 18.4733 79.0967 18.35 78.93 18.19C78.7633 18.03 78.6367 17.8433 78.55 17.63C78.4567 17.41 78.41 17.1633 78.41 16.89C78.41 16.6033 78.4533 16.3433 78.54 16.11C78.62 15.87 78.7333 15.66 78.88 15.48C79.0333 15.3067 79.21 15.1733 79.41 15.08C79.61 14.98 79.8333 14.93 80.08 14.93C80.2733 14.93 80.4433 14.9633 80.59 15.03C80.7433 15.09 80.87 15.1733 80.97 15.28C81.07 15.3867 81.1433 15.5067 81.19 15.64C81.2433 15.7733 81.27 15.91 81.27 16.05C81.27 16.1767 81.25 16.2933 81.21 16.4C81.17 16.5067 81.1133 16.6 81.04 16.68C80.9667 16.76 80.8767 16.8233 80.77 16.87C80.6633 16.9167 80.5433 16.94 80.41 16.94C80.2567 16.94 80.13 16.9133 80.03 16.86C79.9367 16.8133 79.8567 16.7533 79.79 16.68C79.7233 16.6067 79.67 16.5233 79.63 16.43C79.59 16.3433 79.5533 16.2633 79.52 16.19C79.48 16.1167 79.44 16.0567 79.4 16.01C79.36 15.9567 79.3067 15.93 79.24 15.93C79.1667 15.93 79.1 15.9567 79.04 16.01C78.98 16.0633 78.9267 16.1367 78.88 16.23C78.84 16.3167 78.81 16.4167 78.79 16.53C78.7633 16.6433 78.75 16.7567 78.75 16.87C78.75 17.09 78.79 17.29 78.87 17.47C78.9433 17.65 79.05 17.8033 79.19 17.93C79.33 18.0633 79.4967 18.1633 79.69 18.23C79.8767 18.3033 80.0867 18.34 80.32 18.34C80.7 18.34 81.0333 18.2533 81.32 18.08C81.6133 17.9067 81.8667 17.6867 82.08 17.42C82.2933 17.1533 82.4733 16.8633 82.62 16.55C82.7733 16.23 82.8933 15.9267 82.98 15.64C83.0733 15.3533 83.14 15.1033 83.18 14.89C83.2267 14.67 83.2567 14.5267 83.27 14.46C83.3967 13.6533 83.48 12.9567 83.52 12.37C83.56 11.7833 83.58 11.3167 83.58 10.97C83.58 10.8567 83.5767 10.76 83.57 10.68C83.57 10.5933 83.5667 10.52 83.56 10.46C83.56 10.3933 83.5567 10.3333 83.55 10.28C83.5167 10.38 83.4767 10.4833 83.43 10.59C83.3967 10.6767 83.3533 10.7767 83.3 10.89C83.2533 11.0033 83.1967 11.1133 83.13 11.22C83.05 11.36 82.9467 11.4967 82.82 11.63C82.6933 11.77 82.5467 11.8933 82.38 12C82.2133 12.1067 82.03 12.1933 81.83 12.26C81.63 12.3267 81.41 12.36 81.17 12.36C80.7633 12.36 80.4133 12.2733 80.12 12.1C79.82 11.9333 79.5633 11.71 79.35 11.43C79.1367 11.1433 78.96 10.8167 78.82 10.45C78.6733 10.0833 78.55 9.70333 78.45 9.31C78.3567 8.91 78.2733 8.51333 78.2 8.12C78.1267 7.72 78.0567 7.35 77.99 7.01C77.9633 6.87 77.9233 6.77667 77.87 6.73C77.8167 6.68333 77.75 6.66 77.67 6.66C77.5833 6.66 77.4933 6.67 77.4 6.69C77.3133 6.71 77.2433 6.72 77.19 6.72C77.15 6.72 77.1167 6.70667 77.09 6.68C77.07 6.66 77.06 6.63 77.06 6.59C77.06 6.51667 77.1033 6.46667 77.19 6.44C77.3967 6.38 77.58 6.32667 77.74 6.28C77.9067 6.22667 78.0567 6.17667 78.19 6.13C78.3233 6.07667 78.45 6.02333 78.57 5.97C78.6833 5.92333 78.8033 5.87 78.93 5.81C79.21 5.67 79.4567 5.53667 79.67 5.41C79.8767 5.28333 80.0567 5.17333 80.21 5.08C80.37 4.98 80.5033 4.9 80.61 4.84C80.7167 4.78 80.81 4.75 80.89 4.75Z" fill="black"/>
</svg>
