<svg width="83.412" height="17.514" viewBox="0 0 83.412 17.514" xmlns="http://www.w3.org/2000/svg"><path transform="translate(0 13.832) scale(.007 -.007)" d="M1401 825V692H381V825ZM55 1367V1504H688V1367H446V137H688V0H55V137H297V1367ZM1109 1367V1504H1741V1367H1500V137H1741V0H1109V137H1351V1367Z"/><path transform="translate(12.572 13.832) scale(.007 -.007)" d="m652-19q-165 0-286 70t-187 193.5-66 284.5q0 163 66.5 288t186 196 278.5 71q160 0 277-70t180-194 63-286q0-19-0.5-30t-2.5-19h-142q1 12 1.5 26.5t0.5 33.5q0 119-45.5 211.5t-129.5 145.5-202 53q-115 0-202-54.5t-135-150-48-221.5q0-122 47.5-215.5t135.5-146.5 209-53q126 0 218.5 59.5t137.5 162.5l136-51q-59-141-188.5-222.5t-302.5-81.5zm-448 504v111h914l42-111z"/><path transform="translate(21.434 13.832) scale(.007 -.007)" d="m75-420v124h213v1237h-213v124h357v-381l-4-114v-63l4-90v-713h209v-124zm759 400q-132 0-236.5 58t-172.5 165.5-90 257.5l93 69q0-123 47-217.5t135-148.5 209-54q119 0 207 54t135.5 149.5 47.5 218.5q0 125-49 220t-137 149.5-204 54.5q-119 0-207-54.5t-136-150.5-48-221l-23 227h34q18 88 70 162.5t137.5 120 203.5 45.5q112 0 205-40.5t160.5-115 105-175.5 37.5-222q0-161-65-286t-182.5-195.5-276.5-70.5z"/><path transform="translate(31.703 13.832) scale(.007 -.007)" d="m382 282q0-84 32-126.5t98-42.5q65 0 98 43.5t33 125.5v99h130v-98q0-96-28.5-163.5t-86.5-103-149-35.5q-93 0-153 36.5t-89 103.5-29 161l1 659h-190v124h190v270h144v-270h376l-1-124h-375z"/><path transform="translate(37.681 13.832) scale(.007 -.007)" d="m962 0q-41 0-62.5 26t-21.5 73v320l13 33-7 121-6 63v81q0 82-33.5 134t-96.5 77-152 25q-133 0-205.5-52.5t-96.5-157.5l-138 29q20 105 75 174.5t146.5 104 223.5 34.5q138 0 231.5-38.5t141.5-117.5 48-204v-601h157v-124zm-502-14q-166 0-252 73.5t-86 216.5q0 132 76 201.5t244 104.5l479 102v-103l-455-103q-98-23-146.5-67.5t-48.5-125.5q0-88 54-131.5t158-43.5q115 0 206 53t143 156 52 254l38-236h-51q-25-167-129.5-259t-281.5-92z"/><path transform="translate(50.666 13.832) scale(.007 -.007)" d="m763-20q-213 0-339 87.5t-155 238.5h-35l28 150q28-163 155-254t324-91q176 0 269 72.5t93 208.5q0 90-42 150.5t-135.5 99-249.5 61.5q-193 28-316.5 84t-183.5 143-60 207q0 183 125.5 285t345.5 102q138 0 234.5-39.5t152.5-113.5 73-176h34l-29-147q-26 162-144.5 253.5t-300.5 91.5q-157 0-248-65.5t-91-183.5q0-77 43-132.5t138-94 250-66.5q200-31 322-87t178.5-144.5 56.5-217.5q0-200-129-311t-364-111zm-651 20v456h150v-456zm940 1048v456h150v-456z"/><path transform="translate(59.976 13.832) scale(.007 -.007)" d="M435 124H654V0H72V124H291V1456H72V1580H435Z"/><path transform="translate(64.946 13.832) scale(.007 -.007)" d="m962 0q-41 0-62.5 26t-21.5 73v320l13 33-7 121-6 63v81q0 82-33.5 134t-96.5 77-152 25q-133 0-205.5-52.5t-96.5-157.5l-138 29q20 105 75 174.5t146.5 104 223.5 34.5q138 0 231.5-38.5t141.5-117.5 48-204v-601h157v-124zm-502-14q-166 0-252 73.5t-86 216.5q0 132 76 201.5t244 104.5l479 102v-103l-455-103q-98-23-146.5-67.5t-48.5-125.5q0-88 54-131.5t158-43.5q115 0 206 53t143 156 52 254l38-236h-51q-25-167-129.5-259t-281.5-92z"/><path transform="translate(73.675 13.832) scale(.007 -.007)" d="m213-22v1478h-214v124h358v-888l-6-125v-133l6-194-131-262zm539 2q-134 0-239.5 50.5t-174 144-91.5 222.5l104 135q0-123 47-218t135-149.5 209-54.5q123 0 210.5 53t134 148.5 46.5 222.5q0 124-49.5 219t-137.5 149-204 54q-119 0-207-54t-136-149-48-221l-23 225h34q19 88 70.5 162.5t137 120 204.5 45.5q111 0 204-40.5t161-115 105-176 37-222.5q0-161-65.5-285.5t-184.5-195-279-70.5z"/></svg>