<svg width="47.04" height="15.68" viewBox="0 0 47.04 15.68" xmlns="http://www.w3.org/2000/svg"><path transform="translate(0 13.16) scale(.014 -.014)" d="m139 23q-19 0-32 13.5t-13 31.5v603q0 18 13 32t32 14q18 0 32-14t14-32v-259h368v259q0 18 13 32t32 14q18 0 32-14t14-32v-603q0-19-14-32t-32-13q-19 0-32 13.5t-13 31.5v259h-368v-259q0-19-14-32t-32-13z"/><path transform="translate(10.318 13.16) scale(.014 -.014)" d="m247 18q-52 0-94 26-38 26-60 69.5t-22 97.5v277q0 19 14 32t32 13q19 0 32-13.5t13-31.5v-268q0-118 107-118 49 0 87 25t72 68v293q0 19 13.5 32t32.5 13q18 0 31.5-13.5t13.5-31.5v-419q0-18-13-32t-32-14-32.5 14-13.5 32v37q-37-40-80-64t-101-24z"/><path transform="translate(18.648 13.16) scale(.014 -.014)" d="m121 23q-18 0-31.5 13.5t-13.5 31.5v419q0 18 13 32t32 14 32.5-14 13.5-32v-37q38 41 80.5 64.5t100.5 23.5q54 0 94-26 39-25 60-69t21-98v-277q0-19-13.5-32t-31.5-13q-19 0-32 13.5t-13 31.5v268q0 118-107 118-49 0-86.5-25t-72.5-68v-293q0-19-13.5-32t-32.5-13z"/><path transform="translate(26.978 13.16) scale(.014 -.014)" d="m119 628q-20 0-35.5 15t-15.5 35v4q0 21 15.5 36t35.5 15h6q20 0 35.5-15t15.5-36v-4q0-20-15.5-35t-35.5-15zm2-605q-18 0-31.5 13.5t-13.5 31.5v419q0 18 13 32t32 14q20 0 33-13t13-33v-419q0-19-13.5-32t-32.5-13z"/><path transform="translate(30.38 13.16) scale(.014 -.014)" d="m121 23q-18 0-31.5 13.5t-13.5 31.5v419q0 18 13 32t32 14 32.5-14 13.5-32v-37q38 41 80.5 64.5t100.5 23.5q54 0 94-26 39-25 60-69t21-98v-277q0-19-13.5-32t-31.5-13q-19 0-32 13.5t-13 31.5v268q0 118-107 118-49 0-86.5-25t-72.5-68v-293q0-19-13.5-32t-32.5-13z"/><path transform="translate(38.71 13.16) scale(.014 -.014)" d="m121 23q-18 0-31.5 13.5t-13.5 31.5v419q0 18 13 32t32 14 32.5-14 13.5-32v-37q38 41 80.5 64.5t100.5 23.5q54 0 94-26 39-25 60-69t21-98v-277q0-19-13.5-32t-31.5-13q-19 0-32 13.5t-13 31.5v268q0 118-107 118-49 0-86.5-25t-72.5-68v-293q0-19-13.5-32t-32.5-13z"/></svg>