<svg width="90.174" height="18.2" viewBox="0 0 90.174 18.2" xmlns="http://www.w3.org/2000/svg"><path transform="translate(0 14.35) scale(.014 -.014)" d="M340 0H60V70H158V628H60V698H340V628H242V70H340Z"/><path transform="translate(5.6 14.35) scale(.014 -.014)" d="m93 0v698h287q86 0 136-49t50-131q0-52-18.5-83t-45-46-49.5-19v-6q19-1 42.5-10.5t45-28.5 35.5-49 14-74q0-57-23.5-103t-64-72.5-92.5-26.5zm84 324v-250h207q36 0 62 12.5t40 36.5 14 59v34q0 35-14 59t-40 36.5-62 12.5zm0 300v-228h193q33 0 56.5 11.5t36.5 33 13 52.5v34q0 31-13 52.5t-36.5 33-56.5 11.5z"/><path transform="translate(14.742 14.35) scale(.014 -.014)" d="m93 0v698h112l132-247 68-129h5l69 129 132 247h108v-698h-82v588h-5l-59-117-167-304-167 304-59 117h-5v-588z"/><path transform="translate(29.414 14.35) scale(.014 -.014)" d="m177 0h-84v698h278q63 0 106.5-24.5t66-69 22.5-106.5q0-61-22.5-106t-66-69.5-106.5-24.5h-194zm0 624v-252h194q33 0 56.5 11.5t36 34 12.5 54.5v52q0 32-12.5 54.5t-36 34-56.5 11.5z"/><path transform="translate(37.898 14.35) scale(.014 -.014)" d="m241 0h-71q-41 0-63 23.5t-22 59.5v657h80v-670h76z"/><path transform="translate(41.706 14.35) scale(.014 -.014)" d="m279-12q-70 0-122 33.5t-81 94-29 142.5 29 142.5 81 94 122 33.5q69 0 119-32.5t77-89.5 27-130v-38h-371v-24q0-67 40.5-111.5t112.5-44.5q49 0 85.5 23t56.5 66l57-41q-25-52-78-85t-126-33zm0 473q-43 0-76.5-20t-52.5-55.5-19-80.5v-7h285v11q0 46-17 80t-48 53-72 19z"/><path transform="translate(49.392 14.35) scale(.014 -.014)" d="M21 0 212 260 29 516H123L254 324H257L393 516H482L300 266L486 0H392L258 202H255L110 0Z"/><path transform="translate(59.794 14.35) scale(.014 -.014)" d="m289-12q-84 0-144.5 32.5t-102.5 89.5l62 52q37-49 82-74.5t106-25.5q75 0 114.5 36t39.5 96q0 33-13 56t-41.5 38.5-74.5 25.5l-57 13q-63 15-107 39t-67 62-23 91q0 62 29 104.5t81.5 64.5 120.5 22q79 0 135.5-29t95.5-85l-63-46q-28 40-69.5 63t-102.5 23q-67 0-105.5-29t-38.5-85q0-33 14.5-55t43.5-36.5 73-24.5l57-13q68-15 111-41t63.5-64 20.5-90q0-64-29-111t-82.5-73-128.5-26z"/><path transform="translate(67.928 14.35) scale(.014 -.014)" d="m505 0h-45q-32 0-52 13.5t-29 37.5-9 55v7l31-29h-35q-16-47-55.5-71.5t-93.5-24.5q-82 0-127.5 42t-45.5 114q0 49 24 82.5t72.5 51 123.5 17.5h102v51q0 55-30 84t-92 29q-46 0-78-21t-53-56l-48 45q21 41 67 71t116 30q93 0 145.5-46t52.5-128v-284h59zm-139 235h-106q-68 0-100-20t-32-58v-21q0-38 28-59t74-21q40 0 70.5 12.5t48 34 17.5 47.5z"/><path transform="translate(75.404 14.35) scale(.014 -.014)" d="m165 0h-80v516h80v-84h4q19 44 53.5 70t92.5 26q80 0 126.5-51.5t46.5-145.5v-331h-80v317q0 69-29.5 104t-87.5 35q-32 0-61-10.5t-47-32.5-18-55z"/><path transform="translate(83.356 14.35) scale(.014 -.014)" d="m240-12q-71 0-120 27.5t-84 73.5l57 46q30-37 67-58t86-21q51 0 79.5 22t28.5 62q0 30-19.5 52t-70.5 29l-41 6q-47 7-85 23.5t-59.5 47-21.5 78.5q0 77 52.5 114.5t131.5 37.5q42 0 74.5-10t58.5-28.5 47-44.5l-53-48q-17 24-50 43.5t-83 19.5q-49 0-75-21.5t-26-58.5 25.5-54.5 73.5-25.5l40-6q86-13 122-49.5t36-95.5q0-50-23-86t-66-55.5-102-19.5z"/></svg>