<svg width="26" height="11" viewBox="0 0 26 11" fill="none" xmlns="http://www.w3.org/2000/svg">
<path d="M2.89 10.5H0.5V10.02H1.17V1.17H0.5V0.7H2.89V1.17H2.22V10.02H2.89V10.5ZM5.86 10.5H3.58V10.02H4.26V3.64H3.58V3.17H5.29V3.96C5.29667 3.88 5.34667 3.77 5.44 3.63C5.52667 3.49667 5.65667 3.37667 5.83 3.27C6.00333 3.16333 6.22 3.11 6.48 3.11C6.74667 3.11 6.95667 3.17667 7.11 3.31C7.27 3.44333 7.38667 3.58667 7.46 3.74C7.53333 3.9 7.57667 4.01333 7.59 4.08C7.61667 3.94667 7.69 3.80667 7.81 3.66C7.93 3.50667 8.08667 3.37667 8.28 3.27C8.47333 3.16333 8.69333 3.11 8.94 3.11C9.35333 3.11 9.66 3.28333 9.86 3.63C10.0667 3.97 10.17 4.39333 10.17 4.9V10.02H10.83V10.5H8.55V10.02H9.12V5.66C9.12 5.26667 9.11 4.93333 9.09 4.66C9.07 4.38 9.02 4.16667 8.94 4.02C8.86 3.88 8.73 3.81 8.55 3.81C8.36333 3.81 8.20667 3.88667 8.08 4.04C7.96 4.18667 7.87 4.38333 7.81 4.63C7.75667 4.87667 7.72667 5.13667 7.72 5.41V10.02H8.29V10.5H6.12V10.02H6.68V5.66C6.68 5.07333 6.65 4.61667 6.59 4.29C6.53667 3.97 6.37 3.81 6.09 3.81C5.91 3.81 5.76333 3.88667 5.65 4.04C5.53 4.19333 5.44667 4.39667 5.4 4.65C5.34667 4.90333 5.31667 5.17667 5.31 5.47V10.02H5.86V10.5ZM13.74 10.64C13.5133 10.64 13.3333 10.58 13.2 10.46C13.0667 10.34 12.9667 10.2 12.9 10.04C12.8267 9.88667 12.7833 9.75 12.77 9.63L12.7 10.5H11.03V10.02H11.77V0.47H11.03V0H12.84V3.94C12.8533 3.86667 12.8967 3.76333 12.97 3.63C13.0367 3.49667 13.14 3.37667 13.28 3.27C13.42 3.16333 13.6033 3.11 13.83 3.11C14.1367 3.11 14.41 3.23667 14.65 3.49C14.89 3.73667 15.0833 4.13667 15.23 4.69C15.37 5.24333 15.44 5.97 15.44 6.87C15.44 7.79667 15.3633 8.53667 15.21 9.09C15.0633 9.63667 14.86 10.0333 14.6 10.28C14.3467 10.52 14.06 10.64 13.74 10.64ZM13.56 9.95C13.7 9.95 13.8233 9.88333 13.93 9.75C14.03 9.62333 14.1133 9.43333 14.18 9.18C14.2467 8.92667 14.2967 8.61 14.33 8.23C14.3633 7.85 14.38 7.40667 14.38 6.9C14.38 6.44 14.3633 6.02333 14.33 5.65C14.3033 5.27667 14.26 4.95667 14.2 4.69C14.1333 4.43 14.0533 4.22667 13.96 4.08C13.86 3.94 13.7367 3.87 13.59 3.87C13.45 3.87 13.3267 3.94 13.22 4.08C13.1133 4.22 13.0267 4.39667 12.96 4.61C12.8933 4.81667 12.8533 5.02667 12.84 5.24V8.04C12.8533 8.33333 12.89 8.62667 12.95 8.92C13.01 9.21333 13.0933 9.45667 13.2 9.65C13.3067 9.85 13.4267 9.95 13.56 9.95ZM18.13 10.65C17.8833 10.65 17.6533 10.5967 17.44 10.49C17.22 10.3833 17.0433 10.18 16.91 9.88C16.7767 9.58667 16.71 9.15333 16.71 8.58V3.64H15.99V3.18H17.76V8.47C17.76 8.89667 17.79 9.22 17.85 9.44C17.9033 9.66667 17.98 9.82 18.08 9.9C18.18 9.98 18.2933 10.02 18.42 10.02C18.5933 10.02 18.7433 9.93 18.87 9.75C18.9967 9.57 19.0933 9.33 19.16 9.03C19.2267 8.73667 19.26 8.41333 19.26 8.06V3.64H18.58V3.18H20.31V10.02H20.95V10.5H19.39L19.33 9.67C19.31 9.79667 19.2533 9.93667 19.16 10.09C19.06 10.2433 18.9233 10.3767 18.75 10.49C18.5833 10.5967 18.3767 10.65 18.13 10.65ZM23.3 10.65C22.9667 10.65 22.6767 10.55 22.43 10.35C22.1833 10.1433 21.9833 9.86667 21.83 9.52C21.6767 9.16667 21.5633 8.75667 21.49 8.29C21.4167 7.83 21.38 7.34 21.38 6.82C21.38 6.19333 21.43 5.64667 21.53 5.18C21.6367 4.71333 21.78 4.32667 21.96 4.02C22.14 3.71333 22.3433 3.48333 22.57 3.33C22.8033 3.17667 23.0433 3.1 23.29 3.1C23.59 3.1 23.8467 3.18667 24.06 3.36C24.28 3.54 24.46 3.77667 24.6 4.07C24.74 4.37 24.8433 4.71 24.91 5.09C24.9833 5.46333 25.02 5.85 25.02 6.25C25.02 6.35 25.0167 6.44667 25.01 6.54C25.01 6.64 25.0067 6.73333 25 6.82H22.35V6.36H23.99C23.99 5.76667 23.9667 5.26333 23.92 4.85C23.88 4.43667 23.81 4.12333 23.71 3.91C23.61 3.69 23.47 3.58 23.29 3.58C23.1233 3.58 22.9767 3.69 22.85 3.91C22.7233 4.12333 22.6233 4.45333 22.55 4.9C22.4833 5.34667 22.45 5.91667 22.45 6.61C22.45 7.11667 22.4633 7.58667 22.49 8.02C22.5167 8.44667 22.5667 8.81667 22.64 9.13C22.7067 9.45 22.8033 9.69667 22.93 9.87C23.0567 10.05 23.2167 10.14 23.41 10.14C23.6967 10.14 23.92 10.0533 24.08 9.88C24.24 9.71333 24.35 9.55 24.41 9.39L24.83 9.63C24.7367 9.89 24.5533 10.1267 24.28 10.34C24 10.5467 23.6733 10.65 23.3 10.65Z" fill="black"/>
</svg>
