<svg width="123.64" height="17.117" viewBox="0 0 123.64 17.117" xmlns="http://www.w3.org/2000/svg"><path transform="translate(0 13.275) scale(.0068359 -.0068359)" d="m399 0q-8 0-22.5 0t-29.5-0.5-27.5-1-15.5-1.5q-7-1-14-2-6-1-12-2t-10-2q-2 0-6.5-1t-9.5-2.5-9-2.5-5-1h-60q-12 0-21.5-1.5t-18.5-1.5q-25 0-46.5 7.5t-38.5 32.5q7 18 19.5 24t29.5 14q1 1 7.5 4.5t14 7.5 14 7 7.5 3h22q3 0 9.5 3.5t8.5 3.5q4 2 15.5 4.5t25 5.5 25.5 5 17 3q25 18 32 39t15 52v182q0 3 1 8.5t2.5 12 2.5 12 2 8.5v270q2 64 3.5 104.5t3 65 2 37.5 0.5 22q0 20-1 40.5t-1 24.5q3 48 9.5 89.5t6.5 89.5q0 21-0.5 38.5t-2.5 33-6.5 31.5-13.5 35q-3 4-11.5 8.5t-18 9-18 8-12.5 3.5q-3 1-12 2.5t-19.5 2.5-20 2-11.5 2q-1 0-10.5 2.5t-11.5 4.5h-36q-15 0-20 1t-17 6q-14 5-25 14.5t-11 18.5v12q11 21 27 26t33 5q8 0 14-1t12-1q7 0 16 4t14 7h21q5-2 22-4t36.5-4.5 36.5-4 22-1.5q11-2 40.5-4.5t62-5 61.5-4.5 40-2q48 12 93.5 14t90.5 2h86q11-8 13.5-20.5t2.5-22.5q0-16-7.5-24t-19-11.5-24.5-4.5-25-2q-7 0-24.5-3t-24.5-6q-1 0-5-2t-9-4.5-9.5-5-5.5-3.5q-1 0-5.5-1t-9.5-2-10-3-6-3q-2 0-5.5-1t-7.5-2l-10-2q-3-3-8-7.5t-9.5-9.5-8.5-9-5-5q0-2-1-8t-2.5-13.5-2.5-14-1-9.5q-1-12-1.5-42t-1-63-0.5-62 0-41l-2-24v-152q-2-74-3.5-116.5t-3-65.5-2.5-32.5-1-15.5q-3-25-4-50t-3-51q-1-1-2-6.5t-2-12-2-12-1-7.5q0-5 1-22.5t2.5-38 2.5-38.5 1-22q0-5-1-21t-2.5-34-2.5-34-1-20v-45q0-15 0.5-32t5-32.5 13.5-27.5 26-17q3-1 12.5-2t21-1.5 22-1.5 13.5-2q5 0 18-4t27.5-8.5 27.5-9 19-7.5 7-8.5 1-10.5q0-14-7-24.5t-17-18-22.5-13.5-22.5-10h-9q-7 1-36.5 5.5t-63.5 10-63 10-36 4.5q0 1-9.5 1.5t-22 1-25 0.5-19.5 0z"/><path transform="translate(6.002 13.275) scale(.0068359 -.0068359)" d="m1354 40q0 24 13 37.5t33.5 19 46 6.5 51 1 48 1.5 36.5 8.5q0 6 1.5 22.5t3.5 34.5 3.5 34.5 2.5 22.5q0 1 1 5.5t2.5 9.5 2.5 10 1 6v7q0 3-3.5 17.5t-3.5 48.5v80q5 9 7 19.5t2 21.5q0 28-4.5 54t-4.5 54v12q1 3 3 6 4 6 4 7 1 1 2 10t1.5 20 1.5 22 2 18v3q0 14-2.5 33.5t-11.5 32.5v175q2 1 4.5 6t2.5 9q0 3-3.5 12t-3.5 11v31q0 3 3 8l4 6q0 1-1 2t-3 5q-2 3-3 6v70q-1 3-3 11.5t-5 18.5-5 18.5-3 11.5q0 3-3.5 6t-4.5 5h-7q-3-3-8-8t-9.5-10-8.5-9-5-5q0 0-1-4.5t-2.5-9.5-2.5-9.5-1-5.5q-16-47-39-91.5t-48-84.5q-18-35-36-73t-38-73q-23-42-47.5-82.5t-42.5-85.5q-2-1-5.5-11t-3.5-13q-1-1-4.5-7.5t-7.5-14-7.5-14-4.5-7.5q-5-16-9-35t-14-36q-9-16-25.5-39t-27.5-44q0-2-2.5-11.5t-2.5-10.5q-2-3-8.5-12t-14.5-20-15.5-22-12.5-17l-5-6q0-2-1-7.5t-2-12-2.5-12-2.5-6.5q0-1-6-9.5t-8-12.5q-16-23-19.5-45t-11.5-47q0-2-3-8t-3-7q-2-2-5.5-12.5t-7.5-22.5-7.5-22-4.5-13q-2-9-9-12t-16-3q-7 0-16 9.5t-18 22-15.5 24.5-9.5 18q-10 34-17 68t-19 64q-3 3-8.5 14.5t-11.5 24.5-11.5 24.5-6.5 14.5q-2 2-5.5 11.5t-7.5 21-7.5 21.5-5.5 13q-4 12-8 19.5t-8.5 14.5-9 15-8.5 20q-12 18-18 38t-14 37q0 0-3 4t-7 9.5-7.5 10.5-6.5 8l-7 7q-1 2-4.5 12.5t-7.5 22.5-7 22.5-3 12.5q-8 15-20.5 30.5t-19.5 29.5q0 3-3.5 15t-3.5 15q-2 2-8 10.5t-6 13.5q-12 14-20 32t-15 37-13.5 38.5-15.5 37.5q0 2-3.5 7.5t-3.5 8.5q-15 29-25.5 63.5t-27.5 65.5l-7 6q-13 18-21.5 35t-16 34.5-14.5 35-17 35.5h-9q-2 0-7-4.5t-7-6.5q-16-23-29-56.5t-18-62.5v-156q0-1-1-7.5t-2.5-14-2.5-14-1-7.5v-7q0-3 1-14.5t2.5-24.5 2.5-24.5 1-14.5q0-11 2-34t2-50q0-28-2-51t-2-33q3-2 5.5-10.5t5.5-13.5v-5q0-18-9-33.5t-9-35.5q0-4 1-16t2.5-24.5 2.5-23 1-12.5q0-7 2-18t2-19q0-29-2.5-54t-2.5-55q0-34 2-66t10-62q1-9 7-15.5t13.5-11 15.5-7.5 14-5q3 0 15.5-1t27-2.5 27-3.5 15.5-4q12-1 26.5-3t27-7 21.5-15 9-27q0-10-8.5-16.5t-20-11-23-6.5-17.5-2h-342q-16-5-24-7t-21-2q-17 0-36 2t-34 7q-6 2-14 7t-8 7q-12 13-12 26 0 6 2.5 13.5t9.5 13.5q0 6 24 9.5t54.5 9.5 58.5 16 36 28q2 3 3 8t2.5 11 4 12 6.5 9q2 2 4.5 11.5t5 20 4 20 1.5 12.5q1 8 2.5 29t3.5 44 3.5 44 1.5 30q0 4 2.5 12t2.5 10v9q-2 3-3 7-2 8-2 8v7q10 32 10.5 64t2.5 64q0 3 1 8.5t2.5 12 2.5 12 1 7.5q1 9 2 33t2 51 2 50.5 1 31.5l7 19q3 70 12.5 136t11.5 137l7 6v29q0 22-3.5 41.5t-3.5 41.5v2q0 4 3.5 9.5t3.5 7.5v36q0 26-7 41.5t-20 24.5-31 14.5-39 11.5q-5 3-16.5 6.5t-24.5 7.5-25 8.5-18 7.5q-5 2-9.5 11.5t-4.5 14.5q0 6 4 11t9.5 9.5 11 7 9.5 3.5h101q57 0 112.5-5.5t112.5-5.5q10 0 20 1t21 1q20 0 35-14t25.5-33.5 18.5-40.5 15-35q0-1 3-7.5t7-14 7.5-14.5 4.5-9q0-1 1-5.5t2.5-9.5 2.5-9 1-5q0-2 3.5-8t7.5-12.5 7.5-12 3.5-5.5q1-3 4.5-15t7.5-24.5 7-23.5 4-13q3-5 9-18.5t13.5-28.5 14.5-28.5 11-20.5q0-1 6-6.5t8-6.5q1-3 3-6 4-6 4-8 9-25 18-50.5t22-50.5q0-1 6-7t8-8 6-9.5 8.5-17.5 9-19.5 7.5-14.5q0-1 3.5-10t3.5-14q4-16 8.5-27t10.5-20 13-19 15-24q0-1 2.5-5.5t5-9 4.5-9 3-5.5q14-35 32.5-72t29.5-74q0-1 1-6.5t2-12 2.5-12.5 1.5-7 3.5-6 8.5-11 10-12 9-9q8-11 16.5-17.5t22.5-6.5q4 0 10.5 7t13 16 12.5 18 8 14q14 23 21 47.5t16 51.5l8 5q0 3 1 8t2.5 10 2.5 9 1 4q0 3 2 9t5 12 5.5 11 3.5 6 4.5 5.5 7 10.5 7 10.5 3.5 5.5q1 0 2.5 5t2.5 10.5 1.5 10 0.5 5.5q2 3 6.5 11t9.5 17.5 9.5 18 6.5 13.5q29 52 55 107.5t52 107.5q1 1 4.5 6.5t7.5 12 7.5 12 4.5 7.5 4 8.5 7 14 7 14 3 8.5q16 30 28 61.5t25 61.5q0 2 3.5 11t3.5 11q2 2 12.5 11t12.5 13q0 1 1 5t2 8.5 2 9 1 5.5q3 7 8.5 16t11.5 17.5 11 16 8 12.5q7 12 12 25t11 25.5 13 23.5 19 18q5 4 17 9t14 5h189q4 2 15.5 5.5t15.5 3.5h7q11 0 23-4.5t23-4.5q9 0 18.5 4.5t18.5 4.5h8q4 0 14-1t21-2.5 21-3 14-2.5q6-2 7-7t1-9q0-11-2-18t-6-18q-3-1-9.5-3.5t-13.5-4.5-13.5-4-8.5-2q-8-1-26.5-2.5t-39-3-39-2.5-25.5-1q-14-13-27-30.5t-13-39.5v-212q2-29 9-56t7-56v-22q0-7-0.5-13.5t-5.5-12.5v-213q5-12 5.5-19.5t0.5-18.5v-18q-5-38-15-75t-10-80q0-11 3-20t6.5-18 6.5-19 3-23v-244q1-2 5.5-7.5t9-11.5 9-11.5 6.5-7.5q10-12 29-16t41-5 45-1.5 41.5-6.5 30.5-19.5 12-39.5q0-23-18.5-32.5t-38.5-9.5h-21q-2 0-7.5 1t-12 2.5-11.5 3-5 2.5q-5 0-20.5 0.5t-34 1.5-35.5 2.5-25 2.5q-14 0-23 1t-27 6h-50q-55 0-109-3.5t-109-3.5h-81q-8 0-17.5 2.5t-17.5 7.5-13.5 12.5-5.5 17.5z"/><path transform="translate(23.447 13.275) scale(.0068359 -.0068359)" d="m85 31q0 16 8.5 26t22 15 31.5 7 37 2q14 0 27.5-0.5t27.5-0.5q21 0 38 4.5t28 21.5v51q0 9 1 31t2.5 46.5 3 46 1.5 30.5q2 3 4.5 10t2.5 9-1 10-2 9l-4 113q2 7 3 18.5t1 17.5q0 8-0.5 12t-1.5 7.5-1.5 8-0.5 14.5v65q0 4-1.5 22t-3 38.5-2.5 39-1 23.5v135q0 1-1.5 8t-3 15-3 14.5-1.5 7.5v30q0 3 1.5 10.5t3 16.5 3 16.5 1.5 9.5v242q-2 38-13.5 59t-45.5 31q0 2-3.5 2t-5.5 0q-11 0-20-4t-20-4h-12q-7 0-20 1t-26.5 2-24 2-12.5 1q-11 5-18.5 15t-7.5 24q0 5 1.5 12.5t3.5 12.5q3 5 9.5 15.5t11.5 12.5q2 0 9 0.5t14.5 0.5 14.5 0.5 9 0.5q23 0 44.5-1t43.5-8h142q125 0 251 3.5t254 3.5h147q4 0 22.5-1t39.5-2.5 39-2.5 22-1h74q3 0 10.5-1t16.5-2.5 16.5-3 10.5-3.5q6-1 9.5-6.5t5-12.5 2-14.5 0.5-11.5q0-5-1.5-16.5t-1.5-13.5q0-6-2-32t-4.5-55-4.5-54.5-3-31.5v-74q0-11-7.5-18.5t-16.5-7.5q-12 0-19.5 9t-13.5 21-11 25-10 21q0 2-2.5 4t-4.5 4q-4 3-7 6-1 3-4 9t-6.5 12-6.5 11-5 6q-11 26-27 56t-39 46q-1 0-6 1t-10.5 1.5-10.5 1.5-6 1q0 1-5.5 4.5t-12.5 7.5-13 7.5-7 5.5q0 1-6 3t-8 4q-6 0-24.5 2.5t-39.5 5-39.5 5-25.5 4.5q-3 0-13.5 2.5t-14.5 4.5q-32 1-64 2t-64 1-62.5-1-62.5-2q-7-2-14-6-6-3-12-6.5t-10-5.5q-15-6-25.5-20.5t-17-31.5-9-35.5-2.5-33.5v-4q0-3 2-3 0-1 1-7.5t2.5-14.5 2.5-15 1-8q1-10 1.5-34.5t1-52.5 1-52.5 0.5-34.5l1-23v-173l9-22q1 0 8-1t16.5-2.5 19-2.5 15.5-1h17q52 0 106 7t105 14q34 6 63 15t56 24q9 13 15.5 37t11.5 52 9.5 57 9.5 52.5 11 39.5 14 18h21q16 0 25-6.5t14-17.5 6.5-24.5 1.5-27.5q0-2-1-8.5t-2.5-14.5-2.5-14.5-1-8.5v-128q0-2-1-11t-2.5-19-3-18.5-2.5-10.5v-184q1-3 2-11.5t2-18.5 2-19 3-13q1-2 3-5 1-5 4-7v-7q-1-2-2-7.5t-2-12-2-12-1-8.5q-2-10-2-21.5t-3-21.5-10.5-17-22.5-7q-21 0-30.5 14.5t-12.5 34-2.5 39.5-1.5 31q0 0-2 4-1 1-1 3-8 17-11 37.5t-14 33.5q-2 4-8 10t-12.5 12-11.5 10.5-6 5.5q-3 2-14 5t-23.5 7-25 7-18.5 5q-6 0-26.5 1.5t-45 4-48.5 4.5-36 2h-51q-3 0-12 3.5t-11 5.5h-9q-1-2-6.5-5.5t-6.5-3.5q-4-1-14-4t-20.5-6.5-20-6.5-13.5-5v-76q0-2 4.5-11t4.5-12v-83q0-1 2.5-13.5t2.5-13.5q0-2-2.5-9t-2.5-9q-3-4-6-12t-3-10v-267q0-5 5.5-16t8.5-13q1-1 7-2t13.5-2.5 15-2.5 11.5-2h72q10 0 23.5-3.5t25.5-9.5 20.5-14.5 8.5-20.5q0-18-17.5-29t-35.5-11h-239q-3 0-9 1t-13.5 2-15 2-11.5 2l-6 4q-2 2-4.5 3.5t-3.5 1.5h-6q-55-14-107-18.5t-106-4.5h-45q-17 2-25 16.5t-8 28.5z"/><path transform="translate(32.279 13.275) scale(.0068359 -.0068359)" d="m222 661q0-6 5.5-12t13-11.5 15-9 12.5-5.5h206q8 1 27.5 3t41 4.5 41 5.5 27.5 6q2 2 5.5 9.5t3.5 9.5v17q0 3-1 11.5t-2.5 18-3 18.5-2.5 13q-10 7-17 17t-14.5 19.5-16 17.5-20.5 13q-7 3-18.5 8.5t-22.5 10.5-19 9-9 5h-15q-7-1-18-3t-22-3.5-19-2.5-9-1q-3 0-9.5-3.5t-14-7.5-14-7.5-8.5-4.5q-17-6-32.5-9t-26.5-20q-2-3-9-15t-9-15q-6-11-14-20.5t-15-19-12-21-5-25.5zm-151-244v19q1 5 2.5 19t2 29.5 1.5 29.5 3 19q1 18 5.5 40.5t11 45.5 15.5 44.5 20 37.5q1 1 4.5 4.5t7.5 7 7.5 6.5 4.5 4 2.5 6 3.5 10 3.5 9.5 2.5 5.5q17 29 42 48t51 37q18 11 33.5 20.5t31 17 33 13.5 39.5 10q2 0 16.5 1t33.5 1.5 39 1.5 32 1h18q33-8 62.5-18.5t55-26.5 47-38.5 39.5-53.5q1-2 3-11.5t4-9.5q6-15 14.5-27t16-23.5 12.5-24 5-28.5q0-19-15.5-36.5t-24.5-27.5q-6-2-21.5-5t-34-6-37-5-30.5-2q-4 0-17.5 0.5t-32 1.5-39.5 1.5-40 0.5q-20 0-34.5-2t-19.5-2q-1 0-8.5-1t-16.5-2.5-17-2.5-10-1q-11-1-32-1t-47 0-48.5 0-31.5 1q-8-1-11-5.5t-5-9.5q0 0-0.5-4.5t-0.5-10.5 0-12.5 0-10.5q0-5 0-15t0-19.5 0.5-17.5 0.5-9q1-21 16-56.5t35.5-71.5 44-66.5 43.5-40.5q4-3 19-11t32-16.5 32.5-16 21.5-10.5q5 0 7.5 1t6.5 1q20 0 37.5-5t37.5-5h15q5 0 11 1l100 52q4 12 10 24.5t14.5 22.5 20 16 28.5 6h1q2-2 5.5-7t3.5-6q0-2-3.5-11t-5.5-14q-11-29-23-55t-30-52q-2-2-7-7t-11-11-11.5-11.5-8.5-8.5q-2-1-7.5-4t-12-6.5-11.5-7-6-4.5q-23-14-40.5-25t-35-19-37-12.5-44.5-4.5q-66 0-126 15.5t-109 47-83.5 80-48.5 115.5q-4 11-9 33t-10 45-9 42.5-5 24.5z"/><path transform="translate(38.11 13.275) scale(.0068359 -.0068359)" d="m61 7q-14 5-19 12t-5 21q0 22 20 28.5t45.5 10 47.5 11 27 31.5q5 38 6 70.5t1 64.5v55q0 78-3.5 157t-3.5 158q0 71 3.5 139t3.5 138q0 66-3.5 130t-3.5 130v43q-8 23-20.5 41.5t-35.5 27.5q-6 3-23.5 6t-36 7-33 10-14.5 17q0 8 4.5 16.5t11.5 10.5q35 19 72 33t75 30q15 7 31.5 16t34 17.5 35.5 14 37 5.5q7 0 18.5-1t16.5-6q4-4 6-15.5t2-16.5 0.5-18.5 0.5-28.5 0.5-29 0.5-20q0-8-0.5-23t-0.5-30-0.5-27-0.5-13q0-6-0.5-22.5t-1.5-34.5-2.5-34.5-3.5-22.5q-1-2-2-7.5t-2-12.5-2-12.5-1-7.5v-9q0-2 2.5-10t4.5-10v-194q11-23 13-44.5t2-49.5q0-18-1-41t-6-43q0-41 1-78.5t1-75.5q0-62-2-122t-8-124q-1-5-3-24t-4.5-40.5-5-40.5-3.5-23v-9q0-9 5-19.5t13-19.5 17.5-15 18.5-6h129q9 0 15-4.5t10-11.5 6-14 2-13q0-14-7.5-22t-18.5-12-23.5-5-22.5-1h-21q-98 4-197.5 4.5t-198.5 7.5z"/><path transform="translate(41.897 13.275) scale(.0068359 -.0068359)" d="m61 7q-14 5-19 12t-5 21q0 22 20 28.5t45.5 10 47.5 11 27 31.5q5 38 6 70.5t1 64.5v55q0 78-3.5 157t-3.5 158q0 71 3.5 139t3.5 138q0 66-3.5 130t-3.5 130v43q-8 23-20.5 41.5t-35.5 27.5q-6 3-23.5 6t-36 7-33 10-14.5 17q0 8 4.5 16.5t11.5 10.5q35 19 72 33t75 30q15 7 31.5 16t34 17.5 35.5 14 37 5.5q7 0 18.5-1t16.5-6q4-4 6-15.5t2-16.5 0.5-18.5 0.5-28.5 0.5-29 0.5-20q0-8-0.5-23t-0.5-30-0.5-27-0.5-13q0-6-0.5-22.5t-1.5-34.5-2.5-34.5-3.5-22.5q-1-2-2-7.5t-2-12.5-2-12.5-1-7.5v-9q0-2 2.5-10t4.5-10v-194q11-23 13-44.5t2-49.5q0-18-1-41t-6-43q0-41 1-78.5t1-75.5q0-62-2-122t-8-124q-1-5-3-24t-4.5-40.5-5-40.5-3.5-23v-9q0-9 5-19.5t13-19.5 17.5-15 18.5-6h129q9 0 15-4.5t10-11.5 6-14 2-13q0-14-7.5-22t-18.5-12-23.5-5-22.5-1h-21q-98 4-197.5 4.5t-198.5 7.5z"/><path transform="translate(48.699 13.275) scale(.0068359 -.0068359)" d="m98 761q1 8 3 27.5t3 41.5q3 20 5.5 37t5.5 33q2 1 2.5 3t2.5 4q1 2 4 11.5t6.5 21 7 21 5.5 11.5q9 23 19 40t19 33q5 8 10 16t12 19q7 8 12 25 5 14 13 27.5t22 24.5q16 9 23 19t15 21q4 5 11.5 13t28.5 30q6 7 12.5 14.5t13.5 11.5q8 6 12 8t7 4q4 3 8 7t10 10 15 16q4 5 17 11t45 22q-2 2 9 8.5t22 14.5q12 6 22.5 10.5t22.5 6.5q1 0 6 1.5t11 4 12 5.5 9 6q2 0 3.5 0.5t12.5 3.5h22l33 5q43 7 82.5 12t81.5 5h11q22 0 49-1t48-7q0 0 4-1t8.5-2.5 9-3 5.5-2.5q2-1 11-2.5t20-3 20.5-3.5 12.5-3q2-2 8.5-4t17.5-7q8-4 15-7t9-5q3-1 5.5-1t6.5-2q5-2 8-3t5-1q6-4 21.5-11.5t32.5-16.5 33.5-17 24.5-12q2-1 5.5-2t8.5-1q8 0 12 5.5t7 11.5q5 14 11 25t13 22q7 8 10.5 10t17.5 2q16 0 25.5-12t14.5-28.5 6.5-34.5 1.5-29q0-25-1-50.5t-4-51.5q-3-44-3-93v-25q-2-4-4.5-9.5t-11.5-12.5q-7-7-12-11.5t-16-4.5q-10 0-24 5.5t-19 17.5q-17 36-33 67.5t-34.5 60.5-41 56.5-52.5 55.5q-30 25-66 38.5t-74 24.5q-5 2-10 5-23 5-41.5 6t-41.5 1q-51 0-100-21.5t-96-46.5q-5-6-15.5-11.5t-22.5-10.5q-11-7-18-11t-10-6l-31-30q-6-9-13-15.5t-9-8.5q-3 0-4.5-2t-6.5-3q-6-4-7-4.5t-3-0.5q-11-12-23-29.5t-20-33.5q-1-1-11-19-6-9-13-21t-14-23.5-13.5-22-9.5-16.5q-21-39-34-88t-20.5-100-10-101-2.5-91q0-55 5.5-108t23.5-107q1-1 4-6t5.5-11.5 5-12 2.5-6.5q5-14 10-26.5t8-23.5q5-16 11.5-31.5t14.5-29.5q17-33 47-65.5t66-60.5 74.5-49 73.5-29q4 0 15-1t23-1h35q9 0 27.5 1t32.5 1h16q2 0 13 3.5t25 8.5 28.5 10.5 23.5 8.5q15 6 27.5 17t22.5 24.5 16 29.5 6 31v178q0 1 1 9.5t2.5 20.5 3 25 2.5 25q2 23 3.5 42t1.5 24v55q0 9-1.5 18.5t-3.5 14.5q-4 2-20.5 10.5t-29.5 13.5q-3 2-5.5 2.5t-5.5 2.5q-8 2-18.5 3t-24.5 2q-15 1-30.5 3t-28.5 5.5-21 10-8 18.5q0 2 1 4t1 4l5 14q2 4 9 10.5t10 8.5h145q1 0 8 1t14.5 2.5 14 2.5 8.5 1h9q2 0 12.5-3.5t16.5-3.5h61l29-3q16-2 29.5-3.5t17.5-1.5q9-2 33-2t50 0q27 0 50.5 0t32.5 2q8-1 18-5.5t18.5-11 14.5-15.5 6-19l-10-12q-4-1-12.5-5.5t-10.5-6.5q-6-2-21-2.5t-31-2.5q-13-2-24.5-2.5t-16.5-0.5q-26-3-41.5-9t-20.5-33q-10-48-11.5-97t-1.5-97q0-18 0-38t-1-40q-2-4-3.5-19.5t-2.5-33.5-2-34-1-20q0-5 0.5-13.5t3-17 7.5-15 13-6.5 15.5 2.5 15.5 4.5q10 2 18.5 4.5t19.5 2.5q16 0 18.5-8t2.5-20-7.5-23-18.5-21-23.5-17-22.5-11q-2 0-5-1t-11-3q-7-1-13-3t-8-2q-9-4-19.5-7.5t-21.5-7.5q-9-3-18-7.5t-17-6.5q-4 0-15-2.5t-13-4.5q-86-17-175.5-31t-183.5-14q-3 1-6 3-2 2-4.5 2.5t-3.5 2.5q-4 0-12.5 1t-17.5 1q-10 2-19.5 3t-11.5 1q-11 1-30.5 4.5t-40.5 8.5q-22 3-40 6t-20 5q-20 4-41.5 16t-41.5 24q-9 5-19 10t-18 12q-26 9-46 20t-45 34q-6 4-17 15t-24 24-26 26.5-23 24.5l-16 14q3 0-6 9t-13 18q-2 5-2.5 8.5t-2.5 5.5q0 2-5 13t-7 13-7 6.5-10 10.5q-7 8-10.5 14t-5.5 9q-39 79-56.5 161t-17.5 171z"/><path transform="translate(58.933 13.275) scale(.0068359 -.0068359)" d="m26 31q0 16 6.5 25t17 13.5 24 6 26.5 2.5q2 2 10 2t17.5-1 12.5-1q10 6 20.5 15.5t19 21 14 25 5.5 26.5l3 189 2 38 8 190q3 18 3.5 32.5t0.5 28.5q0 17-3.5 37.5t-13.5 36.5q-14 23-33.5 43.5t-44.5 34.5q-2 1-8 2.5t-12.5 3.5-12 5.5-5.5 7.5q0 10 17 22t39 23.5 43.5 20 29.5 13.5q14 6 26.5 15.5t25 18.5 25.5 15.5 29 6.5q12 0 19-14t11-34.5 7-45 7-45 10-34.5 17-14q7 0 9 1t8 8q1 2 9 13.5t18.5 25 19.5 24.5 12 13q10 12 35 30t54.5 35 57.5 29.5 43 12.5q21 0 40.5-8t34.5-22.5 24-33.5 9-40q0-40-17.5-70t-59.5-47h-12q-18 0-33 8.5t-29.5 19-29.5 19-32 8.5q-23 0-40.5-7.5t-35.5-15.5q-4-3-12.5-7.5t-17-10-16-9.5-10.5-5q-10-7-18-20t-13.5-28.5-9-31.5-4.5-28q0-1-1-9.5t-2.5-19.5-2.5-21.5-1-16.5v-7q0-7 0.5-27.5t1.5-48 1.5-58 1.5-58 1.5-48 0.5-27.5v-105q1-5 4-19t7.5-29.5 10-29 11.5-16.5q9-4 25.5-7t33-7.5 28.5-12.5 12-21q0-11-7-18.5t-17-12.5-21.5-7.5-20.5-2.5q-23 0-46.5 4t-46.5 4q-26 0-53.5-4t-52.5-4h-3q-2 0-7.5 0.5t-12 1-12 1-6.5 0.5q-3 0-15-1.5t-17-1.5h-69q-12 0-25 1t-23.5 4.5-17 10-6.5 18.5z"/><path transform="translate(64.087 13.275) scale(.0068359 -.0068359)" d="m222 661q0-6 5.5-12t13-11.5 15-9 12.5-5.5h206q8 1 27.5 3t41 4.5 41 5.5 27.5 6q2 2 5.5 9.5t3.5 9.5v17q0 3-1 11.5t-2.5 18-3 18.5-2.5 13q-10 7-17 17t-14.5 19.5-16 17.5-20.5 13q-7 3-18.5 8.5t-22.5 10.5-19 9-9 5h-15q-7-1-18-3t-22-3.5-19-2.5-9-1q-3 0-9.5-3.5t-14-7.5-14-7.5-8.5-4.5q-17-6-32.5-9t-26.5-20q-2-3-9-15t-9-15q-6-11-14-20.5t-15-19-12-21-5-25.5zm-151-244v19q1 5 2.5 19t2 29.5 1.5 29.5 3 19q1 18 5.5 40.5t11 45.5 15.5 44.5 20 37.5q1 1 4.5 4.5t7.5 7 7.5 6.5 4.5 4 2.5 6 3.5 10 3.5 9.5 2.5 5.5q17 29 42 48t51 37q18 11 33.5 20.5t31 17 33 13.5 39.5 10q2 0 16.5 1t33.5 1.5 39 1.5 32 1h18q33-8 62.5-18.5t55-26.5 47-38.5 39.5-53.5q1-2 3-11.5t4-9.5q6-15 14.5-27t16-23.5 12.5-24 5-28.5q0-19-15.5-36.5t-24.5-27.5q-6-2-21.5-5t-34-6-37-5-30.5-2q-4 0-17.5 0.5t-32 1.5-39.5 1.5-40 0.5q-20 0-34.5-2t-19.5-2q-1 0-8.5-1t-16.5-2.5-17-2.5-10-1q-11-1-32-1t-47 0-48.5 0-31.5 1q-8-1-11-5.5t-5-9.5q0 0-0.5-4.5t-0.5-10.5 0-12.5 0-10.5q0-5 0-15t0-19.5 0.5-17.5 0.5-9q1-21 16-56.5t35.5-71.5 44-66.5 43.5-40.5q4-3 19-11t32-16.5 32.5-16 21.5-10.5q5 0 7.5 1t6.5 1q20 0 37.5-5t37.5-5h15q5 0 11 1l100 52q4 12 10 24.5t14.5 22.5 20 16 28.5 6h1q2-2 5.5-7t3.5-6q0-2-3.5-11t-5.5-14q-11-29-23-55t-30-52q-2-2-7-7t-11-11-11.5-11.5-8.5-8.5q-2-1-7.5-4t-12-6.5-11.5-7-6-4.5q-23-14-40.5-25t-35-19-37-12.5-44.5-4.5q-66 0-126 15.5t-109 47-83.5 80-48.5 115.5q-4 11-9 33t-10 45-9 42.5-5 24.5z"/><path transform="translate(69.918 13.275) scale(.0068359 -.0068359)" d="m461 479q-3 0-14.5-6t-24-13.5-24-15-15.5-10.5q-2-3-12-13t-21.5-21.5-21.5-21.5-12-13q-4 0-10-4l-6-3q-5-5-14-23.5t-15-38.5q-7-20-8-30t-1-27q0-25 6-46t32-34q4-2 11.5-4.5t15-4.5 13.5-3.5 9-1.5q5 0 13 0.5t17 1.5 16.5 2 11.5 2q37 8 59 24.5t31 52.5q2 9 6 23.5t7.5 29 6.5 26 3 13.5q2 0 2.5 4.5t0.5 5.5q0 3-0.5 7.5t-2.5 6.5q-2 7-3 13-1 5-1.5 10t-0.5 7v38q-2 9-7 20.5t-11.5 22-15.5 17.5-20 7zm-381-289q0 25 6 58.5t24 55.5q1 1 9.5 10t19.5 20.5 22.5 22.5 17.5 17q32 29 68 53.5t74 43.5q5 2 17.5 4t15.5 4q3 1 11.5 5.5t18.5 10 18.5 10 10.5 4.5q17 8 31.5 13t27.5 11 25 14.5 23 23.5q2 4 3.5 14.5t2.5 23 1.5 24 0.5 16.5q0 24-1 48.5t-7.5 47-20 41-38.5 29.5q-2 1-9 3t-15 4.5-15 4.5-9 2q0 1-4 3t-9 4.5-10 4-7 2.5h-5q-13 0-20-3t-18-11q-4-2-10-5t-12-7-10.5-6.5-5.5-2.5q-2-2-5-7.5t-5.5-12-4.5-12-2-6.5q-1-2-2-7.5t-2-12-2-12-1-6.5q0-3-4-12.5t-7-11.5q-4-22-5.5-37t-7.5-24-18.5-12.5-37.5-3.5q-23 0-44.5 1t-38 7.5-26.5 21-10 40.5q0 11 1 24t7 22q1 1 5 5.5t9 9.5 9.5 9 6.5 6q86 64 179.5 104.5t200.5 40.5q25 0 50.5-3t49.5-11.5 44-23.5 33-38q3-6 7.5-16t9.5-20 8.5-17 3.5-8q1-3 2-14.5t2-24 2-24 1-14.5 4-9q2-3 5-5 1 0 1-5v-1q-1-1-1-1-7-23-9-46t-7-48q0-1-2.5-14t-2.5-17q-2-1-2-19 0-16 1-33t1-22q0-2-1.5-7.5t-3-12-3-12-1.5-6.5q0-3-2-28t-4.5-57.5-5-66-3.5-54.5v-10q0-4 1-15.5t2-24.5 2-25 2-18q14-16 35-23t39-7q20 0 35.5 5t32.5 5q2 0 12.5-0.5t13.5-0.5q10-5 12.5-12t2.5-18q0-1 0-4t-2-3l-69-71-8-4q-10-4-13-4t-15-1-26-2-26.5-2-15.5-2q-2 0-10-1.5t-17-3-16.5-2.5-9.5 0q-2 0-7.5 1.5t-12.5 4-14 4.5-11 4q-16 6-32 16t-24 24q-6 11-9.5 24.5t-8 25-12.5 19.5-25 8q-1 0-1.5-0.5t-1.5-0.5h-2q-25-16-39.5-37t-35.5-39q-17-14-34.5-23.5t-35.5-23.5q-5-2-17.5-4t-27-4.5-28-4-19.5-1.5q-3 0-10 0.5t-15.5 1.5-16 2.5-10.5 2.5q-2 0-6.5 3.5t-9.5 7.5-9.5 7.5-5.5 3.5q-44 30-59.5 74t-15.5 94z"/><path transform="translate(75.831 13.275) scale(.0068359 -.0068359)" d="m169 308q0 103 5 204t5 202q0 31-11.5 46t-30 21-42 6-48.5 2q-4 4-9.5 11t-5.5 11q0 5 4.5 11.5t5.5 6.5q5 4 19 17.5t30 29.5 29.5 30 18.5 20q3 2 8 8.5t11 14 12 14 9 9.5q3 4 14.5 20t27.5 37.5 34.5 45 35.5 43 31 32.5 20 13h3q11-6 16-14t7.5-18 3.5-21.5 4-23.5v-3q0-27-4.5-54t-4.5-57q0-3 0-7.5t1-9.5q0-5 1-12l16-17h22q46 0 92 8 31 8 62.5 20.5t63.5 12.5q30 0 40-16t10-41-10.5-44-28-31.5-39.5-20-44-8.5q-2-1-9-1.5t-15-1-14.5-0.5-8.5 0q-2-2-8.5-4t-14.5-4-15-3.5-9-2.5h-83l-15-5q-2-26-3-51-2-21-2.5-43.5t-0.5-37.5q0-2-1.5-13t-1.5-16q0-25 4.5-49t4.5-50q0-45-3.5-91.5t-3.5-93.5q0-11 0-23t1-24q-8-9-9-17t-1-19q0-20 6.5-36.5t17.5-34.5q21-35 46-47.5t68-12.5q26 0 58.5 11.5t56.5 19.5q2 0 12 3.5t22 8 22 8 13 4.5h8q8 0 12-6t4-15q0-28-15.5-47.5t-37.5-33.5-47.5-24-44.5-19q-3 0-11.5-3.5t-13.5-5.5q-29-9-55.5-20t-58.5-11q-20 0-44.5 4t-50 10.5-49 16-39.5 21.5q-4 3-9 7.5t-9.5 10-8 9.5-3.5 6l-24 91q0 1 0 17t-0.5 38-0.5 45 0 37z"/><path transform="translate(83.802 13.275) scale(.0068359 -.0068359)" d="m518 787q11-16 32.5-20t36.5-4h7q2 1 9 3.5t15 4.5 14.5 4 8.5 2q21 6 50 9.5t49 14.5q2 2 11 8t20.5 13.5 22 15 15.5 10.5q2 1 8 7.5t7 7.5q9 14 18.5 31t19.5 30q2 4 6 8 5 6 10 9 1 0 2.5 5t2.5 12 1.5 13 0.5 8q9 39 15.5 77.5t6.5 80.5v55q-8 6-13.5 14.5t-10 17.5-9.5 18.5-12 18.5q-4 4-13.5 15t-20.5 23-21.5 22.5-15.5 15.5q-14 3-35.5 6t-38.5 8q-21 7-39 15t-41 8q-17 0-39-2t-33-12q-23-18-34-35.5t-15.5-36-5-40.5-1.5-49q0-4-1-18.5t-2-31-2-31.5-1-19q0-12-0.5-35t-0.5-49-0.5-51-0.5-40q0-34 3-66t14-71zm-154-787q-59 0-117-3.5t-115-3.5q-34 0-34 31 0 11 2.5 21.5t14.5 16.5q35 3 76 8.5t76 22.5q7 4 12.5 15.5t9 25.5 5.5 27.5 3 21.5v47q0 4 1 12.5t2.5 18.5 2.5 18.5 1 11.5q0 15 0 46.5t0.5 70.5 1 82.5 1 83 0.5 70.5 0 46q0 27 0 66t-0.5 82.5-1 87-1 79-0.5 59.5 0 28q0 13-0.5 44.5t-1 66.5-2 65.5-3.5 42.5q-5 10-20 16t-33 9.5-35.5 5-26.5 2.5q-6 0-21 1t-32 2-32 2-20 2q-4 2-12.5 11.5t-10.5 11.5v10q0 16 7 21.5t23 7.5q13 1 45.5 3t69 4.5 69.5 4.5 46 2q4 0 12 0.5t17 0.5 18 0.5 15 0.5q12 2 20 3.5t15 1.5q15 0 59 0t103.5-1 126.5-2 128-4q3 0 10-2t15-4.5 15-4.5 10-3q1 0 6.5-1.5t11.5-2.5 11.5-2.5 6.5-1.5q3-1 11.5-7.5t17.5-14 16.5-14.5 10.5-9q0-3 5.5-5t7.5-4q34-14 55-29t34-34.5 20-45 14-59.5q3-17 9.5-39.5t6.5-39.5q0-4-1-7.5t-1-4.5q-4-45-14-89t-20-86q-3-3-6-8.5t-5-7.5q-1-2-7.5-10t-14.5-17-15-17-8-9q0-2-4-8l-4-6q-15-27-38-39t-52-23q-2-3-16-5t-16-4q-1 0-5.5-3t-9.5-7-10-7-6-4q-11-7-27-12.5t-33-9.5-34-6-29-3h-205q-16-6-23.5-16t-10.5-22.5-3.5-26-0.5-27.5q0-3-1-13t-2-21.5-2-21.5-1-13v-17q0-11 0.5-17.5t5.5-17.5q0-4 0-12.5t0.5-18 0.5-17.5 0-11q0-31-3.5-61t-3.5-60v-3q0-2 1-9.5t1-9.5q3-57 7-103t21-93q1-5 11-11.5t22.5-12.5 24.5-10 18-4h40q26 0 51 2.5t51 2.5q7 0 16-5t16.5-13 12.5-17 5-16q0-10-2-17.5t-15-12.5h-77q-6 0-20.5 1t-30.5 2.5-29.5 3-17.5 2.5q-2 0-6.5 1t-9.5 1.5-9.5 1.5-5.5 1h-7q-23-2-46-3t-48-4q-3 0-11.5 1t-18 2.5-18 2.5-12.5 1z"/><path transform="translate(91.738 13.275) scale(.0068359 -.0068359)" d="m26 31q0 16 6.5 25t17 13.5 24 6 26.5 2.5q2 2 10 2t17.5-1 12.5-1q10 6 20.5 15.5t19 21 14 25 5.5 26.5l3 189 2 38 8 190q3 18 3.5 32.5t0.5 28.5q0 17-3.5 37.5t-13.5 36.5q-14 23-33.5 43.5t-44.5 34.5q-2 1-8 2.5t-12.5 3.5-12 5.5-5.5 7.5q0 10 17 22t39 23.5 43.5 20 29.5 13.5q14 6 26.5 15.5t25 18.5 25.5 15.5 29 6.5q12 0 19-14t11-34.5 7-45 7-45 10-34.5 17-14q7 0 9 1t8 8q1 2 9 13.5t18.5 25 19.5 24.5 12 13q10 12 35 30t54.5 35 57.5 29.5 43 12.5q21 0 40.5-8t34.5-22.5 24-33.5 9-40q0-40-17.5-70t-59.5-47h-12q-18 0-33 8.5t-29.5 19-29.5 19-32 8.5q-23 0-40.5-7.5t-35.5-15.5q-4-3-12.5-7.5t-17-10-16-9.5-10.5-5q-10-7-18-20t-13.5-28.5-9-31.5-4.5-28q0-1-1-9.5t-2.5-19.5-2.5-21.5-1-16.5v-7q0-7 0.5-27.5t1.5-48 1.5-58 1.5-58 1.5-48 0.5-27.5v-105q1-5 4-19t7.5-29.5 10-29 11.5-16.5q9-4 25.5-7t33-7.5 28.5-12.5 12-21q0-11-7-18.5t-17-12.5-21.5-7.5-20.5-2.5q-23 0-46.5 4t-46.5 4q-26 0-53.5-4t-52.5-4h-3q-2 0-7.5 0.5t-12 1-12 1-6.5 0.5q-3 0-15-1.5t-17-1.5h-69q-12 0-25 1t-23.5 4.5-17 10-6.5 18.5z"/><path transform="translate(96.988 13.275) scale(.0068359 -.0068359)" d="m133 1348q0 22 8.5 42t23.5 35 35.5 24 43.5 9q15 0 29-7t26.5-18 23-23.5 18.5-22.5q7-5 8-15t1-21q0-30-12-50.5t-31.5-34-44.5-20.5-51-9q-35 18-56.5 44t-21.5 67zm-74-1312q0 24 13 31t32 9 40.5 3.5 37.5 15.5q0 6 1 23t1.5 36.5 1.5 36.5 1 24v121q0 5 0.5 22t2 39 2.5 47 2.5 47 2 38 0.5 21v125t1 4.5 2.5 9 2.5 9 1 4.5l2 4q0 2-0.5 3t-0.5 2q-1 1-1 2 0 0-3 3.5t-7 8-7.5 9-4.5 6.5q-10 14-30.5 20.5t-41 12.5-36 14.5-15.5 25.5q0 11 11.5 18.5t19.5 9.5q3 1 15 3t26.5 4 26.5 4.5 15 3.5q1 1 7 3t12.5 4.5 12 4.5 6.5 2q9 3 30 7t33 10q10 5 17.5 10.5t15 10 16 7 20.5 2.5q18 0 27-17t9-35q0-29-4.5-58.5t-4.5-59.5q0-25 1-43.5t8-47.5v-409q1-3 2.5-8t2-11 1.5-11.5 3-7.5v-10q0-2-1-7t-2-11.5-3-12-3-7.5v-9q0-3 2-14t5.5-24 7.5-23.5 8-12.5q1-2 5-2t7 0q6 0 11.5 1t7.5 1q1-2 10.5-4.5t11.5-2.5q3-2 12-3t18.5-1.5 18.5-2 12-2.5q11-2 14-14t3-20q0-16-13-23.5t-27-9.5h-168q-2 0-9.5 1t-16 2.5-16 3-9.5 1.5h-9q-27 0-56.5-4t-59.5-4h-52q-2 2-13.5 7t-15.5 7q-5 4-7 8.5t-2 8.5z"/><path transform="translate(100.84 13.275) scale(.0068359 -.0068359)" d="m654 0q-13 2-22 11.5t-9 24.5q0 5 4.5 15t18.5 15q20 2 41 5t42 5q2 0 4.5 2t3.5 3q15 19 20 39t6.5 40 1.5 40.5 4 41.5q0 3 2.5 12t6 19.5 6 19 2.5 10.5v109q0 1 2.5 11t2.5 13l1 1q0 1 0.5 1t0.5 1q-1 0-1 1-1 1-1 3t-2.5 11.5-2.5 10.5v78q0 3-1.5 14t-3.5 24-3.5 24-1.5 14v68q-1 13-9.5 35t-21 44-28.5 39.5-31 21.5q-5 0-17-1t-23-1q-5 0-9.5 1t-6.5 1-10.5 2.5-10.5 2.5-7.5-0.5-11.5-1.5-11.5-1.5-8.5-1.5q-38-12-70-27t-69-34q-9-6-18.5-19.5t-18-30-15.5-33-10-26.5q-1-5-3-15.5t-4-21.5-3.5-21-1.5-13v-88q0-4-1-14t-3-21.5-4-22-3-13.5v-53q3-21 5-33.5t3.5-23.5 2-23.5 0.5-34.5v-138q2-23 14-33.5t28.5-15 35-6 33.5-4.5q13-2 22.5-6.5t11.5-24.5v-17q0-8-8-11-5 0-14.5 0.5t-19.5 0.5-19 0.5-13 0.5q-25 0-45.5-1t-40.5-1.5-41-1.5-46-1q-45 0-86.5 2.5t-86.5 2.5q-8 0-17.5-1t-19.5-1q-8 5-10 11t-2 15q0 5 1 12t8 11q8 2 15 4 6 2 12.5 3t10.5 2q21 2 40 7.5t33.5 15.5 23.5 26.5 9 40.5v128q0 38 4 66t4 60q0 13-0.5 24.5t-0.5 22.5q0 5 0 10t1 10q2 4 5.5 16.5t3.5 16.5v139l-9 27q-4 11-8 22t-6 18q-6 14-19.5 26t-28 23-25.5 21.5-11 21.5 5.5 16.5 16.5 12.5q42 32 88.5 63.5t95.5 54.5h12q6 0 13.5-1t12.5-8q5-5 11-17t6-14v-135q2 0 10-1.5t11-1.5q27 7 48 22t40.5 32.5 38.5 35.5 42 32q3 2 12 4.5t11 4.5q17 6 34.5 15.5t36 17.5 37.5 14 39 5q3 0 15-1.5t26.5-4 28.5-5 21-3.5q24-6 39.5-15t27.5-21.5 23-28.5 25-35q6-10 9-23.5t7-25.5 11-20.5 21-8.5q2 0 6.5 1.5t7.5 1.5q20 23 43.5 44t46.5 38q2 0 7.5 3t7.5 5q30 12 56.5 30t58.5 31q4 2 12.5 4t11.5 5q3 0 14.5 1.5t26 4 28.5 5 21 4.5h5q54 0 93-15.5t65-42.5 41.5-63 23-76.5 10-84.5 2.5-86v-85q0-48-4-97t-4-99v-39q0-9 1-32.5t2-49.5 2-49.5 1-33.5q3-1 9.5-3t14-4 13.5-3.5 8-1.5q5-2 14.5-4t17.5-5q5-1 17-4.5t17-10.5q2-3 3.5-6.5t3.5-7.5 4-9q0-8-8.5-14t-19.5-10-21.5-6-14.5-2q-7 0-10 0.5t-8 2.5q-4 2-16 3.5t-17 1.5q0 0-8 0.5t-18.5 0.5-21.5 0.5-19 0.5q-51 0-100-5t-101-5q-3 0-11.5 0.5t-18.5 1-18.5 1-11.5 0.5q-11 2-12.5 9.5t-1.5 16.5q0 19 13.5 26.5t32 11.5 39.5 8 36 16q5 8 14.5 16t9.5 10 1 5 1 7q0 11-1 21t-1 12q0 5 2 26.5t5 46.5 5 46 2 25q0 2 0.5 15.5t0.5 31.5 0.5 36 0.5 29q0 12-0.5 33t-0.5 41.5-0.5 36-0.5 17.5q0 3-1 14t-1.5 24-1.5 24-1 14v4q0 11 2.5 20.5t2.5 20.5q0 14-5.5 26t-14 23.5-17.5 21.5-15 21q-29 39-65 50t-85 11q-24 0-52.5-16t-51.5-29q-2-2-11-6.5t-19.5-9.5-19.5-10-11-6q-15-9-25-24t-16-33-9-36.5-5-34.5q-1-8-2-26t-1.5-37.5-1.5-37-2-23.5q0-3 0.5-11t0.5-19.5 0.5-24.5 0.5-26q0-18-0.5-29.5t-1.5-20.5-2.5-18.5-4.5-25.5v-10q0-10 1-36.5t2.5-56.5 2.5-57.5 1-38.5q1-7 6-14t11.5-12 14-8.5 13.5-3.5q5-1 16.5-2.5t23.5-3 23-2.5 15-1q5-1 13-10.5t9-13.5q0-2 1-4v-3q0-1 1-1 0-16-8.5-24.5t-20.5-13-26-5.5-25-1h-27q-4 0-19 1.5t-31.5 3-31.5 3-19 1.5z"/><path transform="translate(112.55 13.275) scale(.0068359 -.0068359)" d="m222 661q0-6 5.5-12t13-11.5 15-9 12.5-5.5h206q8 1 27.5 3t41 4.5 41 5.5 27.5 6q2 2 5.5 9.5t3.5 9.5v17q0 3-1 11.5t-2.5 18-3 18.5-2.5 13q-10 7-17 17t-14.5 19.5-16 17.5-20.5 13q-7 3-18.5 8.5t-22.5 10.5-19 9-9 5h-15q-7-1-18-3t-22-3.5-19-2.5-9-1q-3 0-9.5-3.5t-14-7.5-14-7.5-8.5-4.5q-17-6-32.5-9t-26.5-20q-2-3-9-15t-9-15q-6-11-14-20.5t-15-19-12-21-5-25.5zm-151-244v19q1 5 2.5 19t2 29.5 1.5 29.5 3 19q1 18 5.5 40.5t11 45.5 15.5 44.5 20 37.5q1 1 4.5 4.5t7.5 7 7.5 6.5 4.5 4 2.5 6 3.5 10 3.5 9.5 2.5 5.5q17 29 42 48t51 37q18 11 33.5 20.5t31 17 33 13.5 39.5 10q2 0 16.5 1t33.5 1.5 39 1.5 32 1h18q33-8 62.5-18.5t55-26.5 47-38.5 39.5-53.5q1-2 3-11.5t4-9.5q6-15 14.5-27t16-23.5 12.5-24 5-28.5q0-19-15.5-36.5t-24.5-27.5q-6-2-21.5-5t-34-6-37-5-30.5-2q-4 0-17.5 0.5t-32 1.5-39.5 1.5-40 0.5q-20 0-34.5-2t-19.5-2q-1 0-8.5-1t-16.5-2.5-17-2.5-10-1q-11-1-32-1t-47 0-48.5 0-31.5 1q-8-1-11-5.5t-5-9.5q0 0-0.5-4.5t-0.5-10.5 0-12.5 0-10.5q0-5 0-15t0-19.5 0.5-17.5 0.5-9q1-21 16-56.5t35.5-71.5 44-66.5 43.5-40.5q4-3 19-11t32-16.5 32.5-16 21.5-10.5q5 0 7.5 1t6.5 1q20 0 37.5-5t37.5-5h15q5 0 11 1l100 52q4 12 10 24.5t14.5 22.5 20 16 28.5 6h1q2-2 5.5-7t3.5-6q0-2-3.5-11t-5.5-14q-11-29-23-55t-30-52q-2-2-7-7t-11-11-11.5-11.5-8.5-8.5q-2-1-7.5-4t-12-6.5-11.5-7-6-4.5q-23-14-40.5-25t-35-19-37-12.5-44.5-4.5q-66 0-126 15.5t-109 47-83.5 80-48.5 115.5q-4 11-9 33t-10 45-9 42.5-5 24.5z"/><path transform="translate(118.38 13.275) scale(.0068359 -.0068359)" d="m26 31q0 16 6.5 25t17 13.5 24 6 26.5 2.5q2 2 10 2t17.5-1 12.5-1q10 6 20.5 15.5t19 21 14 25 5.5 26.5l3 189 2 38 8 190q3 18 3.5 32.5t0.5 28.5q0 17-3.5 37.5t-13.5 36.5q-14 23-33.5 43.5t-44.5 34.5q-2 1-8 2.5t-12.5 3.5-12 5.5-5.5 7.5q0 10 17 22t39 23.5 43.5 20 29.5 13.5q14 6 26.5 15.5t25 18.5 25.5 15.5 29 6.5q12 0 19-14t11-34.5 7-45 7-45 10-34.5 17-14q7 0 9 1t8 8q1 2 9 13.5t18.5 25 19.5 24.5 12 13q10 12 35 30t54.5 35 57.5 29.5 43 12.5q21 0 40.5-8t34.5-22.5 24-33.5 9-40q0-40-17.5-70t-59.5-47h-12q-18 0-33 8.5t-29.5 19-29.5 19-32 8.5q-23 0-40.5-7.5t-35.5-15.5q-4-3-12.5-7.5t-17-10-16-9.5-10.5-5q-10-7-18-20t-13.5-28.5-9-31.5-4.5-28q0-1-1-9.5t-2.5-19.5-2.5-21.5-1-16.5v-7q0-7 0.5-27.5t1.5-48 1.5-58 1.5-58 1.5-48 0.5-27.5v-105q1-5 4-19t7.5-29.5 10-29 11.5-16.5q9-4 25.5-7t33-7.5 28.5-12.5 12-21q0-11-7-18.5t-17-12.5-21.5-7.5-20.5-2.5q-23 0-46.5 4t-46.5 4q-26 0-53.5-4t-52.5-4h-3q-2 0-7.5 0.5t-12 1-12 1-6.5 0.5q-3 0-15-1.5t-17-1.5h-69q-12 0-25 1t-23.5 4.5-17 10-6.5 18.5z"/></svg>