<svg width="32" height="11" viewBox="0 0 32 11" fill="none" xmlns="http://www.w3.org/2000/svg">
<path d="M0.5 10.17V0.65H1.86V10.17H0.5ZM7.17 4.18C6.49 4.18 5.88667 4.41 5.36 4.87V10.17H3.99V3.12H5.25L5.35 3.88C6.09 3.3 6.85667 3.01 7.65 3.01C8.49 3.01 9.10667 3.26 9.5 3.76C9.90667 4.28667 10.11 5.13667 10.11 6.31V10.17H8.75V6.31C8.75 5.18333 8.44333 4.51 7.83 4.29C7.63667 4.21667 7.41667 4.18 7.17 4.18ZM13.23 3.89C13.6233 3.58333 14.0667 3.36 14.56 3.22C15.0533 3.08 15.4867 3.01 15.86 3.01C16.2267 3.01 16.51 3.01667 16.71 3.03V0H18.07V10.17H16.85L16.79 9.36C16.5167 9.72667 16.0967 10 15.53 10.18C15.31 10.2467 15.0867 10.28 14.86 10.28C14.6333 10.28 14.4133 10.2567 14.2 10.21C13.98 10.1633 13.76 10.0867 13.54 9.98C13.3267 9.87333 13.12 9.73333 12.92 9.56C12.7267 9.38667 12.5533 9.17 12.4 8.91C12.0733 8.35 11.91 7.68667 11.91 6.92C11.91 6.15333 12.03 5.53333 12.27 5.06C12.5167 4.58667 12.8367 4.19667 13.23 3.89ZM14.05 4.7C13.8167 4.92 13.64 5.20333 13.52 5.55C13.3933 5.89 13.33 6.30667 13.33 6.8C13.33 7.28667 13.39 7.69 13.51 8.01C13.6233 8.32333 13.77 8.57 13.95 8.75C14.2633 9.07 14.64 9.23 15.08 9.23C15.6533 9.23 16.1267 9.02 16.5 8.6C16.5933 8.49333 16.66 8.4 16.7 8.32V4.11L16.57 4.1C16.3567 4.07333 16.1067 4.06 15.82 4.06C15.5333 4.06 15.2233 4.11 14.89 4.21C14.5633 4.31667 14.2833 4.48 14.05 4.7ZM23.62 10.28C21.04 10.28 19.75 9.02 19.75 6.5C19.75 5.41333 20.1067 4.54333 20.82 3.89C21.46 3.30333 22.1933 3.01 23.02 3.01C23.92 3.01 24.6233 3.31 25.13 3.91C25.5967 4.47 25.83 5.22 25.83 6.16V6.69H21.17C21.17 7.98333 21.6967 8.77333 22.75 9.06C22.9967 9.12667 23.3833 9.16 23.91 9.16C24.43 9.16 24.94 9.09 25.44 8.95V10.1C24.94 10.22 24.3333 10.28 23.62 10.28ZM21.2 5.69H24.46C24.46 5.25 24.34 4.88 24.1 4.58C23.82 4.23333 23.43 4.06 22.93 4.06C22.41 4.06 21.9833 4.22667 21.65 4.56C21.35 4.86667 21.2 5.24333 21.2 5.69ZM31.81 3.07V4.37C31.5633 4.29667 31.2633 4.26 30.91 4.26C30.5633 4.26 30.28 4.29333 30.06 4.36C29.8333 4.43333 29.6367 4.52 29.47 4.62C29.1567 4.8 28.93 5.00333 28.79 5.23V10.17H27.42V3.12H28.74L28.79 4.09C29.13 3.66333 29.63 3.34333 30.29 3.13C30.5233 3.05 30.7933 3.01 31.1 3.01C31.4067 3.01 31.6433 3.03 31.81 3.07Z" fill="black"/>
</svg>
