<svg width="69" height="11" viewBox="0 0 69 11" fill="none" xmlns="http://www.w3.org/2000/svg">
<path d="M1.6 9.68C1.55333 9.34 1.51 8.98667 1.47 8.62C1.43 8.25333 1.39333 7.88333 1.36 7.51C1.32 7.13667 1.27667 6.76667 1.23 6.4C1.19 6.02 1.14 5.66333 1.08 5.33C1.05333 5.19667 1.00667 5.01667 0.94 4.79C0.873333 4.55667 0.806667 4.31 0.74 4.05C0.68 3.79 0.623333 3.53 0.57 3.27C0.523333 3.00333 0.5 2.76 0.5 2.54C0.606667 2.4 0.713333 2.37333 0.82 2.46C0.933333 2.55333 1.04333 2.72333 1.15 2.97C1.26333 3.22333 1.37 3.54333 1.47 3.93C1.57667 4.31667 1.67333 4.73 1.76 5.17C1.84667 5.61 1.93 6.06 2.01 6.52C2.08333 6.98667 2.14667 7.42333 2.2 7.83C2.26 8.24333 2.30667 8.61 2.34 8.93C2.38 9.25 2.4 9.49 2.4 9.65C2.4 9.71 2.4 9.76667 2.4 9.82C2.4 9.87333 2.39333 9.92333 2.38 9.97C2.37333 10.0233 2.35 10.07 2.31 10.11C2.27 10.15 2.20667 10.18 2.12 10.2C2.06667 10.22 2.01333 10.2033 1.96 10.15C1.90667 10.1033 1.85 10.0467 1.79 9.98C1.73667 9.92 1.69333 9.86 1.66 9.8C1.63333 9.74 1.61333 9.7 1.6 9.68ZM3.04 4.87C3.04 4.78333 3.07 4.73 3.13 4.71C3.19 4.69 3.25667 4.68 3.33 4.68C3.38333 4.68 3.42 4.69333 3.44 4.72C3.46667 4.74667 3.48333 4.77667 3.49 4.81C3.49667 4.85 3.51 4.88667 3.53 4.92C3.55 4.94667 3.58333 4.96 3.63 4.96C3.75667 4.96 3.91 4.91 4.09 4.81C4.27 4.71 4.47 4.60333 4.69 4.49C4.90333 4.37 5.13 4.26 5.37 4.16C5.61 4.06 5.85 4.01 6.09 4.01C6.39667 4.01 6.68 4.09 6.94 4.25C7.2 4.41 7.43333 4.62 7.64 4.88C7.84667 5.14667 8.02333 5.44333 8.17 5.77C8.31 6.09667 8.43 6.43333 8.53 6.78C8.63 7.12 8.70333 7.45 8.75 7.77C8.79667 8.09667 8.82 8.37667 8.82 8.61C8.82 8.69667 8.81333 8.82 8.8 8.98C8.78667 9.14667 8.76333 9.31333 8.73 9.48C8.69667 9.64 8.64667 9.78333 8.58 9.91C8.50667 10.03 8.41333 10.09 8.3 10.09C8.28 10.09 8.25 10.0867 8.21 10.08C8.16333 10.08 8.11667 10.0733 8.07 10.06C8.02333 10.0467 7.98333 10.03 7.95 10.01C7.92333 9.99 7.91 9.96333 7.91 9.93C7.99 9.22333 7.99 8.56333 7.91 7.95C7.82333 7.33667 7.69 6.79667 7.51 6.33C7.33 5.86333 7.10667 5.49333 6.84 5.22C6.57333 4.94667 6.29 4.81 5.99 4.81C5.71 4.81 5.44667 4.85667 5.2 4.95C4.95333 5.04333 4.74 5.17667 4.56 5.35C4.37333 5.52333 4.22667 5.73333 4.12 5.98C4.02 6.22 3.97 6.48667 3.97 6.78C3.97 7.07333 3.99667 7.36333 4.05 7.65C4.10333 7.93667 4.16333 8.22333 4.23 8.51C4.30333 8.79667 4.36667 9.08667 4.42 9.38C4.47333 9.67333 4.5 9.96333 4.5 10.25C4.24667 10.25 4.03333 10.1467 3.86 9.94C3.68667 9.73333 3.54667 9.46333 3.44 9.13C3.33333 8.80333 3.25333 8.43667 3.2 8.03C3.14 7.61667 3.09667 7.21333 3.07 6.82C3.05 6.42 3.04 6.04667 3.04 5.7C3.04 5.34667 3.04 5.07 3.04 4.87ZM9.34 7.1C9.34 6.76 9.38333 6.40333 9.47 6.03C9.55667 5.65667 9.69333 5.31 9.88 4.99C10.0667 4.67 10.3033 4.40667 10.59 4.2C10.8767 4 11.23 3.9 11.65 3.9C11.87 3.9 12.09 3.93 12.31 3.99C12.53 4.05667 12.7533 4.15 12.98 4.27C13.2133 4.38333 13.4567 4.52 13.71 4.68C13.9567 4.84 14.2233 5.01667 14.51 5.21C14.5433 4.84333 14.53 4.46667 14.47 4.08C14.4033 3.69333 14.32 3.31333 14.22 2.94C14.12 2.56667 14.0167 2.21333 13.91 1.88C13.81 1.54667 13.7367 1.25 13.69 0.99C13.6433 0.723333 13.6367 0.503333 13.67 0.33C13.71 0.156667 13.82 0.0466667 14 0C14.2467 0.18 14.46 0.436667 14.64 0.77C14.82 1.10333 14.9733 1.49 15.1 1.93C15.2267 2.36333 15.33 2.83 15.41 3.33C15.49 3.83 15.56 4.33333 15.62 4.84C15.6733 5.35333 15.7167 5.85 15.75 6.33C15.7767 6.81667 15.81 7.26 15.85 7.66C15.8833 8.06667 15.9167 8.41333 15.95 8.7C15.9833 8.98667 16.03 9.19 16.09 9.31C16.09 9.45667 16.04 9.54667 15.94 9.58C15.8333 9.62 15.7267 9.64 15.62 9.64C15.5267 9.64 15.4467 9.60667 15.38 9.54C15.32 9.46667 15.27 9.38667 15.23 9.3C15.1967 9.20667 15.1633 9.10333 15.13 8.99C15.0967 8.87667 15.0633 8.77333 15.03 8.68C14.99 8.58 14.95 8.5 14.91 8.44C14.8633 8.37333 14.8033 8.34 14.73 8.34C14.71 8.34 14.6833 8.34333 14.65 8.35C14.6167 8.35 14.6 8.35667 14.6 8.37C14.4267 8.60333 14.2267 8.83333 14 9.06C13.7667 9.28 13.51 9.47667 13.23 9.65C12.95 9.81667 12.66 9.95 12.36 10.05C12.0533 10.15 11.7433 10.2 11.43 10.2C11.0833 10.2 10.78 10.0867 10.52 9.86C10.26 9.63333 10.0433 9.36 9.87 9.04C9.69 8.72 9.55667 8.38333 9.47 8.03C9.38333 7.67 9.34 7.36 9.34 7.1ZM10.19 7.34C10.2833 7.66667 10.3633 7.95333 10.43 8.2C10.5033 8.44667 10.5933 8.65 10.7 8.81C10.8067 8.96333 10.9333 9.07667 11.08 9.15C11.2267 9.23 11.4167 9.27 11.65 9.27C11.9433 9.27 12.2533 9.18667 12.58 9.02C12.9067 8.84667 13.2133 8.63 13.5 8.37C13.78 8.10333 14.01 7.81333 14.19 7.5C14.3767 7.18667 14.47 6.88333 14.47 6.59C14.47 6.56333 14.47 6.51 14.47 6.43C14.47 6.34333 14.47 6.28667 14.47 6.26C13.9833 5.78667 13.5367 5.44667 13.13 5.24C12.73 5.04 12.37 4.93667 12.05 4.93C11.73 4.92333 11.45 4.99333 11.21 5.14C10.9767 5.28667 10.7833 5.48 10.63 5.72C10.47 5.95333 10.3533 6.21667 10.28 6.51C10.2067 6.80333 10.1767 7.08 10.19 7.34ZM17.28 5.47C17.28 5.43 17.28 5.36 17.28 5.26C17.28 5.16 17.2833 5.05667 17.29 4.95C17.2967 4.84333 17.3 4.74 17.3 4.64C17.3 4.54 17.3 4.47 17.3 4.43C17.26 4.15 17.34 4.01 17.54 4.01C17.6333 4.01 17.7133 4.03333 17.78 4.08C17.84 4.12 17.8967 4.18667 17.95 4.28C17.9233 4.75333 17.9467 5.21 18.02 5.65C18.0867 6.09667 18.1633 6.53667 18.25 6.97C18.3367 7.40333 18.4167 7.83667 18.49 8.27C18.57 8.71 18.61 9.16667 18.61 9.64C18.61 9.76667 18.57 9.89333 18.49 10.02C18.4167 10.1467 18.3033 10.21 18.15 10.21C18.03 10.21 17.9267 10.11 17.84 9.91C17.7533 9.70333 17.6767 9.44333 17.61 9.13C17.55 8.81667 17.4967 8.46667 17.45 8.08C17.4033 7.7 17.37 7.33333 17.35 6.98C17.3233 6.62667 17.3067 6.31333 17.3 6.04C17.2867 5.76 17.28 5.57 17.28 5.47ZM16.59 2.04C16.59 1.92667 16.62 1.85667 16.68 1.83C16.7467 1.79667 16.83 1.78 16.93 1.78C16.99 1.76667 17.0733 1.80333 17.18 1.89C17.2867 1.97667 17.3733 2.07667 17.44 2.19C17.5067 2.29667 17.5467 2.39667 17.56 2.49C17.5667 2.59667 17.4967 2.66 17.35 2.68H17.28C17.1467 2.68 17.0333 2.67 16.94 2.65C16.8533 2.63667 16.7833 2.60667 16.73 2.56C16.6833 2.52 16.6467 2.46 16.62 2.38C16.6 2.3 16.59 2.18667 16.59 2.04ZM19.13 6.54C19.13 6.06667 19.2 5.61333 19.34 5.18C19.48 4.74667 19.6867 4.36333 19.96 4.03C20.2267 3.70333 20.5533 3.44333 20.94 3.25C21.3267 3.05 21.7767 2.95 22.29 2.95C22.59 2.99 22.85 3.07333 23.07 3.2C23.2967 3.32667 23.48 3.48333 23.62 3.67C23.76 3.85667 23.8633 4.07333 23.93 4.32C23.9833 4.56 24.01 4.81667 24.01 5.09C24.01 5.41667 23.9133 5.71333 23.72 5.98C23.5333 6.24 23.2933 6.46 23 6.64C22.7067 6.82 22.3933 6.95667 22.06 7.05C21.72 7.14333 21.4033 7.19 21.11 7.19C21.0033 7.19 20.8933 7.19 20.78 7.19C20.6667 7.19 20.5633 7.17333 20.47 7.14C20.3767 7.1 20.3033 7.04333 20.25 6.97C20.1967 6.89667 20.17 6.79 20.17 6.65C20.17 6.60333 20.1767 6.56333 20.19 6.53C20.2033 6.49667 20.2433 6.47333 20.31 6.46C20.37 6.44667 20.4633 6.44333 20.59 6.45C20.7167 6.47 20.89 6.5 21.11 6.54C21.2367 6.54 21.4233 6.49667 21.67 6.41C21.91 6.32333 22.1533 6.21 22.4 6.07C22.6533 5.93667 22.87 5.78 23.05 5.6C23.2367 5.42 23.33 5.24333 23.33 5.07C23.33 4.89 23.3 4.71 23.24 4.53C23.18 4.35667 23.09 4.2 22.97 4.06C22.85 3.92667 22.71 3.81667 22.55 3.73C22.3967 3.65 22.2167 3.62 22.01 3.64C21.6967 3.66667 21.41 3.75333 21.15 3.9C20.89 4.04667 20.6667 4.23333 20.48 4.46C20.3 4.69333 20.16 4.95333 20.06 5.24C19.96 5.52 19.91 5.81667 19.91 6.13C19.91 6.36333 19.9133 6.6 19.92 6.84C19.9333 7.07333 19.97 7.30333 20.03 7.53C20.0833 7.76333 20.1767 7.98333 20.31 8.19C20.4433 8.39667 20.6367 8.58 20.89 8.74C21.1367 8.9 21.4533 9.03333 21.84 9.14C22.22 9.24667 22.6933 9.31333 23.26 9.34L25.71 9.17C25.5633 9.37667 25.3767 9.54333 25.15 9.67C24.93 9.79667 24.6933 9.89667 24.44 9.97C24.1933 10.05 23.9467 10.11 23.7 10.15C23.4533 10.1833 23.22 10.2 23 10.2C22.4733 10.2 21.9767 10.1133 21.51 9.94C21.0433 9.76667 20.6333 9.52333 20.28 9.21C19.9267 8.89667 19.6467 8.51333 19.44 8.06C19.2333 7.60667 19.13 7.1 19.13 6.54ZM33.99 9.94C33.9367 9.69333 33.8967 9.49 33.87 9.33C33.8433 9.16333 33.8233 9.01333 33.81 8.88C33.7967 8.74667 33.79 8.62667 33.79 8.52C33.79 8.40667 33.7867 8.28667 33.78 8.16C33.7733 8.03333 33.7633 7.88667 33.75 7.72C33.73 7.55333 33.7 7.34667 33.66 7.1C33.6333 6.91333 33.57 6.78667 33.47 6.72C33.37 6.65333 33.2533 6.61667 33.12 6.61C32.9867 6.60333 32.85 6.61333 32.71 6.64C32.57 6.66 32.44 6.67 32.32 6.67C32.1933 6.67 32.0933 6.64333 32.02 6.59C31.94 6.51667 31.9 6.4 31.9 6.24C31.9 6.22 31.92 6.19333 31.96 6.16C32 6.12667 32.03 6.11 32.05 6.11C32.2167 6.09 32.3767 6.08 32.53 6.08C32.6833 6.07333 32.8233 6.04667 32.95 6C33.07 5.95333 33.17 5.87667 33.25 5.77C33.3233 5.64333 33.36 5.47 33.36 5.25C33.2867 4.80333 33.2567 4.42 33.27 4.1C33.2767 3.77333 33.2633 3.50667 33.23 3.3C33.1967 3.08667 33.1167 2.94333 32.99 2.87C32.8567 2.79 32.6267 2.77333 32.3 2.82C32.26 2.82 32.1967 2.82 32.11 2.82C32.0233 2.82 31.9333 2.82 31.84 2.82C31.74 2.82667 31.6467 2.83 31.56 2.83C31.4733 2.83 31.4133 2.83 31.38 2.83C31.36 2.85 31.3167 2.87333 31.25 2.9C31.1833 2.92667 31.14 2.94333 31.12 2.95C31.1 2.95 31.0867 2.95 31.08 2.95C31.06 2.96333 31.0467 2.97 31.04 2.97L31.01 2.95H30.98C30.9667 2.93667 30.9467 2.89667 30.92 2.83C30.8867 2.77 30.8667 2.72333 30.86 2.69V2.63C30.9867 2.49667 31.21 2.38 31.53 2.28C31.85 2.18 32.23 2.09333 32.67 2.02C33.1033 1.94667 33.58 1.89333 34.1 1.86C34.62 1.82667 35.1433 1.81 35.67 1.81C36.19 1.81667 36.7 1.85333 37.2 1.92C37.7067 1.98667 38.1533 2.08333 38.54 2.21C38.9333 2.33 39.2567 2.49 39.51 2.69C39.77 2.90333 39.9133 3.14667 39.94 3.42C39.6467 3.42 39.36 3.38333 39.08 3.31C38.8067 3.23667 38.5267 3.15333 38.24 3.06C37.96 2.97333 37.6767 2.89333 37.39 2.82C37.1033 2.74667 36.8033 2.71 36.49 2.71C36.4167 2.71 36.31 2.70667 36.17 2.7C36.03 2.69333 35.87 2.69 35.69 2.69C35.5033 2.68333 35.3167 2.68667 35.13 2.7C34.9367 2.71333 34.7567 2.74 34.59 2.78C34.43 2.82 34.3 2.88 34.2 2.96C34.1 3.04 34.05 3.14333 34.05 3.27C34.05 3.40333 34.04 3.59 34.02 3.83C34 4.06333 33.9933 4.30667 34 4.56C34.0133 4.81333 34.0467 5.04667 34.1 5.26C34.1533 5.48 34.2533 5.64 34.4 5.74C34.42 5.74 34.4533 5.74 34.5 5.74C34.5467 5.74 34.5967 5.74 34.65 5.74C34.7033 5.74 34.7567 5.74 34.81 5.74C34.8633 5.74 34.9 5.74 34.92 5.74C35.6067 5.68667 36.16 5.67333 36.58 5.7C37.0067 5.72667 37.31 5.78333 37.49 5.87C37.67 5.95 37.7367 6.04333 37.69 6.15C37.6367 6.25 37.48 6.34667 37.22 6.44C36.96 6.53333 36.6 6.61 36.14 6.67C35.6733 6.72333 35.1167 6.74333 34.47 6.73C34.49 7.13667 34.5067 7.45667 34.52 7.69C34.54 7.92333 34.5633 8.10667 34.59 8.24C34.61 8.37333 34.63 8.47667 34.65 8.55C34.6633 8.63 34.6867 8.72333 34.72 8.83C34.7467 8.93 34.7667 9.07 34.78 9.25C34.8 9.43 34.82 9.69333 34.84 10.04C34.7133 10.02 34.5933 10.0067 34.48 10C34.3733 9.99333 34.28 9.99 34.2 9.99C34.1267 9.99 34.07 9.98667 34.03 9.98C33.9833 9.97333 33.97 9.96 33.99 9.94ZM39.1 10.09C39.0133 9.44333 38.9567 8.8 38.93 8.16C38.91 7.51333 38.9 6.86667 38.9 6.22C38.9 5.57333 38.91 4.93 38.93 4.29C38.9433 3.65667 38.9467 3.02 38.94 2.38C38.94 2.30667 38.9667 2.25667 39.02 2.23C39.0733 2.20333 39.1367 2.19 39.21 2.19C39.2967 2.19 39.37 2.22 39.43 2.28C39.4967 2.34 39.5533 2.41333 39.6 2.5C39.6467 2.58667 39.68 2.67333 39.7 2.76C39.72 2.84667 39.73 2.91667 39.73 2.97C39.79 4.27 39.8267 5.35667 39.84 6.23C39.86 7.09667 39.86 7.79667 39.84 8.33C39.8267 8.86333 39.7967 9.26 39.75 9.52C39.71 9.77333 39.66 9.94667 39.6 10.04C39.5333 10.1267 39.4567 10.1633 39.37 10.15C39.2833 10.13 39.1933 10.11 39.1 10.09ZM40.49 7.41C40.49 6.91 40.5967 6.47333 40.81 6.1C41.03 5.72667 41.3167 5.41333 41.67 5.16C42.03 4.9 42.43 4.71 42.87 4.59C43.31 4.46333 43.7533 4.4 44.2 4.4C44.44 4.4 44.6633 4.44333 44.87 4.53C45.07 4.61667 45.2667 4.73667 45.46 4.89C45.6467 5.03667 45.81 5.21 45.95 5.41C46.0967 5.60333 46.2233 5.80667 46.33 6.02C46.4367 6.22667 46.5167 6.43667 46.57 6.65C46.6233 6.86333 46.65 7.07 46.65 7.27C46.65 7.73667 46.56 8.15333 46.38 8.52C46.1933 8.88667 45.9467 9.19333 45.64 9.44C45.3267 9.69333 44.9767 9.88667 44.59 10.02C44.1967 10.1467 43.7933 10.21 43.38 10.21C42.96 10.21 42.5767 10.1467 42.23 10.02C41.8767 9.88667 41.57 9.7 41.31 9.46C41.05 9.22667 40.8467 8.93333 40.7 8.58C40.56 8.22667 40.49 7.83667 40.49 7.41ZM41.16 7.3C41.16 7.58667 41.21 7.86 41.31 8.12C41.4167 8.37333 41.5633 8.59667 41.75 8.79C41.9367 8.98333 42.1567 9.13667 42.41 9.25C42.67 9.36333 42.9433 9.42 43.23 9.42C43.39 9.44 43.58 9.41667 43.8 9.35C44.0267 9.27667 44.25 9.17333 44.47 9.04C44.6967 8.91333 44.91 8.75667 45.11 8.57C45.3167 8.38333 45.49 8.17667 45.63 7.95C45.7633 7.73 45.8467 7.49667 45.88 7.25C45.9133 7.01 45.8733 6.77 45.76 6.53C45.64 6.29 45.43 6.05667 45.13 5.83C44.83 5.61 44.4167 5.40333 43.89 5.21C43.59 5.21 43.2767 5.25333 42.95 5.34C42.63 5.42667 42.3367 5.55667 42.07 5.73C41.8033 5.90333 41.5867 6.12333 41.42 6.39C41.2467 6.65 41.16 6.95333 41.16 7.3ZM51.78 8.89C51.4133 9.38333 51.0467 9.72667 50.68 9.92C50.3067 10.1133 49.9533 10.2 49.62 10.18C49.2933 10.16 48.98 10.04 48.68 9.82C48.3867 9.6 48.1333 9.32667 47.92 9C47.7 8.66667 47.5267 8.29333 47.4 7.88C47.2667 7.46667 47.1933 7.04667 47.18 6.62C47.1733 6.19333 47.2333 5.77667 47.36 5.37C47.48 4.96333 47.6867 4.6 47.98 4.28C48.1267 4.33333 48.2067 4.40667 48.22 4.5C48.24 4.6 48.25 4.70333 48.25 4.81C48.25 4.97 48.2333 5.12 48.2 5.26C48.1733 5.4 48.14 5.54333 48.1 5.69C48.0667 5.83667 48.0333 5.98667 48 6.14C47.9667 6.29333 47.95 6.45333 47.95 6.62C47.95 6.74 47.9633 6.88667 47.99 7.06C48.0167 7.24 48.0567 7.43 48.11 7.63C48.1567 7.83 48.2233 8.02667 48.31 8.22C48.39 8.42 48.4867 8.6 48.6 8.76C48.7133 8.92 48.84 9.05 48.98 9.15C49.1133 9.25667 49.2667 9.31 49.44 9.31C49.5933 9.31 49.7767 9.26333 49.99 9.17C50.21 9.07 50.4167 8.95 50.61 8.81C50.8033 8.66333 50.9667 8.49667 51.1 8.31C51.2333 8.13 51.3 7.95 51.3 7.77L51.38 5.99C51.38 5.96333 51.4 5.93667 51.44 5.91C51.4733 5.88333 51.51 5.85667 51.55 5.83C51.59 5.81 51.6333 5.79 51.68 5.77C51.7267 5.75 51.76 5.74 51.78 5.74C51.9067 5.74 51.9933 5.82333 52.04 5.99C52.0867 6.15667 52.1233 6.36667 52.15 6.62C52.1767 6.88 52.2067 7.15667 52.24 7.45C52.28 7.74333 52.3467 8.02 52.44 8.28C52.5333 8.54 52.6767 8.75 52.87 8.91C53.0567 9.07667 53.3233 9.16 53.67 9.16C54.0033 9.15333 54.27 9.08333 54.47 8.95C54.67 8.81667 54.8167 8.64 54.91 8.42C55.0033 8.2 55.0467 7.95667 55.04 7.69C55.0333 7.42333 54.9967 7.15333 54.93 6.88C54.8633 6.61333 54.7733 6.35667 54.66 6.11C54.5467 5.86333 54.42 5.65 54.28 5.47C54.26 5.39667 54.26 5.34333 54.28 5.31C54.3 5.27667 54.3267 5.25333 54.36 5.24C54.3867 5.22667 54.4233 5.22 54.47 5.22C54.5167 5.21333 54.5533 5.21 54.58 5.21C54.7267 5.24333 54.8833 5.36333 55.05 5.57C55.2233 5.77667 55.3733 6.02 55.5 6.3C55.6267 6.58667 55.7233 6.90333 55.79 7.25C55.8567 7.59667 55.8767 7.93667 55.85 8.27C55.8167 8.61 55.7167 8.92667 55.55 9.22C55.39 9.50667 55.14 9.74333 54.8 9.93C54.4 9.95667 54.0733 9.97 53.82 9.97C53.56 9.97667 53.3467 9.97 53.18 9.95C53.0133 9.92333 52.88 9.88333 52.78 9.83C52.68 9.77667 52.5833 9.70667 52.49 9.62C52.3967 9.53333 52.3 9.43 52.2 9.31C52.0933 9.19 51.9533 9.05 51.78 8.89ZM56.5 6.54C56.5 6.06667 56.57 5.61333 56.71 5.18C56.85 4.74667 57.0533 4.36333 57.32 4.03C57.5933 3.70333 57.9233 3.44333 58.31 3.25C58.6967 3.05 59.1433 2.95 59.65 2.95C59.95 2.99 60.2133 3.07333 60.44 3.2C60.66 3.32667 60.8433 3.48333 60.99 3.67C61.13 3.85667 61.23 4.07333 61.29 4.32C61.35 4.56 61.38 4.81667 61.38 5.09C61.38 5.41667 61.2833 5.71333 61.09 5.98C60.8967 6.24 60.6533 6.46 60.36 6.64C60.0733 6.82 59.76 6.95667 59.42 7.05C59.0867 7.14333 58.7733 7.19 58.48 7.19C58.3667 7.19 58.2533 7.19 58.14 7.19C58.0267 7.19 57.9233 7.17333 57.83 7.14C57.7433 7.1 57.6733 7.04333 57.62 6.97C57.56 6.89667 57.53 6.79 57.53 6.65C57.53 6.60333 57.5367 6.56333 57.55 6.53C57.57 6.49667 57.61 6.47333 57.67 6.46C57.7367 6.44667 57.8333 6.44333 57.96 6.45C58.0867 6.47 58.26 6.5 58.48 6.54C58.6067 6.54 58.79 6.49667 59.03 6.41C59.27 6.32333 59.5167 6.21 59.77 6.07C60.0233 5.93667 60.24 5.78 60.42 5.6C60.6 5.42 60.69 5.24333 60.69 5.07C60.69 4.89 60.66 4.71 60.6 4.53C60.54 4.35667 60.4533 4.2 60.34 4.06C60.22 3.92667 60.08 3.81667 59.92 3.73C59.76 3.65 59.58 3.62 59.38 3.64C59.06 3.66667 58.77 3.75333 58.51 3.9C58.25 4.04667 58.03 4.23333 57.85 4.46C57.67 4.69333 57.5267 4.95333 57.42 5.24C57.32 5.52 57.27 5.81667 57.27 6.13C57.27 6.36333 57.2767 6.6 57.29 6.84C57.2967 7.07333 57.33 7.30333 57.39 7.53C57.45 7.76333 57.5467 7.98333 57.68 8.19C57.8133 8.39667 58.0033 8.58 58.25 8.74C58.5033 8.9 58.82 9.03333 59.2 9.14C59.5867 9.24667 60.06 9.31333 60.62 9.34L63.07 9.17C62.9233 9.37667 62.74 9.54333 62.52 9.67C62.2933 9.79667 62.0567 9.89667 61.81 9.97C61.5567 10.05 61.3067 10.11 61.06 10.15C60.8133 10.1833 60.58 10.2 60.36 10.2C59.8333 10.2 59.3367 10.1133 58.87 9.94C58.41 9.76667 58 9.52333 57.64 9.21C57.2867 8.89667 57.0067 8.51333 56.8 8.06C56.6 7.60667 56.5 7.1 56.5 6.54ZM64.96 10.2C64.76 9.83333 64.5867 9.43667 64.44 9.01C64.2933 8.58333 64.17 8.15 64.07 7.71C63.97 7.27667 63.89 6.85 63.83 6.43C63.77 6.01667 63.73 5.64333 63.71 5.31C63.71 5.24333 63.7067 5.17 63.7 5.09C63.6933 5.01667 63.69 4.93667 63.69 4.85C63.6967 4.77 63.71 4.69333 63.73 4.62C63.7567 4.54667 63.7967 4.48333 63.85 4.43H63.88C63.8867 4.43 63.89 4.42667 63.89 4.42C63.89 4.42 63.8967 4.42 63.91 4.42C63.9167 4.42 63.92 4.42 63.92 4.42C63.92 4.42667 63.93 4.43 63.95 4.43H63.97C63.99 4.43667 64.0367 4.45667 64.11 4.49C64.1833 4.51667 64.23 4.53667 64.25 4.55C64.41 4.49667 64.5767 4.43333 64.75 4.36C64.9233 4.28 65.1 4.20667 65.28 4.14C65.46 4.06667 65.64 4.01 65.82 3.97C66 3.92333 66.1767 3.9 66.35 3.9C66.4767 3.9 66.59 3.90333 66.69 3.91C66.7833 3.91667 66.8767 3.93333 66.97 3.96C67.07 3.98 67.1733 4.00667 67.28 4.04C67.3933 4.07333 67.5233 4.11333 67.67 4.16C67.7367 4.21333 67.8 4.26333 67.86 4.31C67.92 4.36333 67.9767 4.42333 68.03 4.49C68.0767 4.55 68.1133 4.62667 68.14 4.72C68.1667 4.80667 68.18 4.92333 68.18 5.07C68.04 5.09 67.87 5.08 67.67 5.04C67.4767 5 67.2733 4.94667 67.06 4.88C66.8467 4.82 66.6233 4.76667 66.39 4.72C66.1633 4.67333 65.9467 4.65333 65.74 4.66C65.5267 4.67333 65.33 4.73333 65.15 4.84C64.9567 4.93333 64.7867 5.09667 64.64 5.33C64.58 5.59667 64.5533 5.85667 64.56 6.11C64.5733 6.36333 64.6067 6.61333 64.66 6.86C64.7133 7.1 64.7833 7.34 64.87 7.58C64.9567 7.82 65.04 8.06333 65.12 8.31C65.1933 8.55 65.2633 8.78667 65.33 9.02C65.39 9.26 65.43 9.50333 65.45 9.75C65.45 9.84333 65.4 9.94 65.3 10.04C65.2 10.1467 65.0867 10.2 64.96 10.2Z" fill="black"/>
</svg>
