<svg width="66" height="11" viewBox="0 0 66 11" fill="none" xmlns="http://www.w3.org/2000/svg">
<path d="M1.27 1.43L0.5 1.36V0.98H3.88V1.36L3.11 1.43C2.95667 1.45 2.86667 1.48667 2.84 1.54C2.81333 1.59333 2.8 1.78333 2.8 2.11V9.37C2.8 9.69667 2.81333 9.88667 2.84 9.94C2.86667 9.99333 2.95667 10.03 3.11 10.05L3.88 10.14V10.5H0.5V10.14L1.27 10.05C1.42333 10.03 1.51333 9.99333 1.54 9.94C1.56667 9.88667 1.58 9.69667 1.58 9.37V2.11C1.58 1.78333 1.56667 1.59333 1.54 1.54C1.51333 1.48667 1.42333 1.45 1.27 1.43ZM12.09 10.05L12.86 10.14V10.5H9.56V10.14L10.33 10.05C10.4767 10.03 10.5667 9.99333 10.6 9.94C10.6267 9.88667 10.64 9.69667 10.64 9.37V5.88C10.64 5.18667 10.5267 4.7 10.3 4.42C10.08 4.13333 9.76 3.99 9.34 3.99C9.02667 3.99 8.68333 4.08333 8.31 4.27C7.93667 4.45667 7.58667 4.82 7.26 5.36V9.37C7.26 9.69667 7.27667 9.88667 7.31 9.94C7.33667 9.99333 7.42333 10.03 7.57 10.05L8.34 10.14V10.5H5.04V10.14L5.81 10.05C5.95667 10.03 6.04333 9.99333 6.07 9.94C6.10333 9.88667 6.12 9.69667 6.12 9.37V4.7C6.12 4.37333 6.10333 4.18333 6.07 4.13C6.04333 4.07667 5.95667 4.04 5.81 4.02L5.04 3.95V3.57H7.19V4.7C7.53 4.25333 7.91 3.93 8.33 3.73C8.75667 3.53 9.18667 3.43 9.62 3.43C10.3067 3.43 10.84 3.64333 11.22 4.07C11.6 4.49 11.79 5.09 11.79 5.87V9.37C11.79 9.69667 11.8033 9.88667 11.83 9.94C11.8567 9.99333 11.9433 10.03 12.09 10.05ZM14.45 4.02L13.68 3.95V3.57H15.83V4.69C16.1567 4.25 16.4867 3.93 16.82 3.73C17.1533 3.53 17.49 3.43 17.83 3.43C18.13 3.43 18.41 3.52 18.67 3.7C18.9367 3.87333 19.1567 4.15667 19.33 4.55L18.42 5.1C18.28 4.76 18.1233 4.52667 17.95 4.4C17.77 4.26667 17.5733 4.2 17.36 4.2C17.1267 4.2 16.8967 4.27333 16.67 4.42C16.4367 4.57333 16.18 4.85333 15.9 5.26V9.37C15.9 9.69667 15.9133 9.89 15.94 9.95C15.9733 10.01 16.0633 10.0433 16.21 10.05L17.26 10.14V10.5H13.68V10.14L14.45 10.05C14.5967 10.03 14.6833 9.99333 14.71 9.94C14.7367 9.88667 14.75 9.69667 14.75 9.37V4.7C14.75 4.37333 14.7367 4.18333 14.71 4.13C14.6833 4.07667 14.5967 4.04 14.45 4.02ZM21.46 2C21.2333 2 21.05 1.93 20.91 1.79C20.7633 1.64333 20.69 1.45333 20.69 1.22C20.69 0.993333 20.7633 0.81 20.91 0.67C21.05 0.53 21.2333 0.46 21.46 0.46C21.6867 0.46 21.87 0.53 22.01 0.67C22.1567 0.81 22.23 0.993333 22.23 1.22C22.23 1.45333 22.1567 1.64333 22.01 1.79C21.87 1.93 21.6867 2 21.46 2ZM20.59 4.02L19.82 3.95V3.57H22.05V9.37C22.05 9.69667 22.0633 9.88667 22.09 9.94C22.1167 9.99333 22.2067 10.03 22.36 10.05L23.13 10.14V10.5H19.82V10.14L20.59 10.05C20.7433 10.03 20.8333 9.99333 20.86 9.94C20.8867 9.88667 20.9 9.69667 20.9 9.37V4.7C20.9 4.37333 20.8867 4.18333 20.86 4.13C20.8333 4.07667 20.7433 4.04 20.59 4.02ZM29.78 10.6C29.0467 10.6 28.6167 10.2633 28.49 9.59C28.1633 9.96333 27.8033 10.23 27.41 10.39C27.0167 10.5567 26.63 10.64 26.25 10.64C25.5967 10.64 25.1167 10.4567 24.81 10.09C24.4967 9.73 24.34 9.29333 24.34 8.78C24.34 8.22667 24.53 7.79 24.91 7.47C25.29 7.15 25.9467 6.99 26.88 6.99H28.46V5.85C28.46 5.10333 28.33 4.58667 28.07 4.3C27.8167 4.02 27.47 3.88 27.03 3.88C26.75 3.88 26.5 3.93667 26.28 4.05C26.0533 4.15667 25.89 4.36 25.79 4.66C25.6967 4.95333 25.6867 5.38 25.76 5.94L24.65 5.77C24.6033 5.33 24.6633 4.93667 24.83 4.59C24.99 4.23667 25.26 3.95667 25.64 3.75C26.02 3.53667 26.4933 3.43 27.06 3.43C27.74 3.43 28.2633 3.54333 28.63 3.77C28.99 4.00333 29.2433 4.3 29.39 4.66C29.5367 5.02667 29.61 5.42333 29.61 5.85V9C29.61 9.48 29.6633 9.78 29.77 9.9C29.8767 10.02 29.9967 10.08 30.13 10.08C30.21 10.08 30.2967 10.06 30.39 10.02C30.4833 9.97333 30.5867 9.90333 30.7 9.81L30.95 10.16C30.81 10.2867 30.6467 10.39 30.46 10.47C30.2667 10.5567 30.04 10.6 29.78 10.6ZM26.64 10.05C26.9 10.05 27.1833 9.98 27.49 9.84C27.79 9.69333 28.1133 9.4 28.46 8.96V7.43H27.03C26.51 7.43 26.13 7.53667 25.89 7.75C25.65 7.95667 25.53 8.28 25.53 8.72C25.53 9.14 25.6233 9.46667 25.81 9.7C25.99 9.93333 26.2667 10.05 26.64 10.05ZM38.04 10.19C38.66 10.19 39.1633 10.0367 39.55 9.73C39.9433 9.42333 40.14 8.97 40.14 8.37C40.14 7.89667 39.9933 7.5 39.7 7.18C39.4133 6.85333 38.91 6.59333 38.19 6.4L37.22 6.12C36.5133 5.92 35.9733 5.58667 35.6 5.12C35.2267 4.65333 35.04 4.08667 35.04 3.42C35.04 2.96667 35.1433 2.54667 35.35 2.16C35.5633 1.76667 35.8867 1.44667 36.32 1.2C36.7533 0.96 37.3067 0.84 37.98 0.84C38.7267 0.84 39.33 0.976667 39.79 1.25C40.2433 1.53 40.56 1.88667 40.74 2.32C40.9133 2.76 40.9533 3.23333 40.86 3.74L39.69 3.99C39.81 3.12333 39.7233 2.45667 39.43 1.99C39.1367 1.52333 38.63 1.29 37.91 1.29C37.3433 1.29 36.8967 1.44 36.57 1.74C36.2433 2.04667 36.08 2.49 36.08 3.07C36.08 3.52333 36.21 3.91 36.47 4.23C36.73 4.55667 37.19 4.81333 37.85 5L38.82 5.28C40.38 5.70667 41.16 6.61667 41.16 8.01C41.16 8.50333 41.0433 8.95 40.81 9.35C40.5833 9.74333 40.24 10.0567 39.78 10.29C39.32 10.5233 38.74 10.64 38.04 10.64C37.5533 10.64 37.0867 10.5667 36.64 10.42C36.2 10.2667 35.8233 10.01 35.51 9.65C35.1967 9.28333 34.99 8.77667 34.89 8.13L35.73 7.85C35.7767 8.47 35.91 8.94667 36.13 9.28C36.3567 9.62 36.6367 9.85667 36.97 9.99C37.31 10.1233 37.6667 10.19 38.04 10.19ZM47.64 8.69L48.38 8.9C48.2133 9.54 47.9 9.99 47.44 10.25C46.9733 10.51 46.46 10.64 45.9 10.64C44.8667 10.64 44.0933 10.3267 43.58 9.7C43.0667 9.06667 42.81 8.22333 42.81 7.17V6.89C42.81 5.84333 43.0567 5.00667 43.55 4.38C44.0433 3.74667 44.7633 3.43 45.71 3.43C46.21 3.43 46.67 3.53333 47.09 3.74C47.5033 3.94667 47.8333 4.25 48.08 4.65C48.3267 5.05 48.45 5.55 48.45 6.15C48.45 6.43 48.4233 6.72333 48.37 7.03H44.07V7.45C44.07 8.43 44.2233 9.13 44.53 9.55C44.83 9.97667 45.32 10.19 46 10.19C46.4333 10.19 46.79 10.08 47.07 9.86C47.3567 9.63333 47.5467 9.24333 47.64 8.69ZM45.71 3.88C45.1567 3.88 44.7467 4.09 44.48 4.51C44.2067 4.93 44.07 5.62 44.07 6.58H47.22V6.54C47.24 6.42 47.2533 6.3 47.26 6.18C47.2733 6.06667 47.28 5.96333 47.28 5.87C47.28 5.17 47.1333 4.66333 46.84 4.35C46.5533 4.03667 46.1767 3.88 45.71 3.88ZM50.54 4.02L49.77 3.95V3.57H51.92V4.69C52.2467 4.25 52.5767 3.93 52.91 3.73C53.2433 3.53 53.5833 3.43 53.93 3.43C54.2233 3.43 54.5033 3.52 54.77 3.7C55.03 3.87333 55.2467 4.15667 55.42 4.55L54.51 5.1C54.37 4.76 54.2133 4.52667 54.04 4.4C53.86 4.26667 53.6633 4.2 53.45 4.2C53.2167 4.2 52.9867 4.27333 52.76 4.42C52.5267 4.57333 52.27 4.85333 51.99 5.26V9.37C51.99 9.69667 52.0067 9.89 52.04 9.95C52.0667 10.01 52.1533 10.0433 52.3 10.05L53.35 10.14V10.5H49.77V10.14L50.54 10.05C50.6867 10.03 50.7733 9.99333 50.8 9.94C50.8333 9.88667 50.85 9.69667 50.85 9.37V4.7C50.85 4.37333 50.8333 4.18333 50.8 4.13C50.7733 4.07667 50.6867 4.04 50.54 4.02ZM57.55 2C57.33 2 57.1467 1.93 57 1.79C56.8533 1.64333 56.78 1.45333 56.78 1.22C56.78 0.993333 56.8533 0.81 57 0.67C57.1467 0.53 57.33 0.46 57.55 0.46C57.7767 0.46 57.96 0.53 58.1 0.67C58.2467 0.81 58.32 0.993333 58.32 1.22C58.32 1.45333 58.2467 1.64333 58.1 1.79C57.96 1.93 57.7767 2 57.55 2ZM56.68 4.02L55.91 3.95V3.57H58.14V9.37C58.14 9.69667 58.1533 9.88667 58.18 9.94C58.2067 9.99333 58.2967 10.03 58.45 10.05L59.22 10.14V10.5H55.91V10.14L56.68 10.05C56.8333 10.03 56.9233 9.99333 56.95 9.94C56.9767 9.88667 56.99 9.69667 56.99 9.37V4.7C56.99 4.37333 56.9767 4.18333 56.95 4.13C56.9233 4.07667 56.8333 4.04 56.68 4.02ZM62.63 10.05L63.68 10.14V10.5H60.1V10.14L60.87 10.05C61.0167 10.03 61.1067 9.99333 61.14 9.94C61.1667 9.88667 61.18 9.69667 61.18 9.37V4.7C61.18 4.37333 61.1667 4.18333 61.14 4.13C61.12 4.07667 61.03 4.04 60.87 4.02L60.1 3.95V3.57H61.18V2.56C61.18 2.12 61.2467 1.70667 61.38 1.32C61.5133 0.926667 61.75 0.606667 62.09 0.36C62.4233 0.12 62.8833 0 63.47 0C64.25 0 64.8267 0.21 65.2 0.63C65.5733 1.05 65.7067 1.56333 65.6 2.17L64.51 2.32C64.5967 1.68 64.5533 1.20667 64.38 0.9C64.2067 0.6 63.9033 0.45 63.47 0.45C63.23 0.45 63.0233 0.503333 62.85 0.61C62.6767 0.716667 62.5467 0.906667 62.46 1.18C62.3733 1.46 62.33 1.85667 62.33 2.37V3.57H64.55V4.02H62.33V9.37C62.33 9.69667 62.3433 9.89 62.37 9.95C62.3967 10.01 62.4833 10.0433 62.63 10.05Z" fill="black"/>
</svg>
