<svg width="58" height="11" viewBox="0 0 58 11" fill="none" xmlns="http://www.w3.org/2000/svg">
<path d="M1.72 0.39V9.91H0.5V0.39H1.72ZM7.78 3.92C7.52 3.92 7.21667 3.98333 6.87 4.11C6.51667 4.24333 6.09333 4.51 5.6 4.91V9.91H4.45V2.98H5.54V3.95C6.04 3.53 6.49333 3.24 6.9 3.08C7.3 2.92 7.68667 2.84 8.06 2.84C8.70667 2.84 9.2 3.04333 9.54 3.45C9.88 3.85667 10.05 4.43333 10.05 5.18V9.91H8.9V5.35C8.9 4.39667 8.52667 3.92 7.78 3.92ZM16.09 2.84V3.99C15.67 3.99 15.26 4.06333 14.86 4.21C14.4667 4.36333 14.0433 4.65 13.59 5.07V9.91H12.45V2.98H13.54V4.1C14.0133 3.63333 14.45 3.30667 14.85 3.12C15.2433 2.93333 15.6567 2.84 16.09 2.84ZM18.8 0V1.29H17.51V0H18.8ZM18.73 2.98V9.91H17.58V2.98H18.73ZM26.49 9.98H26.28C25.8467 9.98 25.5033 9.88333 25.25 9.69C24.99 9.49 24.81 9.24667 24.71 8.96C24.25 9.36 23.8333 9.64 23.46 9.8C23.0867 9.96667 22.7133 10.05 22.34 10.05C21.7333 10.05 21.2867 9.85333 21 9.46C20.7133 9.06667 20.57 8.58667 20.57 8.02C20.57 7.64 20.64 7.3 20.78 7C20.92 6.7 21.1567 6.46333 21.49 6.29C21.8233 6.11667 22.2767 6.03 22.85 6.03C23.1033 6.03 23.3767 6.04667 23.67 6.08C23.97 6.11333 24.2733 6.15333 24.58 6.2V5.26C24.58 4.74 24.4667 4.38333 24.24 4.19C24.0133 3.99667 23.68 3.9 23.24 3.9C22.64 3.9 21.9733 4.06333 21.24 4.39L20.87 3.44C21.3033 3.24667 21.7167 3.09667 22.11 2.99C22.4967 2.89 22.8933 2.84 23.3 2.84C23.9533 2.84 24.45 2.94667 24.79 3.16C25.1367 3.37333 25.3767 3.66 25.51 4.02C25.6367 4.37333 25.7 4.76 25.7 5.18V8.17C25.7 8.39 25.7433 8.57 25.83 8.71C25.9167 8.85667 26.0833 8.93 26.33 8.93H26.49V9.98ZM21.7 8.01C21.7 8.32333 21.7733 8.58 21.92 8.78C22.0733 8.97333 22.29 9.07 22.57 9.07C22.81 9.07 23.09 8.99667 23.41 8.85C23.7233 8.71 24.1133 8.42 24.58 7.98V7.1C23.9467 6.99333 23.3867 6.94 22.9 6.94C22.4733 6.94 22.1667 7.03 21.98 7.21C21.7933 7.38333 21.7 7.65 21.7 8.01ZM33.36 8.96C33.9467 8.96 34.4 8.83 34.72 8.57C35.04 8.31667 35.2 7.94333 35.2 7.45C35.2 7.03667 35.09 6.69 34.87 6.41C34.65 6.13 34.2933 5.91667 33.8 5.77L32.66 5.43C31.9533 5.21667 31.43 4.89333 31.09 4.46C30.7567 4.02667 30.59 3.49 30.59 2.85C30.59 2.37 30.6867 1.93333 30.88 1.54C31.0667 1.14667 31.3733 0.833333 31.8 0.6C32.2267 0.366667 32.7833 0.25 33.47 0.25C33.89 0.25 34.3267 0.3 34.78 0.4C35.2267 0.493333 35.6767 0.65 36.13 0.87L35.74 1.92C35.2933 1.72 34.89 1.57667 34.53 1.49C34.17 1.40333 33.8267 1.36 33.5 1.36C32.9667 1.36 32.5533 1.47 32.26 1.69C31.9667 1.90333 31.82 2.26333 31.82 2.77C31.82 3.13667 31.92 3.44333 32.12 3.69C32.3133 3.93667 32.6633 4.14 33.17 4.3L34.3 4.63C35.72 5.05 36.43 5.95667 36.43 7.35C36.43 8.15 36.1867 8.8 35.7 9.3C35.2133 9.8 34.4333 10.05 33.36 10.05C32.92 10.05 32.4567 9.99667 31.97 9.89C31.4767 9.78333 30.97 9.61333 30.45 9.38L30.83 8.34C31.3233 8.56667 31.77 8.72667 32.17 8.82C32.5633 8.91333 32.96 8.96 33.36 8.96ZM43.53 9.98H43.32C42.8867 9.98 42.5433 9.88333 42.29 9.69C42.03 9.49 41.85 9.24667 41.75 8.96C41.29 9.36 40.8733 9.64 40.5 9.8C40.1267 9.96667 39.7533 10.05 39.38 10.05C38.7733 10.05 38.3267 9.85333 38.04 9.46C37.7467 9.06667 37.6 8.58667 37.6 8.02C37.6 7.64 37.67 7.3 37.81 7C37.95 6.7 38.19 6.46333 38.53 6.29C38.8633 6.11667 39.3167 6.03 39.89 6.03C40.1367 6.03 40.41 6.04667 40.71 6.08C41.01 6.11333 41.3133 6.15333 41.62 6.2V5.26C41.62 4.74 41.5067 4.38333 41.28 4.19C41.0533 3.99667 40.72 3.9 40.28 3.9C39.68 3.9 39.0133 4.06333 38.28 4.39L37.91 3.44C38.3433 3.24667 38.7533 3.09667 39.14 2.99C39.5333 2.89 39.93 2.84 40.33 2.84C40.9833 2.84 41.4833 2.94667 41.83 3.16C42.1767 3.37333 42.4167 3.66 42.55 4.02C42.6767 4.37333 42.74 4.76 42.74 5.18V8.17C42.74 8.39 42.7833 8.57 42.87 8.71C42.95 8.85667 43.1167 8.93 43.37 8.93H43.53V9.98ZM38.74 8.01C38.74 8.32333 38.8133 8.58 38.96 8.78C39.1133 8.97333 39.33 9.07 39.61 9.07C39.85 9.07 40.13 8.99667 40.45 8.85C40.7633 8.71 41.1533 8.42 41.62 7.98V7.1C40.9867 6.99333 40.4267 6.94 39.94 6.94C39.5133 6.94 39.2067 7.03 39.02 7.21C38.8333 7.38333 38.74 7.65 38.74 8.01ZM48.48 3.92C48.22 3.92 47.9167 3.98333 47.57 4.11C47.2167 4.24333 46.7933 4.51 46.3 4.91V9.91H45.15V2.98H46.24V3.95C46.7333 3.53 47.1833 3.24 47.59 3.08C47.9967 2.92 48.3867 2.84 48.76 2.84C49.4067 2.84 49.9 3.04333 50.24 3.45C50.58 3.85667 50.75 4.43333 50.75 5.18V9.91H49.6V5.35C49.6 4.39667 49.2267 3.92 48.48 3.92ZM54.84 9.03C55.7733 9.03 56.24 8.71333 56.24 8.08C56.24 7.80667 56.1567 7.59 55.99 7.43C55.8167 7.27 55.5067 7.13667 55.06 7.03L54.29 6.83C53.7233 6.69 53.3 6.44667 53.02 6.1C52.74 5.74667 52.6 5.32667 52.6 4.84C52.6 4.48667 52.68 4.16 52.84 3.86C52.9933 3.55333 53.2433 3.30667 53.59 3.12C53.9367 2.93333 54.3867 2.84 54.94 2.84C55.2933 2.84 55.6533 2.88 56.02 2.96C56.3867 3.04 56.7633 3.17333 57.15 3.36L56.78 4.32C56.1 4.01333 55.4867 3.86 54.94 3.86C54.1267 3.86 53.72 4.16333 53.72 4.77C53.72 5.00333 53.7933 5.20333 53.94 5.37C54.0933 5.54333 54.3733 5.68 54.78 5.78L55.55 5.98C56.17 6.12667 56.6233 6.36667 56.91 6.7C57.1967 7.04 57.34 7.47667 57.34 8.01C57.34 8.39 57.26 8.73667 57.1 9.05C56.9333 9.36333 56.6733 9.60667 56.32 9.78C55.96 9.96 55.4767 10.05 54.87 10.05C54.4633 10.05 54.0633 10.0067 53.67 9.92C53.27 9.84 52.86 9.70667 52.44 9.52L52.75 8.57C53.15 8.72333 53.5133 8.84 53.84 8.92C54.1667 8.99333 54.5 9.03 54.84 9.03Z" fill="black"/>
</svg>
