<svg width="147.54" height="18.375" viewBox="0 0 147.54 18.375" xmlns="http://www.w3.org/2000/svg"><path transform="translate(0 14.067) scale(.013462 -.013462)" d="m80 480h80v-80h-80zm0 80h80v-80h-80zm0 80h80v-80h-80zm80 80h80v-80h-80zm80 0h80v-80h-80zm80 0h80v-80h-80zm80-80h80v-80h-80zm240 0h80v-80h-80zm0 80h80v-80h-80zm-80 0h80v-80h-80zm-400-320h80v-80h-80zm400-240h80v-80h-80zm80-80h80v-80h-80zm0-80h80v-80h-80zm0-80h80v-80h-80zm-80-80h80v-80h-80zm-80 0h80v-80h-80zm-80 0h80v-80h-80zm-80 0h80v-80h-80zm-80 80h80v-80h-80zm0 80h80v-80h-80zm-80 80h80v-80h-80zm-80 0h80v-80h-80zm0-80h80v-80h-80zm480 560h80v-80h-80zm-80-80h80v-80h-80zm160 0h80v-80h-80zm-80-80h80v-80h-80zm0-80h80v-80h-80zm0-80h80v-80h-80zm-80 400h80v-80h-80zm-240-160h80v-80h-80z"/><path transform="translate(9.6923 14.067) scale(.013462 -.013462)" d="m80 80h80v-80h-80zm80 80h80v-80h-80zm0 80h80v-80h-80zm0 80h80v-80h-80zm0 80h80v-80h-80zm80 80h80v-80h-80zm80 0h80v-80h-80zm160 0h80v-80h-80zm-80-80h80v-80h-80zm0-80h80v-80h-80zm0-80h80v-80h-80zm0-80h80v-80h-80zm-160-80h80v-80h-80zm80 80h80v-80h-80zm160-80h80v-80h-80z"/><path transform="translate(17.231 14.067) scale(.013462 -.013462)" d="m240 480h80v-80h-80zm80 0h80v-80h-80zm80-80h80v-80h-80zm-240 0h80v-80h-80zm0-80h80v-80h-80zm0-80h80v-80h-80zm0-80h80v-80h-80zm-80-80h80v-80h-80zm160 0h80v-80h-80zm80 0h80v-80h-80zm80 80h80v-80h-80z"/><path transform="translate(23.692 14.067) scale(.013462 -.013462)" d="m80 80h80v-80h-80zm80 80h80v-80h-80zm0 80h80v-80h-80zm0 80h80v-80h-80zm0 80h80v-80h-80zm80 80h80v-80h-80zm80 0h80v-80h-80zm160 0h80v-80h-80zm-80-80h80v-80h-80zm0-80h80v-80h-80zm0-80h80v-80h-80zm0-80h80v-80h-80zm0-80h80v-80h-80zm0-80h80v-80h-80zm0-80h80v-80h-80zm80-80h80v-80h-80zm-240 240h80v-80h-80zm80 0h80v-80h-80z"/><path transform="translate(31.231 14.067) scale(.013462 -.013462)" d="m80 400h80v-80h-80zm80 80h80v-80h-80zm80-80h80v-80h-80zm0-80h80v-80h-80zm0-80h80v-80h-80zm0-80h80v-80h-80zm80-80h80v-80h-80zm-160 0h80v-80h-80zm320 80h80v-80h-80zm-80 0h80v-80h-80zm160-80h80v-80h-80zm80 80h80v-80h-80zm-160 80h80v-80h-80zm0 80h80v-80h-80zm0 80h80v-80h-80zm0 80h80v-80h-80zm80-80h80v-80h-80zm80 80h80v-80h-80z"/><path transform="translate(40.923 14.067) scale(.013462 -.013462)" d="m80 80h80v-80h-80zm80 80h80v-80h-80zm0 80h80v-80h-80zm0 80h80v-80h-80zm0 80h80v-80h-80zm80 80h80v-80h-80zm80 0h80v-80h-80zm160 0h80v-80h-80zm-80-80h80v-80h-80zm0-80h80v-80h-80zm0-80h80v-80h-80zm0-80h80v-80h-80zm-160-80h80v-80h-80zm80 80h80v-80h-80zm160-80h80v-80h-80z"/><path transform="translate(48.462 14.067) scale(.013462 -.013462)" d="m240 240h80v-80h-80zm0 80h80v-80h-80zm0 80h80v-80h-80zm-80 80h80v-80h-80zm-80-80h80v-80h-80zm240 80h80v-80h-80zm80 0h80v-80h-80zm80-80h80v-80h-80zm-240-240h80v-80h-80zm-80-80h80v-80h-80zm240 80h80v-80h-80zm-80-80h80v-80h-80z"/><path transform="translate(56 14.067) scale(.013462 -.013462)" d="m80 80h80v-80h-80zm80 80h80v-80h-80zm0 80h80v-80h-80zm0 80h80v-80h-80zm0 80h80v-80h-80zm80 80h80v-80h-80zm80 80h80v-80h-80zm-80 80h80v-80h-80zm-80 80h80v-80h-80zm240-240h80v-80h-80zm0-80h80v-80h-80zm0-80h80v-80h-80zm0-80h80v-80h-80zm0-80h80v-80h-80zm-160-80h80v-80h-80zm80 0h80v-80h-80z"/><path transform="translate(62.462 14.067) scale(.013462 -.013462)" d="m80 80h80v-80h-80zm80 80h80v-80h-80zm0 80h80v-80h-80zm0 80h80v-80h-80zm0 80h80v-80h-80zm80 80h80v-80h-80zm80 0h80v-80h-80zm160 0h80v-80h-80zm-80-80h80v-80h-80zm0-80h80v-80h-80zm0-80h80v-80h-80zm0-80h80v-80h-80zm-160-80h80v-80h-80zm80 80h80v-80h-80zm160-80h80v-80h-80z"/><path transform="translate(75.385 14.067) scale(.013462 -.013462)" d="m80 400h80v-80h-80zm80 0h80v-80h-80zm0 80h80v-80h-80zm-80 80h80v-80h-80zm0 80h80v-80h-80zm80 80h80v-80h-80zm80 0h80v-80h-80zm80-80h80v-80h-80zm80 80h80v-80h-80zm80 0h80v-80h-80zm80 0h80v-80h-80zm80-80h80v-80h-80zm0-80h80v-80h-80zm80 80h80v-80h-80zm0 80h80v-80h-80zm80 0h80v-80h-80zm-240-160h80v-80h-80zm-80-80h80v-80h-80zm-80 0h80v-80h-80zm-80 80h80v-80h-80zm0-80h80v-80h-80zm0-80h80v-80h-80zm0-80h80v-80h-80zm0-80h80v-80h-80zm80-160h80v-80h-80zm80 0h80v-80h-80zm-160 80h80v-80h-80zm-80 80h80v-80h-80zm-80 0h80v-80h-80zm-80-80h80v-80h-80zm0-80h80v-80h-80zm80 0h80v-80h-80zm400 0h80v-80h-80zm80 0h80v-80h-80zm80 80h80v-80h-80zm80 80h80v-80h-80zm0 80h80v-80h-80zm0 80h80v-80h-80zm-80 80h80v-80h-80z"/><path transform="translate(87.231 14.067) scale(.013462 -.013462)" d="m80 80h80v-80h-80zm80 80h80v-80h-80zm0 80h80v-80h-80zm0 80h80v-80h-80zm0 80h80v-80h-80zm80 80h80v-80h-80zm80 0h80v-80h-80zm160 0h80v-80h-80zm-80-80h80v-80h-80zm0-80h80v-80h-80zm0-80h80v-80h-80zm0-80h80v-80h-80zm-160-80h80v-80h-80zm80 80h80v-80h-80zm160-80h80v-80h-80z"/><path transform="translate(94.769 14.067) scale(.013462 -.013462)" d="m240 480h80v-80h-80zm80 0h80v-80h-80zm160 0h80v-80h-80zm-80-80h80v-80h-80zm-80-80h80v-80h-80zm-80-80h80v-80h-80zm-80-80h80v-80h-80zm-80-80h80v-80h-80zm80 320h80v-80h-80zm0-80h80v-80h-80zm240-80h80v-80h-80zm0-80h80v-80h-80zm-80-80h80v-80h-80zm-80 0h80v-80h-80z"/><path transform="translate(102.31 14.067) scale(.013462 -.013462)" d="m320 160h80v-80h-80zm-80-80h80v-80h-80zm-80 80h80v-80h-80zm0 80h80v-80h-80zm0 80h80v-80h-80zm0 80h80v-80h-80zm-80 80h80v-80h-80zm160 0h80v-80h-80zm-80 80h80v-80h-80zm80 80h80v-80h-80zm-80-160h80v-80h-80zm160 0h80v-80h-80z"/><path transform="translate(107.69 14.067) scale(.013462 -.013462)" d="m80 80h80v-80h-80zm80 80h80v-80h-80zm0 80h80v-80h-80zm0 80h80v-80h-80zm0 80h80v-80h-80zm80 80h80v-80h-80zm80 0h80v-80h-80zm160 0h80v-80h-80zm-80-80h80v-80h-80zm0-80h80v-80h-80zm0-80h80v-80h-80zm0-80h80v-80h-80zm-160-80h80v-80h-80zm80 80h80v-80h-80zm160-80h80v-80h-80z"/><path transform="translate(115.23 14.067) scale(.013462 -.013462)" d="m240 240h80v-80h-80zm0 80h80v-80h-80zm0 80h80v-80h-80zm-80 80h80v-80h-80zm-80-80h80v-80h-80zm240 80h80v-80h-80zm80 0h80v-80h-80zm80-80h80v-80h-80zm-240-240h80v-80h-80zm-80-80h80v-80h-80zm240 80h80v-80h-80zm-80-80h80v-80h-80z"/><path transform="translate(122.77 14.067) scale(.013462 -.013462)" d="m80 80h80v-80h-80zm80 80h80v-80h-80zm0 80h80v-80h-80zm0 80h80v-80h-80zm0 80h80v-80h-80zm80 80h80v-80h-80zm80 80h80v-80h-80zm-80 80h80v-80h-80zm-80 80h80v-80h-80zm240-240h80v-80h-80zm0-80h80v-80h-80zm0-80h80v-80h-80zm0-80h80v-80h-80zm0-80h80v-80h-80zm-160-80h80v-80h-80zm80 0h80v-80h-80z"/><path transform="translate(129.23 14.067) scale(.013462 -.013462)" d="m80 80h80v-80h-80zm80 80h80v-80h-80zm0 80h80v-80h-80zm0 80h80v-80h-80zm0 80h80v-80h-80zm80 80h80v-80h-80zm80 0h80v-80h-80zm160 0h80v-80h-80zm-80-80h80v-80h-80zm0-80h80v-80h-80zm0-80h80v-80h-80zm0-80h80v-80h-80zm-160-80h80v-80h-80zm80 80h80v-80h-80zm160-80h80v-80h-80z"/><path transform="translate(142.15 14.067) scale(.013462 -.013462)" d="m400 160h-80v80h80zm0 80h-80v80h80zm0 80h-80v80h80zm0 80h-80v80h80zm-160 160h-80v80h80zm80-560h-80v80h80zm-80 0h-80v80h80zm-80 80h-80v80h80zm240 400h-80v80h80zm-80 80h-80v80h80zm-160-80h-80v80h80zm0-80h-80v80h80zm0-80h-80v80h80zm80-80h-80v80h80zm80 0h-80v80h80zm0-80h80v-80h-80z"/></svg>