<svg width="179.01" height="18.464" viewBox="0 0 179.01 18.464" xmlns="http://www.w3.org/2000/svg"><path transform="translate(0 14.321) scale(.0068359 -.0068359)" d="m563 768q0 246 10 559 2 76 334 96 6 19 0 47-262-8-409-8-123 0-348 8-9-18 0-47 229-22 231-96 10-235 10-559v-713q0-291-42-407.5t-175-116.5q-96 0-147.5 52t-51.5 120q0 53 27 84t64 31q34 0 59-25 25 6 33 35-37 53-109 53t-116-46-44-128q0-96 75-167.5t210-71.5q55 0 100 12t82 39.5 65 61.5 49.5 92.5 36.5 114.5 25.5 144 16.5 167 9 198 4 220 1 251zm-364-1341q-172 0-260.5 81.5t-90.5 198.5q-2 103 58.5 160t140.5 57q76 0 131-51t55-141q0-39-12-65.5t-26.5-42-16.5-21.5q8-19 35-27 84 18 110.5 127t26.5 352v713q0 322-10 557-2 37-223 59-17 66 4 129 176-10 448-10 41 0 164 2t215 2q19-57 2-123-221-22-223-59-12-250-12-631 0-162-4-286.5t-17.5-262-36-238-61.5-195.5-93-154.5-131-95-173-35.5z"/><path transform="translate(6.918 14.321) scale(.0068359 -.0068359)" d="m330 727q47-8 74.5-36.5t27.5-72.5q0-53-35-87.5t-92-34.5q-59 0-107 42t-48 119q0 131 124.5 212t325.5 81q191 0 268.5-76.5t77.5-257.5v-350l64 2q82-6 114-78l-32-55q-31-47-51.5-72.5t-58.5-57.5-89-46-119-14q-84 0-127 63-108-78-282-78-76 0-129.5 23.5t-78 62.5-34.5 73-10 69q0 147 99 220t400 150v109q0 80-33.5 117t-86.5 37q-113 0-162-64zm323-293v-209q-96-127-196-127-58 0-94.5 28t-36.5 79q0 82 67.5 135t259.5 94zm-41-196v122q-145-53-145-155 0-43 31-60 53 19 114 93zm-307 346q-35 0-49 51-20 82 49 143 68 60 205 60 65 0 104-50.5t39-150.5v-139q-295-76-397-143.5t-102-196.5q0-68 46-127.5t165-59.5q47 0 88.5 15t86 48.5 54.5 42.5 33.5 31.5 25.5 24.5q13-147 121-147 27 0 62 14t70.5 55 45 54.5 28.5 43 28 40.5q-13 28-50 32-55-84-112-82-41 2-41 58v415q0 160-62.5 226.5t-214.5 66.5q-137 0-237.5-70.5t-100.5-181.5q0-57 35-88.5t80-31.5q14 20 0 47z"/><path transform="translate(14.745 14.321) scale(.0068359 -.0068359)" d="m856 694q0-61-51-76-14-26 0-47 51 0 86 35t35 88q0 94-88 154.5t-230 60.5q-198 0-331.5-134t-133.5-351q0-225 124-339t292-114q123 0 228.5 66.5t154.5 200.5q-14 16-39 22-26-37-42.5-54.5t-53.5-49-83-46-101-14.5q-156 0-228.5 91.5t-72.5 236.5q0 420 286 420 115 0 181.5-38t66.5-112zm29-395q67-8 104-55-57-156-176-235t-254-79q-182 0-319.5 124t-137.5 370q0 235 144.5 380.5t361.5 145.5q160 0 259.5-71.5t99.5-184.5q0-69-46.5-110t-115.5-41q-125 0-125 110 0 70 86 101-57 39-119 45-184-27-184-375 0-262 194-285 117 15 228 160z"/><path transform="translate(22.196 14.321) scale(.0068359 -.0068359)" d="m588 102q-133 0-202 96.5t-69 243.5q0 119 28 204t73 125 87 56.5 85 16.5q141 0 211-129 0-291 2-488-121-125-215-125zm211-497q-2-74-170-97-11-24 0-49 284 6 571 0 10 25 0 49-237 23-239 97-9 223-9 1200 0 26-30 39-150 65-297 65-125 0-222.5-47t-151.5-123.5-81-161.5-27-174q0-200 97.5-316t251.5-116q141 0 311 179 0-447-4-545zm303 2q2-45 135-62 16-61 0-120-324 10-645 0-17 59 0 120 164 17 166 62 4 96 4 391-100-68-240-68-196 0-308 125t-112 348q0 97 29 188t88.5 175 170 134 257.5 50q219 0 387-65 43-17 60-70 0-997 8-1208zm-342 1095q-47 82-129 97-70-15-121-96.5t-51-260.5q0-114 41-195t118-100q64 17 144 97-2 192-2 458z"/><path transform="translate(30.748 14.321) scale(.0068359 -.0068359)" d="m786 242q8 250 0 501 0 35-151 60-23 61 0 121h432q28-11 40.5-24t22.5-38q0-18-5-57t-5-62q-10-329 0-573 72-23 152-27 22-59 0-127-131-8-324-90-109 8-162 66v26q-137-88-325-88-136 0-193 74t-59 232q2 251 0 507 0 35-152 60-22 61 0 121h434q29-11 41.5-24t22.5-38q0-18-5-57t-5-62q-7-233 0-475 4-114 41-133 73 19 200 107zm41 501q6-260 0-522-186-133-287-133-137 0-137 180-6 242 0 475 0 27 5.5 65t5.5 48q-11 23-29 31-148-10-295 0-8-23 0-47 158-25 160-97 2-254 0-507-2-136 47-200.5t164-64.5q151 0 366 187v-146q8-16 35-26 143 53 371 71 8 25 0 47-172 7-254 41-8 357 0 598 0 27 5 65t5 48q-10 23-29 31-145-8-293 0-8-23 0-47 158-25 160-97z"/><path transform="translate(39.99 14.321) scale(.0068359 -.0068359)" d="m565 844q80 0 116-51.5t36-128.5q0-29-10-66h-390q31 125 100.5 185.5t147.5 60.5zm-258-314h545q16 50 16 103 0 117-66.5 196.5t-211.5 79.5q-189 0-318-137t-129-348q0-225 123-339t289-114q123 0 228.5 66.5t154.5 200.5q-14 16-39 22-4-6-23.5-32.5t-28.5-38-32.5-33-45-31.5-54.5-19.5-72-9.5q-154 0-245 91.5t-95 246.5q0 35 4 96zm576-223q63-14 102-63-57-156-176-235t-254-79q-184 0-318.5 124t-134.5 370q0 223 137.5 374.5t389.5 151.5q381 0 381-317 0-62-29-144h-537v-65q5-121 66-196.5t168-88.5q63 6 104 43t101 125zm-207 357q0 110-74 133-88-27-131-158h203q0 4 1 12t1 13z"/><path transform="translate(47.551 14.321) scale(.0068359 -.0068359)" d="m254-12q-48-16-94-39-47 29-62 59 2 6 6 41t8.5 82 7.5 97 3 85q47 22 145 22 11 0 22 0t23-1q72-234 197-254 51 8 78.5 37.5t27.5 66.5q0 27-15 50.5t-40 43.5-58.5 37-70.5 33.5-75 32-73 32.5q-37 17-70 41.5t-58 56-39.5 69.5-14.5 82q0 47 16 98t55 93 105 69.5 166 27.5q111 0 164-12l37 12h68q13-85 31.5-159t41.5-138q-43-43-104-43-34 40-63 72.5t-55.5 56.5-52 39-52.5 21q-66-11-66-60 0-39 34-68t85-53 111.5-45.5 114.5-45.5q39-17 73.5-44t60.5-62.5 41-79 15-93.5q0-74-37.5-133t-99-100-140.5-63-161-22q-141 0-236 58zm229-17q125 0 214 74t89 166q0 90-55 155.5t-133 101.5-157 66.5-134 71.5-55 96q0 70 52 106t122 36q74 0 132-46t142-147q27 0 39 13-37 106-109.5 175.5t-185.5 69.5q-161 0-231-76.5t-70-170.5q0-80 53.5-136.5t129-87 150.5-60.5 128-78 53-116q0-57-49-102t-137-45q-106 0-163.5 67.5t-96.5 188.5q-35 0-47-6 0-72-7-165t-14-110q7-10 19-18 41 29 63 61 88-49 137.5-66.5t120.5-17.5z"/><path transform="translate(58.051 14.321) scale(.0068359 -.0068359)" d="m811 641h-139q0-238 10-504 0-6 5-11t14.5-10 32.5-13 93-17.5 80-11.5q17-56-6-123-369 8-448 8-54 0-377-8-25 69 0 129 217 22 219 59 12 250 12 629 0 322-10 557-2 37-223 59-19 70 4 129 307-10 407-10h926q25-196 156-413-23-48-107-78-82 149-241.5 248.5t-413.5 99.5h-123q-10-359-10-551 49-2 141-2 84 0 134 56.5t110 176.5l43 84q84-30 106-77-106-191-106-314 0-133 106-313-24-51-102-78-23 31-53 94-41 68-65 101.5t-71 67.5-104 36zm-293 59 285 2q43 0 81-14t60.5-28.5 52-55.5 42-59.5 42-76.5 39.5-75q31 13 39 27-100 178-100 313 0 62 28.5 151t71.5 163q-4 14-39 26-8-14-31.5-60t-30.5-59.5-28.5-49.5-34-48-36-35.5-45-32-50.5-15.5-61-7q-187 0-285 4 0 242 12 631h277q489 0 672-338 26 10 34 27-100 204-224 288t-370 84h-462q-125 0-351 8v-47q230-22 232-96 10-235 10-559 0-317-12-631-2-74-232-96-8-16 0-47 170 6 349 6 213 0 409-6 8 16 0 47-330 20-334 96-10 236-10 563z"/><path transform="translate(69.057 14.321) scale(.0068359 -.0068359)" d="m448 563q25 92 103 179t159 87q95 0 95-61 0-55-52-70-14-20 0-47 54 0 88.5 33t34.5 92q0 62-37.5 97.5t-97.5 35.5q-78 0-156.5-62.5t-136.5-139.5v172q-8 16-34 26-134-63-310-82-6-24 0-47 135-6 193-41 8-373-2-598-2-74-170-96-15-27 0-47 262 12 571 0 14 20 0 47-237 22-239 96-9 203-9 426zm150-424q2-39 135-61 33-66-4-127-424 14-641 6-37 59-4 121 168 22 170 61 12 285 2 572-66 20-182 26-23 60 0 127 167 10 354 90 108-12 162-65 84 61 151 61 78 0 127-46t49-128q0-78-46-122t-118-44q-67 0-112 45-41-55-51-100 0-217 8-416z"/><path transform="translate(75.934 14.321) scale(.0068359 -.0068359)" d="m330 727q47-8 74.5-36.5t27.5-72.5q0-53-35-87.5t-92-34.5q-59 0-107 42t-48 119q0 131 124.5 212t325.5 81q191 0 268.5-76.5t77.5-257.5v-350l64 2q82-6 114-78l-32-55q-31-47-51.5-72.5t-58.5-57.5-89-46-119-14q-84 0-127 63-108-78-282-78-76 0-129.5 23.5t-78 62.5-34.5 73-10 69q0 147 99 220t400 150v109q0 80-33.5 117t-86.5 37q-113 0-162-64zm323-293v-209q-96-127-196-127-58 0-94.5 28t-36.5 79q0 82 67.5 135t259.5 94zm-41-196v122q-145-53-145-155 0-43 31-60 53 19 114 93zm-307 346q-35 0-49 51-20 82 49 143 68 60 205 60 65 0 104-50.5t39-150.5v-139q-295-76-397-143.5t-102-196.5q0-68 46-127.5t165-59.5q47 0 88.5 15t86 48.5 54.5 42.5 33.5 31.5 25.5 24.5q13-147 121-147 27 0 62 14t70.5 55 45 54.5 28.5 43 28 40.5q-13 28-50 32-55-84-112-82-41 2-41 58v415q0 160-62.5 226.5t-214.5 66.5q-137 0-237.5-70.5t-100.5-181.5q0-57 35-88.5t80-31.5q14 20 0 47z"/><path transform="translate(83.761 14.321) scale(.0068359 -.0068359)" d="m749 46q-12-23 0-49 260 6 521 0 14 24 0 49-244 12-246 96l-10 503q-5 137-44.5 200.5t-138.5 63.5q-166 0-395-229v199q-8 16-35 26-139-65-289-82-6-24 0-47 115-6 170-41 11-299 0-593-2-74-172-96-12-23 0-49 260 10 523 0 12 26 0 49-187 20-189 96-8 208-8 474 201 177 315 177 109 0 109-181l-2-470q0-49-30-68.5t-79-27.5zm-32-84q-25 59 0 121 32 0 66 17.5t34 41.5l2 470q0 109-43 133-74-18-199-108 0-275 8-493 5-53 80-61 25-62 0-121-293 10-589 0-25 59 0 121 163 22 165 61 11 282 0 567-67 20-165 26-23 60 0 127 151 8 340 90 108-8 161-65v-33q142 94 326 94 135 0 192.5-73.5t59.5-231.5q4-397 10-503 2-41 141-59 23-66-4-121-293 6-585 0z"/><path transform="translate(92.976 14.321) scale(.0068359 -.0068359)" d="m856 694q0-61-51-76-14-26 0-47 51 0 86 35t35 88q0 94-88 154.5t-230 60.5q-198 0-331.5-134t-133.5-351q0-225 124-339t292-114q123 0 228.5 66.5t154.5 200.5q-14 16-39 22-26-37-42.5-54.5t-53.5-49-83-46-101-14.5q-156 0-228.5 91.5t-72.5 236.5q0 420 286 420 115 0 181.5-38t66.5-112zm29-395q67-8 104-55-57-156-176-235t-254-79q-182 0-319.5 124t-137.5 370q0 235 144.5 380.5t361.5 145.5q160 0 259.5-71.5t99.5-184.5q0-69-46.5-110t-115.5-41q-125 0-125 110 0 70 86 101-57 39-119 45-184-27-184-375 0-262 194-285 117 15 228 160z"/><path transform="translate(100.43 14.321) scale(.0068359 -.0068359)" d="m573 844q103 0 163.5-98.5t60.5-305.5-60.5-305-163.5-98q-57 0-103.5 24t-79 74-50.5 125.5-18 179.5q0 103 18 179.5t50.5 126 79 74 103.5 24.5zm0-873q93 0 167 35t126.5 97.5 80.5 148.5 28 188-28 188-80.5 148.5-126.5 97.5-167 35q-99 0-179-35t-135.5-97-85.5-148.5-30-188.5q0-103 30-189t85.5-148.5 135.5-97 179-34.5zm35 979q121 0 215.5-37t159.5-104.5 99-161.5 34-207q0-112-34-206t-98.5-161.5-159.5-105-216-37.5q-120 0-214.5 37.5t-159 105-98.5 161-34 206.5 34 207 99 161.5 159 104.5 214 37zm-145-510q0-323 145-358 148 35 148 358 0 320-148 359-145-39-145-359z"/><path transform="translate(108.71 14.321) scale(.0068359 -.0068359)" d="m370 1405q226 0 226-164t-226-164q-34 0-63.5 13t-51.5 35.5-35 52.5-13 63 13 63 35 52.5 51.5 35.5 63.5 13zm-92-78q-30-35-30-86 0-26 8.5-48.5t23.5-39 34.5-26 41.5-9.5q21 0 41 9.5t35 26 24 39 9 48.5-9 48.5-24 39-35 26-41 9.5-41-9-37-28zm404-1281q-238 22-240 96-10 300-8 737-8 16-35 26-139-65-289-82-6-24 0-47 113-6 172-41 9-373-2-593-2-74-170-96-10-25 0-49 287 6 572 0 10 24 0 49zm37 37q16-62 0-121-322 10-645 0-17 59 0 121 163 16 165 61 13 280 2 567-67 20-167 26-23 60 0 127 151 8 340 90 108-8 161-65-4-492 8-745 3-45 136-61z"/><path transform="translate(114.04 14.321) scale(.0068359 -.0068359)" d="m254-12q-48-16-94-39-47 29-62 59 2 6 6 41t8.5 82 7.5 97 3 85q47 22 145 22 11 0 22 0t23-1q72-234 197-254 51 8 78.5 37.5t27.5 66.5q0 27-15 50.5t-40 43.5-58.5 37-70.5 33.5-75 32-73 32.5q-37 17-70 41.5t-58 56-39.5 69.5-14.5 82q0 47 16 98t55 93 105 69.5 166 27.5q111 0 164-12l37 12h68q13-85 31.5-159t41.5-138q-43-43-104-43-34 40-63 72.5t-55.5 56.5-52 39-52.5 21q-66-11-66-60 0-39 34-68t85-53 111.5-45.5 114.5-45.5q39-17 73.5-44t60.5-62.5 41-79 15-93.5q0-74-37.5-133t-99-100-140.5-63-161-22q-141 0-236 58zm229-17q125 0 214 74t89 166q0 90-55 155.5t-133 101.5-157 66.5-134 71.5-55 96q0 70 52 106t122 36q74 0 132-46t142-147q27 0 39 13-37 106-109.5 175.5t-185.5 69.5q-161 0-231-76.5t-70-170.5q0-80 53.5-136.5t129-87 150.5-60.5 128-78 53-116q0-57-49-102t-137-45q-106 0-163.5 67.5t-96.5 188.5q-35 0-47-6 0-72-7-165t-14-110q7-10 19-18 41 29 63 61 88-49 137.5-66.5t120.5-17.5z"/><path transform="translate(124.54 14.321) scale(.0068359 -.0068359)" d="m678 1544q143 0 263-40t216-52q-53-186-4-401-51-43-117-50-8 19-28.5 79.5t-39 99.5-51 89-86 79.5-122.5 40.5q-101-9-156-62t-55-137q0-86 44-141.5t114.5-83 155.5-48 169-50 154.5-77 114.5-141.5 44-229q0-164-95-282t-224-169-264-51q-297 0-588 131 6 129 6 158 0 162-31 348 90 43 201 4 37-227 143.5-348t233.5-135q119 8 183.5 77.5t64.5 176.5q0 90-42 152.5t-111 97-149.5 62.5-162.5 59.5-150.5 75.5-110.5 123-42 192q0 102 32.5 183t85 130 123 82 140 45 141.5 12zm0-41q-84 0-163-19.5t-153.5-63.5-119.5-129-45-199q0-101 42-173.5t110.5-112.5 150.5-70.5 162.5-61.5 149.5-70 111-108.5 42-165.5q0-133-85-215t-241-82q-150 0-279 125t-170 374q-20 13-47 0 27-157 27-325 0-47-4-133 248-115 473-115 186 0 344 110.5t158 309.5q0 113-44 191.5t-115 122.5-156 76-169 60.5-154.5 63.5-114.5 99.5-44 156.5q0 129 87 206t247 77q278 0 383-385 31-5 43 14-33 244-144.5 343t-281.5 99z"/><path transform="translate(134.05 14.321) scale(.0068359 -.0068359)" d="m739 46q-12-23 0-49 260 6 520 0 15 24 0 49-243 12-245 96l-11 503q-4 137-44 200.5t-138 63.5q-166 0-395-229v817q-8 16-35 27-139-66-289-82-6-25 0-47 115-6 170-41v-1212q-2-74-172-96-12-23 0-49 262 10 522 0 13 26 0 49-186 20-188 96-8 213-8 474 200 177 315 177 109 0 109-181l-2-470q0-49-30-68.5t-79-27.5zm-33-84q-24 59 0 121 33 0 67 17.5t34 41.5l2 470q0 109-43 133-74-18-199-108 0-270 8-493 4-53 80-61 25-62 0-121-293 10-590 0-24 59 0 121 164 22 166 61v1185q-67 21-166 27-22 59 0 127 152 8 340 90 109-8 162-66v-651q141 94 326 94 135 0 192.5-73.5t59.5-231.5q4-392 10-503 2-41 141-59 23-66-4-121-293 6-586 0z"/><path transform="translate(143.15 14.321) scale(.0068359 -.0068359)" d="m330 727q47-8 74.5-36.5t27.5-72.5q0-53-35-87.5t-92-34.5q-59 0-107 42t-48 119q0 131 124.5 212t325.5 81q191 0 268.5-76.5t77.5-257.5v-350l64 2q82-6 114-78l-32-55q-31-47-51.5-72.5t-58.5-57.5-89-46-119-14q-84 0-127 63-108-78-282-78-76 0-129.5 23.5t-78 62.5-34.5 73-10 69q0 147 99 220t400 150v109q0 80-33.5 117t-86.5 37q-113 0-162-64zm323-293v-209q-96-127-196-127-58 0-94.5 28t-36.5 79q0 82 67.5 135t259.5 94zm-41-196v122q-145-53-145-155 0-43 31-60 53 19 114 93zm-307 346q-35 0-49 51-20 82 49 143 68 60 205 60 65 0 104-50.5t39-150.5v-139q-295-76-397-143.5t-102-196.5q0-68 46-127.5t165-59.5q47 0 88.5 15t86 48.5 54.5 42.5 33.5 31.5 25.5 24.5q13-147 121-147 27 0 62 14t70.5 55 45 54.5 28.5 43 28 40.5q-13 28-50 32-55-84-112-82-41 2-41 58v415q0 160-62.5 226.5t-214.5 66.5q-137 0-237.5-70.5t-100.5-181.5q0-57 35-88.5t80-31.5q14 20 0 47z"/><path transform="translate(150.98 14.321) scale(.0068359 -.0068359)" d="m580 102q-119 0-180.5 96.5t-61.5 243.5q0 119 24.5 204t64.5 125 78 56.5 77 16.5q141 0 211-119v-145q0-273-2-371-111-107-211-107zm653-22q33-66-4-127-256 8-430 0-37 16-47 41-97-64-269-64-170 0-275.5 127t-105.5 346q0 97 29 189t87 174 161.5 133 236.5 51q91 0 136-4-2 158-2 379-66 21-183 27-22 59 0 127 140 12 355 90 108-8 161-66 0-1141 9-1364 2-43 141-59zm-481 635q-50 71-131 84-70-15-120-96.5t-50-260.5q0-116 40.5-197t122.5-98q66 15 136 78 2 99 2 355zm444-672q-51 4-77.5 8t-74 14.5-71 28-23.5 43.5q-8 223-8 1356-10 18-35 27-133-64-309-82-6-25 0-47 135-7 193-41 0-283 2-473-103 32-177 32-118 0-208.5-47t-141.5-123.5-76.5-161.5-25.5-174q0-200 89-316t214-116q158 0 321 162 0-84-4-108 11-23 25-31 33 2 65.5 4t52 3 34.5 1q55 0 235-6 14 20 0 47z"/><path transform="translate(159.85 14.321) scale(.0068359 -.0068359)" d="m573 844q103 0 163.5-98.5t60.5-305.5-60.5-305-163.5-98q-57 0-103.5 24t-79 74-50.5 125.5-18 179.5q0 103 18 179.5t50.5 126 79 74 103.5 24.5zm0-873q93 0 167 35t126.5 97.5 80.5 148.5 28 188-28 188-80.5 148.5-126.5 97.5-167 35q-99 0-179-35t-135.5-97-85.5-148.5-30-188.5q0-103 30-189t85.5-148.5 135.5-97 179-34.5zm35 979q121 0 215.5-37t159.5-104.5 99-161.5 34-207q0-112-34-206t-98.5-161.5-159.5-105-216-37.5q-120 0-214.5 37.5t-159 105-98.5 161-34 206.5 34 207 99 161.5 159 104.5 214 37zm-145-510q0-323 145-358 148 35 148 358 0 320-148 359-145-39-145-359z"/><path transform="translate(168.14 14.321) scale(.0068359 -.0068359)" d="m1084 887h-499q-11-23 0-47 90-17 114-97l41-108-182-402h-4l-205 510q-16 41 17.5 61.5t111.5 35.5q10 24 0 47h-483q-11-23 0-47 133-21 166-97l317-772h47l254 561 217-561h47l336 772q37 88 154 97 10 24 0 47h-340q-10-23 0-47 28-2 47.5-7.5t38-15.5 19.5-27.5-7-46.5l-215-510h-4l-184 510q0 15-5.5 27t5 21.5 14.5 15.5 22.5 11 31 8 38 6.5 43 4.5 47.5 3q10 24 0 47zm-528 37h557q33-64 0-121-25-2-35-4t-29.5-5-24.5-7.5-15.5-11.5-6.5-16 4-24l111-299 127 299q14 33-5.5 47.5t-74.5 20.5q-33 57 0 121h397q31-62-2-121-67-4-98-21.5t-45-54.5l-346-797h-102l-193 498-223-498h-103l-327 797q-15 35-47.5 49.5t-106.5 26.5q-29 53-2 121h541q26-68-2-121-60-4-35-68l129-315 98 215-39 98q-22 55-100 70-29 53-2 121z"/></svg>