<svg width="59.333" height="14" viewBox="0 0 59.333 14" xmlns="http://www.w3.org/2000/svg"><path transform="translate(0 10.667) scale(.011111 -.011111)" d="m60 660h60v-60h-60zm60 60h60v-60h-60zm60 0h60v-60h-60zm60 0h60v-60h-60zm60 0h60v-60h-60zm60 0h60v-60h-60zm0-60h60v-60h-60zm-60 0h60v-60h-60zm120 0h60v-60h-60zm60 0h60v-60h-60zm60 60h60v-60h-60zm120 0h60v-60h-60zm-60-60h60v-60h-60zm0-60h60v-60h-60zm-60 0h60v-60h-60zm0-60h60v-60h-60zm60 0h60v-60h-60zm0-60h60v-60h-60zm0-60h60v-60h-60zm-60 0h60v-60h-60zm0 60h60v-60h-60zm-120 60h60v-60h-60zm0-60h60v-60h-60zm0-60h60v-60h-60zm0-60h60v-60h-60zm0-60h60v-60h-60zm0-60h60v-60h-60zm120 120h60v-60h-60zm60 0h60v-60h-60zm0-60h60v-60h-60zm-60 0h60v-60h-60zm0-60h60v-60h-60zm60 0h60v-60h-60zm-240 180h60v-60h-60zm-60 0h60v-60h-60zm60-120h60v-60h-60zm-60 0h60v-60h-60zm120-300h60v-60h-60zm-60-60h60v-60h-60zm-60 0h60v-60h-60zm-60 0h60v-60h-60zm-60 0h60v-60h-60zm-60-60h60v-60h-60zm180 0h60v-60h-60zm60 0h60v-60h-60zm60 0h60v-60h-60zm60 0h60v-60h-60zm60 60h60v-60h-60zm0 60h60v-60h-60zm60 0h60v-60h-60zm-180 60h60v-60h-60zm0 60h60v-60h-60zm0 60h60v-60h-60zm120 0h60v-60h-60zm0-60h60v-60h-60zm0-60h60v-60h-60zm60 0h60v-60h-60zm0 60h60v-60h-60zm0 60h60v-60h-60z"/><path transform="translate(8 10.667) scale(.011111 -.011111)" d="m120 120h60v-60h-60zm60 0h60v-60h-60zm60 0h60v-60h-60zm60 0h60v-60h-60zm-120-60h60v-60h-60zm60 0h60v-60h-60zm-180 60h60v-60h-60zm60 60h60v-60h-60zm0 60h60v-60h-60zm0 60h60v-60h-60zm60-120h60v-60h-60zm0 60h60v-60h-60zm0 60h60v-60h-60zm0 60h60v-60h-60zm180 60h60v-60h-60zm0-60h60v-60h-60zm60 0h60v-60h-60zm-60-60h60v-60h-60zm60 0h60v-60h-60zm0-60h60v-60h-60zm-60 0h60v-60h-60zm0-60h60v-60h-60zm60 0h60v-60h-60zm-60-60h60v-60h-60zm0-60h60v-60h-60zm60 0h60v-60h-60zm0 60h60v-60h-60zm60 0h60v-60h-60zm-240 360h60v-60h-60zm60 0h60v-60h-60zm60 0h60v-60h-60zm120-60h60v-60h-60zm-60 0h60v-60h-60zm-240 0h60v-60h-60zm-60-60h60v-60h-60z"/><path transform="translate(14 10.667) scale(.011111 -.011111)" d="m120 120h60v-60h-60zm-60 0h60v-60h-60zm120 0h60v-60h-60zm-60-60h60v-60h-60zm60 0h60v-60h-60zm-60 120h60v-60h-60zm60 0h60v-60h-60zm0 60h60v-60h-60zm0 60h60v-60h-60zm-60 0h60v-60h-60zm0-60h60v-60h-60zm60 120h60v-60h-60zm180 60h60v-60h-60zm-60 0h60v-60h-60zm-60-300h60v-60h-60zm0 360h60v-60h-60zm60 0h60v-60h-60zm60 0h60v-60h-60zm-180-60h60v-60h-60zm-60-60h60v-60h-60zm180-240h60v-60h-60z"/><path transform="translate(18.667 10.667) scale(.011111 -.011111)" d="m60 120h60v-60h-60zm60 0h60v-60h-60zm60 0h60v-60h-60zm60 0h60v-60h-60zm60 0h60v-60h-60zm60 0h60v-60h-60zm60 0h60v-60h-60zm60 0h60v-60h-60zm-240-60h60v-60h-60zm120 0h60v-60h-60zm60 0h60v-60h-60zm0-60h60v-60h-60zm0-60h60v-60h-60zm-60 60h60v-60h-60zm0-60h60v-60h-60zm0-60h60v-60h-60zm60 300h60v-60h-60zm-60 0h60v-60h-60zm0 60h60v-60h-60zm60 0h60v-60h-60zm0 60h60v-60h-60zm-60 0h60v-60h-60zm0 60h60v-60h-60zm0 60h60v-60h-60zm60 0h60v-60h-60zm0-60h60v-60h-60zm-60 120h60v-60h-60zm120-60h60v-60h-60zm-180 60h60v-60h-60zm-60 0h60v-60h-60zm-60-60h60v-60h-60zm-60-60h60v-60h-60zm60 0h60v-60h-60zm0-60h60v-60h-60zm-60 0h60v-60h-60zm0-60h60v-60h-60zm0-60h60v-60h-60zm60 0h60v-60h-60zm0 60h60v-60h-60z"/><path transform="translate(24.667 10.667) scale(.011111 -.011111)" d="m60 420h60v-60h-60zm60 0h60v-60h-60zm60 0h60v-60h-60zm60 0h60v-60h-60zm-120 60h60v-60h-60zm60 0h60v-60h-60zm180-60h60v-60h-60zm60 0h60v-60h-60zm60 0h60v-60h-60zm60 0h60v-60h-60zm-120 60h60v-60h-60zm60 0h60v-60h-60zm-240-120h60v-60h-60zm-60 0h60v-60h-60zm0-60h60v-60h-60zm0-60h60v-60h-60zm60 0h60v-60h-60zm0-60h60v-60h-60zm0 120h60v-60h-60zm-60-120h60v-60h-60zm240 180h60v-60h-60zm60 0h60v-60h-60zm0-60h60v-60h-60zm0-60h60v-60h-60zm0-60h60v-60h-60zm-60 60h60v-60h-60zm0 60h60v-60h-60zm0-120h60v-60h-60zm-300-60h60v-60h-60zm60 0h60v-60h-60zm60 0h60v-60h-60zm60 0h60v-60h-60zm60 0h60v-60h-60zm60 0h60v-60h-60zm60 0h60v-60h-60zm60 0h60v-60h-60zm-300-60h60v-60h-60zm60 0h60v-60h-60zm300 60h60v-60h-60zm-60-60h60v-60h-60zm-60 0h60v-60h-60z"/><path transform="translate(32 10.667) scale(.011111 -.011111)" d="m120 120h60v-60h-60zm60 0h60v-60h-60zm60 0h60v-60h-60zm60 0h60v-60h-60zm-120-60h60v-60h-60zm60 0h60v-60h-60zm-180 60h60v-60h-60zm60 60h60v-60h-60zm0 60h60v-60h-60zm0 60h60v-60h-60zm60-120h60v-60h-60zm0 60h60v-60h-60zm0 60h60v-60h-60zm0 60h60v-60h-60zm180 60h60v-60h-60zm0-60h60v-60h-60zm60 0h60v-60h-60zm-60-60h60v-60h-60zm60 0h60v-60h-60zm0-60h60v-60h-60zm-60 0h60v-60h-60zm0-60h60v-60h-60zm60 0h60v-60h-60zm-60-60h60v-60h-60zm0-60h60v-60h-60zm60 0h60v-60h-60zm0 60h60v-60h-60zm60 0h60v-60h-60zm-240 360h60v-60h-60zm60 0h60v-60h-60zm60 0h60v-60h-60zm120-60h60v-60h-60zm-60 0h60v-60h-60zm-240 0h60v-60h-60zm-60-60h60v-60h-60z"/><path transform="translate(38 10.667) scale(.011111 -.011111)" d="m120 120h60v-60h-60zm60 0h60v-60h-60zm60 0h60v-60h-60zm60 0h60v-60h-60zm-120-60h60v-60h-60zm60 0h60v-60h-60zm-60 120h60v-60h-60zm60 0h60v-60h-60zm0 60h60v-60h-60zm0 60h60v-60h-60zm0 60h60v-60h-60zm-60 0h60v-60h-60zm0-60h60v-60h-60zm0-60h60v-60h-60zm60 180h60v-60h-60zm-60 0h60v-60h-60zm-60 0h60v-60h-60zm-60 0h60v-60h-60zm60 60h60v-60h-60zm60 0h60v-60h-60zm120 0h60v-60h-60zm60 0h60v-60h-60zm60 0h60v-60h-60zm-60-60h60v-60h-60zm60 0h60v-60h-60z"/><path transform="translate(43.333 10.667) scale(.011111 -.011111)" d="m60 120h60v-60h-60zm60 0h60v-60h-60zm60 0h60v-60h-60zm60 0h60v-60h-60zm60 0h60v-60h-60zm-120-60h60v-60h-60zm60 0h60v-60h-60zm120 60h60v-60h-60zm-240 60h60v-60h-60zm0 60h60v-60h-60zm60 0h60v-60h-60zm0-60h60v-60h-60zm0 300h60v-60h-60zm0-120h60v-60h-60zm0-60h60v-60h-60zm-60 0h60v-60h-60zm0 60h60v-60h-60zm120 180h60v-60h-60zm60 0h60v-60h-60zm60 0h60v-60h-60zm-60-60h60v-60h-60zm60 0h60v-60h-60zm60 0h60v-60h-60zm-60-120h60v-60h-60zm60 0h60v-60h-60zm0-60h60v-60h-60zm0-60h60v-60h-60zm-60 0h60v-60h-60zm0 60h60v-60h-60zm0-120h60v-60h-60zm60 0h60v-60h-60zm-120 420h60v-60h-60zm-60 0h60v-60h-60zm-60 0h60v-60h-60zm60 60h60v-60h-60zm-60 0h60v-60h-60zm-60 60h60v-60h-60zm0-60h60v-60h-60zm0-240h60v-60h-60zm60 0h60v-60h-60zm180 0h60v-60h-60zm60 0h60v-60h-60z"/><path transform="translate(52 10.667) scale(.011111 -.011111)" d="m120 60h60v-60h-60zm0 60h60v-60h-60zm0 60h60v-60h-60zm0 60h60v-60h-60zm0 60h60v-60h-60zm0 60h60v-60h-60zm0 60h60v-60h-60zm0 60h60v-60h-60zm60 0h60v-60h-60zm0-60h60v-60h-60zm0-60h60v-60h-60zm0-60h60v-60h-60zm0-60h60v-60h-60zm0-60h60v-60h-60zm0-60h60v-60h-60zm-120 300h60v-60h-60z"/><path transform="translate(54.667 10.667) scale(.011111 -.011111)" d="m60 60h60v-60h-60zm60 60h60v-60h-60zm60 60h60v-60h-60zm60 60h60v-60h-60zm0 60h60v-60h-60zm0 60h60v-60h-60zm0 60h60v-60h-60zm60-120h60v-60h-60zm0 60h60v-60h-60zm0 60h60v-60h-60zm-60 60h60v-60h-60zm-60 0h60v-60h-60zm-60-60h60v-60h-60zm-60-60h60v-60h-60zm120 60h60v-60h-60zm-60-360h60v-60h-60zm60 0h60v-60h-60zm60 0h60v-60h-60zm-60 60h60v-60h-60zm60 0h60v-60h-60zm60 0h60v-60h-60zm60 0h60v-60h-60zm-60-60h60v-60h-60z"/></svg>