<?xml version="1.0" encoding="utf-8" ?>
<svg baseProfile="tiny" height="100%" version="1.2" width="100%" xmlns="http://www.w3.org/2000/svg" xmlns:ev="http://www.w3.org/2001/xml-events" xmlns:xlink="http://www.w3.org/1999/xlink"><defs /><g><path d="M60 120V150H90V120ZM60 150V180H90V150ZM60 180V210H90V180ZM60 210V240H90V210ZM120 210V240H150V210ZM120 180V210H150V180ZM120 150V180H150V150ZM120 120V150H150V120ZM120 90V120H150V90ZM120 60V90H150V60ZM120 30V60H150V30ZM180 0V30H210V0ZM180 30V60H210V30ZM180 60V90H210V60ZM180 90V120H210V90ZM180 120V150H210V120ZM180 150V180H210V150ZM180 180V210H210V180ZM180 210V240H210V210ZM150 210V240H180V210ZM150 180V210H180V180ZM150 150V180H180V150ZM150 120V150H180V120ZM150 90V120H180V90ZM150 60V90H180V60ZM150 30V60H180V30ZM90 60V90H120V60ZM90 90V120H120V90ZM90 120V150H120V120ZM90 150V180H120V150ZM90 180V210H120V180ZM90 210V240H120V210ZM360 0V30H390V0ZM360 30V60H390V30ZM360 60V90H390V60ZM360 90V120H390V90ZM360 120V150H390V120ZM360 150V180H390V150ZM360 180V210H390V180ZM360 210V240H390V210ZM360 240V270H390V240ZM360 270V300H390V270ZM360 300V330H390V300ZM390 300V330H420V300ZM390 270V300H420V270ZM390 240V270H420V240ZM420 210V240H450V210ZM420 180V210H450V180ZM420 150V180H450V150ZM420 120V150H450V120ZM420 90V120H450V90ZM420 60V90H450V60ZM420 30V60H450V30ZM480 120V150H510V120ZM480 150V180H510V150ZM480 180V210H510V180ZM480 210V240H510V210ZM450 210V240H480V210ZM450 240V270H480V240ZM450 180V210H480V180ZM450 150V180H480V150ZM450 120V150H480V120ZM450 90V120H480V90ZM450 60V90H480V60ZM390 30V60H420V30ZM390 60V90H420V60ZM390 90V120H420V90ZM390 120V150H420V120ZM390 150V180H420V150ZM390 180V210H420V180ZM390 210V240H420V210ZM480 300V330H510V300ZM480 270V300H510V270ZM480 240V270H510V240ZM420 300V330H450V300ZM420 270V300H450V270ZM420 240V270H450V240ZM450 270V300H480V270ZM450 300V330H480V300ZM210 0V30H240V0ZM240 0V30H270V0ZM270 0V30H300V0ZM300 0V30H330V0ZM330 0V30H360V0ZM330 30V60H360V30ZM300 30V60H330V30ZM270 30V60H300V30ZM240 30V60H270V30ZM210 30V60H240V30ZM210 60V90H240V60ZM240 60V90H270V60ZM270 60V90H300V60ZM300 60V90H330V60ZM330 60V90H360V60ZM330 90V120H360V90ZM300 90V120H330V90ZM270 90V120H300V90ZM240 90V120H270V90ZM210 90V120H240V90ZM210 120V150H240V120ZM330 120V150H360V120ZM360 720V750H390V720ZM360 690V720H390V690ZM360 660V690H390V660ZM360 630V660H390V630ZM360 600V630H390V600ZM360 570V600H390V570ZM360 540V570H390V540ZM360 510V540H390V510ZM360 480V510H390V480ZM360 450V480H390V450ZM360 420V450H390V420ZM360 390V420H390V390ZM390 390V420H420V390ZM390 360V390H420V360ZM360 360V390H390V360ZM360 330V360H390V330ZM390 330V360H420V330ZM420 330V360H450V330ZM450 330V360H480V330ZM480 330V360H510V330ZM480 360V390H510V360ZM450 360V390H480V360ZM450 390V420H480V390ZM480 420V450H510V420ZM480 450V480H510V450ZM480 480V510H510V480ZM480 510V540H510V510ZM480 540V570H510V540ZM480 570V600H510V570ZM480 600V630H510V600ZM480 630V660H510V630ZM480 390V420H510V390ZM480 660V690H510V660ZM480 690V720H510V690ZM480 720V750H510V720ZM450 720V750H480V720ZM420 720V750H450V720ZM390 720V750H420V720ZM390 690V720H420V690ZM390 660V690H420V660ZM390 630V660H420V630ZM390 600V630H420V600ZM390 570V600H420V570ZM390 540V570H420V540ZM390 510V540H420V510ZM390 480V510H420V480ZM390 450V480H420V450ZM420 420V450H450V420ZM420 390V420H450V390ZM420 360V390H450V360ZM390 420V450H420V420ZM450 420V450H480V420ZM450 480V510H480V480ZM450 510V540H480V510ZM450 540V570H480V540ZM450 570V600H480V570ZM450 600V630H480V600ZM450 630V660H480V630ZM450 660V690H480V660ZM450 690V720H480V690ZM420 690V720H450V690ZM420 660V690H450V660ZM420 630V660H450V630ZM420 600V630H450V600ZM420 570V600H450V570ZM420 540V570H450V540ZM420 510V540H450V510ZM420 480V510H450V480ZM420 450V480H450V450ZM450 450V480H480V450ZM330 150V180H360V150ZM210 150V180H240V150ZM240 120V150H270V120ZM270 120V150H300V120ZM300 120V150H330V120ZM180 240V270H210V240ZM150 240V270H180V240ZM120 240V270H150V240ZM90 240V270H120V240ZM60 240V270H90V240ZM0 -242V990H2V-242ZM30 -242V990H32V-242ZM60 -242V990H62V-242ZM90 -242V990H92V-242ZM120 -242V990H122V-242ZM150 -242V990H152V-242ZM180 -242V990H182V-242ZM210 -242V990H212V-242ZM240 -242V990H242V-242ZM270 -242V990H272V-242ZM300 -242V990H302V-242ZM330 -242V990H332V-242ZM360 -242V990H362V-242ZM390 -242V990H392V-242ZM420 -242V990H422V-242ZM450 -242V990H452V-242ZM480 -242V990H482V-242ZM510 -242V990H512V-242ZM540 -242V990H542V-242ZM0 -242V-240H570V-242ZM0 -212V-210H570V-212ZM0 -182V-180H570V-182ZM0 -152V-150H570V-152ZM0 -122V-120H570V-122ZM0 -92V-90H570V-92ZM0 -62V-60H570V-62ZM0 -32V-30H570V-32ZM0 -2V0H570V-2ZM0 28V30H570V28ZM0 58V60H570V58ZM0 88V90H570V88ZM0 118V120H570V118ZM0 148V150H570V148ZM0 178V180H570V178ZM0 208V210H570V208ZM0 238V240H570V238ZM0 268V270H570V268ZM0 298V300H570V298ZM0 328V330H570V328ZM0 358V360H570V358ZM0 388V390H570V388ZM0 418V420H570V418ZM0 448V450H570V448ZM0 478V480H570V478ZM0 508V510H570V508ZM0 538V540H570V538ZM0 568V570H570V568ZM0 598V600H570V598ZM0 628V630H570V628ZM0 658V660H570V658ZM0 688V690H570V688ZM0 718V720H570V718ZM0 748V750H570V748ZM0 778V780H570V778ZM0 808V810H570V808ZM0 838V840H570V838ZM0 868V870H570V868ZM0 898V900H570V898ZM0 928V930H570V928ZM0 958V960H570V958ZM0 988V990H570V988Z" transform="translate(0.0, 72) scale(0.05853658536585366, -0.05853658536585366)" /><path d="M360 360V390H390V360ZM390 360V390H420V360ZM420 360V390H450V360ZM450 360V390H480V360ZM480 360V390H510V360ZM480 390V420H510V390ZM480 420V450H510V420ZM450 420V450H480V420ZM420 420V450H450V420ZM390 420V450H420V420ZM390 390V420H420V390ZM360 390V420H390V390ZM420 390V420H450V390ZM450 390V420H480V390ZM360 420V450H390V420ZM330 420V450H360V420ZM330 450V480H360V450ZM360 450V480H390V450ZM390 450V480H420V450ZM420 450V480H450V450ZM450 450V480H480V450ZM450 480V510H480V480ZM420 480V510H450V480ZM390 480V510H420V480ZM360 480V510H390V480ZM330 480V510H360V480ZM390 510V540H420V510ZM420 510V540H450V510ZM360 510V540H390V510ZM360 540V570H390V540ZM330 540V570H360V540ZM330 510V540H360V510ZM300 510V540H330V510ZM300 540V570H330V540ZM300 480V510H330V480ZM270 480V510H300V480ZM270 450V480H300V450ZM300 450V480H330V450ZM240 450V480H270V450ZM240 480V510H270V480ZM240 510V540H270V510ZM240 540V570H270V540ZM270 540V570H300V540ZM270 510V540H300V510ZM210 540V570H240V540ZM180 540V570H210V540ZM150 540V570H180V540ZM150 510V540H180V510ZM150 480V510H180V480ZM150 450V480H180V450ZM180 450V480H210V450ZM210 450V480H240V450ZM210 480V510H240V480ZM210 510V540H240V510ZM180 510V540H210V510ZM180 480V510H210V480ZM120 480V510H150V480ZM120 510V540H150V510ZM90 510V540H120V510ZM90 480V510H120V480ZM60 480V510H90V480ZM60 450V480H90V450ZM60 420V450H90V420ZM90 420V450H120V420ZM90 450V480H120V450ZM120 450V480H150V450ZM120 420V450H150V420ZM150 420V450H180V420ZM180 420V450H210V420ZM30 420V450H60V420ZM30 390V420H60V390ZM30 360V390H60V360ZM30 330V360H60V330ZM30 300V330H60V300ZM30 270V300H60V270ZM30 240V270H60V240ZM30 210V240H60V210ZM30 180V210H60V180ZM30 150V180H60V150ZM60 150V180H90V150ZM60 120V150H90V120ZM30 120V150H60V120ZM90 120V150H120V120ZM120 120V150H150V120ZM150 120V150H180V120ZM180 120V150H210V120ZM150 150V180H180V150ZM150 180V210H180V180ZM150 210V240H180V210ZM150 240V270H180V240ZM150 270V300H180V270ZM150 300V330H180V300ZM150 330V360H180V330ZM150 360V390H180V360ZM150 390V420H180V390ZM120 390V420H150V390ZM90 390V420H120V390ZM60 390V420H90V390ZM60 360V390H90V360ZM60 330V360H90V330ZM60 300V330H90V300ZM60 270V300H90V270ZM60 240V270H90V240ZM60 210V240H90V210ZM60 180V210H90V180ZM90 150V180H120V150ZM120 150V180H150V150ZM120 180V210H150V180ZM120 210V240H150V210ZM120 240V270H150V240ZM120 270V300H150V270ZM90 270V300H120V270ZM90 300V330H120V300ZM90 330V360H120V330ZM90 360V390H120V360ZM120 360V390H150V360ZM120 330V360H150V330ZM120 300V330H150V300ZM90 210V240H120V210ZM90 180V210H120V180ZM90 240V270H120V240ZM360 150V180H390V150ZM390 150V180H420V150ZM420 150V180H450V150ZM450 150V180H480V150ZM480 150V180H510V150ZM480 120V150H510V120ZM450 120V150H480V120ZM420 120V150H450V120ZM390 120V150H420V120ZM360 120V150H390V120ZM330 120V150H360V120ZM330 90V120H360V90ZM360 90V120H390V90ZM390 90V120H420V90ZM420 90V120H450V90ZM420 60V90H450V60ZM450 60V90H480V60ZM450 90V120H480V90ZM420 30V60H450V30ZM390 30V60H420V30ZM390 60V90H420V60ZM360 60V90H390V60ZM360 30V60H390V30ZM360 0V30H390V0ZM330 0V30H360V0ZM300 0V30H330V0ZM270 0V30H300V0ZM240 0V30H270V0ZM210 0V30H240V0ZM180 0V30H210V0ZM150 0V30H180V0ZM180 30V60H210V30ZM210 30V60H240V30ZM240 30V60H270V30ZM270 30V60H300V30ZM300 30V60H330V30ZM330 30V60H360V30ZM330 60V90H360V60ZM300 60V90H330V60ZM270 60V90H300V60ZM240 60V90H270V60ZM210 60V90H240V60ZM180 60V90H210V60ZM150 30V60H180V30ZM120 30V60H150V30ZM90 30V60H120V30ZM90 60V90H120V60ZM60 60V90H90V60ZM60 90V120H90V90ZM90 90V120H120V90ZM120 90V120H150V90ZM150 90V120H180V90ZM180 90V120H210V90ZM210 90V120H240V90ZM240 90V120H270V90ZM270 90V120H300V90ZM300 90V120H330V90ZM150 60V90H180V60ZM120 60V90H150V60ZM480 330V360H510V330ZM450 330V360H480V330ZM420 330V360H450V330ZM390 330V360H420V330ZM360 330V360H390V330ZM480 300V330H510V300ZM420 300V330H450V300ZM390 300V330H420V300ZM330 300V330H360V300ZM300 300V330H330V300ZM270 300V330H300V300ZM240 300V330H270V300ZM210 300V330H240V300ZM180 300V330H210V300ZM360 300V330H390V300ZM450 300V330H480V300ZM480 270V300H510V270ZM450 270V300H480V270ZM420 270V300H450V270ZM390 270V300H420V270ZM360 270V300H390V270ZM330 270V300H360V270ZM300 270V300H330V270ZM270 270V300H300V270ZM240 270V300H270V270ZM210 270V300H240V270ZM180 270V300H210V270ZM180 240V270H210V240ZM210 240V270H240V240ZM240 240V270H270V240ZM300 240V270H330V240ZM330 240V270H360V240ZM360 240V270H390V240ZM390 240V270H420V240ZM420 240V270H450V240ZM450 240V270H480V240ZM480 240V270H510V240ZM270 240V270H300V240ZM0 -242V990H2V-242ZM30 -242V990H32V-242ZM60 -242V990H62V-242ZM90 -242V990H92V-242ZM120 -242V990H122V-242ZM150 -242V990H152V-242ZM180 -242V990H182V-242ZM210 -242V990H212V-242ZM240 -242V990H242V-242ZM270 -242V990H272V-242ZM300 -242V990H302V-242ZM330 -242V990H332V-242ZM360 -242V990H362V-242ZM390 -242V990H392V-242ZM420 -242V990H422V-242ZM450 -242V990H452V-242ZM480 -242V990H482V-242ZM510 -242V990H512V-242ZM0 -242V-240H540V-242ZM0 -212V-210H540V-212ZM0 -182V-180H540V-182ZM0 -152V-150H540V-152ZM0 -122V-120H540V-122ZM0 -92V-90H540V-92ZM0 -62V-60H540V-62ZM0 -32V-30H540V-32ZM0 -2V0H540V-2ZM0 28V30H540V28ZM0 58V60H540V58ZM0 88V90H540V88ZM0 118V120H540V118ZM0 148V150H540V148ZM0 178V180H540V178ZM0 208V210H540V208ZM0 238V240H540V238ZM0 268V270H540V268ZM0 298V300H540V298ZM0 328V330H540V328ZM0 358V360H540V358ZM0 388V390H540V388ZM0 418V420H540V418ZM0 448V450H540V448ZM0 478V480H540V478ZM0 508V510H540V508ZM0 538V540H540V538ZM0 568V570H540V568ZM0 598V600H540V598ZM0 628V630H540V628ZM0 658V660H540V658ZM0 688V690H540V688ZM0 718V720H540V718ZM0 748V750H540V748ZM0 778V780H540V778ZM0 808V810H540V808ZM0 838V840H540V838ZM0 868V870H540V868ZM0 898V900H540V898ZM0 928V930H540V928ZM0 958V960H540V958ZM0 988V990H540V988Z" transform="translate(33.36585365853659, 72) scale(0.05853658536585366, -0.05853658536585366)" /><path d="M60 0V30H90V0ZM60 30V60H90V30ZM60 60V90H90V60ZM60 90V120H90V90ZM60 120V150H90V120ZM60 150V180H90V150ZM60 180V210H90V180ZM60 210V240H90V210ZM60 240V270H90V240ZM60 270V300H90V270ZM60 300V330H90V300ZM60 330V360H90V330ZM60 360V390H90V360ZM60 390V420H90V390ZM60 420V450H90V420ZM90 420V450H120V420ZM90 390V420H120V390ZM90 360V390H120V360ZM90 330V360H120V330ZM90 300V330H120V300ZM90 270V300H120V270ZM90 240V270H120V240ZM120 210V240H150V210ZM120 180V210H150V180ZM120 150V180H150V150ZM120 120V150H150V120ZM120 90V120H150V90ZM120 60V90H150V60ZM120 30V60H150V30ZM120 0V30H150V0ZM150 0V30H180V0ZM180 0V30H210V0ZM180 30V60H210V30ZM180 60V90H210V60ZM180 90V120H210V90ZM180 120V150H210V120ZM180 150V180H210V150ZM180 180V210H210V180ZM180 210V240H210V210ZM150 210V240H180V210ZM150 240V270H180V240ZM150 180V210H180V180ZM150 150V180H180V150ZM150 120V150H180V120ZM150 90V120H180V90ZM150 60V90H180V60ZM150 30V60H180V30ZM90 0V30H120V0ZM90 30V60H120V30ZM90 60V90H120V60ZM90 90V120H120V90ZM90 120V150H120V120ZM90 150V180H120V150ZM90 180V210H120V180ZM90 210V240H120V210ZM60 540V570H90V540ZM60 510V540H90V510ZM60 480V510H90V480ZM60 450V480H90V450ZM150 510V540H180V510ZM150 480V510H180V480ZM150 450V480H180V450ZM150 420V450H180V420ZM150 390V420H180V390ZM150 360V390H180V360ZM150 330V360H180V330ZM180 300V330H210V300ZM180 270V300H210V270ZM180 240V270H210V240ZM180 330V360H210V330ZM180 360V390H210V360ZM180 390V420H210V390ZM180 420V450H210V420ZM180 450V480H210V450ZM180 480V510H210V480ZM180 510V540H210V510ZM180 540V570H210V540ZM150 540V570H180V540ZM120 540V570H150V540ZM120 510V540H150V510ZM90 480V510H120V480ZM90 450V480H120V450ZM90 510V540H120V510ZM90 540V570H120V540ZM120 480V510H150V480ZM120 450V480H150V450ZM120 420V450H150V420ZM120 390V420H150V390ZM120 360V390H150V360ZM120 330V360H150V330ZM120 300V330H150V300ZM120 270V300H150V270ZM120 240V270H150V240ZM150 270V300H180V270ZM150 300V330H180V300ZM390 420V450H420V420ZM390 540V570H420V540ZM390 510V540H420V510ZM420 510V540H450V510ZM450 480V510H480V480ZM420 450V480H450V450ZM420 480V510H450V480ZM390 480V510H420V480ZM360 480V510H390V480ZM360 450V480H390V450ZM390 450V480H420V450ZM360 420V450H390V420ZM330 450V480H360V450ZM330 480V510H360V480ZM330 510V540H360V510ZM330 540V570H360V540ZM360 540V570H390V540ZM360 510V540H390V510ZM300 540V570H330V540ZM300 510V540H330V510ZM300 480V510H330V480ZM300 450V480H330V450ZM270 540V570H300V540ZM270 510V540H300V510ZM240 510V540H270V510ZM240 480V510H270V480ZM210 480V510H240V480ZM210 450V480H240V450ZM240 450V480H270V450ZM270 450V480H300V450ZM270 480V510H300V480ZM210 420V450H240V420ZM240 540V570H270V540ZM210 510V540H240V510ZM330 420V450H360V420ZM360 390V420H390V390ZM0 -242V990H2V-242ZM30 -242V990H32V-242ZM60 -242V990H62V-242ZM90 -242V990H92V-242ZM120 -242V990H122V-242ZM150 -242V990H152V-242ZM180 -242V990H182V-242ZM210 -242V990H212V-242ZM240 -242V990H242V-242ZM270 -242V990H272V-242ZM300 -242V990H302V-242ZM330 -242V990H332V-242ZM360 -242V990H362V-242ZM390 -242V990H392V-242ZM420 -242V990H422V-242ZM450 -242V990H452V-242ZM0 -242V-240H480V-242ZM0 -212V-210H480V-212ZM0 -182V-180H480V-182ZM0 -152V-150H480V-152ZM0 -122V-120H480V-122ZM0 -92V-90H480V-92ZM0 -62V-60H480V-62ZM0 -32V-30H480V-32ZM0 -2V0H480V-2ZM0 28V30H480V28ZM0 58V60H480V58ZM0 88V90H480V88ZM0 118V120H480V118ZM0 148V150H480V148ZM0 178V180H480V178ZM0 208V210H480V208ZM0 238V240H480V238ZM0 268V270H480V268ZM0 298V300H480V298ZM0 328V330H480V328ZM0 358V360H480V358ZM0 388V390H480V388ZM0 418V420H480V418ZM0 448V450H480V448ZM0 478V480H480V478ZM0 508V510H480V508ZM0 538V540H480V538ZM0 568V570H480V568ZM0 598V600H480V598ZM0 628V630H480V628ZM0 658V660H480V658ZM0 688V690H480V688ZM0 718V720H480V718ZM0 748V750H480V748ZM0 778V780H480V778ZM0 808V810H480V808ZM0 838V840H480V838ZM0 868V870H480V868ZM0 898V900H480V898ZM0 928V930H480V928ZM0 958V960H480V958ZM0 988V990H480V988Z" transform="translate(64.97560975609757, 72) scale(0.05853658536585366, -0.05853658536585366)" /><path d="M450 420V450H480V420ZM420 420V450H450V420ZM390 420V450H420V420ZM360 420V450H390V420ZM330 450V480H360V450ZM360 450V480H390V450ZM390 450V480H420V450ZM420 450V480H450V450ZM450 450V480H480V450ZM450 480V510H480V480ZM420 480V510H450V480ZM390 480V510H420V480ZM360 480V510H390V480ZM330 480V510H360V480ZM390 510V540H420V510ZM420 510V540H450V510ZM360 510V540H390V510ZM360 540V570H390V540ZM330 540V570H360V540ZM330 510V540H360V510ZM300 510V540H330V510ZM300 540V570H330V540ZM300 480V510H330V480ZM270 480V510H300V480ZM270 450V480H300V450ZM300 450V480H330V450ZM240 450V480H270V450ZM240 480V510H270V480ZM240 510V540H270V510ZM240 540V570H270V540ZM270 540V570H300V540ZM270 510V540H300V510ZM210 540V570H240V540ZM180 540V570H210V540ZM150 540V570H180V540ZM150 510V540H180V510ZM150 480V510H180V480ZM150 450V480H180V450ZM180 450V480H210V450ZM210 450V480H240V450ZM210 480V510H240V480ZM210 510V540H240V510ZM180 510V540H210V510ZM180 480V510H210V480ZM120 480V510H150V480ZM120 510V540H150V510ZM90 510V540H120V510ZM90 480V510H120V480ZM60 480V510H90V480ZM60 450V480H90V450ZM60 420V450H90V420ZM90 420V450H120V420ZM90 450V480H120V450ZM120 450V480H150V450ZM120 420V450H150V420ZM150 420V450H180V420ZM180 420V450H210V420ZM30 420V450H60V420ZM30 390V420H60V390ZM30 360V390H60V360ZM30 150V180H60V150ZM60 150V180H90V150ZM60 120V150H90V120ZM30 120V150H60V120ZM90 120V150H120V120ZM120 120V150H150V120ZM150 120V150H180V120ZM180 120V150H210V120ZM150 150V180H180V150ZM150 360V390H180V360ZM150 390V420H180V390ZM120 390V420H150V390ZM90 390V420H120V390ZM60 390V420H90V390ZM60 360V390H90V360ZM90 150V180H120V150ZM120 150V180H150V150ZM90 360V390H120V360ZM120 360V390H150V360ZM360 180V210H390V180ZM360 150V180H390V150ZM390 150V180H420V150ZM420 150V180H450V150ZM450 150V180H480V150ZM480 150V180H510V150ZM480 180V210H510V180ZM450 180V210H480V180ZM420 180V210H450V180ZM390 180V210H420V180ZM480 120V150H510V120ZM450 120V150H480V120ZM420 120V150H450V120ZM390 120V150H420V120ZM360 120V150H390V120ZM330 120V150H360V120ZM330 90V120H360V90ZM360 90V120H390V90ZM390 90V120H420V90ZM420 90V120H450V90ZM420 60V90H450V60ZM450 60V90H480V60ZM450 90V120H480V90ZM420 30V60H450V30ZM390 30V60H420V30ZM390 60V90H420V60ZM360 60V90H390V60ZM360 30V60H390V30ZM360 0V30H390V0ZM330 0V30H360V0ZM300 0V30H330V0ZM270 0V30H300V0ZM240 0V30H270V0ZM210 0V30H240V0ZM180 0V30H210V0ZM150 0V30H180V0ZM180 30V60H210V30ZM210 30V60H240V30ZM240 30V60H270V30ZM270 30V60H300V30ZM300 30V60H330V30ZM330 30V60H360V30ZM330 60V90H360V60ZM300 60V90H330V60ZM270 60V90H300V60ZM240 60V90H270V60ZM210 60V90H240V60ZM180 60V90H210V60ZM150 30V60H180V30ZM120 30V60H150V30ZM90 30V60H120V30ZM90 60V90H120V60ZM60 60V90H90V60ZM60 90V120H90V90ZM90 90V120H120V90ZM120 90V120H150V90ZM150 90V120H180V90ZM180 90V120H210V90ZM210 90V120H240V90ZM240 90V120H270V90ZM270 90V120H300V90ZM300 90V120H330V90ZM150 60V90H180V60ZM120 60V90H150V60ZM420 240V270H450V240ZM480 210V240H510V210ZM450 210V240H480V210ZM420 210V240H450V210ZM390 210V240H420V210ZM390 240V270H420V240ZM360 240V270H390V240ZM360 210V240H390V210ZM180 360V390H210V360ZM60 330V360H90V330ZM60 300V330H90V300ZM90 300V330H120V300ZM90 270V300H120V270ZM120 270V300H150V270ZM150 240V270H180V240ZM150 270V300H180V270ZM150 300V330H180V300ZM150 330V360H180V330ZM120 330V360H150V330ZM120 300V330H150V300ZM90 330V360H120V330ZM180 240V270H210V240ZM210 240V270H240V240ZM240 240V270H270V240ZM270 240V270H300V240ZM270 270V300H300V270ZM240 270V300H270V270ZM210 270V300H240V270ZM180 270V300H210V270ZM180 300V330H210V300ZM180 330V360H210V330ZM210 330V360H240V330ZM240 330V360H270V330ZM270 330V360H300V330ZM270 300V330H300V300ZM240 300V330H270V300ZM210 300V330H240V300ZM300 330V360H330V330ZM330 330V360H360V330ZM330 300V330H360V300ZM330 270V300H360V270ZM330 240V270H360V240ZM300 240V270H330V240ZM300 270V300H330V270ZM300 300V330H330V300ZM330 210V240H360V210ZM360 330V360H390V330ZM450 240V270H480V240ZM450 270V300H480V270ZM420 300V330H450V300ZM390 300V330H420V300ZM360 300V330H390V300ZM360 270V300H390V270ZM390 270V300H420V270ZM420 270V300H450V270ZM330 420V450H360V420ZM0 -242V990H2V-242ZM30 -242V990H32V-242ZM60 -242V990H62V-242ZM90 -242V990H92V-242ZM120 -242V990H122V-242ZM150 -242V990H152V-242ZM180 -242V990H182V-242ZM210 -242V990H212V-242ZM240 -242V990H242V-242ZM270 -242V990H272V-242ZM300 -242V990H302V-242ZM330 -242V990H332V-242ZM360 -242V990H362V-242ZM390 -242V990H392V-242ZM420 -242V990H422V-242ZM450 -242V990H452V-242ZM480 -242V990H482V-242ZM510 -242V990H512V-242ZM0 -242V-240H540V-242ZM0 -212V-210H540V-212ZM0 -182V-180H540V-182ZM0 -152V-150H540V-152ZM0 -122V-120H540V-122ZM0 -92V-90H540V-92ZM0 -62V-60H540V-62ZM0 -32V-30H540V-32ZM0 -2V0H540V-2ZM0 28V30H540V28ZM0 58V60H540V58ZM0 88V90H540V88ZM0 118V120H540V118ZM0 148V150H540V148ZM0 178V180H540V178ZM0 208V210H540V208ZM0 238V240H540V238ZM0 268V270H540V268ZM0 298V300H540V298ZM0 328V330H540V328ZM0 358V360H540V358ZM0 388V390H540V388ZM0 418V420H540V418ZM0 448V450H540V448ZM0 478V480H540V478ZM0 508V510H540V508ZM0 538V540H540V538ZM0 568V570H540V568ZM0 598V600H540V598ZM0 628V630H540V628ZM0 658V660H540V658ZM0 688V690H540V688ZM0 718V720H540V718ZM0 748V750H540V748ZM0 778V780H540V778ZM0 808V810H540V808ZM0 838V840H540V838ZM0 868V870H540V868ZM0 898V900H540V898ZM0 928V930H540V928ZM0 958V960H540V958ZM0 988V990H540V988Z" transform="translate(93.07317073170732, 72) scale(0.05853658536585366, -0.05853658536585366)" /><path d="M360 360V390H390V360ZM390 360V390H420V360ZM420 360V390H450V360ZM450 360V390H480V360ZM480 360V390H510V360ZM480 390V420H510V390ZM480 420V450H510V420ZM450 420V450H480V420ZM420 420V450H450V420ZM390 420V450H420V420ZM390 390V420H420V390ZM360 390V420H390V390ZM420 390V420H450V390ZM450 390V420H480V390ZM360 420V450H390V420ZM330 420V450H360V420ZM330 450V480H360V450ZM360 450V480H390V450ZM390 450V480H420V450ZM420 450V480H450V450ZM450 450V480H480V450ZM450 480V510H480V480ZM420 480V510H450V480ZM390 480V510H420V480ZM360 480V510H390V480ZM330 480V510H360V480ZM390 510V540H420V510ZM420 510V540H450V510ZM360 510V540H390V510ZM360 540V570H390V540ZM330 540V570H360V540ZM330 510V540H360V510ZM300 510V540H330V510ZM300 540V570H330V540ZM300 480V510H330V480ZM270 480V510H300V480ZM270 450V480H300V450ZM300 450V480H330V450ZM240 450V480H270V450ZM240 480V510H270V480ZM240 510V540H270V510ZM240 540V570H270V540ZM270 540V570H300V540ZM270 510V540H300V510ZM210 540V570H240V540ZM180 540V570H210V540ZM150 540V570H180V540ZM150 510V540H180V510ZM150 480V510H180V480ZM150 450V480H180V450ZM180 450V480H210V450ZM210 450V480H240V450ZM210 480V510H240V480ZM210 510V540H240V510ZM180 510V540H210V510ZM180 480V510H210V480ZM120 480V510H150V480ZM120 510V540H150V510ZM90 510V540H120V510ZM90 480V510H120V480ZM60 480V510H90V480ZM60 450V480H90V450ZM60 420V450H90V420ZM90 420V450H120V420ZM90 450V480H120V450ZM120 450V480H150V450ZM120 420V450H150V420ZM150 420V450H180V420ZM180 420V450H210V420ZM30 420V450H60V420ZM30 390V420H60V390ZM30 360V390H60V360ZM30 330V360H60V330ZM30 300V330H60V300ZM30 270V300H60V270ZM30 240V270H60V240ZM30 210V240H60V210ZM30 180V210H60V180ZM30 150V180H60V150ZM60 150V180H90V150ZM60 120V150H90V120ZM30 120V150H60V120ZM90 120V150H120V120ZM120 120V150H150V120ZM150 120V150H180V120ZM180 120V150H210V120ZM150 150V180H180V150ZM150 180V210H180V180ZM150 210V240H180V210ZM150 240V270H180V240ZM150 270V300H180V270ZM150 300V330H180V300ZM150 330V360H180V330ZM150 360V390H180V360ZM150 390V420H180V390ZM120 390V420H150V390ZM90 390V420H120V390ZM60 390V420H90V390ZM60 360V390H90V360ZM60 330V360H90V330ZM60 300V330H90V300ZM60 270V300H90V270ZM60 240V270H90V240ZM60 210V240H90V210ZM60 180V210H90V180ZM90 150V180H120V150ZM120 150V180H150V150ZM120 180V210H150V180ZM120 210V240H150V210ZM120 240V270H150V240ZM120 270V300H150V270ZM90 270V300H120V270ZM90 300V330H120V300ZM90 330V360H120V330ZM90 360V390H120V360ZM120 360V390H150V360ZM120 330V360H150V330ZM120 300V330H150V300ZM90 210V240H120V210ZM90 180V210H120V180ZM90 240V270H120V240ZM360 150V180H390V150ZM390 150V180H420V150ZM420 150V180H450V150ZM450 150V180H480V150ZM480 150V180H510V150ZM480 120V150H510V120ZM450 120V150H480V120ZM420 120V150H450V120ZM390 120V150H420V120ZM360 120V150H390V120ZM330 120V150H360V120ZM330 90V120H360V90ZM360 90V120H390V90ZM390 90V120H420V90ZM420 90V120H450V90ZM420 60V90H450V60ZM450 60V90H480V60ZM450 90V120H480V90ZM420 30V60H450V30ZM390 30V60H420V30ZM390 60V90H420V60ZM360 60V90H390V60ZM360 30V60H390V30ZM360 0V30H390V0ZM330 0V30H360V0ZM300 0V30H330V0ZM270 0V30H300V0ZM240 0V30H270V0ZM210 0V30H240V0ZM180 0V30H210V0ZM150 0V30H180V0ZM180 30V60H210V30ZM210 30V60H240V30ZM240 30V60H270V30ZM270 30V60H300V30ZM300 30V60H330V30ZM330 30V60H360V30ZM330 60V90H360V60ZM300 60V90H330V60ZM270 60V90H300V60ZM240 60V90H270V60ZM210 60V90H240V60ZM180 60V90H210V60ZM150 30V60H180V30ZM120 30V60H150V30ZM90 30V60H120V30ZM90 60V90H120V60ZM60 60V90H90V60ZM60 90V120H90V90ZM90 90V120H120V90ZM120 90V120H150V90ZM150 90V120H180V90ZM180 90V120H210V90ZM210 90V120H240V90ZM240 90V120H270V90ZM270 90V120H300V90ZM300 90V120H330V90ZM150 60V90H180V60ZM120 60V90H150V60ZM480 330V360H510V330ZM450 330V360H480V330ZM420 330V360H450V330ZM390 330V360H420V330ZM360 330V360H390V330ZM480 300V330H510V300ZM420 300V330H450V300ZM390 300V330H420V300ZM330 300V330H360V300ZM300 300V330H330V300ZM270 300V330H300V300ZM240 300V330H270V300ZM210 300V330H240V300ZM180 300V330H210V300ZM360 300V330H390V300ZM450 300V330H480V300ZM480 270V300H510V270ZM450 270V300H480V270ZM420 270V300H450V270ZM390 270V300H420V270ZM360 270V300H390V270ZM330 270V300H360V270ZM300 270V300H330V270ZM270 270V300H300V270ZM240 270V300H270V270ZM210 270V300H240V270ZM180 270V300H210V270ZM180 240V270H210V240ZM210 240V270H240V240ZM240 240V270H270V240ZM300 240V270H330V240ZM330 240V270H360V240ZM360 240V270H390V240ZM390 240V270H420V240ZM420 240V270H450V240ZM450 240V270H480V240ZM480 240V270H510V240ZM270 240V270H300V240ZM0 -242V990H2V-242ZM30 -242V990H32V-242ZM60 -242V990H62V-242ZM90 -242V990H92V-242ZM120 -242V990H122V-242ZM150 -242V990H152V-242ZM180 -242V990H182V-242ZM210 -242V990H212V-242ZM240 -242V990H242V-242ZM270 -242V990H272V-242ZM300 -242V990H302V-242ZM330 -242V990H332V-242ZM360 -242V990H362V-242ZM390 -242V990H392V-242ZM420 -242V990H422V-242ZM450 -242V990H452V-242ZM480 -242V990H482V-242ZM510 -242V990H512V-242ZM0 -242V-240H540V-242ZM0 -212V-210H540V-212ZM0 -182V-180H540V-182ZM0 -152V-150H540V-152ZM0 -122V-120H540V-122ZM0 -92V-90H540V-92ZM0 -62V-60H540V-62ZM0 -32V-30H540V-32ZM0 -2V0H540V-2ZM0 28V30H540V28ZM0 58V60H540V58ZM0 88V90H540V88ZM0 118V120H540V118ZM0 148V150H540V148ZM0 178V180H540V178ZM0 208V210H540V208ZM0 238V240H540V238ZM0 268V270H540V268ZM0 298V300H540V298ZM0 328V330H540V328ZM0 358V360H540V358ZM0 388V390H540V388ZM0 418V420H540V418ZM0 448V450H540V448ZM0 478V480H540V478ZM0 508V510H540V508ZM0 538V540H540V538ZM0 568V570H540V568ZM0 598V600H540V598ZM0 628V630H540V628ZM0 658V660H540V658ZM0 688V690H540V688ZM0 718V720H540V718ZM0 748V750H540V748ZM0 778V780H540V778ZM0 808V810H540V808ZM0 838V840H540V838ZM0 868V870H540V868ZM0 898V900H540V898ZM0 928V930H540V928ZM0 958V960H540V958ZM0 988V990H540V988Z" transform="translate(124.6829268292683, 72) scale(0.05853658536585366, -0.05853658536585366)" /><path d="M60 540V570H90V540ZM90 540V570H120V540ZM120 540V570H150V540ZM150 540V570H180V540ZM150 510V540H180V510ZM180 510V540H210V510ZM180 480V510H210V480ZM180 540V570H210V540ZM180 450V480H210V450ZM180 420V450H210V420ZM180 390V420H210V390ZM180 360V390H210V360ZM180 330V360H210V330ZM180 300V330H210V300ZM180 270V300H210V270ZM180 240V270H210V240ZM180 210V240H210V210ZM150 210V240H180V210ZM120 180V210H150V180ZM90 180V210H120V180ZM60 180V210H90V180ZM60 210V240H90V210ZM60 240V270H90V240ZM60 270V300H90V270ZM60 300V330H90V300ZM90 300V330H120V300ZM90 330V360H120V330ZM90 360V390H120V360ZM90 390V420H120V390ZM90 420V450H120V420ZM90 450V480H120V450ZM90 480V510H120V480ZM90 510V540H120V510ZM60 510V540H90V510ZM60 480V510H90V480ZM60 450V480H90V450ZM60 420V450H90V420ZM60 390V420H90V390ZM60 360V390H90V360ZM60 330V360H90V330ZM120 390V420H150V390ZM120 420V450H150V420ZM120 450V480H150V450ZM120 480V510H150V480ZM120 510V540H150V510ZM150 390V420H180V390ZM150 360V390H180V360ZM150 420V450H180V420ZM150 450V480H180V450ZM150 480V510H180V480ZM120 300V330H150V300ZM120 330V360H150V330ZM120 360V390H150V360ZM150 330V360H180V330ZM150 300V330H180V300ZM150 270V300H180V270ZM120 240V270H150V240ZM120 210V240H150V210ZM120 270V300H150V270ZM90 270V300H120V270ZM90 240V270H120V240ZM90 210V240H120V210ZM150 240V270H180V240ZM120 150V180H150V150ZM90 150V180H120V150ZM150 150V180H180V150ZM150 180V210H180V180ZM180 180V210H210V180ZM210 180V210H240V180ZM210 150V180H240V150ZM180 150V180H210V150ZM240 150V180H270V150ZM120 120V150H150V120ZM150 120V150H180V120ZM180 120V150H210V120ZM210 120V150H240V120ZM240 120V150H270V120ZM270 120V150H300V120ZM300 120V150H330V120ZM330 120V150H360V120ZM360 120V150H390V120ZM390 120V150H420V120ZM420 120V150H450V120ZM450 120V150H480V120ZM420 150V180H450V150ZM390 150V180H420V150ZM360 150V180H390V150ZM330 150V180H360V150ZM360 180V210H390V180ZM390 180V210H420V180ZM420 180V210H450V180ZM450 180V210H480V180ZM480 180V210H510V180ZM480 150V180H510V150ZM450 150V180H480V150ZM510 180V210H540V180ZM240 0V30H270V0ZM240 30V60H270V30ZM240 60V90H270V60ZM270 60V90H300V60ZM270 90V120H300V90ZM300 90V120H330V90ZM330 90V120H360V90ZM330 60V90H360V60ZM330 30V60H360V30ZM330 0V30H360V0ZM300 0V30H330V0ZM270 0V30H300V0ZM270 30V60H300V30ZM300 60V90H330V60ZM300 30V60H330V30ZM360 60V90H390V60ZM360 90V120H390V90ZM390 90V120H420V90ZM420 90V120H450V90ZM390 60V90H420V60ZM360 30V60H390V30ZM150 90V120H180V90ZM180 90V120H210V90ZM180 60V90H210V60ZM210 60V90H240V60ZM210 30V60H240V30ZM240 90V120H270V90ZM210 90V120H240V90ZM390 210V240H420V210ZM390 240V270H420V240ZM390 270V300H420V270ZM390 300V330H420V300ZM420 300V330H450V300ZM450 300V330H480V300ZM480 300V330H510V300ZM510 300V330H540V300ZM510 270V300H540V270ZM510 240V270H540V240ZM510 210V240H540V210ZM480 210V240H510V210ZM450 210V240H480V210ZM420 210V240H450V210ZM450 240V270H480V240ZM480 240V270H510V240ZM480 270V300H510V270ZM450 270V300H480V270ZM420 270V300H450V270ZM420 240V270H450V240ZM390 330V360H420V330ZM390 360V390H420V360ZM390 390V420H420V390ZM390 420V450H420V420ZM390 450V480H420V450ZM390 480V510H420V480ZM390 510V540H420V510ZM390 540V570H420V540ZM420 510V540H450V510ZM420 540V570H450V540ZM450 540V570H480V540ZM480 540V570H510V540ZM480 510V540H510V510ZM480 480V510H510V480ZM510 480V510H540V480ZM510 450V480H540V450ZM510 420V450H540V420ZM510 390V420H540V390ZM510 360V390H540V360ZM510 330V360H540V330ZM510 510V540H540V510ZM510 540V570H540V540ZM450 510V540H480V510ZM450 480V510H480V480ZM450 450V480H480V450ZM450 420V450H480V420ZM450 390V420H480V390ZM450 360V390H480V360ZM420 360V390H450V360ZM420 330V360H450V330ZM420 390V420H450V390ZM420 420V450H450V420ZM420 450V480H450V450ZM420 480V510H450V480ZM480 450V480H510V450ZM480 420V450H510V420ZM480 390V420H510V390ZM480 360V390H510V360ZM480 330V360H510V330ZM450 330V360H480V330ZM180 0V30H210V0ZM210 0V30H240V0ZM240 -30V0H270V-30ZM270 -30V0H300V-30ZM300 -30V0H330V-30ZM210 -30V0H240V-30ZM180 -30V0H210V-30ZM150 -30V0H180V-30ZM150 -60V-30H180V-60ZM120 -60V-30H150V-60ZM120 -90V-60H150V-90ZM90 -90V-60H120V-90ZM90 -120V-90H120V-120ZM90 -150V-120H120V-150ZM90 -180V-150H120V-180ZM120 -180V-150H150V-180ZM150 -180V-150H180V-180ZM150 -150V-120H180V-150ZM150 -120V-90H180V-120ZM120 -120V-90H150V-120ZM120 -150V-120H150V-150ZM180 -120V-90H210V-120ZM180 -150V-120H210V-150ZM210 -120V-90H240V-120ZM210 -90V-60H240V-90ZM240 -90V-60H270V-90ZM240 -60V-30H270V-60ZM270 -60V-30H300V-60ZM210 -60V-30H240V-60ZM180 -60V-30H210V-60ZM180 -90V-60H210V-90ZM150 -90V-60H180V-90ZM0 -242V990H2V-242ZM30 -242V990H32V-242ZM60 -242V990H62V-242ZM90 -242V990H92V-242ZM120 -242V990H122V-242ZM150 -242V990H152V-242ZM180 -242V990H182V-242ZM210 -242V990H212V-242ZM240 -242V990H242V-242ZM270 -242V990H272V-242ZM300 -242V990H302V-242ZM330 -242V990H332V-242ZM360 -242V990H362V-242ZM390 -242V990H392V-242ZM420 -242V990H422V-242ZM450 -242V990H452V-242ZM480 -242V990H482V-242ZM510 -242V990H512V-242ZM540 -242V990H542V-242ZM570 -242V990H572V-242ZM0 -242V-240H600V-242ZM0 -212V-210H600V-212ZM0 -182V-180H600V-182ZM0 -152V-150H600V-152ZM0 -122V-120H600V-122ZM0 -92V-90H600V-92ZM0 -62V-60H600V-62ZM0 -32V-30H600V-32ZM0 -2V0H600V-2ZM0 28V30H600V28ZM0 58V60H600V58ZM0 88V90H600V88ZM0 118V120H600V118ZM0 148V150H600V148ZM0 178V180H600V178ZM0 208V210H600V208ZM0 238V240H600V238ZM0 268V270H600V268ZM0 298V300H600V298ZM0 328V330H600V328ZM0 358V360H600V358ZM0 388V390H600V388ZM0 418V420H600V418ZM0 448V450H600V448ZM0 478V480H600V478ZM0 508V510H600V508ZM0 538V540H600V538ZM0 568V570H600V568ZM0 598V600H600V598ZM0 628V630H600V628ZM0 658V660H600V658ZM0 688V690H600V688ZM0 718V720H600V718ZM0 748V750H600V748ZM0 778V780H600V778ZM0 808V810H600V808ZM0 838V840H600V838ZM0 868V870H600V868ZM0 898V900H600V898ZM0 928V930H600V928ZM0 958V960H600V958ZM0 988V990H600V988Z" transform="translate(156.2926829268293, 72) scale(0.05853658536585366, -0.05853658536585366)" /><path d="M0 -242V990H2V-242ZM30 -242V990H32V-242ZM60 -242V990H62V-242ZM90 -242V990H92V-242ZM120 -242V990H122V-242ZM150 -242V990H152V-242ZM180 -242V990H182V-242ZM210 -242V990H212V-242ZM240 -242V990H242V-242ZM270 -242V990H272V-242ZM0 -242V-240H300V-242ZM0 -212V-210H300V-212ZM0 -182V-180H300V-182ZM0 -152V-150H300V-152ZM0 -122V-120H300V-122ZM0 -92V-90H300V-92ZM0 -62V-60H300V-62ZM0 -32V-30H300V-32ZM0 -2V0H300V-2ZM0 28V30H300V28ZM0 58V60H300V58ZM0 88V90H300V88ZM0 118V120H300V118ZM0 148V150H300V148ZM0 178V180H300V178ZM0 208V210H300V208ZM0 238V240H300V238ZM0 268V270H300V268ZM0 298V300H300V298ZM0 328V330H300V328ZM0 358V360H300V358ZM0 388V390H300V388ZM0 418V420H300V418ZM0 448V450H300V448ZM0 478V480H300V478ZM0 508V510H300V508ZM0 538V540H300V538ZM0 568V570H300V568ZM0 598V600H300V598ZM0 628V630H300V628ZM0 658V660H300V658ZM0 688V690H300V688ZM0 718V720H300V718ZM0 748V750H300V748ZM0 778V780H300V778ZM0 808V810H300V808ZM0 838V840H300V838ZM0 868V870H300V868ZM0 898V900H300V898ZM0 928V930H300V928ZM0 958V960H300V958ZM0 988V990H300V988Z" transform="translate(191.41463414634148, 72) scale(0.05853658536585366, -0.05853658536585366)" /><path d="M180 540V570H210V540ZM150 540V570H180V540ZM120 540V570H150V540ZM90 540V570H120V540ZM60 540V570H90V540ZM60 570V600H90V570ZM60 600V630H90V600ZM90 600V630H120V600ZM90 630V660H120V630ZM90 660V690H120V660ZM120 660V690H150V660ZM120 690V720H150V690ZM150 690V720H180V690ZM180 690V720H210V690ZM180 720V750H210V720ZM210 720V750H240V720ZM240 720V750H270V720ZM270 720V750H300V720ZM300 720V750H330V720ZM300 690V720H330V690ZM330 690V720H360V690ZM360 690V720H390V690ZM360 720V750H390V720ZM390 720V750H420V720ZM330 720V750H360V720ZM390 690V720H420V690ZM420 690V720H450V690ZM450 690V720H480V690ZM450 660V690H480V660ZM480 660V690H510V660ZM480 630V660H510V630ZM480 600V630H510V600ZM510 600V630H540V600ZM510 570V600H540V570ZM510 540V570H540V540ZM510 510V540H540V510ZM510 480V510H540V480ZM480 480V510H510V480ZM450 480V510H480V480ZM420 480V510H450V480ZM420 510V540H450V510ZM390 510V540H420V510ZM390 540V570H420V540ZM390 570V600H420V570ZM420 570V600H450V570ZM450 570V600H480V570ZM480 570V600H510V570ZM480 540V570H510V540ZM480 510V540H510V510ZM450 540V570H480V540ZM420 540V570H450V540ZM450 510V540H480V510ZM450 600V630H480V600ZM420 600V630H450V600ZM390 600V630H420V600ZM360 600V630H390V600ZM360 570V600H390V570ZM330 600V630H360V600ZM300 600V630H330V600ZM270 600V630H300V600ZM240 600V630H270V600ZM210 600V630H240V600ZM210 570V600H240V570ZM180 570V600H210V570ZM150 570V600H180V570ZM120 570V600H150V570ZM90 570V600H120V570ZM120 600V630H150V600ZM150 600V630H180V600ZM180 600V630H210V600ZM120 630V660H150V630ZM150 630V660H180V630ZM180 630V660H210V630ZM210 630V660H240V630ZM240 630V660H270V630ZM270 630V660H300V630ZM300 630V660H330V630ZM330 630V660H360V630ZM360 630V660H390V630ZM390 630V660H420V630ZM420 630V660H450V630ZM450 630V660H480V630ZM420 660V690H450V660ZM390 660V690H420V660ZM360 660V690H390V660ZM330 660V690H360V660ZM300 660V690H330V660ZM270 660V690H300V660ZM240 660V690H270V660ZM210 660V690H240V660ZM180 660V690H210V660ZM150 660V690H180V660ZM210 690V720H240V690ZM240 690V720H270V690ZM270 690V720H300V690ZM510 120V150H540V120ZM510 90V120H540V90ZM510 60V90H540V60ZM510 30V60H540V30ZM510 0V30H540V0ZM480 0V30H510V0ZM450 0V30H480V0ZM420 0V30H450V0ZM390 0V30H420V0ZM360 0V30H390V0ZM330 0V30H360V0ZM300 0V30H330V0ZM270 0V30H300V0ZM240 0V30H270V0ZM210 0V30H240V0ZM180 0V30H210V0ZM150 0V30H180V0ZM120 0V30H150V0ZM90 0V30H120V0ZM90 30V60H120V30ZM60 30V60H90V30ZM60 0V30H90V0ZM60 60V90H90V60ZM60 90V120H90V90ZM90 120V150H120V120ZM120 120V150H150V120ZM150 120V150H180V120ZM180 120V150H210V120ZM210 120V150H240V120ZM240 120V150H270V120ZM270 120V150H300V120ZM300 120V150H330V120ZM330 120V150H360V120ZM360 120V150H390V120ZM390 120V150H420V120ZM420 120V150H450V120ZM450 120V150H480V120ZM450 90V120H480V90ZM480 90V120H510V90ZM480 120V150H510V120ZM480 60V90H510V60ZM450 60V90H480V60ZM450 30V60H480V30ZM480 30V60H510V30ZM420 30V60H450V30ZM390 30V60H420V30ZM360 30V60H390V30ZM330 30V60H360V30ZM300 30V60H330V30ZM270 30V60H300V30ZM240 30V60H270V30ZM210 30V60H240V30ZM180 30V60H210V30ZM150 30V60H180V30ZM120 30V60H150V30ZM120 60V90H150V60ZM90 60V90H120V60ZM90 90V120H120V90ZM120 90V120H150V90ZM150 90V120H180V90ZM180 90V120H210V90ZM210 90V120H240V90ZM240 90V120H270V90ZM420 90V120H450V90ZM390 90V120H420V90ZM360 90V120H390V90ZM330 90V120H360V90ZM300 90V120H330V90ZM270 90V120H300V90ZM180 60V90H210V60ZM150 60V90H180V60ZM210 60V90H240V60ZM240 60V90H270V60ZM270 60V90H300V60ZM300 60V90H330V60ZM330 60V90H360V60ZM360 60V90H390V60ZM390 60V90H420V60ZM420 60V90H450V60ZM60 180V210H90V180ZM60 150V180H90V150ZM60 120V150H90V120ZM90 180V210H120V180ZM90 210V240H120V210ZM120 210V240H150V210ZM120 240V270H150V240ZM150 240V270H180V240ZM180 270V300H210V270ZM150 270V300H180V270ZM180 300V330H210V300ZM210 300V330H240V300ZM240 300V330H270V300ZM240 330V360H270V330ZM210 330V360H240V330ZM270 330V360H300V330ZM270 360V390H300V360ZM240 360V390H270V360ZM270 390V420H300V390ZM300 390V420H330V390ZM300 420V450H330V420ZM330 420V450H360V420ZM360 420V450H390V420ZM360 450V480H390V450ZM330 450V480H360V450ZM360 480V510H390V480ZM390 480V510H420V480ZM480 450V480H510V450ZM450 450V480H480V450ZM420 450V480H450V450ZM420 420V450H450V420ZM450 420V450H480V420ZM420 390V420H450V390ZM390 390V420H420V390ZM390 360V390H420V360ZM360 360V390H390V360ZM360 330V360H390V330ZM330 330V360H360V330ZM330 300V330H360V300ZM300 300V330H330V300ZM270 300V330H300V300ZM270 270V300H300V270ZM300 270V300H330V270ZM270 240V270H300V240ZM240 240V270H270V240ZM240 210V240H270V210ZM210 210V240H240V210ZM180 210V240H210V210ZM180 180V210H210V180ZM180 150V180H210V150ZM210 180V210H240V180ZM150 150V180H180V150ZM120 150V180H150V150ZM90 150V180H120V150ZM120 180V210H150V180ZM150 180V210H180V180ZM150 210V240H180V210ZM180 240V270H210V240ZM210 240V270H240V240ZM210 270V300H240V270ZM240 270V300H270V270ZM300 360V390H330V360ZM330 360V390H360V360ZM330 390V420H360V390ZM360 390V420H390V390ZM390 420V450H420V420ZM300 330V360H330V330ZM390 450V480H420V450ZM0 -242V990H2V-242ZM30 -242V990H32V-242ZM60 -242V990H62V-242ZM90 -242V990H92V-242ZM120 -242V990H122V-242ZM150 -242V990H152V-242ZM180 -242V990H182V-242ZM210 -242V990H212V-242ZM240 -242V990H242V-242ZM270 -242V990H272V-242ZM300 -242V990H302V-242ZM330 -242V990H332V-242ZM360 -242V990H362V-242ZM390 -242V990H392V-242ZM420 -242V990H422V-242ZM450 -242V990H452V-242ZM480 -242V990H482V-242ZM510 -242V990H512V-242ZM540 -242V990H542V-242ZM570 -242V990H572V-242ZM0 -242V-240H600V-242ZM0 -212V-210H600V-212ZM0 -182V-180H600V-182ZM0 -152V-150H600V-152ZM0 -122V-120H600V-122ZM0 -92V-90H600V-92ZM0 -62V-60H600V-62ZM0 -32V-30H600V-32ZM0 -2V0H600V-2ZM0 28V30H600V28ZM0 58V60H600V58ZM0 88V90H600V88ZM0 118V120H600V118ZM0 148V150H600V148ZM0 178V180H600V178ZM0 208V210H600V208ZM0 238V240H600V238ZM0 268V270H600V268ZM0 298V300H600V298ZM0 328V330H600V328ZM0 358V360H600V358ZM0 388V390H600V388ZM0 418V420H600V418ZM0 448V450H600V448ZM0 478V480H600V478ZM0 508V510H600V508ZM0 538V540H600V538ZM0 568V570H600V568ZM0 598V600H600V598ZM0 628V630H600V628ZM0 658V660H600V658ZM0 688V690H600V688ZM0 718V720H600V718ZM0 748V750H600V748ZM0 778V780H600V778ZM0 808V810H600V808ZM0 838V840H600V838ZM0 868V870H600V868ZM0 898V900H600V898ZM0 928V930H600V928ZM0 958V960H600V958ZM0 988V990H600V988Z" transform="translate(208.97560975609758, 72) scale(0.05853658536585366, -0.05853658536585366)" /><path d="M510 720V750H540V720ZM480 720V750H510V720ZM450 720V750H480V720ZM420 720V750H450V720ZM390 720V750H420V720ZM360 720V750H390V720ZM330 720V750H360V720ZM300 720V750H330V720ZM240 720V750H270V720ZM210 720V750H240V720ZM180 720V750H210V720ZM150 720V750H180V720ZM120 720V750H150V720ZM90 720V750H120V720ZM60 720V750H90V720ZM60 690V720H90V690ZM60 660V690H90V660ZM60 630V660H90V630ZM60 600V630H90V600ZM60 570V600H90V570ZM60 540V570H90V540ZM60 510V540H90V510ZM60 480V510H90V480ZM60 450V480H90V450ZM60 420V450H90V420ZM60 390V420H90V390ZM60 360V390H90V360ZM60 330V360H90V330ZM510 690V720H540V690ZM510 660V690H540V660ZM510 630V660H540V630ZM510 600V630H540V600ZM480 600V630H510V600ZM450 600V630H480V600ZM420 600V630H450V600ZM390 600V630H420V600ZM360 600V630H390V600ZM330 600V630H360V600ZM300 600V630H330V600ZM240 600V630H270V600ZM210 600V630H240V600ZM180 600V630H210V600ZM180 570V600H210V570ZM180 540V570H210V540ZM180 510V540H210V510ZM180 480V510H210V480ZM180 450V480H210V450ZM210 450V480H240V450ZM240 450V480H270V450ZM300 450V480H330V450ZM330 450V480H360V450ZM360 450V480H390V450ZM390 450V480H420V450ZM390 420V450H420V420ZM420 420V450H450V420ZM450 420V450H480V420ZM450 390V420H480V390ZM480 390V420H510V390ZM480 360V390H510V360ZM480 330V360H510V330ZM510 330V360H540V330ZM510 300V330H540V300ZM510 270V300H540V270ZM510 240V270H540V240ZM510 210V240H540V210ZM510 180V210H540V180ZM510 150V180H540V150ZM510 120V150H540V120ZM480 120V150H510V120ZM480 90V120H510V90ZM480 60V90H510V60ZM450 60V90H480V60ZM450 30V60H480V30ZM420 30V60H450V30ZM390 30V60H420V30ZM390 0V30H420V0ZM360 0V30H390V0ZM330 0V30H360V0ZM300 0V30H330V0ZM240 0V30H270V0ZM210 0V30H240V0ZM180 0V30H210V0ZM180 30V60H210V30ZM150 30V60H180V30ZM120 30V60H150V30ZM120 60V90H150V60ZM90 60V90H120V60ZM90 90V120H120V90ZM90 120V150H120V120ZM60 120V150H90V120ZM60 150V180H90V150ZM60 180V210H90V180ZM90 180V210H120V180ZM120 180V210H150V180ZM150 180V210H180V180ZM180 180V210H210V180ZM180 150V180H210V150ZM210 150V180H240V150ZM210 120V150H240V120ZM210 90V120H240V90ZM240 90V120H270V90ZM240 120V150H270V120ZM300 120V150H330V120ZM330 120V150H360V120ZM360 120V150H390V120ZM360 150V180H390V150ZM390 150V180H420V150ZM390 180V210H420V180ZM390 210V240H420V210ZM390 240V270H420V240ZM420 240V270H450V240ZM420 270V300H450V270ZM420 300V330H450V300ZM390 300V330H420V300ZM390 270V300H420V270ZM360 300V330H390V300ZM360 330V360H390V330ZM330 330V360H360V330ZM300 330V360H330V330ZM240 330V360H270V330ZM210 330V360H240V330ZM180 330V360H210V330ZM150 330V360H180V330ZM120 330V360H150V330ZM90 330V360H120V330ZM90 150V180H120V150ZM120 150V180H150V150ZM150 150V180H180V150ZM150 120V150H180V120ZM120 120V150H150V120ZM120 90V120H150V90ZM150 90V120H180V90ZM180 90V120H210V90ZM180 120V150H210V120ZM150 60V90H180V60ZM180 60V90H210V60ZM210 60V90H240V60ZM240 60V90H270V60ZM210 30V60H240V30ZM240 30V60H270V30ZM300 30V60H330V30ZM330 30V60H360V30ZM360 30V60H390V30ZM360 60V90H390V60ZM330 60V90H360V60ZM330 90V120H360V90ZM300 90V120H330V90ZM300 60V90H330V60ZM360 90V120H390V90ZM390 90V120H420V90ZM390 60V90H420V60ZM420 60V90H450V60ZM420 90V120H450V90ZM420 120V150H450V120ZM390 120V150H420V120ZM450 120V150H480V120ZM450 90V120H480V90ZM450 150V180H480V150ZM480 150V180H510V150ZM480 180V210H510V180ZM450 180V210H480V180ZM420 150V180H450V150ZM420 180V210H450V180ZM420 210V240H450V210ZM450 210V240H480V210ZM480 210V240H510V210ZM480 240V270H510V240ZM480 270V300H510V270ZM480 300V330H510V300ZM450 270V300H480V270ZM450 240V270H480V240ZM450 300V330H480V300ZM450 330V360H480V330ZM420 330V360H450V330ZM390 330V360H420V330ZM450 360V390H480V360ZM420 360V390H450V360ZM420 390V420H450V390ZM390 390V420H420V390ZM390 360V390H420V360ZM360 390V420H390V390ZM360 420V450H390V420ZM330 390V420H360V390ZM330 360V390H360V360ZM360 360V390H390V360ZM300 360V390H330V360ZM240 360V390H270V360ZM210 360V390H240V360ZM180 360V390H210V360ZM150 360V390H180V360ZM120 360V390H150V360ZM90 360V390H120V360ZM90 390V420H120V390ZM120 390V420H150V390ZM150 390V420H180V390ZM180 390V420H210V390ZM210 390V420H240V390ZM240 390V420H270V390ZM300 390V420H330V390ZM330 420V450H360V420ZM300 420V450H330V420ZM240 420V450H270V420ZM210 420V450H240V420ZM180 420V450H210V420ZM150 420V450H180V420ZM120 420V450H150V420ZM90 420V450H120V420ZM90 450V480H120V450ZM90 480V510H120V480ZM90 510V540H120V510ZM90 540V570H120V540ZM90 570V600H120V570ZM90 600V630H120V600ZM90 630V660H120V630ZM90 660V690H120V660ZM90 690V720H120V690ZM120 690V720H150V690ZM150 690V720H180V690ZM180 690V720H210V690ZM210 690V720H240V690ZM240 690V720H270V690ZM300 690V720H330V690ZM330 690V720H360V690ZM360 690V720H390V690ZM390 690V720H420V690ZM420 690V720H450V690ZM450 690V720H480V690ZM480 690V720H510V690ZM480 660V690H510V660ZM450 660V690H480V660ZM420 660V690H450V660ZM210 660V690H240V660ZM180 660V690H210V660ZM150 660V690H180V660ZM120 660V690H150V660ZM120 510V540H150V510ZM120 480V510H150V480ZM120 450V480H150V450ZM150 450V480H180V450ZM150 480V510H180V480ZM150 510V540H180V510ZM150 540V570H180V540ZM150 570V600H180V570ZM150 600V630H180V600ZM150 630V660H180V630ZM120 630V660H150V630ZM120 600V630H150V600ZM120 570V600H150V570ZM120 540V570H150V540ZM180 630V660H210V630ZM210 630V660H240V630ZM240 630V660H270V630ZM300 630V660H330V630ZM330 630V660H360V630ZM360 630V660H390V630ZM390 630V660H420V630ZM420 630V660H450V630ZM450 630V660H480V630ZM480 630V660H510V630ZM390 660V690H420V660ZM360 660V690H390V660ZM330 660V690H360V660ZM300 660V690H330V660ZM240 660V690H270V660ZM270 720V750H300V720ZM270 690V720H300V690ZM270 660V690H300V660ZM270 630V660H300V630ZM270 600V630H300V600ZM270 450V480H300V450ZM270 420V450H300V420ZM270 390V420H300V390ZM270 360V390H300V360ZM270 330V360H300V330ZM270 120V150H300V120ZM270 90V120H300V90ZM270 60V90H300V60ZM270 30V60H300V30ZM270 0V30H300V0ZM0 -242V990H2V-242ZM30 -242V990H32V-242ZM60 -242V990H62V-242ZM90 -242V990H92V-242ZM120 -242V990H122V-242ZM150 -242V990H152V-242ZM180 -242V990H182V-242ZM210 -242V990H212V-242ZM240 -242V990H242V-242ZM270 -242V990H272V-242ZM300 -242V990H302V-242ZM330 -242V990H332V-242ZM360 -242V990H362V-242ZM390 -242V990H392V-242ZM420 -242V990H422V-242ZM450 -242V990H452V-242ZM480 -242V990H482V-242ZM510 -242V990H512V-242ZM540 -242V990H542V-242ZM570 -242V990H572V-242ZM0 -242V-240H600V-242ZM0 -212V-210H600V-212ZM0 -182V-180H600V-182ZM0 -152V-150H600V-152ZM0 -122V-120H600V-122ZM0 -92V-90H600V-92ZM0 -62V-60H600V-62ZM0 -32V-30H600V-32ZM0 -2V0H600V-2ZM0 28V30H600V28ZM0 58V60H600V58ZM0 88V90H600V88ZM0 118V120H600V118ZM0 148V150H600V148ZM0 178V180H600V178ZM0 208V210H600V208ZM0 238V240H600V238ZM0 268V270H600V268ZM0 298V300H600V298ZM0 328V330H600V328ZM0 358V360H600V358ZM0 388V390H600V388ZM0 418V420H600V418ZM0 448V450H600V448ZM0 478V480H600V478ZM0 508V510H600V508ZM0 538V540H600V538ZM0 568V570H600V568ZM0 598V600H600V598ZM0 628V630H600V628ZM0 658V660H600V658ZM0 688V690H600V688ZM0 718V720H600V718ZM0 748V750H600V748ZM0 778V780H600V778ZM0 808V810H600V808ZM0 838V840H600V838ZM0 868V870H600V868ZM0 898V900H600V898ZM0 928V930H600V928ZM0 958V960H600V958ZM0 988V990H600V988Z" transform="translate(244.09756097560978, 72) scale(0.05853658536585366, -0.05853658536585366)" /><path d="M0 -242V990H2V-242ZM30 -242V990H32V-242ZM60 -242V990H62V-242ZM90 -242V990H92V-242ZM120 -242V990H122V-242ZM150 -242V990H152V-242ZM180 -242V990H182V-242ZM210 -242V990H212V-242ZM240 -242V990H242V-242ZM270 -242V990H272V-242ZM0 -242V-240H300V-242ZM0 -212V-210H300V-212ZM0 -182V-180H300V-182ZM0 -152V-150H300V-152ZM0 -122V-120H300V-122ZM0 -92V-90H300V-92ZM0 -62V-60H300V-62ZM0 -32V-30H300V-32ZM0 -2V0H300V-2ZM0 28V30H300V28ZM0 58V60H300V58ZM0 88V90H300V88ZM0 118V120H300V118ZM0 148V150H300V148ZM0 178V180H300V178ZM0 208V210H300V208ZM0 238V240H300V238ZM0 268V270H300V268ZM0 298V300H300V298ZM0 328V330H300V328ZM0 358V360H300V358ZM0 388V390H300V388ZM0 418V420H300V418ZM0 448V450H300V448ZM0 478V480H300V478ZM0 508V510H300V508ZM0 538V540H300V538ZM0 568V570H300V568ZM0 598V600H300V598ZM0 628V630H300V628ZM0 658V660H300V658ZM0 688V690H300V688ZM0 718V720H300V718ZM0 748V750H300V748ZM0 778V780H300V778ZM0 808V810H300V808ZM0 838V840H300V838ZM0 868V870H300V868ZM0 898V900H300V898ZM0 928V930H300V928ZM0 958V960H300V958ZM0 988V990H300V988Z" transform="translate(279.219512195122, 72) scale(0.05853658536585366, -0.05853658536585366)" /><path d="M60 120V150H90V120ZM60 150V180H90V150ZM60 180V210H90V180ZM60 210V240H90V210ZM60 240V270H90V240ZM60 270V300H90V270ZM60 300V330H90V300ZM60 330V360H90V330ZM60 360V390H90V360ZM60 390V420H90V390ZM60 420V450H90V420ZM90 420V450H120V420ZM90 390V420H120V390ZM90 360V390H120V360ZM90 330V360H120V330ZM90 300V330H120V300ZM90 270V300H120V270ZM90 240V270H120V240ZM120 210V240H150V210ZM120 180V210H150V180ZM120 150V180H150V150ZM120 120V150H150V120ZM120 90V120H150V90ZM120 60V90H150V60ZM120 30V60H150V30ZM180 0V30H210V0ZM180 30V60H210V30ZM180 60V90H210V60ZM180 90V120H210V90ZM180 120V150H210V120ZM180 150V180H210V150ZM180 180V210H210V180ZM180 210V240H210V210ZM150 210V240H180V210ZM150 240V270H180V240ZM150 180V210H180V180ZM150 150V180H180V150ZM150 120V150H180V120ZM150 90V120H180V90ZM150 60V90H180V60ZM150 30V60H180V30ZM90 60V90H120V60ZM90 90V120H120V90ZM90 120V150H120V120ZM90 150V180H120V150ZM90 180V210H120V180ZM90 210V240H120V210ZM60 450V480H90V450ZM150 450V480H180V450ZM150 420V450H180V420ZM150 390V420H180V390ZM150 360V390H180V360ZM150 330V360H180V330ZM180 300V330H210V300ZM180 270V300H210V270ZM180 240V270H210V240ZM180 330V360H210V330ZM180 360V390H210V360ZM180 390V420H210V390ZM180 420V450H210V420ZM180 450V480H210V450ZM90 450V480H120V450ZM120 450V480H150V450ZM120 420V450H150V420ZM120 390V420H150V390ZM120 360V390H150V360ZM120 330V360H150V330ZM120 300V330H150V300ZM120 270V300H150V270ZM120 240V270H150V240ZM150 270V300H180V270ZM150 300V330H180V300ZM420 0V30H450V0ZM420 30V60H450V30ZM420 60V90H450V60ZM420 90V120H450V90ZM420 120V150H450V120ZM420 150V180H450V150ZM420 180V210H450V180ZM480 180V210H510V180ZM480 150V180H510V150ZM480 120V150H510V120ZM480 90V120H510V90ZM480 60V90H510V60ZM480 30V60H510V30ZM540 120V150H570V120ZM540 150V180H570V150ZM540 180V210H570V180ZM510 180V210H540V180ZM510 150V180H540V150ZM510 120V150H540V120ZM510 90V120H540V90ZM510 60V90H540V60ZM450 30V60H480V30ZM450 60V90H480V60ZM450 90V120H480V90ZM450 120V150H480V120ZM450 150V180H480V150ZM450 180V210H480V180ZM210 0V30H240V0ZM240 0V30H270V0ZM270 0V30H300V0ZM300 0V30H330V0ZM330 0V30H360V0ZM390 0V30H420V0ZM390 30V60H420V30ZM330 30V60H360V30ZM300 30V60H330V30ZM270 30V60H300V30ZM240 30V60H270V30ZM210 30V60H240V30ZM210 60V90H240V60ZM240 60V90H270V60ZM270 60V90H300V60ZM300 60V90H330V60ZM330 60V90H360V60ZM390 60V90H420V60ZM390 90V120H420V90ZM330 90V120H360V90ZM300 90V120H330V90ZM270 90V120H300V90ZM240 90V120H270V90ZM210 90V120H240V90ZM210 120V150H240V120ZM390 120V150H420V120ZM570 630V600H540V630ZM570 600V570H540V600ZM570 570V540H540V570ZM510 570V540H480V570ZM510 600V570H480V600ZM510 630V600H480V630ZM510 660V630H480V660ZM510 690V660H480V690ZM510 720V690H480V720ZM450 750V720H420V750ZM450 720V690H420V720ZM450 690V660H420V690ZM450 660V630H420V660ZM450 630V600H420V630ZM450 600V570H420V600ZM450 570V540H420V570ZM480 570V540H450V570ZM480 600V570H450V600ZM480 630V600H450V630ZM480 660V630H450V660ZM480 690V660H450V690ZM480 720V690H450V720ZM540 690V660H510V690ZM540 660V630H510V660ZM540 630V600H510V630ZM540 600V570H510V600ZM540 570V540H510V570ZM210 750V720H180V750ZM210 720V690H180V720ZM210 690V660H180V690ZM210 660V630H180V660ZM210 630V600H180V630ZM210 600V570H180V600ZM210 570V540H180V570ZM150 570V540H120V570ZM150 600V570H120V600ZM150 630V600H120V630ZM150 660V630H120V660ZM150 690V660H120V690ZM150 720V690H120V720ZM90 630V600H60V630ZM90 600V570H60V600ZM90 570V540H60V570ZM120 570V540H90V570ZM120 600V570H90V600ZM120 630V600H90V630ZM120 660V630H90V660ZM120 690V660H90V690ZM180 720V690H150V720ZM180 690V660H150V690ZM180 660V630H150V660ZM180 630V600H150V630ZM180 600V570H150V600ZM180 570V540H150V570ZM420 750V720H390V750ZM360 750V720H330V750ZM330 750V720H300V750ZM300 750V720H270V750ZM270 750V720H240V750ZM240 750V720H210V750ZM240 720V690H210V720ZM270 720V690H240V720ZM300 720V690H270V720ZM330 720V690H300V720ZM360 720V690H330V720ZM420 720V690H390V720ZM420 690V660H390V690ZM360 690V660H330V690ZM330 690V660H300V690ZM300 690V660H270V690ZM270 690V660H240V690ZM240 690V660H210V690ZM240 660V630H210V660ZM270 660V630H240V660ZM300 660V630H270V660ZM330 660V630H300V660ZM360 660V630H330V660ZM420 660V630H390V660ZM420 630V600H390V630ZM240 630V600H210V630ZM60 480V510H90V480ZM90 480V510H120V480ZM60 510V540H90V510ZM150 510V540H180V510ZM150 480V510H180V480ZM180 480V510H210V480ZM180 510V540H210V510ZM90 510V540H120V510ZM120 510V540H150V510ZM120 480V510H150V480ZM240 120V150H270V120ZM270 120V150H300V120ZM300 120V150H330V120ZM330 120V150H360V120ZM390 150V180H420V150ZM210 150V180H240V150ZM420 210V240H450V210ZM450 210V240H480V210ZM480 210V240H510V210ZM510 210V240H540V210ZM540 210V240H570V210ZM210 570V600H240V570ZM240 600V630H270V600ZM270 600V630H300V600ZM300 600V630H330V600ZM330 600V630H360V600ZM390 570V600H420V570ZM420 510V540H450V510ZM450 510V540H480V510ZM480 510V540H510V510ZM510 510V540H540V510ZM540 510V540H570V510ZM360 720V750H390V720ZM360 690V720H390V690ZM360 660V690H390V660ZM360 630V660H390V630ZM360 600V630H390V600ZM360 120V150H390V120ZM360 90V120H390V90ZM360 60V90H390V60ZM360 30V60H390V30ZM360 0V30H390V0ZM0 -242V990H2V-242ZM30 -242V990H32V-242ZM60 -242V990H62V-242ZM90 -242V990H92V-242ZM120 -242V990H122V-242ZM150 -242V990H152V-242ZM180 -242V990H182V-242ZM210 -242V990H212V-242ZM240 -242V990H242V-242ZM270 -242V990H272V-242ZM300 -242V990H302V-242ZM330 -242V990H332V-242ZM360 -242V990H362V-242ZM390 -242V990H392V-242ZM420 -242V990H422V-242ZM450 -242V990H452V-242ZM480 -242V990H482V-242ZM510 -242V990H512V-242ZM540 -242V990H542V-242ZM570 -242V990H572V-242ZM600 -242V990H602V-242ZM0 -242V-240H630V-242ZM0 -212V-210H630V-212ZM0 -182V-180H630V-182ZM0 -152V-150H630V-152ZM0 -122V-120H630V-122ZM0 -92V-90H630V-92ZM0 -62V-60H630V-62ZM0 -32V-30H630V-32ZM0 -2V0H630V-2ZM0 28V30H630V28ZM0 58V60H630V58ZM0 88V90H630V88ZM0 118V120H630V118ZM0 148V150H630V148ZM0 178V180H630V178ZM0 208V210H630V208ZM0 238V240H630V238ZM0 268V270H630V268ZM0 298V300H630V298ZM0 328V330H630V328ZM0 358V360H630V358ZM0 388V390H630V388ZM0 418V420H630V418ZM0 448V450H630V448ZM0 478V480H630V478ZM0 508V510H630V508ZM0 538V540H630V538ZM0 568V570H630V568ZM0 598V600H630V598ZM0 628V630H630V628ZM0 658V660H630V658ZM0 688V690H630V688ZM0 718V720H630V718ZM0 748V750H630V748ZM0 778V780H630V778ZM0 808V810H630V808ZM0 838V840H630V838ZM0 868V870H630V868ZM0 898V900H630V898ZM0 928V930H630V928ZM0 958V960H630V958ZM0 988V990H630V988Z" transform="translate(296.7804878048781, 72) scale(0.05853658536585366, -0.05853658536585366)" /><path d="M60 0V30H90V0ZM60 30V60H90V30ZM60 60V90H90V60ZM60 90V120H90V90ZM60 120V150H90V120ZM60 150V180H90V150ZM60 180V210H90V180ZM60 210V240H90V210ZM60 240V270H90V240ZM60 270V300H90V270ZM60 300V330H90V300ZM60 330V360H90V330ZM60 360V390H90V360ZM60 390V420H90V390ZM60 420V450H90V420ZM90 420V450H120V420ZM90 390V420H120V390ZM90 360V390H120V360ZM90 330V360H120V330ZM90 300V330H120V300ZM90 270V300H120V270ZM90 240V270H120V240ZM120 210V240H150V210ZM120 180V210H150V180ZM120 150V180H150V150ZM120 120V150H150V120ZM120 90V120H150V90ZM120 60V90H150V60ZM120 30V60H150V30ZM120 0V30H150V0ZM150 0V30H180V0ZM180 0V30H210V0ZM180 30V60H210V30ZM180 60V90H210V60ZM180 90V120H210V90ZM180 120V150H210V120ZM180 150V180H210V150ZM180 180V210H210V180ZM180 210V240H210V210ZM150 210V240H180V210ZM150 240V270H180V240ZM150 180V210H180V180ZM150 150V180H180V150ZM150 120V150H180V120ZM150 90V120H180V90ZM150 60V90H180V60ZM150 30V60H180V30ZM90 0V30H120V0ZM90 30V60H120V30ZM90 60V90H120V60ZM90 90V120H120V90ZM90 120V150H120V120ZM90 150V180H120V150ZM90 180V210H120V180ZM90 210V240H120V210ZM60 720V750H90V720ZM60 690V720H90V690ZM60 660V690H90V660ZM60 630V660H90V630ZM60 600V630H90V600ZM60 570V600H90V570ZM60 540V570H90V540ZM60 510V540H90V510ZM60 480V510H90V480ZM60 450V480H90V450ZM150 720V750H180V720ZM150 690V720H180V690ZM150 660V690H180V660ZM150 630V660H180V630ZM150 600V630H180V600ZM150 570V600H180V570ZM150 510V540H180V510ZM150 480V510H180V480ZM150 450V480H180V450ZM150 420V450H180V420ZM150 390V420H180V390ZM150 360V390H180V360ZM150 330V360H180V330ZM180 300V330H210V300ZM180 270V300H210V270ZM180 240V270H210V240ZM180 330V360H210V330ZM180 360V390H210V360ZM180 390V420H210V390ZM180 420V450H210V420ZM180 450V480H210V450ZM180 480V510H210V480ZM180 510V540H210V510ZM180 540V570H210V540ZM180 570V600H210V570ZM180 600V630H210V600ZM150 540V570H180V540ZM180 630V660H210V630ZM180 660V690H210V660ZM180 690V720H210V690ZM180 720V750H210V720ZM120 720V750H150V720ZM90 720V750H120V720ZM90 690V720H120V690ZM120 690V720H150V690ZM120 660V690H150V660ZM120 630V660H150V630ZM120 600V630H150V600ZM120 570V600H150V570ZM120 540V570H150V540ZM120 510V540H150V510ZM90 480V510H120V480ZM90 450V480H120V450ZM90 510V540H120V510ZM90 540V570H120V540ZM90 570V600H120V570ZM90 600V630H120V600ZM90 630V660H120V630ZM90 660V690H120V660ZM120 480V510H150V480ZM120 450V480H150V450ZM120 420V450H150V420ZM120 390V420H150V390ZM120 360V390H150V360ZM120 330V360H150V330ZM120 300V330H150V300ZM120 270V300H150V270ZM120 240V270H150V240ZM150 270V300H180V270ZM150 300V330H180V300ZM390 0V30H420V0ZM420 0V30H450V0ZM450 0V30H480V0ZM480 0V30H510V0ZM510 30V60H540V30ZM510 60V90H540V60ZM510 0V30H540V0ZM480 30V60H510V30ZM450 30V60H480V30ZM420 30V60H450V30ZM390 30V60H420V30ZM390 60V90H420V60ZM390 90V120H420V90ZM420 90V120H450V90ZM450 90V120H480V90ZM480 90V120H510V90ZM510 90V120H540V90ZM480 60V90H510V60ZM450 60V90H480V60ZM420 60V90H450V60ZM510 420V450H540V420ZM480 420V450H510V420ZM420 420V450H450V420ZM420 390V420H450V390ZM420 360V390H450V360ZM390 330V360H420V330ZM390 300V330H420V300ZM390 270V300H420V270ZM390 240V270H420V240ZM390 210V240H420V210ZM390 180V210H420V180ZM390 150V180H420V150ZM390 120V150H420V120ZM420 120V150H450V120ZM450 120V150H480V120ZM480 120V150H510V120ZM510 120V150H540V120ZM510 150V180H540V150ZM510 210V240H540V210ZM510 240V270H540V240ZM510 270V300H540V270ZM510 300V330H540V300ZM510 330V360H540V330ZM510 360V390H540V360ZM510 390V420H540V390ZM480 270V300H510V270ZM480 210V240H510V210ZM480 180V210H510V180ZM480 150V180H510V150ZM510 180V210H540V180ZM480 330V360H510V330ZM450 330V360H480V330ZM420 330V360H450V330ZM420 300V330H450V300ZM420 270V300H450V270ZM420 240V270H450V240ZM420 210V240H450V210ZM420 180V210H450V180ZM420 150V180H450V150ZM450 150V180H480V150ZM450 180V210H480V180ZM450 210V240H480V210ZM450 240V270H480V240ZM450 270V300H480V270ZM450 300V330H480V300ZM480 300V330H510V300ZM480 240V270H510V240ZM480 360V390H510V360ZM480 390V420H510V390ZM450 390V420H480V390ZM450 360V390H480V360ZM390 360V390H420V360ZM390 390V420H420V390ZM390 420V450H420V420ZM450 420V450H480V420ZM390 540V570H420V540ZM390 510V540H420V510ZM420 510V540H450V510ZM450 510V540H480V510ZM450 480V510H480V480ZM480 480V510H510V480ZM480 450V480H510V450ZM450 450V480H480V450ZM420 450V480H450V450ZM420 480V510H450V480ZM390 480V510H420V480ZM360 480V510H390V480ZM360 450V480H390V450ZM390 450V480H420V450ZM360 420V450H390V420ZM330 450V480H360V450ZM330 480V510H360V480ZM330 510V540H360V510ZM330 540V570H360V540ZM360 540V570H390V540ZM360 510V540H390V510ZM300 540V570H330V540ZM300 510V540H330V510ZM300 480V510H330V480ZM300 450V480H330V450ZM270 540V570H300V540ZM270 510V540H300V510ZM240 510V540H270V510ZM240 480V510H270V480ZM210 480V510H240V480ZM210 450V480H240V450ZM240 450V480H270V450ZM270 450V480H300V450ZM270 480V510H300V480ZM210 420V450H240V420ZM240 540V570H270V540ZM210 510V540H240V510ZM0 -242V990H2V-242ZM30 -242V990H32V-242ZM60 -242V990H62V-242ZM90 -242V990H92V-242ZM120 -242V990H122V-242ZM150 -242V990H152V-242ZM180 -242V990H182V-242ZM210 -242V990H212V-242ZM240 -242V990H242V-242ZM270 -242V990H272V-242ZM300 -242V990H302V-242ZM330 -242V990H332V-242ZM360 -242V990H362V-242ZM390 -242V990H392V-242ZM420 -242V990H422V-242ZM450 -242V990H452V-242ZM480 -242V990H482V-242ZM510 -242V990H512V-242ZM540 -242V990H542V-242ZM0 -242V-240H570V-242ZM0 -212V-210H570V-212ZM0 -182V-180H570V-182ZM0 -152V-150H570V-152ZM0 -122V-120H570V-122ZM0 -92V-90H570V-92ZM0 -62V-60H570V-62ZM0 -32V-30H570V-32ZM0 -2V0H570V-2ZM0 28V30H570V28ZM0 58V60H570V58ZM0 88V90H570V88ZM0 118V120H570V118ZM0 148V150H570V148ZM0 178V180H570V178ZM0 208V210H570V208ZM0 238V240H570V238ZM0 268V270H570V268ZM0 298V300H570V298ZM0 328V330H570V328ZM0 358V360H570V358ZM0 388V390H570V388ZM0 418V420H570V418ZM0 448V450H570V448ZM0 478V480H570V478ZM0 508V510H570V508ZM0 538V540H570V538ZM0 568V570H570V568ZM0 598V600H570V598ZM0 628V630H570V628ZM0 658V660H570V658ZM0 688V690H570V688ZM0 718V720H570V718ZM0 748V750H570V748ZM0 778V780H570V778ZM0 808V810H570V808ZM0 838V840H570V838ZM0 868V870H570V868ZM0 898V900H570V898ZM0 928V930H570V928ZM0 958V960H570V958ZM0 988V990H570V988Z" transform="translate(333.6585365853659, 72) scale(0.05853658536585366, -0.05853658536585366)" /><path d="M180 210V180H150V210ZM150 210V180H120V210ZM120 210V180H90V210ZM90 210V180H60V210ZM60 210V180H30V210ZM60 180V150H30V180ZM60 150V120H30V150ZM90 150V120H60V150ZM120 150V120H90V150ZM150 150V120H120V150ZM150 180V150H120V180ZM180 180V150H150V180ZM120 180V150H90V180ZM90 180V150H60V180ZM180 150V120H150V150ZM210 150V120H180V150ZM210 120V90H180V120ZM180 120V90H150V120ZM150 120V90H120V120ZM120 120V90H90V120ZM90 120V90H60V120ZM90 90V60H60V90ZM120 90V60H90V90ZM150 90V60H120V90ZM180 90V60H150V90ZM210 90V60H180V90ZM150 60V30H120V60ZM120 60V30H90V60ZM180 60V30H150V60ZM180 30V0H150V30ZM210 30V0H180V30ZM210 60V30H180V60ZM240 60V30H210V60ZM240 30V0H210V30ZM240 90V60H210V90ZM270 90V60H240V90ZM270 120V90H240V120ZM240 120V90H210V120ZM300 120V90H270V120ZM300 90V60H270V90ZM300 60V30H270V60ZM300 30V0H270V30ZM270 30V0H240V30ZM270 60V30H240V60ZM330 30V0H300V30ZM390 60V30H360V60ZM390 90V60H360V90ZM390 120V90H360V120ZM360 120V90H330V120ZM330 120V90H300V120ZM330 90V60H300V90ZM330 60V30H300V60ZM360 60V30H330V60ZM360 90V60H330V90ZM420 90V60H390V90ZM420 60V30H390V60ZM450 60V30H420V60ZM450 90V60H420V90ZM480 90V60H450V90ZM480 120V90H450V120ZM480 150V120H450V150ZM450 150V120H420V150ZM450 120V90H420V120ZM420 120V90H390V120ZM420 150V120H390V150ZM390 150V120H360V150ZM510 150V120H480V150ZM510 180V150H480V180ZM510 210V180H480V210ZM510 240V210H480V240ZM510 270V240H480V270ZM510 300V270H480V300ZM510 330V300H480V330ZM510 360V330H480V360ZM510 390V360H480V390ZM510 420V390H480V420ZM480 420V390H450V420ZM480 450V420H450V450ZM510 450V420H480V450ZM450 450V420H420V450ZM420 450V420H390V450ZM390 450V420H360V450ZM360 450V420H330V450ZM390 420V390H360V420ZM390 390V360H360V390ZM390 360V330H360V360ZM390 330V300H360V330ZM390 300V270H360V300ZM390 270V240H360V270ZM390 240V210H360V240ZM390 210V180H360V210ZM390 180V150H360V180ZM420 180V150H390V180ZM450 180V150H420V180ZM480 180V150H450V180ZM480 210V180H450V210ZM480 240V210H450V240ZM480 270V240H450V270ZM480 300V270H450V300ZM480 330V300H450V330ZM480 360V330H450V360ZM480 390V360H450V390ZM450 420V390H420V420ZM420 420V390H390V420ZM420 390V360H390V390ZM420 360V330H390V360ZM420 330V300H390V330ZM420 300V270H390V300ZM450 300V270H420V300ZM450 270V240H420V270ZM450 240V210H420V240ZM450 210V180H420V210ZM420 210V180H390V210ZM420 240V210H390V240ZM420 270V240H390V270ZM450 360V330H420V360ZM450 390V360H420V390ZM450 330V300H420V330ZM180 420V390H150V420ZM150 420V390H120V420ZM120 420V390H90V420ZM90 420V390H60V420ZM60 420V390H30V420ZM60 450V420H30V450ZM90 450V420H60V450ZM120 450V420H90V450ZM150 450V420H120V450ZM180 450V420H150V450ZM210 450V420H180V450ZM210 480V450H180V480ZM180 480V450H150V480ZM150 480V450H120V480ZM120 480V450H90V480ZM120 510V480H90V510ZM90 510V480H60V510ZM90 480V450H60V480ZM120 540V510H90V540ZM150 540V510H120V540ZM150 510V480H120V510ZM180 510V480H150V510ZM180 540V510H150V540ZM180 570V540H150V570ZM210 570V540H180V570ZM240 570V540H210V570ZM270 570V540H240V570ZM300 570V540H270V570ZM330 570V540H300V570ZM360 570V540H330V570ZM390 570V540H360V570ZM360 540V510H330V540ZM330 540V510H300V540ZM300 540V510H270V540ZM270 540V510H240V540ZM240 540V510H210V540ZM210 540V510H180V540ZM210 510V480H180V510ZM240 510V480H210V510ZM270 510V480H240V510ZM300 510V480H270V510ZM330 510V480H300V510ZM360 510V480H330V510ZM390 540V510H360V540ZM420 540V510H390V540ZM450 540V510H420V540ZM450 510V480H420V510ZM480 510V480H450V510ZM480 480V450H450V480ZM450 480V450H420V480ZM420 480V450H390V480ZM390 480V450H360V480ZM360 480V450H330V480ZM330 480V450H300V480ZM300 480V450H270V480ZM270 480V450H240V480ZM240 480V450H210V480ZM390 510V480H360V510ZM420 510V480H390V510ZM90 240V210H60V240ZM120 240V210H90V240ZM150 240V210H120V240ZM180 240V210H150V240ZM120 270V240H90V270ZM150 270V240H120V270ZM210 270V240H180V270ZM240 270V240H210V270ZM270 270V240H240V270ZM300 270V240H270V270ZM330 270V240H300V270ZM360 270V240H330V270ZM180 270V240H150V270ZM90 270V240H60V270ZM120 300V270H90V300ZM150 300V270H120V300ZM180 300V270H150V300ZM210 300V270H180V300ZM240 300V270H210V300ZM270 300V270H240V300ZM300 300V270H270V300ZM330 300V270H300V300ZM360 300V270H330V300ZM360 330V300H330V330ZM330 330V300H300V330ZM300 330V300H270V330ZM240 330V300H210V330ZM210 330V300H180V330ZM180 330V300H150V330ZM270 330V300H240V330ZM480 90V120H510V90ZM480 60V90H510V60ZM480 30V60H510V30ZM480 0V30H510V0ZM450 0V30H480V0ZM450 30V60H480V30ZM420 0V30H450V0ZM390 0V30H420V0ZM360 0V30H390V0ZM330 120V150H360V120ZM120 0V30H150V0ZM180 210V240H210V210ZM0 -242V990H2V-242ZM30 -242V990H32V-242ZM60 -242V990H62V-242ZM90 -242V990H92V-242ZM120 -242V990H122V-242ZM150 -242V990H152V-242ZM180 -242V990H182V-242ZM210 -242V990H212V-242ZM240 -242V990H242V-242ZM270 -242V990H272V-242ZM300 -242V990H302V-242ZM330 -242V990H332V-242ZM360 -242V990H362V-242ZM390 -242V990H392V-242ZM420 -242V990H422V-242ZM450 -242V990H452V-242ZM480 -242V990H482V-242ZM510 -242V990H512V-242ZM540 -242V990H542V-242ZM0 -242V-240H570V-242ZM0 -212V-210H570V-212ZM0 -182V-180H570V-182ZM0 -152V-150H570V-152ZM0 -122V-120H570V-122ZM0 -92V-90H570V-92ZM0 -62V-60H570V-62ZM0 -32V-30H570V-32ZM0 -2V0H570V-2ZM0 28V30H570V28ZM0 58V60H570V58ZM0 88V90H570V88ZM0 118V120H570V118ZM0 148V150H570V148ZM0 178V180H570V178ZM0 208V210H570V208ZM0 238V240H570V238ZM0 268V270H570V268ZM0 298V300H570V298ZM0 328V330H570V328ZM0 358V360H570V358ZM0 388V390H570V388ZM0 418V420H570V418ZM0 448V450H570V448ZM0 478V480H570V478ZM0 508V510H570V508ZM0 538V540H570V538ZM0 568V570H570V568ZM0 598V600H570V598ZM0 628V630H570V628ZM0 658V660H570V658ZM0 688V690H570V688ZM0 718V720H570V718ZM0 748V750H570V748ZM0 778V780H570V778ZM0 808V810H570V808ZM0 838V840H570V838ZM0 868V870H570V868ZM0 898V900H570V898ZM0 928V930H570V928ZM0 958V960H570V958ZM0 988V990H570V988Z" transform="translate(367.0243902439025, 72) scale(0.05853658536585366, -0.05853658536585366)" /><path d="M60 0V30H90V0ZM60 30V60H90V30ZM60 60V90H90V60ZM60 90V120H90V90ZM60 120V150H90V120ZM60 150V180H90V150ZM60 180V210H90V180ZM60 210V240H90V210ZM60 240V270H90V240ZM60 270V300H90V270ZM60 300V330H90V300ZM60 330V360H90V330ZM60 360V390H90V360ZM60 390V420H90V390ZM60 420V450H90V420ZM90 420V450H120V420ZM90 390V420H120V390ZM90 360V390H120V360ZM90 330V360H120V330ZM90 300V330H120V300ZM90 270V300H120V270ZM90 240V270H120V240ZM120 210V240H150V210ZM120 180V210H150V180ZM120 150V180H150V150ZM120 120V150H150V120ZM120 90V120H150V90ZM120 60V90H150V60ZM120 30V60H150V30ZM120 0V30H150V0ZM150 0V30H180V0ZM180 0V30H210V0ZM180 30V60H210V30ZM180 60V90H210V60ZM180 90V120H210V90ZM180 120V150H210V120ZM180 150V180H210V150ZM180 180V210H210V180ZM180 210V240H210V210ZM150 210V240H180V210ZM150 240V270H180V240ZM150 180V210H180V180ZM150 150V180H180V150ZM150 120V150H180V120ZM150 90V120H180V90ZM150 60V90H180V60ZM150 30V60H180V30ZM90 0V30H120V0ZM90 30V60H120V30ZM90 60V90H120V60ZM90 90V120H120V90ZM90 120V150H120V120ZM90 150V180H120V150ZM90 180V210H120V180ZM90 210V240H120V210ZM60 540V570H90V540ZM60 510V540H90V510ZM60 480V510H90V480ZM60 450V480H90V450ZM150 510V540H180V510ZM150 480V510H180V480ZM150 450V480H180V450ZM150 420V450H180V420ZM150 390V420H180V390ZM150 360V390H180V360ZM150 330V360H180V330ZM180 300V330H210V300ZM180 270V300H210V270ZM180 240V270H210V240ZM180 330V360H210V330ZM180 360V390H210V360ZM180 390V420H210V390ZM180 420V450H210V420ZM180 450V480H210V450ZM180 480V510H210V480ZM180 510V540H210V510ZM180 540V570H210V540ZM150 540V570H180V540ZM120 540V570H150V540ZM120 510V540H150V510ZM90 480V510H120V480ZM90 450V480H120V450ZM90 510V540H120V510ZM90 540V570H120V540ZM120 480V510H150V480ZM120 450V480H150V450ZM120 420V450H150V420ZM120 390V420H150V390ZM120 360V390H150V360ZM120 330V360H150V330ZM120 300V330H150V300ZM120 270V300H150V270ZM120 240V270H150V240ZM150 270V300H180V270ZM150 300V330H180V300ZM390 420V450H420V420ZM390 540V570H420V540ZM390 510V540H420V510ZM420 510V540H450V510ZM450 480V510H480V480ZM420 450V480H450V450ZM420 480V510H450V480ZM390 480V510H420V480ZM360 480V510H390V480ZM360 450V480H390V450ZM390 450V480H420V450ZM360 420V450H390V420ZM330 450V480H360V450ZM330 480V510H360V480ZM330 510V540H360V510ZM330 540V570H360V540ZM360 540V570H390V540ZM360 510V540H390V510ZM300 540V570H330V540ZM300 510V540H330V510ZM300 480V510H330V480ZM300 450V480H330V450ZM270 540V570H300V540ZM270 510V540H300V510ZM240 510V540H270V510ZM240 480V510H270V480ZM210 480V510H240V480ZM210 450V480H240V450ZM240 450V480H270V450ZM270 450V480H300V450ZM270 480V510H300V480ZM210 420V450H240V420ZM240 540V570H270V540ZM210 510V540H240V510ZM330 420V450H360V420ZM360 390V420H390V390ZM0 -242V990H2V-242ZM30 -242V990H32V-242ZM60 -242V990H62V-242ZM90 -242V990H92V-242ZM120 -242V990H122V-242ZM150 -242V990H152V-242ZM180 -242V990H182V-242ZM210 -242V990H212V-242ZM240 -242V990H242V-242ZM270 -242V990H272V-242ZM300 -242V990H302V-242ZM330 -242V990H332V-242ZM360 -242V990H362V-242ZM390 -242V990H392V-242ZM420 -242V990H422V-242ZM450 -242V990H452V-242ZM0 -242V-240H480V-242ZM0 -212V-210H480V-212ZM0 -182V-180H480V-182ZM0 -152V-150H480V-152ZM0 -122V-120H480V-122ZM0 -92V-90H480V-92ZM0 -62V-60H480V-62ZM0 -32V-30H480V-32ZM0 -2V0H480V-2ZM0 28V30H480V28ZM0 58V60H480V58ZM0 88V90H480V88ZM0 118V120H480V118ZM0 148V150H480V148ZM0 178V180H480V178ZM0 208V210H480V208ZM0 238V240H480V238ZM0 268V270H480V268ZM0 298V300H480V298ZM0 328V330H480V328ZM0 358V360H480V358ZM0 388V390H480V388ZM0 418V420H480V418ZM0 448V450H480V448ZM0 478V480H480V478ZM0 508V510H480V508ZM0 538V540H480V538ZM0 568V570H480V568ZM0 598V600H480V598ZM0 628V630H480V628ZM0 658V660H480V658ZM0 688V690H480V688ZM0 718V720H480V718ZM0 748V750H480V748ZM0 778V780H480V778ZM0 808V810H480V808ZM0 838V840H480V838ZM0 868V870H480V868ZM0 898V900H480V898ZM0 928V930H480V928ZM0 958V960H480V958ZM0 988V990H480V988Z" transform="translate(400.39024390243907, 72) scale(0.05853658536585366, -0.05853658536585366)" /><path d="M180 660V690H210V660ZM180 630V660H210V630ZM180 600V630H210V600ZM180 570V600H210V570ZM180 540V570H210V540ZM180 510V540H210V510ZM180 480V510H210V480ZM180 450V480H210V450ZM210 450V480H240V450ZM240 450V480H270V450ZM270 450V480H300V450ZM300 450V480H330V450ZM180 390V420H210V390ZM150 390V420H180V390ZM150 420V450H180V420ZM180 420V450H210V420ZM180 360V390H210V360ZM150 360V390H180V360ZM120 360V390H150V360ZM90 360V390H120V360ZM60 360V390H90V360ZM0 450V480H30V450ZM30 450V480H60V450ZM60 450V480H90V450ZM90 450V480H120V450ZM120 450V480H150V450ZM150 450V480H180V450ZM120 390V420H150V390ZM120 420V450H150V420ZM90 420V450H120V420ZM60 420V450H90V420ZM60 390V420H90V390ZM90 390V420H120V390ZM150 630V660H180V630ZM150 600V630H180V600ZM120 600V630H150V600ZM120 570V600H150V570ZM120 540V570H150V540ZM90 570V600H120V570ZM90 540V570H120V540ZM60 540V570H90V540ZM60 510V540H90V510ZM60 480V510H90V480ZM120 480V510H150V480ZM150 480V510H180V480ZM150 510V540H180V510ZM150 540V570H180V540ZM150 570V600H180V570ZM120 510V540H150V510ZM90 480V510H120V480ZM90 510V540H120V510ZM300 90V120H330V90ZM300 60V90H330V60ZM300 0V30H330V0ZM270 0V30H300V0ZM240 0V30H270V0ZM210 0V30H240V0ZM180 0V30H210V0ZM180 30V60H210V30ZM150 30V60H180V30ZM120 30V60H150V30ZM120 60V90H150V60ZM90 60V90H120V60ZM90 90V120H120V90ZM90 120V150H120V120ZM60 120V150H90V120ZM60 150V180H90V150ZM60 180V210H90V180ZM60 210V240H90V210ZM60 240V270H90V240ZM60 270V300H90V270ZM60 300V330H90V300ZM60 330V360H90V330ZM90 330V360H120V330ZM120 330V360H150V330ZM150 330V360H180V330ZM180 330V360H210V330ZM180 300V330H210V300ZM180 270V300H210V270ZM180 240V270H210V240ZM180 210V240H210V210ZM180 180V210H210V180ZM180 150V180H210V150ZM180 120V150H210V120ZM210 120V150H240V120ZM210 90V120H240V90ZM240 90V120H270V90ZM240 60V90H270V60ZM270 60V90H300V60ZM270 90V120H300V90ZM300 30V60H330V30ZM270 30V60H300V30ZM240 30V60H270V30ZM210 30V60H240V30ZM210 60V90H240V60ZM180 60V90H210V60ZM180 90V120H210V90ZM150 90V120H180V90ZM150 60V90H180V60ZM120 90V120H150V90ZM150 120V150H180V120ZM150 150V180H180V150ZM120 120V150H150V120ZM120 150V180H150V150ZM150 180V210H180V180ZM150 210V240H180V210ZM150 240V270H180V240ZM150 270V300H180V270ZM150 300V330H180V300ZM120 300V330H150V300ZM90 300V330H120V300ZM90 270V300H120V270ZM90 240V270H120V240ZM90 210V240H120V210ZM90 180V210H120V180ZM90 150V180H120V150ZM120 180V210H150V180ZM120 210V240H150V210ZM120 240V270H150V240ZM120 270V300H150V270ZM300 510V540H330V510ZM270 510V540H300V510ZM270 480V510H300V480ZM300 480V510H330V480ZM240 480V510H270V480ZM210 480V510H240V480ZM210 510V540H240V510ZM240 510V540H270V510ZM60 570V600H90V570ZM90 600V630H120V600ZM120 630V660H150V630ZM150 660V690H180V660ZM30 510V540H60V510ZM30 480V510H60V480ZM0 480V510H30V480ZM0 510V540H30V510ZM180 690V720H210V690ZM0 420V450H30V420ZM30 420V450H60V420ZM210 420V450H240V420ZM240 420V450H270V420ZM270 420V450H300V420ZM300 420V450H330V420ZM0 -242V990H2V-242ZM30 -242V990H32V-242ZM60 -242V990H62V-242ZM90 -242V990H92V-242ZM120 -242V990H122V-242ZM150 -242V990H152V-242ZM180 -242V990H182V-242ZM210 -242V990H212V-242ZM240 -242V990H242V-242ZM270 -242V990H272V-242ZM300 -242V990H302V-242ZM330 -242V990H332V-242ZM0 -242V-240H360V-242ZM0 -212V-210H360V-212ZM0 -182V-180H360V-182ZM0 -152V-150H360V-152ZM0 -122V-120H360V-122ZM0 -92V-90H360V-92ZM0 -62V-60H360V-62ZM0 -32V-30H360V-32ZM0 -2V0H360V-2ZM0 28V30H360V28ZM0 58V60H360V58ZM0 88V90H360V88ZM0 118V120H360V118ZM0 148V150H360V148ZM0 178V180H360V178ZM0 208V210H360V208ZM0 238V240H360V238ZM0 268V270H360V268ZM0 298V300H360V298ZM0 328V330H360V328ZM0 358V360H360V358ZM0 388V390H360V388ZM0 418V420H360V418ZM0 448V450H360V448ZM0 478V480H360V478ZM0 508V510H360V508ZM0 538V540H360V538ZM0 568V570H360V568ZM0 598V600H360V598ZM0 628V630H360V628ZM0 658V660H360V658ZM0 688V690H360V688ZM0 718V720H360V718ZM0 748V750H360V748ZM0 778V780H360V778ZM0 808V810H360V808ZM0 838V840H360V838ZM0 868V870H360V868ZM0 898V900H360V898ZM0 928V930H360V928ZM0 958V960H360V958ZM0 988V990H360V988Z" transform="translate(428.48780487804885, 72) scale(0.05853658536585366, -0.05853658536585366)" /><path d="M360 360V390H390V360ZM390 360V390H420V360ZM420 360V390H450V360ZM450 360V390H480V360ZM480 360V390H510V360ZM480 390V420H510V390ZM480 420V450H510V420ZM450 420V450H480V420ZM420 420V450H450V420ZM390 420V450H420V420ZM390 390V420H420V390ZM360 390V420H390V390ZM420 390V420H450V390ZM450 390V420H480V390ZM360 420V450H390V420ZM330 420V450H360V420ZM330 450V480H360V450ZM360 450V480H390V450ZM390 450V480H420V450ZM420 450V480H450V450ZM450 450V480H480V450ZM450 480V510H480V480ZM420 480V510H450V480ZM390 480V510H420V480ZM360 480V510H390V480ZM330 480V510H360V480ZM390 510V540H420V510ZM420 510V540H450V510ZM360 510V540H390V510ZM360 540V570H390V540ZM330 540V570H360V540ZM330 510V540H360V510ZM300 510V540H330V510ZM300 540V570H330V540ZM300 480V510H330V480ZM270 480V510H300V480ZM270 450V480H300V450ZM300 450V480H330V450ZM240 450V480H270V450ZM240 480V510H270V480ZM240 510V540H270V510ZM240 540V570H270V540ZM270 540V570H300V540ZM270 510V540H300V510ZM210 540V570H240V540ZM180 540V570H210V540ZM150 540V570H180V540ZM150 510V540H180V510ZM150 480V510H180V480ZM150 450V480H180V450ZM180 450V480H210V450ZM210 450V480H240V450ZM210 480V510H240V480ZM210 510V540H240V510ZM180 510V540H210V510ZM180 480V510H210V480ZM120 480V510H150V480ZM120 510V540H150V510ZM90 510V540H120V510ZM90 480V510H120V480ZM60 480V510H90V480ZM60 450V480H90V450ZM60 420V450H90V420ZM90 420V450H120V420ZM90 450V480H120V450ZM120 450V480H150V450ZM120 420V450H150V420ZM150 420V450H180V420ZM180 420V450H210V420ZM30 420V450H60V420ZM30 390V420H60V390ZM30 360V390H60V360ZM30 330V360H60V330ZM30 300V330H60V300ZM30 270V300H60V270ZM30 240V270H60V240ZM30 210V240H60V210ZM30 180V210H60V180ZM30 150V180H60V150ZM60 150V180H90V150ZM60 120V150H90V120ZM30 120V150H60V120ZM90 120V150H120V120ZM120 120V150H150V120ZM150 120V150H180V120ZM180 120V150H210V120ZM150 150V180H180V150ZM150 180V210H180V180ZM150 210V240H180V210ZM150 240V270H180V240ZM150 270V300H180V270ZM150 300V330H180V300ZM150 330V360H180V330ZM150 360V390H180V360ZM150 390V420H180V390ZM120 390V420H150V390ZM90 390V420H120V390ZM60 390V420H90V390ZM60 360V390H90V360ZM60 330V360H90V330ZM60 300V330H90V300ZM60 270V300H90V270ZM60 240V270H90V240ZM60 210V240H90V210ZM60 180V210H90V180ZM90 150V180H120V150ZM120 150V180H150V150ZM120 180V210H150V180ZM120 210V240H150V210ZM120 240V270H150V240ZM120 270V300H150V270ZM90 270V300H120V270ZM90 300V330H120V300ZM90 330V360H120V330ZM90 360V390H120V360ZM120 360V390H150V360ZM120 330V360H150V330ZM120 300V330H150V300ZM90 210V240H120V210ZM90 180V210H120V180ZM90 240V270H120V240ZM360 150V180H390V150ZM390 150V180H420V150ZM420 150V180H450V150ZM450 150V180H480V150ZM480 150V180H510V150ZM480 120V150H510V120ZM450 120V150H480V120ZM420 120V150H450V120ZM390 120V150H420V120ZM360 120V150H390V120ZM330 120V150H360V120ZM330 90V120H360V90ZM360 90V120H390V90ZM390 90V120H420V90ZM420 90V120H450V90ZM420 60V90H450V60ZM450 60V90H480V60ZM450 90V120H480V90ZM420 30V60H450V30ZM390 30V60H420V30ZM390 60V90H420V60ZM360 60V90H390V60ZM360 30V60H390V30ZM360 0V30H390V0ZM330 0V30H360V0ZM300 0V30H330V0ZM270 0V30H300V0ZM240 0V30H270V0ZM210 0V30H240V0ZM180 0V30H210V0ZM150 0V30H180V0ZM180 30V60H210V30ZM210 30V60H240V30ZM240 30V60H270V30ZM270 30V60H300V30ZM300 30V60H330V30ZM330 30V60H360V30ZM330 60V90H360V60ZM300 60V90H330V60ZM270 60V90H300V60ZM240 60V90H270V60ZM210 60V90H240V60ZM180 60V90H210V60ZM150 30V60H180V30ZM120 30V60H150V30ZM90 30V60H120V30ZM90 60V90H120V60ZM60 60V90H90V60ZM60 90V120H90V90ZM90 90V120H120V90ZM120 90V120H150V90ZM150 90V120H180V90ZM180 90V120H210V90ZM210 90V120H240V90ZM240 90V120H270V90ZM270 90V120H300V90ZM300 90V120H330V90ZM150 60V90H180V60ZM120 60V90H150V60ZM480 330V360H510V330ZM450 330V360H480V330ZM420 330V360H450V330ZM390 330V360H420V330ZM360 330V360H390V330ZM480 300V330H510V300ZM420 300V330H450V300ZM390 300V330H420V300ZM330 300V330H360V300ZM300 300V330H330V300ZM270 300V330H300V300ZM240 300V330H270V300ZM210 300V330H240V300ZM180 300V330H210V300ZM360 300V330H390V300ZM450 300V330H480V300ZM480 270V300H510V270ZM450 270V300H480V270ZM420 270V300H450V270ZM390 270V300H420V270ZM360 270V300H390V270ZM330 270V300H360V270ZM300 270V300H330V270ZM270 270V300H300V270ZM240 270V300H270V270ZM210 270V300H240V270ZM180 270V300H210V270ZM180 240V270H210V240ZM210 240V270H240V240ZM240 240V270H270V240ZM300 240V270H330V240ZM330 240V270H360V240ZM360 240V270H390V240ZM390 240V270H420V240ZM420 240V270H450V240ZM450 240V270H480V240ZM480 240V270H510V240ZM270 240V270H300V240ZM0 -242V990H2V-242ZM30 -242V990H32V-242ZM60 -242V990H62V-242ZM90 -242V990H92V-242ZM120 -242V990H122V-242ZM150 -242V990H152V-242ZM180 -242V990H182V-242ZM210 -242V990H212V-242ZM240 -242V990H242V-242ZM270 -242V990H272V-242ZM300 -242V990H302V-242ZM330 -242V990H332V-242ZM360 -242V990H362V-242ZM390 -242V990H392V-242ZM420 -242V990H422V-242ZM450 -242V990H452V-242ZM480 -242V990H482V-242ZM510 -242V990H512V-242ZM0 -242V-240H540V-242ZM0 -212V-210H540V-212ZM0 -182V-180H540V-182ZM0 -152V-150H540V-152ZM0 -122V-120H540V-122ZM0 -92V-90H540V-92ZM0 -62V-60H540V-62ZM0 -32V-30H540V-32ZM0 -2V0H540V-2ZM0 28V30H540V28ZM0 58V60H540V58ZM0 88V90H540V88ZM0 118V120H540V118ZM0 148V150H540V148ZM0 178V180H540V178ZM0 208V210H540V208ZM0 238V240H540V238ZM0 268V270H540V268ZM0 298V300H540V298ZM0 328V330H540V328ZM0 358V360H540V358ZM0 388V390H540V388ZM0 418V420H540V418ZM0 448V450H540V448ZM0 478V480H540V478ZM0 508V510H540V508ZM0 538V540H540V538ZM0 568V570H540V568ZM0 598V600H540V598ZM0 628V630H540V628ZM0 658V660H540V658ZM0 688V690H540V688ZM0 718V720H540V718ZM0 748V750H540V748ZM0 778V780H540V778ZM0 808V810H540V808ZM0 838V840H540V838ZM0 868V870H540V868ZM0 898V900H540V898ZM0 928V930H540V928ZM0 958V960H540V958ZM0 988V990H540V988Z" transform="translate(449.56097560975616, 72) scale(0.05853658536585366, -0.05853658536585366)" /><path d="M330 450V480H360V450ZM330 480V510H360V480ZM330 510V540H360V510ZM300 510V540H330V510ZM300 540V570H330V540ZM300 480V510H330V480ZM270 480V510H300V480ZM270 450V480H300V450ZM300 450V480H330V450ZM240 450V480H270V450ZM240 480V510H270V480ZM240 510V540H270V510ZM240 540V570H270V540ZM270 540V570H300V540ZM270 510V540H300V510ZM210 540V570H240V540ZM180 540V570H210V540ZM150 540V570H180V540ZM150 510V540H180V510ZM150 480V510H180V480ZM150 450V480H180V450ZM180 450V480H210V450ZM210 450V480H240V450ZM210 480V510H240V480ZM210 510V540H240V510ZM180 510V540H210V510ZM180 480V510H210V480ZM120 480V510H150V480ZM120 510V540H150V510ZM90 510V540H120V510ZM90 480V510H120V480ZM60 480V510H90V480ZM60 450V480H90V450ZM60 420V450H90V420ZM90 420V450H120V420ZM90 450V480H120V450ZM120 450V480H150V450ZM120 420V450H150V420ZM150 420V450H180V420ZM180 420V450H210V420ZM30 420V450H60V420ZM30 390V420H60V390ZM30 360V390H60V360ZM30 330V360H60V330ZM30 300V330H60V300ZM30 270V300H60V270ZM30 240V270H60V240ZM30 210V240H60V210ZM30 180V210H60V180ZM30 150V180H60V150ZM60 150V180H90V150ZM60 120V150H90V120ZM30 120V150H60V120ZM90 120V150H120V120ZM120 120V150H150V120ZM150 120V150H180V120ZM180 120V150H210V120ZM150 150V180H180V150ZM150 180V210H180V180ZM150 210V240H180V210ZM150 240V270H180V240ZM150 270V300H180V270ZM150 300V330H180V300ZM150 330V360H180V330ZM150 360V390H180V360ZM150 390V420H180V390ZM120 390V420H150V390ZM90 390V420H120V390ZM60 390V420H90V390ZM60 360V390H90V360ZM60 330V360H90V330ZM60 300V330H90V300ZM60 270V300H90V270ZM60 240V270H90V240ZM60 210V240H90V210ZM60 180V210H90V180ZM90 150V180H120V150ZM120 150V180H150V150ZM120 180V210H150V180ZM120 210V240H150V210ZM120 240V270H150V240ZM120 270V300H150V270ZM90 270V300H120V270ZM90 300V330H120V300ZM90 330V360H120V330ZM90 360V390H120V360ZM120 360V390H150V360ZM120 330V360H150V330ZM120 300V330H150V300ZM90 210V240H120V210ZM90 180V210H120V180ZM90 240V270H120V240ZM330 90V120H360V90ZM300 0V30H330V0ZM270 0V30H300V0ZM240 0V30H270V0ZM210 0V30H240V0ZM180 0V30H210V0ZM150 0V30H180V0ZM180 30V60H210V30ZM210 30V60H240V30ZM240 30V60H270V30ZM270 30V60H300V30ZM300 30V60H330V30ZM330 30V60H360V30ZM330 60V90H360V60ZM300 60V90H330V60ZM270 60V90H300V60ZM240 60V90H270V60ZM210 60V90H240V60ZM180 60V90H210V60ZM150 30V60H180V30ZM120 30V60H150V30ZM90 30V60H120V30ZM90 60V90H120V60ZM60 60V90H90V60ZM60 90V120H90V90ZM90 90V120H120V90ZM120 90V120H150V90ZM150 90V120H180V90ZM180 90V120H210V90ZM210 90V120H240V90ZM240 90V120H270V90ZM270 90V120H300V90ZM300 90V120H330V90ZM150 60V90H180V60ZM120 60V90H150V60ZM360 60V90H390V60ZM360 90V120H390V90ZM360 120V150H390V120ZM360 150V180H390V150ZM360 180V210H390V180ZM360 210V240H390V210ZM360 240V270H390V240ZM360 270V300H390V270ZM360 300V330H390V300ZM360 330V360H390V330ZM360 360V390H390V360ZM360 390V420H390V390ZM360 420V450H390V420ZM390 420V450H420V420ZM390 390V420H420V390ZM390 360V390H420V360ZM390 330V360H420V330ZM390 300V330H420V300ZM390 270V300H420V270ZM390 240V270H420V240ZM420 210V240H450V210ZM420 180V210H450V180ZM420 150V180H450V150ZM420 120V150H450V120ZM420 90V120H450V90ZM420 60V90H450V60ZM420 30V60H450V30ZM420 0V30H450V0ZM450 0V30H480V0ZM480 0V30H510V0ZM480 30V60H510V30ZM480 60V90H510V60ZM480 90V120H510V90ZM480 120V150H510V120ZM480 150V180H510V150ZM480 180V210H510V180ZM480 210V240H510V210ZM450 210V240H480V210ZM450 240V270H480V240ZM450 180V210H480V180ZM450 150V180H480V150ZM450 120V150H480V120ZM450 90V120H480V90ZM450 60V90H480V60ZM450 30V60H480V30ZM390 60V90H420V60ZM390 90V120H420V90ZM390 120V150H420V120ZM390 150V180H420V150ZM390 180V210H420V180ZM390 210V240H420V210ZM360 720V750H390V720ZM360 690V720H390V690ZM360 660V690H390V660ZM360 630V660H390V630ZM360 600V630H390V600ZM360 570V600H390V570ZM360 510V540H390V510ZM360 450V480H390V450ZM450 720V750H480V720ZM450 690V720H480V690ZM450 660V690H480V660ZM450 630V660H480V630ZM450 600V630H480V600ZM450 570V600H480V570ZM450 510V540H480V510ZM450 480V510H480V480ZM450 450V480H480V450ZM450 390V420H480V390ZM450 360V390H480V360ZM450 330V360H480V330ZM480 300V330H510V300ZM480 270V300H510V270ZM480 240V270H510V240ZM480 330V360H510V330ZM480 360V390H510V360ZM480 420V450H510V420ZM480 450V480H510V450ZM480 480V510H510V480ZM480 510V540H510V510ZM480 540V570H510V540ZM480 570V600H510V570ZM480 600V630H510V600ZM450 540V570H480V540ZM480 630V660H510V630ZM480 660V690H510V660ZM480 690V720H510V690ZM480 720V750H510V720ZM420 720V750H450V720ZM390 720V750H420V720ZM390 690V720H420V690ZM420 690V720H450V690ZM420 660V690H450V660ZM420 630V660H450V630ZM420 600V630H450V600ZM420 570V600H450V570ZM420 540V570H450V540ZM420 510V540H450V510ZM390 480V510H420V480ZM390 450V480H420V450ZM390 510V540H420V510ZM390 540V570H420V540ZM390 570V600H420V570ZM390 600V630H420V600ZM390 630V660H420V630ZM390 660V690H420V660ZM420 450V480H450V450ZM420 390V420H450V390ZM420 360V390H450V360ZM420 330V360H450V330ZM420 300V330H450V300ZM420 270V300H450V270ZM420 240V270H450V240ZM450 270V300H480V270ZM450 300V330H480V300ZM360 540V570H390V540ZM480 390V420H510V390ZM360 480V510H390V480ZM420 480V510H450V480ZM420 420V450H450V420ZM450 420V450H480V420ZM360 30V60H390V30ZM390 30V60H420V30ZM390 0V30H420V0ZM330 540V570H360V540ZM330 120V150H360V120ZM360 0V30H390V0ZM0 -242V990H2V-242ZM30 -242V990H32V-242ZM60 -242V990H62V-242ZM90 -242V990H92V-242ZM120 -242V990H122V-242ZM150 -242V990H152V-242ZM180 -242V990H182V-242ZM210 -242V990H212V-242ZM240 -242V990H242V-242ZM270 -242V990H272V-242ZM300 -242V990H302V-242ZM330 -242V990H332V-242ZM360 -242V990H362V-242ZM390 -242V990H392V-242ZM420 -242V990H422V-242ZM450 -242V990H452V-242ZM480 -242V990H482V-242ZM510 -242V990H512V-242ZM540 -242V990H542V-242ZM0 -242V-240H570V-242ZM0 -212V-210H570V-212ZM0 -182V-180H570V-182ZM0 -152V-150H570V-152ZM0 -122V-120H570V-122ZM0 -92V-90H570V-92ZM0 -62V-60H570V-62ZM0 -32V-30H570V-32ZM0 -2V0H570V-2ZM0 28V30H570V28ZM0 58V60H570V58ZM0 88V90H570V88ZM0 118V120H570V118ZM0 148V150H570V148ZM0 178V180H570V178ZM0 208V210H570V208ZM0 238V240H570V238ZM0 268V270H570V268ZM0 298V300H570V298ZM0 328V330H570V328ZM0 358V360H570V358ZM0 388V390H570V388ZM0 418V420H570V418ZM0 448V450H570V448ZM0 478V480H570V478ZM0 508V510H570V508ZM0 538V540H570V538ZM0 568V570H570V568ZM0 598V600H570V598ZM0 628V630H570V628ZM0 658V660H570V658ZM0 688V690H570V688ZM0 718V720H570V718ZM0 748V750H570V748ZM0 778V780H570V778ZM0 808V810H570V808ZM0 838V840H570V838ZM0 868V870H570V868ZM0 898V900H570V898ZM0 928V930H570V928ZM0 958V960H570V958ZM0 988V990H570V988Z" transform="translate(481.17073170731715, 72) scale(0.05853658536585366, -0.05853658536585366)" /></g></svg>