<svg width="44.25" height="15" viewBox="0 0 44.25 15" xmlns="http://www.w3.org/2000/svg"><path transform="translate(0 11.25) scale(.01 -.01)" d="M150 150H225V225H300V750H450V75H375V0H75V75H0V225H150Z"/><path transform="translate(5.25 11.25) scale(.01 -.01)" d="M0 525H75V600H450V525H525V225H150V150H525V75H450V0H75V75H0ZM150 375H375V450H150Z"/><path transform="translate(11.25 11.25) scale(.01 -.01)" d="M300 450H225V375H150V0H0V600H150V525H225V600H375V525H450V450H375V375H300Z"/><path transform="translate(16.5 11.25) scale(.01 -.01)" d="M75 75H0V150H300V225H75V300H0V525H75V600H375V525H450V450H150V375H375V300H450V75H375V0H75Z"/><path transform="translate(21.75 11.25) scale(.01 -.01)" d="M0 525H75V600H450V525H525V225H150V150H525V75H450V0H75V75H0ZM150 375H375V450H150Z"/><path transform="translate(27.75 11.25) scale(.01 -.01)" d="M0 0H75V75H150V150H75V225H0V600H150V300H225V225H300V600H450V150H375V75H300V0H225V-75H150V-150H0Z"/><path transform="translate(36 11.25) scale(.01 -.01)" d="M0 750H225V0H75V600H0Z"/><path transform="translate(39 11.25) scale(.01 -.01)" d="M0 675H75V750H375V675H450V75H375V0H75V75H0ZM300 600H150V150H300Z"/></svg>