<?xml version="1.0" encoding="utf-8" ?>
<svg baseProfile="tiny" height="100%" version="1.2" width="100%" xmlns="http://www.w3.org/2000/svg" xmlns:ev="http://www.w3.org/2001/xml-events" xmlns:xlink="http://www.w3.org/1999/xlink"><defs /><g><path d="M456 152H494V114H456ZM418 152H456V114H418ZM380 152H418V114H380ZM380 114H418V76H380ZM418 114H456V76H418ZM380 76H418V38H380ZM342 76H380V38H342ZM418 76H456V38H418ZM342 38H380V0H342ZM304 38H342V0H304ZM266 38H304V0H266ZM228 38H266V0H228ZM190 38H228V0H190ZM152 38H190V0H152ZM152 76H190V38H152ZM114 76H152V38H114ZM76 76H114V38H76ZM76 114H114V76H76ZM114 114H152V76H114ZM152 114H190V76H152ZM190 114H228V76H190ZM228 114H266V76H228ZM266 114H304V76H266ZM304 114H342V76H304ZM342 114H380V76H342ZM304 76H342V38H304ZM266 76H304V38H266ZM228 76H266V38H228ZM190 76H228V38H190ZM114 152H152V114H114ZM76 152H114V114H76ZM38 152H76V114H38ZM114 190H152V152H114ZM152 190H190V152H152ZM190 190H228V152H190ZM190 152H228V114H190ZM152 152H190V114H152ZM76 190H114V152H76ZM76 228H114V190H76ZM38 228H76V190H38ZM38 190H76V152H38ZM152 228H190V190H152ZM114 228H152V190H114ZM228 152H266V114H228ZM266 152H304V114H266ZM304 152H342V114H304ZM342 152H380V114H342ZM342 190H380V152H342ZM304 190H342V152H304ZM380 190H418V152H380ZM418 190H456V152H418ZM418 228H456V190H418ZM456 228H494V190H456ZM456 266H494V228H456ZM456 190H494V152H456ZM456 304H494V266H456ZM456 342H494V304H456ZM456 380H494V342H456ZM456 418H494V380H456ZM456 456H494V418H456ZM418 456H456V418H418ZM418 494H456V456H418ZM380 456H418V418H380ZM342 456H380V418H342ZM342 418H380V380H342ZM342 380H380V342H342ZM342 342H380V304H342ZM342 304H380V266H342ZM342 266H380V228H342ZM342 228H380V190H342ZM380 228H418V190H380ZM380 266H418V228H380ZM418 266H456V228H418ZM418 304H456V266H418ZM418 342H456V304H418ZM418 380H456V342H418ZM380 418H418V380H380ZM380 380H418V342H380ZM380 342H418V304H380ZM380 304H418V266H380ZM418 418H456V380H418ZM456 494H494V456H456ZM456 532H494V494H456ZM456 570H494V532H456ZM456 608H494V570H456ZM456 646H494V608H456ZM418 646H456V608H418ZM418 684H456V646H418ZM418 722H456V684H418ZM380 722H418V684H380ZM342 722H380V684H342ZM380 494H418V456H380ZM380 532H418V494H380ZM380 570H418V532H380ZM418 570H456V532H418ZM418 608H456V570H418ZM418 532H456V494H418ZM342 494H380V456H342ZM342 532H380V494H342ZM380 608H418V570H380ZM342 608H380V570H342ZM342 570H380V532H342ZM342 684H380V646H342ZM380 684H418V646H380ZM380 646H418V608H380ZM342 646H380V608H342ZM342 760H380V722H342ZM380 760H418V722H380ZM418 760H456V722H418ZM456 760H494V722H456ZM456 722H494V684H456ZM456 684H494V646H456Z" transform="translate(0.0, 72) scale(0.05572755417956656, -0.05572755417956656)" /><path d="M190 570H228V532H190ZM228 570H266V532H228ZM152 570H190V532H152ZM266 570H304V532H266ZM304 570H342V532H304ZM342 570H380V532H342ZM380 570H418V532H380ZM418 532H456V494H418ZM380 532H418V494H380ZM380 494H418V456H380ZM456 532H494V494H456ZM456 494H494V456H456ZM418 494H456V456H418ZM380 456H418V418H380ZM342 456H380V418H342ZM418 456H456V418H418ZM456 456H494V418H456ZM494 456H532V418H494ZM494 418H532V380H494ZM494 190H532V152H494ZM494 152H532V114H494ZM456 152H494V114H456ZM456 114H494V76H456ZM456 76H494V38H456ZM418 76H456V38H418ZM380 76H418V38H380ZM342 114H380V76H342ZM342 152H380V114H342ZM380 152H418V114H380ZM380 114H418V76H380ZM418 114H456V76H418ZM418 152H456V114H418ZM418 190H456V152H418ZM380 190H418V152H380ZM380 418H418V380H380ZM418 418H456V380H418ZM456 190H494V152H456ZM456 418H494V380H456ZM342 76H380V38H342ZM342 38H380V0H342ZM380 38H418V0H380ZM304 38H342V0H304ZM266 38H304V0H266ZM228 38H266V0H228ZM190 38H228V0H190ZM152 38H190V0H152ZM152 76H190V38H152ZM114 76H152V38H114ZM76 76H114V38H76ZM76 114H114V76H76ZM38 152H76V114H38ZM76 152H114V114H76ZM38 190H76V152H38ZM38 228H76V190H38ZM38 266H76V228H38ZM38 304H76V266H38ZM38 342H76V304H38ZM38 380H76V342H38ZM76 380H114V342H76ZM76 418H114V380H76ZM38 418H76V380H38ZM38 456H76V418H38ZM76 456H114V418H76ZM76 494H114V456H76ZM76 532H114V494H76ZM114 532H152V494H114ZM152 532H190V494H152ZM190 532H228V494H190ZM190 494H228V456H190ZM190 456H228V418H190ZM152 456H190V418H152ZM114 456H152V418H114ZM152 418H190V380H152ZM152 380H190V342H152ZM152 342H190V304H152ZM152 304H190V266H152ZM152 266H190V228H152ZM152 228H190V190H152ZM152 190H190V152H152ZM152 152H190V114H152ZM190 152H228V114H190ZM190 114H228V76H190ZM228 114H266V76H228ZM266 114H304V76H266ZM304 114H342V76H304ZM304 76H342V38H304ZM266 76H304V38H266ZM228 76H266V38H228ZM190 76H228V38H190ZM152 114H190V76H152ZM114 114H152V76H114ZM114 152H152V114H114ZM114 190H152V152H114ZM114 228H152V190H114ZM76 228H114V190H76ZM76 190H114V152H76ZM76 266H114V228H76ZM76 304H114V266H76ZM76 342H114V304H76ZM114 342H152V304H114ZM114 304H152V266H114ZM114 266H152V228H114ZM114 380H152V342H114ZM114 418H152V380H114ZM114 494H152V456H114ZM152 494H190V456H152ZM228 532H266V494H228ZM266 532H304V494H266ZM304 532H342V494H304ZM342 532H380V494H342ZM342 494H380V456H342ZM304 494H342V456H304ZM266 494H304V456H266ZM228 494H266V456H228ZM494 380H532V342H494ZM456 380H494V342H456ZM418 380H456V342H418ZM380 380H418V342H380ZM494 342H532V304H494ZM456 342H494V304H456ZM418 342H456V304H418ZM380 342H418V304H380ZM342 342H380V304H342ZM304 342H342V304H304ZM266 342H304V304H266ZM228 342H266V304H228ZM190 342H228V304H190ZM190 304H228V266H190ZM228 304H266V266H228ZM266 304H304V266H266ZM304 304H342V266H304ZM342 304H380V266H342ZM380 304H418V266H380ZM418 304H456V266H418ZM456 304H494V266H456ZM494 304H532V266H494Z" transform="translate(31.76470588235294, 72) scale(0.05572755417956656, -0.05572755417956656)" /><path d="M38 570H76V532H38ZM76 570H114V532H76ZM114 570H152V532H114ZM38 494H76V456H38ZM38 532H76V494H38ZM114 38H152V0H114ZM76 38H114V0H76ZM38 76H76V38H38ZM38 114H76V76H38ZM38 38H76V0H38ZM228 570H266V532H228ZM152 570H190V532H152ZM266 570H304V532H266ZM304 570H342V532H304ZM342 570H380V532H342ZM380 532H418V494H380ZM380 494H418V456H380ZM418 494H456V456H418ZM380 456H418V418H380ZM342 456H380V418H342ZM152 38H190V0H152ZM152 76H190V38H152ZM114 76H152V38H114ZM76 76H114V38H76ZM76 380H114V342H76ZM76 418H114V380H76ZM38 456H76V418H38ZM76 494H114V456H76ZM114 532H152V494H114ZM152 532H190V494H152ZM190 532H228V494H190ZM190 494H228V456H190ZM190 456H228V418H190ZM152 456H190V418H152ZM114 456H152V418H114ZM152 418H190V380H152ZM152 380H190V342H152ZM152 342H190V304H152ZM152 114H190V76H152ZM114 114H152V76H114ZM114 380H152V342H114ZM114 418H152V380H114ZM114 494H152V456H114ZM152 494H190V456H152ZM228 532H266V494H228ZM266 532H304V494H266ZM304 532H342V494H304ZM342 532H380V494H342ZM342 494H380V456H342ZM304 494H342V456H304ZM266 494H304V456H266ZM228 494H266V456H228ZM76 532H114V494H76ZM76 114H114V76H76ZM76 456H114V418H76ZM38 418H76V380H38ZM38 380H76V342H38ZM38 152H76V114H38ZM76 152H114V114H76ZM114 152H152V114H114ZM152 152H190V114H152ZM114 342H152V304H114ZM76 342H114V304H76ZM38 342H76V304H38ZM38 304H76V266H38ZM38 266H76V228H38ZM38 228H76V190H38ZM76 228H114V190H76ZM76 190H114V152H76ZM114 190H152V152H114ZM38 190H76V152H38ZM152 190H190V152H152ZM152 228H190V190H152ZM152 266H190V228H152ZM152 304H190V266H152ZM114 304H152V266H114ZM76 304H114V266H76ZM76 266H114V228H76ZM114 228H152V190H114ZM114 266H152V228H114ZM304 456H342V418H304ZM342 418H380V380H342Z" transform="translate(63.52941176470588, 72) scale(0.05572755417956656, -0.05572755417956656)" /><path d="M456 456H494V418H456ZM418 456H456V418H418ZM380 456H418V418H380ZM380 494H418V456H380ZM342 494H380V456H342ZM418 494H456V456H418ZM456 494H494V456H456ZM418 532H456V494H418ZM380 532H418V494H380ZM342 532H380V494H342ZM342 570H380V532H342ZM380 570H418V532H380ZM304 570H342V532H304ZM266 570H304V532H266ZM228 570H266V532H228ZM190 532H228V494H190ZM152 532H190V494H152ZM152 570H190V532H152ZM190 570H228V532H190ZM228 532H266V494H228ZM228 494H266V456H228ZM266 494H304V456H266ZM304 494H342V456H304ZM304 532H342V494H304ZM266 532H304V494H266ZM190 494H228V456H190ZM152 494H190V456H152ZM114 494H152V456H114ZM76 494H114V456H76ZM76 532H114V494H76ZM114 532H152V494H114ZM152 456H190V418H152ZM190 456H228V418H190ZM114 456H152V418H114ZM76 456H114V418H76ZM38 456H76V418H38ZM76 418H114V380H76ZM38 418H76V380H38ZM38 380H76V342H38ZM76 380H114V342H76ZM114 418H152V380H114ZM152 418H190V380H152ZM152 380H190V342H152ZM190 380H228V342H190ZM114 380H152V342H114ZM114 342H152V304H114ZM76 342H114V304H76ZM114 304H152V266H114ZM76 304H114V266H76ZM152 342H190V304H152ZM190 342H228V304H190ZM190 304H228V266H190ZM190 266H228V228H190ZM152 266H190V228H152ZM152 304H190V266H152ZM228 304H266V266H228ZM266 304H304V266H266ZM266 342H304V304H266ZM304 342H342V304H304ZM342 342H380V304H342ZM380 342H418V304H380ZM228 342H266V304H228ZM228 266H266V228H228ZM266 266H304V228H266ZM304 266H342V228H304ZM342 266H380V228H342ZM380 266H418V228H380ZM380 304H418V266H380ZM342 304H380V266H342ZM304 304H342V266H304ZM456 304H494V266H456ZM418 304H456V266H418ZM418 266H456V228H418ZM456 266H494V228H456ZM380 228H418V190H380ZM342 228H380V190H342ZM418 228H456V190H418ZM456 228H494V190H456ZM494 228H532V190H494ZM494 190H532V152H494ZM494 152H532V114H494ZM456 152H494V114H456ZM456 190H494V152H456ZM418 190H456V152H418ZM418 152H456V114H418ZM380 190H418V152H380ZM380 152H418V114H380ZM342 152H380V114H342ZM342 114H380V76H342ZM380 114H418V76H380ZM380 76H418V38H380ZM418 76H456V38H418ZM418 114H456V76H418ZM456 114H494V76H456ZM456 76H494V38H456ZM380 38H418V0H380ZM342 38H380V0H342ZM342 76H380V38H342ZM304 76H342V38H304ZM266 76H304V38H266ZM228 76H266V38H228ZM228 114H266V76H228ZM266 114H304V76H266ZM304 114H342V76H304ZM304 38H342V0H304ZM266 38H304V0H266ZM228 38H266V0H228ZM190 38H228V0H190ZM152 38H190V0H152ZM152 76H190V38H152ZM190 76H228V38H190ZM190 114H228V76H190ZM152 114H190V76H152ZM114 76H152V38H114ZM76 76H114V38H76ZM76 114H114V76H76ZM114 114H152V76H114ZM152 152H190V114H152ZM190 152H228V114H190ZM152 190H190V152H152ZM114 190H152V152H114ZM76 190H114V152H76ZM38 190H76V152H38ZM38 152H76V114H38ZM76 152H114V114H76ZM114 152H152V114H114ZM494 456H532V418H494ZM456 532H494V494H456ZM494 418H532V380H494ZM456 418H494V380H456ZM418 418H456V380H418ZM380 418H418V380H380ZM342 456H380V418H342Z" transform="translate(88.94117647058823, 72) scale(0.05572755417956656, -0.05572755417956656)" /><path d="M190 570H228V532H190ZM228 570H266V532H228ZM152 570H190V532H152ZM266 570H304V532H266ZM304 570H342V532H304ZM342 570H380V532H342ZM380 570H418V532H380ZM418 532H456V494H418ZM380 532H418V494H380ZM380 494H418V456H380ZM456 532H494V494H456ZM456 494H494V456H456ZM418 494H456V456H418ZM380 456H418V418H380ZM342 456H380V418H342ZM418 456H456V418H418ZM456 456H494V418H456ZM494 456H532V418H494ZM494 418H532V380H494ZM494 190H532V152H494ZM494 152H532V114H494ZM456 152H494V114H456ZM456 114H494V76H456ZM456 76H494V38H456ZM418 76H456V38H418ZM380 76H418V38H380ZM342 114H380V76H342ZM342 152H380V114H342ZM380 152H418V114H380ZM380 114H418V76H380ZM418 114H456V76H418ZM418 152H456V114H418ZM418 190H456V152H418ZM380 190H418V152H380ZM380 418H418V380H380ZM418 418H456V380H418ZM456 190H494V152H456ZM456 418H494V380H456ZM342 76H380V38H342ZM342 38H380V0H342ZM380 38H418V0H380ZM304 38H342V0H304ZM266 38H304V0H266ZM228 38H266V0H228ZM190 38H228V0H190ZM152 38H190V0H152ZM152 76H190V38H152ZM114 76H152V38H114ZM76 76H114V38H76ZM76 114H114V76H76ZM38 152H76V114H38ZM76 152H114V114H76ZM38 190H76V152H38ZM38 228H76V190H38ZM38 266H76V228H38ZM38 304H76V266H38ZM38 342H76V304H38ZM38 380H76V342H38ZM76 380H114V342H76ZM76 418H114V380H76ZM38 418H76V380H38ZM38 456H76V418H38ZM76 456H114V418H76ZM76 494H114V456H76ZM76 532H114V494H76ZM114 532H152V494H114ZM152 532H190V494H152ZM190 532H228V494H190ZM190 494H228V456H190ZM190 456H228V418H190ZM152 456H190V418H152ZM114 456H152V418H114ZM152 418H190V380H152ZM152 380H190V342H152ZM152 342H190V304H152ZM152 304H190V266H152ZM152 266H190V228H152ZM152 228H190V190H152ZM152 190H190V152H152ZM152 152H190V114H152ZM190 152H228V114H190ZM190 114H228V76H190ZM228 114H266V76H228ZM266 114H304V76H266ZM304 114H342V76H304ZM304 76H342V38H304ZM266 76H304V38H266ZM228 76H266V38H228ZM190 76H228V38H190ZM152 114H190V76H152ZM114 114H152V76H114ZM114 152H152V114H114ZM114 190H152V152H114ZM114 228H152V190H114ZM76 228H114V190H76ZM76 190H114V152H76ZM76 266H114V228H76ZM76 304H114V266H76ZM76 342H114V304H76ZM114 342H152V304H114ZM114 304H152V266H114ZM114 266H152V228H114ZM114 380H152V342H114ZM114 418H152V380H114ZM114 494H152V456H114ZM152 494H190V456H152ZM228 532H266V494H228ZM266 532H304V494H266ZM304 532H342V494H304ZM342 532H380V494H342ZM342 494H380V456H342ZM304 494H342V456H304ZM266 494H304V456H266ZM228 494H266V456H228ZM494 380H532V342H494ZM456 380H494V342H456ZM418 380H456V342H418ZM380 380H418V342H380ZM494 342H532V304H494ZM456 342H494V304H456ZM418 342H456V304H418ZM380 342H418V304H380ZM342 342H380V304H342ZM304 342H342V304H304ZM266 342H304V304H266ZM228 342H266V304H228ZM190 342H228V304H190ZM190 304H228V266H190ZM228 304H266V266H228ZM266 304H304V266H266ZM304 304H342V266H304ZM342 304H380V266H342ZM380 304H418V266H380ZM418 304H456V266H418ZM456 304H494V266H456ZM494 304H532V266H494Z" transform="translate(122.8235294117647, 72) scale(0.05572755417956656, -0.05572755417956656)" /><path d="M38 570H76V532H38ZM76 570H114V532H76ZM114 570H152V532H114ZM152 570H190V532H152ZM152 532H190V494H152ZM152 494H190V456H152ZM152 456H190V418H152ZM152 418H190V380H152ZM152 380H190V342H152ZM152 342H190V304H152ZM152 304H190V266H152ZM152 266H190V228H152ZM152 228H190V190H152ZM114 228H152V190H114ZM76 228H114V190H76ZM38 228H76V190H38ZM38 266H76V228H38ZM38 304H76V266H38ZM38 342H76V304H38ZM38 380H76V342H38ZM38 418H76V380H38ZM38 456H76V418H38ZM38 494H76V456H38ZM38 532H76V494H38ZM76 532H114V494H76ZM114 532H152V494H114ZM114 494H152V456H114ZM114 456H152V418H114ZM114 418H152V380H114ZM114 380H152V342H114ZM114 342H152V304H114ZM76 304H114V266H76ZM76 266H114V228H76ZM76 342H114V304H76ZM76 380H114V342H76ZM76 418H114V380H76ZM76 456H114V418H76ZM76 494H114V456H76ZM114 304H152V266H114ZM114 266H152V228H114ZM380 570H418V532H380ZM418 570H456V532H418ZM456 570H494V532H456ZM494 570H532V532H494ZM494 532H532V494H494ZM494 494H532V456H494ZM494 456H532V418H494ZM494 418H532V380H494ZM494 380H532V342H494ZM494 342H532V304H494ZM494 304H532V266H494ZM494 266H532V228H494ZM494 228H532V190H494ZM456 266H494V228H456ZM418 266H456V228H418ZM418 228H456V190H418ZM380 266H418V228H380ZM380 304H418V266H380ZM380 342H418V304H380ZM380 380H418V342H380ZM380 418H418V380H380ZM380 456H418V418H380ZM380 494H418V456H380ZM380 532H418V494H380ZM418 532H456V494H418ZM456 532H494V494H456ZM456 494H494V456H456ZM456 456H494V418H456ZM456 418H494V380H456ZM456 380H494V342H456ZM456 342H494V304H456ZM456 304H494V266H456ZM418 304H456V266H418ZM418 342H456V304H418ZM418 380H456V342H418ZM418 418H456V380H418ZM418 456H456V418H418ZM418 494H456V456H418ZM342 228H380V190H342ZM380 228H418V190H380ZM418 190H456V152H418ZM456 190H494V152H456ZM456 228H494V190H456ZM380 190H418V152H380ZM380 152H418V114H380ZM418 152H456V114H418ZM380 114H418V76H380ZM342 114H380V76H342ZM342 76H380V38H342ZM304 76H342V38H304ZM304 38H342V0H304ZM266 38H304V0H266ZM266 0H304V-38H266ZM228 0H266V-38H228ZM228 -38H266V-76H228ZM190 -38H228V-76H190ZM190 -76H228V-114H190ZM152 -76H190V-114H152ZM152 -114H190V-152H152ZM114 -114H152V-152H114ZM114 -152H152V-190H114ZM76 -152H114V-190H76ZM38 -152H76V-190H38ZM38 -114H76V-152H38ZM38 -76H76V-114H38ZM76 -76H114V-114H76ZM76 -114H114V-152H76ZM114 -76H152V-114H114ZM76 -38H114V-76H76ZM114 -38H152V-76H114ZM114 0H152V-38H114ZM152 0H190V-38H152ZM190 0H228V-38H190ZM190 38H228V0H190ZM152 38H190V0H152ZM152 -38H190V-76H152ZM228 76H266V38H228ZM190 76H228V38H190ZM228 38H266V0H228ZM266 76H304V38H266ZM266 114H304V76H266ZM304 114H342V76H304ZM304 152H342V114H304ZM342 152H380V114H342ZM342 190H380V152H342ZM304 190H342V152H304ZM266 152H304V114H266ZM228 152H266V114H228ZM228 190H266V152H228ZM190 152H228V114H190ZM190 190H228V152H190ZM190 228H228V190H190ZM152 190H190V152H152ZM114 190H152V152H114ZM76 190H114V152H76ZM152 152H190V114H152ZM114 152H152V114H114ZM152 114H190V76H152ZM190 114H228V76H190ZM228 114H266V76H228Z" transform="translate(154.58823529411762, 72) scale(0.05572755417956656, -0.05572755417956656)" /><path d="M38 646H76V608H38ZM76 646H114V608H76ZM114 646H152V608H114ZM152 646H190V608H152ZM190 646H228V608H190ZM190 608H228V570H190ZM152 608H190V570H152ZM114 608H152V570H114ZM76 608H114V570H76ZM38 608H76V570H38ZM38 570H76V532H38ZM76 570H114V532H76ZM114 570H152V532H114ZM152 570H190V532H152ZM152 684H190V646H152ZM114 684H152V646H114ZM76 684H114V646H76ZM76 722H114V684H76ZM114 722H152V684H114ZM152 722H190V684H152ZM190 722H228V684H190ZM190 684H228V646H190ZM228 646H266V608H228ZM266 646H304V608H266ZM304 646H342V608H304ZM342 646H380V608H342ZM342 608H380V570H342ZM380 608H418V570H380ZM380 646H418V608H380ZM418 646H456V608H418ZM456 646H494V608H456ZM456 684H494V646H456ZM456 722H494V684H456ZM418 722H456V684H418ZM380 722H418V684H380ZM380 684H418V646H380ZM418 684H456V646H418ZM152 760H190V722H152ZM190 760H228V722H190ZM228 760H266V722H228ZM266 760H304V722H266ZM304 760H342V722H304ZM342 760H380V722H342ZM380 760H418V722H380ZM342 684H380V646H342ZM342 722H380V684H342ZM304 722H342V684H304ZM266 722H304V684H266ZM228 722H266V684H228ZM228 684H266V646H228ZM266 684H304V646H266ZM304 684H342V646H304ZM494 646H532V608H494ZM494 608H532V570H494ZM494 570H532V532H494ZM494 532H532V494H494ZM494 494H532V456H494ZM456 494H494V456H456ZM418 494H456V456H418ZM418 532H456V494H418ZM380 532H418V494H380ZM380 570H418V532H380ZM418 570H456V532H418ZM418 608H456V570H418ZM456 608H494V570H456ZM456 570H494V532H456ZM456 532H494V494H456ZM380 494H418V456H380ZM342 494H380V456H342ZM342 456H380V418H342ZM304 456H342V418H304ZM304 418H342V380H304ZM304 380H342V342H304ZM266 380H304V342H266ZM266 418H304V380H266ZM228 380H266V342H228ZM228 342H266V304H228ZM190 342H228V304H190ZM190 304H228V266H190ZM152 304H190V266H152ZM152 266H190V228H152ZM114 266H152V228H114ZM456 456H494V418H456ZM418 456H456V418H418ZM418 418H456V380H418ZM380 418H418V380H380ZM380 380H418V342H380ZM342 380H380V342H342ZM380 456H418V418H380ZM342 418H380V380H342ZM342 342H380V304H342ZM304 342H342V304H304ZM266 342H304V304H266ZM266 304H304V266H266ZM304 304H342V266H304ZM228 304H266V266H228ZM266 266H304V228H266ZM228 266H266V228H228ZM190 266H228V228H190ZM190 228H228V190H190ZM228 228H266V190H228ZM152 228H190V190H152ZM114 228H152V190H114ZM76 228H114V190H76ZM38 190H76V152H38ZM76 190H114V152H76ZM114 190H152V152H114ZM152 190H190V152H152ZM190 190H228V152H190ZM190 152H228V114H190ZM190 114H228V76H190ZM228 114H266V76H228ZM228 152H266V114H228ZM266 152H304V114H266ZM304 152H342V114H304ZM342 152H380V114H342ZM380 152H418V114H380ZM418 152H456V114H418ZM456 152H494V114H456ZM456 114H494V76H456ZM494 114H532V76H494ZM494 76H532V38H494ZM494 152H532V114H494ZM494 38H532V0H494ZM456 38H494V0H456ZM418 38H456V0H418ZM380 38H418V0H380ZM342 38H380V0H342ZM304 38H342V0H304ZM266 38H304V0H266ZM228 38H266V0H228ZM190 38H228V0H190ZM38 38H76V0H38ZM38 76H76V38H38ZM38 114H76V76H38ZM38 152H76V114H38ZM76 152H114V114H76ZM114 152H152V114H114ZM152 152H190V114H152ZM228 76H266V38H228ZM152 38H190V0H152ZM114 38H152V0H114ZM76 38H114V0H76ZM456 76H494V38H456ZM418 76H456V38H418ZM418 114H456V76H418ZM380 114H418V76H380ZM380 76H418V38H380ZM342 76H380V38H342ZM304 76H342V38H304ZM304 114H342V76H304ZM266 76H304V38H266ZM266 114H304V76H266ZM342 114H380V76H342ZM190 76H228V38H190ZM152 76H190V38H152ZM114 76H152V38H114ZM76 76H114V38H76ZM76 114H114V76H76ZM114 114H152V76H114ZM152 114H190V76H152Z" transform="translate(203.29411764705878, 72) scale(0.05572755417956656, -0.05572755417956656)" /><path d="M456 152H494V114H456ZM418 152H456V114H418ZM380 152H418V114H380ZM380 114H418V76H380ZM418 114H456V76H418ZM380 76H418V38H380ZM342 76H380V38H342ZM418 76H456V38H418ZM342 38H380V0H342ZM304 38H342V0H304ZM266 38H304V0H266ZM228 38H266V0H228ZM190 38H228V0H190ZM152 38H190V0H152ZM152 76H190V38H152ZM114 76H152V38H114ZM76 76H114V38H76ZM76 114H114V76H76ZM114 114H152V76H114ZM152 114H190V76H152ZM190 114H228V76H190ZM228 114H266V76H228ZM266 114H304V76H266ZM304 114H342V76H304ZM342 114H380V76H342ZM304 76H342V38H304ZM266 76H304V38H266ZM228 76H266V38H228ZM190 76H228V38H190ZM114 152H152V114H114ZM76 152H114V114H76ZM38 152H76V114H38ZM114 190H152V152H114ZM152 190H190V152H152ZM190 152H228V114H190ZM152 152H190V114H152ZM76 190H114V152H76ZM76 228H114V190H76ZM38 228H76V190H38ZM38 266H76V228H38ZM38 190H76V152H38ZM38 304H76V266H38ZM76 304H114V266H76ZM114 304H152V266H114ZM152 304H190V266H152ZM152 266H190V228H152ZM152 228H190V190H152ZM114 266H152V228H114ZM76 266H114V228H76ZM114 228H152V190H114ZM304 152H342V114H304ZM342 152H380V114H342ZM342 190H380V152H342ZM380 190H418V152H380ZM418 190H456V152H418ZM418 228H456V190H418ZM456 228H494V190H456ZM456 266H494V228H456ZM456 190H494V152H456ZM456 304H494V266H456ZM456 342H494V304H456ZM456 380H494V342H456ZM456 418H494V380H456ZM456 456H494V418H456ZM418 456H456V418H418ZM418 494H456V456H418ZM380 456H418V418H380ZM342 456H380V418H342ZM342 418H380V380H342ZM342 380H380V342H342ZM342 342H380V304H342ZM342 304H380V266H342ZM342 266H380V228H342ZM342 228H380V190H342ZM380 228H418V190H380ZM380 266H418V228H380ZM418 266H456V228H418ZM418 304H456V266H418ZM418 342H456V304H418ZM418 380H456V342H418ZM380 418H418V380H380ZM380 380H418V342H380ZM380 342H418V304H380ZM380 304H418V266H380ZM418 418H456V380H418ZM456 494H494V456H456ZM456 532H494V494H456ZM456 570H494V532H456ZM456 608H494V570H456ZM456 646H494V608H456ZM418 646H456V608H418ZM418 684H456V646H418ZM418 722H456V684H418ZM380 722H418V684H380ZM342 722H380V684H342ZM380 494H418V456H380ZM380 532H418V494H380ZM380 570H418V532H380ZM418 570H456V532H418ZM418 608H456V570H418ZM418 532H456V494H418ZM342 494H380V456H342ZM342 532H380V494H342ZM380 608H418V570H380ZM342 608H380V570H342ZM342 570H380V532H342ZM304 608H342V570H304ZM304 646H342V608H304ZM342 684H380V646H342ZM380 684H418V646H380ZM380 646H418V608H380ZM342 646H380V608H342ZM304 684H342V646H304ZM304 722H342V684H304ZM304 760H342V722H304ZM342 760H380V722H342ZM266 760H304V722H266ZM228 760H266V722H228ZM190 760H228V722H190ZM190 722H228V684H190ZM152 722H190V684H152ZM152 760H190V722H152ZM114 722H152V684H114ZM76 722H114V684H76ZM76 684H114V646H76ZM76 646H114V608H76ZM38 646H76V608H38ZM38 608H76V570H38ZM76 608H114V570H76ZM114 608H152V570H114ZM152 608H190V570H152ZM190 608H228V570H190ZM190 646H228V608H190ZM228 646H266V608H228ZM266 646H304V608H266ZM266 684H304V646H266ZM228 684H266V646H228ZM266 722H304V684H266ZM228 722H266V684H228ZM190 684H228V646H190ZM152 684H190V646H152ZM152 646H190V608H152ZM114 646H152V608H114ZM114 684H152V646H114ZM114 570H152V532H114ZM114 532H152V494H114ZM114 494H152V456H114ZM114 456H152V418H114ZM152 456H190V418H152ZM152 418H190V380H152ZM152 494H190V456H152ZM152 532H190V494H152ZM152 570H190V532H152ZM152 380H190V342H152ZM152 342H190V304H152ZM114 342H152V304H114ZM76 342H114V304H76ZM38 380H76V342H38ZM38 342H76V304H38ZM38 418H76V380H38ZM38 456H76V418H38ZM38 494H76V456H38ZM38 532H76V494H38ZM38 570H76V532H38ZM76 532H114V494H76ZM76 494H114V456H76ZM76 456H114V418H76ZM76 418H114V380H76ZM76 380H114V342H76ZM114 380H152V342H114ZM114 418H152V380H114ZM76 570H114V532H76ZM228 152H266V114H228ZM266 152H304V114H266ZM304 190H342V152H304ZM190 190H228V152H190Z" transform="translate(237.17647058823525, 72) scale(0.05572755417956656, -0.05572755417956656)" /></g></svg>