<svg width="44.25" height="15" viewBox="0 0 44.25 15" xmlns="http://www.w3.org/2000/svg"><path transform="translate(0 11.25) scale(.01 -.01)" d="m375 750h75v-75h-75zm-75 0h75v-75h-75zm0-75h75v-75h-75zm0-75h75v-75h-75zm0-75h75v-75h-75zm0-75h75v-75h-75zm75 0h75v-75h-75zm0 75h75v-75h-75zm0 75h75v-75h-75zm0 75h75v-75h-75zm0-300h75v-75h-75zm0-75h75v-75h-75zm0-75h75v-75h-75zm0-75h75v-75h-75zm-75 0h75v-75h-75zm0-75h75v-75h-75zm-75 0h75v-75h-75zm0 75h75v-75h-75zm75 75h75v-75h-75zm0 75h75v-75h-75zm0 75h75v-75h-75zm-150-300h75v-75h-75zm-75 0h75v-75h-75zm-75 75h75v-75h-75zm0 75h75v-75h-75zm75 0h75v-75h-75zm0-75h75v-75h-75zm75 0h75v-75h-75zm75 75h75v-75h-75z"/><path transform="translate(5.25 11.25) scale(.01 -.01)" d="m150 600h75v-75h-75zm-75 0h75v-75h-75zm0-75h75v-75h-75zm75 0h75v-75h-75zm75 75h75v-75h-75zm75 0h75v-75h-75zm75 0h75v-75h-75zm0-75h75v-75h-75zm-75 0h75v-75h-75zm150 0h75v-75h-75zm0-75h75v-75h-75zm0-300h75v-75h-75zm-75 0h75v-75h-75zm0 300h75v-75h-75zm-75-300h75v-75h-75zm75-75h75v-75h-75zm-75 0h75v-75h-75zm-75 0h75v-75h-75zm-75 0h75v-75h-75zm-75 0h75v-75h-75zm0 75h75v-75h-75zm75 0h75v-75h-75zm-75 75h75v-75h-75zm-75-75h75v-75h-75zm0 75h75v-75h-75zm0 75h75v-75h-75zm0 75h75v-75h-75zm0 75h75v-75h-75zm0 75h75v-75h-75zm75-75h75v-75h-75zm0-75h75v-75h-75zm0-75h75v-75h-75zm150-150h75v-75h-75zm0 375h75v-75h-75zm150-150h75v-75h-75zm75 0h75v-75h-75zm-300-75h75v-75h-75zm75 0h75v-75h-75zm75 0h75v-75h-75zm75 0h75v-75h-75zm75 0h75v-75h-75zm-150 75h75v-75h-75zm-75 0h75v-75h-75zm-75 0h75v-75h-75z"/><path transform="translate(11.25 11.25) scale(.01 -.01)" d="m0 525h75v-75h-75zm0 75h75v-75h-75zm75 0h75v-75h-75zm0-75h75v-75h-75zm0-75h75v-75h-75zm0-75h75v-75h-75zm0-75h75v-75h-75zm-75 0h75v-75h-75zm0 75h75v-75h-75zm0 75h75v-75h-75zm0-225h75v-75h-75zm75 0h75v-75h-75zm0-75h75v-75h-75zm0-75h75v-75h-75zm-75 0h75v-75h-75zm0 75h75v-75h-75zm150 375h75v-75h-75zm75 0h75v-75h-75zm75 0h75v-75h-75zm0 75h75v-75h-75zm-75 0h75v-75h-75zm-75-150h75v-75h-75zm225 75h75v-75h-75zm-75-75h75v-75h-75z"/><path transform="translate(16.5 11.25) scale(.01 -.01)" d="m0 525h75v-75h-75zm75-75h75v-75h-75zm-75 0h75v-75h-75zm0-75h75v-75h-75zm75 0h75v-75h-75zm0-75h75v-75h-75zm75 0h75v-75h-75zm75 0h75v-75h-75zm75 75h75v-75h-75zm-75 0h75v-75h-75zm-75 0h75v-75h-75zm150-75h75v-75h-75zm75 0h75v-75h-75zm0-75h75v-75h-75zm-75 0h75v-75h-75zm0-75h75v-75h-75zm75 0h75v-75h-75zm-75-75h75v-75h-75zm-75 75h75v-75h-75zm-75 0h75v-75h-75zm-75 0h75v-75h-75zm-75 0h75v-75h-75zm75-75h75v-75h-75zm75 0h75v-75h-75zm75 0h75v-75h-75zm150 450h75v-75h-75zm-75 0h75v-75h-75zm0 75h75v-75h-75zm-75 0h75v-75h-75zm-75 0h75v-75h-75zm-75 0h75v-75h-75zm0-75h75v-75h-75zm75 0h75v-75h-75zm75 0h75v-75h-75z"/><path transform="translate(21.75 11.25) scale(.01 -.01)" d="m150 600h75v-75h-75zm-75 0h75v-75h-75zm0-75h75v-75h-75zm75 0h75v-75h-75zm75 75h75v-75h-75zm75 0h75v-75h-75zm75 0h75v-75h-75zm0-75h75v-75h-75zm-75 0h75v-75h-75zm150 0h75v-75h-75zm0-75h75v-75h-75zm0-300h75v-75h-75zm-75 0h75v-75h-75zm0 300h75v-75h-75zm-75-300h75v-75h-75zm75-75h75v-75h-75zm-75 0h75v-75h-75zm-75 0h75v-75h-75zm-75 0h75v-75h-75zm-75 0h75v-75h-75zm0 75h75v-75h-75zm75 0h75v-75h-75zm-75 75h75v-75h-75zm-75-75h75v-75h-75zm0 75h75v-75h-75zm0 75h75v-75h-75zm0 75h75v-75h-75zm0 75h75v-75h-75zm0 75h75v-75h-75zm75-75h75v-75h-75zm0-75h75v-75h-75zm0-75h75v-75h-75zm150-150h75v-75h-75zm0 375h75v-75h-75zm150-150h75v-75h-75zm75 0h75v-75h-75zm-300-75h75v-75h-75zm75 0h75v-75h-75zm75 0h75v-75h-75zm75 0h75v-75h-75zm75 0h75v-75h-75zm-150 75h75v-75h-75zm-75 0h75v-75h-75zm-75 0h75v-75h-75z"/><path transform="translate(27.75 11.25) scale(.01 -.01)" d="m0 600h75v-75h-75zm75 0h75v-75h-75zm0-75h75v-75h-75zm0-75h75v-75h-75zm0-75h75v-75h-75zm-75 75h75v-75h-75zm0 75h75v-75h-75zm0-150h75v-75h-75zm0-75h75v-75h-75zm75 0h75v-75h-75zm0-75h75v-75h-75zm75 0h75v-75h-75zm0-75h75v-75h-75zm75 0h75v-75h-75zm75 0h75v-75h-75zm0 75h75v-75h-75zm0 75h75v-75h-75zm75 0h75v-75h-75zm0-75h75v-75h-75zm0 150h75v-75h-75zm-75 0h75v-75h-75zm0 225h75v-75h-75zm75 0h75v-75h-75zm0-75h75v-75h-75zm0-75h75v-75h-75zm-75 75h75v-75h-75zm0-75h75v-75h-75zm-75-375h75v-75h-75zm-75 0h75v-75h-75zm0-75h75v-75h-75zm-75 0h75v-75h-75zm0 75h75v-75h-75zm0-150h75v-75h-75zm-75 0h75v-75h-75zm0 75h75v-75h-75zm225 225h75v-75h-75zm-75 75h75v-75h-75z"/><path transform="translate(36 11.25) scale(.01 -.01)" d="m150 150h75v-75h-75zm0-75h75v-75h-75zm-75 0h75v-75h-75zm0 75h75v-75h-75zm0 75h75v-75h-75zm0 75h75v-75h-75zm0 75h75v-75h-75zm0 75h75v-75h-75zm0 75h75v-75h-75zm0 75h75v-75h-75zm75-75h75v-75h-75zm0-75h75v-75h-75zm0-75h75v-75h-75zm0-75h75v-75h-75zm0-75h75v-75h-75zm0 375h75v-75h-75zm0 75h75v-75h-75zm-75 75h75v-75h-75zm75 0h75v-75h-75zm-75-75h75v-75h-75zm-75 75h75v-75h-75zm0-75h75v-75h-75z"/><path transform="translate(39 11.25) scale(.01 -.01)" d="m150 750h75v-75h-75zm-75 0h75v-75h-75zm0-75h75v-75h-75zm75 0h75v-75h-75zm75 0h75v-75h-75zm0 75h75v-75h-75zm75 0h75v-75h-75zm75-75h75v-75h-75zm-75 0h75v-75h-75zm75-75h75v-75h-75zm0-450h75v-75h-75zm0 75h75v-75h-75zm0 75h75v-75h-75zm0 75h75v-75h-75zm0 75h75v-75h-75zm0 75h75v-75h-75zm-75-375h75v-75h-75zm0-75h75v-75h-75zm-75 0h75v-75h-75zm0 75h75v-75h-75zm-75-75h75v-75h-75zm-75 0h75v-75h-75zm0 75h75v-75h-75zm75 0h75v-75h-75zm-75 75h75v-75h-75zm-75-75h75v-75h-75zm0 75h75v-75h-75zm0 75h75v-75h-75zm0 75h75v-75h-75zm0 75h75v-75h-75zm0 75h75v-75h-75zm0 75h75v-75h-75zm75 0h75v-75h-75zm-75 75h75v-75h-75zm75-150h75v-75h-75zm0-75h75v-75h-75zm0-75h75v-75h-75zm0-75h75v-75h-75zm225 300h75v-75h-75zm0-75h75v-75h-75zm0-75h75v-75h-75zm0-75h75v-75h-75zm0-75h75v-75h-75zm0-75h75v-75h-75z"/></svg>