<svg width="52.294" height="14" viewBox="0 0 52.294 14" xmlns="http://www.w3.org/2000/svg"><path transform="translate(0 11.118) scale(.010836 -.010836)" d="m456 152h38v-38h-38zm-38 0h38v-38h-38zm-38 0h38v-38h-38zm0-38h38v-38h-38zm38 0h38v-38h-38zm-38-38h38v-38h-38zm-38 0h38v-38h-38zm76 0h38v-38h-38zm-76-38h38v-38h-38zm-38 0h38v-38h-38zm-38 0h38v-38h-38zm-38 0h38v-38h-38zm-38 0h38v-38h-38zm-38 0h38v-38h-38zm0 38h38v-38h-38zm-38 0h38v-38h-38zm-38 0h38v-38h-38zm0 38h38v-38h-38zm38 0h38v-38h-38zm38 0h38v-38h-38zm38 0h38v-38h-38zm38 0h38v-38h-38zm38 0h38v-38h-38zm38 0h38v-38h-38zm38 0h38v-38h-38zm-38-38h38v-38h-38zm-38 0h38v-38h-38zm-38 0h38v-38h-38zm-38 0h38v-38h-38zm-76 76h38v-38h-38zm-38 0h38v-38h-38zm-38 0h38v-38h-38zm76 38h38v-38h-38zm38 0h38v-38h-38zm38 0h38v-38h-38zm0-38h38v-38h-38zm-38 0h38v-38h-38zm-76 38h38v-38h-38zm0 38h38v-38h-38zm-38 0h38v-38h-38zm0-38h38v-38h-38zm114 38h38v-38h-38zm-38 0h38v-38h-38zm114-76h38v-38h-38zm38 0h38v-38h-38zm38 0h38v-38h-38zm38 0h38v-38h-38zm0 38h38v-38h-38zm-38 0h38v-38h-38zm76 0h38v-38h-38zm38 0h38v-38h-38zm0 38h38v-38h-38zm38 0h38v-38h-38zm0 38h38v-38h-38zm0-76h38v-38h-38zm0 114h38v-38h-38zm0 38h38v-38h-38zm0 38h38v-38h-38zm0 38h38v-38h-38zm0 38h38v-38h-38zm-38 0h38v-38h-38zm0 38h38v-38h-38zm-38-38h38v-38h-38zm-38 0h38v-38h-38zm0-38h38v-38h-38zm0-38h38v-38h-38zm0-38h38v-38h-38zm0-38h38v-38h-38zm0-38h38v-38h-38zm0-38h38v-38h-38zm38 0h38v-38h-38zm0 38h38v-38h-38zm38 0h38v-38h-38zm0 38h38v-38h-38zm0 38h38v-38h-38zm0 38h38v-38h-38zm-38 38h38v-38h-38zm0-38h38v-38h-38zm0-38h38v-38h-38zm0-38h38v-38h-38zm38 114h38v-38h-38zm38 76h38v-38h-38zm0 38h38v-38h-38zm0 38h38v-38h-38zm0 38h38v-38h-38zm0 38h38v-38h-38zm-38 0h38v-38h-38zm0 38h38v-38h-38zm0 38h38v-38h-38zm-38 0h38v-38h-38zm-38 0h38v-38h-38zm38-228h38v-38h-38zm0 38h38v-38h-38zm0 38h38v-38h-38zm38 0h38v-38h-38zm0 38h38v-38h-38zm0-76h38v-38h-38zm-76-38h38v-38h-38zm0 38h38v-38h-38zm38 76h38v-38h-38zm-38 0h38v-38h-38zm0-38h38v-38h-38zm0 114h38v-38h-38zm38 0h38v-38h-38zm0-38h38v-38h-38zm-38 0h38v-38h-38zm0 114h38v-38h-38zm38 0h38v-38h-38zm38 0h38v-38h-38zm38 0h38v-38h-38zm0-38h38v-38h-38zm0-38h38v-38h-38z"/><path transform="translate(6.1765 11.118) scale(.010836 -.010836)" d="m190 570h38v-38h-38zm38 0h38v-38h-38zm-76 0h38v-38h-38zm114 0h38v-38h-38zm38 0h38v-38h-38zm38 0h38v-38h-38zm38 0h38v-38h-38zm38-38h38v-38h-38zm-38 0h38v-38h-38zm0-38h38v-38h-38zm76 38h38v-38h-38zm0-38h38v-38h-38zm-38 0h38v-38h-38zm-38-38h38v-38h-38zm-38 0h38v-38h-38zm76 0h38v-38h-38zm38 0h38v-38h-38zm38 0h38v-38h-38zm0-38h38v-38h-38zm0-228h38v-38h-38zm0-38h38v-38h-38zm-38 0h38v-38h-38zm0-38h38v-38h-38zm0-38h38v-38h-38zm-38 0h38v-38h-38zm-38 0h38v-38h-38zm-38 38h38v-38h-38zm0 38h38v-38h-38zm38 0h38v-38h-38zm0-38h38v-38h-38zm38 0h38v-38h-38zm0 38h38v-38h-38zm0 38h38v-38h-38zm-38 0h38v-38h-38zm0 228h38v-38h-38zm38 0h38v-38h-38zm38-228h38v-38h-38zm0 228h38v-38h-38zm-114-342h38v-38h-38zm0-38h38v-38h-38zm38 0h38v-38h-38zm-76 0h38v-38h-38zm-38 0h38v-38h-38zm-38 0h38v-38h-38zm-38 0h38v-38h-38zm-38 0h38v-38h-38zm0 38h38v-38h-38zm-38 0h38v-38h-38zm-38 0h38v-38h-38zm0 38h38v-38h-38zm-38 38h38v-38h-38zm38 0h38v-38h-38zm-38 38h38v-38h-38zm0 38h38v-38h-38zm0 38h38v-38h-38zm0 38h38v-38h-38zm0 38h38v-38h-38zm0 38h38v-38h-38zm38 0h38v-38h-38zm0 38h38v-38h-38zm-38 0h38v-38h-38zm0 38h38v-38h-38zm38 0h38v-38h-38zm0 38h38v-38h-38zm0 38h38v-38h-38zm38 0h38v-38h-38zm38 0h38v-38h-38zm38 0h38v-38h-38zm0-38h38v-38h-38zm0-38h38v-38h-38zm-38 0h38v-38h-38zm-38 0h38v-38h-38zm38-38h38v-38h-38zm0-38h38v-38h-38zm0-38h38v-38h-38zm0-38h38v-38h-38zm0-38h38v-38h-38zm0-38h38v-38h-38zm0-38h38v-38h-38zm0-38h38v-38h-38zm38 0h38v-38h-38zm0-38h38v-38h-38zm38 0h38v-38h-38zm38 0h38v-38h-38zm38 0h38v-38h-38zm0-38h38v-38h-38zm-38 0h38v-38h-38zm-38 0h38v-38h-38zm-38 0h38v-38h-38zm-38 38h38v-38h-38zm-38 0h38v-38h-38zm0 38h38v-38h-38zm0 38h38v-38h-38zm0 38h38v-38h-38zm-38 0h38v-38h-38zm0-38h38v-38h-38zm0 76h38v-38h-38zm0 38h38v-38h-38zm0 38h38v-38h-38zm38 0h38v-38h-38zm0-38h38v-38h-38zm0-38h38v-38h-38zm0 114h38v-38h-38zm0 38h38v-38h-38zm0 76h38v-38h-38zm38 0h38v-38h-38zm76 38h38v-38h-38zm38 0h38v-38h-38zm38 0h38v-38h-38zm38 0h38v-38h-38zm0-38h38v-38h-38zm-38 0h38v-38h-38zm-38 0h38v-38h-38zm-38 0h38v-38h-38zm266-114h38v-38h-38zm-38 0h38v-38h-38zm-38 0h38v-38h-38zm-38 0h38v-38h-38zm114-38h38v-38h-38zm-38 0h38v-38h-38zm-38 0h38v-38h-38zm-38 0h38v-38h-38zm-38 0h38v-38h-38zm-38 0h38v-38h-38zm-38 0h38v-38h-38zm-38 0h38v-38h-38zm-38 0h38v-38h-38zm0-38h38v-38h-38zm38 0h38v-38h-38zm38 0h38v-38h-38zm38 0h38v-38h-38zm38 0h38v-38h-38zm38 0h38v-38h-38zm38 0h38v-38h-38zm38 0h38v-38h-38zm38 0h38v-38h-38z"/><path transform="translate(12.353 11.118) scale(.010836 -.010836)" d="m38 570h38v-38h-38zm38 0h38v-38h-38zm38 0h38v-38h-38zm-76-76h38v-38h-38zm0 38h38v-38h-38zm76-494h38v-38h-38zm-38 0h38v-38h-38zm-38 38h38v-38h-38zm0 38h38v-38h-38zm0-76h38v-38h-38zm190 532h38v-38h-38zm-76 0h38v-38h-38zm114 0h38v-38h-38zm38 0h38v-38h-38zm38 0h38v-38h-38zm38-38h38v-38h-38zm0-38h38v-38h-38zm38 0h38v-38h-38zm-38-38h38v-38h-38zm-38 0h38v-38h-38zm-190-418h38v-38h-38zm0 38h38v-38h-38zm-38 0h38v-38h-38zm-38 0h38v-38h-38zm0 304h38v-38h-38zm0 38h38v-38h-38zm-38 38h38v-38h-38zm38 38h38v-38h-38zm38 38h38v-38h-38zm38 0h38v-38h-38zm38 0h38v-38h-38zm0-38h38v-38h-38zm0-38h38v-38h-38zm-38 0h38v-38h-38zm-38 0h38v-38h-38zm38-38h38v-38h-38zm0-38h38v-38h-38zm0-38h38v-38h-38zm0-228h38v-38h-38zm-38 0h38v-38h-38zm0 266h38v-38h-38zm0 38h38v-38h-38zm0 76h38v-38h-38zm38 0h38v-38h-38zm76 38h38v-38h-38zm38 0h38v-38h-38zm38 0h38v-38h-38zm38 0h38v-38h-38zm0-38h38v-38h-38zm-38 0h38v-38h-38zm-38 0h38v-38h-38zm-38 0h38v-38h-38zm-152 38h38v-38h-38zm0-418h38v-38h-38zm0 342h38v-38h-38zm-38-38h38v-38h-38zm0-38h38v-38h-38zm0-228h38v-38h-38zm38 0h38v-38h-38zm38 0h38v-38h-38zm38 0h38v-38h-38zm-38 190h38v-38h-38zm-38 0h38v-38h-38zm-38 0h38v-38h-38zm0-38h38v-38h-38zm0-38h38v-38h-38zm0-38h38v-38h-38zm38 0h38v-38h-38zm0-38h38v-38h-38zm38 0h38v-38h-38zm-76 0h38v-38h-38zm114 0h38v-38h-38zm0 38h38v-38h-38zm0 38h38v-38h-38zm0 38h38v-38h-38zm-38 0h38v-38h-38zm-38 0h38v-38h-38zm0-38h38v-38h-38zm38-38h38v-38h-38zm0 38h38v-38h-38zm190 190h38v-38h-38zm38-38h38v-38h-38z"/><path transform="translate(17.294 11.118) scale(.010836 -.010836)" d="m456 456h38v-38h-38zm-38 0h38v-38h-38zm-38 0h38v-38h-38zm0 38h38v-38h-38zm-38 0h38v-38h-38zm76 0h38v-38h-38zm38 0h38v-38h-38zm-38 38h38v-38h-38zm-38 0h38v-38h-38zm-38 0h38v-38h-38zm0 38h38v-38h-38zm38 0h38v-38h-38zm-76 0h38v-38h-38zm-38 0h38v-38h-38zm-38 0h38v-38h-38zm-38-38h38v-38h-38zm-38 0h38v-38h-38zm0 38h38v-38h-38zm38 0h38v-38h-38zm38-38h38v-38h-38zm0-38h38v-38h-38zm38 0h38v-38h-38zm38 0h38v-38h-38zm0 38h38v-38h-38zm-38 0h38v-38h-38zm-76-38h38v-38h-38zm-38 0h38v-38h-38zm-38 0h38v-38h-38zm-38 0h38v-38h-38zm0 38h38v-38h-38zm38 0h38v-38h-38zm38-76h38v-38h-38zm38 0h38v-38h-38zm-76 0h38v-38h-38zm-38 0h38v-38h-38zm-38 0h38v-38h-38zm38-38h38v-38h-38zm-38 0h38v-38h-38zm0-38h38v-38h-38zm38 0h38v-38h-38zm38 38h38v-38h-38zm38 0h38v-38h-38zm0-38h38v-38h-38zm38 0h38v-38h-38zm-76 0h38v-38h-38zm0-38h38v-38h-38zm-38 0h38v-38h-38zm38-38h38v-38h-38zm-38 0h38v-38h-38zm76 38h38v-38h-38zm38 0h38v-38h-38zm0-38h38v-38h-38zm0-38h38v-38h-38zm-38 0h38v-38h-38zm0 38h38v-38h-38zm76 0h38v-38h-38zm38 0h38v-38h-38zm0 38h38v-38h-38zm38 0h38v-38h-38zm38 0h38v-38h-38zm38 0h38v-38h-38zm-152 0h38v-38h-38zm0-76h38v-38h-38zm38 0h38v-38h-38zm38 0h38v-38h-38zm38 0h38v-38h-38zm38 0h38v-38h-38zm0 38h38v-38h-38zm-38 0h38v-38h-38zm-38 0h38v-38h-38zm152 0h38v-38h-38zm-38 0h38v-38h-38zm0-38h38v-38h-38zm38 0h38v-38h-38zm-76-38h38v-38h-38zm-38 0h38v-38h-38zm76 0h38v-38h-38zm38 0h38v-38h-38zm38 0h38v-38h-38zm0-38h38v-38h-38zm0-38h38v-38h-38zm-38 0h38v-38h-38zm0 38h38v-38h-38zm-38 0h38v-38h-38zm0-38h38v-38h-38zm-38 38h38v-38h-38zm0-38h38v-38h-38zm-38 0h38v-38h-38zm0-38h38v-38h-38zm38 0h38v-38h-38zm0-38h38v-38h-38zm38 0h38v-38h-38zm0 38h38v-38h-38zm38 0h38v-38h-38zm0-38h38v-38h-38zm-76-38h38v-38h-38zm-38 0h38v-38h-38zm0 38h38v-38h-38zm-38 0h38v-38h-38zm-38 0h38v-38h-38zm-38 0h38v-38h-38zm0 38h38v-38h-38zm38 0h38v-38h-38zm38 0h38v-38h-38zm0-76h38v-38h-38zm-38 0h38v-38h-38zm-38 0h38v-38h-38zm-38 0h38v-38h-38zm-38 0h38v-38h-38zm0 38h38v-38h-38zm38 0h38v-38h-38zm0 38h38v-38h-38zm-38 0h38v-38h-38zm-38-38h38v-38h-38zm-38 0h38v-38h-38zm0 38h38v-38h-38zm38 0h38v-38h-38zm38 38h38v-38h-38zm38 0h38v-38h-38zm-38 38h38v-38h-38zm-38 0h38v-38h-38zm-38 0h38v-38h-38zm-38 0h38v-38h-38zm0-38h38v-38h-38zm38 0h38v-38h-38zm38 0h38v-38h-38zm380 304h38v-38h-38zm-38 76h38v-38h-38zm38-114h38v-38h-38zm-38 0h38v-38h-38zm-38 0h38v-38h-38zm-38 0h38v-38h-38zm-38 38h38v-38h-38z"/><path transform="translate(23.882 11.118) scale(.010836 -.010836)" d="m190 570h38v-38h-38zm38 0h38v-38h-38zm-76 0h38v-38h-38zm114 0h38v-38h-38zm38 0h38v-38h-38zm38 0h38v-38h-38zm38 0h38v-38h-38zm38-38h38v-38h-38zm-38 0h38v-38h-38zm0-38h38v-38h-38zm76 38h38v-38h-38zm0-38h38v-38h-38zm-38 0h38v-38h-38zm-38-38h38v-38h-38zm-38 0h38v-38h-38zm76 0h38v-38h-38zm38 0h38v-38h-38zm38 0h38v-38h-38zm0-38h38v-38h-38zm0-228h38v-38h-38zm0-38h38v-38h-38zm-38 0h38v-38h-38zm0-38h38v-38h-38zm0-38h38v-38h-38zm-38 0h38v-38h-38zm-38 0h38v-38h-38zm-38 38h38v-38h-38zm0 38h38v-38h-38zm38 0h38v-38h-38zm0-38h38v-38h-38zm38 0h38v-38h-38zm0 38h38v-38h-38zm0 38h38v-38h-38zm-38 0h38v-38h-38zm0 228h38v-38h-38zm38 0h38v-38h-38zm38-228h38v-38h-38zm0 228h38v-38h-38zm-114-342h38v-38h-38zm0-38h38v-38h-38zm38 0h38v-38h-38zm-76 0h38v-38h-38zm-38 0h38v-38h-38zm-38 0h38v-38h-38zm-38 0h38v-38h-38zm-38 0h38v-38h-38zm0 38h38v-38h-38zm-38 0h38v-38h-38zm-38 0h38v-38h-38zm0 38h38v-38h-38zm-38 38h38v-38h-38zm38 0h38v-38h-38zm-38 38h38v-38h-38zm0 38h38v-38h-38zm0 38h38v-38h-38zm0 38h38v-38h-38zm0 38h38v-38h-38zm0 38h38v-38h-38zm38 0h38v-38h-38zm0 38h38v-38h-38zm-38 0h38v-38h-38zm0 38h38v-38h-38zm38 0h38v-38h-38zm0 38h38v-38h-38zm0 38h38v-38h-38zm38 0h38v-38h-38zm38 0h38v-38h-38zm38 0h38v-38h-38zm0-38h38v-38h-38zm0-38h38v-38h-38zm-38 0h38v-38h-38zm-38 0h38v-38h-38zm38-38h38v-38h-38zm0-38h38v-38h-38zm0-38h38v-38h-38zm0-38h38v-38h-38zm0-38h38v-38h-38zm0-38h38v-38h-38zm0-38h38v-38h-38zm0-38h38v-38h-38zm38 0h38v-38h-38zm0-38h38v-38h-38zm38 0h38v-38h-38zm38 0h38v-38h-38zm38 0h38v-38h-38zm0-38h38v-38h-38zm-38 0h38v-38h-38zm-38 0h38v-38h-38zm-38 0h38v-38h-38zm-38 38h38v-38h-38zm-38 0h38v-38h-38zm0 38h38v-38h-38zm0 38h38v-38h-38zm0 38h38v-38h-38zm-38 0h38v-38h-38zm0-38h38v-38h-38zm0 76h38v-38h-38zm0 38h38v-38h-38zm0 38h38v-38h-38zm38 0h38v-38h-38zm0-38h38v-38h-38zm0-38h38v-38h-38zm0 114h38v-38h-38zm0 38h38v-38h-38zm0 76h38v-38h-38zm38 0h38v-38h-38zm76 38h38v-38h-38zm38 0h38v-38h-38zm38 0h38v-38h-38zm38 0h38v-38h-38zm0-38h38v-38h-38zm-38 0h38v-38h-38zm-38 0h38v-38h-38zm-38 0h38v-38h-38zm266-114h38v-38h-38zm-38 0h38v-38h-38zm-38 0h38v-38h-38zm-38 0h38v-38h-38zm114-38h38v-38h-38zm-38 0h38v-38h-38zm-38 0h38v-38h-38zm-38 0h38v-38h-38zm-38 0h38v-38h-38zm-38 0h38v-38h-38zm-38 0h38v-38h-38zm-38 0h38v-38h-38zm-38 0h38v-38h-38zm0-38h38v-38h-38zm38 0h38v-38h-38zm38 0h38v-38h-38zm38 0h38v-38h-38zm38 0h38v-38h-38zm38 0h38v-38h-38zm38 0h38v-38h-38zm38 0h38v-38h-38zm38 0h38v-38h-38z"/><path transform="translate(30.059 11.118) scale(.010836 -.010836)" d="m38 570h38v-38h-38zm38 0h38v-38h-38zm38 0h38v-38h-38zm38 0h38v-38h-38zm0-38h38v-38h-38zm0-38h38v-38h-38zm0-38h38v-38h-38zm0-38h38v-38h-38zm0-38h38v-38h-38zm0-38h38v-38h-38zm0-38h38v-38h-38zm0-38h38v-38h-38zm0-38h38v-38h-38zm-38 0h38v-38h-38zm-38 0h38v-38h-38zm-38 0h38v-38h-38zm0 38h38v-38h-38zm0 38h38v-38h-38zm0 38h38v-38h-38zm0 38h38v-38h-38zm0 38h38v-38h-38zm0 38h38v-38h-38zm0 38h38v-38h-38zm0 38h38v-38h-38zm38 0h38v-38h-38zm38 0h38v-38h-38zm0-38h38v-38h-38zm0-38h38v-38h-38zm0-38h38v-38h-38zm0-38h38v-38h-38zm0-38h38v-38h-38zm-38-38h38v-38h-38zm0-38h38v-38h-38zm0 76h38v-38h-38zm0 38h38v-38h-38zm0 38h38v-38h-38zm0 38h38v-38h-38zm0 38h38v-38h-38zm38-190h38v-38h-38zm0-38h38v-38h-38zm266 304h38v-38h-38zm38 0h38v-38h-38zm38 0h38v-38h-38zm38 0h38v-38h-38zm0-38h38v-38h-38zm0-38h38v-38h-38zm0-38h38v-38h-38zm0-38h38v-38h-38zm0-38h38v-38h-38zm0-38h38v-38h-38zm0-38h38v-38h-38zm0-38h38v-38h-38zm0-38h38v-38h-38zm-38 38h38v-38h-38zm-38 0h38v-38h-38zm0-38h38v-38h-38zm-38 38h38v-38h-38zm0 38h38v-38h-38zm0 38h38v-38h-38zm0 38h38v-38h-38zm0 38h38v-38h-38zm0 38h38v-38h-38zm0 38h38v-38h-38zm0 38h38v-38h-38zm38 0h38v-38h-38zm38 0h38v-38h-38zm0-38h38v-38h-38zm0-38h38v-38h-38zm0-38h38v-38h-38zm0-38h38v-38h-38zm0-38h38v-38h-38zm0-38h38v-38h-38zm-38 0h38v-38h-38zm0 38h38v-38h-38zm0 38h38v-38h-38zm0 38h38v-38h-38zm0 38h38v-38h-38zm0 38h38v-38h-38zm-76-266h38v-38h-38zm38 0h38v-38h-38zm38-38h38v-38h-38zm38 0h38v-38h-38zm0 38h38v-38h-38zm-76-38h38v-38h-38zm0-38h38v-38h-38zm38 0h38v-38h-38zm-38-38h38v-38h-38zm-38 0h38v-38h-38zm0-38h38v-38h-38zm-38 0h38v-38h-38zm0-38h38v-38h-38zm-38 0h38v-38h-38zm0-38h38v-38h-38zm-38 0h38v-38h-38zm0-38h38v-38h-38zm-38 0h38v-38h-38zm0-38h38v-38h-38zm-38 0h38v-38h-38zm0-38h38v-38h-38zm-38 0h38v-38h-38zm0-38h38v-38h-38zm-38 0h38v-38h-38zm-38 0h38v-38h-38zm0 38h38v-38h-38zm0 38h38v-38h-38zm38 0h38v-38h-38zm0-38h38v-38h-38zm38 38h38v-38h-38zm-38 38h38v-38h-38zm38 0h38v-38h-38zm0 38h38v-38h-38zm38 0h38v-38h-38zm38 0h38v-38h-38zm0 38h38v-38h-38zm-38 0h38v-38h-38zm0-76h38v-38h-38zm76 114h38v-38h-38zm-38 0h38v-38h-38zm38-38h38v-38h-38zm38 38h38v-38h-38zm0 38h38v-38h-38zm38 0h38v-38h-38zm0 38h38v-38h-38zm38 0h38v-38h-38zm0 38h38v-38h-38zm-38 0h38v-38h-38zm-38-38h38v-38h-38zm-38 0h38v-38h-38zm0 38h38v-38h-38zm-38-38h38v-38h-38zm0 38h38v-38h-38zm0 38h38v-38h-38zm-38-38h38v-38h-38zm-38 0h38v-38h-38zm-38 0h38v-38h-38zm76-38h38v-38h-38zm-38 0h38v-38h-38zm38-38h38v-38h-38zm38 0h38v-38h-38zm38 0h38v-38h-38z"/><path transform="translate(39.529 11.118) scale(.010836 -.010836)" d="m38 646h38v-38h-38zm38 0h38v-38h-38zm38 0h38v-38h-38zm38 0h38v-38h-38zm38 0h38v-38h-38zm0-38h38v-38h-38zm-38 0h38v-38h-38zm-38 0h38v-38h-38zm-38 0h38v-38h-38zm-38 0h38v-38h-38zm0-38h38v-38h-38zm38 0h38v-38h-38zm38 0h38v-38h-38zm38 0h38v-38h-38zm0 114h38v-38h-38zm-38 0h38v-38h-38zm-38 0h38v-38h-38zm0 38h38v-38h-38zm38 0h38v-38h-38zm38 0h38v-38h-38zm38 0h38v-38h-38zm0-38h38v-38h-38zm38-38h38v-38h-38zm38 0h38v-38h-38zm38 0h38v-38h-38zm38 0h38v-38h-38zm0-38h38v-38h-38zm38 0h38v-38h-38zm0 38h38v-38h-38zm38 0h38v-38h-38zm38 0h38v-38h-38zm0 38h38v-38h-38zm0 38h38v-38h-38zm-38 0h38v-38h-38zm-38 0h38v-38h-38zm0-38h38v-38h-38zm38 0h38v-38h-38zm-266 76h38v-38h-38zm38 0h38v-38h-38zm38 0h38v-38h-38zm38 0h38v-38h-38zm38 0h38v-38h-38zm38 0h38v-38h-38zm38 0h38v-38h-38zm-38-76h38v-38h-38zm0 38h38v-38h-38zm-38 0h38v-38h-38zm-38 0h38v-38h-38zm-38 0h38v-38h-38zm0-38h38v-38h-38zm38 0h38v-38h-38zm38 0h38v-38h-38zm190-38h38v-38h-38zm0-38h38v-38h-38zm0-38h38v-38h-38zm0-38h38v-38h-38zm0-38h38v-38h-38zm-38 0h38v-38h-38zm-38 0h38v-38h-38zm0 38h38v-38h-38zm-38 0h38v-38h-38zm0 38h38v-38h-38zm38 0h38v-38h-38zm0 38h38v-38h-38zm38 0h38v-38h-38zm0-38h38v-38h-38zm0-38h38v-38h-38zm-76-38h38v-38h-38zm-38 0h38v-38h-38zm0-38h38v-38h-38zm-38 0h38v-38h-38zm0-38h38v-38h-38zm0-38h38v-38h-38zm-38 0h38v-38h-38zm0 38h38v-38h-38zm-38-38h38v-38h-38zm0-38h38v-38h-38zm-38 0h38v-38h-38zm0-38h38v-38h-38zm-38 0h38v-38h-38zm0-38h38v-38h-38zm-38 0h38v-38h-38zm342 190h38v-38h-38zm-38 0h38v-38h-38zm0-38h38v-38h-38zm-38 0h38v-38h-38zm0-38h38v-38h-38zm-38 0h38v-38h-38zm38 76h38v-38h-38zm-38-38h38v-38h-38zm0-76h38v-38h-38zm-38 0h38v-38h-38zm-38 0h38v-38h-38zm0-38h38v-38h-38zm38 0h38v-38h-38zm-76 0h38v-38h-38zm38-38h38v-38h-38zm-38 0h38v-38h-38zm-38 0h38v-38h-38zm0-38h38v-38h-38zm38 0h38v-38h-38zm-76 0h38v-38h-38zm-38 0h38v-38h-38zm-38 0h38v-38h-38zm-38-38h38v-38h-38zm38 0h38v-38h-38zm38 0h38v-38h-38zm38 0h38v-38h-38zm38 0h38v-38h-38zm0-38h38v-38h-38zm0-38h38v-38h-38zm38 0h38v-38h-38zm0 38h38v-38h-38zm38 0h38v-38h-38zm38 0h38v-38h-38zm38 0h38v-38h-38zm38 0h38v-38h-38zm38 0h38v-38h-38zm38 0h38v-38h-38zm0-38h38v-38h-38zm38 0h38v-38h-38zm0-38h38v-38h-38zm0 76h38v-38h-38zm0-114h38v-38h-38zm-38 0h38v-38h-38zm-38 0h38v-38h-38zm-38 0h38v-38h-38zm-38 0h38v-38h-38zm-38 0h38v-38h-38zm-38 0h38v-38h-38zm-38 0h38v-38h-38zm-38 0h38v-38h-38zm-152 0h38v-38h-38zm0 38h38v-38h-38zm0 38h38v-38h-38zm0 38h38v-38h-38zm38 0h38v-38h-38zm38 0h38v-38h-38zm38 0h38v-38h-38zm76-76h38v-38h-38zm-76-38h38v-38h-38zm-38 0h38v-38h-38zm-38 0h38v-38h-38zm380 38h38v-38h-38zm-38 0h38v-38h-38zm0 38h38v-38h-38zm-38 0h38v-38h-38zm0-38h38v-38h-38zm-38 0h38v-38h-38zm-38 0h38v-38h-38zm0 38h38v-38h-38zm-38-38h38v-38h-38zm0 38h38v-38h-38zm76 0h38v-38h-38zm-152-38h38v-38h-38zm-38 0h38v-38h-38zm-38 0h38v-38h-38zm-38 0h38v-38h-38zm0 38h38v-38h-38zm38 0h38v-38h-38zm38 0h38v-38h-38z"/><path transform="translate(46.118 11.118) scale(.010836 -.010836)" d="m456 152h38v-38h-38zm-38 0h38v-38h-38zm-38 0h38v-38h-38zm0-38h38v-38h-38zm38 0h38v-38h-38zm-38-38h38v-38h-38zm-38 0h38v-38h-38zm76 0h38v-38h-38zm-76-38h38v-38h-38zm-38 0h38v-38h-38zm-38 0h38v-38h-38zm-38 0h38v-38h-38zm-38 0h38v-38h-38zm-38 0h38v-38h-38zm0 38h38v-38h-38zm-38 0h38v-38h-38zm-38 0h38v-38h-38zm0 38h38v-38h-38zm38 0h38v-38h-38zm38 0h38v-38h-38zm38 0h38v-38h-38zm38 0h38v-38h-38zm38 0h38v-38h-38zm38 0h38v-38h-38zm38 0h38v-38h-38zm-38-38h38v-38h-38zm-38 0h38v-38h-38zm-38 0h38v-38h-38zm-38 0h38v-38h-38zm-76 76h38v-38h-38zm-38 0h38v-38h-38zm-38 0h38v-38h-38zm76 38h38v-38h-38zm38 0h38v-38h-38zm38-38h38v-38h-38zm-38 0h38v-38h-38zm-76 38h38v-38h-38zm0 38h38v-38h-38zm-38 0h38v-38h-38zm0 38h38v-38h-38zm0-76h38v-38h-38zm0 114h38v-38h-38zm38 0h38v-38h-38zm38 0h38v-38h-38zm38 0h38v-38h-38zm0-38h38v-38h-38zm0-38h38v-38h-38zm-38 38h38v-38h-38zm-38 0h38v-38h-38zm38-38h38v-38h-38zm190-76h38v-38h-38zm38 0h38v-38h-38zm0 38h38v-38h-38zm38 0h38v-38h-38zm38 0h38v-38h-38zm0 38h38v-38h-38zm38 0h38v-38h-38zm0 38h38v-38h-38zm0-76h38v-38h-38zm0 114h38v-38h-38zm0 38h38v-38h-38zm0 38h38v-38h-38zm0 38h38v-38h-38zm0 38h38v-38h-38zm-38 0h38v-38h-38zm0 38h38v-38h-38zm-38-38h38v-38h-38zm-38 0h38v-38h-38zm0-38h38v-38h-38zm0-38h38v-38h-38zm0-38h38v-38h-38zm0-38h38v-38h-38zm0-38h38v-38h-38zm0-38h38v-38h-38zm38 0h38v-38h-38zm0 38h38v-38h-38zm38 0h38v-38h-38zm0 38h38v-38h-38zm0 38h38v-38h-38zm0 38h38v-38h-38zm-38 38h38v-38h-38zm0-38h38v-38h-38zm0-38h38v-38h-38zm0-38h38v-38h-38zm38 114h38v-38h-38zm38 76h38v-38h-38zm0 38h38v-38h-38zm0 38h38v-38h-38zm0 38h38v-38h-38zm0 38h38v-38h-38zm-38 0h38v-38h-38zm0 38h38v-38h-38zm0 38h38v-38h-38zm-38 0h38v-38h-38zm-38 0h38v-38h-38zm38-228h38v-38h-38zm0 38h38v-38h-38zm0 38h38v-38h-38zm38 0h38v-38h-38zm0 38h38v-38h-38zm0-76h38v-38h-38zm-76-38h38v-38h-38zm0 38h38v-38h-38zm38 76h38v-38h-38zm-38 0h38v-38h-38zm0-38h38v-38h-38zm-38 38h38v-38h-38zm0 38h38v-38h-38zm38 38h38v-38h-38zm38 0h38v-38h-38zm0-38h38v-38h-38zm-38 0h38v-38h-38zm-38 38h38v-38h-38zm0 38h38v-38h-38zm0 38h38v-38h-38zm38 0h38v-38h-38zm-76 0h38v-38h-38zm-38 0h38v-38h-38zm-38 0h38v-38h-38zm0-38h38v-38h-38zm-38 0h38v-38h-38zm0 38h38v-38h-38zm-38-38h38v-38h-38zm-38 0h38v-38h-38zm0-38h38v-38h-38zm0-38h38v-38h-38zm-38 0h38v-38h-38zm0-38h38v-38h-38zm38 0h38v-38h-38zm38 0h38v-38h-38zm38 0h38v-38h-38zm38 0h38v-38h-38zm0 38h38v-38h-38zm38 0h38v-38h-38zm38 0h38v-38h-38zm0 38h38v-38h-38zm-38 0h38v-38h-38zm38 38h38v-38h-38zm-38 0h38v-38h-38zm-38-38h38v-38h-38zm-38 0h38v-38h-38zm0-38h38v-38h-38zm-38 0h38v-38h-38zm0 38h38v-38h-38zm0-114h38v-38h-38zm0-38h38v-38h-38zm0-38h38v-38h-38zm0-38h38v-38h-38zm38 0h38v-38h-38zm0-38h38v-38h-38zm0 76h38v-38h-38zm0 38h38v-38h-38zm0 38h38v-38h-38zm0-190h38v-38h-38zm0-38h38v-38h-38zm-38 0h38v-38h-38zm-38 0h38v-38h-38zm-38 38h38v-38h-38zm0-38h38v-38h-38zm0 76h38v-38h-38zm0 38h38v-38h-38zm0 38h38v-38h-38zm0 38h38v-38h-38zm0 38h38v-38h-38zm38-38h38v-38h-38zm0-38h38v-38h-38zm0-38h38v-38h-38zm0-38h38v-38h-38zm0-38h38v-38h-38zm38 0h38v-38h-38zm0 38h38v-38h-38zm-38 152h38v-38h-38zm152-418h38v-38h-38zm38 0h38v-38h-38zm38 38h38v-38h-38zm-114 0h38v-38h-38z"/></svg>