<svg width="49" height="13" viewBox="0 0 49 13" fill="none" xmlns="http://www.w3.org/2000/svg">
<path d="M0.5 7.72067C0.5 7.654 0.523333 7.54733 0.57 7.40067C0.623333 7.254 0.683333 7.10733 0.75 6.96067C0.816667 6.814 0.883333 6.69067 0.95 6.59067C1.02333 6.49067 1.07667 6.454 1.11 6.48067C1.13667 6.50067 1.19667 6.57733 1.29 6.71067C1.38333 6.85067 1.49 7.014 1.61 7.20067C1.73667 7.38733 1.87 7.58733 2.01 7.80067C2.15667 8.014 2.29667 8.20733 2.43 8.38067C2.56333 8.554 2.68 8.694 2.78 8.80067C2.88 8.90733 2.95333 8.944 3 8.91067C3.06 8.87733 3.12 8.69067 3.18 8.35067C3.24 8.01733 3.29333 7.604 3.34 7.11067C3.38667 6.61733 3.42667 6.08733 3.46 5.52067C3.5 4.94733 3.53333 4.40733 3.56 3.90067C3.58667 3.394 3.60667 2.95733 3.62 2.59067C3.63333 2.224 3.64333 1.994 3.65 1.90067C3.65 1.82067 3.7 1.67733 3.8 1.47067C3.89333 1.264 4.00333 1.06067 4.13 0.860667C4.25667 0.660667 4.38333 0.494 4.51 0.360667C4.63 0.220667 4.72333 0.174 4.79 0.220666C4.81667 0.247333 4.83667 0.404 4.85 0.690667C4.86333 0.977333 4.87667 1.34733 4.89 1.80067C4.89667 2.26067 4.89667 2.78067 4.89 3.36067C4.87667 3.934 4.86333 4.524 4.85 5.13067C4.83667 5.73067 4.81667 6.324 4.79 6.91067C4.76333 7.49733 4.73333 8.02733 4.7 8.50067C4.66667 8.96733 4.62667 9.35733 4.58 9.67067C4.54 9.984 4.49 10.174 4.43 10.2407C4.39667 10.2873 4.29 10.3407 4.11 10.4007C3.92333 10.4673 3.72333 10.5273 3.51 10.5807C3.29667 10.6273 3.09 10.664 2.89 10.6907C2.69 10.7173 2.55 10.7173 2.47 10.6907C2.28333 10.6373 2.08 10.4673 1.86 10.1807C1.63333 9.894 1.41667 9.58067 1.21 9.24067C1.01 8.90733 0.84 8.59067 0.7 8.29067C0.566667 7.99733 0.5 7.80733 0.5 7.72067ZM8.78 3.02067C8.84667 3.074 8.91 3.18067 8.97 3.34067C9.03 3.494 9.08 3.68067 9.12 3.90067C9.16667 4.114 9.21 4.35067 9.25 4.61067C9.28333 4.864 9.31333 5.114 9.34 5.36067C9.36667 5.60733 9.38667 5.83733 9.4 6.05067C9.41333 6.264 9.42667 6.44067 9.44 6.58067C9.44667 6.74067 9.45333 6.91067 9.46 7.09067C9.46667 7.27067 9.46667 7.43733 9.46 7.59067C9.45333 7.75067 9.44333 7.89733 9.43 8.03067C9.41667 8.15733 9.39667 8.25067 9.37 8.31067C9.31667 8.45067 9.22333 8.544 9.09 8.59067C8.95667 8.644 8.81 8.68067 8.65 8.70067C8.56333 8.70733 8.42333 8.70733 8.23 8.70067C8.03 8.70067 7.82 8.69067 7.6 8.67067C7.37333 8.65733 7.16 8.644 6.96 8.63067C6.76 8.61067 6.61 8.59067 6.51 8.57067C6.31 8.524 6.16667 8.464 6.08 8.39067C5.99333 8.324 5.91 8.22067 5.83 8.08067C5.80333 8.02733 5.78 7.88733 5.76 7.66067C5.74 7.44067 5.73 7.174 5.73 6.86067C5.72333 6.54067 5.72333 6.20067 5.73 5.84067C5.74333 5.474 5.76 5.12733 5.78 4.80067C5.8 4.474 5.82667 4.18733 5.86 3.94067C5.89333 3.694 5.93667 3.53067 5.99 3.45067C6.08333 3.31733 6.24 3.19733 6.46 3.09067C6.68667 2.984 6.89 2.89733 7.07 2.83067C7.16333 2.804 7.28667 2.784 7.44 2.77067C7.58667 2.75733 7.74333 2.75733 7.91 2.77067C8.08333 2.784 8.24667 2.81067 8.4 2.85067C8.55333 2.89067 8.68 2.94733 8.78 3.02067ZM8.02 7.26067C8.03333 7.22733 8.05333 7.114 8.08 6.92067C8.1 6.734 8.11667 6.51067 8.13 6.25067C8.14333 5.984 8.15333 5.70067 8.16 5.40067C8.16667 5.10067 8.17 4.824 8.17 4.57067C8.17 4.31067 8.16 4.094 8.14 3.92067C8.12 3.74067 8.09667 3.63733 8.07 3.61067C8.02333 3.57067 7.95667 3.554 7.87 3.56067C7.78333 3.56733 7.69667 3.58067 7.61 3.60067C7.51667 3.62733 7.43333 3.654 7.36 3.68067C7.28667 3.714 7.23667 3.744 7.21 3.77067C7.09 3.87067 7.02667 4.03733 7.02 4.27067C7.02 4.33067 7.01333 4.51067 7 4.81067C6.98667 5.104 6.98 5.42067 6.98 5.76067C6.98 6.10733 6.98667 6.424 7 6.71067C7.01333 7.004 7.04333 7.184 7.09 7.25067C7.13 7.31067 7.19333 7.35733 7.28 7.39067C7.36667 7.424 7.46 7.44067 7.56 7.44067C7.65333 7.44067 7.74333 7.424 7.83 7.39067C7.91667 7.35733 7.98 7.314 8.02 7.26067ZM11.32 10.4207C11.26 10.4407 11.19 10.4173 11.11 10.3507C11.0233 10.284 10.9433 10.204 10.87 10.1107C10.79 10.0173 10.7233 9.914 10.67 9.80067C10.6167 9.694 10.58 9.604 10.56 9.53067C10.4933 8.73067 10.44 8.014 10.4 7.38067C10.36 6.74733 10.3267 6.184 10.3 5.69067C10.2733 5.19733 10.2533 4.77067 10.24 4.41067C10.2267 4.05067 10.22 3.744 10.22 3.49067C10.2067 2.89733 10.2133 2.48733 10.24 2.26067C10.2733 2.094 10.35 1.92733 10.47 1.76067C10.59 1.60067 10.7233 1.46067 10.87 1.34067C11.01 1.22067 11.14 1.13067 11.26 1.07067C11.3867 1.004 11.4667 0.984 11.5 1.01067C11.54 1.03733 11.5667 1.19067 11.58 1.47067C11.6 1.75067 11.6167 2.114 11.63 2.56067C11.6367 3.00733 11.6367 3.50733 11.63 4.06067C11.63 4.614 11.62 5.184 11.6 5.77067C11.5867 6.35067 11.5733 6.92067 11.56 7.48067C11.54 8.034 11.5167 8.52733 11.49 8.96067C11.4633 9.394 11.4367 9.744 11.41 10.0107C11.3833 10.2707 11.3533 10.4073 11.32 10.4207ZM13.79 10.4207C13.7233 10.4407 13.65 10.4173 13.57 10.3507C13.4833 10.284 13.4033 10.204 13.33 10.1107C13.25 10.0173 13.1833 9.914 13.13 9.80067C13.0767 9.694 13.04 9.604 13.02 9.53067C12.9533 8.73067 12.9 8.014 12.86 7.38067C12.82 6.74733 12.7867 6.184 12.76 5.69067C12.7333 5.19733 12.7133 4.77067 12.7 4.41067C12.6867 4.05067 12.68 3.744 12.68 3.49067C12.6667 2.89733 12.6767 2.48733 12.71 2.26067C12.7367 2.094 12.81 1.92733 12.93 1.76067C13.0567 1.60067 13.19 1.46067 13.33 1.34067C13.47 1.22067 13.6 1.13067 13.72 1.07067C13.8467 1.004 13.9267 0.984 13.96 1.01067C14 1.03733 14.03 1.19067 14.05 1.47067C14.0633 1.75067 14.0767 2.114 14.09 2.56067C14.0967 3.00733 14.0967 3.50733 14.09 4.06067C14.09 4.614 14.0833 5.184 14.07 5.77067C14.0567 6.35067 14.04 6.92067 14.02 7.48067C14 8.034 13.9767 8.52733 13.95 8.96067C13.9233 9.394 13.8967 9.744 13.87 10.0107C13.8433 10.2707 13.8167 10.4073 13.79 10.4207ZM18.24 2.84067C18.2667 2.86067 18.29 2.98067 18.31 3.20067C18.33 3.42067 18.3467 3.704 18.36 4.05067C18.3733 4.404 18.38 4.804 18.38 5.25067C18.38 5.69733 18.38 6.15733 18.38 6.63067C18.38 7.104 18.3767 7.57067 18.37 8.03067C18.37 8.49067 18.3633 8.91067 18.35 9.29067C18.33 9.67067 18.3133 9.99067 18.3 10.2507C18.2867 10.5173 18.2733 10.6873 18.26 10.7607C18.24 10.814 18.1867 10.8973 18.1 11.0107C18.0133 11.124 17.91 11.2407 17.79 11.3607C17.67 11.4807 17.55 11.5873 17.43 11.6807C17.3033 11.7807 17.2 11.844 17.12 11.8707C16.96 11.924 16.7767 11.914 16.57 11.8407C16.37 11.7673 16.1833 11.6707 16.01 11.5507C15.83 11.4373 15.6733 11.314 15.54 11.1807C15.4067 11.0473 15.3267 10.954 15.3 10.9007C15.2733 10.8407 15.25 10.7607 15.23 10.6607C15.2033 10.554 15.1867 10.4473 15.18 10.3407C15.1733 10.2407 15.1767 10.1507 15.19 10.0707C15.2033 9.99067 15.2333 9.95067 15.28 9.95067C15.3133 9.95067 15.41 9.994 15.57 10.0807C15.73 10.1607 15.9 10.244 16.08 10.3307C16.2667 10.4173 16.4367 10.4873 16.59 10.5407C16.7433 10.594 16.84 10.5907 16.88 10.5307C16.9133 10.4573 16.9467 10.2573 16.98 9.93067C17.02 9.61067 17.0567 9.21733 17.09 8.75067C16.7767 8.85733 16.49 8.92733 16.23 8.96067C15.97 8.994 15.7533 8.95067 15.58 8.83067C15.4933 8.77733 15.4067 8.68067 15.32 8.54067C15.2333 8.40733 15.1567 8.25067 15.09 8.07067C15.0233 7.89733 14.9667 7.70733 14.92 7.50067C14.8733 7.294 14.85 7.10067 14.85 6.92067C14.85 6.794 14.8667 6.61067 14.9 6.37067C14.9333 6.13733 14.9767 5.87733 15.03 5.59067C15.0833 5.31067 15.14 5.02067 15.2 4.72067C15.26 4.42067 15.32 4.14733 15.38 3.90067C15.44 3.654 15.49 3.444 15.53 3.27067C15.57 3.104 15.5933 3.01067 15.6 2.99067C15.62 2.964 15.6667 2.95067 15.74 2.95067C15.8133 2.944 15.89 2.94733 15.97 2.96067C16.0567 2.974 16.1367 3.00067 16.21 3.04067C16.2767 3.074 16.32 3.114 16.34 3.16067C16.3533 3.194 16.3567 3.30733 16.35 3.50067C16.3433 3.694 16.33 3.92067 16.31 4.18067C16.2833 4.44733 16.26 4.734 16.24 5.04067C16.22 5.34733 16.1967 5.634 16.17 5.90067C16.15 6.16733 16.13 6.39733 16.11 6.59067C16.09 6.784 16.08 6.89733 16.08 6.93067C16.08 7.07733 16.0967 7.21733 16.13 7.35067C16.1633 7.484 16.2033 7.59733 16.25 7.69067C16.3033 7.784 16.3567 7.86067 16.41 7.92067C16.4633 7.974 16.5133 7.99067 16.56 7.97067C16.7133 7.944 16.8533 7.90733 16.98 7.86067C17.0467 7.834 17.1067 7.80733 17.16 7.78067C17.1867 7.334 17.2133 6.87733 17.24 6.41067C17.2733 5.93733 17.2967 5.504 17.31 5.11067C17.33 4.724 17.3467 4.394 17.36 4.12067C17.3733 3.84733 17.38 3.674 17.38 3.60067C17.38 3.514 17.4167 3.42067 17.49 3.32067C17.5633 3.214 17.6467 3.12067 17.74 3.04067C17.8267 2.954 17.92 2.89067 18.02 2.85067C18.1133 2.81067 18.1867 2.80733 18.24 2.84067ZM22.13 10.9207C22.11 10.8807 22.1 10.7173 22.1 10.4307C22.1 10.1507 22.1 9.79733 22.1 9.37067C22.1067 8.93733 22.1167 8.454 22.13 7.92067C22.1433 7.38733 22.1567 6.84733 22.17 6.30067C22.1833 5.74733 22.2 5.20733 22.22 4.68067C22.24 4.16067 22.2567 3.694 22.27 3.28067C22.2833 2.874 22.2933 2.54067 22.3 2.28067C22.3133 2.02067 22.3233 1.88067 22.33 1.86067C22.3367 1.82067 22.3767 1.73067 22.45 1.59067C22.5233 1.444 22.61 1.29067 22.71 1.13067C22.8033 0.970667 22.9 0.827333 23 0.700666C23.1 0.580666 23.1867 0.524 23.26 0.530667C23.2867 0.544 23.3133 0.724 23.34 1.07067C23.36 1.424 23.38 1.874 23.4 2.42067C23.4267 2.96733 23.4467 3.57067 23.46 4.23067C23.4733 4.89067 23.4867 5.534 23.5 6.16067C23.5133 6.78733 23.5233 7.35067 23.53 7.85067C23.5433 8.35733 23.5533 8.73067 23.56 8.97067C23.8533 8.99733 24.1467 9.02067 24.44 9.04067C24.74 9.054 25.0067 9.074 25.24 9.10067C25.48 9.12067 25.6733 9.14067 25.82 9.16067C25.9733 9.18067 26.0533 9.194 26.06 9.20067C26.0867 9.24067 26.1267 9.324 26.18 9.45067C26.2267 9.584 26.2733 9.72733 26.32 9.88067C26.3667 10.0273 26.4033 10.164 26.43 10.2907C26.45 10.424 26.44 10.504 26.4 10.5307C25.3533 10.7173 24.5433 10.844 23.97 10.9107C23.3967 10.9773 22.9733 11.0107 22.7 11.0107C22.38 11.0107 22.19 10.9807 22.13 10.9207ZM29.36 3.02067C29.42 3.074 29.48 3.18067 29.54 3.34067C29.6 3.494 29.6533 3.68067 29.7 3.90067C29.7467 4.114 29.7867 4.35067 29.82 4.61067C29.86 4.864 29.8933 5.114 29.92 5.36067C29.9467 5.60733 29.9667 5.83733 29.98 6.05067C29.9933 6.264 30.0033 6.44067 30.01 6.58067C30.0233 6.74067 30.03 6.91067 30.03 7.09067C30.0367 7.27067 30.0367 7.43733 30.03 7.59067C30.03 7.75067 30.0233 7.89733 30.01 8.03067C29.9967 8.15733 29.9767 8.25067 29.95 8.31067C29.89 8.45067 29.7967 8.544 29.67 8.59067C29.5367 8.644 29.3867 8.68067 29.22 8.70067C29.14 8.70733 29 8.70733 28.8 8.70067C28.6067 8.70067 28.4 8.69067 28.18 8.67067C27.9533 8.65733 27.74 8.644 27.54 8.63067C27.34 8.61067 27.19 8.59067 27.09 8.57067C26.89 8.524 26.7467 8.464 26.66 8.39067C26.5733 8.324 26.4867 8.22067 26.4 8.08067C26.3733 8.02733 26.3533 7.88733 26.34 7.66067C26.32 7.44067 26.3067 7.174 26.3 6.86067C26.3 6.54067 26.3033 6.20067 26.31 5.84067C26.3167 5.474 26.3333 5.12733 26.36 4.80067C26.38 4.474 26.4067 4.18733 26.44 3.94067C26.4733 3.694 26.5167 3.53067 26.57 3.45067C26.6633 3.31733 26.82 3.19733 27.04 3.09067C27.2667 2.984 27.47 2.89733 27.65 2.83067C27.7433 2.804 27.8633 2.784 28.01 2.77067C28.1633 2.75733 28.3233 2.75733 28.49 2.77067C28.6567 2.784 28.82 2.81067 28.98 2.85067C29.1333 2.89067 29.26 2.94733 29.36 3.02067ZM28.59 7.26067C28.61 7.22733 28.63 7.114 28.65 6.92067C28.6767 6.734 28.6967 6.51067 28.71 6.25067C28.7233 5.984 28.7333 5.70067 28.74 5.40067C28.74 5.10067 28.74 4.824 28.74 4.57067C28.74 4.31067 28.7333 4.094 28.72 3.92067C28.7 3.74067 28.6767 3.63733 28.65 3.61067C28.6033 3.57067 28.5367 3.554 28.45 3.56067C28.3633 3.56733 28.2733 3.58067 28.18 3.60067C28.0933 3.62733 28.0133 3.654 27.94 3.68067C27.8667 3.714 27.8167 3.744 27.79 3.77067C27.67 3.87067 27.6033 4.03733 27.59 4.27067C27.59 4.33067 27.5833 4.51067 27.57 4.81067C27.5567 5.104 27.55 5.42067 27.55 5.76067C27.55 6.10733 27.5567 6.424 27.57 6.71067C27.5833 7.004 27.6133 7.184 27.66 7.25067C27.7067 7.31067 27.7733 7.35733 27.86 7.39067C27.9467 7.424 28.0367 7.44067 28.13 7.44067C28.23 7.44067 28.3233 7.424 28.41 7.39067C28.4967 7.35733 28.5567 7.314 28.59 7.26067ZM34.58 1.45067C34.6067 1.67067 34.6167 2.10733 34.61 2.76067C34.61 3.04733 34.6033 3.39067 34.59 3.79067C34.5767 4.19067 34.5567 4.67067 34.53 5.23067C34.4967 5.79067 34.46 6.43733 34.42 7.17067C34.38 7.904 34.33 8.73733 34.27 9.67067C34.25 9.75733 34.21 9.85733 34.15 9.97067C34.09 10.0773 34.0233 10.1773 33.95 10.2707C33.8767 10.3573 33.8 10.4307 33.72 10.4907C33.64 10.5507 33.5667 10.5707 33.5 10.5507C33.48 10.544 33.46 10.474 33.44 10.3407C33.4133 10.2007 33.3933 10.0073 33.38 9.76067C32.9667 9.94733 32.58 10.0707 32.22 10.1307C31.8533 10.1973 31.5567 10.1573 31.33 10.0107C31.2367 9.95733 31.1467 9.85733 31.06 9.71067C30.9733 9.57067 30.8933 9.404 30.82 9.21067C30.7467 9.024 30.6867 8.824 30.64 8.61067C30.5933 8.39733 30.57 8.194 30.57 8.00067C30.57 7.86067 30.58 7.67733 30.6 7.45067C30.62 7.224 30.6433 6.97733 30.67 6.71067C30.6967 6.43733 30.73 6.164 30.77 5.89067C30.8033 5.61067 30.84 5.35067 30.88 5.11067C30.9133 4.87733 30.9433 4.67733 30.97 4.51067C30.9967 4.35067 31.02 4.25067 31.04 4.21067C31.06 4.104 31.0933 4.014 31.14 3.94067C31.1933 3.86733 31.2367 3.81067 31.27 3.77067C31.3633 3.69733 31.5 3.644 31.68 3.61067C31.8533 3.57067 32.04 3.54733 32.24 3.54067C32.4333 3.534 32.6167 3.53733 32.79 3.55067C32.9633 3.564 33.09 3.584 33.17 3.61067H33.2C33.18 2.47733 33.18 1.60733 33.2 1.00067C33.22 0.387333 33.2567 0.0573334 33.31 0.0106667C33.3433 -0.0159999 33.4267 0.00733308 33.56 0.0806664C33.6867 0.154 33.82 0.260667 33.96 0.400667C34.1 0.534 34.23 0.694 34.35 0.880667C34.4767 1.06733 34.5533 1.25733 34.58 1.45067ZM32.5 9.11067C32.6267 9.07733 32.7433 9.04067 32.85 9.00067C32.9567 8.96067 33.0467 8.924 33.12 8.89067C33.2 8.85067 33.2667 8.804 33.32 8.75067C33.3133 8.51067 33.3067 8.244 33.3 7.95067C33.2867 7.65733 33.2767 7.35067 33.27 7.03067C33.2567 6.71067 33.2467 6.384 33.24 6.05067C33.2333 5.71733 33.2233 5.39733 33.21 5.09067C33.21 4.99067 33.1967 4.904 33.17 4.83067C33.1367 4.75733 33.0967 4.69733 33.05 4.65067C33.0233 4.63067 32.97 4.604 32.89 4.57067C32.8033 4.544 32.7067 4.51733 32.6 4.49067C32.5 4.47067 32.4 4.46067 32.3 4.46067C32.2067 4.46067 32.1433 4.47733 32.11 4.51067C32.09 4.524 32.0733 4.614 32.06 4.78067C32.0467 4.94733 32.0333 5.15733 32.02 5.41067C32.0067 5.65733 31.9933 5.92733 31.98 6.22067C31.9667 6.514 31.9533 6.78733 31.94 7.04067C31.9333 7.294 31.9233 7.514 31.91 7.70067C31.9033 7.88067 31.9 7.98067 31.9 8.00067C31.9 8.154 31.92 8.30067 31.96 8.44067C32 8.574 32.0533 8.694 32.12 8.80067C32.1867 8.90733 32.2533 8.98733 32.32 9.04067C32.3933 9.10067 32.4533 9.124 32.5 9.11067ZM38.81 10.9407C38.79 10.994 38.7333 11.0807 38.64 11.2007C38.5467 11.3207 38.4367 11.444 38.31 11.5707C38.1833 11.6973 38.0567 11.8107 37.93 11.9107C37.8033 12.0107 37.7 12.074 37.62 12.1007C37.4333 12.154 37.2367 12.144 37.03 12.0707C36.83 11.9907 36.6367 11.8873 36.45 11.7607C36.2633 11.634 36.1 11.504 35.96 11.3707C35.8267 11.2373 35.74 11.1373 35.7 11.0707C35.6733 11.0107 35.65 10.924 35.63 10.8107C35.6033 10.704 35.5867 10.5973 35.58 10.4907C35.5667 10.3773 35.57 10.284 35.59 10.2107C35.6033 10.1307 35.63 10.0907 35.67 10.0907C35.7167 10.0907 35.8267 10.134 36 10.2207C36.1667 10.3073 36.3433 10.3973 36.53 10.4907C36.7167 10.5773 36.8933 10.6507 37.06 10.7107C37.22 10.764 37.32 10.754 37.36 10.6807C37.3933 10.614 37.4267 10.434 37.46 10.1407C37.4933 9.84067 37.53 9.47733 37.57 9.05067C37.5567 9.05067 37.5433 9.054 37.53 9.06067C37.5167 9.06067 37.5 9.06067 37.48 9.06067C37.4 9.094 37.2867 9.11067 37.14 9.11067C36.9933 9.11067 36.84 9.10067 36.68 9.08067C36.52 9.06067 36.3633 9.02733 36.21 8.98067C36.0633 8.92733 35.9433 8.86067 35.85 8.78067C35.8167 8.74067 35.78 8.684 35.74 8.61067C35.6933 8.53067 35.6633 8.42733 35.65 8.30067C35.6233 8.24733 35.5767 8.09067 35.51 7.83067C35.4433 7.57067 35.38 7.274 35.32 6.94067C35.2533 6.60733 35.1967 6.27067 35.15 5.93067C35.0967 5.59733 35.08 5.33067 35.1 5.13067C35.1067 4.93067 35.1433 4.72067 35.21 4.50067C35.2767 4.28733 35.3533 4.08733 35.44 3.90067C35.52 3.70733 35.6133 3.54067 35.72 3.40067C35.82 3.26067 35.92 3.16067 36.02 3.10067C36.2333 2.994 36.5067 2.974 36.84 3.04067C37.1667 3.10067 37.5167 3.22067 37.89 3.40067C37.8967 3.314 37.9367 3.214 38.01 3.10067C38.0833 2.994 38.17 2.89733 38.27 2.81067C38.3633 2.724 38.46 2.66067 38.56 2.62067C38.66 2.58067 38.7367 2.57733 38.79 2.61067C38.8167 2.63067 38.84 2.75733 38.86 2.99067C38.88 3.224 38.8967 3.524 38.91 3.89067C38.9233 4.25733 38.9333 4.67733 38.94 5.15067C38.94 5.61733 38.94 6.10067 38.94 6.60067C38.9333 7.094 38.9267 7.584 38.92 8.07067C38.9133 8.55067 38.9033 8.99067 38.89 9.39067C38.8767 9.79067 38.8633 10.1273 38.85 10.4007C38.8367 10.674 38.8233 10.854 38.81 10.9407ZM37.85 4.44067C37.7967 4.40733 37.7333 4.37067 37.66 4.33067C37.5933 4.29733 37.52 4.26067 37.44 4.22067C37.3533 4.18733 37.26 4.15733 37.16 4.13067C37.12 4.11067 37.06 4.12733 36.98 4.18067C36.9 4.24067 36.8233 4.32067 36.75 4.42067C36.67 4.52067 36.6033 4.64067 36.55 4.78067C36.4967 4.92067 36.47 5.06733 36.47 5.22067C36.47 5.24067 36.4733 5.32733 36.48 5.48067C36.4867 5.634 36.5 5.82067 36.52 6.04067C36.54 6.26067 36.56 6.49733 36.58 6.75067C36.5933 7.01067 36.6133 7.24733 36.64 7.46067C36.66 7.68067 36.68 7.86733 36.7 8.02067C36.72 8.16733 36.7333 8.24733 36.74 8.26067C36.78 8.294 36.8333 8.31067 36.9 8.31067C36.9667 8.31067 37.0333 8.304 37.1 8.29067C37.1733 8.27067 37.2367 8.24733 37.29 8.22067C37.3433 8.194 37.3833 8.17067 37.41 8.15067C37.53 8.07067 37.6033 7.91067 37.63 7.67067C37.65 7.65067 37.66 7.60067 37.66 7.52067C37.6867 6.92067 37.7133 6.37733 37.74 5.89067C37.7667 5.39733 37.8033 4.914 37.85 4.44067ZM40.79 6.55067C40.9367 6.49733 41.1033 6.434 41.29 6.36067C41.4767 6.294 41.6567 6.23067 41.83 6.17067C42.0033 6.11067 42.1567 6.06067 42.29 6.02067C42.43 5.974 42.53 5.93733 42.59 5.91067C42.5833 5.81067 42.5733 5.694 42.56 5.56067C42.5467 5.42733 42.53 5.29733 42.51 5.17067C42.49 5.05067 42.4667 4.944 42.44 4.85067C42.4133 4.764 42.3867 4.71067 42.36 4.69067C42.2867 4.664 42.1667 4.63733 42 4.61067C41.8267 4.59067 41.6533 4.59733 41.48 4.63067C41.3 4.67067 41.1367 4.74067 40.99 4.84067C40.8433 4.94067 40.7633 5.10067 40.75 5.32067C40.73 5.46733 40.7233 5.65067 40.73 5.87067C40.7433 6.084 40.7633 6.31067 40.79 6.55067ZM43.75 6.77067C43.7433 6.784 43.6367 6.82067 43.43 6.88067C43.2167 6.934 42.9633 6.99067 42.67 7.05067C42.3833 7.11067 42.0733 7.17067 41.74 7.23067C41.4133 7.284 41.1333 7.33067 40.9 7.37067C40.9467 7.73733 41 8.064 41.06 8.35067C41.1267 8.63733 41.1833 8.81733 41.23 8.89067C41.27 8.95067 41.3267 9.00733 41.4 9.06067C41.4667 9.10733 41.5467 9.15067 41.64 9.19067C41.74 9.23733 41.8567 9.26733 41.99 9.28067C42.09 9.30733 42.1867 9.27067 42.28 9.17067C42.3533 9.084 42.42 8.92733 42.48 8.70067C42.5333 8.46733 42.56 8.10733 42.56 7.62067C42.8467 7.574 43.07 7.544 43.23 7.53067C43.39 7.524 43.5067 7.524 43.58 7.53067C43.6667 7.544 43.72 7.55733 43.74 7.57067C43.7467 7.604 43.7467 7.674 43.74 7.78067C43.7333 7.88733 43.7133 8.02067 43.68 8.18067C43.6467 8.34067 43.61 8.514 43.57 8.70067C43.53 8.88733 43.4833 9.06733 43.43 9.24067C43.37 9.40733 43.31 9.55733 43.25 9.69067C43.1833 9.81733 43.1133 9.91067 43.04 9.97067C42.8267 10.1307 42.5533 10.2107 42.22 10.2107C41.8933 10.204 41.57 10.1573 41.25 10.0707C40.93 9.984 40.6433 9.87733 40.39 9.75067C40.1367 9.63067 39.9767 9.53067 39.91 9.45067C39.8633 9.39733 39.8233 9.25733 39.79 9.03067C39.75 8.81067 39.72 8.54067 39.7 8.22067C39.68 7.90067 39.6633 7.54733 39.65 7.16067C39.6433 6.78067 39.65 6.40733 39.67 6.04067C39.6967 5.68067 39.7333 5.344 39.78 5.03067C39.8333 4.724 39.9033 4.474 39.99 4.28067C40.13 4.00733 40.3533 3.784 40.66 3.61067C40.9733 3.43733 41.3033 3.31733 41.65 3.25067C41.9967 3.19067 42.3267 3.184 42.64 3.23067C42.9533 3.27067 43.1867 3.37067 43.34 3.53067C43.4333 3.61733 43.5167 3.79733 43.59 4.07067C43.6633 4.33733 43.71 4.66067 43.73 5.04067C43.73 5.08067 43.7333 5.18733 43.74 5.36067C43.7467 5.534 43.7533 5.71733 43.76 5.91067C43.7667 6.11067 43.77 6.29733 43.77 6.47067C43.77 6.644 43.7633 6.744 43.75 6.77067ZM47.61 3.05067C47.6833 3.09733 47.7533 3.18733 47.82 3.32067C47.8867 3.44733 47.95 3.59733 48.01 3.77067C48.07 3.93733 48.12 4.11733 48.16 4.31067C48.2067 4.49733 48.2433 4.674 48.27 4.84067C48.3033 5.00733 48.3233 5.14733 48.33 5.26067C48.3433 5.374 48.3433 5.444 48.33 5.47067C48.3167 5.504 48.2633 5.54067 48.17 5.58067C48.09 5.614 47.9667 5.654 47.8 5.70067C47.64 5.74733 47.4133 5.79733 47.12 5.85067C47.1 5.35067 47.0633 4.97067 47.01 4.71067C46.9567 4.45067 46.8967 4.26733 46.83 4.16067C46.7567 4.02733 46.68 3.96067 46.6 3.96067C46.52 4.00067 46.4467 4.044 46.38 4.09067C46.3133 4.144 46.26 4.19733 46.22 4.25067C46.16 4.31733 46.1067 4.38733 46.06 4.46067C46.0467 4.48733 46.03 4.55067 46.01 4.65067C45.99 4.75067 45.9733 4.90067 45.96 5.10067C45.96 5.16733 45.9567 5.30067 45.95 5.50067C45.9433 5.70067 45.94 5.93067 45.94 6.19067C45.9333 6.45733 45.9267 6.73733 45.92 7.03067C45.9133 7.31733 45.91 7.58733 45.91 7.84067C45.9033 8.094 45.8967 8.30733 45.89 8.48067C45.89 8.654 45.8833 8.754 45.87 8.78067C45.8567 8.82733 45.8133 8.89067 45.74 8.97067C45.6667 9.05067 45.5833 9.124 45.49 9.19067C45.3967 9.264 45.31 9.32067 45.23 9.36067C45.15 9.40067 45.0967 9.39733 45.07 9.35067C45.0433 9.324 45.0133 9.20733 44.98 9.00067C44.9533 8.78733 44.9267 8.52733 44.9 8.22067C44.8667 7.92067 44.83 7.58733 44.79 7.22067C44.7567 6.854 44.7267 6.504 44.7 6.17067C44.6733 5.83067 44.65 5.52733 44.63 5.26067C44.61 4.98733 44.5967 4.794 44.59 4.68067C44.5767 4.50733 44.5667 4.314 44.56 4.10067C44.5533 3.894 44.5467 3.69733 44.54 3.51067C44.5333 3.324 44.5333 3.15733 44.54 3.01067C44.5467 2.87067 44.5633 2.78733 44.59 2.76067C44.61 2.734 44.67 2.72733 44.77 2.74067C44.8767 2.754 44.99 2.78067 45.11 2.82067C45.2367 2.86067 45.3533 2.914 45.46 2.98067C45.5733 3.04733 45.6467 3.10733 45.68 3.16067C45.7067 3.20733 45.7333 3.274 45.76 3.36067C45.9333 3.274 46.1 3.19067 46.26 3.11067C46.42 3.03067 46.5767 2.974 46.73 2.94067C46.8767 2.90067 47.0233 2.89067 47.17 2.91067C47.3167 2.924 47.4633 2.97067 47.61 3.05067Z" fill="black"/>
</svg>
