<svg width="76.538" height="14" viewBox="0 0 76.538 14" xmlns="http://www.w3.org/2000/svg"><path transform="translate(0 10.5) scale(.014 -.014)" d="m261 131q0-88-33.5-150t-91.5-94.5-133-35.5v94q70 4 115.5 49.5t45.5 139.5v589h97z"/><path transform="translate(5.11 10.5) scale(.014 -.014)" d="m45 211q0 62 29.5 112t81.5 79 118 29q68 0 119-29t79-79 28-112-28-112.5-79.5-79.5-119.5-29q-66 0-117.5 27.5t-81 77-29.5 116.5zm93-1q0-40 18-72.5t48.5-51.5 67.5-19q39 0 69.5 19t47.5 51.5 17 72.5-17 72.5-47.5 52-69.5 19.5q-38 0-68.5-20t-48-52.5-17.5-71.5z"/><path transform="translate(12.74 10.5) scale(.014 -.014)" d="m197-8q-44 0-85.5 15.5t-68.5 46.5l39 54q26-25 53.5-37.5t54.5-12.5q20 0 37 5t27.5 16.5 10.5 31.5q0 22-14.5 35t-37 21-47.5 15q-51 17-78 47t-27 73q0 33 16.5 61.5t49 46.5 80.5 18q43 0 77-10.5t64-34.5l-37-58q-18 19-43 28t-45 10q-17 1-32.5-5t-25.5-17-10-26q0-21 14-34t36.5-20.5 44.5-15.5q31-9 55-24t38.5-37 14.5-55q0-37-17.5-68.5t-53-50-90.5-18.5z"/><path transform="translate(18.438 10.5) scale(.014 -.014)" d="m273-10q-71 0-122 28.5t-78.5 78-27.5 113.5q0 61 31 111t83 80 116 30q82 0 136-48t73-132l-341-120-22 55 280 102-20-13q-12 33-40 57.5t-73 24.5q-38 0-68-18.5t-47-50.5-17-73q0-43 18-75.5t49.5-51 71.5-18.5q27 0 52.5 10t47.5 26l43-69q-31-21-69.5-34t-75.5-13z"/><path transform="translate(25.718 10.5) scale(.014 -.014)" d="m115 0v331h-71v83h71v175q0 90 40.5 138t119.5 48q21 0 46.5-6t44.5-20l-39-67q-9 9-20 12.5t-22 3.5q-37 0-57-25t-20-85v-174h131v-83h-131v-331z"/><path transform="translate(31.024 10.5) scale(.014 -.014)" d="m81 414h93v-414h-93zm-7 150q0 22 17.5 37t38.5 15 37.5-15 16.5-37q0-23-16.5-37.5t-37.5-14.5-38.5 15-17.5 37z"/><path transform="translate(34.58 10.5) scale(.014 -.014)" d="m164 414 8-101-4 16q20 46 65 73.5t104 27.5 96.5-34.5 38.5-89.5v-306h-94v273q-1 34-19.5 55.5t-57.5 21.5q-36 0-65-20t-45.5-55-16.5-81v-194h-93v414z"/><path transform="translate(46.746 10.5) scale(.014 -.014)" d="m478 594q-37 19-81 33t-86 14q-58 0-92.5-27t-34.5-72q0-34 22-57.5t58-40.5 75-32q34-13 67-29t59.5-40 42-59 15.5-87q0-57-28.5-104t-81.5-74-126-27q-48 0-91.5 11t-80.5 28.5-66 36.5l43 76q24-17 55-32.5t65-25 66-9.5q34 0 67.5 12.5t55.5 38.5 22 69q0 37-19.5 61.5t-51.5 42-68 31.5q-34 13-69 28.5t-65 38-48 55.5-18 80q0 57 27.5 99.5t75.5 67 110 26.5q70 0 123.5-17t94.5-42z"/><path transform="translate(54.894 10.5) scale(.014 -.014)" d="m253-10q-58 0-105.5 25t-75 73.5-27.5 118.5q0 69 29 119.5t77.5 77.5 106.5 27 98-26.5 61-62.5l-6-16 9 88h86v-414h-93v108l10-24q-4-10-17.5-25.5t-36-31.5-51.5-26.5-65-10.5zm25 77q35 0 63 13t46.5 36.5 25.5 56.5v81q-8 30-28 52.5t-48 35-62 12.5q-37 0-68-18t-49.5-50-18.5-75q0-40 19-73t51-52 69-19z"/><path transform="translate(63.098 10.5) scale(.014 -.014)" d="m164 414 8-101-4 16q20 46 65 73.5t104 27.5 96.5-34.5 38.5-89.5v-306h-94v273q-1 34-19.5 55.5t-57.5 21.5q-36 0-65-20t-45.5-55-16.5-81v-194h-93v414z"/><path transform="translate(70.84 10.5) scale(.014 -.014)" d="m197-8q-44 0-85.5 15.5t-68.5 46.5l39 54q26-25 53.5-37.5t54.5-12.5q20 0 37 5t27.5 16.5 10.5 31.5q0 22-14.5 35t-37 21-47.5 15q-51 17-78 47t-27 73q0 33 16.5 61.5t49 46.5 80.5 18q43 0 77-10.5t64-34.5l-37-58q-18 19-43 28t-45 10q-17 1-32.5-5t-25.5-17-10-26q0-21 14-34t36.5-20.5 44.5-15.5q31-9 55-24t38.5-37 14.5-55q0-37-17.5-68.5t-53-50-90.5-18.5z"/></svg>