<svg width="66" height="13" viewBox="0 0 66 13" fill="none" xmlns="http://www.w3.org/2000/svg">
<path d="M2.56 11.63C2.82 11.35 3.02333 11.0133 3.17 10.62C3.32333 10.22 3.4 9.76 3.4 9.24V0.7H0.5V1.25H2.82V9.2C2.82 9.62667 2.76333 10.0067 2.65 10.34C2.53 10.6733 2.37 10.95 2.17 11.17C1.96333 11.4167 1.71667 11.6033 1.43 11.73C1.14333 11.85 0.833333 11.92 0.5 11.94V12.5C0.9 12.4933 1.27667 12.4133 1.63 12.26C1.99 12.1133 2.3 11.9033 2.56 11.63ZM9.11 9.8C9.35 9.54667 9.54333 9.25667 9.69 8.93C9.83667 8.60333 9.91 8.25 9.91 7.87C9.91 7.49667 9.83667 7.14 9.69 6.8C9.54333 6.46667 9.35 6.17333 9.11 5.92C8.85667 5.68 8.56 5.48667 8.22 5.34C7.88 5.19333 7.52 5.12 7.14 5.12C6.75333 5.12 6.39333 5.19333 6.06 5.34C5.72 5.48667 5.43 5.68 5.19 5.92C4.93667 6.17333 4.74 6.46667 4.6 6.8C4.46 7.14 4.39 7.49667 4.39 7.87C4.39 8.25 4.46 8.60667 4.6 8.94C4.74 9.27333 4.93667 9.56 5.19 9.8C5.43 10.0533 5.71667 10.25 6.05 10.39C6.38333 10.53 6.74667 10.6 7.14 10.6C7.52 10.6 7.88 10.53 8.22 10.39C8.56 10.25 8.85667 10.0533 9.11 9.8ZM5.6 9.39C5.4 9.20333 5.24333 8.98 5.13 8.72C5.02333 8.46 4.97 8.17667 4.97 7.87C4.97 7.57 5.02333 7.29 5.13 7.03C5.24333 6.77 5.4 6.53667 5.6 6.33C5.79333 6.13 6.02 5.97667 6.28 5.87C6.54 5.75667 6.82 5.7 7.12 5.7C7.42 5.7 7.70333 5.75667 7.97 5.87C8.23667 5.97667 8.46667 6.13 8.66 6.33C8.86667 6.53667 9.02667 6.77 9.14 7.03C9.25333 7.29 9.31 7.57 9.31 7.87C9.31 8.17667 9.25333 8.46 9.14 8.72C9.02667 8.98 8.86667 9.20333 8.66 9.39C8.46667 9.59667 8.23667 9.75667 7.97 9.87C7.70333 9.98333 7.42 10.04 7.12 10.04C6.82 10.04 6.54 9.98333 6.28 9.87C6.02 9.75667 5.79333 9.59667 5.6 9.39ZM14.09 10.05C14.2233 9.90333 14.32 9.73667 14.38 9.55C14.44 9.37 14.47 9.19667 14.47 9.03C14.47 8.73 14.4067 8.49333 14.28 8.32C14.1533 8.14 13.9967 7.99333 13.81 7.88C13.6167 7.76667 13.41 7.67667 13.19 7.61C12.97 7.53667 12.7633 7.46 12.57 7.38C12.3833 7.30667 12.22 7.21 12.08 7.09C11.9467 6.97667 11.88 6.81667 11.88 6.61C11.88 6.45 11.91 6.31333 11.97 6.2C12.0233 6.08667 12.0933 5.99333 12.18 5.92C12.2733 5.85333 12.3833 5.80333 12.51 5.77C12.63 5.74333 12.7533 5.73 12.88 5.73C13.0333 5.73 13.18 5.74667 13.32 5.78C13.46 5.82 13.5967 5.87667 13.73 5.95V6.68H14.26V5.66C14.1667 5.57333 14.0633 5.5 13.95 5.44C13.8433 5.38 13.7267 5.32667 13.6 5.28C13.4533 5.23333 13.3233 5.20333 13.21 5.19C13.0967 5.17667 12.98 5.17 12.86 5.17C12.6933 5.17 12.5133 5.2 12.32 5.26C12.12 5.32 11.9467 5.41 11.8 5.53C11.6467 5.65 11.5267 5.8 11.44 5.98C11.3533 6.15333 11.31 6.36667 11.31 6.62C11.31 6.92667 11.3733 7.16667 11.5 7.34C11.6267 7.51333 11.7867 7.64667 11.98 7.74C12.1733 7.83333 12.3833 7.91333 12.61 7.98C12.8367 8.04667 13.0433 8.12 13.23 8.2C13.4233 8.28 13.58 8.38333 13.7 8.51C13.82 8.64333 13.88 8.83 13.88 9.07C13.88 9.23667 13.85 9.38 13.79 9.5C13.73 9.61333 13.65 9.71333 13.55 9.8C13.4367 9.88667 13.3133 9.95 13.18 9.99C13.0533 10.03 12.92 10.05 12.78 10.05C12.5733 10.05 12.3767 10.0333 12.19 10C12.0033 9.96667 11.82 9.89667 11.64 9.79V9.07H11.13V10.09C11.3433 10.2967 11.5933 10.4367 11.88 10.51C12.16 10.5767 12.45 10.61 12.75 10.61C13.07 10.61 13.3367 10.56 13.55 10.46C13.77 10.3533 13.95 10.2167 14.09 10.05ZM18.14 5.7C18.5067 5.7 18.8367 5.8 19.13 6C19.4233 6.2 19.6533 6.46 19.82 6.78C19.1867 7.02667 18.5533 7.27667 17.92 7.53C17.2933 7.77667 16.6633 8.02333 16.03 8.27C15.9633 7.95667 15.9667 7.64667 16.04 7.34C16.1133 7.04 16.2433 6.76667 16.43 6.52C16.63 6.27333 16.8767 6.07333 17.17 5.92C17.4633 5.77333 17.7867 5.7 18.14 5.7ZM19.97 9.87L19.62 9.45C19.4267 9.63667 19.2033 9.78 18.95 9.88C18.6967 9.98667 18.4267 10.04 18.14 10.04C17.7 10.04 17.3067 9.92667 16.96 9.7C16.62 9.48 16.3633 9.18667 16.19 8.82C16.9233 8.52 17.65 8.23 18.37 7.95C19.0967 7.67 19.8233 7.38667 20.55 7.1C20.4567 6.82 20.3333 6.56 20.18 6.32C20.0333 6.08 19.8633 5.87667 19.67 5.71C19.4633 5.52333 19.23 5.38333 18.97 5.29C18.7033 5.19 18.4267 5.14 18.14 5.14C17.76 5.14 17.4033 5.21333 17.07 5.36C16.7367 5.5 16.4433 5.69333 16.19 5.94C15.9433 6.18 15.75 6.46667 15.61 6.8C15.47 7.14 15.4 7.49667 15.4 7.87C15.4 8.25 15.47 8.60333 15.61 8.93C15.75 9.25667 15.9433 9.54667 16.19 9.8C16.4433 10.0533 16.7367 10.25 17.07 10.39C17.4033 10.53 17.76 10.6 18.14 10.6C18.5067 10.6 18.8433 10.5333 19.15 10.4C19.4567 10.2733 19.73 10.0967 19.97 9.87ZM21.57 10.5H24.27V9.95H23V5.81H24.75V5.25H23V3.23C23 2.81 23.06 2.43667 23.18 2.11C23.3 1.78333 23.4667 1.50333 23.68 1.27C23.8867 1.03667 24.1333 0.86 24.42 0.74C24.7067 0.62 25.0067 0.556667 25.32 0.55V0C24.9133 0.02 24.5333 0.0999998 24.18 0.24C23.8333 0.386666 23.5267 0.596667 23.26 0.87C23 1.13667 22.7967 1.47333 22.65 1.88C22.4967 2.28 22.42 2.73667 22.42 3.25V5.25H21.57V5.81H22.42V9.95H21.57V10.5ZM25.81 10.5H28.51V9.95H27.46V5.25H25.81V5.8H26.89V9.95H25.81V10.5ZM27.65 3.39C27.65 3.25667 27.6033 3.14667 27.51 3.06C27.4167 2.97333 27.3067 2.93 27.18 2.93C27.0733 2.93 26.9733 2.97333 26.88 3.06C26.7867 3.14667 26.74 3.25667 26.74 3.39C26.74 3.51667 26.7867 3.62667 26.88 3.72C26.9733 3.80667 27.0733 3.85 27.18 3.85C27.3067 3.85 27.4167 3.80667 27.51 3.72C27.6033 3.62667 27.65 3.51667 27.65 3.39ZM29.49 10.5H32.2V9.95H31.16V7.63C31.16 7.35 31.2167 7.09333 31.33 6.86C31.45 6.62667 31.6133 6.42 31.82 6.24C32.0067 6.07333 32.23 5.94333 32.49 5.85C32.75 5.75667 33.0267 5.71 33.32 5.71C33.7067 5.73 34.0033 5.85 34.21 6.07C34.41 6.29 34.5167 6.55333 34.53 6.86V9.95H33.44V10.5H36.14V9.95H35.11V6.71C35.09 6.24333 34.93 5.86333 34.63 5.57C34.33 5.28333 33.9233 5.14 33.41 5.14C32.89 5.14 32.4233 5.27333 32.01 5.54C31.6033 5.81333 31.3067 6.17 31.12 6.61C31.1067 6.45 31.0967 6.30667 31.09 6.18C31.0833 6.05333 31.0733 5.91 31.06 5.75L31.05 5.25H29.58V5.8H30.59V9.95H29.49V10.5ZM46.34 9.87C46.6 9.63667 46.8067 9.35333 46.96 9.02C47.1133 8.68 47.19 8.30667 47.19 7.9C47.1833 7.25333 47.05 6.75333 46.79 6.4C46.5367 6.04667 46.2167 5.77 45.83 5.57C45.43 5.37667 45.0033 5.22333 44.55 5.11C44.0967 4.99667 43.69 4.85667 43.33 4.69C43.01 4.55 42.7467 4.36667 42.54 4.14C42.3333 3.90667 42.23 3.58 42.23 3.16C42.23 2.91333 42.27 2.67333 42.35 2.44C42.43 2.20667 42.55 1.99667 42.71 1.81C42.87 1.62333 43.0733 1.47333 43.32 1.36C43.5667 1.24667 43.8567 1.19 44.19 1.19C44.5767 1.19 44.9133 1.23333 45.2 1.32C45.48 1.41333 45.71 1.51333 45.89 1.62V2.86H46.45V1.34C46.27 1.2 46.08 1.08333 45.88 0.99C45.68 0.89 45.4867 0.816667 45.3 0.77C45.1067 0.723333 44.9167 0.69 44.73 0.67C44.5433 0.65 44.37 0.64 44.21 0.64C43.7433 0.64 43.3467 0.72 43.02 0.88C42.6933 1.03333 42.4267 1.23333 42.22 1.48C42.0133 1.73333 41.8667 2.01667 41.78 2.33C41.6933 2.64333 41.6533 2.95333 41.66 3.26C41.68 3.72 41.7833 4.08333 41.97 4.35C42.1567 4.62333 42.3933 4.84333 42.68 5.01C42.96 5.17 43.27 5.3 43.61 5.4C43.95 5.50667 44.2833 5.61 44.61 5.71C44.89 5.81667 45.1567 5.92333 45.41 6.03C45.6567 6.13667 45.8733 6.28333 46.06 6.47C46.2333 6.63 46.37 6.83 46.47 7.07C46.57 7.31 46.62 7.59333 46.62 7.92C46.62 8.24667 46.55 8.54333 46.41 8.81C46.27 9.07667 46.09 9.30333 45.87 9.49C45.6367 9.67 45.3767 9.81 45.09 9.91C44.8033 10.0167 44.5 10.07 44.18 10.07C43.66 10.07 43.2133 9.98333 42.84 9.81C42.4667 9.64333 42.1533 9.44333 41.9 9.21V7.95H41.34V9.45C41.44 9.57 41.58 9.7 41.76 9.84C41.9333 9.97333 42.1467 10.0967 42.4 10.21C42.6333 10.33 42.9067 10.4267 43.22 10.5C43.5333 10.5733 43.8733 10.61 44.24 10.61C44.64 10.61 45.02 10.5467 45.38 10.42C45.7467 10.2933 46.0667 10.11 46.34 9.87ZM48.02 10.5H50.72V9.95H49.63V0H48.06V0.55H49.05V9.95H48.02V10.5ZM56.7 10.5H58.25V9.95H57.21V5.25H56.75C56.73 5.45667 56.7167 5.66333 56.71 5.87C56.7033 6.08333 56.7 6.28667 56.7 6.48C56.54 6.12 56.2633 5.80667 55.87 5.54C55.4767 5.27333 55.0067 5.14 54.46 5.14C54.0667 5.14 53.7033 5.21333 53.37 5.36C53.0367 5.5 52.7467 5.69333 52.5 5.94C52.2467 6.18667 52.05 6.48 51.91 6.82C51.77 7.15333 51.7 7.50333 51.7 7.87C51.7 8.25 51.77 8.60333 51.91 8.93C52.05 9.25667 52.2467 9.54667 52.5 9.8C52.7467 10.0533 53.0367 10.25 53.37 10.39C53.7033 10.53 54.0667 10.6 54.46 10.6C54.74 10.6 55.0033 10.5633 55.25 10.49C55.4967 10.41 55.7167 10.3067 55.91 10.18C56.0967 10.06 56.26 9.92333 56.4 9.77C56.5333 9.61 56.6333 9.44667 56.7 9.28C56.7 9.4 56.7 9.51 56.7 9.61C56.7 9.71 56.7 9.81667 56.7 9.93V10.5ZM54.46 5.7C54.7533 5.7 55.0333 5.75333 55.3 5.86C55.56 5.96667 55.7933 6.11667 56 6.31C56.1933 6.51 56.35 6.74333 56.47 7.01C56.5833 7.27667 56.64 7.56333 56.64 7.87C56.64 8.17667 56.5833 8.46333 56.47 8.73C56.35 8.99667 56.1867 9.22667 55.98 9.42C55.7867 9.62 55.56 9.77333 55.3 9.88C55.0333 9.98667 54.7533 10.04 54.46 10.04C54.16 10.04 53.8833 9.98667 53.63 9.88C53.3767 9.78 53.1533 9.63667 52.96 9.45C52.7467 9.25667 52.5767 9.02333 52.45 8.75C52.33 8.47667 52.27 8.18333 52.27 7.87C52.27 7.57 52.3233 7.29 52.43 7.03C52.5367 6.77 52.69 6.54 52.89 6.34C53.0767 6.13333 53.3033 5.97667 53.57 5.87C53.8433 5.75667 54.14 5.7 54.46 5.7ZM59.23 9.95V10.5H60.78V9.93C60.78 9.81667 60.78 9.71 60.78 9.61C60.78 9.51 60.78 9.4 60.78 9.28C60.84 9.44667 60.94 9.61 61.08 9.77C61.22 9.92333 61.3867 10.06 61.58 10.18C61.7667 10.3067 61.9833 10.41 62.23 10.49C62.4767 10.5633 62.74 10.6 63.02 10.6C63.4067 10.6 63.7667 10.53 64.1 10.39C64.44 10.25 64.7333 10.0533 64.98 9.8C65.2267 9.54667 65.4233 9.25667 65.57 8.93C65.71 8.60333 65.78 8.25 65.78 7.87C65.78 7.49667 65.71 7.14 65.57 6.8C65.4233 6.46667 65.2267 6.18 64.98 5.94C64.7333 5.69333 64.44 5.5 64.1 5.36C63.7667 5.21333 63.4067 5.14 63.02 5.14C62.7533 5.14 62.4967 5.17667 62.25 5.25C62.01 5.32333 61.7933 5.42 61.6 5.54C61.4 5.67333 61.2367 5.81667 61.11 5.97C60.9767 6.12333 60.8833 6.28 60.83 6.44C60.8367 6.3 60.84 6.19 60.84 6.11C60.84 6.03 60.84 5.92 60.84 5.78V0H59.29V0.55H60.27V9.95H59.23ZM63.02 5.7C63.32 5.7 63.6 5.75333 63.86 5.86C64.1267 5.96667 64.3567 6.11333 64.55 6.3C64.7567 6.49333 64.9167 6.72667 65.03 7C65.1367 7.27333 65.19 7.56333 65.19 7.87C65.19 8.17667 65.1367 8.46 65.03 8.72C64.9167 8.98 64.7667 9.21 64.58 9.41C64.3733 9.60333 64.14 9.75667 63.88 9.87C63.62 9.98333 63.3333 10.04 63.02 10.04C62.7267 10.04 62.4467 9.98667 62.18 9.88C61.92 9.77333 61.6933 9.62 61.5 9.42C61.2933 9.22667 61.1333 8.99667 61.02 8.73C60.9 8.46333 60.84 8.17667 60.84 7.87C60.84 7.57 60.8933 7.29 61 7.03C61.1067 6.77 61.26 6.54 61.46 6.34C61.6533 6.13333 61.8833 5.97667 62.15 5.87C62.4167 5.75667 62.7067 5.7 63.02 5.7Z" fill="black"/>
</svg>
