<svg width="66.71" height="14" viewBox="0 0 66.71 14" xmlns="http://www.w3.org/2000/svg"><path transform="translate(0 10.5) scale(.014 -.014)" d="m182-81q28 30 44 72.5t16 98.5v610h-207v-39h166v-568q0-46-12.5-81.5t-34.5-59.5q-22-26-52.5-39.5t-66.5-15.5v-40q43 1 81 17t66 45z"/><path transform="translate(4.018 10.5) scale(.014 -.014)" d="m373 50q26 27 41.5 62t15.5 76q0 40-15.5 76t-41.5 63q-27 26-63.5 41.5t-77.5 15.5-77-15.5-62-41.5q-27-27-42-63t-15-76q0-41 15-76.5t42-61.5q26-27 61.5-42t77.5-15q41 0 77.5 15t63.5 42zm-251 29q-21 20-33 48t-12 61q0 32 12 60t33 50q21 21 49 33t60 12 60.5-12 49.5-33q22-22 34-50t12-60q0-33-12-61t-34-48q-21-22-49.5-34t-60.5-12-60 12-49 34z"/><path transform="translate(10.528 10.5) scale(.014 -.014)" d="m264 32q14 16 20.5 35.5t6.5 37.5q0 32-13.5 51t-33.5 31q-21 12-44.5 19.5t-44.5 16.5q-20 8-34.5 20.5t-14.5 34.5q0 17 6 29t15 20q10 7 23.5 10.5t26.5 3.5q17 0 32-4t29-12v-52h38v73q-10 9-22 15.5t-25 11.5q-16 5-28 6.5t-25 1.5q-18 0-39-6.5t-37-19.5-25.5-32-9.5-46q0-33 13.5-51.5t34.5-28.5 45-17 44-16q21-8 34-22t13-40q0-18-6.5-30.5t-17.5-21.5q-12-9-26-13.5t-29-4.5q-22 0-42 3.5t-39 15.5v51h-37v-73q23-22 53.5-29.5t62.5-7.5q34 0 57.5 11t38.5 29z"/><path transform="translate(15.036 10.5) scale(.014 -.014)" d="m231 343q39 0 70.5-21.5t49.5-55.5q-68-27-135.5-53.5t-135.5-53.5q-7 34 1 66.5t28 58.5q21 27 52.5 43t69.5 16zm131-298-25 30q-21-20-48-31t-58-11q-47 0-84 24t-55 63q78 32 155.5 62t155.5 61q-10 30-26 55.5t-37 43.5q-22 20-50 30.5t-59 10.5q-41 0-76.5-15.5t-62.5-41.5-42-62-15-76q0-41 15-76t42-62 62.5-42 76.5-15q39 0 72 14t59 38z"/><path transform="translate(21.21 10.5) scale(.014 -.014)" d="m228 0v39h-91v296h125v40h-125v144q0 45 13 80t36 60q22 25 52.5 38t64.5 14v39q-44-2-81.5-17.5t-65.5-44.5-44-72-16-98v-143h-61v-40h61v-296h-61v-39z"/><path transform="translate(25.452 10.5) scale(.014 -.014)" d="m228 0v39h-75v336h-118v-39h77v-297h-77v-39zm-62 508q0 14-10 23.5t-23 9.5q-12 0-22-9.5t-10-23.5 10-23.5 22-9.5q13 0 23 9.5t10 23.5z"/><path transform="translate(29.134 10.5) scale(.014 -.014)" d="m228 0v39h-74v166q0 30 12.5 55t34.5 44q20 18 48 28t59 10q42-2 63.5-25.5t23.5-56.5v-221h-78v-39h193v39h-74v232q-2 50-34 81t-87 31q-56 0-100-29t-64-76q-1 17-2 30.5t-2 30.5l-1 36h-105v-39h72v-297h-78v-39z"/><path transform="translate(40.964 10.5) scale(.014 -.014)" d="m407 45q29 25 45.5 61t15.5 80q0 69-27.5 107t-68.5 59q-44 21-92.5 33t-86.5 30q-34 15-56 39.5t-22 69.5q0 27 8.5 52t25.5 45 43.5 32 62.5 12q40 0 70.5-9.5t50.5-21.5v-88h39v108q-19 15-40 25.5t-42 15.5-41 7-37 2q-50 0-85-16.5t-56-43.5q-22-27-32-60.5t-8-66.5q2-49 22-78t51-47q30-17 66.5-28t71.5-22q29-11 56-22.5t47-31.5q18-17 28.5-43t10.5-61-14.5-63.5-38.5-48.5q-24-19-55.5-30t-65.5-11q-55 0-95 18t-68 43v90h-39v-107q10-13 29.5-27.5t45.5-26.5q26-13 59-21t73-8q43 0 81.5 13.5t67.5 39.5z"/><path transform="translate(47.964 10.5) scale(.014 -.014)" d="M228 0V39H150V750H38V711H109V39H35V0Z"/><path transform="translate(51.646 10.5) scale(.014 -.014)" d="m503 0v39h-74v336h-33q-2-22-3-44.5t-1-43.5q-17 39-59 67.5t-101 28.5q-42 0-77.5-15.5t-62.5-41.5q-27-27-42-63t-15-75q0-41 15-76t42-62 62.5-42 77.5-15q30 0 56.5 8t47.5 22q20 13 34.5 29.5t21.5 34.5q0-13 0-23.5t0-22.5v-41zm-271 343q32 0 60-11.5t50-32.5q21-21 33.5-49.5t12.5-61.5-12.5-61.5-34.5-49.5q-21-21-49-32.5t-60-11.5-59 11-48 31q-23 21-36 50t-13 63q0 32 11.5 60t32.5 49q20 22 49 34t63 12z"/><path transform="translate(59.178 10.5) scale(.014 -.014)" d="m35 0h111v41q0 12 0 22.5t0 23.5q6-18 21-34.5t36-29.5q20-14 46.5-22t56.5-8q41 0 77 15t63 42q26 27 41.5 62t15.5 76q0 40-15.5 76t-41.5 62q-27 26-63 41.5t-77 15.5q-29 0-55-8t-47-21q-21-14-35-30.5t-20-33.5q1 15 1 23.5t0 23.5v413h-111v-39h70v-672h-74zm271 343q32 0 60-11.5t49-31.5q22-21 34-50t12-62-12-61-32-49q-22-21-50-33t-61-12q-32 0-60 11.5t-49 32.5q-22 21-34.5 49.5t-12.5 61.5q0 32 11.5 60t32.5 49q21 22 49.5 34t62.5 12z"/></svg>