<svg width="23" height="11" viewBox="0 0 23 11" fill="none" xmlns="http://www.w3.org/2000/svg">
<path d="M8.44923 0.39C8.54256 0.51 8.58923 0.63 8.58923 0.75C8.5959 0.81 8.5959 0.88 8.58923 0.96C8.58923 1.04667 8.58256 1.11333 8.56923 1.16C8.54256 1.25333 8.47923 1.34667 8.37923 1.44C8.3459 1.46667 8.31256 1.49 8.27923 1.51C8.23923 1.53667 8.19256 1.56 8.13923 1.58C8.07923 1.6 8.02256 1.61 7.96923 1.61C7.9159 1.61667 7.8559 1.62333 7.78923 1.63C7.72256 1.64333 7.66256 1.65333 7.60923 1.66C7.54923 1.66 7.4859 1.66 7.41923 1.66H6.62923V1.9C6.6159 2.74 6.62923 3.58 6.66923 4.42C6.7159 5.26 6.70923 6.1 6.64923 6.94C6.62256 7.22 6.58256 7.50667 6.52923 7.8C6.46923 8.09333 6.37923 8.37 6.25923 8.63C6.13256 8.88333 5.9659 9.11667 5.75923 9.33C5.55256 9.55 5.28923 9.72 4.96923 9.84C4.6759 9.95333 4.34923 10.0333 3.98923 10.08C3.6359 10.1267 3.27923 10.13 2.91923 10.09C2.55923 10.05 2.2159 9.97 1.88923 9.85C1.56256 9.73 1.28923 9.56333 1.06923 9.35C0.949231 9.23667 0.835897 9.09667 0.729231 8.93C0.629231 8.77 0.559231 8.6 0.519231 8.42C0.485897 8.23333 0.495897 8.05667 0.549231 7.89C0.602564 7.71667 0.732564 7.57333 0.939231 7.46C1.11923 7.35333 1.27923 7.33 1.41923 7.39C1.5659 7.44333 1.70923 7.53 1.84923 7.65C1.98256 7.77667 2.12256 7.90333 2.26923 8.03C2.40923 8.16333 2.56923 8.24667 2.74923 8.28C3.12923 8.37333 3.44256 8.37667 3.68923 8.29C3.92923 8.20333 4.11923 8.06 4.25923 7.86C4.39923 7.66667 4.49923 7.43 4.55923 7.15C4.61923 6.87 4.6559 6.58667 4.66923 6.3C4.68256 6.00667 4.6859 5.72667 4.67923 5.46C4.67256 5.18667 4.67256 4.95667 4.67923 4.77C4.6859 4.27667 4.6859 3.79 4.67923 3.31C4.67256 2.83667 4.66923 2.35333 4.66923 1.86V1.8C4.6759 1.78 4.67923 1.75333 4.67923 1.72H4.63923C4.57923 1.70667 4.46256 1.7 4.28923 1.7C4.10923 1.69333 3.9159 1.69 3.70923 1.69C3.50923 1.69 3.3159 1.68667 3.12923 1.68C2.94923 1.68 2.83256 1.68 2.77923 1.68H2.57923V1.66C2.5059 1.65333 2.43256 1.64 2.35923 1.62C2.27923 1.6 2.20256 1.58 2.12923 1.56C1.9559 1.50667 1.82256 1.42 1.72923 1.3C1.68256 1.25333 1.6459 1.17667 1.61923 1.07C1.59923 0.97 1.58923 0.883333 1.58923 0.81C1.58923 0.763333 1.58923 0.71 1.58923 0.65C1.58923 0.596666 1.5959 0.546667 1.60923 0.5C1.62923 0.4 1.6959 0.306666 1.80923 0.22C1.88256 0.166666 1.97256 0.123333 2.07923 0.0899997C2.13923 0.0766663 2.20256 0.063333 2.26923 0.0499997C2.3359 0.043333 2.4059 0.0333333 2.47923 0.02C2.5459 0.0133333 2.61256 0.00999975 2.67923 0.00999975C2.7459 0.00999975 2.8159 0.00999975 2.88923 0.00999975H4.22923C4.28923 0.00999975 4.3559 0.00999975 4.42923 0.00999975C4.50256 0.00999975 4.5859 0.00666667 4.67923 0C5.0459 0 5.4059 0 5.75923 0C6.11256 0 6.4559 0.00333309 6.78923 0.00999975H6.87923C6.97923 0.00999975 7.07923 0.0133333 7.17923 0.02C7.27923 0.02 7.37923 0.02 7.47923 0.02C7.69256 0.0333333 7.89256 0.0766663 8.07923 0.15C8.23256 0.19 8.3559 0.27 8.44923 0.39ZM14.4892 6.62C14.4759 6.92667 14.4592 7.23667 14.4392 7.55C14.4192 7.86333 14.3692 8.16333 14.2892 8.45C14.2092 8.74333 14.0892 9.00667 13.9292 9.24C13.7626 9.47333 13.5292 9.66 13.2292 9.8C12.9692 9.92667 12.6892 10.0167 12.3892 10.07C12.0959 10.1233 11.7992 10.1433 11.4992 10.13C11.1992 10.1233 10.9092 10.08 10.6292 10C10.3492 9.92 10.0959 9.81 9.86923 9.67C9.64923 9.53 9.46923 9.34667 9.32923 9.12C9.18923 8.9 9.07923 8.66 8.99923 8.4C8.91923 8.13333 8.8659 7.86 8.83923 7.58C8.81256 7.3 8.79256 7.04 8.77923 6.8C8.7459 6.15333 8.7459 5.52 8.77923 4.9C8.77923 4.77333 8.77923 4.63333 8.77923 4.48C8.77923 4.32667 8.79256 4.17667 8.81923 4.03C8.83923 3.87667 8.87923 3.73667 8.93923 3.61C8.99256 3.49 9.0859 3.39667 9.21923 3.33C9.49923 3.17667 9.7559 3.16667 9.98923 3.3C10.2292 3.43333 10.3726 3.70333 10.4192 4.11C10.4459 4.32333 10.4592 4.56333 10.4592 4.83C10.4526 5.09 10.4592 5.32667 10.4792 5.54C10.4859 5.86 10.4926 6.20333 10.4992 6.57C10.5126 6.93667 10.5692 7.26667 10.6692 7.56C10.7626 7.84667 10.9259 8.06333 11.1592 8.21C11.3859 8.35 11.7259 8.35667 12.1792 8.23C12.3992 8.16333 12.5426 8 12.6092 7.74C12.6826 7.48 12.7192 7.09333 12.7192 6.58C12.7192 6.35333 12.7126 6.10333 12.6992 5.83C12.6926 5.56333 12.6892 5.29667 12.6892 5.03C12.6892 4.76333 12.6959 4.51667 12.7092 4.29C12.7226 4.05667 12.7492 3.88 12.7892 3.76C12.8359 3.59333 12.9326 3.46667 13.0792 3.38C13.2259 3.3 13.3859 3.25667 13.5592 3.25C13.7259 3.24333 13.8826 3.28 14.0292 3.36C14.1826 3.43333 14.2859 3.55333 14.3392 3.72C14.3926 3.86667 14.4326 4.05667 14.4592 4.29C14.4792 4.51667 14.4959 4.76333 14.5092 5.03C14.5159 5.29667 14.5192 5.56667 14.5192 5.84C14.5126 6.11333 14.5026 6.37333 14.4892 6.62ZM17.2792 4.06C17.5592 3.92 17.8526 3.81667 18.1592 3.75C18.4659 3.69 18.7726 3.67667 19.0792 3.71C19.3792 3.74333 19.6692 3.82333 19.9492 3.95C20.2292 4.07667 20.4926 4.25667 20.7392 4.49C20.9792 4.73 21.1659 4.99667 21.2992 5.29C21.4259 5.57667 21.5192 5.89667 21.5792 6.25C21.6126 6.49667 21.6726 6.72333 21.7592 6.93C21.8459 7.13 21.9359 7.33333 22.0292 7.54C22.1292 7.74667 22.2226 7.95333 22.3092 8.16C22.4026 8.36667 22.4759 8.58 22.5292 8.8C22.5759 9.01333 22.5592 9.22 22.4792 9.42C22.3992 9.62667 22.2392 9.75333 21.9992 9.8C21.8592 9.82667 21.7259 9.81333 21.5992 9.76C21.4726 9.70667 21.3592 9.63333 21.2592 9.54C21.1526 9.44 21.0592 9.33333 20.9792 9.22C20.8992 9.1 20.8292 8.99 20.7692 8.89C20.5492 9.17 20.3159 9.38667 20.0692 9.54C19.8159 9.69333 19.5126 9.79333 19.1592 9.84C18.8592 9.87333 18.5726 9.88333 18.2992 9.87C18.0326 9.85 17.7426 9.79667 17.4292 9.71C17.0292 9.61 16.7026 9.43 16.4492 9.17C16.1892 8.91667 15.9926 8.62 15.8592 8.28C15.7259 7.94 15.6526 7.57333 15.6392 7.18C15.6326 6.78667 15.6792 6.4 15.7792 6.02C15.9126 5.51333 16.1092 5.1 16.3692 4.78C16.6292 4.46667 16.9326 4.22667 17.2792 4.06ZM17.6292 5.69C17.4959 5.82333 17.3926 5.98 17.3192 6.16C17.2459 6.33333 17.2026 6.52 17.1892 6.72C17.1759 6.91333 17.1926 7.10667 17.2392 7.3C17.2859 7.5 17.3592 7.67333 17.4592 7.82C17.5526 7.95333 17.7126 8.06333 17.9392 8.15C18.1592 8.23667 18.3926 8.29 18.6392 8.31C18.9192 8.33 19.1626 8.25667 19.3692 8.09C19.5826 7.92333 19.7426 7.71 19.8492 7.45C19.9559 7.19667 20.0059 6.92333 19.9992 6.63C19.9859 6.33 19.9059 6.06 19.7592 5.82C19.6459 5.64 19.4992 5.51 19.3192 5.43C19.1326 5.34333 18.9392 5.29667 18.7392 5.29C18.5326 5.29 18.3292 5.32333 18.1292 5.39C17.9292 5.46333 17.7626 5.56333 17.6292 5.69Z" fill="black"/>
</svg>
