<svg width="118" height="14" viewBox="0 0 118 14" fill="none" xmlns="http://www.w3.org/2000/svg">
<path d="M2.7 9.06V0.17H3.37V8.61C3.37 9.86333 3.11 10.8633 2.59 11.61C2.32333 11.99 2.05667 12.31 1.79 12.57C1.51667 12.8233 1.18333 13.09 0.79 13.37L0.5 12.94C1.96667 11.8667 2.7 10.5733 2.7 9.06ZM13.37 9.24C12.75 9.96 11.81 10.32 10.55 10.32C9.29 10.32 8.35333 9.96 7.74 9.24C7.12 8.52 6.81 7.52667 6.81 6.26V1.09H7.46V6.26C7.46 8.58667 8.49 9.75 10.55 9.75C12.6167 9.75 13.65 8.58667 13.65 6.26V1.09H14.29V6.26C14.29 7.52667 13.9833 8.52 13.37 9.24ZM22.38 10.18H17.57V1.09H18.21V9.59H22.38V10.18ZM24.93 10.18H24.29V1.09H24.93V10.18ZM34.76 9.24C34.14 9.96 33.2 10.32 31.94 10.32C30.68 10.32 29.7433 9.96 29.13 9.24C28.5167 8.52 28.21 7.52667 28.21 6.26V1.09H28.85V6.26C28.85 8.58667 29.88 9.75 31.94 9.75C34.0067 9.75 35.04 8.58667 35.04 6.26V1.09H35.68V6.26C35.68 7.52667 35.3733 8.52 34.76 9.24ZM40.79 1.49C40.29 1.49 39.88 1.61 39.56 1.85C39.24 2.09 39.08 2.43 39.08 2.87C39.08 3.37667 39.29 3.83 39.71 4.23C40.01 4.51667 40.3967 4.82333 40.87 5.15C41.3433 5.47 41.6667 5.7 41.84 5.84C42.02 5.98 42.2367 6.17 42.49 6.41C42.9433 6.87 43.17 7.4 43.17 8C43.17 8.77333 42.9133 9.35667 42.4 9.75C41.88 10.15 41.1567 10.35 40.23 10.35C39.2967 10.35 38.5167 10.1067 37.89 9.62L38.23 9.13C38.8633 9.55667 39.5367 9.77 40.25 9.77C40.9567 9.77 41.51 9.62333 41.91 9.33C42.3033 9.03 42.5 8.61 42.5 8.07C42.5 7.60333 42.3 7.17333 41.9 6.78C41.62 6.5 41.2433 6.19667 40.77 5.87C40.2967 5.54333 39.9667 5.30667 39.78 5.16C39.5933 5.01333 39.3767 4.82 39.13 4.58C38.65 4.10667 38.41 3.55667 38.41 2.93C38.41 2.30333 38.6333 1.81333 39.08 1.46C39.52 1.10667 40.1333 0.93 40.92 0.93C41.7 0.93 42.4033 1.08333 43.03 1.39L42.79 1.91C42.2167 1.63 41.55 1.49 40.79 1.49ZM55.52 0.51L55.28 1.05C54.6 0.763333 53.9233 0.62 53.25 0.62C51.89 0.62 51.21 1.12333 51.21 2.13C51.21 2.57 51.3633 2.98 51.67 3.36C51.9767 3.73333 52.35 4.06667 52.79 4.36C53.23 4.65333 53.67 4.95667 54.11 5.27C54.5433 5.57667 54.9167 5.94333 55.23 6.37C55.5367 6.80333 55.69 7.27 55.69 7.77C55.69 8.62333 55.4033 9.26667 54.83 9.7C54.2633 10.1333 53.48 10.35 52.48 10.35C51.4733 10.35 50.6167 10.0933 49.91 9.58L50.24 9.07C50.9133 9.51 51.65 9.73 52.45 9.73C53.2567 9.73 53.8733 9.57 54.3 9.25C54.7333 8.93 54.95 8.46667 54.95 7.86C54.95 7.44 54.7933 7.04 54.48 6.66C54.1733 6.28 53.8 5.94 53.36 5.64C52.9267 5.33333 52.49 5.02333 52.05 4.71C51.61 4.39 51.2367 4.01 50.93 3.57C50.6233 3.13 50.47 2.66 50.47 2.16C50.47 1.49333 50.7133 0.966667 51.2 0.58C51.6933 0.193333 52.3567 0 53.19 0C54.0233 0 54.8 0.17 55.52 0.51ZM62.93 7.03H58.89L57.59 10.18H56.93L60.74 1.04H61.12L64.96 10.18H64.24L62.93 7.03ZM60.9 2.07C60.76 2.49 60.6333 2.84 60.52 3.12L59.12 6.48H62.7L61.32 3.14C61.1 2.61333 60.96 2.25667 60.9 2.07ZM67.45 10.18H66.8V1.04H67.11L73.08 7.9C73.2933 8.14 73.49 8.38 73.67 8.62C73.85 8.86 73.9467 8.98333 73.96 8.99C73.94 8.76333 73.93 8.32333 73.93 7.67V1.09H74.57V10.24H74.27L68.19 3.26L67.42 2.33C67.44 2.51667 67.45 2.95333 67.45 3.64V10.18ZM79.77 1.49C79.2633 1.49 78.8533 1.61 78.54 1.85C78.22 2.09 78.06 2.43 78.06 2.87C78.06 3.37667 78.27 3.83 78.69 4.23C78.99 4.51667 79.3733 4.82333 79.84 5.15C80.3133 5.47 80.64 5.7 80.82 5.84C80.9933 5.98 81.2067 6.17 81.46 6.41C81.92 6.87 82.15 7.4 82.15 8C82.15 8.77333 81.89 9.35667 81.37 9.75C80.85 10.15 80.1267 10.35 79.2 10.35C78.2733 10.35 77.4967 10.1067 76.87 9.62L77.21 9.13C77.8433 9.55667 78.5133 9.77 79.22 9.77C79.9333 9.77 80.4867 9.62333 80.88 9.33C81.28 9.03 81.48 8.61 81.48 8.07C81.48 7.60333 81.2767 7.17333 80.87 6.78C80.59 6.5 80.2167 6.19667 79.75 5.87C79.2767 5.54333 78.9467 5.30667 78.76 5.16C78.5733 5.01333 78.3533 4.82 78.1 4.58C77.6267 4.10667 77.39 3.55667 77.39 2.93C77.39 2.30333 77.61 1.81333 78.05 1.46C78.4967 1.10667 79.11 0.93 79.89 0.93C80.6767 0.93 81.3833 1.08333 82.01 1.39L81.77 1.91C81.19 1.63 80.5233 1.49 79.77 1.49ZM90.74 8.85C89.8067 7.85 89.34 6.62333 89.34 5.17C89.34 3.71 89.8067 2.48333 90.74 1.49C91.6667 0.496666 92.84 0 94.26 0C95.68 0 96.8567 0.496666 97.79 1.49C98.7233 2.48333 99.19 3.71 99.19 5.17C99.19 6.62333 98.7233 7.85 97.79 8.85C96.8567 9.85 95.68 10.35 94.26 10.35C92.84 10.35 91.6667 9.85 90.74 8.85ZM91.23 1.93C90.4567 2.80333 90.07 3.88333 90.07 5.17C90.07 6.45667 90.46 7.54 91.24 8.42C92.02 9.29333 93.03 9.73 94.27 9.73C95.5033 9.73 96.51 9.29333 97.29 8.42C98.07 7.54 98.46 6.45667 98.46 5.17C98.46 3.88333 98.07 2.80333 97.29 1.93C96.51 1.05667 95.5 0.62 94.26 0.62C93.02 0.62 92.01 1.05667 91.23 1.93ZM102.77 10.18H102.13V1.04H102.43L108.4 7.9C108.613 8.14 108.81 8.38 108.99 8.62C109.177 8.86 109.273 8.98333 109.28 8.99C109.26 8.76333 109.25 8.32333 109.25 7.67V1.09H109.9V10.24H109.59L103.51 3.26L102.74 2.33C102.76 2.51667 102.77 2.95333 102.77 3.64V10.18ZM117.64 10.18H113.26V1.09H117.5V1.65H113.9V4.96H117.15V5.5H113.9V9.59H117.64V10.18Z" fill="black"/>
</svg>
