<svg width="38" height="14" viewBox="0 0 38 14" fill="none" xmlns="http://www.w3.org/2000/svg">
<path d="M4.07 0.78V7.25C4.07 7.59667 4.03333 7.92667 3.96 8.24C3.88667 8.55333 3.8 8.81 3.7 9.01C3.6 9.21667 3.49 9.40333 3.37 9.57C3.24333 9.73667 3.14 9.85667 3.06 9.93C2.98 10.01 2.91667 10.0633 2.87 10.09C2.74333 10.1567 2.52333 10.19 2.21 10.19C1.61667 10.19 1.04667 10.04 0.5 9.74C0.666667 9.42667 0.953333 9.13333 1.36 8.86L1.45 8.93C1.75 9.42333 2.10667 9.67 2.52 9.67C2.6 9.67 2.67 9.65 2.73 9.61C2.79 9.56333 2.84 9.48 2.88 9.36C2.92667 9.24 2.96333 9.09333 2.99 8.92C3.01 8.75333 3.03 8.52 3.05 8.22C3.07 7.92667 3.08333 7.60333 3.09 7.25C3.09 6.89667 3.09 6.46333 3.09 5.95V2.04C3.09 1.44 3.02333 1.02667 2.89 0.8C2.76333 0.573333 2.49333 0.46 2.08 0.46H1.88L1.86 0.33C2.60667 0.11 3.29667 0 3.93 0C4.02333 0.24 4.07 0.5 4.07 0.78ZM12.22 3.7V8C12.22 8.30667 12.2333 8.56 12.26 8.76C12.2933 8.96667 12.3467 9.13 12.42 9.25C12.4933 9.37667 12.5967 9.46667 12.73 9.52C12.8633 9.57333 13.0033 9.6 13.15 9.6C13.2967 9.6 13.3867 9.59667 13.42 9.59L13.46 9.71C12.7067 9.93667 12.0133 10.05 11.38 10.05C11.2867 9.80333 11.24 9.54333 11.24 9.27V8.95C11 9.16333 10.7767 9.34667 10.57 9.5C10.3633 9.65333 10.16 9.78333 9.96 9.89C9.76 9.99 9.55333 10.0667 9.34 10.12C9.13333 10.1667 8.90667 10.19 8.66 10.19C8.38667 10.19 8.11667 10.1567 7.85 10.09C7.57667 10.03 7.33 9.91667 7.11 9.75C6.89 9.59 6.71333 9.36667 6.58 9.08C6.44667 8.8 6.38 8.44 6.38 8V3.78C6.38 3.59333 6.30333 3.45333 6.15 3.36C5.99667 3.26667 5.77 3.17667 5.47 3.09L5.53 2.92C5.79 2.98 6.13 3.01 6.55 3.01C6.81 3.01 7.11333 2.97333 7.46 2.9L7.5 2.96C7.41333 3.10667 7.37 3.35333 7.37 3.7V7.76C7.37 8.13333 7.41333 8.44333 7.5 8.69C7.58 8.93667 7.69333 9.13 7.84 9.27C7.98667 9.41 8.16 9.50667 8.36 9.56C8.55333 9.61333 8.76 9.64 8.98 9.64C9.18667 9.64 9.37667 9.61667 9.55 9.57C9.72333 9.53 9.9 9.46333 10.08 9.37C10.26 9.27667 10.4433 9.15333 10.63 9C10.8167 8.85333 11.02 8.67667 11.24 8.47V3.95C11.24 3.81 11.2267 3.69333 11.2 3.6C11.18 3.51333 11.1333 3.44 11.06 3.38C10.9867 3.32 10.8867 3.26667 10.76 3.22C10.6267 3.17333 10.4533 3.12333 10.24 3.07L10.29 2.9C10.55 2.93333 10.7733 2.96 10.96 2.98C11.1467 3 11.2967 3.01 11.41 3.01C11.67 3.01 11.9733 2.97333 12.32 2.9L12.36 2.96C12.2667 3.1 12.22 3.34667 12.22 3.7ZM15.66 9.23V4.84C15.66 4.54 15.6467 4.28667 15.62 4.08C15.5933 3.87333 15.54 3.71 15.46 3.59C15.3867 3.46333 15.2833 3.37667 15.15 3.33C15.0167 3.27667 14.8767 3.25 14.73 3.25C14.5833 3.25 14.4933 3.25333 14.46 3.26L14.43 3.14C15.1767 2.91333 15.8667 2.8 16.5 2.8C16.6 3.04 16.65 3.3 16.65 3.58V3.78C16.91 3.6 17.1533 3.44333 17.38 3.31C17.6 3.18333 17.82 3.07333 18.04 2.98C18.2533 2.88667 18.4767 2.81667 18.71 2.77C18.9367 2.72333 19.1867 2.7 19.46 2.7C19.7067 2.7 19.95 2.73333 20.19 2.8C20.4367 2.86667 20.6567 2.98 20.85 3.14C21.0433 3.30667 21.2 3.53 21.32 3.81C21.44 4.09667 21.5 4.45667 21.5 4.89V9.14C21.5 9.24667 21.5267 9.33667 21.58 9.41C21.6333 9.48333 21.7033 9.54667 21.79 9.6C21.87 9.64667 21.9667 9.68667 22.08 9.72C22.1867 9.75333 22.3 9.79 22.42 9.83L22.36 9.99C22.1 9.93667 21.76 9.91 21.34 9.91C21.08 9.91 20.7767 9.94667 20.43 10.02L20.39 9.95C20.4767 9.81667 20.52 9.57667 20.52 9.23V5.14C20.52 4.75333 20.4867 4.44 20.42 4.2C20.3467 3.95333 20.2467 3.76 20.12 3.62C19.9933 3.48667 19.8467 3.39 19.68 3.33C19.5133 3.27667 19.3367 3.25 19.15 3.25C18.9233 3.25 18.71 3.27 18.51 3.31C18.31 3.35 18.1133 3.41333 17.92 3.5C17.72 3.58667 17.5167 3.69333 17.31 3.82C17.1033 3.94 16.8833 4.08667 16.65 4.26V8.97C16.65 9.11667 16.66 9.23667 16.68 9.33C16.7067 9.41667 16.7567 9.49 16.83 9.55C16.9033 9.61 17.0033 9.66 17.13 9.7C17.2633 9.74667 17.4367 9.8 17.65 9.86L17.6 10.02C17.3333 9.98 17.11 9.95333 16.93 9.94C16.7433 9.92 16.5933 9.91 16.48 9.91C16.22 9.91 15.9167 9.94667 15.57 10.02L15.53 9.95C15.6167 9.81667 15.66 9.57667 15.66 9.23ZM30.01 11.65C30.01 12.1033 29.84 12.5067 29.5 12.86C29.16 13.2133 28.72 13.48 28.18 13.66C27.64 13.84 27.06 13.93 26.44 13.93C25.96 13.93 25.53 13.8667 25.15 13.74C24.7633 13.6133 24.4467 13.4 24.2 13.1C23.9467 12.8067 23.82 12.4467 23.82 12.02C23.82 11.58 24.0133 11.17 24.4 10.79C24.7867 10.41 25.2967 10.09 25.93 9.83C25.3567 9.70333 24.9433 9.56333 24.69 9.41C24.4433 9.25667 24.32 9.01667 24.32 8.69C24.32 8.40333 24.4067 8.17333 24.58 8C24.76 7.82667 25.0633 7.68333 25.49 7.57C24.99 7.41667 24.6 7.15 24.32 6.77C24.04 6.39 23.9 5.9 23.9 5.3C23.9 4.86667 24.03 4.45667 24.29 4.07C24.5433 3.67667 24.8833 3.36667 25.31 3.14C25.73 2.91333 26.17 2.8 26.63 2.8C27.1567 2.8 27.6233 2.88333 28.03 3.05L30.27 2.8L30.33 3.03L29.83 3.54L28.62 3.43C29.0867 3.85 29.32 4.45667 29.32 5.25C29.32 5.65 29.2 6.04 28.96 6.42C28.72 6.79333 28.3867 7.10333 27.96 7.35C27.54 7.59 27.0867 7.71 26.6 7.71C25.9467 7.82333 25.5267 7.92333 25.34 8.01C25.1533 8.09667 25.06 8.23667 25.06 8.43C25.06 8.54333 25.1867 8.65333 25.44 8.76C25.6933 8.86667 26.1867 9.01333 26.92 9.2C27.26 9.28 27.5467 9.35333 27.78 9.42C28.0133 9.48667 28.2433 9.56333 28.47 9.65C28.7033 9.73 28.8967 9.81333 29.05 9.9C29.1967 9.98667 29.3367 10.09 29.47 10.21C29.6033 10.3233 29.7067 10.45 29.78 10.59C29.8467 10.73 29.9 10.8867 29.94 11.06C29.9867 11.2333 30.01 11.43 30.01 11.65ZM26.85 10.01L26.57 9.94C25.9967 10.1533 25.5433 10.4433 25.21 10.81C24.8767 11.17 24.71 11.5367 24.71 11.91C24.71 12.1767 24.7833 12.41 24.93 12.61C25.0767 12.8167 25.27 12.9767 25.51 13.09C25.75 13.2033 26.0067 13.2867 26.28 13.34C26.5533 13.3933 26.8367 13.42 27.13 13.42C28.47 13.42 29.14 12.9 29.14 11.86C29.14 11.3533 28.95 10.96 28.57 10.68C28.19 10.3933 27.6167 10.17 26.85 10.01ZM26.35 3.29C25.7767 3.29 25.38 3.43667 25.16 3.73C24.9333 4.02333 24.82 4.51 24.82 5.19C24.82 5.51 24.8733 5.79333 24.98 6.04C25.08 6.29333 25.2067 6.49 25.36 6.63C25.52 6.77667 25.7033 6.89667 25.91 6.99C26.1167 7.08333 26.31 7.14667 26.49 7.18C26.67 7.20667 26.85 7.22 27.03 7.22C27.49 7.22 27.8333 7.05333 28.06 6.72C28.28 6.39333 28.39 5.94 28.39 5.36C28.39 5.02667 28.34 4.73 28.24 4.47C28.1333 4.21667 28.0067 4.01667 27.86 3.87C27.7133 3.73 27.5433 3.61 27.35 3.51C27.15 3.41667 26.97 3.35667 26.81 3.33C26.65 3.30333 26.4967 3.29 26.35 3.29ZM31.37 6.58C31.37 6.1 31.45 5.63333 31.61 5.18C31.77 4.72667 32 4.32333 32.3 3.97C32.5933 3.61667 32.95 3.33333 33.37 3.12C33.79 2.90667 34.2633 2.8 34.79 2.8C35.1167 2.8 35.4267 2.85667 35.72 2.97C36.0133 3.08333 36.2667 3.25667 36.48 3.49C36.7 3.72333 36.8733 4.02333 37 4.39C37.12 4.75667 37.18 5.19333 37.18 5.7L36.92 5.95H32.45C32.4433 6.02333 32.44 6.09667 32.44 6.17C32.44 6.24333 32.44 6.31667 32.44 6.39C32.44 6.88333 32.4967 7.33333 32.61 7.74C32.73 8.14667 32.89 8.49667 33.09 8.79C33.2833 9.07667 33.5167 9.3 33.79 9.46C34.0567 9.62 34.34 9.7 34.64 9.7C34.8333 9.7 35.03 9.68333 35.23 9.65C35.4233 9.62333 35.6167 9.57667 35.81 9.51C35.9967 9.45 36.18 9.37 36.36 9.27C36.5333 9.17 36.6967 9.05 36.85 8.91L37.13 9.2C36.77 9.55333 36.3767 9.80667 35.95 9.96C35.53 10.1133 35.04 10.19 34.48 10.19C34.0467 10.19 33.64 10.1067 33.26 9.94C32.88 9.76667 32.55 9.52333 32.27 9.21C31.99 8.89667 31.77 8.51667 31.61 8.07C31.45 7.63 31.37 7.13333 31.37 6.58ZM34.64 3.27C33.9333 3.27 33.4167 3.45333 33.09 3.82C32.7633 4.18667 32.5633 4.71667 32.49 5.41H36.3C36.2667 4.65667 36.1 4.11333 35.8 3.78C35.5 3.44 35.1133 3.27 34.64 3.27Z" fill="black"/>
</svg>
