<svg width="45.626" height="18.83" viewBox="0 0 45.626 18.83" xmlns="http://www.w3.org/2000/svg"><path transform="translate(0 14.63) scale(.014 -.014)" d="m617-15q-26 0-48.5 13.5t-45.5 45.5-52 87q-18 35-37.5 65t-42 56-50 48.5-60.5 43.5h-51v-321l61-13v-10h-237v10l61 13v662l-61 13v10h176v-350q16 0 31 1t30 2q31 3 59 20t52.5 43.5 44.5 56.5q17 28 29.5 56.5t19 54.5 6.5 46q0 27-18 43.5t-55 16.5v10h240v-10l-59-13q0-33-12-69.5t-32.5-73.5-49.5-69q-29-33-63.5-58t-67-41-60.5-20v-5q46-2 81.5-12t63.5-29.5 50-50 42-73.5q26-58 45-92.5t36-52 33-22.5q10-3 21 0v-10q-13-10-27-14.5t-27.5-6-25.5-1.5z"/><path transform="translate(9.912 14.63) scale(.014 -.014)" d="m315 515q58 0 99.5-13.5t68.5-41.5 39-70.5 12-100.5v-254q0-15 6.5-22t17.5-7q12 0 27.5 7t30.5 18v-11q-12-11-28.5-19t-34.5-12-35-4q-44 0-69 23.5t-25 76.5q0 20 0 29.5t0 14.5 0 11l-8 6q-19-38-45.5-68t-59-50.5-66.5-31.5-68-11q-37 0-67 12.5t-48 37-18 60.5q0 85 97 129.5t283 44.5q0 85-13 134.5t-45 71.5-88 22q-37 0-65.5-6.5t-44-15.5-15.5-16q0-5 9.5-10.5t34.5-15.5q46-18 46-51 0-30-26-45.5t-63-15.5q-36 0-61.5 16t-25.5 46q0 24 20.5 47.5t55 42.5 79 30.5 93.5 11.5zm109-258q-95 0-157-20.5t-92-55.5-30-78q0-26 10.5-42.5t28.5-24.5 41-8q25 0 53.5 9.5t56.5 29.5 51.5 50.5 37.5 72.5z"/><path transform="translate(18.816 14.63) scale(.014 -.014)" d="M210 20 265 10V0H44V10L100 20V700H38V711L210 745Z"/><path transform="translate(22.988 14.63) scale(.014 -.014)" d="m645 10v-10h-228v10l57 10v334q0 60-21 90t-61 30q-27 0-53.5-17t-51-44-44.5-58-33-59v-276l57-10v-10h-222v10l55 10v450h-61v11l171 34v-164l8-7q28 52 61.5 90.5t74 59.5 86.5 21q40 0 67-12.5t44-35.5 25-55 8-73v-319z"/><path transform="translate(32.396 14.63) scale(.014 -.014)" d="m149 596q-26 0-46 8t-31 22-11 32q0 19 11 32.5t31 21.5 46 8 46-8 31.5-21.5 11.5-32.5q0-18-11.5-32t-31.5-22-46-8zm-105-596v10l56 10v450h-62v11l172 34v-495l55-10v-10z"/><path transform="translate(36.722 14.63) scale(.014 -.014)" d="m315 515q58 0 99.5-13.5t68.5-41.5 39-70.5 12-100.5v-254q0-15 6.5-22t17.5-7q12 0 27.5 7t30.5 18v-11q-12-11-28.5-19t-34.5-12-35-4q-44 0-69 23.5t-25 76.5q0 20 0 29.5t0 14.5 0 11l-8 6q-19-38-45.5-68t-59-50.5-66.5-31.5-68-11q-37 0-67 12.5t-48 37-18 60.5q0 85 97 129.5t283 44.5q0 85-13 134.5t-45 71.5-88 22q-37 0-65.5-6.5t-44-15.5-15.5-16q0-5 9.5-10.5t34.5-15.5q46-18 46-51 0-30-26-45.5t-63-15.5q-36 0-61.5 16t-25.5 46q0 24 20.5 47.5t55 42.5 79 30.5 93.5 11.5zm109-258q-95 0-157-20.5t-92-55.5-30-78q0-26 10.5-42.5t28.5-24.5 41-8q25 0 53.5 9.5t56.5 29.5 51.5 50.5 37.5 72.5z"/></svg>