<svg width="33" height="10" viewBox="0 0 33 10" fill="none" xmlns="http://www.w3.org/2000/svg">
<path d="M2.03 9.28H0.5V0.26H2.03V4.41L5.86 0.26H7.63L4.31 3.9L7.77 9.28H6.14L3.36 4.87L2.03 6.3V9.28ZM10.83 9.42C10.41 9.42 10.02 9.34667 9.66 9.2C9.30667 9.04667 9.02 8.82 8.8 8.52C8.58667 8.21333 8.48 7.83667 8.48 7.39C8.48 6.75667 8.69667 6.24667 9.13 5.86C9.56333 5.47333 10.2333 5.28 11.14 5.28H13.27V4.98C13.27 4.66667 13.22 4.41667 13.12 4.23C13.0267 4.04333 12.85 3.90667 12.59 3.82C12.3367 3.73333 11.96 3.69 11.46 3.69C10.68 3.69 9.95 3.80667 9.27 4.04V2.91C9.56333 2.79 9.92667 2.69333 10.36 2.62C10.7867 2.54 11.2467 2.5 11.74 2.5C12.7133 2.5 13.4533 2.69667 13.96 3.09C14.4733 3.48333 14.73 4.12333 14.73 5.01V9.28H13.42L13.33 8.61C13.0567 8.87 12.7233 9.07 12.33 9.21C11.93 9.35 11.43 9.42 10.83 9.42ZM11.24 8.33C11.7 8.33 12.1 8.25333 12.44 8.1C12.78 7.94667 13.0567 7.73667 13.27 7.47V6.31H11.17C10.7233 6.31 10.4 6.39667 10.2 6.57C10 6.74333 9.9 7.00667 9.9 7.36C9.9 7.70667 10.0167 7.95333 10.25 8.1C10.4833 8.25333 10.8133 8.33 11.24 8.33ZM17.95 9.28H16.42V2.64H17.82L17.89 3.34C18.19 3.10667 18.5467 2.91 18.96 2.75C19.3733 2.58333 19.8333 2.5 20.34 2.5C21.2 2.5 21.8267 2.70333 22.22 3.11C22.6067 3.51 22.8 4.13333 22.8 4.98V9.28H21.29V5.05C21.29 4.53667 21.1867 4.17667 20.98 3.97C20.7667 3.77 20.37 3.67 19.79 3.67C19.45 3.67 19.1133 3.74 18.78 3.88C18.4467 4.02 18.17 4.2 17.95 4.42V9.28ZM26.74 1.26H25.07V0H26.74V1.26ZM26.72 9.28H25.2V3.81H24.19L24.33 2.64H26.72V9.28ZM31.04 9.42C30.3267 9.42 29.7967 9.23 29.45 8.85C29.0967 8.47667 28.92 7.96333 28.92 7.31V3.83H27.94V2.64H28.92V1.12L30.43 0.66V2.64H32.2L32.1 3.83H30.43V7.22C30.43 7.60667 30.52 7.87667 30.7 8.03C30.88 8.18333 31.17 8.26 31.57 8.26C31.8233 8.26 32.09 8.21333 32.37 8.12V9.2C32.0033 9.34667 31.56 9.42 31.04 9.42Z" fill="black"/>
</svg>
