<svg width="72" height="15" viewBox="0 0 72 15" fill="none" xmlns="http://www.w3.org/2000/svg">
<path d="M3.56 10.76H0.5V9.91H1.59V1.72H0.5V0.88H3.56V1.72H2.47V5.15H3.63L6.02 1.72H5.08V0.88H7.93V1.72H7.03L4.35 5.57L7.11 9.91H8.04V10.76H6.62L3.61 6H2.47V9.91H3.56V10.76ZM10.93 10.84C10.5167 10.84 10.1833 10.7767 9.93 10.65C9.67667 10.5167 9.48333 10.3467 9.35 10.14C9.21 9.93333 9.11667 9.71 9.07 9.47C9.01667 9.23 8.99 9.00333 8.99 8.79V8.72C8.99 8.43333 9.07 8.13 9.23 7.81C9.39 7.49667 9.64333 7.23 9.99 7.01C10.3367 6.79 10.7867 6.68 11.34 6.68H13.21V5.89C13.21 5.43 13.0933 5.07333 12.86 4.82C12.6333 4.56 12.26 4.43 11.74 4.43C11.32 4.43 10.99 4.5 10.75 4.64C10.51 4.77333 10.34 4.92667 10.24 5.1C10.1333 5.28 10.08 5.43 10.08 5.55V5.6H9.17V5.55C9.17 5.26333 9.26 4.97 9.44 4.67C9.61333 4.36333 9.89 4.10667 10.27 3.9C10.6433 3.68667 11.1333 3.58 11.74 3.58C12.5667 3.58 13.1633 3.79667 13.53 4.23C13.8967 4.65667 14.08 5.18333 14.08 5.81V9.91H15.17V10.76H13.21V9.52C12.9367 9.86667 12.6 10.1733 12.2 10.44C11.8 10.7067 11.3767 10.84 10.93 10.84ZM13.21 7.53H11.41C10.9967 7.53 10.68 7.6 10.46 7.74C10.2333 7.87333 10.08 8.03333 10 8.22C9.91333 8.40667 9.87 8.57333 9.87 8.72V8.79C9.87 8.91 9.88667 9.06667 9.92 9.26C9.95333 9.44667 10.0467 9.61667 10.2 9.77C10.36 9.91667 10.62 9.99 10.98 9.99C11.2267 9.99 11.47 9.93667 11.71 9.83C11.9433 9.72333 12.1633 9.59 12.37 9.43C12.57 9.27 12.7433 9.11333 12.89 8.96C13.0367 8.8 13.1433 8.67 13.21 8.57V7.53ZM16.69 14.35H15.95V13.5H16.62C16.92 13.5 17.1633 13.4533 17.35 13.36C17.5367 13.2733 17.7067 13.09 17.86 12.81C18.0133 12.53 18.1833 12.1133 18.37 11.56L18.57 10.98L16.4 4.51H15.6V3.66H18.5V4.51H17.3L19.02 9.73L20.73 4.51H19.67V3.66H22.57V4.51H21.62L19.77 10.06L19.15 11.92C18.9233 12.5933 18.69 13.1067 18.45 13.46C18.21 13.8067 17.9467 14.04 17.66 14.16C17.3733 14.2867 17.05 14.35 16.69 14.35ZM31.61 10.76H28.55V9.91H29.64V1.72H28.55V0.88H31.71C32.81 0.88 33.6367 1.11333 34.19 1.58C34.7367 2.04667 35.01 2.68 35.01 3.48V3.85C35.01 4.37667 34.89 4.85333 34.65 5.28C34.4033 5.70667 34.0367 6.04333 33.55 6.29C33.0633 6.53667 32.45 6.66 31.71 6.66H30.51V9.91H31.61V10.76ZM30.51 5.81H31.67C32.4967 5.81 33.1167 5.63 33.53 5.27C33.9367 4.91 34.14 4.41333 34.14 3.78V3.55C34.14 2.91667 33.9367 2.45333 33.53 2.16C33.1167 1.86667 32.4967 1.72 31.67 1.72H30.51V5.81ZM39.14 10.76H36.08V9.91H37.17V0.85H36.08V0H38.05V5C38.3233 4.64 38.6667 4.31333 39.08 4.02C39.4933 3.72667 39.9333 3.58 40.4 3.58C40.94 3.58 41.3533 3.69 41.64 3.91C41.9267 4.12333 42.1233 4.44667 42.23 4.88C42.3367 5.30667 42.39 5.84333 42.39 6.49V9.91H43.49V10.76H40.43V9.91H41.52V6.64C41.52 6.08 41.49 5.64 41.43 5.32C41.37 5 41.2533 4.77333 41.08 4.64C40.9133 4.5 40.6633 4.43 40.33 4.43C40.07 4.43 39.8167 4.49 39.57 4.61C39.3233 4.73 39.0967 4.88 38.89 5.06C38.6833 5.23333 38.5067 5.40333 38.36 5.57C38.2133 5.73667 38.11 5.87 38.05 5.97V9.91H39.14V10.76ZM47.36 10.84H47.03C46.13 10.84 45.4733 10.54 45.06 9.94C44.6533 9.33333 44.45 8.47667 44.45 7.37V6.97C44.45 5.87 44.6533 5.03 45.06 4.45C45.4733 3.87 46.13 3.58 47.03 3.58H47.36C48.2533 3.58 48.9067 3.87 49.32 4.45C49.7333 5.03 49.94 5.87 49.94 6.97V7.37C49.94 8.47667 49.7333 9.33333 49.32 9.94C48.9067 10.54 48.2533 10.84 47.36 10.84ZM47.28 4.43H47.1C46.6267 4.43 46.26 4.53667 46 4.75C45.74 4.96333 45.5633 5.26667 45.47 5.66C45.37 6.04667 45.32 6.51 45.32 7.05V7.3C45.32 7.83333 45.37 8.30333 45.47 8.71C45.5633 9.11667 45.74 9.43333 46 9.66C46.26 9.88 46.6267 9.99 47.1 9.99H47.28C47.7533 9.99 48.12 9.88 48.38 9.66C48.64 9.43333 48.82 9.11667 48.92 8.71C49.02 8.30333 49.07 7.83333 49.07 7.3V7.05C49.07 6.51 49.02 6.04667 48.92 5.66C48.82 5.26667 48.64 4.96333 48.38 4.75C48.12 4.53667 47.7533 4.43 47.28 4.43ZM59.61 10.76H56.45V9.91H57.54V1.72H56.45V0.88H59.61C60.87 0.88 61.84 1.25 62.52 1.99C63.1933 2.73667 63.53 3.92 63.53 5.54V5.91C63.53 7.52333 63.1933 8.73667 62.52 9.55C61.84 10.3567 60.87 10.76 59.61 10.76ZM59.57 1.72H58.42V9.91H59.57C60.6433 9.91 61.4267 9.56 61.92 8.86C62.4133 8.16 62.66 7.15333 62.66 5.84V5.61C62.66 4.29667 62.4133 3.32 61.92 2.68C61.4267 2.04 60.6433 1.72 59.57 1.72ZM67.69 10.84C67.1567 10.84 66.7433 10.7267 66.45 10.5C66.1633 10.2667 65.9667 9.92667 65.86 9.48C65.7467 9.03333 65.69 8.49 65.69 7.85V4.51H64.6V3.66H66.57V7.7C66.57 8.54 66.6433 9.13 66.79 9.47C66.9367 9.81667 67.26 9.99 67.76 9.99C68.02 9.99 68.2733 9.92667 68.52 9.8C68.76 9.67333 68.9867 9.51667 69.2 9.33C69.4067 9.14333 69.5833 8.96 69.73 8.78C69.87 8.60667 69.9733 8.47 70.04 8.37V4.51H68.95V3.66H70.91V9.91H72.01V10.76H70.04V9.36C69.76 9.73333 69.4133 10.0733 69 10.38C68.5933 10.6867 68.1567 10.84 67.69 10.84Z" fill="black"/>
</svg>
