<svg width="79.772" height="14" viewBox="0 0 79.772 14" xmlns="http://www.w3.org/2000/svg"><path transform="translate(0 10.5) scale(.014 -.014)" d="m353 105q12-11 24-20.5t21-18.5q6-5 16-13.5t18-11.5q5-5 11.5-9t10.5-8q5-5 10-9.5t8-10.5q-1-2-2-5-2-5-5-8-8-8-13-15.5t-10-12.5l-8-8q-2-2-2-3-5 0-9 4t-9 8q-13 8-17.5 12.5t-17.5 8.5q-3 2-10.5 6t-10.5 6q-13 4-25 13t-26 17l-78 51q-10 5-18.5 11t-18.5 11q-7 4-11.5 7.5t-10.5 8.5q-8 5-17 10t-17 8l-8 4v-6q0-8-1.5-15t-1.5-12q-1-26-3-51.5t-2-51.5q0-8-0.5-16t-5.5-16h-5q-12 0-20 0.5t-19-0.5q-8-1-14-0.5t-14 0.5q-1 3-3 5t-2 5q2 18-0.5 56t-2.5 86q0 13 0.5 25t-0.5 25q-2 16-2 32t1 33v28q0 15-1 30.5t-1 31.5q0 8 0.5 16t1.5 16q0 8-1.5 17t0.5 17q0 3 0.5 18t0.5 33-0.5 35.5-0.5 26.5l-2 51q5 5 6.5 5.5t6.5 0.5q2 0 3-0.5t2-0.5 11-0.5 22-1 22.5-1 11.5-1.5q1-8 1-13t-0.5-10-1-11.5-0.5-16.5v-19q-4-28-4.5-56.5t-0.5-55.5q-1-30-2.5-43.5t-1.5-31.5v-21q0-5-0.5-8t4.5-3l5 5q5 5 10 11.5t9 10.5q1 2 6 7.5t7 7.5q11 18 19.5 26t16.5 22q6 9 11.5 18t13.5 17q0 0 2 2 5 11 12 20.5t14 20.5q8 11 15.5 23t15.5 23l59 87 12 18q2 3 6.5 7t7.5 6q4-3 12-8t19-13q8-5 15.5-10.5t12.5-17.5q0-3-7-14t-15-23.5-15-23-8-12.5q-6-10-10.5-20.5t-9.5-15.5q-8-10-14.5-21.5t-13.5-22.5q-11-17-23.5-32t-24.5-30q-11-15-22-29t-14-16q-7-8-14-14.5t-14-13.5-12-14.5-10-13.5q4-3 5.5-6t6.5-6q12-8 25-20t25-20q17-9 31-20.5t31-25.5q4-5 12.5-9t16.5-13q4-4 8.5-6.5t8.5-4.5z"/><path transform="translate(6.818 10.5) scale(.014 -.014)" d="m137 87q2-20 1-36t-3-30q0-6-3-9-10-2-23-3.5t-24-0.5q-9 1-18-0.5t-13-1.5q0 6-1 11t0 14q1 8 0.5 17t-0.5 17v49q-1 23-1 47t-1 32q-1 9 0.5 18t1.5 18q-1 14-0.5 28.5t0.5 28.5q0 12-1 31.5t1 31.5q8 2 20 2t26 1q11 1 22 1t16 0q2 0 1.5-5.5t-0.5-7.5q-1-25 0-43.5t-1-38.5q1-20 0.5-34.5t-2.5-34.5q0-3 0-16t1-29.5 1-32 0-24.5zm-85 330q-1 5-0.5 15t0.5 21q0 5-0.5 9t-0.5 8q0 2 0.5 3t0.5 3h72q5 0 6-0.5t1-5.5v-65q-6-1-18.5-1t-25.5 0-23.5 0.5-10.5 2.5q-1 3-1 10z"/><path transform="translate(9.464 10.5) scale(.014 -.014)" d="m37 128q0 7 0.5 21t-0.5 27q1 9 1 18t0 19l-3 81v45q11 0 23 0.5t27-1.5q4-1 8-1h14q7-2 7-1.5t3-1.5q0-5-1-7.5t-1-7.5v-32q4 5 5.5 8.5t6.5 8.5l6 2q13 13 32 17t38 2q4 0 13-3.5t18-8.5q7-1 12-4l3-3q10-9 19-15.5t13-16.5q10-14 16-30t11-35q0-5-1-9t-6-4q-15-5-27.5-4.5t-33.5-1.5h-11q-2 1-2.5 3t-0.5 3q-1 6-2.5 10.5t-1.5 7.5q0 2-1 5t-2 5q-2 3-3 5-19 19-37 19-2 0-5.5 0t-6.5-2q-5-2-14.5-6.5t-12.5-7.5q-5-5-10.5-10.5t-8.5-12.5q-1-4-1.5-13.5t-0.5-11.5q-2-9-4-24t-2-26q0-7-1.5-18t-1.5-20q0-7-0.5-13t-0.5-12v-38q0-6-0.5-13t-0.5-14v-22q-50-11-69 0-2 7-3 17.5t0 12.5q2 18 1 36t-1 37q-1 10 0 21t1 20z"/><path transform="translate(14.056 10.5) scale(.014 -.014)" d="m399-24-7-1q-5-1-6.5-0.5t-9.5 0.5q-1 0-6-1t-11-2-13-0.5-11 2.5q-5 0-7 1t-7 1q-5 4-5.5 12t-0.5 13v25l-8-11-18-17q-10-7-16.5-11.5t-15.5-9.5q-15-9-32.5-12t-32.5-3-31.5 6-29.5 11q-4 1-7.5 3.5t-6.5 4.5q-6 5-13.5 10t-12.5 10q-3 2-5.5 4.5t-6.5 4.5q-5 3-9 10-5 11-12.5 21.5t-12.5 24.5q-3 11-8 21t-5 19q0 5-1 17t-1 17q0 9 0.5 14t0.5 15q0 5 1.5 10.5t3.5 14.5q2 11 3 23.5t3 20.5q7 13 9.5 16t4.5 11q2 6 5.5 15.5t10.5 14.5q3 2 9 7t12.5 11 11.5 10.5 7 4.5l18 8q8 3 18 4.5t19 1.5l31 1q5 0 11.5 0t8.5-1q5 0 10-3t10-3 12.5-3.5 12.5-8.5q10-4 15.5-9.5t10.5-10.5 9.5-9.5 9.5-9.5q0-3 4-5 2-1 3-2 2 2 2.5 8t3.5 11q1 14 1.5 25.5t1.5 15.5q-1 4 1 11.5t7 5.5q2 1 9 0t16-2.5 18.5-2.5 16.5-1q1 0 1-5t-1-8l6-96v-108q0-3-0.5-6t-0.5-6q1-9 1-18.5t0-19.5q1-7 0.5-14.5t-0.5-15.5q0-6 0.5-16.5t0.5-21.5 0-21.5 0-17.5zm-129 151v3q0 6 2 26.5t-9 50.5q-3 8-9 17t-19 14q-7 2-13 4.5t-13 1.5q-7-2-17.5-9t-17.5-17q-5-5-6-11t-2-14q-3-13-4.5-20t-1.5-18q0-20 11.5-35t14.5-20q3-3 5.5-3.5t7.5-5.5q10-5 19-1.5t20 8.5h6q9 5 15 10t11 15z"/><path transform="translate(20.286 10.5) scale(.014 -.014)" d="m52 341q0 3-1 6t0 6q1 0 3.5 0.5t4.5 0.5h6q5 1 10 0.5t10 0.5h30q2 0 4-2t3-3l2-9q0-3 1-7 2-8 2-17 1-3 1-6 0-6 1-6 4 4 6 8.5t5 6.5q3 3 4.5 4t3 2 4.5 2.5 9 5.5q9 5 16.5 8t23.5 11q3 1 10.5 3t16.5 3.5 18.5 2 16.5 0.5q11-1 18-2.5t19-3.5q5-1 16.5-2t15.5-3q25-14 40-24t26-27q2-2 6-4.5t9-7.5 9.5-13.5 4.5-10.5q4-17 9-27.5t6-27.5q1-8 5-17.5t4-19.5 1-22.5-1-35.5q0-7 0.5-13t0.5-12v-46q0-7 0-13t-1-12q0-8 0.5-14t0.5-14q0-2 0-4.5t-2-3.5-5.5-1-5.5 0q-9 0-17-0.5t-17 0.5l-30 3q-4 1-11 0t-9 3q-1 23-0.5 32.5t0.5 17.5q0 5-1 12.5t-2 20.5l3 53q0 10-0.5 15.5t-1 9-1 8.5-0.5 16q0 18-6.5 36t-15.5 36q-5 10-13 18t-21 14q-2 1-5 2t-5 1l-23 2q-17 1-35-6t-22-14q-7-12-11-18t-8-12q-1-3-3-10.5t-4.5-18-4.5-22-2-20.5q0-7 0-13.5t-1-12.5l-2-28-6-38q0-10 0-21.5t-1-21.5v-23q-6-4-10-4-11-2-15.5-4t-16.5-1q-11 1-29-0.5t-29 0.5-11 2.5 0 5.5q0 4 0.5 12.5t0.5 18 0.5 18.5 0.5 14q0 18-1 30t-1 30q0 15-0.5 24.5t-1.5 24.5q0 8 1 20.5t1 26.5q0 17-0.5 33t-0.5 24q-1 17-1 32.5t2 31.5z"/><path transform="translate(27.328 10.5) scale(.014 -.014)" d="m37 271q0 2 3.5 13t4.5 12q2 5 3 8.5t6 10.5q4 5 10.5 12t8.5 10q4 6 9 11 4 5 12 10t13 10q14 4 24.5 8t20.5 4q20 0 38.5-1t32.5-6q15 0 25-3.5t20-8.5q5-10 13-15.5t13-10.5l6-6q7 5 6.5 11t1.5 11q2 6 2 10.5t2 6.5q3 1 7 0.5t8-0.5q9 0 23 1t21-1q2-1 4-3.5t2-3.5v-7q0-6 0.5-15.5t0.5-19-0.5-18.5-0.5-15q0-5-0.5-17t-0.5-25.5 0-24.5 1-12q0-10-1-22t0-17l1-32q1-7-0.5-22t0.5-34q1-7 0.5-20.5t-1-28-1-27-0.5-17.5q0-19-6.5-38.5t-11.5-38.5q-5-10-10-19t-15-20q-4-5-9-12.5t-10-12.5q-5-7-17.5-15.5t-17.5-16.5q-5-6-17-10t-17-5l-35-12q-9-5-18.5-8.5t-23.5-4.5q-2 0-4 0.5t-4-0.5q-10 0-16.5-2.5t-16.5-2.5h-6q-14 0-18.5 0.5t-21.5-0.5q-1 0-6-1t-5 1q0 19-1.5 35t-1.5 31l7 6h34q14 5 25.5 6t26.5 6q14 9 25.5 18t25.5 14q10 9 19 18.5t14 19.5q9 9 11.5 19t7.5 20q0 9 3 18.5t3 19.5v26q0 5-3 2-2-1-3-2-14-9-33-10.5t-38-1.5h-7q-14 1-27 6-13 3-22 6t-20 9q-3 2-9 4.5t-20 10.5l-12 14-22 24q-3 5-5.5 13t-6.5 19q-2 6-5 13t-5 15v84q0 5 2.5 13.5t2.5 12.5q0 2 1 4 0 2 0.5 4t0.5 5zm154-110q5 0 9.5 1t9.5 6q2 4 1.5 8.5t1.5 6.5q5 8 4 10t-1 7-3.5 12.5-8.5 12.5-7 5-13-5q-7-7-7-29 0-2-0.5-9t1.5-13q0-2 5-7.5t8-5.5z"/><path transform="translate(37.45 10.5) scale(.014 -.014)" d="m170 255q0-1 7-0.5t16 0.5h112q8 0 14.5 3t14.5 3v6q2 9 3 27t1 27q0 8-1 16.5t-1 16.5q1 8 0 15.5t-1 15.5v46q0 3 0.5 13.5t-0.5 21.5q0 16 1 26.5t-1 28.5q1 4 0 7.5t-1 8.5q0 2-0.5 3.5t-0.5 3.5q0 4 0 8t1 9h107q5-5 5.5-8.5t0.5-8.5q0-14-0.5-26.5t-0.5-23.5q0-18-2.5-38.5t-2.5-42.5q0-8 1-20t-1-22q-3-25-3.5-48t-0.5-46q0-20 2-40.5t2-37.5q-2-7-2-24.5t0.5-37.5 1-38 0.5-25v-102q-22 0-39.5-2.5t-35.5-2.5q-8 0-13.5-0.5t-13.5-5.5l-5 6q1 7 1 19t-0.5 25.5-0.5 25.5 0 19q1 23 1.5 46.5t0.5 46.5q0-1-0.5 5t-0.5 13.5-0.5 14.5-0.5 9q0 4-2.5 3t-6.5 0q-11 2-18 0.5t-17-1.5q-6 0-15-0.5t-18.5-1-18.5-1.5-15-1l-44-1q-5 0-8.5 0.5t-7.5-0.5q-3 0-3-4 0-2 1-3 0-12 1-24.5t1-26.5v-27q0-26-0.5-51t-4.5-51v-29q-5-4-9.5-4.5t-12.5-0.5-20-0.5-20-5.5h-29q-5 0-9 1.5t-13 4.5v68q0 25-0.5 32t-0.5 11q-2 5-1 12t1 10q2 21 0.5 43.5t-2.5 37.5q-1 9-1 17.5t0 17.5q0 17 1.5 33.5t-0.5 33.5q-2 22 1 36 1 4-1 14.5t-2 22.5q0 16 1 29t1.5 25 1 25-0.5 29q0 4 0 13.5t0.5 20.5 1 20.5 0.5 13.5q0 9-2 13.5t-2 8.5v7h122q4-4 6-8 1-2 1-3 1-20 0-39t-2-39q0-27 1.5-53t2.5-52q0-14-0.5-29t-0.5-29-1-31 0-23z"/><path transform="translate(44.268 10.5) scale(.014 -.014)" d="m399-24-7-1q-5-1-6.5-0.5t-9.5 0.5q-1 0-6-1t-11-2-13-0.5-11 2.5q-5 0-7 1t-7 1q-5 4-5.5 12t-0.5 13v25l-8-11-18-17q-10-7-16.5-11.5t-15.5-9.5q-15-9-32.5-12t-32.5-3-31.5 6-29.5 11q-4 1-7.5 3.5t-6.5 4.5q-6 5-13.5 10t-12.5 10q-3 2-5.5 4.5t-6.5 4.5q-5 3-9 10-5 11-12.5 21.5t-12.5 24.5q-3 11-8 21t-5 19q0 5-1 17t-1 17q0 9 0.5 14t0.5 15q0 5 1.5 10.5t3.5 14.5q2 11 3 23.5t3 20.5q7 13 9.5 16t4.5 11q2 6 5.5 15.5t10.5 14.5q3 2 9 7t12.5 11 11.5 10.5 7 4.5l18 8q8 3 18 4.5t19 1.5l31 1q5 0 11.5 0t8.5-1q5 0 10-3t10-3 12.5-3.5 12.5-8.5q10-4 15.5-9.5t10.5-10.5 9.5-9.5 9.5-9.5q0-3 4-5 2-1 3-2 2 2 2.5 8t3.5 11q1 14 1.5 25.5t1.5 15.5q-1 4 1 11.5t7 5.5q2 1 9 0t16-2.5 18.5-2.5 16.5-1q1 0 1-5t-1-8l6-96v-108q0-3-0.5-6t-0.5-6q1-9 1-18.5t0-19.5q1-7 0.5-14.5t-0.5-15.5q0-6 0.5-16.5t0.5-21.5 0-21.5 0-17.5zm-129 151v3q0 6 2 26.5t-9 50.5q-3 8-9 17t-19 14q-7 2-13 4.5t-13 1.5q-7-2-17.5-9t-17.5-17q-5-5-6-11t-2-14q-3-13-4.5-20t-1.5-18q0-20 11.5-35t14.5-20q3-3 5.5-3.5t7.5-5.5q10-5 19-1.5t20 8.5h6q9 5 15 10t11 15z"/><path transform="translate(50.498 10.5) scale(.014 -.014)" d="m338 192q0-5-5-10-3-3-9-4t-11-1q-7-2-17-2t-17 0q-14 0-21-0.5t-23-2.5l-60-5v-12q0-11 3-21.5t11-21.5q5-8 12-15t14-9q6-2 11-4t9.5-3.5 8.5-0.5q27 0 39.5 6t30.5 15q4 0 8.5 4t6.5 5q5 2 14.5 10t14.5 10q3-2 2-13.5t1-21.5v-31q-5-6-7.5-8.5t-4-4.5-4.5-5-9-9q-18-18-38-24-11-6-24-8.5t-21-5.5q-5-1-9-1.5t-8-0.5h-8q-19 0-37 0.5t-38 10.5q-7-1-19.5 4t-16.5 10q-11 6-19.5 15t-18.5 16q-14 10-20 21t-11 23q-5 9-9 20t-8 22q0 11-0.5 21t-0.5 20v37q0 18 7.5 43t18.5 43q3 4 7 8 3 4 7.5 8t9.5 9q3 1 6.5 3t10.5 6q3 2 7.5 7t12.5 7q11 4 21 8.5t15 4.5q7 0 25.5-1t35.5-2q9-1 15-3t9-2q8-1 13.5-2t11.5-3q18-6 26.5-12.5t14.5-13.5q4-5 7.5-11.5t7.5-11.5q5-6 9.5-16.5t6.5-20.5q2-8 3-21t1-23-0.5-15-0.5-14zm-86 58q0 2 0 7.5t-2 7.5q-8 13-22.5 15.5t-25.5 0.5q-7-2-9-5t-6-9q-2-2-3-4t-3-4-2.5-5.5-1.5-6.5q-2-5-2-7t2-10q4-2 15.5-3.5t24-1.5 24 1.5 15.5 3.5q1 1-1.5 5.5t-2.5 14.5z"/><path transform="translate(55.986 10.5) scale(.014 -.014)" d="m37 128q0 7 0.5 21t-0.5 27q1 9 1 18t0 19l-3 81v45q11 0 23 0.5t27-1.5q4-1 8-1h14q7-2 7-1.5t3-1.5q0-5-1-7.5t-1-7.5v-32q4 5 5.5 8.5t6.5 8.5l6 2q13 13 32 17t38 2q4 0 13-3.5t18-8.5q7-1 12-4l3-3q10-9 19-15.5t13-16.5q10-14 16-30t11-35q0-5-1-9t-6-4q-15-5-27.5-4.5t-33.5-1.5h-11q-2 1-2.5 3t-0.5 3q-1 6-2.5 10.5t-1.5 7.5q0 2-1 5t-2 5q-2 3-3 5-19 19-37 19-2 0-5.5 0t-6.5-2q-5-2-14.5-6.5t-12.5-7.5q-5-5-10.5-10.5t-8.5-12.5q-1-4-1.5-13.5t-0.5-11.5q-2-9-4-24t-2-26q0-7-1.5-18t-1.5-20q0-7-0.5-13t-0.5-12v-38q0-6-0.5-13t-0.5-14v-22q-50-11-69 0-2 7-3 17.5t0 12.5q2 18 1 36t-1 37q-1 10 0 21t1 20z"/><path transform="translate(60.578 10.5) scale(.014 -.014)" d="m399-24-7-1q-5-1-6.5-0.5t-9.5 0.5q-1 0-6-1t-11-2-13-0.5-11 2.5q-5 0-7 1t-7 1q-5 4-5.5 12t-0.5 13v25l-8-11-18-17q-10-7-16.5-11.5t-15.5-9.5q-15-9-32.5-12t-32.5-3-31.5 6-29.5 11q-4 1-7.5 3.5t-6.5 4.5q-6 5-13.5 10t-12.5 10q-3 2-5.5 4.5t-6.5 4.5q-5 3-9 10-5 11-12.5 21.5t-12.5 24.5q-3 11-8 21t-5 19q0 5-1 17t-1 17q0 9 0.5 14t0.5 15q0 5 1.5 10.5t3.5 14.5q2 11 3 23.5t3 20.5q7 13 9.5 16t4.5 11q2 6 5.5 15.5t10.5 14.5q3 2 9 7t12.5 11 11.5 10.5 7 4.5l18 8q8 3 18 4.5t19 1.5l31 1q5 0 11.5 0t8.5-1q5 0 10-3t10-3 12.5-3.5 12.5-8.5q10-4 15.5-9.5t10.5-10.5 9.5-9.5 9.5-9.5q0-3 4-5 2-1 3-2 2 2 2.5 8t3.5 11q1 14 1.5 25.5t1.5 15.5q-1 4 1 11.5t7 5.5q2 1 9 0t16-2.5 18.5-2.5 16.5-1q1 0 1-5t-1-8l6-96v-108q0-3-0.5-6t-0.5-6q1-9 1-18.5t0-19.5q1-7 0.5-14.5t-0.5-15.5q0-6 0.5-16.5t0.5-21.5 0-21.5 0-17.5zm-129 151v3q0 6 2 26.5t-9 50.5q-3 8-9 17t-19 14q-7 2-13 4.5t-13 1.5q-7-2-17.5-9t-17.5-17q-5-5-6-11t-2-14q-3-13-4.5-20t-1.5-18q0-20 11.5-35t14.5-20q3-3 5.5-3.5t7.5-5.5q10-5 19-1.5t20 8.5h6q9 5 15 10t11 15z"/><path transform="translate(66.808 10.5) scale(.014 -.014)" d="m52 341q0 3-1 6t0 6q1 0 3.5 0.5t4.5 0.5h6q5 1 10 0.5t10 0.5h30q2 0 4-2t3-3l2-9q0-3 1-7 2-8 2-17 1-3 1-6 0-6 1-6 4 4 6 8.5t5 6.5q3 3 4.5 4t3 2 4.5 2.5 9 5.5q9 5 16.5 8t23.5 11q3 1 10.5 3t16.5 3.5 18.5 2 16.5 0.5q11-1 18-2.5t19-3.5q5-1 16.5-2t15.5-3q25-14 40-24t26-27q2-2 6-4.5t9-7.5 9.5-13.5 4.5-10.5q4-17 9-27.5t6-27.5q1-8 5-17.5t4-19.5 1-22.5-1-35.5q0-7 0.5-13t0.5-12v-46q0-7 0-13t-1-12q0-8 0.5-14t0.5-14q0-2 0-4.5t-2-3.5-5.5-1-5.5 0q-9 0-17-0.5t-17 0.5l-30 3q-4 1-11 0t-9 3q-1 23-0.5 32.5t0.5 17.5q0 5-1 12.5t-2 20.5l3 53q0 10-0.5 15.5t-1 9-1 8.5-0.5 16q0 18-6.5 36t-15.5 36q-5 10-13 18t-21 14q-2 1-5 2t-5 1l-23 2q-17 1-35-6t-22-14q-7-12-11-18t-8-12q-1-3-3-10.5t-4.5-18-4.5-22-2-20.5q0-7 0-13.5t-1-12.5l-2-28-6-38q0-10 0-21.5t-1-21.5v-23q-6-4-10-4-11-2-15.5-4t-16.5-1q-11 1-29-0.5t-29 0.5-11 2.5 0 5.5q0 4 0.5 12.5t0.5 18 0.5 18.5 0.5 14q0 18-1 30t-1 30q0 15-0.5 24.5t-1.5 24.5q0 8 1 20.5t1 26.5q0 17-0.5 33t-0.5 24q-1 17-1 32.5t2 31.5z"/><path transform="translate(73.85 10.5) scale(.014 -.014)" d="m37 271q0 2 3.5 13t4.5 12q2 5 3 8.5t6 10.5q4 5 10.5 12t8.5 10q4 6 9 11 4 5 12 10t13 10q14 4 24.5 8t20.5 4q20 0 38.5-1t32.5-6q15 0 25-3.5t20-8.5q5-10 13-15.5t13-10.5l6-6q7 5 6.5 11t1.5 11q2 6 2 10.5t2 6.5q3 1 7 0.5t8-0.5q9 0 23 1t21-1q2-1 4-3.5t2-3.5v-7q0-6 0.5-15.5t0.5-19-0.5-18.5-0.5-15q0-5-0.5-17t-0.5-25.5 0-24.5 1-12q0-10-1-22t0-17l1-32q1-7-0.5-22t0.5-34q1-7 0.5-20.5t-1-28-1-27-0.5-17.5q0-19-6.5-38.5t-11.5-38.5q-5-10-10-19t-15-20q-4-5-9-12.5t-10-12.5q-5-7-17.5-15.5t-17.5-16.5q-5-6-17-10t-17-5l-35-12q-9-5-18.5-8.5t-23.5-4.5q-2 0-4 0.5t-4-0.5q-10 0-16.5-2.5t-16.5-2.5h-6q-14 0-18.5 0.5t-21.5-0.5q-1 0-6-1t-5 1q0 19-1.5 35t-1.5 31l7 6h34q14 5 25.5 6t26.5 6q14 9 25.5 18t25.5 14q10 9 19 18.5t14 19.5q9 9 11.5 19t7.5 20q0 9 3 18.5t3 19.5v26q0 5-3 2-2-1-3-2-14-9-33-10.5t-38-1.5h-7q-14 1-27 6-13 3-22 6t-20 9q-3 2-9 4.5t-20 10.5l-12 14-22 24q-3 5-5.5 13t-6.5 19q-2 6-5 13t-5 15v84q0 5 2.5 13.5t2.5 12.5q0 2 1 4 0 2 0.5 4t0.5 5zm154-110q5 0 9.5 1t9.5 6q2 4 1.5 8.5t1.5 6.5q5 8 4 10t-1 7-3.5 12.5-8.5 12.5-7 5-13-5q-7-7-7-29 0-2-0.5-9t1.5-13q0-2 5-7.5t8-5.5z"/></svg>