<svg width="85" height="12" viewBox="0 0 85 12" fill="none" xmlns="http://www.w3.org/2000/svg">
<path d="M5.02 6.94C5.13333 7.04 5.24667 7.13667 5.36 7.23C5.47333 7.31667 5.57 7.40333 5.65 7.49C5.71 7.53667 5.78667 7.6 5.88 7.68C5.97333 7.75333 6.05667 7.80667 6.13 7.84C6.17667 7.88667 6.23 7.92667 6.29 7.96C6.35 8 6.4 8.03667 6.44 8.07C6.48667 8.11667 6.53333 8.16333 6.58 8.21C6.62667 8.25 6.66333 8.29667 6.69 8.35C6.67667 8.37 6.66667 8.39333 6.66 8.42C6.64 8.46667 6.61667 8.50667 6.59 8.54C6.51667 8.61333 6.45667 8.68333 6.41 8.75C6.36333 8.82333 6.31667 8.88333 6.27 8.93L6.16 9.04C6.14 9.06 6.13 9.07333 6.13 9.08C6.08333 9.08 6.04 9.06333 6 9.03C5.96667 8.99 5.92667 8.95 5.88 8.91C5.75333 8.83667 5.67 8.78 5.63 8.74C5.59 8.7 5.51 8.66 5.39 8.62C5.35667 8.6 5.30667 8.57333 5.24 8.54C5.16667 8.5 5.11667 8.47 5.09 8.45C4.97 8.41667 4.85333 8.35667 4.74 8.27C4.62667 8.18333 4.50667 8.10333 4.38 8.03L3.29 7.32C3.19667 7.27333 3.11 7.22 3.03 7.16C2.95 7.10667 2.86333 7.05667 2.77 7.01C2.70333 6.97 2.65 6.93333 2.61 6.9C2.56333 6.87333 2.51333 6.83667 2.46 6.79C2.38667 6.74333 2.30667 6.69667 2.22 6.65C2.14 6.60333 2.06 6.56333 1.98 6.53L1.87 6.48V6.56C1.87 6.63333 1.86333 6.70333 1.85 6.77C1.83667 6.83667 1.83 6.89333 1.83 6.94C1.82333 7.18 1.81 7.42 1.79 7.66C1.77 7.9 1.76 8.14 1.76 8.38C1.76 8.45333 1.75667 8.53 1.75 8.61C1.75 8.68333 1.72667 8.75667 1.68 8.83H1.61C1.49667 8.83 1.40333 8.82667 1.33 8.82C1.25 8.82 1.16 8.82333 1.06 8.83C0.986667 8.83667 0.92 8.84 0.86 8.84C0.806667 8.83333 0.743333 8.83 0.67 8.83C0.656667 8.80333 0.643333 8.78 0.63 8.76C0.61 8.74 0.6 8.71667 0.6 8.69C0.62 8.52333 0.616667 8.26333 0.59 7.91C0.57 7.55 0.56 7.14667 0.56 6.7C0.56 6.58 0.56 6.46333 0.56 6.35C0.566667 6.23667 0.566667 6.12 0.56 6C0.54 5.85333 0.53 5.70333 0.53 5.55C0.53 5.40333 0.533333 5.25 0.54 5.09V4.7C0.54 4.56 0.536667 4.41667 0.53 4.27C0.516667 4.13 0.51 3.98333 0.51 3.83C0.51 3.75667 0.513333 3.68333 0.52 3.61C0.526667 3.53667 0.533333 3.46 0.54 3.38C0.54 3.30667 0.533333 3.23 0.52 3.15C0.506667 3.06333 0.51 2.98333 0.53 2.91C0.53 2.88333 0.533333 2.8 0.54 2.66C0.54 2.52 0.54 2.36333 0.54 2.19C0.54 2.02333 0.54 1.86 0.54 1.7C0.533333 1.53333 0.53 1.41 0.53 1.33L0.5 0.61C0.546667 0.563333 0.576667 0.54 0.59 0.54C0.603333 0.533333 0.633333 0.53 0.68 0.53C0.7 0.53 0.713333 0.533333 0.72 0.54C0.733333 0.54 0.743333 0.54 0.75 0.54C0.763333 0.54 0.816667 0.543334 0.91 0.55C1.00333 0.556667 1.10333 0.559999 1.21 0.559999C1.32333 0.566666 1.43 0.573333 1.53 0.58C1.63 0.58 1.68333 0.586666 1.69 0.599999C1.69667 0.673333 1.7 0.733333 1.7 0.78C1.7 0.826666 1.7 0.873333 1.7 0.92C1.69333 0.966667 1.68667 1.02 1.68 1.08C1.68 1.14 1.68 1.21667 1.68 1.31V1.58C1.64 1.84 1.61667 2.10333 1.61 2.37C1.61 2.63667 1.61 2.89667 1.61 3.15C1.59667 3.43 1.58333 3.63 1.57 3.75C1.55667 3.87667 1.55 4.02667 1.55 4.2V4.49C1.55 4.53667 1.54667 4.57333 1.54 4.6C1.54 4.62667 1.56333 4.64 1.61 4.64L1.68 4.57C1.72667 4.52333 1.77333 4.47 1.82 4.41C1.86667 4.35 1.90667 4.30333 1.94 4.27C1.95333 4.25 1.98333 4.21333 2.03 4.16C2.07667 4.10667 2.10667 4.07333 2.12 4.06C2.22667 3.88667 2.32 3.76333 2.4 3.69C2.48 3.61667 2.55667 3.51333 2.63 3.38C2.68333 3.3 2.73667 3.21667 2.79 3.13C2.84333 3.05 2.90667 2.97 2.98 2.89C2.98 2.89 2.99 2.88333 3.01 2.87C3.05667 2.76333 3.11 2.66667 3.17 2.58C3.23667 2.49333 3.30333 2.39667 3.37 2.29C3.44333 2.19 3.51667 2.08333 3.59 1.97C3.65667 1.85667 3.72667 1.75 3.8 1.65L4.63 0.43L4.8 0.18C4.82 0.153333 4.85 0.12 4.89 0.0799999C4.93 0.0399999 4.96333 0.0133333 4.99 0C5.03 0.0266667 5.08667 0.063333 5.16 0.11C5.23333 0.156666 5.32333 0.216667 5.43 0.29C5.50333 0.336667 5.57667 0.386666 5.65 0.44C5.71667 0.486666 5.77333 0.566667 5.82 0.68C5.82 0.706667 5.78667 0.773333 5.72 0.88C5.65333 0.98 5.58333 1.09 5.51 1.21C5.43667 1.32333 5.36667 1.43 5.3 1.53C5.23333 1.63 5.19667 1.68667 5.19 1.7C5.13667 1.79333 5.08667 1.89 5.04 1.99C5 2.09 4.95667 2.16333 4.91 2.21C4.83667 2.30333 4.77 2.40333 4.71 2.51C4.65 2.61667 4.58667 2.72 4.52 2.82C4.41333 2.98 4.30333 3.13 4.19 3.27C4.07 3.41 3.95667 3.55 3.85 3.69C3.74333 3.83 3.64 3.96667 3.54 4.1C3.43333 4.22667 3.36667 4.3 3.34 4.32C3.27333 4.39333 3.21 4.46333 3.15 4.53C3.08333 4.59 3.01667 4.65 2.95 4.71C2.88333 4.77667 2.82667 4.84667 2.78 4.92C2.73333 4.98667 2.68667 5.05 2.64 5.11C2.68 5.13667 2.70667 5.16333 2.72 5.19C2.73333 5.21667 2.76333 5.24333 2.81 5.27C2.92333 5.35 3.04 5.44333 3.16 5.55C3.28 5.66333 3.39667 5.75667 3.51 5.83C3.67 5.91667 3.81333 6.01333 3.94 6.12C4.07333 6.22667 4.22 6.34667 4.38 6.48C4.41333 6.52667 4.47 6.56667 4.55 6.6C4.63 6.64 4.70667 6.70333 4.78 6.79C4.82 6.82333 4.86 6.85333 4.9 6.88C4.94667 6.9 4.98667 6.92 5.02 6.94ZM8.82 7.19C8.83333 7.37667 8.83667 7.54667 8.83 7.7C8.82333 7.84667 8.81 7.98667 8.79 8.12C8.79 8.17333 8.77667 8.21333 8.75 8.24C8.65667 8.26 8.54667 8.27667 8.42 8.29C8.3 8.30333 8.19 8.30667 8.09 8.3C8.00333 8.28667 7.92 8.28667 7.84 8.3C7.75333 8.32 7.69 8.33 7.65 8.33C7.65 8.27 7.64667 8.21667 7.64 8.17C7.63333 8.12333 7.63333 8.06 7.64 7.98C7.64667 7.9 7.65 7.82 7.65 7.74C7.64333 7.65333 7.64 7.57333 7.64 7.5V6.81C7.63333 6.59667 7.63 6.38 7.63 6.16C7.63 5.93333 7.62333 5.78333 7.61 5.71C7.60333 5.62333 7.60667 5.54 7.62 5.46C7.63333 5.37333 7.64 5.28667 7.64 5.2C7.63333 5.07333 7.63 4.94 7.63 4.8C7.63667 4.66667 7.64 4.53667 7.64 4.41C7.64 4.29667 7.63667 4.14667 7.63 3.96C7.61667 3.78 7.62 3.63333 7.64 3.52C7.71333 3.50667 7.80667 3.5 7.92 3.5C8.03333 3.5 8.15333 3.49333 8.28 3.48C8.38667 3.47333 8.49 3.47 8.59 3.47C8.69667 3.47 8.77333 3.47 8.82 3.47C8.83333 3.47 8.84 3.49333 8.84 3.54C8.83333 3.59333 8.83 3.63 8.83 3.65C8.82333 3.88333 8.82333 4.08667 8.83 4.26C8.83667 4.43333 8.83333 4.61333 8.82 4.8C8.82667 4.98667 8.82667 5.14667 8.82 5.28C8.82 5.41333 8.81 5.57333 8.79 5.76C8.79 5.79333 8.79 5.87 8.79 5.99C8.79 6.11 8.79333 6.24667 8.8 6.4C8.81333 6.55333 8.82 6.70333 8.82 6.85C8.82 6.99667 8.82 7.11 8.82 7.19ZM7.63 2.57C7.61667 2.52333 7.61333 2.45333 7.62 2.36C7.62667 2.26667 7.63 2.17 7.63 2.07C7.63 2.02333 7.62667 1.98 7.62 1.94C7.61333 1.90667 7.61 1.87 7.61 1.83C7.61 1.81 7.61333 1.79667 7.62 1.79C7.62667 1.77667 7.63 1.76333 7.63 1.75H8.63C8.67667 1.75 8.70667 1.75 8.72 1.75C8.72667 1.75667 8.73 1.78333 8.73 1.83V2.74C8.67667 2.74667 8.59 2.75 8.47 2.75C8.35667 2.75 8.24 2.75 8.12 2.75C7.99333 2.75 7.88333 2.75 7.79 2.75C7.69 2.74333 7.64 2.73 7.64 2.71C7.63333 2.68333 7.63 2.63667 7.63 2.57ZM10.06 6.62C10.06 6.55333 10.0633 6.45333 10.07 6.32C10.0767 6.19333 10.0733 6.07 10.06 5.95C10.0733 5.86333 10.08 5.77667 10.08 5.69C10.08 5.61 10.08 5.52333 10.08 5.43L10.03 4.29V3.66C10.1367 3.66 10.2467 3.66 10.36 3.66C10.4667 3.65333 10.59 3.66 10.73 3.68C10.77 3.68667 10.81 3.69 10.85 3.69H11.04C11.1067 3.71 11.14 3.71667 11.14 3.71C11.14 3.71 11.1533 3.71667 11.18 3.73C11.18 3.77667 11.1767 3.81333 11.17 3.84C11.1567 3.86 11.15 3.89333 11.15 3.94V4.39C11.19 4.34333 11.2167 4.30333 11.23 4.27C11.2433 4.23667 11.2733 4.19667 11.32 4.15L11.41 4.13C11.53 4.00333 11.6767 3.92333 11.85 3.89C12.03 3.85 12.21 3.84 12.39 3.86C12.4233 3.86 12.4833 3.87667 12.57 3.91C12.65 3.94333 12.7333 3.98333 12.82 4.03C12.8867 4.03667 12.9433 4.05333 12.99 4.08L13.03 4.13C13.1233 4.21 13.2133 4.28 13.3 4.34C13.38 4.4 13.44 4.47667 13.48 4.57C13.5733 4.70333 13.6467 4.84333 13.7 4.99C13.76 5.14333 13.8133 5.30667 13.86 5.48C13.86 5.52667 13.8533 5.57 13.84 5.61C13.8333 5.65 13.8067 5.67 13.76 5.67C13.62 5.71667 13.49 5.73667 13.37 5.73C13.2567 5.72333 13.1 5.73 12.9 5.75H12.75C12.73 5.74333 12.72 5.73 12.72 5.71C12.7133 5.69 12.71 5.67667 12.71 5.67C12.6967 5.61 12.6833 5.56 12.67 5.52C12.6567 5.48 12.65 5.44333 12.65 5.41C12.65 5.39667 12.6467 5.37333 12.64 5.34C12.6267 5.31333 12.6167 5.29 12.61 5.27C12.59 5.24333 12.5767 5.22 12.57 5.2C12.39 5.02667 12.2167 4.94 12.05 4.94C12.03 4.94 12.0033 4.94 11.97 4.94C11.9367 4.94 11.9067 4.95 11.88 4.97C11.8333 4.98333 11.7667 5.01333 11.68 5.06C11.5933 5.1 11.5333 5.13333 11.5 5.16C11.4533 5.20667 11.4067 5.25667 11.36 5.31C11.3067 5.36333 11.2667 5.42 11.24 5.48C11.2267 5.52 11.22 5.58333 11.22 5.67C11.2133 5.76333 11.21 5.81667 11.21 5.83C11.19 5.91667 11.17 6.03 11.15 6.17C11.1367 6.31 11.13 6.43 11.13 6.53C11.13 6.59667 11.1233 6.68333 11.11 6.79C11.09 6.89 11.08 6.98333 11.08 7.07C11.08 7.13 11.08 7.19 11.08 7.25C11.0733 7.30333 11.07 7.36 11.07 7.42V7.95C11.07 8.00333 11.0667 8.06333 11.06 8.13C11.06 8.19667 11.06 8.26333 11.06 8.33V8.63C10.5933 8.73667 10.27 8.73667 10.09 8.63C10.07 8.57 10.0567 8.49 10.05 8.39C10.0367 8.29 10.0367 8.23 10.05 8.21C10.07 8.04333 10.0733 7.87667 10.06 7.71C10.0533 7.54333 10.05 7.37 10.05 7.19C10.0367 7.09667 10.0367 7 10.05 6.9C10.0567 6.79333 10.06 6.7 10.06 6.62ZM19.72 8.68V8.75L19.62 8.76C19.5733 8.76667 19.5433 8.77 19.53 8.77C19.5167 8.76333 19.4733 8.76 19.4 8.76C19.3933 8.76 19.3667 8.76333 19.32 8.77C19.2733 8.78333 19.22 8.79333 19.16 8.8C19.1067 8.81333 19.0467 8.81667 18.98 8.81C18.9133 8.80333 18.8633 8.79 18.83 8.77C18.7833 8.77 18.75 8.76667 18.73 8.76C18.71 8.75333 18.6767 8.75 18.63 8.75C18.5833 8.71 18.5567 8.65333 18.55 8.58C18.55 8.50667 18.55 8.44667 18.55 8.4V8.05L18.43 8.2L18.18 8.44C18.0867 8.50667 18.01 8.56 17.95 8.6C17.89 8.64 17.8167 8.68333 17.73 8.73C17.59 8.81667 17.44 8.87333 17.28 8.9C17.1133 8.92667 16.96 8.94 16.82 8.94C16.68 8.94 16.5333 8.91333 16.38 8.86C16.2267 8.8 16.09 8.74667 15.97 8.7C15.93 8.69333 15.8967 8.68 15.87 8.66C15.8367 8.63333 15.8033 8.61 15.77 8.59C15.7167 8.54333 15.6567 8.49667 15.59 8.45C15.5167 8.40333 15.4567 8.35667 15.41 8.31C15.3833 8.29 15.3567 8.27 15.33 8.25C15.31 8.22333 15.28 8.20333 15.24 8.19C15.1933 8.15667 15.1533 8.11 15.12 8.05C15.0733 7.94333 15.0133 7.84333 14.94 7.75C14.8733 7.65 14.8167 7.53333 14.77 7.4C14.7367 7.3 14.6967 7.20333 14.65 7.11C14.6033 7.01667 14.58 6.92667 14.58 6.84C14.58 6.79333 14.5767 6.71333 14.57 6.6C14.5633 6.49333 14.56 6.41667 14.56 6.37C14.56 6.28333 14.56 6.21667 14.56 6.17C14.5667 6.12333 14.57 6.05333 14.57 5.96C14.57 5.91333 14.5767 5.86333 14.59 5.81C14.6033 5.76333 14.62 5.69667 14.64 5.61C14.66 5.51 14.6733 5.4 14.68 5.28C14.6933 5.16667 14.7067 5.07 14.72 4.99C14.7867 4.87 14.8333 4.79667 14.86 4.77C14.88 4.74333 14.9 4.69333 14.92 4.62C14.94 4.56 14.9667 4.48667 15 4.4C15.0333 4.31333 15.08 4.24667 15.14 4.2C15.1733 4.18 15.2167 4.14667 15.27 4.1C15.3233 4.05333 15.3833 4 15.45 3.94C15.51 3.88667 15.5633 3.84 15.61 3.8C15.6567 3.75333 15.6867 3.73 15.7 3.73L15.96 3.62C16.0333 3.59333 16.1167 3.57333 16.21 3.56C16.3033 3.54667 16.39 3.54 16.47 3.54L16.91 3.52C16.9567 3.52 17.01 3.52 17.07 3.52C17.13 3.52 17.17 3.52667 17.19 3.54C17.2367 3.54 17.2833 3.55333 17.33 3.58C17.3767 3.60667 17.4233 3.62 17.47 3.62C17.5167 3.62 17.5733 3.63667 17.64 3.67C17.7133 3.70333 17.7733 3.74333 17.82 3.79C17.9133 3.83 17.9867 3.87333 18.04 3.92C18.0867 3.97333 18.1333 4.02333 18.18 4.07C18.2267 4.11667 18.27 4.16 18.31 4.2C18.3567 4.24667 18.4033 4.29333 18.45 4.34C18.45 4.36667 18.4667 4.39 18.5 4.41C18.52 4.41667 18.5367 4.42333 18.55 4.43C18.5633 4.41667 18.5733 4.38 18.58 4.32C18.5867 4.26667 18.6033 4.21667 18.63 4.17C18.6367 4.03667 18.6433 3.91667 18.65 3.81C18.6567 3.70333 18.6633 3.63 18.67 3.59C18.6633 3.55667 18.67 3.50333 18.69 3.43C18.7033 3.36333 18.7333 3.34 18.78 3.36C18.8 3.34667 18.8433 3.34667 18.91 3.36C18.9767 3.36667 19.05 3.37667 19.13 3.39C19.2167 3.40333 19.3033 3.41667 19.39 3.43C19.4833 3.43667 19.56 3.44 19.62 3.44C19.6333 3.44 19.64 3.46333 19.64 3.51C19.64 3.55667 19.6333 3.59333 19.62 3.62L19.71 4.97V6.48C19.71 6.50667 19.7067 6.53333 19.7 6.56C19.6933 6.58667 19.69 6.61667 19.69 6.65C19.7033 6.73 19.71 6.81333 19.71 6.9C19.71 6.99333 19.71 7.08667 19.71 7.18C19.7167 7.24667 19.72 7.31333 19.72 7.38C19.7133 7.45333 19.71 7.52667 19.71 7.6C19.71 7.65333 19.7133 7.73 19.72 7.83C19.72 7.93 19.72 8.03 19.72 8.13C19.72 8.23 19.72 8.33 19.72 8.43C19.72 8.53 19.72 8.61333 19.72 8.68ZM17.92 6.69V6.63V6.59C17.92 6.53667 17.9267 6.41333 17.94 6.22C17.96 6.02667 17.92 5.79 17.82 5.51C17.7933 5.43667 17.75 5.35667 17.69 5.27C17.6367 5.19 17.55 5.12667 17.43 5.08C17.3633 5.06 17.3 5.04 17.24 5.02C17.1867 4.99333 17.1267 4.98333 17.06 4.99C16.9933 5.01 16.9133 5.05333 16.82 5.12C16.72 5.18667 16.6367 5.26667 16.57 5.36C16.5233 5.40667 16.4967 5.45667 16.49 5.51C16.4767 5.57 16.4667 5.63667 16.46 5.71C16.4333 5.83 16.4133 5.92333 16.4 5.99C16.3867 6.05667 16.38 6.14 16.38 6.24C16.38 6.42667 16.4333 6.59 16.54 6.73C16.6467 6.87 16.7133 6.96333 16.74 7.01C16.7667 7.03667 16.7933 7.05333 16.82 7.06C16.84 7.06667 16.8733 7.09333 16.92 7.14C17.0133 7.18667 17.1033 7.19333 17.19 7.16C17.27 7.12667 17.3633 7.08667 17.47 7.04H17.55C17.6367 6.99333 17.7067 6.94667 17.76 6.9C17.82 6.85333 17.8733 6.78333 17.92 6.69ZM21.09 3.64C21.09 3.60667 21.0867 3.57667 21.08 3.55C21.0733 3.52333 21.0733 3.49667 21.08 3.47C21.0867 3.47 21.1033 3.46667 21.13 3.46C21.15 3.45333 21.17 3.45 21.19 3.45H21.28C21.3267 3.44333 21.3733 3.44333 21.42 3.45C21.4667 3.45 21.5133 3.44667 21.56 3.44H21.98C21.9933 3.44 22.01 3.45 22.03 3.47C22.05 3.49 22.0633 3.50333 22.07 3.51L22.1 3.64C22.1 3.66667 22.1067 3.69667 22.12 3.73C22.1333 3.81 22.14 3.89 22.14 3.97C22.1533 3.99667 22.16 4.02667 22.16 4.06C22.16 4.11333 22.1633 4.14 22.17 4.14C22.21 4.1 22.24 4.06 22.26 4.02C22.2733 3.98 22.2967 3.95 22.33 3.93C22.3567 3.90333 22.3767 3.88333 22.39 3.87C22.4033 3.86333 22.4167 3.85667 22.43 3.85C22.4433 3.83667 22.4633 3.82333 22.49 3.81C22.5233 3.79667 22.5667 3.77 22.62 3.73C22.7067 3.68333 22.7833 3.64667 22.85 3.62C22.9233 3.59333 23.0333 3.54333 23.18 3.47C23.2067 3.45667 23.2567 3.44333 23.33 3.43C23.3967 3.41 23.4733 3.39333 23.56 3.38C23.64 3.36667 23.7267 3.35667 23.82 3.35C23.9067 3.34333 23.9833 3.34 24.05 3.34C24.15 3.35333 24.2333 3.36667 24.3 3.38C24.3667 3.39333 24.4567 3.41 24.57 3.43C24.6167 3.43667 24.6933 3.44333 24.8 3.45C24.9067 3.46333 24.9767 3.48 25.01 3.5C25.2433 3.62667 25.43 3.73667 25.57 3.83C25.71 3.92333 25.8333 4.05 25.94 4.21C25.96 4.23 25.9867 4.25 26.02 4.27C26.06 4.29667 26.1033 4.33333 26.15 4.38C26.1967 4.42667 26.24 4.49 26.28 4.57C26.32 4.65 26.34 4.69667 26.34 4.71C26.38 4.87 26.4233 5 26.47 5.1C26.5167 5.2 26.5433 5.32667 26.55 5.48C26.5633 5.56 26.5867 5.64333 26.62 5.73C26.66 5.81667 26.68 5.90667 26.68 6C26.68 6.09333 26.6833 6.2 26.69 6.32C26.7033 6.43333 26.7 6.59667 26.68 6.81C26.68 6.87667 26.6833 6.94 26.69 7C26.69 7.05333 26.69 7.10667 26.69 7.16V7.81C26.69 7.87667 26.69 7.93667 26.69 7.99C26.69 8.04333 26.6867 8.1 26.68 8.16C26.68 8.23333 26.6833 8.29667 26.69 8.35C26.69 8.41 26.69 8.47667 26.69 8.55C26.69 8.57 26.69 8.59 26.69 8.61C26.69 8.63667 26.6833 8.65333 26.67 8.66C26.65 8.67333 26.6233 8.68 26.59 8.68C26.5567 8.68 26.53 8.68 26.51 8.68C26.43 8.68 26.35 8.68 26.27 8.68C26.1967 8.68667 26.12 8.68667 26.04 8.68L25.62 8.63C25.58 8.62333 25.5267 8.62333 25.46 8.63C25.3933 8.64333 25.3533 8.63 25.34 8.59C25.3267 8.37667 25.3233 8.22667 25.33 8.14C25.3367 8.04667 25.34 7.96333 25.34 7.89C25.34 7.84333 25.3333 7.78667 25.32 7.72C25.3133 7.64667 25.3033 7.55 25.29 7.43L25.34 6.69C25.34 6.59667 25.3367 6.52333 25.33 6.47C25.3233 6.41667 25.3167 6.37667 25.31 6.35C25.31 6.31667 25.3067 6.27667 25.3 6.23C25.2933 6.18333 25.29 6.10667 25.29 6C25.29 5.83333 25.26 5.66667 25.2 5.5C25.14 5.33333 25.07 5.16333 24.99 4.99C24.9433 4.89667 24.88 4.81333 24.8 4.74C24.7267 4.66667 24.63 4.60333 24.51 4.55C24.49 4.53667 24.4667 4.52667 24.44 4.52C24.4133 4.50667 24.39 4.5 24.37 4.5L24.05 4.48C23.89 4.46667 23.7267 4.49333 23.56 4.56C23.3933 4.62667 23.29 4.69333 23.25 4.76C23.1833 4.86667 23.1333 4.95 23.1 5.01C23.06 5.06333 23.02 5.12 22.98 5.18C22.9733 5.20667 22.96 5.25333 22.94 5.32C22.92 5.39333 22.9 5.47667 22.88 5.57C22.8533 5.67 22.8333 5.77333 22.82 5.88C22.8 5.98667 22.79 6.08333 22.79 6.17C22.79 6.23667 22.79 6.3 22.79 6.36C22.79 6.42 22.7833 6.47667 22.77 6.53L22.75 6.93L22.66 7.46C22.66 7.55333 22.66 7.65333 22.66 7.76C22.66 7.86667 22.6567 7.96667 22.65 8.06V8.38C22.59 8.42 22.5433 8.44 22.51 8.44C22.4033 8.46 22.33 8.47667 22.29 8.49C22.25 8.51 22.1733 8.51667 22.06 8.51C21.96 8.49667 21.8233 8.5 21.65 8.52C21.4833 8.53333 21.35 8.53 21.25 8.51C21.1433 8.49 21.09 8.47667 21.09 8.47C21.09 8.47 21.09 8.44667 21.09 8.4C21.09 8.36 21.0933 8.3 21.1 8.22C21.1067 8.14 21.11 8.05667 21.11 7.97C21.11 7.88333 21.1133 7.79667 21.12 7.71C21.12 7.62333 21.12 7.55667 21.12 7.51C21.12 7.34333 21.1167 7.20333 21.11 7.09C21.0967 6.98333 21.09 6.84333 21.09 6.67C21.09 6.53 21.09 6.41667 21.09 6.33C21.0833 6.24333 21.0767 6.13 21.07 5.99C21.07 5.91667 21.0733 5.82 21.08 5.7C21.0867 5.58667 21.09 5.46333 21.09 5.33C21.09 5.17 21.09 5.01667 21.09 4.87C21.0833 4.71667 21.08 4.60333 21.08 4.53C21.0733 4.37 21.07 4.22 21.07 4.08C21.07 3.93333 21.0767 3.78667 21.09 3.64ZM27.93 4.62C27.93 4.6 27.9467 4.53667 27.98 4.43C28.0067 4.33 28.0267 4.27667 28.04 4.27C28.06 4.22333 28.0733 4.18333 28.08 4.15C28.0867 4.11667 28.1133 4.06667 28.16 4C28.2 3.95333 28.25 3.89667 28.31 3.83C28.37 3.76333 28.41 3.71667 28.43 3.69C28.47 3.63667 28.5133 3.58667 28.56 3.54C28.5933 3.49333 28.6467 3.44667 28.72 3.4C28.8 3.35333 28.8633 3.30667 28.91 3.26C29.0367 3.22 29.15 3.18333 29.25 3.15C29.35 3.11 29.4467 3.09 29.54 3.09C29.7267 3.09 29.9067 3.09333 30.08 3.1C30.2467 3.11333 30.3967 3.14333 30.53 3.19C30.67 3.19 30.7867 3.20667 30.88 3.24C30.9733 3.27333 31.0667 3.31333 31.16 3.36C31.2067 3.45333 31.2667 3.52333 31.34 3.57C31.4133 3.62333 31.4733 3.67333 31.52 3.72L31.61 3.8C31.6767 3.75333 31.7067 3.70333 31.7 3.65C31.6933 3.59667 31.7 3.54667 31.72 3.5C31.74 3.44 31.75 3.39 31.75 3.35C31.75 3.31 31.76 3.28 31.78 3.26C31.8067 3.24667 31.8367 3.24333 31.87 3.25C31.91 3.25667 31.95 3.26 31.99 3.26C32.07 3.26 32.1767 3.25333 32.31 3.24C32.4367 3.23333 32.5333 3.24 32.6 3.26C32.62 3.26667 32.64 3.28333 32.66 3.31C32.68 3.33 32.69 3.34667 32.69 3.36V3.45C32.69 3.51 32.69 3.58333 32.69 3.67C32.6967 3.75667 32.7 3.84667 32.7 3.94C32.7 4.02667 32.6967 4.11333 32.69 4.2C32.69 4.28 32.69 4.35 32.69 4.41C32.69 4.45667 32.6867 4.53333 32.68 4.64C32.6733 4.75333 32.67 4.87333 32.67 5C32.67 5.12667 32.67 5.24 32.67 5.34C32.67 5.44667 32.6767 5.50333 32.69 5.51C32.69 5.60333 32.6833 5.70667 32.67 5.82C32.6633 5.93333 32.6633 6.01333 32.67 6.06L32.69 6.51C32.6967 6.57 32.6933 6.67 32.68 6.81C32.6667 6.95 32.67 7.11 32.69 7.29C32.6967 7.35667 32.6967 7.45333 32.69 7.58C32.69 7.70667 32.6867 7.83667 32.68 7.97C32.6733 8.10333 32.67 8.23 32.67 8.35C32.6633 8.46333 32.66 8.54333 32.66 8.59C32.66 8.77 32.63 8.95 32.57 9.13C32.51 9.31 32.4567 9.49 32.41 9.67C32.3633 9.76333 32.3167 9.85333 32.27 9.94C32.2233 10.02 32.1533 10.1133 32.06 10.22C32.02 10.2667 31.9767 10.3233 31.93 10.39C31.8833 10.4633 31.8367 10.5233 31.79 10.57C31.7433 10.63 31.6633 10.7 31.55 10.78C31.43 10.86 31.3467 10.9367 31.3 11.01C31.2533 11.07 31.1733 11.1167 31.06 11.15C30.9467 11.19 30.8667 11.2133 30.82 11.22L30.33 11.39C30.25 11.4367 30.1667 11.4767 30.08 11.51C29.9867 11.5433 29.8767 11.5633 29.75 11.57C29.73 11.57 29.71 11.57 29.69 11.57C29.67 11.5633 29.65 11.5633 29.63 11.57C29.5367 11.57 29.46 11.5833 29.4 11.61C29.34 11.63 29.2633 11.64 29.17 11.64H29.09C28.9567 11.64 28.87 11.64 28.83 11.64C28.79 11.6333 28.69 11.6333 28.53 11.64C28.5167 11.64 28.4867 11.6467 28.44 11.66C28.3933 11.6667 28.37 11.66 28.37 11.64C28.37 11.4667 28.3633 11.3033 28.35 11.15C28.3367 11.0033 28.33 10.86 28.33 10.72L28.43 10.64H28.91C29.0367 10.5933 29.1533 10.5633 29.26 10.55C29.3667 10.5433 29.49 10.5167 29.63 10.47C29.7633 10.3833 29.8833 10.3 29.99 10.22C30.0967 10.1333 30.2167 10.0667 30.35 10.02C30.4433 9.93333 30.53 9.84667 30.61 9.76C30.6967 9.67333 30.7633 9.58333 30.81 9.49C30.8967 9.40333 30.95 9.31333 30.97 9.22C30.9967 9.12667 31.0333 9.03333 31.08 8.94C31.08 8.86 31.0933 8.77333 31.12 8.68C31.1467 8.59333 31.16 8.50333 31.16 8.41V8.05C31.16 8.00333 31.1467 7.99333 31.12 8.02C31.1 8.02667 31.0867 8.03667 31.08 8.05C30.9467 8.13 30.79 8.17667 30.61 8.19C30.4367 8.20333 30.26 8.21 30.08 8.21H29.98C29.8533 8.20333 29.73 8.17667 29.61 8.13C29.4833 8.10333 29.38 8.07667 29.3 8.05C29.2133 8.01667 29.12 7.97333 29.02 7.92C28.9933 7.9 28.95 7.88 28.89 7.86C28.8367 7.83333 28.7433 7.78333 28.61 7.71L28.44 7.51L28.14 7.18C28.1067 7.13333 28.08 7.07333 28.06 7C28.0333 6.92 28.0033 6.83 27.97 6.73C27.95 6.67667 27.9267 6.61667 27.9 6.55C27.8733 6.48333 27.85 6.41333 27.83 6.34V5.16C27.83 5.11333 27.84 5.05 27.86 4.97C27.8867 4.89 27.9 4.83333 27.9 4.8C27.9 4.78 27.9033 4.76 27.91 4.74C27.91 4.72 27.9133 4.70333 27.92 4.69C27.9267 4.67 27.93 4.64667 27.93 4.62ZM30.08 6.16C30.1267 6.16 30.1733 6.15333 30.22 6.14C30.26 6.13333 30.3033 6.10667 30.35 6.06C30.37 6.02 30.3767 5.98 30.37 5.94C30.3633 5.9 30.37 5.87 30.39 5.85C30.4367 5.77667 30.4567 5.73 30.45 5.71C30.4367 5.69 30.43 5.65667 30.43 5.61C30.43 5.56333 30.4133 5.50667 30.38 5.44C30.3467 5.36667 30.3067 5.30667 30.26 5.26C30.2133 5.21333 30.1833 5.19 30.17 5.19C30.15 5.19 30.0867 5.21333 29.98 5.26C29.92 5.32667 29.89 5.46333 29.89 5.67C29.89 5.68333 29.8867 5.72333 29.88 5.79C29.8733 5.85667 29.88 5.91667 29.9 5.97C29.9 5.99 29.9233 6.02667 29.97 6.08C30.0167 6.13333 30.0533 6.16 30.08 6.16ZM45.65 4.84C45.65 4.84667 45.6833 4.85 45.75 4.85C45.8167 4.84333 45.89 4.84 45.97 4.84H47.54C47.6133 4.84 47.68 4.82667 47.74 4.8C47.8 4.77333 47.87 4.76 47.95 4.76V4.67C47.9633 4.59 47.9767 4.46333 47.99 4.29C47.9967 4.12333 48 4 48 3.92C48 3.84 47.9967 3.76 47.99 3.68C47.9767 3.60667 47.97 3.53 47.97 3.45C47.9833 3.37667 47.9833 3.30667 47.97 3.24C47.9633 3.16667 47.96 3.09333 47.96 3.02V2.38C47.96 2.34667 47.9633 2.28333 47.97 2.19C47.97 2.09 47.9667 1.99 47.96 1.89C47.96 1.73667 47.9633 1.61333 47.97 1.52C47.9833 1.42 47.98 1.28667 47.96 1.12C47.9667 1.08 47.9667 1.04333 47.96 1.01C47.9533 0.976667 47.95 0.936666 47.95 0.889999C47.95 0.869999 47.9467 0.853333 47.94 0.84C47.9333 0.826667 47.93 0.81 47.93 0.79C47.93 0.756667 47.93 0.72 47.93 0.68C47.93 0.646667 47.9367 0.606666 47.95 0.559999H49.44C49.4867 0.606666 49.5133 0.646667 49.52 0.68C49.5267 0.706667 49.53 0.743333 49.53 0.79C49.53 0.923333 49.5267 1.04667 49.52 1.16C49.5133 1.28 49.51 1.39 49.51 1.49C49.51 1.66333 49.5 1.84333 49.48 2.03C49.4533 2.22333 49.44 2.42333 49.44 2.63C49.44 2.70333 49.4467 2.79667 49.46 2.91C49.4667 3.02333 49.46 3.12667 49.44 3.22C49.4133 3.45333 49.3967 3.67667 49.39 3.89C49.39 4.10333 49.39 4.31667 49.39 4.53C49.39 4.71667 49.4 4.90667 49.42 5.1C49.4333 5.29333 49.44 5.46667 49.44 5.62C49.4267 5.68667 49.42 5.80333 49.42 5.97C49.42 6.13 49.42 6.30333 49.42 6.49C49.4267 6.67667 49.4333 6.85333 49.44 7.02C49.44 7.19333 49.44 7.31 49.44 7.37V8.8C49.24 8.8 49.0567 8.81333 48.89 8.84C48.73 8.86 48.5633 8.87 48.39 8.87C48.3167 8.87 48.2567 8.87333 48.21 8.88C48.1567 8.88667 48.0933 8.91333 48.02 8.96L47.95 8.87C47.9567 8.80333 47.96 8.71667 47.96 8.61C47.96 8.49667 47.9567 8.37667 47.95 8.25C47.95 8.12333 47.95 8.00333 47.95 7.89C47.95 7.77667 47.95 7.69 47.95 7.63C47.9567 7.41 47.9633 7.19 47.97 6.97C47.97 6.75667 47.97 6.54 47.97 6.32C47.97 6.33333 47.97 6.31 47.97 6.25C47.9633 6.19667 47.96 6.13333 47.96 6.06C47.96 5.99333 47.9567 5.92667 47.95 5.86C47.95 5.79333 47.95 5.75333 47.95 5.74C47.95 5.7 47.9367 5.68333 47.91 5.69C47.89 5.70333 47.86 5.70333 47.82 5.69C47.72 5.67667 47.6367 5.67667 47.57 5.69C47.5033 5.70333 47.4233 5.71 47.33 5.71C47.2767 5.71 47.2067 5.71 47.12 5.71C47.0333 5.71667 46.9467 5.72333 46.86 5.73C46.7733 5.73667 46.6867 5.74333 46.6 5.75C46.52 5.75667 46.45 5.76 46.39 5.76L45.78 5.78C45.7333 5.78 45.6933 5.77667 45.66 5.77C45.6267 5.76333 45.59 5.76667 45.55 5.78C45.5233 5.78 45.51 5.79667 45.51 5.83C45.51 5.85 45.5133 5.86667 45.52 5.88C45.52 5.98667 45.5267 6.1 45.54 6.22C45.5467 6.33333 45.55 6.45667 45.55 6.59V6.97C45.55 7.21 45.5467 7.44667 45.54 7.68C45.54 7.91333 45.52 8.15333 45.48 8.4V8.8C45.4333 8.84 45.39 8.86 45.35 8.86C45.31 8.86667 45.25 8.87 45.17 8.87C45.0967 8.87 45.0033 8.87333 44.89 8.88C44.7833 8.88667 44.69 8.91333 44.61 8.96H44.21C44.1633 8.96 44.12 8.95 44.08 8.93C44.0467 8.91667 43.9867 8.89667 43.9 8.87V7.92C43.9 7.68667 43.8967 7.53667 43.89 7.47C43.89 7.40333 43.89 7.35333 43.89 7.32C43.87 7.27333 43.8633 7.21667 43.87 7.15C43.8833 7.08333 43.89 7.03667 43.89 7.01C43.9033 6.81667 43.9033 6.61333 43.89 6.4C43.8767 6.19333 43.8667 6.02 43.86 5.88C43.8467 5.79333 43.84 5.71 43.84 5.63C43.84 5.55 43.84 5.47 43.84 5.39C43.84 5.23 43.8467 5.07333 43.86 4.92C43.88 4.76667 43.88 4.61 43.86 4.45C43.84 4.24333 43.8433 4.07333 43.87 3.94C43.8833 3.90667 43.88 3.84 43.86 3.74C43.84 3.64 43.83 3.53667 43.83 3.43C43.83 3.27667 43.8333 3.14 43.84 3.02C43.8533 2.9 43.86 2.78333 43.86 2.67C43.8667 2.55667 43.8733 2.44 43.88 2.32C43.8867 2.2 43.8833 2.06333 43.87 1.91C43.87 1.87667 43.87 1.81333 43.87 1.72C43.87 1.63333 43.8733 1.54 43.88 1.44C43.8867 1.33333 43.89 1.23667 43.89 1.15C43.8967 1.06333 43.9 1 43.9 0.96C43.9 0.88 43.89 0.816666 43.87 0.77C43.85 0.729999 43.84 0.69 43.84 0.65V0.559999H45.55C45.59 0.593333 45.62 0.63 45.64 0.67C45.6467 0.69 45.65 0.703333 45.65 0.71C45.6567 0.896667 45.6567 1.08 45.65 1.26C45.6433 1.43333 45.6333 1.61333 45.62 1.8C45.62 2.05333 45.6267 2.3 45.64 2.54C45.6533 2.78667 45.6667 3.03 45.68 3.27C45.68 3.40333 45.6767 3.54 45.67 3.68C45.6633 3.82 45.66 3.95333 45.66 4.08C45.66 4.21333 45.6567 4.36 45.65 4.52C45.6433 4.68 45.6433 4.78667 45.65 4.84ZM55.67 8.68V8.75L55.58 8.76C55.5333 8.76667 55.5 8.77 55.48 8.77C55.4667 8.76333 55.4233 8.76 55.35 8.76C55.3433 8.76 55.3167 8.76333 55.27 8.77C55.2233 8.78333 55.17 8.79333 55.11 8.8C55.0567 8.81333 54.9967 8.81667 54.93 8.81C54.8633 8.80333 54.8133 8.79 54.78 8.77C54.7333 8.77 54.7 8.76667 54.68 8.76C54.66 8.75333 54.6267 8.75 54.58 8.75C54.5333 8.71 54.5067 8.65333 54.5 8.58C54.5 8.50667 54.5 8.44667 54.5 8.4V8.05L54.39 8.2L54.13 8.44C54.0367 8.50667 53.96 8.56 53.9 8.6C53.84 8.64 53.77 8.68333 53.69 8.73C53.55 8.81667 53.3967 8.87333 53.23 8.9C53.07 8.92667 52.92 8.94 52.78 8.94C52.64 8.94 52.49 8.91333 52.33 8.86C52.1767 8.8 52.04 8.74667 51.92 8.7C51.8867 8.69333 51.8533 8.68 51.82 8.66C51.7867 8.63333 51.7567 8.61 51.73 8.59C51.67 8.54333 51.6067 8.49667 51.54 8.45C51.4667 8.40333 51.4067 8.35667 51.36 8.31C51.3333 8.29 51.3067 8.27 51.28 8.25C51.26 8.22333 51.23 8.20333 51.19 8.19C51.1433 8.15667 51.1033 8.11 51.07 8.05C51.0233 7.94333 50.9633 7.84333 50.89 7.75C50.8233 7.65 50.7667 7.53333 50.72 7.4C50.6933 7.3 50.6567 7.20333 50.61 7.11C50.5633 7.01667 50.54 6.92667 50.54 6.84C50.54 6.79333 50.5333 6.71333 50.52 6.6C50.5133 6.49333 50.51 6.41667 50.51 6.37C50.51 6.28333 50.51 6.21667 50.51 6.17C50.5167 6.12333 50.52 6.05333 50.52 5.96C50.52 5.91333 50.5267 5.86333 50.54 5.81C50.5533 5.76333 50.57 5.69667 50.59 5.61C50.61 5.51 50.6233 5.4 50.63 5.28C50.6433 5.16667 50.66 5.07 50.68 4.99C50.74 4.87 50.7833 4.79667 50.81 4.77C50.83 4.74333 50.85 4.69333 50.87 4.62C50.89 4.56 50.9167 4.48667 50.95 4.4C50.9833 4.31333 51.0333 4.24667 51.1 4.2C51.1267 4.18 51.1667 4.14667 51.22 4.1C51.28 4.05333 51.34 4 51.4 3.94C51.46 3.88667 51.5133 3.84 51.56 3.8C51.6067 3.75333 51.64 3.73 51.66 3.73L51.91 3.62C51.9833 3.59333 52.0667 3.57333 52.16 3.56C52.2533 3.54667 52.3433 3.54 52.43 3.54L52.86 3.52C52.9067 3.52 52.96 3.52 53.02 3.52C53.08 3.52 53.12 3.52667 53.14 3.54C53.1867 3.54 53.2333 3.55333 53.28 3.58C53.3267 3.60667 53.3733 3.62 53.42 3.62C53.4667 3.62 53.5233 3.63667 53.59 3.67C53.6633 3.70333 53.7233 3.74333 53.77 3.79C53.8633 3.83 53.9367 3.87333 53.99 3.92C54.0367 3.97333 54.0833 4.02333 54.13 4.07C54.1767 4.11667 54.2233 4.16 54.27 4.2C54.31 4.24667 54.3533 4.29333 54.4 4.34C54.4 4.36667 54.42 4.39 54.46 4.41C54.4733 4.41667 54.4867 4.42333 54.5 4.43C54.52 4.41667 54.53 4.38 54.53 4.32C54.5367 4.26667 54.5533 4.21667 54.58 4.17C54.5933 4.03667 54.6 3.91667 54.6 3.81C54.6067 3.70333 54.6133 3.63 54.62 3.59C54.6133 3.55667 54.62 3.50333 54.64 3.43C54.66 3.36333 54.6933 3.34 54.74 3.36C54.7533 3.34667 54.7933 3.34667 54.86 3.36C54.9267 3.36667 55.0033 3.37667 55.09 3.39C55.17 3.40333 55.2533 3.41667 55.34 3.43C55.4333 3.43667 55.5133 3.44 55.58 3.44C55.5867 3.44 55.59 3.46333 55.59 3.51C55.59 3.55667 55.5867 3.59333 55.58 3.62L55.66 4.97V6.48C55.66 6.50667 55.6567 6.53333 55.65 6.56C55.65 6.58667 55.65 6.61667 55.65 6.65C55.6567 6.73 55.66 6.81333 55.66 6.9C55.66 6.99333 55.66 7.08667 55.66 7.18C55.6667 7.24667 55.67 7.31333 55.67 7.38C55.6633 7.45333 55.66 7.52667 55.66 7.6C55.66 7.65333 55.6633 7.73 55.67 7.83C55.67 7.93 55.67 8.03 55.67 8.13C55.67 8.23 55.67 8.33 55.67 8.43C55.67 8.53 55.67 8.61333 55.67 8.68ZM53.87 6.69V6.63V6.59C53.87 6.53667 53.88 6.41333 53.9 6.22C53.9133 6.02667 53.87 5.79 53.77 5.51C53.7433 5.43667 53.7 5.35667 53.64 5.27C53.5867 5.19 53.5 5.12667 53.38 5.08C53.3133 5.06 53.2533 5.04 53.2 5.02C53.14 4.99333 53.0767 4.98333 53.01 4.99C52.95 5.01 52.87 5.05333 52.77 5.12C52.67 5.18667 52.5867 5.26667 52.52 5.36C52.4733 5.40667 52.4467 5.45667 52.44 5.51C52.4333 5.57 52.4233 5.63667 52.41 5.71C52.3833 5.83 52.3633 5.92333 52.35 5.99C52.3367 6.05667 52.33 6.14 52.33 6.24C52.33 6.42667 52.3833 6.59 52.49 6.73C52.5967 6.87 52.6633 6.96333 52.69 7.01C52.7167 7.03667 52.7433 7.05333 52.77 7.06C52.79 7.06667 52.8233 7.09333 52.87 7.14C52.9633 7.18667 53.0533 7.19333 53.14 7.16C53.2267 7.12667 53.32 7.08667 53.42 7.04H53.5C53.5867 6.99333 53.6567 6.94667 53.71 6.9C53.77 6.85333 53.8233 6.78333 53.87 6.69ZM61.05 5.72C61.05 5.76667 61.0267 5.81333 60.98 5.86C60.9533 5.88667 60.91 5.90667 60.85 5.92C60.7967 5.92667 60.7467 5.93 60.7 5.93C60.6333 5.95 60.5533 5.96 60.46 5.96C60.3667 5.96 60.2867 5.96 60.22 5.96C60.0933 5.96 59.9967 5.96333 59.93 5.97C59.8633 5.97 59.7567 5.98 59.61 6L58.77 6.07V6.24C58.77 6.34 58.7833 6.44 58.81 6.54C58.8367 6.64 58.8867 6.74 58.96 6.84C59.0067 6.91333 59.0633 6.98333 59.13 7.05C59.1967 7.11667 59.2633 7.16 59.33 7.18C59.3833 7.2 59.4333 7.21667 59.48 7.23C59.5267 7.25 59.57 7.26667 59.61 7.28C59.6567 7.29333 59.6967 7.29667 59.73 7.29C59.9833 7.29 60.17 7.26333 60.29 7.21C60.4033 7.15 60.5433 7.08 60.71 7C60.75 7 60.79 6.98 60.83 6.94C60.8767 6.9 60.9067 6.87667 60.92 6.87C60.9667 6.85 61.0367 6.80333 61.13 6.73C61.2167 6.65667 61.2833 6.61 61.33 6.59C61.3567 6.61 61.3667 6.67333 61.36 6.78C61.3467 6.88667 61.35 6.98667 61.37 7.08V7.23V7.51C61.3233 7.57 61.29 7.61 61.27 7.63C61.2433 7.65667 61.2233 7.68 61.21 7.7C61.1967 7.71333 61.1767 7.73667 61.15 7.77C61.1233 7.79667 61.08 7.83667 61.02 7.89C60.8533 8.05667 60.6767 8.17 60.49 8.23C60.39 8.28333 60.2767 8.32333 60.15 8.35C60.03 8.37 59.9333 8.39333 59.86 8.42C59.8133 8.43333 59.77 8.44333 59.73 8.45C59.6967 8.45 59.66 8.45 59.62 8.45H59.51C59.33 8.45 59.1567 8.45 58.99 8.45C58.8233 8.44333 58.6467 8.39333 58.46 8.3C58.3933 8.30667 58.3033 8.28667 58.19 8.24C58.07 8.19333 57.9933 8.14667 57.96 8.1C57.8533 8.04667 57.76 7.97667 57.68 7.89C57.6 7.81 57.5133 7.73667 57.42 7.67C57.2933 7.57667 57.2 7.47667 57.14 7.37C57.0867 7.27 57.0367 7.16333 56.99 7.05C56.9433 6.97 56.9 6.87667 56.86 6.77C56.8267 6.67 56.79 6.56667 56.75 6.46C56.75 6.36 56.7467 6.26333 56.74 6.17C56.74 6.07667 56.74 5.98333 56.74 5.89V5.37C56.74 5.20333 56.7733 5.00333 56.84 4.77C56.9133 4.53667 57 4.33667 57.1 4.17C57.1267 4.13 57.16 4.09333 57.2 4.06C57.2267 4.02 57.2633 3.98 57.31 3.94C57.35 3.90667 57.3933 3.86667 57.44 3.82C57.4667 3.80667 57.4967 3.79333 57.53 3.78C57.5633 3.76 57.6133 3.73 57.68 3.69C57.7067 3.67 57.74 3.63667 57.78 3.59C57.82 3.54333 57.88 3.51333 57.96 3.5C58.06 3.46 58.1567 3.42 58.25 3.38C58.3433 3.33333 58.4133 3.31 58.46 3.31C58.5267 3.31 58.6467 3.31667 58.82 3.33C58.9933 3.33667 59.1567 3.34667 59.31 3.36C59.3967 3.36667 59.4667 3.38 59.52 3.4C59.58 3.42 59.6233 3.43 59.65 3.43C59.7233 3.43667 59.7867 3.44333 59.84 3.45C59.8933 3.46333 59.9467 3.48 60 3.5C60.1667 3.55333 60.29 3.61 60.37 3.67C60.45 3.73 60.5167 3.79333 60.57 3.86C60.61 3.90667 60.6467 3.96 60.68 4.02C60.7133 4.08 60.7467 4.13333 60.78 4.18C60.8267 4.24 60.8733 4.31667 60.92 4.41C60.96 4.51 60.99 4.60667 61.01 4.7C61.03 4.77333 61.0433 4.87 61.05 4.99C61.0567 5.11667 61.06 5.22667 61.06 5.32C61.06 5.41333 61.06 5.48333 61.06 5.53C61.0533 5.57667 61.05 5.64 61.05 5.72ZM59.85 4.91C59.85 4.89 59.85 4.85333 59.85 4.8C59.85 4.75333 59.84 4.72 59.82 4.7C59.7467 4.58 59.64 4.50667 59.5 4.48C59.3667 4.46 59.25 4.46 59.15 4.48C59.0833 4.49333 59.04 4.51667 59.02 4.55C59 4.57667 58.9733 4.61667 58.94 4.67C58.92 4.69 58.9033 4.71 58.89 4.73C58.8833 4.75 58.87 4.76667 58.85 4.78C58.83 4.8 58.82 4.82667 58.82 4.86C58.8133 4.89333 58.8067 4.92333 58.8 4.95C58.78 4.99667 58.77 5.03 58.77 5.05C58.77 5.07 58.78 5.11667 58.8 5.19C58.8333 5.21 58.9033 5.22667 59.01 5.24C59.1167 5.25333 59.23 5.26 59.35 5.26C59.4633 5.26 59.5733 5.25333 59.68 5.24C59.7933 5.22667 59.8667 5.21 59.9 5.19C59.9133 5.18333 59.9067 5.15667 59.88 5.11C59.86 5.07 59.85 5.00333 59.85 4.91ZM62.32 6.62C62.32 6.55333 62.3233 6.45333 62.33 6.32C62.3367 6.19333 62.3333 6.07 62.32 5.95C62.3333 5.86333 62.34 5.77667 62.34 5.69C62.34 5.61 62.34 5.52333 62.34 5.43L62.3 4.29V3.66C62.4 3.66 62.5067 3.66 62.62 3.66C62.7333 3.65333 62.86 3.66 63 3.68C63.0333 3.68667 63.07 3.69 63.11 3.69H63.3C63.3667 3.71 63.4 3.71667 63.4 3.71C63.4 3.71 63.4133 3.71667 63.44 3.73C63.44 3.77667 63.4367 3.81333 63.43 3.84C63.4233 3.86 63.42 3.89333 63.42 3.94V4.39C63.4533 4.34333 63.4767 4.30333 63.49 4.27C63.5033 4.23667 63.5333 4.19667 63.58 4.15L63.67 4.13C63.79 4.00333 63.94 3.92333 64.12 3.89C64.2933 3.85 64.47 3.84 64.65 3.86C64.6833 3.86 64.7433 3.87667 64.83 3.91C64.9167 3.94333 65 3.98333 65.08 4.03C65.1467 4.03667 65.2033 4.05333 65.25 4.08L65.29 4.13C65.3833 4.21 65.4733 4.28 65.56 4.34C65.64 4.4 65.7 4.47667 65.74 4.57C65.8333 4.70333 65.9067 4.84333 65.96 4.99C66.02 5.14333 66.0733 5.30667 66.12 5.48C66.12 5.52667 66.1133 5.57 66.1 5.61C66.0933 5.65 66.0667 5.67 66.02 5.67C65.88 5.71667 65.75 5.73667 65.63 5.73C65.5167 5.72333 65.3633 5.73 65.17 5.75H65.01C64.99 5.74333 64.98 5.73 64.98 5.71C64.9733 5.69 64.97 5.67667 64.97 5.67C64.9633 5.61 64.9533 5.56 64.94 5.52C64.92 5.48 64.91 5.44333 64.91 5.41C64.91 5.39667 64.9067 5.37333 64.9 5.34C64.8933 5.31333 64.8833 5.29 64.87 5.27C64.85 5.24333 64.8367 5.22 64.83 5.2C64.65 5.02667 64.4767 4.94 64.31 4.94C64.29 4.94 64.2667 4.94 64.24 4.94C64.2067 4.94 64.1733 4.95 64.14 4.97C64.0933 4.98333 64.0267 5.01333 63.94 5.06C63.8533 5.1 63.7967 5.13333 63.77 5.16C63.7233 5.20667 63.6733 5.25667 63.62 5.31C63.5667 5.36333 63.5267 5.42 63.5 5.48C63.4933 5.52 63.4867 5.58333 63.48 5.67C63.4733 5.76333 63.47 5.81667 63.47 5.83C63.45 5.91667 63.4333 6.03 63.42 6.17C63.4 6.31 63.39 6.43 63.39 6.53C63.39 6.59667 63.3833 6.68333 63.37 6.79C63.3567 6.89 63.35 6.98333 63.35 7.07C63.35 7.13 63.3467 7.19 63.34 7.25C63.3333 7.30333 63.33 7.36 63.33 7.42V7.95C63.33 8.00333 63.3267 8.06333 63.32 8.13C63.32 8.19667 63.32 8.26333 63.32 8.33V8.63C62.8533 8.73667 62.53 8.73667 62.35 8.63C62.33 8.57 62.3167 8.49 62.31 8.39C62.3033 8.29 62.3033 8.23 62.31 8.21C62.33 8.04333 62.3333 7.87667 62.32 7.71C62.3133 7.54333 62.31 7.37 62.31 7.19C62.3033 7.09667 62.3033 7 62.31 6.9C62.3167 6.79333 62.32 6.7 62.32 6.62ZM71.98 8.68V8.75L71.89 8.76C71.8433 8.76667 71.8133 8.77 71.8 8.77C71.78 8.76333 71.7333 8.76 71.66 8.76C71.6533 8.76 71.6267 8.76333 71.58 8.77C71.5333 8.78333 71.48 8.79333 71.42 8.8C71.3667 8.81333 71.3067 8.81667 71.24 8.81C71.1733 8.80333 71.1233 8.79 71.09 8.77C71.0433 8.77 71.01 8.76667 70.99 8.76C70.97 8.75333 70.9367 8.75 70.89 8.75C70.8433 8.71 70.8167 8.65333 70.81 8.58C70.81 8.50667 70.81 8.44667 70.81 8.4V8.05L70.7 8.2L70.44 8.44C70.3467 8.50667 70.27 8.56 70.21 8.6C70.15 8.64 70.08 8.68333 70 8.73C69.86 8.81667 69.7067 8.87333 69.54 8.9C69.38 8.92667 69.23 8.94 69.09 8.94C68.95 8.94 68.8 8.91333 68.64 8.86C68.4867 8.8 68.35 8.74667 68.23 8.7C68.1967 8.69333 68.1633 8.68 68.13 8.66C68.0967 8.63333 68.0667 8.61 68.04 8.59C67.98 8.54333 67.9167 8.49667 67.85 8.45C67.7767 8.40333 67.7167 8.35667 67.67 8.31C67.6433 8.29 67.62 8.27 67.6 8.25C67.5733 8.22333 67.54 8.20333 67.5 8.19C67.4533 8.15667 67.4133 8.11 67.38 8.05C67.3333 7.94333 67.2733 7.84333 67.2 7.75C67.1333 7.65 67.0767 7.53333 67.03 7.4C67.0033 7.3 66.9667 7.20333 66.92 7.11C66.8733 7.01667 66.85 6.92667 66.85 6.84C66.85 6.79333 66.8433 6.71333 66.83 6.6C66.8233 6.49333 66.82 6.41667 66.82 6.37C66.82 6.28333 66.8233 6.21667 66.83 6.17C66.83 6.12333 66.83 6.05333 66.83 5.96C66.83 5.91333 66.8367 5.86333 66.85 5.81C66.8633 5.76333 66.88 5.69667 66.9 5.61C66.92 5.51 66.9333 5.4 66.94 5.28C66.9533 5.16667 66.97 5.07 66.99 4.99C67.05 4.87 67.0933 4.79667 67.12 4.77C67.14 4.74333 67.16 4.69333 67.18 4.62C67.2 4.56 67.2267 4.48667 67.26 4.4C67.2933 4.31333 67.3433 4.24667 67.41 4.2C67.4367 4.18 67.4767 4.14667 67.53 4.1C67.59 4.05333 67.65 4 67.71 3.94C67.77 3.88667 67.8233 3.84 67.87 3.8C67.9167 3.75333 67.95 3.73 67.97 3.73L68.22 3.62C68.2933 3.59333 68.3767 3.57333 68.47 3.56C68.5633 3.54667 68.6533 3.54 68.74 3.54L69.17 3.52C69.2167 3.52 69.27 3.52 69.33 3.52C69.39 3.52 69.43 3.52667 69.45 3.54C69.4967 3.54 69.5433 3.55333 69.59 3.58C69.6367 3.60667 69.6833 3.62 69.73 3.62C69.7767 3.62 69.8367 3.63667 69.91 3.67C69.9767 3.70333 70.0333 3.74333 70.08 3.79C70.1733 3.83 70.2467 3.87333 70.3 3.92C70.3467 3.97333 70.3933 4.02333 70.44 4.07C70.4867 4.11667 70.5333 4.16 70.58 4.2C70.62 4.24667 70.6633 4.29333 70.71 4.34C70.71 4.36667 70.73 4.39 70.77 4.41C70.7833 4.41667 70.7967 4.42333 70.81 4.43C70.83 4.41667 70.84 4.38 70.84 4.32C70.8467 4.26667 70.8633 4.21667 70.89 4.17C70.9033 4.03667 70.91 3.91667 70.91 3.81C70.9167 3.70333 70.9233 3.63 70.93 3.59C70.9233 3.55667 70.93 3.50333 70.95 3.43C70.97 3.36333 71.0033 3.34 71.05 3.36C71.0633 3.34667 71.1033 3.34667 71.17 3.36C71.2367 3.36667 71.3133 3.37667 71.4 3.39C71.48 3.40333 71.5667 3.41667 71.66 3.43C71.7467 3.43667 71.8233 3.44 71.89 3.44C71.8967 3.44 71.9 3.46333 71.9 3.51C71.9 3.55667 71.8967 3.59333 71.89 3.62L71.97 4.97V6.48C71.97 6.50667 71.9667 6.53333 71.96 6.56C71.96 6.58667 71.96 6.61667 71.96 6.65C71.9667 6.73 71.97 6.81333 71.97 6.9C71.97 6.99333 71.97 7.08667 71.97 7.18C71.9767 7.24667 71.98 7.31333 71.98 7.38C71.9733 7.45333 71.97 7.52667 71.97 7.6C71.97 7.65333 71.9733 7.73 71.98 7.83C71.98 7.93 71.98 8.03 71.98 8.13C71.98 8.23 71.98 8.33 71.98 8.43C71.98 8.53 71.98 8.61333 71.98 8.68ZM70.18 6.69V6.63V6.59C70.18 6.53667 70.19 6.41333 70.21 6.22C70.2233 6.02667 70.18 5.79 70.08 5.51C70.0533 5.43667 70.01 5.35667 69.95 5.27C69.8967 5.19 69.81 5.12667 69.69 5.08C69.6233 5.06 69.5633 5.04 69.51 5.02C69.45 4.99333 69.3867 4.98333 69.32 4.99C69.26 5.01 69.18 5.05333 69.08 5.12C68.98 5.18667 68.8967 5.26667 68.83 5.36C68.7833 5.40667 68.7567 5.45667 68.75 5.51C68.7433 5.57 68.7333 5.63667 68.72 5.71C68.6933 5.83 68.6733 5.92333 68.66 5.99C68.6467 6.05667 68.64 6.14 68.64 6.24C68.64 6.42667 68.6933 6.59 68.8 6.73C68.9067 6.87 68.9733 6.96333 69 7.01C69.0267 7.03667 69.0533 7.05333 69.08 7.06C69.1 7.06667 69.1333 7.09333 69.18 7.14C69.2733 7.18667 69.3633 7.19333 69.45 7.16C69.5367 7.12667 69.63 7.08667 69.73 7.04H69.81C69.8967 6.99333 69.9667 6.94667 70.02 6.9C70.08 6.85333 70.1333 6.78333 70.18 6.69ZM73.36 3.64C73.36 3.60667 73.3533 3.57667 73.34 3.55C73.3333 3.52333 73.3333 3.49667 73.34 3.47C73.3533 3.47 73.37 3.46667 73.39 3.46C73.4167 3.45333 73.4367 3.45 73.45 3.45H73.54C73.5867 3.44333 73.6333 3.44333 73.68 3.45C73.7267 3.45 73.7733 3.44667 73.82 3.44H74.24C74.26 3.44 74.2767 3.45 74.29 3.47C74.31 3.49 74.3267 3.50333 74.34 3.51L74.36 3.64C74.36 3.66667 74.3667 3.69667 74.38 3.73C74.4 3.81 74.41 3.89 74.41 3.97C74.4167 3.99667 74.42 4.02667 74.42 4.06C74.42 4.11333 74.4233 4.14 74.43 4.14C74.47 4.1 74.5 4.06 74.52 4.02C74.54 3.98 74.5633 3.95 74.59 3.93C74.6167 3.90333 74.6367 3.88333 74.65 3.87C74.6633 3.86333 74.6767 3.85667 74.69 3.85C74.7033 3.83667 74.7267 3.82333 74.76 3.81C74.7867 3.79667 74.8267 3.77 74.88 3.73C74.9667 3.68333 75.0433 3.64667 75.11 3.62C75.1833 3.59333 75.2933 3.54333 75.44 3.47C75.4667 3.45667 75.5167 3.44333 75.59 3.43C75.6567 3.41 75.7333 3.39333 75.82 3.38C75.9067 3.36667 75.9933 3.35667 76.08 3.35C76.1667 3.34333 76.2433 3.34 76.31 3.34C76.41 3.35333 76.4933 3.36667 76.56 3.38C76.6267 3.39333 76.7167 3.41 76.83 3.43C76.8767 3.43667 76.9533 3.44333 77.06 3.45C77.1667 3.46333 77.24 3.48 77.28 3.5C77.5133 3.62667 77.7 3.73667 77.84 3.83C77.98 3.92333 78.1 4.05 78.2 4.21C78.22 4.23 78.2467 4.25 78.28 4.27C78.32 4.29667 78.3633 4.33333 78.41 4.38C78.4567 4.42667 78.5 4.49 78.54 4.57C78.5867 4.65 78.61 4.69667 78.61 4.71C78.6433 4.87 78.6833 5 78.73 5.1C78.7767 5.2 78.8067 5.32667 78.82 5.48C78.8267 5.56 78.85 5.64333 78.89 5.73C78.9233 5.81667 78.94 5.90667 78.94 6C78.94 6.09333 78.9467 6.2 78.96 6.32C78.9667 6.43333 78.96 6.59667 78.94 6.81C78.94 6.87667 78.9433 6.94 78.95 7C78.9567 7.05333 78.96 7.10667 78.96 7.16V7.81C78.96 7.87667 78.96 7.93667 78.96 7.99C78.96 8.04333 78.9533 8.1 78.94 8.16C78.94 8.23333 78.9433 8.29667 78.95 8.35C78.9567 8.41 78.96 8.47667 78.96 8.55C78.96 8.57 78.96 8.59 78.96 8.61C78.96 8.63667 78.95 8.65333 78.93 8.66C78.91 8.67333 78.8833 8.68 78.85 8.68C78.8167 8.68 78.79 8.68 78.77 8.68C78.69 8.68 78.6133 8.68 78.54 8.68C78.46 8.68667 78.38 8.68667 78.3 8.68L77.88 8.63C77.84 8.62333 77.7867 8.62333 77.72 8.63C77.66 8.64333 77.62 8.63 77.6 8.59C77.5867 8.37667 77.5833 8.22667 77.59 8.14C77.5967 8.04667 77.6 7.96333 77.6 7.89C77.6 7.84333 77.5933 7.78667 77.58 7.72C77.5733 7.64667 77.5667 7.55 77.56 7.43L77.6 6.69C77.6 6.59667 77.5967 6.52333 77.59 6.47C77.5833 6.41667 77.58 6.37667 77.58 6.35C77.5733 6.31667 77.5667 6.27667 77.56 6.23C77.56 6.18333 77.56 6.10667 77.56 6C77.56 5.83333 77.53 5.66667 77.47 5.5C77.4033 5.33333 77.33 5.16333 77.25 4.99C77.2033 4.89667 77.1433 4.81333 77.07 4.74C76.99 4.66667 76.89 4.60333 76.77 4.55C76.75 4.53667 76.7267 4.52667 76.7 4.52C76.6733 4.50667 76.65 4.5 76.63 4.5L76.31 4.48C76.15 4.46667 75.9867 4.49333 75.82 4.56C75.6533 4.62667 75.55 4.69333 75.51 4.76C75.4433 4.86667 75.3933 4.95 75.36 5.01C75.32 5.06333 75.2833 5.12 75.25 5.18C75.2367 5.20667 75.22 5.25333 75.2 5.32C75.1867 5.39333 75.1667 5.47667 75.14 5.57C75.12 5.67 75.1 5.77333 75.08 5.88C75.06 5.98667 75.05 6.08333 75.05 6.17C75.05 6.23667 75.05 6.3 75.05 6.36C75.05 6.42 75.0467 6.47667 75.04 6.53L75.01 6.93L74.92 7.46C74.92 7.55333 74.92 7.65333 74.92 7.76C74.92 7.86667 74.9167 7.96667 74.91 8.06V8.38C74.8567 8.42 74.81 8.44 74.77 8.44C74.67 8.46 74.5967 8.47667 74.55 8.49C74.51 8.51 74.4333 8.51667 74.32 8.51C74.22 8.49667 74.0867 8.5 73.92 8.52C73.7467 8.53333 73.61 8.53 73.51 8.51C73.41 8.49 73.36 8.47667 73.36 8.47C73.36 8.47 73.36 8.44667 73.36 8.4C73.36 8.36 73.36 8.3 73.36 8.22C73.3667 8.14 73.37 8.05667 73.37 7.97C73.37 7.88333 73.3733 7.79667 73.38 7.71C73.38 7.62333 73.38 7.55667 73.38 7.51C73.38 7.34333 73.3767 7.20333 73.37 7.09C73.3633 6.98333 73.36 6.84333 73.36 6.67C73.36 6.53 73.3567 6.41667 73.35 6.33C73.3433 6.24333 73.3367 6.13 73.33 5.99C73.33 5.91667 73.3333 5.82 73.34 5.7C73.3533 5.58667 73.36 5.46333 73.36 5.33C73.36 5.17 73.3567 5.01667 73.35 4.87C73.3433 4.71667 73.34 4.60333 73.34 4.53C73.3333 4.37 73.33 4.22 73.33 4.08C73.33 3.93333 73.34 3.78667 73.36 3.64ZM80.19 4.62C80.19 4.6 80.2067 4.53667 80.24 4.43C80.2733 4.33 80.2933 4.27667 80.3 4.27C80.32 4.22333 80.3333 4.18333 80.34 4.15C80.3533 4.11667 80.3833 4.06667 80.43 4C80.4633 3.95333 80.51 3.89667 80.57 3.83C80.63 3.76333 80.67 3.71667 80.69 3.69C80.73 3.63667 80.7733 3.58667 80.82 3.54C80.8533 3.49333 80.91 3.44667 80.99 3.4C81.0633 3.35333 81.1233 3.30667 81.17 3.26C81.2967 3.22 81.41 3.18333 81.51 3.15C81.61 3.11 81.7067 3.09 81.8 3.09C81.9867 3.09 82.1667 3.09333 82.34 3.1C82.5133 3.11333 82.6633 3.14333 82.79 3.19C82.93 3.19 83.0467 3.20667 83.14 3.24C83.2333 3.27333 83.3267 3.31333 83.42 3.36C83.4667 3.45333 83.5267 3.52333 83.6 3.57C83.68 3.62333 83.7433 3.67333 83.79 3.72L83.87 3.8C83.9367 3.75333 83.9667 3.70333 83.96 3.65C83.9533 3.59667 83.96 3.54667 83.98 3.5C84 3.44 84.01 3.39 84.01 3.35C84.01 3.31 84.02 3.28 84.04 3.26C84.0667 3.24667 84.1 3.24333 84.14 3.25C84.1733 3.25667 84.21 3.26 84.25 3.26C84.33 3.26 84.4367 3.25333 84.57 3.24C84.7033 3.23333 84.8 3.24 84.86 3.26C84.88 3.26667 84.9 3.28333 84.92 3.31C84.94 3.33 84.95 3.34667 84.95 3.36V3.45C84.95 3.51 84.9533 3.58333 84.96 3.67C84.96 3.75667 84.96 3.84667 84.96 3.94C84.96 4.02667 84.96 4.11333 84.96 4.2C84.9533 4.28 84.95 4.35 84.95 4.41C84.95 4.45667 84.9467 4.53333 84.94 4.64C84.9333 4.75333 84.93 4.87333 84.93 5C84.93 5.12667 84.93 5.24 84.93 5.34C84.93 5.44667 84.9367 5.50333 84.95 5.51C84.95 5.60333 84.9433 5.70667 84.93 5.82C84.9233 5.93333 84.9233 6.01333 84.93 6.06L84.95 6.51C84.9567 6.57 84.9533 6.67 84.94 6.81C84.9267 6.95 84.93 7.11 84.95 7.29C84.9567 7.35667 84.96 7.45333 84.96 7.58C84.9533 7.70667 84.9467 7.83667 84.94 7.97C84.9333 8.10333 84.93 8.23 84.93 8.35C84.9233 8.46333 84.92 8.54333 84.92 8.59C84.92 8.77 84.89 8.95 84.83 9.13C84.77 9.31 84.7167 9.49 84.67 9.67C84.6233 9.76333 84.5767 9.85333 84.53 9.94C84.4833 10.02 84.4133 10.1133 84.32 10.22C84.28 10.2667 84.2367 10.3233 84.19 10.39C84.1433 10.4633 84.0967 10.5233 84.05 10.57C84.0033 10.63 83.9233 10.7 83.81 10.78C83.69 10.86 83.6067 10.9367 83.56 11.01C83.5133 11.07 83.4333 11.1167 83.32 11.15C83.2133 11.19 83.1367 11.2133 83.09 11.22L82.6 11.39C82.5133 11.4367 82.4267 11.4767 82.34 11.51C82.2467 11.5433 82.1367 11.5633 82.01 11.57C81.99 11.57 81.97 11.57 81.95 11.57C81.93 11.5633 81.9133 11.5633 81.9 11.57C81.8067 11.57 81.73 11.5833 81.67 11.61C81.6033 11.63 81.5233 11.64 81.43 11.64H81.35C81.2167 11.64 81.13 11.64 81.09 11.64C81.05 11.6333 80.95 11.6333 80.79 11.64C80.7833 11.64 80.7567 11.6467 80.71 11.66C80.6633 11.6667 80.64 11.66 80.64 11.64C80.64 11.4667 80.63 11.3033 80.61 11.15C80.5967 11.0033 80.59 10.86 80.59 10.72L80.69 10.64H81.17C81.2967 10.5933 81.4167 10.5633 81.53 10.55C81.6367 10.5433 81.76 10.5167 81.9 10.47C82.0267 10.3833 82.1433 10.3 82.25 10.22C82.3567 10.1333 82.4767 10.0667 82.61 10.02C82.7033 9.93333 82.7933 9.84667 82.88 9.76C82.96 9.67333 83.0233 9.58333 83.07 9.49C83.1567 9.40333 83.21 9.31333 83.23 9.22C83.2567 9.12667 83.2933 9.03333 83.34 8.94C83.34 8.86 83.3533 8.77333 83.38 8.68C83.4067 8.59333 83.42 8.50333 83.42 8.41V8.05C83.42 8.00333 83.4067 7.99333 83.38 8.02C83.36 8.02667 83.3467 8.03667 83.34 8.05C83.2067 8.13 83.0533 8.17667 82.88 8.19C82.7 8.20333 82.52 8.21 82.34 8.21H82.25C82.1167 8.20333 81.99 8.17667 81.87 8.13C81.75 8.10333 81.6467 8.07667 81.56 8.05C81.4733 8.01667 81.38 7.97333 81.28 7.92C81.2533 7.9 81.21 7.88 81.15 7.86C81.0967 7.83333 81.0033 7.78333 80.87 7.71L80.71 7.51L80.4 7.18C80.3733 7.13333 80.3467 7.07333 80.32 7C80.3 6.92 80.27 6.83 80.23 6.73C80.21 6.67667 80.1867 6.61667 80.16 6.55C80.1333 6.48333 80.11 6.41333 80.09 6.34V5.16C80.09 5.11333 80.1033 5.05 80.13 4.97C80.15 4.89 80.16 4.83333 80.16 4.8C80.16 4.78 80.1633 4.76 80.17 4.74C80.17 4.72 80.1733 4.70333 80.18 4.69C80.1867 4.67 80.19 4.64667 80.19 4.62ZM82.34 6.16C82.3867 6.16 82.4333 6.15333 82.48 6.14C82.52 6.13333 82.5633 6.10667 82.61 6.06C82.63 6.02 82.6367 5.98 82.63 5.94C82.6233 5.9 82.63 5.87 82.65 5.85C82.6967 5.77667 82.7167 5.73 82.71 5.71C82.6967 5.69 82.69 5.65667 82.69 5.61C82.69 5.56333 82.6733 5.50667 82.64 5.44C82.6133 5.36667 82.5767 5.30667 82.53 5.26C82.4833 5.21333 82.45 5.19 82.43 5.19C82.41 5.19 82.35 5.21333 82.25 5.26C82.1833 5.32667 82.15 5.46333 82.15 5.67C82.15 5.68333 82.1467 5.72333 82.14 5.79C82.1333 5.85667 82.14 5.91667 82.16 5.97C82.16 5.99 82.1833 6.02667 82.23 6.08C82.2767 6.13333 82.3133 6.16 82.34 6.16Z" fill="black"/>
</svg>
