<svg width="73.934" height="20.272" viewBox="0 0 73.934 20.272" xmlns="http://www.w3.org/2000/svg"><path transform="translate(0 16.24) scale(.014 -.014)" d="m697 60q17 2 29.5-10t12.5-29-12.5-28.5-29.5-10.5q-30 3-53.5 4.5t-45.5 1.5-44-1.5-51-4.5q-16-1-28.5 10.5t-12.5 28.5 11 28 27 11q9 0 20.5-1.5t21.5-2.5h2q5 0 6 3.5t-2 7.5l-194 295q-5 8-12 1l-120-111q-5-5-5-11v-177q0-9 9-9 16 2 30.5 3t27.5 1q16 0 26.5-11.5t10.5-26.5q0-17-12.5-28.5t-29.5-10.5q-28 3-50 4.5t-42 1.5q-19 0-41-1.5t-51-4.5q-16-1-28.5 10.5t-12.5 28.5 12.5 28.5 28.5 9.5l35-2q9 0 9 8v583q0 10-9 8l-34-3q-17-1-29 10.5t-12 28.5 12 29 29 10q29-3 51-4.5t41-1.5q20 0 42 1.5t50 4.5q17 2 29.5-10t12.5-29-12.5-28.5-29.5-10.5q-13 2-26.5 3t-27.5 2q-9 0-9-9v-286q0-6 3.5-7.5t7.5 2.5l312 288q3 3 3 6 0 6-7 6-13-1-25.5-2t-23.5-3q-17-1-29.5 10.5t-12.5 28.5 12.5 29 29.5 10q31-3 54-4.5t45-1.5 44.5 1.5 50.5 4.5q17 2 29-10t12-29q0-16-10.5-27.5t-27.5-11.5q-4 0-8.5 0.5t-8.5 0.5h-3q-5 0-9-4l-243-223q-7-5-1-13l230-353q3-6 12-6 11 2 22.5 3t21.5 2z"/><path transform="translate(10.486 16.24) scale(.014 -.014)" d="m179 599q-25 0-42.5 17.5t-17.5 42.5q0 26 17.5 43t42.5 17 42.5-17 17.5-43q0-25-17.5-42.5t-42.5-17.5zm-87-617q-17-1-29.5 10.5t-12.5 28.5 12.5 29 29.5 10q9-1 19.5-2t20.5-2h2q7 0 7 9v364q0 8-7 8-22 0-42-3-17-1-29.5 10.5t-12.5 28.5 12.5 29 29.5 10q28-2 39-3.5t15.5-1.5 10.5 0q25 0 42.5-17.5t17.5-42.5v-382q0-9 7-9 11 0 21.5 1.5t20.5 2.5q17 2 29-10t12-29-12-28.5-29-10.5q-20 2-43 4t-44 2-44-2-43-4z"/><path transform="translate(15.316 16.24) scale(.014 -.014)" d="m820 512q15 1 26-9.5t11-25.5q0-16-11-26t-26-9l-30 2q-9 0-11-7l-140-423q-4-14-16.5-23t-27.5-9-26.5 9-16.5 23l-112 361q-1 6-6 6-4 0-6-6l-113-360q-4-15-16.5-24t-27.5-9-27 9-17 24l-138 422q-2 7-11 7l-28-2q-15-1-26 9t-11 26q0 15 11 25.5t26 9.5q26-2 45.5-3.5t37.5-1.5 37.5 1.5 45.5 3.5q15 1 26-9.5t11-25.5-10-25-24-10q-12 0-24.5 1.5t-25.5 2.5q-11 0-8-10l106-328q2-6 6-6t6 7l106 355q5 17 19 27t30 10q17 0 30.5-10t18.5-27l106-355q2-7 6-7 5 0 6 6l106 327q0 1 0.5 2t0.5 2q0 6-7 6-13 0-25.5-1.5t-24.5-1.5q-14 0-24 10t-10 25 11 25.5 26 9.5q26-2 45.5-3.5t37.5-1.5 38 1.5 45 3.5z"/><path transform="translate(27.496 16.24) scale(.014 -.014)" d="m179 599q-25 0-42.5 17.5t-17.5 42.5q0 26 17.5 43t42.5 17 42.5-17 17.5-43q0-25-17.5-42.5t-42.5-17.5zm-87-617q-17-1-29.5 10.5t-12.5 28.5 12.5 29 29.5 10q9-1 19.5-2t20.5-2h2q7 0 7 9v364q0 8-7 8-22 0-42-3-17-1-29.5 10.5t-12.5 28.5 12.5 29 29.5 10q28-2 39-3.5t15.5-1.5 10.5 0q25 0 42.5-17.5t17.5-42.5v-382q0-9 7-9 11 0 21.5 1.5t20.5 2.5q17 2 29-10t12-29-12-28.5-29-10.5q-20 2-43 4t-44 2-44-2-43-4z"/><path transform="translate(35.826 16.24) scale(.014 -.014)" d="m859 60q17 2 29.5-10t12.5-29-12.5-28.5-29.5-10.5q-29 3-50.5 4.5t-41.5 1.5q-19 0-41-1.5t-51-4.5q-17-1-29 10.5t-12 28.5 12 29 29 10q13-1 27-2t28-3q9 0 9 9v539q0 7-4 7.5t-6-5.5l-217-502q-6-13-18.5-22t-27.5-9q-14 0-27 9t-18 22l-202 506q-1 6-5 6-5 0-5-8v-543q0-9 9-9 14 2 28 3t27 2q17 2 29-10t12-29-12-28.5-29-10.5q-29 3-50.5 4.5t-41.5 1.5-41.5-1.5-50.5-4.5q-17-1-29.5 10.5t-12.5 28.5 12.5 29 29.5 10l33-3h2q7 0 7 8v582q0 10-9 8-9 0-17.5-1t-17.5-1q-16 0-27 11.5t-11 27.5q0 17 13 28.5t30 9.5q33-4 55-6t46-2q26 0 48-15t32-40l189-481q3-6 6-6 5 0 6 6l203 482q10 24 32.5 39t48.5 15q25 0 46 2t52 6q17 2 30-10t13-29-13-28.5-30-9.5l-30 3h-2q-7 0-7-8v-583q0-10 10-8z"/><path transform="translate(49.196 16.24) scale(.014 -.014)" d="m506 59q15 0 25.5-11.5t10.5-26.5q0-18-13-29.5t-30-8.5q-13 3-28 5t-30 3q-20 0-36 12t-22 31q-3 9-10 3-34-26-74-40t-95-14q-66 0-110 38.5t-44 100.5q0 71 50 116t132 45q31 0 66-7t72-22q1 0 2-0.5t2-0.5q7 0 7 8v40q0 71-37.5 106t-87.5 35q-33 0-68-15-7-4-5-12 3-9 3-17 0-22-15.5-40t-41.5-18q-27 0-42.5 18.5t-15.5 42.5q0 25 18 46 27 31 67.5 48t86.5 17q78 0 124.5-29t67-77 20.5-105v-241q0-8 8-8 11 0 22 3.5t21 3.5zm-302-4q58 2 97 19t76 55q4 5 4 11v28q0 7-6 10-21 12-53 24t-86 12q-62 0-88.5-28t-26.5-64q0-24 13-38.5t32.5-21.5 37.5-7z"/><path transform="translate(57.232 16.24) scale(.014 -.014)" d="m498 478q6-13 6-25 0-23-17-39t-40-16q-17 0-30.5 9.5t-21.5 23.5q-3 7-11 7-36-3-68.5-29.5t-57.5-66.5-40-86q-2-4-2-11v-188q0-8 7-8 12 0 23.5 1.5t23.5 1.5q14 0 24-10t10-25-11-25.5-27-9.5q-31 3-50 4.5t-37 1.5q-21 0-39.5-1.5t-47.5-4.5q-16-1-27 9.5t-11 25.5 10 25 24 10q10 0 21.5-1t22.5-2h2q7 0 7 8v372q0 8-7 8-22 0-42-3-17-1-29.5 10.5t-12.5 28.5 12.5 28.5 29.5 9.5q21-2 32.5-3t23-1 31.5 0q16 0 26.5-11t10.5-26v-58q0-6 3.5-7.5t7.5 3.5q30 44 71.5 73t97.5 36q6 1 12 1.5t12 0.5q26 0 47.5-9t30.5-32z"/><path transform="translate(64.456 16.24) scale(.014 -.014)" d="m598 57q17 2 29-9t12-28q0-16-12-27.5t-29-9.5q-14 2-30 4.5t-31 3.5q-25 1-42.5 18t-17.5 42v14q0 6-3.5 7.5t-7.5-3.5q-30-38-69-62t-89-24q-69 0-121 36-22 16-43.5 47.5t-21.5 83.5v287q0 8-7 8-12 0-23.5-1.5t-22.5-1.5q-14 0-24 10t-10 25 11 25.5 26 8.5q23-2 36.5-2.5t28.5-1.5q25 0 42.5-17.5t17.5-42.5v-297q0-33 14-51.5t34-27.5 38-11 25-2q50 0 92.5 32.5t73.5 81.5q3 6 3 11v254q0 8-7 8-11 0-23.5-1.5t-22.5-1.5q-14 0-24 10t-10 25 11 25.5 26 8.5q23-2 36.5-2.5t28.5-1.5q25 0 42.5-17.5t17.5-42.5v-387q0-8 8-8 10 0 19 2t19 3z"/></svg>