<svg width="33" height="10" viewBox="0 0 33 10" fill="none" xmlns="http://www.w3.org/2000/svg">
<path d="M4.38 3.77C5.08 3.86333 5.61667 4.09667 5.99 4.47C6.36333 4.84333 6.68 5.45667 6.94 6.31L7.92 9.8H6.91L5.95 6.4C5.81667 5.94 5.66333 5.58333 5.49 5.33C5.31667 5.07 5.08667 4.88 4.8 4.76C4.50667 4.64 4.12 4.56 3.64 4.52L1.51 6.72V9.8H0.5V0H1.51V5.5L6.77 0H8.02L4.38 3.77ZM11.97 9.95C11.09 9.95 10.4033 9.73 9.91 9.29C9.42333 8.84333 9.18 8.22 9.18 7.42V5.6C9.18 4.8 9.42333 4.17667 9.91 3.73C10.4033 3.29 11.09 3.07 11.97 3.07C12.8433 3.07 13.5267 3.29 14.02 3.73C14.5067 4.17667 14.75 4.8 14.75 5.6V7.42C14.75 8.22 14.5067 8.84333 14.02 9.29C13.5267 9.73 12.8433 9.95 11.97 9.95ZM11.97 9.2C12.5567 9.2 13.01 9.04667 13.33 8.74C13.65 8.42667 13.81 7.98667 13.81 7.42V5.6C13.81 5.03333 13.65 4.59333 13.33 4.28C13.01 3.97333 12.5567 3.82 11.97 3.82C11.3767 3.82 10.92 3.97333 10.6 4.28C10.28 4.59333 10.12 5.03333 10.12 5.6V7.42C10.12 7.98667 10.28 8.42667 10.6 8.74C10.92 9.04667 11.3767 9.2 11.97 9.2ZM16.92 9.8V0H17.93V4.48H23.33V0H24.34V9.8H23.33V5.29H17.93V9.8H16.92ZM29.3 9.95C28.42 9.95 27.7367 9.73 27.25 9.29C26.7567 8.84333 26.51 8.22 26.51 7.42V5.6C26.51 4.8 26.7567 4.17667 27.25 3.73C27.7367 3.29 28.42 3.07 29.3 3.07C30.1733 3.07 30.8567 3.29 31.35 3.73C31.8367 4.17667 32.08 4.8 32.08 5.6V7.42C32.08 8.22 31.8367 8.84333 31.35 9.29C30.8567 9.73 30.1733 9.95 29.3 9.95ZM29.3 9.2C29.8867 9.2 30.34 9.04667 30.66 8.74C30.9867 8.42667 31.15 7.98667 31.15 7.42V5.6C31.15 5.03333 30.9867 4.59333 30.66 4.28C30.34 3.97333 29.8867 3.82 29.3 3.82C28.7133 3.82 28.2567 3.97333 27.93 4.28C27.61 4.59333 27.45 5.03333 27.45 5.6V7.42C27.45 7.98667 27.61 8.42667 27.93 8.74C28.2567 9.04667 28.7133 9.2 29.3 9.2Z" fill="black"/>
</svg>
