<svg width="108.8" height="17.773" viewBox="0 0 108.8 17.773" xmlns="http://www.w3.org/2000/svg"><path transform="translate(0 14.014) scale(.0068359 -.0068359)" d="m479 1229v-578l424 486q54 62 83.5 111t29.5 85q0 26-25 36-25 9-76 9v84h453v-84q-73 0-138-56t-136-136l-297-334 432-602q59-81 113.5-122.5t111.5-41.5h4v-86h-22q-103 0-169 8t-111 29-78.5 56.5-71.5 90.5l-353 506-174-141v-316q0-91 46-119t122-28h27v-86h-596v86h26q76 0 122 26t46 111v1014q0 86-47 112.5t-121 26.5h-26v86h596v-86h-27q-76 0-122-28t-46-119z"/><path transform="translate(9.8027 14.014) scale(.0068359 -.0068359)" d="m1069 551q0-289-122.5-430t-358.5-141q-226 0-348 141-61 71-94 178.5t-33 251.5q0 287 121.5 427t359.5 140q228 0 349-139 62-70 94-177t32-251zm-758 0q0-114 15-200.5t49-145.5q67-119 217-119 149 0 216 119 33 59 47.5 145.5t14.5 200.5-15 200-48 144q-67 115-217 115-149 0-216-115-33-58-48-144t-15-200z"/><path transform="translate(17.883 14.014) scale(.0068359 -.0068359)" d="m582 86h6v-86h-551v86h16q77 0 122.5 28t45.5 119v1098q0 86-47 112.5t-121 26.5h-16v86h377v-450q0-28-1-58.5t-3-56.5q-1-15-2-30t-2-29h10q92 186 301 186 177 0 268-95 94-100 94-306v-484q0-90 41.5-118.5t116.5-28.5h6v-86h-356v707q0 134-50 207t-175 73-187-90q-61-86-61-242v-432q0-85 46-111t122-26z"/><path transform="translate(30.406 14.014) scale(.0068359 -.0068359)" d="m506-20q-100 0-176.5 21.5t-127.5 58.5q-104 75-104 208 0 62 38.5 100t109.5 38q3-64 19.5-123t49.5-104 84-72 123-27q138 0 215.5 66.5t77.5 191.5q0 110-69 179-37 36-97.5 69.5t-150.5 70.5q-95 39-166 83.5t-118 99.5q-93 106-93 272 0 88 33.5 157t93.5 117q123 97 321 97 92 0 163-19t120-51q100-66 100-160 0-66-43.5-99.5t-117.5-33.5q0 69-23.5 128t-74 95.5-132.5 36.5q-115 0-182.5-62.5t-67.5-170.5q0-121 70-191 38-37 98.5-71t149.5-70q90-37 160.5-78t119.5-91q49-51 75-113.5t26-141.5q0-192-137-303-134-108-367-108z"/><path transform="translate(38.021 14.014) scale(.0068359 -.0068359)" d="m549 1016q-113 0-150-59.5t-37-163.5q-85 0-129.5 29t-44.5 100q0 53 29 90t80 61q50 23 117 34t143 11q94 0 164-18.5t117-60.5q94-84 94-275v-531q0-82 28-114.5t99-32.5h6v-86h-277l-32 176h-17q-45-60-87-104t-96-68-136-24q-68 0-126.5 20t-100.5 60q-43 41-67 102t-24 145q0 163 116 242t351 86l170 6v123q0 78-13.5 134.5t-54 87-122.5 30.5zm-248-719q0-191 166-191 126 0 199 77.5t73 207.5v166l-131-6q-168-7-240-70-36-31-51.5-77.5t-15.5-106.5z"/><path transform="translate(45.903 14.014) scale(.0068359 -.0068359)" d="m602 86h6v-86h-551v86h17q77 0 122.5 28t45.5 119v639q0 86-47 113t-121 27h-6v86h331l27-166h10q62 110 138 148t182 38q164 0 253-95 91-100 91-306v-484q0-90 40.5-118.5t116.5-28.5h7v-86h-357v707q0 134-50 207t-175 73q-70 0-117.5-27t-76.5-73-41.5-106-12.5-126v-432q0-85 46-111t122-26z"/><path transform="translate(54.934 14.014) scale(.0068359 -.0068359)" d="m543 88q37 0 68 4t63 10v-90q-28-13-82.5-22.5t-99.5-9.5q-157 0-226 70-71 72-71 247v684h-156v82q37 0 81.5 15t78.5 50q35 38 56.5 90.5t37.5 131.5h94v-252h268v-117h-268v-690q0-105 42.5-154t113.5-49z"/><path transform="translate(59.862 14.014) scale(.0068359 -.0068359)" d="m588-20q-225 0-349 147-61 72-93.5 176.5t-32.5 237.5q0 287 118 432t336 145q203 0 312-123 55-61 84.5-153t29.5-213v-94h-682q4-222 82-325 75-101 223-101 97 0 175.5 41t117.5 102q14-6 26.5-25t12.5-45q0-31-22-66.5t-67-65.5-112.5-50-158.5-20zm-25 1028q-114 0-175.5-92.5t-72.5-270.5h471q0 81-12 148t-38 115-68.5 74-104.5 26z"/><path transform="translate(67.354 14.014) scale(.0068359 -.0068359)" d="m1145 551q0-293-108-434-105-137-310-137-112 0-189 48t-124 132h-8q1-26 2-51t2-48q1-12 1.5-42.5t1.5-58 1-32.5v-196q0-86 46.5-112t121.5-26h6v-86h-551v86h16q77 0 122.5 28.5t45.5 119.5v1130q0 86-47 113t-121 27h-26v86h358l21-185h8q47 97 121 151t192 54q205 0 310-136 108-141 108-431zm-453 436q-155 0-219-107-32-54-45.5-136t-13.5-193q0-107 13.5-189t46.5-138q32-56 85.5-84.5t134.5-28.5q132 0 194 113 30 56 44 138.5t14 190.5q0 222-58 326-61 108-196 108z"/><path transform="translate(75.947 14.014) scale(.0068359 -.0068359)" d="m582 86h6v-86h-551v86h16q77 0 122.5 28t45.5 119v1098q0 86-47 112.5t-121 26.5h-16v86h377v-450q0-28-1-58.5t-3-56.5q-1-15-2-30t-2-29h10q92 186 301 186 177 0 268-95 94-100 94-306v-484q0-90 41.5-118.5t116.5-28.5h6v-86h-356v707q0 134-50 207t-175 73-187-90q-61-86-61-242v-432q0-85 46-111t122-26z"/><path transform="translate(84.834 14.014) scale(.0068359 -.0068359)" d="m588-20q-225 0-349 147-61 72-93.5 176.5t-32.5 237.5q0 287 118 432t336 145q203 0 312-123 55-61 84.5-153t29.5-213v-94h-682q4-222 82-325 75-101 223-101 97 0 175.5 41t117.5 102q14-6 26.5-25t12.5-45q0-31-22-66.5t-67-65.5-112.5-50-158.5-20zm-25 1028q-114 0-175.5-92.5t-72.5-270.5h471q0 81-12 148t-38 115-68.5 74-104.5 26z"/><path transform="translate(92.326 14.014) scale(.0068359 -.0068359)" d="m549 1016q-113 0-150-59.5t-37-163.5q-85 0-129.5 29t-44.5 100q0 53 29 90t80 61q50 23 117 34t143 11q94 0 164-18.5t117-60.5q94-84 94-275v-531q0-82 28-114.5t99-32.5h6v-86h-277l-32 176h-17q-45-60-87-104t-96-68-136-24q-68 0-126.5 20t-100.5 60q-43 41-67 102t-24 145q0 163 116 242t351 86l170 6v123q0 78-13.5 134.5t-54 87-122.5 30.5zm-248-719q0-191 166-191 126 0 199 77.5t73 207.5v166l-131-6q-168-7-240-70-36-31-51.5-77.5t-15.5-106.5z"/><path transform="translate(100.21 14.014) scale(.0068359 -.0068359)" d="m1145 551q0-293-108-434-105-137-310-137-112 0-189 48t-124 132h-8q1-26 2-51t2-48q1-12 1.5-42.5t1.5-58 1-32.5v-196q0-86 46.5-112t121.5-26h6v-86h-551v86h16q77 0 122.5 28.5t45.5 119.5v1130q0 86-47 113t-121 27h-26v86h358l21-185h8q47 97 121 151t192 54q205 0 310-136 108-141 108-431zm-453 436q-155 0-219-107-32-54-45.5-136t-13.5-193q0-107 13.5-189t46.5-138q32-56 85.5-84.5t134.5-28.5q132 0 194 113 30 56 44 138.5t14 190.5q0 222-58 326-61 108-196 108z"/></svg>