<svg width="40" height="13" viewBox="0 0 40 13" fill="none" xmlns="http://www.w3.org/2000/svg">
<path d="M1.71 10.53H0.5V0H1.71V4.96L4.79 0H6.23L3.53 4.06L6.58 10.53H5.1L2.77 5.21L1.71 6.81V10.53ZM10.45 10.62C9.87 10.62 9.38333 10.52 8.99 10.32C8.60333 10.12 8.3 9.84333 8.08 9.49C7.85333 9.13 7.69333 8.72 7.6 8.26C7.50667 7.8 7.46 7.31667 7.46 6.81C7.46 6.10333 7.55333 5.47333 7.74 4.92C7.92667 4.36667 8.24 3.92667 8.68 3.6C9.12 3.28 9.72667 3.12 10.5 3.12C11.0533 3.12 11.5167 3.22333 11.89 3.43C12.2633 3.63667 12.5633 3.92 12.79 4.28C13.0167 4.63333 13.1833 5.03333 13.29 5.48C13.39 5.92667 13.44 6.38667 13.44 6.86C13.44 7.35333 13.39 7.82333 13.29 8.27C13.1833 8.71667 13.0133 9.11667 12.78 9.47C12.5467 9.83 12.24 10.11 11.86 10.31C11.4733 10.5167 11.0033 10.62 10.45 10.62ZM10.45 9.54C10.8233 9.54 11.13 9.46 11.37 9.3C11.6033 9.14 11.7833 8.93 11.91 8.67C12.0367 8.40333 12.1233 8.11333 12.17 7.8C12.2167 7.49333 12.24 7.18333 12.24 6.87C12.24 6.56333 12.2167 6.25333 12.17 5.94C12.1233 5.62667 12.0367 5.33667 11.91 5.07C11.7767 4.80333 11.59 4.59 11.35 4.43C11.1167 4.27667 10.8067 4.2 10.42 4.2C10.0467 4.2 9.74333 4.28 9.51 4.44C9.27667 4.60667 9.1 4.82 8.98 5.08C8.86 5.34667 8.77667 5.63667 8.73 5.95C8.68333 6.26333 8.66 6.57 8.66 6.87C8.66 7.18333 8.68333 7.49333 8.73 7.8C8.77667 8.11333 8.86333 8.40333 8.99 8.67C9.11667 8.93 9.29667 9.14 9.53 9.3C9.77 9.46 10.0767 9.54 10.45 9.54ZM17.64 10.62C16.7867 10.62 16.13 10.45 15.67 10.11C15.2167 9.77 14.8833 9.18 14.67 8.34H16.08C16.1467 8.78667 16.3233 9.10333 16.61 9.29C16.8967 9.48333 17.2533 9.58 17.68 9.58C18.0267 9.58 18.3333 9.51333 18.6 9.38C18.86 9.24 18.99 8.97333 18.99 8.58C18.99 8.34667 18.89 8.14667 18.69 7.98C18.49 7.82 18.2367 7.67 17.93 7.53C17.6167 7.39667 17.2833 7.25667 16.93 7.11C16.5767 6.97 16.2433 6.81333 15.93 6.64C15.6233 6.46 15.37 6.24667 15.17 6C14.97 5.75333 14.87 5.45333 14.87 5.1C14.87 4.63333 14.9933 4.25333 15.24 3.96C15.4933 3.67333 15.8133 3.46 16.2 3.32C16.5867 3.18667 16.98 3.12 17.38 3.12C18.84 3.12 19.73 3.84333 20.05 5.29H18.69C18.63 4.89667 18.48 4.61 18.24 4.43C18.0067 4.24333 17.6967 4.15 17.31 4.15C17.01 4.15 16.7333 4.21 16.48 4.33C16.2267 4.45 16.1 4.68667 16.1 5.04C16.1 5.23333 16.1933 5.41333 16.38 5.58C16.5733 5.74 16.81 5.88667 17.09 6.02C17.3633 6.15333 17.63 6.26667 17.89 6.36C18.1433 6.46 18.3333 6.53667 18.46 6.59C18.7867 6.72333 19.0867 6.87 19.36 7.03C19.6267 7.18333 19.8367 7.37667 19.99 7.61C20.15 7.85 20.23 8.17333 20.23 8.58C20.23 9.06667 20.1 9.46 19.84 9.76C19.5867 10.06 19.2633 10.28 18.87 10.42C18.4767 10.5533 18.0667 10.62 17.64 10.62ZM23.77 10.62C22.9767 10.62 22.4133 10.3933 22.08 9.94C21.7533 9.49333 21.59 8.9 21.59 8.16V3.21H22.75V8.05C22.75 8.45 22.8333 8.8 23 9.1C23.1667 9.39333 23.4767 9.54 23.93 9.54C24.31 9.54 24.67 9.44333 25.01 9.25C25.35 9.05 25.6233 8.79 25.83 8.47C26.0433 8.14333 26.15 7.78333 26.15 7.39V3.21H27.31V10.53H26.15V9.28C25.8567 9.67333 25.5133 9.99667 25.12 10.25C24.7267 10.4967 24.2767 10.62 23.77 10.62ZM31.4 12.26C31.1133 12.26 30.8 12.2433 30.46 12.21C30.12 12.1833 29.7933 12.1133 29.48 12C29.1733 11.8933 28.92 11.7267 28.72 11.5C28.5133 11.28 28.41 10.9833 28.41 10.61C28.41 10.1767 28.5567 9.83333 28.85 9.58C29.1367 9.32667 29.46 9.13 29.82 8.99C29.66 8.91667 29.4933 8.81 29.32 8.67C29.1467 8.53 29.06 8.36 29.06 8.16C29.06 7.91333 29.1633 7.71 29.37 7.55C29.5833 7.39 29.79 7.27 29.99 7.19C29.6433 6.99 29.3667 6.74333 29.16 6.45C28.9533 6.15667 28.85 5.80667 28.85 5.4C28.85 4.90667 28.9767 4.49 29.23 4.15C29.4767 3.81667 29.8033 3.56 30.21 3.38C30.6167 3.20667 31.0433 3.12 31.49 3.12C32.1567 3.12 32.73 3.33333 33.21 3.76C33.4233 3.57333 33.6533 3.42333 33.9 3.31C34.1467 3.19667 34.4067 3.13333 34.68 3.12V4.28C34.52 4.28 34.36 4.29 34.2 4.31C34.0467 4.33667 33.89 4.38 33.73 4.44C33.8033 4.59333 33.8633 4.75667 33.91 4.93C33.9567 5.09667 33.98 5.27 33.98 5.45C33.98 5.93667 33.86 6.34 33.62 6.66C33.3733 6.97333 33.06 7.21 32.68 7.37C32.3 7.52333 31.89 7.6 31.45 7.6C31.33 7.6 31.2133 7.59 31.1 7.57C30.9867 7.54333 30.87 7.53 30.75 7.53C30.65 7.53 30.5267 7.57 30.38 7.65C30.2267 7.72333 30.15 7.82667 30.15 7.96C30.15 8.07333 30.2533 8.16667 30.46 8.24C30.6667 8.30667 30.93 8.37 31.25 8.43C31.5767 8.49667 31.92 8.57333 32.28 8.66C32.64 8.74667 32.98 8.86333 33.3 9.01C33.6267 9.15667 33.8933 9.35333 34.1 9.6C34.3 9.84 34.4 10.15 34.4 10.53C34.4 10.9167 34.3 11.2267 34.1 11.46C33.9 11.6933 33.6467 11.8667 33.34 11.98C33.0267 12.0933 32.6967 12.17 32.35 12.21C32.0033 12.2433 31.6867 12.26 31.4 12.26ZM31.44 6.63C31.8667 6.63 32.2133 6.53333 32.48 6.34C32.7533 6.14667 32.89 5.82 32.89 5.36C32.89 4.9 32.76 4.57333 32.5 4.38C32.24 4.18667 31.8933 4.09 31.46 4.09C31.08 4.09 30.7333 4.20333 30.42 4.43C30.1067 4.65667 29.95 4.98 29.95 5.4C29.95 5.82 30.1033 6.13 30.41 6.33C30.7233 6.53 31.0667 6.63 31.44 6.63ZM31.26 11.29C31.3933 11.29 31.5767 11.2833 31.81 11.27C32.0367 11.2567 32.2633 11.2233 32.49 11.17C32.7167 11.1233 32.91 11.04 33.07 10.92C33.23 10.8 33.31 10.64 33.31 10.44C33.31 10.18 33.1967 9.98 32.97 9.84C32.7433 9.70667 32.5233 9.60667 32.31 9.54C32.2167 9.51333 32.0967 9.47667 31.95 9.43C31.7967 9.38333 31.6467 9.34667 31.5 9.32C31.3467 9.28667 31.22 9.27 31.12 9.27C30.92 9.27 30.6967 9.31333 30.45 9.4C30.1967 9.48667 29.9767 9.61333 29.79 9.78C29.6033 9.94667 29.51 10.1533 29.51 10.4C29.51 10.6 29.57 10.7633 29.69 10.89C29.8167 11.01 29.9733 11.0967 30.16 11.15C30.3533 11.21 30.55 11.2467 30.75 11.26C30.9433 11.28 31.1133 11.29 31.26 11.29ZM39.15 1.39H37.75V0H39.15V1.39ZM39.05 10.53H37.85V3.21H39.05V10.53Z" fill="black"/>
</svg>
