<svg width="48" height="14" viewBox="0 0 48 14" fill="none" xmlns="http://www.w3.org/2000/svg">
<path d="M1.04125 0C1.06125 0.0733333 1.08792 0.103333 1.12125 0.0900002C1.14792 0.0700002 1.18125 0.0599999 1.22125 0.0599999C1.25458 0.0799999 1.28458 0.0966668 1.31125 0.11C1.33792 0.13 1.37458 0.143333 1.42125 0.15C1.51458 0.183333 1.60792 0.19 1.70125 0.17C1.78792 0.156667 1.88125 0.146667 1.98125 0.14C2.00125 0.133334 2.02792 0.13 2.06125 0.13C2.09458 0.136667 2.11792 0.14 2.13125 0.14C2.21792 0.0933337 2.27458 0.0766668 2.30125 0.0900002C2.33458 0.103333 2.37125 0.11 2.41125 0.11C2.87125 0.13 3.34125 0.13 3.82125 0.11C3.86125 0.103333 3.90458 0.106667 3.95125 0.12C3.99792 0.133334 4.04458 0.123333 4.09125 0.0900002C4.11125 0.103333 4.13458 0.11 4.16125 0.11C4.19458 0.11 4.22125 0.12 4.24125 0.14C4.29458 0.0933337 4.35792 0.0833335 4.43125 0.11C4.50458 0.13 4.56792 0.143333 4.62125 0.15C4.64792 0.27 4.66458 0.353333 4.67125 0.4C4.67792 0.446667 4.67458 0.48 4.66125 0.5C4.64792 0.513333 4.62792 0.53 4.60125 0.55C4.56792 0.57 4.54458 0.61 4.53125 0.67C4.43125 0.683333 4.33458 0.656667 4.24125 0.59C4.16792 0.59 4.08792 0.596667 4.00125 0.61C3.91458 0.623333 3.83458 0.626667 3.76125 0.62C3.66125 0.6 3.56792 0.59 3.48125 0.59C3.39458 0.59 3.33792 0.61 3.31125 0.65C3.27792 0.663333 3.27125 0.69 3.29125 0.73C3.31125 0.763333 3.32125 0.793334 3.32125 0.82C3.33458 0.846667 3.33458 0.876667 3.32125 0.91C3.30792 0.936667 3.30458 0.966667 3.31125 1C3.31125 1.02667 3.31792 1.05333 3.33125 1.08C3.34458 1.1 3.35125 1.12333 3.35125 1.15C3.34458 1.25 3.34458 1.31667 3.35125 1.35C3.35792 1.38333 3.36792 1.41667 3.38125 1.45C3.40792 1.57667 3.43458 1.71 3.46125 1.85C3.48792 1.98333 3.50125 2.11667 3.50125 2.25C3.50792 2.30333 3.52792 2.35667 3.56125 2.41C3.58792 2.46333 3.60458 2.51667 3.61125 2.57C3.59125 2.68333 3.58792 2.74667 3.60125 2.76C3.60792 2.77333 3.61125 2.79 3.61125 2.81C3.61125 2.87 3.60792 2.92667 3.60125 2.98C3.60125 3.04 3.60458 3.1 3.61125 3.16C3.61125 3.2 3.61458 3.23333 3.62125 3.26C3.63458 3.29333 3.64125 3.33 3.64125 3.37C3.62792 3.40333 3.61458 3.43333 3.60125 3.46C3.58792 3.48 3.58125 3.50667 3.58125 3.54C3.57458 3.72667 3.58458 3.93333 3.61125 4.16C3.61125 4.18667 3.61792 4.21333 3.63125 4.24C3.64458 4.26667 3.65792 4.3 3.67125 4.34C3.65125 4.4 3.65125 4.45 3.67125 4.49C3.68458 4.52333 3.69792 4.56333 3.71125 4.61C3.72458 4.70333 3.72458 4.79667 3.71125 4.89C3.69792 4.98333 3.69792 5.07667 3.71125 5.17C3.73792 5.19 3.77458 5.18 3.82125 5.14C3.86125 5.10667 3.90792 5.06333 3.96125 5.01C4.00792 4.95667 4.05125 4.9 4.09125 4.84C4.12458 4.78667 4.14125 4.74667 4.14125 4.72C4.18792 4.72 4.21792 4.7 4.23125 4.66C4.24458 4.62 4.26458 4.59 4.29125 4.57C4.41125 4.50333 4.48125 4.45333 4.50125 4.42C4.52125 4.38 4.54792 4.34333 4.58125 4.31C4.66125 4.23667 4.70125 4.19333 4.70125 4.18C4.70125 4.16667 4.71125 4.15 4.73125 4.13C4.77792 4.07 4.83458 4.01667 4.90125 3.97C4.96125 3.92333 5.01458 3.86667 5.06125 3.8C5.09458 3.69333 5.13125 3.63 5.17125 3.61C5.20458 3.58333 5.22792 3.54333 5.24125 3.49C5.34125 3.44333 5.42125 3.38 5.48125 3.3C5.54125 3.22 5.62125 3.15667 5.72125 3.11C5.73458 3.06333 5.75792 3.02667 5.79125 3C5.82458 2.97333 5.85458 2.93667 5.88125 2.89C5.92792 2.84333 5.96792 2.79333 6.00125 2.74C6.04125 2.69333 6.08458 2.64667 6.13125 2.6C6.14458 2.58 6.16458 2.56333 6.19125 2.55C6.22458 2.53667 6.24792 2.52333 6.26125 2.51C6.30792 2.43667 6.35458 2.37667 6.40125 2.33C6.44792 2.29 6.50125 2.24333 6.56125 2.19C6.60792 2.15667 6.64458 2.11667 6.67125 2.07C6.69125 2.02333 6.73458 1.99 6.80125 1.97C6.80792 1.93667 6.81792 1.90667 6.83125 1.88C6.84458 1.85333 6.85458 1.82333 6.86125 1.79C6.92125 1.75667 6.97125 1.72 7.01125 1.68C7.05792 1.64 7.10458 1.6 7.15125 1.56C7.17125 1.54 7.19792 1.52667 7.23125 1.52C7.27125 1.51333 7.28458 1.48667 7.27125 1.44C7.26458 1.43333 7.24458 1.42333 7.21125 1.41C7.17125 1.40333 7.12792 1.39333 7.08125 1.38C7.03458 1.36667 6.99125 1.35333 6.95125 1.34C6.90458 1.33333 6.87458 1.33 6.86125 1.33C6.83458 1.32333 6.80792 1.32333 6.78125 1.33C6.75458 1.33667 6.72458 1.33667 6.69125 1.33C6.60458 1.29667 6.53458 1.28 6.48125 1.28C6.42792 1.28667 6.39792 1.29333 6.39125 1.3C6.25792 1.34 6.17792 1.37333 6.15125 1.4C6.12458 1.42667 6.08458 1.43 6.03125 1.41C5.93125 1.37667 5.87458 1.31 5.86125 1.21C5.84792 1.11 5.86792 1.02333 5.92125 0.95C5.98792 0.95 6.04458 0.936667 6.09125 0.91C6.14458 0.876667 6.20125 0.856667 6.26125 0.85C6.30792 0.843334 6.34458 0.84 6.37125 0.84C6.39125 0.846667 6.41125 0.853333 6.43125 0.86C6.45792 0.86 6.48792 0.86 6.52125 0.86C6.54792 0.853333 6.59458 0.84 6.66125 0.82C6.75458 0.84 6.81125 0.856667 6.83125 0.87C6.85125 0.883334 6.87125 0.89 6.89125 0.89C7.00458 0.903334 7.07458 0.916667 7.10125 0.93C7.12792 0.943334 7.15458 0.95 7.18125 0.95C7.23458 0.956667 7.28792 0.953333 7.34125 0.94C7.40125 0.926667 7.45792 0.93 7.51125 0.95C7.53792 0.956667 7.56125 0.963334 7.58125 0.97C7.60792 0.983334 7.63458 0.993333 7.66125 1C7.66792 1 7.69792 1 7.75125 1C7.79792 1 7.85458 0.996667 7.92125 0.99C7.98125 0.99 8.03792 0.986667 8.09125 0.98C8.13792 0.973333 8.17125 0.97 8.19125 0.97C8.23792 0.963334 8.28125 0.956667 8.32125 0.95C8.36125 0.936667 8.40458 0.926667 8.45125 0.92C8.45792 0.926667 8.49125 0.923334 8.55125 0.91C8.60458 0.896667 8.64125 0.89 8.66125 0.89C8.69458 0.903334 8.72792 0.916667 8.76125 0.93C8.80125 0.943334 8.83792 0.95 8.87125 0.95C8.91125 0.95 8.94792 0.943334 8.98125 0.93C9.00792 0.923334 9.04125 0.92 9.08125 0.92C9.15458 0.92 9.21792 0.923334 9.27125 0.93C9.32458 0.943334 9.37792 0.926667 9.43125 0.88C9.59125 0.953333 9.75792 0.966667 9.93125 0.92C9.95792 0.946667 9.96458 0.993333 9.95125 1.06C9.93792 1.12 9.95458 1.16 10.0012 1.18C9.96792 1.26 9.90792 1.31333 9.82125 1.34C9.73458 1.36 9.66125 1.39333 9.60125 1.44C9.56125 1.43333 9.52792 1.42 9.50125 1.4C9.47458 1.38667 9.44792 1.38 9.42125 1.38C9.28792 1.37333 9.20458 1.38 9.17125 1.4C9.13792 1.42 9.09792 1.40667 9.05125 1.36C8.89125 1.37333 8.72792 1.38667 8.56125 1.4C8.39458 1.40667 8.23125 1.42333 8.07125 1.45C8.03125 1.46333 8.01125 1.48333 8.01125 1.51C8.01125 1.54333 8.00458 1.57 7.99125 1.59C7.92458 1.59667 7.85125 1.63667 7.77125 1.71C7.68458 1.77667 7.62792 1.83667 7.60125 1.89C7.55458 1.91 7.48792 1.94667 7.40125 2C7.30792 2.05333 7.24792 2.10333 7.22125 2.15C7.12792 2.29 7.04792 2.38667 6.98125 2.44C6.91458 2.49333 6.84458 2.54667 6.77125 2.6C6.75125 2.64667 6.73125 2.68 6.71125 2.7C6.68458 2.72667 6.66792 2.76333 6.66125 2.81C6.63458 2.81667 6.59792 2.83667 6.55125 2.87C6.50458 2.91 6.45792 2.95333 6.41125 3C6.35792 3.04667 6.31125 3.09 6.27125 3.13C6.23125 3.17667 6.20125 3.21333 6.18125 3.24C6.16125 3.26667 6.14458 3.29667 6.13125 3.33C6.11792 3.36333 6.10458 3.39333 6.09125 3.42C6.04458 3.46667 5.98792 3.50667 5.92125 3.54C5.86125 3.57333 5.80125 3.61 5.74125 3.65C5.71458 3.67 5.69792 3.70667 5.69125 3.76C5.68458 3.82 5.64458 3.85 5.57125 3.85C5.57792 3.90333 5.60458 3.93667 5.65125 3.95C5.69792 3.97 5.72125 4.00333 5.72125 4.05C5.75458 4.09 5.77792 4.13 5.79125 4.17C5.80458 4.21 5.83792 4.23 5.89125 4.23C5.91125 4.27667 5.92458 4.31667 5.93125 4.35C5.94458 4.39 5.96125 4.42667 5.98125 4.46C6.04125 4.53333 6.06792 4.57667 6.06125 4.59C6.06125 4.60333 6.07125 4.62 6.09125 4.64L6.18125 4.76C6.20792 4.82667 6.24125 4.89 6.28125 4.95C6.31458 5.07 6.34125 5.14333 6.36125 5.17C6.38125 5.19667 6.39125 5.23333 6.39125 5.28C6.43125 5.32 6.46792 5.35667 6.50125 5.39C6.52792 5.43 6.54125 5.47667 6.54125 5.53C6.58125 5.57667 6.62458 5.62 6.67125 5.66C6.71125 5.7 6.75458 5.74333 6.80125 5.79C6.81458 5.80333 6.82792 5.84 6.84125 5.9C6.85458 5.95333 6.87125 5.99333 6.89125 6.02C6.91792 6.06667 6.95125 6.10667 6.99125 6.14C7.02458 6.18 7.04125 6.22333 7.04125 6.27C7.09458 6.31 7.15125 6.36667 7.21125 6.44C7.26458 6.50667 7.31458 6.56667 7.36125 6.62C7.43458 6.7 7.48125 6.77333 7.50125 6.84C7.52125 6.90667 7.57458 6.94667 7.66125 6.96C7.68792 7.10667 7.75458 7.21667 7.86125 7.29C7.92792 7.43667 7.98125 7.53667 8.02125 7.59C8.06125 7.64333 8.10125 7.70333 8.14125 7.77C8.18125 7.84333 8.21792 7.93 8.25125 8.03C8.28458 8.13 8.34125 8.19667 8.42125 8.23C8.42125 8.29 8.44125 8.35667 8.48125 8.43C8.52792 8.49667 8.57125 8.57333 8.61125 8.66C8.65792 8.74 8.70792 8.81667 8.76125 8.89C8.80792 8.96333 8.84458 9.02333 8.87125 9.07C8.94458 9.15667 9.00458 9.25667 9.05125 9.37C9.09125 9.47667 9.12792 9.55333 9.16125 9.6C9.24125 9.69333 9.28125 9.75333 9.28125 9.78C9.28125 9.80667 9.30125 9.81667 9.34125 9.81C9.33458 9.88333 9.34458 9.93333 9.37125 9.96C9.40458 9.98667 9.44458 10.0133 9.49125 10.04C9.51125 10.0867 9.52792 10.13 9.54125 10.17C9.56125 10.21 9.59458 10.2333 9.64125 10.24C9.63458 10.3133 9.64792 10.3633 9.68125 10.39C9.72125 10.41 9.74458 10.4467 9.75125 10.5C9.83125 10.5 9.91125 10.48 9.99125 10.44C10.0646 10.4 10.1446 10.4033 10.2312 10.45C10.3313 10.3833 10.4046 10.3533 10.4512 10.36C10.5046 10.3667 10.5479 10.36 10.5812 10.34C10.6746 10.3 10.7312 10.2867 10.7512 10.3C10.7779 10.3067 10.8012 10.3167 10.8212 10.33C10.8946 10.33 10.9646 10.3233 11.0312 10.31C11.1046 10.3033 11.1779 10.3233 11.2512 10.37C11.2646 10.3967 11.2712 10.4267 11.2712 10.46C11.2779 10.4867 11.2946 10.5067 11.3212 10.52C11.2746 10.5933 11.2312 10.6567 11.1912 10.71C11.1512 10.7633 11.1046 10.8233 11.0512 10.89C11.0112 10.85 10.9579 10.8433 10.8912 10.87C10.8246 10.8967 10.7679 10.9033 10.7212 10.89C10.6412 10.85 10.5312 10.8467 10.3912 10.88C10.2446 10.9133 10.1412 10.9567 10.0812 11.01C9.96125 10.99 9.84458 10.9933 9.73125 11.02C9.61792 11.0467 9.50458 11.06 9.39125 11.06C9.25792 11.0533 9.12125 11.06 8.98125 11.08C8.83458 11.1 8.69792 11.1267 8.57125 11.16C8.51125 11.18 8.46792 11.1867 8.44125 11.18C8.41458 11.1733 8.39125 11.1933 8.37125 11.24C8.32458 11.22 8.26458 11.2233 8.19125 11.25C8.11792 11.27 8.04125 11.29 7.96125 11.31C7.88125 11.33 7.80458 11.34 7.73125 11.34C7.65792 11.34 7.60125 11.3067 7.56125 11.24C7.52792 11.1867 7.51125 11.1333 7.51125 11.08C7.51125 11.0067 7.53792 10.9633 7.59125 10.95C7.64458 10.9433 7.68458 10.9033 7.71125 10.83C7.83792 10.85 7.96125 10.8467 8.08125 10.82C8.20125 10.7933 8.32458 10.76 8.45125 10.72C8.47125 10.7133 8.49458 10.7133 8.52125 10.72C8.54792 10.72 8.57458 10.7133 8.60125 10.7C8.74125 10.6533 8.84458 10.63 8.91125 10.63C8.97792 10.6367 9.04458 10.6167 9.11125 10.57C9.12458 10.5167 9.11125 10.4867 9.07125 10.48C9.03125 10.4667 9.01125 10.4367 9.01125 10.39C8.97792 10.2767 8.94792 10.2133 8.92125 10.2C8.90125 10.1867 8.88125 10.1633 8.86125 10.13C8.84125 10.1167 8.82458 10.0933 8.81125 10.06C8.79792 10.0267 8.76792 10.01 8.72125 10.01C8.73458 9.97667 8.73458 9.95 8.72125 9.93C8.70792 9.91 8.70125 9.88667 8.70125 9.86C8.67458 9.84 8.65458 9.81667 8.64125 9.79C8.62125 9.75667 8.59792 9.73 8.57125 9.71C8.58458 9.66333 8.58125 9.63 8.56125 9.61C8.54125 9.59667 8.53792 9.57 8.55125 9.53C8.52458 9.48333 8.49458 9.44667 8.46125 9.42C8.42792 9.38667 8.39792 9.34667 8.37125 9.3C8.32458 9.22 8.29458 9.18 8.28125 9.18C8.26792 9.18 8.25792 9.17 8.25125 9.15C8.23125 9.12333 8.21792 9.09 8.21125 9.05C8.20458 9.01 8.18125 8.98333 8.14125 8.97C8.14792 8.93667 8.14125 8.91 8.12125 8.89C8.10792 8.87 8.10792 8.83667 8.12125 8.79C8.10792 8.76333 8.08458 8.74333 8.05125 8.73C8.02458 8.71 8.00458 8.68667 7.99125 8.66C7.95792 8.61333 7.93792 8.55667 7.93125 8.49C7.92458 8.41667 7.88458 8.37333 7.81125 8.36C7.78458 8.12 7.66458 7.91333 7.45125 7.74C7.46458 7.72 7.45792 7.68667 7.43125 7.64C7.41125 7.58667 7.38125 7.53333 7.34125 7.48C7.29458 7.42 7.25125 7.36333 7.21125 7.31C7.16458 7.26333 7.12792 7.23 7.10125 7.21C7.05458 7.09 6.98458 7.02 6.89125 7C6.85792 6.9 6.83458 6.83333 6.82125 6.8C6.80792 6.76 6.79125 6.72667 6.77125 6.7C6.71792 6.62667 6.66458 6.55667 6.61125 6.49C6.56458 6.42333 6.52125 6.35 6.48125 6.27C6.46125 6.23667 6.45125 6.20667 6.45125 6.18C6.44458 6.14667 6.43125 6.11667 6.41125 6.09C6.35792 6.02333 6.32792 5.99 6.32125 5.99C6.30792 5.99 6.29458 5.98 6.28125 5.96C6.24125 5.87333 6.20458 5.81333 6.17125 5.78C6.14458 5.74667 6.11792 5.71667 6.09125 5.69L5.98125 5.53C5.96792 5.51 5.96458 5.48667 5.97125 5.46C5.97792 5.43333 5.97125 5.40667 5.95125 5.38C5.83792 5.18 5.76125 5.01333 5.72125 4.88C5.67458 4.74667 5.59125 4.64333 5.47125 4.57C5.46458 4.46333 5.40458 4.38667 5.29125 4.34C5.23792 4.34 5.18792 4.36333 5.14125 4.41C5.09458 4.46333 5.05125 4.50667 5.01125 4.54C4.93792 4.58 4.89125 4.62 4.87125 4.66C4.85125 4.7 4.82792 4.73333 4.80125 4.76C4.77458 4.80667 4.74125 4.85 4.70125 4.89C4.66792 4.93 4.62792 4.96333 4.58125 4.99C4.56125 5.01 4.53792 5.02333 4.51125 5.03C4.48458 5.04333 4.46125 5.06 4.44125 5.08C4.42792 5.09333 4.41458 5.11667 4.40125 5.15C4.38792 5.18333 4.37125 5.21 4.35125 5.23C4.30458 5.28333 4.25792 5.33 4.21125 5.37C4.15792 5.41 4.10792 5.46333 4.06125 5.53C4.04125 5.59 4.01792 5.63333 3.99125 5.66C3.93792 5.72 3.89458 5.75667 3.86125 5.77C3.82125 5.79 3.80792 5.82333 3.82125 5.87C3.76125 6.04333 3.73792 6.21333 3.75125 6.38C3.75792 6.54667 3.77125 6.68 3.79125 6.78C3.79792 6.79333 3.80125 6.82 3.80125 6.86C3.80125 6.9 3.80125 6.94667 3.80125 7C3.80125 7.04667 3.80792 7.09667 3.82125 7.15C3.82792 7.19667 3.84792 7.23333 3.88125 7.26C3.86792 7.44667 3.86792 7.63333 3.88125 7.82C3.90125 8.01333 3.90125 8.2 3.88125 8.38C3.94125 8.54 3.97792 8.64667 3.99125 8.7C4.01125 8.75333 4.03125 8.81667 4.05125 8.89C4.05792 8.96333 4.05792 9.04333 4.05125 9.13C4.05125 9.21667 4.08125 9.28333 4.14125 9.33C4.30792 9.35667 4.47458 9.37 4.64125 9.37C4.80125 9.37 4.96792 9.38 5.14125 9.4C5.16792 9.38667 5.19125 9.37 5.21125 9.35C5.23125 9.32333 5.25792 9.30667 5.29125 9.3C5.27125 9.34667 5.28458 9.37333 5.33125 9.38C5.37125 9.38 5.40125 9.39333 5.42125 9.42C5.43458 9.46 5.43792 9.50333 5.43125 9.55C5.42458 9.59 5.42792 9.63333 5.44125 9.68C5.40792 9.74667 5.35792 9.79 5.29125 9.81C5.21792 9.83667 5.15792 9.87333 5.11125 9.92C5.01125 9.87333 4.91125 9.85667 4.81125 9.87C4.70458 9.89 4.60125 9.89667 4.50125 9.89C4.47458 9.87667 4.44792 9.86667 4.42125 9.86C4.40125 9.85333 4.37792 9.84333 4.35125 9.83C4.27125 9.81667 4.18792 9.81667 4.10125 9.83C4.02125 9.85 3.94125 9.86 3.86125 9.86C3.77458 9.86 3.69125 9.84667 3.61125 9.82C3.53125 9.79333 3.44458 9.78 3.35125 9.78C3.32458 9.78 3.30125 9.78333 3.28125 9.79C3.25458 9.80333 3.22792 9.81 3.20125 9.81C3.12792 9.81667 3.06125 9.81667 3.00125 9.81C2.93458 9.79667 2.86458 9.80333 2.79125 9.83C2.69125 9.79667 2.61458 9.79667 2.56125 9.83C2.51458 9.85667 2.47125 9.84 2.43125 9.78C2.29792 9.81333 2.17125 9.83667 2.05125 9.85C1.92458 9.85667 1.78792 9.86 1.64125 9.86C1.61458 9.86 1.57792 9.86333 1.53125 9.87C1.47792 9.87 1.42458 9.87667 1.37125 9.89C1.31792 9.89667 1.26458 9.90667 1.21125 9.92C1.16458 9.92667 1.13125 9.93333 1.11125 9.94C0.99125 9.98667 0.894583 9.99333 0.82125 9.96C0.747917 9.93333 0.674583 9.92667 0.60125 9.94C0.62125 9.88667 0.614583 9.85333 0.58125 9.84C0.54125 9.82667 0.517917 9.80333 0.51125 9.77C0.49125 9.71 0.497917 9.66333 0.53125 9.63C0.57125 9.59 0.604583 9.55 0.63125 9.51C0.77125 9.49 0.92125 9.48333 1.08125 9.49C1.24792 9.49 1.39458 9.46667 1.52125 9.42C1.55458 9.41333 1.57792 9.39667 1.59125 9.37C1.60458 9.34333 1.62125 9.32 1.64125 9.3C1.61458 9.25333 1.61458 9.21 1.64125 9.17C1.66125 9.13 1.67125 9.08667 1.67125 9.04C1.67792 8.96667 1.67458 8.9 1.66125 8.84C1.64125 8.78 1.66125 8.71333 1.72125 8.64C1.68792 8.52667 1.68125 8.4 1.70125 8.26C1.71458 8.12667 1.71458 8 1.70125 7.88C1.70125 7.84 1.69458 7.80667 1.68125 7.78C1.67458 7.75333 1.67125 7.72667 1.67125 7.7C1.67792 7.6 1.69792 7.49 1.73125 7.37C1.76458 7.24333 1.74458 7.13 1.67125 7.03C1.71792 6.95 1.73792 6.86667 1.73125 6.78C1.72458 6.7 1.72125 6.61667 1.72125 6.53C1.74125 6.43667 1.74792 6.37667 1.74125 6.35C1.72792 6.32333 1.72125 6.29667 1.72125 6.27C1.78792 6.02333 1.80792 5.81333 1.78125 5.64C1.83458 5.34 1.87458 5.07667 1.90125 4.85C1.92792 4.63 1.93792 4.4 1.93125 4.16C1.93125 4.13333 1.93458 4.10667 1.94125 4.08C1.95458 4.05333 1.96125 4.03 1.96125 4.01C1.96125 3.98333 1.95458 3.95667 1.94125 3.93C1.93458 3.90333 1.93125 3.87667 1.93125 3.85C1.93125 3.83 1.93458 3.80667 1.94125 3.78C1.95458 3.75333 1.96125 3.72667 1.96125 3.7C1.96125 3.66 1.95458 3.62333 1.94125 3.59C1.92792 3.55667 1.91458 3.52333 1.90125 3.49C1.89458 3.39667 1.89792 3.30667 1.91125 3.22C1.92458 3.13333 1.93125 3.04667 1.93125 2.96C1.93125 2.93333 1.92792 2.90333 1.92125 2.87C1.90792 2.84333 1.90125 2.81333 1.90125 2.78C1.90125 2.75333 1.90792 2.72667 1.92125 2.7C1.92792 2.68 1.93125 2.65667 1.93125 2.63C1.91125 2.51667 1.90792 2.45333 1.92125 2.44C1.93458 2.42 1.94792 2.39667 1.96125 2.37C1.96792 2.32333 1.97125 2.27667 1.97125 2.23C1.97125 2.18333 1.97458 2.14 1.98125 2.1C1.98125 2.02667 1.97792 1.95333 1.97125 1.88C1.96458 1.80667 1.96792 1.73333 1.98125 1.66C1.99458 1.61333 2.00125 1.56333 2.00125 1.51C2.00792 1.46333 2.03458 1.43 2.08125 1.41C2.10125 1.33 2.11125 1.25 2.11125 1.17C2.11125 1.08333 2.11792 1 2.13125 0.92C2.14458 0.873333 2.16458 0.82 2.19125 0.76C2.21792 0.693334 2.21792 0.636667 2.19125 0.59C2.01125 0.57 1.82125 0.573334 1.62125 0.6C1.42792 0.62 1.24792 0.586667 1.08125 0.5C1.04792 0.506667 1.01792 0.506667 0.99125 0.5C0.957917 0.5 0.924583 0.5 0.89125 0.5C0.864583 0.44 0.837917 0.393333 0.81125 0.36C0.784583 0.32 0.764583 0.27 0.75125 0.21C0.777917 0.156667 0.82125 0.12 0.88125 0.1C0.94125 0.0800004 0.994583 0.0466667 1.04125 0ZM3.43125 8.62L3.46125 8.53C3.46125 8.49667 3.45125 8.45667 3.43125 8.41C3.41792 8.36333 3.41125 8.32333 3.41125 8.29C3.42458 8.21667 3.42458 8.14667 3.41125 8.08C3.39125 8.02 3.38125 7.96333 3.38125 7.91C3.38125 7.86333 3.38792 7.81333 3.40125 7.76C3.41458 7.71333 3.41792 7.66667 3.41125 7.62C3.39792 7.54667 3.38125 7.47 3.36125 7.39C3.33458 7.31667 3.34125 7.24333 3.38125 7.17C3.34125 7.10333 3.31792 7.03333 3.31125 6.96C3.30458 6.88 3.29792 6.8 3.29125 6.72C3.28458 6.63333 3.28125 6.55333 3.28125 6.48C3.27458 6.4 3.25792 6.32333 3.23125 6.25C3.26458 6.23 3.27458 6.18667 3.26125 6.12C3.24125 6.05333 3.24792 6.01 3.28125 5.99C3.24792 5.93667 3.22792 5.88 3.22125 5.82C3.21458 5.76 3.19792 5.70667 3.17125 5.66C3.21792 5.58667 3.23458 5.48 3.22125 5.34C3.20792 5.2 3.20125 5.08333 3.20125 4.99C3.20125 4.93 3.20458 4.89333 3.21125 4.88C3.22458 4.86667 3.22125 4.82333 3.20125 4.75L3.17125 4.56C3.17125 4.5 3.16458 4.46333 3.15125 4.45C3.13792 4.43667 3.12792 4.42333 3.12125 4.41C3.10792 4.33667 3.10458 4.28333 3.11125 4.25C3.11792 4.21667 3.12125 4.18667 3.12125 4.16C3.12792 4.12667 3.12792 4.09333 3.12125 4.06C3.10792 4.02667 3.10125 3.99 3.10125 3.95C3.10125 3.73667 3.10792 3.52333 3.12125 3.31C3.12792 3.09 3.12125 2.87333 3.10125 2.66C3.08792 2.56 3.07125 2.46 3.05125 2.36C3.03125 2.26667 3.01458 2.17 3.00125 2.07C3.00125 2.04333 3.00125 2.01667 3.00125 1.99C3.00792 1.97 3.00792 1.94667 3.00125 1.92C2.98792 1.87333 2.97458 1.83333 2.96125 1.8C2.94792 1.76667 2.94125 1.73 2.94125 1.69C2.92125 1.60333 2.91458 1.54333 2.92125 1.51C2.92792 1.47 2.93125 1.42667 2.93125 1.38C2.90458 1.35333 2.89125 1.31333 2.89125 1.26C2.89792 1.20667 2.90125 1.16 2.90125 1.12C2.85458 1.01333 2.83458 0.92 2.84125 0.84C2.84792 0.766667 2.85125 0.693334 2.85125 0.62C2.77792 0.6 2.72792 0.6 2.70125 0.62C2.68125 0.64 2.66125 0.656667 2.64125 0.67C2.64792 0.716667 2.65792 0.756667 2.67125 0.79C2.68458 0.823333 2.70125 0.856667 2.72125 0.89C2.68792 0.99 2.65125 1.09333 2.61125 1.2C2.57792 1.30667 2.55458 1.41 2.54125 1.51C2.53458 1.63 2.52792 1.70667 2.52125 1.74C2.52125 1.84667 2.51458 1.9 2.50125 1.9C2.49458 1.9 2.50125 1.92333 2.52125 1.97C2.52792 1.99667 2.52125 2.02333 2.50125 2.05C2.48792 2.07 2.49458 2.09333 2.52125 2.12C2.49458 2.14667 2.47125 2.21333 2.45125 2.32C2.43125 2.42667 2.41792 2.54 2.41125 2.66C2.41125 2.78667 2.41125 2.90667 2.41125 3.02C2.41792 3.13333 2.42458 3.20667 2.43125 3.24C2.44458 3.26 2.44458 3.29 2.43125 3.33C2.41792 3.37 2.41125 3.41 2.41125 3.45C2.41792 3.50333 2.42792 3.52667 2.44125 3.52C2.45458 3.52 2.45125 3.55667 2.43125 3.63C2.41792 3.68333 2.42458 3.72333 2.45125 3.75C2.47792 3.77667 2.50125 3.81 2.52125 3.85C2.44792 3.93667 2.42125 4.03 2.44125 4.13C2.46792 4.23 2.47458 4.33 2.46125 4.43C2.45458 4.47667 2.44458 4.52667 2.43125 4.58C2.41792 4.62667 2.40125 4.67333 2.38125 4.72C2.37458 4.77333 2.37125 4.83 2.37125 4.89C2.37125 4.95 2.37125 5.01333 2.37125 5.08C2.37792 5.20667 2.37792 5.29 2.37125 5.33C2.35792 5.37 2.34792 5.41333 2.34125 5.46C2.32125 5.61333 2.30125 5.77 2.28125 5.93C2.26792 6.09 2.26792 6.24667 2.28125 6.4C2.24792 6.44667 2.22125 6.53 2.20125 6.65C2.17458 6.77667 2.17458 6.87333 2.20125 6.94C2.22125 6.98 2.22792 7.03667 2.22125 7.11C2.20792 7.18333 2.19458 7.26667 2.18125 7.36C2.16792 7.45333 2.16125 7.54667 2.16125 7.64C2.16125 7.73333 2.17458 7.82333 2.20125 7.91C2.18792 7.92333 2.18458 7.95333 2.19125 8C2.19792 8.04667 2.18792 8.08 2.16125 8.1C2.23458 8.28667 2.25125 8.49 2.21125 8.71C2.17125 8.92333 2.14458 9.13 2.13125 9.33C2.25125 9.31 2.36792 9.30333 2.48125 9.31C2.58792 9.32333 2.70125 9.32 2.82125 9.3C2.84792 9.32 2.87125 9.34 2.89125 9.36C2.90458 9.37333 2.93125 9.38 2.97125 9.38C3.04458 9.33333 3.14125 9.31667 3.26125 9.33C3.37458 9.35 3.47458 9.35 3.56125 9.33C3.54125 9.28333 3.53792 9.23333 3.55125 9.18C3.56458 9.12667 3.56792 9.07667 3.56125 9.03C3.54792 8.99 3.53458 8.95667 3.52125 8.93C3.50792 8.90333 3.49792 8.87667 3.49125 8.85C3.47792 8.74333 3.46458 8.68 3.45125 8.66C3.43792 8.64667 3.43125 8.63333 3.43125 8.62ZM12.8312 5.84C12.9179 5.83333 12.9846 5.77333 13.0312 5.66L13.1812 5.58C13.2079 5.55333 13.2312 5.51667 13.2512 5.47C13.2712 5.42333 13.2979 5.39333 13.3312 5.38C13.4046 5.34 13.4479 5.31 13.4612 5.29C13.4746 5.26333 13.4912 5.24333 13.5112 5.23C13.5312 5.21 13.5546 5.19333 13.5812 5.18C13.6146 5.16667 13.6279 5.14 13.6212 5.1C13.7012 5.1 13.7512 5.05667 13.7712 4.97C13.8713 4.90333 13.9379 4.86 13.9712 4.84C14.0112 4.82667 14.0346 4.79667 14.0412 4.75C14.0679 4.75 14.1146 4.73667 14.1812 4.71C14.2413 4.69 14.3079 4.66 14.3812 4.62C14.4479 4.58667 14.5146 4.55333 14.5812 4.52C14.6479 4.48667 14.7046 4.46667 14.7512 4.46C14.7979 4.45333 14.8446 4.45333 14.8912 4.46C14.9379 4.46667 14.9779 4.45 15.0112 4.41C15.0579 4.43667 15.1112 4.45333 15.1712 4.46C15.2312 4.46667 15.2712 4.49333 15.2912 4.54C15.3312 4.53333 15.3679 4.53333 15.4012 4.54C15.4279 4.55333 15.4512 4.56667 15.4712 4.58C15.4979 4.59333 15.5246 4.60333 15.5512 4.61C15.5779 4.61667 15.6146 4.61667 15.6612 4.61C15.6879 4.65667 15.7112 4.69333 15.7312 4.72C15.7513 4.74667 15.7912 4.75667 15.8512 4.75C15.8512 4.79667 15.8712 4.82333 15.9112 4.83C15.9512 4.83667 15.9679 4.87 15.9612 4.93C15.9879 4.94333 16.0079 4.96 16.0212 4.98C16.0413 5 16.0712 5.01333 16.1112 5.02C16.0979 5.12 16.1146 5.22 16.1612 5.32C16.2079 5.41333 16.2312 5.51 16.2312 5.61C16.2379 5.67 16.2346 5.74 16.2212 5.82C16.2012 5.9 16.2312 5.95667 16.3112 5.99C16.2646 6.09 16.2346 6.21 16.2212 6.35C16.1346 6.38333 16.0312 6.39667 15.9112 6.39C15.7846 6.37667 15.7012 6.32667 15.6612 6.24C15.7012 6.08667 15.7246 5.97333 15.7312 5.9C15.7379 5.82667 15.7346 5.75333 15.7212 5.68C15.7212 5.66 15.7146 5.63667 15.7012 5.61C15.6879 5.58333 15.6779 5.55667 15.6712 5.53C15.6512 5.45667 15.6412 5.4 15.6412 5.36C15.6346 5.31333 15.6246 5.27667 15.6112 5.25C15.5979 5.22333 15.5712 5.19667 15.5312 5.17C15.4979 5.14333 15.4446 5.11333 15.3712 5.08C15.3246 5.06 15.2879 5.04 15.2612 5.02C15.2346 5 15.1946 5 15.1412 5.02C15.0546 4.94 14.9712 4.91667 14.8912 4.95C14.8112 4.97667 14.7246 5.01 14.6312 5.05C14.5846 5.07 14.5346 5.08667 14.4812 5.1C14.4279 5.12 14.3879 5.15333 14.3612 5.2C14.2612 5.22 14.1846 5.25333 14.1312 5.3C14.0846 5.35333 14.0312 5.38667 13.9712 5.4C13.9312 5.47333 13.8946 5.52333 13.8612 5.55C13.8279 5.57 13.8079 5.59 13.8012 5.61C13.7612 5.67 13.7379 5.7 13.7312 5.7C13.7179 5.7 13.7046 5.71 13.6912 5.73C13.6512 5.82333 13.6213 5.88 13.6012 5.9C13.5879 5.91333 13.5746 5.93333 13.5612 5.96C13.5479 5.98 13.5246 5.99 13.4913 5.99C13.4579 5.99 13.4312 6 13.4112 6.02C13.3712 6.04 13.3379 6.06667 13.3112 6.1C13.2912 6.14 13.2579 6.16333 13.2112 6.17C13.1646 6.21667 13.1379 6.25333 13.1312 6.28C13.1312 6.30667 13.1213 6.33 13.1012 6.35C13.0079 6.43667 12.9612 6.50333 12.9612 6.55C12.9612 6.59667 12.9379 6.64 12.8912 6.68C12.9046 6.72 12.8912 6.74333 12.8512 6.75C12.8179 6.75667 12.7913 6.76667 12.7712 6.78C12.7979 6.99333 12.7946 7.19667 12.7612 7.39C12.7346 7.57667 12.7279 7.77 12.7413 7.97C12.7546 8.00333 12.7646 8.03 12.7712 8.05C12.7779 8.07 12.7879 8.09333 12.8012 8.12C12.8079 8.16 12.8079 8.19667 12.8012 8.23C12.8012 8.26333 12.8012 8.29667 12.8012 8.33C12.8012 8.37667 12.8079 8.41667 12.8212 8.45C12.8346 8.47667 12.8446 8.51333 12.8512 8.56C12.8512 8.58667 12.8479 8.61333 12.8412 8.64C12.8346 8.66 12.8312 8.68333 12.8312 8.71C12.8312 8.83667 12.8512 8.96333 12.8912 9.09C12.9379 9.21 12.9379 9.33 12.8912 9.45C12.9046 9.45667 12.9346 9.46 12.9812 9.46C13.0212 9.46 13.0646 9.46 13.1112 9.46C13.1579 9.45333 13.2046 9.44333 13.2512 9.43C13.2979 9.41667 13.3246 9.40667 13.3312 9.4C13.4046 9.35333 13.4512 9.35 13.4712 9.39C13.4913 9.43 13.5212 9.43333 13.5612 9.4L13.6612 9.53C13.6879 9.58333 13.7012 9.63333 13.7012 9.68C13.7012 9.72 13.6912 9.75333 13.6712 9.78C13.6446 9.80667 13.6179 9.83333 13.5912 9.86C13.5646 9.88667 13.5479 9.92 13.5412 9.96C13.5212 9.96 13.4912 9.96 13.4512 9.96C13.4112 9.96 13.3912 9.97667 13.3912 10.01C13.2512 9.97667 13.1713 9.96667 13.1512 9.98C13.1246 10 13.0946 10.01 13.0612 10.01C13.0146 9.99 12.9646 9.97333 12.9112 9.96C12.8579 9.94 12.8013 9.93333 12.7413 9.94C12.6279 9.95333 12.5579 9.94667 12.5312 9.92C12.5112 9.9 12.4812 9.89 12.4412 9.89C12.3212 9.87 12.2046 9.87 12.0912 9.89C11.9712 9.91 11.8512 9.92667 11.7312 9.94C11.6846 9.94 11.6412 9.94 11.6012 9.94C11.5612 9.93333 11.5179 9.93333 11.4712 9.94C11.4246 9.94 11.3812 9.94667 11.3412 9.96C11.3012 9.97333 11.2579 9.98 11.2112 9.98C11.1846 9.98 11.1346 9.97333 11.0612 9.96C10.9879 9.96 10.9213 9.96667 10.8612 9.98C10.7946 9.99333 10.7312 9.98 10.6712 9.94C10.4646 10 10.2679 10 10.0812 9.94C10.0612 9.89333 10.0379 9.85 10.0112 9.81C9.98458 9.77 9.98125 9.72667 10.0012 9.68C10.0346 9.6 10.0879 9.55 10.1612 9.53C10.2346 9.51667 10.3112 9.51 10.3912 9.51C10.4646 9.51 10.5379 9.51 10.6112 9.51C10.6846 9.51667 10.7446 9.50667 10.7912 9.48C10.8112 9.46 10.8212 9.43 10.8212 9.39C10.8212 9.35 10.8212 9.32 10.8212 9.3C10.8612 9.28 10.8912 9.24333 10.9112 9.19C10.9312 9.13667 10.9512 9.08667 10.9712 9.04C11.0112 8.91333 11.0412 8.78 11.0612 8.64C11.0813 8.5 11.1012 8.36333 11.1212 8.23C11.1279 8.20333 11.1379 8.17667 11.1512 8.15C11.1646 8.12333 11.1712 8.1 11.1712 8.08C11.1512 7.95333 11.1546 7.86 11.1812 7.8C11.2013 7.73333 11.2112 7.66333 11.2112 7.59C11.2246 7.51667 11.2279 7.45 11.2212 7.39C11.2146 7.32333 11.2212 7.25333 11.2413 7.18C11.2613 7.15333 11.2779 7.13 11.2912 7.11C11.3046 7.08333 11.3146 7.05667 11.3212 7.03C11.3413 6.92333 11.3479 6.81333 11.3412 6.7C11.3412 6.58667 11.3546 6.47667 11.3812 6.37C11.4146 6.28333 11.4246 6.22667 11.4112 6.2C11.3979 6.18 11.3946 6.16 11.4012 6.14C11.4412 6.06667 11.4646 5.98667 11.4712 5.9C11.4846 5.80667 11.4846 5.75 11.4712 5.73C11.4712 5.72333 11.4779 5.69 11.4913 5.63C11.5046 5.57 11.5179 5.5 11.5312 5.42C11.5446 5.34667 11.5579 5.27667 11.5712 5.21C11.5913 5.13667 11.6012 5.08333 11.6012 5.05C11.5546 5.05667 11.4512 5.07333 11.2912 5.1C11.1379 5.12667 10.9779 5.15667 10.8112 5.19C10.6446 5.22333 10.4946 5.26 10.3612 5.3C10.2279 5.34 10.1579 5.37333 10.1512 5.4C10.1112 5.37333 10.0746 5.36333 10.0412 5.37C10.0012 5.37667 9.96458 5.38 9.93125 5.38C9.89125 5.38 9.85125 5.37333 9.81125 5.36C9.77125 5.34667 9.73125 5.31 9.69125 5.25C9.67792 5.12333 9.68792 5.05 9.72125 5.03C9.76125 5.00333 9.78458 4.97 9.79125 4.93C9.99792 4.91 10.1979 4.87 10.3912 4.81C10.5779 4.75 10.7712 4.71 10.9712 4.69C11.1312 4.66333 11.2546 4.63333 11.3412 4.6C11.4279 4.57333 11.5146 4.54667 11.6012 4.52C11.6412 4.5 11.6846 4.49 11.7312 4.49C11.7779 4.49667 11.8112 4.47667 11.8312 4.43C11.9779 4.45667 12.0646 4.44 12.0912 4.38C12.2179 4.41333 12.3412 4.4 12.4612 4.34C12.5879 4.28667 12.7179 4.27667 12.8512 4.31C12.8646 4.33667 12.8746 4.36333 12.8812 4.39C12.8879 4.41667 12.9112 4.43 12.9512 4.43C12.9046 4.49667 12.8912 4.57333 12.9112 4.66C12.9379 4.74667 12.9179 4.81667 12.8512 4.87C12.8713 4.89 12.8713 4.93667 12.8512 5.01C12.8379 5.09 12.8379 5.14333 12.8512 5.17C12.8512 5.24333 12.8379 5.30667 12.8112 5.36C12.7846 5.42 12.7712 5.48333 12.7712 5.55C12.7712 5.59667 12.7812 5.64667 12.8012 5.7C12.8212 5.74667 12.8312 5.79333 12.8312 5.84ZM12.3312 4.93H12.1812C12.1746 4.95667 12.1646 4.98333 12.1512 5.01C12.1379 5.03667 12.1246 5.06667 12.1112 5.1C12.0779 5.16 12.0712 5.21667 12.0912 5.27C12.1046 5.32333 12.1046 5.36667 12.0912 5.4C12.0179 5.46667 11.9812 5.55333 11.9812 5.66C11.9812 5.76 11.9712 5.85333 11.9512 5.94C11.9446 5.98667 11.9346 6.02333 11.9212 6.05C11.9079 6.08333 11.8946 6.12333 11.8812 6.17C11.8612 6.23667 11.8512 6.32667 11.8512 6.44C11.8512 6.55333 11.8612 6.64 11.8812 6.7C11.8212 6.81333 11.7846 6.95 11.7712 7.11C11.7646 7.27667 11.7746 7.42 11.8012 7.54C11.7746 7.57333 11.7412 7.62667 11.7012 7.7C11.7012 7.74 11.7012 7.80667 11.7012 7.9C11.6946 7.99333 11.6879 8.06 11.6812 8.1C11.6412 8.20667 11.6279 8.27333 11.6412 8.3C11.6479 8.32 11.6512 8.34 11.6512 8.36C11.6446 8.43333 11.6279 8.49667 11.6012 8.55C11.5679 8.60333 11.5746 8.66667 11.6212 8.74C11.5946 8.76667 11.5646 8.81667 11.5312 8.89C11.5446 8.94333 11.5413 8.99 11.5212 9.03C11.5012 9.07667 11.4846 9.12667 11.4712 9.18C11.4646 9.25333 11.4479 9.30333 11.4212 9.33C11.3946 9.36333 11.3946 9.39333 11.4212 9.42C11.4479 9.44667 11.4779 9.46 11.5112 9.46C11.5512 9.45333 11.5879 9.44333 11.6212 9.43C11.6479 9.41667 11.6746 9.40667 11.7012 9.4C11.7212 9.4 11.7312 9.40667 11.7312 9.42C11.7712 9.40667 11.8212 9.4 11.8812 9.4C11.9346 9.4 11.9946 9.4 12.0612 9.4C12.1279 9.4 12.1879 9.4 12.2413 9.4C12.3013 9.4 12.3412 9.4 12.3612 9.4C12.3546 9.32667 12.3546 9.25333 12.3612 9.18C12.3679 9.11333 12.3679 9.04333 12.3612 8.97C12.3612 8.92333 12.3546 8.88667 12.3412 8.86C12.3279 8.82667 12.3212 8.78667 12.3212 8.74C12.3279 8.52 12.3112 8.33 12.2712 8.17C12.2312 8.01 12.2212 7.85333 12.2413 7.7C12.2413 7.65333 12.2479 7.61667 12.2612 7.59C12.2746 7.56333 12.2846 7.53333 12.2912 7.5C12.3046 7.40667 12.3046 7.31667 12.2912 7.23C12.2712 7.14333 12.2612 7.05333 12.2612 6.96C12.2546 6.80667 12.2546 6.65667 12.2612 6.51C12.2746 6.36333 12.2846 6.21333 12.2912 6.06C12.3046 5.86667 12.3179 5.67667 12.3312 5.49C12.3512 5.30333 12.3512 5.11667 12.3312 4.93ZM22.3813 9.38C22.4479 9.4 22.5046 9.42 22.5513 9.44C22.6046 9.45333 22.6679 9.45667 22.7413 9.45C22.8413 9.44333 22.9013 9.44333 22.9213 9.45C22.9479 9.45667 22.9679 9.46667 22.9813 9.48C23.0546 9.5 23.1646 9.50333 23.3113 9.49C23.4579 9.48333 23.5646 9.50667 23.6313 9.56C23.6579 9.58 23.6579 9.60667 23.6313 9.64C23.6112 9.68 23.6279 9.70333 23.6812 9.71C23.6612 9.75667 23.6413 9.78 23.6213 9.78C23.6012 9.78 23.5679 9.78 23.5212 9.78C23.4079 9.85333 23.3446 9.9 23.3313 9.92C23.3113 9.94667 23.2913 9.96667 23.2712 9.98C23.1779 10 23.0813 10.0167 22.9813 10.03C22.8746 10.0367 22.7746 10.03 22.6812 10.01C22.6479 10.0033 22.6179 9.99333 22.5913 9.98C22.5646 9.97333 22.5379 9.96667 22.5113 9.96C22.4646 9.96 22.3913 9.96667 22.2913 9.98C22.1979 9.99333 22.0979 10.0067 21.9913 10.02C21.8913 10.0333 21.7979 10.0433 21.7113 10.05C21.6246 10.0633 21.5746 10.07 21.5613 10.07C21.5079 10.05 21.4746 10.0467 21.4613 10.06C21.4479 10.0733 21.4313 10.0833 21.4113 10.09C21.3646 10.1033 21.3279 10.1033 21.3013 10.09C21.2679 10.0833 21.2279 10.0833 21.1812 10.09C21.1146 10.1033 21.0513 10.1267 20.9913 10.16C20.9379 10.2 20.8746 10.21 20.8013 10.19C20.7279 10.17 20.6746 10.13 20.6413 10.07C20.6079 10.01 20.5746 9.96 20.5413 9.92C20.5146 9.65333 20.5146 9.42 20.5413 9.22C20.4946 9.20667 20.4646 9.21 20.4513 9.23C20.4379 9.25 20.4179 9.27333 20.3913 9.3C20.3246 9.32 20.2813 9.34 20.2613 9.36C20.2346 9.38667 20.2079 9.40667 20.1812 9.42C20.1612 9.44 20.1313 9.46 20.0913 9.48C20.0513 9.5 20.0213 9.51667 20.0013 9.53C19.9679 9.57667 19.9379 9.59667 19.9113 9.59C19.8846 9.59 19.8746 9.62 19.8813 9.68C19.8279 9.67333 19.7746 9.68333 19.7213 9.71C19.6746 9.73667 19.6279 9.76 19.5813 9.78C19.5279 9.8 19.4713 9.81333 19.4113 9.82C19.3513 9.82667 19.2946 9.84 19.2413 9.86C19.2146 9.86667 19.1879 9.88 19.1613 9.9C19.1279 9.91333 19.0946 9.92667 19.0613 9.94C19.0279 9.95333 18.9913 9.95667 18.9513 9.95C18.9179 9.94333 18.8813 9.94667 18.8413 9.96C18.8079 9.96667 18.7779 9.97333 18.7513 9.98C18.7179 9.99333 18.6879 10.0033 18.6613 10.01C18.5879 10.03 18.5146 10.0533 18.4412 10.08C18.3612 10.1067 18.2812 10.11 18.2013 10.09C18.1346 10.0767 18.0946 10.06 18.0813 10.04C18.0613 10.02 18.0313 10.02 17.9913 10.04C17.9046 9.94 17.7779 9.88 17.6112 9.86C17.5379 9.78 17.4479 9.71333 17.3413 9.66C17.2413 9.6 17.1546 9.53 17.0813 9.45C17.0413 9.35 17.0013 9.24333 16.9613 9.13C16.9212 9.01667 16.8913 8.90333 16.8713 8.79C16.8646 8.72333 16.8513 8.68 16.8313 8.66C16.8113 8.64 16.8013 8.61667 16.8013 8.59C16.7946 8.57 16.7946 8.54333 16.8013 8.51C16.8146 8.48333 16.8246 8.46 16.8313 8.44C16.8313 8.36667 16.8313 8.30333 16.8313 8.25C16.8313 8.19667 16.8546 8.14 16.9013 8.08C16.8813 7.99333 16.8879 7.90667 16.9213 7.82C16.9546 7.74 16.9746 7.65333 16.9813 7.56C17.0613 7.48 17.1112 7.37333 17.1313 7.24C17.1779 7.22667 17.2113 7.20333 17.2313 7.17C17.2579 7.13 17.2846 7.09333 17.3113 7.06C17.3379 7.03333 17.3713 7.00667 17.4113 6.98C17.4446 6.96 17.4613 6.92667 17.4613 6.88C17.5546 6.85333 17.6012 6.83 17.6012 6.81C17.6079 6.79 17.6213 6.77333 17.6413 6.76C17.7213 6.71333 17.7646 6.68 17.7712 6.66C17.7846 6.64 17.8079 6.63667 17.8413 6.65C17.8679 6.58333 17.9146 6.53667 17.9813 6.51C18.0479 6.48333 18.0946 6.43667 18.1213 6.37C18.1546 6.37 18.1779 6.38 18.1912 6.4C18.2046 6.41333 18.2346 6.41333 18.2812 6.4C18.3813 6.35333 18.4379 6.32333 18.4513 6.31C18.4646 6.29667 18.4813 6.28333 18.5013 6.27C18.5946 6.21 18.7046 6.16333 18.8313 6.13C18.9579 6.09 19.0713 6.06333 19.1713 6.05C19.2179 6.03 19.2646 6.01333 19.3113 6C19.3513 5.98667 19.3946 5.97333 19.4412 5.96C19.5279 5.94667 19.6146 5.94 19.7013 5.94C19.7879 5.94667 19.8646 5.92667 19.9312 5.88C19.9979 5.89333 20.0546 5.91333 20.1012 5.94C20.1479 5.96667 20.2013 5.96667 20.2613 5.94C20.3079 6.01333 20.3846 6.05333 20.4913 6.06C20.5979 6.06667 20.6813 6.09333 20.7413 6.14C20.7813 6.02 20.7779 5.90333 20.7313 5.79C20.6912 5.67 20.6713 5.55 20.6713 5.43C20.6713 5.40333 20.6746 5.37333 20.6812 5.34C20.6879 5.30667 20.6846 5.27667 20.6713 5.25C20.6713 5.16333 20.6646 5.11667 20.6513 5.11C20.6379 5.10333 20.6279 5.09333 20.6213 5.08C20.6012 5.03333 20.5946 4.97333 20.6012 4.9C20.6146 4.82667 20.6113 4.76667 20.5913 4.72C20.5846 4.68667 20.5746 4.65333 20.5613 4.62C20.5479 4.59333 20.5413 4.56667 20.5413 4.54C20.5012 4.53333 20.4579 4.51667 20.4113 4.49C20.3579 4.46333 20.3079 4.45333 20.2613 4.46C20.1079 4.48 19.9813 4.47667 19.8813 4.45C19.7812 4.42333 19.6813 4.43667 19.5813 4.49C19.5079 4.45 19.4312 4.45 19.3512 4.49C19.3246 4.51 19.2946 4.51 19.2613 4.49C19.2279 4.47667 19.1979 4.47667 19.1713 4.49C19.1446 4.49667 19.1179 4.50667 19.0913 4.52C19.0713 4.53333 19.0479 4.55 19.0212 4.57C18.9412 4.59 18.8713 4.59667 18.8113 4.59C18.7579 4.58333 18.7013 4.62667 18.6413 4.72C18.5212 4.74 18.4279 4.77667 18.3612 4.83C18.2879 4.88333 18.2013 4.93 18.1012 4.97C18.0212 5.04333 17.9546 5.13 17.9013 5.23C17.8546 5.33 17.7946 5.42 17.7213 5.5C17.7413 5.59333 17.7313 5.66 17.6912 5.7C17.6579 5.74667 17.6413 5.80667 17.6413 5.88C17.5679 5.87333 17.4746 5.85667 17.3612 5.83C17.2546 5.80333 17.1979 5.74 17.1912 5.64C17.1779 5.6 17.1846 5.55667 17.2113 5.51C17.2446 5.47 17.2679 5.43333 17.2812 5.4C17.3546 5.26 17.4246 5.11667 17.4913 4.97C17.5513 4.82333 17.6413 4.69333 17.7613 4.58C17.8346 4.58 17.9046 4.56 17.9713 4.52C18.0446 4.48 18.0946 4.43333 18.1213 4.38C18.2079 4.40667 18.2746 4.37333 18.3213 4.28C18.4013 4.28 18.4779 4.25667 18.5513 4.21C18.6179 4.15667 18.6879 4.14 18.7613 4.16C18.8079 4.10667 18.8479 4.07333 18.8813 4.06C18.9079 4.04667 18.9346 4.04 18.9613 4.04C18.9946 4.04 19.0179 4.04333 19.0312 4.05C19.0513 4.05667 19.0713 4.05667 19.0913 4.05C19.1246 4.03 19.1713 4.01667 19.2313 4.01C19.2913 4.00333 19.3312 3.98333 19.3512 3.95C19.4312 3.99 19.5079 4 19.5813 3.98C19.6546 3.95333 19.7213 3.96333 19.7812 4.01C19.8213 3.97 19.8713 3.95 19.9312 3.95C20.0513 3.95 20.2046 3.97333 20.3913 4.02C20.5779 4.06 20.7513 4.09 20.9113 4.11C20.9779 4.17667 21.0479 4.23 21.1213 4.27C21.1879 4.30333 21.2746 4.31667 21.3813 4.31C21.4813 4.41 21.5812 4.51333 21.6812 4.62C21.7879 4.72667 21.8946 4.83 22.0013 4.93C22.0013 5.03 22.0212 5.11333 22.0613 5.18C22.1013 5.24667 22.1313 5.28 22.1513 5.28C22.1513 5.4 22.1912 5.48333 22.2712 5.53C22.2913 5.65667 22.3279 5.77 22.3813 5.87C22.4346 5.97 22.4579 6.09333 22.4513 6.24C22.4513 6.29333 22.4646 6.32333 22.4913 6.33C22.5179 6.33 22.5312 6.35333 22.5312 6.4C22.5246 6.52 22.5179 6.63667 22.5113 6.75C22.4979 6.86333 22.4979 6.98333 22.5113 7.11C22.5113 7.15 22.5146 7.18667 22.5212 7.22C22.5279 7.26 22.5312 7.30333 22.5312 7.35C22.4779 7.53 22.4613 7.67333 22.4813 7.78C22.5013 7.89333 22.5013 8 22.4813 8.1C22.4879 8.22667 22.4813 8.30333 22.4613 8.33C22.4479 8.35667 22.4346 8.39333 22.4213 8.44C22.4213 8.48667 22.4279 8.53333 22.4412 8.58C22.4479 8.62 22.4513 8.66333 22.4513 8.71C22.4513 8.76333 22.4346 8.81667 22.4013 8.87C22.3679 8.92333 22.3746 8.97 22.4213 9.01C22.3879 9.05667 22.3646 9.11667 22.3512 9.19C22.3446 9.26333 22.3546 9.32667 22.3813 9.38ZM21.2113 5.46C21.2179 5.58667 21.2179 5.68 21.2113 5.74C21.2113 5.8 21.2113 5.86667 21.2113 5.94C21.2246 5.96667 21.2346 5.99667 21.2413 6.03C21.2479 6.05667 21.2579 6.08333 21.2712 6.11C21.2646 6.29667 21.2579 6.43667 21.2513 6.53C21.2379 6.61667 21.2313 6.70667 21.2313 6.8C21.2246 6.89333 21.2246 6.98333 21.2313 7.07C21.2313 7.15667 21.2313 7.25 21.2313 7.35C21.2313 7.38333 21.2313 7.43333 21.2313 7.5C21.2246 7.57333 21.2079 7.62333 21.1812 7.65L21.2313 7.82L21.1812 8.03C21.1612 8.15667 21.1346 8.28667 21.1012 8.42C21.0746 8.55333 21.0613 8.68667 21.0613 8.82C21.0479 8.86 21.0479 8.89333 21.0613 8.92C21.0746 8.94667 21.0813 8.97667 21.0813 9.01C21.0813 9.08333 21.0746 9.15333 21.0613 9.22C21.0413 9.28 21.0413 9.34667 21.0613 9.42C21.0746 9.46 21.0979 9.49 21.1313 9.51C21.1646 9.52333 21.1812 9.55333 21.1812 9.6C21.3146 9.62 21.4412 9.60667 21.5613 9.56C21.6079 9.54 21.6479 9.53667 21.6812 9.55C21.7146 9.55667 21.7512 9.55 21.7913 9.53C21.7846 9.52333 21.7812 9.48667 21.7812 9.42C21.7812 9.36 21.7846 9.32 21.7913 9.3C21.8113 9.2 21.8246 9.14667 21.8313 9.14C21.8379 9.14 21.8413 9.13333 21.8413 9.12C21.8946 8.94 21.9213 8.75 21.9213 8.55C21.9213 8.35 21.9279 8.15667 21.9412 7.97C21.9546 7.88333 21.9646 7.79667 21.9713 7.71C21.9713 7.62333 21.9713 7.53333 21.9713 7.44C21.9913 7.36667 21.9946 7.31667 21.9813 7.29C21.9679 7.26333 21.9646 7.23667 21.9713 7.21C21.9713 7.18333 21.9779 7.15667 21.9913 7.13C22.0046 7.11 22.0113 7.08667 22.0113 7.06C22.0246 7.01333 22.0179 6.97333 21.9913 6.94C21.9713 6.90667 21.9646 6.87 21.9713 6.83C22.0446 6.75667 22.0613 6.68 22.0212 6.6C21.9812 6.52 21.9646 6.44333 21.9713 6.37C21.9446 6.27 21.9346 6.2 21.9412 6.16C21.9412 6.12 21.9346 6.08333 21.9213 6.05C21.9013 6.01 21.8813 5.98333 21.8612 5.97C21.8479 5.95667 21.8346 5.93667 21.8213 5.91C21.8346 5.86333 21.8346 5.81333 21.8213 5.76C21.7613 5.68 21.7079 5.59 21.6613 5.49C21.6146 5.39667 21.5679 5.30333 21.5212 5.21C21.4746 5.11 21.4179 5.02333 21.3512 4.95C21.2846 4.87 21.2013 4.80667 21.1012 4.76C21.0812 4.88667 21.0846 5.00667 21.1112 5.12C21.1379 5.22667 21.1712 5.34 21.2113 5.46ZM20.7413 6.94C20.6679 6.9 20.5946 6.83 20.5212 6.73C20.5079 6.63667 20.4846 6.59 20.4513 6.59C20.4246 6.59 20.4046 6.58667 20.3913 6.58C20.3046 6.5 20.2546 6.46333 20.2413 6.47C20.2213 6.47667 20.2013 6.47667 20.1812 6.47C20.1079 6.43667 20.0546 6.42333 20.0212 6.43C19.9946 6.43667 19.9646 6.44 19.9312 6.44C19.7446 6.42667 19.5946 6.44 19.4813 6.48C19.3746 6.52667 19.2713 6.54333 19.1713 6.53C19.1179 6.59 19.0413 6.62 18.9412 6.62C18.8412 6.62 18.7612 6.65667 18.7013 6.73C18.6479 6.73 18.6013 6.74 18.5613 6.76C18.5212 6.77333 18.4813 6.79667 18.4412 6.83C18.4079 6.85667 18.3746 6.87667 18.3413 6.89C18.3079 6.91 18.2779 6.91667 18.2513 6.91C18.2246 6.96333 18.1846 7.00667 18.1313 7.04C18.0779 7.08 18.0246 7.11667 17.9713 7.15C17.9113 7.18333 17.8613 7.22 17.8213 7.26C17.7746 7.3 17.7413 7.35 17.7213 7.41C17.6279 7.49667 17.5613 7.56333 17.5212 7.61C17.4812 7.65 17.4513 7.69333 17.4312 7.74C17.4046 7.80667 17.3913 7.87 17.3913 7.93C17.3913 7.99667 17.3646 8.05333 17.3113 8.1C17.3446 8.14667 17.3513 8.19 17.3313 8.23C17.3113 8.27 17.2946 8.31333 17.2812 8.36C17.2746 8.39333 17.2746 8.43 17.2812 8.47C17.2946 8.50333 17.2879 8.53333 17.2613 8.56C17.3146 8.67333 17.3579 8.78667 17.3913 8.9C17.4313 9.02 17.4813 9.13667 17.5413 9.25C17.5879 9.26333 17.6279 9.28333 17.6613 9.31C17.6946 9.34333 17.7379 9.36 17.7913 9.36C17.8913 9.46 18.0179 9.52667 18.1713 9.56C18.3246 9.59333 18.4713 9.59333 18.6112 9.56C18.7579 9.48 18.8813 9.43667 18.9813 9.43C19.0813 9.42333 19.1546 9.4 19.2013 9.36C19.2413 9.4 19.2846 9.39667 19.3313 9.35C19.3779 9.29667 19.4146 9.26333 19.4412 9.25C19.5146 9.25667 19.5646 9.24 19.5913 9.2C19.6179 9.16 19.6646 9.14333 19.7313 9.15C19.7846 9.07 19.8246 9.03 19.8512 9.03C19.8713 9.03 19.8946 9.02 19.9213 9C19.9946 8.95333 20.0579 8.90333 20.1112 8.85C20.1579 8.79667 20.2179 8.75 20.2913 8.71C20.3179 8.57667 20.3879 8.47667 20.5013 8.41C20.5146 8.41 20.5379 8.41 20.5713 8.41C20.6046 8.41 20.6313 8.4 20.6513 8.38C20.6579 8.32667 20.6646 8.27667 20.6713 8.23C20.6846 8.17667 20.6946 8.12667 20.7013 8.08C20.7013 8.04 20.6979 7.97 20.6912 7.87C20.6779 7.77667 20.6812 7.71 20.7013 7.67C20.7479 7.54333 20.7579 7.40667 20.7313 7.26C20.7113 7.11333 20.7146 7.00667 20.7413 6.94ZM26.5813 4.79C26.5746 4.82333 26.5579 4.85333 26.5312 4.88C26.5112 4.9 26.4946 4.93 26.4813 4.97C26.4946 4.98333 26.4946 5.01667 26.4813 5.07C26.4746 5.11667 26.4846 5.14 26.5113 5.14C26.4646 5.22667 26.4479 5.34333 26.4613 5.49C26.4679 5.64333 26.4679 5.77 26.4613 5.87C26.5013 5.89 26.5212 5.88 26.5212 5.84C26.5212 5.80667 26.5379 5.78 26.5713 5.76C26.5979 5.74 26.6246 5.72 26.6513 5.7C26.6779 5.68667 26.7079 5.67333 26.7413 5.66C26.8546 5.57333 26.9346 5.5 26.9813 5.44C27.0213 5.38 27.0846 5.34 27.1713 5.32C27.1846 5.27333 27.2113 5.24 27.2513 5.22C27.2846 5.2 27.3113 5.16667 27.3313 5.12C27.3579 5.12 27.4046 5.10667 27.4713 5.08C27.5312 5.04667 27.5979 5.01333 27.6713 4.98C27.7379 4.94667 27.8013 4.91 27.8612 4.87C27.9212 4.83667 27.9646 4.81 27.9913 4.79C28.0179 4.77 28.0646 4.75667 28.1313 4.75C28.1979 4.73667 28.2512 4.72667 28.2913 4.72C28.3646 4.72 28.4446 4.71 28.5312 4.69C28.6179 4.66333 28.6913 4.64667 28.7513 4.64C28.7713 4.64 28.7913 4.63667 28.8113 4.63C28.8379 4.62333 28.8679 4.61667 28.9013 4.61C28.9279 4.60333 28.9579 4.59333 28.9913 4.58C29.0246 4.57333 29.0446 4.57 29.0513 4.57C29.2246 4.54333 29.3612 4.54667 29.4613 4.58C29.5613 4.62 29.6912 4.65 29.8512 4.67C29.8979 4.69667 29.9346 4.72333 29.9613 4.75C29.9879 4.78333 30.0379 4.79667 30.1112 4.79C30.1246 4.83667 30.1546 4.86667 30.2013 4.88C30.2479 4.9 30.2812 4.93 30.3013 4.97C30.3346 5.04333 30.3646 5.08667 30.3913 5.1C30.4179 5.11333 30.4412 5.12667 30.4613 5.14C30.5079 5.20667 30.5346 5.23667 30.5413 5.23C30.5546 5.23 30.5713 5.23667 30.5913 5.25C30.6046 5.27 30.6146 5.30333 30.6213 5.35C30.6279 5.39667 30.6579 5.41333 30.7113 5.4C30.7179 5.5 30.7479 5.57 30.8013 5.61C30.8612 5.64333 30.9179 5.69333 30.9713 5.76C30.9779 5.84 30.9779 5.92333 30.9713 6.01C30.9713 6.09 30.9946 6.16667 31.0413 6.24C31.0279 6.29333 31.0212 6.36333 31.0212 6.45C31.0146 6.53667 31.0212 6.60333 31.0413 6.65C31.0413 6.69667 31.0213 6.76333 30.9813 6.85C30.9479 6.93667 30.9546 6.99667 31.0013 7.03C31.0013 7.07 30.9946 7.13333 30.9813 7.22C30.9746 7.30667 30.9513 7.35333 30.9113 7.36C30.9313 7.41333 30.9313 7.49667 30.9113 7.61C30.8979 7.72333 30.8779 7.80333 30.8512 7.85C30.8312 7.89 30.8312 7.91667 30.8512 7.93C30.8779 7.94333 30.8813 7.96667 30.8612 8C30.8212 8.04667 30.7979 8.1 30.7913 8.16C30.7846 8.22 30.7579 8.26667 30.7113 8.3C30.7313 8.34667 30.7346 8.38667 30.7213 8.42C30.7146 8.45333 30.7113 8.49 30.7113 8.53C30.7113 8.57667 30.7213 8.62 30.7413 8.66C30.7546 8.70667 30.7446 8.75 30.7113 8.79C30.6846 8.83667 30.6646 8.91 30.6513 9.01C30.6379 9.10333 30.6346 9.17333 30.6413 9.22C30.6746 9.25333 30.7246 9.27667 30.7913 9.29C30.8579 9.30333 30.9179 9.31333 30.9713 9.32C31.0312 9.32667 31.0846 9.33667 31.1313 9.35C31.1779 9.36333 31.2013 9.38667 31.2013 9.42C31.2746 9.43333 31.3479 9.47 31.4213 9.53C31.4279 9.55 31.4246 9.58 31.4113 9.62C31.3979 9.66 31.3779 9.7 31.3512 9.74C31.3246 9.78667 31.2979 9.82333 31.2712 9.85C31.2446 9.88333 31.2213 9.90667 31.2013 9.92C31.1012 9.95333 31.0246 9.94333 30.9713 9.89C30.9246 9.83667 30.8546 9.8 30.7613 9.78C30.7346 9.78 30.7113 9.78333 30.6912 9.79C30.6646 9.80333 30.6379 9.81 30.6112 9.81C30.5646 9.81 30.5279 9.79667 30.5013 9.77C30.4746 9.75 30.4346 9.74333 30.3813 9.75C30.3079 9.75 30.2379 9.75333 30.1713 9.76C30.1046 9.76667 30.0346 9.77333 29.9613 9.78C29.8879 9.78667 29.8213 9.79 29.7613 9.79C29.7013 9.78333 29.6513 9.75667 29.6112 9.71C29.5579 9.71667 29.4946 9.72333 29.4213 9.73C29.3413 9.73667 29.2612 9.73333 29.1812 9.72C29.1079 9.71333 29.0379 9.69333 28.9713 9.66C28.8979 9.62667 28.8479 9.58333 28.8213 9.53C28.8346 9.47667 28.8512 9.43333 28.8713 9.4C28.8913 9.36 28.9212 9.31667 28.9613 9.27C29.0813 9.29 29.1979 9.29 29.3113 9.27C29.3713 9.25667 29.4112 9.25667 29.4312 9.27C29.4513 9.29 29.4713 9.3 29.4913 9.3C29.6446 9.28 29.7513 9.27333 29.8113 9.28C29.8646 9.28667 29.9279 9.27667 30.0013 9.25C30.0279 9.21667 30.0346 9.18333 30.0212 9.15C30.0146 9.11667 30.0079 9.08 30.0013 9.04C30.0546 9.01333 30.0912 8.97667 30.1112 8.93C30.1246 8.88333 30.0946 8.84667 30.0212 8.82C30.0812 8.76 30.1179 8.68667 30.1313 8.6C30.1513 8.51333 30.1846 8.43333 30.2313 8.36C30.1846 8.18667 30.2179 8.03667 30.3313 7.91C30.3113 7.81 30.3179 7.71 30.3512 7.61C30.3913 7.51667 30.4179 7.42 30.4312 7.32C30.4513 7.22 30.4679 7.12 30.4813 7.02C30.4879 6.92667 30.4879 6.83 30.4813 6.73C30.4813 6.69667 30.4746 6.66333 30.4613 6.63C30.4546 6.60333 30.4546 6.57667 30.4613 6.55C30.4613 6.47667 30.4679 6.41667 30.4813 6.37C30.4946 6.31667 30.4946 6.25 30.4813 6.17C30.4479 6.04333 30.4046 5.91667 30.3512 5.79C30.2913 5.66333 30.2113 5.55333 30.1112 5.46C30.0646 5.42 30.0213 5.38667 29.9813 5.36C29.9412 5.33333 29.8979 5.30667 29.8512 5.28C29.8312 5.26 29.8113 5.24333 29.7913 5.23C29.7712 5.21 29.7546 5.19 29.7413 5.17C29.7146 5.15 29.6746 5.14 29.6213 5.14C29.5746 5.14 29.5313 5.13333 29.4913 5.12C29.4579 5.10667 29.4279 5.09333 29.4013 5.08C29.3813 5.06667 29.3513 5.05667 29.3113 5.05C29.2246 5.03 29.1613 5.03 29.1213 5.05C29.0879 5.07 29.0346 5.08667 28.9613 5.1C28.8612 5.12 28.7379 5.13333 28.5913 5.14C28.4446 5.14 28.3346 5.18667 28.2613 5.28C28.2013 5.22667 28.1346 5.22667 28.0613 5.28C27.9946 5.33333 27.9279 5.36667 27.8612 5.38C27.7013 5.46667 27.5846 5.54 27.5113 5.6C27.4379 5.66 27.3679 5.73 27.3013 5.81C27.2146 5.85667 27.1579 5.92667 27.1313 6.02C27.0846 6.02667 27.0479 6.04333 27.0212 6.07C26.9946 6.09 26.9613 6.10333 26.9213 6.11C26.8613 6.21667 26.7946 6.32 26.7213 6.42C26.6546 6.52 26.5846 6.61333 26.5113 6.7C26.5113 6.75333 26.5246 6.80667 26.5513 6.86C26.5713 6.91333 26.5813 6.96 26.5813 7C26.5879 7.04667 26.5813 7.09667 26.5613 7.15C26.5346 7.19667 26.5279 7.24333 26.5413 7.29C26.5413 7.31667 26.5479 7.34333 26.5613 7.37C26.5746 7.39 26.5813 7.41333 26.5813 7.44C26.5879 7.46667 26.5846 7.49333 26.5713 7.52C26.5579 7.54 26.5579 7.56333 26.5713 7.59C26.5713 7.63667 26.5779 7.67667 26.5913 7.71C26.6046 7.74333 26.6112 7.78 26.6112 7.82C26.6179 7.86667 26.6146 7.91 26.6012 7.95C26.5879 7.98333 26.5912 8.02667 26.6112 8.08C26.6446 8.12 26.6513 8.14667 26.6313 8.16C26.6179 8.17333 26.6112 8.20667 26.6112 8.26C26.6179 8.31333 26.6246 8.37 26.6313 8.43C26.6446 8.49 26.6546 8.55333 26.6613 8.62C26.6746 8.72667 26.6879 8.83667 26.7013 8.95C26.7213 9.06333 26.7579 9.17 26.8113 9.27C26.7846 9.34333 26.7812 9.41667 26.8013 9.49C26.8279 9.56333 26.8313 9.63667 26.8113 9.71C26.8379 9.73667 26.8846 9.75333 26.9513 9.76C27.0112 9.76667 27.0779 9.76667 27.1513 9.76C27.2246 9.75333 27.2946 9.74667 27.3612 9.74C27.4212 9.74 27.4746 9.74 27.5212 9.74C27.5413 9.77333 27.5679 9.80333 27.6012 9.83C27.6346 9.85 27.6646 9.88 27.6912 9.92C27.6646 10 27.6146 10.0567 27.5413 10.09C27.4679 10.13 27.4046 10.18 27.3512 10.24C27.2779 10.26 27.2046 10.2667 27.1313 10.26C27.0646 10.2467 26.9946 10.25 26.9213 10.27C26.8879 10.27 26.8546 10.28 26.8213 10.3C26.7879 10.32 26.7546 10.3233 26.7213 10.31C26.6812 10.31 26.6479 10.3033 26.6213 10.29C26.5946 10.2767 26.5679 10.27 26.5413 10.27C26.5146 10.2633 26.4879 10.2633 26.4613 10.27C26.4346 10.2767 26.4113 10.2867 26.3913 10.3C26.3179 10.3 26.2512 10.2833 26.1912 10.25C26.1313 10.2167 26.0713 10.2067 26.0113 10.22C25.9713 10.22 25.9313 10.2267 25.8913 10.24C25.8512 10.2533 25.8213 10.2367 25.8013 10.19C25.7346 10.1967 25.6746 10.2133 25.6213 10.24C25.5679 10.26 25.5079 10.27 25.4412 10.27C25.3546 10.25 25.3079 10.2467 25.3013 10.26C25.2946 10.2667 25.2846 10.27 25.2712 10.27C25.2312 10.27 25.1946 10.2667 25.1613 10.26C25.1346 10.2467 25.1013 10.24 25.0613 10.24C25.0013 10.24 24.9412 10.25 24.8813 10.27C24.8213 10.29 24.7646 10.3033 24.7113 10.31C24.6379 10.33 24.5646 10.34 24.4913 10.34C24.4179 10.34 24.3446 10.34 24.2712 10.34C24.1313 10.3867 24.0246 10.3667 23.9513 10.28C23.8846 10.1933 23.8646 10.0933 23.8913 9.98C23.9313 9.94667 23.9813 9.92667 24.0413 9.92C24.1012 9.90667 24.1646 9.9 24.2313 9.9C24.2913 9.9 24.3513 9.89667 24.4113 9.89C24.4713 9.87667 24.5246 9.85 24.5713 9.81C24.5713 9.71667 24.5746 9.63 24.5813 9.55C24.5813 9.47667 24.5779 9.39333 24.5713 9.3C24.6046 9.19333 24.6313 9.09 24.6513 8.99C24.6713 8.89 24.6912 8.81667 24.7113 8.77C24.7446 8.65 24.7513 8.56333 24.7313 8.51C24.7179 8.45667 24.7113 8.40667 24.7113 8.36C24.7513 8.11333 24.7812 7.91 24.8013 7.75C24.8213 7.59 24.8412 7.42667 24.8612 7.26C24.8612 7.22 24.8679 7.17333 24.8813 7.12C24.9013 7.06667 24.9113 7.02 24.9113 6.98C24.9046 6.88667 24.9179 6.79667 24.9513 6.71C24.9779 6.62333 24.9713 6.56333 24.9312 6.53C24.9446 6.43667 24.9446 6.37667 24.9312 6.35C24.9179 6.33 24.9346 6.29333 24.9813 6.24C24.9746 6.02667 24.9846 5.85667 25.0113 5.73C25.0446 5.59667 25.0613 5.45667 25.0613 5.31C24.9412 5.29667 24.8313 5.30667 24.7313 5.34C24.6313 5.37333 24.5279 5.39333 24.4213 5.4C24.3679 5.44667 24.2979 5.47667 24.2113 5.49C24.1313 5.49667 24.0613 5.49667 24.0013 5.49C23.9613 5.46333 23.9379 5.43 23.9312 5.39C23.9179 5.35667 23.9046 5.32 23.8913 5.28C23.8313 5.26 23.8079 5.23 23.8213 5.19C23.8413 5.15 23.8346 5.12 23.8013 5.1C23.8479 5.04 23.8979 5.01 23.9513 5.01C23.9979 5.01667 24.0446 5.01 24.0913 4.99C24.2046 4.97667 24.2679 4.96333 24.2812 4.95C24.3013 4.93667 24.3246 4.93 24.3512 4.93C24.4446 4.91 24.5346 4.9 24.6213 4.9C24.7146 4.9 24.8113 4.89 24.9113 4.87C24.9513 4.86333 24.9846 4.85333 25.0113 4.84C25.0446 4.82667 25.0746 4.81 25.1012 4.79C25.1879 4.75 25.2879 4.73 25.4013 4.73C25.5146 4.72333 25.5979 4.68333 25.6513 4.61C25.6846 4.61667 25.7113 4.62333 25.7313 4.63C25.7513 4.63667 25.7846 4.63 25.8313 4.61C25.8846 4.58333 25.9513 4.56 26.0312 4.54C26.1179 4.52667 26.1979 4.52 26.2712 4.52C26.3512 4.52667 26.4213 4.55 26.4813 4.59C26.5413 4.63 26.5746 4.69667 26.5813 4.79ZM25.6513 5.12C25.5779 5.22 25.5413 5.34333 25.5413 5.49C25.5413 5.64333 25.5313 5.77333 25.5113 5.88C25.5113 5.90667 25.5046 5.93333 25.4913 5.96C25.4779 5.99333 25.4713 6.02333 25.4713 6.05C25.4446 6.18333 25.4579 6.30667 25.5113 6.42C25.4379 6.46 25.4179 6.51 25.4513 6.57C25.4846 6.63 25.4913 6.68333 25.4713 6.73C25.4246 6.83667 25.4013 6.94 25.4013 7.04C25.3946 7.14667 25.3813 7.25333 25.3612 7.36C25.3546 7.41333 25.3479 7.46667 25.3413 7.52C25.3279 7.56667 25.3179 7.61667 25.3113 7.67C25.3113 7.71667 25.3146 7.76 25.3213 7.8C25.3346 7.84 25.3313 7.88 25.3113 7.92C25.2913 7.96667 25.2846 8 25.2913 8.02C25.3046 8.03333 25.3113 8.06 25.3113 8.1C25.3179 8.17333 25.3113 8.25333 25.2913 8.34C25.2646 8.43333 25.2579 8.50667 25.2712 8.56C25.2846 8.61333 25.2779 8.65333 25.2513 8.68C25.2246 8.7 25.2213 8.73 25.2413 8.77C25.2146 8.81667 25.2113 8.84667 25.2313 8.86C25.2446 8.87333 25.2579 8.90333 25.2712 8.95C25.2446 8.96333 25.2179 8.98667 25.1912 9.02C25.1712 9.05333 25.1513 9.08667 25.1313 9.12C25.1379 9.18667 25.1379 9.24333 25.1313 9.29C25.1246 9.34333 25.1146 9.39333 25.1012 9.44C25.0946 9.49333 25.0879 9.54667 25.0813 9.6C25.0813 9.65333 25.0879 9.71333 25.1012 9.78C25.1546 9.78 25.1979 9.78333 25.2313 9.79C25.2579 9.79 25.2946 9.77667 25.3413 9.75C25.4479 9.77667 25.5379 9.77667 25.6112 9.75C25.6846 9.72333 25.7613 9.71 25.8413 9.71C25.9146 9.71 25.9813 9.72 26.0413 9.74C26.1012 9.76667 26.1613 9.76667 26.2213 9.74C26.2413 9.62667 26.2446 9.52 26.2313 9.42C26.2179 9.32 26.2013 9.22 26.1812 9.12C26.1746 9.09333 26.1746 9.06333 26.1812 9.03C26.1812 9.00333 26.1812 8.97667 26.1812 8.95C26.1479 8.84333 26.1413 8.78333 26.1613 8.77C26.1146 8.70333 26.0913 8.64667 26.0913 8.6C26.0913 8.55333 26.0913 8.50667 26.0913 8.46C26.0979 8.40667 26.1046 8.36 26.1112 8.32C26.1112 8.28 26.1179 8.25 26.1313 8.23C26.0912 8.17 26.0679 8.1 26.0613 8.02C26.0546 7.94667 26.0513 7.87333 26.0513 7.8C26.0579 7.73333 26.0513 7.67333 26.0312 7.62C26.0179 7.56667 26.0113 7.50667 26.0113 7.44C25.9979 7.40667 25.9979 7.37333 26.0113 7.34C26.0246 7.30667 26.0312 7.27333 26.0312 7.24C26.0246 7.21333 26.0146 7.18667 26.0013 7.16C25.9879 7.14 25.9813 7.11667 25.9813 7.09C26.0013 6.92333 25.9979 6.80667 25.9713 6.74C25.9513 6.66667 25.9346 6.59667 25.9213 6.53C25.9213 6.49667 25.9279 6.47 25.9412 6.45C25.9479 6.43 25.9513 6.40333 25.9513 6.37C25.9513 6.33667 25.9479 6.30667 25.9412 6.28C25.9412 6.25333 25.9446 6.22667 25.9513 6.2C25.9579 6.15333 25.9679 6.11333 25.9813 6.08C25.9879 6.04667 25.9979 6.00667 26.0113 5.96C26.0113 5.9 26.0013 5.84333 25.9813 5.79C25.9613 5.73 25.9513 5.67 25.9513 5.61C25.9513 5.53667 25.9579 5.46 25.9713 5.38C25.9846 5.30667 25.9979 5.22667 26.0113 5.14C25.9379 5.1 25.8779 5.09333 25.8313 5.12C25.7846 5.15333 25.7246 5.15333 25.6513 5.12ZM34.5612 7.24C34.6346 7.2 34.6912 7.14667 34.7312 7.08C34.7779 7.01333 34.8212 6.94667 34.8612 6.88C34.9346 6.80667 34.9979 6.74 35.0513 6.68C35.0979 6.62 35.1446 6.58667 35.1912 6.58C35.2046 6.51333 35.2379 6.47333 35.2912 6.46C35.3446 6.44667 35.3746 6.41 35.3812 6.35C35.4279 6.35 35.4579 6.33667 35.4712 6.31C35.4846 6.28333 35.5146 6.27 35.5612 6.27C35.5746 6.23 35.5879 6.2 35.6012 6.18C35.6213 6.15333 35.6412 6.12333 35.6612 6.09C35.7612 6.04333 35.8346 5.97333 35.8812 5.88C35.9212 5.78 35.9946 5.70667 36.1012 5.66C36.1146 5.57333 36.1579 5.5 36.2312 5.44C36.3046 5.38 36.3679 5.31667 36.4212 5.25C36.4813 5.19 36.5446 5.12667 36.6112 5.06C36.6779 4.98667 36.7079 4.93333 36.7012 4.9C36.6879 4.85333 36.6679 4.84 36.6412 4.86C36.6079 4.88667 36.5779 4.9 36.5513 4.9C36.4912 4.88 36.4512 4.87667 36.4312 4.89C36.4112 4.90333 36.3913 4.91667 36.3713 4.93C36.3446 4.93 36.3179 4.92667 36.2912 4.92C36.2712 4.91333 36.2479 4.91667 36.2212 4.93C36.1546 4.93 36.1046 4.93 36.0712 4.93C36.0312 4.93667 35.9879 4.94667 35.9412 4.96C35.9012 4.97333 35.8579 4.98667 35.8112 5C35.7646 5.01333 35.7313 5.02 35.7113 5.02C35.6512 4.99333 35.6046 4.92333 35.5712 4.81C35.5379 4.69667 35.5579 4.61667 35.6312 4.57C35.7579 4.49667 35.8546 4.46333 35.9212 4.47C35.9946 4.48333 36.0612 4.49 36.1213 4.49C36.2346 4.47 36.3112 4.46333 36.3512 4.47C36.3979 4.47 36.4446 4.46667 36.4912 4.46C36.5646 4.45333 36.6312 4.43667 36.6912 4.41C36.7513 4.39 36.8112 4.38 36.8713 4.38C36.9379 4.38667 37.0012 4.40333 37.0612 4.43C37.1213 4.45 37.1779 4.46 37.2312 4.46C37.2779 4.46 37.3179 4.45667 37.3512 4.45C37.3913 4.43667 37.4279 4.43 37.4613 4.43C37.5812 4.43 37.6979 4.44 37.8112 4.46C37.9246 4.48 38.0412 4.48 38.1612 4.46C38.2412 4.45333 38.3246 4.43333 38.4112 4.4C38.4912 4.36667 38.5779 4.36 38.6712 4.38C38.6846 4.40667 38.7079 4.43 38.7412 4.45C38.7746 4.46333 38.8012 4.48667 38.8212 4.52L38.9112 4.67C38.9112 4.71 38.8879 4.75 38.8412 4.79C38.7946 4.82333 38.7679 4.86 38.7612 4.9H38.5612C38.5146 4.9 38.4879 4.91333 38.4812 4.94C38.4746 4.96667 38.4512 4.97667 38.4112 4.97C38.3912 4.95667 38.3479 4.94667 38.2812 4.94C38.2079 4.93333 38.1346 4.93 38.0612 4.93C37.9879 4.93 37.9179 4.93333 37.8512 4.94C37.7846 4.94667 37.7412 4.95667 37.7212 4.97C37.6946 4.95 37.6646 4.93667 37.6312 4.93C37.5912 4.93 37.5546 4.92 37.5212 4.9C37.4279 4.92 37.3879 4.94 37.4012 4.96C37.4146 4.98 37.4046 5 37.3713 5.02C37.3312 5.04 37.2946 5.06 37.2612 5.08C37.2346 5.09333 37.2012 5.10667 37.1612 5.12C37.1412 5.14667 37.1112 5.19 37.0712 5.25C37.0312 5.31 37.0212 5.35333 37.0412 5.38C37.0146 5.39333 36.9879 5.40667 36.9613 5.42C36.9346 5.42667 36.9046 5.44 36.8713 5.46C36.7979 5.54 36.7546 5.59333 36.7412 5.62C36.7212 5.64 36.6946 5.66 36.6612 5.68C36.5946 5.78667 36.5479 5.85333 36.5212 5.88C36.4946 5.9 36.4846 5.93667 36.4912 5.99C36.4112 6.01667 36.3446 6.06333 36.2912 6.13C36.2446 6.19 36.2012 6.26333 36.1612 6.35C36.1012 6.37667 36.0446 6.41667 35.9912 6.47C35.9779 6.53667 35.9912 6.57333 36.0312 6.58C36.0646 6.58667 36.0946 6.61 36.1213 6.65C36.1346 6.69667 36.1679 6.75667 36.2212 6.83C36.2679 6.87 36.2979 6.89667 36.3112 6.91C36.3312 6.93 36.3312 6.95333 36.3112 6.98C36.3579 6.99333 36.3879 7.01667 36.4012 7.05C36.4079 7.08333 36.4379 7.09667 36.4912 7.09C36.5112 7.17667 36.5512 7.24667 36.6112 7.3C36.6779 7.36 36.7146 7.44 36.7212 7.54C36.7812 7.62 36.8412 7.67667 36.9012 7.71C36.9212 7.75667 36.9446 7.82 36.9712 7.9C36.9979 7.98 37.0246 8.04 37.0513 8.08C37.1246 8.12667 37.1579 8.16 37.1512 8.18C37.1379 8.2 37.1412 8.21667 37.1612 8.23C37.2079 8.30333 37.2646 8.36333 37.3312 8.41C37.3913 8.45667 37.4346 8.52667 37.4613 8.62C37.4879 8.63333 37.5112 8.65 37.5312 8.67C37.5513 8.69 37.5779 8.69667 37.6112 8.69C37.6779 8.77667 37.7312 8.84667 37.7712 8.9C37.8112 8.96 37.8646 8.99667 37.9312 9.01C37.9446 9.05 37.9612 9.09 37.9812 9.13C38.0012 9.17 38.0346 9.19 38.0812 9.19C38.0946 9.28333 38.1079 9.34 38.1213 9.36C38.1279 9.37333 38.1446 9.38 38.1712 9.38C38.1646 9.45333 38.1779 9.5 38.2113 9.52C38.2513 9.54 38.2746 9.57667 38.2812 9.63C38.3812 9.63667 38.4446 9.64 38.4712 9.64C38.4979 9.63333 38.5279 9.62 38.5612 9.6C38.6946 9.60667 38.8379 9.59667 38.9912 9.57C39.0379 9.55667 39.0946 9.55 39.1612 9.55C39.2212 9.55 39.2512 9.55667 39.2512 9.57C39.2912 9.57 39.3246 9.55667 39.3512 9.53C39.3779 9.50333 39.4146 9.48667 39.4613 9.48C39.4679 9.48 39.4879 9.49 39.5212 9.51C39.5546 9.52333 39.5846 9.54333 39.6112 9.57C39.6379 9.59 39.6579 9.61333 39.6712 9.64C39.6846 9.66 39.6779 9.67333 39.6512 9.68C39.6512 9.74 39.6546 9.79 39.6612 9.83C39.6746 9.87 39.6712 9.9 39.6512 9.92C39.5779 9.93333 39.5279 9.95667 39.5012 9.99C39.4746 10.0233 39.4246 10.05 39.3512 10.07C39.2579 10.0833 39.1612 10.09 39.0612 10.09C38.9613 10.0833 38.8612 10.0833 38.7612 10.09C38.7012 10.09 38.6346 10.0967 38.5612 10.11C38.4946 10.1167 38.4246 10.1233 38.3512 10.13C38.3246 10.1433 38.3013 10.1667 38.2812 10.2C38.2546 10.2267 38.2279 10.25 38.2012 10.27C38.1546 10.27 38.1312 10.2533 38.1312 10.22C38.1246 10.1933 38.0879 10.1833 38.0212 10.19C37.9679 10.21 37.9113 10.22 37.8512 10.22C37.7912 10.2267 37.7313 10.2333 37.6712 10.24C37.5846 10.24 37.5312 10.2467 37.5112 10.26C37.4912 10.2733 37.4646 10.2867 37.4312 10.3C37.3712 10.3067 37.2879 10.3133 37.1812 10.32C37.0746 10.3267 36.9912 10.32 36.9312 10.3C36.8912 10.28 36.8579 10.2533 36.8312 10.22C36.8046 10.1933 36.7679 10.1833 36.7212 10.19C36.7346 10.1433 36.7313 10.11 36.7113 10.09C36.6912 10.0633 36.6779 10.0267 36.6712 9.98C36.6779 9.98 36.7079 9.96 36.7612 9.92C36.8079 9.87333 36.8446 9.84333 36.8713 9.83C36.9179 9.81667 36.9746 9.82 37.0412 9.84C37.1012 9.86 37.1512 9.85 37.1912 9.81C37.2713 9.85 37.3613 9.85667 37.4613 9.83C37.5546 9.80333 37.6412 9.77333 37.7212 9.74C37.6746 9.64667 37.6246 9.57 37.5712 9.51C37.5179 9.45 37.4813 9.37 37.4613 9.27C37.4146 9.24333 37.3779 9.21333 37.3512 9.18C37.3246 9.15333 37.2846 9.13333 37.2312 9.12C37.1979 9.02 37.1379 8.97 37.0513 8.97C37.0779 8.92333 37.0779 8.89333 37.0513 8.88C37.0246 8.86 37.0012 8.84 36.9812 8.82C36.9412 8.74667 36.9046 8.68 36.8713 8.62C36.8379 8.56 36.7812 8.51333 36.7012 8.48C36.7012 8.38667 36.6712 8.28667 36.6112 8.18C36.5579 8.07333 36.4879 7.99667 36.4012 7.95C36.4012 7.92333 36.3846 7.88667 36.3512 7.84C36.3246 7.79333 36.2946 7.74667 36.2612 7.7C36.2212 7.65333 36.1846 7.61 36.1512 7.57C36.1179 7.53 36.0912 7.50667 36.0712 7.5C36.0312 7.35333 35.9679 7.23667 35.8812 7.15C35.7946 7.07 35.7012 6.98 35.6012 6.88C35.4879 6.90667 35.4079 6.99333 35.3612 7.14C35.2946 7.14667 35.2346 7.18667 35.1812 7.26C35.1012 7.4 35.0279 7.49333 34.9613 7.54C34.8946 7.59333 34.8479 7.66 34.8212 7.74C34.7079 7.76667 34.6512 7.8 34.6512 7.84C34.6512 7.87333 34.6312 7.88667 34.5912 7.88C34.6179 7.92667 34.6213 7.97667 34.6012 8.03C34.5879 8.08333 34.5846 8.13333 34.5912 8.18C34.5912 8.20667 34.5979 8.23 34.6112 8.25C34.6246 8.27667 34.6312 8.30333 34.6312 8.33C34.6446 8.38333 34.6413 8.42333 34.6213 8.45C34.6012 8.47667 34.6046 8.52333 34.6312 8.59C34.6446 8.61667 34.6413 8.65 34.6213 8.69C34.6012 8.72333 34.6146 8.75 34.6612 8.77C34.6346 8.84333 34.6346 8.92333 34.6612 9.01C34.6879 9.10333 34.7046 9.19 34.7113 9.27C34.7113 9.31 34.7079 9.34667 34.7012 9.38C34.6946 9.40667 34.6979 9.44 34.7113 9.48C34.8112 9.55333 34.8946 9.58667 34.9613 9.58C35.0279 9.57333 35.0812 9.55667 35.1213 9.53C35.2146 9.58333 35.3079 9.60667 35.4012 9.6C35.4212 9.64667 35.4512 9.68 35.4912 9.7C35.5379 9.71333 35.5746 9.73 35.6012 9.75C35.5412 9.79 35.4846 9.83667 35.4312 9.89C35.3846 9.94333 35.3312 9.99333 35.2712 10.04C35.2579 10.04 35.2113 10.0433 35.1312 10.05C35.0512 10.05 34.9612 10.0567 34.8612 10.07C34.7612 10.0833 34.6679 10.0967 34.5812 10.11C34.4946 10.1233 34.4379 10.13 34.4112 10.13C34.1979 10.1233 34.0279 10.13 33.9012 10.15C33.7812 10.17 33.6546 10.1833 33.5212 10.19C33.4146 10.17 33.3546 10.17 33.3412 10.19C33.3279 10.21 33.3112 10.22 33.2912 10.22C33.1846 10.2067 33.1146 10.2067 33.0812 10.22C33.0479 10.2333 33.0146 10.25 32.9812 10.27C32.9279 10.29 32.8646 10.3033 32.7912 10.31C32.7246 10.31 32.6613 10.32 32.6012 10.34C32.5546 10.36 32.5112 10.3833 32.4713 10.41C32.4379 10.4367 32.3979 10.45 32.3513 10.45C32.3113 10.45 32.2779 10.4433 32.2512 10.43C32.2179 10.4167 32.1813 10.4033 32.1413 10.39C32.1146 10.3767 32.1012 10.35 32.1012 10.31C32.0946 10.2767 32.0779 10.2533 32.0513 10.24C32.0312 10.18 32.0346 10.1367 32.0613 10.11C32.0879 10.0833 32.0979 10.04 32.0913 9.98C32.1379 9.99333 32.1712 9.99 32.1912 9.97C32.2179 9.95 32.2446 9.93333 32.2712 9.92C32.3446 9.93333 32.4079 9.93 32.4613 9.91C32.5146 9.88333 32.5679 9.85 32.6213 9.81C32.6146 9.71667 32.6179 9.62333 32.6312 9.53C32.6446 9.43 32.6413 9.33667 32.6213 9.25C32.6946 9.10333 32.7312 8.96 32.7312 8.82C32.7312 8.79333 32.7246 8.76667 32.7113 8.74C32.6979 8.71333 32.6946 8.68667 32.7012 8.66C32.7412 8.56667 32.7579 8.50667 32.7512 8.48C32.7379 8.45333 32.7312 8.43 32.7312 8.41C32.7246 8.26333 32.7346 8.12 32.7612 7.98C32.7879 7.84 32.7979 7.69333 32.7912 7.54C32.7712 7.44 32.7679 7.38333 32.7812 7.37C32.7946 7.36333 32.8013 7.33667 32.8013 7.29C32.8079 7.25667 32.8079 7.22333 32.8013 7.19C32.7946 7.15667 32.7912 7.12333 32.7912 7.09C32.7779 7.05 32.7779 7.01667 32.7912 6.99C32.7979 6.96333 32.8013 6.93667 32.8013 6.91C32.8079 6.78333 32.8179 6.65667 32.8312 6.53C32.8446 6.39667 32.8612 6.26667 32.8812 6.14C32.8946 6.05333 32.9112 5.96333 32.9312 5.87C32.9512 5.77667 32.9346 5.69 32.8812 5.61C32.9279 5.53667 32.9479 5.44 32.9412 5.32C32.9412 5.19333 32.9412 5.09333 32.9412 5.02C32.9546 4.96667 32.9546 4.92667 32.9412 4.9C32.9212 4.87333 32.9112 4.84667 32.9112 4.82C32.9046 4.76 32.9079 4.7 32.9212 4.64C32.9412 4.57333 32.9179 4.52333 32.8512 4.49C32.8713 4.39 32.8779 4.29 32.8713 4.19C32.8579 4.09667 32.8512 4 32.8512 3.9C32.8512 3.82667 32.8612 3.75333 32.8812 3.68C32.9012 3.60667 32.9112 3.53333 32.9112 3.46C32.9046 3.4 32.9079 3.35667 32.9212 3.33C32.9346 3.29667 32.9479 3.26 32.9613 3.22C32.9746 3.16 32.9812 3.10667 32.9812 3.06C32.9812 3.00667 32.9912 2.95333 33.0112 2.9C33.0446 2.79333 33.0579 2.72667 33.0513 2.7C33.0379 2.67333 33.0312 2.64 33.0312 2.6C33.0446 2.52667 33.0579 2.45333 33.0712 2.38C33.0912 2.30667 33.0979 2.23333 33.0912 2.16C33.0712 2.06 33.0679 2 33.0812 1.98C33.0946 1.96 33.1046 1.94 33.1112 1.92C33.1446 1.77333 33.1612 1.62 33.1612 1.46C33.1612 1.3 33.1612 1.14667 33.1612 1C33.0679 0.966667 32.9813 0.963334 32.9012 0.99C32.8279 1.02333 32.7446 1.05 32.6512 1.07C32.5712 1.07667 32.5312 1.08667 32.5312 1.1C32.5312 1.10667 32.5212 1.11333 32.5012 1.12C32.4479 1.14 32.3512 1.15667 32.2113 1.17C32.0779 1.17667 31.9779 1.17 31.9113 1.15C31.8646 1.16333 31.8046 1.19667 31.7313 1.25C31.6779 1.23 31.6379 1.19667 31.6112 1.15C31.5846 1.10333 31.5479 1.06667 31.5013 1.04C31.5079 0.993333 31.5113 0.95 31.5113 0.91C31.5046 0.863334 31.5112 0.816667 31.5312 0.77C31.5513 0.75 31.5746 0.733334 31.6012 0.72C31.6346 0.706667 31.6612 0.696667 31.6812 0.69C31.7746 0.703333 31.8213 0.703333 31.8213 0.69C31.8213 0.676667 31.8279 0.67 31.8413 0.67C31.8679 0.663333 31.9079 0.666667 31.9613 0.68C32.0079 0.693334 32.0513 0.696667 32.0913 0.69C32.2646 0.69 32.4179 0.646667 32.5513 0.56C32.6246 0.56 32.6979 0.56 32.7712 0.56C32.8379 0.553333 32.9079 0.536667 32.9812 0.51C33.0079 0.503334 33.0312 0.493333 33.0513 0.48C33.0646 0.46 33.0846 0.446667 33.1112 0.44C33.1579 0.42 33.2079 0.406667 33.2612 0.4C33.3213 0.393333 33.3746 0.38 33.4212 0.36C33.4813 0.366667 33.5212 0.356667 33.5412 0.33C33.5612 0.303334 33.5779 0.29 33.5912 0.29C33.7112 0.316667 33.8112 0.32 33.8912 0.3C34.0246 0.293334 34.1112 0.3 34.1512 0.32C34.1979 0.346667 34.2479 0.36 34.3013 0.36C34.3746 0.48 34.4046 0.553334 34.3912 0.58C34.3779 0.613334 34.4079 0.666667 34.4812 0.74C34.4546 0.793334 34.4479 0.826667 34.4613 0.84C34.4746 0.853333 34.4812 0.87 34.4812 0.89C34.4946 0.956667 34.4946 1.02 34.4812 1.08C34.4746 1.14667 34.4646 1.21333 34.4512 1.28C34.4512 1.31333 34.4579 1.34667 34.4712 1.38C34.4779 1.41333 34.4812 1.44667 34.4812 1.48C34.4946 1.57333 34.4979 1.67 34.4912 1.77C34.4846 1.87667 34.5079 1.96667 34.5612 2.04C34.5079 2.18667 34.4879 2.29 34.5012 2.35C34.5146 2.41 34.5179 2.47 34.5112 2.53C34.5046 2.61667 34.4912 2.7 34.4712 2.78C34.4579 2.86 34.4512 2.94667 34.4512 3.04C34.4712 3.16667 34.4746 3.27 34.4613 3.35C34.4479 3.42333 34.4446 3.48667 34.4512 3.54C34.4712 3.6 34.4779 3.64333 34.4712 3.67C34.4579 3.69667 34.4512 3.72333 34.4512 3.75C34.4646 3.80333 34.4779 3.85 34.4912 3.89C34.5046 3.92333 34.5112 3.97667 34.5112 4.05C34.4846 4.05 34.4812 4.07 34.5012 4.11C34.5279 4.15 34.5412 4.18 34.5412 4.2C34.5479 4.24667 34.5446 4.29 34.5312 4.33C34.5179 4.37 34.5112 4.41333 34.5112 4.46C34.5112 4.53333 34.5212 4.60333 34.5412 4.67C34.5546 4.73 34.5612 4.79667 34.5612 4.87C34.5479 4.99667 34.5412 5.12667 34.5412 5.26C34.5479 5.39333 34.5479 5.49 34.5412 5.55C34.5212 5.68333 34.5212 5.76333 34.5412 5.79C34.5546 5.82333 34.5612 5.86333 34.5612 5.91C34.5612 5.98333 34.5479 6.04333 34.5212 6.09C34.4946 6.14333 34.4912 6.21 34.5112 6.29C34.5446 6.36333 34.5579 6.41333 34.5513 6.44C34.5446 6.46667 34.5412 6.49667 34.5412 6.53C34.5279 6.59667 34.5279 6.66333 34.5412 6.73C34.5546 6.79667 34.5612 6.86667 34.5612 6.94C34.5612 6.98 34.5579 7.03 34.5513 7.09C34.5446 7.14333 34.5479 7.19333 34.5612 7.24ZM33.6812 0.85C33.6879 0.896667 33.6812 0.943334 33.6612 0.99C33.6412 1.03667 33.6379 1.08 33.6512 1.12C33.6712 1.15333 33.6779 1.18333 33.6712 1.21C33.6646 1.23667 33.6579 1.26667 33.6512 1.3C33.6379 1.32667 33.6312 1.35667 33.6312 1.39C33.6246 1.42333 33.6312 1.45333 33.6512 1.48C33.6312 1.58667 33.6246 1.65667 33.6312 1.69C33.6446 1.71667 33.6512 1.74667 33.6512 1.78C33.6379 1.82667 33.6246 1.86667 33.6112 1.9C33.5912 1.93333 33.5779 1.97 33.5712 2.01C33.5846 2.11 33.5912 2.21 33.5912 2.31C33.5846 2.40333 33.5746 2.50333 33.5612 2.61C33.5479 2.72333 33.5346 2.82667 33.5212 2.92C33.5146 3.02 33.5079 3.08333 33.5012 3.11C33.4812 3.17 33.4546 3.22667 33.4212 3.28C33.3879 3.34 33.3946 3.4 33.4412 3.46C33.3946 3.48 33.3846 3.51 33.4112 3.55C33.4312 3.59 33.4246 3.61667 33.3912 3.63C33.3712 3.66333 33.3579 3.72667 33.3512 3.82C33.3379 3.90667 33.3512 3.97 33.3912 4.01C33.3379 4.07667 33.3246 4.16 33.3512 4.26C33.3779 4.36 33.3812 4.41667 33.3612 4.43C33.3612 4.47667 33.3646 4.51667 33.3713 4.55C33.3846 4.58333 33.3912 4.62333 33.3912 4.67C33.4246 4.75 33.4446 4.79667 33.4512 4.81C33.4579 4.82333 33.4646 4.83333 33.4712 4.84C33.4646 4.88 33.4546 4.91667 33.4412 4.95C33.4346 4.97667 33.4279 5.01 33.4212 5.05C33.4212 5.07667 33.4246 5.10333 33.4312 5.13C33.4379 5.15667 33.4412 5.19 33.4412 5.23C33.4412 5.25667 33.4379 5.28667 33.4312 5.32C33.4246 5.34667 33.4212 5.37333 33.4212 5.4C33.4212 5.44667 33.4246 5.48667 33.4312 5.52C33.4379 5.55333 33.4412 5.59333 33.4412 5.64C33.4412 5.72667 33.4312 5.82 33.4112 5.92C33.3846 6.02 33.3946 6.11333 33.4412 6.2C33.4279 6.22667 33.4112 6.24667 33.3912 6.26C33.3712 6.27333 33.3612 6.30333 33.3612 6.35C33.3612 6.45 33.3512 6.55 33.3312 6.65C33.3046 6.75667 33.2912 6.86 33.2912 6.96C33.2912 6.98667 33.2979 7.01333 33.3112 7.04C33.3179 7.07333 33.3212 7.10667 33.3212 7.14C33.3146 7.16667 33.3046 7.19333 33.2912 7.22C33.2712 7.24667 33.2612 7.28 33.2612 7.32C33.2546 7.34667 33.2579 7.37667 33.2712 7.41C33.2846 7.45 33.2746 7.48 33.2412 7.5C33.2879 7.56 33.2979 7.62333 33.2712 7.69C33.2512 7.75 33.2579 7.80333 33.2912 7.85C33.2579 7.95 33.2446 8 33.2512 8C33.2579 8 33.2612 8.01 33.2612 8.03C33.2812 8.08333 33.2879 8.15333 33.2812 8.24C33.2679 8.32667 33.2712 8.41667 33.2912 8.51C33.2646 8.55667 33.2346 8.65 33.2012 8.79C33.1746 8.93 33.1612 9.02333 33.1612 9.07C33.1879 9.12333 33.1912 9.18667 33.1712 9.26C33.1512 9.33333 33.1412 9.38 33.1412 9.4C33.1212 9.45333 33.1179 9.51 33.1312 9.57C33.1379 9.63 33.1312 9.68667 33.1112 9.74C33.2712 9.76667 33.4446 9.76 33.6312 9.72C33.8246 9.68667 33.9979 9.66667 34.1512 9.66C34.1912 9.58667 34.2146 9.53667 34.2212 9.51C34.2346 9.47667 34.2379 9.45333 34.2312 9.44C34.2246 9.42667 34.2146 9.41 34.2012 9.39C34.1879 9.37 34.1812 9.32333 34.1812 9.25C34.1879 9.18333 34.1879 9.12333 34.1812 9.07C34.1746 9.01667 34.1646 8.96 34.1512 8.9C34.1446 8.84 34.1379 8.78 34.1312 8.72C34.1312 8.66 34.1312 8.61667 34.1312 8.59C34.1312 8.55 34.1379 8.51667 34.1512 8.49C34.1646 8.45667 34.1646 8.42 34.1512 8.38C34.1512 8.35333 34.1446 8.33 34.1312 8.31C34.1179 8.29 34.1079 8.26333 34.1012 8.23C34.0812 8.13 34.0746 8.03667 34.0812 7.95C34.0879 7.86333 34.0812 7.77 34.0612 7.67C34.0479 7.63 34.0579 7.60667 34.0912 7.6C34.1179 7.59333 34.1213 7.56667 34.1012 7.52C34.1213 7.47333 34.1179 7.44333 34.0912 7.43C34.0579 7.41 34.0479 7.38333 34.0612 7.35C34.0412 7.23667 34.0346 7.14667 34.0412 7.08C34.0412 7.01333 34.0279 6.95667 34.0012 6.91C34.0479 6.82333 34.0646 6.73 34.0513 6.63C34.0379 6.53 34.0312 6.43667 34.0312 6.35C34.0312 6.25 34.0412 6.14667 34.0612 6.04C34.0812 5.93333 34.0912 5.83 34.0912 5.73C34.0779 5.63 34.0679 5.53667 34.0612 5.45C34.0612 5.36333 34.0612 5.27 34.0612 5.17C34.0412 5.06333 34.0412 4.97333 34.0612 4.9C34.0612 4.82667 34.0612 4.75333 34.0612 4.68C34.0679 4.60667 34.0679 4.53333 34.0612 4.46C34.0479 4.43333 34.0346 4.40333 34.0212 4.37C34.0079 4.33667 34.0012 4.30667 34.0012 4.28C34.0212 4.20667 34.0279 4.17 34.0212 4.17C34.0079 4.16333 34.0012 4.15 34.0012 4.13C33.9879 3.97667 33.9879 3.82 34.0012 3.66C34.0212 3.5 34.0146 3.34333 33.9812 3.19C33.9612 3.12333 33.9579 3.06667 33.9712 3.02C33.9846 2.96667 33.9946 2.91333 34.0012 2.86C34.0146 2.8 34.0179 2.74 34.0112 2.68C34.0046 2.62 34.0012 2.56333 34.0012 2.51C34.0412 2.34333 34.0546 2.2 34.0412 2.08C34.0346 1.96 34.0312 1.84667 34.0312 1.74C34.0312 1.69333 34.0346 1.64667 34.0412 1.6C34.0546 1.54667 34.0612 1.49667 34.0612 1.45C34.0612 1.41667 34.0612 1.36667 34.0612 1.3C34.0612 1.22667 34.0546 1.15667 34.0412 1.09C34.0279 1.02333 34.0079 0.96 33.9812 0.9C33.9612 0.84 33.9312 0.806667 33.8912 0.8C33.8779 0.786667 33.8446 0.79 33.7912 0.81C33.7446 0.83 33.7079 0.843334 33.6812 0.85ZM42.9312 4.23C42.9379 4.29 42.9446 4.34667 42.9512 4.4C42.9579 4.44667 42.9412 4.50333 42.9012 4.57C42.8412 4.59 42.7846 4.60333 42.7312 4.61C42.6846 4.61667 42.6246 4.64333 42.5513 4.69C42.5246 4.71 42.4879 4.71333 42.4412 4.7C42.3946 4.68667 42.3579 4.70333 42.3312 4.75C42.2912 4.75667 42.2579 4.75 42.2312 4.73C42.2046 4.71667 42.1779 4.71333 42.1512 4.72C41.9712 4.76667 41.8379 4.78667 41.7512 4.78C41.6646 4.76667 41.5746 4.77 41.4812 4.79C41.4812 4.81 41.4846 4.85 41.4912 4.91C41.4979 4.97667 41.5079 5.04667 41.5212 5.12C41.5346 5.19333 41.5479 5.26 41.5612 5.32C41.5746 5.38667 41.5846 5.43333 41.5912 5.46C41.5979 5.50667 41.6112 5.54333 41.6312 5.57C41.6512 5.60333 41.6712 5.64 41.6912 5.68C41.7046 5.73333 41.7246 5.79667 41.7512 5.87C41.7712 5.94333 41.8012 6.00333 41.8412 6.05C41.9146 6.13 41.9646 6.18 41.9912 6.2C42.0179 6.22667 42.0446 6.25 42.0712 6.27C42.0979 6.35667 42.1279 6.44667 42.1612 6.54C42.1946 6.63333 42.2412 6.71333 42.3013 6.78C42.2946 6.8 42.3012 6.84 42.3212 6.9C42.3479 6.96 42.3746 7.03 42.4012 7.11C42.4279 7.18333 42.4546 7.25333 42.4812 7.32C42.5079 7.38 42.5312 7.42 42.5513 7.44C42.5579 7.46667 42.5579 7.50333 42.5513 7.55C42.5513 7.59667 42.5612 7.63 42.5812 7.65C42.5946 7.69 42.6179 7.73 42.6512 7.77C42.6846 7.80333 42.7179 7.84 42.7512 7.88C42.7512 7.92667 42.7612 7.96333 42.7812 7.99C42.8013 8.02333 42.8212 8.06 42.8412 8.1C42.8946 8.15333 42.9179 8.19333 42.9112 8.22C42.9046 8.24667 42.9112 8.27333 42.9312 8.3C42.9846 8.37333 43.0346 8.43667 43.0812 8.49C43.1279 8.55 43.1746 8.61667 43.2212 8.69C43.2412 8.65667 43.2612 8.63 43.2812 8.61C43.3013 8.59 43.3212 8.56333 43.3412 8.53C43.3612 8.50333 43.3746 8.47 43.3812 8.43C43.3812 8.38333 43.4046 8.36 43.4512 8.36C43.4446 8.31333 43.4479 8.27667 43.4613 8.25C43.4813 8.23 43.4813 8.19667 43.4613 8.15C43.5079 8.14333 43.5379 8.11667 43.5513 8.07C43.5579 8.02333 43.5846 7.99 43.6312 7.97C43.6312 7.89667 43.6479 7.83333 43.6812 7.78C43.7212 7.72667 43.7546 7.66333 43.7812 7.59C43.8079 7.53 43.8246 7.46333 43.8312 7.39C43.8312 7.32333 43.8446 7.25333 43.8713 7.18C43.8913 7.14667 43.9146 7.11667 43.9412 7.09C43.9679 7.05667 43.9912 7.02 44.0112 6.98C44.0312 6.95333 44.0446 6.91667 44.0513 6.87C44.0513 6.83 44.0712 6.8 44.1112 6.78C44.1246 6.68 44.1546 6.59 44.2012 6.51C44.2412 6.43 44.2779 6.34 44.3112 6.24C44.3846 6.04667 44.4679 5.84667 44.5612 5.64C44.6479 5.42667 44.7012 5.25333 44.7212 5.12C44.5946 5.07333 44.4579 5.07333 44.3112 5.12C44.1646 5.16667 44.0279 5.18333 43.9012 5.17C43.8546 5.13667 43.8246 5.09333 43.8112 5.04C43.7912 4.99333 43.7612 4.94667 43.7212 4.9C43.7412 4.88 43.7579 4.85667 43.7712 4.83C43.7846 4.80333 43.8046 4.78 43.8312 4.76L43.9812 4.69C44.0012 4.68333 44.0312 4.68333 44.0712 4.69C44.1112 4.70333 44.1512 4.70333 44.1912 4.69C44.2912 4.65667 44.3479 4.64333 44.3612 4.65C44.3746 4.66333 44.3912 4.67 44.4112 4.67C44.4712 4.67 44.5279 4.65667 44.5812 4.63C44.6279 4.61 44.6846 4.59333 44.7512 4.58C44.7779 4.58 44.8046 4.58667 44.8312 4.6C44.8579 4.60667 44.8912 4.61 44.9312 4.61C45.0379 4.59 45.1146 4.59 45.1612 4.61C45.2079 4.63 45.2479 4.61667 45.2812 4.57C45.3213 4.60333 45.3946 4.62 45.5012 4.62C45.6146 4.62 45.6912 4.61667 45.7312 4.61C45.7712 4.61 45.8079 4.61667 45.8412 4.63C45.8679 4.64333 45.9012 4.64667 45.9412 4.64C46.0346 4.6 46.1012 4.58 46.1412 4.58C46.1879 4.57333 46.2379 4.56667 46.2912 4.56C46.3379 4.56 46.3846 4.55667 46.4312 4.55C46.4779 4.54333 46.5012 4.54 46.5012 4.54C46.5946 4.58 46.6479 4.59333 46.6612 4.58C46.6746 4.56667 46.6879 4.56333 46.7012 4.57C46.7412 4.57 46.7712 4.58 46.7912 4.6C46.8046 4.62667 46.8446 4.63 46.9112 4.61C46.9312 4.67667 46.9646 4.73333 47.0112 4.78C47.0646 4.83333 47.0713 4.89667 47.0312 4.97C46.9846 5.01 46.9346 5.02667 46.8812 5.02C46.8212 5.01333 46.7612 5.03333 46.7012 5.08C46.6412 5.09333 46.5846 5.09333 46.5312 5.08C46.4712 5.06 46.4113 5.05 46.3512 5.05C46.3246 5.05 46.2979 5.05667 46.2712 5.07C46.2512 5.08333 46.2279 5.09333 46.2012 5.1C46.1812 5.1 46.1546 5.09333 46.1213 5.08C46.0946 5.06667 46.0713 5.06667 46.0513 5.08C45.9579 5.08 45.8812 5.09 45.8212 5.11C45.7612 5.13 45.6812 5.13333 45.5812 5.12C45.5479 5.12 45.5146 5.11333 45.4812 5.1C45.4479 5.08667 45.4146 5.08667 45.3812 5.1C45.2612 5.12667 45.2012 5.18333 45.2012 5.27C45.2012 5.35 45.1846 5.42667 45.1512 5.5C45.1312 5.54667 45.1046 5.59 45.0712 5.63C45.0379 5.67 45.0146 5.71333 45.0012 5.76C44.9679 5.82667 44.9479 5.90333 44.9412 5.99C44.9346 6.07 44.8946 6.13 44.8212 6.17V6.35C44.7746 6.40333 44.7313 6.47 44.6912 6.55C44.6579 6.62333 44.6512 6.7 44.6712 6.78C44.6179 6.79333 44.5946 6.81667 44.6012 6.85C44.6079 6.89 44.6046 6.92667 44.5912 6.96C44.5312 7.02667 44.5012 7.07 44.5012 7.09C44.5012 7.10333 44.4979 7.12 44.4912 7.14C44.4379 7.20667 44.4012 7.26 44.3812 7.3C44.3612 7.34667 44.3446 7.39667 44.3312 7.45C44.3112 7.51 44.2912 7.56333 44.2712 7.61C44.2512 7.66333 44.2379 7.69667 44.2312 7.71C44.2112 7.75667 44.2046 7.8 44.2113 7.84C44.2179 7.87333 44.2113 7.91 44.1912 7.95C44.1246 8.02333 44.0846 8.09 44.0712 8.15C44.0512 8.21667 44.0312 8.27667 44.0112 8.33C43.9912 8.35667 43.9746 8.38 43.9613 8.4C43.9412 8.42667 43.9212 8.45333 43.9012 8.48C43.8946 8.5 43.8846 8.55667 43.8713 8.65C43.8579 8.74333 43.8512 8.8 43.8512 8.82C43.8046 8.84667 43.7746 8.89 43.7612 8.95C43.7546 9.00333 43.7412 9.05333 43.7212 9.1C43.7146 9.13333 43.7012 9.16 43.6812 9.18C43.6546 9.20667 43.6379 9.23667 43.6312 9.27C43.6112 9.31 43.6046 9.34667 43.6112 9.38C43.6112 9.40667 43.6079 9.44 43.6012 9.48C43.5746 9.58 43.5412 9.68 43.5012 9.78C43.4612 9.88 43.4479 9.98333 43.4613 10.09L43.3713 10.22C43.3312 10.3267 43.3179 10.39 43.3312 10.41C43.3379 10.4367 43.3179 10.46 43.2712 10.48C43.2646 10.58 43.2412 10.6667 43.2012 10.74C43.1679 10.8133 43.1246 10.8833 43.0712 10.95C43.0712 11.0567 43.0513 11.1367 43.0112 11.19C42.9779 11.2433 42.9379 11.31 42.8912 11.39C42.8846 11.51 42.8512 11.6167 42.7912 11.71C42.7312 11.7967 42.6946 11.9 42.6812 12.02C42.6746 12.0667 42.6612 12.09 42.6412 12.09C42.6146 12.09 42.5946 12.1033 42.5812 12.13C42.5812 12.21 42.5646 12.28 42.5312 12.34C42.4979 12.4 42.4912 12.48 42.5112 12.58C42.5713 12.62 42.6079 12.6467 42.6213 12.66C42.6279 12.6733 42.6412 12.6833 42.6612 12.69C42.7612 12.6567 42.8112 12.6433 42.8112 12.65C42.8112 12.6567 42.8212 12.66 42.8412 12.66C42.8946 12.66 42.9512 12.66 43.0112 12.66C43.0779 12.6533 43.1379 12.6467 43.1912 12.64C43.2379 12.6267 43.2879 12.61 43.3412 12.59C43.3946 12.5633 43.4446 12.55 43.4912 12.55C43.6046 12.57 43.6912 12.63 43.7512 12.73C43.7246 12.7567 43.7079 12.79 43.7012 12.83C43.6879 12.8633 43.6546 12.8767 43.6012 12.87C43.6012 12.9167 43.5713 12.9567 43.5112 12.99C43.4446 13.0167 43.3979 13.05 43.3713 13.09L43.1912 13.14C43.1112 13.16 43.0312 13.1667 42.9512 13.16C42.8779 13.1467 42.7979 13.14 42.7113 13.14C42.6246 13.14 42.5346 13.1467 42.4412 13.16C42.3479 13.1667 42.2579 13.17 42.1712 13.17C42.1312 13.17 42.0946 13.1667 42.0612 13.16C42.0212 13.1467 41.9846 13.14 41.9512 13.14C41.8379 13.16 41.7679 13.1667 41.7412 13.16C41.7146 13.1467 41.6879 13.14 41.6612 13.14C41.5079 13.14 41.3479 13.1467 41.1812 13.16C41.0146 13.1667 40.8512 13.16 40.6912 13.14C40.6846 13.12 40.6712 13.1 40.6512 13.08C40.6312 13.06 40.6112 13.04 40.5912 13.02C40.5379 12.9267 40.5346 12.85 40.5812 12.79C40.6279 12.7233 40.6912 12.6733 40.7712 12.64C40.8379 12.6733 40.9046 12.6833 40.9712 12.67C41.0379 12.6567 41.1079 12.6533 41.1812 12.66C41.2079 12.66 41.2346 12.6667 41.2612 12.68C41.2879 12.6933 41.3212 12.7067 41.3612 12.72C41.4879 12.7 41.5679 12.6933 41.6012 12.7C41.6346 12.7 41.6712 12.6967 41.7113 12.69C41.8112 12.6633 41.8846 12.6067 41.9312 12.52C41.9712 12.4333 41.9979 12.3433 42.0112 12.25C42.0246 12.2233 42.0379 12.1967 42.0513 12.17C42.0646 12.1433 42.0513 12.12 42.0112 12.1C42.0312 12.0533 42.0579 12.0167 42.0912 11.99C42.1246 11.9633 42.1512 11.9333 42.1712 11.9C42.1846 11.8067 42.2079 11.7167 42.2412 11.63C42.2746 11.5433 42.3146 11.4633 42.3612 11.39C42.3679 11.3633 42.3779 11.34 42.3912 11.32C42.4046 11.3067 42.4179 11.2867 42.4312 11.26C42.4446 11.2133 42.4546 11.1667 42.4613 11.12C42.4679 11.0733 42.4846 11.0267 42.5112 10.98C42.5246 10.9467 42.5446 10.8933 42.5712 10.82C42.5912 10.7467 42.6112 10.7 42.6312 10.68C42.6646 10.5867 42.6912 10.54 42.7113 10.54C42.7313 10.4867 42.7412 10.4267 42.7412 10.36C42.7412 10.2933 42.7646 10.2367 42.8112 10.19C42.7646 10.1433 42.7146 10.1 42.6612 10.06C42.6079 10.02 42.5579 9.98 42.5112 9.94C42.4912 9.92667 42.4812 9.89667 42.4812 9.85C42.4812 9.81 42.4812 9.77667 42.4812 9.75C42.4479 9.67 42.4012 9.58667 42.3412 9.5C42.2879 9.41333 42.2379 9.33 42.1912 9.25C42.1646 9.18333 42.1213 9.12333 42.0612 9.07C41.9946 9.01667 41.9379 8.95667 41.8912 8.89C41.8712 8.87 41.8512 8.85 41.8312 8.83C41.8112 8.80333 41.7912 8.78333 41.7712 8.77C41.7246 8.67 41.6946 8.62 41.6812 8.62C41.6679 8.62667 41.6512 8.62667 41.6312 8.62C41.6246 8.6 41.6146 8.57 41.6012 8.53C41.5946 8.49 41.5812 8.46 41.5612 8.44C41.5479 8.42 41.5312 8.4 41.5112 8.38C41.4912 8.36667 41.4712 8.35 41.4512 8.33C41.3912 8.25 41.3612 8.19667 41.3612 8.17C41.3612 8.13667 41.3512 8.11333 41.3312 8.1C41.2512 8.03333 41.2146 7.99667 41.2212 7.99C41.2212 7.97667 41.2179 7.96333 41.2113 7.95C41.1579 7.91 41.1312 7.88 41.1312 7.86C41.1312 7.83333 41.1213 7.81333 41.1012 7.8C41.0812 7.76 41.0513 7.73 41.0112 7.71C40.9712 7.68333 40.9412 7.65333 40.9212 7.62C40.8946 7.52 40.8746 7.46333 40.8612 7.45C40.8479 7.44333 40.8379 7.43 40.8312 7.41C40.7846 7.33 40.7612 7.28 40.7612 7.26C40.7612 7.24667 40.7546 7.23 40.7412 7.21C40.7146 7.15667 40.6779 7.1 40.6312 7.04C40.5779 6.98 40.5246 6.93667 40.4712 6.91C40.4512 6.85667 40.4246 6.80333 40.3912 6.75C40.3646 6.70333 40.3213 6.67 40.2612 6.65C40.2279 6.53667 40.1879 6.43 40.1412 6.33C40.0879 6.22333 40.0213 6.13 39.9412 6.05C39.9412 6.02333 39.9212 5.95 39.8812 5.83C39.8346 5.71667 39.7846 5.59667 39.7312 5.47C39.6779 5.34333 39.6246 5.22667 39.5712 5.12C39.5246 5.02 39.4912 4.96 39.4712 4.94C39.3846 4.94667 39.2946 4.96333 39.2012 4.99C39.1079 5.01667 39.0213 5.05333 38.9412 5.1C38.9012 5.09333 38.8713 5.08 38.8512 5.06C38.8312 5.03333 38.8112 5.01 38.7912 4.99C38.7179 4.91667 38.6812 4.86 38.6812 4.82C38.6812 4.77333 38.7279 4.72333 38.8212 4.67C38.8612 4.61 38.9046 4.58667 38.9512 4.6C38.9912 4.60667 39.0179 4.6 39.0312 4.58C39.0646 4.57333 39.0912 4.56333 39.1112 4.55C39.1312 4.53667 39.1512 4.52667 39.1712 4.52C39.2446 4.5 39.3212 4.49 39.4012 4.49C39.4746 4.49 39.5479 4.48 39.6213 4.46C39.7412 4.40667 39.8312 4.38333 39.8912 4.39C39.9512 4.40333 40.0079 4.4 40.0612 4.38C40.2612 4.31333 40.4212 4.29333 40.5412 4.32C40.6612 4.34 40.7779 4.35333 40.8912 4.36C41.0246 4.36 41.1479 4.34667 41.2612 4.32C41.3746 4.29333 41.4879 4.29 41.6012 4.31C41.6679 4.31667 41.7046 4.30333 41.7113 4.27C41.7246 4.23 41.7546 4.21667 41.8013 4.23C41.8879 4.25 41.9813 4.25333 42.0812 4.24C42.1812 4.23333 42.2812 4.22333 42.3812 4.21C42.4746 4.19667 42.5679 4.18667 42.6612 4.18C42.7612 4.17333 42.8512 4.19 42.9312 4.23ZM40.0112 4.84C40.0246 4.86667 40.0312 4.90333 40.0312 4.95C40.0312 4.99667 40.0412 5.03 40.0612 5.05C40.1079 5.10333 40.1279 5.15 40.1213 5.19C40.1146 5.22333 40.1179 5.25333 40.1312 5.28C40.1846 5.33333 40.2146 5.38 40.2212 5.42C40.2346 5.45333 40.2479 5.49 40.2612 5.53C40.2946 5.60333 40.3312 5.67 40.3713 5.73C40.4113 5.78333 40.4546 5.84333 40.5012 5.91C40.5279 5.98333 40.5479 6.02 40.5612 6.02C40.5746 6.02 40.5846 6.03 40.5912 6.05C40.5846 6.09 40.5946 6.12333 40.6213 6.15C40.6479 6.17 40.6579 6.21 40.6512 6.27C40.7046 6.25667 40.7346 6.26667 40.7412 6.3C40.7412 6.33333 40.7412 6.37333 40.7412 6.42C40.7879 6.42667 40.8146 6.44 40.8212 6.46C40.8279 6.48667 40.8379 6.51667 40.8512 6.55C40.9046 6.60333 40.9379 6.65 40.9512 6.69C40.9579 6.72333 40.9746 6.76 41.0012 6.8C41.0212 6.82667 41.0412 6.85 41.0612 6.87C41.0879 6.88333 41.1112 6.90667 41.1312 6.94C41.1712 6.99333 41.2112 7.04333 41.2512 7.09C41.2846 7.13 41.2946 7.18 41.2812 7.24C41.2946 7.25333 41.3246 7.29 41.3713 7.35C41.4179 7.41 41.4646 7.47333 41.5112 7.54C41.5579 7.61333 41.5979 7.68 41.6312 7.74C41.6579 7.79333 41.6679 7.83 41.6612 7.85C41.7346 7.87 41.7946 7.92333 41.8412 8.01C41.8879 8.09667 41.9312 8.16333 41.9712 8.21C42.0112 8.22333 42.0646 8.28 42.1312 8.38C42.1979 8.47333 42.2379 8.54333 42.2512 8.59C42.3246 8.64333 42.3946 8.71333 42.4613 8.8C42.5279 8.88667 42.5946 8.96667 42.6612 9.04C42.6746 9.06667 42.6846 9.09333 42.6912 9.12C42.6979 9.14667 42.7112 9.17 42.7312 9.19C42.8046 9.21 42.8346 9.23667 42.8212 9.27C42.8146 9.29667 42.8279 9.30667 42.8612 9.3C42.8746 9.23333 42.8679 9.19 42.8412 9.17C42.8079 9.15 42.7779 9.11667 42.7512 9.07C42.7046 8.99 42.6879 8.93 42.7012 8.89C42.7079 8.85667 42.7012 8.82333 42.6812 8.79C42.6546 8.75 42.6213 8.71667 42.5812 8.69C42.5346 8.65667 42.5179 8.60333 42.5312 8.53C42.4512 8.49 42.3979 8.42667 42.3713 8.34C42.3446 8.25333 42.2946 8.18 42.2212 8.12C42.2212 8.06667 42.2113 8.01333 42.1912 7.96C42.1646 7.90667 42.1413 7.85333 42.1213 7.8C42.1079 7.75333 42.0979 7.70333 42.0912 7.65C42.0846 7.59 42.0579 7.54667 42.0112 7.52V7.36C41.9779 7.34 41.9579 7.30667 41.9512 7.26C41.9379 7.22 41.9279 7.18 41.9212 7.14C41.8479 7.09333 41.8013 7.02667 41.7812 6.94C41.7546 6.84667 41.7146 6.76667 41.6612 6.7C41.6412 6.66667 41.6146 6.63333 41.5812 6.6C41.5546 6.56667 41.5312 6.53333 41.5112 6.5L41.4312 6.35C41.4179 6.33667 41.4046 6.30667 41.3912 6.26C41.3779 6.20667 41.3646 6.15333 41.3512 6.1C41.3312 6.04667 41.3146 5.99667 41.3013 5.95C41.2879 5.90333 41.2812 5.87667 41.2812 5.87C41.2546 5.83 41.2346 5.79333 41.2212 5.76C41.2012 5.72 41.1779 5.68667 41.1512 5.66C41.1446 5.55333 41.1246 5.45333 41.0912 5.36C41.0512 5.27333 41.0212 5.18 41.0012 5.08C41.0146 4.98667 41.0079 4.92667 40.9812 4.9C40.9479 4.88 40.9379 4.85333 40.9512 4.82C40.8246 4.83333 40.7046 4.82333 40.5912 4.79C40.4846 4.75 40.3679 4.75 40.2412 4.79C40.1946 4.81 40.1512 4.81667 40.1112 4.81C40.0779 4.80333 40.0446 4.81333 40.0112 4.84Z" fill="black"/>
</svg>
