<svg width="94" height="11" viewBox="0 0 94 11" fill="none" xmlns="http://www.w3.org/2000/svg">
<path d="M0.5 10.83V0.15H2.66V5.68L8.3 0.15H11.08L5.82 5.25L11.08 10.83H8.19L4.26 6.76L2.66 8.29V10.83H0.5ZM11.89 10.83V2.76H13.92V3.93C14.3667 3.59667 14.8367 3.30667 15.33 3.06C15.83 2.82 16.3233 2.63667 16.81 2.51L17.41 4.36C16.63 4.44 15.9467 4.61667 15.36 4.89C14.7667 5.15667 14.2867 5.53667 13.92 6.03V10.83H11.89ZM18.43 6.8C18.43 6.22 18.5467 5.67667 18.78 5.17C19.0133 4.66333 19.35 4.22 19.79 3.84C20.2233 3.46667 20.7467 3.17 21.36 2.95C21.98 2.73 22.6767 2.62 23.45 2.62C24.2167 2.62 24.91 2.73 25.53 2.95C26.1433 3.17 26.67 3.46667 27.11 3.84C27.5433 4.22 27.8767 4.66333 28.11 5.17C28.3433 5.67667 28.46 6.22 28.46 6.8C28.46 7.37333 28.3433 7.91333 28.11 8.42C27.8767 8.92667 27.5433 9.37 27.11 9.75C26.67 10.13 26.1433 10.43 25.53 10.65C24.91 10.8633 24.2167 10.97 23.45 10.97C22.6767 10.97 21.98 10.8633 21.36 10.65C20.7467 10.43 20.2233 10.13 19.79 9.75C19.35 9.37 19.0133 8.92667 18.78 8.42C18.5467 7.91333 18.43 7.37333 18.43 6.8ZM20.55 6.8C20.55 7.12 20.6167 7.42667 20.75 7.72C20.8767 8.00667 21.0667 8.26 21.32 8.48C21.5667 8.7 21.87 8.87667 22.23 9.01C22.5833 9.13667 22.99 9.2 23.45 9.2C23.9033 9.2 24.31 9.13667 24.67 9.01C25.0233 8.87667 25.3267 8.7 25.58 8.48C25.8267 8.26 26.0133 8.00667 26.14 7.72C26.2733 7.42667 26.34 7.12 26.34 6.8C26.34 6.47333 26.2733 6.16333 26.14 5.87C26.0133 5.58333 25.8267 5.32667 25.58 5.1C25.3267 4.88 25.0233 4.70667 24.67 4.58C24.31 4.44667 23.9033 4.38 23.45 4.38C22.99 4.38 22.5833 4.44667 22.23 4.58C21.87 4.70667 21.5667 4.88 21.32 5.1C21.0667 5.32667 20.8767 5.58333 20.75 5.87C20.6167 6.16333 20.55 6.47333 20.55 6.8ZM30.51 10.83V2.76H32.53V3.45C33.07 3.14333 33.5833 2.92667 34.07 2.8C34.5633 2.68 35.0433 2.62 35.51 2.62C36.1233 2.62 36.6933 2.71 37.22 2.89C37.7467 3.07 38.2 3.33667 38.58 3.69C38.96 4.05 39.26 4.49333 39.48 5.02C39.6933 5.55333 39.8 6.17 39.8 6.87V10.83H37.79V7.19C37.79 6.75 37.7267 6.35667 37.6 6.01C37.4733 5.65667 37.2933 5.36333 37.06 5.13C36.8267 4.89 36.5433 4.70667 36.21 4.58C35.87 4.45333 35.4933 4.39 35.08 4.39C34.86 4.39 34.6367 4.41333 34.41 4.46C34.1767 4.50667 33.95 4.57 33.73 4.65C33.51 4.73667 33.2967 4.84333 33.09 4.97C32.8833 5.09667 32.6967 5.24 32.53 5.4V10.83H30.51ZM41.9 8.29C41.9 7.90333 41.9867 7.55 42.16 7.23C42.3267 6.91 42.5767 6.63333 42.91 6.4C43.25 6.17333 43.6733 5.99667 44.18 5.87C44.68 5.74333 45.2667 5.68 45.94 5.68C46.4333 5.68 46.9533 5.71667 47.5 5.79C48.0533 5.86333 48.62 5.97667 49.2 6.13C49.18 5.87 49.1033 5.63333 48.97 5.42C48.8367 5.2 48.6533 5.01333 48.42 4.86C48.1867 4.7 47.9033 4.57667 47.57 4.49C47.2433 4.40333 46.87 4.36 46.45 4.36C46.2233 4.36 45.9733 4.37333 45.7 4.4C45.4267 4.43333 45.1433 4.47667 44.85 4.53C44.5567 4.58333 44.2667 4.65 43.98 4.73C43.7 4.81667 43.4367 4.91667 43.19 5.03L42.57 3.37C42.8767 3.25667 43.2033 3.15333 43.55 3.06C43.9033 2.97333 44.26 2.89667 44.62 2.83C44.9867 2.76333 45.3533 2.71 45.72 2.67C46.08 2.63667 46.4333 2.62 46.78 2.62C48.2867 2.62 49.4067 3.00667 50.14 3.78C50.8733 4.54667 51.24 5.72667 51.24 7.32V10.83H49.22V10.07C49.0067 10.1967 48.7767 10.3133 48.53 10.42C48.2833 10.5267 48.0133 10.6233 47.72 10.71C47.4267 10.79 47.1133 10.8533 46.78 10.9C46.4467 10.9467 46.0933 10.97 45.72 10.97C45.0867 10.97 44.5333 10.9033 44.06 10.77C43.5867 10.63 43.19 10.44 42.87 10.2C42.55 9.96 42.31 9.67667 42.15 9.35C41.9833 9.02333 41.9 8.67 41.9 8.29ZM44.04 8.22C44.04 8.35333 44.0733 8.48 44.14 8.6C44.2067 8.72 44.3167 8.82667 44.47 8.92C44.6167 9.01333 44.8067 9.08667 45.04 9.14C45.28 9.2 45.5667 9.23 45.9 9.23C46.2533 9.23 46.5967 9.19667 46.93 9.13C47.2633 9.07 47.5733 8.98667 47.86 8.88C48.1467 8.77333 48.4067 8.65333 48.64 8.52C48.8667 8.38 49.06 8.24 49.22 8.1V7.74C48.9067 7.65333 48.6 7.58 48.3 7.52C47.9933 7.46 47.7033 7.41333 47.43 7.38C47.1567 7.34667 46.8967 7.32333 46.65 7.31C46.4033 7.29667 46.19 7.29 46.01 7.29C45.63 7.29 45.3167 7.31333 45.07 7.36C44.8167 7.41333 44.6133 7.48333 44.46 7.57C44.3067 7.65 44.1967 7.74667 44.13 7.86C44.07 7.97333 44.04 8.09333 44.04 8.22ZM58.19 5.46C58.19 4.65333 58.3367 3.91333 58.63 3.24C58.9233 2.57333 59.34 2 59.88 1.52C60.4133 1.03333 61.0567 0.66 61.81 0.4C62.5567 0.133333 63.3867 0 64.3 0C65.2067 0 66.0367 0.133333 66.79 0.4C67.5367 0.66 68.18 1.03333 68.72 1.52C69.2533 2 69.6667 2.57333 69.96 3.24C70.26 3.91333 70.41 4.65333 70.41 5.46C70.41 6.26667 70.26 7.01 69.96 7.69C69.6667 8.36333 69.2533 8.94667 68.72 9.44C68.18 9.92667 67.5367 10.3033 66.79 10.57C66.0367 10.8433 65.2067 10.98 64.3 10.98C63.3867 10.98 62.5567 10.8433 61.81 10.57C61.0567 10.3033 60.4133 9.92667 59.88 9.44C59.34 8.94667 58.9233 8.36333 58.63 7.69C58.3367 7.01 58.19 6.26667 58.19 5.46ZM60.35 5.46C60.35 6.00667 60.45 6.50333 60.65 6.95C60.85 7.39 61.1267 7.76667 61.48 8.08C61.8333 8.39333 62.25 8.63333 62.73 8.8C63.21 8.96667 63.7333 9.05 64.3 9.05C64.8667 9.05 65.39 8.96667 65.87 8.8C66.35 8.63333 66.7633 8.39333 67.11 8.08C67.4633 7.76667 67.74 7.39 67.94 6.95C68.14 6.50333 68.24 6.00667 68.24 5.46C68.24 4.90667 68.14 4.41 67.94 3.97C67.74 3.53667 67.4633 3.16667 67.11 2.86C66.7633 2.56 66.35 2.33 65.87 2.17C65.39 2.01 64.8667 1.93 64.3 1.93C63.7333 1.93 63.21 2.01 62.73 2.17C62.25 2.33 61.8333 2.56 61.48 2.86C61.1267 3.16667 60.85 3.53667 60.65 3.97C60.45 4.41 60.35 4.90667 60.35 5.46ZM72.56 10.83V2.76H74.59V3.45C75.1233 3.14333 75.6367 2.92667 76.13 2.8C76.6167 2.68 77.0967 2.62 77.57 2.62C78.1833 2.62 78.75 2.71 79.27 2.89C79.7967 3.07 80.2533 3.33667 80.64 3.69C81.02 4.05 81.3167 4.49333 81.53 5.02C81.75 5.55333 81.86 6.17 81.86 6.87V10.83H79.84V7.19C79.84 6.75 79.7767 6.35667 79.65 6.01C79.53 5.65667 79.35 5.36333 79.11 5.13C78.8767 4.89 78.5933 4.70667 78.26 4.58C77.9267 4.45333 77.5533 4.39 77.14 4.39C76.92 4.39 76.6933 4.41333 76.46 4.46C76.2333 4.50667 76.01 4.57 75.79 4.65C75.5633 4.73667 75.35 4.84333 75.15 4.97C74.9433 5.09667 74.7567 5.24 74.59 5.4V10.83H72.56ZM83.96 6.77C83.96 6.22333 84.07 5.7 84.29 5.2C84.5167 4.7 84.84 4.26 85.26 3.88C85.68 3.49333 86.1933 3.18667 86.8 2.96C87.4067 2.73333 88.0967 2.62 88.87 2.62C89.6433 2.62 90.3367 2.73667 90.95 2.97C91.57 3.19667 92.0967 3.51 92.53 3.91C92.9567 4.31 93.2867 4.78333 93.52 5.33C93.7467 5.87 93.86 6.45 93.86 7.07C93.86 7.15 93.86 7.23333 93.86 7.32C93.86 7.40667 93.8533 7.48667 93.84 7.56H86.21C86.2967 7.8 86.4367 8.02333 86.63 8.23C86.8233 8.43 87.0667 8.60333 87.36 8.75C87.6533 8.89 87.99 9 88.37 9.08C88.7567 9.16 89.1833 9.2 89.65 9.2C90.11 9.2 90.57 9.15333 91.03 9.06C91.49 8.96 91.93 8.83333 92.35 8.68L93.04 10.23C92.7733 10.35 92.5033 10.4567 92.23 10.55C91.9633 10.6433 91.68 10.7233 91.38 10.79C91.0867 10.85 90.78 10.8967 90.46 10.93C90.14 10.9567 89.8033 10.97 89.45 10.97C88.5433 10.97 87.7467 10.8633 87.06 10.65C86.38 10.43 85.81 10.13 85.35 9.75C84.8833 9.37 84.5367 8.92667 84.31 8.42C84.0767 7.90667 83.96 7.35667 83.96 6.77ZM86.21 5.98H91.72C91.6467 5.76 91.5333 5.55333 91.38 5.36C91.2267 5.16667 91.0367 4.99667 90.81 4.85C90.5833 4.71 90.3167 4.59667 90.01 4.51C89.71 4.43 89.38 4.39 89.02 4.39C88.64 4.39 88.2933 4.43333 87.98 4.52C87.6667 4.60667 87.39 4.72333 87.15 4.87C86.91 5.01667 86.7133 5.18333 86.56 5.37C86.4 5.56333 86.2833 5.76667 86.21 5.98Z" fill="black"/>
</svg>
