<svg width="92.722" height="24.906" viewBox="0 0 92.722 24.906" xmlns="http://www.w3.org/2000/svg"><path transform="translate(0 15.918) scale(.014 -.014)" d="M330 40H400V0H20V40H100V760H20V800H400V760H330ZM868 40V0H551L365 381V420L641 760H552V800H798V760H696L421 420H613L798 40Z"/><path transform="translate(12.012 15.918) scale(.014 -.014)" d="M775 40V0H558L488 71L417 0H193L100 93V560H20V600H232L325 507V40H395L465 110V600H602L695 507V40Z"/><path transform="translate(23.142 15.918) scale(.014 -.014)" d="m1155 40v-40h-222l-83 83v477h-70l-70-70v-450h60v-40h-290v560h-70l-70-70v-450h60v-40h-370v40h80v520h-80v40h217l71-70 70 70h229l71-70 70 70h224l93-93v-467z"/><path transform="translate(39.732 15.918) scale(.014 -.014)" d="M143 0H362L423 61L483 0H710V40H630V517L547 600H168L85 517V400H295V560H400V320H143L60 237V83ZM295 280H400V100L340 40H295Z"/><path transform="translate(49.952 15.918) scale(.014 -.014)" d="m580 527-31-31-64 64h-85l-70-70v-450h80v-40h-217l-93 93v467h-80v40h217l71-70 70 70h129z"/><path transform="translate(61.712 15.918) scale(.014 -.014)" d="M153 0H602L705 103V697L602 800H153L50 697V103ZM280 760H475V40H280Z"/><path transform="translate(72.282 15.918) scale(.014 -.014)" d="M780 40V0H553L470 83V560H400L330 490V40H380V0H20V40H100V560H20V600H237L308 530L378 600H607L700 507V40Z"/><path transform="translate(83.482 15.918) scale(.014 -.014)" d="m143 0h389l93 93-31 31-84-84h-230v210h247l93 93v164l-93 93h-384l-93-93v-414zm137 560h110v-270h-110z"/></svg>