<svg width="40" height="11" viewBox="0 0 40 11" fill="none" xmlns="http://www.w3.org/2000/svg">
<path d="M0.66 9.93L0.5 9.5L0.81 9.43C1.13667 9.32333 1.35333 9.2 1.46 9.06C1.56 8.91333 1.61 8.64333 1.61 8.25V2.51C1.61 2.11667 1.55667 1.84333 1.45 1.69C1.34333 1.53667 1.13 1.41667 0.81 1.33L0.5 1.26L0.66 0.83H3.44L3.61 1.03L3.44 1.26C3.22667 1.53333 3.08 1.82667 3 2.14C2.91333 2.45333 2.87 2.86 2.87 3.36V8.33C2.87 8.69667 2.92 8.95333 3.02 9.1C3.12667 9.24 3.33333 9.35667 3.64 9.45L3.89 9.52L3.78 9.93H0.66ZM7.08 10.11C6.7 10.11 6.38333 10.0067 6.13 9.8C5.87 9.6 5.62667 9.29 5.4 8.87L3.88 6.12C3.79333 5.96 3.70667 5.84333 3.62 5.77C3.53333 5.69667 3.4 5.62333 3.22 5.55C3.19333 5.53 3.18 5.48333 3.18 5.41C3.18 5.20333 3.26333 5.1 3.43 5.1H3.72L5.46 2.55C5.56 2.37667 5.62667 2.24 5.66 2.14C5.69333 2.04 5.71 1.93333 5.71 1.82C5.71 1.71333 5.68333 1.6 5.63 1.48C5.58333 1.36667 5.55333 1.29333 5.54 1.26L5.45 1.03L5.67 0.83H7.98L8.13 1.26L7.84 1.33C7.63333 1.37667 7.45333 1.45 7.3 1.55C7.14667 1.65 6.99667 1.80667 6.85 2.02L4.56 5.32C4.93333 5.49333 5.23 5.76667 5.45 6.14L7.06 9.03C7.16 9.18333 7.24 9.28333 7.3 9.33C7.36 9.38333 7.44333 9.41 7.55 9.41C7.72333 9.41 7.88667 9.35 8.04 9.23L8.25 9.61C7.91 9.94333 7.52 10.11 7.08 10.11ZM11.7 10.11C11.0933 10.11 10.6233 9.92667 10.29 9.56C9.95667 9.19333 9.79 8.67667 9.79 8.01V4.85C9.79 4.64333 9.70333 4.54 9.53 4.54H8.96L8.86 4.23C9.07333 4.01 9.33667 3.83 9.65 3.69C9.96333 3.55 10.25 3.48 10.51 3.48C10.6367 3.48 10.74 3.51333 10.82 3.58C10.8933 3.65333 10.93 3.74333 10.93 3.85V7.7C10.93 8.20667 11.0333 8.59333 11.24 8.86C11.4467 9.12667 11.75 9.26 12.15 9.26C12.7233 9.26 13.1667 9.01333 13.48 8.52C13.8 8.03333 13.96 7.35667 13.96 6.49C13.96 5.87 13.9233 5.38667 13.85 5.04C13.7833 4.68667 13.65 4.34333 13.45 4.01L13.3 3.81L13.45 3.63L15.02 3.48V8.81C15.02 9.07 15.1333 9.2 15.36 9.2C15.5733 9.2 15.7833 9.12667 15.99 8.98L16.24 9.3C16.0333 9.54 15.8033 9.73667 15.55 9.89C15.29 10.0367 15.05 10.11 14.83 10.11C14.49 10.11 14.2467 10.01 14.1 9.81C13.9467 9.61 13.87 9.3 13.87 8.88C13.67 9.26 13.3767 9.56 12.99 9.78C12.61 10 12.18 10.11 11.7 10.11ZM17.25 9.93L17.12 9.54L17.36 9.47C17.5867 9.43 17.7333 9.34333 17.8 9.21C17.8733 9.07667 17.91 8.84667 17.91 8.52V4.96C17.91 4.86 17.89 4.78667 17.85 4.74C17.81 4.7 17.7433 4.68 17.65 4.68H17.11L16.98 4.34C17.2267 4.12 17.5067 3.94 17.82 3.8C18.14 3.66 18.42 3.59 18.66 3.59C18.78 3.59 18.88 3.62667 18.96 3.7C19.0333 3.77333 19.07 3.86667 19.07 3.98V5.37H19.14C19.2867 4.79667 19.5133 4.33667 19.82 3.99C20.12 3.65 20.4467 3.48 20.8 3.48C21.16 3.48 21.4533 3.59333 21.68 3.82C21.9067 4.04667 22.02 4.36 22.02 4.76C22.02 5.08 21.9033 5.34667 21.67 5.56C21.4367 5.77333 21.1433 5.88 20.79 5.88C20.6233 5.88 20.54 5.84 20.54 5.76C20.54 5.73333 20.5733 5.66667 20.64 5.56C20.7 5.46 20.7533 5.35667 20.8 5.25C20.8467 5.15 20.87 5.03 20.87 4.89C20.87 4.73 20.8333 4.60667 20.76 4.52C20.6867 4.43333 20.59 4.39 20.47 4.39C20.27 4.39 20.0633 4.51 19.85 4.75C19.6367 4.99 19.4533 5.37667 19.3 5.91C19.1467 6.44333 19.07 7.12 19.07 7.94C19.07 8.32667 19.1 8.63667 19.16 8.87C19.22 9.11 19.3233 9.33333 19.47 9.54L19.63 9.73L19.47 9.93H17.25ZM24.88 10.11C24.4667 10.11 24.0867 9.99 23.74 9.75C23.3867 9.51667 23.1067 9.17 22.9 8.71C22.6867 8.24333 22.58 7.68 22.58 7.02C22.58 5.92667 22.8767 5.06333 23.47 4.43C24.0633 3.79667 24.8633 3.48 25.87 3.48C26.21 3.48 26.6667 3.53 27.24 3.63C27.6733 3.70333 28.0633 3.75333 28.41 3.78L28.57 3.94L28.39 4.18C28.3233 4.28667 28.28 4.37 28.26 4.43C28.2333 4.49667 28.22 4.58 28.22 4.68V8.81C28.22 9.07 28.3567 9.2 28.63 9.2C28.8367 9.2 29.0467 9.12667 29.26 8.98L29.5 9.3C29.2733 9.55333 29.0333 9.75 28.78 9.89C28.5333 10.0367 28.3067 10.11 28.1 10.11C27.7467 10.11 27.49 10.0067 27.33 9.8C27.17 9.58667 27.09 9.24333 27.09 8.77C26.7567 9.26333 26.41 9.61 26.05 9.81C25.69 10.01 25.3 10.11 24.88 10.11ZM25.37 9.12C26.0767 9.12 26.65 8.73667 27.09 7.97V4.54C26.7233 4.3 26.3133 4.18 25.86 4.18C25.2533 4.18 24.78 4.40667 24.44 4.86C24.1 5.30667 23.93 5.94667 23.93 6.78C23.93 7.58 24.0667 8.17 24.34 8.55C24.6133 8.93 24.9567 9.12 25.37 9.12ZM31.89 10.11C31.5367 10.11 31.2833 10.0067 31.13 9.8C30.9767 9.58667 30.9 9.24333 30.9 8.77V1.38C30.9 1.27333 30.88 1.2 30.84 1.16C30.8067 1.12 30.7433 1.1 30.65 1.1H30.1L29.97 0.77C30.2167 0.55 30.4967 0.366666 30.81 0.22C31.13 0.0733331 31.4167 0 31.67 0C31.79 0 31.8867 0.0399999 31.96 0.12C32.0333 0.193333 32.07 0.29 32.07 0.41L32.05 8.81C32.05 8.95 32.08 9.05667 32.14 9.13C32.2067 9.20333 32.3 9.24 32.42 9.24C32.6533 9.24 32.8633 9.15333 33.05 8.98L33.31 9.3C33.09 9.54 32.85 9.73667 32.59 9.89C32.33 10.0367 32.0967 10.11 31.89 10.11ZM36.96 10.11C36.3733 10.11 35.86 9.97667 35.42 9.71C34.98 9.43667 34.64 9.05333 34.4 8.56C34.1533 8.07333 34.03 7.50667 34.03 6.86C34.03 6.19333 34.1667 5.60333 34.44 5.09C34.7133 4.57667 35.1 4.18 35.6 3.9C36.0933 3.62 36.6667 3.48 37.32 3.48C38.0133 3.48 38.55 3.66 38.93 4.02C39.3033 4.38667 39.49 4.82667 39.49 5.34C39.49 5.69333 39.3967 6.03333 39.21 6.36C39.0167 6.68667 38.7367 6.95333 38.37 7.16C37.9967 7.36667 37.5633 7.47 37.07 7.47C36.79 7.47 36.4867 7.42 36.16 7.32C35.8333 7.22 35.67 7.07333 35.67 6.88C35.67 6.80667 35.69 6.74 35.73 6.68C35.7633 6.62667 35.8033 6.6 35.85 6.6C35.8833 6.6 35.97 6.62667 36.11 6.68C36.2567 6.72667 36.4467 6.75 36.68 6.75C37.1933 6.75 37.59 6.61 37.87 6.33C38.15 6.05 38.29 5.71333 38.29 5.32C38.29 4.98667 38.18 4.7 37.96 4.46C37.74 4.21333 37.45 4.09 37.09 4.09C36.5367 4.09 36.11 4.33 35.81 4.81C35.5033 5.29 35.35 5.97333 35.35 6.86C35.35 7.62 35.51 8.21333 35.83 8.64C36.1567 9.06 36.6233 9.27 37.23 9.27C37.9767 9.27 38.59 9.02667 39.07 8.54C39.1033 8.51333 39.1433 8.5 39.19 8.5C39.2633 8.5 39.34 8.53667 39.42 8.61C39.5 8.69 39.54 8.77 39.54 8.85C39.54 8.87667 39.53 8.90333 39.51 8.93C39.49 8.95 39.48 8.96667 39.48 8.98C39.16 9.35333 38.7833 9.63333 38.35 9.82C37.9167 10.0133 37.4533 10.11 36.96 10.11Z" fill="black"/>
</svg>
