<svg width="91.798" height="12.88" viewBox="0 0 91.798 12.88" xmlns="http://www.w3.org/2000/svg"><path transform="translate(0 9.8) scale(.007 -.007)" d="M110 1320H281V155H800V0H110Z"/><path transform="translate(6.419 9.8) scale(.007 -.007)" d="m214 375q1-74 32-135t92.5-97 151.5-36q76 0 129.5 22.5t87.5 54 49 56.5l85-105q-33-48-80.5-84t-115.5-55.5-166-19.5q-132 0-228.5 56.5t-148.5 157-52 230.5q0 120 49 216.5t142.5 152.5 225.5 56q121 0 210.5-50.5t139-142.5 49.5-220q0-8-1-28.5t-2-28.5zm486 131q-1 41-23.5 90t-72.5 84-135 35q-88 0-141.5-34t-78.5-82.5-29-92.5z"/><path transform="translate(13.09 9.8) scale(.007 -.007)" d="m765 0v160q-8-25-46.5-69t-105-79.5-156.5-35.5q-114 0-206.5 54t-147 151.5-54.5 228.5 54.5 228.5 147 152 206.5 54.5q89 0 154.5-32t105-74 46.5-72v154h172v-821zm-544 410q0-89 39-154t101.5-100.5 133.5-35.5q76 0 136 36t95 101.5 35 152.5-35 152.5-95 102-136 36.5q-71 0-133.5-36t-101.5-101-39-154z"/><path transform="translate(20.531 9.8) scale(.007 -.007)" d="m497-439q-97 0-175.5 20t-137 56.5-93.5 85.5l114 109q19-26 51.5-55.5t88.5-50.5 146-21q88 0 149 37.5t93 101.5 32 144v27h170v-38q0-136-58.5-228.5t-157.5-140-222-47.5zm268 439v160q-8-25-46.5-69t-105-79.5-156.5-35.5q-114 0-206.5 54t-147 151.5-54.5 228.5 54.5 228.5 147 152 206.5 54.5q89 0 154.5-32t105-74 46.5-72v154h172v-821zm-544 410q0-89 39-154t101.5-100.5 133.5-35.5q76 0 136 36t95 101.5 35 152.5-35 152.5-95 102-136 36.5q-71 0-133.5-36t-101.5-101-39-154z"/><path transform="translate(28.021 9.8) scale(.007 -.007)" d="m268 407q0-129 55.5-205.5t170.5-76.5q116 0 171 76.5t55 205.5v414h172v-438q0-120-46.5-212t-135-143.5-216.5-51.5q-127 0-215.5 51.5t-135 143.5-46.5 212v438h171z"/><path transform="translate(35.182 9.8) scale(.007 -.007)" d="m214 375q1-74 32-135t92.5-97 151.5-36q76 0 129.5 22.5t87.5 54 49 56.5l85-105q-33-48-80.5-84t-115.5-55.5-166-19.5q-132 0-228.5 56.5t-148.5 157-52 230.5q0 120 49 216.5t142.5 152.5 225.5 56q121 0 210.5-50.5t139-142.5 49.5-220q0-8-1-28.5t-2-28.5zm486 131q-1 41-23.5 90t-72.5 84-135 35q-88 0-141.5-34t-78.5-82.5-29-92.5z"/><path transform="translate(45.346 9.8) scale(.007 -.007)" d="m521 1344q114 0 196.5-26t130-55 56.5-38l-88-141q-15 13-53 37.5t-95 44-130 19.5q-113 0-178.5-45.5t-65.5-128.5q0-56 34.5-98.5t97.5-77.5 147-72q69-29 135.5-66t121-87 87-116 32.5-152q0-85-34.5-153t-97-115.5-145.5-72.5-179-25q-121 0-218.5 30t-157 63-68.5 41l93 147q12-10 44-29.5t79-40.5 106-35.5 126-14.5q134 0 203 60t69 154q0 72-44 124t-117 93-161 79q-90 41-165 90t-120.5 117.5-45.5 165.5q0 96 54.5 169t147 114 203.5 41z"/><path transform="translate(52.738 9.8) scale(.007 -.007)" d="m281-416h-173v1237h176v-154q9 31 50 73t110.5 73.5 159.5 31.5q114 0 202.5-54.5t139-152 50.5-228.5-52-228.5-141.5-151.5-204.5-54q-93 0-162.5 35t-109 79-45.5 70zm543 826q0 89-36.5 154t-96.5 101-130 36q-77 0-140-36.5t-100-102-37-152.5 37-152.5 100-101.5 140-36q70 0 130 35.5t96.5 100.5 36.5 154z"/><path transform="translate(60.242 9.8) scale(.007 -.007)" d="m765 0v160q-8-25-46.5-69t-105-79.5-156.5-35.5q-114 0-206.5 54t-147 151.5-54.5 228.5 54.5 228.5 147 152 206.5 54.5q89 0 154.5-32t105-74 46.5-72v154h172v-821zm-544 410q0-89 39-154t101.5-100.5 133.5-35.5q76 0 136 36t95 101.5 35 152.5-35 152.5-95 102-136 36.5q-71 0-133.5-36t-101.5-101-39-154z"/><path transform="translate(67.683 9.8) scale(.007 -.007)" d="m276 0h-173v821h173v-142h-5q5 26 37 65t88 70 134 31q57 0 100.5-15.5t61.5-30.5l-71-144q-14 14-49 28.5t-87 14.5q-66 0-113-41t-71.5-98.5-24.5-106.5z"/><path transform="translate(72.583 9.8) scale(.007 -.007)" d="m35 821h161v337h173v-337h211v-149h-211v-406q0-72 25.5-106t68.5-34q38 0 59 14t25 19l69-128q-6-5-32-19t-67-25-96-11q-96 0-160.5 58.5t-64.5 185.5v452h-161z"/><path transform="translate(77.217 9.8) scale(.007 -.007)" d="m765 0v160q-8-25-46.5-69t-105-79.5-156.5-35.5q-114 0-206.5 54t-147 151.5-54.5 228.5 54.5 228.5 147 152 206.5 54.5q89 0 154.5-32t105-74 46.5-72v154h172v-821zm-544 410q0-89 39-154t101.5-100.5 133.5-35.5q76 0 136 36t95 101.5 35 152.5-35 152.5-95 102-136 36.5q-71 0-133.5-36t-101.5-101-39-154z"/><path transform="translate(84.658 9.8) scale(.007 -.007)" d="m564 845q81 0 157.5-34t126-107.5 49.5-191.5v-512h-176v478q0 122-57 177.5t-147 55.5q-59 0-113.5-33.5t-89.5-92-35-132.5v-453h-174v821h174v-146q9 34 49 74t102 68 134 28z"/></svg>