<svg width="87" height="16" viewBox="0 0 87 16" fill="none" xmlns="http://www.w3.org/2000/svg">
<path d="M5.31 11.55C5.05 11.4033 4.82 11.2567 4.62 11.11C4.42667 10.9633 4.25 10.8133 4.09 10.66C3.93 10.5133 3.78667 10.3667 3.66 10.22C3.53333 10.0733 3.41333 9.93667 3.3 9.81C3.08 9.97667 2.84 10.1067 2.58 10.2C2.32 10.2867 2.07333 10.33 1.84 10.33C1.69333 10.33 1.54 10.3133 1.38 10.28C1.22667 10.2467 1.08333 10.1967 0.95 10.13C0.816667 10.0567 0.71 9.96667 0.63 9.86C0.543333 9.74667 0.5 9.62 0.5 9.48C0.5 9.33333 0.53 9.21 0.59 9.11C0.643333 9.01 0.716667 8.92667 0.81 8.86C0.903333 8.79333 1.00333 8.74333 1.11 8.71C1.22333 8.67667 1.33667 8.66 1.45 8.66C1.84333 8.67333 2.18333 8.76667 2.47 8.94C2.76333 9.10667 3.04667 9.32667 3.32 9.6C3.78 9.26667 4.24667 8.84 4.72 8.32C5.19333 7.79333 5.69667 7.17 6.23 6.45C6.53 6.05 6.81667 5.65 7.09 5.25C7.37 4.85 7.64333 4.46667 7.91 4.1C8.18333 3.72667 8.45667 3.38 8.73 3.06C9.01 2.74 9.29667 2.45667 9.59 2.21C9.39 2.14333 9.16667 2.07667 8.92 2.01C8.68 1.93667 8.45667 1.9 8.25 1.9C8.07 1.9 7.90667 1.91667 7.76 1.95C7.61333 1.97667 7.48667 2.01 7.38 2.05C7.27333 2.08333 7.18667 2.11667 7.12 2.15C7.06 2.17667 7.02667 2.19 7.02 2.19C6.99333 2.20333 6.97667 2.21 6.97 2.21C6.94333 2.21 6.92333 2.2 6.91 2.18C6.89667 2.16667 6.89 2.15 6.89 2.13C6.89 2.09 6.90333 2.06667 6.93 2.06C6.93 2.06 6.96333 2.04333 7.03 2.01C7.09667 1.97667 7.18667 1.94 7.3 1.9C7.41333 1.86 7.55 1.82333 7.71 1.79C7.87667 1.75667 8.05667 1.74 8.25 1.74C8.36333 1.74 8.48333 1.75 8.61 1.77C8.73667 1.79 8.86667 1.81667 9 1.85C9.13333 1.88333 9.26333 1.92333 9.39 1.97C9.51667 2.01 9.63333 2.05 9.74 2.09C10.0267 1.87 10.3367 1.69 10.67 1.55C11.0033 1.41 11.36 1.34 11.74 1.34C11.9333 1.34 12.1067 1.39333 12.26 1.5C12.4133 1.60667 12.49 1.76333 12.49 1.97C12.49 2.05667 12.4733 2.14333 12.44 2.23C12.4 2.32333 12.34 2.40667 12.26 2.48C12.18 2.54667 12.0767 2.60333 11.95 2.65C11.8233 2.69667 11.6667 2.72 11.48 2.72C11.32 2.72 11.17 2.71 11.03 2.69C10.8967 2.66333 10.7633 2.63 10.63 2.59C10.4967 2.55 10.36 2.50333 10.22 2.45C10.08 2.39667 9.93 2.33667 9.77 2.27C9.47 2.51 9.18 2.79 8.9 3.11C8.62 3.43 8.34333 3.77667 8.07 4.15C7.79667 4.52333 7.52 4.91333 7.24 5.32C6.96 5.72667 6.66667 6.13667 6.36 6.55C5.82667 7.27 5.32 7.89667 4.84 8.43C4.36 8.96333 3.89 9.39333 3.43 9.72C3.56333 9.84667 3.69 9.98 3.81 10.12C3.93667 10.26 4.07667 10.4033 4.23 10.55C4.38333 10.69 4.55 10.8333 4.73 10.98C4.91667 11.1267 5.13667 11.27 5.39 11.41C5.69667 11.5767 5.98667 11.7 6.26 11.78C6.53333 11.8533 6.78667 11.89 7.02 11.89C7.15333 11.89 7.28667 11.8767 7.42 11.85C7.56 11.8167 7.68333 11.7633 7.79 11.69C7.90333 11.6233 7.99333 11.5367 8.06 11.43C8.12667 11.3167 8.16 11.18 8.16 11.02C8.16 10.8933 8.14 10.78 8.1 10.68C8.05333 10.58 8 10.4933 7.94 10.42C7.88 10.3467 7.83 10.29 7.79 10.25C7.74333 10.21 7.72 10.1867 7.72 10.18C7.72 10.12 7.74667 10.09 7.8 10.09C7.81333 10.0833 7.83 10.0867 7.85 10.1C7.87667 10.1133 7.91 10.14 7.95 10.18C7.98333 10.2133 8.03 10.2733 8.09 10.36C8.25 10.5867 8.33 10.8067 8.33 11.02C8.33 11.2267 8.28667 11.3933 8.2 11.52C8.10667 11.6533 7.99333 11.76 7.86 11.84C7.72667 11.9133 7.58667 11.9667 7.44 12C7.28667 12.0333 7.14667 12.05 7.02 12.05C6.76667 12.05 6.49667 12.0133 6.21 11.94C5.92333 11.86 5.62333 11.73 5.31 11.55ZM0.66 9.48C0.68 9.62 0.73 9.73333 0.81 9.82C0.896667 9.90667 0.996667 9.97667 1.11 10.03C1.22333 10.0767 1.34667 10.1133 1.48 10.14C1.61333 10.16 1.73333 10.17 1.84 10.17C2.05333 10.17 2.27333 10.13 2.5 10.05C2.72667 9.96333 2.95667 9.84333 3.19 9.69C2.93667 9.43667 2.67 9.23 2.39 9.07C2.11 8.91 1.79667 8.83 1.45 8.83C1.23667 8.83 1.05333 8.88667 0.9 9C0.74 9.11333 0.66 9.27333 0.66 9.48ZM10.41 2.34C10.5767 2.40667 10.7433 2.46 10.91 2.5C11.07 2.54 11.25 2.56 11.45 2.56C11.5633 2.56 11.6733 2.55 11.78 2.53C11.8867 2.50333 11.98 2.46667 12.06 2.42C12.14 2.37333 12.2067 2.31333 12.26 2.24C12.3067 2.17333 12.33 2.08667 12.33 1.98C12.33 1.88667 12.31 1.81 12.27 1.75C12.23 1.69 12.18 1.64 12.12 1.6C12.0533 1.56667 11.9833 1.54 11.91 1.52C11.8367 1.50667 11.77 1.5 11.71 1.5C11.37 1.51333 11.0567 1.57667 10.77 1.69C10.4833 1.80333 10.2 1.96 9.92 2.16C10.0133 2.19333 10.1 2.22333 10.18 2.25C10.26 2.27667 10.3367 2.30667 10.41 2.34ZM8.36 9.72C8.14667 9.60667 7.99333 9.45667 7.9 9.27C7.81333 9.07667 7.77 8.87 7.77 8.65C7.77 8.47 7.79333 8.28667 7.84 8.1C7.88667 7.91333 7.95 7.73333 8.03 7.56C8.11 7.38667 8.19667 7.22333 8.29 7.07C8.39 6.92333 8.49 6.79667 8.59 6.69C8.49667 6.63667 8.42667 6.6 8.38 6.58C8.33333 6.55333 8.30333 6.53333 8.29 6.52C8.27667 6.5 8.27333 6.49 8.28 6.49C8.28 6.48333 8.28 6.47333 8.28 6.46C8.28 6.40667 8.31 6.38 8.37 6.38C8.39 6.38 8.39667 6.37667 8.39 6.37C8.38333 6.37 8.38333 6.37333 8.39 6.38C8.39667 6.38667 8.42 6.40333 8.46 6.43C8.5 6.45667 8.58333 6.5 8.71 6.56C9.22333 6.01333 9.75667 5.58 10.31 5.26C10.87 4.93333 11.4067 4.77 11.92 4.77C12.0933 4.77 12.2633 4.79667 12.43 4.85C12.5967 4.89667 12.7433 4.96333 12.87 5.05C12.9967 5.13667 13.0967 5.24333 13.17 5.37C13.25 5.49667 13.29 5.63333 13.29 5.78C13.29 6.04 13.21 6.26667 13.05 6.46C12.8967 6.65333 12.7067 6.81333 12.48 6.94C12.2533 7.06667 12.01 7.16333 11.75 7.23C11.4833 7.29 11.2433 7.32 11.03 7.32C10.7633 7.32 10.5067 7.3 10.26 7.26C10.02 7.21333 9.8 7.16 9.6 7.1C9.4 7.04 9.23 6.98 9.09 6.92C8.94333 6.85333 8.83 6.80333 8.75 6.77C8.65667 6.85667 8.56333 6.97 8.47 7.11C8.37 7.25 8.28333 7.40667 8.21 7.58C8.13 7.74667 8.06333 7.92 8.01 8.1C7.96333 8.28667 7.94 8.47 7.94 8.65C7.94 8.99667 8.06 9.27333 8.3 9.48C8.54 9.68667 8.91 9.79 9.41 9.79C9.61 9.79 9.81 9.77333 10.01 9.74C10.21 9.71333 10.4 9.68 10.58 9.64C10.76 9.6 10.9233 9.56 11.07 9.52C11.2167 9.47333 11.3367 9.43 11.43 9.39C11.67 9.29667 11.9067 9.19333 12.14 9.08C12.3733 8.96667 12.61 8.84 12.85 8.7C13.09 8.56 13.34 8.39667 13.6 8.21C13.8533 8.03 14.1267 7.81333 14.42 7.56C14.44 7.54667 14.4567 7.54 14.47 7.54C14.49 7.54 14.51 7.54667 14.53 7.56C14.5433 7.57333 14.55 7.59667 14.55 7.63C14.55 7.65 14.5433 7.67 14.53 7.69C14.23 7.94333 13.95 8.16333 13.69 8.35C13.43 8.53667 13.1767 8.7 12.93 8.84C12.69 8.98667 12.45 9.11333 12.21 9.22C11.9767 9.32667 11.7333 9.43333 11.48 9.54C11.3467 9.58667 11.2 9.63667 11.04 9.69C10.8733 9.73667 10.7 9.77667 10.52 9.81C10.34 9.85 10.1567 9.88 9.97 9.9C9.78333 9.92667 9.59667 9.94 9.41 9.94C9.21667 9.94 9.03 9.92333 8.85 9.89C8.66333 9.85667 8.5 9.8 8.36 9.72ZM8.86 6.64L9.1 6.75C9.2 6.79 9.31667 6.83667 9.45 6.89C9.59 6.93667 9.74333 6.98 9.91 7.02C10.07 7.06 10.2433 7.09333 10.43 7.12C10.6233 7.14667 10.8167 7.16 11.01 7.16C11.2567 7.16 11.5067 7.12333 11.76 7.05C12.0067 6.97667 12.23 6.88 12.43 6.76C12.63 6.64 12.7933 6.49667 12.92 6.33C13.0467 6.16333 13.11 5.98667 13.11 5.8C13.11 5.67333 13.08 5.55667 13.02 5.45C12.9533 5.34333 12.8667 5.25 12.76 5.17C12.6467 5.09 12.52 5.03 12.38 4.99C12.24 4.95 12.0933 4.93 11.94 4.93C11.7467 4.93 11.5333 4.95667 11.3 5.01C11.0733 5.06333 10.8333 5.15667 10.58 5.29C10.32 5.41667 10.0467 5.59 9.76 5.81C9.46667 6.03 9.16667 6.30667 8.86 6.64ZM22.49 7.79C22.5033 7.81667 22.51 7.83667 22.51 7.85C22.51 7.86333 22.5033 7.88333 22.49 7.91C22.27 8.11 22.0167 8.32333 21.73 8.55C21.4433 8.78333 21.14 9 20.82 9.2C20.5 9.39333 20.1733 9.55667 19.84 9.69C19.5067 9.82333 19.1833 9.89 18.87 9.89C18.7767 9.89 18.6733 9.88 18.56 9.86C18.4467 9.84667 18.34 9.81667 18.24 9.77C18.14 9.72333 18.0567 9.66 17.99 9.58C17.9233 9.50667 17.89 9.40667 17.89 9.28C17.89 9.1 18 8.87667 18.22 8.61C17.6867 9.04333 17.19 9.38333 16.73 9.63C16.27 9.87667 15.85 10 15.47 10C15.27 10 15.08 9.97 14.9 9.91C14.7267 9.85 14.57 9.76333 14.43 9.65C14.2967 9.53667 14.19 9.39667 14.11 9.23C14.03 9.06333 13.99 8.87333 13.99 8.66C13.99 8.04667 14.42 7.37333 15.28 6.64C15.8667 6.14667 16.46 5.76667 17.06 5.5C17.6533 5.22667 18.22 5.09 18.76 5.09C19.0133 5.09 19.2433 5.12 19.45 5.18C19.4633 5.18 19.51 5.19667 19.59 5.23C19.67 5.25667 19.7567 5.30667 19.85 5.38C19.95 5.44667 20.0367 5.53667 20.11 5.65C20.1833 5.76333 20.22 5.90667 20.22 6.08C20.22 6.49333 19.9533 6.98 19.42 7.54C19.64 7.39333 19.85 7.25333 20.05 7.12C20.2567 6.98 20.4367 6.86 20.59 6.76C20.7433 6.65333 20.87 6.57 20.97 6.51C21.07 6.45 21.1233 6.42 21.13 6.42C21.1367 6.41333 21.15 6.41 21.17 6.41C21.2233 6.41 21.25 6.43667 21.25 6.49C21.25 6.51 21.22 6.54 21.16 6.58C21.0933 6.62 20.9933 6.68 20.86 6.76C20.72 6.84667 20.5467 6.96 20.34 7.1C20.1267 7.24 19.8767 7.41333 19.59 7.62C19.0833 7.98667 18.7 8.31333 18.44 8.6C18.18 8.88667 18.05 9.11667 18.05 9.29C18.05 9.37667 18.08 9.45 18.14 9.51C18.2 9.56333 18.27 9.60667 18.35 9.64C18.43 9.67333 18.5167 9.69333 18.61 9.7C18.7033 9.71333 18.7867 9.72 18.86 9.72C19.1333 9.72 19.42 9.66333 19.72 9.55C20.02 9.43667 20.3233 9.29 20.63 9.11C20.9367 8.93 21.24 8.72333 21.54 8.49C21.8333 8.25667 22.11 8.02 22.37 7.78C22.3967 7.76667 22.4167 7.76 22.43 7.76C22.4567 7.76 22.4767 7.77 22.49 7.79ZM15.47 9.84C15.7233 9.84 15.9833 9.78667 16.25 9.68C16.5167 9.57333 16.7833 9.43667 17.05 9.27C17.31 9.09667 17.57 8.91 17.83 8.71C18.0833 8.51 18.3267 8.31333 18.56 8.12C18.86 7.86667 19.1067 7.63667 19.3 7.43C19.4933 7.22333 19.65 7.03667 19.77 6.87C19.8833 6.69667 19.96 6.54667 20 6.42C20.0467 6.28667 20.07 6.17333 20.07 6.08C20.07 5.94 20.0367 5.82 19.97 5.72C19.9033 5.62667 19.8267 5.55333 19.74 5.5C19.66 5.44 19.5867 5.39667 19.52 5.37C19.4467 5.35 19.4067 5.34 19.4 5.34C19.2 5.28667 18.9867 5.26 18.76 5.26C18.24 5.26 17.6933 5.39 17.12 5.65C16.54 5.91667 15.9633 6.29 15.39 6.77C14.5633 7.47 14.15 8.1 14.15 8.66C14.15 8.84667 14.1867 9.01333 14.26 9.16C14.3267 9.30667 14.42 9.43 14.54 9.53C14.66 9.63 14.8 9.70667 14.96 9.76C15.12 9.81333 15.29 9.84 15.47 9.84ZM29.32 7.88C29.3333 7.90667 29.34 7.92333 29.34 7.93C29.34 7.95 29.3267 7.97333 29.3 8C29.2933 8 29.2133 8.06 29.06 8.18C28.9 8.3 28.6867 8.45 28.42 8.63C28.1533 8.81 27.84 9 27.48 9.2C27.1267 9.39333 26.75 9.56333 26.35 9.71C26.1633 9.77667 25.9733 9.85667 25.78 9.95C25.5867 10.0433 25.4 10.1333 25.22 10.22C24.8867 10.6933 24.5433 11.16 24.19 11.62C23.8433 12.08 23.5033 12.51 23.17 12.91C22.8367 13.3033 22.52 13.66 22.22 13.98C21.92 14.2933 21.66 14.5467 21.44 14.74C21.4333 14.7467 21.3933 14.78 21.32 14.84C21.2467 14.9 21.1533 14.9633 21.04 15.03C20.9333 15.0967 20.8133 15.1567 20.68 15.21C20.5467 15.2633 20.4167 15.29 20.29 15.29C20.2167 15.29 20.1433 15.28 20.07 15.26C20.0033 15.24 19.94 15.2067 19.88 15.16C19.82 15.1133 19.77 15.0567 19.73 14.99C19.6967 14.9167 19.68 14.8333 19.68 14.74C19.68 14.5467 19.76 14.3267 19.92 14.08C20.08 13.8267 20.2967 13.5633 20.57 13.29C20.8367 13.0167 21.15 12.7367 21.51 12.45C21.8767 12.1633 22.26 11.88 22.66 11.6C23.06 11.32 23.47 11.0533 23.89 10.8C24.3167 10.54 24.7233 10.3067 25.11 10.1C25.2633 9.88 25.4133 9.66667 25.56 9.46C25.7067 9.25333 25.8733 9.04667 26.06 8.84C25.5467 9.22 25.09 9.51333 24.69 9.72C24.2967 9.92667 23.9167 10.03 23.55 10.03C23.3567 10.03 23.17 10 22.99 9.94C22.81 9.87333 22.6533 9.78 22.52 9.66C22.3867 9.54 22.28 9.4 22.2 9.24C22.12 9.07333 22.08 8.88667 22.08 8.68C22.08 8.06667 22.51 7.39667 23.37 6.67C23.9767 6.15 24.57 5.76 25.15 5.5C25.7233 5.24 26.2733 5.11 26.8 5.11C26.94 5.11 27.0967 5.12333 27.27 5.15C27.4433 5.17 27.61 5.21667 27.77 5.29C27.9233 5.36333 28.0533 5.46667 28.16 5.6C28.2667 5.72667 28.32 5.89333 28.32 6.1C28.32 6.48 28.1 6.91667 27.66 7.41C27.88 7.26333 28.1 7.11667 28.32 6.97C28.54 6.83 28.7767 6.7 29.03 6.58C29.0367 6.58 29.04 6.57667 29.04 6.57C29.0467 6.57 29.0533 6.57 29.06 6.57C29.08 6.57 29.1 6.57667 29.12 6.59C29.14 6.60333 29.15 6.62333 29.15 6.65C29.15 6.68333 29.1333 6.71 29.1 6.73C29.1133 6.73 29.0633 6.75667 28.95 6.81C28.8367 6.86333 28.6833 6.94333 28.49 7.05C28.3033 7.15667 28.08 7.29333 27.82 7.46C27.5667 7.63333 27.3033 7.84 27.03 8.08C26.75 8.32 26.4733 8.59333 26.2 8.9C25.92 9.20667 25.66 9.55333 25.42 9.94C25.5667 9.87333 25.7133 9.80667 25.86 9.74C26 9.68 26.14 9.62333 26.28 9.57C26.52 9.48333 26.76 9.38 27 9.26C27.2333 9.14 27.4567 9.02 27.67 8.9C27.89 8.77333 28.0933 8.65 28.28 8.53C28.46 8.41 28.62 8.3 28.76 8.2C28.8933 8.1 29 8.02 29.08 7.96C29.16 7.9 29.2 7.87 29.2 7.87C29.2267 7.85667 29.2467 7.85 29.26 7.85C29.28 7.85 29.3 7.86 29.32 7.88ZM23.55 9.87C23.8033 9.87 24.0667 9.81667 24.34 9.71C24.6067 9.60333 24.8733 9.46333 25.14 9.29C25.4067 9.12333 25.6667 8.94 25.92 8.74C26.1733 8.54 26.4167 8.34 26.65 8.14C26.95 7.89333 27.1967 7.66667 27.39 7.46C27.5833 7.24667 27.7367 7.05667 27.85 6.89C27.97 6.72333 28.05 6.57333 28.09 6.44C28.13 6.31333 28.15 6.2 28.15 6.1C28.15 5.93333 28.1067 5.79667 28.02 5.69C27.9267 5.58333 27.81 5.5 27.67 5.44C27.5367 5.38 27.3933 5.33667 27.24 5.31C27.08 5.28333 26.9333 5.27 26.8 5.27C26.2933 5.27 25.76 5.4 25.2 5.66C24.64 5.92 24.0667 6.29667 23.48 6.79C23.08 7.13667 22.7733 7.46667 22.56 7.78C22.3533 8.1 22.25 8.39667 22.25 8.67C22.25 8.85667 22.2833 9.02333 22.35 9.17C22.4167 9.31 22.51 9.43333 22.63 9.54C22.7433 9.64 22.88 9.72 23.04 9.78C23.2 9.84 23.37 9.87 23.55 9.87ZM21.33 14.63C21.55 14.43 21.8 14.1867 22.08 13.9C22.3533 13.6067 22.6433 13.2767 22.95 12.91C23.2567 12.5433 23.5767 12.15 23.91 11.73C24.2367 11.3033 24.5633 10.86 24.89 10.4C24.55 10.5867 24.19 10.8 23.81 11.04C23.4233 11.2867 23.0433 11.5433 22.67 11.81C22.2967 12.0767 21.94 12.35 21.6 12.63C21.2533 12.9167 20.95 13.1867 20.69 13.44C20.4367 13.7 20.23 13.94 20.07 14.16C19.9167 14.3867 19.84 14.5767 19.84 14.73C19.84 14.8033 19.8567 14.8667 19.89 14.92C19.9167 14.9733 19.9533 15.0133 20 15.04C20.04 15.0733 20.0867 15.0967 20.14 15.11C20.1867 15.13 20.2333 15.14 20.28 15.14C20.3867 15.14 20.5 15.1133 20.62 15.06C20.74 15.0133 20.85 14.96 20.95 14.9C21.05 14.84 21.1333 14.7833 21.2 14.73C21.2733 14.67 21.3167 14.6367 21.33 14.63ZM33.49 9.92C33.29 9.92 33.12 9.87667 32.98 9.79C32.84 9.69667 32.77 9.54333 32.77 9.33C32.77 9.15 32.83 8.92 32.95 8.64C33.0633 8.36667 33.2433 8.04 33.49 7.66C33.11 7.99333 32.7467 8.29333 32.4 8.56C32.06 8.83333 31.71 9.06333 31.35 9.25C31.09 9.38333 30.8567 9.48667 30.65 9.56C30.4433 9.63333 30.2667 9.68333 30.12 9.71C29.9667 9.74333 29.85 9.76333 29.77 9.77C29.6833 9.77667 29.63 9.78 29.61 9.78C29.6033 9.78 29.5567 9.77667 29.47 9.77C29.3833 9.77 29.29 9.75 29.19 9.71C29.09 9.67667 28.9967 9.61333 28.91 9.52C28.8233 9.42667 28.78 9.29 28.78 9.11C28.78 8.85 28.9033 8.48667 29.15 8.02C29.39 7.55333 29.7467 6.98 30.22 6.3C30.42 6.01333 30.5867 5.78 30.72 5.6C30.8533 5.42 30.96 5.28 31.04 5.18C31.1133 5.08667 31.1667 5.02333 31.2 4.99C31.2333 4.95667 31.2533 4.94 31.26 4.94C31.3133 4.94 31.34 4.97 31.34 5.03C31.34 5.04333 31.3333 5.05667 31.32 5.07C31.32 5.07 31.2633 5.15 31.15 5.31C31.03 5.46333 30.8833 5.66 30.71 5.9C30.53 6.14667 30.3367 6.42 30.13 6.72C29.9233 7.02 29.7333 7.32 29.56 7.62C29.3867 7.91333 29.24 8.19333 29.12 8.46C29.0067 8.72667 28.95 8.94333 28.95 9.11C28.95 9.29667 29.01 9.43 29.13 9.51C29.2567 9.58333 29.4067 9.62 29.58 9.62C29.7267 9.62 29.8867 9.6 30.06 9.56C30.2267 9.52 30.39 9.47333 30.55 9.42C30.7167 9.36 30.8633 9.3 30.99 9.24C31.1233 9.18 31.2267 9.13 31.3 9.09C31.64 8.91 32.0433 8.64333 32.51 8.29C32.9833 7.93667 33.5033 7.45333 34.07 6.84C34.23 6.64667 34.4 6.44 34.58 6.22C34.76 6 34.9267 5.8 35.08 5.62C35.2267 5.43333 35.3467 5.27667 35.44 5.15C35.54 5.02333 35.59 4.96 35.59 4.96L35.72 5.07C35.4933 5.35667 35.2567 5.64333 35.01 5.93C34.7633 6.21667 34.5233 6.50667 34.29 6.8C34.0567 7.09333 33.84 7.39333 33.64 7.7C33.4333 8.00667 33.2567 8.32667 33.11 8.66C33.0033 8.90667 32.95 9.11667 32.95 9.29C32.95 9.61 33.13 9.77 33.49 9.77C33.69 9.77 33.9133 9.72333 34.16 9.63C34.4133 9.53 34.6833 9.39667 34.97 9.23C35.25 9.05667 35.5433 8.85 35.85 8.61C36.15 8.37 36.4533 8.10667 36.76 7.82C36.78 7.80667 36.8 7.8 36.82 7.8C36.8667 7.8 36.89 7.82667 36.89 7.88C36.89 7.90667 36.8867 7.92667 36.88 7.94C36.5667 8.24 36.2567 8.51333 35.95 8.76C35.6367 9 35.3333 9.20667 35.04 9.38C34.7533 9.54667 34.4767 9.67667 34.21 9.77C33.95 9.86333 33.71 9.91333 33.49 9.92ZM37.19 9.72C36.9767 9.60667 36.8233 9.45667 36.73 9.27C36.6433 9.07667 36.6 8.87 36.6 8.65C36.6 8.47 36.6233 8.28667 36.67 8.1C36.7167 7.91333 36.78 7.73333 36.86 7.56C36.94 7.38667 37.0267 7.22333 37.12 7.07C37.22 6.92333 37.32 6.79667 37.42 6.69C37.3267 6.63667 37.2567 6.6 37.21 6.58C37.1633 6.55333 37.1333 6.53333 37.12 6.52C37.1067 6.5 37.1033 6.49 37.11 6.49C37.11 6.48333 37.11 6.47333 37.11 6.46C37.11 6.40667 37.1367 6.38 37.19 6.38C37.2167 6.38 37.2267 6.37667 37.22 6.37C37.2133 6.37 37.2133 6.37333 37.22 6.38C37.2267 6.38667 37.25 6.40333 37.29 6.43C37.33 6.45667 37.4133 6.5 37.54 6.56C38.0533 6.01333 38.5867 5.58 39.14 5.26C39.6933 4.93333 40.23 4.77 40.75 4.77C40.9233 4.77 41.0933 4.79667 41.26 4.85C41.4267 4.89667 41.5733 4.96333 41.7 5.05C41.8267 5.13667 41.9267 5.24333 42 5.37C42.08 5.49667 42.12 5.63333 42.12 5.78C42.12 6.04 42.04 6.26667 41.88 6.46C41.7267 6.65333 41.5367 6.81333 41.31 6.94C41.0833 7.06667 40.84 7.16333 40.58 7.23C40.3133 7.29 40.0733 7.32 39.86 7.32C39.5933 7.32 39.3367 7.3 39.09 7.26C38.85 7.21333 38.63 7.16 38.43 7.1C38.23 7.04 38.0567 6.98 37.91 6.92C37.77 6.85333 37.66 6.80333 37.58 6.77C37.4867 6.85667 37.39 6.97 37.29 7.11C37.1967 7.25 37.1133 7.40667 37.04 7.58C36.96 7.74667 36.8933 7.92 36.84 8.1C36.7933 8.28667 36.77 8.47 36.77 8.65C36.77 8.99667 36.89 9.27333 37.13 9.48C37.37 9.68667 37.74 9.79 38.24 9.79C38.4333 9.79 38.6333 9.77333 38.84 9.74C39.04 9.71333 39.23 9.68 39.41 9.64C39.59 9.6 39.7533 9.56 39.9 9.52C40.0467 9.47333 40.1667 9.43 40.26 9.39C40.5 9.29667 40.7367 9.19333 40.97 9.08C41.2033 8.96667 41.44 8.84 41.68 8.7C41.92 8.56 42.17 8.39667 42.43 8.21C42.6833 8.03 42.9567 7.81333 43.25 7.56C43.27 7.54667 43.2867 7.54 43.3 7.54C43.32 7.54 43.34 7.54667 43.36 7.56C43.3733 7.57333 43.38 7.59667 43.38 7.63C43.38 7.65 43.3733 7.67 43.36 7.69C43.06 7.94333 42.78 8.16333 42.52 8.35C42.26 8.53667 42.0067 8.7 41.76 8.84C41.52 8.98667 41.28 9.11333 41.04 9.22C40.8067 9.32667 40.5633 9.43333 40.31 9.54C40.1767 9.58667 40.03 9.63667 39.87 9.69C39.7033 9.73667 39.53 9.77667 39.35 9.81C39.17 9.85 38.9867 9.88 38.8 9.9C38.6133 9.92667 38.4267 9.94 38.24 9.94C38.0467 9.94 37.86 9.92333 37.68 9.89C37.4933 9.85667 37.33 9.8 37.19 9.72ZM37.69 6.64L37.93 6.75C38.03 6.79 38.1467 6.83667 38.28 6.89C38.42 6.93667 38.5733 6.98 38.74 7.02C38.9 7.06 39.0733 7.09333 39.26 7.12C39.4533 7.14667 39.6467 7.16 39.84 7.16C40.0867 7.16 40.3367 7.12333 40.59 7.05C40.8367 6.97667 41.06 6.88 41.26 6.76C41.46 6.64 41.6233 6.49667 41.75 6.33C41.8767 6.16333 41.94 5.98667 41.94 5.8C41.94 5.67333 41.91 5.55667 41.85 5.45C41.7833 5.34333 41.6967 5.25 41.59 5.17C41.4767 5.09 41.35 5.03 41.21 4.99C41.07 4.95 40.9233 4.93 40.77 4.93C40.5767 4.93 40.3633 4.95667 40.13 5.01C39.9033 5.06333 39.66 5.15667 39.4 5.29C39.1467 5.41667 38.8733 5.59 38.58 5.81C38.2933 6.03 37.9967 6.30667 37.69 6.64ZM46.95 10.01L46.81 9.89C46.6367 9.99667 46.4333 10.0767 46.2 10.13C45.9733 10.1767 45.7567 10.2 45.55 10.2C45.51 10.2 45.4533 10.2 45.38 10.2C45.3 10.2 45.2233 10.1933 45.15 10.18C45.0767 10.1733 45.0133 10.16 44.96 10.14C44.9067 10.12 44.88 10.0933 44.88 10.06C44.88 10.04 44.8867 10.02 44.9 10C44.9133 9.98667 44.9333 9.98 44.96 9.98C45.0667 9.98 45.17 9.99 45.27 10.01C45.37 10.03 45.4633 10.04 45.55 10.04C45.77 10.04 45.9733 10.0167 46.16 9.97C46.3533 9.91667 46.5267 9.85333 46.68 9.78C46.46 9.54667 46.3 9.29333 46.2 9.02C46.0933 8.75333 46.04 8.48 46.04 8.2C46.04 7.97333 46.0733 7.74667 46.14 7.52C46.2067 7.28667 46.3 7.07333 46.42 6.88C46.54 6.69333 46.69 6.53667 46.87 6.41C47.05 6.29 47.2567 6.23 47.49 6.23C47.8167 6.25 48.0633 6.36 48.23 6.56C48.4033 6.76667 48.49 7.02 48.49 7.32C48.4767 7.80667 48.3433 8.27 48.09 8.71C47.83 9.14333 47.4533 9.50667 46.96 9.8C47.2467 10.02 47.56 10.1967 47.9 10.33C48.24 10.4567 48.6167 10.52 49.03 10.52C49.3033 10.52 49.56 10.5 49.8 10.46C50.04 10.42 50.26 10.3667 50.46 10.3C50.66 10.2333 50.84 10.1533 51 10.06C51.1667 9.97333 51.3067 9.88667 51.42 9.8C51.7467 9.56 52.0133 9.29333 52.22 9C52.4267 8.70667 52.59 8.40333 52.71 8.09C52.8233 7.77 52.9033 7.43333 52.95 7.08C52.9967 6.73333 53.0267 6.38 53.04 6.02C53.06 5.65333 53.0767 5.28667 53.09 4.92C53.0967 4.54667 53.12 4.18 53.16 3.82C52.8867 3.82 52.63 3.78333 52.39 3.71C52.15 3.64333 51.9333 3.53667 51.74 3.39C51.72 3.37 51.71 3.34333 51.71 3.31C51.71 3.29 51.7167 3.27333 51.73 3.26C51.75 3.24667 51.77 3.24 51.79 3.24C51.81 3.24 51.8267 3.24667 51.84 3.26C52.02 3.39333 52.2233 3.49333 52.45 3.56C52.6767 3.62 52.92 3.65 53.18 3.65C53.22 3.33667 53.29 2.99333 53.39 2.62C53.4967 2.25333 53.64 1.90667 53.82 1.58C54.0067 1.26 54.24 0.993334 54.52 0.78C54.7933 0.56 55.1233 0.45 55.51 0.45C55.79 0.463334 56.0233 0.546667 56.21 0.7C56.3967 0.86 56.49 1.1 56.49 1.42C56.49 1.64667 56.4367 1.86667 56.33 2.08C56.2233 2.29333 56.09 2.49 55.93 2.67C55.7633 2.85 55.5833 3.01 55.39 3.15C55.1967 3.28333 55.01 3.39 54.83 3.47C54.6033 3.57 54.36 3.65 54.1 3.71C53.84 3.77 53.5833 3.80667 53.33 3.82C53.2833 4.18 53.2567 4.54667 53.25 4.92C53.2433 5.28667 53.23 5.65667 53.21 6.03C53.1967 6.39667 53.1667 6.75667 53.12 7.11C53.0667 7.47 52.98 7.81667 52.86 8.15C52.74 8.48333 52.5733 8.8 52.36 9.1C52.1467 9.40667 51.8667 9.69 51.52 9.95C51.2733 10.13 50.9367 10.3 50.51 10.46C50.0833 10.6133 49.59 10.69 49.03 10.69C48.6367 10.69 48.26 10.63 47.9 10.51C47.5467 10.39 47.23 10.2233 46.95 10.01ZM46.49 7.06C46.31 7.44 46.22 7.82333 46.22 8.21C46.22 8.48333 46.2667 8.74667 46.36 9C46.46 9.25333 46.6167 9.48333 46.83 9.69C47.05 9.55667 47.25 9.40333 47.43 9.23C47.6033 9.05667 47.76 8.86667 47.9 8.66C48.0333 8.45333 48.1367 8.23667 48.21 8.01C48.2767 7.77667 48.31 7.54333 48.31 7.31C48.31 7.05 48.2367 6.83333 48.09 6.66C47.9433 6.48 47.7433 6.39 47.49 6.39C47.2433 6.41667 47.04 6.49 46.88 6.61C46.7267 6.73 46.5967 6.88 46.49 7.06ZM53.69 2.22C53.6033 2.45333 53.53 2.68667 53.47 2.92C53.4167 3.16 53.3767 3.40333 53.35 3.65C53.6633 3.63667 53.9933 3.57333 54.34 3.46C54.6933 3.35333 55.0167 3.2 55.31 3C55.5967 2.8 55.8367 2.56667 56.03 2.3C56.2167 2.02667 56.31 1.72667 56.31 1.4C56.31 1.25333 56.2867 1.13 56.24 1.03C56.1867 0.93 56.1233 0.85 56.05 0.79C55.97 0.73 55.8833 0.686667 55.79 0.66C55.69 0.633334 55.5967 0.62 55.51 0.62C55.27 0.626667 55.0567 0.68 54.87 0.78C54.6833 0.873334 54.5133 0.993334 54.36 1.14C54.2133 1.29333 54.0833 1.46333 53.97 1.65C53.8633 1.83667 53.77 2.02667 53.69 2.22ZM57.03 9.89C56.47 9.89 56.0433 9.79333 55.75 9.6C55.4567 9.40667 55.31 9.13667 55.31 8.79C55.31 8.49 55.41 8.15667 55.61 7.79C55.8167 7.43 56.0767 7.08333 56.39 6.75C56.71 6.41667 57.0633 6.12333 57.45 5.87C57.8367 5.61667 58.2133 5.44667 58.58 5.36C58.7133 5.33333 58.8367 5.31333 58.95 5.3C59.0633 5.28 59.17 5.27 59.27 5.27C59.5433 5.27 59.75 5.33667 59.89 5.47C60.03 5.59667 60.1 5.75667 60.1 5.95C60.1 6.05 60.0833 6.15333 60.05 6.26C60.0167 6.36 59.9767 6.41 59.93 6.41C59.87 6.41 59.84 6.38667 59.84 6.34C59.84 6.3 59.8567 6.24667 59.89 6.18C59.9233 6.11333 59.94 6.04 59.94 5.96C59.94 5.8 59.8833 5.67333 59.77 5.58C59.6567 5.48667 59.4833 5.44 59.25 5.44C59.0367 5.44 58.81 5.47333 58.57 5.54C58.3233 5.61333 58.0767 5.71333 57.83 5.84C57.5833 5.97333 57.3367 6.13667 57.09 6.33C56.8433 6.51667 56.61 6.73333 56.39 6.98C56.0967 7.30667 55.8733 7.62667 55.72 7.94C55.56 8.26 55.48 8.54333 55.48 8.79C55.48 8.99667 55.5367 9.16333 55.65 9.29C55.7633 9.41667 55.9 9.51 56.06 9.57C56.22 9.63667 56.39 9.67667 56.57 9.69C56.75 9.71 56.9067 9.72 57.04 9.72C57.12 9.72 57.19 9.72 57.25 9.72C57.3033 9.71333 57.3333 9.71 57.34 9.71C57.34 9.71 57.3767 9.70667 57.45 9.7C57.53 9.69333 57.6333 9.68333 57.76 9.67C57.8933 9.65 58.0467 9.62333 58.22 9.59C58.4 9.56333 58.5933 9.52333 58.8 9.47C58.9933 9.41667 59.21 9.34667 59.45 9.26C59.6967 9.17333 59.9533 9.06333 60.22 8.93C60.4867 8.80333 60.7633 8.64667 61.05 8.46C61.3367 8.28 61.62 8.07 61.9 7.83C61.9267 7.82333 61.9467 7.82 61.96 7.82C62.0133 7.82 62.04 7.84667 62.04 7.9C62.04 7.93333 62.03 7.95333 62.01 7.96C61.5433 8.34667 61.0433 8.68333 60.51 8.97C59.97 9.26333 59.41 9.48333 58.83 9.63C58.4167 9.73667 58.0733 9.80333 57.8 9.83C57.5267 9.86333 57.3767 9.88 57.35 9.88C57.3367 9.88 57.3 9.88 57.24 9.88C57.1867 9.88667 57.1167 9.89 57.03 9.89ZM64.37 10.14C64.13 10.1267 63.95 10.0533 63.83 9.92C63.71 9.78667 63.65 9.61333 63.65 9.4C63.65 9.17333 63.72 8.91 63.86 8.61C64.0067 8.31 64.18 8.01 64.38 7.71C64.58 7.40333 64.7867 7.11333 65 6.84C65.2133 6.56 65.3867 6.32667 65.52 6.14C65.5533 6.09333 65.58 6.04333 65.6 5.99C65.6267 5.94333 65.64 5.9 65.64 5.86C65.64 5.8 65.62 5.75667 65.58 5.73C65.54 5.70333 65.4933 5.68333 65.44 5.67C65.3867 5.65667 65.33 5.64667 65.27 5.64C65.2167 5.64 65.1733 5.64 65.14 5.64C65.1267 5.64 65.0833 5.63667 65.01 5.63C64.93 5.62333 64.8367 5.61 64.73 5.59C64.6233 5.57667 64.5067 5.55333 64.38 5.52C64.2533 5.48667 64.1433 5.44 64.05 5.38C64.0233 5.42 64.0033 5.45 63.99 5.47C63.7167 5.94333 63.4167 6.38667 63.09 6.8C62.77 7.21333 62.4167 7.59333 62.03 7.94C62.0167 7.94667 62 7.95 61.98 7.95C61.9267 7.95 61.9 7.92333 61.9 7.87C61.9 7.84333 61.9067 7.82333 61.92 7.81C62.3267 7.44333 62.6833 7.05333 62.99 6.64C63.2967 6.22667 63.5833 5.80667 63.85 5.38C63.8567 5.36667 63.8667 5.34667 63.88 5.32C63.8933 5.3 63.9 5.28667 63.9 5.28C63.8067 5.21333 63.74 5.13667 63.7 5.05C63.6667 4.96333 63.65 4.87333 63.65 4.78C63.65 4.68667 63.6633 4.61333 63.69 4.56C63.7167 4.50667 63.7467 4.46667 63.78 4.44C63.82 4.41333 63.8567 4.39667 63.89 4.39C63.93 4.38333 63.9533 4.38 63.96 4.38C64.04 4.38 64.1033 4.39333 64.15 4.42C64.19 4.44667 64.22 4.48 64.24 4.52C64.2533 4.56 64.2633 4.6 64.27 4.64C64.27 4.67333 64.27 4.7 64.27 4.72C64.27 4.86 64.22 5.03333 64.12 5.24C64.1933 5.28 64.28 5.31667 64.38 5.35C64.48 5.37667 64.58 5.4 64.68 5.42C64.7733 5.44 64.8633 5.45333 64.95 5.46C65.0367 5.46667 65.1033 5.47 65.15 5.47C65.1833 5.47 65.2367 5.47333 65.31 5.48C65.3833 5.48667 65.4567 5.5 65.53 5.52C65.6033 5.54667 65.6667 5.58333 65.72 5.63C65.78 5.68333 65.81 5.75667 65.81 5.85C65.81 5.93667 65.76 6.06333 65.66 6.23C65.56 6.39 65.4367 6.57 65.29 6.77C65.1433 6.97 64.9833 7.18667 64.81 7.42C64.6367 7.64667 64.4733 7.87667 64.32 8.11C64.1733 8.34333 64.0533 8.57333 63.96 8.8C63.86 9.02667 63.81 9.23333 63.81 9.42C63.81 9.79333 64.03 9.98 64.47 9.98C64.6233 9.98 64.8167 9.94667 65.05 9.88C65.2833 9.81333 65.5367 9.72 65.81 9.6C66.0833 9.48667 66.37 9.35 66.67 9.19C66.97 9.03667 67.2667 8.87 67.56 8.69C67.5667 8.67667 67.58 8.67 67.6 8.67C67.62 8.67 67.6367 8.68 67.65 8.7C67.6633 8.72 67.67 8.74 67.67 8.76C67.67 8.78667 67.66 8.81 67.64 8.83C67.32 9.02333 67.0033 9.2 66.69 9.36C66.3767 9.52 66.08 9.66 65.8 9.78C65.5133 9.89333 65.2467 9.98333 65 10.05C64.76 10.11 64.55 10.14 64.37 10.14ZM63.83 4.7C63.8233 4.71333 63.82 4.73333 63.82 4.76C63.82 4.82667 63.8333 4.9 63.86 4.98C63.8933 5.05333 63.9333 5.10667 63.98 5.14C64.0333 5.03333 64.0667 4.95 64.08 4.89C64.1 4.82333 64.11 4.77 64.11 4.73C64.11 4.67667 64.0967 4.63333 64.07 4.6C64.05 4.56 64.0133 4.54 63.96 4.54C63.8867 4.54667 63.8433 4.6 63.83 4.7ZM68.35 9.8C68.2433 9.8 68.14 9.79667 68.04 9.79C67.9333 9.77667 67.84 9.74667 67.76 9.7C67.68 9.65333 67.6133 9.58667 67.56 9.5C67.5133 9.42 67.49 9.31 67.49 9.17C67.49 8.98333 67.53 8.78667 67.61 8.58C67.6967 8.36667 67.8 8.15333 67.92 7.94C68.0467 7.73333 68.18 7.52667 68.32 7.32C68.46 7.12 68.5867 6.94 68.7 6.78C68.8667 6.54 69.03 6.31333 69.19 6.1C69.35 5.88667 69.4967 5.7 69.63 5.54C69.7567 5.37333 69.8633 5.24333 69.95 5.15C70.03 5.05 70.07 5 70.07 5C70.0767 4.98 70.0967 4.97 70.13 4.97C70.19 4.97 70.22 4.99667 70.22 5.05C70.22 5.06333 70.2133 5.08333 70.2 5.11C70.2 5.11 70.16 5.16 70.08 5.26C69.9933 5.35333 69.8867 5.48 69.76 5.64C69.6267 5.8 69.48 5.98667 69.32 6.2C69.16 6.41333 68.9967 6.63667 68.83 6.87C68.7233 7.02333 68.6033 7.19667 68.47 7.39C68.3367 7.58333 68.2067 7.78333 68.08 7.99C67.96 8.19667 67.86 8.4 67.78 8.6C67.7 8.80667 67.66 8.99667 67.66 9.17C67.66 9.27667 67.68 9.36333 67.72 9.43C67.76 9.49 67.8133 9.53667 67.88 9.57C67.9467 9.59667 68.0233 9.61667 68.11 9.63C68.19 9.63667 68.27 9.64 68.35 9.64C68.61 9.64 68.8967 9.58667 69.21 9.48C69.5167 9.37333 69.8267 9.23333 70.14 9.06C70.4533 8.88667 70.7633 8.69 71.07 8.47C71.3767 8.25 71.66 8.02667 71.92 7.8C71.9467 7.78667 71.9667 7.78 71.98 7.78C72.0333 7.78 72.06 7.80667 72.06 7.86C72.06 7.88667 72.05 7.91 72.03 7.93C71.7567 8.15667 71.47 8.38333 71.17 8.61C70.87 8.83667 70.56 9.03667 70.24 9.21C69.9267 9.39 69.61 9.53333 69.29 9.64C68.97 9.74667 68.6567 9.8 68.35 9.8ZM71.39 3.83C71.39 3.95667 71.3467 4.06333 71.26 4.15C71.18 4.23667 71.08 4.28 70.96 4.28C70.8333 4.28 70.7267 4.23667 70.64 4.15C70.5533 4.06333 70.51 3.95667 70.51 3.83C70.51 3.71 70.5533 3.60667 70.64 3.52C70.7267 3.44 70.8333 3.4 70.96 3.4C71.08 3.4 71.18 3.44 71.26 3.52C71.3467 3.60667 71.39 3.71 71.39 3.83ZM80.39 7.52C80.4033 7.54667 80.41 7.56667 80.41 7.58C80.41 7.61333 80.4 7.63333 80.38 7.64C79.5333 8.4 78.6967 8.96667 77.87 9.34C77.0433 9.70667 76.21 9.89667 75.37 9.91C74.9967 9.91 74.6433 9.87333 74.31 9.8C73.9767 9.72667 73.6933 9.64 73.46 9.54C73.2933 9.49333 73.1233 9.42333 72.95 9.33C72.7767 9.23 72.62 9.11333 72.48 8.98C71.6467 10.3667 70.92 11.5167 70.3 12.43C69.6867 13.3433 69.1933 13.9867 68.82 14.36C68.8133 14.3733 68.78 14.41 68.72 14.47C68.6533 14.5367 68.5733 14.6067 68.48 14.68C68.3867 14.7533 68.2833 14.82 68.17 14.88C68.0567 14.9333 67.9533 14.96 67.86 14.96C67.7467 14.96 67.6633 14.9267 67.61 14.86C67.55 14.7933 67.52 14.71 67.52 14.61C67.52 14.45 67.5767 14.2233 67.69 13.93C67.8033 13.6367 67.9667 13.29 68.18 12.89C68.52 12.2633 68.92 11.62 69.38 10.96C69.84 10.3 70.3333 9.65667 70.86 9.03C71.3867 8.41 71.9333 7.82 72.5 7.26C73.06 6.69333 73.6167 6.19667 74.17 5.77C74.3633 5.43667 74.5133 5.17333 74.62 4.98C74.7267 4.78667 74.81 4.63667 74.87 4.53C74.9367 4.42333 74.98 4.35667 75 4.33C75.0267 4.29667 75.0467 4.28 75.06 4.28C75.0733 4.28 75.09 4.28667 75.11 4.3C75.13 4.31333 75.14 4.33333 75.14 4.36C75.14 4.35333 75.1367 4.36 75.13 4.38C75.1233 4.39333 75.1 4.43667 75.06 4.51C75.02 4.58333 74.9567 4.69667 74.87 4.85C74.79 5.01 74.67 5.23 74.51 5.51C74.81 5.27 75.15 5.08 75.53 4.94C75.91 4.8 76.34 4.73 76.82 4.73C77.1067 4.73 77.3633 4.76667 77.59 4.84C77.81 4.91333 77.9933 5.01667 78.14 5.15C78.2867 5.27667 78.3967 5.42333 78.47 5.59C78.5367 5.76333 78.57 5.94333 78.57 6.13C78.57 6.32333 78.5367 6.52 78.47 6.72C78.3967 6.91333 78.3 7.10333 78.18 7.29C78.0667 7.47667 77.9367 7.65667 77.79 7.83C77.6433 7.99667 77.4933 8.14667 77.34 8.28C77.1267 8.47333 76.8933 8.65333 76.64 8.82C76.3867 8.98667 76.1267 9.13 75.86 9.25C75.6 9.37 75.3367 9.46333 75.07 9.53C74.8033 9.59667 74.55 9.63 74.31 9.63C74.47 9.67 74.6333 9.7 74.8 9.72C74.9667 9.74 75.15 9.75 75.35 9.75C75.6567 9.75 75.9933 9.71667 76.36 9.65C76.7267 9.58333 77.1167 9.46667 77.53 9.3C77.9433 9.13333 78.3767 8.90667 78.83 8.62C79.29 8.33333 79.77 7.96667 80.27 7.52C80.29 7.50667 80.3067 7.5 80.32 7.5C80.3333 7.5 80.3467 7.50333 80.36 7.51C80.3667 7.51667 80.3767 7.52 80.39 7.52ZM68.7 14.25C68.9267 14.0233 69.2167 13.6667 69.57 13.18C69.9233 12.6933 70.3267 12.1 70.78 11.4C71.24 10.7 71.7367 9.90667 72.27 9.02C72.8033 8.14 73.3633 7.18333 73.95 6.15C73.4833 6.53 73.0467 6.92333 72.64 7.33C72.2267 7.73667 71.8467 8.13667 71.5 8.53C71.1533 8.91667 70.8433 9.28333 70.57 9.63C70.2967 9.97 70.0667 10.27 69.88 10.53C69.5267 11.0167 69.2133 11.4767 68.94 11.91C68.6667 12.35 68.4367 12.7467 68.25 13.1C68.0633 13.4533 67.9233 13.76 67.83 14.02C67.73 14.28 67.68 14.4767 67.68 14.61C67.68 14.6567 67.6933 14.7 67.72 14.74C67.7467 14.78 67.7967 14.8 67.87 14.8C67.9367 14.8 68.01 14.7767 68.09 14.73C68.17 14.69 68.25 14.64 68.33 14.58C68.41 14.52 68.4833 14.46 68.55 14.4C68.6167 14.34 68.6667 14.29 68.7 14.25ZM73.52 9.38C73.6333 9.41333 73.7467 9.43667 73.86 9.45C73.9733 9.46333 74.08 9.47 74.18 9.47C74.7 9.47667 75.2267 9.36 75.76 9.12C76.2933 8.88 76.7867 8.55667 77.24 8.15C77.38 8.02333 77.52 7.88333 77.66 7.73C77.7933 7.57 77.9167 7.40333 78.03 7.23C78.1367 7.06333 78.2233 6.88667 78.29 6.7C78.3567 6.51333 78.39 6.33 78.39 6.15C78.39 5.99667 78.3633 5.84667 78.31 5.7C78.2567 5.54667 78.17 5.41333 78.05 5.3C77.9233 5.18 77.76 5.08 77.56 5C77.36 4.92667 77.1133 4.89 76.82 4.89C76.4667 4.89 76.16 4.92667 75.9 5C75.6333 5.06667 75.4033 5.15333 75.21 5.26C75.01 5.36 74.8367 5.46667 74.69 5.58C74.5433 5.69333 74.4133 5.79333 74.3 5.88C74.0667 6.28 73.8 6.73333 73.5 7.24C73.1933 7.74667 72.8833 8.28 72.57 8.84C72.6967 8.96667 72.85 9.07667 73.03 9.17C73.2167 9.26333 73.38 9.33333 73.52 9.38ZM79.91 7.83C80.07 7.69 80.2433 7.54 80.43 7.38C80.6167 7.22667 80.8033 7.07 80.99 6.91C81.1833 6.75 81.3733 6.59333 81.56 6.44C81.7533 6.28 81.9367 6.13 82.11 5.99C82.5167 5.65667 82.9233 5.33 83.33 5.01C83.2567 5.01 83.1333 5.00667 82.96 5C82.7867 4.99333 82.6 4.98333 82.4 4.97C82.1933 4.95667 81.9933 4.94667 81.8 4.94C81.6067 4.92667 81.4567 4.91333 81.35 4.9C81.29 4.88667 81.26 4.85667 81.26 4.81C81.26 4.76333 81.29 4.74 81.35 4.74C81.3567 4.74 81.3733 4.74 81.4 4.74C81.42 4.74 81.4533 4.74 81.5 4.74C82.16 4.8 82.7967 4.83667 83.41 4.85C83.8233 4.09 84.2 3.40667 84.54 2.8C84.88 2.2 85.1767 1.69333 85.43 1.28C85.69 0.86 85.91 0.54 86.09 0.32C86.2633 0.106667 86.3933 0 86.48 0C86.5 0 86.5333 0.00666665 86.58 0.02C86.6267 0.04 86.65 0.0966667 86.65 0.19C86.65 0.276667 86.6333 0.37 86.6 0.47C86.5733 0.576667 86.55 0.656667 86.53 0.71C86.3633 1.15 86.15 1.58333 85.89 2.01C85.63 2.43667 85.3633 2.83333 85.09 3.2C84.8167 3.56667 84.5567 3.89333 84.31 4.18C84.0567 4.47333 83.86 4.7 83.72 4.86C83.8467 4.86 83.97 4.86333 84.09 4.87C84.2167 4.87 84.34 4.87 84.46 4.87C84.8933 4.87 85.3167 4.86333 85.73 4.85C85.7833 4.85 85.81 4.87667 85.81 4.93C85.81 4.96333 85.76 4.98667 85.66 5C85.5533 5.02 85.43 5.03 85.29 5.03C85.1433 5.03667 84.9967 5.04 84.85 5.04C84.71 5.04 84.5967 5.04 84.51 5.04C84.35 5.04 84.1933 5.03667 84.04 5.03C83.8867 5.03 83.73 5.02667 83.57 5.02C83.5367 5.04667 83.5133 5.07333 83.5 5.1C83.48 5.12 83.46 5.14 83.44 5.16C83.2067 5.60667 82.9833 6.03333 82.77 6.44C82.5567 6.84667 82.37 7.20667 82.21 7.52C82.05 7.82667 81.9233 8.07333 81.83 8.26C81.7367 8.45333 81.6867 8.55 81.68 8.55C81.64 8.63 81.6067 8.71 81.58 8.79C81.5533 8.85667 81.53 8.93333 81.51 9.02C81.49 9.10667 81.48 9.19 81.48 9.27C81.48 9.64333 81.7133 9.83 82.18 9.83C82.4533 9.83 82.7333 9.79 83.02 9.71C83.3 9.62333 83.5767 9.51667 83.85 9.39C84.1233 9.26333 84.3867 9.12333 84.64 8.97C84.8867 8.81 85.1133 8.65333 85.32 8.5C85.5333 8.34 85.7167 8.19667 85.87 8.07C86.0233 7.93667 86.1433 7.83333 86.23 7.76C86.2567 7.74667 86.2767 7.74 86.29 7.74C86.3433 7.74 86.37 7.77 86.37 7.83C86.37 7.85 86.36 7.87 86.34 7.89C85.9933 8.19667 85.6333 8.48 85.26 8.74C84.8867 9 84.52 9.22333 84.16 9.41C83.8 9.59667 83.4533 9.74 83.12 9.84C82.78 9.94 82.4733 9.99 82.2 9.99C81.9067 9.99 81.6867 9.92333 81.54 9.79C81.3933 9.65667 81.32 9.48333 81.32 9.27C81.32 9.17667 81.33 9.08333 81.35 8.99C81.37 8.90333 81.3933 8.82333 81.42 8.75C81.4467 8.67667 81.4733 8.61667 81.5 8.57C81.52 8.52333 81.5333 8.49333 81.54 8.48C81.5467 8.46667 81.5967 8.37 81.69 8.19C81.7833 8.01 81.91 7.77 82.07 7.47C82.2233 7.17667 82.4 6.84 82.6 6.46C82.8 6.08 83.0067 5.69 83.22 5.29C83.2133 5.29667 83.14 5.35667 83 5.47C82.86 5.59 82.68 5.73667 82.46 5.91C82.24 6.09 82 6.28333 81.74 6.49C81.48 6.70333 81.23 6.91 80.99 7.11C80.75 7.31 80.5433 7.48667 80.37 7.64C80.19 7.79333 80.07 7.9 80.01 7.96C79.99 7.98667 79.9667 8 79.94 8C79.9133 8 79.8933 7.99 79.88 7.97C79.8667 7.95 79.86 7.93333 79.86 7.92C79.86 7.88667 79.8767 7.85667 79.91 7.83ZM83.76 4.56C83.9 4.40667 84.0967 4.18333 84.35 3.89C84.6033 3.59667 84.8633 3.26333 85.13 2.89C85.3967 2.52333 85.6533 2.13 85.9 1.71C86.1467 1.28333 86.3333 0.856667 86.46 0.43C86.48 0.376667 86.49 0.333334 86.49 0.3C86.4967 0.26 86.5 0.23 86.5 0.21C86.5 0.176667 86.4933 0.16 86.48 0.16C86.4133 0.16 86.2833 0.296667 86.09 0.57C85.9033 0.843333 85.68 1.19333 85.42 1.62C85.1667 2.05333 84.8933 2.53 84.6 3.05C84.3067 3.56333 84.0267 4.06667 83.76 4.56Z" fill="black"/>
</svg>
