<svg width="48" height="16" viewBox="0 0 48 16" fill="none" xmlns="http://www.w3.org/2000/svg">
<path d="M0.5 0.52V0H4.76V0.52L3.37 0.84V9.88H6.95L7.5 7.85H8.23V10.5H0.5V9.98L1.9 9.66V0.85L0.5 0.52ZM15.31 8.13H15.83V9.73C15.2967 10.3367 14.44 10.64 13.26 10.64C12.08 10.64 11.2067 10.33 10.64 9.71C10.0667 9.09 9.78 8.23 9.78 7.13C9.78 6.02333 10.0833 5.15667 10.69 4.53C11.29 3.89667 12.0967 3.58 13.11 3.58C13.7167 3.58 14.2233 3.69333 14.63 3.92C15.0367 4.14667 15.33 4.44667 15.51 4.82C15.79 5.43333 15.93 6.08 15.93 6.76H11.18C11.18 7.81333 11.3033 8.61667 11.55 9.17C11.83 9.79667 12.38 10.11 13.2 10.11C13.4867 10.11 13.7633 10.07 14.03 9.99C14.2967 9.91 14.49 9.83333 14.61 9.76C14.73 9.68667 14.79 9.64 14.79 9.62L15.31 8.13ZM13.09 4.13C12.2967 4.13 11.7533 4.49333 11.46 5.22C11.32 5.54667 11.2367 5.90667 11.21 6.3H14.71C14.71 4.85333 14.17 4.13 13.09 4.13ZM21.84 0.5V0H24.19V9.69L25.38 9.98V10.5H22.94V8.9C22.6067 10.06 21.81 10.64 20.55 10.64C19.67 10.64 18.9633 10.3367 18.43 9.73C17.89 9.12333 17.62 8.26333 17.62 7.15C17.62 6.03 17.89 5.16 18.43 4.54C18.9633 3.91333 19.6633 3.6 20.53 3.6C21.1567 3.6 21.68 3.75 22.1 4.05C22.5133 4.34333 22.7767 4.73333 22.89 5.22V0.71L21.84 0.5ZM20.77 4.23C19.6167 4.23 19.04 5.19333 19.04 7.12C19.04 9.04667 19.6233 10.01 20.79 10.01C21.41 10.01 21.9233 9.75 22.33 9.23C22.7367 8.70333 22.94 8.00333 22.94 7.13C22.94 6.25 22.7367 5.54667 22.33 5.02C21.9233 4.49333 21.4033 4.23 20.77 4.23ZM27.45 11.3C27.0033 11.7467 26.78 12.2367 26.78 12.77C26.78 13.3033 26.9933 13.7433 27.42 14.09C27.84 14.4433 28.44 14.62 29.22 14.62C30 14.62 30.6433 14.45 31.15 14.11C31.6633 13.7633 31.92 13.3167 31.92 12.77C31.92 12.1167 31.47 11.7533 30.57 11.68L28.58 11.52C28.0867 11.4867 27.71 11.4133 27.45 11.3ZM29.19 4.12C28.1633 4.12 27.65 4.81333 27.65 6.2C27.65 6.92 27.7733 7.44667 28.02 7.78C28.2733 8.12 28.6667 8.29 29.2 8.29C30.2533 8.29 30.78 7.60667 30.78 6.24C30.78 5.48667 30.6533 4.94333 30.4 4.61C30.1533 4.28333 29.75 4.12 29.19 4.12ZM30.54 3.74H32.92V4.23L31.66 4.72C31.94 5.12667 32.08 5.62667 32.08 6.22C32.08 7.01333 31.8067 7.64333 31.26 8.11C30.7067 8.57667 30.0067 8.81 29.16 8.81C28.8867 8.81 28.5733 8.77 28.22 8.69C27.76 8.94333 27.53 9.21333 27.53 9.5C27.53 9.78667 27.6133 9.98333 27.78 10.09C27.94 10.2033 28.3167 10.29 28.91 10.35L30.29 10.46C31.15 10.48 31.7667 10.6467 32.14 10.96C32.5133 11.28 32.7 11.7567 32.7 12.39C32.7 13.25 32.3633 13.9167 31.69 14.39C31.0167 14.87 30.1633 15.11 29.13 15.11C28.0967 15.11 27.2933 14.9167 26.72 14.53C26.1533 14.15 25.87 13.6067 25.87 12.9C25.87 12.1933 26.2933 11.6133 27.14 11.16C26.7667 10.84 26.58 10.4833 26.58 10.09C26.58 9.70333 26.67 9.40667 26.85 9.2C27.0233 8.99333 27.3433 8.78333 27.81 8.57C26.8433 8.07667 26.36 7.28667 26.36 6.2C26.36 5.4 26.6167 4.76 27.13 4.28C27.6433 3.8 28.3333 3.56 29.2 3.56C29.62 3.56 30.0667 3.62 30.54 3.74ZM39.08 8.13H39.6V9.73C39.0667 10.3367 38.21 10.64 37.03 10.64C35.85 10.64 34.9767 10.33 34.41 9.71C33.8367 9.09 33.55 8.23 33.55 7.13C33.55 6.02333 33.8533 5.15667 34.46 4.53C35.06 3.89667 35.87 3.58 36.89 3.58C37.4967 3.58 38 3.69333 38.4 3.92C38.8067 4.14667 39.1 4.44667 39.28 4.82C39.56 5.43333 39.7 6.08 39.7 6.76H34.95C34.95 7.81333 35.0733 8.61667 35.32 9.17C35.6 9.79667 36.15 10.11 36.97 10.11C37.2567 10.11 37.5333 10.07 37.8 9.99C38.0667 9.91 38.26 9.83333 38.38 9.76C38.5067 9.68667 38.57 9.64 38.57 9.62L39.08 8.13ZM36.86 4.13C36.0667 4.13 35.5233 4.49333 35.23 5.22C35.09 5.54667 35.0067 5.90667 34.98 6.3H38.48C38.48 4.85333 37.94 4.13 36.86 4.13ZM41.39 4.21V3.71H43.72V5.7C43.9067 5.14 44.1967 4.67 44.59 4.29C44.9767 3.91 45.45 3.72 46.01 3.72C46.3567 3.72 46.7733 3.84667 47.26 4.1V5.78H46.71L46.28 4.63C46.1 4.53667 45.9 4.49 45.68 4.49C45.2667 4.49 44.8533 4.73 44.44 5.21C44.0267 5.69667 43.82 6.21333 43.82 6.76V9.69L44.85 9.98V10.5H41.42V9.98L42.49 9.69V4.41L41.39 4.21Z" fill="black"/>
</svg>
