<svg width="126.2" height="17.5" viewBox="0 0 126.2 17.5" xmlns="http://www.w3.org/2000/svg"><path transform="translate(0 14) scale(.014 -.014)" d="M165 0V700H273V104H713V0Z"/><path transform="translate(11.732 14) scale(.014 -.014)" d="m445-10q-99 0-176.5 34.5t-121 95-43.5 137.5q0 65 26 116.5t72 88 106 56 128 19.5q63 0 118-18.5t97-52.5 65-80.5 22-103.5l-1-52h-541l-23 82h475l-15-9v24q-5 34-34 60t-72 40.5-91 14.5q-65 0-117.5-17.5t-82.5-57-30-103.5q0-54 32.5-94t90.5-62 134-22q73 0 122 19t83 41l46-77q-28-20-71.5-38.5t-94.5-29.5-103-11z"/><path transform="translate(23.8 14) scale(.014 -.014)" d="m637 0-220 231-19 20-259 274h150l194-222 18-19 282-284zm-513 0 255 278 69-64-183-214zm383 249-61 72 185 204h142z"/><path transform="translate(36.484 14) scale(.014 -.014)" d="m445-10q-99 0-176.5 34.5t-121 95-43.5 137.5q0 65 26 116.5t72 88 106 56 128 19.5q63 0 118-18.5t97-52.5 65-80.5 22-103.5l-1-52h-541l-23 82h475l-15-9v24q-5 34-34 60t-72 40.5-91 14.5q-65 0-117.5-17.5t-82.5-57-30-103.5q0-54 32.5-94t90.5-62 134-22q73 0 122 19t83 41l46-77q-28-20-71.5-38.5t-94.5-29.5-103-11z"/><path transform="translate(48.552 14) scale(.014 -.014)" d="m190 0v525h103v-140l-34-4q21 37 56 72.5t83.5 59 106.5 23.5q79 0 131.5-29t78.5-80 26-115v-312h-103v297q0 44-21 76.5t-57 50-81 16.5q-40 0-74-14t-59-37-39-50-14-53v-286h-51q-23 0-36 0t-16 0z"/><path transform="translate(61.586 14) scale(.014 -.014)" d="m404-10q-91 0-158.5 35t-104.5 97-37 141q0 80 39 141.5t107.5 96.5 157.5 35q54 0 101.5-13.5t83-35 55-47 19.5-49.5l-30-2v351h103v-740h-103v141l20-6q0-24-21-49t-56-47-81-35.5-95-13.5zm21 94q64 0 112.5 23.5t76 64 27.5 91.5-27.5 91-76 63.5-112.5 23.5q-63 0-112-23t-76.5-63.5-27.5-91.5 27.5-91.5 76.5-64 112-23.5z"/><path transform="translate(80.374 14) scale(.014 -.014)" d="M339 0V596H87V700H705V596H447V0Z"/><path transform="translate(91.462 14) scale(.014 -.014)" d="m445-10q-99 0-176.5 34.5t-121 95-43.5 137.5q0 65 26 116.5t72 88 106 56 128 19.5q63 0 118-18.5t97-52.5 65-80.5 22-103.5l-1-52h-541l-23 82h475l-15-9v24q-5 34-34 60t-72 40.5-91 14.5q-65 0-117.5-17.5t-82.5-57-30-103.5q0-54 32.5-94t90.5-62 134-22q73 0 122 19t83 41l46-77q-28-20-71.5-38.5t-94.5-29.5-103-11z"/><path transform="translate(103.53 14) scale(.014 -.014)" d="m190 0v525h104v-186l-26 13q15 51 50 92.5t81 66.5 95 25q33 0 64.5-7t48.5-19l-27-107q-20 11-48.5 18t-54.5 7q-41 0-74.5-14.5t-58-37.5-37.5-51.5-13-58.5v-266z"/><path transform="translate(113.4 14) scale(.014 -.014)" d="m400-10q-89 0-156 35t-103.5 97-36.5 141q0 80 38.5 141.5t107.5 96.5 157 35q55 0 101.5-13t81.5-35 54.5-47.5 20.5-51.5h-29v136h103v-525h-103v141l21-5q-1-24-22.5-49.5t-57-47.5-81.5-35.5-96-13.5zm24 95q64 0 113 23.5t76 64 27 90.5-27 90-76 63.5-113 23.5q-63 0-111.5-23.5t-76-63.5-27.5-90 27.5-90.5 76-64 111.5-23.5z"/></svg>