<svg width="119.98" height="17.22" viewBox="0 0 119.98 17.22" xmlns="http://www.w3.org/2000/svg"><path transform="translate(0 13.58) scale(.014 -.014)" d="m239 40h289q27 44 44 87.5t40 111.5h26l-37-239h-552v23l85 19v686l-85 19v23h285v-23l-95-19z"/><path transform="translate(9.184 13.58) scale(.014 -.014)" d="m154 780q29 0 47-18.5t18-46.5q0-27-18-45.5t-47-18.5-46.5 18.5-17.5 45.5q0 28 17.5 46.5t46.5 18.5zm123-780h-246v20l76 15v416l-74 27v14l160 48h9v-505l75-15z"/><path transform="translate(13.384 13.58) scale(.014 -.014)" d="m154 36h-5l-46-34h-16v739l-73 27v13l159 49h10v-358q63 68 152 68 65 0 115-32t78-89.5 28-131.5q0-83-34.5-151t-95-107-134.5-39q-77 0-138 46zm295 223q0 106-41.5 166.5t-114.5 60.5q-33 0-61.5-14t-48.5-38v-284q0-57 30-91.5t79-34.5q47 0 82.5 29.5t55 82.5 19.5 123z"/><path transform="translate(21.812 13.58) scale(.014 -.014)" d="m399 478q0-24-16.5-40.5t-41.5-16.5q-24 0-38 19-9 11-15.5 15t-15.5 4q-12 0-21-5.5t-19-19.5q-17-23-22-31t-7-18v-350l100-15v-20h-271v20l76 15v416l-74 28v13l155 49h10v-109q35 53 70.5 81t66.5 28q26 0 44.5-18.5t18.5-44.5z"/><path transform="translate(27.622 13.58) scale(.014 -.014)" d="m148 308q-1-7-1-23 0-110 44-166t129-56q49 0 91 17.5t68 49.5l12 15 17-10-6-14q-26-61-84-96t-131-35q-71 0-125.5 33.5t-84.5 94-30 139.5q0 83 33.5 147.5t94 100 139.5 35.5q98 0 150.5-57.5t54.5-168.5l-7-6zm2 28 261 9q3 12 3 41 0 123-109 123-66 0-106-45t-49-128z"/><path transform="translate(39.27 13.58) scale(.014 -.014)" d="m422 780q58 0 114-16t101-45h4l49 51h18v-230h-30q-16 49-41 90-35 56-82.5 81t-115.5 25q-124 0-190.5-91t-66.5-258 67.5-259.5 190.5-92.5q60 0 108 24t80 70q38 53 53 133h27v-262h-24l-46 66q-53-40-105.5-58t-114.5-18q-106 0-188.5 49t-128 138-45.5 203q0 116 47 207t130 142 189 51z"/><path transform="translate(50.106 13.58) scale(.014 -.014)" d="m49 112q0 44 26.5 75.5t86 55.5 161.5 46v98q0 63-18 89t-62 26q-43 0-68-20.5t-25-55.5q0-9 1-17.5t1-17.5q0-25-14.5-41.5t-37.5-16.5q-20 0-33 13t-13 35q0 33 29.5 68t78.5 60q60 31 127 31 43 0 73-14t43-39q8-17 10.5-42t2.5-89v-229q0-49 7.5-66.5t29.5-17.5q14 0 25 6.5t24 22.5l17-15q-23-36-47.5-51.5t-56.5-15.5q-40 0-62 22t-27 68l-3 2q-29-43-71-67.5t-85-24.5q-53 0-86.5 34t-33.5 88zm274 4v144q-72-14-111.5-30t-56.5-39-17-58q0-40 19.5-62t55.5-22q32 0 61 17.5t49 49.5z"/><path transform="translate(57.456 13.58) scale(.014 -.014)" d="m362 523v-139h-21q-15 126-117 126-40 0-63.5-22t-23.5-59q0-28 14.5-47.5t35.5-32.5 58-30q46-21 73.5-39t47.5-49.5 20-78.5q0-74-49.5-118t-134.5-44q-32 0-70.5 6t-67.5 16l-6 162h24q7-76 39-115t89-39q45 0 72 25t27 67q0 31-15 52.5t-37 35-62 33.5q-45 22-72 39.5t-46 47.5-19 74q0 70 48.5 108t137.5 38q34 0 66.5-4.5t51.5-12.5z"/><path transform="translate(63.546 13.58) scale(.014 -.014)" d="m260 0h-231v19l70 15v708l-70 26v13l153 49h9v-796l69-15z"/><path transform="translate(67.592 13.58) scale(.014 -.014)" d="m571 265q0-78-34-141t-94.5-98.5-134.5-35.5-134.5 35.5-94.5 98.5-34 141 34 141 94.5 98.5 134.5 35.5 134.5-35.5 94.5-98.5 34-141zm-264-230q74 0 116 61.5t42 169.5q0 107-41.5 168t-115.5 61-115.5-61-41.5-169 41.5-169 114.5-61z"/><path transform="translate(76.216 13.58) scale(.014 -.014)" d="m590 20v-20h-245v20l75 14v294q0 44-2.5 69.5t-9.5 41.5q-19 46-78 46-36 0-69.5-16t-58.5-46v-388l75-15v-20h-246v20l76 15v415l-74 28v13l155 49h10v-85q43 41 91.5 63t96.5 22q40 0 71-16t45-44q8-16 10.5-42.5t2.5-99.5v-304z"/><path transform="translate(88.578 13.58) scale(.014 -.014)" d="M326 42V730H125Q71 659 33 550H9L46 770H708L745 550H721Q683 659 629 730H431V42L540 23V0H216V23Z"/><path transform="translate(99.134 13.58) scale(.014 -.014)" d="m148 308q-1-7-1-23 0-110 44-166t129-56q49 0 91 17.5t68 49.5l12 15 17-10-6-14q-26-61-84-96t-131-35q-71 0-125.5 33.5t-84.5 94-30 139.5q0 83 33.5 147.5t94 100 139.5 35.5q98 0 150.5-57.5t54.5-168.5l-7-6zm2 28 261 9q3 12 3 41 0 123-109 123-66 0-106-45t-49-128z"/><path transform="translate(106.97 13.58) scale(.014 -.014)" d="m578 20v-20h-249v20q37 4 48 7.5t11 13.5q0 8-16 33l-97 150-101-132q-18-23-18-36 0-28 65-36v-20h-221v20q50 8 78.5 23t52.5 48l122 167-136 209q-13 20-31.5 28.5t-61.5 14.5v20h251v-20q-29-2-41-7t-12-14q0-10 15-33l79-121 79 103q12 15 15 22t3 16q0 24-58 34v20h206v-20q-48-10-70.5-22.5t-47.5-45.5l-107-139 156-240q14-21 31.5-30t54.5-13z"/><path transform="translate(115.08 13.58) scale(.014 -.014)" d="m129 18q-18 17-25.5 42.5t-7.5 71.5v363h-65l-2 16 144 150 18-2v-129h143l-8-35h-135v-354q0-36 2-51.5t7-24.5q16-28 50-28 20 0 40.5 11t35.5 30l17-13q-23-35-59.5-55t-76.5-20q-48 0-78 28z"/></svg>