<svg width="108" height="9" viewBox="0 0 108 9" fill="none" xmlns="http://www.w3.org/2000/svg">
<path d="M0.92 8.26H0.5V0H0.92V8.26ZM2.6 8.26H1.34V0H2.6V8.26ZM3.44 8.26H3.02V0H3.44V8.26ZM4.28 8.26H3.86V0H4.28V8.26ZM6.8 8.26H5.54V0H6.8V8.26ZM7.64 8.26H7.22V0H7.64V8.26ZM9.32 8.26H8.06V0H9.32V8.26ZM10.16 8.26H9.74V0H10.16V8.26ZM12.68 8.26H11.42V0H12.68V8.26ZM13.52 8.26H13.1V0H13.52V8.26ZM14.36 8.26H13.94V0H14.36V8.26ZM16.04 8.26H14.78V0H16.04V8.26ZM16.88 8.26H16.46V0H16.88V8.26ZM18.56 8.26H18.14V0H18.56V8.26ZM20.24 8.26H18.98V0H20.24V8.26ZM21.92 8.26H20.66V0H21.92V8.26ZM22.76 8.26H22.34V0H22.76V8.26ZM23.6 8.26H23.18V0H23.6V8.26ZM25.28 8.26H24.02V0H25.28V8.26ZM26.96 8.26H26.54V0H26.96V8.26ZM28.64 8.26H27.38V0H28.64V8.26ZM29.48 8.26H29.06V0H29.48V8.26ZM31.16 8.26H29.9V0H31.16V8.26ZM32.84 8.26H32.42V0H32.84V8.26ZM33.68 8.26H33.26V0H33.68V8.26ZM41.24 8.26H40.82V0H41.24V8.26ZM42.92 8.26H41.66V0H42.92V8.26ZM43.76 8.26H43.34V0H43.76V8.26ZM45.44 8.26H45.02V0H45.44V8.26ZM47.12 8.26H45.86V0H47.12V8.26ZM48.8 8.26H47.54V0H48.8V8.26ZM49.64 8.26H49.22V0H49.64V8.26ZM50.48 8.26H50.06V0H50.48V8.26ZM52.16 8.26H51.74V0H52.16V8.26ZM53.84 8.26H52.58V0H53.84V8.26ZM55.52 8.26H54.26V0H55.52V8.26ZM56.36 8.26H55.94V0H56.36V8.26ZM57.2 8.26H56.78V0H57.2V8.26ZM58.88 8.26H57.62V0H58.88V8.26ZM60.56 8.26H60.14V0H60.56V8.26ZM62.24 8.26H60.98V0H62.24V8.26ZM63.92 8.26H62.66V0H63.92V8.26ZM64.76 8.26H64.34V0H64.76V8.26ZM66.44 8.26H66.02V0H66.44V8.26ZM67.28 8.26H66.86V0H67.28V8.26ZM68.96 8.26H67.7V0H68.96V8.26ZM69.8 8.26H69.38V0H69.8V8.26ZM71.48 8.26H70.22V0H71.48V8.26ZM72.32 8.26H71.9V0H72.32V8.26ZM74 8.26H73.58V0H74V8.26ZM74.84 8.26H74.42V0H74.84V8.26ZM75.68 8.26H75.26V0H75.68V8.26ZM77.36 8.26H76.1V0H77.36V8.26ZM79.04 8.26H78.62V0H79.04V8.26ZM80.72 8.26H79.46V0H80.72V8.26ZM82.4 8.26H81.14V0H82.4V8.26ZM83.24 8.26H82.82V0H83.24V8.26ZM84.92 8.26H83.66V0H84.92V8.26ZM86.6 8.26H86.18V0H86.6V8.26ZM87.44 8.26H87.02V0H87.44V8.26ZM95.84 8.26H94.58V0H95.84V8.26ZM97.52 8.26H96.26V0H97.52V8.26ZM99.2 8.26H98.78V0H99.2V8.26ZM100.04 8.26H99.62V0H100.04V8.26ZM100.88 8.26H100.46V0H100.88V8.26ZM101.72 8.26H101.3V0H101.72V8.26ZM103.4 8.26H102.14V0H103.4V8.26ZM105.08 8.26H104.66V0H105.08V8.26ZM106.76 8.26H105.5V0H106.76V8.26ZM107.6 8.26H107.18V0H107.6V8.26Z" fill="black"/>
</svg>
