<svg width="120" height="12" viewBox="0 0 120 12" fill="none" xmlns="http://www.w3.org/2000/svg">
<path d="M9.75 8.86L9.54 11.62H0.5V11.09C0.826667 11.0767 1.09 11.0467 1.29 11C1.49 10.9533 1.64667 10.8767 1.76 10.77C1.87333 10.6567 1.94667 10.4967 1.98 10.29C2.02 10.0833 2.04 9.81667 2.04 9.49V2.97C2.04 2.64333 2.02333 2.38 1.99 2.18C1.95667 1.98 1.89333 1.82 1.8 1.7C1.7 1.58667 1.55667 1.50667 1.37 1.46C1.18333 1.42 0.94 1.39 0.64 1.37V0.84H4.9V1.37C4.6 1.38333 4.35667 1.41333 4.17 1.46C3.99 1.50667 3.85333 1.59 3.76 1.71C3.66 1.83 3.59333 1.99667 3.56 2.21C3.52667 2.42333 3.51 2.71 3.51 3.07V9.1C3.51 9.49333 3.55 9.81333 3.63 10.06C3.71 10.3067 3.84667 10.4967 4.04 10.63C4.22667 10.77 4.48 10.8633 4.8 10.91C5.11333 10.9633 5.51333 10.99 6 10.99C6.53333 10.99 6.98333 10.96 7.35 10.9C7.71 10.84 8.01333 10.7333 8.26 10.58C8.50667 10.4267 8.70333 10.21 8.85 9.93C8.99667 9.65667 9.12 9.3 9.22 8.86H9.75ZM13.24 4.06V9.39C13.24 9.75667 13.2567 10.05 13.29 10.27C13.3233 10.49 13.3867 10.6633 13.48 10.79C13.5733 10.9167 13.7033 11.0033 13.87 11.05C14.0367 11.0967 14.26 11.1233 14.54 11.13V11.62H10.52V11.13C10.8 11.1233 11.03 11.0933 11.21 11.04C11.39 10.9867 11.5267 10.9033 11.62 10.79C11.72 10.67 11.7867 10.5067 11.82 10.3C11.8533 10.0867 11.87 9.81667 11.87 9.49V7.7C11.87 7.16 11.8633 6.71333 11.85 6.36C11.8367 6.01333 11.81 5.77333 11.77 5.64C11.7233 5.42667 11.6167 5.28 11.45 5.2C11.2833 5.12 10.9667 5.08 10.5 5.08V4.59L13.24 4.06ZM11.63 1.22C11.63 0.973333 11.7133 0.766667 11.88 0.6C12.0467 0.433333 12.2533 0.35 12.5 0.35C12.74 0.35 12.9433 0.433333 13.11 0.6C13.2833 0.766667 13.37 0.973333 13.37 1.22C13.37 1.46 13.2833 1.66333 13.11 1.83C12.9433 2.00333 12.74 2.09 12.5 2.09C12.2533 2.09 12.0467 2.00333 11.88 1.83C11.7133 1.66333 11.63 1.46 11.63 1.22ZM17.47 7.45V8.69C17.47 9.05 17.52 9.37667 17.62 9.67C17.7267 9.96333 17.87 10.2133 18.05 10.42C18.23 10.6333 18.45 10.8 18.71 10.92C18.9633 11.04 19.24 11.1 19.54 11.1C19.8667 11.1 20.1633 11.0267 20.43 10.88C20.6967 10.7267 20.9267 10.5133 21.12 10.24C21.3067 9.96667 21.4533 9.63667 21.56 9.25C21.6667 8.86333 21.72 8.43 21.72 7.95C21.72 7.47667 21.6667 7.04 21.56 6.64C21.4467 6.24667 21.29 5.90667 21.09 5.62C20.8967 5.33333 20.6633 5.11333 20.39 4.96C20.11 4.8 19.8067 4.72 19.48 4.72C19.1 4.72 18.76 4.81 18.46 4.99C18.16 5.17 17.9333 5.42333 17.78 5.75C17.5733 6.16333 17.47 6.73 17.47 7.45ZM17.44 0V5.19H17.5C17.7933 4.80333 18.12 4.51667 18.48 4.33C18.84 4.15 19.26 4.06 19.74 4.06C20.24 4.06 20.7067 4.15667 21.14 4.35C21.5733 4.55 21.9533 4.82333 22.28 5.17C22.6 5.51 22.85 5.91667 23.03 6.39C23.2167 6.86333 23.31 7.37 23.31 7.91C23.31 8.46333 23.2167 8.97333 23.03 9.44C22.8433 9.91333 22.5867 10.3233 22.26 10.67C21.94 11.0167 21.56 11.2867 21.12 11.48C20.68 11.6733 20.2033 11.77 19.69 11.77C19.1633 11.77 18.6667 11.6733 18.2 11.48C17.74 11.2867 17.36 11.02 17.06 10.68L16.4 11.62H16.1V3.16C16.1 2.22 16.0367 1.62 15.91 1.36C15.8833 1.29333 15.8533 1.24 15.82 1.2C15.78 1.15333 15.7233 1.11333 15.65 1.08C15.5767 1.05333 15.4733 1.02333 15.34 0.99C15.2067 0.963333 15.03 0.936666 14.81 0.91V0.56L17.44 0ZM27.09 8.92V9.39C27.09 9.77667 27.0967 10.08 27.11 10.3C27.13 10.5267 27.18 10.7 27.26 10.82C27.34 10.9333 27.4533 11.01 27.6 11.05C27.7533 11.0833 27.9633 11.11 28.23 11.13V11.62H24.51V11.13C24.7833 11.1233 24.9967 11.0967 25.15 11.05C25.31 11.01 25.4333 10.9333 25.52 10.82C25.6 10.7067 25.6533 10.5467 25.68 10.34C25.7 10.1267 25.71 9.84333 25.71 9.49V7.85C25.71 7.21667 25.7033 6.72333 25.69 6.37C25.6767 6.01667 25.63 5.75667 25.55 5.59C25.47 5.41667 25.3467 5.31333 25.18 5.28C25.0133 5.25333 24.78 5.24 24.48 5.24V4.75L26.93 4.21L27.13 5.95H27.18C27.3067 5.67 27.46 5.41333 27.64 5.18C27.82 4.94667 28.0167 4.74667 28.23 4.58C28.45 4.42 28.6767 4.29333 28.91 4.2C29.1433 4.10667 29.38 4.06 29.62 4.06C29.92 4.06 30.1567 4.13333 30.33 4.28C30.5033 4.42 30.59 4.61333 30.59 4.86C30.59 5.08 30.52 5.25333 30.38 5.38C30.24 5.50667 30.0367 5.57 29.77 5.57C29.6233 5.57 29.5 5.55333 29.4 5.52C29.2933 5.48 29.2 5.44 29.12 5.4C29.04 5.35333 28.9667 5.31333 28.9 5.28C28.8267 5.24 28.75 5.22 28.67 5.22C28.4167 5.22 28.1633 5.38333 27.91 5.71C27.6567 6.03 27.46 6.43667 27.32 6.93C27.2467 7.20333 27.19 7.51 27.15 7.85C27.11 8.19 27.09 8.54667 27.09 8.92ZM37.38 9.93L37.81 10.32C37.0167 11.28 36.0333 11.76 34.86 11.76C34.3067 11.76 33.8067 11.67 33.36 11.49C32.9133 11.3033 32.5267 11.0467 32.2 10.72C31.88 10.3867 31.63 9.99 31.45 9.53C31.2767 9.06333 31.19 8.55 31.19 7.99C31.19 7.42333 31.2833 6.89667 31.47 6.41C31.6567 5.92333 31.92 5.51 32.26 5.17C32.6 4.82333 33.0067 4.55 33.48 4.35C33.9467 4.15667 34.46 4.06 35.02 4.06C35.9267 4.06 36.6267 4.30667 37.12 4.8C37.62 5.28667 37.87 5.98667 37.87 6.9C37.87 7.03333 37.8433 7.11333 37.79 7.14C37.7367 7.16667 37.6167 7.18 37.43 7.18H32.83C32.81 7.25333 32.7933 7.34667 32.78 7.46C32.7733 7.56667 32.77 7.68333 32.77 7.81C32.77 8.29667 32.83 8.74 32.95 9.14C33.0633 9.53333 33.23 9.87 33.45 10.15C33.67 10.43 33.93 10.6467 34.23 10.8C34.5367 10.9533 34.8767 11.03 35.25 11.03C35.6433 11.03 36.0067 10.9433 36.34 10.77C36.6733 10.5967 37.02 10.3167 37.38 9.93ZM32.92 6.54H35.5C35.6867 6.54 35.8367 6.53333 35.95 6.52C36.0633 6.51333 36.1467 6.49667 36.2 6.47C36.2533 6.44333 36.29 6.40333 36.31 6.35C36.33 6.29667 36.34 6.23 36.34 6.15C36.34 5.71667 36.2033 5.37333 35.93 5.12C35.65 4.86 35.2733 4.73 34.8 4.73C33.7933 4.73 33.1667 5.33333 32.92 6.54ZM48.11 11.62H43.07V11.09C43.4367 11.0767 43.73 11.0467 43.95 11C44.17 10.9533 44.3367 10.8767 44.45 10.77C44.57 10.6567 44.65 10.4967 44.69 10.29C44.73 10.0833 44.75 9.81667 44.75 9.49V2.97C44.75 2.64333 44.7367 2.38 44.71 2.18C44.6767 1.98 44.61 1.82 44.51 1.7C44.41 1.58667 44.2667 1.50667 44.08 1.46C43.8933 1.42 43.65 1.39 43.35 1.37V0.84H47.54C48.8 0.84 49.78 1.06333 50.48 1.51C51.18 1.95667 51.53 2.58667 51.53 3.4C51.53 4.02 51.3367 4.52333 50.95 4.91C50.5633 5.30333 49.95 5.62667 49.11 5.88V5.94C49.3967 5.96667 49.6467 5.99667 49.86 6.03C50.08 6.07 50.2733 6.11667 50.44 6.17C50.6067 6.21667 50.7633 6.28 50.91 6.36C51.05 6.43333 51.19 6.51667 51.33 6.61C52.1633 7.19667 52.58 7.93333 52.58 8.82C52.58 9.31333 52.4433 9.77333 52.17 10.2C51.89 10.6267 51.5033 10.96 51.01 11.2C50.85 11.2867 50.6867 11.3533 50.52 11.4C50.3533 11.4533 50.1567 11.4967 49.93 11.53C49.71 11.5633 49.4533 11.5867 49.16 11.6C48.8667 11.6133 48.5167 11.62 48.11 11.62ZM48.16 11.02C49.8467 11.02 50.69 10.2967 50.69 8.85C50.69 7.79667 50.2567 7.06 49.39 6.64C49.2367 6.57333 49.09 6.51667 48.95 6.47C48.81 6.42333 48.6467 6.38667 48.46 6.36C48.2733 6.34 48.0533 6.32333 47.8 6.31C47.54 6.30333 47.2233 6.3 46.85 6.3H46.22V9.42C46.22 9.99333 46.37 10.4033 46.67 10.65C46.97 10.8967 47.4667 11.02 48.16 11.02ZM46.22 5.6H47.01C47.2967 5.6 47.54 5.59667 47.74 5.59C47.9333 5.57667 48.1 5.56 48.24 5.54C48.38 5.51333 48.5033 5.48 48.61 5.44C48.7167 5.4 48.8267 5.34 48.94 5.26C49.24 5.07333 49.4533 4.85 49.58 4.59C49.7067 4.33 49.77 3.99 49.77 3.57C49.77 2.83 49.59 2.3 49.23 1.98C48.87 1.66 48.3067 1.5 47.54 1.5H46.46C46.3 1.5 46.22 1.58 46.22 1.74V5.6ZM58.17 8.58V7.48C57.6367 7.68 57.1867 7.88 56.82 8.08C56.4467 8.27333 56.15 8.47 55.93 8.67C55.7033 8.86333 55.54 9.05667 55.44 9.25C55.3467 9.45 55.3 9.65333 55.3 9.86C55.3 10.1667 55.4 10.4167 55.6 10.61C55.8067 10.81 56.08 10.91 56.42 10.91C56.66 10.91 56.8867 10.8467 57.1 10.72C57.3067 10.6 57.49 10.4367 57.65 10.23C57.81 10.0167 57.9367 9.77 58.03 9.49C58.1233 9.20333 58.17 8.9 58.17 8.58ZM56.15 7.76L58.17 6.87V6.3C58.17 5.16 57.6833 4.59 56.71 4.59C56.55 4.59 56.4133 4.60333 56.3 4.63C56.1933 4.66333 56.1 4.71 56.02 4.77C55.9467 4.83667 55.88 4.93 55.82 5.05C55.76 5.17667 55.7033 5.32667 55.65 5.5C55.5433 5.77333 55.4433 5.95333 55.35 6.04C55.25 6.12667 55.1067 6.17 54.92 6.17C54.4533 6.17 54.22 5.93667 54.22 5.47C54.22 5.02333 54.4567 4.67667 54.93 4.43C55.41 4.18333 56.0867 4.06 56.96 4.06C57.8933 4.06 58.5567 4.22667 58.95 4.56C59.3433 4.88667 59.54 5.44667 59.54 6.24V9.38C59.54 10.4467 59.75 10.98 60.17 10.98C60.2967 10.98 60.4233 10.9633 60.55 10.93C60.67 10.8967 60.77 10.81 60.85 10.67L61.05 11C60.9367 11.22 60.73 11.4 60.43 11.54C60.1367 11.6867 59.8267 11.76 59.5 11.76C59.0867 11.76 58.78 11.63 58.58 11.37C58.38 11.11 58.28 10.74 58.28 10.26H58.21C57.9633 10.72 57.6267 11.0833 57.2 11.35C56.7733 11.6167 56.2967 11.75 55.77 11.75C55.1833 11.75 54.7233 11.6 54.39 11.3C54.05 11 53.88 10.5967 53.88 10.09C53.88 9.87 53.92 9.65667 54 9.45C54.08 9.24333 54.21 9.04667 54.39 8.86C54.5633 8.67333 54.7967 8.49 55.09 8.31C55.3767 8.13 55.73 7.94667 56.15 7.76ZM62.52 11.13L62.24 11.62H61.93V9.21H62.28C62.6467 10.53 63.31 11.19 64.27 11.19C64.6433 11.19 64.94 11.0967 65.16 10.91C65.38 10.73 65.49 10.4533 65.49 10.08C65.49 9.94 65.47 9.82 65.43 9.72C65.3833 9.62667 65.3033 9.52333 65.19 9.41C65.07 9.30333 64.9067 9.18 64.7 9.04C64.4867 8.9 64.2067 8.72333 63.86 8.51C63.5467 8.31667 63.2733 8.13667 63.04 7.97C62.8067 7.79667 62.61 7.62667 62.45 7.46C62.29 7.28667 62.17 7.1 62.09 6.9C62.01 6.70667 61.97 6.48 61.97 6.22C61.97 5.9 62.0267 5.60667 62.14 5.34C62.2467 5.07333 62.3933 4.84667 62.58 4.66C62.7667 4.47333 62.9833 4.32667 63.23 4.22C63.4833 4.11333 63.76 4.06 64.06 4.06C64.3133 4.06 64.5733 4.1 64.84 4.18C65.1133 4.26 65.3533 4.36333 65.56 4.49L65.84 4.2H66.1V6.22H65.74C65.5333 5.64667 65.31 5.24 65.07 5C64.8233 4.75333 64.5233 4.63 64.17 4.63C63.8567 4.63 63.6033 4.71667 63.41 4.89C63.2167 5.05667 63.12 5.29 63.12 5.59C63.12 5.74333 63.1467 5.88 63.2 6C63.2533 6.11333 63.3333 6.22667 63.44 6.34C63.5533 6.45333 63.6967 6.56667 63.87 6.68C64.0433 6.8 64.25 6.93333 64.49 7.08C64.8967 7.33333 65.24 7.56 65.52 7.76C65.8067 7.95333 66.04 8.14667 66.22 8.34C66.3933 8.52667 66.5233 8.72333 66.61 8.93C66.69 9.13667 66.73 9.37 66.73 9.63C66.73 10.2967 66.5167 10.8167 66.09 11.19C65.6633 11.57 65.1 11.76 64.4 11.76C63.6667 11.76 63.04 11.55 62.52 11.13ZM72.26 11.62V11.13C72.5733 11.13 72.7867 11.1167 72.9 11.09C73.02 11.0633 73.08 11.0267 73.08 10.98C73.0667 10.9 72.99 10.7633 72.85 10.57C72.71 10.3767 72.53 10.1433 72.31 9.87L70.82 8.08L70.3 8.57V9.39C70.3 9.75667 70.3167 10.05 70.35 10.27C70.3833 10.49 70.4467 10.6633 70.54 10.79C70.6267 10.9167 70.7567 11.0033 70.93 11.05C71.1033 11.0967 71.33 11.1233 71.61 11.13V11.62H67.63V11.13C67.91 11.1233 68.1367 11.0967 68.31 11.05C68.4833 11.0033 68.6167 10.9167 68.71 10.79C68.81 10.67 68.88 10.5067 68.92 10.3C68.9533 10.1 68.97 9.83 68.97 9.49V3.63C68.97 2.91667 68.9633 2.38 68.95 2.02C68.9367 1.65333 68.89 1.40333 68.81 1.27C68.7233 1.14333 68.5833 1.06667 68.39 1.04C68.19 1.02 67.9267 1.01 67.6 1.01V0.53L70.3 0V7.69L71.61 6.41C72.03 5.99 72.34 5.68 72.54 5.48C72.7467 5.28 72.85 5.13 72.85 5.03C72.85 4.92333 72.7533 4.84 72.56 4.78C72.36 4.72 72.08 4.69 71.72 4.69V4.2H75.36V4.69C75.18 4.69 75.0267 4.7 74.9 4.72C74.7667 4.74 74.6433 4.77667 74.53 4.83C74.41 4.88333 74.2833 4.96 74.15 5.06C74.0233 5.16 73.8767 5.28333 73.71 5.43L71.69 7.22L74.46 10.36C74.5933 10.52 74.7133 10.65 74.82 10.75C74.9267 10.8433 75.0333 10.92 75.14 10.98C75.2467 11.0333 75.3633 11.07 75.49 11.09C75.6167 11.1167 75.77 11.13 75.95 11.13V11.62H72.26ZM82.37 9.93L82.81 10.32C82.0167 11.28 81.03 11.76 79.85 11.76C79.3033 11.76 78.8033 11.67 78.35 11.49C77.9033 11.3033 77.52 11.0467 77.2 10.72C76.88 10.3867 76.63 9.99 76.45 9.53C76.27 9.06333 76.18 8.55 76.18 7.99C76.18 7.42333 76.2733 6.89667 76.46 6.41C76.6467 5.92333 76.9133 5.51 77.26 5.17C77.6 4.82333 78.0033 4.55 78.47 4.35C78.9433 4.15667 79.46 4.06 80.02 4.06C80.9267 4.06 81.6267 4.30667 82.12 4.8C82.6133 5.28667 82.86 5.98667 82.86 6.9C82.86 7.03333 82.8367 7.11333 82.79 7.14C82.7367 7.16667 82.6167 7.18 82.43 7.18H77.82C77.8 7.25333 77.7867 7.34667 77.78 7.46C77.7733 7.56667 77.77 7.68333 77.77 7.81C77.77 8.29667 77.8267 8.74 77.94 9.14C78.06 9.53333 78.23 9.87 78.45 10.15C78.6633 10.43 78.9233 10.6467 79.23 10.8C79.53 10.9533 79.8667 11.03 80.24 11.03C80.6333 11.03 81 10.9433 81.34 10.77C81.6733 10.5967 82.0167 10.3167 82.37 9.93ZM77.92 6.54H80.5C80.6867 6.54 80.8333 6.53333 80.94 6.52C81.0533 6.51333 81.14 6.49667 81.2 6.47C81.2533 6.44333 81.29 6.40333 81.31 6.35C81.33 6.29667 81.34 6.23 81.34 6.15C81.34 5.71667 81.2 5.37333 80.92 5.12C80.6467 4.86 80.2733 4.73 79.8 4.73C78.7867 4.73 78.16 5.33333 77.92 6.54ZM86.63 8.92V9.39C86.63 9.77667 86.64 10.08 86.66 10.3C86.6733 10.5267 86.72 10.7 86.8 10.82C86.88 10.9333 86.9967 11.01 87.15 11.05C87.2967 11.0833 87.5067 11.11 87.78 11.13V11.62H84.05V11.13C84.3233 11.1233 84.54 11.0967 84.7 11.05C84.8533 11.01 84.9733 10.9333 85.06 10.82C85.1467 10.7067 85.2 10.5467 85.22 10.34C85.2467 10.1267 85.26 9.84333 85.26 9.49V7.85C85.26 7.21667 85.2533 6.72333 85.24 6.37C85.22 6.01667 85.1733 5.75667 85.1 5.59C85.02 5.41667 84.8933 5.31333 84.72 5.28C84.5533 5.25333 84.32 5.24 84.02 5.24V4.75L86.47 4.21L86.67 5.95H86.73C86.85 5.67 87 5.41333 87.18 5.18C87.36 4.94667 87.56 4.74667 87.78 4.58C87.9933 4.42 88.2167 4.29333 88.45 4.2C88.6833 4.10667 88.92 4.06 89.16 4.06C89.46 4.06 89.6967 4.13333 89.87 4.28C90.0433 4.42 90.13 4.61333 90.13 4.86C90.13 5.08 90.06 5.25333 89.92 5.38C89.78 5.50667 89.58 5.57 89.32 5.57C89.1667 5.57 89.04 5.55333 88.94 5.52C88.8333 5.48 88.7433 5.44 88.67 5.4C88.59 5.35333 88.5133 5.31333 88.44 5.28C88.3733 5.24 88.2967 5.22 88.21 5.22C87.9567 5.22 87.7033 5.38333 87.45 5.71C87.2033 6.03 87.01 6.43667 86.87 6.93C86.79 7.20333 86.73 7.51 86.69 7.85C86.65 8.19 86.63 8.54667 86.63 8.92ZM94.02 11.77L91.65 5.94C91.5433 5.66 91.4433 5.43667 91.35 5.27C91.2633 5.11 91.17 4.98667 91.07 4.9C90.9633 4.81333 90.8467 4.76 90.72 4.74C90.5933 4.71333 90.4433 4.69667 90.27 4.69V4.2H93.98V4.69C93.7933 4.69667 93.64 4.70667 93.52 4.72C93.3933 4.72667 93.2967 4.74667 93.23 4.78C93.1567 4.81333 93.1067 4.86 93.08 4.92C93.0533 4.98 93.04 5.06667 93.04 5.18C93.04 5.34 93.06 5.49 93.1 5.63C93.1467 5.77 93.1933 5.91 93.24 6.05L94.72 10.11H94.78L96.05 7.1C96.2433 6.63333 96.3833 6.26 96.47 5.98C96.5567 5.7 96.6 5.45333 96.6 5.24C96.6 5.02 96.5433 4.87333 96.43 4.8C96.3167 4.72667 96.0733 4.69 95.7 4.69V4.2H98.49V4.69C98.3367 4.69 98.2 4.72667 98.08 4.8C97.96 4.87333 97.8533 4.96667 97.76 5.08C97.6867 5.18667 97.61 5.32667 97.53 5.5C97.45 5.66667 97.37 5.84333 97.29 6.03C97.21 6.21667 97.1367 6.40333 97.07 6.59C97.0033 6.77 96.9433 6.91667 96.89 7.03L94.83 11.77H94.02ZM101.93 4.06V9.39C101.93 9.75667 101.947 10.05 101.98 10.27C102.013 10.49 102.077 10.6633 102.17 10.79C102.263 10.9167 102.393 11.0033 102.56 11.05C102.727 11.0967 102.95 11.1233 103.23 11.13V11.62H99.21V11.13C99.49 11.1233 99.72 11.0933 99.9 11.04C100.08 10.9867 100.217 10.9033 100.31 10.79C100.41 10.67 100.477 10.5067 100.51 10.3C100.543 10.0867 100.56 9.81667 100.56 9.49V7.7C100.56 7.16 100.553 6.71333 100.54 6.36C100.527 6.01333 100.5 5.77333 100.46 5.64C100.413 5.42667 100.307 5.28 100.14 5.2C99.9733 5.12 99.6567 5.08 99.19 5.08V4.59L101.93 4.06ZM100.32 1.22C100.32 0.973333 100.403 0.766667 100.57 0.6C100.737 0.433333 100.943 0.35 101.19 0.35C101.43 0.35 101.633 0.433333 101.8 0.6C101.973 0.766667 102.06 0.973333 102.06 1.22C102.06 1.46 101.973 1.66333 101.8 1.83C101.633 2.00333 101.43 2.09 101.19 2.09C100.943 2.09 100.737 2.00333 100.57 1.83C100.403 1.66333 100.32 1.46 100.32 1.22ZM106.44 0V9.44C106.44 9.79333 106.453 10.0767 106.48 10.29C106.507 10.5033 106.567 10.67 106.66 10.79C106.747 10.9167 106.87 11.0033 107.03 11.05C107.197 11.0967 107.413 11.1233 107.68 11.13V11.62H103.82V11.13C104.1 11.1233 104.323 11.0933 104.49 11.04C104.657 10.9867 104.79 10.9033 104.89 10.79C104.99 10.6833 105.057 10.53 105.09 10.33C105.123 10.1233 105.14 9.85667 105.14 9.53V3.5C105.14 2.99333 105.133 2.57 105.12 2.23C105.1 1.89 105.077 1.66 105.05 1.54C105.003 1.32667 104.893 1.18333 104.72 1.11C104.547 1.03 104.237 0.99 103.79 0.99V0.52L106.44 0ZM110.99 0V9.44C110.99 9.79333 111.003 10.0767 111.03 10.29C111.057 10.5033 111.117 10.67 111.21 10.79C111.297 10.9167 111.42 11.0033 111.58 11.05C111.747 11.0967 111.963 11.1233 112.23 11.13V11.62H108.37V11.13C108.65 11.1233 108.873 11.0933 109.04 11.04C109.207 10.9867 109.34 10.9033 109.44 10.79C109.54 10.6833 109.607 10.53 109.64 10.33C109.673 10.1233 109.69 9.85667 109.69 9.53V3.5C109.69 2.99333 109.683 2.57 109.67 2.23C109.65 1.89 109.627 1.66 109.6 1.54C109.553 1.32667 109.443 1.18333 109.27 1.11C109.097 1.03 108.787 0.99 108.34 0.99V0.52L110.99 0ZM119.49 9.93L119.92 10.32C119.127 11.28 118.143 11.76 116.97 11.76C116.417 11.76 115.917 11.67 115.47 11.49C115.023 11.3033 114.637 11.0467 114.31 10.72C113.99 10.3867 113.74 9.99 113.56 9.53C113.387 9.06333 113.3 8.55 113.3 7.99C113.3 7.42333 113.393 6.89667 113.58 6.41C113.767 5.92333 114.03 5.51 114.37 5.17C114.71 4.82333 115.117 4.55 115.59 4.35C116.057 4.15667 116.57 4.06 117.13 4.06C118.037 4.06 118.737 4.30667 119.23 4.8C119.73 5.28667 119.98 5.98667 119.98 6.9C119.98 7.03333 119.953 7.11333 119.9 7.14C119.847 7.16667 119.727 7.18 119.54 7.18H114.94C114.92 7.25333 114.903 7.34667 114.89 7.46C114.883 7.56667 114.88 7.68333 114.88 7.81C114.88 8.29667 114.94 8.74 115.06 9.14C115.173 9.53333 115.34 9.87 115.56 10.15C115.78 10.43 116.04 10.6467 116.34 10.8C116.647 10.9533 116.987 11.03 117.36 11.03C117.753 11.03 118.117 10.9433 118.45 10.77C118.783 10.5967 119.13 10.3167 119.49 9.93ZM115.03 6.54H117.61C117.797 6.54 117.947 6.53333 118.06 6.52C118.173 6.51333 118.257 6.49667 118.31 6.47C118.363 6.44333 118.4 6.40333 118.42 6.35C118.44 6.29667 118.45 6.23 118.45 6.15C118.45 5.71667 118.313 5.37333 118.04 5.12C117.76 4.86 117.383 4.73 116.91 4.73C115.903 4.73 115.277 5.33333 115.03 6.54Z" fill="black"/>
</svg>
