<svg width="32" height="12" viewBox="0 0 32 12" fill="none" xmlns="http://www.w3.org/2000/svg">
<path d="M0.94 11.71C0.646667 11.71 0.5 11.57 0.5 11.29C0.5 11.1967 0.556667 11.0867 0.67 10.96C0.783333 10.8267 0.906667 10.7033 1.04 10.59C1.16667 10.47 1.26333 10.3867 1.33 10.34C1.37667 10.22 1.41333 10.11 1.44 10.01C1.46 9.90333 1.48 9.79 1.5 9.67C1.56667 9.25667 1.68333 8.84 1.85 8.42C2.01667 7.99333 2.18333 7.59333 2.35 7.22C2.11667 7.1 1.93 6.94 1.79 6.74C1.64333 6.54 1.57 6.30333 1.57 6.03C1.57 5.96333 1.58333 5.85333 1.61 5.7C1.63667 5.54667 1.68333 5.47 1.75 5.47C1.83667 5.47 1.88 5.54 1.88 5.68C1.88 5.82 1.88 5.91667 1.88 5.97C1.88 6.17 1.94333 6.35 2.07 6.51C2.19 6.66333 2.33 6.78333 2.49 6.87C2.97667 5.81667 3.56 4.80333 4.24 3.83C4.92 2.86333 5.66333 1.96333 6.47 1.13C6.77667 0.803333 7.10333 0.533334 7.45 0.32C7.79667 0.106667 8.19667 0 8.65 0C8.97667 0 9.23667 0.103333 9.43 0.31C9.62333 0.523333 9.72 0.786667 9.72 1.1C9.72 1.22 9.70333 1.33667 9.67 1.45C9.48333 2.22333 9.20333 2.94333 8.83 3.61C8.45 4.28333 7.97 4.89333 7.39 5.44C7.05667 5.76 6.66667 6.07667 6.22 6.39C5.78 6.70333 5.31333 6.96 4.82 7.16C4.33333 7.36667 3.84667 7.47 3.36 7.47C3.26 7.47 3.15667 7.46333 3.05 7.45C2.95 7.43667 2.85333 7.41 2.76 7.37C2.57333 7.81 2.4 8.25 2.24 8.69C2.08 9.13 1.95333 9.58667 1.86 10.06C2.58 9.62 3.36 9.30333 4.2 9.11C5.04 8.91667 5.88 8.82 6.72 8.82C6.94667 8.82 7.20333 8.86 7.49 8.94C7.77667 9.01333 8.02667 9.13667 8.24 9.31C8.44667 9.47667 8.55 9.70333 8.55 9.99C8.55 10.01 8.54333 10.07 8.53 10.17C8.51667 10.2767 8.49667 10.34 8.47 10.36C8.39667 10.2667 8.34667 10.1767 8.32 10.09C8.18667 9.75667 7.98 9.54333 7.7 9.45C7.42 9.36333 7.11333 9.32 6.78 9.32C6.04 9.32 5.26667 9.39333 4.46 9.54C3.65333 9.68 2.92333 9.94333 2.27 10.33C2.20333 10.3633 2.13667 10.3967 2.07 10.43C1.99667 10.4633 1.92333 10.4933 1.85 10.52C1.82333 10.68 1.77667 10.8533 1.71 11.04C1.64333 11.2267 1.55 11.3867 1.43 11.52C1.31 11.6467 1.14667 11.71 0.94 11.71ZM3.33 7.11C3.77 7.11 4.22 7 4.68 6.78C5.14667 6.56 5.59 6.29667 6.01 5.99C6.43 5.68333 6.78667 5.39 7.08 5.11C7.63333 4.58333 8.08667 4.00667 8.44 3.38C8.79333 2.76 9.06 2.08 9.24 1.34C9.24667 1.31333 9.25 1.28667 9.25 1.26C9.25 1.22667 9.25 1.19667 9.25 1.17C9.25 1.01 9.21667 0.836667 9.15 0.65C9.07667 0.456667 8.94 0.36 8.74 0.36C8.42 0.36 8.07 0.486667 7.69 0.74C7.31667 0.993334 6.93 1.32667 6.53 1.74C6.13667 2.15333 5.75 2.61 5.37 3.11C4.99 3.61 4.63667 4.11333 4.31 4.62C3.98333 5.12 3.7 5.58333 3.46 6.01C3.21333 6.43667 3.03 6.78 2.91 7.04C2.95667 7.06667 3.02667 7.08333 3.12 7.09C3.21333 7.10333 3.28333 7.11 3.33 7.11ZM10 4.59C9.93333 4.59 9.87 4.57333 9.81 4.54C9.75667 4.50667 9.73 4.45667 9.73 4.39C9.73 4.31667 9.76333 4.20333 9.83 4.05C9.89667 3.89667 9.98 3.74 10.08 3.58C10.18 3.42 10.29 3.28333 10.41 3.17C10.5233 3.06333 10.6267 3.01 10.72 3.01C10.8 3.01 10.84 3.05667 10.84 3.15C10.84 3.25667 10.7767 3.34333 10.65 3.41C10.5767 3.45667 10.5133 3.54667 10.46 3.68C10.4133 3.80667 10.3733 3.94 10.34 4.08C10.3067 4.22 10.2767 4.33333 10.25 4.42C10.2233 4.53333 10.14 4.59 10 4.59ZM9.72 9.95C9.5 9.95 9.34 9.86 9.24 9.68C9.14 9.49333 9.07333 9.28333 9.04 9.05C9.01333 8.81 9 8.61667 9 8.47C9 8.37667 9.01333 8.20333 9.04 7.95C9.06 7.69667 9.09 7.41333 9.13 7.1C9.17667 6.78667 9.23 6.48 9.29 6.18C9.35 5.88667 9.42333 5.64 9.51 5.44C9.59 5.24667 9.67667 5.15 9.77 5.15C9.84333 5.15 9.91 5.17333 9.97 5.22C10.0233 5.26667 10.05 5.32667 10.05 5.4C10.05 5.51333 10.0167 5.69 9.95 5.93C9.89 6.17667 9.81333 6.45333 9.72 6.76C9.63333 7.06667 9.55667 7.37667 9.49 7.69C9.41667 8.00333 9.38 8.28667 9.38 8.54C9.38 8.6 9.38667 8.71 9.4 8.87C9.41333 9.03 9.44333 9.17667 9.49 9.31C9.53667 9.45 9.61333 9.52 9.72 9.52C9.86 9.52 10.0133 9.41667 10.18 9.21C10.3467 9.00333 10.5167 8.75 10.69 8.45C10.8633 8.14333 11.0233 7.84 11.17 7.54C11.3233 7.23333 11.45 6.97667 11.55 6.77C11.65 6.56333 11.72 6.46 11.76 6.46C11.8067 6.46 11.8367 6.47667 11.85 6.51C11.8633 6.54333 11.87 6.58 11.87 6.62C11.87 6.74 11.82 6.93333 11.72 7.2C11.6133 7.46667 11.4767 7.75667 11.31 8.07C11.1433 8.38333 10.9633 8.68 10.77 8.96C10.57 9.24667 10.3767 9.48333 10.19 9.67C10.0033 9.85667 9.84667 9.95 9.72 9.95ZM12.52 9.91C12.24 9.91 12.02 9.81333 11.86 9.62C11.7 9.42667 11.5867 9.2 11.52 8.94C11.4533 8.67333 11.42 8.43 11.42 8.21C11.42 8.05667 11.4433 7.81 11.49 7.47C11.5367 7.12333 11.61 6.74667 11.71 6.34C11.81 5.92667 11.93 5.53 12.07 5.15C12.21 4.76333 12.3733 4.44667 12.56 4.2C12.7467 3.95333 12.95 3.83 13.17 3.83C13.33 3.83 13.4467 3.89 13.52 4.01C13.6 4.13667 13.65 4.29 13.67 4.47C13.6967 4.65 13.71 4.82667 13.71 5C13.71 5.17333 13.71 5.31667 13.71 5.43C13.71 5.47667 13.68 5.52333 13.62 5.57C13.5533 5.62333 13.4967 5.65 13.45 5.65C13.3567 5.65 13.2967 5.61 13.27 5.53C13.2433 5.44333 13.23 5.35 13.23 5.25C13.23 5.14333 13.2333 5.04667 13.24 4.96C13.2533 4.87333 13.26 4.80667 13.26 4.76C13.26 4.71333 13.25 4.63333 13.23 4.52C13.21 4.41333 13.1733 4.36 13.12 4.36C12.9667 4.42 12.8267 4.56667 12.7 4.8C12.5667 5.04 12.4467 5.32333 12.34 5.65C12.2333 5.97667 12.1467 6.31333 12.08 6.66C12.0067 7.00667 11.95 7.32333 11.91 7.61C11.8633 7.89 11.84 8.1 11.84 8.24C11.84 8.37333 11.8567 8.54 11.89 8.74C11.9233 8.94 11.99 9.12 12.09 9.28C12.19 9.44 12.3267 9.52 12.5 9.52C12.7 9.52 12.8967 9.42667 13.09 9.24C13.2833 9.06 13.4733 8.83333 13.66 8.56C13.84 8.29333 14.0033 8.02 14.15 7.74C14.3033 7.46667 14.4267 7.24 14.52 7.06C14.62 6.88 14.69 6.79 14.73 6.79C14.7767 6.79 14.8033 6.81333 14.81 6.86C14.8233 6.90667 14.8233 6.94333 14.81 6.97L14.8 7.02C14.74 7.22667 14.6367 7.49 14.49 7.81C14.3433 8.12333 14.16 8.44333 13.94 8.77C13.7267 9.09 13.4967 9.36 13.25 9.58C13.0033 9.8 12.76 9.91 12.52 9.91ZM15.92 10.31C15.74 10.31 15.5933 10.2467 15.48 10.12C15.36 9.98667 15.2667 9.82333 15.2 9.63C15.14 9.44333 15.0967 9.25 15.07 9.05C15.05 8.85667 15.04 8.69333 15.04 8.56C15.04 8.42 15.0567 8.19333 15.09 7.88C15.1167 7.57333 15.17 7.22667 15.25 6.84C15.3233 6.46 15.4167 6.09 15.53 5.73C15.6367 5.37 15.77 5.07 15.93 4.83C16.0833 4.58333 16.26 4.45 16.46 4.43C16.4933 4.35 16.5367 4.28 16.59 4.22C16.6433 4.16 16.7167 4.13 16.81 4.13C16.9967 4.13 17.16 4.20667 17.3 4.36C17.44 4.52 17.5567 4.71667 17.65 4.95C17.7433 5.18333 17.8167 5.41333 17.87 5.64C17.9233 5.86 17.95 6.04 17.95 6.18C17.95 6.61333 17.9067 7.04 17.82 7.46L17.93 7.47C18.2033 7.47 18.4133 7.43 18.56 7.35C18.7133 7.26333 18.83 7.18 18.91 7.1C18.9967 7.02 19.0667 6.98 19.12 6.98C19.18 6.98 19.21 7.01333 19.21 7.08C19.21 7.19333 19.15 7.29333 19.03 7.38C18.9167 7.46667 18.7767 7.54667 18.61 7.62C18.4367 7.68667 18.2733 7.73667 18.12 7.77C17.96 7.79667 17.8367 7.8 17.75 7.78C17.7033 7.97333 17.6267 8.21333 17.52 8.5C17.4133 8.78667 17.2833 9.06667 17.13 9.34C16.9767 9.61333 16.7967 9.84333 16.59 10.03C16.3833 10.2167 16.16 10.31 15.92 10.31ZM17.44 7.18C17.5 6.85333 17.53 6.52 17.53 6.18C17.53 6.10667 17.5133 5.98 17.48 5.8C17.4467 5.62 17.4 5.42667 17.34 5.22C17.28 5.01333 17.2067 4.83667 17.12 4.69C17.04 4.53667 16.9533 4.46 16.86 4.46C16.8133 4.46 16.7767 4.49667 16.75 4.57C16.73 4.63667 16.7167 4.71333 16.71 4.8C16.7033 4.88 16.7 4.93667 16.7 4.97C16.7 5.34333 16.76 5.73 16.88 6.13C16.9933 6.53667 17.18 6.88667 17.44 7.18ZM15.96 9.95C16.1 9.95 16.2433 9.85333 16.39 9.66C16.5433 9.47333 16.6867 9.24 16.82 8.96C16.9533 8.68667 17.0667 8.42333 17.16 8.17C17.2533 7.91667 17.3167 7.73 17.35 7.61C16.99 7.37 16.7267 7.04333 16.56 6.63C16.3867 6.22333 16.3 5.80333 16.3 5.37C16.3 5.18333 16.3133 5.00667 16.34 4.84C16.14 5.17333 15.9767 5.57 15.85 6.03C15.7167 6.49 15.62 6.95667 15.56 7.43C15.5 7.90333 15.47 8.33667 15.47 8.73C15.47 8.82333 15.4833 8.97 15.51 9.17C15.53 9.36333 15.5767 9.54333 15.65 9.71C15.7233 9.87 15.8267 9.95 15.96 9.95ZM19.57 10.05C19.5033 10.05 19.4533 10.0267 19.42 9.98C19.38 9.93333 19.36 9.87667 19.36 9.81C19.36 9.45667 19.3767 9.1 19.41 8.74C19.4433 8.38 19.46 8.02333 19.46 7.67C19.46 7.43667 19.4533 7.14 19.44 6.78C19.4267 6.42 19.3933 6.06667 19.34 5.72C19.2867 5.36667 19.2 5.09667 19.08 4.91C19.0733 4.89 19.0633 4.87333 19.05 4.86C19.0433 4.84667 19.04 4.83 19.04 4.81C19.04 4.75667 19.0667 4.71667 19.12 4.69C19.18 4.67 19.2267 4.66 19.26 4.66C19.3933 4.66 19.4967 4.73333 19.57 4.88C19.6433 5.03333 19.7 5.22667 19.74 5.46C19.78 5.69333 19.8067 5.93333 19.82 6.18C19.8333 6.42667 19.84 6.65 19.84 6.85C19.84 7.05 19.84 7.18667 19.84 7.26C19.84 7.35333 19.8433 7.44333 19.85 7.53C19.85 7.61 19.85 7.69667 19.85 7.79C19.89 7.66333 19.9567 7.46333 20.05 7.19C20.1433 6.92333 20.2533 6.62333 20.38 6.29C20.5133 5.95667 20.6567 5.64 20.81 5.34C20.9633 5.03333 21.1167 4.78333 21.27 4.59C21.4233 4.39 21.57 4.29 21.71 4.29C21.85 4.29 21.9533 4.38 22.02 4.56C22.0867 4.74 22.1333 4.93 22.16 5.13C22.18 5.33667 22.19 5.49333 22.19 5.6C22.19 5.66 22.1867 5.77 22.18 5.93C22.1667 6.08333 22.1433 6.22333 22.11 6.35C22.0767 6.48333 22.02 6.55 21.94 6.55C21.8667 6.55 21.83 6.46667 21.83 6.3C21.83 6.22 21.8333 6.15 21.84 6.09C21.8467 6.02333 21.85 5.97 21.85 5.93C21.85 5.88333 21.8467 5.77333 21.84 5.6C21.8333 5.42667 21.8133 5.26333 21.78 5.11C21.7467 4.95 21.7 4.87 21.64 4.87C21.5867 4.87 21.52 4.92333 21.44 5.03C21.36 5.13667 21.28 5.26333 21.2 5.41C21.12 5.55 21.05 5.69 20.99 5.83C20.93 5.96333 20.89 6.05667 20.87 6.11C20.73 6.45667 20.5833 6.85 20.43 7.29C20.2767 7.73 20.1467 8.17 20.04 8.61C19.9333 9.05667 19.88 9.47 19.88 9.85C19.8133 9.98333 19.71 10.05 19.57 10.05ZM23.49 4.59C23.4233 4.59 23.3633 4.57333 23.31 4.54C23.2567 4.50667 23.23 4.45667 23.23 4.39C23.23 4.31667 23.26 4.20333 23.32 4.05C23.3867 3.89667 23.4733 3.74 23.58 3.58C23.68 3.42 23.79 3.28333 23.91 3.17C24.0233 3.06333 24.1267 3.01 24.22 3.01C24.2933 3.01 24.33 3.05667 24.33 3.15C24.33 3.25667 24.27 3.34333 24.15 3.41C24.0767 3.45667 24.0133 3.54667 23.96 3.68C23.9067 3.80667 23.8667 3.94 23.84 4.08C23.8067 4.22 23.7733 4.33333 23.74 4.42C23.7133 4.53333 23.63 4.59 23.49 4.59ZM23.21 9.95C22.9967 9.95 22.84 9.86 22.74 9.68C22.6333 9.49333 22.5667 9.28333 22.54 9.05C22.5133 8.81 22.5 8.61667 22.5 8.47C22.5 8.37667 22.51 8.20333 22.53 7.95C22.5567 7.69667 22.59 7.41333 22.63 7.1C22.67 6.78667 22.7233 6.48 22.79 6.18C22.85 5.88667 22.92 5.64 23 5.44C23.0867 5.24667 23.1767 5.15 23.27 5.15C23.3433 5.15 23.4067 5.17333 23.46 5.22C23.52 5.26667 23.55 5.32667 23.55 5.4C23.55 5.51333 23.5167 5.69 23.45 5.93C23.3833 6.17667 23.3067 6.45333 23.22 6.76C23.1333 7.06667 23.0533 7.37667 22.98 7.69C22.9133 8.00333 22.88 8.28667 22.88 8.54C22.88 8.6 22.8867 8.71 22.9 8.87C22.9133 9.03 22.9433 9.17667 22.99 9.31C23.0367 9.45 23.11 9.52 23.21 9.52C23.35 9.52 23.5033 9.41667 23.67 9.21C23.8433 9.00333 24.0167 8.75 24.19 8.45C24.3567 8.14333 24.5167 7.84 24.67 7.54C24.8167 7.23333 24.9433 6.97667 25.05 6.77C25.15 6.56333 25.22 6.46 25.26 6.46C25.3067 6.46 25.3367 6.47667 25.35 6.51C25.3633 6.54333 25.37 6.58 25.37 6.62C25.37 6.74 25.3167 6.93333 25.21 7.2C25.11 7.46667 24.9767 7.75667 24.81 8.07C24.6433 8.38333 24.46 8.68 24.26 8.96C24.0667 9.24667 23.8767 9.48333 23.69 9.67C23.5033 9.85667 23.3433 9.95 23.21 9.95ZM26.01 9.91C25.73 9.91 25.51 9.81333 25.35 9.62C25.1967 9.42667 25.0867 9.2 25.02 8.94C24.9533 8.67333 24.92 8.43 24.92 8.21C24.92 8.05667 24.9433 7.81 24.99 7.47C25.0367 7.12333 25.11 6.74667 25.21 6.34C25.3033 5.92667 25.42 5.53 25.56 5.15C25.7 4.76333 25.8633 4.44667 26.05 4.2C26.2367 3.95333 26.4433 3.83 26.67 3.83C26.83 3.83 26.9467 3.89 27.02 4.01C27.0933 4.13667 27.1433 4.29 27.17 4.47C27.19 4.65 27.2 4.82667 27.2 5C27.2 5.17333 27.2 5.31667 27.2 5.43C27.2 5.47667 27.17 5.52333 27.11 5.57C27.05 5.62333 26.9967 5.65 26.95 5.65C26.8567 5.65 26.7967 5.61 26.77 5.53C26.7433 5.44333 26.73 5.35 26.73 5.25C26.73 5.14333 26.7333 5.04667 26.74 4.96C26.7467 4.87333 26.75 4.80667 26.75 4.76C26.75 4.71333 26.7433 4.63333 26.73 4.52C26.71 4.41333 26.67 4.36 26.61 4.36C26.4633 4.42 26.3233 4.56667 26.19 4.8C26.0633 5.04 25.9467 5.32333 25.84 5.65C25.7333 5.97667 25.6433 6.31333 25.57 6.66C25.5033 7.00667 25.4467 7.32333 25.4 7.61C25.36 7.89 25.34 8.1 25.34 8.24C25.34 8.37333 25.3567 8.54 25.39 8.74C25.4233 8.94 25.4867 9.12 25.58 9.28C25.68 9.44 25.82 9.52 26 9.52C26.1933 9.52 26.39 9.42667 26.59 9.24C26.7833 9.06 26.97 8.83333 27.15 8.56C27.3367 8.29333 27.5033 8.02 27.65 7.74C27.7967 7.46667 27.92 7.24 28.02 7.06C28.12 6.88 28.1867 6.79 28.22 6.79C28.2667 6.79 28.2967 6.81333 28.31 6.86C28.3167 6.90667 28.3167 6.94333 28.31 6.97L28.29 7.02C28.2367 7.22667 28.1367 7.49 27.99 7.81C27.8367 8.12333 27.6533 8.44333 27.44 8.77C27.2267 9.09 26.9967 9.36 26.75 9.58C26.5033 9.8 26.2567 9.91 26.01 9.91ZM29.34 10.09C29.0933 10.09 28.9 9.97667 28.76 9.75C28.6267 9.53 28.5367 9.26 28.49 8.94C28.4433 8.61333 28.42 8.31 28.42 8.03C28.42 7.90333 28.4233 7.78667 28.43 7.68C28.43 7.56667 28.4367 7.47333 28.45 7.4H28.41C28.2967 7.4 28.24 7.36 28.24 7.28C28.26 7.23333 28.2933 7.19333 28.34 7.16C28.3933 7.12667 28.4433 7.10333 28.49 7.09C28.5367 6.68333 28.6267 6.26333 28.76 5.83C28.8867 5.40333 29.0633 5.01667 29.29 4.67V4.59C29.29 4.49667 29.3467 4.44 29.46 4.42C29.5067 4.37333 29.5533 4.32 29.6 4.26C29.6533 4.2 29.7133 4.17 29.78 4.17C29.8533 4.17 29.91 4.2 29.95 4.26C29.9967 4.32 30 4.38333 29.96 4.45C30.14 4.48333 30.3 4.55333 30.44 4.66C30.5867 4.77333 30.66 4.93 30.66 5.13C30.66 5.40333 30.56 5.68333 30.36 5.97C30.16 6.25 29.9233 6.50667 29.65 6.74C29.37 6.96667 29.12 7.13667 28.9 7.25C28.8667 7.47 28.85 7.69667 28.85 7.93C28.8433 8.15667 28.84 8.38333 28.84 8.61C28.84 8.71667 28.8467 8.85667 28.86 9.03C28.8733 9.19667 28.9167 9.34333 28.99 9.47C29.0567 9.60333 29.1733 9.67 29.34 9.67C29.52 9.67 29.6967 9.59 29.87 9.43C30.0433 9.27 30.21 9.06667 30.37 8.82C30.5367 8.57333 30.69 8.31667 30.83 8.05C30.97 7.77667 31.09 7.52 31.19 7.28C31.2967 7.03333 31.3733 6.84667 31.42 6.72C31.4333 6.67333 31.4567 6.62667 31.49 6.58C31.5167 6.54 31.5567 6.52 31.61 6.52C31.6833 6.52 31.72 6.56667 31.72 6.66C31.72 6.80667 31.67 7.02 31.57 7.3C31.47 7.57333 31.3333 7.87 31.16 8.19C30.9867 8.50333 30.7933 8.80667 30.58 9.1C30.3733 9.38667 30.1633 9.62333 29.95 9.81C29.73 9.99667 29.5267 10.09 29.34 10.09ZM28.97 6.81C29.1433 6.70333 29.32 6.56333 29.5 6.39C29.6733 6.22333 29.8233 6.03333 29.95 5.82C30.07 5.60667 30.13 5.39333 30.13 5.18C30.13 5.06667 30.0733 4.98333 29.96 4.93C29.8467 4.87667 29.75 4.84667 29.67 4.84C29.49 5.12667 29.34 5.44333 29.22 5.79C29.1067 6.13667 29.0233 6.47667 28.97 6.81Z" fill="black"/>
</svg>
