<svg width="56.714" height="14" viewBox="0 0 56.714 14" xmlns="http://www.w3.org/2000/svg"><path transform="translate(0 11.2) scale(.014 -.014)" d="m39 0v38l122 14h10v-52zm82 0q2 71 2.5 142t0.5 140v47q0 72-0.5 143.5t-2.5 141.5h100q-2-71-2.5-142.5t-0.5-142.5v-62q0-59 0.5-128.5t2.5-138.5zm50 0v46h280l-33-26 32 153h58l-9-173zm-132 575v39h265v-39l-122-13h-21z"/><path transform="translate(7.644 11.2) scale(.014 -.014)" d="m31 0v34l98 18h27l92-18v-34zm66 0q1 21 1.5 55.5t1 72 0.5 65.5v43q0 38-0.5 63t-2.5 53l-72 8v33l147 56 14-9-2-126v-121q0-28 0-65.5t0.5-72 1.5-55.5zm44 548q-27 0-45 17t-18 43q0 27 18 43.5t45 16.5q26 0 45-16.5t19-43.5q0-26-19-43t-45-17z"/><path transform="translate(11.508 11.2) scale(.014 -.014)" d="m184-11q-40 0-72.5 8.5t-66.5 25.5l-3 103h52l24-111-46 20v33q25-19 52-28.5t61-9.5q51 0 76.5 18.5t25.5 49.5q0 29-20.5 46t-64.5 33l-43 16q-51 18-81.5 47.5t-30.5 77.5q0 35 19 64.5t55.5 48 89.5 18.5q38 0 69-9.5t62-27.5l-5-94h-50l-20 96 36-16v-26q-43 34-94 34-40 0-61.5-16.5t-21.5-44.5q0-29 19-45t65-33l31-10q68-25 97-58t29-77q0-55-46.5-94t-136.5-39z"/><path transform="translate(17.122 11.2) scale(.014 -.014)" d="m204-11q-56 0-89 36.5t-32 127.5l3 243 21-19-85 18v34l141 14 9-9-4-129v-144q0-59 18-82t53-23q71 0 136 70l15-39h-15q-37-52-81.5-75t-89.5-23zm170 4-12 107 3 282-64 13v33l139 15 10-9-2-129v-259l60-12v-34z"/><path transform="translate(29.288 11.2) scale(.014 -.014)" d="m39 0v38l122 14h10v-52zm82 0q2 69 2.5 141t0.5 145v42q0 71-0.5 143t-2.5 143h99q-1-70-1.5-141.5t-0.5-144.5v-30q0-81 0.5-154t1.5-144zm50 0v44h102q86 0 128.5 32t42.5 92q0 64-42.5 96t-135.5 32h-95v43h93q80 0 117 28.5t37 90.5-35 87-103 25h-109v44h139q98 0 149.5-42t51.5-108q0-53-40-95t-135-54v8q110-8 158-51t48-104q0-41-24.5-80t-79-63.5-145.5-24.5zm-132 575v39h132v-52h-10z"/><path transform="translate(37.422 11.2) scale(.014 -.014)" d="m253-11q-56 0-105 25.5t-79 76.5-30 126q0 76 30.5 127.5t79.5 78 104 26.5q54 0 103-26.5t79.5-78 30.5-127.5q0-75-30.5-126t-79-76.5-103.5-25.5zm0 41q56 0 87.5 46.5t31.5 140.5q0 93-31.5 141.5t-87.5 48.5q-58 0-88.5-48.5t-30.5-141.5q0-187 119-187z"/><path transform="translate(44.506 11.2) scale(.014 -.014)" d="m184-11q-40 0-72.5 8.5t-66.5 25.5l-3 103h52l24-111-46 20v33q25-19 52-28.5t61-9.5q51 0 76.5 18.5t25.5 49.5q0 29-20.5 46t-64.5 33l-43 16q-51 18-81.5 47.5t-30.5 77.5q0 35 19 64.5t55.5 48 89.5 18.5q38 0 69-9.5t62-27.5l-5-94h-50l-20 96 36-16v-26q-43 34-94 34-40 0-61.5-16.5t-21.5-44.5q0-29 19-45t65-33l31-10q68-25 97-58t29-77q0-55-46.5-94t-136.5-39z"/><path transform="translate(50.12 11.2) scale(.014 -.014)" d="m162-11q-51 0-86.5 28t-35.5 86q0 27 12.5 50.5t46 45.5 96.5 44q29 10 69 21t74 18v-34q-31-7-66.5-18t-55.5-19q-58-22-73.5-46.5t-15.5-47.5q0-36 20.5-52t50.5-16q16 0 30 5t35 19 58 42l12-47h-28q-40-41-69.5-60t-73.5-19zm220 1q-39 0-62.5 25t-24.5 67v214q0 66-19.5 88.5t-65.5 22.5q-16 0-36.5-3t-46.5-13l41 30-21-77q-12-48-50-48-40 0-45 37 12 53 61 84.5t122 31.5q74 0 109-36.5t35-125.5v-196q0-28 8.5-39.5t24.5-11.5q19 0 34 20l19-20q-16-28-36.5-39t-46.5-11z"/></svg>