<svg width="33" height="11" viewBox="0 0 33 11" fill="none" xmlns="http://www.w3.org/2000/svg">
<path d="M6.13 9.94H0.5V0H1.58V9H6.22L6.13 9.94ZM7.18 2.98H8.18V9.94H7.18V2.98ZM7.71 1.4C7.48333 1.4 7.31 1.33 7.19 1.19C7.07 1.05 7.01 0.886667 7.01 0.7C7.01 0.513334 7.07333 0.35 7.2 0.21C7.32667 0.07 7.49667 0 7.71 0C7.92333 0 8.09333 0.07 8.22 0.21C8.34667 0.35 8.41 0.513334 8.41 0.7C8.41 0.886667 8.34667 1.05 8.22 1.19C8.09333 1.33 7.92333 1.4 7.71 1.4ZM12.72 9.11L15.07 2.98H16.09L13.38 9.94H11.95L9.7 2.98H10.79L12.72 9.11ZM19.55 9.11L21.9 2.98H22.93L20.21 9.94H18.78L16.53 2.98H17.62L19.55 9.11ZM23.99 2.98H25V9.94H23.99V2.98ZM24.52 1.4C24.3 1.4 24.1267 1.33 24 1.19C23.88 1.05 23.82 0.886667 23.82 0.7C23.82 0.513334 23.8833 0.35 24.01 0.21C24.1367 0.07 24.3067 0 24.52 0C24.7333 0 24.9033 0.07 25.03 0.21C25.1567 0.35 25.22 0.513334 25.22 0.7C25.22 0.886667 25.1567 1.05 25.03 1.19C24.9033 1.33 24.7333 1.4 24.52 1.4ZM30.05 10.05C29.0367 10.05 28.24 9.74667 27.66 9.14C27.08 8.52667 26.79 7.67333 26.79 6.58C26.79 5.84 26.9333 5.19 27.22 4.63C27.5133 4.07 27.9167 3.63333 28.43 3.32C28.9433 3.01333 29.54 2.86 30.22 2.86C31.34 2.86 32.16 3.30667 32.68 4.2L31.9 4.79C31.5267 4.12333 30.9567 3.79 30.19 3.79C29.49 3.79 28.93 4.04667 28.51 4.56C28.0833 5.06667 27.87 5.74 27.87 6.58C27.87 7.4 28.06 8.02667 28.44 8.46C28.8267 8.88667 29.3767 9.1 30.09 9.1C30.4767 9.1 30.8267 9.02 31.14 8.86C31.46 8.7 31.7233 8.45 31.93 8.11L32.68 8.69C32.12 9.59667 31.2433 10.05 30.05 10.05Z" fill="black"/>
</svg>
