<svg width="63" height="17.5" viewBox="0 0 63 17.5" xmlns="http://www.w3.org/2000/svg"><path transform="translate(0 14) scale(.014 -.014)" d="m356 735v-715q32-7 62.5-22t62.5-30 67.5-26 77.5-11q35 0 77 20 3-14 3-27 0-21-7.5-39.5t-22-32.5-35-22.5-45.5-8.5q-39 0-77 24.5t-77 54-81.5 54-90.5 24.5q-6 0-11.5 0t-11.5-1v704q-67-19-106-65t-39-115q0-27 4-45.5t10-32 14.5-23 17.5-17.5q-60 0-95 27.5t-35 93.5q0 48 25 90.5t66.5 75 95 51.5 110.5 19q11 0 21.5-0.5t20.5-1.5z"/><path transform="translate(6.342 14) scale(.014 -.014)" d="m229 505q39 0 67-12t46-33.5 28.5-50.5 15.5-62h6q42 0 77 17t60 43l15-27q-20-32-63.5-53t-89.5-29q0-10 0.5-20t0.5-21q0-123-45-193t-126-70q-33 0-66.5 12t-60.5 40-43.5 72-16.5 109q0 44 9.5 93t32 90 60 68 93.5 27zm10-435q53 0 78 52.5t25 148.5q0 6 0 12t-1 12q-29 2-41.5 13t-12.5 37q0 23 10 32.5t30 10.5q-12 35-30.5 48.5t-41.5 13.5q-31 0-52.5-20.5t-35-52.5-19.5-70.5-6-75.5q0-49 9-80t23-49 31-25 34-7z"/><path transform="translate(12.208 14) scale(.014 -.014)" d="m47 686 100 14v-237q17 17 40 28t55 11q27 0 56-9.5t54-33.5 41-66 16-107q0-57-13.5-110t-41-93.5-68.5-64.5-96-24q-31 0-57.5 9.5t-45.5 31-30 57-11 87.5zm273-423q0 39-7 73t-20.5 59.5-33 40-44.5 14.5q-20 0-37-9.5t-31-24.5v-263q0-90 59-90 28 0 49.5 16.5t36 44.5 21.5 64 7 75z"/><path transform="translate(18.06 14) scale(.014 -.014)" d="m431 179q-29-40-59.5-66.5t-59.5-46.5q-11-20-28-33.5t-36.5-22-39-12.5-35.5-4q-44 0-72.5 14t-45.5 35.5-24 48-7 50.5q0 26 10.5 45.5t25.5 27.5q26 75 51 148.5t33 147.5l101 20q24-95 39.5-155t25-101.5 14-73 4.5-69.5q17 11 32 23.5t29 23.5zm-209-40q0 31-3.5 55t-10.5 53-17.5 70.5-24.5 106.5q-6-56-24.5-107t-33.5-105q9-6 15.5-16.5t6.5-27.5q0-19-10-29t-22-10q-16 0-27 14 8-35 28-54.5t53-19.5q32 0 51 16.5t19 53.5z"/><path transform="translate(22.848 14) scale(.014 -.014)" d="m147 652v-152h77v-35h-77v-305q0-12 1-27.5t5.5-29.5 14-23.5 26.5-9.5q27 0 51.5 27t38.5 82h37q-17-63-36.5-99.5t-40.5-55.5-41.5-24.5-37.5-5.5q-36 0-59 13.5t-36 34.5-18 46.5-5 50.5v326h-34v35h34v138z"/><path transform="translate(26.152 14) scale(.014 -.014)" d="m359 375q0-70-57.5-117t-159.5-58q4-40 14.5-65t25.5-39.5 34.5-20 40.5-5.5q48 0 90 25t68 84h32q-13-37-36-70.5t-54-59-67-40.5-74-15q-35 0-67.5 12t-57.5 39.5-40.5 71.5-15.5 108q0 42 9.5 91t32 91 59 70 90.5 28q25 0 48.5-5.5t42.5-20 30.5-39.5 11.5-65zm-218-136q71 11 112.5 50t41.5 96q0 38-13 54.5t-37 16.5q-26 0-45.5-20t-32.5-51.5-19.5-70-6.5-75.5z"/><path transform="translate(31.304 14) scale(.014 -.014)" d="m146 500v-84q12 18 23.5 34t25.5 28 31 19.5 38 7.5q34 0 50-17.5t16-42.5q0-15-5-25t-12-16-15-8.5-14-2.5q-9 0-14.5 4t-11 8.5-12.5 8.5-18 4q-23 0-44-16t-38-34v-368h-100v500z"/><path transform="translate(39.018 14) scale(.014 -.014)" d="m582 630q-36 0-77.5 7t-86.5 17v-654h-108v670q-11 2-20.5 2t-19.5 0q-84 0-128.5-30.5t-44.5-110.5q0-60 13.5-91.5t27.5-47.5q-25 0-46.5 7.5t-37.5 24.5-25 44.5-9 68.5 16 79 51.5 67.5 92 47.5 138.5 18q40 0 72.5-3.5t61-8 56.5-8 59-3.5q42 0 70.5 6.5t47.5 14.5q3-18 3-34 0-83-106-83z"/><path transform="translate(48.412 14) scale(.014 -.014)" d="m146 500v-340q0-49 17-69.5t43-20.5q14 0 28 7.5t25 21.5 18 34 7 46v321h100v-340q0-17 2-33t8.5-28.5 18-20.5 29.5-8q31 0 52 22.5t34.5 58.5 19.5 80.5 6 88.5q0 28-2 55.5t-7 49.5q-5-5-13-6.5t-13-1.5q-24 0-36 17t-12 36q0 20 13 35.5t38 15.5q17 0 32.5-10t27-31.5 18-56.5 6.5-86q0-57-9.5-117.5t-31.5-110.5-57-82.5-87-32.5q-39 0-74 20t-52 58q-20-41-48.5-59.5t-59.5-18.5q-29 0-55 8t-45 26.5-30 48-11 72.5v351z"/><path transform="translate(57.134 14) scale(.014 -.014)" d="m229 505q39 0 67-12t46-33.5 28.5-50.5 15.5-62h6q42 0 77 17t60 43l15-27q-20-32-63.5-53t-89.5-29q0-10 0.5-20t0.5-21q0-123-45-193t-126-70q-33 0-66.5 12t-60.5 40-43.5 72-16.5 109q0 44 9.5 93t32 90 60 68 93.5 27zm10-435q53 0 78 52.5t25 148.5q0 6 0 12t-1 12q-29 2-41.5 13t-12.5 37q0 23 10 32.5t30 10.5q-12 35-30.5 48.5t-41.5 13.5q-31 0-52.5-20.5t-35-52.5-19.5-70.5-6-75.5q0-49 9-80t23-49 31-25 34-7z"/></svg>