<svg width="38" height="14" viewBox="0 0 38 14" fill="none" xmlns="http://www.w3.org/2000/svg">
<path d="M8.25 13.86C7.83 13.86 7.41667 13.74 7.01 13.5C6.60333 13.2667 6.08667 12.9 5.46 12.4C4.99333 12.0267 4.59333 11.7267 4.26 11.5C3.93333 11.2733 3.57667 11.08 3.19 10.92C2.79667 10.76 2.4 10.68 2 10.68C1.86 10.68 1.75333 10.6867 1.68 10.7L3.77 0.99C3.14333 1.24333 2.66 1.63 2.32 2.15C1.98 2.67 1.81 3.30333 1.81 4.05C1.81 4.39 1.84 4.63 1.9 4.77C1.96667 4.90333 2 4.98 2 5C1.5 5 1.12667 4.89333 0.88 4.68C0.626667 4.47333 0.5 4.12667 0.5 3.64C0.5 3.04 0.746667 2.46 1.24 1.9C1.72667 1.33333 2.35333 0.873333 3.12 0.52C3.88667 0.173333 4.65333 0 5.42 0C5.54667 0 5.73333 0.0100002 5.98 0.0300002L3.82 10.08C4.08 10.1467 4.35 10.2433 4.63 10.37C4.90333 10.4967 5.23667 10.6667 5.63 10.88C6.23667 11.2067 6.75333 11.4567 7.18 11.63C7.61333 11.8033 8.06333 11.89 8.53 11.89C8.95 11.89 9.34 11.8133 9.7 11.66C9.62667 12.34 9.46333 12.8767 9.21 13.27C8.95 13.6633 8.63 13.86 8.25 13.86ZM7.77 10.42C7.07667 10.42 6.53 10.24 6.13 9.88C5.73 9.52667 5.53 8.96667 5.53 8.2C5.53 7.56667 5.66 6.86333 5.92 6.09C6.18 5.31667 6.6 4.64667 7.18 4.08C7.76 3.51333 8.49 3.23 9.37 3.23C10.5633 3.23 11.16 3.97667 11.16 5.47V5.49C11.1867 5.49667 11.2367 5.5 11.31 5.5C11.6167 5.5 11.9733 5.42 12.38 5.26C12.78 5.09333 13.1433 4.89333 13.47 4.66L13.59 5.04C13.3233 5.32667 12.9733 5.57 12.54 5.77C12.1067 5.97667 11.6333 6.12 11.12 6.2C11.04 7.05333 10.8467 7.79667 10.54 8.43C10.2333 9.06333 9.83667 9.55333 9.35 9.9C8.86333 10.2467 8.33667 10.42 7.77 10.42ZM8.33 9.16C8.55667 9.16 8.78 9.03 9 8.77C9.22667 8.51667 9.42333 8.16667 9.59 7.72C9.75667 7.28 9.87667 6.78667 9.95 6.24C9.70333 6.18667 9.58 5.99333 9.58 5.66C9.58 5.27333 9.72333 5.02 10.01 4.9C9.99 4.59333 9.94333 4.38 9.87 4.26C9.79667 4.14667 9.66667 4.09 9.48 4.09C9.17333 4.09 8.87333 4.31333 8.58 4.76C8.29333 5.20667 8.06 5.74333 7.88 6.37C7.70667 6.99667 7.62 7.54667 7.62 8.02C7.62 8.46667 7.67 8.76667 7.77 8.92C7.87 9.08 8.05667 9.16 8.33 9.16ZM13.73 10.44C13.0967 10.44 12.6133 10.2867 12.28 9.98C11.94 9.66667 11.77 9.22333 11.77 8.65C11.77 8.37 11.8033 8.10333 11.87 7.85L13.37 0.84L15.44 0.56L14.77 3.71C15.03 3.55 15.2433 3.44667 15.41 3.4C15.5833 3.34667 15.7533 3.32 15.92 3.32C17.02 3.32 17.57 4.11667 17.57 5.71C17.57 6.35667 17.4467 7.04667 17.2 7.78C16.9533 8.51333 16.5433 9.14 15.97 9.66C15.3967 10.18 14.65 10.44 13.73 10.44ZM14.52 9.09C14.8067 9.09 15.0767 8.91 15.33 8.55C15.5833 8.19 15.7833 7.74 15.93 7.2C16.0833 6.66667 16.16 6.15333 16.16 5.66C16.16 5.28667 16.0933 4.96667 15.96 4.7C15.8267 4.44 15.6433 4.31 15.41 4.31C15.27 4.31 15.1167 4.33333 14.95 4.38C14.7767 4.42 14.6567 4.48 14.59 4.56L13.82 8.12C13.7933 8.23333 13.78 8.34 13.78 8.44C13.78 8.87333 14.0267 9.09 14.52 9.09ZM19.68 10.44C19.2333 10.44 18.8567 10.3533 18.55 10.18C18.2433 10.0133 18.0133 9.79 17.86 9.51C17.7133 9.23667 17.64 8.95 17.64 8.65C17.64 8.34333 17.7133 8.07667 17.86 7.85C18 7.61667 18.1733 7.45 18.38 7.35C18.7467 6.69667 19.0633 6.03667 19.33 5.37C19.6033 4.70333 19.86 3.98333 20.1 3.21L22.18 2.93C22.2267 4.12333 22.3033 5.41333 22.41 6.8C22.4567 7.36 22.48 7.76667 22.48 8.02C22.48 8.23333 22.4633 8.41 22.43 8.55C22.87 8.30333 23.2067 8.07 23.44 7.85H24.02C23.4267 8.54333 22.7133 9.12667 21.88 9.6C21.6133 9.89333 21.28 10.1067 20.88 10.24C20.4867 10.3733 20.0867 10.44 19.68 10.44ZM19.24 9.34C19.58 9.34 19.8667 9.23667 20.1 9.03C20.3333 8.82333 20.45 8.49333 20.45 8.04C20.45 7.76 20.4233 7.36667 20.37 6.86C20.2767 5.79333 20.2167 5.08 20.19 4.72C19.9633 5.45333 19.5833 6.33333 19.05 7.36C19.27 7.47333 19.38 7.63667 19.38 7.85C19.38 8.03 19.32 8.19 19.2 8.33C19.0867 8.47 18.94 8.54 18.76 8.54C18.5667 8.54 18.44 8.48 18.38 8.36C18.38 8.69333 18.4467 8.94 18.58 9.1C18.72 9.26 18.94 9.34 19.24 9.34ZM24.82 10.44C24.3733 10.44 24.0133 10.3 23.74 10.02C23.46 9.74 23.32 9.32 23.32 8.76C23.32 8.52667 23.36 8.22333 23.44 7.85L24.28 3.92H23.81L23.93 3.36H24.39L24.81 1.43L26.88 1.15L26.4 3.36H27.24L27.13 3.92H26.29L25.4 8.12C25.36 8.26 25.34 8.41 25.34 8.57C25.34 8.75667 25.3833 8.89 25.47 8.97C25.5633 9.05 25.71 9.09 25.91 9.09C26.1833 9.09 26.4367 8.97333 26.67 8.74C26.9033 8.51333 27.07 8.21667 27.17 7.85H27.76C27.4133 8.86333 26.97 9.54667 26.43 9.9C25.89 10.26 25.3533 10.44 24.82 10.44ZM29.18 10.44C28.4867 10.44 27.95 10.26 27.57 9.9C27.1833 9.54667 26.99 8.98667 26.99 8.22C26.99 7.57333 27.1167 6.86333 27.37 6.09C27.6233 5.31667 28.0333 4.64667 28.6 4.08C29.1733 3.51333 29.8967 3.23 30.77 3.23C31.7967 3.23 32.31 3.68 32.31 4.58C32.31 5.1 32.16 5.58 31.86 6.02C31.5667 6.46 31.17 6.81333 30.67 7.08C30.1767 7.34667 29.65 7.49667 29.09 7.53C29.07 7.81 29.06 7.99667 29.06 8.09C29.06 8.55 29.14 8.86 29.3 9.02C29.46 9.18667 29.7167 9.27 30.07 9.27C30.5767 9.27 31.01 9.15333 31.37 8.92C31.73 8.68667 32.1233 8.33 32.55 7.85H33.03C31.99 9.57667 30.7067 10.44 29.18 10.44ZM29.2 6.86C29.5467 6.84 29.8767 6.72 30.19 6.5C30.5033 6.27333 30.7567 5.98667 30.95 5.64C31.1367 5.29333 31.23 4.93 31.23 4.55C31.23 4.17 31.1133 3.98 30.88 3.98C30.5467 3.98 30.22 4.27333 29.9 4.86C29.5733 5.44667 29.34 6.11333 29.2 6.86ZM32.02 10.36L33.5 3.36H35.52L35.34 4.23C35.6533 3.95 35.94 3.73333 36.2 3.58C36.4533 3.43333 36.73 3.36 37.03 3.36C37.33 3.36 37.5667 3.46333 37.74 3.67C37.9133 3.87667 38 4.12333 38 4.41C38 4.68333 37.91 4.92 37.73 5.12C37.55 5.32667 37.3033 5.43 36.99 5.43C36.7833 5.43 36.6433 5.38333 36.57 5.29C36.5033 5.19 36.45 5.04667 36.41 4.86C36.3833 4.74 36.3567 4.65 36.33 4.59C36.3033 4.53667 36.2533 4.51 36.18 4.51C35.98 4.51 35.8133 4.55 35.68 4.63C35.5467 4.71 35.37 4.84667 35.15 5.04L34.03 10.36H32.02Z" fill="black"/>
</svg>
