<svg width="86.1" height="16.562" viewBox="0 0 86.1 16.562" xmlns="http://www.w3.org/2000/svg"><path transform="translate(0 13.23) scale(.014 -.014)" d="m463 66q2-26 2-40 0-15-3.5-21.5t-17-9-44.5-2.5l-77-1q-21-1-65-1-38 0-112 2l-110 1-5 6q0 62 4 188 4 124 4 187 0 55-2 163-3 81-3 164l3 6q23 10 65 10 32 0 64.5-4.5t37.5-13.5q-3-32-3-97 0-74 2-220t2-219q52 0 117-5 78-4 116-4 7 0 21 2 1-2 3-5t2-8q0-7-2-20t-2-19q0-4 2-12v-2zm-9 76v4q-7-1-20-1-45 0-107 5-74 4-107 4-13 0-19-1l-6 6q0 73-2 221-2 146-2 220 0 65 3 97-34 10-74 10-36 0-76-8 0-82 3-163 2-108 2-163 0-63-4-185-4-124-4-184l408 1q7 14 7 33 0 9-2 27t-2 25q-2 12-2 22 0 19 4 30z"/><path transform="translate(6.454 13.23) scale(.014 -.014)" d="m239 519q41 0 72-7t63-27q37-23 47-72t10-122q0-76-3.5-125.5t-15.5-98.5q-12-45-54-64t-96-19q-16 0-27.5 1t-18.5 2l-27 2q-36 2-53 5t-35 15-44 39q-37 39-37 148v94q0 76 4 113 1 11 9 31l7 23q11 33 54 47t80 14zm-210-262v-31q0-82 17.5-139t77.5-78q15-5 31.5-7t32.5-3q6 0 15-0.5t21-2.5q17-3 39-3 60 0 91 18.5t42.5 48 15.5 76.5l2 21q7 84 7 129 0 124-33 175-38 30-67.5 39t-73.5 9l-72-1q-31 0-73.5-11t-51.5-43l-7-22q-8-20-9-31-5-47-5-144zm277-15q0-60-17.5-88t-57.5-28q-32 0-56.5 14.5t-24.5 40.5l1 31-1 55q0 58 17 75 10 13 27 20t35 7q40 0 58.5-31t18.5-96zm-145-35q0-6-1-12.5t-1-13.5q0-21 21.5-33t49.5-12q37 0 51 25.5t14 82.5q0 62-16 88t-51 26q-15 0-29.5-6t-24.5-17q-14-14-14-74z"/><path transform="translate(12.726 13.23) scale(.014 -.014)" d="m421 196q-3-73-3-146 0-24 3-48-4-9-52-9-5 0-18.5-1.5t-23.5-1.5q-43 0-43 27l1 136q0 45-4 81-2 16-2 23-2 25-5 38.5t-13 26.5q-8 0-31 9-38 0-51-24.5t-13-60.5q0-42 3-84 2-56 2-84 0-14-2-38t-2-37q-3-6-21-10t-32-3l-80 3q0 109-3 215-1 36-2 102t-1 116q0 73 9 77 8 0 17-1.5t18-1.5q13 0 23 3 22 4 49 4 23 0 27-4 0-17 2-49 27 20 60 33t63 13q56 0 83.5-19.5t35.5-52.5 8-88q0-48-2-144zm-13-153q0 50 2 150 3 77 3 152 0 51-7 81t-32 47-77 17q-32 0-60-12.5t-65-35.5l-8 3q-1 9-1 26 0 18-1 26-13 0-41-4-22-5-41-5-10 0-21.5 1.5t-16.5 2.5q-3-79-3-160 0-66 2-198 2-88 2-131 16 2 28 2 16 0 26-3 4 0 23.5 0t36.5 5l1 48q2 34 2 50 0 29-3 60-1 10-2 26t-1 38q0 54 15 82.5t56 28.5q29 0 36-8 22-5 27.5-49.5t5.5-110.5v-62q0-20-1-31l-1-36q0-22 3-40l51-1q36 0 64 4-2 24-2 37z"/><path transform="translate(19.026 13.23) scale(.014 -.014)" d="m368 715q55 0 60-11 0-91 4-273 4-184 4-274 0-104-2-156-9-9-100-9-23 0-32.5 2.5t-13.5 9.5v12q-2 4-2 11l1 14-1 2q-23-46-78-46-117 0-154.5 83.5t-37.5 207.5q0 158 71 199 35 20 106 20 32 0 55.5-3t39.5-15q0 17-1 30-2 42-2 70 0 40 4 72 3 18 3 41l5 6q28 7 71 7zm-66-16q-1-26-2.5-67.5t-1.5-72.5q0-56 1-84-6-2-9-2-14 24-88 24-51 0-86.5-10t-56.5-42q-17-27-26-72t-9-97q0-140 46-204.5t141-64.5q23 0 38 9 6 3 18 21 2 2 8 10t10 8h1q9-10 10.5-17.5t1.5-24.5q0-10 30-10l47 1q32 2 49 2 2 51 2 154 0 90-4 270t-4 270q-38 4-60 4-34 0-56-5zm3-394q0-61-4.5-98.5t-21.5-61.5-52-24q-45 0-72 42t-27 96q0 32 9 57 6 37 33 56t67 19q41 0 54.5-22.5t13.5-63.5zm-167-48q0-53 26-89.5t66-36.5q29 0 43 21.5t17.5 54.5 3.5 88q0 33-3 50t-15.5 27.5-40.5 10.5q-32 0-58-18.5t-30-49.5v-2q-9-24-9-56z"/><path transform="translate(25.508 13.23) scale(.014 -.014)" d="m31 209q-3 107-3 217 0 73 9 77 8 0 17-1.5t18-1.5q7 0 23 2 22 4 57 4 11 0 17-1t8-5v-27q31 14 71 23.5t75 9.5q16 0 26.5-1.5t13.5-7.5l-1-58q-2-40-2-60 0-29 3-58l-7-5q-32 12-59.5 16t-59.5 4q-65 0-65-68 0-66 3-132 2-90 2-133-4-10-40-10-21 0-32 1l-33 1-39 3q0 71-2 211zm137 260q-2 6-2 11l1 16h-25q-9-4-27-6t-35-2q-10 0-21.5 1.5t-16.5 2.5q-3-79-3-160 0-66 2-198 2-88 2-131 8 1 23 1 20 0 30-1l29-1q25 0 42 5 0 41-2 127-2 84-2 126 0 41 15.5 63.5t61.5 22.5q57 0 112-18-3 24-3 50 0 18 2 58 2 38 2 57-55 0-97-6.5t-80-25.5l-8 5z"/><path transform="translate(30.66 13.23) scale(.014 -.014)" d="m176 684q4-12 4-46l-1-48q0-9-19-13t-38-4q-78 0-88 11 0 21-2 63-3 32-3 64 0 11 6 15l136-3 5-5zm-10 29-126 3-1-18q0-28 3-55 2-36 2-55l30-2q48-3 52-3 33 0 43 9 0 29-1 44l-1 43q-2 5-2 16 0 12 1 18zm12-381q-3-85-3-171t4-155q0-7-14.5-10.5t-31.5-3.5q-14 0-42 2t-38 2q-14 0-19-1l-6 6q3 34 3 102l-1 133q-2 90-2 135 0 22 1.5 79.5t4.5 57.5v-3l5 6 67-1q46-2 69-2l5-5q0-57-2-171zm-10-2q2 112 2 168-22 0-64 2l-62 1q-5-59-5-140 0-41 2-119l1-120q0-57-3-116 14 0 44-2 24-3 47-3 22 0 39 7-4 68-4 153t3 169z"/><path transform="translate(33.558 13.23) scale(.014 -.014)" d="m421 196q-3-73-3-146 0-24 3-48-4-9-52-9-5 0-18.5-1.5t-23.5-1.5q-43 0-43 27l1 136q0 45-4 81-2 16-2 23-2 25-5 38.5t-13 26.5q-8 0-31 9-38 0-51-24.5t-13-60.5q0-42 3-84 2-56 2-84 0-14-2-38t-2-37q-3-6-21-10t-32-3l-80 3q0 109-3 215-1 36-2 102t-1 116q0 73 9 77 8 0 17-1.5t18-1.5q13 0 23 3 22 4 49 4 23 0 27-4 0-17 2-49 27 20 60 33t63 13q56 0 83.5-19.5t35.5-52.5 8-88q0-48-2-144zm-13-153q0 50 2 150 3 77 3 152 0 51-7 81t-32 47-77 17q-32 0-60-12.5t-65-35.5l-8 3q-1 9-1 26 0 18-1 26-13 0-41-4-22-5-41-5-10 0-21.5 1.5t-16.5 2.5q-3-79-3-160 0-66 2-198 2-88 2-131 16 2 28 2 16 0 26-3 4 0 23.5 0t36.5 5l1 48q2 34 2 50 0 29-3 60-1 10-2 26t-1 38q0 54 15 82.5t56 28.5q29 0 36-8 22-5 27.5-49.5t5.5-110.5v-62q0-20-1-31l-1-36q0-22 3-40l51-1q36 0 64 4-2 24-2 37z"/><path transform="translate(39.858 13.23) scale(.014 -.014)" d="m447 187 1-127q0-32-7-50.5t-24-18.5q-11 0-20 4h-78q-8-2-11-2-19 0-19 28 0 8 2 22-27-23-58-36t-63-13-56 12q-28 14-51.5 55t-37 95.5-13.5 107.5q0 66 23.5 120t65.5 85.5 96 31.5q35 0 54-6.5t33-25.5q1 7 2.5 16t1.5 16l3 6q8 3 33 3 22 0 68-4 27-3 47-3l5-5v-4q3-9 3-25 0-9-1-15.5t-1-11.5v-128q0-43 2-127zm-12-86q3 47 3 93l-1 148q-2 100-2 148-1 1-1 3-34 0-69 3-44 2-67 2 0-9-3-20-1-4-2-8.5t-1-11.5l1-6q0-1 0.5-1t0.5 0q-6-2-9-2h-1l-1 2q-14 24-33.5 32t-52.5 8q-52 0-91.5-29.5t-61-81.5-21.5-115 16.5-123.5 50-99.5 80.5-39q33 0 66.5 16t58.5 41q2-2 8-4 0-5-2-16.5t-2-17.5q0-7 1.5-11t6.5-7h7q12 4 44 4t44-4h25l6 6q0 29 2 91zm-136 128q0-46-15-71.5t-51-25.5q-47 0-72.5 35.5t-25.5 83.5q0 28 9 50l-1-1q6 33 34 50.5t64 17.5q28 0 39.5-8.5t15-36 3.5-94.5zm-11 31 1 39q0 28-6.5 43.5t-30.5 15.5q-38 0-65.5-14t-33.5-47q-8-17-8-45 0-45 22.5-77.5t63.5-32.5q58 0 58 74z"/><path transform="translate(49.322 13.23) scale(.014 -.014)" d="m459 446-1-47 1-89q0-191-46-255-25-35-81.5-55.5t-117.5-20.5q-84 0-124 32.5t-50 77.5-11 117q0 27-1 39-5 84-5 201 0 59 8 105t32 82 69.5 54.5 100.5 18.5q48 0 95.5-14.5t76.5-39.5q18-16 37-58 10-24 14-49.5t4-57.5q0-27-1-41zm-388 182q-22-33-30-77t-8-99q0-120 5-206 1-14 1-43 0-46 3.5-76.5t16.5-57.5q17-42 55.5-60.5t98.5-18.5 114 19 78 52q26 36 35 99t9 143l-1 86 1 47q2 32 2 50 0 62-18 104-24 54-71 80t-120 26q-55 0-102-17.5t-69-50.5zm263-267-1-78q-2-54-2-80 0-38-30-60t-65-22q-43 0-64.5 25t-28.5 60-10 91l-1 21q-2 36-2 57 0 75 27 133t89 58q31 0 48-15.5t23-38 11-59.5q1-14 5-35v-2zm-91 196q-53 0-78-53.5t-25-124.5q0-21 2-46.5t3-35.5l3-29q1-7 1-20 2-30 5.5-49.5t12.5-37.5q14-14 34-22t40-8q31 0 55.5 19t24.5 54q0 28 2 80l1 77-1 54q-3 20-3 38-1 24-4 39t-12 30q-23 35-61 35z"/><path transform="translate(56.084 13.23) scale(.014 -.014)" d="m276 45q-24-23-58.5-34t-62.5-11q-72 0-107 36-10 11-14 28.5t-5 33-1 20.5q-3 45-3 89 0 42 2 124 3 62 3 125l-1 41q10 10 49 10h81q7-15 7-40 0-49-1-74l-1-79q0-91 20-131l5-5q3-2 12.5-5t17.5-5q38 0 51.5 24.5t13.5 62.5q0 29-1 50.5t-2 36.5q-3 44-3 86 0 18 3 34 2 22 2 34l3 6q28 8 50 8 9 0 27-2 16-2 26-2 7 0 23 2 0 0 5-5 0-59 2-175l1-176q0-100-2-150-3-3-6-4t-6-1l-99-4q-17 0-22 1.5t-7 6.5v-1q-3 11-3 24 0 14 1 21zm11-16q1-9 1-26 13 0 23.5 1t18.5 2q30 4 49 4 7 0 14-1.5t15-1.5q2 49 2 147l-1 172q-2 114-2 171-18-2-31-2-7 0-23 2l-21 1q-23 0-39-5 0-11-2-33-3-16-3-33 0-37 3-79 0-14 1.5-43t1.5-52q0-39-14.5-67t-52.5-28q-25 0-41 10l-1 1q-31 14-31 124l1 70q2 46 2 71 0 32-3 63h-51q-43 0-64-3 1-13 1-39 0-50-1-88t-2-63q-3-73-3-146 0-50 8-81t33-49 76-18q28 0 49 8t49 25q6 3 13.5 7.5t16.5 8.5l7-5z"/><path transform="translate(62.384 13.23) scale(.014 -.014)" d="m308 503q21 2 59 4 14-15 14-45 0-16-3-33-2-22-2-32t1-15l2-12-156 2v-97q0-65 1-98 13-21 49-29.5t76-8.5q17 0 24 1 12-24 12-96 0-25-7-46-7-4-30-4-93 0-158.5 17t-94.5 75q-9 17-12 51.5t-3.5 61.5-0.5 33q-2 54-2 80 0 38 1 57-9-1-21.5-1t-17.5 0q-26 0-33 7v53q0 69 9 73 11-1 32-1h33q0 21-2 69-3 38-3 75 0 23 5 36t22 13q13 0 23.5-1t17.5-2q28-4 43-4 16 0 24 2l11 2v-191q29 0 87 4zm-119 172q-14 0-42 4-30 4-43 4-10 0-13-3.5t-3-10.5l1-87q1-29 1-87-7-7-29-7-12 0-22 1t-20 1l-3-111q31 0 73 4-2-26-2-81 0-86 8-154 1-7 2.5-24.5t5.5-31.5 12-24q51-64 211-64 30 0 43 1 6 20 6 40 0 22-3 48.5t-4 36.5q-6-1-22-1-45 0-89.5 13.5t-44.5 42.5l1 19 1 89q0 50-1 69t0 20h153q-2 10-2 16 0 15 3 31 0 5 1.5 16t1.5 19q0 21-6 33l-45-3q-14-1-48.5-3t-60.5-2v188q-14-2-21-2z"/><path transform="translate(67.802 13.23) scale(.014 -.014)" d="m178 420q-1-38-3-135t-2-175q0-53 6-104 0-7-15-10.5t-32-3.5q-14 0-50 2t-56 2l2 32q1 20 3 71.5t2 90.5q0 58-4 176-4 116-4 175 0 119 8 190 1 1 3 0.5t3 0.5l136-3 8-1q0-136-5-308zm-135 302q-9-75-9-174 0-59 4-177 5-100 5-179 0-83-5-186l15 1q19 0 38-3 7-1 16.5-2t22.5-1q23 0 38 7-5 40-5 97l1 62q1 20 1 61 0 81 2 245 3 123 3 246z"/><path transform="translate(70.686 13.23) scale(.014 -.014)" d="m176 684q4-12 4-46l-1-48q0-9-19-13t-38-4q-78 0-88 11 0 21-2 63-3 32-3 64 0 11 6 15l136-3 5-5zm-10 29-126 3-1-18q0-28 3-55 2-36 2-55l30-2q48-3 52-3 33 0 43 9 0 29-1 44l-1 43q-2 5-2 16 0 12 1 18zm12-381q-3-85-3-171t4-155q0-7-14.5-10.5t-31.5-3.5q-14 0-42 2t-38 2q-14 0-19-1l-6 6q3 34 3 102l-1 133q-2 90-2 135 0 22 1.5 79.5t4.5 57.5v-3l5 6 67-1q46-2 69-2l5-5q0-57-2-171zm-10-2q2 112 2 168-22 0-64 2l-62 1q-5-59-5-140 0-41 2-119l1-120q0-57-3-116 14 0 44-2 24-3 47-3 22 0 39 7-4 68-4 153t3 169z"/><path transform="translate(73.584 13.23) scale(.014 -.014)" d="m421 196q-3-73-3-146 0-24 3-48-4-9-52-9-5 0-18.5-1.5t-23.5-1.5q-43 0-43 27l1 136q0 45-4 81-2 16-2 23-2 25-5 38.5t-13 26.5q-8 0-31 9-38 0-51-24.5t-13-60.5q0-42 3-84 2-56 2-84 0-14-2-38t-2-37q-3-6-21-10t-32-3l-80 3q0 109-3 215-1 36-2 102t-1 116q0 73 9 77 8 0 17-1.5t18-1.5q13 0 23 3 22 4 49 4 23 0 27-4 0-17 2-49 27 20 60 33t63 13q56 0 83.5-19.5t35.5-52.5 8-88q0-48-2-144zm-13-153q0 50 2 150 3 77 3 152 0 51-7 81t-32 47-77 17q-32 0-60-12.5t-65-35.5l-8 3q-1 9-1 26 0 18-1 26-13 0-41-4-22-5-41-5-10 0-21.5 1.5t-16.5 2.5q-3-79-3-160 0-66 2-198 2-88 2-131 16 2 28 2 16 0 26-3 4 0 23.5 0t36.5 5l1 48q2 34 2 50 0 29-3 60-1 10-2 26t-1 38q0 54 15 82.5t56 28.5q29 0 36-8 22-5 27.5-49.5t5.5-110.5v-62q0-20-1-31l-1-36q0-22 3-40l51-1q36 0 64 4-2 24-2 37z"/><path transform="translate(79.884 13.23) scale(.014 -.014)" d="m291 191 6 6q5-1 17-1 11 0 37 2t38 2q16 0 25-2t13-10q-4-19-6-58-4-51-13-80t-41.5-48.5-98.5-19.5h-38q-50 0-86 8.5t-60 35.5q-70 81-70 226 0 62 12 132 11 67 68 101t130 34q35 0 73-8t64-27q37-28 54-75.5t17-102.5q0-24-3-47-17-17-178-17-16 0-25-1l-33-1q-20 0-32 4v-11q0-51 16-87t56-36q58 0 58 81zm-132 64q9-5 34-5 16 0 27 1t17 1q153 0 182 11 2 28 2 42 0 109-60 166-22 22-60 30.5t-80 8.5q-54 0-100-20.5t-71-62.5q-15-27-20-65t-5-84q0-80 13-140t53-105q22-25 56.5-33t82.5-8h44q60 0 89.5 20.5t37.5 50.5 11 78q2 32 4 45-11 4-29 4-20 0-41-3-26-2-35-2l-10 1q0-36-19-62.5t-47-26.5q-47 0-65.5 41.5t-18.5 93.5v18q7 5 8 5zm141 65q-15 0-25 4h-55q-27-3-36-3-32 0-32 19 0 39 23 59.5t60 20.5q25 0 45-10 41-21 41-81 0-5-6.5-7t-14.5-2zm-138 16q12-6 29-6 11 0 19.5 1t14.5 2q17 3 33 3 11 0 29-2 16-2 24-2 0 52-36 69-24 11-43 11-30 0-50-21t-20-55z"/></svg>