<svg width="29" height="11" viewBox="0 0 29 11" fill="none" xmlns="http://www.w3.org/2000/svg">
<path d="M7.44 9.8H0.5V9.34C0.853333 9.32 1.09667 9.23667 1.23 9.09C1.35667 8.95 1.43 8.75 1.45 8.49C1.46333 8.23667 1.47 7.94667 1.47 7.62V1.57C1.47 1.38333 1.47333 1.20333 1.48 1.03C1.48667 0.856667 1.49667 0.7 1.51 0.56C1.34333 0.566667 1.17333 0.576667 1 0.59C0.833333 0.596667 0.666667 0.606667 0.5 0.62V0H3.65V0.46C3.30333 0.473333 3.06333 0.553334 2.93 0.7C2.79667 0.846667 2.72333 1.04667 2.71 1.3C2.69 1.55333 2.68 1.84667 2.68 2.18V8.19C2.68 8.44333 2.68 8.65667 2.68 8.83C2.67333 9.01 2.66 9.16 2.64 9.28L5.26 9.24C5.84667 9.23333 6.29333 9.04667 6.6 8.68C6.9 8.31333 7.05 7.72 7.05 6.9H7.53L7.44 9.8ZM11.91 10.02C11.2567 10.02 10.6633 9.87 10.13 9.57C9.59667 9.26333 9.17333 8.84333 8.86 8.31C8.55333 7.77 8.4 7.15667 8.4 6.47C8.4 5.73 8.55333 5.06667 8.86 4.48C9.16667 3.89333 9.58667 3.43 10.12 3.09C10.6533 2.75 11.25 2.58 11.91 2.58C12.5633 2.58 13.1567 2.73667 13.69 3.05C14.2233 3.35667 14.6467 3.77667 14.96 4.31C15.28 4.84333 15.44 5.45 15.44 6.13C15.44 6.85 15.2833 7.50667 14.97 8.1C14.6567 8.69333 14.2333 9.16333 13.7 9.51C13.1667 9.85 12.57 10.02 11.91 10.02ZM12.02 9.46C12.5133 9.46 12.9067 9.32 13.2 9.04C13.4867 8.76 13.6933 8.39667 13.82 7.95C13.9467 7.50333 14.01 7.03333 14.01 6.54C14.01 6.12 13.97 5.70667 13.89 5.3C13.81 4.89333 13.6867 4.52333 13.52 4.19C13.3533 3.86333 13.1367 3.6 12.87 3.4C12.6033 3.20667 12.2833 3.11 11.91 3.11C11.4233 3.11 11.0267 3.25 10.72 3.53C10.4133 3.81 10.1867 4.17333 10.04 4.62C9.89333 5.06667 9.82 5.54667 9.82 6.06C9.82 6.64 9.9 7.19 10.06 7.71C10.22 8.22333 10.4633 8.64333 10.79 8.97C11.1167 9.29667 11.5267 9.46 12.02 9.46ZM16.63 9.8V9.38C16.9167 9.38 17.1167 9.30667 17.23 9.16C17.3433 9.02 17.41 8.82 17.43 8.56C17.4433 8.30667 17.45 8.01 17.45 7.67V4.48C17.45 4.33333 17.4533 4.18333 17.46 4.03C17.4667 3.88333 17.4833 3.73 17.51 3.57C17.3433 3.57667 17.1767 3.58333 17.01 3.59C16.85 3.59667 16.6867 3.60333 16.52 3.61V3.04H16.95C17.35 3.04 17.6267 3 17.78 2.92C17.9333 2.84 18.0633 2.75333 18.17 2.66H18.57C18.59 2.80667 18.6067 2.99 18.62 3.21C18.6267 3.43 18.6333 3.71 18.64 4.05C18.78 3.81667 18.9733 3.58667 19.22 3.36C19.46 3.13333 19.7333 2.94667 20.04 2.8C20.34 2.65333 20.66 2.58 21 2.58C21.26 2.58 21.4867 2.65 21.68 2.79C21.88 2.93 21.98 3.15333 21.98 3.46C21.98 3.53333 21.9567 3.62333 21.91 3.73C21.8633 3.83667 21.7867 3.93 21.68 4.01C21.58 4.09 21.4467 4.13 21.28 4.13C21.0733 4.12333 20.91 4.04333 20.79 3.89C20.6633 3.73 20.6167 3.55 20.65 3.35C20.4167 3.33667 20.1767 3.39667 19.93 3.53C19.6767 3.65667 19.4433 3.83667 19.23 4.07C19.0167 4.29667 18.8267 4.56333 18.66 4.87L18.67 8.32C18.67 8.50667 18.6667 8.67 18.66 8.81C18.66 8.95667 18.6467 9.11 18.62 9.27C18.7667 9.25667 18.9133 9.25 19.06 9.25C19.2 9.24333 19.3467 9.23667 19.5 9.23V9.8H16.63ZM28.85 9.8H26.85C26.8233 9.64 26.8033 9.5 26.79 9.38C26.7833 9.26 26.77 9.13333 26.75 9C26.43 9.32 26.0867 9.57 25.72 9.75C25.3533 9.93 24.9633 10.02 24.55 10.02C23.8433 10.02 23.3167 9.86 22.97 9.54C22.6233 9.22 22.45 8.82667 22.45 8.36C22.45 7.92667 22.5833 7.55667 22.85 7.25C23.1167 6.93667 23.4633 6.68 23.89 6.48C24.31 6.27333 24.77 6.12333 25.27 6.03C25.77 5.93 26.2533 5.88333 26.72 5.89V5.03C26.72 4.70333 26.6933 4.39333 26.64 4.1C26.58 3.81333 26.4567 3.57667 26.27 3.39C26.0833 3.20333 25.7867 3.10333 25.38 3.09C25.1067 3.08333 24.83 3.13667 24.55 3.25C24.2633 3.36333 24.0533 3.55333 23.92 3.82C23.9933 3.89333 24.0433 3.98 24.07 4.08C24.09 4.18 24.1 4.27 24.1 4.35C24.1 4.46333 24.0533 4.59333 23.96 4.74C23.8667 4.88667 23.7033 4.95333 23.47 4.94C23.2767 4.94 23.13 4.87333 23.03 4.74C22.9233 4.60667 22.87 4.44667 22.87 4.26C22.87 3.94 22.99 3.65333 23.23 3.4C23.47 3.14667 23.8 2.94667 24.22 2.8C24.64 2.65333 25.1133 2.58 25.64 2.58C26.4267 2.58 27.0067 2.78667 27.38 3.2C27.7533 3.61333 27.9367 4.27 27.93 5.17C27.93 5.51 27.93 5.85667 27.93 6.21C27.93 6.55667 27.9267 6.90667 27.92 7.26C27.9133 7.60667 27.91 7.96 27.91 8.32C27.91 8.46667 27.9067 8.61333 27.9 8.76C27.8867 8.91333 27.8733 9.08333 27.86 9.27C28.0267 9.25667 28.19 9.24667 28.35 9.24C28.5167 9.23333 28.6833 9.22333 28.85 9.21V9.8ZM26.72 6.37C26.4067 6.37667 26.0733 6.41667 25.72 6.49C25.3733 6.55667 25.0533 6.66 24.76 6.8C24.46 6.94 24.22 7.12667 24.04 7.36C23.86 7.58667 23.7733 7.86333 23.78 8.19C23.8 8.53667 23.9167 8.79667 24.13 8.97C24.3367 9.14333 24.5833 9.23 24.87 9.23C25.2567 9.23 25.5933 9.15667 25.88 9.01C26.16 8.86333 26.44 8.66 26.72 8.4C26.7133 8.3 26.71 8.18667 26.71 8.06C26.71 7.94 26.71 7.81667 26.71 7.69C26.71 7.64333 26.7133 7.49333 26.72 7.24C26.72 6.98667 26.72 6.69667 26.72 6.37Z" fill="black"/>
</svg>
