<svg width="51" height="13" viewBox="0 0 51 13" fill="none" xmlns="http://www.w3.org/2000/svg">
<path d="M7.87 8.95C6.95667 8.95 5.73667 8.41333 4.21 7.34C3.73 8.06667 3.13667 8.43 2.43 8.43C2.29667 8.43 2.15667 8.41667 2.01 8.39C1.52333 8.30333 1.15 8.12 0.89 7.84C0.63 7.56 0.5 7.26 0.5 6.94C0.5 6.67333 0.596667 6.44667 0.79 6.26C0.983333 6.07333 1.26 5.98 1.62 5.98C1.72 5.98 1.84333 5.99 1.99 6.01C2.35 6.08333 2.86 6.28333 3.52 6.61C3.64 6.35667 3.74667 6.08667 3.84 5.8C3.22667 5.82667 2.74333 5.72333 2.39 5.49C2.04333 5.25667 1.87 4.93 1.87 4.51C1.87 4.26333 1.93 4.02 2.05 3.78C1.72333 3.28667 1.56 2.74 1.56 2.14C1.56 1.15333 1.92 0.483333 2.64 0.13C2.80667 0.0433334 2.97333 0 3.14 0C3.55333 0 3.89 0.2 4.15 0.6C4.45667 1.06667 4.61 1.71667 4.61 2.55C4.61 3.19 4.50667 3.92333 4.3 4.75C4.46 4.75 4.62333 4.72667 4.79 4.68C4.94333 3.92 5.1 3.26667 5.26 2.72C5.42667 2.17333 5.60333 1.73333 5.79 1.4C6.30333 0.466667 6.80667 0 7.3 0C7.58 0 7.80667 0.153334 7.98 0.460001C8.15333 0.760001 8.24 1.13333 8.24 1.58C8.24 2.14 8.11333 2.68 7.86 3.2C7.60667 3.72 7.23667 4.19 6.75 4.61C6.21 5.07667 5.59667 5.41667 4.91 5.63C4.81667 5.93667 4.72333 6.21 4.63 6.45C4.53667 6.68333 4.44333 6.89 4.35 7.07C4.57 7.20333 4.78667 7.32333 5 7.43C5.22 7.54333 5.43667 7.65333 5.65 7.76C6.23 8.02 6.74667 8.22333 7.2 8.37C7.64667 8.51 8.04333 8.58 8.39 8.58C8.89667 8.58 9.21333 8.39 9.34 8.01C9.37333 7.93667 9.41333 7.9 9.46 7.9C9.49333 7.9 9.49667 7.94 9.47 8.02C9.33 8.38667 9.05333 8.65 8.64 8.81C8.42 8.90333 8.16333 8.95 7.87 8.95ZM4.12 4.75C4.3 3.94333 4.39 3.22 4.39 2.58C4.39 1.74667 4.26 1.11667 4 0.69C3.77333 0.303333 3.48333 0.11 3.13 0.11C2.77667 0.11 2.46667 0.283333 2.2 0.63C1.92 1.01 1.78 1.46667 1.78 2C1.78 2.51333 1.91333 3.03333 2.18 3.56C2.32667 3.31333 2.52667 3.10333 2.78 2.93C2.81333 2.91 2.84667 2.9 2.88 2.9C2.91333 2.9 2.91667 2.91333 2.89 2.94C2.59 3.18 2.39 3.46 2.29 3.78C2.69667 4.39333 3.30667 4.71667 4.12 4.75ZM4.99 5.35C5.83667 5.11667 6.54 4.59667 7.1 3.79C7.66 2.99667 7.94 2.15 7.94 1.25C7.94 0.77 7.84333 0.48 7.65 0.38C7.61 0.353333 7.56333 0.34 7.51 0.34C7.33 0.34 7.11667 0.51 6.87 0.85C6.47667 1.38333 6.07333 2.21 5.66 3.33C5.61333 3.46333 5.55667 3.62667 5.49 3.82C5.43 4.00667 5.35667 4.23 5.27 4.49C5.80333 4.23 6.23333 3.77 6.56 3.11C6.56 3.08333 6.57333 3.07 6.6 3.07C6.67333 3.07 6.69333 3.09667 6.66 3.15C6.3 3.87 5.82333 4.37 5.23 4.65L5.1 5.03C5.08 5.09 5.06333 5.14667 5.05 5.2C5.03 5.25333 5.01 5.30333 4.99 5.35ZM3.91 5.53C3.95 5.43 3.98333 5.32333 4.01 5.21C4.03667 5.09667 4.06333 4.98 4.09 4.86C3.33 4.84667 2.71667 4.57 2.25 4.03C2.21 4.47667 2.36667 4.84667 2.72 5.14C3.04667 5.4 3.44333 5.53 3.91 5.53ZM4.09 5.53C4.27 5.52333 4.45333 5.49667 4.64 5.45L4.77 4.8C4.63 4.84 4.46667 4.86 4.28 4.86C4.24667 4.98 4.21667 5.09667 4.19 5.21C4.16333 5.32333 4.13 5.43 4.09 5.53ZM3.65 6.68L4.12 6.93C4.16667 6.84333 4.22667 6.69333 4.3 6.48C4.38 6.27333 4.47 6.00667 4.57 5.68L4.29 5.74C4.19667 5.76 4.10333 5.77333 4.01 5.78C3.94333 5.96667 3.88333 6.13333 3.83 6.28C3.77 6.42667 3.71 6.56 3.65 6.68ZM2.05 8.23L2.18 8.25H2.3C3.06 8.25 3.62 7.9 3.98 7.2L3.81 7.1C3.76333 7.08667 3.71667 7.06667 3.67 7.04C3.61667 7.01333 3.55667 6.98 3.49 6.94C3.07 7.63333 2.59 7.96667 2.05 7.94C2.01 7.94 1.98667 7.92 1.98 7.88L2.04 7.83C2.55333 7.85667 2.99667 7.54333 3.37 6.89C3.13667 6.78333 2.93 6.69667 2.75 6.63C2.57 6.55667 2.42 6.51333 2.3 6.5C2.17333 6.48 2.05333 6.47 1.94 6.47C1.62 6.47 1.37333 6.54667 1.2 6.7C1.02667 6.85333 0.94 7.03667 0.94 7.25C0.94 7.47667 1.03333 7.68333 1.22 7.87C1.42 8.07667 1.69667 8.19667 2.05 8.23ZM7.83 8.36C7.59667 8.36 7.40667 8.25333 7.26 8.04C7.10667 7.82 7.03 7.54333 7.03 7.21C7.03 6.93667 7.07667 6.66 7.17 6.38C7.51667 5.34 7.94333 4.79667 8.45 4.75C8.50333 4.68333 8.58333 4.65 8.69 4.65C8.87667 4.65 9.06 4.73333 9.24 4.9C9.42 5.06667 9.52 5.24333 9.54 5.43C9.66 5.58333 9.83667 5.66 10.07 5.66C10.1433 5.66 10.2567 5.65 10.41 5.63C10.5567 5.61 10.6667 5.6 10.74 5.6C10.78 5.6 10.79 5.62333 10.77 5.67C10.7633 5.71 10.7167 5.75333 10.63 5.8C10.4633 5.88 10.2533 5.93 10 5.95H9.83C9.67667 5.95 9.56 5.93 9.48 5.89C9.52667 6.25 9.36 6.76 8.98 7.42C8.63333 8.04667 8.25 8.36 7.83 8.36ZM7.92 8.08C8.16 8.08 8.42 7.86 8.7 7.42C8.77333 7.3 8.84667 7.16333 8.92 7.01C8.98667 6.86333 9.04333 6.69667 9.09 6.51C9.18333 6.19 9.22 5.96 9.2 5.82C8.86 5.76667 8.66 5.56667 8.6 5.22C8.34667 5.29333 8.10333 5.61667 7.87 6.19C7.65667 6.72333 7.55 7.15333 7.55 7.48C7.55 7.88 7.67333 8.08 7.92 8.08ZM10.67 8.22C10.3567 8.22 10.2 8.06667 10.2 7.76C10.2 7.51333 10.2867 7.12333 10.46 6.59C10.6133 6.09 10.6833 5.79333 10.67 5.7C10.6233 5.51333 10.56 5.40667 10.48 5.38C10.3933 5.34667 10.45 5.19 10.65 4.91C10.6767 4.86333 10.7533 4.84 10.88 4.84C11.1933 4.84 11.35 4.89333 11.35 5C11.35 5.16 11.26 5.59 11.08 6.29C10.9 6.97 10.81 7.42 10.81 7.64C10.81 7.81333 10.8667 7.9 10.98 7.9C11.24 7.9 11.61 7.61333 12.09 7.04C12.6233 6.4 12.9067 5.89333 12.94 5.52C12.7333 5.3 12.63 5.05667 12.63 4.79C12.63 4.53667 12.71 4.41 12.87 4.41C13.0833 4.41 13.19 4.61667 13.19 5.03C13.19 5.21667 13.1833 5.35667 13.17 5.45C13.2967 5.52333 13.4167 5.56 13.53 5.56C13.6633 5.56 13.77 5.51667 13.85 5.43C13.91 5.45 13.94 5.48 13.94 5.52C13.94 5.62 13.8767 5.69 13.75 5.73C13.67 5.75667 13.5867 5.77 13.5 5.77C13.36 5.77 13.2333 5.72667 13.12 5.64C13.12 5.77333 13.0433 5.99667 12.89 6.31C12.7967 6.49 12.6967 6.65333 12.59 6.8C12.4767 6.95333 12.36 7.09333 12.24 7.22C11.6333 7.88667 11.11 8.22 10.67 8.22ZM14.47 8.36C14.19 8.36 13.9567 8.27333 13.77 8.1C13.5833 7.92667 13.49 7.63 13.49 7.21C13.49 7.09667 13.5 6.97667 13.52 6.85C13.6 6.37 13.7933 5.91667 14.1 5.49C14.4867 4.96333 14.8833 4.7 15.29 4.7C15.51 4.7 15.7133 4.76 15.9 4.88C16.0867 4.99333 16.18 5.16333 16.18 5.39C16.18 5.64333 16.0767 5.90333 15.87 6.17H16.15C16.1967 6.17 16.2233 6.17667 16.23 6.19C16.23 6.24333 16.0567 6.30333 15.71 6.37C15.51 6.60333 15.3567 6.72 15.25 6.72C15.23 6.72 15.22 6.71 15.22 6.69C15.22 6.70333 15.29 6.61 15.43 6.41C15.31 6.41 15.15 6.41667 14.95 6.43C14.75 6.44333 14.51 6.47 14.23 6.51C14.13 6.79 14.08 7.05 14.08 7.29C14.08 7.60333 14.1633 7.83 14.33 7.97C14.43 8.06333 14.5567 8.11 14.71 8.11C14.7367 8.11 14.7633 8.11 14.79 8.11C14.8167 8.11 14.8433 8.10333 14.87 8.09C15.47 7.99 16.05 7.64667 16.61 7.06C16.6567 6.99333 16.6933 6.98333 16.72 7.03C16.7333 7.03667 16.74 7.05 16.74 7.07C16.74 7.11 16.71 7.15667 16.65 7.21C16.4567 7.46333 16.15 7.71 15.73 7.95C15.2633 8.22333 14.8433 8.36 14.47 8.36ZM14.37 6.22C14.5033 6.20667 14.67 6.2 14.87 6.2L15.57 6.19C15.6767 5.98333 15.7433 5.82 15.77 5.7C15.7967 5.58 15.81 5.48 15.81 5.4C15.81 5.20667 15.7367 5.11 15.59 5.11C15.4033 5.11 15.1967 5.22333 14.97 5.45C14.8433 5.57667 14.7267 5.70333 14.62 5.83C14.52 5.95667 14.4367 6.08667 14.37 6.22ZM16.74 8.22C16.6467 8.22 16.6033 8.17333 16.61 8.08C16.6367 7.96 16.67 7.77667 16.71 7.53C16.7433 7.27667 16.7833 6.95667 16.83 6.57C16.85 6.39 16.87 6.22667 16.89 6.08C16.91 5.94 16.9233 5.80667 16.93 5.68L16.97 5.17C16.9833 5.06333 17.0467 4.97333 17.16 4.9C17.28 4.82667 17.4 4.79 17.52 4.79C17.6867 4.79 17.7467 4.86 17.7 5L17.51 5.73C17.4633 5.85667 17.42 5.99 17.38 6.13C17.34 6.27 17.2967 6.41667 17.25 6.57C17.4833 6.16333 17.7633 5.78333 18.09 5.43C18.4567 5.05667 18.73 4.87 18.91 4.87C19.13 4.87 19.2867 4.99667 19.38 5.25C19.4867 5.49 19.4933 5.61 19.4 5.61C19.38 5.61 19.3467 5.57333 19.3 5.5C19.2133 5.33333 19.0967 5.25 18.95 5.25C18.5767 5.25 18.1133 5.66667 17.56 6.5C17.2533 6.96667 17.02 7.50333 16.86 8.11C16.84 8.18333 16.8 8.22 16.74 8.22ZM18.95 8.57C18.5967 8.57 18.42 8.49333 18.42 8.34C18.42 8.16667 18.5667 8.07 18.86 8.05C19.2533 8.03 19.74 7.98333 20.32 7.91C20.3933 7.79 20.43 7.68333 20.43 7.59C20.43 7.43667 20.3233 7.26667 20.11 7.08C19.5967 6.63333 19.34 6.20667 19.34 5.8C19.34 5.66 19.3733 5.52667 19.44 5.4C19.7533 4.86 20.1433 4.59 20.61 4.59C20.81 4.59 20.98 4.64333 21.12 4.75C21.26 4.85 21.33 4.96 21.33 5.08C21.33 5.12 21.3233 5.15667 21.31 5.19C21.2967 5.22333 21.28 5.24 21.26 5.24C21.24 5.24 21.2167 5.21 21.19 5.15C21.17 4.99 21.08 4.91 20.92 4.91C20.6867 4.91 20.4433 5.03667 20.19 5.29C19.95 5.55 19.83 5.79667 19.83 6.03C19.83 6.23667 19.9667 6.50333 20.24 6.83C20.5067 7.15 20.64 7.39 20.64 7.55C20.64 7.62333 20.6167 7.71667 20.57 7.83C20.69 7.77 20.8433 7.69 21.03 7.59C21.21 7.48333 21.4267 7.35667 21.68 7.21C21.7067 7.23 21.6 7.34667 21.36 7.56L20.46 8.09C20.3867 8.22333 20.19 8.33667 19.87 8.43C19.5833 8.52333 19.2767 8.57 18.95 8.57ZM28.89 8.97C28.4567 8.97 28.0267 8.83667 27.6 8.57C27.34 8.61667 27.0967 8.64 26.87 8.64C26.1033 8.64 25.53 8.45333 25.15 8.08C24.8033 7.74 24.63 7.27333 24.63 6.68C24.63 6.28667 24.7067 5.87 24.86 5.43C24.6867 5.11667 24.6 4.78667 24.6 4.44C24.6 3.58 25.0767 2.82 26.03 2.16C26.3233 1.50667 26.7567 0.996666 27.33 0.63C27.8433 0.283333 28.3733 0.11 28.92 0.11C29.7267 0.11 30.2433 0.446667 30.47 1.12C30.5367 1.3 30.5633 1.48667 30.55 1.68C31.43 2.16667 31.87 2.91 31.87 3.91C31.87 4.87667 31.53 5.77667 30.85 6.61C30.8567 6.65667 30.86 6.7 30.86 6.74C30.86 6.78 30.86 6.82333 30.86 6.87C30.86 7.25667 30.7767 7.61333 30.61 7.94C30.3767 8.38667 30.0067 8.7 29.5 8.88C29.3133 8.94 29.11 8.97 28.89 8.97ZM26.31 1.97C27.1033 1.51667 28 1.29 29 1.29C29.5133 1.29 29.9933 1.4 30.44 1.62C30.44 1.45333 30.4133 1.29 30.36 1.13C30.1467 0.523333 29.6667 0.22 28.92 0.22C28.42 0.22 27.9533 0.366667 27.52 0.66C27.0067 0.986667 26.6033 1.42333 26.31 1.97ZM27.32 8.11C27.92 7.99667 28.51 7.76 29.09 7.4C29.6767 7.04 30.17 6.59333 30.57 6.06C30.4367 5.72667 30.2167 5.43667 29.91 5.19C29.6033 4.94333 29.28 4.82 28.94 4.82C28.52 4.82 28.19 5.03667 27.95 5.47C27.95 5.49 27.94 5.5 27.92 5.5C27.84 5.5 27.8167 5.47333 27.85 5.42C28.11 4.93333 28.4733 4.69 28.94 4.69C29.28 4.69 29.6133 4.81333 29.94 5.06C30.2667 5.30667 30.51 5.59333 30.67 5.92C31.15 5.24 31.39 4.50667 31.39 3.72C31.39 2.94667 31.0967 2.35 30.51 1.93C30.4367 2.25 30.2833 2.52 30.05 2.74C29.8167 2.96667 29.54 3.08333 29.22 3.09C29.1867 3.09 29.17 3.07333 29.17 3.04C29.17 3 29.1867 2.98 29.22 2.98C29.5133 2.97333 29.77 2.86333 29.99 2.65C30.21 2.43 30.35 2.16667 30.41 1.86C30.01 1.6 29.54 1.47 29 1.47C27.8133 1.47 26.8367 1.82333 26.07 2.53C26.01 2.71667 25.96 2.90667 25.92 3.1C25.88 3.29333 25.8533 3.49667 25.84 3.71C26.76 2.64333 27.73 2.11 28.75 2.11C28.87 2.11 28.93 2.14 28.93 2.2C28.93 2.26667 28.8633 2.3 28.73 2.3C28.2767 2.3 27.78 2.48667 27.24 2.86C26.9667 3.04667 26.7133 3.25667 26.48 3.49C26.2467 3.72333 26.0233 3.98333 25.81 4.27L25.84 4.76C25.9467 6.16667 26.44 7.28333 27.32 8.11ZM24.98 5.08C25.12 4.72 25.33 4.35667 25.61 3.99C25.6233 3.59 25.68 3.20667 25.78 2.84C25.5733 3.08667 25.4067 3.34333 25.28 3.61C25.0733 4.01 24.97 4.43667 24.97 4.89C24.97 4.97 24.9733 5.03333 24.98 5.08ZM26.82 8.16H26.94C26.98 8.16 27.0233 8.15667 27.07 8.15C26.1833 7.26333 25.6967 6.06667 25.61 4.56C25.1433 5.3 24.91 5.97 24.91 6.57C24.91 7.07 25.0733 7.47 25.4 7.77C25.7267 8.07 26.2 8.2 26.82 8.16ZM28.96 8.86C29.1467 8.86 29.32 8.82667 29.48 8.76C29.9067 8.61333 30.2267 8.35 30.44 7.97C30.64 7.62333 30.73 7.22667 30.71 6.78C29.9367 7.67333 28.99 8.25667 27.87 8.53C28.23 8.75 28.5933 8.86 28.96 8.86ZM31.45 12.52C31.2233 12.52 31.01 12.49 30.81 12.43C30.1433 12.2433 29.3267 11.72 28.36 10.86C27.2667 9.88 26.5033 9.28333 26.07 9.07C25.8767 8.97667 25.6833 8.93 25.49 8.93C25.31 8.93 25.1467 8.97667 25 9.07C24.7267 9.25667 24.59 9.52667 24.59 9.88C24.59 10.44 24.89 10.7967 25.49 10.95C25.5967 10.9767 25.65 11.0133 25.65 11.06C25.65 11.1 25.6133 11.12 25.54 11.12L25.4 11.09C24.68 10.8433 24.32 10.4467 24.32 9.9C24.32 9.6 24.4433 9.34 24.69 9.12C24.93 8.9 25.2367 8.79 25.61 8.79C25.7967 8.79 26.0133 8.82667 26.26 8.9C26.5 8.98 26.7567 9.10333 27.03 9.27C27.31 9.43667 27.5967 9.64 27.89 9.88L29.49 11.2C30.1433 11.6733 30.7967 11.9967 31.45 12.17C31.6167 12.2167 31.7667 12.24 31.9 12.24C32.32 12.24 32.6267 12.1 32.82 11.82C32.8667 11.7733 32.9033 11.7433 32.93 11.73C32.9633 11.7233 32.98 11.7333 32.98 11.76C32.98 11.78 32.9633 11.8067 32.93 11.84C32.6033 12.2933 32.11 12.52 31.45 12.52ZM32.4 8.25C32.0467 8.20333 31.87 7.95333 31.87 7.5C31.87 6.81333 32.21 5.96 32.89 4.94C32.9367 4.86667 33.0533 4.83 33.24 4.83C33.5333 4.83 33.68 4.87667 33.68 4.97L33.66 5C33.5467 5.11333 33.43 5.25667 33.31 5.43C33.1833 5.61 33.0533 5.82 32.92 6.06C32.6933 6.46 32.52 6.84 32.4 7.2C32.3333 7.36667 32.3 7.52 32.3 7.66C32.3 7.84667 32.3633 7.94 32.49 7.94C32.63 7.94 32.8 7.83667 33 7.63C33.08 7.55667 33.4533 7.04 34.12 6.08C34.26 5.89333 34.3733 5.8 34.46 5.8C34.5267 5.8 34.56 5.87667 34.56 6.03C34.56 6.11667 34.5567 6.2 34.55 6.28C34.5433 6.36 34.54 6.43667 34.54 6.51C34.54 7.47 34.7333 7.95 35.12 7.95C35.3733 7.95 35.6567 7.78667 35.97 7.46L36.22 7.2C36.2533 7.18 36.2833 7.19667 36.31 7.25C36.27 7.35667 36.1067 7.53 35.82 7.77C35.4533 8.07667 35.12 8.23 34.82 8.23C34.74 8.23 34.6567 8.21667 34.57 8.19C34.3167 8.10333 34.1433 7.81 34.05 7.31C33.99 6.93667 33.9633 6.70333 33.97 6.61C33.9167 6.71 33.7333 6.98 33.42 7.42C32.9867 8.00667 32.6467 8.28333 32.4 8.25ZM36.25 8.25C35.95 8.20333 35.8 7.99333 35.8 7.62C35.8 7.04667 36.0633 6.41667 36.59 5.73C37.13 4.99667 37.69 4.63 38.27 4.63C38.4633 4.63 38.6433 4.67667 38.81 4.77C38.97 4.85667 39.05 4.99333 39.05 5.18C39.05 5.39333 38.9633 5.51333 38.79 5.54C38.8433 5.44667 38.87 5.35333 38.87 5.26C38.87 5.06 38.7533 4.96 38.52 4.96C38.2933 4.96 38.05 5.07 37.79 5.29C37.15 5.84333 36.68 6.48333 36.38 7.21C36.2867 7.43667 36.24 7.62333 36.24 7.77C36.24 7.89 36.28 7.95 36.36 7.95C36.4533 7.95 36.6167 7.84333 36.85 7.63C37.01 7.48333 37.3567 7.03 37.89 6.27C38.03 6.07667 38.1433 5.98 38.23 5.98C38.3033 5.98 38.34 6.17667 38.34 6.57V7.35C38.42 7.76333 38.5633 7.97 38.77 7.97C38.8833 7.97 39.0233 7.93 39.19 7.85C39.35 7.77 39.51 7.64 39.67 7.46L39.92 7.2C39.9467 7.18667 39.98 7.20333 40.02 7.25C39.98 7.35667 39.8167 7.53 39.53 7.77C39.1633 8.07667 38.8267 8.23 38.52 8.23C38.4333 8.23 38.35 8.21667 38.27 8.19C38.0233 8.10333 37.8633 7.84333 37.79 7.41C37.77 7.28333 37.7533 7.18 37.74 7.1C37.7267 7.01333 37.72 6.94333 37.72 6.89C37.72 6.86333 37.72 6.84 37.72 6.82C37.6667 6.93333 37.5033 7.16667 37.23 7.52C36.83 8.04 36.5033 8.28333 36.25 8.25ZM39.58 8.22C39.4867 8.22 39.4467 8.17333 39.46 8.08C39.4867 7.96 39.52 7.77667 39.56 7.53C39.5933 7.27667 39.6333 6.95667 39.68 6.57C39.7 6.39 39.72 6.22667 39.74 6.08C39.76 5.94 39.7733 5.80667 39.78 5.68L39.82 5.17C39.8333 5.06333 39.8967 4.97333 40.01 4.9C40.13 4.82667 40.25 4.79 40.37 4.79C40.5367 4.79 40.5967 4.86 40.55 5L40.35 5.73C40.3033 5.85667 40.2633 5.99 40.23 6.13C40.19 6.27 40.1467 6.41667 40.1 6.57C40.3333 6.16333 40.6133 5.78333 40.94 5.43C41.3067 5.05667 41.5767 4.87 41.75 4.87C41.9767 4.87 42.1367 4.99667 42.23 5.25C42.33 5.49 42.3333 5.61 42.24 5.61C42.2267 5.61 42.1967 5.57333 42.15 5.5C42.0633 5.33333 41.9467 5.25 41.8 5.25C41.4267 5.25 40.9633 5.66667 40.41 6.5C40.1033 6.96667 39.87 7.50333 39.71 8.11C39.69 8.18333 39.6467 8.22 39.58 8.22ZM41.89 8.22C41.7967 8.22 41.7567 8.17333 41.77 8.08C41.7967 7.96 41.83 7.77667 41.87 7.53C41.9033 7.27667 41.9433 6.95667 41.99 6.57C42.01 6.39 42.03 6.22667 42.05 6.08C42.07 5.94 42.0833 5.80667 42.09 5.68L42.13 5.17C42.1433 5.06333 42.2067 4.97333 42.32 4.9C42.44 4.82667 42.56 4.79 42.68 4.79C42.8467 4.79 42.9067 4.86 42.86 5L42.66 5.73C42.6133 5.85667 42.5733 5.99 42.54 6.13C42.5 6.27 42.4567 6.41667 42.41 6.57C42.6433 6.16333 42.9233 5.78333 43.25 5.43C43.6167 5.05667 43.8867 4.87 44.06 4.87C44.2867 4.87 44.4467 4.99667 44.54 5.25C44.64 5.49 44.6433 5.61 44.55 5.61C44.5367 5.61 44.5067 5.57333 44.46 5.5C44.3733 5.33333 44.2567 5.25 44.11 5.25C43.7367 5.25 43.2733 5.66667 42.72 6.5C42.4133 6.96667 42.18 7.50333 42.02 8.11C42 8.18333 41.9567 8.22 41.89 8.22ZM45.09 8.36C44.81 8.36 44.5767 8.27333 44.39 8.1C44.2033 7.92667 44.11 7.63 44.11 7.21C44.11 7.09667 44.1167 6.97667 44.13 6.85C44.2167 6.37 44.4133 5.91667 44.72 5.49C45.1067 4.96333 45.5033 4.7 45.91 4.7C46.1233 4.7 46.3233 4.76 46.51 4.88C46.6967 4.99333 46.79 5.16333 46.79 5.39C46.79 5.64333 46.69 5.90333 46.49 6.17H46.77C46.8167 6.17 46.8433 6.17667 46.85 6.19C46.85 6.24333 46.6767 6.30333 46.33 6.37C46.1233 6.60333 45.97 6.72 45.87 6.72C45.85 6.72 45.84 6.71 45.84 6.69C45.84 6.70333 45.91 6.61 46.05 6.41C45.93 6.41 45.77 6.41667 45.57 6.43C45.37 6.44333 45.13 6.47 44.85 6.51C44.7433 6.79 44.69 7.05 44.69 7.29C44.69 7.60333 44.7767 7.83 44.95 7.97C45.05 8.06333 45.1733 8.11 45.32 8.11C45.3533 8.11 45.3833 8.11 45.41 8.11C45.4367 8.11 45.4633 8.10333 45.49 8.09C46.09 7.99 46.67 7.64667 47.23 7.06C47.2767 6.99333 47.3133 6.98333 47.34 7.03C47.3467 7.03667 47.35 7.05 47.35 7.07C47.35 7.11 47.3233 7.15667 47.27 7.21C47.0767 7.46333 46.77 7.71 46.35 7.95C45.8833 8.22333 45.4633 8.36 45.09 8.36ZM44.99 6.22C45.1167 6.20667 45.2833 6.2 45.49 6.2L46.19 6.19C46.2967 5.98333 46.3633 5.82 46.39 5.7C46.4167 5.58 46.43 5.48 46.43 5.4C46.43 5.20667 46.3567 5.11 46.21 5.11C46.0233 5.11 45.8167 5.22333 45.59 5.45C45.4567 5.57667 45.34 5.70333 45.24 5.83C45.14 5.95667 45.0567 6.08667 44.99 6.22ZM48.11 8.26C47.6433 8.26 47.41 7.93333 47.41 7.28C47.41 7.00667 47.4533 6.66667 47.54 6.26H47.49C47.43 6.26 47.4 6.23667 47.4 6.19C47.4 6.11667 47.4833 5.98667 47.65 5.8C48.1967 3.47333 48.9333 1.92333 49.86 1.15C50.0667 0.983333 50.28 0.9 50.5 0.9C50.8133 0.9 50.97 1.05667 50.97 1.37C50.97 2.06333 50.6367 2.84667 49.97 3.72C49.5967 4.18667 49 4.83333 48.18 5.66C47.9667 6.38667 47.86 6.96333 47.86 7.39C47.86 7.80333 48 8.01 48.28 8.01C48.4933 8.01 48.75 7.92667 49.05 7.76C49.35 7.58667 49.5833 7.39333 49.75 7.18C49.8167 7.1 49.8667 7.06 49.9 7.06C49.92 7.06 49.93 7.07667 49.93 7.11C49.93 7.21667 49.9033 7.3 49.85 7.36C49.6767 7.56 49.42 7.75333 49.08 7.94C48.6733 8.15333 48.35 8.26 48.11 8.26ZM48.22 5.35C48.7267 4.88333 49.2367 4.29333 49.75 3.58C50.4033 2.68 50.74 1.98 50.76 1.48V1.44C50.76 1.22 50.6933 1.11 50.56 1.11C50.4 1.11 50.2167 1.24 50.01 1.5C49.8833 1.66 49.7367 1.88667 49.57 2.18C49.3967 2.47333 49.21 2.84333 49.01 3.29C48.8233 3.70333 48.6633 4.08 48.53 4.42C48.3967 4.76 48.2933 5.07 48.22 5.35Z" fill="black"/>
</svg>
