<svg width="133" height="12" viewBox="0 0 133 12" fill="none" xmlns="http://www.w3.org/2000/svg">
<path d="M1.01 1.62L1.16 1.58C1.88667 1.58 2.51667 1.66333 3.05 1.83H3.28H3.46L3.49 1.9L3.47 2.69C3.46333 2.74333 3.43333 2.77 3.38 2.77L3.21 2.61L2.84 2.53H2.72L2.64 2.55V2.61C2.76667 2.66333 2.84667 2.69 2.88 2.69V2.72C2.88 2.75333 2.77667 2.78 2.57 2.8L2.49 5.47V5.75L2.47 9.42V9.64C2.47 9.72 2.72667 9.76 3.24 9.76H5.86L6.3 9.79C6.35333 9.79 6.4 9.53667 6.44 9.03C6.46667 8.90333 6.50667 8.84 6.56 8.84C7.1 8.86 7.37 8.91 7.37 8.99C7.33 9.07667 7.27333 9.12 7.2 9.12V9.16C7.29333 9.24667 7.34 9.32333 7.34 9.39C7.34 9.59667 7.30667 9.87333 7.24 10.22V10.43L7.26 10.5C7.20667 10.6 7.18 10.69 7.18 10.77C7.16 10.77 7.12333 10.83 7.07 10.95C6.87 11.0233 6.67333 11.06 6.48 11.06H6.42L5.25 10.95H5.18L2.49 11.06L0.61 10.88C0.536667 10.8267 0.5 10.7667 0.5 10.7C0.573333 10.1667 0.69 9.9 0.85 9.9C0.89 9.85333 1.06667 9.81667 1.38 9.79C1.5 9.49667 1.50333 8.17333 1.39 5.82C1.45 5.18667 1.49667 4.24 1.53 2.98V2.84C1.53 2.70667 1.43333 2.64 1.24 2.64L1.12 2.61V2.57C1.28667 2.49 1.41333 2.45 1.5 2.45V2.39L1.19 2.35H1V2.4C1.03333 2.4 1.05 2.41667 1.05 2.45C1.02333 2.49 0.983333 2.51 0.93 2.51H0.87C0.783333 2.47667 0.74 2.37333 0.74 2.2V2.16C0.74 1.94667 0.796667 1.81333 0.91 1.76C0.943333 1.76 0.976667 1.71333 1.01 1.62ZM1.19 2.05H1.12L1.08 2.08V2.1H1.15L1.19 2.06V2.05ZM2.98 2.06H2.94L2.88 2.1V2.13L2.98 2.16V2.17L2.94 2.2L2.66 2.19L2.65 2.2V2.27L2.69 2.31H2.97C3.11 2.31 3.18 2.26 3.18 2.16C3.12 2.09333 3.05333 2.06 2.98 2.06ZM1.93 2.16C1.96333 2.22 2.06333 2.25 2.23 2.25H2.32L2.39 2.19C2.31 2.13 2.23 2.1 2.15 2.1H2.04C1.96667 2.1 1.93 2.12 1.93 2.16ZM2.3 2.4H2.24L2.17 2.43V2.45L2.2 2.5H2.3L2.38 2.47V2.43L2.3 2.4ZM2.19 2.69L2.17 2.72V2.91C2.18333 3.03 2.20667 3.09 2.24 3.09L2.32 3.03V2.94C2.31333 2.77333 2.27 2.69 2.19 2.69ZM2.09 5.4H2.05C1.97667 5.78 1.97333 6.03 2.04 6.15C2.08 6.23 2.11 6.20333 2.13 6.07L2.15 5.62C2.13667 5.47333 2.11667 5.4 2.09 5.4ZM7.11 9.36H7.08C7.00667 9.55333 6.97 9.66333 6.97 9.69L6.86 10.27V10.32L6.9 10.36H6.94C7.06 10.3067 7.13 10.0467 7.15 9.58C7.14333 9.43333 7.13 9.36 7.11 9.36ZM2.04 9.42H1.97V9.46C1.92333 9.59333 1.9 9.69333 1.9 9.76C1.9 9.88667 1.93 9.96333 1.99 9.99H2.05C2.08333 9.99 2.1 9.86 2.1 9.6V9.54C2.1 9.48 2.08 9.44 2.04 9.42ZM5.8 9.88H5.66V9.92C5.66 9.94667 5.72 9.96667 5.84 9.98C5.84 10.0533 5.92 10.0933 6.08 10.1L6.34 10.07V10.02C6.16667 10.02 5.98667 9.97333 5.8 9.88ZM5.49 10.03L5.41 10.02H5.06V10.03C5.06667 10.0567 5.11 10.07 5.19 10.07H5.49V10.03ZM0.76 10.22C0.833333 10.22 0.87 10.19 0.87 10.13V10.1H0.85C0.79 10.1133 0.76 10.1533 0.76 10.22ZM4.54 10.37L2.12 10.2H2.05V10.27C2.21667 10.2967 3.03667 10.3467 4.51 10.42L4.54 10.4V10.37ZM0.83 10.36L0.79 10.32L0.71 10.33V10.37L0.75 10.42H0.79L0.83 10.37V10.36ZM5.49 10.44H5.3L5.28 10.47V10.5L5.4 10.53H5.59V10.5C5.59 10.46 5.55667 10.44 5.49 10.44ZM5.89 10.62V10.63H5.93C6.02333 10.63 6.11667 10.5967 6.21 10.53C6.19667 10.49 6.16 10.47 6.1 10.47C6.06 10.47 5.99 10.52 5.89 10.62ZM6.52 10.68H6.29L6.08 10.69V10.7C6.15333 10.7733 6.24667 10.81 6.36 10.81H6.4C6.44667 10.81 6.48667 10.7933 6.52 10.76C6.56667 10.7933 6.61667 10.81 6.67 10.81H6.78C6.88 10.81 6.93333 10.7933 6.94 10.76V10.74C6.94 10.7 6.8 10.68 6.52 10.68ZM2.57 10.8H2.56L2.25 10.81V10.84C2.25 10.9067 2.46667 10.9467 2.9 10.96C3.18 10.96 3.41 10.9333 3.59 10.88V10.84C3.21 10.8133 2.87 10.8 2.57 10.8ZM1.98 10.88V10.84H1.95V10.88H1.98ZM4.28 10.84H4.11L4.03 10.87V10.92H4.11L4.28 10.88V10.84ZM11.29 4.52L11.67 4.63H11.8C12.32 4.89 12.8033 5.19667 13.25 5.55C13.71 5.95 13.94 6.25 13.94 6.45H13.92C13.8467 6.32333 13.7733 6.26 13.7 6.26H13.68C13.6533 6.26 13.64 6.27667 13.64 6.31C13.68 6.41 13.7633 6.58333 13.89 6.83H13.92C13.9333 6.83 13.9567 6.78667 13.99 6.7H14C14.0267 6.70667 14.0567 6.83667 14.09 7.09L14.22 7.37L14.19 7.54L14.23 8.04C14.17 8.26667 14.11 8.56667 14.05 8.94C14.0167 9.11333 13.5933 9.76 12.78 10.88C12.42 11.2267 12.0667 11.4 11.72 11.4C11.4 11.4333 11.04 11.45 10.64 11.45H10.38C10.22 11.45 9.81333 11.32 9.16 11.06C8.32667 10.32 7.91 9.75333 7.91 9.36C7.79667 9.11333 7.69667 8.88667 7.61 8.68C7.61 8.56 7.73333 8.16667 7.98 7.5C7.98 7.08 8.08 6.79 8.28 6.63C8.71333 5.71 9.25667 5.11333 9.91 4.84C10.4833 4.62667 10.9433 4.52 11.29 4.52ZM8.83 8.82V8.9C8.95667 9.14667 9.09667 9.41 9.25 9.69C9.25 9.78333 9.42333 9.91 9.77 10.07C9.93667 10.2633 10.2433 10.4167 10.69 10.53L10.94 10.55C11.34 10.47 11.64 10.3833 11.84 10.29L12.33 9.88C12.8433 9.33333 13.09 8.87333 13.07 8.5V8.38C13.0167 8.23333 12.99 7.99667 12.99 7.67C12.99 7.41 13.0067 7.21 13.04 7.07C13.04 7.00333 12.8633 6.84333 12.51 6.59C12.2567 6.22333 11.9933 6 11.72 5.92H11.55C10.4833 5.96667 9.95 6.05333 9.95 6.18C9.71667 6.41333 9.55333 6.64333 9.46 6.87C9.16667 7.18333 9.02 7.39 9.02 7.49C8.94 7.86333 8.87667 8.30667 8.83 8.82ZM9.25 5.51L9.21 5.58V5.63C9.27 5.63 9.55 5.44 10.05 5.06L10.16 5.02L10.24 5.03C10.8533 4.96333 11.16 4.90333 11.16 4.85V4.84L10.94 4.8C10.32 4.8 9.75667 5.03667 9.25 5.51ZM10.32 5.79V5.81L10.35 5.85H10.54L11.51 5.63V5.6L11.25 5.55C10.63 5.62333 10.32 5.70333 10.32 5.79ZM8.17 9.2L8.12 9.24V9.34C8.14 9.64667 8.22667 9.82 8.38 9.86L8.39 9.84V9.83C8.33 9.41 8.25667 9.2 8.17 9.2ZM10.29 5.33V5.4C11.0033 5.32 11.36 5.26333 11.36 5.23L11.25 5.19H11.24C10.8 5.19 10.4833 5.23667 10.29 5.33ZM11.46 4.81C11.5 4.93667 11.6 5 11.76 5L11.89 5.02L11.92 5V4.93C11.92 4.83 11.8233 4.77333 11.63 4.76C11.5167 4.76667 11.46 4.78333 11.46 4.81ZM8.97 10.58H8.87V10.63C8.99 10.75 9.20333 10.81 9.51 10.81H9.66C9.62 10.75 9.39 10.6733 8.97 10.58ZM11.22 11.09V11.11C11.22 11.1367 11.29 11.16 11.43 11.18C11.5833 11.18 11.66 11.1567 11.66 11.11V11.09C11.6533 11.05 11.6233 11.0133 11.57 10.98H11.44C11.34 10.98 11.2667 11.0167 11.22 11.09ZM13.82 8.49C13.8267 8.76333 13.85 8.91 13.89 8.93H13.92C13.92 8.83 13.96 8.72 14.04 8.6V8.56L13.89 8.35H13.86C13.84 8.35 13.8267 8.39667 13.82 8.49ZM12.92 6.14H12.86C12.92 6.25333 13.0533 6.35333 13.26 6.44H13.32L13.36 6.4V6.38C13.2 6.22 13.0533 6.14 12.92 6.14ZM12.62 5.71V5.74C12.6467 5.84667 12.7733 5.96 13 6.08H13.04L13.07 6.04V6.03C13.0233 5.96333 12.8733 5.85667 12.62 5.71ZM11.72 5.26L11.69 5.28C11.8633 5.41333 12 5.48 12.1 5.48L12.11 5.45V5.44C11.9633 5.32 11.8333 5.26 11.72 5.26ZM9.9 10.76V10.8C9.9 10.8533 10.0267 10.88 10.28 10.88L10.29 10.87V10.84C10.1767 10.7867 10.0467 10.76 9.9 10.76ZM12.44 5.11H12.41L12.37 5.15C12.47 5.27667 12.57 5.34 12.67 5.34C12.67 5.24 12.5933 5.16333 12.44 5.11ZM9.08 6.52V6.62H9.12C9.24 6.50667 9.3 6.42 9.3 6.36V6.34H9.23C9.17667 6.38 9.12667 6.44 9.08 6.52ZM12.17 5.89C12.2233 5.98333 12.2867 6.03 12.36 6.03L12.37 6V5.97C12.37 5.89 12.3333 5.85 12.26 5.85C12.2 5.85667 12.17 5.87 12.17 5.89ZM13.49 9.49V9.5C13.5633 9.5 13.6267 9.42667 13.68 9.28V9.25H13.64C13.5867 9.25 13.5367 9.33 13.49 9.49ZM9.36 5.81C9.44667 5.81 9.52667 5.75333 9.6 5.64V5.6C9.44 5.64667 9.36 5.71667 9.36 5.81ZM13.73 8.99L13.71 9.24H13.78L13.83 9.28C13.8433 9.13333 13.8233 9.07 13.77 9.09H13.74L13.73 8.99ZM11.96 11.18H11.98C12.14 11.1267 12.22 11.08 12.22 11.04L12.19 11.02C12.0633 11.0667 11.9867 11.12 11.96 11.18ZM8.68 10.1L8.63 10.13V10.16L8.74 10.27H8.79C8.79 10.2033 8.75333 10.1467 8.68 10.1ZM9.61 10.95V10.96H9.79L9.82 10.94L9.79 10.89H9.76C9.66667 10.89 9.61667 10.91 9.61 10.95ZM14.05 7.52H14.04L14 7.56V7.61L14.04 7.67L14.09 7.61V7.56L14.05 7.52ZM8.26 7.08C8.30667 7.08 8.34667 7.04667 8.38 6.98V6.96C8.3 6.96 8.26 7 8.26 7.08ZM7.85 8.56H7.83L7.81 8.6C7.81667 8.68 7.83 8.72 7.85 8.72L7.87 8.71V8.64L7.85 8.56ZM11.48 5.4V5.41L11.62 5.3L11.59 5.29C11.5033 5.34333 11.4667 5.38 11.48 5.4ZM8.53 6.62H8.54C8.58 6.60667 8.6 6.57 8.6 6.51H8.57C8.54333 6.52333 8.53 6.56 8.53 6.62ZM8.63 8.26H8.61L8.56 8.31V8.34H8.6L8.63 8.3V8.26ZM9.42 6.22V6.19H9.36V6.25H9.39L9.42 6.22ZM15.82 4.14C16.4933 4.22 16.83 4.34333 16.83 4.51L16.9 4.59V4.77L17.05 4.93C16.95 5.01667 16.9 5.10333 16.9 5.19C16.9133 5.23667 16.9433 5.26 16.99 5.26V5.28L16.91 5.37H16.8C16.7067 5.29667 16.6333 5.26 16.58 5.26C16.1 5.28667 16.0433 5.68333 16.41 6.45C16.67 7.37 16.8933 7.94333 17.08 8.17C17.5867 9.33667 17.93 9.94 18.11 9.98H18.14C18.18 9.98 18.2867 9.75667 18.46 9.31C18.7933 8.69667 19.06 8.11667 19.26 7.57C19.4133 7.31 19.49 7.13 19.49 7.03L19.45 6.89C20.0567 5.77667 20.08 5.23333 19.52 5.26L19.36 5.29H19.3C19.2733 4.49 19.36 4.09 19.56 4.09C19.78 3.99667 20.35 3.95 21.27 3.95C21.69 3.95 21.9 4.10333 21.9 4.41C22 4.58333 22.05 4.69333 22.05 4.74C21.9033 4.86 21.83 4.99667 21.83 5.15L21.33 5.25C21.31 5.28333 21.16 5.6 20.88 6.2C20.8133 6.39333 20.49 7.01333 19.91 8.06L19.54 9.2C18.9933 10.3267 18.71 10.89 18.69 10.89C18.67 10.89 18.66 10.92 18.66 10.98V11.09V11.1C18.66 11.2333 18.5467 11.3167 18.32 11.35L18.05 11.51C17.9367 11.51 17.7767 11.44 17.57 11.3L16.9 10.36C16.7867 9.96 16.6867 9.76 16.6 9.76C16.54 9.70667 16.46 9.48 16.36 9.08C16.18 8.76 16.0067 8.48 15.84 8.24C15.84 8.20667 15.8633 8.16667 15.91 8.12V8.06L15.68 7.5C15.5467 7.01333 15.4467 6.75 15.38 6.71C15.08 5.84333 14.8733 5.41 14.76 5.41C14.76 5.45667 14.7033 5.48333 14.59 5.49C14.43 5.49 14.2467 5.41333 14.04 5.26V5.23L14.08 5.17V5.12C14.08 5.10667 14.0167 5.06333 13.89 4.99L13.88 4.96C14.0867 4.91333 14.19 4.86667 14.19 4.82L14 4.73L13.99 4.71V4.67L14.08 4.55C14.08 4.51667 14.05 4.47 13.99 4.41V4.37C15.0433 4.21667 15.6533 4.14 15.82 4.14ZM15.42 4.37C15.42 4.39667 15.4933 4.41 15.64 4.41H16.15V4.39C15.99 4.32333 15.8533 4.29 15.74 4.29H15.57C15.49 4.29 15.44 4.31667 15.42 4.37ZM14.93 4.77H14.76L14.71 4.81V4.87L14.78 4.89C14.9067 4.87667 14.97 4.84667 14.97 4.8L14.93 4.77ZM19.51 4.24V4.3L19.55 4.37H19.56C19.56 4.31667 20.09 4.26667 21.15 4.22L21.18 4.21H21.19V4.17C21.19 4.14333 21.1167 4.13 20.97 4.13C20.4167 4.13 19.93 4.16667 19.51 4.24ZM19.39 4.58V4.66C19.39 4.8 19.44 4.87 19.54 4.87H19.55L19.59 4.82V4.81C19.51 4.59 19.4567 4.48 19.43 4.48C19.4033 4.5 19.39 4.53333 19.39 4.58ZM14.45 5.26H14.42L14.38 5.3L14.42 5.33H14.6V5.3L14.45 5.26ZM19.88 4.61H19.8L19.75 4.66L19.8 4.69C19.8533 4.67667 19.88 4.66333 19.88 4.65V4.61ZM21.26 4.77V4.78L21.45 4.82C21.59 4.81333 21.66 4.8 21.66 4.78C21.66 4.74667 21.6 4.72333 21.48 4.71H21.35C21.29 4.71 21.26 4.73 21.26 4.77ZM15.26 5.63H15.22L15.2 5.67C15.2733 5.71667 15.3167 5.73667 15.33 5.73C15.3433 5.71667 15.32 5.68333 15.26 5.63ZM20.52 5.9V6H20.55C20.6033 5.98 20.6667 5.87667 20.74 5.69C20.7667 5.65667 20.83 5.64 20.93 5.64L20.94 5.62V5.52L20.92 5.47V5.43L20.99 5.4C20.99 5.32 20.9533 5.25667 20.88 5.21C20.7467 5.21 20.6267 5.44 20.52 5.9ZM20.49 6.38V6.34H20.47V6.38H20.49ZM20.27 6.29V6.34H20.33C20.3767 6.34 20.4233 6.24333 20.47 6.05V6H20.45V5.97C20.4033 5.97 20.3433 6.07667 20.27 6.29ZM20.01 6.87V6.96H20.07C20.1633 6.87333 20.21 6.78 20.21 6.68V6.63H20.15C20.0567 6.68333 20.01 6.76333 20.01 6.87ZM15.84 6.71H15.83C15.85 6.81667 15.8767 6.87 15.91 6.87V6.85C15.9033 6.75667 15.88 6.71 15.84 6.71ZM19.81 7.45H19.84C19.92 7.37 19.9733 7.26333 20 7.13V7.12C19.9 7.12 19.8367 7.23 19.81 7.45ZM19.77 7.61H19.75L19.7 7.67L19.73 7.72L19.77 7.65V7.61ZM19.56 7.82V7.83L19.6 7.86C19.6467 7.86 19.67 7.82667 19.67 7.76V7.72L19.63 7.67C19.5833 7.69 19.56 7.74 19.56 7.82ZM16.79 8.17H16.75V8.21C16.8633 8.57 16.9633 8.75 17.05 8.75V8.72C16.95 8.37333 16.8633 8.19 16.79 8.17ZM18.73 10.32H18.77C18.81 10.32 19.0233 9.89 19.41 9.03L19.45 8.83V8.82H19.43C19.3167 8.89333 19.1833 9.14667 19.03 9.58C18.83 9.95333 18.73 10.2 18.73 10.32ZM19.03 8.88V8.86H18.99C18.65 9.49333 18.48 9.84 18.48 9.9L18.52 9.94C18.78 9.52667 18.9367 9.22 18.99 9.02C19.0167 8.98667 19.03 8.94 19.03 8.88ZM17.61 9.98H17.58V9.99C17.5867 10.0833 17.6567 10.1967 17.79 10.33H17.81L17.84 10.32C17.7933 10.1933 17.7167 10.08 17.61 9.98ZM17.24 9.99H17.21V10.03C17.21 10.1233 17.2967 10.21 17.47 10.29H17.49L17.5 10.28V10.27C17.46 10.1767 17.3733 10.0833 17.24 9.99ZM18.05 10.29V10.32C18.1033 10.4933 18.18 10.58 18.28 10.58C18.38 10.4067 18.43 10.2867 18.43 10.22V10.2H18.41C18.3833 10.2133 18.2633 10.2433 18.05 10.29ZM18.72 10.42H18.66L18.32 11.02V11.06C18.5 11.06 18.6133 10.8867 18.66 10.54C18.7 10.54 18.72 10.5 18.72 10.42ZM17.68 10.44L17.64 10.47C17.7533 10.6367 17.8667 10.72 17.98 10.72V10.68C17.9067 10.52 17.8067 10.44 17.68 10.44ZM17.61 10.76L17.55 10.7H17.53V10.72L17.57 10.8H17.61V10.76ZM25.22 4.13C25.6067 4.13 26.0733 4.29333 26.62 4.62C27.0867 4.96667 27.32 5.20333 27.32 5.33C27.68 6.09667 27.86 6.55667 27.86 6.71L27.88 6.82C27.74 7.14 27.67 7.36 27.67 7.48L27.59 7.49H26.43C26.3167 7.49 26.1833 7.50333 26.03 7.53C24.7167 7.42333 23.7967 7.37 23.27 7.37H22.98C22.8733 7.53 22.82 7.64667 22.82 7.72C22.88 7.82 22.91 7.98 22.91 8.2C22.91 8.54667 22.9667 8.75333 23.08 8.82L23.09 8.88V8.9L23.01 8.86V8.9L23.13 9.03C23.13 9.15 23.2133 9.30333 23.38 9.49C23.68 10.0167 24.0067 10.3433 24.36 10.47C24.66 10.57 25.0033 10.62 25.39 10.62C25.45 10.62 25.58 10.56 25.78 10.44C25.9467 10.4067 26.2933 10.11 26.82 9.55V9.51C26.82 9.49667 26.7567 9.48 26.63 9.46L26.6 9.39C26.8133 8.99 27.0667 8.72667 27.36 8.6C27.44 8.68 27.6067 8.80667 27.86 8.98C28.06 9.29333 28.33 9.65667 28.67 10.07V10.13C28.3767 10.51 28.1667 10.7 28.04 10.7H27.99C27.99 10.5 27.8667 10.3867 27.62 10.36C27.5733 10.36 27.37 10.51 27.01 10.81C26.8033 10.9767 26.4433 11.1333 25.93 11.28C25.3433 11.3933 24.9267 11.45 24.68 11.45L23.9 11.18C23.46 11.18 23.0567 10.9433 22.69 10.47C22.5367 10.3033 22.41 10.1067 22.31 9.88C22.31 9.80667 22.21 9.43 22.01 8.75C21.9433 8.48333 21.91 8.22667 21.91 7.98V7.97C21.91 6.75667 22.2767 5.69333 23.01 4.78C23.1033 4.55333 23.3133 4.38667 23.64 4.28C23.86 4.21333 24.1233 4.16333 24.43 4.13C24.51 4.09 24.7733 4.09 25.22 4.13ZM23.99 4.39L23.97 4.41V4.43H23.99C24.1367 4.43 24.41 4.38 24.81 4.28C24.8967 4.26667 24.94 4.24333 24.94 4.21L24.9 4.17H24.88C24.62 4.17 24.3233 4.24333 23.99 4.39ZM23.42 4.65V4.66L23.46 4.69H23.47C23.6567 4.64333 23.75 4.59667 23.75 4.55V4.47L23.69 4.41H23.66C23.5 4.47 23.42 4.55 23.42 4.65ZM25.52 4.51H25.11V4.54C25.11 4.57333 25.2967 4.6 25.67 4.62H25.69V4.56C25.69 4.54667 25.6333 4.53 25.52 4.51ZM24.55 4.71V4.73C24.55 4.76333 24.7367 4.81 25.11 4.87L25.14 4.85V4.8C25.0667 4.7 24.9433 4.65 24.77 4.65H24.73C24.61 4.65667 24.55 4.67667 24.55 4.71ZM25.39 4.8V4.81C25.91 5.11 26.1867 5.26 26.22 5.26H26.24L26.37 5.21L26.45 5.23L26.47 5.21V5.19C26.43 5.16333 26.3533 5.13667 26.24 5.11L25.96 4.99C25.8867 4.83667 25.74 4.76 25.52 4.76H25.48C25.42 4.76667 25.39 4.78 25.39 4.8ZM23.76 5.19C23.8533 5.11667 24.0367 5.04 24.31 4.96V4.93L24.29 4.91H24.16C23.8933 4.98333 23.76 5.07667 23.76 5.19ZM23.04 6.1V6.14C23.04 6.24 23.8667 6.35333 25.52 6.48L25.66 6.52L25.84 6.51C26.2067 6.62333 26.4533 6.68 26.58 6.68C26.58 6.70667 26.6067 6.73 26.66 6.75C26.7133 6.67 26.74 6.59333 26.74 6.52V6.26C26.74 6.14 26.5133 5.87667 26.06 5.47C25.8467 5.25667 25.61 5.13667 25.35 5.11L24.88 5.03C24.1267 5.18333 23.63 5.37 23.39 5.59C23.29 5.78333 23.1733 5.95333 23.04 6.1ZM23.19 5.28V5.3H23.21C23.33 5.27333 23.39 5.24333 23.39 5.21V5.19H23.32C23.2733 5.19 23.23 5.22 23.19 5.28ZM26.45 5.47C26.47 5.54333 26.5133 5.58 26.58 5.58H26.6L26.63 5.53V5.45L26.58 5.38C26.4933 5.38 26.45 5.41 26.45 5.47ZM22.98 5.53H22.93L22.9 5.58V5.59H22.93L22.98 5.55V5.53ZM26.82 5.67L26.8 5.64H26.74C26.84 5.94667 26.9133 6.11333 26.96 6.14H27.01L27.06 6.11C26.9867 5.81667 26.9067 5.67 26.82 5.67ZM23.05 5.89C23.1033 5.88333 23.13 5.84667 23.13 5.78V5.77C23.0767 5.78333 23.05 5.82333 23.05 5.89ZM27.3 6.26H27.26L27.22 6.29V6.38L27.26 6.44C27.3 6.42667 27.32 6.39333 27.32 6.34V6.29L27.3 6.26ZM22.9 6.45V6.51L22.93 6.53H22.95C23.0167 6.50333 23.0733 6.45333 23.12 6.38V6.34H23.05C22.9967 6.34 22.9467 6.37667 22.9 6.45ZM22.34 6.37C22.2667 6.44333 22.2033 6.62667 22.15 6.92H22.17C22.23 6.92 22.3133 6.76 22.42 6.44C22.4 6.39333 22.3733 6.37 22.34 6.37ZM23.73 6.53V6.57C23.9033 6.69 24.22 6.75 24.68 6.75H24.8L24.98 6.74V6.68C24.6067 6.6 24.19 6.55 23.73 6.53ZM26.24 6.93V6.89H26.19V6.93H26.24ZM23.6 7V7.03C23.78 7.07 24.2633 7.11333 25.05 7.16V7.18V7.19L24.76 7.23C24.76 7.25667 24.8767 7.27 25.11 7.27C25.4967 7.27 25.69 7.25333 25.69 7.22C25.69 7.12667 24.9933 7.05333 23.6 7ZM22.27 7.12L22.22 7.09H22.15V7.18C22.15 7.23333 22.1633 7.26 22.19 7.26C22.2367 7.26 22.2633 7.21333 22.27 7.12ZM23.32 7.13V7.12L23.25 7.13V7.22H23.32V7.16V7.13ZM22.89 7.23V7.24H22.9L23.13 7.22V7.19L23.09 7.13H23.05C22.97 7.13 22.9167 7.16333 22.89 7.23ZM26.21 7.26C26.21 7.29333 26.29 7.31 26.45 7.31L26.58 7.3V7.27C26.58 7.23667 26.4933 7.22 26.32 7.22C26.2467 7.23333 26.21 7.24667 26.21 7.26ZM22.15 7.61V7.65V7.67C22.1367 7.69667 22.13 7.76 22.13 7.86V7.91C22.13 8.07667 22.1767 8.22333 22.27 8.35H22.28C22.28 7.91667 22.2367 7.67 22.15 7.61ZM22.42 8.83L22.39 8.8H22.35V8.83L22.39 8.86H22.42V8.83ZM22.49 9.03L22.48 9.05V9.08C22.5133 9.22 22.5667 9.29 22.64 9.29V9.28V9.25C22.64 9.17667 22.59 9.10333 22.49 9.03ZM26.95 9.16L26.97 9.2H27.04C27.0933 9.2 27.1267 9.18 27.14 9.14L27.08 9.09H27.07C27.0033 9.09 26.9633 9.11333 26.95 9.16ZM26.63 9.95L26.66 9.96H26.67C26.77 9.96 26.8333 9.90333 26.86 9.79V9.76C26.76 9.76 26.6833 9.82333 26.63 9.95ZM27.59 9.92L27.6 9.94H27.64C27.7 9.9 27.73 9.85 27.73 9.79H27.68C27.62 9.82333 27.59 9.86667 27.59 9.92ZM28.07 9.79H28.05V9.81C28.0767 9.92333 28.12 9.98 28.18 9.98H28.19L28.22 9.95V9.94C28.2 9.84 28.15 9.79 28.07 9.79ZM27.27 10.07L27.32 10.1C27.4533 10.0533 27.52 9.99333 27.52 9.92V9.9H27.51C27.3833 9.9 27.3033 9.95667 27.27 10.07ZM26.21 10.37H26.24C26.3067 10.3433 26.3467 10.3 26.36 10.24L26.34 10.22C26.2533 10.28 26.21 10.33 26.21 10.37ZM27.01 10.44H27.07C27.1633 10.36 27.21 10.3033 27.21 10.27H27.19C27.07 10.3033 27.01 10.36 27.01 10.44ZM23.13 10.57H23.09V10.62C23.11 10.6667 23.1867 10.7167 23.32 10.77L23.38 10.81C23.28 10.6567 23.1967 10.5767 23.13 10.57ZM24.09 10.62H24.08V10.63C24.08 10.67 24.1733 10.7133 24.36 10.76L24.38 10.74V10.72C24.26 10.6533 24.1633 10.62 24.09 10.62ZM24.9 10.81V10.77H24.85V10.81H24.9ZM26.32 10.98C26.4067 10.98 26.48 10.91 26.54 10.77H26.49C26.3767 10.8367 26.32 10.9067 26.32 10.98ZM25.36 11.11L25.07 11.09H25.02C24.94 11.09 24.8933 11.1067 24.88 11.14V11.17L24.94 11.21H25.18C25.4667 11.21 25.8 11.16 26.18 11.06C26.16 11.0067 26.1067 10.98 26.02 10.98H25.95C25.73 10.98 25.5333 11.0233 25.36 11.11ZM35.53 1.78L35.67 1.76C35.7167 1.78 35.74 1.8 35.74 1.82C35.7133 1.89333 35.69 2.18 35.67 2.68C35.6633 2.74 35.5533 2.77 35.34 2.77C35.5067 3.11667 35.83 3.58667 36.31 4.18L36.61 4.81C36.7233 5.01 36.8933 5.2 37.12 5.38C37.2467 5.27333 37.45 5.01667 37.73 4.61C37.9433 4.29 38.2367 3.89667 38.61 3.43C38.7633 3.20333 38.84 3.04 38.84 2.94L38.77 2.91H38.5C38.3067 2.91 38.1867 2.66333 38.14 2.17C38.14 2.06333 38.26 2.01 38.5 2.01C38.5 1.89667 38.7467 1.84 39.24 1.84H40.02C40.52 1.84 40.77 1.87667 40.77 1.95C40.7967 2.01667 40.81 2.12667 40.81 2.28V2.45C40.81 2.69 40.76 2.81 40.66 2.81C40.5933 2.81 40.5433 2.88 40.51 3.02H40.48L40.36 2.92C39.82 3.58 39.2867 4.24333 38.76 4.91C38.0733 5.70333 37.7067 6.18 37.66 6.34V6.41C37.7267 6.51 37.76 7.04667 37.76 8.02C37.76 9.32667 37.8233 9.98 37.95 9.98H37.97L38.35 10.05L38.61 10.07L38.64 10.17L38.62 10.57V10.69L38.74 10.81V10.87C38.5867 11.09 38.17 11.2 37.49 11.2C36.51 11.18 36.02 11.1267 36.02 11.04L35.98 10.69L36.01 10.22C36.01 10.1067 36.1467 10.05 36.42 10.05C36.6667 10.0367 36.79 10.0133 36.79 9.98V9.95C36.69 9.57 36.64 8.55333 36.64 6.9C36.6333 6.79333 36.5967 6.67 36.53 6.53C36.53 6.44333 36.47 6.35333 36.35 6.26C36.03 5.64667 35.5967 4.87333 35.05 3.94C35.05 3.92 34.85 3.62667 34.45 3.06C34.4167 3.03333 34.3667 3.02 34.3 3.02L33.67 3.05C33.5233 3.01 33.45 2.96333 33.45 2.91L33.56 2.77C33.56 2.74333 33.52 2.72667 33.44 2.72L33.39 2.75V2.83C33.39 2.89 33.3533 2.93333 33.28 2.96C33.2133 2.96 33.1667 2.87 33.14 2.69C33.0333 2.56333 32.96 2.5 32.92 2.5V2.43C33.0133 2.39667 33.06 2.35 33.06 2.29L32.96 2.2C32.96 2.06 33.0733 1.98667 33.3 1.98H33.58C33.9867 1.98 34.6367 1.91333 35.53 1.78ZM39.77 3.09L39.73 2.94C39.3033 3.28667 39.09 3.49667 39.09 3.57C39.05 3.60333 39.03 3.64 39.03 3.68V3.7H39.05C39.09 3.68667 39.1433 3.63 39.21 3.53C39.4367 3.36333 39.6233 3.21667 39.77 3.09ZM37.65 4.97V5.03H37.66C38 4.63 38.17 4.38333 38.17 4.29H38.14C38.06 4.38333 37.8967 4.61 37.65 4.97ZM36.91 8.67L36.9 8.69V9.19L36.91 9.27H36.97V8.97C36.97 8.77 36.95 8.67 36.91 8.67ZM37.27 5.59V5.6C37.3033 5.6 37.4033 5.48333 37.57 5.25V5.18H37.53C37.3567 5.35333 37.27 5.49 37.27 5.59ZM36.42 10.68V10.69L36.48 10.73H36.58C36.7133 10.71 36.78 10.6933 36.78 10.68V10.65L36.72 10.62H36.53C36.4567 10.62 36.42 10.64 36.42 10.68ZM35.74 4.4L35.71 4.41V4.54L35.79 4.61H35.89C35.9167 4.61 35.93 4.58667 35.93 4.54C35.93 4.49333 35.8667 4.44667 35.74 4.4ZM34.81 2.4V2.42L34.92 2.4L35.23 2.46L35.29 2.4C35.29 2.36667 35.2233 2.35 35.09 2.35H35.07C34.8967 2.35 34.81 2.36667 34.81 2.4ZM38.21 10.69H37.91L37.88 10.73V10.76L38.13 10.78C38.25 10.78 38.31 10.7633 38.31 10.73L38.21 10.69ZM37.21 6.19H37.17L37.15 6.22C37.15 6.28 37.1767 6.32667 37.23 6.36L37.31 6.34V6.33C37.31 6.27667 37.2767 6.23 37.21 6.19ZM38.55 2.65L38.61 2.69H38.64C38.72 2.69 38.7633 2.67333 38.77 2.64V2.58H38.68C38.6133 2.58 38.57 2.60333 38.55 2.65ZM34.77 3.02L34.75 3.05C34.79 3.19667 34.8267 3.27333 34.86 3.28H34.9V3.25C34.9 3.17667 34.8567 3.1 34.77 3.02ZM37.51 6.81H37.49L37.43 6.86V6.94L37.46 6.98L37.51 6.93V6.81ZM40.4 2.54H40.36L40.33 2.57V2.6H40.34L40.4 2.58V2.54ZM34.73 2.94V2.86H34.68V2.9L34.7 2.94H34.73ZM36.08 4.66L36.04 4.62H36.01V4.63L36.05 4.69H36.08V4.66ZM41.74 3.58L43.43 3.54C43.5767 3.54 43.8833 3.60333 44.35 3.73C44.8767 4.23 45.19 4.62333 45.29 4.91C45.49 5.11667 45.65 5.53 45.77 6.15C45.9167 6.29667 45.99 6.62 45.99 7.12L46 7.46L45.95 8.82C45.95 9.09333 46.12 9.43 46.46 9.83C46.7667 10.13 46.9667 10.28 47.06 10.28V10.31C47.06 10.4167 46.9 10.59 46.58 10.83C46.34 11.0633 46.19 11.18 46.13 11.18H46.11C45.97 11.16 45.6033 10.89 45.01 10.37C43.93 10.79 43.3867 11.0067 43.38 11.02C43.0267 11.1267 42.63 11.18 42.19 11.18H42.12C41.6267 11.1 41.2067 10.91 40.86 10.61C40.8 10.5567 40.67 10.3267 40.47 9.92C40.3033 9.72 40.22 9.47667 40.22 9.19V8.79C40.22 8.53667 40.29 8.3 40.43 8.08C40.5433 7.70667 40.7467 7.35 41.04 7.01C41.1867 6.83667 41.3333 6.72667 41.48 6.68C41.9533 6.42667 42.4233 6.3 42.89 6.3L43.5 6.29H43.58C43.9267 6.29 44.1733 6.34 44.32 6.44H44.41C44.45 6.44 44.47 6.42 44.47 6.38C44.37 5.95333 44.2067 5.54333 43.98 5.15C43.78 4.81667 43.4067 4.65 42.86 4.65L42.3 4.56C41.82 4.66 41.58 4.76333 41.58 4.87C41.3867 5.11 41.27 5.41333 41.23 5.78C41.2167 5.82667 41.0533 5.85 40.74 5.85L40.66 5.88C40.62 5.88 40.5733 5.95667 40.52 6.11C40.2667 6.07 40.14 6.01667 40.14 5.95C40.16 5.89 40.1933 5.56 40.24 4.96C40.38 4.54 40.7233 4.15333 41.27 3.8C41.53 3.65333 41.6867 3.58 41.74 3.58ZM43.34 3.81H43.27L43.24 3.85L43.28 3.91H43.37L43.38 3.88L43.34 3.81ZM44.31 3.92H44.28V3.95C44.3533 4.02333 44.4167 4.06 44.47 4.06H44.49V4.03C44.4167 3.95667 44.3567 3.92 44.31 3.92ZM42.12 3.99V4.03C42.1333 4.05667 42.18 4.07 42.26 4.07C42.34 4.07 42.4533 4.04333 42.6 3.99V3.94H42.55C42.3433 3.94 42.2 3.95667 42.12 3.99ZM40.89 4.43V4.45H40.91C40.99 4.45 41.11 4.36667 41.27 4.2V4.15H41.26C41.1667 4.15 41.0433 4.24333 40.89 4.43ZM42.9 4.33H42.79L42.72 4.39L42.76 4.45H42.94L42.98 4.41L42.9 4.33ZM40.81 5.47L40.78 5.44L40.74 5.47V5.67H40.75C40.79 5.66333 40.81 5.63333 40.81 5.58V5.47ZM45.74 6.53H45.73V6.56C45.75 6.63333 45.77 6.67 45.79 6.67L45.8 6.6C45.78 6.55333 45.76 6.53 45.74 6.53ZM45.44 7.01H45.43L45.39 7.04V7.08C45.4233 7.21333 45.46 7.28 45.5 7.28H45.53C45.53 7.16667 45.5 7.07667 45.44 7.01ZM41.44 7.09H41.42L41.27 7.16V7.23H41.3C41.3667 7.23 41.4133 7.19333 41.44 7.12V7.09ZM41.27 8.39C41.3367 8.93667 41.4167 9.21 41.51 9.21L41.64 9.39V9.4L41.52 9.39V9.43C41.6933 9.67 42.05 9.89 42.59 10.09C42.65 10.1233 42.74 10.15 42.86 10.17C43.0267 10.17 43.6567 9.9 44.75 9.36C44.8233 9.31333 44.86 9.26333 44.86 9.21V9.14C44.7733 8.76667 44.7033 8.33 44.65 7.83L44.62 7.82C44.62 7.72 44.52 7.63667 44.32 7.57C43.6467 7.37667 43.1867 7.28 42.94 7.28C42.2467 7.44 41.7733 7.67333 41.52 7.98C41.3533 8.14667 41.27 8.28333 41.27 8.39ZM45.39 7.52V7.5L45.35 7.48V7.52H45.39ZM45.44 7.82V7.76H45.36V7.82L45.4 7.86L45.44 7.82ZM45.02 8.11H45.01L44.97 8.15L45.01 8.2L45.06 8.19V8.15L45.02 8.11ZM45.5 8.15H45.46V8.16C45.48 8.50667 45.5167 8.68 45.57 8.68L45.59 8.65V8.62C45.59 8.43333 45.56 8.27667 45.5 8.15ZM45.02 8.58H44.97L44.95 8.6V8.68L44.99 8.73H45.01L45.06 8.68V8.6L45.02 8.58ZM46.13 9.87H46.09V9.95C46.1233 10.07 46.1633 10.13 46.21 10.13H46.25V10.09C46.2167 9.94333 46.1767 9.87 46.13 9.87ZM41.12 9.91H41.1L41.07 9.94V9.95L41.1 9.98H41.16V9.95L41.12 9.91ZM45.77 10.09H45.7L45.66 10.13C45.6867 10.19 45.7233 10.23 45.77 10.25H45.79L45.84 10.2V10.17L45.77 10.09ZM43.72 10.28V10.31H43.78C43.9067 10.31 44.0733 10.2533 44.28 10.14V10.13H44.23C43.9167 10.1633 43.7467 10.2133 43.72 10.28ZM46.06 10.32H46L45.98 10.37V10.4L46.03 10.46H46.09L46.13 10.43V10.4L46.06 10.32ZM42.81 10.43H42.63L42.59 10.47C42.6033 10.5167 42.64 10.54 42.7 10.54C42.8 10.52 42.85 10.4967 42.85 10.47V10.46L42.81 10.43ZM41.18 10.62H41.14L41.1 10.68C41.1333 10.76 41.36 10.8633 41.78 10.99C41.92 11.0567 42.1033 11.09 42.33 11.09V11.07C42.33 11.0433 42.1567 10.9933 41.81 10.92C41.61 10.8667 41.4 10.7667 41.18 10.62ZM52.1 1.62L52.25 1.58C52.9833 1.58 53.6133 1.66333 54.14 1.83H54.37H54.55L54.58 1.9L54.56 2.69C54.5533 2.74333 54.5233 2.77 54.47 2.77L54.3 2.61L53.93 2.53H53.81L53.73 2.55V2.61C53.8567 2.66333 53.94 2.69 53.98 2.69V2.72C53.98 2.75333 53.8733 2.78 53.66 2.8L53.58 5.47V5.75L53.57 9.42V9.64C53.57 9.72 53.8233 9.76 54.33 9.76H56.96L57.39 9.79C57.45 9.79 57.4967 9.53667 57.53 9.03C57.5567 8.90333 57.5967 8.84 57.65 8.84C58.19 8.86 58.46 8.91 58.46 8.99C58.4267 9.07667 58.3733 9.12 58.3 9.12V9.16C58.3867 9.24667 58.43 9.32333 58.43 9.39C58.43 9.59667 58.4 9.87333 58.34 10.22V10.43L58.35 10.5C58.2967 10.6 58.27 10.69 58.27 10.77C58.25 10.77 58.2133 10.83 58.16 10.95C57.96 11.0233 57.7633 11.06 57.57 11.06H57.52L56.34 10.95H56.27L53.58 11.06L51.71 10.88C51.6367 10.8267 51.6 10.7667 51.6 10.7C51.6733 10.1667 51.7867 9.9 51.94 9.9C51.9867 9.85333 52.1633 9.81667 52.47 9.79C52.59 9.49667 52.5967 8.17333 52.49 5.82C52.5433 5.18667 52.5867 4.24 52.62 2.98V2.84C52.62 2.70667 52.5233 2.64 52.33 2.64L52.21 2.61V2.57C52.3767 2.49 52.5033 2.45 52.59 2.45V2.39L52.28 2.35H52.09V2.4C52.1233 2.4 52.14 2.41667 52.14 2.45C52.1133 2.49 52.0733 2.51 52.02 2.51H51.97C51.8767 2.47667 51.83 2.37333 51.83 2.2V2.16C51.83 1.94667 51.89 1.81333 52.01 1.76C52.0367 1.76 52.0667 1.71333 52.1 1.62ZM52.28 2.05H52.21L52.17 2.08V2.1H52.24L52.28 2.06V2.05ZM54.07 2.06H54.03L53.98 2.1V2.13L54.07 2.16V2.17L54.03 2.2L53.76 2.19L53.74 2.2V2.27L53.78 2.31H54.06C54.2067 2.31 54.28 2.26 54.28 2.16C54.2133 2.09333 54.1433 2.06 54.07 2.06ZM53.02 2.16C53.0533 2.22 53.1533 2.25 53.32 2.25H53.41L53.48 2.19C53.4 2.13 53.32 2.1 53.24 2.1H53.13C53.0567 2.1 53.02 2.12 53.02 2.16ZM53.39 2.4H53.33L53.26 2.43V2.45L53.29 2.5H53.39L53.47 2.47V2.43L53.39 2.4ZM53.28 2.69L53.26 2.72V2.91C53.2733 3.03 53.2967 3.09 53.33 3.09L53.41 3.03V2.94C53.4033 2.77333 53.36 2.69 53.28 2.69ZM53.18 5.4H53.14C53.0667 5.78 53.0633 6.03 53.13 6.15C53.1767 6.23 53.2067 6.20333 53.22 6.07L53.24 5.62C53.2267 5.47333 53.2067 5.4 53.18 5.4ZM58.2 9.36H58.17C58.0967 9.55333 58.06 9.66333 58.06 9.69L57.95 10.27V10.32L57.99 10.36H58.04C58.1533 10.3067 58.22 10.0467 58.24 9.58C58.2333 9.43333 58.22 9.36 58.2 9.36ZM53.13 9.42H53.06V9.46C53.0133 9.59333 52.99 9.69333 52.99 9.76C52.99 9.88667 53.0233 9.96333 53.09 9.99H53.14C53.18 9.99 53.2 9.86 53.2 9.6V9.54C53.2 9.48 53.1767 9.44 53.13 9.42ZM56.89 9.88H56.75V9.92C56.75 9.94667 56.81 9.96667 56.93 9.98C56.93 10.0533 57.01 10.0933 57.17 10.1L57.43 10.07V10.02C57.2567 10.02 57.0767 9.97333 56.89 9.88ZM56.59 10.03L56.5 10.02H56.15V10.03C56.1567 10.0567 56.2033 10.07 56.29 10.07H56.59V10.03ZM51.86 10.22C51.9333 10.22 51.97 10.19 51.97 10.13V10.1H51.94C51.8867 10.1133 51.86 10.1533 51.86 10.22ZM55.63 10.37L53.21 10.2H53.14V10.27C53.3067 10.2967 54.1267 10.3467 55.6 10.42L55.63 10.4V10.37ZM51.92 10.36L51.88 10.32L51.8 10.33V10.37L51.84 10.42H51.88L51.92 10.37V10.36ZM56.59 10.44H56.4L56.37 10.47V10.5L56.49 10.53H56.68V10.5C56.68 10.46 56.65 10.44 56.59 10.44ZM56.98 10.62V10.63H57.02C57.1133 10.63 57.2067 10.5967 57.3 10.53C57.2867 10.49 57.25 10.47 57.19 10.47C57.15 10.47 57.08 10.52 56.98 10.62ZM57.61 10.68H57.38L57.17 10.69V10.7C57.2433 10.7733 57.3367 10.81 57.45 10.81H57.49C57.5367 10.81 57.5767 10.7933 57.61 10.76C57.6567 10.7933 57.7067 10.81 57.76 10.81H57.87C57.97 10.81 58.0267 10.7933 58.04 10.76V10.74C58.04 10.7 57.8967 10.68 57.61 10.68ZM53.66 10.8H53.65L53.35 10.81V10.84C53.35 10.9067 53.5633 10.9467 53.99 10.96C54.27 10.96 54.5033 10.9333 54.69 10.88V10.84C54.3033 10.8133 53.96 10.8 53.66 10.8ZM53.07 10.88V10.84H53.05V10.88H53.07ZM55.37 10.84H55.21L55.12 10.87V10.92H55.21L55.37 10.88V10.84ZM60.67 1.34L61.14 1.27C61.46 1.27 61.71 1.43333 61.89 1.76L61.99 2.2C61.97 2.37333 61.87 2.6 61.69 2.88C61.57 3 61.3867 3.06 61.14 3.06C60.5667 3.06 60.21 2.97333 60.07 2.8C59.9367 2.62 59.8733 2.36333 59.88 2.03C59.8467 2.03 59.83 2.02333 59.83 2.01V1.98C60.1033 1.55333 60.3833 1.34 60.67 1.34ZM60.4 1.68V1.69C60.7133 1.65667 60.87 1.61667 60.87 1.57L60.8 1.54C60.5333 1.58667 60.4 1.63333 60.4 1.68ZM60.63 2.08H60.65L60.73 2.09H60.76C60.86 2.09 60.9233 2.05333 60.95 1.98L60.93 1.95H60.77C60.6967 1.95 60.65 1.99333 60.63 2.08ZM61.63 1.95H61.62L61.58 2.02V2.08H61.59L61.63 2.02V1.95ZM61.29 2.4V2.45H61.34C61.4067 2.45 61.4567 2.41667 61.49 2.35V2.31H61.47C61.4033 2.31 61.3433 2.34 61.29 2.4ZM61.19 2.65H60.99L60.95 2.69V2.72H61.19L61.24 2.69L61.19 2.65ZM59.23 3.98L59.25 3.95H59.29C59.3633 4.01 59.4567 4.04 59.57 4.04L59.74 3.96C60.98 3.96 61.6 3.99667 61.6 4.07L61.62 4.17V4.4C61.7 4.58 61.74 4.75333 61.74 4.92V5.14C61.6333 6.62667 61.56 7.83 61.52 8.75C61.5 8.80333 61.4833 8.89667 61.47 9.03C61.4767 9.07 61.5167 9.09 61.59 9.09H61.63C62.1233 9.09 62.37 9.15 62.37 9.27L62.36 9.29V9.38C62.4667 9.59333 62.52 9.94 62.52 10.42L62.58 10.96L62.53 10.99L61.93 11.02H60.57C59.5433 11.02 59.03 10.9367 59.03 10.77C59.03 10.67 59.0033 10.57 58.95 10.47C58.9767 10.4033 59.0233 10.3533 59.09 10.32H59.13C59.1633 10.3533 59.2033 10.37 59.25 10.37H59.28C59.5467 10.37 59.86 10.35 60.22 10.31V10.28C59.44 10.2267 59.05 10.1633 59.05 10.09L59.03 9.98V9.83L59.01 9.47C59.01 9.38333 59.35 9.34 60.03 9.34C60.1233 9.34 60.17 9.13333 60.17 8.72L60.33 5.12H60.31C60.05 5.12 59.92 5.10333 59.92 5.07C59.92 5.06333 59.9333 5.05 59.96 5.03C59.4133 5.03 59.14 4.96667 59.14 4.84C59.1067 4.82667 59.09 4.79 59.09 4.73L59.16 4.56C59.16 4.52667 59.1333 4.47667 59.08 4.41C59.1467 4.33667 59.1967 4.19333 59.23 3.98ZM59.47 4.22V4.28H59.54C59.78 4.28 59.9 4.26 59.9 4.22L59.87 4.17H59.83C59.59 4.17 59.47 4.18667 59.47 4.22ZM61.37 4.17L61.33 4.13L61.29 4.17L61.34 4.21H61.37V4.17ZM59.77 4.41H59.53V4.45C59.53 4.49 59.5933 4.51 59.72 4.51H59.87H59.91H60.36C60.5 4.51 60.57 4.48667 60.57 4.44V4.43C60.57 4.38333 60.3033 4.37667 59.77 4.41ZM61.18 4.43H60.99L60.87 4.41V4.44C60.93 4.44 61.0067 4.48667 61.1 4.58H61.13C61.1433 4.58 61.15 4.56667 61.15 4.54H61.18C61.22 4.54 61.2433 4.58 61.25 4.66H61.28L61.47 4.52V4.44L61.18 4.43ZM60.93 5.19L61 5.4L60.91 5.64C60.9433 5.72667 60.9733 5.77 61 5.77H61.02L61.04 5.69V5.6C61.04 5.27333 61.09 5.11 61.19 5.11L61.24 5.06V5L61.19 4.96H61.11C60.99 4.96 60.93 5.03667 60.93 5.19ZM60.51 6.49L60.47 8.26C60.4767 8.32 60.49 8.35 60.51 8.35C60.5367 8.35 60.5567 8.31 60.57 8.23L60.55 8.02C60.5967 7.97333 60.6467 7.79333 60.7 7.48V7.39L60.67 7.2C60.73 7.15333 60.76 7.12333 60.76 7.11C60.72 7.01 60.7 6.91 60.7 6.81V6.78C60.74 6.78 60.7867 6.27 60.84 5.25C60.8133 5.17667 60.7867 5.14 60.76 5.14C60.62 5.14 60.5367 5.59 60.51 6.49ZM61.18 5.29L61.13 5.3V5.38C61.13 5.44 61.15 5.48333 61.19 5.51H61.24L61.28 5.45V5.38C61.26 5.34 61.2267 5.31 61.18 5.29ZM61.13 7.61L61.11 7.52H61.04C60.9667 7.85333 60.93 8.10333 60.93 8.27H60.95C60.9967 8.27 61.0567 8.08333 61.13 7.71V7.61ZM60.85 8.8V8.9H60.88C60.9267 8.88 60.95 8.82333 60.95 8.73V8.64H60.91C60.89 8.64 60.87 8.69333 60.85 8.8ZM60.89 9.01H60.88L60.84 9.06V9.13H60.88L60.93 9.09V9.05L60.89 9.01ZM62.06 9.34H61.97L61.93 9.35C61.9833 9.39667 62.0833 9.42333 62.23 9.43V9.39C62.23 9.35667 62.1733 9.34 62.06 9.34ZM62.03 9.91L61.86 9.95C61.88 10.0633 61.9633 10.12 62.11 10.12H62.15V10.07L62.12 10.03C62.12 10.0233 62.1567 9.99667 62.23 9.95V9.88C62.23 9.82 62.2133 9.78333 62.18 9.77H62.12C62.0933 9.78333 62.0633 9.83 62.03 9.91ZM59.42 9.79L59.32 9.81V9.83C59.3933 9.90333 59.6767 9.94333 60.17 9.95H60.26C60.3333 9.95 60.38 9.92667 60.4 9.88V9.86C60.02 9.81333 59.6933 9.79 59.42 9.79ZM60.7 9.95L60.76 10.02C60.84 10.02 60.88 9.97333 60.88 9.88H60.81C60.7567 9.88 60.72 9.90333 60.7 9.95ZM62.01 10.22H61.99L61.95 10.28V10.31H61.97L62.01 10.25V10.22ZM61.1 10.32L60.93 10.31L60.76 10.32H60.57V10.37L60.76 10.39L61.15 10.36V10.32H61.1ZM62.36 10.77H62.33L62.27 10.81V10.85H62.36L62.37 10.81L62.36 10.77ZM62.88 0.74V0.68L62.96 0.67H63.07C63.87 0.756666 64.3433 0.87 64.49 1.01C64.55 1.01 64.61 1.18667 64.67 1.54L64.6 1.67V1.71C64.7 1.82333 64.7667 2.39667 64.8 3.43C64.8 5.24333 64.85 6.41333 64.95 6.94H65.01C65.5033 6.54 66.2633 5.99 67.29 5.29C67.37 5.29 67.44 4.88333 67.5 4.07C67.5 3.87667 67.59 3.78 67.77 3.78L68.32 3.74C69.14 3.74 69.63 3.82667 69.79 4V4.03L69.75 4.07C69.59 4.01 69.4633 3.98 69.37 3.98L69.33 4.03V4.04C69.33 4.1 69.4633 4.14333 69.73 4.17C69.7967 4.17 69.83 4.38333 69.83 4.81C69.83 4.98333 69.7633 5.07 69.63 5.07C69.5967 5.07 69.5267 5.13333 69.42 5.26L69.38 5.28L69.11 5.26H69.06C69.06 5.36 68.9533 5.46 68.74 5.56C68.7067 5.56 68.69 5.58333 68.69 5.63L68.74 5.73L67.43 6.63L67.41 6.67C67.4233 6.72333 67.8767 7.65 68.77 9.45C68.8967 9.71 68.9767 9.91667 69.01 10.07H68.93L68.85 9.99H68.81C68.81 10.1033 68.9833 10.16 69.33 10.16C69.9367 10.16 70.24 10.2133 70.24 10.32L70.14 10.46C70.2533 10.66 70.31 10.9567 70.31 11.35C70.31 11.4767 70.2467 11.54 70.12 11.54L70 11.55C69.78 11.5167 69.2467 11.5 68.4 11.5H68.32C68.2067 11.5 68.1233 11.3567 68.07 11.07C68.0167 10.5967 67.9267 10.1633 67.8 9.77C67.5867 9.29667 67.28 8.66333 66.88 7.87C66.7267 7.41667 66.61 7.19 66.53 7.19C66.37 7.21 66.1233 7.35 65.79 7.61C65.67 7.71 65.5833 7.76 65.53 7.76C65.4767 7.74667 65.45 7.73 65.45 7.71V7.7L65.49 7.63V7.61H65.41C65.35 7.61 65.29 7.73333 65.23 7.98L65.24 8.06C65.1667 8.10667 65.13 8.18667 65.13 8.3L65.16 9.76C65.16 9.88 65.3567 9.95667 65.75 9.99C65.81 10.0433 65.95 10.1067 66.17 10.18L66.23 10.32L66.21 10.53V10.68L66.25 10.87V10.89C66.2167 10.9633 66.15 11.0233 66.05 11.07L66.03 11.06H65.95V11.11C65.95 11.1767 66.0133 11.2333 66.14 11.28V11.3C66.14 11.3333 66.0867 11.3567 65.98 11.37L65.34 11.21C64.4533 11.1633 63.8767 11.1133 63.61 11.06L63.42 11.1C63.3 11.0467 63.24 10.9 63.24 10.66V10.58L63.23 10.57C63.23 10.41 63.3 10.28 63.44 10.18H63.49V10.39L63.55 10.44H63.72L63.67 10.37V10.33L63.78 10.32H63.91L63.75 10.16L63.94 10.12V10.07C63.9333 10.0433 63.89 10.03 63.81 10.03H63.75L63.46 10.07V10.05C63.46 9.98333 63.6667 9.92 64.08 9.86C64.18 9.82667 64.3333 9.79667 64.54 9.77L64.58 9.72V9.7C64.58 9.68667 64.5167 9.68 64.39 9.68C64.3167 9.68 64.28 9.28667 64.28 8.5C64.2267 7.55333 64.14 6.90333 64.02 6.55C63.9667 4.27667 63.8967 2.92333 63.81 2.49C63.81 2.46333 63.65 2.43333 63.33 2.4L62.93 2.5C62.83 2.4 62.7767 2.31667 62.77 2.25L62.74 1.41L62.73 1.35C62.7433 1.21667 62.76 1.15 62.78 1.15L62.93 1.17V1.15C62.93 1.11 62.8933 1.04 62.82 0.94V0.87C62.8933 0.87 62.93 0.856667 62.93 0.83L62.88 0.74ZM64.15 1.46V1.49C64.1833 1.57667 64.2367 1.62 64.31 1.62C64.3767 1.55333 64.41 1.47333 64.41 1.38L64.35 1.37C64.25 1.37 64.1833 1.4 64.15 1.46ZM63.29 1.68V1.71C63.29 1.74333 63.3567 1.77333 63.49 1.8V1.83C63.3167 1.83667 63.23 1.86333 63.23 1.91V1.97L63.27 2.01H63.41C63.5433 2.01 63.6433 1.92667 63.71 1.76L63.76 1.71C63.76 1.65 63.6533 1.62 63.44 1.62H63.38C63.32 1.63333 63.29 1.65333 63.29 1.68ZM64.37 2.88L64.34 2.94V3.21C64.34 3.43 64.3633 3.54 64.41 3.54H64.42L64.46 3.5V3.31C64.4533 3.02333 64.4233 2.88 64.37 2.88ZM68 3.84L67.98 3.81L67.89 3.83V3.87L67.91 3.91H67.98L68 3.87V3.84ZM67.65 4.61C67.6567 4.72333 67.6733 4.78 67.7 4.78H67.8C67.8267 4.78 67.84 4.76333 67.84 4.73L67.77 4.56L67.84 4.32V4.28H67.81C67.7033 4.33333 67.65 4.44333 67.65 4.61ZM68.89 4.71C68.89 4.74333 69.0367 4.76667 69.33 4.78C69.43 4.76667 69.48 4.74333 69.48 4.71V4.66H69.38H69.11C68.9633 4.66 68.89 4.67667 68.89 4.71ZM64.42 4.91L64.37 4.87H64.34V4.93L64.37 4.96L64.42 4.91ZM67.59 4.91L67.65 4.96H67.66C67.7333 4.96 67.7733 4.94333 67.78 4.91V4.87H67.73C67.6567 4.87 67.61 4.88333 67.59 4.91ZM67.46 5.53V5.55H67.47C67.5033 5.55 67.6433 5.46667 67.89 5.3C67.9833 5.29333 68.03 5.26667 68.03 5.22V5.17H67.95C67.8367 5.17 67.6733 5.29 67.46 5.53ZM67.43 6.14V6.18H67.46C67.7933 6.08667 68.22 5.82 68.74 5.38L68.77 5.33H68.74C68.2867 5.49667 67.85 5.76667 67.43 6.14ZM65.08 7.13V7.18H65.13C65.25 7.18 65.35 7.12333 65.43 7.01V6.97C65.3033 6.97 65.1867 7.02333 65.08 7.13ZM66.73 7.11C66.7967 7.28333 66.8667 7.37 66.94 7.37H66.95V7.35C66.9433 7.15 66.8833 7.05 66.77 7.05C66.7433 7.05 66.73 7.07 66.73 7.11ZM64.74 7.15H64.71L64.67 7.22V7.23H64.71L64.74 7.19V7.15ZM65.64 7.45V7.48H65.66C65.8467 7.40667 66.0067 7.30667 66.14 7.18V7.15C65.8067 7.29667 65.64 7.39667 65.64 7.45ZM64.68 7.85V7.97L64.71 8H64.75C64.7967 7.98 64.82 7.93 64.82 7.85V7.82C64.82 7.72 64.8 7.62 64.76 7.52H64.75C64.7033 7.52 64.68 7.63 64.68 7.85ZM67.25 7.83H67.21V7.85C67.3033 8.19667 67.4667 8.57667 67.7 8.99H67.77V8.95C67.77 8.76333 67.5967 8.39 67.25 7.83ZM64.67 8.38V8.57L64.71 8.6C64.7833 8.6 64.82 8.55333 64.82 8.46V8.24L64.79 8.21H64.75C64.6967 8.22333 64.67 8.28 64.67 8.38ZM68 8.35L67.98 8.32H67.93V8.35L67.99 8.41H68V8.35ZM64.82 8.98V8.9H64.76L64.75 8.98V9.12H64.76C64.8 9.10667 64.82 9.06 64.82 8.98ZM67.85 9.14H67.84H67.81V9.17C67.8833 9.39667 67.96 9.54 68.04 9.6H68.1C68.1 9.52667 68.0167 9.37333 67.85 9.14ZM64.68 9.72L64.75 9.79H64.76C64.8067 9.77 64.83 9.73333 64.83 9.68C64.83 9.61333 64.8167 9.58 64.79 9.58C64.7167 9.62667 64.68 9.67333 64.68 9.72ZM68.37 10.05V10.07L68.41 10.13H68.52L68.58 10.07C68.5533 10.0167 68.51 9.99 68.45 9.99C68.3967 10.0033 68.37 10.0233 68.37 10.05ZM66.08 10.32L66.05 10.29H66.01V10.32L66.06 10.36H66.08V10.32ZM65.54 10.46C65.6067 10.5733 65.7033 10.63 65.83 10.63H65.84L65.88 10.59C65.8467 10.4833 65.8033 10.41 65.75 10.37H65.69C65.6167 10.37 65.5667 10.4 65.54 10.46ZM70.09 10.46L70.05 10.43H70.01V10.5L70.05 10.53H70.09V10.46ZM64.68 10.5L64.65 10.46H64.63V10.5H64.68ZM65.15 10.5L65.1 10.46L65.08 10.5H65.15ZM63.63 10.62V10.63L63.64 10.66V10.68L64.28 10.69H64.37C64.6567 10.69 64.8 10.6667 64.8 10.62V10.59C64.8 10.5767 64.7 10.5633 64.5 10.55C63.9933 10.57 63.7033 10.5933 63.63 10.62ZM69.29 10.59H69.19L69.15 10.63L69.22 10.69H69.27L69.33 10.63L69.29 10.59ZM69.56 10.72V10.66H69.42V10.68L69.49 10.72H69.56ZM70.05 10.87V11.1H70.07C70.1033 11.1 70.12 11.0033 70.12 10.81V10.72C70.0733 10.7333 70.05 10.7833 70.05 10.87ZM65.23 10.73L65.19 10.76V10.8L65.39 10.81H65.47V10.8C65.47 10.7533 65.39 10.73 65.23 10.73ZM64.67 10.84H64.07L64.02 10.87L65.5 11.07V11.03C65.5 10.9033 65.2233 10.84 64.67 10.84ZM65.69 11.02L65.64 11.03V11.06L65.66 11.1H65.77L65.8 11.06C65.7933 11.0333 65.7567 11.02 65.69 11.02ZM69.08 11.3V11.32H69.14L69.42 11.35L69.75 11.32H69.79L69.83 11.29V11.28L69.75 11.26H69.22C69.1267 11.26 69.08 11.2733 69.08 11.3ZM73.99 4.13C74.3767 4.13 74.8433 4.29333 75.39 4.62C75.85 4.96667 76.08 5.20333 76.08 5.33C76.4467 6.09667 76.63 6.55667 76.63 6.71L76.64 6.82C76.5067 7.14 76.44 7.36 76.44 7.48L76.36 7.49H75.19C75.0833 7.49 74.9533 7.50333 74.8 7.53C73.4867 7.42333 72.5667 7.37 72.04 7.37H71.75C71.6367 7.53 71.58 7.64667 71.58 7.72C71.6467 7.82 71.68 7.98 71.68 8.2C71.68 8.54667 71.7333 8.75333 71.84 8.82L71.86 8.88V8.9L71.78 8.86V8.9L71.9 9.03C71.9 9.15 71.9833 9.30333 72.15 9.49C72.45 10.0167 72.7767 10.3433 73.13 10.47C73.43 10.57 73.7733 10.62 74.16 10.62C74.22 10.62 74.35 10.56 74.55 10.44C74.7167 10.4067 75.0633 10.11 75.59 9.55V9.51C75.59 9.49667 75.5267 9.48 75.4 9.46L75.37 9.39C75.5833 8.99 75.8333 8.72667 76.12 8.6C76.2067 8.68 76.3767 8.80667 76.63 8.98C76.83 9.29333 77.1 9.65667 77.44 10.07V10.13C77.1467 10.51 76.9367 10.7 76.81 10.7H76.75C76.75 10.5 76.6267 10.3867 76.38 10.36C76.34 10.36 76.14 10.51 75.78 10.81C75.5733 10.9767 75.2133 11.1333 74.7 11.28C74.1067 11.3933 73.6867 11.45 73.44 11.45L72.66 11.18C72.2267 11.18 71.8267 10.9433 71.46 10.47C71.3067 10.3033 71.18 10.1067 71.08 9.88C71.08 9.80667 70.98 9.43 70.78 8.75C70.7133 8.48333 70.68 8.22667 70.68 7.98V7.97C70.68 6.75667 71.0467 5.69333 71.78 4.78C71.8667 4.55333 72.0767 4.38667 72.41 4.28C72.6233 4.21333 72.8867 4.16333 73.2 4.13C73.28 4.09 73.5433 4.09 73.99 4.13ZM72.76 4.39L72.73 4.41V4.43H72.76C72.9067 4.43 73.18 4.38 73.58 4.28C73.66 4.26667 73.7 4.24333 73.7 4.21L73.66 4.17H73.65C73.3833 4.17 73.0867 4.24333 72.76 4.39ZM72.19 4.65V4.66L72.23 4.69H72.24C72.42 4.64333 72.51 4.59667 72.51 4.55V4.47L72.46 4.41H72.43C72.27 4.47 72.19 4.55 72.19 4.65ZM74.29 4.51H73.88V4.54C73.88 4.57333 74.0667 4.6 74.44 4.62H74.46V4.56C74.46 4.54667 74.4033 4.53 74.29 4.51ZM73.32 4.71V4.73C73.32 4.76333 73.5067 4.81 73.88 4.87L73.91 4.85V4.8C73.8367 4.7 73.7133 4.65 73.54 4.65H73.5C73.38 4.65667 73.32 4.67667 73.32 4.71ZM74.16 4.8V4.81C74.6733 5.11 74.95 5.26 74.99 5.26H75L75.14 5.21L75.22 5.23L75.24 5.21V5.19C75.2 5.16333 75.12 5.13667 75 5.11L74.73 4.99C74.6567 4.83667 74.51 4.76 74.29 4.76H74.25C74.19 4.76667 74.16 4.78 74.16 4.8ZM72.53 5.19C72.6167 5.11667 72.8 5.04 73.08 4.96V4.93L73.06 4.91H72.92C72.66 4.98333 72.53 5.07667 72.53 5.19ZM71.8 6.1V6.14C71.8 6.24 72.63 6.35333 74.29 6.48L74.43 6.52L74.61 6.51C74.97 6.62333 75.2133 6.68 75.34 6.68C75.34 6.70667 75.37 6.73 75.43 6.75C75.4833 6.67 75.51 6.59333 75.51 6.52V6.26C75.51 6.14 75.2833 5.87667 74.83 5.47C74.6167 5.25667 74.3767 5.13667 74.11 5.11L73.65 5.03C72.89 5.18333 72.3933 5.37 72.16 5.59C72.06 5.78333 71.94 5.95333 71.8 6.1ZM71.95 5.28V5.3H71.98C72.1 5.27333 72.16 5.24333 72.16 5.21V5.19H72.09C72.0433 5.19 71.9967 5.22 71.95 5.28ZM75.22 5.47C75.24 5.54333 75.28 5.58 75.34 5.58H75.37L75.4 5.53V5.45L75.34 5.38C75.26 5.38 75.22 5.41 75.22 5.47ZM71.75 5.53H71.69L71.67 5.58V5.59H71.69L71.75 5.55V5.53ZM75.59 5.67L75.56 5.64H75.51C75.61 5.94667 75.6833 6.11333 75.73 6.14H75.78L75.82 6.11C75.7467 5.81667 75.67 5.67 75.59 5.67ZM71.82 5.89C71.8733 5.88333 71.9 5.84667 71.9 5.78V5.77C71.8467 5.78333 71.82 5.82333 71.82 5.89ZM76.07 6.26H76.03L75.99 6.29V6.38L76.03 6.44C76.0633 6.42667 76.08 6.39333 76.08 6.34V6.29L76.07 6.26ZM71.67 6.45V6.51L71.69 6.53H71.72C71.7867 6.50333 71.8433 6.45333 71.89 6.38V6.34H71.82C71.7667 6.34 71.7167 6.37667 71.67 6.45ZM71.11 6.37C71.0367 6.44333 70.97 6.62667 70.91 6.92H70.94C70.9933 6.92 71.0767 6.76 71.19 6.44C71.17 6.39333 71.1433 6.37 71.11 6.37ZM72.5 6.53V6.57C72.6733 6.69 72.9867 6.75 73.44 6.75H73.57L73.74 6.74V6.68C73.3667 6.6 72.9533 6.55 72.5 6.53ZM75 6.93V6.89H74.96V6.93H75ZM72.36 7V7.03C72.5467 7.07 73.03 7.11333 73.81 7.16V7.18V7.19L73.53 7.23C73.53 7.25667 73.6467 7.27 73.88 7.27C74.2667 7.27 74.46 7.25333 74.46 7.22C74.46 7.12667 73.76 7.05333 72.36 7ZM71.04 7.12L70.98 7.09H70.91V7.18C70.91 7.23333 70.9267 7.26 70.96 7.26C71 7.26 71.0267 7.21333 71.04 7.12ZM72.09 7.13V7.12L72.02 7.13V7.22H72.09V7.16V7.13ZM71.65 7.23V7.24H71.67L71.9 7.22V7.19L71.86 7.13H71.82C71.7333 7.13 71.6767 7.16333 71.65 7.23ZM74.98 7.26C74.98 7.29333 75.06 7.31 75.22 7.31L75.34 7.3V7.27C75.34 7.23667 75.2533 7.22 75.08 7.22C75.0133 7.23333 74.98 7.24667 74.98 7.26ZM70.91 7.61V7.65V7.67C70.9033 7.69667 70.9 7.76 70.9 7.86V7.91C70.9 8.07667 70.9467 8.22333 71.04 8.35H71.05C71.05 7.91667 71.0033 7.67 70.91 7.61ZM71.19 8.83L71.16 8.8H71.12V8.83L71.16 8.86H71.19V8.83ZM71.26 9.03L71.24 9.05V9.08C71.28 9.22 71.3367 9.29 71.41 9.29V9.28V9.25C71.41 9.17667 71.36 9.10333 71.26 9.03ZM75.71 9.16L75.74 9.2H75.81C75.8633 9.2 75.8967 9.18 75.91 9.14L75.85 9.09H75.84C75.7733 9.09 75.73 9.11333 75.71 9.16ZM75.4 9.95L75.43 9.96H75.44C75.54 9.96 75.6033 9.90333 75.63 9.79V9.76C75.53 9.76 75.4533 9.82333 75.4 9.95ZM76.36 9.92L76.37 9.94H76.41C76.4633 9.9 76.49 9.85 76.49 9.79H76.45C76.39 9.82333 76.36 9.86667 76.36 9.92ZM76.83 9.79H76.82V9.81C76.8467 9.92333 76.8867 9.98 76.94 9.98H76.96L76.99 9.95V9.94C76.97 9.84 76.9167 9.79 76.83 9.79ZM76.04 10.07L76.08 10.1C76.22 10.0533 76.29 9.99333 76.29 9.92V9.9H76.27C76.1433 9.9 76.0667 9.95667 76.04 10.07ZM74.98 10.37H75C75.0733 10.3433 75.1167 10.3 75.13 10.24L75.11 10.22C75.0233 10.28 74.98 10.33 74.98 10.37ZM75.78 10.44H75.84C75.9267 10.36 75.97 10.3033 75.97 10.27H75.96C75.84 10.3033 75.78 10.36 75.78 10.44ZM71.9 10.57H71.86V10.62C71.88 10.6667 71.9567 10.7167 72.09 10.77L72.15 10.81C72.0433 10.6567 71.96 10.5767 71.9 10.57ZM72.86 10.62H72.84V10.63C72.84 10.67 72.9367 10.7133 73.13 10.76L73.14 10.74V10.72C73.0267 10.6533 72.9333 10.62 72.86 10.62ZM73.66 10.81V10.77H73.62V10.81H73.66ZM75.08 10.98C75.1733 10.98 75.2467 10.91 75.3 10.77H75.26C75.14 10.8367 75.08 10.9067 75.08 10.98ZM74.13 11.11L73.84 11.09H73.79C73.7033 11.09 73.6567 11.1067 73.65 11.14V11.17L73.7 11.21H73.95C74.23 11.21 74.5633 11.16 74.95 11.06C74.93 11.0067 74.8733 10.98 74.78 10.98H74.72C74.5 10.98 74.3033 11.0233 74.13 11.11ZM86.16 1.9C86.7 1.97333 86.97 2.07333 86.97 2.2L87.62 4.15L88.06 5.71C88.26 6.64333 88.52 7.64667 88.84 8.72C88.86 8.71333 88.8767 8.71 88.89 8.71V8.84H88.88C88.8867 8.86667 88.8967 8.9 88.91 8.94C88.9233 8.97333 88.93 9 88.93 9.02L89.19 9.58L89.26 9.92L89.24 10.07C89.34 10.1433 89.4533 10.1867 89.58 10.2H89.85H89.86C89.96 10.2133 90.02 10.2367 90.04 10.27L89.96 10.43L89.97 10.66C89.97 10.76 89.9267 10.8567 89.84 10.95H89.78C89.7067 10.8767 89.6467 10.84 89.6 10.84H89.58C89.4867 10.84 89.4367 10.8667 89.43 10.92C89.43 10.9467 89.51 10.9667 89.67 10.98V11.02C89.67 11.0533 89.6167 11.0767 89.51 11.09L89.33 11.03H89.19L88.35 11.11C88.1567 11.11 87.92 10.9967 87.64 10.77L87.74 10.66V10.61L87.61 10.32C87.61 10.2133 87.7767 10.16 88.11 10.16L88.13 10.13V10.07C88.13 9.66333 87.9433 9.20333 87.57 8.69H87.55C86.6033 8.76333 85.4967 8.86 84.23 8.98H83.93C83.8967 9.01333 83.7733 9.37667 83.56 10.07C83.6 10.11 83.65 10.13 83.71 10.13H83.99C84.3033 10.13 84.5767 10.2567 84.81 10.51V10.53C84.81 10.59 84.69 10.71 84.45 10.89C84.45 10.99 83.7567 11.04 82.37 11.04C82.1433 11.0333 82.03 11.0067 82.03 10.96L82.08 10.78V10.77C82.08 10.7367 82.0467 10.6567 81.98 10.53C81.98 10.47 82.06 10.4 82.22 10.32L82.24 10.28V10.07C82.24 9.99 82.2833 9.95 82.37 9.95L82.43 10.01L82.37 10.17L82.39 10.18H82.4C82.5067 10.0267 82.56 9.92 82.56 9.86V9.8C82.56 9.74667 82.5467 9.72 82.52 9.72C82.6133 9.55333 82.6867 9.33333 82.74 9.06L83.45 7.09L83.71 6.45C83.71 6.37 83.7933 6.23333 83.96 6.04V6.01L83.92 5.88C84.02 5.80667 84.07 5.74667 84.07 5.7L84.03 5.66C84.03 5.56667 84.0833 5.47 84.19 5.37L84.18 5.28L84.81 3.43C84.9633 3.15667 85.1033 2.83 85.23 2.45C85.2567 2.45 85.3233 2.36333 85.43 2.19C85.8033 2.00333 86.0467 1.90667 86.16 1.9ZM84.19 7.98V8.05L84.23 8.08C85.4233 7.88667 86.3633 7.79 87.05 7.79H87.61L87.65 7.74V7.72C87.6033 7.39333 87.52 7.23 87.4 7.23L86.54 4.63C86.44 4.25667 86.34 3.95667 86.24 3.73C86.1933 3.62333 86.14 3.54667 86.08 3.5C86.08 3.58667 86.0733 3.68 86.06 3.78C85.4267 5.06 84.9667 5.92667 84.68 6.38C84.5333 6.66667 84.37 7.2 84.19 7.98ZM89.39 10.61V10.63H89.4C89.58 10.63 89.67 10.6033 89.67 10.55L89.6 10.5C89.5267 10.5 89.4567 10.5367 89.39 10.61ZM86.02 3.24H86.04C86.12 3.24 86.16 3.20333 86.16 3.13V3.07H86.12C86.0533 3.11 86.02 3.16667 86.02 3.24ZM86.43 2.1H86.36V2.17L86.41 2.21H86.51L86.54 2.19V2.17C86.52 2.12333 86.4833 2.1 86.43 2.1ZM86.8 8.01H86.6L86.57 8.06L86.6 8.09H86.66C86.7467 8.09 86.7933 8.07333 86.8 8.04V8.01ZM88.74 9.19V9.16H88.35V9.21L88.74 9.19ZM83.51 9.1L83.47 9.09H83.44L83.42 9.17L83.44 9.24H83.47L83.51 9.2V9.1ZM88.24 11.03V11.06H88.29C88.3433 11.06 88.3767 11.04 88.39 11L88.36 10.96C88.2933 10.96 88.2533 10.9833 88.24 11.03ZM82.96 9.21L82.93 9.19L82.84 9.27V9.31C82.9133 9.31 82.9533 9.27667 82.96 9.21ZM87.47 7.65L87.44 7.56L87.5 7.49L87.51 7.5V7.61L87.47 7.65ZM84.46 5.93V5.9L84.42 5.63L84.41 5.71V5.75H84.42C84.4467 5.91 84.46 5.97 84.46 5.93ZM89.03 9.98L88.99 9.94H88.98V10.03L89.02 10.07H89.03V9.98ZM82.86 10.13L82.84 10.07L82.78 10.09V10.13L82.82 10.17H82.84L82.86 10.13ZM86.12 2.6L86.08 2.57H86.06V2.6L86.09 2.64H86.12V2.6ZM85.57 8.32V8.28H85.53V8.32H85.57ZM84.33 6.1V6.05H84.31V6.1H84.33ZM97.48 1.58L98.38 1.76C98.5333 1.76 98.7967 1.89333 99.17 2.16H99.23C99.2367 1.8 99.27 1.62 99.33 1.62C99.6033 1.72667 99.7667 1.78 99.82 1.78H100.09L100.31 1.76L100.34 1.8L100.32 1.88V3.63C100.32 3.73 100.29 3.81333 100.23 3.88C100.303 3.95333 100.34 4.02333 100.34 4.09C100.34 4.15 100.31 4.22667 100.25 4.32L100.3 4.55C100.3 4.65667 100.27 4.71 100.21 4.71L99.86 4.66H99.84L99.65 4.71H99.63C99.59 4.71 99.53 4.51667 99.45 4.13C99.45 4.00333 99.3933 3.88667 99.28 3.78C99.1667 3.61333 99.11 3.49667 99.11 3.43L99.19 3.4V3.39C99.05 3.27667 98.9667 3.15333 98.94 3.02C98.5667 2.64667 98.25 2.46 97.99 2.46H97.89C97.79 2.46 97.3333 2.55667 96.52 2.75C96.4467 2.80333 96.33 2.97667 96.17 3.27C95.9967 3.49667 95.91 3.71333 95.91 3.92C95.9633 4.50667 96.0367 4.8 96.13 4.8C96.2433 5.10667 96.3833 5.29333 96.55 5.36C96.5767 5.40667 96.6867 5.45 96.88 5.49C97.0067 5.61 97.2733 5.75667 97.68 5.93C97.68 5.97 97.7267 5.99333 97.82 6L97.99 5.95C98.0567 5.96333 98.09 5.98 98.09 6V6.01L98.04 6.07V6.11C98.1667 6.26333 98.32 6.34 98.5 6.34V6.33L98.24 6.11V6.1C98.3267 6.1 98.62 6.25667 99.12 6.57C99.8733 7.27667 100.25 7.72333 100.25 7.91C100.383 8.47 100.45 8.81667 100.45 8.95C100.363 9.64333 100.283 9.99 100.21 9.99L99.89 10.57C99.2567 10.95 98.8867 11.14 98.78 11.14C97.7333 10.9133 97.0367 10.73 96.69 10.59C95.9767 9.93 95.62 9.54 95.62 9.42L95.57 9.38L95.54 9.39V9.46V10.22C95.54 10.2867 95.3767 10.32 95.05 10.32H94.8L94.59 10.39C94.53 10.39 94.45 10.34 94.35 10.24V10.22L94.42 10.12C94.48 8.58667 94.5567 7.82 94.65 7.82H94.68L94.92 7.86C94.9667 7.86 95.0133 7.84667 95.06 7.82L95.24 7.86L95.33 7.83H95.39C95.4233 7.85 95.5033 7.98333 95.63 8.23C95.9767 8.66333 96.2867 9.08333 96.56 9.49C96.6 9.49 96.7167 9.61333 96.91 9.86L97.75 10.22H98V10.28H98.03L98.09 10.24H98.12C98.1933 10.2933 98.2633 10.32 98.33 10.32H98.41C98.6567 10.3133 98.78 10.28 98.78 10.22V10.2H98.5L98.34 10.18C98.3467 10.1467 98.67 10.08 99.31 9.98C99.4567 9.98 99.6 9.72333 99.74 9.21C99.74 9.05 99.78 8.93333 99.86 8.86V8.8C99.7067 8.32 99.5333 8.00667 99.34 7.86C99.2267 7.66667 98.81 7.44333 98.09 7.19C97.6167 7.01 97.2367 6.79667 96.95 6.55C96.5167 6.42333 96.27 6.28 96.21 6.12C96.1567 6.00667 95.9467 5.81 95.58 5.53C95.4133 5.03 95.2367 4.64333 95.05 4.37C94.95 3.97 94.9 3.54667 94.9 3.1C94.9667 2.8 95.2933 2.38667 95.88 1.86C96.22 1.67333 96.7533 1.58 97.48 1.58ZM95.88 2.06H96.04C96.1133 2.06 96.4533 1.98333 97.06 1.83C97.2733 1.79667 97.38 1.76 97.38 1.72L97.33 1.71C96.3633 1.79 95.88 1.90667 95.88 2.06ZM99.49 1.88L99.48 1.94V1.98C99.48 2.03333 99.5133 2.06 99.58 2.06H99.82V2.05C99.7267 1.93667 99.6167 1.88 99.49 1.88ZM96.29 2.57H96.32C96.4067 2.57 96.62 2.48667 96.96 2.32L97.33 2.19V2.2L97.29 2.28H97.4L97.48 2.25V2.2L97.45 2.16V2.08H97.42C97.06 2.18667 96.76 2.3 96.52 2.42C96.3667 2.44667 96.29 2.49667 96.29 2.57ZM98.6 2.19H98.37C98.37 2.20333 98.5067 2.24667 98.78 2.32H98.85L98.87 2.31V2.28C98.8433 2.22 98.7533 2.19 98.6 2.19ZM99.57 2.2H99.54L99.52 2.25V2.28L99.53 2.36H99.57L99.61 2.32V2.25L99.57 2.2ZM95.95 2.39V2.4C95.95 2.43333 95.9667 2.45 96 2.45C96.0467 2.43 96.08 2.39667 96.1 2.35V2.32C96.02 2.32 95.97 2.34333 95.95 2.39ZM99.05 2.46L99.12 2.53H99.19L99.23 2.49V2.45C99.23 2.41667 99.1933 2.38667 99.12 2.36C99.0733 2.38 99.05 2.41333 99.05 2.46ZM99.75 2.65L99.79 2.68V2.69L99.74 2.76V2.8C99.74 2.82 99.7733 2.84333 99.84 2.87C99.86 2.94333 99.89 2.98333 99.93 2.99H99.97V2.94L99.95 2.9V2.84H99.99L100.06 2.9H100.09L100.1 2.81V2.79C100.04 2.53 99.9967 2.4 99.97 2.4H99.89C99.7967 2.44 99.75 2.52333 99.75 2.65ZM95.87 2.99L95.95 3.07H95.98C96.0867 3.05667 96.1867 3 96.28 2.9L96.24 2.87H96.08C95.98 2.87 95.91 2.91 95.87 2.99ZM95.29 2.88H95.26L95.22 2.92V2.94H95.29V2.88ZM95.63 3.53V3.54H95.66C95.8267 3.38667 95.91 3.25 95.91 3.13L95.87 3.09C95.7567 3.09 95.6767 3.23667 95.63 3.53ZM100.1 3.18L100.09 3.13H100.02V3.16C100.047 3.21333 100.073 3.24 100.1 3.24V3.18ZM99.95 3.27V3.22L99.91 3.27H99.95ZM99.79 3.29H99.74L99.68 3.33V3.35L99.74 3.4H99.79L99.84 3.35V3.33L99.79 3.29ZM100.09 3.43H100.05L99.99 3.47V3.57L100.01 3.66H100.05L100.09 3.43ZM99.82 3.69L99.76 3.66H99.74V3.69L99.76 3.73H99.82V3.69ZM99.72 4.03V4.25L99.75 4.28H99.76C99.8333 4.28 99.8767 4.24667 99.89 4.18C99.8433 4.07333 99.82 3.98333 99.82 3.91H99.79C99.7433 3.93 99.72 3.97 99.72 4.03ZM99.82 4.47H99.79L99.75 4.51L99.82 4.55H99.86L99.87 4.51L99.82 4.47ZM95.58 5.06V5.15L95.63 5.21H95.74V5.15C95.68 5.09 95.6267 5.06 95.58 5.06ZM95.84 5.43H95.83V5.49C96.0167 5.63 96.1433 5.7 96.21 5.7H96.26V5.64C96.1333 5.55333 95.9933 5.48333 95.84 5.43ZM97.59 5.93L97.55 5.89H97.42C97.4333 5.93 97.47 5.95 97.53 5.95H97.59V5.93ZM97.68 6.1L97.64 6.12C97.68 6.17333 97.83 6.26 98.09 6.38V6.33C97.9633 6.21 97.8267 6.13333 97.68 6.1ZM98 6.92H97.93V6.98C98.05 7.04 98.1967 7.07333 98.37 7.08C98.37 7.11333 98.4 7.13 98.46 7.13H98.57V7.12C98.57 7.04 98.38 6.97333 98 6.92ZM98.94 7.33L98.91 7.28H98.87V7.33L98.91 7.37H98.94V7.33ZM94.8 8.69H94.74C94.7 8.83 94.68 9.00333 94.68 9.21L94.7 9.39H94.72C94.8 9.39 94.84 9.35333 94.84 9.28C94.8133 9.07333 94.8 8.87667 94.8 8.69ZM95.09 9.09C95.0433 9.24333 94.9933 9.34333 94.94 9.39L94.99 9.54V9.9V9.98C94.99 10.04 95.01 10.07 95.05 10.07H95.13L95.17 10.03V9.98C95.17 9.38667 95.1433 9.09 95.09 9.09ZM95.84 9.43H95.83V9.46C95.8633 9.60667 95.93 9.68 96.03 9.68V9.65C95.9633 9.50333 95.9 9.43 95.84 9.43ZM94.72 9.73L94.74 9.76H94.76C94.7867 9.76 94.81 9.67 94.83 9.49L94.8 9.46C94.76 9.46 94.7333 9.55 94.72 9.73ZM96.32 9.55H96.29V9.57C96.3633 9.70333 96.4367 9.77 96.51 9.77V9.73C96.4367 9.65 96.3733 9.59 96.32 9.55ZM99.93 9.79H99.86L99.79 9.86L99.84 9.91H99.91L99.97 9.86V9.83L99.93 9.79ZM97.12 10.1V10.12C97.14 10.16 97.1733 10.18 97.22 10.18C97.2 10.1267 97.1667 10.1 97.12 10.1ZM96.47 10.13L96.37 10.12V10.13C96.4633 10.33 96.6933 10.4833 97.06 10.59C97.36 10.7033 97.7833 10.82 98.33 10.94C98.4367 11.0067 98.53 11.0467 98.61 11.06H98.74C98.9667 10.9933 99.08 10.91 99.08 10.81L97.85 10.72C97.13 10.4867 96.67 10.29 96.47 10.13ZM98.87 10.53V10.55L98.91 10.58H98.98C99.3133 10.58 99.4967 10.5333 99.53 10.44L99.48 10.42H99.39C99.29 10.42 99.1167 10.4567 98.87 10.53ZM98.55 10.87H98.46V10.81H98.49C98.5567 10.81 98.59 10.83 98.59 10.87H98.55ZM102.69 1.34L103.15 1.27C103.47 1.27 103.723 1.43333 103.91 1.76L104 2.2C103.98 2.37333 103.88 2.6 103.7 2.88C103.58 3 103.397 3.06 103.15 3.06C102.577 3.06 102.223 2.97333 102.09 2.8C101.95 2.62 101.887 2.36333 101.9 2.03C101.86 2.03 101.84 2.02333 101.84 2.01V1.98C102.113 1.55333 102.397 1.34 102.69 1.34ZM102.41 1.68V1.69C102.723 1.65667 102.88 1.61667 102.88 1.57L102.81 1.54C102.543 1.58667 102.41 1.63333 102.41 1.68ZM102.65 2.08H102.66L102.74 2.09H102.77C102.87 2.09 102.933 2.05333 102.96 1.98L102.95 1.95H102.78C102.707 1.95 102.663 1.99333 102.65 2.08ZM103.65 1.95H103.63L103.59 2.02V2.08H103.6L103.65 2.02V1.95ZM103.3 2.4V2.45H103.36C103.42 2.45 103.47 2.41667 103.51 2.35V2.31H103.48C103.42 2.31 103.36 2.34 103.3 2.4ZM103.21 2.65H103L102.96 2.69V2.72H103.21L103.25 2.69L103.21 2.65ZM101.24 3.98L101.27 3.95H101.31C101.383 4.01 101.473 4.04 101.58 4.04L101.76 3.96C103 3.96 103.62 3.99667 103.62 4.07L103.63 4.17V4.4C103.71 4.58 103.75 4.75333 103.75 4.92V5.14C103.643 6.62667 103.573 7.83 103.54 8.75C103.52 8.80333 103.5 8.89667 103.48 9.03C103.487 9.07 103.527 9.09 103.6 9.09H103.65C104.137 9.09 104.38 9.15 104.38 9.27L104.37 9.29V9.38C104.477 9.59333 104.53 9.94 104.53 10.42L104.59 10.96L104.55 10.99L103.95 11.02H102.58C101.56 11.02 101.05 10.9367 101.05 10.77C101.05 10.67 101.023 10.57 100.97 10.47C100.997 10.4033 101.04 10.3533 101.1 10.32H101.14C101.18 10.3533 101.223 10.37 101.27 10.37H101.29C101.557 10.37 101.873 10.35 102.24 10.31V10.28C101.453 10.2267 101.06 10.1633 101.06 10.09L101.05 9.98V9.83L101.02 9.47C101.02 9.38333 101.363 9.34 102.05 9.34C102.137 9.34 102.18 9.13333 102.18 8.72L102.35 5.12H102.32C102.067 5.12 101.94 5.10333 101.94 5.07C101.94 5.06333 101.953 5.05 101.98 5.03C101.433 5.03 101.16 4.96667 101.16 4.84C101.12 4.82667 101.1 4.79 101.1 4.73L101.17 4.56C101.17 4.52667 101.143 4.47667 101.09 4.41C101.163 4.33667 101.213 4.19333 101.24 3.98ZM101.49 4.22V4.28H101.55C101.79 4.28 101.91 4.26 101.91 4.22L101.88 4.17H101.84C101.607 4.17 101.49 4.18667 101.49 4.22ZM103.39 4.17L103.34 4.13L103.3 4.17L103.36 4.21H103.39V4.17ZM101.79 4.41H101.54V4.45C101.54 4.49 101.603 4.51 101.73 4.51H101.88H101.92H102.37C102.51 4.51 102.58 4.48667 102.58 4.44V4.43C102.58 4.38333 102.317 4.37667 101.79 4.41ZM103.19 4.43H103L102.88 4.41V4.44C102.947 4.44 103.023 4.48667 103.11 4.58H103.14C103.16 4.58 103.17 4.56667 103.17 4.54H103.19C103.23 4.54 103.253 4.58 103.26 4.66H103.29L103.48 4.52V4.44L103.19 4.43ZM102.95 5.19L103.02 5.4L102.92 5.64C102.96 5.72667 102.993 5.77 103.02 5.77H103.03L103.06 5.69V5.6C103.06 5.27333 103.11 5.11 103.21 5.11L103.25 5.06V5L103.21 4.96H103.13C103.01 4.96 102.95 5.03667 102.95 5.19ZM102.52 6.49L102.48 8.26C102.493 8.32 102.507 8.35 102.52 8.35C102.553 8.35 102.573 8.31 102.58 8.23L102.57 8.02C102.61 7.97333 102.66 7.79333 102.72 7.48V7.39L102.69 7.2C102.743 7.15333 102.77 7.12333 102.77 7.11C102.737 7.01 102.72 6.91 102.72 6.81V6.78C102.753 6.78 102.797 6.27 102.85 5.25C102.823 5.17667 102.797 5.14 102.77 5.14C102.637 5.14 102.553 5.59 102.52 6.49ZM103.19 5.29L103.14 5.3V5.38C103.14 5.44 103.163 5.48333 103.21 5.51H103.25L103.29 5.45V5.38C103.27 5.34 103.237 5.31 103.19 5.29ZM103.14 7.61L103.13 7.52H103.06C102.987 7.85333 102.95 8.10333 102.95 8.27H102.96C103.007 8.27 103.067 8.08333 103.14 7.71V7.61ZM102.87 8.8V8.9H102.89C102.937 8.88 102.96 8.82333 102.96 8.73V8.64H102.92C102.9 8.64 102.883 8.69333 102.87 8.8ZM102.91 9.01H102.89L102.85 9.06V9.13H102.89L102.95 9.09V9.05L102.91 9.01ZM104.07 9.34H103.99L103.95 9.35C104.003 9.39667 104.103 9.42333 104.25 9.43V9.39C104.25 9.35667 104.19 9.34 104.07 9.34ZM104.04 9.91L103.88 9.95C103.9 10.0633 103.98 10.12 104.12 10.12H104.16V10.07L104.14 10.03C104.14 10.0233 104.177 9.99667 104.25 9.95V9.88C104.25 9.82 104.23 9.78333 104.19 9.77H104.14C104.113 9.78333 104.08 9.83 104.04 9.91ZM101.43 9.79L101.33 9.81V9.83C101.403 9.90333 101.687 9.94333 102.18 9.95H102.28C102.353 9.95 102.397 9.92667 102.41 9.88V9.86C102.03 9.81333 101.703 9.79 101.43 9.79ZM102.72 9.95L102.77 10.02C102.85 10.02 102.89 9.97333 102.89 9.88H102.83C102.77 9.88 102.733 9.90333 102.72 9.95ZM104.03 10.22H104L103.96 10.28V10.31H103.99L104.03 10.25V10.22ZM103.11 10.32L102.95 10.31L102.77 10.32H102.58V10.37L102.77 10.39L103.17 10.36V10.32H103.11ZM104.37 10.77H104.34L104.29 10.81V10.85H104.37L104.38 10.81L104.37 10.77ZM107.64 2.8L107.84 2.75C108.08 2.75 108.76 2.88667 109.88 3.16C110.407 3.40667 110.713 3.53 110.8 3.53C110.873 3.42333 110.91 3.29333 110.91 3.14V3.12V3.02C110.91 2.9 110.99 2.84 111.15 2.84C111.263 2.76 111.42 2.72 111.62 2.72C111.893 2.72 112.03 2.75 112.03 2.81L112.15 4.1V4.5C112.15 4.82667 112.103 5.02 112.01 5.08C111.93 5.16667 111.867 5.21 111.82 5.21C111.313 5.16333 111.06 5.09333 111.06 5C110.993 4.78 110.833 4.62 110.58 4.52C109.7 4.08667 109.07 3.87 108.69 3.87L108.31 3.84C107.85 3.84 107.58 3.92667 107.5 4.1C107.393 4.24667 107.34 4.44333 107.34 4.69V4.7C107.34 5.2 107.6 5.61667 108.12 5.95C108.64 6.15667 109.09 6.26 109.47 6.26C109.47 6.33333 109.673 6.43333 110.08 6.56C110.167 6.7 110.347 6.77 110.62 6.77C110.9 6.87667 111.303 7.22 111.83 7.8L111.89 7.86V7.91C111.89 7.93 111.863 7.94 111.81 7.94V7.97C111.937 8.24333 112 8.40333 112 8.45C112 9.27 111.867 9.78333 111.6 9.99C111.48 10.2367 111.23 10.48 110.85 10.72C110.423 11.1067 109.987 11.3 109.54 11.3H109.06C108.34 11.1933 107.98 11.1033 107.98 11.03C107.56 10.7367 107.317 10.59 107.25 10.59C106.803 10.3833 106.497 10.1667 106.33 9.94H106.27C106.163 10.26 106.073 10.42 106 10.42C105.427 10.3267 105.14 10.2267 105.14 10.12C105.08 9.96 105.047 9.56333 105.04 8.93L105.18 8.08C105.18 7.76667 105.217 7.61 105.29 7.61L106.16 7.52C106.227 7.52 106.29 7.77 106.35 8.27L106.74 8.97C106.74 8.99667 107.143 9.27 107.95 9.79C108.15 10.0167 108.437 10.13 108.81 10.13H109.29C109.777 10.13 110.107 9.97333 110.28 9.66C110.487 9.43333 110.64 9.10333 110.74 8.67V8.62C110.74 8.36 110.507 8.03 110.04 7.63C109.84 7.39667 109.587 7.28 109.28 7.28C109.093 7.2 108.683 7.11667 108.05 7.03L106.95 6.46L106.42 6.01C106.193 5.66333 106.07 5.42 106.05 5.28L106.08 5.04L106.02 4.52C106.02 4.39333 106.1 4.24333 106.26 4.07C106.26 3.96333 106.477 3.71333 106.91 3.32C107.323 3.1 107.567 2.92667 107.64 2.8ZM107.77 2.94V2.99C107.77 3.03 107.83 3.06333 107.95 3.09C108.197 3.07 108.32 3.03667 108.32 2.99V2.94C108.32 2.87333 108.193 2.84 107.94 2.84C107.867 2.84 107.81 2.87333 107.77 2.94ZM111.34 2.91V2.94C111.44 3.1 111.527 3.18 111.6 3.18C111.673 3.18 111.73 3.13667 111.77 3.05V2.99C111.77 2.93667 111.627 2.91 111.34 2.91ZM111.89 3.33H111.82L111.78 3.39L111.82 3.42H111.89V3.33ZM108.16 3.54C108.193 3.57333 108.237 3.59 108.29 3.59C108.383 3.59 108.48 3.54 108.58 3.44L108.51 3.39H108.36C108.227 3.39 108.16 3.44 108.16 3.54ZM110.02 3.53V3.54C110.02 3.56667 110.073 3.58333 110.18 3.59H110.22V3.58C110.22 3.56 110.153 3.54333 110.02 3.53ZM108.81 3.7H108.79L108.73 3.76C108.73 3.82 108.893 3.86 109.22 3.88V3.84C109.22 3.8 109.083 3.75333 108.81 3.7ZM106.87 4.13V4.14L106.9 4.15H106.95C107.15 4.01 107.25 3.89333 107.25 3.8H107.24H107.21C107.11 3.8 106.997 3.91 106.87 4.13ZM110.91 3.89H110.88L110.85 3.92C110.977 4.02 111.123 4.09 111.29 4.13L111.3 4.1V4.07C111.3 4.02333 111.17 3.96333 110.91 3.89ZM106.84 3.92H106.82L106.78 3.94L106.79 3.96V3.98L106.84 3.96V3.92ZM110.18 4.03L110.17 4.04V4.07C110.45 4.23667 110.627 4.32 110.7 4.32V4.3C110.7 4.24667 110.527 4.15667 110.18 4.03ZM106.43 4.1V4.07H106.37L106.35 4.17V4.21L106.37 4.24L106.43 4.1ZM106.35 4.4H106.3L106.26 4.41C106.273 4.58333 106.297 4.70667 106.33 4.78H106.37V4.77L106.35 4.4ZM106.72 4.52H106.67L106.61 4.56V4.61H106.65L106.72 4.55V4.52ZM111.36 4.88H111.25L111.19 4.91C111.263 4.95 111.397 4.97 111.59 4.97L111.86 4.96V4.91C111.7 4.89 111.533 4.88 111.36 4.88ZM107.24 5.64L107.21 5.66V5.69L107.24 5.73H107.38V5.69C107.367 5.65667 107.32 5.64 107.24 5.64ZM106.65 5.73L106.61 5.69L106.58 5.73V5.74L106.61 5.77H106.65V5.73ZM106.86 5.77H106.84V5.79C106.907 5.99667 106.973 6.1 107.04 6.1H107.09L107.16 6.03V6.01C107.04 5.85 106.94 5.77 106.86 5.77ZM107.54 5.77L107.51 5.79V5.88L107.6 5.96H107.64L107.68 5.93V5.86C107.64 5.8 107.593 5.77 107.54 5.77ZM107.98 6.1L107.95 6.12V6.14C108.07 6.24667 108.25 6.34 108.49 6.42L108.51 6.38C108.51 6.32667 108.333 6.23333 107.98 6.1ZM108.73 6.44C108.73 6.47333 109.053 6.56667 109.7 6.72L109.88 6.74H109.92V6.72C109.647 6.51333 109.313 6.39333 108.92 6.36C108.793 6.4 108.73 6.42667 108.73 6.44ZM107.56 6.49H107.54C107.54 6.55667 107.6 6.60667 107.72 6.64L107.75 6.63C107.75 6.58333 107.687 6.53667 107.56 6.49ZM108.9 6.83V6.89L109.13 6.97H109.28V6.93C109.113 6.86333 108.987 6.83 108.9 6.83ZM110.36 7.03H110.24V7.07C110.293 7.12333 110.533 7.26 110.96 7.48C111.14 7.64 111.28 7.72 111.38 7.72H111.4L111.42 7.68C111.213 7.40667 110.86 7.19 110.36 7.03ZM110.7 7.86H110.69V7.93C110.69 8.01667 110.767 8.12667 110.92 8.26H111V8.15C111 8.03667 110.9 7.94 110.7 7.86ZM105.79 8.11L105.78 8.05H105.71V8.11L105.74 8.13L105.79 8.11ZM105.24 9.14L105.26 9.49H105.27C105.337 9.45 105.37 9.23333 105.37 8.84V8.73L105.34 8.71H105.31C105.283 8.71 105.26 8.85333 105.24 9.14ZM110.96 8.97L110.95 8.93H110.88V8.99L110.92 9.01L110.96 8.97ZM111.77 8.93H111.73L111.62 9.03V9.1L111.64 9.14H111.68C111.74 9.13333 111.77 9.06333 111.77 8.93ZM106.31 9.39H106.27V9.45C106.41 9.61667 106.543 9.7 106.67 9.7H106.69V9.66C106.49 9.48 106.363 9.39 106.31 9.39ZM110.55 9.88V9.94H110.58C110.66 9.88667 110.727 9.80667 110.78 9.7L110.75 9.66C110.683 9.70667 110.617 9.78 110.55 9.88ZM105.74 9.91L105.68 9.86H105.61V9.91L105.68 9.95L105.74 9.94V9.91ZM111.33 10.01H111.29L110.82 10.39V10.42C110.82 10.4333 110.84 10.44 110.88 10.44C110.987 10.44 111.137 10.2967 111.33 10.01ZM108.03 10.62L107.64 10.59V10.62C107.64 10.66 107.757 10.7067 107.99 10.76L108.05 10.81H108.12C108.1 10.6833 108.07 10.62 108.03 10.62ZM108.49 10.83V10.81L108.44 10.77V10.83H108.49ZM108.36 10.96H108.33L108.39 11.03H108.5V11.02C108.493 10.98 108.447 10.96 108.36 10.96ZM110.22 10.96H109.95L109.92 10.99V11.03L109.95 11.06H110C110.173 11.0467 110.26 11.0233 110.26 10.99L110.22 10.96ZM108.64 11.04C108.767 11.1133 108.94 11.15 109.16 11.15H109.18L109.77 11.13V11.1C109.743 11.0267 109.43 10.99 108.83 10.99C108.703 10.99 108.64 11.0067 108.64 11.04ZM115.55 0C115.75 0 115.917 0.0533332 116.05 0.16C115.937 0.453333 115.863 0.913333 115.83 1.54L115.7 2.8C115.7 2.86667 115.883 2.9 116.25 2.9C117.323 2.9 117.86 2.95 117.86 3.05C117.907 3.05 117.963 3.07667 118.03 3.13C117.937 3.25 117.89 3.33667 117.89 3.39V3.43L117.93 3.7L117.75 4.3C117.75 4.36667 117.82 4.46 117.96 4.58V4.61C117.74 4.67667 117.563 4.71 117.43 4.71C117.283 4.70333 117.21 4.68333 117.21 4.65V4.62L117.33 4.61H117.43L117.48 4.55V4.52L117.43 4.51L116.51 4.52L115.76 4.51C115.713 4.51 115.663 4.76667 115.61 5.28H115.59L115.4 5.06L115.36 5.21V5.29C115.373 5.54333 115.407 5.68 115.46 5.7C115.493 5.7 115.523 5.61667 115.55 5.45V5.36H115.59L115.61 5.4L115.51 6.71C115.623 8.59667 115.72 9.54 115.8 9.54C115.847 9.83333 115.96 9.98 116.14 9.98C116.24 10.04 116.363 10.07 116.51 10.07H116.76L117.58 10.03C117.593 10.03 117.623 10.2733 117.67 10.76C117.69 10.9067 117.66 11.0133 117.58 11.08C117.507 11.1467 117.377 11.18 117.19 11.18L116.14 11.21C115.567 11.21 115.083 11.05 114.69 10.73C114.437 10.6367 114.31 10.3633 114.31 9.91C114.29 9.66333 114.257 8.93333 114.21 7.72L114.38 5.86L114.42 5.06V4.95C114.353 4.56333 114.243 4.37 114.09 4.37H113.68H113.2C113.067 4.37 112.93 4.40333 112.79 4.47C112.703 4.45667 112.59 4.33333 112.45 4.1L112.72 2.88C112.72 2.84667 113.273 2.82333 114.38 2.81C114.38 2.69667 114.443 2.54667 114.57 2.36C114.603 0.94 114.653 0.23 114.72 0.23V0.19C114.72 0.17 114.697 0.16 114.65 0.16V0.12C114.65 0.0933332 114.95 0.0533333 115.55 0ZM115.06 0.39L115.03 0.37H115.02V0.45H115.06V0.39ZM115.76 0.39H115.62L115.57 0.45V0.48L115.61 0.79H115.64C115.747 0.683333 115.8 0.586667 115.8 0.5V0.45L115.76 0.39ZM115.13 1.04V0.9L115.09 0.86C115.07 0.953333 115.06 1.07 115.06 1.21V1.27H115.09L115.13 1.04ZM115.17 1.47H115.14L115.09 2.83V2.84L115.13 2.88H115.16C115.22 2.88 115.25 2.76667 115.25 2.54V2.23L115.23 1.56C115.21 1.5 115.19 1.47 115.17 1.47ZM112.81 3.05C112.81 3.11 112.85 3.14 112.93 3.14H113.13C113.503 3.14 113.85 3.12333 114.17 3.09V3.06C114.17 3.01333 113.947 2.99 113.5 2.99H112.93C112.85 2.99 112.81 3.01 112.81 3.05ZM117.21 2.99H117.07L116.89 3.06H116.73H116.5V3.1C116.7 3.15333 116.873 3.18 117.02 3.18H117.33C117.35 3.18 117.36 3.16667 117.36 3.14C117.34 3.04 117.29 2.99 117.21 2.99ZM117.6 3.13H117.45L117.41 3.16V3.18L117.45 3.2C117.543 3.2 117.593 3.18 117.6 3.14V3.13ZM113.17 3.31H113.02L113 3.33V3.42C113 3.50667 113.303 3.55 113.91 3.55C114.223 3.55 114.38 3.52667 114.38 3.48C114.38 3.37333 113.977 3.31667 113.17 3.31ZM116.03 3.43H115.94L115.9 3.47V3.48C115.9 3.52667 116.063 3.55667 116.39 3.57L116.62 3.55L116.93 3.61H116.99C117.05 3.61 117.08 3.58333 117.08 3.53H117.07L116.03 3.43ZM117.59 3.73H117.41L117.36 3.78V3.8L117.41 3.84H117.48C117.56 3.84 117.61 3.81333 117.63 3.76L117.59 3.73ZM113.27 3.78H113.15L113.09 3.83C113.09 3.86333 113.113 3.88 113.16 3.88L113.5 3.89L113.87 3.88L113.89 3.87V3.84C113.777 3.8 113.57 3.78 113.27 3.78ZM114.24 4.09L114.21 4.04L113.09 4V4.03C113.09 4.09667 113.437 4.13 114.13 4.13L114.24 4.1V4.09ZM116.17 4.09H116.1V4.13C116.107 4.14333 116.267 4.18667 116.58 4.26H116.61V4.24C116.463 4.14 116.317 4.09 116.17 4.09ZM116.87 4.22C117.117 4.30667 117.333 4.35 117.52 4.35L117.58 4.29V4.21L117.54 4.17H117.24C116.993 4.17 116.87 4.18667 116.87 4.22ZM114.97 4.71V4.82L115.01 4.87C115.043 4.85667 115.06 4.82333 115.06 4.77V4.71L115.03 4.62H115.02C114.987 4.62667 114.97 4.65667 114.97 4.71ZM115.47 5V4.96L115.4 4.91V4.95L115.46 5H115.47ZM115.06 5.02L115.03 4.99H115.01L114.99 5.06V5.12L115.01 5.21H115.06V5.08V5.02ZM115.09 6.04L115.06 5.93H115.02V6.04L115.06 6.1H115.09V6.04ZM114.41 7.67L114.45 8.05L114.43 8.53L114.45 8.67H114.49C114.543 8.67 114.57 8.45333 114.57 8.02V7.71C114.57 7.29 114.55 7.08 114.51 7.08C114.45 7.08 114.417 7.27667 114.41 7.67ZM115.29 8.75H115.27L115.25 8.84V8.95C115.25 9.01667 115.27 9.05333 115.31 9.06H115.33C115.37 9.05333 115.39 9.02333 115.39 8.97C115.383 8.82333 115.35 8.75 115.29 8.75ZM115.4 9.34L115.35 9.49C115.35 9.69667 115.397 9.82667 115.49 9.88L115.51 9.83V9.7C115.503 9.47333 115.467 9.35333 115.4 9.34ZM114.9 9.46L114.87 9.43H114.83V9.64L114.86 9.72H114.87L114.9 9.69V9.46ZM115.27 10.29V10.31V10.39C115.277 10.4233 115.307 10.46 115.36 10.5H115.46V10.47C115.46 10.37 115.397 10.31 115.27 10.29ZM116.78 10.57H116.84C117.173 10.51 117.34 10.45 117.34 10.39L117.32 10.36C116.96 10.4533 116.78 10.5233 116.78 10.57ZM115.12 10.62L114.92 10.37H114.9V10.43C114.927 10.6567 115.027 10.77 115.2 10.77H115.33L115.36 10.73V10.72C115.36 10.7 115.28 10.6667 115.12 10.62ZM121.98 4.13C122.36 4.13 122.823 4.29333 123.37 4.62C123.837 4.96667 124.07 5.20333 124.07 5.33C124.437 6.09667 124.62 6.55667 124.62 6.71L124.63 6.82C124.497 7.14 124.43 7.36 124.43 7.48L124.34 7.49H123.18C123.073 7.49 122.943 7.50333 122.79 7.53C121.477 7.42333 120.553 7.37 120.02 7.37H119.74C119.627 7.53 119.57 7.64667 119.57 7.72C119.637 7.82 119.67 7.98 119.67 8.2C119.67 8.54667 119.723 8.75333 119.83 8.82L119.85 8.88V8.9L119.76 8.86V8.9L119.89 9.03C119.89 9.15 119.97 9.30333 120.13 9.49C120.43 10.0167 120.76 10.3433 121.12 10.47C121.42 10.57 121.76 10.62 122.14 10.62C122.207 10.62 122.34 10.56 122.54 10.44C122.707 10.4067 123.053 10.11 123.58 9.55V9.51C123.58 9.49667 123.517 9.48 123.39 9.46L123.36 9.39C123.567 8.99 123.817 8.72667 124.11 8.6C124.197 8.68 124.367 8.80667 124.62 8.98C124.82 9.29333 125.087 9.65667 125.42 10.07V10.13C125.133 10.51 124.927 10.7 124.8 10.7H124.74C124.74 10.5 124.617 10.3867 124.37 10.36C124.323 10.36 124.123 10.51 123.77 10.81C123.563 10.9767 123.203 11.1333 122.69 11.28C122.097 11.3933 121.677 11.45 121.43 11.45L120.65 11.18C120.217 11.18 119.817 10.9433 119.45 10.47C119.297 10.3033 119.17 10.1067 119.07 9.88C119.07 9.80667 118.97 9.43 118.77 8.75C118.703 8.48333 118.67 8.22667 118.67 7.98V7.97C118.67 6.75667 119.033 5.69333 119.76 4.78C119.853 4.55333 120.063 4.38667 120.39 4.28C120.61 4.21333 120.877 4.16333 121.19 4.13C121.27 4.09 121.533 4.09 121.98 4.13ZM120.75 4.39L120.72 4.41V4.43H120.75C120.897 4.43 121.17 4.38 121.57 4.28C121.65 4.26667 121.69 4.24333 121.69 4.21L121.65 4.17H121.64C121.373 4.17 121.077 4.24333 120.75 4.39ZM120.17 4.65V4.66L120.22 4.69H120.23C120.41 4.64333 120.5 4.59667 120.5 4.55V4.47L120.45 4.41H120.42C120.253 4.47 120.17 4.55 120.17 4.65ZM122.28 4.51H121.87V4.54C121.87 4.57333 122.057 4.6 122.43 4.62H122.44V4.56C122.44 4.54667 122.387 4.53 122.28 4.51ZM121.31 4.71V4.73C121.31 4.76333 121.497 4.81 121.87 4.87L121.9 4.85V4.8C121.827 4.7 121.703 4.65 121.53 4.65H121.49C121.37 4.65667 121.31 4.67667 121.31 4.71ZM122.14 4.8V4.81C122.66 5.11 122.94 5.26 122.98 5.26H122.99L123.13 5.21L123.21 5.23L123.22 5.21V5.19C123.187 5.16333 123.11 5.13667 122.99 5.11L122.72 4.99C122.647 4.83667 122.5 4.76 122.28 4.76H122.24C122.173 4.76667 122.14 4.78 122.14 4.8ZM120.52 5.19C120.607 5.11667 120.787 5.04 121.06 4.96V4.93L121.05 4.91H120.91C120.65 4.98333 120.52 5.07667 120.52 5.19ZM119.79 6.1V6.14C119.79 6.24 120.62 6.35333 122.28 6.48L122.42 6.52L122.59 6.51C122.957 6.62333 123.203 6.68 123.33 6.68C123.33 6.70667 123.357 6.73 123.41 6.75C123.47 6.67 123.5 6.59333 123.5 6.52V6.26C123.5 6.14 123.27 5.87667 122.81 5.47C122.603 5.25667 122.367 5.13667 122.1 5.11L121.64 5.03C120.88 5.18333 120.383 5.37 120.15 5.59C120.05 5.78333 119.93 5.95333 119.79 6.1ZM119.94 5.28V5.3H119.97C120.09 5.27333 120.15 5.24333 120.15 5.21V5.19H120.08C120.033 5.19 119.987 5.22 119.94 5.28ZM123.21 5.47C123.23 5.54333 123.27 5.58 123.33 5.58H123.36L123.39 5.53V5.45L123.33 5.38C123.25 5.38 123.21 5.41 123.21 5.47ZM119.74 5.53H119.68L119.66 5.58V5.59H119.68L119.74 5.55V5.53ZM123.58 5.67L123.55 5.64H123.5C123.6 5.94667 123.673 6.11333 123.72 6.14H123.77L123.81 6.11C123.737 5.81667 123.66 5.67 123.58 5.67ZM119.81 5.89C119.863 5.88333 119.89 5.84667 119.89 5.78V5.77C119.837 5.78333 119.81 5.82333 119.81 5.89ZM124.06 6.26H124.02L123.98 6.29V6.38L124.02 6.44C124.053 6.42667 124.07 6.39333 124.07 6.34V6.29L124.06 6.26ZM119.66 6.45V6.51L119.68 6.53H119.71C119.777 6.50333 119.83 6.45333 119.87 6.38V6.34H119.81C119.75 6.34 119.7 6.37667 119.66 6.45ZM119.09 6.37C119.023 6.44333 118.96 6.62667 118.9 6.92H118.93C118.983 6.92 119.067 6.76 119.18 6.44C119.16 6.39333 119.13 6.37 119.09 6.37ZM120.49 6.53V6.57C120.663 6.69 120.977 6.75 121.43 6.75H121.56L121.73 6.74V6.68C121.357 6.6 120.943 6.55 120.49 6.53ZM122.99 6.93V6.89H122.95V6.93H122.99ZM120.35 7V7.03C120.537 7.07 121.02 7.11333 121.8 7.16V7.18V7.19L121.51 7.23C121.51 7.25667 121.63 7.27 121.87 7.27C122.25 7.27 122.44 7.25333 122.44 7.22C122.44 7.12667 121.743 7.05333 120.35 7ZM119.03 7.12L118.97 7.09H118.9V7.18C118.9 7.23333 118.913 7.26 118.94 7.26C118.987 7.26 119.017 7.21333 119.03 7.12ZM120.08 7.13V7.12L120.01 7.13V7.22H120.08V7.16V7.13ZM119.64 7.23V7.24H119.66L119.89 7.22V7.19L119.85 7.13H119.81C119.723 7.13 119.667 7.16333 119.64 7.23ZM122.96 7.26C122.96 7.29333 123.043 7.31 123.21 7.31L123.33 7.3V7.27C123.33 7.23667 123.243 7.22 123.07 7.22C122.997 7.23333 122.96 7.24667 122.96 7.26ZM118.9 7.61V7.65V7.67C118.893 7.69667 118.89 7.76 118.89 7.86V7.91C118.89 8.07667 118.937 8.22333 119.03 8.35H119.04C119.04 7.91667 118.993 7.67 118.9 7.61ZM119.18 8.83L119.15 8.8H119.11V8.83L119.15 8.86H119.18V8.83ZM119.24 9.03L119.23 9.05V9.08C119.27 9.22 119.327 9.29 119.4 9.29V9.28V9.25C119.4 9.17667 119.347 9.10333 119.24 9.03ZM123.7 9.16L123.73 9.2H123.8C123.853 9.2 123.883 9.18 123.89 9.14L123.84 9.09H123.83C123.763 9.09 123.72 9.11333 123.7 9.16ZM123.39 9.95L123.41 9.96H123.43C123.53 9.96 123.593 9.90333 123.62 9.79V9.76C123.52 9.76 123.443 9.82333 123.39 9.95ZM124.34 9.92L124.36 9.94H124.4C124.453 9.9 124.48 9.85 124.48 9.79H124.44C124.373 9.82333 124.34 9.86667 124.34 9.92ZM124.82 9.79H124.81V9.81C124.837 9.92333 124.877 9.98 124.93 9.98H124.95L124.97 9.95V9.94C124.957 9.84 124.907 9.79 124.82 9.79ZM124.03 10.07L124.07 10.1C124.21 10.0533 124.28 9.99333 124.28 9.92V9.9H124.26C124.133 9.9 124.057 9.95667 124.03 10.07ZM122.96 10.37H122.99C123.063 10.3433 123.103 10.3 123.11 10.24L123.1 10.22C123.007 10.28 122.96 10.33 122.96 10.37ZM123.77 10.44H123.83C123.917 10.36 123.96 10.3033 123.96 10.27H123.95C123.83 10.3033 123.77 10.36 123.77 10.44ZM119.89 10.57H119.85V10.62C119.863 10.6667 119.94 10.7167 120.08 10.77L120.13 10.81C120.03 10.6567 119.95 10.5767 119.89 10.57ZM120.84 10.62H120.83V10.63C120.83 10.67 120.927 10.7133 121.12 10.76L121.13 10.74V10.72C121.01 10.6533 120.913 10.62 120.84 10.62ZM121.65 10.81V10.77H121.61V10.81H121.65ZM123.07 10.98C123.163 10.98 123.237 10.91 123.29 10.77H123.25C123.13 10.8367 123.07 10.9067 123.07 10.98ZM122.12 11.11L121.83 11.09H121.77C121.69 11.09 121.647 11.1067 121.64 11.14V11.17L121.69 11.21H121.94C122.22 11.21 122.553 11.16 122.94 11.06C122.92 11.0067 122.863 10.98 122.77 10.98H122.7C122.487 10.98 122.293 11.0233 122.12 11.11ZM130.85 4.62C131.21 4.62 131.51 4.87 131.75 5.37C131.797 5.37 131.863 5.43 131.95 5.55L132.12 6.56C132.06 6.66667 131.82 6.72 131.4 6.72H131.26C130.927 6.66667 130.76 6.55333 130.76 6.38C130.76 6.25333 130.653 6.07667 130.44 5.85C130.413 5.80333 130.217 5.78 129.85 5.78C129.503 5.78 129.087 5.87 128.6 6.05C128.253 6.41667 128.023 6.7 127.91 6.9C127.977 8.46 128 9.43667 127.98 9.83C127.98 9.91 128.037 9.95 128.15 9.95H128.47C128.617 9.95667 128.69 9.98333 128.69 10.03V10.05L128.75 10.22L128.72 10.99L128.64 11.1L127.99 11.17H127.94L127.67 11.25C126.617 11.2167 126.09 11.1767 126.09 11.13C125.91 11.13 125.82 11.0467 125.82 10.88C125.8 10.7133 125.79 10.5433 125.79 10.37C125.79 10.2033 125.97 10.09 126.33 10.03C126.33 9.95667 126.453 9.92 126.7 9.92L126.74 9.91V9.88L126.66 6.14C126.66 5.90667 126.6 5.79 126.48 5.79H126.4C126.287 5.79 126.103 5.84333 125.85 5.95L125.82 5.92V5.89C125.82 5.87 125.857 5.84667 125.93 5.82V5.79C125.837 5.79 125.79 5.53667 125.79 5.03C125.777 5.03 125.763 4.94667 125.75 4.78C126.117 4.5 126.5 4.36 126.9 4.36H127.24C127.38 4.36 127.613 4.40667 127.94 4.5V4.54C127.86 4.66667 127.82 4.75667 127.82 4.81V4.91C128.553 4.57667 129.563 4.48 130.85 4.62ZM127.27 6.68V6.75C127.317 6.84333 127.34 6.94 127.34 7.04C127.333 7.07333 127.32 7.26 127.3 7.6L127.33 8.15H127.34C127.367 8.15 127.403 7.72333 127.45 6.87C127.47 6.87 127.48 6.78 127.48 6.6C127.467 6.52 127.443 6.48 127.41 6.48H127.38C127.307 6.52667 127.27 6.59333 127.27 6.68ZM126.45 10.81L126.27 10.83V10.85C126.27 10.8967 126.403 10.92 126.67 10.92H127.08L127.17 10.91C127.17 10.8633 126.93 10.83 126.45 10.81ZM128.82 5.21V5.23C128.9 5.23 129.007 5.1 129.14 4.84V4.77H129.13C128.89 4.84333 128.787 4.99 128.82 5.21ZM130.58 5.64H130.65C130.697 5.63333 130.783 5.52667 130.91 5.32V5.3C130.91 5.28667 130.89 5.28 130.85 5.28C130.697 5.34667 130.62 5.44 130.62 5.56C130.613 5.56 130.6 5.58667 130.58 5.64ZM127.48 6.19L127.43 5.96H127.38L127.31 6.25C127.31 6.29 127.337 6.33333 127.39 6.38H127.41C127.437 6.38 127.46 6.31667 127.48 6.19ZM129.33 4.91L129.4 5.18H129.51V4.89L129.47 4.85H129.43C129.363 4.86333 129.33 4.88333 129.33 4.91ZM126.63 10.59H126.35L126.33 10.62L126.34 10.65H127.09V10.61L126.63 10.59ZM126.11 4.89C126.183 4.96333 126.26 5 126.34 5L126.35 4.97V4.88L126.3 4.81C126.173 4.83 126.11 4.85667 126.11 4.89ZM127.49 10.69L127.53 10.73H127.74L127.79 10.68C127.79 10.66 127.767 10.64 127.72 10.62C127.567 10.64 127.49 10.6633 127.49 10.69ZM131.43 5.26H131.39V5.29C131.457 5.36333 131.52 5.4 131.58 5.4H131.62V5.37C131.547 5.29667 131.483 5.26 131.43 5.26ZM126.9 4.74L126.74 4.62H126.7V4.67L126.78 4.77H126.9V4.74ZM126.33 5.43V5.45H126.37C126.47 5.45 126.523 5.43333 126.53 5.4L126.5 5.36H126.48C126.393 5.36 126.343 5.38333 126.33 5.43ZM129.91 4.78H129.83L129.66 4.8V4.81L129.69 4.85H129.83C129.89 4.85 129.927 4.83333 129.94 4.8L129.91 4.78ZM127.69 9.19H127.67L127.61 9.23V9.34H127.67L127.72 9.29V9.21L127.69 9.19ZM126.03 10.77V10.68L125.97 10.62L125.94 10.68V10.73L125.97 10.77H126.03ZM128.02 5.52L127.94 5.51L127.89 5.52V5.56L127.94 5.6H127.98L128.02 5.56V5.52ZM130.1 4.77V4.8H130.2L130.25 4.76L130.21 4.71C130.137 4.73 130.1 4.75 130.1 4.77ZM131.06 4.77H131L130.98 4.8V4.81L131 4.85H131.06L131.08 4.81V4.8L131.06 4.77ZM127.72 4.66L127.68 4.63L127.61 4.66V4.71H127.68L127.72 4.66ZM127.68 4.88H127.64L127.58 4.92V4.95L127.61 4.97L127.68 4.92V4.88ZM130.96 6.01V6.04H130.99L131.04 6V5.96H131.03C130.983 5.98667 130.96 6.00333 130.96 6.01ZM130.54 4.81H130.5L130.44 4.85V4.87H130.51L130.54 4.84V4.81ZM127.67 9.54V9.49H127.64V9.54H127.67Z" fill="black"/>
</svg>
