<svg width="86.311" height="14" viewBox="0 0 86.311 14" xmlns="http://www.w3.org/2000/svg"><path transform="translate(0 9.8438) scale(.0068359 -.0068359)" d="m930 570-42-444-842-66q6 349 13.5 694t18.5 694h520q-23-219-44-437.5t-30-440.5q47-2 93-2t93 0q56 0 110 1t110 1z"/><path transform="translate(6.3301 9.8438) scale(.0068359 -.0068359)" d="m1243 1408q-45-352-77-700.5t-61-701.5l-410-30 18 154q-20-23-46.5-40t-56.5-27.5-62-15-61-3.5q-68 1-128 26.5t-110 68-90 99-67.5 119-42 127.5-14.5 126q0 90 3.5 186.5t12.5 193.5 23.5 192 36.5 182q122-6 245-11t245-3q-23-87-45.5-174.5t-40.5-176-29-177.5-11-180q0-21 2-60t10.5-77 26-66.5 49.5-28.5q38 0 68 32.5t53 87.5 39.5 127 28 150.5 18.5 158.5 10.5 150.5 5 126.5 1.5 87q0 20-1 39t-3 39q65-2 129-3t129-1q50 0 100.5 0.5t101.5 3.5z"/><path transform="translate(14.889 9.8438) scale(.0068359 -.0068359)" d="m1005 1366-36-422q-29 8-57 11t-57 3q-71 0-135.5-18t-114-55-79-93.5-29.5-133.5q0-56 16.5-97.5t47-69 74-41.5 96.5-14q37 0 76 7.5t78 20.5 75 30 67 36l-16-470q-39-20-84-35.5t-92.5-27-95-17.5-90.5-6q-142 0-258.5 53t-200 144.5-129.5 212.5-46 258q0 164 46.5 306t137 246.5 224 164 306.5 59.5q69 0 140-11t136-41z"/><path transform="translate(22.066 9.8438) scale(.0068359 -.0068359)" d="m1280 1292-442-526 406-688-464-82-304 412-16-392-416-16 32 1432 466-26-36-412 290 418z"/><path transform="translate(30.502 9.8438) scale(.0068359 -.0068359)" d="M573 1408 503 46 81 24 41 1380Z"/><path transform="translate(34.624 9.8438) scale(.0068359 -.0068359)" d="m1167 808q0-87-12-174-171-11-340-35.5t-338-48.5q26-72 81.5-115t132.5-43q40 0 87.5 15t94.5 37.5 90 48.5 74 47l-48-454q-39-30-84.5-51t-94.5-34-99-19-98-6q-99 0-181 27t-148.5 75.5-116.5 114.5-83 144-50 165-17 176q0 93 17 186t51.5 179 87 159.5 122.5 128.5 158.5 86 195.5 31q89 0 162.5-24.5t131-68 100-103.5 70-131.5 41-151 13.5-161.5zm-400 52q0 28-6 57.5t-19.5 53.5-35.5 39.5-55 15.5q-40 0-70.5-21.5t-52.5-54-36-70.5-21-70l296 28z"/><path transform="translate(42.697 9.8438) scale(.0068359 -.0068359)" d="m1076 512q0-137-47.5-236.5t-130-164-193-95-237.5-30.5q-49 0-107.5 13t-118.5 32.5-115.5 42-98.5 42.5l44 392q85-51 188.5-77.5t203.5-26.5q19 0 46 1.5t51.5 9 41.5 22.5 17 43q0 19-12 32.5t-31 22-43 13-47 6.5-43 2-32 0q-86 0-156.5 27t-121 76.5-78.5 120-28 156.5q0 118 47.5 211.5t127 159 182.5 100.5 213 35q49 0 101-3.5t103.5-12.5 100.5-23 93-35l-38-406q-68 23-142.5 38.5t-145.5 15.5q-13 0-33.5-0.5t-43-3-45.5-7.5-41-13.5-29-22.5-10-33q1-22 16.5-34t40-17.5 54-5.5 58.5 1.5 54 3 41 0.5q80-5 144-34t108.5-77 68-114.5 23.5-146.5z"/><path transform="translate(50.142 9.8438) scale(.0068359 -.0068359)" d="m1110 1410-10-424-298-12-36-928-422-22-38 928-298-16 12 472z"/><path transform="translate(60.505 9.8438) scale(.0068359 -.0068359)" d="m1258 204q-47-59-116-103t-148-73-162-43.5-158-14.5q-145 0-267 52t-210.5 143.5-138.5 215.5-50 267q0 109 25 213.5t71.5 197 113.5 170 152 133.5 186 87 216 31q43 0 92-3.5t97.5-12 94.5-23.5 84-37l-28-382q-56 21-115.5 28.5t-116.5 7.5q-80 0-149.5-24.5t-121-70.5-81.5-112-30-149q0-52 14-100.5t42.5-86 71-60.5 98.5-23q38 0 78.5 10t69.5 34l4 78-240 4 12 300q149 5 298 8.5t300 9.5z"/><path transform="translate(69.275 9.8438) scale(.0068359 -.0068359)" d="m1243 1408q-45-352-77-700.5t-61-701.5l-410-30 18 154q-20-23-46.5-40t-56.5-27.5-62-15-61-3.5q-68 1-128 26.5t-110 68-90 99-67.5 119-42 127.5-14.5 126q0 90 3.5 186.5t12.5 193.5 23.5 192 36.5 182q122-6 245-11t245-3q-23-87-45.5-174.5t-40.5-176-29-177.5-11-180q0-21 2-60t10.5-77 26-66.5 49.5-28.5q38 0 68 32.5t53 87.5 39.5 127 28 150.5 18.5 158.5 10.5 150.5 5 126.5 1.5 87q0 20-1 39t-3 39q65-2 129-3t129-1q50 0 100.5 0.5t101.5 3.5z"/><path transform="translate(77.834 9.8438) scale(.0068359 -.0068359)" d="m1284 1354-470-768 14-566h-514l12 562-366 742 510 64 160-432 174 432z"/></svg>