<svg width="102" height="11" viewBox="0 0 102 11" fill="none" xmlns="http://www.w3.org/2000/svg">
<path d="M0.5 9.51C0.5 8.81667 0.6 8.13333 0.8 7.46C1.00667 6.78 1.18667 6.11 1.34 5.45C1.44667 4.99 1.53667 4.53 1.61 4.07C1.69 3.60333 1.73 3.13667 1.73 2.67C1.73 2.31 1.69 1.95 1.61 1.59C1.53 1.23 1.38 0.903333 1.16 0.61C1.31333 0.536666 1.49 0.463333 1.69 0.39C1.89 0.316667 2.07667 0.28 2.25 0.28C2.63667 0.28 2.89667 0.406667 3.03 0.66C3.16333 0.913333 3.23 1.20667 3.23 1.54C3.23 2.18667 3.14 2.84 2.96 3.5C2.77333 4.16667 2.61667 4.81667 2.49 5.45C2.49 5.45667 2.48667 5.46333 2.48 5.47C2.48 5.47 2.48 5.47333 2.48 5.48C2.36 6.04667 2.23333 6.61667 2.1 7.19C1.97333 7.76333 1.91 8.34 1.91 8.92C1.91 9.09333 1.91333 9.24667 1.92 9.38C2.48667 9.40667 3.05 9.42333 3.61 9.43C4.17667 9.43667 4.74 9.44 5.3 9.44C5.45333 9.44 5.65 9.44 5.89 9.44C6.13 9.44 6.38 9.43333 6.64 9.42C6.90667 9.41333 7.15333 9.4 7.38 9.38C7.61333 9.35333 7.79333 9.32 7.92 9.28C7.87333 9.73333 7.75 10.0633 7.55 10.27C7.34333 10.4833 7.08333 10.6167 6.77 10.67C6.45667 10.7233 6.11 10.75 5.73 10.75C5.20333 10.75 4.67667 10.7267 4.15 10.68C3.62333 10.6333 3.09667 10.5833 2.57 10.53C2.51 10.5233 2.44667 10.5133 2.38 10.5C2.30667 10.4933 2.24667 10.4867 2.2 10.48C1.96 10.64 1.71 10.72 1.45 10.72C1.07667 10.72 0.826667 10.6 0.7 10.36C0.566667 10.12 0.5 9.83667 0.5 9.51ZM11.22 10.81C10.5467 10.81 10.06 10.64 9.76 10.3C9.46667 9.96 9.32 9.46667 9.32 8.82C9.32 8.38 9.36333 7.94667 9.45 7.52C9.53667 7.08667 9.62667 6.65667 9.72 6.23C9.80667 5.80333 9.85 5.37 9.85 4.93C9.85 4.59667 9.80333 4.28 9.71 3.98C9.61667 3.68667 9.46 3.41 9.24 3.15C9.4 3.07 9.58 2.99333 9.78 2.92C9.98 2.84667 10.17 2.81 10.35 2.81C10.6767 2.81 10.9133 2.89333 11.06 3.06C11.2067 3.22667 11.28 3.46333 11.28 3.77C11.28 3.91667 11.2667 4.06333 11.24 4.21C11.22 4.35667 11.1967 4.50333 11.17 4.65C11.0567 5.21667 10.9267 5.81667 10.78 6.45C10.6267 7.09 10.55 7.69667 10.55 8.27C10.55 8.75 10.65 9.06333 10.85 9.21C11.0433 9.36333 11.3667 9.44 11.82 9.44C12.22 9.44 12.6067 9.32333 12.98 9.09C13.3467 8.85667 13.6967 8.56 14.03 8.2C14.3567 7.84 14.65 7.46667 14.91 7.08C15.17 6.69333 15.38 6.34333 15.54 6.03C15.6133 5.88333 15.7 5.70667 15.8 5.5C15.9 5.28667 15.99 5.07 16.07 4.85C16.1433 4.63 16.18 4.44333 16.18 4.29C16.18 4.08333 16.1333 3.88 16.04 3.68C15.94 3.48 15.83 3.29667 15.71 3.13C15.87 3.05667 16.05 2.98333 16.25 2.91C16.45 2.84333 16.6333 2.81 16.8 2.81C17.14 2.81 17.3833 2.89667 17.53 3.07C17.6767 3.25 17.75 3.50333 17.75 3.83C17.75 4.21 17.7 4.59333 17.6 4.98C17.5 5.37333 17.4 5.76667 17.3 6.16C17.2067 6.56 17.16 6.96333 17.16 7.37C17.16 7.89 17.25 8.38667 17.43 8.86C17.6167 9.34 17.8967 9.76333 18.27 10.13C18.15 10.23 17.9767 10.35 17.75 10.49C17.5233 10.6367 17.33 10.71 17.17 10.71C16.8167 10.71 16.5433 10.5967 16.35 10.37C16.1567 10.1433 16.0267 9.85333 15.96 9.5C15.8867 9.14 15.8533 8.75667 15.86 8.35C15.8667 7.95 15.8933 7.57 15.94 7.21C15.9867 6.84333 16.0267 6.54667 16.06 6.32C15.88 6.59333 15.6567 6.92333 15.39 7.31C15.1233 7.69667 14.8233 8.09 14.49 8.49C14.1633 8.89667 13.8167 9.27667 13.45 9.63C13.0833 9.98333 12.71 10.2667 12.33 10.48C11.95 10.7 11.58 10.81 11.22 10.81ZM20.92 10.71C20.6733 10.71 20.49 10.64 20.37 10.5C20.2567 10.36 20.1833 10.1867 20.15 9.98C20.1233 9.77333 20.11 9.57333 20.11 9.38C20.11 8.89333 20.1567 8.41333 20.25 7.94C20.3433 7.46 20.4367 6.98333 20.53 6.51C20.6167 6.03 20.66 5.54667 20.66 5.06C20.66 4.72667 20.6233 4.39333 20.55 4.06C20.4767 3.73333 20.34 3.43 20.14 3.15C20.2867 3.05667 20.4533 2.97667 20.64 2.91C20.82 2.84333 21 2.81 21.18 2.81C21.5467 2.81 21.7933 2.93333 21.92 3.18C22.0533 3.42 22.12 3.7 22.12 4.02C22.12 4.49333 22.08 4.96 22 5.42C21.9133 5.88 21.8333 6.34 21.76 6.8C21.9067 6.57333 22.09 6.29 22.31 5.95C22.5367 5.61 22.7867 5.25333 23.06 4.88C23.34 4.50667 23.6367 4.15667 23.95 3.83C24.2633 3.50333 24.58 3.23667 24.9 3.03C25.22 2.82333 25.5333 2.72 25.84 2.72C26.2733 2.72 26.6067 2.82 26.84 3.02C27.08 3.21333 27.2467 3.46667 27.34 3.78C27.44 4.1 27.49 4.44667 27.49 4.82C27.49 5.13333 27.4867 5.44667 27.48 5.76C27.4733 6.07333 27.44 6.38333 27.38 6.69C27.5067 6.43667 27.6767 6.14 27.89 5.8C28.0967 5.46 28.3333 5.11 28.6 4.75C28.8667 4.39 29.1567 4.05667 29.47 3.75C29.7767 3.44333 30.1 3.19667 30.44 3.01C30.7733 2.81667 31.11 2.72 31.45 2.72C31.8767 2.72 32.2 2.81 32.42 2.99C32.6467 3.16333 32.8033 3.4 32.89 3.7C32.9767 4 33.02 4.33333 33.02 4.7C33.02 5.24 32.98 5.77333 32.9 6.3C32.8133 6.82667 32.77 7.36 32.77 7.9C32.77 8.32667 32.8333 8.73333 32.96 9.12C33.0867 9.50667 33.3233 9.84 33.67 10.12C33.5367 10.2267 33.36 10.35 33.14 10.49C32.9133 10.6367 32.7133 10.71 32.54 10.71C32.28 10.71 32.0733 10.64 31.92 10.5C31.7667 10.36 31.65 10.1833 31.57 9.97C31.4967 9.75 31.4467 9.52333 31.42 9.29C31.3933 9.05 31.38 8.83333 31.38 8.64C31.38 8.1 31.42 7.61 31.5 7.17C31.5867 6.73 31.6767 6.33667 31.77 5.99C31.8567 5.63667 31.8967 5.32667 31.89 5.06C31.8833 4.71333 31.7633 4.48667 31.53 4.38C31.2967 4.26667 31.0367 4.21 30.75 4.21C30.4633 4.21 30.1767 4.3 29.89 4.48C29.61 4.66 29.34 4.89333 29.08 5.18C28.8267 5.47333 28.59 5.78667 28.37 6.12C28.1567 6.45333 27.9667 6.78 27.8 7.1C27.6333 7.42 27.5033 7.7 27.41 7.94C27.23 8.38667 27.1367 8.82 27.13 9.24C27.1233 9.66 27.27 10.0867 27.57 10.52C27.4033 10.5667 27.2333 10.61 27.06 10.65C26.88 10.69 26.7033 10.71 26.53 10.71C26.2833 10.71 26.1033 10.64 25.99 10.5C25.8767 10.36 25.8033 10.1867 25.77 9.98C25.7367 9.77333 25.72 9.57667 25.72 9.39C25.72 8.92333 25.7667 8.46333 25.86 8.01C25.9533 7.55 26.0467 7.09 26.14 6.63C26.2333 6.17 26.28 5.70333 26.28 5.23C26.28 4.78333 26.1967 4.50333 26.03 4.39C25.87 4.27 25.5767 4.21 25.15 4.21C24.8633 4.21 24.5767 4.3 24.29 4.48C24.01 4.66 23.74 4.89667 23.48 5.19C23.2267 5.47667 22.99 5.79 22.77 6.13C22.55 6.46333 22.3567 6.79333 22.19 7.12C22.0233 7.44 21.8933 7.71667 21.8 7.95C21.6067 8.41667 21.51 8.84667 21.51 9.24C21.51 9.63333 21.66 10.06 21.96 10.52C21.7933 10.5667 21.6233 10.61 21.45 10.65C21.2767 10.69 21.1 10.71 20.92 10.71ZM41.9 8.34V7.09C41.7333 7.33 41.5233 7.61333 41.27 7.94C41.0233 8.26 40.74 8.58667 40.42 8.92C40.1067 9.25333 39.7667 9.56 39.4 9.84C39.0333 10.12 38.6533 10.35 38.26 10.53C37.86 10.7033 37.46 10.79 37.06 10.79C36.48 10.79 36.0033 10.6533 35.63 10.38C35.2567 10.1133 34.9833 9.75333 34.81 9.3C34.63 8.85333 34.54 8.36667 34.54 7.84C34.54 7.13333 34.6633 6.47 34.91 5.85C35.1567 5.22333 35.5033 4.67333 35.95 4.2C36.3967 3.72667 36.9233 3.35667 37.53 3.09C38.1367 2.81667 38.8033 2.68 39.53 2.68C39.87 2.68 40.2267 2.72667 40.6 2.82C40.9733 2.91333 41.3233 3.03333 41.65 3.18C41.9833 3.32667 42.26 3.49 42.48 3.67C42.5467 3.43 42.6367 3.22333 42.75 3.05C42.87 2.87667 43.0267 2.79 43.22 2.79C43.3467 2.79 43.4767 2.82333 43.61 2.89C43.7433 2.95667 43.86 3.02333 43.96 3.09C43.6533 3.64333 43.45 4.26 43.35 4.94C43.2567 5.62 43.21 6.27 43.21 6.89C43.21 7.33667 43.2367 7.74333 43.29 8.11C43.3433 8.47667 43.45 8.82333 43.61 9.15C43.7767 9.47667 44.0267 9.8 44.36 10.12C44.2333 10.22 44.0567 10.3433 43.83 10.49C43.61 10.6367 43.4167 10.71 43.25 10.71C42.95 10.71 42.71 10.63 42.53 10.47C42.35 10.3167 42.2167 10.1133 42.13 9.86C42.0367 9.61333 41.9767 9.35667 41.95 9.09C41.9167 8.81667 41.9 8.56667 41.9 8.34ZM35.84 7.12C35.84 7.52667 35.9033 7.89333 36.03 8.22C36.15 8.55333 36.35 8.81667 36.63 9.01C36.9033 9.20333 37.2633 9.3 37.71 9.3C38.0767 9.3 38.4467 9.2 38.82 9C39.2 8.8 39.5667 8.53667 39.92 8.21C40.2733 7.87667 40.6 7.51667 40.9 7.13C41.2067 6.74333 41.47 6.36 41.69 5.98C41.9167 5.6 42.0867 5.26333 42.2 4.97C42.2133 4.87667 42.23 4.78333 42.25 4.69C42.2767 4.60333 42.2967 4.51 42.31 4.41C42.0833 4.21667 41.8167 4.07333 41.51 3.98C41.1967 3.88667 40.8733 3.82667 40.54 3.8C40.2 3.77333 39.88 3.76 39.58 3.76C38.8867 3.76 38.2567 3.88667 37.69 4.14C37.1233 4.4 36.6733 4.78 36.34 5.28C36.0067 5.78 35.84 6.39333 35.84 7.12ZM48.36 4.24C48.36 4.64 48.33 5.03667 48.27 5.43C48.2033 5.81667 48.1333 6.20667 48.06 6.6C48.3533 6.15333 48.6867 5.70333 49.06 5.25C49.4333 4.79667 49.8367 4.38 50.27 4C50.7033 3.62 51.1533 3.31333 51.62 3.08C52.08 2.84667 52.5467 2.72667 53.02 2.72C53.6867 2.72 54.1533 2.90667 54.42 3.28C54.6867 3.66 54.82 4.15333 54.82 4.76C54.82 5.26 54.77 5.76 54.67 6.26C54.5633 6.75333 54.51 7.25333 54.51 7.76C54.51 8.22 54.5867 8.65667 54.74 9.07C54.8933 9.48333 55.1567 9.83667 55.53 10.13C55.4433 10.19 55.33 10.2667 55.19 10.36C55.0433 10.4533 54.8967 10.5333 54.75 10.6C54.5967 10.6733 54.4667 10.71 54.36 10.71C54.0867 10.71 53.8667 10.64 53.7 10.5C53.54 10.36 53.42 10.18 53.34 9.96C53.2533 9.74 53.1967 9.51 53.17 9.27C53.1433 9.02333 53.13 8.8 53.13 8.6C53.13 8.14667 53.17 7.71333 53.25 7.3C53.3367 6.88667 53.4233 6.49667 53.51 6.13C53.5967 5.75667 53.64 5.40667 53.64 5.08C53.64 4.82667 53.5733 4.64 53.44 4.52C53.3067 4.4 53.14 4.32 52.94 4.28C52.7333 4.23333 52.5333 4.21 52.34 4.21C51.9333 4.21 51.5133 4.33 51.08 4.57C50.6467 4.81 50.23 5.12667 49.83 5.52C49.4233 5.91333 49.06 6.34 48.74 6.8C48.4267 7.26667 48.1833 7.72667 48.01 8.18C47.8367 8.63333 47.7667 9.04 47.8 9.4C47.84 9.60667 47.92 9.81 48.04 10.01C48.16 10.21 48.2867 10.3833 48.42 10.53C48.2333 10.5767 48.0467 10.6167 47.86 10.65C47.6733 10.69 47.4833 10.71 47.29 10.71C47.0367 10.71 46.85 10.6367 46.73 10.49C46.6033 10.3433 46.52 10.1633 46.48 9.95C46.4333 9.73667 46.41 9.53 46.41 9.33C46.41 8.88333 46.4533 8.43333 46.54 7.98C46.6267 7.52667 46.7133 7.07333 46.8 6.62C46.8867 6.16667 46.93 5.70667 46.93 5.24C46.93 4.86 46.8833 4.49 46.79 4.13C46.6967 3.77 46.5233 3.44 46.27 3.14C46.43 3.06667 46.61 2.99333 46.81 2.92C47.0167 2.84667 47.2067 2.81 47.38 2.81C47.6533 2.81 47.86 2.88333 48 3.03C48.14 3.17 48.2367 3.35333 48.29 3.58C48.3367 3.8 48.36 4.02 48.36 4.24ZM60.26 10.82C59.6267 10.82 59.0567 10.6933 58.55 10.44C58.0433 10.1933 57.6433 9.83667 57.35 9.37C57.0567 8.89667 56.91 8.33333 56.91 7.68C56.91 7 57.0467 6.35667 57.32 5.75C57.5933 5.15 57.9667 4.62 58.44 4.16C58.9067 3.7 59.4467 3.34 60.06 3.08C60.6667 2.81333 61.3067 2.68 61.98 2.68C62.6133 2.68 63.18 2.80667 63.68 3.06C64.18 3.30667 64.5767 3.66333 64.87 4.13C65.1633 4.60333 65.31 5.16667 65.31 5.82C65.31 6.50667 65.1767 7.15 64.91 7.75C64.6367 8.35 64.2667 8.88 63.8 9.34C63.3267 9.8 62.7867 10.1633 62.18 10.43C61.58 10.69 60.94 10.82 60.26 10.82ZM61.1 9.69C61.7333 9.69 62.2633 9.54333 62.69 9.25C63.1233 8.95 63.45 8.55333 63.67 8.06C63.89 7.57333 64 7.03333 64 6.44C64 5.84667 63.87 5.36 63.61 4.98C63.35 4.59333 63 4.30333 62.56 4.11C62.12 3.92333 61.6267 3.83 61.08 3.83C60.4733 3.83 59.96 3.97333 59.54 4.26C59.1133 4.54667 58.79 4.93 58.57 5.41C58.35 5.89 58.24 6.41667 58.24 6.99C58.24 7.87667 58.5033 8.55 59.03 9.01C59.5633 9.46333 60.2533 9.69 61.1 9.69ZM68.19 10.78C67.9833 10.78 67.75 10.76 67.49 10.72C67.23 10.6733 66.98 10.6 66.74 10.5C66.5 10.4 66.3033 10.2633 66.15 10.09C65.9967 9.91667 65.92 9.69333 65.92 9.42C65.92 9.23333 65.96 9.03667 66.04 8.83C66.12 8.62333 66.2533 8.47667 66.44 8.39C66.5667 8.85 66.8333 9.19 67.24 9.41C67.6467 9.63667 68.0733 9.75 68.52 9.75C68.6867 9.75 68.8867 9.72667 69.12 9.68C69.3467 9.63333 69.5467 9.55 69.72 9.43C69.8933 9.31 69.98 9.14333 69.98 8.93C69.98 8.71 69.8933 8.49667 69.72 8.29C69.5467 8.09 69.3467 7.90667 69.12 7.74C68.8867 7.57333 68.6867 7.43667 68.52 7.33C68.24 7.13667 67.9633 6.93667 67.69 6.73C67.4233 6.52333 67.2033 6.28667 67.03 6.02C66.8567 5.74667 66.77 5.42 66.77 5.04C66.77 4.46 66.92 3.99667 67.22 3.65C67.52 3.30333 67.9 3.05667 68.36 2.91C68.8267 2.75667 69.31 2.68 69.81 2.68C70.0367 2.68 70.2733 2.70667 70.52 2.76C70.7733 2.81333 70.9867 2.91333 71.16 3.06C71.34 3.21333 71.43 3.43333 71.43 3.72C71.43 3.9 71.3867 4.09333 71.3 4.3C71.22 4.51333 71.09 4.65667 70.91 4.73C70.7433 4.37667 70.4967 4.13 70.17 3.99C69.8367 3.84333 69.4867 3.77 69.12 3.77C68.9733 3.77 68.8033 3.79 68.61 3.83C68.4167 3.86333 68.2433 3.93 68.09 4.03C67.9433 4.12333 67.87 4.26333 67.87 4.45C67.87 4.65667 67.9567 4.86 68.13 5.06C68.3033 5.26 68.5033 5.44333 68.73 5.61C68.9633 5.77667 69.1567 5.91 69.31 6.01C69.5967 6.20333 69.8767 6.40667 70.15 6.62C70.43 6.83333 70.66 7.07667 70.84 7.35C71.02 7.62333 71.11 7.95667 71.11 8.35C71.11 8.90333 70.97 9.36 70.69 9.72C70.4167 10.08 70.0567 10.3467 69.61 10.52C69.17 10.6933 68.6967 10.78 68.19 10.78ZM74.07 3.65C73.93 3.71667 73.7633 3.78333 73.57 3.85C73.3767 3.91 73.18 3.93667 72.98 3.93C72.7733 3.93 72.5833 3.86 72.41 3.72C72.2367 3.58 72.0967 3.34 71.99 3C72.51 3.02 72.9633 2.99333 73.35 2.92C73.73 2.84667 74.13 2.81 74.55 2.81C74.79 2.81 74.97 2.86333 75.09 2.97C75.21 3.07667 75.2867 3.21333 75.32 3.38C75.36 3.54667 75.3733 3.72333 75.36 3.91C75.3467 4.09 75.3333 4.25667 75.32 4.41C75.2933 4.69667 75.2367 5.04 75.15 5.44C75.0633 5.83333 74.9767 6.23333 74.89 6.64C74.8567 6.78 74.8133 6.97333 74.76 7.22C74.7 7.46667 74.65 7.73 74.61 8.01C74.57 8.29 74.5567 8.56 74.57 8.82C74.59 9.07333 74.6567 9.28 74.77 9.44C74.8767 9.6 75.0567 9.68 75.31 9.68C75.4967 9.68 75.72 9.67333 75.98 9.66C76.24 9.64667 76.4933 9.60667 76.74 9.54C76.9867 9.47333 77.18 9.37 77.32 9.23L77.33 9.22V9.24C77.33 9.64667 77.2133 9.96333 76.98 10.19C76.74 10.41 76.4467 10.5667 76.1 10.66C75.7533 10.7533 75.4133 10.8 75.08 10.8C74.5333 10.8 74.1167 10.7033 73.83 10.51C73.55 10.3167 73.3667 10.06 73.28 9.74C73.1933 9.42 73.17 9.06667 73.21 8.68C73.25 8.29333 73.3167 7.90333 73.41 7.51C73.51 7.11 73.6 6.74333 73.68 6.41C73.7867 5.97667 73.8833 5.53333 73.97 5.08C74.05 4.62667 74.0833 4.15 74.07 3.65ZM74.76 2.18C74.4733 2.18 74.26 2.12333 74.12 2.01C73.9867 1.89 73.92 1.68333 73.92 1.39C73.92 1.19667 73.9367 1.00333 73.97 0.81C74.01 0.616667 74.0567 0.426666 74.11 0.24C74.2833 0.18 74.46 0.126667 74.64 0.0799999C74.8267 0.0266666 75.0133 0 75.2 0C75.4733 0 75.6933 0.0633334 75.86 0.19C76.0267 0.31 76.11 0.52 76.11 0.82C76.11 1.02 76.0767 1.21333 76.01 1.4C75.95 1.59333 75.88 1.78 75.8 1.96C75.6333 2.02 75.4633 2.07333 75.29 2.12C75.1167 2.16 74.94 2.18 74.76 2.18ZM79.94 10.71C79.6933 10.71 79.51 10.64 79.39 10.5C79.2767 10.36 79.2067 10.1867 79.18 9.98C79.1467 9.77333 79.13 9.57333 79.13 9.38C79.13 8.89333 79.1767 8.41333 79.27 7.94C79.3633 7.46 79.4567 6.98333 79.55 6.51C79.6367 6.03 79.68 5.54667 79.68 5.06C79.68 4.72667 79.6433 4.39333 79.57 4.06C79.4967 3.73333 79.36 3.43 79.16 3.15C79.3067 3.05667 79.4733 2.97667 79.66 2.91C79.84 2.84333 80.02 2.81 80.2 2.81C80.5667 2.81 80.8167 2.93333 80.95 3.18C81.0767 3.42 81.14 3.7 81.14 4.02C81.14 4.49333 81.1 4.96 81.02 5.42C80.9333 5.88 80.8567 6.34 80.79 6.8C80.93 6.57333 81.11 6.29 81.33 5.95C81.5567 5.61 81.8067 5.25333 82.08 4.88C82.36 4.50667 82.6567 4.15667 82.97 3.83C83.2833 3.50333 83.6 3.23667 83.92 3.03C84.24 2.82333 84.5533 2.72 84.86 2.72C85.2933 2.72 85.6267 2.82 85.86 3.02C86.1 3.21333 86.2667 3.46667 86.36 3.78C86.46 4.1 86.51 4.44667 86.51 4.82C86.51 5.13333 86.5067 5.44667 86.5 5.76C86.4933 6.07333 86.46 6.38333 86.4 6.69C86.5333 6.43667 86.7033 6.14 86.91 5.8C87.1167 5.46 87.3533 5.11 87.62 4.75C87.8867 4.39 88.1767 4.05667 88.49 3.75C88.7967 3.44333 89.12 3.19667 89.46 3.01C89.7933 2.81667 90.13 2.72 90.47 2.72C90.8967 2.72 91.2233 2.81 91.45 2.99C91.67 3.16333 91.8233 3.4 91.91 3.7C91.9967 4 92.04 4.33333 92.04 4.7C92.04 5.24 92 5.77333 91.92 6.3C91.8333 6.82667 91.79 7.36 91.79 7.9C91.79 8.32667 91.8533 8.73333 91.98 9.12C92.1067 9.50667 92.3433 9.84 92.69 10.12C92.5567 10.2267 92.38 10.35 92.16 10.49C91.94 10.6367 91.7433 10.71 91.57 10.71C91.31 10.71 91.1 10.64 90.94 10.5C90.7867 10.36 90.67 10.1833 90.59 9.97C90.5167 9.75 90.4667 9.52333 90.44 9.29C90.4133 9.05 90.4 8.83333 90.4 8.64C90.4 8.1 90.4433 7.61 90.53 7.17C90.6167 6.73 90.7033 6.33667 90.79 5.99C90.8767 5.63667 90.9167 5.32667 90.91 5.06C90.9033 4.71333 90.7833 4.48667 90.55 4.38C90.3233 4.26667 90.0633 4.21 89.77 4.21C89.4833 4.21 89.1967 4.3 88.91 4.48C88.63 4.66 88.36 4.89333 88.1 5.18C87.8467 5.47333 87.61 5.78667 87.39 6.12C87.1767 6.45333 86.9867 6.78 86.82 7.1C86.66 7.42 86.53 7.7 86.43 7.94C86.25 8.38667 86.1567 8.82 86.15 9.24C86.1433 9.66 86.2933 10.0867 86.6 10.52C86.4267 10.5667 86.2533 10.61 86.08 10.65C85.9067 10.69 85.73 10.71 85.55 10.71C85.3033 10.71 85.1233 10.64 85.01 10.5C84.8967 10.36 84.8233 10.1867 84.79 9.98C84.7567 9.77333 84.74 9.57667 84.74 9.39C84.74 8.92333 84.7867 8.46333 84.88 8.01C84.9733 7.55 85.0667 7.09 85.16 6.63C85.2533 6.17 85.3 5.70333 85.3 5.23C85.3 4.78333 85.2167 4.50333 85.05 4.39C84.89 4.27 84.6 4.21 84.18 4.21C83.8867 4.21 83.5967 4.3 83.31 4.48C83.03 4.66 82.76 4.89667 82.5 5.19C82.2467 5.47667 82.01 5.79 81.79 6.13C81.57 6.46333 81.3767 6.79333 81.21 7.12C81.0433 7.44 80.9133 7.71667 80.82 7.95C80.6267 8.41667 80.53 8.84667 80.53 9.24C80.53 9.63333 80.68 10.06 80.98 10.52C80.8133 10.5667 80.6433 10.61 80.47 10.65C80.2967 10.69 80.12 10.71 79.94 10.71ZM96.9 10.82C96.2667 10.82 95.7 10.6933 95.2 10.44C94.6933 10.1933 94.2933 9.83667 94 9.37C93.7067 8.89667 93.56 8.33333 93.56 7.68C93.56 7 93.6967 6.35667 93.97 5.75C94.2433 5.15 94.6133 4.62 95.08 4.16C95.5533 3.7 96.0933 3.34 96.7 3.08C97.3133 2.81333 97.9567 2.68 98.63 2.68C99.2633 2.68 99.83 2.80667 100.33 3.06C100.83 3.30667 101.227 3.66333 101.52 4.13C101.813 4.60333 101.96 5.16667 101.96 5.82C101.96 6.50667 101.823 7.15 101.55 7.75C101.283 8.35 100.917 8.88 100.45 9.34C99.9767 9.8 99.4367 10.1633 98.83 10.43C98.2233 10.69 97.58 10.82 96.9 10.82ZM97.75 9.69C98.3833 9.69 98.9133 9.54333 99.34 9.25C99.7733 8.95 100.1 8.55333 100.32 8.06C100.533 7.57333 100.64 7.03333 100.64 6.44C100.64 5.84667 100.513 5.36 100.26 4.98C100 4.59333 99.65 4.30333 99.21 4.11C98.77 3.92333 98.2733 3.83 97.72 3.83C97.12 3.83 96.61 3.97333 96.19 4.26C95.7633 4.54667 95.44 4.93 95.22 5.41C95 5.89 94.89 6.41667 94.89 6.99C94.89 7.87667 95.1533 8.55 95.68 9.01C96.2067 9.46333 96.8967 9.69 97.75 9.69Z" fill="black"/>
</svg>
