<svg width="46" height="11" viewBox="0 0 46 11" fill="none" xmlns="http://www.w3.org/2000/svg">
<path d="M2.89 1.49V9.08C2.89 9.28 2.95333 9.43667 3.08 9.55C3.20667 9.67 3.37333 9.73 3.58 9.73H5.61C6.10333 9.73 6.52667 9.61 6.88 9.37C7.24 9.13 7.48333 8.78333 7.61 8.33C7.65667 8.17667 7.75667 8.1 7.91 8.1C8.05667 8.1 8.12 8.18333 8.1 8.35L7.88 9.81C7.86 9.97 7.79333 10.1033 7.68 10.21C7.56667 10.3167 7.42333 10.37 7.25 10.37H2.28L0.7 10.43C0.566667 10.43 0.5 10.3667 0.5 10.24C0.5 10.1133 0.55 10.05 0.65 10.05L1.06 10.02C1.24667 10 1.4 9.94 1.52 9.84C1.64 9.74667 1.7 9.61667 1.7 9.45V1.49C1.7 1.15667 1.48667 0.97 1.06 0.93L0.65 0.89C0.55 0.87 0.5 0.81 0.5 0.71C0.5 0.576667 0.566667 0.51 0.7 0.51L2.28 0.57L3.66 0.51C3.8 0.51 3.87 0.566666 3.87 0.68C3.87 0.813333 3.81 0.883333 3.69 0.89L3.45 0.93C3.07667 0.996666 2.89 1.18333 2.89 1.49ZM15.89 3.96V9.1C15.89 9.39333 15.9833 9.63333 16.17 9.82C16.3567 10 16.58 10.09 16.84 10.09C16.98 10.09 17.05 10.1467 17.05 10.26C17.05 10.4333 16.8667 10.52 16.5 10.52C15.9533 10.52 15.4733 10.2933 15.06 9.84C15.0333 9.81333 15.0067 9.78 14.98 9.74C14.9467 9.7 14.9233 9.66667 14.91 9.64C14.87 9.59333 14.83 9.57 14.79 9.57C14.7433 9.57 14.68 9.60667 14.6 9.68C13.9667 10.24 13.2467 10.52 12.44 10.52C11.6267 10.52 10.98 10.2867 10.5 9.82C10.0133 9.35333 9.77 8.69333 9.77 7.84V4.29C9.77 4.10333 9.73 3.97333 9.65 3.9C9.57 3.82667 9.44667 3.79 9.28 3.79H8.8C8.75333 3.79 8.71 3.77 8.67 3.73C8.63 3.69667 8.61 3.65 8.61 3.59C8.61 3.48333 8.67333 3.42 8.8 3.4L10.65 3.22C10.6767 3.22 10.7 3.22 10.72 3.22C10.9067 3.22 11 3.29333 11 3.44C11 3.46 10.9767 3.51667 10.93 3.61C10.8833 3.70333 10.86 3.82 10.86 3.96V8.06C10.86 8.64 11.04 9.09333 11.4 9.42C11.76 9.75333 12.2233 9.92 12.79 9.92C13.35 9.92 13.8233 9.71 14.21 9.29C14.5967 8.87 14.79 8.39333 14.79 7.86V4.29C14.79 4.10333 14.7533 3.97333 14.68 3.9C14.6 3.82667 14.4733 3.79 14.3 3.79H13.69C13.6433 3.79 13.6 3.77 13.56 3.73C13.5133 3.69667 13.49 3.65 13.49 3.59C13.49 3.48333 13.5567 3.42 13.69 3.4L15.65 3.22C15.67 3.22 15.6933 3.22 15.72 3.22C15.9067 3.22 16 3.29333 16 3.44C16 3.46 15.98 3.51667 15.94 3.61C15.9067 3.70333 15.89 3.82 15.89 3.96ZM22.75 8.56C22.75 9.15333 22.5133 9.63 22.04 9.99C21.5667 10.3433 20.9933 10.52 20.32 10.52C19.64 10.52 19.0767 10.4433 18.63 10.29C18.1833 10.13 17.96 9.95 17.96 9.75V8.54C17.96 8.36667 18.0233 8.28 18.15 8.28C18.2767 8.28 18.3633 8.36667 18.41 8.54C18.6967 9.5 19.3033 9.98 20.23 9.98C20.65 9.98 20.9933 9.87333 21.26 9.66C21.5333 9.45333 21.67 9.19 21.67 8.87C21.67 8.55667 21.5433 8.28333 21.29 8.05C21.0367 7.82333 20.73 7.62667 20.37 7.46C20.01 7.29333 19.65 7.11667 19.29 6.93C18.9367 6.74333 18.6333 6.50333 18.38 6.21C18.1267 5.91 18 5.57 18 5.19C18 4.62333 18.22 4.15333 18.66 3.78C19.1 3.40667 19.6833 3.22 20.41 3.22C20.8967 3.22 21.34 3.3 21.74 3.46C22.14 3.62667 22.34 3.80333 22.34 3.99V5.06C22.34 5.23333 22.2733 5.32 22.14 5.32C22.0133 5.32 21.93 5.23333 21.89 5.06C21.6367 4.19333 21.11 3.76 20.31 3.76C19.9433 3.76 19.6367 3.85 19.39 4.03C19.1367 4.21667 19.01 4.46 19.01 4.76C19.01 5.06667 19.1367 5.33667 19.39 5.57C19.65 5.80333 19.9633 6.00667 20.33 6.18C20.6967 6.35333 21.0633 6.53333 21.43 6.72C21.7967 6.91333 22.1067 7.16667 22.36 7.48C22.62 7.79333 22.75 8.15333 22.75 8.56ZM28.42 9.7C28.42 9.87333 28.23 10.0533 27.85 10.24C27.47 10.4267 27.09 10.52 26.71 10.52C26.03 10.52 25.54 10.36 25.24 10.04C24.9467 9.72 24.8 9.18 24.8 8.42V4.22C24.8 4.12 24.74 4.07 24.62 4.07H23.77C23.7233 4.07 23.68 4.05333 23.64 4.02C23.6067 3.98667 23.5933 3.94667 23.6 3.9L23.64 3.54C23.66 3.42667 23.7167 3.37 23.81 3.37H24.65C24.7367 3.37 24.78 3.32 24.78 3.22L24.9 1.27C24.9133 1.09 25.0033 1 25.17 1C25.2967 1 25.3833 1.07 25.43 1.21L25.9 3.19C25.9267 3.31 25.9967 3.37 26.11 3.37H28.19C28.3233 3.37 28.3767 3.42667 28.35 3.54L28.3 3.9C28.2867 4.01333 28.2333 4.07 28.14 4.07H26.01C25.9367 4.07 25.9 4.12 25.9 4.22V8.56C25.9 9.44 26.24 9.88 26.92 9.88C27.2267 9.88 27.53 9.82333 27.83 9.71L28.28 9.54C28.3733 9.54 28.42 9.59333 28.42 9.7ZM30.78 3.22C30.9333 3.22 31.01 3.32667 31.01 3.54V4.29C31.01 4.33667 31.0267 4.36 31.06 4.36C31.1 4.36 31.1433 4.33333 31.19 4.28C31.4033 4.00667 31.7 3.76333 32.08 3.55C32.4533 3.33 32.79 3.22 33.09 3.22C33.3833 3.22 33.6067 3.25 33.76 3.31C33.92 3.37667 34 3.45333 34 3.54V4.62C34 4.76 33.9367 4.83 33.81 4.83C33.73 4.83 33.63 4.76 33.51 4.62C33.25 4.3 32.9133 4.14 32.5 4.14C32.08 4.14 31.7267 4.33667 31.44 4.73C31.1533 5.12333 31.01 5.68667 31.01 6.42V9.45C31.01 9.78333 31.2567 9.97 31.75 10.01L32.32 10.05C32.4333 10.0567 32.49 10.12 32.49 10.24C32.49 10.3667 32.42 10.43 32.28 10.43L30.43 10.37L28.92 10.43C28.78 10.43 28.71 10.3667 28.71 10.24C28.71 10.12 28.7667 10.0567 28.88 10.05L29.27 10.02C29.4567 10 29.61 9.94 29.73 9.84C29.85 9.74667 29.91 9.61667 29.91 9.45V4.32C29.91 4.13333 29.87 4.00667 29.79 3.94C29.7167 3.86667 29.59 3.83 29.41 3.83H28.93C28.81 3.83 28.75 3.77 28.75 3.65C28.75 3.53 28.81 3.46 28.93 3.44L30.75 3.22C30.7633 3.22 30.7733 3.22 30.78 3.22ZM37.28 10.02L37.52 10.05C37.6267 10.0567 37.68 10.12 37.68 10.24C37.68 10.3667 37.61 10.43 37.47 10.43L36.14 10.37L34.63 10.43C34.49 10.43 34.42 10.3667 34.42 10.24C34.42 10.12 34.4767 10.0567 34.59 10.05L34.98 10.02C35.1667 10 35.32 9.94 35.44 9.84C35.5667 9.74667 35.63 9.61667 35.63 9.45V4.32C35.63 4.13333 35.59 4.00667 35.51 3.94C35.43 3.86667 35.3 3.83 35.12 3.83H34.65C34.5233 3.83 34.46 3.77 34.46 3.65C34.46 3.53 34.5233 3.46 34.65 3.44L36.47 3.22C36.6367 3.2 36.72 3.30667 36.72 3.54V9.45C36.72 9.78333 36.9067 9.97333 37.28 10.02ZM35.58 1.1C35.4533 0.98 35.39 0.826667 35.39 0.64C35.39 0.453333 35.4533 0.3 35.58 0.18C35.7067 0.0599998 35.8633 0 36.05 0C36.2367 0 36.3933 0.0599998 36.52 0.18C36.6533 0.3 36.72 0.453333 36.72 0.64C36.72 0.826667 36.6533 0.98 36.52 1.1C36.3933 1.22 36.2367 1.28 36.05 1.28C35.8633 1.28 35.7067 1.22 35.58 1.1ZM45.19 10.3C45.19 10.4467 45.02 10.52 44.68 10.52C44.1067 10.52 43.6167 10.2933 43.21 9.84C43.15 9.77333 43.1033 9.74 43.07 9.74C43.0367 9.74 42.9867 9.76667 42.92 9.82C42.3133 10.2867 41.6333 10.52 40.88 10.52C40.3467 10.52 39.88 10.3567 39.48 10.03C39.0733 9.69667 38.87 9.27 38.87 8.75C38.87 8.08333 39.16 7.57667 39.74 7.23C40.2533 6.93667 41.0567 6.70333 42.15 6.53C42.41 6.48333 42.5867 6.45333 42.68 6.44C42.8 6.42667 42.86 6.36 42.86 6.24V4.95C42.86 4.57 42.7333 4.26667 42.48 4.04C42.22 3.82 41.88 3.71 41.46 3.71C41.0333 3.71 40.65 3.84 40.31 4.1C39.97 4.36 39.7533 4.72333 39.66 5.19C39.6333 5.33 39.5567 5.4 39.43 5.4C39.3033 5.4 39.24 5.33 39.24 5.19V4.14C39.24 3.98 39.29 3.86333 39.39 3.79C39.8833 3.41 40.5933 3.22 41.52 3.22C42.4467 3.22 43.0967 3.42 43.47 3.82C43.8433 4.22 44.03 4.73667 44.03 5.37V9.11C44.03 9.41 44.1233 9.65333 44.31 9.84C44.5033 10.0267 44.73 10.12 44.99 10.12C45.1233 10.12 45.19 10.18 45.19 10.3ZM42.84 9V7.25C42.84 7.11 42.7767 7.04 42.65 7.04C42.6433 7.04 42.63 7.04 42.61 7.04C40.9433 7.24667 40.11 7.76 40.11 8.58C40.11 8.96 40.2333 9.26 40.48 9.48C40.7333 9.7 41.0167 9.81 41.33 9.81C41.6433 9.81 41.92 9.75 42.16 9.63C42.3933 9.51 42.5633 9.38667 42.67 9.26C42.7833 9.14 42.84 9.05333 42.84 9Z" fill="black"/>
</svg>
