<svg width="74" height="12" viewBox="0 0 74 12" fill="none" xmlns="http://www.w3.org/2000/svg">
<path d="M10.02 9.63C9.46 9.63 8.9 9.55333 8.34 9.4C7.78 9.24667 7.22333 9.05667 6.67 8.83C6.12333 8.59667 5.58333 8.37333 5.05 8.16C4.65 8.36667 4.21667 8.55333 3.75 8.72C3.28333 8.88 2.79667 8.97 2.29 8.99C1.67667 8.99 1.22333 8.87667 0.93 8.65C0.643333 8.43 0.5 8.16333 0.5 7.85C0.5 7.54333 0.643333 7.26 0.93 7C1.22333 6.74 1.62667 6.61 2.14 6.61C2.58667 6.61 3.05333 6.71333 3.54 6.92C4.02 7.12 4.52333 7.35667 5.05 7.63C5.40333 7.33 5.75333 6.99 6.1 6.61C6.45333 6.23667 6.80333 5.83333 7.15 5.4C6.89667 5.38667 6.62667 5.34 6.34 5.26C6.06 5.18 5.79333 5.07333 5.54 4.94C5.28667 4.8 5.08 4.63 4.92 4.43C4.75333 4.23 4.67 3.99333 4.67 3.72C4.67 3.41333 4.76 3.15 4.94 2.93C5.11333 2.71 5.34333 2.53 5.63 2.39C5.91667 2.25 6.22333 2.14667 6.55 2.08C6.88333 2.00667 7.20333 1.97 7.51 1.97C7.87667 1.97 8.22333 2 8.55 2.06C8.87667 2.12667 9.17333 2.21 9.44 2.31C9.78 1.89667 10.1367 1.51667 10.51 1.17C10.8833 0.816667 11.2733 0.533334 11.68 0.32C12.0867 0.106667 12.5067 0 12.94 0C13.3067 0 13.5767 0.0966666 13.75 0.29C13.9233 0.476667 14.01 0.72 14.01 1.02C14.01 1.39333 13.88 1.81333 13.62 2.28C13.3667 2.74667 12.9867 3.20333 12.48 3.65C11.98 4.10333 11.3633 4.48667 10.63 4.8C9.89667 5.12 9.05667 5.31667 8.11 5.39C7.73667 5.87667 7.34 6.33333 6.92 6.76C6.49333 7.19333 6.02333 7.56667 5.51 7.88C5.97 8.11333 6.43333 8.34667 6.9 8.58C7.37333 8.80667 7.86 8.99 8.36 9.13C8.86 9.27667 9.37 9.35 9.89 9.35C10.19 9.35 10.49 9.31 10.79 9.23C11.09 9.15 11.34 9.01 11.54 8.81C11.7467 8.61 11.85 8.33667 11.85 7.99C11.85 7.66333 11.7267 7.43 11.48 7.29C11.2333 7.15 10.9333 7.08 10.58 7.08C10.3333 7.08 10.07 7.12 9.79 7.2C9.50333 7.28 9.25667 7.39667 9.05 7.55C9.01667 7.57667 8.98333 7.59 8.95 7.59C8.92333 7.59 8.91 7.58 8.91 7.56C8.91 7.46667 9.01333 7.36667 9.22 7.26C9.42667 7.15333 9.67 7.06 9.95 6.98C10.2367 6.9 10.4867 6.86 10.7 6.86C10.9067 6.86 11.1467 6.89333 11.42 6.96C11.6867 7.03333 11.9233 7.15333 12.13 7.32C12.3367 7.48667 12.44 7.72 12.44 8.02C12.44 8.39333 12.3133 8.7 12.06 8.94C11.8067 9.18 11.4967 9.35333 11.13 9.46C10.7633 9.57333 10.3933 9.63 10.02 9.63ZM8.31 5.14C9.15 5.04667 9.9 4.83667 10.56 4.51C11.2133 4.18333 11.7733 3.80333 12.24 3.37C12.7067 2.93667 13.0633 2.5 13.31 2.06C13.55 1.62 13.67 1.24 13.67 0.920001C13.67 0.706667 13.6133 0.536667 13.5 0.41C13.38 0.276667 13.2 0.21 12.96 0.21C12.7267 0.21 12.4833 0.276667 12.23 0.41C11.9767 0.55 11.7333 0.720001 11.5 0.920001C11.26 1.12667 11.0433 1.33667 10.85 1.55C10.6567 1.75667 10.51 1.93667 10.41 2.09L10.03 2.62C10.3033 2.80667 10.5333 3.02 10.72 3.26C10.7533 3.30667 10.77 3.37333 10.77 3.46C10.77 3.51333 10.7633 3.54 10.75 3.54C10.7367 3.54 10.72 3.52667 10.7 3.5C10.4867 3.22667 10.2233 2.99333 9.91 2.8C9.65667 3.17333 9.4 3.55667 9.14 3.95C8.87333 4.35 8.59667 4.74667 8.31 5.14ZM7.32 5.18C7.58667 4.85333 7.88333 4.44667 8.21 3.96C8.53667 3.47333 8.89667 2.99 9.29 2.51C8.73 2.29 8.11333 2.18 7.44 2.18C7.23333 2.18 7.00333 2.21667 6.75 2.29C6.49 2.35667 6.24667 2.46 6.02 2.6C5.79333 2.73333 5.60333 2.89667 5.45 3.09C5.30333 3.29 5.23 3.52 5.23 3.78C5.23 4.08 5.34333 4.33333 5.57 4.54C5.79 4.74 6.06333 4.89333 6.39 5C6.71667 5.1 7.02667 5.16 7.32 5.18ZM2.29 8.76C2.71 8.76 3.11 8.69 3.49 8.55C3.87667 8.40333 4.24667 8.21 4.6 7.97C4.11333 7.77 3.64333 7.60333 3.19 7.47C2.73667 7.33667 2.30667 7.27 1.9 7.27C1.51333 7.27 1.23667 7.32333 1.07 7.43C0.903333 7.54333 0.82 7.68 0.82 7.84C0.82 8.04667 0.956667 8.25333 1.23 8.46C1.49667 8.66 1.85 8.76 2.29 8.76ZM13.53 8.4C13.31 8.4 13.1533 8.35 13.06 8.25C12.9667 8.14333 12.92 8.01 12.92 7.85C12.92 7.69667 12.9533 7.52333 13.02 7.33C13.0933 7.13667 13.18 6.94667 13.28 6.76C13.46 6.46 13.6633 6.16 13.89 5.86C14.1167 5.55333 14.35 5.27 14.59 5.01C14.83 4.75 15.0433 4.52667 15.23 4.34C15.4033 4.16 15.5833 4.03 15.77 3.95C15.9567 3.86333 16.12 3.80333 16.26 3.77C16.3933 3.73667 16.46 3.72 16.46 3.72C16.2533 3.95333 15.9767 4.28667 15.63 4.72C15.2767 5.14667 14.9233 5.60333 14.57 6.09C14.53 6.13667 14.4633 6.23333 14.37 6.38C14.27 6.53333 14.1633 6.7 14.05 6.88C13.9367 7.06 13.84 7.23667 13.76 7.41C13.68 7.58333 13.64 7.72333 13.64 7.83C13.64 7.93 13.6967 7.97667 13.81 7.97C13.93 7.95667 14.09 7.86667 14.29 7.7C14.4833 7.53333 14.6933 7.32667 14.92 7.08C15.14 6.84 15.3533 6.6 15.56 6.36C15.76 6.12667 15.9233 5.93 16.05 5.77C16.1567 5.65 16.2833 5.49667 16.43 5.31C16.5767 5.13 16.73 4.94333 16.89 4.75C17.05 4.55 17.1967 4.37667 17.33 4.23C17.4767 4.06333 17.6333 3.94333 17.8 3.87C17.9667 3.80333 18.1133 3.76 18.24 3.74C18.3667 3.72667 18.43 3.72 18.43 3.72C18.3567 3.81333 18.21 3.99667 17.99 4.27C17.77 4.54333 17.5267 4.86333 17.26 5.23C16.9867 5.59667 16.73 5.98 16.49 6.38C16.2433 6.77333 16.0567 7.14667 15.93 7.5C15.8633 7.66 15.83 7.79333 15.83 7.9C15.83 7.99333 15.8533 8.05667 15.9 8.09C15.9467 8.11667 15.9967 8.13 16.05 8.13C16.1833 8.13 16.33 8.07667 16.49 7.97C16.6567 7.85667 16.8167 7.72333 16.97 7.57C17.1233 7.41667 17.26 7.27 17.38 7.13C17.5 6.99 17.58 6.89667 17.62 6.85C17.66 6.85 17.68 6.87667 17.68 6.93C17.68 7.01667 17.66 7.08333 17.62 7.13C17.48 7.29667 17.31 7.47667 17.11 7.67C16.91 7.87 16.7 8.04 16.48 8.18C16.26 8.32667 16.0433 8.4 15.83 8.4C15.5967 8.4 15.4333 8.34333 15.34 8.23C15.2467 8.11667 15.2 7.97667 15.2 7.81C15.2 7.65 15.2333 7.47667 15.3 7.29C15.36 7.09667 15.4367 6.91667 15.53 6.75C15.4233 6.86333 15.2933 7.01 15.14 7.19C14.98 7.37 14.8067 7.55333 14.62 7.74C14.4333 7.92667 14.2467 8.08333 14.06 8.21C13.8733 8.33667 13.6967 8.4 13.53 8.4ZM17.48 8.62C17.3667 8.62 17.2767 8.59 17.21 8.53C17.1367 8.46333 17.1 8.38667 17.1 8.3C17.1 8.2 17.1433 8.11667 17.23 8.05C17.2767 8.09667 17.3633 8.12 17.49 8.12C17.6167 8.12 17.75 8.1 17.89 8.06C18.03 8.01333 18.15 7.96 18.25 7.9C18.5567 7.67333 18.8667 7.36 19.18 6.96C19.4933 6.56667 19.7567 6.18667 19.97 5.82C20.1367 5.46667 20.2767 5.17333 20.39 4.94C20.4967 4.7 20.55 4.52 20.55 4.4C20.55 4.31333 20.5167 4.25667 20.45 4.23C20.39 4.21 20.3467 4.2 20.32 4.2C20.18 4.2 20.0267 4.26667 19.86 4.4C19.6933 4.54 19.52 4.71667 19.34 4.93C19.1533 5.14333 18.9767 5.36333 18.81 5.59L17.62 7.15C17.48 7.30333 17.3167 7.47667 17.13 7.67C16.9433 7.87 16.74 8.04 16.52 8.18C16.3 8.32667 16.07 8.4 15.83 8.4C15.81 8.4 15.8 8.39667 15.8 8.39C15.8 8.39 15.8133 8.38 15.84 8.36C15.8667 8.34 15.91 8.31667 15.97 8.29C16.2967 8.13 16.5933 7.92333 16.86 7.67C17.1333 7.41667 17.3867 7.14333 17.62 6.85C18.06 6.29 18.4667 5.74667 18.84 5.22C19.2133 4.7 19.6 4.29 20 3.99C20.2333 3.82333 20.47 3.74 20.71 3.74C20.8633 3.74 20.99 3.78 21.09 3.86C21.1967 3.94 21.25 4.06667 21.25 4.24C21.25 4.44667 21.17 4.70333 21.01 5.01C20.9833 5.05 20.9567 5.09667 20.93 5.15C20.91 5.19667 20.8833 5.24333 20.85 5.29C21.0567 5.07 21.3 4.83 21.58 4.57C21.8533 4.31667 22.13 4.09667 22.41 3.91C22.69 3.72333 22.9333 3.63 23.14 3.63C23.24 3.63 23.3167 3.66 23.37 3.72C23.4167 3.78 23.44 3.84667 23.44 3.92C23.44 3.97333 23.4267 4.03 23.4 4.09C23.3733 4.14333 23.3233 4.18333 23.25 4.21C23.1833 4.15 23.0933 4.12 22.98 4.12C22.8867 4.12 22.7833 4.14 22.67 4.18C22.55 4.22 22.43 4.27 22.31 4.33C21.99 4.49667 21.6767 4.73667 21.37 5.05C21.0567 5.36333 20.7767 5.68333 20.53 6.01C20.41 6.29667 20.3 6.59 20.2 6.89C20.1067 7.19 20.06 7.45667 20.06 7.69C20.06 7.97667 20.18 8.12 20.42 8.12C20.5533 8.12 20.7067 8.07333 20.88 7.98C21.1133 7.84667 21.33 7.68 21.53 7.48C21.73 7.27333 21.9233 7.06333 22.11 6.85C22.15 6.85 22.17 6.87667 22.17 6.93C22.17 7.01667 22.15 7.08333 22.11 7.13C21.7033 7.60333 21.3533 7.93667 21.06 8.13C20.7667 8.31667 20.45 8.41 20.11 8.41C19.9633 8.41 19.8067 8.35 19.64 8.23C19.48 8.11 19.4 7.89667 19.4 7.59C19.4 7.48333 19.41 7.37667 19.43 7.27C19.4433 7.15667 19.4733 7.03 19.52 6.89C19.32 7.17667 19.09 7.46333 18.83 7.75C18.5767 8.03667 18.3333 8.25667 18.1 8.41C17.8933 8.55 17.6867 8.62 17.48 8.62ZM22.42 8.4C22.2 8.4 22.0433 8.35 21.95 8.25C21.8567 8.14333 21.81 8.01 21.81 7.85C21.81 7.69667 21.8433 7.52333 21.91 7.33C21.9833 7.13667 22.07 6.94667 22.17 6.76C22.35 6.46 22.5533 6.16 22.78 5.86C23.0067 5.55333 23.24 5.27 23.48 5.01C23.72 4.75 23.9333 4.52667 24.12 4.34C24.2933 4.16 24.4733 4.03 24.66 3.95C24.8467 3.86333 25.01 3.80333 25.15 3.77C25.2833 3.73667 25.35 3.72 25.35 3.72C25.1433 3.95333 24.8667 4.28667 24.52 4.72C24.1667 5.14667 23.8133 5.60333 23.46 6.09C23.42 6.13667 23.3533 6.23333 23.26 6.38C23.16 6.53333 23.0533 6.7 22.94 6.88C22.8267 7.06 22.73 7.23667 22.65 7.41C22.57 7.58333 22.53 7.72333 22.53 7.83C22.53 7.93 22.5867 7.97667 22.7 7.97C22.82 7.95667 22.98 7.86667 23.18 7.7C23.3733 7.53333 23.5833 7.32667 23.81 7.08C24.03 6.84 24.2433 6.6 24.45 6.36C24.65 6.12667 24.8133 5.93 24.94 5.77C25.0467 5.65 25.1733 5.49667 25.32 5.31C25.4667 5.13 25.62 4.94333 25.78 4.75C25.94 4.55 26.0867 4.37667 26.22 4.23C26.3667 4.06333 26.5233 3.94333 26.69 3.87C26.8567 3.80333 27.0033 3.76 27.13 3.74C27.2567 3.72667 27.32 3.72 27.32 3.72C27.2467 3.81333 27.1 3.99667 26.88 4.27C26.66 4.54333 26.4167 4.86333 26.15 5.23C25.8767 5.59667 25.62 5.98 25.38 6.38C25.1333 6.77333 24.9467 7.14667 24.82 7.5C24.7533 7.66 24.72 7.79333 24.72 7.9C24.72 7.99333 24.7433 8.05667 24.79 8.09C24.8367 8.11667 24.8867 8.13 24.94 8.13C25.0733 8.13 25.22 8.07667 25.38 7.97C25.5467 7.85667 25.7067 7.72333 25.86 7.57C26.0133 7.41667 26.15 7.27 26.27 7.13C26.39 6.99 26.47 6.89667 26.51 6.85C26.55 6.85 26.57 6.87667 26.57 6.93C26.57 7.01667 26.55 7.08333 26.51 7.13C26.37 7.29667 26.2 7.47667 26 7.67C25.8 7.87 25.59 8.04 25.37 8.18C25.15 8.32667 24.9333 8.4 24.72 8.4C24.4867 8.4 24.3233 8.34333 24.23 8.23C24.1367 8.11667 24.09 7.97667 24.09 7.81C24.09 7.65 24.1233 7.47667 24.19 7.29C24.25 7.09667 24.3267 6.91667 24.42 6.75C24.3133 6.86333 24.1833 7.01 24.03 7.19C23.87 7.37 23.6967 7.55333 23.51 7.74C23.3233 7.92667 23.1367 8.08333 22.95 8.21C22.7633 8.33667 22.5867 8.4 22.42 8.4ZM28.19 8.43C27.9567 8.43 27.79 8.37 27.69 8.25C27.5967 8.12333 27.55 7.97333 27.55 7.8C27.55 7.68667 27.5633 7.57333 27.59 7.46C27.6433 7.18 27.7833 6.88667 28.01 6.58C28.23 6.27333 28.4967 5.96667 28.81 5.66C29.1167 5.34667 29.43 5.06667 29.75 4.82C30.07 4.56667 30.3567 4.35667 30.61 4.19C30.4967 4.20333 30.3533 4.21 30.18 4.21C29.9733 4.21 29.7567 4.2 29.53 4.18C29.31 4.15333 29.1567 4.11333 29.07 4.06C29.0367 4.12667 28.9467 4.25 28.8 4.43C28.6533 4.61 28.4767 4.82667 28.27 5.08C28.0567 5.33333 27.84 5.59 27.62 5.85C27.3933 6.11 27.1833 6.35667 26.99 6.59C26.79 6.81667 26.63 6.99667 26.51 7.13C26.39 7.27 26.2233 7.43333 26.01 7.62C25.8033 7.81333 25.5933 7.98333 25.38 8.13C25.1733 8.28333 25 8.36 24.86 8.36C24.7933 8.36 24.7533 8.34667 24.74 8.32C24.7267 8.28667 24.72 8.26667 24.72 8.26C24.8667 8.26 25.0867 8.15333 25.38 7.94C25.6733 7.73333 26.05 7.37 26.51 6.85C27.0633 6.21 27.5833 5.52333 28.07 4.79C28.5633 4.06333 29.0033 3.30333 29.39 2.51H29.41C29.53 2.51 29.59 2.62667 29.59 2.86C29.59 3.07333 29.5167 3.32333 29.37 3.61C29.33 3.67667 29.2733 3.76667 29.2 3.88C29.3867 3.91333 29.5733 3.93667 29.76 3.95C29.9467 3.97 30.12 3.98 30.28 3.98C30.4067 3.98 30.5267 3.97333 30.64 3.96C30.7533 3.95333 30.8433 3.94 30.91 3.92C30.99 3.92 31.0333 3.93667 31.04 3.97C31.0467 4.00333 31.04 4.03 31.02 4.05C30.98 4.08333 30.9033 4.16667 30.79 4.3C30.67 4.42667 30.54 4.56667 30.4 4.72C30.2533 4.88 30.12 5.02667 30 5.16C29.8733 5.29333 29.7833 5.39333 29.73 5.46C29.4433 5.80667 29.1567 6.18333 28.87 6.59C28.5833 7.00333 28.3833 7.37333 28.27 7.7C28.2367 7.78667 28.22 7.86667 28.22 7.94C28.22 8.06667 28.28 8.13 28.4 8.13C28.5333 8.13 28.6967 8.05333 28.89 7.9C29.0833 7.74667 29.2833 7.56667 29.49 7.36C29.69 7.16 29.85 6.99 29.97 6.85C30.0033 6.85 30.02 6.87667 30.02 6.93C30.02 7.01667 30.0033 7.08333 29.97 7.13C29.5367 7.63 29.19 7.97333 28.93 8.16C28.6633 8.34 28.4167 8.43 28.19 8.43ZM33.45 3.14C33.2633 3.14 33.17 3.06333 33.17 2.91C33.17 2.86333 33.1867 2.81333 33.22 2.76C33.2667 2.64667 33.3467 2.54667 33.46 2.46C33.58 2.36667 33.6933 2.32 33.8 2.32C33.98 2.32 34.07 2.39667 34.07 2.55C34.07 2.69 34.0033 2.82 33.87 2.94C33.7433 3.06 33.6033 3.12667 33.45 3.14ZM30.42 8.43C30.1667 8.43 29.9867 8.36 29.88 8.22C29.7733 8.08667 29.72 7.91667 29.72 7.71C29.72 7.44333 29.8 7.15333 29.96 6.84C30.1267 6.52667 30.33 6.21333 30.57 5.9C30.81 5.58667 31.0567 5.29333 31.31 5.02C31.5633 4.74667 31.7833 4.52 31.97 4.34C32.15 4.16 32.3333 4.03 32.52 3.95C32.7067 3.86333 32.8667 3.80333 33 3.77C33.1333 3.73667 33.2 3.72 33.2 3.72C32.9933 3.95333 32.7133 4.28667 32.36 4.72C32.0067 5.14667 31.6567 5.60333 31.31 6.09C31.2833 6.13 31.22 6.22333 31.12 6.37C31.0133 6.51667 30.8967 6.69 30.77 6.89C30.6433 7.08333 30.5367 7.27333 30.45 7.46C30.3633 7.64667 30.32 7.79667 30.32 7.91C30.32 8.09 30.4133 8.18 30.6 8.18C30.74 8.18 30.89 8.12667 31.05 8.02C31.2167 7.92 31.3833 7.79333 31.55 7.64C31.7167 7.49333 31.87 7.34667 32.01 7.2C32.1433 7.06 32.2467 6.94333 32.32 6.85C32.36 6.85 32.38 6.87667 32.38 6.93C32.38 7.01667 32.36 7.08333 32.32 7.13C31.9667 7.53667 31.6467 7.85667 31.36 8.09C31.0733 8.31667 30.76 8.43 30.42 8.43ZM32.87 8.47C32.5967 8.47 32.4033 8.40333 32.29 8.27C32.17 8.13 32.11 7.96 32.11 7.76C32.11 7.49333 32.1867 7.18333 32.34 6.83C32.4933 6.47667 32.7 6.11667 32.96 5.75C33.2267 5.39 33.5233 5.05333 33.85 4.74C34.1767 4.42667 34.51 4.17333 34.85 3.98C35.19 3.79333 35.5167 3.7 35.83 3.7C36.0633 3.7 36.2333 3.76 36.34 3.88C36.44 4 36.49 4.15667 36.49 4.35C36.49 4.61667 36.4167 4.92667 36.27 5.28C36.1167 5.64 35.9133 6.00667 35.66 6.38C35.4 6.74667 35.1167 7.09 34.81 7.41C34.4967 7.72333 34.17 7.98 33.83 8.18C33.4967 8.37333 33.1767 8.47 32.87 8.47ZM33.03 8.2C33.23 8.2 33.4667 8.1 33.74 7.9C34.0133 7.7 34.2967 7.44333 34.59 7.13C34.8767 6.81 35.1433 6.47 35.39 6.11C35.6367 5.75 35.84 5.41 36 5.09C36.1533 4.77 36.23 4.50667 36.23 4.3C36.23 4.07333 36.12 3.96 35.9 3.96C35.7267 3.96 35.5067 4.06667 35.24 4.28C34.9733 4.48667 34.6967 4.75333 34.41 5.08C34.13 5.40667 33.8633 5.75333 33.61 6.12C33.3567 6.48 33.1533 6.82333 33 7.15C32.8467 7.47667 32.77 7.73333 32.77 7.92C32.77 8.10667 32.8567 8.2 33.03 8.2ZM36.24 8.4C36.0133 8.4 35.8533 8.35 35.76 8.25C35.6667 8.14333 35.62 8.01 35.62 7.85C35.62 7.69667 35.6567 7.52333 35.73 7.33C35.7967 7.13667 35.8833 6.94667 35.99 6.76C36.1633 6.46 36.3667 6.16 36.6 5.86C36.8267 5.55333 37.06 5.27 37.3 5.01C37.5333 4.75 37.7433 4.52667 37.93 4.34C38.11 4.16 38.2933 4.03 38.48 3.95C38.6667 3.86333 38.8267 3.80333 38.96 3.77C39.1 3.73667 39.17 3.72 39.17 3.72C38.9633 3.95333 38.6833 4.28667 38.33 4.72C37.9833 5.14667 37.6333 5.60333 37.28 6.09C37.24 6.13667 37.17 6.23333 37.07 6.38C36.9767 6.53333 36.8733 6.7 36.76 6.88C36.6467 7.06 36.55 7.23667 36.47 7.41C36.39 7.58333 36.35 7.72333 36.35 7.83C36.35 7.93 36.4067 7.97667 36.52 7.97C36.64 7.95667 36.8 7.86667 37 7.7C37.1933 7.53333 37.4033 7.32667 37.63 7.08C37.85 6.84 38.06 6.6 38.26 6.36C38.46 6.12667 38.6267 5.93 38.76 5.77C38.86 5.65 38.9867 5.49667 39.14 5.31C39.2867 5.13 39.44 4.94333 39.6 4.75C39.76 4.55 39.9033 4.37667 40.03 4.23C40.1833 4.06333 40.3433 3.94333 40.51 3.87C40.6767 3.80333 40.8233 3.76 40.95 3.74C41.0767 3.72667 41.14 3.72 41.14 3.72C41.0667 3.81333 40.92 3.99667 40.7 4.27C40.48 4.54333 40.2333 4.86333 39.96 5.23C39.6933 5.59667 39.4367 5.98 39.19 6.38C38.95 6.77333 38.7633 7.14667 38.63 7.5C38.57 7.66 38.54 7.79333 38.54 7.9C38.54 7.99333 38.5633 8.05667 38.61 8.09C38.6567 8.11667 38.7067 8.13 38.76 8.13C38.8933 8.13 39.04 8.07667 39.2 7.97C39.3667 7.85667 39.5267 7.72333 39.68 7.57C39.8333 7.41667 39.97 7.27 40.09 7.13C40.21 6.99 40.29 6.89667 40.33 6.85C40.3633 6.85 40.38 6.87667 40.38 6.93C40.38 7.01667 40.3633 7.08333 40.33 7.13C40.19 7.29667 40.02 7.47667 39.82 7.67C39.62 7.87 39.41 8.04 39.19 8.18C38.97 8.32667 38.7533 8.4 38.54 8.4C38.3067 8.4 38.1433 8.34333 38.05 8.23C37.9567 8.11667 37.91 7.97667 37.91 7.81C37.91 7.65 37.94 7.47667 38 7.29C38.0667 7.09667 38.1467 6.91667 38.24 6.75C38.1267 6.86333 37.9933 7.01 37.84 7.19C37.6867 7.37 37.5167 7.55333 37.33 7.74C37.1433 7.92667 36.9567 8.08333 36.77 8.21C36.5833 8.33667 36.4067 8.4 36.24 8.4ZM41.49 8.5C41.3033 8.5 41.1233 8.48 40.95 8.44C40.7767 8.40667 40.6267 8.34333 40.5 8.25C40.3933 8.17 40.3067 8.06667 40.24 7.94C40.1667 7.80667 40.13 7.63667 40.13 7.43C40.13 7.19 40.19 7.00333 40.31 6.87C40.4233 6.74333 40.5467 6.68 40.68 6.68C40.78 6.54667 40.92 6.36 41.1 6.12C41.2733 5.88667 41.47 5.62333 41.69 5.33C41.91 5.04333 42.1367 4.75333 42.37 4.46C42.6033 4.16667 42.8233 3.90333 43.03 3.67C43.1633 3.53667 43.3 3.39667 43.44 3.25C43.5867 3.09667 43.75 2.96667 43.93 2.86C44.1167 2.75333 44.31 2.7 44.51 2.7C44.67 2.7 44.7867 2.73667 44.86 2.81C44.9267 2.89 44.96 2.98 44.96 3.08C44.96 3.13333 44.9467 3.18333 44.92 3.23C44.82 3.21667 44.6767 3.23333 44.49 3.28C44.3033 3.33333 44.0967 3.42667 43.87 3.56C43.63 3.70667 43.3833 3.89333 43.13 4.12C43.1167 4.22667 43.1033 4.39667 43.09 4.63C43.0767 4.85667 43.06 5.11333 43.04 5.4C43.0267 5.68 42.9967 5.96333 42.95 6.25C42.91 6.53667 42.8567 6.78667 42.79 7C42.7433 7.14667 42.67 7.31333 42.57 7.5C42.4633 7.68 42.3267 7.84667 42.16 8C41.9867 8.15333 41.7733 8.26 41.52 8.32C41.8533 8.32 42.1333 8.26667 42.36 8.16C42.58 8.06 42.77 7.94 42.93 7.8C43.0833 7.66667 43.2067 7.56 43.3 7.48C43.3733 7.4 43.4733 7.29 43.6 7.15C43.7333 7.01 43.8267 6.91 43.88 6.85C43.92 6.85 43.94 6.87667 43.94 6.93C43.94 7.01667 43.92 7.08333 43.88 7.13C43.4933 7.55 43.1667 7.85667 42.9 8.05C42.6667 8.23 42.43 8.35 42.19 8.41C41.95 8.47 41.7167 8.5 41.49 8.5ZM41 8.23C41.16 8.23 41.3067 8.16667 41.44 8.04C41.5733 7.91333 41.6967 7.76667 41.81 7.6C41.9233 7.42667 42.0133 7.26333 42.08 7.11C42.18 6.89 42.2867 6.60667 42.4 6.26C42.5133 5.91333 42.62 5.56 42.72 5.2C42.8267 4.84 42.91 4.53 42.97 4.27C42.71 4.52333 42.4533 4.8 42.2 5.1C41.94 5.39333 41.7033 5.67667 41.49 5.95C41.2767 6.22333 41.1 6.44667 40.96 6.62C40.84 6.78 40.7467 6.95 40.68 7.13C40.6133 7.30333 40.58 7.47 40.58 7.63C40.58 7.81 40.6167 7.95333 40.69 8.06C40.7633 8.17333 40.8667 8.23 41 8.23ZM49.75 10.67C49.2767 10.67 48.85 10.53 48.47 10.25C48.09 9.97 47.85 9.56333 47.75 9.03C47.1767 8.87 46.7667 8.58 46.52 8.16C46.2667 7.73333 46.14 7.24 46.14 6.68C46.14 6.14667 46.24 5.59667 46.44 5.03C46.64 4.45667 46.9233 3.92667 47.29 3.44C47.65 2.94667 48.0833 2.55 48.59 2.25C49.09 1.94333 49.6433 1.79 50.25 1.79C50.6367 1.79 50.9433 1.88 51.17 2.06C51.3967 2.24667 51.5633 2.48333 51.67 2.77C51.77 3.05 51.82 3.34 51.82 3.64C51.82 3.73333 51.8167 3.82333 51.81 3.91C51.7967 4.00333 51.7833 4.09667 51.77 4.19C51.8767 4.13 51.99 4.07333 52.11 4.02C52.2233 3.96 52.3433 3.90667 52.47 3.86L52.66 3.78C52.82 3.4 52.99 3.02333 53.17 2.65C53.3433 2.28333 53.5433 1.94 53.77 1.62C53.9567 1.36 54.1833 1.12667 54.45 0.920001C54.7167 0.720001 55.0067 0.62 55.32 0.62C55.6133 0.62 55.82 0.683333 55.94 0.81C56.06 0.93 56.12 1.08333 56.12 1.27C56.12 1.53667 56.0333 1.78667 55.86 2.02C55.6867 2.25333 55.4667 2.47 55.2 2.67C54.9267 2.87 54.6333 3.05667 54.32 3.23C54.0067 3.40333 53.7067 3.55333 53.42 3.68C53.2333 4.24 53.04 4.80333 52.84 5.37C52.64 5.93667 52.3933 6.46667 52.1 6.96C51.8133 7.46 51.43 7.90333 50.95 8.29C50.5967 8.57667 50.2133 8.79 49.8 8.93C49.3867 9.07 48.9867 9.14 48.6 9.14C48.5333 9.14 48.47 9.13667 48.41 9.13C48.35 9.13 48.2933 9.12333 48.24 9.11C48.3133 9.48333 48.47 9.80333 48.71 10.07C48.9567 10.3367 49.3267 10.47 49.82 10.47C49.9667 10.47 50.1067 10.45 50.24 10.41C50.3733 10.37 50.5233 10.2933 50.69 10.18C50.69 10.18 50.6933 10.1767 50.7 10.17C50.7 10.1633 50.7067 10.16 50.72 10.16C50.7467 10.16 50.76 10.19 50.76 10.25C50.76 10.3167 50.7067 10.38 50.6 10.44C50.4933 10.5067 50.36 10.56 50.2 10.6C50.04 10.6467 49.89 10.67 49.75 10.67ZM53.52 3.4C53.88 3.22667 54.2367 3.03 54.59 2.81C54.95 2.59 55.2467 2.35 55.48 2.09C55.7133 1.83667 55.83 1.57 55.83 1.29C55.83 1.15667 55.8 1.04 55.74 0.94C55.6733 0.846667 55.5633 0.8 55.41 0.8C55.23 0.8 55.06 0.856666 54.9 0.97C54.7333 1.09 54.59 1.23 54.47 1.39C54.35 1.54333 54.2467 1.69667 54.16 1.85C54.04 2.08333 53.9267 2.33333 53.82 2.6C53.7133 2.86667 53.6133 3.13333 53.52 3.4ZM47.72 8.82C47.7133 8.77333 47.71 8.72667 47.71 8.68C47.71 8.63333 47.71 8.59 47.71 8.55C47.71 7.95667 47.8733 7.40667 48.2 6.9C48.5267 6.4 48.9667 5.94 49.52 5.52C50.0733 5.1 50.69 4.71667 51.37 4.37C51.43 4.15667 51.46 3.93667 51.46 3.71C51.46 3.43667 51.4233 3.17 51.35 2.91C51.27 2.65 51.14 2.43 50.96 2.25C50.78 2.07667 50.53 1.99 50.21 1.99C49.7233 1.99 49.27 2.14333 48.85 2.45C48.4233 2.75667 48.05 3.15667 47.73 3.65C47.4167 4.13667 47.17 4.66333 46.99 5.23C46.8033 5.79667 46.71 6.33 46.71 6.83C46.71 7.31 46.7867 7.73 46.94 8.09C47.0867 8.44333 47.3467 8.68667 47.72 8.82ZM48.21 8.9H48.27C48.5767 8.9 48.9267 8.81333 49.32 8.64C49.72 8.46 50.1433 8.13667 50.59 7.67C51.0567 7.18333 51.4333 6.62667 51.72 6C52 5.36667 52.2733 4.72333 52.54 4.07L51.68 4.52C51.5067 5.09333 51.2067 5.64333 50.78 6.17C50.3533 6.70333 49.8967 7.14667 49.41 7.5C49.35 7.54667 49.29 7.57 49.23 7.57C49.1833 7.57 49.16 7.55667 49.16 7.53C49.16 7.50333 49.17 7.48 49.19 7.46C49.6033 7.15333 50.01 6.76333 50.41 6.29C50.81 5.81 51.1 5.29667 51.28 4.75C50.7467 5.05667 50.2467 5.40667 49.78 5.8C49.3133 6.2 48.9333 6.63 48.64 7.09C48.3467 7.55 48.2 8.04333 48.2 8.57C48.2 8.62333 48.2 8.68 48.2 8.74C48.2 8.79333 48.2033 8.84667 48.21 8.9ZM54.34 8.5C54.1667 8.5 53.9867 8.47333 53.8 8.42C53.6133 8.36667 53.4567 8.26667 53.33 8.12C53.21 7.97333 53.15 7.75333 53.15 7.46C53.15 7.14667 53.2333 6.81667 53.4 6.47C53.5733 6.12333 53.8 5.78667 54.08 5.46C54.3667 5.13333 54.6767 4.84 55.01 4.58C55.35 4.32 55.69 4.11 56.03 3.95C56.37 3.79667 56.6833 3.72 56.97 3.72C57.15 3.72 57.2767 3.76667 57.35 3.86C57.4167 3.94667 57.45 4.05 57.45 4.17C57.45 4.29 57.4233 4.40667 57.37 4.52C57.2833 4.72 57.1333 4.92 56.92 5.12C56.7133 5.32 56.4733 5.42 56.2 5.42C56.1 5.42 56.0433 5.38333 56.03 5.31C56.0167 5.23 56.02 5.17333 56.04 5.14C56.1667 5.1 56.3433 5.01667 56.57 4.89C56.79 4.76333 56.9667 4.57 57.1 4.31C57.1267 4.25667 57.14 4.20667 57.14 4.16C57.14 4.02 57.0567 3.95 56.89 3.95C56.6767 3.95 56.4 4.08333 56.06 4.35C55.72 4.61667 55.3433 4.99667 54.93 5.49C54.6433 5.82333 54.4033 6.16 54.21 6.5C54.0167 6.84 53.92 7.19 53.92 7.55C53.92 7.76333 53.9633 7.93333 54.05 8.06C54.13 8.18667 54.2833 8.25 54.51 8.25C54.7967 8.25 55.06 8.18 55.3 8.04C55.54 7.9 55.7633 7.72 55.97 7.5C56.17 7.28 56.3633 7.06333 56.55 6.85C56.59 6.85 56.61 6.87667 56.61 6.93C56.61 7.01667 56.59 7.08333 56.55 7.13C56.3633 7.34333 56.1633 7.55667 55.95 7.77C55.7367 7.98333 55.5 8.15667 55.24 8.29C54.98 8.43 54.68 8.5 54.34 8.5ZM58.23 8.43C57.9967 8.43 57.8333 8.37 57.74 8.25C57.64 8.12333 57.59 7.97333 57.59 7.8C57.59 7.68667 57.6033 7.57333 57.63 7.46C57.69 7.18 57.83 6.88667 58.05 6.58C58.2767 6.27333 58.5433 5.96667 58.85 5.66C59.1567 5.34667 59.4733 5.06667 59.8 4.82C60.12 4.56667 60.4067 4.35667 60.66 4.19C60.5467 4.20333 60.4 4.21 60.22 4.21C60.0133 4.21 59.8 4.2 59.58 4.18C59.3533 4.15333 59.2 4.11333 59.12 4.06C59.08 4.12667 58.9867 4.25 58.84 4.43C58.7 4.61 58.5233 4.82667 58.31 5.08C58.1033 5.33333 57.8867 5.59 57.66 5.85C57.4333 6.11 57.2233 6.35667 57.03 6.59C56.8367 6.81667 56.6767 6.99667 56.55 7.13C56.43 7.27 56.2667 7.43333 56.06 7.62C55.8467 7.81333 55.6367 7.98333 55.43 8.13C55.2167 8.28333 55.04 8.36 54.9 8.36C54.8333 8.36 54.7933 8.34667 54.78 8.32C54.7667 8.28667 54.76 8.26667 54.76 8.26C54.9133 8.26 55.1367 8.15333 55.43 7.94C55.7233 7.73333 56.0967 7.37 56.55 6.85C57.1033 6.21 57.6267 5.52333 58.12 4.79C58.6067 4.06333 59.0467 3.30333 59.44 2.51H59.45C59.57 2.51 59.63 2.62667 59.63 2.86C59.63 3.07333 59.5567 3.32333 59.41 3.61C59.37 3.67667 59.3133 3.76667 59.24 3.88C59.4267 3.91333 59.6133 3.93667 59.8 3.95C59.9867 3.97 60.16 3.98 60.32 3.98C60.4533 3.98 60.5733 3.97333 60.68 3.96C60.7933 3.95333 60.8833 3.94 60.95 3.92C61.0367 3.92 61.08 3.93667 61.08 3.97C61.0867 4.00333 61.08 4.03 61.06 4.05C61.0267 4.08333 60.95 4.16667 60.83 4.3C60.7167 4.42667 60.5867 4.56667 60.44 4.72C60.2933 4.88 60.16 5.02667 60.04 5.16C59.92 5.29333 59.83 5.39333 59.77 5.46C59.4833 5.80667 59.1967 6.18333 58.91 6.59C58.63 7.00333 58.4333 7.37333 58.32 7.7C58.28 7.78667 58.26 7.86667 58.26 7.94C58.26 8.06667 58.32 8.13 58.44 8.13C58.5733 8.13 58.7367 8.05333 58.93 7.9C59.13 7.74667 59.33 7.56667 59.53 7.36C59.73 7.16 59.89 6.99 60.01 6.85C60.05 6.85 60.07 6.87667 60.07 6.93C60.07 7.01667 60.05 7.08333 60.01 7.13C59.5833 7.63 59.2367 7.97333 58.97 8.16C58.7033 8.34 58.4567 8.43 58.23 8.43ZM63.5 3.14C63.3133 3.14 63.22 3.06333 63.22 2.91C63.22 2.86333 63.2333 2.81333 63.26 2.76C63.3067 2.64667 63.39 2.54667 63.51 2.46C63.6233 2.36667 63.7367 2.32 63.85 2.32C64.0233 2.32 64.11 2.39667 64.11 2.55C64.11 2.69 64.0467 2.82 63.92 2.94C63.7867 3.06 63.6467 3.12667 63.5 3.14ZM60.46 8.43C60.2067 8.43 60.0267 8.36 59.92 8.22C59.8133 8.08667 59.76 7.91667 59.76 7.71C59.76 7.44333 59.8433 7.15333 60.01 6.84C60.17 6.52667 60.37 6.21333 60.61 5.9C60.8567 5.58667 61.1067 5.29333 61.36 5.02C61.6067 4.74667 61.8233 4.52 62.01 4.34C62.19 4.16 62.3733 4.03 62.56 3.95C62.7467 3.86333 62.9067 3.80333 63.04 3.77C63.18 3.73667 63.25 3.72 63.25 3.72C63.0433 3.95333 62.7633 4.28667 62.41 4.72C62.05 5.14667 61.7 5.60333 61.36 6.09C61.3267 6.13 61.26 6.22333 61.16 6.37C61.06 6.51667 60.9467 6.69 60.82 6.89C60.6933 7.08333 60.5833 7.27333 60.49 7.46C60.4033 7.64667 60.36 7.79667 60.36 7.91C60.36 8.09 60.4533 8.18 60.64 8.18C60.78 8.18 60.9333 8.12667 61.1 8.02C61.26 7.92 61.4233 7.79333 61.59 7.64C61.7633 7.49333 61.9167 7.34667 62.05 7.2C62.1833 7.06 62.2867 6.94333 62.36 6.85C62.4 6.85 62.42 6.87667 62.42 6.93C62.42 7.01667 62.4 7.08333 62.36 7.13C62.0067 7.53667 61.69 7.85667 61.41 8.09C61.1233 8.31667 60.8067 8.43 60.46 8.43ZM58.49 11.79C58.2367 11.79 58.0267 11.76 57.86 11.7C57.78 11.6667 57.7033 11.6167 57.63 11.55C57.55 11.4833 57.4933 11.4 57.46 11.3C57.5667 11.38 57.6833 11.4433 57.81 11.49C57.9433 11.53 58.1033 11.5467 58.29 11.54C58.83 11.54 59.3367 11.39 59.81 11.09C60.2833 10.79 60.7233 10.4 61.13 9.92C61.5433 9.44 61.9267 8.93 62.28 8.39C62.8467 7.53667 63.3867 6.67333 63.9 5.8C64.4133 4.92667 64.95 4.08667 65.51 3.28C65.6433 3.28667 65.71 3.38 65.71 3.56C65.71 3.79333 65.5933 4.14333 65.36 4.61C65.1267 5.08333 64.8033 5.63667 64.39 6.27C64.3567 6.31667 64.3267 6.37 64.3 6.43C64.2667 6.48333 64.2333 6.53667 64.2 6.59C64.48 6.26333 64.77 5.93 65.07 5.59C65.3767 5.25 65.68 4.93667 65.98 4.65C66.2733 4.37 66.56 4.14 66.84 3.96C67.12 3.78667 67.3767 3.7 67.61 3.7C67.91 3.7 68.06 3.88 68.06 4.24C68.06 4.46667 67.99 4.74667 67.85 5.08C67.71 5.42 67.4967 5.77667 67.21 6.15C67.03 6.38333 66.8067 6.63 66.54 6.89C66.2733 7.15667 65.9833 7.41 65.67 7.65C65.3633 7.89 65.0467 8.08333 64.72 8.23C64.3933 8.38333 64.0733 8.46 63.76 8.46C63.5133 8.46 63.3667 8.41333 63.32 8.32C63.3 8.28667 63.2967 8.26333 63.31 8.25C63.3233 8.23 63.3333 8.22 63.34 8.22C63.34 8.22 63.3633 8.22333 63.41 8.23C63.4567 8.24333 63.5133 8.25 63.58 8.25C63.8067 8.25 64.0633 8.17 64.35 8.01C64.6433 7.85 64.95 7.63333 65.27 7.36C65.59 7.09333 65.8967 6.79 66.19 6.45C66.5033 6.09667 66.7667 5.74667 66.98 5.4C67.2 5.04667 67.34 4.76 67.4 4.54C67.42 4.46 67.43 4.39667 67.43 4.35C67.43 4.27667 67.4133 4.21667 67.38 4.17C67.3467 4.11667 67.2833 4.1 67.19 4.12C66.9567 4.17333 66.6767 4.33667 66.35 4.61C66.0233 4.87667 65.6833 5.19667 65.33 5.57C64.9767 5.94333 64.64 6.32 64.32 6.7C63.9933 7.08 63.71 7.41 63.47 7.69C63.1233 8.21 62.73 8.74667 62.29 9.3C61.8433 9.86 61.3667 10.3567 60.86 10.79C60.3533 11.2233 59.82 11.5233 59.26 11.69C59.08 11.7567 58.8233 11.79 58.49 11.79ZM67.96 8.46C67.7267 8.46 67.5633 8.40333 67.47 8.29C67.3767 8.17667 67.33 8.03 67.33 7.85C67.33 7.54333 67.4433 7.19333 67.67 6.8C67.8033 6.58 67.9833 6.32333 68.21 6.03C68.4367 5.73667 68.6967 5.42333 68.99 5.09C69.2767 4.75667 69.5633 4.43333 69.85 4.12H68.92L69.07 3.92H70.04C70.3 3.64667 70.5433 3.39333 70.77 3.16C70.9967 2.92 71.1867 2.72667 71.34 2.58C71.7467 2.16667 72.1267 1.85333 72.48 1.64C72.8267 1.42667 73.1033 1.32 73.31 1.32C73.1633 1.44667 72.9467 1.65 72.66 1.93C72.3733 2.21 72.06 2.52333 71.72 2.87C71.38 3.21667 71.0467 3.56667 70.72 3.92H71.69L71.53 4.12H70.55C70.3767 4.32 70.2133 4.51 70.06 4.69C69.9067 4.87 69.7733 5.03667 69.66 5.19C69.22 5.79 68.8633 6.28 68.59 6.66C68.3233 7.04667 68.1467 7.33667 68.06 7.53C67.9933 7.69 67.96 7.82 67.96 7.92C67.96 8.1 68.0467 8.19 68.22 8.19C68.36 8.19 68.5067 8.14333 68.66 8.05C68.8933 7.91667 69.13 7.72667 69.37 7.48C69.61 7.23333 69.8033 7.02333 69.95 6.85C69.99 6.85 70.01 6.87667 70.01 6.93C70.01 7.01667 69.99 7.08333 69.95 7.13C69.5967 7.53667 69.2667 7.86 68.96 8.1C68.6533 8.34 68.32 8.46 67.96 8.46Z" fill="black"/>
</svg>
