<?xml version="1.0" encoding="utf-8" ?>
<svg baseProfile="tiny" height="100%" version="1.2" width="100%" xmlns="http://www.w3.org/2000/svg" xmlns:ev="http://www.w3.org/2001/xml-events" xmlns:xlink="http://www.w3.org/1999/xlink"><defs /><g><path d="M106 -9Q84 -9 70 20Q64 31 64 37Q64 44 67.0 50.5Q70 57 70 70Q70 621 68.5 649.5Q67 678 67 695Q67 705 89 705Q106 705 124.5 697.0Q143 689 143.0 677.0Q143 665 142.0 639.5Q141 614 141 59Q213 64 349 64Q411 64 424 65Q439 65 447.5 45.5Q456 26 456 12Q456 -5 443 -5Q408 1 331 1Q141 1 106 -9Z" transform="translate(0.0, 72) scale(0.072, -0.072)" /><path d="M99 -10Q82 -10 64.0 -1.5Q46 7 46 17Q46 20 48 24Q90 91 104 119L216 353Q99 608 86.0 631.5Q73 655 62 672Q60 677 60 679Q60 689 78.0 698.0Q96 707 112 707Q130 707 133 698Q147 662 253 431Q359 651 376 692Q379 700 393 700Q409 700 427.5 688.0Q446 676 446 665L445 660Q422 628 402 586L289 352L397 119Q416 79 453 24L454 20Q454 11 435.5 0.5Q417 -10 398 -10Q381 -10 375 1Q360 42 252 274Q156 73 149 56Q135 22 125 1Q121 -10 99 -10Z" transform="translate(36.0, 72) scale(0.072, -0.072)" /><path d="M250 -17Q184 -17 134.0 11.5Q84 40 57.5 107.5Q31 175 31 295Q31 461 102 586Q177 713 280 713Q358 713 396 675Q431 646 442 627L443 618Q443 604 431.0 585.0Q419 566 406 566Q398 566 393 576Q364 649 280 649Q206 649 152.0 542.0Q98 435 98 285Q98 195 116.5 142.0Q135 89 169.0 68.0Q203 47 250 47Q284 47 315.5 75.5Q347 104 368.5 160.0Q390 216 390 296L389 309Q331 302 273 293Q263 293 256.5 302.5Q250 312 245.5 324.5Q241 337 241 347Q241 361 253 361Q287 361 399 370Q414 374 425 374Q433 374 441.0 366.0Q449 358 454.5 348.0Q460 338 460 331Q460 325 458.5 320.5Q457 316 457 94L459 4Q459 -9 434 -9Q418 -9 403.0 -2.0Q388 5 388 14Q391 44 391 74Q378 44 339.5 13.5Q301 -17 250 -17Z" transform="translate(72.0, 72) scale(0.072, -0.072)" /><path d="M370 -16Q348 -16 326.5 1.5Q305 19 300 46Q270 375 247 556Q242 516 230.0 394.5Q218 273 207.0 159.5Q196 46 195 7Q194 -3 185.5 -9.0Q177 -15 166 -15Q144 -15 122.5 1.5Q101 18 98 46Q66 441 41 604Q29 678 23 690Q23 705 47 705Q64 705 82.5 696.5Q101 688 103 677Q104 670 104.0 662.5Q104 655 105.0 648.0Q106 641 106 622Q125 447 147 144Q170 390 194 600Q199 635 199.0 649.5Q199 664 200.0 672.0Q201 680 212.0 684.5Q223 689 238 689Q257 689 273.5 682.5Q290 676 292 667Q292 663 293 661Q294 652 294.0 644.0Q294 636 295 623Q330 369 352 137L356 178Q373 398 394 576Q403 640 403 691Q405 706 427 706Q443 706 460.0 696.5Q477 687 477 672Q450 552 399 7Q397 -16 370 -16Z" transform="translate(108.0, 72) scale(0.072, -0.072)" /><path d="M370 -16Q348 -16 326.5 1.5Q305 19 300 46Q270 375 247 556Q242 516 230.0 394.5Q218 273 207.0 159.5Q196 46 195 7Q194 -3 185.5 -9.0Q177 -15 166 -15Q144 -15 122.5 1.5Q101 18 98 46Q66 441 41 604Q29 678 23 690Q23 705 47 705Q64 705 82.5 696.5Q101 688 103 677Q104 670 104.0 662.5Q104 655 105.0 648.0Q106 641 106 622Q125 447 147 144Q170 390 194 600Q199 635 199.0 649.5Q199 664 200.0 672.0Q201 680 212.0 684.5Q223 689 238 689Q257 689 273.5 682.5Q290 676 292 667Q292 663 293 661Q294 652 294.0 644.0Q294 636 295 623Q330 369 352 137L356 178Q373 398 394 576Q403 640 403 691Q405 706 427 706Q443 706 460.0 696.5Q477 687 477 672Q450 552 399 7Q397 -16 370 -16Z" transform="translate(180.0, 72) scale(0.072, -0.072)" /><path d="M230 -18Q182 -18 144.5 8.0Q107 34 85.0 82.0Q63 130 63 210Q44 226 44 241Q44 254 64 254L69 255Q83 330 144 406Q211 486 297 486Q355 486 389.0 464.5Q423 443 436.5 409.0Q450 375 450 340Q450 306 445 287Q432 234 265 205Q209 196 128 196Q128 120 157.5 80.5Q187 41 230 41Q343 41 417 124Q432 140 441 140Q453 140 453 128Q453 120 440 97Q413 45 330 2Q288 -18 230 -18ZM135 252H150Q216 252 260.5 260.5Q305 269 335.0 278.5Q365 288 374.5 301.0Q384 314 384 341Q384 428 297 428Q236 428 191.5 369.5Q147 311 135 252Z" transform="translate(216.0, 72) scale(0.072, -0.072)" /><path d="M115 -11Q99 -11 82.0 -3.0Q65 5 65 17Q65 44 67 88V395Q64 458 64 471Q64 481 84 481Q100 481 117.0 473.0Q134 465 134 453L132 386Q155 428 202.0 456.5Q249 485 300 485Q383 485 414 421Q436 374 436 297Q436 99 437 78Q439 33 439 -2Q439 -11 419 -11Q403 -11 386.0 -3.0Q369 5 369 17Q370 25 370.0 44.5Q370 64 371 84V293Q371 353 356.5 388.0Q342 423 300 423Q231 423 185 368Q142 313 137 229Q133 184 133 79Q133 56 135 -2Q135 -11 115 -11Z" transform="translate(252.0, 72) scale(0.072, -0.072)" /><path d="M109 -11Q93 -11 75.0 -3.0Q57 5 57.0 17.0Q57 29 58.0 56.5Q59 84 59 351Q59 587 56 695Q56 705 77 705Q94 705 111.5 697.0Q129 689 129.0 677.0Q129 665 128.0 639.5Q127 614 127 423Q199 496 268.5 578.0Q338 660 367 699Q373 705 384 705Q396 705 409.5 699.0Q423 693 432.5 685.0Q442 677 442 670Q442 664 411 639Q391 621 367 595Q293 506 190 400Q393 100 459 40Q477 24 477 20Q477 11 458.0 1.0Q439 -9 419 -9Q395 -9 381 15Q375 25 367 36Q347 61 147 354L127 334Q127 77 128.5 46.5Q130 16 130 -1Q130 -11 109 -11Z" transform="translate(288.0, 72) scale(0.072, -0.072)" /><path d="M195 -18Q127 -18 87.0 32.0Q47 82 47 175Q47 302 117.5 394.0Q188 486 273 486Q345 486 369 433V475Q369 485 391 485Q407 485 425.0 477.5Q443 470 443 458Q438 411 434 306Q431 225 431 193Q431 91 463 34L465 29Q465 19 452.5 3.0Q440 -13 422 -13Q406 -13 395.5 8.5Q385 30 379.0 60.5Q373 91 371 108Q343 49 295.0 15.5Q247 -18 195 -18ZM194 42Q236 42 274 72Q367 147 367 330Q367 356 368 374Q365 371 355 371Q349 371 346 376Q318 428 273 428Q220 428 167.5 358.0Q115 288 115 180Q115 42 194 42Z" transform="translate(324.0, 72) scale(0.072, -0.072)" /><path d="M107 -6Q91 -6 82.0 12.5Q73 31 73 45Q73 63 88 63L128 62L216 63Q217 110 217 427Q181 422 158.0 422.0Q135 422 123 421Q108 421 99.5 440.5Q91 460 91 474Q91 491 104 491Q138 485 148 485Q217 485 251 495Q274 495 288 466Q294 455 294 449Q294 442 291.0 435.5Q288 429 288 416Q288 129 289 64Q384 64 397 65Q412 65 420.5 45.5Q429 26 429 12Q429 -5 416 -5Q381 1 304 1Q209 1 153 -1ZM250 590Q231 590 216.5 610.0Q202 630 202 650Q202 669 214.0 683.5Q226 698 250 698Q269 698 283.5 677.5Q298 657 298 636Q298 618 285.5 604.0Q273 590 250 590Z" transform="translate(360.0, 72) scale(0.072, -0.072)" /><path d="M64 -7Q33 -7 33 9L36 41Q42 100 45 159Q72 619 72 653Q71 661 71 674Q74 685 93.0 694.0Q112 703 134 703Q144 700 145 698Q150 687 171 591L242 240Q284 423 348 671Q351 684 353.5 697.5Q356 711 368 711Q377 711 392.5 705.5Q408 700 421.5 691.5Q435 683 435 676Q435 666 432.5 656.0Q430 646 430 630Q438 537 447 349L460 93Q463 56 470 16Q470 6 457.0 0.0Q444 -6 428 -6Q396 -6 396 11Q396 143 379 550Q328 351 304 252Q295 209 288.5 177.0Q282 145 281.0 133.5Q280 122 266.0 114.0Q252 106 235 106Q207 106 205 129Q196 184 122 530Q116 392 111 230L105 84V12Q104 3 91.0 -2.0Q78 -7 64 -7Z" transform="translate(432.0, 72) scale(0.072, -0.072)" /><path d="M236 -18Q144 -18 93.5 43.0Q43 104 43 207Q43 251 56.0 294.0Q69 337 87.5 373.0Q106 409 125.0 431.5Q144 454 155 454Q168 454 171 448Q215 486 277 486Q382 486 433 374Q454 321 454 245Q454 150 400 67Q339 -18 236 -18ZM236 43Q322 43 367 141Q388 187 388 245Q388 329 359.0 377.5Q330 426 271 426Q203 426 156.5 356.5Q110 287 110 208Q110 125 143.0 84.0Q176 43 236 43Z" transform="translate(468.0, 72) scale(0.072, -0.072)" /><path d="M115 -11Q99 -11 82.0 -3.0Q65 5 65 17Q65 44 67 88V395Q64 458 64 471Q64 481 84 481Q100 481 117.0 473.0Q134 465 134 453L132 386Q155 428 202.0 456.5Q249 485 300 485Q383 485 414 421Q436 374 436 297Q436 99 437 78Q439 33 439 -2Q439 -11 419 -11Q403 -11 386.0 -3.0Q369 5 369 17Q370 25 370.0 44.5Q370 64 371 84V293Q371 353 356.5 388.0Q342 423 300 423Q231 423 185 368Q142 313 137 229Q133 184 133 79Q133 56 135 -2Q135 -11 115 -11Z" transform="translate(504.0, 72) scale(0.072, -0.072)" /><path d="M236 -18Q144 -18 93.5 43.0Q43 104 43 207Q43 251 56.0 294.0Q69 337 87.5 373.0Q106 409 125.0 431.5Q144 454 155 454Q168 454 171 448Q215 486 277 486Q382 486 433 374Q454 321 454 245Q454 150 400 67Q339 -18 236 -18ZM236 43Q322 43 367 141Q388 187 388 245Q388 329 359.0 377.5Q330 426 271 426Q203 426 156.5 356.5Q110 287 110 208Q110 125 143.0 84.0Q176 43 236 43Z" transform="translate(540.0, 72) scale(0.072, -0.072)" /><path d="M263 -11Q248 -11 230.0 -2.5Q212 6 212 18L214 107V630Q105 623 64 616Q48 616 39.0 634.5Q30 653 30 667Q30 685 45 685Q52 685 70.5 684.0Q89 683 109 683Q123 683 365 700Q404 703 443 708Q457 708 465.0 689.5Q473 671 473 657Q473 639 459 639Q403 642 388 642L283 635Q284 74 285.5 45.5Q287 17 287 0Q287 -11 263 -11Z" transform="translate(612.0, 72) scale(0.072, -0.072)" /><path d="M247 -16Q186 -16 138.0 15.5Q90 47 62.5 116.0Q35 185 35 293Q35 468 105.5 590.0Q176 712 280 712Q386 712 452 619Q454 615 454 610Q454 597 443.0 579.0Q432 561 419 561Q410 561 405 570Q364 647 277 647Q183 647 126 477Q102 396 102 295Q102 48 251 48Q355 48 430 173Q440 188 453 188Q468 188 468 169Q468 164 460 144Q443 100 390 45Q329 -16 247 -16Z" transform="translate(648.0, 72) scale(0.072, -0.072)" /></g></svg>