<svg width="133" height="16.366" viewBox="0 0 133 16.366" xmlns="http://www.w3.org/2000/svg"><path transform="translate(0 12.992) scale(.014 -.014)" d="m106-9q-22 0-36 29-6 11-6 17 0 7 3 13.5t3 19.5q0 551-1.5 579.5t-1.5 45.5q0 10 22 10 17 0 35.5-8t18.5-20-1-37.5-1-580.5q72 5 208 5 62 0 75 1 15 0 23.5-19.5t8.5-33.5q0-17-13-17-35 6-112 6-190 0-225-10z"/><path transform="translate(7 12.992) scale(.014 -.014)" d="m99-10q-17 0-35 8.5t-18 18.5q0 3 2 7 42 67 56 95l112 234q-117 255-130 278.5t-24 40.5q-2 5-2 7 0 10 18 19t34 9q18 0 21-9 14-36 120-267 106 220 123 261 3 8 17 8 16 0 34.5-12t18.5-23l-1-5q-23-32-43-74l-113-234 108-233q19-40 56-95l1-4q0-9-18.5-19.5t-37.5-10.5q-17 0-23 11-15 41-123 273-96-201-103-218-14-34-24-55-4-11-26-11z"/><path transform="translate(14 12.992) scale(.014 -.014)" d="m250-17q-66 0-116 28.5t-76.5 96-26.5 187.5q0 166 71 291 75 127 178 127 78 0 116-38 35-29 46-48l1-9q0-14-12-33t-25-19q-8 0-13 10-29 73-113 73-74 0-128-107t-54-257q0-90 18.5-143t52.5-74 81-21q34 0 65.5 28.5t53 84.5 21.5 136l-1 13q-58-7-116-16-10 0-16.5 9.5t-11 22-4.5 22.5q0 14 12 14 34 0 146 9 15 4 26 4 8 0 16-8t13.5-18 5.5-17q0-6-1.5-10.5t-1.5-226.5l2-90q0-13-25-13-16 0-31 7t-15 16q3 30 3 60-13-30-51.5-60.5t-89.5-30.5z"/><path transform="translate(21 12.992) scale(.014 -.014)" d="m370-16q-22 0-43.5 17.5t-26.5 44.5q-30 329-53 510-5-40-17-161.5t-23-235-12-152.5q-1-10-9.5-16t-19.5-6q-22 0-43.5 16.5t-24.5 44.5q-32 395-57 558-12 74-18 86 0 15 24 15 17 0 35.5-8.5t20.5-19.5q1-7 1-14.5t1-14.5 1-26q19-175 41-478 23 246 47 456 5 35 5 49.5t1 22.5 12 12.5 26 4.5q19 0 35.5-6.5t18.5-15.5q0-4 1-6 1-9 1-17t1-21q35-254 57-486l4 41q17 220 38 398 9 64 9 115 2 15 24 15 16 0 33-9.5t17-24.5q-27-120-78-665-2-23-29-23z"/><path transform="translate(35 12.992) scale(.014 -.014)" d="m370-16q-22 0-43.5 17.5t-26.5 44.5q-30 329-53 510-5-40-17-161.5t-23-235-12-152.5q-1-10-9.5-16t-19.5-6q-22 0-43.5 16.5t-24.5 44.5q-32 395-57 558-12 74-18 86 0 15 24 15 17 0 35.5-8.5t20.5-19.5q1-7 1-14.5t1-14.5 1-26q19-175 41-478 23 246 47 456 5 35 5 49.5t1 22.5 12 12.5 26 4.5q19 0 35.5-6.5t18.5-15.5q0-4 1-6 1-9 1-17t1-21q35-254 57-486l4 41q17 220 38 398 9 64 9 115 2 15 24 15 16 0 33-9.5t17-24.5q-27-120-78-665-2-23-29-23z"/><path transform="translate(42 12.992) scale(.014 -.014)" d="m230-18q-48 0-85.5 26t-59.5 74-22 128q-19 16-19 31 0 13 20 13l5 1q14 75 75 151 67 80 153 80 58 0 92-21.5t47.5-55.5 13.5-69q0-34-5-53-13-53-180-82-56-9-137-9 0-76 29.5-115.5t72.5-39.5q113 0 187 83 15 16 24 16 12 0 12-12 0-8-13-31-27-52-110-95-42-20-100-20zm-95 270h15q66 0 110.5 8.5t74.5 18 39.5 22.5 9.5 40q0 87-87 87-61 0-105.5-58.5t-56.5-117.5z"/><path transform="translate(49 12.992) scale(.014 -.014)" d="m115-11q-16 0-33 8t-17 20q0 27 2 71v307q-3 63-3 76 0 10 20 10 16 0 33-8t17-20l-2-67q23 42 70 70.5t98 28.5q83 0 114-64 22-47 22-124 0-198 1-219 2-45 2-80 0-9-20-9-16 0-33 8t-17 20q1 8 1 27.5t1 39.5v209q0 60-14.5 95t-56.5 35q-69 0-115-55-43-55-48-139-4-45-4-150 0-23 2-81 0-9-20-9z"/><path transform="translate(56 12.992) scale(.014 -.014)" d="m109-11q-16 0-34 8t-18 20 1 39.5 1 294.5q0 236-3 344 0 10 21 10 17 0 34.5-8t17.5-20-1-37.5-1-216.5q72 73 141.5 155t98.5 121q6 6 17 6 12 0 25.5-6t23-14 9.5-15q0-6-31-31-20-18-44-44-74-89-177-195 203-300 269-360 18-16 18-20 0-9-19-19t-39-10q-24 0-38 24-6 10-14 21-20 25-220 318l-20-20q0-257 1.5-287.5t1.5-47.5q0-10-21-10z"/><path transform="translate(63 12.992) scale(.014 -.014)" d="m195-18q-68 0-108 50t-40 143q0 127 70.5 219t155.5 92q72 0 96-53v42q0 10 22 10 16 0 34-7.5t18-19.5q-5-47-9-152-3-81-3-113 0-102 32-159l2-5q0-10-12.5-26t-30.5-16q-16 0-26.5 21.5t-16.5 52-8 47.5q-28-59-76-92.5t-100-33.5zm-1 60q42 0 80 30 93 75 93 258 0 26 1 44-3-3-13-3-6 0-9 5-28 52-73 52-53 0-105.5-70t-52.5-178q0-138 79-138z"/><path transform="translate(70 12.992) scale(.014 -.014)" d="m107-6q-16 0-25 18.5t-9 32.5q0 18 15 18l40-1 88 1q1 47 1 364-36-5-59-5t-35-1q-15 0-23.5 19.5t-8.5 33.5q0 17 13 17 34-6 44-6 69 0 103 10 23 0 37-29 6-11 6-17 0-7-3-13.5t-3-19.5q0-287 1-352 95 0 108 1 15 0 23.5-19.5t8.5-33.5q0-17-13-17-35 6-112 6-95 0-151-2zm143 596q-19 0-33.5 20t-14.5 40q0 19 12 33.5t36 14.5q19 0 33.5-20.5t14.5-41.5q0-18-12.5-32t-35.5-14z"/><path transform="translate(84 12.992) scale(.014 -.014)" d="m64-7q-31 0-31 16l3 32q6 59 9 118 27 460 27 494-1 8-1 21 3 11 22 20t41 9q10-3 11-5 5-11 26-107l71-351q42 183 106 431 3 13 5.5 26.5t14.5 13.5q9 0 24.5-5.5t29-14 13.5-15.5q0-10-2.5-20t-2.5-26q8-93 17-281l13-256q3-37 10-77 0-10-13-16t-29-6q-32 0-32 17 0 132-17 539-51-199-75-298-9-43-15.5-75t-7.5-43.5-15-19.5-31-8q-28 0-30 23-9 55-83 401-6-138-11-300l-6-146v-72q-1-9-14-14t-27-5z"/><path transform="translate(91 12.992) scale(.014 -.014)" d="m236-18q-92 0-142.5 61t-50.5 164q0 44 13 87t31.5 79 37.5 58.5 30 22.5q13 0 16-6 44 38 106 38 105 0 156-112 21-53 21-129 0-95-54-178-61-85-164-85zm0 61q86 0 131 98 21 46 21 104 0 84-29 132.5t-88 48.5q-68 0-114.5-69.5t-46.5-148.5q0-83 33-124t93-41z"/><path transform="translate(98 12.992) scale(.014 -.014)" d="m115-11q-16 0-33 8t-17 20q0 27 2 71v307q-3 63-3 76 0 10 20 10 16 0 33-8t17-20l-2-67q23 42 70 70.5t98 28.5q83 0 114-64 22-47 22-124 0-198 1-219 2-45 2-80 0-9-20-9-16 0-33 8t-17 20q1 8 1 27.5t1 39.5v209q0 60-14.5 95t-56.5 35q-69 0-115-55-43-55-48-139-4-45-4-150 0-23 2-81 0-9-20-9z"/><path transform="translate(105 12.992) scale(.014 -.014)" d="m236-18q-92 0-142.5 61t-50.5 164q0 44 13 87t31.5 79 37.5 58.5 30 22.5q13 0 16-6 44 38 106 38 105 0 156-112 21-53 21-129 0-95-54-178-61-85-164-85zm0 61q86 0 131 98 21 46 21 104 0 84-29 132.5t-88 48.5q-68 0-114.5-69.5t-46.5-148.5q0-83 33-124t93-41z"/><path transform="translate(119 12.992) scale(.014 -.014)" d="m263-11q-15 0-33 8.5t-18 20.5l2 89v523q-109-7-150-14-16 0-25 18.5t-9 32.5q0 18 15 18 7 0 25.5-1t38.5-1q14 0 256 17 39 3 78 8 14 0 22-18.5t8-32.5q0-18-14-18-56 3-71 3l-105-7q1-561 2.5-589.5t1.5-45.5q0-11-24-11z"/><path transform="translate(126 12.992) scale(.014 -.014)" d="m247-16q-61 0-109 31.5t-75.5 100.5-27.5 177q0 175 70.5 297t174.5 122q106 0 172-93 2-4 2-9 0-13-11-31t-24-18q-9 0-14 9-41 77-128 77-94 0-151-170-24-81-24-182 0-247 149-247 104 0 179 125 10 15 23 15 15 0 15-19 0-5-8-25-17-44-70-99-61-61-143-61z"/></svg>