<svg width="130.93" height="16.52" viewBox="0 0 130.93 16.52" xmlns="http://www.w3.org/2000/svg"><path transform="translate(0 13.748) scale(.014 -.014)" d="M505 7V55H162V760H66V7Z"/><path transform="translate(7.49 13.748) scale(.014 -.014)" d="M448 760 309 474 170 760H74L260 375L78 0H173L308 277L442 0H538L356 376L543 760Z"/><path transform="translate(15.89 13.748) scale(.014 -.014)" d="m46 354q0-106 32.5-184.5t92.5-121 141-42.5q109 0 166 79.5t51 222.5h-280v-48h185q-4-97-36.5-151.5t-85.5-54.5q-49 0-87.5 38t-60.5 106-22 156q0 84 24 165t61 131.5 74 50.5q28 0 58-26.5t52-68.5 26-85l96 4q-6 57-40.5 109t-86 83.5-105.5 31.5q-73 0-131-53t-91-144-33-198z"/><path transform="translate(23.996 13.748) scale(.014 -.014)" d="m496 271-92 446-94 1-99-440-80 489-94-8 120-732 93-2 105 466 100-487 94 1 120 754-94 8z"/><path transform="translate(37.338 13.748) scale(.014 -.014)" d="M358 301 162 760H66V0H162V535L358 76L554 535V0H650V760H554Z"/><path transform="translate(47.362 13.748) scale(.014 -.014)" d="m388 260q-2-53-21-100t-55.5-76.5-86.5-29.5q-23 0-43 26t-32.5 71.5-12.5 99.5 15.5 101 40 75.5 51.5 28.5q56 0 92-38.5t47-98.5q1-22 5-59zm47-267 92 14q-31 120-43 255 0 28-4 51-1 3-1 10h-1q-18 79-78 130t-156 51q-59 0-105.5-33t-72-90.5-25.5-129.5q0-112 49-178.5t135-66.5q59 0 107 20.5t82 56.5q9-46 21-90z"/><path transform="translate(55.328 13.748) scale(.014 -.014)" d="m458 455q-35 22-77 34.5t-81 12.5q-80 0-138-46v54h-96v-510h96v234q0 62 18 112t50 79 70 29q24 0 48-9t60-30z"/><path transform="translate(61.866 13.748) scale(.014 -.014)" d="M484 510 198 280V760H102V0H198V195L227 218L480 0H585L282 262L589 510Z"/><path transform="translate(70.406 13.748) scale(.014 -.014)" d="m417 293h-273q9 72 45.5 117.5t87.5 45.5q59 0 97-43.5t43-119.5zm95-48q5 77-23 135.5t-83 91-129 32.5q-67 0-119.5-32t-82-88.5-29.5-129.5q0-118 64.5-183t180.5-65q69 0 122 28.5t78 79.5l-86 20q-22-44-47-62t-67-18q-71 0-109.5 48.5t-39.5 142.5z"/><path transform="translate(78.232 13.748) scale(.014 -.014)" d="m458 455q-35 22-77 34.5t-81 12.5q-80 0-138-46v54h-96v-510h96v234q0 62 18 112t50 79 70 29q24 0 48-9t60-30z"/><path transform="translate(88.242 13.748) scale(.014 -.014)" d="m46 354q0-106 32.5-184.5t92.5-121 141-42.5q109 0 166 79.5t51 222.5h-280v-48h185q-4-97-36.5-151.5t-85.5-54.5q-49 0-87.5 38t-60.5 106-22 156q0 84 24 165t61 131.5 74 50.5q28 0 58-26.5t52-68.5 26-85l96 4q-6 57-40.5 109t-86 83.5-105.5 31.5q-73 0-131-53t-91-144-33-198z"/><path transform="translate(96.348 13.748) scale(.014 -.014)" d="m268 456q40 0 71.5-31t48.5-78.5 17-96.5-14.5-94-42.5-73.5-67-28.5q-68 0-103.5 51.5t-35.5 149.5q0 55 17 101.5t46 73 63 26.5zm-222-201q0-119 61.5-184t173.5-65q69 0 118.5 34t75.5 90 26 120-28.5 122.5-82 95-122.5 36.5q-64 0-114.5-32t-79-89-28.5-128z"/><path transform="translate(104.01 13.748) scale(.014 -.014)" d="M265 504V760H169V504H30V456H169V0H265V456H404V504Z"/><path transform="translate(110.08 13.748) scale(.014 -.014)" d="m517 0q0 236-14.5 336t-59.5 134-151 34q-68 0-119-23v279h-96v-760h96v348q0 53 30 80.5t89 27.5q62 0 87-27t33.5-117 8.5-312z"/><path transform="translate(118.48 13.748) scale(.014 -.014)" d="M192 0V510H96V0ZM192 593V720H96V593Z"/><path transform="translate(122.53 13.748) scale(.014 -.014)" d="m56 254q0-118 64.5-183t180.5-65q94 0 153.5 49.5t73.5 141.5l-94 8q-12-77-44.5-114t-88.5-37q-73 0-111 51t-38 149q0 58 17.5 104t48.5 72 69 26q55 0 92.5-35.5t48.5-98.5l94 8q-9 50-42 89.5t-83.5 62-109.5 22.5q-67 0-119.5-32t-82-88.5-29.5-129.5z"/></svg>