<svg width="64" height="11" viewBox="0 0 64 11" fill="none" xmlns="http://www.w3.org/2000/svg">
<path d="M1.65 10.36H0.5L1.78 0.14H3.19L5.91 7.87H5.93L8.65 0.14H10.06L11.34 10.36H10.19L9.25 1.83H9.22L6.54 9.24H5.3L2.62 1.83H2.59L1.65 10.36ZM17.4 10.36V0.2C17.7533 0.153334 18.0967 0.113333 18.43 0.0799999C18.7633 0.0533333 19.0767 0.0333333 19.37 0.02C19.67 0.00666665 19.9433 0 20.19 0C21.6967 0 22.81 0.276667 23.53 0.83C24.2433 1.39 24.6 2.25667 24.6 3.43C24.6 4.59 24.25 5.45 23.55 6.01C22.8567 6.57667 21.7833 6.86 20.33 6.86C20.0033 6.86 19.66 6.84333 19.3 6.81C18.9467 6.77667 18.5 6.72667 17.96 6.66L18 5.64C18.5333 5.71333 18.9633 5.76667 19.29 5.8C19.6167 5.82667 19.9233 5.84 20.21 5.84C21.3633 5.84 22.19 5.65 22.69 5.27C23.1967 4.89 23.45 4.27667 23.45 3.43C23.45 2.58333 23.1967 1.97 22.69 1.59C22.19 1.21 21.3633 1.02 20.21 1.02C19.8833 1.02 19.5267 1.03333 19.14 1.06C18.7533 1.09333 18.3567 1.14667 17.95 1.22L18.52 0.6V10.36H17.4ZM33.29 10.36H26.33V0.14H27.48V9.34H33.29V10.36ZM38.12 10.5C36.7667 10.5 35.7667 10.1633 35.12 9.49C34.4667 8.81 34.14 7.76 34.14 6.34V0.14H35.26V6.16C35.26 6.95333 35.3567 7.59333 35.55 8.08C35.7433 8.56667 36.05 8.92 36.47 9.14C36.89 9.36667 37.44 9.48 38.12 9.48C38.8 9.48 39.3467 9.36667 39.76 9.14C40.18 8.92 40.4833 8.56667 40.67 8.08C40.8633 7.59333 40.96 6.95333 40.96 6.16V0.14H42.08V6.34C42.08 7.76 41.76 8.81 41.12 9.49C40.4733 10.1633 39.4733 10.5 38.12 10.5ZM47.49 10.5C46.87 10.5 46.25 10.4333 45.63 10.3C45.01 10.1733 44.4867 9.99667 44.06 9.77L44.36 8.76C44.6533 8.9 44.98 9.02667 45.34 9.14C45.7 9.24667 46.07 9.33 46.45 9.39C46.83 9.45 47.2 9.48 47.56 9.48C48.38 9.48 49.01 9.32 49.45 9C49.8967 8.68667 50.12 8.24 50.12 7.66C50.12 7.33333 50.0533 7.06 49.92 6.84C49.78 6.62 49.5833 6.43667 49.33 6.29C49.0833 6.15 48.7833 6.02333 48.43 5.91C48.0833 5.79667 47.7033 5.68333 47.29 5.57C46.8433 5.45 46.4267 5.31333 46.04 5.16C45.66 5.00667 45.3233 4.82 45.03 4.6C44.7367 4.38 44.5067 4.11333 44.34 3.8C44.18 3.48667 44.1 3.11 44.1 2.67C44.1 1.81667 44.42 1.15667 45.06 0.69C45.7067 0.23 46.6133 0 47.78 0C48.38 0 48.9733 0.0566667 49.56 0.17C50.1533 0.29 50.6533 0.446667 51.06 0.64L50.75 1.65C50.3567 1.46333 49.8933 1.31333 49.36 1.2C48.8267 1.08 48.2967 1.02 47.77 1.02C46.9567 1.02 46.3333 1.16667 45.9 1.46C45.4733 1.74667 45.26 2.15667 45.26 2.69C45.26 2.99667 45.3267 3.25333 45.46 3.46C45.5867 3.66667 45.77 3.84 46.01 3.98C46.25 4.12 46.53 4.24333 46.85 4.35C47.17 4.45667 47.53 4.56667 47.93 4.68C48.3967 4.80667 48.8333 4.94667 49.24 5.1C49.6467 5.25333 50.0033 5.44333 50.31 5.67C50.61 5.89667 50.85 6.17 51.03 6.49C51.2033 6.81 51.29 7.20333 51.29 7.67C51.29 8.55667 50.9567 9.25 50.29 9.75C49.6233 10.25 48.69 10.5 47.49 10.5ZM57.15 10.36V9.34C58.19 8.52667 59.0667 7.81333 59.78 7.2C60.4867 6.58 61.0533 6.02667 61.48 5.54C61.9067 5.06 62.2133 4.61667 62.4 4.21C62.5933 3.80333 62.69 3.40667 62.69 3.02C62.69 1.68667 61.9467 1.02 60.46 1.02C59.42 1.02 58.3567 1.39333 57.27 2.14L56.89 1.16C57.9633 0.386667 59.2067 0 60.62 0C61.6733 0 62.4733 0.246667 63.02 0.74C63.5667 1.22667 63.84 1.94667 63.84 2.9C63.84 3.34667 63.75 3.79667 63.57 4.25C63.3967 4.70333 63.1167 5.18 62.73 5.68C62.3367 6.18667 61.8233 6.73667 61.19 7.33C60.5567 7.92333 59.7833 8.58333 58.87 9.31V9.34H63.95V10.36H57.15Z" fill="black"/>
</svg>
