<svg width="127.89" height="16.52" viewBox="0 0 127.89 16.52" xmlns="http://www.w3.org/2000/svg"><path transform="translate(0 12.432) scale(.014 -.014)" d="m763 614-12-1q11-310 23-445 3-33 28-65t25-54.5-13.5-38.5-36-16-38 27.5-18.5 59.5q-24 333-60 505-91-46-178-159 79-125 79-212.5t-59-151-110-63.5-78.5 33-27.5 81.5 32.5 123 85.5 155.5q-46 69-106 122t-117 73q0-3-8-56-35-219-48-576-5-161-7.5-187t-16.5-40.5-32.5-14.5-34 14.5-15.5 47 27 192.5q56 332 60 633-41 9-41 51 0 19 18 31.5t44 12.5q77 0 166.5-65.5t161.5-164.5q76 101 157 165.5t150 64.5q47 0 47-38 0-18-15.5-31t-31.5-13zm-280-435q0 76-53 172-81-130-81-196 0-36 18.5-63t46.5-27 48.5 35.5 20.5 78.5z"/><path transform="translate(12.698 12.432) scale(.014 -.014)" d="m397-6q-41 0-73 85l-8 22q-51-107-153-107-51 0-84.5 32.5t-33.5 81.5q0 76 52 131t136 59q-20 35-44.5 52.5t-44.5 20.5-37.5 3.5-27.5 7.5-10 27.5 16.5 33.5 39.5 13q65 0 128-65t110-204l19-53q7-18 29.5-48.5t22.5-49.5-10-30.5-27-11.5zm-107 162q0 25-9 46.5t-11 26.5q-26 16-62 16t-64.5-24-28.5-62 25.5-63.5 61.5-25.5 62 25.5 26 60.5z"/><path transform="translate(19.124 12.432) scale(.014 -.014)" d="m240 378q-66 0-107.5-45.5t-41.5-108.5 43.5-107 106.5-44q56 0 101 41 16 14 24 14t14-6 6-13q0-29-56.5-72t-128-43-124 58-52.5 144q0 110 83 185t183 75q42 0 68.5-14.5t26.5-37-13.5-36.5-26.5-14-44.5 12-61.5 12z"/><path transform="translate(24.668 12.432) scale(.014 -.014)" d="m135.5 333q-44.5-44-44.5-108t44.5-108.5 108-44.5 106.5 44.5 43 108.5-43 108-106.5 44-108-44zm39.5-339q-64 0-107 50t-43 125.5 47 146 110 105.5 127 35 107-50 43-125.5-47-146-110-105.5-127-35z"/><path transform="translate(31.444 12.432) scale(.014 -.014)" d="m143 286 6-244q0-21-12-34.5t-31-13.5-32.5 13.5-13.5 34.5l7 198t-7 167q0 21 13.5 35t32.5 14 31-13.5 12-33.5-1-30q56 77 129 77 105 0 135-141l38-172q6-23 24.5-49.5t18.5-47.5q0-52-50-52t-65 79l-38 209q-19 100-103 100-43 0-67-29t-27-67z"/><path transform="translate(38.836 12.432) scale(.014 -.014)" d="m391 419q-1 75-7 164.5t-6 112.5 12 38.5 31 15.5 32.5-16.5 13.5-44-8.5-128-8.5-188.5 7-152.5 15-87.5q23-61 23-82 0-57-44-57-53 0-62 113-40-53-96-83t-119-30-106 50-43 115.5 26 122.5 66 94 86.5 58.5 96 21.5 91.5-37zm-255.5-86q-44.5-44-44.5-108t44.5-108.5 108-44.5 106.5 44.5 43 112.5-39 108-106.5 40-112-44z"/><path transform="translate(46.466 12.432) scale(.014 -.014)" d="m135.5 333q-44.5-44-44.5-108t44.5-108.5 108-44.5 106.5 44.5 43 108.5-43 108-106.5 44-108-44zm39.5-339q-64 0-107 50t-43 125.5 47 146 110 105.5 127 35 107-50 43-125.5-47-146-110-105.5-127-35z"/><path transform="translate(57.442 12.432) scale(.014 -.014)" d="m395 567q-57 69-117 69-47 0-79-32t-32-76 25.5-73 63.5-48 82-44.5 82-53 63.5-75 25.5-116.5-27-137-71-117-101-84q-114-70-237-70-83 0-144.5 41t-61.5 93 49 52q19 0 77-53 22-20 60.5-36.5t86-16.5 99.5 18 97.5 51.5 73.5 89 28 124-36 116.5-87 75-102 52.5-87 65.5-36 97.5 25.5 102.5 64.5 68q74 46 147 46t119-34 46-78q0-26-13-39.5t-30-13.5-28.5 9.5-25.5 26.5z"/><path transform="translate(64.75 12.432) scale(.014 -.014)" d="m200-6q-18 0-31.5 15.5t-20.5 37.5q-62 202-109 302-19 43-19 63t11 32 28 12q26 0 42.5-39t61-159.5 53.5-149 12-36.5l3-10q28 19 63.5 79t48.5 119q-19 51-37 91.5t-18 60.5 11 32 28 12q26 0 42.5-39t61-159.5 53.5-149 12-36.5l3-10q36 24 77.5 104.5t41.5 145.5q0 22-12 52.5t-12 47.5 13.5 30.5 36.5 13.5 37.5-22 14.5-74-34.5-141-89.5-157-104-68q-34 0-52 53-4 11-18 55l-25 73q-37-77-84-129t-89-52z"/><path transform="translate(74.774 12.432) scale(.014 -.014)" d="m397-6q-41 0-73 85l-8 22q-51-107-153-107-51 0-84.5 32.5t-33.5 81.5q0 76 52 131t136 59q-20 35-44.5 52.5t-44.5 20.5-37.5 3.5-27.5 7.5-10 27.5 16.5 33.5 39.5 13q65 0 128-65t110-204l19-53q7-18 29.5-48.5t22.5-49.5-10-30.5-27-11.5zm-107 162q0 25-9 46.5t-11 26.5q-26 16-62 16t-64.5-24-28.5-62 25.5-63.5 61.5-25.5 62 25.5 26 60.5z"/><path transform="translate(81.2 12.432) scale(.014 -.014)" d="m57 303q0 54 69 103.5t152 49.5q40 0 61.5-14.5t21.5-37.5-13.5-36.5-27-13.5-44.5 12-64.5 12-58-14-24.5-34 38.5-35 84.5-24 84.5-35.5 38.5-68.5q0-65-76-119t-164-54q-37 0-60 15t-23 37.5 13.5 36 27 13.5 44.5-12 64.5-12 67.5 17.5 34 43-25.5 39.5-61.5 22.5-72 19.5-61.5 33.5-25.5 55.5z"/><path transform="translate(87.178 12.432) scale(.014 -.014)" d="m394 22q-11 21-17 51l-44 209q-10 46-31.5 73t-66 27-69-30.5-25.5-66.5q8-237 8-250.5t-12-27-31-13.5-32.5 13.5-13.5 44.5 5 147.5 5 180.5-5 172-5 139 13.5 45 32.5 14 31-13.5 12-44-4.5-142-4.5-182.5q59 88 136 88 105 0 135-141l38-172q6-29 26.5-51.5t20.5-45.5-16-37.5-35-14.5-31 7-20 21z"/><path transform="translate(98.812 12.432) scale(.014 -.014)" d="m487 438 42-9q32 0 32 46.5t-59.5 99.5-150.5 53q-114 0-179-71.5t-65-194 72-211.5 184-89 200 106q19 24 29 24t15.5-6.5 5.5-19.5-20.5-41.5-55-58-90-51-115.5-21.5q-132 0-219.5 94t-87.5 242.5 100.5 257 250.5 108.5q105 0 172.5-54.5t67.5-137.5q0-66-40.5-109.5t-85.5-43.5q-24 0-35.5 13t-11.5 30 13.5 30.5 30.5 13.5z"/><path transform="translate(108 12.432) scale(.014 -.014)" d="m397-6q-41 0-73 85l-8 22q-51-107-153-107-51 0-84.5 32.5t-33.5 81.5q0 76 52 131t136 59q-20 35-44.5 52.5t-44.5 20.5-37.5 3.5-27.5 7.5-10 27.5 16.5 33.5 39.5 13q65 0 128-65t110-204l19-53q7-18 29.5-48.5t22.5-49.5-10-30.5-27-11.5zm-107 162q0 25-9 46.5t-11 26.5q-26 16-62 16t-64.5-24-28.5-62 25.5-63.5 61.5-25.5 62 25.5 26 60.5z"/><path transform="translate(114.42 12.432) scale(.014 -.014)" d="m118-290q-19 0-33.5 14.5t-14.5 41.5q0 5 9.5 66t9.5 204-5 262q-1 23-17.5 53t-16.5 53 15 37.5 34 14.5q50 0 50-79v-47q42 58 101.5 92t110.5 34q67 0 108-49.5t41-115.5-26-123-66-94-85-58.5-86-21.5q-48 0-48 47 0 21 15 31t30 10 31.5-5 30.5-5q60 0 101 44.5t41 108.5-41 108-101 44q-78 0-114.5-63t-36.5-172q0-58 8-183t8-170q0-79-53-79z"/><path transform="translate(121.91 12.432) scale(.014 -.014)" d="m57 303q0 54 69 103.5t152 49.5q40 0 61.5-14.5t21.5-37.5-13.5-36.5-27-13.5-44.5 12-64.5 12-58-14-24.5-34 38.5-35 84.5-24 84.5-35.5 38.5-68.5q0-65-76-119t-164-54q-37 0-60 15t-23 37.5 13.5 36 27 13.5 44.5-12 64.5-12 67.5 17.5 34 43-25.5 39.5-61.5 22.5-72 19.5-61.5 33.5-25.5 55.5z"/></svg>