<svg width="73.654" height="18.48" viewBox="0 0 73.654 18.48" xmlns="http://www.w3.org/2000/svg"><path transform="translate(0 14.14) scale(.014 -.014)" d="m211 59q0-67-70-67-34 0-54 17t-20 50v413q0 118 50.5 178.5t149.5 60.5q73 0 121-30t64-86q16 56 64 86t123 30q102 0 151-58.5t49-180.5v-403q0-41-16-59t-54-18-56 18.5-18 58.5v411q0 99-85 99-43 0-64-28.5t-21-90.5v-381q0-41-16-59t-54-18-56 18.5-18 58.5v381q0 119-85 119t-85-99z"/><path transform="translate(12.684 14.14) scale(.014 -.014)" d="m240-8q-100 0-156 46.5t-56 120.5q0 87 73.5 126t215.5 27q-7 46-29 62.5t-53 16.5q-25 0-41.5-2.5t-30.5-5.5-34-3q-27 0-43 9.5t-16 38.5q0 41 35.5 60.5t112.5 19.5q122 0 181-69.5t59-185.5q0-134-48.5-197.5t-169.5-63.5zm-68 167q0-57 77-57 25 0 39 9t20.5 36 9.5 81q-5-5-13-7t-16-2q-66 0-91.5-12.5t-25.5-47.5z"/><path transform="translate(19.586 14.14) scale(.014 -.014)" d="m272-8q-110 0-173.5 70t-63.5 205q0 90 26 143t72.5 75.5 105.5 22.5q53 0 86-13t52-44q-7 21-10.5 39.5t-5 43.5-1.5 64v86q0 78 67 78 73 0 73-78v-423q0-135-60-202t-168-67zm-7 120q42 0 65.5 30t23.5 112q0 55-10.5 83.5t-30.5 39.5-48 11-48-11-30.5-39.5-10.5-83.5q0-82 23.5-112t65.5-30z"/><path transform="translate(27.426 14.14) scale(.014 -.014)" d="m135 594q-37 0-62 24t-25 59q0 37 25 61t62 24q38 0 62.5-24t24.5-61q0-35-24.5-59t-62.5-24zm72-535q0-67-70-67-34 0-54 16.5t-20 50.5v381q0 32 16.5 50t55.5 18 55.5-18 16.5-50z"/><path transform="translate(31.206 14.14) scale(.014 -.014)" d="m133-8q-72 0-72 68v240q0 102 48.5 155t139.5 53q124 0 168-89 44 89 168 89 91 0 139.5-53t48.5-155v-240q0-68-72-68t-72 68v232q0 51-17 73.5t-53 22.5q-72 0-72-96v-228q0-68-70-68t-70 68v228q0 96-72 96-70 0-70-96v-232q0-68-72-68z"/><path transform="translate(42.882 14.14) scale(.014 -.014)" d="m135 594q-37 0-62 24t-25 59q0 37 25 61t62 24q38 0 62.5-24t24.5-61q0-35-24.5-59t-62.5-24zm72-535q0-67-70-67-34 0-54 16.5t-20 50.5v381q0 32 16.5 50t55.5 18 55.5-18 16.5-50z"/><path transform="translate(49.714 14.14) scale(.014 -.014)" d="m320-8q-87 0-148 34.5t-92.5 113.5-31.5 214 31.5 213 92.5 111 148 33q88 0 148.5-33t92-111 31.5-213-31.5-214-92-113.5-148.5-34.5zm0 132q40 0 68.5 19t44 69 15.5 142q0 93-15.5 141.5t-44 66-68.5 17.5q-39 0-68-17.5t-44.5-66-15.5-141.5q0-92 15.5-142t44.5-69 68-19z"/><path transform="translate(58.674 14.14) scale(.014 -.014)" d="m133-8q-72 0-72 68v240q0 96 61.5 152t162.5 56 162.5-56 61.5-152v-240q0-68-72-68t-72 68v232q0 47-21 71.5t-59 24.5-59-24.5-21-71.5v-232q0-68-72-68z"/><path transform="translate(66.654 14.14) scale(.014 -.014)" d="m295-8q-100 0-156.5 33t-80 91-23.5 133q0 138 61 198.5t164 60.5q62 0 110-21t75-59.5 27-93.5q0-160-228-160h-58q8-31 26.5-48.5t65.5-17.5q26 0 42 3t30.5 6 33.5 3q27 0 43-9.5t16-38.5q0-41-35.5-60.5t-112.5-19.5zm-116 256q8 11 18 14.5t31 3.5q59 0 81.5 11.5t22.5 41.5q0 38-21 58.5t-53 20.5q-37 0-58-31t-21-119z"/></svg>