<svg width="34.412" height="18.313" viewBox="0 0 34.412 18.313" xmlns="http://www.w3.org/2000/svg"><path transform="translate(0 14.636) scale(.0068359 -.0068359)" d="m178 0 64 1437h274l321-1057 68-231 62 231 322 1057h274l53-1437h-183l-31 988-1 298-85-345-295-909h-237l-295 909-84 345-3-299-40-987z"/><path transform="translate(12.264 14.636) scale(.0068359 -.0068359)" d="m900 221q0-58 12-71.5t48-13.5q11 0 23.5 0.5t22.5 0.5l-14-135t-21.5-1-47.5-2.5-42-1.5q-57 0-90 22.5t-47 51-14 46.5q-21-29-63-60.5t-113-53-180-21.5q-133 0-215.5 79.5t-82.5 213.5q0 120 66 183t171 86.5 221 23.5q35 0 68-2.5t59-4.5l55-8v113q0 107-22 159.5t-72.5 69.5-136.5 17q-100 0-184.5-20.5t-143.5-43.5l20 148q47 20 124 38.5t198 18.5q162 0 249-43t119.5-140 32.5-259zm-336 232q-44 0-99-4.5t-105-22-82.5-55-32.5-103.5q0-77 49.5-114t140.5-37q102 0 171.5 28.5t109.5 58.5v243l-49 3z"/><path transform="translate(19.605 14.636) scale(.0068359 -.0068359)" d="M158 0V1419L343 1437V564L812 1025H1007V986L565 559L1031 35V0H841L433 468L343 385V0Z"/><path transform="translate(26.763 14.636) scale(.0068359 -.0068359)" d="m560-18q-154 0-255 67t-150 186-49 275q0 243 111.5 388t342.5 145q230 0 341.5-145t111.5-388q0-156-49-275t-149.5-186-254.5-67zm0 140q75 0 126.5 28t82.5 80q32 52 45 124.5t13 157.5q0 185-59 287t-208 102q-75 0-125.5-25.5t-82.5-75.5q-31-49-45-121.5t-14-166.5q0-85 14-157.5t45-124.5q32-52 82.5-80t125.5-28z"/></svg>