<svg width="54" height="11" viewBox="0 0 54 11" fill="none" xmlns="http://www.w3.org/2000/svg">
<path d="M5.93 10.18L5.23 10.32L2.61 3.03L2.4 9.44L3.65 9.72V10.18H0.5V9.72L1.63 9.44L1.87 2.35L0.75 2.09V1.63H3.34L5.78 8.47L8.09 1.63H10.76V2.09L9.5 2.37L9.77 9.44L11.05 9.72V10.18H7.39V9.72L8.63 9.44L8.41 3.07L5.93 10.18ZM13.71 10.33C13.3833 10.33 13.11 10.2467 12.89 10.08C12.6633 9.91333 12.4933 9.69667 12.38 9.43C12.2733 9.16333 12.22 8.89 12.22 8.61C12.22 8.39 12.2567 8.14667 12.33 7.88C12.41 7.61333 12.58 7.36667 12.84 7.14C13.0933 6.92 13.4767 6.76333 13.99 6.67L16.11 6.29V5.11C16.11 4.75667 16.03 4.47333 15.87 4.26C15.71 4.04667 15.3833 3.94 14.89 3.94C14.6833 3.94 14.4533 3.95333 14.2 3.98C13.9533 4.01333 13.72 4.06333 13.5 4.13L13.17 5.34H12.75L12.51 3.7C12.9033 3.54667 13.32 3.42333 13.76 3.33C14.2067 3.23 14.6667 3.18 15.14 3.18C15.5733 3.18 15.9467 3.22667 16.26 3.32C16.58 3.41333 16.8267 3.57 17 3.79C17.18 4.01 17.27 4.31667 17.27 4.71V9.37L18.46 9.62V10.01C18.2 10.0967 17.9467 10.1567 17.7 10.19C17.46 10.2233 17.2467 10.24 17.06 10.24C16.8333 10.24 16.6333 10.1767 16.46 10.05C16.2933 9.92333 16.1867 9.73 16.14 9.47C15.78 9.73 15.4 9.94 15 10.1C14.6 10.2533 14.17 10.33 13.71 10.33ZM14.46 9.47C14.7267 9.47 15.0133 9.41333 15.32 9.3C15.62 9.18667 15.8833 9.07 16.11 8.95V6.9L14.65 7.14C14.1833 7.21333 13.8633 7.37333 13.69 7.62C13.5167 7.86 13.43 8.12 13.43 8.4C13.43 8.8 13.53 9.07667 13.73 9.23C13.9233 9.39 14.1667 9.47 14.46 9.47ZM22.72 10.18H19.16V9.79L20.41 9.44V4.16L19.16 4.02V3.7L21.19 3.18H21.57V3.74C21.7567 3.65333 21.9833 3.57 22.25 3.49C22.5233 3.40333 22.82 3.33 23.14 3.27C23.4533 3.21 23.7633 3.18 24.07 3.18C24.41 3.18 24.72 3.22667 25 3.32C25.28 3.41333 25.5067 3.57333 25.68 3.8C25.8533 4.02 25.94 4.32333 25.94 4.71V9.44L27.2 9.79V10.18H23.63V9.79L24.77 9.44V4.94C24.77 4.56667 24.6767 4.32 24.49 4.2C24.2967 4.08 23.9233 4.02 23.37 4.02C23.0833 4.02 22.7733 4.04 22.44 4.08C22.1133 4.11333 21.8233 4.16667 21.57 4.24V9.44L22.72 9.79V10.18ZM30.5 10.32C30.1 10.32 29.7833 10.24 29.55 10.08C29.3167 9.92 29.15 9.71333 29.05 9.46C28.95 9.2 28.9 8.93 28.9 8.65V4.16L27.66 4.02V3.7L29.72 3.18H30.08V8.5C30.08 8.80667 30.1467 9.04333 30.28 9.21C30.42 9.37 30.73 9.45 31.21 9.45C31.4633 9.45 31.7767 9.40333 32.15 9.31C32.5167 9.21667 32.84 9.12 33.12 9.02V4.16L31.86 4.02V3.7L33.92 3.18H34.29V9.37L35.57 9.62V10.01C35.2767 10.0967 35.0033 10.1567 34.75 10.19C34.49 10.2233 34.2667 10.24 34.08 10.24C33.9067 10.24 33.7233 10.1767 33.53 10.05C33.3367 9.93 33.2233 9.76 33.19 9.54C32.93 9.64 32.6533 9.75333 32.36 9.88C32.0733 10.0067 31.7733 10.11 31.46 10.19C31.1467 10.2767 30.8267 10.32 30.5 10.32ZM38.23 10.33C37.9033 10.33 37.6267 10.2467 37.4 10.08C37.18 9.91333 37.0133 9.69667 36.9 9.43C36.7867 9.16333 36.73 8.89 36.73 8.61C36.73 8.39 36.77 8.14667 36.85 7.88C36.93 7.61333 37.0967 7.36667 37.35 7.14C37.61 6.92 37.9967 6.76333 38.51 6.67L40.62 6.29V5.11C40.62 4.75667 40.54 4.47333 40.38 4.26C40.2267 4.04667 39.9 3.94 39.4 3.94C39.2 3.94 38.9733 3.95333 38.72 3.98C38.4667 4.01333 38.2333 4.06333 38.02 4.13L37.68 5.34H37.26L37.02 3.7C37.4133 3.54667 37.8333 3.42333 38.28 3.33C38.72 3.23 39.18 3.18 39.66 3.18C40.0867 3.18 40.46 3.22667 40.78 3.32C41.0933 3.41333 41.34 3.57 41.52 3.79C41.6933 4.01 41.78 4.31667 41.78 4.71V9.37L42.97 9.62V10.01C42.71 10.0967 42.46 10.1567 42.22 10.19C41.9733 10.2233 41.7567 10.24 41.57 10.24C41.35 10.24 41.1533 10.1767 40.98 10.05C40.8067 9.92333 40.6967 9.73 40.65 9.47C40.2967 9.73 39.92 9.94 39.52 10.1C39.1133 10.2533 38.6833 10.33 38.23 10.33ZM38.97 9.47C39.2433 9.47 39.53 9.41333 39.83 9.3C40.1367 9.18667 40.4 9.07 40.62 8.95V6.9L39.17 7.14C38.7033 7.21333 38.3833 7.37333 38.21 7.62C38.0367 7.86 37.95 8.12 37.95 8.4C37.95 8.8 38.0467 9.07667 38.24 9.23C38.44 9.39 38.6833 9.47 38.97 9.47ZM47.16 10.18H43.48V9.72L44.74 9.44V1L43.48 0.86V0.53L45.52 0H45.9V9.44L47.16 9.72V10.18ZM51.12 10.33C50.6 10.33 50.1433 10.2567 49.75 10.11C49.3567 9.96333 49.0267 9.74 48.76 9.44C48.4933 9.14 48.2967 8.76667 48.17 8.32C48.0367 7.88 47.97 7.36667 47.97 6.78C47.97 6.19333 48.0367 5.67333 48.17 5.22C48.2967 4.77333 48.4867 4.4 48.74 4.1C48.9933 3.79333 49.3067 3.56333 49.68 3.41C50.0533 3.25667 50.4833 3.18 50.97 3.18C51.8633 3.18 52.5267 3.39333 52.96 3.82C53.3867 4.24 53.6 4.90333 53.6 5.81C53.6 5.88333 53.5967 5.96 53.59 6.04C53.59 6.11333 53.59 6.18667 53.59 6.26C53.59 6.33333 53.5833 6.41667 53.57 6.51H49.26V6.96C49.26 7.5 49.3433 7.97 49.51 8.37C49.67 8.76333 49.9033 9.06667 50.21 9.28C50.5167 9.48667 50.8867 9.59 51.32 9.59C51.62 9.59 51.9567 9.56333 52.33 9.51C52.71 9.45 53.0733 9.37333 53.42 9.28L53.5 9.72C53.1 9.94 52.7233 10.0967 52.37 10.19C52.0167 10.2833 51.6 10.33 51.12 10.33ZM49.29 6.02L52.34 5.88V5.56C52.34 5.18 52.2967 4.86333 52.21 4.61C52.1167 4.35667 51.9767 4.17 51.79 4.05C51.5967 3.93 51.35 3.87 51.05 3.87C50.65 3.87 50.3233 3.94 50.07 4.08C49.8167 4.22667 49.63 4.45667 49.51 4.77C49.39 5.08333 49.3167 5.5 49.29 6.02Z" fill="black"/>
</svg>
