<svg width="75.166" height="17.486" viewBox="0 0 75.166 17.486" xmlns="http://www.w3.org/2000/svg"><path transform="translate(0 12.096) scale(.014 -.014)" d="m817-103-12-37q-26-2-39-2-60 0-97.5 50.5t-37.5 131.5q0 49 22.5 185.5t52.5 249.5q6 25 6 33t-7 8-44.5-74.5-89.5-183-59.5-124-12-25-18-34-25.5-43.5q-33-50-52-50-13 0-28.5 7t-20.5 15q-11 17-11 106 0 186 30 355 10 56 10 59 0 10-8 10-16 0-51-100l-29-83q-64-181-129.5-282t-150.5-142l-26 55q97 72 149.5 147t114.5 242l34 91q35 95 61 135.5t58 40.5q53 0 53-64 0-5-19-202.5t-19-260.5q0-18 6-19 5 0 11 10 81 135 155 294 9 20 31 69t43 87 32 46.5 35 8.5 41.5-17.5 17.5-41.5-7-55q-78-381-78-455.5t24-102 84-38.5z"/><path transform="translate(11.298 12.096) scale(.014 -.014)" d="m439 101 23-17q-14-30-51.5-57t-68.5-27q-59 0-59 62 0 29 15 69l-37-38q-54-55-93.5-74t-77.5-19-57.5 21.5-19.5 59.5q0 70 54 138.5t138 111.5 168 44l2-33-42-9q-91-20-160.5-80t-69.5-119.5 48-59.5q45 0 111 63t110 148l42-25q-62-125-62-159 0-14 9.5-23.5t19-9.5 12.5 1 6 2.5 7.5 4.5 8 6 11.5 9 13 10z"/><path transform="translate(17.864 12.096) scale(.014 -.014)" d="m290 354q25 0 41-17t16-44q0-54-62-114l-24 19q14 31 14 45 0 27-30 27t-57-38-63.5-117.5-55.5-112.5l-57 25q55 125 63 147 27 78 27 198l56 15q-3-65-9-100.5t-29-115.5q101 183 170 183z"/><path transform="translate(22.834 12.096) scale(.014 -.014)" d="m281 142 24-20q-24-55-77-88t-102.5-33-82 31-32.5 85 47 117 121.5 104 146.5 41q10 0 30-2l-3-39q-110-5-182.5-67t-72.5-132q0-29 18-47t47-18q46 0 118 68z"/><path transform="translate(27.944 12.096) scale(.014 -.014)" d="m414 102 25-22q-58-95-123-95-40 0-82 59t-42 97q0 24 72 48 27 9 49.5 27.5t22.5 38.5-11 30.5-28 10.5q-110-10-230-296l-61 21q0 43 116.5 348t165.5 369l49-18q-135-235-226-546 78 117 134 156t107 39q31 0 49.5-19t18.5-48.5-14.5-53.5-41.5-42q-39-26-96-51 9-47 31-71t50-24q15 0 65 42z"/><path transform="translate(41.006 12.096) scale(.014 -.014)" d="m526 181 71 1v-41q-12 2-28 2t-36-2q0-77-74-156t-178.5-128.5-194.5-49.5q-47 0-76.5 24t-29.5 63q0 58 77 121t180 104 186 48q-10 15-31 26t-86 34.5-92 52-27 80.5 56 119 132.5 112.5 134.5 45.5q26 0 43-18.5t17-45.5q0-44-53-110.5t-118-101.5l-24 34q39 20 68.5 62.5t29.5 73.5-33 31q-47 0-107.5-58.5t-60.5-109.5q0-35 18-55t91-49.5 104-52 41-56.5zm-446-261q0-48 78-48 43 0 111.5 31.5t121 88 52.5 115.5q0 7-3 21-137-13-248.5-77t-111.5-131z"/><path transform="translate(49.784 12.096) scale(.014 -.014)" d="m281 142 24-20q-24-55-77-88t-102.5-33-82 31-32.5 85 47 117 121.5 104 146.5 41q10 0 30-2l-3-39q-110-5-182.5-67t-72.5-132q0-29 18-47t47-18q46 0 118 68z"/><path transform="translate(54.894 12.096) scale(.014 -.014)" d="m290 354q25 0 41-17t16-44q0-54-62-114l-24 19q14 31 14 45 0 27-30 27t-57-38-63.5-117.5-55.5-112.5l-57 25q55 125 63 147 27 78 27 198l56 15q-3-65-9-100.5t-29-115.5q101 183 170 183z"/><path transform="translate(59.864 12.096) scale(.014 -.014)" d="m214 424q-56 0-56 45 0 25 14 42t36 17 36-13 14-34-12-39-32-18zm-13-295 20-17q-24-46-63.5-78.5t-71.5-32.5q-56 0-56 78 0 97 80 253 18 34 21 40l43-26q-21-38-51.5-121t-30.5-106.5 10-33.5 24-10q27 0 75 54z"/><path transform="translate(63.616 12.096) scale(.014 -.014)" d="m477 291q0-108-77.5-199.5t-174.5-91.5q-43 0-68 15l24 43q52-7 65-7 54 0 101 63t47 129q0 25-14.5 41.5t-37.5 16.5q-55 0-124.5-97t-130-240.5-105.5-305.5l-60 21q2 6 37.5 103.5t69.5 193.5q94 264 94 289 0 64-26 116l50 25q31-43 31-90.5t-19-131.5q76 114 132 155.5t98 41.5 65-25.5 23-64.5z"/><path transform="translate(70.546 12.096) scale(.014 -.014)" d="m244 112 22-25q-25-39-60.5-61t-71.5-22-57 20.5-21 56.5q0 84 63 232-51-8-102-24l-7 39-1 1q50 21 131 34 8 15 36 73 56 115 80 149l43-17q-10-22-35-73.5t-56-116.5q45 3 71 3t40-8v-43q-14 3-40.5 3t-94.5-9q-59-132-59-192 0-23 14.5-38t39-15 65.5 33z"/></svg>