<svg width="87" height="11" viewBox="0 0 87 11" fill="none" xmlns="http://www.w3.org/2000/svg">
<path d="M0.5 9.98V9.95C0.553333 9.87667 0.61 9.77 0.67 9.63C0.736667 9.48333 0.786667 9.3 0.82 9.08C0.873333 8.76667 0.93 8.41 0.99 8.01C1.05 7.61 1.11333 7.19 1.18 6.75C1.24667 6.31667 1.31333 5.87 1.38 5.41C1.44667 4.95 1.51 4.5 1.57 4.06C1.63 3.61333 1.69 3.18333 1.75 2.77C1.81 2.35667 1.86 1.98 1.9 1.64C1.94667 1.3 1.98667 1.00333 2.02 0.75C2.04667 0.496667 2.06667 0.306666 2.08 0.18H2.95L7.25 8.22L11.51 0.18H12.16L13.29 8.3C13.3167 8.55333 13.35 8.77 13.39 8.95C13.4233 9.13667 13.46 9.29333 13.5 9.42C13.5333 9.55333 13.5667 9.66 13.6 9.74C13.6333 9.82667 13.6667 9.89667 13.7 9.95V9.98H11.98V9.95C12 9.90333 12.02 9.82333 12.04 9.71C12.0667 9.59667 12.08 9.46 12.08 9.3C12.08 9.24 12.0767 9.18 12.07 9.12C12.0633 9.05333 12.0567 8.98333 12.05 8.91L11.18 2.36L7.15 9.95L6.68 9.9L2.61 2.3C2.45667 3.38 2.32 4.37667 2.2 5.29C2.14667 5.68333 2.09667 6.07333 2.05 6.46C1.99667 6.85333 1.95 7.21667 1.91 7.55C1.87667 7.89 1.84667 8.19 1.82 8.45C1.8 8.70333 1.79 8.89333 1.79 9.02C1.79 9.17333 1.79333 9.31 1.8 9.43C1.80667 9.54333 1.81667 9.64333 1.83 9.73C1.84333 9.82333 1.85667 9.90667 1.87 9.98H0.5ZM19.89 8.22L19.62 7.67C19.5 7.67 19.3467 7.67 19.16 7.67C18.9733 7.67 18.7733 7.67 18.56 7.67C18.34 7.67 18.1133 7.67 17.88 7.67C17.6467 7.67 17.4267 7.67 17.22 7.67C17.0067 7.67667 16.8133 7.68 16.64 7.68C16.4667 7.68 16.3333 7.68 16.24 7.68L15.99 8.22C15.8767 8.43333 15.7833 8.62333 15.71 8.79C15.63 8.95 15.5633 9.09 15.51 9.21C15.4633 9.33667 15.4267 9.44333 15.4 9.53C15.38 9.62333 15.37 9.70667 15.37 9.78C15.37 9.83333 15.3733 9.87 15.38 9.89C15.38 9.91667 15.3867 9.93667 15.4 9.95V9.98H14.19V9.95C14.2233 9.91667 14.2733 9.84667 14.34 9.74C14.4133 9.63333 14.4933 9.50333 14.58 9.35C14.6667 9.19667 14.7633 9.02 14.87 8.82C14.97 8.62667 15.07 8.42667 15.17 8.22L17.96 2.46H18.47L21.21 8.22C21.3167 8.43333 21.4233 8.64333 21.53 8.85C21.6367 9.05 21.7333 9.22667 21.82 9.38C21.9133 9.54 21.9933 9.67 22.06 9.77C22.1333 9.87667 22.18 9.93667 22.2 9.95V9.98H20.45C20.4567 9.94667 20.46 9.91333 20.46 9.88C20.46 9.85333 20.46 9.82 20.46 9.78C20.46 9.68 20.44 9.56 20.4 9.42C20.3533 9.28 20.3 9.13667 20.24 8.99C20.18 8.83667 20.1167 8.69333 20.05 8.56C19.9833 8.42 19.93 8.30667 19.89 8.22ZM17.96 4.1L16.51 7.14H16.92C17.1133 7.14 17.3167 7.13667 17.53 7.13C17.75 7.13 17.97 7.13 18.19 7.13C18.4033 7.13 18.6133 7.13 18.82 7.13C19.0267 7.12333 19.2133 7.12 19.38 7.12L17.96 4.1ZM24.41 3.1V6.41C24.5033 6.42333 24.5967 6.43333 24.69 6.44C24.7833 6.44667 24.8733 6.45 24.96 6.45C25.5333 6.45 25.9667 6.29667 26.26 5.99C26.5533 5.69 26.7 5.23333 26.7 4.62C26.7 4.12 26.5833 3.72333 26.35 3.43C26.11 3.13667 25.7633 2.99 25.31 2.99C25.1633 2.99 25.0333 2.99667 24.92 3.01C24.8133 3.02333 24.72 3.03667 24.64 3.05C24.5533 3.07 24.4767 3.08667 24.41 3.1ZM26.9 8.89L25.46 6.86C25.3667 6.87333 25.2767 6.88 25.19 6.88C25.1033 6.88 25.0133 6.88 24.92 6.88C24.8467 6.88 24.7667 6.88 24.68 6.88C24.5933 6.87333 24.5033 6.86667 24.41 6.86V7.19C24.41 7.59667 24.4167 7.95 24.43 8.25C24.4367 8.55667 24.45 8.82 24.47 9.04C24.4833 9.25333 24.5 9.43667 24.52 9.59C24.5467 9.73667 24.5767 9.85667 24.61 9.95V9.98H23.03V9.95C23.0567 9.85667 23.0833 9.73333 23.11 9.58C23.1367 9.43333 23.1567 9.25 23.17 9.03C23.19 8.80333 23.2033 8.54 23.21 8.24C23.2167 7.93333 23.22 7.57333 23.22 7.16V5.44C23.22 5.03333 23.2167 4.67667 23.21 4.37C23.2033 4.07 23.19 3.80667 23.17 3.58C23.1567 3.36 23.1367 3.17667 23.11 3.03C23.0833 2.87667 23.0567 2.75333 23.03 2.66V2.63C23.1033 2.63667 23.18 2.64333 23.26 2.65C23.3267 2.65 23.4033 2.65333 23.49 2.66C23.57 2.66 23.6533 2.66 23.74 2.66C23.8867 2.66 24.1033 2.64667 24.39 2.62C24.6767 2.59333 25.0167 2.58 25.41 2.58C25.7967 2.58 26.1533 2.62667 26.48 2.72C26.8 2.81333 27.0733 2.95 27.3 3.13C27.5333 3.31 27.7133 3.52667 27.84 3.78C27.96 4.03333 28.02 4.31667 28.02 4.63C28.02 4.87667 27.9867 5.10333 27.92 5.31C27.8533 5.51 27.7567 5.69 27.63 5.85C27.51 6.01667 27.3667 6.16 27.2 6.28C27.0267 6.40667 26.84 6.51333 26.64 6.6L28.06 8.62C28.1867 8.78667 28.3133 8.94333 28.44 9.09C28.5667 9.24333 28.6867 9.37667 28.8 9.49C28.9133 9.61 29.02 9.71 29.12 9.79C29.22 9.87 29.3033 9.92333 29.37 9.95V9.98H27.58C27.58 9.94 27.55 9.86667 27.49 9.76C27.4367 9.66 27.3733 9.55333 27.3 9.44C27.22 9.33333 27.1433 9.22667 27.07 9.12C26.9967 9.01333 26.94 8.93667 26.9 8.89ZM36.1 8.41L36.19 8.46L35.65 9.73C35.5167 9.79 35.3667 9.84333 35.2 9.89C35.04 9.93667 34.87 9.97667 34.69 10.01C34.51 10.0433 34.33 10.0667 34.15 10.08C33.9633 10.0933 33.7867 10.1 33.62 10.1C33.0467 10.1 32.5167 10.0167 32.03 9.85C31.5367 9.68333 31.1133 9.43667 30.76 9.11C30.4 8.78333 30.12 8.38333 29.92 7.91C29.72 7.43667 29.62 6.89333 29.62 6.28C29.62 5.74667 29.7267 5.24667 29.94 4.78C30.1467 4.32 30.4367 3.92 30.81 3.58C31.1767 3.24667 31.61 2.98333 32.11 2.79C32.6167 2.59667 33.1633 2.5 33.75 2.5C33.8833 2.5 34.0233 2.50667 34.17 2.52C34.3167 2.53333 34.4633 2.55 34.61 2.57C34.7567 2.59 34.9 2.61667 35.04 2.65C35.1733 2.67667 35.3 2.70667 35.42 2.74L35.93 3.97L35.85 4.02C35.73 3.86667 35.5833 3.72667 35.41 3.6C35.2367 3.47333 35.05 3.36667 34.85 3.28C34.65 3.18667 34.4367 3.11667 34.21 3.07C33.99 3.01667 33.7633 2.99 33.53 2.99C33.15 2.99 32.8033 3.05667 32.49 3.19C32.1767 3.32333 31.91 3.51667 31.69 3.77C31.47 4.02333 31.3 4.33333 31.18 4.7C31.0533 5.06 30.99 5.47 30.99 5.93C30.99 6.45 31.05 6.93667 31.17 7.39C31.29 7.83667 31.4667 8.22333 31.7 8.55C31.94 8.88333 32.2367 9.14333 32.59 9.33C32.9433 9.52333 33.3567 9.62 33.83 9.62C34.0633 9.62 34.29 9.59 34.51 9.53C34.73 9.47667 34.94 9.39667 35.14 9.29C35.3333 9.18333 35.5133 9.05667 35.68 8.91C35.8467 8.76333 35.9867 8.59667 36.1 8.41ZM37.29 2.63C37.7367 2.63 38.1967 2.63 38.67 2.63C39.1367 2.62333 39.57 2.61667 39.97 2.61C40.37 2.60333 40.7167 2.59667 41.01 2.59C41.2967 2.58333 41.4867 2.57 41.58 2.55L41.31 3.29C41.19 3.25667 41.0533 3.22667 40.9 3.2C40.76 3.17333 40.5933 3.15 40.4 3.13C40.2067 3.11 39.9833 3.1 39.73 3.1C39.6367 3.1 39.53 3.10333 39.41 3.11C39.29 3.11667 39.1767 3.12667 39.07 3.14C38.9433 3.14667 38.8133 3.15333 38.68 3.16V5.86C39.0467 5.86 39.38 5.85333 39.68 5.84C39.9733 5.82667 40.2267 5.80667 40.44 5.78C40.6867 5.76667 40.9033 5.74333 41.09 5.71L40.92 6.52C40.6733 6.48667 40.42 6.46 40.16 6.44C39.9467 6.41333 39.7067 6.39333 39.44 6.38C39.1733 6.36667 38.92 6.36 38.68 6.36V9.46C39.1067 9.46 39.4967 9.44333 39.85 9.41C40.2033 9.37667 40.5133 9.34 40.78 9.3C41.0867 9.24667 41.3667 9.19 41.62 9.13L41.46 10.02C41.3933 10.0133 41.2833 10.0067 41.13 10C40.9767 9.99333 40.8167 9.99 40.65 9.99C40.4833 9.99 40.3267 9.98667 40.18 9.98C40.04 9.98 39.94 9.98 39.88 9.98H37.29V9.95C37.3233 9.85667 37.3533 9.73333 37.38 9.58C37.4067 9.43333 37.4267 9.25 37.44 9.03C37.4533 8.80333 37.4667 8.54 37.48 8.24C37.4867 7.93333 37.49 7.57333 37.49 7.16V5.44C37.49 5.03333 37.4867 4.67667 37.48 4.37C37.4667 4.07 37.4533 3.80667 37.44 3.58C37.4267 3.36 37.4067 3.17667 37.38 3.03C37.3533 2.87667 37.3233 2.75333 37.29 2.66V2.63ZM44.53 5.44V9.45C44.9567 9.45 45.3467 9.43333 45.7 9.4C46.06 9.36 46.3733 9.32 46.64 9.28C46.96 9.23333 47.2467 9.17667 47.5 9.11L47.34 10.02C47.28 10.0133 47.1733 10.0067 47.02 10C46.8667 9.99333 46.7067 9.99 46.54 9.99C46.3667 9.99 46.2067 9.98667 46.06 9.98C45.9133 9.98 45.8133 9.98 45.76 9.98H43.14V9.95C43.1733 9.85667 43.2033 9.73333 43.23 9.58C43.2567 9.43333 43.2767 9.25 43.29 9.03C43.31 8.80333 43.3233 8.54 43.33 8.24C43.3367 7.93333 43.34 7.57333 43.34 7.16V5.44C43.34 5.03333 43.3367 4.67667 43.33 4.37C43.3233 4.07 43.31 3.80667 43.29 3.58C43.2767 3.36 43.2567 3.17667 43.23 3.03C43.2033 2.87667 43.1733 2.75333 43.14 2.66V2.63H44.72V2.66C44.6933 2.75333 44.6667 2.87667 44.64 3.03C44.62 3.17667 44.6 3.36 44.58 3.58C44.5667 3.80667 44.5567 4.07 44.55 4.37C44.5367 4.67667 44.53 5.03333 44.53 5.44ZM50.06 5.44V9.45C50.4867 9.45 50.88 9.43333 51.24 9.4C51.5933 9.36 51.9067 9.32 52.18 9.28C52.4933 9.23333 52.7767 9.17667 53.03 9.11L52.87 10.02C52.81 10.0133 52.7033 10.0067 52.55 10C52.3967 9.99333 52.2367 9.99 52.07 9.99C51.8967 9.99 51.7367 9.98667 51.59 9.98C51.45 9.98 51.35 9.98 51.29 9.98H48.68V9.95C48.7067 9.85667 48.7333 9.73333 48.76 9.58C48.7867 9.43333 48.8067 9.25 48.82 9.03C48.84 8.80333 48.8533 8.54 48.86 8.24C48.8667 7.93333 48.87 7.57333 48.87 7.16V5.44C48.87 5.03333 48.8667 4.67667 48.86 4.37C48.8533 4.07 48.84 3.80667 48.82 3.58C48.8067 3.36 48.7867 3.17667 48.76 3.03C48.7333 2.87667 48.7067 2.75333 48.68 2.66V2.63H50.25V2.66C50.2233 2.75333 50.1967 2.87667 50.17 3.03C50.15 3.17667 50.13 3.36 50.11 3.58C50.0967 3.80667 50.0867 4.07 50.08 4.37C50.0667 4.67667 50.06 5.03333 50.06 5.44ZM59.83 7.46V5.41C59.83 5.01 59.8267 4.65667 59.82 4.35C59.82 4.05 59.8133 3.79 59.8 3.57C59.7867 3.35667 59.77 3.17333 59.75 3.02C59.73 2.87333 59.7067 2.75333 59.68 2.66V2.63H60.69V2.66C60.6567 2.75333 60.6333 2.87667 60.62 3.03C60.6 3.17667 60.5833 3.36 60.57 3.58C60.5567 3.80667 60.5467 4.07 60.54 4.37C60.54 4.67667 60.54 5.03333 60.54 5.44V7.4C60.54 7.89333 60.4633 8.31333 60.31 8.66C60.1567 9.00667 59.9433 9.29 59.67 9.51C59.4033 9.73 59.0833 9.89333 58.71 10C58.3433 10.1 57.9367 10.15 57.49 10.15C57.0433 10.15 56.63 10.1 56.25 10C55.87 9.90667 55.5367 9.75333 55.25 9.54C54.97 9.32 54.75 9.04 54.59 8.7C54.43 8.36 54.35 7.94667 54.35 7.46V5.44C54.35 5.03333 54.3467 4.67667 54.34 4.37C54.3267 4.07 54.31 3.80667 54.29 3.58C54.2767 3.36 54.2567 3.17667 54.23 3.03C54.21 2.87667 54.1833 2.75333 54.15 2.66V2.63H55.73V2.66C55.6967 2.75333 55.67 2.87333 55.65 3.02C55.6233 3.17333 55.6033 3.35667 55.59 3.57C55.5767 3.79 55.5633 4.05 55.55 4.35C55.5433 4.65667 55.54 5.01 55.54 5.41V7.46C55.54 7.86667 55.6 8.2 55.72 8.46C55.8467 8.72 56.01 8.92667 56.21 9.08C56.41 9.24 56.6367 9.35 56.89 9.41C57.1433 9.47 57.4067 9.5 57.68 9.5C57.9533 9.5 58.2167 9.47 58.47 9.41C58.73 9.35 58.96 9.24 59.16 9.08C59.3667 8.92667 59.53 8.72 59.65 8.46C59.77 8.2 59.83 7.86667 59.83 7.46ZM65.83 2.9L65.79 4.06H65.66C65.6267 3.98 65.58 3.88333 65.52 3.77C65.46 3.65 65.38 3.53333 65.28 3.42C65.1733 3.30667 65.0467 3.21 64.9 3.13C64.7467 3.05 64.5667 3.01 64.36 3.01C64.2 3.01 64.0567 3.03667 63.93 3.09C63.8033 3.13667 63.6967 3.20667 63.61 3.3C63.5233 3.39333 63.4567 3.50333 63.41 3.63C63.3633 3.75 63.34 3.88333 63.34 4.03C63.34 4.27 63.4133 4.49667 63.56 4.71C63.7067 4.92333 63.8867 5.13667 64.1 5.35C64.3133 5.56333 64.5433 5.77667 64.79 5.99C65.0433 6.20333 65.2767 6.42667 65.49 6.66C65.7033 6.89333 65.8833 7.14 66.03 7.4C66.17 7.66 66.24 7.93667 66.24 8.23C66.24 8.45 66.2 8.67667 66.12 8.91C66.04 9.14333 65.9133 9.35333 65.74 9.54C65.56 9.72667 65.33 9.88 65.05 10C64.7767 10.12 64.44 10.18 64.04 10.18C63.82 10.18 63.6133 10.16 63.42 10.12C63.22 10.0867 63.0367 10.0433 62.87 9.99C62.7033 9.93667 62.5567 9.88 62.43 9.82C62.2967 9.76 62.1867 9.70333 62.1 9.65L62.22 8.35H62.37C62.4167 8.51 62.4833 8.67 62.57 8.83C62.6567 8.99 62.7667 9.13667 62.9 9.27C63.0267 9.39667 63.18 9.5 63.36 9.58C63.5333 9.66 63.7333 9.7 63.96 9.7C64.12 9.7 64.27 9.67333 64.41 9.62C64.55 9.56667 64.6733 9.49333 64.78 9.4C64.88 9.30667 64.96 9.19 65.02 9.05C65.08 8.91 65.11 8.75333 65.11 8.58C65.11 8.37333 65.07 8.18333 64.99 8.01C64.9033 7.83 64.7933 7.66 64.66 7.5C64.52 7.34 64.3667 7.18333 64.2 7.03C64.0267 6.88333 63.85 6.73333 63.67 6.58C63.4833 6.42 63.3067 6.26 63.14 6.1C62.9667 5.94 62.8133 5.76667 62.68 5.58C62.54 5.39333 62.43 5.19333 62.35 4.98C62.2633 4.76667 62.22 4.53333 62.22 4.28C62.22 4.01333 62.2767 3.77 62.39 3.55C62.51 3.33667 62.6633 3.15667 62.85 3.01C63.0367 2.86333 63.25 2.75 63.49 2.67C63.73 2.59 63.98 2.55 64.24 2.55C64.4333 2.55 64.6133 2.56333 64.78 2.59C64.9467 2.61667 65.0967 2.65 65.23 2.69C65.3633 2.73 65.48 2.77 65.58 2.81C65.68 2.84333 65.7633 2.87333 65.83 2.9ZM76.09 0.46L76.04 1.74H75.89C75.85 1.63333 75.79 1.51333 75.71 1.38C75.63 1.24667 75.5267 1.12333 75.4 1.01C75.2733 0.89 75.1167 0.793333 74.93 0.72C74.7433 0.64 74.5267 0.6 74.28 0.6C74.0533 0.6 73.8533 0.633333 73.68 0.7C73.5067 0.773333 73.3633 0.87 73.25 0.99C73.13 1.11667 73.04 1.26333 72.98 1.43C72.92 1.59667 72.89 1.78333 72.89 1.99C72.89 2.31667 72.9833 2.63 73.17 2.93C73.3567 3.23 73.59 3.52333 73.87 3.81C74.1433 4.10333 74.4433 4.39667 74.77 4.69C75.09 4.98333 75.39 5.28667 75.67 5.6C75.95 5.91333 76.18 6.24333 76.36 6.59C76.5467 6.93 76.64 7.3 76.64 7.7C76.64 7.99333 76.59 8.29 76.49 8.59C76.3833 8.89 76.2233 9.15667 76.01 9.39C75.7967 9.63 75.52 9.82333 75.18 9.97C74.8467 10.1167 74.4467 10.19 73.98 10.19C73.72 10.19 73.4733 10.1667 73.24 10.12C73.0067 10.0733 72.79 10.0133 72.59 9.94C72.39 9.87333 72.2133 9.79667 72.06 9.71C71.9 9.63 71.77 9.55667 71.67 9.49L71.83 7.98H72C72.0467 8.19333 72.13 8.39667 72.25 8.59C72.3633 8.78333 72.5033 8.95333 72.67 9.1C72.8367 9.24667 73.0267 9.36667 73.24 9.46C73.4533 9.54667 73.6867 9.59 73.94 9.59C74.1733 9.59 74.3833 9.55333 74.57 9.48C74.75 9.41333 74.9067 9.31667 75.04 9.19C75.1733 9.06333 75.2767 8.91333 75.35 8.74C75.4167 8.56667 75.45 8.38 75.45 8.18C75.45 7.88667 75.3967 7.62 75.29 7.38C75.19 7.13333 75.0533 6.90333 74.88 6.69C74.7067 6.47 74.5133 6.25667 74.3 6.05C74.08 5.84333 73.8567 5.63667 73.63 5.43C73.4033 5.22333 73.1833 5.01 72.97 4.79C72.75 4.57 72.5567 4.33667 72.39 4.09C72.2167 3.84333 72.0767 3.57667 71.97 3.29C71.8633 3.00333 71.81 2.69 71.81 2.35C71.81 1.99 71.88 1.66667 72.02 1.38C72.16 1.08667 72.3467 0.84 72.58 0.64C72.8067 0.433333 73.0667 0.273333 73.36 0.16C73.6533 0.0533332 73.9533 0 74.26 0C74.4867 0 74.6967 0.0166669 74.89 0.0500002C75.0833 0.0900002 75.2567 0.133333 75.41 0.18C75.5633 0.233333 75.6967 0.283333 75.81 0.33C75.9233 0.383333 76.0167 0.426667 76.09 0.46ZM85.79 0.42L86.25 1.68L86.19 1.71C85.8367 1.38333 85.41 1.12 84.91 0.92C84.41 0.726667 83.86 0.63 83.26 0.63C82.6867 0.63 82.1633 0.72 81.69 0.9C81.21 1.08 80.7967 1.34 80.45 1.68C80.11 2.02 79.8433 2.44 79.65 2.94C79.4567 3.43333 79.36 3.99667 79.36 4.63C79.36 5.33 79.4533 5.98333 79.64 6.59C79.82 7.19 80.09 7.71 80.45 8.15C80.81 8.59667 81.26 8.94667 81.8 9.2C82.34 9.45333 82.97 9.58 83.69 9.58C83.95 9.58 84.21 9.55 84.47 9.49C84.73 9.43667 84.98 9.35667 85.22 9.25C85.46 9.14333 85.6833 9.01333 85.89 8.86C86.1033 8.70667 86.2967 8.53333 86.47 8.34L86.55 8.39L86 9.78C85.66 9.91333 85.2833 10.0167 84.87 10.09C84.4567 10.1567 84.04 10.19 83.62 10.19C82.78 10.19 82.01 10.07 81.31 9.83C80.61 9.58333 80.0067 9.23667 79.5 8.79C79 8.34333 78.61 7.80667 78.33 7.18C78.05 6.55333 77.91 5.85667 77.91 5.09C77.91 4.65667 77.9633 4.23 78.07 3.81C78.1833 3.39667 78.3467 3 78.56 2.62C78.7733 2.24 79.0367 1.89333 79.35 1.58C79.67 1.26 80.03 0.983333 80.43 0.75C80.8367 0.516667 81.28 0.336667 81.76 0.21C82.2467 0.0766667 82.7733 0.0100002 83.34 0.0100002C84.22 0.0100002 85.0367 0.146667 85.79 0.42Z" fill="black"/>
</svg>
