<svg width="56" height="16" viewBox="0 0 56 16" fill="none" xmlns="http://www.w3.org/2000/svg">
<path d="M2.42 11.12L0.84 11.4C0.866667 10.4467 0.883333 9.54 0.89 8.68C0.903333 7.82667 0.9 6.98667 0.88 6.16C0.86 5.34 0.82 4.51 0.76 3.67C0.7 2.82333 0.613333 1.93667 0.5 1.01L2.64 0.65C2.68 1.35667 2.70667 2.06 2.72 2.76C2.73333 3.46 2.74 4.15667 2.74 4.85C2.73333 5.53667 2.71667 6.22667 2.69 6.92C2.67 7.61333 2.63667 8.31 2.59 9.01C2.55 9.71 2.49333 10.4133 2.42 11.12ZM8.59 11.01L6.52 11.34C6.58 10.8267 6.62667 10.28 6.66 9.7C6.68667 9.11333 6.7 8.51667 6.7 7.91C6.7 7.29667 6.68667 6.7 6.66 6.12C6.63333 5.53333 6.58333 4.98333 6.51 4.47C6.43667 3.95667 6.33333 3.50333 6.2 3.11C6.06667 2.71 5.90667 2.39667 5.72 2.17C5.52667 1.95 5.3 1.84 5.04 1.84C4.64 1.84 4.26667 2.09333 3.92 2.6C3.57333 3.10667 3.28667 3.82667 3.06 4.76C2.82667 5.69333 2.68333 6.79667 2.63 8.07L1.64 8.18C1.78667 6.71333 1.98 5.49333 2.22 4.52C2.45333 3.54667 2.72667 2.77333 3.04 2.2C3.35333 1.63333 3.70667 1.22667 4.1 0.98C4.49333 0.74 4.92333 0.62 5.39 0.62C5.95667 0.62 6.44 0.793334 6.84 1.14C7.23333 1.49333 7.55333 1.98667 7.8 2.62C8.04 3.25333 8.22333 4.00667 8.35 4.88C8.47667 5.74667 8.55667 6.69667 8.59 7.73C8.62333 8.77 8.62333 9.86333 8.59 11.01ZM14.95 11.02L12.89 11.3C12.95 10.74 12.9867 10.1567 13 9.55C13.0133 8.93667 13.01 8.32 12.99 7.7C12.97 7.08667 12.93 6.49333 12.87 5.92C12.81 5.34667 12.7267 4.81333 12.62 4.32C12.5133 3.83333 12.3867 3.40333 12.24 3.03C12.0933 2.65667 11.9233 2.36333 11.73 2.15C11.5367 1.94333 11.3133 1.84 11.06 1.84C10.8 1.84 10.56 1.96 10.34 2.2C10.12 2.44667 9.92667 2.78333 9.76 3.21C9.58667 3.63667 9.43667 4.14 9.31 4.72C9.19 5.29333 9.08333 5.92 8.99 6.6C8.89667 7.28667 8.81667 8.00333 8.75 8.75C8.68333 9.49667 8.63 10.25 8.59 11.01L7.8 8.57C7.80667 8.11667 7.83333 7.60333 7.88 7.03C7.92667 6.46333 8 5.88 8.1 5.28C8.20667 4.67333 8.34667 4.09 8.52 3.53C8.69333 2.96333 8.91 2.45667 9.17 2.01C9.43 1.55667 9.73667 1.19667 10.09 0.93C10.4367 0.67 10.8433 0.54 11.31 0.54C11.9433 0.54 12.4833 0.74 12.93 1.14C13.37 1.54 13.7367 2.08667 14.03 2.78C14.3233 3.48 14.5467 4.27667 14.7 5.17C14.8467 6.06333 14.94 7.01333 14.98 8.02C15.0133 9.02 15.0033 10.02 14.95 11.02ZM18.98 11.46C18.5867 11.46 18.22 11.3733 17.88 11.2C17.5333 11.0267 17.2567 10.7733 17.05 10.44C16.8433 10.1067 16.74 9.70333 16.74 9.23C16.74 8.69667 16.8933 8.18 17.2 7.68C17.5 7.17333 18.0067 6.7 18.72 6.26C19.4267 5.82 20.3667 5.43 21.54 5.09L22.02 6.02C21.2933 6.18 20.7 6.37333 20.24 6.6C19.7867 6.83333 19.4367 7.07333 19.19 7.32C18.95 7.56667 18.7867 7.81 18.7 8.05C18.6067 8.29667 18.56 8.51333 18.56 8.7C18.56 9.06 18.6533 9.37333 18.84 9.64C19.0267 9.90667 19.2967 10.04 19.65 10.04C19.97 10.04 20.28 9.94 20.58 9.74C20.8867 9.54 21.1367 9.25 21.33 8.87C21.53 8.48333 21.63 8.01667 21.63 7.47L22.44 6.86C22.3867 7.69333 22.25 8.4 22.03 8.98C21.81 9.56 21.5333 10.03 21.2 10.39C20.8667 10.7567 20.51 11.0267 20.13 11.2C19.75 11.3733 19.3667 11.46 18.98 11.46ZM23.35 11.12L21.95 11.44C21.8833 11.06 21.8233 10.6067 21.77 10.08C21.71 9.55333 21.6667 9.01333 21.64 8.46C21.6133 7.90667 21.59 7.39 21.57 6.91C21.55 6.42333 21.54 6.01333 21.54 5.68C21.5333 5.34667 21.5333 5.15 21.54 5.09L23.52 4.88C23.38 6.06 23.3033 7.15333 23.29 8.16C23.2767 9.16 23.2967 10.1467 23.35 11.12ZM27.24 11.34L26.74 9.51C26.7733 8.71 26.91 7.97667 27.15 7.31C27.39 6.65 27.7067 6.10333 28.1 5.67C28.4867 5.23667 28.93 4.95 29.43 4.81C29.9233 4.67 30.4367 4.72333 30.97 4.97L30.64 6.84C30.0467 6.56 29.5467 6.45 29.14 6.51C28.7333 6.57667 28.4033 6.80667 28.15 7.2C27.8967 7.59333 27.7 8.13667 27.56 8.83C27.42 9.52333 27.3133 10.36 27.24 11.34ZM27.24 11.34H25.37C25.47 10.6133 25.5433 9.90667 25.59 9.22C25.6367 8.52667 25.6533 7.84 25.64 7.16C25.6267 6.48 25.5833 5.79333 25.51 5.1L26.99 4.79C27.0833 5.41667 27.1567 6.00333 27.21 6.55C27.2567 7.09667 27.2867 7.62333 27.3 8.13C27.32 8.63667 27.32 9.15667 27.3 9.69C27.2867 10.2167 27.2667 10.7667 27.24 11.34ZM33.96 11.19L32.49 11.33C32.5367 10.4433 32.57 9.53 32.59 8.59C32.61 7.64333 32.6133 6.69333 32.6 5.74C32.5933 4.79333 32.57 3.86 32.53 2.94C32.4967 2.02667 32.4433 1.15 32.37 0.31L34.37 0C34.4233 1.76 34.4267 3.58 34.38 5.46C34.3267 7.34 34.1867 9.25 33.96 11.19ZM39.16 11.41L37.18 11.26C37.3133 10.7267 37.4133 10.1967 37.48 9.67C37.54 9.14333 37.5633 8.64667 37.55 8.18C37.5367 7.71333 37.4867 7.29667 37.4 6.93C37.3133 6.57 37.1833 6.28667 37.01 6.08C36.8367 5.87333 36.61 5.77 36.33 5.77C36.05 5.77 35.78 5.91 35.52 6.19C35.2533 6.46333 35.0167 6.84333 34.81 7.33C34.5967 7.82333 34.42 8.39667 34.28 9.05C34.1333 9.71 34.0267 10.4233 33.96 11.19L33 9.45C33.0333 9.07667 33.12 8.68 33.26 8.26C33.3933 7.83333 33.5667 7.41333 33.78 7C33.9933 6.58 34.2467 6.2 34.54 5.86C34.8333 5.52 35.1667 5.24667 35.54 5.04C35.9067 4.84 36.31 4.74 36.75 4.74C37.27 4.74 37.7 4.88 38.04 5.16C38.38 5.44667 38.6433 5.82667 38.83 6.3C39.0167 6.78 39.1467 7.31 39.22 7.89C39.2867 8.46333 39.3133 9.06 39.3 9.68C39.28 10.2933 39.2333 10.87 39.16 11.41ZM46.31 10.34L46.14 11.29C45.62 11.3433 45.0967 11.36 44.57 11.34C44.0433 11.3267 43.5467 11.2567 43.08 11.13C42.6133 11.01 42.2 10.83 41.84 10.59C41.48 10.3433 41.1967 10.0267 40.99 9.64C40.7833 9.24667 40.68 8.76333 40.68 8.19C40.68 7.63 40.7833 7.14667 40.99 6.74C41.1967 6.32667 41.4733 5.98333 41.82 5.71C42.1733 5.43667 42.5633 5.23 42.99 5.09C43.41 4.95667 43.8367 4.89 44.27 4.89C44.9233 4.89 45.4667 5.01 45.9 5.25C46.34 5.48333 46.6733 5.78 46.9 6.14C47.12 6.49333 47.2267 6.85667 47.22 7.23C47.22 7.53667 47.1467 7.84 47 8.14C46.86 8.44 46.6233 8.68333 46.29 8.87C45.9567 9.06333 45.5 9.16 44.92 9.16C44.72 9.16 44.48 9.14 44.2 9.1C43.9267 9.06667 43.6467 9.01333 43.36 8.94C43.08 8.87333 42.8133 8.79 42.56 8.69C42.3067 8.59 42.0967 8.48 41.93 8.36L42.29 7.75C42.47 7.85667 42.7067 7.95333 43 8.04C43.2933 8.12667 43.6533 8.17 44.08 8.17C44.3533 8.17 44.6033 8.13 44.83 8.05C45.0633 7.97 45.25 7.83667 45.39 7.65C45.53 7.47 45.6 7.24667 45.6 6.98C45.6 6.80667 45.56 6.63667 45.48 6.47C45.4067 6.30333 45.2833 6.16333 45.11 6.05C44.9367 5.93 44.6967 5.87 44.39 5.87C44.0833 5.87 43.7867 5.97667 43.5 6.19C43.22 6.39667 42.9867 6.66 42.8 6.98C42.6133 7.30667 42.52 7.65 42.52 8.01C42.52 8.51667 42.6133 8.94333 42.8 9.29C42.9933 9.64333 43.2633 9.91667 43.61 10.11C43.9567 10.2967 44.3567 10.41 44.81 10.45C45.27 10.4833 45.77 10.4467 46.31 10.34ZM48.42 14.47L49.15 12.79C49.7367 13.2167 50.2933 13.5333 50.82 13.74C51.3533 13.9533 51.83 14.0267 52.25 13.96C52.6767 13.8933 53.03 13.67 53.31 13.29C53.59 12.91 53.78 12.35 53.88 11.61C53.94 11.1967 53.98 10.8133 54 10.46C54.0267 10.1067 54.0367 9.75 54.03 9.39C54.0233 9.03 54.0133 8.64 54 8.22C53.98 7.8 53.9567 7.32667 53.93 6.8C53.8967 6.27333 53.8667 5.66 53.84 4.96L55.68 4.51C55.7067 5.36333 55.7133 6.21333 55.7 7.06C55.6933 7.90667 55.6633 8.72667 55.61 9.52C55.55 10.3067 55.46 11.0367 55.34 11.71C55.18 12.6233 54.8967 13.3467 54.49 13.88C54.0833 14.4133 53.58 14.7767 52.98 14.97C52.38 15.1633 51.6933 15.2133 50.92 15.12C50.1533 15.02 49.32 14.8033 48.42 14.47ZM51.14 11.41C50.62 11.41 50.19 11.2733 49.85 11C49.5167 10.7267 49.2533 10.36 49.06 9.9C48.8667 9.44667 48.7367 8.93333 48.67 8.36C48.5967 7.79333 48.57 7.20667 48.59 6.6C48.61 6 48.6567 5.42667 48.73 4.88L50.69 4.82C50.57 5.36 50.4767 5.89333 50.41 6.42C50.3433 6.94667 50.3167 7.45 50.33 7.93C50.3367 8.40333 50.3833 8.82667 50.47 9.2C50.5633 9.56667 50.6967 9.85667 50.87 10.07C51.05 10.2833 51.2767 10.39 51.55 10.39C51.8367 10.39 52.1067 10.25 52.36 9.97C52.6133 9.69 52.84 9.30667 53.04 8.82C53.2467 8.32667 53.4167 7.75333 53.55 7.1C53.69 6.44 53.7867 5.72667 53.84 4.96L54.57 6.77C54.55 7.15 54.4833 7.55333 54.37 7.98C54.2633 8.4 54.1133 8.81667 53.92 9.23C53.7267 9.64333 53.4967 10.0133 53.23 10.34C52.9567 10.6667 52.6433 10.9267 52.29 11.12C51.9433 11.3133 51.56 11.41 51.14 11.41Z" fill="black"/>
</svg>
