<svg width="350" height="16.8" viewBox="0 0 350 16.8" xmlns="http://www.w3.org/2000/svg"><path transform="translate(0 15.4) scale(.014583 -.014583)" d="m99 0v683h117l241-529 22-59h4l21 59 241 529h117v-683h-87v505l4 64h-4l-23-64-231-505h-82l-232 505-22 64h-4l3-64v-505z"/><path transform="translate(14 15.4) scale(.014583 -.014583)" d="M0 0 429 687H530L957 0H851L476 623L100 0ZM156 177 200 253H754L799 177Z"/><path transform="translate(28 15.4) scale(.014583 -.014583)" d="M436 0V608H47V683H913V608H526V0Z"/><path transform="translate(42 15.4) scale(.014583 -.014583)" d="M109 0V683H904V608H199V389H819V315H199V73H912V0Z"/><path transform="translate(56 15.4) scale(.014583 -.014583)" d="m109 0v683h529q93 0 165.5-49t72.5-152q0-106-71-154.5t-167-48.5h-439v-279zm90 352h439q62 0 104.5 32t42.5 98-43 96.5-104 30.5h-439zm608-352-226 292 96 17 237-309z"/><path transform="translate(70 15.4) scale(.014583 -.014583)" d="M59 0V74H435V609H59V683H901V609H525V74H901V0Z"/><path transform="translate(84 15.4) scale(.014583 -.014583)" d="M0 0 429 687H530L957 0H851L476 623L100 0ZM156 177 200 253H754L799 177Z"/><path transform="translate(98 15.4) scale(.014583 -.014583)" d="M111 0V697H207V75H919V0Z"/><path transform="translate(126 15.4) scale(.014583 -.014583)" d="m485-15q-180 0-304.5 43t-124.5 158v6h90v-6q0-63 84.5-93t254.5-30q164 0 250.5 27t86.5 78q0 37-52 62.5t-119.5 42-130.5 26-86 13.5q-46 8-107 18t-115.5 31-92.5 59-38 101q0 80 89.5 127.5t306.5 47.5q242 0 326-55.5t84-141.5v-6h-91v6q0 65-74.5 92.5t-244.5 27.5q-163 0-235-23t-72-79q0-26 39-46.5t93-36 111.5-26 94.5-16.5q201-32 300.5-76.5t99.5-147.5q0-92-111-137.5t-312-45.5z"/><path transform="translate(140 15.4) scale(.014583 -.014583)" d="M434 0V256L7 683H137L431 380L481 317H485L536 380L831 683H953L526 256V0Z"/><path transform="translate(154 15.4) scale(.014583 -.014583)" d="m99 0v683h117l241-529 22-59h4l21 59 241 529h117v-683h-87v505l4 64h-4l-23-64-231-505h-82l-232 505-22 64h-4l3-64v-505z"/><path transform="translate(168 15.4) scale(.014583 -.014583)" d="m109 0v683h501q91 0 171-36.5t80-144.5q0-57-32-91.5t-77-50.5v-1q56-15 91.5-55t35.5-107q0-108-80-152.5t-174-44.5zm88 73h428q81 0 123 34t42 90q0 57-42 89t-123 32h-428zm0 319h413q81 0 120.5 29.5t39.5 80.5q0 54-39.5 80.5t-120.5 26.5h-413z"/><path transform="translate(182 15.4) scale(.014583 -.014583)" d="m481-15q-168 0-290 82.5t-122 264.5v17q0 182 122 264.5t290 82.5q167 0 289-83.5t122-263.5v-17q0-180-122-263.5t-289-83.5zm0 78q132 0 226 63t94 206v17q0 143-94 206.5t-226 63.5q-134 0-227.5-63t-93.5-207v-17q0-144 94-206.5t227-62.5z"/><path transform="translate(196 15.4) scale(.014583 -.014583)" d="M111 0V697H207V75H919V0Z"/><path transform="translate(210 15.4) scale(.014583 -.014583)" d="m485-15q-180 0-304.5 43t-124.5 158v6h90v-6q0-63 84.5-93t254.5-30q164 0 250.5 27t86.5 78q0 37-52 62.5t-119.5 42-130.5 26-86 13.5q-46 8-107 18t-115.5 31-92.5 59-38 101q0 80 89.5 127.5t306.5 47.5q242 0 326-55.5t84-141.5v-6h-91v6q0 65-74.5 92.5t-244.5 27.5q-163 0-235-23t-72-79q0-26 39-46.5t93-36 111.5-26 94.5-16.5q201-32 300.5-76.5t99.5-147.5q0-92-111-137.5t-312-45.5z"/><path transform="translate(238 15.4) scale(.014583 -.014583)" d="m481-15q-168 0-290 82.5t-122 264.5v17q0 182 122 264.5t290 82.5q167 0 289-83.5t122-263.5v-17q0-180-122-263.5t-289-83.5zm0 78q132 0 226 63t94 206v17q0 143-94 206.5t-226 63.5q-134 0-227.5-63t-93.5-207v-17q0-144 94-206.5t227-62.5z"/><path transform="translate(252 15.4) scale(.014583 -.014583)" d="m481-15q-72 0-141 19.5t-123 59-87 99.5-33 141v379h90v-379q0-131 89.5-186t204.5-55q113 0 203.5 56t90.5 185v379h88v-379q0-81-32.5-141t-86.5-99.5-122.5-59-140.5-19.5z"/><path transform="translate(266 15.4) scale(.014583 -.014583)" d="M436 0V608H47V683H913V608H526V0Z"/><path transform="translate(280 15.4) scale(.014583 -.014583)" d="M111 0V697H207V75H919V0Z"/><path transform="translate(294 15.4) scale(.014583 -.014583)" d="M59 0V74H435V609H59V683H901V609H525V74H901V0Z"/><path transform="translate(308 15.4) scale(.014583 -.014583)" d="m109 0v683h94l562-578h4l-4 63v515h86v-683h-95l-559 575h-4l2-64v-511z"/><path transform="translate(322 15.4) scale(.014583 -.014583)" d="M109 0V683H904V608H199V389H819V315H199V73H912V0Z"/><path transform="translate(336 15.4) scale(.014583 -.014583)" d="m109 0v683h387q153 0 273.5-84.5t120.5-251.5v-12q0-167-120.5-251t-273.5-84zm90 73h297q125 0 214 63t89 199v12q0 137-89 199t-214 62h-297z"/></svg>