<svg width="66" height="10" viewBox="0 0 66 10" fill="none" xmlns="http://www.w3.org/2000/svg">
<path d="M1.51 9.34H0.5V0H1.59L5.05 5.31L4.36 5.46L8.02 0H9.11V9.34H8.1V1.01H8.55L4.7 6.41L1.14 1.12L1.51 0.6V9.34ZM13.83 9.55C13.5233 9.55 13.2133 9.51667 12.9 9.45C12.5867 9.38333 12.2967 9.27333 12.03 9.12C11.7633 8.96 11.5467 8.74333 11.38 8.47C11.22 8.19 11.14 7.84 11.14 7.42C11.14 6.84 11.25 6.37667 11.47 6.03C11.69 5.67667 11.9933 5.42333 12.38 5.27C12.7667 5.11667 13.2133 5.04 13.72 5.04C14.1 5.04 14.43 5.06333 14.71 5.11C14.99 5.15667 15.24 5.22333 15.46 5.31C15.68 5.40333 15.8767 5.50667 16.05 5.62L16.25 6.54C16.0367 6.38 15.7267 6.24333 15.32 6.13C14.9133 6.01 14.4667 5.95 13.98 5.95C13.3933 5.95 12.94 6.06333 12.62 6.29C12.3067 6.51 12.15 6.83667 12.15 7.27C12.15 7.61667 12.2467 7.89 12.44 8.09C12.6267 8.29667 12.8667 8.44333 13.16 8.53C13.4533 8.61 13.7567 8.65 14.07 8.65C14.6767 8.65 15.1367 8.60667 15.45 8.52C15.7567 8.43333 15.91 8.23 15.91 7.91V4.71C15.91 4.16333 15.7533 3.76667 15.44 3.52C15.12 3.26667 14.6667 3.14 14.08 3.14C13.7067 3.14 13.3133 3.19333 12.9 3.3C12.48 3.40667 12.1233 3.57667 11.83 3.81V2.8C12.1167 2.61333 12.5033 2.47333 12.99 2.38C13.4767 2.28 13.9467 2.23 14.4 2.23C14.7067 2.23 14.9933 2.26 15.26 2.32C15.52 2.38 15.7533 2.47 15.96 2.59C16.16 2.70333 16.3333 2.85 16.48 3.03C16.6267 3.21667 16.74 3.42667 16.82 3.66C16.9 3.9 16.94 4.17 16.94 4.47V7.86C16.94 8.35333 16.7933 8.72 16.5 8.96C16.2 9.20667 15.8167 9.36667 15.35 9.44C14.8767 9.51333 14.37 9.55 13.83 9.55ZM22.24 9.34H21.22L18.27 2.35H19.34L21.92 8.47L21.7 8.53L24.2 2.35H25.21L22.24 9.34ZM29.21 9.55C28.55 9.55 27.9767 9.41333 27.49 9.14C27.0033 8.86 26.63 8.44667 26.37 7.9C26.11 7.34667 25.98 6.66 25.98 5.84C25.98 4.63333 26.2533 3.73 26.8 3.13C27.3467 2.53 28.0967 2.23 29.05 2.23C29.7967 2.23 30.3967 2.39667 30.85 2.73C31.2967 3.07 31.62 3.52333 31.82 4.09C32.0133 4.65667 32.1067 5.3 32.1 6.02H26.48L26.55 5.1H31.44L31.05 5.24C31.0233 4.54 30.8467 4.01667 30.52 3.67C30.2 3.32333 29.71 3.15 29.05 3.15C28.59 3.15 28.21 3.23333 27.91 3.4C27.6033 3.57333 27.3767 3.86667 27.23 4.28C27.0767 4.69333 27 5.27333 27 6.02C27 6.87333 27.2 7.52 27.6 7.96C27.9933 8.40667 28.55 8.63 29.27 8.63C29.6167 8.63 29.9333 8.60333 30.22 8.55C30.5133 8.49667 30.78 8.42333 31.02 8.33C31.26 8.23667 31.4733 8.13333 31.66 8.02V9.06C31.3267 9.22 30.9567 9.34 30.55 9.42C30.1433 9.50667 29.6967 9.55 29.21 9.55ZM33.99 9.34V2.91C34.21 2.80333 34.44 2.70333 34.68 2.61C34.92 2.52333 35.1633 2.45333 35.41 2.4C35.6567 2.34 35.9067 2.29667 36.16 2.27C36.42 2.24333 36.68 2.23 36.94 2.23C37.62 2.23 38.1633 2.33 38.57 2.53C38.97 2.73 39.26 3.02 39.44 3.4C39.62 3.78667 39.71 4.25 39.71 4.79V9.34H38.71V4.79C38.71 4.62333 38.6867 4.44667 38.64 4.26C38.6 4.07333 38.52 3.89333 38.4 3.72C38.28 3.54667 38.0933 3.40667 37.84 3.3C37.5867 3.19333 37.25 3.14 36.83 3.14C36.5433 3.14 36.2433 3.16333 35.93 3.21C35.6233 3.25667 35.3133 3.32667 35 3.42V9.34H33.99ZM49.4 5.77H47.09V9.34H46.08V0H49.4C50.4467 0 51.2467 0.246667 51.8 0.74C52.36 1.24 52.64 1.95667 52.64 2.89C52.64 3.82333 52.36 4.53667 51.8 5.03C51.2467 5.52333 50.4467 5.77 49.4 5.77ZM47.09 0.97V4.8H49.28C49.8 4.8 50.2167 4.74667 50.53 4.64C50.8433 4.52667 51.08 4.37333 51.24 4.18C51.3933 3.98667 51.4967 3.78 51.55 3.56C51.6033 3.33333 51.63 3.11 51.63 2.89C51.63 2.66333 51.6033 2.43667 51.55 2.21C51.4967 1.99 51.3933 1.78333 51.24 1.59C51.08 1.39667 50.8433 1.24667 50.53 1.14C50.2167 1.02667 49.8 0.97 49.28 0.97H47.09ZM55.6 9.34H54.6V2.91C54.7067 2.86333 54.9233 2.78667 55.25 2.68C55.57 2.56667 55.9567 2.46333 56.41 2.37C56.8633 2.27667 57.3333 2.23 57.82 2.23C57.8933 2.23 57.9667 2.24 58.04 2.26C58.1133 2.27333 58.1867 2.29 58.26 2.31V3.21C58.02 3.18333 57.7867 3.17 57.56 3.17C57.3267 3.17 57.1033 3.18 56.89 3.2C56.6767 3.22667 56.4633 3.25667 56.25 3.29C56.0367 3.33 55.82 3.36667 55.6 3.4V9.34ZM62.25 9.55C61.1633 9.55 60.3567 9.22667 59.83 8.58C59.2967 7.92667 59.03 7.02333 59.03 5.87C59.03 4.65667 59.31 3.74667 59.87 3.14C60.4233 2.53333 61.21 2.23 62.23 2.23C62.9833 2.23 63.5967 2.38 64.07 2.68C64.55 2.98667 64.9 3.41333 65.12 3.96C65.3467 4.50667 65.46 5.14333 65.46 5.87C65.46 7.01667 65.1833 7.91667 64.63 8.57C64.07 9.22333 63.2767 9.55 62.25 9.55ZM62.24 8.63C62.8067 8.63 63.25 8.50333 63.57 8.25C63.89 8.00333 64.1167 7.67333 64.25 7.26C64.3833 6.84667 64.45 6.38333 64.45 5.87C64.45 5.31667 64.38 4.83667 64.24 4.43C64.1 4.02333 63.87 3.71 63.55 3.49C63.23 3.26333 62.7933 3.15 62.24 3.15C61.68 3.15 61.24 3.27333 60.92 3.52C60.6067 3.76 60.3833 4.08333 60.25 4.49C60.11 4.89667 60.04 5.35667 60.04 5.87C60.04 6.69 60.2033 7.35333 60.53 7.86C60.8567 8.37333 61.4267 8.63 62.24 8.63Z" fill="black"/>
</svg>
