<svg width="72" height="17" viewBox="0 0 72 17" fill="none" xmlns="http://www.w3.org/2000/svg">
<path d="M23.49 10.83C23.5433 10.8033 23.5933 10.79 23.64 10.79C23.6867 10.79 23.7233 10.8067 23.75 10.84C23.7767 10.8733 23.79 10.9167 23.79 10.97C23.79 11.03 23.7667 11.1 23.72 11.18C23.6667 11.26 23.59 11.3333 23.49 11.4L22.47 11.99C22.1433 12.1833 21.7633 12.41 21.33 12.67C20.8967 12.9233 20.4167 13.2067 19.89 13.52C19.41 13.8067 19.0067 14.01 18.68 14.13C18.3533 14.2433 18.08 14.3 17.86 14.3C17.7133 14.3 17.5933 14.28 17.5 14.24C17.4067 14.1933 17.3267 14.1367 17.26 14.07C17.2 13.9967 17.1567 13.9133 17.13 13.82C17.11 13.7333 17.1 13.64 17.1 13.54C17.1 13.2867 17.1233 12.9633 17.17 12.57C17.2233 12.1833 17.2967 11.75 17.39 11.27C17.4767 10.7967 17.5767 10.2933 17.69 9.76C17.81 9.23333 17.9333 8.70333 18.06 8.17C18.1867 7.64333 18.3133 7.12667 18.44 6.62C18.5667 6.11333 18.6867 5.64667 18.8 5.22C18.9133 4.79333 19.0133 4.41667 19.1 4.09C19.1933 3.77 19.26 3.53 19.3 3.37L12.79 13.33C12.79 13.33 12.7667 13.3633 12.72 13.43C12.6733 13.5033 12.6133 13.58 12.54 13.66C12.46 13.74 12.3667 13.8133 12.26 13.88C12.1533 13.9467 12.0367 13.98 11.91 13.98C11.79 13.98 11.7133 13.9467 11.68 13.88C11.6467 13.8133 11.63 13.7433 11.63 13.67C11.63 13.6433 11.63 13.6167 11.63 13.59C11.63 13.5567 11.6367 13.5367 11.65 13.53L12.34 6.21C12.1533 6.53 11.9233 6.91667 11.65 7.37C11.3767 7.83 11.0667 8.32 10.72 8.84C10.38 9.36 10.0067 9.90333 9.6 10.47C9.2 11.0367 8.77667 11.5967 8.33 12.15C8.45667 12.43 8.52 12.7333 8.52 13.06C8.52 13.3067 8.48333 13.56 8.41 13.82C8.33667 14.0733 8.23333 14.32 8.1 14.56C7.96667 14.7933 7.80333 15.0133 7.61 15.22C7.41667 15.4267 7.19667 15.6067 6.95 15.76C6.71 15.9133 6.44333 16.0333 6.15 16.12C5.85667 16.2067 5.54333 16.25 5.21 16.25C5.19667 16.25 5.18 16.24 5.16 16.22C5.14 16.2067 5.12333 16.1867 5.11 16.16C5.09 16.1267 5.07333 16.0967 5.06 16.07C5.04667 16.0367 5.04 16.0067 5.04 15.98C5.04 15.9733 5.04667 15.9633 5.06 15.95C5.07333 15.9367 5.09 15.93 5.11 15.93C5.49 15.93 5.85 15.8433 6.19 15.67C6.53 15.5033 6.82667 15.2867 7.08 15.02C7.33333 14.7533 7.53333 14.4567 7.68 14.13C7.82667 13.8033 7.9 13.4833 7.9 13.17C7.9 13.0033 7.88 12.8467 7.84 12.7C7.43333 13.1333 7.01667 13.54 6.59 13.92C6.16333 14.3 5.73 14.6333 5.29 14.92C4.85667 15.2067 4.42 15.4333 3.98 15.6C3.54667 15.7667 3.11667 15.85 2.69 15.85C2.35667 15.85 2.05667 15.82 1.79 15.76C1.52333 15.6933 1.29333 15.5967 1.1 15.47C0.906667 15.3367 0.76 15.17 0.66 14.97C0.553333 14.7633 0.5 14.5167 0.5 14.23C0.5 13.8567 0.58 13.5133 0.74 13.2C0.9 12.8867 1.11333 12.6033 1.38 12.35C1.64667 12.0967 1.95667 11.87 2.31 11.67C2.66333 11.4767 3.03 11.3133 3.41 11.18C3.79 11.0533 4.17 10.9567 4.55 10.89C4.93 10.8233 5.28667 10.79 5.62 10.79C6.1 10.79 6.51667 10.8433 6.87 10.95C7.21667 11.0567 7.50667 11.2067 7.74 11.4C8.3 10.7133 8.84333 9.98667 9.37 9.22C9.89 8.46 10.3633 7.69667 10.79 6.93C11.2233 6.15667 11.59 5.39667 11.89 4.65C12.1967 3.91 12.4133 3.21 12.54 2.55C12.54 2.54333 12.5567 2.47333 12.59 2.34C12.6233 2.21333 12.67 2.05667 12.73 1.87C12.7967 1.67667 12.8733 1.47 12.96 1.25C13.0533 1.03667 13.1533 0.836667 13.26 0.65C13.3733 0.463333 13.4967 0.31 13.63 0.19C13.7633 0.0633334 13.91 0 14.07 0C14.1967 0 14.3 0.0300002 14.38 0.0900002C14.4533 0.143333 14.5133 0.213334 14.56 0.3C14.6 0.386667 14.63 0.48 14.65 0.58C14.6633 0.686667 14.67 0.786667 14.67 0.88C14.67 0.94 14.67 0.993334 14.67 1.04C14.6633 1.09333 14.66 1.13667 14.66 1.17L13.36 11.28L19.75 1.67C19.77 1.55667 19.7967 1.43333 19.83 1.3C19.8633 1.17333 19.9133 1.05333 19.98 0.94C20.0467 0.826667 20.13 0.736667 20.23 0.67C20.33 0.596667 20.4567 0.56 20.61 0.56C20.7633 0.56 20.8867 0.57 20.98 0.59C21.0667 0.616667 21.1333 0.65 21.18 0.69C21.2267 0.723333 21.2533 0.763333 21.26 0.81C21.2733 0.856667 21.28 0.903333 21.28 0.95C21.28 1.23 21.24 1.59667 21.16 2.05C21.08 2.49667 20.9733 3 20.84 3.56C20.7067 4.12 20.5567 4.71333 20.39 5.34C20.2233 5.96667 20.0533 6.59667 19.88 7.23C19.7067 7.86333 19.5367 8.48 19.37 9.08C19.1967 9.68 19.0433 10.2267 18.91 10.72C18.7833 11.22 18.68 11.65 18.6 12.01C18.52 12.37 18.48 12.6267 18.48 12.78C18.48 12.8333 18.4833 12.8933 18.49 12.96C18.4967 13.0333 18.5133 13.0967 18.54 13.15C18.5667 13.21 18.6067 13.26 18.66 13.3C18.7133 13.34 18.79 13.36 18.89 13.36C18.9767 13.36 19.09 13.3367 19.23 13.29C19.37 13.2433 19.5433 13.16 19.75 13.04C20.4567 12.64 21.1233 12.2533 21.75 11.88C22.3767 11.5067 22.9567 11.1567 23.49 10.83ZM2.79 15.4C3.03667 15.4 3.32667 15.3133 3.66 15.14C3.99333 14.9667 4.35667 14.7267 4.75 14.42C5.14333 14.1067 5.55667 13.74 5.99 13.32C6.42333 12.8933 6.85667 12.4267 7.29 11.92C7.11667 11.7933 6.89333 11.69 6.62 11.61C6.34667 11.53 6.02667 11.49 5.66 11.49C5.34 11.49 5.01 11.52 4.67 11.58C4.33 11.6333 3.99333 11.71 3.66 11.81C3.32667 11.9167 3.01333 12.0467 2.72 12.2C2.42667 12.3533 2.16667 12.53 1.94 12.73C1.72 12.9367 1.54333 13.1633 1.41 13.41C1.28333 13.6567 1.22 13.9267 1.22 14.22C1.22 14.6333 1.36 14.9333 1.64 15.12C1.92 15.3067 2.30333 15.4 2.79 15.4ZM24.2 10.98L23.49 11.4C23.4433 11.4333 23.39 11.45 23.33 11.45C23.27 11.45 23.2233 11.43 23.19 11.39C23.15 11.3567 23.13 11.3133 23.13 11.26C23.13 11.2 23.1567 11.1333 23.21 11.06C23.2633 10.9867 23.3567 10.91 23.49 10.83L25.22 9.81C25.3467 9.45 25.51 9.14 25.71 8.88C25.9167 8.62 26.14 8.40333 26.38 8.23C26.6267 8.05667 26.8833 7.93 27.15 7.85C27.4167 7.76333 27.6733 7.72 27.92 7.72C28.18 7.72 28.3933 7.78667 28.56 7.92C28.7267 8.05333 28.81 8.26333 28.81 8.55C28.81 8.72333 28.7467 8.90333 28.62 9.09C28.4933 9.27667 28.32 9.46333 28.1 9.65C27.8867 9.83667 27.6333 10.01 27.34 10.17C27.0533 10.33 26.7433 10.4633 26.41 10.57C26.41 10.79 26.4067 10.9967 26.4 11.19C26.3933 11.39 26.39 11.5767 26.39 11.75C26.39 11.8967 26.3967 12.03 26.41 12.15C26.4167 12.27 26.4333 12.37 26.46 12.45C26.4933 12.5367 26.5367 12.6033 26.59 12.65C26.6433 12.6967 26.71 12.72 26.79 12.72C26.9167 12.72 27.07 12.67 27.25 12.57C27.43 12.47 27.6567 12.34 27.93 12.18C28.1767 12.0333 28.49 11.85 28.87 11.63C29.2567 11.41 29.7267 11.1433 30.28 10.83C30.2933 10.8167 30.3167 10.81 30.35 10.81C30.4033 10.81 30.4467 10.83 30.48 10.87C30.52 10.9167 30.54 10.9733 30.54 11.04C30.54 11.0933 30.52 11.15 30.48 11.21C30.4467 11.2767 30.38 11.34 30.28 11.4C29.8267 11.6667 29.3867 11.9367 28.96 12.21C28.54 12.49 28.14 12.7433 27.76 12.97C27.3867 13.1967 27.04 13.38 26.72 13.52C26.4 13.6667 26.1233 13.74 25.89 13.74C25.73 13.74 25.59 13.7033 25.47 13.63C25.35 13.5633 25.2467 13.4567 25.16 13.31C25.0733 13.1567 25.01 12.9567 24.97 12.71C24.9233 12.47 24.9 12.1733 24.9 11.82C24.9 11.7667 24.9033 11.68 24.91 11.56C24.9167 11.44 24.93 11.31 24.95 11.17C24.9633 11.03 24.98 10.8933 25 10.76C25.0267 10.6267 25.0567 10.5233 25.09 10.45C25.0567 10.47 25.01 10.5 24.95 10.54C24.8833 10.5733 24.81 10.6133 24.73 10.66C24.65 10.7067 24.5633 10.76 24.47 10.82C24.3767 10.8733 24.2867 10.9267 24.2 10.98ZM28.07 8.6C28.0767 8.57333 28.08 8.54333 28.08 8.51C28.08 8.39667 28.06 8.31333 28.02 8.26C27.98 8.20667 27.9167 8.18 27.83 8.18C27.7233 8.18 27.6033 8.22 27.47 8.3C27.33 8.38 27.1967 8.49667 27.07 8.65C26.9367 8.80333 26.82 8.99667 26.72 9.23C26.6133 9.46333 26.5433 9.73 26.51 10.03C26.6967 9.93667 26.88 9.82667 27.06 9.7C27.2333 9.57333 27.3933 9.44667 27.54 9.32C27.68 9.18667 27.7967 9.05667 27.89 8.93C27.9833 8.81 28.0433 8.7 28.07 8.6ZM31.93 11.97C31.93 11.8033 31.98 11.6 32.08 11.36C32.1867 11.1267 32.3233 10.8867 32.49 10.64C32.6567 10.3933 32.8433 10.1567 33.05 9.93C33.2633 9.70333 33.4733 9.52 33.68 9.38L30.28 11.4C30.26 11.4067 30.24 11.41 30.22 11.41C30.2067 11.4167 30.1933 11.42 30.18 11.42C30.1267 11.42 30.0867 11.4 30.06 11.36C30.0333 11.3267 30.02 11.2833 30.02 11.23C30.02 11.1633 30.04 11.0933 30.08 11.02C30.1267 10.9467 30.1933 10.8833 30.28 10.83L32.16 9.69C32.4133 9.53667 32.7 9.37 33.02 9.19C33.3467 9.01667 33.6833 8.85667 34.03 8.71C34.3767 8.56333 34.73 8.44333 35.09 8.35C35.4433 8.25 35.78 8.2 36.1 8.2C36.3933 8.2 36.6567 8.24667 36.89 8.34L38.67 4.73C38.7167 4.63667 38.7667 4.53333 38.82 4.42C38.8733 4.30667 38.94 4.20333 39.02 4.11C39.1067 4.01667 39.2133 3.93667 39.34 3.87C39.4733 3.80333 39.6433 3.77 39.85 3.77C39.91 3.77 39.95 3.79 39.97 3.83C39.9833 3.87667 39.99 3.93333 39.99 4C39.9833 4.06667 39.9667 4.14 39.94 4.22C39.92 4.3 39.8967 4.37667 39.87 4.45C39.8433 4.53 39.82 4.6 39.8 4.66C39.7733 4.72667 39.7533 4.77667 39.74 4.81L37.71 9.24C37.61 9.53333 37.4833 9.84 37.33 10.16C37.1833 10.4733 37.04 10.78 36.9 11.08C36.76 11.38 36.6433 11.66 36.55 11.92C36.45 12.18 36.4 12.4 36.4 12.58C36.4 12.6467 36.4067 12.71 36.42 12.77C36.44 12.8233 36.4733 12.85 36.52 12.85C36.58 12.85 36.67 12.83 36.79 12.79C36.91 12.7433 37.0467 12.6767 37.2 12.59C37.3533 12.51 37.52 12.4133 37.7 12.3C37.88 12.1933 38.06 12.0733 38.24 11.94L40.02 10.83C40.0533 10.81 40.08 10.8 40.1 10.8C40.1333 10.8 40.16 10.82 40.18 10.86C40.2 10.8933 40.21 10.9367 40.21 10.99C40.21 11.0633 40.1933 11.14 40.16 11.22C40.1267 11.2933 40.08 11.3533 40.02 11.4C39.76 11.5733 39.49 11.75 39.21 11.93C38.9367 12.1167 38.66 12.3 38.38 12.48C38.1067 12.66 37.8367 12.8333 37.57 13C37.3033 13.16 37.0467 13.31 36.8 13.45C36.4467 13.6433 36.13 13.74 35.85 13.74C35.67 13.74 35.5467 13.69 35.48 13.59C35.42 13.49 35.39 13.36 35.39 13.2C35.39 13.1067 35.3967 13.01 35.41 12.91C35.43 12.8033 35.4533 12.69 35.48 12.57C35.36 12.75 35.22 12.91 35.06 13.05C34.9 13.19 34.73 13.31 34.55 13.41C34.37 13.51 34.1833 13.5867 33.99 13.64C33.7967 13.6933 33.61 13.72 33.43 13.72C33.23 13.72 33.0367 13.6867 32.85 13.62C32.67 13.5533 32.51 13.45 32.37 13.31C32.2367 13.1633 32.13 12.9833 32.05 12.77C31.97 12.55 31.93 12.2833 31.93 11.97ZM36.39 9.59C36.4033 9.54333 36.4267 9.48333 36.46 9.41C36.4867 9.33667 36.5167 9.26667 36.55 9.2C36.5767 9.12667 36.6 9.06333 36.62 9.01C36.64 8.95 36.65 8.91 36.65 8.89C36.65 8.86333 36.6 8.84333 36.5 8.83C36.3933 8.81667 36.2533 8.81 36.08 8.81C35.8533 8.81 35.6233 8.87 35.39 8.99C35.15 9.11 34.92 9.26667 34.7 9.46C34.48 9.66 34.2733 9.88667 34.08 10.14C33.8867 10.3933 33.7167 10.6533 33.57 10.92C33.43 11.1867 33.3167 11.45 33.23 11.71C33.15 11.97 33.11 12.2033 33.11 12.41C33.11 12.69 33.1567 12.89 33.25 13.01C33.3433 13.1367 33.47 13.2 33.63 13.2C33.8367 13.2 34.0633 13.11 34.31 12.93C34.55 12.75 34.7933 12.5033 35.04 12.19C35.2867 11.87 35.5267 11.49 35.76 11.05C35.9933 10.61 36.2033 10.1233 36.39 9.59ZM41.67 11.97C41.67 11.8033 41.72 11.6 41.82 11.36C41.9267 11.1267 42.0633 10.8867 42.23 10.64C42.3967 10.3933 42.5833 10.1567 42.79 9.93C43.0033 9.70333 43.2133 9.52 43.42 9.38L40.02 11.4C40 11.4067 39.9833 11.41 39.97 11.41C39.95 11.4167 39.9333 11.42 39.92 11.42C39.8733 11.42 39.8333 11.4 39.8 11.36C39.7733 11.3267 39.76 11.2833 39.76 11.23C39.76 11.1633 39.7833 11.0933 39.83 11.02C39.87 10.9467 39.9333 10.8833 40.02 10.83L41.9 9.69C42.1533 9.53667 42.44 9.37 42.76 9.19C43.0867 9.01667 43.4233 8.85667 43.77 8.71C44.1233 8.56333 44.4767 8.44333 44.83 8.35C45.1833 8.25 45.52 8.2 45.84 8.2C46.14 8.2 46.4033 8.24667 46.63 8.34L48.41 4.73C48.4567 4.63667 48.5067 4.53333 48.56 4.42C48.6133 4.30667 48.68 4.20333 48.76 4.11C48.8467 4.01667 48.9533 3.93667 49.08 3.87C49.2133 3.80333 49.3833 3.77 49.59 3.77C49.65 3.77 49.69 3.79 49.71 3.83C49.7233 3.87667 49.73 3.93333 49.73 4C49.7233 4.06667 49.7067 4.14 49.68 4.22C49.66 4.3 49.6367 4.37667 49.61 4.45C49.5833 4.53 49.56 4.6 49.54 4.66C49.5133 4.72667 49.4933 4.77667 49.48 4.81L47.45 9.24C47.35 9.53333 47.2233 9.84 47.07 10.16C46.9233 10.4733 46.78 10.78 46.64 11.08C46.5067 11.38 46.39 11.66 46.29 11.92C46.19 12.18 46.14 12.4 46.14 12.58C46.14 12.6467 46.15 12.71 46.17 12.77C46.1833 12.8233 46.2133 12.85 46.26 12.85C46.32 12.85 46.41 12.83 46.53 12.79C46.65 12.7433 46.7867 12.6767 46.94 12.59C47.0933 12.51 47.26 12.4133 47.44 12.3C47.62 12.1933 47.8 12.0733 47.98 11.94L49.76 10.83C49.7933 10.81 49.82 10.8 49.84 10.8C49.8733 10.8 49.9033 10.82 49.93 10.86C49.95 10.8933 49.96 10.9367 49.96 10.99C49.96 11.0633 49.94 11.14 49.9 11.22C49.8667 11.2933 49.82 11.3533 49.76 11.4C49.5 11.5733 49.23 11.75 48.95 11.93C48.6767 12.1167 48.4 12.3 48.12 12.48C47.8467 12.66 47.5767 12.8333 47.31 13C47.0433 13.16 46.7867 13.31 46.54 13.45C46.1867 13.6433 45.87 13.74 45.59 13.74C45.41 13.74 45.29 13.69 45.23 13.59C45.1633 13.49 45.13 13.36 45.13 13.2C45.13 13.1067 45.1367 13.01 45.15 12.91C45.17 12.8033 45.1967 12.69 45.23 12.57C45.1033 12.75 44.96 12.91 44.8 13.05C44.64 13.19 44.47 13.31 44.29 13.41C44.11 13.51 43.9233 13.5867 43.73 13.64C43.5367 13.6933 43.35 13.72 43.17 13.72C42.97 13.72 42.7767 13.6867 42.59 13.62C42.41 13.5533 42.2533 13.45 42.12 13.31C41.98 13.1633 41.87 12.9833 41.79 12.77C41.71 12.55 41.67 12.2833 41.67 11.97ZM46.13 9.59C46.15 9.54333 46.1733 9.48333 46.2 9.41C46.2267 9.33667 46.2567 9.26667 46.29 9.2C46.3167 9.12667 46.34 9.06333 46.36 9.01C46.38 8.95 46.39 8.91 46.39 8.89C46.39 8.86333 46.34 8.84333 46.24 8.83C46.1333 8.81667 45.9933 8.81 45.82 8.81C45.5933 8.81 45.3633 8.87 45.13 8.99C44.89 9.11 44.66 9.26667 44.44 9.46C44.22 9.66 44.0133 9.88667 43.82 10.14C43.6267 10.3933 43.4567 10.6533 43.31 10.92C43.17 11.1867 43.0567 11.45 42.97 11.71C42.89 11.97 42.85 12.2033 42.85 12.41C42.85 12.69 42.8967 12.89 42.99 13.01C43.0833 13.1367 43.21 13.2 43.37 13.2C43.5767 13.2 43.8033 13.11 44.05 12.93C44.29 12.75 44.5333 12.5033 44.78 12.19C45.0267 11.87 45.2667 11.49 45.5 11.05C45.7333 10.61 45.9433 10.1233 46.13 9.59ZM56.18 8.08C56.44 8.08 56.67 8.13333 56.87 8.24C57.07 8.34667 57.24 8.49 57.38 8.67C57.52 8.85 57.6267 9.06 57.7 9.3C57.7733 9.54 57.81 9.79667 57.81 10.07C57.81 10.23 57.7933 10.4067 57.76 10.6C57.72 10.7933 57.6667 10.99 57.6 11.19C57.5333 11.39 57.45 11.59 57.35 11.79C57.25 11.9967 57.14 12.1833 57.02 12.35C57.1067 12.3033 57.2133 12.2467 57.34 12.18C57.46 12.1067 57.59 12.03 57.73 11.95C57.87 11.8767 58.0167 11.7967 58.17 11.71C58.3233 11.6233 58.4733 11.5367 58.62 11.45L59.68 10.83C59.7067 10.81 59.75 10.8 59.81 10.8C59.91 10.8 59.96 10.8567 59.96 10.97C59.96 11.1167 59.8667 11.26 59.68 11.4C59.5133 11.5067 59.2967 11.6433 59.03 11.81C58.77 11.97 58.4867 12.13 58.18 12.29C57.8667 12.45 57.5533 12.59 57.24 12.71C56.92 12.83 56.6233 12.9 56.35 12.92C55.9967 13.18 55.58 13.39 55.1 13.55C54.6267 13.7167 54.07 13.8 53.43 13.8C53.1167 13.8 52.85 13.7733 52.63 13.72C52.4167 13.66 52.2433 13.58 52.11 13.48C51.9767 13.3733 51.88 13.2433 51.82 13.09C51.76 12.9367 51.73 12.76 51.73 12.56C51.73 12.2667 51.79 11.9533 51.91 11.62C52.03 11.2867 52.1767 10.9633 52.35 10.65C52.53 10.33 52.72 10.0333 52.92 9.76C53.12 9.48667 53.3 9.26333 53.46 9.09C53.3133 9.21667 53.1067 9.37 52.84 9.55C52.5733 9.72333 52.2733 9.91333 51.94 10.12C51.6067 10.32 51.2533 10.53 50.88 10.75C50.5 10.97 50.1267 11.1867 49.76 11.4C49.7067 11.42 49.6567 11.43 49.61 11.43C49.55 11.43 49.5033 11.4133 49.47 11.38C49.4367 11.3467 49.42 11.3033 49.42 11.25C49.42 11.1833 49.4467 11.1167 49.5 11.05C49.5533 10.9767 49.64 10.9033 49.76 10.83C50.4533 10.4233 51.0433 10.0733 51.53 9.78C52.0167 9.48667 52.4367 9.23667 52.79 9.03C53.15 8.82333 53.46 8.66 53.72 8.54C53.9867 8.42 54.24 8.32333 54.48 8.25C54.7267 8.18333 54.9833 8.14 55.25 8.12C55.51 8.09333 55.82 8.08 56.18 8.08ZM53.44 13.21C53.7267 13.21 54.0067 13.15 54.28 13.03C54.5533 12.91 54.82 12.75 55.08 12.55C55.02 12.4767 54.98 12.3967 54.96 12.31C54.94 12.2233 54.93 12.1367 54.93 12.05C54.93 11.89 54.98 11.77 55.08 11.69C55.1867 11.61 55.3133 11.57 55.46 11.57C55.6133 11.57 55.7633 11.6167 55.91 11.71C56.0567 11.6033 56.1967 11.4767 56.33 11.33C56.4633 11.1833 56.5767 11.0267 56.67 10.86C56.77 10.7 56.8467 10.5333 56.9 10.36C56.96 10.1867 56.99 10.0167 56.99 9.85C56.99 9.71 56.9633 9.57667 56.91 9.45C56.8567 9.31667 56.7733 9.20333 56.66 9.11C56.54 9.01 56.3867 8.93333 56.2 8.88C56.0133 8.82 55.7833 8.79 55.51 8.79C55.29 8.79 55.07 8.85 54.85 8.97C54.63 9.09 54.4167 9.25 54.21 9.45C54.01 9.64333 53.82 9.86667 53.64 10.12C53.4667 10.3733 53.3167 10.6367 53.19 10.91C53.0633 11.1767 52.9633 11.44 52.89 11.7C52.8167 11.96 52.78 12.1967 52.78 12.41C52.78 12.65 52.8333 12.8433 52.94 12.99C53.04 13.1367 53.2067 13.21 53.44 13.21ZM67.94 9.21C67.7667 9.21 67.55 9.26 67.29 9.36C67.03 9.45333 66.7467 9.58667 66.44 9.76C66.1267 9.93333 65.8033 10.1367 65.47 10.37C65.1367 10.5967 64.81 10.8467 64.49 11.12C64.1633 11.3933 63.8567 11.6833 63.57 11.99C63.2833 12.29 63.03 12.5933 62.81 12.9C62.79 12.9267 62.78 12.98 62.78 13.06C62.78 13.14 62.7667 13.2233 62.74 13.31C62.72 13.39 62.6733 13.4667 62.6 13.54C62.5267 13.6067 62.4033 13.64 62.23 13.64C62.1167 13.64 62.0267 13.6267 61.96 13.6C61.8933 13.5733 61.8433 13.5367 61.81 13.49C61.77 13.4367 61.7467 13.38 61.74 13.32C61.7333 13.2533 61.73 13.1767 61.73 13.09C61.73 13.01 61.7533 12.89 61.8 12.73C61.84 12.57 61.8967 12.3867 61.97 12.18C62.0433 11.9667 62.1267 11.74 62.22 11.5C62.3133 11.26 62.4067 11.02 62.5 10.78C62.5933 10.5333 62.68 10.2967 62.76 10.07C62.8467 9.84333 62.92 9.64 62.98 9.46L59.68 11.4C59.6533 11.4 59.6333 11.4033 59.62 11.41C59.6 11.41 59.5867 11.41 59.58 11.41C59.52 11.41 59.4733 11.3933 59.44 11.36C59.4133 11.3267 59.4 11.2833 59.4 11.23C59.4 11.17 59.4233 11.1033 59.47 11.03C59.5167 10.95 59.5867 10.8833 59.68 10.83C60.36 10.4233 60.9233 10.09 61.37 9.83C61.8167 9.57 62.1733 9.36 62.44 9.2C62.7067 9.04 62.9067 8.92 63.04 8.84C63.18 8.76 63.2833 8.70333 63.35 8.67C63.41 8.63667 63.4667 8.61333 63.52 8.6C63.5733 8.58 63.6333 8.57 63.7 8.57C63.8267 8.57 63.9333 8.61 64.02 8.69C64.1067 8.77 64.15 8.85667 64.15 8.95C64.15 9.04333 64.12 9.17333 64.06 9.34C64 9.50667 63.9267 9.69 63.84 9.89C63.7533 10.0833 63.6633 10.2833 63.57 10.49C63.4833 10.69 63.4067 10.8767 63.34 11.05C63.3133 11.1167 63.2933 11.1733 63.28 11.22C63.26 11.26 63.24 11.3067 63.22 11.36C63.2 11.42 63.1733 11.49 63.14 11.57C63.1 11.6567 63.0467 11.7733 62.98 11.92C63.1733 11.68 63.3967 11.4233 63.65 11.15C63.91 10.8833 64.19 10.62 64.49 10.36C64.7967 10.1067 65.12 9.86333 65.46 9.63C65.8067 9.39667 66.1633 9.19333 66.53 9.02C66.8967 8.84 67.27 8.7 67.65 8.6C68.0367 8.49333 68.42 8.44 68.8 8.44C69.0267 8.44 69.1867 8.49 69.28 8.59C69.3667 8.69 69.41 8.82333 69.41 8.99C69.41 9.13 69.3867 9.29667 69.34 9.49C69.2867 9.68333 69.2167 9.89667 69.13 10.13C69.0433 10.3567 68.9467 10.6033 68.84 10.87C68.7267 11.13 68.61 11.3933 68.49 11.66C68.37 11.9267 68.25 12.1933 68.13 12.46C68.01 12.7333 67.8967 12.9933 67.79 13.24C68.05 13.1333 68.32 12.9967 68.6 12.83C68.8867 12.6567 69.19 12.4667 69.51 12.26C69.83 12.0467 70.17 11.82 70.53 11.58C70.89 11.3333 71.2733 11.0833 71.68 10.83C71.7133 10.81 71.7567 10.8 71.81 10.8C71.9167 10.8 71.97 10.8633 71.97 10.99C71.97 11.05 71.9467 11.12 71.9 11.2C71.8467 11.2733 71.7733 11.34 71.68 11.4C71.14 11.7333 70.65 12.0533 70.21 12.36C69.77 12.6667 69.37 12.94 69.01 13.18C68.65 13.4133 68.32 13.6 68.02 13.74C67.72 13.88 67.4433 13.95 67.19 13.95C67.0367 13.95 66.9033 13.93 66.79 13.89C66.6833 13.85 66.5933 13.8 66.52 13.74C66.4533 13.6733 66.4033 13.5967 66.37 13.51C66.33 13.4167 66.31 13.3233 66.31 13.23C66.31 13.1233 66.3333 13.02 66.38 12.92C66.42 12.82 66.48 12.71 66.56 12.59C66.7 12.2767 66.8567 11.95 67.03 11.61C67.2033 11.27 67.3633 10.95 67.51 10.65C67.6567 10.3433 67.78 10.07 67.88 9.83C67.98 9.59667 68.03 9.42667 68.03 9.32C68.03 9.24667 68 9.21 67.94 9.21Z" fill="black"/>
</svg>
