<svg width="61.138" height="21.938" viewBox="0 0 61.138 21.938" xmlns="http://www.w3.org/2000/svg"><path transform="translate(0 17.206) scale(.014 -.014)" d="m96 0v757h153l210-616h5l215 616h153v-757h-104v449q0 28 1 57t2 56 2 49.5 1 37.5h-4l-226-649h-91l-222 650h-5q4-42 6-96t2-110v-444z"/><path transform="translate(12.992 17.206) scale(.014 -.014)" d="m320-11q-80 0-140.5 33.5t-94 99-33.5 160.5q0 92 31 159t87 103.5 130 36.5q108 0 169-69.5t61-189.5v-59h-370q2-91 45-139.5t121-48.5q53 0 93 10t85 31v-89q-42-19-84-28.5t-100-9.5zm-157 353h262q0 74-32.5 115t-92.5 41-95-40.5-42-115.5z"/><path transform="translate(21.126 17.206) scale(.014 -.014)" d="m84 0v570h83l16-78h5q26 44 71.5 66.5t100.5 22.5q95 0 145.5-49.5t50.5-158.5v-373h-103v358q0 68-27.5 102t-87.5 34q-83 0-115.5-52t-32.5-152v-290z"/><path transform="translate(30.058 17.206) scale(.014 -.014)" d="m353-11q-63 0-102 25t-61 59h-7l-21-73h-78v806h106v-198l-5-116h5q22 38 62.5 63.5t103.5 25.5q98 0 158.5-74t60.5-222q0-57-12-110.5t-38-95-68.5-66-103.5-24.5zm-22 88q67 0 101.5 54.5t34.5 155.5q0 103-34.5 155t-101.5 52q-48 0-79.5-19.5t-46.5-65-15-125.5q0-101 30-154t111-53z"/><path transform="translate(38.878 17.206) scale(.014 -.014)" d="m320-11q-80 0-140.5 33.5t-94 99-33.5 160.5q0 92 31 159t87 103.5 130 36.5q108 0 169-69.5t61-189.5v-59h-370q2-91 45-139.5t121-48.5q53 0 93 10t85 31v-89q-42-19-84-28.5t-100-9.5zm-157 353h262q0 74-32.5 115t-92.5 41-95-40.5-42-115.5z"/><path transform="translate(47.012 17.206) scale(.014 -.014)" d="m85 0v570h82l14-103h5q26 53 69.5 83.5t95.5 30.5q15 0 32.5-1t29.5-6l-12-97q-11 4-26 6t-29 2q-34 0-70-19.5t-61-59.5-25-104v-302z"/><path transform="translate(53.004 17.206) scale(.014 -.014)" d="m320-11q-80 0-140.5 33.5t-94 99-33.5 160.5q0 92 31 159t87 103.5 130 36.5q108 0 169-69.5t61-189.5v-59h-370q2-91 45-139.5t121-48.5q53 0 93 10t85 31v-89q-42-19-84-28.5t-100-9.5zm-157 353h262q0 74-32.5 115t-92.5 41-95-40.5-42-115.5z"/></svg>