<svg width="64" height="14" viewBox="0 0 64 14" fill="none" xmlns="http://www.w3.org/2000/svg">
<path d="M5.29 10.96C5.13667 10.96 5.00667 10.9367 4.9 10.89C4.78667 10.8367 4.72 10.7833 4.7 10.73C4.42 9.99667 4.12 9.22333 3.8 8.41C3.48667 7.59 3.16 6.79333 2.82 6.02C2.48667 5.24667 2.14667 4.55333 1.8 3.94C1.44667 3.32 1.08667 2.84667 0.72 2.52C0.8 2.44667 0.886667 2.38333 0.98 2.33C1.08 2.27 1.18 2.22667 1.28 2.2C1.38667 2.17333 1.47667 2.16 1.55 2.16C1.81 2.16 2.04 2.20333 2.24 2.29C2.44 2.37667 2.64 2.56 2.84 2.84C3.03333 3.11333 3.25333 3.52667 3.5 4.08C3.74667 4.62667 4.05 5.35667 4.41 6.27C4.76333 7.19 5.2 8.33333 5.72 9.7C5.97333 9.32667 6.26 8.90667 6.58 8.44C6.90667 7.97333 7.23667 7.47667 7.57 6.95C7.90333 6.42333 8.22333 5.88667 8.53 5.34C8.83 4.79333 9.09333 4.25 9.32 3.71C9.54667 3.17 9.7 2.65667 9.78 2.17C9.96 2.38333 10.0867 2.59 10.16 2.79C10.2333 2.99667 10.2667 3.2 10.26 3.4C10.2467 3.60667 10.2033 3.83 10.13 4.07C10.05 4.31 9.94 4.57333 9.8 4.86C9.48 5.53333 9.11333 6.2 8.7 6.86C8.28 7.51333 7.85333 8.16333 7.42 8.81C6.98 9.45 6.55333 10.1033 6.14 10.77C6.02 10.8367 5.87333 10.8867 5.7 10.92C5.52667 10.9467 5.39 10.96 5.29 10.96ZM1.96 13.47C1.68667 13.47 1.45667 13.4467 1.27 13.4C1.08333 13.3533 0.933333 13.2867 0.82 13.2C0.706667 13.12 0.626667 13.0267 0.58 12.92C0.526667 12.82 0.5 12.71 0.5 12.59C0.5 12.47 0.526667 12.2267 0.58 11.86C0.626667 11.4933 0.693333 11.0433 0.78 10.51C0.866667 9.97 0.953333 9.39333 1.04 8.78C1.12667 8.16667 1.21333 7.54333 1.3 6.91C1.38 6.28333 1.44667 5.68667 1.5 5.12C1.55333 4.55333 1.58 4.07 1.58 3.67C1.58 3.31667 1.56333 3.02667 1.53 2.8C1.49667 2.58 1.44667 2.4 1.38 2.26C1.74667 2.38 2.01667 2.53333 2.19 2.72C2.37 2.91333 2.49 3.13333 2.55 3.38C2.61 3.62667 2.64 3.9 2.64 4.2C2.64 4.96 2.58 5.76333 2.46 6.61C2.34 7.45667 2.21667 8.35667 2.09 9.31C1.96333 10.2567 1.9 11.2567 1.9 12.31C1.9 12.5033 1.90667 12.7 1.92 12.9C1.93333 13.0933 1.94667 13.2833 1.96 13.47ZM10.51 13.83C10.09 13.69 9.76 13.52 9.52 13.32C9.28667 13.12 9.12 12.88 9.02 12.6C8.92 12.3133 8.87 11.9767 8.87 11.59C8.87 11.33 8.89 11.0033 8.93 10.61C8.97667 10.2233 9.03333 9.78 9.1 9.28C9.17333 8.78667 9.25 8.25333 9.33 7.68C9.41 7.10667 9.48333 6.51333 9.55 5.9C9.62333 5.29333 9.68 4.67333 9.72 4.04C9.76 3.41333 9.78 2.79 9.78 2.17C10.0533 2.19667 10.2833 2.25333 10.47 2.34C10.6567 2.42667 10.8067 2.54 10.92 2.68C11.0267 2.82 11.1067 2.98333 11.16 3.17C11.2133 3.36333 11.24 3.58 11.24 3.82C11.24 4.12 11.21 4.53333 11.15 5.06C11.09 5.58 11.0133 6.16333 10.92 6.81C10.8267 7.45 10.7333 8.10667 10.64 8.78C10.5467 9.45333 10.47 10.0933 10.41 10.7C10.3433 11.3133 10.31 11.85 10.31 12.31C10.31 13.0167 10.3767 13.5233 10.51 13.83ZM15.9 13.61C15.4067 13.61 14.9667 13.4667 14.58 13.18C14.1933 12.8867 13.89 12.48 13.67 11.96C13.45 11.4467 13.34 10.8567 13.34 10.19C13.34 9.50333 13.44 8.86333 13.64 8.27C13.84 7.67667 14.1233 7.16 14.49 6.72C14.85 6.28 15.2767 5.93667 15.77 5.69C16.2567 5.44333 16.7867 5.32 17.36 5.32C18.0467 5.32 18.5667 5.49333 18.92 5.84C19.28 6.18667 19.46 6.69 19.46 7.35C19.46 7.84333 19.3233 8.29 19.05 8.69C18.7767 9.08333 18.4067 9.39333 17.94 9.62C17.4667 9.84667 16.9267 9.96 16.32 9.96C16.02 9.96 15.74 9.94333 15.48 9.91C15.22 9.87667 14.9667 9.83 14.72 9.77L14.77 9.28H15.28C15.8267 9.28 16.3 9.19 16.7 9.01C17.1 8.83 17.4133 8.57 17.64 8.23C17.86 7.89667 17.97 7.51 17.97 7.07C17.97 6.74333 17.8933 6.49333 17.74 6.32C17.5867 6.14 17.37 6.05 17.09 6.05C16.7367 6.05 16.42 6.18333 16.14 6.45C15.86 6.71667 15.62 7.06333 15.42 7.49C15.2267 7.91 15.08 8.36333 14.98 8.85C14.8733 9.33667 14.82 9.8 14.82 10.24C14.82 11.06 14.9433 11.6767 15.19 12.09C15.4367 12.5033 15.8033 12.71 16.29 12.71C17.2033 12.71 17.9567 12.2533 18.55 11.34C18.89 11.4 19.06 11.5267 19.06 11.72C18.66 12.3733 18.2067 12.8533 17.7 13.16C17.1933 13.46 16.5933 13.61 15.9 13.61ZM23 8.19L23.11 8.22C23.35 7.5 23.61 6.93 23.89 6.51C24.1633 6.08333 24.44 5.77667 24.72 5.59C25 5.40333 25.2533 5.31 25.48 5.31C25.7467 5.31 25.9667 5.38333 26.14 5.53C26.3133 5.68333 26.4433 5.87667 26.53 6.11C26.6233 6.35 26.67 6.60667 26.67 6.88C26.67 7.17333 26.62 7.45667 26.52 7.73C26.42 8.00333 26.2667 8.22333 26.06 8.39C25.8467 8.55667 25.5733 8.64 25.24 8.64C25.18 8.64 25.1233 8.63667 25.07 8.63C25.0167 8.63 24.9567 8.62333 24.89 8.61C25.0033 8.45 25.11 8.23333 25.21 7.96C25.31 7.68667 25.36 7.43667 25.36 7.21C25.36 7.06333 25.33 6.94333 25.27 6.85C25.21 6.75667 25.1067 6.71 24.96 6.71C24.7533 6.71 24.5267 6.83333 24.28 7.08C24.0333 7.32667 23.7933 7.68667 23.56 8.16C23.3333 8.62667 23.1467 9.20333 23 9.89C22.86 10.57 22.79 11.3433 22.79 12.21C22.79 12.3967 22.8 12.5867 22.82 12.78C22.8333 12.98 22.8467 13.1867 22.86 13.4C22.7667 13.4067 22.6867 13.4133 22.62 13.42C22.5533 13.4267 22.4933 13.43 22.44 13.43C22.04 13.43 21.7333 13.3367 21.52 13.15C21.3133 12.9633 21.21 12.6533 21.21 12.22C21.21 12.02 21.24 11.73 21.3 11.35C21.36 10.97 21.4267 10.5433 21.5 10.07C21.5733 9.59 21.64 9.09667 21.7 8.59C21.76 8.08333 21.79 7.59667 21.79 7.13C21.79 6.76333 21.7733 6.40333 21.74 6.05C21.7 5.69667 21.64 5.35667 21.56 5.03C22.1333 5.26333 22.5233 5.58333 22.73 5.99C22.9367 6.40333 23.04 6.88 23.04 7.42C23.04 7.51333 23.0367 7.63 23.03 7.77C23.03 7.90333 23.02 8.04333 23 8.19ZM29.19 12.17C29.19 12.5033 29.2033 12.7933 29.23 13.04C29.2567 13.2867 29.2967 13.4767 29.35 13.61C28.99 13.4767 28.7033 13.3033 28.49 13.09C28.2833 12.87 28.1367 12.5967 28.05 12.27C27.97 11.95 27.93 11.56 27.93 11.1C27.93 10.6933 27.9667 10.2367 28.04 9.73C28.1133 9.23 28.1867 8.71667 28.26 8.19C28.3333 7.67 28.37 7.17 28.37 6.69C28.37 6.45 28.37 6.21 28.37 5.97C28.3633 5.73667 28.3367 5.50333 28.29 5.27C28.3567 5.25667 28.4267 5.25 28.5 5.25C28.5733 5.24333 28.64 5.24 28.7 5.24C29.12 5.24 29.4233 5.33333 29.61 5.52C29.7967 5.70667 29.89 6.01333 29.89 6.44C29.89 6.71333 29.8333 7.13333 29.72 7.7C29.6067 8.27333 29.49 8.94 29.37 9.7C29.2567 10.4667 29.1967 11.29 29.19 12.17ZM29.82 4.08C29.7067 4.11333 29.5833 4.14333 29.45 4.17C29.3233 4.20333 29.1933 4.22 29.06 4.22C28.9267 4.22 28.7967 4.19667 28.67 4.15C28.5367 4.11 28.4267 4.03667 28.34 3.93C28.2533 3.82333 28.21 3.68 28.21 3.5C28.21 3.34 28.2367 3.18667 28.29 3.04C28.3433 2.89333 28.4 2.74 28.46 2.58C28.5733 2.53333 28.6967 2.49667 28.83 2.47C28.9633 2.45 29.09 2.44 29.21 2.44C29.3433 2.44 29.4767 2.46 29.61 2.5C29.7367 2.54 29.8433 2.61333 29.93 2.72C30.0233 2.82 30.07 2.96333 30.07 3.15C30.07 3.30333 30.04 3.45667 29.98 3.61C29.9267 3.76333 29.8733 3.92 29.82 4.08ZM34.46 13.61C33.9667 13.61 33.5267 13.4667 33.14 13.18C32.7533 12.8867 32.45 12.48 32.23 11.96C32.01 11.4467 31.9 10.8567 31.9 10.19C31.9 9.50333 32 8.86333 32.2 8.27C32.4 7.67667 32.6833 7.16 33.05 6.72C33.4167 6.28 33.8433 5.93667 34.33 5.69C34.8233 5.44333 35.3533 5.32 35.92 5.32C36.6133 5.32 37.1367 5.49333 37.49 5.84C37.8433 6.18667 38.02 6.69 38.02 7.35C38.02 7.84333 37.8833 8.29 37.61 8.69C37.3433 9.08333 36.9733 9.39333 36.5 9.62C36.0267 9.84667 35.4867 9.96 34.88 9.96C34.5867 9.96 34.3067 9.94333 34.04 9.91C33.78 9.87667 33.53 9.83 33.29 9.77L33.33 9.28H33.85C34.39 9.28 34.86 9.19 35.26 9.01C35.66 8.83 35.9733 8.57 36.2 8.23C36.4267 7.89667 36.54 7.51 36.54 7.07C36.54 6.74333 36.46 6.49333 36.3 6.32C36.1467 6.14 35.93 6.05 35.65 6.05C35.2967 6.05 34.98 6.18333 34.7 6.45C34.42 6.71667 34.1833 7.06333 33.99 7.49C33.79 7.91 33.64 8.36333 33.54 8.85C33.44 9.33667 33.39 9.8 33.39 10.24C33.39 11.06 33.5133 11.6767 33.76 12.09C34.0067 12.5033 34.3733 12.71 34.86 12.71C35.7733 12.71 36.5233 12.2533 37.11 11.34C37.4567 11.4 37.63 11.5267 37.63 11.72C37.23 12.3733 36.7733 12.8533 36.26 13.16C35.7533 13.46 35.1533 13.61 34.46 13.61ZM41.52 8.54L41.6 8.56C41.8467 7.92 42.15 7.36 42.51 6.88C42.87 6.39333 43.2433 6.01333 43.63 5.74C44.0233 5.46 44.39 5.32 44.73 5.32C45.2767 5.32 45.6567 5.5 45.87 5.86C46.0767 6.22 46.18 6.70333 46.18 7.31C46.18 7.75667 46.1367 8.24667 46.05 8.78C45.9633 9.31333 45.8733 9.86 45.78 10.42C45.6867 10.98 45.64 11.53 45.64 12.07C45.64 12.51 45.7033 12.8333 45.83 13.04C45.9633 13.2533 46.1633 13.44 46.43 13.6C46.3367 13.6067 46.25 13.61 46.17 13.61C46.0833 13.61 46 13.61 45.92 13.61C45.2933 13.61 44.8433 13.4933 44.57 13.26C44.3033 13.0267 44.17 12.5967 44.17 11.97C44.17 11.69 44.1967 11.37 44.25 11.01C44.3033 10.65 44.37 10.2733 44.45 9.88C44.5233 9.48 44.5867 9.08333 44.64 8.69C44.7 8.29 44.73 7.91333 44.73 7.56C44.73 6.94667 44.5433 6.64 44.17 6.64C43.9033 6.64 43.61 6.76667 43.29 7.02C42.97 7.28 42.6633 7.64667 42.37 8.12C42.0767 8.6 41.8333 9.17 41.64 9.83C41.4467 10.49 41.35 11.2233 41.35 12.03C41.35 12.2433 41.3567 12.4633 41.37 12.69C41.3767 12.9233 41.4 13.16 41.44 13.4C41.3467 13.4067 41.2633 13.4133 41.19 13.42C41.1233 13.4267 41.06 13.43 41 13.43C40.6 13.43 40.2933 13.3367 40.08 13.15C39.8733 12.9633 39.77 12.6533 39.77 12.22C39.77 12.02 39.8 11.73 39.86 11.35C39.92 10.97 39.9867 10.5433 40.06 10.07C40.14 9.59 40.21 9.09667 40.27 8.59C40.33 8.08333 40.36 7.59667 40.36 7.13C40.36 6.76333 40.34 6.40333 40.3 6.05C40.2667 5.69667 40.2067 5.35667 40.12 5.03C40.7 5.26333 41.0933 5.58333 41.3 5.99C41.5 6.40333 41.6 6.88 41.6 7.42C41.6 7.6 41.5933 7.78333 41.58 7.97C41.5667 8.15667 41.5467 8.34667 41.52 8.54ZM53.17 11.13L53.1 11.12C52.9 11.6333 52.64 12.07 52.32 12.43C52 12.7967 51.6467 13.0767 51.26 13.27C50.8733 13.4567 50.4767 13.55 50.07 13.55C49.71 13.55 49.3767 13.4533 49.07 13.26C48.77 13.0667 48.5267 12.76 48.34 12.34C48.1533 11.9267 48.06 11.4033 48.06 10.77C48.06 10.0033 48.1667 9.3 48.38 8.66C48.5933 8.02 48.89 7.47 49.27 7.01C49.65 6.55 50.09 6.19 50.59 5.93C51.0967 5.67667 51.6433 5.55 52.23 5.55C52.41 5.55 52.59 5.56333 52.77 5.59C52.95 5.61667 53.13 5.65333 53.31 5.7C52.6367 5.81333 52.0633 6.04667 51.59 6.4C51.11 6.75333 50.7233 7.17 50.43 7.65C50.1367 8.13 49.92 8.62667 49.78 9.14C49.64 9.65333 49.57 10.13 49.57 10.57C49.57 10.89 49.6133 11.1867 49.7 11.46C49.78 11.7333 49.91 11.9567 50.09 12.13C50.2767 12.2967 50.5233 12.38 50.83 12.38C51.2233 12.38 51.5733 12.2333 51.88 11.94C52.1867 11.6533 52.4533 11.26 52.68 10.76C52.9 10.26 53.09 9.69667 53.25 9.07C53.41 8.45 53.54 7.79667 53.64 7.11C53.7467 6.43 53.8267 5.76333 53.88 5.11C53.94 4.45667 53.98 3.85 54 3.29C54.0267 2.73 54.04 2.26333 54.04 1.89C54.04 1.53 54.03 1.18667 54.01 0.86C53.9967 0.54 53.9667 0.253333 53.92 0C54.26 0.106667 54.5333 0.293334 54.74 0.56C54.9533 0.833333 55.11 1.16667 55.21 1.56C55.3167 1.94667 55.37 2.39333 55.37 2.9C55.37 3.46 55.3233 4.08 55.23 4.76C55.1367 5.43333 55.0267 6.14667 54.9 6.9C54.7733 7.66 54.6633 8.44333 54.57 9.25C54.4767 10.0567 54.43 10.87 54.43 11.69C54.43 12.3567 54.47 13.01 54.55 13.65C54.19 13.5233 53.91 13.3367 53.71 13.09C53.51 12.8367 53.37 12.5433 53.29 12.21C53.2167 11.8767 53.1767 11.5167 53.17 11.13ZM61.9 11.05L61.81 11.02C61.63 11.5067 61.3733 11.9433 61.04 12.33C60.7133 12.7167 60.3467 13.02 59.94 13.24C59.5333 13.46 59.12 13.57 58.7 13.57C58.0733 13.57 57.5833 13.3267 57.23 12.84C56.8833 12.3533 56.71 11.6733 56.71 10.8C56.71 10.1 56.81 9.43667 57.01 8.81C57.21 8.19 57.4867 7.64667 57.84 7.18C58.1867 6.71333 58.5933 6.34667 59.06 6.08C59.5267 5.82 60.0267 5.69 60.56 5.69C60.72 5.69 60.8867 5.70667 61.06 5.74C61.24 5.76667 61.4433 5.81333 61.67 5.88C61.1633 6 60.6967 6.21 60.27 6.51C59.85 6.81 59.4867 7.17 59.18 7.59C58.88 8.01 58.6433 8.47667 58.47 8.99C58.3033 9.50333 58.22 10.0433 58.22 10.61C58.22 11.1833 58.32 11.62 58.52 11.92C58.7133 12.2267 58.9933 12.38 59.36 12.38C59.74 12.38 60.1033 12.2267 60.45 11.92C60.7967 11.62 61.11 11.21 61.39 10.69C61.67 10.17 61.8867 9.58333 62.04 8.93C62.2 8.27 62.28 7.58667 62.28 6.88C62.28 6.63333 62.27 6.38333 62.25 6.13C62.2367 5.87 62.21 5.64333 62.17 5.45C62.2633 5.43667 62.3467 5.43 62.42 5.43C62.4933 5.42333 62.5633 5.42 62.63 5.42C63.0167 5.42 63.31 5.51667 63.51 5.71C63.71 5.91 63.81 6.19667 63.81 6.57C63.81 6.81 63.7767 7.12333 63.71 7.51C63.6433 7.89 63.5667 8.31667 63.48 8.79C63.3933 9.27 63.3133 9.77 63.24 10.29C63.1733 10.8167 63.14 11.3367 63.14 11.85C63.14 12.25 63.17 12.5933 63.23 12.88C63.2967 13.1733 63.41 13.5 63.57 13.86C62.97 13.74 62.54 13.48 62.28 13.08C62.02 12.68 61.89 12.09 61.89 11.31C61.89 11.2367 61.89 11.1833 61.89 11.15C61.89 11.1167 61.8933 11.0833 61.9 11.05Z" fill="black"/>
</svg>
