<svg width="96" height="12" viewBox="0 0 96 12" fill="none" xmlns="http://www.w3.org/2000/svg">
<path d="M1.69 10.64L2.72 1.94L1.19 1.77V1.07H4.9L6.87 7.37L7.34 9.15L7.76 7.37L9.72 1.07H13.4V1.77L11.86 1.94L12.98 10.63L14.2 10.78V11.47H10.16V10.78L11.44 10.64L10.81 4.36L10.51 1.66L9.93 3.67L7.59 10.99H6.68L4.41 4.29L3.58 1.64L3.33 4.36L2.77 10.64L4.16 10.78V11.47H0.5V10.78L1.69 10.64ZM18.35 11.62C17.2233 11.62 16.3633 11.2533 15.77 10.52C15.1767 9.78 14.88 8.79333 14.88 7.56C14.88 6.75333 15.0333 6.04 15.34 5.42C15.6533 4.80667 16.0867 4.33 16.64 3.99C17.1933 3.65667 17.8267 3.49 18.54 3.49C19.4067 3.49 20.08 3.73 20.56 4.21C21.04 4.69 21.2933 5.38 21.32 6.28C21.32 6.84667 21.2867 7.28 21.22 7.58H16.41C16.43 8.5 16.6433 9.24333 17.05 9.81C17.4633 10.3767 18.0467 10.66 18.8 10.66C19.1733 10.66 19.5633 10.59 19.97 10.45C20.3767 10.3167 20.6933 10.1567 20.92 9.97L21.18 10.59C20.9133 10.87 20.5133 11.1133 19.98 11.32C19.4467 11.52 18.9033 11.62 18.35 11.62ZM16.42 6.84H19.78C19.8067 6.64 19.82 6.43667 19.82 6.23C19.8133 5.62333 19.6867 5.14667 19.44 4.8C19.1933 4.44667 18.8033 4.27 18.27 4.27C17.73 4.27 17.2967 4.46667 16.97 4.86C16.65 5.25333 16.4667 5.91333 16.42 6.84ZM22.55 11.47V10.78L23.6 10.7V4.78L22.6 4.53V3.77L24.53 3.52H24.56L24.86 3.77V4.02L24.82 5.11H24.86C24.9533 4.95667 25.1233 4.75333 25.37 4.5C25.61 4.24667 25.9233 4.01667 26.31 3.81C26.69 3.59667 27.1033 3.49 27.55 3.49C27.7367 3.49 27.89 3.51333 28.01 3.56V5.13C27.95 5.08333 27.8467 5.03667 27.7 4.99C27.5533 4.95 27.3933 4.93 27.22 4.93C26.44 4.93 25.72 5.17 25.06 5.65V10.69L26.84 10.8V11.47H22.55ZM28.97 11.47V10.78L30.02 10.7V4.78L29.01 4.53V3.77L30.94 3.52H30.97L31.28 3.77V4.02L31.23 5.11H31.28C31.3733 4.95667 31.54 4.75333 31.78 4.5C32.02 4.24667 32.3333 4.01667 32.72 3.81C33.1 3.59667 33.5133 3.49 33.96 3.49C34.1467 3.49 34.3033 3.51333 34.43 3.56V5.13C34.3633 5.08333 34.2567 5.03667 34.11 4.99C33.9633 4.95 33.8033 4.93 33.63 4.93C32.8567 4.93 32.1367 5.17 31.47 5.65V10.69L33.25 10.8V11.47H28.97ZM37 2.3C36.7 2.3 36.4767 2.21667 36.33 2.05C36.1833 1.88333 36.11 1.66667 36.11 1.4C36.11 1.10667 36.2 0.86 36.38 0.66C36.56 0.466667 36.81 0.37 37.13 0.37C37.4433 0.37 37.6767 0.453333 37.83 0.62C37.9767 0.786667 38.05 1 38.05 1.26C38.05 1.58 37.96 1.83333 37.78 2.02C37.6 2.20667 37.3467 2.3 37.02 2.3H37ZM36.44 10.66V4.78L35.38 4.53V3.78L37.55 3.52H37.58L37.9 3.77V10.67L39.02 10.78V11.47H35.31V10.78L36.44 10.66ZM39.28 4.36V3.7H42.55V4.36L41.48 4.53L42.64 8.64L43.05 10.42L43.46 8.63L44.8 3.7H46.17L47.56 8.63L47.96 10.43L48.41 8.64L49.55 4.54L48.48 4.36V3.7H51.32V4.36L50.58 4.54L48.41 11.58H47.1L45.61 6.64L45.25 4.9L44.95 6.64L43.54 11.58H42.24L40 4.53L39.28 4.36ZM55.2 11.62C54.0733 11.62 53.2133 11.2533 52.62 10.52C52.0267 9.78 51.73 8.79333 51.73 7.56C51.73 6.75333 51.8833 6.04 52.19 5.42C52.4967 4.80667 52.93 4.33 53.49 3.99C54.0433 3.65667 54.6733 3.49 55.38 3.49C56.2533 3.49 56.93 3.73 57.41 4.21C57.89 4.69 58.1433 5.38 58.17 6.28C58.17 6.84667 58.1367 7.28 58.07 7.58H53.26C53.2733 8.5 53.4867 9.24333 53.9 9.81C54.3133 10.3767 54.8967 10.66 55.65 10.66C56.0233 10.66 56.4133 10.59 56.82 10.45C57.2267 10.3167 57.54 10.1567 57.76 9.97L58.03 10.59C57.7567 10.87 57.3567 11.1133 56.83 11.32C56.2967 11.52 55.7533 11.62 55.2 11.62ZM53.27 6.84H56.63C56.6567 6.64 56.67 6.43667 56.67 6.23C56.6633 5.62333 56.5367 5.14667 56.29 4.8C56.0433 4.44667 55.6533 4.27 55.12 4.27C54.58 4.27 54.1467 4.46667 53.82 4.86C53.5 5.25333 53.3167 5.91333 53.27 6.84ZM59.37 9.37C59.37 8.49 59.81 7.84333 60.69 7.43C61.57 7.01667 62.68 6.79667 64.02 6.77V6.37C64.02 5.93667 63.9733 5.59333 63.88 5.34C63.7867 5.08667 63.6267 4.9 63.4 4.78C63.1733 4.66667 62.85 4.61 62.43 4.61C61.95 4.61 61.5233 4.67667 61.15 4.81C60.77 4.95 60.3933 5.11667 60.02 5.31L59.67 4.58C59.79 4.48 60.0133 4.34667 60.34 4.18C60.6667 4.00667 61.0433 3.85667 61.47 3.73C61.9033 3.59667 62.3333 3.53 62.76 3.53C63.4267 3.53 63.9533 3.62333 64.34 3.81C64.7267 3.99 65.0033 4.28 65.17 4.68C65.3367 5.08 65.42 5.61667 65.42 6.29V10.78H66.25V11.4C66.0633 11.4467 65.8267 11.4933 65.54 11.54C65.2533 11.5867 65.0033 11.61 64.79 11.61C64.53 11.61 64.3533 11.57 64.26 11.49C64.1667 11.41 64.12 11.2367 64.12 10.97V10.5C63.84 10.78 63.4967 11.0367 63.09 11.27C62.6833 11.5033 62.2233 11.62 61.71 11.62C61.0367 11.62 60.48 11.4267 60.04 11.04C59.5933 10.6533 59.37 10.0967 59.37 9.37ZM62.31 10.67C62.5567 10.67 62.8367 10.5967 63.15 10.45C63.47 10.2967 63.76 10.12 64.02 9.92V7.51C63.0067 7.51 62.24 7.66667 61.72 7.98C61.2 8.29333 60.94 8.7 60.94 9.2C60.94 9.70667 61.0633 10.08 61.31 10.32C61.5567 10.5533 61.89 10.67 62.31 10.67ZM69.62 11.61C69.0867 11.61 68.69 11.49 68.43 11.25C68.17 11.0033 68.04 10.5867 68.04 10V4.62H67.03V3.99C67.0767 3.98333 67.2067 3.95333 67.42 3.9C67.64 3.84 67.7867 3.78667 67.86 3.74C68.0067 3.66 68.1233 3.49333 68.21 3.24C68.2833 3.06 68.37 2.77333 68.47 2.38C68.5767 1.99333 68.64 1.76 68.66 1.68H69.48L69.51 3.7H71.85V4.62H69.51V8.92C69.51 9.45333 69.5267 9.82667 69.56 10.04C69.5933 10.2533 69.6633 10.3933 69.77 10.46C69.8767 10.5267 70.06 10.56 70.32 10.56C70.5733 10.56 70.85 10.5267 71.15 10.46C71.4567 10.3933 71.6933 10.3233 71.86 10.25L72.07 10.88C71.85 11.0467 71.49 11.21 70.99 11.37C70.49 11.53 70.0333 11.61 69.62 11.61ZM73.68 10.67V1.03L72.51 0.87V0.27L74.79 0H74.82L75.12 0.21V3.46L75.07 4.65C75.37 4.38333 75.78 4.12667 76.3 3.88C76.82 3.64 77.3467 3.52 77.88 3.52C78.4667 3.52 78.9233 3.63 79.25 3.85C79.5767 4.07667 79.8067 4.42 79.94 4.88C80.0733 5.34667 80.14 5.97 80.14 6.75V10.66L81.12 10.78V11.47H77.77V10.78L78.68 10.66V6.74C78.68 6.18667 78.6433 5.75333 78.57 5.44C78.4967 5.12667 78.3567 4.89333 78.15 4.74C77.9433 4.58667 77.6333 4.51 77.22 4.51C76.8867 4.51 76.53 4.59333 76.15 4.76C75.7633 4.93333 75.4267 5.13 75.14 5.35V10.66L76.1 10.78V11.47H72.84V10.78L73.68 10.67ZM85.6 11.62C84.4667 11.62 83.6033 11.2533 83.01 10.52C82.4167 9.78 82.12 8.79333 82.12 7.56C82.12 6.75333 82.2767 6.04 82.59 5.42C82.8967 4.80667 83.3267 4.33 83.88 3.99C84.4333 3.65667 85.0667 3.49 85.78 3.49C86.6467 3.49 87.32 3.73 87.8 4.21C88.28 4.69 88.5333 5.38 88.56 6.28C88.56 6.84667 88.53 7.28 88.47 7.58H83.65C83.67 8.5 83.8833 9.24333 84.29 9.81C84.7033 10.3767 85.2867 10.66 86.04 10.66C86.4133 10.66 86.8033 10.59 87.21 10.45C87.6167 10.3167 87.9333 10.1567 88.16 9.97L88.42 10.59C88.1533 10.87 87.7533 11.1133 87.22 11.32C86.6867 11.52 86.1467 11.62 85.6 11.62ZM83.66 6.84H87.02C87.0533 6.64 87.07 6.43667 87.07 6.23C87.0567 5.62333 86.9267 5.14667 86.68 4.8C86.4333 4.44667 86.0433 4.27 85.51 4.27C84.97 4.27 84.54 4.46667 84.22 4.86C83.8933 5.25333 83.7067 5.91333 83.66 6.84ZM89.8 11.47V10.78L90.85 10.7V4.78L89.84 4.53V3.77L91.77 3.52H91.8L92.11 3.77V4.02L92.06 5.11H92.11C92.2033 4.95667 92.37 4.75333 92.61 4.5C92.85 4.24667 93.1633 4.01667 93.55 3.81C93.93 3.59667 94.3433 3.49 94.79 3.49C94.9767 3.49 95.1333 3.51333 95.26 3.56V5.13C95.1933 5.08333 95.0867 5.03667 94.94 4.99C94.7933 4.95 94.6333 4.93 94.46 4.93C93.6867 4.93 92.9667 5.17 92.3 5.65V10.69L94.08 10.8V11.47H89.8Z" fill="black"/>
</svg>
