<svg width="81.99" height="17.261" viewBox="0 0 81.99 17.261" xmlns="http://www.w3.org/2000/svg"><path transform="translate(0 14.116) scale(.0068359 -.0068359)" d="M220 0V1441H516L926 346H961L1373 1441H1670V0H1514V1286H1478L1059 174H828L412 1286H376V0Z"/><path transform="translate(12.92 14.116) scale(.0068359 -.0068359)" d="m574-23q-163 0-263 53t-145.5 169-45.5 306q0 265 97.5 397t342.5 132q169 0 264-59.5t134-182.5 39-312h-721q0-203 69.5-290.5t232.5-87.5q133 0 191.5 39.5t62.5 136.5h157q0-154-101.5-227.5t-313.5-73.5zm-296 617h563q-4 121-31.5 190t-87.5 98-162 29-162.5-29-88-98-31.5-190z"/><path transform="translate(20.487 14.116) scale(.0068359 -.0068359)" d="m634 892h-248v-624q0-85 36.5-121.5t117.5-36.5q32 0 61.5 3.5t54.5 7.5v-133q-26-5-61-9.5t-85-4.5q-278 0-278 315v603h-182v122h182v277h153v-277h249z"/><path transform="translate(25.45 14.116) scale(.0068359 -.0068359)" d="m306 1011 19-157q53 107 143 143.5t184 36.5h19v-153h-22q-109 0-196-43t-119-140v-698h-154v1011z"/><path transform="translate(30.461 14.116) scale(.0068359 -.0068359)" d="m585-23q-167 0-269.5 53t-149 169.5-46.5 306.5 46.5 306 149 169 269.5 53q169 0 272-52.5t150-168 47-304.5q0-191-47-308.5t-150-170.5-272-53zm6 125q117 0 183.5 37t94.5 124.5 28 240.5q0 154-28.5 242.5t-96.5 125.5-187 37q-117 0-184-37.5t-95.5-126-28.5-243.5q0-152 28.5-239.5t97.5-124 188-36.5z"/><path transform="translate(38.486 14.116) scale(.0068359 -.0068359)" d="m180-389v1400h123l18-134q24 38 63 74t106.5 59.5 176.5 23.5q206 0 305-119.5t99-400.5q0-295-99.5-416t-306.5-121q-128 0-204.5 31.5t-126.5 104.5v-502zm449 491q109 0 171 38t88.5 128.5 26.5 247.5q0 150-26 235.5t-87.5 121.5-169.5 36q-113 0-178-37t-92.5-125-27.5-241q0-161 24.5-249t88.5-121.5 182-33.5z"/><path transform="translate(46.628 14.116) scale(.0068359 -.0068359)" d="m180 0v1442h154v-552q50 75 123.5 109.5t215.5 34.5q194 0 276.5-96.5t82.5-323.5v-614h-154v614q0 157-57.5 224t-192.5 67q-159 0-226.5-69t-67.5-230v-606z"/><path transform="translate(54.879 14.116) scale(.0068359 -.0068359)" d="m585-23q-167 0-269.5 53t-149 169.5-46.5 306.5 46.5 306 149 169 269.5 53q169 0 272-52.5t150-168 47-304.5q0-191-47-308.5t-150-170.5-272-53zm6 125q117 0 183.5 37t94.5 124.5 28 240.5q0 154-28.5 242.5t-96.5 125.5-187 37q-117 0-184-37.5t-95.5-126-28.5-243.5q0-152 28.5-239.5t97.5-124 188-36.5z"/><path transform="translate(62.904 14.116) scale(.0068359 -.0068359)" d="m667-23q-109 0-176.5 23.5t-106.5 60-63 73.5l-18-134h-123v1441h154v-543q50 73 126.5 104.5t204.5 31.5q207 0 306.5-120.5t99.5-416.5q0-280-99-400t-305-120zm-35 125q108 0 169.5 36t87.5 122 26 235q0 158-26.5 248t-88.5 128-171 38q-118 0-182-33.5t-88.5-121-24.5-249.5q0-153 27.5-241t92.5-125 178-37z"/><path transform="translate(71.046 14.116) scale(.0068359 -.0068359)" d="M155 1386H361V1194H155ZM335 0H181V1011H335Z"/><path transform="translate(74.566 14.116) scale(.0068359 -.0068359)" d="m824 310h157q-1-180-92-256.5t-303-76.5q-168 0-270.5 53t-149 170.5-46.5 308.5q0 190 47 305.5t149.5 168 270.5 52.5q198 0 294.5-81.5t99.5-251.5h-157q-8 113-63.5 160.5t-177.5 47.5q-116 0-183-37t-95-125-28-241q0-154 28.5-242.5t97.5-125.5 188-37q125 0 178 46.5t55 161.5z"/></svg>