<svg width="26.838" height="21.98" viewBox="0 0 26.838 21.98" xmlns="http://www.w3.org/2000/svg"><path transform="translate(0 16.1) scale(.014 -.014)" d="m59 36v607q0 19 8.5 28t29.5 9h54q16 0 24.5-4t13.5-16l202-465 202 465q5 12 13.5 16t24.5 4h54q21 0 29.5-9t8.5-28v-607q0-18-8.5-27t-28.5-9h-44q-20 0-29 9t-9 27v431l-171-381q-8-16-16-23t-26-7-26.5 7-15.5 23l-171 381v-431q0-18-8.5-27t-29.5-9h-44q-20 0-28.5 9t-8.5 27z"/><path transform="translate(10.948 16.1) scale(.014 -.014)" d="m59 611v21q0 20 13 34t37 14h43q24 0 37.5-14t13.5-34v-21q0-20-13.5-34t-37.5-14h-43q-24 0-37 14t-13 34zm8-575v407q0 19 9 28t29 9h52q20 0 29-9t9-28v-407q0-18-8.5-27t-29.5-9h-52q-20 0-29 9t-9 27z"/><path transform="translate(14.616 16.1) scale(.014 -.014)" d="m109 162v224h-57q-20 0-26.5 7t-6.5 26v27q0 19 6.5 26.5t26.5 7.5h57v55q0 21 7.5 39.5t23.5 46.5q6 12 11.5 15.5t19.5 3.5h33q18 0 25.5-8.5t7.5-25.5v-126h118q20 0 26.5-7.5t6.5-26.5v-27q0-19-6.5-26t-26.5-7h-118v-220q0-46 16-66.5t55-20.5q23 0 39 5.5t35 18.5q5 4 11 4t12-9l29-48q4-5 4-11 0-7-10-14-62-40-148-40-85 0-128 47t-43 130z"/><path transform="translate(21.014 16.1) scale(.014 -.014)" d="m59 36v417q0 15 5 21t21 6h57q11 0 16-4.5t6-15.5l3-36q59 71 155 71 44 0 67-15 6-4 7.5-8.5t-0.5-10.5l-18-60q-3-10-11-10l-8 2q-24 11-55 11-51 0-84-28.5t-33-77.5v-262q0-18-8.5-27t-29.5-9h-52q-20 0-29 9t-9 27z"/></svg>