<svg width="125.16" height="20.272" viewBox="0 0 125.16 20.272" xmlns="http://www.w3.org/2000/svg"><path transform="translate(0 16.24) scale(.014 -.014)" d="m47-73q-3 99-3 190 0 164 10 297t29 226q9 43 25.5 83t47 65.5 80.5 25.5q49 0 83-25.5t55.5-61.5 31.5-69q26-78 44-156t32-149q10 52 23 109.5t26 109 24 85.5q51 157 157 157 59 0 100-42.5t60-122.5q9-36 18.5-105t18-163.5 15-208.5 10.5-242l-176 4q0 53-2.5 123t-7 145.5-10 147.5-11 130-10.5 92.5-9 34.5q-1 0-10.5-35.5t-23-94.5-29.5-130-31.5-142.5-27.5-132-19-98.5l-157-4q-12 56-28.5 123.5t-34 138-34.5 136-31.5 117.5-23.5 82.5-11 30.5q-4 0-8.5-43.5t-8.5-117.5-6.5-167-2.5-192q0-47 0.5-86t1.5-64z"/><path transform="translate(13.734 16.24) scale(.014 -.014)" d="m345-82q-80 0-139.5 26t-98.5 71.5-58 104.5-19 124q0 66 23.5 122.5t65 98.5 97.5 65.5 122 23.5q69 0 128-24t103-67 68.5-101 24.5-126q0-151-83-234.5t-234-83.5zm-1 162q73 0 111.5 41t38.5 118q0 69-42 111t-110 42q-41 0-75-21.5t-54.5-57-20.5-78.5q0-38 15.5-74t49.5-58.5 87-22.5z"/><path transform="translate(23.422 16.24) scale(.014 -.014)" d="m342-81q-84 0-155 35t-114 100.5-43 156.5q0 102 40 179t112 119.5 168 42.5q92 0 156-37.5t114-118.5l-139-96q-28 45-57 68.5t-79 23.5q-68 0-110-47.5t-42-126.5q0-46 22.5-75t55.5-43 62-14q30 0 58 7.5t53 33.5 45 79l150-80q-30-55-67-102t-91.5-76-138.5-29z"/><path transform="translate(32.62 16.24) scale(.014 -.014)" d="m50-69q0 61 0.5 156.5t2 212.5 5 246 8.5 258l170 1q-4-57-8-139t-7-176q69 64 158 64 61 0 101.5-22t65.5-57.5 38-77.5 18-82.5 5-71.5q0-66-1-131t-1.5-114-0.5-69l-175-1q4 39 5.5 90t2 105.5 0.5 103.5q0 162-76 162-23 0-51-12t-53.5-38-40.5-69q-1-66-1-128 0-57 1.5-106.5t2.5-99.5z"/><path transform="translate(41.818 16.24) scale(.014 -.014)" d="m45 646q0 9-0.5 18.5t-0.5 21.5q0 32 2 68t4 61l178-3q-3-34-6.5-77t-4.5-89zm-4-716q-3 62-4 132.5t-1 141.5q0 93 2 181t5 160l172 1q-4-46-5-113.5t-1-141.5q0-73 1-144t2.5-128.5 2.5-88.5z"/><path transform="translate(45.514 16.24) scale(.014 -.014)" d="m208-271-150 80q56 62 109 127.5t101 134.5q-47 63-94 135.5t-87 142.5-65 125l160 70q18-48 46.5-104t63-114 71.5-111q108 175 178 345l166-66q-45-86-101.5-184.5t-121-200-134.5-199-142-181.5z"/><path transform="translate(58.912 16.24) scale(.014 -.014)" d="m129-67q-1 32-1 64.5t0 64.5q0 147 6 285.5t14 264.5q-40-10-67-19l-39 160q49 15 103.5 26.5t107 19 97 11 73.5 3.5q31 0 76.5-5t94-20.5 90.5-46.5 68.5-83.5 26.5-131.5q0-82-36-136.5t-95-87-130-46.5-140-14q-44 0-84 4-1-48-1-95 0-64 1-118.5t4-95.5zm289 716q-26 0-53.5-2t-54.5-5q-5-53-8-115t-5-127q37-3 77-3 240 0 240 142 0 56-48 83t-148 27z"/><path transform="translate(70.42 16.24) scale(.014 -.014)" d="m345-82q-80 0-139.5 26t-98.5 71.5-58 104.5-19 124q0 66 23.5 122.5t65 98.5 97.5 65.5 122 23.5q69 0 128-24t103-67 68.5-101 24.5-126q0-151-83-234.5t-234-83.5zm-1 162q73 0 111.5 41t38.5 118q0 69-42 111t-110 42q-41 0-75-21.5t-54.5-57-20.5-78.5q0-38 15.5-74t49.5-58.5 87-22.5z"/><path transform="translate(80.108 16.24) scale(.014 -.014)" d="m56-284q-7 80-10 161t-3 187q0 129 4 257t12 234l172-5q-3-23-5-49 36 24 77.5 35t84.5 11q55 0 107-17.5t94-55 66.5-96.5 24.5-142q0-82-25-143t-67-100.5-94-59-107-19.5q-101 0-178 60 2-64 6-123.5t10-121.5zm305 665q-99 0-149-97-3-60-4-122 24-32 62-55.5t97-23.5q141 0 141 161 0 43-16 70t-40 41.5-49 20-42 5.5z"/><path transform="translate(93.184 16.24) scale(.014 -.014)" d="m470-67q-94 0-171 34.5t-133 95.5-86 139-30 165q0 80 24 157.5t73 141 124.5 101.5 178.5 38q107 0 186-36.5t130-97.5 76-138 25-158q0-97-29-178t-82-140.5-126-91.5-160-32zm0 167q60 0 111 29.5t82 92.5 31 164q0 87-34 143t-88 83-113 27q-67 0-113-24t-74-64.5-40-90.5-12-103q0-52 20-98.5t54.5-82 79.5-56 96-20.5z"/><path transform="translate(106.02 16.24) scale(.014 -.014)" d="m56-72q-3 88-4.5 163t-1.5 148 1.5 146.5 5.5 157.5h169q-4-45-7-91 34 43 81 71.5t111 28.5q63 0 103.5-21t64-58 34-84.5 13.5-102 3-109.5q0-60-2-115t-4-92-3-44h-168q2 41 4 87.5t4 92 2 82.5q0 213-69 213-57 0-103.5-49.5t-77.5-124.5q0-10 0-20 0-48 0.5-99.5t2-98 2.5-80.5z"/><path transform="translate(115.53 16.24) scale(.014 -.014)" d="m350-80q-96 0-168.5 37.5t-113 104.5-40.5 155q0 53 18 111.5t58 109.5 105.5 83 159.5 32q68 0 114.5-15t76-39 45-51 21-51.5 5.5-40.5q0-97-81.5-149.5t-230.5-52.5q-34 0-64.5 3t-56.5 7q19-50 63-73.5t91-23.5q68 0 120 24.5t98 75.5l89-128q-32-26-71.5-54t-96.5-46.5-141-18.5zm22 483q-59 0-104-30t-66-79q25-4 49.5-6.5t48.5-2.5q22 0 50.5 4t56 12 45.5 20.5 18 29.5q0 8-8 20t-29 22-61 10z"/></svg>