<svg width="110" height="14" viewBox="0 0 110 14" fill="none" xmlns="http://www.w3.org/2000/svg">
<path d="M3.87 10.6H0.5C1.11333 10.4733 1.54333 10.1567 1.79 9.65L1.8 9.59L3.24 0L6.92 8.3L10.45 0L11.88 9.59L11.89 9.65C12.1367 10.1567 12.5667 10.4733 13.18 10.6H9.23C10.0967 10.2733 10.53 9.96667 10.53 9.68C10.53 9.66667 10.53 9.65333 10.53 9.64L10.52 9.59L9.63 3.69L6.52 10.87L3.37 3.63L2.57 9.59L2.56 9.67C2.56667 9.94333 3.00333 10.2533 3.87 10.6ZM15.28 6.89C15.28 7.91 15.3933 8.66667 15.62 9.16C15.9133 9.79333 16.3367 10.11 16.89 10.11C17.3833 10.11 17.7733 9.75333 18.06 9.04C18.2933 8.44667 18.4167 7.75 18.43 6.95V6.92C18.43 5.97333 18.2467 5.21 17.88 4.63C17.58 4.14333 17.2267 3.9 16.82 3.9C16.8133 3.9 16.8067 3.9 16.8 3.9C16.3667 3.9 16.0067 4.14667 15.72 4.64C15.4267 5.13333 15.28 5.88333 15.28 6.89ZM13.79 7C13.79 6.25333 13.9267 5.58333 14.2 4.99C14.48 4.39 14.8467 3.92 15.3 3.58C15.76 3.24 16.27 3.07 16.83 3.07C17.3767 3.07 17.8833 3.24 18.35 3.58C18.81 3.92 19.1767 4.39 19.45 4.99C19.7233 5.59 19.86 6.23333 19.86 6.92C19.86 7.61333 19.7233 8.25667 19.45 8.85C19.1767 9.44333 18.81 9.91333 18.35 10.26C17.8967 10.6 17.39 10.77 16.83 10.77C16.2967 10.77 15.7867 10.6 15.3 10.26C14.84 9.93333 14.4733 9.47333 14.2 8.88C13.9267 8.30667 13.79 7.68 13.79 7ZM22.86 6.89C22.86 7.91667 22.9733 8.67333 23.2 9.16C23.4933 9.79333 23.9333 10.11 24.52 10.11C24.96 10.11 25.3567 9.93333 25.71 9.58L25.78 9.48C25.8467 9.4 25.88 9.24667 25.88 9.02V4.93C25.8667 4.78333 25.8 4.61667 25.68 4.43C25.44 4.07 25.08 3.89 24.6 3.89H24.58C24.02 3.89667 23.59 4.14333 23.29 4.63C23.0033 5.13 22.86 5.88333 22.86 6.89ZM21.37 7C21.37 6.24667 21.5067 5.57333 21.78 4.98C22.0533 4.38 22.42 3.91 22.88 3.57C23.34 3.23 23.8467 3.06 24.4 3.06C24.9333 3.06 25.4267 3.22 25.88 3.54V1.62C25.88 1.52 25.85 1.44 25.79 1.38C25.7367 1.32667 25.5867 1.27333 25.34 1.22C25.0867 1.16667 24.8333 1.11333 24.58 1.06C24.8667 0.933333 25.5633 0.673333 26.67 0.28C26.81 0.226666 26.9967 0.166667 27.23 0.0999999V9.02C27.2367 9.12667 27.2667 9.20667 27.32 9.26C27.3933 9.32667 27.5333 9.38333 27.74 9.43C28.1133 9.52333 28.3767 9.57333 28.53 9.58C28.25 9.70667 27.5533 9.96667 26.44 10.36C25.6733 10.6267 25.0133 10.76 24.46 10.76C24.44 10.76 24.42 10.76 24.4 10.76C23.8667 10.76 23.36 10.59 22.88 10.25C22.4133 9.92333 22.0433 9.46667 21.77 8.88C21.5033 8.3 21.37 7.67333 21.37 7ZM29.56 6.92C29.56 6.23333 29.6967 5.59 29.97 4.99C30.2367 4.39667 30.6033 3.92667 31.07 3.58C31.53 3.24 32.0367 3.07 32.59 3.07C33.1167 3.07 33.6167 3.22333 34.09 3.53C34.43 3.71667 34.7333 4.03333 35 4.48C35.1933 4.8 35.3033 5.14667 35.33 5.52C35.3233 6.32667 34.96 6.98667 34.24 7.5C33.6267 7.94 32.9033 8.16 32.07 8.16C32.0633 8.16 31.7367 8.14 31.09 8.1C31.21 8.57333 31.3633 8.95667 31.55 9.25C31.8767 9.73667 32.3 9.98 32.82 9.98H32.84C33.4 9.98 33.8767 9.74 34.27 9.26C34.43 9.06667 34.5733 8.79667 34.7 8.45L35.49 8.69C35.47 8.76333 35.4533 8.81333 35.44 8.84C35.06 9.54 34.6933 10.0067 34.34 10.24C33.7733 10.5867 33.23 10.76 32.71 10.76H32.69C32.07 10.76 31.53 10.5933 31.07 10.26C30.61 9.92 30.2433 9.45 29.97 8.85C29.6967 8.25 29.56 7.60667 29.56 6.92ZM34.04 5.51C34.04 4.99667 33.9033 4.59333 33.63 4.3C33.39 4.04 33.0633 3.89 32.65 3.85H32.63C32.13 3.85 31.73 4.09333 31.43 4.58C31.2033 4.95333 31.0633 5.42 31.01 5.98C30.9767 6.3 30.96 6.65 30.96 7.03C30.96 7.15667 30.9667 7.30667 30.98 7.48C31.4 7.48667 31.8167 7.49 32.23 7.49C32.4433 7.49 32.5967 7.48 32.69 7.46C33.15 7.34 33.4667 7.14667 33.64 6.88C33.9067 6.44 34.04 5.98333 34.04 5.51ZM40.47 10.6H36.52C37.08 10.4933 37.5067 10.1733 37.8 9.64L37.81 9.59V4.81C37.81 4.70333 37.78 4.62333 37.72 4.57C37.64 4.49667 37.5033 4.44 37.31 4.4C36.8967 4.30667 36.6333 4.25667 36.52 4.25C36.8333 4.11 37.53 3.85 38.61 3.47C39.3767 3.20333 40.0367 3.07 40.59 3.07C40.61 3.07 40.6267 3.07 40.64 3.07C41.38 3.07 42.0233 3.32333 42.57 3.83C43.03 4.36333 43.26 4.89667 43.26 5.43C43.26 5.44333 43.26 5.45333 43.26 5.46C43.26 5.71333 43.1733 5.93333 43 6.12C42.8267 6.3 42.6167 6.39 42.37 6.39C42.1167 6.39 41.9067 6.30333 41.74 6.13C41.5667 5.95 41.48 5.74333 41.48 5.51C41.48 5.49667 41.48 5.49 41.48 5.49C41.48 5.23 41.5667 5.01333 41.74 4.84C41.9067 4.68 42.1033 4.59333 42.33 4.58C42.2967 4.39333 42.0733 4.18 41.66 3.94C41.4533 3.82 41.1867 3.76 40.86 3.76C40.8 3.76 40.7433 3.76333 40.69 3.77C40.1967 3.81 39.7867 3.94333 39.46 4.17C39.44 4.18333 39.3733 4.24333 39.26 4.35C39.2 4.41 39.17 4.56333 39.17 4.81V9.59L39.18 9.65C39.4267 10.1567 39.8567 10.4733 40.47 10.6ZM47.48 10.6H43.53C44.0967 10.4933 44.5233 10.1733 44.81 9.64L44.83 9.59V4.58C44.83 4.46667 44.8 4.39 44.74 4.35C44.6467 4.27667 44.5067 4.21667 44.32 4.17C43.9067 4.08333 43.6433 4.03333 43.53 4.02C43.6833 3.95333 44.38 3.69333 45.62 3.24C45.8133 3.17333 46 3.11667 46.18 3.07V3.59L46.2 3.58C46.66 3.24 47.17 3.07 47.73 3.07C48.2767 3.07 48.7833 3.24 49.25 3.58C49.71 3.92 50.0767 4.39 50.35 4.99C50.6233 5.59 50.76 6.23333 50.76 6.92V6.96V9.25C50.76 9.36333 50.79 9.44333 50.85 9.49C50.9433 9.56333 51.0833 9.62 51.27 9.66C51.6833 9.75333 51.9467 9.80333 52.06 9.81C51.8067 9.92333 51.11 10.1833 49.97 10.59C49.7767 10.6633 49.59 10.7233 49.41 10.77V6.95V6.92C49.41 5.88 49.21 5.11 48.81 4.61C48.4367 4.13667 47.99 3.9 47.47 3.9C47.4567 3.9 47.4467 3.9 47.44 3.9C46.86 3.9 46.44 4.11 46.18 4.53V9.59L46.19 9.65C46.4367 10.1567 46.8667 10.4733 47.48 10.6ZM59.05 10.6H55.68C56.24 10.4933 56.6667 10.1733 56.96 9.64L56.98 9.59L60.64 0L64.36 9.59L64.37 9.61L64.39 9.67C64.6833 10.1833 65.1067 10.4933 65.66 10.6H61.71C62.5833 10.3467 63.02 10.0633 63.02 9.75C63.02 9.71667 63.0133 9.68333 63 9.65L62.98 9.59L61.94 6.91H58.79L57.78 9.59L57.76 9.66C57.7533 9.68667 57.75 9.71667 57.75 9.75C57.75 10.0233 58.1833 10.3067 59.05 10.6ZM60.35 2.6L59.05 6.21H61.67L60.35 2.6ZM69.41 10.6H65.46C66.0267 10.4933 66.4533 10.1733 66.74 9.64L66.76 9.59V4.58C66.76 4.46667 66.73 4.39 66.67 4.35C66.5767 4.27667 66.4367 4.21667 66.25 4.17C65.8367 4.08333 65.5733 4.03333 65.46 4.02C65.6133 3.95333 66.31 3.69333 67.55 3.24C67.7433 3.17333 67.93 3.11667 68.11 3.07V3.59L68.13 3.58C68.5833 3.24 69.0933 3.07 69.66 3.07C70.2067 3.07 70.7133 3.24 71.18 3.58C71.64 3.92 72.0067 4.39 72.28 4.99C72.5533 5.59 72.69 6.23333 72.69 6.92V6.96V9.25C72.69 9.36333 72.72 9.44333 72.78 9.49C72.8733 9.56333 73.0133 9.62 73.2 9.66C73.6133 9.75333 73.8767 9.80333 73.99 9.81C73.7367 9.92333 73.04 10.1833 71.9 10.59C71.7067 10.6633 71.52 10.7233 71.34 10.77V6.95V6.92C71.34 5.88 71.14 5.11 70.74 4.61C70.3667 4.13667 69.92 3.9 69.4 3.9C69.3867 3.9 69.3767 3.9 69.37 3.9C68.79 3.9 68.37 4.11 68.11 4.53V9.59L68.12 9.65C68.3667 10.1567 68.7967 10.4733 69.41 10.6ZM73.65 4.8L74.87 2.79C74.8433 2.90333 74.83 3.02 74.83 3.14C74.83 3.44 74.9933 3.59 75.32 3.59C75.3267 3.59 75.3367 3.59 75.35 3.59H75.38H76.45V1.62C76.45 1.51333 76.42 1.43333 76.36 1.38C76.2933 1.31333 76.1467 1.25667 75.92 1.21C75.66 1.16333 75.4033 1.11333 75.15 1.06C75.5633 0.873333 76.26 0.613333 77.24 0.28C77.4133 0.22 77.6 0.16 77.8 0.0999999V3.59H79.27H79.33C79.9033 3.55667 80.3333 3.38333 80.62 3.07L79.4 5.08C79.4267 4.96667 79.44 4.85 79.44 4.73C79.44 4.43 79.2767 4.28 78.95 4.28C78.9433 4.28 78.9333 4.28 78.92 4.28H78.89H77.8V9.59L77.82 9.65C78.0667 10.1567 78.4933 10.4733 79.1 10.6H75.15C75.7167 10.4933 76.1467 10.1733 76.44 9.64L76.45 9.59V4.28H74.99H74.94C74.3667 4.31333 73.9367 4.48667 73.65 4.8ZM80.55 4.02C80.8767 3.88 81.5733 3.62 82.64 3.24C82.8133 3.18667 83 3.13 83.2 3.07V9.59L83.22 9.65C83.4667 10.1567 83.8933 10.4733 84.5 10.6H80.55C81.1167 10.4933 81.5467 10.1733 81.84 9.64L81.85 9.59V4.58C81.85 4.46667 81.82 4.39 81.76 4.35C81.6667 4.27 81.5133 4.21 81.3 4.17C80.8533 4.07 80.6033 4.02 80.55 4.02ZM81.9 1.64C81.7267 1.46667 81.64 1.25333 81.64 1C81.64 0.753333 81.7267 0.54 81.9 0.36C82.0733 0.186667 82.2833 0.0999999 82.53 0.0999999C82.7767 0.0999999 82.9867 0.186667 83.16 0.36C83.3333 0.54 83.42 0.753333 83.42 1C83.42 1.25333 83.3333 1.46667 83.16 1.64C82.9867 1.81333 82.7767 1.9 82.53 1.9C82.2833 1.9 82.0733 1.81333 81.9 1.64ZM87.02 6.94C87.02 7.94667 87.1667 8.7 87.46 9.2C87.76 9.69333 88.2067 9.94 88.8 9.94C89.2533 9.94 89.6 9.76 89.84 9.4C89.9667 9.21333 90.0333 9.04667 90.04 8.9V8.84V4.81C90.04 4.57667 90.0067 4.42333 89.94 4.35L89.88 4.25C89.52 3.89667 89.1267 3.72 88.7 3.72C88.66 3.72 88.62 3.72 88.58 3.72C88.0533 3.74 87.6467 4.05667 87.36 4.67C87.1333 5.15667 87.02 5.91333 87.02 6.94ZM85.53 6.83C85.53 6.15667 85.6633 5.53 85.93 4.95C86.2033 4.37 86.5733 3.91333 87.04 3.58C87.52 3.24 88.0633 3.07 88.67 3.07C89.19 3.07 89.8333 3.20333 90.6 3.47C91.7 3.85667 92.3967 4.11667 92.69 4.25C92.59 4.25667 92.3267 4.30667 91.9 4.4C91.72 4.44 91.58 4.49667 91.48 4.57C91.42 4.61667 91.39 4.69667 91.39 4.81V12.55L91.41 12.6C91.7033 13.1333 92.13 13.4533 92.69 13.56H88.74C89.3533 13.4333 89.7833 13.1167 90.03 12.61L90.04 12.55V10.29C89.5867 10.61 89.0933 10.77 88.56 10.77C88.0067 10.77 87.5 10.6 87.04 10.26C86.5867 9.92 86.22 9.45 85.94 8.85C85.6667 8.25667 85.53 7.58333 85.53 6.83ZM97.55 3.24H101.5C100.933 3.34667 100.503 3.66333 100.21 4.19L100.2 4.25V9.25C100.2 9.36333 100.23 9.44333 100.29 9.49C100.377 9.56333 100.513 9.62 100.7 9.66C101.12 9.75333 101.387 9.80333 101.5 9.81C101.24 9.92333 100.543 10.1833 99.41 10.59C99.2167 10.6633 99.03 10.7233 98.85 10.77V10.24L98.82 10.26C98.3667 10.6 97.86 10.77 97.3 10.77C96.7467 10.77 96.24 10.6 95.78 10.26C95.32 9.92 94.9533 9.45 94.68 8.85C94.4067 8.25 94.27 7.60667 94.27 6.92V6.87V4.58C94.27 4.46667 94.24 4.39 94.18 4.35C94.08 4.27667 93.94 4.21667 93.76 4.17C93.36 4.08333 93.0967 4.03333 92.97 4.02C93.2233 3.90667 93.92 3.64667 95.06 3.24C95.2533 3.17333 95.44 3.11667 95.62 3.07V6.89V6.92C95.62 7.95333 95.8167 8.72333 96.21 9.23C96.5833 9.70333 97.0333 9.94 97.56 9.94C97.5667 9.94 97.5767 9.94 97.59 9.94C98.17 9.94 98.59 9.73 98.85 9.31V4.25L98.83 4.19C98.5833 3.68333 98.1567 3.36667 97.55 3.24ZM104.01 6.89C104.01 7.91667 104.123 8.67333 104.35 9.16C104.643 9.79333 105.047 10.11 105.56 10.11C105.633 10.11 105.703 10.11 105.77 10.11C106.15 10.11 106.513 9.93667 106.86 9.59L106.93 9.49C106.997 9.41667 107.03 9.26333 107.03 9.03V4.81C107.03 4.57667 107 4.42333 106.94 4.35L106.87 4.25C106.517 3.89667 106.153 3.72 105.78 3.72C105.707 3.72 105.637 3.72 105.57 3.72C105.057 3.72 104.65 4.03667 104.35 4.67C104.123 5.17 104.01 5.91 104.01 6.89ZM102.52 6.83C102.52 6.15667 102.657 5.53 102.93 4.95C103.197 4.37 103.563 3.91333 104.03 3.58C104.517 3.24 105.06 3.07 105.66 3.07C106.187 3.07 106.833 3.20333 107.6 3.47C108.693 3.85667 109.39 4.11667 109.69 4.25C109.59 4.25667 109.323 4.30667 108.89 4.4C108.71 4.44 108.573 4.49667 108.48 4.57C108.42 4.61667 108.39 4.69667 108.39 4.81V9.03C108.39 9.15 108.417 9.23 108.47 9.27C108.563 9.34333 108.703 9.4 108.89 9.44C109.317 9.53333 109.58 9.58333 109.68 9.59C109.387 9.72333 108.69 9.98333 107.59 10.37C106.823 10.6367 106.177 10.77 105.65 10.77C105.05 10.77 104.51 10.6 104.03 10.26C103.557 9.92667 103.187 9.46667 102.92 8.88C102.653 8.31333 102.52 7.63 102.52 6.83Z" fill="black"/>
</svg>
