<svg width="42" height="15" viewBox="0 0 42 15" fill="none" xmlns="http://www.w3.org/2000/svg">
<path d="M2.36062 9.8C2.14729 9.8 1.89396 9.72333 1.60063 9.57C1.30729 9.41667 1.05062 9.23333 0.830625 9.02C0.610625 8.8 0.500625 8.62 0.500625 8.48C0.493958 8.33333 0.540625 8.02 0.640625 7.54C0.733958 7.06 0.793958 6.75 0.820625 6.61C0.860625 6.42333 0.930625 6.08 1.03062 5.58C1.13729 5.08 1.22396 4.61667 1.29062 4.19L1.40062 3.53C1.57396 2.48333 1.74063 1.63333 1.90062 0.98C2.05396 0.326667 2.20729 0 2.36062 0C2.52062 0 2.74062 0.0666669 3.02062 0.2C3.29396 0.326667 3.55062 0.49 3.79062 0.69C4.03729 0.89 4.20063 1.08 4.28063 1.26C4.43396 1.59333 4.63063 2.31333 4.87063 3.42C5.03729 4.18 5.16396 4.70667 5.25063 5C5.65063 4.39333 6.16396 3.46333 6.79063 2.21C7.19063 1.41667 7.49729 0.85 7.71063 0.51C7.91729 0.17 8.10396 0 8.27063 0C8.45063 0 8.69062 0.0800003 8.99062 0.24C9.29729 0.4 9.56396 0.586667 9.79062 0.8C10.0173 1.01333 10.1306 1.2 10.1306 1.36C10.1306 1.48667 10.0773 1.85333 9.97062 2.46C9.85729 3.06 9.78729 3.43333 9.76062 3.58L9.39062 5.56C9.29729 6.10667 9.20063 6.83 9.10063 7.73C9.00729 8.49667 8.92396 9.03333 8.85063 9.34C8.78396 9.64667 8.67396 9.8 8.52063 9.8C8.30729 9.8 8.05396 9.72333 7.76063 9.57C7.46729 9.41667 7.21062 9.23333 6.99062 9.02C6.77063 8.8 6.66062 8.62 6.66062 8.48C6.65396 8.36 6.69063 8.10333 6.77063 7.71C6.85063 7.31 6.94063 6.86 7.04063 6.36C7.12729 5.95333 7.17396 5.72333 7.18062 5.67L7.68062 4.12L7.49062 4.05L7.35063 4.33C6.98396 5.07667 6.69062 5.65667 6.47062 6.07C6.25063 6.48333 6.07062 6.78 5.93062 6.96C5.83729 7.07333 5.67062 7.16333 5.43062 7.23C5.19063 7.30333 4.95396 7.34 4.72062 7.34C4.47396 7.34 4.31062 7.29667 4.23062 7.21C4.14396 7.13667 4.07062 6.98 4.01062 6.74C3.95062 6.5 3.86729 6.13 3.76062 5.63C3.74729 5.52333 3.69729 5.27333 3.61062 4.88C3.52396 4.48 3.43062 4.11667 3.33062 3.79L3.23062 5.56C3.13729 6.10667 3.04062 6.83 2.94062 7.73C2.84729 8.49667 2.76396 9.03333 2.69062 9.34C2.62396 9.64667 2.51396 9.8 2.36062 9.8ZM13.8306 1.89C14.4906 1.96333 15.094 2.16 15.6406 2.48C16.1873 2.80667 16.614 3.19333 16.9206 3.64C17.234 4.08667 17.3906 4.53333 17.3906 4.98C17.3906 5.65333 17.2173 6.37 16.8706 7.13C16.524 7.88333 16.044 8.51667 15.4306 9.03C14.8106 9.54333 14.124 9.8 13.3706 9.8C12.9973 9.8 12.6006 9.66333 12.1806 9.39C11.7606 9.11 11.4073 8.77333 11.1206 8.38C10.834 7.98 10.6906 7.62667 10.6906 7.32C10.6906 6.75333 10.7606 6.17 10.9006 5.57C11.0406 4.96333 11.2573 4.37667 11.5506 3.81C11.8173 3.65667 12.0873 3.58 12.3606 3.58C12.4806 3.58 12.594 3.59667 12.7006 3.63C12.6606 3.51667 12.6406 3.38333 12.6406 3.23C12.6406 2.93667 12.7473 2.66667 12.9606 2.42C13.1673 2.18 13.4573 2.00333 13.8306 1.89ZM12.8606 8.2C13.6406 7.94 14.244 7.49333 14.6706 6.86C15.0973 6.22667 15.3806 5.47 15.5206 4.59C15.1006 4.29 14.534 4.14 13.8206 4.14C13.6406 4.14 13.504 4.14667 13.4106 4.16C13.5106 4.34667 13.5606 4.55667 13.5606 4.79C13.3206 5.17 13.134 5.59 13.0006 6.05C12.874 6.51667 12.8106 6.98333 12.8106 7.45C12.8106 7.73 12.8273 7.98 12.8606 8.2ZM22.8006 7.59C22.234 8.03667 21.664 8.42333 21.0906 8.75C20.5173 9.07667 20.044 9.24 19.6706 9.24C19.4573 9.24 19.2206 9.16 18.9606 9C18.7073 8.83333 18.4906 8.63 18.3106 8.39C18.1306 8.15667 18.0406 7.93667 18.0406 7.73C18.0406 6.95667 18.1973 6.11 18.5106 5.19C18.824 4.27 19.2506 3.49333 19.7906 2.86C20.324 2.22 20.914 1.9 21.5606 1.9C21.814 1.9 22.0606 2.01667 22.3006 2.25C22.5406 2.47667 22.7306 2.73 22.8706 3.01C22.9106 2.78333 22.974 2.60667 23.0606 2.48C23.154 2.34667 23.2473 2.28 23.3406 2.28C23.4806 2.28 23.694 2.37 23.9806 2.55C24.2673 2.73667 24.5273 2.94 24.7606 3.16C24.994 3.38667 25.1106 3.55667 25.1106 3.67C25.1106 4.02333 24.974 4.97 24.7006 6.51C24.4273 8.05 24.1273 9.54667 23.8006 11C23.4806 12.46 23.2506 13.3067 23.1106 13.54C22.8973 13.8733 22.564 14.1667 22.1106 14.42C21.6573 14.6733 21.2173 14.8 20.7906 14.8C20.3906 14.8 19.984 14.6767 19.5706 14.43C19.1573 14.19 18.8206 13.8933 18.5606 13.54C18.3006 13.1867 18.1706 12.8633 18.1706 12.57C18.1706 12.2367 18.3706 11.8467 18.7706 11.4C19.164 10.9467 19.644 10.5 20.2106 10.06C20.784 9.61333 21.514 9.08 22.4006 8.46C22.5606 8.33333 22.7973 8.16 23.1106 7.94L22.8006 7.59ZM22.0506 3.68C21.724 3.68 21.4173 3.88667 21.1306 4.3C20.844 4.72 20.604 5.24 20.4106 5.86C20.2173 6.48 20.0873 7.09 20.0206 7.69C20.894 7.32333 21.594 6.81333 22.1206 6.16C22.6406 5.50667 22.924 4.83333 22.9706 4.14C22.8573 4.02 22.7173 3.91333 22.5506 3.82C22.3773 3.72667 22.2106 3.68 22.0506 3.68ZM22.6406 9.84C21.054 11.08 20.2606 11.9667 20.2606 12.5C20.2606 12.6867 20.3406 12.8467 20.5006 12.98C20.6673 13.12 20.874 13.23 21.1206 13.31C21.4006 12.9833 21.6573 12.54 21.8906 11.98C22.124 11.42 22.374 10.7067 22.6406 9.84ZM28.0406 9.8C27.7873 9.8 27.5106 9.72 27.2106 9.56C26.9173 9.39333 26.6606 9.2 26.4406 8.98C26.2273 8.76 26.1206 8.57667 26.1206 8.43C26.1206 8.25 26.1573 8.02 26.2306 7.74C26.3106 7.45333 26.424 7.08 26.5706 6.62C26.7173 6.14667 26.8306 5.76667 26.9106 5.48C26.984 5.19333 27.0206 4.96333 27.0206 4.79C27.0206 4.71667 26.9773 4.63667 26.8906 4.55C26.8106 4.46333 26.6806 4.35 26.5006 4.21C26.294 4.04333 26.144 3.91333 26.0506 3.82C25.9573 3.72667 25.9106 3.63333 25.9106 3.54C25.9106 3.34667 26.004 3.12 26.1906 2.86C26.3773 2.59333 26.5973 2.36667 26.8506 2.18C27.104 1.99333 27.3173 1.9 27.4906 1.9C27.6906 1.9 27.9173 1.99 28.1706 2.17C28.4173 2.35 28.634 2.55333 28.8206 2.78C29.0073 3.00667 29.1006 3.18 29.1006 3.3C29.1006 3.66 29.0306 4.12667 28.8906 4.7L29.0606 4.79C29.274 4.44333 29.5106 4.03 29.7706 3.55C30.024 3.07 30.1806 2.77333 30.2406 2.66L30.5006 2.16C31.1473 2.14 31.6306 2.25667 31.9506 2.51C32.264 2.75667 32.4206 3.09 32.4206 3.51C32.4206 3.92333 32.2873 4.33667 32.0206 4.75C31.3473 4.97 30.774 5.19 30.3006 5.41C29.8273 5.63 29.354 5.89 28.8806 6.19C28.854 7.22333 28.774 8.08333 28.6406 8.77C28.5006 9.45667 28.3006 9.8 28.0406 9.8ZM39.0606 7.74C39.6273 7.46 40.1073 7.16333 40.5006 6.85C40.914 6.99 41.2206 7.18333 41.4206 7.43C41.6206 7.67667 41.7206 7.95667 41.7206 8.27C41.7206 8.49667 41.5606 8.73 41.2406 8.97C40.9273 9.20333 40.5506 9.4 40.1106 9.56C39.6706 9.72 39.2973 9.8 38.9906 9.8C38.7773 9.8 38.5306 9.72 38.2506 9.56C37.9773 9.4 37.7406 9.21333 37.5406 9C37.3406 8.78667 37.2406 8.62 37.2406 8.5C37.2406 8.40667 37.2806 8.28 37.3606 8.12C37.4406 7.96 37.5273 7.79667 37.6206 7.63C37.714 7.46333 37.774 7.35 37.8006 7.29L37.4506 7.1C36.9573 7.91333 36.484 8.56667 36.0306 9.06C35.5773 9.55333 35.1306 9.8 34.6906 9.8C34.3906 9.8 34.074 9.67 33.7406 9.41C33.414 9.15 33.1373 8.83333 32.9106 8.46C32.6773 8.08667 32.5606 7.75333 32.5606 7.46C32.5606 6.63333 32.734 5.78333 33.0806 4.91C33.4273 4.04333 33.9106 3.32667 34.5306 2.76C35.1506 2.18667 35.854 1.9 36.6406 1.9C36.9206 1.9 37.204 2.02667 37.4906 2.28C37.7773 2.53333 37.964 2.79 38.0506 3.05C38.0973 2.84333 38.164 2.66333 38.2506 2.51C38.344 2.35667 38.4406 2.28 38.5406 2.28C38.7806 2.28 39.0473 2.36667 39.3406 2.54C39.6406 2.71333 39.8906 2.91333 40.0906 3.14C40.2973 3.37333 40.4006 3.55333 40.4006 3.68C40.394 3.86 40.324 4.15333 40.1906 4.56C40.0506 4.97333 39.8306 5.6 39.5306 6.44C39.3573 6.9 39.2006 7.33333 39.0606 7.74ZM34.7606 7.85C35.514 7.38333 36.1706 6.80667 36.7306 6.12C37.2906 5.44 37.674 4.68333 37.8806 3.85C37.6273 3.73667 37.3906 3.68 37.1706 3.68C36.7306 3.68 36.3373 3.87667 35.9906 4.27C35.644 4.66333 35.3706 5.17667 35.1706 5.81C34.964 6.44333 34.8273 7.12333 34.7606 7.85Z" fill="black"/>
</svg>
