<svg width="39" height="11" viewBox="0 0 39 11" fill="none" xmlns="http://www.w3.org/2000/svg">
<path d="M1.52 10.5H0.5V0H1.59L3.94 9H3.7L6.05 0H7.14V10.5H6.12V2.81L6.24 2.84L4.23 10.5H3.41L1.4 2.84L1.52 2.81V10.5ZM11.55 10.67C11.07 10.67 10.6533 10.5667 10.3 10.36C9.94 10.1533 9.65667 9.86667 9.45 9.5C9.24333 9.12667 9.14 8.69333 9.14 8.2V5.19C9.14 4.71 9.24333 4.28333 9.45 3.91C9.65667 3.53667 9.94 3.24667 10.3 3.04C10.6533 2.83333 11.07 2.73 11.55 2.73C12.2633 2.73 12.84 2.95667 13.28 3.41C13.7133 3.86333 13.93 4.45667 13.93 5.19V8.2C13.93 8.93333 13.7133 9.53 13.28 9.99C12.84 10.4433 12.2633 10.67 11.55 10.67ZM11.55 9.65C11.97 9.65 12.3033 9.52 12.55 9.26C12.7967 9 12.92 8.65667 12.92 8.23V5.16C12.92 4.73333 12.7967 4.39 12.55 4.13C12.3033 3.87667 11.97 3.75 11.55 3.75C11.1233 3.75 10.7833 3.87667 10.53 4.13C10.2767 4.39 10.15 4.73333 10.15 5.16V8.23C10.15 8.65667 10.2767 9 10.53 9.26C10.7833 9.52 11.1233 9.65 11.55 9.65ZM16.73 10.5H15.71V0H16.73V3.9L16.56 3.68C16.7333 3.38 16.9667 3.14333 17.26 2.97C17.5467 2.80333 17.89 2.72 18.29 2.72C18.69 2.72 19.05 2.81 19.37 2.99C19.69 3.17 19.9433 3.43333 20.13 3.78C20.31 4.12667 20.4 4.55 20.4 5.05V10.5H19.39V5.15C19.39 4.72333 19.27 4.38 19.03 4.12C18.79 3.86667 18.47 3.74 18.07 3.74C17.6633 3.74 17.34 3.86667 17.1 4.12C16.8533 4.38 16.73 4.72333 16.73 5.15V10.5ZM24.04 10.67C23.34 10.67 22.8 10.4767 22.42 10.09C22.0333 9.70333 21.84 9.21333 21.84 8.62C21.84 8.24667 21.91 7.94 22.05 7.7C22.1833 7.45333 22.3567 7.25333 22.57 7.1C22.7833 6.94667 23.0067 6.82333 23.24 6.73C23.5267 6.61 23.82 6.51667 24.12 6.45C24.4133 6.38333 24.6867 6.31 24.94 6.23C25.1933 6.15667 25.3967 6.05 25.55 5.91C25.7033 5.77667 25.78 5.58667 25.78 5.34V5.16C25.78 4.73333 25.6533 4.39 25.4 4.13C25.1467 3.87667 24.81 3.75 24.39 3.75C23.9633 3.75 23.6267 3.87667 23.38 4.13C23.1333 4.39 23.01 4.73333 23.01 5.16V5.37H22V5.19C22 4.45667 22.22 3.86333 22.66 3.41C23.0933 2.95667 23.67 2.73 24.39 2.73C24.8567 2.73 25.2733 2.83333 25.64 3.04C26 3.24667 26.2833 3.53667 26.49 3.91C26.69 4.27667 26.79 4.70333 26.79 5.19V10.5H25.78V9.45L25.95 9.67C25.77 9.99 25.52 10.2367 25.2 10.41C24.88 10.5833 24.4933 10.67 24.04 10.67ZM24.25 9.7C24.73 9.7 25.1033 9.56667 25.37 9.3C25.6433 9.03333 25.78 8.65 25.78 8.15V6.8C25.4933 6.98 25.1767 7.1 24.83 7.16C24.4767 7.22667 24.1433 7.31333 23.83 7.42C23.55 7.51333 23.3167 7.64667 23.13 7.82C22.95 7.98667 22.86 8.22667 22.86 8.54C22.86 8.88 22.98 9.16 23.22 9.38C23.4667 9.59333 23.81 9.7 24.25 9.7ZM30.98 10.5H29.75L27.58 2.91H28.66L30.48 9.41H30.24L32.04 2.91H33.13L30.98 10.5ZM36.35 10.67C35.8767 10.67 35.46 10.5667 35.1 10.36C34.74 10.1533 34.4567 9.86667 34.25 9.5C34.0433 9.12667 33.94 8.69333 33.94 8.2V5.19C33.94 4.71 34.0433 4.28333 34.25 3.91C34.4567 3.53667 34.74 3.24667 35.1 3.04C35.46 2.83333 35.8767 2.73 36.35 2.73C37.0633 2.73 37.64 2.95667 38.08 3.41C38.52 3.86333 38.74 4.45667 38.74 5.19V6.85H34.75V5.87H37.72V5.16C37.72 4.73333 37.5967 4.39 37.35 4.13C37.11 3.87667 36.7767 3.75 36.35 3.75C35.9233 3.75 35.5833 3.87667 35.33 4.13C35.0833 4.39 34.96 4.73333 34.96 5.16V8.23C34.96 8.65667 35.0833 9 35.33 9.26C35.5833 9.52 35.9233 9.65 36.35 9.65C36.7767 9.65 37.11 9.52 37.35 9.26C37.5967 9 37.72 8.65667 37.72 8.23V8.06H38.74V8.2C38.74 8.93333 38.52 9.53 38.08 9.99C37.64 10.4433 37.0633 10.67 36.35 10.67Z" fill="black"/>
</svg>
