<svg width="120.37" height="21.854" viewBox="0 0 120.37 21.854" xmlns="http://www.w3.org/2000/svg"><path transform="translate(0 14.672) scale(.014 -.014)" d="m249 228q82 15 156.5 15t136.5-13q21 40 21 70 0 63-83 63-71 0-132.5-38.5t-98.5-96.5zm48-227q37-14 92-14 145 0 307 142-48 54-131 80-35-63-106-120t-162-88zm-100 112q0 49 27 99-100-25-160-71.5t-60-89.5q0-30 32.5-48.5t94-18.5 124.5 19q-58 38-58 110zm338 105q-65 15-139.5 15t-154.5-17q-29-50-29-100 0-72 63-106 84 31 154 89t106 119zm721-247q78 0 146.5 47.5t103.5 106.5 35 104q0 57-50 57-53 0-111-49.5t-96.5-122.5-38.5-137v-5q3-1 11-1zm-626 570 1-17h14q90 0 173.5 25.5t138.5 63.5 87.5 80.5 32.5 76.5-28.5 53.5-84.5 19.5q-85 0-164-50t-124.5-120-45.5-132zm163 454 3-12q-156-22-260.5-118.5t-104.5-194.5q0-58 42-96.5t126-47.5q-2 18-2 28 0 50 28 103.5t76 99 120 75 142.5 29.5 101-22.5 30.5-61.5-33-84.5-90-86.5-145.5-68-187.5-27h-6q22-85 147-85 64 0 153 38t183 116l6-8q-30-26-76-57.5t-126-65.5-145-34q-144 0-172 97-93 7-140.5 49t-47.5 105q0 101 106.5 201t271.5 128zm631-1158q32 0 68 12l8-5q-31-17-90-17-89 0-132.5 37.5t-46.5 100.5q-41 10-67 45.5t-26 82 23 98.5 55.5 99 86.5 106 95 100 104 96q86 76 169 144l-2 2q-304-185-751-666l-56-73q-5-3-9-3t-4 6l12 21 100 158q97 162 136 225 137 223 253 328-17 0-92-70l-25-24q-341-351-510-503 51-54 51-116 0-77-81.5-140.5t-240.5-87.5v11q139 22 213 83.5t74 136.5q0 50-35 96-81-70-158-108t-154-38-119 20q-73-21-144-21t-109 22.5-38 57.5q0 48 66 97.5t183 74.5q39 65 108.5 108.5t152.5 43.5q51 0 76-21.5t25-57.5-21-76q91-27 142-77 8 8 55 51t167.5 163 203.5 205l82 84q128 125 219 145 11 0 11-5.5t-6-7.5q-46-14-86-61.5t-97-130.5-87-132l-172-273q0-1 3-1l13 10q190 200 352.5 341.5t344.5 247.5q39 26 44.5 26t5.5-6-2-8-42.5-34-74.5-63-60-55-86-83-97.5-99.5-88.5-101-80-106.5q-72-114-72-187 0-45 34-74 14-12 33-16 0 69 40 145.5t103.5 129.5 125.5 53q35 0 56.5-21.5t21.5-60.5-24.5-83.5-65.5-83.5-101.5-65.5-125.5-26.5l-15 1q11-125 178-125z"/><path transform="translate(22.526 14.672) scale(.014 -.014)" d="m12-8q72 0 140 72v1q0 48 46 90-3 11-17 11-74 0-131-55.5t-57-97.5q0-21 19-21zm155 189q53 0 53-35 0-30-37-72v-8q0-33 29-33 18 0 40 15l49 32 2-15-46-29q-32-21-62.5-21t-40.5 31q-80-71-152-71-43 0-43 41 0 52 61 108.5t147 56.5z"/><path transform="translate(26.908 14.672) scale(.014 -.014)" d="m149 92q114 79 183 79 27 0 27-23t-20-47.5-44-42.5q-64-46-64-58 0-7 11.5-7t38.5 12 48 24.5 50.5 31 31.5 19.5l2-15q-135-90-189-90-26 0-26 25 0 17 21.5 40.5t46.5 43.5q69 52 69 69 0 5-11 5-37 0-110-40t-162-130q-6-6-22.5-6t-16.5 9q0 3 69 74t69 92q0 5-6.5 5t-27-13-63-41.5-72.5-47.5l-3 14q15 10 41 28t43 29.5 37 24.5q39 24 60 24t21-22.5-32-65.5z"/><path transform="translate(32.83 14.672) scale(.014 -.014)" d="m150 201q4 6 9.5 6t5.5-6-6-12-8.5-36.5-15.5-74-45-78.5q0-2 4-2 7 0 51 24l14 7q38 21 81 51l2-15q-156-101-239-101-33 0-48.5 14t-15.5 31 8 27.5 20 10.5q15 0 15-16 0-10-16-18-5-3-5-10t11.5-16.5 24.5-9.5q44 0 75.5 55.5t40.5 110.5v3q-97-66-131-86l-3 14q163 105 171 127z"/><path transform="translate(36.358 14.672) scale(.014 -.014)" d="m192 264q0-14-16-27t-29.5-13-13.5 11 16 25.5 29.5 14.5 13.5-11zm-85-108q-135-122-135-153 0-10 13.5-10t40.5 12 48 24.5 50.5 31 31.5 19.5l2-15q-46-30-105-60t-89.5-30-30.5 25q0 21 36 63.5t72 74.5l36 32q5 4 19 3t14-10q0-4-3-7z"/><path transform="translate(38.71 14.672) scale(.014 -.014)" d="m193 168q0 8-16 8t-65-30.5-83-65.5q67 11 115.5 40.5t48.5 47.5zm-196-141q0-29 40-29 76 0 189 82l2-15q-118-83-202-83-60 0-60 50t74.5 104 153.5 54q25 0 25-15 0-24-55.5-57.5t-145.5-49.5q-21-24-21-41z"/><path transform="translate(42.042 14.672) scale(.014 -.014)" d="m88 177q5 4 27 2 11-2 11-4.5t-5-8.5-48-48q-89-87-89-109 0-5 6-5 34 0 247 144l27 22q5 4 19 3t14-10q0-4-3-7-140-126-140-152 0-11 16-11t43 12 48 24.5 50.5 31 31.5 19.5l2-15q-46-30-105-60t-89.5-30-30.5 25q0 35 54 91-157-102-194-102-22 0-22 26 0 55 130 162z"/><path transform="translate(47.012 14.672) scale(.014 -.014)" d="m123 142 47 6q12 0 19-8t7-19q0-22-31-48t-61.5-49-30.5-37q0-8 13-8 43 0 131 50 38 21 81 51l2-15q-34-22-76-45-24-15-70-34.5t-76-19.5-30 27q0 31 32 58.5t63.5 46 31.5 28.5q0 3-7 3l-56-5q-16 0-29 3-48-34-101-67l-3 14 95 66q1 19 24 38t39 19 16-8.5-19-21.5-19-19 8-6z"/><path transform="translate(53.452 14.672) scale(.014 -.014)" d="m185-30q132 0 267 70-249 68-307 68t-83.5-16-25.5-43.5 40.5-53 108.5-25.5zm523 35q145-31 225.5-31t137.5 26.5 57 59.5q0 24-35 40.5t-102 16.5q-106 0-178-31t-105-81zm462 649q-68-63-167.5-170.5t-145.5-154.5q10-1 31-1 82 0 177.5 42t169 100 123 120.5 49.5 103.5q0 49-71 49t-166-89zm-78 140q0 67-109 67-60 0-123.5-28.5t-108.5-74.5-73-102-33-111q26-2 42-2 83 0 161 26t130 64.5 83 82 31 78.5zm-579-743q73-18 174-42 33 54 112.5 87.5t201.5 33.5q72 0 114.5-22t42.5-53q0-38-64.5-67t-168-29-230.5 24q-10-24-10-52 0-65 63.5-111.5t176.5-46.5l4-8q-18-2-27-2-107 0-171.5 51.5t-64.5 121.5q0 27 10 50-99 21-198 47-152-76-303-76-75 0-122 29.5t-47 62.5 36 53.5 107.5 20.5 335.5-65q138 80 313 262-87 19-131 76.5t-44 136.5v2q-82 9-121.5 47t-39.5 94q0 95 98 194.5t233 126.5l3-9q-135-28-227-120.5t-92-182.5q0-53 36-89.5t110-48.5q3 60 31 118.5t74.5 107 117.5 78.5 142 30q130 0 130-81 0-39-33-85.5t-88.5-87-140-68-177.5-27.5q-24 0-35 1v-10q0-71 41.5-121.5t126.5-66.5q32 33 94.5 101t95 102 85.5 84 89 74q95 62 169 62 95 0 95-63 0-46-51.5-112t-129.5-126-182.5-102.5-199.5-42.5q-24 0-35 1-179-179-329-262z"/><path transform="translate(70.952 14.672) scale(.014 -.014)" d="m-7-2q38 0 101.5 38.5t106 74.5 42.5 42-14.5 10-39.5 4-66-19.5-71-46.5-50-53-20-38 11-12zm268 168q20 16 22 16 27-3 28-4.5t1-3.5-8-12.5-47-49.5q-97-95-97-115 0-8 7-8 48 0 180 91l2-15q-133-87-188-87-27 0-27 25.5t31 66.5q-118-87-184-88-24 0-24 29 0 52 66.5 111t175.5 59q36 0 62-15z"/><path transform="translate(78.078 14.672) scale(.014 -.014)" d="m382-14q-25 6-93 26-131 37-198.5 37t-67.5-28 51.5-54.5 132-26.5 175.5 46zm109 467q0-58 90-58 46 0 104 26t110 68 87.5 105 35.5 129q0 21-5 41-78-12-157.5-49t-136-83-92.5-95-36-84zm-33-462q62-12 106-12 90 0 180.5 27t165.5 72.5 140.5 105.5 110.5 124q97 140 97 256 0 62-30 109-111-85-358-347-85-89-198.5-185t-213.5-150zm290 882q-103 0-233-55t-196-121l-13 8q91 78 219 131t232 53q142 0 172-103 32 3 64 3 156 0 235-87 125 77 230 77 63 0 99-28t36-69.5-32.5-81.5-95.5-69l-2 11q50 20 80.5 59t30.5 77.5-32.5 63-97.5 24.5q-90 0-201-82 44-62 44-142t-31.5-159-95.5-154-151-134.5-208.5-96-256.5-36.5q-55 0-117 13-129-62-252-62-74 0-126.5 32.5t-52.5 67.5q0 23 25.5 37t74.5 14 97-9 123.5-29.5 95.5-25.5q92 50 203.5 147t200 190 199.5 196 197 159q-70 78-230 78-25 0-49-3 3-15 3-33 0-73-38-142t-94-116-118.5-75-110.5-28-72 23.5-24 65 28.5 92 80 98.5 136 84.5 184.5 47.5q-32 89-160 89z"/><path transform="translate(94.318 14.672) scale(.014 -.014)" d="m12-8q72 0 140 72v1q0 48 46 90-3 11-17 11-74 0-131-55.5t-57-97.5q0-21 19-21zm155 189q53 0 53-35 0-30-37-72v-8q0-33 29-33 18 0 40 15l49 32 2-15-46-29q-32-21-62.5-21t-40.5 31q-80-71-152-71-43 0-43 41 0 52 61 108.5t147 56.5z"/><path transform="translate(98.7 14.672) scale(.014 -.014)" d="m88 177q5 4 27 2 11-2 11-4.5t-5-8.5-48-48q-89-87-89-109 0-5 6-5 34 0 247 144l27 22q5 4 19 3t14-10q0-4-3-7-140-126-140-152 0-11 16-11t43 12 48 24.5 50.5 31 31.5 19.5l2-15q-46-30-105-60t-89.5-30-30.5 25q0 35 54 91-157-102-194-102-22 0-22 26 0 55 130 162z"/><path transform="translate(103.67 14.672) scale(.014 -.014)" d="m577 577q-50 0-234-161t-298-296q133 91 335 256.5t202 197.5q0 3-5 3zm-562-494q-40-53-40-71.5t17-18.5q47 0 172 87l2-15q-133-87-188-87-27 0-27 25 0 55 128.5 198.5t284 266 220.5 122.5q12 0 12-9 0-24-48.5-75.5t-130.5-117.5-153-120-154-114.5-95-70.5z"/><path transform="translate(106.13 14.672) scale(.014 -.014)" d="m-7-2q38 0 101.5 38.5t106 74.5 42.5 42-14.5 10-39.5 4-66-19.5-71-46.5-50-53-20-38 11-12zm268 168q20 16 22 16 27-3 28-4.5t1-3.5-8-12.5-47-49.5q-97-95-97-115 0-8 7-8 48 0 180 91l2-15q-133-87-188-87-27 0-27 25.5t31 66.5q-118-87-184-88-24 0-24 29 0 52 66.5 111t175.5 59q36 0 62-15z"/><path transform="translate(111.16 14.672) scale(.014 -.014)" d="m192 264q0-14-16-27t-29.5-13-13.5 11 16 25.5 29.5 14.5 13.5-11zm-85-108q-135-122-135-153 0-10 13.5-10t40.5 12 48 24.5 50.5 31 31.5 19.5l2-15q-46-30-105-60t-89.5-30-30.5 25q0 21 36 63.5t72 74.5l36 32q5 4 19 3t14-10q0-4-3-7z"/><path transform="translate(113.51 14.672) scale(.014 -.014)" d="m150 201q4 6 9.5 6t5.5-6-6-12-8.5-36.5-15.5-74-45-78.5q0-2 4-2 7 0 51 24l14 7q38 21 81 51l2-15q-156-101-239-101-33 0-48.5 14t-15.5 31 8 27.5 20 10.5q15 0 15-16 0-10-16-18-5-3-5-10t11.5-16.5 24.5-9.5q44 0 75.5 55.5t40.5 110.5v3q-97-66-131-86l-3 14q163 105 171 127z"/><path transform="translate(117.04 14.672) scale(.014 -.014)" d="m193 168q0 8-16 8t-65-30.5-83-65.5q67 11 115.5 40.5t48.5 47.5zm-196-141q0-29 40-29 76 0 189 82l2-15q-118-83-202-83-60 0-60 50t74.5 104 153.5 54q25 0 25-15 0-24-55.5-57.5t-145.5-49.5q-21-24-21-41z"/></svg>