<svg width="159" height="11" viewBox="0 0 159 11" fill="none" xmlns="http://www.w3.org/2000/svg">
<path d="M10.98 0.51C12.1 0.51 12.9733 0.83 13.6 1.47C14.2267 2.11667 14.54 3.05 14.54 4.27V10.39H13.52V4.3C13.52 3.34667 13.2767 2.63 12.79 2.15C12.31 1.67 11.6567 1.43 10.83 1.43C9.95 1.43 9.26333 1.68333 8.77 2.19C8.27667 2.70333 8.03 3.48 8.03 4.52V10.39H7.01V4.3C7.01 3.34667 6.77667 2.63 6.31 2.15C5.84333 1.67 5.19333 1.43 4.36 1.43C3.47333 1.43 2.78 1.68333 2.28 2.19C1.78 2.70333 1.53 3.48 1.53 4.52V10.39H0.5V0.59H1.49V2.23C1.76333 1.67 2.16333 1.24333 2.69 0.95C3.22333 0.656667 3.85333 0.51 4.58 0.51C5.34667 0.51 6.00333 0.67 6.55 0.99C7.09667 1.31 7.49 1.76 7.73 2.34C8.01 1.74 8.43333 1.28333 9 0.97C9.56667 0.663333 10.2267 0.51 10.98 0.51ZM20.46 10.46C19.7533 10.46 19.1133 10.3 18.54 9.98C17.9733 9.65333 17.5267 9.20667 17.2 8.64C16.8733 8.07333 16.71 7.43 16.71 6.71C16.71 5.99 16.8733 5.34667 17.2 4.78C17.5267 4.20667 17.9733 3.76333 18.54 3.45C19.1133 3.13 19.7533 2.97 20.46 2.97C21.1667 2.97 21.8067 3.13 22.38 3.45C22.9467 3.76333 23.3933 4.20667 23.72 4.78C24.04 5.34667 24.2 5.99 24.2 6.71C24.2 7.43 24.04 8.07333 23.72 8.64C23.3933 9.20667 22.9467 9.65333 22.38 9.98C21.8067 10.3 21.1667 10.46 20.46 10.46ZM20.46 9.58C20.98 9.58 21.45 9.46 21.87 9.22C22.2833 8.98 22.6067 8.64333 22.84 8.21C23.0733 7.77 23.19 7.27 23.19 6.71C23.19 6.15 23.0733 5.65 22.84 5.21C22.6067 4.77 22.2833 4.43 21.87 4.19C21.45 3.95667 20.98 3.84 20.46 3.84C19.94 3.84 19.47 3.95667 19.05 4.19C18.6367 4.43 18.31 4.77 18.07 5.21C17.8367 5.65 17.72 6.15 17.72 6.71C17.72 7.27 17.8367 7.77 18.07 8.21C18.31 8.64333 18.6367 8.98 19.05 9.22C19.47 9.46 19.94 9.58 20.46 9.58ZM29.98 2.97C30.9067 2.97 31.64 3.23667 32.18 3.77C32.7267 4.31 33 5.09333 33 6.12V10.39H32.01V6.22C32.01 5.45333 31.82 4.87 31.44 4.47C31.0533 4.07 30.5067 3.87 29.8 3.87C29.0067 3.87 28.38 4.10333 27.92 4.57C27.4533 5.04333 27.22 5.69667 27.22 6.53V10.39H26.23V3.03H27.18V4.38C27.4533 3.93333 27.83 3.58667 28.31 3.34C28.79 3.09333 29.3467 2.97 29.98 2.97ZM38.98 9.23L39.33 9.94C39.1433 10.1067 38.9167 10.2367 38.65 10.33C38.3767 10.4167 38.09 10.46 37.79 10.46C37.1033 10.46 36.5733 10.2733 36.2 9.9C35.8267 9.52667 35.64 9 35.64 8.32V1.42H36.63V3.03H38.86V3.87H36.63V8.26C36.63 8.7 36.7367 9.03333 36.95 9.26C37.1633 9.49333 37.4767 9.61 37.89 9.61C38.3367 9.61 38.7 9.48333 38.98 9.23ZM43.11 10.46C42.5167 10.46 41.9467 10.3733 41.4 10.2C40.8533 10.0267 40.4267 9.81 40.12 9.55L40.56 8.77C40.8733 9.01 41.2633 9.20667 41.73 9.36C42.1967 9.51333 42.68 9.59 43.18 9.59C43.8533 9.59 44.35 9.48667 44.67 9.28C44.9967 9.06667 45.16 8.77 45.16 8.39C45.16 8.11667 45.07 7.90333 44.89 7.75C44.71 7.59667 44.4867 7.48 44.22 7.4C43.9467 7.32 43.5867 7.24333 43.14 7.17C42.54 7.05667 42.06 6.94333 41.7 6.83C41.3333 6.71 41.0233 6.51 40.77 6.23C40.51 5.95 40.38 5.56333 40.38 5.07C40.38 4.45667 40.6367 3.95333 41.15 3.56C41.6633 3.16667 42.3767 2.97 43.29 2.97C43.77 2.97 44.2467 3.03333 44.72 3.16C45.2 3.28667 45.5933 3.45333 45.9 3.66L45.46 4.45C44.8533 4.03 44.13 3.82 43.29 3.82C42.6567 3.82 42.18 3.93333 41.86 4.16C41.54 4.38667 41.38 4.68 41.38 5.04C41.38 5.32 41.47 5.54333 41.65 5.71C41.83 5.88333 42.0567 6.01 42.33 6.09C42.5967 6.16333 42.97 6.24333 43.45 6.33C44.0367 6.44333 44.5067 6.55667 44.86 6.67C45.2133 6.77667 45.5167 6.96667 45.77 7.24C46.0233 7.51333 46.15 7.88667 46.15 8.36C46.15 9.00667 45.8833 9.51667 45.35 9.89C44.81 10.27 44.0633 10.46 43.11 10.46ZM51.13 9.58C51.59 9.58 52.0133 9.49667 52.4 9.33C52.7867 9.17 53.1167 8.93 53.39 8.61L53.95 9.26C53.6233 9.64667 53.2167 9.94333 52.73 10.15C52.2433 10.3567 51.7067 10.46 51.12 10.46C50.3667 10.46 49.6933 10.3 49.1 9.98C48.5133 9.65333 48.0567 9.20667 47.73 8.64C47.4033 8.07333 47.24 7.43 47.24 6.71C47.24 5.99 47.3967 5.34667 47.71 4.78C48.0233 4.20667 48.4567 3.76333 49.01 3.45C49.5567 3.13 50.18 2.97 50.88 2.97C51.5333 2.97 52.1233 3.12 52.65 3.42C53.1767 3.72 53.5967 4.13333 53.91 4.66C54.2233 5.19333 54.39 5.8 54.41 6.48L48.36 7.66C48.5467 8.26 48.8867 8.73 49.38 9.07C49.8667 9.41 50.45 9.58 51.13 9.58ZM50.88 3.82C50.3667 3.82 49.9067 3.94 49.5 4.18C49.0933 4.42 48.7767 4.75333 48.55 5.18C48.3233 5.6 48.21 6.08667 48.21 6.64C48.21 6.78 48.2133 6.88333 48.22 6.95L53.42 5.94C53.3067 5.32 53.02 4.81333 52.56 4.42C52.1067 4.02 51.5467 3.82 50.88 3.82ZM57.39 4.47C57.6233 3.97667 57.9733 3.60333 58.44 3.35C58.9 3.09667 59.47 2.97 60.15 2.97V3.94L59.91 3.92C59.1367 3.92 58.53 4.16 58.09 4.64C57.65 5.11333 57.43 5.78 57.43 6.64V10.39H56.44V3.03H57.39V4.47ZM62.89 4.47C63.1233 3.97667 63.4733 3.60333 63.94 3.35C64.4 3.09667 64.97 2.97 65.65 2.97V3.94L65.41 3.92C64.6367 3.92 64.03 4.16 63.59 4.64C63.1567 5.11333 62.94 5.78 62.94 6.64V10.39H61.94V3.03H62.89V4.47ZM73.1 3.03H74.09V10.39H73.14V8.93C72.84 9.43 72.4467 9.81 71.96 10.07C71.4667 10.33 70.9133 10.46 70.3 10.46C69.6067 10.46 68.98 10.3 68.42 9.98C67.86 9.66667 67.4233 9.22333 67.11 8.65C66.79 8.08333 66.63 7.43667 66.63 6.71C66.63 5.98333 66.79 5.33333 67.11 4.76C67.4233 4.19333 67.86 3.75333 68.42 3.44C68.98 3.12667 69.6067 2.97 70.3 2.97C70.9 2.97 71.44 3.09333 71.92 3.34C72.4 3.58667 72.7933 3.95 73.1 4.43V3.03ZM70.38 9.58C70.8933 9.58 71.36 9.46 71.78 9.22C72.1933 8.98 72.52 8.64333 72.76 8.21C72.9933 7.77 73.11 7.27 73.11 6.71C73.11 6.15 72.9933 5.65 72.76 5.21C72.52 4.77 72.1933 4.43 71.78 4.19C71.36 3.95667 70.8933 3.84 70.38 3.84C69.86 3.84 69.3933 3.95667 68.98 4.19C68.56 4.43 68.2333 4.77 68 5.21C67.76 5.65 67.64 6.15 67.64 6.71C67.64 7.27 67.76 7.77 68 8.21C68.2333 8.64333 68.56 8.98 68.98 9.22C69.3933 9.46 69.86 9.58 70.38 9.58ZM80.14 9.23L80.49 9.94C80.3033 10.1067 80.0767 10.2367 79.81 10.33C79.5367 10.4167 79.25 10.46 78.95 10.46C78.2633 10.46 77.7333 10.2733 77.36 9.9C76.9867 9.52667 76.8 9 76.8 8.32V1.42H77.79V3.03H80.02V3.87H77.79V8.26C77.79 8.7 77.8967 9.03333 78.11 9.26C78.3233 9.49333 78.6367 9.61 79.05 9.61C79.4967 9.61 79.86 9.48333 80.14 9.23ZM90.18 0.51C91.4467 0.51 92.4467 0.88 93.18 1.62C93.9133 2.36 94.28 3.43 94.28 4.83V10.39H93.26V7.51H87.1V10.39H86.09V4.83C86.09 3.43 86.4567 2.36 87.19 1.62C87.9233 0.88 88.92 0.51 90.18 0.51ZM87.1 6.61H93.26V4.73C93.26 3.64333 92.99 2.82 92.45 2.26C91.91 1.70667 91.1533 1.43 90.18 1.43C89.2067 1.43 88.45 1.70667 87.91 2.26C87.37 2.82 87.1 3.64333 87.1 4.73V6.61ZM99.25 10.46C98.59 10.46 98.08 10.2733 97.72 9.9C97.36 9.52667 97.18 9.01 97.18 8.35V0H98.17V8.26C98.17 8.7 98.2733 9.03333 98.48 9.26C98.6867 9.49333 98.9967 9.61 99.41 9.61C99.67 9.61 99.8933 9.56667 100.08 9.48L100.15 10.31C99.8567 10.41 99.5567 10.46 99.25 10.46ZM104.78 9.23L105.13 9.94C104.943 10.1067 104.717 10.2367 104.45 10.33C104.177 10.4167 103.89 10.46 103.59 10.46C102.903 10.46 102.373 10.2733 102 9.9C101.627 9.52667 101.44 9 101.44 8.32V1.42H102.43V3.03H104.66V3.87H102.43V8.26C102.43 8.7 102.537 9.03333 102.75 9.26C102.963 9.49333 103.277 9.61 103.69 9.61C104.137 9.61 104.5 9.48333 104.78 9.23ZM109.82 9.58C110.28 9.58 110.703 9.49667 111.09 9.33C111.477 9.17 111.807 8.93 112.08 8.61L112.64 9.26C112.313 9.64667 111.907 9.94333 111.42 10.15C110.933 10.3567 110.397 10.46 109.81 10.46C109.05 10.46 108.377 10.3 107.79 9.98C107.203 9.65333 106.747 9.20667 106.42 8.64C106.093 8.07333 105.93 7.43 105.93 6.71C105.93 5.99 106.087 5.34667 106.4 4.78C106.713 4.20667 107.143 3.76333 107.69 3.45C108.243 3.13 108.87 2.97 109.57 2.97C110.223 2.97 110.813 3.12 111.34 3.42C111.867 3.72 112.287 4.13333 112.6 4.66C112.913 5.19333 113.08 5.8 113.1 6.48L107.05 7.66C107.237 8.26 107.577 8.73 108.07 9.07C108.557 9.41 109.14 9.58 109.82 9.58ZM109.57 3.82C109.057 3.82 108.597 3.94 108.19 4.18C107.783 4.42 107.467 4.75333 107.24 5.18C107.013 5.6 106.9 6.08667 106.9 6.64C106.9 6.78 106.903 6.88333 106.91 6.95L112.1 5.94C111.993 5.32 111.71 4.81333 111.25 4.42C110.79 4.02 110.23 3.82 109.57 3.82ZM116.08 4.47C116.313 3.97667 116.66 3.60333 117.12 3.35C117.587 3.09667 118.16 2.97 118.84 2.97V3.94L118.6 3.92C117.827 3.92 117.22 4.16 116.78 4.64C116.34 5.11333 116.12 5.78 116.12 6.64V10.39H115.13V3.03H116.08V4.47ZM124.38 2.97C125.307 2.97 126.043 3.23667 126.59 3.77C127.137 4.31 127.41 5.09333 127.41 6.12V10.39H126.41V6.22C126.41 5.45333 126.22 4.87 125.84 4.47C125.453 4.07 124.907 3.87 124.2 3.87C123.407 3.87 122.78 4.10333 122.32 4.57C121.853 5.04333 121.62 5.69667 121.62 6.53V10.39H120.63V3.03H121.58V4.38C121.853 3.93333 122.23 3.58667 122.71 3.34C123.19 3.09333 123.747 2.97 124.38 2.97ZM135.86 3.03H136.86V10.39H135.9V8.93C135.607 9.43 135.213 9.81 134.72 10.07C134.233 10.33 133.68 10.46 133.06 10.46C132.373 10.46 131.75 10.3 131.19 9.98C130.63 9.66667 130.19 9.22333 129.87 8.65C129.55 8.08333 129.39 7.43667 129.39 6.71C129.39 5.98333 129.55 5.33333 129.87 4.76C130.19 4.19333 130.63 3.75333 131.19 3.44C131.75 3.12667 132.373 2.97 133.06 2.97C133.66 2.97 134.2 3.09333 134.68 3.34C135.16 3.58667 135.553 3.95 135.86 4.43V3.03ZM133.15 9.58C133.663 9.58 134.127 9.46 134.54 9.22C134.953 8.98 135.28 8.64333 135.52 8.21C135.76 7.77 135.88 7.27 135.88 6.71C135.88 6.15 135.76 5.65 135.52 5.21C135.28 4.77 134.953 4.43 134.54 4.19C134.127 3.95667 133.663 3.84 133.15 3.84C132.623 3.84 132.153 3.95667 131.74 4.19C131.327 4.43 131 4.77 130.76 5.21C130.52 5.65 130.4 6.15 130.4 6.71C130.4 7.27 130.52 7.77 130.76 8.21C131 8.64333 131.327 8.98 131.74 9.22C132.153 9.46 132.623 9.58 133.15 9.58ZM142.9 9.23L143.25 9.94C143.063 10.1067 142.837 10.2367 142.57 10.33C142.297 10.4167 142.01 10.46 141.71 10.46C141.023 10.46 140.493 10.2733 140.12 9.9C139.747 9.52667 139.56 9 139.56 8.32V1.42H140.55V3.03H142.78V3.87H140.55V8.26C140.55 8.7 140.657 9.03333 140.87 9.26C141.09 9.49333 141.403 9.61 141.81 9.61C142.257 9.61 142.62 9.48333 142.9 9.23ZM147.94 9.58C148.4 9.58 148.823 9.49667 149.21 9.33C149.597 9.17 149.927 8.93 150.2 8.61L150.76 9.26C150.433 9.64667 150.027 9.94333 149.54 10.15C149.053 10.3567 148.517 10.46 147.93 10.46C147.177 10.46 146.503 10.3 145.91 9.98C145.323 9.65333 144.867 9.20667 144.54 8.64C144.213 8.07333 144.05 7.43 144.05 6.71C144.05 5.99 144.207 5.34667 144.52 4.78C144.833 4.20667 145.267 3.76333 145.82 3.45C146.367 3.13 146.99 2.97 147.69 2.97C148.343 2.97 148.933 3.12 149.46 3.42C149.987 3.72 150.407 4.13333 150.72 4.66C151.033 5.19333 151.2 5.8 151.22 6.48L145.17 7.66C145.357 8.26 145.697 8.73 146.19 9.07C146.677 9.41 147.26 9.58 147.94 9.58ZM147.69 3.82C147.177 3.82 146.717 3.94 146.31 4.18C145.903 4.42 145.587 4.75333 145.36 5.18C145.133 5.6 145.02 6.08667 145.02 6.64C145.02 6.78 145.023 6.88333 145.03 6.95L150.23 5.94C150.117 5.32 149.83 4.81333 149.37 4.42C148.917 4.02 148.357 3.82 147.69 3.82ZM155.22 10.46C154.627 10.46 154.057 10.3733 153.51 10.2C152.963 10.0267 152.537 9.81 152.23 9.55L152.68 8.77C152.987 9.01 153.373 9.20667 153.84 9.36C154.307 9.51333 154.79 9.59 155.29 9.59C155.963 9.59 156.46 9.48667 156.78 9.28C157.107 9.06667 157.27 8.77 157.27 8.39C157.27 8.11667 157.18 7.90333 157 7.75C156.827 7.59667 156.603 7.48 156.33 7.4C156.057 7.32 155.697 7.24333 155.25 7.17C154.657 7.05667 154.177 6.94333 153.81 6.83C153.443 6.71 153.133 6.51 152.88 6.23C152.62 5.95 152.49 5.56333 152.49 5.07C152.49 4.45667 152.747 3.95333 153.26 3.56C153.773 3.16667 154.49 2.97 155.41 2.97C155.883 2.97 156.357 3.03333 156.83 3.16C157.31 3.28667 157.703 3.45333 158.01 3.66L157.58 4.45C156.973 4.03 156.25 3.82 155.41 3.82C154.77 3.82 154.29 3.93333 153.97 4.16C153.65 4.38667 153.49 4.68 153.49 5.04C153.49 5.32 153.58 5.54333 153.76 5.71C153.94 5.88333 154.167 6.01 154.44 6.09C154.713 6.16333 155.087 6.24333 155.56 6.33C156.147 6.44333 156.617 6.55667 156.97 6.67C157.33 6.77667 157.633 6.96667 157.88 7.24C158.133 7.51333 158.26 7.88667 158.26 8.36C158.26 9.00667 157.993 9.51667 157.46 9.89C156.92 10.27 156.173 10.46 155.22 10.46Z" fill="black"/>
</svg>
