<svg width="46" height="13" viewBox="0 0 46 13" fill="none" xmlns="http://www.w3.org/2000/svg">
<path d="M5 0H6.94V9.8H5.78V1.01L4.28 6.51H3.12L1.62 1.01V9.8H0.5V0H2.48L3.75 5.01L5 0ZM14.36 6.16C14.36 6.89333 14.3033 7.50333 14.19 7.99C14.0767 8.47 13.91 8.85 13.69 9.13C13.4633 9.41667 13.1833 9.61667 12.85 9.73C12.5167 9.84333 12.1333 9.9 11.7 9.9C11.2667 9.9 10.8867 9.84333 10.56 9.73C10.2333 9.61667 9.95667 9.41667 9.73 9.13C9.50333 8.85 9.33333 8.47 9.22 7.99C9.1 7.50333 9.04 6.89333 9.04 6.16C9.04 4.96667 9.25333 4.09 9.68 3.53C10.1067 2.97667 10.78 2.7 11.7 2.7C12.6133 2.7 13.2833 2.97667 13.71 3.53C14.1433 4.09 14.36 4.96667 14.36 6.16ZM13.14 6.37C13.14 5.87667 13.1167 5.45667 13.07 5.11C13.0233 4.76333 12.9467 4.48667 12.84 4.28C12.6267 3.88 12.2467 3.68 11.7 3.68C11.14 3.68 10.76 3.88 10.56 4.28C10.4533 4.48667 10.3767 4.76333 10.33 5.11C10.2767 5.45667 10.25 5.87667 10.25 6.37C10.25 7.28333 10.36 7.93667 10.58 8.33C10.7933 8.72333 11.1667 8.92 11.7 8.92C12.2333 8.92 12.6067 8.72333 12.82 8.33C13.0333 7.93667 13.14 7.28333 13.14 6.37ZM19.82 2.8H21.01V9.8H20.04L19.93 9.23C19.7367 9.44333 19.51 9.60667 19.25 9.72C18.99 9.84 18.6833 9.9 18.33 9.9C17.57 9.9 17.04 9.69 16.74 9.27C16.5867 9.06333 16.4767 8.8 16.41 8.48C16.3433 8.16667 16.31 7.79667 16.31 7.37V2.8H17.5V7.5C17.5 7.94667 17.5633 8.29 17.69 8.53C17.81 8.77 18.0833 8.89 18.51 8.89C18.75 8.89 18.9667 8.83333 19.16 8.72C19.3533 8.6 19.51 8.45333 19.63 8.28C19.7433 8.1 19.8067 7.92 19.82 7.74V2.8ZM25.28 8.75V9.73C25.2267 9.74333 25.17 9.75333 25.11 9.76C25.05 9.77333 24.9867 9.78667 24.92 9.8C24.7867 9.82667 24.6267 9.84 24.44 9.84C24.1 9.84 23.8167 9.71333 23.59 9.46C23.3633 9.20667 23.25 8.79667 23.25 8.23V0H24.44V8.16C24.44 8.40667 24.47 8.58 24.53 8.68C24.59 8.77333 24.7133 8.82 24.9 8.82C24.9667 8.82 25.04 8.81 25.12 8.79C25.1867 8.77 25.24 8.75667 25.28 8.75ZM28.14 9.84V12.18H26.95V2.8H27.93L28.05 3.4C28.4967 2.93333 29.0467 2.7 29.7 2.7C30.52 2.7 31.0933 2.96333 31.42 3.49C31.7467 4.01667 31.91 4.80333 31.91 5.85C31.91 6.61667 31.86 7.26 31.76 7.78C31.6533 8.3 31.4833 8.71333 31.25 9.02C31.0233 9.33333 30.72 9.55667 30.34 9.69C29.96 9.83 29.49 9.9 28.93 9.9C28.77 9.9 28.6267 9.89333 28.5 9.88C28.3667 9.87333 28.2467 9.86 28.14 9.84ZM29.48 3.71C29.2333 3.71 29.01 3.77 28.81 3.89C28.61 4.01 28.45 4.16 28.33 4.34C28.2033 4.52667 28.14 4.71333 28.14 4.9V8.84C28.2467 8.85333 28.3733 8.86667 28.52 8.88C28.6733 8.88667 28.8567 8.89 29.07 8.89C29.71 8.89 30.1467 8.64667 30.38 8.16C30.5 7.92 30.5833 7.62 30.63 7.26C30.67 6.9 30.69 6.47667 30.69 5.99C30.69 5.12333 30.6 4.52333 30.42 4.19C30.32 4.01 30.1933 3.88667 30.04 3.82C29.8867 3.74667 29.7 3.71 29.48 3.71ZM38.92 8.82V9.8H38.5C38.3133 9.8 38.12 9.75 37.92 9.65C37.72 9.55 37.5633 9.37333 37.45 9.12C37.2767 9.36667 37.0433 9.55667 36.75 9.69C36.4633 9.83 36.08 9.9 35.6 9.9C35.3533 9.9 35.1033 9.87333 34.85 9.82C34.5967 9.77333 34.37 9.67 34.17 9.51C33.9767 9.35667 33.82 9.14333 33.7 8.87C33.58 8.60333 33.52 8.25333 33.52 7.82C33.52 7.06667 33.74 6.49 34.18 6.09C34.62 5.69 35.23 5.49 36.01 5.49H37.11V4.73C37.11 4.43 37.0267 4.18667 36.86 4C36.6867 3.80667 36.4233 3.71 36.07 3.71C35.67 3.71 35.32 3.73333 35.02 3.78C34.72 3.82667 34.3933 3.9 34.04 4V2.98C34.3 2.90667 34.59 2.84333 34.91 2.79C35.2367 2.73 35.5733 2.7 35.92 2.7C36.82 2.7 37.4467 2.88667 37.8 3.26C37.98 3.45333 38.11 3.69333 38.19 3.98C38.2633 4.26667 38.3 4.61 38.3 5.01V8.37C38.3 8.51 38.3467 8.62 38.44 8.7C38.5333 8.78 38.6933 8.82 38.92 8.82ZM35.88 8.89C36.3 8.89 36.61 8.78 36.81 8.56C37.01 8.34 37.11 8.12333 37.11 7.91V6.44H35.94C35.6133 6.44 35.33 6.54667 35.09 6.76C34.85 6.98 34.73 7.30667 34.73 7.74C34.73 8.18 34.83 8.48 35.03 8.64C35.2233 8.80667 35.5067 8.89 35.88 8.89ZM42.7 8.75V9.73C42.6467 9.74333 42.59 9.75333 42.53 9.76C42.47 9.77333 42.4067 9.78667 42.34 9.8C42.2067 9.82667 42.0467 9.84 41.86 9.84C41.52 9.84 41.2367 9.71333 41.01 9.46C40.7833 9.20667 40.67 8.79667 40.67 8.23V0H41.86V8.16C41.86 8.40667 41.89 8.58 41.95 8.68C42.01 8.77333 42.1333 8.82 42.32 8.82C42.3867 8.82 42.46 8.81 42.54 8.79C42.6067 8.77 42.66 8.75667 42.7 8.75ZM44.3 0H45.64V1.26H44.3V0ZM44.37 2.8H45.56V9.8H44.37V2.8Z" fill="black"/>
</svg>
