<svg width="124.41" height="19.414" viewBox="0 0 124.41 19.414" xmlns="http://www.w3.org/2000/svg"><path transform="translate(0 14.574) scale(.013672 -.013672)" d="m129 692 3 18q-1 8 2.5 14.5t4.5 10 0.5 6-0.5 4.5l4 11-2 19q0 39 6 55t6 24q5 3 10 7.5t11 6.5q5-2 9-3.5t9.5-6.5 11.5-23.5 12.5-39.5 13-41.5 15.5-30.5q0-27 9-38-1-2-1-5.5t3-17.5q16-71 24-79v-6l12-43q3-12 5-23.5t11-20.5q0-18 10-29 2-11 4.5-27t10.5-24q5-41 13.5-51.5t7.5-18.5q-3-11 4-23t7.5-19 5.5-12q11 0 19.5 9t10.5 20q3 0 11 11 41 64 53 70 2 11 8.5 16.5t5.5 16.5q4 3 6.5 6.5t7.5 5.5q7 21 21 30 1 3 1.5 6.5t2.5 6.5q6 2 8.5 6.5t7.5 6.5v1q0 6 5.5 9.5t8 8 5 14.5 6.5 12l5 2q7 8 10.5 19.5t12.5 19.5v6h4q2 2 2.5 7t5.5 6l-1 2q0 14 8 22.5t7 24.5l8 6q2 2 2 5.5t1 5.5l10 15q5 8 8 17.5t12 14.5v4q0 8 5.5 15.5t7.5 13 2.5 10 2 6.5 2.5 2q6 0 4 7t3.5 7 5.5 5l4 27q0 6-1 9 6 4 6 9t-2 7q1 4 4 5.5t5 3.5v4q0 8 6.5 12.5t11.5 8.5q7-1 11-5.5t9-9.5q-5-6-5-21.5t-3.5-24.5-3.5-17 3-13.5 3-10.5l-2-15 2-31q0-9-2-14 1-6 3-10.5t3-10 0.5-11-0.5-10.5l6-19q0-2-1-2t-1-4 4.5-20.5 4.5-30.5v-2l-2-1 3-11-3-14 6-20-2-23q0-3 4-23l-1-15q0-10 3.5-14.5t5.5-12.5l2-22q1-5 2-9.5t2-11 0-14-1-18.5 5-31q3-42 9.5-66.5t6.5-34-4-16.5q9-16 8.5-37t2-32.5 4.5-17 2-14 3.5-20 4.5-22.5l8-1q16 0 28.5 4t16.5 7 9 2.5 8-0.5l13 2q5 0 7-3.5t7-4.5q2-2 2-7.5t-2-11.5q-9-6-13.5-6t-6.5 2q-10-9-13.5-9.5t-14.5-0.5l-4-1q-7 0-13.5-3t-13.5-4l-16-2q-9-3-17-8.5t-18-5.5l-22 2q-6 0-21-6l-12 1q-8 0-16.5-4t-18.5-4h-5q-10 8-10 17t2 15q6 5 33.5 9t36.5 10q-2 7-1.5 13.5t-1 14.5-2.5 9.5-1 9.5-3.5 17-5.5 18.5-1.5 22-0.5 24.5l-4 25 2 7q0 11-4.5 27t-6 23.5-0.5 11 1 7.5-3 7q2 4 2 8.5t2 7.5q-6 25-6.5 50.5t-3.5 49.5l-4 12q-1 4-0.5 8.5t0.5 8.5l-4 18 2 8v9q0 27-5 30 3 3 1.5 9.5t1.5 9.5q-3 7-3 16l1 28q0 7-2.5 21.5t-2 18.5-0.5 10l-7 13v12q0 9-4 12h-1q-6 1-12-11-14-8-14-16t-3-8-5-2-1-4-3-7.5-5-10-3-8-4.5-6-4-5.5-1-7 0.5-8-6-12-8-15q-3-1-4.5-2.5t-6.5-1.5q-2-16-10-25t-15-22q-5-4-13-7-1-3-3.5-8.5t-7-15-2.5-14.5q-1-2-3-2t-4-2-2-5.5-6-5.5q-11-5-9.5-11t-3.5-13q-3-13-12-19.5t-11.5-10.5-3.5-7.5-3-7.5l-4-2q-14-28-17-31-4-4-18-25l-11-17q-5-7-5-8-23-7-28-37-12-7-17-12-20-43-37-43-11 0-15.5 4.5t-11.5 6.5q-6 17-11 21v8q0 13-3 17t-7 15l-10 50q-1 5-5 7.5t-5 14-6 14.5l1 6q0 10-9.5 33t-13.5 25q1 1 1 7t-4 23.5-8 25.5-5 17-4 19-3 16v1l-4 5-2 14q-1 5-3 11t-4 12l-2 14q-3 6-7 11.5t-8 11.5q0 8 0 16t-5 14v8q0 20-12 20-3 0-2.5-5.5t0.5-7.5v-2q-4-3-4-13.5t6-14.5q-5-12-4.5-29t-1.5-31l-2-14 2-10-4-18 2-21v-14q0-7-2-13l-4-12q-2-9-1-18.5t-1-17-2-9.5q-2-8-2-12v-9q0-9-2.5-18t-3.5-18.5-0.5-18.5-1-16.5-2-10.5-1-5.5-0.5-5.5v-10l-4-20q-2-6-1.5-12t0.5-15.5-2-14.5q-8-13-6.5-28t-2.5-28.5-4-35.5-5-47q13-15 19.5-15t6.5-6q0-2 4-4-1-7-3-9.5t-1-10.5h-2l-7-2h-2q-1 1-3 1l-3-5q-4 2-14.5 2t-13.5-4q-8 4-20.5 4t-14-4.5-6.5-5.5q-1 1-4 1l-45-6h-19q-17 0-19.5 3.5t-3.5 5-5 2.5q-1 1-1 3l4 8q-3 3-3 5.5t2 6.5q13 9 28.5 9t29.5 6q3-1 10.5-1t13.5 2 12 4q1 4 1 10l-1 22 4 29-2 15q0 5 2.5 14.5t2 15.5 0.5 12.5 2.5 11.5 3.5 11 2 23.5 5.5 35 5.5 34.5l-2 12q0 3 1.5 4t2.5 8 1.5 17.5 3 24 2.5 20.5l-2 11q0 5 1 10 8 22 8 46v14q0 3-1 6 6 18 6 25v15l4 18-2 11 2 12-2 13 4 18-1 25 5 35q0 2-1.5 4t-0.5 3.5 1 4.5z"/><path transform="translate(12.168 14.574) scale(.013672 -.013672)" d="m333 483q7 0 7-6 0-2 4.5-7t8-6.5 3.5-14.5v-3l4-4q4-11 5-22.5t6-23.5q-2-2-5-9.5t-3-10.5 3-4 3-7.5-4.5-14-4.5-15.5l1-9q0-8-5.5-16.5t-13.5-10.5q-2-2-1.5-3.5t0.5-4.5-3-4v-1q0-2-5.5-5t-10-8-9.5-9v-4q0-6-3.5-8.5t-4.5-7.5q-20-10-30-20h-16q-4 0-9-4t-9.5-6-11-2.5-11.5-1.5l-2 2q0-2-3-2l-14 4-26-2-26 6q-2 4-5 7t-5 8l-17 5q-2 2-3.5 5.5t-5 3.5-6.5-1q-3 3-2 6t-4 3-5 4-5 3q-1 4-3 7-9 13-9 22-2 4-5 5t-5 3q-20 44-20 67t2.5 33.5 6 19.5 8.5 18 9 22q8 3 10.5 11t6 10 5 2 3 1.5 1 3 1 4 9 9 10 8.5 6 2.5 7.5 2.5 9.5 5 16 5.5 24.5 3.5 27 9q12-5 25-7.5t25-5.5q1-5 3-7.5t3-7.5l34 5q5 0 18-11.5t11-16.5q2-2 5-2zm-91-228q11 8 21 7 2 5 6.5 6.5t11 7 11.5 15 14 14.5q2 8 7 13.5t9.5 11 6 14 3.5 22.5 2 28-4.5 19-5.5 11-0.5 9.5 0.5 8.5v3q-6 6-11.5 9.5t-10.5 8.5q-23 1-42.5 9t-41.5 11q-11 7-20 7t-12-0.5-5-1.5-4-2.5-5.5-3-7-1-8-1-10-5.5-10.5-6q-2-7-6.5-11.5t-9-19-4.5-24 7-44.5l-2-2q2-9 4.5-15.5t4-11.5 1-7.5-0.5-5.5l4-16v-1l4-4v-4q0-2 3-5.5t3-11.5q6-4 12-11.5t12.5-11.5 19.5-5.5 24-6.5q16 4 30 4z"/><path transform="translate(17.91 14.574) scale(.013672 -.013672)" d="m421 65-25-6q-8 0-15.5-5t-11.5-6.5-6.5-1-4.5 0.5l-16-5h-6l-3 1q-4-2-3.5 1t-1 6-2.5 4-1 6v11q7 1 11 4.5t12 3.5q0 6 5.5 6.5t7.5 4.5l-4 73 2 10q0 6-3.5 12t-3.5 14l3 17q0 14-2.5 27.5t-4.5 29.5-2.5 34-8.5 35h-2q-2 0-3-4t-3-6q-8-5-9-14-4-2-7-5t-8-5v-2q1-5-2.5-7t-6.5-4v-2q0-11-7.5-16.5t-10.5-10.5-2.5-7.5-0.5-5-2-3.5q-11-17-11-44l-13-3q0-8-5-11t-3-12q-6-2-9-8t-9-9v-3q0-5-3-6.5t-3-6.5-6-10-7.5-9-3.5-6l-12-8q-8-6-12.5-10t-19-4-23.5 6.5-14.5 11.5-13.5 10q-5 8-15 16t-12.5 12.5-2 7.5-2.5 7-3 16v16q-4 24-4 26l2 17-4 19 2 2 2 89q0 58 5.5 99.5t5.5 51-2 14.5q-13 2-26.5 2.5t-25.5 6.5q-1 2-1 7 0 17 37 15 9-1 14-1h9q4 0 9 1l4 4 18-2 22 2q17 0 17-15 0-8-11-11 1-1 1-5t-6-7.5-6-6.5l3-50-5-30 2-12-2-17 4-70-2-82q0-47 15-89 2-7 4-14.5t9-11.5q19 8 28 20.5t13.5 21 9 15 8 9 7.5 6.5 7 10 8 11q2 10 3 20.5t4 15.5q18 30 18 38 14 6 22 22 14 32 26 40 2 15 8.5 31t6.5 24.5 12 24.5q-1 1-1 7.5t4 12.5 4 17.5 2.5 16 4.5 11.5 2 12 1 9q0 8 16 18 19-5 20.5-18.5t1.5-28.5l2-9-4-26 4-24-2-10 4-28-2-13q0-17 3.5-39t5-26.5 1.5-7.5-2-4q10-78 10-128l-2-11 6-32-4-14 4-31q4-4 11-4l34 6q5 0 13-4.5t8-11.5-9-9-12.5-3.5-5-3-3.5-1.5l-12 2z"/><path transform="translate(24.664 14.574) scale(.013672 -.013672)" d="m484 154-6-15q-12-1-36-13-22-2-44.5-3.5t-45.5-4.5l-6 23q1 4 11.5 10t12.5 8q2 32 2 60.5t-3 47.5-4.5 29.5-1 28.5-9.5 26l3 11q0 3-2.5 10.5t-7.5 24.5-11 27-17.5 18.5-19 8.5-22-8.5-23-12-8.5-5-1.5-3-3-1-4-2-4.5-7.5-4-7-3.5-1.5-3.5-1.5-5.5-5-5.5-6q0-7-3-7t-6-1.5-5.5-4-6.5-4.5v-4q0-4-2-13-6-4-9-9.5t-9-7.5q-2-13-8.5-21.5t-11.5-19.5q2-3 2-10l-4-26 2-6-8-42 2-22-6-41 2-17-2-19 2-6-2-8v-2q3-1 2-1.5t-1-7 8-14.5q-3-6-3-8l6-31q0-7-2-10 2-1 4-1l20 5q8-3 16-13v-5q0-9-5-12 2-2 2-4t-2-4-2-6l-2 1q-5 0-8.5-3.5t-7-3.5-14 3.5-11.5 4.5q-8-4-14.5-4t-6.5 1.5-2 0.5l-2-4q-5-2-10-1t-8.5 0-3.5-2-1 0-4.5 1-7.5-4-17-4l-21-4q-7 0-10 2-4 9-4 22v8q16 8 34.5 10t34.5 12q-6 81-6 109l2 30q0 2-1 2t-1 2l2 10v10q0 1 4 25l-1 32 6 68-2 18 5 38-3 23 4 58q0 54-11 72h-3l-13-4h-17l-11 2q-2 0-2.5-1.5t-3-3-7.5-1-9.5 0.5-7.5-1q-7 6-7 14t2 16q9 5 20.5 5t20 2 14 4 13 2 11.5-2q8 6 33 6 4-5 12.5-11.5t8.5-11.5l-1-8q5-6 5-10v-6q0-11-3-14 5-7 5-41l-1-45q0-10 4-14 3 2 7 1.5t7 1.5q6 8 19 21t16 21q27 17 31.5 23t6.5 7l4-1q2 0 5.5 3.5t6.5 5 6.5 3.5 7 3.5 6.5 1 5 1.5 3 4 3 3l4-1 11 2q9 0 19-9.5t20-12.5q5-9 13.5-15t16.5-12q2-8 7.5-13t11-12.5 11-18 12.5-19.5q0-18 4.5-36t6.5-37 4-38 2-38l-2-26 2-10-4-16 2-13q6-6 15-6l28 4q2-6 6-9t4-8z"/><path transform="translate(31.35 14.574) scale(.013672 -.013672)" d="m268 167 17 2q5 0 9.5-4t11.5-2q3-7 15-12 1-9 12-14 1-8 4-13.5t2-13.5v-2l-3-2q0-2 1.5-2t1.5-5.5-4.5-17.5-9.5-19q-2-14-8-22.5t-11-20.5q-9-1-16-8t-10-6.5-8.5-2.5-8.5-10l-5 2q-3 0-5-3.5t-8-5-16-1-20-4.5q-13 11-23 10-2 7-10 9.5t-14.5 6-12 8.5-12.5 8q-1 6-5 8.5t-3 10.5l-11 5v4q0 15-3.5 20t-5 12-1 12.5 0.5 12-4 17.5-3.5 19.5-1 20.5-4.5 30-5 32.5-1 25 1 20.5v17q0 13-2.5 19t-2.5 9l4 21-4 11 4 28 1 37q0 30-7.5 41t-13 11-11.5-4-14.5-3-13.5 1l-7-1-15 3q-6 12-6 18t3 10 5 9q7 2 18.5 2t16.5 6q3-3 8-3t10 2 11 1q9 14 9 37l-5 67 2 16-2 15q2 6 2 8l-2 6q0 3 4.5 16.5t6.5 20 3.5 9.5 4.5 6 3 7h4l6 2q21 0 21-25v-13q0-9 5-19 1-35 6-69.5t7-70.5q9-6 21-6l37 4q15 0 19-5.5t8-5.5l-1-3 3-11q0-11-9-15t-16-9q-28 11-38 11t-16-3q-3-6-3-11l5-23-4-42 4-20-2-20 2-35-4-33q0-31 8-35 1-1 1-5l-1-34 8-105-2-17q0-7 4-19t6-19 4-9.5 6-3.5 6.5-3 2.5-4 2-5 10-7 16.5-4 18 4 16.5 8.5 13 9 13 5.5l-1 2q0 4 4.5 7.5t6.5 9.5l3 26q0 23-12.5 23t-15-8-7.5-16q-5-3-11-3-17 0-28 17v9q0 6 4 6-2 2-2 5v13q2 7 13.5 13t17 9 8.5 4z"/><path transform="translate(35.889 14.574) scale(.013672 -.013672)" d="m88 262 32 6q8 0 10.5 1.5t21.5 6.5 36 5h24q12 0 18-3.5t11-3.5 17 9q1 4 1 8v9q0 25-3.5 44.5t-2 42.5-3 28.5-6.5 9-1 7.5-2.5 9.5-3 8-1 4.5-3 2.5-3 2.5-1 3-1 4-5 5.5-4.5 7.5q-13 6-22 20-5 1-10.5 0.5t-10 1-7.5 3-7 1.5l-23-6q-1 0-7 2-5-1-5-6.5t-2-8.5q-9 0-9-7-5 0-7-3t-8-1q-4-7-8-14t-11-11q-3-16-3-30t6-20 6-12.5-5-16-12-9.5-9.5 4-4 9-2.5 10.5-7 11.5q3 0 3 5t-3 9-3 22 8 23q-1 0-1 2l2 9q-1 0-1 2l4 6-1 2q1 4 4.5 3.5t5.5 2 9 16.5q7 2 9.5 6.5t7.5 8.5q8 3 11 7.5t7.5 6.5 10 3 7.5 7l3-1q5 0 7 3.5t11.5 3.5 10.5 2 8 2 21.5-7 17.5-7h3q7-8 19-10 14-11 27.5-20.5t21.5-24.5q2-2 1.5-3t2.5-4.5 6-8.5 6-8.5 3.5-3 0.5-7.5l1-1 3-2q6-15 10-46t4-35.5 1.5-7 3.5-10 1.5-21 1-22 3-14 1.5-11.5l-3-15 3-65-3-14 1-22-3-33 7-32-6-27 4-21q0-4-3-6 10-8 24-8l31 6h28q2-2 2-4t2.5-4 4.5-3 2-5-2-6.5 0-7.5q-6-1-7.5-4.5t-5-5.5-10.5-2-17-5q-4 1-10 1l-12 3q-2 0-2.5-2.5t-3.5-2.5l-8 3q-8 0-15.5-4t-11.5-4-10 2l-13-3q-3 0-8 4t-14.5 11-9.5 19l2 14-4 11 4 66-1 28q0 7-11 7-3 0-6.5-3t-7-5-7-2-7.5-2-6.5-4.5-8.5-3.5q-8-11-21-11h-3q-3-1-5-4t-5.5-5.5-9-4-8.5-7.5l-34-6q-5 0-9 3-8-8-16-8-40 0-53 14-5 6-12 11l-3 14q-2 5-4.5 8t-4 9-0.5 13.5 1 14.5l-2 11 4 11v10q0 4 2 6t4 5 1 6.5 5 9.5 6 8.5 3.5 8 12 9.5 13.5 12q9 1 17 1zm153-71 8-2q2 0 3.5 2.5t3.5 2.5l-7 21q-12 2-23.5 9t-18.5 7l-18-2-26 1-40-7-13 2q-8 0-16-3t-16-1q-2-6-9-14t-5.5-19 1.5-18l-2-9q0-2 1.5-4t2.5-4.5 0.5-5.5-0.5-7 4.5-9 6.5-10l1 1q2 0 3.5-3t9.5-3q34 0 70 18l13 6q10 7 21.5 10t15.5 11q16 27 28 30z"/><path transform="translate(41.207 14.574) scale(.013672 -.013672)" d="m102 249q4 36 4 50.5t-3 24.5q5 10 4.5 20.5t1 18.5 3 11.5 1.5 7.5l-2 21q2 3 2 9v15q0 10-4 17h-6l-26-1q-8 0-17 3-2 6-5 7.5t-3 6.5 1 7q17 14 86 14 13 0 18-2.5t8.5-13 3.5-15.5l-2-12 4-13-2-29 2-29-2-27 2-14-6-47 2-45q0-9-2-16.5t-4-17.5-1-21 1-17.5-1-6.5-1-5 3-11.5 1-13.5q12-8 13-8l19 6q0 8 11 8 3 0 2.5-4t3.5-6 6.5-4.5 4-8 3.5-9.5q-1-7-8.5-11.5t-15-4.5-11.5 6q-8-9-18.5-9t-17.5 3q-9 0-30-7h-6l-13-1q-6 0-10 3-14-4-24-4-16-8-28-8t-12 10q-9 0-9 9t5 13q11 10 23.5 11.5t21.5 5.5 15 4 10 2v10l-2 37 7 69zm-3 413-14 2q-2 3-5 6t-4.5 8-3 5-1.5 10 5 20 20.5 18.5 27.5 8.5 15.5-8 6-16 5.5-12.5 3-9.5q0-10-14.5-25.5t-23-15.5-13.5 9z"/><path transform="translate(44.57 14.574) scale(.013672 -.013672)" d="m484 154-6-15q-12-1-36-13-22-2-44.5-3.5t-45.5-4.5l-6 23q1 4 11.5 10t12.5 8q2 32 2 60.5t-3 47.5-4.5 29.5-1 28.5-9.5 26l3 11q0 3-2.5 10.5t-7.5 24.5-11 27-17.5 18.5-19 8.5-22-8.5-23-12-8.5-5-1.5-3-3-1-4-2-4.5-7.5-4-7-3.5-1.5-3.5-1.5-5.5-5-5.5-6q0-7-3-7t-6-1.5-5.5-4-6.5-4.5v-4q0-4-2-13-6-4-9-9.5t-9-7.5q-2-13-8.5-21.5t-11.5-19.5q2-3 2-10l-4-26 2-6-8-42 2-22-6-41 2-17-2-19 2-6-2-8v-2q3-1 2-1.5t-1-7 8-14.5q-3-6-3-8l6-31q0-7-2-10 2-1 4-1l20 5q8-3 16-13v-5q0-9-5-12 2-2 2-4t-2-4-2-6l-2 1q-5 0-8.5-3.5t-7-3.5-14 3.5-11.5 4.5q-8-4-14.5-4t-6.5 1.5-2 0.5l-2-4q-5-2-10-1t-8.5 0-3.5-2-1 0-4.5 1-7.5-4-17-4l-21-4q-7 0-10 2-4 9-4 22v8q16 8 34.5 10t34.5 12q-6 81-6 109l2 30q0 2-1 2t-1 2l2 10v10q0 1 4 25l-1 32 6 68-2 18 5 38-3 23 4 58q0 54-11 72h-3l-13-4h-17l-11 2q-2 0-2.5-1.5t-3-3-7.5-1-9.5 0.5-7.5-1q-7 6-7 14t2 16q9 5 20.5 5t20 2 14 4 13 2 11.5-2q8 6 33 6 4-5 12.5-11.5t8.5-11.5l-1-8q5-6 5-10v-6q0-11-3-14 5-7 5-41l-1-45q0-10 4-14 3 2 7 1.5t7 1.5q6 8 19 21t16 21q27 17 31.5 23t6.5 7l4-1q2 0 5.5 3.5t6.5 5 6.5 3.5 7 3.5 6.5 1 5 1.5 3 4 3 3l4-1 11 2q9 0 19-9.5t20-12.5q5-9 13.5-15t16.5-12q2-8 7.5-13t11-12.5 11-18 12.5-19.5q0-18 4.5-36t6.5-37 4-38 2-38l-2-26 2-10-4-16 2-13q6-6 15-6l28 4q2-6 6-9t4-8z"/><path transform="translate(51.256 14.574) scale(.013672 -.013672)" d="m322 581q13 0 13-17 0-8-7.5-15.5t-10.5-11-4-3.5q0-13-11-17l1-2q0-4-6-8 1-1 1-6.5t-4.5-10-4.5-11.5q-5-1-8-4t-8-4q-2-5-5-8.5t-6-7.5q-4-2-5-7t-7-5h-2q-8 8-8 19.5t6.5 24 17.5 15.5q-1 7-1 13.5t-2.5 13-8 9.5-6.5 10q-8 0-15 4t-15 4l-25-4q-3 0-9 2-10-3-14.5-12.5t-14.5-12.5q-4-9-10-16t-9-16q4-12 3-23t-1-22l1-13q8-31 21.5-64t14.5-34.5 1-5 4-10.5 8.5-14.5 9.5-14.5 9.5-16.5 9.5-25 9.5-25 7-12 5-6.5 2-8 1.5-10.5 5.5-12 3.5-14.5q3-3 4.5-7.5t5.5-7.5q2-16 8.5-31t6.5-25.5 2-11.5 2-10.5-5-29.5-5-36.5-6-25-4-17.5q-5-2-7-7.5t-8-7.5q1-1 1-2t-6.5-7-8.5-6q-3-9-3-12-8-4-14-9.5t-14-8.5q-6-6-13.5-11t-11.5-13q-9-2-18-6t-15.5-4-12.5 2q-5-1-9.5-4t-11.5-3l-13 1-16-3q-6 0-11 6t-9 11h-3q-10 0-14.5 6t-12.5 9q-6 13-14 23.5t-11 21-7.5 14-4.5 9.5l1 13-3 23q0 9 5 16.5t5 15.5q2 0 34 32 8 0 13 3t13 5l19-9q16-8 21.5-18.5t11.5-18 6-14-6.5-12-13-5.5-14 5.5-15.5 8.5q-5 5-6.5 12.5t-7.5 9.5l-26-12 2-14v-2q-5-4-3-14t-6-14q6-5 6-11t3.5-14.5 12-17.5 13.5-19h2q9 0 13-9 15-3 22-3h5l2 2 6-1q11 0 20 3.5t19 4.5q8 4 14 9t12 9 12 7 12 7l2 4h4q1 2 0.5 3t1 3.5 4.5 4.5 4.5 6 1.5 12.5 1 13.5 3 9.5 2 7.5l-3 13 1 15q0 17-7 33.5t-6 33.5q-4 6-8 12l-3 8-5 3-2 14q-2 5-7 11.5t-6 13.5-2.5 11.5-1.5 10.5-1 10q-2 4-3.5 2.5t-1.5 5.5v1q-3 8-11 19t-11.5 19.5-4.5 13-6 7.5q1 1 1 4 0 16-14 23v7q0 4-1.5 4t-2.5 2l-6 13q-10 17-12 29.5t-3.5 21-1 14-1 12-3.5 14.5-2 15.5 2.5 21 1 25 0.5 22.5l4 5v4q0 4 15.5 32t16.5 30q2 2 5.5 4t5.5 4l27 29q11 2 22 4.5t22 2.5l10-2q2 0 2 1.5t2 0.5l2-3q4-2 9-1.5t8.5-1.5 7-6.5 5.5-4 3 0.5 3 1l2-2q1-5 4-7t7-7v-4l4 1q10-13 15.5-13t8 3.5 5.5 7.5 6.5 8 12.5 4z"/><path transform="translate(59.062 14.574) scale(.013672 -.013672)" d="m333 483q7 0 7-6 0-2 4.5-7t8-6.5 3.5-14.5v-3l4-4q4-11 5-22.5t6-23.5q-2-2-5-9.5t-3-10.5 3-4 3-7.5-4.5-14-4.5-15.5l1-9q0-8-5.5-16.5t-13.5-10.5q-2-2-1.5-3.5t0.5-4.5-3-4v-1q0-2-5.5-5t-10-8-9.5-9v-4q0-6-3.5-8.5t-4.5-7.5q-20-10-30-20h-16q-4 0-9-4t-9.5-6-11-2.5-11.5-1.5l-2 2q0-2-3-2l-14 4-26-2-26 6q-2 4-5 7t-5 8l-17 5q-2 2-3.5 5.5t-5 3.5-6.5-1q-3 3-2 6t-4 3-5 4-5 3q-1 4-3 7-9 13-9 22-2 4-5 5t-5 3q-20 44-20 67t2.5 33.5 6 19.5 8.5 18 9 22q8 3 10.5 11t6 10 5 2 3 1.5 1 3 1 4 9 9 10 8.5 6 2.5 7.5 2.5 9.5 5 16 5.5 24.5 3.5 27 9q12-5 25-7.5t25-5.5q1-5 3-7.5t3-7.5l34 5q5 0 18-11.5t11-16.5q2-2 5-2zm-91-228q11 8 21 7 2 5 6.5 6.5t11 7 11.5 15 14 14.5q2 8 7 13.5t9.5 11 6 14 3.5 22.5 2 28-4.5 19-5.5 11-0.5 9.5 0.5 8.5v3q-6 6-11.5 9.5t-10.5 8.5q-23 1-42.5 9t-41.5 11q-11 7-20 7t-12-0.5-5-1.5-4-2.5-5.5-3-7-1-8-1-10-5.5-10.5-6q-2-7-6.5-11.5t-9-19-4.5-24 7-44.5l-2-2q2-9 4.5-15.5t4-11.5 1-7.5-0.5-5.5l4-16v-1l4-4v-4q0-2 3-5.5t3-11.5q6-4 12-11.5t12.5-11.5 19.5-5.5 24-6.5q16 4 30 4z"/><path transform="translate(64.805 14.574) scale(.013672 -.013672)" d="m63 412q-65 0-65 22 0 9 11.5 12.5t18.5 3.5l48-6q12 0 12.5 6.5t0.5 15.5v1l7 100-2 14 3 8-1 7q0 8 2 17t3.5 21 3.5 33.5 12 34.5v4l7 37q6 6 8 12.5t7 12.5l4 1q2 5 4 6t4.5 3.5 3 4.5 2.5 3l3-1q7 15 16.5 18t9.5 7 3 4 6.5 2 8.5 5.5 14 8.5 21 9.5 23 10.5q1-1 6-1l18 3q1 0 7-1t20.5-3 15.5-6q3-2 7.5-3.5t7.5-3.5q2-7 8-9t11-4q2-6 6.5-9.5t6.5-9.5h1q3 0 4-2t3-3.5 4-2 4-2 1.5-3.5 0.5-3l4-2q5-5 8-10.5t8-10.5v-4q-1-8 1.5-15t2.5-13.5-1-9.5q-10-13-24-13-6 4-5.5 9t0.5 10.5-2 6.5-2 9v1q-1 3-7.5 9t-8.5 8.5-6.5 8.5-6.5 8l-7 2q-4 3-7.5 6.5t-9.5 2.5q-6 8-16 11t-18 10q-21-6-28.5-6t-14 3-9 3-3.5-2-4.5-5.5-10.5-7.5-12-9h-4v-4q-3-2-14.5-7t-14.5-8q-2-3-1-6.5t-6-1.5q-2-54-15-87 2-10 2-16.5t-3-13.5-3-9l2-6-4-17 1-12q0-5-3-8 3-5 3-9l-3-21 4-21-2-20 4-48q0-9-2-19 5-4 15-4l91 10q10-10 12-22-11-11-16-11.5t-13.5-3-11-3.5-7.5-1l-15 2q-11 0-21-5t-22-3q-1 0-4-9.5t-4.5-14-1.5-5.5l2-7-2-18 4-48-2-22q0-5 1.5-11t3-20 1.5-37.5 2-41 4-28.5 3.5-22 1-23 0.5-24l3-22q0-2-3-2 5-13 5-25.5t4-20 4-15.5l-2-19 4-28v-11l-2-41q0-12 5-13t9-3 4.5-3 4.5-1l35 6 4-1q11-11 11-18 0-14-15.5-20.5t-32.5-6.5l-14 2q-6 0-12.5-1.5t-14.5-2.5-20-1.5-20-7.5q-2 2-6 2t-6 2q-4-2-9-3t-8-5h-3q-4 0-11 2 0-4-4-4h-5q-8 0-10-6h-6q-7-1-15.5 2.5t-8.5 14.5 8 12 16 4l4 5q19 6 30 8t17 7.5 6 45.5l-6 52 4 22-6 23 2 9-4 10q-1 2-0.5 5t0.5 9v16q0 10-2 19l-4 5 2 10-2 1 2 5q0 5-1 9-5 12-4 26t-1 22 0 16l-6 33 2 14-3 45-2 35 2 46q0 37-13 67z"/><path transform="translate(71.777 14.574) scale(.013672 -.013672)" d="m232 674q-20 0-20-9 0-6-4-8l-15-8q-9-20-20-25l-6-14q-4-1-5-4.5t-5-5.5q0-10-5-15.5t-4-17.5q-5-2-6-6t-7-6q2-1 2-6t-7-13q0-14-10-44t-12-33q2-1 2-5l-2-13 3-19-1-19q0-8 0-16t1.5-13.5 3-9 1.5-4.5v-18q0-13 5.5-25t6-22 6-11.5 5.5-8.5l-4-7v-2q27-68 72-110 11-11 20-24 6 0 23-11l9-8q9-5 16-8.5t12-11.5q8-1 14.5-5.5t10.5-4.5l9 2h2q2-4 16.5-8t16.5-4l10 1q8 0 15.5-2.5t16.5-1.5h4q2 2 5 2l6-2 18 4 32-2q16 0 23 4t6 7q19 0 25 5t8.5 7 6 3 5.5 2.5 2 3 2 3.5 3 1.5 4 1.5q7 4 23 20 20 16 23 16 2 6 5 10t4 10q13 5 18 17t16 17q22-9 22-23 0-8-7.5-12.5t-11.5-9-5-9-4-8.5q-13-5-13-13h-2q-3 0-5-1.5t-5-2.5q-3-5-6.5-10t-5.5-10q-5-2-9-5.5t-9-4.5q-4-8-11.5-13.5t-12.5-14.5q-7 0-10.5-3.5t-10-3.5-8-3-10.5-1q-2-2-15-14l-22-4-14 4q-33 0-43-4l-15-6q-9-3-26-3l-28 4q-6 0-14-4-4 3-9 3h-11q-7 0-9.5 3t-12.5 3h-1l-4 4q-47 18-71 23-6 13-25 18 0 3-4 4t-4 4.5-2 5.5q-20 6-35 32-8 1-16 5-2 3-6.5 7.5t-9 10.5-8 10-3.5 6q-7 3-15 8-16 29-20 48t-6.5 24.5-6 11-6 10-1.5 8.5-1 8l-4 12q-1 3-0.5 6.5t0.5 6.5l-6 41 2 36v18q0 17 6 34.5t11 32.5q-1 2-1 5t2.5 11 6 16.5 6.5 16 5.5 11 6.5 9 8 17 11 20.5 7 18q21 13 25 35 7 2 20.5 17t13.5 17q3 1 2.5 3t1.5 4l4 2q5 9 14.5 16t9.5 11q8 2 15 8.5t13 9.5 10.5 5 6.5 7l3-1q6 0 8 4.5t14 4.5q1 0 3 4 8 2 15 3t14 9q17 0 33 10 2-1 7-1t8.5 2 10 3 16.5 0.5 16.5 2.5 7 4 7.5 1l26-5 22 3 14-4 11 1v-1q0-3 2.5-2.5t6.5 0.5 7-6h5q17 0 53-26 12-8 16.5-12t19.5-7q2 6 4 13 6 34 26 34 7 0 12-6t5-12-2-12q1-2 1-8t-5.5-26.5-5.5-52.5l2-10q0-21 8-29-5-6-11-21-4-2-7.5-4t-10-2-12.5 7q-9 10-9 18v7q0 11-4.5 18t-2.5 13q-6 4-11 9v6q0 23-27 37-5 2-5 6l-15 5q-3 5-9 6.5t-8 7.5h-2l-10-3-15 10q-3-1-9-1t-11 5q0-2-2.5-2t-2.5 2l-18-4q-9 0-14.5 4t-17.5 4-20-8q-31 0-47-11h-4q-13 0-20.5-3.5t-10-3-5 0.5-4.5-1.5-15.5-6.5-38.5-28q-1 1-6 1z"/><path transform="translate(81.088 14.574) scale(.013672 -.013672)" d="m136 335-6-13q2-9 2-13l-2-23q2-2 2-4l-2-4 3-14q5-20 4.5-40t-0.5-41l2-15-2-12 4-20q0-5-1-8t1-7l-2-17 2-11-4-15 2-12-2-13 6-23q10 0 17 5t19 5 12-12-11-18.5-18-9.5-12.5-3.5-12.5-2-9-2.5-11.5-1-25.5-4.5-21-11.5q-2-1-3-0.5t-3.5 0.5-9.5-4.5-15-3.5h-3q-11 5-11 28 3-1 4 2.5t3.5 5 5.5 1 14.5 4 29.5 8.5q3 8 3 16t-2 15.5-1 15.5v35q0 23 1 25l-3 9 2 6-4 16q-2 17-2 35v35q0 16-3 31t-5 31v21l-4 30 1 33-1 29v21q2 6 2 9l-4 10q0 2 2 6 0 15-2 31l-4 16 2 6-5 70 4 37-2 13 3 12-4 36 3 47-4 43q-2 24-2 45.5t-14 21.5l-20-2q-11 0-17 9t-6 12l1 4q3 9 15.5 9t23.5 1.5 31 6.5 32.5 5 15.5-8q-2-14-7-18t-8-14l2-28-3-23 4-27q0-5 2.5-6.5t2.5-7.5l-2-19 2-6-2-4q5-16 4.5-36.5t4.5-34.5q-2-5-2-32l-2-33q0-12 1.5-24.5t3.5-30.5l3-42q2-24 4-49 2-1 12.5-1t15.5 13q5 0 8 4 7 10 10 7t6 2.5 5.5 6.5 3.5 0.5 3-0.5 3 1q1 5 27 10t29 5 9-1 19.5-3 17-8 11-14 18.5-19.5 20-26.5q3-2 4.5-5.5t4.5-5.5q-1-2-1-6l8-32q0-6 2-11t2.5-11.5 1.5-12.5l4-14q2-10 2-21v-20q0-2-1-2t-1-2l6-28-4-25 4-35q0-17-2-34t0-35q-6-11-6-25v-20q0-6 2-12 6-2 15-2l40 8q2-4 7.5-6.5t5.5-6.5q0-12-9-12-20 0-37-17-3 1-9 1l-27-5h-7q-6 0-6.5-2.5t-8.5-2.5l-25-3-8 1q-7 0-8-4.5t-7-4.5l-4 1q-4 8-4 17t3.5 13 8 6 10 4 8.5 7l5 25q1 4 1 9l-3 27 2 20-2 17 4 20-2 18 2 39q0 17-4.5 34t-4.5 35l2 14q0 1-4 25l2 3q-6 7-5.5 8.5t0.5 8-2.5 12.5-4 13-2.5 16q-2 14-7.5 20.5t-7 10.5-4.5 8-7.5 6.5-9.5 7.5q-8-5-21.5-4.5t-19.5 0.5-6.5-2-3-5.5-7-7-7.5-8.5q-19 1-26-10-12-20-19-25-3-9-7.5-9.5t-2.5-5.5l-1-3 4-12q0-3 0-6z"/><path transform="translate(86.898 14.574) scale(.013672 -.013672)" d="m127 473-3-15q0-11 12-17 3 1 10 7.5t22 19 17 19.5q8 5 19 14.5t13 12.5h4q19 19 46.5 26.5t36.5 7.5q29 0 48-22 4-6 8.5-12.5t12.5-14.5q6-4 8.5-18.5t6.5-20.5q-2-4-5.5-11.5t-8-15-8-14-6-8.5-11.5-7.5-12-11.5q-1-1-9.5-3t-10.5-4h-2q-3-1-3.5 2t-2.5 5h-4q-8 0-11 4l-9 8q6 16 16 26 8-2 15-2 16 0 25 28-6 10-8.5 19t-8.5 20.5-25.5 11.5-31.5-9.5-15-20.5q-9-4-16-12.5t-18-15.5-11-8.5-0.5-2.5-3-2-8.5-4q-2-3-3-6.5t-3-7.5q-5-1-8.5-4.5t-8.5-4.5l1-9q0-13-18-31l4-13v-1q-4-6-5.5-14t-7.5-13q-5-25-5-58l1-79q0-5 1-15.5t2.5-30.5 5.5-27l-1-4q1-2 1-11.5t3.5-20 0.5-22.5q3-8 16-8t18 4h1q4 0 3.5 3t1.5 6q4 2 10.5 2t10.5-8 4-14.5-1-9.5q-9-7-20-6-3-2-6.5-5.5t-9.5-6.5-24-2.5-25.5-2-9-3.5-7-2.5-14.5-1.5-16-6h-2q-3 0-4 1.5t-3 2.5q-10-2-16-2t-9 2q2 27 42 36 0 5 4 6v2q0 11-4 22t-4 23l2 13-6 32 2 18-6 58 2 41q0 6 0 12l-6 28 2 17-2 32 2 24-3 35q-1 12-0.5 24t0.5 24l-3 19q0 12-2 28-6-2-13.5-0.5t-11.5-6.5q-4 3-5 3l-15-6q-1 5-5.5 4t-7.5-1h-1q-2 9-2 12 0 16 16 16l12 3q32 9 46.5 14t18.5 4 8-7 6-13 2.5-14.5 1.5-14.5z"/><path transform="translate(92.23 14.574) scale(.013672 -.013672)" d="m102 249q4 36 4 50.5t-3 24.5q5 10 4.5 20.5t1 18.5 3 11.5 1.5 7.5l-2 21q2 3 2 9v15q0 10-4 17h-6l-26-1q-8 0-17 3-2 6-5 7.5t-3 6.5 1 7q17 14 86 14 13 0 18-2.5t8.5-13 3.5-15.5l-2-12 4-13-2-29 2-29-2-27 2-14-6-47 2-45q0-9-2-16.5t-4-17.5-1-21 1-17.5-1-6.5-1-5 3-11.5 1-13.5q12-8 13-8l19 6q0 8 11 8 3 0 2.5-4t3.5-6 6.5-4.5 4-8 3.5-9.5q-1-7-8.5-11.5t-15-4.5-11.5 6q-8-9-18.5-9t-17.5 3q-9 0-30-7h-6l-13-1q-6 0-10 3-14-4-24-4-16-8-28-8t-12 10q-9 0-9 9t5 13q11 10 23.5 11.5t21.5 5.5 15 4 10 2v10l-2 37 7 69zm-3 413-14 2q-2 3-5 6t-4.5 8-3 5-1.5 10 5 20 20.5 18.5 27.5 8.5 15.5-8 6-16 5.5-12.5 3-9.5q0-10-14.5-25.5t-23-15.5-13.5 9z"/><path transform="translate(95.594 14.574) scale(.013672 -.013672)" d="m322 581q13 0 13-17 0-8-7.5-15.5t-10.5-11-4-3.5q0-13-11-17l1-2q0-4-6-8 1-1 1-6.5t-4.5-10-4.5-11.5q-5-1-8-4t-8-4q-2-5-5-8.5t-6-7.5q-4-2-5-7t-7-5h-2q-8 8-8 19.5t6.5 24 17.5 15.5q-1 7-1 13.5t-2.5 13-8 9.5-6.5 10q-8 0-15 4t-15 4l-25-4q-3 0-9 2-10-3-14.5-12.5t-14.5-12.5q-4-9-10-16t-9-16q4-12 3-23t-1-22l1-13q8-31 21.5-64t14.5-34.5 1-5 4-10.5 8.5-14.5 9.5-14.5 9.5-16.5 9.5-25 9.5-25 7-12 5-6.5 2-8 1.5-10.5 5.5-12 3.5-14.5q3-3 4.5-7.5t5.5-7.5q2-16 8.5-31t6.5-25.5 2-11.5 2-10.5-5-29.5-5-36.5-6-25-4-17.5q-5-2-7-7.5t-8-7.5q1-1 1-2t-6.5-7-8.5-6q-3-9-3-12-8-4-14-9.5t-14-8.5q-6-6-13.5-11t-11.5-13q-9-2-18-6t-15.5-4-12.5 2q-5-1-9.5-4t-11.5-3l-13 1-16-3q-6 0-11 6t-9 11h-3q-10 0-14.5 6t-12.5 9q-6 13-14 23.5t-11 21-7.5 14-4.5 9.5l1 13-3 23q0 9 5 16.5t5 15.5q2 0 34 32 8 0 13 3t13 5l19-9q16-8 21.5-18.5t11.5-18 6-14-6.5-12-13-5.5-14 5.5-15.5 8.5q-5 5-6.5 12.5t-7.5 9.5l-26-12 2-14v-2q-5-4-3-14t-6-14q6-5 6-11t3.5-14.5 12-17.5 13.5-19h2q9 0 13-9 15-3 22-3h5l2 2 6-1q11 0 20 3.5t19 4.5q8 4 14 9t12 9 12 7 12 7l2 4h4q1 2 0.5 3t1 3.5 4.5 4.5 4.5 6 1.5 12.5 1 13.5 3 9.5 2 7.5l-3 13 1 15q0 17-7 33.5t-6 33.5q-4 6-8 12l-3 8-5 3-2 14q-2 5-7 11.5t-6 13.5-2.5 11.5-1.5 10.5-1 10q-2 4-3.5 2.5t-1.5 5.5v1q-3 8-11 19t-11.5 19.5-4.5 13-6 7.5q1 1 1 4 0 16-14 23v7q0 4-1.5 4t-2.5 2l-6 13q-10 17-12 29.5t-3.5 21-1 14-1 12-3.5 14.5-2 15.5 2.5 21 1 25 0.5 22.5l4 5v4q0 4 15.5 32t16.5 30q2 2 5.5 4t5.5 4l27 29q11 2 22 4.5t22 2.5l10-2q2 0 2 1.5t2 0.5l2-3q4-2 9-1.5t8.5-1.5 7-6.5 5.5-4 3 0.5 3 1l2-2q1-5 4-7t7-7v-4l4 1q10-13 15.5-13t8 3.5 5.5 7.5 6.5 8 12.5 4z"/><path transform="translate(100.16 14.574) scale(.013672 -.013672)" d="m268 167 17 2q5 0 9.5-4t11.5-2q3-7 15-12 1-9 12-14 1-8 4-13.5t2-13.5v-2l-3-2q0-2 1.5-2t1.5-5.5-4.5-17.5-9.5-19q-2-14-8-22.5t-11-20.5q-9-1-16-8t-10-6.5-8.5-2.5-8.5-10l-5 2q-3 0-5-3.5t-8-5-16-1-20-4.5q-13 11-23 10-2 7-10 9.5t-14.5 6-12 8.5-12.5 8q-1 6-5 8.5t-3 10.5l-11 5v4q0 15-3.5 20t-5 12-1 12.5 0.5 12-4 17.5-3.5 19.5-1 20.5-4.5 30-5 32.5-1 25 1 20.5v17q0 13-2.5 19t-2.5 9l4 21-4 11 4 28 1 37q0 30-7.5 41t-13 11-11.5-4-14.5-3-13.5 1l-7-1-15 3q-6 12-6 18t3 10 5 9q7 2 18.5 2t16.5 6q3-3 8-3t10 2 11 1q9 14 9 37l-5 67 2 16-2 15q2 6 2 8l-2 6q0 3 4.5 16.5t6.5 20 3.5 9.5 4.5 6 3 7h4l6 2q21 0 21-25v-13q0-9 5-19 1-35 6-69.5t7-70.5q9-6 21-6l37 4q15 0 19-5.5t8-5.5l-1-3 3-11q0-11-9-15t-16-9q-28 11-38 11t-16-3q-3-6-3-11l5-23-4-42 4-20-2-20 2-35-4-33q0-31 8-35 1-1 1-5l-1-34 8-105-2-17q0-7 4-19t6-19 4-9.5 6-3.5 6.5-3 2.5-4 2-5 10-7 16.5-4 18 4 16.5 8.5 13 9 13 5.5l-1 2q0 4 4.5 7.5t6.5 9.5l3 26q0 23-12.5 23t-15-8-7.5-16q-5-3-11-3-17 0-28 17v9q0 6 4 6-2 2-2 5v13q2 7 13.5 13t17 9 8.5 4z"/><path transform="translate(104.7 14.574) scale(.013672 -.013672)" d="m71 458-26-8-9 2-13-5q-10 0-10 11l1 9q0 3-1 4 6 2 8.5 4.5t10.5 1.5l16 8q11-2 20.5-2t18.5 7 21 7h19l31 4q12-9 12-16.5t-7.5-10.5-11.5-8l-2-1q-5 0-7 3t-8 3q-1-4-1-17.5t4-29 4-33.5l-2-16q0-10 10-37 1-1 5.5-1t6 3.5 3.5 6 2.5 2.5 1.5 3 1.5 6 2.5 6.5 4 5 9.5 11 15.5 13.5q1 5 4 7t2 8q2 0 12.5 6.5t12 8.5 1 3.5 0.5 2.5q2 1 3 0t4 5.5 8.5 6 14.5 4.5q29 18 53.5 18t29-3 4-4.5 1.5-2.5l6-2q6-6 10.5-20t8.5-22.5 6-9 2-6.5 1.5-7.5 3-6.5 0.5-13.5 8-13.5h1q13 0 16 15 11 7 17 26 1 2 3 3t4 3q2 6 4 12.5t4 11.5q3 3 6.5 5.5t6.5 6.5v4h4q5 7 10.5 16.5t9.5 13 7.5 5.5 13.5 9q43 31 77 31h4q29-19 45-87 4-16 8-30v-2q-3-15 0-16t3-13 5-27 5-32l-3-62 2-19q0-3-2-5.5t-3-8 0-12 1-15.5l-5-43v-23q0-11 2-23 1-6 14.5-6t24 4 19.5 6l10-7q0-3 4.5-2.5t4.5-2.5v-13q-5-7-14.5-8t-15.5-8h-7q-6 0-19.5-2.5t-25-4-25.5-10.5q-2 1-9.5 1t-10.5-5q-2 1-6.5 1t-9-2-9.5-3l-21-2q-5-1-10-3t-11-2-10 5v2q0 9 4 13.5t8 11.5l19 7 8 4 10-1q5 0 8 4t10 2l6 114-2 28 4 11-2 2 2 9-2 19 1 64v17q0 20-3.5 31t-3.5 20l1 16q0 10-2.5 20t-4.5 21.5-4 16.5-14 12q-11-2-23-6t-15-17q-15-5-23.5-17.5t-23.5-18.5l1-3q0-2-1-4.5t-2-6.5q-7-5-13.5-18.5t-10.5-19-3.5-7 0.5-3.5l-1-5q-5-2-6.5-6.5t-3.5-8.5q-6-2-6.5-7t-5.5-7q-1-12-4.5-18.5t-1.5-18.5q-15-14-16-42.5t-3-44-13-24.5q-8-2-16.5-1t-16.5-3q-1 3-6.5 9t-4.5 23 1 24l-4 37 2 11-4 29q0 7 4 11-4 14-4 33l2 27q0 7-3 12.5t-5 13-1.5 16.5-7.5 14h-6l-17-2q-4 0-5 3t-6 3h-2q-3-3-4-8.5t-6-7.5q-4 0-6-1.5t-8 0.5q-9-3-10-6.5t-3-12.5q-7-2-11-7t-12-6q-6-10-17-14l-7-13q-3-7-10-11l-2-17q-8-5-13-13 1-36-24-62l-1-2q0-2 6-11-2-20-2-38v-165q4-1 11-1l45 5h3q11-11 11-19v-5q-13-9-24-9h-20q-17 0-24-5t-12-7-9-1.5-8.5-1-8-3-11-4.5-20-4-23.5-7l-10 32q10 3 25 13 5 2 14.5 6t9.5 11l-3 13 3 32-3 43v21l2 16-6 22 5 26q0 17-3.5 32.5t-6 34-2.5 44-4 43.5l2 7q0 4-4 12-4 17-3 35t1 36q-4 2-10 2z"/><path transform="translate(114.53 14.574) scale(.013672 -.013672)" d="m88 262 32 6q8 0 10.5 1.5t21.5 6.5 36 5h24q12 0 18-3.5t11-3.5 17 9q1 4 1 8v9q0 25-3.5 44.5t-2 42.5-3 28.5-6.5 9-1 7.5-2.5 9.5-3 8-1 4.5-3 2.5-3 2.5-1 3-1 4-5 5.5-4.5 7.5q-13 6-22 20-5 1-10.5 0.5t-10 1-7.5 3-7 1.5l-23-6q-1 0-7 2-5-1-5-6.5t-2-8.5q-9 0-9-7-5 0-7-3t-8-1q-4-7-8-14t-11-11q-3-16-3-30t6-20 6-12.5-5-16-12-9.5-9.5 4-4 9-2.5 10.5-7 11.5q3 0 3 5t-3 9-3 22 8 23q-1 0-1 2l2 9q-1 0-1 2l4 6-1 2q1 4 4.5 3.5t5.5 2 9 16.5q7 2 9.5 6.5t7.5 8.5q8 3 11 7.5t7.5 6.5 10 3 7.5 7l3-1q5 0 7 3.5t11.5 3.5 10.5 2 8 2 21.5-7 17.5-7h3q7-8 19-10 14-11 27.5-20.5t21.5-24.5q2-2 1.5-3t2.5-4.5 6-8.5 6-8.5 3.5-3 0.5-7.5l1-1 3-2q6-15 10-46t4-35.5 1.5-7 3.5-10 1.5-21 1-22 3-14 1.5-11.5l-3-15 3-65-3-14 1-22-3-33 7-32-6-27 4-21q0-4-3-6 10-8 24-8l31 6h28q2-2 2-4t2.5-4 4.5-3 2-5-2-6.5 0-7.5q-6-1-7.5-4.5t-5-5.5-10.5-2-17-5q-4 1-10 1l-12 3q-2 0-2.5-2.5t-3.5-2.5l-8 3q-8 0-15.5-4t-11.5-4-10 2l-13-3q-3 0-8 4t-14.5 11-9.5 19l2 14-4 11 4 66-1 28q0 7-11 7-3 0-6.5-3t-7-5-7-2-7.5-2-6.5-4.5-8.5-3.5q-8-11-21-11h-3q-3-1-5-4t-5.5-5.5-9-4-8.5-7.5l-34-6q-5 0-9 3-8-8-16-8-40 0-53 14-5 6-12 11l-3 14q-2 5-4.5 8t-4 9-0.5 13.5 1 14.5l-2 11 4 11v10q0 4 2 6t4 5 1 6.5 5 9.5 6 8.5 3.5 8 12 9.5 13.5 12q9 1 17 1zm153-71 8-2q2 0 3.5 2.5t3.5 2.5l-7 21q-12 2-23.5 9t-18.5 7l-18-2-26 1-40-7-13 2q-8 0-16-3t-16-1q-2-6-9-14t-5.5-19 1.5-18l-2-9q0-2 1.5-4t2.5-4.5 0.5-5.5-0.5-7 4.5-9 6.5-10l1 1q2 0 3.5-3t9.5-3q34 0 70 18l13 6q10 7 21.5 10t15.5 11q16 27 28 30z"/><path transform="translate(119.85 14.574) scale(.013672 -.013672)" d="m322 581q13 0 13-17 0-8-7.5-15.5t-10.5-11-4-3.5q0-13-11-17l1-2q0-4-6-8 1-1 1-6.5t-4.5-10-4.5-11.5q-5-1-8-4t-8-4q-2-5-5-8.5t-6-7.5q-4-2-5-7t-7-5h-2q-8 8-8 19.5t6.5 24 17.5 15.5q-1 7-1 13.5t-2.5 13-8 9.5-6.5 10q-8 0-15 4t-15 4l-25-4q-3 0-9 2-10-3-14.5-12.5t-14.5-12.5q-4-9-10-16t-9-16q4-12 3-23t-1-22l1-13q8-31 21.5-64t14.5-34.5 1-5 4-10.5 8.5-14.5 9.5-14.5 9.5-16.5 9.5-25 9.5-25 7-12 5-6.5 2-8 1.5-10.5 5.5-12 3.5-14.5q3-3 4.5-7.5t5.5-7.5q2-16 8.5-31t6.5-25.5 2-11.5 2-10.5-5-29.5-5-36.5-6-25-4-17.5q-5-2-7-7.5t-8-7.5q1-1 1-2t-6.5-7-8.5-6q-3-9-3-12-8-4-14-9.5t-14-8.5q-6-6-13.5-11t-11.5-13q-9-2-18-6t-15.5-4-12.5 2q-5-1-9.5-4t-11.5-3l-13 1-16-3q-6 0-11 6t-9 11h-3q-10 0-14.5 6t-12.5 9q-6 13-14 23.5t-11 21-7.5 14-4.5 9.5l1 13-3 23q0 9 5 16.5t5 15.5q2 0 34 32 8 0 13 3t13 5l19-9q16-8 21.5-18.5t11.5-18 6-14-6.5-12-13-5.5-14 5.5-15.5 8.5q-5 5-6.5 12.5t-7.5 9.5l-26-12 2-14v-2q-5-4-3-14t-6-14q6-5 6-11t3.5-14.5 12-17.5 13.5-19h2q9 0 13-9 15-3 22-3h5l2 2 6-1q11 0 20 3.5t19 4.5q8 4 14 9t12 9 12 7 12 7l2 4h4q1 2 0.5 3t1 3.5 4.5 4.5 4.5 6 1.5 12.5 1 13.5 3 9.5 2 7.5l-3 13 1 15q0 17-7 33.5t-6 33.5q-4 6-8 12l-3 8-5 3-2 14q-2 5-7 11.5t-6 13.5-2.5 11.5-1.5 10.5-1 10q-2 4-3.5 2.5t-1.5 5.5v1q-3 8-11 19t-11.5 19.5-4.5 13-6 7.5q1 1 1 4 0 16-14 23v7q0 4-1.5 4t-2.5 2l-6 13q-10 17-12 29.5t-3.5 21-1 14-1 12-3.5 14.5-2 15.5 2.5 21 1 25 0.5 22.5l4 5v4q0 4 15.5 32t16.5 30q2 2 5.5 4t5.5 4l27 29q11 2 22 4.5t22 2.5l10-2q2 0 2 1.5t2 0.5l2-3q4-2 9-1.5t8.5-1.5 7-6.5 5.5-4 3 0.5 3 1l2-2q1-5 4-7t7-7v-4l4 1q10-13 15.5-13t8 3.5 5.5 7.5 6.5 8 12.5 4z"/></svg>