<svg width="49" height="12" viewBox="0 0 49 12" fill="none" xmlns="http://www.w3.org/2000/svg">
<path d="M13.39 11.09C13.3433 11.09 13.3067 11.0867 13.28 11.08C13 10.9667 12.8167 10.82 12.73 10.64C12.6367 10.4667 12.59 10.2467 12.59 9.98C12.59 9.82667 12.6 9.67 12.62 9.51C12.64 9.35 12.6633 9.19 12.69 9.03C12.8967 7.81 13.26 6.61667 13.78 5.45C14.3067 4.28333 14.9333 3.17667 15.66 2.13C15.7067 2.06333 15.73 1.99333 15.73 1.92C15.73 1.85333 15.7033 1.80667 15.65 1.78C15.6033 1.75333 15.54 1.74 15.46 1.74C15.3067 1.74 15.1533 1.78667 15 1.88C14.84 1.97333 14.71 2.06667 14.61 2.16C14.1433 2.56 13.6833 3.03 13.23 3.57C12.7767 4.10333 12.3633 4.60333 11.99 5.07C11.6767 5.49 11.3633 5.91333 11.05 6.34C10.7433 6.77333 10.4467 7.21 10.16 7.65C10.04 7.84333 9.91667 8.05 9.79 8.27C9.66333 8.49 9.53333 8.69333 9.4 8.88C9.35333 8.97333 9.28 9.02 9.18 9.02C9.11333 9.02 9.05667 9 9.01 8.96C8.96333 8.91333 8.94 8.86333 8.94 8.81C8.94 8.79 8.94333 8.77667 8.95 8.77C8.95 8.75667 8.95 8.74667 8.95 8.74C9.27 7.82667 9.58333 6.91 9.89 5.99C10.19 5.07667 10.4833 4.16333 10.77 3.25C10.8033 3.16333 10.8267 3.08 10.84 3C10.86 2.91333 10.87 2.83 10.87 2.75C10.87 2.64333 10.85 2.55 10.81 2.47C10.77 2.38333 10.6833 2.34 10.55 2.34C10.4367 2.34 10.3267 2.36667 10.22 2.42C10.1133 2.48 10.0167 2.53667 9.93 2.59C9.78333 2.69667 9.64 2.81333 9.5 2.94C9.36 3.06 9.22333 3.18333 9.09 3.31C8.57667 3.80333 8.09 4.32333 7.63 4.87C7.17 5.41667 6.76333 5.98667 6.41 6.58C6.07 7.16667 5.73 7.75667 5.39 8.35C5.05 8.93667 4.72667 9.53333 4.42 10.14C4.35333 10.1667 4.28333 10.18 4.21 10.18C4.16333 10.18 4.10667 10.17 4.04 10.15C3.97333 10.13 3.94 10.09 3.94 10.03V9.97C4.16667 9.39 4.43 8.81667 4.73 8.25C5.03667 7.69 5.33333 7.13333 5.62 6.58C5.74 6.34667 5.9 6.05 6.1 5.69C6.30667 5.33 6.52333 4.93667 6.75 4.51C6.97667 4.08333 7.19 3.65333 7.39 3.22C7.59 2.79333 7.75333 2.39667 7.88 2.03C8.00667 1.65667 8.07 1.35 8.07 1.11C8.07 0.83 7.98333 0.63 7.81 0.51C7.63 0.383334 7.38667 0.32 7.08 0.32C6.78667 0.32 6.46667 0.363334 6.12 0.45C5.76667 0.536667 5.42667 0.64 5.1 0.76C4.76667 0.886667 4.47333 1.01667 4.22 1.15C3.87333 1.31667 3.51 1.54333 3.13 1.83C2.75 2.11667 2.39 2.43333 2.05 2.78C1.71667 3.13333 1.44333 3.5 1.23 3.88C1.02333 4.26 0.92 4.63667 0.92 5.01C0.92 5.29 1.00333 5.52 1.17 5.7C1.33667 5.88 1.59333 5.97 1.94 5.97C2.16667 5.97 2.35 5.93 2.49 5.85C2.63667 5.77667 2.74333 5.74 2.81 5.74C2.87667 5.74 2.93333 5.76333 2.98 5.81C3.02667 5.85667 3.05 5.91 3.05 5.97C3.05 6.05 2.97333 6.12 2.82 6.18C2.67333 6.24 2.51 6.28667 2.33 6.32C2.15667 6.34667 2.03 6.36 1.95 6.36C1.47 6.36 1.10667 6.23 0.86 5.97C0.62 5.71667 0.5 5.39 0.5 4.99C0.5 4.71667 0.546667 4.44 0.64 4.16C0.733333 3.88 0.86 3.62333 1.02 3.39C1.24 3.06333 1.52 2.73667 1.86 2.41C2.2 2.08333 2.57 1.78 2.97 1.5C3.36333 1.22 3.74333 0.986667 4.11 0.8C4.52333 0.586667 5.00667 0.4 5.56 0.24C6.11333 0.0800003 6.63333 0 7.12 0C7.51333 0 7.84667 0.0766667 8.12 0.23C8.39333 0.383333 8.53 0.653333 8.53 1.04C8.53 1.28 8.47667 1.57 8.37 1.91C8.26333 2.25 8.13 2.60667 7.97 2.98C7.80333 3.34667 7.64 3.69667 7.48 4.03C7.31333 4.35667 7.17 4.63333 7.05 4.86L7.12 4.89C7.23333 4.75 7.39 4.55667 7.59 4.31C7.79 4.07 8.01667 3.81 8.27 3.53C8.53 3.25 8.8 2.98667 9.08 2.74C9.36 2.49333 9.63333 2.29 9.9 2.13C10.1667 1.97 10.4067 1.89 10.62 1.89C10.8933 1.89 11.0767 1.99 11.17 2.19C11.27 2.38333 11.32 2.57667 11.32 2.77C11.32 2.86333 11.31 2.95667 11.29 3.05C11.27 3.14333 11.2533 3.24333 11.24 3.35C11.2 3.53667 11.1467 3.72333 11.08 3.91C11.0067 4.09667 10.9433 4.28333 10.89 4.47L10.13 6.75L10.2 6.78C10.5467 6.26667 10.9467 5.71 11.4 5.11C11.8533 4.51667 12.33 3.93333 12.83 3.36C13.3367 2.79333 13.8233 2.30333 14.29 1.89C14.4567 1.73 14.6533 1.59 14.88 1.47C15.1133 1.34333 15.36 1.28 15.62 1.28C15.8067 1.28 15.96 1.32333 16.08 1.41C16.2 1.49667 16.26 1.62333 16.26 1.79C16.26 1.88333 16.24 1.97667 16.2 2.07C16.16 2.16333 16.11 2.25333 16.05 2.34C15.61 2.98667 15.1967 3.69 14.81 4.45C14.4233 5.21 14.09 5.98667 13.81 6.78C13.5233 7.57333 13.3033 8.34667 13.15 9.1C13.1233 9.23333 13.1 9.37 13.08 9.51C13.0667 9.65 13.06 9.78333 13.06 9.91C13.06 10.13 13.0833 10.29 13.13 10.39C13.1833 10.49 13.2467 10.5633 13.32 10.61C13.3867 10.6567 13.4467 10.6967 13.5 10.73C13.5467 10.7633 13.57 10.8233 13.57 10.91C13.57 11.03 13.51 11.09 13.39 11.09ZM15.28 9.83C14.8267 9.83 14.4767 9.73667 14.23 9.55C13.99 9.36333 13.87 9.16667 13.87 8.96C13.87 8.81333 13.9333 8.68 14.06 8.56C14.1867 8.44667 14.3967 8.39 14.69 8.39C14.8767 8.39 15.1033 8.41667 15.37 8.47C15.5633 8.51667 15.77 8.57667 15.99 8.65C16.21 8.73 16.4367 8.76333 16.67 8.75C16.7367 8.65 16.7733 8.56667 16.78 8.5C16.7867 8.43333 16.79 8.35333 16.79 8.26C16.79 7.95333 16.7433 7.69667 16.65 7.49C16.55 7.28333 16.4367 7.08333 16.31 6.89C16.1833 6.69667 16.08 6.46 16 6.18C15.8733 6.38 15.7167 6.64667 15.53 6.98C15.3433 7.31333 15.0367 7.76333 14.61 8.33C14.5833 8.37667 14.5267 8.4 14.44 8.4C14.3 8.4 14.23 8.34 14.23 8.22C14.23 8.19333 14.2533 8.15 14.3 8.09C14.34 8.03667 14.4333 7.89333 14.58 7.66C14.7467 7.38667 14.9433 7.08 15.17 6.74C15.3967 6.4 15.61 6.02667 15.81 5.62C15.8233 5.46 15.8567 5.30333 15.91 5.15C15.97 5.00333 16.0367 4.87 16.11 4.75C16.21 4.58333 16.3167 4.46 16.43 4.38C16.5433 4.3 16.6467 4.26 16.74 4.26C16.9133 4.26 17 4.36333 17 4.57C17 4.71 16.9467 4.89 16.84 5.11C16.7733 5.25 16.6867 5.37 16.58 5.47C16.48 5.57 16.3933 5.65667 16.32 5.73C16.34 5.96333 16.3967 6.17333 16.49 6.36C16.5833 6.54667 16.6867 6.72667 16.8 6.9C16.92 7.08 17.02 7.27333 17.1 7.48C17.1867 7.68667 17.23 7.93333 17.23 8.22C17.23 8.40667 17.1967 8.58 17.13 8.74C17.3367 8.74667 17.55 8.67 17.77 8.51C17.99 8.34333 18.2 8.13 18.4 7.87C18.6 7.61 18.78 7.34333 18.94 7.07C18.9867 7.00333 19.0467 6.97 19.12 6.97C19.1667 6.97 19.2133 6.98667 19.26 7.02C19.3067 7.04667 19.33 7.09333 19.33 7.16C19.33 7.19333 19.3167 7.24 19.29 7.3C19.0167 7.78 18.7567 8.15333 18.51 8.42C18.2633 8.68667 18.0133 8.87333 17.76 8.98C17.5067 9.08 17.2267 9.14 16.92 9.16C16.6867 9.37333 16.4367 9.53667 16.17 9.65C15.9033 9.77 15.6067 9.83 15.28 9.83ZM15.21 9.49C15.4233 9.49 15.61 9.46 15.77 9.4C15.93 9.33333 16.1033 9.24 16.29 9.12C16.0967 9.08667 15.9333 9.05 15.8 9.01C15.6667 8.97 15.5 8.92667 15.3 8.88C15.0333 8.82 14.8267 8.79 14.68 8.79C14.4067 8.79 14.27 8.85667 14.27 8.99C14.27 9.09 14.36 9.2 14.54 9.32C14.72 9.43333 14.9433 9.49 15.21 9.49ZM33.89 11.09C33.8433 11.09 33.8067 11.0867 33.78 11.08C33.5 10.9667 33.3133 10.82 33.22 10.64C33.1333 10.4667 33.09 10.2467 33.09 9.98C33.09 9.82667 33.1 9.67 33.12 9.51C33.14 9.35 33.1633 9.19 33.19 9.03C33.3967 7.81 33.76 6.61667 34.28 5.45C34.8 4.28333 35.4267 3.17667 36.16 2.13C36.2067 2.06333 36.23 1.99333 36.23 1.92C36.23 1.85333 36.2033 1.80667 36.15 1.78C36.0967 1.75333 36.0333 1.74 35.96 1.74C35.8 1.74 35.6433 1.78667 35.49 1.88C35.3367 1.97333 35.21 2.06667 35.11 2.16C34.6433 2.56 34.1833 3.03 33.73 3.57C33.2767 4.10333 32.8633 4.60333 32.49 5.07C32.17 5.49 31.8567 5.91333 31.55 6.34C31.2433 6.77333 30.9433 7.21 30.65 7.65C30.53 7.84333 30.4067 8.05 30.28 8.27C30.1533 8.49 30.0267 8.69333 29.9 8.88C29.8533 8.97333 29.7767 9.02 29.67 9.02C29.61 9.02 29.5567 9 29.51 8.96C29.4633 8.91333 29.44 8.86333 29.44 8.81C29.44 8.79 29.44 8.77667 29.44 8.77C29.4467 8.75667 29.45 8.74667 29.45 8.74C29.77 7.82667 30.08 6.91 30.38 5.99C30.6867 5.07667 30.9833 4.16333 31.27 3.25C31.2967 3.16333 31.32 3.08 31.34 3C31.36 2.91333 31.37 2.83 31.37 2.75C31.37 2.64333 31.35 2.55 31.31 2.47C31.2633 2.38333 31.1767 2.34 31.05 2.34C30.9367 2.34 30.8267 2.36667 30.72 2.42C30.6133 2.48 30.5167 2.53667 30.43 2.59C30.2833 2.69667 30.14 2.81333 30 2.94C29.86 3.06 29.7233 3.18333 29.59 3.31C29.0767 3.80333 28.59 4.32333 28.13 4.87C27.6633 5.41667 27.2533 5.98667 26.9 6.58C26.5667 7.16667 26.23 7.75667 25.89 8.35C25.55 8.93667 25.2233 9.53333 24.91 10.14C24.85 10.1667 24.78 10.18 24.7 10.18C24.6533 10.18 24.6 10.17 24.54 10.15C24.4733 10.13 24.44 10.09 24.44 10.03V9.97C24.66 9.39 24.9233 8.81667 25.23 8.25C25.53 7.69 25.8267 7.13333 26.12 6.58C26.24 6.34667 26.4 6.05 26.6 5.69C26.8 5.33 27.0167 4.93667 27.25 4.51C27.4767 4.08333 27.69 3.65333 27.89 3.22C28.09 2.79333 28.2533 2.39667 28.38 2.03C28.5067 1.65667 28.57 1.35 28.57 1.11C28.57 0.83 28.48 0.63 28.3 0.51C28.1267 0.383334 27.8833 0.32 27.57 0.32C27.2833 0.32 26.9667 0.363334 26.62 0.45C26.2667 0.536667 25.9233 0.64 25.59 0.76C25.2633 0.886667 24.9733 1.01667 24.72 1.15C24.3733 1.31667 24.01 1.54333 23.63 1.83C23.2433 2.11667 22.8833 2.43333 22.55 2.78C22.21 3.13333 21.9367 3.5 21.73 3.88C21.5167 4.26 21.41 4.63667 21.41 5.01C21.41 5.29 21.4967 5.52 21.67 5.7C21.8367 5.88 22.0933 5.97 22.44 5.97C22.66 5.97 22.8433 5.93 22.99 5.85C23.1367 5.77667 23.24 5.74 23.3 5.74C23.3667 5.74 23.4233 5.76333 23.47 5.81C23.5167 5.85667 23.54 5.91 23.54 5.97C23.54 6.05 23.4667 6.12 23.32 6.18C23.1667 6.24 23.0033 6.28667 22.83 6.32C22.65 6.34667 22.5233 6.36 22.45 6.36C21.9633 6.36 21.6 6.23 21.36 5.97C21.1133 5.71667 20.99 5.39 20.99 4.99C20.99 4.71667 21.0367 4.44 21.13 4.16C21.2233 3.88 21.35 3.62333 21.51 3.39C21.7367 3.06333 22.02 2.73667 22.36 2.41C22.7 2.08333 23.07 1.78 23.47 1.5C23.8633 1.22 24.2433 0.986667 24.61 0.8C25.0167 0.586667 25.5 0.4 26.06 0.24C26.6133 0.0800003 27.1333 0 27.62 0C28.0067 0 28.34 0.0766667 28.62 0.23C28.8933 0.383333 29.03 0.653333 29.03 1.04C29.03 1.28 28.9767 1.57 28.87 1.91C28.7633 2.25 28.6267 2.60667 28.46 2.98C28.3 3.34667 28.1367 3.69667 27.97 4.03C27.81 4.35667 27.67 4.63333 27.55 4.86L27.62 4.89C27.7267 4.75 27.8833 4.55667 28.09 4.31C28.29 4.07 28.5167 3.81 28.77 3.53C29.03 3.25 29.3 2.98667 29.58 2.74C29.86 2.49333 30.1333 2.29 30.4 2.13C30.66 1.97 30.9 1.89 31.12 1.89C31.3867 1.89 31.57 1.99 31.67 2.19C31.77 2.38333 31.82 2.57667 31.82 2.77C31.82 2.86333 31.81 2.95667 31.79 3.05C31.77 3.14333 31.75 3.24333 31.73 3.35C31.6967 3.53667 31.6433 3.72333 31.57 3.91C31.5033 4.09667 31.44 4.28333 31.38 4.47L30.63 6.75L30.7 6.78C31.04 6.26667 31.4367 5.71 31.89 5.11C32.3433 4.51667 32.8233 3.93333 33.33 3.36C33.83 2.79333 34.3133 2.30333 34.78 1.89C34.9533 1.73 35.1533 1.59 35.38 1.47C35.6067 1.34333 35.85 1.28 36.11 1.28C36.2967 1.28 36.4533 1.32333 36.58 1.41C36.7 1.49667 36.76 1.62333 36.76 1.79C36.76 1.88333 36.74 1.97667 36.7 2.07C36.6533 2.16333 36.6033 2.25333 36.55 2.34C36.11 2.98667 35.6967 3.69 35.31 4.45C34.9233 5.21 34.5867 5.98667 34.3 6.78C34.0133 7.57333 33.7967 8.34667 33.65 9.1C33.6233 9.23333 33.6 9.37 33.58 9.51C33.56 9.65 33.55 9.78333 33.55 9.91C33.55 10.13 33.5767 10.29 33.63 10.39C33.6833 10.49 33.7433 10.5633 33.81 10.61C33.8833 10.6567 33.9433 10.6967 33.99 10.73C34.0433 10.7633 34.07 10.8233 34.07 10.91C34.07 11.03 34.01 11.09 33.89 11.09ZM35.69 9.75C35.3833 9.75 35.1733 9.66667 35.06 9.5C34.94 9.34 34.88 9.14333 34.88 8.91C34.88 8.68333 34.9167 8.45 34.99 8.21C35.07 7.96333 35.1533 7.73667 35.24 7.53C35.3267 7.31667 35.4 7.16 35.46 7.06C35.6267 6.76667 35.8133 6.48667 36.02 6.22C36.2333 5.94667 36.46 5.70667 36.7 5.5C36.9467 5.28667 37.1967 5.12333 37.45 5.01C37.71 4.89 37.97 4.83 38.23 4.83C38.6767 4.83 38.9933 4.95 39.18 5.19C39.3667 5.43 39.46 5.68333 39.46 5.95C39.46 6.04333 39.4467 6.14333 39.42 6.25C39.38 6.39 39.3367 6.51 39.29 6.61C39.2367 6.71 39.1733 6.76 39.1 6.76C39.0333 6.76 38.97 6.73 38.91 6.67C38.8567 6.60333 38.84 6.53667 38.86 6.47C38.88 6.40333 38.9067 6.33667 38.94 6.27C38.9667 6.21 38.9867 6.14667 39 6.08C39.0067 6.03333 39.0133 5.99 39.02 5.95C39.0267 5.91667 39.03 5.88 39.03 5.84C39.03 5.58667 38.9467 5.41333 38.78 5.32C38.62 5.22 38.4467 5.17 38.26 5.17C38.04 5.17 37.8167 5.23 37.59 5.35C37.3633 5.47 37.1667 5.61 37 5.77C36.7933 5.97667 36.5867 6.21333 36.38 6.48C36.1733 6.75333 35.9967 7.03 35.85 7.31C35.83 7.35667 35.78 7.47 35.7 7.65C35.62 7.82333 35.5467 8.02 35.48 8.24C35.4067 8.46 35.37 8.66333 35.37 8.85C35.37 8.98333 35.4 9.09667 35.46 9.19C35.52 9.28333 35.6267 9.33 35.78 9.33C35.94 9.33 36.1233 9.25333 36.33 9.1C36.5433 8.95333 36.76 8.77 36.98 8.55C37.1933 8.33 37.39 8.11667 37.57 7.91C37.75 7.70333 37.88 7.54667 37.96 7.44C38.02 7.36 38.0733 7.27667 38.12 7.19C38.1733 7.10333 38.2267 7.02333 38.28 6.95C38.3133 6.91 38.37 6.89 38.45 6.89C38.5233 6.89 38.6 6.91 38.68 6.95C38.76 6.99667 38.79 7.05667 38.77 7.13C38.7367 7.19667 38.67 7.34 38.57 7.56C38.47 7.77333 38.38 8.01 38.3 8.27C38.2133 8.52333 38.17 8.75 38.17 8.95C38.17 9.19 38.2467 9.33 38.4 9.37C38.5 9.39 38.61 9.35333 38.73 9.26C38.8433 9.16667 38.95 9.05667 39.05 8.93C39.1433 8.81 39.2133 8.72333 39.26 8.67C39.46 8.41 39.6467 8.14 39.82 7.86C39.9933 7.58667 40.1667 7.33 40.34 7.09C40.4 7.01 40.4667 6.97 40.54 6.97C40.6667 6.97 40.73 7.04 40.73 7.18C40.73 7.22667 40.67 7.34667 40.55 7.54C40.43 7.73333 40.2833 7.95 40.11 8.19C39.9367 8.43667 39.7767 8.65667 39.63 8.85C39.4767 9.04333 39.3067 9.23333 39.12 9.42C38.9333 9.60667 38.6967 9.7 38.41 9.7C38.1367 9.7 37.9533 9.64 37.86 9.52C37.76 9.4 37.71 9.26667 37.71 9.12C37.71 8.98667 37.7233 8.84667 37.75 8.7C37.7767 8.56 37.8067 8.43667 37.84 8.33L37.78 8.29C37.6933 8.39 37.5667 8.52 37.4 8.68C37.2333 8.84 37.0467 9 36.84 9.16C36.6333 9.32667 36.43 9.46667 36.23 9.58C36.03 9.69333 35.85 9.75 35.69 9.75ZM40.59 9.9C40.2833 9.9 40.07 9.79667 39.95 9.59C39.83 9.38333 39.77 9.16333 39.77 8.93C39.77 8.66333 39.8267 8.35667 39.94 8.01C40.06 7.66333 40.2233 7.31333 40.43 6.96C40.63 6.60667 40.8667 6.28 41.14 5.98C41.4133 5.68 41.71 5.43667 42.03 5.25C42.35 5.06333 42.68 4.97 43.02 4.97C43.22 4.97 43.3833 5.00667 43.51 5.08C43.6367 5.16 43.7567 5.26333 43.87 5.39C44.0633 5.07667 44.2833 4.69333 44.53 4.24C44.77 3.78667 45.0167 3.33 45.27 2.87C45.5233 2.40333 45.7533 2.00333 45.96 1.67C46.0533 1.51 46.15 1.40333 46.25 1.35C46.35 1.29 46.4467 1.26 46.54 1.26C46.62 1.26 46.6833 1.28 46.73 1.32C46.7767 1.35333 46.8 1.43333 46.8 1.56C46.8 1.62 46.74 1.75667 46.62 1.97C46.5067 2.17667 46.3567 2.42667 46.17 2.72C45.9833 3.00667 45.78 3.31 45.56 3.63C45.3467 3.94333 45.1467 4.24667 44.96 4.54C44.7667 4.82667 44.61 5.07 44.49 5.27C44.3967 5.41667 44.27 5.64 44.11 5.94C43.95 6.24667 43.7867 6.58333 43.62 6.95C43.4533 7.31 43.3133 7.66333 43.2 8.01C43.0867 8.35667 43.03 8.64 43.03 8.86C43.03 8.98667 43.0533 9.09 43.1 9.17C43.1467 9.25667 43.2167 9.3 43.31 9.3C43.41 9.3 43.5167 9.25667 43.63 9.17C43.7433 9.09 43.8467 8.99667 43.94 8.89C44.0333 8.79 44.1 8.71 44.14 8.65C44.1733 8.60333 44.26 8.48333 44.4 8.29C44.54 8.09667 44.6933 7.88333 44.86 7.65C45.02 7.42333 45.1433 7.24333 45.23 7.11C45.2767 7.03667 45.34 7 45.42 7C45.5467 7 45.61 7.07 45.61 7.21C45.61 7.23 45.59 7.27 45.55 7.33C45.51 7.39 45.4633 7.46667 45.41 7.56C44.9633 8.25333 44.58 8.78 44.26 9.14C43.9467 9.50667 43.61 9.69 43.25 9.69C43.2233 9.69 43.1933 9.69 43.16 9.69C43.1267 9.69 43.0967 9.68667 43.07 9.68C42.8833 9.64 42.7567 9.53667 42.69 9.37C42.6167 9.20333 42.58 9.03 42.58 8.85C42.58 8.76333 42.5867 8.67333 42.6 8.58C42.6133 8.48 42.64 8.34667 42.68 8.18C42.5 8.39333 42.3033 8.62333 42.09 8.87C41.8767 9.11667 41.6667 9.33333 41.46 9.52C41.2467 9.70667 41.06 9.82 40.9 9.86C40.8067 9.88667 40.7033 9.9 40.59 9.9ZM40.65 9.47C40.79 9.47 40.9567 9.39667 41.15 9.25C41.3367 9.10333 41.5333 8.92 41.74 8.7C41.94 8.47333 42.13 8.23333 42.31 7.98C42.49 7.72667 42.65 7.49667 42.79 7.29C42.9233 7.07667 43.0167 6.91667 43.07 6.81L43.6 5.76C43.5267 5.65333 43.4467 5.56333 43.36 5.49C43.2733 5.41667 43.1533 5.38 43 5.38C42.7133 5.38 42.4333 5.46667 42.16 5.64C41.8933 5.81333 41.6433 6.03667 41.41 6.31C41.1833 6.58333 40.9867 6.88333 40.82 7.21C40.6533 7.53 40.5233 7.84 40.43 8.14C40.3367 8.44667 40.29 8.71 40.29 8.93C40.29 9.03667 40.31 9.15333 40.35 9.28C40.39 9.40667 40.49 9.47 40.65 9.47ZM47.38 3.98C47.3333 3.98 47.2833 3.97 47.23 3.95C47.1767 3.93 47.15 3.88667 47.15 3.82C47.15 3.77333 47.1633 3.73333 47.19 3.7C47.2633 3.56 47.4 3.43667 47.6 3.33C47.8 3.23 47.9533 3.18 48.06 3.18C48.1067 3.18 48.1567 3.19 48.21 3.21C48.2633 3.23667 48.29 3.28333 48.29 3.35C48.29 3.51 48.1967 3.65333 48.01 3.78C47.8167 3.91333 47.6067 3.98 47.38 3.98ZM45.82 9.7C45.5 9.7 45.2467 9.61333 45.06 9.44C44.8733 9.26 44.78 9.01333 44.78 8.7C44.78 8.51333 44.8 8.32667 44.84 8.14C44.8733 7.96 44.9233 7.78 44.99 7.6C45.03 7.5 45.1067 7.33 45.22 7.09C45.34 6.85667 45.4767 6.60667 45.63 6.34C45.79 6.07333 45.9467 5.84667 46.1 5.66C46.2467 5.47333 46.3767 5.38 46.49 5.38C46.5367 5.38 46.6 5.39667 46.68 5.43C46.76 5.46333 46.8 5.51 46.8 5.57C46.8 5.61 46.78 5.65667 46.74 5.71C46.5267 5.95667 46.3033 6.24667 46.07 6.58C45.8367 6.92 45.64 7.27 45.48 7.63C45.32 7.99667 45.24 8.34667 45.24 8.68C45.24 9.11333 45.4467 9.33 45.86 9.33C46.14 9.33 46.4233 9.19333 46.71 8.92C46.99 8.64667 47.3033 8.28333 47.65 7.83C47.75 7.69667 47.84 7.56667 47.92 7.44C48 7.31333 48.0733 7.20333 48.14 7.11C48.2067 7.05 48.2767 7.02 48.35 7.02C48.4633 7.02 48.52 7.06 48.52 7.14C48.52 7.24667 48.4433 7.41 48.29 7.63C48.1433 7.85667 47.9767 8.09 47.79 8.33C47.4233 8.77667 47.1067 9.11667 46.84 9.35C46.5667 9.58333 46.2267 9.7 45.82 9.7Z" fill="black"/>
</svg>
