<svg width="74.774" height="23.268" viewBox="0 0 74.774 23.268" xmlns="http://www.w3.org/2000/svg"><path transform="translate(0 15.82) scale(.014 -.014)" d="m117 630h120l132-402q10-29 19-56.5t17-55.5h2q8 28 16.5 54t19.5 58l129 402h120l55-630h-92l-26 334q-4 49-6 97.5t-4 98.5h-2q-14-49-28.5-98t-30.5-98l-111-334h-84l-111 335q-17 51-31 97.5t-28 97.5h-2q-2-49-5.5-98t-7.5-98l-24-334h-90z"/><path transform="translate(11.354 15.82) scale(.014 -.014)" d="m383 470h88v-470h-69l-12 59h-4q-26-29-64.5-48.5t-89.5-19.5q-73 0-118.5 41.5t-45.5 125.5v312h88v-301q0-30 7.5-51t20-33.5 29.5-18 37-5.5q40 0 72 17t61 47z"/><path transform="translate(18.9 15.82) scale(.014 -.014)" d="M156 172V0H69V710H156V268L345 470H454L261 272L463 0H359L203 219Z"/><path transform="translate(25.438 15.82) scale(.014 -.014)" d="m315 404h-138v-273q0-35 17.5-47t45.5-12q20 0 44 4.5t42 10.5l14-67q-20-8-51-14t-65-6q-70 0-102 30.5t-32 88.5v285h-70v66h70v150h87v-150h138z"/><path transform="translate(30.534 15.82) scale(.014 -.014)" d="m73 428q24 12 45 21.5t42 15.5 43 9 48 3q39 0 71.5-8.5t56-28.5 36.5-52.5 13-81.5v-306h-73l-11 52h-2q-31-33-68-47t-82-14q-34 0-62.5 9.5t-49.5 27-32.5 42.5-11.5 56q0 74 58.5 112.5t154.5 38.5h90v40q0 51-26 69.5t-70 18.5q-26 0-59.5-8.5t-76.5-32.5zm267-211-74-2q-75-2-106.5-26.5t-31.5-59.5q0-21 7-35.5t18.5-22.5 27-11.5 32.5-3.5q33 0 67 15.5t60 49.5z"/><path transform="translate(41.3 15.82) scale(.014 -.014)" d="m117 630h120l132-402q10-29 19-56.5t17-55.5h2q8 28 16.5 54t19.5 58l129 402h120l55-630h-92l-26 334q-4 49-6 97.5t-4 98.5h-2q-14-49-28.5-98t-30.5-98l-111-334h-84l-111 335q-17 51-31 97.5t-28 97.5h-2q-2-49-5.5-98t-7.5-98l-24-334h-90z"/><path transform="translate(52.654 15.82) scale(.014 -.014)" d="m73 428q24 12 45 21.5t42 15.5 43 9 48 3q39 0 71.5-8.5t56-28.5 36.5-52.5 13-81.5v-306h-73l-11 52h-2q-31-33-68-47t-82-14q-34 0-62.5 9.5t-49.5 27-32.5 42.5-11.5 56q0 74 58.5 112.5t154.5 38.5h90v40q0 51-26 69.5t-70 18.5q-26 0-59.5-8.5t-76.5-32.5zm267-211-74-2q-75-2-106.5-26.5t-31.5-59.5q0-21 7-35.5t18.5-22.5 27-11.5 32.5-3.5q33 0 67 15.5t60 49.5z"/><path transform="translate(59.5 15.82) scale(.014 -.014)" d="M72 0V710H158V0Z"/><path transform="translate(62.72 15.82) scale(.014 -.014)" d="m73 428q24 12 45 21.5t42 15.5 43 9 48 3q39 0 71.5-8.5t56-28.5 36.5-52.5 13-81.5v-306h-73l-11 52h-2q-31-33-68-47t-82-14q-34 0-62.5 9.5t-49.5 27-32.5 42.5-11.5 56q0 74 58.5 112.5t154.5 38.5h90v40q0 51-26 69.5t-70 18.5q-26 0-59.5-8.5t-76.5-32.5zm267-211-74-2q-75-2-106.5-26.5t-31.5-59.5q0-21 7-35.5t18.5-22.5 27-11.5 32.5-3.5q33 0 67 15.5t60 49.5z"/><path transform="translate(69.566 15.82) scale(.014 -.014)" d="m66 0v470h66l15-94q17 45 56 73t90 28q26 0 43-4t31-10l-17-77q-12 6-26.5 10t-34.5 4q-29 0-53.5-10t-43-30-29-49.5-10.5-67.5v-243z"/></svg>