<svg width="54" height="11" viewBox="0 0 54 11" fill="none" xmlns="http://www.w3.org/2000/svg">
<path d="M0.5 10.51L0.93 0.32H2.56L4.14 4.97L5.33 8.77H5.36L6.56 4.97L8.14 0.32H9.75L10.19 10.51H8.95L8.8 6.27L8.66 2.11H8.63L5.85 10.51H4.77L2.05 2.11H2.02L1.87 6.27L1.7 10.51H0.5ZM14.53 10.66C14.0033 10.66 13.5633 10.5433 13.21 10.31C12.8567 10.07 12.5933 9.72667 12.42 9.28C12.2467 8.83333 12.16 8.29 12.16 7.65V3.23H13.42V7.6C13.42 8.25333 13.5433 8.75667 13.79 9.11C14.0367 9.46333 14.4367 9.64 14.99 9.64C15.27 9.64 15.53 9.58667 15.77 9.48C16.0167 9.37333 16.2367 9.23667 16.43 9.07C16.6233 8.91 16.79 8.75 16.93 8.59V3.23H18.18V8.48C18.18 8.88 18.1833 9.24333 18.19 9.57C18.19 9.89667 18.2 10.21 18.22 10.51H17.31L17.05 9.4H17.02C16.8533 9.6 16.6433 9.79667 16.39 9.99C16.1367 10.19 15.85 10.35 15.53 10.47C15.2167 10.5967 14.8833 10.66 14.53 10.66ZM21.41 10.51H20.15V5.29C20.15 4.85667 20.1467 4.48 20.14 4.16C20.1333 3.84 20.1233 3.53 20.11 3.23L21.22 3.19L21.32 4.48H21.34C21.6067 4.06 21.94 3.71667 22.34 3.45C22.74 3.19 23.2433 3.07333 23.85 3.1V4.22C23.31 4.18667 22.8333 4.26667 22.42 4.46C22.0133 4.64667 21.6767 4.95 21.41 5.37V10.51ZM28.25 10.66C27.4567 10.66 26.7933 10.5 26.26 10.18C25.7333 9.86 25.34 9.41667 25.08 8.85C24.82 8.28333 24.69 7.63333 24.69 6.9C24.69 6.36 24.7633 5.86 24.91 5.4C25.0633 4.94 25.28 4.53667 25.56 4.19C25.8467 3.83667 26.1967 3.56333 26.61 3.37C27.0167 3.17667 27.4867 3.08 28.02 3.08C28.5733 3.08 29.04 3.18 29.42 3.38C29.8067 3.58 30.11 3.86 30.33 4.22C30.5567 4.58 30.71 5 30.79 5.48C30.87 5.96667 30.8767 6.5 30.81 7.08H25.39L26.02 6.6C25.92 7.20667 25.94 7.74333 26.08 8.21C26.2267 8.67 26.4933 9.03333 26.88 9.3C27.2667 9.56667 27.7733 9.7 28.4 9.7C28.8 9.7 29.1767 9.65667 29.53 9.57C29.8767 9.49 30.1633 9.40667 30.39 9.32L30.54 10.2C30.26 10.32 29.9167 10.4267 29.51 10.52C29.0967 10.6133 28.6767 10.66 28.25 10.66ZM25.95 6.7L25.4 6.35H29.7C29.7133 6.30333 29.72 6.26333 29.72 6.23C29.72 6.19 29.72 6.15667 29.72 6.13C29.72 5.69 29.6533 5.31 29.52 4.99C29.3867 4.66333 29.1967 4.41333 28.95 4.24C28.6967 4.06 28.3733 3.97 27.98 3.97C27.52 3.97 27.1367 4.1 26.83 4.36C26.5167 4.61333 26.2833 4.95 26.13 5.37C25.9833 5.79 25.9233 6.23333 25.95 6.7ZM35.57 10.66C34.83 10.66 34.1933 10.51 33.66 10.21C33.12 9.90333 32.7033 9.47 32.41 8.91C32.1167 8.34333 31.97 7.66667 31.97 6.88C31.97 6.12667 32.1167 5.46667 32.41 4.9C32.7033 4.32667 33.1233 3.88333 33.67 3.57C34.2167 3.25 34.8767 3.09 35.65 3.09C35.9767 3.09 36.3167 3.12333 36.67 3.19C37.03 3.25667 37.35 3.35333 37.63 3.48L37.47 4.42C37.25 4.32 36.9833 4.23667 36.67 4.17C36.3567 4.10333 36.0367 4.07 35.71 4.07C35.1767 4.07 34.7267 4.19 34.36 4.43C33.9867 4.66333 33.7067 4.99 33.52 5.41C33.3333 5.83 33.24 6.31333 33.24 6.86C33.24 7.43333 33.3467 7.93 33.56 8.35C33.7667 8.77 34.0633 9.09333 34.45 9.32C34.83 9.54667 35.2767 9.66 35.79 9.66C36.1633 9.66 36.51 9.62 36.83 9.54C37.1567 9.46 37.4133 9.38667 37.6 9.32L37.72 10.24C37.4867 10.3467 37.1667 10.4433 36.76 10.53C36.36 10.6167 35.9633 10.66 35.57 10.66ZM39.15 10.51L39.14 0.0400004L40.4 0V4.27H40.43C40.6233 4.07 40.84 3.88 41.08 3.7C41.3133 3.52 41.58 3.37 41.88 3.25C42.18 3.13667 42.5067 3.08 42.86 3.08C43.1667 3.08 43.4633 3.13333 43.75 3.24C44.0367 3.35333 44.29 3.52667 44.51 3.76C44.73 3.99333 44.9 4.3 45.02 4.68C45.1467 5.06 45.21 5.51333 45.21 6.04V10.51H43.95V6.1C43.95 5.72667 43.9067 5.41 43.82 5.15C43.7333 4.89667 43.6133 4.69333 43.46 4.54C43.3133 4.38667 43.1467 4.27333 42.96 4.2C42.7733 4.13333 42.5833 4.1 42.39 4.1C42.0967 4.1 41.8233 4.15667 41.57 4.27C41.3233 4.37667 41.1033 4.51333 40.91 4.68C40.7167 4.84 40.5467 4.99667 40.4 5.15V10.51H39.15ZM50.17 10.66C49.7033 10.66 49.26 10.58 48.84 10.42C48.42 10.2533 48.0533 10.0133 47.74 9.7C47.4267 9.38 47.1833 8.98333 47.01 8.51C46.83 8.03 46.74 7.48333 46.74 6.87C46.74 6.25667 46.83 5.71 47.01 5.23C47.1833 4.75667 47.4267 4.36 47.74 4.04C48.0533 3.72667 48.42 3.48667 48.84 3.32C49.26 3.16 49.7033 3.08 50.17 3.08C50.6433 3.08 51.09 3.16 51.51 3.32C51.9233 3.48667 52.29 3.72667 52.61 4.04C52.9233 4.36 53.17 4.75667 53.35 5.23C53.5233 5.71 53.61 6.25667 53.61 6.87C53.61 7.48333 53.5233 8.03 53.35 8.51C53.17 8.98333 52.9233 9.38 52.61 9.7C52.29 10.0133 51.9233 10.2533 51.51 10.42C51.09 10.58 50.6433 10.66 50.17 10.66ZM50.17 9.71C50.5367 9.71 50.8567 9.64 51.13 9.5C51.4033 9.36 51.6267 9.16 51.8 8.9C51.9733 8.64 52.1033 8.33667 52.19 7.99C52.2833 7.64333 52.33 7.27 52.33 6.87C52.33 6.47 52.2833 6.09667 52.19 5.75C52.1033 5.40333 51.9733 5.1 51.8 4.84C51.6267 4.58 51.4033 4.38 51.13 4.24C50.8567 4.1 50.5367 4.03 50.17 4.03C49.8033 4.03 49.4867 4.1 49.22 4.24C48.9467 4.38 48.7233 4.58 48.55 4.84C48.37 5.1 48.2367 5.40333 48.15 5.75C48.07 6.09667 48.03 6.47 48.03 6.87C48.03 7.27 48.07 7.64333 48.15 7.99C48.2367 8.33667 48.37 8.64 48.55 8.9C48.7233 9.16 48.9467 9.36 49.22 9.5C49.4867 9.64 49.8033 9.71 50.17 9.71Z" fill="black"/>
</svg>
