<svg width="94" height="12" viewBox="0 0 94 12" fill="none" xmlns="http://www.w3.org/2000/svg">
<path d="M6.01222 1.8945C6.02556 1.98783 6.02222 2.10783 6.00222 2.2545C5.98222 2.40783 5.96222 2.54783 5.94222 2.6745C5.92222 2.76783 5.92889 2.87783 5.96222 3.0045C5.98889 3.13117 6.00556 3.23783 6.01222 3.3245C5.95889 3.49783 5.90222 3.7145 5.84222 3.9745C5.78889 4.22783 5.73889 4.49783 5.69222 4.7845C5.64556 5.07117 5.60222 5.3545 5.56222 5.6345C5.51556 5.9145 5.48889 6.1645 5.48222 6.3845C5.53556 6.5645 5.58889 6.7145 5.64222 6.8345C5.69556 6.9545 5.73889 7.07117 5.77222 7.1845C5.81222 7.29117 5.84222 7.4045 5.86222 7.5245C5.88222 7.6445 5.89222 7.7945 5.89222 7.9745C5.82556 8.0345 5.78556 8.0745 5.77222 8.0945C5.75889 8.10783 5.71889 8.13783 5.65222 8.1845C5.59222 8.23117 5.53889 8.23783 5.49222 8.2045C5.43889 8.17783 5.38556 8.1645 5.33222 8.1645C5.24556 8.1645 5.20222 8.1545 5.20222 8.1345C5.20222 8.12117 5.17889 8.09117 5.13222 8.0445C4.98556 7.89117 4.86222 7.73783 4.76222 7.5845C4.66222 7.43117 4.57222 7.27783 4.49222 7.1245C4.40556 6.97117 4.32889 6.8145 4.26222 6.6545C4.18889 6.4945 4.10556 6.3345 4.01222 6.1745C3.89889 5.9745 3.76222 5.7345 3.60222 5.4545C3.43556 5.18117 3.25556 4.9145 3.06222 4.6545C2.86222 4.3945 2.64889 4.16117 2.42222 3.9545C2.19556 3.74783 1.96556 3.61783 1.73222 3.5645C1.51889 4.29117 1.39556 4.99783 1.36222 5.6845C1.32889 6.37117 1.37222 7.01117 1.49222 7.6045C1.49889 7.69117 1.49889 7.74783 1.49222 7.7745C1.48556 7.80117 1.47222 7.84783 1.45222 7.9145C1.43222 7.98783 1.41222 8.07783 1.39222 8.1845C1.36556 8.29117 1.33889 8.36783 1.31222 8.4145C1.31889 8.54783 1.32222 8.67117 1.32222 8.7845C1.32222 8.89783 1.29889 8.98117 1.25222 9.0345C0.952222 8.56117 0.748889 8.0345 0.642222 7.4545C0.535556 6.88117 0.488889 6.29783 0.502222 5.7045C0.515556 5.1045 0.575556 4.51783 0.682222 3.9445C0.782222 3.37117 0.892222 2.84783 1.01222 2.3745C1.01222 2.3345 1.02556 2.3045 1.05222 2.2845C1.07222 2.2645 1.09222 2.24783 1.11222 2.2345C1.13222 2.2145 1.14889 2.19783 1.16222 2.1845C1.17556 2.17117 1.19556 2.15783 1.22222 2.1445C1.26889 2.13783 1.31222 2.12783 1.35222 2.1145C1.39222 2.10117 1.43556 2.0945 1.48222 2.0945C1.53556 2.0945 1.57222 2.1245 1.59222 2.1845C1.61222 2.25117 1.62889 2.3045 1.64222 2.3445C1.67556 2.39117 1.69889 2.48783 1.71222 2.6345C1.73222 2.7745 1.73889 2.86783 1.73222 2.9145C2.13889 2.9745 2.49889 3.12117 2.81222 3.3545C3.12556 3.5945 3.40222 3.86783 3.64222 4.1745C3.88222 4.48117 4.08889 4.79783 4.26222 5.1245C4.44222 5.4445 4.59556 5.72117 4.72222 5.9545C4.73556 5.74783 4.76222 5.4945 4.80222 5.1945C4.84222 4.90117 4.88889 4.59783 4.94222 4.2845C4.99556 3.97783 5.04556 3.68783 5.09222 3.4145C5.14556 3.14117 5.18556 2.9245 5.21222 2.7645C5.24556 2.63117 5.28889 2.5245 5.34222 2.4445C5.39556 2.35783 5.45556 2.28117 5.52222 2.2145C5.56222 2.18117 5.60222 2.13117 5.64222 2.0645C5.68222 1.99783 5.73556 1.9545 5.80222 1.9345C5.84889 1.9145 5.88556 1.9045 5.91222 1.9045C5.93222 1.9045 5.96556 1.90117 6.01222 1.8945ZM10.5822 3.7145C10.7022 4.0145 10.8156 4.33783 10.9222 4.6845C11.0289 5.0245 11.1022 5.3645 11.1422 5.7045C11.1889 6.05117 11.1889 6.38117 11.1422 6.6945C11.1022 7.0145 10.9922 7.29117 10.8122 7.5245C10.7389 7.61783 10.6522 7.6545 10.5522 7.6345C10.5122 7.62783 10.4789 7.6045 10.4522 7.5645C10.4256 7.5245 10.3889 7.49117 10.3422 7.4645C10.3022 7.43783 10.2622 7.4145 10.2222 7.3945C10.1822 7.3745 10.1422 7.33783 10.1022 7.2845C9.96222 7.33117 9.82556 7.39783 9.69222 7.4845C9.55222 7.57783 9.41222 7.67117 9.27222 7.7645C9.13222 7.85783 8.98889 7.94783 8.84222 8.0345C8.69556 8.12117 8.54222 8.1845 8.38222 8.2245C8.21556 8.27117 8.09222 8.2645 8.01222 8.2045C7.93222 8.1445 7.84556 8.0745 7.75222 7.9945C7.68556 7.94117 7.64222 7.90783 7.62222 7.8945C7.60222 7.88117 7.58556 7.82117 7.57222 7.7145C7.53889 7.5145 7.53556 7.2945 7.56222 7.0545C7.58222 6.8145 7.63556 6.5745 7.72222 6.3345C7.95556 5.62117 8.43222 5.1445 9.15222 4.9045C9.23222 4.87783 9.31889 4.87117 9.41222 4.8845C9.49889 4.89783 9.58556 4.9245 9.67222 4.9645C9.75222 4.99783 9.83222 5.0445 9.91222 5.1045C9.99222 5.15783 10.0656 5.21117 10.1322 5.2645L10.3522 5.4545C10.3989 5.2945 10.3956 5.12117 10.3422 4.9345C10.2956 4.7545 10.2189 4.5845 10.1122 4.4245C10.0122 4.25783 9.89556 4.11117 9.76222 3.9845C9.63556 3.85117 9.51222 3.76117 9.39222 3.7145C8.91222 3.7145 8.48222 3.8245 8.10222 4.0445C7.72889 4.2645 7.36556 4.55117 7.01222 4.9045C6.99222 4.9245 6.96889 4.93783 6.94222 4.9445C6.92222 4.95783 6.90222 4.96783 6.88222 4.9745C6.85556 4.9945 6.82222 4.99783 6.78222 4.9845C6.75556 4.97783 6.75222 4.95117 6.77222 4.9045C6.82556 4.6045 6.93556 4.33783 7.10222 4.1045C7.27556 3.8645 7.47222 3.6545 7.69222 3.4745C7.91889 3.30117 8.15889 3.15117 8.41222 3.0245C8.65889 2.9045 8.90556 2.81783 9.15222 2.7645C9.18556 2.7445 9.21889 2.73117 9.25222 2.7245C9.28556 2.7245 9.32555 2.7245 9.37222 2.7245C9.43889 2.7245 9.49889 2.74117 9.55222 2.7745C9.61222 2.8145 9.67889 2.85783 9.75222 2.9045C9.84556 2.95117 9.93889 3.0045 10.0322 3.0645C10.1256 3.1245 10.2089 3.19783 10.2822 3.2845C10.3489 3.35783 10.4056 3.43117 10.4522 3.5045C10.4989 3.57783 10.5422 3.64783 10.5822 3.7145ZM10.1022 6.2045C10.0489 6.0845 9.96222 5.9745 9.84222 5.8745C9.72889 5.76783 9.59556 5.68783 9.44222 5.6345C9.29556 5.58783 9.13556 5.57783 8.96222 5.6045C8.78889 5.63117 8.61222 5.7145 8.43222 5.8545C8.37889 5.9745 8.32556 6.10783 8.27222 6.2545C8.21222 6.40117 8.16889 6.5445 8.14222 6.6845C8.11556 6.83117 8.10222 6.97783 8.10222 7.1245C8.10889 7.27117 8.14222 7.4045 8.20222 7.5245C8.55556 7.4045 8.89889 7.2645 9.23222 7.1045C9.57222 6.9445 9.86222 6.8045 10.1022 6.6845C10.1556 6.6245 10.1889 6.57783 10.2022 6.5445C10.2089 6.5045 10.2056 6.47117 10.1922 6.4445C10.1789 6.41783 10.1589 6.3845 10.1322 6.3445C10.1122 6.31117 10.1022 6.2645 10.1022 6.2045ZM13.1222 5.9445C13.2822 5.7845 13.4456 5.6145 13.6122 5.4345C13.7722 5.24783 13.9422 5.07117 14.1222 4.9045C14.2956 4.73783 14.4756 4.5845 14.6622 4.4445C14.8489 4.31117 15.0456 4.2045 15.2522 4.1245C15.2989 4.1045 15.3422 4.09783 15.3822 4.1045C15.4289 4.11783 15.4756 4.1145 15.5222 4.0945C15.5956 4.0945 15.6589 4.0945 15.7122 4.0945C15.7722 4.0945 15.8256 4.11117 15.8722 4.1445C15.9989 4.23117 16.1022 4.35117 16.1822 4.5045C16.2622 4.65783 16.3322 4.82783 16.3922 5.0145C16.4256 5.12117 16.4456 5.22117 16.4522 5.3145C16.4589 5.40783 16.4856 5.5145 16.5322 5.6345C16.5856 5.80783 16.6489 5.98783 16.7222 6.1745C16.7889 6.3545 16.8122 6.52783 16.7922 6.6945C16.7856 6.74117 16.7722 6.78117 16.7522 6.8145C16.7322 6.84783 16.7089 6.88783 16.6822 6.9345C16.6622 6.9745 16.6289 7.02117 16.5822 7.0745C16.5356 7.12783 16.4889 7.17117 16.4422 7.2045C16.3956 7.23783 16.3656 7.26783 16.3522 7.2945C16.3389 7.3145 16.2956 7.33783 16.2222 7.3645C16.1022 7.19117 16.0089 7.00117 15.9422 6.7945C15.8756 6.58783 15.8189 6.3745 15.7722 6.1545C15.7256 5.92783 15.6822 5.69783 15.6422 5.4645C15.6089 5.23117 15.5622 4.9945 15.5022 4.7545C15.4889 4.68783 15.4322 4.64783 15.3322 4.6345C15.2322 4.62783 15.1189 4.65783 14.9922 4.7245C14.8656 4.79783 14.7322 4.90783 14.5922 5.0545C14.4522 5.20783 14.3289 5.40117 14.2222 5.6345C14.1422 5.80117 14.0722 5.9745 14.0122 6.1545C13.9456 6.34117 13.8722 6.5245 13.7922 6.7045C13.7122 6.8845 13.6189 7.06117 13.5122 7.2345C13.4056 7.40783 13.2756 7.5645 13.1222 7.7045C13.0756 7.75117 13.0456 7.7545 13.0322 7.7145C13.0122 7.68117 12.9656 7.65117 12.8922 7.6245C12.8322 7.6045 12.7989 7.5845 12.7922 7.5645C12.7922 7.5445 12.7789 7.48783 12.7522 7.3945C12.6922 7.20117 12.6322 6.97783 12.5722 6.7245C12.5122 6.47117 12.4456 6.2045 12.3722 5.9245C12.3056 5.6445 12.2356 5.3645 12.1622 5.0845C12.0889 4.79783 12.0122 4.52783 11.9322 4.2745L11.8522 4.0245C11.8722 3.9845 11.9056 3.95117 11.9522 3.9245C12.0056 3.89783 12.0622 3.8745 12.1222 3.8545C12.1756 3.8345 12.2356 3.83783 12.3022 3.8645C12.3689 3.89783 12.4189 3.9145 12.4522 3.9145C12.5589 3.9145 12.6489 3.97783 12.7222 4.1045C12.8022 4.23783 12.8722 4.4045 12.9322 4.6045C12.9856 4.8045 13.0289 5.0245 13.0622 5.2645C13.0956 5.49783 13.1156 5.7245 13.1222 5.9445ZM21.3622 4.0745C21.3622 4.72783 21.3689 5.3345 21.3822 5.8945C21.3956 6.4545 21.4489 7.00783 21.5422 7.5545C21.5489 7.60783 21.5356 7.66783 21.5022 7.7345C21.4622 7.80117 21.4222 7.85783 21.3822 7.9045C21.3289 7.9645 21.2789 8.02783 21.2322 8.0945C21.1856 8.1545 21.1389 8.19117 21.0922 8.2045C20.9989 8.25117 20.9422 8.26117 20.9222 8.2345C20.9022 8.20783 20.8889 8.17117 20.8822 8.1245C20.8422 7.9445 20.7922 7.7045 20.7322 7.4045C20.6722 7.09783 20.6322 6.79117 20.6122 6.4845C20.5056 6.67117 20.3822 6.86117 20.2422 7.0545C20.1089 7.24783 19.9656 7.42117 19.8122 7.5745C19.6589 7.7345 19.5022 7.87783 19.3422 8.0045C19.1822 8.13117 19.0289 8.22117 18.8822 8.2745C18.8156 8.30783 18.7689 8.3145 18.7422 8.2945C18.7222 8.2745 18.6856 8.2545 18.6322 8.2345C18.5456 8.20117 18.4622 8.16783 18.3822 8.1345C18.3022 8.10117 18.2389 8.05117 18.1922 7.9845C18.0922 7.8045 18.0089 7.63117 17.9422 7.4645C17.8422 7.19783 17.7789 6.9145 17.7522 6.6145C17.7322 6.3145 17.7289 6.0145 17.7422 5.7145C17.7622 5.4145 17.7956 5.1245 17.8422 4.8445C17.8889 4.5645 17.9356 4.30783 17.9822 4.0745C17.9956 4.02783 18.0189 3.99783 18.0522 3.9845C18.0922 3.97117 18.1156 3.94117 18.1222 3.8945C18.1422 3.82117 18.1789 3.77117 18.2322 3.7445C18.2789 3.71783 18.3322 3.6945 18.3922 3.6745C18.4656 3.6545 18.5222 3.63783 18.5622 3.6245C18.6089 3.61117 18.6689 3.6045 18.7422 3.6045C18.6556 3.87117 18.5889 4.17783 18.5422 4.5245C18.4956 4.87117 18.4756 5.2245 18.4822 5.5845C18.4889 5.9445 18.5222 6.29117 18.5822 6.6245C18.6422 6.9645 18.7322 7.25783 18.8522 7.5045C19.0322 7.3845 19.2056 7.23783 19.3722 7.0645C19.5456 6.8845 19.7089 6.69783 19.8622 6.5045C20.0089 6.31783 20.1422 6.1345 20.2622 5.9545C20.3756 5.7745 20.4622 5.6245 20.5222 5.5045C20.5756 5.31783 20.6089 5.1045 20.6222 4.8645C20.6356 4.63117 20.6422 4.42117 20.6422 4.2345C20.6356 4.14783 20.6422 4.08117 20.6622 4.0345C20.6889 3.98783 20.7156 3.93783 20.7422 3.8845C20.7622 3.85783 20.7722 3.82783 20.7722 3.7945C20.7789 3.76783 20.7956 3.7445 20.8222 3.7245C20.8422 3.71117 20.8656 3.68783 20.8922 3.6545C20.9122 3.62117 20.9356 3.6045 20.9622 3.6045C21.0222 3.6045 21.0622 3.63117 21.0822 3.6845C21.0956 3.7445 21.1222 3.78783 21.1622 3.8145C21.2089 3.86117 21.2522 3.8945 21.2922 3.9145C21.3389 3.94117 21.3622 3.9945 21.3622 4.0745ZM22.9222 3.5645C22.9822 3.8045 23.0056 4.0545 22.9922 4.3145C22.9856 4.5745 22.9756 4.83783 22.9622 5.1045C22.9489 5.37117 22.9489 5.63783 22.9622 5.9045C22.9756 6.17117 23.0422 6.42117 23.1622 6.6545C23.3756 6.12117 23.6689 5.63783 24.0422 5.2045C24.4156 4.77117 24.8122 4.38117 25.2322 4.0345C25.2922 3.98783 25.3522 3.95783 25.4122 3.9445C25.4722 3.93117 25.5289 3.9145 25.5822 3.8945C25.6289 3.8745 25.6756 3.85783 25.7222 3.8445C25.7622 3.83117 25.8189 3.8445 25.8922 3.8845C26.0789 3.9845 26.1856 4.18117 26.2122 4.4745C26.2456 4.76117 26.2622 5.17117 26.2622 5.7045C26.4022 5.5645 26.5422 5.40783 26.6822 5.2345C26.8289 5.06117 26.9756 4.8945 27.1222 4.7345C27.2756 4.5745 27.4322 4.4345 27.5922 4.3145C27.7456 4.1945 27.9122 4.10783 28.0922 4.0545C28.1456 4.0345 28.2056 4.03117 28.2722 4.0445C28.3322 4.05783 28.3889 4.0645 28.4422 4.0645C28.4822 4.0645 28.5156 4.05783 28.5422 4.0445C28.5689 4.03117 28.6022 4.02783 28.6422 4.0345C28.6956 4.04783 28.7422 4.07783 28.7822 4.1245C28.8289 4.17117 28.8589 4.22117 28.8722 4.2745C28.9122 4.4145 28.9656 4.60783 29.0322 4.8545C29.0989 5.10117 29.1556 5.3545 29.2022 5.6145C29.2556 5.86783 29.2956 6.10783 29.3222 6.3345C29.3489 6.5545 29.3489 6.71117 29.3222 6.8045C29.3022 6.89117 29.2822 6.94783 29.2622 6.9745C29.2356 7.00117 29.1856 7.0545 29.1122 7.1345C29.0922 7.1345 29.0722 7.14783 29.0522 7.1745C29.0256 7.20117 28.9989 7.22783 28.9722 7.2545C28.9389 7.2945 28.9056 7.33117 28.8722 7.3645C28.7522 7.19117 28.6589 7.00117 28.5922 6.7945C28.5322 6.58783 28.4789 6.3745 28.4322 6.1545C28.3856 5.92783 28.3422 5.69783 28.3022 5.4645C28.2622 5.23117 28.2156 4.9945 28.1622 4.7545C27.8889 4.8945 27.6756 5.0545 27.5222 5.2345C27.3689 5.4145 27.2456 5.6045 27.1522 5.8045C27.0589 6.0045 26.9756 6.20783 26.9022 6.4145C26.8289 6.62117 26.7356 6.81783 26.6222 7.0045C26.5222 7.1645 26.4189 7.29117 26.3122 7.3845C26.2122 7.47783 26.1289 7.51783 26.0622 7.5045C26.0089 7.49783 25.9656 7.44783 25.9322 7.3545C25.9056 7.26117 25.8689 7.12117 25.8222 6.9345C25.7289 6.5545 25.6422 6.1445 25.5622 5.7045C25.4822 5.2645 25.3956 4.86783 25.3022 4.5145C25.1289 4.56783 24.9556 4.66783 24.7822 4.8145C24.6089 4.96117 24.4489 5.12783 24.3022 5.3145C24.1489 5.50783 24.0156 5.72117 23.9022 5.9545C23.7822 6.18783 23.6956 6.42117 23.6422 6.6545C23.7622 6.8945 23.7656 7.0945 23.6522 7.2545C23.6056 7.32783 23.5422 7.39117 23.4622 7.4445C23.3756 7.49783 23.2756 7.55117 23.1622 7.6045C23.0956 7.67117 23.0256 7.6945 22.9522 7.6745C22.8789 7.6545 22.8189 7.61117 22.7722 7.5445C22.7256 7.47117 22.6989 7.41117 22.6922 7.3645C22.6322 7.07117 22.5756 6.76117 22.5222 6.4345C22.4622 6.1145 22.4256 5.79117 22.4122 5.4645C22.3989 5.13783 22.4122 4.8145 22.4522 4.4945C22.4856 4.16783 22.5656 3.85783 22.6922 3.5645C22.7056 3.5045 22.7222 3.4745 22.7422 3.4745C22.7622 3.4745 22.7822 3.48117 22.8022 3.4945C22.8222 3.50783 22.8389 3.52117 22.8522 3.5345C22.8722 3.54117 22.8856 3.5445 22.8922 3.5445C22.8989 3.5445 22.9089 3.55117 22.9222 3.5645ZM38.1422 2.3245C38.1622 2.45783 38.1556 2.55117 38.1222 2.6045C38.0889 2.6645 38.0622 2.7545 38.0422 2.8745C37.9956 3.1745 37.9189 3.45117 37.8122 3.7045C37.6989 3.9645 37.5589 4.22117 37.3922 4.4745C37.5789 4.4745 37.7856 4.47783 38.0122 4.4845C38.2389 4.49117 38.4589 4.5245 38.6722 4.5845C38.7389 4.6045 38.7989 4.63783 38.8522 4.6845C38.9056 4.73117 38.9556 4.77117 39.0022 4.8045C39.0756 4.85117 39.1389 4.8945 39.1922 4.9345C39.2522 4.96783 39.2989 5.01783 39.3322 5.0845C39.4256 5.2645 39.4656 5.44117 39.4522 5.6145C39.4389 5.78783 39.3856 5.96117 39.2922 6.1345C39.0522 6.6145 38.7122 7.10117 38.2722 7.5945C37.8389 8.08783 37.3856 8.5545 36.9122 8.9945C36.8256 9.04783 36.7522 9.07783 36.6922 9.0845C36.6256 9.09117 36.5622 9.10117 36.5022 9.1145C36.4222 9.1545 36.3422 9.1845 36.2622 9.2045C36.1822 9.2245 36.1289 9.2245 36.1022 9.2045C36.0622 9.17783 36.0622 9.14783 36.1022 9.1145C36.1356 9.08117 36.1689 9.04117 36.2022 8.9945C36.3756 8.6945 36.5956 8.40117 36.8622 8.1145C37.1289 7.8345 37.4022 7.54783 37.6822 7.2545C37.9622 6.96783 38.2356 6.68117 38.5022 6.3945C38.7689 6.10783 38.9889 5.81783 39.1622 5.5245C38.9889 5.43117 38.7489 5.3645 38.4422 5.3245C38.1422 5.2845 37.8289 5.2645 37.5022 5.2645C37.1756 5.2645 36.8656 5.28783 36.5722 5.3345C36.2856 5.38117 36.0722 5.4445 35.9322 5.5245C35.9322 5.5845 35.9322 5.66783 35.9322 5.7745C35.9322 5.88783 35.9289 6.0045 35.9222 6.1245C35.9089 6.2445 35.9022 6.36783 35.9022 6.4945C35.8956 6.62117 35.8856 6.74117 35.8722 6.8545C35.8456 6.98117 35.8456 7.09783 35.8722 7.2045C35.9056 7.3045 35.9289 7.4045 35.9422 7.5045C35.9622 7.63117 35.9722 7.74117 35.9722 7.8345C35.9722 7.92783 35.9722 8.0245 35.9722 8.1245C35.9722 8.17783 35.9789 8.24117 35.9922 8.3145C35.9989 8.38117 35.9889 8.44783 35.9622 8.5145C35.7156 8.2345 35.5222 7.9045 35.3822 7.5245C35.2422 7.13783 35.1356 6.73117 35.0622 6.3045C34.9889 5.87783 34.9422 5.43783 34.9222 4.9845C34.9022 4.53783 34.8989 4.10783 34.9122 3.6945C34.9189 3.28117 34.9356 2.90117 34.9622 2.5545C34.9822 2.20783 35.0022 1.91783 35.0222 1.6845C34.9222 1.67783 34.7956 1.6845 34.6422 1.7045C34.4956 1.73117 34.3556 1.75783 34.2222 1.7845C34.1956 1.7845 34.1589 1.7845 34.1122 1.7845C34.0656 1.7845 34.0156 1.78117 33.9622 1.7745C33.9156 1.76783 33.8722 1.76117 33.8322 1.7545C33.7922 1.74783 33.7689 1.73783 33.7622 1.7245C33.7356 1.69783 33.7089 1.6945 33.6822 1.7145C33.6622 1.74117 33.6422 1.7345 33.6222 1.6945C33.5822 1.62117 33.5789 1.5545 33.6122 1.4945C33.6389 1.4345 33.6289 1.36783 33.5822 1.2945C33.6622 1.14117 33.8122 1.04117 34.0322 0.9945C34.2522 0.947833 34.4989 0.917833 34.7722 0.9045C34.9922 0.857833 35.2256 0.827833 35.4722 0.8145C35.7256 0.807833 35.9756 0.821167 36.2222 0.8545C36.4689 0.887833 36.7022 0.9445 36.9222 1.0245C37.1489 1.11117 37.3556 1.2245 37.5422 1.3645C37.6556 1.4445 37.7622 1.55117 37.8622 1.6845C37.9089 1.75117 37.9589 1.85783 38.0122 2.0045C38.0656 2.1445 38.1089 2.25117 38.1422 2.3245ZM37.4822 2.3245C37.4289 2.2045 37.3389 2.10117 37.2122 2.0145C37.0856 1.92783 36.9489 1.8545 36.8022 1.7945C36.6622 1.74117 36.5156 1.70117 36.3622 1.6745C36.2089 1.64117 36.0689 1.6245 35.9422 1.6245C35.9289 1.73783 35.9089 1.91783 35.8822 2.1645C35.8622 2.41117 35.8456 2.67783 35.8322 2.9645C35.8122 3.25117 35.7989 3.53117 35.7922 3.8045C35.7856 4.07783 35.7889 4.3045 35.8022 4.4845C35.9822 4.41117 36.1622 4.3145 36.3422 4.1945C36.5156 4.06783 36.6789 3.91783 36.8322 3.7445C36.9789 3.5645 37.1089 3.35783 37.2222 3.1245C37.3422 2.89117 37.4289 2.6245 37.4822 2.3245ZM44.9022 3.3245C44.9022 3.4045 44.9189 3.50783 44.9522 3.6345C44.9789 3.76117 44.9689 3.86117 44.9222 3.9345C44.9022 3.9545 44.8922 3.99117 44.8922 4.0445C44.8922 4.09783 44.8789 4.13117 44.8522 4.1445L44.6722 4.0345C44.5189 3.96117 44.3522 3.92783 44.1722 3.9345C43.9922 3.94783 43.8089 3.99117 43.6222 4.0645C43.4889 4.11783 43.3589 4.1945 43.2322 4.2945C43.1056 4.3945 42.9856 4.5045 42.8722 4.6245C42.7656 4.7445 42.6656 4.87117 42.5722 5.0045C42.4789 5.13117 42.3989 5.25783 42.3322 5.3845C42.1789 5.65117 42.1056 5.97783 42.1122 6.3645C42.1189 6.7445 42.2556 7.23783 42.5222 7.8445C42.5222 7.91117 42.4756 7.99117 42.3822 8.0845C42.3689 8.1045 42.3456 8.13117 42.3122 8.1645C42.2856 8.2045 42.2622 8.2345 42.2422 8.2545C42.1689 8.3145 42.1256 8.36783 42.1122 8.4145C42.0989 8.46117 42.0689 8.4945 42.0222 8.5145C41.9489 8.54117 41.8789 8.47783 41.8122 8.3245C41.6522 8.0445 41.4989 7.70117 41.3522 7.2945C41.2122 6.88783 41.0789 6.46783 40.9522 6.0345C40.8256 5.60783 40.7122 5.1945 40.6122 4.7945C40.5189 4.40117 40.4422 4.06783 40.3822 3.7945C40.3556 3.72117 40.3522 3.65117 40.3722 3.5845C40.3922 3.51117 40.4189 3.45117 40.4522 3.4045C40.4789 3.37117 40.5156 3.36117 40.5622 3.3745C40.6022 3.3945 40.6356 3.4045 40.6622 3.4045C40.7822 3.4045 40.8589 3.42783 40.8922 3.4745C40.9189 3.52117 40.9656 3.58117 41.0322 3.6545C41.1589 3.80783 41.2589 4.01117 41.3322 4.2645C41.4122 4.51117 41.5056 4.80783 41.6122 5.1545C41.7656 4.90117 41.9589 4.65783 42.1922 4.4245C42.4322 4.19117 42.6922 3.98117 42.9722 3.7945C43.2522 3.60117 43.5422 3.4445 43.8422 3.3245C44.1422 3.2045 44.4322 3.12783 44.7122 3.0945C44.7656 3.08783 44.8122 3.1045 44.8522 3.1445C44.8989 3.19117 44.9156 3.25117 44.9022 3.3245ZM49.2222 4.0745C49.2222 4.72783 49.2289 5.3345 49.2422 5.8945C49.2556 6.4545 49.3089 7.00783 49.4022 7.5545C49.4089 7.60783 49.3956 7.66783 49.3622 7.7345C49.3222 7.80117 49.2822 7.85783 49.2422 7.9045C49.1889 7.9645 49.1389 8.02783 49.0922 8.0945C49.0456 8.1545 48.9989 8.19117 48.9522 8.2045C48.8589 8.25117 48.8022 8.26117 48.7822 8.2345C48.7622 8.20783 48.7489 8.17117 48.7422 8.1245C48.7022 7.9445 48.6522 7.7045 48.5922 7.4045C48.5322 7.09783 48.4922 6.79117 48.4722 6.4845C48.3656 6.67117 48.2422 6.86117 48.1022 7.0545C47.9689 7.24783 47.8256 7.42117 47.6722 7.5745C47.5189 7.7345 47.3622 7.87783 47.2022 8.0045C47.0422 8.13117 46.8889 8.22117 46.7422 8.2745C46.6756 8.30783 46.6289 8.3145 46.6022 8.2945C46.5822 8.2745 46.5456 8.2545 46.4922 8.2345C46.4056 8.20117 46.3222 8.16783 46.2422 8.1345C46.1622 8.10117 46.0989 8.05117 46.0522 7.9845C45.9522 7.8045 45.8689 7.63117 45.8022 7.4645C45.7022 7.19783 45.6389 6.9145 45.6122 6.6145C45.5922 6.3145 45.5889 6.0145 45.6022 5.7145C45.6222 5.4145 45.6556 5.1245 45.7022 4.8445C45.7489 4.5645 45.7956 4.30783 45.8422 4.0745C45.8556 4.02783 45.8789 3.99783 45.9122 3.9845C45.9522 3.97117 45.9756 3.94117 45.9822 3.8945C46.0022 3.82117 46.0389 3.77117 46.0922 3.7445C46.1389 3.71783 46.1922 3.6945 46.2522 3.6745C46.3256 3.6545 46.3822 3.63783 46.4222 3.6245C46.4689 3.61117 46.5289 3.6045 46.6022 3.6045C46.5156 3.87117 46.4489 4.17783 46.4022 4.5245C46.3556 4.87117 46.3356 5.2245 46.3422 5.5845C46.3489 5.9445 46.3822 6.29117 46.4422 6.6245C46.5022 6.9645 46.5922 7.25783 46.7122 7.5045C46.8922 7.3845 47.0656 7.23783 47.2322 7.0645C47.4056 6.8845 47.5689 6.69783 47.7222 6.5045C47.8689 6.31783 48.0022 6.1345 48.1222 5.9545C48.2356 5.7745 48.3222 5.6245 48.3822 5.5045C48.4356 5.31783 48.4689 5.1045 48.4822 4.8645C48.4956 4.63117 48.5022 4.42117 48.5022 4.2345C48.4956 4.14783 48.5022 4.08117 48.5222 4.0345C48.5489 3.98783 48.5756 3.93783 48.6022 3.8845C48.6222 3.85783 48.6322 3.82783 48.6322 3.7945C48.6389 3.76783 48.6556 3.7445 48.6822 3.7245C48.7022 3.71117 48.7256 3.68783 48.7522 3.6545C48.7722 3.62117 48.7956 3.6045 48.8222 3.6045C48.8822 3.6045 48.9222 3.63117 48.9422 3.6845C48.9556 3.7445 48.9822 3.78783 49.0222 3.8145C49.0689 3.86117 49.1122 3.8945 49.1522 3.9145C49.1989 3.94117 49.2222 3.9945 49.2222 4.0745ZM53.7922 4.0545C53.7456 4.1945 53.7089 4.30117 53.6822 4.3745C53.6556 4.44783 53.6156 4.45783 53.5622 4.4045C53.4289 4.27117 53.2689 4.13117 53.0822 3.9845C52.8956 3.83117 52.6656 3.73783 52.3922 3.7045C52.2189 3.6845 52.0322 3.7045 51.8322 3.7645C51.6322 3.8245 51.4789 3.95117 51.3722 4.1445C51.2789 4.31783 51.2656 4.52117 51.3322 4.7545C51.3856 4.9945 51.5089 5.16783 51.7022 5.2745C51.8956 5.38117 52.1089 5.4645 52.3422 5.5245C52.5822 5.5845 52.8256 5.63783 53.0722 5.6845C53.3189 5.73117 53.5322 5.81783 53.7122 5.9445C53.7656 5.97117 53.8089 6.0145 53.8422 6.0745C53.8756 6.1345 53.9122 6.18783 53.9522 6.2345C53.9989 6.28783 54.0422 6.3345 54.0822 6.3745C54.1222 6.4145 54.1622 6.47117 54.2022 6.5445C54.2289 6.59783 54.2622 6.6645 54.3022 6.7445C54.3356 6.8245 54.3456 6.91117 54.3322 7.0045C54.2989 7.1245 54.1822 7.2545 53.9822 7.3945C53.5289 7.68783 53.0556 7.92117 52.5622 8.0945C52.0689 8.26117 51.5456 8.29117 50.9922 8.1845C50.9322 8.1645 50.8589 8.10117 50.7722 7.9945C50.6856 7.88783 50.6156 7.8145 50.5622 7.7745C50.4156 7.68783 50.3122 7.58117 50.2522 7.4545C50.1789 7.20783 50.1422 6.94117 50.1422 6.6545C50.1422 6.56117 50.1589 6.51783 50.1922 6.5245C50.2256 6.5245 50.2556 6.5245 50.2822 6.5245C50.3356 6.5245 50.3989 6.5645 50.4722 6.6445C50.5389 6.71783 50.6122 6.8045 50.6922 6.9045C50.7722 6.99783 50.8489 7.0845 50.9222 7.1645C50.9889 7.2445 51.0456 7.2845 51.0922 7.2845C51.2522 7.35783 51.4456 7.40117 51.6722 7.4145C51.8922 7.42117 52.1156 7.39783 52.3422 7.3445C52.5756 7.29783 52.7922 7.2145 52.9922 7.0945C53.1922 6.98117 53.3522 6.8345 53.4722 6.6545C53.4722 6.60783 53.4189 6.55117 53.3122 6.4845C53.2056 6.41783 53.0689 6.3445 52.9022 6.2645C52.7356 6.19117 52.5489 6.11117 52.3422 6.0245C52.1422 5.93783 51.9522 5.84783 51.7722 5.7545C51.5922 5.66117 51.4322 5.5645 51.2922 5.4645C51.1589 5.3645 51.0689 5.26117 51.0222 5.1545C50.9956 5.08117 50.9622 5.0045 50.9222 4.9245C50.8889 4.8445 50.8656 4.78783 50.8522 4.7545C50.8056 4.54783 50.7989 4.34783 50.8322 4.1545C50.8589 3.96117 50.9122 3.79117 50.9922 3.6445C51.0789 3.49783 51.1922 3.3745 51.3322 3.2745C51.4722 3.1745 51.6322 3.11117 51.8122 3.0845C52.0922 3.0445 52.3922 3.04117 52.7122 3.0745C53.0322 3.10783 53.3189 3.21783 53.5722 3.4045C53.6456 3.47117 53.6989 3.53117 53.7322 3.5845C53.7656 3.6445 53.7922 3.71117 53.8122 3.7845C53.8189 3.83117 53.8289 3.8745 53.8422 3.9145C53.8489 3.96117 53.8322 4.00783 53.7922 4.0545ZM56.3022 5.1445C56.5156 4.8245 56.7722 4.57117 57.0722 4.3845C57.3722 4.19117 57.7189 4.10783 58.1122 4.1345C58.1656 4.14117 58.2256 4.16117 58.2922 4.1945C58.3589 4.22783 58.4189 4.25783 58.4722 4.2845C58.6122 4.3645 58.7422 4.4745 58.8622 4.6145C58.9822 4.76117 59.0922 4.9245 59.1922 5.1045C59.2922 5.29117 59.3756 5.48117 59.4422 5.6745C59.5022 5.86783 59.5489 6.05117 59.5822 6.2245C59.5956 6.3245 59.6089 6.4545 59.6222 6.6145C59.6289 6.7745 59.6322 6.91783 59.6322 7.0445C59.6122 7.0445 59.6022 7.05117 59.6022 7.0645C59.6022 7.07117 59.5956 7.07117 59.5822 7.0645C59.5022 7.0245 59.4389 6.97117 59.3922 6.9045C59.3789 6.8845 59.3522 6.8645 59.3122 6.8445C59.2722 6.81783 59.2489 6.78783 59.2422 6.7545C59.2222 6.66117 59.2022 6.53783 59.1822 6.3845C59.1556 6.23117 59.1156 6.0645 59.0622 5.8845C59.0022 5.7045 58.9322 5.52783 58.8522 5.3545C58.7656 5.18783 58.6622 5.03783 58.5422 4.9045C58.4956 4.85783 58.4556 4.82117 58.4222 4.7945C58.3889 4.7745 58.3489 4.75117 58.3022 4.7245C58.2556 4.6845 58.1856 4.65783 58.0922 4.6445C57.9989 4.63117 57.9189 4.6345 57.8522 4.6545C57.6989 4.70117 57.5322 4.78783 57.3522 4.9145C57.1722 5.04783 57.0189 5.21117 56.8922 5.4045C56.7589 5.59117 56.6656 5.81117 56.6122 6.0645C56.5522 6.31783 56.5756 6.58783 56.6822 6.8745C56.7089 6.96117 56.7256 7.03117 56.7322 7.0845C56.7456 7.13117 56.7489 7.17783 56.7422 7.2245C56.7356 7.27117 56.7189 7.3245 56.6922 7.3845C56.6656 7.43783 56.6289 7.51117 56.5822 7.6045C56.5089 7.71783 56.4222 7.79783 56.3222 7.8445C56.2222 7.89117 56.1356 7.94117 56.0622 7.9945C55.7956 7.22117 55.5889 6.44783 55.4422 5.6745C55.2956 4.90117 55.2056 4.16783 55.1722 3.4745C55.1389 2.78783 55.1622 2.15783 55.2422 1.5845C55.3156 1.0045 55.4322 0.5245 55.5922 0.1445C55.6189 0.0311665 55.6789 -0.0155 55.7722 0.00450001C55.8189 0.0111667 55.8556 0.0311666 55.8822 0.0645C55.9089 0.0911666 55.9456 0.127833 55.9922 0.1745C56.0322 0.221166 56.0656 0.261167 56.0922 0.2945C56.1189 0.327833 56.1389 0.371166 56.1522 0.4245C56.1589 0.471166 56.1822 0.4945 56.2222 0.4945C56.2556 0.4945 56.2689 0.517833 56.2622 0.5645C56.1756 1.07783 56.1189 1.5545 56.0922 1.9945C56.0656 2.4345 56.0589 2.84117 56.0722 3.2145C56.0856 3.58783 56.1156 3.93117 56.1622 4.2445C56.2089 4.5645 56.2556 4.8645 56.3022 5.1445ZM69.0122 2.3445C68.9922 2.37783 68.9922 2.4045 69.0122 2.4245C69.0322 2.4445 69.0322 2.4645 69.0122 2.4845C68.9856 2.5045 68.9356 2.5145 68.8622 2.5145C68.7956 2.52117 68.7389 2.52783 68.6922 2.5345C68.6256 2.5545 68.5589 2.5645 68.4922 2.5645C68.4322 2.55783 68.3622 2.53117 68.2822 2.4845C68.1756 2.4245 68.0389 2.37117 67.8722 2.3245C67.7122 2.27117 67.5389 2.2445 67.3522 2.2445C67.1056 2.2445 66.8489 2.27117 66.5822 2.3245C66.3089 2.37117 66.0489 2.44117 65.8022 2.5345C65.5556 2.62117 65.3356 2.73117 65.1422 2.8645C64.9489 2.99117 64.8122 3.1345 64.7322 3.2945C64.6722 3.4145 64.6489 3.5445 64.6622 3.6845C64.6689 3.81783 64.7022 3.9445 64.7622 4.0645C64.8156 4.1845 64.8822 4.2945 64.9622 4.3945C65.0422 4.4945 65.1189 4.56117 65.1922 4.5945C65.4256 4.7145 65.6856 4.7945 65.9722 4.8345C66.2522 4.8745 66.5456 4.89783 66.8522 4.9045C67.1522 4.91117 67.4522 4.9245 67.7522 4.9445C68.0522 4.9645 68.3289 5.01117 68.5822 5.0845C68.7089 5.13117 68.8322 5.16783 68.9522 5.1945C69.0656 5.22783 69.1689 5.26783 69.2622 5.3145C69.3556 5.36783 69.4422 5.43783 69.5222 5.5245C69.6022 5.61783 69.6722 5.74783 69.7322 5.9145C69.8122 6.26783 69.7922 6.61117 69.6722 6.9445C69.5522 7.29117 69.3522 7.59783 69.0722 7.8645C68.7922 8.13117 68.4756 8.3445 68.1222 8.5045C67.8422 8.6245 67.5522 8.7045 67.2522 8.7445C66.9589 8.79117 66.6756 8.7845 66.4022 8.7245C66.1289 8.67117 65.8756 8.5645 65.6422 8.4045C65.4156 8.2445 65.2322 8.0245 65.0922 7.7445C65.0122 7.57117 64.9722 7.35783 64.9722 7.1045C64.9589 7.07783 64.9589 7.04783 64.9722 7.0145C64.9856 6.9545 65.0456 6.9245 65.1522 6.9245C65.1856 6.9045 65.2322 6.9145 65.2922 6.9545C65.3589 6.9945 65.4056 7.02117 65.4322 7.0345C65.5056 7.04117 65.5756 7.09117 65.6422 7.1845C65.7156 7.27117 65.7856 7.34117 65.8522 7.3945C66.0856 7.64117 66.3489 7.78783 66.6422 7.8345C66.9356 7.88783 67.2189 7.88783 67.4922 7.8345C67.7722 7.78783 68.0289 7.70783 68.2622 7.5945C68.4956 7.48117 68.6656 7.37783 68.7722 7.2845C68.8389 7.23117 68.9122 7.1645 68.9922 7.0845C69.0722 7.0045 69.1489 6.9145 69.2222 6.8145C69.2956 6.7145 69.3589 6.61117 69.4122 6.5045C69.4656 6.39117 69.4922 6.2745 69.4922 6.1545C69.4656 6.04117 69.3889 5.9545 69.2622 5.8945C69.1422 5.8345 68.9889 5.7845 68.8022 5.7445C68.4756 5.69117 68.1556 5.66117 67.8422 5.6545C67.5222 5.64783 67.2089 5.65117 66.9022 5.6645C66.5956 5.67117 66.2922 5.6745 65.9922 5.6745C65.6922 5.6745 65.4022 5.64117 65.1222 5.5745C65.0356 5.5545 64.9522 5.5245 64.8722 5.4845C64.7989 5.4445 64.7222 5.40117 64.6422 5.3545C64.5689 5.30783 64.5156 5.24783 64.4822 5.1745C64.4422 5.0945 64.3989 5.0145 64.3522 4.9345C64.3056 4.84783 64.2622 4.76117 64.2222 4.6745C64.1756 4.58783 64.1456 4.49117 64.1322 4.3845C64.0856 4.0845 64.0856 3.77783 64.1322 3.4645C64.1856 3.1445 64.3056 2.85117 64.4922 2.5845C64.6389 2.35783 64.8422 2.1645 65.1022 2.0045C65.3556 1.83783 65.6456 1.71117 65.9722 1.6245C66.2922 1.53117 66.6356 1.48783 67.0022 1.4945C67.3622 1.50117 67.7356 1.56117 68.1222 1.6745C68.1689 1.68783 68.2222 1.71117 68.2822 1.7445C68.3489 1.77783 68.4056 1.8045 68.4522 1.8245C68.5856 1.89117 68.7022 1.97117 68.8022 2.0645C68.9089 2.15783 68.9789 2.25117 69.0122 2.3445ZM73.7722 4.4245C73.7989 4.47117 73.8122 4.51783 73.8122 4.5645C73.8056 4.6045 73.7989 4.63783 73.7922 4.6645C73.7122 4.75117 73.6489 4.80783 73.6022 4.8345C73.5556 4.86117 73.4789 4.9045 73.3722 4.9645C73.3389 4.97783 73.3122 4.9945 73.2922 5.0145C73.2656 5.0345 73.2389 5.0445 73.2122 5.0445C73.1656 5.0445 73.0922 5.00783 72.9922 4.9345C72.8989 4.86117 72.7956 4.7845 72.6822 4.7045C72.5689 4.63117 72.4489 4.57783 72.3222 4.5445C72.1956 4.5045 72.0822 4.51783 71.9822 4.5845C71.8822 4.7245 71.7856 4.9045 71.6922 5.1245C71.5989 5.3445 71.5256 5.5745 71.4722 5.8145C71.4189 6.0545 71.4022 6.30117 71.4222 6.5545C71.4422 6.80783 71.5156 7.04117 71.6422 7.2545C72.1889 7.3145 72.6722 7.2245 73.0922 6.9845C73.5122 6.7445 73.8989 6.44783 74.2522 6.0945C74.2522 6.16117 74.2356 6.21783 74.2022 6.2645C74.1689 6.31783 74.1389 6.3745 74.1122 6.4345C74.0722 6.5145 74.0322 6.5945 73.9922 6.6745C73.9522 6.7545 73.8922 6.83117 73.8122 6.9045C73.6856 7.0445 73.5389 7.18117 73.3722 7.3145C73.2122 7.44117 73.0389 7.5545 72.8522 7.6545C72.6722 7.7545 72.4856 7.82783 72.2922 7.8745C72.1056 7.92783 71.9189 7.9445 71.7322 7.9245C71.6256 7.91783 71.5522 7.8945 71.5122 7.8545C71.4722 7.80783 71.3989 7.76117 71.2922 7.7145C71.2389 7.68117 71.1689 7.65117 71.0822 7.6245C70.9889 7.59117 70.9189 7.55117 70.8722 7.5045C70.7789 7.39783 70.7089 7.2645 70.6622 7.1045C70.6022 6.89783 70.5722 6.6745 70.5722 6.4345C70.5722 6.18783 70.5856 5.95117 70.6122 5.7245C70.6456 5.49783 70.6922 5.29117 70.7522 5.1045C70.8189 4.91783 70.8756 4.77117 70.9222 4.6645C70.9756 4.5445 71.0589 4.44117 71.1722 4.3545C71.2856 4.26117 71.4089 4.17783 71.5422 4.1045C71.6756 4.03117 71.8122 3.96117 71.9522 3.8945C72.0922 3.82783 72.2222 3.76783 72.3422 3.7145C72.8222 3.7145 73.2989 3.95117 73.7722 4.4245ZM79.3422 3.3245C79.3422 3.4045 79.3589 3.50783 79.3922 3.6345C79.4189 3.76117 79.4089 3.86117 79.3622 3.9345C79.3422 3.9545 79.3322 3.99117 79.3322 4.0445C79.3322 4.09783 79.3189 4.13117 79.2922 4.1445L79.1122 4.0345C78.9589 3.96117 78.7922 3.92783 78.6122 3.9345C78.4322 3.94783 78.2489 3.99117 78.0622 4.0645C77.9289 4.11783 77.7989 4.1945 77.6722 4.2945C77.5456 4.3945 77.4256 4.5045 77.3122 4.6245C77.2056 4.7445 77.1056 4.87117 77.0122 5.0045C76.9189 5.13117 76.8389 5.25783 76.7722 5.3845C76.6189 5.65117 76.5456 5.97783 76.5522 6.3645C76.5589 6.7445 76.6956 7.23783 76.9622 7.8445C76.9622 7.91117 76.9156 7.99117 76.8222 8.0845C76.8089 8.1045 76.7856 8.13117 76.7522 8.1645C76.7256 8.2045 76.7022 8.2345 76.6822 8.2545C76.6089 8.3145 76.5656 8.36783 76.5522 8.4145C76.5389 8.46117 76.5089 8.4945 76.4622 8.5145C76.3889 8.54117 76.3189 8.47783 76.2522 8.3245C76.0922 8.0445 75.9389 7.70117 75.7922 7.2945C75.6522 6.88783 75.5189 6.46783 75.3922 6.0345C75.2656 5.60783 75.1522 5.1945 75.0522 4.7945C74.9589 4.40117 74.8822 4.06783 74.8222 3.7945C74.7956 3.72117 74.7922 3.65117 74.8122 3.5845C74.8322 3.51117 74.8589 3.45117 74.8922 3.4045C74.9189 3.37117 74.9556 3.36117 75.0022 3.3745C75.0422 3.3945 75.0756 3.4045 75.1022 3.4045C75.2222 3.4045 75.2989 3.42783 75.3322 3.4745C75.3589 3.52117 75.4056 3.58117 75.4722 3.6545C75.5989 3.80783 75.6989 4.01117 75.7722 4.2645C75.8522 4.51117 75.9456 4.80783 76.0522 5.1545C76.2056 4.90117 76.3989 4.65783 76.6322 4.4245C76.8722 4.19117 77.1322 3.98117 77.4122 3.7945C77.6922 3.60117 77.9822 3.4445 78.2822 3.3245C78.5822 3.2045 78.8722 3.12783 79.1522 3.0945C79.2056 3.08783 79.2522 3.1045 79.2922 3.1445C79.3389 3.19117 79.3556 3.25117 79.3422 3.3245ZM81.7822 3.2345C81.8556 3.3145 81.8856 3.37783 81.8722 3.4245C81.8589 3.47117 81.8289 3.48783 81.7822 3.4745C81.6622 3.4745 81.5289 3.48783 81.3822 3.5145C81.2356 3.5345 81.0822 3.55117 80.9222 3.5645C80.7556 3.57783 80.5856 3.58117 80.4122 3.5745C80.2322 3.56783 80.0556 3.5345 79.8822 3.4745C79.8022 3.40117 79.8022 3.3345 79.8822 3.2745C79.9622 3.2145 80.0256 3.1245 80.0722 3.0045C80.0989 2.91783 80.1389 2.85783 80.1922 2.8245C80.2456 2.79117 80.2989 2.77117 80.3522 2.7645C80.4589 2.7645 80.5889 2.7845 80.7422 2.8245C80.8956 2.8645 81.0222 2.89117 81.1222 2.9045C81.2822 2.9245 81.4122 2.94783 81.5122 2.9745C81.6189 3.00783 81.7089 3.0945 81.7822 3.2345ZM81.4922 5.1445C81.5456 5.35783 81.5889 5.5545 81.6222 5.7345C81.6556 5.90783 81.6789 6.07783 81.6922 6.2445C81.7056 6.4045 81.7156 6.56783 81.7222 6.7345C81.7222 6.90783 81.7222 7.09117 81.7222 7.2845C81.7222 7.3245 81.7022 7.3645 81.6622 7.4045C81.6222 7.4445 81.5922 7.48783 81.5722 7.5345C81.5322 7.62117 81.5022 7.6745 81.4822 7.6945C81.4556 7.70783 81.4156 7.73117 81.3622 7.7645C81.2289 7.81783 81.1122 7.8945 81.0122 7.9945C80.8922 7.82117 80.8089 7.61783 80.7622 7.3845C80.7222 7.15117 80.6956 6.90783 80.6822 6.6545C80.6689 6.40117 80.6556 6.14783 80.6422 5.8945C80.6289 5.6345 80.5922 5.3845 80.5322 5.1445C80.5056 5.01117 80.5156 4.92117 80.5622 4.8745C80.6089 4.82783 80.6622 4.7945 80.7222 4.7745C80.7822 4.76117 80.8522 4.77783 80.9322 4.8245C81.0122 4.87117 81.0889 4.91783 81.1622 4.9645C81.2289 4.99783 81.2922 5.01783 81.3522 5.0245C81.4122 5.03117 81.4589 5.07117 81.4922 5.1445ZM86.8822 4.0345C86.9822 4.28117 87.0356 4.5145 87.0422 4.7345C87.0422 4.96117 86.9889 5.2045 86.8822 5.4645C86.7689 5.65783 86.6122 5.8345 86.4122 5.9945C86.2189 6.14783 86.0122 6.27783 85.7922 6.3845C85.5722 6.49783 85.3589 6.59117 85.1522 6.6645C84.9522 6.7445 84.7889 6.80783 84.6622 6.8545C84.7022 7.1345 84.7422 7.43783 84.7822 7.7645C84.8156 8.09783 84.8456 8.4345 84.8722 8.7745C84.8922 9.1145 84.9122 9.45117 84.9322 9.7845C84.9522 10.1178 84.9656 10.4245 84.9722 10.7045C84.9722 10.7578 84.9589 10.7878 84.9322 10.7945C84.9056 10.8078 84.8722 10.8378 84.8322 10.8845C84.8056 10.9112 84.7789 10.9478 84.7522 10.9945C84.7322 11.0412 84.7022 11.0745 84.6622 11.0945C84.6356 11.1145 84.6089 11.1312 84.5822 11.1445C84.5556 11.1645 84.5289 11.1745 84.5022 11.1745C84.3622 10.7012 84.2356 10.1778 84.1222 9.6045C84.0089 9.03117 83.9122 8.43783 83.8322 7.8245C83.7522 7.21117 83.6889 6.60117 83.6422 5.9945C83.5956 5.38117 83.5622 4.80783 83.5422 4.2745C83.4156 4.2945 83.2856 4.3345 83.1522 4.3945C83.0256 4.4545 82.9089 4.51117 82.8022 4.5645C82.7822 4.5845 82.7656 4.59117 82.7522 4.5845C82.7322 4.57117 82.7122 4.5745 82.6922 4.5945C82.6656 4.6145 82.6389 4.63117 82.6122 4.6445C82.5789 4.65783 82.5489 4.6545 82.5222 4.6345C82.4689 4.60783 82.4122 4.56783 82.3522 4.5145C82.4589 4.20783 82.6222 3.9645 82.8422 3.7845C83.0689 3.6045 83.3189 3.47783 83.5922 3.4045C83.7456 3.37117 83.9856 3.34117 84.3122 3.3145C84.6389 3.2945 84.9789 3.30117 85.3322 3.3345C85.6789 3.36117 86.0022 3.42783 86.3022 3.5345C86.6022 3.64783 86.7956 3.8145 86.8822 4.0345ZM86.3622 4.5445C86.3356 4.3645 86.2422 4.22783 86.0822 4.1345C85.9222 4.04117 85.7356 3.98117 85.5222 3.9545C85.3089 3.92783 85.0856 3.9245 84.8522 3.9445C84.6256 3.97117 84.4222 4.01117 84.2422 4.0645C84.2756 4.1845 84.3056 4.3345 84.3322 4.5145C84.3589 4.68783 84.3856 4.86783 84.4122 5.0545C84.4389 5.24117 84.4656 5.42783 84.4922 5.6145C84.5122 5.80117 84.5289 5.96117 84.5422 6.0945C84.7156 6.04783 84.9122 5.98117 85.1322 5.8945C85.3456 5.80117 85.5422 5.69117 85.7222 5.5645C85.9022 5.43117 86.0556 5.27783 86.1822 5.1045C86.3022 4.93117 86.3622 4.7445 86.3622 4.5445ZM92.1722 4.6545L92.8522 4.7545C92.8722 4.76783 92.8889 4.7745 92.9022 4.7745C92.9089 4.7745 92.9122 4.7845 92.9122 4.8045C92.9056 4.8245 92.8856 4.8445 92.8522 4.8645C92.8189 4.89117 92.7589 4.90783 92.6722 4.9145C92.6456 4.92783 92.6089 4.9445 92.5622 4.9645C92.5156 4.99117 92.4789 5.00783 92.4522 5.0145C92.1989 5.0745 91.9022 5.12783 91.5622 5.1745C91.2222 5.22117 90.8689 5.26117 90.5022 5.2945C90.4822 5.62117 90.4756 5.9245 90.4822 6.2045C90.4889 6.4845 90.5022 6.72783 90.5222 6.9345C90.5356 7.0945 90.6089 7.17117 90.7422 7.1645C90.8756 7.15783 91.0122 7.13117 91.1522 7.0845C91.1856 7.07783 91.2856 7.0345 91.4522 6.9545C91.6122 6.8745 91.8022 6.78117 92.0222 6.6745C92.2422 6.56783 92.4722 6.45117 92.7122 6.3245C92.9589 6.19783 93.1789 6.0845 93.3722 5.9845C93.3722 6.11117 93.3022 6.23783 93.1622 6.3645C93.0889 6.4245 93.0089 6.4845 92.9222 6.5445C92.8289 6.59783 92.7356 6.65783 92.6422 6.7245C92.5422 6.79117 92.4722 6.86117 92.4322 6.9345C92.3989 7.00783 92.3156 7.08783 92.1822 7.1745C91.9422 7.3345 91.6822 7.47783 91.4022 7.6045C91.1222 7.73783 90.8689 7.83117 90.6422 7.8845C90.5689 7.9045 90.4922 7.9145 90.4122 7.9145C90.3322 7.9145 90.2556 7.92783 90.1822 7.9545C90.0689 8.00117 89.9822 7.99117 89.9222 7.9245C89.8622 7.8645 89.8222 7.77117 89.8022 7.6445C89.7689 7.3045 89.7422 6.93783 89.7222 6.5445C89.7089 6.15117 89.7089 5.7545 89.7222 5.3545C89.4422 5.3745 89.1822 5.38117 88.9422 5.3745C88.7022 5.36783 88.5089 5.35117 88.3622 5.3245C88.2222 5.3045 88.0922 5.2745 87.9722 5.2345C87.8589 5.1945 87.7556 5.12783 87.6622 5.0345C87.5756 5.0345 87.5489 4.9945 87.5822 4.9145C87.6156 4.8345 87.6422 4.7645 87.6622 4.7045C87.8556 4.69783 88.1422 4.68783 88.5222 4.6745C88.9022 4.66117 89.3122 4.6445 89.7522 4.6245C89.7856 3.85117 89.8489 3.13117 89.9422 2.4645C90.0356 1.8045 90.1489 1.31117 90.2822 0.9845C90.2822 0.897833 90.3156 0.837833 90.3822 0.8045C90.4556 0.777833 90.5289 0.741166 90.6022 0.6945C90.6422 0.6745 90.6822 0.647833 90.7222 0.6145C90.7622 0.581166 90.8189 0.5645 90.8922 0.5645C90.9789 0.611167 91.0422 0.651166 91.0822 0.6845C91.1156 0.717833 91.1322 0.757833 91.1322 0.8045C91.1322 0.851166 91.1189 0.907833 91.0922 0.9745C91.0656 1.0345 91.0322 1.11783 90.9922 1.2245C90.9722 1.25117 90.9456 1.36783 90.9122 1.5745C90.8722 1.78117 90.8322 2.04117 90.7922 2.3545C90.7522 2.66117 90.7089 3.0145 90.6622 3.4145C90.6156 3.80783 90.5756 4.20783 90.5422 4.6145C90.8556 4.6145 91.1522 4.6145 91.4322 4.6145C91.7122 4.62117 91.9589 4.6345 92.1722 4.6545Z" fill="black"/>
</svg>
