<svg width="58" height="9" viewBox="0 0 58 9" fill="none" xmlns="http://www.w3.org/2000/svg">
<path d="M2.38056 8.2C2.04056 8.2 1.78722 8.16 1.62056 8.08C1.44722 8 1.32389 7.90667 1.25056 7.8C1.18389 7.69333 1.14722 7.6 1.14056 7.52C1.13389 7.44 1.13056 7.4 1.13056 7.4C1.13056 7.4 1.11722 7.26 1.09056 6.98C1.06389 6.7 1.02722 6.34 0.980556 5.9C0.933889 5.45333 0.883889 4.97667 0.830556 4.47C0.777222 3.96333 0.727222 3.47333 0.680556 3C0.627222 2.52667 0.587222 2.12333 0.560556 1.79C0.533889 1.46333 0.513889 1.25667 0.500556 1.17C0.493889 0.93 0.547222 0.72 0.660556 0.54C0.780556 0.353333 1.06722 0.246667 1.52056 0.22C1.83389 0.2 2.08389 0.246666 2.27056 0.36C2.45722 0.473333 2.59056 0.586666 2.67056 0.7C2.75722 0.82 2.80056 0.88 2.80056 0.88L4.11056 4.07L4.63056 5.04L4.31056 2.38C4.31056 2.38 4.31389 2.22333 4.32056 1.91C4.32056 1.60333 4.33722 1.23667 4.37056 0.809999C4.38389 0.596666 4.45389 0.433333 4.58056 0.32C4.70056 0.206666 4.83722 0.126667 4.99056 0.0799999C5.14389 0.0333333 5.28056 0.00666667 5.40056 0C5.51389 0 5.57056 0 5.57056 0C5.57056 0 5.62389 0.00333309 5.73056 0.00999975C5.83722 0.0166664 5.96056 0.0566663 6.10056 0.13C6.24056 0.196666 6.36389 0.316666 6.47056 0.49C6.57722 0.663333 6.62722 0.913333 6.62056 1.24C6.61389 1.64 6.62722 2.09667 6.66056 2.61C6.70056 3.11667 6.75056 3.63667 6.81056 4.17C6.87056 4.70333 6.93056 5.2 6.99056 5.66C7.05056 6.12 7.10722 6.50333 7.16056 6.81C7.21389 7.12333 7.24389 7.31667 7.25056 7.39C7.27056 7.50333 7.27389 7.63667 7.26056 7.79C7.25389 7.95 7.18389 8.09 7.05056 8.21C6.91056 8.33667 6.66056 8.40333 6.30056 8.41C5.93389 8.41 5.66389 8.36667 5.49056 8.28C5.31056 8.2 5.19056 8.11333 5.13056 8.02C5.07056 7.93333 5.04056 7.89 5.04056 7.89L2.94056 4.13C2.94056 4.13 2.95722 4.22333 2.99056 4.41C3.03056 4.59667 3.07722 4.83667 3.13056 5.13C3.17722 5.43 3.22722 5.75333 3.28056 6.1C3.33389 6.44667 3.37389 6.77667 3.40056 7.09C3.42722 7.41 3.39389 7.64667 3.30056 7.8C3.20056 7.95333 3.07722 8.06 2.93056 8.12C2.78389 8.17333 2.65722 8.2 2.55056 8.2C2.43722 8.2 2.38056 8.2 2.38056 8.2ZM13.5906 3.97C13.5639 4.43667 13.4339 4.81333 13.2006 5.1C12.9672 5.38667 12.6839 5.6 12.3506 5.74C12.0239 5.88667 11.6972 5.98667 11.3706 6.04C11.0439 6.08667 10.7706 6.11 10.5506 6.11C10.3306 6.11 10.2206 6.11 10.2206 6.11C10.2739 6.43667 10.3539 6.67 10.4606 6.81C10.5606 6.95 10.6739 7.03 10.8006 7.05C10.9272 7.07 11.0472 7.06 11.1606 7.02C11.2672 6.97333 11.3572 6.92333 11.4306 6.87C11.4972 6.81667 11.5306 6.79 11.5306 6.79C11.5306 6.79 11.5839 6.74667 11.6906 6.66C11.7906 6.57333 11.9506 6.49 12.1706 6.41C12.3906 6.33667 12.6672 6.3 13.0006 6.3C13.3872 6.3 13.6472 6.34667 13.7806 6.44C13.9139 6.54 13.9806 6.65333 13.9806 6.78C13.9739 6.90667 13.9439 7.01667 13.8906 7.11C13.8439 7.21 13.8206 7.26 13.8206 7.26C13.8206 7.26 13.7806 7.30667 13.7006 7.4C13.6206 7.48667 13.4772 7.59 13.2706 7.71C13.0639 7.83 12.7806 7.94 12.4206 8.04C12.0539 8.14 11.5872 8.19333 11.0206 8.2C10.4672 8.20667 10.0039 8.13333 9.63056 7.98C9.25722 7.82 8.95056 7.61 8.71056 7.35C8.46389 7.09667 8.27722 6.82667 8.15056 6.54C8.02389 6.25333 7.93722 5.98667 7.89056 5.74C7.83722 5.49333 7.81056 5.3 7.81056 5.16C7.81056 5.02 7.82389 4.84 7.85056 4.62C7.87056 4.39333 7.93056 4.15667 8.03056 3.91C8.12389 3.66333 8.27389 3.42667 8.48056 3.2C8.68722 2.98 8.97056 2.8 9.33056 2.66C9.69056 2.52 10.1506 2.44333 10.7106 2.43C11.4106 2.42333 11.9572 2.48333 12.3506 2.61C12.7372 2.74333 13.0206 2.90333 13.2006 3.09C13.3806 3.27667 13.4906 3.45333 13.5306 3.62C13.5706 3.78667 13.5906 3.90333 13.5906 3.97ZM10.0206 5.15C10.5939 5.10333 11.0206 4.98 11.3006 4.78C11.5806 4.58667 11.7439 4.37 11.7906 4.13C11.8372 3.88333 11.7906 3.67333 11.6506 3.5C11.5172 3.32667 11.3139 3.25 11.0406 3.27C10.7739 3.28333 10.5706 3.38333 10.4306 3.57C10.2906 3.76333 10.1906 3.98333 10.1306 4.23C10.0772 4.47667 10.0472 4.69333 10.0406 4.88C10.0272 5.06 10.0206 5.15 10.0206 5.15ZM15.2906 7.25C15.2906 7.14333 15.2739 6.96667 15.2406 6.72C15.2139 6.46667 15.1806 6.17667 15.1406 5.85C15.1006 5.53 15.0572 5.21 15.0106 4.89C14.9639 4.57 14.9139 4.28 14.8606 4.02C14.8072 3.76667 14.7639 3.58333 14.7306 3.47C14.6372 3.19 14.6906 2.99 14.8906 2.87C15.0906 2.75667 15.3706 2.68 15.7306 2.64C16.0972 2.60667 16.3606 2.63333 16.5206 2.72C16.6872 2.80667 16.7706 2.85 16.7706 2.85C16.9106 2.71 17.1406 2.61333 17.4606 2.56C17.7872 2.5 18.1272 2.47667 18.4806 2.49C18.9339 2.49667 19.2639 2.56667 19.4706 2.7C19.6772 2.82667 19.7806 2.96667 19.7806 3.12C19.7806 3.23333 19.7672 3.31667 19.7406 3.37C19.7139 3.42333 19.6039 3.47667 19.4106 3.53C19.2172 3.58333 18.8739 3.67 18.3806 3.79C18.0939 3.85667 17.8806 4.01333 17.7406 4.26C17.6006 4.50667 17.5139 4.79 17.4806 5.11C17.4472 5.43667 17.4439 5.75667 17.4706 6.07C17.4972 6.37667 17.5306 6.63667 17.5706 6.85C17.6039 7.05667 17.6206 7.17 17.6206 7.19C17.6206 7.21 17.6306 7.27333 17.6506 7.38C17.6639 7.48667 17.6472 7.60333 17.6006 7.73C17.5606 7.85667 17.4606 7.96667 17.3006 8.06C17.1406 8.15333 16.8906 8.2 16.5506 8.2C16.2039 8.2 15.9406 8.15 15.7606 8.05C15.5872 7.95667 15.4672 7.84667 15.4006 7.72C15.3339 7.6 15.2972 7.49333 15.2906 7.4C15.2906 7.3 15.2906 7.25 15.2906 7.25ZM21.1006 7.46C21.1006 7.46 21.0906 7.36667 21.0706 7.18C21.0506 7 21.0206 6.76333 20.9806 6.47C20.9472 6.17667 20.9039 5.86333 20.8506 5.53C20.7972 5.19 20.7406 4.86333 20.6806 4.55C20.6139 4.23667 20.5439 3.97 20.4706 3.75C20.3772 3.47 20.3606 3.25667 20.4206 3.11C20.4872 2.96333 20.5906 2.86333 20.7306 2.81C20.8639 2.75667 20.9872 2.72667 21.1006 2.72C21.2206 2.71333 21.2806 2.71 21.2806 2.71C21.2806 2.71 21.3439 2.70667 21.4706 2.7C21.6039 2.7 21.7606 2.71667 21.9406 2.75C22.1139 2.79 22.2772 2.86667 22.4306 2.98C22.5772 3.09333 22.6706 3.27 22.7106 3.51C22.7639 3.83 22.8006 4.03 22.8206 4.11C22.8406 4.19667 22.8506 4.22667 22.8506 4.2C22.8572 4.18 22.8606 4.17 22.8606 4.17L24.4406 2.73C24.4406 2.73 24.4939 2.69 24.6006 2.61C24.7072 2.53 24.8806 2.46667 25.1206 2.42C25.3606 2.38 25.6706 2.41667 26.0506 2.53C26.3239 2.60333 26.4806 2.7 26.5206 2.82C26.5606 2.94667 26.5472 3.06 26.4806 3.16C26.4072 3.26 26.3472 3.33333 26.3006 3.38C26.2739 3.41333 26.1906 3.49667 26.0506 3.63C25.9106 3.76333 25.7472 3.92333 25.5606 4.11C25.3672 4.29 25.1772 4.46667 24.9906 4.64C24.8039 4.82 24.6506 4.97 24.5306 5.09C24.4039 5.21 24.3406 5.27 24.3406 5.27L26.6006 6.84C26.6006 6.84 26.6439 6.87667 26.7306 6.95C26.8172 7.01667 26.9006 7.10667 26.9806 7.22C27.0539 7.33333 27.0772 7.45333 27.0506 7.58C27.0306 7.70667 26.9039 7.82333 26.6706 7.93C26.4372 8.04333 26.2106 8.09 25.9906 8.07C25.7706 8.04333 25.5739 7.99 25.4006 7.91C25.2272 7.82333 25.0906 7.74333 24.9906 7.67C24.8839 7.59667 24.8306 7.56 24.8306 7.56L23.2406 6.45L23.3406 7.6C23.3406 7.6 23.3306 7.64667 23.3106 7.74C23.2906 7.84 23.2072 7.94333 23.0606 8.05C22.9206 8.15 22.6672 8.2 22.3006 8.2C21.9339 8.2 21.6672 8.13667 21.5006 8.01C21.3339 7.88333 21.2239 7.76 21.1706 7.64C21.1239 7.52 21.1006 7.46 21.1006 7.46ZM30.6606 2.52C31.0072 2.48667 31.2739 2.52333 31.4606 2.63C31.6472 2.73 31.7572 2.79 31.7906 2.81C31.8839 2.85667 31.9706 2.90667 32.0506 2.96C32.1306 3.02 32.1706 3.05 32.1706 3.05C32.1706 3.05 32.2406 3.07333 32.3806 3.12C32.5206 3.16667 32.6839 3.27667 32.8706 3.45C33.0572 3.62333 33.2306 3.89 33.3906 4.25C33.5506 4.61667 33.6439 5.11333 33.6706 5.74C33.6906 6.16 33.6239 6.51 33.4706 6.79C33.3239 7.07667 33.1272 7.31 32.8806 7.49C32.6339 7.67667 32.3672 7.81667 32.0806 7.91C31.7939 8.01 31.5239 8.08 31.2706 8.12C31.0106 8.15333 30.8006 8.17667 30.6406 8.19C30.4739 8.19667 30.3906 8.2 30.3906 8.2C30.3906 8.2 30.3006 8.2 30.1206 8.2C29.9406 8.2 29.7139 8.17 29.4406 8.11C29.1672 8.05 28.9006 7.92667 28.6406 7.74C28.3739 7.56 28.1539 7.29333 27.9806 6.94C27.8072 6.58667 27.7306 6.11667 27.7506 5.53C27.7639 4.93667 27.8739 4.45333 28.0806 4.08C28.2806 3.7 28.5206 3.40333 28.8006 3.19C29.0872 2.97667 29.3739 2.82333 29.6606 2.73C29.9406 2.63667 30.1772 2.57667 30.3706 2.55C30.5639 2.53 30.6606 2.52 30.6606 2.52ZM30.7106 3.89C30.7106 3.89 30.6539 3.96333 30.5406 4.11C30.4206 4.26333 30.3039 4.47333 30.1906 4.74C30.0706 5.01333 30.0106 5.33 30.0106 5.69C30.0106 6.05 30.0539 6.33 30.1406 6.53C30.2272 6.73667 30.3172 6.88667 30.4106 6.98C30.5106 7.06667 30.5872 7.11 30.6406 7.11C30.7006 7.11 30.7939 7.08333 30.9206 7.03C31.0472 6.97667 31.1606 6.85667 31.2606 6.67C31.3606 6.48333 31.4072 6.19 31.4006 5.79C31.3939 5.45667 31.3606 5.18667 31.3006 4.98C31.2339 4.77333 31.1539 4.59 31.0606 4.43C30.9606 4.26333 30.8439 4.08333 30.7106 3.89ZM37.8706 4.13C37.8706 3.38333 38.0006 2.7 38.2606 2.08C38.5206 1.45333 38.8739 0.956667 39.3206 0.59C39.7739 0.223333 40.2706 0.04 40.8106 0.04C41.2106 0.04 41.5939 0.143333 41.9606 0.349999C42.3206 0.563333 42.6406 0.86 42.9206 1.24C43.2006 1.61333 43.4206 2.04667 43.5806 2.54C43.7406 3.04 43.8206 3.57 43.8206 4.13C43.8206 4.69 43.7406 5.21667 43.5806 5.71C43.4206 6.20333 43.2006 6.64 42.9206 7.02C42.6406 7.39333 42.3206 7.68667 41.9606 7.9C41.5939 8.10667 41.2106 8.21 40.8106 8.21C40.2706 8.21 39.7739 8.02667 39.3206 7.66C38.8739 7.29333 38.5206 6.8 38.2606 6.18C38.0006 5.56667 37.8706 4.88333 37.8706 4.13ZM40.0106 4.07C40.0106 4.61 40.0472 5.10667 40.1206 5.56C40.1939 6.01333 40.2972 6.37333 40.4306 6.64C40.5639 6.90667 40.7072 7.04 40.8606 7.04C41.0206 7.04 41.1672 6.90667 41.3006 6.64C41.4272 6.37333 41.5306 6.01333 41.6106 5.56C41.6839 5.10667 41.7206 4.61 41.7206 4.07C41.7206 3.51667 41.6839 3.01667 41.6106 2.57C41.5306 2.12333 41.4272 1.76333 41.3006 1.49C41.1672 1.22333 41.0206 1.09 40.8606 1.09C40.7072 1.09 40.5639 1.22333 40.4306 1.49C40.2972 1.76333 40.1939 2.12333 40.1206 2.57C40.0472 3.01667 40.0106 3.51667 40.0106 4.07ZM46.0706 8.2C46.0706 8.2 46.0106 8.2 45.8906 8.2C45.7706 8.2 45.6339 8.18 45.4806 8.14C45.3272 8.10667 45.1872 8.03333 45.0606 7.92C44.9406 7.80667 44.8706 7.64333 44.8506 7.43C44.8439 7.25 44.8272 6.99667 44.8006 6.67C44.7739 6.34333 44.7439 5.98667 44.7106 5.6C44.6772 5.21333 44.6472 4.84667 44.6206 4.5C44.5872 4.14667 44.5639 3.86 44.5506 3.64C44.5306 3.41333 44.5206 3.3 44.5206 3.3C44.5206 3.3 44.5239 3.26 44.5306 3.18C44.5439 3.1 44.5806 3.01 44.6406 2.91C44.7006 2.80333 44.8072 2.71 44.9606 2.63C45.1139 2.54333 45.3306 2.49667 45.6106 2.49C45.8906 2.47667 46.1106 2.50333 46.2706 2.57C46.4306 2.63667 46.5439 2.71333 46.6106 2.8C46.6839 2.89333 46.7272 2.97333 46.7406 3.04C46.7539 3.11333 46.7606 3.15 46.7606 3.15C46.7606 3.15 46.8472 3.10333 47.0206 3.01C47.1939 2.92333 47.4172 2.83333 47.6906 2.74C47.9639 2.64667 48.2539 2.59 48.5606 2.57C48.6072 2.57 48.7006 2.57 48.8406 2.57C48.9739 2.57 49.1206 2.6 49.2806 2.66C49.4472 2.72 49.6106 2.83667 49.7706 3.01C49.9372 3.17667 50.0772 3.42 50.1906 3.74C50.3039 4.06 50.3672 4.48333 50.3806 5.01C50.4139 5.66333 50.4372 6.2 50.4506 6.62C50.4639 7.04 50.4506 7.36333 50.4106 7.59C50.3639 7.81667 50.2706 7.97667 50.1306 8.07C49.9839 8.15667 49.7572 8.2 49.4506 8.2C49.1506 8.2 48.9306 8.15667 48.7906 8.07C48.6506 7.99 48.5606 7.89 48.5206 7.77C48.4872 7.65667 48.4706 7.55333 48.4706 7.46C48.4706 7.4 48.4772 7.24667 48.4906 7C48.5106 6.75333 48.5272 6.47 48.5406 6.15C48.5472 5.83 48.5439 5.51333 48.5306 5.2C48.5172 4.88667 48.4806 4.63 48.4206 4.43C48.3606 4.23 48.2639 4.13333 48.1306 4.14C47.9706 4.14667 47.8239 4.20667 47.6906 4.32C47.5572 4.42667 47.4372 4.54667 47.3306 4.68C47.2306 4.81333 47.1506 4.93 47.0906 5.03C47.0372 5.13 47.0106 5.18 47.0106 5.18L47.1506 7.29C47.1506 7.29 47.1506 7.33667 47.1506 7.43C47.1506 7.52333 47.1239 7.62667 47.0706 7.74C47.0106 7.86 46.9039 7.96667 46.7506 8.06C46.5972 8.15333 46.3706 8.2 46.0706 8.2ZM56.7306 3.97C56.6972 4.43667 56.5639 4.81333 56.3306 5.1C56.0972 5.38667 55.8172 5.6 55.4906 5.74C55.1572 5.88667 54.8272 5.98667 54.5006 6.04C54.1739 6.08667 53.9006 6.11 53.6806 6.11C53.4606 6.11 53.3506 6.11 53.3506 6.11C53.4106 6.43667 53.4906 6.67 53.5906 6.81C53.6906 6.95 53.8039 7.03 53.9306 7.05C54.0572 7.07 54.1772 7.06 54.2906 7.02C54.4039 6.97333 54.4939 6.92333 54.5606 6.87C54.6339 6.81667 54.6706 6.79 54.6706 6.79C54.6706 6.79 54.7206 6.74667 54.8206 6.66C54.9272 6.57333 55.0872 6.49 55.3006 6.41C55.5206 6.33667 55.8006 6.3 56.1406 6.3C56.5206 6.3 56.7772 6.34667 56.9106 6.44C57.0506 6.54 57.1172 6.65333 57.1106 6.78C57.1039 6.90667 57.0772 7.01667 57.0306 7.11C56.9772 7.21 56.9506 7.26 56.9506 7.26C56.9506 7.26 56.9106 7.30667 56.8306 7.4C56.7506 7.48667 56.6072 7.59 56.4006 7.71C56.2006 7.83 55.9172 7.94 55.5506 8.04C55.1839 8.14 54.7172 8.19333 54.1506 8.2C53.5972 8.20667 53.1339 8.13333 52.7606 7.98C52.3872 7.82 52.0806 7.61 51.8406 7.35C51.6006 7.09667 51.4172 6.82667 51.2906 6.54C51.1639 6.25333 51.0739 5.98667 51.0206 5.74C50.9672 5.49333 50.9406 5.3 50.9406 5.16C50.9406 5.02 50.9539 4.84 50.9806 4.62C51.0006 4.39333 51.0606 4.15667 51.1606 3.91C51.2606 3.66333 51.4139 3.42667 51.6206 3.2C51.8206 2.98 52.1006 2.8 52.4606 2.66C52.8206 2.52 53.2806 2.44333 53.8406 2.43C54.5406 2.42333 55.0872 2.48333 55.4806 2.61C55.8739 2.74333 56.1572 2.90333 56.3306 3.09C56.5106 3.27667 56.6206 3.45333 56.6606 3.62C56.7072 3.78667 56.7306 3.90333 56.7306 3.97ZM53.1606 5.15C53.7272 5.10333 54.1506 4.98 54.4306 4.78C54.7106 4.58667 54.8739 4.37 54.9206 4.13C54.9672 3.88333 54.9239 3.67333 54.7906 3.5C54.6506 3.32667 54.4472 3.25 54.1806 3.27C53.9072 3.28333 53.7006 3.38333 53.5606 3.57C53.4206 3.76333 53.3239 3.98333 53.2706 4.23C53.2106 4.47667 53.1772 4.69333 53.1706 4.88C53.1639 5.06 53.1606 5.15 53.1606 5.15Z" fill="black"/>
</svg>
