<svg width="88" height="14" viewBox="0 0 88 14" fill="none" xmlns="http://www.w3.org/2000/svg">
<path d="M0.811296 9.8C0.691296 9.80667 0.597963 9.73667 0.531296 9.59C0.44463 9.34333 0.537963 9.15667 0.811296 9.03C1.30463 8.85 1.5613 8.46 1.5813 7.86V2.81C1.7213 2.53 1.69463 2.23667 1.5013 1.93C1.39463 1.79 1.2913 1.69667 1.1913 1.65C1.14463 1.60333 1.08463 1.56 1.0113 1.52C0.857963 1.44 0.801296 1.35333 0.841296 1.26C0.887963 1.18 0.937963 1.11333 0.991296 1.06C0.991296 1.06 1.0113 1.04667 1.0513 1.02C1.08463 1 1.1413 0.966667 1.2213 0.92C1.29463 0.893333 1.34796 0.88 1.3813 0.88H2.1513C2.70463 0.88 3.07796 1.09 3.2713 1.51C3.28463 1.53 3.29463 1.55333 3.3013 1.58C3.31463 1.60667 3.32463 1.63 3.3313 1.65C3.79796 2.69667 4.59463 4.15333 5.7213 6.02C5.8013 6.12667 5.86463 6.22 5.9113 6.3C5.95796 6.38 5.99463 6.44333 6.0213 6.49C6.0213 6.69 6.11463 6.85333 6.3013 6.98C6.39463 7.04667 6.49796 7.08 6.6113 7.08C6.7113 6.32667 6.7113 5.05333 6.6113 3.26C6.59796 2.98667 6.58796 2.74667 6.5813 2.54C6.56796 2.32667 6.55796 2.14 6.5513 1.98C6.54463 1.82667 6.41796 1.63333 6.1713 1.4C6.16463 1.4 6.14796 1.4 6.1213 1.4C6.1013 1.4 6.0713 1.40333 6.0313 1.41C5.7513 1.46333 5.59796 1.40667 5.5713 1.24C5.5713 1.20667 5.5713 1.17 5.5713 1.13C5.5713 1.09 5.57463 1.05333 5.5813 1.02C6.38796 0.886667 7.42463 0.886667 8.6913 1.02C8.6913 1.25333 8.60796 1.43333 8.4413 1.56C8.22796 1.72 8.07796 1.89333 7.9913 2.08C7.84463 2.46667 7.7713 3.10333 7.7713 3.99C7.75796 4.17667 7.7313 4.51667 7.6913 5.01C7.6513 5.51 7.58796 6.16333 7.5013 6.97C7.46796 7.35 7.4413 7.69333 7.4213 8C7.4013 8.31333 7.3913 8.59 7.3913 8.83C7.47796 8.91667 7.48796 9.05667 7.4213 9.25C7.40796 9.29 7.4013 9.32 7.4013 9.34C7.39463 9.36667 7.3913 9.38667 7.3913 9.4C7.33796 9.51333 7.24796 9.6 7.1213 9.66C6.99463 9.72 6.87796 9.74667 6.7713 9.74C6.66463 9.73333 6.6113 9.69 6.6113 9.61C6.57796 9.57667 6.5413 9.53 6.5013 9.47C6.4613 9.41667 6.40796 9.34333 6.3413 9.25C6.20796 9.05667 6.1013 8.91667 6.0213 8.83C5.92796 8.64333 5.80796 8.40333 5.6613 8.11C5.51463 7.81667 5.34796 7.47333 5.1613 7.08C4.70796 6.14 4.3113 5.32667 3.9713 4.64C3.6313 3.96 3.34796 3.41667 3.1213 3.01C2.79463 3.01 2.6113 3.09667 2.5713 3.27C2.56463 3.31 2.55796 3.35333 2.5513 3.4C2.5513 3.45333 2.5513 3.51667 2.5513 3.59V6.9C2.5513 7.65333 2.5913 8.17 2.6713 8.45C2.7113 8.55667 2.76463 8.70333 2.8313 8.89C2.90463 9.08333 3.0013 9.32333 3.1213 9.61C2.8613 9.67667 2.53796 9.72333 2.1513 9.75C1.76463 9.78333 1.31796 9.8 0.811296 9.8ZM15.0113 9.67C14.1846 10.07 13.288 10.1133 12.3213 9.8C12.0946 9.73333 11.6846 9.56333 11.0913 9.29C10.3113 8.77 9.8913 8.07667 9.8313 7.21C9.8113 6.81667 9.85796 6.45 9.9713 6.11C10.2646 4.89 11.0046 4.08333 12.1913 3.69C12.3446 3.64333 12.498 3.60333 12.6513 3.57C12.8113 3.53667 12.9713 3.51333 13.1313 3.5H14.0813C14.9413 3.5 15.5346 3.69 15.8613 4.07C16.0946 4.37667 16.3046 4.93333 16.4913 5.74C16.6313 6 16.548 6.21 16.2413 6.37C16.1546 6.40333 16.0546 6.44333 15.9413 6.49C15.7546 6.49 15.1646 6.54667 14.1713 6.66C13.5246 6.72667 12.9913 6.72667 12.5713 6.66C11.958 6.66 11.4646 6.72667 11.0913 6.86C10.918 7.51333 11.0113 8.05667 11.3713 8.49C11.4446 8.57667 11.5313 8.65667 11.6313 8.73C12.1846 9.15 12.638 9.38333 12.9913 9.43C13.278 9.45667 13.578 9.41 13.8913 9.29C14.3646 9.13 14.7546 9.00667 15.0613 8.92C15.3613 8.83333 15.578 8.77 15.7113 8.73C15.8046 8.63 15.9146 8.62667 16.0413 8.72C16.2213 8.83333 16.2113 8.99667 16.0113 9.21C15.998 9.23667 15.9746 9.26333 15.9413 9.29C15.868 9.36333 15.668 9.44667 15.3413 9.54C15.2213 9.58 15.1113 9.62333 15.0113 9.67ZM11.5813 6C11.708 6.07333 11.8513 6.11 12.0113 6.11C12.3313 6.11 13.3213 6.05667 14.9813 5.95C15.0546 5.93667 15.1246 5.93 15.1913 5.93C15.258 5.93 15.318 5.92667 15.3713 5.92C15.6713 5.9 15.7646 5.67667 15.6513 5.25C15.538 4.85667 15.348 4.55333 15.0813 4.34C14.988 4.27333 14.9013 4.24 14.8213 4.24H14.0813C12.928 4.05333 12.108 4.32667 11.6213 5.06C11.5546 5.15333 11.498 5.25333 11.4513 5.36C11.3113 5.64 11.3546 5.85333 11.5813 6ZM24.2213 9.67C24.0613 10.11 23.7946 10.2267 23.4213 10.02C23.3546 9.98 23.2913 9.94 23.2313 9.9C23.1713 9.86 23.108 9.80667 23.0413 9.74C22.9413 9.68667 22.8213 9.58 22.6813 9.42C22.548 9.26667 22.4446 9.12667 22.3713 9L22.2413 8.8C22.2146 8.73333 22.178 8.64667 22.1313 8.54C22.0846 8.43333 22.028 8.3 21.9613 8.14C21.8413 7.86 21.758 7.66667 21.7113 7.56C21.7113 7.40667 21.6313 7.37333 21.4713 7.46C21.418 7.49333 21.378 7.52667 21.3513 7.56C20.858 8.08 20.5013 8.74 20.2813 9.54C20.2346 9.58667 20.1846 9.65333 20.1313 9.74C20.0646 9.82667 19.9946 9.87667 19.9213 9.89C19.6013 9.86333 19.4246 9.75333 19.3913 9.56C19.2713 9.14667 19.118 8.61667 18.9313 7.97C18.7513 7.32333 18.5446 6.54667 18.3113 5.64C18.3046 5.6 18.288 5.55667 18.2613 5.51C18.2413 5.45667 18.2213 5.39667 18.2013 5.33C18.088 5.01 17.948 4.81 17.7813 4.73C17.7613 4.70333 17.7013 4.65667 17.6013 4.59C17.3213 4.42333 17.188 4.27 17.2013 4.13C17.2146 4.11 17.2213 4.09 17.2213 4.07C17.2213 4.05 17.2246 4.03667 17.2313 4.03C17.318 3.77 17.4813 3.67667 17.7213 3.75C17.968 3.80333 18.108 3.83 18.1413 3.83C18.188 3.83 18.248 3.83 18.3213 3.83C18.388 3.82333 18.468 3.81333 18.5613 3.8C19.188 3.76667 19.6413 3.79 19.9213 3.87C20.1146 3.97667 20.2213 4.06333 20.2413 4.13C20.2613 4.20333 20.1746 4.29 19.9813 4.39C19.968 4.40333 19.958 4.41 19.9513 4.41C19.938 4.41 19.928 4.41333 19.9213 4.42C19.4346 4.67333 19.1746 4.84667 19.1413 4.94C19.108 5.03333 19.1346 5.19667 19.2213 5.43C19.448 6.39 19.5613 7.10667 19.5613 7.58C19.6146 7.62667 19.6913 7.75 19.7913 7.95C19.8113 7.98333 19.8346 8.01333 19.8613 8.04C19.8813 8.06 19.9013 8.08 19.9213 8.1C20.208 7.90667 20.4746 7.56333 20.7213 7.07C20.7413 7.02333 20.758 6.98 20.7713 6.94C20.7913 6.9 20.808 6.87333 20.8213 6.86C20.8213 6.68 20.8946 6.52 21.0413 6.38C21.0813 6.34 21.128 6.31333 21.1813 6.3C21.4146 5.96 21.6613 5.83333 21.9213 5.92C22.0613 5.98667 22.168 6.11333 22.2413 6.3C22.4746 6.64 22.668 6.94333 22.8213 7.21C22.9813 7.47667 23.0913 7.71 23.1513 7.91C23.1513 7.95667 23.1946 8.19667 23.2813 8.63C23.308 8.75667 23.3213 8.87 23.3213 8.97C23.628 8.85667 23.8046 8.70333 23.8513 8.51C23.8646 8.47 23.8713 8.43 23.8713 8.39C23.8713 8.35 23.8713 8.29667 23.8713 8.23C24.018 7.79 24.148 7.31667 24.2613 6.81C24.3746 6.31 24.478 5.77333 24.5713 5.2C24.6646 4.94 24.688 4.77 24.6413 4.69C24.6013 4.64333 24.518 4.58667 24.3913 4.52C24.258 4.46 24.0846 4.38333 23.8713 4.29C23.5513 4.21 23.3913 4.1 23.3913 3.96C23.4113 3.84667 23.518 3.79333 23.7113 3.8C23.838 3.8 23.988 3.8 24.1613 3.8C24.3413 3.79333 24.548 3.78667 24.7813 3.78C25.0146 3.76667 25.218 3.76 25.3913 3.76C25.5646 3.75333 25.7113 3.75 25.8313 3.75C26.1313 3.73 26.3046 3.81667 26.3513 4.01C26.358 4.03 26.3613 4.06 26.3613 4.1C26.3413 4.30667 26.2113 4.48333 25.9713 4.63C25.858 4.71667 25.798 4.77667 25.7913 4.81C25.7113 5.57 25.388 6.65333 24.8213 8.06C24.6746 8.43333 24.5513 8.75667 24.4513 9.03C24.3513 9.29667 24.2746 9.51 24.2213 9.67ZM34.4413 9.85C34.1146 9.87 33.8846 9.73 33.7513 9.43C33.638 9.19 33.6713 9.02333 33.8513 8.93C33.9246 8.90333 33.9913 8.89 34.0513 8.89H35.6013C35.8346 8.51667 35.9613 8.07667 35.9813 7.57V7.33C35.9813 6.30333 35.9646 5.40333 35.9313 4.63C35.898 3.85667 35.848 3.21333 35.7813 2.7C35.7813 2.28667 35.6546 2.04667 35.4013 1.98C35.308 1.95333 35.178 1.94 35.0113 1.94H34.6313C33.978 1.82 33.578 1.86333 33.4313 2.07C33.3313 2.23 33.2813 2.50333 33.2813 2.89C33.2613 3.56333 33.1946 4.01667 33.0813 4.25C32.9613 4.45667 32.788 4.51333 32.5613 4.42C32.3946 4.34667 32.3113 4.22667 32.3113 4.06C32.318 3.81333 32.3313 3.44 32.3513 2.94C32.3646 2.53333 32.3813 2.18333 32.4013 1.89C32.428 1.59667 32.458 1.35333 32.4913 1.16C32.658 0.9 32.8546 0.77 33.0813 0.77C34.2013 1.09667 35.6346 1.20333 37.3813 1.09C37.548 1.07 37.798 1.05667 38.1313 1.05C38.4313 1.03 38.6913 1.01333 38.9113 1C39.1313 0.986667 39.3146 0.973333 39.4613 0.96C39.8946 0.96 40.1446 0.993333 40.2113 1.06C40.2446 1.1 40.2813 1.16 40.3213 1.24C40.3546 1.31333 40.3913 1.41333 40.4313 1.54C40.4313 1.57333 40.4446 1.67 40.4713 1.83C40.498 1.99 40.5346 2.21333 40.5813 2.5C40.6146 2.66667 40.6313 2.79667 40.6313 2.89C40.6313 3.16333 40.5046 3.39333 40.2513 3.58C40.1646 3.63333 40.0946 3.66 40.0413 3.66C39.6546 3.53333 39.4613 3.08667 39.4613 2.32C39.4613 2.16 39.3613 2.02333 39.1613 1.91C39.0946 1.87667 39.038 1.84333 38.9913 1.81C38.9446 1.77667 38.9113 1.75 38.8913 1.73H37.9213C37.5346 1.93667 37.298 2.10667 37.2113 2.24C37.1646 2.33333 37.1413 2.42 37.1413 2.5C37.0213 2.63333 36.9613 2.82667 36.9613 3.08V8.69C37.168 8.83 37.518 8.92333 38.0113 8.97C38.2246 8.99667 38.388 9.03333 38.5013 9.08C38.6146 9.08 38.708 9.16 38.7813 9.32C38.8546 9.50667 38.7946 9.61333 38.6013 9.64C38.568 9.65333 38.5346 9.66 38.5013 9.66C38.148 9.66 37.008 9.71333 35.0813 9.82C34.9613 9.83333 34.848 9.84 34.7413 9.84C34.6346 9.84 34.5346 9.84333 34.4413 9.85ZM46.6213 9.67C45.8013 10.07 44.9046 10.1133 43.9313 9.8C43.7046 9.73333 43.2946 9.56333 42.7013 9.29C41.928 8.77 41.508 8.07667 41.4413 7.21C41.4213 6.81667 41.468 6.45 41.5813 6.11C41.8813 4.89 42.6213 4.08333 43.8013 3.69C43.9546 3.64333 44.1113 3.60333 44.2713 3.57C44.4246 3.53667 44.5813 3.51333 44.7413 3.5H45.6913C46.5513 3.5 47.1446 3.69 47.4713 4.07C47.7046 4.37667 47.9146 4.93333 48.1013 5.74C48.2413 6 48.158 6.21 47.8513 6.37C47.7646 6.40333 47.668 6.44333 47.5613 6.49C47.3746 6.49 46.7813 6.54667 45.7813 6.66C45.1346 6.72667 44.6013 6.72667 44.1813 6.66C43.568 6.66 43.0746 6.72667 42.7013 6.86C42.5346 7.51333 42.628 8.05667 42.9813 8.49C43.0546 8.57667 43.1413 8.65667 43.2413 8.73C43.7946 9.15 44.248 9.38333 44.6013 9.43C44.8946 9.45667 45.1946 9.41 45.5013 9.29C45.9746 9.13 46.3646 9.00667 46.6713 8.92C46.9713 8.83333 47.188 8.77 47.3213 8.73C47.4146 8.63 47.5246 8.62667 47.6513 8.72C47.8313 8.83333 47.8246 8.99667 47.6313 9.21C47.6113 9.23667 47.588 9.26333 47.5613 9.29C47.4813 9.36333 47.278 9.44667 46.9513 9.54C46.8313 9.58 46.7213 9.62333 46.6213 9.67ZM43.1913 6C43.318 6.07333 43.4613 6.11 43.6213 6.11C43.9413 6.11 44.9313 6.05667 46.5913 5.95C46.6646 5.93667 46.7346 5.93 46.8013 5.93C46.868 5.93 46.928 5.92667 46.9813 5.92C47.2813 5.9 47.3746 5.67667 47.2613 5.25C47.148 4.85667 46.958 4.55333 46.6913 4.34C46.598 4.27333 46.5146 4.24 46.4413 4.24H45.6913C44.538 4.05333 43.718 4.32667 43.2313 5.06C43.1646 5.15333 43.108 5.25333 43.0613 5.36C42.9213 5.64 42.9646 5.85333 43.1913 6ZM55.3113 12.61C54.6046 13.13 53.6446 13.33 52.4313 13.21C51.3446 13.0967 50.4913 12.78 49.8713 12.26C49.3246 11.7067 49.188 11.1 49.4613 10.44C49.468 10.42 49.478 10.4 49.4913 10.38C49.498 10.3533 49.508 10.3367 49.5213 10.33C49.548 10.27 49.5813 10.2 49.6213 10.12C49.6613 10.0333 49.7146 9.94 49.7813 9.84C50.088 9.32667 50.248 8.91 50.2613 8.59C50.2613 8.45 50.248 8.32 50.2213 8.2C50.1613 8.03333 50.2446 7.83667 50.4713 7.61C50.6846 7.39 50.7813 7.21 50.7613 7.07C50.7613 7.02333 50.758 6.99 50.7513 6.97C50.7113 6.88333 50.5613 6.71 50.3013 6.45C50.248 6.38333 50.198 6.32 50.1513 6.26C50.1113 6.2 50.078 6.14667 50.0513 6.1C49.8446 5.39333 50.0013 4.77667 50.5213 4.25C50.8813 3.90333 51.308 3.7 51.8013 3.64C52.848 3.64 53.5946 3.73667 54.0413 3.93C54.1146 3.97 54.1846 4.00667 54.2513 4.04C54.318 4.08 54.378 4.12333 54.4313 4.17C54.5646 4.28333 54.7413 4.34 54.9613 4.34C54.988 4.34 55.0246 4.33667 55.0713 4.33C55.1113 4.32333 55.1646 4.31667 55.2313 4.31C55.518 4.28333 55.708 4.33 55.8013 4.45C55.8213 4.48333 55.8346 4.50667 55.8413 4.52C55.8413 4.68667 55.7313 4.81333 55.5113 4.9C55.3913 4.94667 55.298 4.98 55.2313 5C55.1646 5.02667 55.1313 5.04 55.1313 5.04C54.9246 5.26 54.8113 5.45333 54.7913 5.62C54.7846 5.65333 54.7813 5.69667 54.7813 5.75C54.7813 6.51667 54.2813 7.02 53.2813 7.26C53.248 7.27333 53.208 7.28333 53.1613 7.29C53.1213 7.29667 53.078 7.30667 53.0313 7.32C52.558 7.34 52.208 7.4 51.9813 7.5C51.6746 7.52 51.4413 7.69667 51.2813 8.03C51.1413 8.16333 51.168 8.36333 51.3613 8.63C51.408 8.67667 51.438 8.71 51.4513 8.73C51.6846 8.80333 52.0746 8.81333 52.6213 8.76C52.748 8.75333 52.858 8.74667 52.9513 8.74C53.0513 8.73333 53.138 8.73 53.2113 8.73H54.6113C54.8246 8.73 55.078 8.83667 55.3713 9.05C55.498 9.14333 55.5946 9.21333 55.6613 9.26C56.448 9.94667 56.648 10.7033 56.2613 11.53C56.0613 11.9633 55.7446 12.3233 55.3113 12.61ZM52.1513 6.8H53.2113C53.8913 6.60667 54.2413 6.13667 54.2613 5.39C54.2613 5.06333 54.1446 4.79667 53.9113 4.59C53.8646 4.55 53.8146 4.51 53.7613 4.47C53.7013 4.43 53.6346 4.38667 53.5613 4.34C52.8813 4.18 52.2946 4.18 51.8013 4.34C51.3146 4.46 51.028 4.80333 50.9413 5.37C50.9346 5.44333 50.928 5.52667 50.9213 5.62C50.9213 5.71333 50.9213 5.81333 50.9213 5.92C51.028 6.34 51.1813 6.59667 51.3813 6.69C51.5546 6.76333 51.8113 6.8 52.1513 6.8ZM52.2713 12.62C53.1313 12.66 53.778 12.6067 54.2113 12.46C54.218 12.4467 54.2246 12.44 54.2313 12.44C54.2446 12.44 54.2546 12.4367 54.2613 12.43C55.0813 12.2967 55.5246 11.89 55.5913 11.21C55.618 10.93 55.5846 10.6367 55.4913 10.33C55.4913 9.89667 55.3046 9.62 54.9313 9.5C54.8513 9.46667 54.7446 9.45 54.6113 9.45C54.5846 9.45 54.5346 9.44667 54.4613 9.44C54.388 9.43333 54.2846 9.42667 54.1513 9.42C53.5046 9.38 52.9713 9.36333 52.5513 9.37C52.1313 9.37667 51.8246 9.40333 51.6313 9.45C51.2313 9.55 50.868 9.82333 50.5413 10.27C50.248 10.6833 50.1413 11.0533 50.2213 11.38C50.2213 11.4267 50.268 11.5467 50.3613 11.74C50.388 11.8067 50.4013 11.8633 50.4013 11.91C50.708 12.1967 51.118 12.43 51.6313 12.61C51.7046 12.61 51.7946 12.61 51.9013 12.61C52.0013 12.61 52.1246 12.6133 52.2713 12.62ZM61.5613 9.82C60.9413 10.12 60.2213 10.1533 59.4013 9.92C58.6546 9.7 58.0746 9.31333 57.6613 8.76C57.4213 8.06 57.358 7.46667 57.4713 6.98V5.92C57.6313 4.96667 58.1246 4.23667 58.9513 3.73C59.058 3.67 59.1646 3.61333 59.2713 3.56C59.3846 3.50667 59.498 3.46333 59.6113 3.43C60.738 3.29 61.8013 3.70333 62.8013 4.67C63.4346 5.39 63.688 6.23667 63.5613 7.21C63.428 8.15667 62.9846 8.90333 62.2313 9.45C62.0246 9.59667 61.8013 9.72 61.5613 9.82ZM59.7813 9.29C60.668 9.54333 61.378 9.39 61.9113 8.83C62.0313 8.69667 62.1346 8.55333 62.2213 8.4C62.308 8.24 62.3813 8.06667 62.4413 7.88C62.5613 7.63333 62.6213 7.27333 62.6213 6.8C62.6213 6.19333 62.5613 5.72333 62.4413 5.39C62.348 4.97 62.078 4.62333 61.6313 4.35C61.2846 4.13667 60.9613 4.06667 60.6613 4.14C59.8013 4.38 59.2146 4.73333 58.9013 5.2C58.3546 6.12 58.1746 7.13 58.3613 8.23C58.3813 8.65667 58.6213 8.95 59.0813 9.11C59.148 9.11 59.2646 9.14333 59.4313 9.21C59.618 9.26333 59.7346 9.29 59.7813 9.29ZM70.0313 9.74C69.4046 9.88667 68.8246 9.94333 68.2913 9.91C68.1246 9.89667 68.0113 9.86333 67.9513 9.81C67.878 9.51 67.9246 9.32667 68.0913 9.26C68.278 9.16667 68.3946 9.09667 68.4413 9.05C68.5746 8.87667 68.638 8.60333 68.6313 8.23C68.6313 8.20333 68.6246 8.05 68.6113 7.77C68.6046 7.49 68.5913 7.08333 68.5713 6.55C68.5513 6.02333 68.538 5.62 68.5313 5.34C68.518 5.06 68.5113 4.90333 68.5113 4.87C68.5446 4.61667 68.378 4.44333 68.0113 4.35C67.9713 4.34333 67.9346 4.33667 67.9013 4.33C67.8613 4.32333 67.828 4.32 67.8013 4.32C66.848 4.66667 66.368 5.31667 66.3613 6.27C66.2413 6.69 66.1813 7.27667 66.1813 8.03C66.1813 8.47667 66.2446 8.83333 66.3713 9.1C66.3913 9.13333 66.4146 9.17 66.4413 9.21C66.468 9.24333 66.4913 9.28 66.5113 9.32C66.6913 9.5 66.7046 9.67667 66.5513 9.85C66.498 9.85 66.4213 9.84667 66.3213 9.84C66.228 9.84 66.1113 9.83333 65.9713 9.82C65.8313 9.81333 65.7113 9.81 65.6113 9.81C65.5113 9.81 65.4346 9.81 65.3813 9.81C65.0613 9.80333 64.8446 9.74667 64.7313 9.64C64.6513 9.56 64.708 9.44333 64.9013 9.29C64.9413 9.26333 64.9746 9.24 65.0013 9.22C65.028 9.19333 65.048 9.17667 65.0613 9.17C65.1613 8.91667 65.2113 8.64333 65.2113 8.35V5.29C65.2046 4.77667 64.9913 4.51 64.5713 4.49C64.4846 4.42333 64.4313 4.36667 64.4113 4.32C64.4113 4.22 64.4446 4.13667 64.5113 4.07L64.5713 4.01C64.6046 3.99667 64.8313 3.92333 65.2513 3.79C65.3113 3.77 65.3646 3.75 65.4113 3.73C65.4646 3.71667 65.5113 3.7 65.5513 3.68C65.5646 3.68 65.588 3.67667 65.6213 3.67C65.6546 3.66333 65.6913 3.65667 65.7313 3.65C65.9646 3.60333 66.1146 3.61333 66.1813 3.68C66.428 3.9 66.7546 4.01 67.1613 4.01C67.428 3.87 67.8146 3.87 68.3213 4.01C68.6813 4.11667 68.9313 4.17 69.0713 4.17C69.198 4.17 69.5446 4.1 70.1113 3.96C70.2713 3.92 70.4146 3.89 70.5413 3.87C70.668 3.85667 70.7813 3.85 70.8813 3.85C71.908 4.04333 72.4946 4.58 72.6413 5.46C72.688 5.72667 72.728 6.05 72.7613 6.43C72.788 6.81 72.8013 7.23667 72.8013 7.71C72.848 7.79667 72.8746 7.99667 72.8813 8.31C72.8946 8.38333 72.9046 8.45 72.9113 8.51C72.918 8.56333 72.9313 8.61333 72.9513 8.66C72.9446 8.84 73.0013 8.94667 73.1213 8.98C73.288 9.06 73.4013 9.16333 73.4613 9.29C73.508 9.42333 73.538 9.61 73.5513 9.85C73.4113 9.86333 72.6946 9.85 71.4013 9.81H71.3413C71.3346 9.41667 71.4046 9.15 71.5513 9.01C71.718 8.86333 71.8313 8.67667 71.8913 8.45C71.958 8.19667 71.9913 7.84333 71.9913 7.39C71.9446 7.17667 71.9046 6.88 71.8713 6.5C71.8446 6.12 71.8313 5.66 71.8313 5.12C71.8313 4.81333 71.668 4.57667 71.3413 4.41C71.228 4.35 71.1213 4.32 71.0213 4.32C70.4813 4.34 70.0513 4.51 69.7313 4.83C69.418 5.01667 69.2546 5.22667 69.2413 5.46C69.2413 6.84667 69.298 7.91333 69.4113 8.66C69.4113 8.84 69.5146 8.98667 69.7213 9.1C69.9146 9.20667 70.0246 9.31333 70.0513 9.42C70.0713 9.53333 70.0646 9.64 70.0313 9.74ZM77.5213 1.68C77.368 1.78 77.218 1.83 77.0713 1.83C76.6246 1.83 76.288 1.65333 76.0613 1.3C75.9613 1.14 75.9113 0.98 75.9113 0.82C75.9846 0.68 76.0746 0.553333 76.1813 0.44C76.288 0.32 76.4146 0.213333 76.5613 0.12C76.6946 0.0399999 76.808 0 76.9013 0C77.2346 0 77.5113 0.163334 77.7313 0.49C77.838 0.656667 77.8913 0.823334 77.8913 0.99C77.8913 1.26333 77.768 1.49333 77.5213 1.68ZM79.3913 9.68C77.6913 9.99333 76.1846 10.0167 74.8713 9.75C74.678 9.81 74.5513 9.77 74.4913 9.63C74.4646 9.52333 74.478 9.41 74.5313 9.29C74.7113 9.17 75.0246 9.14667 75.4713 9.22C75.638 9.26 75.7846 9.28 75.9113 9.28C76.0313 9.28 76.128 9.27 76.2013 9.25C76.4546 9.25 76.598 9.20667 76.6313 9.12C76.6646 9.06667 76.6813 8.99333 76.6813 8.9C76.6813 8.88 76.6813 8.85667 76.6813 8.83C76.688 8.80333 76.6946 8.77 76.7013 8.73C76.7613 8.49667 76.7546 8.33333 76.6813 8.24C76.6413 7.91333 76.6546 7.31333 76.7213 6.44C76.7746 5.67333 76.708 5.06 76.5213 4.6C76.2613 4.52 75.848 4.51 75.2813 4.57C75.2346 4.58333 75.188 4.59 75.1413 4.59C75.1013 4.59 75.0613 4.59333 75.0213 4.6C74.7413 4.62 74.5613 4.54 74.4813 4.36C74.3946 4.18667 74.5113 4.05333 74.8313 3.96C74.838 3.94667 74.8513 3.94 74.8713 3.94C74.9713 3.94 75.5546 3.9 76.6213 3.82C76.9546 3.79333 77.2546 3.78 77.5213 3.78C77.628 4.37333 77.6546 5.32333 77.6013 6.63C77.548 7.71667 77.5746 8.53333 77.6813 9.08H78.4313C78.578 9.07333 78.7146 9.07 78.8413 9.07C78.968 9.07 79.0813 9.07 79.1813 9.07C79.2546 9.07 79.328 9.12 79.4013 9.22C79.468 9.32667 79.508 9.43 79.5213 9.53C79.528 9.63 79.4846 9.68 79.3913 9.68ZM81.7613 9.82C81.188 9.88 80.738 9.87333 80.4113 9.8C80.3313 9.62667 80.3413 9.49 80.4413 9.39C80.488 9.35 80.5246 9.32333 80.5513 9.31C80.5713 9.29 80.5813 9.28 80.5813 9.28C80.9746 9.1 81.198 8.92333 81.2513 8.75C81.2646 8.71 81.2713 8.66333 81.2713 8.61C81.2713 8.43667 81.228 7.55 81.1413 5.95C81.1146 5.51 81.1013 5.14333 81.1013 4.85C81.1013 4.63667 81.008 4.50667 80.8213 4.46C80.588 4.40667 80.4513 4.37 80.4113 4.35C80.2846 4.35 80.2113 4.28333 80.1913 4.15C80.2113 4.02333 80.2846 3.91667 80.4113 3.83C80.498 3.83 80.6846 3.79 80.9713 3.71C81.0846 3.67667 81.1846 3.66 81.2713 3.66H81.7713C81.938 4 82.1546 4.12667 82.4213 4.04C82.448 4.03333 82.4846 4.02333 82.5313 4.01C82.578 3.99667 82.6346 3.97333 82.7013 3.94C82.7613 3.91333 82.8146 3.89 82.8613 3.87C82.9013 3.85667 82.9346 3.84333 82.9613 3.83C83.6346 3.61 84.1446 3.5 84.4913 3.5C85.0313 3.5 85.4646 3.76 85.7913 4.28C85.8313 4.34667 85.868 4.41333 85.9013 4.48C85.9413 4.54 85.978 4.61 86.0113 4.69C86.258 6.10333 86.3146 7.24 86.1813 8.1C86.1813 8.58 86.2613 8.89667 86.4213 9.05C86.5413 9.16333 86.6913 9.24 86.8713 9.28C87.0913 9.30667 87.198 9.39333 87.1913 9.54C87.1913 9.66667 87.1113 9.75333 86.9513 9.8H86.8713C86.8713 9.78 86.6146 9.77333 86.1013 9.78L85.3313 9.8C85.038 9.8 84.8846 9.72 84.8713 9.56C84.8713 9.46667 84.918 9.37333 85.0113 9.28C85.2246 8.63333 85.3313 7.78333 85.3313 6.73C85.218 6.26333 85.1613 5.63667 85.1613 4.85C85.1346 4.41667 84.9113 4.19333 84.4913 4.18C83.8846 4.18 83.4446 4.25 83.1713 4.39C83.0313 4.47667 82.9046 4.57667 82.7913 4.69C82.3846 4.97667 82.158 5.32667 82.1113 5.74V8.61C82.0646 8.75 82.1846 8.96333 82.4713 9.25C82.6846 9.46333 82.7646 9.60667 82.7113 9.68C82.638 9.74667 82.498 9.78667 82.2913 9.8C82.238 9.8 82.1646 9.8 82.0713 9.8C81.9846 9.80667 81.8813 9.81333 81.7613 9.82Z" fill="black"/>
</svg>
