<svg width="73.108" height="17.206" viewBox="0 0 73.108 17.206" xmlns="http://www.w3.org/2000/svg"><path transform="translate(0 13.244) scale(.014 -.014)" d="m522 130q-5 99-7.5 190t-4 161-2 112-0.5 43q-5 61-63 84 10-1 19.5-1t19.5 0q45 0 82.5 4.5t68.5 9.5 56.5 9.5 47.5 4.5q12 0 23-3-60-43-92.5-93.5t-32.5-113.5q0-74 49-168-23-58-37.5-125t-14.5-134q0-29 2.5-66.5t9.5-73.5q30-32 53.5-50t42.5-27 35.5-12 32.5-5l-26 66q34-19 68-36t70-30 75.5-20.5 84.5-7.5q30 0 62.5 2t68.5 7q-88-35-165.5-50.5t-146.5-15.5q-88 0-162.5 25t-138 67.5-116 98-96 117-78 124.5-61.5 120v-102q0-62 4-104t13-73 23-54.5 34-47.5q-22 6-38.5 12t-32 14-32 20-38.5 30q-27-48-72-83t-121-60q30 29 56 65.5t45.5 78 31 85.5 11.5 89q0 42-10.5 81t-34.5 75q49 94 49 168 0 63-32.5 113.5t-92.5 93.5q10 3 23 3 20 0 45.5-4.5t56-9.5 66-9.5 76.5-4.5q10 0 19.5 0t19.5 1q-54-21-62-74 18-45 43.5-104t57-124 68.5-131.5 77-126.5z"/><path transform="translate(10.752 13.244) scale(.014 -.014)" d="m236-32q-19 14-47 26t-57.5 20.5-57 13.5-45.5 5q8 13 14 36.5t9.5 51 5 56.5 1.5 53q0 61-7.5 101.5t-14.5 63.5q43 8 78.5 31t70.5 58q41-8 101-13.5t119-7.5q-3-18-3-45 0-21 2-45.5t5-48.5 8-46 11-38q-61-5-124-13.5t-123-18.5q-1-29-4-57t-5-49q12-5 30.5-9t39.5-7.5 41-6 34-3.5q5 31 24.5 53t66.5 36q-1-12-1-23.5t0-22.5q0-34 2.5-53.5t9.5-38.5q-19-2-45-7.5t-52-14-49.5-18-37.5-19.5zm-64 426q5-42 7.5-74t3.5-59l117 29q-5 20-8.5 42t-3.5 45q-23 0-55.5 4.5t-60.5 12.5z"/><path transform="translate(17.206 13.244) scale(.014 -.014)" d="m490-28q-19 12-36 22.5t-34 20-35.5 20-39.5 22.5h-7l-85-85h-10q-29 20-75 39t-91 31q2 10 4 32.5t2 67.5q0 94-11 159t-35 107l-29 6v17q21 3 46 9t47.5 13 40.5 15 27 16q15-21 26-97.5t16-205.5l3-87 51-27h6l42 43q3 16 4 32.5t1 51.5q0 84-4.5 134t-14.5 80l-29 6v17q21 3 46 9t47.5 13 40.5 15 27 16q8-31 11-75.5t3-110.5q0-28-0.5-58.5t-1.5-57.5-2-48-2-30l58-45h6q10 19 20 52t17.5 72.5 12.5 81.5 5 79q0 42-7.5 63t-26.5 31l1 16q84 6 158 30-2-3-2-11 0-40 4-67.5t18-41.5l-88-297-115-95z"/><path transform="translate(30.548 13.244) scale(.014 -.014)" d="m653 39q-42-30-65.5-72.5t-37.5-84.5q-5 20-14.5 43t-23.5 44.5-32.5 40-40.5 29.5q9 9 13.5 23.5t7 41 3.5 67.5 3 103q-4 2-26.5 19t-48.5 38q-35-21-68.5-41t-61.5-37q4-75 11.5-141.5t20.5-121.5q-26 13-46.5 18t-39.5 5q-17 0-33.5-3t-34-6.5-36.5-6.5-42-3q-5 0-11 0t-11 1q21 13 39 34.5t31 47.5 20.5 55 7.5 57q0 51-12 99.5t-38 80.5q28 52 38 98.5t10 92.5q0 27-3 59-42 6-64.5 31.5t-22.5 79.5q42-9 69-12.5t55-3.5q16 0 35 1.5t40.5 7.5 46.5 18.5 53 34.5q11-9 44-23t77-27 93.5-22 93.5-9q14 0 27 1t27 3q-11-23-43-47.5t-71-39.5q-3-14-3-30t1.5-34 4-36 6.5-34 9-27q-10-3-34.5-15.5t-58.5-32.5q23-21 50-44t55-40q-5-11-7.5-38t-2.5-62q0-26 2-52.5t7-51 12.5-44.5 19.5-32zm-204 580q-54 8-100 14t-91 17q-2-25-2-54t0-59v-157q32 19 66 38.5t63 36 48 28 21 13.5z"/><path transform="translate(40.404 13.244) scale(.014 -.014)" d="m214 484q69-23 115-31t85-8q22 0 33.5 0.5t22.5 2.5q-12-65-12-153 0-108 18-210-25-3-53-13t-56-25-54-34.5-47-40.5q-11 9-38 18.5t-59 17.5-64 13-53 5q-6 0-11.5-0.5t-10.5-1.5q14 12 20.5 47.5t6.5 92.5q0 29-2 63.5t-5.5 65.5-7.5 53-8 27q39 7 87 36.5t93 74.5zm120-127q-46 4-90 13.5t-67 21.5q5-42 7-78.5t2-73.5q0-29-1.5-65.5t-3.5-71.5q34-4 75-11t76-18z"/><path transform="translate(47.558 13.244) scale(.014 -.014)" d="m287-31q-18 11-49 22.5t-67.5 20.5-73.5 15-67 6q7 10 12.5 30t9.5 46.5 6 57.5 2 64q0 54-5.5 101.5t-16.5 82.5q54 9 111 27.5t106 41.5q33-21 77-37t89-24q-19-38-52.5-61.5t-68.5-23.5q-23 0-55 16t-63 45q5-38 7.5-75.5t2.5-75.5q0-33-2.5-72.5t-7.5-70.5q22-9 56.5-17t62.5-10q6 38 31.5 66.5t67.5 40.5q-1-8-1-22t0-34q0-38 3.5-61t8.5-40q-16-3-34.5-9.5t-36-15-32-17.5-21.5-17z"/><path transform="translate(53.83 13.244) scale(.014 -.014)" d="m302-78q5 13 9.5 32t7.5 40 5 43 2 41v83q-30 21-61 37.5t-66 30.5v-141q0-63 27-73v-15h-184v15q27 10 27 64v526q0 27-1.5 48t-5 38-9 32-14.5 30q18-7 47-7 31 0 67 10t81 32q-18-22-26.5-59t-8.5-97v-208q21 14 42 32t47 44q30-20 68.5-33.5t92.5-24.5q-9-29-9-70 0-11 1-28t3-25l-148-56v-4q54-11 93.5-27t73.5-36q-4-21-5.5-42t-1.5-49q0-57 7-89-20-9-42-21t-43-25-38.5-26-29.5-25zm-103 349 153 62-2 33-151 30z"/><path transform="translate(60.844 13.244) scale(.014 -.014)" d="m236-32q-19 14-47 26t-57.5 20.5-57 13.5-45.5 5q8 13 14 36.5t9.5 51 5 56.5 1.5 53q0 61-7.5 101.5t-14.5 63.5q43 8 78.5 31t70.5 58q41-8 101-13.5t119-7.5q-3-18-3-45 0-21 2-45.5t5-48.5 8-46 11-38q-61-5-124-13.5t-123-18.5q-1-29-4-57t-5-49q12-5 30.5-9t39.5-7.5 41-6 34-3.5q5 31 24.5 53t66.5 36q-1-12-1-23.5t0-22.5q0-34 2.5-53.5t9.5-38.5q-19-2-45-7.5t-52-14-49.5-18-37.5-19.5zm-64 426q5-42 7.5-74t3.5-59l117 29q-5 20-8.5 42t-3.5 45q-23 0-55.5 4.5t-60.5 12.5z"/><path transform="translate(67.298 13.244) scale(.014 -.014)" d="m200 321q23 37 43 78t37 87q19-12 54-24.5t77-22.5q-5-42-18-76.5t-33-57.5l-67 35h-12l-81-114v-138q0-35 12.5-50.5t44.5-20.5v-17h-214v15q27 10 27 64v349l-37 16v11q35 5 76 13.5t73 16.5l18-30z"/></svg>