<svg width="42" height="12" viewBox="0 0 42 12" fill="none" xmlns="http://www.w3.org/2000/svg">
<path d="M9.31 11.03H7.61L1.82 1.43V11.03H0.5V0.24H2.29L7.99 9.77V0.24H9.31V11.03ZM14.69 10.38C15.0233 10.38 15.31 10.3333 15.55 10.24C15.7967 10.1467 16.0067 10.02 16.18 9.86C16.3533 9.69333 16.5 9.50333 16.62 9.29C16.7333 9.07667 16.8233 8.85 16.89 8.61C16.9567 8.37 17.0033 8.12667 17.03 7.88C17.0567 7.62667 17.07 7.38333 17.07 7.15C17.07 6.92333 17.0567 6.68333 17.03 6.43C17.0033 6.18333 16.9567 5.94 16.89 5.7C16.8233 5.46 16.7333 5.23333 16.62 5.02C16.5 4.80667 16.3533 4.62 16.18 4.46C16.0067 4.29333 15.7967 4.16333 15.55 4.07C15.3033 3.97667 15.0167 3.93 14.69 3.93C14.37 3.93 14.0867 3.98 13.84 4.08C13.6 4.17333 13.39 4.3 13.21 4.46C13.0367 4.62667 12.8933 4.81667 12.78 5.03C12.66 5.24333 12.5667 5.46667 12.5 5.7C12.4333 5.94 12.3867 6.18667 12.36 6.44C12.3333 6.68667 12.32 6.92333 12.32 7.15C12.32 7.38333 12.3333 7.62667 12.36 7.88C12.3867 8.12667 12.4333 8.37 12.5 8.61C12.5667 8.85 12.66 9.07667 12.78 9.29C12.8933 9.50333 13.0367 9.69 13.21 9.85C13.39 10.01 13.6 10.14 13.84 10.24C14.0867 10.3333 14.37 10.38 14.69 10.38ZM18.31 7.13C18.31 7.45 18.2867 7.77667 18.24 8.11C18.1933 8.43667 18.1167 8.75667 18.01 9.07C17.9033 9.37667 17.76 9.66667 17.58 9.94C17.4 10.2067 17.1767 10.44 16.91 10.64C16.6433 10.84 16.3267 11 15.96 11.12C15.5933 11.2333 15.17 11.29 14.69 11.29C14.21 11.29 13.7867 11.2333 13.42 11.12C13.0533 11 12.7367 10.84 12.47 10.64C12.2033 10.44 11.98 10.2067 11.8 9.94C11.62 9.66667 11.4767 9.37667 11.37 9.07C11.2567 8.75667 11.1767 8.43667 11.13 8.11C11.0833 7.78333 11.06 7.45667 11.06 7.13C11.06 6.81 11.0833 6.48333 11.13 6.15C11.1767 5.82333 11.2567 5.50667 11.37 5.2C11.4767 4.88667 11.62 4.59667 11.8 4.33C11.98 4.06333 12.2033 3.83 12.47 3.63C12.7367 3.43 13.0533 3.27333 13.42 3.16C13.7867 3.04 14.21 2.98 14.69 2.98C15.17 2.98 15.5933 3.04 15.96 3.16C16.3267 3.27333 16.6433 3.43 16.91 3.63C17.1767 3.83 17.4 4.06333 17.58 4.33C17.76 4.59667 17.9033 4.88667 18.01 5.2C18.1167 5.50667 18.1933 5.82333 18.24 6.15C18.2867 6.48333 18.31 6.81 18.31 7.13ZM23.72 10.23C24.36 10.23 24.8467 9.95333 25.18 9.4C25.52 8.85333 25.69 8 25.69 6.84C25.69 6.31333 25.6433 5.86333 25.55 5.49C25.4633 5.11 25.3333 4.79667 25.16 4.55C24.9933 4.30333 24.7867 4.12333 24.54 4.01C24.3 3.89 24.0267 3.83 23.72 3.83C23.32 3.83 22.9167 3.91667 22.51 4.09C22.11 4.26333 21.7033 4.52 21.29 4.86V9.16C22.0567 9.87333 22.8667 10.23 23.72 10.23ZM23.64 11.17C23.4133 11.17 23.1867 11.1367 22.96 11.07C22.7333 11.01 22.5133 10.92 22.3 10.8C22.0867 10.68 21.8833 10.5367 21.69 10.37C21.49 10.2033 21.3067 10.0167 21.14 9.81L20.95 11.03H19.99V0.24L21.29 0V3.99C21.47 3.81 21.6633 3.65 21.87 3.51C22.07 3.37667 22.2733 3.26333 22.48 3.17C22.68 3.07667 22.8733 3.00667 23.06 2.96C23.24 2.92 23.4 2.9 23.54 2.9C24.6267 2.9 25.4567 3.22333 26.03 3.87C26.6033 4.51667 26.89 5.50667 26.89 6.84C26.89 7.69333 26.8 8.39667 26.62 8.95C26.4467 9.51 26.21 9.95333 25.91 10.28C25.61 10.6067 25.2633 10.8367 24.87 10.97C24.4767 11.1033 24.0667 11.17 23.64 11.17ZM30.01 11.03H28.77V3.04H30.01V11.03ZM28.65 1.04C28.65 0.926667 28.67 0.823333 28.71 0.73C28.75 0.636667 28.8033 0.553333 28.87 0.48C28.9367 0.406667 29.0167 0.35 29.11 0.31C29.2033 0.27 29.3033 0.25 29.41 0.25C29.5167 0.25 29.6167 0.27 29.71 0.31C29.7967 0.356667 29.8767 0.416667 29.95 0.49C30.0167 0.563334 30.0667 0.646667 30.1 0.74C30.14 0.84 30.16 0.94 30.16 1.04C30.16 1.14667 30.14 1.24667 30.1 1.34C30.06 1.43333 30.0067 1.51667 29.94 1.59C29.8733 1.66333 29.7933 1.72 29.7 1.76C29.6067 1.8 29.51 1.82 29.41 1.82C29.2967 1.82 29.1933 1.8 29.1 1.76C29.0133 1.71333 28.9367 1.65333 28.87 1.58C28.7967 1.50667 28.7433 1.42333 28.71 1.33C28.67 1.23667 28.65 1.14 28.65 1.04ZM33.57 0V11.03H32.27V0.24L33.57 0ZM41.11 9.43L41.53 10.34C41.35 10.4733 41.1433 10.59 40.91 10.69C40.6767 10.7967 40.44 10.8833 40.2 10.95C39.96 11.0233 39.73 11.0767 39.51 11.11C39.2833 11.15 39.09 11.17 38.93 11.17C38.33 11.17 37.8067 11.07 37.36 10.87C36.9133 10.67 36.54 10.3867 36.24 10.02C35.9467 9.66 35.7233 9.23 35.57 8.73C35.4233 8.23 35.35 7.68 35.35 7.08C35.35 6.54 35.4233 6.01667 35.57 5.51C35.71 5.00333 35.9233 4.55667 36.21 4.17C36.49 3.78333 36.84 3.47333 37.26 3.24C37.68 3.01333 38.1667 2.9 38.72 2.9C39.24 2.9 39.6967 2.97667 40.09 3.13C40.4833 3.29 40.8167 3.51667 41.09 3.81C41.3567 4.11 41.56 4.47333 41.7 4.9C41.8333 5.32667 41.9 5.81 41.9 6.35C41.9 6.49667 41.8967 6.63667 41.89 6.77C41.8767 6.91 41.8633 7.03667 41.85 7.15H36.65C36.65 7.72333 36.7067 8.20667 36.82 8.6C36.9267 8.98667 37.0833 9.30333 37.29 9.55C37.49 9.79 37.74 9.96333 38.04 10.07C38.3333 10.1767 38.6667 10.23 39.04 10.23C39.26 10.23 39.4633 10.2133 39.65 10.18C39.83 10.1467 40 10.0967 40.16 10.03C40.32 9.96333 40.4767 9.88 40.63 9.78C40.7833 9.68 40.9433 9.56333 41.11 9.43ZM40.75 6.37V6.13C40.75 5.76333 40.7067 5.43667 40.62 5.15C40.5267 4.87 40.3967 4.63 40.23 4.43C40.07 4.23667 39.8767 4.09 39.65 3.99C39.4233 3.88333 39.1767 3.83 38.91 3.83C38.55 3.83 38.2333 3.89667 37.96 4.03C37.6933 4.16333 37.4667 4.34333 37.28 4.57C37.1 4.79667 36.9567 5.06333 36.85 5.37C36.75 5.67667 36.6833 6.01 36.65 6.37H40.75Z" fill="black"/>
</svg>
