<svg width="85" height="16" viewBox="0 0 85 16" fill="none" xmlns="http://www.w3.org/2000/svg">
<path d="M3.4 11.76L3.56 9.91C3.56 9.76333 3.48 9.64 3.32 9.54C3.05333 9.39333 2.72333 9.32 2.33 9.32C1.81667 9.32 1.46 9.42333 1.26 9.63C1.17333 9.71667 1.13 9.85 1.13 10.03C1.13 10.2033 1.18333 10.51 1.29 10.95C1.39667 11.3833 1.45 11.69 1.45 11.87C1.45 12.05 1.41667 12.1933 1.35 12.3C1.28333 12.4067 1.18667 12.46 1.06 12.46C0.926667 12.46 0.826667 12.4067 0.76 12.3C0.693333 12.1933 0.66 12.05 0.66 11.87C0.66 11.69 0.716667 11.3767 0.83 10.93C0.936667 10.4833 0.99 10.1433 0.99 9.91V1.53C0.99 0.996666 0.826667 0.55 0.5 0.19L0.64 0.04C1.00667 0.366667 1.45667 0.53 1.99 0.53H4.03C4.32333 0.53 4.57 0.496666 4.77 0.43C4.97667 0.356667 5.14 0.216666 5.26 0.00999975L5.49 0.12C5.37 0.4 5.31 0.666667 5.31 0.92C5.31 1.12 5.67 1.63333 6.39 2.46C7.33 3.54 7.93333 4.26333 8.2 4.63C8.46667 4.99667 8.64333 5.29333 8.73 5.52H9.14C8.91333 5.19333 8.8 4.73333 8.8 4.14C8.8 3.86 8.83333 3.44333 8.9 2.89C8.97333 2.33667 9.01 1.92 9.01 1.64C9.01 0.893333 8.77333 0.41 8.3 0.19L8.44 0.04C8.80667 0.366667 9.25667 0.53 9.79 0.53H11.19C11.7167 0.53 12.1633 0.366667 12.53 0.04L12.67 0.19C12.35 0.55 12.19 0.996666 12.19 1.53L12.17 9.88C12.17 10.0733 12.2167 10.3667 12.31 10.76C12.3967 11.1467 12.44 11.44 12.44 11.64C12.44 11.9267 12.33 12.07 12.11 12.07C11.8833 12.07 11.77 11.9267 11.77 11.64C11.77 11.4467 11.8133 11.1633 11.9 10.79C11.9867 10.4167 12.03 10.1633 12.03 10.03C12.03 9.89 11.9867 9.79 11.9 9.73C11.8067 9.67 11.7167 9.64 11.63 9.64H8.93C8.55 9.64 8.36 9.99 8.36 10.69C8.36 10.9767 8.41333 11.39 8.52 11.93C8.62667 12.4767 8.68 12.89 8.68 13.17C8.68 13.5633 8.53 13.76 8.23 13.76C7.93667 13.76 7.79 13.56 7.79 13.16C7.79 12.9067 7.84667 12.5367 7.96 12.05C8.08 11.5567 8.14333 11.19 8.15 10.95L8.16 10.04C8.17333 9.61333 8.13 9.33667 8.03 9.21L4.75 5.06C4.66333 4.94667 4.57 4.71 4.47 4.35L4.05 4.36C4.29 4.60667 4.41 4.88 4.41 5.18V9.09L4.54 12.55C4.54 12.6167 4.51667 12.6767 4.47 12.73C4.43 12.7833 4.37 12.81 4.29 12.81C4.21667 12.81 4.15667 12.78 4.11 12.72C4.05667 12.66 4.03 12.59 4.03 12.51L4.11 9.89C4.11 9.83 4.09 9.78 4.05 9.74C4.01 9.69333 3.96333 9.67 3.91 9.67C3.79 9.67 3.73 9.76 3.73 9.94C3.73 10.12 3.76 10.42 3.82 10.84C3.88 11.2533 3.91 11.5367 3.91 11.69C3.91 12.0367 3.82667 12.21 3.66 12.21C3.48667 12.21 3.4 12.06 3.4 11.76ZM20.37 10.75L20.42 10.09C20.42 9.97667 20.3667 9.89 20.26 9.83C20.1467 9.77 20.0267 9.74 19.9 9.74C19.7733 9.74 19.66 9.77333 19.56 9.84C19.46 9.90667 19.41 10.0033 19.41 10.13V11.7C19.41 11.9333 19.4567 12.27 19.55 12.71C19.65 13.15 19.7 13.4667 19.7 13.66C19.7 13.8467 19.6567 14 19.57 14.12C19.49 14.2467 19.38 14.31 19.24 14.31C19.0933 14.31 18.9833 14.2467 18.91 14.12C18.8367 13.9933 18.8 13.8267 18.8 13.62C18.8 13.4133 18.8533 13.0567 18.96 12.55C19.0667 12.0433 19.12 11.6533 19.12 11.38C19.12 10.2533 18.91 9.69 18.49 9.69C17.9233 9.69 17.64 9.66667 17.64 9.62V9.63C17.64 9.94333 17.71 10.4067 17.85 11.02C17.99 11.6267 18.06 12.0633 18.06 12.33C18.06 12.59 18.01 12.8067 17.91 12.98C17.8167 13.1533 17.67 13.24 17.47 13.24C17.2767 13.24 17.1233 13.1567 17.01 12.99C16.8967 12.8233 16.84 12.61 16.84 12.35C16.84 12.09 16.9067 11.64 17.04 11C17.1733 10.3667 17.24 9.88667 17.24 9.56C16.16 9.22 15.3467 8.66 14.8 7.88C14.2533 7.10667 13.98 6.15 13.98 5.01C13.98 2.65 15.17 1.16 17.55 0.54C18.3233 0.34 19.12 0.24 19.94 0.24C20.76 0.24 21.46 0.286666 22.04 0.38C22.6133 0.466666 23.17 0.626666 23.71 0.86C24.25 1.08667 24.71 1.37667 25.09 1.73C25.4767 2.08333 25.7833 2.54 26.01 3.1C26.2367 3.66 26.35 4.29667 26.35 5.01C26.35 6.47 25.94 7.6 25.12 8.4C24.3 9.2 23.1467 9.69 21.66 9.87C21.64 9.90333 21.63 9.95333 21.63 10.02L21.67 10.4C21.67 10.6333 21.6067 10.75 21.48 10.75C21.3467 10.75 21.28 10.6367 21.28 10.41L21.3 10.03C21.3 9.89 21.2033 9.82 21.01 9.82C20.99 9.86667 20.98 9.94667 20.98 10.06L21.02 10.72C21.02 10.86 20.9933 10.9933 20.94 11.12C20.8933 11.2467 20.81 11.31 20.69 11.31C20.4767 11.31 20.37 11.1233 20.37 10.75ZM17.79 5.02C17.79 6.68667 18.5833 7.52 20.17 7.52C21.7567 7.52 22.55 6.68667 22.55 5.02C22.55 4.25333 22.3433 3.66667 21.93 3.26C21.5233 2.85333 20.9367 2.65 20.17 2.65C19.4033 2.65 18.8167 2.85333 18.41 3.26C17.9967 3.66667 17.79 4.25333 17.79 5.02ZM32.25 11.64L32.32 10.95V9.67C31.0933 9.60333 30.1767 9.43333 29.57 9.16C28.9633 8.89333 28.5167 8.55333 28.23 8.14C28.0567 7.9 27.9233 7.63 27.83 7.33C27.7367 7.03667 27.5833 6.81333 27.37 6.66L27.47 6.52C27.6767 6.65333 27.9 6.72 28.14 6.72C28.38 6.72 28.6867 6.71 29.06 6.69C29.4333 6.67667 29.8533 6.65667 30.32 6.63C30.7867 6.60333 31.1233 6.58667 31.33 6.58C31.53 6.56667 31.6767 6.53667 31.77 6.49C31.8633 6.44333 31.9333 6.35667 31.98 6.23L32.28 6.33C32.2667 6.37 32.26 6.41667 32.26 6.47C32.26 6.62333 32.3867 6.79667 32.64 6.99C32.8867 7.17667 33.34 7.27 34 7.27C34.44 7.27 34.7533 7.19667 34.94 7.05C35.02 6.98333 35.06 6.9 35.06 6.8C35.06 6.58 34.94 6.43333 34.7 6.36C34.4533 6.28667 34.1533 6.22333 33.8 6.17C33.4533 6.11667 33.1067 6.07333 32.76 6.04C32.4067 6.01333 32.03 5.97 31.63 5.91C31.2233 5.85 30.84 5.78333 30.48 5.71C30.12 5.64333 29.77 5.54 29.43 5.4C29.09 5.26667 28.8 5.10667 28.56 4.92C28.3133 4.73333 28.1167 4.49667 27.97 4.21C27.8233 3.91667 27.75 3.58667 27.75 3.22C27.75 2.85333 27.8067 2.51667 27.92 2.21C28.04 1.90333 28.2 1.64 28.4 1.42C28.6 1.20667 28.8433 1.01333 29.13 0.84C29.4167 0.673333 29.7133 0.536667 30.02 0.43C30.3333 0.323333 30.6767 0.24 31.05 0.18C31.69 0.0599998 32.2933 0 32.86 0C33.4333 0 33.87 0.00999973 34.17 0.0299997C34.4633 0.0433331 34.8133 0.0699997 35.22 0.11C35.62 0.156666 35.9833 0.23 36.31 0.33C36.6367 0.423333 36.96 0.546667 37.28 0.7C37.9467 1.00667 38.4133 1.48667 38.68 2.14C38.7933 2.37333 38.9433 2.59 39.13 2.79L39.04 2.95C38.8533 2.81667 38.6333 2.75 38.38 2.75H38.29C37.9233 2.76333 37.4033 2.79 36.73 2.83C36.05 2.87 35.6133 2.89333 35.42 2.9C35.2267 2.90667 35.09 2.93333 35.01 2.98C34.9233 3.02667 34.8633 3.11333 34.83 3.24L34.52 3.16C34.54 3.12 34.55 3.07667 34.55 3.03C34.55 2.83667 34.3933 2.67 34.08 2.53C33.7733 2.39667 33.4233 2.33 33.03 2.33C32.2633 2.33 31.88 2.48 31.88 2.78C31.88 3.04667 32.4533 3.24 33.6 3.36C33.8733 3.39333 34.18 3.42667 34.52 3.46C35.7067 3.58 36.6167 3.74333 37.25 3.95C38.5833 4.36333 39.25 5.16333 39.25 6.35C39.25 6.83 39.15 7.26333 38.95 7.65C38.75 8.03 38.49 8.34333 38.17 8.59C37.8433 8.83 37.4633 9.03 37.03 9.19C36.2367 9.47667 35.3367 9.62 34.33 9.62C34.0567 9.62 33.8933 9.61667 33.84 9.61C33.5933 9.61 33.47 9.8 33.47 10.18V10.34C33.47 10.4667 33.5 10.65 33.56 10.89C33.6267 11.13 33.66 11.3067 33.66 11.42C33.66 11.6667 33.5733 11.79 33.4 11.79C33.3133 11.79 33.2467 11.7533 33.2 11.68C33.1533 11.6067 33.13 11.5133 33.13 11.4C33.13 11.2933 33.16 11.11 33.22 10.85C33.2733 10.5833 33.3 10.3933 33.3 10.28C33.3 10.16 33.3 10.0767 33.3 10.03C33.2933 9.97667 33.2867 9.91667 33.28 9.85C33.2667 9.77666 33.2467 9.72333 33.22 9.69C33.1533 9.61 33.0433 9.57 32.89 9.57C32.61 9.57 32.47 9.81667 32.47 10.31L32.51 11.43C32.51 11.73 32.4667 11.88 32.38 11.88C32.2933 11.88 32.25 11.8 32.25 11.64ZM44.3 13.32L44.38 11.51C44.38 10.9167 44.3567 10.5433 44.31 10.39C44.27 10.2367 44.2267 10.1 44.18 9.98C44.1333 9.86 44.0733 9.76333 44 9.69C43.9267 9.62333 43.84 9.55667 43.74 9.49C43.5467 9.36333 43.2467 9.3 42.84 9.3C42.4267 9.3 42.08 9.46667 41.8 9.8C41.52 10.1333 41.38 10.53 41.38 10.99C41.38 11.1633 41.4133 11.4233 41.48 11.77C41.5533 12.1167 41.59 12.3767 41.59 12.55C41.59 12.8767 41.4733 13.04 41.24 13.04C41.0067 13.04 40.89 12.88 40.89 12.56C40.89 12.38 40.9267 12.1133 41 11.76C41.0667 11.4067 41.1 11.1367 41.1 10.95L41.15 9.12V1.09C41.15 0.803333 41.06 0.573333 40.88 0.4L41.02 0.26C41.2133 0.44 41.44 0.53 41.7 0.53H44.18C44.4533 0.53 44.68 0.44 44.86 0.26L45 0.4C44.82 0.58 44.73 0.81 44.73 1.09V9.09C44.73 9.32333 44.7067 9.73 44.66 10.31C44.6067 10.89 44.59 11.34 44.61 11.66H44.6C44.7667 12.4133 44.85 12.99 44.85 13.39C44.85 13.7833 44.7767 13.98 44.63 13.98C44.41 13.98 44.3 13.76 44.3 13.32ZM50.75 6.82L50.69 8.21C50.69 8.46333 50.75 8.83333 50.87 9.32C50.99 9.81333 51.05 10.1767 51.05 10.41C51.05 10.6433 51.09 10.9733 51.17 11.4C51.25 11.82 51.29 12.16 51.29 12.42C51.29 12.68 51.18 12.81 50.96 12.81C50.7333 12.81 50.62 12.6833 50.62 12.43C50.62 12.1767 50.66 11.8367 50.74 11.41C50.82 10.99 50.86 10.6767 50.86 10.47C50.86 10.2567 50.7867 10.0667 50.64 9.9C50.5 9.72667 50.3267 9.64 50.12 9.64C49.6667 9.64 49.44 10.1933 49.44 11.3C49.44 11.56 49.4733 11.95 49.54 12.47C49.6133 12.99 49.65 13.3467 49.65 13.54C49.65 13.9133 49.5367 14.1 49.31 14.1C49.1967 14.1 49.11 14.05 49.05 13.95C48.99 13.85 48.96 13.71 48.96 13.53C48.96 13.35 49 13.0167 49.08 12.53C49.1533 12.05 49.19 11.7 49.19 11.48C49.19 11.26 49.18 11.0533 49.16 10.86C49.1333 10.6667 49.0867 10.46 49.02 10.24C48.9533 10.02 48.85 9.84 48.71 9.7C48.5633 9.56667 48.3767 9.5 48.15 9.5C47.9233 9.5 47.72 9.59667 47.54 9.79C47.36 9.98333 47.27 10.17 47.27 10.35C47.27 10.5233 47.3033 10.7067 47.37 10.9C47.4367 11.0867 47.47 11.2333 47.47 11.34C47.47 11.54 47.3933 11.64 47.24 11.64C47.0933 11.64 47.02 11.54 47.02 11.34L47.19 10.25L47.18 1.55C47.18 1.01 47.0167 0.56 46.69 0.2L46.82 0.0599999C47.1867 0.386667 47.6367 0.55 48.17 0.55H56.06C56.5933 0.55 57.04 0.386667 57.4 0.0599999L57.54 0.2C57.22 0.566666 57.06 0.976666 57.06 1.43C57.06 1.88333 57.09 2.23667 57.15 2.49C57.2033 2.74333 57.3333 2.98333 57.54 3.21L57.4 3.35C57.16 3.03 56.86 2.87 56.5 2.87H51.31C51.0567 2.87 50.84 2.78333 50.66 2.61L50.53 2.74C50.7033 2.92 50.79 3.14 50.79 3.4C50.79 3.66 50.7033 3.88 50.53 4.06L50.66 4.19C50.8067 4.04333 50.9867 3.95 51.2 3.91C51.4133 3.87 51.6667 3.85 51.96 3.85L54.55 3.99C54.9767 3.99 55.3533 3.95333 55.68 3.88C56.0067 3.80667 56.2867 3.66 56.52 3.44L56.65 3.58C56.31 3.95333 56.14 4.47 56.14 5.13C56.14 5.79 56.2967 6.28333 56.61 6.61L56.47 6.75C56.0567 6.37667 55.3867 6.19 54.46 6.19L51.9 6.34C51.28 6.34 50.8533 6.22667 50.62 6L50.49 6.13C50.6633 6.30333 50.75 6.53333 50.75 6.82ZM62.96 8.51L62.85 7.66V7.58C62.95 7.41333 63.08 7.33 63.24 7.33L68.82 7.34C69.1 7.34 69.3267 7.25 69.5 7.07L69.63 7.21C69.43 7.41 69.33 7.79 69.33 8.35C69.33 8.35 69.33 8.48333 69.33 8.75C69.33 9.21 69.43 9.54667 69.63 9.76L69.5 9.89C69.32 9.71667 69.0933 9.63 68.82 9.63H60.73C60.33 9.63 60.0333 9.70667 59.84 9.86C59.62 10.04 59.51 10.5533 59.51 11.4C59.51 11.7467 59.5633 12.2533 59.67 12.92C59.77 13.5867 59.82 14.09 59.82 14.43C59.82 14.9167 59.65 15.16 59.31 15.16C58.93 15.16 58.74 14.9067 58.74 14.4C58.74 14.06 58.8167 13.5567 58.97 12.89C59.1233 12.2167 59.2 11.7067 59.2 11.36L59.16 9.07V1.1C59.16 0.82 59.0733 0.596667 58.9 0.43L59.04 0.28C59.2267 0.46 59.4533 0.55 59.72 0.55H68.5C68.78 0.55 69.0067 0.46 69.18 0.28L69.32 0.43C69.12 0.63 69.02 1.00667 69.02 1.56V1.94C69.02 2.42667 69.12 2.77 69.32 2.97L69.18 3.1C68.9533 2.86667 68.42 2.75 67.58 2.75L64.18 2.91C63.34 2.91 62.8067 2.79333 62.58 2.56L62.44 2.69C62.6133 2.86333 62.7 3.09333 62.7 3.38C62.7 3.66667 62.6133 3.89667 62.44 4.07L62.58 4.2C62.8 3.97333 63.26 3.86 63.96 3.86L66.82 4.01C67.5267 4.01 67.9967 3.89667 68.23 3.67L68.37 3.81C68.17 4.01 68.07 4.39333 68.07 4.96V5.35C68.07 5.81667 68.17 6.15667 68.37 6.37L68.23 6.51C68.01 6.28333 67.5467 6.17 66.84 6.17L63.97 6.32C63.27 6.32 62.8067 6.20667 62.58 5.98L62.44 6.11C62.58 6.25 62.66 6.41333 62.68 6.6C62.7067 6.79333 62.72 6.92667 62.72 7C62.7267 7.08 62.7267 7.20333 62.72 7.37C62.72 7.53667 62.72 7.63667 62.72 7.67L62.6 8.49C62.6 8.65667 62.66 8.74 62.78 8.74C62.9 8.74 62.96 8.66333 62.96 8.51ZM82.35 11.88L82.5 10.47C82.5 9.89667 82.2667 9.45667 81.8 9.15C81.3333 8.85 80.8433 8.71667 80.33 8.75C79.81 8.78333 79.45 8.95667 79.25 9.27C79.1433 9.42333 79.09 9.6 79.09 9.8L79.05 11.64C79.05 11.8867 79.09 12.2567 79.17 12.75C79.25 13.25 79.29 13.6233 79.29 13.87C79.29 14.31 79.1633 14.53 78.91 14.53C78.6567 14.53 78.53 14.3167 78.53 13.89C78.53 13.61 78.5733 13.2067 78.66 12.68C78.74 12.1467 78.7867 11.7433 78.8 11.47C78.8067 11.1967 78.81 10.6133 78.81 9.72C78.81 9.48667 78.74 9.21333 78.6 8.9C78.4533 8.59333 78.2233 8.16667 77.91 7.62C77.59 7.08 77.33 6.60333 77.13 6.19L76.93 6.07C76.8167 6.27 76.6233 6.37 76.35 6.37L75.77 6.39C75.3833 6.39 75.09 6.29667 74.89 6.11L74.75 6.24C74.7633 6.41333 74.77 6.77333 74.77 7.32L74.76 9C74.76 9.5 74.77 9.86666 74.79 10.1L74.92 11.11C74.92 11.2967 74.8567 11.39 74.73 11.39C74.6033 11.39 74.54 11.3033 74.54 11.13L74.65 10.28C74.65 10.0733 74.5867 9.91 74.46 9.79C74.34 9.67 74.1833 9.61 73.99 9.61C73.7967 9.61 73.6267 9.69667 73.48 9.87C73.3333 10.0433 73.26 10.2667 73.26 10.54C73.26 10.8133 73.31 11.1833 73.41 11.65C73.51 12.1167 73.56 12.45 73.56 12.65C73.56 13.0833 73.4067 13.3 73.1 13.3C72.7933 13.3 72.64 13.09 72.64 12.67C72.64 12.47 72.6867 12.1267 72.78 11.64C72.8667 11.1533 72.91 10.7667 72.91 10.48C72.91 10.1933 72.8433 9.95667 72.71 9.77C72.5767 9.59 72.4267 9.5 72.26 9.5C72.0933 9.5 71.95 9.55667 71.83 9.67C71.71 9.79 71.65 9.93333 71.65 10.1L71.84 11.72C71.84 12 71.7367 12.14 71.53 12.14C71.3233 12.14 71.22 12 71.22 11.72C71.22 11.5533 71.2633 11.2667 71.35 10.86C71.4367 10.4533 71.4767 10.1367 71.47 9.91C71.47 9.67667 71.47 6.72667 71.47 1.06C71.47 0.78 71.3833 0.553333 71.21 0.38L71.34 0.25C71.52 0.423333 71.7467 0.51 72.02 0.51H78.15C79.1033 0.51 79.7467 0.536666 80.08 0.59C80.4067 0.65 80.6933 0.71 80.94 0.77C81.1933 0.836667 81.4033 0.916666 81.57 1.01C81.7433 1.10333 81.9167 1.22 82.09 1.36C82.27 1.5 82.41 1.65667 82.51 1.83C82.7567 2.23667 82.88 2.67 82.88 3.13C82.88 3.58333 82.8433 3.95333 82.77 4.24C82.6967 4.53333 82.58 4.80667 82.42 5.06C82.06 5.61333 81.4333 5.89 80.54 5.89L80.49 6.04C80.7767 6.16 80.9667 6.32 81.06 6.52C81.4667 7.39333 81.7633 7.94667 81.95 8.18C82.1433 8.41333 82.3233 8.6 82.49 8.74C82.65 8.88667 82.8833 9.03333 83.19 9.18C83.4967 9.32 83.68 9.41333 83.74 9.46C83.8067 9.5 83.84 9.53333 83.84 9.56C83.84 10.02 83.9 10.6067 84.02 11.32C84.1467 12.0333 84.21 12.4933 84.21 12.7C84.21 12.9067 84.2 13.0567 84.18 13.15C84.1667 13.2367 84.1333 13.3267 84.08 13.42C84.0267 13.5067 83.9467 13.55 83.84 13.55C83.7333 13.55 83.6533 13.4733 83.6 13.32C83.5467 13.1733 83.52 12.99 83.52 12.77C83.52 12.55 83.55 12.16 83.61 11.6C83.67 11.0333 83.7 10.6067 83.7 10.32C83.7 9.75333 83.5167 9.47 83.15 9.47C82.97 9.47 82.8333 9.5 82.74 9.56C82.6533 9.62667 82.61 9.76 82.61 9.96C82.61 10.16 82.65 10.4733 82.73 10.9C82.8167 11.3333 82.86 11.6633 82.86 11.89C82.86 12.11 82.7733 12.22 82.6 12.22C82.4333 12.22 82.35 12.1067 82.35 11.88ZM77.8 2.78L76.18 2.82C75.52 2.82 75.09 2.72333 74.89 2.53L74.75 2.66C74.93 2.84 75.02 3.06667 75.02 3.34V3.8C75.02 4.07333 74.93 4.30333 74.75 4.49L74.89 4.62C75.09 4.42 75.4967 4.32 76.11 4.32L77.84 4.38C78.3 4.38 78.6567 4.32 78.91 4.2C79.1633 4.08 79.29 3.86 79.29 3.54C79.29 3.33333 79.2167 3.17 79.07 3.05C78.93 2.93667 78.76 2.86333 78.56 2.83C78.36 2.79667 78.1067 2.78 77.8 2.78Z" fill="black"/>
</svg>
