<svg width="146" height="14" viewBox="0 0 146 14" fill="none" xmlns="http://www.w3.org/2000/svg">
<path d="M8.42 0.64V10.64H6.95L1.6 2.34H1.55C1.57 2.55333 1.58667 2.80667 1.6 3.1C1.61333 3.39333 1.62667 3.70667 1.64 4.04C1.65333 4.37333 1.66 4.71 1.66 5.05V10.64H0.5V0.64H1.95L7.29 8.92H7.34C7.33333 8.76667 7.32333 8.54333 7.31 8.25C7.29667 7.95 7.28333 7.62333 7.27 7.27C7.25667 6.91 7.25 6.58333 7.25 6.29V0.64H8.42ZM17.49 6.87C17.49 7.49667 17.41 8.05 17.25 8.53C17.0833 9.01 16.85 9.42 16.55 9.76C16.2433 10.0933 15.8733 10.3467 15.44 10.52C15.0067 10.6933 14.5233 10.78 13.99 10.78C13.4967 10.78 13.04 10.6933 12.62 10.52C12.2 10.3467 11.8367 10.0933 11.53 9.76C11.2233 9.42 10.9833 9.01 10.81 8.53C10.6367 8.05 10.55 7.49667 10.55 6.87C10.55 6.04333 10.69 5.34333 10.97 4.77C11.25 4.19667 11.65 3.75667 12.17 3.45C12.6967 3.15 13.32 3 14.04 3C14.72 3 15.32 3.15 15.84 3.45C16.3533 3.75667 16.7567 4.19667 17.05 4.77C17.3433 5.34333 17.49 6.04333 17.49 6.87ZM11.82 6.87C11.82 7.46333 11.9 7.97667 12.06 8.41C12.2133 8.84333 12.4533 9.17667 12.78 9.41C13.1067 9.64333 13.52 9.76 14.02 9.76C14.5267 9.76 14.9433 9.64333 15.27 9.41C15.5967 9.17667 15.8367 8.84333 15.99 8.41C16.1433 7.97667 16.22 7.46333 16.22 6.87C16.22 6.27667 16.14 5.77 15.98 5.35C15.82 4.93 15.58 4.60333 15.26 4.37C14.94 4.14333 14.5233 4.03 14.01 4.03C13.2433 4.03 12.6867 4.28333 12.34 4.79C11.9933 5.29 11.82 5.98333 11.82 6.87ZM21.95 9.77C22.1367 9.77 22.3267 9.75333 22.52 9.72C22.7133 9.68667 22.8733 9.65333 23 9.62V10.56C22.8667 10.62 22.68 10.6733 22.44 10.72C22.1933 10.76 21.96 10.78 21.74 10.78C21.3467 10.78 20.9833 10.7133 20.65 10.58C20.3167 10.44 20.05 10.2033 19.85 9.87C19.6433 9.53667 19.54 9.06667 19.54 8.46V4.09H18.47V3.5L19.55 3.01L20.04 1.41H20.77V3.14H22.94V4.09H20.77V8.43C20.77 8.88333 20.88 9.22 21.1 9.44C21.32 9.66 21.6033 9.77 21.95 9.77ZM31.02 6.87C31.02 7.49667 30.9367 8.05 30.77 8.53C30.61 9.01 30.3767 9.42 30.07 9.76C29.77 10.0933 29.4033 10.3467 28.97 10.52C28.5367 10.6933 28.0533 10.78 27.52 10.78C27.0267 10.78 26.57 10.6933 26.15 10.52C25.73 10.3467 25.3633 10.0933 25.05 9.76C24.7433 9.42 24.5033 9.01 24.33 8.53C24.1567 8.05 24.07 7.49667 24.07 6.87C24.07 6.04333 24.21 5.34333 24.49 4.77C24.77 4.19667 25.1733 3.75667 25.7 3.45C26.22 3.15 26.84 3 27.56 3C28.24 3 28.84 3.15 29.36 3.45C29.88 3.75667 30.2867 4.19667 30.58 4.77C30.8733 5.34333 31.02 6.04333 31.02 6.87ZM25.35 6.87C25.35 7.46333 25.4267 7.97667 25.58 8.41C25.7333 8.84333 25.9733 9.17667 26.3 9.41C26.6267 9.64333 27.0433 9.76 27.55 9.76C28.05 9.76 28.4633 9.64333 28.79 9.41C29.1167 9.17667 29.3567 8.84333 29.51 8.41C29.6633 7.97667 29.74 7.46333 29.74 6.87C29.74 6.27667 29.6633 5.77 29.51 5.35C29.35 4.93 29.11 4.60333 28.79 4.37C28.4633 4.14333 28.0433 4.03 27.53 4.03C26.7633 4.03 26.21 4.28333 25.87 4.79C25.5233 5.29 25.35 5.98333 25.35 6.87ZM42.44 7.97C42.44 8.56333 42.2967 9.07 42.01 9.49C41.7167 9.90333 41.3033 10.22 40.77 10.44C40.23 10.6667 39.5967 10.78 38.87 10.78C38.4967 10.78 38.14 10.76 37.8 10.72C37.46 10.6867 37.15 10.6333 36.87 10.56C36.59 10.4933 36.3433 10.4067 36.13 10.3V9.1C36.4633 9.24667 36.88 9.38333 37.38 9.51C37.88 9.63 38.3967 9.69 38.93 9.69C39.4233 9.69 39.8367 9.62333 40.17 9.49C40.51 9.36333 40.7633 9.17667 40.93 8.93C41.0967 8.69 41.18 8.40667 41.18 8.08C41.18 7.75333 41.11 7.47667 40.97 7.25C40.83 7.03 40.59 6.82333 40.25 6.63C39.91 6.43667 39.4367 6.23333 38.83 6.02C38.2633 5.81333 37.7867 5.58 37.4 5.32C37.02 5.06 36.7333 4.74333 36.54 4.37C36.3467 4.00333 36.25 3.56333 36.25 3.05C36.25 2.51667 36.3867 2.06333 36.66 1.69C36.9333 1.31 37.31 1.01667 37.79 0.81C38.27 0.603333 38.8233 0.5 39.45 0.5C39.9967 0.5 40.5 0.553333 40.96 0.66C41.4133 0.76 41.8267 0.893333 42.2 1.06L41.81 2.14C41.4633 1.99333 41.09 1.86667 40.69 1.76C40.2833 1.66 39.86 1.61 39.42 1.61C39 1.61 38.65 1.67 38.37 1.79C38.09 1.91 37.88 2.08 37.74 2.3C37.6 2.52 37.53 2.77667 37.53 3.07C37.53 3.40333 37.6 3.68333 37.74 3.91C37.88 4.13 38.1067 4.33 38.42 4.51C38.74 4.68333 39.17 4.87333 39.71 5.08C40.2967 5.29333 40.7933 5.52333 41.2 5.77C41.6067 6.02333 41.9167 6.32 42.13 6.66C42.3367 7.00667 42.44 7.44333 42.44 7.97ZM47.13 3.01C48.0433 3.01 48.72 3.21 49.16 3.61C49.6 4.01 49.82 4.65 49.82 5.53V10.64H48.92L48.69 9.58H48.63C48.4167 9.84667 48.1967 10.0733 47.97 10.26C47.7367 10.44 47.4733 10.57 47.18 10.65C46.8867 10.7367 46.53 10.78 46.11 10.78C45.6633 10.78 45.26 10.7 44.9 10.54C44.54 10.38 44.2567 10.1367 44.05 9.81C43.8433 9.47667 43.74 9.05667 43.74 8.55C43.74 7.80333 44.0367 7.23 44.63 6.83C45.2167 6.42333 46.12 6.2 47.34 6.16L48.62 6.12V5.67C48.62 5.04333 48.4833 4.61 48.21 4.37C47.9367 4.12333 47.5533 4 47.06 4C46.6667 4 46.2933 4.06 45.94 4.18C45.5867 4.29333 45.2567 4.42667 44.95 4.58L44.57 3.65C44.8967 3.47667 45.2833 3.32667 45.73 3.2C46.1767 3.07333 46.6433 3.01 47.13 3.01ZM48.6 6.97L47.5 7.01C46.5667 7.05 45.92 7.2 45.56 7.46C45.2 7.72 45.02 8.09 45.02 8.57C45.02 8.99 45.1467 9.29667 45.4 9.49C45.66 9.69 45.99 9.79 46.39 9.79C47.0233 9.79 47.55 9.61333 47.97 9.26C48.39 8.91333 48.6 8.37333 48.6 7.64V6.97ZM55.76 3C56.6533 3 57.33 3.21667 57.79 3.65C58.2433 4.08333 58.47 4.78333 58.47 5.75V10.64H57.25V5.84C57.25 5.23333 57.1167 4.78 56.85 4.48C56.5767 4.18 56.15 4.03 55.57 4.03C54.7433 4.03 54.17 4.26333 53.85 4.73C53.5367 5.19667 53.38 5.87 53.38 6.75V10.64H52.14V3.14H53.14L53.32 4.16H53.39C53.5567 3.9 53.7633 3.68333 54.01 3.51C54.2567 3.33667 54.53 3.20667 54.83 3.12C55.13 3.04 55.44 3 55.76 3ZM65.68 8.57C65.68 9.05667 65.56 9.46333 65.32 9.79C65.0733 10.1167 64.7267 10.3633 64.28 10.53C63.8333 10.6967 63.3033 10.78 62.69 10.78C62.1633 10.78 61.7133 10.7367 61.34 10.65C60.96 10.57 60.6233 10.4533 60.33 10.3V9.18C60.63 9.33333 60.9933 9.47333 61.42 9.6C61.8467 9.72667 62.2767 9.79 62.71 9.79C63.3367 9.79 63.79 9.69 64.07 9.49C64.35 9.28333 64.49 9.01333 64.49 8.68C64.49 8.49333 64.44 8.32667 64.34 8.18C64.2333 8.02667 64.0467 7.87667 63.78 7.73C63.52 7.57667 63.14 7.40667 62.64 7.22C62.16 7.03333 61.7467 6.84667 61.4 6.66C61.0533 6.47333 60.7867 6.25 60.6 5.99C60.4133 5.73 60.32 5.39333 60.32 4.98C60.32 4.34667 60.58 3.85667 61.1 3.51C61.6133 3.17 62.29 3 63.13 3C63.59 3 64.02 3.04333 64.42 3.13C64.8133 3.21667 65.1833 3.34 65.53 3.5L65.11 4.48C64.79 4.34667 64.4567 4.23333 64.11 4.14C63.77 4.04667 63.4167 4 63.05 4C62.5433 4 62.16 4.08333 61.9 4.25C61.6333 4.41 61.5 4.63 61.5 4.91C61.5 5.11667 61.56 5.29333 61.68 5.44C61.8 5.58667 62.0033 5.72667 62.29 5.86C62.57 5.99333 62.95 6.15333 63.43 6.34C63.9033 6.52 64.31 6.70333 64.65 6.89C64.9833 7.07667 65.24 7.30333 65.42 7.57C65.5933 7.83667 65.68 8.17 65.68 8.57ZM76.94 10.64H71.31V0.64H72.57V9.52H76.94V10.64ZM81.32 3.01C82.2333 3.01 82.91 3.21 83.35 3.61C83.79 4.01 84.01 4.65 84.01 5.53V10.64H83.11L82.87 9.58H82.82C82.6067 9.84667 82.3833 10.0733 82.15 10.26C81.9233 10.44 81.6633 10.57 81.37 10.65C81.0767 10.7367 80.72 10.78 80.3 10.78C79.8533 10.78 79.45 10.7 79.09 10.54C78.73 10.38 78.4467 10.1367 78.24 9.81C78.0333 9.47667 77.93 9.05667 77.93 8.55C77.93 7.80333 78.2233 7.23 78.81 6.83C79.4033 6.42333 80.31 6.2 81.53 6.16L82.8 6.12V5.67C82.8 5.04333 82.6667 4.61 82.4 4.37C82.1267 4.12333 81.7433 4 81.25 4C80.8567 4 80.4833 4.06 80.13 4.18C79.7767 4.29333 79.4467 4.42667 79.14 4.58L78.76 3.65C79.0867 3.47667 79.4733 3.32667 79.92 3.2C80.3667 3.07333 80.8333 3.01 81.32 3.01ZM82.79 6.97L81.68 7.01C80.7467 7.05 80.1 7.2 79.74 7.46C79.3867 7.72 79.21 8.09 79.21 8.57C79.21 8.99 79.3367 9.29667 79.59 9.49C79.85 9.69 80.18 9.79 80.58 9.79C81.2133 9.79 81.74 9.61333 82.16 9.26C82.58 8.91333 82.79 8.37333 82.79 7.64V6.97ZM92.86 6.87C92.86 7.49667 92.7767 8.05 92.61 8.53C92.45 9.01 92.2167 9.42 91.91 9.76C91.61 10.0933 91.24 10.3467 90.8 10.52C90.3667 10.6933 89.8867 10.78 89.36 10.78C88.86 10.78 88.4 10.6933 87.98 10.52C87.56 10.3467 87.1967 10.0933 86.89 9.76C86.5833 9.42 86.3433 9.01 86.17 8.53C85.9967 8.05 85.91 7.49667 85.91 6.87C85.91 6.04333 86.05 5.34333 86.33 4.77C86.61 4.19667 87.0133 3.75667 87.54 3.45C88.06 3.15 88.68 3 89.4 3C90.08 3 90.68 3.15 91.2 3.45C91.7133 3.75667 92.1167 4.19667 92.41 4.77C92.71 5.34333 92.86 6.04333 92.86 6.87ZM87.19 6.87C87.19 7.46333 87.2667 7.97667 87.42 8.41C87.5733 8.84333 87.8133 9.17667 88.14 9.41C88.4667 9.64333 88.88 9.76 89.38 9.76C89.8867 9.76 90.3033 9.64333 90.63 9.41C90.9567 9.17667 91.1967 8.84333 91.35 8.41C91.5033 7.97667 91.58 7.46333 91.58 6.87C91.58 6.27667 91.5 5.77 91.34 5.35C91.1867 4.93 90.9467 4.60333 90.62 4.37C90.3 4.14333 89.8833 4.03 89.37 4.03C88.6033 4.03 88.0467 4.28333 87.7 4.79C87.36 5.29 87.19 5.98333 87.19 6.87ZM104.24 10.64H98.61V0.64H99.87V9.52H104.24V10.64ZM112.3 6.87C112.3 7.49667 112.22 8.05 112.06 8.53C111.893 9.01 111.66 9.42 111.36 9.76C111.053 10.0933 110.683 10.3467 110.25 10.52C109.817 10.6933 109.333 10.78 108.8 10.78C108.307 10.78 107.85 10.6933 107.43 10.52C107.01 10.3467 106.647 10.0933 106.34 9.76C106.033 9.42 105.793 9.01 105.62 8.53C105.447 8.05 105.36 7.49667 105.36 6.87C105.36 6.04333 105.5 5.34333 105.78 4.77C106.06 4.19667 106.46 3.75667 106.98 3.45C107.507 3.15 108.127 3 108.84 3C109.527 3 110.127 3.15 110.64 3.45C111.16 3.75667 111.567 4.19667 111.86 4.77C112.153 5.34333 112.3 6.04333 112.3 6.87ZM106.63 6.87C106.63 7.46333 106.707 7.97667 106.86 8.41C107.013 8.84333 107.253 9.17667 107.58 9.41C107.907 9.64333 108.323 9.76 108.83 9.76C109.337 9.76 109.753 9.64333 110.08 9.41C110.407 9.17667 110.647 8.84333 110.8 8.41C110.953 7.97667 111.03 7.46333 111.03 6.87C111.03 6.27667 110.95 5.77 110.79 5.35C110.63 4.93 110.39 4.60333 110.07 4.37C109.75 4.14333 109.333 4.03 108.82 4.03C108.053 4.03 107.497 4.28333 107.15 4.79C106.803 5.29 106.63 5.98333 106.63 6.87ZM120.77 6.87C120.77 7.49667 120.69 8.05 120.53 8.53C120.363 9.01 120.13 9.42 119.83 9.76C119.523 10.0933 119.153 10.3467 118.72 10.52C118.287 10.6933 117.803 10.78 117.27 10.78C116.777 10.78 116.32 10.6933 115.9 10.52C115.48 10.3467 115.117 10.0933 114.81 9.76C114.503 9.42 114.263 9.01 114.09 8.53C113.917 8.05 113.83 7.49667 113.83 6.87C113.83 6.04333 113.97 5.34333 114.25 4.77C114.53 4.19667 114.93 3.75667 115.45 3.45C115.977 3.15 116.597 3 117.31 3C117.997 3 118.597 3.15 119.11 3.45C119.63 3.75667 120.037 4.19667 120.33 4.77C120.623 5.34333 120.77 6.04333 120.77 6.87ZM115.1 6.87C115.1 7.46333 115.177 7.97667 115.33 8.41C115.483 8.84333 115.723 9.17667 116.05 9.41C116.377 9.64333 116.793 9.76 117.3 9.76C117.807 9.76 118.223 9.64333 118.55 9.41C118.877 9.17667 119.117 8.84333 119.27 8.41C119.423 7.97667 119.5 7.46333 119.5 6.87C119.5 6.27667 119.42 5.77 119.26 5.35C119.1 4.93 118.86 4.60333 118.54 4.37C118.22 4.14333 117.803 4.03 117.29 4.03C116.523 4.03 115.967 4.28333 115.62 4.79C115.273 5.29 115.1 5.98333 115.1 6.87ZM126.29 3C127.21 3 127.953 3.32 128.52 3.96C129.087 4.60667 129.37 5.57667 129.37 6.87C129.37 7.72333 129.24 8.44 128.98 9.02C128.727 9.60667 128.367 10.0467 127.9 10.34C127.44 10.6333 126.897 10.78 126.27 10.78C125.89 10.78 125.55 10.73 125.25 10.63C124.95 10.5233 124.697 10.39 124.49 10.23C124.277 10.0633 124.097 9.88333 123.95 9.69H123.87C123.883 9.85 123.9 10.05 123.92 10.29C123.94 10.53 123.95 10.74 123.95 10.92V14H122.72V3.14H123.73L123.89 4.16H123.95C124.097 3.94667 124.277 3.75 124.49 3.57C124.697 3.39 124.947 3.25 125.24 3.15C125.54 3.05 125.89 3 126.29 3ZM126.06 4.03C125.56 4.03 125.157 4.12667 124.85 4.32C124.537 4.51333 124.31 4.8 124.17 5.18C124.03 5.56 123.957 6.04667 123.95 6.64V6.87C123.95 7.49 124.017 8.01333 124.15 8.44C124.277 8.87333 124.497 9.2 124.81 9.42C125.123 9.64667 125.55 9.76 126.09 9.76C126.55 9.76 126.927 9.63333 127.22 9.38C127.513 9.12667 127.733 8.78333 127.88 8.35C128.02 7.91667 128.09 7.42 128.09 6.86C128.09 6 127.927 5.31333 127.6 4.8C127.267 4.28667 126.753 4.03 126.06 4.03ZM134.23 3C134.87 3 135.423 3.14 135.89 3.42C136.35 3.7 136.703 4.09333 136.95 4.6C137.197 5.10667 137.32 5.7 137.32 6.38V7.13H132.18C132.2 7.97667 132.417 8.62333 132.83 9.07C133.25 9.51 133.833 9.73 134.58 9.73C135.053 9.73 135.473 9.68667 135.84 9.6C136.213 9.50667 136.593 9.37667 136.98 9.21V10.29C136.6 10.4567 136.223 10.58 135.85 10.66C135.477 10.74 135.033 10.78 134.52 10.78C133.813 10.78 133.187 10.6367 132.64 10.35C132.093 10.0567 131.667 9.62333 131.36 9.05C131.06 8.47667 130.91 7.77333 130.91 6.94C130.91 6.12 131.047 5.41667 131.32 4.83C131.593 4.24333 131.98 3.79 132.48 3.47C132.98 3.15667 133.563 3 134.23 3ZM134.21 4C133.623 4 133.16 4.19 132.82 4.57C132.48 4.95 132.277 5.47667 132.21 6.15H136.03C136.03 5.71667 135.967 5.34333 135.84 5.03C135.707 4.71 135.507 4.46 135.24 4.28C134.973 4.09333 134.63 4 134.21 4ZM141.88 10.78C140.947 10.78 140.2 10.4567 139.64 9.81C139.08 9.15667 138.8 8.18667 138.8 6.9C138.8 5.61333 139.083 4.64 139.65 3.98C140.217 3.32667 140.967 3 141.9 3C142.293 3 142.633 3.04667 142.92 3.14C143.207 3.24 143.46 3.37333 143.68 3.54C143.893 3.70667 144.073 3.89333 144.22 4.1H144.31C144.297 3.98 144.28 3.8 144.26 3.56C144.233 3.32667 144.22 3.14 144.22 3V0H145.45V10.64H144.46L144.28 9.63H144.22C144.073 9.84333 143.893 10.0367 143.68 10.21C143.46 10.3833 143.203 10.5233 142.91 10.63C142.617 10.73 142.273 10.78 141.88 10.78ZM142.08 9.76C142.873 9.76 143.43 9.54333 143.75 9.11C144.077 8.67667 144.24 8.02 144.24 7.14V6.92C144.24 5.98667 144.083 5.27 143.77 4.77C143.463 4.27 142.897 4.02 142.07 4.02C141.403 4.02 140.903 4.28333 140.57 4.81C140.243 5.33667 140.08 6.04333 140.08 6.93C140.08 7.82333 140.243 8.52 140.57 9.02C140.903 9.51333 141.407 9.76 142.08 9.76Z" fill="black"/>
</svg>
