<svg width="165" height="14" viewBox="0 0 165 14" fill="none" xmlns="http://www.w3.org/2000/svg">
<path d="M8.42 0.14V10.14H6.95L1.6 1.84H1.55C1.57 2.16667 1.59333 2.57333 1.62 3.06C1.64667 3.54 1.66 4.03667 1.66 4.55V10.14H0.5V0.14H1.95L7.29 8.42H7.34C7.33333 8.26667 7.32333 8.04333 7.31 7.75C7.29667 7.45 7.28333 7.12333 7.27 6.77C7.25667 6.41 7.25 6.08333 7.25 5.79V0.14H8.42ZM17.49 6.37C17.49 7.61667 17.1767 8.58 16.55 9.26C15.9167 9.94 15.0633 10.28 13.99 10.28C13.33 10.28 12.74 10.13 12.22 9.83C11.7067 9.52333 11.3 9.08 11 8.5C10.7 7.91333 10.55 7.20333 10.55 6.37C10.55 5.13 10.8633 4.17333 11.49 3.5C12.1167 2.83333 12.9667 2.5 14.04 2.5C14.72 2.5 15.32 2.65 15.84 2.95C16.3533 3.25667 16.7567 3.69667 17.05 4.27C17.3433 4.84333 17.49 5.54333 17.49 6.37ZM11.82 6.37C11.82 7.25667 11.9967 7.96 12.35 8.48C12.6967 9 13.2533 9.26 14.02 9.26C14.78 9.26 15.3367 9 15.69 8.48C16.0433 7.96 16.22 7.25667 16.22 6.37C16.22 5.48333 16.0433 4.79 15.69 4.29C15.3367 3.78333 14.7767 3.53 14.01 3.53C13.2433 3.53 12.6867 3.78333 12.34 4.29C11.9933 4.79 11.82 5.48333 11.82 6.37ZM21.95 9.27C22.1367 9.27 22.3267 9.25333 22.52 9.22C22.7133 9.18667 22.8733 9.15333 23 9.12V10.06C22.8667 10.12 22.68 10.1733 22.44 10.22C22.1933 10.26 21.96 10.28 21.74 10.28C21.3467 10.28 20.9833 10.2133 20.65 10.08C20.3167 9.94 20.05 9.70333 19.85 9.37C19.6433 9.03667 19.54 8.56667 19.54 7.96V3.59H18.47V3L19.55 2.51L20.04 0.91H20.77V2.64H22.94V3.59H20.77V7.93C20.77 8.38333 20.88 8.72 21.1 8.94C21.32 9.16 21.6033 9.27 21.95 9.27ZM31.02 6.37C31.02 7.61667 30.7033 8.58 30.07 9.26C29.4433 9.94 28.5933 10.28 27.52 10.28C26.8533 10.28 26.2633 10.13 25.75 9.83C25.23 9.52333 24.82 9.08 24.52 8.5C24.22 7.91333 24.07 7.20333 24.07 6.37C24.07 5.13 24.3833 4.17333 25.01 3.5C25.6367 2.83333 26.4867 2.5 27.56 2.5C28.24 2.5 28.84 2.65 29.36 2.95C29.88 3.25667 30.2867 3.69667 30.58 4.27C30.8733 4.84333 31.02 5.54333 31.02 6.37ZM25.35 6.37C25.35 7.25667 25.5233 7.96 25.87 8.48C26.2233 9 26.7833 9.26 27.55 9.26C28.3033 9.26 28.8567 9 29.21 8.48C29.5633 7.96 29.74 7.25667 29.74 6.37C29.74 5.48333 29.5633 4.79 29.21 4.29C28.8567 3.78333 28.2967 3.53 27.53 3.53C26.7633 3.53 26.21 3.78333 25.87 4.29C25.5233 4.79 25.35 5.48333 25.35 6.37ZM42.44 7.47C42.44 8.35667 42.12 9.04667 41.48 9.54C40.8333 10.0333 39.9633 10.28 38.87 10.28C38.31 10.28 37.7933 10.2367 37.32 10.15C36.84 10.07 36.4433 9.95333 36.13 9.8V8.6C36.4633 8.74667 36.88 8.88333 37.38 9.01C37.88 9.13 38.3967 9.19 38.93 9.19C39.6767 9.19 40.24 9.04333 40.62 8.75C40.9933 8.46333 41.18 8.07333 41.18 7.58C41.18 7.25333 41.11 6.97667 40.97 6.75C40.83 6.53 40.59 6.32333 40.25 6.13C39.91 5.93667 39.4367 5.73333 38.83 5.52C38.4033 5.36 38.0267 5.19 37.7 5.01C37.38 4.83 37.1133 4.62333 36.9 4.39C36.6867 4.15667 36.5233 3.89 36.41 3.59C36.3033 3.29 36.25 2.94333 36.25 2.55C36.25 2.01667 36.3867 1.56333 36.66 1.19C36.9333 0.81 37.31 0.516667 37.79 0.31C38.27 0.103333 38.8233 0 39.45 0C39.9967 0 40.5 0.0533332 40.96 0.16C41.4133 0.26 41.8267 0.393333 42.2 0.56L41.81 1.64C41.4633 1.49333 41.09 1.36667 40.69 1.26C40.2833 1.16 39.86 1.11 39.42 1.11C38.7933 1.11 38.32 1.24333 38 1.51C37.6867 1.77667 37.53 2.13 37.53 2.57C37.53 2.90333 37.6 3.18333 37.74 3.41C37.88 3.63 38.1067 3.83 38.42 4.01C38.74 4.18333 39.17 4.37333 39.71 4.58C40.2967 4.79333 40.7933 5.02333 41.2 5.27C41.6067 5.52333 41.9167 5.82 42.13 6.16C42.3367 6.50667 42.44 6.94333 42.44 7.47ZM47.13 2.51C48.0433 2.51 48.72 2.71 49.16 3.11C49.6 3.51 49.82 4.15 49.82 5.03V10.14H48.92L48.69 9.08H48.63C48.3033 9.48667 47.96 9.79 47.6 9.99C47.24 10.1833 46.7433 10.28 46.11 10.28C45.43 10.28 44.8667 10.1 44.42 9.74C43.9667 9.38 43.74 8.81667 43.74 8.05C43.74 7.30333 44.0367 6.73 44.63 6.33C45.2167 5.92333 46.12 5.7 47.34 5.66L48.62 5.62V5.17C48.62 4.54333 48.4833 4.11 48.21 3.87C47.9367 3.62333 47.5533 3.5 47.06 3.5C46.6667 3.5 46.2933 3.56 45.94 3.68C45.5867 3.79333 45.2567 3.92667 44.95 4.08L44.57 3.15C44.8967 2.97667 45.2833 2.82667 45.73 2.7C46.1767 2.57333 46.6433 2.51 47.13 2.51ZM48.6 6.47L47.5 6.51C46.5667 6.55 45.92 6.7 45.56 6.96C45.2 7.22 45.02 7.59 45.02 8.07C45.02 8.49 45.1467 8.79667 45.4 8.99C45.66 9.19 45.99 9.29 46.39 9.29C47.0233 9.29 47.55 9.11333 47.97 8.76C48.39 8.41333 48.6 7.87333 48.6 7.14V6.47ZM55.76 2.5C56.6533 2.5 57.33 2.71667 57.79 3.15C58.2433 3.58333 58.47 4.28333 58.47 5.25V10.14H57.25V5.34C57.25 4.73333 57.1167 4.28 56.85 3.98C56.5767 3.68 56.15 3.53 55.57 3.53C54.7433 3.53 54.17 3.76333 53.85 4.23C53.5367 4.69667 53.38 5.37 53.38 6.25V10.14H52.14V2.64H53.14L53.32 3.66H53.39C53.63 3.26667 53.9667 2.97333 54.4 2.78C54.8267 2.59333 55.28 2.5 55.76 2.5ZM65.68 8.07C65.68 8.79667 65.41 9.34667 64.87 9.72C64.33 10.0933 63.6033 10.28 62.69 10.28C62.1633 10.28 61.7133 10.2367 61.34 10.15C60.96 10.07 60.6233 9.95333 60.33 9.8V8.68C60.63 8.83333 60.9933 8.97333 61.42 9.1C61.8467 9.22667 62.2767 9.29 62.71 9.29C63.3367 9.29 63.79 9.19 64.07 8.99C64.35 8.78333 64.49 8.51333 64.49 8.18C64.49 7.99333 64.44 7.82667 64.34 7.68C64.2333 7.52667 64.0467 7.37667 63.78 7.23C63.52 7.07667 63.14 6.90667 62.64 6.72C62.16 6.53333 61.7467 6.34667 61.4 6.16C61.0533 5.97333 60.7867 5.75 60.6 5.49C60.4133 5.23 60.32 4.89333 60.32 4.48C60.32 3.84667 60.58 3.35667 61.1 3.01C61.6133 2.67 62.29 2.5 63.13 2.5C63.59 2.5 64.02 2.54333 64.42 2.63C64.8133 2.71667 65.1833 2.84 65.53 3L65.11 3.98C64.79 3.84667 64.4567 3.73333 64.11 3.64C63.77 3.54667 63.4167 3.5 63.05 3.5C62.5433 3.5 62.16 3.58333 61.9 3.75C61.6333 3.91 61.5 4.13 61.5 4.41C61.5 4.61667 61.56 4.79333 61.68 4.94C61.8 5.08667 62.0033 5.22667 62.29 5.36C62.57 5.49333 62.95 5.65333 63.43 5.84C63.9033 6.02 64.31 6.20333 64.65 6.39C64.9833 6.57667 65.24 6.80333 65.42 7.07C65.5933 7.33667 65.68 7.67 65.68 8.07ZM76.98 7.47C76.98 8.35667 76.6567 9.04667 76.01 9.54C75.37 10.0333 74.5033 10.28 73.41 10.28C72.85 10.28 72.3333 10.2367 71.86 10.15C71.38 10.07 70.9833 9.95333 70.67 9.8V8.6C71.0033 8.74667 71.42 8.88333 71.92 9.01C72.42 9.13 72.9367 9.19 73.47 9.19C74.2167 9.19 74.7767 9.04333 75.15 8.75C75.53 8.46333 75.72 8.07333 75.72 7.58C75.72 7.25333 75.65 6.97667 75.51 6.75C75.37 6.53 75.13 6.32333 74.79 6.13C74.45 5.93667 73.9767 5.73333 73.37 5.52C72.9367 5.36 72.56 5.19 72.24 5.01C71.92 4.83 71.6533 4.62333 71.44 4.39C71.22 4.15667 71.0567 3.89 70.95 3.59C70.8433 3.29 70.79 2.94333 70.79 2.55C70.79 2.01667 70.9267 1.56333 71.2 1.19C71.4667 0.81 71.8433 0.516667 72.33 0.31C72.81 0.103333 73.36 0 73.98 0C74.5333 0 75.04 0.0533332 75.5 0.16C75.9533 0.26 76.3667 0.393333 76.74 0.56L76.35 1.64C76.0033 1.49333 75.6267 1.36667 75.22 1.26C74.8133 1.16 74.3933 1.11 73.96 1.11C73.3333 1.11 72.86 1.24333 72.54 1.51C72.2267 1.77667 72.07 2.13 72.07 2.57C72.07 2.90333 72.14 3.18333 72.28 3.41C72.42 3.63 72.6467 3.83 72.96 4.01C73.28 4.18333 73.71 4.37333 74.25 4.58C74.8367 4.79333 75.3333 5.02333 75.74 5.27C76.1467 5.52333 76.4533 5.82 76.66 6.16C76.8733 6.50667 76.98 6.94333 76.98 7.47ZM85.35 6.37C85.35 7.61667 85.0367 8.58 84.41 9.26C83.7767 9.94 82.9233 10.28 81.85 10.28C81.19 10.28 80.6 10.13 80.08 9.83C79.56 9.52333 79.1533 9.08 78.86 8.5C78.56 7.91333 78.41 7.20333 78.41 6.37C78.41 5.13 78.7233 4.17333 79.35 3.5C79.97 2.83333 80.8167 2.5 81.89 2.5C82.5767 2.5 83.1767 2.65 83.69 2.95C84.21 3.25667 84.6167 3.69667 84.91 4.27C85.2033 4.84333 85.35 5.54333 85.35 6.37ZM79.68 6.37C79.68 7.25667 79.8567 7.96 80.21 8.48C80.5567 9 81.1133 9.26 81.88 9.26C82.6333 9.26 83.19 9 83.55 8.48C83.9033 7.96 84.08 7.25667 84.08 6.37C84.08 5.48333 83.9033 4.79 83.55 4.29C83.19 3.78333 82.63 3.53 81.87 3.53C81.1033 3.53 80.5467 3.78333 80.2 4.29C79.8533 4.79 79.68 5.48333 79.68 6.37ZM90.8 2.5C90.94 2.5 91.09 2.50667 91.25 2.52C91.4167 2.53333 91.56 2.55333 91.68 2.58L91.53 3.71C91.4033 3.68333 91.27 3.66 91.13 3.64C90.9833 3.62667 90.8433 3.62 90.71 3.62C90.33 3.62 89.9733 3.72333 89.64 3.93C89.3 4.14333 89.03 4.43667 88.83 4.81C88.63 5.19 88.53 5.63333 88.53 6.14V10.14H87.3V2.64H88.31L88.45 4.01H88.5C88.7467 3.59667 89.06 3.24 89.44 2.94C89.82 2.64667 90.2733 2.5 90.8 2.5ZM95.64 2.51C96.5533 2.51 97.23 2.71 97.67 3.11C98.11 3.51 98.33 4.15 98.33 5.03V10.14H97.43L97.2 9.08H97.14C96.8133 9.48667 96.47 9.79 96.11 9.99C95.75 10.1833 95.2533 10.28 94.62 10.28C93.94 10.28 93.3767 10.1 92.93 9.74C92.4767 9.38 92.25 8.81667 92.25 8.05C92.25 7.30333 92.5467 6.73 93.14 6.33C93.7267 5.92333 94.63 5.7 95.85 5.66L97.13 5.62V5.17C97.13 4.54333 96.9933 4.11 96.72 3.87C96.4467 3.62333 96.0633 3.5 95.57 3.5C95.1767 3.5 94.8033 3.56 94.45 3.68C94.0967 3.79333 93.7667 3.92667 93.46 4.08L93.08 3.15C93.4067 2.97667 93.7933 2.82667 94.24 2.7C94.6867 2.57333 95.1533 2.51 95.64 2.51ZM97.11 6.47L96.01 6.51C95.0767 6.55 94.43 6.7 94.07 6.96C93.71 7.22 93.53 7.59 93.53 8.07C93.53 8.49 93.6567 8.79667 93.91 8.99C94.17 9.19 94.5 9.29 94.9 9.29C95.5333 9.29 96.06 9.11333 96.48 8.76C96.9 8.41333 97.11 7.87333 97.11 7.14V6.47ZM110.13 7.47C110.13 8.35667 109.81 9.04667 109.17 9.54C108.523 10.0333 107.653 10.28 106.56 10.28C106 10.28 105.483 10.2367 105.01 10.15C104.53 10.07 104.133 9.95333 103.82 9.8V8.6C104.153 8.74667 104.57 8.88333 105.07 9.01C105.57 9.13 106.087 9.19 106.62 9.19C107.367 9.19 107.927 9.04333 108.3 8.75C108.68 8.46333 108.87 8.07333 108.87 7.58C108.87 7.25333 108.8 6.97667 108.66 6.75C108.52 6.53 108.28 6.32333 107.94 6.13C107.6 5.93667 107.127 5.73333 106.52 5.52C106.093 5.36 105.717 5.19 105.39 5.01C105.07 4.83 104.803 4.62333 104.59 4.39C104.377 4.15667 104.213 3.89 104.1 3.59C103.993 3.29 103.94 2.94333 103.94 2.55C103.94 2.01667 104.077 1.56333 104.35 1.19C104.623 0.81 105 0.516667 105.48 0.31C105.96 0.103333 106.513 0 107.14 0C107.687 0 108.19 0.0533332 108.65 0.16C109.103 0.26 109.517 0.393333 109.89 0.56L109.5 1.64C109.153 1.49333 108.777 1.36667 108.37 1.26C107.97 1.16 107.55 1.11 107.11 1.11C106.483 1.11 106.01 1.24333 105.69 1.51C105.377 1.77667 105.22 2.13 105.22 2.57C105.22 2.90333 105.29 3.18333 105.43 3.41C105.57 3.63 105.797 3.83 106.11 4.01C106.43 4.18333 106.86 4.37333 107.4 4.58C107.987 4.79333 108.483 5.02333 108.89 5.27C109.297 5.52333 109.607 5.82 109.82 6.16C110.027 6.50667 110.13 6.94333 110.13 7.47ZM118.5 6.37C118.5 7.61667 118.187 8.58 117.56 9.26C116.927 9.94 116.073 10.28 115 10.28C114.34 10.28 113.75 10.13 113.23 9.83C112.717 9.52333 112.31 9.08 112.01 8.5C111.71 7.91333 111.56 7.20333 111.56 6.37C111.56 5.13 111.873 4.17333 112.5 3.5C113.127 2.83333 113.977 2.5 115.05 2.5C115.73 2.5 116.327 2.65 116.84 2.95C117.36 3.25667 117.767 3.69667 118.06 4.27C118.353 4.84333 118.5 5.54333 118.5 6.37ZM112.83 6.37C112.83 7.25667 113.007 7.96 113.36 8.48C113.707 9 114.263 9.26 115.03 9.26C115.79 9.26 116.347 9 116.7 8.48C117.053 7.96 117.23 7.25667 117.23 6.37C117.23 5.48333 117.053 4.79 116.7 4.29C116.347 3.78333 115.787 3.53 115.02 3.53C114.253 3.53 113.697 3.78333 113.35 4.29C113.003 4.79 112.83 5.48333 112.83 6.37ZM128.68 2.5C129.533 2.5 130.17 2.71667 130.59 3.15C131.01 3.58333 131.22 4.28333 131.22 5.25V10.14H130V5.31C130 4.12333 129.49 3.53 128.47 3.53C127.743 3.53 127.223 3.74 126.91 4.16C126.597 4.58 126.44 5.19333 126.44 6V10.14H125.22V5.31C125.22 4.12333 124.707 3.53 123.68 3.53C122.927 3.53 122.407 3.76333 122.12 4.23C121.827 4.69667 121.68 5.37 121.68 6.25V10.14H120.45V2.64H121.44L121.63 3.66H121.7C121.933 3.26667 122.247 2.97333 122.64 2.78C123.04 2.59333 123.463 2.5 123.91 2.5C124.49 2.5 124.973 2.6 125.36 2.8C125.747 3.00667 126.027 3.32667 126.2 3.76H126.27C126.523 3.32667 126.867 3.00667 127.3 2.8C127.733 2.6 128.193 2.5 128.68 2.5ZM137.11 2.5C138.037 2.5 138.78 2.82 139.34 3.46C139.907 4.10667 140.19 5.07667 140.19 6.37C140.19 7.65 139.907 8.62333 139.34 9.29C138.78 9.95 138.033 10.28 137.1 10.28C136.52 10.28 136.04 10.17 135.66 9.95C135.28 9.73 134.983 9.47667 134.77 9.19H134.69C134.71 9.35 134.727 9.55 134.74 9.79C134.76 10.03 134.77 10.24 134.77 10.42V13.5H133.54V2.64H134.55L134.72 3.66H134.77C134.997 3.33333 135.29 3.05667 135.65 2.83C136.017 2.61 136.503 2.5 137.11 2.5ZM136.89 3.53C136.123 3.53 135.583 3.74667 135.27 4.18C134.957 4.60667 134.79 5.26 134.77 6.14V6.37C134.77 7.29667 134.923 8.01 135.23 8.51C135.53 9.01 136.09 9.26 136.91 9.26C137.37 9.26 137.747 9.13333 138.04 8.88C138.333 8.62667 138.553 8.28333 138.7 7.85C138.847 7.41667 138.92 6.92 138.92 6.36C138.92 5.5 138.753 4.81333 138.42 4.3C138.087 3.78667 137.577 3.53 136.89 3.53ZM145.05 2.5C145.69 2.5 146.243 2.64 146.71 2.92C147.17 3.2 147.523 3.59333 147.77 4.1C148.017 4.60667 148.14 5.2 148.14 5.88V6.63H143C143.02 7.47667 143.237 8.12333 143.65 8.57C144.07 9.01 144.653 9.23 145.4 9.23C145.873 9.23 146.297 9.18667 146.67 9.1C147.037 9.00667 147.417 8.87667 147.81 8.71V9.79C147.423 9.95667 147.043 10.08 146.67 10.16C146.297 10.24 145.853 10.28 145.34 10.28C144.633 10.28 144.007 10.1367 143.46 9.85C142.913 9.55667 142.487 9.12333 142.18 8.55C141.88 7.97667 141.73 7.27333 141.73 6.44C141.73 5.62 141.867 4.91667 142.14 4.33C142.42 3.74333 142.807 3.29 143.3 2.97C143.8 2.65667 144.383 2.5 145.05 2.5ZM145.03 3.5C144.443 3.5 143.98 3.69 143.64 4.07C143.3 4.45 143.097 4.97667 143.03 5.65H146.85C146.843 5.01 146.697 4.49333 146.41 4.1C146.117 3.7 145.657 3.5 145.03 3.5ZM153.66 2.5C154.553 2.5 155.23 2.71667 155.69 3.15C156.143 3.58333 156.37 4.28333 156.37 5.25V10.14H155.16V5.34C155.16 4.73333 155.023 4.28 154.75 3.98C154.477 3.68 154.053 3.53 153.48 3.53C152.647 3.53 152.07 3.76333 151.75 4.23C151.437 4.69667 151.28 5.37 151.28 6.25V10.14H150.05V2.64H151.04L151.22 3.66H151.29C151.537 3.26667 151.873 2.97333 152.3 2.78C152.727 2.59333 153.18 2.5 153.66 2.5ZM161.36 2.5C161.853 2.5 162.3 2.59333 162.7 2.78C163.093 2.96667 163.43 3.25 163.71 3.63H163.78L163.95 2.64H164.93V10.27C164.93 11.3433 164.657 12.15 164.11 12.69C163.563 13.23 162.717 13.5 161.57 13.5C161.03 13.5 160.533 13.46 160.08 13.38C159.627 13.3 159.223 13.18 158.87 13.02V11.89C159.603 12.2833 160.527 12.48 161.64 12.48C162.28 12.48 162.787 12.29 163.16 11.91C163.527 11.53 163.71 11.0133 163.71 10.36V10.07C163.71 9.95667 163.713 9.79667 163.72 9.59C163.733 9.37667 163.743 9.23 163.75 9.15H163.7C163.433 9.53 163.107 9.81333 162.72 10C162.333 10.1867 161.883 10.28 161.37 10.28C160.403 10.28 159.647 9.94 159.1 9.26C158.553 8.58 158.28 7.62667 158.28 6.4C158.28 5.20667 158.553 4.25667 159.1 3.55C159.647 2.85 160.4 2.5 161.36 2.5ZM161.53 3.53C160.903 3.53 160.417 3.78 160.07 4.28C159.723 4.78 159.55 5.49333 159.55 6.42C159.55 7.34 159.72 8.04667 160.06 8.54C160.4 9.02667 160.897 9.27 161.55 9.27C162.31 9.27 162.863 9.06667 163.21 8.66C163.55 8.25333 163.72 7.6 163.72 6.7V6.4C163.72 5.37333 163.543 4.64 163.19 4.2C162.837 3.75333 162.283 3.53 161.53 3.53Z" fill="black"/>
</svg>
