<svg width="126" height="11" viewBox="0 0 126 11" fill="none" xmlns="http://www.w3.org/2000/svg">
<path d="M4.02 10.78H0.5V10.19H0.68C1 10.19 1.27333 10.1333 1.5 10.02C1.72 9.9 1.83 9.62 1.83 9.18V2.32C1.83 1.91333 1.71667 1.65333 1.49 1.54C1.26333 1.42667 0.993333 1.37 0.68 1.37H0.5V0.78H3.06L8.08 8.53V2.32C8.08 1.91333 7.96333 1.65333 7.73 1.54C7.50333 1.42667 7.23667 1.37 6.93 1.37H6.75V0.78H10.26V1.37H10.08C9.76 1.37 9.49 1.43 9.27 1.55C9.04333 1.66333 8.93 1.94 8.93 2.38V10.78H7.94L2.69 2.72V9.18C2.69 9.62 2.8 9.9 3.02 10.02C3.24667 10.1333 3.51667 10.19 3.83 10.19H4.02V10.78ZM14.67 10.92C13.6633 10.92 12.87 10.5967 12.29 9.95C11.71 9.31 11.42 8.33 11.42 7.01C11.42 5.70333 11.7 4.73 12.26 4.09C12.8133 3.45667 13.63 3.14 14.71 3.14C15.7167 3.14 16.51 3.45667 17.09 4.09C17.67 4.73 17.96 5.70333 17.96 7.01C17.96 8.33 17.6833 9.31 17.13 9.95C16.57 10.5967 15.75 10.92 14.67 10.92ZM14.7 10.19C15.4 10.19 15.89 9.92333 16.17 9.39C16.4567 8.85 16.6 8.05667 16.6 7.01C16.6 5.97 16.4567 5.18667 16.17 4.66C15.8767 4.14 15.38 3.88 14.68 3.88C13.98 3.88 13.49 4.14 13.21 4.66C12.9233 5.18667 12.78 5.97 12.78 7.01C12.78 8.05667 12.9233 8.85 13.21 9.39C13.5033 9.92333 14 10.19 14.7 10.19ZM22.09 10.92C21.3833 10.92 20.8667 10.76 20.54 10.44C20.22 10.1133 20.06 9.55 20.06 8.75V4.07H19V3.51C19.1667 3.51 19.3533 3.47667 19.56 3.41C19.76 3.33667 19.9367 3.22333 20.09 3.07C20.25 2.89667 20.38 2.69 20.48 2.45C20.58 2.21 20.6633 1.91 20.73 1.55H21.38V3.28H23.21V4.07H21.38V8.79C21.38 9.27 21.4767 9.62 21.67 9.84C21.8633 10.0667 22.12 10.18 22.44 10.18C22.6067 10.18 22.76 10.17 22.9 10.15C23.04 10.13 23.1867 10.1067 23.34 10.08V10.7C23.2133 10.7533 23.03 10.8033 22.79 10.85C22.55 10.8967 22.3167 10.92 22.09 10.92ZM27.68 10.92C26.6667 10.92 25.8733 10.5967 25.3 9.95C24.72 9.31 24.43 8.33 24.43 7.01C24.43 5.70333 24.7067 4.73 25.26 4.09C25.8133 3.45667 26.6333 3.14 27.72 3.14C28.7267 3.14 29.52 3.45667 30.1 4.09C30.68 4.73 30.97 5.70333 30.97 7.01C30.97 8.33 30.69 9.31 30.13 9.95C29.5767 10.5967 28.76 10.92 27.68 10.92ZM27.7 10.19C28.4 10.19 28.8933 9.92333 29.18 9.39C29.4667 8.85 29.61 8.05667 29.61 7.01C29.61 5.97 29.4633 5.18667 29.17 4.66C28.8833 4.14 28.39 3.88 27.69 3.88C26.99 3.88 26.4967 4.14 26.21 4.66C25.93 5.18667 25.79 5.97 25.79 7.01C25.79 8.05667 25.9333 8.85 26.22 9.39C26.5067 9.92333 27 10.19 27.7 10.19ZM38.83 10.92C37.9167 10.92 37.2233 10.7367 36.75 10.37C36.2833 10.01 36.05 9.53667 36.05 8.95C36.05 8.67 36.1367 8.44333 36.31 8.27C36.49 8.09667 36.74 8.01 37.06 8.01C37.0733 8.39 37.1467 8.75 37.28 9.09C37.4133 9.43 37.6133 9.70667 37.88 9.92C38.1533 10.1267 38.51 10.23 38.95 10.23C39.57 10.23 40.06 10.08 40.42 9.78C40.7733 9.47333 40.95 9.03667 40.95 8.47C40.95 8.12333 40.88 7.83 40.74 7.59C40.6067 7.35667 40.3833 7.13667 40.07 6.93C39.7567 6.72333 39.3267 6.51 38.78 6.29C37.9133 5.93 37.2667 5.51333 36.84 5.04C36.4133 4.56667 36.2 3.94667 36.2 3.18C36.2 2.64667 36.3333 2.19 36.6 1.81C36.8667 1.43667 37.23 1.14667 37.69 0.94C38.1567 0.74 38.6833 0.64 39.27 0.64C40.0967 0.64 40.74 0.8 41.2 1.12C41.66 1.44 41.89 1.80333 41.89 2.21C41.89 2.51 41.79 2.73667 41.59 2.89C41.3833 3.04333 41.1133 3.12 40.78 3.12C40.78 2.83333 40.73 2.55333 40.63 2.28C40.5367 2.01333 40.3733 1.79 40.14 1.61C39.9133 1.43 39.6033 1.34 39.21 1.34C38.67 1.34 38.25 1.48667 37.95 1.78C37.65 2.06667 37.5 2.45333 37.5 2.94C37.5 3.31333 37.57 3.63 37.71 3.89C37.8433 4.14333 38.07 4.37 38.39 4.57C38.7033 4.77 39.13 4.98333 39.67 5.21C40.4967 5.54333 41.1367 5.93 41.59 6.37C42.05 6.81 42.28 7.39 42.28 8.11C42.28 8.99667 41.97 9.68667 41.35 10.18C40.73 10.6733 39.89 10.92 38.83 10.92ZM47.01 10.92C45.99 10.92 45.1933 10.5833 44.62 9.91C44.0467 9.23667 43.76 8.29333 43.76 7.08C43.76 5.77333 44.03 4.79 44.57 4.13C45.1167 3.47 45.8833 3.14 46.87 3.14C47.7767 3.14 48.4867 3.42 49 3.98C49.52 4.54 49.78 5.37333 49.78 6.48V7.13H45.12C45.14 8.14333 45.3233 8.88 45.67 9.34C46.0233 9.80667 46.5367 10.04 47.21 10.04C47.69 10.04 48.1033 9.94 48.45 9.74C48.79 9.54 49.0433 9.31333 49.21 9.06C49.2767 9.08667 49.3367 9.14333 49.39 9.23C49.4433 9.31 49.47 9.41 49.47 9.53C49.47 9.71667 49.3833 9.92 49.21 10.14C49.03 10.3533 48.76 10.5367 48.4 10.69C48.0333 10.8433 47.57 10.92 47.01 10.92ZM45.15 6.37H48.37C48.37 5.62333 48.2533 5.02333 48.02 4.57C47.7933 4.11667 47.4 3.89 46.84 3.89C46.3267 3.89 45.9267 4.10333 45.64 4.53C45.36 4.95667 45.1967 5.57 45.15 6.37ZM54.99 10.78H50.94V10.19H50.99C51.3033 10.19 51.5733 10.1333 51.8 10.02C52.02 9.9 52.13 9.62 52.13 9.18V4.82C52.13 4.40667 52.0167 4.14333 51.79 4.03C51.5633 3.91667 51.2967 3.86 50.99 3.86H50.94V3.28H53.1L53.37 4.66H53.44C53.56 4.38 53.69 4.12333 53.83 3.89C53.97 3.65667 54.1567 3.47333 54.39 3.34C54.6233 3.20667 54.9433 3.14 55.35 3.14C55.8633 3.14 56.2433 3.22667 56.49 3.4C56.7433 3.58 56.87 3.83333 56.87 4.16C56.87 4.44667 56.7667 4.68333 56.56 4.87C56.36 5.05667 56.0267 5.15 55.56 5.15C55.56 4.77 55.5067 4.49333 55.4 4.32C55.2867 4.14667 55.0933 4.06 54.82 4.06C54.56 4.06 54.34 4.16333 54.16 4.37C53.9867 4.57667 53.8467 4.83667 53.74 5.15C53.64 5.47 53.5667 5.8 53.52 6.14C53.4733 6.48 53.45 6.78667 53.45 7.06V9.25C53.45 9.66333 53.5633 9.92333 53.79 10.03C54.0233 10.1367 54.2933 10.19 54.6 10.19H54.99V10.78ZM59.33 1.88C59.1033 1.88 58.9133 1.81333 58.76 1.68C58.6067 1.54667 58.53 1.32333 58.53 1.01C58.53 0.683334 58.6067 0.456667 58.76 0.33C58.9133 0.203334 59.1033 0.14 59.33 0.14C59.5433 0.14 59.73 0.203334 59.89 0.33C60.05 0.456667 60.13 0.683334 60.13 1.01C60.13 1.32333 60.05 1.54667 59.89 1.68C59.73 1.81333 59.5433 1.88 59.33 1.88ZM61.37 10.78H57.4V10.19H57.58C57.8867 10.19 58.1533 10.1367 58.38 10.03C58.6133 9.92333 58.73 9.66333 58.73 9.25V4.82C58.73 4.40667 58.6133 4.14333 58.38 4.03C58.1533 3.91667 57.8867 3.86 57.58 3.86H57.54V3.28H60.04V9.18C60.04 9.62 60.1533 9.9 60.38 10.02C60.6067 10.1333 60.8767 10.19 61.19 10.19H61.37V10.78ZM66.26 10.78H61.93V10.19H62.12C62.4333 10.19 62.7033 10.1333 62.93 10.02C63.15 9.9 63.26 9.62 63.26 9.18V3.93H61.99V3.28H63.26V2.58C63.26 1.74667 63.4833 1.10667 63.93 0.66C64.37 0.22 64.9733 0 65.74 0C66.4667 0 66.9767 0.09 67.27 0.27C67.5567 0.456667 67.7 0.693333 67.7 0.98C67.7 1.23333 67.5933 1.42667 67.38 1.56C67.1667 1.69333 66.89 1.76 66.55 1.76C66.55 1.48 66.4867 1.22333 66.36 0.99C66.2267 0.756667 65.9833 0.64 65.63 0.64C65.23 0.64 64.9533 0.796667 64.8 1.11C64.6533 1.41667 64.58 1.86333 64.58 2.45V3.28H66.55V3.93H64.58V9.18C64.58 9.62 64.6933 9.9 64.92 10.02C65.14 10.1333 65.41 10.19 65.73 10.19H66.26V10.78ZM75.07 10.78H70.89V10.19H71.08C71.3933 10.19 71.6633 10.1333 71.89 10.02C72.11 9.9 72.22 9.62 72.22 9.18V2.32C72.22 1.91333 72.1067 1.65333 71.88 1.54C71.6533 1.42667 71.3867 1.37 71.08 1.37H70.89V0.78H74.65C75.8633 0.78 76.7633 0.983334 77.35 1.39C77.9433 1.79667 78.24 2.43 78.24 3.29C78.24 3.91667 78.0767 4.4 77.75 4.74C77.4167 5.08 77.0033 5.33 76.51 5.49V5.54C77.1433 5.65333 77.66 5.91667 78.06 6.33C78.46 6.75 78.66 7.33333 78.66 8.08C78.66 9.88 77.4633 10.78 75.07 10.78ZM73.64 5.19H74.6C75.4267 5.19 75.99 5.04333 76.29 4.75C76.5967 4.45 76.75 3.96333 76.75 3.29C76.75 2.59667 76.5867 2.12333 76.26 1.87C75.9333 1.61 75.3733 1.48 74.58 1.48H73.64V5.19ZM73.64 10.08H75C75.7933 10.08 76.3533 9.92667 76.68 9.62C77.0067 9.31333 77.17 8.78667 77.17 8.04C77.17 7.30667 77.0167 6.76667 76.71 6.42C76.41 6.06667 75.8467 5.89 75.02 5.89H73.64V10.08ZM82.39 10.92C81.7633 10.92 81.2433 10.7367 80.83 10.37C80.4233 10.01 80.22 9.44667 80.22 8.68C80.22 7.93333 80.4833 7.38333 81.01 7.03C81.5367 6.67667 82.3367 6.48 83.41 6.44L84.57 6.4V5.56C84.57 5.22 84.5433 4.92333 84.49 4.67C84.43 4.41 84.3067 4.20667 84.12 4.06C83.9333 3.91333 83.65 3.84 83.27 3.84C82.9167 3.84 82.6467 3.90333 82.46 4.03C82.2733 4.16333 82.15 4.34333 82.09 4.57C82.03 4.79667 82 5.06 82 5.36C81.6067 5.36 81.31 5.29333 81.11 5.16C80.91 5.02667 80.81 4.8 80.81 4.48C80.81 4.15333 80.9233 3.89333 81.15 3.7C81.3767 3.5 81.6833 3.35667 82.07 3.27C82.45 3.18333 82.87 3.14 83.33 3.14C84.1833 3.14 84.8233 3.32 85.25 3.68C85.6767 4.04667 85.89 4.67333 85.89 5.56V9.18C85.89 9.57333 85.9533 9.84 86.08 9.98C86.2133 10.12 86.44 10.19 86.76 10.19H86.8V10.78H84.91L84.68 9.58H84.57C84.3767 9.84 84.1867 10.07 84 10.27C83.8133 10.47 83.5967 10.6267 83.35 10.74C83.1033 10.86 82.7833 10.92 82.39 10.92ZM82.71 10.05C83.2767 10.05 83.73 9.87667 84.07 9.53C84.4033 9.17667 84.57 8.70333 84.57 8.11V6.97L83.68 7.01C82.8867 7.05 82.3367 7.21333 82.03 7.5C81.73 7.78 81.58 8.19667 81.58 8.75C81.58 9.61667 81.9567 10.05 82.71 10.05ZM91.56 10.78H87.58V10.19H87.76C88.08 10.19 88.3533 10.1333 88.58 10.02C88.8 9.9 88.91 9.62 88.91 9.18V1.68C88.91 1.26667 88.7967 1.00667 88.57 0.9C88.3433 0.786667 88.0733 0.73 87.76 0.73H87.58V0.14H90.23V9.18C90.23 9.62 90.34 9.9 90.56 10.02C90.7867 10.1333 91.06 10.19 91.38 10.19H91.56V10.78ZM93.99 1.88C93.77 1.88 93.5833 1.81333 93.43 1.68C93.2767 1.54667 93.2 1.32333 93.2 1.01C93.2 0.683334 93.2767 0.456667 93.43 0.33C93.5833 0.203334 93.77 0.14 93.99 0.14C94.21 0.14 94.3967 0.203334 94.55 0.33C94.71 0.456667 94.79 0.683334 94.79 1.01C94.79 1.32333 94.71 1.54667 94.55 1.68C94.3967 1.81333 94.21 1.88 93.99 1.88ZM96.04 10.78H92.06V10.19H92.24C92.5533 10.19 92.8233 10.1367 93.05 10.03C93.2767 9.92333 93.39 9.66333 93.39 9.25V4.82C93.39 4.40667 93.2767 4.14333 93.05 4.03C92.8233 3.91667 92.5533 3.86 92.24 3.86H92.2V3.28H94.71V9.18C94.71 9.62 94.82 9.9 95.04 10.02C95.2667 10.1333 95.54 10.19 95.86 10.19H96.04V10.78ZM100.38 10.78H96.61V10.19H96.72C97.04 10.19 97.3133 10.1333 97.54 10.02C97.76 9.9 97.87 9.62 97.87 9.18V4.82C97.87 4.40667 97.76 4.14333 97.54 4.03C97.32 3.91667 97.0567 3.86 96.75 3.86H96.68V3.28H98.95L99.13 4.41H99.2C99.4933 3.89 99.82 3.54667 100.18 3.38C100.533 3.22 100.937 3.14 101.39 3.14C102.123 3.14 102.7 3.35667 103.12 3.79C103.533 4.22333 103.74 4.92 103.74 5.88V9.18C103.74 9.62 103.837 9.9 104.03 10.02C104.217 10.1333 104.47 10.19 104.79 10.19H104.86V10.78H102.42V5.95C102.42 5.34333 102.307 4.87333 102.08 4.54C101.853 4.2 101.453 4.03 100.88 4.03C100.46 4.03 100.127 4.13667 99.88 4.35C99.6333 4.55667 99.4567 4.83333 99.35 5.18C99.2433 5.52667 99.19 5.9 99.19 6.3V9.25C99.19 9.66333 99.3 9.92333 99.52 10.03C99.74 10.1367 100.003 10.19 100.31 10.19H100.38V10.78ZM109.27 10.92C108.25 10.92 107.453 10.5833 106.88 9.91C106.307 9.23667 106.02 8.29333 106.02 7.08C106.02 5.77333 106.29 4.79 106.83 4.13C107.37 3.47 108.137 3.14 109.13 3.14C110.037 3.14 110.747 3.42 111.26 3.98C111.78 4.54 112.04 5.37333 112.04 6.48V7.13H107.38C107.4 8.14333 107.583 8.88 107.93 9.34C108.283 9.80667 108.793 10.04 109.46 10.04C109.947 10.04 110.36 9.94 110.7 9.74C111.04 9.54 111.297 9.31333 111.47 9.06C111.53 9.08667 111.59 9.14333 111.65 9.23C111.703 9.31 111.73 9.41 111.73 9.53C111.73 9.71667 111.643 9.92 111.47 10.14C111.29 10.3533 111.017 10.5367 110.65 10.69C110.29 10.8433 109.83 10.92 109.27 10.92ZM107.41 6.37H110.63C110.63 5.62333 110.513 5.02333 110.28 4.57C110.053 4.11667 109.66 3.89 109.1 3.89C108.587 3.89 108.187 4.10333 107.9 4.53C107.62 4.95667 107.457 5.57 107.41 6.37ZM115.68 10.92C114.98 10.92 114.42 10.7933 114 10.54C113.58 10.2867 113.37 9.92 113.37 9.44C113.37 9.18667 113.42 8.99 113.52 8.85C113.627 8.71 113.747 8.61 113.88 8.55C114.013 8.49667 114.137 8.47 114.25 8.47C114.25 8.95667 114.36 9.37333 114.58 9.72C114.8 10.0733 115.193 10.25 115.76 10.25C116.26 10.25 116.643 10.13 116.91 9.89C117.17 9.65 117.3 9.34333 117.3 8.97C117.3 8.73667 117.253 8.54667 117.16 8.4C117.06 8.25333 116.887 8.10667 116.64 7.96C116.393 7.81333 116.04 7.64333 115.58 7.45C115.107 7.23667 114.713 7.02667 114.4 6.82C114.087 6.62 113.853 6.38667 113.7 6.12C113.547 5.86 113.47 5.52667 113.47 5.12C113.47 4.48667 113.71 4 114.19 3.66C114.67 3.32 115.307 3.15 116.1 3.15C116.773 3.15 117.283 3.27667 117.63 3.53C117.97 3.78333 118.14 4.08667 118.14 4.44C118.14 4.69333 118.057 4.89667 117.89 5.05C117.717 5.20333 117.467 5.28 117.14 5.28C117.14 4.81333 117.04 4.45 116.84 4.19C116.647 3.92333 116.343 3.79 115.93 3.79C115.457 3.79 115.117 3.89667 114.91 4.11C114.703 4.31667 114.6 4.58333 114.6 4.91C114.6 5.27 114.733 5.54333 115 5.73C115.267 5.92333 115.713 6.14667 116.34 6.4C116.833 6.60667 117.233 6.81 117.54 7.01C117.847 7.21667 118.073 7.45667 118.22 7.73C118.367 7.99667 118.44 8.32667 118.44 8.72C118.44 9.44667 118.187 9.99667 117.68 10.37C117.18 10.7367 116.513 10.92 115.68 10.92ZM123.07 10.92C122.057 10.92 121.263 10.5833 120.69 9.91C120.11 9.23667 119.82 8.29333 119.82 7.08C119.82 5.77333 120.093 4.79 120.64 4.13C121.18 3.47 121.943 3.14 122.93 3.14C123.837 3.14 124.55 3.42 125.07 3.98C125.583 4.54 125.84 5.37333 125.84 6.48V7.13H121.18C121.2 8.14333 121.387 8.88 121.74 9.34C122.087 9.80667 122.597 10.04 123.27 10.04C123.757 10.04 124.17 9.94 124.51 9.74C124.85 9.54 125.103 9.31333 125.27 9.06C125.337 9.08667 125.397 9.14333 125.45 9.23C125.51 9.31 125.54 9.41 125.54 9.53C125.54 9.71667 125.45 9.92 125.27 10.14C125.09 10.3533 124.82 10.5367 124.46 10.69C124.093 10.8433 123.63 10.92 123.07 10.92ZM121.21 6.37H124.43C124.43 5.62333 124.317 5.02333 124.09 4.57C123.857 4.11667 123.46 3.89 122.9 3.89C122.387 3.89 121.99 4.10333 121.71 4.53C121.423 4.95667 121.257 5.57 121.21 6.37Z" fill="black"/>
</svg>
