<svg width="199" height="11" viewBox="0 0 199 11" fill="none" xmlns="http://www.w3.org/2000/svg">
<path d="M8.42 0.64V10.64H6.95L1.6 2.34H1.55C1.57 2.66667 1.59333 3.07333 1.62 3.56C1.64667 4.04 1.66 4.53667 1.66 5.05V10.64H0.5V0.64H1.95L7.29 8.92H7.34C7.33333 8.76667 7.32333 8.54333 7.31 8.25C7.29667 7.95 7.28333 7.62333 7.27 7.27C7.25667 6.91 7.25 6.58333 7.25 6.29V0.64H8.42ZM17.49 6.87C17.49 8.11667 17.1767 9.08 16.55 9.76C15.9167 10.44 15.0633 10.78 13.99 10.78C13.33 10.78 12.74 10.63 12.22 10.33C11.7067 10.0233 11.3 9.58 11 9C10.7 8.41333 10.55 7.70333 10.55 6.87C10.55 5.63 10.8633 4.67333 11.49 4C12.1167 3.33333 12.9667 3 14.04 3C14.72 3 15.32 3.15 15.84 3.45C16.3533 3.75667 16.7567 4.19667 17.05 4.77C17.3433 5.34333 17.49 6.04333 17.49 6.87ZM11.82 6.87C11.82 7.75667 11.9967 8.46 12.35 8.98C12.6967 9.5 13.2533 9.76 14.02 9.76C14.78 9.76 15.3367 9.5 15.69 8.98C16.0433 8.46 16.22 7.75667 16.22 6.87C16.22 5.98333 16.0433 5.29 15.69 4.79C15.3367 4.28333 14.7767 4.03 14.01 4.03C13.2433 4.03 12.6867 4.28333 12.34 4.79C11.9933 5.29 11.82 5.98333 11.82 6.87ZM21.95 9.77C22.1367 9.77 22.3267 9.75333 22.52 9.72C22.7133 9.68667 22.8733 9.65333 23 9.62V10.56C22.8667 10.62 22.68 10.6733 22.44 10.72C22.1933 10.76 21.96 10.78 21.74 10.78C21.3467 10.78 20.9833 10.7133 20.65 10.58C20.3167 10.44 20.05 10.2033 19.85 9.87C19.6433 9.53667 19.54 9.06667 19.54 8.46V4.09H18.47V3.5L19.55 3.01L20.04 1.41H20.77V3.14H22.94V4.09H20.77V8.43C20.77 8.88333 20.88 9.22 21.1 9.44C21.32 9.66 21.6033 9.77 21.95 9.77ZM31.02 6.87C31.02 8.11667 30.7033 9.08 30.07 9.76C29.4433 10.44 28.5933 10.78 27.52 10.78C26.8533 10.78 26.2633 10.63 25.75 10.33C25.23 10.0233 24.82 9.58 24.52 9C24.22 8.41333 24.07 7.70333 24.07 6.87C24.07 5.63 24.3833 4.67333 25.01 4C25.6367 3.33333 26.4867 3 27.56 3C28.24 3 28.84 3.15 29.36 3.45C29.88 3.75667 30.2867 4.19667 30.58 4.77C30.8733 5.34333 31.02 6.04333 31.02 6.87ZM25.35 6.87C25.35 7.75667 25.5233 8.46 25.87 8.98C26.2233 9.5 26.7833 9.76 27.55 9.76C28.3033 9.76 28.8567 9.5 29.21 8.98C29.5633 8.46 29.74 7.75667 29.74 6.87C29.74 5.98333 29.5633 5.29 29.21 4.79C28.8567 4.28333 28.2967 4.03 27.53 4.03C26.7633 4.03 26.21 4.28333 25.87 4.79C25.5233 5.29 25.35 5.98333 25.35 6.87ZM43 7.97C43 8.85667 42.68 9.54667 42.04 10.04C41.3933 10.5333 40.5233 10.78 39.43 10.78C38.87 10.78 38.3533 10.7367 37.88 10.65C37.4 10.57 37.0033 10.4533 36.69 10.3V9.1C37.0233 9.24667 37.44 9.38333 37.94 9.51C38.44 9.63 38.9567 9.69 39.49 9.69C40.2367 9.69 40.8 9.54333 41.18 9.25C41.5533 8.96333 41.74 8.57333 41.74 8.08C41.74 7.75333 41.67 7.47667 41.53 7.25C41.39 7.03 41.15 6.82333 40.81 6.63C40.47 6.43667 39.9967 6.23333 39.39 6.02C38.5433 5.71333 37.9033 5.33667 37.47 4.89C37.03 4.43667 36.81 3.82333 36.81 3.05C36.81 2.51667 36.9467 2.06333 37.22 1.69C37.4933 1.31 37.87 1.01667 38.35 0.81C38.83 0.603333 39.3833 0.5 40.01 0.5C40.5567 0.5 41.06 0.553333 41.52 0.66C41.9733 0.76 42.3867 0.893333 42.76 1.06L42.37 2.14C42.0233 1.99333 41.65 1.86667 41.25 1.76C40.8433 1.66 40.42 1.61 39.98 1.61C39.3533 1.61 38.88 1.74333 38.56 2.01C38.2467 2.27667 38.09 2.63 38.09 3.07C38.09 3.40333 38.16 3.68333 38.3 3.91C38.44 4.13 38.6667 4.33 38.98 4.51C39.3 4.68333 39.73 4.87333 40.27 5.08C40.8567 5.29333 41.3533 5.52333 41.76 5.77C42.1667 6.02333 42.4767 6.32 42.69 6.66C42.8967 7.00667 43 7.44333 43 7.97ZM47.69 3.01C48.6033 3.01 49.28 3.21 49.72 3.61C50.16 4.01 50.38 4.65 50.38 5.53V10.64H49.48L49.25 9.58H49.19C48.8633 9.98667 48.52 10.29 48.16 10.49C47.8 10.6833 47.3033 10.78 46.67 10.78C45.99 10.78 45.4267 10.6 44.98 10.24C44.5267 9.88 44.3 9.31667 44.3 8.55C44.3 7.80333 44.5967 7.23 45.19 6.83C45.7767 6.42333 46.68 6.2 47.9 6.16L49.18 6.12V5.67C49.18 5.04333 49.0433 4.61 48.77 4.37C48.4967 4.12333 48.1133 4 47.62 4C47.2267 4 46.8533 4.06 46.5 4.18C46.1467 4.29333 45.8167 4.42667 45.51 4.58L45.13 3.65C45.4567 3.47667 45.8433 3.32667 46.29 3.2C46.7367 3.07333 47.2033 3.01 47.69 3.01ZM49.16 6.97L48.06 7.01C47.1267 7.05 46.48 7.2 46.12 7.46C45.76 7.72 45.58 8.09 45.58 8.57C45.58 8.99 45.7067 9.29667 45.96 9.49C46.22 9.69 46.55 9.79 46.95 9.79C47.5833 9.79 48.11 9.61333 48.53 9.26C48.95 8.91333 49.16 8.37333 49.16 7.64V6.97ZM56.32 3C57.2133 3 57.89 3.21667 58.35 3.65C58.8033 4.08333 59.03 4.78333 59.03 5.75V10.64H57.81V5.84C57.81 4.63333 57.25 4.03 56.13 4.03C55.3033 4.03 54.73 4.26333 54.41 4.73C54.0967 5.19667 53.94 5.87 53.94 6.75V10.64H52.7V3.14H53.7L53.88 4.16H53.95C54.19 3.76667 54.5267 3.47333 54.96 3.28C55.3867 3.09333 55.84 3 56.32 3ZM66.24 8.57C66.24 9.29667 65.97 9.84667 65.43 10.22C64.89 10.5933 64.1633 10.78 63.25 10.78C62.7233 10.78 62.2733 10.7367 61.9 10.65C61.52 10.57 61.1833 10.4533 60.89 10.3V9.18C61.19 9.33333 61.5533 9.47333 61.98 9.6C62.4067 9.72667 62.8367 9.79 63.27 9.79C63.8967 9.79 64.35 9.69 64.63 9.49C64.91 9.28333 65.05 9.01333 65.05 8.68C65.05 8.49333 65 8.32667 64.9 8.18C64.7933 8.02667 64.6067 7.87667 64.34 7.73C64.08 7.57667 63.7 7.40667 63.2 7.22C62.72 7.03333 62.3067 6.84667 61.96 6.66C61.6133 6.47333 61.3467 6.25 61.16 5.99C60.9733 5.73 60.88 5.39333 60.88 4.98C60.88 4.34667 61.14 3.85667 61.66 3.51C62.1733 3.17 62.85 3 63.69 3C64.15 3 64.58 3.04333 64.98 3.13C65.3733 3.21667 65.7433 3.34 66.09 3.5L65.67 4.48C65.35 4.34667 65.0167 4.23333 64.67 4.14C64.33 4.04667 63.9767 4 63.61 4C63.1033 4 62.72 4.08333 62.46 4.25C62.1933 4.41 62.06 4.63 62.06 4.91C62.06 5.11667 62.12 5.29333 62.24 5.44C62.36 5.58667 62.5633 5.72667 62.85 5.86C63.13 5.99333 63.51 6.15333 63.99 6.34C64.4633 6.52 64.87 6.70333 65.21 6.89C65.5433 7.07667 65.8 7.30333 65.98 7.57C66.1533 7.83667 66.24 8.17 66.24 8.57ZM76.71 1.61C75.6367 1.61 74.7933 1.97 74.18 2.69C73.5667 3.41 73.26 4.39333 73.26 5.64C73.26 6.88 73.5467 7.86333 74.12 8.59C74.6933 9.31 75.5533 9.67 76.7 9.67C77.14 9.67 77.5567 9.63333 77.95 9.56C78.3367 9.48667 78.7167 9.39333 79.09 9.28V10.37C78.7167 10.51 78.3333 10.6133 77.94 10.68C77.54 10.7467 77.0667 10.78 76.52 10.78C75.5 10.78 74.65 10.57 73.97 10.15C73.29 9.73 72.78 9.13333 72.44 8.36C72.1 7.58667 71.93 6.67667 71.93 5.63C71.93 4.62333 72.1133 3.73333 72.48 2.96C72.8467 2.19333 73.39 1.59333 74.11 1.16C74.83 0.72 75.7033 0.5 76.73 0.5C77.7833 0.5 78.7033 0.696666 79.49 1.09L78.98 2.16C78.6733 2.02 78.33 1.89333 77.95 1.78C77.5767 1.66667 77.1633 1.61 76.71 1.61ZM83.95 3.01C84.8633 3.01 85.54 3.21 85.98 3.61C86.42 4.01 86.64 4.65 86.64 5.53V10.64H85.74L85.51 9.58H85.45C85.1233 9.98667 84.78 10.29 84.42 10.49C84.06 10.6833 83.5633 10.78 82.93 10.78C82.25 10.78 81.6867 10.6 81.24 10.24C80.7867 9.88 80.56 9.31667 80.56 8.55C80.56 7.80333 80.8567 7.23 81.45 6.83C82.0367 6.42333 82.94 6.2 84.16 6.16L85.44 6.12V5.67C85.44 5.04333 85.3033 4.61 85.03 4.37C84.7567 4.12333 84.3733 4 83.88 4C83.4867 4 83.1133 4.06 82.76 4.18C82.4067 4.29333 82.0767 4.42667 81.77 4.58L81.39 3.65C81.7167 3.47667 82.1033 3.32667 82.55 3.2C82.9967 3.07333 83.4633 3.01 83.95 3.01ZM85.42 6.97L84.32 7.01C83.3867 7.05 82.74 7.2 82.38 7.46C82.02 7.72 81.84 8.09 81.84 8.57C81.84 8.99 81.9667 9.29667 82.22 9.49C82.48 9.69 82.81 9.79 83.21 9.79C83.8433 9.79 84.37 9.61333 84.79 9.26C85.21 8.91333 85.42 8.37333 85.42 7.64V6.97ZM94 3.14H95.24V10.64H94.23L94.05 9.65H93.99C93.75 10.0367 93.4133 10.3233 92.98 10.51C92.5533 10.69 92.0967 10.78 91.61 10.78C90.7033 10.78 90.0233 10.5633 89.57 10.13C89.11 9.69667 88.88 9.00333 88.88 8.05V3.14H90.13V7.97C90.13 9.16333 90.6833 9.76 91.79 9.76C92.6233 9.76 93.2 9.52667 93.52 9.06C93.84 8.59333 94 7.92 94 7.04V3.14ZM100.63 10.78C99.9633 10.78 99.3733 10.6433 98.86 10.37C98.34 10.1033 97.9333 9.68333 97.64 9.11C97.3467 8.54333 97.2 7.81667 97.2 6.93C97.2 6.00333 97.3533 5.25333 97.66 4.68C97.9667 4.1 98.3833 3.67333 98.91 3.4C99.4367 3.13333 100.037 3 100.71 3C101.09 3 101.46 3.03667 101.82 3.11C102.173 3.19 102.46 3.28667 102.68 3.4L102.31 4.42C102.083 4.34 101.82 4.26333 101.52 4.19C101.22 4.11 100.94 4.07 100.68 4.07C99.2067 4.07 98.47 5.02 98.47 6.92C98.47 7.82 98.65 8.51333 99.01 9C99.37 9.48 99.9033 9.72 100.61 9.72C101.023 9.72 101.387 9.67667 101.7 9.59C102.013 9.50333 102.3 9.4 102.56 9.28V10.37C102.307 10.5033 102.03 10.6067 101.73 10.68C101.423 10.7467 101.057 10.78 100.63 10.78ZM107.18 3.01C108.093 3.01 108.77 3.21 109.21 3.61C109.65 4.01 109.87 4.65 109.87 5.53V10.64H108.97L108.73 9.58H108.68C108.353 9.98667 108.01 10.29 107.65 10.49C107.29 10.6833 106.793 10.78 106.16 10.78C105.473 10.78 104.907 10.6 104.46 10.24C104.013 9.88 103.79 9.31667 103.79 8.55C103.79 7.80333 104.083 7.23 104.67 6.83C105.257 6.42333 106.163 6.2 107.39 6.16L108.66 6.12V5.67C108.66 5.04333 108.527 4.61 108.26 4.37C107.987 4.12333 107.603 4 107.11 4C106.717 4 106.343 4.06 105.99 4.18C105.637 4.29333 105.303 4.42667 104.99 4.58L104.62 3.65C104.947 3.47667 105.333 3.32667 105.78 3.2C106.227 3.07333 106.693 3.01 107.18 3.01ZM108.65 6.97L107.54 7.01C106.607 7.05 105.96 7.2 105.6 7.46C105.24 7.72 105.06 8.09 105.06 8.57C105.06 8.99 105.19 9.29667 105.45 9.49C105.703 9.69 106.033 9.79 106.44 9.79C107.073 9.79 107.6 9.61333 108.02 9.26C108.44 8.91333 108.65 8.37333 108.65 7.64V6.97ZM117.08 8.57C117.08 9.29667 116.807 9.84667 116.26 10.22C115.72 10.5933 114.993 10.78 114.08 10.78C113.56 10.78 113.11 10.7367 112.73 10.65C112.35 10.57 112.017 10.4533 111.73 10.3V9.18C112.03 9.33333 112.39 9.47333 112.81 9.6C113.237 9.72667 113.67 9.79 114.11 9.79C114.737 9.79 115.19 9.69 115.47 9.49C115.75 9.28333 115.89 9.01333 115.89 8.68C115.89 8.49333 115.837 8.32667 115.73 8.18C115.63 8.02667 115.447 7.87667 115.18 7.73C114.913 7.57667 114.533 7.40667 114.04 7.22C113.553 7.03333 113.137 6.84667 112.79 6.66C112.443 6.47333 112.177 6.25 111.99 5.99C111.803 5.73 111.71 5.39333 111.71 4.98C111.71 4.34667 111.97 3.85667 112.49 3.51C113.01 3.17 113.69 3 114.53 3C114.983 3 115.41 3.04333 115.81 3.13C116.203 3.21667 116.573 3.34 116.92 3.5L116.5 4.48C116.187 4.34667 115.857 4.23333 115.51 4.14C115.163 4.04667 114.807 4 114.44 4C113.94 4 113.557 4.08333 113.29 4.25C113.023 4.41 112.89 4.63 112.89 4.91C112.89 5.11667 112.95 5.29333 113.07 5.44C113.19 5.58667 113.393 5.72667 113.68 5.86C113.967 5.99333 114.347 6.15333 114.82 6.34C115.3 6.52 115.707 6.70333 116.04 6.89C116.373 7.07667 116.63 7.30333 116.81 7.57C116.99 7.83667 117.08 8.17 117.08 8.57ZM119.53 0.32C119.717 0.32 119.88 0.383333 120.02 0.51C120.167 0.636666 120.24 0.836666 120.24 1.11C120.24 1.37 120.167 1.56333 120.02 1.69C119.88 1.82333 119.717 1.89 119.53 1.89C119.323 1.89 119.15 1.82333 119.01 1.69C118.87 1.56333 118.8 1.37 118.8 1.11C118.8 0.836666 118.87 0.636666 119.01 0.51C119.15 0.383333 119.323 0.32 119.53 0.32ZM118.9 3.14H120.13V10.64H118.9V3.14ZM125.35 3.01C126.263 3.01 126.94 3.21 127.38 3.61C127.82 4.01 128.04 4.65 128.04 5.53V10.64H127.14L126.9 9.58H126.85C126.523 9.98667 126.18 10.29 125.82 10.49C125.46 10.6833 124.963 10.78 124.33 10.78C123.65 10.78 123.083 10.6 122.63 10.24C122.183 9.88 121.96 9.31667 121.96 8.55C121.96 7.80333 122.253 7.23 122.84 6.83C123.433 6.42333 124.34 6.2 125.56 6.16L126.83 6.12V5.67C126.83 5.04333 126.697 4.61 126.43 4.37C126.157 4.12333 125.773 4 125.28 4C124.887 4 124.513 4.06 124.16 4.18C123.807 4.29333 123.477 4.42667 123.17 4.58L122.79 3.65C123.117 3.47667 123.503 3.32667 123.95 3.2C124.397 3.07333 124.863 3.01 125.35 3.01ZM126.82 6.97L125.71 7.01C124.777 7.05 124.13 7.2 123.77 7.46C123.417 7.72 123.24 8.09 123.24 8.57C123.24 8.99 123.367 9.29667 123.62 9.49C123.88 9.69 124.21 9.79 124.61 9.79C125.243 9.79 125.77 9.61333 126.19 9.26C126.61 8.91333 126.82 8.37333 126.82 7.64V6.97ZM133.97 3C134.87 3 135.547 3.21667 136 3.65C136.46 4.08333 136.69 4.78333 136.69 5.75V10.64H135.47V5.84C135.47 4.63333 134.91 4.03 133.79 4.03C132.963 4.03 132.39 4.26333 132.07 4.73C131.75 5.19667 131.59 5.87 131.59 6.75V10.64H130.36V3.14H131.36L131.54 4.16H131.61C131.85 3.76667 132.187 3.47333 132.62 3.28C133.047 3.09333 133.497 3 133.97 3ZM150.96 10.64H149.65L148.45 7.55H144.49L143.3 10.64H142.02L145.93 0.6H147.06L150.96 10.64ZM148.07 6.43L146.95 3.4C146.923 3.32667 146.877 3.19333 146.81 3C146.743 2.8 146.68 2.59667 146.62 2.39C146.56 2.17667 146.513 2.01333 146.48 1.9C146.413 2.19333 146.337 2.47667 146.25 2.75C146.17 3.02333 146.1 3.24 146.04 3.4L144.91 6.43H148.07ZM153.39 0V10.64H152.16V0H153.39ZM157 0V2.59C157 2.91 156.993 3.20667 156.98 3.48C156.967 3.75333 156.95 3.97 156.93 4.13H157C157.22 3.81 157.517 3.54333 157.89 3.33C158.263 3.11667 158.743 3.01 159.33 3.01C160.263 3.01 161.013 3.33333 161.58 3.98C162.14 4.63333 162.42 5.60333 162.42 6.89C162.42 8.17667 162.137 9.14667 161.57 9.8C160.997 10.4533 160.25 10.78 159.33 10.78C158.743 10.78 158.263 10.6733 157.89 10.46C157.517 10.2467 157.22 9.99 157 9.69H156.91L156.65 10.64H155.77V0H157ZM159.12 4.03C158.327 4.03 157.777 4.26 157.47 4.72C157.157 5.17333 157 5.88333 157 6.85V6.9C157 7.82667 157.153 8.53333 157.46 9.02C157.76 9.51333 158.323 9.76 159.15 9.76C159.817 9.76 160.317 9.51333 160.65 9.02C160.983 8.52 161.15 7.80333 161.15 6.87C161.15 4.97667 160.473 4.03 159.12 4.03ZM167.22 3.01C168.14 3.01 168.817 3.21 169.25 3.61C169.69 4.01 169.91 4.65 169.91 5.53V10.64H169.02L168.78 9.58H168.72C168.393 9.98667 168.05 10.29 167.69 10.49C167.33 10.6833 166.833 10.78 166.2 10.78C165.52 10.78 164.957 10.6 164.51 10.24C164.063 9.88 163.84 9.31667 163.84 8.55C163.84 7.80333 164.133 7.23 164.72 6.83C165.307 6.42333 166.21 6.2 167.43 6.16L168.71 6.12V5.67C168.71 5.04333 168.573 4.61 168.3 4.37C168.033 4.12333 167.65 4 167.15 4C166.763 4 166.39 4.06 166.03 4.18C165.677 4.29333 165.347 4.42667 165.04 4.58L164.66 3.65C164.987 3.47667 165.373 3.32667 165.82 3.2C166.273 3.07333 166.74 3.01 167.22 3.01ZM168.69 6.97L167.59 7.01C166.657 7.05 166.01 7.2 165.65 7.46C165.29 7.72 165.11 8.09 165.11 8.57C165.11 8.99 165.24 9.29667 165.5 9.49C165.753 9.69 166.08 9.79 166.48 9.79C167.113 9.79 167.64 9.61333 168.06 9.26C168.48 8.91333 168.69 8.37333 168.69 7.64V6.97ZM175.85 3C176.743 3 177.42 3.21667 177.88 3.65C178.333 4.08333 178.56 4.78333 178.56 5.75V10.64H177.35V5.84C177.35 4.63333 176.79 4.03 175.67 4.03C174.837 4.03 174.26 4.26333 173.94 4.73C173.627 5.19667 173.47 5.87 173.47 6.75V10.64H172.24V3.14H173.23L173.41 4.16H173.48C173.727 3.76667 174.063 3.47333 174.49 3.28C174.917 3.09333 175.37 3 175.85 3ZM181.52 0.32C181.707 0.32 181.873 0.383333 182.02 0.51C182.16 0.636666 182.23 0.836666 182.23 1.11C182.23 1.37 182.16 1.56333 182.02 1.69C181.873 1.82333 181.707 1.89 181.52 1.89C181.313 1.89 181.14 1.82333 181 1.69C180.86 1.56333 180.79 1.37 180.79 1.11C180.79 0.836666 180.86 0.636666 181 0.51C181.14 0.383333 181.313 0.32 181.52 0.32ZM180.89 3.14H182.12V10.64H180.89V3.14ZM187.34 3.01C188.253 3.01 188.93 3.21 189.37 3.61C189.81 4.01 190.03 4.65 190.03 5.53V10.64H189.13L188.9 9.58H188.84C188.513 9.98667 188.17 10.29 187.81 10.49C187.45 10.6833 186.953 10.78 186.32 10.78C185.64 10.78 185.077 10.6 184.63 10.24C184.177 9.88 183.95 9.31667 183.95 8.55C183.95 7.80333 184.247 7.23 184.84 6.83C185.427 6.42333 186.33 6.2 187.55 6.16L188.83 6.12V5.67C188.83 5.04333 188.693 4.61 188.42 4.37C188.147 4.12333 187.763 4 187.27 4C186.877 4 186.503 4.06 186.15 4.18C185.797 4.29333 185.467 4.42667 185.16 4.58L184.78 3.65C185.107 3.47667 185.493 3.32667 185.94 3.2C186.387 3.07333 186.853 3.01 187.34 3.01ZM188.81 6.97L187.71 7.01C186.777 7.05 186.13 7.2 185.77 7.46C185.41 7.72 185.23 8.09 185.23 8.57C185.23 8.99 185.357 9.29667 185.61 9.49C185.87 9.69 186.2 9.79 186.6 9.79C187.233 9.79 187.76 9.61333 188.18 9.26C188.6 8.91333 188.81 8.37333 188.81 7.64V6.97ZM195.97 3C196.863 3 197.54 3.21667 198 3.65C198.453 4.08333 198.68 4.78333 198.68 5.75V10.64H197.46V5.84C197.46 4.63333 196.9 4.03 195.78 4.03C194.953 4.03 194.38 4.26333 194.06 4.73C193.747 5.19667 193.59 5.87 193.59 6.75V10.64H192.35V3.14H193.35L193.53 4.16H193.6C193.84 3.76667 194.177 3.47333 194.61 3.28C195.037 3.09333 195.49 3 195.97 3Z" fill="black"/>
</svg>
