<svg width="127" height="13" viewBox="0 0 127 13" fill="none" xmlns="http://www.w3.org/2000/svg">
<path d="M7.5 12.35H0.5V0H7.5V12.35ZM1.28 0.78V11.56H6.72V0.78H1.28ZM15.9 12.35H8.9V0H15.9V12.35ZM9.68 0.78V11.56H15.12V0.78H9.68ZM24.3 12.35H17.3V0H24.3V12.35ZM18.08 0.78V11.56H23.52V0.78H18.08ZM32.7 12.35H25.7V0H32.7V12.35ZM26.48 0.78V11.56H31.92V0.78H26.48ZM45.86 12.35H38.86V0H45.86V12.35ZM39.64 0.78V11.56H45.08V0.78H39.64ZM54.26 12.35H47.26V0H54.26V12.35ZM48.04 0.78V11.56H53.48V0.78H48.04ZM62.66 12.35H55.66V0H62.66V12.35ZM56.44 0.78V11.56H61.88V0.78H56.44ZM71.06 12.35H64.06V0H71.06V12.35ZM64.84 0.78V11.56H70.28V0.78H64.84ZM84.22 12.35H77.22V0H84.22V12.35ZM78 0.78V11.56H83.44V0.78H78ZM92.62 12.35H85.62V0H92.62V12.35ZM86.4 0.78V11.56H91.84V0.78H86.4ZM101.02 12.35H94.02V0H101.02V12.35ZM94.8 0.78V11.56H100.24V0.78H94.8ZM109.42 12.35H102.42V0H109.42V12.35ZM103.2 0.78V11.56H108.64V0.78H103.2ZM117.82 12.35H110.82V0H117.82V12.35ZM111.6 0.78V11.56H117.04V0.78H111.6ZM126.22 12.35H119.22V0H126.22V12.35ZM120 0.78V11.56H125.44V0.78H120Z" fill="black"/>
</svg>
