<svg width="120" height="15" viewBox="0 0 120 15" fill="none" xmlns="http://www.w3.org/2000/svg">
<path d="M3.74 10.78H0.5V10.64H0.91C1.16333 10.64 1.37333 10.6033 1.54 10.53C1.71333 10.4567 1.84333 10.3433 1.93 10.19C2.01667 10.0433 2.06 9.85667 2.06 9.63V1.88C2.06 1.66 2.01667 1.48 1.93 1.34C1.84333 1.2 1.71333 1.09667 1.54 1.03C1.37333 0.956667 1.16333 0.92 0.91 0.92H0.5V0.78H3.23L8.57 8.78V1.93C8.57 1.71 8.52667 1.52333 8.44 1.37C8.35333 1.22333 8.22667 1.11333 8.06 1.04C7.89333 0.96 7.68 0.92 7.42 0.92H7.03V0.78H10.26V0.92H9.85C9.60333 0.92 9.39333 0.96 9.22 1.04C9.05333 1.11333 8.92667 1.22333 8.84 1.37C8.75333 1.52333 8.71 1.71 8.71 1.93V10.78H8.29L2.2 1.65V9.63C2.2 9.85667 2.24 10.0433 2.32 10.19C2.40667 10.3433 2.53667 10.4567 2.71 10.53C2.88333 10.6033 3.09333 10.64 3.34 10.64H3.74V10.78ZM14.67 10.92C13.6633 10.92 12.87 10.5967 12.29 9.95C11.71 9.31 11.42 8.33 11.42 7.01C11.42 5.70333 11.7 4.73 12.26 4.09C12.8133 3.45667 13.63 3.14 14.71 3.14C15.7167 3.14 16.51 3.45667 17.09 4.09C17.67 4.73 17.96 5.70333 17.96 7.01C17.96 8.33 17.6833 9.31 17.13 9.95C16.57 10.5967 15.75 10.92 14.67 10.92ZM14.7 10.78C15.1533 10.78 15.52 10.6533 15.8 10.4C16.08 10.1467 16.2833 9.74667 16.41 9.2C16.5367 8.64667 16.6 7.91667 16.6 7.01C16.6 6.11667 16.5367 5.39333 16.41 4.84C16.2833 4.29333 16.08 3.89667 15.8 3.65C15.52 3.40333 15.1467 3.28 14.68 3.28C14.2267 3.28 13.86 3.40333 13.58 3.65C13.3 3.89667 13.0967 4.29333 12.97 4.84C12.8433 5.39333 12.78 6.11667 12.78 7.01C12.78 7.91667 12.8433 8.64667 12.97 9.2C13.0967 9.74667 13.3033 10.1467 13.59 10.4C13.87 10.6533 14.24 10.78 14.7 10.78ZM22.09 10.92C21.3833 10.92 20.8667 10.76 20.54 10.44C20.22 10.1133 20.06 9.55 20.06 8.75V3.42H19V3.28C19.3333 3.28 19.6233 3.25 19.87 3.19C20.1167 3.12333 20.33 3.02667 20.51 2.9C20.6967 2.76667 20.8467 2.59 20.96 2.37C21.08 2.14333 21.1733 1.87 21.24 1.55H21.38V3.28H23.34V3.42H21.38V9.27C21.38 9.75667 21.4733 10.12 21.66 10.36C21.8467 10.6 22.12 10.72 22.48 10.72C22.6133 10.72 22.75 10.7067 22.89 10.68C23.03 10.6533 23.18 10.6133 23.34 10.56V10.7C23.2133 10.7533 23.03 10.8033 22.79 10.85C22.55 10.8967 22.3167 10.92 22.09 10.92ZM27.68 10.92C26.6667 10.92 25.8733 10.5967 25.3 9.95C24.72 9.31 24.43 8.33 24.43 7.01C24.43 5.70333 24.7067 4.73 25.26 4.09C25.8133 3.45667 26.6333 3.14 27.72 3.14C28.7267 3.14 29.52 3.45667 30.1 4.09C30.68 4.73 30.97 5.70333 30.97 7.01C30.97 8.33 30.69 9.31 30.13 9.95C29.5767 10.5967 28.76 10.92 27.68 10.92ZM27.7 10.78C28.16 10.78 28.53 10.6533 28.81 10.4C29.09 10.1467 29.2933 9.74667 29.42 9.2C29.5467 8.64667 29.61 7.91667 29.61 7.01C29.61 6.11667 29.5467 5.39333 29.42 4.84C29.2933 4.29333 29.09 3.89667 28.81 3.65C28.53 3.40333 28.1567 3.28 27.69 3.28C27.23 3.28 26.86 3.40333 26.58 3.65C26.3 3.89667 26.0967 4.29333 25.97 4.84C25.85 5.39333 25.79 6.11667 25.79 7.01C25.79 7.91667 25.85 8.64667 25.97 9.2C26.0967 9.74667 26.3033 10.1467 26.59 10.4C26.8767 10.6533 27.2467 10.78 27.7 10.78ZM38.5 10.92C38.04 10.92 37.63 10.87 37.27 10.77C36.9033 10.6767 36.59 10.5433 36.33 10.37C36.0767 10.1967 35.8833 9.99333 35.75 9.76C35.6233 9.52667 35.56 9.27 35.56 8.99C35.56 8.77667 35.6 8.59667 35.68 8.45C35.76 8.30333 35.8733 8.19333 36.02 8.12C36.1667 8.04667 36.35 8.01 36.57 8.01C36.5767 8.61667 36.6533 9.12667 36.8 9.54C36.94 9.95333 37.16 10.2633 37.46 10.47C37.76 10.6767 38.14 10.78 38.6 10.78C39.1933 10.78 39.6733 10.6033 40.04 10.25C40.4133 9.90333 40.6 9.39 40.6 8.71C40.6 8.29 40.5233 7.95 40.37 7.69C40.2167 7.42333 39.9667 7.18667 39.62 6.98C39.28 6.76667 38.8367 6.53667 38.29 6.29C37.9967 6.15 37.7 5.99667 37.4 5.83C37.0933 5.67 36.8133 5.47333 36.56 5.24C36.3 5.01333 36.0933 4.73333 35.94 4.4C35.7867 4.07333 35.71 3.68 35.71 3.22C35.71 2.66 35.8333 2.19 36.08 1.81C36.32 1.42333 36.66 1.13333 37.1 0.94C37.5467 0.74 38.07 0.64 38.67 0.64C39.2167 0.64 39.6933 0.716667 40.1 0.87C40.5067 1.01667 40.8233 1.21333 41.05 1.46C41.2833 1.7 41.4 1.96333 41.4 2.25C41.4 2.52333 41.2967 2.73667 41.09 2.89C40.8833 3.04333 40.6167 3.12 40.29 3.12C40.29 2.34667 40.1633 1.76333 39.91 1.37C39.6567 0.976667 39.2367 0.78 38.65 0.78C38.2967 0.78 37.9833 0.853333 37.71 1C37.4433 1.14667 37.2367 1.36333 37.09 1.65C36.9433 1.93 36.87 2.28667 36.87 2.72C36.87 3.17333 36.9567 3.54 37.13 3.82C37.2967 4.1 37.55 4.34 37.89 4.54C38.23 4.74 38.6567 4.96333 39.17 5.21C39.6367 5.42333 40.0667 5.64667 40.46 5.88C40.86 6.11333 41.18 6.40667 41.42 6.76C41.6667 7.11333 41.79 7.58 41.79 8.16C41.79 8.73333 41.66 9.22333 41.4 9.63C41.1467 10.0433 40.7733 10.36 40.28 10.58C39.7933 10.8067 39.2 10.92 38.5 10.92ZM46.59 10.92C45.5433 10.92 44.73 10.5833 44.15 9.91C43.5633 9.23667 43.27 8.29333 43.27 7.08C43.27 5.77333 43.54 4.79 44.08 4.13C44.6267 3.47 45.3933 3.14 46.38 3.14C47.2867 3.14 47.9967 3.42 48.51 3.98C49.03 4.54 49.29 5.37333 49.29 6.48V6.82H44.63C44.6367 7.77333 44.7067 8.53667 44.84 9.11C44.9733 9.69 45.1867 10.1133 45.48 10.38C45.7733 10.6467 46.1567 10.78 46.63 10.78C46.9833 10.78 47.3 10.7133 47.58 10.58C47.8533 10.4533 48.0833 10.26 48.27 10C48.4567 9.74667 48.5833 9.43333 48.65 9.06C48.7633 9.08 48.8467 9.13667 48.9 9.23C48.9533 9.32333 48.98 9.42 48.98 9.52C48.98 9.70667 48.8933 9.91 48.72 10.13C48.54 10.35 48.2767 10.5367 47.93 10.69C47.5767 10.8433 47.13 10.92 46.59 10.92ZM44.63 6.68H47.88C47.88 5.86 47.8267 5.2 47.72 4.7C47.62 4.20667 47.4567 3.84667 47.23 3.62C47.01 3.39333 46.7167 3.28 46.35 3.28C45.97 3.28 45.6567 3.39333 45.41 3.62C45.17 3.84667 44.99 4.20667 44.87 4.7C44.75 5.2 44.67 5.86 44.63 6.68ZM54.29 10.78H50.31V10.64H50.5C50.78 10.64 51.0033 10.6033 51.17 10.53C51.3367 10.4567 51.4567 10.34 51.53 10.18C51.6033 10.02 51.64 9.81333 51.64 9.56V4.51C51.64 4.25 51.6033 4.04 51.53 3.88C51.4567 3.72 51.3367 3.60333 51.17 3.53C51.0033 3.45667 50.78 3.42 50.5 3.42H50.45V3.28H52.95V4.68H52.97C53.0367 4.43333 53.1367 4.19333 53.27 3.96C53.3967 3.72667 53.5933 3.53 53.86 3.37C54.1267 3.21667 54.4833 3.14 54.93 3.14C55.3967 3.14 55.7533 3.23 56 3.41C56.2533 3.59 56.38 3.84333 56.38 4.17C56.38 4.45 56.2767 4.68333 56.07 4.87C55.87 5.05667 55.5367 5.15 55.07 5.15C55.07 4.57 54.9733 4.17333 54.78 3.96C54.5867 3.74 54.3667 3.63 54.12 3.63C53.8533 3.63 53.64 3.72333 53.48 3.91C53.32 4.10333 53.2033 4.35333 53.13 4.66C53.0567 4.96 53.01 5.27 52.99 5.59C52.97 5.91667 52.96 6.21333 52.96 6.48V9.49C52.96 9.77 52.9967 9.99333 53.07 10.16C53.1433 10.3333 53.2667 10.4567 53.44 10.53C53.6133 10.6033 53.8367 10.64 54.11 10.64H54.29V10.78ZM60.88 10.78H56.91V10.64H57.09C57.37 10.64 57.5933 10.6033 57.76 10.53C57.9267 10.4567 58.05 10.34 58.13 10.18C58.2033 10.02 58.24 9.81333 58.24 9.56V4.51C58.24 4.25 58.2033 4.04 58.13 3.88C58.05 3.72 57.9267 3.60333 57.76 3.53C57.5933 3.45667 57.37 3.42 57.09 3.42H57.05V3.28H59.55V9.49C59.55 9.77 59.59 9.99333 59.67 10.16C59.7433 10.3333 59.8667 10.4567 60.04 10.53C60.2133 10.6033 60.4333 10.64 60.7 10.64H60.88V10.78ZM58.83 1.93C58.65 1.93 58.5 1.87333 58.38 1.76C58.2667 1.64 58.21 1.43667 58.21 1.15C58.21 0.85 58.2667 0.643334 58.38 0.53C58.5 0.416667 58.65 0.36 58.83 0.36C58.9967 0.36 59.14 0.416667 59.26 0.53C59.38 0.643334 59.44 0.85 59.44 1.15C59.44 1.43667 59.38 1.64 59.26 1.76C59.14 1.87333 58.9967 1.93 58.83 1.93ZM65.77 10.78H61.44V10.64H61.63C61.91 10.64 62.1333 10.6033 62.3 10.53C62.4667 10.4567 62.5867 10.34 62.66 10.18C62.7333 10.02 62.77 9.81333 62.77 9.56V3.42H61.5V3.28H62.77V2.58C62.77 1.74667 62.99 1.10667 63.43 0.66C63.87 0.22 64.5333 0 65.42 0C65.82 0 66.15 0.0433334 66.41 0.13C66.6767 0.21 66.8767 0.323334 67.01 0.47C67.1433 0.616667 67.21 0.786667 67.21 0.98C67.21 1.14667 67.16 1.29 67.06 1.41C66.9667 1.52333 66.8333 1.61 66.66 1.67C66.4867 1.73 66.2867 1.76 66.06 1.76C66.06 1.16667 65.9933 0.746667 65.86 0.5C65.7267 0.26 65.49 0.14 65.15 0.14C64.7633 0.14 64.49 0.31 64.33 0.65C64.17 0.99 64.09 1.59 64.09 2.45V3.28H66.06V3.42H64.09V9.49C64.09 9.77 64.1267 9.99333 64.2 10.16C64.2733 10.3333 64.3967 10.4567 64.57 10.53C64.7433 10.6033 64.9667 10.64 65.24 10.64H65.77V10.78ZM74.2 10.78H69.91V10.64H70.1C70.3467 10.64 70.5567 10.6033 70.73 10.53C70.9033 10.4567 71.0333 10.3433 71.12 10.19C71.2 10.0433 71.24 9.85667 71.24 9.63V1.88C71.24 1.66 71.2 1.48 71.12 1.34C71.0333 1.2 70.9033 1.09667 70.73 1.03C70.5567 0.956667 70.3467 0.92 70.1 0.92H69.91V0.78H74.2C75.16 0.78 75.98 0.973333 76.66 1.36C77.34 1.75333 77.86 2.32 78.22 3.06C78.58 3.8 78.76 4.70333 78.76 5.77C78.76 6.78333 78.59 7.66667 78.25 8.42C77.91 9.17333 77.4033 9.75333 76.73 10.16C76.0567 10.5733 75.2133 10.78 74.2 10.78ZM72.66 10.64H73.88C74.66 10.64 75.2967 10.4733 75.79 10.14C76.2767 9.8 76.6367 9.27 76.87 8.55C77.0967 7.83667 77.21 6.91 77.21 5.77C77.21 4.63667 77.0967 3.71333 76.87 3C76.6367 2.28667 76.2767 1.76333 75.79 1.43C75.2967 1.09 74.6633 0.92 73.89 0.92H72.66V10.64ZM83.86 10.78H79.88V10.64H80.06C80.34 10.64 80.5667 10.6033 80.74 10.53C80.9067 10.4567 81.0267 10.34 81.1 10.18C81.1733 10.02 81.21 9.81333 81.21 9.56V4.51C81.21 4.25 81.1733 4.04 81.1 3.88C81.0267 3.72 80.9067 3.60333 80.74 3.53C80.5667 3.45667 80.34 3.42 80.06 3.42H80.02V3.28H82.53V9.49C82.53 9.77 82.5667 9.99333 82.64 10.16C82.7133 10.3333 82.8367 10.4567 83.01 10.53C83.1833 10.6033 83.4067 10.64 83.68 10.64H83.86V10.78ZM81.8 1.93C81.62 1.93 81.4733 1.87333 81.36 1.76C81.24 1.64 81.18 1.43667 81.18 1.15C81.18 0.85 81.24 0.643334 81.36 0.53C81.4733 0.416667 81.62 0.36 81.8 0.36C81.9667 0.36 82.11 0.416667 82.23 0.53C82.3567 0.643334 82.42 0.85 82.42 1.15C82.42 1.43667 82.3567 1.64 82.23 1.76C82.11 1.87333 81.9667 1.93 81.8 1.93ZM87.04 10.92C86.5733 10.92 86.16 10.8633 85.8 10.75C85.4467 10.6367 85.17 10.47 84.97 10.25C84.77 10.0367 84.67 9.76667 84.67 9.44C84.67 9.18667 84.72 8.99 84.82 8.85C84.9267 8.71 85.0467 8.61 85.18 8.55C85.3133 8.49667 85.4367 8.47 85.55 8.47C85.55 8.97667 85.5967 9.4 85.69 9.74C85.7833 10.08 85.9433 10.3367 86.17 10.51C86.39 10.69 86.6867 10.78 87.06 10.78C87.56 10.78 87.9533 10.6533 88.24 10.4C88.5267 10.14 88.67 9.75667 88.67 9.25C88.67 8.92333 88.6167 8.66667 88.51 8.48C88.3967 8.28667 88.21 8.11667 87.95 7.97C87.6967 7.81667 87.34 7.64333 86.88 7.45C86.3467 7.21667 85.9267 6.99 85.62 6.77C85.3133 6.55 85.0933 6.31 84.96 6.05C84.8333 5.79 84.77 5.48 84.77 5.12C84.77 4.48667 84.9933 4 85.44 3.66C85.8867 3.32 86.5067 3.15 87.3 3.15C87.7467 3.15 88.1333 3.20667 88.46 3.32C88.78 3.44 89.0233 3.59667 89.19 3.79C89.3567 3.99 89.44 4.20667 89.44 4.44C89.44 4.69333 89.3567 4.89667 89.19 5.05C89.0167 5.20333 88.7667 5.28 88.44 5.28C88.44 4.56 88.34 4.04667 88.14 3.74C87.9467 3.44 87.6433 3.29 87.23 3.29C86.9167 3.29 86.6533 3.34 86.44 3.44C86.2333 3.54667 86.0767 3.69667 85.97 3.89C85.8567 4.09 85.8 4.33667 85.8 4.63C85.8 4.95667 85.8667 5.22 86 5.42C86.1333 5.61333 86.3367 5.78 86.61 5.92C86.8833 6.06 87.2267 6.22 87.64 6.4C88.1733 6.61333 88.5933 6.83 88.9 7.05C89.2067 7.27 89.4233 7.51333 89.55 7.78C89.6767 8.04667 89.74 8.36 89.74 8.72C89.74 9.44667 89.4967 9.99667 89.01 10.37C88.5233 10.7367 87.8667 10.92 87.04 10.92ZM94.37 14.14H90.61V14H90.72C91 14 91.2233 13.9633 91.39 13.89C91.5567 13.8167 91.6767 13.7 91.75 13.54C91.83 13.38 91.87 13.1733 91.87 12.92V4.51C91.87 4.25 91.83 4.04 91.75 3.88C91.6767 3.72 91.5567 3.60333 91.39 3.53C91.2233 3.45667 91 3.42 90.72 3.42H90.54V3.28H93.15V5.22H93.18C93.3133 4.51333 93.56 3.99 93.92 3.65C94.28 3.31 94.77 3.14 95.39 3.14C96.31 3.14 97.0033 3.46667 97.47 4.12C97.9433 4.77333 98.18 5.73667 98.18 7.01C98.18 8.29 97.94 9.26333 97.46 9.93C96.98 10.59 96.2833 10.92 95.37 10.92C94.7633 10.92 94.28 10.7467 93.92 10.4C93.5667 10.0533 93.3267 9.52333 93.2 8.81H93.17C93.1767 9.04333 93.18 9.27667 93.18 9.51C93.18 9.74333 93.18 9.97667 93.18 10.21V12.85C93.18 13.1233 93.2167 13.3467 93.29 13.52C93.37 13.6933 93.4933 13.8167 93.66 13.89C93.8267 13.9633 94.05 14 94.33 14H94.37V14.14ZM95.13 10.71C95.5367 10.71 95.8667 10.5867 96.12 10.34C96.3667 10.0933 96.5433 9.69667 96.65 9.15C96.7633 8.60333 96.82 7.88667 96.82 7C96.82 6.12 96.7633 5.41333 96.65 4.88C96.5433 4.34 96.3633 3.95 96.11 3.71C95.8567 3.47 95.5233 3.35 95.11 3.35C94.6633 3.35 94.3 3.48667 94.02 3.76C93.7333 4.03333 93.5233 4.44 93.39 4.98C93.25 5.52667 93.18 6.20333 93.18 7.01C93.18 7.84333 93.25 8.53667 93.39 9.09C93.53 9.63667 93.7467 10.0433 94.04 10.31C94.3267 10.5767 94.69 10.71 95.13 10.71ZM103.11 10.78H99.13V10.64H99.31C99.59 10.64 99.8167 10.6033 99.99 10.53C100.157 10.4567 100.277 10.34 100.35 10.18C100.423 10.02 100.46 9.81333 100.46 9.56V1.37C100.46 1.11 100.423 0.9 100.35 0.74C100.277 0.58 100.157 0.463334 99.99 0.39C99.8167 0.316667 99.59 0.28 99.31 0.28H99.13V0.14H101.78V9.49C101.78 9.77 101.817 9.99333 101.89 10.16C101.963 10.3333 102.083 10.4567 102.25 10.53C102.423 10.6033 102.65 10.64 102.93 10.64H103.11V10.78ZM106.3 10.92C105.593 10.92 105.03 10.7367 104.61 10.37C104.197 9.99667 103.99 9.49 103.99 8.85C103.99 8.13 104.253 7.59333 104.78 7.24C105.307 6.88667 106.107 6.69 107.18 6.65L108.34 6.61V5.56C108.34 5.03333 108.313 4.60333 108.26 4.27C108.207 3.93667 108.087 3.68667 107.9 3.52C107.713 3.36 107.427 3.28 107.04 3.28C106.5 3.28 106.153 3.44667 106 3.78C105.847 4.11333 105.77 4.64 105.77 5.36C105.377 5.36 105.08 5.29667 104.88 5.17C104.68 5.03667 104.58 4.82 104.58 4.52C104.58 4.18667 104.693 3.92 104.92 3.72C105.147 3.52 105.453 3.37333 105.84 3.28C106.22 3.18667 106.64 3.14 107.1 3.14C107.96 3.14 108.6 3.32 109.02 3.68C109.447 4.04667 109.66 4.67333 109.66 5.56V9.74C109.66 9.96667 109.687 10.1467 109.74 10.28C109.8 10.4067 109.893 10.5 110.02 10.56C110.153 10.6133 110.323 10.64 110.53 10.64H110.57V10.78H108.46V9.31H108.43C108.337 9.68333 108.187 9.99 107.98 10.23C107.773 10.4633 107.53 10.6367 107.25 10.75C106.963 10.8633 106.647 10.92 106.3 10.92ZM106.58 10.72C106.927 10.72 107.233 10.6333 107.5 10.46C107.767 10.28 107.973 10.04 108.12 9.74C108.267 9.44667 108.34 9.12667 108.34 8.78V6.76L107.45 6.8C106.657 6.84 106.107 7.02333 105.8 7.35C105.5 7.67667 105.35 8.22667 105.35 9C105.35 9.37333 105.393 9.69 105.48 9.95C105.567 10.2033 105.703 10.3967 105.89 10.53C106.077 10.6567 106.307 10.72 106.58 10.72ZM111.7 14.14V14C112.367 14 112.9 13.95 113.3 13.85C113.7 13.7567 114.02 13.6033 114.26 13.39C114.5 13.1833 114.7 12.9133 114.86 12.58C115.027 12.2467 115.197 11.8533 115.37 11.4L112.31 4.19C112.223 3.98333 112.14 3.82667 112.06 3.72C111.98 3.61333 111.9 3.53667 111.82 3.49C111.733 3.44333 111.63 3.42 111.51 3.42H111.23V3.28H114.59V3.42H114.55C114.283 3.42 114.073 3.45667 113.92 3.53C113.767 3.61 113.69 3.75333 113.69 3.96C113.69 4.04667 113.703 4.14333 113.73 4.25C113.763 4.35667 113.807 4.47667 113.86 4.61L115.06 7.53C115.14 7.69667 115.217 7.88 115.29 8.08C115.363 8.27333 115.437 8.47333 115.51 8.68C115.583 8.88667 115.653 9.08333 115.72 9.27C115.787 9.45667 115.847 9.63 115.9 9.79C116.027 9.42333 116.143 9.07333 116.25 8.74C116.363 8.41333 116.457 8.13333 116.53 7.9L117.56 4.69C117.607 4.55667 117.637 4.44 117.65 4.34C117.67 4.24 117.68 4.14667 117.68 4.06C117.68 3.84667 117.61 3.68667 117.47 3.58C117.323 3.47333 117.087 3.42 116.76 3.42H116.17V3.28H119.08V3.42H118.97C118.743 3.42 118.56 3.44667 118.42 3.5C118.273 3.55333 118.153 3.66 118.06 3.82C117.967 3.98 117.87 4.21 117.77 4.51L115.72 10.84C115.507 11.5067 115.297 12.0567 115.09 12.49C114.883 12.9167 114.647 13.2533 114.38 13.5C114.107 13.74 113.767 13.9067 113.36 14C112.953 14.0933 112.443 14.14 111.83 14.14H111.7Z" fill="black"/>
</svg>
