<svg width="125.45" height="19.068" viewBox="0 0 125.45 19.068" xmlns="http://www.w3.org/2000/svg"><path transform="translate(0 14.966) scale(.014 -.014)" d="m38 0v42h13q23 0 41.5 5t29.5 20.5 11 46.5v490q0 30-11.5 44.5t-30 19-40.5 4.5h-13v42h183l358-553v443q0 30-11.5 44.5t-30 19-40.5 4.5h-13v42h251v-42h-13q-22 0-41-5t-30-20-11-47v-600h-71l-375 576v-462q0-31 11-46.5t30-20.5 41-5h13v-42z"/><path transform="translate(10.682 14.966) scale(.014 -.014)" d="m287-10q-108 0-170 69t-62 210q0 140 59.5 208.5t175.5 68.5q108 0 170-68.5t62-208.5q0-141-59.5-210t-175.5-69zm2 52q50 0 80 25.5t43 76.5 13 125q0 112-31 168t-106 56-105.5-56-30.5-168 31-169.5 106-57.5z"/><path transform="translate(18.76 14.966) scale(.014 -.014)" d="m240-10q-76 0-110.5 34.5t-34.5 120.5v334h-76v40q18 0 40 7.5t38 24.5q17 18 28 44t18 64h46v-123h131v-57h-131v-337q0-51 21-75t55-24q18 0 33 2t31 5v-44q-13-6-39-11t-50-5z"/><path transform="translate(23.688 14.966) scale(.014 -.014)" d="m287-10q-108 0-170 69t-62 210q0 140 59.5 208.5t175.5 68.5q108 0 170-68.5t62-208.5q0-141-59.5-210t-175.5-69zm2 52q50 0 80 25.5t43 76.5 13 125q0 112-31 168t-106 56-105.5-56-30.5-168 31-169.5 106-57.5z"/><path transform="translate(35.406 14.966) scale(.014 -.014)" d="m247-10q-49 0-86.5 10t-62.5 29-37.5 45-12.5 57q0 20 8.5 35t24.5 23.5 39 8.5q2-41 16-77.5t43-59 76-22.5q67 0 105 32.5t38 93.5q0 37-14.5 62.5t-48 47.5-92.5 46q-62 26-103 56t-61 70.5-20 95.5q0 57 28.5 97.5t78 62 112.5 21.5q60 0 101.5-16t63.5-41.5 22-54.5q0-32-21.5-48.5t-57.5-16.5q0 31-10.5 60t-35 48-66.5 19q-58 0-90-31t-32-83q0-40 14.5-67.5t48.5-49 92-45.5q59-24 100.5-52.5t63.5-65.5 22-89q0-64-30-108.5t-85.5-68.5-130.5-24z"/><path transform="translate(43.022 14.966) scale(.014 -.014)" d="m287-10q-109 0-170.5 72t-61.5 202q0 140 58 211t164 71q97 0 152.5-60t55.5-179v-46h-333q2-109 39.5-158.5t109.5-49.5q52 0 88.5 21.5t54.5 48.5q7-3 13-12t6-22q0-20-19-43t-58-39.5-99-16.5zm97 325q0 80-24.5 128.5t-84.5 48.5q-55 0-85.5-45.5t-35.5-131.5z"/><path transform="translate(50.512 14.966) scale(.014 -.014)" d="m33 0v42h3q23 0 41.5 5t29.5 20.5 11 46.5v312q0 30-11.5 44.5t-30 19-40.5 4.5h-3v42h154l19-99h5q13 30 28 55t40 39.5 69 14.5q55 0 81.5-19t26.5-54q0-31-21.5-51t-71.5-20q0 28-5 45t-16.5 25-31.5 8q-28 0-47-22t-30-56-16-70.5-5-65.5v-157q0-29 11.5-43.5t30-19 40.5-4.5h28v-42z"/><path transform="translate(57.106 14.966) scale(.014 -.014)" d="m23 0v42h13q22 0 40.5 4.5t30 19 11.5 43.5v317q0 30-11.5 44.5t-30 19-40.5 4.5h-3v42h179v-422q0-31 11-46.5t30-20.5 41-5h13v-42zm138 636q-24 0-40.5 14t-16.5 48q0 35 16.5 48.5t40.5 13.5q23 0 40-13.5t17-48.5q0-34-17-48t-40-14z"/><path transform="translate(61.586 14.966) scale(.014 -.014)" d="m27 0v42h13q23 0 41.5 5t29.5 20.5 11 46.5v375h-91v47h91v50q0 89 47.5 136.5t129.5 47.5q52 0 82.5-9t44-24.5 13.5-36.5q0-18-10.5-30.5t-29-19-42.5-6.5q0 20-6 38.5t-20 30-40 11.5q-43 0-59-33t-16-96v-59h141v-47h-141v-375q0-31 11-46.5t30-20.5 41-5h38v-42z"/><path transform="translate(70.392 14.966) scale(.014 -.014)" d="m38 0v42h13q22 0 40.5 4.5t30 19 11.5 43.5v491q0 32-11 47t-29.5 20-41.5 5h-13v42h504l5-175h-52l-5 43q-2 22-11.5 40.5t-28 30-48.5 11.5h-168v-266h241v-49h-241v-299h193q32 0 51.5 11.5t30 30 13.5 40.5l7 43h52l-7-175z"/><path transform="translate(79.114 14.966) scale(.014 -.014)" d="m240-10q-76 0-110.5 34.5t-34.5 120.5v334h-76v40q18 0 40 7.5t38 24.5q17 18 28 44t18 64h46v-123h131v-57h-131v-337q0-51 21-75t55-24q18 0 33 2t31 5v-44q-13-6-39-11t-50-5z"/><path transform="translate(84.042 14.966) scale(.014 -.014)" d="m18 0v42h8q23 0 41.5 5t29.5 20.5 11 46.5v536q0 30-11.5 44.5t-30 19-40.5 4.5h-8v42h184v-220q0-18-1-37.5t-2-33.5-1-14h5q15 30 36.5 50.5t49 30.5 61.5 10q86 0 131.5-46.5t45.5-149.5v-236q0-31 10-46.5t27.5-20.5 39.5-5h3v-42h-174v345q0 65-24.5 101t-85.5 36q-41 0-68-20t-40-56.5-13-85.5v-211q0-29 11.5-43.5t30-19 40.5-4.5h3v-42z"/><path transform="translate(92.932 14.966) scale(.014 -.014)" d="m23 0v42h13q22 0 40.5 4.5t30 19 11.5 43.5v317q0 30-11.5 44.5t-30 19-40.5 4.5h-3v42h179v-422q0-31 11-46.5t30-20.5 41-5h13v-42zm138 636q-24 0-40.5 14t-16.5 48q0 35 16.5 48.5t40.5 13.5q23 0 40-13.5t17-48.5q0-34-17-48t-40-14z"/><path transform="translate(97.412 14.966) scale(.014 -.014)" d="m287-10q-108 0-170 69t-62 210q0 140 59.5 208.5t175.5 68.5q108 0 170-68.5t62-208.5q0-141-59.5-210t-175.5-69zm2 52q50 0 80 25.5t43 76.5 13 125q0 112-31 168t-106 56-105.5-56-30.5-168 31-169.5 106-57.5z"/><path transform="translate(105.49 14.966) scale(.014 -.014)" d="m18-240v42h8q23 0 41.5 5t29.5 20.5 11 46.5v552q0 30-11.5 44.5t-30 19-40.5 4.5h-13v42h175l10-90h4q23 46 59 73t94 27q99 0 151.5-66.5t52.5-210.5q0-145-52.5-212t-151.5-67q-58 0-94.5 24.5t-58.5 63.5h-4q2-29 3-61.5t1-51.5v-96q0-29 11.5-43.5t30-19 40.5-4.5h3v-42zm321 294q66 0 94.5 55.5t28.5 160.5q0 107-28.5 159.5t-95.5 52.5q-52 0-81.5-23t-42-70.5-12.5-119.5q0-69 12.5-117t42.5-73 82-25z"/><path transform="translate(114.09 14.966) scale(.014 -.014)" d="m23 0v42h13q22 0 40.5 4.5t30 19 11.5 43.5v317q0 30-11.5 44.5t-30 19-40.5 4.5h-3v42h179v-422q0-31 11-46.5t30-20.5 41-5h13v-42zm138 636q-24 0-40.5 14t-16.5 48q0 35 16.5 48.5t40.5 13.5q23 0 40-13.5t17-48.5q0-34-17-48t-40-14z"/><path transform="translate(118.57 14.966) scale(.014 -.014)" d="m283-10q-66 0-117.5 28t-81 88.5-29.5 158.5q0 107 29.5 168.5t80 87 113.5 25.5q42 0 82-11t66-33.5 26-57.5q0-23-10-37t-29.5-20-49.5-6q0 32-7.5 58t-25.5 41.5-52 15.5q-38 0-66.5-20t-44-70-15.5-140q0-71 15.5-118t48.5-70 87-23q31 0 57 9t45.5 25 30.5 36q8-6 12.5-15.5t4.5-23.5q0-23-19-45t-56.5-36.5-94.5-14.5z"/></svg>