<svg width="167" height="14" viewBox="0 0 167 14" fill="none" xmlns="http://www.w3.org/2000/svg">
<path d="M8.42 0.32V10.32H6.95L1.6 2.02H1.55C1.57 2.34667 1.59333 2.75333 1.62 3.24C1.64667 3.72 1.66 4.21667 1.66 4.73V10.32H0.5V0.32H1.95L7.29 8.6H7.34C7.33333 8.44667 7.32333 8.22333 7.31 7.93C7.29667 7.63 7.28333 7.30333 7.27 6.95C7.25667 6.59 7.25 6.26333 7.25 5.97V0.32H8.42ZM17.49 6.55C17.49 7.79667 17.1767 8.76 16.55 9.44C15.9167 10.12 15.0633 10.46 13.99 10.46C13.33 10.46 12.74 10.31 12.22 10.01C11.7067 9.70333 11.3 9.26 11 8.68C10.7 8.09333 10.55 7.38333 10.55 6.55C10.55 5.31 10.8633 4.35333 11.49 3.68C12.1167 3.01333 12.9667 2.68 14.04 2.68C14.72 2.68 15.32 2.83 15.84 3.13C16.3533 3.43667 16.7567 3.87667 17.05 4.45C17.3433 5.02333 17.49 5.72333 17.49 6.55ZM11.82 6.55C11.82 7.43667 11.9967 8.14 12.35 8.66C12.6967 9.18 13.2533 9.44 14.02 9.44C14.78 9.44 15.3367 9.18 15.69 8.66C16.0433 8.14 16.22 7.43667 16.22 6.55C16.22 5.66333 16.0433 4.97 15.69 4.47C15.3367 3.96333 14.7767 3.71 14.01 3.71C13.2433 3.71 12.6867 3.96333 12.34 4.47C11.9933 4.97 11.82 5.66333 11.82 6.55ZM21.95 9.45C22.1367 9.45 22.3267 9.43333 22.52 9.4C22.7133 9.36667 22.8733 9.33333 23 9.3V10.24C22.8667 10.3 22.68 10.3533 22.44 10.4C22.1933 10.44 21.96 10.46 21.74 10.46C21.3467 10.46 20.9833 10.3933 20.65 10.26C20.3167 10.12 20.05 9.88333 19.85 9.55C19.6433 9.21667 19.54 8.74667 19.54 8.14V3.77H18.47V3.18L19.55 2.69L20.04 1.09H20.77V2.82H22.94V3.77H20.77V8.11C20.77 8.56333 20.88 8.9 21.1 9.12C21.32 9.34 21.6033 9.45 21.95 9.45ZM31.02 6.55C31.02 7.79667 30.7033 8.76 30.07 9.44C29.4433 10.12 28.5933 10.46 27.52 10.46C26.8533 10.46 26.2633 10.31 25.75 10.01C25.23 9.70333 24.82 9.26 24.52 8.68C24.22 8.09333 24.07 7.38333 24.07 6.55C24.07 5.31 24.3833 4.35333 25.01 3.68C25.6367 3.01333 26.4867 2.68 27.56 2.68C28.24 2.68 28.84 2.83 29.36 3.13C29.88 3.43667 30.2867 3.87667 30.58 4.45C30.8733 5.02333 31.02 5.72333 31.02 6.55ZM25.35 6.55C25.35 7.43667 25.5233 8.14 25.87 8.66C26.2233 9.18 26.7833 9.44 27.55 9.44C28.3033 9.44 28.8567 9.18 29.21 8.66C29.5633 8.14 29.74 7.43667 29.74 6.55C29.74 5.66333 29.5633 4.97 29.21 4.47C28.8567 3.96333 28.2967 3.71 27.53 3.71C26.7633 3.71 26.21 3.96333 25.87 4.47C25.5233 4.97 25.35 5.66333 25.35 6.55ZM52.8 7.65C52.8 8.53667 52.48 9.22667 51.84 9.72C51.1933 10.2133 50.3233 10.46 49.23 10.46C48.67 10.46 48.1533 10.4167 47.68 10.33C47.2 10.25 46.8033 10.1333 46.49 9.98V8.78C46.8233 8.92667 47.24 9.06333 47.74 9.19C48.24 9.31 48.7567 9.37 49.29 9.37C50.0367 9.37 50.6 9.22333 50.98 8.93C51.3533 8.64333 51.54 8.25333 51.54 7.76C51.54 7.43333 51.47 7.15667 51.33 6.93C51.19 6.71 50.95 6.50333 50.61 6.31C50.27 6.11667 49.7967 5.91333 49.19 5.7C48.3433 5.39333 47.7033 5.01667 47.27 4.57C46.83 4.11667 46.61 3.50333 46.61 2.73C46.61 2.19667 46.7467 1.74333 47.02 1.37C47.2933 0.99 47.67 0.696667 48.15 0.49C48.63 0.283334 49.1833 0.18 49.81 0.18C50.3567 0.18 50.86 0.233333 51.32 0.34C51.7733 0.44 52.1867 0.573334 52.56 0.74L52.17 1.82C51.8233 1.67333 51.45 1.54667 51.05 1.44C50.6433 1.34 50.22 1.29 49.78 1.29C49.1533 1.29 48.68 1.42333 48.36 1.69C48.0467 1.95667 47.89 2.31 47.89 2.75C47.89 3.08333 47.96 3.36333 48.1 3.59C48.24 3.81 48.4667 4.01 48.78 4.19C49.1 4.36333 49.53 4.55333 50.07 4.76C50.6567 4.97333 51.1533 5.20333 51.56 5.45C51.9667 5.70333 52.2767 6 52.49 6.34C52.6967 6.68667 52.8 7.12333 52.8 7.65ZM57.49 2.69C58.4033 2.69 59.08 2.89 59.52 3.29C59.96 3.69 60.18 4.33 60.18 5.21V10.32H59.28L59.05 9.26H58.99C58.6633 9.66667 58.32 9.97 57.96 10.17C57.6 10.3633 57.1033 10.46 56.47 10.46C55.79 10.46 55.2267 10.28 54.78 9.92C54.3267 9.56 54.1 8.99667 54.1 8.23C54.1 7.48333 54.3967 6.91 54.99 6.51C55.5767 6.10333 56.48 5.88 57.7 5.84L58.98 5.8V5.35C58.98 4.72333 58.8433 4.29 58.57 4.05C58.2967 3.80333 57.9133 3.68 57.42 3.68C57.0267 3.68 56.6533 3.74 56.3 3.86C55.9467 3.97333 55.6167 4.10667 55.31 4.26L54.93 3.33C55.2567 3.15667 55.6433 3.00667 56.09 2.88C56.5367 2.75333 57.0033 2.69 57.49 2.69ZM58.96 6.65L57.86 6.69C56.9267 6.73 56.28 6.88 55.92 7.14C55.56 7.4 55.38 7.77 55.38 8.25C55.38 8.67 55.5067 8.97667 55.76 9.17C56.02 9.37 56.35 9.47 56.75 9.47C57.3833 9.47 57.91 9.29333 58.33 8.94C58.75 8.59333 58.96 8.05333 58.96 7.32V6.65ZM66.12 2.68C67.0133 2.68 67.69 2.89667 68.15 3.33C68.6033 3.76333 68.83 4.46333 68.83 5.43V10.32H67.61V5.52C67.61 4.31333 67.05 3.71 65.93 3.71C65.1033 3.71 64.53 3.94333 64.21 4.41C63.8967 4.87667 63.74 5.55 63.74 6.43V10.32H62.5V2.82H63.5L63.68 3.84H63.75C63.99 3.44667 64.3267 3.15333 64.76 2.96C65.1867 2.77333 65.64 2.68 66.12 2.68ZM76.04 8.25C76.04 8.97667 75.77 9.52667 75.23 9.9C74.69 10.2733 73.9633 10.46 73.05 10.46C72.5233 10.46 72.07 10.4167 71.69 10.33C71.3167 10.25 70.9833 10.1333 70.69 9.98V8.86C70.99 9.01333 71.3533 9.15333 71.78 9.28C72.2067 9.40667 72.6367 9.47 73.07 9.47C73.6967 9.47 74.15 9.37 74.43 9.17C74.71 8.96333 74.85 8.69333 74.85 8.36C74.85 8.17333 74.8 8.00667 74.7 7.86C74.5933 7.70667 74.4067 7.55667 74.14 7.41C73.88 7.25667 73.5 7.08667 73 6.9C72.52 6.71333 72.1067 6.52667 71.76 6.34C71.4133 6.15333 71.1467 5.93 70.96 5.67C70.7733 5.41 70.68 5.07333 70.68 4.66C70.68 4.02667 70.94 3.53667 71.46 3.19C71.9733 2.85 72.65 2.68 73.49 2.68C73.95 2.68 74.3767 2.72333 74.77 2.81C75.17 2.89667 75.5433 3.02 75.89 3.18L75.47 4.16C75.15 4.02667 74.8167 3.91333 74.47 3.82C74.13 3.72667 73.7767 3.68 73.41 3.68C72.9033 3.68 72.5167 3.76333 72.25 3.93C71.99 4.09 71.86 4.31 71.86 4.59C71.86 4.79667 71.92 4.97333 72.04 5.12C72.16 5.26667 72.3633 5.40667 72.65 5.54C72.93 5.67333 73.31 5.83333 73.79 6.02C74.2633 6.2 74.67 6.38333 75.01 6.57C75.3433 6.75667 75.6 6.98333 75.78 7.25C75.9533 7.51667 76.04 7.85 76.04 8.25ZM97.7 7.65C97.7 8.53667 97.3767 9.22667 96.73 9.72C96.09 10.2133 95.2233 10.46 94.13 10.46C93.57 10.46 93.0533 10.4167 92.58 10.33C92.1 10.25 91.7033 10.1333 91.39 9.98V8.78C91.7233 8.92667 92.14 9.06333 92.64 9.19C93.14 9.31 93.6567 9.37 94.19 9.37C94.9367 9.37 95.4967 9.22333 95.87 8.93C96.25 8.64333 96.44 8.25333 96.44 7.76C96.44 7.43333 96.37 7.15667 96.23 6.93C96.09 6.71 95.85 6.50333 95.51 6.31C95.17 6.11667 94.6967 5.91333 94.09 5.7C93.2367 5.39333 92.5933 5.01667 92.16 4.57C91.7267 4.11667 91.51 3.50333 91.51 2.73C91.51 2.19667 91.6467 1.74333 91.92 1.37C92.1867 0.99 92.5633 0.696667 93.05 0.49C93.53 0.283334 94.08 0.18 94.7 0.18C95.2533 0.18 95.76 0.233333 96.22 0.34C96.6733 0.44 97.0867 0.573334 97.46 0.74L97.07 1.82C96.7233 1.67333 96.3467 1.54667 95.94 1.44C95.5333 1.34 95.1133 1.29 94.68 1.29C94.0533 1.29 93.58 1.42333 93.26 1.69C92.9467 1.95667 92.79 2.31 92.79 2.75C92.79 3.08333 92.86 3.36333 93 3.59C93.14 3.81 93.3667 4.01 93.68 4.19C94 4.36333 94.43 4.55333 94.97 4.76C95.5567 4.97333 96.0533 5.20333 96.46 5.45C96.8667 5.70333 97.1733 6 97.38 6.34C97.5933 6.68667 97.7 7.12333 97.7 7.65ZM100.18 0C100.367 0 100.53 0.0633334 100.67 0.19C100.817 0.316667 100.89 0.516667 100.89 0.79C100.89 1.05 100.817 1.24333 100.67 1.37C100.53 1.50333 100.367 1.57 100.18 1.57C99.9733 1.57 99.8 1.50333 99.66 1.37C99.52 1.24333 99.45 1.05 99.45 0.79C99.45 0.516667 99.52 0.316667 99.66 0.19C99.8 0.0633334 99.9733 0 100.18 0ZM99.55 2.82H100.78V10.32H99.55V2.82ZM105.82 2.68C106.313 2.68 106.76 2.77333 107.16 2.96C107.553 3.14667 107.89 3.43 108.17 3.81H108.24L108.41 2.82H109.39V10.45C109.39 11.5233 109.117 12.33 108.57 12.87C108.023 13.41 107.177 13.68 106.03 13.68C104.93 13.68 104.03 13.52 103.33 13.2V12.07C104.063 12.4633 104.987 12.66 106.1 12.66C106.747 12.66 107.253 12.47 107.62 12.09C107.987 11.71 108.17 11.1933 108.17 10.54V10.25C108.17 10.1367 108.177 9.97667 108.19 9.77C108.197 9.55667 108.203 9.41 108.21 9.33H108.16C107.653 10.0833 106.877 10.46 105.83 10.46C104.863 10.46 104.107 10.12 103.56 9.44C103.013 8.76 102.74 7.80667 102.74 6.58C102.74 5.38667 103.013 4.43667 103.56 3.73C104.107 3.03 104.86 2.68 105.82 2.68ZM105.99 3.71C105.363 3.71 104.877 3.96 104.53 4.46C104.183 4.96 104.01 5.67333 104.01 6.6C104.01 7.52 104.18 8.22667 104.52 8.72C104.867 9.20667 105.367 9.45 106.02 9.45C106.773 9.45 107.323 9.24667 107.67 8.84C108.017 8.43333 108.19 7.78 108.19 6.88V6.58C108.19 5.55333 108.01 4.82 107.65 4.38C107.297 3.93333 106.743 3.71 105.99 3.71ZM115.38 2.68C116.28 2.68 116.957 2.89667 117.41 3.33C117.87 3.76333 118.1 4.46333 118.1 5.43V10.32H116.88V5.52C116.88 4.31333 116.32 3.71 115.2 3.71C114.367 3.71 113.793 3.94333 113.48 4.41C113.16 4.87667 113 5.55 113 6.43V10.32H111.77V2.82H112.76L112.95 3.84H113.02C113.26 3.44667 113.593 3.15333 114.02 2.96C114.453 2.77333 114.907 2.68 115.38 2.68ZM130.75 0.32H132.07L129.41 10.32H128.14L126.19 3.77C126.117 3.49667 126.043 3.22667 125.97 2.96C125.89 2.68667 125.827 2.44333 125.78 2.23C125.733 2.02333 125.703 1.87667 125.69 1.79C125.677 1.91667 125.627 2.17667 125.54 2.57C125.453 2.97 125.343 3.38333 125.21 3.81L123.32 10.32H122.05L119.4 0.32H120.72L122.27 6.43C122.383 6.85667 122.48 7.27 122.56 7.67C122.64 8.07667 122.703 8.45667 122.75 8.81C122.797 8.44333 122.867 8.04667 122.96 7.62C123.053 7.18667 123.16 6.76667 123.28 6.36L125.04 0.32H126.34L128.18 6.4C128.307 6.82667 128.417 7.25333 128.51 7.68C128.603 8.10667 128.673 8.48333 128.72 8.81C128.767 8.46333 128.833 8.08667 128.92 7.68C129.007 7.27333 129.103 6.85 129.21 6.41L130.75 0.32ZM136.94 2.68C137.08 2.68 137.233 2.68667 137.4 2.7C137.56 2.71333 137.7 2.73333 137.82 2.76L137.67 3.89C137.55 3.86333 137.417 3.84 137.27 3.82C137.123 3.80667 136.987 3.8 136.86 3.8C136.473 3.8 136.113 3.90333 135.78 4.11C135.447 4.32333 135.18 4.61667 134.98 4.99C134.773 5.37 134.67 5.81333 134.67 6.32V10.32H133.44V2.82H134.45L134.59 4.19H134.65C134.89 3.77667 135.2 3.42 135.58 3.12C135.967 2.82667 136.42 2.68 136.94 2.68ZM139.85 0C140.037 0 140.203 0.0633334 140.35 0.19C140.497 0.316667 140.57 0.516667 140.57 0.79C140.57 1.05 140.497 1.24333 140.35 1.37C140.203 1.50333 140.037 1.57 139.85 1.57C139.65 1.57 139.48 1.50333 139.34 1.37C139.2 1.24333 139.13 1.05 139.13 0.79C139.13 0.516667 139.2 0.316667 139.34 0.19C139.48 0.0633334 139.65 0 139.85 0ZM139.22 2.82H140.46V10.32H139.22V2.82ZM145.34 9.45C145.527 9.45 145.72 9.43333 145.92 9.4C146.113 9.36667 146.27 9.33333 146.39 9.3V10.24C146.263 10.3 146.077 10.3533 145.83 10.4C145.59 10.44 145.357 10.46 145.13 10.46C144.737 10.46 144.377 10.3933 144.05 10.26C143.717 10.12 143.447 9.88333 143.24 9.55C143.033 9.21667 142.93 8.74667 142.93 8.14V3.77H141.87V3.18L142.95 2.69L143.44 1.09H144.17V2.82H146.34V3.77H144.17V8.11C144.17 8.56333 144.277 8.9 144.49 9.12C144.71 9.34 144.993 9.45 145.34 9.45ZM148.52 0C148.707 0 148.873 0.0633334 149.02 0.19C149.16 0.316667 149.23 0.516667 149.23 0.79C149.23 1.05 149.16 1.24333 149.02 1.37C148.873 1.50333 148.707 1.57 148.52 1.57C148.313 1.57 148.14 1.50333 148 1.37C147.86 1.24333 147.79 1.05 147.79 0.79C147.79 0.516667 147.86 0.316667 148 0.19C148.14 0.0633334 148.313 0 148.52 0ZM147.89 2.82H149.12V10.32H147.89V2.82ZM155.11 2.68C156.01 2.68 156.687 2.89667 157.14 3.33C157.6 3.76333 157.83 4.46333 157.83 5.43V10.32H156.61V5.52C156.61 4.31333 156.05 3.71 154.93 3.71C154.103 3.71 153.53 3.94333 153.21 4.41C152.89 4.87667 152.73 5.55 152.73 6.43V10.32H151.5V2.82H152.5L152.68 3.84H152.75C152.99 3.44667 153.327 3.15333 153.76 2.96C154.187 2.77333 154.637 2.68 155.11 2.68ZM162.81 2.68C163.31 2.68 163.757 2.77333 164.15 2.96C164.55 3.14667 164.89 3.43 165.17 3.81H165.24L165.4 2.82H166.38V10.45C166.38 11.5233 166.11 12.33 165.57 12.87C165.023 13.41 164.173 13.68 163.02 13.68C161.92 13.68 161.02 13.52 160.32 13.2V12.07C161.06 12.4633 161.983 12.66 163.09 12.66C163.737 12.66 164.243 12.47 164.61 12.09C164.983 11.71 165.17 11.1933 165.17 10.54V10.25C165.17 10.1367 165.173 9.97667 165.18 9.77C165.187 9.55667 165.197 9.41 165.21 9.33H165.15C164.65 10.0833 163.877 10.46 162.83 10.46C161.857 10.46 161.097 10.12 160.55 9.44C160.003 8.76 159.73 7.80667 159.73 6.58C159.73 5.38667 160.003 4.43667 160.55 3.73C161.097 3.03 161.85 2.68 162.81 2.68ZM162.98 3.71C162.353 3.71 161.87 3.96 161.53 4.46C161.183 4.96 161.01 5.67333 161.01 6.6C161.01 7.52 161.18 8.22667 161.52 8.72C161.86 9.20667 162.357 9.45 163.01 9.45C163.763 9.45 164.313 9.24667 164.66 8.84C165.007 8.43333 165.18 7.78 165.18 6.88V6.58C165.18 5.55333 165.003 4.82 164.65 4.38C164.297 3.93333 163.74 3.71 162.98 3.71Z" fill="black"/>
</svg>
