<svg width="106" height="11" viewBox="0 0 106 11" fill="none" xmlns="http://www.w3.org/2000/svg">
<path d="M8.42 0.32V10.32H6.95L1.6 2.02H1.55C1.57 2.34667 1.59333 2.75333 1.62 3.24C1.64667 3.72 1.66 4.21667 1.66 4.73V10.32H0.5V0.32H1.95L7.29 8.6H7.34C7.33333 8.44667 7.32333 8.22333 7.31 7.93C7.29667 7.63 7.28333 7.30333 7.27 6.95C7.25667 6.59 7.25 6.26333 7.25 5.97V0.32H8.42ZM17.49 6.55C17.49 7.79667 17.1767 8.76 16.55 9.44C15.9167 10.12 15.0633 10.46 13.99 10.46C13.33 10.46 12.74 10.31 12.22 10.01C11.7067 9.70333 11.3 9.26 11 8.68C10.7 8.09333 10.55 7.38333 10.55 6.55C10.55 5.31 10.8633 4.35333 11.49 3.68C12.1167 3.01333 12.9667 2.68 14.04 2.68C14.72 2.68 15.32 2.83 15.84 3.13C16.3533 3.43667 16.7567 3.87667 17.05 4.45C17.3433 5.02333 17.49 5.72333 17.49 6.55ZM11.82 6.55C11.82 7.43667 11.9967 8.14 12.35 8.66C12.6967 9.18 13.2533 9.44 14.02 9.44C14.78 9.44 15.3367 9.18 15.69 8.66C16.0433 8.14 16.22 7.43667 16.22 6.55C16.22 5.66333 16.0433 4.97 15.69 4.47C15.3367 3.96333 14.7767 3.71 14.01 3.71C13.2433 3.71 12.6867 3.96333 12.34 4.47C11.9933 4.97 11.82 5.66333 11.82 6.55ZM21.95 9.45C22.1367 9.45 22.3267 9.43333 22.52 9.4C22.7133 9.36667 22.8733 9.33333 23 9.3V10.24C22.8667 10.3 22.68 10.3533 22.44 10.4C22.1933 10.44 21.96 10.46 21.74 10.46C21.3467 10.46 20.9833 10.3933 20.65 10.26C20.3167 10.12 20.05 9.88333 19.85 9.55C19.6433 9.21667 19.54 8.74667 19.54 8.14V3.77H18.47V3.18L19.55 2.69L20.04 1.09H20.77V2.82H22.94V3.77H20.77V8.11C20.77 8.56333 20.88 8.9 21.1 9.12C21.32 9.34 21.6033 9.45 21.95 9.45ZM31.02 6.55C31.02 7.79667 30.7033 8.76 30.07 9.44C29.4433 10.12 28.5933 10.46 27.52 10.46C26.8533 10.46 26.2633 10.31 25.75 10.01C25.23 9.70333 24.82 9.26 24.52 8.68C24.22 8.09333 24.07 7.38333 24.07 6.55C24.07 5.31 24.3833 4.35333 25.01 3.68C25.6367 3.01333 26.4867 2.68 27.56 2.68C28.24 2.68 28.84 2.83 29.36 3.13C29.88 3.43667 30.2867 3.87667 30.58 4.45C30.8733 5.02333 31.02 5.72333 31.02 6.55ZM25.35 6.55C25.35 7.43667 25.5233 8.14 25.87 8.66C26.2233 9.18 26.7833 9.44 27.55 9.44C28.3033 9.44 28.8567 9.18 29.21 8.66C29.5633 8.14 29.74 7.43667 29.74 6.55C29.74 5.66333 29.5633 4.97 29.21 4.47C28.8567 3.96333 28.2967 3.71 27.53 3.71C26.7633 3.71 26.21 3.96333 25.87 4.47C25.5233 4.97 25.35 5.66333 25.35 6.55ZM42.44 7.65C42.44 8.53667 42.12 9.22667 41.48 9.72C40.8333 10.2133 39.9633 10.46 38.87 10.46C38.31 10.46 37.7933 10.4167 37.32 10.33C36.84 10.25 36.4433 10.1333 36.13 9.98V8.78C36.4633 8.92667 36.88 9.06333 37.38 9.19C37.88 9.31 38.3967 9.37 38.93 9.37C39.6767 9.37 40.24 9.22333 40.62 8.93C40.9933 8.64333 41.18 8.25333 41.18 7.76C41.18 7.43333 41.11 7.15667 40.97 6.93C40.83 6.71 40.59 6.50333 40.25 6.31C39.91 6.11667 39.4367 5.91333 38.83 5.7C37.9833 5.39333 37.3433 5.01667 36.91 4.57C36.47 4.11667 36.25 3.50333 36.25 2.73C36.25 2.19667 36.3867 1.74333 36.66 1.37C36.9333 0.99 37.31 0.696667 37.79 0.49C38.27 0.283334 38.8233 0.18 39.45 0.18C39.9967 0.18 40.5 0.233333 40.96 0.34C41.4133 0.44 41.8267 0.573334 42.2 0.74L41.81 1.82C41.4633 1.67333 41.09 1.54667 40.69 1.44C40.2833 1.34 39.86 1.29 39.42 1.29C38.7933 1.29 38.32 1.42333 38 1.69C37.6867 1.95667 37.53 2.31 37.53 2.75C37.53 3.08333 37.6 3.36333 37.74 3.59C37.88 3.81 38.1067 4.01 38.42 4.19C38.74 4.36333 39.17 4.55333 39.71 4.76C40.2967 4.97333 40.7933 5.20333 41.2 5.45C41.6067 5.70333 41.9167 6 42.13 6.34C42.3367 6.68667 42.44 7.12333 42.44 7.65ZM47.13 2.69C48.0433 2.69 48.72 2.89 49.16 3.29C49.6 3.69 49.82 4.33 49.82 5.21V10.32H48.92L48.69 9.26H48.63C48.3033 9.66667 47.96 9.97 47.6 10.17C47.24 10.3633 46.7433 10.46 46.11 10.46C45.43 10.46 44.8667 10.28 44.42 9.92C43.9667 9.56 43.74 8.99667 43.74 8.23C43.74 7.48333 44.0367 6.91 44.63 6.51C45.2167 6.10333 46.12 5.88 47.34 5.84L48.62 5.8V5.35C48.62 4.72333 48.4833 4.29 48.21 4.05C47.9367 3.80333 47.5533 3.68 47.06 3.68C46.6667 3.68 46.2933 3.74 45.94 3.86C45.5867 3.97333 45.2567 4.10667 44.95 4.26L44.57 3.33C44.8967 3.15667 45.2833 3.00667 45.73 2.88C46.1767 2.75333 46.6433 2.69 47.13 2.69ZM48.6 6.65L47.5 6.69C46.5667 6.73 45.92 6.88 45.56 7.14C45.2 7.4 45.02 7.77 45.02 8.25C45.02 8.67 45.1467 8.97667 45.4 9.17C45.66 9.37 45.99 9.47 46.39 9.47C47.0233 9.47 47.55 9.29333 47.97 8.94C48.39 8.59333 48.6 8.05333 48.6 7.32V6.65ZM55.76 2.68C56.6533 2.68 57.33 2.89667 57.79 3.33C58.2433 3.76333 58.47 4.46333 58.47 5.43V10.32H57.25V5.52C57.25 4.31333 56.69 3.71 55.57 3.71C54.7433 3.71 54.17 3.94333 53.85 4.41C53.5367 4.87667 53.38 5.55 53.38 6.43V10.32H52.14V2.82H53.14L53.32 3.84H53.39C53.63 3.44667 53.9667 3.15333 54.4 2.96C54.8267 2.77333 55.28 2.68 55.76 2.68ZM65.68 8.25C65.68 8.97667 65.41 9.52667 64.87 9.9C64.33 10.2733 63.6033 10.46 62.69 10.46C62.1633 10.46 61.7133 10.4167 61.34 10.33C60.96 10.25 60.6233 10.1333 60.33 9.98V8.86C60.63 9.01333 60.9933 9.15333 61.42 9.28C61.8467 9.40667 62.2767 9.47 62.71 9.47C63.3367 9.47 63.79 9.37 64.07 9.17C64.35 8.96333 64.49 8.69333 64.49 8.36C64.49 8.17333 64.44 8.00667 64.34 7.86C64.2333 7.70667 64.0467 7.55667 63.78 7.41C63.52 7.25667 63.14 7.08667 62.64 6.9C62.16 6.71333 61.7467 6.52667 61.4 6.34C61.0533 6.15333 60.7867 5.93 60.6 5.67C60.4133 5.41 60.32 5.07333 60.32 4.66C60.32 4.02667 60.58 3.53667 61.1 3.19C61.6133 2.85 62.29 2.68 63.13 2.68C63.59 2.68 64.02 2.72333 64.42 2.81C64.8133 2.89667 65.1833 3.02 65.53 3.18L65.11 4.16C64.79 4.02667 64.4567 3.91333 64.11 3.82C63.77 3.72667 63.4167 3.68 63.05 3.68C62.5433 3.68 62.16 3.76333 61.9 3.93C61.6333 4.09 61.5 4.31 61.5 4.59C61.5 4.79667 61.56 4.97333 61.68 5.12C61.8 5.26667 62.0033 5.40667 62.29 5.54C62.57 5.67333 62.95 5.83333 63.43 6.02C63.9033 6.2 64.31 6.38333 64.65 6.57C64.9833 6.75667 65.24 6.98333 65.42 7.25C65.5933 7.51667 65.68 7.85 65.68 8.25ZM71.31 0.32H74.07C75.31 0.32 76.2267 0.556667 76.82 1.03C77.4133 1.50333 77.71 2.21667 77.71 3.17C77.71 3.69667 77.61 4.14 77.41 4.5C77.2167 4.85333 76.9667 5.13333 76.66 5.34C76.36 5.55333 76.0433 5.72 75.71 5.84L78.45 10.32H76.98L74.56 6.19H72.57V10.32H71.31V0.32ZM74 1.42H72.57V5.13H74.07C74.8833 5.13 75.4767 4.96667 75.85 4.64C76.2233 4.32 76.41 3.84667 76.41 3.22C76.41 2.56667 76.2133 2.10333 75.82 1.83C75.4267 1.55667 74.82 1.42 74 1.42ZM84.89 2.82H86.12V10.32H85.11L84.93 9.33H84.88C84.6333 9.71667 84.2967 10.0033 83.87 10.19C83.4367 10.37 82.98 10.46 82.5 10.46C81.5933 10.46 80.91 10.2433 80.45 9.81C79.9967 9.37667 79.77 8.68333 79.77 7.73V2.82H81.01V7.65C81.01 8.84333 81.5667 9.44 82.68 9.44C83.5067 9.44 84.0833 9.20667 84.41 8.74C84.73 8.27333 84.89 7.6 84.89 6.72V2.82ZM92.11 2.68C93.01 2.68 93.6867 2.89667 94.14 3.33C94.6 3.76333 94.83 4.46333 94.83 5.43V10.32H93.61V5.52C93.61 4.31333 93.05 3.71 91.93 3.71C91.1033 3.71 90.53 3.94333 90.21 4.41C89.89 4.87667 89.73 5.55 89.73 6.43V10.32H88.5V2.82H89.5L89.68 3.84H89.75C89.99 3.44667 90.3267 3.15333 90.76 2.96C91.1867 2.77333 91.6367 2.68 92.11 2.68ZM97.78 0C97.9667 0 98.1333 0.0633334 98.28 0.19C98.4267 0.316667 98.5 0.516667 98.5 0.79C98.5 1.05 98.4267 1.24333 98.28 1.37C98.1333 1.50333 97.9667 1.57 97.78 1.57C97.58 1.57 97.41 1.50333 97.27 1.37C97.13 1.24333 97.06 1.05 97.06 0.79C97.06 0.516667 97.13 0.316667 97.27 0.19C97.41 0.0633334 97.58 0 97.78 0ZM97.15 2.82H98.39V10.32H97.15V2.82ZM103.78 10.46C103.113 10.46 102.52 10.3233 102 10.05C101.487 9.78333 101.083 9.36333 100.79 8.79C100.497 8.22333 100.35 7.49667 100.35 6.61C100.35 5.68333 100.503 4.93333 100.81 4.36C101.117 3.78 101.533 3.35333 102.06 3.08C102.587 2.81333 103.187 2.68 103.86 2.68C104.24 2.68 104.61 2.71667 104.97 2.79C105.323 2.87 105.61 2.96667 105.83 3.08L105.46 4.1C105.233 4.02 104.97 3.94333 104.67 3.87C104.37 3.79 104.09 3.75 103.83 3.75C102.357 3.75 101.62 4.7 101.62 6.6C101.62 7.5 101.8 8.19333 102.16 8.68C102.52 9.16 103.053 9.4 103.76 9.4C104.173 9.4 104.537 9.35667 104.85 9.27C105.163 9.18333 105.45 9.08 105.71 8.96V10.05C105.457 10.1833 105.177 10.2867 104.87 10.36C104.57 10.4267 104.207 10.46 103.78 10.46Z" fill="black"/>
</svg>
