<svg width="112" height="14" viewBox="0 0 112 14" fill="none" xmlns="http://www.w3.org/2000/svg">
<path d="M8.02 0.64V10.64H6.55L1.6 2.34H1.54C1.54667 2.50667 1.56 2.69333 1.58 2.9C1.59333 3.10667 1.60333 3.32667 1.61 3.56C1.61667 3.8 1.62667 4.04667 1.64 4.3C1.64667 4.55333 1.65 4.80333 1.65 5.05V10.64H0.5V0.64H1.96L6.9 8.92H6.96C6.94667 8.80667 6.93667 8.65 6.93 8.45C6.92333 8.25 6.91333 8.02667 6.9 7.78C6.89333 7.53333 6.88333 7.27667 6.87 7.01C6.86333 6.75 6.86 6.51 6.86 6.29V0.64H8.02ZM16.58 6.87C16.58 7.49667 16.5033 8.05 16.35 8.53C16.19 9.01 15.9667 9.42 15.68 9.76C15.3933 10.0933 15.0433 10.3467 14.63 10.52C14.2167 10.6933 13.76 10.78 13.26 10.78C12.7933 10.78 12.36 10.6933 11.96 10.52C11.5667 10.3467 11.2233 10.0933 10.93 9.76C10.6367 9.42 10.41 9.01 10.25 8.53C10.09 8.05 10.01 7.49667 10.01 6.87C10.01 6.04333 10.1433 5.34333 10.41 4.77C10.6767 4.19667 11.0567 3.75667 11.55 3.45C12.0433 3.15 12.6267 3 13.3 3C13.9467 3 14.5133 3.15 15 3.45C15.4933 3.75667 15.88 4.19667 16.16 4.77C16.44 5.34333 16.58 6.04333 16.58 6.87ZM11.27 6.87C11.27 7.46333 11.34 7.97667 11.48 8.41C11.62 8.84333 11.84 9.17667 12.14 9.41C12.44 9.64333 12.8233 9.76 13.29 9.76C13.7567 9.76 14.1367 9.64333 14.43 9.41C14.73 9.17667 14.9533 8.84333 15.1 8.41C15.2467 7.97667 15.32 7.46333 15.32 6.87C15.32 6.27667 15.2467 5.77 15.1 5.35C14.9533 4.93 14.73 4.60333 14.43 4.37C14.1367 4.14333 13.75 4.03 13.27 4.03C12.57 4.03 12.0633 4.28333 11.75 4.79C11.43 5.29 11.27 5.98333 11.27 6.87ZM20.8 9.77C20.98 9.77 21.1633 9.75333 21.35 9.72C21.5367 9.68667 21.69 9.65333 21.81 9.62V10.56C21.6833 10.62 21.5 10.6733 21.26 10.72C21.02 10.76 20.7933 10.78 20.58 10.78C20.2067 10.78 19.86 10.7133 19.54 10.58C19.2267 10.44 18.9733 10.2033 18.78 9.87C18.5867 9.53667 18.49 9.06667 18.49 8.46V4.09H17.5V3.5L18.52 3.01L18.98 1.41H19.71V3.14H21.76V4.09H19.71V8.43C19.71 8.88333 19.8133 9.22 20.02 9.44C20.2267 9.66 20.4867 9.77 20.8 9.77ZM29.39 6.87C29.39 7.49667 29.31 8.05 29.15 8.53C28.9967 9.01 28.7767 9.42 28.49 9.76C28.2033 10.0933 27.8533 10.3467 27.44 10.52C27.0267 10.6933 26.57 10.78 26.07 10.78C25.6033 10.78 25.17 10.6933 24.77 10.52C24.3767 10.3467 24.0333 10.0933 23.74 9.76C23.4467 9.42 23.22 9.01 23.06 8.53C22.9 8.05 22.82 7.49667 22.82 6.87C22.82 6.04333 22.9533 5.34333 23.22 4.77C23.4867 4.19667 23.8667 3.75667 24.36 3.45C24.8533 3.15 25.4367 3 26.11 3C26.7567 3 27.3233 3.15 27.81 3.45C28.3033 3.75667 28.69 4.19667 28.97 4.77C29.25 5.34333 29.39 6.04333 29.39 6.87ZM24.08 6.87C24.08 7.46333 24.15 7.97667 24.29 8.41C24.43 8.84333 24.65 9.17667 24.95 9.41C25.25 9.64333 25.6333 9.76 26.1 9.76C26.5667 9.76 26.9467 9.64333 27.24 9.41C27.54 9.17667 27.7633 8.84333 27.91 8.41C28.0567 7.97667 28.13 7.46333 28.13 6.87C28.13 6.27667 28.0567 5.77 27.91 5.35C27.7633 4.93 27.54 4.60333 27.24 4.37C26.9467 4.14333 26.56 4.03 26.08 4.03C25.38 4.03 24.8733 4.28333 24.56 4.79C24.24 5.29 24.08 5.98333 24.08 6.87ZM40.12 7.97C40.12 8.56333 39.9833 9.07 39.71 9.49C39.4367 9.90333 39.05 10.22 38.55 10.44C38.05 10.6667 37.4533 10.78 36.76 10.78C36.42 10.78 36.0867 10.76 35.76 10.72C35.44 10.6867 35.1467 10.6333 34.88 10.56C34.6133 10.4933 34.3767 10.4067 34.17 10.3V9.1C34.4967 9.24667 34.8967 9.38333 35.37 9.51C35.8433 9.63 36.3267 9.69 36.82 9.69C37.28 9.69 37.66 9.62333 37.96 9.49C38.2667 9.36333 38.4967 9.17667 38.65 8.93C38.8033 8.69 38.88 8.40667 38.88 8.08C38.88 7.75333 38.8133 7.47667 38.68 7.25C38.54 7.03 38.3133 6.82333 38 6.63C37.68 6.43667 37.2433 6.23333 36.69 6.02C36.1767 5.81333 35.7433 5.58 35.39 5.32C35.03 5.06 34.7567 4.74333 34.57 4.37C34.3833 4.00333 34.29 3.56333 34.29 3.05C34.29 2.51667 34.4167 2.06333 34.67 1.69C34.93 1.31 35.2833 1.01667 35.73 0.81C36.1833 0.603333 36.71 0.5 37.31 0.5C37.8233 0.5 38.2933 0.553333 38.72 0.66C39.1533 0.76 39.55 0.893333 39.91 1.06L39.52 2.14C39.1867 1.99333 38.83 1.86667 38.45 1.76C38.07 1.66 37.68 1.61 37.28 1.61C36.9 1.61 36.58 1.67 36.32 1.79C36.0667 1.91 35.8733 2.08 35.74 2.3C35.6133 2.52 35.55 2.77667 35.55 3.07C35.55 3.40333 35.6133 3.68333 35.74 3.91C35.8733 4.13 36.09 4.33 36.39 4.51C36.6833 4.68333 37.08 4.87333 37.58 5.08C38.1267 5.29333 38.59 5.52333 38.97 5.77C39.35 6.02333 39.6367 6.32 39.83 6.66C40.0233 7.00667 40.12 7.44333 40.12 7.97ZM44.55 3.01C45.41 3.01 46.05 3.21 46.47 3.61C46.8967 4.01 47.11 4.65 47.11 5.53V10.64H46.23L45.99 9.58H45.93C45.73 9.84667 45.5233 10.0733 45.31 10.26C45.1033 10.44 44.86 10.57 44.58 10.65C44.3067 10.7367 43.97 10.78 43.57 10.78C43.15 10.78 42.77 10.7 42.43 10.54C42.0967 10.38 41.8333 10.1367 41.64 9.81C41.44 9.47667 41.34 9.05667 41.34 8.55C41.34 7.80333 41.6167 7.23 42.17 6.83C42.7167 6.42333 43.5667 6.2 44.72 6.16L45.91 6.12V5.67C45.91 5.04333 45.7833 4.61 45.53 4.37C45.2833 4.12333 44.9333 4 44.48 4C44.1133 4 43.7633 4.06 43.43 4.18C43.1033 4.29333 42.79 4.42667 42.49 4.58L42.11 3.65C42.43 3.47667 42.8 3.32667 43.22 3.2C43.64 3.07333 44.0833 3.01 44.55 3.01ZM45.91 6.97L44.88 7.01C44.0267 7.05 43.4333 7.2 43.1 7.46C42.7667 7.72 42.6 8.09 42.6 8.57C42.6 8.99 42.7167 9.29667 42.95 9.49C43.1833 9.69 43.4867 9.79 43.86 9.79C44.44 9.79 44.9267 9.61333 45.32 9.26C45.7133 8.91333 45.91 8.37333 45.91 7.64V6.97ZM52.72 3C53.56 3 54.1967 3.21667 54.63 3.65C55.07 4.08333 55.29 4.78333 55.29 5.75V10.64H54.07V5.84C54.07 5.23333 53.9433 4.78 53.69 4.48C53.4367 4.18 53.05 4.03 52.53 4.03C51.7633 4.03 51.2333 4.26333 50.94 4.73C50.6467 5.19667 50.5 5.87 50.5 6.75V10.64H49.28V3.14H50.26L50.44 4.16H50.51C50.6633 3.9 50.8567 3.68333 51.09 3.51C51.3233 3.33667 51.58 3.20667 51.86 3.12C52.14 3.04 52.4267 3 52.72 3ZM62.09 8.57C62.09 9.05667 61.9767 9.46333 61.75 9.79C61.5167 10.1167 61.19 10.3633 60.77 10.53C60.35 10.6967 59.8467 10.78 59.26 10.78C58.7667 10.78 58.34 10.7367 57.98 10.65C57.62 10.57 57.3067 10.4533 57.04 10.3V9.18C57.3267 9.33333 57.67 9.47333 58.07 9.6C58.47 9.72667 58.8767 9.79 59.29 9.79C59.8567 9.79 60.27 9.69 60.53 9.49C60.7833 9.28333 60.91 9.01333 60.91 8.68C60.91 8.49333 60.8633 8.32667 60.77 8.18C60.67 8.02667 60.4967 7.87667 60.25 7.73C60.0033 7.57667 59.6467 7.40667 59.18 7.22C58.7333 7.03333 58.3467 6.84667 58.02 6.66C57.7 6.47333 57.4533 6.25 57.28 5.99C57.1067 5.73 57.02 5.39333 57.02 4.98C57.02 4.34667 57.2667 3.85667 57.76 3.51C58.2467 3.17 58.8867 3 59.68 3C60.1133 3 60.5167 3.04333 60.89 3.13C61.2633 3.21667 61.6167 3.34 61.95 3.5L61.54 4.48C61.3467 4.38667 61.1433 4.30333 60.93 4.23C60.7167 4.16333 60.5 4.11 60.28 4.07C60.06 4.02333 59.8367 4 59.61 4C59.1567 4 58.8067 4.08333 58.56 4.25C58.32 4.41 58.2 4.63 58.2 4.91C58.2 5.11667 58.2567 5.29667 58.37 5.45C58.4767 5.59667 58.66 5.73667 58.92 5.87C59.1733 6.01 59.5267 6.16667 59.98 6.34C60.4267 6.52 60.8067 6.70333 61.12 6.89C61.44 7.07667 61.68 7.30333 61.84 7.57C62.0067 7.83667 62.09 8.17 62.09 8.57ZM74.91 5.54C74.91 6.66 74.7167 7.6 74.33 8.36C73.9367 9.11333 73.3733 9.68333 72.64 10.07C71.9067 10.45 71.0233 10.64 69.99 10.64H67.37V0.64H70.27C71.2167 0.64 72.04 0.826666 72.74 1.2C73.4333 1.57333 73.97 2.12333 74.35 2.85C74.7233 3.57 74.91 4.46667 74.91 5.54ZM73.6 5.59C73.6 4.70333 73.4633 3.97333 73.19 3.4C72.9233 2.83333 72.53 2.41 72.01 2.13C71.49 1.85667 70.8567 1.72 70.11 1.72H68.61V9.56H69.86C71.1133 9.56 72.05 9.22667 72.67 8.56C73.29 7.89333 73.6 6.90333 73.6 5.59ZM76.83 3.14H78.05V10.64H76.83V3.14ZM77.45 0.32C77.6367 0.32 77.8 0.383333 77.94 0.51C78.08 0.636666 78.15 0.836666 78.15 1.11C78.15 1.37 78.08 1.56333 77.94 1.69C77.8 1.82333 77.6367 1.89 77.45 1.89C77.25 1.89 77.08 1.82333 76.94 1.69C76.8 1.56333 76.73 1.37 76.73 1.11C76.73 0.836666 76.8 0.636666 76.94 0.51C77.08 0.383333 77.25 0.32 77.45 0.32ZM84.9 8.57C84.9 9.05667 84.7833 9.46333 84.55 9.79C84.3233 10.1167 84 10.3633 83.58 10.53C83.16 10.6967 82.6567 10.78 82.07 10.78C81.5767 10.78 81.15 10.7367 80.79 10.65C80.43 10.57 80.1133 10.4533 79.84 10.3V9.18C80.1333 9.33333 80.48 9.47333 80.88 9.6C81.28 9.72667 81.6867 9.79 82.1 9.79C82.6667 9.79 83.08 9.69 83.34 9.49C83.5933 9.28333 83.72 9.01333 83.72 8.68C83.72 8.49333 83.67 8.32667 83.57 8.18C83.4767 8.02667 83.3067 7.87667 83.06 7.73C82.8067 7.57667 82.4467 7.40667 81.98 7.22C81.5333 7.03333 81.15 6.84667 80.83 6.66C80.51 6.47333 80.2633 6.25 80.09 5.99C79.9167 5.73 79.83 5.39333 79.83 4.98C79.83 4.34667 80.0733 3.85667 80.56 3.51C81.0533 3.17 81.6967 3 82.49 3C82.9167 3 83.3167 3.04333 83.69 3.13C84.0633 3.21667 84.42 3.34 84.76 3.5L84.35 4.48C84.1567 4.38667 83.95 4.30333 83.73 4.23C83.5167 4.16333 83.3 4.11 83.08 4.07C82.86 4.02333 82.64 4 82.42 4C81.96 4 81.61 4.08333 81.37 4.25C81.1233 4.41 81 4.63 81 4.91C81 5.11667 81.0567 5.29667 81.17 5.45C81.2833 5.59667 81.47 5.73667 81.73 5.87C81.9833 6.01 82.3333 6.16667 82.78 6.34C83.2267 6.52 83.61 6.70333 83.93 6.89C84.25 7.07667 84.49 7.30333 84.65 7.57C84.8167 7.83667 84.9 8.17 84.9 8.57ZM89.99 3C90.8567 3 91.5567 3.32 92.09 3.96C92.6167 4.60667 92.88 5.57667 92.88 6.87C92.88 7.72333 92.7567 8.44 92.51 9.02C92.27 9.60667 91.9333 10.0467 91.5 10.34C91.0667 10.6333 90.56 10.78 89.98 10.78C89.6133 10.78 89.2933 10.73 89.02 10.63C88.7467 10.5233 88.51 10.39 88.31 10.23C88.1167 10.0633 87.95 9.88333 87.81 9.69H87.72C87.74 9.85 87.76 10.05 87.78 10.29C87.8 10.53 87.81 10.74 87.81 10.92V14H86.59V3.14H87.58L87.75 4.16H87.81C87.95 3.94667 88.1167 3.75 88.31 3.57C88.51 3.39 88.7467 3.25 89.02 3.15C89.2933 3.05 89.6167 3 89.99 3ZM89.75 4.03C89.2833 4.03 88.91 4.12667 88.63 4.32C88.3433 4.51333 88.1333 4.8 88 5.18C87.8733 5.56 87.81 6.04667 87.81 6.64V6.87C87.81 7.49 87.8667 8.01333 87.98 8.44C88.1 8.87333 88.3033 9.2 88.59 9.42C88.8833 9.64667 89.28 9.76 89.78 9.76C90.2 9.76 90.5467 9.63333 90.82 9.38C91.0867 9.12667 91.2867 8.78333 91.42 8.35C91.5533 7.91667 91.62 7.42 91.62 6.86C91.62 6 91.4667 5.31333 91.16 4.8C90.86 4.28667 90.39 4.03 89.75 4.03ZM95.91 0V10.64H94.7V0H95.91ZM100.83 3.01C101.69 3.01 102.33 3.21 102.75 3.61C103.177 4.01 103.39 4.65 103.39 5.53V10.64H102.51L102.27 9.58H102.21C102.01 9.84667 101.803 10.0733 101.59 10.26C101.383 10.44 101.14 10.57 100.86 10.65C100.587 10.7367 100.25 10.78 99.85 10.78C99.43 10.78 99.05 10.7 98.71 10.54C98.3767 10.38 98.1133 10.1367 97.92 9.81C97.72 9.47667 97.62 9.05667 97.62 8.55C97.62 7.80333 97.8967 7.23 98.45 6.83C98.9967 6.42333 99.8467 6.2 101 6.16L102.19 6.12V5.67C102.19 5.04333 102.067 4.61 101.82 4.37C101.567 4.12333 101.213 4 100.76 4C100.393 4 100.043 4.06 99.71 4.18C99.3833 4.29333 99.07 4.42667 98.77 4.58L98.39 3.65C98.71 3.47667 99.08 3.32667 99.5 3.2C99.92 3.07333 100.363 3.01 100.83 3.01ZM102.19 6.97L101.16 7.01C100.307 7.05 99.7133 7.2 99.38 7.46C99.0467 7.72 98.88 8.09 98.88 8.57C98.88 8.99 98.9967 9.29667 99.23 9.49C99.4633 9.69 99.7667 9.79 100.14 9.79C100.72 9.79 101.207 9.61333 101.6 9.26C101.993 8.91333 102.19 8.37333 102.19 7.64V6.97ZM107.31 10.67L104.47 3.14H105.78L107.28 7.41C107.373 7.65667 107.457 7.89667 107.53 8.13C107.61 8.36333 107.677 8.59 107.73 8.81C107.783 9.03 107.827 9.24333 107.86 9.45H107.9C107.953 9.21667 108.033 8.91 108.14 8.53C108.247 8.15667 108.363 7.77667 108.49 7.39L109.9 3.14H111.23L108.19 11.68C108.023 12.1467 107.827 12.5533 107.6 12.9C107.367 13.2533 107.087 13.5233 106.76 13.71C106.433 13.9033 106.043 14 105.59 14C105.383 14 105.2 13.9867 105.04 13.96C104.873 13.94 104.733 13.9167 104.62 13.89V12.91C104.713 12.93 104.83 12.9467 104.97 12.96C105.11 12.98 105.257 12.99 105.41 12.99C105.677 12.99 105.91 12.9367 106.11 12.83C106.303 12.7233 106.47 12.57 106.61 12.37C106.75 12.17 106.867 11.9333 106.96 11.66L107.31 10.67Z" fill="black"/>
</svg>
