<svg width="117" height="14" viewBox="0 0 117 14" fill="none" xmlns="http://www.w3.org/2000/svg">
<path d="M8.42 0.14V10.14H6.95L1.6 1.84H1.55C1.57 2.16667 1.59333 2.57333 1.62 3.06C1.64667 3.54 1.66 4.03667 1.66 4.55V10.14H0.5V0.14H1.95L7.29 8.42H7.34C7.33333 8.26667 7.32333 8.04333 7.31 7.75C7.29667 7.45 7.28333 7.12333 7.27 6.77C7.25667 6.41 7.25 6.08333 7.25 5.79V0.14H8.42ZM17.49 6.37C17.49 7.61667 17.1767 8.58 16.55 9.26C15.9167 9.94 15.0633 10.28 13.99 10.28C13.33 10.28 12.74 10.13 12.22 9.83C11.7067 9.52333 11.3 9.08 11 8.5C10.7 7.91333 10.55 7.20333 10.55 6.37C10.55 5.13 10.8633 4.17333 11.49 3.5C12.1167 2.83333 12.9667 2.5 14.04 2.5C14.72 2.5 15.32 2.65 15.84 2.95C16.3533 3.25667 16.7567 3.69667 17.05 4.27C17.3433 4.84333 17.49 5.54333 17.49 6.37ZM11.82 6.37C11.82 7.25667 11.9967 7.96 12.35 8.48C12.6967 9 13.2533 9.26 14.02 9.26C14.78 9.26 15.3367 9 15.69 8.48C16.0433 7.96 16.22 7.25667 16.22 6.37C16.22 5.48333 16.0433 4.79 15.69 4.29C15.3367 3.78333 14.7767 3.53 14.01 3.53C13.2433 3.53 12.6867 3.78333 12.34 4.29C11.9933 4.79 11.82 5.48333 11.82 6.37ZM21.95 9.27C22.1367 9.27 22.3267 9.25333 22.52 9.22C22.7133 9.18667 22.8733 9.15333 23 9.12V10.06C22.8667 10.12 22.68 10.1733 22.44 10.22C22.1933 10.26 21.96 10.28 21.74 10.28C21.3467 10.28 20.9833 10.2133 20.65 10.08C20.3167 9.94 20.05 9.70333 19.85 9.37C19.6433 9.03667 19.54 8.56667 19.54 7.96V3.59H18.47V3L19.55 2.51L20.04 0.91H20.77V2.64H22.94V3.59H20.77V7.93C20.77 8.38333 20.88 8.72 21.1 8.94C21.32 9.16 21.6033 9.27 21.95 9.27ZM31.02 6.37C31.02 7.61667 30.7033 8.58 30.07 9.26C29.4433 9.94 28.5933 10.28 27.52 10.28C26.8533 10.28 26.2633 10.13 25.75 9.83C25.23 9.52333 24.82 9.08 24.52 8.5C24.22 7.91333 24.07 7.20333 24.07 6.37C24.07 5.13 24.3833 4.17333 25.01 3.5C25.6367 2.83333 26.4867 2.5 27.56 2.5C28.24 2.5 28.84 2.65 29.36 2.95C29.88 3.25667 30.2867 3.69667 30.58 4.27C30.8733 4.84333 31.02 5.54333 31.02 6.37ZM25.35 6.37C25.35 7.25667 25.5233 7.96 25.87 8.48C26.2233 9 26.7833 9.26 27.55 9.26C28.3033 9.26 28.8567 9 29.21 8.48C29.5633 7.96 29.74 7.25667 29.74 6.37C29.74 5.48333 29.5633 4.79 29.21 4.29C28.8567 3.78333 28.2967 3.53 27.53 3.53C26.7633 3.53 26.21 3.78333 25.87 4.29C25.5233 4.79 25.35 5.48333 25.35 6.37ZM42.44 7.47C42.44 8.35667 42.12 9.04667 41.48 9.54C40.8333 10.0333 39.9633 10.28 38.87 10.28C38.31 10.28 37.7933 10.2367 37.32 10.15C36.84 10.07 36.4433 9.95333 36.13 9.8V8.6C36.4633 8.74667 36.88 8.88333 37.38 9.01C37.88 9.13 38.3967 9.19 38.93 9.19C39.6767 9.19 40.24 9.04333 40.62 8.75C40.9933 8.46333 41.18 8.07333 41.18 7.58C41.18 7.25333 41.11 6.97667 40.97 6.75C40.83 6.53 40.59 6.32333 40.25 6.13C39.91 5.93667 39.4367 5.73333 38.83 5.52C38.4033 5.36 38.0267 5.19 37.7 5.01C37.38 4.83 37.1133 4.62333 36.9 4.39C36.6867 4.15667 36.5233 3.89 36.41 3.59C36.3033 3.29 36.25 2.94333 36.25 2.55C36.25 2.01667 36.3867 1.56333 36.66 1.19C36.9333 0.81 37.31 0.516667 37.79 0.31C38.27 0.103333 38.8233 0 39.45 0C39.9967 0 40.5 0.0533332 40.96 0.16C41.4133 0.26 41.8267 0.393333 42.2 0.56L41.81 1.64C41.4633 1.49333 41.09 1.36667 40.69 1.26C40.2833 1.16 39.86 1.11 39.42 1.11C38.7933 1.11 38.32 1.24333 38 1.51C37.6867 1.77667 37.53 2.13 37.53 2.57C37.53 2.90333 37.6 3.18333 37.74 3.41C37.88 3.63 38.1067 3.83 38.42 4.01C38.74 4.18333 39.17 4.37333 39.71 4.58C40.2967 4.79333 40.7933 5.02333 41.2 5.27C41.6067 5.52333 41.9167 5.82 42.13 6.16C42.3367 6.50667 42.44 6.94333 42.44 7.47ZM47.13 2.51C48.0433 2.51 48.72 2.71 49.16 3.11C49.6 3.51 49.82 4.15 49.82 5.03V10.14H48.92L48.69 9.08H48.63C48.3033 9.48667 47.96 9.79 47.6 9.99C47.24 10.1833 46.7433 10.28 46.11 10.28C45.43 10.28 44.8667 10.1 44.42 9.74C43.9667 9.38 43.74 8.81667 43.74 8.05C43.74 7.30333 44.0367 6.73 44.63 6.33C45.2167 5.92333 46.12 5.7 47.34 5.66L48.62 5.62V5.17C48.62 4.54333 48.4833 4.11 48.21 3.87C47.9367 3.62333 47.5533 3.5 47.06 3.5C46.6667 3.5 46.2933 3.56 45.94 3.68C45.5867 3.79333 45.2567 3.92667 44.95 4.08L44.57 3.15C44.8967 2.97667 45.2833 2.82667 45.73 2.7C46.1767 2.57333 46.6433 2.51 47.13 2.51ZM48.6 6.47L47.5 6.51C46.5667 6.55 45.92 6.7 45.56 6.96C45.2 7.22 45.02 7.59 45.02 8.07C45.02 8.49 45.1467 8.79667 45.4 8.99C45.66 9.19 45.99 9.29 46.39 9.29C47.0233 9.29 47.55 9.11333 47.97 8.76C48.39 8.41333 48.6 7.87333 48.6 7.14V6.47ZM55.76 2.5C56.6533 2.5 57.33 2.71667 57.79 3.15C58.2433 3.58333 58.47 4.28333 58.47 5.25V10.14H57.25V5.34C57.25 4.73333 57.1167 4.28 56.85 3.98C56.5767 3.68 56.15 3.53 55.57 3.53C54.7433 3.53 54.17 3.76333 53.85 4.23C53.5367 4.69667 53.38 5.37 53.38 6.25V10.14H52.14V2.64H53.14L53.32 3.66H53.39C53.63 3.26667 53.9667 2.97333 54.4 2.78C54.8267 2.59333 55.28 2.5 55.76 2.5ZM65.68 8.07C65.68 8.79667 65.41 9.34667 64.87 9.72C64.33 10.0933 63.6033 10.28 62.69 10.28C62.1633 10.28 61.7133 10.2367 61.34 10.15C60.96 10.07 60.6233 9.95333 60.33 9.8V8.68C60.63 8.83333 60.9933 8.97333 61.42 9.1C61.8467 9.22667 62.2767 9.29 62.71 9.29C63.3367 9.29 63.79 9.19 64.07 8.99C64.35 8.78333 64.49 8.51333 64.49 8.18C64.49 7.99333 64.44 7.82667 64.34 7.68C64.2333 7.52667 64.0467 7.37667 63.78 7.23C63.52 7.07667 63.14 6.90667 62.64 6.72C62.16 6.53333 61.7467 6.34667 61.4 6.16C61.0533 5.97333 60.7867 5.75 60.6 5.49C60.4133 5.23 60.32 4.89333 60.32 4.48C60.32 3.84667 60.58 3.35667 61.1 3.01C61.6133 2.67 62.29 2.5 63.13 2.5C63.59 2.5 64.02 2.54333 64.42 2.63C64.8133 2.71667 65.1833 2.84 65.53 3L65.11 3.98C64.79 3.84667 64.4567 3.73333 64.11 3.64C63.77 3.54667 63.4167 3.5 63.05 3.5C62.5433 3.5 62.16 3.58333 61.9 3.75C61.6333 3.91 61.5 4.13 61.5 4.41C61.5 4.61667 61.56 4.79333 61.68 4.94C61.8 5.08667 62.0033 5.22667 62.29 5.36C62.57 5.49333 62.95 5.65333 63.43 5.84C63.9033 6.02 64.31 6.20333 64.65 6.39C64.9833 6.57667 65.24 6.80333 65.42 7.07C65.5933 7.33667 65.68 7.67 65.68 8.07ZM74.47 1.25V10.14H73.21V1.25H70.09V0.14H77.58V1.25H74.47ZM81.77 2.51C82.6833 2.51 83.36 2.71 83.8 3.11C84.24 3.51 84.46 4.15 84.46 5.03V10.14H83.56L83.32 9.08H83.27C82.9433 9.48667 82.6 9.79 82.24 9.99C81.88 10.1833 81.3833 10.28 80.75 10.28C80.0633 10.28 79.4967 10.1 79.05 9.74C78.6033 9.38 78.38 8.81667 78.38 8.05C78.38 7.30333 78.6733 6.73 79.26 6.33C79.8467 5.92333 80.7533 5.7 81.98 5.66L83.25 5.62V5.17C83.25 4.54333 83.1167 4.11 82.85 3.87C82.5767 3.62333 82.1933 3.5 81.7 3.5C81.3067 3.5 80.9333 3.56 80.58 3.68C80.2267 3.79333 79.8933 3.92667 79.58 4.08L79.21 3.15C79.5367 2.97667 79.9233 2.82667 80.37 2.7C80.8167 2.57333 81.2833 2.51 81.77 2.51ZM83.24 6.47L82.13 6.51C81.1967 6.55 80.55 6.7 80.19 6.96C79.83 7.22 79.65 7.59 79.65 8.07C79.65 8.49 79.78 8.79667 80.04 8.99C80.2933 9.19 80.6233 9.29 81.03 9.29C81.6633 9.29 82.19 9.11333 82.61 8.76C83.03 8.41333 83.24 7.87333 83.24 7.14V6.47ZM90.39 2.5C91.29 2.5 91.9667 2.71667 92.42 3.15C92.88 3.58333 93.11 4.28333 93.11 5.25V10.14H91.89V5.34C91.89 4.73333 91.7533 4.28 91.48 3.98C91.2133 3.68 90.79 3.53 90.21 3.53C89.3767 3.53 88.8033 3.76333 88.49 4.23C88.17 4.69667 88.01 5.37 88.01 6.25V10.14H86.78V2.64H87.77L87.96 3.66H88.03C88.27 3.26667 88.6033 2.97333 89.03 2.78C89.4633 2.59333 89.9167 2.5 90.39 2.5ZM98.09 2.5C98.5833 2.5 99.03 2.59333 99.43 2.78C99.8233 2.96667 100.16 3.25 100.44 3.63H100.51L100.68 2.64H101.66V10.27C101.66 11.3433 101.387 12.15 100.84 12.69C100.293 13.23 99.4467 13.5 98.3 13.5C97.76 13.5 97.2633 13.46 96.81 13.38C96.3567 13.3 95.9533 13.18 95.6 13.02V11.89C96.34 12.2833 97.2633 12.48 98.37 12.48C99.0167 12.48 99.5233 12.29 99.89 11.91C100.257 11.53 100.44 11.0133 100.44 10.36V10.07C100.44 9.95667 100.447 9.79667 100.46 9.59C100.467 9.37667 100.477 9.23 100.49 9.15H100.43C100.17 9.53 99.8467 9.81333 99.46 10C99.0733 10.1867 98.6233 10.28 98.11 10.28C97.1367 10.28 96.3767 9.94 95.83 9.26C95.2833 8.58 95.01 7.62667 95.01 6.4C95.01 5.20667 95.2833 4.25667 95.83 3.55C96.3767 2.85 97.13 2.5 98.09 2.5ZM98.26 3.53C97.6333 3.53 97.1467 3.78 96.8 4.28C96.46 4.78 96.29 5.49333 96.29 6.42C96.29 7.34 96.46 8.04667 96.8 8.54C97.14 9.02667 97.6367 9.27 98.29 9.27C99.0433 9.27 99.5933 9.06667 99.94 8.66C100.287 8.25333 100.46 7.6 100.46 6.7V6.4C100.46 5.37333 100.283 4.64 99.93 4.2C99.57 3.75333 99.0133 3.53 98.26 3.53ZM108.93 8.07C108.93 8.79667 108.66 9.34667 108.12 9.72C107.573 10.0933 106.843 10.28 105.93 10.28C105.41 10.28 104.96 10.2367 104.58 10.15C104.2 10.07 103.867 9.95333 103.58 9.8V8.68C103.88 8.83333 104.243 8.97333 104.67 9.1C105.09 9.22667 105.52 9.29 105.96 9.29C106.587 9.29 107.04 9.19 107.32 8.99C107.6 8.78333 107.74 8.51333 107.74 8.18C107.74 7.99333 107.687 7.82667 107.58 7.68C107.48 7.52667 107.297 7.37667 107.03 7.23C106.763 7.07667 106.383 6.90667 105.89 6.72C105.403 6.53333 104.987 6.34667 104.64 6.16C104.3 5.97333 104.037 5.75 103.85 5.49C103.663 5.23 103.57 4.89333 103.57 4.48C103.57 3.84667 103.827 3.35667 104.34 3.01C104.86 2.67 105.54 2.5 106.38 2.5C106.84 2.5 107.267 2.54333 107.66 2.63C108.06 2.71667 108.43 2.84 108.77 3L108.35 3.98C108.037 3.84667 107.707 3.73333 107.36 3.64C107.013 3.54667 106.66 3.5 106.3 3.5C105.793 3.5 105.407 3.58333 105.14 3.75C104.873 3.91 104.74 4.13 104.74 4.41C104.74 4.61667 104.8 4.79333 104.92 4.94C105.047 5.08667 105.25 5.22667 105.53 5.36C105.817 5.49333 106.197 5.65333 106.67 5.84C107.15 6.02 107.557 6.20333 107.89 6.39C108.23 6.57667 108.487 6.80333 108.66 7.07C108.84 7.33667 108.93 7.67 108.93 8.07ZM113.59 2.51C114.503 2.51 115.18 2.71 115.62 3.11C116.06 3.51 116.28 4.15 116.28 5.03V10.14H115.38L115.14 9.08H115.09C114.763 9.48667 114.42 9.79 114.06 9.99C113.7 10.1833 113.203 10.28 112.57 10.28C111.89 10.28 111.323 10.1 110.87 9.74C110.423 9.38 110.2 8.81667 110.2 8.05C110.2 7.30333 110.493 6.73 111.08 6.33C111.673 5.92333 112.58 5.7 113.8 5.66L115.07 5.62V5.17C115.07 4.54333 114.937 4.11 114.67 3.87C114.397 3.62333 114.013 3.5 113.52 3.5C113.127 3.5 112.753 3.56 112.4 3.68C112.047 3.79333 111.717 3.92667 111.41 4.08L111.03 3.15C111.357 2.97667 111.743 2.82667 112.19 2.7C112.637 2.57333 113.103 2.51 113.59 2.51ZM115.06 6.47L113.95 6.51C113.017 6.55 112.373 6.7 112.02 6.96C111.66 7.22 111.48 7.59 111.48 8.07C111.48 8.49 111.607 8.79667 111.86 8.99C112.12 9.19 112.45 9.29 112.85 9.29C113.483 9.29 114.01 9.11333 114.43 8.76C114.85 8.41333 115.06 7.87333 115.06 7.14V6.47Z" fill="black"/>
</svg>
