<svg width="121.9" height="19.04" viewBox="0 0 121.9 19.04" xmlns="http://www.w3.org/2000/svg"><path transform="translate(0 14.952) scale(.014 -.014)" d="m655 0h-107l-376 598h-2q1-27 2-54.5t1.5-54.5 0.5-54v-435h-81v714h107l375-594h3q-1 24-2 52t-1.5 55.5-0.5 51.5v435h81z"/><path transform="translate(10.486 14.952) scale(.014 -.014)" d="m545 269q0-62-15.5-113.5t-47-88-77.5-57-107-20.5q-58 0-103.5 20t-77 57-48 88.5-16.5 113.5q0 87 29.5 149.5t85.5 95.5 135 33q80 0 133.5-35t81-97.5 27.5-145.5zm-403 0q0-63 17-110.5t51.5-73.5 87.5-26q55 0 89.5 26t51 74 16.5 110q0 61-15 108.5t-49 74.5-89 27q-78 0-119-55t-41-155z"/><path transform="translate(18.858 14.952) scale(.014 -.014)" d="m259 62q25 0 45 4.5t39 11.5v-68q-22-8-46.5-14t-61.5-6q-49 0-80.5 17.5t-47 54.5-15.5 94v312h-76v43l82 25 22 125h60v-124h159v-69h-159v-305q0-49 17.5-75t61.5-26z"/><path transform="translate(24.066 14.952) scale(.014 -.014)" d="m545 269q0-62-15.5-113.5t-47-88-77.5-57-107-20.5q-58 0-103.5 20t-77 57-48 88.5-16.5 113.5q0 87 29.5 149.5t85.5 95.5 135 33q80 0 133.5-35t81-97.5 27.5-145.5zm-403 0q0-63 17-110.5t51.5-73.5 87.5-26q55 0 89.5 26t51 74 16.5 110q0 61-15 108.5t-49 74.5-89 27q-78 0-119-55t-41-155z"/><path transform="translate(36.218 14.952) scale(.014 -.014)" d="m510 194q0-62-31.5-108t-88.5-71-135-25q-47 0-82 4.5t-64.5 12.5-56.5 18v83q46-20 98-31.5t108-11.5q47 0 83 13.5t57.5 40.5 21.5 69q0 39-19.5 62.5t-58 42-94.5 37.5q-56 22-99 45.5t-67 60.5-24 97q0 64 32 106t87 63.5 124 21.5q56 0 104.5-11t92.5-31l-29-70q-46 20-89 29.5t-82 9.5q-43 0-77-12.5t-54-37.5-20-63q0-40 20.5-65t58.5-42.5 90-36.5q59-21 102.5-45.5t67.5-60.5 24-94z"/><path transform="translate(44.002 14.952) scale(.014 -.014)" d="m291 547q91 0 138.5-47.5t47.5-144.5v-355h-63l-16 92h-3q-18-30-42.5-53t-59.5-36-86-13q-52 0-88 18.5t-55.5 52.5-19.5 83q0 83 64.5 123.5t181.5 47.5l99 5v29q0 71-28 101.5t-83 30.5q-37 0-75.5-10t-81.5-31l-26 64q43 20 91.5 31.5t104.5 11.5zm19-286q-83-4-129.5-31t-46.5-82q0-43 27-67.5t76-24.5q76 0 114 44t39 114v51z"/><path transform="translate(51.744 14.952) scale(.014 -.014)" d="m348 547q86 0 135.5-47t49.5-149v-351h-88v329q0 76-31.5 111.5t-89.5 35.5q-74 0-114.5-49t-40.5-147v-280h-88v537h67l12-96h4q15 29 38.5 53t59.5 38.5 86 14.5z"/><path transform="translate(60.27 14.952) scale(.014 -.014)" d="m436 148q0-47-22.5-83t-69.5-55.5-120-19.5q-56 0-101.5 9t-81.5 24v76q44-21 92-31t88-10q69 0 99.5 22.5t30.5 62.5q0 29-17 47t-49.5 31-77.5 28q-46 16-81.5 33.5t-55 46-19.5 75.5q0 70 54 106.5t145 36.5q50 0 93.5-9.5t82.5-26.5l-26-62q-33 16-74 25t-76 9q-53 0-83.5-18.5t-30.5-55.5q0-30 16-46.5t46.5-27.5 72.5-26q46-16 83.5-34.5t59.5-47.5 22-79z"/><path transform="translate(70.77 14.952) scale(.014 -.014)" d="M635 0H546V336H182V0H93V714H182V411H546V714H635Z"/><path transform="translate(80.976 14.952) scale(.014 -.014)" d="m298 547q72 0 120.5-31t72.5-86.5 24-131.5v-47h-373q0-92 45-143t132-51q49 0 86.5 8t83.5 29v-68q-38-18-80-27t-99-9q-83 0-140.5 33t-87 94.5-29.5 146.5 28.5 148.5 83 99 133.5 35.5zm2-64q-65 0-107-43t-49-129h290q0 51-14.5 89.5t-44.5 60.5-75 22z"/><path transform="translate(88.942 14.952) scale(.014 -.014)" d="m168 549q0-26-1-58t-3-56h4q19 49 64 81t114 32q98 0 152.5-71t54.5-206q0-83-24.5-146.5t-73-99-121.5-35.5q-66 0-105.5 28t-58.5 67h-6l-14-85h-70v760h88zm152-73q-78 0-115-52.5t-37-147.5v-16q0-97 34.5-147t107.5-50q75 0 114 54t39 154q0 102-35.5 153.5t-107.5 51.5z"/><path transform="translate(97.426 14.952) scale(.014 -.014)" d="m324 546q21 0 39.5-2.5t32.5-6.5l-10-82q-16 3-31.5 5.5t-39.5 2.5q-33 0-59.5-10.5t-46-32.5-29.5-54.5-10-77.5v-288h-88v537h68l12-96h5q12 30 34 53.5t53.5 37.5 69.5 14z"/><path transform="translate(103.17 14.952) scale(.014 -.014)" d="m298 547q72 0 120.5-31t72.5-86.5 24-131.5v-47h-373q0-92 45-143t132-51q49 0 86.5 8t83.5 29v-68q-38-18-80-27t-99-9q-83 0-140.5 33t-87 94.5-29.5 146.5 28.5 148.5 83 99 133.5 35.5zm2-64q-65 0-107-43t-49-129h290q0 51-14.5 89.5t-44.5 60.5-75 22z"/><path transform="translate(111.13 14.952) scale(.014 -.014)" d="m419 333q-5 21-10.5 42.5t-10 41.5-8.5 37h-2q-4-17-9-38t-10-42.5-11-42.5l-102-332h-89l-152 538h88l83-312q7-28 12-52t9.5-46 6.5-42h2q2 15 5.5 32t7.5 34.5 9 35 10 34.5l97 316h92l92-316q7-23 12.5-47t11-46.5 8.5-42.5h2q2 20 6 43t9 47.5 11 49.5l81 312h85l-145-538h-90z"/></svg>