<svg width="97" height="11" viewBox="0 0 97 11" fill="none" xmlns="http://www.w3.org/2000/svg">
<path d="M8.42 0.64V10.64H6.95L1.6 2.34H1.55C1.57 2.55333 1.58667 2.80667 1.6 3.1C1.61333 3.39333 1.62667 3.70667 1.64 4.04C1.65333 4.37333 1.66 4.71 1.66 5.05V10.64H0.5V0.64H1.95L7.29 8.92H7.34C7.33333 8.76667 7.32333 8.54333 7.31 8.25C7.29667 7.95 7.28333 7.62333 7.27 7.27C7.25667 6.91 7.25 6.58333 7.25 6.29V0.64H8.42ZM17.49 6.87C17.49 7.49667 17.41 8.05 17.25 8.53C17.0833 9.01 16.85 9.42 16.55 9.76C16.2433 10.0933 15.8733 10.3467 15.44 10.52C15.0067 10.6933 14.5233 10.78 13.99 10.78C13.4967 10.78 13.04 10.6933 12.62 10.52C12.2 10.3467 11.8367 10.0933 11.53 9.76C11.2233 9.42 10.9833 9.01 10.81 8.53C10.6367 8.05 10.55 7.49667 10.55 6.87C10.55 6.04333 10.69 5.34333 10.97 4.77C11.25 4.19667 11.65 3.75667 12.17 3.45C12.6967 3.15 13.32 3 14.04 3C14.72 3 15.32 3.15 15.84 3.45C16.3533 3.75667 16.7567 4.19667 17.05 4.77C17.3433 5.34333 17.49 6.04333 17.49 6.87ZM11.82 6.87C11.82 7.46333 11.9 7.97667 12.06 8.41C12.2133 8.84333 12.4533 9.17667 12.78 9.41C13.1067 9.64333 13.52 9.76 14.02 9.76C14.5267 9.76 14.9433 9.64333 15.27 9.41C15.5967 9.17667 15.8367 8.84333 15.99 8.41C16.1433 7.97667 16.22 7.46333 16.22 6.87C16.22 6.27667 16.14 5.77 15.98 5.35C15.82 4.93 15.58 4.60333 15.26 4.37C14.94 4.14333 14.5233 4.03 14.01 4.03C13.2433 4.03 12.6867 4.28333 12.34 4.79C11.9933 5.29 11.82 5.98333 11.82 6.87ZM21.95 9.77C22.1367 9.77 22.3267 9.75333 22.52 9.72C22.7133 9.68667 22.8733 9.65333 23 9.62V10.56C22.8667 10.62 22.68 10.6733 22.44 10.72C22.1933 10.76 21.96 10.78 21.74 10.78C21.3467 10.78 20.9833 10.7133 20.65 10.58C20.3167 10.44 20.05 10.2033 19.85 9.87C19.6433 9.53667 19.54 9.06667 19.54 8.46V4.09H18.47V3.5L19.55 3.01L20.04 1.41H20.77V3.14H22.94V4.09H20.77V8.43C20.77 8.88333 20.88 9.22 21.1 9.44C21.32 9.66 21.6033 9.77 21.95 9.77ZM31.02 6.87C31.02 7.49667 30.9367 8.05 30.77 8.53C30.61 9.01 30.3767 9.42 30.07 9.76C29.77 10.0933 29.4033 10.3467 28.97 10.52C28.5367 10.6933 28.0533 10.78 27.52 10.78C27.0267 10.78 26.57 10.6933 26.15 10.52C25.73 10.3467 25.3633 10.0933 25.05 9.76C24.7433 9.42 24.5033 9.01 24.33 8.53C24.1567 8.05 24.07 7.49667 24.07 6.87C24.07 6.04333 24.21 5.34333 24.49 4.77C24.77 4.19667 25.1733 3.75667 25.7 3.45C26.22 3.15 26.84 3 27.56 3C28.24 3 28.84 3.15 29.36 3.45C29.88 3.75667 30.2867 4.19667 30.58 4.77C30.8733 5.34333 31.02 6.04333 31.02 6.87ZM25.35 6.87C25.35 7.46333 25.4267 7.97667 25.58 8.41C25.7333 8.84333 25.9733 9.17667 26.3 9.41C26.6267 9.64333 27.0433 9.76 27.55 9.76C28.05 9.76 28.4633 9.64333 28.79 9.41C29.1167 9.17667 29.3567 8.84333 29.51 8.41C29.6633 7.97667 29.74 7.46333 29.74 6.87C29.74 6.27667 29.6633 5.77 29.51 5.35C29.35 4.93 29.11 4.60333 28.79 4.37C28.4633 4.14333 28.0433 4.03 27.53 4.03C26.7633 4.03 26.21 4.28333 25.87 4.79C25.5233 5.29 25.35 5.98333 25.35 6.87ZM42.44 7.97C42.44 8.56333 42.2967 9.07 42.01 9.49C41.7167 9.90333 41.3033 10.22 40.77 10.44C40.23 10.6667 39.5967 10.78 38.87 10.78C38.4967 10.78 38.14 10.76 37.8 10.72C37.46 10.6867 37.15 10.6333 36.87 10.56C36.59 10.4933 36.3433 10.4067 36.13 10.3V9.1C36.4633 9.24667 36.88 9.38333 37.38 9.51C37.88 9.63 38.3967 9.69 38.93 9.69C39.4233 9.69 39.8367 9.62333 40.17 9.49C40.51 9.36333 40.7633 9.17667 40.93 8.93C41.0967 8.69 41.18 8.40667 41.18 8.08C41.18 7.75333 41.11 7.47667 40.97 7.25C40.83 7.03 40.59 6.82333 40.25 6.63C39.91 6.43667 39.4367 6.23333 38.83 6.02C38.4033 5.86 38.0267 5.69 37.7 5.51C37.38 5.33 37.1133 5.12333 36.9 4.89C36.6867 4.65667 36.5233 4.39 36.41 4.09C36.3033 3.79 36.25 3.44333 36.25 3.05C36.25 2.51667 36.3867 2.06333 36.66 1.69C36.9333 1.31 37.31 1.01667 37.79 0.81C38.27 0.603333 38.8233 0.5 39.45 0.5C39.9967 0.5 40.5 0.553333 40.96 0.66C41.4133 0.76 41.8267 0.893333 42.2 1.06L41.81 2.14C41.4633 1.99333 41.09 1.86667 40.69 1.76C40.2833 1.66 39.86 1.61 39.42 1.61C39 1.61 38.65 1.67 38.37 1.79C38.09 1.91 37.88 2.08 37.74 2.3C37.6 2.52 37.53 2.77667 37.53 3.07C37.53 3.40333 37.6 3.68333 37.74 3.91C37.88 4.13 38.1067 4.33 38.42 4.51C38.74 4.68333 39.17 4.87333 39.71 5.08C40.2967 5.29333 40.7933 5.52333 41.2 5.77C41.6067 6.02333 41.9167 6.32 42.13 6.66C42.3367 7.00667 42.44 7.44333 42.44 7.97ZM47.13 3.01C48.0433 3.01 48.72 3.21 49.16 3.61C49.6 4.01 49.82 4.65 49.82 5.53V10.64H48.92L48.69 9.58H48.63C48.4167 9.84667 48.1967 10.0733 47.97 10.26C47.7367 10.44 47.4733 10.57 47.18 10.65C46.8867 10.7367 46.53 10.78 46.11 10.78C45.6633 10.78 45.26 10.7 44.9 10.54C44.54 10.38 44.2567 10.1367 44.05 9.81C43.8433 9.47667 43.74 9.05667 43.74 8.55C43.74 7.80333 44.0367 7.23 44.63 6.83C45.2167 6.42333 46.12 6.2 47.34 6.16L48.62 6.12V5.67C48.62 5.04333 48.4833 4.61 48.21 4.37C47.9367 4.12333 47.5533 4 47.06 4C46.6667 4 46.2933 4.06 45.94 4.18C45.5867 4.29333 45.2567 4.42667 44.95 4.58L44.57 3.65C44.8967 3.47667 45.2833 3.32667 45.73 3.2C46.1767 3.07333 46.6433 3.01 47.13 3.01ZM48.6 6.97L47.5 7.01C46.5667 7.05 45.92 7.2 45.56 7.46C45.2 7.72 45.02 8.09 45.02 8.57C45.02 8.99 45.1467 9.29667 45.4 9.49C45.66 9.69 45.99 9.79 46.39 9.79C47.0233 9.79 47.55 9.61333 47.97 9.26C48.39 8.91333 48.6 8.37333 48.6 7.64V6.97ZM55.76 3C56.6533 3 57.33 3.21667 57.79 3.65C58.2433 4.08333 58.47 4.78333 58.47 5.75V10.64H57.25V5.84C57.25 5.23333 57.1167 4.78 56.85 4.48C56.5767 4.18 56.15 4.03 55.57 4.03C54.7433 4.03 54.17 4.26333 53.85 4.73C53.5367 5.19667 53.38 5.87 53.38 6.75V10.64H52.14V3.14H53.14L53.32 4.16H53.39C53.5567 3.9 53.7633 3.68333 54.01 3.51C54.2567 3.33667 54.53 3.20667 54.83 3.12C55.13 3.04 55.44 3 55.76 3ZM65.68 8.57C65.68 9.05667 65.56 9.46333 65.32 9.79C65.0733 10.1167 64.7267 10.3633 64.28 10.53C63.8333 10.6967 63.3033 10.78 62.69 10.78C62.1633 10.78 61.7133 10.7367 61.34 10.65C60.96 10.57 60.6233 10.4533 60.33 10.3V9.18C60.63 9.33333 60.9933 9.47333 61.42 9.6C61.8467 9.72667 62.2767 9.79 62.71 9.79C63.3367 9.79 63.79 9.69 64.07 9.49C64.35 9.28333 64.49 9.01333 64.49 8.68C64.49 8.49333 64.44 8.32667 64.34 8.18C64.2333 8.02667 64.0467 7.87667 63.78 7.73C63.52 7.57667 63.14 7.40667 62.64 7.22C62.16 7.03333 61.7467 6.84667 61.4 6.66C61.0533 6.47333 60.7867 6.25 60.6 5.99C60.4133 5.73 60.32 5.39333 60.32 4.98C60.32 4.34667 60.58 3.85667 61.1 3.51C61.6133 3.17 62.29 3 63.13 3C63.59 3 64.02 3.04333 64.42 3.13C64.8133 3.21667 65.1833 3.34 65.53 3.5L65.11 4.48C64.79 4.34667 64.4567 4.23333 64.11 4.14C63.77 4.04667 63.4167 4 63.05 4C62.5433 4 62.16 4.08333 61.9 4.25C61.6333 4.41 61.5 4.63 61.5 4.91C61.5 5.11667 61.56 5.29333 61.68 5.44C61.8 5.58667 62.0033 5.72667 62.29 5.86C62.57 5.99333 62.95 6.15333 63.43 6.34C63.9033 6.52 64.31 6.70333 64.65 6.89C64.9833 7.07667 65.24 7.30333 65.42 7.57C65.5933 7.83667 65.68 8.17 65.68 8.57ZM74.47 1.75V10.64H73.21V1.75H70.09V0.64H77.58V1.75H74.47ZM80.16 0V3.12C80.16 3.3 80.1533 3.48333 80.14 3.67C80.1267 3.85667 80.11 4.02333 80.09 4.17H80.17C80.33 3.91 80.53 3.69667 80.77 3.53C81.0167 3.36333 81.29 3.23333 81.59 3.14C81.8833 3.05333 82.19 3.01 82.51 3.01C83.1167 3.01 83.6233 3.10667 84.03 3.3C84.4367 3.48667 84.7433 3.78333 84.95 4.19C85.15 4.59 85.25 5.11 85.25 5.75V10.64H84.04V5.84C84.04 5.23333 83.9033 4.78 83.63 4.48C83.3567 4.18 82.9333 4.03 82.36 4.03C81.8 4.03 81.36 4.13667 81.04 4.35C80.72 4.55667 80.4933 4.86333 80.36 5.27C80.2267 5.67667 80.16 6.17333 80.16 6.76V10.64H78.93V0H80.16ZM90.42 3.01C91.3333 3.01 92.01 3.21 92.45 3.61C92.89 4.01 93.11 4.65 93.11 5.53V10.64H92.21L91.97 9.58H91.92C91.7067 9.84667 91.4833 10.0733 91.25 10.26C91.0233 10.44 90.7633 10.57 90.47 10.65C90.1767 10.7367 89.82 10.78 89.4 10.78C88.9533 10.78 88.55 10.7 88.19 10.54C87.83 10.38 87.5467 10.1367 87.34 9.81C87.1333 9.47667 87.03 9.05667 87.03 8.55C87.03 7.80333 87.3233 7.23 87.91 6.83C88.5033 6.42333 89.41 6.2 90.63 6.16L91.9 6.12V5.67C91.9 5.04333 91.7667 4.61 91.5 4.37C91.2267 4.12333 90.8433 4 90.35 4C89.9567 4 89.5833 4.06 89.23 4.18C88.8767 4.29333 88.5467 4.42667 88.24 4.58L87.86 3.65C88.1867 3.47667 88.5733 3.32667 89.02 3.2C89.4667 3.07333 89.9333 3.01 90.42 3.01ZM91.89 6.97L90.78 7.01C89.8467 7.05 89.2 7.2 88.84 7.46C88.4867 7.72 88.31 8.09 88.31 8.57C88.31 8.99 88.4367 9.29667 88.69 9.49C88.95 9.69 89.28 9.79 89.68 9.79C90.3133 9.79 90.84 9.61333 91.26 9.26C91.68 8.91333 91.89 8.37333 91.89 7.64V6.97ZM95.43 3.14H96.66V10.64H95.43V3.14ZM96.06 0.32C96.2467 0.32 96.4133 0.383333 96.56 0.51C96.7067 0.636666 96.78 0.836666 96.78 1.11C96.78 1.37 96.7067 1.56333 96.56 1.69C96.4133 1.82333 96.2467 1.89 96.06 1.89C95.8533 1.89 95.68 1.82333 95.54 1.69C95.4 1.56333 95.33 1.37 95.33 1.11C95.33 0.836666 95.4 0.636666 95.54 0.51C95.68 0.383333 95.8533 0.32 96.06 0.32Z" fill="black"/>
</svg>
