<svg width="126" height="11" viewBox="0 0 126 11" fill="none" xmlns="http://www.w3.org/2000/svg">
<path d="M8.42 0.64V10.64H6.95L1.6 2.34H1.55C1.57 2.66667 1.59333 3.07333 1.62 3.56C1.64667 4.04 1.66 4.53667 1.66 5.05V10.64H0.5V0.64H1.95L7.29 8.92H7.34C7.33333 8.76667 7.32333 8.54333 7.31 8.25C7.29667 7.95 7.28333 7.62333 7.27 7.27C7.25667 6.91 7.25 6.58333 7.25 6.29V0.64H8.42ZM17.49 6.87C17.49 8.11667 17.1767 9.08 16.55 9.76C15.9167 10.44 15.0633 10.78 13.99 10.78C13.33 10.78 12.74 10.63 12.22 10.33C11.7067 10.0233 11.3 9.58 11 9C10.7 8.41333 10.55 7.70333 10.55 6.87C10.55 5.63 10.8633 4.67333 11.49 4C12.1167 3.33333 12.9667 3 14.04 3C14.72 3 15.32 3.15 15.84 3.45C16.3533 3.75667 16.7567 4.19667 17.05 4.77C17.3433 5.34333 17.49 6.04333 17.49 6.87ZM11.82 6.87C11.82 7.75667 11.9967 8.46 12.35 8.98C12.6967 9.5 13.2533 9.76 14.02 9.76C14.78 9.76 15.3367 9.5 15.69 8.98C16.0433 8.46 16.22 7.75667 16.22 6.87C16.22 5.98333 16.0433 5.29 15.69 4.79C15.3367 4.28333 14.7767 4.03 14.01 4.03C13.2433 4.03 12.6867 4.28333 12.34 4.79C11.9933 5.29 11.82 5.98333 11.82 6.87ZM21.95 9.77C22.1367 9.77 22.3267 9.75333 22.52 9.72C22.7133 9.68667 22.8733 9.65333 23 9.62V10.56C22.8667 10.62 22.68 10.6733 22.44 10.72C22.1933 10.76 21.96 10.78 21.74 10.78C21.3467 10.78 20.9833 10.7133 20.65 10.58C20.3167 10.44 20.05 10.2033 19.85 9.87C19.6433 9.53667 19.54 9.06667 19.54 8.46V4.09H18.47V3.5L19.55 3.01L20.04 1.41H20.77V3.14H22.94V4.09H20.77V8.43C20.77 8.88333 20.88 9.22 21.1 9.44C21.32 9.66 21.6033 9.77 21.95 9.77ZM31.02 6.87C31.02 8.11667 30.7033 9.08 30.07 9.76C29.4433 10.44 28.5933 10.78 27.52 10.78C26.8533 10.78 26.2633 10.63 25.75 10.33C25.23 10.0233 24.82 9.58 24.52 9C24.22 8.41333 24.07 7.70333 24.07 6.87C24.07 5.63 24.3833 4.67333 25.01 4C25.6367 3.33333 26.4867 3 27.56 3C28.24 3 28.84 3.15 29.36 3.45C29.88 3.75667 30.2867 4.19667 30.58 4.77C30.8733 5.34333 31.02 6.04333 31.02 6.87ZM25.35 6.87C25.35 7.75667 25.5233 8.46 25.87 8.98C26.2233 9.5 26.7833 9.76 27.55 9.76C28.3033 9.76 28.8567 9.5 29.21 8.98C29.5633 8.46 29.74 7.75667 29.74 6.87C29.74 5.98333 29.5633 5.29 29.21 4.79C28.8567 4.28333 28.2967 4.03 27.53 4.03C26.7633 4.03 26.21 4.28333 25.87 4.79C25.5233 5.29 25.35 5.98333 25.35 6.87ZM41.88 7.97C41.88 8.85667 41.56 9.54667 40.92 10.04C40.2733 10.5333 39.4033 10.78 38.31 10.78C37.75 10.78 37.2333 10.7367 36.76 10.65C36.28 10.57 35.8833 10.4533 35.57 10.3V9.1C35.9033 9.24667 36.32 9.38333 36.82 9.51C37.32 9.63 37.8367 9.69 38.37 9.69C39.1167 9.69 39.6767 9.54333 40.05 9.25C40.43 8.96333 40.62 8.57333 40.62 8.08C40.62 7.75333 40.55 7.47667 40.41 7.25C40.27 7.03 40.03 6.82333 39.69 6.63C39.35 6.43667 38.8767 6.23333 38.27 6.02C37.4233 5.71333 36.78 5.33667 36.34 4.89C35.9067 4.43667 35.69 3.82333 35.69 3.05C35.69 2.51667 35.8267 2.06333 36.1 1.69C36.3733 1.31 36.75 1.01667 37.23 0.81C37.71 0.603333 38.2633 0.5 38.89 0.5C39.4367 0.5 39.94 0.553333 40.4 0.66C40.8533 0.76 41.2667 0.893333 41.64 1.06L41.25 2.14C40.9033 1.99333 40.5267 1.86667 40.12 1.76C39.72 1.66 39.3 1.61 38.86 1.61C38.2333 1.61 37.76 1.74333 37.44 2.01C37.1267 2.27667 36.97 2.63 36.97 3.07C36.97 3.40333 37.04 3.68333 37.18 3.91C37.32 4.13 37.5467 4.33 37.86 4.51C38.18 4.68333 38.61 4.87333 39.15 5.08C39.7367 5.29333 40.2333 5.52333 40.64 5.77C41.0467 6.02333 41.3567 6.32 41.57 6.66C41.7767 7.00667 41.88 7.44333 41.88 7.97ZM46.57 3.01C47.4833 3.01 48.16 3.21 48.6 3.61C49.04 4.01 49.26 4.65 49.26 5.53V10.64H48.36L48.13 9.58H48.07C47.7433 9.98667 47.4 10.29 47.04 10.49C46.68 10.6833 46.1833 10.78 45.55 10.78C44.87 10.78 44.3067 10.6 43.86 10.24C43.4067 9.88 43.18 9.31667 43.18 8.55C43.18 7.80333 43.4767 7.23 44.07 6.83C44.6567 6.42333 45.56 6.2 46.78 6.16L48.06 6.12V5.67C48.06 5.04333 47.9233 4.61 47.65 4.37C47.3767 4.12333 46.9933 4 46.5 4C46.1067 4 45.7333 4.06 45.38 4.18C45.0267 4.29333 44.6967 4.42667 44.39 4.58L44.01 3.65C44.3367 3.47667 44.7233 3.32667 45.17 3.2C45.6167 3.07333 46.0833 3.01 46.57 3.01ZM48.04 6.97L46.94 7.01C46.0067 7.05 45.36 7.2 45 7.46C44.64 7.72 44.46 8.09 44.46 8.57C44.46 8.99 44.5867 9.29667 44.84 9.49C45.1 9.69 45.43 9.79 45.83 9.79C46.4633 9.79 46.99 9.61333 47.41 9.26C47.83 8.91333 48.04 8.37333 48.04 7.64V6.97ZM55.2 3C56.0933 3 56.77 3.21667 57.23 3.65C57.6833 4.08333 57.91 4.78333 57.91 5.75V10.64H56.69V5.84C56.69 4.63333 56.13 4.03 55.01 4.03C54.1833 4.03 53.61 4.26333 53.29 4.73C52.9767 5.19667 52.82 5.87 52.82 6.75V10.64H51.58V3.14H52.58L52.76 4.16H52.83C53.07 3.76667 53.4067 3.47333 53.84 3.28C54.2667 3.09333 54.72 3 55.2 3ZM65.12 8.57C65.12 9.29667 64.85 9.84667 64.31 10.22C63.77 10.5933 63.0433 10.78 62.13 10.78C61.6033 10.78 61.15 10.7367 60.77 10.65C60.3967 10.57 60.0633 10.4533 59.77 10.3V9.18C60.07 9.33333 60.4333 9.47333 60.86 9.6C61.2867 9.72667 61.7167 9.79 62.15 9.79C62.7767 9.79 63.23 9.69 63.51 9.49C63.79 9.28333 63.93 9.01333 63.93 8.68C63.93 8.49333 63.88 8.32667 63.78 8.18C63.6733 8.02667 63.4867 7.87667 63.22 7.73C62.96 7.57667 62.58 7.40667 62.08 7.22C61.6 7.03333 61.1867 6.84667 60.84 6.66C60.4933 6.47333 60.2267 6.25 60.04 5.99C59.8533 5.73 59.76 5.39333 59.76 4.98C59.76 4.34667 60.02 3.85667 60.54 3.51C61.0533 3.17 61.73 3 62.57 3C63.03 3 63.46 3.04333 63.86 3.13C64.2533 3.21667 64.6233 3.34 64.97 3.5L64.55 4.48C64.23 4.34667 63.8967 4.23333 63.55 4.14C63.21 4.04667 62.8567 4 62.49 4C61.9833 4 61.6 4.08333 61.34 4.25C61.0733 4.41 60.94 4.63 60.94 4.91C60.94 5.11667 61 5.29333 61.12 5.44C61.24 5.58667 61.4433 5.72667 61.73 5.86C62.01 5.99333 62.39 6.15333 62.87 6.34C63.3433 6.52 63.75 6.70333 64.09 6.89C64.4233 7.07667 64.68 7.30333 64.86 7.57C65.0333 7.83667 65.12 8.17 65.12 8.57ZM75.64 10.64H74.6L71.31 1.88H71.25C71.2833 2.16667 71.3067 2.55667 71.32 3.05C71.34 3.53667 71.35 4.04667 71.35 4.58V10.64H70.19V0.64H72.05L75.13 8.83H75.19L78.32 0.64H80.17V10.64H78.93V4.49C78.93 4.01 78.94 3.53 78.96 3.05C78.9867 2.57667 79.0067 2.19 79.02 1.89H78.97L75.64 10.64ZM85.56 3.01C86.4733 3.01 87.15 3.21 87.59 3.61C88.03 4.01 88.25 4.65 88.25 5.53V10.64H87.35L87.12 9.58H87.06C86.7333 9.98667 86.39 10.29 86.03 10.49C85.67 10.6833 85.1733 10.78 84.54 10.78C83.86 10.78 83.2967 10.6 82.85 10.24C82.3967 9.88 82.17 9.31667 82.17 8.55C82.17 7.80333 82.4667 7.23 83.06 6.83C83.6467 6.42333 84.55 6.2 85.77 6.16L87.05 6.12V5.67C87.05 5.04333 86.9133 4.61 86.64 4.37C86.3667 4.12333 85.9833 4 85.49 4C85.0967 4 84.7233 4.06 84.37 4.18C84.0167 4.29333 83.6867 4.42667 83.38 4.58L83 3.65C83.3267 3.47667 83.7133 3.32667 84.16 3.2C84.6067 3.07333 85.0733 3.01 85.56 3.01ZM87.03 6.97L85.93 7.01C84.9967 7.05 84.35 7.2 83.99 7.46C83.63 7.72 83.45 8.09 83.45 8.57C83.45 8.99 83.5767 9.29667 83.83 9.49C84.09 9.69 84.42 9.79 84.82 9.79C85.4533 9.79 85.98 9.61333 86.4 9.26C86.82 8.91333 87.03 8.37333 87.03 7.64V6.97ZM94.07 3C94.21 3 94.3633 3.00667 94.53 3.02C94.69 3.03333 94.8333 3.05333 94.96 3.08L94.8 4.21C94.68 4.18333 94.5467 4.16 94.4 4.14C94.26 4.12667 94.1233 4.12 93.99 4.12C93.61 4.12 93.25 4.22333 92.91 4.43C92.5767 4.64333 92.31 4.93667 92.11 5.31C91.91 5.69 91.81 6.13333 91.81 6.64V10.64H90.57V3.14H91.58L91.72 4.51H91.78C92.02 4.09667 92.3333 3.74 92.72 3.44C93.1 3.14667 93.55 3 94.07 3ZM99.37 10.78C98.7033 10.78 98.11 10.6433 97.59 10.37C97.0767 10.1033 96.6733 9.68333 96.38 9.11C96.0867 8.54333 95.94 7.81667 95.94 6.93C95.94 6.00333 96.0933 5.25333 96.4 4.68C96.7067 4.1 97.1233 3.67333 97.65 3.4C98.1767 3.13333 98.7767 3 99.45 3C99.83 3 100.2 3.03667 100.56 3.11C100.913 3.19 101.2 3.28667 101.42 3.4L101.05 4.42C100.823 4.34 100.56 4.26333 100.26 4.19C99.96 4.11 99.68 4.07 99.42 4.07C97.9467 4.07 97.21 5.02 97.21 6.92C97.21 7.82 97.39 8.51333 97.75 9C98.11 9.48 98.6433 9.72 99.35 9.72C99.7633 9.72 100.127 9.67667 100.44 9.59C100.753 9.50333 101.04 9.4 101.3 9.28V10.37C101.047 10.5033 100.767 10.6067 100.46 10.68C100.16 10.7467 99.7967 10.78 99.37 10.78ZM104.31 0V3.12C104.31 3.49333 104.287 3.84333 104.24 4.17H104.32C104.567 3.79 104.897 3.5 105.31 3.3C105.723 3.10667 106.173 3.01 106.66 3.01C107.573 3.01 108.26 3.22667 108.72 3.66C109.173 4.09333 109.4 4.79 109.4 5.75V10.64H108.19V5.84C108.19 4.63333 107.63 4.03 106.51 4.03C105.67 4.03 105.093 4.26667 104.78 4.74C104.467 5.21333 104.31 5.88667 104.31 6.76V10.64H103.08V0H104.31ZM114.63 3C115.27 3 115.82 3.14 116.28 3.42C116.747 3.7 117.103 4.09333 117.35 4.6C117.597 5.10667 117.72 5.7 117.72 6.38V7.13H112.58C112.6 7.97667 112.817 8.62333 113.23 9.07C113.65 9.51 114.233 9.73 114.98 9.73C115.453 9.73 115.873 9.68667 116.24 9.6C116.613 9.50667 116.993 9.37667 117.38 9.21V10.29C117 10.4567 116.623 10.58 116.25 10.66C115.877 10.74 115.433 10.78 114.92 10.78C114.213 10.78 113.587 10.6367 113.04 10.35C112.493 10.0567 112.067 9.62333 111.76 9.05C111.46 8.47667 111.31 7.77333 111.31 6.94C111.31 6.12 111.447 5.41667 111.72 4.83C111.993 4.24333 112.38 3.79 112.88 3.47C113.38 3.15667 113.963 3 114.63 3ZM114.61 4C114.023 4 113.56 4.19 113.22 4.57C112.88 4.95 112.677 5.47667 112.61 6.15H116.43C116.423 5.51 116.273 4.99333 115.98 4.6C115.693 4.2 115.237 4 114.61 4ZM123.24 3C124.133 3 124.81 3.21667 125.27 3.65C125.723 4.08333 125.95 4.78333 125.95 5.75V10.64H124.73V5.84C124.73 4.63333 124.17 4.03 123.05 4.03C122.223 4.03 121.65 4.26333 121.33 4.73C121.017 5.19667 120.86 5.87 120.86 6.75V10.64H119.62V3.14H120.62L120.8 4.16H120.87C121.11 3.76667 121.447 3.47333 121.88 3.28C122.307 3.09333 122.76 3 123.24 3Z" fill="black"/>
</svg>
