<svg width="105" height="14" viewBox="0 0 105 14" fill="none" xmlns="http://www.w3.org/2000/svg">
<path d="M8.42 0.32V10.32H6.95L1.6 2.02H1.55C1.57 2.23333 1.58667 2.48667 1.6 2.78C1.61333 3.07333 1.62667 3.38667 1.64 3.72C1.65333 4.05333 1.66 4.39 1.66 4.73V10.32H0.5V0.32H1.95L7.29 8.6H7.34C7.33333 8.44667 7.32333 8.22333 7.31 7.93C7.29667 7.63 7.28333 7.30333 7.27 6.95C7.25667 6.59 7.25 6.26333 7.25 5.97V0.32H8.42ZM17.49 6.55C17.49 7.17667 17.41 7.73 17.25 8.21C17.0833 8.69 16.85 9.1 16.55 9.44C16.2433 9.77333 15.8733 10.0267 15.44 10.2C15.0067 10.3733 14.5233 10.46 13.99 10.46C13.4967 10.46 13.04 10.3733 12.62 10.2C12.2 10.0267 11.8367 9.77333 11.53 9.44C11.2233 9.1 10.9833 8.69 10.81 8.21C10.6367 7.73 10.55 7.17667 10.55 6.55C10.55 5.72333 10.69 5.02333 10.97 4.45C11.25 3.87667 11.65 3.43667 12.17 3.13C12.6967 2.83 13.32 2.68 14.04 2.68C14.72 2.68 15.32 2.83 15.84 3.13C16.3533 3.43667 16.7567 3.87667 17.05 4.45C17.3433 5.02333 17.49 5.72333 17.49 6.55ZM11.82 6.55C11.82 7.14333 11.9 7.65667 12.06 8.09C12.2133 8.52333 12.4533 8.85667 12.78 9.09C13.1067 9.32333 13.52 9.44 14.02 9.44C14.5267 9.44 14.9433 9.32333 15.27 9.09C15.5967 8.85667 15.8367 8.52333 15.99 8.09C16.1433 7.65667 16.22 7.14333 16.22 6.55C16.22 5.95667 16.14 5.45 15.98 5.03C15.82 4.61 15.58 4.28333 15.26 4.05C14.94 3.82333 14.5233 3.71 14.01 3.71C13.2433 3.71 12.6867 3.96333 12.34 4.47C11.9933 4.97 11.82 5.66333 11.82 6.55ZM21.95 9.45C22.1367 9.45 22.3267 9.43333 22.52 9.4C22.7133 9.36667 22.8733 9.33333 23 9.3V10.24C22.8667 10.3 22.68 10.3533 22.44 10.4C22.1933 10.44 21.96 10.46 21.74 10.46C21.3467 10.46 20.9833 10.3933 20.65 10.26C20.3167 10.12 20.05 9.88333 19.85 9.55C19.6433 9.21667 19.54 8.74667 19.54 8.14V3.77H18.47V3.18L19.55 2.69L20.04 1.09H20.77V2.82H22.94V3.77H20.77V8.11C20.77 8.56333 20.88 8.9 21.1 9.12C21.32 9.34 21.6033 9.45 21.95 9.45ZM31.02 6.55C31.02 7.17667 30.9367 7.73 30.77 8.21C30.61 8.69 30.3767 9.1 30.07 9.44C29.77 9.77333 29.4033 10.0267 28.97 10.2C28.5367 10.3733 28.0533 10.46 27.52 10.46C27.0267 10.46 26.57 10.3733 26.15 10.2C25.73 10.0267 25.3633 9.77333 25.05 9.44C24.7433 9.1 24.5033 8.69 24.33 8.21C24.1567 7.73 24.07 7.17667 24.07 6.55C24.07 5.72333 24.21 5.02333 24.49 4.45C24.77 3.87667 25.1733 3.43667 25.7 3.13C26.22 2.83 26.84 2.68 27.56 2.68C28.24 2.68 28.84 2.83 29.36 3.13C29.88 3.43667 30.2867 3.87667 30.58 4.45C30.8733 5.02333 31.02 5.72333 31.02 6.55ZM25.35 6.55C25.35 7.14333 25.4267 7.65667 25.58 8.09C25.7333 8.52333 25.9733 8.85667 26.3 9.09C26.6267 9.32333 27.0433 9.44 27.55 9.44C28.05 9.44 28.4633 9.32333 28.79 9.09C29.1167 8.85667 29.3567 8.52333 29.51 8.09C29.6633 7.65667 29.74 7.14333 29.74 6.55C29.74 5.95667 29.6633 5.45 29.51 5.03C29.35 4.61 29.11 4.28333 28.79 4.05C28.4633 3.82333 28.0433 3.71 27.53 3.71C26.7633 3.71 26.21 3.96333 25.87 4.47C25.5233 4.97 25.35 5.66333 25.35 6.55ZM42.41 7.65C42.41 8.24333 42.2667 8.75 41.98 9.17C41.6933 9.58333 41.28 9.9 40.74 10.12C40.2067 10.3467 39.5733 10.46 38.84 10.46C38.4667 10.46 38.11 10.44 37.77 10.4C37.43 10.3667 37.12 10.3133 36.84 10.24C36.56 10.1733 36.3133 10.0867 36.1 9.98V8.78C36.4333 8.92667 36.85 9.06333 37.35 9.19C37.85 9.31 38.3667 9.37 38.9 9.37C39.3933 9.37 39.81 9.30333 40.15 9.17C40.4833 9.04333 40.7333 8.85667 40.9 8.61C41.0667 8.37 41.15 8.08667 41.15 7.76C41.15 7.43333 41.08 7.15667 40.94 6.93C40.8 6.71 40.56 6.50333 40.22 6.31C39.88 6.11667 39.4067 5.91333 38.8 5.7C38.2333 5.49333 37.7567 5.26 37.37 5C36.99 4.74 36.7033 4.42333 36.51 4.05C36.3233 3.68333 36.23 3.24333 36.23 2.73C36.23 2.19667 36.3633 1.74333 36.63 1.37C36.9033 0.99 37.28 0.696667 37.76 0.49C38.24 0.283334 38.7933 0.18 39.42 0.18C39.9667 0.18 40.47 0.233333 40.93 0.34C41.39 0.44 41.8067 0.573334 42.18 0.74L41.78 1.82C41.44 1.67333 41.0667 1.54667 40.66 1.44C40.2533 1.34 39.83 1.29 39.39 1.29C38.97 1.29 38.62 1.35 38.34 1.47C38.06 1.59 37.85 1.76 37.71 1.98C37.57 2.2 37.5 2.45667 37.5 2.75C37.5 3.08333 37.57 3.36333 37.71 3.59C37.85 3.81 38.08 4.01 38.4 4.19C38.7133 4.36333 39.14 4.55333 39.68 4.76C40.2733 4.97333 40.7733 5.20333 41.18 5.45C41.58 5.70333 41.8867 6 42.1 6.34C42.3067 6.68667 42.41 7.12333 42.41 7.65ZM47.1 2.69C48.02 2.69 48.6967 2.89 49.13 3.29C49.57 3.69 49.79 4.33 49.79 5.21V10.32H48.9L48.66 9.26H48.6C48.3867 9.52667 48.1667 9.75333 47.94 9.94C47.7067 10.12 47.4433 10.25 47.15 10.33C46.8567 10.4167 46.5 10.46 46.08 10.46C45.6333 10.46 45.23 10.38 44.87 10.22C44.51 10.06 44.2267 9.81667 44.02 9.49C43.82 9.15667 43.72 8.73667 43.72 8.23C43.72 7.48333 44.0133 6.91 44.6 6.51C45.1867 6.10333 46.09 5.88 47.31 5.84L48.59 5.8V5.35C48.59 4.72333 48.4533 4.29 48.18 4.05C47.9133 3.80333 47.53 3.68 47.03 3.68C46.6433 3.68 46.27 3.74 45.91 3.86C45.5567 3.97333 45.2267 4.10667 44.92 4.26L44.54 3.33C44.8667 3.15667 45.2533 3.00667 45.7 2.88C46.1533 2.75333 46.62 2.69 47.1 2.69ZM48.57 6.65L47.47 6.69C46.5367 6.73 45.89 6.88 45.53 7.14C45.17 7.4 44.99 7.77 44.99 8.25C44.99 8.67 45.1167 8.97667 45.37 9.17C45.63 9.37 45.96 9.47 46.36 9.47C46.9933 9.47 47.52 9.29333 47.94 8.94C48.36 8.59333 48.57 8.05333 48.57 7.32V6.65ZM55.73 2.68C56.6233 2.68 57.3 2.89667 57.76 3.33C58.2133 3.76333 58.44 4.46333 58.44 5.43V10.32H57.23V5.52C57.23 4.91333 57.0933 4.46 56.82 4.16C56.5467 3.86 56.1233 3.71 55.55 3.71C54.7167 3.71 54.14 3.94333 53.82 4.41C53.5067 4.87667 53.35 5.55 53.35 6.43V10.32H52.12V2.82H53.11L53.29 3.84H53.36C53.5267 3.58 53.7333 3.36333 53.98 3.19C54.2333 3.01667 54.5067 2.88667 54.8 2.8C55.1 2.72 55.41 2.68 55.73 2.68ZM65.65 8.25C65.65 8.73667 65.53 9.14333 65.29 9.47C65.05 9.79667 64.7033 10.0433 64.25 10.21C63.8033 10.3767 63.2733 10.46 62.66 10.46C62.1333 10.46 61.6833 10.4167 61.31 10.33C60.93 10.25 60.5967 10.1333 60.31 9.98V8.86C60.6033 9.01333 60.9633 9.15333 61.39 9.28C61.8167 9.40667 62.25 9.47 62.69 9.47C63.31 9.47 63.76 9.37 64.04 9.17C64.32 8.96333 64.46 8.69333 64.46 8.36C64.46 8.17333 64.41 8.00667 64.31 7.86C64.21 7.70667 64.0267 7.55667 63.76 7.41C63.4933 7.25667 63.1133 7.08667 62.62 6.9C62.1333 6.71333 61.7167 6.52667 61.37 6.34C61.0233 6.15333 60.7567 5.93 60.57 5.67C60.3833 5.41 60.29 5.07333 60.29 4.66C60.29 4.02667 60.55 3.53667 61.07 3.19C61.59 2.85 62.27 2.68 63.11 2.68C63.5633 2.68 63.99 2.72333 64.39 2.81C64.7833 2.89667 65.1533 3.02 65.5 3.18L65.08 4.16C64.76 4.02667 64.43 3.91333 64.09 3.82C63.7433 3.72667 63.3867 3.68 63.02 3.68C62.52 3.68 62.1367 3.76333 61.87 3.93C61.6033 4.09 61.47 4.31 61.47 4.59C61.47 4.79667 61.53 4.97333 61.65 5.12C61.77 5.26667 61.9733 5.40667 62.26 5.54C62.5467 5.67333 62.9267 5.83333 63.4 6.02C63.8733 6.2 64.28 6.38333 64.62 6.57C64.9533 6.75667 65.21 6.98333 65.39 7.25C65.5633 7.51667 65.65 7.85 65.65 8.25ZM79.98 5.31C79.98 6.08333 79.88 6.78333 79.68 7.41C79.4867 8.04333 79.1967 8.59 78.81 9.05C78.4233 9.50333 77.94 9.85333 77.36 10.1C76.7867 10.34 76.1233 10.46 75.37 10.46C74.5833 10.46 73.9033 10.3367 73.33 10.09C72.75 9.84333 72.2667 9.49333 71.88 9.04C71.5 8.58667 71.2167 8.04333 71.03 7.41C70.8433 6.77667 70.75 6.07 70.75 5.29C70.75 4.26333 70.9167 3.37 71.25 2.61C71.59 1.84333 72.1033 1.24333 72.79 0.81C73.4767 0.383333 74.34 0.17 75.38 0.17C76.38 0.17 77.22 0.383333 77.9 0.81C78.5867 1.23 79.1033 1.82667 79.45 2.6C79.8033 3.36667 79.98 4.27 79.98 5.31ZM72.08 5.31C72.08 6.15 72.1967 6.87333 72.43 7.48C72.6633 8.08667 73.0267 8.55333 73.52 8.88C74.0067 9.20667 74.6233 9.37 75.37 9.37C76.1233 9.37 76.74 9.20667 77.22 8.88C77.7067 8.55333 78.0667 8.08667 78.3 7.48C78.5333 6.87333 78.65 6.15 78.65 5.31C78.65 4.05 78.3867 3.06333 77.86 2.35C77.34 1.63667 76.5133 1.28 75.38 1.28C74.6267 1.28 74.0067 1.44 73.52 1.76C73.0267 2.08 72.6633 2.54 72.43 3.14C72.1967 3.74667 72.08 4.47 72.08 5.31ZM85.52 2.68C85.66 2.68 85.81 2.68667 85.97 2.7C86.1367 2.71333 86.28 2.73333 86.4 2.76L86.25 3.89C86.13 3.86333 85.9967 3.84 85.85 3.82C85.7033 3.80667 85.5667 3.8 85.44 3.8C85.1467 3.8 84.87 3.86 84.61 3.98C84.35 4.1 84.1167 4.27 83.91 4.49C83.7033 4.71 83.5433 4.97333 83.43 5.28C83.31 5.58667 83.25 5.93333 83.25 6.32V10.32H82.02V2.82H83.03L83.17 4.19H83.22C83.38 3.91 83.5733 3.65667 83.8 3.43C84.02 3.19667 84.2767 3.01333 84.57 2.88C84.8567 2.74667 85.1733 2.68 85.52 2.68ZM87.8 2.82H89.03V10.32H87.8V2.82ZM88.43 0C88.6167 0 88.7833 0.0633334 88.93 0.19C89.0767 0.316667 89.15 0.516667 89.15 0.79C89.15 1.05 89.0767 1.24333 88.93 1.37C88.7833 1.50333 88.6167 1.57 88.43 1.57C88.2233 1.57 88.05 1.50333 87.91 1.37C87.77 1.24333 87.7 1.05 87.7 0.79C87.7 0.516667 87.77 0.316667 87.91 0.19C88.05 0.0633334 88.2233 0 88.43 0ZM93.26 10.35L90.24 2.82H91.55L93.18 7.09C93.2733 7.33667 93.36 7.57667 93.44 7.81C93.52 8.04333 93.59 8.27 93.65 8.49C93.7167 8.71 93.77 8.92333 93.81 9.13H93.86C93.92 8.89667 94.01 8.59 94.13 8.21C94.25 7.83667 94.3767 7.45667 94.51 7.07L96.03 2.82H97.36L94.13 11.36C93.95 11.8267 93.7433 12.2333 93.51 12.58C93.27 12.9333 92.98 13.2033 92.64 13.39C92.3 13.5833 91.8867 13.68 91.4 13.68C91.1733 13.68 90.9767 13.6667 90.81 13.64C90.6433 13.62 90.5 13.5967 90.38 13.57V12.59C90.48 12.61 90.6033 12.6267 90.75 12.64C90.8967 12.66 91.0467 12.67 91.2 12.67C91.4933 12.67 91.7433 12.6167 91.95 12.51C92.1633 12.4033 92.3433 12.25 92.49 12.05C92.6433 11.85 92.77 11.6133 92.87 11.34L93.26 10.35ZM101.4 2.69C102.313 2.69 102.99 2.89 103.43 3.29C103.863 3.69 104.08 4.33 104.08 5.21V10.32H103.19L102.95 9.26H102.89C102.677 9.52667 102.457 9.75333 102.23 9.94C102.003 10.12 101.74 10.25 101.44 10.33C101.147 10.4167 100.79 10.46 100.37 10.46C99.9233 10.46 99.52 10.38 99.16 10.22C98.8 10.06 98.52 9.81667 98.32 9.49C98.1133 9.15667 98.01 8.73667 98.01 8.23C98.01 7.48333 98.3033 6.91 98.89 6.51C99.4767 6.10333 100.383 5.88 101.61 5.84L102.88 5.8V5.35C102.88 4.72333 102.743 4.29 102.47 4.05C102.203 3.80333 101.823 3.68 101.33 3.68C100.937 3.68 100.563 3.74 100.21 3.86C99.85 3.97333 99.5167 4.10667 99.21 4.26L98.83 3.33C99.1567 3.15667 99.5467 3.00667 100 2.88C100.447 2.75333 100.913 2.69 101.4 2.69ZM102.87 6.65L101.76 6.69C100.827 6.73 100.18 6.88 99.82 7.14C99.46 7.4 99.28 7.77 99.28 8.25C99.28 8.67 99.41 8.97667 99.67 9.17C99.9233 9.37 100.25 9.47 100.65 9.47C101.29 9.47 101.82 9.29333 102.24 8.94C102.66 8.59333 102.87 8.05333 102.87 7.32V6.65Z" fill="black"/>
</svg>
