<svg width="107" height="11" viewBox="0 0 107 11" fill="none" xmlns="http://www.w3.org/2000/svg">
<path d="M8.42 0.64V10.64H6.95L1.6 2.34H1.55C1.57 2.66667 1.59333 3.07333 1.62 3.56C1.64667 4.04 1.66 4.53667 1.66 5.05V10.64H0.5V0.64H1.95L7.29 8.92H7.34C7.33333 8.76667 7.32333 8.54333 7.31 8.25C7.29667 7.95 7.28333 7.62333 7.27 7.27C7.25667 6.91 7.25 6.58333 7.25 6.29V0.64H8.42ZM17.49 6.87C17.49 8.11667 17.1767 9.08 16.55 9.76C15.9167 10.44 15.0633 10.78 13.99 10.78C13.33 10.78 12.74 10.63 12.22 10.33C11.7067 10.0233 11.3 9.58 11 9C10.7 8.41333 10.55 7.70333 10.55 6.87C10.55 5.63 10.8633 4.67333 11.49 4C12.1167 3.33333 12.9667 3 14.04 3C14.72 3 15.32 3.15 15.84 3.45C16.3533 3.75667 16.7567 4.19667 17.05 4.77C17.3433 5.34333 17.49 6.04333 17.49 6.87ZM11.82 6.87C11.82 7.75667 11.9967 8.46 12.35 8.98C12.6967 9.5 13.2533 9.76 14.02 9.76C14.78 9.76 15.3367 9.5 15.69 8.98C16.0433 8.46 16.22 7.75667 16.22 6.87C16.22 5.98333 16.0433 5.29 15.69 4.79C15.3367 4.28333 14.7767 4.03 14.01 4.03C13.2433 4.03 12.6867 4.28333 12.34 4.79C11.9933 5.29 11.82 5.98333 11.82 6.87ZM21.95 9.77C22.1367 9.77 22.3267 9.75333 22.52 9.72C22.7133 9.68667 22.8733 9.65333 23 9.62V10.56C22.8667 10.62 22.68 10.6733 22.44 10.72C22.1933 10.76 21.96 10.78 21.74 10.78C21.3467 10.78 20.9833 10.7133 20.65 10.58C20.3167 10.44 20.05 10.2033 19.85 9.87C19.6433 9.53667 19.54 9.06667 19.54 8.46V4.09H18.47V3.5L19.55 3.01L20.04 1.41H20.77V3.14H22.94V4.09H20.77V8.43C20.77 8.88333 20.88 9.22 21.1 9.44C21.32 9.66 21.6033 9.77 21.95 9.77ZM31.02 6.87C31.02 8.11667 30.7033 9.08 30.07 9.76C29.4433 10.44 28.5933 10.78 27.52 10.78C26.8533 10.78 26.2633 10.63 25.75 10.33C25.23 10.0233 24.82 9.58 24.52 9C24.22 8.41333 24.07 7.70333 24.07 6.87C24.07 5.63 24.3833 4.67333 25.01 4C25.6367 3.33333 26.4867 3 27.56 3C28.24 3 28.84 3.15 29.36 3.45C29.88 3.75667 30.2867 4.19667 30.58 4.77C30.8733 5.34333 31.02 6.04333 31.02 6.87ZM25.35 6.87C25.35 7.75667 25.5233 8.46 25.87 8.98C26.2233 9.5 26.7833 9.76 27.55 9.76C28.3033 9.76 28.8567 9.5 29.21 8.98C29.5633 8.46 29.74 7.75667 29.74 6.87C29.74 5.98333 29.5633 5.29 29.21 4.79C28.8567 4.28333 28.2967 4.03 27.53 4.03C26.7633 4.03 26.21 4.28333 25.87 4.79C25.5233 5.29 25.35 5.98333 25.35 6.87ZM42.57 7.97C42.57 8.85667 42.2467 9.54667 41.6 10.04C40.96 10.5333 40.0933 10.78 39 10.78C38.44 10.78 37.92 10.7367 37.44 10.65C36.9667 10.57 36.57 10.4533 36.25 10.3V9.1C36.59 9.24667 37.01 9.38333 37.51 9.51C38.01 9.63 38.5233 9.69 39.05 9.69C39.7967 9.69 40.36 9.54333 40.74 9.25C41.12 8.96333 41.31 8.57333 41.31 8.08C41.31 7.75333 41.24 7.47667 41.1 7.25C40.96 7.03 40.72 6.82333 40.38 6.63C40.04 6.43667 39.5667 6.23333 38.96 6.02C38.1067 5.71333 37.4633 5.33667 37.03 4.89C36.5967 4.43667 36.38 3.82333 36.38 3.05C36.38 2.51667 36.5167 2.06333 36.79 1.69C37.0567 1.31 37.43 1.01667 37.91 0.81C38.39 0.603333 38.9433 0.5 39.57 0.5C40.1233 0.5 40.6267 0.553333 41.08 0.66C41.54 0.76 41.9567 0.893333 42.33 1.06L41.94 2.14C41.5933 1.99333 41.2167 1.86667 40.81 1.76C40.4033 1.66 39.98 1.61 39.54 1.61C38.92 1.61 38.45 1.74333 38.13 2.01C37.81 2.27667 37.65 2.63 37.65 3.07C37.65 3.40333 37.72 3.68333 37.86 3.91C38 4.13 38.23 4.33 38.55 4.51C38.87 4.68333 39.3 4.87333 39.84 5.08C40.4267 5.29333 40.9233 5.52333 41.33 5.77C41.7367 6.02333 42.0433 6.32 42.25 6.66C42.4633 7.00667 42.57 7.44333 42.57 7.97ZM47.26 3.01C48.1733 3.01 48.85 3.21 49.29 3.61C49.73 4.01 49.95 4.65 49.95 5.53V10.64H49.05L48.81 9.58H48.76C48.4333 9.98667 48.09 10.29 47.73 10.49C47.37 10.6833 46.8733 10.78 46.24 10.78C45.5533 10.78 44.9867 10.6 44.54 10.24C44.0933 9.88 43.87 9.31667 43.87 8.55C43.87 7.80333 44.1633 7.23 44.75 6.83C45.3367 6.42333 46.2433 6.2 47.47 6.16L48.74 6.12V5.67C48.74 5.04333 48.6067 4.61 48.34 4.37C48.0667 4.12333 47.6833 4 47.19 4C46.7967 4 46.4233 4.06 46.07 4.18C45.7167 4.29333 45.3833 4.42667 45.07 4.58L44.7 3.65C45.0267 3.47667 45.4133 3.32667 45.86 3.2C46.3067 3.07333 46.7733 3.01 47.26 3.01ZM48.73 6.97L47.62 7.01C46.6867 7.05 46.04 7.2 45.68 7.46C45.32 7.72 45.14 8.09 45.14 8.57C45.14 8.99 45.27 9.29667 45.53 9.49C45.7833 9.69 46.1133 9.79 46.52 9.79C47.1533 9.79 47.68 9.61333 48.1 9.26C48.52 8.91333 48.73 8.37333 48.73 7.64V6.97ZM55.88 3C56.78 3 57.4567 3.21667 57.91 3.65C58.37 4.08333 58.6 4.78333 58.6 5.75V10.64H57.38V5.84C57.38 4.63333 56.82 4.03 55.7 4.03C54.8667 4.03 54.2933 4.26333 53.98 4.73C53.66 5.19667 53.5 5.87 53.5 6.75V10.64H52.27V3.14H53.26L53.45 4.16H53.52C53.76 3.76667 54.0933 3.47333 54.52 3.28C54.9533 3.09333 55.4067 3 55.88 3ZM65.81 8.57C65.81 9.29667 65.54 9.84667 65 10.22C64.4533 10.5933 63.7233 10.78 62.81 10.78C62.29 10.78 61.84 10.7367 61.46 10.65C61.08 10.57 60.7467 10.4533 60.46 10.3V9.18C60.76 9.33333 61.1233 9.47333 61.55 9.6C61.97 9.72667 62.4 9.79 62.84 9.79C63.4667 9.79 63.92 9.69 64.2 9.49C64.48 9.28333 64.62 9.01333 64.62 8.68C64.62 8.49333 64.5667 8.32667 64.46 8.18C64.36 8.02667 64.1767 7.87667 63.91 7.73C63.6433 7.57667 63.2633 7.40667 62.77 7.22C62.2833 7.03333 61.8667 6.84667 61.52 6.66C61.18 6.47333 60.9167 6.25 60.73 5.99C60.5433 5.73 60.45 5.39333 60.45 4.98C60.45 4.34667 60.7067 3.85667 61.22 3.51C61.74 3.17 62.42 3 63.26 3C63.72 3 64.1467 3.04333 64.54 3.13C64.94 3.21667 65.31 3.34 65.65 3.5L65.23 4.48C64.9167 4.34667 64.5867 4.23333 64.24 4.14C63.8933 4.04667 63.54 4 63.18 4C62.6733 4 62.2867 4.08333 62.02 4.25C61.7533 4.41 61.62 4.63 61.62 4.91C61.62 5.11667 61.68 5.29333 61.8 5.44C61.9267 5.58667 62.13 5.72667 62.41 5.86C62.6967 5.99333 63.0767 6.15333 63.55 6.34C64.03 6.52 64.4367 6.70333 64.77 6.89C65.11 7.07667 65.3667 7.30333 65.54 7.57C65.72 7.83667 65.81 8.17 65.81 8.57ZM74.75 5L78.87 10.64H77.39L73.84 5.87L72.82 6.76V10.64H71.56V0.64H72.82V5.57C73.1 5.25667 73.3867 4.94 73.68 4.62C73.9667 4.3 74.2533 3.98333 74.54 3.67L77.25 0.64H78.72L74.75 5ZM82.9 3.01C83.8133 3.01 84.49 3.21 84.93 3.61C85.37 4.01 85.59 4.65 85.59 5.53V10.64H84.69L84.46 9.58H84.4C84.0733 9.98667 83.73 10.29 83.37 10.49C83.01 10.6833 82.5133 10.78 81.88 10.78C81.2 10.78 80.6367 10.6 80.19 10.24C79.7367 9.88 79.51 9.31667 79.51 8.55C79.51 7.80333 79.8067 7.23 80.4 6.83C80.9867 6.42333 81.89 6.2 83.11 6.16L84.39 6.12V5.67C84.39 5.04333 84.2533 4.61 83.98 4.37C83.7067 4.12333 83.3233 4 82.83 4C82.4367 4 82.0633 4.06 81.71 4.18C81.3567 4.29333 81.0267 4.42667 80.72 4.58L80.34 3.65C80.6667 3.47667 81.0533 3.32667 81.5 3.2C81.9467 3.07333 82.4133 3.01 82.9 3.01ZM84.37 6.97L83.27 7.01C82.3367 7.05 81.69 7.2 81.33 7.46C80.97 7.72 80.79 8.09 80.79 8.57C80.79 8.99 80.9167 9.29667 81.17 9.49C81.43 9.69 81.76 9.79 82.16 9.79C82.7933 9.79 83.32 9.61333 83.74 9.26C84.16 8.91333 84.37 8.37333 84.37 7.64V6.97ZM88.54 0.32C88.7267 0.32 88.8933 0.383333 89.04 0.51C89.1867 0.636666 89.26 0.836666 89.26 1.11C89.26 1.37 89.1867 1.56333 89.04 1.69C88.8933 1.82333 88.7267 1.89 88.54 1.89C88.34 1.89 88.17 1.82333 88.03 1.69C87.89 1.56333 87.82 1.37 87.82 1.11C87.82 0.836666 87.89 0.636666 88.03 0.51C88.17 0.383333 88.34 0.32 88.54 0.32ZM87.91 3.14H89.15V10.64H87.91V3.14ZM94.03 9.77C94.2167 9.77 94.41 9.75333 94.61 9.72C94.8033 9.68667 94.96 9.65333 95.08 9.62V10.56C94.9533 10.62 94.7667 10.6733 94.52 10.72C94.28 10.76 94.0467 10.78 93.82 10.78C93.4267 10.78 93.0667 10.7133 92.74 10.58C92.4067 10.44 92.1367 10.2033 91.93 9.87C91.7233 9.53667 91.62 9.06667 91.62 8.46V4.09H90.56V3.5L91.64 3.01L92.13 1.41H92.86V3.14H95.03V4.09H92.86V8.43C92.86 8.88333 92.97 9.22 93.19 9.44C93.4033 9.66 93.6833 9.77 94.03 9.77ZM97.81 0V3.12C97.81 3.49333 97.7867 3.84333 97.74 4.17H97.83C98.07 3.79 98.3967 3.5 98.81 3.3C99.23 3.10667 99.68 3.01 100.16 3.01C101.08 3.01 101.767 3.22667 102.22 3.66C102.68 4.09333 102.91 4.79 102.91 5.75V10.64H101.69V5.84C101.69 4.63333 101.13 4.03 100.01 4.03C99.17 4.03 98.5933 4.26667 98.28 4.74C97.9667 5.21333 97.81 5.88667 97.81 6.76V10.64H96.58V0H97.81ZM105.86 0.32C106.047 0.32 106.213 0.383333 106.36 0.51C106.507 0.636666 106.58 0.836666 106.58 1.11C106.58 1.37 106.507 1.56333 106.36 1.69C106.213 1.82333 106.047 1.89 105.86 1.89C105.653 1.89 105.48 1.82333 105.34 1.69C105.2 1.56333 105.13 1.37 105.13 1.11C105.13 0.836666 105.2 0.636666 105.34 0.51C105.48 0.383333 105.653 0.32 105.86 0.32ZM105.23 3.14H106.46V10.64H105.23V3.14Z" fill="black"/>
</svg>
