<svg width="130" height="11" viewBox="0 0 130 11" fill="none" xmlns="http://www.w3.org/2000/svg">
<path d="M4.02 10.78H0.5V10.19H0.68C0.9 10.19 1.09333 10.1667 1.26 10.12C1.43333 10.0733 1.57333 9.97667 1.68 9.83C1.78 9.69 1.83 9.47333 1.83 9.18V2.32C1.83 2.04 1.77667 1.83333 1.67 1.7C1.56333 1.56667 1.42333 1.47667 1.25 1.43C1.07667 1.39 0.886667 1.37 0.68 1.37H0.5V0.78H3.06L8.08 8.53V2.32C8.08 2.04 8.02667 1.83333 7.92 1.7C7.80667 1.56667 7.66667 1.47667 7.5 1.43C7.32667 1.39 7.13667 1.37 6.93 1.37H6.75V0.78H10.26V1.37H10.08C9.87333 1.37 9.68 1.39333 9.5 1.44C9.32667 1.48667 9.18667 1.58 9.08 1.72C8.98 1.86 8.93 2.08 8.93 2.38V10.78H7.94L2.69 2.72V9.18C2.69 9.47333 2.74 9.69 2.84 9.83C2.94 9.97667 3.08 10.0733 3.26 10.12C3.44 10.1667 3.63 10.19 3.83 10.19H4.02V10.78ZM14.67 10.92C13.6633 10.92 12.87 10.5967 12.29 9.95C11.71 9.31 11.42 8.33 11.42 7.01C11.42 5.70333 11.7 4.73 12.26 4.09C12.8133 3.45667 13.63 3.14 14.71 3.14C15.7167 3.14 16.51 3.45667 17.09 4.09C17.67 4.73 17.96 5.70333 17.96 7.01C17.96 8.33 17.6833 9.31 17.13 9.95C16.57 10.5967 15.75 10.92 14.67 10.92ZM14.7 10.19C15.1667 10.19 15.54 10.07 15.82 9.83C16.1 9.59667 16.3 9.24 16.42 8.76C16.54 8.28667 16.6 7.70333 16.6 7.01C16.6 5.97 16.4567 5.18667 16.17 4.66C15.8767 4.14 15.38 3.88 14.68 3.88C13.98 3.88 13.49 4.14 13.21 4.66C12.9233 5.18667 12.78 5.97 12.78 7.01C12.78 8.05667 12.9233 8.85 13.21 9.39C13.5033 9.92333 14 10.19 14.7 10.19ZM22.09 10.92C21.3833 10.92 20.8667 10.76 20.54 10.44C20.22 10.1133 20.06 9.55 20.06 8.75V4.07H19V3.51C19.1667 3.51 19.3533 3.47667 19.56 3.41C19.76 3.33667 19.9367 3.22333 20.09 3.07C20.25 2.89667 20.38 2.69 20.48 2.45C20.58 2.21 20.6633 1.91 20.73 1.55H21.38V3.28H23.21V4.07H21.38V8.79C21.38 9.27 21.4767 9.62 21.67 9.84C21.8633 10.0667 22.12 10.18 22.44 10.18C22.6067 10.18 22.76 10.17 22.9 10.15C23.04 10.13 23.1867 10.1067 23.34 10.08V10.7C23.2133 10.7533 23.03 10.8033 22.79 10.85C22.55 10.8967 22.3167 10.92 22.09 10.92ZM27.68 10.92C26.6667 10.92 25.8733 10.5967 25.3 9.95C24.72 9.31 24.43 8.33 24.43 7.01C24.43 5.70333 24.7067 4.73 25.26 4.09C25.8133 3.45667 26.6333 3.14 27.72 3.14C28.7267 3.14 29.52 3.45667 30.1 4.09C30.68 4.73 30.97 5.70333 30.97 7.01C30.97 8.33 30.69 9.31 30.13 9.95C29.5767 10.5967 28.76 10.92 27.68 10.92ZM27.7 10.19C28.1667 10.19 28.54 10.07 28.82 9.83C29.1 9.59667 29.3033 9.24 29.43 8.76C29.55 8.28667 29.61 7.70333 29.61 7.01C29.61 5.97 29.4633 5.18667 29.17 4.66C28.8833 4.14 28.39 3.88 27.69 3.88C26.99 3.88 26.4967 4.14 26.21 4.66C25.93 5.18667 25.79 5.97 25.79 7.01C25.79 8.05667 25.9333 8.85 26.22 9.39C26.5067 9.92333 27 10.19 27.7 10.19ZM38.44 10.92C37.9867 10.92 37.5833 10.8733 37.23 10.78C36.8833 10.6867 36.5933 10.55 36.36 10.37C36.1267 10.1967 35.95 9.98667 35.83 9.74C35.7167 9.5 35.66 9.23667 35.66 8.95C35.66 8.76333 35.6967 8.6 35.77 8.46C35.85 8.32 35.9667 8.21 36.12 8.13C36.2667 8.05 36.4467 8.01 36.66 8.01C36.68 8.39 36.7567 8.75 36.89 9.09C37.0167 9.43 37.2167 9.70667 37.49 9.92C37.7633 10.1267 38.1167 10.23 38.55 10.23C39.1767 10.23 39.6667 10.08 40.02 9.78C40.38 9.47333 40.56 9.03667 40.56 8.47C40.56 8.12333 40.49 7.83 40.35 7.59C40.2167 7.35667 39.9933 7.13667 39.68 6.93C39.3667 6.72333 38.9367 6.51 38.39 6.29C37.81 6.04333 37.3267 5.78 36.94 5.5C36.56 5.22 36.2767 4.89 36.09 4.51C35.9033 4.13667 35.81 3.69333 35.81 3.18C35.81 2.64667 35.9433 2.19 36.21 1.81C36.4767 1.43667 36.84 1.14667 37.3 0.94C37.76 0.74 38.2867 0.64 38.88 0.64C39.44 0.64 39.9133 0.716667 40.3 0.87C40.6867 1.01667 40.9833 1.21 41.19 1.45C41.39 1.69 41.49 1.94333 41.49 2.21C41.49 2.51 41.39 2.73667 41.19 2.89C40.99 3.04333 40.7233 3.12 40.39 3.12C40.39 2.83333 40.34 2.55333 40.24 2.28C40.14 2.01333 39.9767 1.79 39.75 1.61C39.5233 1.43 39.2133 1.34 38.82 1.34C38.28 1.34 37.86 1.48667 37.56 1.78C37.26 2.06667 37.11 2.45333 37.11 2.94C37.11 3.31333 37.1767 3.63 37.31 3.89C37.45 4.14333 37.6767 4.37 37.99 4.57C38.31 4.77 38.74 4.98333 39.28 5.21C39.8333 5.43 40.3033 5.67333 40.69 5.94C41.0767 6.20667 41.3733 6.51333 41.58 6.86C41.7867 7.20667 41.89 7.62333 41.89 8.11C41.89 8.70333 41.75 9.21 41.47 9.63C41.19 10.0433 40.79 10.36 40.27 10.58C39.75 10.8067 39.14 10.92 38.44 10.92ZM46.62 10.92C45.6 10.92 44.8033 10.5833 44.23 9.91C43.6567 9.23667 43.37 8.29333 43.37 7.08C43.37 5.77333 43.64 4.79 44.18 4.13C44.72 3.47 45.4867 3.14 46.48 3.14C47.3867 3.14 48.0967 3.42 48.61 3.98C49.13 4.54 49.39 5.37333 49.39 6.48V7.13H44.73C44.75 8.14333 44.9333 8.88 45.28 9.34C45.6333 9.80667 46.1433 10.04 46.81 10.04C47.2967 10.04 47.71 9.94 48.05 9.74C48.39 9.54 48.6467 9.31333 48.82 9.06C48.88 9.08667 48.94 9.14333 49 9.23C49.0533 9.31 49.08 9.41 49.08 9.53C49.08 9.71667 48.9933 9.92 48.82 10.14C48.64 10.3533 48.3667 10.5367 48 10.69C47.64 10.8433 47.18 10.92 46.62 10.92ZM44.76 6.37H47.98C47.98 5.62333 47.8633 5.02333 47.63 4.57C47.4033 4.11667 47.01 3.89 46.45 3.89C45.9367 3.89 45.5367 4.10333 45.25 4.53C44.97 4.95667 44.8067 5.57 44.76 6.37ZM54.6 10.78H50.55V10.19H50.59C50.81 10.19 51.0033 10.1667 51.17 10.12C51.3433 10.0733 51.4833 9.97667 51.59 9.83C51.69 9.69 51.74 9.47333 51.74 9.18V4.82C51.74 4.54 51.6867 4.33 51.58 4.19C51.4733 4.05667 51.3333 3.97 51.16 3.93C50.9867 3.88333 50.7967 3.86 50.59 3.86H50.55V3.28H52.71L52.97 4.66H53.04C53.1667 4.38 53.3 4.12333 53.44 3.89C53.58 3.65667 53.7667 3.47333 54 3.34C54.2333 3.20667 54.5533 3.14 54.96 3.14C55.4733 3.14 55.8533 3.22667 56.1 3.4C56.3467 3.58 56.47 3.83333 56.47 4.16C56.47 4.44667 56.37 4.68333 56.17 4.87C55.97 5.05667 55.6367 5.15 55.17 5.15C55.17 4.77 55.1133 4.49333 55 4.32C54.8933 4.14667 54.7033 4.06 54.43 4.06C54.17 4.06 53.95 4.16333 53.77 4.37C53.5967 4.57667 53.4567 4.83667 53.35 5.15C53.25 5.47 53.1767 5.8 53.13 6.14C53.0833 6.48 53.06 6.78667 53.06 7.06V9.25C53.06 9.52333 53.1133 9.72667 53.22 9.86C53.3267 10 53.4667 10.09 53.64 10.13C53.8133 10.17 54.0033 10.19 54.21 10.19H54.6V10.78ZM60.98 10.78H57.01V10.19H57.19C57.3967 10.19 57.5833 10.17 57.75 10.13C57.9233 10.09 58.0633 10 58.17 9.86C58.2833 9.72667 58.34 9.52333 58.34 9.25V4.82C58.34 4.54 58.2833 4.33 58.17 4.19C58.0633 4.05667 57.9233 3.97 57.75 3.93C57.5833 3.88333 57.3967 3.86 57.19 3.86H57.15V3.28H59.65V9.18C59.65 9.47333 59.7033 9.69 59.81 9.83C59.91 9.97667 60.05 10.0733 60.23 10.12C60.4033 10.1667 60.5933 10.19 60.8 10.19H60.98V10.78ZM58.94 1.88C58.7133 1.88 58.5233 1.81333 58.37 1.68C58.2167 1.54667 58.14 1.32333 58.14 1.01C58.14 0.683334 58.2167 0.456667 58.37 0.33C58.5233 0.203334 58.7133 0.14 58.94 0.14C59.1533 0.14 59.34 0.203334 59.5 0.33C59.66 0.456667 59.74 0.683334 59.74 1.01C59.74 1.32333 59.66 1.54667 59.5 1.68C59.34 1.81333 59.1533 1.88 58.94 1.88ZM65.87 10.78H61.54V10.19H61.72C61.94 10.19 62.1367 10.1667 62.31 10.12C62.4767 10.0733 62.6133 9.97667 62.72 9.83C62.82 9.69 62.87 9.47333 62.87 9.18V3.93H61.6V3.28H62.87V2.58C62.87 1.74667 63.0933 1.10667 63.54 0.66C63.98 0.22 64.5833 0 65.35 0C65.8367 0 66.22 0.0433334 66.5 0.13C66.7867 0.21 66.9933 0.323334 67.12 0.47C67.2467 0.616667 67.31 0.786667 67.31 0.98C67.31 1.14667 67.26 1.29 67.16 1.41C67.0667 1.52333 66.9333 1.61 66.76 1.67C66.5867 1.73 66.3867 1.76 66.16 1.76C66.16 1.57333 66.1333 1.39667 66.08 1.23C66.02 1.05667 65.9267 0.916667 65.8 0.81C65.6667 0.696667 65.48 0.64 65.24 0.64C64.84 0.64 64.5633 0.796667 64.41 1.11C64.2633 1.41667 64.19 1.86333 64.19 2.45V3.28H66.16V3.93H64.19V9.18C64.19 9.47333 64.24 9.69 64.34 9.83C64.4467 9.97667 64.5867 10.0733 64.76 10.12C64.94 10.1667 65.1333 10.19 65.34 10.19H65.87V10.78ZM74.18 10.78H70.11V10.19H70.29C70.4967 10.19 70.6867 10.17 70.86 10.13C71.0333 10.09 71.1733 10 71.28 9.86C71.3867 9.72667 71.44 9.52333 71.44 9.25V2.32C71.44 2.04 71.3867 1.83333 71.28 1.7C71.1733 1.56667 71.0333 1.47667 70.86 1.43C70.6867 1.39 70.4967 1.37 70.29 1.37H70.11V0.78H74.18V1.37H74C73.7933 1.37 73.6033 1.39333 73.43 1.44C73.25 1.48667 73.11 1.58 73.01 1.72C72.9033 1.86 72.85 2.08 72.85 2.38V6.33L75.75 3.01C75.9567 2.77667 76.1133 2.57667 76.22 2.41C76.3267 2.24333 76.4033 2.09667 76.45 1.97C76.4967 1.85 76.52 1.75 76.52 1.67C76.52 1.54333 76.4633 1.46 76.35 1.42C76.2433 1.38 76.0733 1.36 75.84 1.36V0.78H78.93V1.36C78.7167 1.36 78.5133 1.41333 78.32 1.52C78.1267 1.62667 77.93 1.77667 77.73 1.97C77.5233 2.17 77.2967 2.40333 77.05 2.67L75.02 4.96L77.98 9.07C78.1533 9.31667 78.3267 9.52333 78.5 9.69C78.6667 9.85667 78.8367 9.98333 79.01 10.07C79.1833 10.15 79.3533 10.19 79.52 10.19H79.55V10.78H79.39C78.9233 10.78 78.54 10.76 78.24 10.72C77.9333 10.6867 77.68 10.6233 77.48 10.53C77.28 10.4367 77.1033 10.3067 76.95 10.14C76.7967 9.98 76.63 9.77333 76.45 9.52L74.04 6.06L72.85 7.24V9.18C72.85 9.47333 72.9033 9.69 73.01 9.83C73.11 9.97667 73.25 10.0733 73.43 10.12C73.6033 10.1667 73.7933 10.19 74 10.19H74.18V10.78ZM82.25 10.92C81.8367 10.92 81.4667 10.8367 81.14 10.67C80.8067 10.51 80.5467 10.2633 80.36 9.93C80.1733 9.60333 80.08 9.18667 80.08 8.68C80.08 7.93333 80.3433 7.38333 80.87 7.03C81.3967 6.67667 82.1967 6.48 83.27 6.44L84.43 6.4V5.56C84.43 5.22 84.4033 4.92333 84.35 4.67C84.29 4.41 84.1667 4.20667 83.98 4.06C83.7933 3.91333 83.51 3.84 83.13 3.84C82.7767 3.84 82.5067 3.90333 82.32 4.03C82.1333 4.16333 82.01 4.34333 81.95 4.57C81.89 4.79667 81.86 5.06 81.86 5.36C81.4667 5.36 81.17 5.29333 80.97 5.16C80.77 5.02667 80.67 4.8 80.67 4.48C80.67 4.15333 80.7833 3.89333 81.01 3.7C81.2367 3.5 81.5433 3.35667 81.93 3.27C82.31 3.18333 82.73 3.14 83.19 3.14C84.0433 3.14 84.6833 3.32 85.11 3.68C85.5367 4.04667 85.75 4.67333 85.75 5.56V9.18C85.75 9.44667 85.7767 9.65 85.83 9.79C85.89 9.93667 85.9833 10.04 86.11 10.1C86.2433 10.16 86.4133 10.19 86.62 10.19H86.66V10.78H84.77L84.54 9.58H84.43C84.2367 9.84 84.0467 10.07 83.86 10.27C83.6733 10.47 83.4567 10.6267 83.21 10.74C82.9633 10.86 82.6433 10.92 82.25 10.92ZM82.57 10.05C82.95 10.05 83.28 9.97 83.56 9.81C83.8333 9.65667 84.0467 9.43333 84.2 9.14C84.3533 8.84 84.43 8.49667 84.43 8.11V6.97L83.54 7.01C83.0067 7.03 82.5867 7.11 82.28 7.25C81.98 7.39 81.7633 7.58333 81.63 7.83C81.5033 8.07667 81.44 8.38333 81.44 8.75C81.44 9.03667 81.48 9.27667 81.56 9.47C81.6467 9.66333 81.7733 9.81 81.94 9.91C82.1067 10.0033 82.3167 10.05 82.57 10.05ZM91.42 10.78H87.65V10.19H87.76C87.98 10.19 88.1767 10.1667 88.35 10.12C88.5167 10.0733 88.6533 9.97667 88.76 9.83C88.86 9.69 88.91 9.47333 88.91 9.18V4.82C88.91 4.54 88.86 4.33 88.76 4.19C88.6533 4.05667 88.5167 3.97 88.35 3.93C88.1833 3.88333 87.9967 3.86 87.79 3.86H87.72V3.28H89.99L90.17 4.41H90.24C90.44 4.05667 90.65 3.78667 90.87 3.6C91.0833 3.42 91.3233 3.29667 91.59 3.23C91.85 3.17 92.13 3.14 92.43 3.14C93.1633 3.14 93.74 3.35667 94.16 3.79C94.5733 4.22333 94.78 4.92 94.78 5.88V9.18C94.78 9.47333 94.8233 9.69 94.91 9.83C94.9967 9.97667 95.12 10.0733 95.28 10.12C95.44 10.1667 95.6233 10.19 95.83 10.19H95.9V10.78H93.46V5.95C93.46 5.34333 93.3467 4.87333 93.12 4.54C92.8933 4.2 92.4933 4.03 91.92 4.03C91.5 4.03 91.1667 4.13667 90.92 4.35C90.6733 4.55667 90.4967 4.83333 90.39 5.18C90.2833 5.52667 90.23 5.9 90.23 6.3V9.25C90.23 9.52333 90.28 9.72667 90.38 9.86C90.4867 10 90.6233 10.09 90.79 10.13C90.9567 10.17 91.1433 10.19 91.35 10.19H91.42V10.78ZM100.45 10.78H96.68V10.19H96.79C97.01 10.19 97.2067 10.1667 97.38 10.12C97.5467 10.0733 97.6833 9.97667 97.79 9.83C97.89 9.69 97.94 9.47333 97.94 9.18V4.82C97.94 4.54 97.89 4.33 97.79 4.19C97.6833 4.05667 97.5467 3.97 97.38 3.93C97.2133 3.88333 97.0267 3.86 96.82 3.86H96.75V3.28H99.02L99.2 4.41H99.27C99.47 4.05667 99.68 3.78667 99.9 3.6C100.113 3.42 100.353 3.29667 100.62 3.23C100.88 3.17 101.16 3.14 101.46 3.14C102.193 3.14 102.77 3.35667 103.19 3.79C103.603 4.22333 103.81 4.92 103.81 5.88V9.18C103.81 9.47333 103.853 9.69 103.94 9.83C104.027 9.97667 104.15 10.0733 104.31 10.12C104.47 10.1667 104.653 10.19 104.86 10.19H104.93V10.78H102.49V5.95C102.49 5.34333 102.377 4.87333 102.15 4.54C101.923 4.2 101.523 4.03 100.95 4.03C100.53 4.03 100.197 4.13667 99.95 4.35C99.7033 4.55667 99.5267 4.83333 99.42 5.18C99.3133 5.52667 99.26 5.9 99.26 6.3V9.25C99.26 9.52333 99.31 9.72667 99.41 9.86C99.5167 10 99.6533 10.09 99.82 10.13C99.9867 10.17 100.173 10.19 100.38 10.19H100.45V10.78ZM108.19 10.92C107.777 10.92 107.407 10.8367 107.08 10.67C106.747 10.51 106.487 10.2633 106.3 9.93C106.113 9.60333 106.02 9.18667 106.02 8.68C106.02 7.93333 106.283 7.38333 106.81 7.03C107.337 6.67667 108.137 6.48 109.21 6.44L110.37 6.4V5.56C110.37 5.22 110.343 4.92333 110.29 4.67C110.237 4.41 110.117 4.20667 109.93 4.06C109.743 3.91333 109.457 3.84 109.07 3.84C108.717 3.84 108.447 3.90333 108.26 4.03C108.073 4.16333 107.95 4.34333 107.89 4.57C107.83 4.79667 107.8 5.06 107.8 5.36C107.407 5.36 107.11 5.29333 106.91 5.16C106.71 5.02667 106.61 4.8 106.61 4.48C106.61 4.15333 106.723 3.89333 106.95 3.7C107.177 3.5 107.483 3.35667 107.87 3.27C108.25 3.18333 108.67 3.14 109.13 3.14C109.99 3.14 110.63 3.32 111.05 3.68C111.477 4.04667 111.69 4.67333 111.69 5.56V9.18C111.69 9.44667 111.717 9.65 111.77 9.79C111.83 9.93667 111.923 10.04 112.05 10.1C112.183 10.16 112.353 10.19 112.56 10.19H112.6V10.78H110.71L110.49 9.58H110.37C110.177 9.84 109.987 10.07 109.8 10.27C109.613 10.47 109.397 10.6267 109.15 10.74C108.903 10.86 108.583 10.92 108.19 10.92ZM108.51 10.05C108.897 10.05 109.227 9.97 109.5 9.81C109.773 9.65667 109.987 9.43333 110.14 9.14C110.293 8.84 110.37 8.49667 110.37 8.11V6.97L109.48 7.01C108.947 7.03 108.53 7.11 108.23 7.25C107.923 7.39 107.703 7.58333 107.57 7.83C107.443 8.07667 107.38 8.38333 107.38 8.75C107.38 9.03667 107.42 9.27667 107.5 9.47C107.587 9.66333 107.713 9.81 107.88 9.91C108.047 10.0033 108.257 10.05 108.51 10.05ZM116.83 10.92C115.903 10.92 115.197 10.61 114.71 9.99C114.217 9.37 113.97 8.38667 113.97 7.04C113.97 5.68667 114.217 4.69667 114.71 4.07C115.197 3.45 115.903 3.14 116.83 3.14C117.37 3.14 117.81 3.25333 118.15 3.48C118.49 3.70667 118.763 4.00333 118.97 4.37H119.05C119.023 4.13667 119.003 3.87667 118.99 3.59C118.977 3.30333 118.97 3.05 118.97 2.83V1.68C118.97 1.4 118.917 1.19333 118.81 1.06C118.703 0.92 118.563 0.83 118.39 0.79C118.217 0.75 118.027 0.73 117.82 0.73H117.71V0.14H120.29V9.24C120.29 9.51333 120.343 9.72 120.45 9.86C120.557 10 120.697 10.09 120.87 10.13C121.043 10.17 121.23 10.19 121.43 10.19H121.55V10.78H119.18L119.03 9.52H118.97C118.763 9.94667 118.493 10.2867 118.16 10.54C117.82 10.7933 117.377 10.92 116.83 10.92ZM117.07 10.02C117.797 10.02 118.293 9.77667 118.56 9.29C118.833 8.79667 118.97 8.04667 118.97 7.04C118.97 6.07333 118.833 5.33 118.56 4.81C118.293 4.29 117.79 4.03 117.05 4.03C116.437 4.03 115.997 4.29 115.73 4.81C115.463 5.33 115.33 6.08 115.33 7.06C115.33 8.04667 115.463 8.78667 115.73 9.28C115.997 9.77333 116.443 10.02 117.07 10.02ZM124.67 10.92C124.257 10.92 123.887 10.8367 123.56 10.67C123.227 10.51 122.967 10.2633 122.78 9.93C122.593 9.60333 122.5 9.18667 122.5 8.68C122.5 7.93333 122.763 7.38333 123.29 7.03C123.817 6.67667 124.617 6.48 125.69 6.44L126.85 6.4V5.56C126.85 5.22 126.823 4.92333 126.77 4.67C126.71 4.41 126.587 4.20667 126.4 4.06C126.213 3.91333 125.93 3.84 125.55 3.84C125.197 3.84 124.927 3.90333 124.74 4.03C124.553 4.16333 124.43 4.34333 124.37 4.57C124.31 4.79667 124.28 5.06 124.28 5.36C123.887 5.36 123.59 5.29333 123.39 5.16C123.19 5.02667 123.09 4.8 123.09 4.48C123.09 4.15333 123.203 3.89333 123.43 3.7C123.657 3.5 123.963 3.35667 124.35 3.27C124.73 3.18333 125.15 3.14 125.61 3.14C126.463 3.14 127.103 3.32 127.53 3.68C127.957 4.04667 128.17 4.67333 128.17 5.56V9.18C128.17 9.44667 128.197 9.65 128.25 9.79C128.31 9.93667 128.403 10.04 128.53 10.1C128.663 10.16 128.833 10.19 129.04 10.19H129.08V10.78H127.19L126.96 9.58H126.85C126.657 9.84 126.467 10.07 126.28 10.27C126.093 10.47 125.877 10.6267 125.63 10.74C125.383 10.86 125.063 10.92 124.67 10.92ZM124.99 10.05C125.37 10.05 125.7 9.97 125.98 9.81C126.253 9.65667 126.467 9.43333 126.62 9.14C126.773 8.84 126.85 8.49667 126.85 8.11V6.97L125.96 7.01C125.427 7.03 125.007 7.11 124.7 7.25C124.4 7.39 124.183 7.58333 124.05 7.83C123.923 8.07667 123.86 8.38333 123.86 8.75C123.86 9.03667 123.9 9.27667 123.98 9.47C124.067 9.66333 124.193 9.81 124.36 9.91C124.527 10.0033 124.737 10.05 124.99 10.05Z" fill="black"/>
</svg>
