<svg width="112.9" height="18.621" viewBox="0 0 112.9 18.621" xmlns="http://www.w3.org/2000/svg"><path transform="translate(0 14.615) scale(.013672 -.013672)" d="m38 0v42h13q34 0 58 12.5t24 59.5v490q0 44-24.5 56t-57.5 12h-13v42h183l358-553v443q0 44-24.5 56t-57.5 12h-13v42h251v-42h-13q-34 0-58-12.5t-24-59.5v-600h-71l-375 576v-462q0-47 24-59.5t58-12.5h13v-42z"/><path transform="translate(10.432 14.615) scale(.013672 -.013672)" d="m287-10q-108 0-170 69t-62 210q0 140 59.5 208.5t175.5 68.5q108 0 170-68.5t62-208.5q0-141-59.5-210t-175.5-69zm2 52q75 0 105.5 57.5t30.5 169.5-31 168-106 56-105.5-56-30.5-168 31-169.5 106-57.5z"/><path transform="translate(18.32 14.615) scale(.013672 -.013672)" d="m240-10q-76 0-110.5 34.5t-34.5 120.5v334h-76v40q18 0 40 7.5t38 24.5q17 18 28 44t18 64h46v-123h131v-57h-131v-337q0-51 21-75t55-24q18 0 33 2t31 5v-44q-13-6-39-11t-50-5z"/><path transform="translate(23.133 14.615) scale(.013672 -.013672)" d="m287-10q-108 0-170 69t-62 210q0 140 59.5 208.5t175.5 68.5q108 0 170-68.5t62-208.5q0-141-59.5-210t-175.5-69zm2 52q75 0 105.5 57.5t30.5 169.5-31 168-106 56-105.5-56-30.5-168 31-169.5 106-57.5z"/><path transform="translate(34.576 14.615) scale(.013672 -.013672)" d="m247-10q-98 0-148.5 39t-50.5 102q0 30 19 48.5t53 18.5q2-41 16-77.5t43-59 76-22.5q67 0 105 32.5t38 93.5q0 37-14.5 62.5t-48 47.5-92.5 46q-93 38-138.5 89t-45.5 133q0 57 28.5 97.5t78 62 112.5 21.5q89 0 138-34t49-78q0-32-21.5-48.5t-57.5-16.5q0 31-10.5 60t-35 48-66.5 19q-58 0-90-31t-32-83q0-40 14.5-67.5t48.5-49 92-45.5q88-36 137-83t49-124q0-95-66.5-148t-179.5-53z"/><path transform="translate(42.014 14.615) scale(.013672 -.013672)" d="m287-10q-109 0-170.5 72t-61.5 202q0 140 58 211t164 71q97 0 152.5-60t55.5-179v-46h-333q2-109 39.5-158.5t109.5-49.5q52 0 88.5 21.5t54.5 48.5q7-3 13-12t6-22q0-20-19-43t-58-39.5-99-16.5zm97 325q0 80-24.5 128.5t-84.5 48.5q-55 0-85.5-45.5t-35.5-131.5z"/><path transform="translate(49.328 14.615) scale(.013672 -.013672)" d="m33 0v42h3q34 0 58 12.5t24 59.5v312q0 44-24.5 56t-57.5 12h-3v42h154l19-99h5q13 30 28 55t40 39.5 69 14.5q55 0 81.5-19t26.5-54q0-31-21.5-51t-71.5-20q0 41-12 59.5t-41 18.5q-28 0-47-22t-30-56-16-70.5-5-65.5v-157q0-44 24.5-55.5t57.5-11.5h28v-42z"/><path transform="translate(55.768 14.615) scale(.013672 -.013672)" d="m23 0v42h13q33 0 57.5 11.5t24.5 55.5v317q0 44-24.5 56t-57.5 12h-3v42h179v-422q0-47 24-59.5t58-12.5h13v-42zm138 636q-24 0-40.5 14t-16.5 48q0 35 16.5 48.5t40.5 13.5q23 0 40-13.5t17-48.5q0-34-17-48t-40-14z"/><path transform="translate(60.143 14.615) scale(.013672 -.013672)" d="m27 0v42h13q34 0 58 12.5t24 59.5v375h-91v47h91v50q0 89 47.5 136.5t129.5 47.5q78 0 109-19.5t31-50.5q0-27-23-41.5t-59-14.5q0 30-14 55t-52 25q-43 0-59-33t-16-96v-59h141v-47h-141v-375q0-47 24-59.5t58-12.5h38v-42z"/><path transform="translate(68.742 14.615) scale(.013672 -.013672)" d="m150 0v42h23q33 0 57.5 11.5t24.5 55.5v555h-96q-44 0-61-24.5t-21-57.5l-5-43h-52l5 175h563l5-175h-52l-5 43q-4 33-21 57.5t-62 24.5h-97v-550q0-47 24-59.5t58-12.5h23v-42z"/><path transform="translate(77.123 14.615) scale(.013672 -.013672)" d="m287-10q-108 0-170 69t-62 210q0 140 59.5 208.5t175.5 68.5q108 0 170-68.5t62-208.5q0-141-59.5-210t-175.5-69zm2 52q75 0 105.5 57.5t30.5 169.5-31 168-106 56-105.5-56-30.5-168 31-169.5 106-57.5z"/><path transform="translate(85.012 14.615) scale(.013672 -.013672)" d="m259-10q-99 0-151.5 66.5t-52.5 210.5q0 145 52.5 212t151.5 67q58 0 94.5-24.5t58.5-63.5h6q-3 25-4.5 55.5t-1.5 54.5v82q0 44-24.5 56t-57.5 12h-8v42h184v-650q0-44 24.5-56t57.5-12h8v-42h-169l-11 90h-4q-22-46-58-73t-95-27zm17 64q78 0 107 52.5t29 160.5q0 104-29 159.5t-108 55.5q-66 0-94.5-55.5t-28.5-160.5q0-106 28.5-159t95.5-53z"/><path transform="translate(93.406 14.615) scale(.013672 -.013672)" d="m18 0v42h8q34 0 58 12.5t24 59.5v536q0 44-24.5 56t-57.5 12h-8v42h184v-220q0-18-1-37.5t-2-33.5-1-14h5q46 91 147 91 86 0 131.5-46.5t45.5-149.5v-236q0-47 21.5-59.5t55.5-12.5h3v-42h-174v345q0 65-24.5 101t-85.5 36q-62 0-91.5-44t-29.5-118v-211q0-44 24.5-55.5t57.5-11.5h3v-42z"/><path transform="translate(102.09 14.615) scale(.013672 -.013672)" d="m33 0v42h3q34 0 58 12.5t24 59.5v312q0 44-24.5 56t-57.5 12h-3v42h154l19-99h5q13 30 28 55t40 39.5 69 14.5q55 0 81.5-19t26.5-54q0-31-21.5-51t-71.5-20q0 41-12 59.5t-41 18.5q-28 0-47-22t-30-56-16-70.5-5-65.5v-157q0-44 24.5-55.5t57.5-11.5h28v-42z"/><path transform="translate(108.53 14.615) scale(.013672 -.013672)" d="m23 0v42h13q33 0 57.5 11.5t24.5 55.5v317q0 44-24.5 56t-57.5 12h-3v42h179v-422q0-47 24-59.5t58-12.5h13v-42zm138 636q-24 0-40.5 14t-16.5 48q0 35 16.5 48.5t40.5 13.5q23 0 40-13.5t17-48.5q0-34-17-48t-40-14z"/></svg>