<svg width="119.11" height="19.068" viewBox="0 0 119.11 19.068" xmlns="http://www.w3.org/2000/svg"><path transform="translate(0 14.966) scale(.014 -.014)" d="m38 0v10h29q27 0 45.5 8t27.5 24 9 40v554q0 23-9 38t-27.5 22.5-45.5 7.5h-29v10h195l381-571v489q0 24-9 40t-27 24-46 8h-28v10h231v-10h-29q-27 0-45-8t-27.5-24-9.5-40v-632h-30l-435 652v-570q0-24 9-40t27.5-24 45.5-8h28v-10z"/><path transform="translate(10.682 14.966) scale(.014 -.014)" d="m287-10q-108 0-170 69t-62 210q0 140 59.5 208.5t175.5 68.5q108 0 170-68.5t62-208.5q0-141-59.5-210t-175.5-69zm2 10q49 0 79 27t43.5 86 13.5 156q0 96-13.5 155t-43.5 85.5-80 26.5q-49 0-79-26.5t-43.5-85.5-13.5-155q0-97 13.5-156t44-86 79.5-27z"/><path transform="translate(18.76 14.966) scale(.014 -.014)" d="m240-10q-76 0-110.5 34.5t-34.5 120.5v381h-76v10q36 0 62.5 6.5t45.5 20.5q20 14 32.5 38t19.5 58h10v-123h140v-10h-140v-418q0-52 20-78t59-26q14 0 29 3t32 9v-10q-13-6-39-11t-50-5z"/><path transform="translate(23.688 14.966) scale(.014 -.014)" d="m287-10q-108 0-170 69t-62 210q0 140 59.5 208.5t175.5 68.5q108 0 170-68.5t62-208.5q0-141-59.5-210t-175.5-69zm2 10q49 0 79 27t43.5 86 13.5 156q0 96-13.5 155t-43.5 85.5-80 26.5q-49 0-79-26.5t-43.5-85.5-13.5-155q0-97 13.5-156t44-86 79.5-27z"/><path transform="translate(34.916 14.966) scale(.014 -.014)" d="m258-10q-49 0-88 10.5t-66.5 29-41.5 43.5-14 55q0 23 8.5 38.5t24.5 23.5 39 8q1-65 16.5-109.5t47.5-66.5 81-22q64 0 103.5 37.5t39.5 110.5q0 45-16.5 73t-53 50.5-95.5 49.5q-31 15-63.5 32.5t-60 42-44 60-16.5 84.5q0 60 26 101t73.5 62 111.5 21q59 0 102.5-16t68-42 24.5-57q0-29-22-45.5t-57-16.5q0 83-27 125t-90 42q-38 0-67-15.5t-44.5-46-15.5-76.5q0-49 18-79t54.5-51.5 91.5-47.5q50-23 92.5-48t68.5-63 26-100q0-61-27.5-105t-80-68-127.5-24z"/><path transform="translate(42.532 14.966) scale(.014 -.014)" d="m292-10q-112 0-174.5 72t-62.5 202q0 140 58 211t164 71q97 0 152.5-60t55.5-179v-24h-333q1-102 15-164t45.5-90.5 82.5-28.5q38 0 67.5 14t49.5 41.5 27 67.5q12-2 18-12t6-21q0-20-19-43.5t-56.5-40-95.5-16.5zm92 303q0 88-11 141t-35 77.5-63 24.5q-41 0-67-24.5t-39-77.5-17-141z"/><path transform="translate(50.022 14.966) scale(.014 -.014)" d="m23 0v10h13q30 0 48 8t26 25 8 44v361q0 28-8 45t-26 25-48 8h-3v10h178v-100h2q7 26 21 51t42.5 42 76.5 17q50 0 76.5-19.5t26.5-54.5q0-30-21.5-50t-71.5-20q0 62-21 85.5t-47 23.5q-29 0-46-20.5t-25-53-10-67-2-63.5v-215q0-30 8-48t26.5-26 47.5-8h13v-10z"/><path transform="translate(56.616 14.966) scale(.014 -.014)" d="m23 0v10h13q30 0 48 8t26 25 8 44v361q0 28-8 45t-26 25-48 8h-3v10h179v-444q0-30 8-48t26.5-26 47.5-8h13v-10zm137 632q-19 0-31.5 12.5t-12.5 43.5q0 32 12.5 44t31.5 12q18 0 31-12t13-44q0-31-13-43.5t-31-12.5z"/><path transform="translate(61.096 14.966) scale(.014 -.014)" d="m27 0v10h13q30 0 48 8t26 25 8 44v439h-91v10h91v50q0 89 47 136.5t142 47.5q43 0 71-9t42.5-24.5 14.5-36.5q0-18-10.5-30.5t-29-19-42.5-6.5q0 64-14.5 90t-50.5 26q-42 0-59-36.5t-17-128.5v-59h141v-10h-141v-434q0-30 8-48t26.5-26 47.5-8h38v-10z"/><path transform="translate(69.412 14.966) scale(.014 -.014)" d="m38 0v10h13q27 0 45.5 8t27.5 24 9 40v554q0 23-9 38t-27.5 22.5-45.5 7.5h-13v10h306q103 0 176-41.5t111.5-121 38.5-193.5q0-109-36.5-189.5t-108.5-124.5-181-44zm283 10q84 0 136.5 36t77 113 24.5 199q0 121-24.5 197.5t-77 112.5-135.5 36h-88v-694z"/><path transform="translate(79.59 14.966) scale(.014 -.014)" d="m23 0v10h13q30 0 48 8t26 25 8 44v361q0 28-8 45t-26 25-48 8h-3v10h179v-444q0-30 8-48t26.5-26 47.5-8h13v-10zm137 632q-19 0-31.5 12.5t-12.5 43.5q0 32 12.5 44t31.5 12q18 0 31-12t13-44q0-31-13-43.5t-31-12.5z"/><path transform="translate(84.07 14.966) scale(.014 -.014)" d="m214-10q-50 0-88 12t-59.5 35.5-21.5 58.5q0 27 11 42t25.5 21 26.5 6q0-54 10-90.5t34-55.5 64-19q53 0 84 27.5t31 81.5q0 35-12 55.5t-39.5 36.5-76.5 37q-57 25-90 48.5t-47 51.5-14 66q0 68 48 104.5t133 36.5q48 0 82.5-12.5t52.5-33.5 18-46q0-27-18.5-43.5t-53.5-16.5q0 77-21 109.5t-65 32.5q-34 0-56.5-11t-34-32-11.5-53q0-35 14-56t43.5-36 73.5-34q57-23 90-46.5t46.5-52 13.5-67.5q0-78-52-117.5t-141-39.5z"/><path transform="translate(90.384 14.966) scale(.014 -.014)" d="m18-240v10h8q30 0 48 8t26 25 8 44v601q0 28-8 45t-26 25-48 8h-13v10h187v-139h2q14 76 52.5 112.5t105.5 36.5q98 0 148.5-70t50.5-207-51.5-208-149.5-71q-65 0-103 37t-52 114h-2q1-25 1-50t0-50v-189q0-29 8-47.5t26-26.5 48-8h3v-10zm323 245q44 0 70.5 26.5t38.5 85 12 153.5q0 94-12 151.5t-39 83.5-71 26q-48 0-78.5-29.5t-45-87.5-14.5-145q0-89 15-148t46-87.5 78-28.5z"/><path transform="translate(98.98 14.966) scale(.014 -.014)" d="m13 0v10h13q30 0 48 8t26 25 8 44v585q0 28-8 45t-26 25-48 8h-13v10h189v-668q0-30 8-48t26-26 48-8h13v-10z"/><path transform="translate(103.32 14.966) scale(.014 -.014)" d="m215-10q-76 0-120.5 39.5t-44.5 108.5q0 77 56.5 115t171.5 42l83 3v75q0 56-6 92t-26 53.5-61 17.5q-58 0-74.5-36t-16.5-113q-42 0-63.5 14t-21.5 46q0 36 24.5 57.5t65.5 31.5 90 10q92 0 137.5-39t45.5-134v-299q0-24 6-38t20-20 36-6h3v-10h-151v105h-2q-10-40-32-65.5t-52.5-37.5-67.5-12zm20 14q37 0 65.5 19t44.5 51 16 69v144l-64-3q-85-4-117.5-39t-32.5-118q0-40 9.5-67.5t29.5-41.5 49-14z"/><path transform="translate(111.2 14.966) scale(.014 -.014)" d="m38-230q71 0 114 10.5t68.5 33 43 58 36.5 84.5l-219 515q-9 22-17.5 33.5t-17.5 16.5-22 5h-20v10h240v-10h-3q-28 0-44.5-8.5t-16.5-30.5q0-9 3-20.5t9-25.5l86-209q8-18 16-39t16-43 15-42 13-37q13 39 25 74.5t20 60.5l73 229q5 14 7 25t2 20q0 23-15.5 34.5t-50.5 11.5h-42v10h208v-10h-8q-24 0-39.5-6t-25.5-23-21-49l-146-452q-23-72-45-118t-51-72-72.5-36-109.5-10h-9z"/></svg>