<svg width="120" height="14" viewBox="0 0 120 14" fill="none" xmlns="http://www.w3.org/2000/svg">
<path d="M8.42 0.64V10.64H6.95L1.6 2.34H1.55C1.57 2.66667 1.59333 3.07333 1.62 3.56C1.64667 4.04 1.66 4.53667 1.66 5.05V10.64H0.5V0.64H1.95L7.29 8.92H7.34C7.33333 8.76667 7.32333 8.54333 7.31 8.25C7.29667 7.95 7.28333 7.62333 7.27 7.27C7.25667 6.91 7.25 6.58333 7.25 6.29V0.64H8.42ZM17.49 6.87C17.49 8.11667 17.1767 9.08 16.55 9.76C15.9167 10.44 15.0633 10.78 13.99 10.78C13.33 10.78 12.74 10.63 12.22 10.33C11.7067 10.0233 11.3 9.58 11 9C10.7 8.41333 10.55 7.70333 10.55 6.87C10.55 5.63 10.8633 4.67333 11.49 4C12.1167 3.33333 12.9667 3 14.04 3C14.72 3 15.32 3.15 15.84 3.45C16.3533 3.75667 16.7567 4.19667 17.05 4.77C17.3433 5.34333 17.49 6.04333 17.49 6.87ZM11.82 6.87C11.82 7.75667 11.9967 8.46 12.35 8.98C12.6967 9.5 13.2533 9.76 14.02 9.76C14.78 9.76 15.3367 9.5 15.69 8.98C16.0433 8.46 16.22 7.75667 16.22 6.87C16.22 5.98333 16.0433 5.29 15.69 4.79C15.3367 4.28333 14.7767 4.03 14.01 4.03C13.2433 4.03 12.6867 4.28333 12.34 4.79C11.9933 5.29 11.82 5.98333 11.82 6.87ZM21.95 9.77C22.1367 9.77 22.3267 9.75333 22.52 9.72C22.7133 9.68667 22.8733 9.65333 23 9.62V10.56C22.8667 10.62 22.68 10.6733 22.44 10.72C22.1933 10.76 21.96 10.78 21.74 10.78C21.3467 10.78 20.9833 10.7133 20.65 10.58C20.3167 10.44 20.05 10.2033 19.85 9.87C19.6433 9.53667 19.54 9.06667 19.54 8.46V4.09H18.47V3.5L19.55 3.01L20.04 1.41H20.77V3.14H22.94V4.09H20.77V8.43C20.77 8.88333 20.88 9.22 21.1 9.44C21.32 9.66 21.6033 9.77 21.95 9.77ZM31.02 6.87C31.02 8.11667 30.7033 9.08 30.07 9.76C29.4433 10.44 28.5933 10.78 27.52 10.78C26.8533 10.78 26.2633 10.63 25.75 10.33C25.23 10.0233 24.82 9.58 24.52 9C24.22 8.41333 24.07 7.70333 24.07 6.87C24.07 5.63 24.3833 4.67333 25.01 4C25.6367 3.33333 26.4867 3 27.56 3C28.24 3 28.84 3.15 29.36 3.45C29.88 3.75667 30.2867 4.19667 30.58 4.77C30.8733 5.34333 31.02 6.04333 31.02 6.87ZM25.35 6.87C25.35 7.75667 25.5233 8.46 25.87 8.98C26.2233 9.5 26.7833 9.76 27.55 9.76C28.3033 9.76 28.8567 9.5 29.21 8.98C29.5633 8.46 29.74 7.75667 29.74 6.87C29.74 5.98333 29.5633 5.29 29.21 4.79C28.8567 4.28333 28.2967 4.03 27.53 4.03C26.7633 4.03 26.21 4.28333 25.87 4.79C25.5233 5.29 25.35 5.98333 25.35 6.87ZM40.9 7.97C40.9 8.85667 40.58 9.54667 39.94 10.04C39.2933 10.5333 38.4233 10.78 37.33 10.78C36.77 10.78 36.2533 10.7367 35.78 10.65C35.3 10.57 34.9033 10.4533 34.59 10.3V9.1C34.9233 9.24667 35.34 9.38333 35.84 9.51C36.34 9.63 36.8567 9.69 37.39 9.69C38.1367 9.69 38.7 9.54333 39.08 9.25C39.4533 8.96333 39.64 8.57333 39.64 8.08C39.64 7.75333 39.57 7.47667 39.43 7.25C39.29 7.03 39.05 6.82333 38.71 6.63C38.37 6.43667 37.8967 6.23333 37.29 6.02C36.4433 5.71333 35.8033 5.33667 35.37 4.89C34.93 4.43667 34.71 3.82333 34.71 3.05C34.71 2.51667 34.8467 2.06333 35.12 1.69C35.3933 1.31 35.77 1.01667 36.25 0.81C36.73 0.603333 37.2833 0.5 37.91 0.5C38.4567 0.5 38.96 0.553333 39.42 0.66C39.8733 0.76 40.2867 0.893333 40.66 1.06L40.27 2.14C39.9233 1.99333 39.55 1.86667 39.15 1.76C38.7433 1.66 38.32 1.61 37.88 1.61C37.2533 1.61 36.78 1.74333 36.46 2.01C36.1467 2.27667 35.99 2.63 35.99 3.07C35.99 3.40333 36.06 3.68333 36.2 3.91C36.34 4.13 36.5667 4.33 36.88 4.51C37.2 4.68333 37.63 4.87333 38.17 5.08C38.7567 5.29333 39.2533 5.52333 39.66 5.77C40.0667 6.02333 40.3767 6.32 40.59 6.66C40.7967 7.00667 40.9 7.44333 40.9 7.97ZM45.59 3.01C46.5033 3.01 47.18 3.21 47.62 3.61C48.06 4.01 48.28 4.65 48.28 5.53V10.64H47.38L47.15 9.58H47.09C46.7633 9.98667 46.42 10.29 46.06 10.49C45.7 10.6833 45.2033 10.78 44.57 10.78C43.89 10.78 43.3267 10.6 42.88 10.24C42.4267 9.88 42.2 9.31667 42.2 8.55C42.2 7.80333 42.4967 7.23 43.09 6.83C43.6767 6.42333 44.58 6.2 45.8 6.16L47.08 6.12V5.67C47.08 5.04333 46.9433 4.61 46.67 4.37C46.3967 4.12333 46.0133 4 45.52 4C45.1267 4 44.7533 4.06 44.4 4.18C44.0467 4.29333 43.7167 4.42667 43.41 4.58L43.03 3.65C43.3567 3.47667 43.7433 3.32667 44.19 3.2C44.6367 3.07333 45.1033 3.01 45.59 3.01ZM47.06 6.97L45.96 7.01C45.0267 7.05 44.38 7.2 44.02 7.46C43.66 7.72 43.48 8.09 43.48 8.57C43.48 8.99 43.6067 9.29667 43.86 9.49C44.12 9.69 44.45 9.79 44.85 9.79C45.4833 9.79 46.01 9.61333 46.43 9.26C46.85 8.91333 47.06 8.37333 47.06 7.64V6.97ZM54.22 3C55.1133 3 55.79 3.21667 56.25 3.65C56.7033 4.08333 56.93 4.78333 56.93 5.75V10.64H55.71V5.84C55.71 4.63333 55.15 4.03 54.03 4.03C53.2033 4.03 52.63 4.26333 52.31 4.73C51.9967 5.19667 51.84 5.87 51.84 6.75V10.64H50.6V3.14H51.6L51.78 4.16H51.85C52.09 3.76667 52.4267 3.47333 52.86 3.28C53.2867 3.09333 53.74 3 54.22 3ZM64.14 8.57C64.14 9.29667 63.87 9.84667 63.33 10.22C62.79 10.5933 62.0633 10.78 61.15 10.78C60.6233 10.78 60.1733 10.7367 59.8 10.65C59.42 10.57 59.0833 10.4533 58.79 10.3V9.18C59.09 9.33333 59.4533 9.47333 59.88 9.6C60.3067 9.72667 60.7367 9.79 61.17 9.79C61.7967 9.79 62.25 9.69 62.53 9.49C62.81 9.28333 62.95 9.01333 62.95 8.68C62.95 8.49333 62.9 8.32667 62.8 8.18C62.6933 8.02667 62.51 7.87667 62.25 7.73C61.9833 7.57667 61.6 7.40667 61.1 7.22C60.62 7.03333 60.2067 6.84667 59.86 6.66C59.5133 6.47333 59.2467 6.25 59.06 5.99C58.8733 5.73 58.78 5.39333 58.78 4.98C58.78 4.34667 59.04 3.85667 59.56 3.51C60.0733 3.17 60.75 3 61.59 3C62.05 3 62.4767 3.04333 62.87 3.13C63.27 3.21667 63.6433 3.34 63.99 3.5L63.57 4.48C63.25 4.34667 62.9167 4.23333 62.57 4.14C62.23 4.04667 61.8767 4 61.51 4C61.0033 4 60.62 4.08333 60.36 4.25C60.0933 4.41 59.96 4.63 59.96 4.91C59.96 5.11667 60.02 5.29333 60.14 5.44C60.26 5.58667 60.4633 5.72667 60.75 5.86C61.03 5.99333 61.41 6.15333 61.89 6.34C62.3633 6.52 62.77 6.70333 63.11 6.89C63.4433 7.07667 63.7 7.30333 63.88 7.57C64.0533 7.83667 64.14 8.17 64.14 8.57ZM73.9 7.97C73.9 8.85667 73.5767 9.54667 72.93 10.04C72.29 10.5333 71.4233 10.78 70.33 10.78C69.77 10.78 69.2533 10.7367 68.78 10.65C68.3 10.57 67.9033 10.4533 67.59 10.3V9.1C67.9233 9.24667 68.34 9.38333 68.84 9.51C69.34 9.63 69.8567 9.69 70.39 9.69C71.1367 9.69 71.6967 9.54333 72.07 9.25C72.45 8.96333 72.64 8.57333 72.64 8.08C72.64 7.75333 72.57 7.47667 72.43 7.25C72.29 7.03 72.05 6.82333 71.71 6.63C71.37 6.43667 70.8967 6.23333 70.29 6.02C69.4367 5.71333 68.7933 5.33667 68.36 4.89C67.9267 4.43667 67.71 3.82333 67.71 3.05C67.71 2.51667 67.8467 2.06333 68.12 1.69C68.3867 1.31 68.7633 1.01667 69.25 0.81C69.73 0.603333 70.28 0.5 70.9 0.5C71.4533 0.5 71.96 0.553333 72.42 0.66C72.8733 0.76 73.2867 0.893333 73.66 1.06L73.27 2.14C72.9233 1.99333 72.5467 1.86667 72.14 1.76C71.7333 1.66 71.3133 1.61 70.88 1.61C70.2533 1.61 69.78 1.74333 69.46 2.01C69.1467 2.27667 68.99 2.63 68.99 3.07C68.99 3.40333 69.06 3.68333 69.2 3.91C69.34 4.13 69.5667 4.33 69.88 4.51C70.2 4.68333 70.63 4.87333 71.17 5.08C71.7567 5.29333 72.2533 5.52333 72.66 5.77C73.0667 6.02333 73.3733 6.32 73.58 6.66C73.7933 7.00667 73.9 7.44333 73.9 7.97ZM82.27 6.87C82.27 8.11667 81.9567 9.08 81.33 9.76C80.6967 10.44 79.8433 10.78 78.77 10.78C78.11 10.78 77.52 10.63 77 10.33C76.48 10.0233 76.0733 9.58 75.78 9C75.48 8.41333 75.33 7.70333 75.33 6.87C75.33 5.63 75.6433 4.67333 76.27 4C76.89 3.33333 77.7367 3 78.81 3C79.4967 3 80.0967 3.15 80.61 3.45C81.13 3.75667 81.5367 4.19667 81.83 4.77C82.1233 5.34333 82.27 6.04333 82.27 6.87ZM76.6 6.87C76.6 7.75667 76.7767 8.46 77.13 8.98C77.4767 9.5 78.0333 9.76 78.8 9.76C79.5533 9.76 80.11 9.5 80.47 8.98C80.8233 8.46 81 7.75667 81 6.87C81 5.98333 80.8233 5.29 80.47 4.79C80.11 4.28333 79.55 4.03 78.79 4.03C78.0233 4.03 77.4667 4.28333 77.12 4.79C76.7733 5.29 76.6 5.98333 76.6 6.87ZM86.88 3C87.3733 3 87.82 3.09333 88.22 3.28C88.6133 3.46667 88.95 3.75 89.23 4.13H89.3L89.47 3.14H90.45V10.77C90.45 11.8433 90.1767 12.65 89.63 13.19C89.0833 13.73 88.2367 14 87.09 14C85.99 14 85.09 13.84 84.39 13.52V12.39C85.1233 12.7833 86.0467 12.98 87.16 12.98C87.8 12.98 88.3067 12.79 88.68 12.41C89.0467 12.03 89.23 11.5133 89.23 10.86V10.57C89.23 10.4567 89.2333 10.2967 89.24 10.09C89.2533 9.87667 89.2633 9.73 89.27 9.65H89.22C88.7133 10.4033 87.9367 10.78 86.89 10.78C85.9233 10.78 85.1667 10.44 84.62 9.76C84.0733 9.08 83.8 8.12667 83.8 6.9C83.8 5.70667 84.0733 4.75667 84.62 4.05C85.1667 3.35 85.92 3 86.88 3ZM87.05 4.03C86.4233 4.03 85.9367 4.28 85.59 4.78C85.2433 5.28 85.07 5.99333 85.07 6.92C85.07 7.84 85.24 8.54667 85.58 9.04C85.92 9.52667 86.4167 9.77 87.07 9.77C87.83 9.77 88.3833 9.56667 88.73 9.16C89.07 8.75333 89.24 8.1 89.24 7.2V6.9C89.24 5.87333 89.0633 5.14 88.71 4.7C88.3567 4.25333 87.8033 4.03 87.05 4.03ZM95.49 10.78C94.5567 10.78 93.81 10.4567 93.25 9.81C92.69 9.15667 92.41 8.18667 92.41 6.9C92.41 5.61333 92.6933 4.64 93.26 3.98C93.82 3.32667 94.5667 3 95.5 3C96.08 3 96.5533 3.10667 96.92 3.32C97.2933 3.53333 97.5967 3.79333 97.83 4.1H97.91C97.9033 3.98 97.8867 3.8 97.86 3.56C97.84 3.32667 97.83 3.14 97.83 3V0H99.06V10.64H98.06L97.88 9.63H97.83C97.6033 9.95 97.3033 10.22 96.93 10.44C96.5567 10.6667 96.0767 10.78 95.49 10.78ZM95.68 9.76C96.4733 9.76 97.0333 9.54333 97.36 9.11C97.68 8.67667 97.84 8.02 97.84 7.14V6.92C97.84 5.98667 97.6867 5.27 97.38 4.77C97.0733 4.27 96.5033 4.02 95.67 4.02C95.01 4.02 94.5133 4.28333 94.18 4.81C93.8467 5.33667 93.68 6.04333 93.68 6.93C93.68 7.82333 93.8467 8.52 94.18 9.02C94.5133 9.51333 95.0133 9.76 95.68 9.76ZM102.07 0.32C102.257 0.32 102.423 0.383333 102.57 0.51C102.71 0.636666 102.78 0.836666 102.78 1.11C102.78 1.37 102.71 1.56333 102.57 1.69C102.423 1.82333 102.257 1.89 102.07 1.89C101.863 1.89 101.69 1.82333 101.55 1.69C101.41 1.56333 101.34 1.37 101.34 1.11C101.34 0.836666 101.41 0.636666 101.55 0.51C101.69 0.383333 101.863 0.32 102.07 0.32ZM101.44 3.14H102.67V10.64H101.44V3.14ZM107.89 3.01C108.803 3.01 109.48 3.21 109.92 3.61C110.36 4.01 110.58 4.65 110.58 5.53V10.64H109.68L109.45 9.58H109.39C109.063 9.98667 108.72 10.29 108.36 10.49C108 10.6833 107.503 10.78 106.87 10.78C106.19 10.78 105.627 10.6 105.18 10.24C104.727 9.88 104.5 9.31667 104.5 8.55C104.5 7.80333 104.797 7.23 105.39 6.83C105.977 6.42333 106.88 6.2 108.1 6.16L109.38 6.12V5.67C109.38 5.04333 109.243 4.61 108.97 4.37C108.697 4.12333 108.313 4 107.82 4C107.427 4 107.053 4.06 106.7 4.18C106.347 4.29333 106.017 4.42667 105.71 4.58L105.33 3.65C105.657 3.47667 106.043 3.32667 106.49 3.2C106.937 3.07333 107.403 3.01 107.89 3.01ZM109.36 6.97L108.26 7.01C107.327 7.05 106.68 7.2 106.32 7.46C105.96 7.72 105.78 8.09 105.78 8.57C105.78 8.99 105.907 9.29667 106.16 9.49C106.42 9.69 106.75 9.79 107.15 9.79C107.783 9.79 108.31 9.61333 108.73 9.26C109.15 8.91333 109.36 8.37333 109.36 7.64V6.97ZM116.52 3C117.413 3 118.09 3.21667 118.55 3.65C119.003 4.08333 119.23 4.78333 119.23 5.75V10.64H118.01V5.84C118.01 4.63333 117.45 4.03 116.33 4.03C115.503 4.03 114.93 4.26333 114.61 4.73C114.297 5.19667 114.14 5.87 114.14 6.75V10.64H112.9V3.14H113.9L114.08 4.16H114.15C114.39 3.76667 114.727 3.47333 115.16 3.28C115.587 3.09333 116.04 3 116.52 3Z" fill="black"/>
</svg>
