<svg width="127" height="11" viewBox="0 0 127 11" fill="none" xmlns="http://www.w3.org/2000/svg">
<path d="M4.02 10.78H0.5V10.19H0.68C1 10.19 1.27333 10.1333 1.5 10.02C1.72 9.9 1.83 9.62 1.83 9.18V2.32C1.83 1.91333 1.71667 1.65333 1.49 1.54C1.26333 1.42667 0.993333 1.37 0.68 1.37H0.5V0.78H3.06L8.08 8.53V2.32C8.08 1.91333 7.96333 1.65333 7.73 1.54C7.50333 1.42667 7.23667 1.37 6.93 1.37H6.75V0.78H10.26V1.37H10.08C9.76 1.37 9.49 1.43 9.27 1.55C9.04333 1.66333 8.93 1.94 8.93 2.38V10.78H7.94L2.69 2.72V9.18C2.69 9.62 2.8 9.9 3.02 10.02C3.24667 10.1333 3.51667 10.19 3.83 10.19H4.02V10.78ZM14.67 10.92C13.6633 10.92 12.87 10.5967 12.29 9.95C11.71 9.31 11.42 8.33 11.42 7.01C11.42 5.70333 11.7 4.73 12.26 4.09C12.8133 3.45667 13.63 3.14 14.71 3.14C15.7167 3.14 16.51 3.45667 17.09 4.09C17.67 4.73 17.96 5.70333 17.96 7.01C17.96 8.33 17.6833 9.31 17.13 9.95C16.57 10.5967 15.75 10.92 14.67 10.92ZM14.7 10.19C15.4 10.19 15.89 9.92333 16.17 9.39C16.4567 8.85 16.6 8.05667 16.6 7.01C16.6 5.97 16.4567 5.18667 16.17 4.66C15.8767 4.14 15.38 3.88 14.68 3.88C13.98 3.88 13.49 4.14 13.21 4.66C12.9233 5.18667 12.78 5.97 12.78 7.01C12.78 8.05667 12.9233 8.85 13.21 9.39C13.5033 9.92333 14 10.19 14.7 10.19ZM22.09 10.92C21.3833 10.92 20.8667 10.76 20.54 10.44C20.22 10.1133 20.06 9.55 20.06 8.75V4.07H19V3.51C19.1667 3.51 19.3533 3.47667 19.56 3.41C19.76 3.33667 19.9367 3.22333 20.09 3.07C20.25 2.89667 20.38 2.69 20.48 2.45C20.58 2.21 20.6633 1.91 20.73 1.55H21.38V3.28H23.21V4.07H21.38V8.79C21.38 9.27 21.4767 9.62 21.67 9.84C21.8633 10.0667 22.12 10.18 22.44 10.18C22.6067 10.18 22.76 10.17 22.9 10.15C23.04 10.13 23.1867 10.1067 23.34 10.08V10.7C23.2133 10.7533 23.03 10.8033 22.79 10.85C22.55 10.8967 22.3167 10.92 22.09 10.92ZM27.68 10.92C26.6667 10.92 25.8733 10.5967 25.3 9.95C24.72 9.31 24.43 8.33 24.43 7.01C24.43 5.70333 24.7067 4.73 25.26 4.09C25.8133 3.45667 26.6333 3.14 27.72 3.14C28.7267 3.14 29.52 3.45667 30.1 4.09C30.68 4.73 30.97 5.70333 30.97 7.01C30.97 8.33 30.69 9.31 30.13 9.95C29.5767 10.5967 28.76 10.92 27.68 10.92ZM27.7 10.19C28.4 10.19 28.8933 9.92333 29.18 9.39C29.4667 8.85 29.61 8.05667 29.61 7.01C29.61 5.97 29.4633 5.18667 29.17 4.66C28.8833 4.14 28.39 3.88 27.69 3.88C26.99 3.88 26.4967 4.14 26.21 4.66C25.93 5.18667 25.79 5.97 25.79 7.01C25.79 8.05667 25.9333 8.85 26.22 9.39C26.5067 9.92333 27 10.19 27.7 10.19ZM37.99 10.92C37.0767 10.92 36.3833 10.7367 35.91 10.37C35.4433 10.01 35.21 9.53667 35.21 8.95C35.21 8.67 35.2967 8.44333 35.47 8.27C35.65 8.09667 35.9 8.01 36.22 8.01C36.2333 8.39 36.3067 8.75 36.44 9.09C36.5733 9.43 36.7733 9.70667 37.04 9.92C37.3133 10.1267 37.67 10.23 38.11 10.23C38.73 10.23 39.22 10.08 39.58 9.78C39.9333 9.47333 40.11 9.03667 40.11 8.47C40.11 8.12333 40.04 7.83 39.9 7.59C39.7667 7.35667 39.5433 7.13667 39.23 6.93C38.9167 6.72333 38.4867 6.51 37.94 6.29C37.0733 5.93 36.4267 5.51333 36 5.04C35.5733 4.56667 35.36 3.94667 35.36 3.18C35.36 2.64667 35.4933 2.19 35.76 1.81C36.0267 1.43667 36.39 1.14667 36.85 0.94C37.3167 0.74 37.8433 0.64 38.43 0.64C39.2567 0.64 39.9 0.8 40.36 1.12C40.82 1.44 41.05 1.80333 41.05 2.21C41.05 2.51 40.9467 2.73667 40.74 2.89C40.54 3.04333 40.2733 3.12 39.94 3.12C39.94 2.83333 39.89 2.55333 39.79 2.28C39.6967 2.01333 39.5333 1.79 39.3 1.61C39.0733 1.43 38.7633 1.34 38.37 1.34C37.83 1.34 37.41 1.48667 37.11 1.78C36.81 2.06667 36.66 2.45333 36.66 2.94C36.66 3.31333 36.73 3.63 36.87 3.89C37.0033 4.14333 37.23 4.37 37.55 4.57C37.8633 4.77 38.29 4.98333 38.83 5.21C39.6567 5.54333 40.2967 5.93 40.75 6.37C41.21 6.81 41.44 7.39 41.44 8.11C41.44 8.99667 41.13 9.68667 40.51 10.18C39.89 10.6733 39.05 10.92 37.99 10.92ZM46.17 10.92C45.15 10.92 44.3533 10.5833 43.78 9.91C43.2067 9.23667 42.92 8.29333 42.92 7.08C42.92 5.77333 43.19 4.79 43.73 4.13C44.2767 3.47 45.0433 3.14 46.03 3.14C46.9367 3.14 47.6467 3.42 48.16 3.98C48.68 4.54 48.94 5.37333 48.94 6.48V7.13H44.28C44.3 8.14333 44.4833 8.88 44.83 9.34C45.1833 9.80667 45.6967 10.04 46.37 10.04C46.85 10.04 47.26 9.94 47.6 9.74C47.9467 9.54 48.2033 9.31333 48.37 9.06C48.4367 9.08667 48.4967 9.14333 48.55 9.23C48.6033 9.31 48.63 9.41 48.63 9.53C48.63 9.71667 48.5433 9.92 48.37 10.14C48.19 10.3533 47.92 10.5367 47.56 10.69C47.1933 10.8433 46.73 10.92 46.17 10.92ZM44.31 6.37H47.53C47.53 5.62333 47.4133 5.02333 47.18 4.57C46.9533 4.11667 46.56 3.89 46 3.89C45.4867 3.89 45.0867 4.10333 44.8 4.53C44.52 4.95667 44.3567 5.57 44.31 6.37ZM54.15 10.78H50.1V10.19H50.15C50.4633 10.19 50.7333 10.1333 50.96 10.02C51.18 9.9 51.29 9.62 51.29 9.18V4.82C51.29 4.40667 51.1767 4.14333 50.95 4.03C50.7233 3.91667 50.4567 3.86 50.15 3.86H50.1V3.28H52.26L52.53 4.66H52.6C52.72 4.38 52.85 4.12333 52.99 3.89C53.13 3.65667 53.3167 3.47333 53.55 3.34C53.7833 3.20667 54.1033 3.14 54.51 3.14C55.0233 3.14 55.4033 3.22667 55.65 3.4C55.9033 3.58 56.03 3.83333 56.03 4.16C56.03 4.44667 55.9267 4.68333 55.72 4.87C55.52 5.05667 55.1867 5.15 54.72 5.15C54.72 4.77 54.6667 4.49333 54.56 4.32C54.4467 4.14667 54.2533 4.06 53.98 4.06C53.72 4.06 53.5 4.16333 53.32 4.37C53.1467 4.57667 53.0067 4.83667 52.9 5.15C52.8 5.47 52.7267 5.8 52.68 6.14C52.6333 6.48 52.61 6.78667 52.61 7.06V9.25C52.61 9.66333 52.7233 9.92333 52.95 10.03C53.1833 10.1367 53.4533 10.19 53.76 10.19H54.15V10.78ZM58.49 1.88C58.2633 1.88 58.0733 1.81333 57.92 1.68C57.7667 1.54667 57.69 1.32333 57.69 1.01C57.69 0.683334 57.7667 0.456667 57.92 0.33C58.0733 0.203334 58.2633 0.14 58.49 0.14C58.7033 0.14 58.89 0.203334 59.05 0.33C59.21 0.456667 59.29 0.683334 59.29 1.01C59.29 1.32333 59.21 1.54667 59.05 1.68C58.89 1.81333 58.7033 1.88 58.49 1.88ZM60.53 10.78H56.56V10.19H56.74C57.0467 10.19 57.3133 10.1367 57.54 10.03C57.7733 9.92333 57.89 9.66333 57.89 9.25V4.82C57.89 4.40667 57.7733 4.14333 57.54 4.03C57.3133 3.91667 57.0467 3.86 56.74 3.86H56.7V3.28H59.2V9.18C59.2 9.62 59.3133 9.9 59.54 10.02C59.7667 10.1333 60.0367 10.19 60.35 10.19H60.53V10.78ZM65.42 10.78H61.09V10.19H61.28C61.5933 10.19 61.8633 10.1333 62.09 10.02C62.31 9.9 62.42 9.62 62.42 9.18V3.93H61.15V3.28H62.42V2.58C62.42 1.74667 62.6433 1.10667 63.09 0.66C63.53 0.22 64.1333 0 64.9 0C65.6267 0 66.1367 0.09 66.43 0.27C66.7167 0.456667 66.86 0.693333 66.86 0.98C66.86 1.23333 66.7533 1.42667 66.54 1.56C66.3267 1.69333 66.05 1.76 65.71 1.76C65.71 1.48 65.6467 1.22333 65.52 0.99C65.3867 0.756667 65.1433 0.64 64.79 0.64C64.39 0.64 64.1133 0.796667 63.96 1.11C63.8133 1.41667 63.74 1.86333 63.74 2.45V3.28H65.71V3.93H63.74V9.18C63.74 9.62 63.8533 9.9 64.08 10.02C64.3 10.1333 64.57 10.19 64.89 10.19H65.42V10.78ZM72.45 10.78H69.21V10.19H69.4C69.7067 10.19 69.9733 10.1367 70.2 10.03C70.4267 9.92333 70.54 9.66333 70.54 9.25V2.32C70.54 1.91333 70.4267 1.65333 70.2 1.54C69.9733 1.42667 69.7067 1.37 69.4 1.37H69.21V0.78H72.41L75.3 8.79L78.17 0.78H81.28V1.37H81.1C80.78 1.37 80.51 1.43 80.29 1.55C80.0633 1.66333 79.95 1.94 79.95 2.38V9.18C79.95 9.62 80.0633 9.9 80.29 10.02C80.51 10.1333 80.78 10.19 81.1 10.19H81.28V10.78H77.56V10.19H77.6C77.9 10.19 78.1367 10.14 78.31 10.04C78.49 9.93333 78.59 9.69 78.61 9.31V1.83L75.4 10.78H74.65L71.4 1.86V9.18C71.4 9.62 71.4867 9.9 71.66 10.02C71.84 10.1333 72.09 10.19 72.41 10.19H72.45V10.78ZM84.68 10.92C84.06 10.92 83.5433 10.7367 83.13 10.37C82.7167 10.01 82.51 9.44667 82.51 8.68C82.51 7.93333 82.7733 7.38333 83.3 7.03C83.8333 6.67667 84.6367 6.48 85.71 6.44L86.87 6.4V5.56C86.87 5.22 86.84 4.92333 86.78 4.67C86.7267 4.41 86.6067 4.20667 86.42 4.06C86.2333 3.91333 85.95 3.84 85.57 3.84C85.21 3.84 84.9367 3.90333 84.75 4.03C84.5633 4.16333 84.44 4.34333 84.38 4.57C84.32 4.79667 84.29 5.06 84.29 5.36C83.8967 5.36 83.6 5.29333 83.4 5.16C83.2 5.02667 83.1 4.8 83.1 4.48C83.1 4.15333 83.2133 3.89333 83.44 3.7C83.6733 3.5 83.98 3.35667 84.36 3.27C84.7467 3.18333 85.1667 3.14 85.62 3.14C86.48 3.14 87.1233 3.32 87.55 3.68C87.97 4.04667 88.18 4.67333 88.18 5.56V9.18C88.18 9.57333 88.2467 9.84 88.38 9.98C88.5133 10.12 88.7367 10.19 89.05 10.19H89.09V10.78H87.2L86.98 9.58H86.87C86.67 9.84 86.4767 10.07 86.29 10.27C86.1033 10.47 85.8867 10.6267 85.64 10.74C85.3933 10.86 85.0733 10.92 84.68 10.92ZM85.01 10.05C85.5767 10.05 86.0267 9.87667 86.36 9.53C86.7 9.17667 86.87 8.70333 86.87 8.11V6.97L85.97 7.01C85.1767 7.05 84.63 7.21333 84.33 7.5C84.0233 7.78 83.87 8.19667 83.87 8.75C83.87 9.61667 84.25 10.05 85.01 10.05ZM93.71 10.78H89.95V10.19H90.06C90.38 10.19 90.65 10.1333 90.87 10.02C91.0967 9.9 91.21 9.62 91.21 9.18V1.68C91.21 1.26667 91.0933 1.00667 90.86 0.9C90.6333 0.786667 90.3667 0.73 90.06 0.73H89.95V0.14H92.52V5.54C92.52 5.66667 92.52 5.82667 92.52 6.02C92.5133 6.21333 92.5067 6.41 92.5 6.61C92.4867 6.80333 92.4767 6.96667 92.47 7.1C92.47 7.24 92.47 7.31 92.47 7.31L94.22 5.39C94.52 5.05667 94.7233 4.79667 94.83 4.61C94.9367 4.43 94.99 4.27333 94.99 4.14C94.99 4.02 94.9333 3.94333 94.82 3.91C94.7067 3.87667 94.5333 3.86 94.3 3.86V3.28H97.4V3.86C97.08 3.86 96.76 3.97667 96.44 4.21C96.1267 4.43667 95.7867 4.75667 95.42 5.17L94.44 6.27L96.3 9.04C96.5467 9.41333 96.7867 9.7 97.02 9.9C97.26 10.0933 97.54 10.19 97.86 10.19H97.9V10.78H97.7C97.3 10.78 96.9667 10.7667 96.7 10.74C96.4267 10.7133 96.2 10.6533 96.02 10.56C95.8333 10.4733 95.66 10.34 95.5 10.16C95.3333 9.97333 95.1533 9.72667 94.96 9.42L93.56 7.22L92.52 7.99V9.25C92.52 9.66333 92.6367 9.92333 92.87 10.03C93.0967 10.1367 93.3633 10.19 93.67 10.19H93.71V10.78ZM100.76 10.92C100.133 10.92 99.6133 10.7367 99.2 10.37C98.7933 10.01 98.59 9.44667 98.59 8.68C98.59 7.93333 98.8533 7.38333 99.38 7.03C99.9067 6.67667 100.707 6.48 101.78 6.44L102.94 6.4V5.56C102.94 5.22 102.913 4.92333 102.86 4.67C102.8 4.41 102.677 4.20667 102.49 4.06C102.303 3.91333 102.02 3.84 101.64 3.84C101.287 3.84 101.017 3.90333 100.83 4.03C100.643 4.16333 100.517 4.34333 100.45 4.57C100.39 4.79667 100.36 5.06 100.36 5.36C99.9733 5.36 99.6767 5.29333 99.47 5.16C99.27 5.02667 99.17 4.8 99.17 4.48C99.17 4.15333 99.2867 3.89333 99.52 3.7C99.7467 3.5 100.05 3.35667 100.43 3.27C100.817 3.18333 101.237 3.14 101.69 3.14C102.55 3.14 103.193 3.32 103.62 3.68C104.047 4.04667 104.26 4.67333 104.26 5.56V9.18C104.26 9.57333 104.323 9.84 104.45 9.98C104.583 10.12 104.807 10.19 105.12 10.19H105.17V10.78H103.28L103.05 9.58H102.94C102.747 9.84 102.557 10.07 102.37 10.27C102.183 10.47 101.963 10.6267 101.71 10.74C101.463 10.86 101.147 10.92 100.76 10.92ZM101.08 10.05C101.647 10.05 102.1 9.87667 102.44 9.53C102.773 9.17667 102.94 8.70333 102.94 8.11V6.97L102.04 7.01C101.247 7.05 100.7 7.21333 100.4 7.5C100.093 7.78 99.94 8.19667 99.94 8.75C99.94 9.61667 100.32 10.05 101.08 10.05ZM108.71 10.92C108.01 10.92 107.45 10.7933 107.03 10.54C106.61 10.2867 106.4 9.92 106.4 9.44C106.4 9.18667 106.45 8.99 106.55 8.85C106.657 8.71 106.777 8.61 106.91 8.55C107.043 8.49667 107.167 8.47 107.28 8.47C107.28 8.95667 107.39 9.37333 107.61 9.72C107.83 10.0733 108.223 10.25 108.79 10.25C109.283 10.25 109.663 10.13 109.93 9.89C110.197 9.65 110.33 9.34333 110.33 8.97C110.33 8.73667 110.283 8.54667 110.19 8.4C110.09 8.25333 109.917 8.10667 109.67 7.96C109.423 7.81333 109.07 7.64333 108.61 7.45C108.137 7.23667 107.743 7.02667 107.43 6.82C107.117 6.62 106.883 6.38667 106.73 6.12C106.577 5.86 106.5 5.52667 106.5 5.12C106.5 4.48667 106.74 4 107.22 3.66C107.7 3.32 108.337 3.15 109.13 3.15C109.803 3.15 110.31 3.27667 110.65 3.53C110.997 3.78333 111.17 4.08667 111.17 4.44C111.17 4.69333 111.083 4.89667 110.91 5.05C110.737 5.20333 110.487 5.28 110.16 5.28C110.16 4.81333 110.063 4.45 109.87 4.19C109.677 3.92333 109.373 3.79 108.96 3.79C108.487 3.79 108.147 3.89667 107.94 4.11C107.733 4.31667 107.63 4.58333 107.63 4.91C107.63 5.27 107.763 5.54333 108.03 5.73C108.297 5.92333 108.743 6.14667 109.37 6.4C109.863 6.60667 110.263 6.81 110.57 7.01C110.877 7.21667 111.103 7.45667 111.25 7.73C111.397 7.99667 111.47 8.32667 111.47 8.72C111.47 9.44667 111.217 9.99667 110.71 10.37C110.203 10.7367 109.537 10.92 108.71 10.92ZM114.95 10.92C114.323 10.92 113.807 10.7367 113.4 10.37C112.987 10.01 112.78 9.44667 112.78 8.68C112.78 7.93333 113.043 7.38333 113.57 7.03C114.097 6.67667 114.897 6.48 115.97 6.44L117.14 6.4V5.56C117.14 5.22 117.11 4.92333 117.05 4.67C116.997 4.41 116.877 4.20667 116.69 4.06C116.503 3.91333 116.217 3.84 115.83 3.84C115.477 3.84 115.207 3.90333 115.02 4.03C114.833 4.16333 114.71 4.34333 114.65 4.57C114.59 4.79667 114.56 5.06 114.56 5.36C114.167 5.36 113.87 5.29333 113.67 5.16C113.47 5.02667 113.37 4.8 113.37 4.48C113.37 4.15333 113.483 3.89333 113.71 3.7C113.943 3.5 114.25 3.35667 114.63 3.27C115.01 3.18333 115.43 3.14 115.89 3.14C116.75 3.14 117.39 3.32 117.81 3.68C118.237 4.04667 118.45 4.67333 118.45 5.56V9.18C118.45 9.57333 118.517 9.84 118.65 9.98C118.777 10.12 119 10.19 119.32 10.19H119.36V10.78H117.47L117.25 9.58H117.14C116.94 9.84 116.747 10.07 116.56 10.27C116.373 10.47 116.157 10.6267 115.91 10.74C115.663 10.86 115.343 10.92 114.95 10.92ZM115.27 10.05C115.843 10.05 116.297 9.87667 116.63 9.53C116.97 9.17667 117.14 8.70333 117.14 8.11V6.97L116.24 7.01C115.447 7.05 114.9 7.21333 114.6 7.5C114.293 7.78 114.14 8.19667 114.14 8.75C114.14 9.61667 114.517 10.05 115.27 10.05ZM124.47 10.78H120.43V10.19H120.47C120.783 10.19 121.053 10.1333 121.28 10.02C121.507 9.9 121.62 9.62 121.62 9.18V4.82C121.62 4.40667 121.503 4.14333 121.27 4.03C121.043 3.91667 120.777 3.86 120.47 3.86H120.43V3.28H122.58L122.85 4.66H122.92C123.04 4.38 123.17 4.12333 123.31 3.89C123.45 3.65667 123.637 3.47333 123.87 3.34C124.103 3.20667 124.427 3.14 124.84 3.14C125.353 3.14 125.733 3.22667 125.98 3.4C126.227 3.58 126.35 3.83333 126.35 4.16C126.35 4.44667 126.25 4.68333 126.05 4.87C125.85 5.05667 125.517 5.15 125.05 5.15C125.05 4.77 124.993 4.49333 124.88 4.32C124.767 4.14667 124.573 4.06 124.3 4.06C124.04 4.06 123.823 4.16333 123.65 4.37C123.47 4.57667 123.33 4.83667 123.23 5.15C123.123 5.47 123.047 5.8 123 6.14C122.953 6.48 122.93 6.78667 122.93 7.06V9.25C122.93 9.66333 123.047 9.92333 123.28 10.03C123.507 10.1367 123.773 10.19 124.08 10.19H124.47V10.78Z" fill="black"/>
</svg>
