<svg width="112" height="11" viewBox="0 0 112 11" fill="none" xmlns="http://www.w3.org/2000/svg">
<path d="M4.02 10.78H0.5V10.19H0.68C1 10.19 1.27333 10.1333 1.5 10.02C1.72 9.9 1.83 9.62 1.83 9.18V2.32C1.83 1.91333 1.71667 1.65333 1.49 1.54C1.26333 1.42667 0.993333 1.37 0.68 1.37H0.5V0.78H3.06L8.08 8.53V2.32C8.08 1.91333 7.96333 1.65333 7.73 1.54C7.50333 1.42667 7.23667 1.37 6.93 1.37H6.75V0.78H10.26V1.37H10.08C9.76 1.37 9.49 1.43 9.27 1.55C9.04333 1.66333 8.93 1.94 8.93 2.38V10.78H7.94L2.69 2.72V9.18C2.69 9.62 2.8 9.9 3.02 10.02C3.24667 10.1333 3.51667 10.19 3.83 10.19H4.02V10.78ZM14.67 10.92C13.6633 10.92 12.87 10.5967 12.29 9.95C11.71 9.31 11.42 8.33 11.42 7.01C11.42 5.70333 11.7 4.73 12.26 4.09C12.8133 3.45667 13.63 3.14 14.71 3.14C15.7167 3.14 16.51 3.45667 17.09 4.09C17.67 4.73 17.96 5.70333 17.96 7.01C17.96 8.33 17.6833 9.31 17.13 9.95C16.57 10.5967 15.75 10.92 14.67 10.92ZM14.7 10.19C15.4 10.19 15.89 9.92333 16.17 9.39C16.4567 8.85 16.6 8.05667 16.6 7.01C16.6 5.97 16.4567 5.18667 16.17 4.66C15.8767 4.14 15.38 3.88 14.68 3.88C13.98 3.88 13.49 4.14 13.21 4.66C12.9233 5.18667 12.78 5.97 12.78 7.01C12.78 8.05667 12.9233 8.85 13.21 9.39C13.5033 9.92333 14 10.19 14.7 10.19ZM22.09 10.92C21.3833 10.92 20.8667 10.76 20.54 10.44C20.22 10.1133 20.06 9.55 20.06 8.75V4.07H19V3.51C19.1667 3.51 19.3533 3.47667 19.56 3.41C19.76 3.33667 19.9367 3.22333 20.09 3.07C20.25 2.89667 20.38 2.69 20.48 2.45C20.58 2.21 20.6633 1.91 20.73 1.55H21.38V3.28H23.21V4.07H21.38V8.79C21.38 9.27 21.4767 9.62 21.67 9.84C21.8633 10.0667 22.12 10.18 22.44 10.18C22.6067 10.18 22.76 10.17 22.9 10.15C23.04 10.13 23.1867 10.1067 23.34 10.08V10.7C23.2133 10.7533 23.03 10.8033 22.79 10.85C22.55 10.8967 22.3167 10.92 22.09 10.92ZM27.68 10.92C26.6667 10.92 25.8733 10.5967 25.3 9.95C24.72 9.31 24.43 8.33 24.43 7.01C24.43 5.70333 24.7067 4.73 25.26 4.09C25.8133 3.45667 26.6333 3.14 27.72 3.14C28.7267 3.14 29.52 3.45667 30.1 4.09C30.68 4.73 30.97 5.70333 30.97 7.01C30.97 8.33 30.69 9.31 30.13 9.95C29.5767 10.5967 28.76 10.92 27.68 10.92ZM27.7 10.19C28.4 10.19 28.8933 9.92333 29.18 9.39C29.4667 8.85 29.61 8.05667 29.61 7.01C29.61 5.97 29.4633 5.18667 29.17 4.66C28.8833 4.14 28.39 3.88 27.69 3.88C26.99 3.88 26.4967 4.14 26.21 4.66C25.93 5.18667 25.79 5.97 25.79 7.01C25.79 8.05667 25.9333 8.85 26.22 9.39C26.5067 9.92333 27 10.19 27.7 10.19ZM38.83 10.92C38.2233 10.92 37.7133 10.8367 37.3 10.67C36.8867 10.51 36.5733 10.28 36.36 9.98C36.1533 9.68 36.05 9.33667 36.05 8.95C36.05 8.76333 36.09 8.6 36.17 8.46C36.25 8.32 36.3633 8.21 36.51 8.13C36.6567 8.05 36.84 8.01 37.06 8.01C37.0733 8.39 37.1467 8.75 37.28 9.09C37.4133 9.43 37.6133 9.70667 37.88 9.92C38.1533 10.1267 38.51 10.23 38.95 10.23C39.57 10.23 40.06 10.08 40.42 9.78C40.7733 9.47333 40.95 9.03667 40.95 8.47C40.95 8.12333 40.88 7.83 40.74 7.59C40.6067 7.35667 40.3833 7.13667 40.07 6.93C39.7567 6.72333 39.3267 6.51 38.78 6.29C38.2 6.04333 37.72 5.78 37.34 5.5C36.9533 5.22 36.6667 4.89 36.48 4.51C36.2933 4.13667 36.2 3.69333 36.2 3.18C36.2 2.64667 36.3333 2.19 36.6 1.81C36.8667 1.43667 37.23 1.14667 37.69 0.94C38.1567 0.74 38.6833 0.64 39.27 0.64C40.0967 0.64 40.74 0.8 41.2 1.12C41.66 1.44 41.89 1.80333 41.89 2.21C41.89 2.51 41.79 2.73667 41.59 2.89C41.3833 3.04333 41.1133 3.12 40.78 3.12C40.78 2.83333 40.73 2.55333 40.63 2.28C40.5367 2.01333 40.3733 1.79 40.14 1.61C39.9133 1.43 39.6033 1.34 39.21 1.34C38.67 1.34 38.25 1.48667 37.95 1.78C37.65 2.06667 37.5 2.45333 37.5 2.94C37.5 3.31333 37.57 3.63 37.71 3.89C37.8433 4.14333 38.07 4.37 38.39 4.57C38.7033 4.77 39.13 4.98333 39.67 5.21C40.4967 5.54333 41.1367 5.93 41.59 6.37C42.05 6.81 42.28 7.39 42.28 8.11C42.28 8.70333 42.14 9.21 41.86 9.63C41.58 10.0433 41.18 10.36 40.66 10.58C40.14 10.8067 39.53 10.92 38.83 10.92ZM47.01 10.92C45.99 10.92 45.1933 10.5833 44.62 9.91C44.0467 9.23667 43.76 8.29333 43.76 7.08C43.76 5.77333 44.03 4.79 44.57 4.13C45.1167 3.47 45.8833 3.14 46.87 3.14C47.7767 3.14 48.4867 3.42 49 3.98C49.52 4.54 49.78 5.37333 49.78 6.48V7.13H45.12C45.14 8.14333 45.3233 8.88 45.67 9.34C46.0233 9.80667 46.5367 10.04 47.21 10.04C47.69 10.04 48.1033 9.94 48.45 9.74C48.79 9.54 49.0433 9.31333 49.21 9.06C49.2767 9.08667 49.3367 9.14333 49.39 9.23C49.4433 9.31 49.47 9.41 49.47 9.53C49.47 9.71667 49.3833 9.92 49.21 10.14C49.03 10.3533 48.76 10.5367 48.4 10.69C48.0333 10.8433 47.57 10.92 47.01 10.92ZM45.15 6.37H48.37C48.37 5.62333 48.2533 5.02333 48.02 4.57C47.7933 4.11667 47.4 3.89 46.84 3.89C46.3267 3.89 45.9267 4.10333 45.64 4.53C45.36 4.95667 45.1967 5.57 45.15 6.37ZM54.99 10.78H50.94V10.19H50.99C51.3033 10.19 51.5733 10.1333 51.8 10.02C52.02 9.9 52.13 9.62 52.13 9.18V4.82C52.13 4.40667 52.0167 4.14333 51.79 4.03C51.5633 3.91667 51.2967 3.86 50.99 3.86H50.94V3.28H53.1L53.37 4.66H53.44C53.56 4.38 53.69 4.12333 53.83 3.89C53.97 3.65667 54.1567 3.47333 54.39 3.34C54.6233 3.20667 54.9433 3.14 55.35 3.14C55.8633 3.14 56.2433 3.22667 56.49 3.4C56.7433 3.58 56.87 3.83333 56.87 4.16C56.87 4.44667 56.7667 4.68333 56.56 4.87C56.36 5.05667 56.0267 5.15 55.56 5.15C55.56 4.77 55.5067 4.49333 55.4 4.32C55.2867 4.14667 55.0933 4.06 54.82 4.06C54.56 4.06 54.34 4.16333 54.16 4.37C53.9867 4.57667 53.8467 4.83667 53.74 5.15C53.64 5.47 53.5667 5.8 53.52 6.14C53.4733 6.48 53.45 6.78667 53.45 7.06V9.25C53.45 9.66333 53.5633 9.92333 53.79 10.03C54.0233 10.1367 54.2933 10.19 54.6 10.19H54.99V10.78ZM61.37 10.78H57.4V10.19H57.58C57.7867 10.19 57.9767 10.17 58.15 10.13C58.3233 10.09 58.4633 10 58.57 9.86C58.6767 9.72667 58.73 9.52333 58.73 9.25V4.82C58.73 4.54 58.6767 4.33 58.57 4.19C58.4633 4.05667 58.3233 3.97 58.15 3.93C57.9767 3.88333 57.7867 3.86 57.58 3.86H57.54V3.28H60.04V9.18C60.04 9.47333 60.0933 9.69 60.2 9.83C60.3 9.97667 60.44 10.0733 60.62 10.12C60.7933 10.1667 60.9833 10.19 61.19 10.19H61.37V10.78ZM59.33 1.88C59.1033 1.88 58.9133 1.81333 58.76 1.68C58.6067 1.54667 58.53 1.32333 58.53 1.01C58.53 0.683334 58.6067 0.456667 58.76 0.33C58.9133 0.203334 59.1033 0.14 59.33 0.14C59.5433 0.14 59.73 0.203334 59.89 0.33C60.05 0.456667 60.13 0.683334 60.13 1.01C60.13 1.32333 60.05 1.54667 59.89 1.68C59.73 1.81333 59.5433 1.88 59.33 1.88ZM66.26 10.78H61.93V10.19H62.12C62.3333 10.19 62.5267 10.1667 62.7 10.12C62.8733 10.0733 63.01 9.97667 63.11 9.83C63.21 9.69 63.26 9.47333 63.26 9.18V3.93H61.99V3.28H63.26V2.58C63.26 1.74667 63.4833 1.10667 63.93 0.66C64.37 0.22 64.9733 0 65.74 0C66.2267 0 66.6133 0.0433334 66.9 0.13C67.18 0.21 67.3833 0.323334 67.51 0.47C67.6367 0.616667 67.7 0.786667 67.7 0.98C67.7 1.23333 67.5933 1.42667 67.38 1.56C67.1667 1.69333 66.89 1.76 66.55 1.76C66.55 1.57333 66.5233 1.39667 66.47 1.23C66.4167 1.05667 66.3233 0.916667 66.19 0.81C66.0567 0.696667 65.87 0.64 65.63 0.64C65.23 0.64 64.9533 0.796667 64.8 1.11C64.6533 1.41667 64.58 1.86333 64.58 2.45V3.28H66.55V3.93H64.58V9.18C64.58 9.47333 64.63 9.69 64.73 9.83C64.8367 9.97667 64.9767 10.0733 65.15 10.12C65.33 10.1667 65.5233 10.19 65.73 10.19H66.26V10.78ZM76.94 10.78H72.59V10.19H72.91C73.2167 10.19 73.4833 10.1367 73.71 10.03C73.9433 9.92333 74.06 9.66333 74.06 9.25V6.61L71.47 2.11C71.3167 1.84333 71.1733 1.65333 71.04 1.54C70.9067 1.42667 70.7167 1.37 70.47 1.37H70.29V0.78H74.14V1.37H73.62C73.3733 1.37 73.21 1.41333 73.13 1.5C73.05 1.59333 73.01 1.7 73.01 1.82C73.01 1.95333 73.0367 2.08333 73.09 2.21C73.15 2.34333 73.2067 2.46 73.26 2.56L74.3 4.44C74.4533 4.72667 74.59 5.01 74.71 5.29C74.8233 5.57 74.92 5.81667 75 6.03C75.08 5.83667 75.2 5.59667 75.36 5.31C75.52 5.01667 75.68 4.72667 75.84 4.44L76.73 2.83C76.8233 2.67 76.89 2.51667 76.93 2.37C76.9633 2.23 76.98 2.10333 76.98 1.99C76.98 1.57667 76.7 1.37 76.14 1.37H75.74V0.78H79.15V1.37H78.99C78.79 1.37 78.6067 1.44667 78.44 1.6C78.2733 1.75333 78.0667 2.04 77.82 2.46L75.47 6.61V9.18C75.47 9.62 75.5833 9.9 75.81 10.02C76.03 10.1333 76.3 10.19 76.62 10.19H76.94V10.78ZM83.13 10.92C82.11 10.92 81.3133 10.5833 80.74 9.91C80.1667 9.23667 79.88 8.29333 79.88 7.08C79.88 5.77333 80.15 4.79 80.69 4.13C81.2367 3.47 82.0033 3.14 82.99 3.14C83.8967 3.14 84.61 3.42 85.13 3.98C85.6433 4.54 85.9 5.37333 85.9 6.48V7.13H81.24C81.26 8.14333 81.4433 8.88 81.79 9.34C82.1433 9.80667 82.6567 10.04 83.33 10.04C83.81 10.04 84.22 9.94 84.56 9.74C84.9067 9.54 85.1633 9.31333 85.33 9.06C85.3967 9.08667 85.4567 9.14333 85.51 9.23C85.5633 9.31 85.59 9.41 85.59 9.53C85.59 9.71667 85.5033 9.92 85.33 10.14C85.15 10.3533 84.88 10.5367 84.52 10.69C84.1533 10.8433 83.69 10.92 83.13 10.92ZM81.27 6.37H84.49C84.49 5.62333 84.3733 5.02333 84.14 4.57C83.9133 4.11667 83.52 3.89 82.96 3.89C82.4467 3.89 82.05 4.10333 81.77 4.53C81.4833 4.95667 81.3167 5.57 81.27 6.37ZM92.9 10.78H87.19V10.22L91.25 4.07H89.07C88.6967 4.07 88.4467 4.16667 88.32 4.36C88.2 4.55333 88.09 4.83667 87.99 5.21L87.97 5.26H87.39L87.53 3.28H92.89V3.85L88.81 9.98H91.36C91.6867 9.98 91.91 9.86333 92.03 9.63C92.1567 9.39667 92.25 9.13 92.31 8.83L92.38 8.51H92.97L92.9 10.78ZM98.05 10.78H94.08V10.19H94.26C94.4667 10.19 94.6567 10.17 94.83 10.13C95.0033 10.09 95.1433 10 95.25 9.86C95.3567 9.72667 95.41 9.52333 95.41 9.25V4.82C95.41 4.54 95.3567 4.33 95.25 4.19C95.1433 4.05667 95.0033 3.97 94.83 3.93C94.6567 3.88333 94.4667 3.86 94.26 3.86H94.22V3.28H96.72V9.18C96.72 9.47333 96.7733 9.69 96.88 9.83C96.98 9.97667 97.12 10.0733 97.3 10.12C97.4733 10.1667 97.6633 10.19 97.87 10.19H98.05V10.78ZM96.01 1.88C95.7833 1.88 95.5933 1.81333 95.44 1.68C95.2867 1.54667 95.21 1.32333 95.21 1.01C95.21 0.683334 95.2867 0.456667 95.44 0.33C95.5933 0.203334 95.7833 0.14 96.01 0.14C96.2233 0.14 96.41 0.203334 96.57 0.33C96.73 0.456667 96.81 0.683334 96.81 1.01C96.81 1.32333 96.73 1.54667 96.57 1.68C96.41 1.81333 96.2233 1.88 96.01 1.88ZM101.86 10.92C100.94 10.92 100.233 10.61 99.74 9.99C99.2533 9.37 99.01 8.38667 99.01 7.04C99.01 5.68667 99.2533 4.69667 99.74 4.07C100.233 3.45 100.94 3.14 101.86 3.14C102.4 3.14 102.84 3.25333 103.18 3.48C103.527 3.70667 103.8 4.00333 104 4.37H104.09C104.063 4.13667 104.04 3.87667 104.02 3.59C104.007 3.30333 104 3.05 104 2.83V1.68C104 1.26667 103.887 1.00667 103.66 0.9C103.433 0.786667 103.167 0.73 102.86 0.73H102.74V0.14H105.32V9.24C105.32 9.51333 105.373 9.72 105.48 9.86C105.587 10 105.727 10.09 105.9 10.13C106.073 10.17 106.263 10.19 106.47 10.19H106.58V10.78H104.21L104.06 9.52H104C103.8 9.94667 103.53 10.2867 103.19 10.54C102.857 10.7933 102.413 10.92 101.86 10.92ZM102.1 10.02C102.827 10.02 103.327 9.77667 103.6 9.29C103.867 8.79667 104 8.04667 104 7.04C104 6.07333 103.867 5.33 103.6 4.81C103.327 4.29 102.823 4.03 102.09 4.03C101.47 4.03 101.027 4.29 100.76 4.81C100.493 5.33 100.36 6.08 100.36 7.06C100.36 8.04667 100.493 8.78667 100.76 9.28C101.027 9.77333 101.473 10.02 102.1 10.02ZM111.13 10.78H107.15V10.19H107.34C107.54 10.19 107.727 10.17 107.9 10.13C108.073 10.09 108.213 10 108.32 9.86C108.427 9.72667 108.48 9.52333 108.48 9.25V4.82C108.48 4.54 108.427 4.33 108.32 4.19C108.213 4.05667 108.073 3.97 107.9 3.93C107.727 3.88333 107.54 3.86 107.34 3.86H107.29V3.28H109.8V9.18C109.8 9.47333 109.85 9.69 109.95 9.83C110.057 9.97667 110.197 10.0733 110.37 10.12C110.55 10.1667 110.743 10.19 110.95 10.19H111.13V10.78ZM109.09 1.88C108.863 1.88 108.673 1.81333 108.52 1.68C108.367 1.54667 108.29 1.32333 108.29 1.01C108.29 0.683334 108.367 0.456667 108.52 0.33C108.673 0.203334 108.863 0.14 109.09 0.14C109.303 0.14 109.49 0.203334 109.65 0.33C109.803 0.456667 109.88 0.683334 109.88 1.01C109.88 1.32333 109.803 1.54667 109.65 1.68C109.49 1.81333 109.303 1.88 109.09 1.88Z" fill="black"/>
</svg>
