<svg width="127" height="15" viewBox="0 0 127 15" fill="none" xmlns="http://www.w3.org/2000/svg">
<path d="M4.02 10.78H0.5V10.19H0.68C0.9 10.19 1.09333 10.1667 1.26 10.12C1.43333 10.0733 1.57333 9.97667 1.68 9.83C1.78 9.69 1.83 9.47333 1.83 9.18V2.32C1.83 2.04 1.77667 1.83333 1.67 1.7C1.56333 1.56667 1.42333 1.47667 1.25 1.43C1.07667 1.39 0.886667 1.37 0.68 1.37H0.5V0.78H3.06L8.08 8.53V2.32C8.08 2.04 8.02667 1.83333 7.92 1.7C7.80667 1.56667 7.66667 1.47667 7.5 1.43C7.32667 1.39 7.13667 1.37 6.93 1.37H6.75V0.78H10.26V1.37H10.08C9.87333 1.37 9.68 1.39333 9.5 1.44C9.32667 1.48667 9.18667 1.58 9.08 1.72C8.98 1.86 8.93 2.08 8.93 2.38V10.78H7.94L2.69 2.72V9.18C2.69 9.47333 2.74 9.69 2.84 9.83C2.94 9.97667 3.08 10.0733 3.26 10.12C3.44 10.1667 3.63 10.19 3.83 10.19H4.02V10.78ZM14.67 10.92C13.6633 10.92 12.87 10.5967 12.29 9.95C11.71 9.31 11.42 8.33 11.42 7.01C11.42 5.70333 11.7 4.73 12.26 4.09C12.8133 3.45667 13.63 3.14 14.71 3.14C15.7167 3.14 16.51 3.45667 17.09 4.09C17.67 4.73 17.96 5.70333 17.96 7.01C17.96 8.33 17.6833 9.31 17.13 9.95C16.57 10.5967 15.75 10.92 14.67 10.92ZM14.7 10.19C15.1667 10.19 15.54 10.07 15.82 9.83C16.1 9.59667 16.3 9.24 16.42 8.76C16.54 8.28667 16.6 7.70333 16.6 7.01C16.6 5.97 16.4567 5.18667 16.17 4.66C15.8767 4.14 15.38 3.88 14.68 3.88C13.98 3.88 13.49 4.14 13.21 4.66C12.9233 5.18667 12.78 5.97 12.78 7.01C12.78 8.05667 12.9233 8.85 13.21 9.39C13.5033 9.92333 14 10.19 14.7 10.19ZM22.09 10.92C21.3833 10.92 20.8667 10.76 20.54 10.44C20.22 10.1133 20.06 9.55 20.06 8.75V4.07H19V3.51C19.1667 3.51 19.3533 3.47667 19.56 3.41C19.76 3.33667 19.9367 3.22333 20.09 3.07C20.25 2.89667 20.38 2.69 20.48 2.45C20.58 2.21 20.6633 1.91 20.73 1.55H21.38V3.28H23.21V4.07H21.38V8.79C21.38 9.27 21.4767 9.62 21.67 9.84C21.8633 10.0667 22.12 10.18 22.44 10.18C22.6067 10.18 22.76 10.17 22.9 10.15C23.04 10.13 23.1867 10.1067 23.34 10.08V10.7C23.2133 10.7533 23.03 10.8033 22.79 10.85C22.55 10.8967 22.3167 10.92 22.09 10.92ZM27.68 10.92C26.6667 10.92 25.8733 10.5967 25.3 9.95C24.72 9.31 24.43 8.33 24.43 7.01C24.43 5.70333 24.7067 4.73 25.26 4.09C25.8133 3.45667 26.6333 3.14 27.72 3.14C28.7267 3.14 29.52 3.45667 30.1 4.09C30.68 4.73 30.97 5.70333 30.97 7.01C30.97 8.33 30.69 9.31 30.13 9.95C29.5767 10.5967 28.76 10.92 27.68 10.92ZM27.7 10.19C28.1667 10.19 28.54 10.07 28.82 9.83C29.1 9.59667 29.3033 9.24 29.43 8.76C29.55 8.28667 29.61 7.70333 29.61 7.01C29.61 5.97 29.4633 5.18667 29.17 4.66C28.8833 4.14 28.39 3.88 27.69 3.88C26.99 3.88 26.4967 4.14 26.21 4.66C25.93 5.18667 25.79 5.97 25.79 7.01C25.79 8.05667 25.9333 8.85 26.22 9.39C26.5067 9.92333 27 10.19 27.7 10.19ZM39.38 10.92C38.92 10.92 38.5167 10.8733 38.17 10.78C37.8167 10.6867 37.5233 10.55 37.29 10.37C37.0567 10.1967 36.8833 9.98667 36.77 9.74C36.65 9.5 36.59 9.23667 36.59 8.95C36.59 8.76333 36.63 8.6 36.71 8.46C36.79 8.32 36.9067 8.21 37.06 8.13C37.2067 8.05 37.3867 8.01 37.6 8.01C37.62 8.39 37.6967 8.75 37.83 9.09C37.9567 9.43 38.1567 9.70667 38.43 9.92C38.6967 10.1267 39.05 10.23 39.49 10.23C40.1167 10.23 40.6067 10.08 40.96 9.78C41.3133 9.47333 41.49 9.03667 41.49 8.47C41.49 8.12333 41.4233 7.83 41.29 7.59C41.1567 7.35667 40.9333 7.13667 40.62 6.93C40.3067 6.72333 39.8733 6.51 39.32 6.29C38.7467 6.04333 38.2667 5.78 37.88 5.5C37.5 5.22 37.2167 4.89 37.03 4.51C36.8433 4.13667 36.75 3.69333 36.75 3.18C36.75 2.64667 36.8833 2.19 37.15 1.81C37.4167 1.43667 37.78 1.14667 38.24 0.94C38.7 0.74 39.2233 0.64 39.81 0.64C40.37 0.64 40.8467 0.716667 41.24 0.87C41.6267 1.01667 41.92 1.21 42.12 1.45C42.3267 1.69 42.43 1.94333 42.43 2.21C42.43 2.51 42.33 2.73667 42.13 2.89C41.93 3.04333 41.6633 3.12 41.33 3.12C41.33 2.83333 41.28 2.55333 41.18 2.28C41.08 2.01333 40.9167 1.79 40.69 1.61C40.4633 1.43 40.1533 1.34 39.76 1.34C39.22 1.34 38.8 1.48667 38.5 1.78C38.2 2.06667 38.05 2.45333 38.05 2.94C38.05 3.31333 38.1167 3.63 38.25 3.89C38.39 4.14333 38.6167 4.37 38.93 4.57C39.25 4.77 39.68 4.98333 40.22 5.21C40.7733 5.43 41.2433 5.67333 41.63 5.94C42.0167 6.20667 42.3133 6.51333 42.52 6.86C42.72 7.20667 42.82 7.62333 42.82 8.11C42.82 8.70333 42.68 9.21 42.4 9.63C42.12 10.0433 41.7233 10.36 41.21 10.58C40.69 10.8067 40.08 10.92 39.38 10.92ZM47.56 10.92C46.54 10.92 45.7433 10.5833 45.17 9.91C44.5967 9.23667 44.31 8.29333 44.31 7.08C44.31 5.77333 44.58 4.79 45.12 4.13C45.66 3.47 46.4267 3.14 47.42 3.14C48.32 3.14 49.03 3.42 49.55 3.98C50.07 4.54 50.33 5.37333 50.33 6.48V7.13H45.67C45.6833 8.14333 45.8667 8.88 46.22 9.34C46.5667 9.80667 47.0767 10.04 47.75 10.04C48.2367 10.04 48.65 9.94 48.99 9.74C49.33 9.54 49.5833 9.31333 49.75 9.06C49.8167 9.08667 49.88 9.14333 49.94 9.23C49.9933 9.31 50.02 9.41 50.02 9.53C50.02 9.71667 49.93 9.92 49.75 10.14C49.5767 10.3533 49.3067 10.5367 48.94 10.69C48.58 10.8433 48.12 10.92 47.56 10.92ZM45.69 6.37H48.91C48.91 5.62333 48.7967 5.02333 48.57 4.57C48.3433 4.11667 47.95 3.89 47.39 3.89C46.8767 3.89 46.4767 4.10333 46.19 4.53C45.9033 4.95667 45.7367 5.57 45.69 6.37ZM55.54 10.78H51.49V10.19H51.53C51.7433 10.19 51.9367 10.1667 52.11 10.12C52.2833 10.0733 52.4233 9.97667 52.53 9.83C52.63 9.69 52.68 9.47333 52.68 9.18V4.82C52.68 4.54 52.6267 4.33 52.52 4.19C52.4133 4.05667 52.2733 3.97 52.1 3.93C51.9267 3.88333 51.7367 3.86 51.53 3.86H51.49V3.28H53.65L53.91 4.66H53.98C54.1 4.38 54.23 4.12333 54.37 3.89C54.51 3.65667 54.6967 3.47333 54.93 3.34C55.1633 3.20667 55.4867 3.14 55.9 3.14C56.4133 3.14 56.7933 3.22667 57.04 3.4C57.2867 3.58 57.41 3.83333 57.41 4.16C57.41 4.44667 57.31 4.68333 57.11 4.87C56.91 5.05667 56.5767 5.15 56.11 5.15C56.11 4.77 56.0533 4.49333 55.94 4.32C55.8267 4.14667 55.6367 4.06 55.37 4.06C55.11 4.06 54.89 4.16333 54.71 4.37C54.53 4.57667 54.39 4.83667 54.29 5.15C54.19 5.47 54.1167 5.8 54.07 6.14C54.0233 6.48 54 6.78667 54 7.06V9.25C54 9.52333 54.0533 9.72667 54.16 9.86C54.2667 10 54.4067 10.09 54.58 10.13C54.7533 10.17 54.94 10.19 55.14 10.19H55.54V10.78ZM61.92 10.78H57.94V10.19H58.13C58.33 10.19 58.5167 10.17 58.69 10.13C58.8633 10.09 59.0033 10 59.11 9.86C59.2167 9.72667 59.27 9.52333 59.27 9.25V4.82C59.27 4.54 59.2167 4.33 59.11 4.19C59.0033 4.05667 58.8633 3.97 58.69 3.93C58.5167 3.88333 58.33 3.86 58.13 3.86H58.08V3.28H60.59V9.18C60.59 9.47333 60.64 9.69 60.74 9.83C60.8467 9.97667 60.9867 10.0733 61.16 10.12C61.34 10.1667 61.5333 10.19 61.74 10.19H61.92V10.78ZM59.88 1.88C59.6533 1.88 59.4633 1.81333 59.31 1.68C59.1567 1.54667 59.08 1.32333 59.08 1.01C59.08 0.683334 59.1567 0.456667 59.31 0.33C59.4633 0.203334 59.6533 0.14 59.88 0.14C60.0933 0.14 60.28 0.203334 60.44 0.33C60.5933 0.456667 60.67 0.683334 60.67 1.01C60.67 1.32333 60.5933 1.54667 60.44 1.68C60.28 1.81333 60.0933 1.88 59.88 1.88ZM66.81 10.78H62.48V10.19H62.66C62.8733 10.19 63.0667 10.1667 63.24 10.12C63.4133 10.0733 63.5533 9.97667 63.66 9.83C63.76 9.69 63.81 9.47333 63.81 9.18V3.93H62.54V3.28H63.81V2.58C63.81 1.74667 64.0333 1.10667 64.48 0.66C64.92 0.22 65.5233 0 66.29 0C66.7767 0 67.16 0.0433334 67.44 0.13C67.7267 0.21 67.9333 0.323334 68.06 0.47C68.1867 0.616667 68.25 0.786667 68.25 0.98C68.25 1.14667 68.2 1.29 68.1 1.41C68 1.52333 67.8667 1.61 67.7 1.67C67.5267 1.73 67.3267 1.76 67.1 1.76C67.1 1.57333 67.0733 1.39667 67.02 1.23C66.96 1.05667 66.8667 0.916667 66.74 0.81C66.6067 0.696667 66.42 0.64 66.18 0.64C65.7733 0.64 65.4967 0.796667 65.35 1.11C65.2033 1.41667 65.13 1.86333 65.13 2.45V3.28H67.1V3.93H65.13V9.18C65.13 9.47333 65.18 9.69 65.28 9.83C65.38 9.97667 65.52 10.0733 65.7 10.12C65.88 10.1667 66.07 10.19 66.27 10.19H66.81V10.78ZM77.07 10.92C75.9833 10.92 75.0833 10.7067 74.37 10.28C73.6567 9.84667 73.1267 9.24667 72.78 8.48C72.4267 7.70667 72.25 6.80333 72.25 5.77C72.25 4.76333 72.4367 3.87333 72.81 3.1C73.1767 2.33333 73.7233 1.73333 74.45 1.3C75.1767 0.86 76.0767 0.64 77.15 0.64C77.8433 0.64 78.4167 0.71 78.87 0.85C79.33 0.983334 79.6733 1.17 79.9 1.41C80.1333 1.64333 80.25 1.91 80.25 2.21C80.25 2.51 80.1233 2.75 79.87 2.93C79.6167 3.10333 79.3067 3.19 78.94 3.19C78.94 2.90333 78.8833 2.62 78.77 2.34C78.65 2.06667 78.4567 1.84 78.19 1.66C77.9167 1.48 77.5533 1.39 77.1 1.39C76.3067 1.39 75.67 1.56 75.19 1.9C74.7033 2.24 74.3533 2.73667 74.14 3.39C73.92 4.04333 73.81 4.83667 73.81 5.77C73.81 6.70333 73.9233 7.49333 74.15 8.14C74.3767 8.78667 74.7467 9.28 75.26 9.62C75.7667 9.95333 76.4433 10.12 77.29 10.12C77.5633 10.12 77.8267 10.1067 78.08 10.08C78.3267 10.0533 78.55 10.01 78.75 9.95V7.7C78.75 7.42 78.6967 7.21333 78.59 7.08C78.4833 6.94 78.3433 6.85 78.17 6.81C77.9967 6.77 77.8067 6.75 77.6 6.75H77.54V6.16H81.18V6.75H81.13C80.95 6.75 80.79 6.77333 80.65 6.82C80.5033 6.86667 80.3867 6.96 80.3 7.1C80.2067 7.24 80.16 7.46 80.16 7.76V10.28C79.6933 10.4933 79.2133 10.6533 78.72 10.76C78.2267 10.8667 77.6767 10.92 77.07 10.92ZM85.27 10.92C84.5367 10.92 83.9667 10.7033 83.56 10.27C83.16 9.83667 82.96 9.14 82.96 8.18V4.82C82.96 4.54 82.9067 4.33 82.8 4.19C82.6933 4.05667 82.5533 3.97 82.38 3.93C82.2067 3.88333 82.0167 3.86 81.81 3.86H81.77V3.28H84.28V8.11C84.28 8.51 84.3233 8.85333 84.41 9.14C84.4967 9.43333 84.65 9.65333 84.87 9.8C85.0833 9.94667 85.3767 10.02 85.75 10.02C86.1567 10.02 86.4933 9.92667 86.76 9.74C87.02 9.54667 87.21 9.28 87.33 8.94C87.45 8.6 87.51 8.20667 87.51 7.76V4.87C87.51 4.57 87.46 4.35 87.36 4.21C87.2533 4.07 87.1167 3.97667 86.95 3.93C86.7767 3.88333 86.58 3.86 86.36 3.86H86.32V3.28H88.83V9.25C88.83 9.52333 88.8833 9.72667 88.99 9.86C89.0967 10 89.2367 10.09 89.41 10.13C89.5833 10.17 89.7733 10.19 89.98 10.19H90.02V10.78H87.79L87.61 9.65H87.54C87.2533 10.17 86.9167 10.51 86.53 10.67C86.15 10.8367 85.73 10.92 85.27 10.92ZM90.4 14.14H90.17V13.48H90.27C90.6033 13.48 90.89 13.4033 91.13 13.25C91.37 13.0967 91.55 12.83 91.67 12.45C91.79 12.0767 91.85 11.5633 91.85 10.91V4.82C91.85 4.54 91.7967 4.33 91.69 4.19C91.5833 4.05667 91.4433 3.97 91.27 3.93C91.0967 3.88333 90.9067 3.86 90.7 3.86H90.66V3.28H93.17V10.89C93.17 11.7233 93.05 12.3767 92.81 12.85C92.57 13.33 92.2433 13.6633 91.83 13.85C91.4167 14.0433 90.94 14.14 90.4 14.14ZM92.45 1.88C92.23 1.88 92.0433 1.81333 91.89 1.68C91.7367 1.54667 91.66 1.32333 91.66 1.01C91.66 0.683334 91.7367 0.456667 91.89 0.33C92.0433 0.203334 92.23 0.14 92.45 0.14C92.67 0.14 92.8567 0.203334 93.01 0.33C93.17 0.456667 93.25 0.683334 93.25 1.01C93.25 1.32333 93.17 1.54667 93.01 1.68C92.8567 1.81333 92.67 1.88 92.45 1.88ZM97.41 10.92C96.9967 10.92 96.6267 10.8367 96.3 10.67C95.9667 10.51 95.7067 10.2633 95.52 9.93C95.3333 9.60333 95.24 9.18667 95.24 8.68C95.24 7.93333 95.5033 7.38333 96.03 7.03C96.5567 6.67667 97.3567 6.48 98.43 6.44L99.59 6.4V5.56C99.59 5.22 99.5633 4.92333 99.51 4.67C99.4567 4.41 99.3367 4.20667 99.15 4.06C98.9633 3.91333 98.6767 3.84 98.29 3.84C97.9367 3.84 97.6667 3.90333 97.48 4.03C97.2933 4.16333 97.17 4.34333 97.11 4.57C97.05 4.79667 97.02 5.06 97.02 5.36C96.6267 5.36 96.33 5.29333 96.13 5.16C95.93 5.02667 95.83 4.8 95.83 4.48C95.83 4.15333 95.9433 3.89333 96.17 3.7C96.3967 3.5 96.7033 3.35667 97.09 3.27C97.47 3.18333 97.89 3.14 98.35 3.14C99.21 3.14 99.85 3.32 100.27 3.68C100.697 4.04667 100.91 4.67333 100.91 5.56V9.18C100.91 9.44667 100.937 9.65 100.99 9.79C101.05 9.93667 101.143 10.04 101.27 10.1C101.403 10.16 101.573 10.19 101.78 10.19H101.82V10.78H99.93L99.71 9.58H99.59C99.3967 9.84 99.2067 10.07 99.02 10.27C98.8333 10.47 98.6167 10.6267 98.37 10.74C98.1233 10.86 97.8033 10.92 97.41 10.92ZM97.73 10.05C98.1167 10.05 98.4467 9.97 98.72 9.81C98.9933 9.65667 99.2067 9.43333 99.36 9.14C99.5133 8.84 99.59 8.49667 99.59 8.11V6.97L98.7 7.01C98.1667 7.03 97.75 7.11 97.45 7.25C97.1433 7.39 96.9233 7.58333 96.79 7.83C96.6633 8.07667 96.6 8.38333 96.6 8.75C96.6 9.03667 96.64 9.27667 96.72 9.47C96.8067 9.66333 96.9333 9.81 97.1 9.91C97.2667 10.0033 97.4767 10.05 97.73 10.05ZM106.93 10.78H102.88V10.19H102.93C103.143 10.19 103.337 10.1667 103.51 10.12C103.683 10.0733 103.82 9.97667 103.92 9.83C104.02 9.69 104.07 9.47333 104.07 9.18V4.82C104.07 4.54 104.017 4.33 103.91 4.19C103.803 4.05667 103.663 3.97 103.49 3.93C103.317 3.88333 103.13 3.86 102.93 3.86H102.88V3.28H105.04L105.31 4.66H105.38C105.5 4.38 105.63 4.12333 105.77 3.89C105.91 3.65667 106.097 3.47333 106.33 3.34C106.563 3.20667 106.883 3.14 107.29 3.14C107.803 3.14 108.187 3.22667 108.44 3.4C108.687 3.58 108.81 3.83333 108.81 4.16C108.81 4.44667 108.71 4.68333 108.51 4.87C108.303 5.05667 107.967 5.15 107.5 5.15C107.5 4.77 107.447 4.49333 107.34 4.32C107.227 4.14667 107.033 4.06 106.76 4.06C106.5 4.06 106.28 4.16333 106.1 4.37C105.927 4.57667 105.787 4.83667 105.68 5.15C105.58 5.47 105.507 5.8 105.46 6.14C105.413 6.48 105.39 6.78667 105.39 7.06V9.25C105.39 9.52333 105.443 9.72667 105.55 9.86C105.657 10 105.797 10.09 105.97 10.13C106.143 10.17 106.333 10.19 106.54 10.19H106.93V10.78ZM111.89 10.92C111.477 10.92 111.103 10.8367 110.77 10.67C110.443 10.51 110.187 10.2633 110 9.93C109.813 9.60333 109.72 9.18667 109.72 8.68C109.72 7.93333 109.983 7.38333 110.51 7.03C111.037 6.67667 111.837 6.48 112.91 6.44L114.07 6.4V5.56C114.07 5.22 114.043 4.92333 113.99 4.67C113.93 4.41 113.807 4.20667 113.62 4.06C113.433 3.91333 113.15 3.84 112.77 3.84C112.417 3.84 112.147 3.90333 111.96 4.03C111.773 4.16333 111.65 4.34333 111.59 4.57C111.523 4.79667 111.49 5.06 111.49 5.36C111.103 5.36 110.81 5.29333 110.61 5.16C110.403 5.02667 110.3 4.8 110.3 4.48C110.3 4.15333 110.417 3.89333 110.65 3.7C110.877 3.5 111.18 3.35667 111.56 3.27C111.947 3.18333 112.367 3.14 112.82 3.14C113.68 3.14 114.323 3.32 114.75 3.68C115.177 4.04667 115.39 4.67333 115.39 5.56V9.18C115.39 9.44667 115.417 9.65 115.47 9.79C115.523 9.93667 115.617 10.04 115.75 10.1C115.883 10.16 116.05 10.19 116.25 10.19H116.3V10.78H114.41L114.18 9.58H114.07C113.877 9.84 113.687 10.07 113.5 10.27C113.313 10.47 113.097 10.6267 112.85 10.74C112.597 10.86 112.277 10.92 111.89 10.92ZM112.21 10.05C112.59 10.05 112.92 9.97 113.2 9.81C113.473 9.65667 113.687 9.43333 113.84 9.14C113.993 8.84 114.07 8.49667 114.07 8.11V6.97L113.17 7.01C112.643 7.03 112.227 7.11 111.92 7.25C111.62 7.39 111.403 7.58333 111.27 7.83C111.137 8.07667 111.07 8.38333 111.07 8.75C111.07 9.03667 111.113 9.27667 111.2 9.47C111.287 9.66333 111.413 9.81 111.58 9.91C111.747 10.0033 111.957 10.05 112.21 10.05ZM120.26 10.92C119.547 10.92 119.03 10.76 118.71 10.44C118.39 10.1133 118.23 9.55 118.23 8.75V4.07H117.16V3.51C117.333 3.51 117.52 3.47667 117.72 3.41C117.927 3.33667 118.107 3.22333 118.26 3.07C118.413 2.89667 118.543 2.69 118.65 2.45C118.75 2.21 118.833 1.91 118.9 1.55H119.54V3.28H121.38V4.07H119.54V8.79C119.54 9.27 119.64 9.62 119.84 9.84C120.033 10.0667 120.29 10.18 120.61 10.18C120.777 10.18 120.93 10.17 121.07 10.15C121.21 10.13 121.353 10.1067 121.5 10.08V10.7C121.38 10.7533 121.2 10.8033 120.96 10.85C120.713 10.8967 120.48 10.92 120.26 10.92ZM126.12 10.78H122.15V10.19H122.33C122.537 10.19 122.727 10.17 122.9 10.13C123.073 10.09 123.213 10 123.32 9.86C123.427 9.72667 123.48 9.52333 123.48 9.25V4.82C123.48 4.54 123.427 4.33 123.32 4.19C123.213 4.05667 123.073 3.97 122.9 3.93C122.727 3.88333 122.537 3.86 122.33 3.86H122.29V3.28H124.79V9.18C124.79 9.47333 124.843 9.69 124.95 9.83C125.05 9.97667 125.19 10.0733 125.37 10.12C125.543 10.1667 125.733 10.19 125.94 10.19H126.12V10.78ZM124.08 1.88C123.853 1.88 123.663 1.81333 123.51 1.68C123.357 1.54667 123.28 1.32333 123.28 1.01C123.28 0.683334 123.357 0.456667 123.51 0.33C123.663 0.203334 123.853 0.14 124.08 0.14C124.293 0.14 124.48 0.203334 124.64 0.33C124.8 0.456667 124.88 0.683334 124.88 1.01C124.88 1.32333 124.8 1.54667 124.64 1.68C124.48 1.81333 124.293 1.88 124.08 1.88Z" fill="black"/>
</svg>
