<svg width="126.57" height="25.13" viewBox="0 0 126.57 25.13" xmlns="http://www.w3.org/2000/svg"><path transform="translate(0 14.966) scale(.014 -.014)" d="m38 0v42h13q34 0 58 12.5t24 59.5v490q0 44-24.5 56t-57.5 12h-13v42h183l358-553v443q0 44-24.5 56t-57.5 12h-13v42h251v-42h-13q-34 0-58-12.5t-24-59.5v-600h-71l-375 576v-462q0-47 24-59.5t58-12.5h13v-42z"/><path transform="translate(10.682 14.966) scale(.014 -.014)" d="m287-10q-108 0-170 69t-62 210q0 140 59.5 208.5t175.5 68.5q108 0 170-68.5t62-208.5q0-141-59.5-210t-175.5-69zm2 52q75 0 105.5 57.5t30.5 169.5-31 168-106 56-105.5-56-30.5-168 31-169.5 106-57.5z"/><path transform="translate(18.76 14.966) scale(.014 -.014)" d="m240-10q-76 0-110.5 34.5t-34.5 120.5v334h-76v40q18 0 40 7.5t38 24.5q17 18 28 44t18 64h46v-123h131v-57h-131v-337q0-51 21-75t55-24q18 0 33 2t31 5v-44q-13-6-39-11t-50-5z"/><path transform="translate(23.688 14.966) scale(.014 -.014)" d="m287-10q-108 0-170 69t-62 210q0 140 59.5 208.5t175.5 68.5q108 0 170-68.5t62-208.5q0-141-59.5-210t-175.5-69zm2 52q75 0 105.5 57.5t30.5 169.5-31 168-106 56-105.5-56-30.5-168 31-169.5 106-57.5z"/><path transform="translate(35.406 14.966) scale(.014 -.014)" d="m247-10q-98 0-148.5 39t-50.5 102q0 30 19 48.5t53 18.5q2-41 16-77.5t43-59 76-22.5q67 0 105 32.5t38 93.5q0 37-14.5 62.5t-48 47.5-92.5 46q-93 38-138.5 89t-45.5 133q0 57 28.5 97.5t78 62 112.5 21.5q89 0 138-34t49-78q0-32-21.5-48.5t-57.5-16.5q0 31-10.5 60t-35 48-66.5 19q-58 0-90-31t-32-83q0-40 14.5-67.5t48.5-49 92-45.5q88-36 137-83t49-124q0-95-66.5-148t-179.5-53z"/><path transform="translate(43.022 14.966) scale(.014 -.014)" d="m287-10q-109 0-170.5 72t-61.5 202q0 140 58 211t164 71q97 0 152.5-60t55.5-179v-46h-333q2-109 39.5-158.5t109.5-49.5q52 0 88.5 21.5t54.5 48.5q7-3 13-12t6-22q0-20-19-43t-58-39.5-99-16.5zm97 325q0 80-24.5 128.5t-84.5 48.5q-55 0-85.5-45.5t-35.5-131.5z"/><path transform="translate(50.512 14.966) scale(.014 -.014)" d="m33 0v42h3q34 0 58 12.5t24 59.5v312q0 44-24.5 56t-57.5 12h-3v42h154l19-99h5q13 30 28 55t40 39.5 69 14.5q55 0 81.5-19t26.5-54q0-31-21.5-51t-71.5-20q0 41-12 59.5t-41 18.5q-28 0-47-22t-30-56-16-70.5-5-65.5v-157q0-44 24.5-55.5t57.5-11.5h28v-42z"/><path transform="translate(57.106 14.966) scale(.014 -.014)" d="m161 636q-24 0-40.5 14t-16.5 48q0 35 16.5 48.5t40.5 13.5q23 0 40-13.5t17-48.5q0-34-17-48t-40-14zm-138-636v42h13q33 0 57.5 11.5t24.5 55.5v317q0 44-24.5 56t-57.5 12h-3v42h179v-422q0-47 24-59.5t58-12.5h13v-42z"/><path transform="translate(61.586 14.966) scale(.014 -.014)" d="m27 0v42h13q34 0 58 12.5t24 59.5v375h-91v47h91v50q0 89 47.5 136.5t129.5 47.5q78 0 109-19.5t31-50.5q0-27-23-41.5t-59-14.5q0 30-14 55t-52 25q-43 0-59-33t-16-96v-59h141v-47h-141v-375q0-47 24-59.5t58-12.5h38v-42z"/><path transform="translate(70.392 14.966) scale(.014 -.014)" d="m38 0v42h13q34 0 58 12.5t24 59.5v490q0 44-24.5 56t-57.5 12h-13v42h268q130 0 193.5-43.5t63.5-135.5q0-67-35.5-103.5t-88.5-53.5v-4q68-12 111-56.5t43-124.5q0-193-257-193zm265 399q88 0 120.5 32t32.5 104q0 74-35 101.5t-120 27.5h-67v-265zm28-349q85 0 120 33t35 113q0 78-32.5 115.5t-120.5 37.5h-99v-299z"/><path transform="translate(79.548 14.966) scale(.014 -.014)" d="m205-10q-67 0-111 39t-44 121q0 80 56.5 118t171.5 42l83 3v60q0 36-6 63.5t-26 43.5-61 16q-38 0-58-14t-26.5-38.5-6.5-56.5q-42 0-63.5 14.5t-21.5 48.5q0 35 24.5 56t65.5 30.5 90 9.5q92 0 137.5-39t45.5-134v-259q0-42 14-57t48-15h3v-42h-135l-16 86h-8q-21-28-41-49.5t-46.5-34-68.5-12.5zm23 62q61 0 97 37.5t36 101.5v81l-64-3q-85-4-117.5-34.5t-32.5-89.5q0-93 81-93z"/><path transform="translate(87.43 14.966) scale(.014 -.014)" d="m13 0v42h13q34 0 58 12.5t24 59.5v536q0 44-24.5 56t-57.5 12h-13v42h189v-646q0-47 24-59.5t58-12.5h13v-42z"/><path transform="translate(91.77 14.966) scale(.014 -.014)" d="m161 636q-24 0-40.5 14t-16.5 48q0 35 16.5 48.5t40.5 13.5q23 0 40-13.5t17-48.5q0-34-17-48t-40-14zm-138-636v42h13q33 0 57.5 11.5t24.5 55.5v317q0 44-24.5 56t-57.5 12h-3v42h179v-422q0-47 24-59.5t58-12.5h13v-42z"/><path transform="translate(96.25 14.966) scale(.014 -.014)" d="m28 0v42h8q34 0 58 12.5t24 59.5v312q0 44-23.5 56t-56.5 12h-5v42h162l13-81h5q31 56 69.5 73.5t86.5 17.5q79 0 123.5-46.5t44.5-149.5v-236q0-47 20.5-59.5t54.5-12.5h5v-42h-174v345q0 65-24.5 101t-85.5 36q-45 0-71.5-22.5t-38-59.5-11.5-80v-211q0-44 23.5-55.5t56.5-11.5h5v-42z"/><path transform="translate(105.28 14.966) scale(.014 -.014)" d="m287-10q-109 0-170.5 72t-61.5 202q0 140 58 211t164 71q97 0 152.5-60t55.5-179v-46h-333q2-109 39.5-158.5t109.5-49.5q52 0 88.5 21.5t54.5 48.5q7-3 13-12t6-22q0-20-19-43t-58-39.5-99-16.5zm97 325q0 80-24.5 128.5t-84.5 48.5q-55 0-85.5-45.5t-35.5-131.5z"/><path transform="translate(112.77 14.966) scale(.014 -.014)" d="m210-10q-75 0-120 27t-45 79q0 27 11 42t25.5 21 26.5 6q0-52 23.5-89.5t84.5-37.5q53 0 81.5 25.5t28.5 65.5q0 25-10.5 41t-37 31.5-75.5 36.5q-51 23-84.5 44.5t-50 50-16.5 71.5q0 68 51.5 104.5t136.5 36.5q72 0 109-27t37-65q0-27-18.5-43.5t-53.5-16.5q0 50-21 78t-65 28q-51 0-73-22.5t-22-57.5q0-38 28.5-58.5t95.5-47.5q53-22 86-44t48.5-51 15.5-71q0-78-54-117.5t-143-39.5z"/><path transform="translate(119.08 14.966) scale(.014 -.014)" d="m287-10q-109 0-170.5 72t-61.5 202q0 140 58 211t164 71q97 0 152.5-60t55.5-179v-46h-333q2-109 39.5-158.5t109.5-49.5q52 0 88.5 21.5t54.5 48.5q7-3 13-12t6-22q0-20-19-43t-58-39.5-99-16.5zm97 325q0 80-24.5 128.5t-84.5 48.5q-55 0-85.5-45.5t-35.5-131.5z"/></svg>