<svg width="153" height="14" viewBox="0 0 153 14" fill="none" xmlns="http://www.w3.org/2000/svg">
<path d="M8.42 0.64V10.64H6.95L1.6 2.34H1.55C1.57 2.66667 1.59333 3.07333 1.62 3.56C1.64667 4.04 1.66 4.53667 1.66 5.05V10.64H0.5V0.64H1.95L7.29 8.92H7.34C7.33333 8.76667 7.32333 8.54333 7.31 8.25C7.29667 7.95 7.28333 7.62333 7.27 7.27C7.25667 6.91 7.25 6.58333 7.25 6.29V0.64H8.42ZM17.49 6.87C17.49 8.11667 17.1767 9.08 16.55 9.76C15.9167 10.44 15.0633 10.78 13.99 10.78C13.33 10.78 12.74 10.63 12.22 10.33C11.7067 10.0233 11.3 9.58 11 9C10.7 8.41333 10.55 7.70333 10.55 6.87C10.55 5.63 10.8633 4.67333 11.49 4C12.1167 3.33333 12.9667 3 14.04 3C14.72 3 15.32 3.15 15.84 3.45C16.3533 3.75667 16.7567 4.19667 17.05 4.77C17.3433 5.34333 17.49 6.04333 17.49 6.87ZM11.82 6.87C11.82 7.75667 11.9967 8.46 12.35 8.98C12.6967 9.5 13.2533 9.76 14.02 9.76C14.78 9.76 15.3367 9.5 15.69 8.98C16.0433 8.46 16.22 7.75667 16.22 6.87C16.22 5.98333 16.0433 5.29 15.69 4.79C15.3367 4.28333 14.7767 4.03 14.01 4.03C13.2433 4.03 12.6867 4.28333 12.34 4.79C11.9933 5.29 11.82 5.98333 11.82 6.87ZM21.95 9.77C22.1367 9.77 22.3267 9.75333 22.52 9.72C22.7133 9.68667 22.8733 9.65333 23 9.62V10.56C22.8667 10.62 22.68 10.6733 22.44 10.72C22.1933 10.76 21.96 10.78 21.74 10.78C21.3467 10.78 20.9833 10.7133 20.65 10.58C20.3167 10.44 20.05 10.2033 19.85 9.87C19.6433 9.53667 19.54 9.06667 19.54 8.46V4.09H18.47V3.5L19.55 3.01L20.04 1.41H20.77V3.14H22.94V4.09H20.77V8.43C20.77 8.88333 20.88 9.22 21.1 9.44C21.32 9.66 21.6033 9.77 21.95 9.77ZM31.02 6.87C31.02 8.11667 30.7033 9.08 30.07 9.76C29.4433 10.44 28.5933 10.78 27.52 10.78C26.8533 10.78 26.2633 10.63 25.75 10.33C25.23 10.0233 24.82 9.58 24.52 9C24.22 8.41333 24.07 7.70333 24.07 6.87C24.07 5.63 24.3833 4.67333 25.01 4C25.6367 3.33333 26.4867 3 27.56 3C28.24 3 28.84 3.15 29.36 3.45C29.88 3.75667 30.2867 4.19667 30.58 4.77C30.8733 5.34333 31.02 6.04333 31.02 6.87ZM25.35 6.87C25.35 7.75667 25.5233 8.46 25.87 8.98C26.2233 9.5 26.7833 9.76 27.55 9.76C28.3033 9.76 28.8567 9.5 29.21 8.98C29.5633 8.46 29.74 7.75667 29.74 6.87C29.74 5.98333 29.5633 5.29 29.21 4.79C28.8567 4.28333 28.2967 4.03 27.53 4.03C26.7633 4.03 26.21 4.28333 25.87 4.79C25.5233 5.29 25.35 5.98333 25.35 6.87ZM41.6 7.97C41.6 8.85667 41.28 9.54667 40.64 10.04C39.9933 10.5333 39.1233 10.78 38.03 10.78C37.47 10.78 36.9533 10.7367 36.48 10.65C36 10.57 35.6033 10.4533 35.29 10.3V9.1C35.6233 9.24667 36.04 9.38333 36.54 9.51C37.04 9.63 37.5567 9.69 38.09 9.69C38.8367 9.69 39.3967 9.54333 39.77 9.25C40.15 8.96333 40.34 8.57333 40.34 8.08C40.34 7.75333 40.27 7.47667 40.13 7.25C39.99 7.03 39.75 6.82333 39.41 6.63C39.07 6.43667 38.5967 6.23333 37.99 6.02C37.5633 5.86 37.1867 5.69 36.86 5.51C36.54 5.33 36.2733 5.12333 36.06 4.89C35.8467 4.65667 35.6833 4.39 35.57 4.09C35.4633 3.79 35.41 3.44333 35.41 3.05C35.41 2.51667 35.5467 2.06333 35.82 1.69C36.0933 1.31 36.47 1.01667 36.95 0.81C37.43 0.603333 37.9833 0.5 38.61 0.5C39.1567 0.5 39.66 0.553333 40.12 0.66C40.5733 0.76 40.9867 0.893333 41.36 1.06L40.97 2.14C40.6233 1.99333 40.2467 1.86667 39.84 1.76C39.44 1.66 39.02 1.61 38.58 1.61C37.9533 1.61 37.48 1.74333 37.16 2.01C36.8467 2.27667 36.69 2.63 36.69 3.07C36.69 3.40333 36.76 3.68333 36.9 3.91C37.04 4.13 37.2667 4.33 37.58 4.51C37.9 4.68333 38.33 4.87333 38.87 5.08C39.4567 5.29333 39.9533 5.52333 40.36 5.77C40.7667 6.02333 41.0767 6.32 41.29 6.66C41.4967 7.00667 41.6 7.44333 41.6 7.97ZM46.29 3.01C47.2033 3.01 47.88 3.21 48.32 3.61C48.76 4.01 48.98 4.65 48.98 5.53V10.64H48.08L47.85 9.58H47.79C47.4633 9.98667 47.12 10.29 46.76 10.49C46.4 10.6833 45.9033 10.78 45.27 10.78C44.59 10.78 44.0267 10.6 43.58 10.24C43.1267 9.88 42.9 9.31667 42.9 8.55C42.9 7.80333 43.1967 7.23 43.79 6.83C44.3767 6.42333 45.28 6.2 46.5 6.16L47.78 6.12V5.67C47.78 5.04333 47.6433 4.61 47.37 4.37C47.0967 4.12333 46.7133 4 46.22 4C45.8267 4 45.4533 4.06 45.1 4.18C44.7467 4.29333 44.4167 4.42667 44.11 4.58L43.73 3.65C44.0567 3.47667 44.4433 3.32667 44.89 3.2C45.3367 3.07333 45.8033 3.01 46.29 3.01ZM47.76 6.97L46.66 7.01C45.7267 7.05 45.08 7.2 44.72 7.46C44.36 7.72 44.18 8.09 44.18 8.57C44.18 8.99 44.3067 9.29667 44.56 9.49C44.82 9.69 45.15 9.79 45.55 9.79C46.1833 9.79 46.71 9.61333 47.13 9.26C47.55 8.91333 47.76 8.37333 47.76 7.64V6.97ZM54.92 3C55.8133 3 56.49 3.21667 56.95 3.65C57.4033 4.08333 57.63 4.78333 57.63 5.75V10.64H56.41V5.84C56.41 5.23333 56.2767 4.78 56.01 4.48C55.7367 4.18 55.31 4.03 54.73 4.03C53.9033 4.03 53.33 4.26333 53.01 4.73C52.6967 5.19667 52.54 5.87 52.54 6.75V10.64H51.3V3.14H52.3L52.48 4.16H52.55C52.79 3.76667 53.1267 3.47333 53.56 3.28C53.9867 3.09333 54.44 3 54.92 3ZM64.84 8.57C64.84 9.29667 64.57 9.84667 64.03 10.22C63.49 10.5933 62.7633 10.78 61.85 10.78C61.3233 10.78 60.87 10.7367 60.49 10.65C60.1167 10.57 59.7833 10.4533 59.49 10.3V9.18C59.79 9.33333 60.1533 9.47333 60.58 9.6C61.0067 9.72667 61.4367 9.79 61.87 9.79C62.4967 9.79 62.95 9.69 63.23 9.49C63.51 9.28333 63.65 9.01333 63.65 8.68C63.65 8.49333 63.6 8.32667 63.5 8.18C63.3933 8.02667 63.2067 7.87667 62.94 7.73C62.68 7.57667 62.3 7.40667 61.8 7.22C61.32 7.03333 60.9067 6.84667 60.56 6.66C60.2133 6.47333 59.9467 6.25 59.76 5.99C59.5733 5.73 59.48 5.39333 59.48 4.98C59.48 4.34667 59.74 3.85667 60.26 3.51C60.7733 3.17 61.45 3 62.29 3C62.75 3 63.18 3.04333 63.58 3.13C63.9733 3.21667 64.3433 3.34 64.69 3.5L64.27 4.48C63.95 4.34667 63.6167 4.23333 63.27 4.14C62.93 4.04667 62.5767 4 62.21 4C61.7033 4 61.3167 4.08333 61.05 4.25C60.79 4.41 60.66 4.63 60.66 4.91C60.66 5.11667 60.72 5.29333 60.84 5.44C60.96 5.58667 61.1633 5.72667 61.45 5.86C61.73 5.99333 62.11 6.15333 62.59 6.34C63.0633 6.52 63.47 6.70333 63.81 6.89C64.1433 7.07667 64.4 7.30333 64.58 7.57C64.7533 7.83667 64.84 8.17 64.84 8.57ZM77.55 0.64V10.64H76.08L70.74 2.34H70.68C70.7 2.66667 70.7233 3.07333 70.75 3.56C70.7767 4.04 70.79 4.53667 70.79 5.05V10.64H69.63V0.64H71.09L76.42 8.92H76.48C76.4667 8.76667 76.4533 8.54333 76.44 8.25C76.4267 7.95 76.4133 7.62333 76.4 7.27C76.3867 6.91 76.38 6.58333 76.38 6.29V0.64H77.55ZM82.94 3.01C83.86 3.01 84.5367 3.21 84.97 3.61C85.41 4.01 85.63 4.65 85.63 5.53V10.64H84.74L84.5 9.58H84.44C84.1133 9.98667 83.77 10.29 83.41 10.49C83.05 10.6833 82.5533 10.78 81.92 10.78C81.24 10.78 80.6767 10.6 80.23 10.24C79.7833 9.88 79.56 9.31667 79.56 8.55C79.56 7.80333 79.8533 7.23 80.44 6.83C81.0267 6.42333 81.93 6.2 83.15 6.16L84.43 6.12V5.67C84.43 5.04333 84.2933 4.61 84.02 4.37C83.7533 4.12333 83.37 4 82.87 4C82.4833 4 82.11 4.06 81.75 4.18C81.3967 4.29333 81.0667 4.42667 80.76 4.58L80.38 3.65C80.7067 3.47667 81.0933 3.32667 81.54 3.2C81.9933 3.07333 82.46 3.01 82.94 3.01ZM84.41 6.97L83.31 7.01C82.3767 7.05 81.73 7.2 81.37 7.46C81.01 7.72 80.83 8.09 80.83 8.57C80.83 8.99 80.9567 9.29667 81.21 9.49C81.47 9.69 81.8 9.79 82.2 9.79C82.8333 9.79 83.36 9.61333 83.78 9.26C84.2 8.91333 84.41 8.37333 84.41 7.64V6.97ZM90.62 3C91.1133 3 91.5567 3.09333 91.95 3.28C92.35 3.46667 92.69 3.75 92.97 4.13H93.04L93.21 3.14H94.19V10.77C94.19 11.8433 93.9167 12.65 93.37 13.19C92.8233 13.73 91.9767 14 90.83 14C90.2833 14 89.7833 13.96 89.33 13.88C88.8833 13.8 88.48 13.68 88.12 13.52V12.39C88.86 12.7833 89.7867 12.98 90.9 12.98C91.54 12.98 92.0433 12.79 92.41 12.41C92.7833 12.03 92.97 11.5133 92.97 10.86V10.57C92.97 10.4567 92.9733 10.2967 92.98 10.09C92.9933 9.87667 93.0033 9.73 93.01 9.65H92.95C92.69 10.03 92.3667 10.3133 91.98 10.5C91.5933 10.6867 91.1433 10.78 90.63 10.78C89.6567 10.78 88.8967 10.44 88.35 9.76C87.81 9.08 87.54 8.12667 87.54 6.9C87.54 5.70667 87.81 4.75667 88.35 4.05C88.8967 3.35 89.6533 3 90.62 3ZM90.78 4.03C90.16 4.03 89.6767 4.28 89.33 4.78C88.9833 5.28 88.81 5.99333 88.81 6.92C88.81 7.84 88.98 8.54667 89.32 9.04C89.66 9.52667 90.1567 9.77 90.81 9.77C91.57 9.77 92.12 9.56667 92.46 9.16C92.8067 8.75333 92.98 8.1 92.98 7.2V6.9C92.98 5.87333 92.8033 5.14 92.45 4.7C92.0967 4.25333 91.54 4.03 90.78 4.03ZM104.98 10.64H103.94L100.65 1.88H100.6C100.62 2.06667 100.637 2.30333 100.65 2.59C100.663 2.87667 100.673 3.19 100.68 3.53C100.693 3.87667 100.7 4.22667 100.7 4.58V10.64H99.53V0.64H101.4L104.48 8.83H104.53L107.67 0.64H109.52V10.64H108.27V4.49C108.27 4.16333 108.273 3.84 108.28 3.52C108.293 3.2 108.31 2.89667 108.33 2.61C108.343 2.32333 108.357 2.08333 108.37 1.89H108.31L104.98 10.64ZM117.1 3.14H118.34V10.64H117.33L117.15 9.65H117.09C116.85 10.0367 116.513 10.3233 116.08 10.51C115.653 10.69 115.197 10.78 114.71 10.78C113.803 10.78 113.123 10.5633 112.67 10.13C112.21 9.69667 111.98 9.00333 111.98 8.05V3.14H113.23V7.97C113.23 8.56333 113.363 9.01 113.63 9.31C113.903 9.61 114.323 9.76 114.89 9.76C115.723 9.76 116.3 9.52667 116.62 9.06C116.94 8.59333 117.1 7.92 117.1 7.04V3.14ZM124.33 3C125.223 3 125.9 3.21667 126.36 3.65C126.813 4.08333 127.04 4.78333 127.04 5.75V10.64H125.83V5.84C125.83 5.23333 125.693 4.78 125.42 4.48C125.147 4.18 124.723 4.03 124.15 4.03C123.317 4.03 122.74 4.26333 122.42 4.73C122.107 5.19667 121.95 5.87 121.95 6.75V10.64H120.72V3.14H121.71L121.89 4.16H121.96C122.207 3.76667 122.543 3.47333 122.97 3.28C123.397 3.09333 123.85 3 124.33 3ZM132.03 10.78C131.097 10.78 130.35 10.4567 129.79 9.81C129.23 9.15667 128.95 8.18667 128.95 6.9C128.95 5.61333 129.23 4.64 129.79 3.98C130.357 3.32667 131.107 3 132.04 3C132.62 3 133.093 3.10667 133.46 3.32C133.833 3.53333 134.137 3.79333 134.37 4.1H134.45C134.443 3.98 134.427 3.8 134.4 3.56C134.38 3.32667 134.37 3.14 134.37 3V0H135.6V10.64H134.6L134.42 9.63H134.37C134.143 9.95 133.843 10.22 133.47 10.44C133.097 10.6667 132.617 10.78 132.03 10.78ZM132.22 9.76C133.013 9.76 133.573 9.54333 133.9 9.11C134.22 8.67667 134.38 8.02 134.38 7.14V6.92C134.38 5.98667 134.227 5.27 133.92 4.77C133.613 4.27 133.043 4.02 132.21 4.02C131.55 4.02 131.053 4.28333 130.72 4.81C130.387 5.33667 130.22 6.04333 130.22 6.93C130.22 7.82333 130.387 8.52 130.72 9.02C131.053 9.51333 131.553 9.76 132.22 9.76ZM140.82 3.01C141.733 3.01 142.41 3.21 142.85 3.61C143.29 4.01 143.51 4.65 143.51 5.53V10.64H142.61L142.37 9.58H142.32C141.993 9.98667 141.65 10.29 141.29 10.49C140.93 10.6833 140.433 10.78 139.8 10.78C139.12 10.78 138.553 10.6 138.1 10.24C137.653 9.88 137.43 9.31667 137.43 8.55C137.43 7.80333 137.723 7.23 138.31 6.83C138.903 6.42333 139.81 6.2 141.03 6.16L142.3 6.12V5.67C142.3 5.04333 142.167 4.61 141.9 4.37C141.627 4.12333 141.243 4 140.75 4C140.357 4 139.983 4.06 139.63 4.18C139.277 4.29333 138.947 4.42667 138.64 4.58L138.26 3.65C138.587 3.47667 138.973 3.32667 139.42 3.2C139.867 3.07333 140.333 3.01 140.82 3.01ZM142.29 6.97L141.18 7.01C140.247 7.05 139.6 7.2 139.24 7.46C138.887 7.72 138.71 8.09 138.71 8.57C138.71 8.99 138.837 9.29667 139.09 9.49C139.35 9.69 139.68 9.79 140.08 9.79C140.713 9.79 141.24 9.61333 141.66 9.26C142.08 8.91333 142.29 8.37333 142.29 7.64V6.97ZM149.33 3C149.47 3 149.623 3.00667 149.79 3.02C149.95 3.03333 150.09 3.05333 150.21 3.08L150.06 4.21C149.94 4.18333 149.807 4.16 149.66 4.14C149.513 4.12667 149.377 4.12 149.25 4.12C148.863 4.12 148.503 4.22333 148.17 4.43C147.837 4.64333 147.567 4.93667 147.36 5.31C147.16 5.69 147.06 6.13333 147.06 6.64V10.64H145.83V3.14H146.84L146.98 4.51H147.04C147.28 4.09667 147.59 3.74 147.97 3.44C148.357 3.14667 148.81 3 149.33 3ZM151.61 3.14H152.85V10.64H151.61V3.14ZM152.24 0.32C152.427 0.32 152.593 0.383333 152.74 0.51C152.887 0.636666 152.96 0.836666 152.96 1.11C152.96 1.37 152.887 1.56333 152.74 1.69C152.593 1.82333 152.427 1.89 152.24 1.89C152.04 1.89 151.87 1.82333 151.73 1.69C151.59 1.56333 151.52 1.37 151.52 1.11C151.52 0.836666 151.59 0.636666 151.73 0.51C151.87 0.383333 152.04 0.32 152.24 0.32Z" fill="black"/>
</svg>
