<svg width="137" height="11" viewBox="0 0 137 11" fill="none" xmlns="http://www.w3.org/2000/svg">
<path d="M8.42 0.64V10.64H6.95L1.6 2.34H1.55C1.57 2.66667 1.59333 3.07333 1.62 3.56C1.64667 4.04 1.66 4.53667 1.66 5.05V10.64H0.5V0.64H1.95L7.29 8.92H7.34C7.33333 8.76667 7.32333 8.54333 7.31 8.25C7.29667 7.95 7.28333 7.62333 7.27 7.27C7.25667 6.91 7.25 6.58333 7.25 6.29V0.64H8.42ZM17.49 6.87C17.49 8.11667 17.1767 9.08 16.55 9.76C15.9167 10.44 15.0633 10.78 13.99 10.78C13.33 10.78 12.74 10.63 12.22 10.33C11.7067 10.0233 11.3 9.58 11 9C10.7 8.41333 10.55 7.70333 10.55 6.87C10.55 5.63 10.8633 4.67333 11.49 4C12.1167 3.33333 12.9667 3 14.04 3C14.72 3 15.32 3.15 15.84 3.45C16.3533 3.75667 16.7567 4.19667 17.05 4.77C17.3433 5.34333 17.49 6.04333 17.49 6.87ZM11.82 6.87C11.82 7.75667 11.9967 8.46 12.35 8.98C12.6967 9.5 13.2533 9.76 14.02 9.76C14.78 9.76 15.3367 9.5 15.69 8.98C16.0433 8.46 16.22 7.75667 16.22 6.87C16.22 5.98333 16.0433 5.29 15.69 4.79C15.3367 4.28333 14.7767 4.03 14.01 4.03C13.2433 4.03 12.6867 4.28333 12.34 4.79C11.9933 5.29 11.82 5.98333 11.82 6.87ZM21.95 9.77C22.1367 9.77 22.3267 9.75333 22.52 9.72C22.7133 9.68667 22.8733 9.65333 23 9.62V10.56C22.8667 10.62 22.68 10.6733 22.44 10.72C22.1933 10.76 21.96 10.78 21.74 10.78C21.3467 10.78 20.9833 10.7133 20.65 10.58C20.3167 10.44 20.05 10.2033 19.85 9.87C19.6433 9.53667 19.54 9.06667 19.54 8.46V4.09H18.47V3.5L19.55 3.01L20.04 1.41H20.77V3.14H22.94V4.09H20.77V8.43C20.77 8.88333 20.88 9.22 21.1 9.44C21.32 9.66 21.6033 9.77 21.95 9.77ZM31.02 6.87C31.02 8.11667 30.7033 9.08 30.07 9.76C29.4433 10.44 28.5933 10.78 27.52 10.78C26.8533 10.78 26.2633 10.63 25.75 10.33C25.23 10.0233 24.82 9.58 24.52 9C24.22 8.41333 24.07 7.70333 24.07 6.87C24.07 5.63 24.3833 4.67333 25.01 4C25.6367 3.33333 26.4867 3 27.56 3C28.24 3 28.84 3.15 29.36 3.45C29.88 3.75667 30.2867 4.19667 30.58 4.77C30.8733 5.34333 31.02 6.04333 31.02 6.87ZM25.35 6.87C25.35 7.75667 25.5233 8.46 25.87 8.98C26.2233 9.5 26.7833 9.76 27.55 9.76C28.3033 9.76 28.8567 9.5 29.21 8.98C29.5633 8.46 29.74 7.75667 29.74 6.87C29.74 5.98333 29.5633 5.29 29.21 4.79C28.8567 4.28333 28.2967 4.03 27.53 4.03C26.7633 4.03 26.21 4.28333 25.87 4.79C25.5233 5.29 25.35 5.98333 25.35 6.87ZM42.44 7.97C42.44 8.85667 42.12 9.54667 41.48 10.04C40.8333 10.5333 39.9633 10.78 38.87 10.78C38.31 10.78 37.7933 10.7367 37.32 10.65C36.84 10.57 36.4433 10.4533 36.13 10.3V9.1C36.4633 9.24667 36.88 9.38333 37.38 9.51C37.88 9.63 38.3967 9.69 38.93 9.69C39.6767 9.69 40.24 9.54333 40.62 9.25C40.9933 8.96333 41.18 8.57333 41.18 8.08C41.18 7.75333 41.11 7.47667 40.97 7.25C40.83 7.03 40.59 6.82333 40.25 6.63C39.91 6.43667 39.4367 6.23333 38.83 6.02C37.9833 5.71333 37.3433 5.33667 36.91 4.89C36.47 4.43667 36.25 3.82333 36.25 3.05C36.25 2.51667 36.3867 2.06333 36.66 1.69C36.9333 1.31 37.31 1.01667 37.79 0.81C38.27 0.603333 38.8233 0.5 39.45 0.5C39.9967 0.5 40.5 0.553333 40.96 0.66C41.4133 0.76 41.8267 0.893333 42.2 1.06L41.81 2.14C41.4633 1.99333 41.09 1.86667 40.69 1.76C40.2833 1.66 39.86 1.61 39.42 1.61C38.7933 1.61 38.32 1.74333 38 2.01C37.6867 2.27667 37.53 2.63 37.53 3.07C37.53 3.40333 37.6 3.68333 37.74 3.91C37.88 4.13 38.1067 4.33 38.42 4.51C38.74 4.68333 39.17 4.87333 39.71 5.08C40.2967 5.29333 40.7933 5.52333 41.2 5.77C41.6067 6.02333 41.9167 6.32 42.13 6.66C42.3367 7.00667 42.44 7.44333 42.44 7.97ZM47.13 3.01C48.0433 3.01 48.72 3.21 49.16 3.61C49.6 4.01 49.82 4.65 49.82 5.53V10.64H48.92L48.69 9.58H48.63C48.3033 9.98667 47.96 10.29 47.6 10.49C47.24 10.6833 46.7433 10.78 46.11 10.78C45.43 10.78 44.8667 10.6 44.42 10.24C43.9667 9.88 43.74 9.31667 43.74 8.55C43.74 7.80333 44.0367 7.23 44.63 6.83C45.2167 6.42333 46.12 6.2 47.34 6.16L48.62 6.12V5.67C48.62 5.04333 48.4833 4.61 48.21 4.37C47.9367 4.12333 47.5533 4 47.06 4C46.6667 4 46.2933 4.06 45.94 4.18C45.5867 4.29333 45.2567 4.42667 44.95 4.58L44.57 3.65C44.8967 3.47667 45.2833 3.32667 45.73 3.2C46.1767 3.07333 46.6433 3.01 47.13 3.01ZM48.6 6.97L47.5 7.01C46.5667 7.05 45.92 7.2 45.56 7.46C45.2 7.72 45.02 8.09 45.02 8.57C45.02 8.99 45.1467 9.29667 45.4 9.49C45.66 9.69 45.99 9.79 46.39 9.79C47.0233 9.79 47.55 9.61333 47.97 9.26C48.39 8.91333 48.6 8.37333 48.6 7.64V6.97ZM55.76 3C56.6533 3 57.33 3.21667 57.79 3.65C58.2433 4.08333 58.47 4.78333 58.47 5.75V10.64H57.25V5.84C57.25 4.63333 56.69 4.03 55.57 4.03C54.7433 4.03 54.17 4.26333 53.85 4.73C53.5367 5.19667 53.38 5.87 53.38 6.75V10.64H52.14V3.14H53.14L53.32 4.16H53.39C53.63 3.76667 53.9667 3.47333 54.4 3.28C54.8267 3.09333 55.28 3 55.76 3ZM65.68 8.57C65.68 9.29667 65.41 9.84667 64.87 10.22C64.33 10.5933 63.6033 10.78 62.69 10.78C62.1633 10.78 61.7133 10.7367 61.34 10.65C60.96 10.57 60.6233 10.4533 60.33 10.3V9.18C60.63 9.33333 60.9933 9.47333 61.42 9.6C61.8467 9.72667 62.2767 9.79 62.71 9.79C63.3367 9.79 63.79 9.69 64.07 9.49C64.35 9.28333 64.49 9.01333 64.49 8.68C64.49 8.49333 64.44 8.32667 64.34 8.18C64.2333 8.02667 64.0467 7.87667 63.78 7.73C63.52 7.57667 63.14 7.40667 62.64 7.22C62.16 7.03333 61.7467 6.84667 61.4 6.66C61.0533 6.47333 60.7867 6.25 60.6 5.99C60.4133 5.73 60.32 5.39333 60.32 4.98C60.32 4.34667 60.58 3.85667 61.1 3.51C61.6133 3.17 62.29 3 63.13 3C63.59 3 64.02 3.04333 64.42 3.13C64.8133 3.21667 65.1833 3.34 65.53 3.5L65.11 4.48C64.79 4.34667 64.4567 4.23333 64.11 4.14C63.77 4.04667 63.4167 4 63.05 4C62.5433 4 62.16 4.08333 61.9 4.25C61.6333 4.41 61.5 4.63 61.5 4.91C61.5 5.11667 61.56 5.29333 61.68 5.44C61.8 5.58667 62.0033 5.72667 62.29 5.86C62.57 5.99333 62.95 6.15333 63.43 6.34C63.9033 6.52 64.31 6.70333 64.65 6.89C64.9833 7.07667 65.24 7.30333 65.42 7.57C65.5933 7.83667 65.68 8.17 65.68 8.57ZM80.03 5.63C80.03 6.66333 79.8567 7.56667 79.51 8.34C79.1567 9.10667 78.64 9.70667 77.96 10.14C77.28 10.5667 76.4367 10.78 75.43 10.78C74.39 10.78 73.5267 10.5667 72.84 10.14C72.1533 9.70667 71.6433 9.10333 71.31 8.33C70.9767 7.55667 70.81 6.65 70.81 5.61C70.81 4.58333 70.9767 3.69 71.31 2.93C71.6433 2.16333 72.1533 1.56333 72.84 1.13C73.5267 0.703333 74.3933 0.49 75.44 0.49C76.44 0.49 77.28 0.703333 77.96 1.13C78.64 1.55 79.1567 2.14667 79.51 2.92C79.8567 3.68667 80.03 4.59 80.03 5.63ZM72.14 5.63C72.14 6.89 72.4033 7.88 72.93 8.6C73.4633 9.32667 74.2967 9.69 75.43 9.69C76.5633 9.69 77.3933 9.32667 77.92 8.6C78.44 7.88 78.7 6.89 78.7 5.63C78.7 4.37 78.44 3.38333 77.92 2.67C77.3933 1.95667 76.5667 1.6 75.44 1.6C74.3133 1.6 73.48 1.95667 72.94 2.67C72.4067 3.38333 72.14 4.37 72.14 5.63ZM83.31 0V10.64H82.08V0H83.31ZM88.35 10.78C87.4167 10.78 86.67 10.4567 86.11 9.81C85.55 9.15667 85.27 8.18667 85.27 6.9C85.27 5.61333 85.55 4.64 86.11 3.98C86.6767 3.32667 87.4267 3 88.36 3C88.94 3 89.4133 3.10667 89.78 3.32C90.1533 3.53333 90.4567 3.79333 90.69 4.1H90.77C90.7633 3.98 90.7467 3.8 90.72 3.56C90.7 3.32667 90.69 3.14 90.69 3V0H91.92V10.64H90.92L90.74 9.63H90.69C90.4633 9.95 90.1633 10.22 89.79 10.44C89.4167 10.6667 88.9367 10.78 88.35 10.78ZM88.54 9.76C89.3333 9.76 89.8933 9.54333 90.22 9.11C90.54 8.67667 90.7 8.02 90.7 7.14V6.92C90.7 5.98667 90.5467 5.27 90.24 4.77C89.9333 4.27 89.3633 4.02 88.53 4.02C87.87 4.02 87.3733 4.28333 87.04 4.81C86.7067 5.33667 86.54 6.04333 86.54 6.93C86.54 7.82333 86.7067 8.52 87.04 9.02C87.3733 9.51333 87.8733 9.76 88.54 9.76ZM101.27 1.75V10.64H100.01V1.75H96.89V0.64H104.38V1.75H101.27ZM110.76 3.14H111.99V10.64H110.99L110.8 9.65H110.75C110.503 10.0367 110.167 10.3233 109.74 10.51C109.313 10.69 108.857 10.78 108.37 10.78C107.463 10.78 106.78 10.5633 106.32 10.13C105.867 9.69667 105.64 9.00333 105.64 8.05V3.14H106.88V7.97C106.88 9.16333 107.437 9.76 108.55 9.76C109.383 9.76 109.96 9.52667 110.28 9.06C110.6 8.59333 110.76 7.92 110.76 7.04V3.14ZM117.87 3C118.01 3 118.163 3.00667 118.33 3.02C118.49 3.03333 118.633 3.05333 118.76 3.08L118.6 4.21C118.48 4.18333 118.347 4.16 118.2 4.14C118.06 4.12667 117.923 4.12 117.79 4.12C117.41 4.12 117.05 4.22333 116.71 4.43C116.377 4.64333 116.11 4.93667 115.91 5.31C115.71 5.69 115.61 6.13333 115.61 6.64V10.64H114.37V3.14H115.38L115.52 4.51H115.58C115.82 4.09667 116.133 3.74 116.52 3.44C116.9 3.14667 117.35 3 117.87 3ZM121.37 0V5.56C121.37 5.70667 121.363 5.90333 121.35 6.15C121.337 6.39 121.327 6.6 121.32 6.78H121.37C121.43 6.7 121.517 6.59 121.63 6.45C121.737 6.31 121.85 6.17 121.97 6.03C122.083 5.88333 122.183 5.76333 122.27 5.67L124.66 3.14H126.11L123.07 6.34L126.32 10.64H124.83L122.23 7.14L121.37 7.88V10.64H120.16V0H121.37ZM128.26 0.32C128.447 0.32 128.613 0.383333 128.76 0.51C128.907 0.636666 128.98 0.836666 128.98 1.11C128.98 1.37 128.907 1.56333 128.76 1.69C128.613 1.82333 128.447 1.89 128.26 1.89C128.053 1.89 127.88 1.82333 127.74 1.69C127.6 1.56333 127.53 1.37 127.53 1.11C127.53 0.836666 127.6 0.636666 127.74 0.51C127.88 0.383333 128.053 0.32 128.26 0.32ZM127.63 3.14H128.86V10.64H127.63V3.14ZM134.25 10.78C133.59 10.78 133 10.6433 132.48 10.37C131.967 10.1033 131.563 9.68333 131.27 9.11C130.97 8.54333 130.82 7.81667 130.82 6.93C130.82 6.00333 130.977 5.25333 131.29 4.68C131.597 4.1 132.013 3.67333 132.54 3.4C133.067 3.13333 133.667 3 134.34 3C134.72 3 135.087 3.03667 135.44 3.11C135.8 3.19 136.09 3.28667 136.31 3.4L135.93 4.42C135.71 4.34 135.45 4.26333 135.15 4.19C134.85 4.11 134.57 4.07 134.31 4.07C132.837 4.07 132.1 5.02 132.1 6.92C132.1 7.82 132.28 8.51333 132.64 9C133 9.48 133.533 9.72 134.24 9.72C134.653 9.72 135.013 9.67667 135.32 9.59C135.633 9.50333 135.923 9.4 136.19 9.28V10.37C135.937 10.5033 135.657 10.6067 135.35 10.68C135.05 10.7467 134.683 10.78 134.25 10.78Z" fill="black"/>
</svg>
