<svg width="126.13" height="28.7" viewBox="0 0 126.13 28.7" xmlns="http://www.w3.org/2000/svg"><path transform="translate(0 20.72) scale(.014 -.014)" d="m97 0v714h104l381-591h4q-1 16-2.5 48t-3 70-1.5 70v403h84v-714h-105l-382 593h-4q2-23 3.5-54.5t3-67 1.5-72.5v-399z"/><path transform="translate(10.64 20.72) scale(.014 -.014)" d="m301-10q-71 0-126.5 32.5t-87.5 95-32 151.5q0 133 67 205t182 72q73 0 128.5-32.5t87-94 31.5-150.5-30.5-151.5-86.5-95-133-32.5zm2 73q54 0 89 25t51.5 71.5 16.5 109.5q0 64-17 109t-51.5 69.5-89.5 24.5q-82 0-119-54t-37-149q0-63 16.5-109.5t51.5-71.5 89-25z"/><path transform="translate(19.11 20.72) scale(.014 -.014)" d="m249-10q-42 0-77.5 14.5t-57.5 50.5-22 101v312h-76v42l77 35 35 114h52v-123h155v-68h-155v-310q0-49 23.5-72.5t60.5-23.5q20 0 41 3.5t34 7.5v-67q-14-7-40-11.5t-50-4.5z"/><path transform="translate(24.164 20.72) scale(.014 -.014)" d="m301-10q-71 0-126.5 32.5t-87.5 95-32 151.5q0 133 67 205t182 72q73 0 128.5-32.5t87-94 31.5-150.5-30.5-151.5-86.5-95-133-32.5zm2 73q54 0 89 25t51.5 71.5 16.5 109.5q0 64-17 109t-51.5 69.5-89.5 24.5q-82 0-119-54t-37-149q0-63 16.5-109.5t51.5-71.5 89-25z"/><path transform="translate(36.274 20.72) scale(.014 -.014)" d="m247-10q-40 0-76.5 4t-66.5 11.5-53 18.5v86q36-16 89.5-29t110.5-13q53 0 89 14t54 40 18 61-15 59-51.5 44.5-101.5 43.5q-61 22-102 50t-61.5 67.5-20.5 94.5q0 57 29 97.5t80.5 62.5 118.5 22q59 0 108-11t89-29l-28-77q-37 16-80.5 27t-90.5 11q-45 0-75-13t-45-36.5-15-54.5q0-36 15-60t49-43 92-41q63-23 106.5-49.5t66-63.5 22.5-93q0-64-31-108.5t-88.5-68.5-135.5-24z"/><path transform="translate(43.96 20.72) scale(.014 -.014)" d="m215-10q-73 0-121 38.5t-48 120.5q0 80 63 123.5t194 47.5l91 3v32q0 67-29 93t-82 26q-42 0-80-12.5t-71-28.5l-27 66q35 19 83 32.5t100 13.5q98 0 145-43t47-137v-365h-64l-17 76h-4q-23-29-47.5-48.5t-56-28.5-76.5-9zm20 71q68 0 113 37.5t45 115.5v48l-79-3q-100-4-138.5-32t-38.5-79q0-45 27.5-66t70.5-21z"/><path transform="translate(51.814 20.72) scale(.014 -.014)" d="m85 0v536h71l13-73h5q18 28 44.5 46.5t58.5 27.5 66 9q96 0 145-46.5t49-150.5v-349h-87v343q0 65-29 97t-91 32q-89 0-123-50t-34-144v-278z"/><path transform="translate(60.466 20.72) scale(.014 -.014)" d="m220-10q-56 0-96.5 9t-71.5 25v80q32-16 77.5-29.5t92.5-13.5q67 0 97 21.5t30 57.5q0 20-11 36t-39.5 32-81.5 36q-52 20-89 40t-57 48-20 72q0 68 55.5 105t145.5 37q49 0 91.5-9.5t79.5-26.5l-30-70q-34 14-71 24t-76 10q-54 0-82.5-17.5t-28.5-47.5q0-22 13-37.5t43.5-30 81.5-34.5q51-19 87-39t55-48.5 19-71.5q0-52-26-87t-74-53-114-18z"/><path transform="translate(70.812 20.72) scale(.014 -.014)" d="m247-10q-40 0-76.5 4t-66.5 11.5-53 18.5v86q36-16 89.5-29t110.5-13q53 0 89 14t54 40 18 61-15 59-51.5 44.5-101.5 43.5q-61 22-102 50t-61.5 67.5-20.5 94.5q0 57 29 97.5t80.5 62.5 118.5 22q59 0 108-11t89-29l-28-77q-37 16-80.5 27t-90.5 11q-45 0-75-13t-45-36.5-15-54.5q0-36 15-60t49-43 92-41q63-23 106.5-49.5t66-63.5 22.5-93q0-64-31-108.5t-88.5-68.5-135.5-24z"/><path transform="translate(78.498 20.72) scale(.014 -.014)" d="m84-240q-24 0-42 2.5t-31 5.5v70q11-2 26.5-4t32.5-2q46 0 74 26t45 69l28 71-216 538h94l116-305q15-40 27-76.5t18-69.5h4q6 25 18.5 65.5t27.5 81.5l109 304h95l-231-610q-19-50-44.5-87.5t-62-58-88.5-20.5z"/><path transform="translate(85.638 20.72) scale(.014 -.014)" d="m85 0v536h71l13-73h5q17 28 41.5 46.5t54.5 27.5 62 9q62 0 103.5-22t60.5-68h5q27 46 73.5 68t98.5 22q91 0 136-46.5t45-150.5v-349h-87v345q0 63-26.5 95t-82.5 32q-78 0-111.5-45t-33.5-131v-296h-87v345q0 63-27 95t-83 32q-54 0-85-22.5t-44.5-65.5-13.5-106v-278z"/><path transform="translate(98.728 20.72) scale(.014 -.014)" d="m339-10q-63 0-103 23t-63 55h-7l-18-68h-63v760h88v-185q0-34-1.5-63.5t-3.5-46.5h5q23 34 63 57t103 23q100 0 160.5-69.5t60.5-207.5q0-92-27.5-154t-77.5-93-116-31zm-13 73q72 0 107.5 53t35.5 153q0 203-145 203-85 0-118-49t-33-152v-4q0-99 32.5-151.5t120.5-52.5z"/><path transform="translate(107.34 20.72) scale(.014 -.014)" d="m301-10q-71 0-126.5 32.5t-87.5 95-32 151.5q0 133 67 205t182 72q73 0 128.5-32.5t87-94 31.5-150.5-30.5-151.5-86.5-95-133-32.5zm2 73q54 0 89 25t51.5 71.5 16.5 109.5q0 64-17 109t-51.5 69.5-89.5 24.5q-82 0-119-54t-37-149q0-63 16.5-109.5t51.5-71.5 89-25z"/><path transform="translate(115.81 20.72) scale(.014 -.014)" d="M85 0V760H173V0Z"/><path transform="translate(119.42 20.72) scale(.014 -.014)" d="m220-10q-56 0-96.5 9t-71.5 25v80q32-16 77.5-29.5t92.5-13.5q67 0 97 21.5t30 57.5q0 20-11 36t-39.5 32-81.5 36q-52 20-89 40t-57 48-20 72q0 68 55.5 105t145.5 37q49 0 91.5-9.5t79.5-26.5l-30-70q-34 14-71 24t-76 10q-54 0-82.5-17.5t-28.5-47.5q0-22 13-37.5t43.5-30 81.5-34.5q51-19 87-39t55-48.5 19-71.5q0-52-26-87t-74-53-114-18z"/></svg>