<svg width="122" height="11" viewBox="0 0 122 11" fill="none" xmlns="http://www.w3.org/2000/svg">
<path d="M8.42 0.14V10.14H6.95L1.6 1.84H1.55C1.57 2.16667 1.59333 2.57333 1.62 3.06C1.64667 3.54 1.66 4.03667 1.66 4.55V10.14H0.5V0.14H1.95L7.29 8.42H7.34C7.33333 8.26667 7.32333 8.04333 7.31 7.75C7.29667 7.45 7.28333 7.12333 7.27 6.77C7.25667 6.41 7.25 6.08333 7.25 5.79V0.14H8.42ZM17.49 6.37C17.49 7.61667 17.1767 8.58 16.55 9.26C15.9167 9.94 15.0633 10.28 13.99 10.28C13.33 10.28 12.74 10.13 12.22 9.83C11.7067 9.52333 11.3 9.08 11 8.5C10.7 7.91333 10.55 7.20333 10.55 6.37C10.55 5.13 10.8633 4.17333 11.49 3.5C12.1167 2.83333 12.9667 2.5 14.04 2.5C14.72 2.5 15.32 2.65 15.84 2.95C16.3533 3.25667 16.7567 3.69667 17.05 4.27C17.3433 4.84333 17.49 5.54333 17.49 6.37ZM11.82 6.37C11.82 7.25667 11.9967 7.96 12.35 8.48C12.6967 9 13.2533 9.26 14.02 9.26C14.78 9.26 15.3367 9 15.69 8.48C16.0433 7.96 16.22 7.25667 16.22 6.37C16.22 5.48333 16.0433 4.79 15.69 4.29C15.3367 3.78333 14.7767 3.53 14.01 3.53C13.2433 3.53 12.6867 3.78333 12.34 4.29C11.9933 4.79 11.82 5.48333 11.82 6.37ZM21.95 9.27C22.1367 9.27 22.3267 9.25333 22.52 9.22C22.7133 9.18667 22.8733 9.15333 23 9.12V10.06C22.8667 10.12 22.68 10.1733 22.44 10.22C22.1933 10.26 21.96 10.28 21.74 10.28C21.3467 10.28 20.9833 10.2133 20.65 10.08C20.3167 9.94 20.05 9.70333 19.85 9.37C19.6433 9.03667 19.54 8.56667 19.54 7.96V3.59H18.47V3L19.55 2.51L20.04 0.91H20.77V2.64H22.94V3.59H20.77V7.93C20.77 8.38333 20.88 8.72 21.1 8.94C21.32 9.16 21.6033 9.27 21.95 9.27ZM31.02 6.37C31.02 7.61667 30.7033 8.58 30.07 9.26C29.4433 9.94 28.5933 10.28 27.52 10.28C26.8533 10.28 26.2633 10.13 25.75 9.83C25.23 9.52333 24.82 9.08 24.52 8.5C24.22 7.91333 24.07 7.20333 24.07 6.37C24.07 5.13 24.3833 4.17333 25.01 3.5C25.6367 2.83333 26.4867 2.5 27.56 2.5C28.24 2.5 28.84 2.65 29.36 2.95C29.88 3.25667 30.2867 3.69667 30.58 4.27C30.8733 4.84333 31.02 5.54333 31.02 6.37ZM25.35 6.37C25.35 7.25667 25.5233 7.96 25.87 8.48C26.2233 9 26.7833 9.26 27.55 9.26C28.3033 9.26 28.8567 9 29.21 8.48C29.5633 7.96 29.74 7.25667 29.74 6.37C29.74 5.48333 29.5633 4.79 29.21 4.29C28.8567 3.78333 28.2967 3.53 27.53 3.53C26.7633 3.53 26.21 3.78333 25.87 4.29C25.5233 4.79 25.35 5.48333 25.35 6.37ZM42.44 7.47C42.44 8.35667 42.12 9.04667 41.48 9.54C40.8333 10.0333 39.9633 10.28 38.87 10.28C38.31 10.28 37.7933 10.2367 37.32 10.15C36.84 10.07 36.4433 9.95333 36.13 9.8V8.6C36.4633 8.74667 36.88 8.88333 37.38 9.01C37.88 9.13 38.3967 9.19 38.93 9.19C39.6767 9.19 40.24 9.04333 40.62 8.75C40.9933 8.46333 41.18 8.07333 41.18 7.58C41.18 7.25333 41.11 6.97667 40.97 6.75C40.83 6.53 40.59 6.32333 40.25 6.13C39.91 5.93667 39.4367 5.73333 38.83 5.52C37.9833 5.21333 37.3433 4.83667 36.91 4.39C36.47 3.93667 36.25 3.32333 36.25 2.55C36.25 2.01667 36.3867 1.56333 36.66 1.19C36.9333 0.81 37.31 0.516667 37.79 0.31C38.27 0.103333 38.8233 0 39.45 0C39.9967 0 40.5 0.0533332 40.96 0.16C41.4133 0.26 41.8267 0.393333 42.2 0.56L41.81 1.64C41.4633 1.49333 41.09 1.36667 40.69 1.26C40.2833 1.16 39.86 1.11 39.42 1.11C38.7933 1.11 38.32 1.24333 38 1.51C37.6867 1.77667 37.53 2.13 37.53 2.57C37.53 2.90333 37.6 3.18333 37.74 3.41C37.88 3.63 38.1067 3.83 38.42 4.01C38.74 4.18333 39.17 4.37333 39.71 4.58C40.2967 4.79333 40.7933 5.02333 41.2 5.27C41.6067 5.52333 41.9167 5.82 42.13 6.16C42.3367 6.50667 42.44 6.94333 42.44 7.47ZM47.13 2.51C48.0433 2.51 48.72 2.71 49.16 3.11C49.6 3.51 49.82 4.15 49.82 5.03V10.14H48.92L48.69 9.08H48.63C48.3033 9.48667 47.96 9.79 47.6 9.99C47.24 10.1833 46.7433 10.28 46.11 10.28C45.43 10.28 44.8667 10.1 44.42 9.74C43.9667 9.38 43.74 8.81667 43.74 8.05C43.74 7.30333 44.0367 6.73 44.63 6.33C45.2167 5.92333 46.12 5.7 47.34 5.66L48.62 5.62V5.17C48.62 4.54333 48.4833 4.11 48.21 3.87C47.9367 3.62333 47.5533 3.5 47.06 3.5C46.6667 3.5 46.2933 3.56 45.94 3.68C45.5867 3.79333 45.2567 3.92667 44.95 4.08L44.57 3.15C44.8967 2.97667 45.2833 2.82667 45.73 2.7C46.1767 2.57333 46.6433 2.51 47.13 2.51ZM48.6 6.47L47.5 6.51C46.5667 6.55 45.92 6.7 45.56 6.96C45.2 7.22 45.02 7.59 45.02 8.07C45.02 8.49 45.1467 8.79667 45.4 8.99C45.66 9.19 45.99 9.29 46.39 9.29C47.0233 9.29 47.55 9.11333 47.97 8.76C48.39 8.41333 48.6 7.87333 48.6 7.14V6.47ZM55.76 2.5C56.6533 2.5 57.33 2.71667 57.79 3.15C58.2433 3.58333 58.47 4.28333 58.47 5.25V10.14H57.25V5.34C57.25 4.13333 56.69 3.53 55.57 3.53C54.7433 3.53 54.17 3.76333 53.85 4.23C53.5367 4.69667 53.38 5.37 53.38 6.25V10.14H52.14V2.64H53.14L53.32 3.66H53.39C53.63 3.26667 53.9667 2.97333 54.4 2.78C54.8267 2.59333 55.28 2.5 55.76 2.5ZM65.68 8.07C65.68 8.79667 65.41 9.34667 64.87 9.72C64.33 10.0933 63.6033 10.28 62.69 10.28C62.1633 10.28 61.7133 10.2367 61.34 10.15C60.96 10.07 60.6233 9.95333 60.33 9.8V8.68C60.63 8.83333 60.9933 8.97333 61.42 9.1C61.8467 9.22667 62.2767 9.29 62.71 9.29C63.3367 9.29 63.79 9.19 64.07 8.99C64.35 8.78333 64.49 8.51333 64.49 8.18C64.49 7.99333 64.44 7.82667 64.34 7.68C64.2333 7.52667 64.0467 7.37667 63.78 7.23C63.52 7.07667 63.14 6.90667 62.64 6.72C62.16 6.53333 61.7467 6.34667 61.4 6.16C61.0533 5.97333 60.7867 5.75 60.6 5.49C60.4133 5.23 60.32 4.89333 60.32 4.48C60.32 3.84667 60.58 3.35667 61.1 3.01C61.6133 2.67 62.29 2.5 63.13 2.5C63.59 2.5 64.02 2.54333 64.42 2.63C64.8133 2.71667 65.1833 2.84 65.53 3L65.11 3.98C64.79 3.84667 64.4567 3.73333 64.11 3.64C63.77 3.54667 63.4167 3.5 63.05 3.5C62.5433 3.5 62.16 3.58333 61.9 3.75C61.6333 3.91 61.5 4.13 61.5 4.41C61.5 4.61667 61.56 4.79333 61.68 4.94C61.8 5.08667 62.0033 5.22667 62.29 5.36C62.57 5.49333 62.95 5.65333 63.43 5.84C63.9033 6.02 64.31 6.20333 64.65 6.39C64.9833 6.57667 65.24 6.80333 65.42 7.07C65.5933 7.33667 65.68 7.67 65.68 8.07ZM79.32 5.04C79.32 6.73333 78.86 8.00667 77.94 8.86C77.02 9.71333 75.74 10.14 74.1 10.14H71.31V0.14H74.39C75.3967 0.14 76.27 0.326666 77.01 0.7C77.7433 1.07333 78.3133 1.62333 78.72 2.35C79.12 3.07 79.32 3.96667 79.32 5.04ZM77.99 5.09C77.99 3.75 77.66 2.77 77 2.15C76.34 1.53 75.41 1.22 74.21 1.22H72.57V9.06H73.93C76.6367 9.06 77.99 7.73667 77.99 5.09ZM84.26 2.5C84.9067 2.5 85.46 2.64 85.92 2.92C86.38 3.2 86.7333 3.59333 86.98 4.1C87.2267 4.60667 87.35 5.2 87.35 5.88V6.63H82.22C82.2333 7.47667 82.45 8.12333 82.87 8.57C83.2833 9.01 83.8633 9.23 84.61 9.23C85.0833 9.23 85.5067 9.18667 85.88 9.1C86.2467 9.00667 86.6267 8.87667 87.02 8.71V9.79C86.6333 9.95667 86.2533 10.08 85.88 10.16C85.5067 10.24 85.0633 10.28 84.55 10.28C83.8433 10.28 83.2167 10.1367 82.67 9.85C82.1233 9.55667 81.7 9.12333 81.4 8.55C81.0933 7.97667 80.94 7.27333 80.94 6.44C80.94 5.62 81.08 4.91667 81.36 4.33C81.6333 3.74333 82.02 3.29 82.52 2.97C83.02 2.65667 83.6 2.5 84.26 2.5ZM84.25 3.5C83.6567 3.5 83.19 3.69 82.85 4.07C82.51 4.45 82.3067 4.97667 82.24 5.65H86.07C86.0567 5.01 85.9067 4.49333 85.62 4.1C85.3267 3.7 84.87 3.5 84.25 3.5ZM94.14 8.07C94.14 8.79667 93.87 9.34667 93.33 9.72C92.79 10.0933 92.0633 10.28 91.15 10.28C90.6233 10.28 90.1733 10.2367 89.8 10.15C89.42 10.07 89.0867 9.95333 88.8 9.8V8.68C89.0933 8.83333 89.4533 8.97333 89.88 9.1C90.3067 9.22667 90.74 9.29 91.18 9.29C91.8 9.29 92.25 9.19 92.53 8.99C92.81 8.78333 92.95 8.51333 92.95 8.18C92.95 7.99333 92.9 7.82667 92.8 7.68C92.7 7.52667 92.5167 7.37667 92.25 7.23C91.9833 7.07667 91.6033 6.90667 91.11 6.72C90.6233 6.53333 90.2067 6.34667 89.86 6.16C89.5133 5.97333 89.2467 5.75 89.06 5.49C88.8733 5.23 88.78 4.89333 88.78 4.48C88.78 3.84667 89.04 3.35667 89.56 3.01C90.08 2.67 90.76 2.5 91.6 2.5C92.0533 2.5 92.48 2.54333 92.88 2.63C93.2733 2.71667 93.6433 2.84 93.99 3L93.57 3.98C93.25 3.84667 92.92 3.73333 92.58 3.64C92.2333 3.54667 91.8767 3.5 91.51 3.5C91.01 3.5 90.6267 3.58333 90.36 3.75C90.0933 3.91 89.96 4.13 89.96 4.41C89.96 4.61667 90.02 4.79333 90.14 4.94C90.26 5.08667 90.4633 5.22667 90.75 5.36C91.0367 5.49333 91.4167 5.65333 91.89 5.84C92.3633 6.02 92.77 6.20333 93.11 6.39C93.4433 6.57667 93.7 6.80333 93.88 7.07C94.0533 7.33667 94.14 7.67 94.14 8.07ZM98.86 2.5C99.5067 2.5 100.06 2.64 100.52 2.92C100.98 3.2 101.333 3.59333 101.58 4.1C101.833 4.60667 101.96 5.2 101.96 5.88V6.63H96.82C96.84 7.47667 97.0567 8.12333 97.47 8.57C97.8833 9.01 98.4633 9.23 99.21 9.23C99.69 9.23 100.113 9.18667 100.48 9.1C100.847 9.00667 101.227 8.87667 101.62 8.71V9.79C101.24 9.95667 100.863 10.08 100.49 10.16C100.117 10.24 99.6733 10.28 99.16 10.28C98.4467 10.28 97.8167 10.1367 97.27 9.85C96.7233 9.55667 96.3 9.12333 96 8.55C95.6933 7.97667 95.54 7.27333 95.54 6.44C95.54 5.62 95.68 4.91667 95.96 4.33C96.2333 3.74333 96.62 3.29 97.12 2.97C97.62 2.65667 98.2 2.5 98.86 2.5ZM98.85 3.5C98.2633 3.5 97.7967 3.69 97.45 4.07C97.11 4.45 96.91 4.97667 96.85 5.65H100.67C100.657 5.01 100.507 4.49333 100.22 4.1C99.9333 3.7 99.4767 3.5 98.85 3.5ZM107.36 2.5C107.5 2.5 107.65 2.50667 107.81 2.52C107.977 2.53333 108.12 2.55333 108.24 2.58L108.09 3.71C107.97 3.68333 107.837 3.66 107.69 3.64C107.543 3.62667 107.407 3.62 107.28 3.62C106.893 3.62 106.533 3.72333 106.2 3.93C105.86 4.14333 105.59 4.43667 105.39 4.81C105.19 5.19 105.09 5.63333 105.09 6.14V10.14H103.86V2.64H104.87L105.01 4.01H105.06C105.307 3.59667 105.62 3.24 106 2.94C106.387 2.64667 106.84 2.5 107.36 2.5ZM112.54 2.5C113.187 2.5 113.74 2.64 114.2 2.92C114.66 3.2 115.013 3.59333 115.26 4.1C115.507 4.60667 115.63 5.2 115.63 5.88V6.63H110.5C110.513 7.47667 110.73 8.12333 111.15 8.57C111.563 9.01 112.143 9.23 112.89 9.23C113.363 9.23 113.787 9.18667 114.16 9.1C114.527 9.00667 114.907 8.87667 115.3 8.71V9.79C114.913 9.95667 114.533 10.08 114.16 10.16C113.787 10.24 113.343 10.28 112.83 10.28C112.123 10.28 111.497 10.1367 110.95 9.85C110.403 9.55667 109.98 9.12333 109.68 8.55C109.373 7.97667 109.22 7.27333 109.22 6.44C109.22 5.62 109.36 4.91667 109.64 4.33C109.913 3.74333 110.3 3.29 110.8 2.97C111.3 2.65667 111.88 2.5 112.54 2.5ZM112.53 3.5C111.937 3.5 111.47 3.69 111.13 4.07C110.79 4.45 110.587 4.97667 110.52 5.65H114.35C114.337 5.01 114.187 4.49333 113.9 4.1C113.607 3.7 113.15 3.5 112.53 3.5ZM120.04 9.27C120.227 9.27 120.42 9.25333 120.62 9.22C120.813 9.18667 120.97 9.15333 121.09 9.12V10.06C120.963 10.12 120.777 10.1733 120.53 10.22C120.29 10.26 120.057 10.28 119.83 10.28C119.443 10.28 119.083 10.2133 118.75 10.08C118.417 9.94 118.147 9.70333 117.94 9.37C117.74 9.03667 117.64 8.56667 117.64 7.96V3.59H116.57V3L117.65 2.51L118.14 0.91H118.87V2.64H121.04V3.59H118.87V7.93C118.87 8.38333 118.98 8.72 119.2 8.94C119.42 9.16 119.7 9.27 120.04 9.27Z" fill="black"/>
</svg>
