<svg width="95" height="11" viewBox="0 0 95 11" fill="none" xmlns="http://www.w3.org/2000/svg">
<path d="M4.02 10.78H0.5V10.19H0.68C0.9 10.19 1.09333 10.1667 1.26 10.12C1.43333 10.0733 1.57333 9.97667 1.68 9.83C1.78 9.69 1.83 9.47333 1.83 9.18V2.32C1.83 2.04 1.77667 1.83333 1.67 1.7C1.56333 1.56667 1.42333 1.47667 1.25 1.43C1.07667 1.39 0.886667 1.37 0.68 1.37H0.5V0.78H3.06L8.08 8.53V2.32C8.08 2.04 8.02667 1.83333 7.92 1.7C7.80667 1.56667 7.66667 1.47667 7.5 1.43C7.32667 1.39 7.13667 1.37 6.93 1.37H6.75V0.78H10.26V1.37H10.08C9.87333 1.37 9.68 1.39333 9.5 1.44C9.32667 1.48667 9.18667 1.58 9.08 1.72C8.98 1.86 8.93 2.08 8.93 2.38V10.78H7.94L2.69 2.72V9.18C2.69 9.47333 2.74 9.69 2.84 9.83C2.94 9.97667 3.08 10.0733 3.26 10.12C3.44 10.1667 3.63 10.19 3.83 10.19H4.02V10.78ZM14.67 10.92C13.6633 10.92 12.87 10.5967 12.29 9.95C11.71 9.31 11.42 8.33 11.42 7.01C11.42 5.70333 11.7 4.73 12.26 4.09C12.8133 3.45667 13.63 3.14 14.71 3.14C15.7167 3.14 16.51 3.45667 17.09 4.09C17.67 4.73 17.96 5.70333 17.96 7.01C17.96 8.33 17.6833 9.31 17.13 9.95C16.57 10.5967 15.75 10.92 14.67 10.92ZM14.7 10.19C15.1667 10.19 15.54 10.07 15.82 9.83C16.1 9.59667 16.3 9.24 16.42 8.76C16.54 8.28667 16.6 7.70333 16.6 7.01C16.6 5.97 16.4567 5.18667 16.17 4.66C15.8767 4.14 15.38 3.88 14.68 3.88C13.98 3.88 13.49 4.14 13.21 4.66C12.9233 5.18667 12.78 5.97 12.78 7.01C12.78 8.05667 12.9233 8.85 13.21 9.39C13.5033 9.92333 14 10.19 14.7 10.19ZM22.09 10.92C21.3833 10.92 20.8667 10.76 20.54 10.44C20.22 10.1133 20.06 9.55 20.06 8.75V4.07H19V3.51C19.1667 3.51 19.3533 3.47667 19.56 3.41C19.76 3.33667 19.9367 3.22333 20.09 3.07C20.25 2.89667 20.38 2.69 20.48 2.45C20.58 2.21 20.6633 1.91 20.73 1.55H21.38V3.28H23.21V4.07H21.38V8.79C21.38 9.27 21.4767 9.62 21.67 9.84C21.8633 10.0667 22.12 10.18 22.44 10.18C22.6067 10.18 22.76 10.17 22.9 10.15C23.04 10.13 23.1867 10.1067 23.34 10.08V10.7C23.2133 10.7533 23.03 10.8033 22.79 10.85C22.55 10.8967 22.3167 10.92 22.09 10.92ZM27.68 10.92C26.6667 10.92 25.8733 10.5967 25.3 9.95C24.72 9.31 24.43 8.33 24.43 7.01C24.43 5.70333 24.7067 4.73 25.26 4.09C25.8133 3.45667 26.6333 3.14 27.72 3.14C28.7267 3.14 29.52 3.45667 30.1 4.09C30.68 4.73 30.97 5.70333 30.97 7.01C30.97 8.33 30.69 9.31 30.13 9.95C29.5767 10.5967 28.76 10.92 27.68 10.92ZM27.7 10.19C28.1667 10.19 28.54 10.07 28.82 9.83C29.1 9.59667 29.3033 9.24 29.43 8.76C29.55 8.28667 29.61 7.70333 29.61 7.01C29.61 5.97 29.4633 5.18667 29.17 4.66C28.8833 4.14 28.39 3.88 27.69 3.88C26.99 3.88 26.4967 4.14 26.21 4.66C25.93 5.18667 25.79 5.97 25.79 7.01C25.79 8.05667 25.9333 8.85 26.22 9.39C26.5067 9.92333 27 10.19 27.7 10.19ZM38.83 10.92C38.3767 10.92 37.9733 10.8733 37.62 10.78C37.2733 10.6867 36.9833 10.55 36.75 10.37C36.5167 10.1967 36.34 9.98667 36.22 9.74C36.1067 9.5 36.05 9.23667 36.05 8.95C36.05 8.76333 36.09 8.6 36.17 8.46C36.25 8.32 36.3633 8.21 36.51 8.13C36.6567 8.05 36.84 8.01 37.06 8.01C37.0733 8.39 37.1467 8.75 37.28 9.09C37.4133 9.43 37.6133 9.70667 37.88 9.92C38.1533 10.1267 38.51 10.23 38.95 10.23C39.57 10.23 40.06 10.08 40.42 9.78C40.7733 9.47333 40.95 9.03667 40.95 8.47C40.95 8.12333 40.88 7.83 40.74 7.59C40.6067 7.35667 40.3833 7.13667 40.07 6.93C39.7567 6.72333 39.3267 6.51 38.78 6.29C38.2 6.04333 37.72 5.78 37.34 5.5C36.9533 5.22 36.6667 4.89 36.48 4.51C36.2933 4.13667 36.2 3.69333 36.2 3.18C36.2 2.64667 36.3333 2.19 36.6 1.81C36.8667 1.43667 37.23 1.14667 37.69 0.94C38.1567 0.74 38.6833 0.64 39.27 0.64C39.83 0.64 40.3033 0.716667 40.69 0.87C41.0767 1.01667 41.3733 1.21 41.58 1.45C41.7867 1.69 41.89 1.94333 41.89 2.21C41.89 2.51 41.79 2.73667 41.59 2.89C41.3833 3.04333 41.1133 3.12 40.78 3.12C40.78 2.83333 40.73 2.55333 40.63 2.28C40.5367 2.01333 40.3733 1.79 40.14 1.61C39.9133 1.43 39.6033 1.34 39.21 1.34C38.67 1.34 38.25 1.48667 37.95 1.78C37.65 2.06667 37.5 2.45333 37.5 2.94C37.5 3.31333 37.57 3.63 37.71 3.89C37.8433 4.14333 38.07 4.37 38.39 4.57C38.7033 4.77 39.13 4.98333 39.67 5.21C40.2233 5.43 40.6933 5.67333 41.08 5.94C41.4667 6.20667 41.7633 6.51333 41.97 6.86C42.1767 7.20667 42.28 7.62333 42.28 8.11C42.28 8.70333 42.14 9.21 41.86 9.63C41.58 10.0433 41.18 10.36 40.66 10.58C40.14 10.8067 39.53 10.92 38.83 10.92ZM47.01 10.92C45.99 10.92 45.1933 10.5833 44.62 9.91C44.0467 9.23667 43.76 8.29333 43.76 7.08C43.76 5.77333 44.03 4.79 44.57 4.13C45.1167 3.47 45.8833 3.14 46.87 3.14C47.7767 3.14 48.4867 3.42 49 3.98C49.52 4.54 49.78 5.37333 49.78 6.48V7.13H45.12C45.14 8.14333 45.3233 8.88 45.67 9.34C46.0233 9.80667 46.5367 10.04 47.21 10.04C47.69 10.04 48.1033 9.94 48.45 9.74C48.79 9.54 49.0433 9.31333 49.21 9.06C49.2767 9.08667 49.3367 9.14333 49.39 9.23C49.4433 9.31 49.47 9.41 49.47 9.53C49.47 9.71667 49.3833 9.92 49.21 10.14C49.03 10.3533 48.76 10.5367 48.4 10.69C48.0333 10.8433 47.57 10.92 47.01 10.92ZM45.15 6.37H48.37C48.37 5.62333 48.2533 5.02333 48.02 4.57C47.7933 4.11667 47.4 3.89 46.84 3.89C46.3267 3.89 45.9267 4.10333 45.64 4.53C45.36 4.95667 45.1967 5.57 45.15 6.37ZM54.99 10.78H50.94V10.19H50.99C51.2033 10.19 51.3967 10.1667 51.57 10.12C51.7433 10.0733 51.88 9.97667 51.98 9.83C52.08 9.69 52.13 9.47333 52.13 9.18V4.82C52.13 4.54 52.0767 4.33 51.97 4.19C51.8633 4.05667 51.7233 3.97 51.55 3.93C51.3767 3.88333 51.19 3.86 50.99 3.86H50.94V3.28H53.1L53.37 4.66H53.44C53.56 4.38 53.69 4.12333 53.83 3.89C53.97 3.65667 54.1567 3.47333 54.39 3.34C54.6233 3.20667 54.9433 3.14 55.35 3.14C55.8633 3.14 56.2433 3.22667 56.49 3.4C56.7433 3.58 56.87 3.83333 56.87 4.16C56.87 4.44667 56.7667 4.68333 56.56 4.87C56.36 5.05667 56.0267 5.15 55.56 5.15C55.56 4.89 55.5367 4.68 55.49 4.52C55.4433 4.36 55.3667 4.24333 55.26 4.17C55.1533 4.09667 55.0067 4.06 54.82 4.06C54.56 4.06 54.34 4.16333 54.16 4.37C53.9867 4.57667 53.8467 4.83667 53.74 5.15C53.64 5.47 53.5667 5.8 53.52 6.14C53.4733 6.48 53.45 6.78667 53.45 7.06V9.25C53.45 9.52333 53.5033 9.72667 53.61 9.86C53.7167 10 53.8567 10.09 54.03 10.13C54.2033 10.17 54.3933 10.19 54.6 10.19H54.99V10.78ZM61.37 10.78H57.4V10.19H57.58C57.7867 10.19 57.9767 10.17 58.15 10.13C58.3233 10.09 58.4633 10 58.57 9.86C58.6767 9.72667 58.73 9.52333 58.73 9.25V4.82C58.73 4.54 58.6767 4.33 58.57 4.19C58.4633 4.05667 58.3233 3.97 58.15 3.93C57.9767 3.88333 57.7867 3.86 57.58 3.86H57.54V3.28H60.04V9.18C60.04 9.47333 60.0933 9.69 60.2 9.83C60.3 9.97667 60.44 10.0733 60.62 10.12C60.7933 10.1667 60.9833 10.19 61.19 10.19H61.37V10.78ZM59.33 1.88C59.1033 1.88 58.9133 1.81333 58.76 1.68C58.6067 1.54667 58.53 1.32333 58.53 1.01C58.53 0.683334 58.6067 0.456667 58.76 0.33C58.9133 0.203334 59.1033 0.14 59.33 0.14C59.5433 0.14 59.73 0.203334 59.89 0.33C60.05 0.456667 60.13 0.683334 60.13 1.01C60.13 1.32333 60.05 1.54667 59.89 1.68C59.73 1.81333 59.5433 1.88 59.33 1.88ZM66.26 10.78H61.93V10.19H62.12C62.3333 10.19 62.5267 10.1667 62.7 10.12C62.8733 10.0733 63.01 9.97667 63.11 9.83C63.21 9.69 63.26 9.47333 63.26 9.18V3.93H61.99V3.28H63.26V2.58C63.26 1.74667 63.4833 1.10667 63.93 0.66C64.37 0.22 64.9733 0 65.74 0C66.2267 0 66.6133 0.0433334 66.9 0.13C67.18 0.21 67.3833 0.323334 67.51 0.47C67.6367 0.616667 67.7 0.786667 67.7 0.98C67.7 1.14667 67.65 1.29 67.55 1.41C67.4567 1.52333 67.3233 1.61 67.15 1.67C66.9767 1.73 66.7767 1.76 66.55 1.76C66.55 1.57333 66.5233 1.39667 66.47 1.23C66.4167 1.05667 66.3233 0.916667 66.19 0.81C66.0567 0.696667 65.87 0.64 65.63 0.64C65.23 0.64 64.9533 0.796667 64.8 1.11C64.6533 1.41667 64.58 1.86333 64.58 2.45V3.28H66.55V3.93H64.58V9.18C64.58 9.47333 64.63 9.69 64.73 9.83C64.8367 9.97667 64.9767 10.0733 65.15 10.12C65.33 10.1667 65.5233 10.19 65.73 10.19H66.26V10.78ZM78.4 10.78H70.89V10.19H71.08C71.2933 10.19 71.4867 10.1667 71.66 10.12C71.8333 10.0733 71.97 9.97667 72.07 9.83C72.17 9.69 72.22 9.47333 72.22 9.18V2.38C72.22 2.08 72.17 1.86 72.07 1.72C71.97 1.58 71.8333 1.48667 71.66 1.44C71.4867 1.39333 71.2933 1.37 71.08 1.37H70.89V0.78H74.97V1.37H74.79C74.5833 1.37 74.3933 1.39 74.22 1.43C74.0467 1.47667 73.9067 1.56667 73.8 1.7C73.6933 1.83333 73.64 2.04 73.64 2.32V10.08H76.4C76.68 10.08 76.9033 10.0167 77.07 9.89C77.2433 9.76333 77.3733 9.60333 77.46 9.41C77.5467 9.21 77.6033 9.01333 77.63 8.82L77.77 7.77H78.5L78.4 10.78ZM81.95 10.92C81.5433 10.92 81.1733 10.8367 80.84 10.67C80.5067 10.51 80.2467 10.2633 80.06 9.93C79.8733 9.60333 79.78 9.18667 79.78 8.68C79.78 7.93333 80.0433 7.38333 80.57 7.03C81.1033 6.67667 81.9067 6.48 82.98 6.44L84.14 6.4V5.56C84.14 5.22 84.11 4.92333 84.05 4.67C83.9967 4.41 83.8767 4.20667 83.69 4.06C83.5033 3.91333 83.22 3.84 82.84 3.84C82.48 3.84 82.2067 3.90333 82.02 4.03C81.8333 4.16333 81.71 4.34333 81.65 4.57C81.59 4.79667 81.56 5.06 81.56 5.36C81.1667 5.36 80.87 5.29333 80.67 5.16C80.47 5.02667 80.37 4.8 80.37 4.48C80.37 4.15333 80.4833 3.89333 80.71 3.7C80.9433 3.5 81.25 3.35667 81.63 3.27C82.0167 3.18333 82.4367 3.14 82.89 3.14C83.75 3.14 84.3933 3.32 84.82 3.68C85.24 4.04667 85.45 4.67333 85.45 5.56V9.18C85.45 9.44667 85.48 9.65 85.54 9.79C85.5933 9.93667 85.6867 10.04 85.82 10.1C85.9467 10.16 86.1133 10.19 86.32 10.19H86.36V10.78H84.47L84.25 9.58H84.14C83.94 9.84 83.7467 10.07 83.56 10.27C83.3733 10.47 83.1567 10.6267 82.91 10.74C82.6633 10.86 82.3433 10.92 81.95 10.92ZM82.28 10.05C82.66 10.05 82.9867 9.97 83.26 9.81C83.54 9.65667 83.7567 9.43333 83.91 9.14C84.0633 8.84 84.14 8.49667 84.14 8.11V6.97L83.24 7.01C82.7067 7.03 82.29 7.11 81.99 7.25C81.6833 7.39 81.4667 7.58333 81.34 7.83C81.2067 8.07667 81.14 8.38333 81.14 8.75C81.14 9.03667 81.1833 9.27667 81.27 9.47C81.35 9.66333 81.4767 9.81 81.65 9.91C81.8167 10.0033 82.0267 10.05 82.28 10.05ZM90.98 10.92C89.9733 10.92 89.18 10.5967 88.6 9.95C88.0267 9.31 87.74 8.33 87.74 7.01C87.74 5.70333 88.0167 4.73 88.57 4.09C89.1233 3.45667 89.9433 3.14 91.03 3.14C92.0367 3.14 92.83 3.45667 93.41 4.09C93.9833 4.73 94.27 5.70333 94.27 7.01C94.27 8.33 93.9933 9.31 93.44 9.95C92.8867 10.5967 92.0667 10.92 90.98 10.92ZM91.01 10.19C91.4767 10.19 91.85 10.07 92.13 9.83C92.41 9.59667 92.61 9.24 92.73 8.76C92.8567 8.28667 92.92 7.70333 92.92 7.01C92.92 5.97 92.7733 5.18667 92.48 4.66C92.1933 4.14 91.7 3.88 91 3.88C90.3 3.88 89.8067 4.14 89.52 4.66C89.2333 5.18667 89.09 5.97 89.09 7.01C89.09 8.05667 89.2367 8.85 89.53 9.39C89.8167 9.92333 90.31 10.19 91.01 10.19Z" fill="black"/>
</svg>
