<svg width="125" height="11" viewBox="0 0 125 11" fill="none" xmlns="http://www.w3.org/2000/svg">
<path d="M4.02 10.78H0.5V10.19H0.68C1 10.19 1.27333 10.1333 1.5 10.02C1.72 9.9 1.83 9.62 1.83 9.18V2.32C1.83 1.91333 1.71667 1.65333 1.49 1.54C1.26333 1.42667 0.993333 1.37 0.68 1.37H0.5V0.78H3.06L8.08 8.53V2.32C8.08 1.91333 7.96333 1.65333 7.73 1.54C7.50333 1.42667 7.23667 1.37 6.93 1.37H6.75V0.78H10.26V1.37H10.08C9.76 1.37 9.49 1.43 9.27 1.55C9.04333 1.66333 8.93 1.94 8.93 2.38V10.78H7.94L2.69 2.72V9.18C2.69 9.62 2.8 9.9 3.02 10.02C3.24667 10.1333 3.51667 10.19 3.83 10.19H4.02V10.78ZM14.67 10.92C13.6633 10.92 12.87 10.5967 12.29 9.95C11.71 9.31 11.42 8.33 11.42 7.01C11.42 5.70333 11.7 4.73 12.26 4.09C12.8133 3.45667 13.63 3.14 14.71 3.14C15.7167 3.14 16.51 3.45667 17.09 4.09C17.67 4.73 17.96 5.70333 17.96 7.01C17.96 8.33 17.6833 9.31 17.13 9.95C16.57 10.5967 15.75 10.92 14.67 10.92ZM14.7 10.19C15.4 10.19 15.89 9.92333 16.17 9.39C16.4567 8.85 16.6 8.05667 16.6 7.01C16.6 5.97 16.4567 5.18667 16.17 4.66C15.8767 4.14 15.38 3.88 14.68 3.88C13.98 3.88 13.49 4.14 13.21 4.66C12.9233 5.18667 12.78 5.97 12.78 7.01C12.78 8.05667 12.9233 8.85 13.21 9.39C13.5033 9.92333 14 10.19 14.7 10.19ZM22.09 10.92C21.3833 10.92 20.8667 10.76 20.54 10.44C20.22 10.1133 20.06 9.55 20.06 8.75V4.07H19V3.51C19.1667 3.51 19.3533 3.47667 19.56 3.41C19.76 3.33667 19.9367 3.22333 20.09 3.07C20.25 2.89667 20.38 2.69 20.48 2.45C20.58 2.21 20.6633 1.91 20.73 1.55H21.38V3.28H23.21V4.07H21.38V8.79C21.38 9.27 21.4767 9.62 21.67 9.84C21.8633 10.0667 22.12 10.18 22.44 10.18C22.6067 10.18 22.76 10.17 22.9 10.15C23.04 10.13 23.1867 10.1067 23.34 10.08V10.7C23.2133 10.7533 23.03 10.8033 22.79 10.85C22.55 10.8967 22.3167 10.92 22.09 10.92ZM27.68 10.92C26.6667 10.92 25.8733 10.5967 25.3 9.95C24.72 9.31 24.43 8.33 24.43 7.01C24.43 5.70333 24.7067 4.73 25.26 4.09C25.8133 3.45667 26.6333 3.14 27.72 3.14C28.7267 3.14 29.52 3.45667 30.1 4.09C30.68 4.73 30.97 5.70333 30.97 7.01C30.97 8.33 30.69 9.31 30.13 9.95C29.5767 10.5967 28.76 10.92 27.68 10.92ZM27.7 10.19C28.4 10.19 28.8933 9.92333 29.18 9.39C29.4667 8.85 29.61 8.05667 29.61 7.01C29.61 5.97 29.4633 5.18667 29.17 4.66C28.8833 4.14 28.39 3.88 27.69 3.88C26.99 3.88 26.4967 4.14 26.21 4.66C25.93 5.18667 25.79 5.97 25.79 7.01C25.79 8.05667 25.9333 8.85 26.22 9.39C26.5067 9.92333 27 10.19 27.7 10.19ZM38.83 10.92C37.9167 10.92 37.2233 10.7367 36.75 10.37C36.2833 10.01 36.05 9.53667 36.05 8.95C36.05 8.67 36.1367 8.44333 36.31 8.27C36.49 8.09667 36.74 8.01 37.06 8.01C37.0733 8.39 37.1467 8.75 37.28 9.09C37.4133 9.43 37.6133 9.70667 37.88 9.92C38.1533 10.1267 38.51 10.23 38.95 10.23C39.57 10.23 40.06 10.08 40.42 9.78C40.7733 9.47333 40.95 9.03667 40.95 8.47C40.95 8.12333 40.88 7.83 40.74 7.59C40.6067 7.35667 40.3833 7.13667 40.07 6.93C39.7567 6.72333 39.3267 6.51 38.78 6.29C37.9133 5.93 37.2667 5.51333 36.84 5.04C36.4133 4.56667 36.2 3.94667 36.2 3.18C36.2 2.64667 36.3333 2.19 36.6 1.81C36.8667 1.43667 37.23 1.14667 37.69 0.94C38.1567 0.74 38.6833 0.64 39.27 0.64C40.0967 0.64 40.74 0.8 41.2 1.12C41.66 1.44 41.89 1.80333 41.89 2.21C41.89 2.51 41.79 2.73667 41.59 2.89C41.3833 3.04333 41.1133 3.12 40.78 3.12C40.78 2.83333 40.73 2.55333 40.63 2.28C40.5367 2.01333 40.3733 1.79 40.14 1.61C39.9133 1.43 39.6033 1.34 39.21 1.34C38.67 1.34 38.25 1.48667 37.95 1.78C37.65 2.06667 37.5 2.45333 37.5 2.94C37.5 3.31333 37.57 3.63 37.71 3.89C37.8433 4.14333 38.07 4.37 38.39 4.57C38.7033 4.77 39.13 4.98333 39.67 5.21C40.4967 5.54333 41.1367 5.93 41.59 6.37C42.05 6.81 42.28 7.39 42.28 8.11C42.28 8.99667 41.97 9.68667 41.35 10.18C40.73 10.6733 39.89 10.92 38.83 10.92ZM47.01 10.92C45.99 10.92 45.1933 10.5833 44.62 9.91C44.0467 9.23667 43.76 8.29333 43.76 7.08C43.76 5.77333 44.03 4.79 44.57 4.13C45.1167 3.47 45.8833 3.14 46.87 3.14C47.7767 3.14 48.4867 3.42 49 3.98C49.52 4.54 49.78 5.37333 49.78 6.48V7.13H45.12C45.14 8.14333 45.3233 8.88 45.67 9.34C46.0233 9.80667 46.5367 10.04 47.21 10.04C47.69 10.04 48.1033 9.94 48.45 9.74C48.79 9.54 49.0433 9.31333 49.21 9.06C49.2767 9.08667 49.3367 9.14333 49.39 9.23C49.4433 9.31 49.47 9.41 49.47 9.53C49.47 9.71667 49.3833 9.92 49.21 10.14C49.03 10.3533 48.76 10.5367 48.4 10.69C48.0333 10.8433 47.57 10.92 47.01 10.92ZM45.15 6.37H48.37C48.37 5.62333 48.2533 5.02333 48.02 4.57C47.7933 4.11667 47.4 3.89 46.84 3.89C46.3267 3.89 45.9267 4.10333 45.64 4.53C45.36 4.95667 45.1967 5.57 45.15 6.37ZM54.99 10.78H50.94V10.19H50.99C51.3033 10.19 51.5733 10.1333 51.8 10.02C52.02 9.9 52.13 9.62 52.13 9.18V4.82C52.13 4.40667 52.0167 4.14333 51.79 4.03C51.5633 3.91667 51.2967 3.86 50.99 3.86H50.94V3.28H53.1L53.37 4.66H53.44C53.56 4.38 53.69 4.12333 53.83 3.89C53.97 3.65667 54.1567 3.47333 54.39 3.34C54.6233 3.20667 54.9433 3.14 55.35 3.14C55.8633 3.14 56.2433 3.22667 56.49 3.4C56.7433 3.58 56.87 3.83333 56.87 4.16C56.87 4.44667 56.7667 4.68333 56.56 4.87C56.36 5.05667 56.0267 5.15 55.56 5.15C55.56 4.77 55.5067 4.49333 55.4 4.32C55.2867 4.14667 55.0933 4.06 54.82 4.06C54.56 4.06 54.34 4.16333 54.16 4.37C53.9867 4.57667 53.8467 4.83667 53.74 5.15C53.64 5.47 53.5667 5.8 53.52 6.14C53.4733 6.48 53.45 6.78667 53.45 7.06V9.25C53.45 9.66333 53.5633 9.92333 53.79 10.03C54.0233 10.1367 54.2933 10.19 54.6 10.19H54.99V10.78ZM59.33 1.88C59.1033 1.88 58.9133 1.81333 58.76 1.68C58.6067 1.54667 58.53 1.32333 58.53 1.01C58.53 0.683334 58.6067 0.456667 58.76 0.33C58.9133 0.203334 59.1033 0.14 59.33 0.14C59.5433 0.14 59.73 0.203334 59.89 0.33C60.05 0.456667 60.13 0.683334 60.13 1.01C60.13 1.32333 60.05 1.54667 59.89 1.68C59.73 1.81333 59.5433 1.88 59.33 1.88ZM61.37 10.78H57.4V10.19H57.58C57.8867 10.19 58.1533 10.1367 58.38 10.03C58.6133 9.92333 58.73 9.66333 58.73 9.25V4.82C58.73 4.40667 58.6133 4.14333 58.38 4.03C58.1533 3.91667 57.8867 3.86 57.58 3.86H57.54V3.28H60.04V9.18C60.04 9.62 60.1533 9.9 60.38 10.02C60.6067 10.1333 60.8767 10.19 61.19 10.19H61.37V10.78ZM66.26 10.78H61.93V10.19H62.12C62.4333 10.19 62.7033 10.1333 62.93 10.02C63.15 9.9 63.26 9.62 63.26 9.18V3.93H61.99V3.28H63.26V2.58C63.26 1.74667 63.4833 1.10667 63.93 0.66C64.37 0.22 64.9733 0 65.74 0C66.4667 0 66.9767 0.09 67.27 0.27C67.5567 0.456667 67.7 0.693333 67.7 0.98C67.7 1.23333 67.5933 1.42667 67.38 1.56C67.1667 1.69333 66.89 1.76 66.55 1.76C66.55 1.48 66.4867 1.22333 66.36 0.99C66.2267 0.756667 65.9833 0.64 65.63 0.64C65.23 0.64 64.9533 0.796667 64.8 1.11C64.6533 1.41667 64.58 1.86333 64.58 2.45V3.28H66.55V3.93H64.58V9.18C64.58 9.62 64.6933 9.9 64.92 10.02C65.14 10.1333 65.41 10.19 65.73 10.19H66.26V10.78ZM75.98 10.92C74.8933 10.92 73.9933 10.7067 73.28 10.28C72.5667 9.84667 72.0333 9.24667 71.68 8.48C71.3333 7.70667 71.16 6.80333 71.16 5.77C71.16 4.76333 71.3433 3.87333 71.71 3.1C72.0833 2.33333 72.6333 1.73333 73.36 1.3C74.0867 0.86 74.9867 0.64 76.06 0.64C77.0933 0.64 77.8667 0.79 78.38 1.09C78.8933 1.39 79.15 1.76333 79.15 2.21C79.15 2.51 79.0267 2.75 78.78 2.93C78.5267 3.10333 78.2167 3.19 77.85 3.19C77.85 2.90333 77.7933 2.62 77.68 2.34C77.56 2.06667 77.3667 1.84 77.1 1.66C76.8267 1.48 76.46 1.39 76 1.39C74.82 1.39 73.9767 1.77 73.47 2.53C72.9633 3.29 72.71 4.37 72.71 5.77C72.71 7.17 72.9733 8.24333 73.5 8.99C74.0333 9.74333 74.9333 10.12 76.2 10.12C76.4733 10.12 76.7333 10.1067 76.98 10.08C77.2333 10.0533 77.46 10.01 77.66 9.95V7.7C77.66 7.28667 77.5433 7.02667 77.31 6.92C77.0833 6.80667 76.8167 6.75 76.51 6.75H76.45V6.16H80.09V6.75H80.04C79.7733 6.75 79.5467 6.80667 79.36 6.92C79.1667 7.04 79.07 7.32 79.07 7.76V10.28C78.6033 10.4933 78.1233 10.6533 77.63 10.76C77.1367 10.8667 76.5867 10.92 75.98 10.92ZM84.87 10.78H80.82V10.19H80.86C81.18 10.19 81.45 10.1333 81.67 10.02C81.8967 9.9 82.01 9.62 82.01 9.18V4.82C82.01 4.40667 81.8967 4.14333 81.67 4.03C81.4367 3.91667 81.1667 3.86 80.86 3.86H80.82V3.28H82.98L83.24 4.66H83.31C83.43 4.38 83.56 4.12333 83.7 3.89C83.84 3.65667 84.0267 3.47333 84.26 3.34C84.4933 3.20667 84.8167 3.14 85.23 3.14C85.7433 3.14 86.1233 3.22667 86.37 3.4C86.6167 3.58 86.74 3.83333 86.74 4.16C86.74 4.44667 86.64 4.68333 86.44 4.87C86.24 5.05667 85.9067 5.15 85.44 5.15C85.44 4.77 85.3833 4.49333 85.27 4.32C85.1567 4.14667 84.9667 4.06 84.7 4.06C84.44 4.06 84.22 4.16333 84.04 4.37C83.86 4.57667 83.72 4.83667 83.62 5.15C83.52 5.47 83.4467 5.8 83.4 6.14C83.3533 6.48 83.33 6.78667 83.33 7.06V9.25C83.33 9.66333 83.4433 9.92333 83.67 10.03C83.8967 10.1367 84.1633 10.19 84.47 10.19H84.87V10.78ZM89.54 10.92C88.9133 10.92 88.3967 10.7367 87.99 10.37C87.5767 10.01 87.37 9.44667 87.37 8.68C87.37 7.93333 87.6333 7.38333 88.16 7.03C88.6867 6.67667 89.4867 6.48 90.56 6.44L91.73 6.4V5.56C91.73 5.22 91.7 4.92333 91.64 4.67C91.5867 4.41 91.4667 4.20667 91.28 4.06C91.0933 3.91333 90.8067 3.84 90.42 3.84C90.0667 3.84 89.7967 3.90333 89.61 4.03C89.4233 4.16333 89.3 4.34333 89.24 4.57C89.18 4.79667 89.15 5.06 89.15 5.36C88.7567 5.36 88.46 5.29333 88.26 5.16C88.06 5.02667 87.96 4.8 87.96 4.48C87.96 4.15333 88.0733 3.89333 88.3 3.7C88.5333 3.5 88.84 3.35667 89.22 3.27C89.6 3.18333 90.02 3.14 90.48 3.14C91.34 3.14 91.98 3.32 92.4 3.68C92.8267 4.04667 93.04 4.67333 93.04 5.56V9.18C93.04 9.57333 93.1067 9.84 93.24 9.98C93.3667 10.12 93.59 10.19 93.91 10.19H93.95V10.78H92.06L91.84 9.58H91.73C91.53 9.84 91.3367 10.07 91.15 10.27C90.9633 10.47 90.7467 10.6267 90.5 10.74C90.2533 10.86 89.9333 10.92 89.54 10.92ZM89.86 10.05C90.4333 10.05 90.8867 9.87667 91.22 9.53C91.56 9.17667 91.73 8.70333 91.73 8.11V6.97L90.83 7.01C90.0367 7.05 89.4867 7.21333 89.18 7.5C88.88 7.78 88.73 8.19667 88.73 8.75C88.73 9.61667 89.1067 10.05 89.86 10.05ZM98.71 10.78H94.95V10.19H95.06C95.3733 10.19 95.6433 10.1333 95.87 10.02C96.0967 9.9 96.21 9.62 96.21 9.18V4.82C96.21 4.40667 96.1 4.14333 95.88 4.03C95.66 3.91667 95.3967 3.86 95.09 3.86H95.02V3.28H97.28L97.47 4.41H97.54C97.8267 3.89 98.15 3.54667 98.51 3.38C98.87 3.22 99.2733 3.14 99.72 3.14C100.46 3.14 101.037 3.35667 101.45 3.79C101.863 4.22333 102.07 4.92 102.07 5.88V9.18C102.07 9.62 102.167 9.9 102.36 10.02C102.553 10.1333 102.807 10.19 103.12 10.19H103.19V10.78H100.76V5.95C100.76 5.34333 100.643 4.87333 100.41 4.54C100.183 4.2 99.7867 4.03 99.22 4.03C98.8 4.03 98.4633 4.13667 98.21 4.35C97.9633 4.55667 97.7867 4.83333 97.68 5.18C97.5733 5.52667 97.52 5.9 97.52 6.3V9.25C97.52 9.66333 97.63 9.92333 97.85 10.03C98.07 10.1367 98.3333 10.19 98.64 10.19H98.71V10.78ZM106.94 10.92C106.233 10.92 105.72 10.76 105.4 10.44C105.073 10.1133 104.91 9.55 104.91 8.75V4.07H103.85V3.51C104.017 3.51 104.203 3.47667 104.41 3.41C104.617 3.33667 104.793 3.22333 104.94 3.07C105.1 2.89667 105.23 2.69 105.33 2.45C105.437 2.21 105.523 1.91 105.59 1.55H106.23V3.28H108.06V4.07H106.23V8.79C106.23 9.27 106.327 9.62 106.52 9.84C106.72 10.0667 106.977 10.18 107.29 10.18C107.463 10.18 107.62 10.17 107.76 10.15C107.9 10.13 108.043 10.1067 108.19 10.08V10.7C108.07 10.7533 107.887 10.8033 107.64 10.85C107.4 10.8967 107.167 10.92 106.94 10.92ZM112.53 10.78H108.76V10.19H108.88C109.193 10.19 109.463 10.1333 109.69 10.02C109.91 9.9 110.02 9.62 110.02 9.18V1.68C110.02 1.26667 109.907 1.00667 109.68 0.9C109.453 0.786667 109.187 0.73 108.88 0.73H108.76V0.14H111.34V3.22C111.34 3.38667 111.337 3.56 111.33 3.74C111.317 3.92667 111.307 4.08333 111.3 4.21C111.287 4.34333 111.28 4.41 111.28 4.41H111.35C111.783 3.56333 112.47 3.14 113.41 3.14C114.217 3.14 114.83 3.35667 115.25 3.79C115.677 4.22333 115.89 4.92 115.89 5.88V9.18C115.89 9.62 115.99 9.9 116.19 10.02C116.39 10.1333 116.65 10.19 116.97 10.19H117.01V10.78H114.57V5.95C114.57 5.34333 114.457 4.87333 114.23 4.54C114.003 4.2 113.603 4.03 113.03 4.03C112.457 4.03 112.03 4.23667 111.75 4.65C111.477 5.05667 111.34 5.60667 111.34 6.3V9.25C111.34 9.66333 111.453 9.92333 111.68 10.03C111.913 10.1367 112.183 10.19 112.49 10.19H112.53V10.78ZM120.27 10.92C119.643 10.92 119.127 10.7367 118.72 10.37C118.307 10.01 118.1 9.44667 118.1 8.68C118.1 7.93333 118.363 7.38333 118.89 7.03C119.417 6.67667 120.217 6.48 121.29 6.44L122.46 6.4V5.56C122.46 5.22 122.43 4.92333 122.37 4.67C122.317 4.41 122.197 4.20667 122.01 4.06C121.823 3.91333 121.537 3.84 121.15 3.84C120.797 3.84 120.527 3.90333 120.34 4.03C120.153 4.16333 120.03 4.34333 119.97 4.57C119.91 4.79667 119.88 5.06 119.88 5.36C119.487 5.36 119.19 5.29333 118.99 5.16C118.79 5.02667 118.69 4.8 118.69 4.48C118.69 4.15333 118.803 3.89333 119.03 3.7C119.263 3.5 119.57 3.35667 119.95 3.27C120.33 3.18333 120.75 3.14 121.21 3.14C122.07 3.14 122.71 3.32 123.13 3.68C123.557 4.04667 123.77 4.67333 123.77 5.56V9.18C123.77 9.57333 123.837 9.84 123.97 9.98C124.097 10.12 124.32 10.19 124.64 10.19H124.68V10.78H122.79L122.57 9.58H122.46C122.26 9.84 122.067 10.07 121.88 10.27C121.693 10.47 121.477 10.6267 121.23 10.74C120.983 10.86 120.663 10.92 120.27 10.92ZM120.59 10.05C121.163 10.05 121.617 9.87667 121.95 9.53C122.29 9.17667 122.46 8.70333 122.46 8.11V6.97L121.56 7.01C120.767 7.05 120.217 7.21333 119.91 7.5C119.61 7.78 119.46 8.19667 119.46 8.75C119.46 9.61667 119.837 10.05 120.59 10.05Z" fill="black"/>
</svg>
