<svg width="124" height="11" viewBox="0 0 124 11" fill="none" xmlns="http://www.w3.org/2000/svg">
<path d="M4.02 10.64H0.5V10.05H0.68C1 10.05 1.27333 9.99333 1.5 9.88C1.72 9.76 1.83 9.48 1.83 9.04V2.18C1.83 1.77333 1.71667 1.51333 1.49 1.4C1.26333 1.28667 0.993333 1.23 0.68 1.23H0.5V0.64H3.06L8.08 8.39V2.18C8.08 1.77333 7.96333 1.51333 7.73 1.4C7.50333 1.28667 7.23667 1.23 6.93 1.23H6.75V0.64H10.26V1.23H10.08C9.76 1.23 9.49 1.29 9.27 1.41C9.04333 1.52333 8.93 1.8 8.93 2.24V10.64H7.94L2.69 2.58V9.04C2.69 9.48 2.8 9.76 3.02 9.88C3.24667 9.99333 3.51667 10.05 3.83 10.05H4.02V10.64ZM14.67 10.78C13.6633 10.78 12.87 10.4567 12.29 9.81C11.71 9.17 11.42 8.19 11.42 6.87C11.42 5.56333 11.7 4.59 12.26 3.95C12.8133 3.31667 13.63 3 14.71 3C15.7167 3 16.51 3.31667 17.09 3.95C17.67 4.59 17.96 5.56333 17.96 6.87C17.96 8.19 17.6833 9.17 17.13 9.81C16.57 10.4567 15.75 10.78 14.67 10.78ZM14.7 10.05C15.4 10.05 15.89 9.78333 16.17 9.25C16.4567 8.71 16.6 7.91667 16.6 6.87C16.6 5.83 16.4567 5.04667 16.17 4.52C15.8767 4 15.38 3.74 14.68 3.74C13.98 3.74 13.49 4 13.21 4.52C12.9233 5.04667 12.78 5.83 12.78 6.87C12.78 7.91667 12.9233 8.71 13.21 9.25C13.5033 9.78333 14 10.05 14.7 10.05ZM22.09 10.78C21.3833 10.78 20.8667 10.62 20.54 10.3C20.22 9.97333 20.06 9.41 20.06 8.61V3.93H19V3.37C19.1667 3.37 19.3533 3.33667 19.56 3.27C19.76 3.19667 19.9367 3.08333 20.09 2.93C20.25 2.75667 20.38 2.55 20.48 2.31C20.58 2.07 20.6633 1.77 20.73 1.41H21.38V3.14H23.21V3.93H21.38V8.65C21.38 9.13 21.4767 9.48 21.67 9.7C21.8633 9.92667 22.12 10.04 22.44 10.04C22.6067 10.04 22.76 10.03 22.9 10.01C23.04 9.99 23.1867 9.96667 23.34 9.94V10.56C23.2133 10.6133 23.03 10.6633 22.79 10.71C22.55 10.7567 22.3167 10.78 22.09 10.78ZM27.68 10.78C26.6667 10.78 25.8733 10.4567 25.3 9.81C24.72 9.17 24.43 8.19 24.43 6.87C24.43 5.56333 24.7067 4.59 25.26 3.95C25.8133 3.31667 26.6333 3 27.72 3C28.7267 3 29.52 3.31667 30.1 3.95C30.68 4.59 30.97 5.56333 30.97 6.87C30.97 8.19 30.69 9.17 30.13 9.81C29.5767 10.4567 28.76 10.78 27.68 10.78ZM27.7 10.05C28.4 10.05 28.8933 9.78333 29.18 9.25C29.4667 8.71 29.61 7.91667 29.61 6.87C29.61 5.83 29.4633 5.04667 29.17 4.52C28.8833 4 28.39 3.74 27.69 3.74C26.99 3.74 26.4967 4 26.21 4.52C25.93 5.04667 25.79 5.83 25.79 6.87C25.79 7.91667 25.9333 8.71 26.22 9.25C26.5067 9.78333 27 10.05 27.7 10.05ZM38.88 10.64H35.36V10.05H35.54C35.86 10.05 36.1333 9.99333 36.36 9.88C36.58 9.76 36.69 9.48 36.69 9.04V2.18C36.69 1.77333 36.5767 1.51333 36.35 1.4C36.1233 1.28667 35.8533 1.23 35.54 1.23H35.36V0.64H37.92L42.94 8.39V2.18C42.94 1.77333 42.8233 1.51333 42.59 1.4C42.3633 1.28667 42.0967 1.23 41.79 1.23H41.61V0.64H45.12V1.23H44.94C44.62 1.23 44.35 1.29 44.13 1.41C43.9033 1.52333 43.79 1.8 43.79 2.24V10.64H42.8L37.55 2.58V9.04C37.55 9.48 37.66 9.76 37.88 9.88C38.1067 9.99333 38.3767 10.05 38.69 10.05H38.88V10.64ZM48.38 10.78C47.7533 10.78 47.2367 10.5967 46.83 10.23C46.4167 9.87 46.21 9.30667 46.21 8.54C46.21 7.79333 46.4733 7.24333 47 6.89C47.5267 6.53667 48.3267 6.34 49.4 6.3L50.57 6.26V5.42C50.57 5.08 50.54 4.78333 50.48 4.53C50.4267 4.27 50.3067 4.06667 50.12 3.92C49.9333 3.77333 49.6467 3.7 49.26 3.7C48.9067 3.7 48.6367 3.76333 48.45 3.89C48.2633 4.02333 48.14 4.20333 48.08 4.43C48.02 4.65667 47.99 4.92 47.99 5.22C47.5967 5.22 47.3 5.15333 47.1 5.02C46.9 4.88667 46.8 4.66 46.8 4.34C46.8 4.01333 46.9133 3.75333 47.14 3.56C47.3733 3.36 47.68 3.21667 48.06 3.13C48.44 3.04333 48.86 3 49.32 3C50.18 3 50.8233 3.18 51.25 3.54C51.67 3.90667 51.88 4.53333 51.88 5.42V9.04C51.88 9.43333 51.9467 9.7 52.08 9.84C52.2067 9.98 52.43 10.05 52.75 10.05H52.79V10.64H50.9L50.68 9.44H50.57C50.37 9.7 50.1767 9.93 49.99 10.13C49.8033 10.33 49.5867 10.4867 49.34 10.6C49.0933 10.72 48.7733 10.78 48.38 10.78ZM48.7 9.91C49.2733 9.91 49.7267 9.73667 50.06 9.39C50.4 9.03667 50.57 8.56333 50.57 7.97V6.83L49.67 6.87C48.8767 6.91 48.3267 7.07333 48.02 7.36C47.72 7.64 47.57 8.05667 47.57 8.61C47.57 9.47667 47.9467 9.91 48.7 9.91ZM56.33 10.78C55.63 10.78 55.07 10.6533 54.65 10.4C54.23 10.1467 54.02 9.78 54.02 9.3C54.02 9.04667 54.0733 8.85 54.18 8.71C54.28 8.57 54.3967 8.47 54.53 8.41C54.67 8.35667 54.7967 8.33 54.91 8.33C54.91 8.81667 55.02 9.23333 55.24 9.58C55.4533 9.93333 55.8467 10.11 56.42 10.11C56.9133 10.11 57.2933 9.99 57.56 9.75C57.8267 9.51 57.96 9.20333 57.96 8.83C57.96 8.59667 57.91 8.40667 57.81 8.26C57.71 8.11333 57.5367 7.96667 57.29 7.82C57.0433 7.67333 56.6933 7.50333 56.24 7.31C55.76 7.09667 55.3633 6.88667 55.05 6.68C54.7367 6.48 54.5033 6.24667 54.35 5.98C54.1967 5.72 54.12 5.38667 54.12 4.98C54.12 4.34667 54.36 3.86 54.84 3.52C55.32 3.18 55.9567 3.01 56.75 3.01C57.2033 3.01 57.58 3.06667 57.88 3.18C58.1867 3.3 58.4167 3.45667 58.57 3.65C58.7233 3.85 58.8 4.06667 58.8 4.3C58.8 4.55333 58.7133 4.75667 58.54 4.91C58.3667 5.06333 58.1167 5.14 57.79 5.14C57.79 4.67333 57.6933 4.31 57.5 4.05C57.3 3.78333 56.9967 3.65 56.59 3.65C56.11 3.65 55.7667 3.75667 55.56 3.97C55.36 4.17667 55.26 4.44333 55.26 4.77C55.26 5.00333 55.3167 5.2 55.43 5.36C55.55 5.52 55.7367 5.66667 55.99 5.8C56.25 5.94 56.5833 6.09333 56.99 6.26C57.4833 6.46667 57.8867 6.67 58.2 6.87C58.5067 7.07667 58.7333 7.31667 58.88 7.59C59.02 7.85667 59.09 8.18667 59.09 8.58C59.09 9.30667 58.84 9.85667 58.34 10.23C57.8333 10.5967 57.1633 10.78 56.33 10.78ZM63.73 10.64H59.96V10.05H60.07C60.2833 10.05 60.4767 10.0267 60.65 9.98C60.8233 9.93333 60.9633 9.83667 61.07 9.69C61.17 9.55 61.22 9.33333 61.22 9.04V1.54C61.22 1.26 61.1667 1.05333 61.06 0.92C60.9533 0.78 60.8133 0.69 60.64 0.65C60.4667 0.61 60.2767 0.59 60.07 0.59H59.96V0H62.54V5.4C62.54 5.52667 62.5367 5.68667 62.53 5.88C62.5233 6.07333 62.5167 6.27 62.51 6.47C62.4967 6.66333 62.49 6.82667 62.49 6.96C62.4833 7.1 62.48 7.17 62.48 7.17L64.23 5.25C64.53 4.91667 64.7333 4.65667 64.84 4.47C64.9467 4.29 65 4.13333 65 4C65 3.88 64.9433 3.80333 64.83 3.77C64.7167 3.73667 64.5433 3.72 64.31 3.72V3.14H67.41V3.72C67.09 3.72 66.7733 3.83667 66.46 4.07C66.14 4.29667 65.7967 4.61667 65.43 5.03L64.45 6.13L66.32 8.9C66.56 9.27333 66.8 9.56 67.04 9.76C67.2733 9.95333 67.55 10.05 67.87 10.05H67.91V10.64H67.72C67.3133 10.64 66.9767 10.6267 66.71 10.6C66.4367 10.5733 66.21 10.5133 66.03 10.42C65.85 10.3333 65.6767 10.2 65.51 10.02C65.35 9.83333 65.17 9.58667 64.97 9.28L63.57 7.08L62.54 7.85V9.11C62.54 9.38333 62.5933 9.58667 62.7 9.72C62.8067 9.86 62.9467 9.95 63.12 9.99C63.2933 10.03 63.48 10.05 63.68 10.05H63.73V10.64ZM71.92 10.64H68.15V10.05H68.26C68.58 10.05 68.85 9.99333 69.07 9.88C69.2967 9.76 69.41 9.48 69.41 9.04V1.54C69.41 1.26 69.3567 1.05333 69.25 0.92C69.1433 0.78 69.0033 0.69 68.83 0.65C68.6567 0.61 68.4667 0.59 68.26 0.59H68.15V0H70.73V3.08C70.73 3.24667 70.7233 3.42 70.71 3.6C70.7033 3.78667 70.6933 3.94333 70.68 4.07C70.6733 4.20333 70.67 4.27 70.67 4.27H70.74C70.88 3.99 71.05 3.75333 71.25 3.56C71.45 3.37333 71.68 3.23333 71.94 3.14C72.1933 3.04667 72.48 3 72.8 3C73.6 3 74.2133 3.21667 74.64 3.65C75.0667 4.08333 75.28 4.78 75.28 5.74V9.04C75.28 9.48 75.38 9.76 75.58 9.88C75.78 9.99333 76.0367 10.05 76.35 10.05H76.4V10.64H73.96V5.81C73.96 5.20333 73.8467 4.73333 73.62 4.4C73.3867 4.06 72.9867 3.89 72.42 3.89C72.04 3.89 71.7233 3.98333 71.47 4.17C71.2167 4.35667 71.03 4.62 70.91 4.96C70.79 5.3 70.73 5.7 70.73 6.16V9.11C70.73 9.52333 70.8433 9.78333 71.07 9.89C71.2967 9.99667 71.5633 10.05 71.87 10.05H71.92V10.64ZM83.3 10.64H79.88V10.05H80.15C80.4167 10.05 80.62 9.98 80.76 9.84C80.8933 9.7 81.0433 9.40667 81.21 8.96L84.32 0.64H85.41L88.58 9.31C88.68 9.59667 88.8033 9.79333 88.95 9.9C89.09 10 89.2967 10.05 89.57 10.05H89.75V10.64H85.9V10.05H86.22C86.5 10.05 86.71 9.99667 86.85 9.89C86.99 9.78333 87.06 9.61333 87.06 9.38C87.06 9.30667 87.0533 9.22667 87.04 9.14C87.02 9.06 86.99 8.96667 86.95 8.86L86.39 7.29H82.71L82.18 8.76C82.14 8.87333 82.11 8.98333 82.09 9.09C82.0633 9.19667 82.05 9.29 82.05 9.37C82.05 9.60333 82.1267 9.77333 82.28 9.88C82.4333 9.99333 82.6667 10.05 82.98 10.05H83.3V10.64ZM83.93 4.02L82.98 6.59H86.14L85.27 4.14C85.1233 3.73333 84.99 3.34667 84.87 2.98C84.7433 2.62 84.6433 2.27 84.57 1.93C84.5033 2.27 84.42 2.59333 84.32 2.9C84.22 3.20667 84.09 3.58 83.93 4.02ZM94.26 10.64H90.21V10.05H90.26C90.5733 10.05 90.8433 9.99333 91.07 9.88C91.29 9.76 91.4 9.48 91.4 9.04V4.68C91.4 4.26667 91.2867 4.00333 91.06 3.89C90.8333 3.77667 90.5667 3.72 90.26 3.72H90.21V3.14H92.37L92.64 4.52H92.71C92.83 4.24 92.96 3.98333 93.1 3.75C93.24 3.51667 93.4267 3.33333 93.66 3.2C93.8933 3.06667 94.2133 3 94.62 3C95.1333 3 95.5167 3.08667 95.77 3.26C96.0167 3.44 96.14 3.69333 96.14 4.02C96.14 4.30667 96.0367 4.54333 95.83 4.73C95.63 4.91667 95.2967 5.01 94.83 5.01C94.83 4.63 94.7767 4.35333 94.67 4.18C94.5567 4.00667 94.3633 3.92 94.09 3.92C93.83 3.92 93.61 4.02333 93.43 4.23C93.2567 4.43667 93.1167 4.69667 93.01 5.01C92.91 5.33 92.8367 5.66 92.79 6C92.7433 6.34 92.72 6.64667 92.72 6.92V9.11C92.72 9.52333 92.8333 9.78333 93.06 9.89C93.2933 9.99667 93.5633 10.05 93.87 10.05H94.26V10.64ZM98.94 10.78C98.3133 10.78 97.7933 10.5967 97.38 10.23C96.9733 9.87 96.77 9.30667 96.77 8.54C96.77 7.79333 97.0333 7.24333 97.56 6.89C98.0867 6.53667 98.8867 6.34 99.96 6.3L101.12 6.26V5.42C101.12 5.08 101.093 4.78333 101.04 4.53C100.98 4.27 100.857 4.06667 100.67 3.92C100.483 3.77333 100.2 3.7 99.82 3.7C99.4667 3.7 99.1967 3.76333 99.01 3.89C98.8233 4.02333 98.6967 4.20333 98.63 4.43C98.57 4.65667 98.54 4.92 98.54 5.22C98.1533 5.22 97.8567 5.15333 97.65 5.02C97.45 4.88667 97.35 4.66 97.35 4.34C97.35 4.01333 97.4667 3.75333 97.7 3.56C97.9267 3.36 98.23 3.21667 98.61 3.13C98.9967 3.04333 99.4167 3 99.87 3C100.73 3 101.373 3.18 101.8 3.54C102.227 3.90667 102.44 4.53333 102.44 5.42V9.04C102.44 9.43333 102.503 9.7 102.63 9.84C102.763 9.98 102.987 10.05 103.3 10.05H103.35V10.64H101.46L101.23 9.44H101.12C100.927 9.7 100.737 9.93 100.55 10.13C100.363 10.33 100.143 10.4867 99.89 10.6C99.6433 10.72 99.3267 10.78 98.94 10.78ZM99.26 9.91C99.8267 9.91 100.28 9.73667 100.62 9.39C100.953 9.03667 101.12 8.56333 101.12 7.97V6.83L100.22 6.87C99.4267 6.91 98.88 7.07333 98.58 7.36C98.2733 7.64 98.12 8.05667 98.12 8.61C98.12 9.47667 98.5 9.91 99.26 9.91ZM108.92 10.78C108.38 10.78 107.94 10.6667 107.6 10.44C107.253 10.2067 106.98 9.91 106.78 9.55H106.69L106.44 10.64H104.2V10.05H104.31C104.523 10.05 104.717 10.0267 104.89 9.98C105.063 9.93333 105.203 9.83667 105.31 9.69C105.41 9.55 105.46 9.33333 105.46 9.04V1.54C105.46 1.12667 105.347 0.866666 105.12 0.76C104.887 0.646666 104.617 0.59 104.31 0.59H104.2V0H106.78V2.58C106.78 2.73333 106.777 2.93333 106.77 3.18C106.763 3.43333 106.757 3.67333 106.75 3.9C106.737 4.12667 106.727 4.29333 106.72 4.4H106.78C106.993 3.96667 107.267 3.62333 107.6 3.37C107.94 3.12333 108.38 3 108.92 3C109.84 3 110.547 3.31 111.04 3.93C111.527 4.55 111.77 5.53 111.77 6.87C111.77 8.22333 111.527 9.21333 111.04 9.84C110.547 10.4667 109.84 10.78 108.92 10.78ZM108.69 9.88C109.31 9.88 109.753 9.62333 110.02 9.11C110.287 8.59 110.42 7.84 110.42 6.86C110.42 5.86 110.287 5.11667 110.02 4.63C109.753 4.13667 109.307 3.89 108.68 3.89C107.953 3.89 107.453 4.13667 107.18 4.63C106.913 5.11667 106.78 5.86333 106.78 6.87C106.78 7.84333 106.913 8.59 107.18 9.11C107.453 9.62333 107.957 9.88 108.69 9.88ZM116.84 10.64H112.87V10.05H113.05C113.257 10.05 113.443 10.03 113.61 9.99C113.783 9.95 113.923 9.86 114.03 9.72C114.143 9.58667 114.2 9.38333 114.2 9.11V4.68C114.2 4.4 114.143 4.19 114.03 4.05C113.923 3.91667 113.783 3.83 113.61 3.79C113.443 3.74333 113.257 3.72 113.05 3.72H113.01V3.14H115.51V9.04C115.51 9.33333 115.563 9.55 115.67 9.69C115.77 9.83667 115.91 9.93333 116.09 9.98C116.263 10.0267 116.453 10.05 116.66 10.05H116.84V10.64ZM114.8 1.74C114.573 1.74 114.383 1.67333 114.23 1.54C114.077 1.40667 114 1.18333 114 0.87C114 0.543333 114.077 0.316667 114.23 0.19C114.383 0.0633334 114.573 0 114.8 0C115.013 0 115.2 0.0633334 115.36 0.19C115.52 0.316667 115.6 0.543333 115.6 0.87C115.6 1.18333 115.52 1.40667 115.36 1.54C115.2 1.67333 115.013 1.74 114.8 1.74ZM120.99 10.78C120.37 10.78 119.82 10.65 119.34 10.39C118.86 10.13 118.483 9.71667 118.21 9.15C117.93 8.58333 117.79 7.84333 117.79 6.93C117.79 5.93 117.93 5.14333 118.21 4.57C118.483 3.99667 118.857 3.59 119.33 3.35C119.797 3.11667 120.327 3 120.92 3C121.307 3 121.687 3.05 122.06 3.15C122.433 3.25 122.743 3.40667 122.99 3.62C123.23 3.82667 123.35 4.09333 123.35 4.42C123.35 4.64 123.303 4.81333 123.21 4.94C123.117 5.07333 122.98 5.16667 122.8 5.22C122.62 5.28 122.39 5.31 122.11 5.31C122.11 5.01 122.073 4.73667 122 4.49C121.933 4.25 121.813 4.05667 121.64 3.91C121.473 3.77 121.233 3.7 120.92 3.7C120.56 3.7 120.25 3.79333 119.99 3.98C119.723 4.16667 119.517 4.49333 119.37 4.96C119.223 5.42667 119.15 6.08 119.15 6.92C119.15 7.90667 119.317 8.64333 119.65 9.13C119.983 9.62333 120.523 9.87 121.27 9.87C121.703 9.87 122.083 9.78 122.41 9.6C122.73 9.41333 122.97 9.17667 123.13 8.89C123.203 8.94333 123.26 9.01667 123.3 9.11C123.347 9.19667 123.37 9.30667 123.37 9.44C123.37 9.65333 123.28 9.86333 123.1 10.07C122.92 10.27 122.657 10.44 122.31 10.58C121.957 10.7133 121.517 10.78 120.99 10.78Z" fill="black"/>
</svg>
