<svg width="129" height="15" viewBox="0 0 129 15" fill="none" xmlns="http://www.w3.org/2000/svg">
<path d="M4.02 10.78H0.5V10.19H0.68C1 10.19 1.27333 10.1333 1.5 10.02C1.72 9.9 1.83 9.62 1.83 9.18V2.32C1.83 1.91333 1.71667 1.65333 1.49 1.54C1.26333 1.42667 0.993333 1.37 0.68 1.37H0.5V0.78H3.06L8.08 8.53V2.32C8.08 1.91333 7.96333 1.65333 7.73 1.54C7.50333 1.42667 7.23667 1.37 6.93 1.37H6.75V0.78H10.26V1.37H10.08C9.76 1.37 9.49 1.43 9.27 1.55C9.04333 1.66333 8.93 1.94 8.93 2.38V10.78H7.94L2.69 2.72V9.18C2.69 9.62 2.8 9.9 3.02 10.02C3.24667 10.1333 3.51667 10.19 3.83 10.19H4.02V10.78ZM14.67 10.92C13.6633 10.92 12.87 10.5967 12.29 9.95C11.71 9.31 11.42 8.33 11.42 7.01C11.42 5.70333 11.7 4.73 12.26 4.09C12.8133 3.45667 13.63 3.14 14.71 3.14C15.7167 3.14 16.51 3.45667 17.09 4.09C17.67 4.73 17.96 5.70333 17.96 7.01C17.96 8.33 17.6833 9.31 17.13 9.95C16.57 10.5967 15.75 10.92 14.67 10.92ZM14.7 10.19C15.4 10.19 15.89 9.92333 16.17 9.39C16.4567 8.85 16.6 8.05667 16.6 7.01C16.6 5.97 16.4567 5.18667 16.17 4.66C15.8767 4.14 15.38 3.88 14.68 3.88C13.98 3.88 13.49 4.14 13.21 4.66C12.9233 5.18667 12.78 5.97 12.78 7.01C12.78 8.05667 12.9233 8.85 13.21 9.39C13.5033 9.92333 14 10.19 14.7 10.19ZM22.09 10.92C21.3833 10.92 20.8667 10.76 20.54 10.44C20.22 10.1133 20.06 9.55 20.06 8.75V4.07H19V3.51C19.1667 3.51 19.3533 3.47667 19.56 3.41C19.76 3.33667 19.9367 3.22333 20.09 3.07C20.25 2.89667 20.38 2.69 20.48 2.45C20.58 2.21 20.6633 1.91 20.73 1.55H21.38V3.28H23.21V4.07H21.38V8.79C21.38 9.27 21.4767 9.62 21.67 9.84C21.8633 10.0667 22.12 10.18 22.44 10.18C22.6067 10.18 22.76 10.17 22.9 10.15C23.04 10.13 23.1867 10.1067 23.34 10.08V10.7C23.2133 10.7533 23.03 10.8033 22.79 10.85C22.55 10.8967 22.3167 10.92 22.09 10.92ZM27.68 10.92C26.6667 10.92 25.8733 10.5967 25.3 9.95C24.72 9.31 24.43 8.33 24.43 7.01C24.43 5.70333 24.7067 4.73 25.26 4.09C25.8133 3.45667 26.6333 3.14 27.72 3.14C28.7267 3.14 29.52 3.45667 30.1 4.09C30.68 4.73 30.97 5.70333 30.97 7.01C30.97 8.33 30.69 9.31 30.13 9.95C29.5767 10.5967 28.76 10.92 27.68 10.92ZM27.7 10.19C28.4 10.19 28.8933 9.92333 29.18 9.39C29.4667 8.85 29.61 8.05667 29.61 7.01C29.61 5.97 29.4633 5.18667 29.17 4.66C28.8833 4.14 28.39 3.88 27.69 3.88C26.99 3.88 26.4967 4.14 26.21 4.66C25.93 5.18667 25.79 5.97 25.79 7.01C25.79 8.05667 25.9333 8.85 26.22 9.39C26.5067 9.92333 27 10.19 27.7 10.19ZM38.83 10.92C38.2233 10.92 37.7133 10.8367 37.3 10.67C36.8867 10.51 36.5733 10.28 36.36 9.98C36.1533 9.68 36.05 9.33667 36.05 8.95C36.05 8.76333 36.09 8.6 36.17 8.46C36.25 8.32 36.3633 8.21 36.51 8.13C36.6567 8.05 36.84 8.01 37.06 8.01C37.0733 8.39 37.1467 8.75 37.28 9.09C37.4133 9.43 37.6133 9.70667 37.88 9.92C38.1533 10.1267 38.51 10.23 38.95 10.23C39.57 10.23 40.06 10.08 40.42 9.78C40.7733 9.47333 40.95 9.03667 40.95 8.47C40.95 8.12333 40.88 7.83 40.74 7.59C40.6067 7.35667 40.3833 7.13667 40.07 6.93C39.7567 6.72333 39.3267 6.51 38.78 6.29C38.2 6.04333 37.72 5.78 37.34 5.5C36.9533 5.22 36.6667 4.89 36.48 4.51C36.2933 4.13667 36.2 3.69333 36.2 3.18C36.2 2.64667 36.3333 2.19 36.6 1.81C36.8667 1.43667 37.23 1.14667 37.69 0.94C38.1567 0.74 38.6833 0.64 39.27 0.64C40.0967 0.64 40.74 0.8 41.2 1.12C41.66 1.44 41.89 1.80333 41.89 2.21C41.89 2.51 41.79 2.73667 41.59 2.89C41.3833 3.04333 41.1133 3.12 40.78 3.12C40.78 2.83333 40.73 2.55333 40.63 2.28C40.5367 2.01333 40.3733 1.79 40.14 1.61C39.9133 1.43 39.6033 1.34 39.21 1.34C38.67 1.34 38.25 1.48667 37.95 1.78C37.65 2.06667 37.5 2.45333 37.5 2.94C37.5 3.31333 37.57 3.63 37.71 3.89C37.8433 4.14333 38.07 4.37 38.39 4.57C38.7033 4.77 39.13 4.98333 39.67 5.21C40.4967 5.54333 41.1367 5.93 41.59 6.37C42.05 6.81 42.28 7.39 42.28 8.11C42.28 8.70333 42.14 9.21 41.86 9.63C41.58 10.0433 41.18 10.36 40.66 10.58C40.14 10.8067 39.53 10.92 38.83 10.92ZM47.01 10.92C45.99 10.92 45.1933 10.5833 44.62 9.91C44.0467 9.23667 43.76 8.29333 43.76 7.08C43.76 5.77333 44.03 4.79 44.57 4.13C45.1167 3.47 45.8833 3.14 46.87 3.14C47.7767 3.14 48.4867 3.42 49 3.98C49.52 4.54 49.78 5.37333 49.78 6.48V7.13H45.12C45.14 8.14333 45.3233 8.88 45.67 9.34C46.0233 9.80667 46.5367 10.04 47.21 10.04C47.69 10.04 48.1033 9.94 48.45 9.74C48.79 9.54 49.0433 9.31333 49.21 9.06C49.2767 9.08667 49.3367 9.14333 49.39 9.23C49.4433 9.31 49.47 9.41 49.47 9.53C49.47 9.71667 49.3833 9.92 49.21 10.14C49.03 10.3533 48.76 10.5367 48.4 10.69C48.0333 10.8433 47.57 10.92 47.01 10.92ZM45.15 6.37H48.37C48.37 5.62333 48.2533 5.02333 48.02 4.57C47.7933 4.11667 47.4 3.89 46.84 3.89C46.3267 3.89 45.9267 4.10333 45.64 4.53C45.36 4.95667 45.1967 5.57 45.15 6.37ZM54.99 10.78H50.94V10.19H50.99C51.3033 10.19 51.5733 10.1333 51.8 10.02C52.02 9.9 52.13 9.62 52.13 9.18V4.82C52.13 4.40667 52.0167 4.14333 51.79 4.03C51.5633 3.91667 51.2967 3.86 50.99 3.86H50.94V3.28H53.1L53.37 4.66H53.44C53.56 4.38 53.69 4.12333 53.83 3.89C53.97 3.65667 54.1567 3.47333 54.39 3.34C54.6233 3.20667 54.9433 3.14 55.35 3.14C55.8633 3.14 56.2433 3.22667 56.49 3.4C56.7433 3.58 56.87 3.83333 56.87 4.16C56.87 4.44667 56.7667 4.68333 56.56 4.87C56.36 5.05667 56.0267 5.15 55.56 5.15C55.56 4.77 55.5067 4.49333 55.4 4.32C55.2867 4.14667 55.0933 4.06 54.82 4.06C54.56 4.06 54.34 4.16333 54.16 4.37C53.9867 4.57667 53.8467 4.83667 53.74 5.15C53.64 5.47 53.5667 5.8 53.52 6.14C53.4733 6.48 53.45 6.78667 53.45 7.06V9.25C53.45 9.66333 53.5633 9.92333 53.79 10.03C54.0233 10.1367 54.2933 10.19 54.6 10.19H54.99V10.78ZM61.37 10.78H57.4V10.19H57.58C57.7867 10.19 57.9767 10.17 58.15 10.13C58.3233 10.09 58.4633 10 58.57 9.86C58.6767 9.72667 58.73 9.52333 58.73 9.25V4.82C58.73 4.54 58.6767 4.33 58.57 4.19C58.4633 4.05667 58.3233 3.97 58.15 3.93C57.9767 3.88333 57.7867 3.86 57.58 3.86H57.54V3.28H60.04V9.18C60.04 9.47333 60.0933 9.69 60.2 9.83C60.3 9.97667 60.44 10.0733 60.62 10.12C60.7933 10.1667 60.9833 10.19 61.19 10.19H61.37V10.78ZM59.33 1.88C59.1033 1.88 58.9133 1.81333 58.76 1.68C58.6067 1.54667 58.53 1.32333 58.53 1.01C58.53 0.683334 58.6067 0.456667 58.76 0.33C58.9133 0.203334 59.1033 0.14 59.33 0.14C59.5433 0.14 59.73 0.203334 59.89 0.33C60.05 0.456667 60.13 0.683334 60.13 1.01C60.13 1.32333 60.05 1.54667 59.89 1.68C59.73 1.81333 59.5433 1.88 59.33 1.88ZM66.26 10.78H61.93V10.19H62.12C62.3333 10.19 62.5267 10.1667 62.7 10.12C62.8733 10.0733 63.01 9.97667 63.11 9.83C63.21 9.69 63.26 9.47333 63.26 9.18V3.93H61.99V3.28H63.26V2.58C63.26 1.74667 63.4833 1.10667 63.93 0.66C64.37 0.22 64.9733 0 65.74 0C66.2267 0 66.6133 0.0433334 66.9 0.13C67.18 0.21 67.3833 0.323334 67.51 0.47C67.6367 0.616667 67.7 0.786667 67.7 0.98C67.7 1.23333 67.5933 1.42667 67.38 1.56C67.1667 1.69333 66.89 1.76 66.55 1.76C66.55 1.57333 66.5233 1.39667 66.47 1.23C66.4167 1.05667 66.3233 0.916667 66.19 0.81C66.0567 0.696667 65.87 0.64 65.63 0.64C65.23 0.64 64.9533 0.796667 64.8 1.11C64.6533 1.41667 64.58 1.86333 64.58 2.45V3.28H66.55V3.93H64.58V9.18C64.58 9.47333 64.63 9.69 64.73 9.83C64.8367 9.97667 64.9767 10.0733 65.15 10.12C65.33 10.1667 65.5233 10.19 65.73 10.19H66.26V10.78ZM74.56 10.78L71.54 2.11C71.4467 1.81667 71.3233 1.62 71.17 1.52C71.0233 1.42 70.8133 1.37 70.54 1.37H70.36V0.78H74.21V1.37H73.89C73.61 1.37 73.4 1.42333 73.26 1.53C73.12 1.63667 73.05 1.80667 73.05 2.04C73.05 2.12 73.06 2.2 73.08 2.28C73.1 2.36667 73.1267 2.46 73.16 2.56L74.7 7.11C74.84 7.52333 74.9633 7.92667 75.07 8.32C75.17 8.70667 75.2567 9.07 75.33 9.41C75.4033 9.07 75.4933 8.71 75.6 8.33C75.7 7.95 75.8267 7.54333 75.98 7.11L77.52 2.66C77.5533 2.54667 77.5833 2.43667 77.61 2.33C77.63 2.22333 77.64 2.13333 77.64 2.06C77.64 1.81333 77.5633 1.63667 77.41 1.53C77.2567 1.42333 77.0267 1.37 76.72 1.37H76.4V0.78H79.81V1.37H79.55C79.2767 1.37 79.07 1.43667 78.93 1.57C78.79 1.71 78.64 2.00667 78.48 2.46L75.58 10.78H74.56ZM84.11 10.78H80.13V10.19H80.32C80.52 10.19 80.7067 10.17 80.88 10.13C81.0533 10.09 81.1933 10 81.3 9.86C81.4067 9.72667 81.46 9.52333 81.46 9.25V4.82C81.46 4.54 81.4067 4.33 81.3 4.19C81.1933 4.05667 81.0533 3.97 80.88 3.93C80.7067 3.88333 80.52 3.86 80.32 3.86H80.27V3.28H82.78V9.18C82.78 9.47333 82.83 9.69 82.93 9.83C83.0367 9.97667 83.1767 10.0733 83.35 10.12C83.53 10.1667 83.7233 10.19 83.93 10.19H84.11V10.78ZM82.07 1.88C81.8433 1.88 81.6533 1.81333 81.5 1.68C81.3467 1.54667 81.27 1.32333 81.27 1.01C81.27 0.683334 81.3467 0.456667 81.5 0.33C81.6533 0.203334 81.8433 0.14 82.07 0.14C82.2833 0.14 82.47 0.203334 82.63 0.33C82.7833 0.456667 82.86 0.683334 82.86 1.01C82.86 1.32333 82.7833 1.54667 82.63 1.68C82.47 1.81333 82.2833 1.88 82.07 1.88ZM87.65 10.92C86.9433 10.92 86.43 10.76 86.11 10.44C85.7833 10.1133 85.62 9.55 85.62 8.75V4.07H84.56V3.51C84.7267 3.51 84.9133 3.47667 85.12 3.41C85.3267 3.33667 85.5033 3.22333 85.65 3.07C85.81 2.89667 85.94 2.69 86.04 2.45C86.1467 2.21 86.23 1.91 86.29 1.55H86.94V3.28H88.77V4.07H86.94V8.79C86.94 9.27 87.0367 9.62 87.23 9.84C87.43 10.0667 87.6867 10.18 88 10.18C88.1667 10.18 88.32 10.17 88.46 10.15C88.6 10.13 88.7467 10.1067 88.9 10.08V10.7C88.78 10.7533 88.5967 10.8033 88.35 10.85C88.11 10.8967 87.8767 10.92 87.65 10.92ZM93.24 10.78H89.47V10.19H89.58C89.9 10.19 90.1733 10.1333 90.4 10.02C90.62 9.9 90.73 9.62 90.73 9.18V1.68C90.73 1.4 90.6767 1.19333 90.57 1.06C90.4633 0.92 90.3233 0.83 90.15 0.79C89.9767 0.75 89.7867 0.73 89.58 0.73H89.47V0.14H92.05V3.22C92.05 3.38667 92.0433 3.56 92.03 3.74C92.0233 3.92667 92.0167 4.08333 92.01 4.21C91.9967 4.34333 91.99 4.41 91.99 4.41H92.06C92.2 4.13 92.37 3.89333 92.57 3.7C92.77 3.51333 93 3.37333 93.26 3.28C93.5133 3.18667 93.8 3.14 94.12 3.14C94.92 3.14 95.5333 3.35667 95.96 3.79C96.3867 4.22333 96.6 4.92 96.6 5.88V9.18C96.6 9.62 96.7 9.9 96.9 10.02C97.1 10.1333 97.36 10.19 97.68 10.19H97.72V10.78H95.28V5.95C95.28 5.34333 95.1667 4.87333 94.94 4.54C94.7133 4.2 94.3133 4.03 93.74 4.03C93.36 4.03 93.0433 4.12333 92.79 4.31C92.5367 4.49667 92.35 4.76 92.23 5.1C92.11 5.44 92.05 5.84 92.05 6.3V9.25C92.05 9.66333 92.1633 9.92333 92.39 10.03C92.6167 10.1367 92.8867 10.19 93.2 10.19H93.24V10.78ZM102.13 10.78H98.36V10.19H98.47C98.69 10.19 98.8833 10.1667 99.05 10.12C99.2233 10.0733 99.3633 9.97667 99.47 9.83C99.57 9.69 99.62 9.47333 99.62 9.18V1.68C99.62 1.4 99.5667 1.19333 99.46 1.06C99.3533 0.92 99.2133 0.83 99.04 0.79C98.8667 0.75 98.6767 0.73 98.47 0.73H98.36V0.14H100.94V5.54C100.94 5.66667 100.937 5.82667 100.93 6.02C100.923 6.21333 100.917 6.41 100.91 6.61C100.903 6.80333 100.897 6.96667 100.89 7.1C100.883 7.24 100.88 7.31 100.88 7.31L102.63 5.39C102.93 5.05667 103.133 4.79667 103.24 4.61C103.347 4.43 103.4 4.27333 103.4 4.14C103.4 4.02 103.343 3.94333 103.23 3.91C103.123 3.87667 102.953 3.86 102.72 3.86V3.28H105.81V3.86C105.49 3.86 105.173 3.97667 104.86 4.21C104.54 4.43667 104.2 4.75667 103.84 5.17L102.86 6.27L104.72 9.04C104.96 9.41333 105.2 9.7 105.44 9.9C105.68 10.0933 105.957 10.19 106.27 10.19H106.31V10.78H106.12C105.72 10.78 105.383 10.7667 105.11 10.74C104.837 10.7133 104.61 10.6533 104.43 10.56C104.25 10.4733 104.077 10.34 103.91 10.16C103.75 9.97333 103.57 9.72667 103.37 9.42L101.97 7.22L100.94 7.99V9.25C100.94 9.52333 100.993 9.72667 101.1 9.86C101.207 10 101.347 10.09 101.52 10.13C101.693 10.17 101.883 10.19 102.09 10.19H102.13V10.78ZM110.12 10.92C109.387 10.92 108.817 10.7033 108.41 10.27C108.01 9.83667 107.81 9.14 107.81 8.18V4.82C107.81 4.40667 107.697 4.14333 107.47 4.03C107.243 3.91667 106.973 3.86 106.66 3.86H106.62V3.28H109.13V8.11C109.13 8.71667 109.233 9.18667 109.44 9.52C109.64 9.85333 110.027 10.02 110.6 10.02C111.213 10.02 111.66 9.81333 111.94 9.4C112.22 8.98667 112.36 8.44 112.36 7.76V4.87C112.36 4.43 112.25 4.15333 112.03 4.04C111.803 3.92 111.53 3.86 111.21 3.86H111.17V3.28H113.68V9.25C113.68 9.66333 113.793 9.92333 114.02 10.03C114.247 10.1367 114.517 10.19 114.83 10.19H114.87V10.78H112.64L112.46 9.65H112.39C112.103 10.17 111.767 10.51 111.38 10.67C111 10.8367 110.58 10.92 110.12 10.92ZM123.53 14.14H119.35V13.55H119.81C120.13 13.55 120.4 13.4933 120.62 13.38C120.847 13.26 120.96 12.98 120.96 12.54V11.34C120.96 11.1933 120.963 11.0033 120.97 10.77C120.97 10.5433 120.977 10.3133 120.99 10.08C120.997 9.84667 121.003 9.66 121.01 9.52H120.96C120.753 9.94667 120.483 10.2867 120.15 10.54C119.81 10.7933 119.367 10.92 118.82 10.92C117.893 10.92 117.183 10.61 116.69 9.99C116.203 9.37 115.96 8.38667 115.96 7.04C115.96 5.68667 116.203 4.69667 116.69 4.07C117.183 3.45 117.893 3.14 118.82 3.14C119.36 3.14 119.8 3.25333 120.14 3.48C120.48 3.70667 120.753 4.00333 120.96 4.37H121.04L121.29 3.28H123.53V3.86H123.42C123.213 3.86 123.023 3.88333 122.85 3.93C122.67 3.97667 122.53 4.07 122.43 4.21C122.323 4.35 122.27 4.57 122.27 4.87V12.6C122.27 13.0133 122.387 13.2733 122.62 13.38C122.847 13.4933 123.113 13.55 123.42 13.55H123.53V14.14ZM119.05 10.02C119.783 10.02 120.283 9.77667 120.55 9.29C120.823 8.79667 120.96 8.04667 120.96 7.04C120.96 6.07333 120.823 5.33 120.55 4.81C120.283 4.29 119.78 4.03 119.04 4.03C118.427 4.03 117.987 4.29 117.72 4.81C117.453 5.33 117.32 6.08 117.32 7.06C117.32 8.04667 117.453 8.78667 117.72 9.28C117.987 9.77333 118.43 10.02 119.05 10.02ZM128.08 10.78H124.11V10.19H124.29C124.497 10.19 124.687 10.17 124.86 10.13C125.033 10.09 125.173 10 125.28 9.86C125.387 9.72667 125.44 9.52333 125.44 9.25V4.82C125.44 4.54 125.387 4.33 125.28 4.19C125.173 4.05667 125.033 3.97 124.86 3.93C124.687 3.88333 124.497 3.86 124.29 3.86H124.25V3.28H126.75V9.18C126.75 9.47333 126.803 9.69 126.91 9.83C127.01 9.97667 127.15 10.0733 127.33 10.12C127.503 10.1667 127.693 10.19 127.9 10.19H128.08V10.78ZM126.04 1.88C125.813 1.88 125.623 1.81333 125.47 1.68C125.317 1.54667 125.24 1.32333 125.24 1.01C125.24 0.683334 125.317 0.456667 125.47 0.33C125.623 0.203334 125.813 0.14 126.04 0.14C126.253 0.14 126.44 0.203334 126.6 0.33C126.76 0.456667 126.84 0.683334 126.84 1.01C126.84 1.32333 126.76 1.54667 126.6 1.68C126.44 1.81333 126.253 1.88 126.04 1.88Z" fill="black"/>
</svg>
