<svg width="122" height="14" viewBox="0 0 122 14" fill="none" xmlns="http://www.w3.org/2000/svg">
<path d="M8.42 0.64V10.64H6.95L1.6 2.34H1.55C1.57 2.66667 1.59333 3.07333 1.62 3.56C1.64667 4.04 1.66 4.53667 1.66 5.05V10.64H0.5V0.64H1.95L7.29 8.92H7.34C7.33333 8.76667 7.32333 8.54333 7.31 8.25C7.29667 7.95 7.28333 7.62333 7.27 7.27C7.25667 6.91 7.25 6.58333 7.25 6.29V0.64H8.42ZM17.49 6.87C17.49 8.11667 17.1767 9.08 16.55 9.76C15.9167 10.44 15.0633 10.78 13.99 10.78C13.33 10.78 12.74 10.63 12.22 10.33C11.7067 10.0233 11.3 9.58 11 9C10.7 8.41333 10.55 7.70333 10.55 6.87C10.55 5.63 10.8633 4.67333 11.49 4C12.1167 3.33333 12.9667 3 14.04 3C14.72 3 15.32 3.15 15.84 3.45C16.3533 3.75667 16.7567 4.19667 17.05 4.77C17.3433 5.34333 17.49 6.04333 17.49 6.87ZM11.82 6.87C11.82 7.75667 11.9967 8.46 12.35 8.98C12.6967 9.5 13.2533 9.76 14.02 9.76C14.78 9.76 15.3367 9.5 15.69 8.98C16.0433 8.46 16.22 7.75667 16.22 6.87C16.22 5.98333 16.0433 5.29 15.69 4.79C15.3367 4.28333 14.7767 4.03 14.01 4.03C13.2433 4.03 12.6867 4.28333 12.34 4.79C11.9933 5.29 11.82 5.98333 11.82 6.87ZM21.95 9.77C22.1367 9.77 22.3267 9.75333 22.52 9.72C22.7133 9.68667 22.8733 9.65333 23 9.62V10.56C22.8667 10.62 22.68 10.6733 22.44 10.72C22.1933 10.76 21.96 10.78 21.74 10.78C21.3467 10.78 20.9833 10.7133 20.65 10.58C20.3167 10.44 20.05 10.2033 19.85 9.87C19.6433 9.53667 19.54 9.06667 19.54 8.46V4.09H18.47V3.5L19.55 3.01L20.04 1.41H20.77V3.14H22.94V4.09H20.77V8.43C20.77 8.88333 20.88 9.22 21.1 9.44C21.32 9.66 21.6033 9.77 21.95 9.77ZM31.02 6.87C31.02 8.11667 30.7033 9.08 30.07 9.76C29.4433 10.44 28.5933 10.78 27.52 10.78C26.8533 10.78 26.2633 10.63 25.75 10.33C25.23 10.0233 24.82 9.58 24.52 9C24.22 8.41333 24.07 7.70333 24.07 6.87C24.07 5.63 24.3833 4.67333 25.01 4C25.6367 3.33333 26.4867 3 27.56 3C28.24 3 28.84 3.15 29.36 3.45C29.88 3.75667 30.2867 4.19667 30.58 4.77C30.8733 5.34333 31.02 6.04333 31.02 6.87ZM25.35 6.87C25.35 7.75667 25.5233 8.46 25.87 8.98C26.2233 9.5 26.7833 9.76 27.55 9.76C28.3033 9.76 28.8567 9.5 29.21 8.98C29.5633 8.46 29.74 7.75667 29.74 6.87C29.74 5.98333 29.5633 5.29 29.21 4.79C28.8567 4.28333 28.2967 4.03 27.53 4.03C26.7633 4.03 26.21 4.28333 25.87 4.79C25.5233 5.29 25.35 5.98333 25.35 6.87ZM42.44 7.97C42.44 8.85667 42.12 9.54667 41.48 10.04C40.8333 10.5333 39.9633 10.78 38.87 10.78C38.31 10.78 37.7933 10.7367 37.32 10.65C36.84 10.57 36.4433 10.4533 36.13 10.3V9.1C36.4633 9.24667 36.88 9.38333 37.38 9.51C37.88 9.63 38.3967 9.69 38.93 9.69C39.6767 9.69 40.24 9.54333 40.62 9.25C40.9933 8.96333 41.18 8.57333 41.18 8.08C41.18 7.75333 41.11 7.47667 40.97 7.25C40.83 7.03 40.59 6.82333 40.25 6.63C39.91 6.43667 39.4367 6.23333 38.83 6.02C37.9833 5.71333 37.3433 5.33667 36.91 4.89C36.47 4.43667 36.25 3.82333 36.25 3.05C36.25 2.51667 36.3867 2.06333 36.66 1.69C36.9333 1.31 37.31 1.01667 37.79 0.81C38.27 0.603333 38.8233 0.5 39.45 0.5C39.9967 0.5 40.5 0.553333 40.96 0.66C41.4133 0.76 41.8267 0.893333 42.2 1.06L41.81 2.14C41.4633 1.99333 41.09 1.86667 40.69 1.76C40.2833 1.66 39.86 1.61 39.42 1.61C38.7933 1.61 38.32 1.74333 38 2.01C37.6867 2.27667 37.53 2.63 37.53 3.07C37.53 3.40333 37.6 3.68333 37.74 3.91C37.88 4.13 38.1067 4.33 38.42 4.51C38.74 4.68333 39.17 4.87333 39.71 5.08C40.2967 5.29333 40.7933 5.52333 41.2 5.77C41.6067 6.02333 41.9167 6.32 42.13 6.66C42.3367 7.00667 42.44 7.44333 42.44 7.97ZM47.13 3.01C48.0433 3.01 48.72 3.21 49.16 3.61C49.6 4.01 49.82 4.65 49.82 5.53V10.64H48.92L48.69 9.58H48.63C48.3033 9.98667 47.96 10.29 47.6 10.49C47.24 10.6833 46.7433 10.78 46.11 10.78C45.43 10.78 44.8667 10.6 44.42 10.24C43.9667 9.88 43.74 9.31667 43.74 8.55C43.74 7.80333 44.0367 7.23 44.63 6.83C45.2167 6.42333 46.12 6.2 47.34 6.16L48.62 6.12V5.67C48.62 5.04333 48.4833 4.61 48.21 4.37C47.9367 4.12333 47.5533 4 47.06 4C46.6667 4 46.2933 4.06 45.94 4.18C45.5867 4.29333 45.2567 4.42667 44.95 4.58L44.57 3.65C44.8967 3.47667 45.2833 3.32667 45.73 3.2C46.1767 3.07333 46.6433 3.01 47.13 3.01ZM48.6 6.97L47.5 7.01C46.5667 7.05 45.92 7.2 45.56 7.46C45.2 7.72 45.02 8.09 45.02 8.57C45.02 8.99 45.1467 9.29667 45.4 9.49C45.66 9.69 45.99 9.79 46.39 9.79C47.0233 9.79 47.55 9.61333 47.97 9.26C48.39 8.91333 48.6 8.37333 48.6 7.64V6.97ZM55.76 3C56.6533 3 57.33 3.21667 57.79 3.65C58.2433 4.08333 58.47 4.78333 58.47 5.75V10.64H57.25V5.84C57.25 4.63333 56.69 4.03 55.57 4.03C54.7433 4.03 54.17 4.26333 53.85 4.73C53.5367 5.19667 53.38 5.87 53.38 6.75V10.64H52.14V3.14H53.14L53.32 4.16H53.39C53.63 3.76667 53.9667 3.47333 54.4 3.28C54.8267 3.09333 55.28 3 55.76 3ZM65.68 8.57C65.68 9.29667 65.41 9.84667 64.87 10.22C64.33 10.5933 63.6033 10.78 62.69 10.78C62.1633 10.78 61.7133 10.7367 61.34 10.65C60.96 10.57 60.6233 10.4533 60.33 10.3V9.18C60.63 9.33333 60.9933 9.47333 61.42 9.6C61.8467 9.72667 62.2767 9.79 62.71 9.79C63.3367 9.79 63.79 9.69 64.07 9.49C64.35 9.28333 64.49 9.01333 64.49 8.68C64.49 8.49333 64.44 8.32667 64.34 8.18C64.2333 8.02667 64.0467 7.87667 63.78 7.73C63.52 7.57667 63.14 7.40667 62.64 7.22C62.16 7.03333 61.7467 6.84667 61.4 6.66C61.0533 6.47333 60.7867 6.25 60.6 5.99C60.4133 5.73 60.32 5.39333 60.32 4.98C60.32 4.34667 60.58 3.85667 61.1 3.51C61.6133 3.17 62.29 3 63.13 3C63.59 3 64.02 3.04333 64.42 3.13C64.8133 3.21667 65.1833 3.34 65.53 3.5L65.11 4.48C64.79 4.34667 64.4567 4.23333 64.11 4.14C63.77 4.04667 63.4167 4 63.05 4C62.5433 4 62.16 4.08333 61.9 4.25C61.6333 4.41 61.5 4.63 61.5 4.91C61.5 5.11667 61.56 5.29333 61.68 5.44C61.8 5.58667 62.0033 5.72667 62.29 5.86C62.57 5.99333 62.95 6.15333 63.43 6.34C63.9033 6.52 64.31 6.70333 64.65 6.89C64.9833 7.07667 65.24 7.30333 65.42 7.57C65.5933 7.83667 65.68 8.17 65.68 8.57ZM74.47 1.75V10.64H73.21V1.75H70.09V0.64H77.58V1.75H74.47ZM81.77 3.01C82.6833 3.01 83.36 3.21 83.8 3.61C84.24 4.01 84.46 4.65 84.46 5.53V10.64H83.56L83.32 9.58H83.27C82.9433 9.98667 82.6 10.29 82.24 10.49C81.88 10.6833 81.3833 10.78 80.75 10.78C80.0633 10.78 79.4967 10.6 79.05 10.24C78.6033 9.88 78.38 9.31667 78.38 8.55C78.38 7.80333 78.6733 7.23 79.26 6.83C79.8467 6.42333 80.7533 6.2 81.98 6.16L83.25 6.12V5.67C83.25 5.04333 83.1167 4.61 82.85 4.37C82.5767 4.12333 82.1933 4 81.7 4C81.3067 4 80.9333 4.06 80.58 4.18C80.2267 4.29333 79.8933 4.42667 79.58 4.58L79.21 3.65C79.5367 3.47667 79.9233 3.32667 80.37 3.2C80.8167 3.07333 81.2833 3.01 81.77 3.01ZM83.24 6.97L82.13 7.01C81.1967 7.05 80.55 7.2 80.19 7.46C79.83 7.72 79.65 8.09 79.65 8.57C79.65 8.99 79.78 9.29667 80.04 9.49C80.2933 9.69 80.6233 9.79 81.03 9.79C81.6633 9.79 82.19 9.61333 82.61 9.26C83.03 8.91333 83.24 8.37333 83.24 7.64V6.97ZM89.44 3C89.9333 3 90.38 3.09333 90.78 3.28C91.1733 3.46667 91.51 3.75 91.79 4.13H91.86L92.03 3.14H93.01V10.77C93.01 11.8433 92.7367 12.65 92.19 13.19C91.6433 13.73 90.7967 14 89.65 14C88.55 14 87.65 13.84 86.95 13.52V12.39C87.6833 12.7833 88.6067 12.98 89.72 12.98C90.3667 12.98 90.8733 12.79 91.24 12.41C91.6067 12.03 91.79 11.5133 91.79 10.86V10.57C91.79 10.4567 91.7967 10.2967 91.81 10.09C91.8167 9.87667 91.8233 9.73 91.83 9.65H91.78C91.2733 10.4033 90.4967 10.78 89.45 10.78C88.4833 10.78 87.7267 10.44 87.18 9.76C86.6333 9.08 86.36 8.12667 86.36 6.9C86.36 5.70667 86.6333 4.75667 87.18 4.05C87.7267 3.35 88.48 3 89.44 3ZM89.61 4.03C88.9833 4.03 88.4967 4.28 88.15 4.78C87.8033 5.28 87.63 5.99333 87.63 6.92C87.63 7.84 87.8033 8.54667 88.15 9.04C88.49 9.52667 88.9867 9.77 89.64 9.77C90.3933 9.77 90.9433 9.56667 91.29 9.16C91.6367 8.75333 91.81 8.1 91.81 7.2V6.9C91.81 5.87333 91.63 5.14 91.27 4.7C90.9167 4.25333 90.3633 4.03 89.61 4.03ZM98.23 3.01C99.1433 3.01 99.82 3.21 100.26 3.61C100.7 4.01 100.92 4.65 100.92 5.53V10.64H100.02L99.79 9.58H99.73C99.4033 9.98667 99.06 10.29 98.7 10.49C98.34 10.6833 97.8433 10.78 97.21 10.78C96.53 10.78 95.9667 10.6 95.52 10.24C95.0667 9.88 94.84 9.31667 94.84 8.55C94.84 7.80333 95.1367 7.23 95.73 6.83C96.3167 6.42333 97.22 6.2 98.44 6.16L99.72 6.12V5.67C99.72 5.04333 99.5833 4.61 99.31 4.37C99.0367 4.12333 98.6533 4 98.16 4C97.7667 4 97.3933 4.06 97.04 4.18C96.6867 4.29333 96.3567 4.42667 96.05 4.58L95.67 3.65C95.9967 3.47667 96.3833 3.32667 96.83 3.2C97.2767 3.07333 97.7433 3.01 98.23 3.01ZM99.7 6.97L98.6 7.01C97.6667 7.05 97.02 7.2 96.66 7.46C96.3 7.72 96.12 8.09 96.12 8.57C96.12 8.99 96.2467 9.29667 96.5 9.49C96.76 9.69 97.09 9.79 97.49 9.79C98.1233 9.79 98.65 9.61333 99.07 9.26C99.49 8.91333 99.7 8.37333 99.7 7.64V6.97ZM104.48 0V10.64H103.24V0H104.48ZM113.38 6.87C113.38 8.11667 113.067 9.08 112.44 9.76C111.807 10.44 110.953 10.78 109.88 10.78C109.22 10.78 108.63 10.63 108.11 10.33C107.59 10.0233 107.18 9.58 106.88 9C106.587 8.41333 106.44 7.70333 106.44 6.87C106.44 5.63 106.75 4.67333 107.37 4C107.997 3.33333 108.847 3 109.92 3C110.6 3 111.2 3.15 111.72 3.45C112.24 3.75667 112.647 4.19667 112.94 4.77C113.233 5.34333 113.38 6.04333 113.38 6.87ZM107.71 6.87C107.71 7.75667 107.883 8.46 108.23 8.98C108.583 9.5 109.143 9.76 109.91 9.76C110.663 9.76 111.217 9.5 111.57 8.98C111.93 8.46 112.11 7.75667 112.11 6.87C112.11 5.98333 111.93 5.29 111.57 4.79C111.217 4.28333 110.657 4.03 109.89 4.03C109.13 4.03 108.577 4.28333 108.23 4.79C107.883 5.29 107.71 5.98333 107.71 6.87ZM117.99 3C118.483 3 118.927 3.09333 119.32 3.28C119.72 3.46667 120.06 3.75 120.34 4.13H120.41L120.58 3.14H121.56V10.77C121.56 11.8433 121.287 12.65 120.74 13.19C120.193 13.73 119.347 14 118.2 14C117.093 14 116.19 13.84 115.49 13.52V12.39C116.23 12.7833 117.157 12.98 118.27 12.98C118.91 12.98 119.413 12.79 119.78 12.41C120.153 12.03 120.34 11.5133 120.34 10.86V10.57C120.34 10.4567 120.343 10.2967 120.35 10.09C120.363 9.87667 120.373 9.73 120.38 9.65H120.32C119.82 10.4033 119.047 10.78 118 10.78C117.027 10.78 116.267 10.44 115.72 9.76C115.18 9.08 114.91 8.12667 114.91 6.9C114.91 5.70667 115.18 4.75667 115.72 4.05C116.267 3.35 117.023 3 117.99 3ZM118.15 4.03C117.53 4.03 117.047 4.28 116.7 4.78C116.353 5.28 116.18 5.99333 116.18 6.92C116.18 7.84 116.35 8.54667 116.69 9.04C117.03 9.52667 117.527 9.77 118.18 9.77C118.94 9.77 119.49 9.56667 119.83 9.16C120.177 8.75333 120.35 8.1 120.35 7.2V6.9C120.35 5.87333 120.173 5.14 119.82 4.7C119.467 4.25333 118.91 4.03 118.15 4.03Z" fill="black"/>
</svg>
