<svg width="210" height="14" viewBox="0 0 210 14" fill="none" xmlns="http://www.w3.org/2000/svg">
<path d="M8.42 0.64V10.64H6.95L1.6 2.34H1.55C1.57 2.66667 1.59333 3.07333 1.62 3.56C1.64667 4.04 1.66 4.53667 1.66 5.05V10.64H0.5V0.64H1.95L7.29 8.92H7.34C7.33333 8.76667 7.32333 8.54333 7.31 8.25C7.29667 7.95 7.28333 7.62333 7.27 7.27C7.25667 6.91 7.25 6.58333 7.25 6.29V0.64H8.42ZM17.49 6.87C17.49 8.11667 17.1767 9.08 16.55 9.76C15.9167 10.44 15.0633 10.78 13.99 10.78C13.33 10.78 12.74 10.63 12.22 10.33C11.7067 10.0233 11.3 9.58 11 9C10.7 8.41333 10.55 7.70333 10.55 6.87C10.55 5.63 10.8633 4.67333 11.49 4C12.1167 3.33333 12.9667 3 14.04 3C14.72 3 15.32 3.15 15.84 3.45C16.3533 3.75667 16.7567 4.19667 17.05 4.77C17.3433 5.34333 17.49 6.04333 17.49 6.87ZM11.82 6.87C11.82 7.75667 11.9967 8.46 12.35 8.98C12.6967 9.5 13.2533 9.76 14.02 9.76C14.78 9.76 15.3367 9.5 15.69 8.98C16.0433 8.46 16.22 7.75667 16.22 6.87C16.22 5.98333 16.0433 5.29 15.69 4.79C15.3367 4.28333 14.7767 4.03 14.01 4.03C13.2433 4.03 12.6867 4.28333 12.34 4.79C11.9933 5.29 11.82 5.98333 11.82 6.87ZM21.95 9.77C22.1367 9.77 22.3267 9.75333 22.52 9.72C22.7133 9.68667 22.8733 9.65333 23 9.62V10.56C22.8667 10.62 22.68 10.6733 22.44 10.72C22.1933 10.76 21.96 10.78 21.74 10.78C21.3467 10.78 20.9833 10.7133 20.65 10.58C20.3167 10.44 20.05 10.2033 19.85 9.87C19.6433 9.53667 19.54 9.06667 19.54 8.46V4.09H18.47V3.5L19.55 3.01L20.04 1.41H20.77V3.14H22.94V4.09H20.77V8.43C20.77 8.88333 20.88 9.22 21.1 9.44C21.32 9.66 21.6033 9.77 21.95 9.77ZM31.02 6.87C31.02 8.11667 30.7033 9.08 30.07 9.76C29.4433 10.44 28.5933 10.78 27.52 10.78C26.8533 10.78 26.2633 10.63 25.75 10.33C25.23 10.0233 24.82 9.58 24.52 9C24.22 8.41333 24.07 7.70333 24.07 6.87C24.07 5.63 24.3833 4.67333 25.01 4C25.6367 3.33333 26.4867 3 27.56 3C28.24 3 28.84 3.15 29.36 3.45C29.88 3.75667 30.2867 4.19667 30.58 4.77C30.8733 5.34333 31.02 6.04333 31.02 6.87ZM25.35 6.87C25.35 7.75667 25.5233 8.46 25.87 8.98C26.2233 9.5 26.7833 9.76 27.55 9.76C28.3033 9.76 28.8567 9.5 29.21 8.98C29.5633 8.46 29.74 7.75667 29.74 6.87C29.74 5.98333 29.5633 5.29 29.21 4.79C28.8567 4.28333 28.2967 4.03 27.53 4.03C26.7633 4.03 26.21 4.28333 25.87 4.79C25.5233 5.29 25.35 5.98333 25.35 6.87ZM42.22 7.97C42.22 8.85667 41.8967 9.54667 41.25 10.04C40.61 10.5333 39.7433 10.78 38.65 10.78C38.09 10.78 37.57 10.7367 37.09 10.65C36.6167 10.57 36.22 10.4533 35.9 10.3V9.1C36.24 9.24667 36.66 9.38333 37.16 9.51C37.66 9.63 38.1733 9.69 38.7 9.69C39.4467 9.69 40.01 9.54333 40.39 9.25C40.77 8.96333 40.96 8.57333 40.96 8.08C40.96 7.75333 40.89 7.47667 40.75 7.25C40.61 7.03 40.37 6.82333 40.03 6.63C39.69 6.43667 39.2167 6.23333 38.61 6.02C37.7567 5.71333 37.1133 5.33667 36.68 4.89C36.2467 4.43667 36.03 3.82333 36.03 3.05C36.03 2.51667 36.1667 2.06333 36.44 1.69C36.7067 1.31 37.08 1.01667 37.56 0.81C38.04 0.603333 38.5933 0.5 39.22 0.5C39.7733 0.5 40.2767 0.553333 40.73 0.66C41.19 0.76 41.6067 0.893333 41.98 1.06L41.59 2.14C41.2433 1.99333 40.8667 1.86667 40.46 1.76C40.0533 1.66 39.63 1.61 39.19 1.61C38.57 1.61 38.1 1.74333 37.78 2.01C37.46 2.27667 37.3 2.63 37.3 3.07C37.3 3.40333 37.37 3.68333 37.51 3.91C37.65 4.13 37.88 4.33 38.2 4.51C38.52 4.68333 38.95 4.87333 39.49 5.08C40.0767 5.29333 40.5733 5.52333 40.98 5.77C41.3867 6.02333 41.6933 6.32 41.9 6.66C42.1133 7.00667 42.22 7.44333 42.22 7.97ZM46.91 3.01C47.8233 3.01 48.5 3.21 48.94 3.61C49.38 4.01 49.6 4.65 49.6 5.53V10.64H48.7L48.46 9.58H48.41C48.0833 9.98667 47.74 10.29 47.38 10.49C47.02 10.6833 46.5233 10.78 45.89 10.78C45.2033 10.78 44.6367 10.6 44.19 10.24C43.7433 9.88 43.52 9.31667 43.52 8.55C43.52 7.80333 43.8133 7.23 44.4 6.83C44.9867 6.42333 45.8933 6.2 47.12 6.16L48.39 6.12V5.67C48.39 5.04333 48.2567 4.61 47.99 4.37C47.7167 4.12333 47.3333 4 46.84 4C46.4467 4 46.0733 4.06 45.72 4.18C45.3667 4.29333 45.0333 4.42667 44.72 4.58L44.35 3.65C44.6767 3.47667 45.0633 3.32667 45.51 3.2C45.9567 3.07333 46.4233 3.01 46.91 3.01ZM48.38 6.97L47.27 7.01C46.3367 7.05 45.69 7.2 45.33 7.46C44.97 7.72 44.79 8.09 44.79 8.57C44.79 8.99 44.92 9.29667 45.18 9.49C45.4333 9.69 45.7633 9.79 46.17 9.79C46.8033 9.79 47.33 9.61333 47.75 9.26C48.17 8.91333 48.38 8.37333 48.38 7.64V6.97ZM55.53 3C56.43 3 57.1067 3.21667 57.56 3.65C58.02 4.08333 58.25 4.78333 58.25 5.75V10.64H57.03V5.84C57.03 4.63333 56.47 4.03 55.35 4.03C54.5167 4.03 53.9433 4.26333 53.63 4.73C53.31 5.19667 53.15 5.87 53.15 6.75V10.64H51.92V3.14H52.91L53.1 4.16H53.17C53.41 3.76667 53.7433 3.47333 54.17 3.28C54.6033 3.09333 55.0567 3 55.53 3ZM65.46 8.57C65.46 9.29667 65.19 9.84667 64.65 10.22C64.1033 10.5933 63.3733 10.78 62.46 10.78C61.94 10.78 61.49 10.7367 61.11 10.65C60.73 10.57 60.3967 10.4533 60.11 10.3V9.18C60.41 9.33333 60.77 9.47333 61.19 9.6C61.6167 9.72667 62.05 9.79 62.49 9.79C63.1167 9.79 63.57 9.69 63.85 9.49C64.13 9.28333 64.27 9.01333 64.27 8.68C64.27 8.49333 64.2167 8.32667 64.11 8.18C64.01 8.02667 63.8267 7.87667 63.56 7.73C63.2933 7.57667 62.9133 7.40667 62.42 7.22C61.9333 7.03333 61.5167 6.84667 61.17 6.66C60.83 6.47333 60.5667 6.25 60.38 5.99C60.1933 5.73 60.1 5.39333 60.1 4.98C60.1 4.34667 60.3567 3.85667 60.87 3.51C61.39 3.17 62.07 3 62.91 3C63.37 3 63.7967 3.04333 64.19 3.13C64.59 3.21667 64.96 3.34 65.3 3.5L64.88 4.48C64.5667 4.34667 64.2367 4.23333 63.89 4.14C63.5433 4.04667 63.19 4 62.83 4C62.3233 4 61.9367 4.08333 61.67 4.25C61.4033 4.41 61.27 4.63 61.27 4.91C61.27 5.11667 61.33 5.29333 61.45 5.44C61.5767 5.58667 61.78 5.72667 62.06 5.86C62.3467 5.99333 62.7267 6.15333 63.2 6.34C63.68 6.52 64.0867 6.70333 64.42 6.89C64.76 7.07667 65.0167 7.30333 65.19 7.57C65.37 7.83667 65.46 8.17 65.46 8.57ZM76.45 9.53V10.64H70.86V0.64H76.45V1.75H72.12V4.87H76.2V5.96H72.12V9.53H76.45ZM81.14 3C81.6333 3 82.0767 3.09333 82.47 3.28C82.87 3.46667 83.21 3.75 83.49 4.13H83.56L83.73 3.14H84.71V10.77C84.71 11.8433 84.4367 12.65 83.89 13.19C83.3433 13.73 82.4967 14 81.35 14C80.25 14 79.35 13.84 78.65 13.52V12.39C79.3833 12.7833 80.3067 12.98 81.42 12.98C82.06 12.98 82.5667 12.79 82.94 12.41C83.3067 12.03 83.49 11.5133 83.49 10.86V10.57C83.49 10.4567 83.4933 10.2967 83.5 10.09C83.5133 9.87667 83.5233 9.73 83.53 9.65H83.48C82.9733 10.4033 82.1967 10.78 81.15 10.78C80.1833 10.78 79.4267 10.44 78.88 9.76C78.3333 9.08 78.06 8.12667 78.06 6.9C78.06 5.70667 78.3333 4.75667 78.88 4.05C79.4267 3.35 80.18 3 81.14 3ZM81.31 4.03C80.6833 4.03 80.1967 4.28 79.85 4.78C79.5033 5.28 79.33 5.99333 79.33 6.92C79.33 7.84 79.5 8.54667 79.84 9.04C80.18 9.52667 80.6767 9.77 81.33 9.77C82.09 9.77 82.6433 9.56667 82.99 9.16C83.33 8.75333 83.5 8.1 83.5 7.2V6.9C83.5 5.87333 83.3233 5.14 82.97 4.7C82.6167 4.25333 82.0633 4.03 81.31 4.03ZM88.94 10.67L85.91 3.14H87.23L88.85 7.41C88.99 7.78333 89.1167 8.14 89.23 8.48C89.3433 8.82 89.4267 9.14333 89.48 9.45H89.54C89.5933 9.21667 89.68 8.91 89.8 8.53C89.9267 8.15667 90.0533 7.77667 90.18 7.39L91.71 3.14H93.04L89.8 11.68C89.54 12.3867 89.2033 12.95 88.79 13.37C88.3767 13.79 87.8033 14 87.07 14C86.85 14 86.6567 13.9867 86.49 13.96C86.3167 13.94 86.17 13.9167 86.05 13.89V12.91C86.1567 12.93 86.28 12.9467 86.42 12.96C86.5667 12.98 86.72 12.99 86.88 12.99C87.3067 12.99 87.6533 12.87 87.92 12.63C88.1867 12.3833 88.3933 12.06 88.54 11.66L88.94 10.67ZM97.8 3C98.72 3 99.4633 3.32 100.03 3.96C100.597 4.60667 100.88 5.57667 100.88 6.87C100.88 8.15 100.597 9.12333 100.03 9.79C99.4633 10.45 98.7133 10.78 97.78 10.78C97.2067 10.78 96.73 10.67 96.35 10.45C95.97 10.23 95.6733 9.97667 95.46 9.69H95.38C95.3933 9.85 95.41 10.05 95.43 10.29C95.45 10.53 95.46 10.74 95.46 10.92V14H94.23V3.14H95.24L95.4 4.16H95.46C95.6867 3.83333 95.98 3.55667 96.34 3.33C96.7067 3.11 97.1933 3 97.8 3ZM97.57 4.03C96.81 4.03 96.2733 4.24667 95.96 4.68C95.6467 5.10667 95.48 5.76 95.46 6.64V6.87C95.46 7.79667 95.61 8.51 95.91 9.01C96.2167 9.51 96.78 9.76 97.6 9.76C98.06 9.76 98.4367 9.63333 98.73 9.38C99.0233 9.12667 99.2433 8.78333 99.39 8.35C99.53 7.91667 99.6 7.42 99.6 6.86C99.6 6 99.4367 5.31333 99.11 4.8C98.7767 4.28667 98.2633 4.03 97.57 4.03ZM105.34 9.77C105.527 9.77 105.72 9.75333 105.92 9.72C106.113 9.68667 106.27 9.65333 106.39 9.62V10.56C106.263 10.62 106.077 10.6733 105.83 10.72C105.59 10.76 105.357 10.78 105.13 10.78C104.743 10.78 104.383 10.7133 104.05 10.58C103.717 10.44 103.447 10.2033 103.24 9.87C103.04 9.53667 102.94 9.06667 102.94 8.46V4.09H101.87V3.5L102.95 3.01L103.44 1.41H104.17V3.14H106.34V4.09H104.17V8.43C104.17 8.88333 104.28 9.22 104.5 9.44C104.72 9.66 105 9.77 105.34 9.77ZM108.52 0.32C108.707 0.32 108.873 0.383333 109.02 0.51C109.167 0.636666 109.24 0.836666 109.24 1.11C109.24 1.37 109.167 1.56333 109.02 1.69C108.873 1.82333 108.707 1.89 108.52 1.89C108.313 1.89 108.14 1.82333 108 1.69C107.86 1.56333 107.79 1.37 107.79 1.11C107.79 0.836666 107.86 0.636666 108 0.51C108.14 0.383333 108.313 0.32 108.52 0.32ZM107.89 3.14H109.12V10.64H107.89V3.14ZM114.35 3.01C115.263 3.01 115.94 3.21 116.38 3.61C116.813 4.01 117.03 4.65 117.03 5.53V10.64H116.14L115.9 9.58H115.84C115.513 9.98667 115.17 10.29 114.81 10.49C114.457 10.6833 113.96 10.78 113.32 10.78C112.64 10.78 112.077 10.6 111.63 10.24C111.183 9.88 110.96 9.31667 110.96 8.55C110.96 7.80333 111.253 7.23 111.84 6.83C112.427 6.42333 113.333 6.2 114.56 6.16L115.83 6.12V5.67C115.83 5.04333 115.693 4.61 115.42 4.37C115.153 4.12333 114.773 4 114.28 4C113.887 4 113.513 4.06 113.16 4.18C112.8 4.29333 112.467 4.42667 112.16 4.58L111.78 3.65C112.107 3.47667 112.497 3.32667 112.95 3.2C113.397 3.07333 113.863 3.01 114.35 3.01ZM115.82 6.97L114.71 7.01C113.777 7.05 113.13 7.2 112.77 7.46C112.41 7.72 112.23 8.09 112.23 8.57C112.23 8.99 112.36 9.29667 112.62 9.49C112.873 9.69 113.2 9.79 113.6 9.79C114.24 9.79 114.77 9.61333 115.19 9.26C115.61 8.91333 115.82 8.37333 115.82 7.64V6.97ZM122.97 3C123.863 3 124.54 3.21667 125 3.65C125.46 4.08333 125.69 4.78333 125.69 5.75V10.64H124.47V5.84C124.47 4.63333 123.91 4.03 122.79 4.03C121.957 4.03 121.383 4.26333 121.07 4.73C120.75 5.19667 120.59 5.87 120.59 6.75V10.64H119.36V3.14H120.35L120.53 4.16H120.6C120.847 3.76667 121.183 3.47333 121.61 3.28C122.043 3.09333 122.497 3 122.97 3ZM139.24 0.64V10.64H137.98V5.98H132.85V10.64H131.59V0.64H132.85V4.87H137.98V0.64H139.24ZM142.43 0.32C142.617 0.32 142.783 0.383333 142.93 0.51C143.07 0.636666 143.14 0.836666 143.14 1.11C143.14 1.37 143.07 1.56333 142.93 1.69C142.783 1.82333 142.617 1.89 142.43 1.89C142.223 1.89 142.05 1.82333 141.91 1.69C141.77 1.56333 141.7 1.37 141.7 1.11C141.7 0.836666 141.77 0.636666 141.91 0.51C142.05 0.383333 142.223 0.32 142.43 0.32ZM141.8 3.14H143.03V10.64H141.8V3.14ZM148.31 3C148.957 3 149.51 3.14 149.97 3.42C150.43 3.7 150.783 4.09333 151.03 4.6C151.277 5.10667 151.4 5.7 151.4 6.38V7.13H146.27C146.283 7.97667 146.5 8.62333 146.92 9.07C147.333 9.51 147.913 9.73 148.66 9.73C149.133 9.73 149.557 9.68667 149.93 9.6C150.297 9.50667 150.677 9.37667 151.07 9.21V10.29C150.683 10.4567 150.303 10.58 149.93 10.66C149.557 10.74 149.113 10.78 148.6 10.78C147.893 10.78 147.267 10.6367 146.72 10.35C146.173 10.0567 145.75 9.62333 145.45 9.05C145.143 8.47667 144.99 7.77333 144.99 6.94C144.99 6.12 145.127 5.41667 145.4 4.83C145.68 4.24333 146.07 3.79 146.57 3.47C147.07 3.15667 147.65 3 148.31 3ZM148.3 4C147.707 4 147.24 4.19 146.9 4.57C146.56 4.95 146.357 5.47667 146.29 6.15H150.12C150.107 5.51 149.957 4.99333 149.67 4.6C149.377 4.2 148.92 4 148.3 4ZM156.81 3C156.95 3 157.1 3.00667 157.26 3.02C157.427 3.03333 157.57 3.05333 157.69 3.08L157.54 4.21C157.413 4.18333 157.28 4.16 157.14 4.14C156.993 4.12667 156.853 4.12 156.72 4.12C156.34 4.12 155.983 4.22333 155.65 4.43C155.31 4.64333 155.04 4.93667 154.84 5.31C154.64 5.69 154.54 6.13333 154.54 6.64V10.64H153.31V3.14H154.32L154.46 4.51H154.51C154.757 4.09667 155.07 3.74 155.45 3.44C155.83 3.14667 156.283 3 156.81 3ZM165.61 6.87C165.61 8.11667 165.297 9.08 164.67 9.76C164.037 10.44 163.183 10.78 162.11 10.78C161.45 10.78 160.86 10.63 160.34 10.33C159.827 10.0233 159.42 9.58 159.12 9C158.82 8.41333 158.67 7.70333 158.67 6.87C158.67 5.63 158.983 4.67333 159.61 4C160.237 3.33333 161.087 3 162.16 3C162.84 3 163.437 3.15 163.95 3.45C164.47 3.75667 164.877 4.19667 165.17 4.77C165.463 5.34333 165.61 6.04333 165.61 6.87ZM159.94 6.87C159.94 7.75667 160.117 8.46 160.47 8.98C160.817 9.5 161.373 9.76 162.14 9.76C162.9 9.76 163.457 9.5 163.81 8.98C164.163 8.46 164.34 7.75667 164.34 6.87C164.34 5.98333 164.163 5.29 163.81 4.79C163.457 4.28333 162.897 4.03 162.13 4.03C161.363 4.03 160.807 4.28333 160.46 4.79C160.113 5.29 159.94 5.98333 159.94 6.87ZM170.22 3C170.713 3 171.16 3.09333 171.56 3.28C171.953 3.46667 172.29 3.75 172.57 4.13H172.64L172.81 3.14H173.79V10.77C173.79 11.8433 173.517 12.65 172.97 13.19C172.423 13.73 171.577 14 170.43 14C169.33 14 168.43 13.84 167.73 13.52V12.39C168.463 12.7833 169.387 12.98 170.5 12.98C171.147 12.98 171.653 12.79 172.02 12.41C172.387 12.03 172.57 11.5133 172.57 10.86V10.57C172.57 10.4567 172.577 10.2967 172.59 10.09C172.597 9.87667 172.603 9.73 172.61 9.65H172.56C172.053 10.4033 171.277 10.78 170.23 10.78C169.263 10.78 168.507 10.44 167.96 9.76C167.413 9.08 167.14 8.12667 167.14 6.9C167.14 5.70667 167.413 4.75667 167.96 4.05C168.507 3.35 169.26 3 170.22 3ZM170.39 4.03C169.763 4.03 169.277 4.28 168.93 4.78C168.583 5.28 168.41 5.99333 168.41 6.92C168.41 7.84 168.58 8.54667 168.92 9.04C169.267 9.52667 169.767 9.77 170.42 9.77C171.173 9.77 171.723 9.56667 172.07 9.16C172.417 8.75333 172.59 8.1 172.59 7.2V6.9C172.59 5.87333 172.41 5.14 172.05 4.7C171.697 4.25333 171.143 4.03 170.39 4.03ZM177.4 0V10.64H176.17V0H177.4ZM181.63 10.67L178.61 3.14H179.92L181.55 7.41C181.69 7.78333 181.813 8.14 181.92 8.48C182.033 8.82 182.12 9.14333 182.18 9.45H182.23C182.29 9.21667 182.38 8.91 182.5 8.53C182.62 8.15667 182.747 7.77667 182.88 7.39L184.4 3.14H185.73L182.5 11.68C182.24 12.3867 181.9 12.95 181.48 13.37C181.067 13.79 180.497 14 179.77 14C179.543 14 179.347 13.9867 179.18 13.96C179.013 13.94 178.87 13.9167 178.75 13.89V12.91C178.85 12.93 178.973 12.9467 179.12 12.96C179.26 12.98 179.41 12.99 179.57 12.99C180.003 12.99 180.35 12.87 180.61 12.63C180.877 12.3833 181.087 12.06 181.24 11.66L181.63 10.67ZM190.49 3C191.417 3 192.16 3.32 192.72 3.96C193.287 4.60667 193.57 5.57667 193.57 6.87C193.57 8.15 193.287 9.12333 192.72 9.79C192.16 10.45 191.413 10.78 190.48 10.78C189.9 10.78 189.42 10.67 189.04 10.45C188.667 10.23 188.37 9.97667 188.15 9.69H188.07C188.09 9.85 188.11 10.05 188.13 10.29C188.143 10.53 188.15 10.74 188.15 10.92V14H186.92V3.14H187.93L188.1 4.16H188.15C188.377 3.83333 188.673 3.55667 189.04 3.33C189.4 3.11 189.883 3 190.49 3ZM190.27 4.03C189.503 4.03 188.963 4.24667 188.65 4.68C188.337 5.10667 188.17 5.76 188.15 6.64V6.87C188.15 7.79667 188.303 8.51 188.61 9.01C188.91 9.51 189.473 9.76 190.3 9.76C190.753 9.76 191.127 9.63333 191.42 9.38C191.713 9.12667 191.933 8.78333 192.08 8.35C192.227 7.91667 192.3 7.42 192.3 6.86C192.3 6 192.133 5.31333 191.8 4.8C191.467 4.28667 190.957 4.03 190.27 4.03ZM196.76 0V3.12C196.76 3.49333 196.737 3.84333 196.69 4.17H196.78C197.02 3.79 197.35 3.5 197.77 3.3C198.183 3.10667 198.633 3.01 199.12 3.01C200.033 3.01 200.717 3.22667 201.17 3.66C201.63 4.09333 201.86 4.79 201.86 5.75V10.64H200.64V5.84C200.64 4.63333 200.08 4.03 198.96 4.03C198.12 4.03 197.543 4.26667 197.23 4.74C196.917 5.21333 196.76 5.88667 196.76 6.76V10.64H195.53V0H196.76ZM209.07 8.57C209.07 9.29667 208.8 9.84667 208.26 10.22C207.72 10.5933 206.99 10.78 206.07 10.78C205.55 10.78 205.1 10.7367 204.72 10.65C204.347 10.57 204.013 10.4533 203.72 10.3V9.18C204.02 9.33333 204.383 9.47333 204.81 9.6C205.23 9.72667 205.66 9.79 206.1 9.79C206.727 9.79 207.18 9.69 207.46 9.49C207.74 9.28333 207.88 9.01333 207.88 8.68C207.88 8.49333 207.83 8.32667 207.73 8.18C207.623 8.02667 207.437 7.87667 207.17 7.73C206.903 7.57667 206.523 7.40667 206.03 7.22C205.543 7.03333 205.13 6.84667 204.79 6.66C204.443 6.47333 204.177 6.25 203.99 5.99C203.803 5.73 203.71 5.39333 203.71 4.98C203.71 4.34667 203.967 3.85667 204.48 3.51C205 3.17 205.68 3 206.52 3C206.98 3 207.407 3.04333 207.8 3.13C208.2 3.21667 208.573 3.34 208.92 3.5L208.5 4.48C208.18 4.34667 207.847 4.23333 207.5 4.14C207.153 4.04667 206.8 4 206.44 4C205.933 4 205.547 4.08333 205.28 4.25C205.013 4.41 204.88 4.63 204.88 4.91C204.88 5.11667 204.943 5.29333 205.07 5.44C205.19 5.58667 205.39 5.72667 205.67 5.86C205.957 5.99333 206.34 6.15333 206.82 6.34C207.293 6.52 207.697 6.70333 208.03 6.89C208.37 7.07667 208.627 7.30333 208.8 7.57C208.98 7.83667 209.07 8.17 209.07 8.57Z" fill="black"/>
</svg>
