<svg width="142" height="10" viewBox="0 0 142 10" fill="none" xmlns="http://www.w3.org/2000/svg">
<path d="M6.25 10H0.5V0H6.25V10ZM5.54 0.72H1.21V9.29H5.54V0.72ZM14.65 10H8.9V0H14.65V10ZM13.94 0.72H9.61V9.29H13.94V0.72ZM23.05 10H17.3V0H23.05V10ZM22.34 0.72H18.01V9.29H22.34V0.72ZM31.45 10H25.7V0H31.45V10ZM30.74 0.72H26.41V9.29H30.74V0.72ZM44.4 10H38.65V0H44.4V10ZM43.69 0.72H39.36V9.29H43.69V0.72ZM52.8 10H47.05V0H52.8V10ZM52.09 0.72H47.76V9.29H52.09V0.72ZM61.2 10H55.45V0H61.2V10ZM60.49 0.72H56.16V9.29H60.49V0.72ZM69.6 10H63.85V0H69.6V10ZM68.89 0.72H64.56V9.29H68.89V0.72ZM78 10H72.25V0H78V10ZM77.29 0.72H72.96V9.29H77.29V0.72ZM90.95 10H85.2V0H90.95V10ZM90.24 0.72H85.91V9.29H90.24V0.72ZM99.35 10H93.6V0H99.35V10ZM98.64 0.72H94.31V9.29H98.64V0.72ZM107.75 10H102V0H107.75V10ZM107.04 0.72H102.71V9.29H107.04V0.72ZM116.15 10H110.4V0H116.15V10ZM115.44 0.72H111.11V9.29H115.44V0.72ZM124.55 10H118.8V0H124.55V10ZM123.84 0.72H119.51V9.29H123.84V0.72ZM132.95 10H127.2V0H132.95V10ZM132.24 0.72H127.91V9.29H132.24V0.72ZM141.35 10H135.6V0H141.35V10ZM140.64 0.72H136.31V9.29H140.64V0.72Z" fill="black"/>
</svg>
