<svg width="77.212" height="16.898" viewBox="0 0 77.212 16.898" xmlns="http://www.w3.org/2000/svg"><path transform="translate(0 13.439) scale(.0068359 -.0068359)" d="m171-40 183 795q67 291 204 467 240 308 537 308 298 0 395-308 25-79 25-182 0-126-37-285-69-297-202-443-83-91-167-142h284l-2-10-112-160h-553l2 10 112 160q146 46 259 188 123 155 179 397 36 156 36 267 0 69-14 122-57 216-244 216t-344-216q-99-136-158-389l-162-705-211-90z"/><path transform="translate(9.9395 13.439) scale(.0068359 -.0068359)" d="m477 550q-28-124-28-201 0-39 7-67 38-132 150-132t210 132q62 84 104 268 28 123 28 200 0 41-8 68-34 132-150 132-117 0-213-134-58-81-100-266zm-200-1q48 210 150 340 181 231 403 231t295-231q20-63 20-142 0-87-25-197-51-214-150-339-183-231-404-231-218 0-295 230-20 61-20 136 0 88 26 203z"/><path transform="translate(17.753 13.439) scale(.0068359 -.0068359)" d="m422 1050 211 90h10l-136-590q-28-124-28-201 0-39 7-67 38-132 150-132 113 0 210 132 61 82 104 268 26 111 26 195 0 40-6 73-24 130-134 173l109 149h10q157-68 201-251 17-70 17-148 0-89-23-191-46-205-151-339-180-231-403-231-224 0-295 231-19 62-19 140 0 88 25 199z"/><path transform="translate(25.771 13.439) scale(.0068359 -.0068359)" d="m567-20q-222 0-295 231-20 63-20 142 0 89 25 197 50 211 150 339 180 231 404 231 226 0 295-231 19-64 19-142 0-89-25-197l-87-376q-10-44 38-44h77l-2-10-112-160q-209 0-209 150 0 29 8 64l87 376q28 124 28 201 0 38-7 67-37 132-150 132t-210-132q-61-83-104-268-28-121-28-198 0-41 8-70 36-131 148-132h77l-3-10z"/><path transform="translate(39.259 13.439) scale(.0068359 -.0068359)" d="m186 288t180 78h10q59-216 245-216 129 0 255 115 90 82 122 213 8 33 8 62 0 61-33 106-59 80-194 110-148 33-240 112-86 74-86 186 0 36 9 78 43 181 198 296 137 102 309 102 224 0 296-228l-176-75h-10q-36 133-149 133-95 0-169-61-73-60-95-152-6-25-6-46 0-49 30-80 54-58 187-86 180-38 272-156 64-82 64-195 0-54-14-112-42-187-223-340-180-152-395-152-299 0-395 308z"/><path transform="translate(47.53 13.439) scale(.0068359 -.0068359)" d="m1065 377q-40-96-95-166-180-231-404-231-218 0-295 231-20 60-20 138 0 91 26 201 46 204 150 339 178 231 403 231 224 0 295-228l-175-74h-10q-36 132-150 132-113 0-210-132-61-84-103-268-28-124-28-201 0-39 7-67 38-132 150-132 114 0 210 132l239 95z"/><path transform="translate(55.036 13.439) scale(.0068359 -.0068359)" d="m141-40 136 590q48 209 150 339 181 231 403 231h135l-3-10-113-160h-59q-113 0-210-132-60-82-103-268l-115-500-211-90z"/><path transform="translate(59.999 13.439) scale(.0068359 -.0068359)" d="m504 1407q12 51 55 87t94 36 77-36q19-26 19-57 0-12-4-30-15-53-55-86-44-36-95-36-50 0-77 37-18 24-18 53 0 14 4 32zm-63-1447q-209 0-209 150 0 29 8 64l202 876 211 90h10l-223-966q-10-44 38-44h77l-2-10z"/><path transform="translate(64.101 13.439) scale(.0068359 -.0068359)" d="m66-450 231 1e3q48 209 150 339 181 231 404 231 219 0 295-231 20-61 20-140 0-87-25-199-56-242-285-380h247l-2-10-112-160h-468l2 10 112 160q141 85 203 164 76 98 103 216 28 123 28 200 0 40-8 68-34 132-150 132-114 0-211-133-59-81-102-267l-211-910-211-90z"/><path transform="translate(72.058 13.439) scale(.0068359 -.0068359)" d="m518-40q-209 0-209 150 0 29 8 64l175 756h-257l2 10 112 160h182l83 360 211 90h10l-104-450h257l-2-10-112-160h-182l-175-756q-10-44 38-44h77l-2-10z"/></svg>