<svg width="23" height="13" viewBox="0 0 23 13" fill="none" xmlns="http://www.w3.org/2000/svg">
<path d="M7.29 12.75C5.05 12.75 3.35667 12.2733 2.21 11.32C1.07 10.3667 0.5 8.95667 0.5 7.09C0.5 5.03667 1.08 3.53 2.24 2.57C3.39333 1.61 5.1 1.13 7.36 1.13C9.76667 1.13 11.53 1.60333 12.65 2.55C13.77 3.49667 14.33 4.89 14.33 6.73C14.33 8.81 13.7367 10.3333 12.55 11.3C11.37 12.2667 9.61667 12.75 7.29 12.75ZM6.98 6.03V7.84H7.84V6.03H6.98ZM14.92 12.5C14.8467 12.3133 14.7867 12.0733 14.74 11.78C14.6933 11.4867 14.6667 11.1767 14.66 10.85C14.6533 10.5233 14.6633 10.21 14.69 9.91C14.71 9.61667 14.7533 9.37667 14.82 9.19C14.96 9.13667 15.0967 9.05 15.23 8.93C15.3567 8.81 15.4667 8.62667 15.56 8.38C15.6467 8.14 15.69 7.81 15.69 7.39C15.69 6.97667 15.6367 6.65667 15.53 6.43C15.4233 6.20333 15.3 6.03333 15.16 5.92C15.0267 5.81333 14.9133 5.73667 14.82 5.69C14.74 5.53667 14.68 5.31 14.64 5.01C14.6 4.71667 14.5833 4.4 14.59 4.06C14.5967 3.71333 14.6233 3.38 14.67 3.06C14.7167 2.74667 14.7867 2.48667 14.88 2.28C14.98 2.28667 15.0667 2.29667 15.14 2.31C15.22 2.32333 15.3067 2.33667 15.4 2.35C15.36 2.93 15.4767 3.42667 15.75 3.84C16.0167 4.25333 16.3867 4.55 16.86 4.73C17.3333 4.90333 17.8333 4.94 18.36 4.84C17.9133 4.82 17.5033 4.7 17.13 4.48C16.75 4.26 16.4467 3.96667 16.22 3.6C15.9867 3.23333 15.87 2.82 15.87 2.36C15.87 1.98 15.9633 1.61 16.15 1.25C16.33 0.89 16.6333 0.59 17.06 0.35C17.4933 0.116667 18.0733 0 18.8 0C19.9667 0 20.8167 0.29 21.35 0.87C21.89 1.45667 22.16 2.31667 22.16 3.45C22.16 3.98333 22.1133 4.47333 22.02 4.92C21.9333 5.36 21.8467 5.78333 21.76 6.19C21.6733 6.59667 21.63 7.01 21.63 7.43C21.63 7.83 21.6733 8.15333 21.76 8.4C21.8467 8.64 21.9567 8.82 22.09 8.94C22.23 9.05333 22.3633 9.13667 22.49 9.19C22.5567 9.37667 22.6033 9.61667 22.63 9.91C22.65 10.21 22.66 10.5233 22.66 10.85C22.6533 11.1767 22.6267 11.4867 22.58 11.78C22.5333 12.0733 22.4733 12.3133 22.4 12.5C22.1333 12.4733 21.7933 12.4433 21.38 12.41C20.9667 12.3767 20.5167 12.3467 20.03 12.32C19.5433 12.3 19.0567 12.29 18.57 12.29C18.1233 12.29 17.67 12.3 17.21 12.32C16.75 12.3467 16.3167 12.3767 15.91 12.41C15.51 12.4433 15.18 12.4733 14.92 12.5Z" fill="black"/>
</svg>
