<svg width="63" height="11" viewBox="0 0 63 11" fill="none" xmlns="http://www.w3.org/2000/svg">
<path d="M8.9 10.78H2.18C1.86667 10.78 1.58333 10.7067 1.33 10.56C1.07 10.4067 0.866667 10.2033 0.72 9.95C0.573333 9.69 0.5 9.40667 0.5 9.1V2.38C0.5 2.07333 0.573333 1.79 0.72 1.53C0.866667 1.27667 1.07 1.07333 1.33 0.92C1.58333 0.773333 1.86667 0.7 2.18 0.7H8.9C9.20667 0.7 9.48667 0.773333 9.74 0.92C10 1.07333 10.2033 1.27667 10.35 1.53C10.5033 1.79 10.58 2.07333 10.58 2.38V9.1C10.58 9.40667 10.5033 9.69 10.35 9.95C10.2033 10.2033 10 10.4067 9.74 10.56C9.48667 10.7067 9.20667 10.78 8.9 10.78ZM2.18 9.65H8.9C9.04667 9.65 9.17333 9.59667 9.28 9.49C9.38667 9.37667 9.44 9.24667 9.44 9.1V2.38C9.44 2.23333 9.38667 2.10333 9.28 1.99C9.17333 1.88333 9.04667 1.83 8.9 1.83H2.18C2.02667 1.83 1.89667 1.88333 1.79 1.99C1.68333 2.10333 1.63 2.23333 1.63 2.38V9.1C1.63 9.24667 1.68333 9.37667 1.79 9.49C1.89667 9.59667 2.02667 9.65 2.18 9.65ZM13.21 10.78H12.06V4.35C12.06 4.04333 12.1367 3.76333 12.29 3.51C12.4433 3.25 12.65 3.04333 12.91 2.89C13.1633 2.73667 13.4433 2.66 13.75 2.66H18.32V3.81H13.75C13.6033 3.81 13.4767 3.86333 13.37 3.97C13.2633 4.07667 13.21 4.20333 13.21 4.35V10.78ZM25.84 10.78H19.26V0H20.4V2.66H25.84C26.1467 2.66 26.4267 2.73667 26.68 2.89C26.94 3.04333 27.1467 3.25 27.3 3.51C27.4533 3.76333 27.53 4.04333 27.53 4.35V9.09C27.53 9.39667 27.4533 9.67667 27.3 9.93C27.1467 10.19 26.94 10.3967 26.68 10.55C26.4267 10.7033 26.1467 10.78 25.84 10.78ZM20.96 9.63H25.84C25.9867 9.63 26.1133 9.57667 26.22 9.47C26.3267 9.36333 26.38 9.23667 26.38 9.09V4.35C26.38 4.20333 26.3267 4.07667 26.22 3.97C26.1133 3.86333 25.9867 3.81 25.84 3.81H20.96C20.8133 3.81 20.6833 3.86333 20.57 3.97C20.4567 4.07667 20.4 4.20333 20.4 4.35V9.09C20.4 9.23667 20.4567 9.36333 20.57 9.47C20.6833 9.57667 20.8133 9.63 20.96 9.63ZM29.71 10.78H28.57V2.66H29.71V10.78ZM29.71 1.15H28.57V0H29.71V1.15ZM33.19 10.78C32.87 10.78 32.5833 10.7033 32.33 10.55C32.07 10.3967 31.8667 10.19 31.72 9.93C31.5667 9.67667 31.49 9.39667 31.49 9.09V0H32.64V2.66H36.15V3.81H32.64V9.09C32.64 9.23667 32.6933 9.36333 32.8 9.47C32.9067 9.57667 33.0367 9.63 33.19 9.63H36.15V10.78H33.19ZM38.37 10.78H37.22V4.35C37.22 4.04333 37.2967 3.76333 37.45 3.51C37.6033 3.25 37.81 3.04333 38.07 2.89C38.3233 2.73667 38.6033 2.66 38.91 2.66H43.48V3.81H38.91C38.7633 3.81 38.6367 3.86333 38.53 3.97C38.4233 4.07667 38.37 4.20333 38.37 4.35V10.78ZM46 10.78C45.6867 10.78 45.4033 10.7033 45.15 10.55C44.89 10.3967 44.6833 10.19 44.53 9.93C44.3767 9.67667 44.3 9.39667 44.3 9.09V4.35C44.3 4.04333 44.3767 3.76333 44.53 3.51C44.6833 3.25 44.89 3.04333 45.15 2.89C45.4033 2.73667 45.6867 2.66 46 2.66H50.87C51.1833 2.66 51.47 2.73667 51.73 2.89C51.9833 3.04333 52.1867 3.25 52.34 3.51C52.5 3.76333 52.58 4.04333 52.58 4.35V9.09C52.58 9.39667 52.5 9.67667 52.34 9.93C52.1867 10.19 51.9833 10.3967 51.73 10.55C51.47 10.7033 51.1833 10.78 50.87 10.78H46ZM46 9.63H50.87C51.0167 9.63 51.1433 9.57667 51.25 9.47C51.3567 9.36333 51.41 9.23667 51.41 9.09V4.35C51.41 4.20333 51.3567 4.07667 51.25 3.97C51.1433 3.86333 51.0167 3.81 50.87 3.81H46C45.8467 3.81 45.7167 3.86333 45.61 3.97C45.5033 4.07667 45.45 4.20333 45.45 4.35V9.09C45.45 9.23667 45.5033 9.36333 45.61 9.47C45.7167 9.57667 45.8467 9.63 46 9.63ZM54.97 10.78H53.82V2.66H60.4C60.7067 2.66 60.99 2.73667 61.25 2.89C61.5033 3.04333 61.71 3.25 61.87 3.51C62.0233 3.76333 62.1 4.04333 62.1 4.35V10.78H60.95V4.35C60.95 4.20333 60.8967 4.07667 60.79 3.97C60.6833 3.86333 60.5533 3.81 60.4 3.81H55.53C55.3833 3.81 55.2533 3.86333 55.14 3.97C55.0267 4.07667 54.97 4.20333 54.97 4.35V10.78Z" fill="black"/>
</svg>
