<svg width="47" height="18" viewBox="0 0 47 18" fill="none" xmlns="http://www.w3.org/2000/svg">
<path d="M11.38 4.82C11.38 5.61333 11.1767 6.34 10.77 7C10.3567 7.66 9.75667 8.2 8.97 8.62C8.19 9.04 7.25667 9.29 6.17 9.37L5.57 12.74C5.33667 14.04 4.70333 14.69 3.67 14.69C3.09667 14.69 2.57 14.52 2.09 14.18C1.61 13.8467 1.22667 13.3333 0.94 12.64C0.646667 11.9533 0.5 11.1033 0.5 10.09C0.5 8.19667 0.806667 6.59 1.42 5.27C2.03333 3.95 2.85667 2.96 3.89 2.3C4.91667 1.64667 6.05 1.32 7.29 1.32C8.17 1.32 8.91667 1.47333 9.53 1.78C10.1367 2.08667 10.5967 2.50333 10.91 3.03C11.2233 3.55667 11.38 4.15333 11.38 4.82ZM6.43 7.92C8.34333 7.68 9.3 6.68667 9.3 4.94C9.3 4.32667 9.09667 3.82667 8.69 3.44C8.28333 3.05333 7.65333 2.86 6.8 2.86C5.84 2.86 5.00333 3.16333 4.29 3.77C3.57667 4.37667 3.02667 5.21667 2.64 6.29C2.25333 7.37 2.06 8.6 2.06 9.98C2.06 10.56 2.11667 11.0733 2.23 11.52C2.35 11.9667 2.5 12.3133 2.68 12.56C2.86 12.8133 3.03667 12.94 3.21 12.94C3.44333 12.94 3.62 12.6167 3.74 11.97L4.2 9.32C3.83333 9.26667 3.67333 9.24333 3.72 9.25C3.44 9.20333 3.26 9.12 3.18 9C3.09333 8.87333 3.05 8.71 3.05 8.51C3.05 8.30333 3.11 8.14 3.23 8.02C3.34333 7.9 3.50333 7.84 3.71 7.84C3.80333 7.84 3.87333 7.84333 3.92 7.85C4.14667 7.89 4.32 7.91333 4.44 7.92C4.56 7.19333 4.73333 6.22 4.96 5C5.01333 4.68 5.14 4.45333 5.34 4.32C5.54 4.18667 5.77667 4.12 6.05 4.12C6.35667 4.12 6.57667 4.17667 6.71 4.29C6.85 4.41 6.92 4.59333 6.92 4.84C6.92 4.99333 6.91 5.11667 6.89 5.21L6.43 7.92ZM12.33 13.23C11.7567 13.23 11.2967 13.02 10.95 12.6C10.6033 12.18 10.43 11.63 10.43 10.95C10.43 10.2033 10.6033 9.49667 10.95 8.83C11.2967 8.16333 11.7567 7.62667 12.33 7.22C12.9033 6.81333 13.51 6.61 14.15 6.61C14.3567 6.61 14.4967 6.65 14.57 6.73C14.6367 6.81 14.6933 6.95 14.74 7.15C14.94 7.11667 15.1467 7.1 15.36 7.1C15.8133 7.1 16.04 7.26333 16.04 7.59C16.04 7.78333 15.97 8.25 15.83 8.99C15.6167 10.0633 15.51 10.81 15.51 11.23C15.51 11.37 15.5467 11.48 15.62 11.56C15.6867 11.6467 15.7767 11.69 15.89 11.69C16.07 11.69 16.2833 11.5767 16.53 11.35C16.7833 11.1167 17.1267 10.7433 17.56 10.23C17.6667 10.1033 17.79 10.04 17.93 10.04C18.0567 10.04 18.1533 10.0967 18.22 10.21C18.2933 10.3167 18.33 10.47 18.33 10.67C18.33 11.0433 18.24 11.3333 18.06 11.54C17.68 12.0133 17.2733 12.4133 16.84 12.74C16.4133 13.0667 16 13.23 15.6 13.23C15.2867 13.23 15.0033 13.1267 14.75 12.92C14.49 12.7067 14.2967 12.4167 14.17 12.05C13.6833 12.8367 13.07 13.23 12.33 13.23ZM12.84 11.82C13.0467 11.82 13.2433 11.6967 13.43 11.45C13.6167 11.21 13.75 10.89 13.83 10.49L14.35 7.91C13.9567 7.91667 13.5967 8.06333 13.27 8.35C12.9367 8.63667 12.67 9.01333 12.47 9.48C12.2767 9.94667 12.18 10.44 12.18 10.96C12.18 11.2533 12.24 11.47 12.36 11.61C12.4733 11.75 12.6333 11.82 12.84 11.82ZM19.87 13.23C18.95 13.23 18.2367 12.97 17.73 12.45C17.2233 11.9367 16.97 11.2533 16.97 10.4C16.97 9.64667 17.12 8.98333 17.42 8.41C17.7133 7.84333 18.1 7.40667 18.58 7.1C19.0533 6.79333 19.5533 6.64 20.08 6.64C20.5933 6.64 20.99 6.79 21.27 7.09C21.5567 7.39667 21.7 7.78667 21.7 8.26C21.7 8.65333 21.6133 8.98333 21.44 9.25C21.2667 9.52333 21.04 9.66 20.76 9.66C20.5867 9.66 20.4467 9.61667 20.34 9.53C20.2267 9.45 20.17 9.33333 20.17 9.18C20.17 9.12 20.18 9.04667 20.2 8.96C20.22 8.87333 20.2333 8.81333 20.24 8.78C20.2867 8.64 20.31 8.51 20.31 8.39C20.31 8.26333 20.28 8.17 20.22 8.11C20.16 8.04333 20.0733 8.01 19.96 8.01C19.7467 8.01 19.5467 8.10333 19.36 8.29C19.1733 8.48333 19.0233 8.74333 18.91 9.07C18.8033 9.39667 18.75 9.75667 18.75 10.15C18.75 11.23 19.22 11.77 20.16 11.77C20.54 11.77 20.9533 11.6433 21.4 11.39C21.84 11.13 22.2767 10.7433 22.71 10.23C22.8233 10.1033 22.95 10.04 23.09 10.04C23.21 10.04 23.3033 10.0967 23.37 10.21C23.4433 10.3167 23.48 10.47 23.48 10.67C23.48 11.0233 23.39 11.3133 23.21 11.54C22.77 12.08 22.2467 12.4967 21.64 12.79C21.0267 13.0833 20.4367 13.23 19.87 13.23ZM24.18 5.71C23.7867 5.71 23.4933 5.62 23.3 5.44C23.1 5.26 23 5.00667 23 4.68C23 4.35333 23.13 4.08 23.39 3.86C23.6433 3.64 23.9633 3.53 24.35 3.53C24.69 3.53 24.97 3.61333 25.19 3.78C25.4033 3.94667 25.51 4.18333 25.51 4.49C25.51 4.86333 25.3867 5.16 25.14 5.38C24.9 5.6 24.58 5.71 24.18 5.71ZM24.07 13.23C23.4633 13.23 23.02 13.0167 22.74 12.59C22.4667 12.1567 22.33 11.5867 22.33 10.88C22.33 10.46 22.3833 9.92 22.49 9.26C22.5967 8.6 22.7333 7.98667 22.9 7.42C22.9867 7.12 23.1 6.91333 23.24 6.8C23.38 6.69333 23.6033 6.64 23.91 6.64C24.39 6.64 24.63 6.79667 24.63 7.11C24.63 7.34333 24.54 7.88667 24.36 8.74C24.1333 9.76667 24.02 10.46 24.02 10.82C24.02 11.1 24.06 11.3167 24.14 11.47C24.2133 11.6167 24.3367 11.69 24.51 11.69C24.6833 11.69 24.8933 11.5733 25.14 11.34C25.3933 11.1067 25.73 10.7367 26.15 10.23C26.2633 10.1033 26.39 10.04 26.53 10.04C26.65 10.04 26.7467 10.0967 26.82 10.21C26.8867 10.3167 26.92 10.47 26.92 10.67C26.92 11.0433 26.8333 11.3333 26.66 11.54C25.7333 12.6667 24.87 13.23 24.07 13.23ZM31.23 9.24C31.4967 9.24 31.63 9.43667 31.63 9.83C31.63 10.5633 31.05 10.93 29.89 10.93C29.6633 10.93 29.34 10.89 28.92 10.81C29.0467 11.39 29.1467 12.03 29.22 12.73C29.3 13.4367 29.34 14.02 29.34 14.48C29.34 15.4867 29.1767 16.2567 28.85 16.79C28.5233 17.3167 28.0967 17.58 27.57 17.58C26.8967 17.58 26.4167 17.1067 26.13 16.16C25.8433 15.2067 25.7 13.7667 25.7 11.84C25.7 10.0533 25.8967 8.23667 26.29 6.39C26.6767 4.55 27.2067 3.02333 27.88 1.81C28.56 0.603333 29.3033 0 30.11 0C30.55 0 30.8933 0.196667 31.14 0.59C31.3867 0.983333 31.51 1.51 31.51 2.17C31.51 4.36333 30.2 6.75333 27.58 9.34C27.4867 10.2533 27.44 11.0567 27.44 11.75C27.44 12.71 27.4733 13.6967 27.54 14.71C27.6067 15.7233 27.7133 16.23 27.86 16.23C28.14 16.23 28.28 15.7433 28.28 14.77C28.28 14.0433 28.23 13.34 28.13 12.66C28.0367 11.9733 27.9033 11.2533 27.73 10.5C27.7233 10.38 27.7633 10.2267 27.85 10.04C27.9433 9.85333 28.0533 9.69 28.18 9.55C28.3133 9.41 28.43 9.34 28.53 9.34C28.7167 9.34 28.94 9.35 29.2 9.37C29.2867 9.37667 29.3867 9.38 29.5 9.38C29.8733 9.38 30.2867 9.34667 30.74 9.28C30.82 9.27333 30.9 9.26333 30.98 9.25C31.0667 9.24333 31.15 9.24 31.23 9.24ZM29.82 1.39C29.6533 1.39 29.4467 1.67333 29.2 2.24C28.9533 2.80667 28.7067 3.56 28.46 4.5C28.22 5.44 28.01 6.43333 27.83 7.48C28.5767 6.62667 29.15 5.74 29.55 4.82C29.9567 3.9 30.1633 3.04 30.17 2.24C30.17 1.67333 30.0533 1.39 29.82 1.39ZM32.4 5.71C32.0067 5.71 31.71 5.62 31.51 5.44C31.3167 5.26 31.22 5.00667 31.22 4.68C31.22 4.35333 31.3467 4.08 31.6 3.86C31.86 3.64 32.18 3.53 32.56 3.53C32.9067 3.53 33.1867 3.61333 33.4 3.78C33.62 3.94667 33.73 4.18333 33.73 4.49C33.73 4.86333 33.6067 5.16 33.36 5.38C33.12 5.6 32.8 5.71 32.4 5.71ZM32.28 13.23C31.6733 13.23 31.2333 13.0167 30.96 12.59C30.6867 12.1567 30.55 11.5867 30.55 10.88C30.55 10.46 30.6033 9.92 30.71 9.26C30.8167 8.6 30.9533 7.98667 31.12 7.42C31.2067 7.12 31.32 6.91333 31.46 6.8C31.6 6.69333 31.8233 6.64 32.13 6.64C32.6033 6.64 32.84 6.79667 32.84 7.11C32.84 7.34333 32.7533 7.88667 32.58 8.74C32.3533 9.76667 32.24 10.46 32.24 10.82C32.24 11.1 32.2767 11.3167 32.35 11.47C32.43 11.6167 32.5567 11.69 32.73 11.69C32.8967 11.69 33.1067 11.5733 33.36 11.34C33.6133 11.1067 33.95 10.7367 34.37 10.23C34.4833 10.1033 34.61 10.04 34.75 10.04C34.87 10.04 34.9633 10.0967 35.03 10.21C35.1033 10.3167 35.14 10.47 35.14 10.67C35.14 11.0433 35.05 11.3333 34.87 11.54C33.95 12.6667 33.0867 13.23 32.28 13.23ZM36.68 13.23C35.7667 13.23 35.0533 12.97 34.54 12.45C34.0333 11.9367 33.78 11.2533 33.78 10.4C33.78 9.64667 33.93 8.98333 34.23 8.41C34.53 7.84333 34.9167 7.40667 35.39 7.1C35.87 6.79333 36.37 6.64 36.89 6.64C37.4033 6.64 37.8033 6.79 38.09 7.09C38.37 7.39667 38.51 7.78667 38.51 8.26C38.51 8.65333 38.4233 8.98333 38.25 9.25C38.0833 9.52333 37.86 9.66 37.58 9.66C37.4 9.66 37.2567 9.61667 37.15 9.53C37.0433 9.45 36.99 9.33333 36.99 9.18C36.99 9.12 37 9.04667 37.02 8.96C37.0333 8.87333 37.0467 8.81333 37.06 8.78C37.1067 8.64 37.13 8.51 37.13 8.39C37.13 8.26333 37.1 8.17 37.04 8.11C36.98 8.04333 36.8933 8.01 36.78 8.01C36.5667 8.01 36.3667 8.10333 36.18 8.29C35.9933 8.48333 35.8433 8.74333 35.73 9.07C35.6167 9.39667 35.56 9.75667 35.56 10.15C35.56 11.23 36.03 11.77 36.97 11.77C37.3567 11.77 37.77 11.6433 38.21 11.39C38.6567 11.13 39.0933 10.7433 39.52 10.23C39.6333 10.1033 39.76 10.04 39.9 10.04C40.02 10.04 40.1167 10.0967 40.19 10.21C40.2567 10.3167 40.29 10.47 40.29 10.67C40.29 11.0233 40.2033 11.3133 40.03 11.54C39.59 12.08 39.0633 12.4967 38.45 12.79C37.8367 13.0833 37.2467 13.23 36.68 13.23ZM46.3 8.86C46.42 8.86 46.5133 8.92 46.58 9.04C46.6467 9.16667 46.68 9.32333 46.68 9.51C46.68 9.95667 46.5433 10.22 46.27 10.3C45.71 10.5 45.0933 10.6133 44.42 10.64C44.2467 11.4267 43.8967 12.0533 43.37 12.52C42.85 12.9933 42.2567 13.23 41.59 13.23C41.03 13.23 40.5533 13.0933 40.16 12.82C39.76 12.5533 39.46 12.1967 39.26 11.75C39.0533 11.2967 38.95 10.81 38.95 10.29C38.95 9.58333 39.0833 8.95 39.35 8.39C39.6233 7.83667 39.9967 7.40333 40.47 7.09C40.95 6.77667 41.48 6.62 42.06 6.62C42.7667 6.62 43.3367 6.86667 43.77 7.36C44.2033 7.84667 44.4567 8.45 44.53 9.17C44.97 9.14333 45.4933 9.05 46.1 8.89C46.1733 8.87 46.24 8.86 46.3 8.86ZM41.71 11.75C42.0033 11.75 42.26 11.6267 42.48 11.38C42.7 11.14 42.8467 10.79 42.92 10.33C42.6333 10.1367 42.4133 9.88 42.26 9.56C42.1067 9.24667 42.03 8.91 42.03 8.55C42.03 8.40333 42.0433 8.25667 42.07 8.11H42C41.6267 8.11 41.3167 8.28667 41.07 8.64C40.8233 9 40.7 9.50667 40.7 10.16C40.7 10.6733 40.8 11.0667 41 11.34C41.2 11.6133 41.4367 11.75 41.71 11.75Z" fill="black"/>
</svg>
