<svg width="59" height="13" viewBox="0 0 59 13" fill="none" xmlns="http://www.w3.org/2000/svg">
<path d="M1.59 9.88H0.5V0.36H3.09C4.09 0.36 4.92667 0.58 5.6 1.02C6.26667 1.46667 6.6 2.21667 6.6 3.27C6.59333 4.31667 6.23 5.08 5.51 5.56C4.79 6.04 3.93333 6.28 2.94 6.28H1.59V9.88ZM3.09 1.3H1.59V5.34H2.99C3.68333 5.34 4.26333 5.18667 4.73 4.88C5.20333 4.56667 5.44667 4.04333 5.46 3.31C5.46 2.55 5.24667 2.02333 4.82 1.73C4.39333 1.44333 3.81667 1.3 3.09 1.3ZM9.01 7.95C9.01 8.23667 9.11 8.51 9.31 8.77C9.51 9.03667 9.83667 9.17 10.29 9.17C10.6767 9.17 11.0333 9.07 11.36 8.87C11.6867 8.67667 11.9667 8.44333 12.2 8.17V6.62H10.41C9.95667 6.62 9.61 6.75333 9.37 7.02C9.13 7.28667 9.01 7.59667 9.01 7.95ZM8.42 3.51C8.68667 3.33 9.05667 3.18667 9.53 3.08C10.0033 2.96667 10.38 2.91 10.66 2.91C11.4467 2.91 12.0867 3.12 12.58 3.54C13.0667 3.96667 13.31 4.52 13.31 5.2V9.88H12.64L12.34 9.19C12.1067 9.41 11.8033 9.60667 11.43 9.78C11.0567 9.96 10.6833 10.05 10.31 10.05C9.53 10.05 8.94667 9.85 8.56 9.45C8.18 9.05667 7.99 8.55667 7.99 7.95C7.99 7.27667 8.21667 6.76667 8.67 6.42C9.12333 6.06667 9.71333 5.89 10.44 5.89H12.19C12.19 5.33 12.1 4.85333 11.92 4.46C11.7467 4.06667 11.3433 3.87 10.71 3.87C10.25 3.87 9.87 3.92333 9.57 4.03C9.27 4.13 8.99667 4.23667 8.75 4.35C8.70333 4.21 8.65 4.07 8.59 3.93C8.53667 3.79 8.48 3.65 8.42 3.51ZM16.56 9.88H15.45V0.15L16.56 0V9.88ZM19.41 7.95C19.41 8.23667 19.51 8.51 19.71 8.77C19.9167 9.03667 20.2433 9.17 20.69 9.17C21.0833 9.17 21.4433 9.07 21.77 8.87C22.0967 8.67667 22.3767 8.44333 22.61 8.17V6.62H20.81C20.3567 6.62 20.01 6.75333 19.77 7.02C19.53 7.28667 19.41 7.59667 19.41 7.95ZM18.83 3.51C19.09 3.33 19.4567 3.18667 19.93 3.08C20.41 2.96667 20.79 2.91 21.07 2.91C21.85 2.91 22.4867 3.12 22.98 3.54C23.4667 3.96667 23.71 4.52 23.71 5.2V9.88H23.04L22.75 9.19C22.5167 9.41 22.2133 9.60667 21.84 9.78C21.4667 9.96 21.0933 10.05 20.72 10.05C19.9333 10.05 19.35 9.85 18.97 9.45C18.5833 9.05667 18.39 8.55667 18.39 7.95C18.39 7.27667 18.6167 6.76667 19.07 6.42C19.5233 6.06667 20.1133 5.89 20.84 5.89H22.59C22.59 5.33 22.5033 4.85333 22.33 4.46C22.15 4.06667 21.7433 3.87 21.11 3.87C20.65 3.87 20.27 3.92333 19.97 4.03C19.6767 4.13 19.4033 4.23667 19.15 4.35C19.1033 4.21 19.05 4.07 18.99 3.93C18.9367 3.79 18.8833 3.65 18.83 3.51ZM26.5 3.09L26.85 4.07C27.1367 3.74333 27.51 3.46667 27.97 3.24C28.4233 3.00667 28.8533 2.89 29.26 2.89C30.0333 2.89 30.6067 3.11667 30.98 3.57C31.3533 4.02333 31.54 4.59 31.54 5.27V9.87H30.43V5.43C30.43 4.97 30.32 4.59 30.1 4.29C29.8733 3.99667 29.5267 3.84333 29.06 3.83C28.7733 3.83 28.42 3.93 28 4.13C27.5867 4.32333 27.23 4.59333 26.93 4.94V9.88H25.83V3.09H26.5ZM38.54 3.09H39.2V12.79L38.08 12.95V9.36C37.8067 9.56667 37.5 9.73667 37.16 9.87C36.82 9.99667 36.5 10.06 36.2 10.06C35.2133 10.06 34.4733 9.72333 33.98 9.05C33.4933 8.37 33.25 7.51667 33.25 6.49C33.25 5.44333 33.5 4.58333 34 3.91C34.4933 3.23 35.2367 2.89 36.23 2.89C36.5567 2.89 36.9033 2.97 37.27 3.13C37.6367 3.28333 37.9667 3.47667 38.26 3.71L38.54 3.09ZM36.4 3.83C35.66 3.83 35.1367 4.09 34.83 4.61C34.53 5.13 34.38 5.75333 34.38 6.48C34.38 7.23333 34.53 7.86 34.83 8.36C35.13 8.86 35.6533 9.11 36.4 9.11C36.66 9.11 36.94 9.04667 37.24 8.92C37.5333 8.79333 37.8133 8.61333 38.08 8.38V4.57C37.8133 4.33667 37.5333 4.15667 37.24 4.03C36.94 3.89667 36.66 3.83 36.4 3.83ZM46.13 9.88L45.8 9.14C45.5067 9.40667 45.1633 9.63 44.77 9.81C44.3767 9.99 43.9967 10.08 43.63 10.08C42.8367 10.08 42.2567 9.85333 41.89 9.4C41.5233 8.94667 41.34 8.37333 41.34 7.68V3.09H42.44V7.56C42.44 8.01333 42.5533 8.39 42.78 8.69C43.0067 8.99 43.3467 9.14 43.8 9.14C44.06 9.14 44.37 9.06333 44.73 8.91C45.0833 8.76333 45.41 8.55333 45.71 8.28V3.09H46.81V9.88H46.13ZM49.56 1.75C49.34 1.75 49.16 1.67667 49.02 1.53C48.88 1.38333 48.81 1.20333 48.81 0.99C48.8033 0.783334 48.8733 0.606667 49.02 0.46C49.16 0.32 49.34 0.25 49.56 0.25C49.76 0.25 49.94 0.32 50.1 0.46C50.2533 0.606667 50.33 0.783334 50.33 0.99C50.33 1.20333 50.2533 1.38333 50.1 1.53C49.94 1.67667 49.76 1.75 49.56 1.75ZM50.13 9.88H49.01V3.09H50.13V9.88ZM53 3.09L53.35 4.07C53.6367 3.74333 54.01 3.46667 54.47 3.24C54.93 3.00667 55.36 2.89 55.76 2.89C56.5333 2.89 57.1067 3.11667 57.48 3.57C57.8533 4.02333 58.04 4.59 58.04 5.27V9.87H56.93V5.43C56.93 4.97 56.82 4.59 56.6 4.29C56.3733 3.99667 56.0267 3.84333 55.56 3.83C55.2733 3.83 54.9233 3.93 54.51 4.13C54.09 4.32333 53.73 4.59333 53.43 4.94V9.88H52.33V3.09H53Z" fill="black"/>
</svg>
