<svg width="49" height="14" viewBox="0 0 49 14" fill="none" xmlns="http://www.w3.org/2000/svg">
<path d="M6.07 1.58C6.15667 1.61333 6.22 1.67667 6.26 1.77C6.3 1.86333 6.31333 1.95 6.3 2.03C6.42 2.12333 6.47333 2.22333 6.46 2.33C6.46 2.49667 6.35 2.67333 6.13 2.86C6.15667 2.94 6.17 3.02333 6.17 3.11C6.17 3.24333 6.13667 3.36333 6.07 3.47C6.00333 3.58333 5.92333 3.66333 5.83 3.71C5.80333 4.05 5.70667 4.27333 5.54 4.38C5.51333 4.48667 5.42 4.58 5.26 4.66C5.1 4.74 4.95667 4.78 4.83 4.78C4.76333 4.83333 4.64667 4.88667 4.48 4.94C4.30667 4.98667 4.18 4.99667 4.1 4.97C3.98667 5.12333 3.83333 5.2 3.64 5.2C3.56 5.2 3.50667 5.19333 3.48 5.18C3.42667 5.20667 3.35333 5.22 3.26 5.22C3.15333 5.22 3.04 5.19667 2.92 5.15C2.77333 5.24333 2.47 5.29 2.01 5.29C2.05 5.42333 2.07 5.51667 2.07 5.57C2.07 5.68333 2.03333 5.78333 1.96 5.87C2.06 5.99667 2.11 6.21667 2.11 6.53C2.11 6.77 2.08667 6.95 2.04 7.07C2.15333 7.22333 2.21 7.41667 2.21 7.65C2.21 7.85 2.16333 8.04333 2.07 8.23C2.12333 8.31 2.16333 8.42 2.19 8.56C2.22333 8.7 2.24 8.84333 2.24 8.99C2.24 9.21667 2.21 9.36667 2.15 9.44C2.17 9.56667 2.18 9.66333 2.18 9.73C2.18 10.1233 1.96667 10.32 1.54 10.32C1.34 10.32 1.19333 10.22 1.1 10.02C1 9.82 0.95 9.58333 0.95 9.31C0.95 9.04333 0.986667 8.83333 1.06 8.68C0.966667 8.51333 0.92 8.31 0.92 8.07C0.92 7.96333 0.93 7.83667 0.95 7.69C0.863333 7.57667 0.82 7.34667 0.82 7C0.82 6.71333 0.85 6.52667 0.91 6.44C0.863333 6.32 0.84 6.14667 0.84 5.92C0.84 5.70667 0.863333 5.55333 0.91 5.46C0.863333 5.34667 0.84 5.25333 0.84 5.18C0.84 5.10667 0.853333 5.03667 0.88 4.97C0.793333 4.84333 0.75 4.68667 0.75 4.5C0.75 4.36667 0.77 4.26667 0.81 4.2C0.77 4.12 0.75 4.03333 0.75 3.94C0.75 3.83333 0.77 3.74667 0.81 3.68C0.716667 3.54 0.67 3.43 0.67 3.35C0.67 3.25667 0.706667 3.15667 0.78 3.05C0.726667 2.94333 0.7 2.84333 0.7 2.75C0.7 2.59667 0.753333 2.47333 0.86 2.38C0.713333 2.24 0.64 2.07333 0.64 1.88C0.64 1.84 0.65 1.76333 0.67 1.65C0.556667 1.57667 0.5 1.43667 0.5 1.23C0.5 1.08333 0.533333 0.943333 0.6 0.81C0.666667 0.683333 0.746667 0.62 0.84 0.62C0.846667 0.506667 0.903333 0.42 1.01 0.36C1.11667 0.3 1.24 0.27 1.38 0.27C1.51333 0.27 1.63333 0.296667 1.74 0.35C1.84667 0.396667 1.91 0.463334 1.93 0.55C2.11667 0.463334 2.26 0.42 2.36 0.42C2.42 0.42 2.45667 0.43 2.47 0.45C2.50333 0.443334 2.57 0.423334 2.67 0.39C2.77 0.356667 2.86333 0.34 2.95 0.34C3.07 0.34 3.19 0.376667 3.31 0.45C3.37 0.403334 3.45 0.366667 3.55 0.34C3.65667 0.313333 3.76333 0.3 3.87 0.3C3.97667 0.3 4.06333 0.313333 4.13 0.34C4.16333 0.326667 4.21333 0.32 4.28 0.32C4.42 0.32 4.56 0.36 4.7 0.44C4.84 0.513333 4.94667 0.596667 5.02 0.69C5.18667 0.676667 5.32 0.706667 5.42 0.78C5.52 0.846667 5.60333 0.973334 5.67 1.16C5.77 1.19333 5.87 1.25 5.97 1.33C6.06333 1.41667 6.09667 1.5 6.07 1.58ZM1.87 4.2C1.93 4.15333 2.02333 4.13 2.15 4.13C2.31 4.13 2.41333 4.15333 2.46 4.2C2.52667 4.13333 2.65333 4.1 2.84 4.1C3.02667 4.1 3.14667 4.13333 3.2 4.2C3.26667 4.15333 3.36667 4.13 3.5 4.13C3.58 4.13 3.64333 4.14333 3.69 4.17C3.79667 4.06333 3.91 4.01 4.03 4.01C4.09667 4.01 4.14667 4.01333 4.18 4.02C4.2 3.94667 4.30333 3.86 4.49 3.76C4.67667 3.66 4.82 3.62667 4.92 3.66C4.92 3.58 4.95 3.48 5.01 3.36C5.06333 3.24 5.12 3.16 5.18 3.12C5.14 3.08667 5.12 3.01333 5.12 2.9C5.12 2.76667 5.14 2.62 5.18 2.46C5.22667 2.29333 5.27333 2.18667 5.32 2.14C4.94667 1.94 4.75333 1.75 4.74 1.57C4.59333 1.54333 4.42 1.47 4.22 1.35C3.96 1.47667 3.74333 1.54 3.57 1.54C3.46333 1.54 3.31667 1.51667 3.13 1.47C2.94333 1.59 2.74333 1.65 2.53 1.65C2.39667 1.65 2.29 1.62333 2.21 1.57C2.19667 1.59667 2.13333 1.63 2.02 1.67C1.9 1.70333 1.81667 1.71667 1.77 1.71C1.78333 1.80333 1.81667 1.92 1.87 2.06C1.93667 2.22 1.97 2.36 1.97 2.48C1.97 2.6 1.92667 2.71667 1.84 2.83C1.88 2.90333 1.9 3.03 1.9 3.21C1.9 3.35667 1.88 3.46333 1.84 3.53C1.92667 3.61667 1.97 3.73667 1.97 3.89C1.97 3.99667 1.93667 4.1 1.87 4.2ZM7.32 4.89C7.24667 4.77 7.21 4.65333 7.21 4.54C7.21 4.37333 7.26333 4.23333 7.37 4.12C7.40333 3.98 7.47 3.84667 7.57 3.72C7.67 3.59333 7.78333 3.49667 7.91 3.43C8.03667 3.35667 8.13667 3.33 8.21 3.35C8.27667 3.24333 8.41 3.14667 8.61 3.06C8.80333 2.97333 8.98333 2.93 9.15 2.93C9.19 2.93 9.24667 2.94 9.32 2.96C9.42 2.84667 9.55667 2.79 9.73 2.79C9.85667 2.79 9.95 2.82667 10.01 2.9C10.13 2.81333 10.2867 2.77 10.48 2.77C10.7133 2.77 10.92 2.82667 11.1 2.94C11.2867 3.05333 11.3933 3.20333 11.42 3.39C11.5867 3.44333 11.7133 3.53 11.8 3.65C11.8933 3.76333 11.95 3.92333 11.97 4.13C12.09 4.25 12.1767 4.39333 12.23 4.56C12.29 4.72 12.32 4.88667 12.32 5.06C12.32 5.27333 12.28 5.44333 12.2 5.57C12.2667 5.66333 12.3233 5.80333 12.37 5.99C12.4167 6.17667 12.44 6.36 12.44 6.54C12.44 6.61333 12.43 6.70667 12.41 6.82C12.4767 6.96 12.51 7.05333 12.51 7.1C12.51 7.12667 12.4967 7.19333 12.47 7.3C12.4767 7.33333 12.4867 7.37667 12.5 7.43C12.5067 7.48333 12.51 7.54667 12.51 7.62C12.51 7.76 12.46 7.88667 12.36 8C12.3933 8.1 12.41 8.22333 12.41 8.37C12.41 8.57 12.3633 8.73 12.27 8.85C12.29 8.89 12.3 8.95 12.3 9.03C12.3 9.23 12.22 9.39333 12.06 9.52C12.0267 9.65333 11.9567 9.75333 11.85 9.82C11.75 9.89333 11.64 9.93 11.52 9.93C11.4 9.93 11.3 9.89333 11.22 9.82C10.98 9.92 10.7867 9.97 10.64 9.97C10.56 9.97 10.5033 9.96667 10.47 9.96C10.2233 10.0333 10.0167 10.07 9.85 10.07C9.73 10.07 9.56333 10.0467 9.35 10C9.21667 10.0733 9.09 10.11 8.97 10.11C8.85667 10.11 8.75333 10.0767 8.66 10.01C8.61333 10.0233 8.54333 10.03 8.45 10.03C8.09 10.03 7.81 9.86667 7.61 9.54C7.25667 9.33333 7.08 9.02333 7.08 8.61C7.08 8.51 7.08333 8.43 7.09 8.37C7.01 8.31667 6.97 8.2 6.97 8.02C6.97 7.9 6.99333 7.79333 7.04 7.7C7 7.53333 6.98 7.42667 6.98 7.38C6.98 7.10667 7.11 6.86333 7.37 6.65C7.47667 6.43667 7.59667 6.29333 7.73 6.22C7.86333 6.14667 8.03333 6.09 8.24 6.05C8.3 5.89 8.43 5.78333 8.63 5.73C8.83667 5.67 9.04 5.65 9.24 5.67C9.29333 5.63667 9.37 5.60333 9.47 5.57C9.57667 5.53667 9.68 5.52 9.78 5.52C9.89333 5.52 9.99333 5.53667 10.08 5.57C10.0933 5.55667 10.14 5.55 10.22 5.55C10.2733 5.55 10.3267 5.55333 10.38 5.56C10.44 5.56667 10.48 5.58 10.5 5.6C10.6267 5.43333 10.78 5.35 10.96 5.35C11.0133 5.35 11.07 5.36333 11.13 5.39V5.35C11.13 5.19 11.16 5.07667 11.22 5.01C11.1267 4.98333 11.0267 4.90333 10.92 4.77C10.8133 4.63667 10.75 4.51333 10.73 4.4C10.5833 4.33333 10.4833 4.22667 10.43 4.08C10.3167 4.16 10.1833 4.2 10.03 4.2C9.93 4.2 9.83333 4.17333 9.74 4.12C9.58 4.16667 9.47667 4.18333 9.43 4.17C9.30333 4.26333 9.16 4.31 9 4.31C8.86 4.49667 8.69667 4.58333 8.51 4.57C8.42333 4.71667 8.31 4.84667 8.17 4.96C8.02333 5.07333 7.87333 5.13 7.72 5.13C7.55333 5.13 7.42 5.05 7.32 4.89ZM8.09 8.01C8.20333 8.12333 8.26 8.23 8.26 8.33C8.26 8.40333 8.24 8.49667 8.2 8.61C8.24 8.61 8.29333 8.63333 8.36 8.68C8.43333 8.72 8.47333 8.76333 8.48 8.81C8.55333 8.78333 8.64667 8.77 8.76 8.77C8.96667 8.77 9.10333 8.81667 9.17 8.91C9.27 8.87 9.37667 8.85 9.49 8.85C9.66333 8.85 9.80333 8.9 9.91 9C9.98333 8.92667 10.1067 8.86667 10.28 8.82C10.4533 8.77333 10.61 8.75 10.75 8.75C10.83 8.58333 10.98 8.48667 11.2 8.46C11.2133 8.39333 11.2633 8.31 11.35 8.21C11.31 8.15 11.2767 8.07333 11.25 7.98C11.2233 7.88667 11.21 7.79333 11.21 7.7C11.21 7.50667 11.2567 7.36333 11.35 7.27C11.25 7.13667 11.2 6.98333 11.2 6.81C11.2 6.68333 11.2167 6.58 11.25 6.5C11.1767 6.54667 11.0933 6.57 11 6.57C10.9133 6.57 10.8433 6.53667 10.79 6.47C10.7033 6.55667 10.5867 6.6 10.44 6.6C10.3467 6.6 10.2533 6.57667 10.16 6.53C10.06 6.63 9.93333 6.68 9.78 6.68C9.73333 6.68 9.66333 6.66 9.57 6.62C9.43 6.76 9.30333 6.80333 9.19 6.75C9.13667 6.88333 9.06667 6.97333 8.98 7.02C8.88667 7.06667 8.76333 7.09 8.61 7.09C8.57 7.19 8.50667 7.27333 8.42 7.34C8.32667 7.40667 8.23333 7.43 8.14 7.41C8.18667 7.47667 8.21 7.55 8.21 7.63C8.21 7.77 8.17 7.89667 8.09 8.01ZM16.21 4.33C16.23 4.43 16.2 4.52 16.12 4.6C16.04 4.68 15.9433 4.72333 15.83 4.73C15.7633 4.91667 15.59 5.03 15.31 5.07C15.3233 5.23 15.29 5.36333 15.21 5.47C15.1367 5.57667 15.0533 5.64 14.96 5.66C14.96 5.9 14.91 6.15 14.81 6.41C14.83 6.49 14.84 6.55667 14.84 6.61C14.84 6.79667 14.8 6.96333 14.72 7.11C14.7667 7.20333 14.79 7.31333 14.79 7.44C14.79 7.59333 14.7633 7.75667 14.71 7.93C14.7967 8.03667 14.84 8.16 14.84 8.3C14.84 8.38667 14.8167 8.48667 14.77 8.6C14.7967 8.65333 14.81 8.74 14.81 8.86C14.81 9.06667 14.7667 9.21667 14.68 9.31C14.72 9.44333 14.74 9.54667 14.74 9.62C14.74 9.69333 14.7267 9.76 14.7 9.82C14.7 9.97333 14.6367 10.0967 14.51 10.19C14.39 10.2767 14.2467 10.32 14.08 10.32C13.92 10.32 13.7833 10.2767 13.67 10.19C13.55 10.0967 13.4967 9.97333 13.51 9.82C13.4767 9.73333 13.46 9.64333 13.46 9.55C13.46 9.35667 13.4933 9.17 13.56 8.99C13.48 8.87667 13.44 8.75667 13.44 8.63C13.44 8.54333 13.4633 8.44333 13.51 8.33C13.4433 8.23 13.41 8.11333 13.41 7.98C13.41 7.88667 13.4267 7.80333 13.46 7.73C13.5 7.65667 13.5467 7.59667 13.6 7.55C13.4733 7.39667 13.41 7.22333 13.41 7.03C13.41 6.84333 13.47 6.68333 13.59 6.55C13.55 6.50333 13.5167 6.43333 13.49 6.34C13.4633 6.24667 13.45 6.15333 13.45 6.06C13.45 5.94 13.4767 5.85333 13.53 5.8C13.4567 5.63333 13.42 5.44 13.42 5.22C13.42 5.03333 13.45 4.91 13.51 4.85C13.4233 4.66333 13.38 4.48333 13.38 4.31C13.38 4.12333 13.4233 3.99 13.51 3.91C13.3567 3.73 13.28 3.53333 13.28 3.32C13.28 3.06 13.3933 2.87 13.62 2.75C13.7333 2.69 13.8433 2.66 13.95 2.66C14.13 2.66 14.28 2.73333 14.4 2.88C14.52 3.02667 14.58 3.19667 14.58 3.39C14.58 3.49 14.5567 3.59667 14.51 3.71C14.6367 3.83 14.7 3.98333 14.7 4.17C14.7 4.30333 14.69 4.41333 14.67 4.5C14.7433 4.22667 14.85 4.06667 14.99 4.02C14.99 3.84 15.0467 3.67667 15.16 3.53C15.2733 3.38333 15.4067 3.27 15.56 3.19C15.7133 3.11667 15.84 3.09333 15.94 3.12C16.1733 2.87333 16.4267 2.75 16.7 2.75C16.82 2.75 16.9267 2.77333 17.02 2.82C17.1067 2.75333 17.2333 2.72 17.4 2.72C17.54 2.72 17.67 2.74333 17.79 2.79C17.91 2.84333 17.99 2.92333 18.03 3.03C18.3633 3.04333 18.6 3.18333 18.74 3.45C18.86 3.45667 18.98 3.52667 19.1 3.66C19.2133 3.78667 19.27 3.93333 19.27 4.1C19.27 4.18 19.2467 4.27333 19.2 4.38C19.42 4.46667 19.53 4.63 19.53 4.87C19.53 4.95667 19.5233 5.02 19.51 5.06C19.63 5.12 19.7167 5.18667 19.77 5.26C19.8233 5.32667 19.85 5.41333 19.85 5.52C19.85 5.63333 19.82 5.78333 19.76 5.97C19.8733 6.05 19.93 6.19 19.93 6.39C19.93 6.59 19.88 6.74333 19.78 6.85C19.86 6.99 19.9 7.16333 19.9 7.37C19.9 7.57 19.8533 7.73333 19.76 7.86C19.82 8.14 19.85 8.33333 19.85 8.44C19.85 8.64 19.8067 8.77667 19.72 8.85C19.7933 9.01667 19.83 9.18 19.83 9.34C19.83 9.55333 19.78 9.71333 19.68 9.82C19.6867 9.96667 19.6233 10.0867 19.49 10.18C19.3567 10.2733 19.2067 10.32 19.04 10.32C18.9067 10.32 18.7933 10.2867 18.7 10.22C18.6067 10.1533 18.56 10.06 18.56 9.94C18.4867 9.76667 18.45 9.56667 18.45 9.34C18.45 8.99333 18.5333 8.74 18.7 8.58C18.6333 8.5 18.5733 8.36333 18.52 8.17C18.4733 7.97667 18.45 7.79667 18.45 7.63C18.45 7.39667 18.4967 7.25333 18.59 7.2C18.5167 7.06 18.48 6.91333 18.48 6.76C18.48 6.59333 18.53 6.39 18.63 6.15C18.5433 6.08333 18.4733 5.98333 18.42 5.85C18.3667 5.72333 18.34 5.6 18.34 5.48C18.34 5.44 18.3467 5.38333 18.36 5.31C18.26 5.22333 18.17 5.08667 18.09 4.9C18.01 4.71333 17.9767 4.54667 17.99 4.4C17.9033 4.38667 17.8167 4.35667 17.73 4.31C17.65 4.26333 17.5867 4.2 17.54 4.12H17.38C17.2267 4.12 17.1167 4.08667 17.05 4.02C16.9767 4.11333 16.8533 4.19667 16.68 4.27C16.5067 4.33667 16.3533 4.35667 16.22 4.33H16.21ZM25.17 11.66C25.15 11.5867 25.1733 11.5 25.24 11.4C25.3067 11.2933 25.37 11.2367 25.43 11.23C25.4167 11.1567 25.41 11.0867 25.41 11.02C25.41 10.9 25.43 10.7867 25.47 10.68C25.51 10.5733 25.5667 10.49 25.64 10.43C25.6333 10.3967 25.63 10.3467 25.63 10.28C25.63 10.16 25.6533 10.0467 25.7 9.94C25.7467 9.82667 25.7967 9.75333 25.85 9.72C25.29 10 24.94 10.1067 24.8 10.04C24.56 10.0933 24.3667 10.12 24.22 10.12C24.02 10.12 23.8833 10.09 23.81 10.03C23.7233 10.0767 23.61 10.1 23.47 10.1C23.2833 10.1 23.1033 10.0533 22.93 9.96C22.7633 9.87333 22.6467 9.76 22.58 9.62C22.3267 9.6 22.0933 9.46667 21.88 9.22C21.6667 8.97333 21.55 8.68667 21.53 8.36C21.3633 8.30667 21.2333 8.17667 21.14 7.97C21.0533 7.77 21.01 7.55 21.01 7.31C21.01 7.03667 21.06 6.83667 21.16 6.71C21.1 6.66333 21.0467 6.55333 21 6.38C20.96 6.20667 20.94 6.02333 20.94 5.83C20.94 5.39667 21.0467 5.10667 21.26 4.96C21.2333 4.91333 21.24 4.81667 21.28 4.67C21.3133 4.52333 21.3733 4.38 21.46 4.24C21.54 4.1 21.6233 4.01333 21.71 3.98C21.7033 3.89333 21.7367 3.8 21.81 3.7C21.8833 3.59333 21.97 3.51333 22.07 3.46C22.1767 3.40667 22.2567 3.38667 22.31 3.4C22.35 3.24667 22.4333 3.13667 22.56 3.07C22.6867 3.00333 22.8367 2.95 23.01 2.91C23.0567 2.77 23.1633 2.66667 23.33 2.6C23.49 2.52667 23.6767 2.49 23.89 2.49C24.11 2.49 24.3133 2.52333 24.5 2.59C24.6933 2.65 24.8367 2.72667 24.93 2.82C25.0233 2.74 25.1633 2.7 25.35 2.7C25.6367 2.7 25.8133 2.81667 25.88 3.05C25.9533 3.02333 26.03 3.01 26.11 3.01C26.2633 3.01 26.4033 3.07 26.53 3.19C26.65 3.30333 26.71 3.44 26.71 3.6C26.71 3.68667 26.7 3.74667 26.68 3.78C26.7733 3.91333 26.8467 4.03667 26.9 4.15C26.9467 4.25667 26.9633 4.36667 26.95 4.48C26.9767 4.56667 26.99 4.64333 26.99 4.71C26.99 4.85667 26.9533 4.96667 26.88 5.04C26.8867 5.06667 26.89 5.10333 26.89 5.15C26.89 5.25667 26.8533 5.37 26.78 5.49C26.8467 5.58333 26.88 5.68667 26.88 5.8C26.88 5.91333 26.8467 6.01667 26.78 6.11C26.8 6.27667 26.81 6.38667 26.81 6.44C26.8367 6.67333 26.85 6.83333 26.85 6.92C26.85 6.96667 26.84 7.02667 26.82 7.1C26.8933 7.2 26.93 7.35 26.93 7.55C26.93 7.74333 26.8967 7.89333 26.83 8C26.97 8.26 27.04 8.46 27.04 8.6C27.04 8.71333 27.01 8.81667 26.95 8.91C26.9833 8.97 27 9.04333 27 9.13C27 9.22333 26.9733 9.32667 26.92 9.44C26.9733 9.52 27 9.65 27 9.83C27 10.0233 26.9533 10.1967 26.86 10.35C26.9067 10.3567 26.9167 10.4133 26.89 10.52C26.8633 10.6267 26.8167 10.7333 26.75 10.84C26.7967 10.9333 26.82 11.0167 26.82 11.09C26.82 11.2033 26.7867 11.3133 26.72 11.42C26.6533 11.5267 26.57 11.6033 26.47 11.65C26.35 11.9967 26.1767 12.1967 25.95 12.25C25.9633 12.3633 25.9233 12.4733 25.83 12.58C25.7367 12.6867 25.6367 12.75 25.53 12.77C25.4833 12.9767 25.3067 13.08 25 13.08C24.9333 13.16 24.8267 13.2233 24.68 13.27C24.54 13.3167 24.38 13.34 24.2 13.34C23.8533 13.34 23.5933 13.2533 23.42 13.08C23.3 13.0667 23.1833 13.0233 23.07 12.95C22.9567 12.87 22.8733 12.7733 22.82 12.66C22.68 12.6467 22.56 12.59 22.46 12.49C22.36 12.39 22.3067 12.27 22.3 12.13C22.2267 12.0033 22.19 11.8933 22.19 11.8C22.19 11.6467 22.2533 11.5167 22.38 11.41C22.5133 11.2967 22.6633 11.24 22.83 11.24C22.9433 11.24 23.0433 11.2733 23.13 11.34C23.2167 11.4 23.2833 11.49 23.33 11.61C23.53 11.6567 23.6633 11.7633 23.73 11.93C23.8833 11.95 24.0067 12.0067 24.1 12.1C24.1333 12.0533 24.1967 12.0167 24.29 11.99C24.3833 11.97 24.48 11.96 24.58 11.96C24.68 11.96 24.76 11.9733 24.82 12C24.82 11.9267 24.8567 11.8533 24.93 11.78C25.0033 11.7133 25.0833 11.6733 25.17 11.66ZM24.52 8.96C24.6067 8.86 24.7333 8.81 24.9 8.81C25.04 8.81 25.14 8.82667 25.2 8.86C25.2267 8.82667 25.2967 8.77 25.41 8.69C25.53 8.61 25.65 8.55 25.77 8.51C25.6567 8.40333 25.6 8.19333 25.6 7.88C25.6 7.68 25.63 7.49333 25.69 7.32C25.61 7.17333 25.57 7.03333 25.57 6.9C25.57 6.78 25.5933 6.68333 25.64 6.61C25.6067 6.54333 25.59 6.45333 25.59 6.34C25.59 6.18667 25.6233 6.04667 25.69 5.92C25.63 5.82 25.6 5.69667 25.6 5.55C25.6 5.48333 25.61 5.41333 25.63 5.34C25.5433 5.22667 25.5 5.06667 25.5 4.86C25.5 4.72 25.5233 4.59333 25.57 4.48C25.5167 4.44667 25.47 4.38 25.43 4.28C25.3967 4.18 25.3733 4.09 25.36 4.01C25.2533 4.01667 25.1433 4 25.03 3.96C24.9167 3.91333 24.84 3.85333 24.8 3.78C24.68 3.84667 24.56 3.88 24.44 3.88C24.26 3.88 24.0767 3.81333 23.89 3.68C23.8567 3.76 23.76 3.84667 23.6 3.94C23.44 4.03333 23.3033 4.08667 23.19 4.1C23.1833 4.19333 23.14 4.28 23.06 4.36C22.98 4.43333 22.88 4.48667 22.76 4.52C22.76 4.60667 22.7233 4.72 22.65 4.86C22.5833 5 22.5133 5.09667 22.44 5.15L22.45 5.36C22.45 5.54 22.43 5.70333 22.39 5.85C22.35 6.00333 22.2833 6.09333 22.19 6.12C22.25 6.17333 22.3 6.26 22.34 6.38C22.38 6.49333 22.4 6.61667 22.4 6.75C22.4 6.95667 22.3667 7.12 22.3 7.24C22.3733 7.28 22.4467 7.35333 22.52 7.46C22.5933 7.56667 22.63 7.68333 22.63 7.81C22.63 7.87667 22.6167 7.95333 22.59 8.04C22.6367 8.06667 22.6967 8.15333 22.77 8.3C22.85 8.45333 22.8933 8.55333 22.9 8.6C23.04 8.60667 23.1767 8.63333 23.31 8.68C23.45 8.72667 23.5467 8.79667 23.6 8.89C23.74 8.81 23.8767 8.77 24.01 8.77C24.1833 8.77 24.3533 8.83333 24.52 8.96ZM32.08 10.15C31.9733 10.2633 31.8033 10.32 31.57 10.32C31.39 10.32 31.2433 10.2933 31.13 10.24C30.9633 10.2733 30.8133 10.29 30.68 10.29C30.32 10.29 30.06 10.1967 29.9 10.01C29.86 10.0233 29.81 10.03 29.75 10.03C29.53 10.03 29.3667 9.93 29.26 9.73C29.1667 9.74333 29.0467 9.69667 28.9 9.59C28.7533 9.47667 28.69 9.37 28.71 9.27C28.5633 9.23 28.44 9.14 28.34 9C28.24 8.85333 28.1967 8.68667 28.21 8.5C28.1033 8.46 28.0233 8.38667 27.97 8.28C27.91 8.16667 27.88 8.04 27.88 7.9C27.88 7.74667 27.9033 7.64 27.95 7.58C27.85 7.42 27.8 7.23667 27.8 7.03C27.8 6.81667 27.8667 6.64333 28 6.51C27.8933 6.43667 27.84 6.32667 27.84 6.18C27.84 6.08667 27.8633 5.99333 27.91 5.9C27.9567 5.80667 28.0167 5.74 28.09 5.7C28.0767 5.56667 28.0933 5.44333 28.14 5.33C28.1933 5.21 28.2667 5.12333 28.36 5.07C28.34 5.04333 28.33 5 28.33 4.94C28.33 4.86 28.36 4.77667 28.42 4.69C28.48 4.61 28.55 4.56 28.63 4.54C28.6167 4.51333 28.61 4.47667 28.61 4.43C28.61 4.23 28.6867 4.05667 28.84 3.91C28.9867 3.77 29.13 3.71 29.27 3.73C29.27 3.59667 29.3267 3.48667 29.44 3.4C29.56 3.30667 29.7133 3.26 29.9 3.26C29.9867 3.26 30.0533 3.26667 30.1 3.28C30.16 3.14 30.27 3.02667 30.43 2.94C30.59 2.84667 30.7533 2.8 30.92 2.8C31.0333 2.8 31.1267 2.82333 31.2 2.87C31.3333 2.75667 31.4967 2.7 31.69 2.7C31.85 2.7 31.9933 2.74 32.12 2.82C32.2467 2.89333 32.3233 2.99333 32.35 3.12C32.4967 3.12 32.6567 3.17333 32.83 3.28C32.9967 3.39333 33.0933 3.50333 33.12 3.61C33.3467 3.67667 33.5633 3.82 33.77 4.04C33.9833 4.26 34.09 4.48333 34.09 4.71C34.09 4.74333 34.08 4.79667 34.06 4.87C34.46 4.95667 34.64 5.36333 34.6 6.09C34.6867 6.23 34.73 6.38 34.73 6.54C34.73 6.72667 34.67 6.91333 34.55 7.1C34.5767 7.18667 34.59 7.26667 34.59 7.34C34.59 7.45333 34.5667 7.56 34.52 7.66C34.4733 7.76 34.4133 7.84 34.34 7.9C34.3467 8.04667 34.32 8.16667 34.26 8.26C34.2 8.35333 34.09 8.48 33.93 8.64C33.9433 8.68 33.95 8.73667 33.95 8.81C33.95 9.09 33.79 9.27 33.47 9.35C33.4433 9.50333 33.3667 9.62667 33.24 9.72C33.1133 9.81333 32.96 9.86 32.78 9.86C32.6333 10.0667 32.4533 10.17 32.24 10.17C32.1733 10.17 32.12 10.1633 32.08 10.15ZM30.77 9.17C30.8433 9.10333 30.97 9.07 31.15 9.07C31.2767 9.07 31.3467 9.09 31.36 9.13C31.4333 9.04333 31.5267 8.97667 31.64 8.93C31.7467 8.88333 31.8467 8.86667 31.94 8.88C32.1 8.72 32.2733 8.64 32.46 8.64C32.5267 8.64 32.5733 8.64333 32.6 8.65C32.5933 8.57 32.6167 8.49 32.67 8.41C32.73 8.33 32.7967 8.27667 32.87 8.25C32.87 8.13 32.9 8.02333 32.96 7.93C33.02 7.84333 33.0967 7.77667 33.19 7.73C33.19 7.54333 33.2267 7.39333 33.3 7.28C33.2733 7.20667 33.26 7.13333 33.26 7.06C33.26 6.95333 33.2833 6.85333 33.33 6.76C33.3767 6.66 33.4433 6.57667 33.53 6.51C33.4367 6.43 33.39 6.32667 33.39 6.2C33.39 6.09333 33.42 5.98333 33.48 5.87C33.2933 5.75667 33.17 5.64667 33.11 5.54C33.05 5.43333 33.02 5.23333 33.02 4.94C32.94 4.95333 32.8533 4.90667 32.76 4.8C32.6733 4.7 32.62 4.58333 32.6 4.45C32.5 4.48333 32.3767 4.45333 32.23 4.36C32.0833 4.27333 32.01 4.16 32.01 4.02C31.9367 4.06 31.85 4.08 31.75 4.08C31.55 4.08 31.39 4.01 31.27 3.87C31.17 3.97 31.0367 4.05 30.87 4.11C30.71 4.17 30.57 4.19 30.45 4.17C30.4367 4.26333 30.3533 4.37333 30.2 4.5C30.0467 4.62667 29.91 4.71 29.79 4.75C29.8167 4.80333 29.83 4.86667 29.83 4.94C29.83 5.03333 29.8067 5.12667 29.76 5.22C29.7133 5.31333 29.6467 5.39333 29.56 5.46C29.5733 5.59333 29.5433 5.72 29.47 5.84C29.4033 5.96 29.31 6.04333 29.19 6.09C29.2033 6.16333 29.21 6.22333 29.21 6.27C29.21 6.40333 29.18 6.50667 29.12 6.58C29.1467 6.64667 29.16 6.71333 29.16 6.78C29.16 6.88 29.1067 6.99 29 7.11C29.2333 7.27 29.35 7.5 29.35 7.8C29.35 7.96 29.3233 8.09667 29.27 8.21C29.3633 8.21667 29.43 8.24333 29.47 8.29C29.5033 8.33667 29.5333 8.41 29.56 8.51C29.7933 8.54333 29.9667 8.65667 30.08 8.85C30.1867 8.85 30.3167 8.88333 30.47 8.95C30.6233 9.01667 30.7233 9.09 30.77 9.17ZM37.42 8.57C37.5133 8.67 37.56 8.83 37.56 9.05C37.56 9.19 37.5367 9.32333 37.49 9.45C37.45 9.57 37.3967 9.66 37.33 9.72C37.3633 9.89333 37.3167 10.0367 37.19 10.15C37.07 10.2633 36.9267 10.32 36.76 10.32C36.6467 10.32 36.54 10.2933 36.44 10.24C36.3333 10.18 36.2567 10.0867 36.21 9.96C36.1633 9.82667 36.14 9.68667 36.14 9.54C36.14 9.33333 36.1733 9.17 36.24 9.05C36.1933 8.96333 36.17 8.84 36.17 8.68C36.17 8.50667 36.2 8.32667 36.26 8.14C36.1933 8.06 36.16 7.92333 36.16 7.73C36.16 7.47667 36.1967 7.29 36.27 7.17C36.2167 7.03667 36.19 6.91 36.19 6.79C36.19 6.62333 36.23 6.45667 36.31 6.29C36.2367 6.09 36.2 5.91333 36.2 5.76C36.2 5.62667 36.2267 5.47667 36.28 5.31C36.1867 5.20333 36.14 5.07333 36.14 4.92C36.14 4.85333 36.1467 4.80667 36.16 4.78C36.0533 4.65333 36 4.51333 36 4.36C36 4.25333 36.03 4.15333 36.09 4.06C36.0233 3.91333 35.99 3.77 35.99 3.63C35.99 3.40333 36.0467 3.23333 36.16 3.12C36.1 2.99333 36.07 2.83667 36.07 2.65C36.07 2.49667 36.0933 2.39 36.14 2.33C36.0933 2.29667 36.0567 2.24333 36.03 2.17C36.0033 2.09667 35.99 2.01333 35.99 1.92C35.99 1.76 36.0267 1.63 36.1 1.53C36.0733 1.45667 36.06 1.35667 36.06 1.23C36.06 1.13667 36.07 1.05333 36.09 0.98C35.9767 0.866667 35.92 0.736667 35.92 0.59C35.92 0.43 35.9867 0.293334 36.12 0.18C36.26 0.0600003 36.4133 0 36.58 0C36.6933 0 36.7967 0.0366668 36.89 0.11C36.9833 0.176667 37.0467 0.28 37.08 0.42C37.22 0.513333 37.29 0.66 37.29 0.86C37.29 0.893333 37.28 0.946667 37.26 1.02C37.3733 1.13333 37.43 1.28 37.43 1.46C37.43 1.60667 37.3833 1.72333 37.29 1.81C37.3367 1.84333 37.38 1.90667 37.42 2C37.4533 2.08667 37.47 2.18 37.47 2.28C37.47 2.45333 37.41 2.59333 37.29 2.7C37.3633 2.80667 37.4 2.93333 37.4 3.08C37.4 3.23333 37.3733 3.35667 37.32 3.45C37.36 3.48333 37.38 3.57667 37.38 3.73C37.38 3.81 37.37 3.89667 37.35 3.99C37.33 4.08333 37.3 4.15 37.26 4.19C37.4 4.31 37.47 4.46333 37.47 4.65C37.47 4.75 37.4533 4.84 37.42 4.92C37.4733 5 37.5 5.12333 37.5 5.29C37.5 5.51 37.4633 5.68333 37.39 5.81C37.4567 5.94333 37.49 6.11667 37.49 6.33C37.49 6.59 37.4467 6.77667 37.36 6.89C37.4267 6.98333 37.46 7.1 37.46 7.24C37.46 7.36 37.4333 7.50333 37.38 7.67C37.46 7.76333 37.5 7.91 37.5 8.11C37.5 8.27667 37.4733 8.43 37.42 8.57ZM39.32 0.34C39.2 0.393333 39.1033 0.473334 39.03 0.58C38.9567 0.68 38.92 0.786667 38.92 0.9C38.92 1.04667 38.98 1.19667 39.1 1.35C39.08 1.47 39.1433 1.58667 39.29 1.7C39.4433 1.80667 39.6067 1.86 39.78 1.86C39.9067 1.86 40.0167 1.83 40.11 1.77C40.37 1.63 40.5 1.45 40.5 1.23C40.5 1.09 40.4433 0.933334 40.33 0.76C40.3367 0.573334 40.2833 0.426667 40.17 0.32C40.05 0.213334 39.9133 0.16 39.76 0.16C39.58 0.16 39.4333 0.22 39.32 0.34ZM40.23 6.53C40.3033 6.55667 40.3633 6.64333 40.41 6.79C40.45 6.94333 40.47 7.10667 40.47 7.28C40.47 7.48667 40.4367 7.62333 40.37 7.69C40.43 7.83 40.46 7.96333 40.46 8.09C40.46 8.26333 40.4167 8.40333 40.33 8.51C40.3967 8.67 40.43 8.85667 40.43 9.07C40.43 9.25 40.4 9.39667 40.34 9.51C40.3733 9.59 40.39 9.67 40.39 9.75C40.39 9.91667 40.3267 10.0467 40.2 10.14C40.08 10.24 39.9367 10.29 39.77 10.29C39.61 10.29 39.4733 10.24 39.36 10.14C39.2533 10.0467 39.2033 9.91667 39.21 9.75C39.1633 9.69 39.1267 9.6 39.1 9.48C39.0733 9.36 39.06 9.23333 39.06 9.1C39.06 8.86 39.11 8.70333 39.21 8.63C39.1367 8.50333 39.1 8.32 39.1 8.08C39.1 7.84 39.1333 7.66333 39.2 7.55C39.16 7.51 39.13 7.42 39.11 7.28C39.09 7.14 39.08 6.98667 39.08 6.82C39.08 6.66 39.09 6.51667 39.11 6.39C39.13 6.26333 39.16 6.18333 39.2 6.15C39.14 6.09 39.11 5.93667 39.11 5.69C39.11 5.39667 39.1433 5.18667 39.21 5.06C39.1633 4.98 39.12 4.88 39.08 4.76C39.0467 4.64 39.03 4.53 39.03 4.43C39.03 4.33667 39.04 4.27 39.06 4.23C38.98 3.99 38.94 3.79333 38.94 3.64C38.94 3.48 38.98 3.31667 39.06 3.15C39.04 3.01 39.07 2.90333 39.15 2.83C39.2367 2.75667 39.36 2.72 39.52 2.72C39.9467 2.72 40.16 2.98 40.16 3.5C40.2467 3.56 40.31 3.63667 40.35 3.73C40.39 3.83 40.41 3.94 40.41 4.06C40.41 4.26 40.3633 4.43 40.27 4.57C40.31 4.62333 40.34 4.70667 40.36 4.82C40.3867 4.93333 40.4 5.04333 40.4 5.15C40.4 5.30333 40.3767 5.40667 40.33 5.46C40.37 5.50667 40.39 5.60667 40.39 5.76C40.39 5.9 40.3733 6.04667 40.34 6.2C40.3067 6.36 40.27 6.47 40.23 6.53ZM44.38 4.33C44.3933 4.43 44.36 4.52 44.28 4.6C44.2067 4.68 44.1133 4.72333 44 4.73C43.9333 4.91667 43.76 5.03 43.48 5.07C43.4867 5.23 43.4533 5.36333 43.38 5.47C43.3067 5.57667 43.2233 5.64 43.13 5.66C43.13 5.9 43.08 6.15 42.98 6.41C42.9933 6.49 43 6.55667 43 6.61C43 6.79667 42.9633 6.96333 42.89 7.11C42.9367 7.20333 42.96 7.31333 42.96 7.44C42.96 7.59333 42.9333 7.75667 42.88 7.93C42.96 8.03667 43 8.16 43 8.3C43 8.38667 42.9767 8.48667 42.93 8.6C42.9633 8.65333 42.98 8.74 42.98 8.86C42.98 9.06667 42.9367 9.21667 42.85 9.31C42.89 9.44333 42.91 9.54667 42.91 9.62C42.91 9.69333 42.8933 9.76 42.86 9.82C42.86 9.97333 42.8 10.0967 42.68 10.19C42.56 10.2767 42.4167 10.32 42.25 10.32C42.09 10.32 41.95 10.2767 41.83 10.19C41.7167 10.0967 41.6633 9.97333 41.67 9.82C41.6433 9.73333 41.63 9.64333 41.63 9.55C41.63 9.35667 41.6633 9.17 41.73 8.99C41.6433 8.87667 41.6 8.75667 41.6 8.63C41.6 8.54333 41.6233 8.44333 41.67 8.33C41.61 8.23 41.58 8.11333 41.58 7.98C41.58 7.88667 41.5967 7.80333 41.63 7.73C41.67 7.65667 41.7167 7.59667 41.77 7.55C41.6433 7.39667 41.58 7.22333 41.58 7.03C41.58 6.84333 41.64 6.68333 41.76 6.55C41.72 6.50333 41.6867 6.43333 41.66 6.34C41.6333 6.24667 41.62 6.15333 41.62 6.06C41.62 5.94 41.6467 5.85333 41.7 5.8C41.6267 5.63333 41.59 5.44 41.59 5.22C41.59 5.03333 41.6167 4.91 41.67 4.85C41.59 4.66333 41.55 4.48333 41.55 4.31C41.55 4.12333 41.59 3.99 41.67 3.91C41.5233 3.73 41.45 3.53333 41.45 3.32C41.45 3.06 41.5633 2.87 41.79 2.75C41.8967 2.69 42.0067 2.66 42.12 2.66C42.3 2.66 42.45 2.73333 42.57 2.88C42.69 3.02667 42.75 3.19667 42.75 3.39C42.75 3.49 42.7267 3.59667 42.68 3.71C42.8 3.83 42.86 3.98333 42.86 4.17C42.86 4.30333 42.8533 4.41333 42.84 4.5C42.9133 4.22667 43.02 4.06667 43.16 4.02C43.16 3.84 43.2167 3.67667 43.33 3.53C43.4367 3.38333 43.5667 3.27 43.72 3.19C43.88 3.11667 44.01 3.09333 44.11 3.12C44.3433 2.87333 44.5967 2.75 44.87 2.75C44.99 2.75 45.0967 2.77333 45.19 2.82C45.27 2.75333 45.3967 2.72 45.57 2.72C45.71 2.72 45.84 2.74333 45.96 2.79C46.08 2.84333 46.16 2.92333 46.2 3.03C46.5333 3.04333 46.77 3.18333 46.91 3.45C47.03 3.45667 47.15 3.52667 47.27 3.66C47.3833 3.78667 47.44 3.93333 47.44 4.1C47.44 4.18 47.4167 4.27333 47.37 4.38C47.5833 4.46667 47.69 4.63 47.69 4.87C47.69 4.95667 47.6867 5.02 47.68 5.06C47.8 5.12 47.8867 5.18667 47.94 5.26C47.9933 5.32667 48.02 5.41333 48.02 5.52C48.02 5.63333 47.99 5.78333 47.93 5.97C48.0433 6.05 48.1 6.19 48.1 6.39C48.1 6.59 48.05 6.74333 47.95 6.85C48.03 6.99 48.07 7.16333 48.07 7.37C48.07 7.57 48.0233 7.73333 47.93 7.86C47.99 8.14 48.02 8.33333 48.02 8.44C48.02 8.64 47.9767 8.77667 47.89 8.85C47.9633 9.01667 48 9.18 48 9.34C48 9.55333 47.95 9.71333 47.85 9.82C47.8567 9.96667 47.7933 10.0867 47.66 10.18C47.5267 10.2733 47.3733 10.32 47.2 10.32C47.0733 10.32 46.9633 10.2867 46.87 10.22C46.7767 10.1533 46.73 10.06 46.73 9.94C46.6567 9.76667 46.62 9.56667 46.62 9.34C46.62 8.99333 46.7033 8.74 46.87 8.58C46.8033 8.5 46.7433 8.36333 46.69 8.17C46.6433 7.97667 46.62 7.79667 46.62 7.63C46.62 7.39667 46.6667 7.25333 46.76 7.2C46.68 7.06 46.64 6.91333 46.64 6.76C46.64 6.59333 46.6933 6.39 46.8 6.15C46.7133 6.08333 46.6433 5.98333 46.59 5.85C46.53 5.72333 46.5 5.6 46.5 5.48C46.5 5.44 46.51 5.38333 46.53 5.31C46.43 5.22333 46.34 5.08667 46.26 4.9C46.18 4.71333 46.1433 4.54667 46.15 4.4C46.07 4.38667 45.9867 4.35667 45.9 4.31C45.82 4.26333 45.7567 4.2 45.71 4.12H45.55C45.39 4.12 45.28 4.08667 45.22 4.02C45.14 4.11333 45.0133 4.19667 44.84 4.27C44.6733 4.33667 44.5233 4.35667 44.39 4.33H44.38Z" fill="black"/>
</svg>
