<svg width="75.978" height="19.6" viewBox="0 0 75.978 19.6" xmlns="http://www.w3.org/2000/svg"><path transform="translate(0 14.7) scale(.014 -.014)" d="m78 0v693h225q82 0 135.5-27.5t79.5-73.5 26-103q0-53-24.5-99.5t-77-75-139.5-28.5h-133v-286zm92 362h133q78 0 112.5 34.5t34.5 92.5q0 61-34.5 94.5t-112.5 33.5h-133z"/><path transform="translate(8.12 14.7) scale(.014 -.014)" d="m300-7q-71 0-129.5 35.5t-93 99-34.5 147.5 34.5 147.5 93 98.5 129.5 35q73 0 128-34.5t79-93.5v121h92v-549h-38q-25 0-39.5 15t-14.5 39v68q-25-59-80.5-94t-126.5-35zm22 80q50 0 92 24t67.5 69.5 25.5 108.5q0 64-25.5 108.5t-67.5 68.5-92 24-92-24-67.5-68.5-25.5-108.5q0-63 25.5-108.5t67.5-69.5 92-24z"/><path transform="translate(17.598 14.7) scale(.014 -.014)" d="m78 0v549h92v-549zm59 281 33 146q19 61 66 95t112 34v-96q-8 2-15.5 2.5t-14.5 0.5q-43 0-76.5-22.5t-52.5-63-19-96.5z"/><path transform="translate(22.848 14.7) scale(.014 -.014)" d="m78 0v740h92v-426q61 11 113 42t88.5 79.5 50.5 113.5h99q-15-69-52.5-124t-86-92.5-98.5-55.5q36-9 76.5-34.5t78.5-62.5 65-83 36-97h-99q-10 45-36.5 85t-64 72-81.5 52-89 24v-233z"/><path transform="translate(30.52 14.7) scale(.014 -.014)" d="m82 0v549h92v-549zm46 637q-29 0-50 19t-21 47q0 29 20.5 48t50.5 19q29 0 50-19t21-48q0-28-21-47t-50-19z"/><path transform="translate(34.104 14.7) scale(.014 -.014)" d="m78 0v549h92v-117q12 34 39.5 62t65.5 45 81 17q65 0 113-29t74-81 26-123v-323h-91v300q0 83-42 129.5t-110 46.5q-44 0-79.5-24.5t-56-67.5-20.5-99v-285z"/><path transform="translate(43.078 14.7) scale(.014 -.014)" d="m266-7q-60 0-106 20.5t-74.5 55-38.5 76.5l86 19q10-41 44-67t87-26q55 0 83.5 22.5t28.5 56.5q0 30-23.5 47t-60.5 28-78.5 22-78.5 28.5-60 47.5-23 80q0 43 25 77.5t70.5 55 106.5 20.5q57 0 98-18.5t66.5-50.5 34.5-73l-85-23q-9 37-37 62t-80 25q-51 0-78.5-21t-27.5-53 23-50 59.5-29.5 78-22.5 78-27.5 59.5-46 23-78.5q0-43-24.5-79t-69.5-57-106-21z"/><path transform="translate(50.302 14.7) scale(.014 -.014)" d="m300-7q-71 0-129.5 35.5t-93 99-34.5 147.5 34.5 147.5 93 98.5 129.5 35q73 0 128-34.5t79-93.5v121h92v-549h-38q-25 0-39.5 15t-14.5 39v68q-25-59-80.5-94t-126.5-35zm22 80q50 0 92 24t67.5 69.5 25.5 108.5q0 64-25.5 108.5t-67.5 68.5-92 24-92-24-67.5-68.5-25.5-108.5q0-63 25.5-108.5t67.5-69.5 92-24z"/><path transform="translate(59.78 14.7) scale(.014 -.014)" d="m78 0v549h92v-117q12 34 39.5 62t65.5 45 81 17q65 0 113-29t74-81 26-123v-323h-91v300q0 83-42 129.5t-110 46.5q-44 0-79.5-24.5t-56-67.5-20.5-99v-285z"/><path transform="translate(68.754 14.7) scale(.014 -.014)" d="m266-7q-60 0-106 20.5t-74.5 55-38.5 76.5l86 19q10-41 44-67t87-26q55 0 83.5 22.5t28.5 56.5q0 30-23.5 47t-60.5 28-78.5 22-78.5 28.5-60 47.5-23 80q0 43 25 77.5t70.5 55 106.5 20.5q57 0 98-18.5t66.5-50.5 34.5-73l-85-23q-9 37-37 62t-80 25q-51 0-78.5-21t-27.5-53 23-50 59.5-29.5 78-22.5 78-27.5 59.5-46 23-78.5q0-43-24.5-79t-69.5-57-106-21z"/></svg>