<svg width="59.738" height="15.4" viewBox="0 0 59.738 15.4" xmlns="http://www.w3.org/2000/svg"><path transform="translate(0 10.5) scale(.014 -.014)" d="m-1-88q-4-1-5 3-1 5-1.5 11t-0.5 13q0 60 76 236-42 21-42 56 0 26 27.5 54t76.5 50l3 1q12 36 19.5 66t8.5 54q-43-9-75-9-80 0-80 52 0 26 26 42.5t60 16.5q77 0 86-70l68 12q53 9 122 9 25 0 49-1.5t46-3.5q167-21 167-111 0-73-83-133-34-25-78.5-44.5t-99.5-35.5q-98-29-172-29-13 0-25.5 0.5t-24.5 1.5q-48-97-48-137 0-28 11-46 11-22 33-22l7 2q2 0 3 0.5t2 0.5q5 0 5-7 0-5-5-5-36-2-56.5 18.5t-23.5 54.5q-1 51 39 148-19 3-32 9-81-180-81-238 0-9 1-13 0-4-3-6zm76 566q15 0 36.5 2t49.5 6q-6 66-76 61-23-1-41-14.5t-18-30.5q0-24 49-24zm109-312q105 0 204 39 61 24 106.5 56t71 67.5 25.5 67.5q0 73-131 88-34 3-76 3-38 0-70-2.5t-58-9.5q-13-2-32-6t-45-10q-1-46-24-117 28 11 63 15 22 38 40 62 12 18 38 18 17 0 17-10 0-3-4-8-15-15-42-55 29 3 53 3 98 0 120-38 3-6-4-6-6 0-11 3-19 12-49.5 18.5t-73.5 6.5q-11 0-22.5-0.5t-22.5-1.5q-56-87-102-181 6-1 14-1.5t15-0.5zm-63 9q18 39 40 81t47 86q-17-2-32-6.5t-28-9.5q-9-23-23.5-57.5t-35.5-81.5q14-7 32-12zm-44 20q33 77 49 120-70-37-70-80 0-21 21-40z"/><path transform="translate(7.42 10.5) scale(.014 -.014)" d="m16-1q-23 0-23 30 0 24 18 52 42 63 91 85 21 10 41 10 10 0 22-5.5t12-15.5q0-5-7-6-4-1-5.5-2t-2.5-2q-23-43-23-80 0-47 37-47 39 0 97 61 5 6 8 6t3-4-3-9q-67-72-117-72-24 0-39 21-16 22-17 53-25-33-50-55-26-20-42-20zm21 30q11 0 29 15 16 14 27 27.5t16 27.5q2 17 6.5 30.5t9.5 24.5q-52 1-89-72-11-20-11-36 0-17 12-17z"/><path transform="translate(11.116 10.5) scale(.014 -.014)" d="m54-6q-15 0-26.5 9t-14.5 22q-4 13-4 22 0 6 2 8 0 8 7 8 2 0 3-1 18-22 47-33 0 9-3 19-4 15-14 28-20 27-20 58 0 72 88 105 24 8 42 8 39 0 39-32 0-20-13-39-6-8-10-9t-4 4q0 4 3 8 7 13 7 22 0 15-21 15-2 0-5 0t-6-1q-68-12-92-79-3-10-3-19 0-16 15-42 16-26 17-41 0-8-1-11 6-1 12-1.5t12-0.5q18 0 34 4 26 7 49 20.5t42 35.5q3 4 7 4t4-5-4-9q-53-50-100-59-18-3-34-3-7 0-13.5 0.5t-12.5 1.5q-11-17-29-17zm-6 17q8 0 13 5-24 7-42 25 0-13 9.5-21.5t19.5-8.5z"/><path transform="translate(14.28 10.5) scale(.014 -.014)" d="m54-6q-15 0-26.5 9t-14.5 22q-4 13-4 22 0 6 2 8 0 8 7 8 2 0 3-1 18-22 47-33 0 9-3 19-4 15-14 28-20 27-20 58 0 72 88 105 24 8 42 8 39 0 39-32 0-20-13-39-6-8-10-9t-4 4q0 4 3 8 7 13 7 22 0 15-21 15-2 0-5 0t-6-1q-68-12-92-79-3-10-3-19 0-16 15-42 16-26 17-41 0-8-1-11 6-1 12-1.5t12-0.5q18 0 34 4 26 7 49 20.5t42 35.5q3 4 7 4t4-5-4-9q-53-50-100-59-18-3-34-3-7 0-13.5 0.5t-12.5 1.5q-11-17-29-17zm-6 17q8 0 13 5-24 7-42 25 0-13 9.5-21.5t19.5-8.5z"/><path transform="translate(17.444 10.5) scale(.014 -.014)" d="m135 250q-9 0-16.5 7.5t-7.5 16.5q0 12 11 20 8 7 18 7 23 0 23-20 0-31-28-31zm-67-250q-58 1-52 80 1 34 37 87 6 11 26 11 15 0 15-9l-1-5-25-43q-15-28-16-43-1-5-1.5-10.5t-0.5-10.5q0-41 29-41 40 0 100 63 6 7 10 7 3-1 3-5 0-3-3-8-70-75-121-73z"/><path transform="translate(19.838 10.5) scale(.014 -.014)" d="m44-18q-41 0-41 48 0 36 18 84-1 5-1.5 10.5t-0.5 11.5q0 53 51 57 13 16 24 16 18 0 18-10 0-3-3-6l-3-3q23-7 38-26t15-41q0-39-21-77l-2-2q59 2 95 39 3 3 7 3 3 0 3-5t-6-10q-47-41-108-41-17-21-40-34.5t-43-13.5zm72 63q22 41 22 79 0 23-11 39t-30 18q-30-33-48-77 12-52 67-59zm-58-45q28 0 50 31-46 6-70 38-2-10-3.5-19t-1.5-16q0-34 25-34z"/><path transform="translate(22.918 10.5) scale(.014 -.014)" d="m1-1q-7 0-12 6t-4 10l30 69q26 61 26 74 3 4 20 12 4 2 7 3t6 1q7 0 7-9-7-20-20.5-51.5t-34.5-75.5l107 115q14 15 21 15 5 0 5-6 0-2-0.5-4.5t-1.5-5.5q-21-73-21-100 0-34 23-34 21 0 50 23 5 4 15.5 14t25.5 26q4 4 8 4 3 0 3-4 1-2-2-7-63-70-112-70-44 0-44 69 0 8 0.5 16t1.5 17l-47-45q-8-7-15.5-15t-13.5-16l-20-25q-3-6-8-6z"/><path transform="translate(26.278 10.5) scale(.014 -.014)" d="m54-6q-15 0-26.5 9t-14.5 22q-4 13-4 22 0 6 2 8 0 8 7 8 2 0 3-1 18-22 47-33 0 9-3 19-4 15-14 28-20 27-20 58 0 72 88 105 24 8 42 8 39 0 39-32 0-20-13-39-6-8-10-9t-4 4q0 4 3 8 7 13 7 22 0 15-21 15-2 0-5 0t-6-1q-68-12-92-79-3-10-3-19 0-16 15-42 16-26 17-41 0-8-1-11 6-1 12-1.5t12-0.5q18 0 34 4 26 7 49 20.5t42 35.5q3 4 7 4t4-5-4-9q-53-50-100-59-18-3-34-3-7 0-13.5 0.5t-12.5 1.5q-11-17-29-17zm-6 17q8 0 13 5-24 7-42 25 0-13 9.5-21.5t19.5-8.5z"/><path transform="translate(33.824 10.5) scale(.014 -.014)" d="m237-32q-73 0-125 22.5t-80 62-28 89.5q0 48 27 102-50 30-50 88 0 57 48 91 47 35 116 35 52 0 107-18 123 58 251 58 69 0 104-29 29-24 29-62 0-27-13-50-20-37-59.5-69.5t-98.5-60.5l-1-1q-6-2-8-2t-2 2q0 4 5 8 5 10 5 19 0 29-36 69-13 14-25 25t-24 19q-25 17-50 31t-51 24q-124-54-194-147-7-7-12.5-15t-10.5-16q42-17 86-17 57 0 67 21 0 2 2 2 3 0 4.5-2t-0.5-4q-6-12-29.5-19t-54.5-7q-43 0-82 14-31-52-31-99 0-64 60-101.5t161-37.5q25 0 52 3 76 8 122 18 87 23 135 68 4 4 6 4 4 0 4-6-1-3-5-9-41-35-130-67-37-13-69-20.5t-61-11.5q-16-2-31.5-3t-29.5-1zm238 276q22 12 38.5 22t26.5 17q42 32 60 70 10 20 10 40 0 37-36 56-34 18-93 18-90 0-192-41 25-10 48.5-23.5t46.5-30.5q32-23 58-52 34-38 34-66 0-2 0-5t-1-5zm-438 12q6 11 13 21.5t15 20.5q65 81 173 136-45 12-89 12-64 0-113-32-45-30-45-79 0-51 46-79z"/><path transform="translate(41.398 10.5) scale(.014 -.014)" d="m44-18q-41 0-41 48 0 36 18 84-1 5-1.5 10.5t-0.5 11.5q0 53 51 57 13 16 24 16 18 0 18-10 0-3-3-6l-3-3q23-7 38-26t15-41q0-39-21-77l-2-2q59 2 95 39 3 3 7 3 3 0 3-5t-6-10q-47-41-108-41-17-21-40-34.5t-43-13.5zm72 63q22 41 22 79 0 23-11 39t-30 18q-30-33-48-77 12-52 67-59zm-58-45q28 0 50 31-46 6-70 38-2-10-3.5-19t-1.5-16q0-34 25-34z"/><path transform="translate(44.478 10.5) scale(.014 -.014)" d="m1-1q-7 0-12 6t-4 10l30 69q26 61 26 74 3 4 20 12 4 2 7 3t6 1q7 0 7-9-7-20-20.5-51.5t-34.5-75.5l107 115q14 15 21 15 5 0 5-6 0-2-0.5-4.5t-1.5-5.5q-21-73-21-100 0-34 23-34 21 0 50 23 5 4 15.5 14t25.5 26q4 4 8 4 3 0 3-4 1-2-2-7-63-70-112-70-44 0-44 69 0 8 0.5 16t1.5 17l-47-45q-8-7-15.5-15t-13.5-16l-20-25q-3-6-8-6z"/><path transform="translate(47.838 10.5) scale(.014 -.014)" d="m-243-209q-36 0-59 21-20 20-20 47 0 28 20 48 3 4 6 4 4 0 4-4 0-2-3-7-14-14-14-38 0-23 15-40 16-19 46-19 46 0 92 37 23 18 43.5 42.5t39.5 55.5q32 55 60.5 109t53.5 106l-27-1q-21 2-22 12v1q0 8 14 8h44q22 48 36.5 79.5t22.5 46.5q43 83 79 116 18 18 33 18 28 0 28-44 0-21-11-45-35-71-148-170 20 0 36-0.5t28-0.5 20.5 0.5 12.5 0.5q9-3 9-8 0-9-22-12-11-2-101-3-39-78-120-228-37-64-80-95-49-37-116-37zm330 391q94 88 132 172 12 26 12 43 0 12-6 12-12 0-41-48-22-40-46.5-84.5t-50.5-94.5z"/><path transform="translate(49.994 10.5) scale(.014 -.014)" d="m58 0q-47 2-47 56 0 14 3.5 34t10.5 46q10 34 28 75.5t45 90.5q69 128 118 128 27 0 27-32 0-14-6-31-28-89-167-208-29-53-29-105 0-40 26-40 17 0 42 15 14 8 29 20.5t31 29.5q6 7 10 7 4-1 4-5t-4-8q-70-75-121-73zm20 179q20 20 39.5 42t38.5 47q22 29 37.5 54t23.5 47q7 18 7 30 0 16-11 16-17 0-38-37-28-47-52-97t-45-102z"/><path transform="translate(52.248 10.5) scale(.014 -.014)" d="m135 250q-9 0-16.5 7.5t-7.5 16.5q0 12 11 20 8 7 18 7 23 0 23-20 0-31-28-31zm-67-250q-58 1-52 80 1 34 37 87 6 11 26 11 15 0 15-9l-1-5-25-43q-15-28-16-43-1-5-1.5-10.5t-0.5-10.5q0-41 29-41 40 0 100 63 6 7 10 7 3-1 3-5 0-3-3-8-70-75-121-73z"/><path transform="translate(54.642 10.5) scale(.014 -.014)" d="m63-7q-55 0-55 60 0 39 39 85 42 50 81 50 32 0 32-29 0-10-7-25-4-7-7-11.5t-5-8.5q-3-3-5-3-6 0-2 10 7 11 7 20 0 12-14 12-18 0-38-15-25-19-40-45.5t-15-48.5q0-36 38-36 18 0 48 11 39 17 81 60 7 7 10 7 3-1 3-5 0-3-3-8-75-80-148-80z"/><path transform="translate(57.344 10.5) scale(.014 -.014)" d="m68 0q-40 1-49 41-1 7-1.5 13t-0.5 12q0 38 21 87-13-1-19-1t-4-1q-16 2-16 13v2q0 7 14 7l18 1h18q4 8 12 23.5t21 37.5q7 12 16.5 27t20.5 32q14 12 34 12 18 0 18-9 0-2-2-4-13-18-33-48t-47-71h98q9-3 9-8 0-9-22-12-4-1-28-1t-68 0q-31-58-31-94 0-41 35-41 17 0 37 11 14 8 29 20.5t31 29.5q5 6 9 6t4-4q0-5-3-8-70-74-121-73z"/></svg>