<svg width="67" height="10" viewBox="0 0 67 10" fill="none" xmlns="http://www.w3.org/2000/svg">
<path d="M1.3 9.18L1.17 2.72L2.92 2.44V3.82L2.87 5.72C3.03667 5.69333 3.19667 5.66667 3.35 5.64L3.79 5.53C3.93667 5.49 4.08 5.44667 4.22 5.4L4.67 5.25C4.88333 4.57 4.99 3.74 4.99 2.76C4.99 2.39333 4.97333 2.16333 4.94 2.07C4.34 1.87667 3.24 1.75667 1.64 1.71C1.23333 1.70333 0.853333 1.69333 0.5 1.68L0.76 0.0599999C2.91333 0.146667 4.49 0.306667 5.49 0.54C5.65 0.58 5.83333 0.706667 6.04 0.92C6.44 1.31333 6.65667 1.63 6.69 1.87C6.72333 2.11 6.74 2.44667 6.74 2.88C6.74 3.32 6.68333 3.84333 6.57 4.45C6.45667 5.05667 6.27 5.65667 6.01 6.25C5.91 6.49 5.68333 6.63667 5.33 6.69L2.91 7.12L2.83 9.03L1.3 9.18ZM13.1 8.06L12.79 9.53C10.9167 9.34333 9.44667 9.06 8.38 8.68C8.18 8.60667 8.05 8.18667 7.99 7.42C7.93667 6.72 7.99667 6.11 8.17 5.59C8.24333 5.37667 8.33 5.26 8.43 5.24C8.85667 5.12667 9.30667 5.04333 9.78 4.99L11.2 4.84L11.17 3.87C10.6767 3.77667 10.1833 3.7 9.69 3.64C9.20333 3.58667 8.71667 3.52 8.23 3.44L8.6 1.94L9.75 2.12C10.81 2.27333 11.65 2.46 12.27 2.68C12.5767 2.79333 12.73 3.01667 12.73 3.35L12.75 7.09L11.3 7.24L11.26 6.07L10.87 6.14C10.43 6.21333 10.0133 6.30667 9.62 6.42C9.56667 6.66 9.54 6.86 9.54 7.02C9.54 7.25333 9.55 7.43333 9.57 7.56C10.21 7.70667 11.2 7.85333 12.54 8L13.1 8.06ZM14.45 9.47L14.26 7.95C14.26 7.95 14.7467 7.92 15.72 7.86C16.1733 7.83333 16.6267 7.78667 17.08 7.72L17.13 6.86L14.73 5.92C14.59 5.86 14.4833 5.75333 14.41 5.6C14.3367 5.44 14.3 5.31667 14.3 5.23C14.3 5.13667 14.3 5.07667 14.3 5.05C14.3 5.02333 14.3067 4.96333 14.32 4.87L14.47 3.58C14.5167 3.21333 14.7 2.96 15.02 2.82C15.22 2.72667 15.4733 2.64333 15.78 2.57C16.4067 2.42333 16.8433 2.32667 17.09 2.28L17.76 2.14C17.9467 2.1 18.1167 2.06667 18.27 2.04L18.58 3.61L15.92 4L15.81 4.66L18.33 5.83C18.6367 5.97667 18.7667 6.25 18.72 6.65L18.54 8.29C18.4933 8.64333 18.2067 8.88 17.68 9C17.1133 9.15333 16.49 9.26667 15.81 9.34C15.1233 9.42 14.67 9.46333 14.45 9.47ZM20.16 9.47L19.97 7.95C19.97 7.95 20.4567 7.92 21.43 7.86C21.8833 7.83333 22.34 7.78667 22.8 7.72L22.84 6.86L20.44 5.92C20.3 5.86 20.1933 5.75333 20.12 5.6C20.0467 5.44 20.01 5.31667 20.01 5.23C20.01 5.13667 20.0133 5.07667 20.02 5.05C20.02 5.02333 20.0233 4.96333 20.03 4.87L20.18 3.58C20.2267 3.21333 20.4133 2.96 20.74 2.82C20.94 2.72667 21.1933 2.64333 21.5 2.57C22.12 2.42333 22.5567 2.32667 22.81 2.28L23.47 2.14C23.6633 2.1 23.8333 2.06667 23.98 2.04L24.3 3.61L21.63 4L21.52 4.66L24.05 5.83C24.35 5.97667 24.48 6.25 24.44 6.65L24.25 8.29C24.21 8.64333 23.9267 8.88 23.4 9C22.8333 9.15333 22.2067 9.26667 21.52 9.34C20.8333 9.42 20.38 9.46333 20.16 9.47ZM25.89 8.01L25.84 4.49C25.84 3.87667 25.9067 3.52333 26.04 3.43C26.1667 3.33 26.31 3.23333 26.47 3.14C26.63 3.04 26.8033 2.94333 26.99 2.85C27.1833 2.75 27.3833 2.65667 27.59 2.57C27.7967 2.48333 28 2.40667 28.2 2.34C28.6333 2.19333 28.9533 2.12 29.16 2.12C29.3733 2.12 29.5467 2.13 29.68 2.15C29.8133 2.17 29.9333 2.20333 30.04 2.25C30.2933 2.35667 30.4367 2.51 30.47 2.71C30.6167 3.66333 30.69 4.79667 30.69 6.11V6.52L27.42 6.56V7.45C27.7733 7.53667 28.1967 7.61667 28.69 7.69L29.86 7.88C30.16 7.92667 30.47 7.98 30.79 8.04L30.38 9.53C29.1267 9.33667 27.7967 9.02 26.39 8.58C26.07 8.47333 25.9033 8.28333 25.89 8.01ZM29.15 5.19V5.05C29.15 4.62333 29.1067 4.17 29.02 3.69C28.84 3.69 28.6967 3.7 28.59 3.72C28.4767 3.74 28.3667 3.76667 28.26 3.8C28.1467 3.82667 28.0333 3.86333 27.92 3.91C27.6533 4.00333 27.4767 4.08333 27.39 4.15V5.38L29.15 5.19ZM32.56 9.09L32.45 3.74L32.44 2.47L33.9 2.32L34.14 3.36L35.18 2.21H36L36.34 3.81C36.34 3.81 35.98 3.88667 35.26 4.04C34.92 4.11333 34.5667 4.19333 34.2 4.28L34.11 8.96L32.56 9.09ZM38.85 4.44V4.99C38.85 6.09 38.9067 7.04333 39.02 7.85L40.36 7.78C40.6067 6.80667 40.73 5.85333 40.73 4.92C40.73 4.54667 40.7067 4.21667 40.66 3.93C40.3867 3.79 39.42 3.72 37.76 3.72H37.41C37.3167 3.72 37.2133 3.72667 37.1 3.74L37.39 2.15C37.47 2.14333 37.5433 2.13667 37.61 2.13C37.67 2.12333 37.7367 2.12 37.81 2.12L38.01 2.11C38.0767 2.11 38.27 2.11 38.59 2.11C39.49 2.11 40.4767 2.23 41.55 2.47C41.8967 2.55667 42.1067 2.71 42.18 2.93C42.3 3.26333 42.36 3.81333 42.36 4.58C42.36 5.96667 42.1467 7.31 41.72 8.61C41.6867 8.73 41.6467 8.83 41.6 8.91C41.5533 8.99 41.47 9.04333 41.35 9.07C41.23 9.09667 41.09 9.12 40.93 9.14C40.77 9.16667 40.6133 9.18667 40.46 9.2C40.12 9.23333 39.8867 9.25 39.76 9.25C39.6333 9.25 39.4967 9.25 39.35 9.25C39.2033 9.25 39.0433 9.24333 38.87 9.23C38.4167 9.21 38.11 9.17 37.95 9.11C37.79 9.05667 37.6833 8.96 37.63 8.82C37.57 8.68667 37.5133 8.47 37.46 8.17C37.3333 7.46333 37.27 6.66333 37.27 5.77C37.27 5.42333 37.2767 5.08333 37.29 4.75L38.85 4.44ZM48.4 9.08C48.2067 9.03333 48.0533 8.97333 47.94 8.9C47.8267 8.82 47.7267 8.66333 47.64 8.43C47.5533 8.19667 47.47 7.88333 47.39 7.49C47.31 7.10333 47.2433 6.69333 47.19 6.26C47.0833 5.42667 47.03 4.71333 47.03 4.12C47.03 3.08667 47.0567 2.43333 47.11 2.16C47.1633 1.88667 47.22 1.67667 47.28 1.53C47.34 1.39 47.4167 1.26 47.51 1.14C47.69 0.926667 47.9367 0.763333 48.25 0.65C48.5633 0.53 48.9 0.433333 49.26 0.36C49.62 0.286667 50.0033 0.223333 50.41 0.17C51.2167 0.0700001 52.0867 0.0133333 53.02 0L53.27 1.65C51.6433 1.71667 50.34 1.85 49.36 2.05C49.16 2.09667 48.9933 2.14667 48.86 2.2C48.8067 2.50667 48.78 2.94667 48.78 3.52C48.78 4.08667 48.7867 4.52667 48.8 4.84C48.8133 5.15333 48.8333 5.47 48.86 5.79C48.92 6.49667 49.0133 7.1 49.14 7.6C49.2067 7.61333 49.2733 7.62 49.34 7.62C49.4067 7.62 49.5333 7.62 49.72 7.62C50.1467 7.62 50.5833 7.56667 51.03 7.46C51.2567 5.98 51.37 4.34333 51.37 2.55L53.07 2.66C53.0967 2.97333 53.11 3.25 53.11 3.49C53.11 3.73 53.1 3.98667 53.08 4.26C53.0667 4.53333 53.0467 4.81 53.02 5.09C52.9933 5.37 52.96 5.65 52.92 5.93C52.8867 6.21 52.85 6.47667 52.81 6.73C52.7767 6.98333 52.74 7.21667 52.7 7.43L52.61 7.96C52.53 8.33333 52.44 8.57 52.34 8.67C52.2467 8.77 52.1533 8.84 52.06 8.88C51.9733 8.92 51.86 8.95333 51.72 8.98C51.5867 9.00667 51.44 9.03 51.28 9.05C51.1133 9.07 50.9433 9.08667 50.77 9.1C50.59 9.11333 50.42 9.12667 50.26 9.14C49.9867 9.14667 49.7333 9.15 49.5 9.15C48.9533 9.15 48.5867 9.12667 48.4 9.08ZM55.14 9.09L55.02 2.5L56.48 2.32L56.72 3.36L57.92 2.32H59.6C59.6867 2.32 59.8067 2.38667 59.96 2.52C60.22 2.73333 60.35 2.92333 60.35 3.09L60.11 9.05L58.59 9.18L58.56 3.9C58.5067 3.88 58.4333 3.87 58.34 3.87C58.24 3.87 58.15 3.87667 58.07 3.89C57.99 3.89667 57.9067 3.91 57.82 3.93C57.6 3.96333 57.4233 4.00667 57.29 4.06L56.78 4.24L56.6 8.99L55.14 9.09ZM62.09 8.01L62.04 4.49C62.04 3.87667 62.1033 3.52333 62.23 3.43C62.3567 3.33 62.5 3.23333 62.66 3.14C62.82 3.04 62.9967 2.94333 63.19 2.85C63.3833 2.75 63.5833 2.65667 63.79 2.57C63.9967 2.48333 64.2 2.40667 64.4 2.34C64.8267 2.19333 65.1467 2.12 65.36 2.12C65.5733 2.12 65.7467 2.13 65.88 2.15C66.0067 2.17 66.1267 2.20333 66.24 2.25C66.4867 2.35667 66.6267 2.51 66.66 2.71C66.8133 3.66333 66.89 4.79667 66.89 6.11V6.52L63.61 6.56V7.45C63.97 7.53667 64.3933 7.61667 64.88 7.69L66.06 7.88C66.36 7.92667 66.6667 7.98 66.98 8.04L66.58 9.53C65.3267 9.33667 63.9967 9.02 62.59 8.58C62.2633 8.47333 62.0967 8.28333 62.09 8.01ZM65.35 5.19V5.05C65.35 4.62333 65.3067 4.17 65.22 3.69C65.04 3.69 64.8933 3.7 64.78 3.72C64.6733 3.74 64.5633 3.76667 64.45 3.8C64.3433 3.82667 64.2333 3.86333 64.12 3.91C63.8533 4.00333 63.6767 4.08333 63.59 4.15V5.38L65.35 5.19Z" fill="black"/>
</svg>
