<svg width="119.67" height="18.984" viewBox="0 0 119.67 18.984" xmlns="http://www.w3.org/2000/svg"><path transform="translate(0 14.98) scale(.014 -.014)" d="m85 700h233q111 0 167-52.5t56-156.5v-45q0-99-57-151t-166-52h-151v67h129q83 0 120.5 34.5t37.5 106.5v36q0 77-37.5 111.5t-120.5 34.5h-144l20 23v-656h-87z"/><path transform="translate(7.924 14.98) scale(.014 -.014)" d="m416 179v177q0 63-35 92t-112 29q-48 0-95.5-13.5t-89.5-38.5l-13 67q27 16 64 28.5t77 20 77 7.5q108 0 162-48t54-144v-356h-61zm-174-187q-87 0-136.5 40t-49.5 112v28q0 73 50 113t141 40q95 0 150.5-38.5t55.5-109.5v-31q0-72-56.5-113t-154.5-41zm24 57q68 0 108.5 29.5t40.5 77.5v14q0 47-38 72.5t-106 25.5q-63 0-97-23t-34-79v-13q0-50 33-77t93-27z"/><path transform="translate(16.044 14.98) scale(.014 -.014)" d="m259-8q-74 0-108.5 37t-34.5 115v390l26 136h62v-517q0-50 17.5-69.5t62.5-19.5q15 0 30.5 2t30.5 7l13-64q-15-5-31.5-8.5t-33.5-6-34-2.5zm-242 548h324v-67h-324z"/><path transform="translate(21.294 14.98) scale(.014 -.014)" d="m485 319q0 83-33.5 121.5t-105.5 38.5q-84 0-129-57t-45-165l-39-69 1 66q0 142 63 218t181 76q99 0 147-54.5t48-167.5v-326h-88zm-400 421h87v-740h-87z"/><path transform="translate(30.366 14.98) scale(.014 -.014)" d="M5 540H91L223 56H227L366 540H482L622 56H625L758 540H844L702 0H555L426 442H423L293 0H146Z"/><path transform="translate(42.238 14.98) scale(.014 -.014)" d="m416 179v177q0 63-35 92t-112 29q-48 0-95.5-13.5t-89.5-38.5l-13 67q27 16 64 28.5t77 20 77 7.5q108 0 162-48t54-144v-356h-61zm-174-187q-87 0-136.5 40t-49.5 112v28q0 73 50 113t141 40q95 0 150.5-38.5t55.5-109.5v-31q0-72-56.5-113t-154.5-41zm24 57q68 0 108.5 29.5t40.5 77.5v14q0 47-38 72.5t-106 25.5q-63 0-97-23t-34-79v-13q0-50 33-77t93-27z"/><path transform="translate(50.358 14.98) scale(.014 -.014)" d="m161-175 76 196-8-50-221 569h88l173-448h4l161 448h87l-267-731z"/><path transform="translate(61.32 14.98) scale(.014 -.014)" d="M152 70H507V0H85V700H503V630H152L172 685V349L152 382H483V316H152L172 349V15Z"/><path transform="translate(69.076 14.98) scale(.014 -.014)" d="M13 540H121L535 0H428ZM238 298 318 274 109 0H8ZM223 270 430 540H530L304 247Z"/><path transform="translate(76.692 14.98) scale(.014 -.014)" d="m259-8q-74 0-108.5 37t-34.5 115v390l26 136h62v-517q0-50 17.5-69.5t62.5-19.5q15 0 30.5 2t30.5 7l13-64q-15-5-31.5-8.5t-33.5-6-34-2.5zm-242 548h324v-67h-324z"/><path transform="translate(81.942 14.98) scale(.014 -.014)" d="m85 540h60l27-199v-341h-87zm60-243q0 123 48.5 187t139.5 64q16 0 33-2t33-6l-5-77q-30 8-65 8-77 0-117-50t-40-150z"/><path transform="translate(87.472 14.98) scale(.014 -.014)" d="m310-8q-78 0-132.5 26.5t-83.5 78-29 124.5v98q0 71 30.5 122.5t87 79 135.5 27.5q120 0 185-63.5t65-180.5v-61h-432v57h361l-13-23v47q0 73-44 113.5t-121 40.5q-79 0-122.5-41.5t-43.5-116.5v-107q0-75 42-114.5t119-39.5q69 0 111 27.5t53 78.5l83-5q-18-81-83.5-124.5t-167.5-43.5z"/><path transform="translate(96.32 14.98) scale(.014 -.014)" d="m873 321q0 81-33.5 119.5t-102.5 38.5q-83 0-126.5-57t-43.5-165l-40-69v66q0 142 62.5 218t180.5 76q97 0 144-54t47-167v-327h-88zm-788 219h60l27-186v-354h-87zm394-219q0 81-33.5 119.5t-103.5 38.5q-82 0-126-57t-44-165l-38-69v66q0 142 62 218t179 76q98 0 145-54.5t47-166.5v-327h-88z"/><path transform="translate(110.82 14.98) scale(.014 -.014)" d="m310-8q-78 0-132.5 26.5t-83.5 78-29 124.5v98q0 71 30.5 122.5t87 79 135.5 27.5q120 0 185-63.5t65-180.5v-61h-432v57h361l-13-23v47q0 73-44 113.5t-121 40.5q-79 0-122.5-41.5t-43.5-116.5v-107q0-75 42-114.5t119-39.5q69 0 111 27.5t53 78.5l83-5q-18-81-83.5-124.5t-167.5-43.5z"/></svg>