<svg width="91.084" height="19.544" viewBox="0 0 91.084 19.544" xmlns="http://www.w3.org/2000/svg"><path transform="translate(0 15.582) scale(.014 -.014)" d="m55 0v689h233q170 0 256.5-55.5t86.5-163.5q0-75-37.5-127.5t-105.5-80-160-27.5h-52v-235zm264 374q53 0 82 22t29 66q0 41-28 61.5t-81 20.5h-45v-170z"/><path transform="translate(9.058 15.582) scale(.014 -.014)" d="m271-8q-69 0-125 33.5t-88.5 92.5-32.5 135 32.5 133 88.5 89.5 125 32.5q49 0 95-27t71-89v109h208v-501h-210v93q-24-49-64-75t-100-26zm65 158q41 0 70 29.5t29 72.5-29 70.5-70 27.5q-43 0-72-29t-29-71 29-71 72-29z"/><path transform="translate(18.788 15.582) scale(.014 -.014)" d="m313-195q-38 0-71 5t-52 12l16 145q18-4 39-6.5t41-2.5q67 0 96.5 28t29.5 86v57q-24-61-68-88.5t-104-27.5q-93 0-144 67.5t-51 190.5v230h211v-241q0-89 63-89 39 0 62.5 32t23.5 84v214h211v-384q0-160-79-236t-224-76z"/><path transform="translate(28.112 15.582) scale(.014 -.014)" d="m264-8q-71 0-115.5 24t-64.5 65-20 92v204h-64v124h79l93 158h103v-158h116v-124h-116v-175q0-23 15-35.5t39-12.5 48 12l15-139q-24-17-61-26t-67-9z"/><path transform="translate(33.908 15.582) scale(.014 -.014)" d="m313-8q-85 0-150 33t-101.5 91.5-36.5 134.5q0 78 37.5 135.5t102.5 89.5 149 32q86 0 151-32.5t101-90 36-134.5-36.5-135.5-101.5-91-151-32.5zm2 150q41 0 67.5 30.5t26.5 78.5-26 78.5-66 30.5q-43 0-69.5-30.5t-26.5-78.5 26.5-78.5 67.5-30.5z"/><path transform="translate(42.686 15.582) scale(.014 -.014)" d="m50 0v501h208v-109q23 56 68.5 86t108.5 30q98 0 152-67.5t54-190.5v-250h-211v261q0 89-72 89-43 0-70-31.5t-27-84.5v-234z"/><path transform="translate(52.29 15.582) scale(.014 -.014)" d="m361 132q29 0 61.5 6t66.5 22l24-129q-37-19-80.5-29t-99.5-10q-101 0-169.5 33t-103.5 91-35 134q0 78 37.5 136t100.5 90 139 32q113 0 173-70.5t60-200.5l-298-38q33-67 124-67zm-140 159 157 33q-4 32-22 47.5t-45 15.5q-40 0-63.5-27.5t-26.5-68.5z"/><path transform="translate(62.678 15.582) scale(.014 -.014)" d="m394-16q-109 0-192 46t-129.5 127-46.5 186q0 106 46.5 187t129.5 127 192 46 192-45.5 129.5-126.5 46.5-188q0-105-46.5-186t-129.5-127-192-46zm0 182q63 0 103.5 49t40.5 129q0 54-18.5 95t-51 64.5-75.5 23.5q-63 0-103-50.5t-40-132.5q0-80 40-129t104-49z"/><path transform="translate(73.71 15.582) scale(.014 -.014)" d="m50 0v501h208v-109q23 56 68.5 86t108.5 30q98 0 152-67.5t54-190.5v-250h-211v261q0 89-72 89-43 0-70-31.5t-27-84.5v-234z"/><path transform="translate(83.314 15.582) scale(.014 -.014)" d="m361 132q29 0 61.5 6t66.5 22l24-129q-37-19-80.5-29t-99.5-10q-101 0-169.5 33t-103.5 91-35 134q0 78 37.5 136t100.5 90 139 32q113 0 173-70.5t60-200.5l-298-38q33-67 124-67zm-140 159 157 33q-4 32-22 47.5t-45 15.5q-40 0-63.5-27.5t-26.5-68.5z"/></svg>