<svg width="91" height="13" viewBox="0 0 91 13" fill="none" xmlns="http://www.w3.org/2000/svg">
<path d="M3.59 9.84H0.5V0.19H3.76C5.34667 0.19 6.54333 0.45 7.35 0.97C8.15667 1.49 8.56 2.25333 8.56 3.26C8.56 3.96 8.38667 4.55667 8.04 5.05C7.68667 5.53667 7.19333 5.90667 6.56 6.16C5.92667 6.42 5.18 6.55 4.32 6.55H3.59V9.84ZM3.59 4.6H4.2C4.69333 4.6 5.07333 4.5 5.34 4.3C5.61333 4.09333 5.75 3.78333 5.75 3.37C5.75 2.99 5.62 2.70333 5.36 2.51C5.1 2.31667 4.72 2.22 4.22 2.22H3.59V4.6ZM12.39 9.95C11.7433 9.95 11.16 9.79333 10.64 9.48C10.1133 9.16667 9.7 8.73667 9.4 8.19C9.09333 7.63667 8.94 7.00667 8.94 6.3C8.94 5.58667 9.09333 4.96667 9.4 4.44C9.7 3.90667 10.1133 3.48667 10.64 3.18C11.16 2.88 11.7433 2.73 12.39 2.73C12.8433 2.73 13.2867 2.85667 13.72 3.11C14.1467 3.35667 14.4767 3.77 14.71 4.35V2.83H17.62V9.84H14.68V8.54C14.46 8.99333 14.1633 9.34333 13.79 9.59C13.4167 9.83 12.95 9.95 12.39 9.95ZM13.3 7.74C13.68 7.74 14.0067 7.60333 14.28 7.33C14.5467 7.05 14.68 6.71 14.68 6.31C14.68 5.91 14.5467 5.58 14.28 5.32C14.0067 5.06667 13.68 4.94 13.3 4.94C12.8933 4.94 12.5567 5.07667 12.29 5.35C12.0167 5.61667 11.88 5.94667 11.88 6.34C11.88 6.73333 12.0167 7.06333 12.29 7.33C12.5567 7.60333 12.8933 7.74 13.3 7.74ZM22.7 12.57C22.3467 12.57 22.0167 12.5467 21.71 12.5C21.4033 12.4533 21.16 12.3967 20.98 12.33L21.21 10.3C21.3767 10.34 21.5567 10.37 21.75 10.39C21.95 10.4167 22.1433 10.43 22.33 10.43C22.95 10.43 23.4 10.3 23.68 10.04C23.9533 9.77333 24.09 9.37 24.09 8.83V8.03C23.8633 8.60333 23.5467 9.01667 23.14 9.27C22.7267 9.53 22.24 9.66 21.68 9.66C20.8133 9.66 20.1433 9.34333 19.67 8.71C19.19 8.08333 18.95 7.19667 18.95 6.05V2.83H21.91V6.2C21.91 7.03333 22.2033 7.45 22.79 7.45C23.15 7.45 23.44 7.3 23.66 7C23.88 6.7 23.99 6.30667 23.99 5.82V2.83H26.95V8.2C26.95 9.69333 26.58 10.7967 25.84 11.51C25.1 12.2167 24.0533 12.57 22.7 12.57ZM31.34 9.95C30.68 9.95 30.14 9.84 29.72 9.62C29.3067 9.39333 29.0067 9.09 28.82 8.71C28.6333 8.32333 28.54 7.89333 28.54 7.42V4.56H27.65V2.83H28.75L30.05 0.61H31.5V2.83H33.12V4.56H31.5V7.01C31.5 7.22333 31.57 7.39 31.71 7.51C31.85 7.62333 32.03 7.68 32.25 7.68C32.4767 7.68 32.7 7.62667 32.92 7.52L33.13 9.46C32.91 9.62 32.6267 9.74333 32.28 9.83C31.9333 9.91 31.62 9.95 31.34 9.95ZM37.68 9.95C36.8867 9.95 36.1867 9.79667 35.58 9.49C34.9733 9.18333 34.5 8.75667 34.16 8.21C33.82 7.66333 33.65 7.03667 33.65 6.33C33.65 5.59667 33.8267 4.96333 34.18 4.43C34.5267 3.89 35.0033 3.47333 35.61 3.18C36.2167 2.88 36.9133 2.73 37.7 2.73C38.5 2.73 39.2033 2.88 39.81 3.18C40.4167 3.48667 40.89 3.90667 41.23 4.44C41.5633 4.98 41.73 5.61 41.73 6.33C41.73 7.04333 41.56 7.67333 41.22 8.22C40.88 8.76667 40.4067 9.19333 39.8 9.5C39.1933 9.8 38.4867 9.95 37.68 9.95ZM37.71 7.85C38.0967 7.85 38.4133 7.71 38.66 7.43C38.9067 7.14333 39.03 6.77667 39.03 6.33C39.03 5.87667 38.9067 5.51 38.66 5.23C38.42 4.94333 38.1133 4.8 37.74 4.8C37.34 4.8 37.0167 4.94333 36.77 5.23C36.5233 5.51 36.4 5.87667 36.4 6.33C36.4 6.77667 36.5233 7.14333 36.77 7.43C37.0167 7.71 37.33 7.85 37.71 7.85ZM45.73 9.84H42.78V2.83H45.69V4.35C45.9033 3.83 46.2233 3.43 46.65 3.15C47.0767 2.87 47.5833 2.73 48.17 2.73C49.0833 2.73 49.7933 3.04333 50.3 3.67C50.8 4.30333 51.05 5.19333 51.05 6.34V9.84H48.1V6.19C48.1 5.35667 47.7633 4.94 47.09 4.94C46.69 4.94 46.3633 5.08667 46.11 5.38C45.8567 5.67333 45.73 6.06667 45.73 6.56V9.84ZM56.74 7.99C57.0067 7.99 57.2933 7.96333 57.6 7.91C57.9 7.85 58.21 7.74667 58.53 7.6L58.87 9.41C58.5233 9.58333 58.1467 9.71667 57.74 9.81C57.3333 9.90333 56.87 9.95 56.35 9.95C55.4033 9.95 54.61 9.79667 53.97 9.49C53.33 9.18333 52.8467 8.76 52.52 8.22C52.1933 7.67333 52.03 7.04667 52.03 6.34C52.03 5.61333 52.2067 4.98 52.56 4.44C52.9067 3.89333 53.3767 3.47333 53.97 3.18C54.5567 2.88 55.2033 2.73 55.91 2.73C56.9633 2.73 57.77 3.06 58.33 3.72C58.89 4.37333 59.17 5.30667 59.17 6.52L55 7.05C55.3067 7.67667 55.8867 7.99 56.74 7.99ZM54.78 5.77L56.98 5.3C56.94 5.00667 56.8367 4.78667 56.67 4.64C56.5033 4.49333 56.2933 4.42 56.04 4.42C55.6667 4.42 55.37 4.55 55.15 4.81C54.93 5.06333 54.8067 5.38333 54.78 5.77ZM67.59 10.06C66.57 10.06 65.6733 9.84667 64.9 9.42C64.1267 8.99333 63.5233 8.4 63.09 7.64C62.6567 6.88667 62.44 6.02 62.44 5.04C62.44 4.04667 62.6567 3.17333 63.09 2.42C63.5233 1.66667 64.1267 1.07333 64.9 0.64C65.6733 0.213334 66.57 0 67.59 0C68.6033 0 69.5 0.21 70.28 0.63C71.0533 1.05667 71.6567 1.65 72.09 2.41C72.5233 3.16333 72.74 4.04 72.74 5.04C72.74 6.02 72.5233 6.88667 72.09 7.64C71.6567 8.4 71.0533 8.99333 70.28 9.42C69.5 9.84667 68.6033 10.06 67.59 10.06ZM67.59 7.52C68.1767 7.52 68.66 7.29 69.04 6.83C69.4133 6.37 69.6 5.76667 69.6 5.02C69.6 4.52 69.5133 4.07667 69.34 3.69C69.1733 3.31 68.9367 3.01 68.63 2.79C68.33 2.57 67.9767 2.46 67.57 2.46C66.9833 2.46 66.5033 2.69667 66.13 3.17C65.7567 3.64333 65.57 4.26 65.57 5.02C65.57 5.76667 65.7567 6.37 66.13 6.83C66.5033 7.29 66.99 7.52 67.59 7.52ZM76.76 9.84H73.8V2.83H76.72V4.35C76.9333 3.83 77.25 3.43 77.67 3.15C78.0967 2.87 78.6033 2.73 79.19 2.73C80.11 2.73 80.82 3.04333 81.32 3.67C81.8267 4.30333 82.08 5.19333 82.08 6.34V9.84H79.12V6.19C79.12 5.35667 78.7867 4.94 78.12 4.94C77.7133 4.94 77.3867 5.08667 77.14 5.38C76.8867 5.67333 76.76 6.06667 76.76 6.56V9.84ZM87.76 7.99C88.0333 7.99 88.32 7.96333 88.62 7.91C88.9267 7.85 89.2367 7.74667 89.55 7.6L89.89 9.41C89.5433 9.58333 89.1667 9.71667 88.76 9.81C88.3533 9.90333 87.89 9.95 87.37 9.95C86.43 9.95 85.64 9.79667 85 9.49C84.36 9.18333 83.8767 8.76 83.55 8.22C83.2233 7.67333 83.06 7.04667 83.06 6.34C83.06 5.61333 83.2333 4.98 83.58 4.44C83.9333 3.89333 84.4033 3.47333 84.99 3.18C85.5767 2.88 86.2267 2.73 86.94 2.73C87.9933 2.73 88.8 3.06 89.36 3.72C89.92 4.37333 90.2 5.30667 90.2 6.52L86.03 7.05C86.3367 7.67667 86.9133 7.99 87.76 7.99ZM85.8 5.77L88 5.3C87.96 5.00667 87.8567 4.78667 87.69 4.64C87.5233 4.49333 87.3133 4.42 87.06 4.42C86.6867 4.42 86.39 4.55 86.17 4.81C85.95 5.06333 85.8267 5.38333 85.8 5.77Z" fill="black"/>
</svg>
