<svg width="132" height="11" viewBox="0 0 132 11" fill="none" xmlns="http://www.w3.org/2000/svg">
<path d="M0.63 6.43C0.636667 6.39667 0.656667 6.38333 0.69 6.39C0.716667 6.39 0.746667 6.38667 0.78 6.38C0.706667 6.30667 0.66 6.21 0.64 6.09C0.62 5.96333 0.573333 5.86 0.5 5.78C0.52 5.73333 0.536667 5.68667 0.55 5.64C0.563333 5.59333 0.603333 5.57667 0.67 5.59C0.643333 5.39 0.646667 5.20333 0.68 5.03C0.713333 4.85667 0.77 4.69 0.85 4.53C0.93 4.37667 1.02 4.22667 1.12 4.08C1.22667 3.92667 1.33 3.77333 1.43 3.62C1.51 3.6 1.56 3.60667 1.58 3.64C1.6 3.67333 1.63333 3.66667 1.68 3.62C1.82667 3.52 1.92667 3.40667 1.98 3.28C2.03333 3.16 2.06 3.02667 2.06 2.88C2.14 2.64 2.23333 2.40667 2.34 2.18C2.44667 1.94667 2.56667 1.73 2.7 1.53C2.84 1.33 2.98667 1.15333 3.14 1C3.29333 0.846667 3.46333 0.73 3.65 0.65C3.77667 0.543333 3.93667 0.443333 4.13 0.35C4.33 0.256667 4.54 0.186667 4.76 0.14C4.98667 0.0866665 5.21667 0.0599999 5.45 0.0599999C5.69 0.0533333 5.91 0.0766668 6.11 0.13C6.15667 0.15 6.18333 0.14 6.19 0.0999999C6.19667 0.0599999 6.22 0.04 6.26 0.04C6.71333 0.0933333 7.12 0.183333 7.48 0.31C7.84 0.436667 8.14667 0.613333 8.4 0.84C8.57333 1.11333 8.74 1.40667 8.9 1.72C9.05333 2.04 9.17333 2.37 9.26 2.71C9.34667 3.05 9.38667 3.40333 9.38 3.77C9.36667 4.13667 9.28667 4.5 9.14 4.86C8.82 5.26 8.43333 5.58333 7.98 5.83C7.52667 6.07 7.03667 6.27 6.51 6.43C5.98333 6.59 5.44 6.72 4.88 6.82C4.32 6.92 3.77667 7.03 3.25 7.15C3.25667 7.39 3.25667 7.65 3.25 7.93C3.24333 8.21 3.21333 8.49 3.16 8.77C3.11333 9.04333 3.04 9.31333 2.94 9.58C2.84667 9.84667 2.71667 10.0933 2.55 10.32C2.37 10.3067 2.18333 10.3233 1.99 10.37C1.79 10.4167 1.61333 10.4633 1.46 10.51C1.38667 10.4633 1.31667 10.42 1.25 10.38C1.17667 10.34 1.09 10.3133 0.99 10.3C1.02333 10.1933 1 10.08 0.92 9.96C0.84 9.84 0.763333 9.72333 0.69 9.61C0.61 9.49667 0.56 9.38333 0.54 9.27C0.513333 9.15667 0.563333 9.05333 0.69 8.96C0.616667 8.9 0.58 8.8 0.58 8.66C0.62 8.7 0.666667 8.72 0.72 8.72C0.7 8.55333 0.72 8.35667 0.78 8.13C0.84 7.90333 0.89 7.67667 0.93 7.45C0.97 7.23 0.976667 7.02667 0.95 6.84C0.923333 6.65333 0.816667 6.51667 0.63 6.43ZM4.18 3.24C4.14667 3.34 4.11667 3.42667 4.09 3.5C4.07 3.58 4.04667 3.65 4.02 3.71C3.98667 3.77667 3.95667 3.84333 3.93 3.91C3.89667 3.97 3.86 4.04 3.82 4.12C3.84 4.18 3.87667 4.22333 3.93 4.25C3.99 4.27667 4.02667 4.31667 4.04 4.37C4.16667 4.30333 4.29667 4.25667 4.43 4.23C4.55667 4.19667 4.68333 4.17 4.81 4.15C4.93667 4.13 5.06333 4.10667 5.19 4.08C5.31667 4.05333 5.45 4.01 5.59 3.95C5.72333 3.88333 5.86667 3.83 6.02 3.79C6.16667 3.75 6.31333 3.70667 6.46 3.66C6.60667 3.61333 6.75 3.56 6.89 3.5C7.02333 3.44 7.14 3.36 7.24 3.26C7.11333 3.14 6.92333 3.03667 6.67 2.95C6.41667 2.85667 6.14 2.8 5.84 2.78C5.54667 2.75333 5.25 2.77333 4.95 2.84C4.65667 2.9 4.4 3.03333 4.18 3.24ZM16.59 2.59C16.6033 2.65667 16.6067 2.70667 16.6 2.74C16.5933 2.76667 16.59 2.79667 16.59 2.83C16.5833 2.85667 16.58 2.88333 16.58 2.91C16.58 2.94333 16.59 2.99333 16.61 3.06C16.4167 3.36667 16.1933 3.57667 15.94 3.69C15.6933 3.80333 15.4233 3.88667 15.13 3.94C14.8367 3.98667 14.54 4.04 14.24 4.1C13.9333 4.15333 13.63 4.27 13.33 4.45C13.21 4.40333 13.1033 4.40333 13.01 4.45C12.91 4.49667 12.77 4.51 12.59 4.49C12.5367 4.55 12.4667 4.59 12.38 4.61C12.3 4.63 12.22 4.65333 12.14 4.68C12.1733 4.76667 12.1867 4.85333 12.18 4.94C12.18 5.02667 12.1933 5.09667 12.22 5.15C12.54 5.17667 12.8933 5.17333 13.28 5.14C13.6667 5.1 14.0467 5.07667 14.42 5.07C14.4267 5.11667 14.4233 5.14667 14.41 5.16C14.39 5.17333 14.3833 5.19667 14.39 5.23C14.4567 5.27667 14.52 5.33333 14.58 5.4C14.6467 5.46667 14.7133 5.53333 14.78 5.6C14.84 5.66667 14.9033 5.72 14.97 5.76C15.0433 5.8 15.1233 5.81667 15.21 5.81C15.25 5.88333 15.2767 5.96 15.29 6.04C15.3033 6.12667 15.29 6.21667 15.25 6.31C15.11 6.41 14.9667 6.51333 14.82 6.62C14.6733 6.72667 14.52 6.82 14.36 6.9C14.2 6.98 14.03 7.04667 13.85 7.1C13.6767 7.14667 13.48 7.16667 13.26 7.16C13.2133 7.16 13.18 7.16 13.16 7.16C13.1333 7.16 13.1033 7.14667 13.07 7.12C12.9967 7.16667 12.8933 7.18 12.76 7.16C12.6267 7.14 12.5233 7.15333 12.45 7.2C12.35 7.15333 12.23 7.13333 12.09 7.14C11.95 7.14667 11.8233 7.13 11.71 7.09C11.5633 7.28333 11.4333 7.49 11.32 7.71C11.2 7.92333 11.0933 8.15333 11 8.4C11.3133 8.44667 11.57 8.46667 11.77 8.46C11.9767 8.44667 12.1733 8.43 12.36 8.41C12.54 8.39 12.7267 8.36667 12.92 8.34C13.1067 8.32 13.3467 8.31333 13.64 8.32C13.82 8.22 14.0367 8.15333 14.29 8.12C14.5433 8.09333 14.7733 8.04333 14.98 7.97C15.0533 7.99667 15.1167 8.04333 15.17 8.11C15.2233 8.17667 15.2767 8.24 15.33 8.3C15.3767 8.36 15.43 8.41333 15.49 8.46C15.5433 8.50667 15.61 8.52333 15.69 8.51C15.73 8.55 15.7567 8.59333 15.77 8.64C15.7833 8.69333 15.7933 8.74333 15.8 8.79C15.8067 8.83 15.8233 8.86667 15.85 8.9C15.87 8.93333 15.91 8.94667 15.97 8.94C15.83 9.24 15.67 9.47 15.49 9.63C15.3167 9.79 15.1167 9.91 14.89 9.99C14.6567 10.07 14.4033 10.1333 14.13 10.18C13.85 10.2267 13.54 10.28 13.2 10.34C13.12 10.36 13.0533 10.36 13 10.34C12.9467 10.3133 12.8833 10.3 12.81 10.3C12.5967 10.3467 12.3433 10.39 12.05 10.43C11.7633 10.4633 11.47 10.4767 11.17 10.47C10.87 10.4567 10.58 10.4167 10.3 10.35C10.0267 10.2833 9.80667 10.1633 9.64 9.99C9.56667 9.92333 9.51667 9.84667 9.49 9.76C9.47 9.67333 9.41 9.61 9.31 9.57C9.29667 9.45 9.27667 9.31667 9.25 9.17C9.22333 9.02333 9.19667 8.87 9.17 8.71C9.14333 8.55 9.12333 8.39333 9.11 8.24C9.09667 8.08667 9.10333 7.94667 9.13 7.82C9.15667 7.68 9.21333 7.55667 9.3 7.45C9.38667 7.33667 9.41667 7.21667 9.39 7.09C9.43667 7.08333 9.46333 7.06 9.47 7.02C9.47667 6.97333 9.51333 6.95667 9.58 6.97C9.63333 6.80333 9.69333 6.64667 9.76 6.5C9.82 6.35333 9.88667 6.21333 9.96 6.08C10.0267 5.94 10.0933 5.8 10.16 5.66C10.2267 5.52 10.2933 5.36333 10.36 5.19C10.2333 5.07 10.14 4.94 10.08 4.8C10.02 4.66 9.97667 4.52 9.95 4.38C9.92333 4.24 9.9 4.09333 9.88 3.94C9.86 3.78667 9.83 3.63333 9.79 3.48C9.87667 3.34667 9.98667 3.23667 10.12 3.15C10.2533 3.06333 10.3967 2.99 10.55 2.93C10.7033 2.87667 10.8733 2.83333 11.06 2.8C11.24 2.76 11.43 2.71667 11.63 2.67C11.9967 2.55667 12.3233 2.46667 12.61 2.4C12.8967 2.34 13.18 2.28667 13.46 2.24C13.7333 2.2 14.02 2.16333 14.32 2.13C14.6267 2.09 14.97 2.03333 15.35 1.96C15.43 2.04667 15.5067 2.09 15.58 2.09C15.62 2.00333 15.6633 1.97667 15.71 2.01C15.7633 2.04333 15.7833 2.02 15.77 1.94C15.8633 2.09333 15.98 2.22333 16.12 2.33C16.26 2.43 16.4167 2.51667 16.59 2.59ZM18.33 8.87C18.23 9.23667 18.14 9.51333 18.06 9.7C17.9867 9.88667 17.8733 10.08 17.72 10.28C17.6 10.26 17.5167 10.2733 17.47 10.32C17.4233 10.3667 17.3733 10.4067 17.32 10.44C17.24 10.46 17.18 10.46 17.14 10.44C17.1067 10.42 17.0767 10.4 17.05 10.38C17.0167 10.3533 16.98 10.33 16.94 10.31C16.9 10.29 16.84 10.28 16.76 10.28C16.74 10.2067 16.72 10.1367 16.7 10.07C16.6733 10.01 16.61 9.98667 16.51 10C16.53 9.92667 16.5367 9.86667 16.53 9.82C16.5167 9.76667 16.5033 9.72 16.49 9.68C16.4767 9.64 16.4667 9.6 16.46 9.56C16.4467 9.52 16.45 9.46667 16.47 9.4C16.4233 9.4 16.3867 9.37 16.36 9.31C16.3333 9.24333 16.3033 9.17667 16.27 9.11C16.2967 8.95 16.3233 8.79667 16.35 8.65C16.3767 8.50333 16.41 8.36667 16.45 8.24C16.49 8.11333 16.5233 7.98667 16.55 7.86C16.5767 7.73333 16.5633 7.6 16.51 7.46C16.55 7.48667 16.5767 7.48 16.59 7.44C16.61 7.4 16.6267 7.34667 16.64 7.28C16.6467 7.20667 16.65 7.13667 16.65 7.07C16.65 7.00333 16.6467 6.94667 16.64 6.9C16.7267 6.66 16.8 6.41667 16.86 6.17C16.92 5.91667 16.9733 5.66667 17.02 5.42C17.0733 5.17333 17.1267 4.93333 17.18 4.7C17.2333 4.46 17.3067 4.24 17.4 4.04C17.5 4.02 17.6133 4.03333 17.74 4.08C17.86 4.12 17.9333 4.17 17.96 4.23C18.2 4.05 18.41 3.83 18.59 3.57C18.77 3.31 18.9567 3.05667 19.15 2.81C19.3433 2.56333 19.5567 2.34667 19.79 2.16C20.0233 1.96667 20.3167 1.85 20.67 1.81C20.85 1.95 21.0533 2.09 21.28 2.23C21.5 2.37 21.6833 2.55333 21.83 2.78C21.9033 2.82 21.9633 2.86 22.01 2.9C22.0633 2.94 22.1267 2.98333 22.2 3.03V3.19C22.3067 3.29 22.3967 3.40667 22.47 3.54C22.5367 3.67333 22.5967 3.81667 22.65 3.97C22.7033 4.11667 22.7567 4.26667 22.81 4.42C22.87 4.56667 22.9367 4.71 23.01 4.85C22.99 4.89667 22.98 4.93333 22.98 4.96C22.98 4.99333 22.9867 5.03 23 5.07C23.0133 5.10333 23.0233 5.14 23.03 5.18C23.0433 5.21333 23.0433 5.26333 23.03 5.33C23.0033 5.73 22.8733 6.05333 22.64 6.3C22.4133 6.54667 22.1333 6.75 21.8 6.91C21.4733 7.07 21.1233 7.20333 20.75 7.31C20.3767 7.41667 20.04 7.53667 19.74 7.67C19.74 7.70333 19.7567 7.72 19.79 7.72C19.8167 7.72 19.8267 7.74333 19.82 7.79C20.04 7.92333 20.2133 8.03333 20.34 8.12C20.4667 8.2 20.5867 8.26667 20.7 8.32C20.8133 8.37333 20.9367 8.42 21.07 8.46C21.2033 8.50667 21.39 8.55667 21.63 8.61C21.8633 8.66333 22.0467 8.70667 22.18 8.74C22.3133 8.77333 22.4333 8.8 22.54 8.82C22.6533 8.84 22.7667 8.85667 22.88 8.87C22.9933 8.89 23.1533 8.90667 23.36 8.92C23.44 9.00667 23.51 9.10667 23.57 9.22C23.63 9.33333 23.67 9.44667 23.69 9.56C23.71 9.67333 23.7133 9.78333 23.7 9.89C23.6933 9.99 23.6633 10.0733 23.61 10.14C23.6167 10.1667 23.6367 10.1767 23.67 10.17C23.7033 10.17 23.7367 10.1733 23.77 10.18C23.7167 10.22 23.6733 10.2667 23.64 10.32C23.6 10.3733 23.5633 10.4267 23.53 10.48C23.49 10.5333 23.4467 10.58 23.4 10.62C23.3533 10.6667 23.29 10.6933 23.21 10.7C22.93 10.8067 22.5733 10.8133 22.14 10.72C21.7133 10.6267 21.1733 10.45 20.52 10.19C20.1933 10.0633 19.9267 9.95333 19.72 9.86C19.5133 9.76667 19.3333 9.67 19.18 9.57C19.0333 9.47667 18.8967 9.37333 18.77 9.26C18.65 9.15333 18.5033 9.02333 18.33 8.87ZM20.29 4.18C20.19 4.32667 20.0767 4.46 19.95 4.58C19.83 4.69333 19.71 4.81333 19.59 4.94C19.4767 5.06 19.3767 5.19667 19.29 5.35C19.1967 5.49667 19.1333 5.67 19.1 5.87C19.4133 5.83667 19.7433 5.75 20.09 5.61C20.4367 5.47 20.7667 5.33333 21.08 5.2C21.04 4.92 20.94 4.69333 20.78 4.52C20.6267 4.34667 20.4633 4.23333 20.29 4.18ZM33.16 10.04C33.0733 10.0867 32.99 10.13 32.91 10.17C32.8367 10.2033 32.7467 10.22 32.64 10.22C32.2867 9.96 32.1033 9.5 32.09 8.84C32.0767 8.18667 32.2167 7.35333 32.51 6.34C32.5567 6.31333 32.58 6.25667 32.58 6.17L32.45 6.04C32.4167 6.04 32.3833 6.04333 32.35 6.05C32.3167 6.06333 32.2933 6.09667 32.28 6.15C32.04 6.32333 31.78 6.50333 31.5 6.69C31.2133 6.87667 30.9167 7.05 30.61 7.21C30.31 7.37 30 7.5 29.68 7.6C29.3667 7.7 29.06 7.75 28.76 7.75C27.9933 7.75 27.42 7.36 27.04 6.58L26.93 6.38L26.82 6.56C26.7933 6.59333 26.7533 6.66667 26.7 6.78C26.6467 6.89333 26.59 7.02333 26.53 7.17C26.4767 7.31667 26.43 7.46667 26.39 7.62C26.35 7.76667 26.3333 7.89667 26.34 8.01C26.26 8.09 26.1733 8.18333 26.08 8.29C25.9933 8.40333 25.9267 8.52667 25.88 8.66C25.86 8.73333 25.8667 8.80333 25.9 8.87C25.8867 8.95 25.8467 9.01333 25.78 9.06C25.7467 9.10667 25.71 9.15 25.67 9.19C25.6233 9.23 25.5867 9.27333 25.56 9.32C25.5467 9.36667 25.5367 9.41333 25.53 9.46C25.5233 9.5 25.5167 9.54333 25.51 9.59C25.51 9.65667 25.5 9.71667 25.48 9.77C25.3267 10.09 25.2033 10.2967 25.11 10.39C25.0167 10.49 24.8933 10.54 24.74 10.54C24.6667 10.54 24.55 10.5267 24.39 10.5C24.27 10.3667 24.1633 10.19 24.07 9.97C23.97 9.74333 23.8967 9.50333 23.85 9.25C23.7967 8.99667 23.7733 8.74 23.78 8.48C23.7867 8.22 23.83 7.99333 23.91 7.8C23.91 7.79333 23.9467 7.70333 24.02 7.53C24.0933 7.35667 24.1867 7.13333 24.3 6.86C24.4133 6.58667 24.5433 6.28333 24.69 5.95C24.8367 5.61667 24.9833 5.29333 25.13 4.98C25.27 4.66667 25.4067 4.37667 25.54 4.11C25.6733 3.84333 25.7867 3.64333 25.88 3.51C25.9533 3.39667 26.02 3.29333 26.08 3.2C26.1333 3.10667 26.19 3.01333 26.25 2.92C26.41 2.64 26.5667 2.40667 26.72 2.22C26.8667 2.03333 27.0867 1.88333 27.38 1.77C27.58 1.85667 27.7267 1.95333 27.82 2.06L27.85 2.21C27.8833 2.30333 27.9367 2.35 28.01 2.35C28.11 2.37667 28.1933 2.4 28.26 2.42C28.3333 2.44667 28.41 2.46667 28.49 2.48C28.55 2.55333 28.61 2.64 28.67 2.74C28.7433 2.85333 28.8133 2.96 28.88 3.06C28.9467 3.16667 29 3.27333 29.04 3.38C29.08 3.48667 29.1033 3.59333 29.11 3.7C29.1167 3.80667 29.0967 3.92 29.05 4.04L29.06 4.18C29.1067 4.26 29.1167 4.37333 29.09 4.52C29.0833 4.58667 29.08 4.65333 29.08 4.72C29.08 4.78667 29.0867 4.86 29.1 4.94C29.2667 5.07333 29.4133 5.14 29.54 5.14C29.6867 5.14 29.82 5.10333 29.94 5.03C30.0667 4.96333 30.1833 4.89333 30.29 4.82C30.3633 4.76667 30.4367 4.72 30.51 4.68C30.5833 4.64 30.6567 4.61333 30.73 4.6C30.8967 4.44667 31.0467 4.31 31.18 4.19C31.3067 4.07 31.4433 3.95333 31.59 3.84C31.8633 3.62 32.13 3.38333 32.39 3.13C32.6433 2.87 32.8467 2.55 33 2.17C33.0933 2.11667 33.19 2.09 33.29 2.09C33.39 2.09 33.4933 2.11333 33.6 2.16C33.7133 2.2 33.82 2.24333 33.92 2.29C33.9467 2.31 33.97 2.32333 33.99 2.33C34.0167 2.34333 34.0367 2.35333 34.05 2.36C34.05 2.45333 34.0867 2.53 34.16 2.59C34.2 2.61667 34.2233 2.63667 34.23 2.65C34.2367 2.65667 34.25 2.66333 34.27 2.67C34.41 2.74333 34.4967 2.81667 34.53 2.89C34.5967 3.10333 34.71 3.26333 34.87 3.37C34.8567 3.46333 34.86 3.54667 34.88 3.62C34.9 3.7 34.93 3.78 34.97 3.86C34.9767 3.89333 34.9867 3.92333 35 3.95C35.0067 3.97667 35.02 4.00667 35.04 4.04L34.78 4.01L34.82 4.27C34.84 4.40333 34.8267 4.54667 34.78 4.7C34.74 4.85333 34.6933 4.97667 34.64 5.07C34.6467 5.30333 34.6533 5.48667 34.66 5.62C34.6667 5.75333 34.66 5.87667 34.64 5.99C34.62 6.10333 34.5967 6.21 34.57 6.31C34.5367 6.41 34.4933 6.52 34.44 6.64C34.4733 7.22 34.4067 7.75 34.24 8.23C34.0667 8.71 33.89 9.16 33.71 9.58C33.69 9.62667 33.67 9.67333 33.65 9.72C33.63 9.76 33.61 9.80333 33.59 9.85C33.51 9.87667 33.4367 9.90667 33.37 9.94C33.3033 9.97333 33.2333 10.0067 33.16 10.04ZM42.37 9.09L42.34 9.14C42.2867 9.29333 42.2067 9.45 42.1 9.61C41.9933 9.77 41.87 9.91333 41.73 10.04C41.59 10.16 41.4333 10.26 41.26 10.34C41.0867 10.4267 40.9033 10.4733 40.71 10.48C40.59 10.4533 40.51 10.4233 40.47 10.39C40.43 10.3567 40.3867 10.3267 40.34 10.3C40.3133 10.2867 40.29 10.2733 40.27 10.26C40.2433 10.2467 40.2233 10.2333 40.21 10.22L40.04 10.15L40.1 9.98C40.1133 9.90667 40.1067 9.84667 40.08 9.8C40.0533 9.76 40 9.70333 39.92 9.63C39.8933 9.60333 39.8667 9.57667 39.84 9.55C39.8133 9.52333 39.79 9.49667 39.77 9.47L39.54 9.21L39.9 9.11C40.1333 9.05 40.2867 8.97 40.36 8.87C40.44 8.77 40.47 8.6 40.45 8.36C40.27 8.32667 40.1167 8.32333 39.99 8.35C39.87 8.37667 39.7467 8.40667 39.62 8.44C39.4533 8.48667 39.2867 8.52667 39.12 8.56C38.9533 8.59333 38.7667 8.61 38.56 8.61C38.4933 8.61 38.4267 8.60667 38.36 8.6C38.2933 8.59333 38.2233 8.58667 38.15 8.58L38.02 8.55C38 8.45 37.98 8.39333 37.96 8.38C37.9467 8.36667 37.93 8.35 37.91 8.33C37.8633 8.29 37.8133 8.23 37.76 8.15C37.7133 8.07 37.7033 7.97333 37.73 7.86C37.6833 7.77333 37.6567 7.69 37.65 7.61C37.5967 7.71667 37.5567 7.83 37.53 7.95L37.47 8.09L37.33 8.12C37.3167 8.12667 37.3033 8.14667 37.29 8.18C37.2833 8.21333 37.28 8.23667 37.28 8.25L37.21 8.49C37.19 8.50333 37.1733 8.51667 37.16 8.53C37.14 8.54333 37.12 8.56 37.1 8.58C37.08 8.66 37.0567 8.74333 37.03 8.83C37.0033 8.91 36.9767 8.98667 36.95 9.06C36.9033 9.18 36.8667 9.29667 36.84 9.41C36.8067 9.52333 36.7933 9.63333 36.8 9.74L36.75 9.89C36.7033 9.95 36.6533 9.99333 36.6 10.02C36.54 10.0533 36.4833 10.0833 36.43 10.11C36.41 10.13 36.3867 10.1467 36.36 10.16C36.3267 10.1733 36.3 10.1833 36.28 10.19L36.24 10.34L36.08 10.37C35.98 10.39 35.9067 10.4033 35.86 10.41C35.82 10.4233 35.7733 10.43 35.72 10.43L35.58 10.41C35.48 10.33 35.4033 10.2633 35.35 10.21C35.2967 10.1633 35.2333 10.1167 35.16 10.07C35.08 9.96333 35.0333 9.88333 35.02 9.83C35.0133 9.77 35.0067 9.71667 35 9.67C34.98 9.61667 34.9667 9.57333 34.96 9.54C34.96 9.5 34.95 9.47333 34.93 9.46L34.75 9.29L34.9 9.17L34.91 8.94C35.0967 8.47333 35.2933 8.02667 35.5 7.6C35.7 7.16667 35.91 6.72667 36.13 6.28C36.2033 6.14 36.2733 5.99667 36.34 5.85C36.4133 5.70333 36.4833 5.55667 36.55 5.41C36.5433 5.38333 36.54 5.35 36.54 5.31C36.54 5.27667 36.55 5.23667 36.57 5.19C36.67 5.03667 36.75 4.89667 36.81 4.77C36.8767 4.65 36.9433 4.52667 37.01 4.4C37.0833 4.24667 37.1567 4.09667 37.23 3.95C37.31 3.80333 37.41 3.65333 37.53 3.5L37.74 3.4C37.7733 3.39333 37.8067 3.38333 37.84 3.37C37.8733 3.35 37.9133 3.34 37.96 3.34L38.17 3.37C38.4233 3.25 38.6467 3.08333 38.84 2.87C39.0333 2.65667 39.23 2.4 39.43 2.1L39.56 1.91L39.74 2.02C39.7867 2.04667 39.85 2.07 39.93 2.09C40.01 2.11667 40.0967 2.14333 40.19 2.17C40.3567 2.20333 40.5133 2.24333 40.66 2.29C40.8067 2.33667 40.9233 2.40667 41.01 2.5C41.0633 2.64667 41.0967 2.75667 41.11 2.83C41.1167 2.89667 41.13 2.96667 41.15 3.04C41.1767 3.2 41.2 3.35667 41.22 3.51C41.2467 3.66333 41.2633 3.83667 41.27 4.03C41.3167 4.18333 41.3567 4.33667 41.39 4.49C41.4233 4.63667 41.4533 4.78667 41.48 4.94C41.5267 5.16 41.57 5.37333 41.61 5.58C41.6567 5.78667 41.7167 5.98 41.79 6.16C41.8633 6.16 41.91 6.16333 41.93 6.17C41.9767 6.15667 42.0233 6.14333 42.07 6.13C42.1233 6.12333 42.18 6.11667 42.24 6.11L42.39 6.09L42.45 6.23C42.4567 6.27667 42.5 6.32333 42.58 6.37C42.7 6.37667 42.7867 6.4 42.84 6.44C42.9 6.48 42.95 6.52333 42.99 6.57C43.03 6.61 43.0667 6.63667 43.1 6.65L43.31 6.74L43.2 6.94C43.1067 7.10667 42.9767 7.26333 42.81 7.41C42.6433 7.56333 42.4533 7.69 42.24 7.79C42.2533 7.84333 42.26 7.89667 42.26 7.95C42.2667 7.99667 42.28 8.04667 42.3 8.1C42.3267 8.25333 42.35 8.41333 42.37 8.58C42.3833 8.74667 42.3833 8.91667 42.37 9.09ZM38.39 6.78C38.6633 6.76 38.91 6.73667 39.13 6.71C39.3567 6.69 39.6067 6.65333 39.88 6.6C39.8133 6.32667 39.7433 6.04 39.67 5.74C39.5967 5.44667 39.52 5.15333 39.44 4.86L39.36 5C39.1733 5.19333 38.9967 5.40667 38.83 5.64C38.6633 5.88 38.52 6.10333 38.4 6.31C38.3467 6.39 38.2933 6.47333 38.24 6.56C38.18 6.64 38.13 6.72 38.09 6.8C38.1433 6.79333 38.1933 6.79 38.24 6.79C38.2933 6.79 38.3433 6.78667 38.39 6.78ZM46.04 7.8C45.96 7.82 45.9033 7.87 45.87 7.95C45.83 8.02333 45.7933 8.1 45.76 8.18C45.7333 8.26667 45.7033 8.34333 45.67 8.41C45.6367 8.47667 45.5867 8.51 45.52 8.51C45.5133 8.58333 45.49 8.64667 45.45 8.7C45.41 8.76 45.37 8.81667 45.33 8.87C45.2967 8.93 45.27 8.99667 45.25 9.07C45.23 9.13667 45.24 9.21667 45.28 9.31C45.2067 9.36333 45.16 9.44 45.14 9.54C45.12 9.64 45.1 9.73667 45.08 9.83C45.06 9.91667 45.02 9.99333 44.96 10.06C44.9067 10.12 44.8067 10.1467 44.66 10.14C44.6333 10.1733 44.63 10.1967 44.65 10.21C44.67 10.2167 44.6833 10.2467 44.69 10.3C44.59 10.2867 44.5133 10.2933 44.46 10.32C44.4133 10.3533 44.3533 10.3767 44.28 10.39C44.1067 10.33 43.9633 10.2333 43.85 10.1C43.7367 9.96 43.6367 9.80667 43.55 9.64C43.4633 9.47333 43.3867 9.30333 43.32 9.13C43.2467 8.95667 43.18 8.80667 43.12 8.68C43.1467 8.58 43.15 8.48 43.13 8.38C43.11 8.28667 43.08 8.20667 43.04 8.14C43.4867 7.19333 43.9733 6.18333 44.5 5.11C45.0267 4.03667 45.5267 2.97333 46 1.92C46.2133 2.00667 46.42 2.1 46.62 2.2C46.8267 2.30667 47.0133 2.43 47.18 2.57C47.3533 2.70333 47.5 2.86 47.62 3.04C47.7333 3.21333 47.81 3.41 47.85 3.63C47.83 3.68333 47.81 3.70333 47.79 3.69C47.7633 3.67667 47.74 3.68333 47.72 3.71C47.76 3.75667 47.7833 3.79 47.79 3.81C47.79 3.83 47.79 3.84667 47.79 3.86C47.7833 3.88 47.78 3.90667 47.78 3.94C47.78 3.97333 47.7933 4.01667 47.82 4.07C47.7867 4.06333 47.7633 4.06667 47.75 4.08C47.73 4.1 47.7 4.1 47.66 4.08C47.6933 4.18 47.7033 4.26333 47.69 4.33C47.6767 4.39 47.6567 4.44667 47.63 4.5C47.6033 4.55333 47.58 4.60667 47.56 4.66C47.54 4.72 47.5433 4.79667 47.57 4.89C47.5433 4.89 47.5233 4.89667 47.51 4.91C47.4967 4.92333 47.4867 4.93667 47.48 4.95C47.4733 4.96333 47.46 4.97667 47.44 4.99C47.4267 5.00333 47.4067 5.00667 47.38 5C47.4067 5.2 47.4167 5.4 47.41 5.6C47.4033 5.8 47.3967 6.00333 47.39 6.21C47.3833 6.41667 47.3867 6.63 47.4 6.85C47.4067 7.07667 47.4367 7.30667 47.49 7.54C47.8167 7.34667 48.08 7.1 48.28 6.8C48.4733 6.5 48.6333 6.16333 48.76 5.79C48.88 5.41667 48.9733 5.01667 49.04 4.59C49.1 4.16333 49.1667 3.72667 49.24 3.28C49.3267 3.19333 49.39 3.09333 49.43 2.98C49.4767 2.86 49.52 2.73333 49.56 2.6C49.5933 2.46667 49.63 2.33333 49.67 2.2C49.7033 2.06667 49.7467 1.94667 49.8 1.84C49.94 1.86 50.0567 1.90333 50.15 1.97C50.25 2.03667 50.34 2.11 50.42 2.19C50.5 2.27 50.5867 2.34333 50.68 2.41C50.7667 2.47667 50.88 2.52 51.02 2.54C51.1267 2.69333 51.2267 2.84333 51.32 2.99C51.4133 3.13667 51.4733 3.29 51.5 3.45C51.4533 3.52333 51.42 3.60667 51.4 3.7C51.3733 3.79333 51.3467 3.88333 51.32 3.97C51.2933 4.06333 51.2567 4.15 51.21 4.23C51.1633 4.30333 51.1 4.36667 51.02 4.42C50.9933 4.66 50.96 4.87667 50.92 5.07C50.88 5.27 50.8367 5.46667 50.79 5.66C50.75 5.84667 50.7167 6.04333 50.69 6.25C50.6633 6.45667 50.6533 6.68333 50.66 6.93C50.5867 7.13667 50.51 7.36 50.43 7.6C50.35 7.83333 50.2867 8.04667 50.24 8.24C50.0933 8.36 49.98 8.5 49.9 8.66C49.82 8.82667 49.7333 8.99333 49.64 9.16C49.6 9.19333 49.5767 9.2 49.57 9.18C49.5633 9.16667 49.53 9.15333 49.47 9.14C49.4833 9.18 49.4833 9.20667 49.47 9.22C49.4633 9.24 49.4533 9.25667 49.44 9.27C49.4267 9.28333 49.4167 9.30333 49.41 9.33C49.41 9.35667 49.4167 9.39333 49.43 9.44C49.3033 9.49333 49.19 9.57 49.09 9.67C48.99 9.77667 48.8833 9.87 48.77 9.95C48.6567 10.03 48.52 10.0833 48.36 10.11C48.2 10.1367 47.9933 10.1067 47.74 10.02C47.3667 9.74667 47.0367 9.43 46.75 9.07C46.4633 8.71667 46.2267 8.29333 46.04 7.8ZM58.77 2.59C58.7833 2.65667 58.7867 2.70667 58.78 2.74C58.7733 2.76667 58.7667 2.79667 58.76 2.83C58.76 2.85667 58.76 2.88333 58.76 2.91C58.76 2.94333 58.77 2.99333 58.79 3.06C58.5967 3.36667 58.3733 3.57667 58.12 3.69C57.8733 3.80333 57.6033 3.88667 57.31 3.94C57.0167 3.98667 56.7167 4.04 56.41 4.1C56.11 4.15333 55.8067 4.27 55.5 4.45C55.3867 4.40333 55.28 4.40333 55.18 4.45C55.0867 4.49667 54.95 4.51 54.77 4.49C54.71 4.55 54.64 4.59 54.56 4.61C54.48 4.63 54.3967 4.65333 54.31 4.68C54.35 4.76667 54.3667 4.85333 54.36 4.94C54.36 5.02667 54.3733 5.09667 54.4 5.15C54.72 5.17667 55.0733 5.17333 55.46 5.14C55.8467 5.1 56.2267 5.07667 56.6 5.07C56.6067 5.11667 56.6 5.14667 56.58 5.16C56.5667 5.17333 56.5633 5.19667 56.57 5.23C56.6367 5.27667 56.7 5.33333 56.76 5.4C56.8267 5.46667 56.89 5.53333 56.95 5.6C57.0167 5.66667 57.0833 5.72 57.15 5.76C57.2167 5.8 57.2967 5.81667 57.39 5.81C57.43 5.88333 57.4567 5.96 57.47 6.04C57.4833 6.12667 57.47 6.21667 57.43 6.31C57.2833 6.41 57.1367 6.51333 56.99 6.62C56.85 6.72667 56.7 6.82 56.54 6.9C56.38 6.98 56.21 7.04667 56.03 7.1C55.85 7.14667 55.6533 7.16667 55.44 7.16C55.3933 7.16 55.3567 7.16 55.33 7.16C55.31 7.16 55.28 7.14667 55.24 7.12C55.1733 7.16667 55.0733 7.18 54.94 7.16C54.8067 7.14 54.7033 7.15333 54.63 7.2C54.53 7.15333 54.41 7.13333 54.27 7.14C54.1233 7.14667 53.9967 7.13 53.89 7.09C53.7433 7.28333 53.61 7.49 53.49 7.71C53.3767 7.92333 53.2733 8.15333 53.18 8.4C53.4867 8.44667 53.7433 8.46667 53.95 8.46C54.1567 8.44667 54.35 8.43 54.53 8.41C54.7167 8.39 54.9033 8.36667 55.09 8.34C55.2833 8.32 55.5267 8.31333 55.82 8.32C56 8.22 56.2167 8.15333 56.47 8.12C56.7167 8.09333 56.9467 8.04333 57.16 7.97C57.2333 7.99667 57.2967 8.04333 57.35 8.11C57.4033 8.17667 57.4567 8.24 57.51 8.3C57.5567 8.36 57.6067 8.41333 57.66 8.46C57.72 8.50667 57.79 8.52333 57.87 8.51C57.9033 8.55 57.9267 8.59333 57.94 8.64C57.96 8.69333 57.9733 8.74333 57.98 8.79C57.9867 8.83 58.0033 8.86667 58.03 8.9C58.05 8.93333 58.0867 8.94667 58.14 8.94C58.0067 9.24 57.85 9.47 57.67 9.63C57.49 9.79 57.2867 9.91 57.06 9.99C56.8333 10.07 56.58 10.1333 56.3 10.18C56.0267 10.2267 55.72 10.28 55.38 10.34C55.3 10.36 55.2333 10.36 55.18 10.34C55.12 10.3133 55.0533 10.3 54.98 10.3C54.7733 10.3467 54.5233 10.39 54.23 10.43C53.9433 10.4633 53.6467 10.4767 53.34 10.47C53.04 10.4567 52.7533 10.4167 52.48 10.35C52.2067 10.2833 51.9833 10.1633 51.81 9.99C51.7367 9.92333 51.69 9.84667 51.67 9.76C51.65 9.67333 51.5867 9.61 51.48 9.57C51.4733 9.45 51.4567 9.31667 51.43 9.17C51.4033 9.02333 51.3767 8.87 51.35 8.71C51.3233 8.55 51.3033 8.39333 51.29 8.24C51.2767 8.08667 51.2833 7.94667 51.31 7.82C51.3367 7.68 51.3933 7.55667 51.48 7.45C51.5667 7.33667 51.5967 7.21667 51.57 7.09C51.6167 7.08333 51.6433 7.06 51.65 7.02C51.6567 6.97333 51.6933 6.95667 51.76 6.97C51.8133 6.80333 51.8733 6.64667 51.94 6.5C52 6.35333 52.0633 6.21333 52.13 6.08C52.2033 5.94 52.2733 5.8 52.34 5.66C52.4067 5.52 52.4733 5.36333 52.54 5.19C52.4133 5.07 52.32 4.94 52.26 4.8C52.2 4.66 52.1567 4.52 52.13 4.38C52.1033 4.24 52.08 4.09333 52.06 3.94C52.04 3.78667 52.0067 3.63333 51.96 3.48C52.0533 3.34667 52.1667 3.23667 52.3 3.15C52.4333 3.06333 52.5767 2.99 52.73 2.93C52.8833 2.87667 53.05 2.83333 53.23 2.8C53.4167 2.76 53.61 2.71667 53.81 2.67C54.1767 2.55667 54.5033 2.46667 54.79 2.4C55.0767 2.34 55.3567 2.28667 55.63 2.24C55.91 2.2 56.2 2.16333 56.5 2.13C56.8 2.09 57.1433 2.03333 57.53 1.96C57.61 2.04667 57.6867 2.09 57.76 2.09C57.7933 2.00333 57.8367 1.97667 57.89 2.01C57.9433 2.04333 57.9633 2.02 57.95 1.94C58.0433 2.09333 58.16 2.22333 58.3 2.33C58.44 2.43 58.5967 2.51667 58.77 2.59ZM61.25 7.8C61.1633 7.82 61.1033 7.87 61.07 7.95C61.03 8.02333 60.9967 8.1 60.97 8.18C60.9367 8.26667 60.9033 8.34333 60.87 8.41C60.8367 8.47667 60.79 8.51 60.73 8.51C60.7167 8.58333 60.69 8.64667 60.65 8.7C60.61 8.76 60.5733 8.81667 60.54 8.87C60.5 8.93 60.47 8.99667 60.45 9.07C60.4367 9.13667 60.4467 9.21667 60.48 9.31C60.4067 9.36333 60.36 9.44 60.34 9.54C60.3267 9.64 60.3067 9.73667 60.28 9.83C60.26 9.91667 60.2233 9.99333 60.17 10.06C60.11 10.12 60.01 10.1467 59.87 10.14C59.8367 10.1733 59.83 10.1967 59.85 10.21C59.87 10.2167 59.8833 10.2467 59.89 10.3C59.79 10.2867 59.7167 10.2933 59.67 10.32C59.6167 10.3533 59.5533 10.3767 59.48 10.39C59.3067 10.33 59.1633 10.2333 59.05 10.1C58.9367 9.96 58.8367 9.80667 58.75 9.64C58.6633 9.47333 58.5867 9.30333 58.52 9.13C58.4533 8.95667 58.3867 8.80667 58.32 8.68C58.3467 8.58 58.35 8.48 58.33 8.38C58.3167 8.28667 58.2867 8.20667 58.24 8.14C58.6867 7.19333 59.1733 6.18333 59.7 5.11C60.2267 4.03667 60.73 2.97333 61.21 1.92C61.4167 2.00667 61.6233 2.1 61.83 2.2C62.0367 2.30667 62.2233 2.43 62.39 2.57C62.5567 2.70333 62.7 2.86 62.82 3.04C62.94 3.21333 63.0167 3.41 63.05 3.63C63.03 3.68333 63.01 3.70333 62.99 3.69C62.97 3.67667 62.95 3.68333 62.93 3.71C62.9633 3.75667 62.9833 3.79 62.99 3.81C62.9967 3.83 62.9967 3.84667 62.99 3.86C62.9833 3.88 62.98 3.90667 62.98 3.94C62.98 3.97333 62.9933 4.01667 63.02 4.07C62.9867 4.06333 62.9633 4.06667 62.95 4.08C62.9367 4.1 62.9067 4.1 62.86 4.08C62.8933 4.18 62.9033 4.26333 62.89 4.33C62.8767 4.39 62.8567 4.44667 62.83 4.5C62.8033 4.55333 62.78 4.60667 62.76 4.66C62.7467 4.72 62.7533 4.79667 62.78 4.89C62.7533 4.89 62.7333 4.89667 62.72 4.91C62.7067 4.92333 62.6933 4.93667 62.68 4.95C62.6733 4.96333 62.6633 4.97667 62.65 4.99C62.6367 5.00333 62.6167 5.00667 62.59 5C62.6167 5.2 62.6233 5.4 62.61 5.6C62.6033 5.8 62.5967 6.00333 62.59 6.21C62.59 6.41667 62.5933 6.63 62.6 6.85C62.6067 7.07667 62.64 7.30667 62.7 7.54C63.0267 7.34667 63.2867 7.1 63.48 6.8C63.68 6.5 63.84 6.16333 63.96 5.79C64.08 5.41667 64.1733 5.01667 64.24 4.59C64.3067 4.16333 64.3767 3.72667 64.45 3.28C64.53 3.19333 64.5933 3.09333 64.64 2.98C64.6867 2.86 64.7267 2.73333 64.76 2.6C64.7933 2.46667 64.83 2.33333 64.87 2.2C64.9033 2.06667 64.95 1.94667 65.01 1.84C65.1433 1.86 65.2567 1.90333 65.35 1.97C65.45 2.03667 65.54 2.11 65.62 2.19C65.7 2.27 65.7867 2.34333 65.88 2.41C65.9733 2.47667 66.0867 2.52 66.22 2.54C66.3333 2.69333 66.4333 2.84333 66.52 2.99C66.6133 3.13667 66.6733 3.29 66.7 3.45C66.6533 3.52333 66.62 3.60667 66.6 3.7C66.5733 3.79333 66.5467 3.88333 66.52 3.97C66.4933 4.06333 66.4567 4.15 66.41 4.23C66.37 4.30333 66.3067 4.36667 66.22 4.42C66.1933 4.66 66.16 4.87667 66.12 5.07C66.08 5.27 66.04 5.46667 66 5.66C65.96 5.84667 65.9233 6.04333 65.89 6.25C65.8633 6.45667 65.8567 6.68333 65.87 6.93C65.7967 7.13667 65.72 7.36 65.64 7.6C65.5533 7.83333 65.4867 8.04667 65.44 8.24C65.2933 8.36 65.18 8.5 65.1 8.66C65.02 8.82667 64.9333 8.99333 64.84 9.16C64.8067 9.19333 64.7833 9.2 64.77 9.18C64.7633 9.16667 64.7333 9.15333 64.68 9.14C64.6867 9.18 64.6867 9.20667 64.68 9.22C64.6667 9.24 64.6533 9.25667 64.64 9.27C64.6267 9.28333 64.62 9.30333 64.62 9.33C64.6133 9.35667 64.62 9.39333 64.64 9.44C64.5133 9.49333 64.4 9.57 64.3 9.67C64.1933 9.77667 64.0833 9.87 63.97 9.95C63.8567 10.03 63.72 10.0833 63.56 10.11C63.4 10.1367 63.1933 10.1067 62.94 10.02C62.5667 9.74667 62.2367 9.43 61.95 9.07C61.6633 8.71667 61.43 8.29333 61.25 7.8ZM74.13 3.71C73.8967 3.71 73.65 3.72667 73.39 3.76C73.1233 3.79333 72.8633 3.82667 72.61 3.86C72.4233 3.89333 72.2467 3.91667 72.08 3.93C71.9133 3.95 71.76 3.96333 71.62 3.97C71.56 4.17 71.4967 4.35 71.43 4.51C71.37 4.66333 71.3033 4.81333 71.23 4.96C71.1567 5.11333 71.09 5.27 71.03 5.43C70.97 5.59 70.9133 5.76 70.86 5.94C70.7667 6.08667 70.69 6.22333 70.63 6.35C70.57 6.47 70.5233 6.60667 70.49 6.76C70.3767 6.9 70.2933 7.04333 70.24 7.19C70.1867 7.34333 70.1467 7.47333 70.12 7.58L70.06 7.75C70.0067 7.80333 69.9767 7.84667 69.97 7.88C69.9633 7.90667 69.94 7.93667 69.9 7.97C69.8933 8.07 69.86 8.17 69.8 8.27C69.7867 8.31 69.7733 8.35333 69.76 8.4C69.7533 8.44 69.75 8.47 69.75 8.49C69.75 8.57667 69.7267 8.63333 69.68 8.66C69.6933 8.70667 69.6933 8.75667 69.68 8.81C69.6733 8.85667 69.6633 8.90333 69.65 8.95C69.6233 9.05667 69.6167 9.14333 69.63 9.21C69.6567 9.24333 69.68 9.27667 69.7 9.31C69.7267 9.33667 69.7433 9.37333 69.75 9.42C69.8033 9.45333 69.8433 9.47333 69.87 9.48C69.91 9.50667 69.9667 9.54 70.04 9.58L70.16 9.72C70.2067 9.98 70.1667 10.1867 70.04 10.34C69.9 10.5133 69.6667 10.6 69.34 10.6H69.18C69.1333 10.56 69.1033 10.5267 69.09 10.5C69.0167 10.4667 68.96 10.4433 68.92 10.43C68.8733 10.41 68.83 10.3733 68.79 10.32C68.6767 10.2667 68.5833 10.22 68.51 10.18L68.38 10.11C68.38 10.01 68.38 9.95667 68.38 9.95C68.32 9.87 68.2733 9.77667 68.24 9.67C68.2067 9.57 68.18 9.47 68.16 9.37C68.1467 9.29 68.1267 9.21333 68.1 9.14C68.08 9.06667 68.05 9.00333 68.01 8.95C67.9967 8.42333 68.0467 7.97667 68.16 7.61C68.28 7.24333 68.4033 6.89333 68.53 6.56C68.6033 6.37333 68.6767 6.18667 68.75 6C68.8233 5.81333 68.8867 5.62 68.94 5.42L69.07 5.29C69.13 5.14333 69.18 5.02 69.22 4.92C69.2667 4.82667 69.31 4.73 69.35 4.63C69.3767 4.56333 69.4033 4.50333 69.43 4.45C69.45 4.39 69.47 4.33667 69.49 4.29C69.4367 4.29 69.3867 4.29 69.34 4.29C69.2933 4.29667 69.2467 4.30667 69.2 4.32C69.1467 4.32667 69.0967 4.33333 69.05 4.34C69.0033 4.34 68.96 4.34 68.92 4.34C68.8533 4.34 68.8067 4.33667 68.78 4.33C68.68 4.37667 68.57 4.4 68.45 4.4H68.31C68.2833 4.4 68.26 4.39667 68.24 4.39C68.22 4.38333 68.2 4.38 68.18 4.38C68.0867 4.38 68.0133 4.39333 67.96 4.42C67.8533 4.42 67.7467 4.42 67.64 4.42H67.51C67.49 4.42 67.4667 4.42333 67.44 4.43C67.4133 4.43667 67.39 4.44 67.37 4.44C67.31 4.44 67.2433 4.43333 67.17 4.42C67.0967 4.40667 67.0167 4.37667 66.93 4.33C66.8233 4.18333 66.7533 4.10667 66.72 4.1L66.59 3.93C66.5833 3.87667 66.57 3.82667 66.55 3.78C66.53 3.72667 66.5133 3.66667 66.5 3.6C66.46 3.51333 66.4233 3.41667 66.39 3.31C66.3633 3.20333 66.35 3.07667 66.35 2.93C66.3567 2.86333 66.3733 2.81 66.4 2.77C66.4267 2.73667 66.45 2.70333 66.47 2.67L66.51 2.47L66.69 2.48H67.07C67.3633 2.48 67.66 2.47 67.96 2.45C68.26 2.43 68.57 2.40333 68.89 2.37C69.07 2.35667 69.2533 2.34 69.44 2.32C69.6267 2.3 69.82 2.28 70.02 2.26C70.06 2.18 70.0967 2.10333 70.13 2.03L70.27 1.96C70.4367 1.95333 70.5533 1.97667 70.62 2.03C70.6867 2.07667 70.7433 2.12333 70.79 2.17C70.99 2.15 71.1933 2.13 71.4 2.11C71.6067 2.08333 71.8133 2.05333 72.02 2.02C72.3267 1.97333 72.64 1.93333 72.96 1.9C73.2733 1.86 73.5767 1.84 73.87 1.84C73.9967 1.84 74.1167 1.84333 74.23 1.85C74.35 1.86333 74.46 1.88 74.56 1.9L74.7 1.99C74.7267 2.04333 74.7667 2.09333 74.82 2.14C74.8667 2.18667 74.9167 2.23333 74.97 2.28C75.0833 2.38 75.1933 2.49667 75.3 2.63C75.4133 2.77 75.4533 2.97333 75.42 3.24C75.3467 3.34667 75.2933 3.41 75.26 3.43L75.14 3.59L75 3.58C74.9467 3.58 74.8967 3.58667 74.85 3.6C74.8033 3.61333 74.7567 3.63 74.71 3.65C74.6767 3.66333 74.64 3.67667 74.6 3.69C74.5667 3.70333 74.5267 3.71667 74.48 3.73C74.4 3.73 74.3333 3.72667 74.28 3.72C74.2333 3.71333 74.1833 3.71 74.13 3.71ZM79.47 10.48C79.3767 10.48 79.2367 10.4667 79.05 10.44C78.9033 10.2867 78.7733 10.0733 78.66 9.8C78.5467 9.53333 78.46 9.24667 78.4 8.94C78.34 8.64 78.3133 8.33667 78.32 8.03C78.32 7.72333 78.37 7.45 78.47 7.21C78.47 7.20333 78.5133 7.09667 78.6 6.89C78.6867 6.67667 78.8 6.41 78.94 6.09C79.0733 5.76333 79.2267 5.40333 79.4 5.01C79.5733 4.61 79.7467 4.22 79.92 3.84C80.0933 3.45333 80.26 3.10333 80.42 2.79C80.58 2.47667 80.72 2.23333 80.84 2.06C80.92 1.93333 80.9933 1.81 81.06 1.69C81.1333 1.57 81.2 1.46 81.26 1.36C81.36 1.2 81.4533 1.04667 81.54 0.9C81.6267 0.76 81.7233 0.633333 81.83 0.52C81.9367 0.406667 82.0533 0.306666 82.18 0.22C82.3067 0.133333 82.46 0.06 82.64 0C82.7533 0.04 82.85 0.0866665 82.93 0.14C83.01 0.186667 83.0833 0.246667 83.15 0.32L83.19 0.51C83.21 0.576666 83.24 0.62 83.28 0.64C83.32 0.666667 83.3533 0.68 83.38 0.68C83.5 0.706666 83.6033 0.736667 83.69 0.77C83.7767 0.803333 83.87 0.823333 83.97 0.83C84.0033 0.883333 84.0367 0.936666 84.07 0.99C84.1033 1.05 84.1367 1.1 84.17 1.14C84.3567 1.40667 84.51 1.66333 84.63 1.91C84.7433 2.15667 84.7433 2.42667 84.63 2.72L84.64 2.87C84.6867 2.93 84.71 2.98667 84.71 3.04C84.71 3.1 84.7 3.18 84.68 3.28C84.6733 3.35333 84.6667 3.43333 84.66 3.52C84.6533 3.60667 84.6633 3.7 84.69 3.8L84.79 3.91C84.9367 3.97667 85.0767 4.01 85.21 4.01C85.3967 4.01 85.5633 3.97 85.71 3.89C85.85 3.81 85.9867 3.73 86.12 3.65C86.22 3.57667 86.3133 3.51667 86.4 3.47C86.4867 3.42333 86.57 3.39 86.65 3.37C86.8433 3.19 87.02 3.03 87.18 2.89C87.3333 2.74333 87.4967 2.6 87.67 2.46C88.0033 2.19333 88.3233 1.90667 88.63 1.6C88.9433 1.29333 89.19 0.913333 89.37 0.46C89.47 0.393333 89.5833 0.36 89.71 0.36C89.8367 0.36 89.9633 0.386667 90.09 0.44C90.2233 0.486667 90.3533 0.543333 90.48 0.61C90.5067 0.63 90.53 0.643333 90.55 0.65C90.5767 0.663333 90.6033 0.676667 90.63 0.69C90.63 0.79 90.67 0.883333 90.75 0.97C90.7967 1.00333 90.83 1.02333 90.85 1.03C90.8633 1.04333 90.88 1.05333 90.9 1.06C90.9733 1.10667 91.0367 1.14667 91.09 1.18C91.1367 1.22 91.1733 1.27 91.2 1.33C91.28 1.57667 91.4167 1.77 91.61 1.91C91.59 2.01 91.5967 2.10667 91.63 2.2C91.6567 2.3 91.6867 2.39333 91.72 2.48C91.74 2.52 91.7533 2.55667 91.76 2.59C91.7733 2.61667 91.7867 2.65333 91.8 2.7L91.5 2.67L91.54 2.98C91.5667 3.13333 91.5567 3.30667 91.51 3.5C91.4567 3.68667 91.4 3.83667 91.34 3.95C91.36 4.22333 91.37 4.44 91.37 4.6C91.37 4.75333 91.36 4.9 91.34 5.04C91.32 5.18 91.29 5.31 91.25 5.43C91.21 5.55 91.1567 5.68 91.09 5.82C91.13 6.51333 91.05 7.14667 90.85 7.72C90.6567 8.29333 90.4467 8.83 90.22 9.33C90.1933 9.39667 90.1667 9.45667 90.14 9.51C90.1067 9.56333 90.0833 9.61667 90.07 9.67C89.97 9.70333 89.8767 9.73667 89.79 9.77C89.71 9.81 89.6333 9.85 89.56 9.89C89.46 9.95667 89.36 10.01 89.26 10.05C89.16 10.09 89.0567 10.11 88.95 10.11C88.51 9.79 88.2833 9.24 88.27 8.46C88.2567 7.67333 88.4233 6.67333 88.77 5.46C88.83 5.42 88.8567 5.35333 88.85 5.26V5.11L88.71 5.09C88.6633 5.09 88.6233 5.09667 88.59 5.11C88.5567 5.11667 88.53 5.15667 88.51 5.23C88.2167 5.44333 87.9 5.66 87.56 5.88C87.22 6.10667 86.8667 6.31333 86.5 6.5C86.1333 6.68667 85.76 6.84 85.38 6.96C85.0067 7.08667 84.64 7.15 84.28 7.15C83.3733 7.15 82.6867 6.68333 82.22 5.75L82.1 5.5L81.96 5.72C81.9333 5.76667 81.8867 5.85667 81.82 5.99C81.7467 6.12333 81.6767 6.27667 81.61 6.45C81.5433 6.62333 81.4833 6.8 81.43 6.98C81.3833 7.16 81.37 7.32 81.39 7.46C81.2767 7.56 81.1667 7.67333 81.06 7.8C80.96 7.92667 80.8867 8.07333 80.84 8.24C80.82 8.28667 80.8133 8.33 80.82 8.37C80.8333 8.41 80.85 8.45333 80.87 8.5C80.8567 8.56 80.8367 8.60667 80.81 8.64C80.7833 8.66667 80.7533 8.69333 80.72 8.72C80.6733 8.76667 80.6267 8.81333 80.58 8.86C80.5333 8.91333 80.4933 8.97 80.46 9.03C80.44 9.08333 80.4233 9.14 80.41 9.2C80.4033 9.26 80.3967 9.31333 80.39 9.36C80.39 9.46 80.3767 9.53 80.35 9.57C80.2567 9.75667 80.1767 9.91333 80.11 10.04C80.0367 10.16 79.97 10.2533 79.91 10.32C79.8433 10.38 79.7767 10.4233 79.71 10.45C79.6433 10.47 79.5633 10.48 79.47 10.48ZM99.13 9.09L99.1 9.14C99.0467 9.29333 98.9667 9.45 98.86 9.61C98.76 9.77 98.64 9.91333 98.5 10.04C98.3533 10.16 98.1933 10.26 98.02 10.34C97.8467 10.4267 97.6667 10.4733 97.48 10.48C97.36 10.4533 97.28 10.4233 97.24 10.39C97.2 10.3567 97.1567 10.3267 97.11 10.3C97.0833 10.2867 97.0567 10.2733 97.03 10.26C97.01 10.2467 96.99 10.2333 96.97 10.22L96.81 10.15L96.86 9.98C96.88 9.90667 96.8767 9.84667 96.85 9.8C96.8233 9.76 96.7667 9.70333 96.68 9.63C96.6533 9.60333 96.6267 9.57667 96.6 9.55C96.5733 9.52333 96.55 9.49667 96.53 9.47L96.3 9.21L96.67 9.11C96.8967 9.05 97.05 8.97 97.13 8.87C97.2033 8.77 97.2333 8.6 97.22 8.36C97.0333 8.32667 96.88 8.32333 96.76 8.35C96.6333 8.37667 96.5067 8.40667 96.38 8.44C96.22 8.48667 96.0533 8.52667 95.88 8.56C95.7133 8.59333 95.53 8.61 95.33 8.61C95.2567 8.61 95.19 8.60667 95.13 8.6C95.0633 8.59333 94.9933 8.58667 94.92 8.58L94.78 8.55C94.7667 8.45 94.75 8.39333 94.73 8.38C94.71 8.36667 94.69 8.35 94.67 8.33C94.63 8.29 94.5833 8.23 94.53 8.15C94.4833 8.07 94.4733 7.97333 94.5 7.86C94.4533 7.77333 94.4233 7.69 94.41 7.61C94.3567 7.71667 94.3167 7.83 94.29 7.95L94.24 8.09L94.1 8.12C94.08 8.12667 94.0667 8.14667 94.06 8.18C94.0533 8.21333 94.05 8.23667 94.05 8.25L93.98 8.49C93.96 8.50333 93.94 8.51667 93.92 8.53C93.9 8.54333 93.8833 8.56 93.87 8.58C93.85 8.66 93.8267 8.74333 93.8 8.83C93.7733 8.91 93.7467 8.98667 93.72 9.06C93.6733 9.18 93.6333 9.29667 93.6 9.41C93.5667 9.52333 93.5567 9.63333 93.57 9.74L93.51 9.89C93.4633 9.95 93.4133 9.99333 93.36 10.02C93.3067 10.0533 93.2533 10.0833 93.2 10.11C93.18 10.13 93.1533 10.1467 93.12 10.16C93.0867 10.1733 93.0633 10.1833 93.05 10.19L93.01 10.34L92.84 10.37C92.74 10.39 92.67 10.4033 92.63 10.41C92.59 10.4233 92.5433 10.43 92.49 10.43L92.35 10.41C92.25 10.33 92.1733 10.2633 92.12 10.21C92.0667 10.1633 92.0033 10.1167 91.93 10.07C91.8433 9.96333 91.7967 9.88333 91.79 9.83C91.7833 9.77 91.7733 9.71667 91.76 9.67C91.74 9.61667 91.73 9.57333 91.73 9.54C91.7233 9.5 91.71 9.47333 91.69 9.46L91.52 9.29L91.67 9.17L91.68 8.94C91.86 8.47333 92.0533 8.02667 92.26 7.6C92.4667 7.16667 92.68 6.72667 92.9 6.28C92.9733 6.14 93.0433 5.99667 93.11 5.85C93.1767 5.70333 93.2467 5.55667 93.32 5.41C93.3133 5.38333 93.31 5.35 93.31 5.31C93.31 5.27667 93.3167 5.23667 93.33 5.19C93.43 5.03667 93.5133 4.89667 93.58 4.77C93.6467 4.65 93.71 4.52667 93.77 4.4C93.8433 4.24667 93.92 4.09667 94 3.95C94.0733 3.80333 94.17 3.65333 94.29 3.5L94.51 3.4C94.5367 3.39333 94.57 3.38333 94.61 3.37C94.6433 3.35 94.6833 3.34 94.73 3.34L94.93 3.37C95.19 3.25 95.4133 3.08333 95.6 2.87C95.7933 2.65667 95.99 2.4 96.19 2.1L96.33 1.91L96.51 2.02C96.55 2.04667 96.6133 2.07 96.7 2.09C96.78 2.11667 96.8667 2.14333 96.96 2.17C97.12 2.20333 97.2733 2.24333 97.42 2.29C97.5667 2.33667 97.6867 2.40667 97.78 2.5C97.8333 2.64667 97.8633 2.75667 97.87 2.83C97.8833 2.89667 97.8967 2.96667 97.91 3.04C97.9433 3.2 97.97 3.35667 97.99 3.51C98.01 3.66333 98.0267 3.83667 98.04 4.03C98.0867 4.18333 98.1233 4.33667 98.15 4.49C98.1833 4.63667 98.2133 4.78667 98.24 4.94C98.2867 5.16 98.3333 5.37333 98.38 5.58C98.4267 5.78667 98.4867 5.98 98.56 6.16C98.6333 6.16 98.6767 6.16333 98.69 6.17C98.7367 6.15667 98.7867 6.14333 98.84 6.13C98.8867 6.12333 98.9433 6.11667 99.01 6.11L99.16 6.09L99.21 6.23C99.2233 6.27667 99.27 6.32333 99.35 6.37C99.47 6.37667 99.5567 6.4 99.61 6.44C99.6633 6.48 99.7133 6.52333 99.76 6.57C99.7933 6.61 99.83 6.63667 99.87 6.65L100.07 6.74L99.97 6.94C99.8767 7.10667 99.7467 7.26333 99.58 7.41C99.4067 7.56333 99.2167 7.69 99.01 7.79C99.0167 7.84333 99.0233 7.89667 99.03 7.95C99.0367 7.99667 99.0467 8.04667 99.06 8.1C99.0867 8.25333 99.11 8.41333 99.13 8.58C99.15 8.74667 99.15 8.91667 99.13 9.09ZM95.15 6.78C95.4233 6.76 95.6733 6.73667 95.9 6.71C96.12 6.69 96.3667 6.65333 96.64 6.6C96.58 6.32667 96.5133 6.04 96.44 5.74C96.3667 5.44667 96.29 5.15333 96.21 4.86L96.12 5C95.94 5.19333 95.7667 5.40667 95.6 5.64C95.4267 5.88 95.2833 6.10333 95.17 6.31C95.11 6.39 95.0533 6.47333 95 6.56C94.9467 6.64 94.8967 6.72 94.85 6.8C94.9033 6.79333 94.9567 6.79 95.01 6.79C95.0567 6.79 95.1033 6.78667 95.15 6.78ZM102.21 8.87C102.11 9.23667 102.02 9.51333 101.94 9.7C101.86 9.88667 101.743 10.08 101.59 10.28C101.47 10.26 101.39 10.2733 101.35 10.32C101.303 10.3667 101.253 10.4067 101.2 10.44C101.113 10.46 101.053 10.46 101.02 10.44C100.98 10.42 100.947 10.4 100.92 10.38C100.893 10.3533 100.86 10.33 100.82 10.31C100.78 10.29 100.72 10.28 100.64 10.28C100.62 10.2067 100.597 10.1367 100.57 10.07C100.55 10.01 100.49 9.98667 100.39 10C100.41 9.92667 100.413 9.86667 100.4 9.82C100.393 9.76667 100.383 9.72 100.37 9.68C100.357 9.64 100.343 9.6 100.33 9.56C100.323 9.52 100.33 9.46667 100.35 9.4C100.303 9.4 100.267 9.37 100.24 9.31C100.213 9.24333 100.18 9.17667 100.14 9.11C100.167 8.95 100.193 8.79667 100.22 8.65C100.253 8.50333 100.29 8.36667 100.33 8.24C100.37 8.11333 100.403 7.98667 100.43 7.86C100.457 7.73333 100.443 7.6 100.39 7.46C100.423 7.48667 100.45 7.48 100.47 7.44C100.49 7.4 100.503 7.34667 100.51 7.28C100.523 7.20667 100.53 7.13667 100.53 7.07C100.53 7.00333 100.523 6.94667 100.51 6.9C100.603 6.66 100.68 6.41667 100.74 6.17C100.8 5.91667 100.853 5.66667 100.9 5.42C100.953 5.17333 101.007 4.93333 101.06 4.7C101.113 4.46 101.187 4.24 101.28 4.04C101.38 4.02 101.49 4.03333 101.61 4.08C101.737 4.12 101.813 4.17 101.84 4.23C102.073 4.05 102.283 3.83 102.47 3.57C102.65 3.31 102.837 3.05667 103.03 2.81C103.217 2.56333 103.427 2.34667 103.66 2.16C103.893 1.96667 104.19 1.85 104.55 1.81C104.73 1.95 104.93 2.09 105.15 2.23C105.377 2.37 105.563 2.55333 105.71 2.78C105.783 2.82 105.843 2.86 105.89 2.9C105.943 2.94 106.007 2.98333 106.08 3.03V3.19C106.187 3.29 106.273 3.40667 106.34 3.54C106.413 3.67333 106.477 3.81667 106.53 3.97C106.583 4.11667 106.637 4.26667 106.69 4.42C106.743 4.56667 106.807 4.71 106.88 4.85C106.867 4.89667 106.86 4.93333 106.86 4.96C106.86 4.99333 106.867 5.03 106.88 5.07C106.893 5.10333 106.903 5.14 106.91 5.18C106.917 5.21333 106.917 5.26333 106.91 5.33C106.883 5.73 106.753 6.05333 106.52 6.3C106.287 6.54667 106.007 6.75 105.68 6.91C105.353 7.07 105.003 7.20333 104.63 7.31C104.257 7.41667 103.92 7.53667 103.62 7.67C103.62 7.70333 103.633 7.72 103.66 7.72C103.693 7.72 103.707 7.74333 103.7 7.79C103.92 7.92333 104.093 8.03333 104.22 8.12C104.347 8.2 104.467 8.26667 104.58 8.32C104.693 8.37333 104.817 8.42 104.95 8.46C105.083 8.50667 105.267 8.55667 105.5 8.61C105.74 8.66333 105.927 8.70667 106.06 8.74C106.187 8.77333 106.307 8.8 106.42 8.82C106.527 8.84 106.637 8.85667 106.75 8.87C106.863 8.89 107.027 8.90667 107.24 8.92C107.32 9.00667 107.39 9.10667 107.45 9.22C107.51 9.33333 107.55 9.44667 107.57 9.56C107.583 9.67333 107.587 9.78333 107.58 9.89C107.573 9.99 107.54 10.0733 107.48 10.14C107.493 10.1667 107.517 10.1767 107.55 10.17C107.577 10.17 107.61 10.1733 107.65 10.18C107.597 10.22 107.55 10.2667 107.51 10.32C107.477 10.3733 107.44 10.4267 107.4 10.48C107.367 10.5333 107.327 10.58 107.28 10.62C107.233 10.6667 107.17 10.6933 107.09 10.7C106.803 10.8067 106.447 10.8133 106.02 10.72C105.593 10.6267 105.05 10.45 104.39 10.19C104.063 10.0633 103.797 9.95333 103.59 9.86C103.39 9.76667 103.213 9.67 103.06 9.57C102.913 9.47667 102.777 9.37333 102.65 9.26C102.53 9.15333 102.383 9.02333 102.21 8.87ZM104.16 4.18C104.06 4.32667 103.95 4.46 103.83 4.58C103.703 4.69333 103.583 4.81333 103.47 4.94C103.357 5.06 103.253 5.19667 103.16 5.35C103.073 5.49667 103.01 5.67 102.97 5.87C103.29 5.83667 103.623 5.75 103.97 5.61C104.317 5.47 104.647 5.33333 104.96 5.2C104.92 4.92 104.82 4.69333 104.66 4.52C104.5 4.34667 104.333 4.23333 104.16 4.18ZM115.82 9.8C115.387 9.82 115.003 9.81 114.67 9.77C114.337 9.73667 114.01 9.65 113.69 9.51C113.67 9.50333 113.653 9.48 113.64 9.44C113.62 9.40667 113.6 9.38 113.58 9.36C113.527 9.33333 113.46 9.32333 113.38 9.33C113.307 9.33 113.243 9.32333 113.19 9.31C113.117 9.27 113 9.19667 112.84 9.09C112.687 8.99 112.547 8.89333 112.42 8.8C112.253 8.67333 112.1 8.54667 111.96 8.42C111.813 8.29333 111.683 8.15667 111.57 8.01C111.543 7.97 111.507 7.95 111.46 7.95C111.413 7.94333 111.373 7.93 111.34 7.91C111.073 8.07667 110.85 8.28333 110.67 8.53C110.49 8.77667 110.317 9.02667 110.15 9.28C109.983 9.53333 109.81 9.77333 109.63 10C109.45 10.2267 109.217 10.4 108.93 10.52C108.85 10.52 108.78 10.5067 108.72 10.48C108.653 10.4533 108.593 10.42 108.54 10.38C108.487 10.34 108.43 10.3 108.37 10.26C108.317 10.2267 108.26 10.2 108.2 10.18C108.2 10.0733 108.177 9.97333 108.13 9.88C108.09 9.78667 108.05 9.7 108.01 9.62C107.97 9.54 107.94 9.46 107.92 9.38C107.9 9.3 107.92 9.22667 107.98 9.16C107.92 9.1 107.837 9.04 107.73 8.98C107.783 8.92667 107.81 8.87667 107.81 8.83C107.803 8.78333 107.79 8.73667 107.77 8.69C107.75 8.64333 107.733 8.59333 107.72 8.54C107.707 8.48667 107.72 8.43333 107.76 8.38C107.807 8.38 107.86 8.37 107.92 8.35C107.867 8.27667 107.843 8.23333 107.85 8.22C107.85 8.20667 107.837 8.18667 107.81 8.16C107.797 8.10667 107.807 8.07 107.84 8.05C107.873 8.03667 107.91 8.02333 107.95 8.01C107.983 7.56333 108.06 7.14667 108.18 6.76C108.3 6.38 108.433 6.01333 108.58 5.66C108.727 5.3 108.87 4.94 109.01 4.58C109.15 4.21333 109.267 3.82 109.36 3.4C109.46 3.3 109.54 3.18 109.6 3.04C109.66 2.90667 109.723 2.77 109.79 2.63C109.857 2.49667 109.933 2.36333 110.02 2.23C110.107 2.09667 110.227 1.99 110.38 1.91C110.507 1.91667 110.62 1.95 110.72 2.01C110.827 2.07 110.95 2.09667 111.09 2.09C111.123 2.13667 111.15 2.18 111.17 2.22C111.19 2.26667 111.22 2.31333 111.26 2.36L111.46 2.32C111.56 2.4 111.65 2.50333 111.73 2.63C111.81 2.75 111.863 2.88 111.89 3.02C111.917 3.15333 111.91 3.28333 111.87 3.41C111.837 3.53 111.75 3.62667 111.61 3.7C111.623 3.74667 111.627 3.78 111.62 3.8C111.613 3.82667 111.607 3.84667 111.6 3.86C111.593 3.88 111.59 3.9 111.59 3.92C111.59 3.94 111.603 3.96667 111.63 4C111.443 4.14 111.307 4.33333 111.22 4.58C111.127 4.82 111.077 5.03667 111.07 5.23C111.177 5.12333 111.297 5.01667 111.43 4.91C111.563 4.80333 111.7 4.7 111.84 4.6C111.98 4.5 112.117 4.40667 112.25 4.32C112.383 4.22667 112.503 4.13333 112.61 4.04C112.91 3.76667 113.2 3.54667 113.48 3.38C113.76 3.21333 114.053 3.02333 114.36 2.81C114.433 2.79 114.49 2.78667 114.53 2.8C114.57 2.82 114.613 2.83667 114.66 2.85C114.66 2.79667 114.643 2.76667 114.61 2.76C114.583 2.74667 114.573 2.71 114.58 2.65C114.72 2.61 114.84 2.56667 114.94 2.52C115.04 2.46667 115.147 2.41667 115.26 2.37C115.347 2.45667 115.427 2.54333 115.5 2.63C115.573 2.71667 115.673 2.76667 115.8 2.78C115.847 2.88 115.9 2.95667 115.96 3.01C116.027 3.05667 116.09 3.10333 116.15 3.15C116.217 3.19667 116.273 3.25333 116.32 3.32C116.373 3.38 116.403 3.48 116.41 3.62C116.377 3.68 116.34 3.74667 116.3 3.82C116.253 3.89333 116.213 3.98 116.18 4.08C116 4.24667 115.817 4.39333 115.63 4.52C115.443 4.64667 115.253 4.77 115.06 4.89C114.867 5.01 114.67 5.13 114.47 5.25C114.27 5.36333 114.067 5.50333 113.86 5.67C113.813 5.73 113.753 5.78667 113.68 5.84C113.613 5.89333 113.543 5.94333 113.47 5.99C113.397 6.04333 113.33 6.09667 113.27 6.15C113.203 6.20333 113.153 6.26667 113.12 6.34C113.093 6.34667 113.067 6.35 113.04 6.35C113.007 6.35 112.977 6.35667 112.95 6.37C112.923 6.43 112.88 6.48 112.82 6.52C112.76 6.55333 112.723 6.60333 112.71 6.67C112.843 6.95667 113.02 7.18 113.24 7.34C113.46 7.49333 113.707 7.60333 113.98 7.67C114.253 7.73667 114.55 7.77333 114.87 7.78C115.19 7.78667 115.523 7.79 115.87 7.79C115.903 7.77667 115.917 7.75667 115.91 7.73C115.91 7.69667 115.93 7.68333 115.97 7.69C116.19 7.76333 116.36 7.86667 116.48 8C116.6 8.13333 116.74 8.26333 116.9 8.39C116.887 8.73667 116.783 9.02333 116.59 9.25C116.397 9.47667 116.14 9.66 115.82 9.8ZM124.25 2.59C124.257 2.65667 124.257 2.70667 124.25 2.74C124.25 2.76667 124.247 2.79667 124.24 2.83C124.233 2.85667 124.23 2.88333 124.23 2.91C124.23 2.94333 124.24 2.99333 124.26 3.06C124.067 3.36667 123.847 3.57667 123.6 3.69C123.347 3.80333 123.073 3.88667 122.78 3.94C122.493 3.98667 122.197 4.04 121.89 4.1C121.583 4.15333 121.28 4.27 120.98 4.45C120.86 4.40333 120.753 4.40333 120.66 4.45C120.56 4.49667 120.42 4.51 120.24 4.49C120.187 4.55 120.12 4.59 120.04 4.61C119.953 4.63 119.87 4.65333 119.79 4.68C119.823 4.76667 119.84 4.85333 119.84 4.94C119.833 5.02667 119.843 5.09667 119.87 5.15C120.19 5.17667 120.543 5.17333 120.93 5.14C121.317 5.1 121.697 5.07667 122.07 5.07C122.083 5.11667 122.08 5.14667 122.06 5.16C122.04 5.17333 122.037 5.19667 122.05 5.23C122.11 5.27667 122.173 5.33333 122.24 5.4C122.3 5.46667 122.363 5.53333 122.43 5.6C122.49 5.66667 122.557 5.72 122.63 5.76C122.697 5.8 122.777 5.81667 122.87 5.81C122.903 5.88333 122.927 5.96 122.94 6.04C122.953 6.12667 122.943 6.21667 122.91 6.31C122.763 6.41 122.617 6.51333 122.47 6.62C122.323 6.72667 122.17 6.82 122.01 6.9C121.85 6.98 121.683 7.04667 121.51 7.1C121.33 7.14667 121.13 7.16667 120.91 7.16C120.863 7.16 120.83 7.16 120.81 7.16C120.783 7.16 120.753 7.14667 120.72 7.12C120.647 7.16667 120.543 7.18 120.41 7.16C120.277 7.14 120.173 7.15333 120.1 7.2C120 7.15333 119.88 7.13333 119.74 7.14C119.6 7.14667 119.477 7.13 119.37 7.09C119.223 7.28333 119.09 7.49 118.97 7.71C118.85 7.92333 118.743 8.15333 118.65 8.4C118.963 8.44667 119.223 8.46667 119.43 8.46C119.63 8.44667 119.823 8.43 120.01 8.41C120.19 8.39 120.377 8.36667 120.57 8.34C120.763 8.32 121.003 8.31333 121.29 8.32C121.477 8.22 121.693 8.15333 121.94 8.12C122.193 8.09333 122.423 8.04333 122.63 7.97C122.703 7.99667 122.767 8.04333 122.82 8.11C122.88 8.17667 122.933 8.24 122.98 8.3C123.033 8.36 123.087 8.41333 123.14 8.46C123.193 8.50667 123.26 8.52333 123.34 8.51C123.38 8.55 123.407 8.59333 123.42 8.64C123.433 8.69333 123.443 8.74333 123.45 8.79C123.463 8.83 123.48 8.86667 123.5 8.9C123.527 8.93333 123.567 8.94667 123.62 8.94C123.48 9.24 123.323 9.47 123.15 9.63C122.97 9.79 122.767 9.91 122.54 9.99C122.313 10.07 122.06 10.1333 121.78 10.18C121.5 10.2267 121.193 10.28 120.86 10.34C120.773 10.36 120.703 10.36 120.65 10.34C120.597 10.3133 120.533 10.3 120.46 10.3C120.247 10.3467 119.997 10.39 119.71 10.43C119.417 10.4633 119.12 10.4767 118.82 10.47C118.52 10.4567 118.233 10.4167 117.96 10.35C117.687 10.2833 117.463 10.1633 117.29 9.99C117.217 9.92333 117.167 9.84667 117.14 9.76C117.12 9.67333 117.06 9.61 116.96 9.57C116.953 9.45 116.933 9.31667 116.9 9.17C116.873 9.02333 116.847 8.87 116.82 8.71C116.793 8.55 116.773 8.39333 116.76 8.24C116.747 8.08667 116.753 7.94667 116.78 7.82C116.807 7.68 116.863 7.55667 116.95 7.45C117.037 7.33667 117.067 7.21667 117.04 7.09C117.087 7.08333 117.113 7.06 117.12 7.02C117.133 6.97333 117.17 6.95667 117.23 6.97C117.283 6.80333 117.343 6.64667 117.41 6.5C117.477 6.35333 117.543 6.21333 117.61 6.08C117.677 5.94 117.743 5.8 117.81 5.66C117.883 5.52 117.95 5.36333 118.01 5.19C117.883 5.07 117.79 4.94 117.73 4.8C117.67 4.66 117.627 4.52 117.6 4.38C117.573 4.24 117.55 4.09333 117.53 3.94C117.517 3.78667 117.487 3.63333 117.44 3.48C117.527 3.34667 117.637 3.23667 117.77 3.15C117.903 3.06333 118.047 2.99 118.2 2.93C118.36 2.87667 118.53 2.83333 118.71 2.8C118.89 2.76 119.08 2.71667 119.28 2.67C119.647 2.55667 119.973 2.46667 120.26 2.4C120.547 2.34 120.83 2.28667 121.11 2.24C121.39 2.2 121.68 2.16333 121.98 2.13C122.28 2.09 122.62 2.03333 123 1.96C123.087 2.04667 123.163 2.09 123.23 2.09C123.27 2.00333 123.313 1.97667 123.36 2.01C123.413 2.04333 123.437 2.02 123.43 1.94C123.517 2.09333 123.63 2.22333 123.77 2.33C123.917 2.43 124.077 2.51667 124.25 2.59ZM125.98 8.87C125.88 9.23667 125.793 9.51333 125.72 9.7C125.64 9.88667 125.523 10.08 125.37 10.28C125.25 10.26 125.167 10.2733 125.12 10.32C125.073 10.3667 125.023 10.4067 124.97 10.44C124.89 10.46 124.83 10.46 124.79 10.44C124.757 10.42 124.727 10.4 124.7 10.38C124.673 10.3533 124.637 10.33 124.59 10.31C124.55 10.29 124.49 10.28 124.41 10.28C124.39 10.2067 124.37 10.1367 124.35 10.07C124.323 10.01 124.26 9.98667 124.16 10C124.18 9.92667 124.187 9.86667 124.18 9.82C124.167 9.76667 124.153 9.72 124.14 9.68C124.127 9.64 124.117 9.6 124.11 9.56C124.103 9.52 124.107 9.46667 124.12 9.4C124.073 9.4 124.037 9.37 124.01 9.31C123.983 9.24333 123.953 9.17667 123.92 9.11C123.947 8.95 123.973 8.79667 124 8.65C124.027 8.50333 124.06 8.36667 124.1 8.24C124.14 8.11333 124.177 7.98667 124.21 7.86C124.237 7.73333 124.22 7.6 124.16 7.46C124.2 7.48667 124.23 7.48 124.25 7.44C124.263 7.4 124.277 7.34667 124.29 7.28C124.297 7.20667 124.3 7.13667 124.3 7.07C124.3 7.00333 124.297 6.94667 124.29 6.9C124.377 6.66 124.45 6.41667 124.51 6.17C124.57 5.91667 124.627 5.66667 124.68 5.42C124.727 5.17333 124.777 4.93333 124.83 4.7C124.89 4.46 124.963 4.24 125.05 4.04C125.15 4.02 125.263 4.03333 125.39 4.08C125.51 4.12 125.583 4.17 125.61 4.23C125.85 4.05 126.06 3.83 126.24 3.57C126.427 3.31 126.613 3.05667 126.8 2.81C126.993 2.56333 127.207 2.34667 127.44 2.16C127.673 1.96667 127.967 1.85 128.32 1.81C128.5 1.95 128.703 2.09 128.93 2.23C129.15 2.37 129.333 2.55333 129.48 2.78C129.553 2.82 129.617 2.86 129.67 2.9C129.717 2.94 129.777 2.98333 129.85 3.03V3.19C129.963 3.29 130.053 3.40667 130.12 3.54C130.187 3.67333 130.247 3.81667 130.3 3.97C130.36 4.11667 130.417 4.26667 130.47 4.42C130.523 4.56667 130.587 4.71 130.66 4.85C130.64 4.89667 130.63 4.93333 130.63 4.96C130.63 4.99333 130.637 5.03 130.65 5.07C130.663 5.10333 130.677 5.14 130.69 5.18C130.697 5.21333 130.697 5.26333 130.69 5.33C130.657 5.73 130.527 6.05333 130.3 6.3C130.067 6.54667 129.787 6.75 129.46 6.91C129.127 7.07 128.773 7.20333 128.4 7.31C128.027 7.41667 127.69 7.53667 127.39 7.67C127.39 7.70333 127.407 7.72 127.44 7.72C127.473 7.72 127.483 7.74333 127.47 7.79C127.69 7.92333 127.863 8.03333 127.99 8.12C128.117 8.2 128.237 8.26667 128.35 8.32C128.47 8.37333 128.593 8.42 128.72 8.46C128.853 8.50667 129.04 8.55667 129.28 8.61C129.513 8.66333 129.697 8.70667 129.83 8.74C129.963 8.77333 130.083 8.8 130.19 8.82C130.303 8.84 130.417 8.85667 130.53 8.87C130.643 8.89 130.803 8.90667 131.01 8.92C131.097 9.00667 131.17 9.10667 131.23 9.22C131.283 9.33333 131.32 9.44667 131.34 9.56C131.36 9.67333 131.367 9.78333 131.36 9.89C131.347 9.99 131.313 10.0733 131.26 10.14C131.267 10.1667 131.287 10.1767 131.32 10.17C131.353 10.17 131.387 10.1733 131.42 10.18C131.367 10.22 131.323 10.2667 131.29 10.32C131.25 10.3733 131.213 10.4267 131.18 10.48C131.14 10.5333 131.097 10.58 131.05 10.62C131.01 10.6667 130.947 10.6933 130.86 10.7C130.58 10.8067 130.227 10.8133 129.8 10.72C129.367 10.6267 128.823 10.45 128.17 10.19C127.843 10.0633 127.577 9.95333 127.37 9.86C127.163 9.76667 126.987 9.67 126.84 9.57C126.687 9.47667 126.55 9.37333 126.43 9.26C126.303 9.15333 126.153 9.02333 125.98 8.87ZM127.94 4.18C127.84 4.32667 127.727 4.46 127.6 4.58C127.48 4.69333 127.363 4.81333 127.25 4.94C127.137 5.06 127.033 5.19667 126.94 5.35C126.847 5.49667 126.783 5.67 126.75 5.87C127.07 5.83667 127.403 5.75 127.75 5.61C128.097 5.47 128.423 5.33333 128.73 5.2C128.697 4.92 128.6 4.69333 128.44 4.52C128.28 4.34667 128.113 4.23333 127.94 4.18Z" fill="black"/>
</svg>
