<svg width="143.65" height="17.5" viewBox="0 0 143.65 17.5" xmlns="http://www.w3.org/2000/svg"><path transform="translate(0 13.897) scale(.0068359 -.0068359)" d="m275-39q-275 0-275 324 0 146 50 304.5t146 319.5q98 163 222 293t265 220.5 295 138.5 312 48q109 0 193-21.5t141.5-63 87.5-102 30-138.5q0-107-50-200.5t-137-163-204.5-110.5-251.5-42v11q118 20 213 66.5t161.5 115 102 156.5 35.5 190q0 103-39.5 163.5t-126.5 84.5q-54-23-106.5-66t-87.5-97q-11-16-21-33.5t-22.5-44.5-29-67.5-39.5-102-55-148-75-205.5q-77-212-160-368.5t-174-259-190.5-152.5-209.5-50zm762 1269q34 58 77 109.5t90.5 94.5 99 75.5 103.5 53.5q-24 4-50.5 6t-56.5 2q-150 0-299-47t-286-135-257.5-213-214.5-281q-92-152-139.5-307.5t-47.5-303.5q0-147 51-214t160-67q52 0 97 13t86.5 43 80.5 78 79.5 119 83 166 91.5 218q43 110 75.5 191.5t56.5 140.5 41 99 31 68.5 25 49.5 23 41z"/><path transform="translate(12.168 13.897) scale(.0068359 -.0068359)" d="m342-19q-181 0-279 94.5t-98 281.5q0 51 7.5 108t23.5 117q36 134 101.5 248t150.5 197 183 130 197 47q100 0 157.5-47t57.5-132q0-48-19-94t-55-87-86.5-76.5-113.5-61.5q-78-33-172-49.5t-214-16.5q-29-81-45.5-168.5t-16.5-178.5q0-139 58.5-200.5t184.5-61.5q105 0 200 40.5t176 106.5 148 150.5 117 172.5l52 92 27-19-52-92q-62-109-135.5-201t-160-158.5-185-104-209.5-37.5zm314 1183q-63 0-128.5-37t-126.5-102.5-114-154.5-92-194q110 2 188 19.5t136 44.5q46 21 89.5 54.5t77 76.5 54 93 20.5 104q0 27-8 45t-22 29.5-33 16.5-41 5z"/><path transform="translate(19.394 13.897) scale(.0068359 -.0068359)" d="m-79 1185h292l95 262h148l-95-262h300v-40h-315l-240-660q-14-39-27.5-80t-24-80.5-17-76-6.5-66.5q0-69 37.5-110t113.5-41q74 0 144 28t138 86 135 146.5 135 209.5l52 92 27-19-52-92q-79-140-153-235.5t-146.5-154.5-147-85-154.5-26q-61 0-108 18.5t-78.5 52.5-48 82-16.5 107q0 52 12 114t37 130l240 660h-277z"/><path transform="translate(24.767 13.897) scale(.0068359 -.0068359)" d="m216 1185h148l-255-700q-14-39-28-79.5t-24.5-80-17-76-6.5-67.5q0-69 36.5-110t113.5-41q67 0 129.5 29t124 87.5 123.5 147 129 206.5l52 92 27-19-52-92q-73-129-139.5-223.5t-133-156-135.5-91.5-147-30q-61 0-107.5 18.5t-78 52.5-47.5 82-16 107q0 52 12.5 114t36.5 130zm80 262q0 35 24.5 60t59.5 25 59.5-24.5 24.5-59.5q0-17-6.5-32.5t-18-26.5-27-17.5-33.5-6.5q-35 0-59 23.5t-24 58.5z"/><path transform="translate(29.832 13.897) scale(.0068359 -.0068359)" d="m-79 1185h292l95 262h148l-95-262h300v-40h-315l-240-660q-14-39-27.5-80t-24-80.5-17-76-6.5-66.5q0-69 37.5-110t113.5-41q74 0 144 28t138 86 135 146.5 135 209.5l52 92 27-19-52-92q-79-140-153-235.5t-146.5-154.5-147-85-154.5-26q-61 0-108 18.5t-78.5 52.5-48 82-16.5 107q0 52 12 114t37 130l240 660h-277z"/><path transform="translate(40.271 13.897) scale(.0068359 -.0068359)" d="m1142 1221q33 61 81.5 117.5t106.5 105.5q-88 8-175.5 23.5t-171.5 30.5-164 26-153 11q-93 0-156.5-19t-102-50-55.5-69.5-17-78.5q0-38 14-72.5t41-61 67-42.5 93-16q30 0 64 5t68.5 14.5 67.5 22.5 60 29l20-24q-33-19-69-33.5t-72.5-25-73-16-69.5-5.5q-60 0-106.5 17.5t-79 48-49.5 71.5-17 88q0 63 30 116.5t88.5 92.5 146 61 201.5 22q85 0 170.5-11t172.5-24.5 176-25.5 182-15q80 45 164.5 71.5t169.5 26.5q43 0 58.5-8t15.5-30q0-33-31-61.5t-86-49.5-129-33-161-12q-14 0-28.5 0t-28.5 1q-28-28-47-57-9-13-17.5-29.5t-20-42.5-26.5-63.5-35.5-93.5-49-132.5-65.5-179.5h292v-40h-306q-78-220-167-379t-188-261.5-206-151-221-48.5q-74 0-137.5 19t-110 56.5-73.5 92.5-27 127q0 48 11.5 92t32 77.5 48 54 59.5 20.5q21 0 36-10.5t15-38.5q0-23-11.5-36.5t-28.5-23-37.5-19-37.5-25-28.5-40.5-11.5-66q0-57 21-102t60-76.5 95.5-48.5 127.5-17q53 0 100 11t91 38.5 86 74 85.5 118 90 170.5 99.5 231q18 45 33.5 85t29.5 76h-270v40h285q40 100 65.5 164t43 105 29 65.5 23.5 45.5zm648 383q-63 0-128-19t-125-51q57 1 110.5 7t95 14 67 17.5 25.5 19.5q0 12-45 12z"/><path transform="translate(51.454 13.897) scale(.0068359 -.0068359)" d="m-8 581q35 134 102.5 248t155 197.5 190 130.5 206.5 47q84 0 141.5-28.5t92.5-76.5 50-111 15-132q0-75-14.5-150t-37.5-143q-43-126-111-232.5t-151.5-184.5-177.5-121.5-188-43.5q-71 0-127.5 25.5t-95.5 73.5-60 117.5-21 156.5q0 55 8 112.5t23 114.5zm288-550q72 0 146.5 41t144 114.5 129.5 175.5 103 224q12 33 23.5 74t21.5 85.5 16 91 6 90.5q0 48-9 91.5t-30.5 75.5-58 51-90.5 19q-78 0-154.5-41.5t-145-117-124.5-180.5-93-232q-25-85-38.5-170.5t-13.5-155.5q0-236 167-236z"/><path transform="translate(59.814 13.897) scale(.0068359 -.0068359)" d="m747 1114q0 16-20.5 32.5t-59.5 16.5q-40 0-87-24.5t-107-86.5-134.5-169-168.5-273l-50-88-189-522h-149l432 1185h148l-175-480q82 141 150 236.5t126 154 109 83.5 100 25q66 0 103.5-39t37.5-102q0-26-6.5-49.5t-19-40.5-30.5-27-40-10q-16 0-31.5 5t-27.5 15.5-19.5 25.5-7.5 35q0 16 5.5 32.5t15.5 29 24 20.5 31 8q11 0 21-2 2-2 5.5-3.5t5.5-1.5q8 0 8 14z"/><path transform="translate(66.179 13.897) scale(.0068359 -.0068359)" d="m215 1185h148l-157-429q67 114 126.5 198t118 139.5 120 83 131.5 27.5q61 0 107.5-20t78-56 47.5-87 16-112q0-38-7-82.5t-26-108.5q67 116 127 203t119.5 145.5 122 88 133.5 29.5q62 0 109.5-21t79-56 47.5-82.5 16-99.5q0-56-16.5-123t-41.5-138-54-143.5-54-139.5-41.5-125.5-16.5-102.5q0-61 37.5-101.5t117.5-40.5q129 0 249.5 117t251.5 353l51 92 27-19-52-92q-71-126-137-220.5t-132-156.5-135-93-146-31q-63 0-110 19t-79 52-48 76.5-16 92.5q0 52 16.5 117t41.5 135 54 142.5 54 141 41.5 130 16.5 109.5q0 33-9 62t-28 50.5-48 33.5-69 12q-63 0-121-31.5t-116-93.5-118.5-153-127.5-210l-50-89-210-577h-148l215 593q26 73 46.5 131.5t34.5 106 21 86 7 71.5q0 75-37.5 120.5t-116.5 45.5q-63 0-120.5-31t-115.5-92-118.5-152.5-128.5-212.5l-52-92-210-574h-148z"/><path transform="translate(80.91 13.897) scale(.0068359 -.0068359)" d="m-4 584q36 108 86 196.5t108.5 157.5 123 119 129 82.5 127 48.5 117.5 16q57 0 95-17.5t61.5-49 33.5-76 10-98.5l81 222h148l-255-700q-14-39-28-79.5t-24.5-80-17-76-6.5-67.5q0-69 36.5-110t113.5-41q67 0 130 28.5t124.5 87 123.5 147 128 207.5l51 92 27-19-52-92q-73-130-139.5-224.5t-132.5-156-135-91-147-29.5q-61 0-107.5 18.5t-78 52.5-47.5 82-16 107q0 39 7 84.5t21 94.5q-131-220-259-329.5t-260-109.5q-62 0-105.5 22.5t-71.5 63-41 95-13 119.5q0 70 14 147.5t40 155.5zm213-553q54 0 110 28.5t111.5 78 107.5 116 98.5 142 85.5 155.5 67.5 157.5 44 148 15.5 126.5q0 51-12.5 85.5t-33 56-47 30.5-54.5 9q-56 0-124.5-34.5t-139.5-105-139.5-178-125.5-252.5q-47-121-70.5-224t-23.5-172q0-78 31.5-122.5t98.5-44.5z"/><path transform="translate(91.109 13.897) scale(.0068359 -.0068359)" d="m407 1712h149l-447-1227q-14-39-28-79.5t-24.5-80-17-76-6.5-67.5q0-69 36.5-110t113.5-41q67 0 129.5 29t124 87.5 123.5 147 129 206.5l52 92 27-19-52-92q-73-129-139.5-223.5t-133-156-135.5-91.5-147-30q-61 0-107.5 18.5t-78 52.5-47.5 82-16 107q0 52 12 113.5t37 130.5z"/><path transform="translate(101.23 13.897) scale(.0068359 -.0068359)" d="m1243 1130q38 57 56 107t18 102q0 54-17.5 97t-50.5 74-80.5 47.5-106.5 16.5q-70 0-127.5-23t-98-65-62.5-101-22-131 20-140.5 50-136 65.5-133.5 65.5-132 50-133 20-136q0-70-22-133.5t-61.5-116.5-93.5-96-117.5-73-134.5-46-144-16q-111 0-195 35t-141 93-85.5 133.5-28.5 156.5q0 51 11 98t30.5 83 46 57 57.5 21q27 0 42.5-15t15.5-41q0-21-10.5-34.5t-25.5-22.5-32-15-30-12q-26-12-43.5-41t-17.5-90q0-62 23-126t70.5-116 120.5-84.5 173-32.5q87 0 164.5 26.5t136 78 92.5 129 34 179.5q0 77-18.5 142t-46 124-60 114.5-60 113.5-46 120.5-18.5 136.5q0 94 32.5 173.5t92.5 137.5 144.5 90.5 188.5 32.5q75 0 135.5-17.5t103-50.5 65-80 22.5-106q0-65-28-122.5t-88-116.5z"/><path transform="translate(111.17 13.897) scale(.0068359 -.0068359)" d="m751 945q-34 0-53.5 19.5t-19.5 53.5q0 32 17 52t45 20q10 0 19-4 5-2 7-2.5t4-0.5q9 0 9 13t-10 25.5-27 22-39.5 15-46.5 5.5q-62 0-125.5-36t-123-98.5-112-146.5-91.5-179.5-61.5-197.5-22.5-200q0-74 13.5-126t42-85 73.5-48.5 108-15.5q93 0 181.5 31t171 90.5 157 147 138.5 201.5l52 92 27-19-52-92q-143-254-316-377.5t-378-123.5q-186 0-279.5 96t-93.5 279q0 54 8 111t23 115q36 134 101.5 248t150 197 183 130 200.5 47q107 0 163-56 23-23 35-50.5t12-56.5q0-44-24.5-70t-65.5-26z"/><path transform="translate(118.39 13.897) scale(.0068359 -.0068359)" d="m747 1114q0 16-20.5 32.5t-59.5 16.5q-40 0-87-24.5t-107-86.5-134.5-169-168.5-273l-50-88-189-522h-149l432 1185h148l-175-480q82 141 150 236.5t126 154 109 83.5 100 25q66 0 103.5-39t37.5-102q0-26-6.5-49.5t-19-40.5-30.5-27-40-10q-16 0-31.5 5t-27.5 15.5-19.5 25.5-7.5 35q0 16 5.5 32.5t15.5 29 24 20.5 31 8q11 0 21-2 2-2 5.5-3.5t5.5-1.5q8 0 8 14z"/><path transform="translate(124.76 13.897) scale(.0068359 -.0068359)" d="m216 1185h148l-255-700q-14-39-28-79.5t-24.5-80-17-76-6.5-67.5q0-69 36.5-110t113.5-41q67 0 129.5 29t124 87.5 123.5 147 129 206.5l52 92 27-19-52-92q-73-129-139.5-223.5t-133-156-135.5-91.5-147-30q-61 0-107.5 18.5t-78 52.5-47.5 82-16 107q0 52 12.5 114t36.5 130zm80 262q0 35 24.5 60t59.5 25 59.5-24.5 24.5-59.5q0-17-6.5-32.5t-18-26.5-27-17.5-33.5-6.5q-35 0-59 23.5t-24 58.5z"/><path transform="translate(129.82 13.897) scale(.0068359 -.0068359)" d="m228 1218h148l-161-441q128 214 254.5 320.5t257.5 106.5q61 0 105-23t72-63 41-94.5 13-117.5q0-67-13.5-146.5t-39.5-158.5q-51-156-132.5-272t-178-193.5-199.5-116-197-38.5q-51 0-87.5 12t-59.5 38-35 67-13 98l-263-723h-148zm465-64q-53 0-109.5-30.5t-112.5-82.5-109.5-121-101.5-147-88.5-160-69.5-159.5-45.5-146.5-16.5-120q0-35 8-65.5t25.5-53 44-35 63.5-12.5q48 0 115.5 26.5t142 91.5 150 175 139.5 277q22 57 39 113t29 107.5 18.5 96.5 6.5 80q0 77-31 121.5t-97 44.5z"/><path transform="translate(138.28 13.897) scale(.0068359 -.0068359)" d="m-79 1185h292l95 262h148l-95-262h300v-40h-315l-240-660q-14-39-27.5-80t-24-80.5-17-76-6.5-66.5q0-69 37.5-110t113.5-41q74 0 144 28t138 86 135 146.5 135 209.5l52 92 27-19-52-92q-79-140-153-235.5t-146.5-154.5-147-85-154.5-26q-61 0-108 18.5t-78.5 52.5-48 82-16.5 107q0 52 12 114t37 130l240 660h-277z"/></svg>