<svg width="71" height="12" viewBox="0 0 71 12" fill="none" xmlns="http://www.w3.org/2000/svg">
<path d="M1.76 9.24V1.68C1.76 1.20667 1.69667 0.853333 1.57 0.62C1.43667 0.393333 1.17333 0.28 0.78 0.28H0.5V0H4.14C5.04 0 5.85 0.19 6.57 0.57C7.28333 0.956666 7.64 1.7 7.64 2.8C7.64 3.52667 7.45333 4.08667 7.08 4.48C6.70667 4.87333 6.29 5.13333 5.83 5.26C5.37 5.39333 4.94667 5.46 4.56 5.46H3.02V9.24H1.76ZM4.07 4.97C4.37 4.97 4.69 4.89333 5.03 4.74C5.36333 4.58667 5.65 4.34 5.89 4C6.12333 3.66667 6.24 3.24333 6.24 2.73C6.24 2.21667 6.12333 1.79333 5.89 1.46C5.65 1.12 5.36333 0.873333 5.03 0.72C4.69 0.566666 4.37 0.49 4.07 0.49C3.74333 0.49 3.39333 0.536666 3.02 0.63V4.83C3.39333 4.92333 3.74333 4.97 4.07 4.97ZM9.02 9.24V1.68C9.02 1.20667 8.95333 0.853333 8.82 0.62C8.68667 0.393333 8.42667 0.28 8.04 0.28H7.76V0H9.02C9.36 0 9.61667 0.043333 9.79 0.13C9.96333 0.223333 10.0867 0.386667 10.16 0.62C10.24 0.853333 10.28 1.20667 10.28 1.68V3.22C10.4733 3.02667 10.7267 2.86 11.04 2.72C11.3533 2.58667 11.7067 2.52 12.1 2.52C12.8 2.52 13.37 2.70667 13.81 3.08C14.2567 3.45333 14.48 4.10667 14.48 5.04V9.24H13.22V5.04C13.22 4.38667 13.0733 3.91 12.78 3.61C12.48 3.30333 12.1133 3.15 11.68 3.15C11.18 3.15 10.7133 3.39667 10.28 3.89V9.24H9.02ZM17.16 1.82C16.9467 1.82 16.7633 1.73 16.61 1.55C16.4567 1.37667 16.38 1.16667 16.38 0.92C16.38 0.726666 16.4367 0.573333 16.55 0.46C16.67 0.346666 16.8267 0.29 17.02 0.29C17.24 0.29 17.4267 0.38 17.58 0.56C17.7333 0.74 17.81 0.95 17.81 1.19C17.81 1.38333 17.75 1.53667 17.63 1.65C17.5167 1.76333 17.36 1.82 17.16 1.82ZM16.63 9.24V4.34C16.63 3.86667 16.5667 3.51333 16.44 3.28C16.3067 3.05333 16.0433 2.94 15.65 2.94H15.37V2.66H16.63C16.9767 2.66 17.2367 2.70333 17.41 2.79C17.5833 2.88333 17.7067 3.04667 17.78 3.28C17.8533 3.51333 17.89 3.86667 17.89 4.34V9.24H16.63ZM20.03 9.24V1.68C20.03 1.20667 19.9667 0.853333 19.84 0.62C19.7067 0.393333 19.4433 0.28 19.05 0.28H18.77V0H20.03C20.3767 0 20.6367 0.043333 20.81 0.13C20.9833 0.223333 21.1067 0.386667 21.18 0.62C21.2533 0.853333 21.29 1.20667 21.29 1.68V9.24H20.03ZM26.07 9.38C25.4367 9.38 24.8867 9.23 24.42 8.93C23.9533 8.62333 23.5967 8.21 23.35 7.69C23.11 7.16333 22.99 6.58333 22.99 5.95C22.99 5.31667 23.11 4.73667 23.35 4.21C23.5967 3.69 23.9533 3.27667 24.42 2.97C24.8867 2.67 25.4367 2.52 26.07 2.52C26.7033 2.52 27.2533 2.67 27.72 2.97C28.1867 3.27667 28.54 3.69 28.78 4.21C29.0267 4.73667 29.15 5.31667 29.15 5.95C29.15 6.58333 29.0267 7.16333 28.78 7.69C28.54 8.21 28.1867 8.62333 27.72 8.93C27.2533 9.23 26.7033 9.38 26.07 9.38ZM26.07 8.82C26.4167 8.82 26.72 8.69333 26.98 8.44C27.2467 8.18667 27.4533 7.84333 27.6 7.41C27.7467 6.97 27.82 6.48333 27.82 5.95C27.82 5.41667 27.7467 4.93 27.6 4.49C27.4533 4.05667 27.2467 3.71333 26.98 3.46C26.72 3.20667 26.4167 3.08 26.07 3.08C25.7233 3.08 25.4167 3.20667 25.15 3.46C24.8833 3.71333 24.6767 4.05667 24.53 4.49C24.39 4.93 24.32 5.41667 24.32 5.95C24.32 6.48333 24.39 6.97 24.53 7.41C24.6767 7.84333 24.8833 8.18667 25.15 8.44C25.4167 8.69333 25.7233 8.82 26.07 8.82ZM32.98 9.38C31.9067 9.38 31.1833 9.19333 30.81 8.82C30.6567 8.66 30.56 8.48 30.52 8.28C30.48 8.08 30.46 7.77 30.46 7.35H30.74C30.8267 7.81667 31.03 8.18 31.35 8.44C31.6767 8.69333 32.1267 8.82 32.7 8.82C33.2133 8.82 33.6 8.73 33.86 8.55C34.1133 8.37667 34.24 8.14 34.24 7.84C34.24 7.56667 34.14 7.33333 33.94 7.14C33.74 6.94667 33.42 6.76 32.98 6.58L32.14 6.23C31.58 6.00333 31.16 5.74333 30.88 5.45C30.6 5.15 30.46 4.78 30.46 4.34C30.46 3.77333 30.6767 3.32667 31.11 3C31.5367 2.68 32.09 2.52 32.77 2.52C33.7967 2.52 34.4967 2.70667 34.87 3.08C35.03 3.24 35.13 3.41667 35.17 3.61C35.2033 3.81 35.22 4.12333 35.22 4.55H34.94C34.8667 4.08333 34.6733 3.72 34.36 3.46C34.04 3.20667 33.6033 3.08 33.05 3.08C32.6167 3.08 32.2733 3.17 32.02 3.35C31.7733 3.53667 31.65 3.77333 31.65 4.06C31.65 4.54667 32.0233 4.94333 32.77 5.25L33.61 5.6C34.25 5.86 34.7133 6.13667 35 6.43C35.2867 6.72333 35.43 7.1 35.43 7.56C35.43 8.12667 35.2033 8.57333 34.75 8.9C34.29 9.22 33.7 9.38 32.98 9.38ZM39.73 9.38C39.0967 9.38 38.5467 9.23 38.08 8.93C37.6133 8.62333 37.26 8.21 37.02 7.69C36.7733 7.16333 36.65 6.58333 36.65 5.95C36.65 5.31667 36.7733 4.73667 37.02 4.21C37.26 3.69 37.6133 3.27667 38.08 2.97C38.5467 2.67 39.0967 2.52 39.73 2.52C40.3633 2.52 40.9133 2.67 41.38 2.97C41.8467 3.27667 42.2033 3.69 42.45 4.21C42.69 4.73667 42.81 5.31667 42.81 5.95C42.81 6.58333 42.69 7.16333 42.45 7.69C42.2033 8.21 41.8467 8.62333 41.38 8.93C40.9133 9.23 40.3633 9.38 39.73 9.38ZM39.73 8.82C40.0767 8.82 40.3833 8.69333 40.65 8.44C40.9167 8.18667 41.12 7.84333 41.26 7.41C41.4067 6.97 41.48 6.48333 41.48 5.95C41.48 5.41667 41.4067 4.93 41.26 4.49C41.12 4.05667 40.9167 3.71333 40.65 3.46C40.3833 3.20667 40.0767 3.08 39.73 3.08C39.3833 3.08 39.0767 3.20667 38.81 3.46C38.55 3.71333 38.3467 4.05667 38.2 4.49C38.0533 4.93 37.98 5.41667 37.98 5.95C37.98 6.48333 38.0533 6.97 38.2 7.41C38.3467 7.84333 38.55 8.18667 38.81 8.44C39.0767 8.69333 39.3833 8.82 39.73 8.82ZM44.66 11.9V4.34C44.66 3.86667 44.5933 3.51333 44.46 3.28C44.3333 3.05333 44.0733 2.94 43.68 2.94H43.4V2.66H44.66C45.0133 2.66 45.2833 2.71 45.47 2.81C45.65 2.90333 45.7767 3.06333 45.85 3.29H45.92C46.0867 3.07667 46.3233 2.89333 46.63 2.74C46.9433 2.59333 47.3367 2.52 47.81 2.52C48.61 2.52 49.23 2.84333 49.67 3.49C50.11 4.14333 50.33 4.96333 50.33 5.95C50.33 6.95 50.1033 7.77 49.65 8.41C49.1967 9.05667 48.5367 9.38 47.67 9.38C47.3167 9.38 47.0033 9.34333 46.73 9.27C46.4633 9.19667 46.1933 9.09333 45.92 8.96V11.9H44.66ZM47.25 8.82C47.85 8.82 48.29 8.56 48.57 8.04C48.8567 7.51333 49 6.81667 49 5.95C49 5.09 48.8633 4.39667 48.59 3.87C48.3233 3.34333 47.9233 3.08 47.39 3.08C46.7633 3.08 46.2733 3.36 45.92 3.92V8.4C46.2 8.53333 46.4433 8.63667 46.65 8.71C46.8567 8.78333 47.0567 8.82 47.25 8.82ZM51.98 9.24V1.68C51.98 1.20667 51.9167 0.853333 51.79 0.62C51.6567 0.393333 51.3933 0.28 51 0.28H50.72V0H51.98C52.3267 0 52.5867 0.043333 52.76 0.13C52.9333 0.223333 53.0567 0.386667 53.13 0.62C53.2033 0.853333 53.24 1.20667 53.24 1.68V3.22C53.44 3.02667 53.6967 2.86 54.01 2.72C54.3167 2.58667 54.6667 2.52 55.06 2.52C55.76 2.52 56.3333 2.70667 56.78 3.08C57.22 3.45333 57.44 4.10667 57.44 5.04V9.24H56.18V5.04C56.18 4.38667 56.0333 3.91 55.74 3.61C55.4467 3.30333 55.08 3.15 54.64 3.15C54.1467 3.15 53.68 3.39667 53.24 3.89V9.24H51.98ZM61.95 9.38C61.3167 9.38 60.78 9.23 60.34 8.93C59.9 8.62333 59.57 8.21 59.35 7.69C59.1233 7.17667 59.01 6.59667 59.01 5.95C59.01 5.31667 59.1233 4.73667 59.35 4.21C59.57 3.69 59.8933 3.27667 60.32 2.97C60.7467 2.67 61.2433 2.52 61.81 2.52C62.75 2.52 63.4533 2.78333 63.92 3.31C64.38 3.83667 64.61 4.6 64.61 5.6L64.58 6.16H60.34C60.34 6.94667 60.5067 7.58667 60.84 8.08C61.18 8.57333 61.6433 8.82 62.23 8.82C62.67 8.82 63.04 8.72667 63.34 8.54C63.6467 8.35333 63.93 8.07333 64.19 7.7L64.47 7.91C64.1633 8.42333 63.8033 8.79667 63.39 9.03C62.9833 9.26333 62.5033 9.38 61.95 9.38ZM60.34 5.6H63.28C63.28 4.78 63.16 4.15333 62.92 3.72C62.6733 3.29333 62.3033 3.08 61.81 3.08C61.53 3.08 61.2767 3.19 61.05 3.41C60.83 3.63 60.6567 3.93 60.53 4.31C60.4033 4.69667 60.34 5.12667 60.34 5.6ZM66.33 9.24V4.34C66.33 3.86667 66.2667 3.51333 66.14 3.28C66.0067 3.05333 65.7433 2.94 65.35 2.94H65.21V2.66H66.33C66.6833 2.66 66.9533 2.71 67.14 2.81C67.32 2.90333 67.4467 3.06333 67.52 3.29H67.59C67.7567 3.07667 67.9833 2.89333 68.27 2.74C68.5567 2.59333 68.89 2.52 69.27 2.52C69.6433 2.52 69.9233 2.59 70.11 2.73C70.27 2.85 70.4333 3.06 70.6 3.36L70.04 3.78C69.94 3.64 69.79 3.53333 69.59 3.46C69.3967 3.39333 69.1733 3.36 68.92 3.36C68.64 3.36 68.3833 3.42333 68.15 3.55C67.9167 3.67667 67.73 3.84667 67.59 4.06V9.24H66.33Z" fill="black"/>
</svg>
