<svg width="58" height="11" viewBox="0 0 58 11" fill="none" xmlns="http://www.w3.org/2000/svg">
<path d="M0.5 1.29H5.33C5.95 1.29 6.47333 1.39333 6.9 1.6C7.32667 1.80667 7.65667 2.10333 7.89 2.49C8.12333 2.88333 8.24 3.35667 8.24 3.91C8.24 4.49667 8.10333 5.01 7.83 5.45C7.55667 5.89 7.17333 6.23333 6.68 6.48C6.18 6.72667 5.6 6.85 4.94 6.85H2.64V6.06H5.86C6.28 5.78 6.58667 5.47667 6.78 5.15C6.97333 4.82333 7.07 4.44333 7.07 4.01C7.07 3.37 6.9 2.88667 6.56 2.56C6.22 2.23333 5.72333 2.07 5.07 2.07H3.25V9.76L5.18 10.04V10.46H0.5V10.08C0.66 10 0.86 9.93333 1.1 9.88C1.34667 9.82667 1.64667 9.78667 2 9.76L2.14 2L0.5 1.7V1.29ZM12.74 10.46H9.56V10.12C9.7 10.06 9.85333 10 10.02 9.94C10.18 9.88667 10.3533 9.84667 10.54 9.82L10.67 4.99L9.94 4.08C10.2067 3.92 10.4833 3.79 10.77 3.69C11.0567 3.59 11.3633 3.52333 11.69 3.49V9.84L12.74 10.11V10.46ZM11.32 0.51C11.4733 0.65 11.6033 0.81 11.71 0.99C11.8167 1.17 11.8833 1.35333 11.91 1.54C11.79 1.69333 11.6367 1.82333 11.45 1.93C11.2633 2.03667 11.0767 2.10333 10.89 2.13C10.7433 1.99667 10.6167 1.84 10.51 1.66C10.3967 1.48 10.3233 1.29 10.29 1.09C10.4167 0.943334 10.5733 0.82 10.76 0.72C10.94 0.613334 11.1267 0.543334 11.32 0.51ZM19 10.54C18.7 10.54 18.4267 10.4333 18.18 10.22C17.9333 10.0067 17.7633 9.68667 17.67 9.26L17.83 5.01C17.21 4.51667 16.4467 4.27 15.54 4.27C15.36 4.27 15.1833 4.28333 15.01 4.31C14.83 4.33 14.66 4.36333 14.5 4.41L15.12 4.09L14.87 6.09C14.55 6.03667 14.31 5.93 14.15 5.77C13.99 5.61 13.91 5.41333 13.91 5.18C13.91 4.87333 14.02 4.59333 14.24 4.34C14.46 4.08 14.7567 3.87667 15.13 3.73C15.5033 3.57667 15.9133 3.5 16.36 3.5C16.86 3.5 17.32 3.6 17.74 3.8C18.1667 3.99333 18.54 4.27333 18.86 4.64V9.49L20.24 9.42C20.1933 9.66667 20.1067 9.87333 19.98 10.04C19.8533 10.2067 19.7033 10.3333 19.53 10.42C19.3633 10.5 19.1867 10.54 19 10.54ZM15.86 10.6C15.2133 10.5933 14.6967 10.42 14.31 10.08C13.9233 9.73333 13.73 9.29 13.73 8.75C13.73 8.49 13.79 8.26 13.91 8.06C14.0367 7.86 14.2533 7.67667 14.56 7.51C14.8667 7.35 15.3033 7.18333 15.87 7.01C16.4433 6.83667 17.1733 6.64333 18.06 6.43V7.1L14.71 7.74L15.08 7.56C15.0333 7.7 14.9967 7.85 14.97 8.01C14.95 8.17 14.94 8.31333 14.94 8.44C14.94 8.83333 15.03 9.13333 15.21 9.34C15.39 9.54667 15.6733 9.65 16.06 9.65C16.34 9.65 16.6333 9.59667 16.94 9.49C17.2467 9.38333 17.5733 9.20667 17.92 8.96V9.2C17.6267 9.48667 17.3167 9.75 16.99 9.99C16.6633 10.23 16.2867 10.4333 15.86 10.6ZM26.75 10.46H21V10.15L25.23 4.31L22.05 4.34L21.67 5.9H21.29L21.25 3.63H26.68V3.95L22.45 9.79L25.95 9.76L26.33 8.12H26.7L26.75 10.46ZM33.88 10.46H28.12V10.15L32.35 4.31L29.17 4.34L28.8 5.9H28.42L28.38 3.63H33.81V3.95L29.58 9.79L33.08 9.76L33.46 8.12H33.82L33.88 10.46ZM38.27 10.59C37.6767 10.59 37.1567 10.4467 36.71 10.16C36.27 9.87333 35.9267 9.47333 35.68 8.96C35.44 8.44667 35.32 7.84667 35.32 7.16C35.32 6.42667 35.45 5.79 35.71 5.25C35.97 4.70333 36.3333 4.27333 36.8 3.96C37.2667 3.65333 37.81 3.5 38.43 3.5C39.0367 3.5 39.5633 3.64667 40.01 3.94C40.4567 4.22667 40.8067 4.62667 41.06 5.14C41.3133 5.65333 41.44 6.25667 41.44 6.95C41.44 7.67667 41.3067 8.31333 41.04 8.86C40.7733 9.40667 40.4033 9.83 39.93 10.13C39.4633 10.4367 38.91 10.59 38.27 10.59ZM38.36 9.84C38.7533 9.84 39.0933 9.73 39.38 9.51C39.6667 9.28333 39.8967 8.95667 40.07 8.53C40.2367 8.11 40.32 7.60667 40.32 7.02C40.32 6.44 40.2367 5.95 40.07 5.55C39.91 5.14333 39.68 4.83333 39.38 4.62C39.08 4.40667 38.73 4.3 38.33 4.3C38.0767 4.3 37.8033 4.34667 37.51 4.44C37.2167 4.53333 36.8933 4.67333 36.54 4.86L37.14 4.4C36.9133 4.82 36.74 5.25 36.62 5.69C36.5 6.12333 36.44 6.59 36.44 7.09C36.44 7.65667 36.5233 8.14667 36.69 8.56C36.85 8.98 37.0733 9.29667 37.36 9.51C37.64 9.73 37.9733 9.84 38.36 9.84ZM45.71 10.46H42.53V10.12C42.65 10.0667 42.7867 10.0133 42.94 9.96C43.0933 9.9 43.2833 9.85333 43.51 9.82L43.66 1.57L42.91 0.59C43.1767 0.443334 43.4533 0.316667 43.74 0.21C44.0267 0.11 44.3333 0.04 44.66 0V9.84L45.71 10.11V10.46ZM49.71 10.46H46.53V10.12C46.6567 10.0667 46.7967 10.0133 46.95 9.96C47.1033 9.9 47.29 9.85333 47.51 9.82L47.67 1.57L46.91 0.59C47.1833 0.443334 47.46 0.316667 47.74 0.21C48.0267 0.11 48.3333 0.04 48.66 0V9.84L49.71 10.11V10.46ZM56.11 10.54C55.81 10.54 55.5367 10.4333 55.29 10.22C55.0433 10.0067 54.8733 9.68667 54.78 9.26L54.95 5.01C54.3233 4.51667 53.5567 4.27 52.65 4.27C52.4767 4.27 52.3 4.28333 52.12 4.31C51.94 4.33 51.7733 4.36333 51.62 4.41L52.23 4.09L51.98 6.09C51.66 6.03667 51.4233 5.93 51.27 5.77C51.11 5.61 51.03 5.41333 51.03 5.18C51.03 4.87333 51.14 4.59333 51.36 4.34C51.58 4.08 51.8767 3.87667 52.25 3.73C52.6233 3.57667 53.0333 3.5 53.48 3.5C53.9733 3.5 54.4333 3.6 54.86 3.8C55.28 3.99333 55.65 4.27333 55.97 4.64V9.49L57.36 9.42C57.3133 9.66667 57.2267 9.87333 57.1 10.04C56.9733 10.2067 56.8233 10.3333 56.65 10.42C56.4767 10.5 56.2967 10.54 56.11 10.54ZM52.97 10.6C52.33 10.5933 51.8167 10.42 51.43 10.08C51.0433 9.73333 50.85 9.29 50.85 8.75C50.85 8.49 50.91 8.26 51.03 8.06C51.15 7.86 51.3633 7.67667 51.67 7.51C51.9767 7.35 52.4167 7.18333 52.99 7.01C53.5567 6.83667 54.2833 6.64333 55.17 6.43V7.1L51.83 7.74L52.19 7.56C52.1433 7.7 52.1067 7.85 52.08 8.01C52.06 8.17 52.05 8.31333 52.05 8.44C52.05 8.83333 52.14 9.13333 52.32 9.34C52.5067 9.54667 52.79 9.65 53.17 9.65C53.45 9.65 53.7433 9.59667 54.05 9.49C54.3567 9.38333 54.6833 9.20667 55.03 8.96V9.2C54.7433 9.48667 54.4367 9.75 54.11 9.99C53.7833 10.23 53.4033 10.4333 52.97 10.6Z" fill="black"/>
</svg>
