<svg width="35.42" height="18.214" viewBox="0 0 35.42 18.214" xmlns="http://www.w3.org/2000/svg"><path transform="translate(0 13.622) scale(.014 -.014)" d="m314 383-12 19q0 1 2.5 3.5t6 9.5 7.5 18q9 25 9 80 0 1-13 11.5t-13 15.5q0 9 17 47l6 12q0 12-12 23t-24 16l-11 5q-42-35-42-52l6-66q-19-17-19-25t2-10q15-14 15-20.5t-2.5-9-2.5-16.5l1-44q0-22-3-28 15-17 26.5-17t33.5 10 22 18zm200 141-3-65q0-17 3-27v-3q0-20-40-74.5t-51.5-54.5-47-26.5-35.5-34.5q0-6-53.5-14.5t-53.5-10.5q0-99 16-158l5-19q0-7-30.5-21.5t-35.5-19.5q-11-11-47-17-18 0-70 13t-52 23q11 23 19 109l2 30q0 1 4 4 14 7 14 21.5t-17.5 26-17.5 13.5q0 12 14 37l5 9 2 69q0 34-3 37t-3 7l12 50q2 14 2 32 0 52-12 130l-5 28 14 23q0 18-26 71l-9 19q56 49 103 49 65-7 69-12 10-11 21-48l4-13q7-5 11-5t5 2q29 41 36 60 57 3 83 3l11-1h2q13-2 42-11.5t35-15.5q31-31 60-97 10-22 13-24v-1q0-3-15.5-20.5t-15.5-22.5v-1q0-10 8-16.5t19-6.5q9 0 9-26z"/><path transform="translate(7.336 13.622) scale(.014 -.014)" d="m41 667 8 55q0 5-2 17v1q0 6 12 17.5t40.5 23 63.5 11.5q31-6 31-13v-1q-5-20-5-36t3-19 12-6 11-5q3-13 3-26.5t-3-22.5-27.5-33-32.5-24q-32 0-60 13t-41 26.5-13 21.5zm166-382-5-162q0-47 5-58 20-44 20-53t-1-10-23-8q-71-25-79-28.5t-21.5-3.5-47.5 14-34 22l14 121q0 3 13 10t13 14-13.5 17-13.5 12v1q6 23 6 64l-7 119q0 2 7 10t7 23-11.5 45.5-11.5 38.5q0 6 45 34t63 28q93-4 93-14 0-19-11.5-68.5t-11.5-67 2-33.5q-27-17-27-39 12-11 28-11 2 0 2-17z"/><path transform="translate(10.808 13.622) scale(.014 -.014)" d="m244 389q-2 2-2 13.5t9 34.5q0 8-14 8l-16-2q-17-8-32-43 3-19 3-37.5t-5-23.5q1-5 3.5-12t16.5-19 36-12q7 0 8 13t2 30 5.5 21.5 4.5 8.5q0 9-19 20zm170-235 8-78q0-6-2.5-12t-22-28-22-30.5-35-21-43-12.5-12 2-5.5 11q-8 23-17 23-12 0-24.5-15t-13.5-15q-58 0-107 20-18 7-18 12 0 12-58 63l-20 17q-8 7-12.5 64t-4.5 94.5 1 38.5 13 7.5 16 10.5 4 11l-2 12q-20 20-20 21 0 9 22 56.5t38 63.5q119 69 171 69 106-1 119-14 47-65 47-124-24-11-30.5-17t-6.5-19 12-13l22 4q3 0 3-2 0-81-47-128-13-13-65.5-24.5t-66.5-11.5q-4 0-22 16t-19.5 16-10.5-10-9-17q16-48 38-70 8-8 36-8 84 0 124 40 12 16 16.5 16t15-4.5 10.5-8.5z"/><path transform="translate(16.926 13.622) scale(.014 -.014)" d="m252 337-1 67q0 18 1 23v1q0 3-5 3t-22-10-20.5-13.5-7-24.5-3.5-32.5 1-14.5v-2q0-4-11.5-17.5t-11.5-27.5 7-21 7-13q-4-20-4-39.5t7-26.5q20-17 28-17t23 26.5 15 34.5-10.5 16.5-10.5 11.5l13 34q5 5 5 42zm156-366q-12-12-46-18l-12-2-71 14q-19 19-34 47l-5 10q9 21 15 52l2 11q-3 3-9 3-12 0-31-17-3-3-9-23-17-58-23-58-72 0-96 9-10 4-52 58l-14 18-12 57 13 9q12 9 12 15 0 11-26 25-5 5-5 40l1 40 14 9q13 9 13 17t-10 18.5-10 14.5q0 17 14 67t17 52.5 38.5 27 42.5 31.5q29 29 122 29 5 0 5 43t-6 67q12 6 12 23-25 71-25 77.5t49.5 34 67.5 27.5q90 0 90-9-14-74-14-105-33-16-33-33.5t20-17.5q7 0 8-1t1-10-8-62-8-72q12-6 12-11-6-53-6-119.5t5-113.5q-37-30-37-46 8-22 27-22 5-123 28-145 15-28 15-32t-7.5-8-18-9.5-16.5-11.5z"/><path transform="translate(23.366 13.622) scale(.014 -.014)" d="m132 567 30-3q9 0 18 3 17-21 17-29-10-36-10-84 3-18 16-18 71 105 92 105 50-3 84-38 13-40 13-81-5-69-11-74-17-5-24-5h-2q-36 24-59 24t-65-38-42-53q1-26 11-26 8 3 16 3t8-6q-5-68-5-106.5t3-45.5q-7-17-7-23t9.5-27 9.5-27q0-9-47.5-34t-65-25-59.5 3.5-42 11.5q0 2 6.5 35t6.5 61l11 7q11 7 11 19.5t-27 27.5q5 21 10 125l1 33-15 67q0 1 7 7.5t7 19.5-13 58-13 57 3 14 12 6.5 15 8.5 18.5 13.5 21.5 16.5q26 17 50 17z"/><path transform="translate(28.924 13.622) scale(.014 -.014)" d="m259 211 3 50q0 7-2 7-13 0-44.5-16t-31.5-28q8-13 8-20.5t-3-10.5q-12-5-12-15.5t13.5-24 22.5-13.5 31 17.5 22 25.5l-1 2q-6 6-6 26zm164 43 5-76q0-9-2-9-33-20-33-47 0-8 15-14l15-6 8-53 18-33q0-2-9-8-26-19-40-19-23 0-52-17l-9-5h-2q-16 0-64 18l-16 6q-2 2-2 9l3 47v4l-13 4q-3 0-11-11-13-17-63-50l-17-11q-29 0-57.5 18t-43.5 34.5-15 18.5 4 5q10 9 10 19 0 18-36 27l-11 3q0 45 8.5 87t16.5 61l9 20q12 16 76 50t104 34q3 0 10.5-6.5t13-6.5 13.5 5q17 9 17 15 0 15-14 39-11 11-71 17l-20 2q-20 0-56-14.5t-38-14.5-10 12-8 17.5 18.5 41 25.5 40.5q12 7 74 24t89 17q44-29 77.5-36.5t64.5-30 31-44.5q0-2-9.5-21t-9.5-31 5-21l6-9q0-50-3-57-11-22-11-24l9-14z"/></svg>