<svg width="48.118" height="19.264" viewBox="0 0 48.118 19.264" xmlns="http://www.w3.org/2000/svg"><path transform="translate(0 15.75) scale(.014 -.014)" d="m29 0v17l77 61v534l-77 61v17h191v-612l90-61v-17zm263 278h-124v52h133q67 0 109.5 43t42.5 112q0 71-41 112t-111 41h-151v52h173q78 0 134.5-24t88-67.5 31.5-102.5q0-66-35.5-115t-99-76-150.5-27z"/><path transform="translate(8.666 15.75) scale(.014 -.014)" d="m34 0v15l87 71-16-28v609l43-67-115 89v17l153 59h25v-709l-15 29 86-70v-15z"/><path transform="translate(12.894 15.75) scale(.014 -.014)" d="m412-12-27 78h-10v237q0 67-30 101t-89 34q-31 0-59.5-13t-46.5-35l5 83h83l-107-140h-18l-53 114q26 15 59 26t70 17.5 74 6.5q109 0 163.5-43.5t54.5-130.5v-238l-41 61 106-80v-17l-115-61zm-216-1q-66 0-107.5 36.5t-41.5 94.5q0 134 210 169l152 24v-43l-107-26q-81-19-113.5-42.5t-32.5-64.5q0-33 22-52t61-19q92 0 151 62v-60h-14q-38-40-82-59.5t-98-19.5z"/><path transform="translate(20.804 15.75) scale(.014 -.014)" d="m269-13q-52 0-91 22t-60 61.5-21 93.5v303l43-59h-127v17l166 188h24v-420q0-64 23.5-96.5t72.5-32.5q67 0 113 55l28-19q-23-51-68.5-82t-102.5-31zm122 412-210 27v48l207 24h14v-92z"/><path transform="translate(27.146 15.75) scale(.014 -.014)" d="m264-61-226 510h36v-64l-72 84v15h228v-15l-69-68h-11v47l176-397-33-3 149 412v-56h-11l-72 65v15h210v-15l-71-81v61h37l-356-700h-18l-94 88v14l199 144z"/><path transform="translate(35.14 15.75) scale(.014 -.014)" d="m315-13q-89 0-145 42v93q24-39 62-59t87-20q46 0 80 24.5t53.5 68 19.5 101.5q0 86-34.5 133.5t-98.5 47.5q-43 0-77-17t-66-55v64h14q30 40 75 63t91 23q64 0 110-29t71.5-82.5 25.5-126.5q0-79-34-140t-95-96-139-35zm-281-222v15l87 71-16-28v567l43-66-115 90v17l153 58h25l-6-79h6v-589l-15 26 110-67v-15z"/><path transform="translate(43.89 15.75) scale(.014 -.014)" d="m34 0v15l87 71-16-28v332l43-65-115 89v17l153 58h25v-433l-15 29 86-70v-15zm126 560q-35 0-56 20t-21 52q0 31 21 51t56 20q34 0 55-20t21-51q0-32-21-52t-55-20z"/></svg>