<svg width="101.04" height="27.048" viewBox="0 0 101.04 27.048" xmlns="http://www.w3.org/2000/svg"><path transform="translate(0 19.992) scale(.014 -.014)" d="m444 378q-19-1-27.5 9.5t-6.5 32.5q2 20 11.5 30t26.5 10q89 5 161.5 30t124.5 69 79.5 102.5 27.5 128.5q0 69-35 105.5t-97 36.5q-41 0-82.5-19.5t-79.5-56.5-70.5-88-57-113-39.5-133l-96-508q-2-14-13-21t-34-7q-22 0-33 7t-8 22l140 785q-21-28-46.5-52.5t-54.5-46.5-64-44q-18-11-31.5-5.5t-23.5 23.5-6.5 31 20.5 23q59 34 104 73t78 85 56 101q7 16 17.5 21.5t32.5 5.5 32.5-7 8.5-22l-25-154q39 59 85.5 100t98 62 105.5 21q63 0 110-26.5t73-75.5 26-117q0-89-36-163.5t-101-130.5-154.5-88-196.5-36z"/><path transform="translate(12.166 19.992) scale(.014 -.014)" d="m-124-17q-19 0-26 11.5t-5 26 12.5 26 28.5 11.5q29 0 63.5 17.5t72.5 49 77 74.5 78 94.5 74 108.5 65 117.5 52 120.5 34.5 118 12.5 110q0 15 13 22.5t30 7.5 30-7.5 13-22.5q0-52-14-112t-39.5-125-60-130.5-75.5-129-86-121.5-91-106.5-92-84.5-88.5-56-78.5-20zm312 1q-34 0-53 12t-27 32-7.5 46 5.5 54l121 693q18 103 56.5 150.5t102.5 47.5q36 0 62-18t39.5-51.5 13.5-81.5q0-19-13-28t-30-9-30 9-13 28q0 23-4 38.5t-12.5 23.5-21.5 8q-15 0-26.5-12t-21-40-18.5-77l-126-702q-3-15-2.5-25.5t5.5-16 15-5.5q11 0 20.5 5.5t18.5 15.5 18 23q6 8 15.5 9t22.5-7q14-9 16-19t-3-20q-10-19-28-38.5t-42-32-53-12.5z"/><path transform="translate(17.682 19.992) scale(.014 -.014)" d="m201-17q-46 0-80 23t-52.5 67-18.5 107q0 48 11.5 96.5t34.5 92 56.5 77.5 78.5 53.5 100 19.5q32 0 64-9t61-25l1 4q3 15 13 20.5t30 5.5q27 0 36.5-8t5.5-25l-67-375q-2-15-1.5-25.5t5.5-16 15-5.5q11 0 20 5.5t18.5 15.5 18.5 23q6 8 15.5 9.5t21.5-6.5q14-9 17-19.5t-3-20.5q-9-19-27-38t-42-32-53-13-47 9-27.5 25-12.5 36-2 41q1 6 1 12t0 13q-30-49-62.5-79t-65-44-63.5-14zm-62 205q0-38 9.5-66.5t28-43.5 46.5-15q34 0 68.5 26t68 75.5 62.5 119.5l21 129q-29 16-56 21.5t-53 5.5q-39 0-70-14.5t-54.5-40-39-58-23.5-68-8-71.5z"/><path transform="translate(26.39 19.992) scale(.014 -.014)" d="m437-5q18 12 36.5 23.5t35.5 22 32 19 27 13.5q16 8 26 2t14-19 0.5-26.5-16.5-20.5q-17-10-36.5-22t-40.5-25-41.5-27-40.5-27zm-232-514q-40 0-70 16t-46.5 44-16.5 64q0 39 13.5 75.5t40.5 72.5 67 72.5 92 74.5q24 16 48.5 32.5t49.5 33.5l29 164q-21-37-45.5-64.5t-51-45.5-54-27-55.5-9q-49 0-81 20.5t-43.5 62-0.5 103.5l55 316q4 17 14 23t30 6q27 0 36.5-8t5.5-25l-56-316q-6-34-2.5-57.5t19.5-35 47-11.5q30 0 60.5 18.5t59 52.5 54 81 45.5 103l26 169q4 17 14 23t31 6q26 0 36-8t6-25l-132-737q-13-67-33-117t-48-82.5-63.5-48.5-80.5-16zm11 77q23 0 43 12t36 35.5 28.5 59.5 21.5 83l19 117q-14-9-29-19t-29-20q-37-28-64-55t-45-53-27-51-9-50q0-18 6.5-31.5t18.5-20.5 30-7z"/><path transform="translate(35.35 19.992) scale(.014 -.014)" d="m204-19q-40 0-67 15.5t-41 42-16.5 62 3.5 75.5l53 310q3 15 12.5 22t32.5 7q27 0 36-8t5-25l-53-304q-5-32-4-58.5t14-43 44-16.5q25 0 48.5 14.5t44.5 40 38 57.5 29 68l45 246q3 15 12.5 22t30.5 7q29 0 37.5-8t4.5-24l-44-270q-4-31-6.5-58.5t1-49 17.5-33 42-11.5q30 0 57 16t49.5 43.5 39 63 25.5 74 9 76.5q0 23-2.5 44.5t-8 42.5-14.5 41q-7 18-3.5 30.5t15.5 19.5 28 7q17 0 27-10.5t17-31.5q9-18 15.5-39.5t10-45.5 3.5-50q0-46-12.5-96t-36-97-58-85-78.5-60.5-97-22.5q-41 0-69 14t-44 40.5-22 61.5q-20-36-46-62t-57-40-67-14z"/><path transform="translate(47.334 19.992) scale(.014 -.014)" d="m92-15q-19 0-31.5 7t-8.5 23l84 471q4 17 13.5 23t29.5 6q27 0 37-8t6-25l-19-111q22 37 46 64.5t48.5 46 49 28 46.5 9.5q26 0 47.5-9.5t32.5-22.5q10-9 10-20t-10-26-20.5-19.5-21.5 2.5q-14 7-26 11.5t-26 4.5q-25 0-53.5-18.5t-57.5-52-55.5-80-46.5-102.5l-28-176q-2-13-13-19.5t-33-6.5z"/><path transform="translate(53.69 19.992) scale(.014 -.014)" d="m159-16q-56 0-77 36.5t-6 105.5l59 360q4 17 14 23t30 6q27 0 36.5-8t5.5-25l-65-374q-5-25 0-36.5t20-11.5q11 0 20 5.5t17.5 15.5 18.5 23q6 8 15.5 9t21.5-7q14-8 16.5-18t-3.5-20q-13-25-32-44t-41.5-29.5-49.5-10.5zm54 685q-24 0-38 14t-14 42q0 29 16 49.5t49 20.5q24 0 38-14t14-43-16-49-49-20z"/><path transform="translate(57.89 19.992) scale(.014 -.014)" d="m195-16q-45 0-69 19.5t-30.5 55 3.5 82.5l46 279h-78q-12 0-17 9.5t-3 30.5q4 21 12 30.5t21 9.5h80l36 201q3 17 13 23t30 6q27 0 37-8t6-25l-35-197h126q13 0 18.5-9t1.5-31q-3-20-11-30t-21-10h-128l-53-294q-7-35 0.5-50.5t27.5-15.5q25 0 46.5 16t40.5 43q8 10 18 11t23-8q15-8 17.5-18.5t-2.5-20.5q-14-26-36.5-48.5t-52-36.5-67.5-14z"/><path transform="translate(63.322 19.992) scale(.014 -.014)" d="m265-18q-40 0-74 15t-60.5 41-45 61-28 74.5-9.5 81.5q0 37 8 74.5t25 71.5 42 60.5 58.5 42 75.5 15.5q41 0 69.5-16.5t43.5-45 15-64.5q0-45-21.5-91t-57-88.5-79.5-78.5q-51-44-110-78.5t-119-54-113-19.5q-14 0-21 11.5t-5 26 13 26 33 11.5q41 0 88.5 17t95 46 87.5 65q33 28 60 60.5t43.5 66 16.5 64.5q0 33-13.5 47.5t-39.5 14.5q-24 0-43.5-15.5t-34-42-22-58.5-7.5-65q0-39 10.5-74.5t30.5-63 46-43 57-15.5q27 0 50.5 10.5t46 29 43.5 40.5q13 14 26.5 12t25.5-13q13-12 15.5-24t-8.5-26q-31-39-66.5-63t-73-35-74.5-11z"/><path transform="translate(73.738 19.992) scale(.014 -.014)" d="m277-519q-45 0-79.5 19t-53.5 53.5-19 80.5q0 63 34.5 125.5t107.5 128.5 188.5 140.5 277.5 161.5q16 9 28 5t22-21q10-18 7-32t-19-23q-119-64-210-119t-156-104-106.5-92.5-61-84-19.5-79.5q0-34 17.5-54t48.5-20q29 0 54.5 16t47.5 45.5 39.5 67.5 30 82 19.5 91.5 7 93.5q0 47-4.5 86t-15 68.5-29.5 49.5-48.5 31-70.5 13q-14 1-22 12t-10 27 5 30 22 20q108 43 191 92t140 105 86 119 29 132q0 58-25 99t-71.5 62.5-111.5 21.5q-60 0-116.5-16t-109-45.5-102.5-69.5q-14-11-27-8t-26 19q-13 17-12 31.5t16 26.5q65 51 127.5 83.5t126.5 48 132 15.5q90 0 155.5-31t101-90.5 35.5-143.5q0-79-29.5-149.5t-86.5-132-139.5-112.5-189.5-92l1-2q45-5 77-28t52-61.5 30-91 10-117.5q0-49-7.5-99t-21-98-33-90.5-44-78.5-54.5-62-64-40.5-72-14.5z"/><path transform="translate(85.82 19.992) scale(.014 -.014)" d="m395-17q-65 0-119 25t-93.5 73-61 118.5-21.5 162.5q0 89 19 171.5t54 155.5 84.5 133 109.5 103 129.5 66.5 145.5 23.5q51 0 97.5-12.5t86-36.5 68.5-59l15 81q3 14 14.5 20.5t33.5 6.5 32.5-7 7.5-22l-145-806q-6-29-7-50.5t3-35 12.5-20.5 22.5-7q15 0 30 9.5t31 28.5 33 47q11 17 23 20.5t29-5.5q16-8 19.5-21t-5.5-29q-15-29-34.5-54t-42-43-46.5-27.5-48-9.5q-47 0-74.5 21.5t-36 64.5 2.5 105l15 116q-38-72-82.5-129t-93-97-101-60.5-107.5-20.5zm-203 380q0-75 16-130t45-92 67.5-55 84.5-18q49 0 97 22t94 64.5 88 104 80 141.5 71 176l41 228q-39 63-98.5 94.5t-143.5 31.5q-60 0-116.5-20.5t-106-59-89.5-91-69-115.5-45-134.5-16-146.5z"/></svg>