<?xml version="1.0" encoding="utf-8" ?>
<svg baseProfile="tiny" height="100%" version="1.2" width="100%" xmlns="http://www.w3.org/2000/svg" xmlns:ev="http://www.w3.org/2001/xml-events" xmlns:xlink="http://www.w3.org/1999/xlink"><defs /><g><path d="M438 365Q421 364 412.5 375.5Q404 387 404 403Q404 419 410.0 429.0Q416 439 431 440Q494 442 546.5 456.0Q599 470 641.0 494.0Q683 518 711.5 551.0Q740 584 755.0 624.5Q770 665 770 712Q770 757 751.0 791.5Q732 826 696.5 848.5Q661 871 611.0 882.0Q561 893 500 893Q424 893 356.5 877.5Q289 862 232.5 830.0Q176 798 131 747Q119 733 106.0 730.0Q93 727 77 737Q61 749 58.5 762.0Q56 775 68 791Q102 837 149.0 871.0Q196 905 253.0 928.0Q310 951 374.0 962.5Q438 974 506 974Q592 974 658.0 956.5Q724 939 769.5 905.5Q815 872 838.0 823.5Q861 775 861 712Q861 653 842.0 602.0Q823 551 786.5 509.0Q750 467 698.5 436.5Q647 406 581.5 387.5Q516 369 438 365ZM204 -17Q161 -17 127.0 0.5Q93 18 70.0 42.5Q47 67 36 85Q25 103 26.0 117.5Q27 132 45 142Q63 152 75.0 148.0Q87 144 100 129Q116 109 131.5 95.5Q147 82 165.0 75.0Q183 68 205 68Q241 68 257.0 96.0Q273 124 273 187V773Q273 787 284.0 793.5Q295 800 317 800Q339 800 350.0 793.5Q361 787 361 773V181Q361 121 344.0 76.0Q327 31 292.5 7.0Q258 -17 204 -17Z" transform="translate(0.0, 72) scale(0.072, -0.072)" /><path d="M-68 -17Q-87 -17 -96.0 -5.5Q-105 6 -105.0 20.5Q-105 35 -96.0 46.5Q-87 58 -68 58Q-39 58 -10.0 72.0Q19 86 47.5 112.5Q76 139 103.0 175.5Q130 212 154.5 257.0Q179 302 200.0 353.5Q221 405 238.5 461.0Q256 517 268.5 576.0Q281 635 287.5 695.0Q294 755 294 813Q294 828 307.0 835.5Q320 843 337.0 843.0Q354 843 367.0 835.5Q380 828 380 813Q380 757 372.0 696.0Q364 635 349.0 572.5Q334 510 312.5 448.5Q291 387 265.0 329.0Q239 271 209.0 219.0Q179 167 145.5 124.0Q112 81 76.5 49.0Q41 17 4.5 0.0Q-32 -17 -68 -17ZM220 -17Q195 -17 176.0 -10.0Q157 -3 145.5 10.0Q134 23 128.5 43.0Q123 63 123 88V778Q123 880 156.0 929.0Q189 978 256 978Q297 978 324.5 959.5Q352 941 366.0 904.5Q380 868 380 813Q380 794 367.0 785.0Q354 776 337.0 776.0Q320 776 307.0 785.0Q294 794 294 813Q294 843 289.5 861.5Q285 880 276.0 889.0Q267 898 254 898Q239 898 228.5 886.5Q218 875 213.5 847.5Q209 820 209 773V99Q209 85 212.5 76.0Q216 67 222.5 63.0Q229 59 237 59Q246 59 253.5 62.5Q261 66 268.0 73.0Q275 80 282 88Q289 95 298.5 92.5Q308 90 317 83Q327 74 328.5 64.5Q330 55 325 46Q314 26 297.0 12.0Q280 -2 260.5 -9.5Q241 -17 220 -17Z" transform="translate(64.22399999999999, 72) scale(0.072, -0.072)" /><path d="M250 -17Q195 -17 152.5 11.0Q110 39 86.5 94.0Q63 149 63 232Q63 284 72.5 328.5Q82 373 101.0 408.5Q120 444 147.0 468.5Q174 493 209.0 506.0Q244 519 287 519Q319 519 352.0 509.5Q385 500 415 483V487Q415 501 426.0 508.0Q437 515 459 515Q481 515 491.5 508.5Q502 502 502 488V99Q502 85 505.5 76.0Q509 67 515.5 63.0Q522 59 530 59Q540 59 546.5 62.0Q553 65 559.5 71.5Q566 78 575 88Q581 95 590.0 93.5Q599 92 609 85Q619 76 621.5 65.5Q624 55 619 46Q608 27 591.5 13.0Q575 -1 555.0 -9.0Q535 -17 513 -17Q490 -17 473.0 -11.5Q456 -6 443.5 5.5Q431 17 425.0 33.5Q419 50 416 71Q416 76 415.5 83.0Q415 90 415 98Q393 55 366.0 30.0Q339 5 309.5 -6.0Q280 -17 250 -17ZM151 235Q151 183 163.0 144.0Q175 105 200.0 84.0Q225 63 263 63Q294 63 322.0 80.0Q350 97 374.0 131.5Q398 166 415 217V409Q384 427 355.5 433.5Q327 440 297 440Q270 440 247.5 432.0Q225 424 207.0 407.5Q189 391 176.5 366.5Q164 342 157.5 309.5Q151 277 151 235Z" transform="translate(92.59199999999998, 72) scale(0.072, -0.072)" /><path d="M492 6Q508 16 524.0 26.5Q540 37 555.0 46.0Q570 55 583.0 62.0Q596 69 605 75Q621 82 632.0 76.5Q643 71 648.0 58.0Q653 45 649.5 31.0Q646 17 631 9Q618 1 601.5 -9.0Q585 -19 567.0 -31.0Q549 -43 530.5 -55.0Q512 -67 495 -78ZM323 -478Q279 -478 246.5 -462.0Q214 -446 196.0 -416.0Q178 -386 178 -344Q178 -313 187.5 -281.0Q197 -249 218.0 -217.0Q239 -185 270.5 -152.5Q302 -120 346 -87Q369 -72 390.5 -56.5Q412 -41 434 -26V105Q420 74 400.5 51.0Q381 28 358.5 13.0Q336 -2 311.0 -9.5Q286 -17 259 -17Q207 -17 170.0 2.0Q133 21 113.5 60.5Q94 100 94 161V489Q94 502 104.5 508.5Q115 515 136 515Q158 515 169.0 508.5Q180 502 180 489V163Q180 129 190.0 106.0Q200 83 220.0 71.5Q240 60 271 60Q301 60 326.5 73.0Q352 86 372.5 109.5Q393 133 408.5 165.0Q424 197 434 235V489Q434 502 444.5 508.5Q455 515 477 515Q498 515 509.0 508.5Q520 502 520 489V-216Q520 -278 506.5 -327.0Q493 -376 467.0 -409.5Q441 -443 404.5 -460.5Q368 -478 323 -478ZM329 -400Q354 -400 373.5 -388.0Q393 -376 406.5 -353.0Q420 -330 427.0 -294.5Q434 -259 434 -213V-117Q416 -128 399.0 -139.5Q382 -151 364 -163Q340 -183 321.5 -204.5Q303 -226 291.0 -248.0Q279 -270 273.0 -292.0Q267 -314 267 -336Q267 -356 273.5 -370.5Q280 -385 294.5 -392.5Q309 -400 329 -400Z" transform="translate(137.37599999999998, 72) scale(0.072, -0.072)" /><path d="M268 -17Q233 -17 205.5 -6.0Q178 5 159.0 27.0Q140 49 129.5 82.0Q119 115 119 159V377Q119 413 108.5 427.0Q98 441 77 441Q62 441 51.0 432.5Q40 424 33.0 408.0Q26 392 21 369Q18 353 8.5 347.0Q-1 341 -18 342Q-33 344 -42.0 352.0Q-51 360 -48 383Q-42 423 -26.0 453.0Q-10 483 17.0 499.5Q44 516 80 516Q113 516 137.0 506.5Q161 497 176.0 477.0Q191 457 198.0 428.5Q205 400 205 362V168Q205 134 212.5 109.5Q220 85 237.0 72.5Q254 60 281 60Q303 60 326.0 71.0Q349 82 369.0 105.5Q389 129 401.5 165.5Q414 202 415 250V489Q415 501 426.5 508.0Q438 515 460 515Q483 515 492.5 508.0Q502 501 502 489V206Q502 163 506.5 135.0Q511 107 521.5 91.0Q532 75 548.0 68.0Q564 61 587 61Q608 61 628.0 69.5Q648 78 665.5 94.5Q683 111 696.0 135.5Q709 160 717.0 191.5Q725 223 725 262Q725 297 719.5 331.0Q714 365 703.5 397.5Q693 430 674 460Q663 478 667.5 491.5Q672 505 686.0 512.0Q700 519 715 519Q730 519 738.0 511.5Q746 504 754 490Q769 466 782.5 432.5Q796 399 804.5 358.5Q813 318 813 272Q813 229 803.0 187.0Q793 145 773.5 108.0Q754 71 725.5 42.5Q697 14 660.0 -2.5Q623 -19 577 -19Q542 -19 512.5 -6.5Q483 6 461.5 31.5Q440 57 429 97Q411 60 386.0 35.0Q361 10 331.0 -3.5Q301 -17 268 -17Z" transform="translate(183.45599999999996, 72) scale(0.072, -0.072)" /><path d="M-68 -17Q-87 -17 -96.5 -5.5Q-106 6 -106.5 20.5Q-107 35 -98.0 46.5Q-89 58 -70 58Q-38 58 -11.0 81.5Q16 105 38.5 152.0Q61 199 79.5 270.0Q98 341 112 436L172 425Q158 310 137.0 226.5Q116 143 86.5 89.0Q57 35 19.0 9.0Q-19 -17 -68 -17ZM455 -17Q430 -17 411.0 -10.0Q392 -3 380.5 11.0Q369 25 363.0 45.0Q357 65 357 91Q357 118 359.5 154.5Q362 191 364.5 229.5Q367 268 369.5 304.0Q372 340 372 366Q372 403 363.0 416.0Q354 429 330 429Q303 429 268.0 419.0Q233 409 200.0 399.5Q167 390 147 390Q129 390 112.5 409.5Q96 429 85.0 457.0Q74 485 74 512Q74 530 80.5 544.5Q87 559 98.5 567.0Q110 575 129 575Q160 575 171.0 553.5Q182 532 182 503Q182 495 181.5 486.5Q181 478 179 469Q191 469 218.0 480.0Q245 491 280.0 502.0Q315 513 350 513Q387 513 411.0 499.0Q435 485 446.5 454.5Q458 424 458 373Q458 348 455.5 311.5Q453 275 450.5 235.0Q448 195 445.5 160.0Q443 125 443 102Q443 78 449.5 68.5Q456 59 471 59Q480 59 487.5 62.5Q495 66 502.5 73.0Q510 80 518 88Q525 95 534.5 92.5Q544 90 553 83Q562 74 564.0 64.5Q566 55 561 46Q550 26 533.5 12.0Q517 -2 497.0 -9.5Q477 -17 455 -17Z" transform="translate(247.39199999999994, 72) scale(0.072, -0.072)" /><path d="M192 -17Q141 -17 117.5 10.0Q94 37 94 88V489Q94 502 104.5 508.5Q115 515 136 515Q158 515 169.0 508.5Q180 502 180 489V99Q180 77 188.0 68.0Q196 59 209 59Q219 59 226.0 63.0Q233 67 239.5 73.5Q246 80 254 89Q259 95 269.5 92.5Q280 90 287 83Q297 75 299.0 65.0Q301 55 296 47Q285 27 268.5 13.0Q252 -1 232.5 -9.0Q213 -17 192 -17ZM136 669Q108 669 94.0 684.5Q80 700 80 731Q80 763 94.0 779.0Q108 795 136 795Q164 795 177.5 779.0Q191 763 191 731Q193 700 178.5 684.5Q164 669 136 669Z" transform="translate(288.28799999999995, 72) scale(0.072, -0.072)" /><path d="M239 -17Q199 -17 172.0 -1.5Q145 14 131.5 43.0Q118 72 118 113V420H41Q26 420 19.5 429.0Q13 438 13 460Q13 483 19.5 491.5Q26 500 41 500H118V704Q118 717 128.5 723.5Q139 730 161 730Q183 730 194.0 723.5Q205 717 205 704V500H331Q346 500 352.5 491.5Q359 483 359 460Q359 438 352.5 429.0Q346 420 331 420H205V122Q205 88 214.5 73.5Q224 59 247 59Q269 59 286.0 71.0Q303 83 321 104Q331 115 341.0 113.0Q351 111 361 103Q374 94 375.5 83.5Q377 73 372 64Q356 35 334.5 17.0Q313 -1 289.0 -9.0Q265 -17 239 -17Z" transform="translate(309.888, 72) scale(0.072, -0.072)" /><path d="M297 -17Q254 -17 215.5 1.0Q177 19 146.5 50.5Q116 82 94.0 124.5Q72 167 60.5 215.0Q49 263 49 313Q49 348 57.0 379.5Q65 411 80.0 436.5Q95 462 116.5 480.5Q138 499 164.5 509.0Q191 519 222 519Q274 519 307.5 498.0Q341 477 357.0 442.0Q373 407 373 366Q373 332 360.0 295.0Q347 258 324.0 222.0Q301 186 271 153Q227 104 171.0 65.5Q115 27 53.5 5.0Q-8 -17 -70 -17Q-84 -17 -91.0 -5.5Q-98 6 -96.5 20.5Q-95 35 -84.0 46.5Q-73 58 -51 58Q-7 58 40.5 76.5Q88 95 132.0 125.5Q176 156 209 192Q232 219 249.0 247.0Q266 275 275.0 303.5Q284 332 284 357Q284 404 266.0 422.0Q248 440 217 440Q201 440 186.5 432.5Q172 425 160.5 409.0Q149 393 143.0 370.0Q137 347 137 315Q137 263 151.5 217.0Q166 171 191.5 136.5Q217 102 247.5 82.5Q278 63 308 63Q331 63 350.5 71.5Q370 80 389.5 96.5Q409 113 428 135Q442 151 455.0 150.0Q468 149 482 138Q496 127 498.5 115.5Q501 104 492 90Q466 51 432.5 27.5Q399 4 364.0 -6.5Q329 -17 297 -17Z" transform="translate(337.82399999999996, 72) scale(0.072, -0.072)" /><path d="M247 -19Q200 -19 161.0 -2.0Q122 15 94.0 40.0Q66 65 53 89Q43 106 45.5 118.5Q48 131 65 143Q82 155 94.5 150.0Q107 145 120 131Q142 103 173.0 84.5Q204 66 250 66Q291 66 321.5 85.0Q352 104 369.0 149.0Q386 194 386 270V864Q372 855 354.0 849.5Q336 844 316 844Q296 844 279.0 848.0Q262 852 247.0 857.5Q232 863 217.5 867.0Q203 871 188 871Q172 871 157.5 862.5Q143 854 133.0 838.5Q123 823 119 803Q116 789 106.5 782.0Q97 775 76 777Q55 780 47.5 790.5Q40 801 42 815Q48 858 66.5 889.0Q85 920 116.0 937.5Q147 955 187 955Q210 955 228.0 950.5Q246 946 262.0 940.5Q278 935 293.5 931.0Q309 927 325 927Q344 927 361.5 935.5Q379 944 389 953Q402 965 412.0 969.5Q422 974 435 974Q454 974 463.5 967.5Q473 961 473 947V260Q473 167 444.0 105.0Q415 43 364.5 12.0Q314 -19 247 -19Z" transform="translate(391.392, 72) scale(0.072, -0.072)" /><path d="M480 -17Q395 -17 336.0 21.0Q277 59 246.0 131.5Q215 204 215 305Q215 377 229.5 454.0Q244 531 270.0 607.0Q296 683 331.5 752.5Q367 822 410 877H220Q176 877 147.5 865.5Q119 854 102.0 831.5Q85 809 76 777Q70 759 59.0 753.0Q48 747 28 752Q10 757 4.5 768.0Q-1 779 3 797Q12 832 29.5 861.5Q47 891 75.5 912.5Q104 934 143.0 945.5Q182 957 233 957H737Q752 957 758.0 948.5Q764 940 764 917Q764 895 758.0 886.0Q752 877 737 877H506Q465 826 428.0 757.5Q391 689 363.0 612.0Q335 535 318.5 457.0Q302 379 302 309Q302 234 324.5 179.5Q347 125 388.5 96.5Q430 68 487 68Q520 68 549.5 77.0Q579 86 605.0 104.5Q631 123 653 150Q668 168 680.0 170.5Q692 173 706 165Q723 154 725.5 140.0Q728 126 716 109Q686 63 646.5 35.0Q607 7 564.5 -5.0Q522 -17 480 -17Z" transform="translate(431.856, 72) scale(0.072, -0.072)" /><path d="M480 -17Q395 -17 336.0 21.0Q277 59 246.0 131.5Q215 204 215 305Q215 377 229.5 454.0Q244 531 270.0 607.0Q296 683 331.5 752.5Q367 822 410 877H220Q176 877 147.5 865.5Q119 854 102.0 831.5Q85 809 76 777Q70 759 59.0 753.0Q48 747 28 752Q10 757 4.5 768.0Q-1 779 3 797Q12 832 29.5 861.5Q47 891 75.5 912.5Q104 934 143.0 945.5Q182 957 233 957H737Q752 957 758.0 948.5Q764 940 764 917Q764 895 758.0 886.0Q752 877 737 877H506Q465 826 428.0 757.5Q391 689 363.0 612.0Q335 535 318.5 457.0Q302 379 302 309Q302 234 324.5 179.5Q347 125 388.5 96.5Q430 68 487 68Q520 68 549.5 77.0Q579 86 605.0 104.5Q631 123 653 150Q668 168 680.0 170.5Q692 173 706 165Q723 154 725.5 140.0Q728 126 716 109Q686 63 646.5 35.0Q607 7 564.5 -5.0Q522 -17 480 -17Z" transform="translate(509.184, 72) scale(0.072, -0.072)" /><path d="M-68 -17Q-87 -17 -96.5 -5.5Q-106 6 -106.5 20.5Q-107 35 -98.0 46.5Q-89 58 -70 58Q-38 58 -11.0 81.5Q16 105 38.5 152.0Q61 199 79.5 270.0Q98 341 112 436L172 425Q158 310 137.0 226.5Q116 143 86.5 89.0Q57 35 19.0 9.0Q-19 -17 -68 -17ZM455 -17Q430 -17 411.0 -10.0Q392 -3 380.5 11.0Q369 25 363.0 45.0Q357 65 357 91Q357 118 359.5 154.5Q362 191 364.5 229.5Q367 268 369.5 304.0Q372 340 372 366Q372 403 363.0 416.0Q354 429 330 429Q303 429 268.0 419.0Q233 409 200.0 399.5Q167 390 147 390Q129 390 112.5 409.5Q96 429 85.0 457.0Q74 485 74 512Q74 530 80.5 544.5Q87 559 98.5 567.0Q110 575 129 575Q160 575 171.0 553.5Q182 532 182 503Q182 495 181.5 486.5Q181 478 179 469Q191 469 218.0 480.0Q245 491 280.0 502.0Q315 513 350 513Q387 513 411.0 499.0Q435 485 446.5 454.5Q458 424 458 373Q458 348 455.5 311.5Q453 275 450.5 235.0Q448 195 445.5 160.0Q443 125 443 102Q443 78 449.5 68.5Q456 59 471 59Q480 59 487.5 62.5Q495 66 502.5 73.0Q510 80 518 88Q525 95 534.5 92.5Q544 90 553 83Q562 74 564.0 64.5Q566 55 561 46Q550 26 533.5 12.0Q517 -2 497.0 -9.5Q477 -17 455 -17Z" transform="translate(564.912, 72) scale(0.072, -0.072)" /><path d="M250 -17Q195 -17 152.5 11.0Q110 39 86.5 94.0Q63 149 63 232Q63 284 72.5 328.5Q82 373 101.0 408.5Q120 444 147.0 468.5Q174 493 209.0 506.0Q244 519 287 519Q319 519 352.0 509.5Q385 500 415 483V487Q415 501 426.0 508.0Q437 515 459 515Q481 515 491.5 508.5Q502 502 502 488V99Q502 85 505.5 76.0Q509 67 515.5 63.0Q522 59 530 59Q540 59 546.5 62.0Q553 65 559.5 71.5Q566 78 575 88Q581 95 590.0 93.5Q599 92 609 85Q619 76 621.5 65.5Q624 55 619 46Q608 27 591.5 13.0Q575 -1 555.0 -9.0Q535 -17 513 -17Q490 -17 473.0 -11.5Q456 -6 443.5 5.5Q431 17 425.0 33.5Q419 50 416 71Q416 76 415.5 83.0Q415 90 415 98Q393 55 366.0 30.0Q339 5 309.5 -6.0Q280 -17 250 -17ZM151 235Q151 183 163.0 144.0Q175 105 200.0 84.0Q225 63 263 63Q294 63 322.0 80.0Q350 97 374.0 131.5Q398 166 415 217V409Q384 427 355.5 433.5Q327 440 297 440Q270 440 247.5 432.0Q225 424 207.0 407.5Q189 391 176.5 366.5Q164 342 157.5 309.5Q151 277 151 235Z" transform="translate(605.808, 72) scale(0.072, -0.072)" /><path d="M251 -17Q195 -17 153.0 11.0Q111 39 87.0 94.0Q63 149 63 232Q63 284 73.0 328.5Q83 373 101.5 408.5Q120 444 147.5 468.5Q175 493 211.0 506.0Q247 519 290 519Q321 519 354.5 510.5Q388 502 418 485V948Q418 961 429.0 967.5Q440 974 461 974Q483 974 493.5 967.5Q504 961 504 948V99Q504 77 511.5 68.0Q519 59 533 59Q541 59 548.5 62.5Q556 66 563.0 72.5Q570 79 578 89Q585 95 594.0 92.5Q603 90 612 83Q622 75 624.5 65.0Q627 55 621 47Q610 27 593.5 13.0Q577 -1 557.0 -9.0Q537 -17 515 -17Q479 -17 458.0 -3.0Q437 11 428.0 33.0Q419 55 419 81Q419 86 419.0 90.5Q419 95 419 100Q395 55 367.5 29.5Q340 4 310.0 -6.5Q280 -17 251 -17ZM151 235Q151 184 163.0 145.0Q175 106 200.0 84.5Q225 63 263 63Q295 63 323.0 79.0Q351 95 375.5 129.5Q400 164 418 221V405Q387 425 357.0 432.5Q327 440 297 440Q270 440 247.5 432.0Q225 424 207.0 407.5Q189 391 176.5 366.5Q164 342 157.5 309.5Q151 277 151 235Z" transform="translate(650.592, 72) scale(0.072, -0.072)" /></g></svg>