<?xml version="1.0" encoding="utf-8" ?>
<svg baseProfile="tiny" height="100%" version="1.2" width="100%" xmlns="http://www.w3.org/2000/svg" xmlns:ev="http://www.w3.org/2001/xml-events" xmlns:xlink="http://www.w3.org/1999/xlink"><defs /><g><path d="M503 390Q486 389 480.5 400.5Q475 412 479 429Q484 445 493.5 455.5Q503 466 520 467Q589 469 656.0 483.0Q723 497 781.0 522.5Q839 548 884.0 585.5Q929 623 954.0 672.0Q979 721 979 781Q979 826 960.5 858.5Q942 891 908.0 913.0Q874 935 827.5 946.0Q781 957 724 957Q655 957 580.0 940.5Q505 924 430.5 887.0Q356 850 287 787Q268 769 254.5 770.5Q241 772 227 784Q217 794 216.5 809.0Q216 824 231 840Q284 894 347.0 931.5Q410 969 477.0 992.5Q544 1016 609.0 1027.0Q674 1038 730 1038Q815 1038 879.0 1019.5Q943 1001 985.5 967.0Q1028 933 1049.5 886.5Q1071 840 1071 783Q1071 707 1040.0 646.5Q1009 586 954.5 539.5Q900 493 828.0 461.0Q756 429 673.0 411.5Q590 394 503 390ZM153 -17Q110 -17 76.5 3.5Q43 24 20.5 57.5Q-2 91 -10 129Q-15 148 -10.5 162.0Q-6 176 14 181Q34 187 45.0 180.5Q56 174 62 157Q73 127 87.0 107.0Q101 87 118.0 77.5Q135 68 156 68Q191 68 216.0 96.5Q241 125 265 200L469 834Q474 848 486.5 854.5Q499 861 521 861Q544 861 554.5 854.5Q565 848 559 831L355 196Q334 133 306.0 84.5Q278 36 240.5 9.5Q203 -17 153 -17Z" transform="translate(0.0, 72) scale(0.072, -0.072)" /><path d="M-172 -17Q-191 -17 -196.5 -5.5Q-202 6 -198.0 20.5Q-194 35 -182.0 46.5Q-170 58 -153 58Q-127 58 -89.0 77.5Q-51 97 -5.0 132.5Q41 168 91.0 216.0Q141 264 192.0 320.5Q243 377 291.0 438.5Q339 500 380.5 563.0Q422 626 453.0 687.0Q484 748 502.0 804.0Q520 860 520 906Q520 921 532.5 928.5Q545 936 562.0 936.0Q579 936 592.0 928.5Q605 921 605 906Q605 857 585.5 797.5Q566 738 531.0 672.0Q496 606 449.5 537.5Q403 469 348.5 401.5Q294 334 236.0 272.0Q178 210 120.5 157.5Q63 105 9.0 65.5Q-45 26 -91.5 4.5Q-138 -17 -172 -17ZM155 -15Q116 -15 97.5 1.0Q79 17 75.0 42.5Q71 68 76.5 97.0Q82 126 90 153L313 837Q347 945 391.0 993.5Q435 1042 497 1042Q530 1042 554.0 1025.0Q578 1008 591.5 977.5Q605 947 605 906Q605 887 592.0 878.0Q579 869 562.0 869.0Q545 869 532.5 878.0Q520 887 520 906Q520 922 516.5 934.5Q513 947 505.5 954.0Q498 961 485 961Q470 961 456.0 949.0Q442 937 427.5 906.5Q413 876 394 820L163 107Q158 91 157.0 80.5Q156 70 160.0 65.0Q164 60 172 60Q183 60 194.5 67.0Q206 74 217.5 86.0Q229 98 241 113Q248 123 256.5 125.0Q265 127 278 118Q295 108 297.0 98.0Q299 88 294 77Q285 62 265.5 39.5Q246 17 218.0 1.0Q190 -15 155 -15Z" transform="translate(67.60799999999999, 72) scale(0.072, -0.072)" /><path d="M159 -17Q122 -17 94.5 1.5Q67 20 52.0 54.5Q37 89 37 135Q37 181 50.5 233.0Q64 285 91.5 335.5Q119 386 158.5 427.5Q198 469 250.0 494.0Q302 519 367 519Q397 519 429.0 510.5Q461 502 490 487L491 491Q497 507 506.5 511.0Q516 515 534 515Q565 515 573.5 505.5Q582 496 575 476L452 107Q447 91 446.0 80.5Q445 70 449.0 65.0Q453 60 462 60Q473 60 484.0 67.0Q495 74 506.5 86.0Q518 98 530 113Q538 123 546.5 125.0Q555 127 568 118Q584 108 586.5 98.0Q589 88 584 77Q575 62 555.5 39.5Q536 17 508.0 1.0Q480 -15 445 -15Q410 -15 392.0 -1.0Q374 13 368.5 34.5Q363 56 366.0 81.0Q369 106 375 129Q376 131 376.5 133.5Q377 136 378 139Q338 85 299.5 50.0Q261 15 225.5 -1.0Q190 -17 159 -17ZM128 150Q128 123 135.0 103.5Q142 84 155.5 73.5Q169 63 187 63Q221 63 263.0 95.5Q305 128 350.0 190.5Q395 253 442 342L467 418Q436 431 409.0 435.5Q382 440 358 440Q313 440 276.0 420.5Q239 401 211.5 368.5Q184 336 165.5 297.0Q147 258 137.5 219.5Q128 181 128 150Z" transform="translate(95.97599999999998, 72) scale(0.072, -0.072)" /><path d="M396 -7Q416 6 436.0 18.0Q456 30 474.5 40.5Q493 51 510.5 60.5Q528 70 542 77Q558 84 567.0 77.5Q576 71 579.5 57.5Q583 44 579.0 31.0Q575 18 564 12Q544 1 522.5 -12.0Q501 -25 477.5 -38.5Q454 -52 430.5 -67.0Q407 -82 384 -97ZM102 -542Q66 -542 38.0 -527.0Q10 -512 -5.5 -486.5Q-21 -461 -21 -429Q-21 -390 -5.5 -351.5Q10 -313 40.5 -275.0Q71 -237 115.0 -198.0Q159 -159 217 -117Q248 -97 279.5 -76.0Q311 -55 343 -34L406 159Q377 117 347.0 84.5Q317 52 286.0 29.5Q255 7 223.5 -4.0Q192 -15 161 -15Q112 -15 84.5 8.0Q57 31 53.5 75.5Q50 120 70 182L170 483Q177 503 186.5 509.0Q196 515 215 515Q246 515 254.5 505.5Q263 496 256 476L152 165Q142 136 140.5 113.0Q139 90 151.0 77.0Q163 64 192 64Q224 64 261.5 89.0Q299 114 338.0 159.0Q377 204 414.5 266.0Q452 328 484 402L510 483Q517 503 526.5 509.0Q536 515 555 515Q586 515 594.5 505.5Q603 496 596 476L352 -273Q329 -345 303.5 -396.5Q278 -448 248.5 -480.0Q219 -512 183.0 -527.0Q147 -542 102 -542ZM115 -465Q140 -465 161.5 -451.5Q183 -438 201.0 -413.5Q219 -389 236.0 -352.5Q253 -316 267 -270L308 -143Q292 -154 275.0 -165.0Q258 -176 241 -187Q196 -221 163.0 -252.0Q130 -283 109.0 -311.0Q88 -339 77.5 -365.0Q67 -391 67 -415Q67 -430 73.0 -441.0Q79 -452 89.5 -458.5Q100 -465 115 -465Z" transform="translate(140.76, 72) scale(0.072, -0.072)" /><path d="M198 -19Q152 -19 126.0 0.0Q100 19 90.5 51.0Q81 83 85.0 122.5Q89 162 103 203L172 413Q176 426 172.0 434.5Q168 443 156 443Q145 443 133.0 436.5Q121 430 105.5 414.5Q90 399 69 372Q57 359 47.5 356.0Q38 353 21 361Q2 372 3.0 384.5Q4 397 11 408Q33 439 56.5 464.0Q80 489 109.0 503.5Q138 518 174 518Q210 518 229.0 505.0Q248 492 254.0 471.0Q260 450 257.0 424.5Q254 399 247 376L186 186Q176 154 172.0 125.5Q168 97 178.5 79.0Q189 61 221 61Q248 61 277.0 79.5Q306 98 333.5 130.0Q361 162 384.5 202.0Q408 242 424 285L489 484Q494 500 503.0 508.0Q512 516 534 516Q567 516 573.0 506.5Q579 497 573 478L491 212Q484 192 478.5 166.5Q473 141 474.5 116.5Q476 92 488.0 76.5Q500 61 530 61Q564 61 596.5 82.0Q629 103 656.5 138.0Q684 173 704.5 216.0Q725 259 736.5 304.5Q748 350 748 390Q748 401 747.5 413.5Q747 426 745.5 439.0Q744 452 742 465Q739 483 742.5 495.0Q746 507 756.0 513.0Q766 519 781 519Q800 519 811.0 508.0Q822 497 827 471Q830 460 831.5 448.5Q833 437 833.5 425.0Q834 413 834 400Q834 348 819.0 291.0Q804 234 775.5 179.0Q747 124 707.0 79.0Q667 34 617.5 7.5Q568 -19 510 -19Q464 -19 436.0 -1.5Q408 16 396.5 44.0Q385 72 384 105Q360 67 331.0 39.0Q302 11 269.0 -4.0Q236 -19 198 -19Z" transform="translate(186.83999999999997, 72) scale(0.072, -0.072)" /><path d="M-170 -17Q-189 -17 -195.5 -5.5Q-202 6 -198.5 20.5Q-195 35 -183.0 46.5Q-171 58 -152 58Q-124 58 -95.0 72.0Q-66 86 -34.5 115.0Q-3 144 31.0 189.0Q65 234 101.5 296.5Q138 359 177 440L233 414Q177 293 127.0 210.0Q77 127 29.0 77.0Q-19 27 -68.0 5.0Q-117 -17 -170 -17ZM390 -15Q352 -15 333.0 -1.5Q314 12 308.5 33.5Q303 55 306.0 80.0Q309 105 317 126Q323 146 335.0 175.5Q347 205 362.0 240.5Q377 276 390.5 311.5Q404 347 413 377Q421 406 415.0 417.0Q409 428 390 428Q367 428 340.5 422.5Q314 417 287.5 409.0Q261 401 237.5 395.5Q214 390 197 390Q153 390 124.5 406.0Q96 422 81.5 447.0Q67 472 67 499Q67 545 94.5 574.0Q122 603 169 603Q205 603 226.5 584.0Q248 565 254.0 534.5Q260 504 248 469Q257 469 277.5 475.5Q298 482 324.5 491.0Q351 500 379.0 506.5Q407 513 430 513Q461 513 480.5 498.5Q500 484 505.0 453.5Q510 423 497 373Q490 345 476.0 309.0Q462 273 447.0 235.0Q432 197 418.0 163.0Q404 129 396 105Q387 78 392.0 69.0Q397 60 409 60Q420 60 431.0 67.0Q442 74 453.0 86.0Q464 98 475 113Q483 123 491.5 125.0Q500 127 513 118Q529 108 531.5 98.0Q534 88 529 77Q520 62 500.5 39.5Q481 17 453.0 1.0Q425 -15 390 -15ZM183 456Q191 480 190.5 500.0Q190 520 183.0 532.0Q176 544 160 544Q145 544 137.0 534.0Q129 524 129 508Q129 485 145.0 470.5Q161 456 183 456Z" transform="translate(250.77599999999995, 72) scale(0.072, -0.072)" /><path d="M127 -15Q68 -15 51.5 29.5Q35 74 62 157L169 483Q176 503 185.5 509.0Q195 515 214 515Q245 515 253.5 505.5Q262 496 255 476L135 108Q127 85 130.0 72.5Q133 60 147 60Q158 60 168.0 66.5Q178 73 189.0 85.0Q200 97 213 113Q221 123 229.5 125.0Q238 127 251 118Q267 108 269.5 98.0Q272 88 266 77Q248 48 226.5 27.0Q205 6 180.0 -4.5Q155 -15 127 -15ZM276 669Q256 669 242.0 682.0Q228 695 228 720Q228 747 245.5 771.0Q263 795 300 795Q321 795 335.0 782.5Q349 770 349 744Q349 717 331.5 693.0Q314 669 276 669Z" transform="translate(291.67199999999997, 72) scale(0.072, -0.072)" /><path d="M158 -15Q114 -15 91.0 5.5Q68 26 66.0 64.5Q64 103 81 156L167 420H90Q79 420 75.0 430.0Q71 440 76 460Q82 480 92.0 490.0Q102 500 113 500H193L258 698Q264 718 273.5 724.0Q283 730 303 730Q334 730 342.5 720.5Q351 711 344 691L281 500H407Q418 500 422.5 490.5Q427 481 421 460Q416 441 406.0 430.5Q396 420 385 420H255L158 126Q147 92 152.0 76.0Q157 60 176 60Q200 60 226.0 78.5Q252 97 277 129Q285 138 294.5 140.0Q304 142 319 132Q334 123 336.0 113.5Q338 104 333 95Q322 75 297.5 49.0Q273 23 238.5 4.0Q204 -15 158 -15Z" transform="translate(313.272, 72) scale(0.072, -0.072)" /><path d="M225 -19Q166 -19 127.0 6.0Q88 31 68.5 73.5Q49 116 49 168Q49 226 70.0 288.0Q91 350 131.0 402.0Q171 454 229.5 486.5Q288 519 365 519Q412 519 444.0 504.5Q476 490 492.5 464.0Q509 438 509 401Q509 360 484.5 327.0Q460 294 419.0 267.5Q378 241 324.5 222.5Q271 204 212.5 192.0Q154 180 95 174L107 245Q146 249 189.0 257.0Q232 265 273.0 277.0Q314 289 347.0 306.0Q380 323 399.0 344.0Q418 365 418 391Q418 417 401.5 428.5Q385 440 355 440Q304 440 263.5 414.5Q223 389 195.5 348.5Q168 308 153.5 261.5Q139 215 139 173Q139 139 150.0 113.5Q161 88 183.0 74.5Q205 61 237 61Q269 61 295.0 73.5Q321 86 344.0 106.5Q367 127 390 151Q403 165 418.0 161.5Q433 158 443 147Q454 136 456.0 123.5Q458 111 445 96Q409 53 372.0 27.5Q335 2 298.5 -8.5Q262 -19 225 -19Z" transform="translate(341.20799999999997, 72) scale(0.072, -0.072)" /><path d="M222 -19Q174 -19 136.0 1.5Q98 22 70.5 57.0Q43 92 25 134Q20 146 24.0 159.5Q28 173 46 181Q62 189 73.5 185.5Q85 182 95 166Q123 120 153.0 93.0Q183 66 227 66Q264 66 293.5 85.5Q323 105 349.5 150.0Q376 195 400 270L614 925Q597 919 582.0 914.0Q567 909 548 909Q530 909 514.5 913.5Q499 918 485.5 924.0Q472 930 458.5 934.5Q445 939 430 939Q411 939 395.0 932.5Q379 926 361.0 910.5Q343 895 317 870Q306 857 293.5 856.5Q281 856 265 867Q250 877 247.5 889.0Q245 901 254 913Q284 952 314.5 976.5Q345 1001 375.5 1012.0Q406 1023 435 1023Q461 1023 480.0 1018.5Q499 1014 514.0 1007.0Q529 1000 542.5 995.5Q556 991 572 991Q596 991 615.5 1000.5Q635 1010 650 1023Q661 1032 670.0 1035.0Q679 1038 691 1038Q714 1038 724.5 1031.0Q735 1024 730 1008L486 258Q453 153 412.0 92.5Q371 32 324.0 6.5Q277 -19 222 -19Z" transform="translate(400.68, 72) scale(0.072, -0.072)" /><path d="M144 -17Q101 -17 71.5 0.5Q42 18 27.5 49.0Q13 80 13 118Q13 165 31.0 216.0Q49 267 80 321Q91 340 103.0 344.0Q115 348 133 339Q152 332 156.5 319.5Q161 307 152 288Q131 244 116.0 203.0Q101 162 101 126Q101 108 106.5 94.5Q112 81 123.5 73.0Q135 65 151 65Q176 65 201.0 85.0Q226 105 253.5 147.5Q281 190 311.0 258.0Q341 326 376.0 421.5Q411 517 452 643L570 1007Q575 1021 587.5 1028.0Q600 1035 622 1035Q641 1035 651.5 1026.0Q662 1017 666 995L836 174L969 580Q1012 711 1050.0 799.5Q1088 888 1126.0 940.5Q1164 993 1206.0 1015.5Q1248 1038 1301 1038Q1327 1038 1353.5 1032.5Q1380 1027 1406.5 1016.5Q1433 1006 1456 990Q1472 980 1475.0 968.5Q1478 957 1469 938Q1461 922 1449.5 919.0Q1438 916 1421 924Q1388 939 1356.5 947.5Q1325 956 1297 956Q1265 956 1237.0 937.0Q1209 918 1181.0 874.5Q1153 831 1122.5 755.5Q1092 680 1055 566L874 15Q870 1 857.5 -6.5Q845 -14 822 -14Q809 -14 800.5 -10.5Q792 -7 787.0 5.5Q782 18 776 43L609 851L538 630Q491 483 450.5 375.0Q410 267 372.5 191.5Q335 116 299.0 70.0Q263 24 225.0 3.5Q187 -17 144 -17Z" transform="translate(442.512, 72) scale(0.072, -0.072)" /></g></svg>