<svg width="144.84" height="27.048" viewBox="0 0 144.84 27.048" xmlns="http://www.w3.org/2000/svg"><path transform="translate(0 19.992) scale(.014 -.014)" d="m467 377q-18-1-26 9.5t-5 32.5q2 19 10.5 29.5t22.5 11.5q100 7 181 38.5t138.5 81 88.5 112 31 131.5q0 54-25 81.5t-72 27.5q-41 0-86-21.5t-90.5-61-88-94-79-121-63.5-141.5l-155-479q-4-14-16-21t-35-7q-22 0-33 7t-6 23l259 795q-25-25-53-48t-58.5-45.5-64.5-46.5q-21-14-35-9t-25 23q-10 16-8 30.5t21 25.5q59 37 109.5 75.5t92.5 81 73 88.5q12 17 22 23t32 6q23 0 33.5-7t4.5-23l-52-165q46 62 97.5 106t106 66.5 109.5 22.5q54 0 93.5-22t60.5-62 21-95q0-94-39-174.5t-110.5-142-169-98.5-212.5-44z"/><path transform="translate(11.97 19.992) scale(.014 -.014)" d="m-184-17q-19 0-24.5 11.5t-1.5 26 16 26 28 11.5q23 0 59.5 18.5t82 52.5 96 80 103 100.5 102 114 92.5 120.5 75.5 121.5 51 116 18.5 102.5q0 15 12.5 22.5t29.5 7.5 29.5-7.5 12.5-22.5q0-49-20.5-108.5t-56.5-124.5-84.5-132-104-133-114.5-125.5-117.5-110-111.5-88.5-97.5-58.5-75.5-20.5zm330 2q-37 0-54 16.5t-20 41.5 3 53 13 52l212 648q37 117 82.5 170t109.5 53q32 0 55.5-17t37-47 13.5-71q0-19-12.5-28t-29.5-9-29.5 9-12.5 28q0 17-3 29t-10 19-21 7q-16 0-30.5-13.5t-31-49-38.5-100.5l-219-673q-5-18-6-27t2.5-12 8.5-3q10 0 21 6.5t23 19 26 29.5q8 10 16 11.5t19-6.5q17-10 20-20t-2-20q-9-15-29-38t-48.5-40.5-65.5-17.5z"/><path transform="translate(17.486 19.992) scale(.014 -.014)" d="m148-17q-34 0-59.5 18t-39.5 51-14 78q0 46 14 99t42 104 68.5 93 92.5 67.5 116 25.5q28 0 60-7.5t62-21.5l1 4q5 14 15 17.5t27 3.5q31 0 39.5-9.5t1.5-29.5l-125-373q-6-18-6.5-27t3.5-12 9-3q10 0 20.5 6.5t23 19 26.5 29.5q8 10 16 11.5t19-6.5q16-10 19.5-20t-1.5-20q-9-15-29-38t-48.5-40.5-65.5-17.5-54.5 16.5-20.5 41.5 2.5 53 13.5 52q2 2 2.5 4.5t1.5 5.5q-42-59-82.5-98t-78-58-71.5-19zm-22 163q0-25 6-44t17.5-29 26.5-10q35 0 80 37.5t95.5 109.5 103.5 176l11 33q-32 13-60.5 17t-51.5 4q-43 0-79-20t-63.5-52.5-46.5-72-29-78.5-10-71z"/><path transform="translate(26.194 19.992) scale(.014 -.014)" d="m402 7q20 14 40 26.5t38.5 24 35.5 21 31 16.5q16 8 25.5 2t13-19.5-0.5-26.5-14-20q-20-11-42-24.5t-45.5-28-47-30-47.5-31.5zm-292-526q-35 0-62 14t-42 39-15 55q0 36 13.5 71t41 70.5 68.5 74 97 79.5q33 23 67.5 46t68.5 47l69 212q-31-49-63.5-86.5t-66.5-64-68-40-69-13.5q-46 0-71.5 22.5t-27.5 67 19 108.5l100 300q7 20 16.5 26t28.5 6q31 0 39.5-9.5t1.5-29.5l-106-316q-9-25-11.5-47t7-35 36.5-13q35 0 76 30t84.5 84 85.5 127.5 78 160.5l5 16q7 20 16.5 26t28.5 6q31 0 39.5-9.5t1.5-29.5l-236-726q-23-72-48.5-123t-54.5-83.5-65.5-47.5-81.5-15zm14 77q25 0 46 13.5t39.5 38.5 35 61.5 30.5 82.5l37 112q-19-12-38-25t-38-25q-42-33-72.5-63t-49-56-27-49.5-8.5-43.5q0-13 5-23.5t15-16.5 25-6z"/><path transform="translate(35.154 19.992) scale(.014 -.014)" d="m166-19q-45 0-70 19t-33.5 52-3.5 74 19 84l90 274q5 15 13.5 23.5t33.5 8.5q32 0 39-9.5t1-28.5l-95-290q-11-34-15.5-63t5-46.5 40.5-17.5q28 0 57 20t56 53.5 51 74.5 42 83l62 192q5 15 13.5 23.5t31.5 8.5q33 0 39-9.5t0-28.5l-85-277q-4-15-9-38.5t-4.5-47 12-39 39.5-15.5q33 0 65.5 21.5t60.5 57.5 49.5 80 34 91 12.5 89q0 8 0 18.5t-1 22.5-3 24q-3 18 0.5 30t13 18 24.5 6q19 0 30.5-11t16.5-37q2-8 3-17.5t1-19 0-19.5q0-55-16-114.5t-45.5-116.5-70.5-103-91-73-107-27q-46 0-72 18t-36.5 47.5-10.5 63.5q-25-39-54-68t-62-45-71-16z"/><path transform="translate(47.124 19.992) scale(.014 -.014)" d="m-181-17q-19 0-25.5 11.5t-3.5 26 15 26 31 11.5q35 0 73 21t81 66 91 118 103 177l55-27q-60-121-113-203.5t-103.5-132.5-100.5-72-103-22zm561 2q-37 0-55 14.5t-22 36.5 0 46 11 43q6 17 17.5 46.5t26 65.5 28 72 22.5 66q8 30 3.5 41.5t-25.5 11.5q-23 0-49-9.5t-54-19-59-9.5q-18 0-31 15t-20.5 38.5-7.5 49.5q0 21 7 39.5t22.5 30.5 39.5 12q20 0 32-13t12-33q0-13-3.5-28.5t-10.5-31.5q10 0 36 11t60.5 22 69.5 11q31 0 49.5-15t22.5-45.5-9-79.5q-7-28-21-65t-29-76-28.5-73-20.5-55q-10-28-5-35.5t14-7.5q10 0 20.5 6.5t22 19 24.5 29.5q8 10 15.5 11.5t19.5-6.5q16-10 19.5-20t-1.5-20q-9-15-29-38t-48.5-40.5-65.5-17.5z"/><path transform="translate(55.076 19.992) scale(.014 -.014)" d="m119-15q-56 0-70 44.5t14 129.5l106 324q7 20 16.5 26t28.5 6q31 0 39.5-9.5t1.5-29.5l-122-373q-7-21-5-31.5t15-10.5q9 0 18 6t20.5 18 27.5 31q8 10 16 11.5t19-6.5q16-10 19.5-20t-2.5-20q-21-33-43.5-54.5t-47-31.5-51.5-10zm157 684q-20 0-34 13t-14 38q0 27 17.5 51t54.5 24q21 0 35-12.5t14-38.5q0-27-17.5-51t-55.5-24z"/><path transform="translate(59.276 19.992) scale(.014 -.014)" d="m154-15q-40 0-63 18.5t-27 55 14 89.5l88 272h-76q-11 0-15 10t1 30q6 20 16 30t21 10h80l65 198q6 20 15.5 26t29.5 6q31 0 39.5-9.5t1.5-29.5l-64-191h126q11 0 15.5-9.5t-1.5-30.5q-5-19-15-29.5t-21-10.5h-130l-98-295q-11-34-6.5-49t23.5-15q20 0 47.5 17.5t55.5 54.5q9 10 18.5 11t23.5-8q15-9 17-18.5t-2-17.5q-11-20-36-47t-61-47.5-82-20.5z"/><path transform="translate(64.708 19.992) scale(.014 -.014)" d="m231-17q-37 0-66 11.5t-51 31.5-36.5 47.5-22 59.5-7.5 66q0 37 8 80t25.5 85.5 45.5 77.5 67 56 91 21q30 0 55-12.5t39.5-36 14.5-56.5q0-45-28.5-94.5t-75.5-98-105-90.5q-58-43-120.5-76.5t-120-52.5-101.5-19q-14 0-21 11.5t-5.5 26 12.5 26 32 11.5q32 0 79.5 17.5t101 47.5 102.5 67q45 33 81 68t57.5 69 21.5 63q0 23-10 36t-30 13q-31 0-55-24.5t-40.5-61.5-24.5-78-8-74q0-28 7-53t21-44 35.5-30 50.5-11q31 0 60.5 13.5t57 36 51.5 48.5q12 14 28 10t26-15 11.5-23-10.5-27q-38-48-78.5-74.5t-82-37.5-82.5-11z"/><path transform="translate(75.124 19.992) scale(.014 -.014)" d="m385-17q-72 0-112 30t-46.5 88 20.5 143l198 612q13 39 11.5 57t-23.5 18q-16 0-35.5-13.5t-43-40.5-54.5-70q-16-23-31.5-27.5t-34.5 6.5q-15 9-18 22.5t10 30.5q51 73 93.5 111t76.5 51.5 61 13.5q63 0 83-41t-6-121l-197-606q-19-58-18-98t23-60 68-20q41 0 84.5 20.5t87.5 57.5 87 89.5 83 115.5 74 135l162 499q5 14 17 21t34 7q23 0 33.5-7t5.5-23l-263-802q-13-40-18-65.5t0-37.5 18-12q19 0 45 23.5t69 83.5q12 16 23.5 17.5t24.5-6.5q17-11 19.5-25.5t-7.5-28.5q-15-23-36.5-49t-47-48.5-54.5-36.5-60-14q-39 0-60.5 21t-23.5 64.5 18 110.5q5 14 9.5 28t8.5 27q-39-58-82.5-104t-89.5-79-93-50.5-93-17.5z"/><path transform="translate(89.936 19.992) scale(.014 -.014)" d="m642-19q-39 0-74.5 8.5t-67.5 24-58.5 36.5-44.5 44q-13 19-11 32.5t18 27.5q14 11 25.5 10t26.5-16q27-25 55-43t60-27.5 71-9.5q49 0 90 15.5t71 44 46 69.5 16 91q0 38-10.5 75.5t-28.5 73.5-42.5 72.5-53.5 73.5-61 76q-93-144-164.5-250t-129-179.5-106-121-95-73.5-94.5-36-106-10q-20 0-25 11t2 35q5 18 16.5 26t30.5 8q35 0 66 8t63 26.5 67 51 77 82.5 92.5 119.5 113.5 162.5 141 213q-15 24-27.5 47.5t-22 47-14.5 48-5 49.5q0 47 19 84t52 58 76 21q53 0 87-32.5t34-85.5q0-29-10-61.5t-31.5-73.5-57.5-98q22-30 47.5-62t52.5-67 51.5-72.5 43.5-77 30.5-81 11.5-83.5q0-70-22.5-127.5t-64.5-99-99.5-63.5-126.5-22zm27 831q24 40 38 67.5t20 48.5 6 38q0 20-11.5 32t-29.5 12-31-9.5-20-28-7-44.5q0-20 4.5-39.5t12-38.5 18.5-38z"/><path transform="translate(108.01 19.992) scale(.014 -.014)" d="m264-17q-44 0-77.5 22t-55 57.5-30.5 74.5q-4 20 0.5 34.5t26.5 19.5q21 5 32-2.5t16-24.5q10-32 22.5-53.5t29-32 37.5-10.5q33 0 56 26t46 96l235 728h-123q-51 0-92-12t-72-38.5-52-72.5q-9-21-22-26t-31-2q-15 3-22 13t0 31q15 42 41 76t64 59 89 38.5 115 13.5h514q15 0 18.5-8.5t-4.5-31.5q-7-22-16-31t-24-9h-293l-237-735q-18-56-45-101.5t-63-72-83-26.5z"/><path transform="translate(119.21 19.992) scale(.014 -.014)" d="m-181-17q-19 0-25.5 11.5t-3.5 26 15 26 31 11.5q35 0 73 21t81 66 91 118 103 177l55-27q-60-121-113-203.5t-103.5-132.5-100.5-72-103-22zm561 2q-37 0-55 14.5t-22 36.5 0 46 11 43q6 17 17.5 46.5t26 65.5 28 72 22.5 66q8 30 3.5 41.5t-25.5 11.5q-23 0-49-9.5t-54-19-59-9.5q-18 0-31 15t-20.5 38.5-7.5 49.5q0 21 7 39.5t22.5 30.5 39.5 12q20 0 32-13t12-33q0-13-3.5-28.5t-10.5-31.5q10 0 36 11t60.5 22 69.5 11q31 0 49.5-15t22.5-45.5-9-79.5q-7-28-21-65t-29-76-28.5-73-20.5-55q-10-28-5-35.5t14-7.5q10 0 20.5 6.5t22 19 24.5 29.5q8 10 15.5 11.5t19.5-6.5q16-10 19.5-20t-1.5-20q-9-15-29-38t-48.5-40.5-65.5-17.5z"/><path transform="translate(127.16 19.992) scale(.014 -.014)" d="m148-17q-34 0-59.5 18t-39.5 51-14 78q0 46 14 99t42 104 68.5 93 92.5 67.5 116 25.5q28 0 60-7.5t62-21.5l1 4q5 14 15 17.5t27 3.5q31 0 39.5-9.5t1.5-29.5l-125-373q-6-18-6.5-27t3.5-12 9-3q10 0 20.5 6.5t23 19 26.5 29.5q8 10 16 11.5t19-6.5q16-10 19.5-20t-1.5-20q-9-15-29-38t-48.5-40.5-65.5-17.5-54.5 16.5-20.5 41.5 2.5 53 13.5 52q2 2 2.5 4.5t1.5 5.5q-42-59-82.5-98t-78-58-71.5-19zm-22 163q0-25 6-44t17.5-29 26.5-10q35 0 80 37.5t95.5 109.5 103.5 176l11 33q-32 13-60.5 17t-51.5 4q-43 0-79-20t-63.5-52.5-46.5-72-29-78.5-10-71z"/><path transform="translate(135.87 19.992) scale(.014 -.014)" d="m148-17q-34 0-59.5 18t-39.5 51-14 78q0 46 14 99t42 104 68.5 93 92.5 67.5 116 25.5q29 0 62.5-8t64.5-23l164 495q6 20 15.5 26t29.5 6q31 0 39.5-9.5t1.5-29.5l-289-873q-6-21-4-31.5t14-10.5q10 0 19 6t20.5 18 27.5 31q8 10 16 11.5t19-6.5q16-10 19.5-20t-2.5-20q-21-33-43.5-54.5t-47-31.5-51.5-10q-36 0-55 18t-20 54 15 89q1 3 1.5 6.5t1.5 6.5q-43-59-84.5-98.5t-80.5-58.5-73-19zm-22 163q0-25 6-44t17.5-29 26.5-10q35 0 81 36.5t97.5 107 104.5 172.5l12 39q-34 14-63.5 18t-53.5 4q-43 0-79-20t-63.5-52.5-46.5-72-29-78.5-10-71z"/></svg>