<svg width="106.51" height="23.1" viewBox="0 0 106.51 23.1" xmlns="http://www.w3.org/2000/svg"><path transform="translate(0 17.85) scale(.014 -.014)" d="m169-14q-44 0-44 28v834q0 14 11.5 20.5t33.5 6.5h190q100 0 167-22t101.5-70 34.5-127q0-77-29-130.5t-76-87.5-103-53.5-111-28.5q-37-5-71-7.5t-60-2.5v-332q0-14-11-21t-33-7zm44 439q19 0 40.5 1t44.5 3.5 46 5.5q57 10 109.5 34t86 69 33.5 117q0 51-24 81.5t-71.5 44.5-117.5 14h-147z"/><path transform="translate(9.8 17.85) scale(.014 -.014)" d="m190-17q-47 0-71 27.5t-24 80.5v773q0 13 10.5 19.5t31.5 6.5q22 0 33-6.5t11-19.5v-760q0-25 6-34.5t19-9.5q8 0 14 4.5t12.5 14.5 13.5 24q5 9 14 10t21-5q12-5 17-14.5t1-17.5q-11-29-27.5-49.5t-36.5-32-45-11.5z"/><path transform="translate(13.986 17.85) scale(.014 -.014)" d="m234-17q-52 0-90.5 28.5t-59.5 82.5-21 132q0 52 9.5 97t28 81.5 46 62 63 39 78.5 13.5q34 0 64-8t60-24v3q0 12 11 18.5t33 6.5 32.5-6.5 10.5-19.5v-385q0-16 2.5-26t8-14 13.5-4 14.5 4.5 13 14 15.5 24.5q4 9 13 10.5t21-5.5q13-6 18-15.5t0-20.5q-9-24-25-44t-36.5-32.5-46.5-12.5q-24 0-41.5 7t-30 20.5-18.5 32.5-7 43q0 13-0.5 27.5t-0.5 29.5q-19-53-47-88.5t-61-53.5-70-18zm-83 245q0-48 9.5-85.5t31.5-58.5 56-21q35 0 67 31t57 88 40 136v92q-31 18-58.5 24.5t-52.5 6.5q-28 0-51.5-9t-42-26.5-31-43-19-59-6.5-75.5z"/><path transform="translate(22.694 17.85) scale(.014 -.014)" d="m241-17q-42 0-75.5 16t-52.5 53-19 98v339q0 13 10.5 19.5t31.5 6.5q22 0 33-6.5t11-19.5v-331q0-33 7.5-54.5t23.5-32 42-10.5q33 0 61.5 21.5t51 61 39.5 93.5 27 117v135q0 13 10.5 19.5t32.5 6.5 33-6.5 11-19.5v-642q0-80-22.5-134t-67.5-80.5-111-26.5q-40 0-78 11.5t-68.5 30-50.5 38.5q-11 13-11.5 26.5t17.5 28.5q16 12 26 12.5t26-11.5q37-30 69-44t72-14q42 0 66.5 16.5t35 53 10.5 96.5v310q-17-48-40-82t-48.5-54.5-52-30.5-50.5-10z"/><path transform="translate(31.486 17.85) scale(.014 -.014)" d="m229-15q-22 0-32 7t-15 19l-157 454q-7 20 4.5 35t39.5 15q15 0 24-6t13-20l124-380 132 380q5 14 14.5 20t25.5 6q15 0 25-6t14-20l135-380 123 380q5 14 14 20t24 6q29 0 40-14t3-36l-159-454q-4-12-14-19t-32-7-30.5 7.5-12.5 18.5l-130 367-127-367q-4-11-14.5-18.5t-31.5-7.5z"/><path transform="translate(42.742 17.85) scale(.014 -.014)" d="m136-15q-21 0-31.5 6.5t-10.5 19.5v478q0 13 10.5 19.5t31.5 6.5q22 0 33-6.5t11-19.5v-143q17 46 38 79t44 53.5 45.5 30.5 43.5 10q25 0 49.5-10.5t36.5-25.5q7-7 6.5-17.5t-9.5-24.5-20-17.5-23 2.5-23.5 10-26.5 4q-23 0-48-21t-47-60-39.5-92.5-26.5-116.5v-139q0-13-11-19.5t-33-6.5z"/><path transform="translate(49.098 17.85) scale(.014 -.014)" d="m189-17q-47 0-71 27.5t-24 80.5v398q0 13 10.5 19.5t31.5 6.5q22 0 33-6.5t11-19.5v-385q0-25 6-34.5t19-9.5q8 0 13.5 5t12 14.5 14.5 24.5q5 8 14.5 8.5t20.5-4.5q12-6 17-15t0-18q-11-29-27.5-49t-36-31.5-44.5-11.5zm-56 686q-28 0-42 15.5t-14 46.5q0 32 14 48t42 16 41.5-16 13.5-48q2-31-12.5-46.5t-42.5-15.5z"/><path transform="translate(53.298 17.85) scale(.014 -.014)" d="m232-17q-38 0-63.5 15t-38.5 45-13 73v304h-77q-15 0-21.5 9t-6.5 31q0 23 6.5 31.5t21.5 8.5h77v204q0 13 10.5 19.5t32.5 6.5 33-6.5 11-19.5v-204h126q15 0 21.5-8.5t6.5-31.5q0-22-6.5-31t-21.5-9h-126v-295q0-35 9.5-50t28.5-15q21 0 38.5 14t35.5 47q6 9 15 10.5t23-4.5q15-7 19.5-17.5t-0.5-20.5q-14-37-35.5-60.5t-48-34.5-57.5-11z"/><path transform="translate(58.716 17.85) scale(.014 -.014)" d="m277-19q-67 0-115 30.5t-73.5 85.5-25.5 127q0 61 18 114.5t51.5 94.5 81 63.5 107.5 22.5q43 0 78-14t55.5-42.5 20.5-72.5q0-38-18-70t-49.5-57-74-44.5-92-32.5-103.5-21l-3 69q34 6 69.5 15t68 22 58 29 40 36.5 14.5 44.5q0 32-22 45.5t-54 13.5q-33 0-62-14.5t-50.5-41.5-33.5-63.5-12-80.5q0-58 16-97.5t46-60.5 72-21q35 0 58.5 11.5t41.5 31.5 37 42q12 15 25 14t26-12q14-11 17.5-22t-4.5-24q-28-42-61-69t-70-39.5-78-12.5z"/><path transform="translate(70.28 17.85) scale(.014 -.014)" d="m384-17q-70 0-126 28t-95.5 81-60.5 129.5-21 173.5q0 74 13 139.5t37 121 59 99 79.5 73.5 97.5 46 113 16q58 0 107-13t91.5-38.5 80.5-62.5q13-13 12.5-27t-21.5-30q-15-14-25.5-9t-27.5 17q-35 29-70 46t-71 24.5-76 7.5q-47 0-88.5-13t-75-38-60.5-61-45-81.5-28-100-10-116.5q0-78 14.5-139t42-103 67-63.5 90.5-21.5q59 0 108.5 30t89 82 69 120.5 47.5 144.5q0 14 11 21t33 7q44 0 44-28v-426q0-13-11-20t-33-7q-44 0-44 27v222q-26-59-59.5-107t-73.5-81.5-86.5-51.5-97.5-18z"/><path transform="translate(82.53 17.85) scale(.014 -.014)" d="m169 0q-44 0-44 28v820q0 27 45 27h201q82 0 142-16t92.5-57 32.5-116q0-46-19.5-82t-50.5-63-66-45.5-67-29.5v-3q47-1 90-12t77-33 53.5-58.5 19.5-88.5q0-48-15-90t-43.5-75-69-57-91-36.5-110.5-12.5zm44 80h133q65 0 110.5 16t73.5 43.5 41.5 61 13.5 69.5q0 41-14.5 70t-43 47.5-70.5 27-98 8.5h-146zm0 423h133q43 0 79.5 13.5t64 38 43 58 15.5 73.5q0 47-23 70t-62.5 31-91.5 8h-158z"/><path transform="translate(96.88 17.85) scale(.014 -.014)" d="m339-19q-37 0-74 8.5t-72.5 24.5-65.5 39-52 52q-7 11-7.5 20.5t14.5 22.5q16 15 25 16.5t28-15.5q21-18 49.5-37.5t67-32.5 87.5-13q47 0 82 9.5t59 29.5 36 50.5 12 72.5q0 35-12.5 60t-36 44-56 34.5-73.5 30.5q-35 13-71 30t-69 39-58.5 52-40.5 69-15 89q0 51 19 90.5t54 67 82.5 42 104.5 14.5q50 0 90-12.5t74-35.5 66-54q10-10 8.5-20.5t-12.5-21.5q-12-13-24-18.5t-22 3.5q-25 23-50 40t-56.5 25.5-73.5 8.5q-40 0-71-8t-52.5-24-32.5-40.5-11-56.5q0-41 13-70t37.5-50 58-37.5 73.5-30.5q42-15 86-35t81-49.5 59.5-72 22.5-103.5-19.5-107-56.5-77-89-47-116-16z"/></svg>