<svg width="105.8" height="27.048" viewBox="0 0 105.8 27.048" xmlns="http://www.w3.org/2000/svg"><path transform="translate(0 19.992) scale(.014 -.014)" d="m503 380q-17-1-22 11t-1 28 13.5 27 26.5 11q66 1 129 13.5t118.5 37 98.5 60 67 83.5 24 108q0 44-19 77t-55 54.5-86 32.5-113 11q-81 0-153-16.5t-132-47.5-106-74q-15-15-30.5-8t-24.5 20q-8 12-7 25t13 24q39 37 86.5 66.5t104 49.5 121 31 134.5 11q91 0 159-18.5t112-52.5 66-80.5 22-103.5q0-76-30-135.5t-82.5-104-122-75-149-46.5-162.5-19zm-369-397q-37 0-69.5 15.5t-55 40-32.5 53.5q-7 17-2 29t20 19q17 8 28 3.5t23-20.5q13-19 28-31.5t32.5-18 36.5-5.5q40 0 67 31t53 112l192 601q5 14 17.5 20.5t34.5 6.5q23 0 33.5-6.5t4.5-23.5l-189-590q-25-77-55.5-130t-70.5-79.5-96-26.5z"/><path transform="translate(12.908 19.992) scale(.014 -.014)" d="m-135-17q-19 0-25 11.5t-2.5 26 16 26 30.5 11.5q34 0 75.5 20t86.5 55.5 91 82.5 91 103 86 116 76 121 60.5 119 40 110 14.5 92q0 15 13 22.5t30.5 7.5 31-7.5 13.5-22.5q0-43-16-98.5t-45.5-118.5-70-129.5-88-133-100-127.5-106-113-107-91-103-61-92.5-22zm315 0q-44 0-67 15.5t-30.5 42-3 59.5 15.5 68l226 700q26 80 66 115.5t96 35.5q34 0 59-17.5t38-49 13-75.5q0-19-13.5-28t-31-9-30.5 9-13 28-4.5 31.5-12.5 19-21 6.5q-10 0-20.5-7.5t-21-23.5-19.5-44l-237-740q-4-11-6-25.5t3-25 23-10.5q15 0 27.5 7.5t22 18.5 15.5 20q5 8 16 12t28-7q17-10 16.5-21t-5.5-22q-10-18-28.5-37.5t-43.5-32.5-57-13z"/><path transform="translate(18.424 19.992) scale(.014 -.014)" d="m190-17q-46 0-78.5 20t-50 58-17.5 90q0 44 12 94t36.5 98.5 62.5 88.5 90 63.5 119 23.5q35 0 67-11t59-29l1 4q7 20 16.5 26t28.5 6q32 0 40-9.5t2-29.5l-117-357q-3-11-5.5-25.5t2.5-25 23-10.5q15 0 27.5 7.5t22 18.5 15.5 20q6 8 17 12t27-7q17-10 17-21t-6-22q-10-18-28-37.5t-43-32.5-57-13q-28 0-47.5 6.5t-31.5 18.5-18 28-6 35q0 3 0 5.5t0 4.5q-32-40-65-61.5t-62.5-29-52.5-7.5zm-56 177q0-32 9.5-53.5t28.5-32.5 47-11q33 0 64.5 17.5t61.5 50.5 56 78l68 205q-26 15-49.5 20.5t-49.5 5.5q-53 0-92.5-19t-67-50.5-44.5-69-24.5-74.5-7.5-67z"/><path transform="translate(27.132 19.992) scale(.014 -.014)" d="m421-19q24 14 49.5 27t49.5 24.5 42 18.5q15 6 24-2t11.5-21.5-1.5-27-16-18.5q-20-9-41-19t-42.5-21-42.5-23-42-23zm-288-500q-62 0-98 34.5t-36 87.5q0 47 19.5 87t55.5 76.5 84.5 70 106.5 65.5q17 8 33 17t32.5 18 32.5 17l37 114q-20-20-42-36.5t-45-27-46.5-16-46.5-5.5q-56 0-89.5 24.5t-42.5 69 10 103.5l66 211q8 24 1.5 36.5t-24.5 12.5q-16 0-29.5-9t-27-27.5-29.5-48.5q-7-12-14.5-18.5t-27.5-5.5q-20 2-26 15t1 30q16 39 40 70.5t54.5 50 65.5 18.5q32 0 54.5-11t35-31.5 13.5-49.5-10-64l-55-179q-13-42-10.5-68.5t21-38.5 54.5-12q24 0 49.5 10t51.5 29 49.5 45.5 42.5 59.5l90 278q7 20 16.5 26t28.5 6q31 0 39.5-9.5t1.5-29.5l-237-728q-24-73-49.5-124t-56-82.5-66-46-78.5-14.5zm13 77q30 0 58.5 22t52.5 65 41 105l34 106q-10-5-18.5-10t-16.5-9-16-9q-44-26-79.5-52t-61.5-52-39.5-52.5-13.5-55.5q0-20 7.5-32.5t21-19 30.5-6.5z"/><path transform="translate(36.442 19.992) scale(.014 -.014)" d="m224-19q-55 0-85.5 19t-41 50-7 68.5 15.5 74.5l64 198q8 24 1.5 36.5t-23.5 12.5q-18 0-33.5-9t-30-27.5-30.5-48.5q-7-12-14.5-18.5t-28.5-5.5q-19 2-25.5 15t0.5 30q17 39 42 70.5t57 50 69 18.5q32 0 55-11t35.5-31.5 14-49.5-10.5-64l-53-159q-6-19-11.5-43t-4.5-46.5 14.5-36.5 44.5-14q29 0 54 14.5t44.5 38.5 34 52.5 22.5 55.5l3-102q-10-28-28-53t-41-44-49-30-54-11zm309 0q-51 0-86 16t-54 45.5-21.5 68 12.5 83.5l92 289q7 20 16.5 26t28.5 6q32 0 40-9.5t2-29.5l-89-276q-8-24-11.5-48.5t1.5-45 23-33 54-12.5 67.5 16 58 44.5 46.5 65 34 78 21.5 84 7.5 81.5q0 20-4.5 30.5t-10.5 14-13 3.5q-15 0-24.5-13.5t-9.5-30.5q0-15 9-25t26-14.5 40-4.5q48 0 93 14t82 34q11 6 21-0.5t16.5-19 6-24-9.5-16.5q-45-22-97.5-38t-117.5-16q-46 0-75.5 14t-44 37-14.5 50 10.5 52.5 34.5 42 64 16.5q26 0 47.5-12t34.5-37.5 13-66.5q0-47-8.5-97.5t-26.5-100-44-93-62-77-80.5-52.5-98.5-19z"/><path transform="translate(48.874 19.992) scale(.014 -.014)" d="m-137-17q-19 0-25 11.5t-2 26 16.5 26 31.5 11.5q27 0 54 16t54.5 47 55 77 55 107 53.5 136l58-25q-43-122-83.5-205t-81.5-133.5-86.5-72.5-99.5-22zm555 0q-38 0-61 11.5t-33 32-9 47 10 56.5q8 26 21.5 57t28.5 64.5 29 66.5 22 63q8 29-1 38.5t-25 9.5q-23 0-53.5-6t-63-13.5-60.5-13.5-45-6q-36 0-64.5 12.5t-44.5 36.5-16 57q0 48 27.5 77.5t72.5 29.5q36 0 56-19t24.5-49.5-7.5-65.5q9 0 32 6.5t53.5 15.5 62.5 15.5 57 6.5q29 0 51.5-13t31.5-44-5-85q-8-28-21.5-60.5t-29.5-67-30.5-68.5-24.5-67q-7-25-1.5-37.5t24.5-12.5q15 0 27.5 7.5t22 18.5 15.5 20q6 8 17 12t27-7q17-10 17-21t-6-22q-10-18-28-37.5t-43-32.5-57-13zm-254 473q8 24 8.5 44t-6 32-21.5 12q-14 0-22-11t-8-30q0-20 13.5-33.5t35.5-13.5z"/><path transform="translate(56.826 19.992) scale(.014 -.014)" d="m150-17q-67 0-91 44.5t1 122.5l108 333q6 20 15.5 26t29.5 6q31 0 39.5-9.5t1.5-29.5l-114-352q-10-32-5-49t25-17q15 0 28 7.5t22.5 18.5 15.5 20q6 8 17 12t27-7q17-10 17-21t-6-22q-10-18-29-37.5t-44.5-32.5-57.5-13zm125 686q-20 0-34.5 13t-14.5 38q0 27 18 51t55 24q20 0 34.5-12.5t14.5-38.5q0-27-17.5-51t-55.5-24z"/><path transform="translate(61.026 19.992) scale(.014 -.014)" d="m171-17q-58 0-80.5 27.5t-19.5 71.5 19 96l78 242h-79q-11 0-15 10t1 30q6 20 15.5 30t20.5 10h83l64 198q6 20 15.5 26t29.5 6q31 0 39.5-9.5t1.5-29.5l-61-191h126q11 0 15-9.5t-1-30.5q-6-19-16-29.5t-21-10.5h-128l-94-290q-11-35-5-53.5t27-18.5q33 0 56 21t36 37q6 8 16.5 12t26.5-7q17-10 17.5-20.5t-5.5-21.5q-13-21-34.5-43.5t-52.5-37.5-75-15z"/><path transform="translate(66.458 19.992) scale(.014 -.014)" d="m254-19q-34 0-65.5 12t-57.5 34-45.5 52.5-30 68.5-10.5 82q0 39 9.5 79.5t28.5 78 47 67 65.5 47 83.5 17.5q43 0 71-16.5t42-44 14-62.5q0-61-27-115t-70.5-99.5-92.5-79.5q-53-36-112.5-63t-119.5-41.5-114-14.5q-14 0-20 11.5t-3 26 14.5 26 32.5 11.5q48 0 98 14t97 39 87 56q33 25 65 59t53.5 73 21.5 80q0 30-13 45t-42 15q-31 0-54.5-20.5t-39.5-52-24.5-66.5-8.5-65q0-40 11-72t30.5-55 43.5-35 50-12q24 0 46.5 8.5t44.5 23.5 43 32q14 12 26.5 10.5t23.5-12.5q14-13 16-27t-11-26q-32-30-65-50t-67.5-29.5-71.5-9.5z"/><path transform="translate(76.874 19.992) scale(.014 -.014)" d="m816-19q-24 0-46 7t-42 22-38 39-34 58.5-30 80.5q-6 23-12.5 44t-11.5 41-10.5 40-10 39-9 38.5-8.5 38.5q-28 3-45.5 20t-17.5 39q0 24 16 41t47 17q23 0 39.5-10t29.5-26q63 10 118.5 32.5t97.5 57 66 79 24 99.5q0 39-18 68t-51 48.5-80 29.5-106 10q-81 0-153-16.5t-132-47.5-106-74q-15-15-30.5-8t-24.5 20-7.5 25 13.5 24q39 37 86.5 66.5t104 49.5 121 31 134.5 11q88 0 152-17.5t106-49 62.5-74.5 20.5-95q0-56-19.5-104t-54-87-82.5-69-106-50.5-122-32.5q3-17 7-32t8-30.5 8-31 8.5-31.5 9.5-33 10-36q14-45 26.5-76.5t25.5-52 25-31.5 25-15.5 25-4.5q31 0 61 24t67 69q12 16 25.5 15.5t28.5-13.5q11-10 12.5-22t-8.5-29q-21-35-52-63.5t-67.5-45-75.5-16.5zm-682 2q-37 0-69.5 15.5t-55 40-32.5 53.5q-7 17-2 29t20 19q17 8 28 3.5t23-20.5q13-19 28-31.5t32.5-18 36.5-5.5q40 0 67 31t53 112l192 601q5 14 17.5 20.5t34.5 6.5q23 0 33.5-6.5t4.5-23.5l-189-590q-25-77-55.5-130t-70.5-79.5-96-26.5z"/><path transform="translate(91.364 19.992) scale(.014 -.014)" d="m475-19q-83 0-147 25.5t-106 73.5-64 115.5-22 150.5q0 68 14 138t40 137.5 63.5 128.5 85 111.5 104.5 85.5q28 17 41.5 14.5t23.5-17.5q13-19 9-32.5t-29-30.5q-50-33-91-78.5t-72.5-99.5-53-112.5-32.5-120-11-121.5q0-64 16-116.5t48-89.5 80.5-57 112.5-20q65 0 125.5 24t114.5 67.5 98.5 101.5 76.5 127 50 144 18 152q0 67-12 114.5t-35.5 78-56.5 44.5-75 14q-35 0-65.5-11.5t-57.5-33-53-52-51-70.5q-12-16-27-19t-32 8q-16 9-15.5 24.5t9.5 31.5q34 51 70 89.5t75.5 64 82 38 87.5 12.5q61 0 107.5-21.5t78-64 47.5-104.5 16-143q0-91-21.5-178.5t-60.5-166-92.5-143.5-119-112.5-139.5-74-153-26.5z"/></svg>