<svg width="98.308" height="18.662" viewBox="0 0 98.308 18.662" xmlns="http://www.w3.org/2000/svg"><path transform="translate(0 15.148) scale(.014 -.014)" d="m42 708q21-1 55-2t67-1q47 0 90 1t61 1q121 0 181-55t60-142q0-36-12-75.5t-41.5-73-80.5-54.5-129-21h-96v20h86q71 0 108.5 27t51 71 13.5 95q0 95-37.5 142t-128.5 47q-46 0-60-17t-14-69v-496q0-36 7.5-54t29.5-24 64-8v-20q-26 2-66 2.5t-81 0.5q-39 0-73-0.5t-55-2.5v20q34 2 51.5 8t23.5 24 6 54v496q0 37-6 54.5t-23.5 24-51.5 7.5z"/><path transform="translate(8.19 15.148) scale(.014 -.014)" d="m188 784v-691q0-42 17.5-57t58.5-15v-21q-17 1-51.5 2.5t-69.5 1.5q-34 0-69-1.5t-52-2.5v21q41 0 58.5 15t17.5 57v571q0 45-16 66.5t-60 21.5v21q32-3 62-3 29 0 55.5 3.5t48.5 10.5z"/><path transform="translate(12.194 15.148) scale(.014 -.014)" d="m171-7q-41 0-71 15.5t-45.5 43.5-15.5 65q0 44 20.5 72t52.5 45 67.5 28.5 67.5 22 52.5 24.5 20.5 37v62q0 42-12.5 64t-33.5 29.5-47 7.5q-25 0-53.5-7t-45.5-29q19-4 33-20t14-41-16-39.5-41-14.5q-29 0-42.5 18.5t-13.5 41.5q0 26 13 42t33 30q23 16 59.5 27.5t82.5 11.5q41 0 70-9.5t48-27.5q26-24 34-58.5t8-82.5v-278q0-25 7.5-36t23.5-11q11 0 21 5t24 16l11-17q-21-16-40-26.5t-51-10.5q-29 0-48 10t-28.5 29.5-9.5 49.5q-27-45-64.5-67t-84.5-22zm36 40q33 0 61.5 19t51.5 57v196q-12-17-35-28.5t-50-23-51.5-27-40.5-40.5-16-65 21.5-64 58.5-24z"/><path transform="translate(19.166 15.148) scale(.014 -.014)" d="m494 515v-20q-19-2-35-17t-30-53l-164-430h-17l-184 443q-19 39-37.5 47.5t-30.5 8.5v21q22-3 46-4.5t52-1.5q31 0 65.5 2t64.5 4v-21q-25 0-44.5-3.5t-24.5-21 12-59.5l123-305-6-2 114 298q13 33 10.5 52.5t-20.5 29.5-54 12v20q18-1 31-1.5t25.5-1 27.5-0.5q23 0 41.5 1t34.5 2zm-229-520-34-87q-10-25-20.5-42t-22.5-28q-16-15-38-20.5t-40-5.5q-19 0-34.5 7t-24.5 20.5-9 32.5q0 24 14 38.5t39 14.5q21 0 36-12t15-35q0-17-8-28t-19-17q2-1 3.5-1t2.5 0q27 0 48 18.5t37 59.5l36 93z"/><path transform="translate(26.222 15.148) scale(.014 -.014)" d="m276 782q28 0 49.5-7.5t37.5-19.5q15-12 23-28t8-34q0-23-15-38t-38-15q-22 0-38.5 14.5t-16.5 39.5q0 21 11.5 34t30.5 17q-3 9-15.5 15.5t-33.5 6.5q-23 0-39.5-10t-25.5-27q-12-21-15-62.5t-3-127.5v-26h107v-20h-107v-391q0-49 28.5-65.5t77.5-16.5v-21q-23 1-65 2.5t-89 1.5q-34 0-67.5-1.5t-50.5-2.5v21q41 0 58.5 15t17.5 57v401h-80v20h80q0 59 5 99t16 68.5 30 50.5q20 23 51 36.5t68 13.5z"/><path transform="translate(30.87 15.148) scale(.014 -.014)" d="m171-7q-41 0-71 15.5t-45.5 43.5-15.5 65q0 44 20.5 72t52.5 45 67.5 28.5 67.5 22 52.5 24.5 20.5 37v62q0 42-12.5 64t-33.5 29.5-47 7.5q-25 0-53.5-7t-45.5-29q19-4 33-20t14-41-16-39.5-41-14.5q-29 0-42.5 18.5t-13.5 41.5q0 26 13 42t33 30q23 16 59.5 27.5t82.5 11.5q41 0 70-9.5t48-27.5q26-24 34-58.5t8-82.5v-278q0-25 7.5-36t23.5-11q11 0 21 5t24 16l11-17q-21-16-40-26.5t-51-10.5q-29 0-48 10t-28.5 29.5-9.5 49.5q-27-45-64.5-67t-84.5-22zm36 40q33 0 61.5 19t51.5 57v196q-12-17-35-28.5t-50-23-51.5-27-40.5-40.5-16-65 21.5-64 58.5-24z"/><path transform="translate(37.842 15.148) scale(.014 -.014)" d="m143 765q26 0 45-19t19-45-19-45-45-19-45 19-19 45 19 45 45 19zm52-239v-433q0-42 17.5-57t58.5-15v-21q-17 1-51.5 2.5t-69.5 1.5q-34 0-69-1.5t-52-2.5v21q41 0 58.5 15t17.5 57v313q0 45-16 66.5t-60 21.5v21q32-3 62-3 29 0 55.5 3.5t48.5 10.5z"/><path transform="translate(41.944 15.148) scale(.014 -.014)" d="m340 529q27 0 47.5-11t32-28.5 11.5-39.5q0-25-15.5-44t-41.5-19q-21 0-37 13.5t-16 38.5q0 19 10.5 32.5t23.5 21.5q-7 10-21 10-31 0-57-18.5t-44-47.5-28-61.5-10-60.5v-212q0-49 28.5-65.5t77.5-16.5v-21q-23 1-65 2.5t-89 1.5q-34 0-67.5-1.5t-50.5-2.5v21q41 0 58.5 15t17.5 57v313q0 45-16 66.5t-60 21.5v21q32-3 62-3 29 0 55.5 3.5t48.5 10.5v-125q11 29 31.5 58.5t49.5 49.5 64 20z"/><path transform="translate(51.66 15.148) scale(.014 -.014)" d="m315 708q179 0 266-89.5t87-256.5q0-109-42.5-190.5t-123.5-126.5-196-45q-15 0-40 1t-51.5 1.5-48.5 0.5q-35 0-69-0.5t-55-2.5v20q34 2 51.5 8t23.5 24 6 54v496q0 37-6 54.5t-23.5 24-51.5 7.5v20q21-1 55-2.5t67-0.5q35 1 79 2t72 1zm-25-18q-46 0-60-17t-14-69v-500q0-52 14.5-69t60.5-17q109 0 169 39.5t84 115.5 24 185q0 112-26.5 185.5t-87 110-164.5 36.5z"/><path transform="translate(61.782 15.148) scale(.014 -.014)" d="m143 765q26 0 45-19t19-45-19-45-45-19-45 19-19 45 19 45 45 19zm52-239v-433q0-42 17.5-57t58.5-15v-21q-17 1-51.5 2.5t-69.5 1.5q-34 0-69-1.5t-52-2.5v21q41 0 58.5 15t17.5 57v313q0 45-16 66.5t-60 21.5v21q32-3 62-3 29 0 55.5 3.5t48.5 10.5z"/><path transform="translate(65.884 15.148) scale(.014 -.014)" d="m208 529q40 0 68-13t41-24q33-27 40 36h23q-2-28-3-66.5t-1-103.5h-23q-6 37-20.5 72t-42.5 57.5-73 22.5q-35 0-58.5-19.5t-23.5-57.5q0-30 18-51.5t47-40 63-40.5q38-24 69-49t49.5-55 18.5-71q0-46-24-77t-62.5-47-84.5-16q-22 0-41.5 3.5t-37.5 10.5q-10 5-20.5 12t-20.5 15-18-0.5-12-33.5h-23q2 32 3 78t1 122h23q7-56 20-98t41-65.5 78-23.5q20 0 40.5 9t34.5 30 14 56q0 44-32 72t-81 59q-36 23-67.5 46t-51 52-19.5 70q0 45 20.5 73.5t54.5 42 73 13.5z"/><path transform="translate(72.142 15.148) scale(.014 -.014)" d="m188 526v-614q0-43 25.5-57.5t70.5-14.5v-21q-22 1-61 2.5t-83 1.5q-31 0-61.5-1.5t-46.5-2.5v21q36 0 51 13t15 49v504q0 45-16 66.5t-60 21.5v21q32-3 62-3 29 0 55.5 3.5t48.5 10.5zm160 3q53 0 95-28.5t66.5-83.5 24.5-136q0-54-13-106.5t-40.5-95-71-68-104.5-25.5q-47 0-81.5 22t-46.5 53l10 14q14-28 40.5-47t66.5-19q56 0 87 35t43.5 93.5 12.5 129.5q0 80-13 131t-39 76-64 25q-49 0-89-40.5t-51-122.5l-12 14q11 85 60.5 132t118.5 47z"/><path transform="translate(80.276 15.148) scale(.014 -.014)" d="m188 784v-691q0-42 17.5-57t58.5-15v-21q-17 1-51.5 2.5t-69.5 1.5q-34 0-69-1.5t-52-2.5v21q41 0 58.5 15t17.5 57v571q0 45-16 66.5t-60 21.5v21q32-3 62-3 29 0 55.5 3.5t48.5 10.5z"/><path transform="translate(84.28 15.148) scale(.014 -.014)" d="m171-7q-41 0-71 15.5t-45.5 43.5-15.5 65q0 44 20.5 72t52.5 45 67.5 28.5 67.5 22 52.5 24.5 20.5 37v62q0 42-12.5 64t-33.5 29.5-47 7.5q-25 0-53.5-7t-45.5-29q19-4 33-20t14-41-16-39.5-41-14.5q-29 0-42.5 18.5t-13.5 41.5q0 26 13 42t33 30q23 16 59.5 27.5t82.5 11.5q41 0 70-9.5t48-27.5q26-24 34-58.5t8-82.5v-278q0-25 7.5-36t23.5-11q11 0 21 5t24 16l11-17q-21-16-40-26.5t-51-10.5q-29 0-48 10t-28.5 29.5-9.5 49.5q-27-45-64.5-67t-84.5-22zm36 40q33 0 61.5 19t51.5 57v196q-12-17-35-28.5t-50-23-51.5-27-40.5-40.5-16-65 21.5-64 58.5-24z"/><path transform="translate(91.252 15.148) scale(.014 -.014)" d="m494 515v-20q-19-2-35-17t-30-53l-164-430h-17l-184 443q-19 39-37.5 47.5t-30.5 8.5v21q22-3 46-4.5t52-1.5q31 0 65.5 2t64.5 4v-21q-25 0-44.5-3.5t-24.5-21 12-59.5l123-305-6-2 114 298q13 33 10.5 52.5t-20.5 29.5-54 12v20q18-1 31-1.5t25.5-1 27.5-0.5q23 0 41.5 1t34.5 2zm-229-520-34-87q-10-25-20.5-42t-22.5-28q-16-15-38-20.5t-40-5.5q-19 0-34.5 7t-24.5 20.5-9 32.5q0 24 14 38.5t39 14.5q21 0 36-12t15-35q0-17-8-28t-19-17q2-1 3.5-1t2.5 0q27 0 48 18.5t37 59.5l36 93z"/></svg>