<svg width="181.68" height="39.844" viewBox="0 0 181.68 39.844" xmlns="http://www.w3.org/2000/svg"><path transform="translate(0 26.936) scale(.014 -.014)" d="m597 546q-17-1-26.5 10t-9.5 30q0 21 7.5 29.5t23.5 9.5q86 4 159.5 25.5t132 58.5 99.5 87.5 63 113 22 135.5q0 69-27 123.5t-78.5 91.5-126.5 56.5-172 19.5q-129 0-231-26.5t-181.5-79-144.5-132.5q-9-11-23-11t-29 12-15.5 25.5 8.5 24.5q49 64 112.5 114.5t141.5 85 169 53 195 18.5q119 0 211-25.5t155-73 96-117 33-157.5q0-86-25.5-160t-74.5-134.5-118-104.5-156-70.5-190-31.5zm-324-565q-51 0-93.5 18.5t-74 49-51.5 63.5q-10 18-9 32.5t17 24.5q18 11 30.5 9.5t25.5-18.5q23-31 47-52t51-32 61-11q59 0 87.5 46.5t28.5 142.5v922q0 14 11 20.5t32 6.5q22 0 33-6.5t11-20.5v-933q0-83-23.5-141.5t-69-89.5-114.5-31z"/><path transform="translate(17.066 26.936) scale(.014 -.014)" d="m-57-17q-19 0-28 11.5t-9 26 9 26 28 11.5q33 0 64 19.5t61.5 56.5 58.5 89 53 118 46.5 143.5 39 164.5 30 181.5 18.5 195 6 204.5q0 18 13 27t30.5 9 30.5-9 13-27q0-110-8-216t-22.5-206.5-35.5-193.5-47-175-57.5-152.5-65.5-126.5-71.5-95.5-77-60.5-79.5-21zm278 0q-26 0-45 7t-30.5 20-17 32.5-5.5 43.5v1140q0 98 38 148t110 50q45 0 75.5-22t45.5-65.5 15-106.5q0-19-13-28t-30.5-9-30.5 9-13 28q0 39-5.5 64t-17.5 37.5-30 12.5q-20 0-33-12.5t-19-38.5-6-67v-1130q0-13 4-21.5t11-12.5 16-4 16.5 3 14.5 8.5 14 10.5q8 7 18 2.5t17-12.5q8-10 8.5-20t-4.5-19q-11-15-28-26t-36-16.5-39-5.5z"/><path transform="translate(22.582 26.936) scale(.014 -.014)" d="m258-17q-57 0-101 27.5t-69 83.5-25 141q0 52 9.5 96t28.5 79 46 59 62 37 77 13q32 0 66-10.5t64-27.5v5q0 15 11 22t33 7 32.5-6.5 10.5-20.5v-392q0-13 4-21.5t11-12.5 16-4q10 0 16.5 2.5t13 7.5 15.5 12q7 6 16 3.5t18-10.5q9-10 10-21t-4-19q-11-16-28-27t-36.5-17-39.5-6q-23 0-40 5t-29 15.5-18.5 25.5-9.5 34q0 1-1 4.5t-1 7.5q-23-37-49.5-57t-54.5-27.5-54-7.5zm-107 256q0-55 13-94.5t39.5-60.5 66.5-21q29 0 55.5 10t49.5 33 41 60v242q-31 19-60 25.5t-61 6.5q-26 0-48-8t-40-24-30.5-40-19-56-6.5-73z"/><path transform="translate(31.29 26.936) scale(.014 -.014)" d="m481-82q16 17 32 32.5t32 30 30.5 26 25.5 19.5q14 10 26 5.5t19.5-16.5 6.5-26-15-24q-12-8-28-22.5t-34.5-32-37-36-35.5-34.5zm-144-842q-51 0-87.5 23t-56.5 67.5-20 109.5q0 59 11.5 124t35 134 59.5 137 86 132q16 20 33.5 40t36.5 38v196q-13-22-30.5-39.5t-38.5-29.5-45.5-18.5-51.5-6.5q-58 0-97 20.5t-58.5 61-19.5 101.5v323q0 13 10.5 19.5t31.5 6.5q22 0 33-6.5t11-19.5v-323q0-35 11-59t33.5-36 55.5-12q28 0 52 9t43.5 24.5 34.5 37.5 25 47v312q0 13 10.5 19.5t32.5 6.5q21 0 32-6.5t11-19.5v-1177q0-56-12-99.5t-35.5-74-58-46.5-78.5-16zm6 75q22 0 39 11.5t29 32 18 50.5 6 67v457q-9-9-18-18.5t-18-20.5q-32-46-57-101.5t-43-115-27.5-119.5-9.5-116q0-39 9.5-68t27.5-44 44-15z"/><path transform="translate(40.25 26.936) scale(.014 -.014)" d="m279-17q-39 0-67.5 12t-48 36.5-29 62-9.5 89.5v186q0 42-13 56.5t-36 14.5q-16 0-28-9t-18.5-26-8.5-40q-1-16-9-23.5t-26-7.5q-16 0-26 7t-9 33q2 43 17.5 74.5t43.5 49 64 17.5q35 0 60.5-10t42-31 24.5-52 8-73v-143q0-39 3-67t12-45.5 25.5-26 42.5-8.5q20 0 42 7.5t41 26.5 30.5 52.5 11.5 84.5l29-120q-12-31-29.5-55t-40-40-47.5-24-52-8zm305-2q-40 0-70.5 13t-51.5 39-32 65-11 91v300q0 13 10.5 19.5t31.5 6.5q22 0 33-6.5t11-19.5v-283q0-39 3.5-67t13-45 26.5-25 45-8q19 0 36 4.5t31.5 15 26 27 19.5 40 12.5 55 4.5 71.5q0 81-8.5 125t-22.5 61.5-33 17.5q-18 0-24.5-10.5t-6.5-22.5q0-13 10-26t35.5-21 70.5-8q38 0 72 16t70 39q12 8 22 2t16.5-18 6-24.5-9.5-18.5q-43-30-83.5-46t-93.5-16q-61 0-101 15.5t-59 43-19 62.5q0 27 11 47.5t32 32 51 11.5q53 0 86-34t48.5-93 15.5-135q0-46-6.5-85.5t-19-72-31-57.5-43.5-42.5-56.5-26.5-68.5-9z"/><path transform="translate(52.682 26.936) scale(.014 -.014)" d="m-55-17q-19 0-28.5 11.5t-10 26 8.5 26 28 11.5q25 0 46.5 15.5t40 46 33.5 75.5 27 105 20 133l60-9q-9-112-27.5-195t-46.5-137.5-65.5-81.5-85.5-27zm515 0q-26 0-45 7t-31 20.5-18 34-6 46.5q0 28 2.5 64t5 74 5 72.5 2.5 59.5q0 39-9.5 53.5t-35.5 14.5q-21 0-46.5-6t-52-13.5-52.5-13.5-49-6q-45 0-77 16t-48.5 44.5-16.5 63.5q0 41 23 65t62 24q36 0 58-19t32-49.5 10-65.5q8 0 26 6.5t42.5 15.5 52 15.5 54.5 6.5q40 0 65-15t36.5-46.5 11.5-82.5q0-23-2.5-58.5t-5-75-5-74.5-2.5-58q0-26 7.5-35.5t22.5-9.5q10 0 18 3t15.5 8.5 14.5 10.5q8 6 18 2t17-12q8-10 8.5-20t-4.5-19q-11-15-27.5-26t-36-16.5-39.5-5.5zm-350 473q0 24-4 44t-12 32-20 12q-11 0-17.5-8t-6.5-23q0-20 16-38.5t44-18.5z"/><path transform="translate(60.634 26.936) scale(.014 -.014)" d="m193-17q-52 0-75.5 27t-23.5 76v403q0 13 10.5 19.5t31.5 6.5q22 0 33-6.5t11-19.5v-393q0-20 9-29t22-9q11 0 18.5 3.5t14 8.5 14.5 11q6 5 16.5 1t16.5-12q8-9 9-19t-5-18q-11-16-27.5-27t-36-17-38.5-6zm-55 686q-28 0-42.5 15.5t-14.5 46.5q0 32 14.5 48t42.5 16q27 0 41-16t14-48q1-31-13.5-46.5t-41.5-15.5z"/><path transform="translate(64.834 26.936) scale(.014 -.014)" d="m243-17q-42 0-69.5 15.5t-41 44-13.5 68.5v593q0 13 10.5 19.5t31.5 6.5q22 0 33-6.5t11-19.5v-204h126q15 0 21.5-8.5t6.5-31.5q0-22-6.5-31t-21.5-9h-126v-299q0-34 9.5-48.5t34.5-14.5q23 0 39.5 11t34.5 27q12 11 22.5 7.5t19.5-12.5q11-10 11.5-20.5t-5.5-19.5q-17-25-38-40t-44-21.5-46-6.5z"/><path transform="translate(70.266 26.936) scale(.014 -.014)" d="m300-17q-40 0-77.5 17t-69 48-55 73.5-36.5 93-13 106.5q0 34 8 64.5t23 55 36 42 47 27 56 9.5q57 0 92.5-23t51.5-60.5 16-80.5q0-34-12.5-70t-34.5-70.5-51-66.5q-43-48-98-85.5t-116.5-58.5-126.5-21q-14 0-21 11.5t-5.5 26 12.5 26 33 11.5q46 0 94.5 18t92.5 48 75 65q22 25 37.5 51.5t23.5 53.5 8 52q0 53-20 73.5t-54 20.5q-17 0-31.5-7.5t-25.5-23-17-37.5-6-51q0-57 16.5-104.5t43.5-81.5 57.5-53 57.5-19q19 0 37 7.5t37.5 22.5 39.5 37q14 16 27 15.5t27-11.5 16.5-23-6.5-26q-25-38-58.5-60.5t-67.5-32-63-9.5z"/><path transform="translate(80.682 26.936) scale(.014 -.014)" d="m766-18q-35 0-70 6t-68.5 17-62.5 27q-17 10-22.5 22.5t4.5 30.5q9 18 20.5 22t31.5-5q26-12 53.5-20t56-12 57.5-4q78 0 143 27t113.5 75.5 75 114.5 26.5 145q0 91-41.5 155t-119 98-185.5 34q-24-13-46-19.5t-44-6.5q-35 0-53.5 16.5t-18.5 40.5q0 17 8.5 32.5t26.5 25.5 44 10q25 0 45.5-5t34.5-12q65 11 115.5 37t86 64.5 54 89 18.5 110.5q0 78-45 130.5t-133.5 79.5-218.5 27q-125 0-224-26t-178-79-143-133q-10-10-24-10t-29 12-15.5 25.5 8.5 24.5q50 64 113 114t139 85 165 53.5 190 18.5q154 0 263-38t167-109.5 58-172.5q0-60-19-113.5t-54-97-83.5-75-108.5-47.5v-3q73 0 135.5-24.5t108.5-69 71-105 25-132.5q0-78-21.5-147.5t-62-124.5-96.5-95.5-124.5-62-146.5-21.5zm-493-1q-51 0-93.5 18.5t-74 49-51.5 63.5q-10 18-9 32.5t17 24.5q18 11 30.5 9.5t25.5-18.5q23-31 47-52t51-32 61-11q59 0 87.5 46.5t28.5 142.5v922q0 14 11 20.5t32 6.5q22 0 33-6.5t11-20.5v-933q0-83-23.5-141.5t-69-89.5-114.5-31z"/><path transform="translate(99.022 26.936) scale(.014 -.014)" d="m547-19q-126 0-220 47.5t-146 134-52 202.5q0 67 21 128t59 111.5 90 85.5 114 49q-69 20-120 67.5t-79.5 114.5-28.5 145q0 62 18 116t52 97.5 80.5 75 104 48.5 123.5 17 127-16 114.5-48 97.5-79q15-14 18-30t-14-32q-17-15-30.5-12.5t-30.5 18.5q-40 37-85.5 62t-96 38.5-105.5 13.5q-61 0-113-20t-89.5-55-57.5-84.5-20-107.5q0-84 35-150t97.5-104 142.5-38h175q15 0 21-8.5t6-31.5q0-22-6-31t-21-9h-174q-73 0-133.5-24t-104.5-68-68.5-103.5-24.5-129.5q0-93 40-161.5t113.5-106 171.5-37.5q63 0 122 20.5t112.5 60.5 99.5 100q15 17 27.5 19.5t27.5-10.5q17-14 19.5-27.5t-14.5-35.5q-52-69-115-116.5t-133-71.5-147-24z"/><path transform="translate(117.53 26.936) scale(.014 -.014)" d="m649-19q-115 0-181 97t-93 287q-13 89-22.5 181t-17.5 192.5-14.5 212.5-12.5 242q-3 53-11 86t-24 48-42 15q-32 0-57-16.5t-49.5-53.5-56.5-97q-7-14-19.5-18t-29.5 3q-17 8-21 22.5t3 30.5q36 73 71 119.5t75 69 88 22.5q52 0 86-25t52.5-75.5 22.5-127.5q4-94 8-175.5t9-152 10-134.5 11-123 12.5-116.5 15.5-116.5q14-103 41-173.5t66-106.5 91-36q40 0 74.5 21.5t62.5 65 52 109 41.5 154.5 30 202 20.5 249q-9 24-15.5 50.5t-6.5 47.5q0 24 7.5 42t22 29.5 34.5 11.5q33 0 51-26.5t18-67.5q0-24-2.5-45t-10.5-40q7-79 14-150.5t15.5-134.5 18.5-118.5 22-102.5q26-102 57.5-168t70.5-98 86-32q45 0 83.5 35t69.5 101.5 52.5 161.5 33 214.5 11.5 260.5q0 68-2 131.5t-6.5 121-10 106-12.5 86.5q-46 13-67 38.5t-21 50.5q0 23 16 40.5t45 17.5q38 0 62-21t41-53q13-14 47.5-31t80.5-31.5 95-23.5q15-3 19-13t4-21q0-15-9-27.5t-26-11.5q-17 2-39 6t-44.5 10.5-44 14-39.5 16-29 15.5q8-49 14.5-111t9.5-141 3-181q0-127-11-239t-32-206-51-167.5-68-124-83.5-77.5-97.5-27q-69 0-121.5 37t-91.5 114-66 197q-7 33-13 69t-11 75.5-10 82-8 88.5h-4q-11-134-30.5-240.5t-48.5-185.5-68-132-88-79-108-26z"/><path transform="translate(143.84 26.936) scale(.014 -.014)" d="m197-17q-29 0-54 3.5t-45.5 9-33.5 12.5-19 19 0 28q5 18 15.5 25t21.5 3q19-7 50-13t65-6q42 0 81 17t77.5 56.5 76.5 106.5 76.5 166.5 78 237.5 80.5 317.5 84 407.5q5 28 23 37.5t45 9.5q29 0 45.5-8.5t22.5-38.5q18-93 38-191.5t44.5-203.5 53.5-219.5 63.5-238.5 76.5-261q16-53 31.5-90t33-60.5 37.5-34.5 44-11q37 0 66.5 36t52.5 108 38 179q2 16 13 23t32 3q20-3 28-12.5t6-24.5q-16-130-48.5-217t-79.5-131-108-44q-40 0-72 13t-58 42.5-49.5 77.5-46.5 118q-14 48-28 93.5t-27 89.5h-430q-37-100-74-173t-76-123.5-79.5-81-83-43.5-88.5-13zm428 511h381q-42 151-76 287.5t-62 263-51 246.5q-48-258-96-455t-96-342z"/><path transform="translate(165.14 26.936) scale(.014 -.014)" d="m782-11q-80 0-144.5 20.5t-118.5 51.5-100 62-87.5 51.5-81.5 20.5q-36 0-58.5-18.5t-22.5-48.5q0-28 22.5-46.5t55.5-18.5q41 0 69.5 26t43.5 77 15 126v611q0 120 24.5 216t70 163 110.5 102.5 148 35.5q70 0 127.5-29t92.5-82.5 35-129.5q0-67-24.5-120.5t-71-91.5-113-58-149.5-20q-110 0-203.5 24.5t-173 66.5-148.5 94q-14 10-16 24t9 30q12 18 25.5 20.5t27.5-8.5q62-49 135.5-87.5t159-60 184.5-21.5q62 0 112 14.5t84.5 41 52.5 65.5 18 87q0 51-21.5 85.5t-59 53-87.5 18.5q-61 0-109.5-29.5t-82.5-86-52-137-18-182.5v-609q0-100-26.5-169t-75-104.5-116.5-35.5q-48 0-85.5 18.5t-59 51.5-21.5 75q0 43 21.5 76.5t59.5 52 86 18.5q52 0 100.5-20t97.5-50.5 102-61 113-50.5 130-20q72 0 128 25t93.5 72 53.5 112q4 17 17.5 22t34.5-3q17-4 23.5-15t2.5-26q-18-84-67.5-145t-123.5-93.5-168-32.5z"/></svg>