<svg width="153.92" height="26.614" viewBox="0 0 153.92 26.614" xmlns="http://www.w3.org/2000/svg"><path transform="translate(0 19.754) scale(.014 -.014)" d="m438 389q-12 0-18 6.5t-6 18.5q0 11 5 17t16 7q66 2 123 18t103 43 78.5 63.5 49.5 81 17 95.5-20 90-59 66-95 41-127 14q-83 0-155-17t-128.5-50-96.5-82q-7-8-15.5-9t-18.5 6q-10 8-11.5 16t5.5 18q31 40 74.5 71t97 53 117.5 33.5 136 11.5q84 0 150-17.5t111.5-51 69-82 23.5-110.5q0-59-20-111t-57-94.5-89.5-74-118-50-141.5-21.5zm-234-406q-36 0-67 12.5t-55 34-40 46.5q-6 9-4.5 17.5t11.5 15.5q11 7 19 5.5t16-10.5q16-23 34.5-38.5t40.5-23.5 48-8q46 0 70 34.5t24 100.5v660q0 11 6.5 16t20.5 5 20.5-4.5 6.5-14.5v-669q0-54-17.5-94.5t-50.5-62.5-83-22zm-204-459h912v-10h-912zm0 496h912v-20h-912zm0 485h912v-5h-912zm0 491h912v-10h-912z"/><path transform="translate(12.768 19.754) scale(.014 -.014)" d="m192-17q-40 0-62 25t-22 74v900q0 10 6 14.5t19 4.5q14 0 20.5-4.5t6.5-14.5v-888q0-31 10-47t32-16q11 0 21 3t20 10.5 20 17.5q6 6 12.5 6t13.5-8q5-5 6.5-11.5t-2.5-13.5q-11-16-27.5-27.5t-35.5-18-38-6.5zm-192-459h299v-10h-299zm0 496h299v-20h-299zm0 485h299v-5h-299zm0 491h299v-10h-299z"/><path transform="translate(16.954 19.754) scale(.014 -.014)" d="m265-17q-55 0-99 29t-69.5 86-25.5 140q0 50 9.5 93t28.5 77.5 47 59 64.5 38 80.5 13.5q34 0 67-10t66-30v16q0 11 6.5 15.5t20.5 4.5 20-4.5 6-14.5v-405q0-21 4.5-34.5t14.5-20 25-6.5q10 0 19.5 3.5t19 11 20.5 18.5q5 6 11.5 5.5t12.5-7.5q7-6 8-13t-3-14q-11-15-27-26.5t-34-18-36-6.5q-21 0-36.5 5.5t-27 17-17 28-6.5 38.5q0 4-0.5 9.5t-0.5 10.5q-23-45-52-68.5t-59.5-32-57.5-8.5zm-138 259q0-62 16.5-109t49-73.5 81.5-26.5q32 0 62.5 13.5t56 46 41.5 88.5v248q-35 24-67 32.5t-65 8.5q-32 0-59-9.5t-48.5-28.5-36.5-46.5-23-63.5-8-80zm-127-718h622v-10h-622zm0 496h622v-20h-622zm0 485h622v-5h-622zm0 491h622v-10h-622z"/><path transform="translate(25.662 19.754) scale(.014 -.014)" d="m484-22q15 10 31 19.5t33 19 33 18 31 14.5q10 4 17.5 0t10.5-12.5 0.5-17-13.5-13.5q-16-8-34-17.5t-36-20-35.5-21-33.5-20.5zm-158-483q-41 0-71.5 16.5t-47 48-16.5 74.5q0 40 10 75.5t29.5 67 48.5 61.5 68 58q26 17 52.5 33.5t52.5 33.5v133q-15-33-36.5-55t-45.5-35-49.5-18.5-50.5-5.5q-48 0-85 19.5t-57.5 60-20.5 104.5v330q0 9 6 13.5t19 4.5q14 0 20.5-4.5t6.5-13.5v-325q0-44 12.5-75.5t38.5-48.5 67-17q29 0 56 9t50 27.5 41 48.5 28 71v310q0 10 6.5 14.5t20.5 4.5q13 0 19-4.5t6-14.5v-754q0-60-12-106.5t-35-77.5-56.5-47-74.5-16zm6 49q26 0 47.5 12t38 36 25.5 60 9 83v170q-24-14-47.5-28.5t-46.5-29.5q-26-21-46.5-44t-35-49.5-22-55.5-7.5-61q0-27 10-48.5t28.5-33 46.5-11.5zm-332-20h640v-10h-640zm0 496h640v-20h-640zm0 485h640v-5h-640zm0 491h640v-10h-640z"/><path transform="translate(34.622 19.754) scale(.014 -.014)" d="m257-18q-36 0-64 12.5t-47.5 38-29 63.5-9.5 88v312q0 10 6.5 14.5t19.5 4.5q14 0 20-4.5t6-14.5v-307q0-51 10.5-87t34.5-54 63-18q27 0 51.5 9.5t44 29 32 49 14.5 69.5v309q0 10 6.5 14.5t20.5 4.5 20-4.5 6-14.5v-292q0-46 4.5-78.5t16-53.5 31-31.5 48.5-10.5q27 0 51 9t44.5 27.5 35.5 45 24 61.5 9 78q0 34-5.5 74t-19.5 81-40 78q-6 11-3.5 18.5t10.5 12 15 4.5q10 0 15-4.5t14-16.5q17-21 32.5-61.5t25.5-87.5 10-91q0-42-9.5-82.5t-27.5-75.5-45-61.5-62.5-42-79.5-15.5q-33 0-59.5 12t-45 36-29.5 59q-14-34-39-57.5t-57-36-69-12.5zm-257-458h861v-10h-861zm0 496h861v-20h-861zm0 485h861v-5h-861zm0 491h861v-10h-861z"/><path transform="translate(46.676 19.754) scale(.014 -.014)" d="m157-15q-13 0-19 4.5t-6 14.5v370q0 50-17.5 71.5t-48.5 21.5q-22 0-37.5-11.5t-25-37-12.5-66.5q0-9-6-13.5t-18-4.5q-10 0-16.5 4.5t-6.5 16.5q2 53 17.5 88.5t42.5 53.5 63 18q23 0 42.5-5.5t34-18 24-32 13.5-47.5l1-9q12 32 28 53.5t33.5 35.5 34.5 20.5 31 6.5 22-5 8-20q1-38 8.5-59.5t19-30 24.5-8.5q34 0 67 21t66 53q5 5 12 3.5t13-8.5 7.5-14-3.5-12q-35-38-77-62.5t-85-24.5q-24 0-44.5 11t-33 36.5-16.5 67.5q-16-2-32.5-13t-32-31.5-28-50.5-20.5-69v-299q0-10-6.5-14.5t-20.5-4.5zm-157-461h551v-10h-551zm0 496h551v-20h-551zm0 485h551v-5h-551zm0 491h551v-10h-551z"/><path transform="translate(54.39 19.754) scale(.014 -.014)" d="m192-17q-41 0-63 25t-22 74v414q0 10 6 14.5t19 4.5q14 0 20.5-4.5t6.5-14.5v-402q0-31 10-47t33-16q11 0 21 3.5t20 10.5 20 17q5 6 12 5.5t13-7.5q6-6 7-12.5t-3-13.5q-11-15-27.5-26.5t-35-18-37.5-6.5zm-59 700q-22 0-33 12t-11 37 11 37.5 33 12.5q21 0 32-12.5t11-37.5q1-25-10.5-37t-32.5-12zm-133-1159h300v-10h-300zm0 496h300v-20h-300zm0 485h300v-5h-300zm0 491h300v-10h-300z"/><path transform="translate(58.59 19.754) scale(.014 -.014)" d="m244-17q-36 0-59.5 14.5t-35 42.5-11.5 67v345h-91q-11 0-15 6t-4 18q0 13 4 18.5t15 5.5h91v211q0 10 6.5 14.5t19.5 4.5 20-4.5 7-14.5v-211h141q11 0 15.5-5.5t4.5-18.5q0-12-4.5-18t-15.5-6h-141v-333q0-41 12-64.5t47-23.5q25 0 42.5 14t34.5 34q7 9 14.5 7.5t15.5-7.5q7-7 9-14.5t-3-14.5q-14-21-32-36t-40-23-47-8zm-244-459h388v-10h-388zm0 496h388v-20h-388zm0 485h388v-5h-388zm0 491h388v-10h-388z"/><path transform="translate(64.022 19.754) scale(.014 -.014)" d="m307-17q-38 0-74.5 17t-68 48-55 73.5-37 93-13.5 106.5q0 34 7.5 64.5t21.5 55 34 42 44.5 27 52.5 9.5q53 0 86-22.5t48-59.5 15-79q0-34-11.5-69.5t-32.5-70-50-66.5q-41-48-96-86t-115.5-60.5-122.5-22.5q-9 0-14 7.5t-4.5 16.5 6.5 16.5 18 7.5q54 0 107 20t100.5 54 82.5 75q24 27 41 56.5t26.5 59.5 9.5 58q0 59-26 87.5t-72 28.5q-21 0-39.5-10.5t-32.5-30.5-21.5-47-7.5-60q0-66 18.5-119.5t48.5-91.5 65-58.5 68-20.5q30 0 53 12t41 29.5 31 32.5q8 9 16 8.5t17-7.5q8-6 10.5-13.5t-3.5-16.5q-16-24-42-45.5t-59-35-71-13.5zm-307-459h444v-10h-444zm0 496h444v-20h-444zm0 485h444v-5h-444zm0 491h444v-10h-444z"/><path transform="translate(74.438 19.754) scale(.014 -.014)" d="m438 389q-12 0-18 6.5t-6 18.5q0 11 5 17t16 7q66 2 123 18t103 43 78.5 63.5 49.5 81 17 95.5-20 90-59 66-95 41-127 14q-83 0-155-17t-128.5-50-96.5-82q-7-8-15.5-9t-18.5 6q-10 8-11.5 16t5.5 18q31 40 74.5 71t97 53 117.5 33.5 136 11.5q84 0 150-17.5t111.5-51 69-82 23.5-110.5q0-59-20-111t-57-94.5-89.5-74-118-50-141.5-21.5zm-234-406q-36 0-67 12.5t-55 34-40 46.5q-6 9-4.5 17.5t11.5 15.5q11 7 19 5.5t16-10.5q16-23 34.5-38.5t40.5-23.5 48-8q46 0 70 34.5t24 100.5v660q0 11 6.5 16t20.5 5 20.5-4.5 6.5-14.5v-669q0-54-17.5-94.5t-50.5-62.5-83-22zm-204-459h912v-10h-912zm0 496h912v-20h-912zm0 485h912v-5h-912zm0 491h912v-10h-912z"/><path transform="translate(87.206 19.754) scale(.014 -.014)" d="m149-21q-35 0-61 11t-40.5 32-14.5 50q0 31 14.5 54t40.5 36 60 13q32 0 60-10t55-25 55.5-32 61-32.5 71.5-25 86-9.5q58 0 105.5 20.5t79.5 56 44 80.5q4 10 11.5 13.5t19.5-0.5q11-2 15-9t1-19q-13-55-53-98.5t-96.5-69-122.5-25.5q-67 0-116.5 13.5t-87.5 34-69 40.5-60 33.5-60 13.5q-28 0-44-13t-16-35q0-23 17.5-36.5t44.5-13.5q44 0 71.5 44t27.5 114v548q0 65 15 115t44.5 84 73 51.5 100.5 17.5q54 0 96-18.5t71.5-56 45.5-94.5q4-13 0.5-20.5t-15.5-10.5q-13-4-20.5-0.5t-11.5 15.5q-14 46-37 76t-55.5 44-75.5 14q-44 0-77-13.5t-55.5-41.5-34-70-11.5-98v-542q0-63-18.5-109t-53-71.5-81.5-25.5zm-149-455h852v-10h-852zm0 496h852v-20h-852zm0 485h852v-5h-852zm0 491h852v-10h-852z"/><path transform="translate(103.33 19.754) scale(.014 -.014)" d="m662-505q-43 0-73.5 17t-47 49-16.5 76q0 38 13 77.5t38.5 80.5 61.5 84 82 87q50 51 98 94t94 81.5 90 71.5q11 8 17.5 6.5t14.5-12.5q6-10 4.5-17t-10.5-14q-46-35-94-75t-96-84.5-96-93.5q-37-39-67-76t-51-72-31.5-69-10.5-66q0-45 21.5-70t62.5-25q58 0 88 52t30 150v566q-23-69-57.5-124.5t-78-95-93.5-61-105-21.5q-80 0-145.5 34t-113 97-73 150-25.5 194q0 77 13.5 144.5t39.5 124.5 62.5 102.5 83 77.5 101 49 115.5 17q59 0 110.5-14t96.5-42.5 83-71.5q9-9 9-16.5t-11-17.5q-9-9-17.5-8.5t-18.5 10.5q-34 36-73.5 60t-84 35.5-94.5 11.5q-53 0-100-15t-86.5-43.5-71-69-54-92-34-112.5-11.5-129q0-96 21.5-173.5t62-133 96-85.5 123.5-30q62 0 115.5 31t97 86 73.5 127.5 44 155.5q0 11 6.5 15t20.5 4q27 0 27-19v-713q0-85-19.5-142t-59-86-97.5-29zm-662 29h1045v-10h-1045zm0 496h1045v-20h-1045zm0 485h1045v-5h-1045zm0 491h1045v-10h-1045z"/><path transform="translate(117.96 19.754) scale(.014 -.014)" d="m270-18q-48 0-85 19.5t-57.5 60-20.5 104.5v330q0 9 6 13.5t19 4.5q14 0 20.5-4.5t6.5-13.5v-325q0-44 12.5-75.5t38.5-48.5 67-17q29 0 56 9t50 27.5 41 48.5 28 71v310q0 10 6.5 14.5t20.5 4.5q13 0 19-4.5t6-14.5v-403q0-20 4.5-34.5t14.5-22 24-7.5q10 0 20 3.5t20 10.5 20 18q6 6 13 5.5t13-7.5q5-5 6.5-12t-3.5-13q-11-15-27-27t-34-19-38-7-35 6-26 18-17 30-7 41v21q-15-34-36.5-56t-45.5-35-49.5-18.5-50.5-5.5zm-270-458h646v-10h-646zm0 496h646v-20h-646zm0 485h646v-5h-646zm0 491h646v-10h-646z"/><path transform="translate(127.01 19.754) scale(.014 -.014)" d="m192-17q-41 0-63 25t-22 74v414q0 10 6 14.5t19 4.5q14 0 20.5-4.5t6.5-14.5v-402q0-31 10-47t33-16q11 0 21 3.5t20 10.5 20 17q5 6 12 5.5t13-7.5q6-6 7-12.5t-3-13.5q-11-15-27.5-26.5t-35-18-37.5-6.5zm-59 700q-22 0-33 12t-11 37 11 37.5 33 12.5q21 0 32-12.5t11-37.5q1-25-10.5-37t-32.5-12zm-133-1159h300v-10h-300zm0 496h300v-20h-300zm0 485h300v-5h-300zm0 491h300v-10h-300z"/><path transform="translate(131.21 19.754) scale(.014 -.014)" d="m265-17q-55 0-99 29t-69.5 86-25.5 140q0 50 9.5 93t28.5 77.5 47 59 65 38 82 13.5q33 0 65.5-9.5t66.5-29.5v502q0 10 6.5 14.5t19.5 4.5q14 0 20-4.5t6-14.5v-891q0-31 11-46t33-15q10 0 20 3.5t19.5 11.5 19.5 18q6 6 12.5 5t12.5-8q6-6 7.5-12.5t-3.5-13.5q-11-15-27-26.5t-34-18-36-6.5q-29 0-48.5 11.5t-29 32-9.5 48.5q0 4 0 8.5t0 8.5q-23-45-52.5-68.5t-60-32-57.5-8.5zm-138 259q0-62 16.5-109t49-73.5 81.5-26.5q32 0 62.5 13.5t56 46 42.5 88.5v247q-35 24-67.5 33t-65.5 9q-32 0-59-9.5t-48.5-28.5-36.5-46.5-23-63.5-8-80zm-127-718h628v-10h-628zm0 496h628v-20h-628zm0 485h628v-5h-628zm0 491h628v-10h-628z"/><path transform="translate(140 19.754) scale(.014 -.014)" d="m307-17q-38 0-74.5 17t-68 48-55 73.5-37 93-13.5 106.5q0 34 7.5 64.5t21.5 55 34 42 44.5 27 52.5 9.5q53 0 86-22.5t48-59.5 15-79q0-34-11.5-69.5t-32.5-70-50-66.5q-41-48-96-86t-115.5-60.5-122.5-22.5q-9 0-14 7.5t-4.5 16.5 6.5 16.5 18 7.5q54 0 107 20t100.5 54 82.5 75q24 27 41 56.5t26.5 59.5 9.5 58q0 59-26 87.5t-72 28.5q-21 0-39.5-10.5t-32.5-30.5-21.5-47-7.5-60q0-66 18.5-119.5t48.5-91.5 65-58.5 68-20.5q30 0 53 12t41 29.5 31 32.5q8 9 16 8.5t17-7.5q8-6 10.5-13.5t-3.5-16.5q-16-24-42-45.5t-59-35-71-13.5zm-307-459h444v-10h-444zm0 496h444v-20h-444zm0 485h444v-5h-444zm0 491h444v-10h-444z"/><path transform="translate(146.22 19.754) scale(.014 -.014)" d="m-59-17q-13 0-19 7.5t-6 16.5 6 16.5 18 7.5q39 0 72.5 28.5t64 85 59 141.5 55.5 197l35-9q-27-124-56-216t-63.5-153-75.5-91.5-90-30.5zm357-2q-42 0-80 12t-67 34q-6 6-6.5 14.5t7.5 17.5q7 9 14.5 10.5t16.5-4.5q28-20 55.5-29t64.5-9q51 0 80.5 31.5t29.5 85.5q0 42-17 71.5t-44 51-57 41-57 43-44 55.5-17 79q0 26 10.5 49.5t34.5 23.5q13 0 20-7.5t7-20.5q0-11-5.5-30.5t-15.5-43.5q1-29 19-51.5t45-41 57-38.5 57-44.5 44-57.5 17-79q0-73-46-118t-123-45zm-298-457h550v-10h-550zm0 496h550v-20h-550zm0 485h550v-5h-550zm0 491h550v-10h-550z"/></svg>