<svg width="103.31" height="27.776" viewBox="0 0 103.31 27.776" xmlns="http://www.w3.org/2000/svg"><path transform="translate(0 20.384) scale(.014 -.014)" d="m503 390q-17-1-22.5 10.5t-1.5 28.5q5 16 14.5 26.5t26.5 11.5q69 2 136 16t125 39.5 103 63 70 86.5 25 109q0 45-18.5 77.5t-52.5 54.5-80.5 33-103.5 11q-69 0-144-16.5t-149.5-53.5-143.5-100q-19-18-32.5-16.5t-27.5 13.5q-10 10-10.5 25t14.5 31q53 54 116 91.5t130 61 132 34.5 121 11q85 0 149-18.5t106.5-52.5 64-80.5 21.5-103.5q0-76-31-136.5t-85.5-107-126.5-78.5-155-49.5-170-21.5zm-350-407q-43 0-76.5 20.5t-56 54-30.5 71.5q-5 19-0.5 33t24.5 19q20 6 31-0.5t17-23.5q11-30 25-50t31-29.5 38-9.5q35 0 60 28.5t49 103.5l204 634q5 14 17.5 20.5t34.5 6.5q23 0 33.5-6.5t4.5-23.5l-204-635q-21-63-49-111.5t-65.5-75-87.5-26.5z"/><path transform="translate(13.146 20.384) scale(.014 -.014)" d="m-172-17q-19 0-24.5 11.5t-1.5 26 16 26 29 11.5q26 0 64 19.5t84 55 96 83.5 101 104.5 99 118 89.5 124.5 72.5 124 49 117 18 102q0 15 12.5 22.5t29.5 7.5 30-7.5 13-22.5q0-49-19.5-108.5t-54.5-125.5-81.5-134.5-101-136-112.5-129.5-115.5-114.5-111.5-92-100.5-61-80.5-21.5zm327 2q-39 0-57.5 16t-22.5 41.5 1.5 54.5 13.5 56l223 684q34 108 78 156.5t106 48.5q33 0 57-17t37.5-47.5 13.5-71.5q0-19-13-28t-30-9-29.5 9-12.5 28q0 16-3.5 28.5t-11 19.5-20.5 7q-15 0-29-12t-28.5-42.5-33.5-86.5l-231-713q-5-16-6-26.5t3-15.5 12-5q11 0 22.5 7t23 19 23.5 27q7 10 15.5 12t21.5-7q17-10 19-20t-3-21q-9-15-28.5-37.5t-47.5-38.5-63-16z"/><path transform="translate(18.662 20.384) scale(.014 -.014)" d="m159-17q-37 0-64.5 18.5t-42.5 53-15 80.5 13.5 98 41 102.5 67 92 91.5 66.5 117 25q30 0 62-8.5t61-23.5l1 4q6 16 15.5 20t27.5 4q31 0 39.5-9.5t1.5-29.5l-123-369q-5-16-6-26.5t3-15.5 13-5q11 0 22 7t22.5 19 23.5 27q8 10 16.5 12t21.5-7q16-10 18.5-20t-2.5-21q-9-15-28.5-37.5t-47.5-38.5-63-16-53 14-23.5 35.5-2.5 46.5 9 48q1 2 1.5 4.5t1.5 5.5q-40-54-78.5-89t-74-51-66.5-16zm-31 167q0-27 7-46.5t20.5-30 31.5-10.5q34 0 76 32.5t87 95 92 151.5l25 76q-31 13-58 17.5t-51 4.5q-45 0-82-19.5t-64.5-52-46-71.5-28-77.5-9.5-69.5z"/><path transform="translate(27.37 20.384) scale(.014 -.014)" d="m396-7q20 13 40 25t38.5 22.5 36 20 31.5 16.5q16 7 25 0.5t12.5-20-0.5-26.5-15-19q-20-11-41.5-24t-45-26.5-47-28.5-46.5-30zm-294-535q-36 0-64 15t-43.5 40.5-15.5 57.5q0 39 15.5 77.5t46 76.5 74.5 77 102 81q31 20 62.5 41t63.5 42l63 193q-29-42-59-74.5t-61-55-62.5-33.5-62.5-11q-49 0-76.5 23t-31 67.5 16.5 106.5l100 301q7 20 16.5 26t28.5 6q31 0 39.5-9.5t1.5-29.5l-104-311q-10-29-11.5-52t10.5-36 41-13q32 0 69.5 25t76.5 70 76.5 107 69.5 136l26 81q7 20 16.5 26t28.5 6q31 0 39.5-9.5t1.5-29.5l-244-749q-23-72-48.5-123.5t-55-83.5-65.5-47-81-15zm13 77q25 0 46.5 13.5t39.5 38 35 61 31 82.5l41 127q-16-11-33-22t-34-22q-45-34-78-65t-54-59-31.5-54-10.5-50q0-15 6-26t16.5-17.5 25.5-6.5z"/><path transform="translate(36.33 20.384) scale(.014 -.014)" d="m198-19q-46 0-72 19t-35.5 51-5.5 71.5 18 80.5l69 210q4 13 0 21.5t-16 8.5q-11 0-23-6.5t-27.5-22-36.5-42.5q-12-13-21.5-16t-26.5 5q-19 11-18 23.5t8 23.5q22 31 45.5 56t52.5 39.5 65 14.5 55-13 25-34 3-46.5-10-48.5l-61-190q-10-32-14-60.5t6.5-46.5 42.5-18q27 0 56 18.5t56.5 50.5 51 72 39.5 83l65 199q5 16 14 24t31 8q33 0 39-9.5t0-28.5l-82-266q-7-20-12.5-45.5t-4-50 13.5-40 42-15.5q34 0 66.5 21t60 56 48 78 32 88.5 11.5 85.5q0 11-0.5 23.5t-2 25.5-3.5 26q-3 18 0.5 30t13.5 18 25 6q19 0 30-11t16-37q3-11 4.5-22.5t2-23.5 0.5-25q0-52-15-109t-43.5-112-68.5-100-89.5-71.5-107.5-26.5q-46 0-74 17.5t-39.5 45.5-12.5 61q-24-38-53-66t-62-43-71-15z"/><path transform="translate(48.762 20.384) scale(.014 -.014)" d="m-170-17q-19 0-25.5 11.5t-3 26 15.5 26 31 11.5q28 0 57 14t60.5 43 65.5 74 70.5 107.5 75.5 143.5l56-26q-56-121-106-204t-98-133-97-72-102-22zm560 2q-38 0-57 13.5t-24.5 35-2.5 46.5 11 46q6 20 18 49.5t27 65 28.5 71 22.5 65.5q8 29 2 40t-25 11q-23 0-49.5-5.5t-53-13.5-50-13.5-40.5-5.5q-44 0-72.5 16t-43 41-14.5 52q0 46 27.5 75t74.5 29q36 0 57.5-19t27.5-49.5-6-65.5q9 0 29.5 6.5t47 15.5 54.5 15.5 51 6.5q31 0 50.5-14.5t24.5-45-8-80.5q-7-28-21-64t-29-74-29-72-22-58q-9-27-4-36t17-9q11 0 22 7t22 19 22 27q8 10 16.5 12t21.5-7q16-10 18.5-20t-2.5-21q-9-15-28.5-37.5t-47.5-38.5-63-16zm-207 471q8 24 7.5 44t-7.5 32-23 12q-15 0-23-10t-8-26q0-23 16-37.5t38-14.5z"/><path transform="translate(56.714 20.384) scale(.014 -.014)" d="m127-15q-59 0-75.5 44.5t10.5 127.5l107 326q7 20 16.5 26t28.5 6q31 0 39.5-9.5t1.5-29.5l-120-368q-8-23-5-35.5t17-12.5q11 0 21 6.5t21 18.5 24 28q8 10 16.5 12t21.5-7q16-10 18.5-20t-3.5-21q-18-29-39.5-50t-46.5-31.5-53-10.5zm149 684q-20 0-34 13t-14 38q0 27 17.5 51t54.5 24q21 0 35-12.5t14-38.5q0-27-17.5-51t-55.5-24z"/><path transform="translate(60.914 20.384) scale(.014 -.014)" d="m158-15q-44 0-67 20.5t-25 59 15 91.5l86 264h-77q-11 0-15 10t1 30q6 20 16 30t21 10h80l65 198q6 20 15.5 26t29.5 6q31 0 39.5-9.5t1.5-29.5l-63-191h126q11 0 15.5-9.5t-1.5-30.5q-5-19-15-29.5t-21-10.5h-130l-97-294q-11-34-6-50t24-16q24 0 50 18.5t51 50.5q8 9 17.5 11t24.5-8q15-9 17-18.5t-3-18.5q-11-20-35.5-46t-59-45-80.5-19z"/><path transform="translate(66.346 20.384) scale(.014 -.014)" d="m225-19q-59 0-98 25t-58.5 67.5-19.5 94.5q0 58 21 120t61 114 98.5 84.5 135.5 32.5q47 0 79-14.5t48.5-40.5 16.5-63q0-41-24.5-74t-65.5-59.5-94.5-45-112-30.5-117.5-18l12 71q39 4 82 12t84 20 74 29 52 38 19 47-16.5 37.5-46.5 11.5q-51 0-91.5-25.5t-68-66-42-87-14.5-88.5q0-34 11-59.5t33-39 54-13.5 58 12.5 49 33 46 44.5q13 14 28 10.5t25-14.5q11-11 13-23.5t-11-27.5q-36-43-73-68.5t-73.5-36-73.5-10.5z"/><path transform="translate(77.91 20.384) scale(.014 -.014)" d="m222-19q-48 0-86 20.5t-65.5 55.5-45.5 77q-5 12-1 25.5t22 21.5q16 8 27.5 4.5t21.5-19.5q28-46 58-73t74-27q37 0 66.5 19.5t56 64.5 50.5 120l214 655q-17-6-32-11t-34-5q-18 0-33.5 4.5t-29 10.5-27 10.5-28.5 4.5q-19 0-35-6.5t-34-22-44-40.5q-11-13-23.5-13.5t-28.5 10.5q-15 10-17.5 22t6.5 24q30 39 60.5 63.5t61 35.5 59.5 11q26 0 45-4.5t34-11.5 28.5-11.5 29.5-4.5q24 0 43.5 9.5t34.5 22.5q11 9 20 12t21 3q23 0 33.5-7t5.5-23l-244-750q-33-105-74-165.5t-88-86-102-25.5z"/><path transform="translate(86.044 20.384) scale(.014 -.014)" d="m144-17q-43 0-72.5 17.5t-44 48.5-14.5 69q0 47 18 98t49 105q11 19 23 23t30-5q19-7 23.5-19.5t-4.5-31.5q-21-44-36-85t-15-77q0-18 5.5-31.5t17-21.5 27.5-8q25 0 50 20t52.5 62.5 57.5 110.5 65 163.5 76 221.5l118 364q5 14 17.5 21t34.5 7q19 0 29.5-9t14.5-31l170-821 133 406q43 131 81 219.5t76 141 80 75 95 22.5q26 0 52.5-5.5t53-16 49.5-26.5q16-10 19-21.5t-6-30.5q-8-16-19.5-19t-28.5 5q-33 15-64.5 23.5t-59.5 8.5q-32 0-60-19t-56-62.5-58.5-119-67.5-189.5l-181-551q-4-14-16.5-21.5t-35.5-7.5q-13 0-21.5 3.5t-13.5 16-11 37.5l-167 808-71-221q-47-147-87.5-255t-78-183.5-73.5-121.5-74-66.5-81-20.5z"/></svg>