<svg width="140.66" height="27.048" viewBox="0 0 140.66 27.048" xmlns="http://www.w3.org/2000/svg"><path transform="translate(0 19.992) scale(.014 -.014)" d="m116-14q-47 0-39 30l274 954q4 14 16 21t34 7h180q101 0 168.5-24t101.5-72.5 34-123.5q0-84-31-147.5t-89-107.5-137.5-72-175.5-40q-43-6-89-8.5t-88-3.5l-110-385q-5-14-15.5-21t-33.5-7zm182 493q26 0 56 1.5t60.5 4.5 58.5 6q102 17 174 52t110 91 38 134q0 54-24 86.5t-73.5 48-128.5 15.5h-145z"/><path transform="translate(10.878 19.992) scale(.014 -.014)" d="m129-15q-55 0-70.5 42.5t9.5 124.5l242 832q6 19 16 25t29 6q30 0 38.5-9t2.5-29l-256-874q-6-21-3.5-31.5t15.5-10.5q9 0 17.5 6t19 18 25.5 30q7 10 15.5 12t19.5-6q16-9 19.5-19t-1.5-20q-20-33-41.5-55t-46-32-50.5-10z"/><path transform="translate(15.064 19.992) scale(.014 -.014)" d="m157-17q-36 0-63 19t-41.5 54.5-14.5 83.5q0 47 13.5 99t40.5 101.5 66 90 89 64.5 112 24q29 0 60.5-7.5t61.5-21.5l1 4q5 13 15 17t27 4q30 0 39-9t3-29l-112-374q-5-18-5-27t4-12 9-3q10 0 20 6.5t22 18.5 25 29q8 10 16 12t19-6q16-10 19.5-19.5t-1.5-20.5q-9-16-28.5-39t-47-40-63.5-17q-35 0-53 15.5t-22 39 0.5 51 11.5 51.5q2 4 2.5 8t0.5 9q-39-59-78-98t-76.5-58.5-71.5-19.5zm-28 172q0-28 6-49t18.5-32 29.5-11q35 0 79 37.5t91.5 109 96.5 174.5l10 34q-32 14-60.5 18t-51.5 4q-41 0-75.5-18.5t-61-49.5-45-69-28-76.5-9.5-71.5z"/><path transform="translate(23.772 19.992) scale(.014 -.014)" d="m158-15q-45 0-71 21.5t-30 65 15 107.5l89 305q6 19 15.5 25t28.5 6q30 0 39-9t3-29l-95-318q-8-25-9.5-47t8.5-34.5 37-12.5q35 0 75 29.5t81 82.5 80.5 125.5 72.5 159.5l4 22q6 19 16 25t29 6q30 0 39-9t2-29l-218-751q-26-92-57-145.5t-75.5-76-113.5-22.5q-36 0-68 8.5t-59.5 24-48.5 32.5q-16 14-21 27.5t15 31.5q18 15 29 16.5t27-13.5q28-22 59.5-36t71.5-14q42 0 70 16.5t48 53.5 38 99l133 461q-30-50-61.5-88t-64.5-64-66.5-39-66.5-13z"/><path transform="translate(32.564 19.992) scale(.014 -.014)" d="m173-19q-44 0-68.5 18t-34 49.5-6.5 71.5 16 82l80 283q4 14 13 22.5t33 8.5q31 0 38.5-9.5t2.5-27.5l-85-293q-9-33-12.5-62t6-46 39.5-17q28 0 56.5 20.5t55 54.5 49 75.5 39.5 83.5l55 190q4 14 13 22.5t32 8.5q32 0 38.5-9.5t0.5-27.5l-75-279q-4-17-8-40.5t-2.5-46.5 13-37.5 38.5-14.5q32 0 63.5 21t58 55.5 47 77.5 32.5 88.5 12 86.5q0 10-0.5 22t-2 25.5-5.5 26.5q-4 18-0.5 30.5t13.5 18.5 25 6q19 0 30.5-11t16.5-37q4-10 6-21t2.5-22 0.5-23q0-54-15.5-112.5t-44-114-68-100-88-71-104.5-26.5q-45 0-71.5 18t-38 47.5-12.5 65.5q-24-39-52.5-68.5t-61.5-46-70-16.5z"/><path transform="translate(44.534 19.992) scale(.014 -.014)" d="m90-15q-17 0-30 7t-8 25l116 401q3 11-0.5 18.5t-13.5 7.5q-9 0-20.5-6t-27-20.5-37.5-39.5q-13-14-23.5-16t-25.5 8q-18 14-16 25.5t10 22.5q22 28 45 51t51 36.5 65 13.5q36 0 53.5-13t22.5-34 1.5-44.5-8.5-44.5l-19-66q28 50 56 87.5t55 63 51 38.5 44 13q15 0 21-7t5-31q0-25 2.5-41t9.5-23.5 19-7.5q21 0 46 11.5t78 43.5q11 6 21 0.5t16-16.5 5.5-23.5-11.5-19.5q-48-34-85-49.5t-77-15.5q-21 0-41 8t-33.5 27.5-14.5 52.5q-22-15-52.5-48t-63.5-80.5-65-108.5-59-131l-15-49q-3-13-13.5-19.5t-33.5-6.5z"/><path transform="translate(52.248 19.992) scale(.014 -.014)" d="m127-15q-55 0-70 42.5t9 124.5l95 332q6 19 15.5 25t28.5 6q30 0 39-9t3-29l-109-374q-6-21-3.5-31.5t15.5-10.5q8 0 17 6t19.5 18 26.5 30q7 10 15 12t20-6q15-9 19-19t-2-20q-20-33-41.5-55t-45.5-32-51-10zm133 684q-21 0-35 13.5t-14 38.5q0 28 17 51t53 23q22 0 36-13t14-39q0-28-17-51t-54-23z"/><path transform="translate(56.448 19.992) scale(.014 -.014)" d="m162-15q-39 0-62.5 18t-28.5 54 11 88l78 275h-76q-11 0-15.5 10t0.5 30 14.5 30 21.5 10h79l58 199q6 19 15.5 25t29.5 6q30 0 39-9t2-29l-57-192h127q11 0 15.5-9.5t-0.5-30.5q-4-19-14-29.5t-21-10.5h-130l-87-295q-10-34-4.5-49t23.5-15q20 0 46.5 17t53.5 55q9 9 18 10.5t24-7.5q15-8 17.5-18t-1.5-18q-12-22-36.5-49t-59.5-46.5-80-19.5z"/><path transform="translate(61.88 19.992) scale(.014 -.014)" d="m227-19q-61 0-100 25t-57.5 68.5-18.5 96.5q0 59 20.5 120.5t59.5 113 96.5 83 131.5 31.5q48 0 79.5-15t47.5-41.5 16-63.5q0-42-25-75t-67-59-95.5-45-109.5-31.5-109-20.5l7 70q34 6 75 14.5t82 20.5 75.5 29 55 39 20.5 51q0 25-17.5 36.5t-45.5 11.5q-47 0-86-24t-65.5-63-41.5-85-15-90q0-35 10.5-62t32-41 55.5-14 61 13.5 51 36 47 48.5q12 14 27.5 10.5t26.5-14.5q10-11 11.5-23t-9.5-27q-37-47-75-74t-76-38.5-75-11.5z"/><path transform="translate(73.444 19.992) scale(.014 -.014)" d="m-6-14q-26 0-34 15t6 37l588 937q14 23 28 31.5t39 8.5q19 0 30.5-9.5t13.5-40.5l76-934q3-20-8.5-32.5t-37.5-12.5q-22 0-29 8.5t-10 28.5l-20 260h-418l-161-257q-16-26-26.5-33t-36.5-7zm275 377h361l-43 512z"/><path transform="translate(85.106 19.992) scale(.014 -.014)" d="m336-19q-66 0-110.5 23t-67.5 68.5-23 110.5 24 149l184 656q5 14 16.5 20.5t34.5 6.5 34-7 7-23l-190-663q-19-66-21.5-114.5t10.5-79.5 40.5-46.5 68.5-15.5q43 0 88 16t91 47.5 93.5 78.5 95 109 96.5 139l151 532q5 14 17.5 20.5t33.5 6.5q22 0 33-8t6-22l-277-972q-4-14-16.5-20.5t-34.5-6.5-32.5 8-6.5 20l69 244q-48-66-98-118t-102-87-105.5-53.5-108.5-18.5z"/><path transform="translate(103.05 19.992) scale(.014 -.014)" d="m673-211q-18-4-30 2.5t-19 25.5l-124 348q-7 20 0.5 34t27.5 19q18 5 30-2.5t18-24.5l125-349q7-19 0-33t-28-20zm-185 192q-77 0-140 27t-108 78-68.5 122-23.5 159q0 73 15.5 149t47 148.5 77 136 105 112 133 75.5 158.5 27q77 0 139.5-27t106.5-77.5 68-121 24-158.5q0-78-16.5-156t-48.5-150.5-78-135-105.5-109-131-73-154.5-26.5zm13 85q67 0 124 23t105 63.5 85 94.5 62 116 38.5 127.5 13.5 129.5q0 75-17 132.5t-50 97.5-81 60-111 20q-65 0-122.5-23t-105-64-85-95-63.5-115.5-39.5-126-13.5-128.5q0-74 17-132.5t50-98 81.5-60.5 111.5-21z"/><path transform="translate(117.43 19.992) scale(.014 -.014)" d="m118 0q-45 0-33 40l271 948q5 14 15 20.5t32 6.5q23 0 34-7t5-23l-259-905h411q11 0 15.5-9.5t-1.5-30.5q-4-19-13.5-29.5t-21.5-10.5z"/><path transform="translate(127.15 19.992) scale(.014 -.014)" d="m115 0q-44 0-36 28l273 942q4 14 17 21t35 7h176q98 0 171.5-25t122.5-69.5 73-104 24-128.5q0-118-32.5-220.5t-93-185-142.5-142-182-91.5-211-32zm68 85h127q91 0 175 26t154.5 76.5 123 122.5 81.5 163 29 198q0 56-20.5 101t-59 76-92.5 48-122 17h-156z"/></svg>