<svg width="99.274" height="27.048" viewBox="0 0 99.274 27.048" xmlns="http://www.w3.org/2000/svg"><path transform="translate(0 19.992) scale(.014 -.014)" d="m418 378q-20 0-29 10t-9 32q0 20 9 30t27 11q78 2 140.5 24t107 61.5 67.5 95 23 124.5q0 82-40.5 124t-110.5 42q-45 0-86.5-21.5t-75.5-62-59-95.5-39-122-14-141v-476q0-14-10.5-21t-32.5-7-33 7-11 21v791q-18-32-41-60.5t-51-54-64-51.5q-14-9-27.5-6t-26.5 21q-11 17-9 30t17 23q53 36 92 79t65.5 93.5 41.5 109.5q4 16 14.5 21t32.5 5q21 0 32-6.5t11-20.5v-179q31 66 74 112t95.5 70 110.5 24q71 0 124-29.5t82.5-85 29.5-133.5q0-85-31-155t-88-121.5-135.5-80.5-172.5-32z"/><path transform="translate(12.236 19.992) scale(.014 -.014)" d="m-79-17q-19 0-28 11.5t-9 26 9 26 28 11.5q28 0 57 15t58 42.5 57 66 53.5 85.5 48.5 101 41.5 113 32 121 20.5 125 7 125q0 15 13 22.5t30 7.5 30-7.5 13-22.5q0-59-8.5-122.5t-24.5-129-38.5-130-50-125-59-115.5-65.5-100-70-78-72.5-51-72.5-18zm298 0q-25 0-43 7t-29.5 20.5-17.5 33.5-6 46v718q0 108 34 159.5t102 51.5q41 0 68-19t41-56.5 14-91.5q0-19-13-28t-30-9-30 9-13 28q0 30-4 49t-13 28.5-23 9.5q-16 0-27-13.5t-15.5-44.5-4.5-83v-697q0-15 3-24t9-13 14-4 15 4 14 12 15 20q6 8 15.5 7t19.5-8q11-7 14-16.5t-1-18.5q-12-24-28.5-41t-36.5-26.5-43-9.5z"/><path transform="translate(17.752 19.992) scale(.014 -.014)" d="m242-17q-53 0-93.5 28t-63 83-22.5 135q0 52 9.5 97t28.5 80.5 46 60.5 62.5 38.5 78.5 13.5q33 0 64.5-8.5t61.5-25.5v4q0 13 11 19.5t32 6.5q22 0 33-6.5t11-19.5v-388q0-15 3-24t8.5-13 14.5-4 15 3.5 13 11.5 15 21q6 7 15 7.5t20-6.5q11-8 15-18t-1-20q-10-21-26.5-38t-36.5-27.5-44-10.5-41.5 6.5-29.5 19-18.5 30-7.5 39.5q0 9-0.5 20t-0.5 22q-21-47-48.5-77.5t-59-45-64.5-14.5zm-91 249q0-51 11-89t34-59 60-21q33 0 63 24t54.5 70 40.5 111v142q-31 18-59 24.5t-56 6.5q-27 0-50-8.5t-41.5-25.5-31-42-19-58.5-6.5-74.5z"/><path transform="translate(26.46 19.992) scale(.014 -.014)" d="m516 9q16 13 31.5 25.5t30.5 23.5 27.5 19.5 21.5 14.5q15 9 26.5 4.5t17-17 3-26.5-15.5-23q-14-10-30.5-22.5t-34.5-27-36-29.5-35-28zm-165-528q-64 0-102.5 36t-38.5 98q0 33 9 65t28.5 65.5 49.5 68 71 71.5q15 13 29.5 26.5t30 27.5 31.5 27v166q-16-39-37-67.5t-45.5-46-50-26.5-51.5-9q-47 0-82 17.5t-54.5 55.5-19.5 100v229q0 30-8 43.5t-26 13.5q-13 0-23.5-7.5t-19-23-15.5-38.5q-6-16-16.5-21t-26.5-2q-15 4-22.5 12.5t-3.5 28.5q11 38 28 66.5t42.5 44 61.5 15.5q31 0 53-9.5t36-27.5 20-44.5 6-60.5v-214q0-34 8.5-56.5t27-33.5 46.5-11q32 0 59 17.5t48.5 49.5 37.5 75 26 94v193q0 13 10.5 19.5t32.5 6.5 33-6.5 11-19.5v-749q0-61-13.5-109.5t-39-81.5-61.5-50.5-80-17.5zm7 77q32 0 54.5 21t34.5 62 12 103v126q-11-8-20.5-16t-18-16-17.5-16q-27-27-46-52t-32-49.5-19.5-48.5-6.5-48q0-21 6.5-35.5t20-22.5 32.5-8z"/><path transform="translate(35.77 19.992) scale(.014 -.014)" d="m270-18q-36 0-62.5 12t-44 35.5-26.5 56.5-9 75v224q0 30-8 43.5t-26 13.5q-12 0-23-7.5t-19.5-23-15.5-38.5q-6-16-16.5-21t-26.5-2q-15 4-22 12.5t-3 28.5q10 38 27 66.5t43 44 61 15.5q31 0 53.5-9.5t36-27.5 20-44.5 6.5-60.5v-189q0-36 3.5-60.5t12-38.5 22-20.5 32.5-6.5q24 0 48.5 17.5t44 48.5 31 72 11.5 89l40-23q-6-57-21.5-108t-40-90-57-61.5-71.5-22.5zm311-1q-40 0-70 13t-50 38.5-30.5 64.5-10.5 92v300q0 13 10.5 19.5t32.5 6.5 33-6.5 11-19.5v-291q0-36 3.5-62t13-42.5 25.5-24.5 40-8q20 0 37.5 8t32.5 23.5 26.5 37 20 47.5 12.5 56.5 4 63.5q0 63-7 101.5t-19 56-30 17.5q-15 0-21.5-8.5t-6.5-19.5q0-14 10.5-24.5t32.5-16 56-5.5q43 0 76.5 15t68.5 40q10 7 19.5 1.5t16-17.5 7.5-24-8-18q-43-31-84-47t-98-16q-54 0-91 13.5t-55.5 39.5-18.5 62q0 27 12 47.5t33.5 32 49.5 11.5q49 0 81-31.5t47.5-85.5 15.5-123q0-42-6.5-82t-19.5-75-32.5-64.5-44.5-50.5-56.5-33-68.5-12z"/><path transform="translate(48.202 19.992) scale(.014 -.014)" d="m-82-17q-19 0-28 11.5t-9.5 26 8.5 26 28 11.5q33 0 61.5 22.5t52 69.5 44.5 119 39 170l59-13q-18-118-42-202.5t-54.5-137.5-69.5-78-89-25zm533 0q-26 0-44 7.5t-29.5 21.5-17.5 34-6 45q0 27 2.5 63.5t5 76 5 76.5 2.5 64q0 35-8.5 46.5t-31.5 11.5q-26 0-59.5-10t-65.5-19.5-52-9.5q-18 0-34 19t-26.5 47-10.5 55q0 18 6 32.5t18.5 23 31.5 8.5q30 0 40.5-20t10.5-47q0-10-1-19.5t-4-19.5q11 0 38.5 11t62.5 22 67 11q35 0 58-13t34.5-42.5 11.5-80.5q0-27-2.5-65t-5-78-5-75.5-2.5-57.5 6-31.5 19-9.5q9 0 16.5 4t15 12 14.5 20q6 7 15.5 6.5t19.5-7.5q11-7 14-16.5t-1-18.5q-12-24-28.5-41t-36.5-26.5-43-9.5z"/><path transform="translate(56.154 19.992) scale(.014 -.014)" d="m191-17q-49 0-73 27.5t-24 79.5v399q0 13 10.5 19.5t31.5 6.5q22 0 33-6.5t11-19.5v-388q0-23 7-32t20-9q9 0 15.5 4t13 12 14.5 20q5 7 14.5 6.5t19.5-7.5q11-6 14.5-15.5t-1.5-18.5q-12-24-28-41.5t-36-27-42-9.5zm-56 686q-28 0-42.5 15.5t-14.5 46.5q0 32 14.5 48t42.5 16q27 0 41-16t14-48q1-31-13.5-46.5t-41.5-15.5z"/><path transform="translate(60.354 19.992) scale(.014 -.014)" d="m236-17q-39 0-65.5 15.5t-39.5 45-13 71.5v305h-78q-15 0-21 9t-6 31q0 23 6 31.5t21 8.5h78v204q0 13 10.5 19.5t31.5 6.5q22 0 33-6.5t11-19.5v-204h127q15 0 21.5-8.5t6.5-31.5q0-22-6.5-31t-21.5-9h-127v-296q0-35 9.5-49.5t31.5-14.5q21 0 38 13t35 40q9 10 18.5 9.5t21.5-7.5q13-8 16.5-18.5t-1.5-20.5q-16-33-37-53.5t-46.5-30-53.5-9.5z"/><path transform="translate(65.772 19.992) scale(.014 -.014)" d="m294-18q-47 0-85.5 19t-68.5 52-50 75-30.5 87.5-10.5 89.5q0 36 8 68t23 59 36.5 46.5 49 30 59.5 10.5q48 0 79.5-19.5t47-51.5 15.5-70q0-36-14-73.5t-37.5-74.5-55.5-72q-45-50-102-90t-118-62.5-120-22.5q-14 0-21 11.5t-5.5 26 12.5 26 33 11.5q42 0 88.5 18.5t90.5 50 78 68.5q26 28 44 58t28 59.5 10 56.5q0 41-15.5 56t-44.5 15q-15 0-29.5-7.5t-26-23.5-18.5-41-7-59q0-47 13-91t36.5-79 54-56 64.5-21q26 0 47.5 10.5t41 28 38.5 39.5q12 16 25 15t27-12 17-22-6-25q-26-41-60-66t-70-36.5-71-11.5z"/><path transform="translate(76.188 19.992) scale(.014 -.014)" d="m418 378q-20 0-29 10t-9 32q0 20 9 30t27 11q78 2 140.5 24t107 61.5 67.5 95 23 124.5q0 82-40.5 124t-110.5 42q-45 0-86.5-21.5t-75.5-62-59-95.5-39-122-14-141v-476q0-14-10.5-21t-32.5-7-33 7-11 21v791q-18-32-41-60.5t-51-54-64-51.5q-14-9-27.5-6t-26.5 21q-11 17-9 30t17 23q53 36 92 79t65.5 93.5 41.5 109.5q4 16 14.5 21t32.5 5q21 0 32-6.5t11-20.5v-179q31 66 74 112t95.5 70 110.5 24q71 0 124-29.5t82.5-85 29.5-133.5q0-85-31-155t-88-121.5-135.5-80.5-172.5-32z"/><path transform="translate(88.424 19.992) scale(.014 -.014)" d="m406-19q-97 0-168.5 32.5t-110.5 94.5-39 149q0 50 15 94t43.5 79.5 68 60 88.5 35.5q-54 16-93 49t-59.5 79-20.5 98q0 48 14 88.5t40 72.5 62 55 81 35 96 12q52 0 99-12t88-35 72-57q19-19 19-34t-18-30q-14-11-26.5-8.5t-29.5 16.5q-24 23-55.5 39t-69.5 25-82 9q-46 0-83.5-12t-63-34-39-55-13.5-74q0-54 24-96.5t68-67.5 103-25h139q15 0 21.5-8.5t6.5-31.5q0-22-6.5-31t-21.5-9h-135q-53 0-97-16t-76-46-49.5-71-17.5-90q0-62 27-105t78.5-65.5 120.5-22.5q49 0 93 14.5t83 43.5 71 73q14 19 26 21.5t27-7.5q19-12 21-26.5t-12-34.5q-36-54-84-92.5t-105-58.5-120-20z"/></svg>