<?xml version="1.0" encoding="utf-8" ?>
<svg baseProfile="tiny" height="100%" version="1.2" width="100%" xmlns="http://www.w3.org/2000/svg" xmlns:ev="http://www.w3.org/2001/xml-events" xmlns:xlink="http://www.w3.org/1999/xlink"><defs /><g><path d="M597 546Q580 545 570.5 556.0Q561 567 561 586Q561 607 568.5 615.5Q576 624 592 625Q678 629 751.5 650.5Q825 672 883.5 709.0Q942 746 983.0 796.5Q1024 847 1046.0 909.5Q1068 972 1068 1045Q1068 1114 1041.0 1168.5Q1014 1223 962.5 1260.0Q911 1297 836.0 1316.5Q761 1336 664 1336Q535 1336 433.0 1309.5Q331 1283 251.5 1230.5Q172 1178 107 1098Q98 1087 84.0 1087.0Q70 1087 55 1099Q40 1111 39.5 1124.5Q39 1138 48 1149Q97 1213 160.5 1263.5Q224 1314 302.0 1348.5Q380 1383 471.0 1401.5Q562 1420 666 1420Q785 1420 877.0 1394.5Q969 1369 1032.0 1321.5Q1095 1274 1128.0 1204.5Q1161 1135 1161 1047Q1161 961 1135.5 887.0Q1110 813 1061.0 752.5Q1012 692 943.0 648.0Q874 604 787.0 577.5Q700 551 597 546ZM273 -19Q222 -19 179.5 -0.5Q137 18 105.5 48.5Q74 79 54 112Q44 130 45.0 144.5Q46 159 62 169Q80 180 92.5 178.5Q105 177 118 160Q141 129 165.0 108.0Q189 87 216.0 76.0Q243 65 277 65Q336 65 364.5 111.5Q393 158 393 254V1176Q393 1190 404.0 1196.5Q415 1203 436 1203Q458 1203 469.0 1196.5Q480 1190 480 1176V243Q480 160 456.5 101.5Q433 43 387.5 12.0Q342 -19 273 -19Z" transform="translate(0.0, 72) scale(0.072, -0.072)" /><path d="M-57 -17Q-76 -17 -85.0 -5.5Q-94 6 -94.0 20.5Q-94 35 -85.0 46.5Q-76 58 -57 58Q-24 58 7.0 77.5Q38 97 68.5 134.0Q99 171 127.0 223.0Q155 275 180.0 341.0Q205 407 226.5 484.5Q248 562 265.5 649.0Q283 736 295.5 830.5Q308 925 314.0 1025.5Q320 1126 320 1230Q320 1248 333.0 1257.0Q346 1266 363.5 1266.0Q381 1266 394.0 1257.0Q407 1248 407 1230Q407 1120 399.0 1014.0Q391 908 376.5 807.5Q362 707 341.0 614.0Q320 521 294.0 439.0Q268 357 236.5 286.5Q205 216 171.0 160.0Q137 104 99.5 64.5Q62 25 22.5 4.0Q-17 -17 -57 -17ZM221 -17Q195 -17 176.0 -10.0Q157 -3 145.5 10.0Q134 23 128.5 42.5Q123 62 123 86V1226Q123 1324 161.0 1374.0Q199 1424 271 1424Q316 1424 346.5 1402.0Q377 1380 392.0 1336.5Q407 1293 407 1230Q407 1211 394.0 1202.0Q381 1193 363.5 1193.0Q346 1193 333.0 1202.0Q320 1211 320 1230Q320 1269 314.5 1294.0Q309 1319 297.0 1331.5Q285 1344 267 1344Q247 1344 234.0 1331.5Q221 1319 215.0 1293.0Q209 1267 209 1226V96Q209 83 213.0 74.5Q217 66 224.0 62.0Q231 58 240 58Q249 58 256.5 61.0Q264 64 271.0 69.5Q278 75 285 80Q293 87 303.0 82.5Q313 78 320 70Q328 60 328.5 50.0Q329 40 324 31Q313 16 296.0 5.0Q279 -6 260.0 -11.5Q241 -17 221 -17Z" transform="translate(87.76799999999999, 72) scale(0.072, -0.072)" /><path d="M258 -17Q201 -17 157.0 10.5Q113 38 88.0 94.0Q63 150 63 235Q63 287 72.5 331.0Q82 375 101.0 410.0Q120 445 147.0 469.0Q174 493 209.0 506.0Q244 519 286 519Q318 519 352.0 508.5Q386 498 416 481V486Q416 501 427.0 508.0Q438 515 460 515Q482 515 492.5 508.5Q503 502 503 488V96Q503 83 507.0 74.5Q511 66 518.0 62.0Q525 58 534 58Q544 58 550.5 60.5Q557 63 563.5 68.0Q570 73 579 80Q586 86 595.0 83.5Q604 81 613 73Q622 63 623.0 52.0Q624 41 619 33Q608 17 591.0 6.0Q574 -5 554.5 -11.0Q535 -17 515 -17Q492 -17 475.0 -12.0Q458 -7 446.0 3.5Q434 14 427.5 29.0Q421 44 418 63Q418 64 417.0 67.5Q416 71 416 75Q393 38 366.5 18.0Q340 -2 312.0 -9.5Q284 -17 258 -17ZM151 239Q151 184 164.0 144.5Q177 105 203.5 84.0Q230 63 270 63Q299 63 325.5 73.0Q352 83 375.0 106.0Q398 129 416 166V408Q385 427 356.0 433.5Q327 440 295 440Q269 440 247.0 432.0Q225 424 207.0 408.0Q189 392 176.5 368.0Q164 344 157.5 312.0Q151 280 151 239Z" transform="translate(116.13599999999998, 72) scale(0.072, -0.072)" /><path d="M481 -82Q497 -65 513.0 -49.5Q529 -34 545.0 -19.5Q561 -5 575.5 6.5Q590 18 601 26Q615 36 627.0 31.5Q639 27 646.5 15.0Q654 3 653.0 -11.0Q652 -25 638 -35Q626 -43 610.0 -57.5Q594 -72 575.5 -89.5Q557 -107 538.5 -125.5Q520 -144 503 -160ZM337 -924Q286 -924 249.5 -901.0Q213 -878 193.0 -833.5Q173 -789 173 -724Q173 -665 184.5 -600.0Q196 -535 219.5 -466.0Q243 -397 279.0 -329.0Q315 -261 365 -197Q381 -177 398.5 -157.0Q416 -137 435 -119V77Q422 55 404.5 37.5Q387 20 366.0 8.0Q345 -4 320.5 -10.5Q296 -17 269 -17Q211 -17 172.0 3.5Q133 24 113.5 64.5Q94 105 94 166V489Q94 502 104.5 508.5Q115 515 136 515Q158 515 169.0 508.5Q180 502 180 489V166Q180 131 191.0 107.0Q202 83 224.5 71.0Q247 59 280 59Q308 59 332.0 68.0Q356 77 375.5 92.5Q395 108 410.0 130.0Q425 152 435 177V489Q435 502 445.5 508.5Q456 515 478 515Q499 515 510.0 508.5Q521 502 521 489V-688Q521 -744 509.0 -787.5Q497 -831 473.5 -861.5Q450 -892 415.5 -908.0Q381 -924 337 -924ZM343 -849Q365 -849 382.0 -837.5Q399 -826 411.0 -805.5Q423 -785 429.0 -755.0Q435 -725 435 -688V-231Q426 -240 417.0 -249.5Q408 -259 399 -270Q367 -316 342.0 -371.5Q317 -427 299.0 -486.5Q281 -546 271.5 -606.0Q262 -666 262 -722Q262 -761 271.5 -790.0Q281 -819 299.0 -834.0Q317 -849 343 -849Z" transform="translate(160.92, 72) scale(0.072, -0.072)" /><path d="M279 -17Q240 -17 211.5 -5.0Q183 7 163.5 31.5Q144 56 134.5 93.5Q125 131 125 183V369Q125 411 112.0 425.5Q99 440 76 440Q60 440 48.0 431.0Q36 422 29.5 405.0Q23 388 21 365Q20 349 12.0 341.5Q4 334 -14 334Q-30 334 -40.0 341.0Q-50 348 -49 374Q-47 417 -31.5 448.5Q-16 480 12.0 497.5Q40 515 76 515Q111 515 136.5 505.0Q162 495 178.5 474.0Q195 453 203.0 422.0Q211 391 211 349V206Q211 167 214.0 139.0Q217 111 226.0 93.5Q235 76 251.5 67.5Q268 59 294 59Q314 59 336.0 66.5Q358 74 377.0 93.0Q396 112 407.5 145.5Q419 179 419 230L448 110Q436 79 418.5 55.0Q401 31 378.5 15.0Q356 -1 331.0 -9.0Q306 -17 279 -17ZM584 -19Q544 -19 513.5 -6.0Q483 7 462.0 33.0Q441 59 430.0 98.0Q419 137 419 189V489Q419 502 429.5 508.5Q440 515 461 515Q483 515 494.0 508.5Q505 502 505 489V206Q505 167 508.5 139.0Q512 111 521.5 94.0Q531 77 548.0 69.0Q565 61 593 61Q612 61 629.0 65.5Q646 70 660.5 80.5Q675 91 686.5 107.5Q698 124 706.0 147.5Q714 171 718.5 202.5Q723 234 723 274Q723 355 714.5 399.0Q706 443 692.0 460.5Q678 478 659 478Q641 478 634.5 467.5Q628 457 628 445Q628 432 638.0 419.0Q648 406 673.5 398.0Q699 390 744 390Q782 390 816.0 406.0Q850 422 886 445Q898 453 908.0 447.0Q918 441 924.5 429.0Q931 417 930.5 404.5Q930 392 921 386Q878 356 837.5 340.0Q797 324 744 324Q683 324 643.0 339.5Q603 355 584.0 382.5Q565 410 565 445Q565 472 576.0 492.5Q587 513 608.0 524.5Q629 536 659 536Q712 536 745.0 502.0Q778 468 793.5 409.0Q809 350 809 274Q809 228 802.5 188.5Q796 149 783.5 116.5Q771 84 752.5 59.0Q734 34 709.0 16.5Q684 -1 652.5 -10.0Q621 -19 584 -19Z" transform="translate(207.0, 72) scale(0.072, -0.072)" /><path d="M-55 -17Q-74 -17 -83.5 -5.5Q-93 6 -93.5 20.5Q-94 35 -85.0 46.5Q-76 58 -57 58Q-32 58 -10.5 73.5Q11 89 29.5 119.5Q48 150 63.0 195.0Q78 240 90.0 300.0Q102 360 110 433L170 424Q161 312 142.5 229.0Q124 146 96.0 91.5Q68 37 30.5 10.0Q-7 -17 -55 -17ZM460 -17Q434 -17 415.0 -10.0Q396 -3 384.0 10.5Q372 24 366.0 44.5Q360 65 360 91Q360 119 362.5 155.0Q365 191 367.5 229.0Q370 267 372.5 301.5Q375 336 375 361Q375 400 365.5 414.5Q356 429 330 429Q309 429 283.5 423.0Q258 417 231.5 409.5Q205 402 179.0 396.0Q153 390 130 390Q85 390 53.0 406.0Q21 422 4.5 450.5Q-12 479 -12 514Q-12 555 11.0 579.0Q34 603 73 603Q109 603 131.0 584.0Q153 565 163.0 534.5Q173 504 173 469Q181 469 199.0 475.5Q217 482 241.5 491.0Q266 500 293.5 506.5Q321 513 348 513Q388 513 413.0 498.0Q438 483 449.5 451.5Q461 420 461 369Q461 346 458.5 310.5Q456 275 453.5 235.5Q451 196 448.5 161.0Q446 126 446 103Q446 77 453.5 67.5Q461 58 476 58Q486 58 494.0 61.0Q502 64 509.5 69.5Q517 75 524 80Q532 86 542.0 82.0Q552 78 559 70Q567 60 567.5 50.0Q568 40 563 31Q552 16 535.5 5.0Q519 -6 499.5 -11.5Q480 -17 460 -17ZM110 456Q110 480 106.0 500.0Q102 520 94.0 532.0Q86 544 74 544Q63 544 56.5 536.0Q50 528 50 513Q50 493 66.0 474.5Q82 456 110 456Z" transform="translate(270.936, 72) scale(0.072, -0.072)" /><path d="M193 -17Q141 -17 117.5 10.0Q94 37 94 86V489Q94 502 104.5 508.5Q115 515 136 515Q158 515 169.0 508.5Q180 502 180 489V96Q180 76 189.0 67.0Q198 58 211 58Q222 58 229.5 61.5Q237 65 243.5 70.0Q250 75 258 81Q264 86 274.5 82.0Q285 78 291 70Q299 61 300.0 51.0Q301 41 295 33Q284 17 267.5 6.0Q251 -5 231.5 -11.0Q212 -17 193 -17ZM138 669Q110 669 95.5 684.5Q81 700 81 731Q81 763 95.5 779.0Q110 795 138 795Q165 795 179.0 779.0Q193 763 193 731Q194 700 179.5 684.5Q165 669 138 669Z" transform="translate(311.832, 72) scale(0.072, -0.072)" /><path d="M243 -17Q201 -17 173.5 -1.5Q146 14 132.5 42.5Q119 71 119 111V704Q119 717 129.5 723.5Q140 730 161 730Q183 730 194.0 723.5Q205 717 205 704V500H331Q346 500 352.5 491.5Q359 483 359 460Q359 438 352.5 429.0Q346 420 331 420H205V121Q205 87 214.5 72.5Q224 58 249 58Q272 58 288.5 69.0Q305 80 323 96Q335 107 345.5 103.5Q356 100 365 91Q376 81 376.5 70.5Q377 60 371 51Q354 26 333.0 11.0Q312 -4 289.0 -10.5Q266 -17 243 -17Z" transform="translate(333.432, 72) scale(0.072, -0.072)" /><path d="M300 -17Q260 -17 222.5 0.0Q185 17 153.5 48.0Q122 79 98.5 121.5Q75 164 62.0 214.5Q49 265 49 321Q49 355 57.0 385.5Q65 416 80.0 440.5Q95 465 116.0 482.5Q137 500 163.0 509.5Q189 519 219 519Q276 519 311.5 496.0Q347 473 363.0 435.5Q379 398 379 355Q379 321 366.5 285.0Q354 249 332.0 214.5Q310 180 281 148Q238 100 183.0 62.5Q128 25 66.5 4.0Q5 -17 -60 -17Q-74 -17 -81.0 -5.5Q-88 6 -86.5 20.5Q-85 35 -74.0 46.5Q-63 58 -41 58Q5 58 53.5 76.0Q102 94 146.0 124.0Q190 154 221 189Q243 214 258.5 240.5Q274 267 282.0 294.0Q290 321 290 346Q290 399 270.0 419.5Q250 440 216 440Q199 440 184.5 432.5Q170 425 159.0 409.5Q148 394 142.0 372.0Q136 350 136 321Q136 264 152.5 216.5Q169 169 196.0 135.0Q223 101 253.5 82.0Q284 63 311 63Q330 63 348.0 70.5Q366 78 385.5 93.0Q405 108 425 130Q439 146 452.0 145.5Q465 145 479 134Q493 123 495.5 111.0Q498 99 489 85Q464 47 430.5 24.5Q397 2 363.0 -7.5Q329 -17 300 -17Z" transform="translate(361.368, 72) scale(0.072, -0.072)" /><path d="M766 -18Q731 -18 696.0 -12.0Q661 -6 627.5 5.0Q594 16 565 32Q548 42 542.5 54.5Q537 67 547 85Q556 103 567.5 107.0Q579 111 599 102Q625 90 652.5 82.0Q680 74 708.5 70.0Q737 66 766 66Q844 66 909.0 93.0Q974 120 1022.5 168.5Q1071 217 1097.5 283.0Q1124 349 1124 428Q1124 519 1082.5 583.0Q1041 647 963.5 681.0Q886 715 778 715Q754 702 732.0 695.5Q710 689 688 689Q653 689 634.5 705.5Q616 722 616 746Q616 763 624.5 778.5Q633 794 651.0 804.0Q669 814 695 814Q720 814 740.5 809.0Q761 804 775 797Q840 808 890.5 834.0Q941 860 976.5 898.5Q1012 937 1030.5 987.5Q1049 1038 1049 1098Q1049 1176 1004.0 1228.5Q959 1281 870.5 1308.0Q782 1335 652 1335Q527 1335 428.0 1309.0Q329 1283 250.0 1230.0Q171 1177 107 1097Q97 1087 83.0 1087.0Q69 1087 54 1099Q39 1111 38.5 1124.5Q38 1138 47 1149Q97 1213 160.0 1263.0Q223 1313 299.0 1348.0Q375 1383 464.0 1401.5Q553 1420 654 1420Q808 1420 917.0 1382.0Q1026 1344 1084.0 1272.5Q1142 1201 1142 1100Q1142 1040 1123.0 986.5Q1104 933 1069.0 889.5Q1034 846 985.5 814.5Q937 783 877 767V764Q950 764 1012.5 739.5Q1075 715 1121.0 670.5Q1167 626 1192.0 565.5Q1217 505 1217 433Q1217 355 1195.5 285.5Q1174 216 1133.5 161.0Q1093 106 1037.0 65.5Q981 25 912.5 3.5Q844 -18 766 -18ZM273 -19Q222 -19 179.5 -0.5Q137 18 105.5 48.5Q74 79 54 112Q44 130 45.0 144.5Q46 159 62 169Q80 180 92.5 178.5Q105 177 118 160Q141 129 165.0 108.0Q189 87 216.0 76.0Q243 65 277 65Q336 65 364.5 111.5Q393 158 393 254V1176Q393 1190 404.0 1196.5Q415 1203 436 1203Q458 1203 469.0 1196.5Q480 1190 480 1176V243Q480 160 456.5 101.5Q433 43 387.5 12.0Q342 -19 273 -19Z" transform="translate(414.93600000000004, 72) scale(0.072, -0.072)" /><path d="M547 -19Q421 -19 327.0 28.5Q233 76 181.0 162.5Q129 249 129 365Q129 432 150.0 493.0Q171 554 209.0 604.5Q247 655 299.0 690.0Q351 725 413 739Q344 759 293.0 806.5Q242 854 213.5 921.0Q185 988 185 1066Q185 1128 203.0 1182.0Q221 1236 255.0 1279.5Q289 1323 335.5 1354.5Q382 1386 439.5 1403.0Q497 1420 563 1420Q629 1420 690.0 1404.0Q751 1388 804.5 1356.0Q858 1324 902 1277Q917 1263 920.0 1247.0Q923 1231 906 1215Q889 1200 875.5 1202.5Q862 1205 845 1221Q805 1258 759.5 1283.0Q714 1308 663.5 1321.5Q613 1335 558 1335Q497 1335 445.0 1315.0Q393 1295 355.5 1260.0Q318 1225 298.0 1175.5Q278 1126 278 1068Q278 984 313.0 918.0Q348 852 410.5 814.0Q473 776 553 776H728Q743 776 749.0 767.5Q755 759 755 736Q755 714 749.0 705.0Q743 696 728 696H554Q481 696 420.5 672.0Q360 648 316.0 604.0Q272 560 247.5 500.5Q223 441 223 371Q223 278 263.0 209.5Q303 141 376.5 103.5Q450 66 548 66Q611 66 670.0 86.5Q729 107 782.5 147.0Q836 187 882 247Q897 264 909.5 266.5Q922 269 937 256Q954 242 956.5 228.5Q959 215 942 193Q890 124 827.0 76.5Q764 29 694.0 5.0Q624 -19 547 -19Z" transform="translate(509.25600000000003, 72) scale(0.072, -0.072)" /><path d="M649 -19Q534 -19 468.0 78.0Q402 175 375 365Q362 454 352.5 546.0Q343 638 335.0 738.5Q327 839 320.5 951.0Q314 1063 308 1193Q305 1246 297.0 1279.0Q289 1312 273.0 1327.0Q257 1342 231 1342Q199 1342 174.0 1325.5Q149 1309 124.5 1272.0Q100 1235 68 1175Q61 1161 48.5 1157.0Q36 1153 19 1160Q2 1168 -2.0 1182.5Q-6 1197 1 1213Q37 1286 72.0 1332.5Q107 1379 147.0 1401.5Q187 1424 235 1424Q287 1424 321.0 1399.0Q355 1374 373.5 1323.5Q392 1273 396 1196Q400 1102 404.0 1020.5Q408 939 413.0 868.5Q418 798 423.0 734.0Q428 670 434.0 611.0Q440 552 446.5 494.5Q453 437 462 378Q476 275 503.0 204.5Q530 134 569.0 98.0Q608 62 660 62Q700 62 734.5 83.5Q769 105 797.0 148.5Q825 192 849.0 257.5Q873 323 890.5 412.0Q908 501 920.5 614.0Q933 727 941 863Q932 887 925.5 913.5Q919 940 919 961Q919 985 926.5 1003.0Q934 1021 948.5 1032.5Q963 1044 983 1044Q1016 1044 1034.0 1017.5Q1052 991 1052 950Q1052 926 1049.5 905.0Q1047 884 1039 865Q1046 786 1053.0 714.5Q1060 643 1068.5 580.0Q1077 517 1087.0 461.5Q1097 406 1109 359Q1135 257 1166.5 191.0Q1198 125 1237.0 93.0Q1276 61 1323 61Q1368 61 1406.5 96.0Q1445 131 1476.0 197.5Q1507 264 1528.5 359.0Q1550 454 1561.5 573.5Q1573 693 1573 834Q1573 902 1571.0 965.5Q1569 1029 1564.5 1086.5Q1560 1144 1554.5 1192.5Q1549 1241 1542 1279Q1496 1292 1475.0 1317.5Q1454 1343 1454 1368Q1454 1391 1470.0 1408.5Q1486 1426 1515 1426Q1553 1426 1577.0 1405.0Q1601 1384 1618 1352Q1631 1338 1665.5 1321.0Q1700 1304 1746.0 1289.5Q1792 1275 1841 1266Q1856 1263 1860.0 1253.0Q1864 1243 1864 1232Q1864 1217 1855.0 1204.5Q1846 1192 1829 1193Q1812 1195 1790.0 1199.0Q1768 1203 1745.5 1209.5Q1723 1216 1701.5 1223.5Q1680 1231 1662.0 1239.5Q1644 1248 1633 1255Q1641 1206 1647.5 1144.0Q1654 1082 1657.0 1003.0Q1660 924 1660 822Q1660 695 1649.0 583.0Q1638 471 1617.0 377.0Q1596 283 1566.0 209.5Q1536 136 1498.0 85.5Q1460 35 1414.5 8.0Q1369 -19 1317 -19Q1248 -19 1195.5 18.0Q1143 55 1104.0 132.0Q1065 209 1038 329Q1031 362 1025.0 398.0Q1019 434 1014.0 473.5Q1009 513 1004.0 555.5Q999 598 996 644H992Q981 510 961.5 403.5Q942 297 913.0 218.0Q884 139 845.0 86.0Q806 33 757.0 7.0Q708 -19 649 -19Z" transform="translate(604.44, 72) scale(0.072, -0.072)" /><path d="M197 -17Q168 -17 143.0 -13.5Q118 -10 97.5 -4.5Q77 1 64 8Q51 15 45.0 27.0Q39 39 45 55Q50 73 60.5 80.0Q71 87 82 83Q101 76 132.0 70.0Q163 64 197 64Q239 64 278.0 81.0Q317 98 355.5 137.5Q394 177 432.0 244.0Q470 311 508.5 410.5Q547 510 586.5 648.0Q626 786 667.0 965.5Q708 1145 751 1373Q756 1401 774.0 1410.5Q792 1420 819 1420Q848 1420 864.5 1411.5Q881 1403 887 1373Q905 1280 925.0 1181.5Q945 1083 969.5 978.0Q994 873 1023.0 758.5Q1052 644 1086.5 520.0Q1121 396 1163 259Q1179 206 1194.5 169.0Q1210 132 1227.5 108.5Q1245 85 1265.0 74.0Q1285 63 1309 63Q1346 63 1375.5 99.0Q1405 135 1428.0 207.0Q1451 279 1466 386Q1468 402 1479.0 409.0Q1490 416 1511 412Q1531 409 1539.0 399.5Q1547 390 1545 375Q1529 245 1496.5 158.0Q1464 71 1417.0 27.0Q1370 -17 1309 -17Q1269 -17 1237.0 -4.0Q1205 9 1179.0 38.5Q1153 68 1129.5 116.0Q1106 164 1083 234Q1069 282 1055.0 327.5Q1041 373 1028 417H598Q561 317 524.0 244.0Q487 171 448.0 120.5Q409 70 368.5 39.5Q328 9 285.5 -4.0Q243 -17 197 -17ZM625 494H1006Q964 645 930.0 781.5Q896 918 868.0 1044.5Q840 1171 817 1291Q769 1033 721.0 836.0Q673 639 625 494Z" transform="translate(739.7280000000001, 72) scale(0.072, -0.072)" /><path d="M782 -11Q702 -11 637.5 9.5Q573 30 519.0 61.0Q465 92 419.0 123.0Q373 154 331.5 174.5Q290 195 250 195Q214 195 191.5 176.5Q169 158 169 128Q169 100 191.5 81.5Q214 63 247 63Q288 63 316.5 89.0Q345 115 360.0 166.0Q375 217 375 292V903Q375 1023 399.5 1119.0Q424 1215 469.5 1282.0Q515 1349 580.0 1384.5Q645 1420 728 1420Q798 1420 855.5 1391.0Q913 1362 948.0 1308.5Q983 1255 983 1179Q983 1112 958.5 1058.5Q934 1005 887.5 967.0Q841 929 774.5 909.0Q708 889 625 889Q515 889 421.5 913.5Q328 938 248.5 980.0Q169 1022 100 1074Q86 1084 84.0 1098.0Q82 1112 93 1128Q105 1146 118.5 1148.5Q132 1151 146 1140Q208 1091 281.5 1052.5Q355 1014 440.5 992.5Q526 971 625 971Q687 971 737.0 985.5Q787 1000 821.5 1026.5Q856 1053 874.0 1092.0Q892 1131 892 1179Q892 1230 870.5 1264.5Q849 1299 811.5 1317.5Q774 1336 724 1336Q663 1336 614.5 1306.5Q566 1277 532.0 1220.5Q498 1164 480.0 1083.5Q462 1003 462 901V292Q462 192 435.5 123.0Q409 54 360.5 18.5Q312 -17 244 -17Q196 -17 158.5 1.5Q121 20 99.5 53.0Q78 86 78 128Q78 171 99.5 204.5Q121 238 159.0 256.5Q197 275 245 275Q297 275 345.5 255.0Q394 235 443.0 204.5Q492 174 545.0 143.5Q598 113 658.0 93.0Q718 73 788 73Q860 73 916.0 98.0Q972 123 1009.5 170.0Q1047 217 1063 282Q1067 299 1080.5 304.0Q1094 309 1115 301Q1132 297 1138.5 286.0Q1145 275 1141 260Q1123 176 1073.5 115.0Q1024 54 950.0 21.5Q876 -11 782 -11Z" transform="translate(849.312, 72) scale(0.072, -0.072)" /></g></svg>