<svg width="170.41" height="35.672" viewBox="0 0 170.41 35.672" xmlns="http://www.w3.org/2000/svg"><path transform="translate(0 24.668) scale(.014 -.014)" d="m625 507q-13 0-19 6t-5 19q1 12 8 18.5t19 6.5q104 6 196 28t166.5 61 128 92 82.5 119 29 144q0 57-22.5 100.5t-65.5 73.5-105 45.5-140 15.5q-98 0-190.5-18.5t-176-55-154.5-89.5q-11-8-19.5-6.5t-17.5 11.5q-6 10-5 18.5t11 15.5q57 43 121.5 76t135.5 55 146.5 33.5 154.5 11.5q92 0 163.5-19t121-55.5 75.5-89 26-120.5q0-87-32-161.5t-91.5-134-141.5-102.5-183-68.5-216-30.5zm-428-525q-42 0-75.5 18.5t-58 55-39.5 90.5q-4 11 0 19t15 12q13 5 20.5 2t10.5-14q15-49 35-77.5t44.5-41 52.5-12.5q51 0 89.5 47.5t72.5 152.5l275 846q4 11 11 15t22 4q14 0 20-4t3-16l-278-855q-26-82-58-136t-72-80-90-26zm-197-745h1125v-10h-1125zm0 783h1125v-20h-1125zm0 485h1125v-5h-1125zm0 778h1125v-10h-1125z"/><path transform="translate(15.75 24.668) scale(.014 -.014)" d="m-159-17q-11 0-14.5 7.5t-1 16.5 10 16.5 18.5 7.5q32 0 76 29t97 80.5 110 120 114.5 148.5 111.5 165 100 171 81 165.5 55 148 20 119.5q0 12 8 18t19 6 19-6 8-18q0-52-20.5-122.5t-57-153.5-85.5-172-106-178.5-118.5-173-123.5-155-120.5-126-110-84.5-90.5-30zm316 1q-27 0-43.5 10.5t-23.5 29-4.5 45 12.5 59.5l316 971q33 101 72.5 147t90.5 46q31 0 52-13.5t32.5-38.5 11.5-62q0-12-8-18.5t-19-6.5-19 6.5-8 18.5q0 21-5.5 35t-16 21-26.5 7q-19 0-36.5-16t-34.5-50.5-36-89.5l-315-975q-9-26-10-43t5.5-26 20.5-9q18 0 34.5 10t31 26 25.5 31q5 7 11.5 9.5t15.5-3.5q11-7 12-14t-3-15q-12-19-31.5-40.5t-46-36.5-57.5-15zm-157-747h394v-10h-394zm0 783h394v-20h-394zm0 485h394v-5h-394zm0 778h394v-10h-394z"/><path transform="translate(21.266 24.668) scale(.014 -.014)" d="m177-17q-39 0-67.5 19t-44 55-15.5 84q0 46 13 97.5t39.5 101 66 90.5 91.5 65 116 24q33 0 67.5-10.5t63.5-29.5l5 17q4 11 11 15t20 4q18 0 22.5-7.5t0.5-19.5l-125-383q-8-24-8.5-40.5t6.5-25 21-8.5q16 0 32.5 10t30.5 25.5 25 31.5q6 8 12.5 10t15.5-4q11-7 12-14t-4-15q-11-18-30.5-40t-45-37-57.5-15q-23 0-38 8t-23 22.5-9 34 4 42.5q4 16 9 31t9 31q-41-62-81-99t-76.5-53.5-68.5-16.5zm-70 163q0-34 9.5-59.5t28-39.5 46.5-14q37 0 79 28.5t87 86 90 145.5l46 142q-36 21-65.5 28t-56.5 7q-53 0-95-21.5t-73.5-56.5-53-77.5-32-86.5-10.5-82zm-107-909h622v-10h-622zm0 783h622v-20h-622zm0 485h622v-5h-622zm0 778h622v-10h-622z"/><path transform="translate(29.974 24.668) scale(.014 -.014)" d="m401-72q29 25 58 46.5t56.5 40 52.5 32.5q10 7 17.5 4t11-11 1-17-11.5-14q-21-13-44.5-29t-48-33.5-49.5-37.5-49-41zm-354-720q-54 0-82 32.5t-28 85.5q0 51 19 107t56 116 90 121.5 120 120.5q25 22 48.5 41t47 37 45.5 34l86 263q-31-51-65-86t-66-56-62-30.5-56-9.5q-43 0-72 20.5t-36.5 62 13.5 105.5l74 222q12 39 6.5 57t-28.5 18q-20 0-39.5-12.5t-39.5-37-42-60.5q-6-8-12-10.5t-17 1.5q-12 4-14 12t3 17q22 40 48.5 71t57 49 64.5 18q25 0 42.5-9t26-26.5 8-42-11.5-54.5l-72-220q-14-42-13.5-71.5t18-44.5 50.5-15q29 0 64 16t73 50.5 76 90 74 134.5l55 169q4 12 10.5 16.5t19.5 4.5q17 0 22.5-7t0.5-20l-334-1026q-21-63-44.5-111t-51.5-79.5-60.5-47.5-71.5-16zm8 48q33 0 62.5 24t55.5 71 49 117l116 356q-14-10-29.5-23t-31-25.5-29.5-25.5q-64-59-111.5-116.5t-79.5-111-48-101.5-16-89q0-24 7-41t21-26 34-9zm-55-19h665v-10h-665zm0 783h665v-20h-665zm0 485h665v-5h-665zm0 778h665v-10h-665z"/><path transform="translate(39.284 24.668) scale(.014 -.014)" d="m204-19q-39 0-64 15t-36.5 42-10.5 63 15 79l70 215q13 38 8 56t-29 18q-20 0-39.5-12.5t-39.5-37-42-60.5q-6-8-12-10.5t-17 1.5q-12 4-14 12t3 17q22 40 48.5 71t57 49 64.5 18q24 0 40.5-9t24.5-26 7.5-41.5-10.5-55.5l-67-210q-13-41-13.5-74t15-52 49.5-19q32 0 63.5 17t60.5 47.5 54 70.5 41 87l79 242q3 11 10 15.5t20 4.5q17 0 21.5-5.5t1.5-17.5l-94-290q-12-37-16.5-68t0.5-54 21.5-36 46.5-13q42 0 79.5 23t69 61.5 54 85 35.5 94 13 87.5q0 17-2 34t-5 34.5-9 36.5q-3 11-0.5 18t9.5 11 16 4q10 0 16.5-6t10.5-23q6-17 9.5-34.5t5-34.5 1.5-34q0-49-14.5-104.5t-42.5-109-66.5-97-86-69.5-101.5-26q-39 0-65.5 14.5t-39 43-10.5 69.5q-25-40-56.5-68.5t-66.5-43.5-71-15zm-204-744h888v-10h-888zm0 783h888v-20h-888zm0 485h888v-5h-888zm0 778h888v-10h-888z"/><path transform="translate(51.716 24.668) scale(.014 -.014)" d="m-159-17q-11 0-15 7.5t-2 16.5 10 16.5 20 7.5q35 0 70.5 20.5t74.5 69 84.5 132.5 99.5 210l36-25q-55-132-104-220t-94-139.5-89.5-73.5-90.5-22zm550 1q-26 0-42.5 9t-23.5 26.5-5 42 12 55.5q8 25 21 56.5t28 66.5 29 69 22 65q12 45 1 62t-39 17q-24 0-55.5-8t-63.5-16.5-58-8.5q-15 0-26 8.5t-16.5 24-5.5 37.5q0 18 6 34t18 26 28 10q14 0 21-9t7-23q0-11-4.5-27.5t-13.5-33.5q26 1 55.5 10t61.5 18 64 9q31 0 51-14t26-44-6-79q-8-27-21-61t-28.5-69.5-29-69-22.5-59.5q-13-40-8-58t25-18q18 0 34 10t31 26 26 31q5 7 11 9.5t16-3.5q11-7 12-14t-4-15q-11-19-31-40.5t-46-36.5-57-15zm-391-747h568v-10h-568zm0 783h568v-20h-568zm0 485h568v-5h-568zm0 778h568v-10h-568z"/><path transform="translate(59.668 24.668) scale(.014 -.014)" d="m124-16q-47 0-64.5 35t6.5 107l120 368q4 12 10 16.5t20 4.5q16 0 22-6t2-18l-124-380q-13-41-8.5-60t25.5-19q16 0 32.5 10t31.5 26 26 31q5 7 11.5 9.5t15.5-3.5q11-7 12-14t-4-15q-13-22-33.5-43t-45.5-35-55-14zm150 699q-17 0-28.5 9t-11.5 27q0 24 15 43.5t42 19.5q18 0 29-9t11-28q0-23-14.5-42.5t-42.5-19.5zm-274-1446h300v-10h-300zm0 783h300v-20h-300zm0 485h300v-5h-300zm0 778h300v-10h-300z"/><path transform="translate(63.868 24.668) scale(.014 -.014)" d="m161-16q-36 0-56 16t-23 50 15 87l102 315h-83q-10 0-12.5 6.5t0.5 18.5q4 12 10 17.5t16 5.5h85l68 209q4 12 10.5 16.5t20.5 4.5q16 0 22-6t2-18l-68-206h127q11 0 13.5-6t-1.5-18q-3-13-9.5-18.5t-16.5-5.5h-128l-108-329q-16-49-9-70t33-21q30 0 59 22t51 55q6 8 12.5 10t16.5-5q10-6 11.5-13t-3.5-14q-16-27-39.5-50.5t-53-38-64.5-14.5zm-161-747h388v-10h-388zm0 783h388v-20h-388zm0 485h388v-5h-388zm0 778h388v-10h-388z"/><path transform="translate(69.3 24.668) scale(.014 -.014)" d="m248-18q-35 0-64 12t-52.5 33-39.5 50-25 64-9 74q0 38 9 79.5t27.5 81.5 45.5 72.5 63 51.5 82 19q34 0 57-13.5t34.5-36.5 11.5-55q0-52-26.5-102t-72.5-98-106-92q-55-41-113-72t-114.5-49-109.5-18q-9 0-12.5 7.5t-1.5 16.5 9 16.5 19 7.5q47 0 98 17.5t103 47 99 66.5q49 37 87.5 77t62 82 23.5 85q0 30-15 47t-45 17q-39 0-69-26t-50.5-65.5-30.5-83-10-79.5q0-41 10-74.5t28.5-58.5 45.5-38.5 60-13.5q34 0 65 13t59.5 34 52.5 44q8 9 16.5 8t15.5-8 8.5-15-6.5-18q-25-27-59-51.5t-75-40-86-15.5zm-248-745h444v-10h-444zm0 783h444v-20h-444zm0 485h444v-5h-444zm0 778h444v-10h-444z"/><path transform="translate(79.716 24.668) scale(.014 -.014)" d="m1020-18q-48 0-75 26t-29.5 77.5 22.5 124.5l253 765q29 85 23.5 143t-44.5 87.5-111 29.5q-47 0-98-17.5t-104-52.5-105-88-100-125-89-162l-256-786q-4-11-11-16t-22-5q-14 0-20 5t-3 16l360 1106q20 62 9 94.5t-54 32.5q-30 0-64-18.5t-71.5-55.5-78.5-92q-8-10-17-11t-19 6q-10 8-10 16.5t8 19.5q45 61 89.5 102.5t88 63 82.5 21.5q34 0 57.5-12t35-35 11.5-55.5-12-73.5l-44-138q48 78 103.5 137t114 98 116.5 58.5 112 19.5q88 0 138-38.5t61-109.5-22-169l-253-765q-20-60-22-98t13-56 44-18q26 0 53 18t56 52 58 83q8 12 16 14t18-4q11-7 12.5-15.5t-4.5-19.5q-25-42-51.5-75.5t-54-57-55-35.5-55.5-12zm-1020-745h1305v-10h-1305zm0 783h1305v-20h-1305zm0 485h1305v-5h-1305zm0 778h1305v-10h-1305z"/><path transform="translate(97.986 24.668) scale(.014 -.014)" d="m122-21q-34 0-60 13t-40.5 36-14.5 54q0 38 19 68t52 47 76 17q38 0 73-12t70.5-31 72.5-41 77-41 85-31 95-12q64 0 123 26t112 79 96 131q7 12 15 15.5t20-3.5q11-6 13.5-15t-3.5-21q-49-86-108.5-145t-128.5-89.5-148-30.5q-63 0-117.5 17.5t-102 42.5-90.5 50.5-81.5 43-74.5 17.5q-40 0-64-21t-24-56q0-26 18.5-42t47.5-16q60 0 112 65t95 200l206 634q30 94 66.5 162.5t79.5 112 93 64.5 107 21 100-24 70.5-72 37.5-119q2-14-2-21.5t-16-10.5-19.5 2-9.5 19q-10 61-32 99.5t-55.5 57.5-81.5 19q-45 0-85.5-18.5t-76-57-67-98.5-58.5-144l-205-636q-34-105-74.5-172t-88.5-100-104-33zm-122-742h1048v-10h-1048zm0 783h1048v-20h-1048zm0 485h1048v-5h-1048zm0 778h1048v-10h-1048z"/><path transform="translate(116.86 24.668) scale(.014 -.014)" d="m519-793q-38 0-68.5 17t-47.5 48-17 72q0 64 32 132t94 139.5 152.5 147.5 207.5 157q54 37 108.5 72.5t108.5 68.5 105 62q10 6 18 4t14-14q6-11 3.5-19t-13.5-14q-61-35-122-73t-120-77-115-79q-103-73-181-141t-130-130.5-78-121-26-112.5q0-39 22.5-63.5t59.5-24.5q71 0 129.5 71t103.5 211l272 842q-53-88-110.5-156t-119.5-114.5-126-70-129-23.5q-75 0-136 28t-105 80.5-67.5 126.5-23.5 166q0 112 26.5 219.5t74 204.5 113 178.5 144 141 166.5 92.5 180 33q70 0 130.5-16t111-47.5 89.5-77.5q7-7 6-15.5t-11-17.5q-10-8-18.5-6t-16.5 10q-40 40-84.5 66t-95.5 38.5-114 12.5q-84 0-163.5-31t-151.5-87.5-131.5-133-103.5-167.5-68-191.5-24-204.5q0-80 19.5-144.5t56.5-110 88-69.5 114-24q71 0 142.5 33t141.5 99 137 164 129 227q3 11 10.5 15.5t22.5 4.5q29 0 22-19l-345-1067q-34-107-77.5-178.5t-97-107.5-117.5-36zm-519 30h1253v-10h-1253zm0 783h1253v-20h-1253zm0 485h1253v-5h-1253zm0 778h1253v-10h-1253z"/><path transform="translate(134.4 24.668) scale(.014 -.014)" d="m175-17q-44 0-73.5 20.5t-36.5 62 14 105.5l106 323q4 12 10.5 16.5t20.5 4.5q16 0 22-6t2-18l-108-327q-14-42-13-71.5t18.5-44.5 50.5-15q30 0 65.5 16t73.5 51 75.5 91 73.5 136l54 168q4 13 10 17t20 4q16 0 22.5-5.5t2.5-17.5l-126-384q-8-26-9-43.5t5.5-26 20.5-8.5q17 0 33.5 10.5t31 26 25.5 30.5q5 8 12 10t17-5q10-6 11-13t-4-14q-12-19-31.5-40.5t-45.5-37-57-15.5q-24 0-39.5 8.5t-23 24-7.5 37.5 7 50l21 66q-31-52-64.5-87.5t-66.5-57.5-63.5-31.5-56.5-9.5zm-175-746h646v-10h-646zm0 783h646v-20h-646zm0 485h646v-5h-646zm0 778h646v-10h-646z"/><path transform="translate(143.44 24.668) scale(.014 -.014)" d="m124-16q-47 0-64.5 35t6.5 107l120 368q4 12 10 16.5t20 4.5q16 0 22-6t2-18l-124-380q-13-41-8.5-60t25.5-19q16 0 32.5 10t31.5 26 26 31q5 7 11.5 9.5t15.5-3.5q11-7 12-14t-4-15q-13-22-33.5-43t-45.5-35-55-14zm150 699q-17 0-28.5 9t-11.5 27q0 24 15 43.5t42 19.5q18 0 29-9t11-28q0-23-14.5-42.5t-42.5-19.5zm-274-1446h300v-10h-300zm0 783h300v-20h-300zm0 485h300v-5h-300zm0 778h300v-10h-300z"/><path transform="translate(147.64 24.668) scale(.014 -.014)" d="m177-17q-40 0-68.5 19t-43.5 55-15 84q0 45 13 96.5t39 101 65.5 90.5 91.5 65.5 117 24.5q32 0 67.5-10.5t64.5-29.5l258 788q4 12 10.5 16.5t19.5 4.5q18 0 23-7.5t1-19.5l-378-1154q-12-36-6.5-55.5t26.5-19.5q16 0 32 10t30 25.5 25 31.5q6 7 12.5 9.5t15.5-3.5q11-7 12.5-14t-3.5-15q-14-22-34-43t-45-35-55-14q-27 0-45 12.5t-23.5 37.5 2.5 61q5 15 9.5 29.5t8.5 27.5q-41-61-81-98.5t-77.5-54-68.5-16.5zm-70 163q0-35 9-60t28-39 46-14q37 0 80 28.5t88.5 86.5 90.5 147l45 139q-37 22-66.5 29t-57.5 7q-52 0-94-21t-73.5-56.5-53-78-32-86.5-10.5-82zm-107-909h632v-10h-632zm0 783h632v-20h-632zm0 485h632v-5h-632zm0 778h632v-10h-632z"/><path transform="translate(156.49 24.668) scale(.014 -.014)" d="m248-18q-35 0-64 12t-52.5 33-39.5 50-25 64-9 74q0 38 9 79.5t27.5 81.5 45.5 72.5 63 51.5 82 19q34 0 57-13.5t34.5-36.5 11.5-55q0-52-26.5-102t-72.5-98-106-92q-55-41-113-72t-114.5-49-109.5-18q-9 0-12.5 7.5t-1.5 16.5 9 16.5 19 7.5q47 0 98 17.5t103 47 99 66.5q49 37 87.5 77t62 82 23.5 85q0 30-15 47t-45 17q-39 0-69-26t-50.5-65.5-30.5-83-10-79.5q0-41 10-74.5t28.5-58.5 45.5-38.5 60-13.5q34 0 65 13t59.5 34 52.5 44q8 9 16.5 8t15.5-8 8.5-15-6.5-18q-25-27-59-51.5t-75-40-86-15.5zm-248-745h444v-10h-444zm0 783h444v-20h-444zm0 485h444v-5h-444zm0 778h444v-10h-444z"/><path transform="translate(162.71 24.668) scale(.014 -.014)" d="m-159-17q-11 0-14.5 7.5t-1.5 16.5 10 16.5 20 7.5q35 0 77 28.5t92 86.5 108.5 144.5 125.5 203.5l30-16q-69-128-129.5-221.5t-115-154-104.5-90-98-29.5zm379-2q-44 0-81.5 12.5t-59.5 30.5q-8 8-8 16.5t8 16.5q9 9 16 9t18-8q22-13 49.5-22t58.5-9q61 0 94 32t33 88q0 27-7.5 52t-19.5 49.5-25.5 49.5-25.5 52.5-19.5 58.5-7.5 67q0 40 14.5 59t38.5 19q14 0 20.5-7.5t6.5-17.5q0-13-8.5-28.5t-27.5-40.5q3-33 12-60.5t22-52 27.5-47 27-46.5 20-50 7.5-57q0-76-49.5-121t-133.5-45zm-220-744h550v-10h-550zm0 783h550v-20h-550zm0 485h550v-5h-550zm0 778h550v-10h-550z"/></svg>