<svg width="109.02" height="27.048" viewBox="0 0 109.02 27.048" xmlns="http://www.w3.org/2000/svg"><path transform="translate(0 19.992) scale(.014 -.014)" d="m465 377q-19-1-26.5 10t-4.5 34q4 20 14 29.5t28 9.5q97 5 177 31.5t138.5 73 90 106.5 31.5 130q0 62-33.5 96.5t-94.5 34.5q-37 0-76-16.5t-78.5-47.5-75.5-75-68-99-57-118l-181-562q-4-14-16-21t-35-7q-22 0-33 7t-6 23l250 771q-24-23-51-43t-57-38-63-34q-21-11-34.5-3.5t-21.5 27.5q-7 19-1.5 32t25.5 22q67 30 116 64t85.5 77 63.5 97q9 16 19.5 21.5t33.5 5.5q22 0 32.5-7t5.5-23l-39-121q44 51 91.5 84t97 50 97.5 17q59 0 102.5-26t67.5-71.5 24-106.5q0-91-39.5-168.5t-111.5-135.5-170.5-92-216.5-38z"/><path transform="translate(12.194 19.992) scale(.014 -.014)" d="m-147-17q-19 0-25 11.5t-2.5 26 16 26 30.5 11.5q31 0 71 19.5t85.5 54.5 92.5 82 94 102.5 90 115.5 80 121 64 119.5 42.5 111.5 15.5 95q0 15 13 22.5t30.5 7.5 30.5-7.5 13-22.5q0-45-17-101.5t-48.5-120-73.5-130-91.5-132.5-103.5-127-109-112.5-108.5-90.5-102-60.5-87.5-21.5zm319 1q-43 0-64.5 15.5t-27.5 41.5-1.5 58 14.5 64l223 687q29 89 70 129t99 40q34 0 58.5-17.5t37.5-48.5 13-74q0-19-13-28t-30.5-9-30.5 9-13 28q0 18-4 30.5t-11.5 19-21.5 6.5q-11 0-23-9t-23.5-29.5-23.5-58.5l-233-723q-4-13-6-26t3-21.5 19-8.5 26 7 22.5 18.5 18.5 22.5q5 9 15.5 12t25.5-7q17-10 17.5-20.5t-4.5-21.5q-10-17-28.5-37.5t-44.5-34.5-59-14z"/><path transform="translate(17.71 19.992) scale(.014 -.014)" d="m180-17q-43 0-74 19.5t-47.5 56.5-16.5 87q0 44 12.5 95t38 100 64 89.5 90.5 64.5 118 24q33 0 65-10t60-27l1 4q7 18 16.5 23.5t27.5 5.5q32 0 40-9.5t2-29.5l-119-361q-4-13-6-26t3-21.5 20-8.5q13 0 25 7t22.5 18.5 18.5 22.5q6 9 16.5 12t25.5-7q16-10 17-20.5t-5-21.5q-9-17-27.5-37.5t-44.5-34.5-59-14q-31 0-50 9t-28.5 24-12.5 34-1 39q0 3 0 5.5t1 4.5q-35-44-70-70t-66.5-36.5-56.5-10.5zm-48 174q0-31 8.5-51.5t26-31.5 41.5-11q34 0 69 22.5t70 65.5 68 102l53 162q-27 15-52 20t-50 5q-50 0-89-19t-66.5-51-45-70-25.5-75.5-8-67.5z"/><path transform="translate(26.418 19.992) scale(.014 -.014)" d="m423-12q19 12 38 23t37.5 20.5 35.5 17.5 31 14q15 7 24-0.5t11.5-21-1-26.5-15.5-19q-19-9-40-20.5t-43-23.5-44-25-43-25zm-290-507q-59 0-94.5 33t-35.5 85q0 44 18 82.5t51.5 74.5 80 70.5 102.5 68.5q19 11 37 22t36.5 21.5 36.5 20.5l45 139q-23-27-47.5-49t-50.5-36-52-21.5-51-7.5q-54 0-85.5 24t-39 68.5 12.5 104.5l70 217q6 21 0.5 32t-21.5 11q-14 0-27-8t-27.5-25.5-31.5-46.5q-9-13-17-18t-27-2q-20 5-23.5 18t3.5 28q18 36 41.5 65.5t53.5 46.5 66 17q33 0 54.5-11.5t32-32.5 10-48.5-10.5-58.5l-60-190q-12-38-11-63t17.5-37.5 50.5-12.5q26 0 56 15t60 43 58.5 66 51.5 85l68 212q7 20 16.5 26t28.5 6q31 0 39.5-9.5t1.5-29.5l-237-728q-23-72-48.5-123t-56-83-66-46.5-79.5-14.5zm14 77q30 0 58 21.5t51.5 64.5 42.5 107l34 107q-10-5-20-11.5t-19.5-12-19.5-11.5q-43-28-77-54.5t-57.5-52-36-51.5-12.5-53q0-18 7-30t20-18 29-6z"/><path transform="translate(35.728 19.992) scale(.014 -.014)" d="m218-19q-53 0-82 19t-39 50.5-6 70 16 76.5l66 201q6 21 0.5 32t-20.5 11q-16 0-30.5-8t-29.5-25.5-33-46.5q-8-13-16.5-18t-27.5-2q-19 5-23 18t3 28q18 36 43 65.5t56 46.5 68 17q33 0 55-11.5t32-32.5 10.5-48.5-10.5-58.5l-55-168q-7-20-12.5-44t-4-45.5 14-34.5 41.5-13q30 0 57 17.5t49 46.5 39 62.5 27 65.5l19-58q-15-42-36-80.5t-47.5-68-57.5-47-66-17.5zm307 0q-51 0-83.5 17.5t-49.5 48-18 69 13 80.5l92 287q6 19 15.5 25.5t29.5 6.5q32 0 39.5-9.5t1.5-28.5l-88-277q-7-21-10.5-45.5t0-45.5 19.5-34.5 49-13.5q34 0 65 16t57.5 44 47 63.5 35.5 76 23 82 8 78.5q0 21-5 33t-11.5 16.5-14.5 4.5q-14 0-23-12t-9-26q0-16 10.5-26t28-14 37.5-4q50 0 95.5 13.5t82.5 33.5q11 6 21-0.5t16.5-19 6-24-9.5-16.5q-44-22-98-37.5t-120-15.5q-42 0-73 13t-47.5 36.5-16.5 53.5q0 26 11 50.5t34.5 40.5 60.5 16q29 0 52-13.5t37-40.5 14-68q0-44-9.5-93t-28-98-46-92.5-63.5-77.5-80.5-53.5-97.5-19.5z"/><path transform="translate(48.16 19.992) scale(.014 -.014)" d="m81-15q-16 0-29.5 7t-7.5 26l123 380q6 21 0.5 32t-21.5 11q-14 0-27-8t-27.5-25.5-31.5-46.5q-9-13-17-18t-27-2q-20 5-23.5 18t3.5 28q18 36 41.5 65.5t53.5 46.5 66 17q29 0 48-8.5t29-23.5 14-34 3-39l-6-17q22 31 44 54t44 39 42.5 24 39.5 8q14 0 23-7t9-31q0-25 3.5-43t12-28.5 21.5-10.5q24 0 53 18t62 48q9 8 20 5t19.5-13 11-22-6.5-20q-38-38-81-61t-85-23q-23 0-44 9.5t-35 32.5-17 63q-23-8-47.5-27t-49.5-48.5-48.5-69-43.5-86.5l-63-194q-4-13-14.5-19.5t-33.5-6.5z"/><path transform="translate(55.874 19.992) scale(.014 -.014)" d="m142-16q-64 0-85.5 44.5t4.5 123.5l107 331q7 20 16.5 26t28.5 6q31 0 39.5-9.5t1.5-29.5l-116-357q-9-29-4.5-44.5t22.5-15.5q13 0 25 7t22 18.5 19 22.5q6 9 16.5 12t25.5-7q16-10 17-20.5t-5-21.5q-13-22-32.5-42t-45-32-56.5-12zm133 685q-20 0-34 13t-14 38q0 27 17.5 51t54.5 24q21 0 35-12.5t14-38.5q0-27-17.5-51t-55.5-24z"/><path transform="translate(60.074 19.992) scale(.014 -.014)" d="m167-16q-54 0-76.5 25t-21 67 17.5 95l81 249h-79q-11 0-15 10t1 30q6 20 16 30t21 10h82l64 198q6 20 15.5 26t29.5 6q31 0 39.5-9.5t1.5-29.5l-62-191h126q11 0 15.5-9.5t-1.5-30.5q-5-19-15-29.5t-21-10.5h-129l-95-291q-11-35-5.5-52.5t26.5-17.5q30 0 54 20t41 41q6 9 16.5 12t25.5-7q17-10 18-20t-5-21q-12-20-34.5-44t-55-40-76.5-16z"/><path transform="translate(65.506 19.992) scale(.014 -.014)" d="m248-18q-34 0-65 11.5t-56 33-43.5 51.5-28 66.5-9.5 77.5q0 39 9 80t27.5 80 46.5 69.5 66 49 86 18.5q39 0 66.5-15.5t41.5-42 14-60.5q0-57-27-110t-71.5-99.5-96.5-82.5q-54-38-114.5-66.5t-119.5-44-111-15.5q-14 0-20 11.5t-3.5 26 14 26 32.5 11.5q44 0 93 15t98 41 91 59q36 27 69 61t54.5 72 21.5 76q0 28-12 42.5t-39 14.5q-31 0-54.5-21.5t-40-54.5-24.5-69.5-8-66.5q0-37 10-67.5t28-52.5 41.5-33.5 49.5-11.5 50.5 9.5 47.5 26.5 45 36q14 13 27 10.5t24-13.5q13-12 15-25.5t-11-26.5q-33-34-68-56t-71.5-31.5-74.5-9.5z"/><path transform="translate(75.922 19.992) scale(.014 -.014)" d="m1206-17q-48 0-76 26t-32 76 20 122l178 529q22 63 21 106t-25 65-70 22q-27 0-57.5-10t-63-30.5-64-51.5-61.5-72.5-56-94.5l-216-657q-4-14-16-21t-35-7q-22 0-33 7t-6 23l236 714q21 67 20 111t-24 66.5-68 22.5q-29 0-60.5-10t-63.5-30.5-64-51.5-61-74-56-97l-211-653q-4-14-16-21t-35-7q-22 0-33 7t-6 23l267 822q16 50 8 73t-39 23q-20 0-42.5-11t-48-32.5-55.5-55.5q-15-16-28-17t-27 11-14.5 24.5 11.5 27.5q37 48 74 78t74.5 45 72.5 15q56 0 83.5-29.5t25.5-84.5q0-10-0.5-21t-3.5-23q31 39 64 68t67 48.5 67.5 29 63.5 9.5q49 0 83.5-15t55.5-43.5 25-69.5q2-11 2.5-22t-0.5-24q32 43 67 75.5t71.5 54.5 72.5 33 70 11q74 0 116.5-34t50.5-97-22-151l-181-543q-15-44-17.5-71.5t7.5-39.5 30-12q13 0 27 8.5t29.5 26.5 35.5 47q11 17 22.5 21.5t29.5-4.5q16-8 19.5-20.5t-4.5-28.5q-17-31-37-56t-42.5-42.5-46.5-26.5-50-9z"/><path transform="translate(96.138 19.992) scale(.014 -.014)" d="m711-17q-45 0-75 22t-50 73-38 135l-42 213-395-434q-13-15-27-14t-30 16q-14 14-15.5 26.5t10.5 25.5l437 478-50 268q-12 61-23 91.5t-23.5 40-32.5 9.5q-17 0-39-7.5t-38-15.5q-16-6-27.5-2t-19.5 24q-7 18-0.5 28.5t20.5 19.5q27 17 58 26t56 9q35 0 59.5-11t40.5-35.5 28-63.5 23-95l41-215 369 411q14 16 28.5 16t29.5-16q14-13 13-27t-15-31l-405-451 51-256q11-55 20.5-90t20-54.5 22.5-27 29-7.5q21 0 42.5 23t49.5 73q7 13 19 18.5t31-5.5q17-10 19.5-22.5t-6.5-30.5q-19-36-42.5-66.5t-53.5-49.5-70-19z"/></svg>