<svg width="167.52" height="40.88" viewBox="0 0 167.52 40.88" xmlns="http://www.w3.org/2000/svg"><path transform="translate(0 27.496) scale(.014 -.014)" d="m251-14q-27 0-27 19v1403q0 10 7 14.5t21 4.5h286q142 0 238.5-35.5t146-114 49.5-207.5q0-100-33.5-178t-96-134-149.5-90.5-193-46.5q-59-6-114-10.5t-108-7.5v-598q0-10-6-14.5t-21-4.5zm27 666q33 3 71 5.5t76.5 6.5 71.5 7q126 15 219.5 63.5t145 132 51.5 201.5q0 112-42 180t-125.5 98.5-207.5 30.5h-260zm-278-1580h1047v-10h-1047zm0 948h1047v-20h-1047zm0 485h1047v-5h-1047zm0 943h1047v-10h-1047z"/><path transform="translate(14.658 27.496) scale(.014 -.014)" d="m-57-17q-12 0-18 7.5t-6 16.5 6 16.5 18 7.5q36 0 70 22t66 62.5 61 97.5 54 127.5 47 152.5 38.5 172 28.5 186 18 195.5 6 199.5q0 12 8.5 18.5t19 6.5 19-6.5 8.5-18.5q0-105-7-208t-20.5-203.5-32.5-194-43.5-178.5-54-158-62-132-69-101.5-75.5-65-80-22.5zm281 0q-20 0-36 6.5t-26.5 18.5-16 30.5-5.5 43.5v1161q0 108 31.5 161t95.5 53q40 0 67-23.5t40-70.5 13-117q0-13-8.5-19t-19-6-19 6-8.5 19q0 55-7 90.5t-22 53-38 17.5q-24 0-40.5-17.5t-24.5-53.5-8-93v-1149q0-20 4.5-34t14-21.5 23.5-7.5q10 0 20.5 3t20.5 10.5 19 17.5q6 6 13 5.5t13-7.5q6-6 7-12.5t-3-13.5q-11-15-27.5-27t-35-18-37.5-6zm-224-911h394v-10h-394zm0 948h394v-20h-394zm0 485h394v-5h-394zm0 943h394v-10h-394z"/><path transform="translate(20.174 27.496) scale(.014 -.014)" d="m265-17q-55 0-99 29t-69.5 86-25.5 140q0 50 9.5 93t28.5 77.5 47 59 64.5 38 80.5 13.5q34 0 67-10t66-30v16q0 11 6.5 15.5t20.5 4.5 20-4.5 6-14.5v-405q0-21 4.5-34.5t14.5-20 25-6.5q10 0 19.5 3.5t19 11 20.5 18.5q5 6 11.5 5.5t12.5-7.5q7-6 8-13t-3-14q-11-15-27-26.5t-34-18-36-6.5q-21 0-36.5 5.5t-27 17-17 28-6.5 38.5q0 4-0.5 9.5t-0.5 10.5q-23-45-52-68.5t-59.5-32-57.5-8.5zm-138 259q0-62 16.5-109t49-73.5 81.5-26.5q32 0 62.5 13.5t56 46 41.5 88.5v248q-35 24-67 32.5t-65 8.5q-32 0-59-9.5t-48.5-28.5-36.5-46.5-23-63.5-8-80zm-127-1170h622v-10h-622zm0 948h622v-20h-622zm0 485h622v-5h-622zm0 943h622v-10h-622z"/><path transform="translate(28.882 27.496) scale(.014 -.014)" d="m473-106q14 13 30 29t33.5 32 34 31 31.5 26q9 6 17 4t13-9 4.5-16-9.5-17q-13-12-30.5-28t-36.5-34-37.5-35-32.5-31zm-124-851q-44 0-76.5 23t-49.5 66.5-17 105.5q0 84 12 162.5t36 151 60.5 139.5 84.5 128q13 15 26 29.5t27 27.5v220q-15-33-36.5-55t-45.5-35-49.5-18.5-50.5-5.5q-48 0-85 19.5t-57.5 60-20.5 104.5v330q0 9 6 13.5t19 4.5q14 0 20.5-4.5t6.5-13.5v-325q0-44 12.5-75.5t38.5-48.5 67-17q29 0 56 9t50 27.5 41 48.5 28 71v310q0 10 6.5 14.5t20.5 4.5q13 0 19-4.5t6-14.5v-1203q0-63-10.5-110t-30-78.5-48.5-46.5-66-15zm3 48q24 0 42 12t31 36 20 60.5 7 85.5v518q-10-10-19-20t-18-20q-38-51-66.5-111.5t-47.5-127.5-28.5-139-9.5-147q0-45 10.5-78t30.5-51 48-18zm-352-19h640v-10h-640zm0 948h640v-20h-640zm0 485h640v-5h-640zm0 943h640v-10h-640z"/><path transform="translate(37.842 27.496) scale(.014 -.014)" d="m282-18q-36 0-64 12.5t-47.5 38-29 63.5-9.5 88v190q0 50-17.5 71.5t-48.5 21.5q-22 0-37.5-11.5t-25-37-12.5-66.5q0-9-6-13.5t-18-4.5q-10 0-16.5 4.5t-6.5 16.5q2 53 17.5 88.5t42.5 53.5 63 18q29 0 50.5-8.5t36.5-26.5 22.5-45 7.5-65v-181q0-51 10.5-87t34-54 63.5-18q25 0 50 9t46.5 29.5 34 54 12.5 82.5v291q0 10 6.5 14.5t20.5 4.5 20-4.5 6-14.5v-292q0-46 4.5-78.5t16.5-53.5 32.5-31.5 50.5-10.5q25 0 48.5 9.5t44 27.5 35.5 44.5 24 60.5 9 75q0 44-5.5 81t-20.5 74.5-43 81.5q-6 11-3.5 18.5t10 12 15.5 4.5q10 0 15-4.5t14-16.5q16-21 32.5-58t28-84.5 11.5-100.5q0-42-9-82.5t-27-75-44.5-60.5-62.5-41-80-15q-33 0-60 12t-46 36-30 61q-14-35-39.5-59t-58-36.5-68.5-12.5zm-282-910h888v-10h-888zm0 948h888v-20h-888zm0 485h888v-5h-888zm0 943h888v-10h-888z"/><path transform="translate(50.274 27.496) scale(.014 -.014)" d="m-55-17q-12 0-18.5 7.5t-7 16.5 5.5 16.5 18 7.5q34 0 63 21t51 70.5 37 132.5 21 208l42-22q-4-131-21-219.5t-45.5-141-65.5-75-80-22.5zm517 0q-21 0-36.5 6.5t-26.5 19-16.5 31-5.5 44.5q0 32 2.5 69.5t5 76.5 5 76 2.5 68q0 45-15.5 62.5t-46.5 17.5q-25 0-57.5-10t-64.5-19.5-58-9.5q-16 0-30.5 16.5t-24 40-9.5 42.5q0 13 4 22.5t12 15.5 19 6q21 0 29.5-19t8.5-46q0-7 0-15t0-16q23-2 51 9t61.5 22 67.5 11q36 0 59-13t34.5-41.5 11.5-73.5q0-31-2.5-67.5t-5-75-5-73.5-2.5-64q0-32 10-48.5t32-16.5q11 0 21 3t20 10.5 20 17.5q7 6 13.5 5.5t12.5-7.5q6-6 7-12.5t-3-13.5q-11-15-27.5-27t-35-18-37.5-6zm-462-911h568v-10h-568zm0 948h568v-20h-568zm0 485h568v-5h-568zm0 943h568v-10h-568z"/><path transform="translate(58.226 27.496) scale(.014 -.014)" d="m192-17q-41 0-63 25t-22 74v414q0 10 6 14.5t19 4.5q14 0 20.5-4.5t6.5-14.5v-402q0-31 10-47t33-16q11 0 21 3.5t20 10.5 20 17q5 6 12 5.5t13-7.5q6-6 7-12.5t-3-13.5q-11-15-27.5-26.5t-35-18-37.5-6.5zm-59 700q-22 0-33 12t-11 37 11 37.5 33 12.5q21 0 32-12.5t11-37.5q1-25-10.5-37t-32.5-12zm-133-1611h300v-10h-300zm0 948h300v-20h-300zm0 485h300v-5h-300zm0 943h300v-10h-300z"/><path transform="translate(62.426 27.496) scale(.014 -.014)" d="m244-17q-36 0-59.5 14.5t-35 42.5-11.5 67v345h-91q-11 0-15 6t-4 18q0 13 4 18.5t15 5.5h91v211q0 10 6.5 14.5t19.5 4.5 20-4.5 7-14.5v-211h141q11 0 15.5-5.5t4.5-18.5q0-12-4.5-18t-15.5-6h-141v-333q0-41 12-64.5t47-23.5q25 0 42.5 14t34.5 34q7 9 14.5 7.5t15.5-7.5q7-7 9-14.5t-3-14.5q-14-21-32-36t-40-23-47-8zm-244-911h388v-10h-388zm0 948h388v-20h-388zm0 485h388v-5h-388zm0 943h388v-10h-388z"/><path transform="translate(67.858 27.496) scale(.014 -.014)" d="m307-17q-38 0-74.5 17t-68 48-55 73.5-37 93-13.5 106.5q0 34 7.5 64.5t21.5 55 34 42 44.5 27 52.5 9.5q53 0 86-22.5t48-59.5 15-79q0-34-11.5-69.5t-32.5-70-50-66.5q-41-48-96-86t-115.5-60.5-122.5-22.5q-9 0-14 7.5t-4.5 16.5 6.5 16.5 18 7.5q54 0 107 20t100.5 54 82.5 75q24 27 41 56.5t26.5 59.5 9.5 58q0 59-26 87.5t-72 28.5q-21 0-39.5-10.5t-32.5-30.5-21.5-47-7.5-60q0-66 18.5-119.5t48.5-91.5 65-58.5 68-20.5q30 0 53 12t41 29.5 31 32.5q8 9 16 8.5t17-7.5q8-6 10.5-13.5t-3.5-16.5q-16-24-42-45.5t-59-35-71-13.5zm-307-911h444v-10h-444zm0 948h444v-20h-444zm0 485h444v-5h-444zm0 943h444v-10h-444z"/><path transform="translate(78.274 27.496) scale(.014 -.014)" d="m351-18q-51 0-95.5 15.5t-82.5 46.5-69 77q-6 10-4.5 19.5t10.5 15.5q12 10 21 9t17-12q42-58 93.5-88.5t113.5-30.5q60 0 101 25.5t61.5 77 20.5 129.5v1113q-20-20-49-32t-62-12q-27 0-51.5 5.5t-47.5 13.5-45 13.5-46 5.5q-26 0-48-15t-34.5-43-12.5-70q0-9-6-16t-21-7q-14 0-20.5 6t-6.5 17q0 53 19 93t52 62.5 77 22.5q32 0 57-6t48-13.5 45.5-13.5 48.5-6q30 0 55 16t41 34q11 10 17.5 14.5t17.5 4.5q13 0 19.5-4.5t6.5-14.5v-1169q0-95-27-158t-81-94-133-31zm-351-910h822v-10h-822zm0 948h822v-20h-822zm0 485h822v-5h-822zm0 943h822v-10h-822z"/><path transform="translate(89.782 27.496) scale(.014 -.014)" d="m251 0q-27 0-27 19v1389q0 10 7 14.5t21 4.5h272q152 0 270.5-41.5t199.5-123.5 123-201 42-274q0-143-32-265.5t-93-218.5-148.5-164-199.5-103.5-245-35.5zm28 52h160q122 0 225 33t183.5 96.5 136.5 153 85.5 203.5 29.5 249q0 143-38 252.5t-111.5 184.5-180.5 113.5-245 38.5h-245zm-279-980h1299v-10h-1299zm0 948h1299v-20h-1299zm0 485h1299v-5h-1299zm0 943h1299v-10h-1299z"/><path transform="translate(112.17 27.496) scale(.014 -.014)" d="m904-958q-57 0-97 25.5t-61 71.5-21 110q0 77 27 157.5t77 161.5 118.5 159.5 149.5 150.5q48 44 98.5 86.5t102 83.5 104.5 79q12 9 20.5 7t14.5-13q7-10 5-18.5t-12-16.5q-56-41-111-84.5t-107.5-89-102.5-92.5q-71-65-130.5-135.5t-103.5-144-67.5-147.5-23.5-145q0-73 32-113.5t93-40.5q87 0 132 81t45 236v1062q-27-105-72.5-190t-105-145.5-130.5-92.5-150-32q-109 0-198.5 50.5t-154.5 143-100 221-35 285.5q0 110 18 207.5t52 180 82.5 147.5 110.5 111 135 70 155 24q79 0 148-21t130-62 112-101q8-9 8-16.5t-10-17.5q-10-9-18.5-9t-17.5 10q-46 53-101 89.5t-117.5 55.5-133.5 19q-73 0-138.5-22.5t-120.5-64.5-98.5-102.5-74-137.5-47-167.5-16.5-192.5q0-145 31-263.5t89-204 137.5-132 176.5-46.5q85 0 160.5 43.5t135.5 123.5 100.5 191 57.5 244q0 11 6.5 15.5t20.5 4.5q27 0 27-20v-1257q0-120-27-202.5t-79.5-125-129.5-42.5zm-904 30h1405v-10h-1405zm0 948h1405v-20h-1405zm0 485h1405v-5h-1405zm0 943h1405v-10h-1405z"/><path transform="translate(131.84 27.496) scale(.014 -.014)" d="m270-18q-48 0-85 19.5t-57.5 60-20.5 104.5v330q0 9 6 13.5t19 4.5q14 0 20.5-4.5t6.5-13.5v-325q0-44 12.5-75.5t38.5-48.5 67-17q29 0 56 9t50 27.5 41 48.5 28 71v310q0 10 6.5 14.5t20.5 4.5q13 0 19-4.5t6-14.5v-403q0-20 4.5-34.5t14.5-22 24-7.5q10 0 20 3.5t20 10.5 20 18q6 6 13 5.5t13-7.5q5-5 6.5-12t-3.5-13q-11-15-27-27t-34-19-38-7-35 6-26 18-17 30-7 41v21q-15-34-36.5-56t-45.5-35-49.5-18.5-50.5-5.5zm-270-910h646v-10h-646zm0 948h646v-20h-646zm0 485h646v-5h-646zm0 943h646v-10h-646z"/><path transform="translate(140.88 27.496) scale(.014 -.014)" d="m192-17q-41 0-63 25t-22 74v414q0 10 6 14.5t19 4.5q14 0 20.5-4.5t6.5-14.5v-402q0-31 10-47t33-16q11 0 21 3.5t20 10.5 20 17q5 6 12 5.5t13-7.5q6-6 7-12.5t-3-13.5q-11-15-27.5-26.5t-35-18-37.5-6.5zm-59 700q-22 0-33 12t-11 37 11 37.5 33 12.5q21 0 32-12.5t11-37.5q1-25-10.5-37t-32.5-12zm-133-1611h300v-10h-300zm0 948h300v-20h-300zm0 485h300v-5h-300zm0 943h300v-10h-300z"/><path transform="translate(145.08 27.496) scale(.014 -.014)" d="m265-17q-55 0-99 29t-69.5 86-25.5 140q0 50 9.5 93t28.5 77.5 47 59 65 38 82 13.5q33 0 65.5-9.5t66.5-29.5v954q0 10 6.5 14.5t19.5 4.5q14 0 20-4.5t6-14.5v-1343q0-31 11-46t33-15q10 0 20 3.5t19.5 11.5 19.5 18q6 6 12.5 5t12.5-8q6-6 7.5-12.5t-3.5-13.5q-11-15-27-26.5t-34-18-36-6.5q-29 0-48.5 11.5t-29 32-9.5 48.5q0 4 0 8.5t0 8.5q-23-45-52.5-68.5t-60-32-57.5-8.5zm-138 259q0-62 16.5-109t49-73.5 81.5-26.5q32 0 62.5 13.5t56 46 42.5 88.5v247q-35 24-67.5 33t-65.5 9q-32 0-59-9.5t-48.5-28.5-36.5-46.5-23-63.5-8-80zm-127-1170h628v-10h-628zm0 948h628v-20h-628zm0 485h628v-5h-628zm0 943h628v-10h-628z"/><path transform="translate(153.87 27.496) scale(.014 -.014)" d="m307-17q-38 0-74.5 17t-68 48-55 73.5-37 93-13.5 106.5q0 34 7.5 64.5t21.5 55 34 42 44.5 27 52.5 9.5q53 0 86-22.5t48-59.5 15-79q0-34-11.5-69.5t-32.5-70-50-66.5q-41-48-96-86t-115.5-60.5-122.5-22.5q-9 0-14 7.5t-4.5 16.5 6.5 16.5 18 7.5q54 0 107 20t100.5 54 82.5 75q24 27 41 56.5t26.5 59.5 9.5 58q0 59-26 87.5t-72 28.5q-21 0-39.5-10.5t-32.5-30.5-21.5-47-7.5-60q0-66 18.5-119.5t48.5-91.5 65-58.5 68-20.5q30 0 53 12t41 29.5 31 32.5q8 9 16 8.5t17-7.5q8-6 10.5-13.5t-3.5-16.5q-16-24-42-45.5t-59-35-71-13.5zm-307-911h444v-10h-444zm0 948h444v-20h-444zm0 485h444v-5h-444zm0 943h444v-10h-444z"/><path transform="translate(160.09 27.496) scale(.014 -.014)" d="m249-19q-46 0-82 11.5t-62 28-38 29.5q-7 8-5.5 15.5t8.5 17.5q8 8 15.5 8.5t15.5-6.5q32-26 69-42t82-16q35 0 60.5 13.5t39.5 37.5 14 55q0 36-20 55.5t-51 30.5-65.5 21-66 25-51.5 42-20 73q0 40 20 71t57 49.5 87 18.5q37 0 68-9.5t54.5-24.5 38.5-31q7-8 5-15t-9-15q-6-7-14.5-7t-16.5 6q-32 24-61 37t-68 13q-52 0-79.5-24t-27.5-64q0-35 19.5-55t51-31.5 67-21.5 66.5-25 51-41.5 20-72.5q0-38-18.5-74.5t-56-59.5-97.5-23zm-249-909h531v-10h-531zm0 948h531v-20h-531zm0 485h531v-5h-531zm0 943h531v-10h-531z"/></svg>