<?xml version="1.0" encoding="utf-8" ?>
<svg baseProfile="tiny" height="100%" version="1.2" width="100%" xmlns="http://www.w3.org/2000/svg" xmlns:ev="http://www.w3.org/2001/xml-events" xmlns:xlink="http://www.w3.org/1999/xlink"><defs /><g><path d="M499 380Q482 379 477.0 391.0Q472 403 476 419Q481 435 490.0 446.0Q499 457 516 457Q582 459 646.0 471.5Q710 484 766.0 508.5Q822 533 865.0 569.0Q908 605 933.0 652.5Q958 700 958 760Q958 804 939.0 836.5Q920 869 885.0 890.5Q850 912 801.0 923.0Q752 934 692 934Q616 934 543.5 917.5Q471 901 406.5 868.5Q342 836 289 786Q272 770 257.5 775.5Q243 781 232 794Q223 804 223.5 818.0Q224 832 238 845Q280 887 333.0 919.0Q386 951 445.5 972.5Q505 994 569.0 1004.5Q633 1015 698 1015Q787 1015 853.0 996.5Q919 978 962.5 944.0Q1006 910 1027.5 864.0Q1049 818 1049 761Q1049 686 1019.0 626.5Q989 567 936.0 522.0Q883 477 813.0 446.5Q743 416 663.0 399.5Q583 383 499 380ZM139 -17Q100 -17 67.5 0.0Q35 17 12.5 44.5Q-10 72 -19 103Q-25 121 -20.5 133.5Q-16 146 0 153Q18 160 29.5 155.0Q41 150 51 133Q63 111 77.5 96.0Q92 81 109.0 74.5Q126 68 146 68Q184 68 210.0 97.5Q236 127 261 206L456 812Q461 826 473.0 833.0Q485 840 507 840Q530 840 541.0 833.0Q552 826 546 810L353 210Q330 138 300.5 87.0Q271 36 232.0 9.5Q193 -17 139 -17Z" transform="translate(0.0, 72) scale(0.072, -0.072)" /><path d="M-147 -17Q-166 -17 -172.0 -5.5Q-178 6 -174.5 20.5Q-171 35 -158.5 46.5Q-146 58 -128 58Q-97 58 -57.0 77.5Q-17 97 28.5 132.0Q74 167 121.0 214.0Q168 261 215.0 316.5Q262 372 305.0 432.0Q348 492 385.0 553.0Q422 614 449.0 672.5Q476 731 491.5 784.0Q507 837 507 879Q507 894 520.0 901.5Q533 909 550.5 909.0Q568 909 581.0 901.5Q594 894 594 879Q594 834 577.0 777.5Q560 721 528.5 657.5Q497 594 455.0 527.5Q413 461 363.5 395.0Q314 329 260.0 268.0Q206 207 151.0 155.5Q96 104 42.5 65.0Q-11 26 -59.5 4.5Q-108 -17 -147 -17ZM172 -16Q129 -16 107.5 -0.5Q86 15 80.0 41.0Q74 67 78.5 99.0Q83 131 93 163L316 850Q345 939 386.0 979.0Q427 1019 485 1019Q519 1019 543.5 1001.5Q568 984 581.0 953.0Q594 922 594 879Q594 860 581.0 851.0Q568 842 550.5 842.0Q533 842 520.0 851.0Q507 860 507 879Q507 897 503.0 909.5Q499 922 491.5 928.5Q484 935 470 935Q459 935 447.0 926.0Q435 917 423.5 896.5Q412 876 400 838L167 115Q163 102 161.0 89.0Q159 76 164.0 67.5Q169 59 183 59Q197 59 209.0 66.0Q221 73 231.5 84.5Q242 96 250 107Q255 116 265.5 119.0Q276 122 291 112Q308 102 308.5 91.5Q309 81 304 70Q294 53 275.5 32.5Q257 12 231.0 -2.0Q205 -16 172 -16Z" transform="translate(66.384, 72) scale(0.072, -0.072)" /><path d="M180 -17Q137 -17 106.0 2.5Q75 22 58.5 59.0Q42 96 42 146Q42 190 54.5 241.0Q67 292 92.5 341.0Q118 390 156.5 430.5Q195 471 247.0 495.0Q299 519 365 519Q398 519 430.0 509.0Q462 499 490 482L491 486Q498 504 507.5 509.5Q517 515 535 515Q567 515 575.0 505.5Q583 496 577 476L458 115Q454 102 452.0 89.0Q450 76 455.0 67.5Q460 59 475 59Q488 59 500.0 66.0Q512 73 522.5 84.5Q533 96 541 107Q547 116 557.5 119.0Q568 122 583 112Q599 102 600.0 91.5Q601 81 595 70Q586 53 567.5 32.5Q549 12 523.0 -2.0Q497 -16 464 -16Q433 -16 414.0 -7.0Q395 2 385.5 17.0Q376 32 373.0 51.0Q370 70 372 90Q372 93 372.0 95.5Q372 98 373 100Q338 56 303.0 30.0Q268 4 236.5 -6.5Q205 -17 180 -17ZM132 157Q132 126 140.5 105.5Q149 85 166.5 74.0Q184 63 208 63Q242 63 277.0 85.5Q312 108 347.0 151.0Q382 194 415 253L468 415Q441 430 416.0 435.0Q391 440 366 440Q316 440 277.0 421.0Q238 402 210.5 370.0Q183 338 165.5 300.0Q148 262 140.0 224.5Q132 187 132 157Z" transform="translate(94.752, 72) scale(0.072, -0.072)" /><path d="M392 -20Q411 -9 430.5 1.5Q450 12 469.0 21.0Q488 30 505.0 38.0Q522 46 536 52Q552 58 560.5 50.5Q569 43 571.5 29.0Q574 15 570.0 2.0Q566 -11 554 -16Q535 -25 513.5 -36.0Q492 -47 469.5 -58.5Q447 -70 425.0 -82.0Q403 -94 381 -107ZM108 -519Q69 -519 39.5 -503.5Q10 -488 -6.0 -461.0Q-22 -434 -22 -400Q-22 -356 -3.5 -316.5Q15 -277 49.0 -240.0Q83 -203 130.5 -168.0Q178 -133 237 -99Q262 -84 288.0 -69.5Q314 -55 341 -40L386 98Q362 71 337.5 49.5Q313 28 287.5 13.0Q262 -2 235.5 -9.0Q209 -16 184 -16Q130 -16 98.0 8.0Q66 32 59.5 76.5Q53 121 72 181L171 483Q178 503 187.5 509.0Q197 515 216 515Q247 515 255.5 505.5Q264 496 257 476L158 175Q146 137 147.0 112.0Q148 87 164.5 74.5Q181 62 215 62Q241 62 271.0 77.0Q301 92 331.0 119.5Q361 147 389.5 185.5Q418 224 441 270L509 483Q516 503 525.5 509.0Q535 515 554 515Q585 515 593.5 505.5Q602 496 595 476L358 -252Q335 -324 309.5 -375.0Q284 -426 253.5 -458.0Q223 -490 187.5 -504.5Q152 -519 108 -519ZM121 -442Q145 -442 165.5 -430.0Q186 -418 204.5 -395.0Q223 -372 240.5 -335.5Q258 -299 274 -249L308 -141Q295 -149 281.5 -156.5Q268 -164 254 -172Q210 -200 174.5 -227.5Q139 -255 115.5 -281.5Q92 -308 79.0 -334.0Q66 -360 66 -387Q66 -405 73.0 -417.0Q80 -429 92.5 -435.5Q105 -442 121 -442Z" transform="translate(139.536, 72) scale(0.072, -0.072)" /><path d="M208 -19Q160 -19 132.0 -0.5Q104 18 93.0 48.0Q82 78 84.0 114.5Q86 151 98 188L167 398Q173 419 167.5 430.0Q162 441 146 441Q132 441 119.0 433.0Q106 425 91.5 407.5Q77 390 60 361Q51 348 43.0 343.0Q35 338 16 341Q-4 346 -7.5 359.0Q-11 372 -4 387Q14 423 37.5 452.5Q61 482 91.0 499.0Q121 516 157 516Q190 516 211.5 504.5Q233 493 243.0 472.0Q253 451 253.0 423.5Q253 396 243 365L185 182Q176 155 173.0 126.5Q170 98 182.0 79.0Q194 60 230 60Q253 60 277.0 71.0Q301 82 324.5 103.5Q348 125 368.5 156.0Q389 187 405 227L488 483Q495 502 504.0 508.5Q513 515 533 515Q566 515 573.0 506.0Q580 497 574 478L496 234Q487 205 479.5 174.5Q472 144 472.5 118.0Q473 92 487.0 76.5Q501 61 533 61Q571 61 603.5 80.5Q636 100 661.5 133.5Q687 167 705.5 207.5Q724 248 733.5 290.5Q743 333 743 370Q743 387 742.0 403.0Q741 419 739.0 434.5Q737 450 733 464Q730 482 733.5 494.0Q737 506 748.0 512.5Q759 519 776 519Q793 519 803.5 507.5Q814 496 820 470Q824 455 826.5 438.5Q829 422 830.0 405.0Q831 388 831 370Q831 325 818.0 272.5Q805 220 778.5 168.5Q752 117 714.5 74.5Q677 32 628.0 6.5Q579 -19 520 -19Q475 -19 446.0 -5.0Q417 9 402.5 32.5Q388 56 384 85Q363 52 335.5 28.5Q308 5 276.5 -7.0Q245 -19 208 -19Z" transform="translate(185.61599999999999, 72) scale(0.072, -0.072)" /><path d="M-148 -17Q-167 -17 -173.0 -5.5Q-179 6 -175.5 20.5Q-172 35 -159.5 46.5Q-147 58 -128 58Q-94 58 -59.0 81.5Q-24 105 13.0 153.0Q50 201 87.5 272.5Q125 344 163 441L220 415Q173 294 129.5 211.0Q86 128 42.5 77.5Q-1 27 -47.5 5.0Q-94 -17 -148 -17ZM409 -16Q371 -16 349.0 -4.0Q327 8 318.5 29.0Q310 50 312.0 76.0Q314 102 322 129Q330 153 343.0 183.5Q356 214 371.0 248.0Q386 282 399.5 316.0Q413 350 422 380Q430 409 422.0 419.0Q414 429 397 429Q372 429 341.0 419.0Q310 409 277.0 399.5Q244 390 214 390Q192 390 177.0 404.5Q162 419 154.5 441.0Q147 463 147 488Q147 512 155.0 534.0Q163 556 178.5 570.5Q194 585 217 585Q241 585 252.0 571.0Q263 557 263 538Q263 522 257.5 503.0Q252 484 242 469Q260 469 291.0 480.0Q322 491 359.0 502.0Q396 513 431 513Q460 513 481.5 499.5Q503 486 511.0 455.0Q519 424 505 372Q497 344 483.5 310.0Q470 276 454.5 240.5Q439 205 424.5 171.0Q410 137 401 107Q393 81 398.5 70.0Q404 59 420 59Q434 59 446.0 66.0Q458 73 468.0 84.5Q478 96 486 107Q492 116 502.5 119.0Q513 122 528 112Q544 102 545.0 91.5Q546 81 540 70Q531 53 512.5 32.5Q494 12 468.0 -2.0Q442 -16 409 -16Z" transform="translate(249.55199999999996, 72) scale(0.072, -0.072)" /><path d="M142 -16Q78 -16 56.5 28.5Q35 73 61 152L168 483Q175 503 184.5 509.0Q194 515 213 515Q244 515 252.5 505.5Q261 496 254 476L138 119Q129 90 133.5 74.5Q138 59 156 59Q169 59 181.0 66.0Q193 73 203.0 84.5Q213 96 222 107Q228 116 238.5 119.0Q249 122 264 112Q280 102 281.0 91.5Q282 81 276 70Q263 48 243.5 28.0Q224 8 198.5 -4.0Q173 -16 142 -16ZM275 669Q255 669 241.0 682.0Q227 695 227 720Q227 747 244.5 771.0Q262 795 299 795Q320 795 334.0 782.5Q348 770 348 744Q348 717 330.5 693.0Q313 669 275 669Z" transform="translate(290.448, 72) scale(0.072, -0.072)" /><path d="M167 -16Q113 -16 90.5 9.0Q68 34 69.5 76.0Q71 118 87 171L258 698Q264 718 273.5 724.0Q283 730 303 730Q334 730 342.5 720.5Q351 711 344 691L282 500H408Q419 500 423.5 490.5Q428 481 422 460Q417 441 407.0 430.5Q397 420 386 420H257L162 129Q151 94 156.5 76.5Q162 59 183 59Q213 59 237.0 79.0Q261 99 278 120Q284 129 294.5 132.0Q305 135 320 125Q337 115 338.0 105.0Q339 95 333 84Q321 64 298.5 40.0Q276 16 243.5 0.0Q211 -16 167 -16Z" transform="translate(312.048, 72) scale(0.072, -0.072)" /><path d="M248 -18Q214 -18 183.0 -6.5Q152 5 127.0 26.5Q102 48 83.5 78.0Q65 108 55.5 144.5Q46 181 46 222Q46 261 55.0 302.0Q64 343 82.5 382.0Q101 421 129.0 451.5Q157 482 195.0 500.5Q233 519 281 519Q320 519 347.5 503.5Q375 488 389.0 461.5Q403 435 403 401Q403 344 376.0 291.0Q349 238 304.5 191.5Q260 145 208 109Q154 71 93.5 42.5Q33 14 -26.0 -1.5Q-85 -17 -137 -17Q-151 -17 -157.0 -5.5Q-163 6 -160.5 20.5Q-158 35 -146.5 46.5Q-135 58 -114 58Q-70 58 -21.0 73.0Q28 88 77.0 114.0Q126 140 168 173Q204 200 237.0 234.0Q270 268 291.5 306.0Q313 344 313 382Q313 410 301.0 424.5Q289 439 262 439Q231 439 207.5 417.5Q184 396 167.5 363.0Q151 330 143.0 293.5Q135 257 135 227Q135 190 145.0 159.5Q155 129 173.0 107.0Q191 85 214.5 73.5Q238 62 264 62Q290 62 314.5 71.5Q339 81 362.0 98.0Q385 115 407 134Q421 147 434.0 144.5Q447 142 458 131Q471 119 473.0 105.5Q475 92 462 79Q429 45 394.0 23.0Q359 1 322.5 -8.5Q286 -18 248 -18Z" transform="translate(339.984, 72) scale(0.072, -0.072)" /><path d="M541 -13Q506 -13 475.5 -6.0Q445 1 420.0 13.0Q395 25 377 40Q361 52 359.0 64.0Q357 76 369 92Q380 105 390.5 108.0Q401 111 415 103Q435 91 456.0 83.0Q477 75 499.5 71.5Q522 68 543 68Q601 68 657.0 86.0Q713 104 757.5 139.0Q802 174 828.5 226.5Q855 279 855 347Q855 395 828.0 429.0Q801 463 755.5 481.0Q710 499 654 499Q634 491 615.5 485.0Q597 479 579 479Q554 479 541.5 490.5Q529 502 529 518Q529 532 537.0 549.0Q545 566 564.0 578.0Q583 590 616 590Q636 590 651.5 586.0Q667 582 678 577Q732 585 779.5 606.0Q827 627 862.5 657.5Q898 688 918.0 724.5Q938 761 938 798Q938 845 911.5 874.5Q885 904 831.5 919.0Q778 934 696 934Q618 934 544.0 918.0Q470 902 405.0 869.5Q340 837 286 786Q270 770 255.0 775.5Q240 781 229 794Q221 806 221.0 818.5Q221 831 235 845Q278 888 331.0 920.0Q384 952 444.5 973.0Q505 994 570.0 1004.5Q635 1015 702 1015Q812 1015 884.5 989.5Q957 964 993.0 917.5Q1029 871 1029 807Q1029 759 1008.0 715.5Q987 672 950.5 636.0Q914 600 865.5 575.5Q817 551 760 541V540Q801 534 835.0 517.5Q869 501 894.0 476.0Q919 451 932.5 418.5Q946 386 946 347Q946 285 926.5 230.0Q907 175 870.5 130.0Q834 85 783.5 53.0Q733 21 671.5 4.0Q610 -13 541 -13ZM139 -17Q100 -17 67.5 0.0Q35 17 12.5 44.5Q-10 72 -19 103Q-25 121 -20.5 133.5Q-16 146 0 153Q18 160 29.5 155.0Q41 150 51 133Q63 111 77.5 96.0Q92 81 109.0 74.5Q126 68 146 68Q184 68 210.0 97.5Q236 127 261 206L456 812Q461 826 473.0 833.0Q485 840 507 840Q530 840 540.5 833.0Q551 826 546 810L353 210Q330 138 300.5 87.0Q271 36 232.0 9.5Q193 -17 139 -17Z" transform="translate(393.552, 72) scale(0.072, -0.072)" /><path d="M353 -19Q269 -19 208.5 9.0Q148 37 115.5 88.0Q83 139 83 207Q83 264 104.5 316.5Q126 369 164.5 412.5Q203 456 255.5 487.0Q308 518 369 530Q335 540 309.0 565.5Q283 591 268.0 627.0Q253 663 253 704Q253 758 270.0 805.5Q287 853 318.0 891.5Q349 930 392.0 958.0Q435 986 488.0 1000.5Q541 1015 602 1015Q658 1015 706.0 1001.0Q754 987 793.0 960.5Q832 934 858 896Q870 880 867.5 867.5Q865 855 851 844Q837 832 823.5 833.5Q810 835 793 851Q768 875 735.5 892.5Q703 910 664.5 919.0Q626 928 582 928Q528 928 484.0 910.5Q440 893 409.0 862.0Q378 831 361.0 791.0Q344 751 344 706Q344 665 361.5 633.0Q379 601 415.0 582.5Q451 564 507 564H641Q657 564 660.5 555.5Q664 547 657 524Q650 503 641.0 493.5Q632 484 618 484H487Q423 484 366.5 463.0Q310 442 267.5 404.5Q225 367 201.0 319.0Q177 271 177 217Q177 169 200.5 136.0Q224 103 268.5 85.5Q313 68 375 68Q424 68 472.5 84.5Q521 101 567.0 133.0Q613 165 656 213Q672 231 685.0 231.0Q698 231 713 217Q729 202 727.5 189.0Q726 176 708 158Q652 95 593.5 56.0Q535 17 474.5 -1.0Q414 -19 353 -19Z" transform="translate(464.976, 72) scale(0.072, -0.072)" /><path d="M489 -17Q463 -17 453.0 -9.0Q443 -1 444 23Q461 205 468.5 344.0Q476 483 477.0 583.0Q478 683 472.5 751.0Q467 819 454.5 859.0Q442 899 424.0 916.0Q406 933 383 933Q355 933 338.0 914.0Q321 895 313.0 864.5Q305 834 305 800Q305 794 305.0 788.0Q305 782 306 776Q307 760 298.0 752.0Q289 744 268 743Q246 742 238.0 749.5Q230 757 228 773Q227 782 226.5 789.0Q226 796 226 800Q226 843 236.0 882.0Q246 921 265.5 951.0Q285 981 315.5 998.0Q346 1015 387 1015Q427 1015 457.5 999.0Q488 983 510.5 946.5Q533 910 545.5 846.5Q558 783 561.5 689.5Q565 596 558.5 466.5Q552 337 536 165Q605 310 663.0 425.5Q721 541 771.0 630.0Q821 719 864.5 784.0Q908 849 947.0 893.5Q986 938 1022.0 964.5Q1058 991 1092.5 1003.0Q1127 1015 1162 1015Q1187 1015 1209.0 1009.0Q1231 1003 1250.5 992.5Q1270 982 1283 968Q1295 957 1294.5 945.0Q1294 933 1284 921Q1275 909 1263.0 905.5Q1251 902 1239 909Q1230 915 1218.5 921.0Q1207 927 1192.5 930.5Q1178 934 1159 934Q1134 934 1106.5 921.5Q1079 909 1047.5 880.5Q1016 852 979.0 804.5Q942 757 898.5 687.0Q855 617 802.5 521.5Q750 426 687.5 301.5Q625 177 550 20Q539 -4 524.5 -10.5Q510 -17 489 -17Z" transform="translate(542.376, 72) scale(0.072, -0.072)" /><path d="M567 -15Q515 -15 467.5 0.5Q420 16 375.5 39.0Q331 62 290.5 85.5Q250 109 213.0 124.5Q176 140 142 140Q113 140 100.0 128.0Q87 116 87 100Q87 84 100.5 73.5Q114 63 139 63Q165 63 184.0 77.0Q203 91 219.5 123.0Q236 155 253 209L404 666Q432 751 466.5 816.0Q501 881 544.0 925.5Q587 970 638.0 992.5Q689 1015 750 1015Q801 1015 841.0 995.0Q881 975 903.5 938.5Q926 902 926 855Q926 804 903.0 759.5Q880 715 838.5 682.5Q797 650 739.5 632.5Q682 615 615 615Q540 615 470.5 631.0Q401 647 337.5 678.0Q274 709 217 754Q203 765 202.0 778.0Q201 791 213 807Q226 824 238.5 826.5Q251 829 264 817Q311 779 367.5 752.0Q424 725 489.5 711.0Q555 697 628 697Q672 697 709.5 708.5Q747 720 775.0 740.5Q803 761 819.0 789.0Q835 817 835 851Q835 876 823.5 894.0Q812 912 790.5 921.5Q769 931 739 931Q697 931 661.0 912.5Q625 894 593.5 858.0Q562 822 535.0 768.5Q508 715 485 645L337 197Q311 118 281.0 71.0Q251 24 214.0 3.5Q177 -17 129 -17Q91 -17 61.0 -2.5Q31 12 13.5 37.0Q-4 62 -4 93Q-4 131 14.5 159.0Q33 187 66.0 203.5Q99 220 141 220Q188 220 231.0 204.5Q274 189 315.5 166.5Q357 144 398.0 121.5Q439 99 482.0 83.5Q525 68 571 68Q628 68 670.0 86.0Q712 104 743.0 140.5Q774 177 797 230Q804 245 817.0 248.0Q830 251 849 244Q870 236 875.5 223.5Q881 211 873 194Q839 124 795.0 77.5Q751 31 694.5 8.0Q638 -15 567 -15Z" transform="translate(620.856, 72) scale(0.072, -0.072)" /><path d="M447 -519Q403 -519 370.5 -502.5Q338 -486 320.5 -455.5Q303 -425 303 -386Q303 -339 326.5 -292.5Q350 -246 399.5 -195.5Q449 -145 529.0 -88.5Q609 -32 722.5 33.0Q836 98 986 176Q999 183 1012.0 179.5Q1025 176 1033 159Q1044 141 1041.0 127.0Q1038 113 1021 105Q883 34 779.0 -25.0Q675 -84 601.5 -134.0Q528 -184 482.0 -226.5Q436 -269 415.0 -306.0Q394 -343 394 -377Q394 -403 411.5 -418.5Q429 -434 457 -434Q511 -434 555.0 -386.5Q599 -339 628 -247L793 260Q760 217 721.5 178.5Q683 140 640.5 109.0Q598 78 555.0 56.5Q512 35 469.0 23.0Q426 11 385 11Q315 11 265.0 37.0Q215 63 188.0 114.0Q161 165 161 239Q161 303 178.0 376.0Q195 449 226.0 523.5Q257 598 299.5 669.5Q342 741 393.5 803.5Q445 866 503.5 914.0Q562 962 625.5 988.5Q689 1015 754 1015Q809 1015 848.0 995.5Q887 976 908.5 940.5Q930 905 930 856Q930 790 887.0 716.5Q844 643 766.0 567.0Q688 491 582.0 416.0Q476 341 348.5 270.0Q221 199 79 137Q62 130 48.5 135.5Q35 141 28 159Q20 178 24.0 190.5Q28 203 45 210Q175 267 293.5 332.0Q412 397 511.5 465.5Q611 534 684.0 602.0Q757 670 797.5 733.5Q838 797 838 852Q838 878 827.5 895.0Q817 912 796.5 921.0Q776 930 748 930Q696 930 644.5 905.5Q593 881 544.0 838.5Q495 796 451.5 740.0Q408 684 371.5 620.5Q335 557 308.5 490.5Q282 424 267.5 361.0Q253 298 253 242Q253 195 270.0 163.0Q287 131 320.5 114.5Q354 98 402 98Q455 98 516.0 125.5Q577 153 639.0 202.5Q701 252 758.5 320.5Q816 389 862 470Q867 484 878.5 491.0Q890 498 912 498Q959 498 950 469L715 -255Q687 -342 647.0 -401.0Q607 -460 556.5 -489.5Q506 -519 447 -519Z" transform="translate(686.16, 72) scale(0.072, -0.072)" /></g></svg>