<svg width="107.7" height="40.88" viewBox="0 0 107.7 40.88" xmlns="http://www.w3.org/2000/svg"><path transform="translate(0 27.496) scale(.014 -.014)" d="m251-14q-44 0-44 28v1385q0 14 11.5 21t33.5 7h286q145 0 243.5-35.5t148.5-114 50-207.5q0-109-38-190.5t-104-137.5-151-89-180-46q-59-7-112-11.5t-100-6.5v-575q0-14-11-21t-33-7zm44 682q28 2 61.5 4t71.5 6 77 8q108 16 194 60.5t136.5 124 50.5 197.5q0 101-39 162t-116.5 89-192.5 28h-243z"/><path transform="translate(14.658 27.496) scale(.014 -.014)" d="m-57-17q-19 0-28 11.5t-9 26 9 26 28 11.5q33 0 64.5 20t62 57.5 58.5 91 53 121 47 147 39.5 168.5 29.5 186.5 18.5 201 6.5 210.5q0 18 13 27.5t30.5 9.5 30.5-9.5 13-27.5q0-114-8-223.5t-22.5-212.5-35.5-198-47.5-179.5-57.5-156-65.5-128.5-72-97-77-61.5-80.5-21.5zm278 0q-26 0-45 7t-30.5 20-17 32.5-5.5 43.5v1172q0 98 38 148.5t112 50.5q44 0 75-22.5t46-66 15-107.5q0-19-13-28t-30.5-9-30.5 9-13 28q0 39-5.5 65t-18 38.5-30.5 12.5q-20 0-33-12.5t-19.5-39-6.5-67.5v-1162q0-13 4-21.5t11-12.5 16-4 16.5 3 14.5 8.5 14 10.5q8 7 18 2.5t17-12.5q8-10 8.5-20t-4.5-19q-11-15-28-26t-36-16.5-39-5.5z"/><path transform="translate(20.174 27.496) scale(.014 -.014)" d="m258-17q-57 0-101 27.5t-69 83.5-25 141q0 52 9.5 96t28.5 79 46 59 62 37 77 13q32 0 66-10.5t64-27.5v5q0 15 11 22t33 7 32.5-6.5 10.5-20.5v-392q0-13 4-21.5t11-12.5 16-4q10 0 16.5 2.5t13 7.5 15.5 12q7 6 16 3.5t18-10.5q9-10 10-21t-4-19q-11-16-28-27t-36.5-17-39.5-6q-23 0-40 5t-29 15.5-18.5 25.5-9.5 34q0 1-1 4.5t-1 7.5q-23-37-49.5-57t-54.5-27.5-54-7.5zm-107 256q0-55 13-94.5t39.5-60.5 66.5-21q29 0 55.5 10t49.5 33 41 60v242q-31 19-60 25.5t-61 6.5q-26 0-48-8t-40-24-30.5-40-19-56-6.5-73z"/><path transform="translate(28.882 27.496) scale(.014 -.014)" d="m480-88q16 17 32.5 33.5t32 31 30 26.5 26.5 20q13 11 25.5 6.5t20-16.5 6.5-26-14-24q-12-9-28-23.5t-34.5-32.5-37.5-37-36-36zm-142-869q-51 0-88 23.5t-56.5 69-19.5 112.5q0 60 11 128t35 139.5 60 142.5 86 137q17 20 33.5 40.5t35.5 39.5v202q-13-22-30.5-39.5t-38.5-29.5-45.5-18.5-51.5-6.5q-58 0-97 20.5t-58.5 61-19.5 101.5v323q0 13 10.5 19.5t31.5 6.5q22 0 33-6.5t11-19.5v-323q0-35 11-59t33.5-36 55.5-12q28 0 52 9t43.5 24.5 34.5 37.5 25 47v312q0 13 10.5 19.5t32.5 6.5q21 0 32-6.5t11-19.5v-1212q0-55-12-98.5t-35-74-57.5-46-78.5-15.5zm6 75q22 0 39 11.5t29 31.5 17.5 49.5 5.5 66.5v483q-9-8-17-17.5t-15-20.5q-33-48-59-106t-44-120-27.5-125-9.5-122q0-40 9.5-70t27.5-45.5 44-15.5z"/><path transform="translate(37.842 27.496) scale(.014 -.014)" d="m273-17q-36 0-64.5 11.5t-48.5 34.5-30.5 57-10.5 80v203q0 42-13 56.5t-36 14.5q-17 0-28.5-9t-18-26-8.5-40q-1-16-9-23.5t-26-7.5q-16 0-26 7t-9 33q2 43 17.5 74.5t43 49 64.5 17.5q35 0 60.5-10t42-31 24.5-52 8-73v-183q0-35 8.5-59t27-36 47.5-12q20 0 42 7.5t41.5 26.5 31.5 52.5 12 84.5v259q0 12 10.5 19t32.5 7q23 0 33-7t10-19v-278q0-46 4.5-75t15-45.5 27.5-23 41-6.5q20 0 39.5 6t37 19.5 31 35.5 21.5 52.5 8 71.5q0 38-5.5 75t-17 72.5-30.5 67.5q-11 18-6 31t19 20 29 7q14 0 21-6t14-18q15-23 29.5-59.5t24.5-82.5 10-98q0-42-10-82.5t-29-75-47.5-60.5-65.5-41-83-15q-33 0-62 11t-50.5 33.5-34.5 57.5q-17-33-42-55t-55-33.5-62-11.5z"/><path transform="translate(50.274 27.496) scale(.014 -.014)" d="m-55-17q-19 0-28.5 11.5t-10 26 8.5 26 28 11.5q31 0 57 24t47 71.5 37 117.5 26 162l60-9q-9-112-27.5-195t-46.5-137.5-65.5-81.5-85.5-27zm515 0q-26 0-45 7t-31 20.5-18 34-6 46.5q0 28 2.5 64t5 74 5 72.5 2.5 59.5q0 39-9.5 53.5t-35.5 14.5q-28 0-64-10t-70-19.5-55-9.5q-18 0-34.5 19.5t-27.5 48-11 55.5q0 18 6 32t17.5 22 29.5 8q33 0 44-23t11-54q0-7 0-14t-1-15q12 0 39 11t62.5 22 71.5 11q40 0 65-15t36.5-46.5 11.5-82.5q0-23-2.5-58.5t-5-75-5-74.5-2.5-58q0-26 7.5-35.5t22.5-9.5q10 0 18 3t15.5 8.5 14.5 10.5q8 6 18 2t17-12q8-10 8.5-20t-4.5-19q-11-15-27.5-26t-36-16.5-39.5-5.5z"/><path transform="translate(58.226 27.496) scale(.014 -.014)" d="m193-17q-52 0-75.5 27t-23.5 76v403q0 13 10.5 19.5t31.5 6.5q22 0 33-6.5t11-19.5v-393q0-20 9-29t22-9q11 0 18.5 3.5t14 8.5 14.5 11q6 5 16.5 1t16.5-12q8-9 9-19t-5-18q-11-16-27.5-27t-36-17-38.5-6zm-55 686q-28 0-42.5 15.5t-14.5 46.5q0 32 14.5 48t42.5 16q27 0 41-16t14-48q1-31-13.5-46.5t-41.5-15.5z"/><path transform="translate(62.426 27.496) scale(.014 -.014)" d="m243-17q-42 0-69.5 15.5t-41 44-13.5 68.5v309h-78q-15 0-21 9t-6 31q0 23 6 31.5t21 8.5h78v204q0 13 10.5 19.5t31.5 6.5q22 0 33-6.5t11-19.5v-204h126q15 0 21.5-8.5t6.5-31.5q0-22-6.5-31t-21.5-9h-126v-299q0-34 9.5-48.5t34.5-14.5q23 0 39.5 11t34.5 27q12 11 22.5 7.5t19.5-12.5q11-10 11.5-20.5t-5.5-19.5q-17-25-38-40t-44-21.5-46-6.5z"/><path transform="translate(67.858 27.496) scale(.014 -.014)" d="m300-17q-40 0-77.5 17t-69 48-55 73.5-36.5 93-13 106.5q0 34 8 64.5t23 55 36 42 47 27 56 9.5q57 0 92.5-23t51.5-60.5 16-80.5q0-34-12.5-70t-34.5-70.5-51-66.5q-43-48-98-85.5t-116.5-58.5-126.5-21q-14 0-21 11.5t-5.5 26 12.5 26 33 11.5q46 0 94.5 18t92.5 48 75 65q22 25 37.5 51.5t23.5 53.5 8 52q0 53-20 73.5t-54 20.5q-17 0-31.5-7.5t-25.5-23-17-37.5-6-51q0-57 16.5-104.5t43.5-81.5 57.5-53 57.5-19q19 0 37 7.5t37.5 22.5 39.5 37q14 16 27 15.5t27-11.5 16.5-23-6.5-26q-25-38-58.5-60.5t-67.5-32-63-9.5z"/><path transform="translate(78.274 27.496) scale(.014 -.014)" d="m323-19q-54 0-100.5 16t-84.5 46-67 74q-10 16-8 30.5t18 26.5q19 14 32.5 11.5t25.5-18.5q40-49 87-75t101-26q63 0 106 29t64.5 86.5 21.5 145.5v1013q-19-19-47.5-31t-60.5-12q-27 0-51.5 6t-46.5 13.5-43.5 13-41.5 5.5q-26 0-46-13.5t-32-39.5-12-62q0-15-9.5-25t-34.5-10q-21 0-30.5 9.5t-9.5 25.5q0 60 21 104.5t60 69.5 90 25q32 0 57.5-6t48.5-13.5 44.5-13.5 44.5-6q31 0 51 14.5t38 30.5q15 16 27.5 22t26.5 6q22 0 33-6.5t11-20.5v-1100q0-115-32.5-191.5t-95.5-115-156-38.5z"/><path transform="translate(89.502 27.496) scale(.014 -.014)" d="m251 0q-44 0-44 28v1371q0 14 11 21t33 7h273q153 0 272-43.5t202-127 126-202 43-267.5q0-148-31.5-271t-92-219-148.5-162.5-202.5-100.5-252.5-34zm44 85h144q120 0 219.5 30.5t175.5 89 128.5 144 80 195.5 27.5 243q0 129-37 232t-107 175-171.5 110-230.5 38h-229z"/></svg>