<svg width="190.64" height="23.506" viewBox="0 0 190.64 23.506" xmlns="http://www.w3.org/2000/svg"><path transform="translate(0 18.074) scale(.014 -.014)" d="m106-14q-29 0-24 20l218 863q3 10 9.5 14.5t22.5 4.5h173q88 0 146.5-19.5t88.5-62 30-111.5q0-72-27.5-127t-76.5-93.5-117-62.5-150-34q-42-5-86-8t-85-4l-91-361q-3-10-9.5-14.5t-21.5-4.5zm134 430q27 1 55 2t56.5 4 54.5 6q94 13 162.5 45.5t106.5 86.5 38 131q0 54-23.5 86t-70.5 46.5-118 14.5h-155zm-240-794h707v-10h-707zm0 398h707v-20h-707zm0 485h707v-5h-707zm0 393h707v-10h-707z"/><path transform="translate(9.898 18.074) scale(.014 -.014)" d="m-154-17q-11 0-15 7.5t-2 16.5 9.5 16.5 18.5 7.5q25 0 59.5 18.5t75 51.5 84.5 77 88 95.5 86 107.5 77 113 62 111.5 42 103.5 15 87q0 11 8.5 16.5t19 5.5 19-5.5 8.5-16.5q0-40-16.5-91t-45-109-67-118.5-83.5-120.5-93.5-115-97.5-102-95-82.5-86-55-71-19.5zm317 1q-24 0-38.5 9.5t-21.5 26.5-6 40.5 9 51.5l146 590q27 106 65 155.5t92 49.5q31 0 51.5-15t30.5-40 10-56q0-12-8.5-18.5t-19-6.5-19 6.5-8.5 18.5q0 18-3.5 31.5t-13 21.5-24.5 8q-21 0-38.5-17t-33-54.5-32.5-99.5l-144-583q-6-23-6.5-39t5-24 17.5-8q16 0 32 10t30.5 26.5 26.5 33.5q5 7 11.5 8.5t14.5-4.5q10-6 11.5-12.5t-2.5-13.5q-12-21-32-43t-45.5-37.5-56.5-15.5zm-163-362h394v-10h-394zm0 398h394v-20h-394zm0 485h394v-5h-394zm0 393h394v-10h-394z"/><path transform="translate(15.414 18.074) scale(.014 -.014)" d="m182-17q-40 0-69 21t-45 59.5-16 92.5q0 47 12.5 97.5t38 98 62.5 85 85.5 60 108.5 22.5q32 0 66-9.5t64-28.5l4 16q3 10 10 14t19 4q17 0 22.5-6.5t2.5-18.5l-100-392q-5-22-5-36.5t6-22 18-7.5q15 0 30.5 9.5t30 25.5 26.5 34q5 8 11 9t15-5q10-6 11.5-12.5t-2.5-13.5q-12-21-31.5-43t-45-37.5-55.5-15.5q-22 0-36.5 8.5t-21.5 23-8 35 5 44.5q5 22 10 44.5t10 45.5q-39-71-79-115.5t-78.5-65-75.5-20.5zm-74 177q0-37 9.5-65.5t28.5-45 49-16.5q38 0 82 34t89 102.5 88 172.5l24 92q-36 22-66.5 29t-57.5 7q-47 0-85.5-19t-68.5-51.5-50.5-72.5-31-83-10.5-84zm-108-538h622v-10h-622zm0 398h622v-20h-622zm0 485h622v-5h-622zm0 393h622v-10h-622z"/><path transform="translate(24.122 18.074) scale(.014 -.014)" d="m422 11q19 12 38 23t38 21.5 36.5 19.5 33.5 17q12 5 19 1.5t9-12-1-17-12-13.5q-21-10-42-22t-42.5-24-43-25-43.5-27zm-234-418q-34 0-57.5 12.5t-36.5 34.5-13 50q0 32 13 60.5t37 55 58 53.5 78 55q30 19 59.5 38t59.5 38l54 216q-31-62-65.5-104.5t-68.5-68.5-66-37.5-59-11.5q-39 0-67 18.5t-36.5 58.5 7.5 103l84 331q3 11 9.5 15.5t20.5 4.5q15 0 21.5-5.5t3.5-17.5l-85-330q-11-42-9-70.5t17.5-43 45.5-14.5 66.5 19 76 61 78 109.5 73.5 163.5l26 108q3 11 9.5 15.5t19.5 4.5q16 0 22-6t2-19l-166-655q-13-53-32-97.5t-44.5-77-59.5-50-76-17.5zm7 49q28 0 51 14.5t42 41.5 34 63 26 80l21 86q-20-13-40.5-26.5t-40.5-26.5q-37-25-65-47.5t-47-43.5-28.5-42-9.5-43q0-16 6-28.5t19-20 32-7.5zm-195-20h640v-10h-640zm0 398h640v-20h-640zm0 485h640v-5h-640zm0 393h640v-10h-640z"/><path transform="translate(33.082 18.074) scale(.014 -.014)" d="m185-19q-36 0-59.5 13.5t-36 39-13 60 9.5 76.5l81 325q3 10 9.5 15t20.5 5q16 0 21.5-5.5t1.5-16.5l-82-328q-9-38-7.5-69t16.5-48.5 47-17.5q33 0 65.5 21.5t61.5 57 52 79.5 37 91l56 215q2 10 9 15t19 5q16 0 22-5.5t3-16.5l-75-298q-9-36-11.5-66t3.5-52 21.5-34 42.5-12q33 0 64 17.5t58.5 47 50 67 37.5 78.5 21 80q5 26 6 52t-3.5 54-16.5 58q-4 12-2 19.5t8.5 11.5 15.5 4q10 0 17-6.5t12-21.5q11-24 16-52t5-57-5-57q-6-46-23-94.5t-44-93-61.5-80-76-56-88.5-20.5q-38 0-64 16t-38 48-9 80q-25-44-56-76.5t-66-50-73-17.5zm-185-359h859v-10h-859zm0 398h859v-20h-859zm0 485h859v-5h-859zm0 393h859v-10h-859z"/><path transform="translate(45.108 18.074) scale(.014 -.014)" d="m94-15q-12 0-19.5 5t-4.5 15l99 396q9 34 4.5 51.5t-25.5 17.5q-17 0-35.5-12t-37.5-35-41-58q-6-8-12.5-10t-16.5 3q-11 6-12.5 13t3.5 15q22 39 47 69t54 46.5 60 16.5q24 0 39.5-8t23-23 8.5-36-4-47l-24-98q30 63 56.5 104.5t50.5 65 45.5 33.5 40.5 10q13 0 19.5-5t6.5-19q0-36 5-56.5t15-28.5 24-8q26 0 57.5 13t81.5 44q8 5 14.5 2t11-10 4-15-6.5-12q-48-33-88.5-49.5t-76.5-16.5q-23 0-42 10t-30 34-12 65q-22-5-47.5-28.5t-54.5-66-58.5-104.5-59.5-143l-32-121q-2-10-8.5-14.5t-21.5-4.5zm-94-363h551v-10h-551zm0 398h551v-20h-551zm0 485h551v-5h-551zm0 393h551v-10h-551z"/><path transform="translate(52.822 18.074) scale(.014 -.014)" d="m131-16q-42 0-58.5 32t1.5 97l94 382q3 11 9.5 15.5t19.5 4.5q16 0 22-5.5t4-17.5l-98-389q-10-35-6-53t23-18q15 0 30.5 10t30 26 26.5 34q5 7 11.5 8.5t14.5-4.5q10-6 11.5-12.5t-2.5-13.5q-14-24-34.5-46t-45.5-36-53-14zm112 699q-19 0-30 9.5t-11 29.5q0 24 14 42t40 18q19 0 30-10t11-30q0-23-14-41t-40-18zm-243-1061h300v-10h-300zm0 398h300v-20h-300zm0 485h300v-5h-300zm0 393h300v-10h-300z"/><path transform="translate(57.022 18.074) scale(.014 -.014)" d="m-101-17q-10 0-14 7.5t-3 16.5 7 16.5 17 7.5q29 0 69 31t86.5 83.5 95.5 120 97 142 91 148 78 138.5 57.5 114 29.5 73q3 12 10 16.5t20 4.5q16 0 21-5.5t3-16.5l-197-780q45 13 95 41.5t104 71.5 109 98q5 5 12.5 6.5t15.5-6.5q9-8 9-14.5t-5-12.5q-57-57-116.5-105t-118.5-81-117-46l-12-48q-2-9-9-13.5t-21-4.5q-13 0-19.5 5t-3.5 15l10 41q-28 0-54 7.5t-42.5 25-16.5 43.5 16.5 43 43.5 17q23 0 44-12t32-31l134 537q-34-69-78-146.5t-93-155.5-101-148-102.5-125.5-97.5-87-86-31.5zm336 141q0-13 11-20.5t27.5-10.5 32.5-2q-2 23-19.5 36t-33.5 13q-18 0-18-16zm-235-502h630v-10h-630zm0 398h630v-20h-630zm0 485h630v-5h-630zm0 393h630v-10h-630z"/><path transform="translate(65.842 18.074) scale(.014 -.014)" d="m254-18q-38 0-69 13.5t-54.5 37-39.5 55-24 67-8 72.5 8.5 77.5 26 78.5 43 69 60 49 77.5 18q34 0 57-13t34.5-36.5 11.5-55.5q0-46-23.5-92t-66-92.5-100.5-92.5q-55-46-113-80.5t-114-54-108-19.5q-9 0-13 7.5t-3 16.5 8 16.5 20 7.5q44 0 94.5 18.5t102.5 50.5 100 73q47 39 83.5 78.5t56.5 78.5 20 75q0 31-14 48t-43 17q-35 0-63-23t-47.5-59.5-29.5-78.5-10-81 9.5-75 28.5-63 47-43 64-16q38 0 71 16t61 39.5 49 45.5q8 9 16.5 8t15.5-8q7-6 9-14t-6-18q-24-30-59-57t-77.5-44-88.5-17zm-254-360h444v-10h-444zm0 398h444v-20h-444zm0 485h444v-5h-444zm0 393h444v-10h-444z"/><path transform="translate(76.258 18.074) scale(.014 -.014)" d="m109 0q-28 0-23 19l214 850q3 10 10 14.5t22 4.5h180q79 0 142.5-20t108.5-59 69-96.5 24-132.5q0-100-27-188.5t-77-160-120-123.5-156.5-80-185.5-28zm40 52h140q89 0 166 25t139.5 71.5 107.5 112 69.5 146 24.5 173.5q0 66-20.5 114.5t-58.5 80-90.5 46.5-115.5 15h-164zm-149-430h879v-10h-879zm0 398h879v-20h-879zm0 485h879v-5h-879zm0 393h879v-10h-879z"/><path transform="translate(88.564 18.074) scale(.014 -.014)" d="m325-19q-76 0-130 24.5t-83 70-29 108.5q0 50 18.5 96.5t51.5 85 78 65 99 37.5q-39 14-65.5 38.5t-40.5 58-14 71.5q0 45 14 85t40 73.5 61.5 57.5 80 37.5 94.5 13.5q49 0 93-13t78.5-36.5 56.5-54.5q8-11 7.5-20t-11.5-17q-10-8-19-6t-18 11q-22 26-52 44.5t-66.5 28-77.5 9.5q-49 0-89.5-16.5t-70.5-45-46.5-67-16.5-82.5 19-77.5 55.5-52 88.5-18.5h117q10 0 13.5-5.5t0.5-19.5q-3-12-9-18.5t-15-6.5h-117q-57 0-107.5-19.5t-89-54.5-60.5-80-22-97q0-50 22.5-84t66-51.5 103.5-17.5q50 0 96 17t88.5 50.5 79.5 82.5q9 12 18 13t20-7q10-7 9.5-16t-10.5-21q-42-58-91.5-96.5t-104-58-114.5-19.5zm-325-359h706v-10h-706zm0 398h706v-20h-706zm0 485h706v-5h-706zm0 393h706v-10h-706z"/><path transform="translate(102.65 18.074) scale(.014 -.014)" d="m319-19q-50 0-91.5 11t-75 29.5-58.5 40.5-40 43q-7 9-5.5 16t10.5 15q12 9 19 8t14-9q22-26 55-49t76.5-37 95.5-14q54 0 99 14t77.5 41 50.5 65 18 86q0 37-12.5 65t-36 49.5-55 40.5-71.5 39q-30 15-58.5 31.5t-53 36-43 44-29 56-10.5 71.5q0 51 19.5 93.5t55.5 72.5 85 46.5 107 16.5q52 0 96-14t79.5-38 62.5-54q8-9 6.5-16.5t-10.5-15.5q-8-7-16-7t-17 7q-25 24-54.5 43.5t-65.5 30.5-83 11q-45 0-83.5-12t-66-35-43-55.5-15.5-73.5q0-37 12-64.5t33.5-49 52-40 68.5-38.5q40-21 76.5-42.5t65.5-48.5 45.5-63 16.5-86q0-57-22.5-105t-63.5-83-96.5-54-120.5-19zm-319-359h696v-10h-696zm0 398h696v-20h-696zm0 485h696v-5h-696zm0 393h696v-10h-696z"/><path transform="translate(112.39 18.074) scale(.014 -.014)" d="m123-17q-25 0-46 7.5t-37 17.5-26 19q-7 7-7.5 15.5t8.5 19.5q9 10 16.5 10.5t14.5-5.5q15-13 34.5-22.5t43.5-9.5q20 0 42 7.5t48 27.5 58 58.5 72 100 90.5 151 113 212 138.5 284.5q6 14 16 20.5t25 6.5q17 0 26-7t8-22q-5-61-7.5-123.5t-4-126.5-1-129 3-130.5 6.5-131.5q6-57 13.5-95.5t17.5-61 24-32.5 31-10q26 0 51.5 23.5t50 68.5 44.5 109q4 10 10.5 13t19.5 0q12-4 17-11t2-17q-25-77-56-129.5t-67-80-77-27.5q-29 0-51 12.5t-38 40.5-25.5 72.5-15.5 107.5q-1 20-2 39.5t-1 38.5h-259q-48-81-88-136.5t-73-90-61-53-53-25-49-6.5zm351 359h230q-3 75-4 152.5t0 154.5 4 152q-67-146-124-260t-106-199zm-474-720h1066v-10h-1066zm0 398h1066v-20h-1066zm0 485h1066v-5h-1066zm0 393h1066v-10h-1066z"/><path transform="translate(127.32 18.074) scale(.014 -.014)" d="m319-19q-50 0-91.5 11t-75 29.5-58.5 40.5-40 43q-7 9-5.5 16t10.5 15q12 9 19 8t14-9q22-26 55-49t76.5-37 95.5-14q54 0 99 14t77.5 41 50.5 65 18 86q0 37-12.5 65t-36 49.5-55 40.5-71.5 39q-30 15-58.5 31.5t-53 36-43 44-29 56-10.5 71.5q0 51 19.5 93.5t55.5 72.5 85 46.5 107 16.5q52 0 96-14t79.5-38 62.5-54q8-9 6.5-16.5t-10.5-15.5q-8-7-16-7t-17 7q-25 24-54.5 43.5t-65.5 30.5-83 11q-45 0-83.5-12t-66-35-43-55.5-15.5-73.5q0-37 12-64.5t33.5-49 52-40 68.5-38.5q40-21 76.5-42.5t65.5-48.5 45.5-63 16.5-86q0-57-22.5-105t-63.5-83-96.5-54-120.5-19zm-319-359h696v-10h-696zm0 398h696v-20h-696zm0 485h696v-5h-696zm0 393h696v-10h-696z"/><path transform="translate(141.26 18.074) scale(.014 -.014)" d="m472-407q-33 0-57 12.5t-37.5 36-13.5 57.5q0 35 17 70.5t48 72 74.5 75 94.5 79.5q56 45 110 85t102 73.5 85 58.5q10 6 17.5 5t14.5-12q6-11 3.5-18.5t-12.5-13.5q-45-29-96.5-66t-106-78.5-108.5-84.5q-44-36-79-68.5t-59-62-36.5-57.5-12.5-55q0-29 14.5-44t42.5-15q47 0 83 47.5t58 136.5l105 435q-34-60-73.5-106t-83.5-78-90.5-48.5-95.5-16.5q-61 0-110 22t-83.5 63.5-53 100-18.5 131.5q0 78 18 151t50.5 137 77.5 116.5 100.5 90 118.5 58 130 20.5q57 0 104.5-13t87-35.5 69.5-51.5q7-7 7-15t-10-18q-10-9-18-8t-17 8q-31 24-65.5 42t-74 28-87.5 10q-58 0-113-19t-103.5-53.5-88-82.5-68-106-44.5-123.5-16-135.5q0-62 15-111.5t42.5-83 66-51.5 88.5-18q46 0 96.5 21.5t101.5 66.5 99 115.5 88 168.5q3 11 10.5 15.5t21.5 4.5q29 0 24-19l-154-612q-18-77-46.5-129t-66.5-78.5-87-26.5zm-472 29h955v-10h-955zm0 398h955v-20h-955zm0 485h955v-5h-955zm0 393h955v-10h-955z"/><path transform="translate(154.63 18.074) scale(.014 -.014)" d="m181-17q-40 0-68 19t-36.5 58.5 7.5 102.5l84 332q3 11 9.5 15.5t20.5 4.5q15 0 21.5-5.5t3.5-17.5l-85-331q-11-42-9-70.5t17.5-43 46.5-14.5 67.5 19.5 75.5 61 77 109 73 164.5l26 108q3 13 9.5 17t20.5 4q15 0 21.5-5.5t3.5-16.5l-99-392q-6-24-7-39.5t5-23.5 19-8q16 0 31.5 10.5t29.5 26 26 33.5q5 8 12 9t16-5 10.5-12.5-2.5-13.5q-12-20-32-42.5t-45.5-38-55.5-15.5q-23 0-37.5 8.5t-21.5 24-7 37.5 7 49l24 104q-31-62-65-104.5t-68.5-68.5-66.5-38-59-12zm-181-361h646v-10h-646zm0 398h646v-20h-646zm0 485h646v-5h-646zm0 393h646v-10h-646z"/><path transform="translate(163.67 18.074) scale(.014 -.014)" d="m131-16q-42 0-58.5 32t1.5 97l94 382q3 11 9.5 15.5t19.5 4.5q16 0 22-5.5t4-17.5l-98-389q-10-35-6-53t23-18q15 0 30.5 10t30 26 26.5 34q5 7 11.5 8.5t14.5-4.5q10-6 11.5-12.5t-2.5-13.5q-14-24-34.5-46t-45.5-36-53-14zm112 699q-19 0-30 9.5t-11 29.5q0 24 14 42t40 18q19 0 30-10t11-30q0-23-14-41t-40-18zm-243-1061h300v-10h-300zm0 398h300v-20h-300zm0 485h300v-5h-300zm0 393h300v-10h-300z"/><path transform="translate(167.87 18.074) scale(.014 -.014)" d="m183-17q-40 0-69 21t-45 59.5-16 92.5q0 47 12.5 97.5t37.5 97.5 62.5 85 86 60.5 108.5 22.5q33 0 67.5-9.5t64.5-29.5l102 403q3 11 9.5 15.5t20.5 4.5q16 0 21.5-6.5t2.5-18.5l-198-778q-8-33-3.5-50.5t23.5-17.5q15 0 30 10t29.5 26 26.5 34q6 8 12 9t14-5q11-6 12.5-12.5t-2.5-13.5q-14-24-34.5-46t-45-36-52.5-14-44.5 12.5-21 38 3.5 62.5q5 22 10 44t10 43q-39-71-79.5-115.5t-79.5-65-76-20.5zm-74 177q0-37 9.5-65.5t28.5-45 48-16.5q39 0 83 33.5t90 102 89 173.5l24 92q-37 22-68 29t-58 7q-47 0-85.5-19t-68.5-51-50.5-72.5-31-83.5-10.5-84zm-109-538h632v-10h-632zm0 398h632v-20h-632zm0 485h632v-5h-632zm0 393h632v-10h-632z"/><path transform="translate(176.72 18.074) scale(.014 -.014)" d="m254-18q-38 0-69 13.5t-54.5 37-39.5 55-24 67-8 72.5 8.5 77.5 26 78.5 43 69 60 49 77.5 18q34 0 57-13t34.5-36.5 11.5-55.5q0-46-23.5-92t-66-92.5-100.5-92.5q-55-46-113-80.5t-114-54-108-19.5q-9 0-13 7.5t-3 16.5 8 16.5 20 7.5q44 0 94.5 18.5t102.5 50.5 100 73q47 39 83.5 78.5t56.5 78.5 20 75q0 31-14 48t-43 17q-35 0-63-23t-47.5-59.5-29.5-78.5-10-81 9.5-75 28.5-63 47-43 64-16q38 0 71 16t61 39.5 49 45.5q8 9 16.5 8t15.5-8q7-6 9-14t-6-18q-24-30-59-57t-77.5-44-88.5-17zm-254-360h444v-10h-444zm0 398h444v-20h-444zm0 485h444v-5h-444zm0 393h444v-10h-444z"/><path transform="translate(182.94 18.074) scale(.014 -.014)" d="m-154-17q-11 0-15 7.5t-2.5 16.5 9 16.5 19.5 7.5q35 0 77 30t90.5 88.5 103.5 145 116 199.5l31-15q-63-125-120-218.5t-109.5-155-102-92-97.5-30.5zm386-2q-43 0-82 12.5t-64 31.5q-9 8-9 16.5t8 16.5q9 9 15.5 9t17.5-7q26-16 54.5-24.5t59.5-8.5q58 0 89.5 30.5t31.5 84.5q0 27-9 52.5t-23 50-30 50.5-30.5 54-23.5 60.5-9 70.5 15.5 56 36.5 18q14 0 21-7.5t7-17.5q0-13-9-29.5t-27-39.5q3-34 14-61.5t26.5-52 32-47.5 31-47 23.5-51 9-60q0-73-47-116.5t-129-43.5zm-232-359h550v-10h-550zm0 398h550v-20h-550zm0 485h550v-5h-550zm0 393h550v-10h-550z"/></svg>