<svg width="104.87" height="31.248" viewBox="0 0 104.87 31.248" xmlns="http://www.w3.org/2000/svg"><path transform="translate(0 22.274) scale(.014 -.014)" d="m500 436q-17-1-26 10t-9 28q0 18 6.5 27.5t22.5 10.5q72 3 132.5 20t109 46 82 68.5 51 89 17.5 106.5q0 54-22 96.5t-64 70.5-102 42.5-135 14.5q-100 0-181-19.5t-146-59.5-117-99q-11-12-24.5-13.5t-28.5 9.5q-16 13-17.5 26.5t9.5 26.5q40 51 93 90t117.5 66 139.5 41 160 14q99 0 175.5-20.5t128.5-59.5 79-96 27-129q0-70-21.5-130t-63-109.5-100-85-132.5-57-161-25.5zm-271-454q-46 0-83 17.5t-62.5 42.5-39.5 46q-11 18-10 32t17 25q18 11 30.5 8t25.5-19q18-21 36.5-36t40-23.5 48.5-8.5q46 0 67 36.5t21 112.5v716q0 14 11 20.5t33 6.5 33-6.5 11-20.5v-724q0-69-20-119.5t-59.5-78-99.5-27.5z"/><path transform="translate(14.28 22.274) scale(.014 -.014)" d="m-57-17q-19 0-28 11.5t-9 26 9 26 28 11.5q31 0 61 16t59 46.5 56 73 51 95.5 44.5 114 37.5 129 28.5 141 17.5 149 6 152q0 16 13 24t30.5 8 30.5-8 13-24q0-78-8-157t-22.5-156.5-34.5-151-45.5-141-55.5-126-63-106.5-69-82-73.5-52.5-76.5-18.5zm278 0q-26 0-45 7t-30.5 20-17 32.5-5.5 43.5v873q0 97 34.5 145t102.5 48q44 0 73-20t43.5-59.5 14.5-98.5q0-19-13-28t-30.5-9-30.5 9-13 28q0 34-5 55.5t-15 32-26 10.5-27-11-16.5-35.5-5.5-66.5v-863q0-13 4-21.5t11-12.5 16-4 16.5 3 14.5 8.5 14 10.5q8 7 18 2.5t17-12.5q8-10 8.5-20t-4.5-19q-11-15-28-26t-36-16.5-39-5.5z"/><path transform="translate(19.796 22.274) scale(.014 -.014)" d="m258-17q-57 0-101 27.5t-69 83.5-25 141q0 52 9.5 96t28.5 79 46 59 62 37 77 13q32 0 66-10.5t64-27.5v5q0 15 11 22t33 7 32.5-6.5 10.5-20.5v-392q0-13 4-21.5t11-12.5 16-4q10 0 16.5 2.5t13 7.5 15.5 12q7 6 16 3.5t18-10.5q9-10 10-21t-4-19q-11-16-28-27t-36.5-17-39.5-6q-23 0-40 5t-29 15.5-18.5 25.5-9.5 34q0 1-1 4.5t-1 7.5q-23-37-49.5-57t-54.5-27.5-54-7.5zm-107 256q0-55 13-94.5t39.5-60.5 66.5-21q29 0 55.5 10t49.5 33 41 60v242q-31 19-60 25.5t-61 6.5q-26 0-48-8t-40-24-30.5-40-19-56-6.5-73z"/><path transform="translate(28.504 22.274) scale(.014 -.014)" d="m515-20q16 13 31 25.5t29.5 23.5 27.5 20 24 16q14 8 25.5 3t17.5-17.5 3.5-26.5-15.5-22q-12-8-27.5-20t-33-26-34.5-28.5-34-27.5zm-162-632q-72 0-114 42t-42 120q0 39 9.5 79.5t29.5 83 50 85 70 83.5q17 17 34 33t34.5 32 35.5 30v140q-13-21-30.5-38.5t-39-29.5-45.5-18.5-51-6.5q-58 0-97 20.5t-58.5 61-19.5 101.5v203q0 42-13 56.5t-36 14.5q-17 0-28.5-9t-18-26-8.5-40q-1-16-9-23.5t-26-7.5q-16 0-26 7t-9 33q2 43 17.5 74.5t43 49 64.5 17.5q35 0 60.5-10t42-31 24.5-52 8-73v-183q0-35 11-59t33.5-36 55.5-12q28 0 52 9t43.5 25 34.5 38 25 47v311q0 13 10.5 19.5t32.5 6.5q21 0 32-6.5t11-19.5v-888q0-60-13.5-107t-38.5-79.5-61-49.5-80-17zm5 77q33 0 55.5 20.5t34.5 60.5 12 97v237q-13-10-24-19t-20.5-18-19.5-19q-27-31-47-64.5t-34.5-68-21.5-69-7-67.5q0-28 8-48.5t24-31 40-10.5z"/><path transform="translate(37.814 22.274) scale(.014 -.014)" d="m273-17q-36 0-64.5 11.5t-48.5 34.5-30.5 57-10.5 80v203q0 42-13 56.5t-36 14.5q-17 0-28.5-9t-18-26-8.5-40q-1-16-9-23.5t-26-7.5q-16 0-26 7t-9 33q2 43 17.5 74.5t43 49 64.5 17.5q35 0 60.5-10t42-31 24.5-52 8-73v-183q0-35 8.5-59t27-36 47.5-12q20 0 42 7.5t41.5 26.5 31.5 52.5 12 84.5v259q0 12 10.5 19t32.5 7q23 0 33-7t10-19v-278q0-46 4.5-75t15-45.5 27.5-23 41-6.5q20 0 39.5 6t37 19.5 31 35.5 21.5 52.5 8 71.5q0 38-5.5 75t-17 72.5-30.5 67.5q-11 18-6 31t19 20 29 7q14 0 21-6t14-18q15-23 29.5-59.5t24.5-82.5 10-98q0-42-10-82.5t-29-75-47.5-60.5-65.5-41-83-15q-33 0-62 11t-50.5 33.5-34.5 57.5q-17-33-42-55t-55-33.5-62-11.5z"/><path transform="translate(50.246 22.274) scale(.014 -.014)" d="m-55-17q-19 0-28.5 11.5t-10 26 8.5 26 28 11.5q31 0 57 24t47 71.5 37 117.5 26 162l60-9q-9-112-27.5-195t-46.5-137.5-65.5-81.5-85.5-27zm515 0q-26 0-45 7t-31 20.5-18 34-6 46.5q0 28 2.5 64t5 74 5 72.5 2.5 59.5q0 39-9.5 53.5t-35.5 14.5q-28 0-64-10t-70-19.5-55-9.5q-18 0-34.5 19.5t-27.5 48-11 55.5q0 18 6 32t17.5 22 29.5 8q33 0 44-23t11-54q0-7 0-14t-1-15q12 0 39 11t62.5 22 71.5 11q40 0 65-15t36.5-46.5 11.5-82.5q0-23-2.5-58.5t-5-75-5-74.5-2.5-58q0-26 7.5-35.5t22.5-9.5q10 0 18 3t15.5 8.5 14.5 10.5q8 6 18 2t17-12q8-10 8.5-20t-4.5-19q-11-15-27.5-26t-36-16.5-39.5-5.5z"/><path transform="translate(58.198 22.274) scale(.014 -.014)" d="m193-17q-52 0-75.5 27t-23.5 76v403q0 13 10.5 19.5t31.5 6.5q22 0 33-6.5t11-19.5v-393q0-20 9-29t22-9q11 0 18.5 3.5t14 8.5 14.5 11q6 5 16.5 1t16.5-12q8-9 9-19t-5-18q-11-16-27.5-27t-36-17-38.5-6zm-55 686q-28 0-42.5 15.5t-14.5 46.5q0 32 14.5 48t42.5 16q27 0 41-16t14-48q1-31-13.5-46.5t-41.5-15.5z"/><path transform="translate(62.398 22.274) scale(.014 -.014)" d="m243-17q-42 0-69.5 15.5t-41 44-13.5 68.5v309h-78q-15 0-21 9t-6 31q0 23 6 31.5t21 8.5h78v204q0 13 10.5 19.5t31.5 6.5q22 0 33-6.5t11-19.5v-204h126q15 0 21.5-8.5t6.5-31.5q0-22-6.5-31t-21.5-9h-126v-299q0-34 9.5-48.5t34.5-14.5q23 0 39.5 11t34.5 27q12 11 22.5 7.5t19.5-12.5q11-10 11.5-20.5t-5.5-19.5q-17-25-38-40t-44-21.5-46-6.5z"/><path transform="translate(67.83 22.274) scale(.014 -.014)" d="m300-17q-40 0-77.5 17t-69 48-55 73.5-36.5 93-13 106.5q0 34 8 64.5t23 55 36 42 47 27 56 9.5q57 0 92.5-23t51.5-60.5 16-80.5q0-34-12.5-70t-34.5-70.5-51-66.5q-43-48-98-85.5t-116.5-58.5-126.5-21q-14 0-21 11.5t-5.5 26 12.5 26 33 11.5q46 0 94.5 18t92.5 48 75 65q22 25 37.5 51.5t23.5 53.5 8 52q0 53-20 73.5t-54 20.5q-17 0-31.5-7.5t-25.5-23-17-37.5-6-51q0-57 16.5-104.5t43.5-81.5 57.5-53 57.5-19q19 0 37 7.5t37.5 22.5 39.5 37q14 16 27 15.5t27-11.5 16.5-23-6.5-26q-25-38-58.5-60.5t-67.5-32-63-9.5z"/><path transform="translate(78.246 22.274) scale(.014 -.014)" d="m563-19q-105 0-189.5 42.5t-144.5 120.5-92 185-32 236q0 86 14.5 162t43 141.5 69 116.5 92.5 88 114 56 132 19q59 0 116.5-16t109.5-52 94-98q10-15 7.5-25.5t-17.5-22.5q-14-12-25-13t-23 12q-53 64-117.5 97t-144.5 33q-54 0-103-15.5t-90.5-45-74.5-73-56.5-98.5-35.5-122-12-144q0-116 26.5-209t75-157.5 115.5-98.5 148-34q42 0 80 11t73 31 66 49 60 65q12 15 25 15t27-13q14-11 15.5-23t-8.5-26q-46-67-100.5-110t-114.5-63.5-123-20.5z"/><path transform="translate(91.546 22.274) scale(.014 -.014)" d="m164-21q-43 0-75.5 14t-50.5 41-18 65q0 40 18 71t50 48.5 73 17.5 76-12 68-30 66-38.5 69.5-38.5 78.5-29.5 94-11.5q60 0 106 21t77 57.5 45 82.5q6 17 18.5 22t30.5 0q19-5 24.5-16t0.5-31q-18-65-61-115t-104.5-77.5-135.5-27.5-129.5 16.5-99 41-80.5 48.5-72.5 40.5-75.5 16.5q-25 0-38-14t-13-35q0-22 16.5-35t39.5-13q47 0 74.5 45t27.5 121v611q0 76 18 134.5t52.5 98 85.5 60 118 20.5q63 0 111.5-21.5t83-64.5 52.5-108q7-22 1.5-35t-24.5-18q-22-7-34-0.5t-19 26.5q-14 45-37 76t-56.5 47-79.5 16q-45 0-79.5-14t-58-42.5-35.5-72.5-12-102v-611q0-75-23-130.5t-64.5-85-99.5-29.5z"/></svg>