<svg width="160.5" height="26.096" viewBox="0 0 160.5 26.096" xmlns="http://www.w3.org/2000/svg"><path transform="translate(0 19.474) scale(.014 -.014)" d="m483 383q-14-1-19.5 5.5t-3.5 18.5q1 12 8 18.5t19 6.5q73 2 141.5 15t127.5 38 103.5 62 70 87 25.5 114q0 49-21.5 84.5t-58.5 58-86 33-104 10.5q-77 0-145.5-13t-130.5-40.5-120-70.5q-11-9-20-6.5t-17 11.5q-6 9-5 18.5t12 16.5q45 34 94 59.5t102.5 42 112 25 121.5 8.5q72 0 131-15t102-45 66.5-73.5 23.5-101.5q0-74-28-132t-78.5-101-117.5-72-144.5-44-160.5-18zm-347-400q-34 0-62.5 13.5t-48.5 38.5-32 60q-3 10 0.5 18t13.5 12q11 5 18.5 2t12.5-13q13-31 29-48.5t35-24 40-6.5q39 0 68.5 33.5t55.5 111.5l208 635q3 11 10.5 15.5t22.5 4.5q14 0 20-4.5t2-15.5l-209-640q-20-62-46-105.5t-59.5-65-78.5-21.5zm-136-443h907v-10h-907zm0 480h907v-20h-907zm0 485h907v-5h-907zm0 475h907v-10h-907z"/><path transform="translate(12.698 19.474) scale(.014 -.014)" d="m132-16q-49 0-68.5 36t4.5 110l272 834q5 12 11 16.5t20 4.5q17 0 23-6t2-18l-277-846q-14-42-8-63t29-21q17 0 33 9.5t29.5 24 23.5 29.5q4 7 11 10t18-4q11-6 12-13.5t-4-15.5q-13-21-32-41t-43.5-33-55.5-13zm-132-444h299v-10h-299zm0 480h299v-20h-299zm0 485h299v-5h-299zm0 475h299v-10h-299z"/><path transform="translate(16.884 19.474) scale(.014 -.014)" d="m187-17q-42 0-72 20t-46.5 56.5-16.5 86.5q0 45 12.5 96.5t38.5 100.5 64.5 89 90.5 63.5 118 23.5q33 0 68-11t63-31l6 18q4 12 10.5 16t19.5 4q19 0 23.5-7.5t0.5-19.5l-124-377q-7-25-7-43t8-27.5 23-9.5q17 0 32.5 9t28.5 23.5 22 29.5q5 7 12.5 10.5t17.5-3.5q12-6 12.5-14t-4.5-15q-11-20-29.5-40t-43-34-55.5-14q-22 0-38 7t-25.5 20-12.5 31 0 40q3 10 5.5 19.5t5.5 18.5q-38-52-75.5-82t-71.5-42-61-12zm-77 167q0-35 10-61.5t30-41 52-14.5q35 0 73.5 22.5t78 69 78.5 118.5l61 190q-35 22-64 29.5t-57 7.5q-54 0-96.5-21t-73.5-55-51.5-76.5-30.5-86-10-81.5zm-110-610h622v-10h-622zm0 480h622v-20h-622zm0 485h622v-5h-622zm0 475h622v-10h-622z"/><path transform="translate(25.592 19.474) scale(.014 -.014)" d="m187-16q-47 0-78.5 21t-39.5 63.5 13 107.5l104 318q4 12 10.5 16.5t19.5 4.5q17 0 23-6t2-18l-106-324q-14-42-12-72.5t21-46 57-15.5q28 0 60.5 12.5t66 39.5 66 70 61.5 104l76 235q4 12 10.5 16.5t19.5 4.5q18 0 23-7.5t1-19.5l-242-743q-26-81-57.5-133t-75.5-76.5-110-24.5q-41 0-73.5 12.5t-56.5 35-39 53.5q-5 11-4 19t14 15 20 5.5 12-10.5q22-46 54-63.5t78-17.5q49 0 82 20t57.5 61.5 45.5 106.5l122 379q-28-41-58-68.5t-59.5-44-57-23.5-50.5-7zm-187-444h628v-10h-628zm0 480h628v-20h-628zm0 485h628v-5h-628zm0 475h628v-10h-628z"/><path transform="translate(34.384 19.474) scale(.014 -.014)" d="m184-19q-42 0-68 15t-38 43-11 65 15 80l102 310q4 12 10.5 16.5t19.5 4.5q17 0 22-5.5t0-17.5l-99-308q-15-44-15.5-79t16-55 53.5-20q28 0 56.5 12.5t55.5 37 50 58.5 38 79l91 277q4 12 11 16.5t19 4.5q17 0 22-5.5t1-17.5l-92-284q-13-39-18-71.5t0-56.5 22.5-37 49.5-13q35 0 67 16t59 43.5 48.5 62.5 36.5 73 22 74q7 31 9.5 62t-2 62-15.5 60q-4 12-1 20t10 12 15 4q11 0 17-6t11-23q11-27 15.5-59t3-66-9.5-67q-8-42-25.5-86.5t-43.5-85.5-60-74-75.5-52-89.5-19q-37 0-63.5 13.5t-40.5 38.5-15 62q-23-38-54-63.5t-65-38-67-12.5zm-184-441h859v-10h-859zm0 480h859v-20h-859zm0 485h859v-5h-859zm0 475h859v-10h-859z"/><path transform="translate(46.41 19.474) scale(.014 -.014)" d="m50-15q-12 0-19.5 5t-2.5 17l157 487q5 12 11.5 16.5t19.5 4.5q16 0 21.5-6.5t1.5-18.5l-37-116q28 42 56.5 70t56 44.5 53 23.5 48.5 7q29 0 53.5-9t35.5-21q7-6 6.5-13t-8.5-18q-9-11-16-13t-14 2q-13 9-30.5 15.5t-40.5 6.5q-28 0-58-13t-61.5-40-63-70.5-60.5-104.5l-78-237q-3-10-10-14.5t-21-4.5zm-50-445h454v-10h-454zm0 480h454v-20h-454zm0 485h454v-5h-454zm0 475h454v-10h-454z"/><path transform="translate(52.766 19.474) scale(.014 -.014)" d="m131-16q-49 0-69 35.5t4 110.5l119 364q5 12 11 16.5t20 4.5q17 0 23-6t2-18l-123-376q-14-43-8-63.5t28-20.5q17 0 33 9.5t29.5 24 23.5 29.5q4 7 11 10t18-4q11-6 12-13.5t-4-15.5q-13-21-32-41t-43.5-33-54.5-13zm142 699q-17 0-28.5 9t-11.5 27q0 24 15 43.5t42 19.5q18 0 29.5-9t11.5-28q0-23-14.5-42.5t-43.5-19.5zm-273-1143h300v-10h-300zm0 480h300v-20h-300zm0 485h300v-5h-300zm0 475h300v-10h-300z"/><path transform="translate(56.966 19.474) scale(.014 -.014)" d="m168-16q-38 0-59.5 17t-24 52.5 14.5 89.5l101 309h-84q-11 0-13.5 6.5t0.5 18.5q4 12 10 17.5t17 5.5h85l68 209q4 12 10.5 16.5t20.5 4.5q17 0 23-6t1-18l-67-206h128q11 0 13-6t-1-18q-4-13-10-18.5t-17-5.5h-128l-107-326q-16-51-7-73t35-22q31 0 58.5 21.5t45.5 49.5q4 7 11.5 10.5t17.5-3.5q11-6 12-13.5t-3-15.5q-14-25-36-47t-50.5-35.5-64.5-13.5zm-168-444h388v-10h-388zm0 480h388v-20h-388zm0 485h388v-5h-388zm0 475h388v-10h-388z"/><path transform="translate(62.398 19.474) scale(.014 -.014)" d="m233-19q-60 0-98 25.5t-56 68.5-18 97q0 67 22.5 129t63.5 111.5 98 78 128 28.5q47 0 78-14t45.5-37.5 14.5-54.5q0-46-23.5-81t-64.5-60-94-40.5-112-23.5-119-10l13 45q51 2 100.5 9t93 20 77.5 31.5 53 43.5 19 56q0 34-22.5 50.5t-65.5 16.5q-58 0-104.5-26t-78.5-69-49-95.5-17-106.5q0-49 15.5-80.5t43-47 63.5-15.5q38 0 68 13t54 32.5 43 37.5q10 8 17.5 7t14.5-8 9-15.5-7-17.5q-23-24-55-47t-69.5-37-80.5-14zm-233-441h526v-10h-526zm0 480h526v-20h-526zm0 485h526v-5h-526zm0 475h526v-10h-526z"/><path transform="translate(73.962 19.474) scale(.014 -.014)" d="m140-17q-36 0-61.5 16t-39.5 43.5-14 61.5q0 47 21.5 97t55.5 98q8 11 15 12t19-5q12-7 13.5-14t-4.5-18q-28-42-46-84t-18-81q0-21 7-37.5t22-26.5 36-10q26 0 49.5 14t48 45.5 50.5 83.5 55 128 63 179l152 470q4 11 12 15.5t20 4.5q13 0 20-5.5t10-17.5l174-852 186 569q28 84 55.5 144t57.5 98 66 56 80 18q26 0 52-6.5t50-18 44-27.5q11-8 12.5-16.5t-6.5-19.5q-7-10-15.5-11t-19.5 6q-28 19-58.5 30t-62.5 11q-33 0-60-16t-50-49.5-45.5-85.5-46.5-125l-214-651q-3-10-11-15t-21-5q-9 0-15 2.5t-9.5 8.5-6.5 18l-172 848-126-389q-37-114-70-198t-64-140.5-61.5-90-62-48-66.5-14.5zm-140-443h1199v-10h-1199zm0 480h1199v-20h-1199zm0 485h1199v-5h-1199zm0 475h1199v-10h-1199z"/><path transform="translate(90.748 19.474) scale(.014 -.014)" d="m461-19q-71 0-128 23.5t-97.5 68-62.5 108.5-22 146q0 73 17 150t49.5 150.5 79.5 138 108 114 135 77.5 158 28q72 0 129-23t97-65.5 61.5-103.5 21.5-138q0-74-17-152.5t-49.5-154-80-142-108-117-133.5-79.5-158-29zm7 54q73 0 137.5 26.5t118 73.5 95 108 70.5 130 44 140 15 138q0 68-17 120.5t-50.5 88-81 54-107.5 18.5q-73 0-137-25.5t-118-70.5-96-103.5-71.5-126-44.5-138-15-137.5q0-71 17.5-126t50.5-93 81-57.5 109-19.5zm-468-495h1003v-10h-1003zm0 480h1003v-20h-1003zm0 485h1003v-5h-1003zm0 475h1003v-10h-1003z"/><path transform="translate(108.99 19.474) scale(.014 -.014)" d="m445-489q-34 0-60 13t-40.5 37.5-14.5 59.5q0 45 24.5 90.5t68 90 99.5 88.5 119 86q63 43 120 79t106.5 65.5 89.5 51.5q10 6 17.5 4.5t12.5-12.5q6-11 3.5-18.5t-13.5-13.5q-49-28-104.5-61.5t-113.5-71-118-78.5q-60-42-107.5-81t-80-76-49.5-71.5-17-68.5q0-30 17-46.5t46-16.5q55 0 98.5 51.5t76.5 152.5l164 511q-41-63-85-112t-91-82.5-97-50.5-103-17q-59 0-108.5 21.5t-85.5 61.5-55 98.5-19 132.5q0 87 20 168.5t57 155 88.5 134.5 114 105.5 133.5 69 147 24.5q57 0 107-13t90.5-39 69.5-63q7-7 6-15t-12-17q-10-8-18.5-6.5t-18.5 11.5q-30 31-65 50.5t-75 29-87 9.5q-67 0-129.5-22.5t-118.5-64-102-98-79.5-123.5-51.5-141.5-18-153.5q0-63 15.5-112t44.5-82.5 69-50.5 88-17q55 0 110.5 24.5t110.5 73 107.5 123 100.5 173.5q4 11 12 15.5t22 4.5q29 0 22-20l-225-697q-27-84-61.5-140t-77-84.5-96.5-28.5zm-445 29h1025v-10h-1025zm0 480h1025v-20h-1025zm0 485h1025v-5h-1025zm0 475h1025v-10h-1025z"/><path transform="translate(123.34 19.474) scale(.014 -.014)" d="m186-17q-47 0-79 21.5t-40 64 13 106.5l104 319q5 12 11.5 16.5t19.5 4.5q17 0 23-6t2-18l-107-324q-14-42-12-72.5t21.5-46 57.5-15.5q28 0 60.5 12.5t66.5 40 66.5 71 61.5 105.5l75 233q4 13 10 17t19 4q17 0 23.5-5.5t2.5-17.5l-124-380q-8-26-9-45t7-28 24-9 32 9.5 29.5 24 23.5 28.5q4 8 11 11t18-4q11-6 12-13.5t-4-15.5q-12-20-30.5-40t-43.5-34-55-14q-24 0-40.5 8t-25.5 22.5-10 35.5 4 48l11 35q-28-42-58-71t-60.5-46-58.5-24.5-52-7.5zm-186-443h646v-10h-646zm0 480h646v-20h-646zm0 485h646v-5h-646zm0 475h646v-10h-646z"/><path transform="translate(132.38 19.474) scale(.014 -.014)" d="m131-16q-49 0-69 35.5t4 110.5l119 364q5 12 11 16.5t20 4.5q17 0 23-6t2-18l-123-376q-14-43-8-63.5t28-20.5q17 0 33 9.5t29.5 24 23.5 29.5q4 7 11 10t18-4q11-6 12-13.5t-4-15.5q-13-21-32-41t-43.5-33-54.5-13zm142 699q-17 0-28.5 9t-11.5 27q0 24 15 43.5t42 19.5q18 0 29.5-9t11.5-28q0-23-14.5-42.5t-43.5-19.5zm-273-1143h300v-10h-300zm0 480h300v-20h-300zm0 485h300v-5h-300zm0 475h300v-10h-300z"/><path transform="translate(136.58 19.474) scale(.014 -.014)" d="m186-17q-42 0-72 20t-46 56.5-16 86.5q0 44 12.5 95t37.5 100 64 89.5 91 64.5 118 24q33 0 68-11t65-31l158 487q4 12 10.5 16.5t19.5 4.5q18 0 23-7.5t1-19.5l-276-845q-13-41-5.5-61.5t29.5-20.5q16 0 31 9t28 23.5 23 30.5q5 7 12 10t18-4q11-6 12-13.5t-4-15.5q-12-21-30.5-41t-43-33-54.5-13q-28 0-47 12t-26.5 35-1.5 57q3 8 5 16.5t4 15.5q-36-52-74-82.5t-72.5-42.5-61.5-12zm-76 167q0-36 10-62.5t30-40.5 50-14q35 0 74 23t79.5 69.5 78.5 119.5l61 188q-36 22-65 29.5t-57 7.5q-53 0-95.5-20.5t-73.5-55.5-51.5-77-30.5-85.5-10-81.5zm-110-610h632v-10h-632zm0 480h632v-20h-632zm0 485h632v-5h-632zm0 475h632v-10h-632z"/><path transform="translate(145.43 19.474) scale(.014 -.014)" d="m233-19q-60 0-98 25.5t-56 68.5-18 97q0 67 22.5 129t63.5 111.5 98 78 128 28.5q47 0 78-14t45.5-37.5 14.5-54.5q0-46-23.5-81t-64.5-60-94-40.5-112-23.5-119-10l13 45q51 2 100.5 9t93 20 77.5 31.5 53 43.5 19 56q0 34-22.5 50.5t-65.5 16.5q-58 0-104.5-26t-78.5-69-49-95.5-17-106.5q0-49 15.5-80.5t43-47 63.5-15.5q38 0 68 13t54 32.5 43 37.5q10 8 17.5 7t14.5-8 9-15.5-7-17.5q-23-24-55-47t-69.5-37-80.5-14zm-233-441h526v-10h-526zm0 480h526v-20h-526zm0 485h526v-5h-526zm0 475h526v-10h-526z"/><path transform="translate(152.8 19.474) scale(.014 -.014)" d="m-147-17q-11 0-14.5 7.5t-1 16.5 10 16.5 19.5 7.5q34 0 74 26.5t87 82.5 104.5 143.5 127.5 209.5l30-16q-71-134-130.5-228t-111.5-153-99.5-86-95.5-27zm370-2q-44 0-80.5 12.5t-56.5 31.5q-8 7-8 15t9 17 16 9 18-8q20-13 46.5-22t56.5-9q62 0 95.5 32.5t33.5 91.5q0 28-7.5 53t-20 49-26 48.5-26 51-20 56-7.5 64.5q0 41 12.5 61.5t38.5 20.5q15 0 21-8t6-17q0-13-7.5-27.5t-27.5-41.5q3-32 12.5-59t23-51 28-46.5 27.5-46 21-49.5 8-58q0-79-50.5-124.5t-135.5-45.5zm-223-441h550v-10h-550zm0 480h550v-20h-550zm0 485h550v-5h-550zm0 475h550v-10h-550z"/></svg>