<svg width="194.04" height="23.1" viewBox="0 0 194.04 23.1" xmlns="http://www.w3.org/2000/svg"><path transform="translate(0 17.85) scale(.014 -.014)" d="m86-14q-30 0-23 20l275 850q4 10 10.5 14.5t22.5 4.5h166q84 0 140-18.5t84.5-59 28.5-105.5q0-72-27.5-127.5t-78-94-120-63-154.5-35.5q-43-5-89-7.5t-88-4.5l-116-355q-3-10-9.5-14.5t-21.5-4.5zm163 424q28 1 56.5 2.5t57.5 4 56 5.5q97 15 167 47.5t108.5 87 38.5 131.5q0 50-22 80t-66.5 43.5-112.5 13.5h-149zm-249-775h699v-10h-699zm0 385h699v-20h-699zm0 485h699v-5h-699zm0 380h699v-10h-699z"/><path transform="translate(9.786 17.85) scale(.014 -.014)" d="m-147-17q-11 0-14 7.5t-1 16.5 9.5 16.5 18.5 7.5q32 0 71.5 19t83 52.5 89 78 90.5 97 86.5 108.5 76 112.5 61 109.5 41 99 14.5 81q0 11 8 16.5t19 5.5 19.5-5.5 8.5-16.5q0-38-16-87t-44-105.5-66.5-116.5-83.5-119.5-94.5-115-100.5-103-100-83-94-55.5-82-20zm312 1q-28 0-46 10t-26 29.5-6.5 47.5 12.5 62l192 592q29 89 65 129t87 40q28 0 48.5-13.5t31.5-37 11-55.5q0-13-8.5-19t-19.5-6-19 6-8 19q0 17-5 29.5t-14.5 19-23.5 6.5q-18 0-34-13t-30.5-41.5-29.5-76.5l-192-599q-8-26-8.5-44.5t7-28 23.5-9.5q17 0 33 9.5t29.5 24 22.5 29.5q5 7 12 10t17-4q11-6 12-13.5t-4-15.5q-11-19-30-39.5t-43.5-34-55.5-13.5zm-165-349h394v-10h-394zm0 385h394v-20h-394zm0 485h394v-5h-394zm0 380h394v-10h-394z"/><path transform="translate(15.302 17.85) scale(.014 -.014)" d="m187-17q-42 0-72 20t-46.5 56.5-16.5 86.5q0 45 12.5 96.5t38.5 100.5 64.5 89 90.5 63.5 118 23.5q33 0 68-11t63-31l6 18q4 12 10.5 16t19.5 4q19 0 23.5-7.5t0.5-19.5l-124-377q-7-25-7-43t8-27.5 23-9.5q17 0 32.5 9t28.5 23.5 22 29.5q5 7 12.5 10.5t17.5-3.5q12-6 12.5-14t-4.5-15q-11-20-29.5-40t-43-34-55.5-14q-22 0-38 7t-25.5 20-12.5 31 0 40q3 10 5.5 19.5t5.5 18.5q-38-52-75.5-82t-71.5-42-61-12zm-77 167q0-35 10-61.5t30-41 52-14.5q35 0 73.5 22.5t78 69 78.5 118.5l61 190q-35 22-64 29.5t-57 7.5q-54 0-96.5-21t-73.5-55-51.5-76.5-30.5-86-10-81.5zm-110-515h622v-10h-622zm0 385h622v-20h-622zm0 485h622v-5h-622zm0 380h622v-10h-622z"/><path transform="translate(24.01 17.85) scale(.014 -.014)" d="m400-6q18 10 37 19t38 17 37.5 15.5 36.5 13.5q11 4 16.5-1t7-13.5-2.5-17-15-12.5q-21-8-42-17t-41.5-18.5-41.5-19.5-42-21zm-250-388q-37 0-62 13.5t-38 37-13 53.5q0 37 16 66.5t45 55 69 48 88 45.5q28 13 55.5 27.5t54.5 27.5l47 147q-28-41-58-68.5t-59.5-44-56.5-23.5-51-7q-47 0-78.5 21t-39.5 63.5 13 107.5l104 318q4 12 10.5 16.5t19.5 4.5q17 0 23-6t2-18l-106-324q-14-42-12-72.5t21-46 57-15.5q28 0 60.5 12.5t66 39.5 66.5 70.5 62 104.5l75 234q4 12 10.5 16.5t19.5 4.5q18 0 23-7t1-20l-208-639q-20-60-42.5-105.5t-50.5-76.5-61-46-73-15zm8 49q25 0 48.5 12.5t44 37.5 39 62.5 34.5 85.5l22 67q-20-9-39-18.5t-39-19.5q-40-20-72.5-38.5t-55-37.5-34.5-41-12-49q0-17 6.5-31t21-22 36.5-8zm-158-20h640v-10h-640zm0 385h640v-20h-640zm0 485h640v-5h-640zm0 380h640v-10h-640z"/><path transform="translate(32.97 17.85) scale(.014 -.014)" d="m127-15q-13 0-18 7t-5 19l-2 478q0 10 5.5 18t21.5 8q14 0 20-5t6-18l-4-422 290 424q8 12 15.5 16.5t19.5 4.5q13 0 19.5-7t7.5-21l15-416 268 425q7 11 14.5 16t18.5 2q16-2 20.5-11t-2.5-20l-308-479q-6-8-14-13.5t-21-5.5-18 7-5 18l-17 420-290-426q-5-8-14-13.5t-23-5.5zm-127-350h804v-10h-804zm0 385h804v-20h-804zm0 485h804v-5h-804zm0 380h804v-10h-804z"/><path transform="translate(44.226 17.85) scale(.014 -.014)" d="m50-15q-12 0-19.5 5t-2.5 17l157 487q5 12 11.5 16.5t19.5 4.5q16 0 21.5-6.5t1.5-18.5l-37-116q28 42 56.5 70t56 44.5 53 23.5 48.5 7q29 0 53.5-9t35.5-21q7-6 6.5-13t-8.5-18q-9-11-16-13t-14 2q-13 9-30.5 15.5t-40.5 6.5q-28 0-58-13t-61.5-40-63-70.5-60.5-104.5l-78-237q-3-10-10-14.5t-21-4.5zm-50-350h454v-10h-454zm0 385h454v-20h-454zm0 485h454v-5h-454zm0 380h454v-10h-454z"/><path transform="translate(50.582 17.85) scale(.014 -.014)" d="m131-16q-49 0-69 35.5t4 110.5l119 364q5 12 11 16.5t20 4.5q17 0 23-6t2-18l-123-376q-14-43-8-63.5t28-20.5q17 0 33 9.5t29.5 24 23.5 29.5q4 7 11 10t18-4q11-6 12-13.5t-4-15.5q-13-21-32-41t-43.5-33-54.5-13zm142 699q-17 0-28.5 9t-11.5 27q0 24 15 43.5t42 19.5q18 0 29.5-9t11.5-28q0-23-14.5-42.5t-43.5-19.5zm-273-1048h300v-10h-300zm0 385h300v-20h-300zm0 485h300v-5h-300zm0 380h300v-10h-300z"/><path transform="translate(54.782 17.85) scale(.014 -.014)" d="m168-16q-38 0-59.5 17t-24 52.5 14.5 89.5l101 309h-84q-11 0-13.5 6.5t0.5 18.5q4 12 10 17.5t17 5.5h85l68 209q4 12 10.5 16.5t20.5 4.5q17 0 23-6t1-18l-67-206h128q11 0 13-6t-1-18q-4-13-10-18.5t-17-5.5h-128l-107-326q-16-51-7-73t35-22q31 0 58.5 21.5t45.5 49.5q4 7 11.5 10.5t17.5-3.5q11-6 12-13.5t-3-15.5q-14-25-36-47t-50.5-35.5-64.5-13.5zm-168-349h388v-10h-388zm0 385h388v-20h-388zm0 485h388v-5h-388zm0 380h388v-10h-388z"/><path transform="translate(60.214 17.85) scale(.014 -.014)" d="m253-18q-34 0-63.5 11.5t-54 33-42 51.5-26.5 66.5-9 77.5q0 39 9 80t27 80 45 69.5 63 49 80 18.5q37 0 61.5-14t36-38.5 11.5-56.5q0-56-27.5-108.5t-73-100-101.5-87.5q-53-39-110.5-68.5t-114-46-107.5-16.5q-9 0-12.5 7.5t-1.5 16.5 9 16.5 20 7.5q46 0 97 16.5t101.5 44 96.5 62.5q44 34 82.5 74t62.5 84 24 90q0 33-16 50.5t-50 17.5q-39 0-68.5-25t-49.5-63-30-80.5-10-77.5q0-44 11-79.5t31.5-61 47.5-39 60-13.5q31 0 58.5 10t54.5 29 54 43q8 8 16 7t15-7q7-7 9-16t-7-18q-24-25-56-47.5t-70.5-36-82.5-13.5zm-253-347h444v-10h-444zm0 385h444v-20h-444zm0 485h444v-5h-444zm0 380h444v-10h-444z"/><path transform="translate(70.63 17.85) scale(.014 -.014)" d="m89 0q-27 0-21 19l271 837q3 10 10 14.5t23 4.5h181q72 0 130-18t98.5-53.5 61.5-87.5 21-119q0-105-29-195.5t-81.5-164.5-125-127-160.5-81.5-187-28.5zm44 52h148q87 0 165.5 25.5t143.5 73 113.5 115 74.5 151 26 180.5q0 58-18 101t-51.5 71-80 41-104.5 13h-167zm-133-417h869v-10h-869zm0 385h869v-20h-869zm0 485h869v-5h-869zm0 380h869v-10h-869z"/><path transform="translate(82.796 17.85) scale(.014 -.014)" d="m83-14q-14 0-19 4.5t-2 14.5l281 866q6 19 33 19 29 0 23-19l-126-387 510 392q13 11 21.5 11t17.5-11 8-18.5-13-16.5l-505-386q41-84 85.5-157.5t94.5-139.5 106-133q9-10 7-18t-14-18q-11-8-20-4.5t-18 14.5q-43 50-82.5 102.5t-76 107.5-70 114.5-63.5 123.5l-143-442q-4-10-12.5-14.5t-22.5-4.5zm-83-351h689v-10h-689zm0 385h689v-20h-689zm0 485h689v-5h-689zm0 380h689v-10h-689z"/><path transform="translate(96.642 17.85) scale(.014 -.014)" d="m90 0q-29 0-21 23l274 848q3 10 9.5 14.5t21.5 4.5 21-4.5 2-15.5l-265-820h382q11 0 13-6t-2-19q-3-13-9.5-19t-16.5-6zm-90-365h625v-10h-625zm0 385h625v-20h-625zm0 485h625v-5h-625zm0 380h625v-10h-625z"/><path transform="translate(105.39 17.85) scale(.014 -.014)" d="m231-19q-56 0-94.5 23.5t-58 66-19.5 97.5 19 116 57 114.5 95 87 133 33.5q54 0 92-22.5t58-63 20-94.5q0-41-11.5-89.5t-35-96-60-86.5-85-62.5-110.5-23.5zm6 50q59 0 104 30t74.5 77 44.5 99 15 97q0 42-13.5 72t-40.5 46.5-66 16.5q-58 0-102.5-29t-75-75.5-46.5-98-16-96.5q0-42 14.5-73.5t41.5-48.5 66-17zm-237-396h588v-10h-588zm0 385h588v-20h-588zm0 485h588v-5h-588zm0 380h588v-10h-588z"/><path transform="translate(113.62 17.85) scale(.014 -.014)" d="m231-19q-56 0-94.5 23.5t-58 66-19.5 97.5 19 116 57 114.5 95 87 133 33.5q54 0 92-22.5t58-63 20-94.5q0-41-11.5-89.5t-35-96-60-86.5-85-62.5-110.5-23.5zm6 50q59 0 104 30t74.5 77 44.5 99 15 97q0 42-13.5 72t-40.5 46.5-66 16.5q-58 0-102.5-29t-75-75.5-46.5-98-16-96.5q0-42 14.5-73.5t41.5-48.5 66-17zm-237-396h588v-10h-588zm0 385h588v-20h-588zm0 485h588v-5h-588zm0 380h588v-10h-588z"/><path transform="translate(121.86 17.85) scale(.014 -.014)" d="m-65-390q-14 0-20.5 7t-2.5 18l279 859q4 12 10 16.5t20 4.5q17 0 23-5.5t3-17.5l-33-101q36 49 72 76.5t68 39.5 59 12q63 0 98.5-44t35.5-120q0-44-13-95t-38-100-64-89-90.5-64-117.5-24q-31 0-65.5 11.5t-64.5 31.5l-128-397q-3-10-10-14.5t-21-4.5zm174 458q35-21 64-29t55-8q53 0 95 20.5t73.5 55.5 52 77 30.5 85.5 10 81.5q0 36-10 62.5t-30 41-50 14.5q-34 0-72-21t-76.5-65.5-76.5-114.5zm-109-433h595v-10h-595zm0 385h595v-20h-595zm0 485h595v-5h-595zm0 380h595v-10h-595z"/><path transform="translate(130.19 17.85) scale(.014 -.014)" d="m253-18q-34 0-63.5 11.5t-54 33-42 51.5-26.5 66.5-9 77.5q0 39 9 80t27 80 45 69.5 63 49 80 18.5q37 0 61.5-14t36-38.5 11.5-56.5q0-56-27.5-108.5t-73-100-101.5-87.5q-53-39-110.5-68.5t-114-46-107.5-16.5q-9 0-12.5 7.5t-1.5 16.5 9 16.5 20 7.5q46 0 97 16.5t101.5 44 96.5 62.5q44 34 82.5 74t62.5 84 24 90q0 33-16 50.5t-50 17.5q-39 0-68.5-25t-49.5-63-30-80.5-10-77.5q0-44 11-79.5t31.5-61 47.5-39 60-13.5q31 0 58.5 10t54.5 29 54 43q8 8 16 7t15-7q7-7 9-16t-7-18q-24-25-56-47.5t-70.5-36-82.5-13.5zm-253-347h444v-10h-444zm0 385h444v-20h-444zm0 485h444v-5h-444zm0 380h444v-10h-444z"/><path transform="translate(136.4 17.85) scale(.014 -.014)" d="m168-16q-38 0-59.5 17t-24 52.5 14.5 89.5l101 309h-84q-11 0-13.5 6.5t0.5 18.5q4 12 10 17.5t17 5.5h85l68 209q4 12 10.5 16.5t20.5 4.5q17 0 23-6t1-18l-67-206h128q11 0 13-6t-1-18q-4-13-10-18.5t-17-5.5h-128l-107-326q-16-51-7-73t35-22q31 0 58.5 21.5t45.5 49.5q4 7 11.5 10.5t17.5-3.5q11-6 12-13.5t-3-15.5q-14-25-36-47t-50.5-35.5-64.5-13.5zm-168-349h388v-10h-388zm0 385h388v-20h-388zm0 485h388v-5h-388zm0 380h388v-10h-388z"/><path transform="translate(146.03 17.85) scale(.014 -.014)" d="m356-17q-51 0-92.5 21t-72 59.5-47 94-16.5 123.5q0 80 18 156t52 144 81 124.5 104 98 122 64 136 22.5q52 0 98.5-12.5t84-36 64.5-57.5q6-8 5-16t-12-17-19.5-6.5-18.5 13.5q-27 27-58.5 44.5t-68.5 26-78 8.5q-62 0-119-21t-107.5-59-91.5-90-71.5-114-46.5-130.5-16-139.5q0-59 13-105t37-77.5 56-48 71-16.5q57 0 113.5 31.5t111 87.5 105 131 93.5 163q3 11 11 15.5t22 4.5q29 0 22-19l-142-445q-4-10-11-14.5t-23-4.5q-28 0-22 19l82 255q-40-60-83.5-111t-90.5-88-96-57.5-99-20.5zm-356-348h876v-10h-876zm0 385h876v-20h-876zm0 485h876v-5h-876zm0 380h876v-10h-876z"/><path transform="translate(158.3 17.85) scale(.014 -.014)" d="m186-17q-47 0-79 21.5t-40 64 13 106.5l104 319q5 12 11.5 16.5t19.5 4.5q17 0 23-6t2-18l-107-324q-14-42-12-72.5t21.5-46 57.5-15.5q28 0 60.5 12.5t66.5 40 66.5 71 61.5 105.5l75 233q4 13 10 17t19 4q17 0 23.5-5.5t2.5-17.5l-124-380q-8-26-9-45t7-28 24-9 32 9.5 29.5 24 23.5 28.5q4 8 11 11t18-4q11-6 12-13.5t-4-15.5q-12-20-30.5-40t-43.5-34-55-14q-24 0-40.5 8t-25.5 22.5-10 35.5 4 48l11 35q-28-42-58-71t-60.5-46-58.5-24.5-52-7.5zm-186-348h646v-10h-646zm0 385h646v-20h-646zm0 485h646v-5h-646zm0 380h646v-10h-646z"/><path transform="translate(167.34 17.85) scale(.014 -.014)" d="m131-16q-49 0-69 35.5t4 110.5l119 364q5 12 11 16.5t20 4.5q17 0 23-6t2-18l-123-376q-14-43-8-63.5t28-20.5q17 0 33 9.5t29.5 24 23.5 29.5q4 7 11 10t18-4q11-6 12-13.5t-4-15.5q-13-21-32-41t-43.5-33-54.5-13zm142 699q-17 0-28.5 9t-11.5 27q0 24 15 43.5t42 19.5q18 0 29.5-9t11.5-28q0-23-14.5-42.5t-43.5-19.5zm-273-1048h300v-10h-300zm0 385h300v-20h-300zm0 485h300v-5h-300zm0 380h300v-10h-300z"/><path transform="translate(171.54 17.85) scale(.014 -.014)" d="m186-17q-42 0-72 20t-46 56.5-16 86.5q0 44 12.5 95t37.5 100 64 89.5 91 64.5 118 24q33 0 68-11t65-31l127 392q4 12 10.5 16.5t19.5 4.5q18 0 23-7.5t1-19.5l-245-750q-13-41-5.5-61.5t29.5-20.5q16 0 31 9t28 23.5 23 30.5q5 7 12 10t18-4q11-6 12-13.5t-4-15.5q-12-21-30.5-41t-43-33-54.5-13q-28 0-47 12t-26.5 35-1.5 57q3 8 5 16.5t4 15.5q-36-52-74-82.5t-72.5-42.5-61.5-12zm-76 167q0-36 10-62.5t30-40.5 50-14q35 0 74 23t79.5 69.5 78.5 119.5l61 188q-36 22-65 29.5t-57 7.5q-53 0-95.5-20.5t-73.5-55.5-51.5-77-30.5-85.5-10-81.5zm-110-515h632v-10h-632zm0 385h632v-20h-632zm0 485h632v-5h-632zm0 380h632v-10h-632z"/><path transform="translate(180.39 17.85) scale(.014 -.014)" d="m253-18q-34 0-63.5 11.5t-54 33-42 51.5-26.5 66.5-9 77.5q0 39 9 80t27 80 45 69.5 63 49 80 18.5q37 0 61.5-14t36-38.5 11.5-56.5q0-56-27.5-108.5t-73-100-101.5-87.5q-53-39-110.5-68.5t-114-46-107.5-16.5q-9 0-12.5 7.5t-1.5 16.5 9 16.5 20 7.5q46 0 97 16.5t101.5 44 96.5 62.5q44 34 82.5 74t62.5 84 24 90q0 33-16 50.5t-50 17.5q-39 0-68.5-25t-49.5-63-30-80.5-10-77.5q0-44 11-79.5t31.5-61 47.5-39 60-13.5q31 0 58.5 10t54.5 29 54 43q8 8 16 7t15-7q7-7 9-16t-7-18q-24-25-56-47.5t-70.5-36-82.5-13.5zm-253-347h444v-10h-444zm0 385h444v-20h-444zm0 485h444v-5h-444zm0 380h444v-10h-444z"/><path transform="translate(186.61 17.85) scale(.014 -.014)" d="m185-19q-45 0-81 12.5t-61 31.5-37 36q-5 8-3.5 15.5t10.5 15.5q10 8 17.5 9t14.5-8q21-26 57-46t86-20q39 0 70.5 12t50 36.5 18.5 59.5q0 27-14.5 45.5t-37 32.5-48 27-48 30-37 41-14.5 61q0 45 22.5 77.5t63.5 51 94 18.5q42 0 75-12t55.5-28.5 31.5-32.5q6-9 5-15.5t-11-13.5q-8-6-15-6.5t-14 6.5q-26 25-57.5 40.5t-74.5 15.5q-54 0-87-25t-33-71q0-28 14.5-47t37.5-33.5 48.5-28 48-30 37-39.5 14.5-57q0-53-27-89t-72-54-99-18zm-185-346h531v-10h-531zm0 385h531v-20h-531zm0 485h531v-5h-531zm0 380h531v-10h-531z"/></svg>