<svg width="159.66" height="27.776" viewBox="0 0 159.66 27.776" xmlns="http://www.w3.org/2000/svg"><path transform="translate(0 20.384) scale(.014 -.014)" d="m508 404q-14 0-19.5 6.5t-3.5 18.5q1 12 7.5 18t19.5 7q84 3 158.5 19.5t135.5 45 106 69 69.5 92.5 24.5 115q0 48-19.5 84t-56 59.5-87.5 36-115 12.5q-75 0-148.5-14t-144-42-137.5-72q-12-9-20.5-7.5t-16.5 11.5q-6 9-4.5 18t12.5 17q51 36 107 62t115.5 43.5 120 26 120.5 8.5q79 0 140.5-16t104-47 64.5-75.5 22-101.5q0-72-27-132.5t-77.5-107-119.5-79.5-153-52-178-23zm-348-421q-37 0-66.5 17t-50.5 50.5-33 80.5q-4 12-0.5 20t16.5 11q14 4 20.5 0.5t9.5-14.5q14-41 29.5-66t35-36 43.5-11q37 0 65.5 36.5t55.5 120.5l219 668q4 10 11 14.5t22 4.5q14 0 20-4.5t3-15.5l-222-677q-21-66-47-110.5t-58-66.5-73-22zm-160-496h947v-10h-947zm0 533h947v-20h-947zm0 485h947v-5h-947zm0 528h947v-10h-947z"/><path transform="translate(13.258 20.384) scale(.014 -.014)" d="m-172-17q-11 0-14 7.5t-1 16.5 10 16.5 19 7.5q26 0 64.5 22t86 61.5 98.5 92 103.5 114 102.5 128 92.5 134 75 131.5 51 120.5 18.5 100.5q0 11 8 17t18.5 6 19-6 8.5-17q0-46-19.5-105t-53.5-126.5-80-138-99-141-110-135.5-113.5-120.5-109-97.5-97.5-65-78-23zm321 2q-26 0-41 10t-21 28.5-3 43.5 12 55l232 710q35 110 75.5 160t92.5 50q30 0 50.5-13.5t31-37.5 10.5-56q0-13-8.5-19t-19-6-18.5 6-8 19q0 17-4.5 30t-13.5 20-24 7q-21 0-39.5-18t-37-57-39.5-103l-229-708q-8-24-9.5-40.5t3.5-24.5 18-8q17 0 34.5 11t33 27.5 27.5 32.5q6 8 12 9.5t15-4.5q11-7 11.5-13.5t-3.5-14.5q-12-18-32.5-41t-48-39-59.5-16zm-149-498h394v-10h-394zm0 533h394v-20h-394zm0 485h394v-5h-394zm0 528h394v-10h-394z"/><path transform="translate(18.774 20.384) scale(.014 -.014)" d="m168-17q-37 0-64 18.5t-42 53-15 81.5q0 46 14 98t41 102.5 67 92 92 66 115 24.5q32 0 66.5-9.5t64.5-28.5l5 16q4 11 10.5 14.5t19.5 3.5q18 0 23-7t0-19l-127-389q-7-23-8-38t4.5-22.5 17.5-7.5q17 0 33.5 11t32.5 27.5 28 32.5q6 8 12 9.5t15-5.5q10-6 11-13t-3-14q-12-18-32.5-41t-47.5-39.5-59-16.5q-23 0-37.5 9t-21 25-6 37 7.5 46q7 20 13.5 41.5t13.5 42.5q-44-71-87-115.5t-82.5-65-74.5-20.5zm-64 158q0-32 9-56.5t26-38 42-13.5q38 0 84 34.5t96 103 101 171.5l30 94q-36 21-65.5 27.5t-57.5 6.5q-50 0-92-22t-74-57.5-54-79-33.5-88-11.5-82.5zm-104-654h622v-10h-622zm0 533h622v-20h-622zm0 485h622v-5h-622zm0 528h622v-10h-622z"/><path transform="translate(27.482 20.384) scale(.014 -.014)" d="m392-22q20 14 40.5 26.5t41 24 40 22 36.5 18.5q12 5 18.5 1t8.5-12-1-16.5-12-13.5q-21-10-43.5-23t-46.5-27-47.5-29-46.5-30zm-289-520q-34 0-57 13t-35 36-12 52q0 38 16 77.5t46.5 79 74.5 80.5 100 82q31 20 61 40.5t60 40.5l80 246q-36-61-72.5-103t-72.5-68-68.5-37.5-59.5-11.5q-40 0-67 19t-33 59.5 15 104.5l108 326q4 12 10 16.5t20 4.5q17 0 23-6t2-18l-109-329q-14-41-14.5-70t14.5-43.5 45-14.5 68 19.5 80 62 86 110.5 85 166l33 102q5 12 11.5 16.5t19.5 4.5q16 0 22-6.5t1-20.5l-255-785q-18-56-40.5-101.5t-49.5-77.5-61-49-75-17zm8 49q27 0 50.5 15t44.5 42 38.5 64.5 32.5 82.5l57 177q-20-13-39-26t-38-26q-51-40-89-76.5t-63-70-37-64.5-12-59q0-18 5.5-31t18-20.5 31.5-7.5zm-111-20h640v-10h-640zm0 533h640v-20h-640zm0 485h640v-5h-640zm0 528h640v-10h-640z"/><path transform="translate(36.442 20.384) scale(.014 -.014)" d="m197-19q-36 0-60 14.5t-35.5 41-10 62 15.5 76.5l73 226q11 35 8 52t-24 17q-18 0-38-12.5t-41-36-45-56.5q-6-9-12.5-10.5t-17.5 3.5q-11 6-11.5 14t4.5 15q23 37 50.5 66.5t58 47 62.5 17.5q24 0 39-9t22-26 6-40.5-11-51.5l-72-225q-12-38-12-69t14.5-49 46.5-18q34 0 68 21t65 57 57 80.5 44 92.5l69 213q3 10 9.5 15t19.5 5q17 0 22-6t2-17l-96-298q-11-34-15.5-63.5t0-52 19.5-35 44-12.5q41 0 79 24t70.5 63.5 57 87.5 38 96.5 13.5 90.5q0 14-1 29t-4 31.5-8 34.5q-3 10-0.5 17t9 11 15.5 4q10 0 16.5-6.5t10.5-22.5q5-15 8-30.5t5-31 2-30.5q0-51-16-107.5t-45.5-111.5-69.5-99.5-88.5-71.5-101.5-27q-39 0-65 16t-37 47-5 76q-27-43-59-74t-68-48-74-17zm-197-494h888v-10h-888zm0 533h888v-20h-888zm0 485h888v-5h-888zm0 528h888v-10h-888z"/><path transform="translate(48.874 20.384) scale(.014 -.014)" d="m-170-17q-11 0-15.5 7.5t-2 16.5 10 16.5 20.5 7.5q30 0 58.5 12t58 40 62.5 74.5 71.5 115.5 84.5 164l43-6q-59-130-109.5-216.5t-96.5-137.5-91-72.5-94-21.5zm550 2q-28 0-43 10.5t-19.5 29.5-1.5 41.5 11 46.5q7 23 20 54.5t28.5 67.5 30 72 22.5 67q11 37 4.5 58t-39.5 21q-24 0-48-5.5t-49-12.5-50-12.5-51-5.5q-31 0-53.5 13t-34.5 34.5-12 46.5q0 35 20.5 57t54.5 22q32 0 49-18.5t20.5-47.5-6.5-61q18 2 40.5 8.5t46 14 47.5 13 45 5.5q34 0 52.5-16t22-46-7.5-73q-8-29-22-65t-29.5-72.5-29-69.5-20.5-56q-11-34-9-53.5t22-19.5q17 0 34 11t33 27.5 28 32.5q6 9 11.5 10t14.5-5q11-8 12-14t-4-14q-12-18-32.5-41t-47.5-39-60-16zm-191 474q7 19 8.5 40t-5 36-24.5 15q-15 0-22-10t-7-26q0-23 13.5-39t36.5-16zm-189-972h568v-10h-568zm0 533h568v-20h-568zm0 485h568v-5h-568zm0 528h568v-10h-568z"/><path transform="translate(56.826 20.384) scale(.014 -.014)" d="m116-15q-44 0-59.5 33.5t8.5 104.5l121 371q4 12 10 16.5t20 4.5q16 0 22-6t2-18l-125-384q-13-38-10-56t22-18q17 0 34 11t32.5 27.5 27.5 32.5q6 8 12.5 9.5t14.5-4.5q11-7 12-14t-4-14q-15-22-36-44.5t-47.5-37-56.5-14.5zm159 698q-18 0-29 9t-11 27q0 24 14.5 43.5t42.5 19.5q17 0 28.5-9t11.5-28q0-23-14.5-42.5t-42.5-19.5zm-275-1196h300v-10h-300zm0 533h300v-20h-300zm0 485h300v-5h-300zm0 528h300v-10h-300z"/><path transform="translate(61.026 20.384) scale(.014 -.014)" d="m154-15q-33 0-52.5 14.5t-22 47 14.5 84.5l105 321h-82q-11 0-13.5 6.5t1.5 18.5 10 17.5 16 5.5h83l68 209q4 12 10.5 16.5t20.5 4.5q17 0 23-6t2-18l-68-206h126q10 0 12.5-6t-0.5-18q-4-13-10.5-18.5t-16.5-5.5h-127l-109-332q-15-47-10-67t31-20q27 0 57.5 22.5t58.5 61.5q6 7 12.5 8.5t15.5-5.5q10-6 11-13t-3-13q-19-29-44.5-54t-55.5-40-64-15zm-154-498h388v-10h-388zm0 533h388v-20h-388zm0 485h388v-5h-388zm0 528h388v-10h-388z"/><path transform="translate(66.458 20.384) scale(.014 -.014)" d="m225-19q-55 0-92 23.5t-55 65.5-18 97q0 68 22.5 131t64 113 98.5 79 126 29q48 0 77.5-14t43-38 13.5-55q0-47-26-82t-69.5-60-97-41-110-26-106.5-15l7 46q45 3 93 11.5t93 22 81 33 57 45 21 58.5q0 34-22 50t-62 16q-57 0-102.5-26t-78-69.5-50-96.5-17.5-108q0-45 13.5-76.5t39.5-47.5 65-16q40 0 73.5 16.5t60 40 46.5 44.5q9 9 17.5 8t15.5-8q6-7 8-15t-6-17q-26-30-60.5-57t-76-44-87.5-17zm-225-494h526v-10h-526zm0 533h526v-20h-526zm0 485h526v-5h-526zm0 528h526v-10h-526z"/><path transform="translate(78.022 20.384) scale(.014 -.014)" d="m232-18q-41 0-76 18.5t-62 52-46 79.5q-4 9-0.5 17.5t14.5 12.5q12 6 18.5 3t12.5-14q29-59 62.5-88t79.5-29q36 0 65 18.5t53.5 59 45.5 105.5l243 746q-16-11-34.5-17.5t-38.5-6.5q-21 0-36 5t-27.5 12-25 12-28.5 5q-21 0-41-9t-41.5-27.5-48.5-47.5q-7-8-15-9.5t-19 5.5q-10 7-11 14.5t6 16.5q30 37 58.5 61t56.5 35.5 57 11.5q24 0 41-5t30-12.5 26-12.5 29-5q23 0 43.5 10.5t35.5 23.5q9 8 16 11t17 3q13 0 19-6t3-16l-263-810q-25-79-57.5-128.5t-72.5-72-89-22.5zm-232-495h607v-10h-607zm0 533h607v-20h-607zm0 485h607v-5h-607zm0 528h607v-10h-607z"/><path transform="translate(86.52 20.384) scale(.014 -.014)" d="m143-17q-34 0-58 16t-37 44.5-13 64.5q0 46 17 97.5t47 106.5q7 12 14.5 14.5t19.5-3.5q13-6 15-13t-3-19q-25-47-39.5-93.5t-14.5-86.5q0-22 6.5-39.5t19.5-27 32-9.5q25 0 51.5 19.5t55 62.5 60.5 113 69 169.5 80 232.5l122 375q3 10 11.5 15t20.5 5q14 0 21-5.5t9-17.5l173-904 164 494q40 122 75 206.5t69.5 137 74.5 76.5 91 24q25 0 50-5t50-15 48-25q11-6 13-14t-4-19q-6-12-14-14t-19 3q-33 18-65 27.5t-62 9.5q-38 0-69-22t-59.5-69.5-58.5-124.5-67-188l-191-576q-3-10-11-15t-21-5q-9 0-15 2.5t-9.5 8.5-6.5 18l-172 899-95-293q-46-144-86-250.5t-76-180.5-70.5-120-69.5-66.5-73-20.5zm-143-496h1235v-10h-1235zm0 533h1235v-20h-1235zm0 485h1235v-5h-1235zm0 528h1235v-10h-1235z"/><path transform="translate(108.01 20.384) scale(.014 -.014)" d="m412-542q-35 0-61.5 14.5t-41 40.5-14.5 60q0 49 27 100.5t80.5 107 135 116.5 190.5 128 245 143q10 5 18 3.5t14-13.5q7-13 4-21t-12-13q-131-72-235-136t-181-121-127.5-107.5-76-96-25.5-86.5q0-31 18-48.5t49-17.5q58 0 105.5 55.5t81.5 160.5l205 628q-38-59-83-111.5t-94.5-95.5-100-73.5-100-47-96.5-16.5q-63 0-108.5 26.5t-70 79.5-24.5 132q0 65 19.5 139.5t55 150.5 82.5 148.5 103 136 117.5 112 124.5 75.5 124 27q43 0 73.5-15.5t46.5-43.5 16-68q0-57-37.5-125t-109-145-173.5-161.5-231.5-175.5-282.5-186q-10-6-18-4t-15 14q-6 11-4 19.5t11 13.5q146 91 270 178.5t222.5 168.5 167.5 154 105.5 135 36.5 111q0 25-10 42t-29 26-47 9q-52 0-107-26t-109.5-71-105-105-94-127.5-75.5-138.5-50-139-18-127q0-61 17.5-102.5t52.5-62.5 85-21q58 0 125 33t136 93 135 143.5 120 184.5q4 11 11 15.5t22 4.5q30 0 23-19l-261-804q-28-84-65.5-141.5t-83-87-98.5-29.5zm-412 29h1035v-10h-1035zm0 533h1035v-20h-1035zm0 485h1035v-5h-1035zm0 528h1035v-10h-1035z"/><path transform="translate(122.5 20.384) scale(.014 -.014)" d="m164-17q-41 0-68 19.5t-33 60 15 103.5l108 328q4 12 10.5 16.5t19.5 4.5q17 0 23-6t2-18l-110-330q-14-41-13.5-70t15-43.5 44.5-14.5q31 0 69 20t80 62 85.5 110 84.5 166l34 104q4 13 10 17t20 4q16 0 22.5-5.5t2.5-17.5l-127-388q-8-25-10-41.5t4-24 18-7.5q17 0 34 11t32.5 27.5 27.5 32.5q6 8 13 9t15-5q10-7 11.5-13.5t-3.5-13.5q-12-18-32.5-40.5t-48-39.5-59.5-17q-24 0-38.5 9.5t-21 26-4.5 39.5 10 51l31 97q-35-62-72-104.5t-72.5-68.5-68.5-38-60-12zm-164-496h646v-10h-646zm0 533h646v-20h-646zm0 485h646v-5h-646zm0 528h646v-10h-646z"/><path transform="translate(131.54 20.384) scale(.014 -.014)" d="m116-15q-44 0-59.5 33.5t8.5 104.5l121 371q4 12 10 16.5t20 4.5q16 0 22-6t2-18l-125-384q-13-38-10-56t22-18q17 0 34 11t32.5 27.5 27.5 32.5q6 8 12.5 9.5t14.5-4.5q11-7 12-14t-4-14q-15-22-36-44.5t-47.5-37-56.5-14.5zm159 698q-18 0-29 9t-11 27q0 24 14.5 43.5t42.5 19.5q17 0 28.5-9t11.5-28q0-23-14.5-42.5t-42.5-19.5zm-275-1196h300v-10h-300zm0 533h300v-20h-300zm0 485h300v-5h-300zm0 528h300v-10h-300z"/><path transform="translate(135.74 20.384) scale(.014 -.014)" d="m167-17q-36 0-63 18.5t-42 53-15 81.5q0 45 14 97t41 103 67 92 92 66 116 25q32 0 67-10t65-29l175 537q4 12 10.5 16.5t20.5 4.5q17 0 22-7t1-19l-298-910q-11-33-7-51t23-18q16 0 32.5 10.5t32 27.5 27.5 33q7 8 13 9.5t14-4.5q11-7 12-14t-4-14q-14-22-35.5-44.5t-47-37-55.5-14.5q-28 0-44.5 13t-20 39 6.5 65q7 21 13.5 41.5t12.5 40.5q-44-71-87-115.5t-83-65-76-20.5zm-63 158q0-32 8.5-56.5t25.5-38 43-13.5q38 0 84.5 34.5t97 103 101.5 171.5l30 94q-37 21-67 27.5t-57 6.5q-51 0-92.5-21.5t-74-57-54.5-79-33.5-88-11.5-83.5zm-104-654h632v-10h-632zm0 533h632v-20h-632zm0 485h632v-5h-632zm0 528h632v-10h-632z"/><path transform="translate(144.59 20.384) scale(.014 -.014)" d="m225-19q-55 0-92 23.5t-55 65.5-18 97q0 68 22.5 131t64 113 98.5 79 126 29q48 0 77.5-14t43-38 13.5-55q0-47-26-82t-69.5-60-97-41-110-26-106.5-15l7 46q45 3 93 11.5t93 22 81 33 57 45 21 58.5q0 34-22 50t-62 16q-57 0-102.5-26t-78-69.5-50-96.5-17.5-108q0-45 13.5-76.5t39.5-47.5 65-16q40 0 73.5 16.5t60 40 46.5 44.5q9 9 17.5 8t15.5-8q6-7 8-15t-6-17q-26-30-60.5-57t-76-44-87.5-17zm-225-494h526v-10h-526zm0 533h526v-20h-526zm0 485h526v-5h-526zm0 528h526v-10h-526z"/><path transform="translate(151.96 20.384) scale(.014 -.014)" d="m-171-17q-11 0-14.5 7.5t-1.5 16.5 10 16.5 20 7.5q35 0 79.5 30.5t97 90 112 145.5 125.5 197l30-16q-68-122-129.5-215t-118.5-155-109.5-93.5-100.5-31.5zm387-2q-43 0-81 12t-62 31q-9 8-9 16.5t8 16.5q9 9 15.5 9t17.5-7q25-15 53-23.5t59-8.5q60 0 92.5 31t32.5 86q0 26-7.5 50.5t-19 49.5-24 51-24.5 54.5-19 60.5-7 68q0 40 16 58t38 18q14 0 20.5-7.5t6.5-18.5q0-13-9.5-29.5t-28.5-40.5q3-33 12.5-61t22-52.5 26-48 26-47 19.5-49.5 7-57q0-73-48.5-117.5t-132.5-44.5zm-216-494h550v-10h-550zm0 533h550v-20h-550zm0 485h550v-5h-550zm0 528h550v-10h-550z"/></svg>