<svg width="206.68" height="23.1" viewBox="0 0 206.68 23.1" xmlns="http://www.w3.org/2000/svg"><path transform="translate(0 17.85) scale(.014 -.014)" d="m169-14q-27 0-27 19v851q0 10 7 14.5t21 4.5h190q97 0 162-22t98.5-70 33.5-127q0-68-24.5-117.5t-68-84-101.5-54.5-125-29q-35-4-71-6.5t-68-3.5v-356q0-10-6-14.5t-21-4.5zm27 424q23 1 45.5 2.5t46.5 4 47 4.5q76 9 135 36.5t93.5 76.5 34.5 121q0 62-27 99t-79.5 54-131.5 17h-164zm-196-775h700v-10h-700zm0 385h700v-20h-700zm0 485h700v-5h-700zm0 380h700v-10h-700z"/><path transform="translate(9.8 17.85) scale(.014 -.014)" d="m189-17q-39 0-60 24.5t-21 73.5v790q0 10 6 14.5t19 4.5q14 0 20.5-4.5t6.5-14.5v-778q0-30 9-46t30-16q11 0 21 4t20 13.5 20 23.5q6 7 12.5 7t13.5-6q6-5 8.5-11.5t-1.5-12.5q-11-21-28-35.5t-36.5-22.5-39.5-8zm-189-348h299v-10h-299zm0 385h299v-20h-299zm0 485h299v-5h-299zm0 380h299v-10h-299z"/><path transform="translate(13.986 17.85) scale(.014 -.014)" d="m254-17q-54 0-95.5 29t-65.5 85-24 137q0 51 9.5 94.5t28.5 78.5 47 60 64.5 38.5 81.5 13.5q34 0 66-10t66-29v16q0 10 6.5 14.5t20.5 4.5q13 0 19.5-4.5t6.5-14.5v-404q0-21 4-34.5t13-20.5 23-7q11 0 20.5 4.5t19.5 14.5 20 24q5 7 11.5 6.5t13.5-6.5q7-5 9-12t-2-13q-11-20-27.5-34.5t-35-22.5-38.5-8-35 5.5-26 17-16.5 28.5-6.5 38q0 12 0 25t0 25q-22-53-52-83.5t-62-43-64-12.5zm-129 254q0-59 15-105t45.5-72.5 77.5-26.5q35 0 67.5 19.5t59 64 42.5 117.5v196q-36 23-68 31.5t-63 8.5q-33 0-60-10t-48.5-29-36.5-47-23-64.5-8-82.5zm-125-602h622v-10h-622zm0 385h622v-20h-622zm0 485h622v-5h-622zm0 380h622v-10h-622z"/><path transform="translate(22.694 17.85) scale(.014 -.014)" d="m487 5q16 9 32 18.5t32 18 32 16 31 14.5q10 4 17 0t10-12.5 0.5-17.5-13.5-13q-17-8-35-17.5t-35.5-19-35.5-19.5-35-20zm-162-399q-38 0-67 14.5t-45 41.5-16 64q0 29 9.5 54t27.5 48 45.5 45.5 63.5 45.5q28 17 54.5 33.5t53.5 34.5v146q-15-43-37.5-72.5t-48.5-46.5-53-24.5-52-7.5q-44 0-79 18t-54.5 57.5-19.5 103.5v335q0 10 6.5 14t19.5 4 20-4 7-14v-329q0-44 11-74.5t34.5-46.5 60.5-16q30 0 58.5 12.5t53.5 38 44 67 29 100.5v248q0 10 6.5 14.5t20.5 4.5q13 0 19.5-4.5t6.5-14.5v-642q0-57-12-103.5t-34.5-78.5-56-49-76.5-17zm6 49q27 0 49.5 13.5t38 38 24 61 8.5 82.5v82q-23-14-46.5-28.5t-46.5-29.5q-25-17-44.5-33t-33-33.5-20.5-36-7-40.5q0-21 9-38.5t26-27.5 43-10zm-331-20h640v-10h-640zm0 385h640v-20h-640zm0 485h640v-5h-640zm0 380h640v-10h-640z"/><path transform="translate(31.654 17.85) scale(.014 -.014)" d="m220-15q-14 0-20 5.5t-9 13.5l-157 480q-5 12 2 21.5t24 9.5q11 0 17-4.5t8-14.5l136-430 153 430q4 10 10.5 14.5t18.5 4.5q11 0 17-4.5t9-14.5l156-430 133 430q3 10 9 14.5t17 4.5q18 0 24.5-9t0.5-24l-156-478q-3-8-9.5-13.5t-19.5-5.5-18.5 5.5-8.5 13.5l-155 426-154-426q-2-8-8.5-13.5t-19.5-5.5zm-220-350h804v-10h-804zm0 385h804v-20h-804zm0 485h804v-5h-804zm0 380h804v-10h-804z"/><path transform="translate(42.91 17.85) scale(.014 -.014)" d="m132-15q-13 0-19 4.5t-6 14.5v492q0 10 6 14.5t19 4.5q14 0 20.5-4.5t6.5-14.5v-124q15 41 35 69.5t42.5 45.5 46.5 24.5 46 7.5q28 0 54.5-8.5t40.5-20.5q7-5 8-12t-6-18q-5-9-12.5-11.5t-15.5 0.5q-13 6-33 13t-43 7q-26 0-50.5-12t-46.5-38-38.5-67-27.5-100v-248q0-10-6.5-14.5t-20.5-4.5zm-132-350h454v-10h-454zm0 385h454v-20h-454zm0 485h454v-5h-454zm0 380h454v-10h-454z"/><path transform="translate(49.266 17.85) scale(.014 -.014)" d="m189-17q-40 0-61 24.5t-21 73.5v415q0 10 6 14.5t19 4.5q14 0 20.5-4.5t6.5-14.5v-403q0-30 9-46t31-16q11 0 21 4.5t20 13.5 20 24q5 6 12 6t13-6q7-5 9-11.5t-2-13.5q-12-20-28.5-34.5t-35.5-22.5-39-8zm-57 700q-22 0-32.5 12t-10.5 37 10.5 37.5 32.5 12.5 33-12.5 11-37.5-11-37-33-12zm-132-1048h300v-10h-300zm0 385h300v-20h-300zm0 485h300v-5h-300zm0 380h300v-10h-300z"/><path transform="translate(53.466 17.85) scale(.014 -.014)" d="m238-17q-34 0-56.5 14t-33.5 41.5-11 67.5v346h-88q-10 0-14.5 6t-4.5 18q0 13 4.5 18.5t14.5 5.5h88v211q0 10 6.5 14.5t19.5 4.5 20-4.5 7-14.5v-211h140q10 0 14.5-5.5t4.5-18.5q0-12-4.5-18t-14.5-6h-140v-335q0-41 11-63.5t44-22.5q25 0 43.5 15.5t35.5 42.5q7 8 14 7.5t15-5.5q8-6 10.5-13.5t-1.5-14.5q-14-25-33-43t-42-27.5-49-9.5zm-238-348h388v-10h-388zm0 385h388v-20h-388zm0 485h388v-5h-388zm0 380h388v-10h-388z"/><path transform="translate(58.898 17.85) scale(.014 -.014)" d="m287-18q-72 0-120 32.5t-72 88-24 125.5q0 65 17 118.5t48.5 92 76 59.5 99.5 21q53 0 87-17t50.5-45 16.5-63q0-38-18-68.5t-50-54-75.5-40-95.5-25.5-107-12l-1 46q42 1 84 8t79 19 66 30 45.5 41.5 16.5 52.5q0 39-27 59t-76 20q-35 0-67.5-14t-58-43-40.5-72-15-103q0-71 22.5-117t59.5-68 82-22q40 0 67 13t46.5 32 35.5 39q8 8 16 7.5t16-6.5 11-14-3-16q-18-26-45.5-50t-64-39-82.5-15zm-287-347h526v-10h-526zm0 385h526v-20h-526zm0 485h526v-5h-526zm0 380h526v-10h-526z"/><path transform="translate(70.462 17.85) scale(.014 -.014)" d="m37 0q-8 0-12.5 5.5t-4.5 19.5 4.5 19.5 12.5 5.5h124v775h-124q-8 0-12.5 5.5t-4.5 19.5 4.5 19.5 12.5 5.5h302q8 0 12-5t4-19-4-20-12-6h-125v-775h125q8 0 12-5t4-19-4-20-12-6zm-37-365h375v-10h-375zm0 385h375v-20h-375zm0 485h375v-5h-375zm0 380h375v-10h-375z"/><path transform="translate(75.712 17.85) scale(.014 -.014)" d="m345-14q-27 0-27 19v820h-278q-7 0-11.5 5.5t-4.5 19.5 4.5 19.5 11.5 5.5h610q8 0 12.5-5t4.5-19-4.5-20-12.5-6h-278v-820q0-10-6-14.5t-21-4.5zm-345-351h691v-10h-691zm0 385h691v-20h-691zm0 485h691v-5h-691zm0 380h691v-10h-691z"/><path transform="translate(89.586 17.85) scale(.014 -.014)" d="m86-14q-17 0-22.5 5t-2.5 20l162 856q3 13 10.5 18t24.5 5q13 0 20.5-4.5t11.5-18.5l260-788 261 788q4 13 11 18t22 5q17 0 24-5t10-18l161-856q3-15-2-20t-23-5q-13 0-19 4t-9 18l-147 781-258-781q-5-13-12-17.5t-19-4.5-19.5 4.5-11.5 17.5l-258 778-148-778q-2-14-8-18t-19-4zm-86-351h1101v-10h-1101zm0 385h1101v-20h-1101zm0 485h1101v-5h-1101zm0 380h1101v-10h-1101z"/><path transform="translate(105 17.85) scale(.014 -.014)" d="m295-19q-68 0-118.5 34t-78 94.5-27.5 140.5q0 60 16.5 109t47 85 71 55.5 89.5 19.5q66 0 116-34t78.5-94.5 28.5-140.5q0-47-10.5-88.5t-29.5-74.5-46-57-61.5-36.5-75.5-12.5zm0 50q39 0 69.5 15.5t52.5 45 34 70 12 88.5q0 65-20.5 114.5t-58 77-89.5 27.5q-39 0-70-15.5t-53-45-34-69.5-12-89q0-64 20.5-113.5t58.5-77.5 90-28zm-295-396h588v-10h-588zm0 385h588v-20h-588zm0 485h588v-5h-588zm0 380h588v-10h-588z"/><path transform="translate(113.23 17.85) scale(.014 -.014)" d="m256-17q-54 0-95.5 29t-65.5 85-24 137q0 51 9.5 94.5t28.5 78.5 47 60 64.5 38.5 82.5 13.5q33 0 65.5-9.5t66.5-29.5v391q0 10 6.5 14.5t19.5 4.5q14 0 20-4.5t6-14.5v-779q0-31 9.5-46.5t30.5-15.5q11 0 21 4.5t20 14.5 20 25q5 6 11.5 5.5t13.5-6.5q7-5 9-12t-2-13q-12-20-28-34.5t-35-22.5-38-8q-28 0-47 11.5t-28 32-9 49.5q0 12 0 24t0 23q-23-54-53-84.5t-62-43-64-12.5zm-129 254q0-59 15-105t45.5-72.5 77.5-26.5q35 0 67.5 19.5t59.5 63.5 43 119v193q-36 25-68.5 33.5t-64.5 8.5-59.5-10-48.5-29-36.5-47-23-64.5-7.5-82.5zm-127-602h629v-10h-629zm0 385h629v-20h-629zm0 485h629v-5h-629zm0 380h629v-10h-629z"/><path transform="translate(122.04 17.85) scale(.014 -.014)" d="m287-18q-72 0-120 32.5t-72 88-24 125.5q0 65 17 118.5t48.5 92 76 59.5 99.5 21q53 0 87-17t50.5-45 16.5-63q0-38-18-68.5t-50-54-75.5-40-95.5-25.5-107-12l-1 46q42 1 84 8t79 19 66 30 45.5 41.5 16.5 52.5q0 39-27 59t-76 20q-35 0-67.5-14t-58-43-40.5-72-15-103q0-71 22.5-117t59.5-68 82-22q40 0 67 13t46.5 32 35.5 39q8 8 16 7.5t16-6.5 11-14-3-16q-18-26-45.5-50t-64-39-82.5-15zm-287-347h526v-10h-526zm0 385h526v-20h-526zm0 485h526v-5h-526zm0 380h526v-10h-526z"/><path transform="translate(129.4 17.85) scale(.014 -.014)" d="m132-15q-13 0-19 4.5t-6 14.5v492q0 10 6 14.5t19 4.5q14 0 20.5-4.5t6.5-14.5v-124q15 41 35 69.5t42.5 45.5 46.5 24.5 46 7.5q28 0 54.5-8.5t40.5-20.5q7-5 8-12t-6-18q-5-9-12.5-11.5t-15.5 0.5q-13 6-33 13t-43 7q-26 0-50.5-12t-46.5-38-38.5-67-27.5-100v-248q0-10-6.5-14.5t-20.5-4.5zm-132-350h454v-10h-454zm0 385h454v-20h-454zm0 485h454v-5h-454zm0 380h454v-10h-454z"/><path transform="translate(135.76 17.85) scale(.014 -.014)" d="m539-17q-19 0-34.5 6t-26.5 18.5-16 30.5-5 43v251q0 44-11 74.5t-35 46.5-64 16q-29 0-57.5-11t-54-36-45-66.5-31.5-102.5v-249q0-10-6.5-14.5t-20.5-4.5q-13 0-19 4.5t-6 14.5v492q0 10 6 14.5t19 4.5q14 0 20.5-4.5t6.5-14.5v-128q17 43 39.5 72t48.5 46.5 53 25 53 7.5q45 0 80.5-18t56-57 20.5-103v-248q0-20 4-33.5t12.5-21 22.5-7.5q11 0 21 4t20 13.5 20 23.5q6 7 12.5 7t13.5-6 8.5-12.5-2.5-12.5q-11-20-28-35t-36-22.5-39-7.5zm-539-348h646v-10h-646zm0 385h646v-20h-646zm0 485h646v-5h-646zm0 380h646v-10h-646z"/><path transform="translate(144.8 17.85) scale(.014 -.014)" d="m254-17q-54 0-95.5 29t-65.5 85-24 137q0 51 9.5 94.5t28.5 78.5 47 60 64.5 38.5 81.5 13.5q34 0 66-10t66-29v16q0 10 6.5 14.5t20.5 4.5q13 0 19.5-4.5t6.5-14.5v-404q0-21 4-34.5t13-20.5 23-7q11 0 20.5 4.5t19.5 14.5 20 24q5 7 11.5 6.5t13.5-6.5q7-5 9-12t-2-13q-11-20-27.5-34.5t-35-22.5-38.5-8-35 5.5-26 17-16.5 28.5-6.5 38q0 12 0 25t0 25q-22-53-52-83.5t-62-43-64-12.5zm-129 254q0-59 15-105t45.5-72.5 77.5-26.5q35 0 67.5 19.5t59 64 42.5 117.5v196q-36 23-68 31.5t-63 8.5q-33 0-60-10t-48.5-29-36.5-47-23-64.5-8-82.5zm-125-602h622v-10h-622zm0 385h622v-20h-622zm0 485h622v-5h-622zm0 380h622v-10h-622z"/><path transform="translate(157.71 17.85) scale(.014 -.014)" d="m440-19q-78 0-142.5 33t-111 92.5-71.5 142.5-25 184q0 68 12 128.5t35.5 111 56.5 91 75 68.5 91.5 43 104.5 15q46 0 88-10.5t79-33.5 66-61q9-10 7.5-16.5t-11.5-14.5q-10-9-17.5-8.5t-16.5 9.5q-25 28-55.5 46t-65.5 27-74 9q-46 0-87-12.5t-76.5-37-64-59.5-48.5-80-30.5-99-10.5-116q0-92 21.5-165.5t60.5-125.5 92.5-79.5 117.5-27.5q47 0 88 12.5t75.5 40 59 71 38.5 105.5 15 144h-245q-8 0-12.5 6t-4.5 19q0 14 4.5 19.5t12.5 5.5h279q12 0 17-5t5-18q0-120-25-206t-70.5-141-106-81-130.5-26zm-440-346h866v-10h-866zm0 385h866v-20h-866zm0 485h866v-5h-866zm0 380h866v-10h-866z"/><path transform="translate(169.83 17.85) scale(.014 -.014)" d="m260-18q-44 0-79 18t-54.5 57.5-19.5 103.5v335q0 10 6 14t19 4q14 0 20.5-4t6.5-14v-329q0-44 11.5-74.5t35-46.5 60.5-16q30 0 58.5 12.5t53.5 38 44 67.5 29 100v249q0 9 6.5 13.5t20.5 4.5q13 0 19.5-4.5t6.5-13.5v-405q0-20 4-34t12.5-21 22.5-7q11 0 21 4.5t20.5 13.5 20.5 23q5 7 11.5 7t14.5-6q6-5 7.5-11.5t-2.5-12.5q-11-20-27.5-35t-35.5-23-39-8-34.5 6-25.5 18-16.5 29.5-5.5 40.5l-1 57q-15-43-37.5-72.5t-48.5-46.5-53-24.5-52-7.5zm-260-347h646v-10h-646zm0 385h646v-20h-646zm0 485h646v-5h-646zm0 380h646v-10h-646z"/><path transform="translate(178.88 17.85) scale(.014 -.014)" d="m189-17q-40 0-61 24.5t-21 73.5v415q0 10 6 14.5t19 4.5q14 0 20.5-4.5t6.5-14.5v-403q0-30 9-46t31-16q11 0 21 4.5t20 13.5 20 24q5 6 12 6t13-6q7-5 9-11.5t-2-13.5q-12-20-28.5-34.5t-35.5-22.5-39-8zm-57 700q-22 0-32.5 12t-10.5 37 10.5 37.5 32.5 12.5 33-12.5 11-37.5-11-37-33-12zm-132-1048h300v-10h-300zm0 385h300v-20h-300zm0 485h300v-5h-300zm0 380h300v-10h-300z"/><path transform="translate(183.08 17.85) scale(.014 -.014)" d="m256-17q-54 0-95.5 29t-65.5 85-24 137q0 51 9.5 94.5t28.5 78.5 47 60 64.5 38.5 82.5 13.5q33 0 65.5-9.5t66.5-29.5v391q0 10 6.5 14.5t19.5 4.5q14 0 20-4.5t6-14.5v-779q0-31 9.5-46.5t30.5-15.5q11 0 21 4.5t20 14.5 20 25q5 6 11.5 5.5t13.5-6.5q7-5 9-12t-2-13q-12-20-28-34.5t-35-22.5-38-8q-28 0-47 11.5t-28 32-9 49.5q0 12 0 24t0 23q-23-54-53-84.5t-62-43-64-12.5zm-129 254q0-59 15-105t45.5-72.5 77.5-26.5q35 0 67.5 19.5t59.5 63.5 43 119v193q-36 25-68.5 33.5t-64.5 8.5-59.5-10-48.5-29-36.5-47-23-64.5-7.5-82.5zm-127-602h629v-10h-629zm0 385h629v-20h-629zm0 485h629v-5h-629zm0 380h629v-10h-629z"/><path transform="translate(191.88 17.85) scale(.014 -.014)" d="m287-18q-72 0-120 32.5t-72 88-24 125.5q0 65 17 118.5t48.5 92 76 59.5 99.5 21q53 0 87-17t50.5-45 16.5-63q0-38-18-68.5t-50-54-75.5-40-95.5-25.5-107-12l-1 46q42 1 84 8t79 19 66 30 45.5 41.5 16.5 52.5q0 39-27 59t-76 20q-35 0-67.5-14t-58-43-40.5-72-15-103q0-71 22.5-117t59.5-68 82-22q40 0 67 13t46.5 32 35.5 39q8 8 16 7.5t16-6.5 11-14-3-16q-18-26-45.5-50t-64-39-82.5-15zm-287-347h526v-10h-526zm0 385h526v-20h-526zm0 485h526v-5h-526zm0 380h526v-10h-526z"/><path transform="translate(199.25 17.85) scale(.014 -.014)" d="m251-19q-47 0-83.5 12.5t-62.5 29.5-39 32q-7 8-6 15.5t10 16.5q8 9 15 9.5t15-7.5q31-27 69-45t84-18q35 0 60 13.5t39 37 14 53.5q0 35-20 55t-51 32-65.5 23-66 26.5-51 43-19.5 72.5q0 39 19.5 70t56 49 86.5 18q37 0 68-10t54-25.5 37-32.5q7-7 5-14.5t-9-14.5-15-7-16 7q-31 25-59.5 38t-66.5 13q-52 0-79.5-23.5t-27.5-63.5q0-35 19.5-55t51-32 66.5-23.5 66.5-27 51-42 19.5-71.5q0-38-18-73.5t-55-58-96-22.5zm-251-346h531v-10h-531zm0 385h531v-20h-531zm0 485h531v-5h-531zm0 380h531v-10h-531z"/></svg>