<svg width="91" height="16" viewBox="0 0 91 16" fill="none" xmlns="http://www.w3.org/2000/svg">
<path d="M0.9905 1.21C1.0105 1.07667 1.06383 0.96 1.1505 0.86C1.24383 0.766667 1.4205 0.7 1.6805 0.66C1.81383 0.64 1.95717 0.623333 2.1105 0.61C2.2705 0.596667 2.43383 0.586667 2.6005 0.58C2.7605 0.58 2.9105 0.58 3.0505 0.58C3.8905 0.58 4.6405 0.71 5.3005 0.97C5.9605 1.23 6.47717 1.61 6.8505 2.11C7.22383 2.61 7.4105 3.22 7.4105 3.94C7.4105 4.46667 7.28383 4.93333 7.0305 5.34C6.77717 5.74667 6.43717 6.08667 6.0105 6.36C5.57717 6.62667 5.09717 6.83 4.5705 6.97C4.04383 7.10333 3.50383 7.17 2.9505 7.17C2.77717 7.17 2.60717 7.16333 2.4405 7.15C2.2805 7.13667 2.1205 7.11667 1.9605 7.09C1.93383 7.75 1.90717 8.42 1.8805 9.1C1.8605 9.77333 1.8305 10.4567 1.7905 11.15C1.78383 11.3433 1.71383 11.4867 1.5805 11.58C1.45383 11.6733 1.30383 11.72 1.1305 11.72C0.957167 11.72 0.807167 11.67 0.6805 11.57C0.553833 11.4767 0.493833 11.33 0.5005 11.13C0.607167 9.47667 0.677167 7.82 0.7105 6.16C0.7505 4.5 0.843833 2.85 0.9905 1.21ZM2.0005 5.88C2.1605 5.9 2.3305 5.92333 2.5105 5.95C2.68383 5.97667 2.88717 5.99 3.1205 5.99C3.42717 5.99 3.75383 5.95333 4.1005 5.88C4.44717 5.8 4.77383 5.67333 5.0805 5.5C5.3805 5.32667 5.62717 5.1 5.8205 4.82C6.00717 4.54667 6.1005 4.22 6.1005 3.84C6.1005 3.62667 6.05383 3.39667 5.9605 3.15C5.8605 2.91 5.69383 2.68333 5.4605 2.47C5.22717 2.26333 4.91717 2.09333 4.5305 1.96C4.14383 1.82 3.65717 1.75 3.0705 1.75C2.8905 1.75 2.73383 1.75667 2.6005 1.77C2.4605 1.78333 2.33717 1.8 2.2305 1.82C2.19717 2.26 2.16717 2.70333 2.1405 3.15C2.11383 3.59667 2.0905 4.04667 2.0705 4.5C2.04383 4.95333 2.0205 5.41333 2.0005 5.88ZM9.7305 0.59C9.7505 0.403333 9.8205 0.26 9.9405 0.16C10.0605 0.0533337 10.2105 0 10.3905 0C10.5572 0 10.6838 0.0333337 10.7705 0.1C10.8638 0.166667 10.9238 0.256667 10.9505 0.37C10.9838 0.49 10.9972 0.623334 10.9905 0.77C10.9705 1.03 10.9305 1.44667 10.8705 2.02C10.8105 2.58667 10.7472 3.37 10.6805 4.37C10.6072 5.37 10.5472 6.65 10.5005 8.21C10.4938 8.70333 10.4805 9.18333 10.4605 9.65C10.4405 10.1233 10.4205 10.5933 10.4005 11.06C10.4005 11.2667 10.3405 11.4167 10.2205 11.51C10.1005 11.6033 9.94717 11.65 9.7605 11.65C9.5805 11.65 9.42717 11.6033 9.3005 11.51C9.17383 11.4167 9.11717 11.2667 9.1305 11.06C9.15717 10.1867 9.1905 9.30667 9.2305 8.42C9.26383 7.53333 9.30383 6.65 9.3505 5.77C9.39717 4.89 9.4505 4.01667 9.5105 3.15C9.5705 2.28333 9.64383 1.43 9.7305 0.59ZM12.6705 8.23C12.6705 7.68333 12.7538 7.15 12.9205 6.63C13.0872 6.11 13.3272 5.64667 13.6405 5.24C13.9472 4.82667 14.3072 4.5 14.7205 4.26C15.1338 4.02667 15.5905 3.91 16.0905 3.91C16.3705 3.91 16.6505 3.95333 16.9305 4.04C17.2172 4.12667 17.4972 4.28 17.7705 4.5C17.8172 4.29333 17.8838 4.14333 17.9705 4.05C18.0572 3.96333 18.1772 3.92 18.3305 3.92C18.5172 3.92 18.6738 3.98 18.8005 4.1C18.9338 4.21333 18.9938 4.37667 18.9805 4.59C18.9738 4.88333 18.9438 5.24333 18.8905 5.67C18.8305 6.09 18.7738 6.51 18.7205 6.93C18.7005 7.06333 18.6705 7.24667 18.6305 7.48C18.5972 7.72 18.5672 7.95667 18.5405 8.19C18.5205 8.42333 18.5105 8.61 18.5105 8.75C18.5105 8.93 18.5238 9.15333 18.5505 9.42C18.5772 9.68667 18.6305 9.92 18.7105 10.12C18.7905 10.3267 18.8972 10.43 19.0305 10.43C19.1305 10.43 19.2238 10.3933 19.3105 10.32C19.3905 10.2467 19.4672 10.1333 19.5405 9.98C19.5872 9.88 19.6572 9.81 19.7505 9.77C19.8372 9.72333 19.9272 9.7 20.0205 9.7C20.1205 9.7 20.2172 9.72667 20.3105 9.78C20.4038 9.83333 20.4772 9.90333 20.5305 9.99C20.5838 10.0767 20.6038 10.1867 20.5905 10.32C20.5905 10.5 20.5205 10.69 20.3805 10.89C20.2405 11.0967 20.0505 11.2733 19.8105 11.42C19.5705 11.5667 19.2938 11.64 18.9805 11.64C18.7205 11.64 18.4872 11.5833 18.2805 11.47C18.0805 11.3567 17.9138 11.1933 17.7805 10.98C17.6472 10.7733 17.5572 10.52 17.5105 10.22C17.2305 10.6333 16.9238 10.9533 16.5905 11.18C16.2572 11.4067 15.8572 11.52 15.3905 11.52C14.7905 11.52 14.2905 11.38 13.8905 11.1C13.4905 10.8133 13.1872 10.4233 12.9805 9.93C12.7738 9.43667 12.6705 8.87 12.6705 8.23ZM13.9705 8.18C13.9705 8.63333 14.0238 9.02333 14.1305 9.35C14.2372 9.67 14.4005 9.91667 14.6205 10.09C14.8338 10.2633 15.1038 10.35 15.4305 10.35C15.6905 10.35 15.9138 10.29 16.1005 10.17C16.2872 10.0567 16.4505 9.89667 16.5905 9.69C16.7305 9.48333 16.8505 9.24667 16.9505 8.98C17.0438 8.74667 17.1272 8.49 17.2005 8.21C17.2672 7.93 17.3238 7.63667 17.3705 7.33C17.4172 7.03 17.4572 6.73333 17.4905 6.44C17.5172 6.15333 17.5405 5.88667 17.5605 5.64C17.3338 5.45333 17.0938 5.31333 16.8405 5.22C16.5805 5.12 16.3472 5.07 16.1405 5.07C15.8072 5.07 15.5072 5.15667 15.2405 5.33C14.9738 5.50333 14.7438 5.73667 14.5505 6.03C14.3638 6.32333 14.2205 6.65333 14.1205 7.02C14.0205 7.39333 13.9705 7.78 13.9705 8.18ZM21.9805 4.4C22.0072 4.24 22.0772 4.12667 22.1905 4.06C22.3038 3.99333 22.4405 3.96 22.6005 3.96C22.6805 3.96 22.7572 3.97667 22.8305 4.01C22.9105 4.03667 22.9805 4.07667 23.0405 4.13C23.1005 4.19 23.1472 4.25667 23.1805 4.33C23.2138 4.41 23.2305 4.50333 23.2305 4.61C23.2305 4.75 23.2005 4.94667 23.1405 5.2C23.0872 5.44667 23.0305 5.76333 22.9705 6.15C22.9172 6.54333 22.8905 7.02333 22.8905 7.59C22.8905 8.07667 22.9338 8.54 23.0205 8.98C23.1138 9.42667 23.2505 9.79 23.4305 10.07C23.6105 10.35 23.8405 10.49 24.1205 10.49C24.3938 10.49 24.6505 10.3833 24.8905 10.17C25.1372 9.96333 25.3605 9.7 25.5605 9.38C25.7605 9.06667 25.9205 8.76 26.0405 8.46V7.83C26.0405 7.39 26.0505 6.96333 26.0705 6.55C26.0905 6.13 26.1238 5.74333 26.1705 5.39C26.2238 5.03667 26.2972 4.74 26.3905 4.5C26.4638 4.29333 26.5605 4.13333 26.6805 4.02C26.8072 3.90667 26.9538 3.85 27.1205 3.85C27.2805 3.85 27.4038 3.89333 27.4905 3.98C27.5772 4.07333 27.6372 4.2 27.6705 4.36C27.7038 4.51333 27.7205 4.7 27.7205 4.92C27.7205 5.48667 27.6938 6.07667 27.6405 6.69C27.5805 7.29667 27.4672 7.89 27.3005 8.47C27.3072 8.67 27.3105 8.87 27.3105 9.07C27.3105 9.27667 27.3138 9.48333 27.3205 9.69C27.3272 9.89667 27.3305 10.1033 27.3305 10.31C27.3305 10.97 27.2872 11.6133 27.2005 12.24C27.1205 12.8667 26.9738 13.43 26.7605 13.93C26.5538 14.4367 26.2538 14.8367 25.8605 15.13C25.4738 15.4233 24.9772 15.57 24.3705 15.57C23.8238 15.57 23.3072 15.4467 22.8205 15.2C22.3338 14.9533 21.9605 14.6 21.7005 14.14C21.6738 14.0733 21.6538 14.0167 21.6405 13.97C21.6272 13.9167 21.6205 13.8667 21.6205 13.82C21.6205 13.7 21.6505 13.5967 21.7105 13.51C21.7705 13.43 21.8472 13.3633 21.9405 13.31C22.0405 13.2567 22.1372 13.23 22.2305 13.23C22.3638 13.23 22.4772 13.2633 22.5705 13.33C22.6638 13.3967 22.7572 13.4933 22.8505 13.62C23.0172 13.8867 23.2505 14.08 23.5505 14.2C23.8505 14.32 24.1305 14.38 24.3905 14.38C24.7972 14.38 25.1138 14.2367 25.3405 13.95C25.5672 13.6567 25.7338 13.2167 25.8405 12.63C25.9472 12.0433 26.0238 11.2967 26.0705 10.39C25.8438 10.7367 25.5638 11.0433 25.2305 11.31C24.8905 11.5767 24.5172 11.71 24.1105 11.71C23.6438 11.71 23.2472 11.59 22.9205 11.35C22.6005 11.11 22.3438 10.7933 22.1505 10.4C21.9505 10 21.8105 9.56333 21.7305 9.09C21.6438 8.61 21.6005 8.13333 21.6005 7.66C21.6005 7.29333 21.6172 6.92333 21.6505 6.55C21.6838 6.17 21.7305 5.79667 21.7905 5.43C21.8505 5.05667 21.9138 4.71333 21.9805 4.4ZM30.3105 15.49C30.1172 15.49 29.9572 15.44 29.8305 15.34C29.7038 15.24 29.6438 15.0867 29.6505 14.88C29.6772 14.3333 29.7038 13.84 29.7305 13.4C29.7505 12.96 29.7705 12.53 29.7905 12.11C29.8105 11.69 29.8305 11.2467 29.8505 10.78C29.8772 10.3067 29.9072 9.77333 29.9405 9.18C29.9738 8.58667 30.0072 7.89333 30.0405 7.1C30.0805 6.30667 30.1272 5.37667 30.1805 4.31C30.1938 4.11 30.2805 3.96333 30.4405 3.87C30.6072 3.77667 30.7705 3.73 30.9305 3.73C31.0772 3.73 31.2005 3.78333 31.3005 3.89C31.3938 4.00333 31.4405 4.14 31.4405 4.3C31.4405 4.44667 31.4405 4.6 31.4405 4.76C31.4338 4.91333 31.4205 5.12 31.4005 5.38C31.7538 4.88667 32.1405 4.51333 32.5605 4.26C32.9738 4.01333 33.4038 3.89 33.8505 3.89C34.2038 3.89 34.5372 3.98333 34.8505 4.17C35.1572 4.35667 35.4272 4.61333 35.6605 4.94C35.8938 5.26 36.0738 5.62667 36.2005 6.04C36.3338 6.46 36.4005 6.90333 36.4005 7.37C36.4005 7.95667 36.3172 8.51 36.1505 9.03C35.9905 9.55667 35.7638 10.02 35.4705 10.42C35.1772 10.82 34.8305 11.1333 34.4305 11.36C34.0372 11.5933 33.6072 11.71 33.1405 11.71C32.7872 11.71 32.4372 11.6433 32.0905 11.51C31.7438 11.3767 31.4272 11.1933 31.1405 10.96C31.1072 11.6467 31.0738 12.3033 31.0405 12.93C31.0138 13.5633 30.9805 14.22 30.9405 14.9C30.9338 15.0733 30.8772 15.2167 30.7705 15.33C30.6705 15.4367 30.5172 15.49 30.3105 15.49ZM33.1105 10.53C33.3838 10.53 33.6372 10.45 33.8705 10.29C34.1038 10.1233 34.3105 9.9 34.4905 9.62C34.6705 9.34 34.8138 9.01667 34.9205 8.65C35.0205 8.27667 35.0705 7.89 35.0705 7.49C35.0705 7.14333 35.0338 6.82333 34.9605 6.53C34.8938 6.23667 34.7972 5.98333 34.6705 5.77C34.5438 5.55667 34.3938 5.39 34.2205 5.27C34.0472 5.15667 33.8538 5.1 33.6405 5.1C33.4338 5.1 33.2172 5.17333 32.9905 5.32C32.7638 5.47333 32.5372 5.67667 32.3105 5.93C32.0905 6.19 31.8872 6.48333 31.7005 6.81C31.5205 7.13667 31.3705 7.48 31.2505 7.84C31.2372 8.16 31.2272 8.45667 31.2205 8.73C31.2138 9.00333 31.2005 9.30333 31.1805 9.63C31.4672 9.92333 31.7872 10.1467 32.1405 10.3C32.4872 10.4533 32.8105 10.53 33.1105 10.53ZM41.0605 11.51C40.5472 11.51 40.0905 11.4067 39.6905 11.2C39.2905 10.9933 38.9505 10.7167 38.6705 10.37C38.3905 10.0167 38.1772 9.62333 38.0305 9.19C37.8838 8.75667 37.8105 8.31667 37.8105 7.87C37.8105 7.39667 37.9072 6.92667 38.1005 6.46C38.2938 5.99333 38.5605 5.56333 38.9005 5.17C39.2405 4.77667 39.6338 4.46333 40.0805 4.23C40.5272 3.99667 41.0072 3.88 41.5205 3.88C41.9272 3.88 42.2805 3.96333 42.5805 4.13C42.8872 4.29 43.1238 4.51 43.2905 4.79C43.4638 5.07 43.5505 5.39667 43.5505 5.77C43.5505 6.16333 43.4538 6.53333 43.2605 6.88C43.0672 7.23333 42.7905 7.51667 42.4305 7.73C41.9572 8.05667 41.4372 8.28333 40.8705 8.41C40.3105 8.53667 39.7405 8.61 39.1605 8.63C39.2338 8.89667 39.3538 9.16 39.5205 9.42C39.6872 9.68667 39.9038 9.90333 40.1705 10.07C40.4372 10.2433 40.7538 10.33 41.1205 10.33C41.4672 10.33 41.8005 10.23 42.1205 10.03C42.4405 9.83 42.7172 9.6 42.9505 9.34C43.0105 9.26667 43.0738 9.21667 43.1405 9.19C43.2138 9.15667 43.2805 9.14 43.3405 9.14C43.4538 9.14 43.5572 9.17 43.6505 9.23C43.7438 9.28333 43.8205 9.35667 43.8805 9.45C43.9338 9.54333 43.9605 9.64667 43.9605 9.76C43.9672 9.83333 43.9572 9.90667 43.9305 9.98C43.9038 10.0467 43.8572 10.1133 43.7905 10.18C43.4438 10.5533 43.0405 10.87 42.5805 11.13C42.1205 11.3833 41.6138 11.51 41.0605 11.51ZM39.1005 7.48C39.4738 7.46 39.8205 7.43 40.1405 7.39C40.4538 7.34333 40.7838 7.25 41.1305 7.11C41.4372 6.99 41.7072 6.81667 41.9405 6.59C42.1738 6.36333 42.2905 6.08667 42.2905 5.76C42.2905 5.62667 42.2605 5.50667 42.2005 5.4C42.1405 5.29333 42.0538 5.20333 41.9405 5.13C41.8205 5.06333 41.6672 5.03 41.4805 5.03C41.1805 5.03 40.8972 5.10333 40.6305 5.25C40.3572 5.40333 40.1138 5.59667 39.9005 5.83C39.6872 6.07 39.5105 6.33333 39.3705 6.62C39.2372 6.91333 39.1472 7.2 39.1005 7.48ZM45.9805 4.19C46.0072 4.03 46.0805 3.91667 46.2005 3.85C46.3205 3.77667 46.4505 3.74 46.5905 3.74C46.7572 3.74 46.9038 3.79667 47.0305 3.91C47.1572 4.02333 47.2205 4.15333 47.2205 4.3C47.2205 4.34667 47.2105 4.44333 47.1905 4.59C47.1772 4.74333 47.1605 4.90667 47.1405 5.08C47.1205 5.26 47.1072 5.42333 47.1005 5.57C47.2872 5.23667 47.4972 4.94 47.7305 4.68C47.9705 4.42 48.2405 4.21333 48.5405 4.06C48.8405 3.91333 49.1672 3.84 49.5205 3.84C50.3472 3.84 50.9638 4.13667 51.3705 4.73C51.7772 5.32333 51.9805 6.10333 51.9805 7.07C51.9805 7.55 51.9472 8.01667 51.8805 8.47C51.8205 8.91667 51.7572 9.36 51.6905 9.8C51.6238 10.2333 51.5905 10.6633 51.5905 11.09C51.5905 11.27 51.5272 11.41 51.4005 11.51C51.2738 11.61 51.1238 11.66 50.9505 11.66C50.7705 11.66 50.6172 11.61 50.4905 11.51C50.3638 11.41 50.3005 11.2667 50.3005 11.08C50.3005 10.62 50.3372 10.18 50.4105 9.76C50.4772 9.34 50.5438 8.91667 50.6105 8.49C50.6772 8.05667 50.7105 7.60667 50.7105 7.14C50.7105 6.58 50.6505 6.15 50.5305 5.85C50.4172 5.55667 50.2605 5.35 50.0605 5.23C49.8605 5.11667 49.6338 5.06 49.3805 5.06C49.0605 5.06 48.7738 5.17 48.5205 5.39C48.2738 5.60333 48.0538 5.87667 47.8605 6.21C47.6672 6.54333 47.5072 6.89 47.3805 7.25C47.2538 7.61667 47.1538 7.94 47.0805 8.22C47.0805 8.73333 47.0772 9.23333 47.0705 9.72C47.0572 10.2133 47.0372 10.6733 47.0105 11.1C47.0038 11.26 46.9405 11.3967 46.8205 11.51C46.6938 11.6233 46.5338 11.68 46.3405 11.68C46.1538 11.68 46.0105 11.6267 45.9105 11.52C45.8038 11.4133 45.7338 11.27 45.7005 11.09C45.6605 10.91 45.6405 10.72 45.6405 10.52C45.6405 10.1933 45.6538 9.84667 45.6805 9.48C45.7072 9.11333 45.7605 8.76 45.8405 8.42C45.8272 7.88667 45.8205 7.41 45.8205 6.99C45.8205 6.57 45.8238 6.19333 45.8305 5.86C45.8372 5.52667 45.8505 5.22667 45.8705 4.96C45.8972 4.68667 45.9338 4.43 45.9805 4.19ZM66.5005 1.63C66.5538 1.68333 66.5972 1.74333 66.6305 1.81C66.6638 1.88333 66.6805 1.96667 66.6805 2.06C66.6805 2.17333 66.6538 2.27667 66.6005 2.37C66.5405 2.46333 66.4638 2.53667 66.3705 2.59C66.2772 2.65 66.1705 2.68 66.0505 2.68C65.9705 2.68 65.8705 2.64667 65.7505 2.58C65.6372 2.51333 65.4938 2.43333 65.3205 2.34C65.0405 2.18 64.7538 2.06333 64.4605 1.99C64.1672 1.91667 63.8105 1.88 63.3905 1.88C62.9172 1.88 62.5205 1.94333 62.2005 2.07C61.8872 2.20333 61.6505 2.37667 61.4905 2.59C61.3305 2.80333 61.2505 3.03667 61.2505 3.29C61.2505 3.59667 61.3638 3.86667 61.5905 4.1C61.8238 4.33333 62.1172 4.54667 62.4705 4.74C62.8305 4.93333 63.2072 5.12667 63.6005 5.32C64.3272 5.66667 64.9172 6.01667 65.3705 6.37C65.8238 6.72333 66.1572 7.10667 66.3705 7.52C66.5772 7.93333 66.6805 8.4 66.6805 8.92C66.6805 9.32 66.6005 9.69333 66.4405 10.04C66.2738 10.3867 66.0405 10.69 65.7405 10.95C65.4338 11.21 65.0772 11.4133 64.6705 11.56C64.2572 11.7067 63.8038 11.78 63.3105 11.78C62.9705 11.78 62.5972 11.7333 62.1905 11.64C61.7772 11.5533 61.3938 11.4367 61.0405 11.29C60.6872 11.15 60.4072 11.0033 60.2005 10.85C59.9405 10.63 59.8105 10.41 59.8105 10.19C59.8105 10.0833 59.8338 9.98333 59.8805 9.89C59.9338 9.79667 60.0038 9.72 60.0905 9.66C60.1838 9.60667 60.2772 9.58 60.3705 9.58C60.4438 9.58 60.5305 9.60333 60.6305 9.65C60.7238 9.69667 60.8338 9.75667 60.9605 9.83C61.2205 9.97667 61.5372 10.1367 61.9105 10.31C62.2905 10.4767 62.7505 10.56 63.2905 10.56C63.6838 10.56 64.0372 10.4867 64.3505 10.34C64.6638 10.1933 64.9138 10 65.1005 9.76C65.2872 9.52 65.3805 9.25 65.3805 8.95C65.3805 8.62333 65.2905 8.31333 65.1105 8.02C64.9372 7.72667 64.6805 7.44667 64.3405 7.18C64.0005 6.92 63.5738 6.68333 63.0605 6.47C62.7138 6.31 62.3572 6.14333 61.9905 5.97C61.6305 5.79 61.2938 5.58 60.9805 5.34C60.6738 5.10667 60.4272 4.81667 60.2405 4.47C60.0538 4.13 59.9605 3.72333 59.9605 3.25C59.9605 2.73667 60.1105 2.29 60.4105 1.91C60.7105 1.52333 61.1238 1.22 61.6505 1C62.1772 0.78 62.7905 0.67 63.4905 0.67C64.0705 0.67 64.6272 0.756667 65.1605 0.93C65.6872 1.09667 66.1338 1.33 66.5005 1.63ZM68.3305 8.23C68.3305 7.68333 68.4172 7.15 68.5905 6.63C68.7572 6.11 68.9938 5.64667 69.3005 5.24C69.6072 4.82667 69.9672 4.5 70.3805 4.26C70.8005 4.02667 71.2572 3.91 71.7505 3.91C72.0305 3.91 72.3138 3.95333 72.6005 4.04C72.8805 4.12667 73.1572 4.28 73.4305 4.5C73.4772 4.29333 73.5438 4.14333 73.6305 4.05C73.7238 3.96333 73.8438 3.92 73.9905 3.92C74.1772 3.92 74.3372 3.98 74.4705 4.1C74.5972 4.21333 74.6572 4.37667 74.6505 4.59C74.6372 4.88333 74.6038 5.24333 74.5505 5.67C74.4972 6.09 74.4405 6.51 74.3805 6.93C74.3605 7.06333 74.3338 7.24667 74.3005 7.48C74.2605 7.72 74.2305 7.95667 74.2105 8.19C74.1838 8.42333 74.1705 8.61 74.1705 8.75C74.1705 8.93 74.1838 9.15333 74.2105 9.42C74.2438 9.68667 74.2972 9.92 74.3705 10.12C74.4505 10.3267 74.5572 10.43 74.6905 10.43C74.7905 10.43 74.8838 10.3933 74.9705 10.32C75.0572 10.2467 75.1372 10.1333 75.2105 9.98C75.2572 9.88 75.3238 9.81 75.4105 9.77C75.4972 9.72333 75.5872 9.7 75.6805 9.7C75.7872 9.7 75.8872 9.72667 75.9805 9.78C76.0738 9.83333 76.1438 9.90333 76.1905 9.99C76.2438 10.0767 76.2672 10.1867 76.2605 10.32C76.2605 10.5 76.1905 10.69 76.0505 10.89C75.9105 11.0967 75.7172 11.2733 75.4705 11.42C75.2305 11.5667 74.9572 11.64 74.6505 11.64C74.3905 11.64 74.1572 11.5833 73.9505 11.47C73.7438 11.3567 73.5738 11.1933 73.4405 10.98C73.3138 10.7733 73.2272 10.52 73.1805 10.22C72.9005 10.6333 72.5905 10.9533 72.2505 11.18C71.9172 11.4067 71.5172 11.52 71.0505 11.52C70.4505 11.52 69.9505 11.38 69.5505 11.1C69.1505 10.8133 68.8472 10.4233 68.6405 9.93C68.4338 9.43667 68.3305 8.87 68.3305 8.23ZM69.6405 8.18C69.6405 8.63333 69.6938 9.02333 69.8005 9.35C69.9072 9.67 70.0672 9.91667 70.2805 10.09C70.4938 10.2633 70.7638 10.35 71.0905 10.35C71.3505 10.35 71.5738 10.29 71.7605 10.17C71.9472 10.0567 72.1105 9.89667 72.2505 9.69C72.3905 9.48333 72.5138 9.24667 72.6205 8.98C72.7138 8.74667 72.7938 8.49 72.8605 8.21C72.9338 7.93 72.9938 7.63667 73.0405 7.33C73.0872 7.03 73.1238 6.73333 73.1505 6.44C73.1772 6.15333 73.2005 5.88667 73.2205 5.64C72.9938 5.45333 72.7538 5.31333 72.5005 5.22C72.2405 5.12 72.0105 5.07 71.8105 5.07C71.4705 5.07 71.1672 5.15667 70.9005 5.33C70.6338 5.50333 70.4072 5.73667 70.2205 6.03C70.0272 6.32333 69.8805 6.65333 69.7805 7.02C69.6872 7.39333 69.6405 7.78 69.6405 8.18ZM77.7605 4.19C77.7872 4.03 77.8605 3.91667 77.9805 3.85C78.1005 3.77667 78.2305 3.74 78.3705 3.74C78.5372 3.74 78.6838 3.79667 78.8105 3.91C78.9372 4.02333 79.0005 4.15333 79.0005 4.3C79.0005 4.34667 78.9905 4.44333 78.9705 4.59C78.9572 4.74333 78.9405 4.90667 78.9205 5.08C78.9005 5.26 78.8872 5.42333 78.8805 5.57C79.0672 5.23667 79.2772 4.94 79.5105 4.68C79.7505 4.42 80.0205 4.21333 80.3205 4.06C80.6205 3.91333 80.9472 3.84 81.3005 3.84C82.1272 3.84 82.7438 4.13667 83.1505 4.73C83.5572 5.32333 83.7605 6.10333 83.7605 7.07C83.7605 7.55 83.7272 8.01667 83.6605 8.47C83.6005 8.91667 83.5372 9.36 83.4705 9.8C83.4038 10.2333 83.3705 10.6633 83.3705 11.09C83.3705 11.27 83.3072 11.41 83.1805 11.51C83.0538 11.61 82.9038 11.66 82.7305 11.66C82.5505 11.66 82.3972 11.61 82.2705 11.51C82.1438 11.41 82.0805 11.2667 82.0805 11.08C82.0805 10.62 82.1172 10.18 82.1905 9.76C82.2572 9.34 82.3238 8.91667 82.3905 8.49C82.4572 8.05667 82.4905 7.60667 82.4905 7.14C82.4905 6.58 82.4305 6.15 82.3105 5.85C82.1972 5.55667 82.0405 5.35 81.8405 5.23C81.6405 5.11667 81.4138 5.06 81.1605 5.06C80.8405 5.06 80.5538 5.17 80.3005 5.39C80.0538 5.60333 79.8338 5.87667 79.6405 6.21C79.4472 6.54333 79.2872 6.89 79.1605 7.25C79.0338 7.61667 78.9338 7.94 78.8605 8.22C78.8605 8.73333 78.8572 9.23333 78.8505 9.72C78.8372 10.2133 78.8172 10.6733 78.7905 11.1C78.7838 11.26 78.7205 11.3967 78.6005 11.51C78.4738 11.6233 78.3138 11.68 78.1205 11.68C77.9338 11.68 77.7905 11.6267 77.6905 11.52C77.5838 11.4133 77.5138 11.27 77.4805 11.09C77.4405 10.91 77.4205 10.72 77.4205 10.52C77.4205 10.1933 77.4338 9.84667 77.4605 9.48C77.4872 9.11333 77.5405 8.76 77.6205 8.42C77.6072 7.88667 77.6005 7.41 77.6005 6.99C77.6005 6.57 77.6038 6.19333 77.6105 5.86C77.6172 5.52667 77.6305 5.22667 77.6505 4.96C77.6772 4.68667 77.7138 4.43 77.7605 4.19ZM90.4705 4.92C90.5372 4.99333 90.5772 5.06667 90.5905 5.14C90.6105 5.21333 90.6205 5.28333 90.6205 5.35C90.6205 5.46333 90.5905 5.56333 90.5305 5.65C90.4705 5.73667 90.3938 5.80667 90.3005 5.86C90.2072 5.91333 90.1105 5.94 90.0105 5.94C89.9172 5.94 89.8305 5.91667 89.7505 5.87C89.6772 5.82333 89.6072 5.76667 89.5405 5.7C89.4472 5.56 89.2905 5.42 89.0705 5.28C88.8572 5.14 88.5872 5.07 88.2605 5.07C87.9472 5.07 87.6805 5.14333 87.4605 5.29C87.2338 5.44333 87.1205 5.64 87.1205 5.88C87.1205 6.17333 87.2172 6.39333 87.4105 6.54C87.6038 6.68667 87.9138 6.87 88.3405 7.09C88.6672 7.24333 88.9805 7.43 89.2805 7.65C89.5872 7.87 89.8405 8.13667 90.0405 8.45C90.2405 8.76333 90.3405 9.14 90.3405 9.58C90.3405 9.95333 90.2505 10.2933 90.0705 10.6C89.8905 10.9067 89.6338 11.1533 89.3005 11.34C88.9672 11.5267 88.5738 11.62 88.1205 11.62C87.6072 11.62 87.0972 11.5067 86.5905 11.28C86.0838 11.0533 85.6538 10.7833 85.3005 10.47C85.2338 10.4167 85.1872 10.3567 85.1605 10.29C85.1338 10.2167 85.1205 10.1467 85.1205 10.08C85.1205 9.91333 85.1805 9.76333 85.3005 9.63C85.4205 9.49 85.5605 9.42 85.7205 9.42C85.7672 9.42 85.8172 9.43 85.8705 9.45C85.9238 9.47 85.9805 9.50333 86.0405 9.55C86.3405 9.78333 86.6672 9.99333 87.0205 10.18C87.3672 10.3667 87.7005 10.46 88.0205 10.46C88.3738 10.46 88.6305 10.38 88.7905 10.22C88.9572 10.0533 89.0405 9.86667 89.0405 9.66C89.0405 9.32667 88.9105 9.03667 88.6505 8.79C88.3972 8.54333 88.0638 8.33 87.6505 8.15C87.2238 7.95667 86.8738 7.74667 86.6005 7.52C86.3205 7.29333 86.1172 7.04667 85.9905 6.78C85.8705 6.52 85.8105 6.23 85.8105 5.91C85.8105 5.51667 85.9238 5.17 86.1505 4.87C86.3772 4.57667 86.6772 4.34333 87.0505 4.17C87.4238 4.00333 87.8272 3.92 88.2605 3.92C88.6938 3.92 89.1138 4.00667 89.5205 4.18C89.9205 4.35333 90.2372 4.6 90.4705 4.92Z" fill="black"/>
</svg>
