<svg width="99.078" height="26.614" viewBox="0 0 99.078 26.614" xmlns="http://www.w3.org/2000/svg"><path transform="translate(0 19.754) scale(.014 -.014)" d="m448 376q-17-1-25.5 10.5t-8.5 27.5 6 26 21 11q65 3 118.5 17t96 39 72 59 45 76 15.5 90q0 47-19.5 82.5t-56.5 59-88.5 35-115.5 11.5q-84 0-154-16t-126.5-48.5-101.5-80.5q-12-14-25.5-16t-28.5 9q-16 13-18 26.5t10 27.5q35 44 82 77t104.5 55.5 124 34.5 140.5 12q88 0 156-18t114.5-52 70.5-84 24-115q0-60-20-113t-57-96-90-74.5-119.5-50-145.5-22.5zm-244-393q-43 0-76.5 16.5t-56 38.5-33.5 37q-11 17-10 31t17 25q18 11 30.5 7.5t26.5-18.5q15-15 30-27t33.5-19 41.5-7q39 0 56.5 30.5t17.5 96.5v605q0 14 11 20.5t32 6.5q22 0 33-6.5t11-20.5v-611q0-62-17.5-108.5t-54-71.5-92.5-25z"/><path transform="translate(12.768 19.754) scale(.014 -.014)" d="m194-17q-52 0-75.5 27t-23.5 76v889q0 13 10.5 19.5t31.5 6.5q22 0 33-6.5t11-19.5v-879q0-20 9-29t22-9q11 0 18.5 3t14.5 8.5 14 10.5q8 6 17 3.5t18-13.5q5-7 7.5-17t-2.5-18q-11-17-28.5-28.5t-37.5-17.5-39-6z"/><path transform="translate(16.954 19.754) scale(.014 -.014)" d="m258-17q-57 0-101 27.5t-69 83.5-25 141q0 52 9.5 96t28.5 79 46 59 62 37 77 13q32 0 66-10.5t64-27.5v5q0 15 11 22t33 7 32.5-6.5 10.5-20.5v-392q0-13 4-21.5t11-12.5 16-4q10 0 16.5 2.5t13 7.5 15.5 12q7 6 16 3.5t18-10.5q9-10 10-21t-4-19q-11-16-28-27t-36.5-17-39.5-6q-23 0-40 5t-29 15.5-18.5 25.5-9.5 34q0 1-1 4.5t-1 7.5q-23-37-49.5-57t-54.5-27.5-54-7.5zm-107 256q0-55 13-94.5t39.5-60.5 66.5-21q29 0 55.5 10t49.5 33 41 60v242q-31 19-60 25.5t-61 6.5q-26 0-48-8t-40-24-30.5-40-19-56-6.5-73z"/><path transform="translate(25.662 19.754) scale(.014 -.014)" d="m492-5q16 10 32 20t31 18.5 28 15 24 11.5q15 7 26 0.5t15.5-20 1-27-18.5-20.5q-13-7-29.5-16t-34-20-35.5-22-35-21zm-169-500q-47 0-81 16.5t-52.5 48-18.5 76.5q0 33 10 66.5t31 67.5 53 67.5 75 65.5q24 16 47.5 32t47.5 31v111q-13-22-30.5-39.5t-38.5-29.5-45.5-18.5-51.5-6.5q-58 0-97 20.5t-58.5 61-19.5 101.5v323q0 13 10.5 19.5t31.5 6.5q22 0 33-6.5t11-19.5v-323q0-35 11-59t33.5-36 55.5-12q28 0 52 9t43.5 24.5 34.5 37.5 25 47v312q0 13 10.5 19.5t32.5 6.5q21 0 32-6.5t11-19.5v-732q0-62-14-111t-40-82.5-62.5-51-81.5-17.5zm5 77q25 0 45 12.5t34 36 21 58.5 7 81v117q-20-12-39.5-24t-39.5-26q-23-19-41-41t-30.5-46-18.5-48.5-6-48.5q0-22 7.5-38t22.5-24.5 38-8.5z"/><path transform="translate(34.622 19.754) scale(.014 -.014)" d="m248-17q-36 0-64.5 11.5t-48.5 34.5-30.5 57-10.5 80v323q0 13 10.5 19.5t32.5 6.5q21 0 32-6.5t11-19.5v-323q0-35 8.5-59t27-36 47.5-12q26 0 46 9t35 24.5 26 37 18 46.5v313q0 12 10.5 19t31.5 7q24 0 34-7t10-19v-278q0-46 4-75t13.5-45.5 26-23 40.5-6.5q20 0 39.5 6t37 19.5 31 35.5 21.5 52.5 8 71.5q0 38-5.5 75t-17 72.5-30.5 67.5q-11 18-6 31t19 20 29 7q14 0 21-6t14-18q15-23 29.5-59.5t24.5-82.5 10-98q0-42-10-82.5t-29-75-47.5-60.5-65.5-41-83-15q-33 0-61 10.5t-48.5 33-33.5 56.5q-16-30-40-52t-53.5-34-63.5-12z"/><path transform="translate(46.62 19.754) scale(.014 -.014)" d="m161-15q-21 0-31.5 6.5t-10.5 19.5v358q0 42-13 56.5t-36 14.5q-17 0-28.5-9t-18-26-8.5-40q-1-16-9-23.5t-26-7.5q-16 0-26 7t-9 33q2 43 17.5 74.5t43 49 64.5 17.5q27 0 49-6t38-19 26.5-32 15.5-45l1-5q11 26 26 46.5t32 35 35.5 22 36.5 7.5q14 0 24.5-7t10.5-31q0-28 5.5-47t16-28.5 24.5-9.5q25 0 52 23t52 51q9 10 20 7.5t20.5-12.5 12.5-21.5-4-19.5q-33-40-73-68t-80-28q-27 0-50.5 12t-39 36-20.5 58q-15-6-28.5-19t-26-31.5-23-42-18.5-49.5v-281q0-13-11-19.5t-33-6.5z"/><path transform="translate(54.334 19.754) scale(.014 -.014)" d="m193-17q-52 0-75.5 27t-23.5 76v403q0 13 10.5 19.5t31.5 6.5q22 0 33-6.5t11-19.5v-393q0-20 9-29t22-9q11 0 18.5 3.5t14 8.5 14.5 11q6 5 16.5 1t16.5-12q8-9 9-19t-5-18q-11-16-27.5-27t-36-17-38.5-6zm-55 686q-28 0-42.5 15.5t-14.5 46.5q0 32 14.5 48t42.5 16q27 0 41-16t14-48q1-31-13.5-46.5t-41.5-15.5z"/><path transform="translate(58.534 19.754) scale(.014 -.014)" d="m243-17q-42 0-69.5 15.5t-41 44-13.5 68.5v309h-78q-15 0-21 9t-6 31q0 23 6 31.5t21 8.5h78v204q0 13 10.5 19.5t31.5 6.5q22 0 33-6.5t11-19.5v-204h126q15 0 21.5-8.5t6.5-31.5q0-22-6.5-31t-21.5-9h-126v-299q0-34 9.5-48.5t34.5-14.5q23 0 39.5 11t34.5 27q12 11 22.5 7.5t19.5-12.5q11-10 11.5-20.5t-5.5-19.5q-17-25-38-40t-44-21.5-46-6.5z"/><path transform="translate(63.966 19.754) scale(.014 -.014)" d="m300-17q-40 0-77.5 17t-69 48-55 73.5-36.5 93-13 106.5q0 34 8 64.5t23 55 36 42 47 27 56 9.5q57 0 92.5-23t51.5-60.5 16-80.5q0-34-12.5-70t-34.5-70.5-51-66.5q-43-48-98-85.5t-116.5-58.5-126.5-21q-14 0-21 11.5t-5.5 26 12.5 26 33 11.5q46 0 94.5 18t92.5 48 75 65q22 25 37.5 51.5t23.5 53.5 8 52q0 53-20 73.5t-54 20.5q-17 0-31.5-7.5t-25.5-23-17-37.5-6-51q0-57 16.5-104.5t43.5-81.5 57.5-53 57.5-19q19 0 37 7.5t37.5 22.5 39.5 37q14 16 27 15.5t27-11.5 16.5-23-6.5-26q-25-38-58.5-60.5t-67.5-32-63-9.5z"/><path transform="translate(74.382 19.754) scale(.014 -.014)" d="m448 376q-17-1-25.5 10.5t-8.5 27.5 6 26 21 11q65 3 118.5 17t96 39 72 59 45 76 15.5 90q0 47-19.5 82.5t-56.5 59-88.5 35-115.5 11.5q-84 0-154-16t-126.5-48.5-101.5-80.5q-12-14-25.5-16t-28.5 9q-16 13-18 26.5t10 27.5q35 44 82 77t104.5 55.5 124 34.5 140.5 12q88 0 156-18t114.5-52 70.5-84 24-115q0-60-20-113t-57-96-90-74.5-119.5-50-145.5-22.5zm-244-393q-43 0-76.5 16.5t-56 38.5-33.5 37q-11 17-10 31t17 25q18 11 30.5 7.5t26.5-18.5q15-15 30-27t33.5-19 41.5-7q39 0 56.5 30.5t17.5 96.5v605q0 14 11 20.5t32 6.5q22 0 33-6.5t11-20.5v-611q0-62-17.5-108.5t-54-71.5-92.5-25z"/><path transform="translate(87.15 19.754) scale(.014 -.014)" d="m148-21q-40 0-70.5 12.5t-47.5 37.5-17 60q0 37 16.5 65.5t46 44.5 67.5 16q37 0 68-10.5t59-26.5 56.5-34 60.5-34 69.5-26 85.5-10q54 0 95.5 19t69.5 49 40 64q7 17 19 22.5t31-0.5q17-4 22.5-15t0.5-31q-15-55-55-98.5t-96.5-68.5-123.5-25q-70 0-120.5 15t-88 36.5-69 43-62 36.5-67.5 15q-21 0-31.5-11.5t-10.5-28.5q0-18 14.5-29t33.5-11q41 0 64.5 36.5t23.5 95.5v538q0 67 16 118.5t47.5 86 78 52.5 107.5 18q57 0 101.5-18.5t75.5-55.5 47-95q7-23 2-35.5t-24-18.5q-23-7-35-0.5t-19 27.5q-12 35-31.5 60.5t-49 39-69.5 13.5q-39 0-69-11.5t-50-34.5-30.5-59.5-10.5-86.5v-538q0-64-21-111t-59-72.5-91-25.5z"/></svg>