<svg width="144.72" height="27.048" viewBox="0 0 144.72 27.048" xmlns="http://www.w3.org/2000/svg"><path transform="translate(0 19.992) scale(.014 -.014)" d="m116-14q-47 0-39 30l274 954q4 14 16 21t34 7h180q101 0 168.5-24t101.5-72.5 34-123.5q0-84-31-147.5t-89-107.5-137.5-72-175.5-40q-43-6-89-8.5t-88-3.5l-110-385q-5-14-15.5-21t-33.5-7zm182 493q26 0 56 1.5t60.5 4.5 58.5 6q102 17 174 52t110 91 38 134q0 54-24 86.5t-73.5 48-128.5 15.5h-145z"/><path transform="translate(10.878 19.992) scale(.014 -.014)" d="m129-15q-55 0-70.5 42.5t9.5 124.5l242 832q6 19 16 25t29 6q30 0 38.5-9t2.5-29l-256-874q-6-21-3.5-31.5t15.5-10.5q9 0 17.5 6t19 18 25.5 30q7 10 15.5 12t19.5-6q16-9 19.5-19t-1.5-20q-20-33-41.5-55t-46-32-50.5-10z"/><path transform="translate(15.064 19.992) scale(.014 -.014)" d="m157-17q-36 0-63 19t-41.5 54.5-14.5 83.5q0 47 13.5 99t40.5 101.5 66 90 89 64.5 112 24q29 0 60.5-7.5t61.5-21.5l1 4q5 13 15 17t27 4q30 0 39-9t3-29l-112-374q-5-18-5-27t4-12 9-3q10 0 20 6.5t22 18.5 25 29q8 10 16 12t19-6q16-10 19.5-19.5t-1.5-20.5q-9-16-28.5-39t-47-40-63.5-17q-35 0-53 15.5t-22 39 0.5 51 11.5 51.5q2 4 2.5 8t0.5 9q-39-59-78-98t-76.5-58.5-71.5-19.5zm-28 172q0-28 6-49t18.5-32 29.5-11q35 0 79 37.5t91.5 109 96.5 174.5l10 34q-32 14-60.5 18t-51.5 4q-41 0-75.5-18.5t-61-49.5-45-69-28-76.5-9.5-71.5z"/><path transform="translate(23.772 19.992) scale(.014 -.014)" d="m158-15q-45 0-71 21.5t-30 65 15 107.5l89 305q6 19 15.5 25t28.5 6q30 0 39-9t3-29l-95-318q-8-25-9.5-47t8.5-34.5 37-12.5q35 0 75 29.5t81 82.5 80.5 125.5 72.5 159.5l4 22q6 19 16 25t29 6q30 0 39-9t2-29l-218-751q-26-92-57-145.5t-75.5-76-113.5-22.5q-36 0-68 8.5t-59.5 24-48.5 32.5q-16 14-21 27.5t15 31.5q18 15 29 16.5t27-13.5q28-22 59.5-36t71.5-14q42 0 70 16.5t48 53.5 38 99l133 461q-30-50-61.5-88t-64.5-64-66.5-39-66.5-13z"/><path transform="translate(32.564 19.992) scale(.014 -.014)" d="m173-19q-44 0-68.5 18t-34 49.5-6.5 71.5 16 82l80 283q4 14 13 22.5t33 8.5q31 0 38.5-9.5t2.5-27.5l-85-293q-9-33-12.5-62t6-46 39.5-17q28 0 56.5 20.5t55 54.5 49 75.5 39.5 83.5l55 190q4 14 13 22.5t32 8.5q32 0 38.5-9.5t0.5-27.5l-75-279q-4-17-8-40.5t-2.5-46.5 13-37.5 38.5-14.5q32 0 63.5 21t58 55.5 47 77.5 32.5 88.5 12 86.5q0 10-0.5 22t-2 25.5-5.5 26.5q-4 18-0.5 30.5t13.5 18.5 25 6q19 0 30.5-11t16.5-37q4-10 6-21t2.5-22 0.5-23q0-54-15.5-112.5t-44-114-68-100-88-71-104.5-26.5q-45 0-71.5 18t-38 47.5-12.5 65.5q-24-39-52.5-68.5t-61.5-46-70-16.5z"/><path transform="translate(44.534 19.992) scale(.014 -.014)" d="m65-15q-17 0-30.5 7t-7.5 25l134 467q6 19 15.5 25t28.5 6q30 0 39-9t3-29l-47-161q30 49 60.5 87t60 64 56.5 39 49 13q27 0 47.5-13t32.5-31q8-10 6-21.5t-12-22.5q-11-11-21-16t-18 4q-10 8-22 14t-23 6q-26 0-63-28.5t-77.5-81-81-124-73.5-156.5l-9-38q-3-13-13.5-19.5t-33.5-6.5z"/><path transform="translate(50.89 19.992) scale(.014 -.014)" d="m127-15q-55 0-70 42.5t9 124.5l95 332q6 19 15.5 25t28.5 6q30 0 39-9t3-29l-109-374q-6-21-3.5-31.5t15.5-10.5q8 0 17 6t19.5 18 26.5 30q7 10 15 12t20-6q15-9 19-19t-2-20q-20-33-41.5-55t-45.5-32-51-10zm133 684q-21 0-35 13.5t-14 38.5q0 28 17 51t53 23q22 0 36-13t14-39q0-28-17-51t-54-23z"/><path transform="translate(55.09 19.992) scale(.014 -.014)" d="m162-15q-39 0-62.5 18t-28.5 54 11 88l78 275h-76q-11 0-15.5 10t0.5 30 14.5 30 21.5 10h79l58 199q6 19 15.5 25t29.5 6q30 0 39-9t2-29l-57-192h127q11 0 15.5-9.5t-0.5-30.5q-4-19-14-29.5t-21-10.5h-130l-87-295q-10-34-4.5-49t23.5-15q20 0 46.5 17t53.5 55q9 9 18 10.5t24-7.5q15-8 17.5-18t-1.5-18q-12-22-36.5-49t-59.5-46.5-80-19.5z"/><path transform="translate(60.522 19.992) scale(.014 -.014)" d="m227-19q-61 0-100 25t-57.5 68.5-18.5 96.5q0 59 20.5 120.5t59.5 113 96.5 83 131.5 31.5q48 0 79.5-15t47.5-41.5 16-63.5q0-42-25-75t-67-59-95.5-45-109.5-31.5-109-20.5l7 70q34 6 75 14.5t82 20.5 75.5 29 55 39 20.5 51q0 25-17.5 36.5t-45.5 11.5q-47 0-86-24t-65.5-63-41.5-85-15-90q0-35 10.5-62t32-41 55.5-14 61 13.5 51 36 47 48.5q12 14 27.5 10.5t26.5-14.5q10-11 11.5-23t-9.5-27q-37-47-75-74t-76-38.5-75-11.5z"/><path transform="translate(72.086 19.992) scale(.014 -.014)" d="m-6-14q-26 0-34 15t6 37l588 937q14 23 28 31.5t39 8.5q19 0 30.5-9.5t13.5-40.5l76-934q3-20-8.5-32.5t-37.5-12.5q-22 0-29 8.5t-10 28.5l-20 260h-418l-161-257q-16-26-26.5-33t-36.5-7zm275 377h361l-43 512z"/><path transform="translate(83.748 19.992) scale(.014 -.014)" d="m336-19q-66 0-110.5 23t-67.5 68.5-23 110.5 24 149l184 656q5 14 16.5 20.5t34.5 6.5 34-7 7-23l-190-663q-19-66-21.5-114.5t10.5-79.5 40.5-46.5 68.5-15.5q43 0 88 16t91 47.5 93.5 78.5 95 109 96.5 139l151 532q5 14 17.5 20.5t33.5 6.5q22 0 33-8t6-22l-277-972q-4-14-16.5-20.5t-34.5-6.5-32.5 8-6.5 20l69 244q-48-66-98-118t-102-87-105.5-53.5-108.5-18.5z"/><path transform="translate(101.7 19.992) scale(.014 -.014)" d="m112-14q-44 0-36 28l280 974q5 14 17.5 20.5t33.5 6.5q18 0 28-6.5t15-20.5l278-827 239 827q5 14 17.5 20.5t33.5 6.5q46 0 36-27l-280-974q-3-14-16-21t-34-7q-16 0-24 5t-13 23l-281 837-243-837q-4-14-16.5-21t-34.5-7z"/><path transform="translate(115.5 19.992) scale(.014 -.014)" d="m348-19q-50 0-94.5 13t-81.5 34.5-66.5 49.5-52.5 58q-8 12-3.5 22.5t15.5 19.5q14 12 25 15t21-9q26-30 61-56.5t79.5-44 96.5-17.5q55 0 101.5 13.5t81 39.5 53.5 65 19 89q0 33-10.5 60.5t-31.5 51-51 44.5-69 42q-35 19-67 39.5t-58.5 44.5-46 52.5-30.5 64.5-11 80q0 58 22 106.5t64 83.5 100 54 129 19q57 0 103-16t84-43 70-59q11-11 8.5-22t-16.5-23q-11-12-22.5-14t-22.5 6q-26 23-54.5 42.5t-64 31.5-86.5 12q-48 0-88.5-11.5t-70-33.5-46-55.5-16.5-77.5q0-36 9.5-64t29.5-51 51.5-44.5 76.5-44.5q47-24 84.5-51.5t65.5-60.5 42.5-73 14.5-89q0-65-25.5-118.5t-73-92.5-110.5-60.5-138-21.5z"/><path transform="translate(126.2 19.992) scale(.014 -.014)" d="m316-14q-19 0-31 10t-13 41l-43 933q-1 20 10.5 32t36.5 13q23 0 30.5-7t8.5-27l34-846 463 840q14 27 26.5 33.5t37.5 6.5q23 0 31-8t9-28l37-846 465 844q14 25 26.5 31.5t36.5 6.5q26-1 33-16t-6-35l-521-938q-13-22-28-31t-40-9q-19 0-30.5 10t-12.5 41l-40 810-453-821q-12-22-27.5-31t-39.5-9z"/></svg>