<?xml version="1.0" encoding="utf-8" ?>
<svg baseProfile="tiny" height="100%" version="1.2" width="100%" xmlns="http://www.w3.org/2000/svg" xmlns:ev="http://www.w3.org/2001/xml-events" xmlns:xlink="http://www.w3.org/1999/xlink"><defs /><g><path d="M467 377Q449 376 441.0 386.5Q433 397 436 419Q438 438 446.5 448.5Q455 459 469 460Q569 467 650.0 498.5Q731 530 788.5 579.5Q846 629 877.0 691.5Q908 754 908 823Q908 877 883.0 904.5Q858 932 811 932Q770 932 725.0 910.5Q680 889 634.5 849.5Q589 810 546.5 755.5Q504 701 467.5 634.5Q431 568 404 493L249 14Q245 0 233.0 -7.0Q221 -14 198 -14Q176 -14 165.0 -7.0Q154 0 159 16L418 811Q393 786 365.0 763.0Q337 740 306.5 717.5Q276 695 242 671Q221 657 207.0 662.0Q193 667 182 685Q172 701 174.0 715.5Q176 730 195 741Q254 778 304.5 816.5Q355 855 397.0 897.5Q439 940 470 986Q482 1003 492.0 1009.0Q502 1015 524 1015Q547 1015 557.5 1008.0Q568 1001 562 985L510 820Q556 882 607.5 926.0Q659 970 713.5 992.5Q768 1015 823 1015Q877 1015 916.5 993.0Q956 971 977.0 931.0Q998 891 998 836Q998 742 959.0 661.5Q920 581 848.5 519.5Q777 458 679.5 421.0Q582 384 467 377Z" transform="translate(0.0, 72) scale(0.072, -0.072)" /><path d="M-184 -17Q-203 -17 -208.5 -5.5Q-214 6 -210.0 20.5Q-206 35 -194.0 46.5Q-182 58 -166 58Q-143 58 -106.5 76.5Q-70 95 -24.5 129.0Q21 163 71.5 209.0Q122 255 174.5 309.5Q227 364 276.5 423.5Q326 483 369.0 544.0Q412 605 444.5 665.5Q477 726 495.5 781.5Q514 837 514 884Q514 899 526.5 906.5Q539 914 556.0 914.0Q573 914 585.5 906.5Q598 899 598 884Q598 835 577.5 775.5Q557 716 521.0 651.0Q485 586 436.5 519.0Q388 452 332.5 386.0Q277 320 218.0 260.5Q159 201 100.5 150.5Q42 100 -11.0 62.0Q-64 24 -108.5 3.5Q-153 -17 -184 -17ZM146 -15Q109 -15 92.0 1.5Q75 18 72.0 43.0Q69 68 75.0 96.0Q81 124 88 148L300 796Q337 913 382.5 966.0Q428 1019 492 1019Q524 1019 547.5 1002.0Q571 985 584.5 955.0Q598 925 598 884Q598 865 585.5 856.0Q573 847 556.0 847.0Q539 847 526.5 856.0Q514 865 514 884Q514 901 511.0 913.0Q508 925 501.0 932.0Q494 939 480 939Q464 939 449.5 925.5Q435 912 418.5 876.5Q402 841 380 776L161 103Q156 85 155.0 76.0Q154 67 157.5 64.0Q161 61 166 61Q176 61 187.0 67.5Q198 74 210.0 86.5Q222 99 236 116Q244 126 252.0 127.5Q260 129 271 121Q288 111 291.0 101.0Q294 91 289 81Q280 66 260.0 43.0Q240 20 211.5 2.5Q183 -15 146 -15Z" transform="translate(61.559999999999995, 72) scale(0.072, -0.072)" /><path d="M148 -17Q114 -17 88.5 1.0Q63 19 49.0 52.0Q35 85 35 130Q35 176 49.0 229.0Q63 282 91.0 333.0Q119 384 159.5 426.0Q200 468 252.0 493.5Q304 519 368 519Q396 519 428.0 511.5Q460 504 490 490L491 494Q496 508 506.0 511.5Q516 515 533 515Q564 515 572.5 505.5Q581 496 574 476L449 103Q443 85 442.5 76.0Q442 67 446.0 64.0Q450 61 455 61Q465 61 475.5 67.5Q486 74 498.5 86.5Q511 99 525 116Q533 126 541.0 127.5Q549 129 560 121Q576 111 579.5 101.0Q583 91 578 81Q569 66 549.0 43.0Q529 20 500.5 2.5Q472 -15 435 -15Q398 -15 380.5 1.5Q363 18 360.0 43.0Q357 68 362.5 96.0Q368 124 376 148Q378 150 378.5 152.5Q379 155 380 158Q338 99 297.5 60.0Q257 21 219.5 2.0Q182 -17 148 -17ZM126 146Q126 121 132.0 102.0Q138 83 149.5 73.0Q161 63 176 63Q211 63 256.0 100.5Q301 138 351.5 210.0Q402 282 455 386L466 419Q434 432 405.5 436.0Q377 440 354 440Q311 440 275.0 420.0Q239 400 211.5 367.5Q184 335 165.0 295.5Q146 256 136.0 217.0Q126 178 126 146Z" transform="translate(89.928, 72) scale(0.072, -0.072)" /><path d="M402 7Q422 21 442.0 33.5Q462 46 480.5 57.5Q499 69 516.0 78.5Q533 88 547 95Q563 103 572.5 97.0Q582 91 585.5 77.5Q589 64 585.0 51.0Q581 38 571 31Q551 20 529.0 6.5Q507 -7 483.5 -21.5Q460 -36 436.5 -51.5Q413 -67 389 -83ZM110 -519Q75 -519 48.0 -505.0Q21 -491 6.0 -466.0Q-9 -441 -9 -411Q-9 -375 4.5 -340.0Q18 -305 45.5 -269.5Q73 -234 114.0 -195.5Q155 -157 211 -116Q244 -93 278.5 -70.0Q313 -47 347 -23L416 189Q385 140 352.5 102.5Q320 65 286.0 38.5Q252 12 218.0 -1.5Q184 -15 149 -15Q103 -15 77.5 7.5Q52 30 50.0 74.5Q48 119 69 183L169 483Q176 503 185.5 509.0Q195 515 214 515Q245 515 253.5 505.5Q262 496 255 476L149 160Q140 135 137.5 113.0Q135 91 144.5 78.0Q154 65 181 65Q216 65 257.0 95.0Q298 125 341.5 179.0Q385 233 427.0 306.5Q469 380 505 467L510 483Q517 503 526.5 509.0Q536 515 555 515Q586 515 594.5 505.5Q603 496 596 476L360 -250Q337 -322 311.5 -373.0Q286 -424 257.0 -456.5Q228 -489 191.5 -504.0Q155 -519 110 -519ZM124 -442Q149 -442 170.0 -428.5Q191 -415 209.5 -390.0Q228 -365 244.5 -328.5Q261 -292 275 -246L312 -134Q293 -146 274.0 -159.0Q255 -172 236 -184Q194 -217 163.5 -247.0Q133 -277 114.5 -303.0Q96 -329 87.5 -352.5Q79 -376 79 -396Q79 -409 84.0 -419.5Q89 -430 99.0 -436.0Q109 -442 124 -442Z" transform="translate(134.712, 72) scale(0.072, -0.072)" /><path d="M166 -19Q121 -19 96.0 0.0Q71 19 62.5 52.0Q54 85 59.0 126.0Q64 167 78 210L168 484Q173 499 181.5 507.5Q190 516 215 516Q247 516 254.0 506.5Q261 497 255 478L160 188Q149 154 144.5 125.0Q140 96 149.5 78.5Q159 61 190 61Q218 61 247.0 81.0Q276 101 303.0 134.5Q330 168 354.0 209.0Q378 250 396 292L458 484Q463 499 471.5 507.5Q480 516 503 516Q536 516 542.0 506.5Q548 497 542 478L457 201Q453 186 448.0 162.5Q443 139 443.5 115.5Q444 92 455.5 76.5Q467 61 495 61Q528 61 560.5 82.5Q593 104 621.0 140.0Q649 176 670.5 220.0Q692 264 704.5 311.0Q717 358 717 400Q717 408 717.0 418.5Q717 429 716.0 441.0Q715 453 713 465Q710 483 713.5 495.0Q717 507 726.5 513.0Q736 519 751 519Q770 519 781.5 508.0Q793 497 798 471Q800 463 801.0 453.5Q802 444 802.0 434.5Q802 425 802 415Q802 360 786.0 300.5Q770 241 740.5 184.0Q711 127 670.0 81.0Q629 35 579.0 8.0Q529 -19 472 -19Q426 -19 400.0 -1.0Q374 17 363.5 46.5Q353 76 353 110Q328 71 299.0 42.0Q270 13 237.0 -3.0Q204 -19 166 -19Z" transform="translate(180.79199999999997, 72) scale(0.072, -0.072)" /><path d="M-181 -17Q-200 -17 -206.5 -5.5Q-213 6 -210.0 20.5Q-207 35 -195.0 46.5Q-183 58 -164 58Q-129 58 -91.0 79.0Q-53 100 -10.0 145.0Q33 190 81.0 263.0Q129 336 184 440L239 413Q179 292 126.0 209.5Q73 127 22.5 77.0Q-28 27 -78.0 5.0Q-128 -17 -181 -17ZM380 -15Q343 -15 325.0 -0.5Q307 14 303.0 36.0Q299 58 303.0 82.0Q307 106 314 125Q320 142 331.5 171.5Q343 201 357.5 237.0Q372 273 385.5 309.0Q399 345 408 375Q416 405 411.5 416.5Q407 428 386 428Q363 428 337.0 418.5Q311 409 283.0 399.5Q255 390 224 390Q206 390 193.0 405.0Q180 420 172.5 443.5Q165 467 165 493Q165 514 172.0 532.5Q179 551 194.5 563.0Q210 575 234 575Q254 575 266.0 562.0Q278 549 278 529Q278 516 274.5 500.5Q271 485 264 469Q274 469 300.0 480.0Q326 491 360.5 502.0Q395 513 430 513Q461 513 479.5 498.0Q498 483 502.0 452.5Q506 422 493 373Q486 345 472.0 308.0Q458 271 443.0 232.0Q428 193 414.5 159.0Q401 125 394 104Q384 76 389.0 68.5Q394 61 403 61Q413 61 423.5 67.5Q434 74 445.5 86.5Q457 99 470 116Q478 126 485.5 127.5Q493 129 505 121Q521 111 524.5 101.0Q528 91 523 81Q514 66 494.0 43.0Q474 20 445.5 2.5Q417 -15 380 -15Z" transform="translate(242.35199999999998, 72) scale(0.072, -0.072)" /><path d="M119 -15Q63 -15 49.0 29.5Q35 74 63 159L169 483Q176 503 185.5 509.0Q195 515 214 515Q245 515 253.5 505.5Q262 496 255 476L133 103Q126 82 128.0 71.5Q130 61 143 61Q152 61 161.0 67.0Q170 73 181.5 85.0Q193 97 209 116Q217 126 225.0 127.5Q233 129 244 121Q260 111 263.5 101.0Q267 91 261 81Q240 48 217.5 26.5Q195 5 170.5 -5.0Q146 -15 119 -15ZM276 669Q256 669 242.0 682.0Q228 695 228 720Q228 747 245.5 771.0Q263 795 300 795Q321 795 335.0 782.5Q349 770 349 744Q349 717 331.5 693.0Q314 669 276 669Z" transform="translate(283.248, 72) scale(0.072, -0.072)" /><path d="M154 -15Q114 -15 91.0 3.5Q68 22 64.0 58.5Q60 95 78 148L166 420H90Q79 420 75.0 430.0Q71 440 76 460Q82 480 92.0 490.0Q102 500 113 500H193L258 698Q264 718 273.5 724.0Q283 730 303 730Q334 730 342.5 720.5Q351 711 344 691L280 500H406Q417 500 421.5 490.5Q426 481 420 460Q415 441 405.0 430.5Q395 420 384 420H254L156 125Q145 91 149.5 76.0Q154 61 173 61Q193 61 220.5 78.5Q248 96 276 133Q285 143 294.5 144.0Q304 145 318 136Q333 127 335.0 117.5Q337 108 333 100Q322 80 297.0 53.0Q272 26 236.0 5.5Q200 -15 154 -15Z" transform="translate(304.848, 72) scale(0.072, -0.072)" /><path d="M231 -17Q194 -17 165.0 -5.5Q136 6 114.0 26.0Q92 46 77.5 73.5Q63 101 55.5 133.0Q48 165 48 199Q48 236 56.0 279.0Q64 322 81.5 364.5Q99 407 127.0 442.0Q155 477 194.0 498.0Q233 519 285 519Q315 519 340.0 506.5Q365 494 379.5 470.5Q394 447 394 414Q394 369 365.5 319.5Q337 270 290.0 221.5Q243 173 185 131Q127 88 64.5 54.5Q2 21 -55.5 2.0Q-113 -17 -157 -17Q-171 -17 -178.0 -5.5Q-185 6 -183.5 20.5Q-182 35 -171.0 46.5Q-160 58 -139 58Q-107 58 -59.5 75.5Q-12 93 41.5 123.0Q95 153 144 190Q189 223 225.0 258.0Q261 293 282.5 327.0Q304 361 304 390Q304 413 294.0 426.0Q284 439 264 439Q233 439 209.0 414.5Q185 390 168.5 353.0Q152 316 144.0 275.0Q136 234 136 201Q136 173 143.0 148.0Q150 123 164.0 104.0Q178 85 199.5 74.0Q221 63 250 63Q281 63 310.5 76.5Q340 90 367.5 112.5Q395 135 419 161Q431 175 447.0 171.0Q463 167 473 156Q483 145 484.5 133.0Q486 121 474 106Q436 58 395.5 31.5Q355 5 313.5 -6.0Q272 -17 231 -17Z" transform="translate(332.784, 72) scale(0.072, -0.072)" /><path d="M385 -17Q313 -17 273.0 13.0Q233 43 226.5 101.0Q220 159 247 244L445 856Q458 895 456.5 913.0Q455 931 433 931Q417 931 397.5 917.5Q378 904 354.5 877.0Q331 850 300 807Q284 784 268.5 779.5Q253 775 234 786Q219 795 216.0 808.5Q213 822 226 839Q277 912 319.5 950.0Q362 988 396.0 1001.5Q430 1015 457 1015Q520 1015 540.0 974.0Q560 933 534 853L337 247Q318 189 319.0 149.0Q320 109 342.0 89.0Q364 69 410 69Q451 69 494.5 89.5Q538 110 582.0 147.0Q626 184 669.0 236.5Q712 289 752.0 352.0Q792 415 826 487L988 986Q993 1000 1005.0 1007.0Q1017 1014 1039 1014Q1062 1014 1072.5 1007.0Q1083 1000 1078 984L815 182Q802 142 797.0 116.5Q792 91 797.0 79.0Q802 67 815 67Q834 67 860.0 90.5Q886 114 929 174Q941 190 952.5 191.5Q964 193 977 185Q994 174 996.5 159.5Q999 145 989 131Q974 108 952.5 82.0Q931 56 905.5 33.5Q880 11 851.0 -3.0Q822 -17 791 -17Q752 -17 730.5 4.0Q709 25 707.0 68.5Q705 112 725 179Q730 193 734.5 207.0Q739 221 743 234Q704 176 660.5 130.0Q617 84 571.0 51.0Q525 18 478.0 0.5Q431 -17 385 -17Z" transform="translate(386.35200000000003, 72) scale(0.072, -0.072)" /><path d="M642 -19Q603 -19 567.5 -10.5Q532 -2 500.0 13.5Q468 29 441.5 50.0Q415 71 397 94Q384 113 386.0 126.5Q388 140 404 154Q418 165 429.5 164.0Q441 163 456 148Q483 123 511.0 105.0Q539 87 571.0 77.5Q603 68 642 68Q691 68 732.0 83.5Q773 99 803.0 127.5Q833 156 849.0 197.0Q865 238 865 288Q865 326 854.5 363.5Q844 401 826.0 437.0Q808 473 783.5 509.5Q759 546 730.0 583.0Q701 620 669 659Q576 515 504.5 409.0Q433 303 375.5 229.5Q318 156 269.5 108.5Q221 61 174.5 35.0Q128 9 80.0 -1.0Q32 -11 -26 -11Q-46 -11 -51.0 0.0Q-56 11 -49 35Q-44 53 -32.5 61.0Q-21 69 -2 69Q33 69 64.0 77.0Q95 85 127.0 103.5Q159 122 194.0 154.5Q229 187 271.0 237.0Q313 287 363.5 356.5Q414 426 477.0 519.0Q540 612 618 732Q603 756 590.5 779.5Q578 803 568.5 826.5Q559 850 554.0 874.5Q549 899 549 924Q549 971 568.0 1008.0Q587 1045 620.0 1066.0Q653 1087 696 1087Q749 1087 783.0 1054.5Q817 1022 817 969Q817 940 807.0 907.5Q797 875 775.5 834.0Q754 793 718 736Q740 706 765.5 674.0Q791 642 818.0 607.0Q845 572 869.5 534.5Q894 497 913.0 457.5Q932 418 943.5 376.5Q955 335 955 293Q955 223 932.5 165.5Q910 108 868.0 66.5Q826 25 768.5 3.0Q711 -19 642 -19ZM669 812Q693 852 707.0 879.5Q721 907 727.0 928.0Q733 949 733 966Q733 986 721.5 998.0Q710 1010 692 1010Q674 1010 661.0 1000.5Q648 991 641.0 972.5Q634 954 634 928Q634 908 638.5 888.5Q643 869 650.5 850.0Q658 831 669 812Z" transform="translate(462.528, 72) scale(0.072, -0.072)" /><path d="M264 -17Q220 -17 186.5 5.0Q153 27 131.5 62.5Q110 98 101 137Q97 157 101.5 171.5Q106 186 128 191Q149 196 160.0 188.5Q171 181 176 164Q186 132 198.5 110.5Q211 89 227.5 78.5Q244 68 265 68Q298 68 321.0 94.0Q344 120 367 190L602 918H479Q428 918 387.0 906.0Q346 894 315.0 867.5Q284 841 263 795Q254 774 241.0 769.0Q228 764 210 767Q195 770 188.0 780.0Q181 790 188 811Q203 853 229.0 887.0Q255 921 293.0 946.0Q331 971 382.0 984.5Q433 998 497 998H1011Q1026 998 1029.5 989.5Q1033 981 1025 958Q1018 936 1009.0 927.0Q1000 918 985 918H692L455 183Q437 127 410.0 81.5Q383 36 347.0 9.5Q311 -17 264 -17Z" transform="translate(555.48, 72) scale(0.072, -0.072)" /><path d="M-181 -17Q-200 -17 -206.5 -5.5Q-213 6 -210.0 20.5Q-207 35 -195.0 46.5Q-183 58 -164 58Q-129 58 -91.0 79.0Q-53 100 -10.0 145.0Q33 190 81.0 263.0Q129 336 184 440L239 413Q179 292 126.0 209.5Q73 127 22.5 77.0Q-28 27 -78.0 5.0Q-128 -17 -181 -17ZM380 -15Q343 -15 325.0 -0.5Q307 14 303.0 36.0Q299 58 303.0 82.0Q307 106 314 125Q320 142 331.5 171.5Q343 201 357.5 237.0Q372 273 385.5 309.0Q399 345 408 375Q416 405 411.5 416.5Q407 428 386 428Q363 428 337.0 418.5Q311 409 283.0 399.5Q255 390 224 390Q206 390 193.0 405.0Q180 420 172.5 443.5Q165 467 165 493Q165 514 172.0 532.5Q179 551 194.5 563.0Q210 575 234 575Q254 575 266.0 562.0Q278 549 278 529Q278 516 274.5 500.5Q271 485 264 469Q274 469 300.0 480.0Q326 491 360.5 502.0Q395 513 430 513Q461 513 479.5 498.0Q498 483 502.0 452.5Q506 422 493 373Q486 345 472.0 308.0Q458 271 443.0 232.0Q428 193 414.5 159.0Q401 125 394 104Q384 76 389.0 68.5Q394 61 403 61Q413 61 423.5 67.5Q434 74 445.5 86.5Q457 99 470 116Q478 126 485.5 127.5Q493 129 505 121Q521 111 524.5 101.0Q528 91 523 81Q514 66 494.0 43.0Q474 20 445.5 2.5Q417 -15 380 -15Z" transform="translate(613.08, 72) scale(0.072, -0.072)" /><path d="M148 -17Q114 -17 88.5 1.0Q63 19 49.0 52.0Q35 85 35 130Q35 176 49.0 229.0Q63 282 91.0 333.0Q119 384 159.5 426.0Q200 468 252.0 493.5Q304 519 368 519Q396 519 428.0 511.5Q460 504 490 490L491 494Q496 508 506.0 511.5Q516 515 533 515Q564 515 572.5 505.5Q581 496 574 476L449 103Q443 85 442.5 76.0Q442 67 446.0 64.0Q450 61 455 61Q465 61 475.5 67.5Q486 74 498.5 86.5Q511 99 525 116Q533 126 541.0 127.5Q549 129 560 121Q576 111 579.5 101.0Q583 91 578 81Q569 66 549.0 43.0Q529 20 500.5 2.5Q472 -15 435 -15Q398 -15 380.5 1.5Q363 18 360.0 43.0Q357 68 362.5 96.0Q368 124 376 148Q378 150 378.5 152.5Q379 155 380 158Q338 99 297.5 60.0Q257 21 219.5 2.0Q182 -17 148 -17ZM126 146Q126 121 132.0 102.0Q138 83 149.5 73.0Q161 63 176 63Q211 63 256.0 100.5Q301 138 351.5 210.0Q402 282 455 386L466 419Q434 432 405.5 436.0Q377 440 354 440Q311 440 275.0 420.0Q239 400 211.5 367.5Q184 335 165.0 295.5Q146 256 136.0 217.0Q126 178 126 146Z" transform="translate(653.976, 72) scale(0.072, -0.072)" /><path d="M148 -17Q114 -17 88.5 1.0Q63 19 49.0 52.0Q35 85 35 130Q35 176 49.0 229.0Q63 282 91.0 333.0Q119 384 159.5 426.0Q200 468 252.0 493.5Q304 519 368 519Q397 519 430.5 511.0Q464 503 495 488L659 983Q665 1003 674.5 1009.0Q684 1015 704 1015Q735 1015 743.5 1005.5Q752 996 745 976L456 103Q450 82 452.0 71.5Q454 61 466 61Q476 61 485.0 67.0Q494 73 505.5 85.0Q517 97 533 116Q541 126 549.0 127.5Q557 129 568 121Q584 111 587.5 101.0Q591 91 585 81Q564 48 541.5 26.5Q519 5 494.5 -5.0Q470 -15 443 -15Q407 -15 388.0 3.0Q369 21 368.0 57.0Q367 93 383 146Q384 149 384.5 152.5Q385 156 386 159Q343 100 301.5 60.5Q260 21 221.0 2.0Q182 -17 148 -17ZM126 146Q126 121 132.0 102.0Q138 83 149.5 73.0Q161 63 176 63Q211 63 257.0 99.5Q303 136 354.5 206.5Q406 277 459 379L471 418Q437 432 407.5 436.0Q378 440 354 440Q311 440 275.0 420.0Q239 400 211.5 367.5Q184 335 165.0 295.5Q146 256 136.0 217.0Q126 178 126 146Z" transform="translate(698.76, 72) scale(0.072, -0.072)" /></g></svg>