<svg width="241.25" height="39.844" viewBox="0 0 241.25 39.844" xmlns="http://www.w3.org/2000/svg"><path transform="translate(0 26.936) scale(.014 -.014)" d="m586 560q-11 0-18 6t-7 20q0 13 5.5 19t17.5 6q89 3 166 26t139 62.5 106.5 93.5 68 119.5 23.5 140.5q0 74-28.5 132.5t-84 99-136 61.5-183.5 21q-113 0-209-26t-174.5-77-137.5-126q-6-6-14-7.5t-17 4.5q-12 8-14 17.5t5 18.5q45 58 104 104t130.5 78 154 49.5 175.5 17.5q117 0 207.5-24.5t153-71.5 94.5-115 32-154q0-84-26-157t-75-133.5-118.5-105-155-70-184.5-29.5zm-312-579q-46 0-86 15.5t-72.5 45.5-57.5 72q-6 11-3.5 19.5t12.5 14.5q11 7 19 5.5t14-10.5q22-36 48.5-60.5t58-36.5 68.5-12q68 0 103 51.5t35 149.5v973q0 11 6 15.5t20 4.5 20.5-4.5 6.5-14.5v-979q0-78-22-133.5t-65-85.5-105-30zm-274-876h1219v-10h-1219zm0 915h1219v-20h-1219zm0 485h1219v-5h-1219zm0 910h1219v-10h-1219z"/><path transform="translate(17.066 26.936) scale(.014 -.014)" d="m-57-17q-12 0-18 7.5t-6 16.5 6 16.5 18 7.5q35 0 69 21.5t66 61.5 60.5 96 54 125 47 148.5 38.5 168 28.5 181.5 18 190 6.5 193q0 12 8 18t19 6 19-6 8-18q0-101-7-201.5t-20.5-198-32.5-188.5-43.5-174.5-53.5-155.5-61.5-129.5-68.5-99-75-64-80-22.5zm281 0q-20 0-36 6.5t-26.5 18.5-16 30.5-5.5 43.5v1130q0 106 31 159t95 53q40 0 67-23t39.5-69.5 12.5-115.5q0-13-8-19t-19-6-19 6-8 19q0 54-7.5 89t-22 52-37.5 17q-24 0-40-17t-24-53-8-92v-1118q0-20 4.5-34t14-21.5 23.5-7.5q10 0 20.5 3t20.5 10.5 19 17.5q6 6 13 5.5t13-7.5q6-6 7-12.5t-3-13.5q-11-15-27.5-27t-35-18-37.5-6zm-224-878h394v-10h-394zm0 915h394v-20h-394zm0 485h394v-5h-394zm0 910h394v-10h-394z"/><path transform="translate(22.582 26.936) scale(.014 -.014)" d="m265-17q-55 0-99 29t-69.5 86-25.5 140q0 50 9.5 93t28.5 77.5 47 59 64.5 38 80.5 13.5q34 0 67-10t66-30v16q0 11 6.5 15.5t20.5 4.5 20-4.5 6-14.5v-405q0-21 4.5-34.5t14.5-20 25-6.5q10 0 19.5 3.5t19 11 20.5 18.5q5 6 11.5 5.5t12.5-7.5q7-6 8-13t-3-14q-11-15-27-26.5t-34-18-36-6.5q-21 0-36.5 5.5t-27 17-17 28-6.5 38.5q0 4-0.5 9.5t-0.5 10.5q-23-45-52-68.5t-59.5-32-57.5-8.5zm-138 259q0-62 16.5-109t49-73.5 81.5-26.5q32 0 62.5 13.5t56 46 41.5 88.5v248q-35 24-67 32.5t-65 8.5q-32 0-59-9.5t-48.5-28.5-36.5-46.5-23-63.5-8-80zm-127-1137h622v-10h-622zm0 915h622v-20h-622zm0 485h622v-5h-622zm0 910h622v-10h-622z"/><path transform="translate(31.29 26.936) scale(.014 -.014)" d="m474-100q14 13 30 28.5t33.5 31 34 30 31.5 25.5q8 6 16.5 4t13.5-9.5 4.5-16.5-10.5-17q-14-12-31-27.5t-36-32.5-37.5-33.5-32.5-30.5zm-126-824q-45 0-77 22.5t-49 65-17 103.5q0 81 12 156t35.5 144.5 59.5 134 84 123.5q13 15 27 29.5t29 28.5v213q-15-33-36.5-55t-45.5-35-49.5-18.5-50.5-5.5q-48 0-85 19.5t-57.5 60-20.5 104.5v330q0 9 6 13.5t19 4.5q14 0 20.5-4.5t6.5-13.5v-325q0-44 12.5-75.5t38.5-48.5 67-17q29 0 56 9t50 27.5 41 48.5 28 71v310q0 10 6.5 14.5t20.5 4.5q13 0 19-4.5t6-14.5v-1171q0-62-10.5-109t-30.5-78-49-46.5-66-15.5zm3 48q23 0 41.5 12.5t32 36 20.5 60 7 85.5v492q-11-10-21-20t-20-21q-37-49-65-107t-46.5-121.5-28-132.5-9.5-140q0-45 10.5-77t30.5-49.5 48-17.5zm-351-19h640v-10h-640zm0 915h640v-20h-640zm0 485h640v-5h-640zm0 910h640v-10h-640z"/><path transform="translate(40.25 26.936) scale(.014 -.014)" d="m286-18q-38 0-66 13t-47.5 38.5-29 65-9.5 91.5v184q0 53-16 73t-47 20q-22 0-38-11.5t-25-37-12-66.5q-1-9-7-13.5t-18-4.5q-10 0-16 4.5t-6 16.5q2 53 17 88.5t42.5 53.5 63.5 18q28 0 49-8t36-25 22-44 7-65v-171q0-43 5.5-75.5t18-54 33.5-32 52-10.5q25 0 50 9t45.5 29.5 33 54 12.5 82.5l23-88q-9-33-26-58.5t-39.5-42.5-50-25.5-57.5-8.5zm301-1q-37 0-65 13.5t-47 39.5-29 66-10 92v304q0 10 6.5 14.5t20.5 4.5q13 0 19.5-4.5t6.5-14.5v-294q0-43 4.5-75.5t16.5-53.5 32-32 51-11q22 0 42 6.5t37.5 20 32 34 25 47.5 16.5 61 6 74q0 71-8 118t-21.5 70.5-30.5 23.5q-14 0-20.5-8t-6.5-19q0-17 13-29t34.5-18 48.5-6q32 0 60.5 13t63.5 39q7 5 13.5 2t11-10 4-14.5-6.5-12.5q-32-26-67-43t-81-17q-39 0-70 11.5t-49 32.5-18 51q0 20 9 35t24.5 24 36.5 9q37 0 62-31t38-87 13-129q0-43-6-81.5t-18-72-30-59.5-42.5-45-55-29-66.5-10zm-587-876h888v-10h-888zm0 915h888v-20h-888zm0 485h888v-5h-888zm0 910h888v-10h-888z"/><path transform="translate(52.682 26.936) scale(.014 -.014)" d="m-55-17q-12 0-18.5 7.5t-7 16.5 5.5 16.5 18 7.5q26 0 49.5 12.5t43 41 35 74.5 26.5 113.5 16 158.5l44-3q-5-127-22.5-213t-46-137-65-73-78.5-22zm517 0q-21 0-36.5 6.5t-26.5 19-16.5 31-5.5 44.5q0 32 2.5 69.5t5 76.5 5 76 2.5 68q0 45-15.5 62.5t-46.5 17.5q-23 0-44-6t-43.5-13.5-49.5-13-63-5.5q-35 0-61.5 12.5t-41 35-14.5 53.5q0 30 17 51.5t48 21.5q30 0 48-20t25-49.5 7-58.5q22 0 43.5 6.5t43 15 45 14.5 49.5 6q36 0 59-13t34.5-41.5 11.5-73.5q0-31-2.5-67.5t-5-75-5-73.5-2.5-64q0-32 10-48.5t32-16.5q11 0 21 3t20 10.5 20 17.5q6 6 13 5.5t13-7.5q6-6 7-12.5t-3-13.5q-11-15-27.5-27t-35-18-37.5-6zm-347 476q0 20-3.5 41t-11.5 35.5-21 14.5-18.5-8.5-5.5-23.5q0-24 15-41.5t45-17.5zm-115-1354h568v-10h-568zm0 915h568v-20h-568zm0 485h568v-5h-568zm0 910h568v-10h-568z"/><path transform="translate(60.634 26.936) scale(.014 -.014)" d="m192-17q-41 0-63 25t-22 74v414q0 10 6 14.5t19 4.5q14 0 20.5-4.5t6.5-14.5v-402q0-31 10-47t33-16q11 0 21 3.5t20 10.5 20 17q5 6 12 5.5t13-7.5q6-6 7-12.5t-3-13.5q-11-15-27.5-26.5t-35-18-37.5-6.5zm-59 700q-22 0-33 12t-11 37 11 37.5 33 12.5q21 0 32-12.5t11-37.5q1-25-10.5-37t-32.5-12zm-133-1578h300v-10h-300zm0 915h300v-20h-300zm0 485h300v-5h-300zm0 910h300v-10h-300z"/><path transform="translate(64.834 26.936) scale(.014 -.014)" d="m244-17q-36 0-59.5 14.5t-35 42.5-11.5 67v604q0 10 6.5 14.5t19.5 4.5q14 0 20.5-4.5t6.5-14.5v-211h141q11 0 15.5-5.5t4.5-18.5q0-12-4.5-18t-15.5-6h-141v-333q0-41 12-64.5t47-23.5q25 0 42.5 14t34.5 34q7 9 14.5 7.5t15.5-7.5q7-7 9-14.5t-3-14.5q-14-21-32-36t-40-23-47-8zm-244-878h388v-10h-388zm0 915h388v-20h-388zm0 485h388v-5h-388zm0 910h388v-10h-388z"/><path transform="translate(70.266 26.936) scale(.014 -.014)" d="m307-17q-38 0-74.5 17t-68 48-55 73.5-37 93-13.5 106.5q0 34 7.5 64.5t21.5 55 34 42 44.5 27 52.5 9.5q53 0 86-22.5t48-59.5 15-79q0-34-11.5-69.5t-32.5-70-50-66.5q-41-48-96-86t-115.5-60.5-122.5-22.5q-9 0-14 7.5t-4.5 16.5 6.5 16.5 18 7.5q54 0 107 20t100.5 54 82.5 75q24 27 41 56.5t26.5 59.5 9.5 58q0 59-26 87.5t-72 28.5q-21 0-39.5-10.5t-32.5-30.5-21.5-47-7.5-60q0-66 18.5-119.5t48.5-91.5 65-58.5 68-20.5q30 0 53 12t41 29.5 31 32.5q8 9 16 8.5t17-7.5q8-6 10.5-13.5t-3.5-16.5q-16-24-42-45.5t-59-35-71-13.5zm-307-878h444v-10h-444zm0 915h444v-20h-444zm0 485h444v-5h-444zm0 910h444v-10h-444z"/><path transform="translate(80.682 26.936) scale(.014 -.014)" d="m771-18q-40 0-79.5 6.5t-75 18.5-62.5 29q-10 7-12.5 16t4.5 20q6 11 14 12t19-4q27-14 58-24.5t65.5-15.5 69.5-5q82 0 149.5 29t117 81.5 76.5 125.5 27 162q0 94-42.5 160.5t-123 102-193.5 35.5q-26-12-48-17.5t-40-5.5q-27-1-42.5 11t-15.5 31q0 15 8.5 26.5t23.5 18.5 36 7q23 0 39-3.5t37-9.5q65 10 118 37.5t90.5 68 57.5 93 20 113.5q0 88-47.5 147t-140.5 89-230 30q-110 0-205-26.5t-173-77.5-137-125q-6-6-14-7.5t-17 4.5q-12 8-14 17.5t5 18.5q45 58 103.5 104t129.5 78 153 49.5 173 17.5q152 0 257.5-37.5t160.5-108.5 55-172q0-61-19-115t-54.5-97.5-84.5-75-110-46.5v-2q75 0 137.5-24.5t108.5-68.5 71-104 25-131q0-81-19.5-151t-57.5-126.5-91-96-119-61-142-21.5zm-497-1q-46 0-86 15.5t-72.5 45.5-57.5 72q-6 11-3.5 19.5t12.5 14.5q11 7 19 5.5t14-10.5q22-36 48.5-60.5t58-36.5 68.5-12q68 0 103 51.5t35 149.5v974q0 10 6 14.5t20 4.5 20.5-4.5 6.5-14.5v-979q0-78-22-133.5t-65-85.5-105-30zm-274-876h1310v-10h-1310zm0 915h1310v-20h-1310zm0 485h1310v-5h-1310zm0 910h1310v-10h-1310z"/><path transform="translate(99.022 26.936) scale(.014 -.014)" d="m539-19q-120 0-208.5 45.5t-136.5 130-48 200.5q0 68 20.5 129.5t59 113 90.5 87 114 50.5q-70 19-121 65t-79 111.5-28 143.5q0 64 17 119t48.5 100 76.5 77.5 100 49.5 119 17 126-18 117-52 96-82q8-9 9.5-18.5t-8.5-19.5-20-8-22 14q-38 41-87.5 70t-104 45-111.5 16q-66 0-120.5-22.5t-94.5-63.5-61.5-97.5-21.5-124.5q0-88 36-155.5t101.5-105 152.5-37.5h172q9 0 13-5.5t4-19.5q0-13-4-19t-13-6h-172q-75 0-138-26t-109.5-73.5-72.5-111.5-26-141q0-101 41.5-173.5t117-111.5 177.5-39q68 0 133.5 24t124.5 69 106 107q9 11 17 13t18-7q11-9 10.5-19t-9.5-23q-50-68-115-116.5t-138-75-148-26.5zm-539-876h1022v-10h-1022zm0 915h1022v-20h-1022zm0 485h1022v-5h-1022zm0 910h1022v-10h-1022z"/><path transform="translate(117.53 26.936) scale(.014 -.014)" d="m650-19q-106 0-170 94t-92 286q-11 78-20 163.5t-16.5 186-15 224.5-15.5 279q-2 54-12 89t-29.5 53-52.5 18q-31 0-58-16.5t-54-51-59-89.5q-5-9-12.5-11.5t-20.5 4.5q-12 7-13 15t3 18q34 60 67.5 100t70 60.5 77.5 20.5q50 0 81-24t47-70 19-114q6-110 10.5-201t9.5-166.5 10-140.5 10.5-122 11.5-110 14-106q17-113 45.5-188.5t70.5-113 97-37.5q43 0 79 21.5t66.5 65.5 55 112 44 161 34 211.5 24.5 264.5q-7 19-13 44t-6 47q0 18 5 32.5t14.5 23.5 23.5 9q27 0 39.5-23.5t12.5-55.5q0-20-3-39.5t-9-35.5q9-76 15.5-139t13-120 15.5-117 22-130q23-118 54.5-191t75.5-107 102-34q48 0 90 35.5t75.5 102.5 57 161.5 36 212.5 12.5 255q0 64-2.5 129t-7 128-11 121.5-16.5 110.5q-38 9-59.5 31.5t-21.5 45.5q0 19 12.5 31t32.5 12q27 0 49.5-19.5t33.5-48.5q15-15 52-31t86-29.5 100-22.5q9-1 12.5-7t3.5-15q0-10-5.5-16.5t-16.5-6.5q-17 1-41.5 5.5t-52.5 12-54 16-46 17.5-29 15q12-58 19.5-132.5t11.5-165 4-200.5q0-118-10.5-222.5t-31-193.5-49.5-159.5-65.5-120.5-79.5-76-93-26q-72 0-125 38.5t-90 119.5-60 209q-9 49-15.5 98.5t-12 99.5-10 102-9.5 107h-3q-11-161-30-286.5t-47.5-217.5-67-152-87-89-108.5-29zm-650-876h1878v-10h-1878zm0 915h1878v-20h-1878zm0 485h1878v-5h-1878zm0 910h1878v-10h-1878z"/><path transform="translate(143.82 26.936) scale(.014 -.014)" d="m200-17q-28 0-53 3.5t-45 9-34 11.5q-7 4-13.5 12t-1.5 22q5 13 13 16.5t17-0.5q21-10 51-16t65-6q49 0 93.5 20t86 65 81.5 118 79 178.5 78 246.5 79.5 321.5 82.5 405.5q3 16 13.5 23t26.5 7q17 0 27-6.5t13-23.5q17-89 36.5-185.5t43-199.5 51-212 58.5-223 66-234q25-84 48-142t46.5-93.5 49-51 53.5-15.5q42 0 74 38.5t55 115 36 190.5q2 11 8 15.5t19 3.5q13-2 19-7.5t5-15.5q-14-129-43-216t-72-131-101-44q-40 0-72.5 17t-61.5 56.5-56.5 104.5-56.5 159q-9 32-18 63.5t-18 62.5h-422q-36-103-72.5-180t-75.5-131-80-87.5-85.5-49-92.5-15.5zm422 510h392q-43 155-79 299.5t-65.5 276.5-51.5 250q-50-267-98.5-471.5t-97.5-354.5zm-622-1388h1522v-10h-1522zm0 915h1522v-20h-1522zm0 485h1522v-5h-1522zm0 910h1522v-10h-1522z"/><path transform="translate(165.13 26.936) scale(.014 -.014)" d="m772-11q-76 0-140 19.5t-118.5 48.5-101.5 58-88 48.5-79 19.5q-40 0-65.5-21.5t-25.5-56.5q0-32 25.5-53.5t64.5-21.5q44 0 75 29.5t47.5 85 16.5 132.5v626q0 120 23.5 216t67.5 163 107.5 102.5 142.5 35.5q66 0 119-27t84-75.5 31-113.5q0-64-24.5-116.5t-70-90.5-108.5-59-139-21q-94 0-180.5 22t-167 62-156.5 96q-10 7-11 16t7 19q7 11 15.5 12.5t16.5-4.5q69-54 145-92.5t159-59 172-20.5q64 0 116 17t89.5 48 58 74.5 20.5 95.5q0 50-23.5 87t-63.5 58-93 21q-66 0-118.5-32t-89-93-55.5-147.5-19-195.5v-624q0-93-23.5-159.5t-67-102-104.5-35.5q-42 0-75.5 16t-52 44.5-18.5 64.5q0 38 18.5 66.5t51.5 45 75 16.5q46 0 92-19.5t94-48 101.5-57.5 113.5-48.5 130-19.5q78 0 140.5 29t104 83 58.5 128q3 9 11 12.5t22-0.5q11-2 14.5-8.5t1.5-16.5q-18-86-67-148t-122-96-164-34zm-772-884h1181v-10h-1181zm0 915h1181v-20h-1181zm0 485h1181v-5h-1181zm0 910h1181v-10h-1181z"/><path transform="translate(185.86 26.936) scale(.014 -.014)" d="m896-925q-56 0-95.5 25t-60.5 70.5-21 108.5q0 75 26.5 153.5t80 161.5 133 170 186 179 238.5 188q12 8 20 6t15-13q7-10 4.5-18.5t-12.5-16.5q-127-91-228-178t-177-170-126.5-161.5-76-154-25.5-147.5 32.5-111.5 91.5-39.5q84 0 128.5 79.5t44.5 229.5v1036q-26-86-62-157.5t-80.5-128-95-95.5-106-59.5-114.5-20.5q-123 0-211 76.5t-135.5 219.5-47.5 341q0 89 14 173t40.5 161.5 63.5 144 82.5 120.5 98 93 110 59.5 117.5 20.5q75 0 132-33t88.5-93.5 31.5-143.5q0-99-34.5-198.5t-103.5-198.5-171-197-237.5-194-302.5-191q-12-6-19.5-2t-12.5 15q-6 12-2.5 19.5t14.5 13.5q159 90 288.5 182t227 186 163.5 188 99 188.5 33 188.5q0 66-25 114.5t-68 75.5-101 27q-53 0-104-19.5t-97-55.5-87-87-74-113-56.5-133.5-36.5-150-13-160.5q0-181 41-312t117.5-201 182.5-70q78 0 150 42.5t132 121 104 187 67 240.5q0 10 7 14.5t20 4.5q28 0 28-19v-1220q0-117-27-197.5t-79-122-127-41.5zm-896 30h1388v-10h-1388zm0 915h1388v-20h-1388zm0 485h1388v-5h-1388zm0 910h1388v-10h-1388z"/><path transform="translate(205.3 26.936) scale(.014 -.014)" d="m270-18q-48 0-85 19.5t-57.5 60-20.5 104.5v330q0 9 6 13.5t19 4.5q14 0 20.5-4.5t6.5-13.5v-325q0-44 12.5-75.5t38.5-48.5 67-17q29 0 56 9t50 27.5 41 48.5 28 71v310q0 10 6.5 14.5t20.5 4.5q13 0 19-4.5t6-14.5v-403q0-20 4.5-34.5t14.5-22 24-7.5q10 0 20 3.5t20 10.5 20 18q6 6 13 5.5t13-7.5q5-5 6.5-12t-3.5-13q-11-15-27-27t-34-19-38-7-35 6-26 18-17 30-7 41v21q-15-34-36.5-56t-45.5-35-49.5-18.5-50.5-5.5zm-270-877h646v-10h-646zm0 915h646v-20h-646zm0 485h646v-5h-646zm0 910h646v-10h-646z"/><path transform="translate(214.34 26.936) scale(.014 -.014)" d="m192-17q-41 0-63 25t-22 74v414q0 10 6 14.5t19 4.5q14 0 20.5-4.5t6.5-14.5v-402q0-31 10-47t33-16q11 0 21 3.5t20 10.5 20 17q5 6 12 5.5t13-7.5q6-6 7-12.5t-3-13.5q-11-15-27.5-26.5t-35-18-37.5-6.5zm-59 700q-22 0-33 12t-11 37 11 37.5 33 12.5q21 0 32-12.5t11-37.5q1-25-10.5-37t-32.5-12zm-133-1578h300v-10h-300zm0 915h300v-20h-300zm0 485h300v-5h-300zm0 910h300v-10h-300z"/><path transform="translate(218.54 26.936) scale(.014 -.014)" d="m265-17q-55 0-99 29t-69.5 86-25.5 140q0 50 9.5 93t28.5 77.5 47 59 65 38 82 13.5q33 0 65.5-9.5t66.5-29.5v921q0 10 6.5 14.5t19.5 4.5q14 0 20-4.5t6-14.5v-1310q0-31 11-46t33-15q10 0 20 3.5t19.5 11.5 19.5 18q6 6 12.5 5t12.5-8q6-6 7.5-12.5t-3.5-13.5q-11-15-27-26.5t-34-18-36-6.5q-29 0-48.5 11.5t-29 32-9.5 48.5q0 4 0 8.5t0 8.5q-23-45-52.5-68.5t-60-32-57.5-8.5zm-138 259q0-62 16.5-109t49-73.5 81.5-26.5q32 0 62.5 13.5t56 46 42.5 88.5v247q-35 24-67.5 33t-65.5 9q-32 0-59-9.5t-48.5-28.5-36.5-46.5-23-63.5-8-80zm-127-1137h628v-10h-628zm0 915h628v-20h-628zm0 485h628v-5h-628zm0 910h628v-10h-628z"/><path transform="translate(227.33 26.936) scale(.014 -.014)" d="m307-17q-38 0-74.5 17t-68 48-55 73.5-37 93-13.5 106.5q0 34 7.5 64.5t21.5 55 34 42 44.5 27 52.5 9.5q53 0 86-22.5t48-59.5 15-79q0-34-11.5-69.5t-32.5-70-50-66.5q-41-48-96-86t-115.5-60.5-122.5-22.5q-9 0-14 7.5t-4.5 16.5 6.5 16.5 18 7.5q54 0 107 20t100.5 54 82.5 75q24 27 41 56.5t26.5 59.5 9.5 58q0 59-26 87.5t-72 28.5q-21 0-39.5-10.5t-32.5-30.5-21.5-47-7.5-60q0-66 18.5-119.5t48.5-91.5 65-58.5 68-20.5q30 0 53 12t41 29.5 31 32.5q8 9 16 8.5t17-7.5q8-6 10.5-13.5t-3.5-16.5q-16-24-42-45.5t-59-35-71-13.5zm-307-878h444v-10h-444zm0 915h444v-20h-444zm0 485h444v-5h-444zm0 910h444v-10h-444z"/><path transform="translate(233.55 26.936) scale(.014 -.014)" d="m-59-17q-13 0-19 7.5t-6 16.5 6 16.5 18 7.5q39 0 72.5 28.5t64 85 59 141.5 55.5 197l35-9q-27-124-56-216t-63.5-153-75.5-91.5-90-30.5zm357-2q-42 0-80 12t-67 34q-6 6-6.5 14.5t7.5 17.5q7 9 14.5 10.5t16.5-4.5q28-20 55.5-29t64.5-9q51 0 80.5 31.5t29.5 85.5q0 42-17 71.5t-44 51-57 41-57 43-44 55.5-17 79q0 26 10.5 49.5t34.5 23.5q13 0 20-7.5t7-20.5q0-11-5.5-30.5t-15.5-43.5q1-29 19-51.5t45-41 57-38.5 57-44.5 44-57.5 17-79q0-73-46-118t-123-45zm-298-876h550v-10h-550zm0 915h550v-20h-550zm0 485h550v-5h-550zm0 910h550v-10h-550z"/></svg>