<svg width="161.29" height="31.248" viewBox="0 0 161.29 31.248" xmlns="http://www.w3.org/2000/svg"><path transform="translate(0 22.274) scale(.014 -.014)" d="m490 449q-12 0-18.5 6t-6.5 19q0 12 5.5 18t16.5 6q75 3 138.5 21.5t115 49.5 88.5 74 56.5 95 19.5 111-23.5 105-68 78-109 48-146.5 16q-94 0-174.5-20t-144.5-59.5-111-96.5q-7-8-15-9.5t-18 5.5q-11 8-12.5 16.5t5.5 18.5q36 46 85 82.5t109 62 130 39 150 13.5q96 0 170-20t125.5-58.5 78-93.5 26.5-125q0-68-22-127.5t-63-108.5-99.5-85-131-56.5-156.5-24.5zm-261-467q-40 0-74.5 13.5t-61 38-45.5 55.5q-6 10-4 18.5t11 15.5q11 7 19 5.5t15-10.5q19-28 40-46.5t46.5-28 55.5-9.5q54 0 81.5 40.5t27.5 117.5v770q0 11 6.5 15.5t20.5 4.5 20.5-4.5 6.5-14.5v-777q0-63-19-108.5t-56-70.5-90-25zm-229-605h1020v-10h-1020zm0 643h1020v-20h-1020zm0 485h1020v-5h-1020zm0 638h1020v-10h-1020z"/><path transform="translate(14.28 22.274) scale(.014 -.014)" d="m-57-17q-12 0-18 7.5t-6 16.5 6 16.5 18 7.5q33 0 65 18.5t62.5 52.5 58 80.5 52 103.5 46 121.5 38 134 28 141.5 18 144 6.5 140q0 11 8 17t19 6 19.5-6 8.5-17q0-71-7.5-146t-21-150.5-32.5-148.5-42.5-141-52.5-128-60.5-109.5-66-85.5-71.5-55.5-75-19.5zm281 0q-20 0-36 6.5t-26.5 18.5-16 30.5-5.5 43.5v870q0 101 29 150.5t89 49.5q38 0 63.5-20.5t38-61.5 12.5-103q0-12-8.5-18.5t-19.5-6.5-19 6.5-8 18.5q0 46-6.5 76t-20 44.5-33.5 14.5q-22 0-36.5-15t-21.5-47.5-7-87.5v-858q0-20 4.5-34t14-21.5 23.5-7.5q10 0 20.5 3t20.5 10.5 19 17.5q6 6 13 5.5t13-7.5q6-6 7-12.5t-3-13.5q-11-15-27.5-27t-35-18-37.5-6zm-224-606h394v-10h-394zm0 643h394v-20h-394zm0 485h394v-5h-394zm0 638h394v-10h-394z"/><path transform="translate(19.796 22.274) scale(.014 -.014)" d="m265-17q-55 0-99 29t-69.5 86-25.5 140q0 50 9.5 93t28.5 77.5 47 59 64.5 38 80.5 13.5q34 0 67-10t66-30v16q0 11 6.5 15.5t20.5 4.5 20-4.5 6-14.5v-405q0-21 4.5-34.5t14.5-20 25-6.5q10 0 19.5 3.5t19 11 20.5 18.5q5 6 11.5 5.5t12.5-7.5q7-6 8-13t-3-14q-11-15-27-26.5t-34-18-36-6.5q-21 0-36.5 5.5t-27 17-17 28-6.5 38.5q0 4-0.5 9.5t-0.5 10.5q-23-45-52-68.5t-59.5-32-57.5-8.5zm-138 259q0-62 16.5-109t49-73.5 81.5-26.5q32 0 62.5 13.5t56 46 41.5 88.5v248q-35 24-67 32.5t-65 8.5q-32 0-59-9.5t-48.5-28.5-36.5-46.5-23-63.5-8-80zm-127-865h622v-10h-622zm0 643h622v-20h-622zm0 485h622v-5h-622zm0 638h622v-10h-622z"/><path transform="translate(28.504 22.274) scale(.014 -.014)" d="m507-45q18 16 39 33t42.5 33.5 40.5 28.5q9 5 17 2t12-11 2.5-17-10.5-15q-15-10-32.5-22.5t-35-26.5-34.5-28-31-27zm-148-607q-64 0-101 41.5t-37 115.5q0 50 9.5 95.5t28.5 87.5 47 81 65 77q18 17 35.5 32.5t35.5 29.5 35 26v161q-15-32-36.5-54t-45.5-35-49.5-18.5-50.5-5.5q-48 0-85 19.5t-57.5 60-20.5 104.5v208q0 50-17.5 71.5t-48.5 21.5q-22 0-37.5-11.5t-25-37-12.5-66.5q0-9-6-13.5t-18-4.5q-10 0-16.5 4.5t-6.5 16.5q2 53 17.5 88.5t42.5 53.5 63 18q29 0 50.5-8.5t36.5-26.5 22.5-45 7.5-65v-199q0-44 12.5-75.5t38.5-48.5 67-17q29 0 56 9t50 28 41 49 28 71v309q0 10 6.5 14.5t20.5 4.5q13 0 19-4.5t6-14.5v-900q0-61-11.5-107.5t-33.5-78-54-47-71-15.5zm4 49q34 0 59.5 21.5t40 64 14.5 106.5v283q-13-9-27-19.5t-27.5-21.5-26.5-23q-29-31-50.5-66t-37-72-23.5-78-8-84q0-34 10-59t29.5-38.5 46.5-13.5zm-363-20h665v-10h-665zm0 643h665v-20h-665zm0 485h665v-5h-665zm0 638h665v-10h-665z"/><path transform="translate(37.814 22.274) scale(.014 -.014)" d="m282-18q-36 0-64 12.5t-47.5 38-29 63.5-9.5 88v190q0 50-17.5 71.5t-48.5 21.5q-22 0-37.5-11.5t-25-37-12.5-66.5q0-9-6-13.5t-18-4.5q-10 0-16.5 4.5t-6.5 16.5q2 53 17.5 88.5t42.5 53.5 63 18q29 0 50.5-8.5t36.5-26.5 22.5-45 7.5-65v-181q0-51 10.5-87t34-54 63.5-18q25 0 50 9t46.5 29.5 34 54 12.5 82.5v291q0 10 6.5 14.5t20.5 4.5 20-4.5 6-14.5v-292q0-46 4.5-78.5t16.5-53.5 32.5-31.5 50.5-10.5q25 0 48.5 9.5t44 27.5 35.5 44.5 24 60.5 9 75q0 44-5.5 81t-20.5 74.5-43 81.5q-6 11-3.5 18.5t10 12 15.5 4.5q10 0 15-4.5t14-16.5q16-21 32.5-58t28-84.5 11.5-100.5q0-42-9-82.5t-27-75-44.5-60.5-62.5-41-80-15q-33 0-60 12t-46 36-30 61q-14-35-39.5-59t-58-36.5-68.5-12.5zm-282-605h888v-10h-888zm0 643h888v-20h-888zm0 485h888v-5h-888zm0 638h888v-10h-888z"/><path transform="translate(50.246 22.274) scale(.014 -.014)" d="m-55-17q-12 0-18.5 7.5t-7 16.5 5.5 16.5 18 7.5q34 0 63 21t51 70.5 37 132.5 21 208l42-22q-4-131-21-219.5t-45.5-141-65.5-75-80-22.5zm517 0q-21 0-36.5 6.5t-26.5 19-16.5 31-5.5 44.5q0 32 2.5 69.5t5 76.5 5 76 2.5 68q0 45-15.5 62.5t-46.5 17.5q-25 0-57.5-10t-64.5-19.5-58-9.5q-16 0-30.5 16.5t-24 40-9.5 42.5q0 13 4 22.5t12 15.5 19 6q21 0 29.5-19t8.5-46q0-7 0-15t0-16q23-2 51 9t61.5 22 67.5 11q36 0 59-13t34.5-41.5 11.5-73.5q0-31-2.5-67.5t-5-75-5-73.5-2.5-64q0-32 10-48.5t32-16.5q11 0 21 3t20 10.5 20 17.5q7 6 13.5 5.5t12.5-7.5q6-6 7-12.5t-3-13.5q-11-15-27.5-27t-35-18-37.5-6zm-462-606h568v-10h-568zm0 643h568v-20h-568zm0 485h568v-5h-568zm0 638h568v-10h-568z"/><path transform="translate(58.198 22.274) scale(.014 -.014)" d="m192-17q-41 0-63 25t-22 74v414q0 10 6 14.5t19 4.5q14 0 20.5-4.5t6.5-14.5v-402q0-31 10-47t33-16q11 0 21 3.5t20 10.5 20 17q5 6 12 5.5t13-7.5q6-6 7-12.5t-3-13.5q-11-15-27.5-26.5t-35-18-37.5-6.5zm-59 700q-22 0-33 12t-11 37 11 37.5 33 12.5q21 0 32-12.5t11-37.5q1-25-10.5-37t-32.5-12zm-133-1306h300v-10h-300zm0 643h300v-20h-300zm0 485h300v-5h-300zm0 638h300v-10h-300z"/><path transform="translate(62.398 22.274) scale(.014 -.014)" d="m244-17q-36 0-59.5 14.5t-35 42.5-11.5 67v345h-91q-11 0-15 6t-4 18q0 13 4 18.5t15 5.5h91v211q0 10 6.5 14.5t19.5 4.5 20-4.5 7-14.5v-211h141q11 0 15.5-5.5t4.5-18.5q0-12-4.5-18t-15.5-6h-141v-333q0-41 12-64.5t47-23.5q25 0 42.5 14t34.5 34q7 9 14.5 7.5t15.5-7.5q7-7 9-14.5t-3-14.5q-14-21-32-36t-40-23-47-8zm-244-606h388v-10h-388zm0 643h388v-20h-388zm0 485h388v-5h-388zm0 638h388v-10h-388z"/><path transform="translate(67.83 22.274) scale(.014 -.014)" d="m307-17q-38 0-74.5 17t-68 48-55 73.5-37 93-13.5 106.5q0 34 7.5 64.5t21.5 55 34 42 44.5 27 52.5 9.5q53 0 86-22.5t48-59.5 15-79q0-34-11.5-69.5t-32.5-70-50-66.5q-41-48-96-86t-115.5-60.5-122.5-22.5q-9 0-14 7.5t-4.5 16.5 6.5 16.5 18 7.5q54 0 107 20t100.5 54 82.5 75q24 27 41 56.5t26.5 59.5 9.5 58q0 59-26 87.5t-72 28.5q-21 0-39.5-10.5t-32.5-30.5-21.5-47-7.5-60q0-66 18.5-119.5t48.5-91.5 65-58.5 68-20.5q30 0 53 12t41 29.5 31 32.5q8 9 16 8.5t17-7.5q8-6 10.5-13.5t-3.5-16.5q-16-24-42-45.5t-59-35-71-13.5zm-307-606h444v-10h-444zm0 643h444v-20h-444zm0 485h444v-5h-444zm0 638h444v-10h-444z"/><path transform="translate(78.246 22.274) scale(.014 -.014)" d="m552-19q-100 0-181 41t-138.5 118-88.5 184-31 239q0 87 15 164t43 142 68.5 116.5 91.5 88 112 55.5 129 19q64 0 123-20t111-61.5 95-106.5q9-13 8.5-21.5t-12.5-16.5q-10-7-18-5.5t-17 13.5q-58 81-131 123t-159 42q-60 0-112.5-17t-97-49.5-80-79.5-60-106.5-38-129.5-13.5-150q0-121 27-218.5t77-167 120.5-106 156.5-36.5q44 0 84 10t76.5 29.5 71 49 66.5 68.5q10 12 18.5 13t17.5-8q10-8 10.5-16t-7.5-19q-49-61-103-101.5t-112-60-122-19.5zm-552-604h950v-10h-950zm0 643h950v-20h-950zm0 485h950v-5h-950zm0 638h950v-10h-950z"/><path transform="translate(91.546 22.274) scale(.014 -.014)" d="m165-21q-37 0-65 12.5t-43.5 36-15.5 54.5q0 34 15.5 59.5t44 39.5 65.5 14q35 0 66-11t61.5-28 62.5-36.5 68.5-37 80.5-28.5 98-10q66 0 119 23t89 65 50 96q3 11 11 14.5t19-0.5q11-2 15-9t1-19q-15-66-58.5-116t-106-78-137.5-28q-72 0-127.5 15.5t-98 38-78 45.5-68 38.5-67.5 15.5q-32 0-51-16t-19-42q0-27 20-43t51-16q52 0 83 51.5t31 137.5v624q0 75 16.5 132t49 96 80.5 59 111 20q60 0 106.5-21.5t79.5-64.5 51-107q4-13 0.5-20.5t-15.5-10.5q-13-4-20.5-0.5t-11.5 15.5q-16 54-42.5 89t-63 52.5-85.5 17.5q-50 0-88-16.5t-63.5-49-38.5-81.5-13-114v-620q0-73-20.5-126.5t-58-82.5-90.5-29zm-165-602h952v-10h-952zm0 643h952v-20h-952zm0 485h952v-5h-952zm0 638h952v-10h-952z"/><path transform="translate(109.07 22.274) scale(.014 -.014)" d="m740-652q-47 0-80.5 19.5t-51.5 56.5-18 87 17.5 103 51 107 80 108.5 103.5 108.5q50 48 98.5 91t96.5 82 95 74q11 8 18.5 6.5t14.5-12.5q6-10 4.5-17.5t-10.5-14.5q-50-37-100-78.5t-99.5-86-97.5-93.5q-49-47-88.5-95t-68-95.5-43.5-94.5-15-91q0-55 25.5-85t72.5-30q67 0 102 61.5t35 178.5v727q-24-81-62-146t-87-111.5-105.5-71-119.5-24.5q-90 0-163 39t-126 112-82 173.5-29 223.5q0 87 15 164.5t43.5 143 69 117.5 92 88 112 55.5 129.5 19.5q65 0 122-16.5t107-49 93-81.5q8-8 8-16t-10-17q-10-10-18-9t-18 11q-38 41-83 69t-95 42-107 14q-59 0-112-17.5t-98-50.5-80.5-80-60-106.5-38-130-13.5-150.5q0-111 25-202t71-156.5 109.5-100.5 140.5-35q69 0 130 35t110 98 82 148 48 184q0 11 6.5 15.5t20.5 4.5q27 0 27-19v-891q0-96-22-161.5t-65.5-98.5-108.5-33zm-740 29h1162v-10h-1162zm0 643h1162v-20h-1162zm0 485h1162v-5h-1162zm0 638h1162v-10h-1162z"/><path transform="translate(125.34 22.274) scale(.014 -.014)" d="m270-18q-48 0-85 19.5t-57.5 60-20.5 104.5v330q0 9 6 13.5t19 4.5q14 0 20.5-4.5t6.5-13.5v-325q0-44 12.5-75.5t38.5-48.5 67-17q29 0 56 9t50 27.5 41 48.5 28 71v310q0 10 6.5 14.5t20.5 4.5q13 0 19-4.5t6-14.5v-403q0-20 4.5-34.5t14.5-22 24-7.5q10 0 20 3.5t20 10.5 20 18q6 6 13 5.5t13-7.5q5-5 6.5-12t-3.5-13q-11-15-27-27t-34-19-38-7-35 6-26 18-17 30-7 41v21q-15-34-36.5-56t-45.5-35-49.5-18.5-50.5-5.5zm-270-605h646v-10h-646zm0 643h646v-20h-646zm0 485h646v-5h-646zm0 638h646v-10h-646z"/><path transform="translate(134.39 22.274) scale(.014 -.014)" d="m192-17q-41 0-63 25t-22 74v414q0 10 6 14.5t19 4.5q14 0 20.5-4.5t6.5-14.5v-402q0-31 10-47t33-16q11 0 21 3.5t20 10.5 20 17q5 6 12 5.5t13-7.5q6-6 7-12.5t-3-13.5q-11-15-27.5-26.5t-35-18-37.5-6.5zm-59 700q-22 0-33 12t-11 37 11 37.5 33 12.5q21 0 32-12.5t11-37.5q1-25-10.5-37t-32.5-12zm-133-1306h300v-10h-300zm0 643h300v-20h-300zm0 485h300v-5h-300zm0 638h300v-10h-300z"/><path transform="translate(138.59 22.274) scale(.014 -.014)" d="m265-17q-55 0-99 29t-69.5 86-25.5 140q0 50 9.5 93t28.5 77.5 47 59 65 38 82 13.5q33 0 65.5-9.5t66.5-29.5v649q0 10 6.5 14.5t19.5 4.5q14 0 20-4.5t6-14.5v-1038q0-31 11-46t33-15q10 0 20 3.5t19.5 11.5 19.5 18q6 6 12.5 5t12.5-8q6-6 7.5-12.5t-3.5-13.5q-11-15-27-26.5t-34-18-36-6.5q-29 0-48.5 11.5t-29 32-9.5 48.5q0 4 0 8.5t0 8.5q-23-45-52.5-68.5t-60-32-57.5-8.5zm-138 259q0-62 16.5-109t49-73.5 81.5-26.5q32 0 62.5 13.5t56 46 42.5 88.5v247q-35 24-67.5 33t-65.5 9q-32 0-59-9.5t-48.5-28.5-36.5-46.5-23-63.5-8-80zm-127-865h628v-10h-628zm0 643h628v-20h-628zm0 485h628v-5h-628zm0 638h628v-10h-628z"/><path transform="translate(147.38 22.274) scale(.014 -.014)" d="m307-17q-38 0-74.5 17t-68 48-55 73.5-37 93-13.5 106.5q0 34 7.5 64.5t21.5 55 34 42 44.5 27 52.5 9.5q53 0 86-22.5t48-59.5 15-79q0-34-11.5-69.5t-32.5-70-50-66.5q-41-48-96-86t-115.5-60.5-122.5-22.5q-9 0-14 7.5t-4.5 16.5 6.5 16.5 18 7.5q54 0 107 20t100.5 54 82.5 75q24 27 41 56.5t26.5 59.5 9.5 58q0 59-26 87.5t-72 28.5q-21 0-39.5-10.5t-32.5-30.5-21.5-47-7.5-60q0-66 18.5-119.5t48.5-91.5 65-58.5 68-20.5q30 0 53 12t41 29.5 31 32.5q8 9 16 8.5t17-7.5q8-6 10.5-13.5t-3.5-16.5q-16-24-42-45.5t-59-35-71-13.5zm-307-606h444v-10h-444zm0 643h444v-20h-444zm0 485h444v-5h-444zm0 638h444v-10h-444z"/><path transform="translate(153.59 22.274) scale(.014 -.014)" d="m-59-17q-13 0-19 7.5t-6 16.5 6 16.5 18 7.5q39 0 72.5 28.5t64 85 59 141.5 55.5 197l35-9q-27-124-56-216t-63.5-153-75.5-91.5-90-30.5zm357-2q-42 0-80 12t-67 34q-6 6-6.5 14.5t7.5 17.5q7 9 14.5 10.5t16.5-4.5q28-20 55.5-29t64.5-9q51 0 80.5 31.5t29.5 85.5q0 42-17 71.5t-44 51-57 41-57 43-44 55.5-17 79q0 26 10.5 49.5t34.5 23.5q13 0 20-7.5t7-20.5q0-11-5.5-30.5t-15.5-43.5q1-29 19-51.5t45-41 57-38.5 57-44.5 44-57.5 17-79q0-73-46-118t-123-45zm-298-604h550v-10h-550zm0 643h550v-20h-550zm0 485h550v-5h-550zm0 638h550v-10h-550z"/></svg>