<svg width="110" height="11" viewBox="0 0 110 11" fill="none" xmlns="http://www.w3.org/2000/svg">
<path d="M1.62 10.6H0.5V0.17H4.09C4.77 0.17 5.36667 0.303333 5.88 0.57C6.39333 0.836666 6.79333 1.21 7.08 1.69C7.36 2.17 7.5 2.72667 7.5 3.36C7.5 3.99333 7.36 4.55 7.08 5.03C6.79333 5.50333 6.39667 5.87333 5.89 6.14C5.37667 6.40667 4.77667 6.54 4.09 6.54H1.62V10.6ZM1.62 1.22V5.49H4.14C4.58667 5.49 4.98 5.40333 5.32 5.23C5.65333 5.05667 5.91333 4.81 6.1 4.49C6.28667 4.17 6.38 3.79 6.38 3.35C6.38 2.91 6.28667 2.53 6.1 2.21C5.91333 1.89667 5.65333 1.65333 5.32 1.48C4.98 1.30667 4.58667 1.22 4.14 1.22H1.62ZM10.4 10.6H9.35V0H10.4V10.6ZM15.22 10.77C14.6933 10.77 14.2167 10.6467 13.79 10.4C13.3567 10.1533 13.0167 9.80667 12.77 9.36C12.5233 8.92 12.4 8.41 12.4 7.83V3.1H13.45V7.7C13.45 8.1 13.5333 8.45333 13.7 8.76C13.86 9.06 14.0867 9.29667 14.38 9.47C14.6733 9.63667 15.0133 9.72 15.4 9.72C15.78 9.72 16.12 9.63333 16.42 9.46C16.72 9.28667 16.9533 9.04 17.12 8.72C17.2867 8.39333 17.37 8.00667 17.37 7.56V3.1H18.42V10.6H17.37V9.14L17.61 9.2C17.43 9.68667 17.1267 10.07 16.7 10.35C16.2733 10.63 15.78 10.77 15.22 10.77ZM23.18 10.77C22.46 10.77 21.83 10.5867 21.29 10.22C20.75 9.86 20.36 9.36667 20.12 8.74L21 8.32C21.2133 8.77333 21.5133 9.13667 21.9 9.41C22.2867 9.68333 22.7133 9.82 23.18 9.82C23.6267 9.82 24.0067 9.71 24.32 9.49C24.6267 9.27 24.78 8.98333 24.78 8.63C24.78 8.36333 24.7033 8.15333 24.55 8C24.4033 7.84667 24.2333 7.73 24.04 7.65C23.84 7.56333 23.6667 7.5 23.52 7.46L22.44 7.16C21.7467 6.96 21.2467 6.68333 20.94 6.33C20.6333 5.97667 20.48 5.56667 20.48 5.1C20.48 4.66 20.5933 4.27667 20.82 3.95C21.04 3.62333 21.3433 3.37 21.73 3.19C22.11 3.01667 22.5333 2.93 23 2.93C23.6333 2.93 24.21 3.09333 24.73 3.42C25.25 3.75333 25.6167 4.21333 25.83 4.8L24.93 5.22C24.7433 4.8 24.4767 4.47333 24.13 4.24C23.7767 4 23.3867 3.88 22.96 3.88C22.54 3.88 22.2033 3.98667 21.95 4.2C21.6967 4.41333 21.57 4.68333 21.57 5.01C21.57 5.26333 21.6367 5.46667 21.77 5.62C21.8967 5.76667 22.0467 5.87667 22.22 5.95C22.3933 6.02333 22.5467 6.08 22.68 6.12L23.92 6.48C24.5267 6.66 25 6.93667 25.34 7.31C25.6867 7.68333 25.86 8.12333 25.86 8.63C25.86 9.03667 25.7433 9.40333 25.51 9.73C25.2833 10.0567 24.97 10.31 24.57 10.49C24.17 10.6767 23.7067 10.77 23.18 10.77ZM30.34 10.6H29.78V9.48H30.34C30.86 9.48 31.27 9.32333 31.57 9.01C31.87 8.69667 32.02 8.27 32.02 7.73V0.17H33.14V7.73C33.14 8.31667 33.0233 8.82667 32.79 9.26C32.5633 9.68667 32.24 10.0167 31.82 10.25C31.4 10.4833 30.9067 10.6 30.34 10.6ZM37.62 10.77C37.14 10.77 36.7133 10.6767 36.34 10.49C35.9667 10.31 35.6733 10.0633 35.46 9.75C35.2467 9.43 35.14 9.06333 35.14 8.65C35.14 8.26333 35.2233 7.90667 35.39 7.58C35.5567 7.26 35.8167 6.98667 36.17 6.76C36.53 6.54 36.9833 6.38333 37.53 6.29L40.47 5.8V6.75L37.78 7.2C37.24 7.29333 36.85 7.46667 36.61 7.72C36.3767 7.96667 36.26 8.26333 36.26 8.61C36.26 8.95 36.3933 9.23667 36.66 9.47C36.9267 9.70333 37.27 9.82 37.69 9.82C38.2033 9.82 38.65 9.71 39.03 9.49C39.41 9.27 39.71 8.97333 39.93 8.6C40.1433 8.22667 40.25 7.81 40.25 7.35V5.45C40.25 5.00333 40.0867 4.64 39.76 4.36C39.4333 4.08 39.0067 3.94 38.48 3.94C38.0267 3.94 37.6267 4.05333 37.28 4.28C36.9333 4.50667 36.6767 4.80333 36.51 5.17L35.56 4.65C35.7 4.33 35.92 4.04 36.22 3.78C36.5267 3.52 36.8767 3.31333 37.27 3.16C37.6567 3.00667 38.06 2.93 38.48 2.93C39.0333 2.93 39.5233 3.03667 39.95 3.25C40.37 3.46333 40.7 3.76 40.94 4.14C41.18 4.52 41.3 4.95667 41.3 5.45V10.6H40.25V9.1L40.4 9.26C40.2733 9.54 40.07 9.79333 39.79 10.02C39.5167 10.2467 39.1967 10.4267 38.83 10.56C38.4567 10.7 38.0533 10.77 37.62 10.77ZM44.5 10.6H43.45V0H44.5V7.42L44.06 7.35L48.27 3.1H49.63L46.69 6.11L49.89 10.6H48.63L45.62 6.44L46.3 6.5L44.15 8.71L44.5 7.84V10.6ZM53.3 10.77C52.82 10.77 52.3933 10.6767 52.02 10.49C51.6467 10.31 51.3533 10.0633 51.14 9.75C50.9267 9.43 50.82 9.06333 50.82 8.65C50.82 8.26333 50.9033 7.90667 51.07 7.58C51.2367 7.26 51.4967 6.98667 51.85 6.76C52.21 6.54 52.6633 6.38333 53.21 6.29L56.15 5.8V6.75L53.46 7.2C52.92 7.29333 52.5333 7.46667 52.3 7.72C52.06 7.96667 51.94 8.26333 51.94 8.61C51.94 8.95 52.0733 9.23667 52.34 9.47C52.6067 9.70333 52.95 9.82 53.37 9.82C53.8833 9.82 54.33 9.71 54.71 9.49C55.09 9.27 55.39 8.97333 55.61 8.6C55.8233 8.22667 55.93 7.81 55.93 7.35V5.45C55.93 5.00333 55.7667 4.64 55.44 4.36C55.1133 4.08 54.6867 3.94 54.16 3.94C53.7067 3.94 53.3067 4.05333 52.96 4.28C52.6133 4.50667 52.3567 4.80333 52.19 5.17L51.24 4.65C51.38 4.33 51.6 4.04 51.9 3.78C52.2067 3.52 52.5567 3.31333 52.95 3.16C53.3367 3.00667 53.74 2.93 54.16 2.93C54.7133 2.93 55.2033 3.03667 55.63 3.25C56.05 3.46333 56.38 3.76 56.62 4.14C56.86 4.52 56.98 4.95667 56.98 5.45V10.6H55.93V9.1L56.08 9.26C55.9533 9.54 55.75 9.79333 55.47 10.02C55.1967 10.2467 54.8767 10.4267 54.51 10.56C54.1367 10.7 53.7333 10.77 53.3 10.77ZM60.18 10.6H59.13V3.1H60.18V4.33L60.04 4.15C60.22 3.79 60.49 3.51 60.85 3.31C61.21 3.10333 61.6467 3 62.16 3H62.63V4.05H61.98C61.4333 4.05 60.9967 4.21667 60.67 4.55C60.3433 4.89 60.18 5.36667 60.18 5.98V10.6ZM66.74 10.68C66.0667 10.68 65.5467 10.4867 65.18 10.1C64.82 9.70667 64.64 9.14667 64.64 8.42V4.15H63.25V3.1H63.6C63.92 3.1 64.1733 2.99333 64.36 2.78C64.5467 2.57333 64.64 2.31 64.64 1.99V1.36H65.69V3.1H67.34V4.15H65.69V8.42C65.69 8.66667 65.7267 8.88667 65.8 9.08C65.8733 9.27333 66 9.42667 66.18 9.54C66.3667 9.64667 66.6133 9.7 66.92 9.7C66.9933 9.7 67.08 9.69667 67.18 9.69C67.2867 9.68333 67.3767 9.67333 67.45 9.66V10.6C67.3367 10.6267 67.21 10.6467 67.07 10.66C66.93 10.6733 66.82 10.68 66.74 10.68ZM71.33 10.77C70.85 10.77 70.4233 10.6767 70.05 10.49C69.6767 10.31 69.3833 10.0633 69.17 9.75C68.9567 9.43 68.85 9.06333 68.85 8.65C68.85 8.26333 68.9333 7.90667 69.1 7.58C69.2667 7.26 69.53 6.98667 69.89 6.76C70.2433 6.54 70.6933 6.38333 71.24 6.29L74.18 5.8V6.75L71.5 7.2C70.9533 7.29333 70.5633 7.46667 70.33 7.72C70.09 7.96667 69.97 8.26333 69.97 8.61C69.97 8.95 70.1033 9.23667 70.37 9.47C70.6367 9.70333 70.98 9.82 71.4 9.82C71.9133 9.82 72.36 9.71 72.74 9.49C73.1267 9.27 73.4267 8.97333 73.64 8.6C73.8533 8.22667 73.96 7.81 73.96 7.35V5.45C73.96 5.00333 73.7967 4.64 73.47 4.36C73.1433 4.08 72.72 3.94 72.2 3.94C71.74 3.94 71.3367 4.05333 70.99 4.28C70.6433 4.50667 70.3867 4.80333 70.22 5.17L69.27 4.65C69.41 4.33 69.6333 4.04 69.94 3.78C70.24 3.52 70.5867 3.31333 70.98 3.16C71.3733 3.00667 71.78 2.93 72.2 2.93C72.7467 2.93 73.2333 3.03667 73.66 3.25C74.0867 3.46333 74.4167 3.76 74.65 4.14C74.89 4.52 75.01 4.95667 75.01 5.45V10.6H73.96V9.1L74.11 9.26C73.9833 9.54 73.78 9.79333 73.5 10.02C73.2267 10.2467 72.9067 10.4267 72.54 10.56C72.1733 10.7 71.77 10.77 71.33 10.77ZM83.21 10.77C82.55 10.77 81.95 10.6433 81.41 10.39C80.87 10.1367 80.4133 9.8 80.04 9.38C79.6667 8.95333 79.4 8.48333 79.24 7.97L80.25 7.59C80.49 8.29667 80.8667 8.83667 81.38 9.21C81.8933 9.57667 82.5033 9.76 83.21 9.76C83.6633 9.76 84.06 9.68667 84.4 9.54C84.74 9.4 85.0033 9.19667 85.19 8.93C85.3767 8.67 85.47 8.36667 85.47 8.02C85.47 7.50667 85.33 7.11 85.05 6.83C84.77 6.55 84.3667 6.33667 83.84 6.19L81.97 5.63C81.23 5.41667 80.6633 5.05667 80.27 4.55C79.87 4.05 79.67 3.47667 79.67 2.83C79.67 2.27667 79.8067 1.79 80.08 1.37C80.3467 0.943333 80.7167 0.61 81.19 0.37C81.6633 0.123333 82.1967 0 82.79 0C83.4167 0 83.98 0.113333 84.48 0.34C84.98 0.573333 85.4033 0.876667 85.75 1.25C86.0967 1.62333 86.3433 2.03667 86.49 2.49L85.51 2.89C85.2833 2.27 84.9367 1.80333 84.47 1.49C83.9967 1.17 83.4433 1.01 82.81 1.01C82.41 1.01 82.0567 1.08 81.75 1.22C81.45 1.36 81.2133 1.56 81.04 1.82C80.8733 2.08 80.79 2.39 80.79 2.75C80.79 3.17667 80.9267 3.56 81.2 3.9C81.4667 4.24 81.88 4.49333 82.44 4.66L84.1 5.15C84.92 5.39667 85.54 5.74667 85.96 6.2C86.38 6.66 86.59 7.23667 86.59 7.93C86.59 8.49 86.4467 8.98 86.16 9.4C85.8733 9.82667 85.4767 10.16 84.97 10.4C84.4633 10.6467 83.8767 10.77 83.21 10.77ZM90.48 10.77C90.0067 10.77 89.5833 10.6767 89.21 10.49C88.8367 10.31 88.54 10.0633 88.32 9.75C88.1067 9.43 88 9.06333 88 8.65C88 8.26333 88.0833 7.90667 88.25 7.58C88.4233 7.26 88.6867 6.98667 89.04 6.76C89.3933 6.54 89.8467 6.38333 90.4 6.29L93.34 5.8V6.75L90.65 7.2C90.11 7.29333 89.72 7.46667 89.48 7.72C89.24 7.96667 89.12 8.26333 89.12 8.61C89.12 8.95 89.2533 9.23667 89.52 9.47C89.7867 9.70333 90.13 9.82 90.55 9.82C91.0633 9.82 91.51 9.71 91.89 9.49C92.2767 9.27 92.5767 8.97333 92.79 8.6C93.0033 8.22667 93.11 7.81 93.11 7.35V5.45C93.11 5.00333 92.9467 4.64 92.62 4.36C92.2933 4.08 91.87 3.94 91.35 3.94C90.89 3.94 90.4867 4.05333 90.14 4.28C89.8 4.50667 89.5433 4.80333 89.37 5.17L88.42 4.65C88.56 4.33 88.7833 4.04 89.09 3.78C89.39 3.52 89.7367 3.31333 90.13 3.16C90.5233 3.00667 90.93 2.93 91.35 2.93C91.8967 2.93 92.3833 3.03667 92.81 3.25C93.2367 3.46333 93.5667 3.76 93.8 4.14C94.04 4.52 94.16 4.95667 94.16 5.45V10.6H93.11V9.1L93.27 9.26C93.1367 9.54 92.9333 9.79333 92.66 10.02C92.38 10.2467 92.0567 10.4267 91.69 10.56C91.3233 10.7 90.92 10.77 90.48 10.77ZM97.37 10.6H96.32V3.1H97.37V4.55L97.13 4.5C97.3167 4.01333 97.6233 3.63 98.05 3.35C98.47 3.07 98.96 2.93 99.52 2.93C100.053 2.93 100.533 3.05 100.96 3.29C101.387 3.53667 101.723 3.87 101.97 4.29C102.217 4.71667 102.34 5.19667 102.34 5.73V10.6H101.29V6.13C101.29 5.67667 101.207 5.29 101.04 4.97C100.88 4.65667 100.653 4.41333 100.36 4.24C100.067 4.06667 99.7267 3.98 99.34 3.98C98.96 3.98 98.62 4.06667 98.32 4.24C98.02 4.41333 97.7867 4.66 97.62 4.98C97.4533 5.3 97.37 5.68333 97.37 6.13V10.6ZM106.94 10.77C106.227 10.77 105.597 10.5867 105.05 10.22C104.51 9.86 104.12 9.36667 103.88 8.74L104.76 8.32C104.973 8.77333 105.273 9.13667 105.66 9.41C106.047 9.68333 106.473 9.82 106.94 9.82C107.393 9.82 107.773 9.71 108.08 9.49C108.387 9.27 108.54 8.98333 108.54 8.63C108.54 8.36333 108.467 8.15333 108.32 8C108.167 7.84667 107.993 7.73 107.8 7.65C107.6 7.56333 107.427 7.5 107.28 7.46L106.2 7.16C105.513 6.96 105.013 6.68333 104.7 6.33C104.393 5.97667 104.24 5.56667 104.24 5.1C104.24 4.66 104.353 4.27667 104.58 3.95C104.8 3.62333 105.103 3.37 105.49 3.19C105.87 3.01667 106.293 2.93 106.76 2.93C107.393 2.93 107.97 3.09333 108.49 3.42C109.01 3.75333 109.377 4.21333 109.59 4.8L108.69 5.22C108.503 4.8 108.237 4.47333 107.89 4.24C107.537 4 107.147 3.88 106.72 3.88C106.3 3.88 105.963 3.98667 105.71 4.2C105.457 4.41333 105.33 4.68333 105.33 5.01C105.33 5.26333 105.397 5.46667 105.53 5.62C105.663 5.76667 105.813 5.87667 105.98 5.95C106.153 6.02333 106.307 6.08 106.44 6.12L107.69 6.48C108.297 6.66 108.77 6.93667 109.11 7.31C109.45 7.68333 109.62 8.12333 109.62 8.63C109.62 9.03667 109.503 9.40333 109.27 9.73C109.043 10.0567 108.73 10.31 108.33 10.49C107.93 10.6767 107.467 10.77 106.94 10.77Z" fill="black"/>
</svg>
