<svg width="81.41" height="16.8" viewBox="0 0 81.41 16.8" xmlns="http://www.w3.org/2000/svg"><path transform="translate(0 14) scale(.014 -.014)" d="m155 0q-57 0-80.5 22.5t-23.5 66.5q0 13 1.5 41.5t4.5 67.5 6.5 85 7.5 94q5 59 8.5 101.5t5.5 73 3.5 51 2 36 1 28.5 0.5 28q0 8 5 11.5t10 3.5q26 0 57 1.5t62 3.5 60 3.5 51 1.5q64 0 110-15.5t74.5-45 42-71.5 13.5-96q0-59-15.5-113.5t-48.5-96.5-85-67-124-25q-43 0-73 9l-14-184q-1-8-4-11.5t-12-3.5zm162 570q-13 0-29-1.5t-34-3.5q-2-42-5-102t-8-126q15-4 29.5-5.5t26.5-1.5q35 0 56.5 16.5t33.5 40.5 16 50 4 45q0 43-19.5 65.5t-70.5 22.5z"/><path transform="translate(8.232 14) scale(.014 -.014)" d="m265-10q-69 0-114.5 19.5t-72.5 53.5-38 79.5-11 97.5q0 60 14.5 117.5t49.5 102.5 92.5 72.5 143.5 27.5q126 0 180.5-61.5t54.5-172.5q0-31-4.5-68.5t-17-74.5-34-72-54.5-62-79.5-43-109.5-16zm47 437q-38 0-60.5-19.5t-34-47-15-58-3.5-51.5q0-66 21-97t60-31q35 0 57.5 22t35 53 17 65 4.5 57q0 50-18.5 78.5t-63.5 28.5z"/><path transform="translate(16.604 14) scale(.014 -.014)" d="m272-10q-44 0-87.5 11t-78 38-56.5 72-22 113q0 25 4 60t15.5 72 32 73.5 53.5 65.5 80 47 112 18q52 0 88-12t58-32.5 32-47.5 10-58q0-46-18.5-78t-48-53.5-65.5-33.5-71-18.5-64.5-8-45.5-1.5q0-19 5.5-37.5t16.5-32.5 29-23 44-9 40.5 8.5 23.5 19 15.5 19 17.5 8.5q5 0 17.5-2.5t25.5-10.5 23-22 10-36q0-29-18-50t-46.5-34-63.5-19-68-6zm19 437q-22 0-37.5-12.5t-26-31.5-16-42-8.5-44q62 1 100.5 21t38.5 57q0 20-12.5 36t-38.5 16z"/><path transform="translate(24.052 14) scale(.014 -.014)" d="m256 415q-3-38-6.5-75t-6.5-70-4.5-59-1.5-40q0-26 6-34.5t20-8.5q11 0 19 4t15 9 12.5 9 12.5 4 13-8 6-37q0-55-30-87t-103-32q-72 0-106.5 33.5t-34.5 102.5q0 15 1.5 35.5t4.5 53.5 7.5 81 9.5 119h-53q-8 0-9.5 3.5t-1.5 10.5l3 51q1 13 3.5 25.5t10 22.5 21.5 16 37 6q7 18 16 43t18 48.5 17.5 39.5 15.5 16h29q42 0 58-26t16-62q0-20-3-59h105q16 0 16-14l-4-54q-2-30-16.5-48.5t-59.5-18.5z"/><path transform="translate(29.638 14) scale(.014 -.014)" d="m274 560q85 0 125-33.5t40-85.5q0-44-27.5-67t-79.5-23q-14 0-19 3t-5 11q0 9-1.5 20.5t-7 22-17 17.5-32.5 7q-28 0-45-13.5t-17-33.5q0-21 17.5-33.5t44-23.5 57.5-22.5 57.5-30.5 44-47.5 17.5-73.5q0-72-51-118t-153-46q-28 0-64.5 4.5t-69.5 14-55.5 25.5-22.5 40q0 9 3.5 22t11 25 18 20.5 25.5 8.5q12 0 22-6t23.5-12.5 33.5-12.5 53-6q25 0 44.5 6t19.5 27q0 19-16 30.5t-40.5 21.5-53 21.5-53 30.5-40.5 48.5-16 76.5q0 51 20.5 86.5t53 57.5 73.5 31.5 82 9.5z"/><path transform="translate(36.218 14) scale(.014 -.014)" d="m272-10q-44 0-87.5 11t-78 38-56.5 72-22 113q0 25 4 60t15.5 72 32 73.5 53.5 65.5 80 47 112 18q52 0 88-12t58-32.5 32-47.5 10-58q0-46-18.5-78t-48-53.5-65.5-33.5-71-18.5-64.5-8-45.5-1.5q0-19 5.5-37.5t16.5-32.5 29-23 44-9 40.5 8.5 23.5 19 15.5 19 17.5 8.5q5 0 17.5-2.5t25.5-10.5 23-22 10-36q0-29-18-50t-46.5-34-63.5-19-68-6zm19 437q-22 0-37.5-12.5t-26-31.5-16-42-8.5-44q62 1 100.5 21t38.5 57q0 20-12.5 36t-38.5 16z"/><path transform="translate(43.666 14) scale(.014 -.014)" d="m382 88q0 22 3.5 57.5t7 75 7 76.5 3.5 62q0 26-12.5 46.5t-48.5 20.5q-35 0-58-17t-38.5-62-25.5-124-19-203q-1-12-5-16t-17-4h-36q-31 0-50.5 6.5t-31 18.5-16 29.5-4.5 40.5q0 15 1.5 42.5t5.5 76 9.5 123 13.5 184.5q1 22 5 26 3 3 16 3h39q30 0 49.5-7t31.5-18.5 17-27 6-31.5q31 53 71 73.5t100 20.5q42 0 73-9t51.5-30.5 30.5-56 10-85.5q0-16-2-46t-5-65.5-6.5-74-6.5-71.5-5-58-2-33q0-22-5-26.5t-22-4.5h-32q-32 0-52 6t-31 17-15.5 27.5-4.5 37.5z"/><path transform="translate(55.342 14) scale(.014 -.014)" d="m405 721q73 0 125-20.5t85-60 48-96 15-128.5q0-40-5.5-87t-20-94.5-39.5-91.5-64.5-78-94.5-54.5-130-20.5q-83 0-137.5 25t-87 67.5-46 100.5-13.5 124q0 78 18 152.5t60.5 132.5 112.5 93.5 174 35.5zm-21-155q-35 0-60.5-12.5t-43-33.5-28-47-16.5-53.5-8-53-2-45.5q0-91 30.5-133t86.5-42q46 0 75 29.5t45.5 71 22.5 86 6 75.5q0 73-25 115.5t-83 42.5z"/><path transform="translate(65.296 14) scale(.014 -.014)" d="m382 88q0 22 3.5 57.5t7 75 7 76.5 3.5 62q0 26-12.5 46.5t-48.5 20.5q-35 0-58-17t-38.5-62-25.5-124-19-203q-1-12-5-16t-17-4h-36q-31 0-50.5 6.5t-31 18.5-16 29.5-4.5 40.5q0 15 1.5 42.5t5.5 76 9.5 123 13.5 184.5q1 22 5 26 3 3 16 3h39q30 0 49.5-7t31.5-18.5 17-27 6-31.5q31 53 71 73.5t100 20.5q42 0 73-9t51.5-30.5 30.5-56 10-85.5q0-16-2-46t-5-65.5-6.5-74-6.5-71.5-5-58-2-33q0-22-5-26.5t-22-4.5h-32q-32 0-52 6t-31 17-15.5 27.5-4.5 37.5z"/><path transform="translate(73.962 14) scale(.014 -.014)" d="m272-10q-44 0-87.5 11t-78 38-56.5 72-22 113q0 25 4 60t15.5 72 32 73.5 53.5 65.5 80 47 112 18q52 0 88-12t58-32.5 32-47.5 10-58q0-46-18.5-78t-48-53.5-65.5-33.5-71-18.5-64.5-8-45.5-1.5q0-19 5.5-37.5t16.5-32.5 29-23 44-9 40.5 8.5 23.5 19 15.5 19 17.5 8.5q5 0 17.5-2.5t25.5-10.5 23-22 10-36q0-29-18-50t-46.5-34-63.5-19-68-6zm19 437q-22 0-37.5-12.5t-26-31.5-16-42-8.5-44q62 1 100.5 21t38.5 57q0 20-12.5 36t-38.5 16z"/></svg>