<svg width="102.19" height="18.2" viewBox="0 0 102.19 18.2" xmlns="http://www.w3.org/2000/svg"><path transform="translate(0 14) scale(.014 -.014)" d="m45-2q-4 19 0 37h72q5 45 7.5 87.5t2.5 87.5v280q0 45-2.5 87.5t-7.5 87.5h-72q-4 19 0 37 35-1 69-1.5t68-0.5h140q75 0 135-19.5t95-61 35-109.5q0-69-36-115.5t-96-70.5-133-24h-140v40h150q60 0 95 42t35 121q0 75-35.5 116t-114.5 41h-65q-5-45-7.5-85t-2.5-85v-280q0-45 2.5-87.5t7.5-87.5h92q4-18 0-37-49 2-85.5 2t-71.5 0q-34 0-68 0t-69-2z"/><path transform="translate(8.652 14) scale(.014 -.014)" d="m268 415q-36 0-62.5-20t-41-61.5-14.5-104.5q0-70 16-115.5t45-67 67-21.5l-5-40q-66 0-117.5 29t-81 83-29.5 127q0 71 28.5 123t79.5 80 120 28zm10-390q37 0 63 20.5t40.5 61.5 14.5 104q0 71-16 116t-44.5 66.5-67.5 21.5l5 40q67 0 118-29t80.5-82.5 29.5-127.5q0-71-28-123t-79.5-80-120.5-28z"/><path transform="translate(16.296 14) scale(.014 -.014)" d="m260 35q4-18 0-37-31 2-58 2t-56 0-56.5 0-58.5-2q-4 19 0 37h57q5 38 7.5 73t2.5 72v340q0 72-10 143h-57q-4 19 0 37 35 0 83 2.5t94 10.5q-6-25-9-60.5t-4.5-71.5-1.5-61v-340q0-37 2.5-72t7.5-73z"/><path transform="translate(20.37 14) scale(.014 -.014)" d="m211-15q-52 0-84 24.5t-32 79.5v221q0 27-0.5 61.5t-2 70-5.5 63.5q18 6 32.5 16.5t26 24.5 18.5 29q16 3 32 0-4-67-5-133.5t-1-133.5v-215q0-34 10.5-48.5t30.5-14.5q15 0 31 7t27 19q8-5 14-12t12-15q-18-19-40.5-31.5t-63.5-12.5zm-186 415q-3 20 0 40h280q3-20 0-40z"/><path transform="translate(25.074 14) scale(.014 -.014)" d="m187-15q-64 0-106.5 34.5t-42.5 94.5q0 45 24 75t65.5 45.5 92.5 15.5q38 0 63-6t43-13v-40q-41 19-84 19t-73.5-22.5-30.5-70.5q0-40 19-64.5t56-24.5q38 0 64.5 17.5t48.5 39.5l6-40q-26-25-58-42.5t-87-17.5zm234 319v-219q0-29 15.5-39.5t46.5-10.5q3-18 0-37-16-4-34.5-6t-32.5-2q-40 0-58.5 15t-25.5 40l-6 40v212q0 61-19.5 91t-63.5 30q-41 0-62.5-23.5t-17.5-69.5h-100q0 33 22.5 62.5t65 48.5 103.5 19q80 0 123.5-37t43.5-114z"/><path transform="translate(32.214 14) scale(.014 -.014)" d="m227-15q-55 0-85 22.5t-50 56.5q2 15 2.5 30t0.5 30v136q0 72-10 143h-52q-4 19 0 37 39 0 82.5 2.5t89.5 10.5q-6-25-9-60.5t-4.5-71.5-1.5-61v-136q0-37 16.5-63t58.5-26q35 0 62.5 18.5t47.5 56.5l10-45q-27-38-65-59t-93-21zm539 457q4-19 0-39h-40q-7-41-8.5-79.5t-1.5-93.5q0-47-10-91t-31.5-78.5-54-55-77.5-20.5q-33 0-67.5 7.5t-92.5 7.5q2 17 2 33t0 32l-10 45v150q0 72-10 143h-57q-4 19 0 37 39 0 85 2.5t92 10.5q-6-25-9-60.5t-4.5-71.5-1.5-61v-130q0-47 12-73.5t61-26.5q40 0 68 26t43 71.5 15 102.5q0 47-12 89.5t-41 83.5h-47q-4 20 0 39 35-1 68.5-1.5t51.5-0.5q17 0 37.5 0.5t39.5 1.5z"/><path transform="translate(43.386 14) scale(.014 -.014)" d="m222-15q-43 0-84 7.5t-86 22.5v138q16 3 32 0 13-60 47-94t101-34q45 0 74.5 18.5t29.5 52.5q0 27-19.5 42t-51 24-66 18-66 25-51 43.5-19.5 73.5q0 61 45.5 97t130.5 36q36 0 71.5-7t66.5-21v-127q-16-3-32 0-11 59-38.5 87t-79.5 28q-46 0-70-18t-24-50q0-26 20.5-41t52.5-25.5 68.5-20.5 68.5-25.5 52.5-41.5 20.5-68q0-67-51-103.5t-143-36.5z"/><path transform="translate(49.798 14) scale(.014 -.014)" d="m31-2q-4 19 0 37h57q5 38 7.5 73t2.5 72v340q0 72-10 143h-57q-4 19 0 37 35 0 83 2.5t94 10.5q-6-25-9-60.5t-4.5-71.5-1.5-61v-340q0-37 2.5-72t7.5-73h57q4-18 0-37-31 2-58 2t-56 0-56.5 0-58.5-2zm416-8q-37 0-56.5 11.5t-28 33.5-14.5 52l-13 66q-3 18-12.5 34.5t-30 27-60.5 10.5h-39v35h49q26 0 47 14t40 42q20 29 28.5 49.5t11.5 37.5h-70q-4 20 0 39 28-1 40.5-1.5t20-0.5 20.5 0q20 0 50.5 0.5t72.5 1.5q4-19 0-39h-47q-28-24-50.5-54t-42-56.5-40.5-40.5q56-4 81-33.5t32-65.5l12-56q8-37 20.5-49t42.5-13q3-17 0-35-13-4-31-7t-33-3z"/><path transform="translate(57.344 14) scale(.014 -.014)" d="m274 35q4-18 0-37-34 2-62 2t-57 0-57 0-63-2q-4 19 0 37h62q5 38 7.5 73t2.5 72v80q0 72-10 143h-57q-4 19 0 37 39 0 85 2.5t92 10.5q-6-25-9-60.5t-4.5-71.5-1.5-61v-80q0-37 2.5-72t7.5-73zm-119 635 55-30v-65l-55-30-55 30v65z"/><path transform="translate(64.666 14) scale(.014 -.014)" d="m607 0q-11 27-24 51t-27.5 46.5-30.5 44.5l-344 488-31 70q22 0 45 0t44.5 0.5 39.5 1.5q11-25 26-50t40-61l275-391 47-200q-18-2-30-2t-30 2zm-562-2q-4 19 0 37h67q8 45 11.5 87.5t3.5 87.5v280q0 38-3.5 80.5t-11.5 94.5h-67q-4 19 0 37 35-1 61-1.5t44-0.5l31-70q-3-30-5-66t-2-74v-280q0-45 3.5-87.5t11.5-87.5h77q4-18 0-37-34 2-65.5 2t-50.5 0q-18 0-44 0t-61-2zm622 2-47 200v290q0 45-3.5 84t-11.5 91h-77q-4 19 0 37 35-1 66.5-1.5t50.5-0.5q17 0 43.5 0.5t60.5 1.5q4-18 0-37h-67q-8-52-11.5-91t-3.5-84z"/><path transform="translate(75.698 14) scale(.014 -.014)" d="m268 415q-36 0-62.5-20t-41-61.5-14.5-104.5q0-70 16-115.5t45-67 67-21.5l-5-40q-66 0-117.5 29t-81 83-29.5 127q0 71 28.5 123t79.5 80 120 28zm10-390q37 0 63 20.5t40.5 61.5 14.5 104q0 71-16 116t-44.5 66.5-67.5 21.5l5 40q67 0 118-29t80.5-82.5 29.5-127.5q0-71-28-123t-79.5-80-120.5-28z"/><path transform="translate(83.342 14) scale(.014 -.014)" d="m227-15q-55 0-85 22.5t-50 56.5q2 15 2.5 30t0.5 30v136q0 72-10 143h-52q-4 19 0 37 39 0 82.5 2.5t89.5 10.5q-6-25-9-60.5t-4.5-71.5-1.5-61v-136q0-37 16.5-63t58.5-26q35 0 62.5 18.5t47.5 56.5l10-45q-27-38-65-59t-93-21zm539 457q4-19 0-39h-40q-7-41-8.5-79.5t-1.5-93.5q0-47-10-91t-31.5-78.5-54-55-77.5-20.5q-33 0-67.5 7.5t-92.5 7.5q2 17 2 33t0 32l-10 45v150q0 72-10 143h-57q-4 19 0 37 39 0 85 2.5t92 10.5q-6-25-9-60.5t-4.5-71.5-1.5-61v-130q0-47 12-73.5t61-26.5q40 0 68 26t43 71.5 15 102.5q0 47-12 89.5t-41 83.5h-47q-4 20 0 39 35-1 68.5-1.5t51.5-0.5q17 0 37.5 0.5t39.5 1.5z"/><path transform="translate(94.514 14) scale(.014 -.014)" d="m225 5q-55 0-85 22.5t-50 56.5q2 15 2.5 30t0.5 30v116q0 72-10 143h-52q-4 19 0 37 39 0 82.5 2.5t89.5 10.5q-6-25-9-60.5t-4.5-71.5-1.5-61v-116q0-37 16.5-63t58.5-26q35 0 62.5 18.5t47.5 56.5v-56q-16-23-36.5-38.5t-47.5-23-64-7.5zm81 435q39 0 85 2.5t92 10.5q-6-25-9-60.5t-4.5-71.5-1.5-61v-190q0-95-34.5-161t-91-100-123.5-34q-76 0-123.5 30.5t-47.5 88.5q0 51 34.5 84.5t80.5 55.5l28-17q-37-24-50-51.5t-13-61.5q0-42 21-65.5t70-23.5q58 0 91.5 30.5t48 78.5 14.5 100v236q0 72-10 143h-57q-4 19 0 37z"/></svg>