<svg width="39.02" height="16.823" viewBox="0 0 39.02 16.823" xmlns="http://www.w3.org/2000/svg"><path transform="translate(0 13.111) scale(.0068359 -.0068359)" d="m270 441q8-241 12-371 1-34-16.5-50.5t-38-16.5-36.5 15.5-16 49.5v226l-1 310v278q0 272-4.5 346t-6.5 112-5 77.5-5.5 77.5 5 52 18.5 20.5 23 8.5 51 12q123 30 218 30t161-24 113-73q100-103 100-294 0-260-182-477-147-175-390-309zm-3 95q483 262 483 682 0 231-160 297-119 49-289-9-20-7-38-14-7-175-7-360v-302q0-19 1-37t1.5-38.5 2-53 3.5-81.5q1-35 3-84z"/><path transform="translate(5.9131 13.111) scale(.0068359 -.0068359)" d="m442 673q-33 24-77.5 24t-81-24.5-61.5-68.5q-51-88-51-241.5t49-226.5 131-73q90 0 144 103 48 92 48 226 0 206-101 281zm-92-695q-57-1-106.5 23.5t-85.5 76.5q-79 110-79 313 0 182 85 287 80 100 212 100 111 0 184-96 75-102 75-280 0-198-87-316-78-106-198-108z"/><path transform="translate(10.787 13.111) scale(.0068359 -.0068359)" d="m232 386v-71q0-51 7-249 0-46-39-62-11-4-25-4t-28 15-13 61 2.5 96.5 3.5 95.5q3 107 3 168 0 98-8 242-2 31 14.5 50t38 19 40.5-18.5 17-39.5-3-36.5-2-32.5q0-8-1-15 58 107 140 138 29 11 61 11t60.5-14.5 49.5-40.5q30-36 43-93 82 148 200 148 119 0 158-148 14-53 14-129v-122q0-175 9-289 2-32-15.5-49t-33-17-26 4-18.5 12q-20 18-17 46.5t5 65 3 76.5q4 95 4 147t1 80.5-0.5 85.5-27 100.5-66 43.5-69.5-18-50-49q-44-64-54-162v-70q0-172 7-296 1-32-18-49t-39.5-17-37.5 15-14 46 5 69 3 80q4 96 4 148v82q0 29-2 54-2 83-29 125t-68.5 42-72-20.5-53.5-53.5q-44-63-62-159-1-23-1-42z"/><path transform="translate(18.197 13.111) scale(.0068359 -.0068359)" d="m235-21q-3-68-3-135t15-307q0-38-41-51-11-3-21.5-3t-20 3.5-16.5 11.5q-17 17-14 57 10 135 10 400 0 471-11 724-2 33 14.5 53t39.5 20 37.5-16.5 12.5-43.5q-3-44-4-77 35 64 93 107 73 55 164 55t142.5-68 51.5-175-22-181.5-58.5-133.5-84-103-97.5-74q-99-59-187-63zm-2 459q-3-263 3-371 39-5 90 18 65 29 108 64t78 86q80 117 80 279 0 87-36 131.5t-85.5 44.5-90.5-24.5-72-61.5q-64-78-75-166z"/><path transform="translate(23.331 13.111) scale(.0068359 -.0068359)" d="m280 1060q7-16 5.5-38.5t-10.5-38.5-21-26q-23-18-47-18t-38 5.5-25 15.5q-26 24-26 63t20 56q33 29 66 29 54 0 76-48zm-54-1050q-17-17-37-17t-37.5 15-13.5 61q11 127 11 257t-3.5 210.5-5 121.5 3.5 53 14 19q17 16 38 16t37-15 15-47q-5-104-10-205t-5-182 5-167.5 0.5-99-12.5-20.5z"/><path transform="translate(25.942 13.111) scale(.0068359 -.0068359)" d="m519 432q2 174-73 238-30 27-73 27t-71-16-49.5-43-36-61.5-23.5-70.5q-9-38-13-75l137-6q134 0 202 7zm-343-87q2-138 50-211 52-78 147-78 87 0 127 86 25 56 62 56 17 0 28.5-11t10.5-38.5-19.5-59.5-51.5-57q-72-56-173-56-109 0-188 93-83 98-83 233t23.5 219.5 62.5 140.5q76 113 190 113 146 0 205-115 41-80 44-235 1-44-14-59t-61-15z"/><path transform="translate(30.666 13.111) scale(.0068359 -.0068359)" d="m543 721q0-54-54-62-66-13-149-113-89-108-100-213-4-46-4-84 0-91 8-191 2-33-16.5-50t-40-17-37.5 15.5-13 47 5 73 4 87.5q2 78 2 174 0 162-4 240.5t1 90.5 13 19q17 16 37.5 16t37-15 15-38.5-4-46-5.5-55.5q-6-53-11-113 41 103 117 190 85 95 148 95 27 0 39-15t12-35z"/><path transform="translate(34.296 13.111) scale(.0068359 -.0068359)" d="m519 432q2 174-73 238-30 27-73 27t-71-16-49.5-43-36-61.5-23.5-70.5q-9-38-13-75l137-6q134 0 202 7zm-343-87q2-138 50-211 52-78 147-78 87 0 127 86 25 56 62 56 17 0 28.5-11t10.5-38.5-19.5-59.5-51.5-57q-72-56-173-56-109 0-188 93-83 98-83 233t23.5 219.5 62.5 140.5q76 113 190 113 146 0 205-115 41-80 44-235 1-44-14-59t-61-15z"/></svg>