<svg width="55" height="15" viewBox="0 0 55 15" fill="none" xmlns="http://www.w3.org/2000/svg">
<path d="M7.02 3.75C7.02 4.56333 6.74333 5.23667 6.19 5.77C5.63667 6.31 4.79 6.58 3.65 6.58H1.77V10.65H0.5V0.89H3.65C4.75 0.89 5.58667 1.15667 6.16 1.69C6.73333 2.22333 7.02 2.91 7.02 3.75ZM3.65 5.53C4.35667 5.53 4.88 5.37333 5.22 5.06C5.55333 4.75333 5.72 4.31667 5.72 3.75C5.72 2.54333 5.03 1.94 3.65 1.94H1.77V5.53H3.65ZM11.95 10.78C11.23 10.78 10.58 10.6167 10 10.29C9.41333 9.96333 8.95667 9.49667 8.63 8.89C8.29667 8.29 8.13 7.59333 8.13 6.8C8.13 6.01333 8.3 5.32 8.64 4.72C8.98 4.12 9.44333 3.65667 10.03 3.33C10.6167 3.01 11.2767 2.85 12.01 2.85C12.7367 2.85 13.3933 3.01 13.98 3.33C14.5667 3.65667 15.03 4.11667 15.37 4.71C15.71 5.31 15.88 6.00667 15.88 6.8C15.88 7.59333 15.7067 8.29 15.36 8.89C15.0067 9.49667 14.5333 9.96333 13.94 10.29C13.34 10.6167 12.6767 10.78 11.95 10.78ZM11.95 9.66C12.41 9.66 12.84 9.55 13.24 9.33C13.64 9.11667 13.9633 8.79667 14.21 8.37C14.4567 7.93667 14.58 7.41333 14.58 6.8C14.58 6.18667 14.46 5.66333 14.22 5.23C13.9733 4.80333 13.6567 4.48333 13.27 4.27C12.8767 4.06333 12.45 3.96 11.99 3.96C11.5233 3.96 11.0967 4.06333 10.71 4.27C10.3233 4.48333 10.0133 4.80333 9.78 5.23C9.54667 5.66333 9.43 6.18667 9.43 6.8C9.43 7.42667 9.54333 7.95333 9.77 8.38C10.0033 8.81333 10.31 9.13333 10.69 9.34C11.07 9.55333 11.49 9.66 11.95 9.66ZM18.84 4.39C19.0933 3.95 19.47 3.58333 19.97 3.29C20.4633 2.99667 21.0433 2.85 21.71 2.85C22.39 2.85 23.0067 3.01333 23.56 3.34C24.12 3.66667 24.5567 4.12667 24.87 4.72C25.19 5.31333 25.35 6.00333 25.35 6.79C25.35 7.56333 25.19 8.25333 24.87 8.86C24.5567 9.46667 24.12 9.93667 23.56 10.27C23.0067 10.61 22.39 10.78 21.71 10.78C21.0567 10.78 20.48 10.6333 19.98 10.34C19.48 10.04 19.1 9.67333 18.84 9.24V14.29H17.56V2.98H18.84V4.39ZM24.05 6.79C24.05 6.21 23.9333 5.70333 23.7 5.27C23.4667 4.84333 23.15 4.51667 22.75 4.29C22.3567 4.07 21.92 3.96 21.44 3.96C20.9733 3.96 20.5433 4.07333 20.15 4.3C19.75 4.52667 19.4333 4.85667 19.2 5.29C18.96 5.73 18.84 6.23333 18.84 6.8C18.84 7.38 18.96 7.88667 19.2 8.32C19.4333 8.75333 19.75 9.08333 20.15 9.31C20.5433 9.54333 20.9733 9.66 21.44 9.66C21.92 9.66 22.3567 9.54333 22.75 9.31C23.15 9.08333 23.4667 8.75333 23.7 8.32C23.9333 7.88667 24.05 7.37667 24.05 6.79ZM28.3 4.39C28.5533 3.95 28.93 3.58333 29.43 3.29C29.93 2.99667 30.51 2.85 31.17 2.85C31.85 2.85 32.47 3.01333 33.03 3.34C33.5833 3.66667 34.02 4.12667 34.34 4.72C34.6533 5.31333 34.81 6.00333 34.81 6.79C34.81 7.56333 34.6533 8.25333 34.34 8.86C34.02 9.46667 33.5833 9.93667 33.03 10.27C32.47 10.61 31.85 10.78 31.17 10.78C30.5167 10.78 29.94 10.6333 29.44 10.34C28.94 10.04 28.56 9.67333 28.3 9.24V14.29H27.03V2.98H28.3V4.39ZM33.51 6.79C33.51 6.21 33.3933 5.70333 33.16 5.27C32.9267 4.84333 32.6133 4.51667 32.22 4.29C31.82 4.07 31.3833 3.96 30.91 3.96C30.4433 3.96 30.01 4.07333 29.61 4.3C29.2167 4.52667 28.9 4.85667 28.66 5.29C28.42 5.73 28.3 6.23333 28.3 6.8C28.3 7.38 28.42 7.88667 28.66 8.32C28.9 8.75333 29.2167 9.08333 29.61 9.31C30.01 9.54333 30.4433 9.66 30.91 9.66C31.3833 9.66 31.82 9.54333 32.22 9.31C32.6133 9.08333 32.9267 8.75333 33.16 8.32C33.3933 7.88667 33.51 7.37667 33.51 6.79ZM37.15 1.73C36.91 1.73 36.7033 1.64667 36.53 1.48C36.3633 1.31333 36.28 1.10667 36.28 0.86C36.28 0.62 36.3633 0.416667 36.53 0.25C36.7033 0.0833333 36.91 0 37.15 0C37.3833 0 37.5833 0.0833333 37.75 0.25C37.91 0.416667 37.99 0.62 37.99 0.86C37.99 1.10667 37.91 1.31333 37.75 1.48C37.5833 1.64667 37.3833 1.73 37.15 1.73ZM36.49 2.98H37.77V10.65H36.49V2.98ZM43.67 2.84C44.6033 2.84 45.36 3.12333 45.94 3.69C46.52 4.25 46.81 5.06333 46.81 6.13V10.65H45.55V6.31C45.55 5.54333 45.36 4.95667 44.98 4.55C44.5933 4.14333 44.07 3.94 43.41 3.94C42.7367 3.94 42.2033 4.15 41.81 4.57C41.41 4.99 41.21 5.60333 41.21 6.41V10.65H39.94V2.98H41.21V4.07C41.4633 3.67667 41.8067 3.37333 42.24 3.16C42.6733 2.94667 43.15 2.84 43.67 2.84ZM51.61 10.78C51.0233 10.78 50.4967 10.6767 50.03 10.47C49.5633 10.27 49.1933 9.99 48.92 9.63C48.6533 9.27667 48.5067 8.86667 48.48 8.4H49.79C49.83 8.78 50.01 9.09 50.33 9.33C50.65 9.57667 51.0733 9.7 51.6 9.7C52.0867 9.7 52.47 9.59333 52.75 9.38C53.03 9.16 53.17 8.88667 53.17 8.56C53.17 8.22667 53.02 7.97667 52.72 7.81C52.42 7.65 51.9567 7.49 51.33 7.33C50.7633 7.18333 50.3 7.03333 49.94 6.88C49.58 6.72667 49.2733 6.49667 49.02 6.19C48.76 5.89 48.63 5.49 48.63 4.99C48.63 4.60333 48.7467 4.24667 48.98 3.92C49.2133 3.59333 49.5433 3.33333 49.97 3.14C50.4033 2.94667 50.8933 2.85 51.44 2.85C52.2933 2.85 52.98 3.06667 53.5 3.5C54.0267 3.92667 54.3067 4.51333 54.34 5.26H53.07C53.0433 4.86 52.8833 4.53667 52.59 4.29C52.29 4.05 51.8933 3.93 51.4 3.93C50.9467 3.93 50.5833 4.02667 50.31 4.22C50.0367 4.42 49.9 4.67667 49.9 4.99C49.9 5.24333 49.9833 5.45333 50.15 5.62C50.31 5.78 50.5167 5.91 50.77 6.01C51.0167 6.11 51.3567 6.22 51.79 6.34C52.3433 6.48667 52.7933 6.63333 53.14 6.78C53.4867 6.92667 53.7833 7.14333 54.03 7.43C54.2767 7.71667 54.4033 8.09333 54.41 8.56C54.41 8.98 54.2933 9.36 54.06 9.7C53.8267 10.0333 53.5 10.2967 53.08 10.49C52.6533 10.6833 52.1633 10.78 51.61 10.78Z" fill="black"/>
</svg>
