<svg width="30" height="10" viewBox="0 0 30 10" fill="none" xmlns="http://www.w3.org/2000/svg">
<path d="M0.5 9.27V8.25H0.88C1.08667 8.25 1.23 8.20667 1.31 8.12C1.39 8.04 1.43 7.91 1.43 7.73V1.75C1.43 1.57667 1.39 1.45 1.31 1.37C1.23 1.29 1.08667 1.25 0.88 1.25H0.5V0.21H5.3C6.23333 0.21 6.96667 0.45 7.5 0.93C8.02667 1.41 8.29 2.1 8.29 3C8.29 3.89333 8.02 4.6 7.48 5.12C6.94667 5.64 6.21667 5.9 5.29 5.9H2.91V7.73C2.91 7.91 2.95 8.04 3.03 8.12C3.11 8.20667 3.25333 8.25 3.46 8.25H3.82V9.27H0.5ZM2.91 4.86H5.09C5.68333 4.86 6.12 4.70667 6.4 4.4C6.68667 4.1 6.83 3.63333 6.83 3C6.83 2.35333 6.69333 1.9 6.42 1.64C6.15333 1.38 5.71 1.25 5.09 1.25H2.91V4.86ZM9.21 9.27V8.23H9.56C9.74667 8.23 9.88 8.19333 9.96 8.12C10.04 8.04 10.08 7.90667 10.08 7.72V4.1C10.08 3.92667 10.0433 3.79667 9.97 3.71C9.89 3.63 9.76333 3.59 9.59 3.59H9.29V2.55H11.23L11.42 3.32C11.6067 3.03333 11.8467 2.83333 12.14 2.72C12.4333 2.60667 12.7833 2.55 13.19 2.55H13.83V3.59H13.05C12.5167 3.59 12.1367 3.70667 11.91 3.94C11.69 4.18 11.58 4.54667 11.58 5.04V7.72C11.58 7.90667 11.6167 8.04 11.69 8.12C11.7633 8.19333 11.89 8.23 12.07 8.23H12.42V9.27H9.21ZM15.36 1.49V0.2H16.94V1.49H15.36ZM14.47 9.27V8.23H14.88C15.0667 8.23 15.2 8.19 15.28 8.11C15.36 8.02333 15.4 7.88667 15.4 7.7V4.1C15.4 3.92667 15.36 3.8 15.28 3.72C15.2 3.64 15.0667 3.6 14.88 3.6H14.47V2.55H16.9V7.72C16.9 7.89333 16.94 8.02333 17.02 8.11C17.1067 8.19 17.2367 8.23 17.41 8.23H17.82V9.27H14.47ZM21.33 9.48C20.41 9.48 19.69 9.18 19.17 8.58C18.65 7.98667 18.39 7.13333 18.39 6.02C18.39 4.85333 18.6467 3.95 19.16 3.31C19.6733 2.66333 20.4167 2.34 21.39 2.34C21.9567 2.34 22.41 2.41 22.75 2.55C23.0967 2.69 23.38 2.92333 23.6 3.25V1.64C23.6 1.41333 23.5633 1.25333 23.49 1.16C23.4167 1.06667 23.2733 1.02 23.06 1.02H22.82V0H25.04V7.77C25.04 7.97667 25.0733 8.12 25.14 8.2C25.2067 8.28 25.33 8.32 25.51 8.32H25.79V9.27H23.91L23.78 8.29C23.5 8.71 23.17 9.01333 22.79 9.2C22.41 9.38667 21.9233 9.48 21.33 9.48ZM21.67 8.39C22.27 8.39 22.7367 8.19667 23.07 7.81C23.4033 7.42333 23.57 6.90333 23.57 6.25V5.53C23.57 4.85 23.41 4.32667 23.09 3.96C22.77 3.6 22.3167 3.42 21.73 3.42C21.0633 3.42 20.5833 3.62333 20.29 4.03C19.9967 4.44333 19.85 5.10333 19.85 6.01C19.85 6.87 19.99 7.48 20.27 7.84C20.55 8.20667 21.0167 8.39 21.67 8.39ZM27.31 1.49V0.2H28.89V1.49H27.31ZM26.43 9.27V8.23H26.84C27.0267 8.23 27.1567 8.19 27.23 8.11C27.31 8.02333 27.35 7.88667 27.35 7.7V4.1C27.35 3.92667 27.31 3.8 27.23 3.72C27.1567 3.64 27.0267 3.6 26.84 3.6H26.43V2.55H28.85V7.72C28.85 7.89333 28.8933 8.02333 28.98 8.11C29.06 8.19 29.19 8.23 29.37 8.23H29.78V9.27H26.43Z" fill="black"/>
</svg>
