<svg width="89.46" height="17.29" viewBox="0 0 89.46 17.29" xmlns="http://www.w3.org/2000/svg"><path transform="translate(0 13.16) scale(.014 -.014)" d="m430 700q75 0 134.5-16.5t100.5-48 63-77 22-103.5-22-103.5-63-77-100.5-48-134.5-16.5h-215v-210h-145v700zm-215-75v-340h215q79 0 122.5 41.5t43.5 128.5-43.5 128.5-122.5 41.5z"/><path transform="translate(11.06 13.16) scale(.014 -.014)" d="m465 450h-120q-68 0-104-36.5t-36-108.5v-305h-140v305q0 102 64.5 158.5t185.5 56.5h150z"/><path transform="translate(17.71 13.16) scale(.014 -.014)" d="m350 45q32 0 60 12t49 37.5 33.5 66.5 12.5 99-12.5 99-33.5 66.5-49 37.5-60 12-60-12-49-37.5-33.5-66.5-12.5-99 12.5-99 33.5-66.5 49-37.5 60-12zm0 495q67 0 123.5-18.5t96.5-54 62.5-88 22.5-119.5q0-68-22.5-120t-62.5-87.5-96.5-54-123.5-18.5q-68 0-124 18.5t-96 54-62.5 87.5-22.5 120q0 67 22.5 119.5t62.5 88 96 54 124 18.5z"/><path transform="translate(27.51 13.16) scale(.014 -.014)" d="m190 410q0-23 20.5-42t69.5-33l155-45q72-21 111-57t39-93q0-36-15-65.5t-49-50.5-88-32.5-133-11.5q-41 0-80.5 6t-75 16.5-64.5 24-50 28.5l40 60q42-26 98.5-45.5t131.5-19.5 105 20 30 50q0 23-21 41.5t-74 33.5l-155 45q-64 19-104.5 54.5t-40.5 95.5q0 32 14.5 59.5t45.5 47.5 79 31.5 116 11.5q83 0 150.5-22.5t109.5-52.5l-40-60q-41 26-93 45.5t-127 19.5q-53 0-79-17t-26-43z"/><path transform="translate(36.12 13.16) scale(.014 -.014)" d="m115 450h-95v70h95v160h140v-160h155v-70h-155v-260q0-38 8.5-64.5t23-43 33.5-24.5 40-8q30 0 58 9.5t47 20.5l30-65q-30-15-68.5-25t-76.5-10q-113 0-174 56t-61 154z"/><path transform="translate(43.19 13.16) scale(.014 -.014)" d="m350 45q32 0 60 12t49 37.5 33.5 66.5 12.5 99-12.5 99-33.5 66.5-49 37.5-60 12-60-12-49-37.5-33.5-66.5-12.5-99 12.5-99 33.5-66.5 49-37.5 60-12zm0 495q67 0 123.5-18.5t96.5-54 62.5-88 22.5-119.5q0-68-22.5-120t-62.5-87.5-96.5-54-123.5-18.5q-68 0-124 18.5t-96 54-62.5 87.5-22.5 120q0 67 22.5 119.5t62.5 88 96 54 124 18.5z"/><path transform="translate(57.89 13.16) scale(.014 -.014)" d="m450 650q-51 0-95.5-18t-77.5-55-52.5-93.5-19.5-133.5 19.5-133.5 52.5-93.5 77.5-55 95.5-18 95.5 18 77.5 55 52.5 93.5 19.5 133.5-19.5 133.5-52.5 93.5-77.5 55-95.5 18zm0 70q90 0 163.5-24t126-71 81.5-116 29-159-29-159-81.5-116-126-71-163.5-24-164 24-126.5 71-81 116-28.5 159 28.5 159 81 116 126.5 71 164 24z"/><path transform="translate(70.49 13.16) scale(.014 -.014)" d="m620 0h-140v315q0 72-36 103.5t-104 31.5h-130v-450h-140v520h270q143 0 211.5-51.5t68.5-153.5z"/><path transform="translate(80.08 13.16) scale(.014 -.014)" d="m370 50q49 0 91.5 17t83.5 48l40-60q-19-17-44.5-31t-55-23.5-61.5-15-64-5.5q-71 0-129.5 18.5t-99.5 54-63.5 87.5-22.5 120q0 67 21.5 119.5t60 88 91.5 54 117 18.5q60 0 113-18t92-52.5 62-83.5 23-111v-70h-427q12-83 57.5-119t114.5-36zm-35 425q-29 0-54-11t-43.5-35-30-62-12.5-92h280q0 52-12 90t-31.5 62.5-45 36-51.5 11.5z"/></svg>