<?xml version="1.0" encoding="utf-8" ?>
<svg baseProfile="tiny" height="100%" version="1.2" width="100%" xmlns="http://www.w3.org/2000/svg" xmlns:ev="http://www.w3.org/2001/xml-events" xmlns:xlink="http://www.w3.org/1999/xlink"><defs /><g><path d="M55 579 0 720H288Q378 720 437.0 695.5Q496 671 525.0 613.0Q554 555 554 455Q554 320 491.0 258.5Q428 197 299 195V347Q322 358 333.5 384.5Q345 411 345 457Q345 508 336.5 534.0Q328 560 307.5 569.5Q287 579 250 579ZM55 529H250V0H55Z" transform="translate(0.0, 72) scale(0.072, -0.072)" /><path d="M258 402V559Q304 591 374 578V410Q346 410 316.5 408.0Q287 406 258 402ZM220 0H40V575H193L220 498Z" transform="translate(40.967999999999996, 72) scale(0.072, -0.072)" /><path d="M292 -9V138Q328 162 328 286Q328 413 292 435V582Q412 577 463.0 507.5Q514 438 514 287Q514 136 463.0 66.5Q412 -3 292 -9ZM242 137V-9Q122 -3 71.0 66.5Q20 136 20 287Q20 438 71.0 507.0Q122 576 242 582V436Q223 424 214.5 388.0Q206 352 206 286Q206 159 242 137Z" transform="translate(68.976, 72) scale(0.072, -0.072)" /><path d="M10 440V575H85V701H265V575H374V440ZM85 399H265V191Q265 163 279.5 150.0Q294 137 326 137Q342 137 354.0 138.5Q366 140 374 142V9Q350 1 323.5 -4.5Q297 -10 270 -10Q178 -10 131.5 29.5Q85 69 85 171Z" transform="translate(107.424, 72) scale(0.072, -0.072)" /><path d="M284 -10Q225 -10 176.5 3.0Q128 16 93.0 49.0Q58 82 39.0 140.0Q20 198 20 288Q20 428 70.0 502.5Q120 577 231 583V436Q209 402 209 291Q209 226 219.0 191.0Q229 156 257.5 143.0Q286 130 339 130Q362 130 386.5 134.0Q411 138 434 143V7Q399 0 360.5 -5.0Q322 -10 284 -10ZM259 232V343H292Q292 366 290.5 392.0Q289 418 280 435V582Q375 574 417.0 513.5Q459 453 459 343Q459 315 457.0 285.5Q455 256 450 232Z" transform="translate(135.792, 72) scale(0.072, -0.072)" /><path d="M243 376 152 232 114 257Q67 288 46.0 324.0Q25 360 25 418Q25 501 74.0 541.5Q123 582 235 583Q277 583 312.5 579.5Q348 576 369.5 572.0Q391 568 391 568L376 435Q376 435 361.0 437.0Q346 439 322.5 441.5Q299 444 274 444Q238 444 222.0 438.0Q206 432 206 415Q206 405 212.0 398.5Q218 392 231 384ZM194 205 286 348 319 327Q367 296 388.0 260.5Q409 225 409 169Q409 80 358.0 35.5Q307 -9 191 -10Q140 -10 97.5 -4.5Q55 1 20 10L35 146Q35 146 72.0 140.5Q109 135 170 135Q225 135 225 168Q225 185 200 201Z" transform="translate(169.92000000000002, 72) scale(0.072, -0.072)" /><path d="M10 440V575H85V701H265V575H374V440ZM85 399H265V191Q265 163 279.5 150.0Q294 137 326 137Q342 137 354.0 138.5Q366 140 374 142V9Q350 1 323.5 -4.5Q297 -10 270 -10Q178 -10 131.5 29.5Q85 69 85 171Z" transform="translate(200.80800000000002, 72) scale(0.072, -0.072)" /><path d="M230 382H20Q25 505 67.0 581.0Q109 657 181.5 692.5Q254 728 348 728Q383 728 421.0 722.0Q459 716 499 708L481 544Q448 550 424.5 553.5Q401 557 377 557Q328 557 296.0 542.0Q264 527 248.5 489.0Q233 451 230 382ZM352 -10V219L297 356H532V34Q500 13 452.5 2.5Q405 -8 352 -10ZM302 161V-9Q218 -4 155.5 32.0Q93 68 58.5 141.5Q24 215 20 332H230Q232 256 248.0 216.0Q264 176 302 161Z" transform="translate(247.17600000000002, 72) scale(0.072, -0.072)" /><path d="M259 133V3Q226 -8 195 -8Q126 -8 80.5 35.0Q35 78 35 164V575H215V193Q215 139 259 133ZM299 77V575H479V0H326Z" transform="translate(286.56, 72) scale(0.072, -0.072)" /><path d="M284 -10Q225 -10 176.5 3.0Q128 16 93.0 49.0Q58 82 39.0 140.0Q20 198 20 288Q20 428 70.0 502.5Q120 577 231 583V436Q209 402 209 291Q209 226 219.0 191.0Q229 156 257.5 143.0Q286 130 339 130Q362 130 386.5 134.0Q411 138 434 143V7Q399 0 360.5 -5.0Q322 -10 284 -10ZM259 232V343H292Q292 366 290.5 392.0Q289 418 280 435V582Q375 574 417.0 513.5Q459 453 459 343Q459 315 457.0 285.5Q455 256 450 232Z" transform="translate(323.928, 72) scale(0.072, -0.072)" /><path d="M258 402V559Q304 591 374 578V410Q346 410 316.5 408.0Q287 406 258 402ZM220 0H40V575H193L220 498Z" transform="translate(358.056, 72) scale(0.072, -0.072)" /><path d="M258 402V559Q304 591 374 578V410Q346 410 316.5 408.0Q287 406 258 402ZM220 0H40V575H193L220 498Z" transform="translate(386.06399999999996, 72) scale(0.072, -0.072)" /><path d="M40 575H220V0H40ZM35 755H225V619H35Z" transform="translate(414.07199999999995, 72) scale(0.072, -0.072)" /><path d="M220 0H40V731L220 755Z" transform="translate(432.7919999999999, 72) scale(0.072, -0.072)" /><path d="M220 0H40V731L220 755Z" transform="translate(451.51199999999994, 72) scale(0.072, -0.072)" /><path d="M280 393Q280 422 260.0 432.5Q240 443 209 443Q171 443 136.0 436.0Q101 429 66 416V556Q111 566 159.5 574.5Q208 583 257 583Q312 583 358.0 569.5Q404 556 432.0 521.0Q460 486 460 421V0H304L280 86ZM230 124V1Q204 -10 174 -10Q134 -10 99.0 10.5Q64 31 42.0 70.0Q20 109 20 164Q20 248 78.5 292.5Q137 337 230 338V232Q214 225 204.5 212.5Q195 200 195 181Q195 158 205.0 143.5Q215 129 230 124Z" transform="translate(470.23199999999997, 72) scale(0.072, -0.072)" /></g></svg>