<svg width="76.09" height="18.116" viewBox="0 0 76.09 18.116" xmlns="http://www.w3.org/2000/svg"><path transform="translate(0 14.252) scale(.014 -.014)" d="m64 693q32 9 68 12t71 3q40 0 79-9t70.5-33 51-66 19.5-107q0-63-18.5-107t-49-71.5-70-40-81.5-12.5q-4 0-13 0t-19 0.5-19.5 1.5-13.5 2v-266h-75zm143-54q-20 0-38.5-1.5t-29.5-4.5v-298q4-2 12.5-2.5t17.5-1 17.5-0.5 12.5 0q28 0 54 7t46 25.5 32.5 50 12.5 79.5q0 42-11.5 70t-30 45-43.5 24-52 7z"/><path transform="translate(6.314 14.252) scale(.014 -.014)" d="M433 631H261V0H186V631H14V700H433Z"/><path transform="translate(15.54 14.252) scale(.014 -.014)" d="m59 93q19-13 53.5-24.5t78.5-11.5q56 0 91 27.5t35 86.5q0 39-20 68t-50 53.5-64.5 48-64.5 52-50 65.5-20 89q0 84 50.5 124.5t131.5 40.5q50 0 89-9t63-23l-24-66q-18 11-51.5 20t-77.5 9q-54 0-80-26.5t-26-66.5q0-35 20-62t50-51 64.5-48.5 64.5-54.5 50-68 20-90q0-88-52-138t-147-50q-60 0-98.5 11t-61.5 25z"/><path transform="translate(21.532 14.252) scale(.014 -.014)" d="m54 470q29 18 70.5 28t87.5 10q42 0 67.5-12.5t40-34 19-49 4.5-57.5q0-60-2.5-117t-2.5-108q0-38 2.5-70.5t9.5-61.5h-55l-17 59h-4q-15-26-44-45t-78-19q-54 0-88.5 37.5t-34.5 103.5q0 43 14.5 72t41 47 63 25.5 81.5 7.5q10 0 20 0t21-1q3 31 3 55 0 57-17 80t-62 23q-28 0-61-8.5t-55-21.5zm217-242q-10 1-20 1.5t-20 0.5q-24 0-47-4t-41-14-28.5-27-10.5-43q0-40 19.5-62t50.5-22q42 0 65 20t32 44z"/><path transform="translate(27.132 14.252) scale(.014 -.014)" d="m315 0v305q0 75-17.5 108.5t-62.5 33.5q-40 0-66-24t-38-59v-364h-72v500h52l13-53h3q19 27 51.5 46t77.5 19q32 0 56.5-9t41-30.5 25-57.5 8.5-91v-324z"/><path transform="translate(33.278 14.252) scale(.014 -.014)" d="m51 82q20-12 47.5-20.5t56.5-8.5q33 0 56 16.5t23 53.5q0 31-14 51t-35.5 36-46.5 29.5-46.5 32.5-35.5 45-14 66q0 64 34.5 96.5t97.5 32.5q41 0 71-7.5t52-20.5l-19-60q-19 10-44 16.5t-51 6.5q-36 0-52.5-15t-16.5-47q0-25 14-42.5t35.5-32 46.5-29.5 46.5-35.5 35.5-49 14-71.5q0-28-9-53t-27.5-43.5-46-29.5-64.5-11q-44 0-76 8.5t-54 22.5z"/><path transform="translate(40.978 14.252) scale(.014 -.014)" d="m171 444-43 110h-3l11-110v-444h-72v711h45l259-454 41-105h4l-11 105v443h72v-711h-46z"/><path transform="translate(48.51 14.252) scale(.014 -.014)" d="m54 470q29 18 70.5 28t87.5 10q42 0 67.5-12.5t40-34 19-49 4.5-57.5q0-60-2.5-117t-2.5-108q0-38 2.5-70.5t9.5-61.5h-55l-17 59h-4q-15-26-44-45t-78-19q-54 0-88.5 37.5t-34.5 103.5q0 43 14.5 72t41 47 63 25.5 81.5 7.5q10 0 20 0t21-1q3 31 3 55 0 57-17 80t-62 23q-28 0-61-8.5t-55-21.5zm217-242q-10 1-20 1.5t-20 0.5q-24 0-47-4t-41-14-28.5-27-10.5-43q0-40 19.5-62t50.5-22q42 0 65 20t32 44z"/><path transform="translate(54.11 14.252) scale(.014 -.014)" d="m59 500h51l13-53h3q14 29 36.5 45.5t54.5 16.5q23 0 52-9l-14-73q-26 9-46 9-32 0-52-18.5t-26-49.5v-368h-72z"/><path transform="translate(57.946 14.252) scale(.014 -.014)" d="m59 500h51l13-53h3q14 29 36.5 45.5t54.5 16.5q23 0 52-9l-14-73q-26 9-46 9-32 0-52-18.5t-26-49.5v-368h-72z"/><path transform="translate(61.782 14.252) scale(.014 -.014)" d="m37 250q0 135 46.5 198.5t132.5 63.5q92 0 135.5-65t43.5-197q0-136-47-199t-132-63q-92 0-135.5 65t-43.5 197zm75 0q0-44 5.5-80t18-62 32.5-40.5 48-14.5q52 0 78 46.5t26 150.5q0 43-5.5 79.5t-18 62.5-32.5 40.5-48 14.5q-51 0-77.5-47t-26.5-150z"/><path transform="translate(67.83 14.252) scale(.014 -.014)" d="m326 500 89-292 18-96h2l15 98 68 290h68l-133-511h-41l-101 328-14 84h-2l-14-85-98-327h-41l-137 511h77l77-291 12-97h2l18 99 82 289z"/></svg>