<svg width="114.58" height="18.55" viewBox="0 0 114.58 18.55" xmlns="http://www.w3.org/2000/svg"><path transform="translate(0 14.546) scale(.014 -.014)" d="m32 644v56h104q45 0 97.5 4t101.5 4q55 0 108-10.5t94-35.5 66.5-66.5 25.5-103.5q0-59-26-101.5t-68.5-69.5-98-40-114.5-13q-6 0-18 0t-25.5 0.5-25.5 1.5-18 2v-216h100v-56h-303v56h91v588zm203-315q5-2 15.5-2.5t22.5-1.5 23.5-1 17.5 0q39 0 73.5 9.5t60.5 29.5 41 52 15 77q0 82-51.5 121t-140.5 39q-27 0-45-1.5t-32-4.5z"/><path transform="translate(9.338 14.546) scale(.014 -.014)" d="M508 0H190V56H293V644H114L94 622V493H22V700H676V493H604V622L584 644H405V56H508Z"/><path transform="translate(22.946 14.546) scale(.014 -.014)" d="m126 98 18-24q18-13 49.5-21.5t69.5-8.5q36 0 66.5 7.5t53.5 22.5 36 38 13 55q0 41-27.5 68t-68.5 48-89 41-89 47-68.5 65-27.5 96q0 85 64.5 132.5t174.5 47.5q69 0 119-9t85-24v-172h-64v108l-16 25q-19 8-55 12t-71 4q-60 0-94-27.5t-34-77.5q0-41 27.5-68.5t68.5-49.5 89-42.5 89-47 68.5-63.5 27.5-92q0-97-75-148.5t-205-51.5q-71 0-123 15t-76 32v182h64z"/><path transform="translate(31.29 14.546) scale(.014 -.014)" d="m499 69q-26-37-73.5-58.5t-110.5-21.5q-66 0-116.5 19.5t-84.5 55-51.5 86-17.5 112.5q0 134 67 203.5t188 69.5q40 0 78.5-10t68.5-33 48.5-61 18.5-94q0-17-2-36t-6-40h-348q0-44 11.5-80t35-62 58.5-40.5 83-14.5q39 0 72.5 13t53.5 30zm-203 419q-31 0-54.5-9t-40.5-30-27-55.5-13-85.5h241q1 9 1.5 18.5t0.5 17.5q0 66-26.5 105t-81.5 39z"/><path transform="translate(39.214 14.546) scale(.014 -.014)" d="m284 435q-23-12-38-28t-32-46v-311h88v-50h-267v50h74v425h-74v50h179v-101h4q17 33 40 57.5t52 43.5h96v-90z"/><path transform="translate(45.276 14.546) scale(.014 -.014)" d="m298 0h-253v50h74v425h-74v50h179v-475h74zm-201 687q0 29 20.5 46t52.5 17q34 0 53.5-17t19.5-46-19.5-46-53.5-17q-32 0-52.5 17t-20.5 46z"/><path transform="translate(50.022 14.546) scale(.014 -.014)" d="m347 750q35 0 62.5-6t41.5-11v-97h-96v64q-33 0-57.5-6t-40.5-23-24-46.5-8-77.5v-22h128v-64h-128v-411h107v-50h-286v50h74v411h-85v64h85v16q0 101 60.5 155t166.5 54z"/><path transform="translate(59.248 14.546) scale(.014 -.014)" d="m569 184h64v-157q-31-17-82-28t-101-11q-92 0-165 21t-123.5 65.5-77.5 112.5-27 163q0 98 30 166.5t81 112 118 63.5 141 20q36 0 65-2.5t52.5-7.5 43.5-12 39-15v-171h-64v105l-14 20q-11 5-34.5 12t-75.5 7q-54 0-101-17t-81.5-53-54.5-92.5-20-135.5q0-143 72.5-220.5t203.5-77.5q36 0 60.5 5.5t36.5 14.5l14 19z"/><path transform="translate(69.02 14.546) scale(.014 -.014)" d="m464 139q0-23 1-46.5t3-42.5h66v-50h-157l-10 95h-5q-5-20-18.5-39t-34-34-48.5-24-62-9-62.5 10-49.5 28-32.5 43.5-11.5 57.5q0 49 20.5 81t60.5 50.5 100 26.5 140 9q2 16 2 30.5t0 28.5q0 62-21 94.5t-75 32.5q-20 0-43-2t-42-12v-92h-90v111q36 19 85 34t115 15q57 0 91.5-14.5t53-38 24-53 5.5-58.5q0-63-2.5-120.5t-2.5-111.5zm-219-83q24 0 43 7.5t33.5 19 25 25.5 17.5 27v119q-65 0-105.5-8.5t-63.5-22.5-31.5-33.5-8.5-41.5q0-45 24-68.5t66-23.5z"/><path transform="translate(76.986 14.546) scale(.014 -.014)" d="m287-200h-253v50h74v625h-74v50h179v-105h1q22 53 62.5 84t106.5 31q99 0 153.5-61t54.5-200q0-66-18.5-119t-53-90-83-56.5-108.5-19.5q-20 0-35.5 1t-28.5 3-25.5 6-25.5 9v-158h74zm57 668q-54 0-85.5-30.5t-45.5-86.5v-293q20-13 44.5-17.5t65.5-4.5q37 0 66 17.5t49 49 30.5 75 10.5 96.5q0 43-7 78.5t-22.5 61-41.5 40-64 14.5z"/><path transform="translate(85.89 14.546) scale(.014 -.014)" d="m17 525h89v125h105v-125h166v-64h-166v-292q0-63 16-89t52-26q31 0 53.5 11t41.5 24l25-39q-9-9-24.5-19.5t-35.5-19.5-44.5-15-50.5-6q-67 0-102.5 34.5t-35.5 114.5v322h-89z"/><path transform="translate(91.742 14.546) scale(.014 -.014)" d="m298 0h-253v50h74v425h-74v50h179v-475h74zm-201 687q0 29 20.5 46t52.5 17q34 0 53.5-17t19.5-46-19.5-46-53.5-17q-32 0-52.5 17t-20.5 46z"/><path transform="translate(96.488 14.546) scale(.014 -.014)" d="m45 262q0 66 19 117t53.5 85.5 84 52.5 109.5 18q70 0 120.5-19.5t82.5-55 47.5-86 15.5-112.5q0-66-18.5-116.5t-53-85-84-52.5-110.5-18q-68 0-118 19.5t-83 55-49 85.5-16 112zm113 0q0-48 9-89t29.5-71 53-47.5 79.5-17.5q59 0 97 54t38 171q0 48-9 89.5t-28.5 72-50 47.5-74.5 17q-66 0-105-54t-39-172z"/><path transform="translate(105.2 14.546) scale(.014 -.014)" d="m651 0h-245v50h66v251q0 79-24 123t-88 44q-28 0-51.5-9t-42-24-32-35-20.5-42v-308h66v-50h-245v50h74v425h-74v50h179v-104h1q23 48 67.5 81t107.5 33q45 0 80-9.5t58.5-34.5 36-67 12.5-107v-267h74z"/></svg>