<svg width="57" height="15" viewBox="0 0 57 15" fill="none" xmlns="http://www.w3.org/2000/svg">
<path d="M2.78 14.18C2.37333 14.18 2.17 13.9833 2.17 13.59C2.17 13.19 2.54333 12.8833 3.29 12.67C5.27667 12.1233 6.69667 11.45 7.55 10.65C8.47667 9.77667 8.94 8.57333 8.94 7.04C8.94 6.20667 8.86333 5.55333 8.71 5.08C8.55667 4.60667 8.39667 4.22667 8.23 3.94C8.05667 3.66 7.84333 3.41333 7.59 3.2C7.05667 2.76667 6.38333 2.55 5.57 2.55C3.98333 2.55 2.95667 3.35667 2.49 4.97C2.33667 5.52333 2.26 6.18 2.26 6.94C2.26 8.71333 2.72 9.88 3.64 10.44C3.86 10.5733 4.12333 10.6633 4.43 10.71C4.52333 10.7367 4.59333 10.8033 4.64 10.91C4.72 11.0967 4.73333 11.22 4.68 11.28C4.56667 11.4 4.33333 11.4533 3.98 11.44C3.62667 11.4333 3.29667 11.3767 2.99 11.27C2.67667 11.1633 2.39 11.0167 2.13 10.83C1.87 10.6433 1.64 10.4267 1.44 10.18C1.24 9.92667 1.07 9.64667 0.93 9.34C0.643333 8.72 0.5 8.05667 0.5 7.35C0.5 6.64333 0.573333 6.01667 0.72 5.47C0.866667 4.92333 1.07 4.43333 1.33 4C1.59 3.56667 1.89333 3.19333 2.24 2.88C2.58667 2.56 2.96 2.3 3.36 2.1C4.15333 1.68667 4.94 1.48 5.72 1.48C6.50667 1.48 7.19 1.59667 7.77 1.83C8.35 2.05667 8.85333 2.38667 9.28 2.82C10.2133 3.75333 10.68 4.99 10.68 6.53C10.68 8.76333 9.85 10.4633 8.19 11.63C7.50333 12.1033 6.68667 12.4833 5.74 12.77L6.38 13.03C7.20667 13.35 7.84 13.51 8.28 13.51C9.32667 13.51 10.0533 13.2567 10.46 12.75C10.6133 12.7367 10.73 12.7867 10.81 12.9C10.8833 13.0133 10.92 13.16 10.92 13.34C10.92 13.52 10.86 13.7167 10.74 13.93C10.6133 14.1367 10.44 14.3167 10.22 14.47C9.73333 14.81 9.13 14.98 8.41 14.98C7.95667 14.98 7.51 14.8967 7.07 14.73C6.63667 14.5633 6.29333 14.42 6.04 14.3L5.3 13.98C4.76 13.7467 4.37 13.63 4.13 13.63C3.89 13.63 3.70333 13.6467 3.57 13.68C3.43 13.7133 3.31333 13.7567 3.22 13.81C3.09333 13.87 2.94667 13.9933 2.78 14.18ZM12.76 10.02V6.01C12.76 5.75 12.74 5.54 12.7 5.38C12.66 5.22 12.58 5.14 12.46 5.14C12.3733 5.14 12.3067 5.15 12.26 5.17L12.09 5.24C12.0567 5.24667 12.02 5.23 11.98 5.19C11.8933 5.09 11.85 5 11.85 4.92C11.85 4.84 11.8767 4.75667 11.93 4.67C11.9767 4.58333 12.0533 4.48333 12.16 4.37C12.2667 4.25 12.39 4.14667 12.53 4.06C12.8367 3.86 13.1167 3.76 13.37 3.76C13.6233 3.76 13.8 3.80333 13.9 3.89C14.0067 3.97667 14.0867 4.09 14.14 4.23C14.2333 4.45667 14.28 4.8 14.28 5.26V9.54C14.28 10.3133 14.5133 10.7433 14.98 10.83C15.12 10.8567 15.2867 10.87 15.48 10.87C15.6733 10.87 15.88 10.8467 16.1 10.8C16.32 10.7467 16.53 10.68 16.73 10.6C17.1233 10.44 17.4667 10.2367 17.76 9.99V6.01C17.76 5.57667 17.6833 5.31 17.53 5.21C17.4633 5.16333 17.3767 5.14 17.27 5.14C17.17 5.14 17.0867 5.15667 17.02 5.19C16.96 5.22333 16.91 5.24667 16.87 5.26C16.8367 5.27333 16.8067 5.27333 16.78 5.26C16.7467 5.24 16.7167 5.21667 16.69 5.19C16.6167 5.11 16.58 5.03 16.58 4.95C16.58 4.87667 16.61 4.79333 16.67 4.7C16.7233 4.61333 16.8167 4.51333 16.95 4.4C17.0767 4.28 17.22 4.17333 17.38 4.08C17.7533 3.86667 18.1233 3.76 18.49 3.76C18.9367 3.76 19.1933 4.07667 19.26 4.71C19.2733 4.88333 19.28 5.06667 19.28 5.26V9.31C19.28 10.01 19.31 10.4467 19.37 10.62C19.4233 10.7933 19.4867 10.9067 19.56 10.96C19.64 11.0133 19.7367 11.04 19.85 11.04C19.9633 11.04 20.0567 11.02 20.13 10.98L20.34 10.89C20.4 10.8767 20.45 10.9067 20.49 10.98C20.59 11.12 20.6033 11.2467 20.53 11.36C20.4633 11.4733 20.36 11.5833 20.22 11.69C20.0733 11.79 19.9133 11.88 19.74 11.96C18.9467 12.3067 18.3833 12.3 18.05 11.94C17.8767 11.7533 17.78 11.4567 17.76 11.05C17.0867 11.5633 16.4 11.92 15.7 12.12C15.4467 12.1867 15.18 12.22 14.9 12.22C14.62 12.22 14.3467 12.18 14.08 12.1C13.8133 12.0267 13.58 11.9033 13.38 11.73C12.9667 11.3567 12.76 10.7867 12.76 10.02ZM26.37 11.22C25.7033 11.8867 24.9 12.22 23.96 12.22C23.2333 12.22 22.65 12.01 22.21 11.59C21.77 11.17 21.55 10.62 21.55 9.94C21.55 9.10667 21.9233 8.48 22.67 8.06C23.3433 7.67333 24.2933 7.48 25.52 7.48H26.37C26.3767 7.30667 26.38 7.14 26.38 6.98V6.46C26.38 5.85333 26.29 5.42333 26.11 5.17C25.91 4.89 25.57 4.75 25.09 4.75C23.9833 4.75 23.4133 5.14667 23.38 5.94C23.3733 6.06 23.3767 6.16333 23.39 6.25C23.2967 6.31667 23.14 6.35 22.92 6.35C22.7067 6.35 22.55 6.32667 22.45 6.28C22.3567 6.22667 22.2733 6.15667 22.2 6.07C22.04 5.89667 21.96 5.67 21.96 5.39C21.96 5.11667 22.0433 4.87667 22.21 4.67C22.37 4.46333 22.59 4.29333 22.87 4.16C23.41 3.89333 24.05 3.76 24.79 3.76C25.5233 3.76 26.0767 3.83 26.45 3.97C26.8233 4.11667 27.12 4.30667 27.34 4.54C27.7267 4.96 27.92 5.52333 27.92 6.23L27.85 9.51C27.85 10.11 27.8767 10.49 27.93 10.65C27.99 10.81 28.06 10.9167 28.14 10.97C28.22 11.0233 28.3167 11.05 28.43 11.05C28.55 11.05 28.6467 11.0333 28.72 11L28.91 10.91C28.97 10.8833 29.0267 10.91 29.08 10.99C29.1267 11.0633 29.15 11.1267 29.15 11.18C29.15 11.24 29.1267 11.3167 29.08 11.41C29.0267 11.4967 28.9367 11.5933 28.81 11.7C28.6833 11.8 28.5367 11.89 28.37 11.97C27.4633 12.3967 26.8467 12.2967 26.52 11.67C26.4467 11.5433 26.3967 11.3933 26.37 11.22ZM26.35 10.33C26.35 9.67 26.3567 9.01667 26.37 8.37C25.4167 8.41 24.77 8.47 24.43 8.55C24.0967 8.63667 23.8533 8.72 23.7 8.8C23.5467 8.87333 23.4267 8.96333 23.34 9.07C23.2 9.24333 23.13 9.50333 23.13 9.85C23.13 10.1967 23.2533 10.4767 23.5 10.69C23.7467 10.8967 24.1 11 24.56 11C25.2133 11 25.81 10.7767 26.35 10.33ZM33.74 12.12C33.6533 12.1 33.5067 12.09 33.3 12.09H31.12C30.6867 12.09 30.4067 12.0133 30.28 11.86C30.2333 11.8 30.21 11.73 30.21 11.65C30.21 11.4633 30.2467 11.3233 30.32 11.23C30.4267 11.2633 30.55 11.28 30.69 11.28C30.83 11.28 30.9333 11.2233 31 11.11C31.0733 10.9967 31.1067 10.7867 31.1 10.48V6.01C31.1 5.57667 31.02 5.31 30.86 5.21C30.8 5.16333 30.7167 5.14 30.61 5.14C30.5033 5.14 30.42 5.15667 30.36 5.19C30.3 5.22333 30.25 5.24667 30.21 5.26C30.17 5.27333 30.1367 5.27333 30.11 5.26C30.0833 5.24 30.0567 5.21667 30.03 5.19C29.9633 5.11667 29.93 5.04 29.93 4.96C29.93 4.88 29.9567 4.79333 30.01 4.7C30.07 4.61333 30.1633 4.51333 30.29 4.4C30.4167 4.28 30.5633 4.17333 30.73 4.08C31.0967 3.86667 31.4633 3.76 31.83 3.76C32.2567 3.76 32.51 4.04 32.59 4.6C32.61 4.76 32.6233 4.92667 32.63 5.1C33.31 4.53333 34.0467 4.13 34.84 3.89C35.1267 3.80333 35.4167 3.76 35.71 3.76C36.01 3.76 36.29 3.79667 36.55 3.87C36.8167 3.95 37.05 4.07667 37.25 4.25C37.6633 4.61667 37.87 5.18667 37.87 5.96V10.59C37.8833 10.95 38.0167 11.17 38.27 11.25C38.3367 11.27 38.42 11.29 38.52 11.31C38.62 11.33 38.71 11.3533 38.79 11.38C38.87 11.4 38.9333 11.4267 38.98 11.46C39.0533 11.52 39.09 11.6167 39.09 11.75C39.09 11.91 39.0567 12.0333 38.99 12.12C38.8967 12.1 38.75 12.09 38.55 12.09H36.37C35.93 12.09 35.65 12.0133 35.53 11.86C35.4767 11.8 35.45 11.73 35.45 11.65C35.45 11.4633 35.4867 11.3233 35.56 11.23C35.6667 11.2633 35.7667 11.28 35.86 11.28C35.9533 11.28 36.0333 11.27 36.1 11.25C36.1667 11.2233 36.2167 11.18 36.25 11.12C36.3167 11.0133 36.35 10.8 36.35 10.48V6.44C36.35 5.66667 36.12 5.23333 35.66 5.14C35.5133 5.11333 35.3367 5.1 35.13 5.1C34.9167 5.1 34.6833 5.13333 34.43 5.2C34.17 5.26667 33.93 5.35 33.71 5.45C33.2833 5.63667 32.9233 5.87667 32.63 6.17V10.59C32.6433 10.95 32.7733 11.17 33.02 11.25C33.0933 11.27 33.1767 11.29 33.27 11.31C33.37 11.33 33.46 11.3533 33.54 11.38C33.6267 11.4 33.6933 11.4267 33.74 11.46C33.8133 11.52 33.85 11.6167 33.85 11.75C33.85 11.91 33.8133 12.0333 33.74 12.12ZM45.67 11.24C44.9633 11.9 44.1867 12.23 43.34 12.23C42.4067 12.23 41.6467 11.91 41.06 11.27C40.42 10.57 40.1 9.6 40.1 8.36C40.1 6.97333 40.5433 5.84333 41.43 4.97C42.25 4.16333 43.2233 3.76 44.35 3.76C44.8033 3.76 45.2367 3.83333 45.65 3.98V2.01C45.65 1.69 45.6167 1.48667 45.55 1.4C45.45 1.25333 45.28 1.18 45.04 1.18C44.94 1.18 44.84 1.19 44.74 1.21C44.6467 1.23 44.58 1.23 44.54 1.21C44.5 1.19 44.47 1.16333 44.45 1.13C44.3567 0.976667 44.47 0.783333 44.79 0.55C45.29 0.183333 45.7833 0 46.27 0C46.7833 0 47.0767 0.28 47.15 0.84C47.17 1.00667 47.18 1.18333 47.18 1.37V9.31C47.18 10.01 47.2067 10.4467 47.26 10.62C47.32 10.7933 47.3867 10.9067 47.46 10.96C47.5333 11.0133 47.6267 11.04 47.74 11.04C47.8533 11.04 47.9467 11.02 48.02 10.98L48.23 10.89C48.29 10.8767 48.34 10.9067 48.38 10.98C48.48 11.12 48.4967 11.2467 48.43 11.36C48.3567 11.4733 48.2533 11.5833 48.12 11.69C47.98 11.79 47.8267 11.88 47.66 11.96C46.92 12.2933 46.37 12.3 46.01 11.98C45.83 11.8267 45.7167 11.58 45.67 11.24ZM45.65 10.22V5.37C45.2033 5.03 44.6833 4.86 44.09 4.86C43.3833 4.86 42.8067 5.12 42.36 5.64C41.8867 6.2 41.65 6.96333 41.65 7.93C41.65 9.47 42.0867 10.42 42.96 10.78C43.2333 10.8867 43.5 10.94 43.76 10.94C44.02 10.94 44.2367 10.92 44.41 10.88C44.5833 10.84 44.7433 10.7867 44.89 10.72C45.19 10.58 45.4433 10.4133 45.65 10.22ZM49.49 8.32C49.49 7.76 49.5433 7.26 49.65 6.82C49.7567 6.38 49.9067 5.99 50.1 5.65C50.2933 5.31 50.52 5.02333 50.78 4.79C51.04 4.55 51.3167 4.35333 51.61 4.2C52.19 3.90667 52.8267 3.76 53.52 3.76C54.4067 3.76 55.16 4.08333 55.78 4.73C56.4667 5.43667 56.81 6.37333 56.81 7.54C56.81 9.07333 56.3933 10.2667 55.56 11.12C54.84 11.8533 53.9733 12.22 52.96 12.22C51.9 12.22 51.05 11.85 50.41 11.11C49.7967 10.39 49.49 9.46 49.49 8.32ZM53.36 11.11C53.6667 11.11 53.94 11.0367 54.18 10.89C54.42 10.7433 54.6267 10.5467 54.8 10.3C55.1333 9.78 55.3 9.10667 55.3 8.28C55.3 7.36667 55.1233 6.59 54.77 5.95C54.37 5.21667 53.7933 4.85 53.04 4.85C52.4333 4.85 51.9467 5.08333 51.58 5.55C51.1933 6.04333 51 6.73 51 7.61C51 8.71667 51.2433 9.59333 51.73 10.24C52.17 10.82 52.7133 11.11 53.36 11.11Z" fill="black"/>
</svg>
