<svg width="57" height="14" viewBox="0 0 57 14" fill="none" xmlns="http://www.w3.org/2000/svg">
<path d="M6.45 1.61H1.9V9.03H6.45V1.61ZM6.25 13.02L4.71 10.29H2.12L0.5 9.35V1.29L2.12 0.35H6.23L7.85 1.29V9.35L6.23 10.29L7.81 13.02H6.25ZM11.85 10.29L10.23 9.35V3.22H11.59V9.07H14.82V3.22H16.18V10.29H15.16L14.82 9.72L13.83 10.29H11.85ZM22.31 7.35H19.5V9.07H22.31V7.35ZM21.32 10.29H19.76L18.14 9.35V7.07L19.76 6.13H22.31V4.44H18.84V3.22H22.05L23.67 4.16V10.29H23.31L22.31 9.72L21.32 10.29ZM30.24 3.15L31.86 4.09V10.22H30.5V4.37H27.27V10.22H25.91V3.15H26.93L27.27 3.72L28.26 3.15H30.24ZM34.83 4.44H33.54V3.22H34.83V2.04L36.19 1.26V3.22H37.87V4.44H36.19V9H37.87V10.22H36.45L34.83 9.28V4.44ZM39.83 3.22H41.18V10.22H39.83V3.22ZM41.25 1.5H39.76V0H41.25V1.5ZM48.67 4.44H44.78V9H48.67V10.22H45.05L43.42 9.28V4.16L45.05 3.22H48.67V4.44ZM56.58 4.09V9.35L54.96 10.29H52.26L50.63 9.35V4.09L52.26 3.15H54.96L56.58 4.09ZM55.23 4.37H51.99V9.07H55.23V4.37Z" fill="black"/>
</svg>
