<svg width="56" height="12" viewBox="0 0 56 12" fill="none" xmlns="http://www.w3.org/2000/svg">
<path d="M8.29 12C7.83667 12 7.39333 11.91 6.96 11.73C6.53333 11.5567 6.15333 11.31 5.82 10.99C5.48 10.67 5.20667 10.3067 5 9.9C4.10667 9.87333 3.32 9.64333 2.64 9.21C1.96667 8.78333 1.44 8.21667 1.06 7.51C0.686667 6.80333 0.5 6.02333 0.5 5.17C0.5 4.50333 0.61 3.88667 0.83 3.32C1.05667 2.74667 1.37667 2.24333 1.79 1.81C2.20333 1.37 2.7 1.02667 3.28 0.78C3.86 0.54 4.5 0.42 5.2 0.42C5.9 0.42 6.54 0.54 7.12 0.78C7.7 1.02667 8.19667 1.37 8.61 1.81C9.02333 2.24333 9.34333 2.74667 9.57 3.32C9.79 3.88667 9.9 4.50333 9.9 5.17C9.9 5.95 9.74 6.67 9.42 7.33C9.1 7.99 8.65333 8.53667 8.08 8.97C7.50667 9.41 6.83667 9.69667 6.07 9.83C6.16333 9.99667 6.30333 10.18 6.49 10.38C6.67667 10.58 6.92 10.75 7.22 10.89C7.51333 11.03 7.87667 11.1 8.31 11.1C8.64333 11.1 8.95 11.0433 9.23 10.93C9.50333 10.8233 9.76 10.67 10 10.47L10.56 11.23C10.2333 11.49 9.88667 11.6833 9.52 11.81C9.15333 11.9367 8.74333 12 8.29 12ZM5.2 8.89C5.95333 8.89 6.60333 8.72333 7.15 8.39C7.69667 8.06333 8.11667 7.61667 8.41 7.05C8.70333 6.48333 8.85 5.85667 8.85 5.17C8.85 4.47 8.70333 3.84 8.41 3.28C8.11667 2.72 7.69667 2.27333 7.15 1.94C6.60333 1.60667 5.95333 1.44 5.2 1.44C4.45333 1.44 3.80333 1.60667 3.25 1.94C2.70333 2.27333 2.28333 2.72 1.99 3.28C1.69667 3.84 1.55 4.47 1.55 5.17C1.55 5.85667 1.69667 6.48333 1.99 7.05C2.28333 7.61667 2.70333 8.06333 3.25 8.39C3.80333 8.72333 4.45333 8.89 5.2 8.89ZM14.09 9.91C13.6167 9.91 13.1633 9.79667 12.73 9.57C12.3033 9.34333 11.9567 9.00333 11.69 8.55C11.4233 8.09667 11.29 7.53667 11.29 6.87V2.8H12.34V6.85C12.34 7.48333 12.5233 7.99333 12.89 8.38C13.2633 8.76667 13.7333 8.96 14.3 8.96C14.6933 8.96 15.0467 8.87 15.36 8.69C15.68 8.50333 15.9367 8.25333 16.13 7.94C16.3167 7.62 16.41 7.25 16.41 6.83V2.8H17.46V9.8H16.41V8.71C16.1633 9.04333 15.8567 9.32667 15.49 9.56C15.1233 9.79333 14.6567 9.91 14.09 9.91ZM22.39 9.91C21.6833 9.91 21.0633 9.75 20.53 9.43C19.9967 9.11 19.5833 8.67333 19.29 8.12C18.9967 7.56667 18.85 6.96 18.85 6.3C18.85 5.62667 18.99 5.01667 19.27 4.47C19.55 3.92333 19.95 3.49 20.47 3.17C20.9967 2.85 21.6133 2.69 22.32 2.69C23.04 2.69 23.66 2.85 24.18 3.17C24.6933 3.49 25.09 3.92333 25.37 4.47C25.65 5.01667 25.79 5.62667 25.79 6.3V6.72H19.93C19.9833 7.13333 20.1167 7.51 20.33 7.85C20.5367 8.19 20.8167 8.46 21.17 8.66C21.53 8.86 21.9433 8.96 22.41 8.96C22.9033 8.96 23.3167 8.85 23.65 8.63C23.99 8.41 24.2533 8.12667 24.44 7.78H25.58C25.34 8.40667 24.9567 8.92 24.43 9.32C23.9033 9.71333 23.2233 9.91 22.39 9.91ZM19.94 5.74H24.7C24.6067 5.14 24.3567 4.64 23.95 4.24C23.5367 3.84 22.9933 3.64 22.32 3.64C21.6467 3.64 21.1067 3.84 20.7 4.24C20.3 4.64 20.0467 5.14 19.94 5.74ZM29.63 9.91C28.9833 9.91 28.44 9.80333 28 9.59C27.5533 9.37667 27.2133 9.09333 26.98 8.74C26.7467 8.39333 26.6167 8.01333 26.59 7.6H27.68C27.7133 7.83333 27.7967 8.06 27.93 8.28C28.0633 8.5 28.27 8.67667 28.55 8.81C28.83 8.95 29.1933 9.02 29.64 9.02C29.78 9.02 29.9533 9.00333 30.16 8.97C30.3667 8.94333 30.5667 8.89333 30.76 8.82C30.9467 8.74667 31.1067 8.63333 31.24 8.48C31.3733 8.33333 31.44 8.14333 31.44 7.91C31.44 7.62333 31.3267 7.4 31.1 7.24C30.8733 7.08 30.5833 6.95667 30.23 6.87C29.8767 6.77667 29.5033 6.69 29.11 6.61C28.71 6.52333 28.3333 6.41333 27.98 6.28C27.6267 6.14667 27.3367 5.95667 27.11 5.71C26.8833 5.45667 26.77 5.11667 26.77 4.69C26.77 4.05667 27.0033 3.56333 27.47 3.21C27.93 2.86333 28.6133 2.69 29.52 2.69C30.1333 2.69 30.6333 2.78667 31.02 2.98C31.4067 3.16667 31.7033 3.41 31.91 3.71C32.11 4.01 32.2267 4.33333 32.26 4.68H31.2C31.16 4.38 31.0133 4.12333 30.76 3.91C30.5 3.69 30.0767 3.58 29.49 3.58C28.3767 3.58 27.82 3.91667 27.82 4.59C27.82 4.87 27.9333 5.08667 28.16 5.24C28.3867 5.38667 28.6767 5.50333 29.03 5.59C29.3833 5.68333 29.76 5.76667 30.16 5.84C30.5533 5.92 30.9267 6.03 31.28 6.17C31.6333 6.31 31.9233 6.51 32.15 6.77C32.3767 7.02333 32.49 7.37 32.49 7.81C32.49 8.49 32.23 9.01 31.71 9.37C31.19 9.73 30.4967 9.91 29.63 9.91ZM35.64 9.8H34.59V3.72H33.16V2.8H34.59V0.29H35.64V2.8H37.25V3.72H35.64V9.8ZM39.44 9.8H38.39V2.8H39.44V4.52C39.48 4.4 39.5533 4.24 39.66 4.04C39.7667 3.84 39.9233 3.63667 40.13 3.43C40.3367 3.22333 40.5967 3.05 40.91 2.91C41.2233 2.76333 41.5933 2.69 42.02 2.69H42.09V3.74H41.96C41.44 3.74 40.99 3.88333 40.61 4.17C40.2367 4.45 39.95 4.81667 39.75 5.27C39.5433 5.72333 39.44 6.20667 39.44 6.72V9.8ZM44.32 1.62H43.18V0.25H44.32V1.62ZM44.27 9.8H43.22V2.8H44.27V9.8ZM49.05 9.91C48.37 9.91 47.7733 9.75 47.26 9.43C46.7533 9.11 46.36 8.67333 46.08 8.12C45.8 7.56667 45.66 6.96 45.66 6.3C45.66 5.62667 45.8 5.01667 46.08 4.47C46.36 3.92333 46.7533 3.49 47.26 3.17C47.7733 2.85 48.37 2.69 49.05 2.69C49.63 2.69 50.1267 2.8 50.54 3.02C50.9533 3.24667 51.29 3.55 51.55 3.93V2.8H52.6V9.8H51.55V8.68C51.29 9.05333 50.9533 9.35333 50.54 9.58C50.1267 9.8 49.63 9.91 49.05 9.91ZM49.19 8.96C49.71 8.96 50.15 8.84 50.51 8.6C50.87 8.35333 51.1433 8.02667 51.33 7.62C51.5167 7.21333 51.61 6.77333 51.61 6.3C51.61 5.81333 51.5167 5.37 51.33 4.97C51.1433 4.57 50.87 4.24667 50.51 4C50.15 3.76 49.71 3.64 49.19 3.64C48.6767 3.64 48.2333 3.76 47.86 4C47.4867 4.24667 47.2 4.57 47 4.97C46.8067 5.37 46.71 5.81333 46.71 6.3C46.71 6.77333 46.8067 7.21333 47 7.62C47.2 8.02667 47.4867 8.35333 47.86 8.6C48.2333 8.84 48.6767 8.96 49.19 8.96ZM55.47 9.8H54.42V0H55.47V9.8Z" fill="black"/>
</svg>
