<?xml version="1.0" encoding="utf-8" ?>
<svg baseProfile="tiny" height="100%" version="1.2" width="100%" xmlns="http://www.w3.org/2000/svg" xmlns:ev="http://www.w3.org/2001/xml-events" xmlns:xlink="http://www.w3.org/1999/xlink"><defs /><g><path d="M125 260V356H319Q393 356 429.0 385.5Q465 415 465 475Q465 535 429.0 564.5Q393 594 319 594H125V690H329Q440 690 507.0 633.0Q574 576 574 475Q574 375 507.0 317.5Q440 260 329 260ZM75 0V690H180V0ZM466 0 279 299H394L589 0Z" transform="translate(0.0, 72) scale(0.072, -0.072)" /><path d="M385 0Q379 26 375.5 53.0Q372 80 372 106V330Q372 395 338.5 423.5Q305 452 258 452Q215 452 185.5 428.5Q156 405 143 358L49 389Q71 462 128.5 501.0Q186 540 264 540Q363 540 417.5 487.0Q472 434 472 342V118Q472 59 487 0ZM191 -10Q122 -10 80.5 30.0Q39 70 39 131Q39 191 79.5 234.5Q120 278 205 293L392 325V248L238 217Q185 207 162.0 186.5Q139 166 139 138Q139 115 158.0 95.5Q177 76 219 76Q256 76 291.0 93.5Q326 111 349.0 143.5Q372 176 372 221H405Q405 150 375.5 98.0Q346 46 297.5 18.0Q249 -10 191 -10Z" transform="translate(44.568, 72) scale(0.072, -0.072)" /><path d="M249 -10Q188 -10 140.0 23.0Q92 56 65.0 117.5Q38 179 38 265Q38 351 65.0 412.5Q92 474 140.0 507.0Q188 540 249 540Q333 540 384.0 479.5Q435 419 435 309V221Q435 111 384.0 50.5Q333 -10 249 -10ZM277 78Q337 78 374.5 122.5Q412 167 412 265Q412 363 374.5 407.5Q337 452 277 452Q217 452 179.5 407.5Q142 363 142 265Q142 167 179.5 122.5Q217 78 277 78ZM407 0V123L422 265L407 408V715H507V0Z" transform="translate(83.232, 72) scale(0.072, -0.072)" /><path d="M65 0V530H165V0ZM115 602Q89 602 71.0 619.0Q53 636 53 663Q53 691 71.0 708.0Q89 725 115 725Q141 725 159.0 708.0Q177 691 177 663Q177 636 159.0 619.0Q141 602 115 602Z" transform="translate(124.416, 72) scale(0.072, -0.072)" /><path d="M280 -10Q209 -10 154.5 24.0Q100 58 69.0 120.0Q38 182 38 265Q38 349 69.0 410.5Q100 472 154.5 506.0Q209 540 280 540Q352 540 406.5 506.0Q461 472 492.0 410.5Q523 349 523 265Q523 182 492.0 120.0Q461 58 406.5 24.0Q352 -10 280 -10ZM280 80Q343 80 381.0 124.5Q419 169 419 265Q419 361 381.0 405.5Q343 450 280 450Q218 450 180.0 405.5Q142 361 142 265Q142 169 180.0 124.5Q218 80 280 80Z" transform="translate(140.976, 72) scale(0.072, -0.072)" /><path d="M345 -10Q256 -10 188.0 33.0Q120 76 82.0 155.5Q44 235 44 345Q44 456 82.0 535.5Q120 615 188.0 657.5Q256 700 345 700Q416 700 473.0 675.0Q530 650 569.0 601.5Q608 553 624 483L520 455Q505 529 459.5 566.0Q414 603 342 603Q257 603 205.0 536.5Q153 470 153 345Q153 221 205.0 154.0Q257 87 342 87Q416 87 461.0 124.5Q506 162 524 237L628 209Q610 138 570.0 89.0Q530 40 473.0 15.0Q416 -10 345 -10Z" transform="translate(197.208, 72) scale(0.072, -0.072)" /><path d="M385 0Q379 26 375.5 53.0Q372 80 372 106V330Q372 395 338.5 423.5Q305 452 258 452Q215 452 185.5 428.5Q156 405 143 358L49 389Q71 462 128.5 501.0Q186 540 264 540Q363 540 417.5 487.0Q472 434 472 342V118Q472 59 487 0ZM191 -10Q122 -10 80.5 30.0Q39 70 39 131Q39 191 79.5 234.5Q120 278 205 293L392 325V248L238 217Q185 207 162.0 186.5Q139 166 139 138Q139 115 158.0 95.5Q177 76 219 76Q256 76 291.0 93.5Q326 111 349.0 143.5Q372 176 372 221H405Q405 150 375.5 98.0Q346 46 297.5 18.0Q249 -10 191 -10Z" transform="translate(245.232, 72) scale(0.072, -0.072)" /><path d="M409 0V309Q409 380 373.0 416.0Q337 452 287 452Q237 452 201.0 416.0Q165 380 165 309H132Q132 380 157.5 432.0Q183 484 227.0 512.0Q271 540 325 540Q379 540 420.5 514.5Q462 489 485.5 442.5Q509 396 509 332V0ZM65 0V530H165V0Z" transform="translate(283.896, 72) scale(0.072, -0.072)" /><path d="M385 0Q379 26 375.5 53.0Q372 80 372 106V330Q372 395 338.5 423.5Q305 452 258 452Q215 452 185.5 428.5Q156 405 143 358L49 389Q71 462 128.5 501.0Q186 540 264 540Q363 540 417.5 487.0Q472 434 472 342V118Q472 59 487 0ZM191 -10Q122 -10 80.5 30.0Q39 70 39 131Q39 191 79.5 234.5Q120 278 205 293L392 325V248L238 217Q185 207 162.0 186.5Q139 166 139 138Q139 115 158.0 95.5Q177 76 219 76Q256 76 291.0 93.5Q326 111 349.0 143.5Q372 176 372 221H405Q405 150 375.5 98.0Q346 46 297.5 18.0Q249 -10 191 -10Z" transform="translate(325.224, 72) scale(0.072, -0.072)" /><path d="M249 -10Q188 -10 140.0 23.0Q92 56 65.0 117.5Q38 179 38 265Q38 351 65.0 412.5Q92 474 140.0 507.0Q188 540 249 540Q333 540 384.0 479.5Q435 419 435 309V221Q435 111 384.0 50.5Q333 -10 249 -10ZM277 78Q337 78 374.5 122.5Q412 167 412 265Q412 363 374.5 407.5Q337 452 277 452Q217 452 179.5 407.5Q142 363 142 265Q142 167 179.5 122.5Q217 78 277 78ZM407 0V123L422 265L407 408V715H507V0Z" transform="translate(363.888, 72) scale(0.072, -0.072)" /><path d="M385 0Q379 26 375.5 53.0Q372 80 372 106V330Q372 395 338.5 423.5Q305 452 258 452Q215 452 185.5 428.5Q156 405 143 358L49 389Q71 462 128.5 501.0Q186 540 264 540Q363 540 417.5 487.0Q472 434 472 342V118Q472 59 487 0ZM191 -10Q122 -10 80.5 30.0Q39 70 39 131Q39 191 79.5 234.5Q120 278 205 293L392 325V248L238 217Q185 207 162.0 186.5Q139 166 139 138Q139 115 158.0 95.5Q177 76 219 76Q256 76 291.0 93.5Q326 111 349.0 143.5Q372 176 372 221H405Q405 150 375.5 98.0Q346 46 297.5 18.0Q249 -10 191 -10Z" transform="translate(405.072, 72) scale(0.072, -0.072)" /><path d="M125 0V93H336Q413 93 447.0 122.5Q481 152 481 202Q481 255 447.0 284.0Q413 313 336 313H125V381H346Q462 381 525.5 329.0Q589 277 589 193Q589 107 526.0 53.5Q463 0 352 0ZM75 0V690H180V0ZM125 344V399H331Q396 399 427.5 428.0Q459 457 459 501Q459 545 427.5 571.0Q396 597 331 597H125V690H346Q412 690 461.0 667.0Q510 644 537.0 603.5Q564 563 564 510Q564 438 507.5 391.0Q451 344 341 344Z" transform="translate(459.57599999999996, 72) scale(0.072, -0.072)" /><path d="M65 0V530H165V0ZM115 602Q89 602 71.0 619.0Q53 636 53 663Q53 691 71.0 708.0Q89 725 115 725Q141 725 159.0 708.0Q177 691 177 663Q177 636 159.0 619.0Q141 602 115 602Z" transform="translate(504.43199999999996, 72) scale(0.072, -0.072)" /><path d="M267 -185Q184 -185 129.5 -151.5Q75 -118 52 -64L145 -25Q163 -61 193.0 -78.0Q223 -95 271 -95Q305 -95 336.0 -81.0Q367 -67 387.0 -34.5Q407 -2 407 53V147L422 290L407 432V530H507V48Q507 -34 474.0 -85.5Q441 -137 386.5 -161.0Q332 -185 267 -185ZM249 40Q188 40 140.0 71.0Q92 102 65.0 158.0Q38 214 38 290Q38 366 65.0 422.0Q92 478 140.0 509.0Q188 540 249 540Q333 540 382.0 484.5Q431 429 431 334V246Q431 151 382.0 95.5Q333 40 249 40ZM277 128Q337 128 374.5 168.0Q412 208 412 290Q412 372 374.5 412.0Q337 452 277 452Q217 452 179.5 412.0Q142 372 142 290Q142 208 179.5 168.0Q217 128 277 128Z" transform="translate(520.992, 72) scale(0.072, -0.072)" /></g></svg>