<svg width="43" height="13" viewBox="0 0 43 13" fill="none" xmlns="http://www.w3.org/2000/svg">
<path d="M4.79 5.7C4.68333 5.54 4.59 5.42 4.51 5.34C4.43667 5.26667 4.34667 5.20667 4.24 5.16C4.14 5.12 3.99667 5.09667 3.81 5.09L3.38 5.06V7.69C3.38 8.02333 3.41 8.26667 3.47 8.42C3.52333 8.57333 3.6 8.67667 3.7 8.73C3.8 8.77667 3.94667 8.81667 4.14 8.85C4.28 8.87 4.40667 8.89333 4.52 8.92C4.62667 8.95333 4.74 8.99667 4.86 9.05L4.85 9.41H0.52L0.5 9.05C0.626667 8.98333 0.743333 8.93667 0.85 8.91C0.956667 8.87667 1.08 8.85 1.22 8.83C1.40667 8.80333 1.54333 8.76333 1.63 8.71C1.71667 8.65667 1.78667 8.54 1.84 8.36C1.88667 8.18667 1.91 7.90667 1.91 7.52V2.33C1.91 2.01 1.88333 1.77 1.83 1.61C1.77667 1.44333 1.7 1.33 1.6 1.27C1.49333 1.21 1.33 1.14667 1.11 1.08C0.876667 1.01333 0.673333 0.943333 0.5 0.87L0.52 0.51H3.67C4.52333 0.51 5.27 0.55 5.91 0.63C6.54333 0.703333 7.11333 0.906666 7.62 1.24C8.12 1.57333 8.37 2.08667 8.37 2.78C8.37 3.20667 8.25 3.57667 8.01 3.89C7.77667 4.20333 7.47 4.44667 7.09 4.62C6.71667 4.8 6.31333 4.92333 5.88 4.99C5.94 5.06333 6.21333 5.44 6.7 6.12C7.06 6.63333 7.36667 7.06 7.62 7.4C7.87333 7.74 8.12333 8.06 8.37 8.36C8.52333 8.52 8.66 8.64667 8.78 8.74C8.89333 8.83333 9.04 8.90667 9.22 8.96C9.4 9.01333 9.62333 9.04 9.89 9.04V9.42C9.43667 9.53333 9.03667 9.59 8.69 9.59C8.20333 9.59 7.76 9.44 7.36 9.14C6.95333 8.84667 6.60333 8.49667 6.31 8.09C6.01667 7.68333 5.68 7.16667 5.3 6.54C5.08 6.15333 4.91 5.87333 4.79 5.7ZM3.38 4.6H3.72C4.30667 4.6 4.81333 4.56667 5.24 4.5C5.66 4.43333 6.02333 4.27333 6.33 4.02C6.63 3.76 6.78 3.37333 6.78 2.86C6.78 2.29333 6.61667 1.87667 6.29 1.61C5.96333 1.34333 5.58333 1.17667 5.15 1.11C4.71 1.05 4.17 1.02 3.53 1.02H3.38V4.6ZM14.17 5.25C14.17 4.90333 14.14 4.61333 14.08 4.38C14.02 4.14 13.8967 3.94667 13.71 3.8C13.5233 3.66 13.26 3.59 12.92 3.59C12.8 3.59 12.6533 3.61333 12.48 3.66C12.3067 3.71333 12.1567 3.78667 12.03 3.88C11.8967 3.97333 11.83 4.08 11.83 4.2C11.83 4.25333 11.84 4.30333 11.86 4.35C11.88 4.39667 11.91 4.45667 11.95 4.53C11.99 4.59667 12.02 4.65667 12.04 4.71C12.0533 4.75667 12.06 4.80667 12.06 4.86C12.06 5.04667 12.0033 5.2 11.89 5.32C11.7767 5.44 11.6267 5.5 11.44 5.5C11.2133 5.5 11.0333 5.41667 10.9 5.25C10.7667 5.07667 10.7 4.87333 10.7 4.64C10.7 4.28667 10.8367 3.99333 11.11 3.76C11.39 3.52667 11.7267 3.35333 12.12 3.24C12.5133 3.13333 12.8833 3.08 13.23 3.08C13.87 3.08 14.35 3.17333 14.67 3.36C14.9833 3.55333 15.19 3.83 15.29 4.19C15.3967 4.55 15.45 5.05667 15.45 5.71L15.43 6.05C15.43 6.15 15.4267 6.31667 15.42 6.55C15.4133 6.78333 15.41 7 15.41 7.2C15.41 8.22 15.5167 8.73 15.73 8.73C15.8833 8.73 16.0833 8.57333 16.33 8.26L16.62 8.57C16.42 8.89667 16.22 9.14 16.02 9.3C15.8267 9.46667 15.57 9.55 15.25 9.55C14.95 9.55 14.7033 9.45333 14.51 9.26C14.3167 9.07333 14.21 8.83 14.19 8.53C13.8967 8.85 13.57 9.1 13.21 9.28C12.85 9.46 12.4667 9.55 12.06 9.55C11.7733 9.55 11.51 9.49667 11.27 9.39C11.0367 9.29 10.8467 9.13667 10.7 8.93C10.56 8.72333 10.49 8.47667 10.49 8.19C10.49 7.75667 10.6533 7.39667 10.98 7.11C11.3133 6.82333 11.6967 6.60667 12.13 6.46C12.5633 6.30667 13.0933 6.15667 13.72 6.01C13.7733 5.99667 13.9233 5.96 14.17 5.9V5.25ZM14.17 6.3C14.1033 6.32 14.0167 6.34667 13.91 6.38C13.5167 6.50667 13.1833 6.63 12.91 6.75C12.63 6.86333 12.38 7.02 12.16 7.22C11.94 7.41333 11.83 7.64333 11.83 7.91C11.83 8.17667 11.9033 8.38667 12.05 8.54C12.2033 8.69333 12.4133 8.77 12.68 8.77C12.9467 8.77 13.2067 8.70333 13.46 8.57C13.7067 8.43667 13.9433 8.26 14.17 8.04V6.3ZM22.41 1.38C22.35 1.28667 22.2333 1.19333 22.06 1.1C21.8933 1.01333 21.7267 0.936667 21.56 0.87C21.4 0.81 21.2967 0.773333 21.25 0.76L21.26 0.52L23.19 0.0499997L23.68 0V8.05C23.68 8.32333 23.7967 8.52 24.03 8.64C24.2633 8.76 24.5167 8.82 24.79 8.82V9.19L22.96 9.49H22.5L22.44 8.43C22.12 8.80333 21.78 9.08333 21.42 9.27C21.0667 9.45667 20.6867 9.55 20.28 9.55C19.7667 9.55 19.2967 9.42333 18.87 9.17C18.4433 8.92333 18.1067 8.57667 17.86 8.13C17.6133 7.67667 17.49 7.16 17.49 6.58C17.49 5.91333 17.63 5.31333 17.91 4.78C18.1833 4.25333 18.56 3.84 19.04 3.54C19.5267 3.24667 20.0667 3.1 20.66 3.1C20.94 3.1 21.2133 3.14333 21.48 3.23C21.74 3.31 22.05 3.43667 22.41 3.61V1.38ZM22.41 5.92C22.41 5.48 22.37 5.12333 22.29 4.85C22.21 4.58333 22.0533 4.34333 21.82 4.13C21.64 3.97 21.4433 3.84667 21.23 3.76C21.0233 3.67333 20.8133 3.63 20.6 3.63C20.24 3.63 19.92 3.74667 19.64 3.98C19.36 4.20667 19.1433 4.51333 18.99 4.9C18.8367 5.28667 18.76 5.70333 18.76 6.15C18.76 6.58333 18.8367 6.99667 18.99 7.39C19.1433 7.78333 19.3733 8.10667 19.68 8.36C19.9867 8.60667 20.3567 8.73 20.79 8.73C21.1367 8.73 21.4433 8.65333 21.71 8.5C21.9833 8.35333 22.2167 8.15 22.41 7.89V5.92ZM27.67 0V7.81C27.67 8.19 27.75 8.48667 27.91 8.7C28.0633 8.90667 28.3233 9.03 28.69 9.07C28.69 9.13667 28.6867 9.20333 28.68 9.27C28.68 9.34333 28.68 9.39 28.68 9.41H25.31V9.07C25.35 9.04333 25.4033 9.01667 25.47 8.99C25.5367 8.97 25.6033 8.95 25.67 8.93C25.87 8.87667 26.0267 8.81667 26.14 8.75C26.2533 8.68333 26.32 8.58333 26.34 8.45C26.38 8.25667 26.4 8.05667 26.4 7.85L26.39 1.42C26.3367 1.32667 26.2267 1.23667 26.06 1.15C25.8933 1.06333 25.73 0.986667 25.57 0.92C25.41 0.86 25.3067 0.823333 25.26 0.81L25.28 0.57L27.18 0.0499997L27.67 0ZM30.82 5.81C30.82 5.85667 30.82 5.92333 30.82 6.01C30.82 6.58333 30.9233 7.06333 31.13 7.45C31.3367 7.83667 31.6133 8.12333 31.96 8.31C32.3067 8.49 32.6967 8.58 33.13 8.58C33.7033 8.58 34.2567 8.41667 34.79 8.09L34.99 8.28C34.8833 8.54667 34.7 8.77667 34.44 8.97C34.1867 9.15667 33.8967 9.3 33.57 9.4C33.2433 9.5 32.9267 9.55 32.62 9.55C32.0467 9.55 31.53 9.41333 31.07 9.14C30.61 8.87333 30.2533 8.5 30 8.02C29.74 7.53333 29.61 6.97667 29.61 6.35C29.61 5.71667 29.75 5.15333 30.03 4.66C30.31 4.16 30.68 3.77 31.14 3.49C31.6 3.21667 32.0967 3.08 32.63 3.08C33.0633 3.08 33.4533 3.16667 33.8 3.34C34.1467 3.52 34.43 3.76667 34.65 4.08C34.87 4.4 35.01 4.76333 35.07 5.17C35.1167 5.38333 35.14 5.57667 35.14 5.75V5.81H30.82ZM33.28 5.38C33.48 5.36667 33.65 5.33 33.79 5.27C33.7567 4.72333 33.63 4.3 33.41 4C33.19 3.69333 32.8767 3.54 32.47 3.54C32.1767 3.54 31.9133 3.62667 31.68 3.8C31.4467 3.98 31.26 4.21667 31.12 4.51C30.98 4.80333 30.89 5.12667 30.85 5.48L33.28 5.38ZM36.71 4.54C36.6033 4.29333 36.5 4.11 36.4 3.99C36.3 3.86333 36.2067 3.78333 36.12 3.75C36.04 3.71 35.9433 3.68 35.83 3.66C35.7567 3.65333 35.69 3.64 35.63 3.62V3.26H38.84C38.8467 3.30667 38.86 3.38333 38.88 3.49C38.8933 3.59667 38.89 3.65 38.87 3.65C38.57 3.71 38.35 3.77333 38.21 3.84C38.07 3.91333 38 4.02333 38 4.17C38 4.26333 38.03 4.40333 38.09 4.59L39.44 7.96L40.61 4.8C40.6767 4.62 40.71 4.46333 40.71 4.33C40.71 4.13667 40.64 3.98667 40.5 3.88C40.36 3.78 40.1367 3.70333 39.83 3.65C39.8233 3.62333 39.82 3.57 39.82 3.49C39.82 3.43667 39.82 3.39 39.82 3.35C39.8267 3.31 39.83 3.28 39.83 3.26H42.33L42.34 3.61C42.2667 3.67 42.1667 3.72333 42.04 3.77C41.92 3.82333 41.82 3.87333 41.74 3.92C41.66 3.96667 41.5833 4.04333 41.51 4.15C41.4367 4.25 41.3733 4.39333 41.32 4.58L38.9 10.55C38.6933 11.05 38.4533 11.4367 38.18 11.71C37.9067 11.9767 37.5567 12.11 37.13 12.11C36.8233 12.11 36.5733 12.0367 36.38 11.89C36.18 11.75 36.08 11.56 36.08 11.32C36.08 11.14 36.1433 10.99 36.27 10.87C36.3967 10.7433 36.5467 10.68 36.72 10.68C36.88 10.68 37 10.7067 37.08 10.76C37.16 10.82 37.24 10.9033 37.32 11.01C37.38 11.09 37.4333 11.1533 37.48 11.2C37.5333 11.24 37.6067 11.26 37.7 11.26C37.84 11.26 37.9667 11.1967 38.08 11.07C38.1867 10.9433 38.29 10.7733 38.39 10.56C38.4833 10.34 38.62 10 38.8 9.54L38.85 9.41L36.71 4.54Z" fill="black"/>
</svg>
