<svg width="84.708" height="26.566" viewBox="0 0 84.708 26.566" xmlns="http://www.w3.org/2000/svg"><path transform="translate(0 18.571) scale(.016867 -.016867)" d="m448 0-133 217h-140v-217h-119v571h285q102 0 157.5-44t55.5-126q0-60-34-103.5t-92-57.5l154-240zm-14 396q0 82-106 82h-153v-168h157q50 0 76 22.5t26 63.5z"/><path transform="translate(10.104 18.571) scale(.016867 -.016867)" d="m159-8q-64 0-99.5 34.5t-35.5 97.5q0 68 44.5 103.5t128.5 36.5l95 2v22q0 43-15 64t-49 21q-32 0-46.5-14.5t-18.5-47.5l-119 6q11 64 58.5 97t130.5 33 128-41 45-117v-159q0-37 8-51t28-14q13 0 25 2v-61q-10-2-18-4.5t-16.5-3.5-17.5-2-21-1q-43 0-63.5 21t-24.5 62h-2q-49-86-145-86zm133 211-59-1q-40-2-56.5-9t-25-21.5-8.5-38.5q0-31 14.5-46.5t38.5-15.5q27 0 49 15t34.5 40.5 12.5 54.5z"/><path transform="translate(17.88 18.571) scale(.016867 -.016867)" d="m316 0v246q0 116-66 116-34 0-56-35.5t-22-91.5v-235h-114v340q0 35-1 58t-2 41h108q1-8 3.5-41.5t2.5-46.5h1q21 50 52.5 73t75.5 23q101 0 122-96h2q22 51 53.5 73.5t79.5 22.5q64 0 98-43.5t34-125.5v-278h-114v246q0 116-66 116-33 0-54.5-32.5t-23.5-89.5v-240z"/><path transform="translate(30.328 18.571) scale(.016867 -.016867)" d="m159-8q-64 0-99.5 34.5t-35.5 97.5q0 68 44.5 103.5t128.5 36.5l95 2v22q0 43-15 64t-49 21q-32 0-46.5-14.5t-18.5-47.5l-119 6q11 64 58.5 97t130.5 33 128-41 45-117v-159q0-37 8-51t28-14q13 0 25 2v-61q-10-2-18-4.5t-16.5-3.5-17.5-2-21-1q-43 0-63.5 21t-24.5 62h-2q-49-86-145-86zm133 211-59-1q-40-2-56.5-9t-25-21.5-8.5-38.5q0-31 14.5-46.5t38.5-15.5q27 0 49 15t34.5 40.5 12.5 54.5z"/><path transform="translate(38.104 18.571) scale(.016867 -.016867)" d="m473 221q0-109-43.5-169t-124.5-60q-47 0-81 20t-52 59h-1q0-14-2-39t-4-32h-110q3 38 3 100v501h114v-167l-2-72h2q39 84 140 85 78 0 119.5-59t41.5-167zm-119 0q0 75-22 111t-67 36q-46 0-70.5-39t-24.5-112q0-70 24-108.5t70-38.5q90 0 90 151z"/><path transform="translate(46.639 18.571) scale(.016867 -.016867)" d="m170 351q23 50 58 73t83 23q70 0 107.5-43t37.5-126v-278h-114v246q0 116-78 115-41 0-66.5-35.5t-25.5-90.5v-235h-114v601h114v-164q0-44-3-86z"/><path transform="translate(55.173 18.571) scale(.016867 -.016867)" d="m159-8q-64 0-99.5 34.5t-35.5 97.5q0 68 44.5 103.5t128.5 36.5l95 2v22q0 43-15 64t-49 21q-32 0-46.5-14.5t-18.5-47.5l-119 6q11 64 58.5 97t130.5 33 128-41 45-117v-159q0-37 8-51t28-14q13 0 25 2v-61q-10-2-18-4.5t-16.5-3.5-17.5-2-21-1q-43 0-63.5 21t-24.5 62h-2q-49-86-145-86zm133 211-59-1q-40-2-56.5-9t-25-21.5-8.5-38.5q0-31 14.5-46.5t38.5-15.5q27 0 49 15t34.5 40.5 12.5 54.5z"/><path transform="translate(62.949 18.571) scale(.016867 -.016867)" d="m342 0q-2 6-4 30.5t-2 40.5h-2q-37-79-140-79-77 0-118.5 59.5t-41.5 167.5q0 109 44 168.5t125 59.5q47 0 80.5-19.5t51.5-58.5h1l-1 72v160h114v-505q0-41 3-96zm-5 222q0 71-24 109t-70 38-68-37-22-113q0-149 89-149 45 0 70 39.5t25 112.5z"/><path transform="translate(71.484 18.571) scale(.016867 -.016867)" d="m58 0v336q0 36-1 60t-2 43h108q1-7 3.5-44.5t2.5-49.5h1q17 46 30 65t30.5 28 44.5 9q22 0 35-6v-95q-28 6-48 6-43 0-66.5-34.5t-23.5-102.5v-215z"/><path transform="translate(76.933 18.571) scale(.016867 -.016867)" d="m159-8q-64 0-99.5 34.5t-35.5 97.5q0 68 44.5 103.5t128.5 36.5l95 2v22q0 43-15 64t-49 21q-32 0-46.5-14.5t-18.5-47.5l-119 6q11 64 58.5 97t130.5 33 128-41 45-117v-159q0-37 8-51t28-14q13 0 25 2v-61q-10-2-18-4.5t-16.5-3.5-17.5-2-21-1q-43 0-63.5 21t-24.5 62h-2q-49-86-145-86zm133 211-59-1q-40-2-56.5-9t-25-21.5-8.5-38.5q0-31 14.5-46.5t38.5-15.5q27 0 49 15t34.5 40.5 12.5 54.5z"/></svg>