<svg width="94" height="15" viewBox="0 0 94 15" fill="none" xmlns="http://www.w3.org/2000/svg">
<path d="M6.7 11.65L5.3 10.95L4.3 9.16V11.71L1.9 11.92L0.5 11.22V0.58L4.01 0.27C4.08333 0.256667 4.15667 0.25 4.23 0.25C4.29667 0.25 4.36333 0.25 4.43 0.25C4.97 0.25 5.49333 0.336667 6 0.51C6.5 0.676667 6.95333 0.923333 7.36 1.25C7.76 1.57667 8.07667 1.97 8.31 2.43C8.54333 2.89 8.66 3.41667 8.66 4.01C8.66 5.49 8.11667 6.55667 7.03 7.21L9.4 11.43L6.7 11.65ZM7.76 10.6L5.44 6.46C6.02 6.14 6.44333 5.72 6.71 5.2C6.98333 4.67333 7.12 4.04333 7.12 3.31C7.12 2.43667 6.88 1.73333 6.4 1.2C5.92 0.66 5.24333 0.39 4.37 0.39C4.31667 0.39 4.26333 0.39 4.21 0.39C4.15 0.39 4.08667 0.396667 4.02 0.41L0.64 0.7V11.08L2.76 10.89V7.2L3.37 7.14L5.37 10.81L7.76 10.6ZM2.76 5.28V2.54L3.69 2.45H3.84C4.14667 2.45 4.40667 2.54 4.62 2.72C4.82667 2.90667 4.93 3.22333 4.93 3.67C4.93 4.13667 4.82 4.49667 4.6 4.75C4.37333 5.01 4.07 5.16 3.69 5.2L2.76 5.28ZM4.3 3.36V4.85C4.62667 4.61667 4.79 4.22333 4.79 3.67C4.79 3.60333 4.79 3.54333 4.79 3.49C4.78333 3.43 4.77667 3.37333 4.77 3.32L4.3 3.36ZM17.6 9.27L17.38 11.34C17.08 11.46 16.7733 11.52 16.46 11.52C16.1667 11.52 15.9 11.4833 15.66 11.41C15.4133 11.33 15.2267 11.25 15.1 11.17C14.6867 11.67 14.0833 11.9567 13.29 12.03C13.2167 12.0367 13.1433 12.04 13.07 12.04C12.9967 12.04 12.92 12.04 12.84 12.04C12.2667 12.04 11.7367 11.94 11.25 11.74C10.7633 11.54 10.3733 11.2367 10.08 10.83C9.78667 10.4233 9.64 9.92333 9.64 9.33C9.64 8.68333 9.82 8.17 10.18 7.79C10.54 7.40333 11.0767 7.03667 11.79 6.69L11.08 6.46L9.68 5.76C9.91333 4.94667 10.2933 4.33333 10.82 3.92C11.3467 3.51333 11.9467 3.27667 12.62 3.21C12.7067 3.19667 12.79 3.19 12.87 3.19C12.9567 3.18333 13.0367 3.18 13.11 3.18C13.7833 3.18 14.3933 3.30333 14.94 3.55C15.4933 3.79667 15.9333 4.14667 16.26 4.6C16.5867 5.05333 16.75 5.58333 16.75 6.19V8.85L17.6 9.27ZM15.84 10.56L16.04 8.81C15.8133 8.91 15.6433 8.96 15.53 8.96C15.3167 8.96 15.21 8.82 15.21 8.54V5.49C15.21 4.05 14.4867 3.33 13.04 3.33C12.9733 3.33 12.9067 3.33 12.84 3.33C12.78 3.33 12.71 3.33667 12.63 3.35C11.99 3.41667 11.4167 3.64 10.91 4.02C10.41 4.4 10.0567 4.95667 9.85 5.69L11.42 6.2C11.52 5.88667 11.66 5.63 11.84 5.43C12.0267 5.23667 12.2367 5.13 12.47 5.11C12.4967 5.11 12.5233 5.11 12.55 5.11C12.5767 5.10333 12.6 5.1 12.62 5.1C12.8333 5.1 12.9967 5.15 13.11 5.25C13.2233 5.35667 13.28 5.49667 13.28 5.67C13.28 5.87 13.22 6.02667 13.1 6.14C12.9733 6.26 12.8033 6.37 12.59 6.47L11.96 6.76C11.24 7.1 10.6967 7.45333 10.33 7.82C9.96333 8.18667 9.78 8.69 9.78 9.33C9.78 10.5767 10.3667 11.2 11.54 11.2C11.6 11.2 11.6567 11.2 11.71 11.2C11.7633 11.2 11.82 11.1967 11.88 11.19C12.3267 11.15 12.7133 11.0433 13.04 10.87C13.3667 10.69 13.6133 10.4367 13.78 10.11C13.8467 10.3033 13.9867 10.4567 14.2 10.57C14.4133 10.6833 14.6667 10.74 14.96 10.74C15.2667 10.74 15.56 10.68 15.84 10.56ZM12.37 9.56H12.27C12.11 9.56 11.98 9.51667 11.88 9.43C11.7733 9.34333 11.72 9.21667 11.72 9.05C11.72 8.64333 11.9267 8.34333 12.34 8.15L12.62 8.01C12.7533 7.94333 12.8833 7.88 13.01 7.82C13.13 7.76 13.2233 7.69333 13.29 7.62V8.58C13.2433 8.87333 13.1333 9.10667 12.96 9.28C12.78 9.45333 12.5833 9.54667 12.37 9.56ZM26.98 11.71L25.67 11.02V11.68L23.41 11.89L22.08 11.19V11.86L19.8 12.06L18.4 11.36V3.67L20.54 3.49L20.92 3.82C21.0733 3.68 21.2567 3.56333 21.47 3.47C21.6833 3.37 21.9033 3.31 22.13 3.29C22.1633 3.29 22.1967 3.29 22.23 3.29C22.2633 3.28333 22.3 3.28 22.34 3.28C22.72 3.28 23.0767 3.36667 23.41 3.54C23.7367 3.72 23.99 3.92333 24.17 4.15C24.3033 3.90333 24.5 3.67667 24.76 3.47C25.02 3.25667 25.3367 3.13667 25.71 3.11C25.7567 3.11 25.8067 3.10667 25.86 3.1C25.9067 3.1 25.96 3.1 26.02 3.1C26.5867 3.1 27.1167 3.20667 27.61 3.42C28.11 3.63333 28.51 3.94333 28.81 4.35C29.1167 4.75667 29.27 5.25 29.27 5.83V11.52L26.98 11.71ZM27.73 10.7V5.13C27.73 4.48333 27.56 4.00667 27.22 3.7C26.8867 3.39333 26.4667 3.24 25.96 3.24C25.9267 3.24 25.89 3.24 25.85 3.24C25.81 3.24667 25.7667 3.25 25.72 3.25C25.4267 3.27667 25.1633 3.37 24.93 3.53C24.7033 3.69 24.52 3.88 24.38 4.1C24.24 4.32667 24.1433 4.55667 24.09 4.79L24.04 4.78C23.9667 4.44 23.7933 4.12667 23.52 3.84C23.2467 3.56 22.8567 3.42 22.35 3.42C22.31 3.42 22.2767 3.42333 22.25 3.43C22.2167 3.43 22.18 3.43 22.14 3.43C21.68 3.47 21.3033 3.64667 21.01 3.96C20.71 4.28 20.5233 4.64 20.45 5.04L20.4 5.06V3.64L18.54 3.8V11.2L20.54 11.05V6.47C20.5867 6.23667 20.6833 6.02667 20.83 5.84C20.9767 5.65333 21.1767 5.55 21.43 5.53H21.52C21.72 5.53 21.8767 5.59667 21.99 5.73C22.0967 5.87 22.15 6.09333 22.15 6.4V11.05L24.13 10.87V6.29C24.1767 6.06333 24.2733 5.85667 24.42 5.67C24.56 5.48333 24.7533 5.38 25 5.36H25.09C25.2967 5.36 25.4533 5.42667 25.56 5.56C25.6667 5.69333 25.72 5.91333 25.72 6.22V10.87L27.73 10.7ZM31.98 14.46L30.58 13.76V3.64L32.72 3.46L33.06 3.63C33.2067 3.51 33.38 3.40333 33.58 3.31C33.7733 3.22333 33.9967 3.17 34.25 3.15C34.3033 3.14333 34.36 3.14 34.42 3.14C34.4733 3.14 34.53 3.14 34.59 3.14C35.09 3.14 35.5767 3.23333 36.05 3.42C36.5233 3.60667 36.9467 3.89 37.32 4.27C37.7 4.64333 38.0033 5.11 38.23 5.67C38.45 6.23 38.56 6.89 38.56 7.65C38.56 8.97 38.3033 9.99 37.79 10.71C37.2767 11.43 36.5633 11.8267 35.65 11.9C35.61 11.9133 35.57 11.92 35.53 11.92C35.49 11.92 35.4467 11.92 35.4 11.92C35.14 11.92 34.9133 11.89 34.72 11.83C34.5267 11.7767 34.3733 11.7267 34.26 11.68V14.27L31.98 14.46ZM32.72 10.49L32.77 10.47C32.8433 10.65 32.9867 10.7967 33.2 10.91C33.4133 11.03 33.68 11.09 34 11.09C34.0333 11.09 34.0733 11.09 34.12 11.09C34.16 11.09 34.2 11.0867 34.24 11.08C35.1267 11 35.81 10.61 36.29 9.91C36.7767 9.21 37.02 8.22333 37.02 6.95C37.02 5.72333 36.7967 4.80667 36.35 4.2C35.9033 3.58667 35.2933 3.28 34.52 3.28C34.48 3.28 34.44 3.28 34.4 3.28C34.3533 3.28 34.3067 3.28333 34.26 3.29C33.8267 3.33 33.4733 3.46333 33.2 3.69C32.9267 3.91667 32.7367 4.17667 32.63 4.47H32.58V3.61L30.72 3.77V13.61L32.72 13.44V10.49ZM33.79 9.21H33.66C33.4267 9.21 33.2233 9.15 33.05 9.03C32.8767 8.91 32.7667 8.75333 32.72 8.56V6.62C32.72 6.2 32.8233 5.85667 33.03 5.59C33.23 5.31667 33.4933 5.16667 33.82 5.14H33.9C34.2 5.14 34.4533 5.29667 34.66 5.61C34.86 5.92333 34.96 6.43 34.96 7.13C34.96 7.83667 34.8667 8.35333 34.68 8.68C34.4933 9 34.1967 9.17667 33.79 9.21ZM34.26 7.32V8.92C34.4333 8.78667 34.57 8.57667 34.67 8.29C34.77 8.00333 34.82 7.61667 34.82 7.13C34.82 6.94333 34.8133 6.76667 34.8 6.6C34.7867 6.44 34.7633 6.3 34.73 6.18C34.5567 6.23333 34.4367 6.34 34.37 6.5C34.2967 6.66667 34.26 6.94 34.26 7.32ZM47.17 9.27L46.95 11.34C46.65 11.46 46.34 11.52 46.02 11.52C45.7333 11.52 45.47 11.4833 45.23 11.41C44.9833 11.33 44.7967 11.25 44.67 11.17C44.2567 11.67 43.6533 11.9567 42.86 12.03C42.7867 12.0367 42.7133 12.04 42.64 12.04C42.56 12.04 42.4833 12.04 42.41 12.04C41.83 12.04 41.3 11.94 40.82 11.74C40.3333 11.54 39.9433 11.2367 39.65 10.83C39.3567 10.4233 39.21 9.92333 39.21 9.33C39.21 8.68333 39.39 8.17 39.75 7.79C40.1033 7.40333 40.64 7.03667 41.36 6.69L40.65 6.46L39.25 5.76C39.4833 4.94667 39.8633 4.33333 40.39 3.92C40.9167 3.51333 41.5167 3.27667 42.19 3.21C42.27 3.19667 42.3533 3.19 42.44 3.19C42.5267 3.18333 42.6067 3.18 42.68 3.18C43.3533 3.18 43.9633 3.30333 44.51 3.55C45.0633 3.79667 45.5033 4.14667 45.83 4.6C46.1567 5.05333 46.32 5.58333 46.32 6.19V8.85L47.17 9.27ZM45.41 10.56L45.6 8.81C45.38 8.91 45.2133 8.96 45.1 8.96C44.8867 8.96 44.78 8.82 44.78 8.54V5.49C44.78 4.05 44.0567 3.33 42.61 3.33C42.5433 3.33 42.4767 3.33 42.41 3.33C42.3433 3.33 42.2733 3.33667 42.2 3.35C41.56 3.41667 40.9867 3.64 40.48 4.02C39.9733 4.4 39.62 4.95667 39.42 5.69L40.98 6.2C41.0867 5.88667 41.23 5.63 41.41 5.43C41.59 5.23667 41.7967 5.13 42.03 5.11C42.0633 5.11 42.0933 5.11 42.12 5.11C42.1467 5.10333 42.17 5.1 42.19 5.1C42.4033 5.1 42.5667 5.15 42.68 5.25C42.7933 5.35667 42.85 5.49667 42.85 5.67C42.85 5.87 42.7867 6.02667 42.66 6.14C42.54 6.26 42.3733 6.37 42.16 6.47L41.53 6.76C40.81 7.1 40.2667 7.45333 39.9 7.82C39.5333 8.18667 39.35 8.69 39.35 9.33C39.35 10.5767 39.9367 11.2 41.11 11.2C41.1633 11.2 41.22 11.2 41.28 11.2C41.3333 11.2 41.39 11.1967 41.45 11.19C41.8967 11.15 42.2833 11.0433 42.61 10.87C42.9367 10.69 43.1833 10.4367 43.35 10.11C43.4167 10.3033 43.5567 10.4567 43.77 10.57C43.9833 10.6833 44.2367 10.74 44.53 10.74C44.8367 10.74 45.13 10.68 45.41 10.56ZM41.94 9.56H41.84C41.68 9.56 41.55 9.51667 41.45 9.43C41.3433 9.34333 41.29 9.21667 41.29 9.05C41.29 8.64333 41.4967 8.34333 41.91 8.15L42.19 8.01C42.3167 7.94333 42.4433 7.88 42.57 7.82C42.6967 7.76 42.7933 7.69333 42.86 7.62V8.58C42.8133 8.87333 42.7 9.10667 42.52 9.28C42.3467 9.45333 42.1533 9.54667 41.94 9.56ZM49.37 11.83L47.97 11.13V3.45L50.22 3.24L50.57 3.4C50.85 3.12 51.1767 2.96667 51.55 2.94H51.74C51.8933 2.94 52.04 2.95333 52.18 2.98C52.32 3 52.4567 3.02333 52.59 3.05L53.99 3.75L54.26 6.16C53.8267 5.99333 53.46 5.91 53.16 5.91C53.1133 5.91 53.0667 5.91 53.02 5.91C52.9667 5.91 52.9167 5.91333 52.87 5.92C52.6433 5.94 52.4367 6.02667 52.25 6.18C52.0633 6.32667 51.9167 6.51333 51.81 6.74C51.7033 6.97333 51.65 7.21 51.65 7.45V11.62L49.37 11.83ZM50.11 10.81V6.75C50.11 6.47667 50.17 6.21667 50.29 5.97C50.4167 5.72333 50.58 5.52 50.78 5.36C50.9867 5.19333 51.2133 5.1 51.46 5.08C51.5133 5.07333 51.5667 5.07 51.62 5.07C51.68 5.07 51.7333 5.07 51.78 5.07C51.9467 5.07 52.1033 5.08667 52.25 5.12C52.39 5.15333 52.5367 5.19667 52.69 5.25L52.45 3.18C52.3633 3.16 52.26 3.14 52.14 3.12C52.02 3.09333 51.8867 3.08 51.74 3.08H51.57C51.2433 3.10667 50.9433 3.25333 50.67 3.52C50.39 3.78667 50.21 4.12667 50.13 4.54H50.08V3.39L48.11 3.57V10.99L50.11 10.81ZM60.81 9.45L60.36 11.75C60.1467 11.7567 59.94 11.7667 59.74 11.78C59.54 11.7933 59.3467 11.8 59.16 11.8C57.8333 11.8 56.8533 11.56 56.22 11.08C55.58 10.5933 55.26 9.79333 55.26 8.68V6.01L54.37 5.56V3.45L55.26 3.38V1.09L57.53 0.88L58.93 1.58V3.19L60.09 3.77V5.88L58.93 5.98V8.79L59.41 8.75L60.81 9.45ZM58.83 10.92L59.23 8.92C59.0233 8.94 58.8433 8.95667 58.69 8.97C58.5367 8.98333 58.3933 8.99 58.26 8.99C57.8667 8.99 57.6233 8.92 57.53 8.78C57.4367 8.64 57.39 8.39667 57.39 8.05V5.15L58.55 5.06V3.22L57.39 3.32V1.04L55.4 1.22V3.5L54.51 3.57V5.41L55.4 5.34V8.68C55.4 9.24 55.47 9.69 55.61 10.03C55.75 10.3633 55.99 10.6033 56.33 10.75C56.6767 10.9033 57.1533 10.98 57.76 10.98C57.9133 10.98 58.08 10.9733 58.26 10.96C58.44 10.9533 58.63 10.94 58.83 10.92ZM71.7 11.96C71.6333 11.9667 71.5667 11.97 71.5 11.97C71.4267 11.97 71.3567 11.97 71.29 11.97C70.81 11.97 70.3667 11.9033 69.96 11.77C69.5533 11.6367 69.1567 11.48 68.77 11.3C67.7767 10.8067 67.0467 10.11 66.58 9.21C66.12 8.31 65.89 7.23667 65.89 5.99C65.89 5.26333 65.98 4.55667 66.16 3.87C66.3467 3.18333 66.62 2.56333 66.98 2.01C67.3467 1.45667 67.8033 1.00333 68.35 0.65C68.8967 0.29 69.5367 0.08 70.27 0.02C70.3433 0.00666665 70.4133 0 70.48 0C70.5467 0 70.6133 0 70.68 0C71.1467 0 71.56 0.0600003 71.92 0.18C72.2867 0.293334 72.6567 0.426667 73.03 0.58C73.7033 0.846667 74.2633 1.24667 74.71 1.78C75.1567 2.31333 75.4933 2.93667 75.72 3.65C75.94 4.36333 76.05 5.12667 76.05 5.94C76.05 6.69333 75.9633 7.41667 75.79 8.11C75.61 8.79667 75.34 9.42 74.98 9.98C74.62 10.5333 74.17 10.9867 73.63 11.34C73.0833 11.6867 72.44 11.8933 71.7 11.96ZM70.29 11.12C71.0033 11.06 71.6267 10.86 72.16 10.52C72.6933 10.18 73.1333 9.73667 73.48 9.19C73.8267 8.64333 74.0867 8.03333 74.26 7.36C74.4267 6.68 74.51 5.97333 74.51 5.24C74.51 4.56667 74.4333 3.92333 74.28 3.31C74.1267 2.70333 73.8933 2.16 73.58 1.68C73.26 1.20667 72.86 0.83 72.38 0.55C71.9 0.276667 71.3333 0.14 70.68 0.14C70.6133 0.14 70.55 0.14 70.49 0.14C70.43 0.14 70.3633 0.146667 70.29 0.16C69.57 0.22 68.9433 0.42 68.41 0.76C67.8767 1.10667 67.4333 1.55 67.08 2.09C66.7267 2.63667 66.4633 3.24333 66.29 3.91C66.1167 4.58333 66.03 5.27667 66.03 5.99C66.03 6.69 66.11 7.35 66.27 7.97C66.43 8.59667 66.6667 9.14333 66.98 9.61C67.3 10.0833 67.7033 10.4567 68.19 10.73C68.67 10.9967 69.2333 11.13 69.88 11.13C69.9533 11.13 70.0233 11.13 70.09 11.13C70.1567 11.13 70.2233 11.1267 70.29 11.12ZM70.29 8.95C70.25 8.95 70.2133 8.95333 70.18 8.96C70.1467 8.96 70.1133 8.96 70.08 8.96C69.52 8.96 69.0767 8.71667 68.75 8.23C68.43 7.75 68.27 6.94 68.27 5.8C68.27 4.98667 68.36 4.33333 68.54 3.84C68.7133 3.34667 68.9533 2.98 69.26 2.74C69.5733 2.5 69.9167 2.36667 70.29 2.34C70.3233 2.34 70.36 2.33667 70.4 2.33C70.4333 2.33 70.47 2.33 70.51 2.33C71.0633 2.33 71.4933 2.56333 71.8 3.03C72.1067 3.50333 72.26 4.31 72.26 5.45C72.26 6.66333 72.0767 7.53667 71.71 8.07C71.3367 8.61 70.8633 8.90333 70.29 8.95ZM70.24 8.81C70.7933 8.76333 71.2467 8.48333 71.6 7.97C71.9467 7.45667 72.12 6.61667 72.12 5.45C72.12 4.91667 72.0867 4.46333 72.02 4.09C71.9533 3.71667 71.8567 3.41333 71.73 3.18C71.6833 3.17333 71.6367 3.16667 71.59 3.16C71.5433 3.15333 71.4967 3.15 71.45 3.15C70.8967 3.15 70.4867 3.43667 70.22 4.01C69.9467 4.58333 69.81 5.41333 69.81 6.5C69.81 7.04 69.8467 7.5 69.92 7.88C69.9933 8.25333 70.1 8.56333 70.24 8.81ZM82.28 11.72L80.88 11.03V6.65C80.7733 6.76333 80.7033 6.89333 80.67 7.04V11.69L78.56 11.9L77.16 11.2V3.52L79.3 3.32L79.75 3.68C79.91 3.55333 80.0833 3.43667 80.27 3.33C80.4567 3.22333 80.68 3.16 80.94 3.14C80.9867 3.14 81.03 3.13667 81.07 3.13C81.1033 3.12333 81.14 3.12 81.18 3.12C81.6 3.12 82.0133 3.19667 82.42 3.35C82.8267 3.49667 83.19 3.70333 83.51 3.97C83.83 4.23667 84.0867 4.54667 84.28 4.9C84.4733 5.25333 84.57 5.63667 84.57 6.05V11.52L82.28 11.72ZM83.03 10.7V5.13C83.03 4.48333 82.8533 4.01 82.5 3.71C82.1533 3.41 81.7233 3.26 81.21 3.26C81.17 3.26 81.13 3.26 81.09 3.26C81.0433 3.26 80.9967 3.26667 80.95 3.28C80.4967 3.31333 80.11 3.48667 79.79 3.8C79.4767 4.11333 79.28 4.47667 79.2 4.89H79.16V3.47L77.3 3.64V11.06L79.3 10.88V6.33C79.3467 6.10333 79.4533 5.89667 79.62 5.71C79.78 5.52333 79.99 5.41667 80.25 5.39H80.31C80.5033 5.39 80.67 5.45667 80.81 5.59C80.95 5.73 81.02 5.95333 81.02 6.26V10.88L83.03 10.7ZM92.15 8.54L93.57 9.21C93.3167 9.99667 92.9433 10.6333 92.45 11.12C91.9633 11.6067 91.3 11.8867 90.46 11.96C90.36 11.9667 90.26 11.9733 90.16 11.98C90.06 11.9867 89.96 11.99 89.86 11.99C89.0467 11.99 88.3167 11.8233 87.67 11.49C87.0167 11.1567 86.5 10.66 86.12 10C85.74 9.33333 85.55 8.51 85.55 7.53C85.55 6.67667 85.6967 5.93667 85.99 5.31C86.2833 4.68333 86.6833 4.19 87.19 3.83C87.6967 3.47 88.2767 3.26333 88.93 3.21C88.9967 3.19667 89.0667 3.19 89.14 3.19C89.2067 3.19 89.2733 3.19 89.34 3.19C89.86 3.19 90.3767 3.28333 90.89 3.47C91.3967 3.65 91.8567 3.93 92.27 4.31C92.69 4.69667 93.0233 5.19 93.27 5.79C93.5167 6.39 93.64 7.11 93.64 7.95C93.64 8.03 93.64 8.10667 93.64 8.18C93.64 8.26 93.6333 8.34 93.62 8.42L92.15 8.54ZM91.97 8.63L90.26 8.14C90.18 8.45333 90.0267 8.71333 89.8 8.92C89.58 9.12667 89.29 9.24667 88.93 9.28H88.82C88.5067 9.28 88.2467 9.16333 88.04 8.93C87.8333 8.69667 87.73 8.37667 87.73 7.97L92.08 7.59C92.0933 7.49667 92.1 7.40667 92.1 7.32C92.1 7.22667 92.1 7.14 92.1 7.06C92.1 5.88 91.8467 4.96333 91.34 4.31C90.84 3.65667 90.1467 3.33 89.26 3.33C89.2133 3.33 89.1633 3.33 89.11 3.33C89.0567 3.33 89.0033 3.33667 88.95 3.35C88.3233 3.39667 87.7633 3.59333 87.27 3.94C86.7767 4.29333 86.39 4.77333 86.11 5.38C85.83 5.98667 85.69 6.70333 85.69 7.53C85.69 8.73667 85.96 9.64 86.5 10.24C87.04 10.8333 87.7567 11.13 88.65 11.13C88.7167 11.13 88.7833 11.13 88.85 11.13C88.9167 11.13 88.9833 11.1267 89.05 11.12C89.85 11.0533 90.4867 10.79 90.96 10.33C91.4267 9.87667 91.7633 9.31 91.97 8.63ZM90.04 6.2L87.8 6.4C87.8 6.09333 87.9067 5.82667 88.12 5.6C88.3333 5.38 88.61 5.25333 88.95 5.22H89.07C89.35 5.22 89.5833 5.30333 89.77 5.47C89.95 5.63 90.04 5.87333 90.04 6.2ZM89.76 8.75L88.93 8.84C88.93 8.88667 88.9533 8.93333 89 8.98C89.04 9.02667 89.0833 9.07333 89.13 9.12C89.2967 9.07333 89.4267 9.01667 89.52 8.95C89.6133 8.88333 89.6933 8.81667 89.76 8.75Z" fill="black"/>
</svg>
