<svg width="25.665" height="20.482" viewBox="0 0 25.665 20.482" xmlns="http://www.w3.org/2000/svg"><path transform="translate(0 14) scale(.006312 -.006312)" d="m339 789 128 6q139 6 213 120 71 109 71 297 0 53-35.5 89t-98.5 37-137 2zm-26 552q-32 0-62 0t-42 17.5-6 40.5l10 43q4 18 19 29.5t28 11.5h348q141 0 226-70.5t85-208.5-52.5-259-115-172.5-95.5-68-72-29.5l94-605q11-70-45-70h-70q-27 0-38.5 16t-16.5 56l-77 578-128-2-154-603q-12-45-61-45h-59q-25 0-36 18.5t-5 44.5z"/><path transform="translate(5.8133 14) scale(.006312 -.006312)" d="m578 885q-99 56-158 16.5t-113-157.5q-92-200-128-394-16-86-12.5-122.5t30.5-51.5 71.5 21 93 109 95 192.5 121.5 386.5zm31 115q11 47 47 47l47 2q37 0 52-20t4-54l-245-819q63 46 126 135 22 32 51 14l49-33q32-21 10-51-83-99-154-152.5t-167-76.5q-13-3-23.5 4t-13.5 18l-39 114q-32-46-79.5-90t-82.5-44h-4q-16 0-50.5 23.5t-54 47.5-27 34-16.5 25.5-13 30.5-7 35q-6 35 2 103 22 167 103.5 381.5t159.5 288 196 73.5q69 0 129-36z"/><path transform="translate(10.674 14) scale(.006312 -.006312)" d="m592 756q-41-61-95.5-148.5t-137.5-216.5q-153-238-189-302.5t-39-69-6-7.5-6-5-6-3.5-5.5-2.5-5.5-1q-36 0-60 0-48 0-34 53l248 934q5 28 13.5 40.5t27.5 12.5h84q26 0 33-12t-1-47l-153-516 213 352q66 111 138.5 167t123.5 56h43q113 0 70-176l-230-835q-6-29-33-29h-106q-25 0-16 49l215 703q15 54 15 72t-14 18-33.5-19-53.5-67z"/><path transform="translate(16.14 14) scale(.006312 -.006312)" d="m647 1038t60 2q51 2 40-53-91-356-196-722t-105-367q-53-191-161-250-49-26-66-32-41-16-121 30l-209 118q-27 12-29 35t13 39l31 43q33 36 67 17l228-140q47-21 67 56l99 359q-46-76-101-127.5t-90-51.5h-4q-16 0-51 23.5t-67.5 63-45.5 81.5 3.5 171 97.5 344.5 159 287 197 71.5q70 0 130-38 9 26 17.5 33t36.5 7zm-86-154q-100 57-159 17.5t-114-158.5q-91-199-126-393-16-86-13-122.5t30-51.5 72 21 93.5 109 96 194 114.5 366z"/><path transform="translate(20.804 14) scale(.006312 -.006312)" d="m578 885q-99 56-158 16.5t-113-157.5q-92-200-128-394-16-86-12.5-122.5t30.5-51.5 71.5 21 93 109 95 192.5 121.5 386.5zm31 115q11 47 47 47l47 2q37 0 52-20t4-54l-245-819q63 46 126 135 22 32 51 14l49-33q32-21 10-51-83-99-154-152.5t-167-76.5q-13-3-23.5 4t-13.5 18l-39 114q-32-46-79.5-90t-82.5-44h-4q-16 0-50.5 23.5t-54 47.5-27 34-16.5 25.5-13 30.5-7 35q-6 35 2 103 22 167 103.5 381.5t159.5 288 196 73.5q69 0 129-36z"/></svg>