<svg width="47" height="10" viewBox="0 0 47 10" fill="none" xmlns="http://www.w3.org/2000/svg">
<path d="M2.18 4.31H3.33C3.61667 4.31 3.79667 4.25 3.87 4.13C3.94333 4.01 3.98 3.80333 3.98 3.51V1.61C3.98 1.32333 3.94333 1.11667 3.87 0.99C3.79667 0.87 3.61667 0.81 3.33 0.81H1.62V9.42C1.62 9.57333 1.59333 9.67333 1.54 9.72C1.48667 9.77333 1.38667 9.8 1.24 9.8H0.5V0.38C0.5 0.226667 0.523333 0.126667 0.57 0.0800004C0.623333 0.0266671 0.726667 0 0.88 0H3.77C4.25667 0 4.6 0.1 4.8 0.3C5 0.5 5.1 0.843334 5.1 1.33V3.79C5.1 4.23 5.02333 4.55 4.87 4.75C4.71 4.95 4.43667 5.07 4.05 5.11L5.47 9.8H4.75C4.60333 9.8 4.49667 9.77333 4.43 9.72C4.35667 9.67333 4.29667 9.57333 4.25 9.42L2.95 5.12H2.53C2.37667 5.12 2.28 5.09667 2.24 5.05C2.2 4.99667 2.18 4.89667 2.18 4.75V4.31ZM10.03 9.42V4.3C10.03 4.00667 9.99333 3.8 9.92 3.68C9.84667 3.56 9.66333 3.5 9.37 3.5H6.95C7.01 3.22667 7.09667 3.02333 7.21 2.89C7.33 2.75667 7.52333 2.69 7.79 2.69H9.82C10.3067 2.69 10.65 2.79 10.85 2.99C11.05 3.19 11.15 3.53333 11.15 4.02V9.8H10.41C10.2633 9.8 10.1633 9.77333 10.11 9.72C10.0567 9.67333 10.03 9.57333 10.03 9.42ZM9.12 9.8H8C7.51333 9.8 7.17 9.7 6.97 9.5C6.77 9.3 6.67 8.95667 6.67 8.47V6.93C6.67 6.44333 6.77 6.1 6.97 5.9C7.17 5.7 7.51333 5.6 8 5.6H9.19C9.46333 5.6 9.65667 5.66667 9.77 5.8C9.89 5.94 9.97667 6.14333 10.03 6.41H8.45C8.16333 6.41 7.98 6.47 7.9 6.59C7.82667 6.71667 7.79 6.92333 7.79 7.21V8.3C7.79 8.59333 7.84333 8.78 7.95 8.86C8.05667 8.94667 8.25667 8.99 8.55 8.99H9.47V9.42C9.47 9.57333 9.45 9.67333 9.41 9.72C9.37 9.77333 9.27333 9.8 9.12 9.8ZM14.11 2.69H15.48C15.6267 2.69 15.7233 2.71333 15.77 2.76C15.81 2.81333 15.83 2.91667 15.83 3.07V3.5H14.11V8.19C14.11 8.47667 14.1467 8.68333 14.22 8.81C14.2933 8.93 14.4733 8.99 14.76 8.99H15.98C15.96 9.25667 15.9067 9.46 15.82 9.6C15.7333 9.73333 15.5533 9.8 15.28 9.8H14.32C13.8333 9.8 13.49 9.7 13.29 9.5C13.09 9.3 12.99 8.95667 12.99 8.47V1.44C12.99 1.29333 13.0133 1.19333 13.06 1.14C13.1133 1.08667 13.2133 1.06 13.36 1.06H14.11V2.69ZM17.17 1.93V1.19C17.17 1.04333 17.1967 0.943334 17.25 0.89C17.3033 0.836667 17.4033 0.81 17.55 0.81H18.4V1.55C18.4 1.70333 18.3767 1.80333 18.33 1.85C18.2767 1.90333 18.1767 1.93 18.03 1.93H17.17ZM17.61 2.69H18.35V9.42C18.35 9.57333 18.3233 9.67333 18.27 9.72C18.2167 9.77333 18.1167 9.8 17.97 9.8H17.23V3.07C17.23 2.91667 17.2567 2.81333 17.31 2.76C17.3567 2.71333 17.4567 2.69 17.61 2.69ZM20.14 8.47V4.02C20.14 3.53333 20.24 3.19 20.44 2.99C20.64 2.79 20.9833 2.69 21.47 2.69H23.43C23.9167 2.69 24.26 2.79 24.46 2.99C24.66 3.19 24.76 3.53333 24.76 4.02V8.47C24.76 8.95667 24.66 9.3 24.46 9.5C24.26 9.7 23.9167 9.8 23.43 9.8H21.47C20.9833 9.8 20.64 9.7 20.44 9.5C20.24 9.3 20.14 8.95667 20.14 8.47ZM22.98 3.5H21.92C21.6267 3.5 21.4433 3.56 21.37 3.68C21.2967 3.8 21.26 4.00667 21.26 4.3V8.19C21.26 8.47667 21.2967 8.68333 21.37 8.81C21.4433 8.93 21.6267 8.99 21.92 8.99H22.98C23.2733 8.99 23.4567 8.93 23.53 8.81C23.6033 8.68333 23.64 8.47667 23.64 8.19V4.3C23.64 4.00667 23.6033 3.8 23.53 3.68C23.4567 3.56 23.2733 3.5 22.98 3.5ZM28.51 2.69H29.84C30.3267 2.69 30.67 2.79 30.87 2.99C31.07 3.19 31.17 3.53333 31.17 4.02V9.42C31.17 9.57333 31.1467 9.67333 31.1 9.72C31.0467 9.77333 30.9433 9.8 30.79 9.8H30.05V4.3C30.05 4.00667 30.0133 3.8 29.94 3.68C29.8667 3.56 29.6833 3.5 29.39 3.5H27.67V9.42C27.67 9.57333 27.6467 9.67333 27.6 9.72C27.5467 9.77333 27.4433 9.8 27.29 9.8H26.55V3.07C26.55 2.91667 26.5767 2.81333 26.63 2.76C26.6833 2.71333 26.7833 2.69 26.93 2.69H27.67V3.5C27.73 3.22667 27.8167 3.02333 27.93 2.89C28.05 2.75667 28.2433 2.69 28.51 2.69ZM36.14 9.42V4.3C36.14 4.00667 36.1033 3.8 36.03 3.68C35.9567 3.56 35.7733 3.5 35.48 3.5H33.06C33.12 3.22667 33.2067 3.02333 33.32 2.89C33.44 2.75667 33.6333 2.69 33.9 2.69H35.93C36.4167 2.69 36.76 2.79 36.96 2.99C37.16 3.19 37.26 3.53333 37.26 4.02V9.8H36.52C36.3733 9.8 36.2733 9.77333 36.22 9.72C36.1667 9.67333 36.14 9.57333 36.14 9.42ZM35.23 9.8H34.11C33.6233 9.8 33.28 9.7 33.08 9.5C32.88 9.3 32.78 8.95667 32.78 8.47V6.93C32.78 6.44333 32.88 6.1 33.08 5.9C33.28 5.7 33.6233 5.6 34.11 5.6H35.3C35.5733 5.6 35.7667 5.66667 35.88 5.8C36 5.94 36.0867 6.14333 36.14 6.41H34.56C34.2733 6.41 34.09 6.47 34.01 6.59C33.9367 6.71667 33.9 6.92333 33.9 7.21V8.3C33.9 8.59333 33.9533 8.78 34.06 8.86C34.1667 8.94667 34.3667 8.99 34.66 8.99H35.58V9.42C35.58 9.57333 35.56 9.67333 35.52 9.72C35.48 9.77333 35.3833 9.8 35.23 9.8ZM39.54 0H40.29V9.42C40.29 9.57333 40.2633 9.67333 40.21 9.72C40.1567 9.77333 40.0567 9.8 39.91 9.8H39.17V0.38C39.17 0.226667 39.1933 0.126667 39.24 0.0800004C39.2933 0.0266671 39.3933 0 39.54 0ZM43.93 8.99H45.94V9.42C45.94 9.57333 45.92 9.67333 45.88 9.72C45.84 9.77333 45.7433 9.8 45.59 9.8H43.48C42.9933 9.8 42.65 9.7 42.45 9.5C42.25 9.3 42.15 8.95667 42.15 8.47V4.02C42.15 3.53333 42.25 3.19 42.45 2.99C42.65 2.79 42.9933 2.69 43.48 2.69H45.02C45.5067 2.69 45.85 2.79 46.05 2.99C46.25 3.19 46.35 3.53333 46.35 4.02V5.59C46.35 6.07 46.25 6.41 46.05 6.61C45.85 6.81667 45.5067 6.92 45.02 6.92H44.18C44.0267 6.92 43.93 6.89333 43.89 6.84C43.85 6.78667 43.83 6.68667 43.83 6.54V6.1H44.64C44.9267 6.1 45.11 6.04 45.19 5.92C45.2633 5.8 45.3 5.59667 45.3 5.31V4.23C45.3 3.93667 45.2533 3.74333 45.16 3.65C45.0667 3.55 44.8733 3.5 44.58 3.5H43.98C43.6733 3.5 43.4767 3.55333 43.39 3.66C43.31 3.76667 43.27 3.98 43.27 4.3V8.19C43.27 8.47667 43.3067 8.68333 43.38 8.81C43.4533 8.93 43.6367 8.99 43.93 8.99Z" fill="black"/>
</svg>
