<svg width="99" height="11" viewBox="0 0 99 11" fill="none" xmlns="http://www.w3.org/2000/svg">
<path d="M1.58 10.32H0.5V0.52H3.54C4.16 0.52 4.70333 0.64 5.17 0.88C5.63667 1.11333 6.00333 1.44 6.27 1.86C6.53 2.28 6.66 2.77667 6.66 3.35C6.66 4.00333 6.47667 4.56 6.11 5.02C5.75 5.48 5.25667 5.80333 4.63 5.99L6.83 10.32H5.64L3.54 6.13H1.58V10.32ZM1.58 1.46V5.24H3.45C4.09667 5.24 4.61333 5.07 5 4.73C5.38667 4.39 5.58 3.93333 5.58 3.36C5.58 2.78 5.38667 2.32 5 1.98C4.61333 1.63333 4.09667 1.46 3.45 1.46H1.58ZM11.84 10.46C11.1867 10.46 10.5967 10.3033 10.07 9.99C9.55 9.67667 9.14 9.25333 8.84 8.72C8.53333 8.18 8.38 7.57333 8.38 6.9C8.38 6.23333 8.52333 5.63333 8.81 5.1C9.10333 4.56667 9.5 4.14667 10 3.84C10.5 3.53333 11.0567 3.38 11.67 3.38C12.3167 3.38 12.89 3.53 13.39 3.83C13.8967 4.13667 14.2933 4.54667 14.58 5.06C14.8733 5.58 15.02 6.16667 15.02 6.82V7.13H9.37C9.41 7.59667 9.54333 8.01333 9.77 8.38C9.99 8.74667 10.2867 9.03667 10.66 9.25C11.0267 9.45667 11.4333 9.56 11.88 9.56C12.28 9.56 12.6567 9.48333 13.01 9.33C13.3567 9.17667 13.6467 8.96667 13.88 8.7L14.6 9.33C14.2333 9.70333 13.8167 9.98333 13.35 10.17C12.8833 10.3633 12.38 10.46 11.84 10.46ZM9.4 6.37H14.01C13.95 5.96333 13.8133 5.6 13.6 5.28C13.38 4.96 13.1033 4.71 12.77 4.53C12.4367 4.35 12.0667 4.26 11.66 4.26C11.2733 4.26 10.9233 4.34667 10.61 4.52C10.29 4.7 10.0267 4.95 9.82 5.27C9.60667 5.58333 9.46667 5.95 9.4 6.37ZM19.79 10.42C19.2033 10.42 18.67 10.2633 18.19 9.95C17.7167 9.63667 17.34 9.21667 17.06 8.69C16.78 8.16333 16.64 7.57333 16.64 6.92C16.64 6.25333 16.7833 5.65667 17.07 5.13C17.35 4.60333 17.7333 4.18333 18.22 3.87C18.7067 3.55667 19.25 3.4 19.85 3.4C20.27 3.4 20.66 3.48333 21.02 3.65C21.3867 3.81 21.7033 4.04667 21.97 4.36V0.21L23 0V10.32H21.97V9.41C21.71 9.73667 21.3933 9.98667 21.02 10.16C20.6467 10.3333 20.2367 10.42 19.79 10.42ZM20.04 9.52C20.44 9.52 20.81 9.44 21.15 9.28C21.4833 9.12667 21.7567 8.90333 21.97 8.61V5.22C21.75 4.93333 21.47 4.70667 21.13 4.54C20.79 4.38 20.4267 4.3 20.04 4.3C19.5867 4.3 19.18 4.41333 18.82 4.64C18.46 4.86 18.1733 5.16667 17.96 5.56C17.7533 5.95333 17.65 6.4 17.65 6.9C17.65 7.4 17.7533 7.84667 17.96 8.24C18.1733 8.64 18.46 8.95333 18.82 9.18C19.18 9.40667 19.5867 9.52 20.04 9.52ZM34.76 10.32H33.68V0.52H34.76V4.92H38.98V0.52H40.06V10.32H38.98V5.85H34.76V10.32ZM44.65 10.46C44.1567 10.46 43.7167 10.37 43.33 10.19C42.9433 10.0167 42.6433 9.77333 42.43 9.46C42.2167 9.14667 42.11 8.78333 42.11 8.37C42.11 7.96333 42.22 7.60667 42.44 7.3C42.6533 6.98667 42.96 6.74667 43.36 6.58C43.7533 6.41333 44.2133 6.33 44.74 6.33C45.1467 6.33 45.53 6.37 45.89 6.45C46.2433 6.53 46.5767 6.66333 46.89 6.85V6.06C46.89 5.45333 46.7367 4.99667 46.43 4.69C46.1233 4.38333 45.6667 4.23 45.06 4.23C44.7133 4.23 44.3667 4.28 44.02 4.38C43.68 4.47333 43.2933 4.64333 42.86 4.89L42.44 4.12C42.9333 3.84667 43.4067 3.65333 43.86 3.54C44.3067 3.43333 44.75 3.38 45.19 3.38C46.0567 3.38 46.7267 3.59667 47.2 4.03C47.6667 4.47 47.9 5.1 47.9 5.92V10.32H46.89V9.54C46.5767 9.85333 46.2367 10.0867 45.87 10.24C45.4967 10.3867 45.09 10.46 44.65 10.46ZM43.09 8.35C43.09 8.75 43.2533 9.07 43.58 9.31C43.9067 9.55667 44.3333 9.68 44.86 9.68C45.2667 9.68 45.6333 9.61667 45.96 9.49C46.2933 9.36333 46.6033 9.16 46.89 8.88V7.56C46.6033 7.38667 46.2967 7.26 45.97 7.18C45.6433 7.10667 45.2833 7.07 44.89 7.07C44.35 7.07 43.9133 7.18667 43.58 7.42C43.2533 7.65333 43.09 7.96333 43.09 8.35ZM54.79 10.46C54.0233 10.46 53.4367 10.2933 53.03 9.96C52.6233 9.63333 52.42 9.15 52.42 8.51V4.33H50.09V3.49H52.42V1.61L53.45 1.37V3.49H56.6V4.33H53.45V8.35C53.45 8.77667 53.5667 9.08333 53.8 9.27C54.0333 9.45667 54.3667 9.55 54.8 9.55C55.0733 9.55 55.3533 9.52333 55.64 9.47C55.9333 9.41 56.2533 9.31667 56.6 9.19V10.11C56.2867 10.2233 55.9833 10.31 55.69 10.37C55.39 10.43 55.09 10.46 54.79 10.46ZM68.06 10.32H67.1V0.52H68.43L70.47 5.2L72.51 0.52H73.84V10.32H72.85V1.85L70.46 7.38L68.06 1.85V10.32ZM78.87 10.46C78.2433 10.46 77.68 10.3033 77.18 9.99C76.68 9.67667 76.2833 9.25333 75.99 8.72C75.6967 8.19333 75.55 7.59333 75.55 6.92C75.55 6.24667 75.6967 5.64333 75.99 5.11C76.2833 4.57 76.68 4.14667 77.18 3.84C77.68 3.53333 78.2433 3.38 78.87 3.38C79.4967 3.38 80.06 3.53333 80.56 3.84C81.06 4.14667 81.4567 4.57 81.75 5.11C82.0433 5.64333 82.19 6.24667 82.19 6.92C82.19 7.59333 82.0433 8.19333 81.75 8.72C81.4567 9.25333 81.06 9.67667 80.56 9.99C80.06 10.3033 79.4967 10.46 78.87 10.46ZM78.87 9.55C79.3167 9.55 79.7133 9.43667 80.06 9.21C80.4067 8.97667 80.68 8.66333 80.88 8.27C81.08 7.87 81.18 7.41333 81.18 6.9C81.18 6.4 81.08 5.95333 80.88 5.56C80.68 5.16667 80.4067 4.85667 80.06 4.63C79.7133 4.40333 79.3167 4.29 78.87 4.29C78.4233 4.29 78.0267 4.40333 77.68 4.63C77.3333 4.85667 77.06 5.16667 76.86 5.56C76.66 5.95333 76.56 6.4 76.56 6.9C76.56 7.41333 76.66 7.87 76.86 8.27C77.06 8.66333 77.3333 8.97667 77.68 9.21C78.0267 9.43667 78.4233 9.55 78.87 9.55ZM85.48 10.32H84.46V3.49H85.48V4.59C86 3.78333 86.7233 3.38 87.65 3.38C88.1433 3.38 88.5733 3.48333 88.94 3.69C89.3133 3.90333 89.6033 4.19667 89.81 4.57C90.0233 4.95 90.13 5.39333 90.13 5.9V10.32H89.1V6.19C89.1 5.58333 88.9367 5.10333 88.61 4.75C88.2767 4.40333 87.83 4.23 87.27 4.23C86.8967 4.23 86.5567 4.32 86.25 4.5C85.9433 4.67333 85.6867 4.93333 85.48 5.28V10.32ZM95.67 10.46C95.0433 10.46 94.48 10.3033 93.98 9.99C93.48 9.67667 93.0833 9.25333 92.79 8.72C92.4967 8.19333 92.35 7.59333 92.35 6.92C92.35 6.24667 92.4967 5.64333 92.79 5.11C93.0833 4.57 93.48 4.14667 93.98 3.84C94.48 3.53333 95.0433 3.38 95.67 3.38C96.2967 3.38 96.86 3.53333 97.36 3.84C97.86 4.14667 98.2567 4.57 98.55 5.11C98.8433 5.64333 98.99 6.24667 98.99 6.92C98.99 7.59333 98.8433 8.19333 98.55 8.72C98.2567 9.25333 97.86 9.67667 97.36 9.99C96.86 10.3033 96.2967 10.46 95.67 10.46ZM95.67 9.55C96.1167 9.55 96.5133 9.43667 96.86 9.21C97.2067 8.97667 97.48 8.66333 97.68 8.27C97.88 7.87 97.98 7.41333 97.98 6.9C97.98 6.4 97.88 5.95333 97.68 5.56C97.48 5.16667 97.2067 4.85667 96.86 4.63C96.5133 4.40333 96.1167 4.29 95.67 4.29C95.2233 4.29 94.8267 4.40333 94.48 4.63C94.1333 4.85667 93.86 5.16667 93.66 5.56C93.46 5.95333 93.36 6.4 93.36 6.9C93.36 7.41333 93.46 7.87 93.66 8.27C93.86 8.66333 94.1333 8.97667 94.48 9.21C94.8267 9.43667 95.2233 9.55 95.67 9.55Z" fill="black"/>
</svg>
