<svg width="80" height="11" viewBox="0 0 80 11" fill="none" xmlns="http://www.w3.org/2000/svg">
<path d="M1.57 10.32H0.5V0.52H4.51C5.13667 0.52 5.68333 0.64 6.15 0.88C6.61667 1.11333 6.98 1.44 7.24 1.86C7.50667 2.28 7.64 2.77667 7.64 3.35C7.64 4.00333 7.45667 4.56 7.09 5.02C6.72333 5.48 6.22333 5.80333 5.59 5.99L7.68 10.32H6.49L4.5 6.13H1.57V10.32ZM1.57 1.47V5.24H4.43C5.07667 5.24 5.59333 5.07 5.98 4.73C6.36667 4.39 6.56 3.93333 6.56 3.36C6.56 2.78 6.36667 2.32 5.98 1.98C5.59333 1.64 5.07667 1.47 4.43 1.47H1.57ZM12.09 10.46C11.4567 10.46 10.8833 10.3033 10.37 9.99C9.85667 9.67667 9.45 9.25333 9.15 8.72C8.85 8.18 8.7 7.57333 8.7 6.9C8.7 6.23333 8.84333 5.63333 9.13 5.1C9.41 4.56667 9.79333 4.14667 10.28 3.84C10.7667 3.53333 11.3133 3.38 11.92 3.38C12.52 3.38 13.0533 3.53 13.52 3.83C13.9933 4.13667 14.3667 4.54667 14.64 5.06C14.92 5.58 15.06 6.16667 15.06 6.82V7.13H9.69C9.73 7.59667 9.86 8.01333 10.08 8.38C10.3 8.74667 10.59 9.03667 10.95 9.25C11.31 9.45667 11.7033 9.56 12.13 9.56C12.4833 9.56 12.8267 9.49667 13.16 9.37C13.4933 9.25 13.7767 9.08 14.01 8.86L14.65 9.55C14.2567 9.85667 13.85 10.0867 13.43 10.24C13.01 10.3867 12.5633 10.46 12.09 10.46ZM9.72 6.4H14.05C14.0033 5.98667 13.88 5.62 13.68 5.3C13.48 4.98 13.2267 4.72667 12.92 4.54C12.62 4.35333 12.2833 4.26 11.91 4.26C11.5367 4.26 11.1933 4.35 10.88 4.53C10.5733 4.71 10.32 4.96333 10.12 5.29C9.92 5.61 9.78667 5.98 9.72 6.4ZM19.65 10.42C19.0633 10.42 18.53 10.2633 18.05 9.95C17.5767 9.63667 17.2 9.21667 16.92 8.69C16.64 8.16333 16.5 7.57333 16.5 6.92C16.5 6.25333 16.6433 5.65667 16.93 5.13C17.21 4.60333 17.5933 4.18333 18.08 3.87C18.5667 3.55667 19.1067 3.4 19.7 3.4C20.12 3.4 20.5133 3.48333 20.88 3.65C21.2467 3.81 21.5633 4.04667 21.83 4.36V0.21L22.85 0V10.32H21.83V9.41C21.57 9.73667 21.2533 9.98667 20.88 10.16C20.5067 10.3333 20.0967 10.42 19.65 10.42ZM19.9 9.52C20.3 9.52 20.67 9.44 21.01 9.28C21.3433 9.12667 21.6167 8.90333 21.83 8.61V5.22C21.61 4.93333 21.3267 4.70667 20.98 4.54C20.64 4.38 20.28 4.3 19.9 4.3C19.44 4.3 19.0333 4.41333 18.68 4.64C18.32 4.86 18.0333 5.16667 17.82 5.56C17.6133 5.95333 17.51 6.4 17.51 6.9C17.51 7.4 17.6133 7.84667 17.82 8.24C18.0333 8.64 18.32 8.95333 18.68 9.18C19.0333 9.40667 19.44 9.52 19.9 9.52ZM29.48 10.32H28.4V0.52H29.48V4.9H35.1V0.52H36.18V10.32H35.1V5.87H29.48V10.32ZM40.44 10.45C39.9533 10.45 39.5233 10.36 39.15 10.18C38.7767 10 38.4833 9.75667 38.27 9.45C38.0633 9.13667 37.96 8.77333 37.96 8.36C37.96 7.94667 38.0667 7.59 38.28 7.29C38.4933 6.98333 38.7933 6.74667 39.18 6.58C39.56 6.41333 40.0067 6.33 40.52 6.33C40.9133 6.33 41.2833 6.37333 41.63 6.46C41.9833 6.54 42.31 6.67333 42.61 6.86V5.92C42.61 5.36 42.46 4.94 42.16 4.66C41.86 4.37333 41.42 4.23 40.84 4.23C40.5267 4.23 40.2033 4.27667 39.87 4.37C39.5367 4.46333 39.17 4.61333 38.77 4.82L38.39 4.03C39.31 3.59667 40.17 3.38 40.97 3.38C41.8167 3.38 42.47 3.58667 42.93 4C43.39 4.41333 43.62 5.00667 43.62 5.78V10.32H42.61V9.52C42.31 9.82667 41.9767 10.0567 41.61 10.21C41.25 10.37 40.86 10.45 40.44 10.45ZM38.94 8.33C38.94 8.73 39.0967 9.05333 39.41 9.3C39.7233 9.54 40.1367 9.66 40.65 9.66C41.03 9.66 41.38 9.59667 41.7 9.47C42.0267 9.33667 42.33 9.14 42.61 8.88V7.56C42.3167 7.39333 42.0167 7.27 41.71 7.19C41.4033 7.11 41.06 7.07 40.68 7.07C40.1533 7.07 39.7333 7.18333 39.42 7.41C39.1 7.64333 38.94 7.95 38.94 8.33ZM48.08 10.46C47.4933 10.46 47.0467 10.3167 46.74 10.03C46.44 9.75 46.29 9.33667 46.29 8.79V4.33H44.88V3.49H46.29V1.61L47.31 1.37V3.49H49.27V4.33H47.31V8.53C47.31 8.89 47.3867 9.15 47.54 9.31C47.6933 9.47 47.95 9.55 48.31 9.55C48.4833 9.55 48.64 9.53667 48.78 9.51C48.92 9.48333 49.0833 9.43667 49.27 9.37V10.28C49.0833 10.3467 48.8867 10.3933 48.68 10.42C48.48 10.4467 48.28 10.46 48.08 10.46ZM57.84 10.32H56.76V1.47H53.37V0.52H61.23V1.47H57.84V10.32ZM64.35 10.46C63.7167 10.46 63.1433 10.3033 62.63 9.99C62.1167 9.67667 61.71 9.25333 61.41 8.72C61.11 8.18 60.96 7.57333 60.96 6.9C60.96 6.23333 61.1033 5.63333 61.39 5.1C61.6767 4.56667 62.06 4.14667 62.54 3.84C63.0267 3.53333 63.5733 3.38 64.18 3.38C64.78 3.38 65.3133 3.53 65.78 3.83C66.2533 4.13667 66.63 4.54667 66.91 5.06C67.1833 5.58 67.32 6.16667 67.32 6.82V7.13H61.96C61.9933 7.59667 62.12 8.01333 62.34 8.38C62.56 8.74667 62.85 9.03667 63.21 9.25C63.57 9.45667 63.9633 9.56 64.39 9.56C64.7433 9.56 65.0867 9.49667 65.42 9.37C65.7533 9.25 66.0367 9.08 66.27 8.86L66.91 9.55C66.5167 9.85667 66.11 10.0867 65.69 10.24C65.27 10.3867 64.8233 10.46 64.35 10.46ZM61.98 6.4H66.31C66.2633 5.98667 66.14 5.62 65.94 5.3C65.74 4.98 65.4867 4.72667 65.18 4.54C64.88 4.35333 64.5433 4.26 64.17 4.26C63.7967 4.26 63.4567 4.35 63.15 4.53C62.8367 4.71 62.58 4.96333 62.38 5.29C62.18 5.61 62.0467 5.98 61.98 6.4ZM68.94 10.32H67.78L70.4 6.78L67.93 3.49H69.15L71.04 6.09L72.92 3.49H74.08L71.6 6.81L74.23 10.32H73.02L70.97 7.53L68.94 10.32ZM77.93 10.46C77.3433 10.46 76.8967 10.3167 76.59 10.03C76.29 9.75 76.14 9.33667 76.14 8.79V4.33H74.72V3.49H76.14V1.61L77.16 1.37V3.49H79.12V4.33H77.16V8.53C77.16 8.89 77.2367 9.15 77.39 9.31C77.5433 9.47 77.7967 9.55 78.15 9.55C78.33 9.55 78.49 9.53667 78.63 9.51C78.77 9.48333 78.9333 9.43667 79.12 9.37V10.28C78.9333 10.3467 78.7367 10.3933 78.53 10.42C78.3233 10.4467 78.1233 10.46 77.93 10.46Z" fill="black"/>
</svg>
