<svg width="42" height="14" viewBox="0 0 42 14" xmlns="http://www.w3.org/2000/svg"><path transform="translate(0 11.2) scale(.014 -.014)" d="M400 800V-200H0V800Z"/><path transform="translate(5.25 11.2) scale(.014 -.014)" d="M400 800V-200H0V800Z"/><path transform="translate(10.5 11.2) scale(.014 -.014)" d="M400 800V-200H0V800Z"/><path transform="translate(15.75 11.2) scale(.014 -.014)" d="M400 800V-200H0V800Z"/><path transform="translate(21 11.2) scale(.014 -.014)" d="M400 800V-200H0V800Z"/><path transform="translate(26.25 11.2) scale(.014 -.014)" d="M400 800V-200H0V800Z"/><path transform="translate(31.5 11.2) scale(.014 -.014)" d="M400 800V-200H0V800Z"/><path transform="translate(36.75 11.2) scale(.014 -.014)" d="M400 800V-200H0V800Z"/></svg>