<svg width="86.625" height="18.184" viewBox="0 0 86.625 18.184" xmlns="http://www.w3.org/2000/svg"><path transform="translate(0 14.137) scale(.0068359 -.0068359)" d="m262 598v156h282q80 0 142.5 35t98 99 35.5 150q0 129-80 200.5t-206 71.5h-272v164h300q122 0 221.5-50.5t158-145 58.5-226.5q0-126-58-229t-163.5-164-248.5-61zm-118-598v1474h180v-1474zm736 0-362 626 134 108 432-734z"/><path transform="translate(7.875 14.137) scale(.0068359 -.0068359)" d="m610-16q-146 0-257.5 69.5t-174 193-62.5 285.5q0 161 60 283.5t167 191.5 247 69q131 0 231.5-61.5t157.5-171 57-253.5q0-30-3-66t-9-62h-776v140h620q0 93-36 163.5t-99 110.5-145 40q-90 0-159.5-48.5t-109-135-39.5-200.5q0-115 42.5-202.5t118-136.5 173.5-49q68 0 141.5 28.5t130.5 77.5l64-154q-63-48-156.5-80t-183.5-32z"/><path transform="translate(15.75 14.137) scale(.0068359 -.0068359)" d="m1008-16q-75 42-116.5 99.5t-43.5 112.5l32-24h-78l44 118v534l-44 106h22v610h172v-1246q0-51 21-93.5t55-60.5zm-484 0q-128 0-223.5 67.5t-148 190.5-52.5 290q0 165 52.5 288t148 190.5 223.5 67.5q124 0 216.5-68t144-191 51.5-287q0-165-51.5-288t-144-191.5-216.5-68.5zm32 156q85 0 148.5 49t98.5 137 35 206q0 119-35 206.5t-98 135.5-147 48q-86 0-150-48.5t-99-136-35-205.5 34.5-206 98-137 149.5-49z"/><path transform="translate(23.625 14.137) scale(.0068359 -.0068359)" d="m1008-16q-75 42-116.5 99.5t-43.5 112.5l32-24h-78l44 118v534l-44 106h22v610h172v-1246q0-51 21-93.5t55-60.5zm-484 0q-128 0-223.5 67.5t-148 190.5-52.5 290q0 165 52.5 288t148 190.5 223.5 67.5q124 0 216.5-68t144-191 51.5-287q0-165-51.5-288t-144-191.5-216.5-68.5zm32 156q85 0 148.5 49t98.5 137 35 206q0 119-35 206.5t-98 135.5-147 48q-86 0-150-48.5t-99-136-35-205.5 34.5-206 98-137 149.5-49z"/><path transform="translate(31.5 14.137) scale(.0068359 -.0068359)" d="m544 0v1060h172v-1060zm-328 904v156h500v-156zm418 326q-55 0-92.5 37.5t-37.5 92.5 37.5 92.5 92.5 37.5 92.5-37.5 37.5-92.5-37.5-92.5-92.5-37.5z"/><path transform="translate(39.375 14.137) scale(.0068359 -.0068359)" d="m732-16q-109 0-195 44.5t-135.5 123.5-49.5 182v1066h172v-1048q0-91 62.5-149.5t153.5-58.5q63 0 125.5 26.5t108.5 63.5l66-158q-66-42-145.5-67t-162.5-25zm-628 920v156h870v-156z"/><path transform="translate(55.125 14.137) scale(.0068359 -.0068359)" d="m92 0v1474h132l348-680h8l348 680h132v-1474h-176v758l4 298h-8l-274-538h-60l-274 538h-8l4-298v-758z"/><path transform="translate(63 14.137) scale(.0068359 -.0068359)" d="m576-16q-140 0-245.5 69t-164 192-58.5 285 58.5 285.5 164 193 245.5 69.5 245.5-69.5 164-193 58.5-285.5-58.5-285-164-192-245.5-69zm0 160q92 0 158.5 47.5t102 134 35.5 204.5-35.5 205-102 135-158.5 48-158.5-48-102-135-35.5-205 35.5-204.5 102-134 158.5-47.5z"/><path transform="translate(70.875 14.137) scale(.0068359 -.0068359)" d="m156 0v1060h170v-130h40l-70-74q32 96 126.5 158t221.5 62q164 0 260-108t96-288v-680h-172v644q0 123-64.5 197.5t-177.5 74.5q-75 0-133-33.5t-91.5-94.5-33.5-144v-644z"/><path transform="translate(78.75 14.137) scale(.0068359 -.0068359)" d="m576-16q-140 0-245.5 69t-164 192-58.5 285 58.5 285.5 164 193 245.5 69.5 245.5-69.5 164-193 58.5-285.5-58.5-285-164-192-245.5-69zm0 160q92 0 158.5 47.5t102 134 35.5 204.5-35.5 205-102 135-158.5 48-158.5-48-102-135-35.5-205 35.5-204.5 102-134 158.5-47.5z"/></svg>