<svg width="74.02" height="18.184" viewBox="0 0 74.02 18.184" xmlns="http://www.w3.org/2000/svg"><path transform="translate(0 14.137) scale(.0068359 -.0068359)" d="m290 598v156h304q90 0 157.5 34.5t105 98 37.5 149.5q0 129-85.5 201.5t-226.5 72.5h-292v164h320q132 0 237-50.5t166-145 61-226.5q0-126-59.5-229t-170-164-262.5-61zm-118-598v1474h180v-1474zm808 0-394 626 140 108 462-734z"/><path transform="translate(8.6406 14.137) scale(.0068359 -.0068359)" d="m592-16q-149 0-264.5 67.5t-181.5 190.5-66 290q0 166 64 288t174.5 189 249.5 67q137 0 242-62.5t164.5-172.5 59.5-251q0-43-4.5-77t-7.5-51h-812v140h656q0 86-36 157.5t-103 114-159 42.5q-94 0-166-48t-113-134.5-41-201.5q0-116 43-203.5t122-136 187-48.5q64 0 116.5 16.5t93 41 68.5 48.5l66-156q-61-45-152.5-77.5t-199.5-32.5z"/><path transform="translate(16.311 14.137) scale(.0068359 -.0068359)" d="m1088-16q-61 29-98 60t-53.5 68-16.5 84l48-24h-98l54 118v534l-50 106h22v610h172v-1246q0-66 17-98t69-56zm-530 0q-97 0-183.5 38.5t-153 110.5-104.5 173-37 226q-1 168 65 290.5t175 189 238 66.5q133 0 236.5-69t163-192 60.5-285q-1-159-60.5-283t-163-194.5-236.5-70.5zm30 156q94 0 167.5 51.5t116 140 42.5 200.5q0 121-44.5 208.5t-118.5 134.5-163 47q-97 0-172.5-49.5t-118-137.5-41.5-203q-1-112 41.5-200.5t118-140 172.5-51.5z"/><path transform="translate(24.773 14.137) scale(.0068359 -.0068359)" d="m1088-16q-61 29-98 60t-53.5 68-16.5 84l48-24h-98l54 118v534l-50 106h22v610h172v-1246q0-66 17-98t69-56zm-530 0q-97 0-183.5 38.5t-153 110.5-104.5 173-37 226q-1 168 65 290.5t175 189 238 66.5q133 0 236.5-69t163-192 60.5-285q-1-159-60.5-283t-163-194.5-236.5-70.5zm30 156q94 0 167.5 51.5t116 140 42.5 200.5q0 121-44.5 208.5t-118.5 134.5-163 47q-97 0-172.5-49.5t-118-137.5-41.5-203q-1-112 41.5-200.5t118-140 172.5-51.5z"/><path transform="translate(33.236 14.137) scale(.0068359 -.0068359)" d="m146 0v1060h172v-1060zm86 1230q-55 0-92.5 38t-37.5 92 37.5 92 92.5 38q54 0 92-38t38-92-38-92-92-38z"/><path transform="translate(36.395 14.137) scale(.0068359 -.0068359)" d="m542-16q-150 0-226 87t-76 223v1106h172v-1088q0-82 37-125t97-43q26 0 47 7.5t39 16.5l66-152q-30-12-68-22t-88-10zm-478 920v156h610v-156z"/><path transform="translate(44.967 14.137) scale(.0068359 -.0068359)" d="m582-16q-117 0-215 48t-167 125-98 163l168 70q21-64 64.5-119t106-89 139.5-34q72 0 134 31.5t100 87 38 127.5q0 74-37.5 125.5t-92.5 85.5-109.5 54.5-88.5 32.5q-97 34-183 89t-139.5 138-53.5 201q0 112 51 195t143 129 214 46q113 0 197.5-37t142-97 88.5-128l-160-64q-19 35-55 72.5t-89 63.5-122 26q-93 0-163.5-53t-70.5-157q0-64 27.5-110t71.5-78.5 92.5-54.5 90.5-37q47-16 117.5-44.5t140-77 117-124.5 47.5-188q0-126-62.5-220t-164.5-146-219-52z"/><path transform="translate(52.746 14.137) scale(.0068359 -.0068359)" d="m436-16q-98 0-177 38t-125 108.5-46 169.5q0 105 57 179t165 112.5 262 38.5h220v-138h-208q-157 0-242.5-50t-85.5-142q0-53 27-90.5t72.5-57.5 100.5-20q66 0 136.5 29.5t119 86 48.5 138.5v110l-4 62v118q0 26-4 66.5t-23.5 80.5-65.5 67.5-129 27.5q-49 0-105.5-12.5t-110-34.5-94.5-51l-66 154q53 31 118.5 54.5t136 36.5 137.5 13q108 0 179.5-32t113.5-88 59.5-127.5 17.5-150.5v-372q0-67 14.5-106t51.5-54l20-8-66-156-28 12q-56 24-96 71t-40 93l34-12h-66l44 28q-39-79-132.5-135.5t-219.5-56.5z"/><path transform="translate(60.143 14.137) scale(.0068359 -.0068359)" d="m138 0v1060h172v-130h40l-74-74q27 72 80 121t125 74 155 25q134 0 216.5-59t120-150 37.5-187v-680h-172v644q0 135-66.5 203.5t-183.5 68.5q-78 0-141-31.5t-100-92-37-148.5v-644z"/><path transform="translate(67.949 14.137) scale(.0068359 -.0068359)" d="m444-16q-94 0-170.5 35.5t-128.5 92-73 118.5l156 64q21-60 80.5-105t135.5-45q48 0 91 18.5t70 52 27 79.5q0 45-25 76.5t-64 53.5-81.5 37-77.5 27q-60 20-126 53.5t-112 92-46 152.5q0 93 47 158t123 98.5 162 33.5q129 0 214.5-65.5t121.5-146.5l-156-66q-24 47-66.5 84.5t-113.5 37.5q-64 0-114-34.5t-50-99.5q0-55 35-88t84.5-53 94.5-35q41-13 95-35t105-57 84.5-88 33.5-130q0-92-49.5-163.5t-130.5-112-176-40.5z"/></svg>