<svg width="66" height="11" viewBox="0 0 66 11" fill="none" xmlns="http://www.w3.org/2000/svg">
<path d="M8.33 10.19C8.33 10.2567 8.30667 10.3267 8.26 10.4C8.21333 10.48 8.14667 10.52 8.06 10.52C8.01333 10.52 7.96333 10.5033 7.91 10.47C7.57 10.3167 7.17667 10.19 6.73 10.09C6.28333 9.99 5.82333 9.90333 5.35 9.83C4.88333 9.75667 4.42333 9.67667 3.97 9.59C3.52333 9.49667 3.13333 9.38 2.8 9.24C2.85333 9.36 2.91 9.46 2.97 9.54C3.02333 9.61333 3.07 9.67667 3.11 9.73C3.15667 9.79 3.19333 9.84333 3.22 9.89C3.24667 9.94333 3.26 10.0133 3.26 10.1C3.26 10.1733 3.23333 10.2267 3.18 10.26C3.12 10.3 3.06333 10.32 3.01 10.32C2.89667 10.32 2.77667 10.25 2.65 10.11C2.52333 9.97 2.39667 9.79333 2.27 9.58C2.13667 9.36667 2.00667 9.12667 1.88 8.86C1.75333 8.59333 1.64 8.33333 1.54 8.08C1.43333 7.82667 1.34333 7.59667 1.27 7.39C1.19667 7.17667 1.14667 7.01333 1.12 6.9L0.5 4.44C0.5 4.41333 0.506667 4.37667 0.52 4.33C0.533333 4.28333 0.57 4.23667 0.63 4.19C0.59 4.11667 0.57 4.03667 0.57 3.95C0.57 3.69 0.72 3.45 1.02 3.23C1.32 3.01 1.68 2.82333 2.1 2.67C2.52667 2.51667 2.97333 2.39667 3.44 2.31C3.90667 2.23 4.30333 2.19 4.63 2.19C4.72333 2.19 4.86333 2.19667 5.05 2.21C5.23667 2.22333 5.42333 2.25667 5.61 2.31C5.79 2.37 5.94667 2.45667 6.08 2.57C6.21333 2.69 6.28 2.85 6.28 3.05C6.28 3.25 6.18 3.47667 5.98 3.73C5.78 3.97667 5.53 4.24 5.23 4.52C4.93667 4.8 4.61667 5.09 4.27 5.39C3.92333 5.68333 3.6 5.97667 3.3 6.27C3 6.56333 2.75 6.84667 2.55 7.12C2.35 7.39333 2.25 7.64667 2.25 7.88C2.25 8.06 2.32667 8.21667 2.48 8.35C2.63333 8.49 2.82667 8.61 3.06 8.71C3.29333 8.81 3.55 8.9 3.83 8.98C4.10333 9.05333 4.36333 9.11333 4.61 9.16C4.85667 9.20667 5.07 9.24 5.25 9.26C5.43667 9.28667 5.54667 9.3 5.58 9.3C5.70667 9.3 5.91667 9.31333 6.21 9.34C6.51 9.36667 6.81667 9.41667 7.13 9.49C7.44333 9.55667 7.72 9.64667 7.96 9.76C8.20667 9.87333 8.33 10.0167 8.33 10.19ZM5.63 3.07C5.63 3.00333 5.59667 2.94333 5.53 2.89C5.46333 2.84333 5.37667 2.80333 5.27 2.77C5.16333 2.73667 5.04667 2.71333 4.92 2.7C4.79333 2.68667 4.67 2.68 4.55 2.68C4.36333 2.68 4.14 2.70667 3.88 2.76C3.61333 2.81333 3.34667 2.88333 3.08 2.97C2.82 3.05667 2.57667 3.14 2.35 3.22C2.12333 3.30667 1.96 3.37667 1.86 3.43C1.66667 3.54333 1.47667 3.66667 1.29 3.8C1.10333 3.94 1.01 4.07333 1.01 4.2C1.01 4.22 1.02333 4.24 1.05 4.26C1.07667 4.28 1.09 4.31333 1.09 4.36C1.09 4.41333 1.11667 4.55333 1.17 4.78C1.23 5.01333 1.29667 5.27 1.37 5.55C1.44333 5.83667 1.52333 6.12 1.61 6.4C1.70333 6.68 1.78667 6.90333 1.86 7.07C2.24 6.53 2.65333 6.05667 3.1 5.65C3.54 5.24333 3.94667 4.88333 4.32 4.57C4.69333 4.25667 5.00333 3.98333 5.25 3.75C5.50333 3.51 5.63 3.28333 5.63 3.07ZM11.66 8.08C11.6667 8.1 11.67 8.12667 11.67 8.16C11.67 8.22 11.63 8.30667 11.55 8.42C11.5233 8.45333 11.4633 8.51333 11.37 8.6C11.2767 8.68 11.15 8.76333 10.99 8.85C10.83 8.93667 10.6367 9.01 10.41 9.07C10.1767 9.13667 9.90667 9.17 9.6 9.17C9.38667 9.17 9.17667 9.12 8.97 9.02C8.76333 8.92667 8.58333 8.78333 8.43 8.59C8.27 8.39667 8.13667 8.16 8.03 7.88C7.93 7.59333 7.88 7.26 7.88 6.88C7.88 6.51333 7.92667 6.17 8.02 5.85C8.11333 5.53667 8.23333 5.25667 8.38 5.01C8.52 4.77 8.68 4.58 8.86 4.44C9.04 4.3 9.21333 4.23 9.38 4.23C9.52667 4.23 9.67667 4.26 9.83 4.32C9.98333 4.38 10.1233 4.45667 10.25 4.55C10.3767 4.64333 10.4767 4.75 10.55 4.87C10.63 4.98333 10.67 5.1 10.67 5.22C10.67 5.36 10.6067 5.50667 10.48 5.66C10.3533 5.80667 10.2 5.94333 10.02 6.07C9.84667 6.19667 9.67 6.3 9.49 6.38C9.31 6.46 9.17 6.5 9.07 6.5C9.01667 6.5 8.96667 6.47333 8.92 6.42C8.88 6.36667 8.86 6.30333 8.86 6.23C8.86 6.10333 8.92 6 9.04 5.92C9.15333 5.84667 9.28 5.78 9.42 5.72C9.56 5.66 9.69 5.58667 9.81 5.5C9.92333 5.42 9.98 5.30333 9.98 5.15C9.98 5.13667 9.95667 5.09 9.91 5.01C9.86333 4.93667 9.73667 4.9 9.53 4.9C9.43667 4.9 9.33 4.95333 9.21 5.06C9.09 5.16667 8.97333 5.31333 8.86 5.5C8.74667 5.68 8.65333 5.89333 8.58 6.14C8.50667 6.38667 8.47 6.65667 8.47 6.95C8.47 7.19 8.51333 7.40667 8.6 7.6C8.68667 7.8 8.8 7.96667 8.94 8.1C9.08 8.23333 9.24333 8.34 9.43 8.42C9.61667 8.49333 9.81 8.53 10.01 8.53C10.15 8.53 10.3 8.5 10.46 8.44C10.6267 8.38 10.78 8.31333 10.92 8.24C11.0667 8.17333 11.1933 8.10667 11.3 8.04C11.4067 7.98 11.4767 7.95 11.51 7.95C11.5367 7.95 11.5667 7.96667 11.6 8C11.6333 8.02667 11.6533 8.05333 11.66 8.08ZM16.55 8.08C16.5567 8.1 16.56 8.12667 16.56 8.16C16.56 8.22 16.5167 8.30667 16.43 8.42C16.4033 8.45333 16.3433 8.51333 16.25 8.6C16.1567 8.68 16.03 8.76333 15.87 8.85C15.7167 8.93667 15.5233 9.01 15.29 9.07C15.0633 9.13667 14.7967 9.17 14.49 9.17C14.2767 9.17 14.0667 9.12 13.86 9.02C13.6533 8.92667 13.47 8.78333 13.31 8.59C13.15 8.39667 13.02 8.16 12.92 7.88C12.82 7.59333 12.77 7.26 12.77 6.88C12.77 6.51333 12.8167 6.17 12.91 5.85C13.0033 5.53667 13.12 5.25667 13.26 5.01C13.4067 4.77 13.57 4.58 13.75 4.44C13.9233 4.3 14.0933 4.23 14.26 4.23C14.4133 4.23 14.5667 4.26 14.72 4.32C14.8733 4.38 15.0133 4.45667 15.14 4.55C15.2667 4.64333 15.3667 4.75 15.44 4.87C15.5133 4.98333 15.55 5.1 15.55 5.22C15.55 5.36 15.4867 5.50667 15.36 5.66C15.2333 5.80667 15.0833 5.94333 14.91 6.07C14.73 6.19667 14.5533 6.3 14.38 6.38C14.2 6.46 14.06 6.5 13.96 6.5C13.9 6.5 13.85 6.47333 13.81 6.42C13.77 6.36667 13.75 6.30333 13.75 6.23C13.75 6.10333 13.8067 6 13.92 5.92C14.04 5.84667 14.17 5.78 14.31 5.72C14.45 5.66 14.5767 5.58667 14.69 5.5C14.81 5.42 14.87 5.30333 14.87 5.15C14.87 5.13667 14.8467 5.09 14.8 5.01C14.7533 4.93667 14.6267 4.9 14.42 4.9C14.3267 4.9 14.22 4.95333 14.1 5.06C13.9733 5.16667 13.8567 5.31333 13.75 5.5C13.6367 5.68 13.5433 5.89333 13.47 6.14C13.39 6.38667 13.35 6.65667 13.35 6.95C13.35 7.19 13.3967 7.40667 13.49 7.6C13.5767 7.8 13.69 7.96667 13.83 8.1C13.97 8.23333 14.1333 8.34 14.32 8.42C14.5067 8.49333 14.6967 8.53 14.89 8.53C15.03 8.53 15.1833 8.5 15.35 8.44C15.51 8.38 15.6633 8.31333 15.81 8.24C15.9567 8.17333 16.0833 8.10667 16.19 8.04C16.2967 7.98 16.3633 7.95 16.39 7.95C16.4167 7.95 16.4467 7.96667 16.48 8C16.5133 8.02667 16.5367 8.05333 16.55 8.08ZM21.74 7.83C21.74 7.88333 21.72 7.94 21.68 8C21.6467 8.05333 21.6033 8.10333 21.55 8.15C21.4967 8.19667 21.44 8.23667 21.38 8.27C21.32 8.30333 21.2667 8.32 21.22 8.32C21.06 8.32 20.8567 8.28333 20.61 8.21C20.3633 8.14333 20.1667 8.03333 20.02 7.88C19.86 7.72667 19.72 7.54 19.6 7.32C19.48 7.1 19.3433 6.77333 19.19 6.34C19.09 6.75333 18.9733 7.16 18.84 7.56C18.7 7.96 18.48 8.33 18.18 8.67C18.1667 8.69 18.14 8.7 18.1 8.7C18.0333 8.7 17.9633 8.66667 17.89 8.6C17.8167 8.53333 17.78 8.46667 17.78 8.4C17.78 8.33333 17.7733 8.18333 17.76 7.95C17.7467 7.71 17.73 7.44333 17.71 7.15C17.69 6.85667 17.6733 6.55667 17.66 6.25C17.6467 5.95 17.64 5.7 17.64 5.5C17.64 5.40667 17.6433 5.28333 17.65 5.13C17.6633 4.97667 17.6933 4.84333 17.74 4.73C17.7467 4.71667 17.78 4.68 17.84 4.62C17.9 4.56667 17.9667 4.54 18.04 4.54C18.1067 4.54 18.1467 4.58 18.16 4.66C18.1667 4.74667 18.17 4.84 18.17 4.94V7.16C18.17 7.20667 18.1767 7.27 18.19 7.35C18.2033 7.43667 18.2233 7.49667 18.25 7.53C18.3567 7.31 18.4533 7.04667 18.54 6.74C18.6267 6.44 18.7133 6.15 18.8 5.87C18.8867 5.59667 18.97 5.36667 19.05 5.18C19.1367 4.98667 19.22 4.89 19.3 4.89C19.3933 4.89 19.47 4.90667 19.53 4.94C19.5833 4.98 19.63 5.05667 19.67 5.17C19.7167 5.43667 19.7533 5.67667 19.78 5.89C19.8067 6.09667 19.8433 6.28667 19.89 6.46C19.93 6.62667 19.99 6.78333 20.07 6.93C20.15 7.07 20.26 7.2 20.4 7.32C20.5267 7.44667 20.6733 7.53667 20.84 7.59C21 7.64333 21.14 7.67 21.26 7.67C21.32 7.67 21.3833 7.66 21.45 7.64C21.51 7.61333 21.5567 7.6 21.59 7.6C21.6233 7.6 21.6567 7.63333 21.69 7.7C21.7233 7.76667 21.74 7.81 21.74 7.83ZM23.29 3.11C23.29 3.13 23.26 3.16667 23.2 3.22C23.1333 3.28 23.0567 3.34 22.97 3.4C22.8767 3.46 22.7833 3.51333 22.69 3.56C22.5967 3.60667 22.5233 3.63 22.47 3.63C22.43 3.63 22.38 3.62667 22.32 3.62C22.26 3.61333 22.2 3.59667 22.14 3.57C22.08 3.54333 22.0267 3.50333 21.98 3.45C21.9333 3.40333 21.91 3.33667 21.91 3.25C21.91 3.11667 21.9567 2.99333 22.05 2.88C22.1433 2.76 22.2633 2.7 22.41 2.7C22.4367 2.7 22.5 2.71333 22.6 2.74C22.7 2.76 22.8 2.79 22.9 2.83C23.0067 2.87 23.1 2.91333 23.18 2.96C23.2533 3.00667 23.29 3.05667 23.29 3.11ZM23.76 8.35C23.76 8.41 23.71 8.46333 23.61 8.51C23.51 8.55667 23.4367 8.58 23.39 8.58C23.2967 8.58 23.2133 8.52 23.14 8.4C23.0667 8.28 23 8.14 22.94 7.98C22.8867 7.82 22.84 7.67 22.8 7.53C22.7667 7.38333 22.74 7.28333 22.72 7.23C22.6933 7.13667 22.6567 7.02333 22.61 6.89C22.5633 6.75667 22.52 6.63 22.48 6.51C22.4333 6.39 22.3967 6.28333 22.37 6.19C22.3433 6.09667 22.33 6.04667 22.33 6.04C22.33 5.90667 22.3567 5.78333 22.41 5.67C22.4567 5.55667 22.5167 5.5 22.59 5.5C22.6767 5.5 22.7667 5.56667 22.86 5.7C22.9533 5.83333 23.0433 6 23.13 6.2C23.2233 6.4 23.3067 6.61667 23.38 6.85C23.4533 7.09 23.5167 7.31667 23.57 7.53C23.63 7.73667 23.6767 7.91667 23.71 8.07C23.7433 8.22333 23.76 8.31667 23.76 8.35ZM28.53 8.08C28.5367 8.1 28.54 8.12667 28.54 8.16C28.54 8.22 28.5 8.30667 28.42 8.42C28.3933 8.45333 28.3333 8.51333 28.24 8.6C28.1467 8.68 28.02 8.76333 27.86 8.85C27.7 8.93667 27.5067 9.01 27.28 9.07C27.0467 9.13667 26.7767 9.17 26.47 9.17C26.2567 9.17 26.0467 9.12 25.84 9.02C25.6333 8.92667 25.4533 8.78333 25.3 8.59C25.14 8.39667 25.0067 8.16 24.9 7.88C24.8 7.59333 24.75 7.26 24.75 6.88C24.75 6.51333 24.7967 6.17 24.89 5.85C24.9833 5.53667 25.1033 5.25667 25.25 5.01C25.39 4.77 25.55 4.58 25.73 4.44C25.91 4.3 26.0833 4.23 26.25 4.23C26.3967 4.23 26.5467 4.26 26.7 4.32C26.8533 4.38 26.9933 4.45667 27.12 4.55C27.2467 4.64333 27.3467 4.75 27.42 4.87C27.5 4.98333 27.54 5.1 27.54 5.22C27.54 5.36 27.4767 5.50667 27.35 5.66C27.2233 5.80667 27.07 5.94333 26.89 6.07C26.7167 6.19667 26.54 6.3 26.36 6.38C26.18 6.46 26.04 6.5 25.94 6.5C25.8867 6.5 25.8367 6.47333 25.79 6.42C25.75 6.36667 25.73 6.30333 25.73 6.23C25.73 6.10333 25.79 6 25.91 5.92C26.0233 5.84667 26.15 5.78 26.29 5.72C26.43 5.66 26.56 5.58667 26.68 5.5C26.7933 5.42 26.85 5.30333 26.85 5.15C26.85 5.13667 26.8267 5.09 26.78 5.01C26.7333 4.93667 26.6067 4.9 26.4 4.9C26.3067 4.9 26.2 4.95333 26.08 5.06C25.96 5.16667 25.8433 5.31333 25.73 5.5C25.6167 5.68 25.5233 5.89333 25.45 6.14C25.3767 6.38667 25.34 6.65667 25.34 6.95C25.34 7.19 25.3833 7.40667 25.47 7.6C25.5567 7.8 25.67 7.96667 25.81 8.1C25.95 8.23333 26.1133 8.34 26.3 8.42C26.4867 8.49333 26.68 8.53 26.88 8.53C27.02 8.53 27.17 8.5 27.33 8.44C27.4967 8.38 27.6533 8.31333 27.8 8.24C27.94 8.17333 28.0633 8.10667 28.17 8.04C28.2767 7.98 28.3467 7.95 28.38 7.95C28.4067 7.95 28.4367 7.96667 28.47 8C28.5033 8.02667 28.5233 8.05333 28.53 8.08ZM41.98 5.34C41.98 5.58 41.9267 5.81667 41.82 6.05C41.7067 6.28333 41.5667 6.50333 41.4 6.71C41.2267 6.91667 41.0433 7.10333 40.85 7.27C40.6567 7.44333 40.48 7.59333 40.32 7.72C40.1533 7.84667 39.9567 7.98667 39.73 8.14C39.5033 8.28667 39.2867 8.42667 39.08 8.56C38.8667 8.68667 38.6833 8.80333 38.53 8.91C38.37 9.01667 38.27 9.09 38.23 9.13L37.83 9.45C37.7833 9.49 37.73 9.51333 37.67 9.52C37.6033 9.53333 37.5533 9.54 37.52 9.54C37.4533 9.54 37.4 9.50333 37.36 9.43C37.3267 9.36333 37.31 9.29 37.31 9.21C37.31 9.15667 37.3633 9.05667 37.47 8.91C37.5767 8.77 37.7 8.64667 37.84 8.54C37.98 8.44 38.1533 8.33667 38.36 8.23C38.5667 8.13 38.8467 7.96667 39.2 7.74C39.3733 7.63333 39.5867 7.48667 39.84 7.3C40.0933 7.12 40.3333 6.92333 40.56 6.71C40.78 6.50333 40.97 6.28667 41.13 6.06C41.29 5.82667 41.37 5.60333 41.37 5.39C41.37 5.31 41.27 5.22333 41.07 5.13C40.87 5.04333 40.5867 5 40.22 5C39.8467 5 39.4533 5.05667 39.04 5.17C38.6333 5.28333 38.2533 5.40333 37.9 5.53C37.5533 5.66333 37.2533 5.78667 37 5.9C36.7467 6.00667 36.5933 6.06 36.54 6.06C36.5667 6.28 36.6 6.54333 36.64 6.85C36.6867 7.16333 36.7333 7.46667 36.78 7.76C36.8267 8.09333 36.8767 8.44333 36.93 8.81H36.99C37.0033 8.90333 37.04 9.03667 37.1 9.21C37.1533 9.39 37.18 9.53 37.18 9.63C37.18 9.78333 37.1233 9.86 37.01 9.86C36.9567 9.86 36.8967 9.80667 36.83 9.7C36.7567 9.6 36.6867 9.48 36.62 9.34C36.5467 9.2 36.4833 9.06333 36.43 8.93C36.3833 8.79 36.35 8.69333 36.33 8.64C36.2433 8.33333 36.16 7.98 36.08 7.58C36 7.17333 35.93 6.76667 35.87 6.36C35.81 5.96 35.7633 5.58 35.73 5.22C35.6967 4.86 35.68 4.56333 35.68 4.33C35.68 4.26333 35.6967 4.20667 35.73 4.16C35.7633 4.11333 35.78 4.06667 35.78 4.02C35.78 3.97333 35.77 3.94 35.75 3.92C35.7233 3.89333 35.71 3.85333 35.71 3.8C35.71 3.76667 35.7167 3.73667 35.73 3.71C35.7433 3.67667 35.7833 3.66 35.85 3.66C35.9167 3.67333 35.98 3.68 36.04 3.68C36.1 3.68 36.1533 3.69333 36.2 3.72C36.2467 3.74 36.2833 3.78 36.31 3.84C36.3433 3.89333 36.36 3.98 36.36 4.1V4.19C36.36 4.21 36.3567 4.23 36.35 4.25C36.3433 4.27667 36.34 4.29667 36.34 4.31C36.34 4.47 36.3467 4.59667 36.36 4.69C36.3667 4.78333 36.38 4.83 36.4 4.83C36.4267 4.83 36.5267 4.76333 36.7 4.63C36.8733 4.49667 37.08 4.32667 37.32 4.12C37.5667 3.91333 37.83 3.68333 38.11 3.43C38.3967 3.17667 38.67 2.93333 38.93 2.7C39.0367 2.60667 39.1767 2.47333 39.35 2.3C39.53 2.13333 39.7067 1.95 39.88 1.75C40.0533 1.55667 40.2033 1.37333 40.33 1.2C40.45 1.02667 40.51 0.893334 40.51 0.8C40.51 0.706667 40.4833 0.66 40.43 0.66C40.3567 0.66 40.1967 0.693334 39.95 0.76C39.71 0.826667 39.4367 0.913333 39.13 1.02C38.8233 1.12667 38.5067 1.25 38.18 1.39C37.8533 1.53 37.5633 1.67333 37.31 1.82C37.05 2 36.7867 2.19667 36.52 2.41C36.26 2.62333 36.0267 2.82667 35.82 3.02C35.6067 3.21333 35.4333 3.37667 35.3 3.51C35.1667 3.64333 35.0933 3.72 35.08 3.74C35.06 3.76 35.05 3.78 35.05 3.8C35.05 3.81333 35.06 3.83667 35.08 3.87C35.0933 3.90333 35.1 3.93 35.1 3.95C35.1 3.97667 35.08 4 35.04 4.02C35 4.04 34.9567 4.05 34.91 4.05C34.8367 4.05 34.7433 4.03333 34.63 4C34.5233 3.96667 34.47 3.87667 34.47 3.73C34.47 3.59667 34.5433 3.43333 34.69 3.24C34.8367 3.04 35.03 2.83 35.27 2.61C35.51 2.38333 35.7733 2.16 36.06 1.94C36.3533 1.72 36.64 1.51667 36.92 1.33C37.2 1.15667 37.5033 0.986667 37.83 0.82C38.1633 0.66 38.49 0.516667 38.81 0.39C39.1367 0.27 39.4433 0.176667 39.73 0.11C40.0167 0.0366668 40.2533 0 40.44 0C40.52 0 40.6067 0.0100002 40.7 0.0300002C40.7933 0.0500002 40.88 0.0766668 40.96 0.11C41.0467 0.15 41.1167 0.2 41.17 0.26C41.23 0.32 41.26 0.393333 41.26 0.48C41.26 0.733333 41.1833 0.993334 41.03 1.26C40.8833 1.52 40.6867 1.78667 40.44 2.06C40.2 2.33333 39.93 2.60667 39.63 2.88C39.3233 3.15333 39.02 3.42 38.72 3.68C38.4133 3.93333 38.12 4.18 37.84 4.42C37.56 4.66 37.3267 4.87667 37.14 5.07C37.24 5.03 37.4067 4.96667 37.64 4.88C37.8733 4.79333 38.13 4.70333 38.41 4.61C38.6833 4.52333 38.96 4.44667 39.24 4.38C39.52 4.32 39.7667 4.29 39.98 4.29C40.0467 4.29 40.1867 4.29333 40.4 4.3C40.6133 4.30667 40.8367 4.34333 41.07 4.41C41.3033 4.47667 41.5133 4.58333 41.7 4.73C41.8867 4.87 41.98 5.07333 41.98 5.34ZM47.12 8.08C47.1333 8.1 47.14 8.12667 47.14 8.16C47.14 8.22 47.0967 8.30667 47.01 8.42C46.9833 8.45333 46.9233 8.51333 46.83 8.6C46.7367 8.68 46.61 8.76333 46.45 8.85C46.29 8.93667 46.0967 9.01 45.87 9.07C45.6433 9.13667 45.3733 9.17 45.06 9.17C44.8467 9.17 44.6367 9.12 44.43 9.02C44.23 8.92667 44.05 8.78333 43.89 8.59C43.73 8.39667 43.6 8.16 43.5 7.88C43.3933 7.59333 43.34 7.26 43.34 6.88C43.34 6.51333 43.3867 6.17 43.48 5.85C43.5733 5.53667 43.6933 5.25667 43.84 5.01C43.9867 4.77 44.1467 4.58 44.32 4.44C44.5 4.3 44.6733 4.23 44.84 4.23C44.9867 4.23 45.14 4.26 45.3 4.32C45.4533 4.38 45.5933 4.45667 45.72 4.55C45.84 4.64333 45.94 4.75 46.02 4.87C46.0933 4.98333 46.13 5.1 46.13 5.22C46.13 5.36 46.0667 5.50667 45.94 5.66C45.8133 5.80667 45.66 5.94333 45.48 6.07C45.3067 6.19667 45.13 6.3 44.95 6.38C44.7767 6.46 44.6367 6.5 44.53 6.5C44.4767 6.5 44.43 6.47333 44.39 6.42C44.3433 6.36667 44.32 6.30333 44.32 6.23C44.32 6.10333 44.38 6 44.5 5.92C44.6133 5.84667 44.74 5.78 44.88 5.72C45.02 5.66 45.15 5.58667 45.27 5.5C45.3833 5.42 45.44 5.30333 45.44 5.15C45.44 5.13667 45.4167 5.09 45.37 5.01C45.3233 4.93667 45.1967 4.9 44.99 4.9C44.8967 4.9 44.79 4.95333 44.67 5.06C44.55 5.16667 44.4333 5.31333 44.32 5.5C44.2067 5.68 44.1133 5.89333 44.04 6.14C43.9667 6.38667 43.93 6.65667 43.93 6.95C43.93 7.19 43.9733 7.40667 44.06 7.6C44.1533 7.8 44.27 7.96667 44.41 8.1C44.55 8.23333 44.7133 8.34 44.9 8.42C45.0867 8.49333 45.2767 8.53 45.47 8.53C45.61 8.53 45.7633 8.5 45.93 8.44C46.09 8.38 46.2433 8.31333 46.39 8.24C46.53 8.17333 46.6567 8.10667 46.77 8.04C46.8767 7.98 46.9433 7.95 46.97 7.95C46.9967 7.95 47.0267 7.96667 47.06 8C47.0933 8.02667 47.1133 8.05333 47.12 8.08ZM54.77 6.64C54.77 6.80667 54.6933 7.01333 54.54 7.26C54.38 7.50667 54.17 7.74667 53.91 7.98C53.65 8.21333 53.3467 8.41333 53 8.58C52.6533 8.74 52.2933 8.82 51.92 8.82C51.7533 8.82 51.5767 8.79333 51.39 8.74C51.2033 8.68 51.0233 8.59667 50.85 8.49C50.67 8.38333 50.51 8.25333 50.37 8.1C50.23 7.94667 50.1267 7.77333 50.06 7.58C50.0067 7.63333 49.94 7.72667 49.86 7.86C49.78 7.98667 49.6933 8.12 49.6 8.26C49.5067 8.39333 49.4033 8.50667 49.29 8.6C49.1767 8.7 49.06 8.75 48.94 8.75C48.82 8.75 48.72 8.68667 48.64 8.56C48.56 8.43333 48.4967 8.29333 48.45 8.14C48.4033 7.98667 48.37 7.84 48.35 7.7C48.3367 7.56 48.33 7.48 48.33 7.46C48.33 7.35333 48.36 7.14333 48.42 6.83C48.4867 6.51667 48.5867 6.19 48.72 5.85C48.8467 5.51667 49.0133 5.22 49.22 4.96C49.42 4.7 49.6533 4.57 49.92 4.57C50.0267 4.57 50.0967 4.61333 50.13 4.7C50.1567 4.78667 50.17 4.87333 50.17 4.96V5.38C50.2167 5.41333 50.2667 5.44 50.32 5.46C50.3733 5.47333 50.42 5.49 50.46 5.51C50.5 5.53667 50.5333 5.57333 50.56 5.62C50.58 5.66667 50.59 5.74 50.59 5.84C50.59 5.90667 50.5867 5.96333 50.58 6.01C50.5733 6.06333 50.57 6.11333 50.57 6.16C50.57 6.40667 50.5867 6.64667 50.62 6.88C50.66 7.11333 50.7367 7.32 50.85 7.5C50.9567 7.68 51.11 7.83 51.31 7.95C51.5033 8.06333 51.7633 8.12 52.09 8.12C52.5033 8.12 52.8533 8.03333 53.14 7.86C53.42 7.68667 53.6567 7.49667 53.85 7.29C54.0433 7.07667 54.1933 6.88333 54.3 6.71C54.4133 6.54333 54.5067 6.46 54.58 6.46C54.7067 6.46 54.77 6.52 54.77 6.64ZM49.85 6.02C49.85 5.98667 49.84 5.95333 49.82 5.92C49.8067 5.88667 49.8 5.85667 49.8 5.83C49.8 5.79 49.8067 5.75667 49.82 5.73C49.84 5.70333 49.85 5.66667 49.85 5.62C49.85 5.58667 49.84 5.56333 49.82 5.55C49.8067 5.53667 49.8 5.52 49.8 5.5C49.7133 5.52 49.6267 5.6 49.54 5.74C49.4467 5.88 49.3633 6.04333 49.29 6.23C49.21 6.41667 49.1467 6.60667 49.1 6.8C49.0533 6.99333 49.03 7.15 49.03 7.27C49.03 7.33667 49.0467 7.44333 49.08 7.59C49.12 7.73667 49.1633 7.83333 49.21 7.88C49.37 7.55333 49.5167 7.23667 49.65 6.93C49.7833 6.62333 49.85 6.32 49.85 6.02ZM59.13 7.83C59.13 7.88333 59.1133 7.94 59.08 8C59.04 8.05333 58.9967 8.10333 58.95 8.15C58.8967 8.19667 58.84 8.23667 58.78 8.27C58.72 8.30333 58.6667 8.32 58.62 8.32C58.46 8.32 58.2567 8.28333 58.01 8.21C57.7633 8.14333 57.5633 8.03333 57.41 7.88C57.25 7.72667 57.11 7.54 56.99 7.32C56.87 7.1 56.7367 6.77333 56.59 6.34C56.4833 6.75333 56.3633 7.16 56.23 7.56C56.0967 7.96 55.88 8.33 55.58 8.67C55.56 8.69 55.53 8.7 55.49 8.7C55.43 8.7 55.36 8.66667 55.28 8.6C55.2067 8.53333 55.17 8.46667 55.17 8.4C55.17 8.33333 55.1633 8.18333 55.15 7.95C55.1367 7.71 55.12 7.44333 55.1 7.15C55.08 6.85667 55.0633 6.55667 55.05 6.25C55.0367 5.95 55.03 5.7 55.03 5.5C55.03 5.40667 55.0367 5.28333 55.05 5.13C55.0567 4.97667 55.0833 4.84333 55.13 4.73C55.1367 4.71667 55.1733 4.68 55.24 4.62C55.3 4.56667 55.3667 4.54 55.44 4.54C55.5067 4.54 55.5433 4.58 55.55 4.66C55.5567 4.74667 55.56 4.84 55.56 4.94V7.16C55.56 7.20667 55.57 7.27 55.59 7.35C55.6033 7.43667 55.6233 7.49667 55.65 7.53C55.75 7.31 55.8467 7.04667 55.94 6.74C56.0267 6.44 56.11 6.15 56.19 5.87C56.2767 5.59667 56.3633 5.36667 56.45 5.18C56.53 4.98667 56.6133 4.89 56.7 4.89C56.7933 4.89 56.8667 4.90667 56.92 4.94C56.98 4.98 57.0267 5.05667 57.06 5.17C57.1067 5.43667 57.1433 5.67667 57.17 5.89C57.2033 6.09667 57.24 6.28667 57.28 6.46C57.32 6.62667 57.38 6.78333 57.46 6.93C57.54 7.07 57.65 7.2 57.79 7.32C57.9233 7.44667 58.07 7.53667 58.23 7.59C58.3967 7.64333 58.54 7.67 58.66 7.67C58.7133 7.67 58.7733 7.66 58.84 7.64C58.9067 7.61333 58.9533 7.6 58.98 7.6C59.02 7.6 59.0567 7.63333 59.09 7.7C59.1167 7.76667 59.13 7.81 59.13 7.83ZM60.69 3.11C60.69 3.13 60.6567 3.16667 60.59 3.22C60.5233 3.28 60.4467 3.34 60.36 3.4C60.2733 3.46 60.1833 3.51333 60.09 3.56C59.9967 3.60667 59.92 3.63 59.86 3.63C59.8267 3.63 59.78 3.62667 59.72 3.62C59.6533 3.61333 59.59 3.59667 59.53 3.57C59.47 3.54333 59.4167 3.50333 59.37 3.45C59.3233 3.40333 59.3 3.33667 59.3 3.25C59.3 3.11667 59.3467 2.99333 59.44 2.88C59.5333 2.76 59.6567 2.7 59.81 2.7C59.8367 2.7 59.9 2.71333 60 2.74C60.0933 2.76 60.1933 2.79 60.3 2.83C60.4 2.87 60.49 2.91333 60.57 2.96C60.65 3.00667 60.69 3.05667 60.69 3.11ZM61.15 8.35C61.15 8.41 61.1 8.46333 61 8.51C60.9067 8.55667 60.8367 8.58 60.79 8.58C60.6967 8.58 60.61 8.52 60.53 8.4C60.4567 8.28 60.3933 8.14 60.34 7.98C60.28 7.82 60.2333 7.67 60.2 7.53C60.16 7.38333 60.13 7.28333 60.11 7.23C60.0833 7.13667 60.0467 7.02333 60 6.89C59.9533 6.75667 59.91 6.63 59.87 6.51C59.83 6.39 59.7933 6.28333 59.76 6.19C59.7333 6.09667 59.72 6.04667 59.72 6.04C59.72 5.90667 59.7467 5.78333 59.8 5.67C59.8533 5.55667 59.9167 5.5 59.99 5.5C60.07 5.5 60.1567 5.56667 60.25 5.7C60.3433 5.83333 60.4367 6 60.53 6.2C60.6167 6.4 60.6967 6.61667 60.77 6.85C60.8433 7.09 60.91 7.31667 60.97 7.53C61.0233 7.73667 61.0667 7.91667 61.1 8.07C61.1333 8.22333 61.15 8.31667 61.15 8.35ZM65.92 8.08C65.9333 8.1 65.94 8.12667 65.94 8.16C65.94 8.22 65.8967 8.30667 65.81 8.42C65.7833 8.45333 65.7233 8.51333 65.63 8.6C65.5367 8.68 65.41 8.76333 65.25 8.85C65.09 8.93667 64.8967 9.01 64.67 9.07C64.4433 9.13667 64.1767 9.17 63.87 9.17C63.65 9.17 63.44 9.12 63.24 9.02C63.0333 8.92667 62.85 8.78333 62.69 8.59C62.53 8.39667 62.4 8.16 62.3 7.88C62.1933 7.59333 62.14 7.26 62.14 6.88C62.14 6.51333 62.1867 6.17 62.28 5.85C62.3733 5.53667 62.4933 5.25667 62.64 5.01C62.7867 4.77 62.9467 4.58 63.12 4.44C63.3 4.3 63.4733 4.23 63.64 4.23C63.7933 4.23 63.9467 4.26 64.1 4.32C64.2533 4.38 64.3933 4.45667 64.52 4.55C64.6467 4.64333 64.7467 4.75 64.82 4.87C64.8933 4.98333 64.93 5.1 64.93 5.22C64.93 5.36 64.8667 5.50667 64.74 5.66C64.6133 5.80667 64.4633 5.94333 64.29 6.07C64.11 6.19667 63.93 6.3 63.75 6.38C63.5767 6.46 63.4367 6.5 63.33 6.5C63.2767 6.5 63.23 6.47333 63.19 6.42C63.1433 6.36667 63.12 6.30333 63.12 6.23C63.12 6.10333 63.18 6 63.3 5.92C63.4133 5.84667 63.54 5.78 63.68 5.72C63.82 5.66 63.95 5.58667 64.07 5.5C64.1833 5.42 64.24 5.30333 64.24 5.15C64.24 5.13667 64.2167 5.09 64.17 5.01C64.1233 4.93667 64 4.9 63.8 4.9C63.7067 4.9 63.5967 4.95333 63.47 5.06C63.35 5.16667 63.2333 5.31333 63.12 5.5C63.0133 5.68 62.92 5.89333 62.84 6.14C62.7667 6.38667 62.73 6.65667 62.73 6.95C62.73 7.19 62.7767 7.40667 62.87 7.6C62.9567 7.8 63.07 7.96667 63.21 8.1C63.35 8.23333 63.5133 8.34 63.7 8.42C63.8867 8.49333 64.0767 8.53 64.27 8.53C64.41 8.53 64.5633 8.5 64.73 8.44C64.89 8.38 65.0433 8.31333 65.19 8.24C65.3367 8.17333 65.4633 8.10667 65.57 8.04C65.6767 7.98 65.7433 7.95 65.77 7.95C65.7967 7.95 65.8267 7.96667 65.86 8C65.8933 8.02667 65.9133 8.05333 65.92 8.08Z" fill="black"/>
</svg>
