<svg width="89" height="15" viewBox="0 0 89 15" fill="none" xmlns="http://www.w3.org/2000/svg">
<path d="M9.15 11.41L8.97 11.39L3.2 6.25L3.22 6.06C3.76667 5.94667 4.26333 5.74667 4.71 5.46C5.15 5.18 5.52333 4.85333 5.83 4.48C6.13 4.11333 6.34333 3.74667 6.47 3.38C6.55 3.14 6.59 2.91333 6.59 2.7C6.59 2.33333 6.46333 2.03333 6.21 1.8C5.96333 1.56667 5.57667 1.45 5.05 1.45C4.41 1.45 3.73333 1.54 3.02 1.72L2.81 11.21H1.02L0.5 0.29H3.05L3.04 1.06C3.47333 0.82 3.91667 0.63 4.37 0.49C4.82333 0.356667 5.26 0.29 5.68 0.29C6.46667 0.29 7.09333 0.416667 7.56 0.67C8.02667 0.93 8.36333 1.25333 8.57 1.64C8.78333 2.02667 8.89 2.42667 8.89 2.84C8.89 3.12 8.84667 3.38 8.76 3.62C8.63333 4.02 8.40667 4.38333 8.08 4.71C7.76 5.03 7.39333 5.29667 6.98 5.51C6.56 5.72333 6.15 5.88333 5.75 5.99L9.15 11.41ZM17.64 11.22L17.58 11.39C16.1467 11.39 14.9467 11.3267 13.98 11.2C13.02 11.0667 12.26 10.85 11.7 10.55C11.14 10.25 10.74 9.86 10.5 9.38C10.2533 8.89333 10.13 8.3 10.13 7.6C10.13 6.69333 10.3 5.91333 10.64 5.26C10.9733 4.60667 11.4133 4.10333 11.96 3.75C12.5067 3.40333 13.0833 3.23 13.69 3.23C14.1767 3.23 14.6667 3.30333 15.16 3.45C15.6533 3.60333 16.1167 3.84667 16.55 4.18C16.9767 4.52 17.3267 4.96 17.6 5.5C17.8667 6.04667 18.02 6.71667 18.06 7.51L12.11 8.19C12.19 8.70333 12.4267 9.14 12.82 9.5C13.2067 9.85333 13.79 10.1667 14.57 10.44C15.3567 10.7133 16.38 10.9733 17.64 11.22ZM12.08 7.98L15.72 6.37C15.6733 6.00333 15.5667 5.65667 15.4 5.33C15.2333 5.00333 15.0167 4.74 14.75 4.54C14.49 4.34 14.2033 4.24 13.89 4.24C13.5167 4.24 13.1933 4.32667 12.92 4.5C12.6467 4.68 12.4367 5.02 12.29 5.52C12.1433 6.02 12.07 6.75 12.07 7.71C12.07 7.75667 12.07 7.8 12.07 7.84C12.07 7.88667 12.0733 7.93333 12.08 7.98ZM23.06 12.51H23.34C23.8333 12.51 24.1633 12.4333 24.33 12.28C24.4967 12.1267 24.58 11.8067 24.58 11.32C24.58 11.2667 24.58 11.2133 24.58 11.16C24.5733 11.1067 24.57 11.05 24.57 10.99L24.51 9.71C24.15 10.03 23.71 10.29 23.19 10.49C22.67 10.69 22.1133 10.79 21.52 10.79C20.7267 10.79 20.0967 10.5833 19.63 10.17C19.17 9.75 18.94 9.08 18.94 8.16C18.94 7.43333 19.1467 6.76667 19.56 6.16C19.9667 5.56 20.5267 5.04 21.24 4.6C21.9533 4.16 22.77 3.82333 23.69 3.59C24.61 3.35 25.58 3.23 26.6 3.23L26.33 10.82C26.3033 11.66 26.2133 12.32 26.06 12.8C25.9067 13.28 25.68 13.62 25.38 13.82C25.08 14.02 24.6967 14.12 24.23 14.12C24.11 14.12 23.9833 14.1133 23.85 14.1C23.7233 14.0867 23.59 14.07 23.45 14.05C22.85 13.97 22.1833 13.7733 21.45 13.46C20.71 13.1467 19.9333 12.6267 19.12 11.9L19.19 11.78C19.4433 11.8733 19.75 11.9667 20.11 12.06C20.47 12.1467 20.84 12.2233 21.22 12.29C21.6067 12.3567 21.9633 12.4067 22.29 12.44C22.6167 12.48 22.8733 12.5033 23.06 12.51ZM24.47 8.8L24.29 4.25C23.17 4.61667 22.3467 5.11 21.82 5.73C21.3 6.35 21.04 7.06667 21.04 7.88C21.04 8.42 21.1467 8.79667 21.36 9.01C21.5733 9.22333 21.8867 9.33 22.3 9.33C22.68 9.33 23.0433 9.28667 23.39 9.2C23.7367 9.11333 24.0967 8.98 24.47 8.8ZM32.28 12.51H32.56C33.0533 12.51 33.3867 12.4333 33.56 12.28C33.7267 12.1267 33.81 11.8067 33.81 11.32C33.81 11.2667 33.8067 11.2133 33.8 11.16C33.7933 11.1067 33.79 11.05 33.79 10.99L33.74 9.71C33.3733 10.03 32.9333 10.29 32.42 10.49C31.9 10.69 31.34 10.79 30.74 10.79C29.9467 10.79 29.32 10.5833 28.86 10.17C28.4 9.75 28.17 9.08 28.17 8.16C28.17 7.43333 28.3733 6.76667 28.78 6.16C29.1933 5.56 29.7567 5.04 30.47 4.6C31.1833 4.16 32 3.82333 32.92 3.59C33.84 3.35 34.8067 3.23 35.82 3.23L35.56 10.82C35.5333 11.66 35.4433 12.32 35.29 12.8C35.13 13.28 34.9033 13.62 34.61 13.82C34.31 14.02 33.9267 14.12 33.46 14.12C33.34 14.12 33.2133 14.1133 33.08 14.1C32.9467 14.0867 32.81 14.07 32.67 14.05C32.0767 13.97 31.41 13.7733 30.67 13.46C29.9367 13.1467 29.1633 12.6267 28.35 11.9L28.42 11.78C28.6733 11.8733 28.98 11.9667 29.34 12.06C29.6933 12.1467 30.0633 12.2233 30.45 12.29C30.83 12.3567 31.1833 12.4067 31.51 12.44C31.8367 12.48 32.0933 12.5033 32.28 12.51ZM33.7 8.8L33.51 4.25C32.39 4.61667 31.57 5.11 31.05 5.73C30.53 6.35 30.27 7.06667 30.27 7.88C30.27 8.42 30.3767 8.79667 30.59 9.01C30.8033 9.22333 31.1167 9.33 31.53 9.33C31.91 9.33 32.2733 9.28667 32.62 9.2C32.9667 9.11333 33.3267 8.98 33.7 8.8ZM45.4 10.01L45.46 10.09C45.0267 10.49 44.6467 10.8067 44.32 11.04C43.9933 11.2733 43.7 11.39 43.44 11.39C43.2333 11.39 43.05 11.31 42.89 11.15C42.7233 10.9833 42.57 10.72 42.43 10.36C42.1433 10.6067 41.79 10.8167 41.37 10.99C40.95 11.1633 40.4967 11.28 40.01 11.34C39.8633 11.3533 39.72 11.3667 39.58 11.38C39.44 11.3867 39.3033 11.39 39.17 11.39C37.8567 11.39 37.2 10.92 37.2 9.98C37.2 9.86667 37.2067 9.75 37.22 9.63C37.24 9.51 37.27 9.38 37.31 9.24C37.39 8.92667 37.56 8.64667 37.82 8.4C38.0733 8.15333 38.3833 7.93 38.75 7.73C39.1167 7.53 39.49 7.34333 39.87 7.17C40.25 6.99667 40.6067 6.83333 40.94 6.68C41.2733 6.52667 41.5433 6.37667 41.75 6.23C41.9633 6.07667 42.07 5.92667 42.07 5.78C42.07 5.36667 42.0167 5.08667 41.91 4.94C41.81 4.8 41.6167 4.73 41.33 4.73C41.1233 4.73 40.8033 4.74667 40.37 4.78C39.9433 4.82 39.4733 4.87667 38.96 4.95C38.4467 5.02333 37.9567 5.12333 37.49 5.25L37.42 5.11C37.6733 4.86333 37.9967 4.63 38.39 4.41C38.79 4.18333 39.2167 3.98 39.67 3.8C40.1233 3.62667 40.5733 3.48667 41.02 3.38C41.4667 3.28 41.8733 3.23 42.24 3.23C42.8133 3.23 43.2433 3.29 43.53 3.41C43.8167 3.52333 44.01 3.75 44.11 4.09C44.2033 4.43 44.25 4.94 44.25 5.62V9.17C44.25 9.50333 44.28 9.74333 44.34 9.89C44.4 10.03 44.5433 10.1 44.77 10.1C44.8433 10.1 44.9333 10.0933 45.04 10.08C45.1467 10.06 45.2667 10.0367 45.4 10.01ZM42.26 9.45L42.18 7C41.9733 7.17333 41.7 7.36 41.36 7.56C41.02 7.76 40.69 7.97667 40.37 8.21C40.0567 8.43667 39.8233 8.69 39.67 8.97C39.5433 9.23 39.48 9.46 39.48 9.66C39.48 9.84667 39.5367 10 39.65 10.12C39.77 10.24 39.9367 10.3 40.15 10.3C40.1967 10.3 40.2467 10.2967 40.3 10.29C40.3467 10.29 40.3933 10.2833 40.44 10.27C40.6267 10.2233 40.8467 10.16 41.1 10.08C41.3467 9.99333 41.5767 9.89333 41.79 9.78C42.01 9.66667 42.1667 9.55667 42.26 9.45ZM53.39 11.22L53.34 11.39C51.9 11.39 50.7 11.3267 49.74 11.2C48.78 11.0667 48.02 10.85 47.46 10.55C46.9 10.25 46.4967 9.86 46.25 9.38C46.01 8.89333 45.89 8.3 45.89 7.6C45.89 6.69333 46.0567 5.91333 46.39 5.26C46.73 4.60667 47.1733 4.10333 47.72 3.75C48.2667 3.40333 48.8433 3.23 49.45 3.23C49.93 3.23 50.42 3.30333 50.92 3.45C51.4133 3.60333 51.8733 3.84667 52.3 4.18C52.7333 4.52 53.0833 4.96 53.35 5.5C53.6233 6.04667 53.7767 6.71667 53.81 7.51L47.86 8.19C47.9467 8.70333 48.1833 9.14 48.57 9.5C48.9567 9.85333 49.5433 10.1667 50.33 10.44C51.11 10.7133 52.13 10.9733 53.39 11.22ZM47.84 7.98L51.48 6.37C51.4333 6.00333 51.3233 5.65667 51.15 5.33C50.9833 5.00333 50.77 4.74 50.51 4.54C50.25 4.34 49.96 4.24 49.64 4.24C49.2667 4.24 48.9467 4.32667 48.68 4.5C48.4067 4.68 48.1967 5.02 48.05 5.52C47.8967 6.02 47.82 6.75 47.82 7.71C47.82 7.75667 47.82 7.8 47.82 7.84C47.82 7.88667 47.8267 7.93333 47.84 7.98ZM64.62 11.49C64.0867 11.49 63.53 11.3567 62.95 11.09C62.3633 10.8233 61.8133 10.44 61.3 9.94C60.7867 9.43333 60.3733 8.82667 60.06 8.12C59.74 7.40667 59.58 6.60667 59.58 5.72C59.58 5.03333 59.6867 4.39333 59.9 3.8C60.1067 3.20667 60.3867 2.67667 60.74 2.21C61.1 1.74333 61.4967 1.34333 61.93 1.01C62.37 0.676667 62.8233 0.423333 63.29 0.25C63.75 0.0833333 64.1933 0 64.62 0C65.04 0 65.48 0.0866669 65.94 0.26C66.4067 0.44 66.8567 0.693333 67.29 1.02C67.7233 1.35333 68.1167 1.75333 68.47 2.22C68.8233 2.68667 69.1033 3.21333 69.31 3.8C69.5167 4.39333 69.62 5.03333 69.62 5.72C69.62 6.60667 69.46 7.40667 69.14 8.12C68.8267 8.82667 68.4167 9.43333 67.91 9.94C67.41 10.44 66.87 10.8233 66.29 11.09C65.71 11.3567 65.1533 11.49 64.62 11.49ZM65.18 10.29C65.62 10.29 66.0067 10.1433 66.34 9.85C66.68 9.56333 66.9433 9.16 67.13 8.64C67.3233 8.12 67.42 7.52 67.42 6.84C67.42 5.9 67.3133 5.07667 67.1 4.37C66.8867 3.66333 66.6067 3.07667 66.26 2.61C65.9133 2.14333 65.5467 1.79333 65.16 1.56C64.7733 1.32667 64.4067 1.21 64.06 1.21C63.6333 1.21 63.2467 1.35333 62.9 1.64C62.5533 1.92667 62.28 2.32 62.08 2.82C61.88 3.32667 61.78 3.92 61.78 4.6C61.78 5.6 61.89 6.46 62.11 7.18C62.33 7.9 62.6133 8.48667 62.96 8.94C63.3133 9.4 63.6867 9.74 64.08 9.96C64.4667 10.18 64.8333 10.29 65.18 10.29ZM78.47 11.21H76.73L76.51 6.41C76.4833 5.79 76.4 5.38 76.26 5.18C76.1267 4.98 75.9167 4.88 75.63 4.88C75.4033 4.88 75.09 4.94 74.69 5.06C74.29 5.17333 73.8967 5.35333 73.51 5.6L73.25 11.21H71.52L71.16 3.41H73.61L73.54 4.9C73.8267 4.57333 74.16 4.28333 74.54 4.03C74.92 3.77667 75.3133 3.58 75.72 3.44C76.1333 3.3 76.5267 3.23 76.9 3.23C77.6 3.23 78.0767 3.42 78.33 3.8C78.5833 4.17333 78.71 4.72 78.71 5.44C78.71 5.50667 78.7067 5.57 78.7 5.63C78.6933 5.69 78.69 5.75667 78.69 5.83L78.47 11.21ZM87.78 11.22L87.72 11.39C86.2867 11.39 85.0867 11.3267 84.12 11.2C83.16 11.0667 82.4 10.85 81.84 10.55C81.28 10.25 80.88 9.86 80.64 9.38C80.3933 8.89333 80.27 8.3 80.27 7.6C80.27 6.69333 80.44 5.91333 80.78 5.26C81.1133 4.60667 81.5533 4.10333 82.1 3.75C82.6467 3.40333 83.2233 3.23 83.83 3.23C84.3167 3.23 84.8067 3.30333 85.3 3.45C85.7933 3.60333 86.2567 3.84667 86.69 4.18C87.1167 4.52 87.4667 4.96 87.74 5.5C88.0067 6.04667 88.16 6.71667 88.2 7.51L82.25 8.19C82.33 8.70333 82.5633 9.14 82.95 9.5C83.3433 9.85333 83.93 10.1667 84.71 10.44C85.4967 10.7133 86.52 10.9733 87.78 11.22ZM82.22 7.98L85.86 6.37C85.8133 6.00333 85.7067 5.65667 85.54 5.33C85.3733 5.00333 85.1567 4.74 84.89 4.54C84.63 4.34 84.3433 4.24 84.03 4.24C83.6567 4.24 83.3333 4.32667 83.06 4.5C82.7867 4.68 82.5767 5.02 82.43 5.52C82.2833 6.02 82.21 6.75 82.21 7.71C82.21 7.75667 82.21 7.8 82.21 7.84C82.21 7.88667 82.2133 7.93333 82.22 7.98Z" fill="black"/>
</svg>
