<svg width="49" height="15" viewBox="0 0 49 15" fill="none" xmlns="http://www.w3.org/2000/svg">
<path d="M9.21 3.04C9.21 2.72 9.15667 2.44 9.05 2.2C8.95 1.96 8.80333 1.75333 8.61 1.58C8.42333 1.40667 8.19667 1.26667 7.93 1.16C7.67 1.04667 7.38333 0.956667 7.07 0.89C6.75 0.823333 6.41333 0.776667 6.06 0.75C5.7 0.73 5.33 0.72 4.95 0.72C4.85 0.72 4.75667 0.72 4.67 0.72C4.58333 0.72 4.5 0.723333 4.42 0.73L4.3 5.38C4.47333 5.41333 4.66 5.43667 4.86 5.45C5.06667 5.46333 5.28 5.47 5.5 5.47C5.76667 5.47 6.04333 5.45667 6.33 5.43C6.61667 5.39667 6.9 5.34333 7.18 5.27C7.45333 5.19667 7.71333 5.1 7.96 4.98C8.20667 4.86 8.42333 4.71 8.61 4.53C8.79 4.35 8.93667 4.13667 9.05 3.89C9.15667 3.64333 9.21 3.36 9.21 3.04ZM10.35 7.37C10.35 7.37667 10.35 7.4 10.35 7.44C10.3567 7.48 10.36 7.53667 10.36 7.61C10.36 7.97667 10.3033 8.31667 10.19 8.63C10.0833 8.94333 9.92667 9.21333 9.72 9.44C9.51333 9.66667 9.26333 9.84333 8.97 9.97C8.68333 10.0967 8.36 10.16 8 10.16H7.97C7.64333 10.1533 7.35333 10.1 7.1 10C6.84667 9.9 6.62333 9.76667 6.43 9.6C6.24333 9.43333 6.08667 9.23667 5.96 9.01C5.83333 8.79 5.73 8.55 5.65 8.29C5.57 8.03667 5.51333 7.77 5.48 7.49C5.44667 7.21 5.43 6.93333 5.43 6.66C5.43 6.58 5.43333 6.5 5.44 6.42C5.44667 6.34 5.45 6.27 5.45 6.21C5.24333 6.21 5.04333 6.2 4.85 6.18C4.65667 6.16 4.46667 6.13667 4.28 6.11L4.18 9.65C4.18 9.75667 4.14333 9.84333 4.07 9.91C4.00333 9.97 3.92 10 3.82 10C3.81333 10 3.72 10 3.54 10C3.36 10.0067 3.13 10.0133 2.85 10.02C2.56333 10.0267 2.25 10.0433 1.91 10.07C1.57 10.09 1.23667 10.12 0.91 10.16H0.87C0.763333 10.16 0.676667 10.1267 0.61 10.06C0.536667 9.98667 0.5 9.90333 0.5 9.81C0.5 9.72333 0.53 9.64667 0.59 9.58C0.643333 9.50667 0.716667 9.46333 0.81 9.45C0.976667 9.43 1.15 9.41333 1.33 9.4C1.50333 9.38667 1.67333 9.37333 1.84 9.36L2 0.93C1.66 0.983333 1.40333 1.03 1.23 1.07C1.05667 1.11 0.966667 1.13 0.96 1.13C0.926667 1.15667 0.896667 1.17 0.87 1.17C0.763333 1.17 0.676667 1.13333 0.61 1.06C0.536667 0.986667 0.5 0.9 0.5 0.8C0.5 0.72 0.523333 0.65 0.57 0.59C0.616667 0.53 0.68 0.486667 0.76 0.46C0.773333 0.46 0.866667 0.433333 1.04 0.38C1.22 0.333333 1.48333 0.28 1.83 0.22C2.18333 0.166666 2.61667 0.116667 3.13 0.0700002C3.65 0.0233335 4.25667 0 4.95 0C5.39667 0.0266667 5.83 0.0599999 6.25 0.0999999C6.66333 0.14 7.05667 0.203333 7.43 0.29C7.79667 0.376667 8.13333 0.486667 8.44 0.62C8.74667 0.76 9.01 0.94 9.23 1.16C9.45 1.38 9.62 1.64333 9.74 1.95C9.86 2.25667 9.92 2.62 9.92 3.04C9.92 3.37333 9.87 3.68667 9.77 3.98C9.67 4.27333 9.52667 4.54 9.34 4.78C9.16 5.02 8.94 5.22667 8.68 5.4C8.42667 5.58 8.14667 5.72 7.84 5.82C7.82667 5.92 7.82 6.02667 7.82 6.14C7.81333 6.24667 7.81 6.35667 7.81 6.47C7.81 6.57 7.81333 6.70333 7.82 6.87C7.82 7.04333 7.83 7.23333 7.85 7.44C7.87 7.64667 7.9 7.85667 7.94 8.07C7.98 8.28333 8.03 8.48 8.09 8.66C8.15667 8.83333 8.24 8.97667 8.34 9.09C8.44 9.19667 8.56333 9.25 8.71 9.25C8.89 9.25 9.04 9.19 9.16 9.07C9.28 8.94333 9.37333 8.79333 9.44 8.62C9.51333 8.44667 9.56667 8.26667 9.6 8.08C9.62667 7.89333 9.64 7.73667 9.64 7.61C9.64 7.55667 9.64 7.51333 9.64 7.48C9.63333 7.45333 9.63 7.42333 9.63 7.39C9.63 7.29 9.66667 7.20667 9.74 7.14C9.81333 7.08 9.89667 7.05 9.99 7.05C10.0833 7.05 10.1633 7.08 10.23 7.14C10.2967 7.2 10.3367 7.27667 10.35 7.37ZM15.89 10.21C15.8833 10.21 15.8733 10.2067 15.86 10.2C15.8467 10.2 15.8333 10.2 15.82 10.2C15.4533 10.1267 15.1033 10.0733 14.77 10.04C14.4367 10.0067 14.1067 9.99 13.78 9.99C13.4467 9.99 13.1167 10.0067 12.79 10.04C12.4633 10.0733 12.1167 10.1267 11.75 10.2C11.7367 10.2 11.7233 10.2 11.71 10.2C11.7033 10.2067 11.6933 10.21 11.68 10.21C11.5733 10.21 11.4867 10.17 11.42 10.09C11.3533 10.0167 11.32 9.93333 11.32 9.84C11.32 9.76 11.3467 9.68667 11.4 9.62C11.4533 9.54667 11.52 9.50333 11.6 9.49C11.76 9.45667 11.9233 9.43 12.09 9.41C12.25 9.39 12.4067 9.36667 12.56 9.34V4.11C12.2733 4.09667 12.0333 4.07667 11.84 4.05C11.64 4.03 11.53 4.02 11.51 4.02C11.4167 4.00667 11.3433 3.96333 11.29 3.89C11.23 3.82333 11.2 3.74667 11.2 3.66C11.2 3.54 11.24 3.45333 11.32 3.4C11.4067 3.34 11.4867 3.31 11.56 3.31H11.6C11.6067 3.31 11.66 3.31333 11.76 3.32C11.86 3.33333 11.9933 3.34667 12.16 3.36C12.32 3.37333 12.5033 3.38667 12.71 3.4C12.91 3.41333 13.12 3.42 13.34 3.42C13.56 3.42 13.7733 3.41 13.98 3.39C14.1933 3.37667 14.3867 3.35 14.56 3.31H14.63C14.7367 3.31 14.8233 3.34333 14.89 3.41C14.9633 3.48333 15 3.56667 15 3.66L14.98 9.34C15.14 9.36667 15.3 9.39 15.46 9.41C15.6267 9.43 15.7933 9.45667 15.96 9.49C16.0467 9.50333 16.1167 9.54667 16.17 9.62C16.2233 9.68667 16.25 9.76 16.25 9.84C16.25 9.94667 16.2133 10.0333 16.14 10.1C16.06 10.1733 15.9767 10.21 15.89 10.21ZM14.9 1.22C14.9 1.38667 14.8667 1.54667 14.8 1.7C14.74 1.84667 14.6533 1.97333 14.54 2.08C14.4267 2.19333 14.2967 2.28 14.15 2.34C14.0033 2.40667 13.8467 2.44 13.68 2.44C13.5067 2.44 13.3467 2.40667 13.2 2.34C13.0533 2.28 12.9233 2.19333 12.81 2.08C12.7033 1.97333 12.6167 1.84667 12.55 1.7C12.49 1.54667 12.46 1.38667 12.46 1.22C12.46 1.05333 12.49 0.896667 12.55 0.75C12.6167 0.596667 12.7033 0.466667 12.81 0.36C12.9233 0.253333 13.0533 0.166667 13.2 0.0999999C13.3467 0.0333332 13.5067 0 13.68 0C13.8467 0 14.0033 0.0333332 14.15 0.0999999C14.2967 0.166667 14.4267 0.253333 14.54 0.36C14.6533 0.466667 14.74 0.596667 14.8 0.75C14.8667 0.896667 14.9 1.05333 14.9 1.22ZM23.49 6.37C23.49 6.01667 23.46 5.68333 23.4 5.37C23.3333 5.05667 23.23 4.78333 23.09 4.55C22.9433 4.31667 22.7533 4.13333 22.52 4C22.2867 3.86667 22 3.8 21.66 3.8C21.4667 3.8 21.2867 3.83 21.12 3.89C20.9533 3.95667 20.7967 4.04333 20.65 4.15C20.51 4.25 20.38 4.36667 20.26 4.5C20.1467 4.62667 20.05 4.75333 19.97 4.88C19.8833 5 19.8167 5.11667 19.77 5.23C19.7233 5.34333 19.6933 5.43333 19.68 5.5C19.68 5.78 19.6867 6.05667 19.7 6.33C19.7067 6.59667 19.7133 6.85667 19.72 7.11C19.7267 7.45 19.7667 7.76333 19.84 8.05C19.9067 8.33 20.01 8.57333 20.15 8.78C20.2833 8.98667 20.4567 9.14667 20.67 9.26C20.8767 9.38 21.1233 9.44 21.41 9.44C21.7767 9.44 22.09 9.35 22.35 9.17C22.6167 8.98333 22.8333 8.74333 23 8.45C23.1667 8.16333 23.29 7.83667 23.37 7.47C23.45 7.10333 23.49 6.73667 23.49 6.37ZM24.21 6.37C24.21 6.95 24.1267 7.49667 23.96 8.01C23.7867 8.51667 23.54 8.96 23.22 9.34C22.8933 9.71333 22.4967 10.01 22.03 10.23C21.5633 10.45 21.0267 10.56 20.42 10.56C19.98 10.56 19.5733 10.4833 19.2 10.33C18.82 10.1767 18.49 9.96333 18.21 9.69C17.93 9.41667 17.7067 9.09333 17.54 8.72C17.3733 8.34667 17.28 7.93667 17.26 7.49C17.2533 7.21 17.2467 6.85 17.24 6.41C17.24 5.97 17.24 5.49667 17.24 4.99C17.24 4.61 17.24 4.22667 17.24 3.84C17.24 3.45333 17.2433 3.08667 17.25 2.74C17.25 2.38667 17.25 2.06667 17.25 1.78C17.2567 1.49333 17.26 1.26 17.26 1.08C16.8867 1.08 16.58 1.06333 16.34 1.03C16.1067 0.996666 15.9767 0.976666 15.95 0.97C15.8633 0.956666 15.7933 0.916667 15.74 0.85C15.6867 0.776667 15.66 0.7 15.66 0.62C15.66 0.56 15.6733 0.506667 15.7 0.46C15.72 0.413333 15.75 0.376667 15.79 0.35C15.8233 0.316667 15.86 0.29 15.9 0.27C15.9467 0.256667 15.9867 0.25 16.02 0.25C16.0267 0.25 16.0367 0.25 16.05 0.25C16.0567 0.25 16.0667 0.253333 16.08 0.26C16.08 0.26 16.1133 0.266666 16.18 0.28C16.24 0.286666 16.3267 0.296667 16.44 0.31C16.5467 0.323333 16.6733 0.333333 16.82 0.34C16.9733 0.346667 17.1367 0.35 17.31 0.35C17.59 0.35 17.9 0.333334 18.24 0.3C18.5733 0.266667 18.91 0.2 19.25 0.0999999C19.29 0.0799999 19.3233 0.0700002 19.35 0.0700002C19.4567 0.0700002 19.5433 0.11 19.61 0.19C19.6833 0.263333 19.72 0.346667 19.72 0.44V0.45C19.72 0.456666 19.7167 0.556667 19.71 0.75C19.71 0.95 19.7067 1.21667 19.7 1.55C19.7 1.87667 19.6967 2.25667 19.69 2.69C19.6833 3.12333 19.68 3.57333 19.68 4.04C19.7867 3.9 19.9067 3.77333 20.04 3.66C20.18 3.54 20.3367 3.43667 20.51 3.35C20.6767 3.26333 20.8567 3.19667 21.05 3.15C21.2433 3.10333 21.4433 3.08 21.65 3.08C22.0967 3.08 22.48 3.16667 22.8 3.34C23.1267 3.50667 23.3933 3.74 23.6 4.04C23.8067 4.33333 23.96 4.68 24.06 5.08C24.16 5.48667 24.21 5.91667 24.21 6.37ZM31.42 6.43V6.31C31.42 5.97 31.3833 5.65333 31.31 5.36C31.2367 5.07333 31.1233 4.81667 30.97 4.59C30.81 4.36333 30.6067 4.17667 30.36 4.03C30.1133 3.88333 29.8167 3.78667 29.47 3.74C29.23 3.76667 29.0233 3.83333 28.85 3.94C28.67 4.04 28.5167 4.16667 28.39 4.32C28.2633 4.47333 28.16 4.64667 28.08 4.84C28 5.02667 27.9333 5.22333 27.88 5.43C27.8333 5.63 27.8 5.83333 27.78 6.04C27.7533 6.24 27.74 6.43 27.74 6.61C27.8133 6.63 27.9033 6.65333 28.01 6.68C28.1233 6.70667 28.25 6.73333 28.39 6.76C28.5367 6.78667 28.6933 6.80667 28.86 6.82C29.02 6.84 29.1933 6.85 29.38 6.85C29.7667 6.85 30.13 6.81333 30.47 6.74C30.81 6.66667 31.1267 6.56333 31.42 6.43ZM32.12 6.7C32.1067 6.81333 32.0433 6.91333 31.93 7C31.8167 7.08667 31.6733 7.16333 31.5 7.23C31.3267 7.29667 31.1367 7.35333 30.93 7.4C30.7233 7.44 30.5167 7.47333 30.31 7.5C30.11 7.52667 29.9267 7.54667 29.76 7.56C29.5933 7.57333 29.46 7.58 29.36 7.58C29.0333 7.58 28.73 7.55667 28.45 7.51C28.1633 7.46333 27.93 7.41667 27.75 7.37C27.7767 7.65 27.83 7.92667 27.91 8.2C27.9833 8.47333 28.0933 8.72 28.24 8.94C28.3867 9.15333 28.57 9.32667 28.79 9.46C29.01 9.59333 29.2733 9.66 29.58 9.66C29.6933 9.66 29.8233 9.64667 29.97 9.62C30.1167 9.59333 30.26 9.55 30.4 9.49C30.5467 9.43 30.6767 9.36 30.79 9.28C30.91 9.20667 31.0033 9.11667 31.07 9.01C31.15 8.92333 31.2433 8.88 31.35 8.88C31.45 8.88 31.5367 8.91667 31.61 8.99C31.6833 9.06333 31.72 9.14667 31.72 9.24C31.72 9.33333 31.69 9.41 31.63 9.47C31.5167 9.63667 31.3633 9.78 31.17 9.9C30.9767 10.0133 30.7633 10.11 30.53 10.19C30.3033 10.2633 30.0733 10.3167 29.84 10.35C29.6067 10.3833 29.3967 10.4 29.21 10.4C28.6633 10.4 28.1533 10.3033 27.68 10.11C27.2133 9.91667 26.8067 9.65333 26.46 9.32C26.1133 8.98 25.84 8.58333 25.64 8.13C25.4467 7.67 25.35 7.17667 25.35 6.65C25.35 6.07 25.4333 5.55333 25.6 5.1C25.7733 4.64667 26.02 4.26333 26.34 3.95C26.66 3.63667 27.05 3.4 27.51 3.24C27.9633 3.08 28.4733 3 29.04 3C29.58 3.02 30.0433 3.11 30.43 3.27C30.8233 3.43 31.1433 3.65333 31.39 3.94C31.6433 4.22 31.83 4.56 31.95 4.96C32.07 5.36 32.13 5.80667 32.13 6.3C32.13 6.41333 32.13 6.50333 32.13 6.57C32.1233 6.63667 32.12 6.68 32.12 6.7ZM41.07 3.15C41.07 3.24333 41.04 3.32333 40.98 3.39C40.92 3.45667 40.8433 3.49333 40.75 3.5C40.6633 3.52 40.58 3.53333 40.5 3.54C40.4133 3.54667 40.3233 3.55333 40.23 3.56C40.2033 3.68667 40.16 3.86667 40.1 4.1C40.04 4.32667 39.9733 4.59 39.9 4.89C39.82 5.18333 39.7367 5.50333 39.65 5.85C39.5633 6.19667 39.47 6.55 39.37 6.91C39.2767 7.27 39.18 7.62667 39.08 7.98C38.98 8.34 38.8833 8.67667 38.79 8.99C38.6967 9.31 38.6067 9.59667 38.52 9.85C38.4333 10.11 38.3567 10.3233 38.29 10.49C38.1033 10.9367 37.8833 11.3733 37.63 11.8C37.37 12.2267 37.0733 12.6067 36.74 12.94C36.4 13.2733 36.0233 13.54 35.61 13.74C35.1967 13.9467 34.7433 14.05 34.25 14.05C33.9367 14.05 33.6367 14.0067 33.35 13.92C33.0633 13.8333 32.81 13.7067 32.59 13.54C32.37 13.3733 32.1933 13.1667 32.06 12.92C31.9333 12.68 31.87 12.3967 31.87 12.07C31.87 11.8633 31.8967 11.66 31.95 11.46C32.01 11.2533 32.0933 11.0733 32.2 10.92C32.3133 10.76 32.4533 10.6333 32.62 10.54C32.78 10.44 32.97 10.39 33.19 10.39C33.3633 10.39 33.5233 10.42 33.67 10.48C33.8167 10.5467 33.9433 10.6333 34.05 10.74C34.1633 10.8533 34.25 10.9833 34.31 11.13C34.3767 11.2767 34.41 11.4367 34.41 11.61C34.41 11.7767 34.3767 11.9333 34.31 12.08C34.25 12.2267 34.1633 12.3567 34.05 12.47C33.9433 12.5833 33.8167 12.67 33.67 12.73C33.5233 12.7967 33.3633 12.83 33.19 12.83C33.1167 12.83 33.0433 12.8233 32.97 12.81C32.9033 12.7967 32.84 12.7767 32.78 12.75C32.88 12.8833 33 12.99 33.14 13.07C33.2733 13.15 33.42 13.19 33.58 13.19C33.78 13.19 33.9733 13.13 34.16 13.01C34.34 12.89 34.51 12.7333 34.67 12.54C34.8367 12.3467 34.9867 12.1333 35.12 11.9C35.26 11.66 35.3833 11.4233 35.49 11.19C35.6033 10.95 35.7 10.7267 35.78 10.52C35.8667 10.3067 35.9333 10.1333 35.98 10C36.02 9.9 36.0567 9.79333 36.09 9.68C36.1233 9.56667 36.16 9.45 36.2 9.33C35.7 8.64333 35.3 8.00667 35 7.42C34.7 6.82667 34.4667 6.29 34.3 5.81C34.1333 5.33 34.02 4.91333 33.96 4.56C33.9067 4.20667 33.8733 3.92667 33.86 3.72C33.6867 3.72 33.5133 3.71667 33.34 3.71C33.1667 3.70333 32.9933 3.69 32.82 3.67C32.7267 3.66333 32.65 3.62667 32.59 3.56C32.53 3.49333 32.5 3.41333 32.5 3.32C32.5 3.22 32.5367 3.13333 32.61 3.06C32.6833 2.99333 32.7667 2.96 32.86 2.96H32.9C33.06 2.98 33.2233 2.99333 33.39 3C33.5567 3.00667 33.7267 3.01 33.9 3.01C34.16 3.01 34.4267 3 34.7 2.98C34.9733 2.96 35.25 2.92667 35.53 2.88C35.55 2.87333 35.57 2.87 35.59 2.87C35.69 2.87 35.7767 2.91 35.85 2.99C35.9167 3.06333 35.95 3.14667 35.95 3.24C35.95 3.32 35.9233 3.39333 35.87 3.46C35.81 3.53333 35.7367 3.57667 35.65 3.59C35.4633 3.61667 35.28 3.64 35.1 3.66C34.9267 3.68 34.7533 3.69667 34.58 3.71C34.5867 3.87667 34.6133 4.10667 34.66 4.4C34.7067 4.69333 34.7967 5.04333 34.93 5.45C35.0633 5.85667 35.2533 6.31333 35.5 6.82C35.7467 7.32667 36.07 7.87333 36.47 8.46C36.5967 8.02 36.7233 7.56 36.85 7.08C36.9833 6.6 37.1067 6.13667 37.22 5.69C37.34 5.24333 37.4467 4.83333 37.54 4.46C37.6333 4.08667 37.7067 3.78667 37.76 3.56C37.6667 3.55333 37.5733 3.54667 37.48 3.54C37.38 3.53333 37.28 3.52 37.18 3.5C37.0933 3.49333 37.02 3.45667 36.96 3.39C36.8933 3.32333 36.86 3.24333 36.86 3.15C36.86 3.04333 36.9 2.95667 36.98 2.89C37.06 2.82333 37.1433 2.79 37.23 2.79H37.27C37.55 2.82333 37.83 2.84667 38.11 2.86C38.39 2.87333 38.6733 2.88 38.96 2.88C39.2467 2.88 39.53 2.87333 39.81 2.86C40.0967 2.84667 40.3833 2.82333 40.67 2.79H40.71C40.8167 2.79 40.9033 2.82667 40.97 2.9C41.0367 2.97333 41.07 3.05667 41.07 3.15ZM47.61 6.43V6.31C47.61 5.97 47.5733 5.65333 47.5 5.36C47.4267 5.07333 47.3133 4.81667 47.16 4.59C47 4.36333 46.7967 4.17667 46.55 4.03C46.3033 3.88333 46.0067 3.78667 45.66 3.74C45.42 3.76667 45.21 3.83333 45.03 3.94C44.8567 4.04 44.7067 4.16667 44.58 4.32C44.4533 4.47333 44.35 4.64667 44.27 4.84C44.1833 5.02667 44.1167 5.22333 44.07 5.43C44.0233 5.63 43.99 5.83333 43.97 6.04C43.9433 6.24 43.93 6.43 43.93 6.61C43.9967 6.63 44.0867 6.65333 44.2 6.68C44.3133 6.70667 44.44 6.73333 44.58 6.76C44.72 6.78667 44.8733 6.80667 45.04 6.82C45.2067 6.84 45.3833 6.85 45.57 6.85C45.9567 6.85 46.32 6.81333 46.66 6.74C47 6.66667 47.3167 6.56333 47.61 6.43ZM48.31 6.7C48.2967 6.81333 48.2333 6.91333 48.12 7C48 7.08667 47.8533 7.16333 47.68 7.23C47.5133 7.29667 47.3233 7.35333 47.11 7.4C46.9033 7.44 46.7 7.47333 46.5 7.5C46.3 7.52667 46.1167 7.54667 45.95 7.56C45.7833 7.57333 45.65 7.58 45.55 7.58C45.2167 7.58 44.91 7.55667 44.63 7.51C44.35 7.46333 44.12 7.41667 43.94 7.37C43.9667 7.65 44.02 7.92667 44.1 8.2C44.1733 8.47333 44.2833 8.72 44.43 8.94C44.5767 9.15333 44.76 9.32667 44.98 9.46C45.2 9.59333 45.4633 9.66 45.77 9.66C45.8833 9.66 46.0133 9.64667 46.16 9.62C46.3067 9.59333 46.45 9.55 46.59 9.49C46.73 9.43 46.86 9.36 46.98 9.28C47.1 9.20667 47.1933 9.11667 47.26 9.01C47.34 8.92333 47.4333 8.88 47.54 8.88C47.6333 8.88 47.7167 8.91667 47.79 8.99C47.8633 9.06333 47.9 9.14667 47.9 9.24C47.9 9.33333 47.87 9.41 47.81 9.47C47.7033 9.63667 47.5533 9.78 47.36 9.9C47.16 10.0133 46.9467 10.11 46.72 10.19C46.4933 10.2633 46.2633 10.3167 46.03 10.35C45.7967 10.3833 45.5833 10.4 45.39 10.4C44.8433 10.4 44.3367 10.3033 43.87 10.11C43.4033 9.91667 42.9967 9.65333 42.65 9.32C42.3033 8.98 42.03 8.58333 41.83 8.13C41.63 7.67 41.53 7.17667 41.53 6.65C41.53 6.07 41.6167 5.55333 41.79 5.1C41.9633 4.64667 42.21 4.26333 42.53 3.95C42.85 3.63667 43.2367 3.4 43.69 3.24C44.15 3.08 44.6633 3 45.23 3C45.77 3.02 46.2333 3.11 46.62 3.27C47.0133 3.43 47.3333 3.65333 47.58 3.94C47.8333 4.22 48.02 4.56 48.14 4.96C48.26 5.36 48.32 5.80667 48.32 6.3C48.32 6.41333 48.3167 6.50333 48.31 6.57C48.31 6.63667 48.31 6.68 48.31 6.7Z" fill="black"/>
</svg>
