<svg width="65.447" height="17.384" viewBox="0 0 65.447 17.384" xmlns="http://www.w3.org/2000/svg"><path transform="translate(0 13.788) scale(.0068359 -.0068359)" d="m420 1147v-574h287q59 0 111 22.5t91 61.5 61.5 91.5 22.5 111.5-22.5 111.5-61.5 91.5-91 61.5-111 22.5zm0-1147h-287v1434h574q79 0 152-20.5t136.5-58 116-90 90-116.5 58-137 20.5-152q0-74-18.5-144t-53-133-84.5-116-112-92l159-375h-305l-125 289-321-2z"/><path transform="translate(9.126 13.788) scale(.0068359 -.0068359)" d="m426 1362q0-38-14.5-71t-39.5-57.5-58.5-39-71.5-14.5-71.5 14.5-58 39-39 57.5-14.5 71q0 37 14.5 70.5t39 58 58 39 71.5 14.5 71.5-14.5 58.5-39 39.5-58 14.5-70.5zm-47-1362h-275v1071h275z"/><path transform="translate(12.428 13.788) scale(.0068359 -.0068359)" d="m866 545q0 56-21.5 108.5t-58.5 93-86.5 65-105.5 24.5-105.5-19-86-56-57.5-91.5-21-124.5q0-67 21-120.5t57.5-91.5 86-58.5 105.5-20.5 105.5 24.5 86.5 65 58.5 93 21.5 108.5zm275-410q0-113-43-212t-117.5-173-174-117-212.5-43l-137 2v273l135-2q64 0 109 16.5t76 45 49.5 65.5 29.5 78q-16-26-46-42.5t-66.5-27-76-14.5-73.5-4q-113 0-212.5 39t-174 111.5-117.5 177.5-43 237q0 121 43 225t117.5 180 174 119 212.5 43q52 0 103-13t99-36 91.5-54 81.5-67l106 127h66z"/><path transform="translate(20.938 13.788) scale(.0068359 -.0068359)" d="m377 0h-273v1497h273v-473q49 37 101 52.5t106 15.5q99 0 186-37.5t151.5-103 102-153 37.5-186.5v-612h-275v612h2q0 42-16 79.5t-44 65.5-65 44-79 16q-43 0-81-16t-66-44-44-65.5-16-79.5z"/><path transform="translate(28.711 13.788) scale(.0068359 -.0068359)" d="m641 0q-99 0-186 37.5t-152.5 103-103 152.5-37.5 186v318h-133v272h133v428h272v-428h414v-272h-414v-318q0-43 16-80.5t44-65.5 66-44.5 81-16.5h207v-272z"/><path transform="translate(34.843 13.788) scale(.0068359 -.0068359)" d="m530 262q16-5 32-6.5t32-1.5q40 0 77 11t69.5 31.5 58 50 41.5 65.5l200-201q-38-54-87.5-97t-107-73-121-45.5-130.5-15.5q-113 0-212.5 42t-174 117-117.5 178.5-43 227.5q0 127 43 232t117.5 179 174 115 212.5 41q67 0 131-16t121.5-46 107.5-73.5 88-97.5zm140 563q-19 7-37.5 9t-38.5 2q-56 0-105.5-20.5t-86-58.5-57.5-91.5-21-120.5q0-15 1.5-34t5-38.5 8.5-37.5 13-32z"/><path transform="translate(42.137 13.788) scale(.0068359 -.0068359)" d="m1139 545q0-120-43-223.5t-117-179-173.5-119-213.5-43.5q-113 0-212.5 43.5t-174 119-117.5 179-43 223.5q0 122 43 226t117.5 179.5 174 118.5 212.5 43q114 0 213.5-40.5t173.5-115 117-179 43-232.5zm-275 0q0 66-21.5 119.5t-58.5 92-86.5 59-105.5 20.5-105.5-20.5-86-59-57.5-92-21-119.5q0-62 21-115t57.5-92 86-61.5 105.5-22.5 105.5 21 86.5 59 58.5 92 21.5 119z"/><path transform="translate(50.244 13.788) scale(.0068359 -.0068359)" d="m891 125q-33-30-70.5-56.5t-78.5-46-84.5-31-88.5-11.5q-99 0-186 35t-152.5 99.5-103 157-37.5 207.5v592h272v-592q0-54 16.5-96.5t44.5-71.5 65.5-44 80.5-15q42 0 79.5 19.5t65.5 51.5 44 72.5 16 83.5v592h273v-1071h-66z"/><path transform="translate(58.112 13.788) scale(.0068359 -.0068359)" d="m692 0h-624v272h624q28 0 48 20t20 48q0 29-20 38t-48 9h-284q-71 0-133 27t-108 73.5-72.5 108.5-26.5 133 26.5 133 72.5 108 108 72.5 133 26.5h553v-272h-553q-28 0-48-20t-20-48q0-29 20-49.5t48-20.5h284q70 0 132-23.5t108-65.5 73-101 27-129q0-71-27-132.5t-73-108-108-73-132-26.5z"/></svg>