<svg width="37.844" height="16.058" viewBox="0 0 37.844 16.058" xmlns="http://www.w3.org/2000/svg"><path transform="translate(0 12.756) scale(.0068359 -.0068359)" d="m543 186q-18 66-30 120.5t-21 107-17 107.5-18 122q89 34 157 77t114 98 69.5 124.5 23.5 155.5q0 7-2.5 31t-8 50-14 46-20.5 20-34-17-48.5-42.5-55-56-52.5-58.5q-28-85-60.5-182t-65.5-198.5-66-202-62.5-191.5-54-167.5-41.5-129.5q-26-4-55-5-25-2-58-1t-68 6l-6 10q12 22 36 85.5t56.5 153 69.5 197.5 74.5 219.5 72.5 218.5 62.5 195 45 148 19.5 78q0 11-6 20-38-3-74-9t-65-16q-13-5-28-16.5t-28-28.5-21.5-37.5-8.5-41.5q0-13 2-32.5t8-39.5l-12-12q-51 37-81 77.5t-30 75.5q0 20 13.5 44t33.5 44.5 43 34.5 41 14q62 0 136-5t157-5q18 0 32 0t27 0.5 26.5 1 31.5 2.5l6-10q-9-25-28-79t-44-128q30 38 65 78t69.5 73 64.5 54.5 51 21.5q23 0 47-16.5t43.5-44 32-64.5 12.5-77q0-106-30-189.5t-82-147-122-110-151-78.5q6-41 14.5-90.5t18.5-105 23-116 28-122.5q22-85 43-142t43-95 45.5-61.5 49.5-41.5l-13-26q-36 6-82 21.5t-91.5 51-86 96.5-65.5 158z"/><path transform="translate(6.5078 12.756) scale(.0068359 -.0068359)" d="m2 520q24 58 59 104.5t77 79 89 49.5 95 17q21 0 46.5-11.5t47.5-31.5 36.5-48.5 14.5-62.5q0-29-7-66.5t-18-77-24-78.5-25-71.5-21.5-55.5-13.5-31q-24-59-59-105t-77-78.5-88.5-49.5-94.5-17q-21 0-46.5 11t-47.5 31.5-36.5 48.5-14.5 62q0 30 7 67.5t18 77 24 78.5 25 71 21 55.5 13 31.5zm277 195q-23 0-49.5-40.5t-53-103.5-51-137.5-43-143.5-30-121.5-11.5-70.5q0-29 11-42t30-13q17 0 36 23.5t39 62.5 39.5 90 37.5 105.5 33.5 108.5 27 100 18 79.5 6.5 46.5q0 29-11 42.5t-29 13.5z"/><path transform="translate(10.302 12.756) scale(.0068359 -.0068359)" d="m143 10q15 35 37.5 95t46.5 130 48 143 42.5 134 30.5 102.5 12 49.5q0 14-8 14-10 0-31.5-21.5t-47.5-53-53-66.5-48-62q-21-61-44-126t-44.5-128-39.5-120-30-101q-11-2-24-3-23-3-60-3-17 0-36 1.5t-37 4.5l-7 10q5 10 17.5 41t29 75 36 98 38.5 110 37 110 31.5 99 22 76.5 8.5 42.5-2.5 17-4.5 11q-3 4-6 8v15q23 14 54 25t60 18q33 8 69 14l4-6q0-12-5-38t-11.5-56-14-59.5-12.5-47.5q29 39 59 77.5t58 69 51.5 49.5 40.5 19q7 0 23.5-6t33.5-18 30.5-31 14.5-45q0-9-10-41t-23-72q31 39 62.5 77t60 68 53 49 41.5 19q7 0 25-6.5t37-20 33.5-34 15.5-49.5q0-10-14-46t-34.5-86-44.5-109-44.5-116-34.5-106-14-80q0-12 2.5-17.5t11.5-5.5q11 1 33 11.5t51 31.5 62.5 51.5 66.5 71.5l22-20q-42-53-94-100.5t-103-83.5-96-57-73-21q-5 0-13 4t-16 13-14 25-6 40q0 12 3 30.5t7 38 8 36 6 24.5q9 35 25.5 78.5t35.5 90.5 39 93.5 36 87 26 71 10 46.5q0 14-8 14-9 0-31-20t-48.5-49-55-62.5-51.5-61.5q-28-90-50-160t-40-127-33-104.5-27-93.5q-11-2-24-3-23-3-60-3-17 0-36 1.5t-37 4.5z"/><path transform="translate(16.393 12.756) scale(.0068359 -.0068359)" d="m559 264q-44-53-94.5-102.5t-99-87.5-90.5-61-70-23q-6 0-15 5.5t-12 10.5q-11 20-15.5 50.5t-4.5 56.5q0 8 2.5 22.5t5.5 30.5q-33-35-68.5-67.5t-68-57.5-58-40-37.5-15q-8 0-13.5 6t-10 16-7 21-3.5 22q-3 35 2.5 76.5t15.5 84.5 22.5 84.5 24.5 76 21 58.5 12 32q4 12 13.5 28.5t21.5 33 24.5 32 24.5 27.5q22 21 57 45t76.5 47 85.5 45 83.5 38 70.5 26 47 10q14 0 24.5-1t16.5-3l2-5q-11-14-27-48t-35-79-39-99-39.5-109-36.5-107.5-30.5-95.5-21-72.5-7.5-38.5q0-18 15-18 10 1 32 11.5t51 31.5 62.5 51.5 67.5 71.5zm-491-133q8 0 21 9t28 23 32 32.5 33 37.5q10 35 22.5 77t26.5 86 29 88 29.5 83.5 27.5 72 23 54.5q-16-5-42-14.5t-58-34.5q-27-21-51-63t-44-94.5-36.5-108.5-28-104-17.5-82-6-41q0-8 1.5-14.5t9.5-6.5z"/><path transform="translate(20.385 12.756) scale(.0068359 -.0068359)" d="m14 0q-11-2-24-3-23-3-60-3-17 0-36 1.5t-37 4.5l-7 10q5 10 17.5 41t29 75 36 98 38.5 110 37 110 31.5 99 22 76.5 8.5 42.5-2.5 17-4.5 11q-3 4-6 8v15q23 14 54 25t60 18q33 8 69 14l4-6q0-12-5-39t-12-58-14.5-60.5-11.5-47.5q31 39 63 78.5t61.5 70.5 54.5 50.5 42 19.5q7 0 24.5-6.5t36.5-20 33.5-34 15.5-49.5q0-10-14-46t-34.5-86-44.5-109-44.5-116-34.5-106-14-80q0-12 2.5-17.5t11.5-5.5q11 1 33 11.5t51 31.5 62.5 51.5 66.5 71.5l23-20q-42-53-94.5-100.5t-103.5-83.5-96-57-73-21q-5 0-13 4t-16 13-14 25-6 40q0 12 3 30.5t7 38 8.5 36 6.5 24.5q9 35 25.5 78.5t35.5 90.5 39 93.5 36 87 26 71 10 46.5q0 14-8 14-10 0-34.5-22t-54-54.5-59.5-68-51-62.5q-21-61-44-125.5t-44-127-38.5-118.5-29.5-100z"/><path transform="translate(24.63 12.756) scale(.0068359 -.0068359)" d="m23-14q-22 0-44 14.5t-40 37-29.5 49.5-11.5 52q0 30 7.5 68t19 79 25.5 81 26.5 73.5 22 57.5 13.5 32q20 48 62.5 93t93 80 102 56 90.5 21q32 0 52-35t20-88q0-27-12.5-53t-32-49-42-43-42.5-35l-209-160q-18-68-29.5-120.5t-11.5-71.5q0-29 8-44t33-15q53 0 110 52.5t111 168.5l29-19q-27-63-62.5-115t-76.5-89-87.5-57.5-94.5-20.5zm264 737q-20 0-43-31t-46-80.5-45-112-40-124.5l170 135q12 43 22 84.5t10 62.5q0 11-1.5 22.5t-4.5 21.5-8.5 16-13.5 6z"/><path transform="translate(27.891 12.756) scale(.0068359 -.0068359)" d="m283 786q21 0 36-14.5t24-37.5 10.5-53-5.5-60q-8-36-31.5-58.5t-49.5-35.5q-30-15-66-23 21 40 26.5 68t5.5 53q0 10-1.5 20.5t-5 19.5-9.5 15-14 6q-9 0-21.5-6.5t-24-18.5-19-28.5-7.5-36.5q0-8 8-32t19.5-58.5 25-75.5 25-82 19.5-79 8-66-18-55.5-45-52.5-59.5-46.5-62-37.5-51-25-27.5-9q-9 0-24 2.5t-25 8.5q-11 6-23 21t-23.5 35-21 43-14.5 44l123 111q8-48 21-85 6-16 13-31.5t16-27.5 20-19 24-7q20 0 30.5 17.5t10.5 43.5q0 8-7.5 36.5t-19.5 66.5-25 81.5-25 81-19.5 64.5-7.5 33q0 17 6.5 43t20.5 45q5 7 23 25t42.5 40.5 52.5 46.5 55.5 44 50 33 36.5 13z"/><path transform="translate(30.721 12.756) scale(.0068359 -.0068359)" d="m94 66q53 0 110 52.5t111 168.5l29-19q-27-63-62.5-115t-76.5-89-87.5-57.5-94.5-20.5q-22 0-44 15t-40 38-29.5 49.5-11.5 50.5q0 30 7 68t18 79 24 81 25 73.5 21 57.5 13 32q20 48 59 93t87.5 80 101 56 100.5 21q16 0 31-9.5t27-26 19-39 7-48.5q0-39-11.5-66t-28.5-45.5-37.5-29-39-16-32-7-17.5-1.5q11 21 18 45t11.5 46.5 6 41.5 1.5 32q0 11-1.5 22.5t-4.5 21.5-8.5 16-13.5 6q-17 0-36-22.5t-38-60.5-38-87-36-102-31.5-105.5-25.5-97-17-77.5-6-46q0-29 11.5-44t29.5-15z"/><path transform="translate(34.05 12.756) scale(.0068359 -.0068359)" d="m2 520q24 58 59 104.5t77 79 89 49.5 95 17q21 0 46.5-11.5t47.5-31.5 36.5-48.5 14.5-62.5q0-29-7-66.5t-18-77-24-78.5-25-71.5-21.5-55.5-13.5-31q-24-59-59-105t-77-78.5-88.5-49.5-94.5-17q-21 0-46.5 11t-47.5 31.5-36.5 48.5-14.5 62q0 30 7 67.5t18 77 24 78.5 25 71 21 55.5 13 31.5zm277 195q-23 0-49.5-40.5t-53-103.5-51-137.5-43-143.5-30-121.5-11.5-70.5q0-29 11-42t30-13q17 0 36 23.5t39 62.5 39.5 90 37.5 105.5 33.5 108.5 27 100 18 79.5 6.5 46.5q0 29-11 42.5t-29 13.5z"/></svg>