<svg width="44" height="11" viewBox="0 0 44 11" fill="none" xmlns="http://www.w3.org/2000/svg">
<path d="M0.7 0.92L0.5 0H3.54C4.18667 0 4.77 0.0800003 5.29 0.24C5.81667 0.406667 6.23 0.693333 6.53 1.1C6.83667 1.51333 6.99 2.08333 6.99 2.81C6.99 3.18333 6.9 3.54333 6.72 3.89C6.54 4.23667 6.30333 4.53667 6.01 4.79C5.71667 5.05 5.39333 5.23667 5.04 5.35L7.9 10.19H6.38L3.75 5.61H2V10.19H0.7V0.92ZM3.54 0.96H2V4.66H3.12C3.58667 4.66 4.01 4.60667 4.39 4.5C4.77 4.39333 5.07 4.2 5.29 3.92C5.51667 3.64 5.63 3.24333 5.63 2.73C5.63 2.33 5.53 2 5.33 1.74C5.13667 1.48667 4.88 1.29333 4.56 1.16C4.24667 1.02667 3.90667 0.96 3.54 0.96ZM11.14 10.37C10.46 10.37 9.89 10.2 9.43 9.86C8.97 9.52 8.62333 9.07333 8.39 8.52C8.16333 7.97333 8.05 7.38667 8.05 6.76C8.05 6.29333 8.12 5.84 8.26 5.4C8.4 4.95333 8.60667 4.55667 8.88 4.21C9.14667 3.85667 9.48 3.57667 9.88 3.37C10.2733 3.16333 10.7233 3.06 11.23 3.06C11.9167 3.06 12.4933 3.23 12.96 3.57C13.42 3.90333 13.7633 4.34667 13.99 4.9C14.2233 5.44667 14.34 6.04 14.34 6.68C14.34 7.15333 14.27 7.61333 14.13 8.06C13.99 8.5 13.7867 8.89333 13.52 9.24C13.2533 9.58667 12.92 9.86 12.52 10.06C12.1267 10.2667 11.6667 10.37 11.14 10.37ZM11.16 9.49C11.52 9.49 11.8267 9.40333 12.08 9.23C12.3267 9.05667 12.5267 8.83 12.68 8.55C12.8333 8.27 12.9433 7.97 13.01 7.65C13.07 7.33 13.1 7.02 13.1 6.72C13.1 6.41333 13.07 6.09667 13.01 5.77C12.95 5.45 12.85 5.15333 12.71 4.88C12.57 4.6 12.3767 4.37667 12.13 4.21C11.8833 4.03667 11.5767 3.95 11.21 3.95C10.85 3.95 10.5467 4.03667 10.3 4.21C10.0533 4.37667 9.85333 4.6 9.7 4.88C9.55333 5.16 9.44667 5.46333 9.38 5.79C9.31333 6.11 9.28 6.42 9.28 6.72C9.28 7.00667 9.31333 7.31333 9.38 7.64C9.44667 7.96 9.55333 8.26 9.7 8.54C9.84 8.82 10.0333 9.04667 10.28 9.22C10.52 9.4 10.8133 9.49 11.16 9.49ZM18.37 3.06C18.6833 3.06 18.9967 3.1 19.31 3.18C19.6233 3.26 19.91 3.38333 20.17 3.55L19.77 4.45C19.5633 4.28333 19.3333 4.15667 19.08 4.07C18.8267 3.99 18.58 3.95 18.34 3.95C17.9933 3.95 17.6933 4.02667 17.44 4.18C17.18 4.34 17.05 4.58 17.05 4.9C17.05 5.12 17.1033 5.30667 17.21 5.46C17.3167 5.60667 17.46 5.73333 17.64 5.84C17.82 5.94 18.01 6.04 18.21 6.14C18.4433 6.25333 18.68 6.37 18.92 6.49C19.16 6.60333 19.38 6.74333 19.58 6.91C19.78 7.07 19.9433 7.26333 20.07 7.49C20.1967 7.72333 20.26 8.00667 20.26 8.34C20.26 8.80667 20.1467 9.19333 19.92 9.5C19.6867 9.8 19.3867 10.02 19.02 10.16C18.6533 10.3 18.2533 10.37 17.82 10.37C17.4467 10.37 17.0733 10.32 16.7 10.22C16.3267 10.1133 15.9833 9.96667 15.67 9.78L16.16 8.93C16.38 9.09667 16.63 9.23333 16.91 9.34C17.19 9.44 17.46 9.49 17.72 9.49C18.08 9.49 18.39 9.40667 18.65 9.24C18.9167 9.07333 19.05 8.82 19.05 8.48C19.05 8.24667 18.98 8.05333 18.84 7.9C18.6933 7.74667 18.5067 7.61 18.28 7.49C18.06 7.37 17.8267 7.25333 17.58 7.14C17.3 7 17.0267 6.84667 16.76 6.68C16.5 6.52 16.2833 6.31333 16.11 6.06C15.9433 5.80667 15.86 5.48333 15.86 5.09C15.86 4.64333 15.98 4.27 16.22 3.97C16.46 3.67667 16.77 3.45333 17.15 3.3C17.53 3.14 17.9367 3.06 18.37 3.06ZM24.51 3.06C25.25 3.06 25.8067 3.26333 26.18 3.67C26.5533 4.07 26.74 4.63333 26.74 5.36V8.85C26.74 9.04333 26.7767 9.17333 26.85 9.24C26.9233 9.31333 27.0133 9.35 27.12 9.35C27.2 9.35 27.2867 9.34 27.38 9.32C27.4733 9.29333 27.5633 9.26 27.65 9.22L27.9 9.98C27.7533 10.0667 27.5633 10.1433 27.33 10.21C27.1033 10.2833 26.87 10.32 26.63 10.32C26.3833 10.32 26.1633 10.25 25.97 10.11C25.7767 9.97667 25.6567 9.72667 25.61 9.36C25.3367 9.65333 25.0167 9.89 24.65 10.07C24.29 10.25 23.91 10.34 23.51 10.34C22.9567 10.34 22.4967 10.1767 22.13 9.85C21.77 9.52333 21.59 9.07667 21.59 8.51C21.59 7.97667 21.7167 7.55333 21.97 7.24C22.23 6.92 22.5633 6.68 22.97 6.52C23.3833 6.36 23.82 6.25333 24.28 6.2C24.7467 6.14667 25.18 6.12 25.58 6.12V5.37C25.58 5.11 25.5467 4.87667 25.48 4.67C25.4133 4.45667 25.2967 4.28667 25.13 4.16C24.9633 4.03333 24.7267 3.97 24.42 3.97C24.06 3.97 23.7167 4.04 23.39 4.18C23.0633 4.32 22.7367 4.52667 22.41 4.8L21.84 3.97C22.22 3.66333 22.64 3.43667 23.1 3.29C23.56 3.13667 24.03 3.06 24.51 3.06ZM25.58 7.47V7.03C25.3267 7.03 25.04 7.04 24.72 7.06C24.4067 7.08667 24.1 7.14333 23.8 7.23C23.5 7.31667 23.2533 7.46 23.06 7.66C22.8733 7.85333 22.78 8.12333 22.78 8.47C22.78 8.77667 22.8833 9.00333 23.09 9.15C23.3033 9.29 23.5667 9.36 23.88 9.36C24.22 9.36 24.5167 9.26667 24.77 9.08C25.0167 8.89333 25.2133 8.65667 25.36 8.37C25.5067 8.08333 25.58 7.78333 25.58 7.47ZM28.57 3.26L29.83 3.11C30.0033 3.51667 30.1133 3.95 30.16 4.41C30.4 4.02333 30.7267 3.71 31.14 3.47C31.5467 3.23 31.98 3.11 32.44 3.11L32.16 4.34C31.7133 4.34 31.3333 4.45667 31.02 4.69C30.7067 4.92333 30.4267 5.21667 30.18 5.57V10.19H29.02V5.15C29.02 4.96333 29.0067 4.75333 28.98 4.52C28.9533 4.28667 28.9067 4.05667 28.84 3.83C28.7733 3.61 28.6833 3.42 28.57 3.26ZM35.36 0.89C35.36 1.12333 35.28 1.32667 35.12 1.5C34.9533 1.66667 34.75 1.75 34.51 1.75C34.2767 1.75 34.08 1.66667 33.92 1.5C33.7533 1.32667 33.67 1.12333 33.67 0.89C33.67 0.656667 33.7533 0.456667 33.92 0.29C34.08 0.123333 34.2767 0.04 34.51 0.04C34.7433 0.04 34.9433 0.123333 35.11 0.29C35.2767 0.456667 35.36 0.656667 35.36 0.89ZM33.78 3.23H35.11V10.19H33.95V4.06L33.78 3.23ZM40 10.37C39.32 10.37 38.7467 10.2 38.28 9.86C37.82 9.52 37.4767 9.07333 37.25 8.52C37.0167 7.97333 36.9 7.38667 36.9 6.76C36.9 6.29333 36.97 5.84 37.11 5.4C37.25 4.95333 37.4567 4.55667 37.73 4.21C38.0033 3.85667 38.3367 3.57667 38.73 3.37C39.13 3.16333 39.58 3.06 40.08 3.06C40.7733 3.06 41.35 3.23 41.81 3.57C42.27 3.90333 42.6167 4.34667 42.85 4.9C43.0767 5.44667 43.19 6.04 43.19 6.68C43.19 7.15333 43.12 7.61333 42.98 8.06C42.84 8.5 42.6367 8.89333 42.37 9.24C42.1033 9.58667 41.7733 9.86 41.38 10.06C40.98 10.2667 40.52 10.37 40 10.37ZM40.01 9.49C40.3767 9.49 40.6833 9.40333 40.93 9.23C41.1767 9.05667 41.3767 8.83 41.53 8.55C41.6833 8.27 41.7933 7.97 41.86 7.65C41.9267 7.33 41.96 7.02 41.96 6.72C41.96 6.41333 41.93 6.09667 41.87 5.77C41.81 5.45 41.71 5.15333 41.57 4.88C41.43 4.6 41.2367 4.37667 40.99 4.21C40.7367 4.03667 40.43 3.95 40.07 3.95C39.7033 3.95 39.3967 4.03667 39.15 4.21C38.9033 4.37667 38.7067 4.6 38.56 4.88C38.4067 5.16 38.2967 5.46333 38.23 5.79C38.17 6.11 38.14 6.42 38.14 6.72C38.14 7.00667 38.17 7.31333 38.23 7.64C38.2967 7.96 38.4033 8.26 38.55 8.54C38.6967 8.82 38.89 9.04667 39.13 9.22C39.37 9.4 39.6633 9.49 40.01 9.49Z" fill="black"/>
</svg>
