<svg width="57" height="11" viewBox="0 0 57 11" fill="none" xmlns="http://www.w3.org/2000/svg">
<path d="M3.3 10.58H0.78V2.92L0.5 1.51L0.78 0.67H5.26C5.94 0.67 6.55333 0.773333 7.1 0.98C7.64667 1.19333 8.08 1.55 8.4 2.05C8.72667 2.55 8.89 3.23667 8.89 4.11C8.89 4.90333 8.74333 5.54667 8.45 6.04C8.16333 6.52667 7.76333 6.89333 7.25 7.14L7.39 7.29L8.77 9.03L9.57 9.74V10.58H6.42L4.46 7.6H3.3V8.33L3.44 9.73L3.3 10.58ZM3.16 2.91L3.3 5.4H4.67C5.15667 5.4 5.54333 5.31 5.83 5.13C6.12333 4.94333 6.27 4.60333 6.27 4.11C6.27 3.76333 6.2 3.50333 6.06 3.33C5.92 3.16333 5.72667 3.05 5.48 2.99C5.23333 2.93667 4.94667 2.91 4.62 2.91H3.16ZM13.37 10.72C12.23 10.72 11.3467 10.45 10.72 9.91C10.0933 9.37 9.78 8.49333 9.78 7.28C9.78 6.05333 10.0933 5.17333 10.72 4.64C11.3467 4.1 12.23 3.83 13.37 3.83C14.5367 3.83 15.42 4.1 16.02 4.64C16.62 5.17333 16.92 6.05333 16.92 7.28C16.92 8.49333 16.62 9.37 16.02 9.91C15.42 10.45 14.5367 10.72 13.37 10.72ZM13.37 8.9C13.75 8.9 14.0133 8.75667 14.16 8.47C14.3133 8.19 14.39 7.79333 14.39 7.28C14.39 6.75333 14.3133 6.35 14.16 6.07C14.0133 5.79 13.75 5.65 13.37 5.65C12.9767 5.65 12.7033 5.79 12.55 6.07C12.3967 6.35 12.32 6.75333 12.32 7.28C12.32 7.79333 12.3967 8.19 12.55 8.47C12.7033 8.75667 12.9767 8.9 13.37 8.9ZM22.27 10.58H19.33L17.41 5.79L17.13 3.97H19.79L20.7 8.34H20.98L22.05 3.97H24.83L25.88 8.34H26.16L27.09 3.97H29.73L29.45 5.79L27.52 10.58H24.58L23.57 6.07H23.29L22.27 10.58ZM32.6 10.72C32.16 10.72 31.74 10.6067 31.34 10.38C30.9333 10.16 30.5967 9.80667 30.33 9.32C30.07 8.83333 29.94 8.2 29.94 7.42C29.94 6.54667 30.07 5.85 30.33 5.33C30.5833 4.81 30.9167 4.43 31.33 4.19C31.7367 3.95 32.16 3.83 32.6 3.83C33.2667 3.83 33.7367 3.88667 34.01 4C34.2833 4.11333 34.42 4.17 34.42 4.17L34.28 1.52L34.42 0.68H36.96V8.34L37.24 9.74L36.96 10.59H34.56V9.91L34.42 9.84C34.42 9.84 34.35 9.91 34.21 10.05C34.07 10.1967 33.8667 10.3467 33.6 10.5C33.3267 10.6467 32.9933 10.72 32.6 10.72ZM33.65 8.75L34.42 8.55V6.51C34.42 6.29 34.35 6.11667 34.21 5.99C34.07 5.87 33.8833 5.81 33.65 5.81C33.3033 5.81 33.0433 5.92333 32.87 6.15C32.69 6.37667 32.6 6.75333 32.6 7.28C32.6 7.79333 32.7033 8.16667 32.91 8.4C33.1167 8.63333 33.3633 8.75 33.65 8.75ZM41.67 1.77L39.9 3.57L38.12 1.77L39.9 0L41.67 1.77ZM41.16 10.58H38.64V5.95L38.34 4.83L38.62 3.97H41.16V10.58ZM45.94 10.72C45.2267 10.72 44.59 10.6133 44.03 10.4C43.47 10.1867 43.03 9.82667 42.71 9.32C42.39 8.81333 42.23 8.13333 42.23 7.28C42.23 6.66 42.3367 6.13 42.55 5.69C42.7567 5.25667 43.04 4.9 43.4 4.62C43.7533 4.34667 44.15 4.14667 44.59 4.02C45.0233 3.89333 45.4733 3.83 45.94 3.83C46.7467 3.83 47.3667 3.91 47.8 4.07C48.2333 4.23 48.52 4.35667 48.66 4.45L49.36 6.67L49.08 7.54H44.74C44.8067 7.88667 44.98 8.17667 45.26 8.41C45.54 8.64333 46 8.76 46.64 8.76C47.1467 8.76 47.5833 8.70333 47.95 8.59C48.31 8.47667 48.5933 8.38 48.8 8.3V10.17C48.52 10.3233 48.1167 10.4533 47.59 10.56C47.0633 10.6667 46.5133 10.72 45.94 10.72ZM44.75 6.65L46.69 6.37L46.56 5.76C46.4933 5.72667 46.3967 5.7 46.27 5.68C46.1433 5.66 46.0333 5.65 45.94 5.65C45.68 5.65 45.4633 5.70667 45.29 5.82C45.1167 5.93333 44.9867 6.06667 44.9 6.22C44.8133 6.37333 44.7633 6.51667 44.75 6.65ZM53.27 10.72C52.5833 10.72 51.98 10.65 51.46 10.51C50.94 10.37 50.5333 10.2267 50.24 10.08V8.13C50.6267 8.29667 51.0233 8.42667 51.43 8.52C51.83 8.61333 52.1933 8.67667 52.52 8.71C52.8467 8.74333 53.08 8.76 53.22 8.76C53.38 8.76 53.4933 8.73333 53.56 8.68C53.6267 8.63333 53.66 8.57 53.66 8.49C53.66 8.39 53.5767 8.30333 53.41 8.23C53.2367 8.16333 52.9167 8.07333 52.45 7.96C52.07 7.86667 51.7 7.75 51.34 7.61C50.98 7.46333 50.6867 7.26 50.46 7C50.2333 6.73333 50.12 6.38333 50.12 5.95C50.12 5.40333 50.2433 4.97667 50.49 4.67C50.7433 4.36333 51.1033 4.14667 51.57 4.02C52.0367 3.89333 52.5833 3.83 53.21 3.83C53.5633 3.83 53.8933 3.85 54.2 3.89C54.5133 3.92333 54.7333 3.95 54.86 3.97L56.16 4.81L55.53 6.31L53.08 5.78C52.7867 5.78 52.64 5.87667 52.64 6.07C52.64 6.27667 52.8533 6.43 53.28 6.53C53.6133 6.61 53.96 6.69333 54.32 6.78C54.6733 6.86667 54.9967 6.98 55.29 7.12C55.5833 7.26 55.82 7.44667 56 7.68C56.1867 7.91333 56.28 8.22333 56.28 8.61C56.28 9.31667 56.0233 9.84667 55.51 10.2C55.0033 10.5467 54.2567 10.72 53.27 10.72Z" fill="black"/>
</svg>
