<svg width="104.24" height="16.59" viewBox="0 0 104.24 16.59" xmlns="http://www.w3.org/2000/svg"><path transform="translate(0 13.09) scale(.014 -.014)" d="m174 760q11 30 40.5 48t61.5 18 61.5-18 40.5-48q-21 25-48.5 40.5t-53.5 15.5-53.5-15.5-48.5-40.5zm124-75q8 21 29.5 37.5t44.5 15.5q22 0 42.5-17.5t27.5-39.5q-14 18-33.5 25.5t-37.5 7.5q-18 1-38-5.5t-35-23.5zm-144 0q7 19 25.5 34.5t38.5 15.5 38.5-15.5 25.5-34.5q-13 15-30.5 20.5t-33.5 5.5-33.5-5.5-30.5-20.5zm304-6q13 15 36 23.5t41 1.5q19-7 31-28t12-41q-7 19-21.5 30t-29.5 17q-15 5-33 6t-36-9zm-388-74q-8 15-9 35.5t10 32.5q11 13 31.5 15.5t35.5-3.5q-17 0-28.5-8.5t-20.5-18.5q-8-10-15-23.5t-4-29.5zm521 21q28 2 57-12.5t41-39.5 5.5-57-25.5-52q11 26 9.5 52t-11.5 46q-10 21-29.5 38.5t-46.5 24.5zm-596-248q-35 13-56 47.5t-21 72.5q0 37 21 71.5t56 47.5q-29-24-48-56.5t-19-62.5q0-31 19-63.5t48-56.5zm75 48q-24 9-42.5 32.5t-18.5 49.5q0 25 18.5 48.5t42.5 32.5q-20-16-28.5-38.5t-8.5-42.5q0-21 8.5-43.5t28.5-38.5zm649 156q33-10 54-41.5t22-66.5q2-35-16-68t-51-47q26 24 42 55t15 59-19.5 58-46.5 51zm-429-173q3 7 9 14-5 1-9 2 6 1 12 2 16 19 37 24 2 3 4 5-3 15 3.5 31.5t17.5 29.5q0 6-2 12 3-4 5-9 5 5 11 9-5-7-8-15 6-15 6.5-32t-7.5-30q1-2 1-4 14-7 24.5-20t14.5-27q-9 13-24 20 10-13 24-20-30 3-52 27-2 1-6 1-5 0-10 0-14-6-31-6-12-5-20-14zm379 38q20-22 25-55.5t-9-59.5-45-40.5-60-10.5q29 6 50.5 23.5t32.5 38.5q12 21 14.5 48.5t-8.5 55.5zm-599-189q-22 8-39.5 30t-17.5 46 17.5 46 39.5 30q-18-16-25.5-36.5t-7.5-39.5 7.5-39.5 25.5-36.5zm496 14q25 2 51-11.5t36-36.5q11-23 3.5-51.5t-25.5-45.5q11 22 10 45.5t-9 41.5q-9 18-25 34.5t-41 23.5zm-496-149q-18 6-33 23.5t-15 36.5q0 18 15 35.5t33 23.5q-14-12-19-28t-5-31q0-16 5-32t19-28zm220 98q4-1 7-3-3 8-3 15 5-11 14.5-14.5t18.5-6.5 19-5 20 4q-11-21-9-43t9-40q8-17 23.5-33t38.5-22q-24-2-49 11t-34 35q-9 19-4 43.5t19 42.5q-6-6-14.5-11t-16.5-6q9-13 9-26 0-19-15-36t-33-24q14 12 19 28.5t5 31.5q0 9-1.5 18.5t-6.5 18.5q-4 5-7 12-4 6-9 10zm349-108q13-10 22-28t4-33q-5-16-22.5-26t-33.5-11q15 6 22 18.5t11 25.5q4 12 5 26t-8 28zm-489-98q-18-7-41-3.5t-36 17.5q-12 14-12 37.5t9 40.5q-3-19 4-35t18-27q10-12 24.5-21t33.5-9zm140 71q4-22-5.5-47t-29.5-36q-19-11-45.5-7t-43.5 19q21-8 41.5-4t35.5 13q16 9 29.5 24.5t17.5 37.5zm303-71q-15-21-42.5-32.5t-52.5-4.5q-25 6-43 30.5t-20 49.5q10-23 29.5-37.5t39.5-19.5q20-6 44-3.5t45 17.5zm168-6q-2-37-28-66t-61-40q-36-11-74-1.5t-60 38.5q31-20 67-28t64 0q28 9 53 36t39 61zm-531-69q-18-31-53.5-44.5t-70.5-6.5q-35 6-63 31t-34 60q17-30 44-53t55-28 61.5 6.5 60.5 34.5z"/><path transform="translate(10.108 13.09) scale(.014 -.014)" d="m2 550q7 35 37 59t65 29q36 4 71-11t51-47q-26 24-59 37.5t-61 10.5q-29-4-57-26t-47-52zm549 30q23 15 53 11t52-21 32-45.5 1-55.5q-1 28-11.5 53.5t-27.5 39.5q-18 14-45 18.5t-54-0.5zm-432-75q11 21 35 35.5t48 11.5 43.5-23 24.5-44q-13 20-32.5 30.5t-38.5 13.5q-19 2-41-3t-39-21zm297 0q6 18 23.5 33t35.5 15q19 0 36-15t24-33q-12 14-28.5 19t-31.5 5-31-5-28-19zm135 0q21 3 44.5-6.5t33.5-28.5 4.5-44-19.5-41q8 20 5 39.5t-11 34.5-22.5 28.5-34.5 17.5zm-496-92q-11 12-16.5 31.5t2.5 34.5q7 14 26.5 21t35.5 5q-16-4-25.5-15t-15.5-22q-6-12-9.5-26t2.5-29zm345-94q-26 10-45.5 36t-19.5 54 19.5 53.5 46.5 35.5q-22-18-32-42.5t-10-46.5q0-23 10-47.5t31-42.5zm-130 150q21-7 38-28t17-43-17-42.5-38-28.5q17 14 24 33.5t7 37.5-7 37.5-24 33.5zm-215-248q-26 9-45.5 34.5t-19.5 53.5 19.5 53.5 45.5 34.5q-21-18-31-42t-10-46 10-46 31-42zm559 149q18-7 33.5-25t15.5-37q0-20-15.5-37.5t-33.5-24.5q15 13 20 29.5t5 32.5q0 15-5 32t-20 30zm-262-214q-4 3-8 8-4-6-9-10 3 6 6 13-14 16-20.5 38.5t0.5 41.5q2 9 8 18-9 15-24 27.5t-35 18.5q43 2 74-30 26 21 56 22-15-6-26-15.5t-18-21.5q3-5 5-9 8-21 3.5-46t-18.5-44q3-6 6-11zm-10 81q-4-14-4-30t5-32q5 16 4 32t-5 30zm272-15q27-9 46.5-35t19.5-54q0-29-19.5-54.5t-46.5-35.5q22 18 32 42.5t10 47.5q0 22-10 46.5t-32 42.5zm-497-174q-27-1-53 15t-36 40q-10 25-1.5 54.5t28.5 47.5q-12-23-12.5-48t7.5-45 25-38 42-26zm23-101q-39-12-79 4.5t-64 48.5q-25 33-29.5 76t17.5 77q-9-40-4.5-80.5t24.5-66.5q19-26 56.5-41.5t78.5-17.5zm549 124q11-30 1-62t-34-53q-24-20-57-25.5t-61 9.5q31-5 62 1.5t50 22.5 29.5 45.5 9.5 61.5zm-376-55q-13-26-42-43t-58-13q-29 3-53 26t-31 51q16-24 40-37.5t47-16.5q23-2 49.5 5.5t47.5 27.5zm301 11q-6-23-26.5-42t-44.5-21-47 13.5-33 37.5q17-17 38-23t40-4q19 1 39 10.5t34 28.5zm-167-12q-7-17-25-31.5t-37-13.5-35 17-22 34q11-15 27-20.5t31-6.5q15 0 31.5 3.5t29.5 17.5z"/><path transform="translate(19.544 13.09) scale(.014 -.014)" d="m25 756q12 38 47 61t74 25 76-18 52-56q-26 29-61 47.5t-66 16.5q-32-1-65-22.5t-57-53.5zm35-93q4 25 23 47.5t44 27.5 51-8 40-35q-20 16-43.5 20t-42.5 0q-20-5-40-17.5t-32-34.5zm166 32q23-1 45.5-16t29.5-37-3.5-47.5-28.5-39.5q12 19 13 40.5t-4 38.5q-6 18-18.5 35t-33.5 26zm-166-176q-19 7-34.5 25.5t-15.5 38.5 15.5 38.5 34.5 25.5q-15-13-20.5-30.5t-5.5-33.5 5.5-33.5 20.5-30.5zm466 51q30 13 63 4t55-32q21-23 28.5-56.5t-6.5-62.5q3 32-4.5 63t-25.5 49q-17 18-47.5 27.5t-62.5 7.5zm-169-63q10 22 34 38t49 14 46-22 27-44q-14 20-34.5 30t-40.5 12-42-4.5-39-23.5zm-88 32q9 9 25.5 14.5t27.5-0.5q12-6 16.5-22.5t3.5-29.5q-3 13-12.5 19.5t-18.5 10.5q-9 5-19.5 9t-22.5-1zm-209-224q-28 10-48 37t-20 57 20 57 48 37q-23-19-33.5-44.5t-10.5-49.5 10.5-49.5 33.5-44.5zm467 170q21 5 46-2t37-25 9.5-44-15.5-43q6 21 0.5 40t-14.5 33q-10 15-25.5 27t-37.5 14zm-542-298q-27 10-43 36t-16 54 16 54 43 36q-22-18-35.5-42.5t-13.5-47.5 13.5-47.5 35.5-42.5zm320 174q5-4 9-9 3 7 7 13-2-10-2-18 8-11 12.5-24t3.5-24q2-2 3-4 10-14 26-25t36-12q-17-5-38.5-1t-35.5 16q-10-13-26-21.5t-32-8.5q18 7 28 21.5t15 29.5v2q-7 24 1 50-2 8-7 15zm303-6q19-6 36-24t18-38-14-39.5-34-27.5q15 14 19.5 32t4.5 34q-1 16-7.5 33.5t-22.5 29.5zm-548-248q-28 10-49 38t-21 58 21 58 49 38q-23-19-34.5-45.5t-11.5-50.5 11.5-50.5 34.5-45.5zm243 53q-3 8-4 18-5-5-10-9 7 10 5 20.5t-5 19.5q-2 9-6 19t-15 15q10-1 21.5-6t17.5-13q5 10 12 15 15 13 39.5 13t41.5-10q-20 3-36.5-4t-29.5-17q-12-10-21.5-25.5t-9.5-35.5zm310 47q18-15 27.5-40.5t2.5-46.5q-8-22-31-36.5t-46-15.5q22 9 35 25.5t19 33.5q6 18 5.5 39t-12.5 41zm-589-253q-36 7-62 37t-32 67 8.5 74 46.5 55q-24-28-37-63t-8-64q5-30 28.5-58.5t55.5-47.5zm123 61q-16-9-38-9t-36 12-17 34 4 39q0-18 9-32t20-23q11-10 25.5-17t32.5-4zm129 44q1-20-10-40.5t-29-26.5q-18-7-40 1t-34 22q17-9 34-8t31 7q15 5 28.5 15.5t19.5 29.5zm280-3q1-20-9.5-41t-28.5-29-40.5-1-36.5 21q18-9 35.5-7t32.5 9q14 6 27.5 17.5t19.5 30.5zm-131-51q-14-18-39-27t-47-2q-21 7-35.5 29.5t-15.5 45.5q9-21 25.5-34t33.5-18q17-6 38-6t40 12zm203 21q4-36-18-68t-54-47q-33-15-71.5-11t-63.5 30q33-15 68.5-18.5t61.5 8.5q27 12 47.5 41.5t29.5 64.5z"/><path transform="translate(28.798 13.09) scale(.014 -.014)" d="m61 808q16 35 52.5 53t74.5 15q39-3 72-27t43-61q-22 32-53.5 54t-61.5 24q-31 3-65.5-13.5t-61.5-44.5zm110-73q11 11 29 17t31 0q14-6 21-23.5t6-32.5q-4 14-15 21.5t-21 12.5q-11 5-24 8t-27-3zm-106-74q-5 19 1 43t23 36q17 11 41.5 9t40.5-14q-19 5-37-0.5t-31-14.5q-14-10-25-24.5t-13-34.5zm-80-188q-33 13-52 46t-18 69q0 36 20.5 68t54.5 44q-28-23-46.5-53.5t-18.5-58.5q-1-29 16-60t44-55zm273 207q10-15 11-37t-10-37q-11-14-33-18t-39 2q18 1 31 10.5t22 20.5q9 12 15.5 26.5t2.5 32.5zm-87-90q-14-13-36-18.5t-39 3.5-25 30-6 40q4-18 16.5-30t25.5-19q14-7 30.5-10t33.5 4zm-31-85q17 14 43 18.5t46-6.5q19-12 28.5-37t5.5-47q-4 22-17.5 38t-28.5 25q-16 9-36 13t-41-4zm-80-68q-7 13-7 32t10 29q10 11 28.5 12t32.5-5q-15 1-25.5-6.5t-18.5-16.5-15-19.5-5-25.5zm0-143q-19 7-34.5 25.5t-15.5 38.5 15.5 38 34.5 25q-15-13-20.5-30t-5.5-33 5.5-33.5 20.5-30.5zm203 123q22-8 39.5-30t17.5-45q0-24-17.5-46t-39.5-30q18 15 25.5 36t7.5 40-7.5 39.5-25.5 35.5zm75-16q31-11 49-41t18-62q0-33-18-63t-49-41q25 21 41 49.5t16 54.5-16 54-41 49zm-75-151q23-8 41-30.5t18-47.5q0-24-18-46.5t-41-30.5q19 15 27 36.5t8 40.5q0 20-8 41t-27 37zm-203-187q-26 9-45.5 34.5t-19.5 52.5q0 28 19.5 53.5t45.5 34.5q-21-18-31-41.5t-10-46.5q0-22 10-45.5t31-41.5zm203 16q6-13 6-31.5t-10-28.5-28.5-10-31.5 6q14-1 24.5 6t18.5 15 15 18.5 6 24.5zm-111-139q-29-17-65-12.5t-62 26.5q-27 21-39 55t-1 66q1-34 13-65.5t33-48.5 54-22 67 1zm31 75q-11-17-32.5-27.5t-41.5-5.5q-19 5-33 25t-16 40q9-18 24.5-27.5t30.5-13.5q16-4 34-3.5t34 12.5z"/><path transform="translate(33.32 13.09) scale(.014 -.014)" d="m-15 595q-22 21-26 53.5t8 59.5q13 28 40 46t57 16q-29-9-53.5-26.5t-33.5-39.5q-10-22-7.5-52t15.5-57zm139 100q7 19 25.5 34.5t38.5 15.5 38.5-16 25.5-35q-13 16-30.5 21.5t-33.5 5.5-33.5-5.5-30.5-20.5zm-64-124q-16 14-24 37.5t0 43.5q7 19 29 31t43 12q-20-7-32-21.5t-18-30.5-7-35 9-37zm199 108q24-9 42-32t18-48-18-48-42-32q19 16 27.5 38t8.5 42-8.5 42-27.5 38zm75-79q13 28 42.5 42t59.5 11q31-4 56.5-24t33.5-49q-17 25-41.5 42.5t-49.5 20.5q-24 2-51.5-10t-49.5-33zm41-105q7 23 28 42.5t46 20.5q24 2 47.5-14.5t33.5-38.5q-17 18-38.5 24.5t-41.5 4.5q-19-1-40-10t-35-29zm-315-88q-22 8-39 29.5t-17 44.5 17 44.5 39 29.5q-18-15-25-35t-7-39 7-39 25-35zm470 98q13-1 28.5-10t19.5-22q3-13-6-28.5t-20-23.5q8 12 6.5 23.5t-4.5 22.5q-2 10-7 21t-17 17zm-271-146q-12 23-10.5 52.5t18.5 49.5q6 6 13 11-6 19-21 31 19-7 34-24 37 17 74 3-18 0-34-5.5t-29-14.5q5-12 5-23 0-20-15.5-38.5t-34.5-25.5q15 13 20.5 30.5t5.5 33.5q0 3 0 6-13-16-21.5-38.5t-4.5-47.5zm284 49q13-18 15-45t-11-46-39.5-26.5-48.5-1.5q23 2 40.5 14.5t27.5 27.5q11 15 16.5 35t-0.5 42zm-483-177q-24 9-42 32t-18 48 18 48 42 32q-19-16-27.5-38t-8.5-42 8.5-42 27.5-38zm-75-92q-33 12-52.5 44.5t-19.5 67.5 19.5 67.5 52.5 44.5q-27-23-44.5-53.5t-17.5-58.5 17.5-58.5 44.5-53.5zm587 182q38 2 71-21.5t48-58.5 9.5-75-32.5-66q17 34 21.5 71.5t-7.5 65.5q-13 28-43.5 50.5t-66.5 33.5zm-108-45q23 5 49.5-3.5t39.5-28.5 10-48-17-47q7 23 2 44.5t-15 37.5q-11 16-28.5 29t-40.5 16zm-404-221q-24 9-42 32t-18 48 18 48 42 32q-19-16-27.5-38t-8.5-42 8.5-42 27.5-38zm276 58q-10-8-25.5-13t-28.5-1q7-24-1-42-8-20-30.5-31.5t-43.5-10.5q20 6 33 20.5t19 30.5q5 11 7 23t1 25q-11 19-8 41 3-13 12.5-20.5t19.5-12.5q9-6 20.5-10t24.5 1zm219 23q21 4 45-4.5t35-26.5 7-43.5-17-42.5q7 21 2.5 40t-13.5 33q-9 15-23.5 27.5t-35.5 16.5zm-89-121q-19-14-46.5-16t-46.5 12q-19 13-27 39.5t-2 49.5q2-24 14.5-41.5t28.5-27.5q15-11 36-16.5t43 0.5zm-275 0q-10-18-32-30.5t-43-8.5q-20 4-36 23t-20 40q10-18 27-27.5t34-12.5q16-3 35 0t35 16zm418 0q-7-19-25-34.5t-38-15.5-38.5 15.5-25.5 34.5q13-15 30.5-20.5t33.5-5.5 33 5.5 30 20.5zm-178-75q-11-30-40.5-48t-61.5-18-61.5 18-40.5 48q21-25 48.5-40.5t53.5-15.5 53.5 15.5 48.5 40.5z"/><path transform="translate(44.926 13.09) scale(.014 -.014)" d="m277 760q17 36 54.5 55t77.5 16 74.5-27 45.5-62q-23 32-56 54.5t-65 24.5q-31 3-67-15t-64-46zm-79-75q7 21 27 37.5t42 16.5 42.5-16.5 27.5-37.5q-14 17-33 23.5t-37 6.5q-17 0-36-6.5t-33-23.5zm155 0q11 23 36.5 39t51.5 13 47.5-24 27.5-46q-15 22-36 33t-42 13q-20 2-43-4t-42-24zm-283-56q-1 22 10.5 45.5t31.5 31.5q20 9 45 2t41-23q-20 10-40 8t-36-9-31-20.5-21-34.5zm461 33q16 11 40 13t40-10 21.5-35 0.5-42q-1 19-12 33.5t-24 24.5q-13 9-30 15t-36 1zm-461-208q-24 8-42 31t-18 48q0 26 18 49t42 31q-19-16-27.5-37.5t-8.5-42.5q0-20 8.5-41.5t27.5-37.5zm-75-20q-25 9-40 33t-15 50q0 27 15 51t40 33q-20-17-32.5-39.5t-12.5-44.5q0-21 12.5-43.5t32.5-39.5zm647 140q24-4 46-24t26-45q5-25-9.5-51t-36.5-38q17 19 21.5 42t1.5 43q-4 20-16 40t-33 33zm-266-186q-4 5-7 11-4-6-8-11 3 8 4 17-12 25-6 47-2 6-5 11-2 4-5 7-14 3-26.5 13.5t-20.5 23.5q-3 2-7 2 3 1 6 1-4 8-6 15 6-9 14-15 27-1 48-17 16-1 33 3t30 17q-5-11-15-21 15 4 29 1-19-3-31-15t-19-26q-1-2-3-4 2-21-9-42 1-10 4-18zm-306-98q-22 8-39 29.5t-17 44.5 17 44.5 39 29.5q-18-15-25-35t-7-39 7-39 25-35zm675 145q26-29 28-70t-16-74q-18-34-53.5-55t-72.5-16q37 8 69.5 28t47.5 47q14 27 13 65.5t-16 74.5zm-750-217q-32 12-51 43t-19 65 19 65 51 43q-26-22-43-51.5t-17-56.5 17-56.5 43-51.5zm671 182q13-17 16-42.5t-8-43.5q-12-19-36.5-26.5t-45.5-3.5q21 3 36.5 15.5t24.5 26.5q10 15 14.5 34t-1.5 40zm-87-124q-3-28-23-52.5t-47-31.5q-26-7-55.5 6t-44.5 35q22-16 47.5-19.5t47.5 1.5q21 6 41.5 21t33.5 40zm-509-153q-22 8-39.5 30t-17.5 45q0 24 17.5 46t39.5 30q-18-15-25.5-35.5t-7.5-40.5q0-19 7.5-39.5t25.5-35.5zm323 110q4-17-2-37.5t-20-30.5q-15-9-36-5.5t-35 14.5q17-6 31.5-1t26.5 13q12 7 22.5 18.5t12.5 28.5zm-93-75q19-7 34.5-25.5t15.5-38.5-15.5-38-34.5-25q15 13 20.5 30t5.5 33-5.5 33.5-20.5 30.5zm-178-143q-17-3-36.5 3.5t-27.5 21.5q-8 14-3.5 34t15.5 33q-6-16-2-30t11-26q6-11 16-22t27-14zm253 7q0-37-24-67.5t-59-43.5q-34-13-72.5-6t-62.5 35q32-18 68-24t64 4q27 11 50.5 39t35.5 63zm-82-6q-9-23-31-41t-47-18q-24 0-46.5 17.5t-31.5 40.5q16-19 37.5-26.5t40.5-7.5q20 0 41 8t37 27z"/><path transform="translate(54.796 13.09) scale(.014 -.014)" d="m2 550q7 35 37 59t65 29q36 4 71-11t51-47q-26 24-59 37.5t-61 10.5q-29-4-57-26t-47-52zm549 30q23 15 53 11t52-21 32-45.5 1-55.5q-1 28-11.5 53.5t-27.5 39.5q-18 14-45 18.5t-54-0.5zm-432-75q11 21 35 35.5t48 11.5 43.5-23 24.5-44q-13 20-32.5 30.5t-38.5 13.5q-19 2-41-3t-39-21zm297 0q6 18 23.5 33t35.5 15q19 0 36-15t24-33q-12 14-28.5 19t-31.5 5-31-5-28-19zm135 0q21 3 44.5-6.5t33.5-28.5 4.5-44-19.5-41q8 20 5 39.5t-11 34.5-22.5 28.5-34.5 17.5zm-496-92q-11 12-16.5 31.5t2.5 34.5q7 14 26.5 21t35.5 5q-16-4-25.5-15t-15.5-22q-6-12-9.5-26t2.5-29zm345-94q-26 10-45.5 36t-19.5 54 19.5 53.5 46.5 35.5q-22-18-32-42.5t-10-46.5q0-23 10-47.5t31-42.5zm-130 150q21-7 38-28t17-43-17-42.5-38-28.5q17 14 24 33.5t7 37.5-7 37.5-24 33.5zm-215-248q-26 9-45.5 34.5t-19.5 53.5 19.5 53.5 45.5 34.5q-21-18-31-42t-10-46 10-46 31-42zm559 149q18-7 33.5-25t15.5-37q0-20-15.5-37.5t-33.5-24.5q15 13 20 29.5t5 32.5q0 15-5 32t-20 30zm-262-214q-4 3-8 8-4-6-9-10 3 6 6 13-14 16-20.5 38.5t0.5 41.5q2 9 8 18-9 15-24 27.5t-35 18.5q43 2 74-30 26 21 56 22-15-6-26-15.5t-18-21.5q3-5 5-9 8-21 3.5-46t-18.5-44q3-6 6-11zm-10 81q-4-14-4-30t5-32q5 16 4 32t-5 30zm272-15q27-9 46.5-35t19.5-54q0-29-19.5-54.5t-46.5-35.5q22 18 32 42.5t10 47.5q0 22-10 46.5t-32 42.5zm-497-174q-27-1-53 15t-36 40q-10 25-1.5 54.5t28.5 47.5q-12-23-12.5-48t7.5-45 25-38 42-26zm23-101q-39-12-79 4.5t-64 48.5q-25 33-29.5 76t17.5 77q-9-40-4.5-80.5t24.5-66.5q19-26 56.5-41.5t78.5-17.5zm549 124q11-30 1-62t-34-53q-24-20-57-25.5t-61 9.5q31-5 62 1.5t50 22.5 29.5 45.5 9.5 61.5zm-376-55q-13-26-42-43t-58-13q-29 3-53 26t-31 51q16-24 40-37.5t47-16.5q23-2 49.5 5.5t47.5 27.5zm301 11q-6-23-26.5-42t-44.5-21-47 13.5-33 37.5q17-17 38-23t40-4q19 1 39 10.5t34 28.5zm-167-12q-7-17-25-31.5t-37-13.5-35 17-22 34q11-15 27-20.5t31-6.5q15 0 31.5 3.5t29.5 17.5z"/><path transform="translate(64.232 13.09) scale(.014 -.014)" d="m322 712q5 41 36.5 70.5t70.5 38.5q40 9 81-4t63-47q-32 24-71 36.5t-71 5.5q-31-8-60.5-36t-48.5-64zm77-18q10 27 35.5 46.5t53.5 19.5 53.5-19.5 35.5-45.5q-18 21-42 31t-47 10q-22 0-46.5-10t-42.5-32zm195 0q24-8 43.5-30.5t20.5-48.5q1-25-16-49.5t-41-34.5q19 17 26.5 40t6.5 43q-1 21-10.5 42.5t-29.5 37.5zm-316-181q8 16 26 28.5t36 10.5q4 0 7-2-16 23-16 47 0 26 18.5 49.5t42.5 32.5q-20-17-28.5-39t-8.5-43 8.5-43 28.5-39q-4 2-8 3 6-9 8-19-10 15-25 21t-29 8q-15 2-31-0.5t-29-14.5zm-135-22q3 19 17 37t33 22 39-7.5 30-28.5q-15 12-32 13.5t-32-1.5-30-11-25-24zm-169-161q-24 24-28.5 60t10.5 67q14 31 44 51t64 18q-33-9-60.5-29t-38.5-44q-12-25-9-58.5t18-64.5zm627 185q28-10 49-38t21-58-21-58-49-38q23 19 34.5 45.5t11.5 50.5-11.5 50.5-34.5 45.5zm-553-201q-21 21-27 54.5t7 59.5 43 41.5 59 12.5q-29-7-49.5-25t-31.5-40q-10-21-11.5-48.5t10.5-54.5zm628 117q40-14 62.5-53t22.5-81-22.5-81-62.5-53q32 27 53.5 63.5t21.5 70.5-21.5 70.5-53.5 63.5zm-409-231q9 15 28 26.5t37 8.5q6-1 12-4-9 15-9 30v4q-18-5-39 1.5t-35 19.5q19-8 37.5-6t33.5 9q11 5 19 11 7 9 16 16 9 11 13 26 1-9-1-19 4 2 8 4-5-4-9-9-4-20-17-35-2-11-2-22 0-17 6-35t22-32q-8 3-15 8 6-11 8-23-9 16-23.5 23t-29.5 10q-14 2-30 0.5t-30-12.5zm334 111q25-9 44.5-34t19.5-52-19.5-52-44.5-34q21 17 30.5 40.5t9.5 45.5-9.5 45.5-30.5 40.5zm-546-153q-21 7-38.5 25.5t-18.5 40.5q-1 21 14 41.5t35 29.5q-16-15-21-34t-4-36 8-35.5 25-31.5zm75-123q-19-5-42.5 2t-35.5 24q-11 17-8.5 41t14.5 41q-5-20 0-37.5t14-31.5 23.5-25.5 34.5-13.5zm471 88q12-16 15-40.5t-8-41.5-34.5-24-43.5-2q20 2 34.5 14t23.5 25q9 14 14 31.5t-1 37.5zm-205-69q1-19-10-40t-29-29q-18-7-40.5 0.5t-35.5 22.5q17-10 34.5-8t32.5 8q14 5 28 16.5t20 29.5zm118-39q-10-14-29.5-23.5t-36.5-4.5-28.5 23.5-12.5 35.5q7-16 20.5-24t26.5-12q14-4 29.5-4.5t30.5 9.5zm-250-9q-9-17-29-29t-39-9q-19 4-33.5 22t-18.5 37q10-17 25.5-24.5t30.5-10.5 32.5-1 31.5 15zm-8-76q-13-20-38-29.5t-48-4.5q-24 5-43 24t-22 43q11-22 29.5-37.5t37.5-19.5 42 2.5 42 21.5zm203 10q-10-30-38.5-49.5t-59.5-21.5q-32-1-62 15.5t-43 45.5q22-23 50.5-37.5t53.5-13.5q26 2 52.5 19t46.5 42z"/><path transform="translate(73.486 13.09) scale(.014 -.014)" d="m322 712q5 41 36.5 70.5t70.5 38.5q40 9 81-4t63-47q-32 24-71 36.5t-71 5.5q-31-8-60.5-36t-48.5-64zm77-18q10 27 35.5 46.5t53.5 19.5 53.5-19.5 35.5-45.5q-18 21-42 31t-47 10q-22 0-46.5-10t-42.5-32zm195 0q24-8 43.5-30.5t20.5-48.5q1-25-16-49.5t-41-34.5q19 17 26.5 40t6.5 43q-1 21-10.5 42.5t-29.5 37.5zm-316-181q8 16 26 28.5t36 10.5q4 0 7-2-16 23-16 47 0 26 18.5 49.5t42.5 32.5q-20-17-28.5-39t-8.5-43 8.5-43 28.5-39q-4 2-8 3 6-9 8-19-10 15-25 21t-29 8q-15 2-31-0.5t-29-14.5zm-135-22q3 19 17 37t33 22 39-7.5 30-28.5q-15 12-32 13.5t-32-1.5-30-11-25-24zm-169-161q-24 24-28.5 60t10.5 67q14 31 44 51t64 18q-33-9-60.5-29t-38.5-44q-12-25-9-58.5t18-64.5zm627 185q28-10 49-38t21-58-21-58-49-38q23 19 34.5 45.5t11.5 50.5-11.5 50.5-34.5 45.5zm-553-201q-21 21-27 54.5t7 59.5 43 41.5 59 12.5q-29-7-49.5-25t-31.5-40q-10-21-11.5-48.5t10.5-54.5zm628 117q40-14 62.5-53t22.5-81-22.5-81-62.5-53q32 27 53.5 63.5t21.5 70.5-21.5 70.5-53.5 63.5zm-409-231q9 15 28 26.5t37 8.5q6-1 12-4-9 15-9 30v4q-18-5-39 1.5t-35 19.5q19-8 37.5-6t33.5 9q11 5 19 11 7 9 16 16 9 11 13 26 1-9-1-19 4 2 8 4-5-4-9-9-4-20-17-35-2-11-2-22 0-17 6-35t22-32q-8 3-15 8 6-11 8-23-9 16-23.5 23t-29.5 10q-14 2-30 0.5t-30-12.5zm334 111q25-9 44.5-34t19.5-52-19.5-52-44.5-34q21 17 30.5 40.5t9.5 45.5-9.5 45.5-30.5 40.5zm-546-153q-21 7-38.5 25.5t-18.5 40.5q-1 21 14 41.5t35 29.5q-16-15-21-34t-4-36 8-35.5 25-31.5zm75-123q-19-5-42.5 2t-35.5 24q-11 17-8.5 41t14.5 41q-5-20 0-37.5t14-31.5 23.5-25.5 34.5-13.5zm471 88q12-16 15-40.5t-8-41.5-34.5-24-43.5-2q20 2 34.5 14t23.5 25q9 14 14 31.5t-1 37.5zm-205-69q1-19-10-40t-29-29q-18-7-40.5 0.5t-35.5 22.5q17-10 34.5-8t32.5 8q14 5 28 16.5t20 29.5zm118-39q-10-14-29.5-23.5t-36.5-4.5-28.5 23.5-12.5 35.5q7-16 20.5-24t26.5-12q14-4 29.5-4.5t30.5 9.5zm-250-9q-9-17-29-29t-39-9q-19 4-33.5 22t-18.5 37q10-17 25.5-24.5t30.5-10.5 32.5-1 31.5 15zm-8-76q-13-20-38-29.5t-48-4.5q-24 5-43 24t-22 43q11-22 29.5-37.5t37.5-19.5 42 2.5 42 21.5zm203 10q-10-30-38.5-49.5t-59.5-21.5q-32-1-62 15.5t-43 45.5q22-23 50.5-37.5t53.5-13.5q26 2 52.5 19t46.5 42z"/><path transform="translate(82.74 13.09) scale(.014 -.014)" d="m116 770q17 29 50.5 41.5t66.5 5.5q33-6 59.5-30t31.5-57q-16 29-41 50.5t-52 27.5q-26 5-57.5-6t-57.5-32zm-56-131q-4 15 0 34t16 28q13 9 32 6t32-12q-15 4-27.5-1.5t-22.5-12.5-19.5-17-10.5-25zm147 56q14 4 32 1.5t27-13.5 7-29.5-10-30.5q3 14-3 25t-13 20-16 17.5-24 9.5zm-147-232q-24 9-42 32t-18 48 18 48 42 32q-19-16-27.5-38t-8.5-42 8.5-42 27.5-38zm203 144q28-10 48-37t20-57-20-57-48-37q23 19 33.5 44.5t10.5 49.5-10.5 49.5-33.5 44.5zm-278-412q-39 14-61.5 52t-22.5 80 22.5 80 61.5 52q-32-27-53-63t-21-69 21-69 53-63zm75 108q-21 8-38 28.5t-17 43.5 17 43.5 38 28.5q-17-15-24-34.5t-7-37.5 7-37.5 24-34.5zm203 100q28-10 49-38t21-58-21-58-49-38q23 19 34.5 45.5t11.5 50.5-11.5 50.5-34.5 45.5zm75-72q32-12 51-43t19-65-19-65-51-43q26 22 43 51.5t17 56.5-17 56.5-43 51.5zm-278-196q-22 8-40 30t-18 46 18 46 40 30q-18-15-26-36t-8-40 8-40 26-36zm203 60q20-7 36-26t16-40-16-40-36-26q16 13 22 31t6 35-6 35-22 31zm-163-180q-18 0-37 9.5t-25 26.5q-7 16 1 36.5t21 31.5q-9-15-7-31t7-29 14-25.5 26-18.5zm163 32q-3-24-20.5-45.5t-40.5-26.5q-24-5-49 7.5t-37 32.5q19-15 40.5-17.5t39.5 1.5q19 4 37.5 15.5t29.5 32.5zm74-33q2-29-15.5-54.5t-43.5-36.5q-26-12-56.5-8t-50.5 25q26-13 54-15.5t49 7.5q21 9 38 31.5t25 50.5z"/><path transform="translate(87.262 13.09) scale(.014 -.014)" d="m441 571q25 18 58.5 15.5t58.5-20.5q26-18 38.5-49t4.5-61q-2 31-15 59t-34 43q-20 14-50.5 17.5t-60.5-4.5zm-148-56q15 23 44 37t57 9q27-6 48.5-30.5t25.5-52.5q-14 25-35.5 40t-43.5 19q-22 5-48 0t-48-22zm-145-41q1 21 15 42.5t34 27.5q21 6 44-3.5t36-26.5q-18 11-37.5 11.5t-35.5-4.5-32-16-24-31zm-180-207q-29 25-36 66t7 77q14 37 46.5 62.5t70.5 24.5q-36-13-66.5-37t-41.5-53-5-67.5 25-72.5zm513 203q22 7 48.5 0t40.5-25q13-18 12-45.5t-13-46.5q5 22-1 42.5t-18 35.5q-11 14-28.5 26t-40.5 13zm-431-141q-16 20-19 49.5t10 50.5q14 21 41.5 31.5t52.5 4.5q-25-3-44-17.5t-29-31.5q-11-17-15.5-40t3.5-47zm208 2q2 10 8 21-3 4-5 8 3-3 6-6 7 12 17 20.5t21 9.5q14 3 29-5t25-19q2 2 4 5-1-4-2-7 3-5 6-9-4 3-8 5-7-13-19-23.5t-26-10.5q-12-1-24 6.5t-20 18.5q-7-6-12-14zm51 30q-8-2-16.5-4.5t-16.5-7.5q9-4 18.5-5t18.5 0q11 0 22 2.5t20 9.5q-11 6-23 6t-23-1zm264-23q15-15 22-39t-1-43q-9-19-31.5-30t-43.5-10q20 6 33 20t20 29q7 16 9 35t-8 38zm-503-212q-29 7-52.5 31.5t-27.5 54.5q-3 29 14 58.5t43 42.5q-20-21-28-48t-5-50q3-24 17-48t39-41zm-29-91q-32-1-59 20t-38 51q-11 29-5 62.5t30 54.5q-15-28-20-59t4-55 33.5-44 54.5-30zm237 96q1 5 3 9-7 1-13 4 8-1 15 2 15 35 47 49 4 10 3 21 4-8 6-18 4 1 9 2 4 0 8 0-5 8-8 16 8-10 19-16 19-4 37-16 11-2 22-2 19 0 40.5 7.5t36.5 26.5q-8-22-29-39.5t-44-18.5q1-3 3-6-3 3-7 6-25 0-48 18-14 2-27 0-6-1-11-2-2-14-9-21-8-9-21-12t-26-1q-3-4-6-9zm171 21q13 12 34.5 18t37.5-2 24-28.5 6-38.5q-4 18-16 28.5t-25 16.5q-13 7-29 10t-32-4zm-231-137q-22-16-53-17.5t-53 13.5q-22 16-32 45.5t-3 55.5q3-27 17-48t31-33q18-12 42.5-17.5t50.5 1.5zm323 73q4-22-5.5-46.5t-28.5-36.5q-20-11-46-6.5t-43 18.5q21-7 41-3.5t36 12.5q15 9 28.5 24.5t17.5 37.5zm79-21q8-36-10.5-72t-50.5-56q-32-19-72-20t-70 23q36-12 73.5-11t63.5 17q25 16 43 49t23 70zm-218-53q-10-27-36.5-47t-55.5-20q-29 1-55.5 21t-36.5 47q19-22 44-32.5t48-11.5q23 0 48 10.5t44 32.5z"/><path transform="translate(95.984 13.09) scale(.014 -.014)" d="m205 583q18 36 56.5 54t77.5 14q40-5 74-30t44-64q-23 33-55 56.5t-64 27.5q-32 3-68-13.5t-65-44.5zm24-72q10 22 33 38.5t47 15.5 45.5-20 28.5-43q-15 20-35.5 29t-39.5 10-40.5-5.5-38.5-24.5zm-155-76q-3 24 8.5 50.5t33.5 38.5 50.5 6.5 46.5-21.5q-23 9-45.5 6t-40.5-12q-17-10-32-27t-21-41zm324 63q20 14 48 16.5t48-11.5q20-13 28-40t3-50q-3 24-16 42t-29 28q-16 11-37.5 16.5t-44.5-1.5zm-337-201q-18 7-33 25.5t-14 38.5 17 37.5 34 23.5q-15-12-21-29t-6-33q-1-15 4-32.5t19-30.5zm469 101q-5-24-24-44.5t-43-24.5q-8-1-17 0 11-19 13-39-8 17-20 29.5t-25 20.5q-2 1-3 2-15 9-31 13-10 2-21 3-4-13-12-24.5t-19-15.5q-16-5-34 3.5t-28 20.5q7-4 15-6 17 24 47 36.5t58 5.5q23-6 42-25 16-2 32 0 19 3 38.5 13.5t31.5 31.5zm-210-57q8 3 16 7t14 10q-17 0-35-5.5t-33-16.5q10-2 19.5 0t18.5 5zm-353-244q-30 13-47 44t-15 64 21.5 62.5 51.5 39.5q-26-20-44-48t-19-54 13.5-55.5 38.5-52.5zm507 186q19 6 43 1t36-20q12-16 11-40.5t-12-41.5q5 20-1.5 37t-16.5 30-25 23-35 11zm-365-138q9 18 27 31-4 1-8 3-28 13-44.5 43.5t-13.5 61.5q8-30 27-51.5t41-31.5q15-7 31-10 10 2 19 1 6 0 11-2 25 1 47 12-12-13-30-21 30-19 38-52-12 19-31 28t-38 11q-18 2-38.5-2.5t-37.5-20.5zm499 106q33-18 47.5-56t8.5-75q-7-37-33-67.5t-64-37.5q33 19 57.5 48t29.5 59-8 65.5-38 63.5zm-54-85q15-24 14-56t-18-54q-18-22-49-30t-58 1q28 1 51 13.5t37 30.5q14 17 21 42.5t2 52.5zm-437-125q-18-7-42-2.5t-36 20.5q-13 15-12 39t11 41q-4-19 2.5-36t16.5-29q10-13 25-23t35-10zm60-99q-34-23-77.5-18.5t-76.5 29.5q-33 24-50 64.5t-6 79.5q3-41 19-79t42-57q27-20 68-24.5t81 5.5zm81 64q-11-17-32.5-28.5t-41.5-6.5q-20 4-34.5 23.5t-17.5 39.5q9-18 25-27t32-13 34.5-2 34.5 14zm170 16q-6-23-26-43.5t-45-22.5q-24-3-48 12t-35 37q17-17 39-22.5t42-3.5q19 3 39.5 13t33.5 30z"/></svg>