<svg width="67.326" height="16.59" viewBox="0 0 67.326 16.59" xmlns="http://www.w3.org/2000/svg"><path transform="translate(0 13.09) scale(.014 -.014)" d="m315 495v-45h90v45zm270-225 45 45v45l45 45v45l45-45-45-45v-45l-45-45zm0-90v90l45-45v-90zm-540-180v720h450l45-45h90v-45l45-45v-45l45-45v-45h-45v45l-45 45v45l-45 45h-90v45h-405v-630h180v135l45 45h90v-135l45-45h225l-45 45v45h45v-45l45-45-45-45h-270v45l-45 45v90h-45v-135l-45-45zm270 405-45 45v90h135l45-45v-90z"/><path transform="translate(10.108 13.09) scale(.014 -.014)" d="M270 180V495H315V180H360V495H405V135H315ZM90 0V45L45 90V135L0 180V495H45V180L90 135V90L135 45H180V0H270L315 45H585V495H630V45L585 0H315V-45H180L135 0Z"/><path transform="translate(19.544 13.09) scale(.014 -.014)" d="m270 495v180h45v-135h180l-45-45zm270-90v45l-45 45v45h45v-45l45-45h45v-45zm45-90v90l45-45v-45zm0-90v90l45-45v-45zm0-90v90l45-45v-45zm-315 0v180l45 45h90v-180l-45-45zm-225-90v630h45v-630h135l45 45h45v-45l45-45h90v45h90l45 45v45l45-45-45-45v-45h-90l-45-45h-135v45l-45 45v-45h-180zm270 135h45v135h-45z"/><path transform="translate(28.798 13.09) scale(.014 -.014)" d="m270 630v90l45-45v-45zm0-270v90l45-45v-45zm0-90v90l45-45v-45zm0-90v90l45-45v-45zm0-90v90l45-45v-45zm-225-90v720l45 45h225v-45h-225v-135h135v45h45l45-45h-45l-45-45h45l45-45v-45h-45v45h-180v-450h180v45l45-45-45-45z"/><path transform="translate(33.32 13.09) scale(.014 -.014)" d="m90 45h180v45l45 45h45v-90h270l-45 45h-45v90h-45v45l-45 45 45 45v45l45 45v45h45v45h-225v-90h-45l-45 45v225h-180zm-45-45v720h225l45-45v-135h270l45-45v-90h-45l-45-45v-45l-45-45 45-45h45v-90h45v-45l45-45-45-45h-315v45l-45-45z"/><path transform="translate(44.926 13.09) scale(.014 -.014)" d="m270 540v90l45-45v-45zm0-90v90l45-45v-45zm-225 0v270h225l45-45v-45h-45v45h-180v-180zm225-90v90l45-45v-45zm0-90v90l45-45v-45zm0-90v90l45-45v-45zm0-90v90l45-45v-45zm-225-90v450l45-45v-360h180v45l45-45-45-45z"/><path transform="translate(50.078 13.09) scale(.014 -.014)" d="m270 315v90h225v45h-45l-45 45h90l45-45h45v-45h-45l45-45h-135v-45h45l45-45h45v-45h-90v45h-45l-45 45zm270-180v90l45-45v-45zm0-45v45l45-45zm-540-45v90l45 45h90l-45 45h-45v45l-45 45v90l45 45v45h90v-45h-45l-45-45v-90l45-45h45v-45h135l45-45-45-45h-225v-45h45v-45h90l45-45h135v45h135l45 45v-90h-135l-45-45h-180v45h-90l-45 45z"/><path transform="translate(58.338 13.09) scale(.014 -.014)" d="m450 450v45h135v-45l45-45h-45l-45 45zm135-135v45l45-45zm-225-135v135l-45 45v-180zm-270-180v45l-45 45v45l-45 45v180l45 45v45l45 45h90l-45-45h-45v-45l-45-45v-180l45-45v-45l45-45h90v-45h180l45 45h45v45h45l45 45v-90h-45l-45-45h-45v-45h-225l-45 45zm495 225v45l45-45zm0-90v45l45-45zm-315 45v180l45 45h45v-45l45-45v-180h-90z"/></svg>