<svg width="104.65" height="16.59" viewBox="0 0 104.65 16.59" xmlns="http://www.w3.org/2000/svg"><path transform="translate(0 13.09) scale(.014 -.014)" d="m85 123q-36 0-48 13t0 26 48 13q-18 0-29 15.5t-14.5 38.5 0 46.5 14.5 39 29 15.5q-25 0-38 16.5t-13 37.5 13 37.5 38 16.5q-34 0-45.5 13t0 26 45.5 13q-35 0-46.5 10t0 19.5 46.5 9.5q-35 0-46.5 12t0 24 46.5 12q-32 0-42.5 15t0 30 42.5 15q-16 23-9 39t24.5 16.5 33.5-22.5q0 39 15 51.5t30 0 15-51.5q0 29 14 43t32 14 32-14 14-43q0 24 13.5 35.5t30.5 11.5 30.5-11.5 13.5-35.5q3 23 24.5 32t47.5 5.5 44-17.5 15-37q15 36 31 43t22-9.5-8-52.5q13 13 32.5 5.5t37-25.5 24-38-6.5-33q26 6 41.5-2.5t19-23-7-28.5-36.5-20q18-5 22-26.5t-3-47-21.5-42-32.5-11.5q19-22 12.5-43t-23.5-31q6-15-24-27 19-1 34-15t22-33.5 2-38.5-25-31q30 17 46.5 14.5t13.5-16-29-30.5q23 12 38 2.5t14.5-28-24.5-35.5q0-20-14.5-32t-35.5-16-42 0-35.5 16-14.5 32q-9-20-27-23.5t-36 4.5-27 24.5 0 35.5q-19-8-34.5-1.5t-23.5 21.5-5.5 31.5 18.5 27.5q-20-9-40.5 5t-29.5 36q-7-4-16-4 5-18-4.5-35.5t-33.5-17.5q20 0 30-11t10-25-10-24.5-30-10.5q15-20 10-34.5t-20.5-16-30.5 17.5q0-24-15.5-37t-38-13.5-44.5 14-37 46-14 83.5zm190 318q20 0 28.5-14.5t7.5-27.5q16 12 43 12.5t42-10.5q-1 17 11 37.5t27 26.5q-13 5-7 15-19-5-30.5 9t-3.5 32q-12-6-29.5-6t-32.5 5.5-19 16.5q2-20-12-24 1-10-5-19t-20-9q19 0 25.5-11t0-22-25.5-11z"/><path transform="translate(10.108 13.09) scale(.014 -.014)" d="m165 29q-11-13-27-10t-29.5 15-18.5 27.5 6 27.5q-18-7-30.5-1.5t-17.5 17 0.5 24.5 23.5 20q-21-2-32.5 9t-13 27 8 29 30.5 15q-20 0-30 15t-10 35 10 35 30 15q-23 0-30.5 10t0 20 30.5 10q-25 0-33.5 13t0 26 33.5 13q-22 5-30 19t-4.5 28.5 17 23 35.5 3.5q0 18 14.5 28.5t36 14 42.5 0 35.5-14 14.5-28.5q20 12 35 3t17-26.5-18-29.5q13 0 19.5-12t6.5-28-6.5-28-19.5-12q15 0 23-13t8-30-8-30.5-23-13.5q15 1 23.5-10t9-26.5-6.5-26.5q18 2 40.5-7t35.5-23q4 11 12.5 19.5t18.5 10.5q-15 8-10.5 24t27.5 16q-14 0-21.5 18t-7.5 41.5 7.5 41 21.5 17.5q-20 0-26.5 11t0 22 26.5 11q-15 2-21.5 15t-4.5 29 11 27.5 25 9.5q0 22 11.5 33t26 11 26-11 11.5-33q0 23 13 30.5t26 0 13-30.5q8 15 21 17t24.5-4.5 16-19-4.5-27.5q20 0 30-10t10-23.5-10-24-30-10.5q25 0 33-13.5t0-27.5-33-14q16 0 24-17.5t8-40.5-8-40.5-24-17.5q20 0 29.5-14.5t9.5-33.5-9.5-33-29.5-14q12-3 15-19.5t-1.5-37-14-34.5-21.5-11q0-26-14-34.5t-28 0-14 34.5q0-25-14.5-33.5t-29.5-0.5-15 34q-7-21-18-27t-19.5 1-7.5 24q-8-16-29.5-21t-40.5 2.5-19 27.5q1-14-14-23.5t-40.5-11.5-55.5 5-58 27z"/><path transform="translate(19.544 13.09) scale(.014 -.014)" d="m387 17q-8-18-26-21t-37.5 4.5-31.5 21.5q-7-9-19.5-11.5t-26.5 8.5q-4-28-16-36t-22 2-6 36q-3-16-21.5-24t-42-7.5-41 9.5-17.5 26q-21-4-30 6t-5 23 25 17q-29 0-39 10t0 20 39 10q-14 0-22 14.5t-11 36 0 43 11 36 22 14.5q-19 0-29 19.5t-10 44.5 10 44.5 29 19.5q-21 0-31 13.5t-10 30.5 10 30.5 31 13.5q-16 0-23.5 20t-7.5 46 7.5 46 23.5 20q-16 0-24.5 12t-8.5 28 8.5 28 24.5 12q0 16 16 25t37.5 9 38-8 16.5-24q0 19 12.5 28.5t29 10 29-9 12.5-29.5q26-1 34-14t-1.5-25-34.5-11q19 0 28.5-12t9.5-28-9.5-28-28.5-12q17 0 25.5-6.5t9.5-14.5q17 0 32-10.5t13-26.5q5 13 25.5 20.5t45 8.5 43-6 19.5-22q9 12 29.5 5.5t41-23 31.5-34.5 2-30q20 4 34.5-12t20-40-0.5-44.5-26-25.5q17 0 25-14.5t8-33.5-9-33-26-14q16-5 18.5-24t-4-41-19.5-36-28-9q11-13 7.5-27t-15-24.5-25.5-12.5-26 10q5-21-7.5-34t-33.5-17-43.5 4-38.5 29zm-129 261q15 0 20-7t0-14-20-7q10 1 15.5-9t6-22.5-5.5-19.5q11 2 25.5-4.5t28-17.5 20.5-21q0 14 17 31t30 17q-10 7-11.5 23.5t5 30.5 19.5 13q-9 1-15 14t-8 28.5 3 24.5q-10-5-21 1.5t-13 17.5q-8-12-23.5-12.5t-23.5 10.5q-1-8-6-11t-12 1q5-11-1.5-23t-18.5-13q17-5 14-18.5t-25-12.5z"/><path transform="translate(28.798 13.09) scale(.014 -.014)" d="m75 661q-21 5-29 18t-4.5 25.5 16.5 19.5 35 1q0 15 14 23.5t35 11.5 42.5 0 35.5-11.5 14-23.5q21 3 33-8.5t15-29-5.5-32.5-28.5-18q5-12-6.5-23.5t-30-19-35-7-20.5 12.5q0-16-12-23t-28-1.5-28 26-13 59.5zm-5-634q-16 0-25 15t-12.5 37 0 44 12.5 36.5 25 14.5q-20 0-30 16.5t-10 37.5 10 37.5 30 16.5q-17 0-27 15t-13.5 37 0 44 13.5 36.5 27 14.5q-18 0-26.5 10.5t-9 24 8.5 23.5 27 10q0 18 12.5 26.5t29 8 28.5-9.5 12-27q0 15 11 22t26 7 26.5-7 11.5-22q15 12 26.5 7t13-17-13.5-24q18 0 26.5-17t8.5-39-8.5-38.5-26.5-16.5q16 0 24-17t8-39-8-39-24-17q12 0 19.5-15.5t10-39 0-46.5-10-38.5-19.5-15.5q22-4 27-19.5t-5-29-32-9.5q0-25-10-33.5t-20 0-10 33.5q0-21-19.5-32t-46-10.5-46.5 11.5-21 33z"/><path transform="translate(33.32 13.09) scale(.014 -.014)" d="m70 95q-29 0-39 12t0 24 39 12q-20 0-30 13.5t-10 30.5 10 30.5 30 13.5q-17 0-27.5 16t-14 39 0 46 14 39 27.5 16q-13 0-21.5 14.5t-11 36 0 43 11 36 21.5 14.5q-20 0-30 14.5t-10 33.5 10 33.5 30 14.5q-24-2-33.5 12t-3 30 30.5 18q1 17 11.5 25.5t23.5 8 23-9.5 10-26q-1 19 16.5 30t41 12 42-8 19.5-28q18-1 26.5-21.5t8.5-47.5-9.5-47-27.5-20q16 0 24-15.5t8-36.5-8-36.5-24-15.5q18 1 27-16.5t8-35.5q3-1 5-3 3 18 19.5 30t35.5 0q-14 9-11.5 23.5t14 23.5 26.5 0q-3 16 12.5 27.5t38 16 41-0.5 21.5-21q0 23 12 30.5t24 0 12-30.5q-1 25 13.5 33.5t29.5 0.5 15-33q13-9 11-26t-13.5-33.5-26.5-24-28 1.5q15-11 10-34.5t-21.5-46-35.5-32.5q17-7 26-25.5t6-37-22-26.5q14 6 31.5-6.5t31-34 16.5-42-11-29.5q15 9 30 2.5t24-21 8.5-30.5-15.5-26q0-20-17.5-30t-40-10-40 10-17.5 30q-2-19-19-26.5t-37.5-5-35.5 13.5-13 30q-22-13-35-8t-11 18.5 23 26.5q-11-7-26.5 4t-29.5 31-22 41q-14-11-29-7 9-12 10.5-34t-4.5-40-20-18q10-22-1.5-35.5t-29-13-27.5 22.5q0-15-11.5-23t-26-8-26 8-11.5 23q0-27-11-33.5t-22.5 17.5-12.5 86z"/><path transform="translate(44.926 13.09) scale(.014 -.014)" d="m85 159q-27 0-41 16.5t-14 39 14 39 41 16.5q-25 0-38 16t-13 36.5 13 36 38 15.5q-19 0-30.5 14.5t-15 36 0 42.5 15 35.5 30.5 14.5q-35 0-47 16t0 32 47 16q-22 2-32.5 16t-9.5 31.5 13 30 34 11.5q0 29 17 44t39 15 39-15 17-44q0 20 15.5 31.5t38 15.5 45 0 38-15.5 15.5-31.5q0 29 14 43.5t32.5 14.5 32-14.5 13.5-44.5q3 26 14.5 37.5t25 10 22.5-15.5 6-39q9 32 24 40t23.5-6.5-0.5-46.5q14 17 33 17t34-12.5 19.5-30.5-9.5-36q27 6 43.5-5.5t21-30.5-5-37-36.5-24q23-8 31-22t3-27-20-19-38 3q23-30 20-48.5t-22-17.5-42 31q11-14 12-29 26-10 45-32t7-43q24 6 39-0.5t18.5-19.5-5.5-26-33-20q28-6 39.5-22t8-33.5-20-28.5-45.5-5q20-19 20-39t-13-33.5-33-14-40 18.5q13-31 8.5-45.5t-18.5-8-27 37.5q3-22-11.5-37t-37-22-46-5-40.5 13.5-20 33.5q0-27-16-41t-37.5-14-37.5 14-16 41q0-23-12.5-34.5t-29.5-11.5-29.5 11.5-12.5 34.5q0-19-12.5-28.5t-31.5-7.5-37.5 19-31 52.5-11.5 93.5zm190 316q16 0 23.5-13.5t9.5-29.5 2-23q2 16 14 22t25 1.5 16-18.5q-2 18 17 26.5t34 1.5q-2 11 4.5 22.5t18.5 15.5q-10 6-15.5 19.5t-3.5 24.5q-8-6-13.5-2t-3.5 15q-12-15-35.5-13.5t-33.5 17.5q0-12-9-20.5t-21-8.5q5-12-2.5-24.5t-26.5-12.5zm91-333q-1 17 13.5 23.5t28.5 2.5q-5 17 2.5 36.5t22.5 29.5q-16 7-29 21.5t-15 29.5q-8-13-26-16t-34 2q3-16-8.5-30t-29.5-12q15-9 20-29t2-36q15 7 34 1.5t19-23.5z"/><path transform="translate(55.202 13.09) scale(.014 -.014)" d="m165 29q-11-13-27-10t-29.5 15-18.5 27.5 6 27.5q-18-7-30.5-1.5t-17.5 17 0.5 24.5 23.5 20q-21-2-32.5 9t-13 27 8 29 30.5 15q-20 0-30 15t-10 35 10 35 30 15q-23 0-30.5 10t0 20 30.5 10q-25 0-33.5 13t0 26 33.5 13q-22 5-30 19t-4.5 28.5 17 23 35.5 3.5q0 18 14.5 28.5t36 14 42.5 0 35.5-14 14.5-28.5q20 12 35 3t17-26.5-18-29.5q13 0 19.5-12t6.5-28-6.5-28-19.5-12q15 0 23-13t8-30-8-30.5-23-13.5q15 1 23.5-10t9-26.5-6.5-26.5q18 2 40.5-7t35.5-23q4 11 12.5 19.5t18.5 10.5q-15 8-10.5 24t27.5 16q-14 0-21.5 18t-7.5 41.5 7.5 41 21.5 17.5q-20 0-26.5 11t0 22 26.5 11q-15 2-21.5 15t-4.5 29 11 27.5 25 9.5q0 22 11.5 33t26 11 26-11 11.5-33q0 23 13 30.5t26 0 13-30.5q8 15 21 17t24.5-4.5 16-19-4.5-27.5q20 0 30-10t10-23.5-10-24-30-10.5q25 0 33-13.5t0-27.5-33-14q16 0 24-17.5t8-40.5-8-40.5-24-17.5q20 0 29.5-14.5t9.5-33.5-9.5-33-29.5-14q12-3 15-19.5t-1.5-37-14-34.5-21.5-11q0-26-14-34.5t-28 0-14 34.5q0-25-14.5-33.5t-29.5-0.5-15 34q-7-21-18-27t-19.5 1-7.5 24q-8-16-29.5-21t-40.5 2.5-19 27.5q1-14-14-23.5t-40.5-11.5-55.5 5-58 27z"/><path transform="translate(64.638 13.09) scale(.014 -.014)" d="m387 17q-8-18-26-21t-37.5 4.5-31.5 21.5q-7-9-19.5-11.5t-26.5 8.5q-4-28-16-36t-22 2-6 36q-3-16-21.5-24t-42-7.5-41 9.5-17.5 26q-21-4-30 6t-5 23 25 17q-29 0-39 10t0 20 39 10q-14 0-22 14.5t-11 36 0 43 11 36 22 14.5q-19 0-29 19.5t-10 44.5 10 44.5 29 19.5q-21 0-31 13.5t-10 30.5 10 30.5 31 13.5q-16 0-23.5 20t-7.5 46 7.5 46 23.5 20q-16 0-24.5 12t-8.5 28 8.5 28 24.5 12q0 16 16 25t37.5 9 38-8 16.5-24q0 19 12.5 28.5t29 10 29-9 12.5-29.5q26-1 34-14t-1.5-25-34.5-11q19 0 28.5-12t9.5-28-9.5-28-28.5-12q17 0 25.5-6.5t9.5-14.5q17 0 32-10.5t13-26.5q5 13 25.5 20.5t45 8.5 43-6 19.5-22q9 12 29.5 5.5t41-23 31.5-34.5 2-30q20 4 34.5-12t20-40-0.5-44.5-26-25.5q17 0 25-14.5t8-33.5-9-33-26-14q16-5 18.5-24t-4-41-19.5-36-28-9q11-13 7.5-27t-15-24.5-25.5-12.5-26 10q5-21-7.5-34t-33.5-17-43.5 4-38.5 29zm-129 261q15 0 20-7t0-14-20-7q10 1 15.5-9t6-22.5-5.5-19.5q11 2 25.5-4.5t28-17.5 20.5-21q0 14 17 31t30 17q-10 7-11.5 23.5t5 30.5 19.5 13q-9 1-15 14t-8 28.5 3 24.5q-10-5-21 1.5t-13 17.5q-8-12-23.5-12.5t-23.5 10.5q-1-8-6-11t-12 1q5-11-1.5-23t-18.5-13q17-5 14-18.5t-25-12.5z"/><path transform="translate(73.892 13.09) scale(.014 -.014)" d="m387 17q-8-18-26-21t-37.5 4.5-31.5 21.5q-7-9-19.5-11.5t-26.5 8.5q-4-28-16-36t-22 2-6 36q-3-16-21.5-24t-42-7.5-41 9.5-17.5 26q-21-4-30 6t-5 23 25 17q-29 0-39 10t0 20 39 10q-14 0-22 14.5t-11 36 0 43 11 36 22 14.5q-19 0-29 19.5t-10 44.5 10 44.5 29 19.5q-21 0-31 13.5t-10 30.5 10 30.5 31 13.5q-16 0-23.5 20t-7.5 46 7.5 46 23.5 20q-16 0-24.5 12t-8.5 28 8.5 28 24.5 12q0 16 16 25t37.5 9 38-8 16.5-24q0 19 12.5 28.5t29 10 29-9 12.5-29.5q26-1 34-14t-1.5-25-34.5-11q19 0 28.5-12t9.5-28-9.5-28-28.5-12q17 0 25.5-6.5t9.5-14.5q17 0 32-10.5t13-26.5q5 13 25.5 20.5t45 8.5 43-6 19.5-22q9 12 29.5 5.5t41-23 31.5-34.5 2-30q20 4 34.5-12t20-40-0.5-44.5-26-25.5q17 0 25-14.5t8-33.5-9-33-26-14q16-5 18.5-24t-4-41-19.5-36-28-9q11-13 7.5-27t-15-24.5-25.5-12.5-26 10q5-21-7.5-34t-33.5-17-43.5 4-38.5 29zm-129 261q15 0 20-7t0-14-20-7q10 1 15.5-9t6-22.5-5.5-19.5q11 2 25.5-4.5t28-17.5 20.5-21q0 14 17 31t30 17q-10 7-11.5 23.5t5 30.5 19.5 13q-9 1-15 14t-8 28.5 3 24.5q-10-5-21 1.5t-13 17.5q-8-12-23.5-12.5t-23.5 10.5q-1-8-6-11t-12 1q5-11-1.5-23t-18.5-13q17-5 14-18.5t-25-12.5z"/><path transform="translate(83.146 13.09) scale(.014 -.014)" d="m70 31q-13 0-20.5 14t-10.5 35 0 42 10.5 35 20.5 14q-19 0-28.5 17t-9.5 39 9.5 39 28.5 17q-20 0-30 9.5t-10 22.5 10 22.5 30 9.5q-20 0-30 18.5t-10 43.5 10 43.5 30 18.5q-21 0-31.5 10.5t-10.5 23.5 10.5 23.5 31.5 10.5q-15 0-24.5 14t-12.5 35 0 42 12.5 35 24.5 14q-4 23 4.5 32t19 3 14.5-29q0 17 14.5 27t35.5 13.5 42.5 0 36-13.5 14.5-27q19 0 28.5-19.5t10-45-8.5-45.5-28-20q16 0 26-15t13-37 0-44-13-37-26-15q19 0 28.5-11t9.5-25-9.5-25-28.5-11q15 0 23-10.5t8-23.5-8-23.5-23-10.5q19 0 28.5-20.5t9.5-47.5-9.5-47.5-28.5-20.5q20 0 29.5-12t9.5-28-9.5-28-29.5-12q13-18 7.5-31t-19-13-26.5 18q0-29-16-38.5t-31.5 0-15.5 38.5q0-16-12.5-24t-28-7.5-28 10-13.5 27.5z"/><path transform="translate(87.668 13.09) scale(.014 -.014)" d="m258 18q-6-21-22-27.5t-33.5-2-28.5 18.5-5 35q-11-15-26-16.5t-27.5 7.5-16 23.5 8.5 30.5q-15-7-30 6.5t-25 36-10 42.5 15 27q-18 0-27 17t-9 40 9 40 26 17q-27 8-32 24t7.5 27 39.5 3q-9 8-5.5 23.5t15.5 32.5 27 30.5 29.5 19.5 23.5-2q-5 17 9.5 30t36.5 19.5 41 3 24-20.5q1 19 22.5 26.5t48 5.5 46.5-13 18-30q8 19 22.5 20.5t24-9.5 2.5-30q11 11 29.5 3.5t36-24.5 25-36-3.5-30q15 3 27.5-10t20-34 8.5-43.5-5-39.5-22-20q29-13 26-19.5t-32 6.5q0-13-16.5-19.5t-37.5-6.5-37.5 6.5-16.5 19.5q0-17-15-25.5t-34.5-9-34.5 8-15 24.5q1-17-16.5-27.5t-39.5-12.5q10-12 16.5-25.5t8.5-24.5q10 11 30 19t41 10 37.5-2.5 19.5-18.5q0 17 13.5 26t31.5 9 31.5-9 13.5-26q20-4 24-16.5t-5-22-28-5.5q9-13 3-26.5t-19.5-23-28-10.5-23.5 11q6-19-5.5-33t-30.5-20-36.5-0.5-23.5 24.5q2-27-14.5-37t-44-1.5-57.5 36.5zm41 283q0 20 11 22.5t15-12.5q3 9 12 17t19 11q-12 9-20 26t-5 30q-9-5-21.5-6t-21.5 3q3-11-1-26t-12.5-27-19.5-13q13-3 19.5-14t24.5-11z"/><path transform="translate(96.39 13.09) scale(.014 -.014)" d="m205 23q-6-27-18-33t-19.5 5-1.5 37q-7-15-23-16.5t-31.5 6-24 21-1.5 29.5q-16 5-20.5 17.5t0 25 16 19.5 27.5 1q0 15 12 22.5t27.5 7.5 27.5-7.5 12-22.5q3 15 21 21t42 4 43-11q1 7 6 11-5 9 0 22-11-9-32-9t-42.5 7-34.5 19-10 26q-7-20-20-23t-21 7.5-1 31.5q-11-8-25.5 0.5t-29 25.5-24.5 37-12 37 9 24q-11 6-9.5 22t11 33 22 27 23.5 4q-10 17-1.5 30t23.5 14.5 26-15.5q-3 16 9.5 28t32.5 19 41.5 7.5 37.5-6.5 19-23q2 19 15.5 26.5t29 5.5 26.5-13 8-29q6 19 17.5 22.5t19.5-5.5 2-28q8 15 25 15t33.5-9 25-24-0.5-30q23-7 26.5-22t-8-25.5-33.5-3.5q0-18-14-26.5t-32-8.5-31.5 8.5-13.5 26.5q-3-12-17.5-16t-33.5-1.5-36 9.5q1-13-9-24 22-5 41-18t14-26q3 14 17 19t30 1.5 27-13.5 8-24q7 8 22.5 3.5t33-17 32.5-28 22-30 0-22.5q21 1 31-9t10.5-23-9-23-29.5-11q12-9 9.5-25t-14-31-26-21.5-27.5 2.5q8-18 1-31t-21-19-28.5-1-21.5 22q2-18-17.5-29t-51.5-13-68.5 7-70.5 30z"/></svg>