<svg width="128.44" height="16.59" viewBox="0 0 128.44 16.59" xmlns="http://www.w3.org/2000/svg"><path transform="translate(0 13.09) scale(.014 -.014)" d="m75 75-32 30 32 30-35 28 35 27-20 24 20 24-35 40 35 40-29 28 29 28-33 20 33 20-33 30 33 30-35 32 35 31-34 32 34 32-24 32 24 32 24 40 39-25 20 26 20-26 34 31 34-31 28 32 28-32 20 30 20-30 43 21 41-23 23 18 17-24 33 22 18-35 51 13 19-50 46-10 4-47 46-25-21-47 36-38-37-38 12-38-33-23 13-44-46-1-14-42-44-1 35-4-16-31 43-24-4-49 45-5-20-40 33-14-7-35 33-10-10-32-23-37-29 33-26-32-25 32-26-39-26 39-39-31-32 39-39 10 16 37-39 21 10 44-36 21 8 41-23 10 3 26-29-35-29 35 18-26-30-10 21-34-21-34 15-37-15-38v-32l-31-7-40-23-40 23-24-27-24 27-22-22zm267 555-21 22-20-23 11-19 18 1zm-201 3-28 9-20-22 15-31 30 14zm455-55-66 3-24-37 17-47 60 10zm-276-190 19 18 20-18 18 13 21-10 10 20 22 2-11 25 25 13-13 19 7 22-23 7-2 25-23-9-16 19-19-11-20 11-19-13-19 13 9-20-21-8 19-19-19-20 18-20-18-20 14-19zm-197 134-21-12 11-21 16 5 14 15zm104-52-11 14-16-6-3-18 18-1zm321-25-17-1-6-13 10-12 11 10zm75-55-31 27-25-26 1-36 34 7zm-361-7-23 14-23-15 12-23 21 2zm218 8-42 3-17-36 30-19 33 11zm29-81-10 4-4-11 8-5 7 4zm-63-27-19 8-1-21 11-12 19 8zm-238-5-29-4 5-27 21-17 29 23zm265-66-17 16-27-11 11-28 24 4zm-275-4-33-18-5-29 29-13 20 23zm368-90-39 25-22-31-4-43 51 1zm-441-8-16 12-17-13 9-19h20zm85 9-19-13-4-28 27 6 22 19z"/><path transform="translate(10.108 13.09) scale(.014 -.014)" d="m214 1-31-31-16 41-33-20-2 39-42-6 4 42-47 13 16 47-40 14 30 29-28 20 25 24-39 32 39 32-23 26 23 26-20 30 20 30-20 28 20 28-39 24 39 24 8 32 29-15 40 39 39-39 32 33 32-33 31 7 14-28 14-20-14-20 26-31-26-32 26-22-26-21 15-42-15-41 19-28-17-28 31-12 11-31 23 36 37-21-15 32 31 16-27 22 27 22-27 29 27 30-17 39 17 40-19 38 19 37 14 28 31 1 31 35 32-35 42 35 41-35 30-18 3-35 38-24-38-24 26-22-26-21 34-32-34-32 27-40-27-40 22-30-22-30 36-35-36-36 22-20-22-20 1-29-26-12-34-24-34 24-31-24-32 24-21-21-19 21-39 12 9 11-8 23v-30l-31 4-15-42-41 19-30-23zm308 474-28 24-26-20 8-25 27-9zm-316-27-31 18-36-7 16-32 26-4zm-109-20-28-8 6-32 29-1 17 24zm422-34-100-27 28-87 70-41 25 75zm-284-98-32 15-26-30 19-44 39 25zm11-110-47 20-44-25 24-46 52-3zm56-29-13 3-6-6 2-10 13-2zm186-9-50 7-27-22 5-49 55 10zm93-23-45-6 13-40 31-18 33 32zm-349-53-25 9-17-26 24-21 26 13z"/><path transform="translate(19.544 13.09) scale(.014 -.014)" d="m393 1-29-30-14 39-53-6-18 50-8-41-41-3-22-38-21 38-30-33-30 33-42-18-30 35-30 32 30 32-34 36 34 36-37 20 37 20-31 22 31 22-25 20 25 20-27 36 27 36-35 42 35 42-26 26 26 26-35 38 35 38-24 28 24 28-29 28 29 28 12 28 29-11 35 27 35-27 26 22 26-22 25 22 23-24 39-38-31-44 23-28-23-27 32-36-32-35 22 3 11 22 50-3 21 39 31-31 21 31 19-33 32 19 18-32 48 3 14-45 34-11-2-36 36-12-20-33 27-17-19-26 22-30-19-31 32-34-34-32 22-39-35-28 20-35-39-10-2-52-52-7-18-39-41 15-26-23zm-159 627-14 25-28-19 7-33 28 9zm-54-52-15-5 4-17h17l9 15zm249-100-24 18-25-6-3-30h28zm-101-9-19-8-3-21 19-1 7 12zm-131-72-26 38-50-28 16-58 54 6zm101 13-13 19-22-13 5-24 27-9zm274-11-25-15 10-27 30-5-1 27zm-192-22-9 6-4-11 8-5 7 3zm-30-215 5 27 27-4-12 25 24 14-16 21 17 19-16 19 14 21-17 16 4 22-26-5-8 25-18-19-22 15-2-26-25-4 15-22-21-18 15-20-15-20 12-19-8-21 22-11-3-25 26 18zm135 168-46 6-13-46 38-16 39 15zm-314-22-57-70-13-92 113-14 22 102zm402-107-71-6-26-57 49-36 48 29zm-284-52-5 7-7-5v-9h9zm93-64-19 37-43-18 8-42 40-15z"/><path transform="translate(28.798 13.09) scale(.014 -.014)" d="m60 657-20 27 20 27 22 38 42-9 20 27 19-27 42 28 41-28 32-18-15-34 24-41-24-41-14-29-31 8-31-24-31 24-40-20zm83 46-29 6-11-24 13-26 26 15zm45-34-6 3-7-4 4-10 9 2zm-133-634-23 36 23 36-25 28 25 27-32 24 32 24-22 38 22 38-37 24 37 24-20 24 20 23-30 28 30 28-20 20 20 20 9 31 32 2 24 25 24-25 33 25 34-25 28 15 24-20 29-36-24-40 22-24-22-24 27-39-27-40 36-26-36-26 31-28-31-28 38-40-38-39 38-36-38-36 9-33h-34l-30-31-30 31-31-26-32 26-24-32zm68 458-27-12-6-24 24-18 29 23zm118-48-32 4-16-33 30-28 36 24zm-55-64-59 7-45-31 33-52 47 22zm51-40-7 3-8-2 3-9h9zm-60-91-49-6-6-45 36-20 40 24zm50-108-20 8-13-21 19-15 17 10zm-85-2h-29l3-33 28-6 23 23zm42-51-8-4 5-7 6-1 3 7zm73-20-20 14-11-19 1-23 22 8z"/><path transform="translate(33.32 13.09) scale(.014 -.014)" d="m55 55-37 34 37 34-31 34 31 34-26 20 26 20-24 40 24 40-38 30 38 30-30 36 30 36-20 42 20 42-32 32 32 32-20 20 20 20-20 34 25 30 16 33 24-28 32 23 31-23 36 30 36-30 29 4v-29l37-28-37-28 29-36-29-36 26-40-26-40 24-24-24-24 15-30v-1l24-1v35l31 16 6 43 36 24 21 24 26-19 21 27 22-27 42 30 41-30 37 2 11-35 5-27-28-5 15-42h-44l4-32-31-7 5-28-28-5 29-43-46-25 42-15-3-45 49-13-8-50 35-17 2-39 37-21-2-43-10-36-27 26-35-30-36 30-34-31-33 31-30-36-27 37-30 4 2 31-35 11 7 36-36 25-5 43-20-28-17 30 18-32-18-32 15-28-15-28-21-34-40 1-30-20-29 20-36-30zm55 563-24-2-6-21 19-9 22 8zm78-46-31-2v-26l15-13 25 10zm-70-58-25 5-3-25 17-19 20 17zm368-31-30 8 1-30 17-16 19 16zm82-37-7 5-9-3 4-10 10-2zm-162-94-7 16-25-4 10-21 16-7zm-57-19-12-2-7-14 16-5 11 10zm-21-60-24-11 15-19 19-8 4 22zm-113-26-33 23-43-21 19-49 46 8zm-118-26-14-1-2-16 15-2 5 10zm417-46-66 2-53-44 53-51 61 22zm-288-75-58 10-26-55 46-29 43 21zm261-55-9-3 1-10 9-3 6 8z"/><path transform="translate(44.926 13.09) scale(.014 -.014)" d="m326 12-34-26-26 34-30-28-12 40-49-14-19 47h-54v54l-49 23 14 53-42 19 33 32-30 25 28 27-22 35 22 34-28 25 28 24-20 40 27 36-13 41 35 23-3 49 47 9 21 38 43 4 18 46 43-25 18 36 30-27 43 25 45-21 21 19 19-22 37 31 26-41 40 27 18-45 36 11 14-35 30 8 3-32 36 1-3-36 36-2-17-32 11-30-17-27-23-14-24 14-22-18-22 18-27-18-28 18-37-12-36 16-43 5-19 39-28-26-29 24-14-29-32-1 20-44-39-28 24-42-25-42 25-28-25-28 18-23-14-25 37-20 3-42 41 21 29-35 23 44 47-16-18 42 41 21-26-6-2 27-37 6-9 37-21 35 21 36 17 24 26-13 30 18 30-18 38 23 37-23 42 14 42-14 33-23-6-39 33-38-33-37 33-41-42-30 12-29-28-13 1-54-52-12-17-48-51 5-30-30-42 7-17-37-27 30-30-31zm-84 615-66-30 10-62 58-25 31 57zm115-7-5 3-5-4 4-5 8-2zm260-33-16 8-18-5 7-18 15 2zm-499-81h-28v-29l23-15 11 23zm36-106-28 13-14-27 17-17 29 1zm389-39-18 13-21-12 8-25 22 5zm86-3-17 3-8-14 7-22 26 11zm-439-81-15 12-15-9-1-20 22-1zm455-45-28 56-57-33 4-58 54-7zm-547 6-12 5-10-4 1-14 13 2zm102-18-15-7 1-18 17 2 5 12zm-39-8-13 4-11-10 9-9 10 3zm103-13-6 5-7-3 1-8 10-3zm-138-33-22-4-5-21 18-4 15 9zm320-41-27-12 4-28 27-4 24 24zm-201-80-8 10-12-7 4-11 10-1z"/><path transform="translate(55.468 13.09) scale(.014 -.014)" d="m294 0-31-32-25 38-44-23-25 43-36-14-6 38-51 4v51l-45 13 20 42-35 28 23 39-22 25 21 26-31 26 36 18-15 43 38 26-7 33 33 8-3 44 44-6 21 45 48-11 12 42 31-32 32 23 36-17 41 29 35-36 43 21 22-43 34 11 7-35 40-6 5-40 39-8-13-37 38-25-20-41 41-16-37-24-4-36-29-23-22-15-22 15-31-16-32 16-24-20-24 20-42-16-41 16-15-35h-38l23-13-9-25 35 24 41-10 30 24 33-19 34 25 33-25 38 22 37-22 22-31-26-28-5-37-38-5-21-42-46 7-19-32-32 18-37-38zm-8 441-23 29-37-12-1-44 39 2zm-101-45-24 57-68-23 24-54 41-24zm148 45-11-4-8-14 19-10 6 17zm96-14-39 11-15-28 12-21 36-5zm-122-111 20 16 20-16-8 22 24 1-24 14 14 24-23 1-9 21-14-22-24 13 2-23-20-12 11-20zm-79 4-17-7 3-16 15-9 12 16zm245-25-15 13-16-16 10-20 22 3zm64 5-12-1v-12l10-5 11 9zm-268-8h-12l-8-11 12-7 12 5zm-168-28-34-17 15-36 33 2 4 28zm177-18-18-4 9-17 17-6 7 18zm205-103-32 1-5-32 25-7 28 10zm-278-14-29 6-15-18 14-17 28-4zm130-31-16-9 2-19 20-2 5 16z"/><path transform="translate(64.19 13.09) scale(.014 -.014)" d="m55 47-30 38 30 38-26 41 26 42-35 36 35 36-34 34 34 34-22 35 22 36-34 30 34 30 19 28 33 5 40 22 39-22 40 9 28-30 15-7 7 19 46-5 8 37 33-20 40 37 45-32 35 18 18-35 39-7 6-39 16 39 17-39 11 40 42 3 15 45 39-26 20 36 24-34 39 31 20-45 42-1 12-41 42-3-17-38 41-15-27-36 23-17-18-23 29-32-28-32 35-32-35-32 22-26-22-26 39-28-39-28 36-34-36-34-14-32-31 15-20-34-20 34-38-21-38 21-38-8-11 37-20 32 20 32-16 28 16 28-25 33 25 34-20 34 20 34-28 25-2 38-21-28-26 24 6-44-28-35 17-42-17-42 18-33-18-34 15-32-15-32 15-30-28-19-29-36-31 36-24-27-24 27-26-26-26 26-30 7-7 30-27 30 27 30-19 40 19 39-18 20 18 20-19 32 19 32-31 26 5 39-25-26-30 22 7-26-25-11 21-32-22-32 27-42-27-42 25-21-25-22 26-34-26-34 25-23-30-17-18-36-26 31-28-28-28 28-24-38-24 38-22-21zm594 421-23 19-12-25 4-23 24 6zm-135-43-74 7-50-69 70-64 77 48zm-408 4-10 3-3-9 6-5 5 4zm741-3-16-1-4-18 17-4 15 10zm-64-3-15-11v-15l16-9 15 18zm-476-23-32 7-17-17 4-32 30 13zm383-1-19-10 2-18 20-12 13 22zm156-48-26 10-23-19 21-18h23zm-711-28-22-15 9-23 28-9 12 32zm646-15-25-19 4-28 25 4 16 19zm-280-64-15 1-6-12 9-12 15 6zm-318-1-23-22 5-28 32-5 18 34zm222-46-13-4 2-16 15 2 5 11zm326-37-31-3-5-28 22-20 13 24zm-575-46-25 12-20-12 3-26 28-1zm600-32-8 16-20-7 8-17 15-9zm-510 9-30-2-15-19 17-18 20 10zm259-32-9-5 1-12 11 2 6 8zm-41-35-8 3-9-1 3-10 8 1z"/><path transform="translate(77.322 13.09) scale(.014 -.014)" d="m281 0-34-29-30 34-30-24-18 33-51-11-26 45-46 11-7 48 5 32 30 11 23 22 24-22 30 22 29-22 22 25 21-25 32 8 13-31 19 37 13-3-3 22-34-17-22 31-29-20-19 30-26-12-16 25-34-9-13 33-42 19-11 45-28 23 19 32-6 45 34 29 13 41 42 5 11 43 38-22 37 28 46-13 26 24 26-24 23 30 17-34 44 17 31-36 52 6 20-48 35-9v-67l-30-8-29-24-30 24-24-15-23 15-44-18-32 36-30-15-28 17 24-19-6-30 27 9 19-22 34 16 26-26 29 9 22-22 47 7 21-42 42-19 6-45 23-26-16-30 10-42-35-25-5-48-48 4-15-44-41 21-34-37-45 23-27-32zm84 482-10-3 6-8 6-1 4 6zm29-42-30 3-2-37 32-6 26 21zm-180-94-64 39-66-2 14-68 65-44zm108-50-16 8-1-17 7-11 15 5zm90-65-53-12-23-42 42-18 35 18zm94-36-8 7-9-2-2-12 11 1zm-179-103-17-13 7-18 20-5 13 23zm91-19-4 6-6-4-1-8 9-3z"/><path transform="translate(85.582 13.09) scale(.014 -.014)" d="m339 11-45-30-35 42-27-16-10 30-29-8-5 30-44 6 4 44-32 13 18 29-29 40 22 44-33 32 33 32-32 21 17 35-31-31-31 31-39 16 10 40-24 20 24 19-37 27 39 25 14 26 24-18 20 36 19-36-4 31 31-3-35 31 35 31-22 32 22 31-22 33 39 4 22 23 22-23 26 22 25-22 40 21 40-21 44-15-27-37 25-40-25-39 32-20-32-19 32 12-12-32 32 20 32-20 35 33 29-38 25-25-20-30 39-29-39-29-2-29-27-8-28-15-28 15-34-18-34 18 36-36-36-36 23-24-23-24 39-15-6-42 21 16 19-19 20 24 19-24 35-5 14-32 35-24-35-23 39-35-39-33-15-41-33 28-41-26zm-64 545-39 4-39-17 33-27 38-6zm-112-58-7 10-8-6-1-8 9-6zm293-65-15 20-21-13 2-23 25-8zm-110 11-32-12 12-33 27 7 22 22zm-165-20-20 14-17-18 7-24 26 3zm98-52-21 19-15-23 5-27 22 13zm-55-145-13 14-16-16 12-17 17 4zm50-22-16 12-11-13 1-18 16 6zm58-15-19 13-20-14 8-25 26 3zm-51-71-4 10-12-4-1-13 13-3zm180 1-59 3-7-58 43-23 37 29z"/><path transform="translate(93.03 13.09) scale(.014 -.014)" d="m265 3-31-28-21 36-49-17-25 46-53-2-4 52-36 20 6 41-31 23 21 32-21 19 19 21-28 22 28 22-33 23 37 17-18 32 31 19-2 46 43 18 1 48 47-11 3 41 33-25 20 43 39-27 40 25 44-19 22 29 18-31 47 19 36-35 43 11 19-40 44-3 6-43 37-15-9-39 40-11-30-28 29-19-25-25 33-30-33-30 28-43-39-32 10-42-39-20-5-40-40-5-26-45-51 11-23-30-32 19-30-29zm-30 464-7 10-14-3 3-13 13-7zm48 0-33-11 10-32 29-5 10 25zm197-35-52-24 7-46 40-20 30 39zm-225-38-15 1 2-15 12-6 9 11zm103-242-3 23 18 14-9 21 12 19-18 21 19 20-19 20 17 21-15 17 8 22-27 1v26l-20-14-20 14-3-24-24-3 14-23-21-16 11-21-13-20 17-20-16-21 11-19-8-21 22-12-7-25 25 15zm-201 174h-16l-10-13 13-9 12 6zm353-9-6-5 2-6 6-1 3 6zm-405-28-26 4-9-26 21-10 19 9zm407-60-61 13-42-74 77-55 61 60zm-367-29-25-7-4-23 21-12 23 17zm-62-44-10 5-8-12 12-5 10 2zm154-30-24 31-40-23 10-49h50zm118-71-20 12-14-7-6-21 25-5z"/><path transform="translate(102.02 13.09) scale(.014 -.014)" d="m55 51-22 26 22 26-28 26 28 25-35 22 35 22-31 26 31 26-29 28 29 28-28 34 28 34-24 35 24 36-7 40 32 25 42 29 41-29 22 35 22-35 37-4 20-31 20 42 34-32 22 40 44-12 19 42 29-35 36 31 27-39 45 22 9-48 56-9-4-57 35-13-20-32 36-39-28-45 20-34-20-34 26-28-26-28 26-26-26-26 36-22-36-22 13-39-34-22-40-30-40 30-25-35-26 35-42-26-31 39-16 23 16 25-15 37 15 38-15 33 15 34-22 24 22 23-17 24 16 24-34 15-9 36-21-37-33 28 8-36-30-22 20-40-20-39 20-24-20-24 27-37-27-38 21-23-21-24-17-31-36-2-37-28-38 28-20-28-19 28-20-39zm91 407-19 35-33-29 15-34 38-10zm322 13-31 8-35-18 26-32 29 12zm-96-20-20-6-14-18 22-14 19 15zm-128-2-10 1-3-13 12-2 8 7zm7-58-60 24-28-50 25-42 50 11zm291 12-82 2-7-73 49-28 37 32zm-434-104-23-1-10-16 11-20 21 13zm38-59-20-4 6-21 19-2 10 17zm78-5-22-7 11-20 23-11 12 28zm322-42-41-20 6-53 49 9 27 38zm-127-45-9 5-7-11 11-5 6 5zm-218-40-36 20-32-40 39-30 38 14zm243 16-15-6 7-14 14-4 8 15zm48-20-9-1-3-8 7-8 8 7z"/><path transform="translate(111.45 13.09) scale(.014 -.014)" d="m294 0-31-32-25 38-44-23-25 43-36-14-6 38-51 4v51l-45 13 20 42-35 28 23 39-22 25 21 26-31 26 36 18-15 43 38 26-7 33 33 8-3 44 44-6 21 45 48-11 12 42 31-32 32 23 36-17 41 29 35-36 43 21 22-43 34 11 7-35 40-6 5-40 39-8-13-37 38-25-20-41 41-16-37-24-4-36-29-23-22-15-22 15-31-16-32 16-24-20-24 20-42-16-41 16-15-35h-38l23-13-9-25 35 24 41-10 30 24 33-19 34 25 33-25 38 22 37-22 22-31-26-28-5-37-38-5-21-42-46 7-19-32-32 18-37-38zm-8 441-23 29-37-12-1-44 39 2zm-101-45-24 57-68-23 24-54 41-24zm148 45-11-4-8-14 19-10 6 17zm96-14-39 11-15-28 12-21 36-5zm-122-111 20 16 20-16-8 22 24 1-24 14 14 24-23 1-9 21-14-22-24 13 2-23-20-12 11-20zm-79 4-17-7 3-16 15-9 12 16zm245-25-15 13-16-16 10-20 22 3zm64 5-12-1v-12l10-5 11 9zm-268-8h-12l-8-11 12-7 12 5zm-168-28-34-17 15-36 33 2 4 28zm177-18-18-4 9-17 17-6 7 18zm205-103-32 1-5-32 25-7 28 10zm-278-14-29 6-15-18 14-17 28-4zm130-31-16-9 2-19 20-2 5 16z"/><path transform="translate(120.18 13.09) scale(.014 -.014)" d="m281 0-34-29-30 34-30-24-18 33-51-11-26 45-46 11-7 48 5 32 30 11 23 22 24-22 30 22 29-22 22 25 21-25 32 8 13-31 19 37 13-3-3 22-34-17-22 31-29-20-19 30-26-12-16 25-34-9-13 33-42 19-11 45-28 23 19 32-6 45 34 29 13 41 42 5 11 43 38-22 37 28 46-13 26 24 26-24 23 30 17-34 44 17 31-36 52 6 20-48 35-9v-67l-30-8-29-24-30 24-24-15-23 15-44-18-32 36-30-15-28 17 24-19-6-30 27 9 19-22 34 16 26-26 29 9 22-22 47 7 21-42 42-19 6-45 23-26-16-30 10-42-35-25-5-48-48 4-15-44-41 21-34-37-45 23-27-32zm84 482-10-3 6-8 6-1 4 6zm29-42-30 3-2-37 32-6 26 21zm-180-94-64 39-66-2 14-68 65-44zm108-50-16 8-1-17 7-11 15 5zm90-65-53-12-23-42 42-18 35 18zm94-36-8 7-9-2-2-12 11 1zm-179-103-17-13 7-18 20-5 13 23zm91-19-4 6-6-4-1-8 9-3z"/></svg>