<svg width="107" height="15" viewBox="0 0 107 15" fill="none" xmlns="http://www.w3.org/2000/svg">
<path d="M4.09 1.62806C4.19 1.34806 4.37667 1.12473 4.65 0.958065C4.93 0.791398 5.21667 0.708065 5.51 0.708065C5.81 0.708065 6.1 0.791398 6.38 0.958065C6.65333 1.12473 6.84 1.34806 6.94 1.62806C6.74667 1.39473 6.52 1.20473 6.26 1.05806C6.00667 0.918064 5.75667 0.848064 5.51 0.848064C5.27 0.848064 5.02333 0.918064 4.77 1.05806C4.51 1.20473 4.28333 1.39473 4.09 1.62806ZM5.82 2.67806C5.89333 2.48473 6.03 2.30806 6.23 2.14806C6.43667 1.99473 6.64667 1.92473 6.86 1.93806C7.06667 1.93806 7.26333 2.01806 7.45 2.17806C7.64333 2.34473 7.77333 2.5314 7.84 2.73806C7.70667 2.56473 7.55 2.44473 7.37 2.37806C7.19 2.30473 7.01333 2.26806 6.84 2.26806C6.67333 2.2614 6.49667 2.28806 6.31 2.34806C6.12333 2.40806 5.96 2.51806 5.82 2.67806ZM3.81 2.67806C3.87 2.49806 3.98667 2.33806 4.16 2.19806C4.33333 2.0514 4.51333 1.97806 4.7 1.97806C4.88667 1.97806 5.06667 2.0514 5.24 2.19806C5.41333 2.33806 5.53333 2.49806 5.6 2.67806C5.48 2.53806 5.33667 2.4414 5.17 2.38806C5.01 2.3414 4.85333 2.31806 4.7 2.31806C4.55333 2.31806 4.39667 2.3414 4.23 2.38806C4.07 2.4414 3.93 2.53806 3.81 2.67806ZM8.06 2.75806C8.18 2.61806 8.35 2.50806 8.57 2.42806C8.78333 2.35473 8.97333 2.34806 9.14 2.40806C9.32 2.47473 9.46333 2.60806 9.57 2.80806C9.68333 3.0014 9.74 3.1914 9.74 3.37806C9.67333 3.19806 9.57333 3.05806 9.44 2.95806C9.30667 2.85806 9.17 2.77806 9.03 2.71806C8.89 2.6714 8.73667 2.64473 8.57 2.63806C8.39667 2.62473 8.22667 2.66473 8.06 2.75806ZM2.63 3.79806C2.55667 3.65806 2.51333 3.4914 2.5 3.29806C2.49333 3.1114 2.54 2.9614 2.64 2.84806C2.74667 2.72806 2.89667 2.65473 3.09 2.62806C3.27667 2.60806 3.44 2.62473 3.58 2.67806C3.42 2.67806 3.28667 2.71806 3.18 2.79806C3.07333 2.87806 2.98 2.96473 2.9 3.05806C2.82 3.1514 2.75 3.2614 2.69 3.38806C2.62333 3.51473 2.60333 3.6514 2.63 3.79806ZM9.92 3.50806C10.1867 3.48806 10.4533 3.54473 10.72 3.67806C10.9933 3.8114 11.1867 3.99473 11.3 4.22806C11.4067 4.4614 11.43 4.72806 11.37 5.02806C11.31 5.32806 11.1933 5.5714 11.02 5.75806C11.12 5.51806 11.1633 5.27473 11.15 5.02806C11.1367 4.78806 11.0833 4.57473 10.99 4.38806C10.8967 4.18806 10.76 4.00806 10.58 3.84806C10.3933 3.6814 10.1733 3.56806 9.92 3.50806ZM1.58 6.97806C1.25333 6.85806 0.993333 6.63473 0.8 6.30806C0.6 5.98806 0.5 5.6514 0.5 5.29806C0.5 4.9514 0.6 4.61806 0.8 4.29806C0.993333 3.9714 1.25333 3.74806 1.58 3.62806C1.30667 3.85473 1.08333 4.11806 0.91 4.41806C0.73 4.72473 0.64 5.01806 0.64 5.29806C0.64 5.58473 0.73 5.8814 0.91 6.18806C1.08333 6.48806 1.30667 6.7514 1.58 6.97806ZM2.63 6.30806C2.40333 6.2214 2.20667 6.06806 2.04 5.84806C1.86667 5.62806 1.78 5.39806 1.78 5.15806C1.78 4.92473 1.86667 4.69806 2.04 4.47806C2.20667 4.25806 2.40333 4.10473 2.63 4.01806C2.44333 4.1714 2.31 4.3514 2.23 4.55806C2.15 4.7714 2.11 4.9714 2.11 5.15806C2.11 5.3514 2.15 5.55473 2.23 5.76806C2.31 5.97473 2.44333 6.15473 2.63 6.30806ZM11.72 4.11806C12.0267 4.2114 12.2767 4.40473 12.47 4.69806C12.67 4.9914 12.7733 5.3014 12.78 5.62806C12.8 5.95473 12.7267 6.27473 12.56 6.58806C12.3867 6.89473 12.1467 7.1114 11.84 7.23806C12.0867 7.01806 12.2833 6.7614 12.43 6.46806C12.5767 6.1814 12.6467 5.90806 12.64 5.64806C12.6333 5.38806 12.5433 5.11806 12.37 4.83806C12.1967 4.55806 11.98 4.31806 11.72 4.11806ZM5.71 6.53806C5.73667 6.47807 5.78 6.41473 5.84 6.34806C5.79333 6.33473 5.75 6.32473 5.71 6.31806C5.76333 6.3114 5.82 6.3014 5.88 6.28806C6.02667 6.11473 6.2 6.00473 6.4 5.95806C6.41333 5.92473 6.43 5.9014 6.45 5.88806C6.42333 5.74806 6.44 5.6014 6.5 5.44806C6.56 5.28806 6.64333 5.14806 6.75 5.02806C6.75 4.97473 6.74 4.91806 6.72 4.85806C6.74667 4.89806 6.77 4.9414 6.79 4.98806C6.83667 4.9414 6.88667 4.89806 6.94 4.85806C6.89333 4.92473 6.85667 4.99473 6.83 5.06806C6.88333 5.20806 6.91333 5.35806 6.92 5.51806C6.92667 5.67806 6.89333 5.81806 6.82 5.93806C6.82667 5.95806 6.83 5.97806 6.83 5.99806C6.96333 6.06473 7.07667 6.15806 7.17 6.27806C7.27 6.39806 7.34 6.52473 7.38 6.65806C7.29333 6.5314 7.18 6.43806 7.04 6.37806C7.13333 6.49806 7.24667 6.5914 7.38 6.65806C7.1 6.62473 6.85667 6.49806 6.65 6.27806C6.63 6.26473 6.6 6.25806 6.56 6.25806C6.51333 6.25806 6.46667 6.25806 6.42 6.25806C6.29333 6.31806 6.15 6.34806 5.99 6.34806C5.87667 6.39473 5.78333 6.45807 5.71 6.53806ZM11.02 6.00806C11.2067 6.21473 11.3233 6.47473 11.37 6.78806C11.4167 7.1014 11.3733 7.37807 11.24 7.61806C11.1067 7.86473 10.8967 8.05473 10.61 8.18806C10.3233 8.3214 10.0433 8.3714 9.77 8.33806C10.0433 8.27806 10.28 8.16806 10.48 8.00806C10.68 7.8414 10.83 7.6614 10.93 7.46806C11.0433 7.26806 11.11 7.0414 11.13 6.78806C11.1567 6.52806 11.12 6.26806 11.02 6.00806ZM2.63 8.65806C2.42333 8.58473 2.24 8.44473 2.08 8.23806C1.91333 8.0314 1.83 7.81473 1.83 7.58806C1.83 7.36806 1.91333 7.15473 2.08 6.94806C2.24 6.7414 2.42333 6.6014 2.63 6.52806C2.46333 6.67473 2.34333 6.84473 2.27 7.03806C2.20333 7.2314 2.17 7.41473 2.17 7.58806C2.17 7.76806 2.20333 7.95473 2.27 8.14806C2.34333 8.33473 2.46333 8.50473 2.63 8.65806ZM9.57 8.45806C9.80333 8.43806 10.0433 8.4914 10.29 8.61806C10.53 8.74473 10.6967 8.91473 10.79 9.12806C10.8967 9.34806 10.9133 9.5914 10.84 9.85806C10.7733 10.1181 10.6533 10.3281 10.48 10.4881C10.5867 10.2814 10.6333 10.0714 10.62 9.85806C10.6133 9.63806 10.5733 9.4414 10.5 9.26806C10.4133 9.1014 10.2967 8.9414 10.15 8.78806C9.99667 8.63473 9.80333 8.52473 9.57 8.45806ZM2.63 10.5481C2.46333 10.4881 2.31 10.3781 2.17 10.2181C2.03 10.0514 1.96 9.8814 1.96 9.70806C1.96 9.5414 2.03 9.37473 2.17 9.20806C2.31 9.04806 2.46333 8.93806 2.63 8.87806C2.49667 8.9914 2.40667 9.1214 2.36 9.26806C2.31333 9.4214 2.29 9.56806 2.29 9.70806C2.29 9.85473 2.31333 10.0047 2.36 10.1581C2.40667 10.3047 2.49667 10.4347 2.63 10.5481ZM5.71 9.17806C5.75 9.18473 5.78333 9.19806 5.81 9.21806C5.78333 9.14473 5.77 9.07473 5.77 9.00806C5.81667 9.10806 5.88333 9.17473 5.97 9.20806C6.05667 9.2414 6.14333 9.2714 6.23 9.29806C6.31 9.32473 6.39667 9.34806 6.49 9.36806C6.58333 9.38807 6.67667 9.3714 6.77 9.31806C6.67 9.5114 6.63 9.7114 6.65 9.91806C6.67 10.1247 6.71 10.3114 6.77 10.4781C6.85 10.6381 6.96 10.7914 7.1 10.9381C7.24667 11.0847 7.42667 11.1881 7.64 11.2481C7.42 11.2681 7.19333 11.2147 6.96 11.0881C6.72667 10.9681 6.56667 10.8047 6.48 10.5981C6.39333 10.4247 6.37333 10.2214 6.42 9.98806C6.46667 9.7614 6.55667 9.56473 6.69 9.39806C6.63667 9.4514 6.57 9.5014 6.49 9.54806C6.41 9.59473 6.33333 9.62473 6.26 9.63806C6.34 9.75806 6.38 9.87806 6.38 9.99806C6.38 10.1781 6.31 10.3481 6.17 10.5081C6.03 10.6614 5.87667 10.7714 5.71 10.8381C5.84333 10.7247 5.93333 10.5914 5.98 10.4381C6.02667 10.2847 6.05 10.1381 6.05 9.99806C6.05 9.91806 6.04333 9.8314 6.03 9.73806C6.01 9.6514 5.97667 9.56473 5.93 9.47806C5.89667 9.4314 5.86667 9.37807 5.84 9.31806C5.8 9.25806 5.75667 9.2114 5.71 9.17806ZM10.6 10.6881C10.72 10.7814 10.82 10.9114 10.9 11.0781C10.9867 11.2447 11.0067 11.3981 10.96 11.5381C10.9133 11.6914 10.81 11.8147 10.65 11.9081C10.4833 12.0014 10.3267 12.0514 10.18 12.0581C10.32 12.0047 10.42 11.9181 10.48 11.7981C10.5467 11.6847 10.6 11.5647 10.64 11.4381C10.6733 11.3314 10.6967 11.2114 10.71 11.0781C10.7167 10.9447 10.68 10.8147 10.6 10.6881ZM3.75 12.0581C3.58333 12.1247 3.39333 12.1414 3.18 12.1081C2.96 12.0747 2.79 11.9914 2.67 11.8581C2.55667 11.7314 2.5 11.5581 2.5 11.3381C2.5 11.1181 2.54333 10.9281 2.63 10.7681C2.60333 10.9481 2.62333 11.1114 2.69 11.2581C2.75 11.4114 2.83333 11.5381 2.94 11.6381C3.03333 11.7514 3.14667 11.8481 3.28 11.9281C3.41333 12.0147 3.57 12.0581 3.75 12.0581ZM5.71 11.0681C5.75 11.2681 5.72333 11.4847 5.63 11.7181C5.54333 11.9514 5.40667 12.1214 5.22 12.2281C5.04 12.3281 4.82667 12.3614 4.58 12.3281C4.33333 12.2881 4.13 12.1981 3.97 12.0581C4.17 12.1314 4.36667 12.1514 4.56 12.1181C4.74667 12.0781 4.91 12.0147 5.05 11.9281C5.20333 11.8481 5.34 11.7347 5.46 11.5881C5.58667 11.4414 5.67 11.2681 5.71 11.0681ZM9.95 12.0581C9.81 12.2514 9.61333 12.4047 9.36 12.5181C9.1 12.6247 8.85333 12.6447 8.62 12.5781C8.38667 12.5181 8.18667 12.3747 8.02 12.1481C7.85333 11.9214 7.76 11.6914 7.74 11.4581C7.83333 11.6714 7.97 11.8447 8.15 11.9781C8.33667 12.1181 8.52333 12.2114 8.71 12.2581C8.89667 12.3114 9.1 12.3281 9.32 12.3081C9.54667 12.2814 9.75667 12.1981 9.95 12.0581ZM12.3 12.1381C12.2867 12.4847 12.1567 12.7947 11.91 13.0681C11.67 13.3347 11.3867 13.5214 11.06 13.6281C10.72 13.7281 10.3733 13.7347 10.02 13.6481C9.66667 13.5614 9.38667 13.3814 9.18 13.1081C9.47333 13.2947 9.78667 13.4247 10.12 13.4981C10.4533 13.5714 10.7533 13.5714 11.02 13.4981C11.28 13.4181 11.5267 13.2514 11.76 12.9981C11.9933 12.7447 12.1733 12.4581 12.3 12.1381ZM4.87 13.1081C4.70333 13.3947 4.45333 13.6014 4.12 13.7281C3.78667 13.8547 3.45667 13.8847 3.13 13.8181C2.80333 13.7647 2.51 13.6214 2.25 13.3881C1.99 13.1547 1.83333 12.8747 1.78 12.5481C1.93333 12.8281 2.13667 13.0747 2.39 13.2881C2.64333 13.5014 2.9 13.6314 3.16 13.6781C3.42 13.7247 3.70667 13.6947 4.02 13.5881C4.33333 13.4814 4.61667 13.3214 4.87 13.1081ZM11.79 4.56806C11.85 4.2414 12.02 3.96473 12.3 3.73806C12.58 3.51806 12.8833 3.38473 13.21 3.33806C13.55 3.29806 13.8833 3.34806 14.21 3.48806C14.5367 3.62806 14.7733 3.84806 14.92 4.14806C14.68 3.9214 14.4067 3.74806 14.1 3.62806C13.7867 3.5014 13.5 3.4514 13.24 3.47806C12.9733 3.5114 12.7067 3.6314 12.44 3.83806C12.18 4.04473 11.9633 4.28806 11.79 4.56806ZM19.47 4.14806C19.6833 4.00806 19.93 3.95806 20.21 3.99806C20.49 4.0314 20.7333 4.12807 20.94 4.28806C21.1467 4.44806 21.2967 4.6614 21.39 4.92806C21.4833 5.19473 21.4867 5.4514 21.4 5.69806C21.3933 5.43806 21.34 5.18806 21.24 4.94806C21.1467 4.71473 21.02 4.5314 20.86 4.39806C20.6933 4.2714 20.4833 4.18473 20.23 4.13806C19.9767 4.09806 19.7233 4.1014 19.47 4.14806ZM13.42 5.19806C13.5267 5.00473 13.69 4.83806 13.91 4.69806C14.1367 4.56473 14.3633 4.5114 14.59 4.53806C14.81 4.56473 15.0133 4.6714 15.2 4.85806C15.38 5.04473 15.4933 5.2514 15.54 5.47806C15.42 5.2914 15.2667 5.14806 15.08 5.04806C14.9 4.95473 14.72 4.8914 14.54 4.85806C14.3667 4.84473 14.1767 4.8614 13.97 4.90806C13.7633 4.95473 13.58 5.0514 13.42 5.19806ZM17.58 5.19806C17.64 5.0314 17.75 4.87806 17.91 4.73806C18.0767 4.59806 18.2433 4.52806 18.41 4.52806C18.5833 4.52806 18.75 4.59806 18.91 4.73806C19.07 4.87806 19.1833 5.0314 19.25 5.19806C19.1367 5.06473 19.0033 4.97473 18.85 4.92806C18.6967 4.8814 18.55 4.85806 18.41 4.85806C18.27 4.85806 18.1233 4.8814 17.97 4.92806C17.8233 4.97473 17.6933 5.06473 17.58 5.19806ZM19.47 5.19806C19.67 5.1714 19.88 5.2014 20.1 5.28806C20.3133 5.37473 20.4667 5.50806 20.56 5.68806C20.6533 5.86806 20.6767 6.07473 20.63 6.30806C20.5767 6.5414 20.4833 6.7314 20.35 6.87806C20.43 6.6914 20.4533 6.50806 20.42 6.32806C20.3933 6.1414 20.3433 5.97806 20.27 5.83806C20.1967 5.69806 20.09 5.56806 19.95 5.44806C19.8167 5.3214 19.6567 5.23806 19.47 5.19806ZM12.53 6.48806C12.4233 6.37473 12.3467 6.22806 12.3 6.04806C12.2467 5.8614 12.2567 5.69806 12.33 5.55806C12.3967 5.4314 12.52 5.33473 12.7 5.26806C12.8867 5.2014 13.0533 5.17806 13.2 5.19806C13.0533 5.23806 12.9333 5.30806 12.84 5.40806C12.7533 5.50806 12.6833 5.6114 12.63 5.71806C12.57 5.8314 12.5233 5.9514 12.49 6.07806C12.4567 6.2114 12.47 6.34806 12.53 6.48806ZM17.36 7.79806C17.1133 7.70473 16.9 7.53806 16.72 7.29806C16.54 7.05806 16.45 6.80473 16.45 6.53806C16.45 6.27806 16.54 6.02806 16.72 5.78806C16.9 5.55473 17.1167 5.3914 17.37 5.29806C17.1633 5.46473 17.0133 5.6614 16.92 5.88806C16.8267 6.1214 16.78 6.33807 16.78 6.53806C16.78 6.75806 16.8267 6.9814 16.92 7.20806C17.0133 7.43473 17.16 7.6314 17.36 7.79806ZM15.54 5.69806C15.7333 5.76473 15.91 5.89806 16.07 6.09806C16.23 6.2914 16.31 6.4914 16.31 6.69806C16.31 6.90473 16.23 7.1014 16.07 7.28806C15.91 7.4814 15.7333 7.61473 15.54 7.68806C15.7 7.5614 15.81 7.40473 15.87 7.21806C15.9367 7.03806 15.97 6.86473 15.97 6.69806C15.97 6.5314 15.9367 6.35473 15.87 6.16806C15.81 5.98806 15.7 5.8314 15.54 5.69806ZM12.53 9.17806C12.2833 9.0914 12.07 8.92806 11.89 8.68806C11.71 8.45473 11.62 8.20473 11.62 7.93806C11.62 7.67806 11.71 7.4314 11.89 7.19806C12.07 6.95807 12.2833 6.79473 12.53 6.70806C12.33 6.87473 12.1833 7.0714 12.09 7.29806C11.9967 7.52473 11.95 7.73806 11.95 7.93806C11.95 8.14473 11.9967 8.3614 12.09 8.58806C12.1833 8.80806 12.33 9.00473 12.53 9.17806ZM20.35 7.08806C20.5233 7.15473 20.68 7.2714 20.82 7.43806C20.9667 7.60473 21.04 7.77806 21.04 7.95806C21.04 8.14473 20.9667 8.31806 20.82 8.47806C20.68 8.64473 20.5233 8.7614 20.35 8.82806C20.49 8.7014 20.5833 8.5614 20.63 8.40806C20.6767 8.25473 20.7 8.10473 20.7 7.95806C20.7 7.81806 20.6767 7.66806 20.63 7.50806C20.5833 7.34806 20.49 7.20806 20.35 7.08806ZM16.69 10.0881C16.65 10.0547 16.61 10.0147 16.57 9.96806C16.5367 10.0281 16.4967 10.0747 16.45 10.1081C16.4767 10.0547 16.5033 9.99473 16.53 9.92806C16.4033 9.7814 16.31 9.6014 16.25 9.38806C16.1833 9.1814 16.1833 8.98806 16.25 8.80806C16.27 8.72806 16.3067 8.64473 16.36 8.55806C16.28 8.41806 16.17 8.2914 16.03 8.17806C15.89 8.05806 15.7267 7.9714 15.54 7.91806C15.94 7.89806 16.2833 8.03806 16.57 8.33806C16.8167 8.13806 17.08 8.03473 17.36 8.02806C17.22 8.0814 17.0967 8.1514 16.99 8.23806C16.89 8.3314 16.8067 8.43473 16.74 8.54806C16.7667 8.59473 16.79 8.63473 16.81 8.66806C16.8833 8.86806 16.9 9.08473 16.86 9.31806C16.82 9.5514 16.7333 9.75473 16.6 9.92806C16.6267 9.98806 16.6567 10.0414 16.69 10.0881ZM16.55 8.94806C16.51 9.0814 16.49 9.2214 16.49 9.36806C16.49 9.5214 16.5133 9.6714 16.56 9.81806C16.6067 9.6714 16.6267 9.5214 16.62 9.36806C16.6067 9.2214 16.5833 9.0814 16.55 8.94806ZM20.35 9.15806C20.6033 9.24473 20.8233 9.40806 21.01 9.64806C21.19 9.89473 21.28 10.1481 21.28 10.4081C21.28 10.6747 21.19 10.9281 21.01 11.1681C20.8233 11.4081 20.6033 11.5747 20.35 11.6681C20.5567 11.5014 20.7067 11.3014 20.8 11.0681C20.8933 10.8414 20.94 10.6214 20.94 10.4081C20.94 10.2014 20.8933 9.98473 20.8 9.75806C20.7067 9.52473 20.5567 9.32473 20.35 9.15806ZM13.4 11.5981C13.1467 11.6047 12.8967 11.5347 12.65 11.3881C12.41 11.2347 12.2433 11.0481 12.15 10.8281C12.0567 10.5947 12.05 10.3381 12.13 10.0581C12.21 9.78473 12.3433 9.56473 12.53 9.39806C12.4167 9.6114 12.3567 9.83473 12.35 10.0681C12.35 10.3014 12.3867 10.5114 12.46 10.6981C12.5333 10.8847 12.65 11.0614 12.81 11.2281C12.97 11.4014 13.1667 11.5247 13.4 11.5981ZM13.72 13.0081C13.3533 13.1214 12.9833 13.1014 12.61 12.9481C12.2367 12.7947 11.94 12.5681 11.72 12.2681C11.4867 11.9614 11.3467 11.6081 11.3 11.2081C11.26 10.8014 11.3433 10.4414 11.55 10.1281C11.4633 10.5014 11.4433 10.8747 11.49 11.2481C11.53 11.6281 11.6433 11.9414 11.83 12.1881C12.0033 12.4281 12.2667 12.6214 12.62 12.7681C12.9667 12.9081 13.3333 12.9881 13.72 13.0081ZM21.4 11.2781C21.5067 11.5581 21.5133 11.8447 21.42 12.1381C21.3267 12.4381 21.1667 12.6881 20.94 12.8881C20.72 13.0747 20.4533 13.1914 20.14 13.2381C19.8333 13.2914 19.55 13.2481 19.29 13.1081C19.5767 13.1547 19.8667 13.1481 20.16 13.0881C20.4467 13.0281 20.68 12.9214 20.86 12.7681C21.0333 12.6214 21.17 12.4114 21.27 12.1381C21.37 11.8581 21.4133 11.5714 21.4 11.2781ZM16.14 12.0481C16.02 12.2881 15.8233 12.4881 15.55 12.6481C15.2833 12.8081 15.0133 12.8681 14.74 12.8281C14.4667 12.8014 14.22 12.6814 14 12.4681C13.7733 12.2481 13.6267 12.0081 13.56 11.7481C13.7133 11.9747 13.9 12.1514 14.12 12.2781C14.3467 12.4047 14.5667 12.4814 14.78 12.5081C14.9933 12.5281 15.2267 12.5014 15.48 12.4281C15.7267 12.3614 15.9467 12.2347 16.14 12.0481ZM20.35 11.8881C20.2967 12.1014 20.1733 12.2981 19.98 12.4781C19.7933 12.6581 19.5867 12.7547 19.36 12.7681C19.1333 12.7881 18.9133 12.7281 18.7 12.5881C18.4867 12.4414 18.3333 12.2647 18.24 12.0581C18.4 12.2181 18.5767 12.3247 18.77 12.3781C18.97 12.4381 19.1567 12.4581 19.33 12.4381C19.51 12.4247 19.6933 12.3747 19.88 12.2881C20.0667 12.2014 20.2233 12.0681 20.35 11.8881ZM18.02 12.0581C17.9533 12.2181 17.8367 12.3647 17.67 12.4981C17.4967 12.6314 17.3233 12.6947 17.15 12.6881C16.97 12.6814 16.8067 12.6014 16.66 12.4481C16.5067 12.3014 16.4033 12.1447 16.35 11.9781C16.45 12.1181 16.5767 12.2114 16.73 12.2581C16.8767 12.3114 17.02 12.3414 17.16 12.3481C17.3 12.3481 17.4467 12.3347 17.6 12.3081C17.7533 12.2747 17.8933 12.1914 18.02 12.0581ZM21.54 1.68806C21.6533 1.32806 21.8733 1.0414 22.2 0.828064C22.5267 0.614731 22.8733 0.498065 23.24 0.478065C23.6 0.458065 23.9533 0.541398 24.3 0.728065C24.6467 0.914731 24.89 1.17806 25.03 1.51806C24.79 1.24473 24.5067 1.0214 24.18 0.848064C23.8533 0.674731 23.5433 0.598064 23.25 0.618064C22.95 0.631398 22.6467 0.738065 22.34 0.938065C22.0333 1.13806 21.7667 1.38806 21.54 1.68806ZM22.03 2.98806C22.07 2.75473 22.18 2.5314 22.36 2.31806C22.5333 2.1114 22.7367 1.98473 22.97 1.93806C23.2033 1.8914 23.4433 1.92806 23.69 2.04806C23.93 2.16806 24.1167 2.3314 24.25 2.53806C24.0633 2.3914 23.86 2.29806 23.64 2.25806C23.42 2.21806 23.22 2.21806 23.04 2.25806C22.8533 2.30473 22.6667 2.38473 22.48 2.49806C22.2933 2.61806 22.1433 2.7814 22.03 2.98806ZM24.36 2.53806C24.5733 2.54473 24.7833 2.61806 24.99 2.75806C25.2033 2.89806 25.3433 3.0714 25.41 3.27806C25.4767 3.48473 25.46 3.70806 25.36 3.94806C25.26 4.1814 25.1267 4.36473 24.96 4.49806C25.0733 4.31806 25.1333 4.12806 25.14 3.92806C25.1533 3.72806 25.1367 3.54806 25.09 3.38806C25.03 3.2214 24.9433 3.05806 24.83 2.89806C24.71 2.74473 24.5533 2.62473 24.36 2.53806ZM22.03 4.99806C21.8567 4.93806 21.6967 4.8214 21.55 4.64806C21.4033 4.47473 21.33 4.29473 21.33 4.10806C21.33 3.9214 21.4033 3.7414 21.55 3.56806C21.6967 3.39473 21.8567 3.27473 22.03 3.20806C21.89 3.32806 21.7967 3.4714 21.75 3.63806C21.6967 3.79806 21.67 3.95473 21.67 4.10806C21.67 4.25473 21.6967 4.4114 21.75 4.57806C21.7967 4.73806 21.89 4.87806 22.03 4.99806ZM28.56 4.28806C28.84 4.16807 29.1333 4.14806 29.44 4.22806C29.7467 4.31473 30.0033 4.46473 30.21 4.67806C30.4033 4.8914 30.5367 5.15473 30.61 5.46806C30.6767 5.7814 30.6467 6.07473 30.52 6.34806C30.5467 6.04806 30.5233 5.75473 30.45 5.46806C30.3833 5.17473 30.2667 4.94473 30.1 4.77806C29.94 4.6114 29.7167 4.48473 29.43 4.39806C29.15 4.30473 28.86 4.26806 28.56 4.28806ZM26.19 5.16806C26.2833 4.9614 26.4433 4.78473 26.67 4.63806C26.89 4.4914 27.1167 4.42473 27.35 4.43806C27.5833 4.45806 27.8 4.5614 28 4.74806C28.1933 4.93473 28.32 5.1414 28.38 5.36806C28.2467 5.1814 28.0833 5.0414 27.89 4.94806C27.7033 4.85473 27.5167 4.79806 27.33 4.77806C27.1433 4.75806 26.9467 4.77806 26.74 4.83806C26.5333 4.89806 26.35 5.00806 26.19 5.16806ZM24.96 4.71806C25.0467 4.63806 25.1667 4.5714 25.32 4.51806C25.4733 4.46473 25.6 4.46806 25.7 4.52806C25.8133 4.5814 25.89 4.68473 25.93 4.83806C25.9767 4.9914 25.9933 5.1314 25.98 5.25806C25.9533 5.1314 25.8967 5.03806 25.81 4.97806C25.7167 4.91806 25.63 4.8714 25.55 4.83806C25.4633 4.7914 25.3733 4.74806 25.28 4.70806C25.18 4.66806 25.0733 4.6714 24.96 4.71806ZM22.03 7.85806C21.77 7.76473 21.5467 7.5914 21.36 7.33806C21.1733 7.08473 21.08 6.81807 21.08 6.53806C21.08 6.25806 21.1733 5.99473 21.36 5.74806C21.5467 5.49473 21.77 5.3214 22.03 5.22806C21.8167 5.4014 21.66 5.60806 21.56 5.84806C21.4667 6.08806 21.42 6.31807 21.42 6.53806C21.42 6.76473 21.4667 6.99806 21.56 7.23806C21.66 7.4714 21.8167 7.67806 22.03 7.85806ZM28.57 5.47806C28.77 5.4314 28.9867 5.4414 29.22 5.50806C29.4533 5.57473 29.6233 5.6914 29.73 5.85806C29.8433 6.02473 29.89 6.22806 29.87 6.46806C29.8433 6.71473 29.77 6.91807 29.65 7.07806C29.7033 6.87807 29.7067 6.6914 29.66 6.51806C29.6067 6.33806 29.5367 6.1814 29.45 6.04806C29.3567 5.90806 29.24 5.78473 29.1 5.67806C28.9533 5.56473 28.7767 5.49806 28.57 5.47806ZM20.98 9.64806C20.7333 9.55473 20.5333 9.38806 20.38 9.14806C20.2333 8.9014 20.16 8.64806 20.16 8.38806C20.16 8.12806 20.2333 7.87806 20.38 7.63806C20.5333 7.3914 20.7333 7.2214 20.98 7.12806C20.78 7.29473 20.6167 7.49473 20.49 7.72806C20.3633 7.95473 20.3 8.17473 20.3 8.38806C20.3 8.6014 20.3633 8.82473 20.49 9.05806C20.6167 9.28473 20.78 9.4814 20.98 9.64806ZM25.46 7.21806C25.5067 7.2514 25.55 7.2914 25.59 7.33806C25.6167 7.2714 25.65 7.2114 25.69 7.15806C25.67 7.2514 25.66 7.33473 25.66 7.40806C25.7333 7.51473 25.7933 7.62806 25.84 7.74806C25.88 7.86806 25.8933 7.97807 25.88 8.07806C25.9 8.09807 25.9167 8.11806 25.93 8.13806C26.0233 8.2714 26.1433 8.38806 26.29 8.48806C26.4367 8.58807 26.6033 8.64473 26.79 8.65806C26.6367 8.70473 26.46 8.70806 26.26 8.66806C26.0533 8.63473 25.8867 8.5614 25.76 8.44806C25.6667 8.56806 25.5433 8.66806 25.39 8.74806C25.2433 8.82806 25.0967 8.86806 24.95 8.86806C25.1167 8.8014 25.2467 8.7014 25.34 8.56806C25.4333 8.42806 25.5033 8.28806 25.55 8.14806V8.12806C25.4833 7.9014 25.4867 7.66806 25.56 7.42806C25.54 7.34806 25.5067 7.27806 25.46 7.21806ZM29.71 7.29806C29.8833 7.3514 30.05 7.46473 30.21 7.63806C30.37 7.80473 30.4533 7.9814 30.46 8.16806C30.4733 8.35473 30.41 8.53806 30.27 8.71806C30.13 8.89806 29.97 9.02806 29.79 9.10806C29.93 8.97473 30.02 8.82473 30.06 8.65806C30.1067 8.4914 30.13 8.3314 30.13 8.17806C30.1167 8.0314 30.08 7.87473 30.02 7.70806C29.96 7.54806 29.8567 7.4114 29.71 7.29806ZM22.03 10.7681C21.77 10.6747 21.5433 10.4981 21.35 10.2381C21.15 9.97806 21.05 9.70806 21.05 9.42806C21.05 9.14806 21.15 8.87807 21.35 8.61806C21.5433 8.3514 21.77 8.1714 22.03 8.07806C21.8167 8.25807 21.6567 8.4714 21.55 8.71806C21.4433 8.96473 21.39 9.2014 21.39 9.42806C21.39 9.64806 21.4433 9.88473 21.55 10.1381C21.6567 10.3847 21.8167 10.5947 22.03 10.7681ZM25.44 10.0281C25.4067 9.95473 25.3867 9.8714 25.38 9.77806C25.3333 9.82473 25.2867 9.86473 25.24 9.89806C25.3067 9.80473 25.33 9.7114 25.31 9.61806C25.29 9.51806 25.2667 9.42473 25.24 9.33806C25.22 9.25806 25.1933 9.1714 25.16 9.07806C25.12 8.98473 25.05 8.91473 24.95 8.86806C25.0433 8.87473 25.1433 8.9014 25.25 8.94806C25.3567 8.99473 25.4367 9.05473 25.49 9.12806C25.5367 9.03473 25.5933 8.96473 25.66 8.91806C25.8 8.79806 25.9833 8.73806 26.21 8.73806C26.4433 8.73806 26.6367 8.78473 26.79 8.87806C26.6033 8.8514 26.4333 8.8714 26.28 8.93806C26.1267 9.00473 25.99 9.08473 25.87 9.17806C25.7567 9.2714 25.6567 9.38806 25.57 9.52806C25.4833 9.67473 25.44 9.8414 25.44 10.0281ZM29.78 9.36806C29.9467 9.50807 30.0733 9.69806 30.16 9.93806C30.2467 10.1781 30.26 10.3947 30.2 10.5881C30.12 10.7947 29.9733 10.9647 29.76 11.0981C29.5467 11.2314 29.3333 11.3047 29.12 11.3181C29.3267 11.2314 29.49 11.1114 29.61 10.9581C29.73 10.8047 29.8167 10.6481 29.87 10.4881C29.93 10.3214 29.9567 10.1414 29.95 9.94806C29.9433 9.74806 29.8867 9.55473 29.78 9.36806ZM21.53 12.9081C21.1967 12.8481 20.9067 12.6781 20.66 12.3981C20.42 12.1181 20.27 11.8047 20.21 11.4581C20.1567 11.1114 20.1967 10.7647 20.33 10.4181C20.47 10.0714 20.6867 9.81473 20.98 9.64806C20.76 9.90806 20.59 10.2014 20.47 10.5281C20.3433 10.8547 20.3033 11.1547 20.35 11.4281C20.3967 11.7081 20.53 11.9814 20.75 12.2481C20.97 12.5147 21.23 12.7347 21.53 12.9081ZM23.25 12.0581C23.1033 12.1447 22.9267 12.1881 22.72 12.1881C22.5133 12.1881 22.3467 12.1314 22.22 12.0181C22.0867 11.9047 22.0067 11.7447 21.98 11.5381C21.9533 11.3314 21.97 11.1514 22.03 10.9981C22.03 11.1647 22.0733 11.3114 22.16 11.4381C22.2467 11.5714 22.34 11.6814 22.44 11.7681C22.54 11.8614 22.66 11.9381 22.8 11.9981C22.9333 12.0647 23.0833 12.0847 23.25 12.0581ZM25.06 11.4381C25.0667 11.6247 25.02 11.8147 24.92 12.0081C24.8133 12.2014 24.6767 12.3247 24.51 12.3781C24.3433 12.4447 24.1567 12.4414 23.95 12.3681C23.7433 12.2947 23.5867 12.1914 23.48 12.0581C23.6333 12.1447 23.79 12.1814 23.95 12.1681C24.11 12.1614 24.2567 12.1281 24.39 12.0681C24.53 12.0214 24.6633 11.9514 24.79 11.8581C24.91 11.7581 25 11.6181 25.06 11.4381ZM28.98 11.4881C28.9867 11.6747 28.9433 11.8647 28.85 12.0581C28.75 12.2514 28.6167 12.3881 28.45 12.4681C28.2767 12.5414 28.0867 12.5447 27.88 12.4781C27.6667 12.4114 27.4967 12.3147 27.37 12.1881C27.5367 12.2681 27.7 12.2981 27.86 12.2781C28.0267 12.2647 28.18 12.2247 28.32 12.1581C28.4533 12.0981 28.58 12.0147 28.7 11.9081C28.8267 11.8014 28.92 11.6614 28.98 11.4881ZM27.14 12.1981C27.0133 12.3647 26.8333 12.4914 26.6 12.5781C26.3667 12.6581 26.1467 12.6681 25.94 12.6081C25.7467 12.5414 25.58 12.4014 25.44 12.1881C25.3067 11.9814 25.2367 11.7714 25.23 11.5581C25.31 11.7514 25.4267 11.9081 25.58 12.0281C25.7333 12.1481 25.89 12.2314 26.05 12.2781C26.21 12.3381 26.3867 12.3681 26.58 12.3681C26.78 12.3681 26.9667 12.3114 27.14 12.1981ZM29.99 11.9081C30.0233 12.2414 29.9367 12.5581 29.73 12.8581C29.53 13.1581 29.28 13.3781 28.98 13.5181C28.6733 13.6581 28.34 13.7081 27.98 13.6681C27.62 13.6281 27.3233 13.4881 27.09 13.2481C27.3967 13.3881 27.7167 13.4747 28.05 13.5081C28.3767 13.5414 28.6633 13.5014 28.91 13.3881C29.1633 13.2747 29.3833 13.0814 29.57 12.8081C29.7633 12.5347 29.9033 12.2347 29.99 11.9081ZM31.3 0.958065C31.4533 0.631398 31.7 0.384731 32.04 0.218065C32.38 0.0447312 32.7267 -0.0252688 33.08 0.00806451C33.4467 0.0347312 33.7833 0.158065 34.09 0.378065C34.3967 0.604731 34.5967 0.891398 34.69 1.23806C34.4833 0.938064 34.2333 0.684731 33.94 0.478065C33.6467 0.271398 33.36 0.161398 33.08 0.148065C32.7933 0.114731 32.4867 0.174731 32.16 0.328064C31.84 0.488064 31.5533 0.698065 31.3 0.958065ZM32.84 1.97806C32.9467 1.87806 33.0833 1.79806 33.25 1.73806C33.4167 1.68473 33.56 1.68473 33.68 1.73806C33.8133 1.79806 33.9133 1.90806 33.98 2.06806C34.04 2.23473 34.0667 2.38806 34.06 2.52806C34.02 2.39473 33.95 2.29473 33.85 2.22806C33.75 2.15473 33.6533 2.09473 33.56 2.04806C33.4533 2.0014 33.34 1.96473 33.22 1.93806C33.1 1.9114 32.9733 1.92473 32.84 1.97806ZM31.36 3.01806C31.3133 2.83806 31.3167 2.63473 31.37 2.40806C31.43 2.18806 31.5367 2.0214 31.69 1.90806C31.85 1.80806 32.0467 1.76473 32.28 1.77806C32.5067 1.79806 32.6933 1.86473 32.84 1.97806C32.6667 1.9314 32.4933 1.93473 32.32 1.98806C32.1533 2.03473 32.01 2.1014 31.89 2.18806C31.7567 2.2814 31.64 2.39473 31.54 2.52806C31.44 2.66806 31.38 2.8314 31.36 3.01806ZM30.24 5.64806C29.9333 5.52806 29.69 5.3114 29.51 4.99806C29.33 4.6914 29.2467 4.3714 29.26 4.03806C29.26 3.69806 29.3567 3.3814 29.55 3.08806C29.7367 2.78806 29.99 2.5814 30.31 2.46806C30.05 2.6814 29.8333 2.9314 29.66 3.21806C29.4867 3.50473 29.4 3.77806 29.4 4.03806C29.3867 4.30473 29.46 4.58473 29.62 4.87806C29.78 5.16473 29.9867 5.4214 30.24 5.64806ZM34.06 2.74806C34.1533 2.88806 34.2033 3.0614 34.21 3.26806C34.2233 3.47473 34.1767 3.64806 34.07 3.78806C33.97 3.91473 33.8167 3.99806 33.61 4.03806C33.4033 4.0714 33.2233 4.0614 33.07 4.00806C33.2367 4.0014 33.38 3.9514 33.5 3.85806C33.62 3.7714 33.7233 3.67806 33.81 3.57806C33.89 3.46473 33.9633 3.3414 34.03 3.20806C34.09 3.06806 34.1 2.91473 34.06 2.74806ZM32.84 4.00806C32.7133 4.12806 32.5467 4.21473 32.34 4.26806C32.1333 4.3214 31.95 4.30473 31.79 4.21806C31.63 4.1314 31.5133 3.9914 31.44 3.79806C31.3667 3.60473 31.34 3.41806 31.36 3.23806C31.3933 3.40473 31.47 3.54473 31.59 3.65806C31.7033 3.7714 31.8233 3.8614 31.95 3.92806C32.0767 3.98806 32.2167 4.03473 32.37 4.06806C32.5233 4.09473 32.68 4.07473 32.84 4.00806ZM32.41 5.19806C32.57 5.06473 32.77 4.97806 33.01 4.93806C33.25 4.89806 33.4633 4.92806 33.65 5.02806C33.83 5.1414 33.9633 5.31473 34.05 5.54806C34.1433 5.7814 34.17 6.0014 34.13 6.20806C34.09 6.0014 34.0067 5.82473 33.88 5.67806C33.76 5.52473 33.63 5.40806 33.49 5.32806C33.3367 5.2414 33.1667 5.17806 32.98 5.13806C32.7933 5.10473 32.6033 5.12473 32.41 5.19806ZM31.29 6.14806C31.2233 6.02806 31.19 5.87806 31.19 5.69806C31.19 5.52473 31.2367 5.3914 31.33 5.29806C31.4233 5.1914 31.5567 5.13473 31.73 5.12806C31.9033 5.1214 32.0533 5.14473 32.18 5.19806C32.04 5.1914 31.9233 5.2214 31.83 5.28806C31.73 5.3614 31.6433 5.43806 31.57 5.51806C31.4967 5.60473 31.4267 5.69473 31.36 5.78806C31.2933 5.88806 31.27 6.00806 31.29 6.14806ZM31.29 8.14806C31.11 8.08806 30.95 7.9714 30.81 7.79806C30.6633 7.62473 30.59 7.44473 30.59 7.25806C30.59 7.0714 30.6633 6.89473 30.81 6.72806C30.95 6.55473 31.11 6.43806 31.29 6.37806C31.15 6.49806 31.0533 6.63806 31 6.79806C30.9467 6.9514 30.92 7.10473 30.92 7.25806C30.92 7.40473 30.9467 7.5614 31 7.72806C31.0533 7.88806 31.15 8.02806 31.29 8.14806ZM34.13 6.42806C34.3367 6.5014 34.52 6.6414 34.68 6.84806C34.8467 7.05473 34.93 7.26473 34.93 7.47806C34.93 7.70473 34.8467 7.9214 34.68 8.12806C34.52 8.32806 34.3367 8.46806 34.13 8.54806C34.2967 8.40806 34.4167 8.23806 34.49 8.03806C34.5567 7.84473 34.59 7.65806 34.59 7.47806C34.59 7.30473 34.5567 7.1214 34.49 6.92806C34.4167 6.73473 34.2967 6.56806 34.13 6.42806ZM35.18 6.65806C35.4667 6.75806 35.6967 6.94806 35.87 7.22806C36.0367 7.50806 36.12 7.79806 36.12 8.09806C36.12 8.40473 36.0367 8.69806 35.87 8.97806C35.6967 9.25806 35.4667 9.44806 35.18 9.54806C35.4133 9.35473 35.6033 9.12473 35.75 8.85806C35.9033 8.5914 35.98 8.33806 35.98 8.09806C35.98 7.8514 35.9033 7.59806 35.75 7.33806C35.6033 7.07806 35.4133 6.8514 35.18 6.65806ZM34.13 8.76806C34.3433 8.8414 34.5333 8.98473 34.7 9.19806C34.8733 9.40473 34.96 9.62473 34.96 9.85806C34.96 10.0847 34.8733 10.3014 34.7 10.5081C34.5333 10.7214 34.3433 10.8647 34.13 10.9381C34.31 10.7981 34.4367 10.6281 34.51 10.4281C34.5833 10.2281 34.62 10.0381 34.62 9.85806C34.62 9.6714 34.5833 9.4814 34.51 9.28806C34.4367 9.08807 34.31 8.91473 34.13 8.76806ZM31.29 11.3881C31.0433 11.3014 30.83 11.1381 30.65 10.8981C30.47 10.6647 30.38 10.4214 30.38 10.1681C30.38 9.90806 30.47 9.65806 30.65 9.41806C30.83 9.17806 31.0433 9.01806 31.29 8.93806C31.09 9.10473 30.9433 9.29806 30.85 9.51806C30.7567 9.73806 30.71 9.95473 30.71 10.1681C30.71 10.3747 30.7567 10.5881 30.85 10.8081C30.9433 11.0281 31.09 11.2214 31.29 11.3881ZM34.13 11.1581C34.1833 11.2847 34.21 11.4347 34.21 11.6081C34.21 11.7747 34.1633 11.9047 34.07 11.9981C33.9767 12.0914 33.8433 12.1381 33.67 12.1381C33.5033 12.1381 33.3567 12.1114 33.23 12.0581C33.3633 12.0647 33.48 12.0381 33.58 11.9781C33.6733 11.9114 33.76 11.8414 33.84 11.7681C33.9133 11.6881 33.9833 11.6014 34.05 11.5081C34.11 11.4081 34.1367 11.2914 34.13 11.1581ZM32.58 13.1081C32.3067 13.2681 32.0033 13.3281 31.67 13.2881C31.33 13.2414 31.04 13.1147 30.8 12.9081C30.5467 12.7147 30.3633 12.4581 30.25 12.1381C30.1367 11.8247 30.1333 11.5181 30.24 11.2181C30.2467 11.5381 30.3067 11.8447 30.42 12.1381C30.5333 12.4314 30.6867 12.6581 30.88 12.8181C31.08 12.9714 31.3333 13.0714 31.64 13.1181C31.9467 13.1647 32.26 13.1614 32.58 13.1081ZM33.01 12.0581C32.91 12.2181 32.76 12.3481 32.56 12.4481C32.3533 12.5414 32.1567 12.5647 31.97 12.5181C31.7967 12.4714 31.6433 12.3547 31.51 12.1681C31.3833 11.9814 31.31 11.7947 31.29 11.6081C31.37 11.7747 31.4833 11.9047 31.63 11.9981C31.7767 12.0847 31.92 12.1481 32.06 12.1881C32.2067 12.2214 32.3633 12.2347 32.53 12.2281C32.7033 12.2281 32.8633 12.1714 33.01 12.0581ZM34.76 3.93806C34.5533 3.74473 34.4333 3.49473 34.4 3.18806C34.36 2.88806 34.3967 2.6114 34.51 2.35806C34.63 2.09806 34.8167 1.8814 35.07 1.70806C35.3233 1.5414 35.59 1.46806 35.87 1.48806C35.5967 1.57473 35.3467 1.69806 35.12 1.85806C34.8867 2.02473 34.73 2.20806 34.65 2.40806C34.5567 2.61473 34.52 2.85806 34.54 3.13806C34.5667 3.41806 34.64 3.68473 34.76 3.93806ZM36.71 2.53806C36.77 2.35806 36.8867 2.19806 37.06 2.05806C37.2333 1.9114 37.4133 1.83806 37.6 1.83806C37.7867 1.83806 37.9667 1.9114 38.14 2.05806C38.3133 2.2114 38.4333 2.37473 38.5 2.54806C38.38 2.4014 38.2367 2.3014 38.07 2.24806C37.91 2.2014 37.7533 2.17806 37.6 2.17806C37.4533 2.17806 37.2967 2.2014 37.13 2.24806C36.97 2.3014 36.83 2.39806 36.71 2.53806ZM35.81 4.27806C35.6633 4.14473 35.55 3.96806 35.47 3.74806C35.3967 3.52806 35.3967 3.32473 35.47 3.13806C35.5367 2.96473 35.6733 2.8214 35.88 2.70806C36.0867 2.59473 36.2867 2.53806 36.48 2.53806C36.2933 2.60473 36.1433 2.70473 36.03 2.83806C35.9233 2.9714 35.84 3.11473 35.78 3.26806C35.7267 3.41473 35.6933 3.57806 35.68 3.75806C35.6733 3.9314 35.7167 4.10473 35.81 4.27806ZM38.6 2.75806C38.82 2.84473 39.0133 2.99473 39.18 3.20806C39.3533 3.4214 39.44 3.64473 39.44 3.87806C39.44 4.1114 39.3533 4.33806 39.18 4.55806C39.0133 4.7714 38.82 4.91806 38.6 4.99806C38.7733 4.8514 38.9 4.67473 38.98 4.46806C39.06 4.2614 39.1 4.06473 39.1 3.87806C39.1 3.6914 39.06 3.49806 38.98 3.29806C38.9 3.0914 38.7733 2.9114 38.6 2.75806ZM39.65 3.86806C39.77 3.60806 39.9667 3.4114 40.24 3.27806C40.5133 3.1514 40.79 3.1014 41.07 3.12806C41.3633 3.1614 41.63 3.2714 41.87 3.45806C42.1033 3.64473 42.2567 3.87473 42.33 4.14806C42.1767 3.91473 41.9833 3.71806 41.75 3.55806C41.5233 3.3914 41.2933 3.29473 41.06 3.26806C40.8333 3.24806 40.5933 3.29473 40.34 3.40806C40.08 3.5214 39.85 3.67473 39.65 3.86806ZM40.22 5.33806C40.2867 5.12473 40.4167 4.92473 40.61 4.73806C40.81 4.55806 41.0267 4.46473 41.26 4.45806C41.48 4.43806 41.7 4.50473 41.92 4.65806C42.14 4.8114 42.2967 4.9914 42.39 5.19806C42.23 5.0314 42.05 4.91806 41.85 4.85806C41.65 4.79806 41.4567 4.77473 41.27 4.78806C41.09 4.8014 40.9033 4.84806 40.71 4.92806C40.5167 5.01473 40.3533 5.1514 40.22 5.33806ZM35.81 6.56806C35.6033 6.49473 35.42 6.35806 35.26 6.15806C35.1067 5.95807 35.03 5.7514 35.03 5.53806C35.03 5.31807 35.1067 5.10806 35.26 4.90806C35.42 4.70807 35.6033 4.5714 35.81 4.49806C35.6433 4.63806 35.5267 4.8014 35.46 4.98806C35.3933 5.17473 35.36 5.35807 35.36 5.53806C35.36 5.7114 35.3933 5.8914 35.46 6.07806C35.5267 6.26473 35.6433 6.42806 35.81 6.56806ZM42.39 5.19806C42.51 5.20473 42.6433 5.2514 42.79 5.33806C42.9367 5.42473 43.0267 5.52806 43.06 5.64806C43.0867 5.76806 43.06 5.9014 42.98 6.04806C42.8933 6.18806 42.8 6.29806 42.7 6.37806C42.7733 6.26473 42.8033 6.15473 42.79 6.04806C42.7767 5.9414 42.7567 5.83473 42.73 5.72806C42.71 5.63473 42.6767 5.53806 42.63 5.43806C42.5833 5.3314 42.5033 5.2514 42.39 5.19806ZM38.6 7.23806C38.4867 7.02473 38.4367 6.7814 38.45 6.50806C38.4633 6.23473 38.55 6.00473 38.71 5.81806C38.7633 5.75806 38.8233 5.70473 38.89 5.65806C38.8367 5.48473 38.74 5.3414 38.6 5.22806C38.7733 5.29473 38.93 5.40473 39.07 5.55806C39.4167 5.40473 39.7633 5.3914 40.11 5.51806C39.9433 5.51806 39.7833 5.54473 39.63 5.59806C39.4833 5.6514 39.35 5.71806 39.23 5.79806C39.2767 5.9114 39.3 6.01806 39.3 6.11806C39.3 6.30473 39.2267 6.48473 39.08 6.65806C38.9333 6.8314 38.7733 6.9514 38.6 7.01806C38.74 6.89806 38.8333 6.75473 38.88 6.58806C38.9333 6.42806 38.96 6.2714 38.96 6.11806C38.96 6.0914 38.96 6.06473 38.96 6.03806C38.84 6.18473 38.74 6.36473 38.66 6.57806C38.58 6.78473 38.56 7.00473 38.6 7.23806ZM42.57 6.55806C42.69 6.72473 42.76 6.93473 42.78 7.18806C42.8 7.4414 42.75 7.65473 42.63 7.82806C42.51 8.00807 42.3233 8.1314 42.07 8.19806C41.8233 8.2714 41.6 8.27806 41.4 8.21806C41.6133 8.20473 41.8 8.13806 41.96 8.01806C42.1267 7.90473 42.2567 7.77806 42.35 7.63806C42.45 7.49806 42.5267 7.33473 42.58 7.14806C42.6333 6.9614 42.63 6.76473 42.57 6.55806ZM35.81 9.03806C35.5833 8.9514 35.3867 8.8014 35.22 8.58806C35.0533 8.37473 34.97 8.1514 34.97 7.91806C34.97 7.68473 35.0533 7.45806 35.22 7.23806C35.3867 7.02473 35.5833 6.87806 35.81 6.79806C35.63 6.94473 35.5 7.1214 35.42 7.32806C35.3467 7.53473 35.31 7.7314 35.31 7.91806C35.31 8.10473 35.3467 8.29806 35.42 8.49806C35.5 8.70473 35.63 8.88473 35.81 9.03806ZM34.76 10.3181C34.4533 10.2114 34.21 10.0047 34.03 9.69806C33.8433 9.39806 33.75 9.08473 33.75 8.75806C33.75 8.4314 33.8433 8.11473 34.03 7.80806C34.21 7.50806 34.4533 7.3014 34.76 7.18806C34.5067 7.4014 34.3 7.6514 34.14 7.93806C33.9733 8.21806 33.89 8.4914 33.89 8.75806C33.89 9.01806 33.9733 9.28806 34.14 9.56806C34.3 9.85473 34.5067 10.1047 34.76 10.3181ZM42.98 7.77806C43.3333 7.75806 43.6633 7.85807 43.97 8.07806C44.2767 8.29807 44.5 8.5714 44.64 8.89806C44.78 9.22473 44.8267 9.57473 44.78 9.94806C44.7267 10.3214 44.5733 10.6281 44.32 10.8681C44.48 10.5481 44.58 10.2147 44.62 9.86806C44.6667 9.51473 44.6333 9.20807 44.52 8.94806C44.4 8.68806 44.1967 8.4514 43.91 8.23806C43.6233 8.0314 43.3133 7.87806 42.98 7.77806ZM41.47 8.40806C41.6833 8.3614 41.9133 8.37806 42.16 8.45806C42.4067 8.5314 42.59 8.6614 42.71 8.84806C42.83 9.03473 42.8767 9.2614 42.85 9.52806C42.8233 9.78806 42.7433 10.0047 42.61 10.1781C42.6767 9.96473 42.6867 9.75806 42.64 9.55806C42.5933 9.35806 42.5233 9.18473 42.43 9.03806C42.33 8.88473 42.1967 8.74806 42.03 8.62806C41.87 8.50806 41.6833 8.43473 41.47 8.40806ZM35.81 11.4981C35.5833 11.4114 35.3867 11.2614 35.22 11.0481C35.0533 10.8347 34.97 10.6114 34.97 10.3781C34.97 10.1447 35.0533 9.9214 35.22 9.70806C35.3867 9.49473 35.5833 9.34473 35.81 9.25806C35.63 9.40473 35.5 9.5814 35.42 9.78806C35.3467 9.99473 35.31 10.1914 35.31 10.3781C35.31 10.5647 35.3467 10.7614 35.42 10.9681C35.5 11.1747 35.63 11.3514 35.81 11.4981ZM39.67 10.6881C39.5767 10.7614 39.46 10.8214 39.32 10.8681C39.1733 10.9147 39.04 10.9181 38.92 10.8781C38.9867 11.1047 38.98 11.3014 38.9 11.4681C38.8267 11.6547 38.6867 11.8014 38.48 11.9081C38.2667 12.0147 38.0633 12.0647 37.87 12.0581C38.0567 12.0047 38.21 11.9081 38.33 11.7681C38.45 11.6347 38.54 11.4947 38.6 11.3481C38.6467 11.2414 38.6767 11.1314 38.69 11.0181C38.71 10.9114 38.7167 10.7947 38.71 10.6681C38.6033 10.4947 38.5667 10.3047 38.6 10.0981C38.6267 10.2181 38.6833 10.3147 38.77 10.3881C38.8567 10.4547 38.9467 10.5114 39.04 10.5581C39.1267 10.6181 39.2233 10.6647 39.33 10.6981C39.4367 10.7381 39.55 10.7347 39.67 10.6881ZM42.74 10.3681C42.9333 10.3281 43.1433 10.3481 43.37 10.4281C43.5967 10.5081 43.76 10.6314 43.86 10.7981C43.96 10.9647 43.9933 11.1681 43.96 11.4081C43.92 11.6481 43.84 11.8447 43.72 11.9981C43.7867 11.8047 43.8 11.6181 43.76 11.4381C43.7133 11.2647 43.65 11.1114 43.57 10.9781C43.4833 10.8381 43.3733 10.7114 43.24 10.5981C43.1 10.4781 42.9333 10.4014 42.74 10.3681ZM41.49 12.0581C41.3167 12.1914 41.1 12.2647 40.84 12.2781C40.5867 12.2981 40.37 12.2447 40.19 12.1181C40.0167 11.9914 39.89 11.8047 39.81 11.5581C39.7367 11.3114 39.73 11.0814 39.79 10.8681C39.8033 11.0947 39.87 11.2881 39.99 11.4481C40.1033 11.6147 40.2367 11.7447 40.39 11.8381C40.53 11.9381 40.6967 12.0147 40.89 12.0681C41.09 12.1147 41.29 12.1114 41.49 12.0581ZM37.64 12.0581C37.5467 12.2247 37.4 12.3681 37.2 12.4881C36.9933 12.6014 36.79 12.6414 36.59 12.6081C36.4033 12.5681 36.2367 12.4581 36.09 12.2781C35.9433 12.1047 35.85 11.9181 35.81 11.7181C35.9033 11.8914 36.03 12.0214 36.19 12.1081C36.35 12.1947 36.5067 12.2514 36.66 12.2781C36.8133 12.3114 36.9767 12.3114 37.15 12.2781C37.33 12.2514 37.4933 12.1781 37.64 12.0581ZM43.5 12.0581C43.4333 12.2381 43.3167 12.3981 43.15 12.5381C42.9767 12.6847 42.7967 12.7581 42.61 12.7581C42.4233 12.7581 42.2433 12.6847 42.07 12.5381C41.9033 12.3981 41.7867 12.2381 41.72 12.0581C41.84 12.1981 41.98 12.2947 42.14 12.3481C42.3067 12.3947 42.4633 12.4181 42.61 12.4181C42.7633 12.4181 42.92 12.3947 43.08 12.3481C43.2333 12.2947 43.3733 12.1981 43.5 12.0581ZM41 13.1081C40.9 13.3881 40.7133 13.6114 40.44 13.7781C40.16 13.9447 39.8733 14.0281 39.58 14.0281C39.28 14.0281 38.99 13.9447 38.71 13.7781C38.4367 13.6114 38.25 13.3881 38.15 13.1081C38.3433 13.3414 38.57 13.5314 38.83 13.6781C39.0833 13.8181 39.3333 13.8881 39.58 13.8881C39.82 13.8881 40.0667 13.8181 40.32 13.6781C40.58 13.5314 40.8067 13.3414 41 13.1081ZM50.45 1.62806C50.61 1.29473 50.8667 1.03806 51.22 0.858065C51.5667 0.678065 51.9267 0.604731 52.3 0.638064C52.6733 0.664731 53.0233 0.788064 53.35 1.00806C53.67 1.23473 53.88 1.52473 53.98 1.87806C53.7667 1.57806 53.5067 1.32473 53.2 1.11806C52.8933 0.904731 52.59 0.791398 52.29 0.778065C51.9967 0.744731 51.6833 0.814731 51.35 0.988064C51.0167 1.15473 50.7167 1.36806 50.45 1.62806ZM49.35 2.67806C49.4167 2.48473 49.5433 2.30806 49.73 2.14806C49.9167 1.99473 50.11 1.91806 50.31 1.91806C50.5167 1.91806 50.7167 1.99473 50.91 2.14806C51.1033 2.30806 51.23 2.48473 51.29 2.67806C51.1633 2.51806 51.01 2.40806 50.83 2.34806C50.6567 2.28806 50.4833 2.25806 50.31 2.25806C50.1567 2.25806 49.99 2.28806 49.81 2.34806C49.63 2.40806 49.4767 2.51806 49.35 2.67806ZM51.52 2.67806C51.62 2.46473 51.79 2.2814 52.03 2.12806C52.27 1.9814 52.51 1.9214 52.75 1.94806C52.99 1.97473 53.2133 2.08806 53.42 2.28806C53.62 2.4814 53.7467 2.69473 53.8 2.92806C53.66 2.7214 53.4933 2.56806 53.3 2.46806C53.1 2.36806 52.9033 2.30806 52.71 2.28806C52.5233 2.26806 52.3233 2.28473 52.11 2.33806C51.89 2.39806 51.6933 2.5114 51.52 2.67806ZM47.56 3.45806C47.5467 3.25806 47.5933 3.04806 47.7 2.82806C47.8067 2.60806 47.9533 2.4614 48.14 2.38806C48.3267 2.3014 48.5367 2.2914 48.77 2.35806C49.0033 2.42473 49.1967 2.5314 49.35 2.67806C49.1633 2.58473 48.9767 2.54806 48.79 2.56806C48.6033 2.58806 48.4333 2.62806 48.28 2.68806C48.1333 2.75473 47.99 2.8514 47.85 2.97806C47.71 3.10473 47.6133 3.26473 47.56 3.45806ZM54.01 2.99806C54.1567 2.89806 54.3433 2.83806 54.57 2.81806C54.7967 2.79806 54.9833 2.84473 55.13 2.95806C55.2767 3.0714 55.3767 3.23473 55.43 3.44806C55.4833 3.6614 55.4867 3.85806 55.44 4.03806C55.4267 3.85806 55.37 3.7014 55.27 3.56806C55.17 3.43473 55.0567 3.3214 54.93 3.22806C54.81 3.1414 54.67 3.0714 54.51 3.01806C54.3567 2.95806 54.19 2.9514 54.01 2.99806ZM47.56 5.90806C47.3333 5.83473 47.1367 5.6914 46.97 5.47806C46.8033 5.26473 46.72 5.0414 46.72 4.80806C46.72 4.5614 46.8033 4.3314 46.97 4.11806C47.1367 3.90473 47.3333 3.7614 47.56 3.68806C47.38 3.83473 47.25 4.00806 47.17 4.20806C47.09 4.40806 47.05 4.60806 47.05 4.80806C47.05 4.99473 47.09 5.18806 47.17 5.38806C47.25 5.58806 47.38 5.7614 47.56 5.90806ZM46.51 6.18806C46.2767 6.10806 46.09 5.95473 45.95 5.72806C45.81 5.50806 45.74 5.27473 45.74 5.02806C45.74 4.77473 45.81 4.53806 45.95 4.31806C46.09 4.0914 46.2767 3.93806 46.51 3.85806C46.3233 4.0114 46.17 4.19473 46.05 4.40806C45.9367 4.61473 45.88 4.8214 45.88 5.02806C45.88 5.22806 45.9367 5.4314 46.05 5.63806C46.17 5.8514 46.3233 6.03473 46.51 6.18806ZM55.56 4.22806C55.7867 4.26806 56.0033 4.3814 56.21 4.56806C56.4167 4.75473 56.5367 4.96473 56.57 5.19806C56.6167 5.4314 56.5733 5.66807 56.44 5.90806C56.3067 6.15473 56.1367 6.33473 55.93 6.44806C56.09 6.26806 56.19 6.0714 56.23 5.85806C56.27 5.64473 56.2767 5.44473 56.25 5.25806C56.21 5.0714 56.1367 4.88473 56.03 4.69806C55.9167 4.5114 55.76 4.35473 55.56 4.22806ZM51.84 6.83806C51.8 6.7914 51.7667 6.73806 51.74 6.67806C51.7067 6.73806 51.67 6.7914 51.63 6.83806C51.6567 6.76473 51.6767 6.68473 51.69 6.59806C51.5767 6.36473 51.5467 6.14473 51.6 5.93806C51.58 5.88473 51.5567 5.83473 51.53 5.78806C51.51 5.74806 51.4867 5.71473 51.46 5.68806C51.3333 5.6614 51.21 5.59806 51.09 5.49806C50.9767 5.39806 50.88 5.28806 50.8 5.16806C50.7733 5.14806 50.7433 5.13806 50.71 5.13806C50.7367 5.1314 50.7633 5.12806 50.79 5.12806C50.75 5.05473 50.7233 4.98473 50.71 4.91806C50.7633 5.00473 50.8267 5.07473 50.9 5.12806C51.1533 5.13473 51.3767 5.21473 51.57 5.36806C51.7233 5.37473 51.88 5.3614 52.04 5.32806C52.1933 5.28806 52.3333 5.20806 52.46 5.08806C52.4133 5.18806 52.3433 5.28473 52.25 5.37806C52.39 5.34473 52.5233 5.3414 52.65 5.36806C52.4767 5.39473 52.3333 5.46473 52.22 5.57806C52.1067 5.6914 52.0167 5.8114 51.95 5.93806C51.9433 5.95806 51.93 5.97806 51.91 5.99806C51.93 6.1914 51.8867 6.38806 51.78 6.58806C51.7933 6.6814 51.8133 6.76473 51.84 6.83806ZM47.56 8.20806C47.3533 8.13473 47.17 7.99806 47.01 7.79806C46.85 7.59806 46.77 7.38806 46.77 7.16806C46.77 6.95473 46.85 6.74806 47.01 6.54806C47.17 6.34806 47.3533 6.2114 47.56 6.13806C47.3867 6.27806 47.27 6.4414 47.21 6.62806C47.1433 6.81473 47.11 6.99473 47.11 7.16806C47.11 7.34806 47.1433 7.5314 47.21 7.71806C47.27 7.90473 47.3867 8.06806 47.56 8.20806ZM57.01 6.17806C57.25 6.4514 57.38 6.77806 57.4 7.15806C57.42 7.53806 57.3433 7.88473 57.17 8.19806C57.0033 8.5114 56.7567 8.76806 56.43 8.96806C56.0967 9.1614 55.7567 9.23473 55.41 9.18806C55.7567 9.11473 56.08 8.98473 56.38 8.79806C56.6867 8.6114 56.91 8.3914 57.05 8.13806C57.1767 7.88473 57.2367 7.57806 57.23 7.21806C57.2233 6.85806 57.15 6.5114 57.01 6.17806ZM46.51 9.21806C46.21 9.10473 45.97 8.90473 45.79 8.61806C45.6167 8.32473 45.53 8.0214 45.53 7.70806C45.53 7.38806 45.6167 7.08473 45.79 6.79806C45.97 6.50473 46.21 6.3014 46.51 6.18806C46.2633 6.39473 46.06 6.63473 45.9 6.90806C45.7467 7.18807 45.67 7.45473 45.67 7.70806C45.67 7.95473 45.7467 8.21806 45.9 8.49806C46.06 8.7714 46.2633 9.0114 46.51 9.21806ZM55.9 6.66806C56.02 6.82806 56.0933 7.02806 56.12 7.26806C56.1533 7.5014 56.1167 7.7014 56.01 7.86806C55.8967 8.04807 55.7267 8.1714 55.5 8.23806C55.2733 8.3114 55.06 8.32806 54.86 8.28806C55.06 8.2614 55.2333 8.1914 55.38 8.07806C55.52 7.95807 55.6333 7.83473 55.72 7.70806C55.8133 7.56806 55.88 7.40806 55.92 7.22806C55.96 7.04806 55.9533 6.8614 55.9 6.66806ZM54.68 8.40806C54.6533 8.66807 54.5467 8.9114 54.36 9.13806C54.1733 9.36473 53.9533 9.5114 53.7 9.57806C53.46 9.64473 53.2033 9.61806 52.93 9.49806C52.65 9.37806 52.44 9.21473 52.3 9.00806C52.5067 9.15473 52.73 9.24473 52.97 9.27806C53.2033 9.3114 53.4233 9.30473 53.63 9.25806C53.83 9.20473 54.0233 9.10806 54.21 8.96806C54.4033 8.82806 54.56 8.6414 54.68 8.40806ZM47.56 10.5481C47.3533 10.4747 47.1667 10.3347 47 10.1281C46.84 9.9214 46.76 9.7114 46.76 9.49806C46.76 9.2714 46.84 9.05473 47 8.84806C47.1667 8.64806 47.3533 8.50806 47.56 8.42806C47.3867 8.56806 47.2667 8.73473 47.2 8.92806C47.1267 9.1214 47.09 9.3114 47.09 9.49806C47.09 9.6714 47.1267 9.85473 47.2 10.0481C47.2667 10.2414 47.3867 10.4081 47.56 10.5481ZM52.08 9.00806C52.1133 9.16806 52.1033 9.3414 52.05 9.52806C51.9967 9.7214 51.9033 9.86473 51.77 9.95806C51.63 10.0447 51.4633 10.0714 51.27 10.0381C51.07 10.0047 50.9067 9.93473 50.78 9.82806C50.9333 9.88807 51.08 9.89473 51.22 9.84806C51.3533 9.8014 51.4767 9.7414 51.59 9.66806C51.7033 9.6014 51.8067 9.51473 51.9 9.40806C52 9.3014 52.06 9.16806 52.08 9.00806ZM50.78 10.0581C50.9533 10.1247 51.1133 10.2414 51.26 10.4081C51.4067 10.5814 51.48 10.7614 51.48 10.9481C51.48 11.1347 51.4067 11.3147 51.26 11.4881C51.1133 11.6547 50.9533 11.7714 50.78 11.8381C50.92 11.7114 51.0133 11.5714 51.06 11.4181C51.1133 11.2581 51.14 11.1014 51.14 10.9481C51.14 10.8014 51.1133 10.6447 51.06 10.4781C51.0133 10.3181 50.92 10.1781 50.78 10.0581ZM48.28 12.0581C48.1267 12.0847 47.9567 12.0681 47.77 12.0081C47.59 11.9481 47.4633 11.8481 47.39 11.7081C47.3167 11.5747 47.3 11.4147 47.34 11.2281C47.38 11.0414 47.4533 10.8881 47.56 10.7681C47.5 10.9214 47.49 11.0614 47.53 11.1881C47.5633 11.3214 47.6133 11.4447 47.68 11.5581C47.74 11.6581 47.8167 11.7581 47.91 11.8581C48.0033 11.9647 48.1267 12.0314 48.28 12.0581ZM51.83 11.9581C51.83 12.3047 51.7167 12.6214 51.49 12.9081C51.2633 13.1881 50.9867 13.3914 50.66 13.5181C50.3467 13.6381 50.01 13.6647 49.65 13.5981C49.29 13.5314 48.9967 13.3681 48.77 13.1081C49.07 13.2747 49.39 13.3881 49.73 13.4481C50.0633 13.5014 50.36 13.4814 50.62 13.3881C50.8733 13.2881 51.11 13.1047 51.33 12.8381C51.55 12.5781 51.7167 12.2847 51.83 11.9581ZM50.68 12.0481C50.5933 12.2614 50.4467 12.4514 50.24 12.6181C50.04 12.7847 49.8233 12.8681 49.59 12.8681C49.3633 12.8681 49.1467 12.7881 48.94 12.6281C48.7267 12.4614 48.5767 12.2714 48.49 12.0581C48.6433 12.2381 48.82 12.3614 49.02 12.4281C49.22 12.5014 49.41 12.5381 49.59 12.5381C49.7767 12.5381 49.9667 12.4981 50.16 12.4181C50.3533 12.3447 50.5267 12.2214 50.68 12.0481ZM56.47 4.56806C56.5367 4.2414 56.71 3.96473 56.99 3.73806C57.27 3.51806 57.5733 3.38473 57.9 3.33806C58.24 3.29806 58.5733 3.34806 58.9 3.48806C59.2267 3.62806 59.4633 3.84806 59.61 4.14806C59.37 3.9214 59.0933 3.74806 58.78 3.62806C58.4733 3.5014 58.19 3.4514 57.93 3.47806C57.6567 3.5114 57.39 3.6314 57.13 3.83806C56.87 4.04473 56.65 4.28806 56.47 4.56806ZM64.16 4.14806C64.3733 4.00806 64.62 3.95806 64.9 3.99806C65.18 4.0314 65.4233 4.12807 65.63 4.28806C65.8367 4.44806 65.9867 4.6614 66.08 4.92806C66.1733 5.19473 66.1767 5.4514 66.09 5.69806C66.0833 5.43806 66.03 5.18806 65.93 4.94806C65.83 4.71473 65.7033 4.5314 65.55 4.39806C65.3767 4.2714 65.1667 4.18473 64.92 4.13806C64.6667 4.09806 64.4133 4.1014 64.16 4.14806ZM58.11 5.19806C58.2167 5.00473 58.38 4.83806 58.6 4.69806C58.8267 4.56473 59.05 4.5114 59.27 4.53806C59.4967 4.56473 59.7 4.6714 59.88 4.85806C60.0667 5.04473 60.1833 5.2514 60.23 5.47806C60.1033 5.2914 59.95 5.14806 59.77 5.04806C59.59 4.95473 59.41 4.8914 59.23 4.85806C59.0567 4.84473 58.8667 4.8614 58.66 4.90806C58.4533 4.95473 58.27 5.0514 58.11 5.19806ZM62.27 5.19806C62.3233 5.0314 62.4333 4.87806 62.6 4.73806C62.76 4.59806 62.9267 4.52806 63.1 4.52806C63.2733 4.52806 63.44 4.59806 63.6 4.73806C63.76 4.87806 63.8733 5.0314 63.94 5.19806C63.8267 5.06473 63.6933 4.97473 63.54 4.92806C63.3867 4.8814 63.24 4.85806 63.1 4.85806C62.96 4.85806 62.8133 4.8814 62.66 4.92806C62.5133 4.97473 62.3833 5.06473 62.27 5.19806ZM64.16 5.19806C64.3533 5.1714 64.56 5.2014 64.78 5.28806C65 5.37473 65.1567 5.50806 65.25 5.68806C65.3433 5.86806 65.3667 6.07473 65.32 6.30806C65.2667 6.5414 65.1733 6.7314 65.04 6.87806C65.1133 6.6914 65.1367 6.50806 65.11 6.32806C65.0833 6.1414 65.0333 5.97806 64.96 5.83806C64.8867 5.69806 64.78 5.56806 64.64 5.44806C64.5067 5.3214 64.3467 5.23806 64.16 5.19806ZM57.22 6.48806C57.1133 6.37473 57.0367 6.22806 56.99 6.04806C56.9367 5.8614 56.9467 5.69806 57.02 5.55806C57.0867 5.4314 57.21 5.33473 57.39 5.26806C57.57 5.2014 57.7367 5.17806 57.89 5.19806C57.7367 5.23806 57.6167 5.30806 57.53 5.40806C57.4433 5.50806 57.37 5.6114 57.31 5.71806C57.2567 5.8314 57.2133 5.9514 57.18 6.07806C57.1467 6.2114 57.16 6.34806 57.22 6.48806ZM62.05 7.79806C61.8033 7.70473 61.59 7.53806 61.41 7.29806C61.23 7.05806 61.14 6.80473 61.14 6.53806C61.14 6.27806 61.23 6.02806 61.41 5.78806C61.59 5.55473 61.8067 5.3914 62.06 5.29806C61.8533 5.46473 61.7033 5.6614 61.61 5.88806C61.5167 6.1214 61.47 6.33807 61.47 6.53806C61.47 6.75806 61.5167 6.9814 61.61 7.20806C61.7033 7.43473 61.85 7.6314 62.05 7.79806ZM60.23 5.69806C60.4233 5.76473 60.6 5.89806 60.76 6.09806C60.92 6.2914 61 6.4914 61 6.69806C61 6.90473 60.92 7.1014 60.76 7.28806C60.6 7.4814 60.4233 7.61473 60.23 7.68806C60.3833 7.5614 60.4933 7.40473 60.56 7.21806C60.6267 7.03806 60.66 6.86473 60.66 6.69806C60.66 6.5314 60.6267 6.35473 60.56 6.16806C60.4933 5.98806 60.3833 5.8314 60.23 5.69806ZM57.22 9.17806C56.9733 9.0914 56.76 8.92806 56.58 8.68806C56.4 8.45473 56.31 8.20473 56.31 7.93806C56.31 7.67806 56.4 7.4314 56.58 7.19806C56.76 6.95807 56.9733 6.79473 57.22 6.70806C57.02 6.87473 56.8733 7.0714 56.78 7.29806C56.6867 7.52473 56.64 7.73806 56.64 7.93806C56.64 8.14473 56.6867 8.3614 56.78 8.58806C56.8733 8.80806 57.02 9.00473 57.22 9.17806ZM65.04 7.08806C65.2067 7.15473 65.3633 7.2714 65.51 7.43806C65.6567 7.60473 65.73 7.77806 65.73 7.95806C65.73 8.14473 65.6567 8.31806 65.51 8.47806C65.3633 8.64473 65.2067 8.7614 65.04 8.82806C65.18 8.7014 65.2733 8.5614 65.32 8.40806C65.3667 8.25473 65.39 8.10473 65.39 7.95806C65.39 7.81806 65.3667 7.66806 65.32 7.50806C65.2733 7.34806 65.18 7.20806 65.04 7.08806ZM61.37 10.0881C61.3367 10.0547 61.3 10.0147 61.26 9.96806C61.2267 10.0281 61.1867 10.0747 61.14 10.1081C61.1667 10.0547 61.1933 9.99473 61.22 9.92806C61.0867 9.7814 60.99 9.6014 60.93 9.38806C60.87 9.1814 60.8733 8.98806 60.94 8.80806C60.96 8.72806 60.9967 8.64473 61.05 8.55806C60.97 8.41806 60.86 8.2914 60.72 8.17806C60.58 8.05806 60.4167 7.9714 60.23 7.91806C60.63 7.89806 60.9733 8.03806 61.26 8.33806C61.5067 8.13806 61.77 8.03473 62.05 8.02806C61.91 8.0814 61.7867 8.1514 61.68 8.23806C61.58 8.3314 61.4967 8.43473 61.43 8.54806C61.4567 8.59473 61.48 8.63473 61.5 8.66806C61.5733 8.86806 61.59 9.08473 61.55 9.31806C61.51 9.5514 61.4233 9.75473 61.29 9.92806C61.3167 9.98806 61.3433 10.0414 61.37 10.0881ZM61.23 8.94806C61.1967 9.0814 61.18 9.2214 61.18 9.36806C61.18 9.5214 61.2033 9.6714 61.25 9.81806C61.2967 9.6714 61.3133 9.5214 61.3 9.36806C61.2933 9.2214 61.27 9.0814 61.23 8.94806ZM65.04 9.15806C65.2933 9.24473 65.51 9.40806 65.69 9.64806C65.8767 9.89473 65.97 10.1481 65.97 10.4081C65.97 10.6747 65.8767 10.9281 65.69 11.1681C65.51 11.4081 65.2933 11.5747 65.04 11.6681C65.2467 11.5014 65.3967 11.3014 65.49 11.0681C65.5833 10.8414 65.63 10.6214 65.63 10.4081C65.63 10.2014 65.5833 9.98473 65.49 9.75806C65.3967 9.52473 65.2467 9.32473 65.04 9.15806ZM58.08 11.5981C57.8333 11.6047 57.5867 11.5347 57.34 11.3881C57.1 11.2347 56.9333 11.0481 56.84 10.8281C56.7467 10.5947 56.74 10.3381 56.82 10.0581C56.9 9.78473 57.0333 9.56473 57.22 9.39806C57.1067 9.6114 57.0467 9.83473 57.04 10.0681C57.0333 10.3014 57.07 10.5114 57.15 10.6981C57.2233 10.8847 57.34 11.0614 57.5 11.2281C57.6533 11.4014 57.8467 11.5247 58.08 11.5981ZM58.41 13.0081C58.0433 13.1214 57.6733 13.1014 57.3 12.9481C56.9267 12.7947 56.6267 12.5681 56.4 12.2681C56.1667 11.9614 56.03 11.6081 55.99 11.2081C55.95 10.8014 56.0333 10.4414 56.24 10.1281C56.1533 10.5014 56.13 10.8747 56.17 11.2481C56.2167 11.6281 56.3333 11.9414 56.52 12.1881C56.6933 12.4281 56.9567 12.6214 57.31 12.7681C57.6567 12.9081 58.0233 12.9881 58.41 13.0081ZM66.09 11.2781C66.1967 11.5581 66.2033 11.8447 66.11 12.1381C66.0167 12.4381 65.8567 12.6881 65.63 12.8881C65.4033 13.0747 65.1367 13.1914 64.83 13.2381C64.5233 13.2914 64.24 13.2481 63.98 13.1081C64.2667 13.1547 64.5567 13.1481 64.85 13.0881C65.1367 13.0281 65.37 12.9214 65.55 12.7681C65.7233 12.6214 65.86 12.4114 65.96 12.1381C66.06 11.8581 66.1033 11.5714 66.09 11.2781ZM60.83 12.0481C60.71 12.2881 60.5133 12.4881 60.24 12.6481C59.9667 12.8081 59.6967 12.8681 59.43 12.8281C59.1567 12.8014 58.91 12.6814 58.69 12.4681C58.4633 12.2481 58.3167 12.0081 58.25 11.7481C58.4033 11.9747 58.59 12.1514 58.81 12.2781C59.0367 12.4047 59.2567 12.4814 59.47 12.5081C59.6833 12.5281 59.9133 12.5014 60.16 12.4281C60.4067 12.3614 60.63 12.2347 60.83 12.0481ZM65.04 11.8881C64.9867 12.1014 64.8633 12.2981 64.67 12.4781C64.4767 12.6581 64.27 12.7547 64.05 12.7681C63.8233 12.7881 63.6033 12.7281 63.39 12.5881C63.1767 12.4414 63.0233 12.2647 62.93 12.0581C63.09 12.2181 63.2667 12.3247 63.46 12.3781C63.6533 12.4381 63.84 12.4581 64.02 12.4381C64.2 12.4247 64.3833 12.3747 64.57 12.2881C64.7567 12.2014 64.9133 12.0681 65.04 11.8881ZM62.7 12.0581C62.64 12.2181 62.5233 12.3647 62.35 12.4981C62.1833 12.6314 62.0133 12.6947 61.84 12.6881C61.66 12.6814 61.4967 12.6014 61.35 12.4481C61.1967 12.3014 61.0933 12.1447 61.04 11.9781C61.14 12.1181 61.2667 12.2114 61.42 12.2581C61.5667 12.3114 61.71 12.3414 61.85 12.3481C61.99 12.3481 62.1367 12.3347 62.29 12.3081C62.4433 12.2747 62.58 12.1914 62.7 12.0581ZM70.39 2.29806C70.4367 1.91806 70.6067 1.58806 70.9 1.30806C71.1933 1.03473 71.5233 0.858065 71.89 0.778065C72.2633 0.691398 72.64 0.708064 73.02 0.828064C73.4067 0.948064 73.7 1.16806 73.9 1.48806C73.6067 1.2614 73.2767 1.0914 72.91 0.978065C72.5433 0.858065 72.2133 0.831398 71.92 0.898065C71.6267 0.971398 71.3433 1.1414 71.07 1.40806C70.7967 1.66806 70.57 1.96473 70.39 2.29806ZM71.47 2.54806C71.5633 2.3014 71.7267 2.08473 71.96 1.89806C72.2 1.71806 72.45 1.62806 72.71 1.62806C72.9767 1.62806 73.2267 1.71806 73.46 1.89806C73.7 2.08473 73.8667 2.29806 73.96 2.53806C73.7933 2.34473 73.5967 2.2014 73.37 2.10806C73.15 2.01473 72.93 1.96806 72.71 1.96806C72.51 1.96806 72.2933 2.01473 72.06 2.10806C71.8333 2.2014 71.6367 2.34806 71.47 2.54806ZM74.2 2.54806C74.42 2.62806 74.6233 2.7714 74.81 2.97806C74.99 3.1914 75.0833 3.41806 75.09 3.65806C75.1033 3.8914 75.03 4.1214 74.87 4.34806C74.71 4.5814 74.52 4.74473 74.3 4.83806C74.4733 4.67806 74.5967 4.4914 74.67 4.27806C74.7367 4.05806 74.7667 3.85473 74.76 3.66806C74.7467 3.47473 74.6967 3.27806 74.61 3.07806C74.5233 2.87806 74.3867 2.7014 74.2 2.54806ZM69.77 5.08806C69.85 4.93473 69.9733 4.8014 70.14 4.68806C70.3067 4.56806 70.4733 4.51806 70.64 4.53806C70.68 4.53806 70.7133 4.54806 70.74 4.56806C70.5933 4.35473 70.52 4.13473 70.52 3.90806C70.52 3.66806 70.6067 3.43806 70.78 3.21806C70.9467 2.99806 71.1433 2.84473 71.37 2.75806C71.1833 2.91806 71.05 3.1014 70.97 3.30806C70.89 3.51473 70.85 3.71473 70.85 3.90806C70.85 4.10806 70.89 4.30806 70.97 4.50806C71.05 4.71473 71.1833 4.89806 71.37 5.05806C71.33 5.03806 71.2933 5.02473 71.26 5.01806C71.3133 5.09806 71.35 5.18473 71.37 5.27806C71.2767 5.13806 71.16 5.0414 71.02 4.98806C70.88 4.93473 70.7433 4.89806 70.61 4.87806C70.47 4.85806 70.3267 4.8614 70.18 4.88806C70.0333 4.90806 69.8967 4.97473 69.77 5.08806ZM67.88 5.39806C67.9133 5.21806 67.9933 5.04473 68.12 4.87806C68.2533 4.7114 68.4067 4.60806 68.58 4.56806C68.76 4.52806 68.9433 4.56473 69.13 4.67806C69.3167 4.78473 69.4567 4.91473 69.55 5.06806C69.41 4.9614 69.26 4.9014 69.1 4.88806C68.94 4.86806 68.79 4.87473 68.65 4.90806C68.51 4.93473 68.37 4.98473 68.23 5.05806C68.09 5.1314 67.9733 5.24473 67.88 5.39806ZM65.52 7.64806C65.2933 7.4214 65.16 7.1414 65.12 6.80806C65.08 6.47473 65.13 6.1614 65.27 5.86806C65.3967 5.5814 65.6 5.34473 65.88 5.15806C66.16 4.9714 66.46 4.88806 66.78 4.90806C66.4733 4.98806 66.19 5.1214 65.93 5.30806C65.6767 5.49473 65.4967 5.7014 65.39 5.92806C65.2767 6.1614 65.2367 6.43473 65.27 6.74806C65.2967 7.0614 65.38 7.3614 65.52 7.64806ZM74.3 5.05806C74.56 5.1514 74.7867 5.32806 74.98 5.58806C75.18 5.84806 75.28 6.11806 75.28 6.39806C75.28 6.67806 75.18 6.9514 74.98 7.21806C74.7867 7.47806 74.56 7.65473 74.3 7.74806C74.5133 7.56806 74.6733 7.35473 74.78 7.10806C74.8867 6.8614 74.94 6.62473 74.94 6.39806C74.94 6.17806 74.8867 5.94473 74.78 5.69806C74.6733 5.4514 74.5133 5.23806 74.3 5.05806ZM66.55 7.86806C66.3567 7.67473 66.2333 7.4214 66.18 7.10806C66.12 6.79473 66.15 6.51806 66.27 6.27806C66.3967 6.0314 66.6 5.83806 66.88 5.69806C67.16 5.5514 67.4333 5.4914 67.7 5.51806C67.4333 5.58473 67.2033 5.7014 67.01 5.86806C66.8167 6.03473 66.67 6.2214 66.57 6.42806C66.4767 6.62806 66.4233 6.85473 66.41 7.10806C66.3967 7.36806 66.4433 7.6214 66.55 7.86806ZM75.35 6.23806C75.7233 6.36473 76.0133 6.6114 76.22 6.97806C76.4333 7.33806 76.54 7.71473 76.54 8.10806C76.54 8.5014 76.4333 8.8814 76.22 9.24806C76.0133 9.60806 75.7233 9.85473 75.35 9.98806C75.6433 9.73473 75.89 9.43806 76.09 9.09806C76.2967 8.75806 76.4 8.42806 76.4 8.10806C76.4 7.79473 76.2967 7.46806 76.09 7.12806C75.89 6.7814 75.6433 6.48473 75.35 6.23806ZM69.62 9.46806C69.7067 9.32806 69.8367 9.20473 70.01 9.09806C70.19 8.9914 70.3633 8.9514 70.53 8.97806C70.5833 8.98473 70.64 9.00473 70.7 9.03806C70.6133 8.89806 70.57 8.75807 70.57 8.61806V8.55806C70.4033 8.60473 70.2233 8.59807 70.03 8.53806C69.83 8.47806 69.6667 8.38806 69.54 8.26806C69.7133 8.3414 69.8867 8.36806 70.06 8.34806C70.2333 8.32806 70.39 8.28473 70.53 8.21806C70.63 8.1714 70.72 8.1214 70.8 8.06806C70.86 7.9814 70.9333 7.90806 71.02 7.84806C71.1067 7.7414 71.1667 7.61806 71.2 7.47806C71.2133 7.56473 71.21 7.65473 71.19 7.74806C71.2233 7.72806 71.26 7.70806 71.3 7.68806C71.2533 7.72806 71.21 7.7714 71.17 7.81806C71.1367 8.00473 71.06 8.16806 70.94 8.30806C70.92 8.40806 70.91 8.5114 70.91 8.61806C70.91 8.7714 70.9367 8.93473 70.99 9.10806C71.05 9.27473 71.1533 9.4214 71.3 9.54806C71.2267 9.5214 71.1567 9.48473 71.09 9.43806C71.1433 9.54473 71.18 9.6514 71.2 9.75806C71.12 9.6114 71.01 9.50473 70.87 9.43806C70.7367 9.3714 70.6 9.32473 70.46 9.29806C70.3267 9.27806 70.1867 9.27806 70.04 9.29806C69.8933 9.3114 69.7533 9.36806 69.62 9.46806ZM74.3 7.91806C74.5333 7.99806 74.74 8.15473 74.92 8.38806C75.1 8.6214 75.19 8.86473 75.19 9.11806C75.19 9.3714 75.1 9.61473 74.92 9.84806C74.74 10.0814 74.5333 10.2381 74.3 10.3181C74.4933 10.1647 74.6333 9.97806 74.72 9.75806C74.8133 9.53806 74.86 9.32473 74.86 9.11806C74.86 8.9114 74.8133 8.69806 74.72 8.47806C74.6333 8.25806 74.4933 8.0714 74.3 7.91806ZM66.65 10.0581C66.4567 9.9914 66.2767 9.8714 66.11 9.69806C65.95 9.52473 65.8633 9.33473 65.85 9.12806C65.8433 8.93473 65.91 8.7414 66.05 8.54806C66.19 8.3614 66.3533 8.22473 66.54 8.13806C66.3933 8.27806 66.2967 8.43806 66.25 8.61806C66.2033 8.7914 66.1833 8.95807 66.19 9.11806C66.1967 9.27806 66.2333 9.44473 66.3 9.61806C66.3667 9.7914 66.4833 9.93806 66.65 10.0581ZM67.7 11.7781C67.5267 11.8247 67.33 11.8147 67.11 11.7481C66.89 11.6814 66.7233 11.5714 66.61 11.4181C66.51 11.2581 66.47 11.0647 66.49 10.8381C66.5167 10.6181 66.5833 10.4281 66.69 10.2681C66.6433 10.4547 66.6433 10.6281 66.69 10.7881C66.7367 10.9547 66.8033 11.1014 66.89 11.2281C66.9767 11.3614 67.0867 11.4814 67.22 11.5881C67.3533 11.6947 67.5133 11.7581 67.7 11.7781ZM74.3 10.5481C74.4067 10.6947 74.4767 10.8847 74.51 11.1181C74.5367 11.3447 74.4967 11.5381 74.39 11.6981C74.29 11.8514 74.13 11.9614 73.91 12.0281C73.69 12.0947 73.4867 12.1047 73.3 12.0581C73.4867 12.0381 73.65 11.9714 73.79 11.8581C73.9233 11.7514 74.03 11.6347 74.11 11.5081C74.1967 11.3814 74.2633 11.2347 74.31 11.0681C74.3567 10.9081 74.3533 10.7347 74.3 10.5481ZM71.43 11.5081C71.4367 11.6881 71.39 11.8747 71.29 12.0681C71.1833 12.2681 71.0467 12.4047 70.88 12.4781C70.7133 12.5447 70.5233 12.5414 70.31 12.4681C70.1033 12.4014 69.94 12.2981 69.82 12.1581C69.9733 12.2514 70.1333 12.2881 70.3 12.2681C70.46 12.2481 70.61 12.2114 70.75 12.1581C70.8833 12.1114 71.0167 12.0347 71.15 11.9281C71.2767 11.8214 71.37 11.6814 71.43 11.5081ZM73.08 12.0581C72.9867 12.1914 72.85 12.3014 72.67 12.3881C72.4833 12.4747 72.31 12.4947 72.15 12.4481C71.9967 12.4014 71.8667 12.2914 71.76 12.1181C71.6467 11.9447 71.5867 11.7814 71.58 11.6281C71.6467 11.7747 71.7433 11.8847 71.87 11.9581C71.9967 12.0314 72.12 12.0881 72.24 12.1281C72.3667 12.1681 72.5033 12.1881 72.65 12.1881C72.7967 12.1947 72.94 12.1514 73.08 12.0581ZM69.58 12.1881C69.4933 12.3414 69.3567 12.4747 69.17 12.5881C68.9833 12.7014 68.8033 12.7447 68.63 12.7181C68.45 12.6781 68.2933 12.5747 68.16 12.4081C68.02 12.2414 67.9333 12.0681 67.9 11.8881C67.9933 12.0481 68.1133 12.1614 68.26 12.2281C68.4 12.3014 68.54 12.3514 68.68 12.3781C68.82 12.4047 68.9733 12.4114 69.14 12.3981C69.3 12.3781 69.4467 12.3081 69.58 12.1881ZM69.47 13.2481C69.3433 13.4347 69.1633 13.5714 68.93 13.6581C68.6967 13.7514 68.4733 13.7747 68.26 13.7281C68.04 13.6814 67.84 13.5681 67.66 13.3881C67.48 13.2081 67.3767 13.0081 67.35 12.7881C67.4567 12.9947 67.5933 13.1681 67.76 13.3081C67.9333 13.4547 68.11 13.5481 68.29 13.5881C68.47 13.6214 68.6667 13.6081 68.88 13.5481C69.0933 13.4881 69.29 13.3881 69.47 13.2481ZM72.31 13.1081C72.2167 13.3881 72.0367 13.6181 71.77 13.7981C71.5033 13.9847 71.2267 14.0847 70.94 14.0981C70.64 14.1114 70.35 14.0414 70.07 13.8881C69.79 13.7347 69.59 13.5214 69.47 13.2481C69.67 13.4614 69.9033 13.6347 70.17 13.7681C70.4367 13.9081 70.6867 13.9714 70.92 13.9581C71.1667 13.9447 71.4133 13.8581 71.66 13.6981C71.9067 13.5381 72.1233 13.3414 72.31 13.1081ZM79.64 2.29806C79.6867 1.91806 79.86 1.58806 80.16 1.30806C80.4533 1.03473 80.78 0.858065 81.14 0.778065C81.5133 0.691398 81.8933 0.708064 82.28 0.828064C82.66 0.948064 82.9533 1.16806 83.16 1.48806C82.86 1.2614 82.5267 1.0914 82.16 0.978065C81.8 0.858065 81.47 0.831398 81.17 0.898065C80.8833 0.971398 80.6 1.1414 80.32 1.40806C80.0467 1.66806 79.82 1.96473 79.64 2.29806ZM80.72 2.54806C80.8133 2.3014 80.98 2.08473 81.22 1.89806C81.46 1.71806 81.71 1.62806 81.97 1.62806C82.23 1.62806 82.48 1.71806 82.72 1.89806C82.9533 2.08473 83.1167 2.29806 83.21 2.53806C83.0433 2.34473 82.85 2.2014 82.63 2.10806C82.4033 2.01473 82.1833 1.96806 81.97 1.96806C81.7633 1.96806 81.5467 2.01473 81.32 2.10806C81.0867 2.2014 80.8867 2.34806 80.72 2.54806ZM83.45 2.54806C83.6767 2.62806 83.88 2.7714 84.06 2.97806C84.24 3.1914 84.3367 3.41806 84.35 3.65806C84.3567 3.8914 84.28 4.1214 84.12 4.34806C83.9667 4.5814 83.7767 4.74473 83.55 4.83806C83.73 4.67806 83.8533 4.4914 83.92 4.27806C83.9933 4.05806 84.0233 3.85473 84.01 3.66806C84.0033 3.47473 83.9567 3.27806 83.87 3.07806C83.7767 2.87806 83.6367 2.7014 83.45 2.54806ZM79.03 5.08806C79.1033 4.93473 79.2233 4.8014 79.39 4.68806C79.5567 4.56806 79.7267 4.51806 79.9 4.53806C79.9333 4.53806 79.9633 4.54806 79.99 4.56806C79.8433 4.35473 79.77 4.13473 79.77 3.90806C79.77 3.66806 79.8567 3.43806 80.03 3.21806C80.2033 2.99806 80.4 2.84473 80.62 2.75806C80.4333 2.91806 80.3033 3.1014 80.23 3.30806C80.15 3.51473 80.11 3.71473 80.11 3.90806C80.11 4.10806 80.15 4.30806 80.23 4.50806C80.3033 4.71473 80.4333 4.89806 80.62 5.05806C80.5867 5.03806 80.55 5.02473 80.51 5.01806C80.57 5.09806 80.6067 5.18473 80.62 5.27806C80.5267 5.13806 80.41 5.0414 80.27 4.98806C80.13 4.93473 79.9967 4.89806 79.87 4.87806C79.73 4.85806 79.5833 4.8614 79.43 4.88806C79.2833 4.90806 79.15 4.97473 79.03 5.08806ZM77.14 5.39806C77.1667 5.21806 77.2467 5.04473 77.38 4.87806C77.5067 4.7114 77.66 4.60806 77.84 4.56806C78.0133 4.52806 78.1933 4.56473 78.38 4.67806C78.5667 4.78473 78.7067 4.91473 78.8 5.06806C78.66 4.9614 78.5133 4.9014 78.36 4.88806C78.2 4.86806 78.05 4.87473 77.91 4.90806C77.77 4.93473 77.63 4.98473 77.49 5.05806C77.35 5.1314 77.2333 5.24473 77.14 5.39806ZM74.77 7.64806C74.55 7.4214 74.4167 7.1414 74.37 6.80806C74.33 6.47473 74.38 6.1614 74.52 5.86806C74.6533 5.5814 74.86 5.34473 75.14 5.15806C75.42 4.9714 75.7167 4.88806 76.03 4.90806C75.7233 4.98806 75.4433 5.1214 75.19 5.30806C74.93 5.49473 74.75 5.7014 74.65 5.92806C74.5367 6.1614 74.4933 6.43473 74.52 6.74806C74.5467 7.0614 74.63 7.3614 74.77 7.64806ZM83.55 5.05806C83.81 5.1514 84.04 5.32806 84.24 5.58806C84.4333 5.84806 84.53 6.11806 84.53 6.39806C84.53 6.67806 84.4333 6.9514 84.24 7.21806C84.04 7.47806 83.81 7.65473 83.55 7.74806C83.7633 7.56806 83.9233 7.35473 84.03 7.10806C84.1367 6.8614 84.19 6.62473 84.19 6.39806C84.19 6.17806 84.1367 5.94473 84.03 5.69806C83.9233 5.4514 83.7633 5.23806 83.55 5.05806ZM75.81 7.86806C75.61 7.67473 75.4833 7.4214 75.43 7.10806C75.3767 6.79473 75.41 6.51806 75.53 6.27806C75.65 6.0314 75.85 5.83806 76.13 5.69806C76.41 5.5514 76.6867 5.4914 76.96 5.51806C76.6867 5.58473 76.4533 5.7014 76.26 5.86806C76.0733 6.03473 75.9267 6.2214 75.82 6.42806C75.7267 6.62806 75.6733 6.85473 75.66 7.10806C75.6467 7.36806 75.6967 7.6214 75.81 7.86806ZM84.6 6.23806C84.9733 6.36473 85.2667 6.6114 85.48 6.97806C85.6867 7.33806 85.79 7.71473 85.79 8.10806C85.79 8.5014 85.6867 8.8814 85.48 9.24806C85.2667 9.60806 84.9733 9.85473 84.6 9.98806C84.9 9.73473 85.15 9.43806 85.35 9.09806C85.55 8.75806 85.65 8.42806 85.65 8.10806C85.65 7.79473 85.55 7.46806 85.35 7.12806C85.15 6.7814 84.9 6.48473 84.6 6.23806ZM78.87 9.46806C78.9567 9.32806 79.09 9.20473 79.27 9.09806C79.4433 8.9914 79.6133 8.9514 79.78 8.97806C79.84 8.98473 79.8967 9.00473 79.95 9.03806C79.87 8.89806 79.83 8.75807 79.83 8.61806V8.55806C79.6567 8.60473 79.4733 8.59807 79.28 8.53806C79.0867 8.47806 78.9233 8.38806 78.79 8.26806C78.97 8.3414 79.1467 8.36806 79.32 8.34806C79.4867 8.32806 79.64 8.28473 79.78 8.21806C79.8867 8.1714 79.9767 8.1214 80.05 8.06806C80.1167 7.9814 80.19 7.90806 80.27 7.84806C80.3567 7.7414 80.42 7.61806 80.46 7.47806C80.4667 7.56473 80.46 7.65473 80.44 7.74806C80.48 7.72806 80.5167 7.70806 80.55 7.68806C80.5033 7.72806 80.4633 7.7714 80.43 7.81806C80.39 8.00473 80.31 8.16806 80.19 8.30806C80.17 8.40806 80.16 8.5114 80.16 8.61806C80.16 8.7714 80.19 8.93473 80.25 9.10806C80.3033 9.27473 80.4033 9.4214 80.55 9.54806C80.4767 9.5214 80.4067 9.48473 80.34 9.43806C80.4 9.54473 80.44 9.6514 80.46 9.75806C80.3733 9.6114 80.2633 9.50473 80.13 9.43806C79.99 9.3714 79.85 9.32473 79.71 9.29806C79.5833 9.27806 79.4433 9.27806 79.29 9.29806C79.1433 9.3114 79.0033 9.36806 78.87 9.46806ZM83.55 7.91806C83.7833 7.99806 83.99 8.15473 84.17 8.38806C84.3567 8.6214 84.45 8.86473 84.45 9.11806C84.45 9.3714 84.3567 9.61473 84.17 9.84806C83.99 10.0814 83.7833 10.2381 83.55 10.3181C83.7433 10.1647 83.8867 9.97806 83.98 9.75806C84.0667 9.53806 84.11 9.32473 84.11 9.11806C84.11 8.9114 84.0667 8.69806 83.98 8.47806C83.8867 8.25806 83.7433 8.0714 83.55 7.91806ZM75.91 10.0581C75.71 9.9914 75.53 9.8714 75.37 9.69806C75.2033 9.52473 75.1167 9.33473 75.11 9.12806C75.0967 8.93473 75.16 8.7414 75.3 8.54806C75.44 8.3614 75.6033 8.22473 75.79 8.13806C75.6433 8.27806 75.5467 8.43806 75.5 8.61806C75.4533 8.7914 75.4333 8.95807 75.44 9.11806C75.4533 9.27806 75.4933 9.44473 75.56 9.61806C75.62 9.7914 75.7367 9.93806 75.91 10.0581ZM76.96 11.7781C76.78 11.8247 76.58 11.8147 76.36 11.7481C76.14 11.6814 75.9733 11.5714 75.86 11.4181C75.76 11.2581 75.72 11.0647 75.74 10.8381C75.7667 10.6181 75.8367 10.4281 75.95 10.2681C75.9033 10.4547 75.9033 10.6281 75.95 10.7881C75.9967 10.9547 76.06 11.1014 76.14 11.2281C76.2267 11.3614 76.3367 11.4814 76.47 11.5881C76.61 11.6947 76.7733 11.7581 76.96 11.7781ZM83.55 10.5481C83.6633 10.6947 83.7333 10.8847 83.76 11.1181C83.7867 11.3447 83.75 11.5381 83.65 11.6981C83.5433 11.8514 83.3833 11.9614 83.17 12.0281C82.95 12.0947 82.7467 12.1047 82.56 12.0581C82.7467 12.0381 82.9067 11.9714 83.04 11.8581C83.1733 11.7514 83.2833 11.6347 83.37 11.5081C83.45 11.3814 83.5133 11.2347 83.56 11.0681C83.6067 10.9081 83.6033 10.7347 83.55 10.5481ZM80.68 11.5081C80.6867 11.6881 80.64 11.8747 80.54 12.0681C80.44 12.2681 80.3033 12.4047 80.13 12.4781C79.9633 12.5447 79.7767 12.5414 79.57 12.4681C79.3567 12.4014 79.19 12.2981 79.07 12.1581C79.23 12.2514 79.39 12.2881 79.55 12.2681C79.7167 12.2481 79.87 12.2114 80.01 12.1581C80.1367 12.1114 80.2667 12.0347 80.4 11.9281C80.5333 11.8214 80.6267 11.6814 80.68 11.5081ZM82.33 12.0581C82.2367 12.1914 82.1 12.3014 81.92 12.3881C81.74 12.4747 81.57 12.4947 81.41 12.4481C81.25 12.4014 81.1167 12.2914 81.01 12.1181C80.9033 11.9447 80.8433 11.7814 80.83 11.6281C80.8967 11.7747 80.9933 11.8847 81.12 11.9581C81.2467 12.0314 81.37 12.0881 81.49 12.1281C81.6233 12.1681 81.7633 12.1881 81.91 12.1881C82.05 12.1947 82.19 12.1514 82.33 12.0581ZM78.83 12.1881C78.75 12.3414 78.6167 12.4747 78.43 12.5881C78.2433 12.7014 78.06 12.7447 77.88 12.7181C77.7 12.6781 77.5433 12.5747 77.41 12.4081C77.2767 12.2414 77.19 12.0681 77.15 11.8881C77.2433 12.0481 77.3633 12.1614 77.51 12.2281C77.6567 12.3014 77.8 12.3514 77.94 12.3781C78.08 12.4047 78.23 12.4114 78.39 12.3981C78.5567 12.3781 78.7033 12.3081 78.83 12.1881ZM78.72 13.2481C78.6 13.4347 78.4233 13.5714 78.19 13.6581C77.9567 13.7514 77.7333 13.7747 77.52 13.7281C77.2933 13.6814 77.09 13.5681 76.91 13.3881C76.7367 13.2081 76.6367 13.0081 76.61 12.7881C76.71 12.9947 76.8467 13.1681 77.02 13.3081C77.1933 13.4547 77.3667 13.5481 77.54 13.5881C77.72 13.6214 77.9167 13.6081 78.13 13.5481C78.3433 13.4881 78.54 13.3881 78.72 13.2481ZM81.56 13.1081C81.4667 13.3881 81.2867 13.6181 81.02 13.7981C80.7533 13.9847 80.4767 14.0847 80.19 14.0981C79.89 14.1114 79.6 14.0414 79.32 13.8881C79.04 13.7347 78.84 13.5214 78.72 13.2481C78.9267 13.4614 79.1633 13.6347 79.43 13.7681C79.6967 13.9081 79.9467 13.9714 80.18 13.9581C80.42 13.9447 80.6633 13.8581 80.91 13.6981C81.1567 13.5381 81.3733 13.3414 81.56 13.1081ZM86.01 1.48806C86.17 1.21473 86.4067 1.0214 86.72 0.908064C87.0333 0.788064 87.3433 0.761398 87.65 0.828064C87.9567 0.888064 88.2367 1.02806 88.49 1.24806C88.7367 1.47473 88.8833 1.7414 88.93 2.04806C88.7767 1.77473 88.5833 1.53806 88.35 1.33806C88.1167 1.13806 87.8733 1.0114 87.62 0.958065C87.38 0.911398 87.1133 0.938064 86.82 1.03806C86.5267 1.14473 86.2567 1.29473 86.01 1.48806ZM85.23 3.31806C85.19 3.17806 85.19 3.0214 85.23 2.84806C85.27 2.66806 85.3433 2.53806 85.45 2.45806C85.5767 2.3714 85.7267 2.3414 85.9 2.36806C86.08 2.39473 86.23 2.4514 86.35 2.53806C86.21 2.49806 86.0833 2.50473 85.97 2.55806C85.85 2.6114 85.7433 2.6714 85.65 2.73806C85.5567 2.79806 85.4667 2.87473 85.38 2.96806C85.2867 3.0614 85.2367 3.17806 85.23 3.31806ZM87.29 2.53806C87.4167 2.49806 87.5667 2.4914 87.74 2.51806C87.9067 2.53806 88.03 2.6014 88.11 2.70806C88.1967 2.80806 88.23 2.94473 88.21 3.11806C88.19 3.2914 88.1433 3.43473 88.07 3.54806C88.0967 3.41473 88.0833 3.29806 88.03 3.19806C87.9767 3.0914 87.9167 2.99806 87.85 2.91806C87.7833 2.8314 87.7067 2.74806 87.62 2.66806C87.54 2.58806 87.43 2.54473 87.29 2.53806ZM85.23 5.78806C85.0033 5.7014 84.8067 5.5514 84.64 5.33806C84.4733 5.12473 84.39 4.9014 84.39 4.66806C84.39 4.43473 84.4733 4.2114 84.64 3.99806C84.8067 3.77806 85.0033 3.62806 85.23 3.54806C85.05 3.69473 84.9233 3.8714 84.85 4.07806C84.77 4.28473 84.73 4.4814 84.73 4.66806C84.73 4.85473 84.77 5.0514 84.85 5.25806C84.9233 5.45806 85.05 5.63473 85.23 5.78806ZM88.07 3.76806C88.33 3.8614 88.5533 4.03473 88.74 4.28806C88.9267 4.5414 89.02 4.80806 89.02 5.08806C89.02 5.36806 88.9267 5.63473 88.74 5.88806C88.5533 6.13473 88.33 6.30473 88.07 6.39806C88.2833 6.22473 88.44 6.01806 88.54 5.77806C88.64 5.53806 88.69 5.30806 88.69 5.08806C88.69 4.8614 88.64 4.6314 88.54 4.39806C88.44 4.15806 88.2833 3.94806 88.07 3.76806ZM84.18 9.53806C83.8133 9.40473 83.5267 9.1614 83.32 8.80806C83.1067 8.45473 83 8.0814 83 7.68806C83 7.29473 83.1067 6.9214 83.32 6.56806C83.5267 6.21473 83.8133 5.9714 84.18 5.83806C83.88 6.0914 83.6333 6.38806 83.44 6.72806C83.24 7.0614 83.14 7.3814 83.14 7.68806C83.14 7.99473 83.24 8.31806 83.44 8.65806C83.6333 8.9914 83.88 9.28473 84.18 9.53806ZM85.23 8.02806C85.0367 7.95473 84.86 7.8214 84.7 7.62806C84.54 7.43473 84.46 7.2314 84.46 7.01806C84.46 6.80473 84.54 6.6014 84.7 6.40806C84.86 6.21473 85.0367 6.0814 85.23 6.00806C85.07 6.14806 84.9567 6.30806 84.89 6.48806C84.83 6.67473 84.8 6.8514 84.8 7.01806C84.8 7.18473 84.83 7.35807 84.89 7.53806C84.9567 7.72473 85.07 7.88806 85.23 8.02806ZM88.07 6.62806C88.33 6.7214 88.56 6.89806 88.76 7.15806C88.9533 7.41807 89.05 7.68806 89.05 7.96806C89.05 8.24806 88.9533 8.51806 88.76 8.77806C88.56 9.04473 88.33 9.22473 88.07 9.31806C88.2833 9.13806 88.4467 8.92473 88.56 8.67806C88.6667 8.4314 88.72 8.19473 88.72 7.96806C88.72 7.74806 88.6667 7.51473 88.56 7.26806C88.4467 7.01473 88.2833 6.8014 88.07 6.62806ZM89.12 7.63806C89.42 7.74473 89.66 7.94473 89.84 8.23806C90.0133 8.52473 90.1 8.82806 90.1 9.14806C90.1 9.4614 90.0133 9.76473 89.84 10.0581C89.66 10.3447 89.42 10.5447 89.12 10.6581C89.3667 10.4514 89.5667 10.2114 89.72 9.93806C89.88 9.66473 89.96 9.4014 89.96 9.14806C89.96 8.89473 89.88 8.6314 89.72 8.35806C89.5667 8.07806 89.3667 7.83806 89.12 7.63806ZM85.23 10.3781C85.0233 10.3047 84.8367 10.1647 84.67 9.95806C84.5033 9.7514 84.42 9.53806 84.42 9.31806C84.42 9.0914 84.5033 8.87473 84.67 8.66806C84.8367 8.4614 85.0233 8.3214 85.23 8.24806C85.0633 8.38806 84.9433 8.55806 84.87 8.75806C84.79 8.9514 84.75 9.13806 84.75 9.31806C84.75 9.4914 84.79 9.67806 84.87 9.87806C84.9433 10.0714 85.0633 10.2381 85.23 10.3781ZM88.07 9.53806C88.2567 9.60473 88.4267 9.72473 88.58 9.89806C88.7267 10.0781 88.8 10.2647 88.8 10.4581C88.8 10.6581 88.7267 10.8447 88.58 11.0181C88.4267 11.1981 88.2567 11.3214 88.07 11.3881C88.2233 11.2681 88.3267 11.1214 88.38 10.9481C88.4333 10.7814 88.46 10.6181 88.46 10.4581C88.46 10.3047 88.4333 10.1414 88.38 9.96806C88.3267 9.8014 88.2233 9.65806 88.07 9.53806ZM85.79 12.0581C85.6233 12.0581 85.45 12.0147 85.27 11.9281C85.0967 11.8347 84.98 11.7114 84.92 11.5581C84.8533 11.4047 84.86 11.2347 84.94 11.0481C85.0133 10.8547 85.11 10.7047 85.23 10.5981C85.1433 10.7381 85.11 10.8847 85.13 11.0381C85.15 11.1847 85.1833 11.3181 85.23 11.4381C85.2767 11.5647 85.3433 11.6847 85.43 11.7981C85.51 11.9181 85.63 12.0047 85.79 12.0581ZM88.07 11.6081C88.0433 11.8347 87.95 12.0481 87.79 12.2481C87.6233 12.4481 87.4333 12.5714 87.22 12.6181C86.9933 12.6647 86.7633 12.6314 86.53 12.5181C86.2967 12.3981 86.1233 12.2447 86.01 12.0581C86.19 12.1981 86.38 12.2814 86.58 12.3081C86.78 12.3281 86.9633 12.3181 87.13 12.2781C87.31 12.2447 87.4867 12.1747 87.66 12.0681C87.8333 11.9614 87.97 11.8081 88.07 11.6081ZM89.11 12.0681C89.13 12.3414 89.0567 12.5981 88.89 12.8381C88.73 13.0714 88.5267 13.2414 88.28 13.3481C88.04 13.4614 87.7767 13.4981 87.49 13.4581C87.2033 13.4181 86.9667 13.3014 86.78 13.1081C87.0267 13.2281 87.28 13.3014 87.54 13.3281C87.8 13.3481 88.03 13.3114 88.23 13.2181C88.4233 13.1381 88.6 12.9914 88.76 12.7781C88.92 12.5714 89.0367 12.3347 89.11 12.0681ZM95.09 4.27806C95.3233 4.10473 95.5967 4.0314 95.91 4.05806C96.2167 4.07806 96.4867 4.17473 96.72 4.34806C96.9667 4.51473 97.1467 4.7414 97.26 5.02806C97.38 5.3214 97.4033 5.60806 97.33 5.88806C97.31 5.59473 97.24 5.31806 97.12 5.05806C96.9933 4.79806 96.8333 4.59806 96.64 4.45806C96.4533 4.32473 96.2167 4.2414 95.93 4.20806C95.65 4.17473 95.37 4.19806 95.09 4.27806ZM93.01 5.05806C93.15 4.84473 93.3567 4.6714 93.63 4.53806C93.9033 4.4114 94.17 4.3714 94.43 4.41806C94.6833 4.4714 94.91 4.6114 95.11 4.83806C95.31 5.0714 95.4267 5.31806 95.46 5.57806C95.3333 5.34473 95.17 5.15806 94.97 5.01806C94.77 4.87806 94.5667 4.78806 94.36 4.74806C94.1533 4.7014 93.93 4.7014 93.69 4.74806C93.4433 4.79473 93.2167 4.89806 93.01 5.05806ZM90.98 5.62806C90.9933 5.43473 91.0633 5.23806 91.19 5.03806C91.3233 4.83807 91.4833 4.70806 91.67 4.64806C91.8633 4.59473 92.07 4.6114 92.29 4.69806C92.5033 4.7914 92.67 4.91473 92.79 5.06806C92.6233 4.96806 92.45 4.91473 92.27 4.90806C92.0833 4.90806 91.9167 4.9314 91.77 4.97806C91.6167 5.02473 91.4667 5.09806 91.32 5.19806C91.1733 5.29806 91.06 5.4414 90.98 5.62806ZM88.46 8.52806C88.1933 8.29473 88.0267 7.98806 87.96 7.60806C87.8933 7.2214 87.9267 6.8614 88.06 6.52806C88.1867 6.1814 88.4033 5.88806 88.71 5.64806C89.01 5.41473 89.34 5.3014 89.7 5.30806C89.36 5.42806 89.05 5.6014 88.77 5.82806C88.4833 6.05473 88.2867 6.3014 88.18 6.56806C88.08 6.8414 88.0567 7.15806 88.11 7.51806C88.17 7.87806 88.2867 8.21473 88.46 8.52806ZM95.65 5.68806C95.85 5.6214 96.0767 5.6214 96.33 5.68806C96.5767 5.75473 96.7633 5.8714 96.89 6.03806C97.01 6.20473 97.0667 6.41806 97.06 6.67806C97.0533 6.9314 96.9933 7.14807 96.88 7.32806C96.9267 7.1214 96.92 6.9214 96.86 6.72806C96.8067 6.5414 96.7233 6.37806 96.61 6.23806C96.51 6.10473 96.3767 5.9814 96.21 5.86806C96.05 5.75473 95.8633 5.69473 95.65 5.68806ZM89.61 7.65806C89.4633 7.4714 89.3767 7.2414 89.35 6.96806C89.3167 6.69473 89.3633 6.45806 89.49 6.25806C89.6167 6.06473 89.81 5.91806 90.07 5.81806C90.3233 5.72473 90.5667 5.70473 90.8 5.75806C90.5667 5.78473 90.3633 5.86473 90.19 5.99806C90.01 6.13806 89.8733 6.28806 89.78 6.44806C89.68 6.6014 89.6067 6.78806 89.56 7.00806C89.52 7.2214 89.5367 7.43807 89.61 7.65806ZM92.52 7.63806C92.54 7.54473 92.58 7.44473 92.64 7.33806C92.6067 7.30473 92.5833 7.26806 92.57 7.22806C92.5967 7.25473 92.6233 7.2814 92.65 7.30806C92.7167 7.2014 92.7967 7.10806 92.89 7.02806C92.9833 6.94806 93.08 6.9014 93.18 6.88806C93.3133 6.8614 93.45 6.88473 93.59 6.95806C93.73 7.03806 93.8467 7.12806 93.94 7.22806C93.96 7.20806 93.9767 7.18473 93.99 7.15806C93.9833 7.19806 93.9767 7.2314 93.97 7.25806C93.9967 7.30473 94.0233 7.34473 94.05 7.37806C94.01 7.3514 93.9733 7.32806 93.94 7.30806C93.8733 7.43473 93.7833 7.54473 93.67 7.63806C93.5567 7.73806 93.4367 7.78806 93.31 7.78806C93.1967 7.79473 93.0833 7.76473 92.97 7.69806C92.8567 7.62473 92.7633 7.53806 92.69 7.43806C92.6233 7.4914 92.5667 7.55806 92.52 7.63806ZM93.24 7.21806C93.1667 7.2314 93.09 7.2514 93.01 7.27806C92.93 7.29806 92.8533 7.3314 92.78 7.37806C92.86 7.41806 92.9467 7.4414 93.04 7.44806C93.1267 7.4614 93.21 7.4614 93.29 7.44806C93.3967 7.44806 93.5 7.43806 93.6 7.41806C93.7067 7.3914 93.8 7.34806 93.88 7.28806C93.78 7.22807 93.6733 7.19806 93.56 7.19806C93.4467 7.19806 93.34 7.20473 93.24 7.21806ZM96.93 7.53806C97.07 7.67806 97.1733 7.85807 97.24 8.07806C97.3067 8.30473 97.3033 8.50806 97.23 8.68806C97.1433 8.8614 96.9967 9.0014 96.79 9.10806C96.5767 9.20807 96.3733 9.25473 96.18 9.24806C96.3667 9.18806 96.52 9.09473 96.64 8.96806C96.76 8.83473 96.8533 8.69806 96.92 8.55806C96.9867 8.4114 97.03 8.24806 97.05 8.06806C97.0633 7.88806 97.0233 7.7114 96.93 7.53806ZM89.89 10.5081C89.6233 10.4414 89.38 10.2914 89.16 10.0581C88.94 9.8314 88.81 9.57806 88.77 9.29806C88.7433 9.0314 88.81 8.75806 88.97 8.47806C89.13 8.20473 89.33 8.00806 89.57 7.88806C89.3833 8.0814 89.2533 8.30473 89.18 8.55806C89.1067 8.8114 89.0833 9.04473 89.11 9.25806C89.1367 9.48473 89.2167 9.70806 89.35 9.92806C89.4767 10.1547 89.6567 10.3481 89.89 10.5081ZM89.49 11.7781C89.19 11.7847 88.9133 11.6914 88.66 11.4981C88.4067 11.3047 88.23 11.0681 88.13 10.7881C88.0233 10.5147 88 10.2214 88.06 9.90806C88.1133 9.59473 88.2533 9.3414 88.48 9.14806C88.34 9.40806 88.2467 9.6814 88.2 9.96806C88.1533 10.2614 88.17 10.5181 88.25 10.7381C88.3367 10.9647 88.4933 11.1714 88.72 11.3581C88.9533 11.5447 89.21 11.6847 89.49 11.7781ZM92.8 10.4381C92.8133 10.3914 92.83 10.3481 92.85 10.3081C92.7833 10.3014 92.72 10.2814 92.66 10.2481C92.74 10.2614 92.81 10.2547 92.87 10.2281C93.01 9.9014 93.23 9.6714 93.53 9.53806C93.57 9.44473 93.5833 9.34806 93.57 9.24806C93.61 9.3214 93.64 9.40473 93.66 9.49806C93.6933 9.48473 93.7333 9.47473 93.78 9.46806C93.82 9.46806 93.86 9.46806 93.9 9.46806C93.8533 9.39473 93.8133 9.3214 93.78 9.24806C93.86 9.3414 93.95 9.41473 94.05 9.46806C94.23 9.50806 94.4033 9.5814 94.57 9.68806C94.67 9.70807 94.7733 9.71806 94.88 9.71806C95.0533 9.71806 95.24 9.68473 95.44 9.61806C95.64 9.54473 95.81 9.4214 95.95 9.24806C95.8767 9.44806 95.7433 9.6314 95.55 9.79806C95.35 9.95806 95.1433 10.0447 94.93 10.0581C94.9433 10.0847 94.9567 10.1114 94.97 10.1381C94.9433 10.1114 94.9133 10.0847 94.88 10.0581C94.6467 10.0581 94.42 9.97473 94.2 9.80806C94.0733 9.78806 93.95 9.78806 93.83 9.80806C93.77 9.81473 93.7167 9.8214 93.67 9.82806C93.65 9.9614 93.61 10.0614 93.55 10.1281C93.47 10.2081 93.37 10.2647 93.25 10.2981C93.13 10.3247 93.01 10.3281 92.89 10.3081C92.8633 10.3481 92.8333 10.3914 92.8 10.4381ZM95.2 10.1381C95.32 10.0247 95.48 9.9414 95.68 9.88806C95.88 9.83473 96.0567 9.84473 96.21 9.91806C96.3567 9.9914 96.4667 10.1247 96.54 10.3181C96.6133 10.5047 96.6433 10.6847 96.63 10.8581C96.59 10.6847 96.5133 10.5514 96.4 10.4581C96.2867 10.3581 96.17 10.2814 96.05 10.2281C95.93 10.1614 95.7967 10.1147 95.65 10.0881C95.4967 10.0547 95.3467 10.0714 95.2 10.1381ZM91.96 12.0581C91.76 12.2047 91.5133 12.2881 91.22 12.3081C90.9333 12.3214 90.6867 12.2581 90.48 12.1181C90.2733 11.9647 90.1233 11.7514 90.03 11.4781C89.9367 11.2047 89.9233 10.9447 89.99 10.6981C90.0167 10.9514 90.0967 11.1747 90.23 11.3681C90.3567 11.5681 90.5 11.7247 90.66 11.8381C90.8267 11.9447 91.0267 12.0247 91.26 12.0781C91.4867 12.1314 91.72 12.1247 91.96 12.0581ZM96.49 11.0381C96.5233 11.2447 96.4967 11.4614 96.41 11.6881C96.3233 11.9147 96.19 12.0847 96.01 12.1981C95.8233 12.2981 95.61 12.3281 95.37 12.2881C95.1233 12.2481 94.92 12.1614 94.76 12.0281C94.96 12.0947 95.1533 12.1114 95.34 12.0781C95.5267 12.0447 95.6933 11.9881 95.84 11.9081C95.98 11.8214 96.1133 11.7047 96.24 11.5581C96.3667 11.4181 96.45 11.2447 96.49 11.0381ZM97.59 11.3281C97.6633 11.6681 97.6167 12.0047 97.45 12.3381C97.2767 12.6714 97.04 12.9314 96.74 13.1181C96.44 13.2981 96.1033 13.3914 95.73 13.3981C95.3567 13.4114 95.03 13.3047 94.75 13.0781C95.0833 13.1914 95.4267 13.2447 95.78 13.2381C96.1267 13.2247 96.4233 13.1447 96.67 12.9981C96.9033 12.8447 97.1033 12.6147 97.27 12.3081C97.4367 12.0014 97.5433 11.6747 97.59 11.3281ZM94.54 12.0681C94.4467 12.3214 94.2767 12.5414 94.03 12.7281C93.7833 12.9147 93.5233 13.0081 93.25 13.0081C92.9833 13.0014 92.7267 12.9047 92.48 12.7181C92.2267 12.5314 92.0533 12.3114 91.96 12.0581C92.14 12.2647 92.3467 12.4181 92.58 12.5181C92.8133 12.6114 93.0367 12.6647 93.25 12.6781C93.4633 12.6781 93.6867 12.6281 93.92 12.5281C94.1533 12.4281 94.36 12.2747 94.54 12.0681ZM100.5 4.10806C100.673 3.76806 100.94 3.51473 101.3 3.34806C101.653 3.1814 102.013 3.11806 102.38 3.15806C102.753 3.20473 103.1 3.34473 103.42 3.57806C103.733 3.8114 103.937 4.10806 104.03 4.46806C103.817 4.1614 103.56 3.89806 103.26 3.67806C102.96 3.45806 102.663 3.3314 102.37 3.29806C102.07 3.26473 101.75 3.32473 101.41 3.47806C101.077 3.63806 100.773 3.84806 100.5 4.10806ZM100.84 5.11806C100.933 4.9114 101.087 4.7314 101.3 4.57806C101.513 4.42473 101.733 4.3514 101.96 4.35806C102.187 4.36473 102.4 4.45806 102.6 4.63806C102.8 4.81806 102.933 5.01806 103 5.23806C102.86 5.0514 102.693 4.91806 102.5 4.83806C102.307 4.7514 102.123 4.70473 101.95 4.69806C101.77 4.68473 101.58 4.70806 101.38 4.76806C101.18 4.82806 101 4.94473 100.84 5.11806ZM98.67 6.17806C98.6433 5.9514 98.6833 5.71473 98.79 5.46806C98.8967 5.2214 99.0533 5.0414 99.26 4.92806C99.4667 4.8214 99.7033 4.7914 99.97 4.83806C100.23 4.8914 100.447 4.9914 100.62 5.13806C100.4 5.05806 100.187 5.0314 99.98 5.05806C99.7667 5.08473 99.5767 5.1414 99.41 5.22806C99.25 5.3214 99.1 5.44806 98.96 5.60806C98.82 5.7614 98.7233 5.9514 98.67 6.17806ZM103.21 5.29806C103.397 5.16473 103.62 5.08806 103.88 5.06806C104.14 5.0414 104.363 5.09473 104.55 5.22806C104.737 5.34806 104.867 5.53473 104.94 5.78806C105.013 6.0414 105.027 6.27473 104.98 6.48806C104.953 6.2614 104.88 6.06473 104.76 5.89806C104.64 5.7314 104.503 5.6014 104.35 5.50806C104.203 5.4014 104.03 5.32473 103.83 5.27806C103.63 5.22473 103.423 5.2314 103.21 5.29806ZM98.49 8.10806C98.3233 8.0414 98.17 7.9214 98.03 7.74806C97.89 7.5814 97.8233 7.40473 97.83 7.21806C97.8367 7.0314 97.9167 6.85473 98.07 6.68806C98.2167 6.52806 98.3733 6.41806 98.54 6.35806C98.4 6.4714 98.3033 6.60806 98.25 6.76806C98.1967 6.92806 98.17 7.0814 98.17 7.22806C98.1567 7.36806 98.1733 7.51806 98.22 7.67806C98.2667 7.84473 98.3567 7.98806 98.49 8.10806ZM105.05 6.69806C105.003 6.91806 104.893 7.12473 104.72 7.31806C104.54 7.5114 104.34 7.62473 104.12 7.65806C104.04 7.6714 103.96 7.6714 103.88 7.65806C103.98 7.83806 104.04 8.0214 104.06 8.20806C103.987 8.04806 103.893 7.9114 103.78 7.79806C103.667 7.67806 103.55 7.5814 103.43 7.50806C103.41 7.5014 103.397 7.4914 103.39 7.47806C103.25 7.39806 103.103 7.33806 102.95 7.29806C102.857 7.27806 102.76 7.26473 102.66 7.25806C102.62 7.37806 102.563 7.4914 102.49 7.59806C102.417 7.70473 102.33 7.77806 102.23 7.81806C102.077 7.86473 101.917 7.84806 101.75 7.76806C101.583 7.68806 101.453 7.5914 101.36 7.47806C101.427 7.51806 101.497 7.54806 101.57 7.56806C101.73 7.3414 101.95 7.1714 102.23 7.05806C102.51 6.93806 102.78 6.9114 103.04 6.97806C103.253 7.0314 103.45 7.14807 103.63 7.32806C103.777 7.34806 103.923 7.34806 104.07 7.32806C104.25 7.3014 104.43 7.23806 104.61 7.13806C104.797 7.03806 104.943 6.8914 105.05 6.69806ZM102.11 7.49806C102.19 7.46473 102.267 7.4314 102.34 7.39806C102.413 7.35806 102.477 7.3114 102.53 7.25806C102.377 7.25806 102.213 7.2814 102.04 7.32806C101.873 7.3814 101.72 7.4614 101.58 7.56806C101.673 7.5814 101.767 7.5814 101.86 7.56806C101.947 7.54806 102.03 7.52473 102.11 7.49806ZM97.17 10.9081C96.89 10.7881 96.67 10.5847 96.51 10.2981C96.3567 10.0047 96.2867 9.70473 96.3 9.39806C96.32 9.0914 96.4233 8.79806 96.61 8.51806C96.79 8.24473 97.03 8.0614 97.33 7.96806C97.0833 8.15473 96.8767 8.37806 96.71 8.63806C96.5433 8.90473 96.4533 9.15806 96.44 9.39806C96.4333 9.63806 96.4967 9.89806 96.63 10.1781C96.77 10.4514 96.95 10.6947 97.17 10.9081ZM104.27 8.30806C104.45 8.24806 104.65 8.2414 104.87 8.28806C105.097 8.33473 105.267 8.42806 105.38 8.56806C105.487 8.7214 105.537 8.9114 105.53 9.13806C105.523 9.36473 105.467 9.55806 105.36 9.71806C105.407 9.5314 105.4 9.35806 105.34 9.19806C105.28 9.04473 105.203 8.90473 105.11 8.77806C105.017 8.65806 104.9 8.5514 104.76 8.45806C104.62 8.36473 104.457 8.31473 104.27 8.30806ZM99.16 10.2381C99.2467 10.0714 99.3733 9.92806 99.54 9.80806C99.5 9.79473 99.4633 9.77806 99.43 9.75806C99.1633 9.63806 98.9533 9.43473 98.8 9.14806C98.6467 8.86806 98.5833 8.5814 98.61 8.28806C98.69 8.56806 98.8167 8.8114 98.99 9.01806C99.17 9.21806 99.3633 9.36473 99.57 9.45806C99.71 9.51806 99.8533 9.56473 100 9.59806C100.093 9.57806 100.183 9.5714 100.27 9.57806C100.323 9.57806 100.373 9.58806 100.42 9.60806C100.653 9.6014 100.873 9.54473 101.08 9.43806C100.967 9.55806 100.827 9.65806 100.66 9.73806C100.94 9.9114 101.117 10.1514 101.19 10.4581C101.077 10.2847 100.933 10.1547 100.76 10.0681C100.58 9.98806 100.4 9.93806 100.22 9.91806C100.053 9.89806 99.8767 9.90806 99.69 9.94806C99.4967 9.99473 99.32 10.0914 99.16 10.2381ZM106.15 8.75806C106.457 8.92473 106.677 9.18473 106.81 9.53806C106.943 9.8914 106.983 10.2414 106.93 10.5881C106.863 10.9347 106.71 11.2514 106.47 11.5381C106.223 11.8181 105.923 11.9914 105.57 12.0581C105.877 11.8781 106.147 11.6547 106.38 11.3881C106.607 11.1147 106.743 10.8381 106.79 10.5581C106.837 10.2781 106.8 9.97473 106.68 9.64806C106.56 9.31473 106.383 9.01806 106.15 8.75806ZM105.39 9.94806C105.53 10.1681 105.597 10.4281 105.59 10.7281C105.577 11.0281 105.49 11.2814 105.33 11.4881C105.163 11.6881 104.937 11.8281 104.65 11.9081C104.357 11.9814 104.087 11.9747 103.84 11.8881C104.1 11.8814 104.337 11.8181 104.55 11.6981C104.763 11.5847 104.937 11.4447 105.07 11.2781C105.197 11.1181 105.293 10.9181 105.36 10.6781C105.427 10.4381 105.437 10.1947 105.39 9.94806ZM99.27 11.6981C99.1033 11.7581 98.9067 11.7681 98.68 11.7281C98.46 11.6881 98.2933 11.5914 98.18 11.4381C98.06 11.2981 98.0033 11.1181 98.01 10.8981C98.0233 10.6714 98.0767 10.4781 98.17 10.3181C98.13 10.4981 98.14 10.6681 98.2 10.8281C98.26 10.9881 98.3367 11.1214 98.43 11.2281C98.5233 11.3547 98.64 11.4647 98.78 11.5581C98.92 11.6514 99.0833 11.6981 99.27 11.6981ZM100.11 13.0781C99.7967 13.2914 99.4367 13.3781 99.03 13.3381C98.6233 13.2981 98.2667 13.1614 97.96 12.9281C97.6467 12.7014 97.4133 12.4014 97.26 12.0281C97.1 11.6481 97.07 11.2747 97.17 10.9081C97.1967 11.2947 97.2867 11.6647 97.44 12.0181C97.5867 12.3714 97.7833 12.6381 98.03 12.8181C98.2767 13.0047 98.5933 13.1181 98.98 13.1581C99.36 13.1981 99.7367 13.1714 100.11 13.0781ZM101.25 12.1881C101.143 12.3414 100.99 12.4747 100.79 12.5881C100.59 12.6947 100.397 12.7247 100.21 12.6781C100.023 12.6381 99.8633 12.5281 99.73 12.3481C99.59 12.1614 99.5067 11.9747 99.48 11.7881C99.5667 11.9614 99.6833 12.0881 99.83 12.1681C99.9833 12.2547 100.133 12.3147 100.28 12.3481C100.427 12.3881 100.587 12.3981 100.76 12.3781C100.933 12.3581 101.097 12.2947 101.25 12.1881ZM103.63 11.9581C103.57 12.1714 103.447 12.3747 103.26 12.5681C103.073 12.7614 102.863 12.8681 102.63 12.8881C102.41 12.9147 102.187 12.8581 101.96 12.7181C101.733 12.5781 101.57 12.4047 101.47 12.1981C101.63 12.3581 101.813 12.4647 102.02 12.5181C102.22 12.5647 102.413 12.5781 102.6 12.5581C102.78 12.5314 102.967 12.4714 103.16 12.3781C103.347 12.2847 103.503 12.1447 103.63 11.9581Z" fill="black"/>
</svg>
