<svg width="105" height="11" viewBox="0 0 105 11" fill="none" xmlns="http://www.w3.org/2000/svg">
<path d="M1.255 8.94C0.921667 8.94 0.698333 8.88 0.585 8.76C0.471667 8.63333 0.471667 8.51 0.585 8.39C0.698333 8.27 0.921667 8.21 1.255 8.21C1.08833 8.21 0.951667 8.13667 0.845 7.99C0.745 7.85 0.678333 7.67 0.645 7.45C0.611667 7.23667 0.611667 7.02 0.645 6.8C0.678333 6.58 0.745 6.4 0.845 6.26C0.951667 6.11333 1.08833 6.04 1.255 6.04C1.02167 6.04 0.845 5.96333 0.725 5.81C0.605 5.65667 0.545 5.48 0.545 5.28C0.545 5.08667 0.605 4.91333 0.725 4.76C0.845 4.60667 1.02167 4.53 1.255 4.53C0.935 4.53 0.721667 4.47 0.615 4.35C0.508333 4.22333 0.508333 4.1 0.615 3.98C0.721667 3.86 0.935 3.8 1.255 3.8C0.928333 3.8 0.711667 3.75333 0.605 3.66C0.498333 3.56667 0.498333 3.47667 0.605 3.39C0.711667 3.29667 0.928333 3.25 1.255 3.25C0.928333 3.25 0.711667 3.19667 0.605 3.09C0.498333 2.97667 0.498333 2.86333 0.605 2.75C0.711667 2.63667 0.928333 2.58 1.255 2.58C0.955 2.58 0.755 2.51 0.655 2.37C0.561667 2.23 0.561667 2.09 0.655 1.95C0.755 1.81 0.955 1.74 1.255 1.74C1.10833 1.52667 1.065 1.34667 1.125 1.2C1.19167 1.04667 1.30833 0.966667 1.475 0.96C1.635 0.96 1.79167 1.06667 1.945 1.28C1.945 0.913333 2.015 0.673333 2.155 0.56C2.295 0.44 2.435 0.44 2.575 0.56C2.715 0.673333 2.785 0.913333 2.785 1.28C2.785 1.00667 2.84833 0.806666 2.975 0.68C3.10833 0.546667 3.25833 0.48 3.425 0.48C3.59167 0.48 3.74167 0.546667 3.875 0.68C4.00167 0.806666 4.065 1.00667 4.065 1.28C4.065 1.05333 4.12833 0.886666 4.255 0.78C4.38167 0.673333 4.525 0.62 4.685 0.62C4.845 0.62 4.98833 0.673333 5.115 0.78C5.24167 0.886666 5.305 1.05333 5.305 1.28C5.33167 1.06667 5.445 0.916667 5.645 0.83C5.845 0.75 6.065 0.726666 6.305 0.76C6.55167 0.786666 6.75833 0.866667 6.925 1C7.09167 1.13333 7.16167 1.30667 7.135 1.52C7.275 1.18 7.41833 0.98 7.565 0.92C7.71833 0.853333 7.82167 0.896666 7.875 1.05C7.935 1.20333 7.89833 1.44667 7.765 1.78C7.885 1.66 8.035 1.63667 8.215 1.71C8.40167 1.77667 8.575 1.89333 8.735 2.06C8.90167 2.23333 9.015 2.41333 9.075 2.6C9.135 2.78667 9.105 2.94 8.985 3.06C9.225 3 9.41833 3.01 9.565 3.09C9.71167 3.17 9.80167 3.27667 9.835 3.41C9.86167 3.55 9.82833 3.68333 9.735 3.81C9.635 3.94333 9.465 4.03667 9.225 4.09C9.39167 4.13667 9.49167 4.26 9.525 4.46C9.565 4.66667 9.55167 4.88667 9.485 5.12C9.41833 5.36 9.31833 5.55667 9.185 5.71C9.05167 5.86333 8.90167 5.91667 8.735 5.87C8.90833 6.07667 8.965 6.27667 8.905 6.47C8.845 6.67 8.735 6.81667 8.575 6.91C8.635 7.05 8.525 7.17667 8.245 7.29C8.41833 7.29667 8.575 7.36667 8.715 7.5C8.855 7.62667 8.95833 7.78 9.025 7.96C9.09167 8.14667 9.10167 8.32667 9.055 8.5C9.00833 8.68 8.89167 8.82667 8.705 8.94C8.985 8.78 9.20167 8.71 9.355 8.73C9.50833 8.75667 9.57167 8.83333 9.545 8.96C9.51833 9.08667 9.38167 9.23 9.135 9.39C9.34833 9.27667 9.525 9.26333 9.665 9.35C9.805 9.43667 9.875 9.56667 9.875 9.74C9.86833 9.91333 9.75167 10.08 9.525 10.24C9.525 10.4267 9.45833 10.5767 9.325 10.69C9.19167 10.8033 9.025 10.8767 8.825 10.91C8.63167 10.95 8.43833 10.95 8.245 10.91C8.045 10.8767 7.87833 10.8033 7.745 10.69C7.61167 10.5767 7.545 10.4267 7.545 10.24C7.45833 10.4267 7.33167 10.5367 7.165 10.57C6.99833 10.6033 6.82833 10.5833 6.655 10.51C6.48833 10.43 6.365 10.3133 6.285 10.16C6.19833 10.0067 6.19833 9.84333 6.285 9.67C6.105 9.74333 5.94167 9.75 5.795 9.69C5.655 9.63 5.545 9.53 5.465 9.39C5.39167 9.25 5.36833 9.10333 5.395 8.95C5.415 8.79 5.50167 8.66 5.655 8.56C5.46833 8.64667 5.27833 8.62333 5.085 8.49C4.89167 8.35667 4.755 8.19 4.675 7.99C4.60833 8.02333 4.53167 8.04 4.445 8.04C4.49167 8.20667 4.47167 8.37333 4.385 8.54C4.29833 8.7 4.14167 8.78 3.915 8.78C4.10167 8.78 4.24167 8.83333 4.335 8.94C4.42833 9.04 4.475 9.15667 4.475 9.29C4.475 9.41667 4.42833 9.53 4.335 9.63C4.24167 9.73 4.10167 9.78 3.915 9.78C4.055 9.96667 4.10167 10.1267 4.055 10.26C4.00833 10.3933 3.91167 10.4667 3.765 10.48C3.625 10.5 3.485 10.42 3.345 10.24C3.345 10.4667 3.27167 10.64 3.125 10.76C2.97833 10.88 2.80167 10.9433 2.595 10.95C2.38167 10.95 2.17167 10.8833 1.965 10.75C1.765 10.6167 1.595 10.4033 1.455 10.11C1.315 9.81667 1.24833 9.42667 1.255 8.94ZM3.915 4.49C4.10167 4.49 4.235 4.55667 4.315 4.69C4.395 4.82333 4.42833 4.95 4.415 5.07C4.56833 4.96333 4.77167 4.90667 5.025 4.9C5.27167 4.89333 5.465 4.94333 5.605 5.05C5.59833 4.89 5.65167 4.71333 5.765 4.52C5.87833 4.32667 6.005 4.20333 6.145 4.15C6.01833 4.10333 5.985 4.03333 6.045 3.94C5.865 3.98667 5.72167 3.94333 5.615 3.81C5.50833 3.68333 5.49167 3.53667 5.565 3.37C5.45167 3.42333 5.315 3.45 5.155 3.45C4.98833 3.45 4.835 3.42333 4.695 3.37C4.555 3.32333 4.46833 3.24667 4.435 3.14C4.455 3.32667 4.39833 3.44 4.265 3.48C4.27167 3.57333 4.24833 3.66 4.195 3.74C4.14167 3.82667 4.04833 3.87 3.915 3.87C4.095 3.87 4.215 3.92 4.275 4.02C4.335 4.12667 4.335 4.23 4.275 4.33C4.215 4.43667 4.095 4.49 3.915 4.49ZM12.485 10.25C12.3783 10.3767 12.2517 10.4233 12.105 10.39C11.9583 10.3633 11.8217 10.2933 11.695 10.18C11.5683 10.0733 11.4817 9.94667 11.435 9.8C11.3883 9.65333 11.415 9.52333 11.515 9.41C11.3483 9.47667 11.2083 9.48667 11.095 9.44C10.975 9.38667 10.8917 9.30667 10.845 9.2C10.7983 9.09333 10.8017 8.97667 10.855 8.85C10.9017 8.73 11.0117 8.63667 11.185 8.57C10.985 8.59 10.8317 8.55 10.725 8.45C10.6183 8.34333 10.5583 8.21667 10.545 8.07C10.5317 7.92333 10.5683 7.78667 10.655 7.66C10.7417 7.54 10.885 7.47 11.085 7.45C10.8983 7.45 10.7583 7.38 10.665 7.24C10.5717 7.1 10.525 6.93667 10.525 6.75C10.525 6.56333 10.5717 6.4 10.665 6.26C10.7583 6.12 10.8983 6.05 11.085 6.05C10.8717 6.05 10.7283 6.00333 10.655 5.91C10.5883 5.81667 10.5883 5.72333 10.655 5.63C10.7283 5.53667 10.8717 5.49 11.085 5.49C10.8517 5.49 10.695 5.43 10.615 5.31C10.535 5.19 10.535 5.07 10.615 4.95C10.695 4.83 10.8517 4.77 11.085 4.77C10.8783 4.72333 10.7383 4.63333 10.665 4.5C10.5917 4.36667 10.5717 4.23333 10.605 4.1C10.6317 3.96667 10.7083 3.86 10.835 3.78C10.9617 3.7 11.1283 3.68333 11.335 3.73C11.335 3.56333 11.4017 3.43 11.535 3.33C11.675 3.23 11.845 3.16333 12.045 3.13C12.245 3.10333 12.4417 3.10333 12.635 3.13C12.835 3.16333 13.0017 3.23 13.135 3.33C13.2683 3.43 13.335 3.56333 13.335 3.73C13.5217 3.61667 13.685 3.60333 13.825 3.69C13.965 3.77 14.045 3.89333 14.065 4.06C14.085 4.22 14.0017 4.35667 13.815 4.47C13.935 4.47 14.025 4.52667 14.085 4.64C14.145 4.75333 14.175 4.88333 14.175 5.03C14.175 5.18333 14.145 5.31333 14.085 5.42C14.025 5.53333 13.935 5.59 13.815 5.59C13.955 5.59 14.0617 5.65 14.135 5.77C14.2083 5.89667 14.245 6.03667 14.245 6.19C14.245 6.35 14.2083 6.49333 14.135 6.62C14.0617 6.74667 13.955 6.81 13.815 6.81C13.955 6.80333 14.065 6.85 14.145 6.95C14.225 7.05 14.265 7.17333 14.265 7.32C14.2717 7.46667 14.2417 7.59 14.175 7.69C14.3417 7.67 14.5317 7.70333 14.745 7.79C14.9517 7.87667 15.1183 7.98333 15.245 8.11C15.2783 8.01 15.335 7.92 15.415 7.84C15.495 7.76 15.5817 7.71 15.675 7.69C15.535 7.61667 15.485 7.50667 15.525 7.36C15.5717 7.20667 15.7017 7.13 15.915 7.13C15.7817 7.13 15.6817 7.04667 15.615 6.88C15.5417 6.71333 15.505 6.52 15.505 6.3C15.505 6.08 15.5417 5.88667 15.615 5.72C15.6817 5.56 15.7817 5.48 15.915 5.48C15.7283 5.48 15.605 5.43 15.545 5.33C15.485 5.22333 15.485 5.12 15.545 5.02C15.605 4.91333 15.7283 4.86 15.915 4.86C15.775 4.84667 15.675 4.77667 15.615 4.65C15.555 4.53 15.5317 4.39667 15.545 4.25C15.565 4.09667 15.6183 3.96667 15.705 3.86C15.785 3.75333 15.9017 3.71 16.055 3.73C16.055 3.52333 16.1083 3.37 16.215 3.27C16.3217 3.16333 16.4417 3.11 16.575 3.11C16.715 3.11 16.8383 3.16333 16.945 3.27C17.0517 3.37 17.105 3.52333 17.105 3.73C17.105 3.51667 17.165 3.37333 17.285 3.3C17.405 3.23333 17.525 3.23333 17.645 3.3C17.7717 3.37333 17.835 3.51667 17.835 3.73C17.9083 3.59 18.005 3.51 18.125 3.49C18.245 3.47 18.3583 3.49 18.465 3.55C18.5717 3.61667 18.6483 3.70667 18.695 3.82C18.735 3.94 18.7117 4.07 18.625 4.21C18.8117 4.21 18.9517 4.25667 19.045 4.35C19.1383 4.44333 19.185 4.55333 19.185 4.68C19.185 4.8 19.1383 4.91 19.045 5.01C18.9517 5.11 18.8117 5.16 18.625 5.16C18.8583 5.16 19.015 5.22333 19.095 5.35C19.1683 5.47667 19.1683 5.60333 19.095 5.73C19.015 5.86333 18.8583 5.93 18.625 5.93C18.7783 5.93 18.8917 6.01 18.965 6.17C19.0383 6.33667 19.075 6.52667 19.075 6.74C19.075 6.95333 19.0383 7.14333 18.965 7.31C18.8917 7.47 18.7783 7.55 18.625 7.55C18.8117 7.55 18.9517 7.61667 19.045 7.75C19.1317 7.89 19.175 8.04667 19.175 8.22C19.175 8.4 19.1317 8.55667 19.045 8.69C18.9517 8.81667 18.8117 8.88 18.625 8.88C18.7383 8.90667 18.8083 8.99667 18.835 9.15C18.8683 9.31 18.8617 9.48333 18.815 9.67C18.775 9.86333 18.7117 10.0267 18.625 10.16C18.5317 10.2867 18.4317 10.3367 18.325 10.31C18.325 10.55 18.2583 10.71 18.125 10.79C17.9917 10.87 17.8617 10.87 17.735 10.79C17.6017 10.71 17.535 10.55 17.535 10.31C17.535 10.5433 17.4683 10.7 17.335 10.78C17.2017 10.86 17.065 10.8633 16.925 10.79C16.785 10.71 16.715 10.55 16.715 10.31C16.6483 10.5033 16.5617 10.63 16.455 10.69C16.355 10.7433 16.265 10.7367 16.185 10.67C16.105 10.61 16.0717 10.5 16.085 10.34C16.005 10.4867 15.865 10.5833 15.665 10.63C15.465 10.6767 15.2783 10.6667 15.105 10.6C14.925 10.5267 14.835 10.3967 14.835 10.21C14.8417 10.3433 14.775 10.4533 14.635 10.54C14.495 10.6267 14.3083 10.68 14.075 10.7C13.835 10.72 13.575 10.6967 13.295 10.63C13.015 10.5633 12.745 10.4367 12.485 10.25ZM25.025 10.42C24.9517 10.5867 24.8317 10.6867 24.665 10.72C24.4983 10.7467 24.3217 10.7233 24.135 10.65C23.955 10.5833 23.8083 10.4833 23.695 10.35C23.6283 10.4367 23.5383 10.49 23.425 10.51C23.305 10.5367 23.1817 10.4967 23.055 10.39C23.015 10.6567 22.9383 10.8267 22.825 10.9C22.7183 10.9733 22.6183 10.9633 22.525 10.87C22.4317 10.7767 22.4017 10.61 22.435 10.37C22.4083 10.5167 22.3083 10.6267 22.135 10.7C21.9617 10.7733 21.765 10.81 21.545 10.81C21.325 10.8033 21.135 10.7567 20.975 10.67C20.8083 10.59 20.725 10.47 20.725 10.31C20.5317 10.35 20.3917 10.3233 20.305 10.23C20.225 10.1367 20.2017 10.0267 20.235 9.9C20.275 9.78 20.3917 9.70333 20.585 9.67C20.3183 9.67 20.1383 9.62333 20.045 9.53C19.9517 9.43667 19.9517 9.34333 20.045 9.25C20.1383 9.15667 20.3183 9.11 20.585 9.11C20.4583 9.11 20.3583 9.04 20.285 8.9C20.205 8.76667 20.1517 8.6 20.125 8.4C20.0983 8.2 20.0983 8 20.125 7.8C20.1517 7.6 20.205 7.43 20.285 7.29C20.3583 7.15667 20.4583 7.09 20.585 7.09C20.4117 7.09 20.2783 7 20.185 6.82C20.0917 6.63333 20.045 6.42333 20.045 6.19C20.045 5.95667 20.0917 5.75 20.185 5.57C20.2783 5.39 20.4117 5.3 20.585 5.3C20.3917 5.3 20.2483 5.23667 20.155 5.11C20.0617 4.98333 20.015 4.84 20.015 4.68C20.015 4.52 20.0617 4.37667 20.155 4.25C20.2483 4.13 20.3917 4.07 20.585 4.07C20.4383 4.07 20.3317 3.97667 20.265 3.79C20.1917 3.60333 20.155 3.38667 20.155 3.14C20.155 2.9 20.1917 2.68667 20.265 2.5C20.3317 2.31333 20.4383 2.22 20.585 2.22C20.4383 2.22 20.325 2.16333 20.245 2.05C20.165 1.93667 20.125 1.80667 20.125 1.66C20.125 1.50667 20.165 1.37667 20.245 1.27C20.325 1.15667 20.4383 1.1 20.585 1.1C20.585 0.946667 20.6617 0.83 20.815 0.75C20.9617 0.663333 21.135 0.62 21.335 0.62C21.535 0.62 21.7117 0.656667 21.865 0.73C22.025 0.81 22.105 0.923333 22.105 1.07C22.105 0.89 22.1617 0.756667 22.275 0.67C22.395 0.583333 22.5317 0.536666 22.685 0.53C22.8383 0.523333 22.9717 0.566666 23.085 0.66C23.205 0.746666 23.265 0.883333 23.265 1.07C23.505 1.07667 23.6617 1.14333 23.735 1.27C23.815 1.39 23.8083 1.50667 23.715 1.62C23.6283 1.72667 23.4683 1.77667 23.235 1.77C23.415 1.77 23.5483 1.82667 23.635 1.94C23.7217 2.05333 23.765 2.18333 23.765 2.33C23.765 2.47667 23.7217 2.60667 23.635 2.72C23.5483 2.83333 23.415 2.89 23.235 2.89C23.395 2.89 23.515 2.92 23.595 2.98C23.675 3.04 23.7183 3.10667 23.725 3.18C23.885 3.18 24.035 3.23 24.175 3.33C24.315 3.43 24.375 3.55333 24.355 3.7C24.4017 3.58 24.5217 3.48333 24.715 3.41C24.9017 3.34333 25.1117 3.30667 25.345 3.3C25.5717 3.28667 25.7717 3.31333 25.945 3.38C26.1183 3.44667 26.2083 3.55 26.215 3.69C26.3017 3.57667 26.4417 3.55 26.635 3.61C26.8217 3.67 27.0117 3.77667 27.205 3.93C27.3983 4.08333 27.545 4.24667 27.645 4.42C27.745 4.58667 27.755 4.72667 27.675 4.84C27.8617 4.8 28.0217 4.85333 28.155 5C28.2883 5.15333 28.3817 5.34 28.435 5.56C28.4883 5.78667 28.485 5.99667 28.425 6.19C28.3717 6.37667 28.2517 6.49333 28.065 6.54C28.225 6.54 28.3417 6.61 28.415 6.75C28.4883 6.88333 28.525 7.04 28.525 7.22C28.525 7.39333 28.485 7.54667 28.405 7.68C28.3183 7.80667 28.195 7.87 28.035 7.87C28.1883 7.91667 28.275 8.03 28.295 8.21C28.3217 8.39 28.305 8.58 28.245 8.78C28.1783 8.98667 28.085 9.15667 27.965 9.29C27.845 9.41667 27.715 9.45667 27.575 9.41C27.675 9.53667 27.7117 9.66333 27.685 9.79C27.6517 9.92333 27.5817 10.0367 27.475 10.13C27.3617 10.23 27.2417 10.29 27.115 10.31C26.9817 10.33 26.8583 10.2833 26.745 10.17C26.7917 10.3633 26.7583 10.5233 26.645 10.65C26.525 10.77 26.3683 10.8467 26.175 10.88C25.9817 10.92 25.7783 10.9033 25.565 10.83C25.3583 10.7567 25.1783 10.62 25.025 10.42ZM23.225 6.77C23.365 6.77 23.4583 6.80333 23.505 6.87C23.5517 6.93 23.5517 6.99333 23.505 7.06C23.4583 7.12667 23.365 7.16 23.225 7.16C23.3183 7.15333 23.3883 7.19667 23.435 7.29C23.4883 7.38333 23.5183 7.48667 23.525 7.6C23.525 7.72 23.4983 7.81 23.445 7.87C23.545 7.85667 23.665 7.88 23.805 7.94C23.9383 8 24.0683 8.08 24.195 8.18C24.3217 8.28667 24.4183 8.38667 24.485 8.48C24.485 8.34667 24.5617 8.2 24.715 8.04C24.875 7.88 25.015 7.8 25.135 7.8C25.0417 7.74 24.9883 7.63 24.975 7.47C24.9617 7.31667 24.985 7.17667 25.045 7.05C25.105 6.91667 25.1983 6.85667 25.325 6.87C25.2383 6.85667 25.1683 6.79 25.115 6.67C25.055 6.55 25.015 6.41667 24.995 6.27C24.9817 6.12333 24.9983 6.01 25.045 5.93C24.9517 5.97667 24.8517 5.97 24.745 5.91C24.645 5.85 24.585 5.76667 24.565 5.66C24.4917 5.77333 24.3817 5.83333 24.235 5.84C24.0883 5.84 23.9783 5.79 23.905 5.69C23.8983 5.76333 23.8717 5.81333 23.825 5.84C23.7783 5.87333 23.7217 5.87 23.655 5.83C23.7017 5.93 23.695 6.03667 23.635 6.15C23.575 6.26333 23.4883 6.32333 23.375 6.33C23.535 6.37667 23.6017 6.46333 23.575 6.59C23.5417 6.71667 23.425 6.77667 23.225 6.77ZM29.915 1.41C29.715 1.36333 29.5783 1.27667 29.505 1.15C29.4317 1.03 29.4117 0.913333 29.445 0.8C29.4783 0.68 29.555 0.586667 29.675 0.52C29.795 0.46 29.9583 0.456666 30.165 0.51C30.165 0.37 30.2317 0.26 30.365 0.18C30.4917 0.0999998 30.655 0.0466667 30.855 0.02C31.0483 -0.00666667 31.245 -0.00666667 31.445 0.02C31.645 0.0466667 31.8117 0.0999998 31.945 0.18C32.0717 0.26 32.135 0.37 32.135 0.51C32.335 0.483333 32.4917 0.523333 32.605 0.63C32.7117 0.736666 32.7817 0.873333 32.815 1.04C32.8417 1.2 32.815 1.35 32.735 1.49C32.655 1.63 32.5217 1.71333 32.335 1.74C32.3817 1.85333 32.3517 1.96333 32.245 2.07C32.1383 2.17667 31.9983 2.26667 31.825 2.34C31.6517 2.40667 31.4883 2.44 31.335 2.44C31.1817 2.43333 31.085 2.37333 31.045 2.26C31.045 2.40667 30.9883 2.51333 30.875 2.58C30.7683 2.64667 30.6383 2.65333 30.485 2.6C30.3383 2.55333 30.2083 2.43333 30.095 2.24C29.9817 2.04667 29.9217 1.77 29.915 1.41ZM29.845 10.28C29.6917 10.28 29.575 10.21 29.495 10.07C29.4083 9.93 29.3483 9.75667 29.315 9.55C29.2817 9.35 29.2817 9.14667 29.315 8.94C29.3483 8.73333 29.4083 8.56333 29.495 8.43C29.575 8.29 29.6917 8.22 29.845 8.22C29.6583 8.22 29.5183 8.14333 29.425 7.99C29.3317 7.83667 29.285 7.66333 29.285 7.47C29.285 7.27 29.3317 7.09333 29.425 6.94C29.5183 6.78667 29.6583 6.71 29.845 6.71C29.685 6.71 29.5583 6.64 29.465 6.5C29.3717 6.36 29.3083 6.18667 29.275 5.98C29.2417 5.78 29.2417 5.57667 29.275 5.37C29.3083 5.16333 29.3717 4.99333 29.465 4.86C29.5583 4.72 29.685 4.65 29.845 4.65C29.6783 4.65 29.555 4.60333 29.475 4.51C29.395 4.41 29.3517 4.29667 29.345 4.17C29.3383 4.04333 29.3783 3.93333 29.465 3.84C29.5517 3.74667 29.6783 3.7 29.845 3.7C29.845 3.53333 29.9017 3.41 30.015 3.33C30.135 3.25 30.2717 3.21333 30.425 3.22C30.5783 3.22667 30.7117 3.27 30.825 3.35C30.9383 3.43667 30.995 3.56333 30.995 3.73C30.995 3.59 31.045 3.48667 31.145 3.42C31.245 3.35333 31.365 3.32 31.505 3.32C31.645 3.32 31.7717 3.35333 31.885 3.42C31.9917 3.48667 32.045 3.59 32.045 3.73C32.185 3.61667 32.3083 3.58333 32.415 3.63C32.5217 3.67667 32.5817 3.75667 32.595 3.87C32.6083 3.98333 32.545 4.09667 32.405 4.21C32.5717 4.21 32.695 4.28667 32.775 4.44C32.855 4.6 32.895 4.78333 32.895 4.99C32.895 5.19667 32.855 5.37667 32.775 5.53C32.695 5.68333 32.5717 5.76 32.405 5.76C32.5517 5.76 32.665 5.84 32.745 6C32.8183 6.16 32.855 6.34 32.855 6.54C32.855 6.74667 32.8183 6.93 32.745 7.09C32.665 7.25 32.5517 7.33 32.405 7.33C32.5183 7.33 32.6083 7.4 32.675 7.54C32.7483 7.68667 32.795 7.87 32.815 8.09C32.8417 8.31 32.8417 8.52667 32.815 8.74C32.795 8.95333 32.7483 9.13333 32.675 9.28C32.6083 9.42667 32.5183 9.5 32.405 9.5C32.6117 9.53333 32.7383 9.62333 32.785 9.77C32.8317 9.91667 32.8083 10.0533 32.715 10.18C32.6217 10.3067 32.4717 10.35 32.265 10.31C32.265 10.5433 32.2183 10.7 32.125 10.78C32.0317 10.86 31.9383 10.86 31.845 10.78C31.7517 10.7 31.705 10.5433 31.705 10.31C31.705 10.5033 31.615 10.6533 31.435 10.76C31.2483 10.86 31.0317 10.91 30.785 10.91C30.5383 10.9033 30.3217 10.8467 30.135 10.74C29.9483 10.64 29.8517 10.4867 29.845 10.28ZM34.365 9.33C34.0917 9.33 33.9083 9.27333 33.815 9.16C33.7217 9.04667 33.7217 8.93667 33.815 8.83C33.9083 8.71667 34.0917 8.66 34.365 8.66C34.1783 8.66 34.0383 8.59667 33.945 8.47C33.8517 8.34333 33.805 8.2 33.805 8.04C33.805 7.88 33.8517 7.74 33.945 7.62C34.0383 7.49333 34.1783 7.43 34.365 7.43C34.205 7.43 34.075 7.35333 33.975 7.2C33.8817 7.05333 33.8183 6.87333 33.785 6.66C33.7517 6.44 33.7517 6.22333 33.785 6.01C33.8183 5.79667 33.8817 5.61667 33.975 5.47C34.075 5.31667 34.205 5.24 34.365 5.24C34.245 5.24 34.145 5.17333 34.065 5.04C33.985 4.90667 33.9317 4.74 33.905 4.54C33.885 4.33333 33.885 4.13 33.905 3.93C33.9317 3.73 33.985 3.56333 34.065 3.43C34.145 3.29667 34.245 3.23 34.365 3.23C34.1783 3.23 34.0383 3.16 33.945 3.02C33.8517 2.88667 33.805 2.73 33.805 2.55C33.805 2.37667 33.8517 2.22 33.945 2.08C34.0383 1.94667 34.1783 1.88 34.365 1.88C34.1383 1.9 33.9817 1.84333 33.895 1.71C33.8083 1.58333 33.795 1.44333 33.855 1.29C33.915 1.14333 34.0583 1.06 34.285 1.04C34.2917 0.88 34.345 0.763333 34.445 0.69C34.5383 0.61 34.6483 0.57 34.775 0.57C34.895 0.576666 35.0017 0.623333 35.095 0.71C35.1883 0.79 35.235 0.91 35.235 1.07C35.2217 0.89 35.2983 0.75 35.465 0.65C35.625 0.55 35.815 0.493333 36.035 0.48C36.255 0.473333 36.4517 0.51 36.625 0.59C36.7983 0.676666 36.8883 0.81 36.895 0.99C37.0683 0.996666 37.1917 1.09667 37.265 1.29C37.345 1.47667 37.385 1.69667 37.385 1.95C37.385 2.20333 37.3417 2.42333 37.255 2.61C37.1683 2.79667 37.0417 2.89 36.875 2.89C37.0217 2.89 37.1317 2.96333 37.205 3.11C37.2783 3.25 37.315 3.42 37.315 3.62C37.315 3.81333 37.2783 3.98333 37.205 4.13C37.1317 4.27667 37.0217 4.35 36.875 4.35C37.0417 4.33667 37.165 4.41333 37.245 4.58C37.3317 4.74 37.3717 4.90333 37.365 5.07C37.3917 5.08333 37.415 5.1 37.435 5.12C37.4617 4.94667 37.5517 4.80667 37.705 4.7C37.8583 4.58667 38.025 4.58667 38.205 4.7C38.0717 4.61333 38.0183 4.50333 38.045 4.37C38.065 4.23 38.1283 4.12 38.235 4.04C38.3417 3.95333 38.465 3.95333 38.605 4.04C38.5783 3.88667 38.6383 3.75667 38.785 3.65C38.925 3.54333 39.1017 3.47 39.315 3.43C39.5217 3.39 39.7117 3.39333 39.885 3.44C40.0583 3.48667 40.1583 3.58333 40.185 3.73C40.185 3.51667 40.2417 3.37333 40.355 3.3C40.4683 3.23333 40.5817 3.23333 40.695 3.3C40.8083 3.37333 40.865 3.51667 40.865 3.73C40.8517 3.49667 40.9117 3.34 41.045 3.26C41.185 3.18 41.325 3.17667 41.465 3.25C41.605 3.33 41.675 3.48667 41.675 3.72C41.795 3.8 41.845 3.92 41.825 4.08C41.805 4.24 41.7417 4.39667 41.635 4.55C41.5283 4.70333 41.405 4.81333 41.265 4.88C41.125 4.95333 40.995 4.94667 40.875 4.86C41.015 4.96667 41.0617 5.13 41.015 5.35C40.9683 5.57 40.8683 5.78333 40.715 5.99C40.5617 6.20333 40.395 6.35667 40.215 6.45C40.375 6.51 40.4983 6.62667 40.585 6.8C40.665 6.97333 40.6917 7.14667 40.665 7.32C40.6383 7.49333 40.535 7.61667 40.355 7.69C40.4883 7.63667 40.635 7.66667 40.795 7.78C40.9617 7.9 41.1083 8.06 41.235 8.26C41.3617 8.46 41.4383 8.65667 41.465 8.85C41.4917 9.03667 41.4383 9.17333 41.305 9.26C41.445 9.17333 41.585 9.16 41.725 9.22C41.865 9.28667 41.9783 9.38667 42.065 9.52C42.1517 9.65333 42.1917 9.79667 42.185 9.95C42.1783 10.0967 42.105 10.2167 41.965 10.31C41.965 10.4967 41.885 10.6367 41.725 10.73C41.5583 10.8233 41.3717 10.87 41.165 10.87C40.9517 10.87 40.765 10.8233 40.605 10.73C40.4383 10.6367 40.355 10.4967 40.355 10.31C40.335 10.49 40.2483 10.6133 40.095 10.68C39.935 10.7533 39.7583 10.7767 39.565 10.75C39.3717 10.73 39.205 10.6667 39.065 10.56C38.925 10.46 38.865 10.32 38.885 10.14C38.6783 10.26 38.515 10.2967 38.395 10.25C38.275 10.2033 38.225 10.12 38.245 10C38.265 9.87333 38.3717 9.74667 38.565 9.62C38.465 9.68667 38.3417 9.67 38.195 9.57C38.0483 9.46333 37.9117 9.31667 37.785 9.13C37.6517 8.94333 37.5483 8.75333 37.475 8.56C37.3417 8.66 37.205 8.69333 37.065 8.66C37.1517 8.77333 37.2017 8.93 37.215 9.13C37.2283 9.33667 37.2083 9.52333 37.155 9.69C37.095 9.86333 37.0017 9.95 36.875 9.95C36.9683 10.15 36.9583 10.3133 36.845 10.44C36.7383 10.5667 36.605 10.6267 36.445 10.62C36.2783 10.62 36.1483 10.5167 36.055 10.31C36.055 10.45 36.0017 10.5567 35.895 10.63C35.7883 10.7033 35.6683 10.74 35.535 10.74C35.4017 10.74 35.2817 10.7033 35.175 10.63C35.0617 10.5567 35.005 10.45 35.005 10.31C35.005 10.5633 34.955 10.72 34.855 10.78C34.755 10.84 34.6517 10.7567 34.545 10.53C34.4317 10.31 34.3717 9.91 34.365 9.33ZM46.185 8.43C45.9317 8.43 45.7383 8.35333 45.605 8.2C45.4783 8.04667 45.415 7.86667 45.415 7.66C45.415 7.44667 45.4783 7.26333 45.605 7.11C45.7383 6.95667 45.9317 6.88 46.185 6.88C45.9517 6.88 45.7717 6.80667 45.645 6.66C45.525 6.50667 45.465 6.33333 45.465 6.14C45.465 5.95333 45.525 5.78667 45.645 5.64C45.7717 5.49333 45.9517 5.42 46.185 5.42C46.005 5.42 45.8617 5.35333 45.755 5.22C45.6483 5.08667 45.5783 4.92 45.545 4.72C45.5117 4.52 45.5117 4.32 45.545 4.12C45.5783 3.92667 45.6483 3.76 45.755 3.62C45.8617 3.48667 46.005 3.42 46.185 3.42C45.8583 3.42 45.6383 3.34667 45.525 3.2C45.4117 3.04667 45.4117 2.89667 45.525 2.75C45.6383 2.60333 45.8583 2.53 46.185 2.53C45.9783 2.51 45.825 2.43333 45.725 2.3C45.625 2.17333 45.5817 2.02667 45.595 1.86C45.6017 1.7 45.6617 1.56 45.775 1.44C45.8883 1.32667 46.0483 1.27333 46.255 1.28C46.255 1.00667 46.3317 0.8 46.485 0.66C46.645 0.52 46.8283 0.45 47.035 0.45C47.2417 0.45 47.425 0.52 47.585 0.66C47.7383 0.8 47.815 1.00667 47.815 1.28C47.815 1.09333 47.8883 0.946666 48.035 0.84C48.1817 0.733333 48.3583 0.66 48.565 0.62C48.7783 0.586667 48.9883 0.586667 49.195 0.62C49.4083 0.66 49.585 0.733333 49.725 0.84C49.8717 0.946666 49.945 1.09333 49.945 1.28C49.945 1.00667 50.0117 0.803333 50.145 0.67C50.2717 0.536667 50.4217 0.47 50.595 0.47C50.7683 0.47 50.9183 0.536667 51.045 0.67C51.1717 0.803333 51.235 1.01 51.235 1.29C51.2617 1.05 51.3283 0.876667 51.435 0.77C51.5417 0.663333 51.6583 0.616666 51.785 0.63C51.9117 0.643333 52.0183 0.716667 52.105 0.85C52.185 0.976667 52.2117 1.15667 52.185 1.39C52.2717 1.09 52.385 0.903333 52.525 0.83C52.665 0.756667 52.775 0.786667 52.855 0.92C52.935 1.06 52.9317 1.27667 52.845 1.57C52.9783 1.41667 53.1317 1.34 53.305 1.34C53.485 1.34 53.645 1.39667 53.785 1.51C53.925 1.63 54.015 1.77333 54.055 1.94C54.095 2.10667 54.0517 2.27333 53.925 2.44C54.1783 2.38667 54.3817 2.41333 54.535 2.52C54.6883 2.62667 54.785 2.77 54.825 2.95C54.865 3.12333 54.8417 3.29333 54.755 3.46C54.6683 3.63333 54.4983 3.74667 54.245 3.8C54.4583 3.87333 54.6017 3.97667 54.675 4.11C54.755 4.23667 54.7717 4.36333 54.725 4.49C54.6783 4.61 54.585 4.69667 54.445 4.75C54.305 4.81 54.125 4.79667 53.905 4.71C54.125 4.99 54.2183 5.21667 54.185 5.39C54.1583 5.56333 54.0583 5.64333 53.885 5.63C53.705 5.62333 53.5083 5.48 53.295 5.2C53.395 5.33333 53.4517 5.47 53.465 5.61C53.705 5.70333 53.915 5.85 54.095 6.05C54.2683 6.25667 54.2983 6.46 54.185 6.66C54.4117 6.6 54.595 6.6 54.735 6.66C54.875 6.72 54.9617 6.81333 54.995 6.94C55.0283 7.06 55.0017 7.18 54.915 7.3C54.835 7.42 54.6817 7.51333 54.455 7.58C54.715 7.63333 54.8983 7.73667 55.005 7.89C55.1117 8.03667 55.1483 8.19333 55.115 8.36C55.0883 8.52 54.9983 8.65333 54.845 8.76C54.685 8.86 54.4717 8.88333 54.205 8.83C54.3917 9.00333 54.485 9.18333 54.485 9.37C54.485 9.55667 54.425 9.71333 54.305 9.84C54.1783 9.96667 54.0217 10.0333 53.835 10.04C53.6483 10.04 53.4617 9.95333 53.275 9.78C53.4017 10.0667 53.4417 10.28 53.395 10.42C53.355 10.5533 53.2683 10.59 53.135 10.53C53.0083 10.47 52.885 10.2933 52.765 10C52.7917 10.2067 52.7383 10.38 52.605 10.52C52.465 10.66 52.2917 10.7633 52.085 10.83C51.8717 10.8967 51.655 10.92 51.435 10.9C51.215 10.88 51.0283 10.8167 50.875 10.71C50.715 10.6033 50.6217 10.4467 50.595 10.24C50.595 10.4933 50.5183 10.6833 50.365 10.81C50.2183 10.9433 50.045 11.01 49.845 11.01C49.645 11.01 49.4683 10.9433 49.315 10.81C49.1683 10.6833 49.095 10.4933 49.095 10.24C49.095 10.4533 49.035 10.6133 48.915 10.72C48.8017 10.8267 48.665 10.88 48.505 10.88C48.345 10.88 48.2083 10.8267 48.095 10.72C47.975 10.6133 47.915 10.4533 47.915 10.24C47.915 10.42 47.8583 10.5533 47.745 10.64C47.625 10.7267 47.4783 10.76 47.305 10.74C47.125 10.7267 46.9483 10.64 46.775 10.48C46.6017 10.32 46.4583 10.0733 46.345 9.74C46.225 9.41333 46.1717 8.97667 46.185 8.43ZM48.845 4.01C48.9917 4.01 49.1017 4.07333 49.175 4.2C49.2417 4.32667 49.285 4.46333 49.305 4.61C49.325 4.76333 49.335 4.87 49.335 4.93C49.3483 4.78333 49.4117 4.68333 49.525 4.63C49.6383 4.57 49.755 4.56333 49.875 4.61C49.995 4.65 50.0717 4.73333 50.105 4.86C50.085 4.69333 50.1617 4.57 50.335 4.49C50.515 4.41 50.675 4.40333 50.815 4.47C50.795 4.37 50.815 4.26667 50.875 4.16C50.935 4.05333 51.0217 3.98 51.135 3.94C51.0417 3.88667 50.9717 3.79667 50.925 3.67C50.8717 3.54333 50.855 3.42667 50.875 3.32C50.795 3.38 50.7317 3.39 50.685 3.35C50.6317 3.31667 50.615 3.24667 50.635 3.14C50.5217 3.28 50.355 3.34333 50.135 3.33C49.915 3.31667 49.7583 3.23667 49.665 3.09C49.665 3.19667 49.625 3.29 49.545 3.37C49.4583 3.45 49.3583 3.49 49.245 3.49C49.2917 3.60333 49.2817 3.72 49.215 3.84C49.1417 3.95333 49.0183 4.01 48.845 4.01ZM50.115 8.67C50.1083 8.51 50.1717 8.4 50.305 8.34C50.4383 8.28 50.5717 8.27 50.705 8.31C50.6583 8.15 50.6683 7.98 50.735 7.8C50.8083 7.61333 50.915 7.47333 51.055 7.38C50.9017 7.32 50.765 7.22 50.645 7.08C50.525 6.94667 50.455 6.81 50.435 6.67C50.3617 6.79 50.2417 6.86333 50.075 6.89C49.9083 6.92333 49.7483 6.91667 49.595 6.87C49.6217 7.01667 49.5817 7.15667 49.475 7.29C49.3683 7.41667 49.2317 7.47 49.065 7.45C49.205 7.53667 49.2983 7.67333 49.345 7.86C49.3917 8.04667 49.4017 8.21333 49.375 8.36C49.515 8.3 49.6717 8.29333 49.845 8.34C50.025 8.39333 50.115 8.50333 50.115 8.67ZM57.575 10.25C57.475 10.3767 57.3483 10.4233 57.195 10.39C57.0483 10.3633 56.9117 10.2933 56.785 10.18C56.6583 10.0733 56.5717 9.94667 56.525 9.8C56.4783 9.65333 56.5083 9.52333 56.615 9.41C56.4417 9.47667 56.2983 9.48667 56.185 9.44C56.065 9.38667 55.9817 9.30667 55.935 9.2C55.8883 9.09333 55.8917 8.97667 55.945 8.85C55.9983 8.73 56.1083 8.63667 56.275 8.57C56.0817 8.59 55.9283 8.55 55.815 8.45C55.7083 8.34333 55.6483 8.21667 55.635 8.07C55.6217 7.92333 55.6583 7.78667 55.745 7.66C55.8383 7.54 55.9817 7.47 56.175 7.45C55.9883 7.45 55.8483 7.38 55.755 7.24C55.6617 7.1 55.615 6.93667 55.615 6.75C55.615 6.56333 55.6617 6.4 55.755 6.26C55.8483 6.12 55.9883 6.05 56.175 6.05C55.9617 6.05 55.8183 6.00333 55.745 5.91C55.6783 5.81667 55.6783 5.72333 55.745 5.63C55.8183 5.53667 55.9617 5.49 56.175 5.49C55.9417 5.49 55.785 5.43 55.705 5.31C55.625 5.19 55.625 5.07 55.705 4.95C55.785 4.83 55.9417 4.77 56.175 4.77C55.9683 4.72333 55.8283 4.63333 55.755 4.5C55.6817 4.36667 55.6617 4.23333 55.695 4.1C55.7283 3.96667 55.8083 3.86 55.935 3.78C56.0617 3.7 56.225 3.68333 56.425 3.73C56.425 3.56333 56.495 3.43 56.635 3.33C56.7683 3.23 56.935 3.16333 57.135 3.13C57.335 3.10333 57.535 3.10333 57.735 3.13C57.9283 3.16333 58.0917 3.23 58.225 3.33C58.365 3.43 58.435 3.56333 58.435 3.73C58.6217 3.61667 58.785 3.60333 58.925 3.69C59.065 3.77 59.1417 3.89333 59.155 4.06C59.175 4.22 59.0917 4.35667 58.905 4.47C59.025 4.47 59.115 4.52667 59.175 4.64C59.2417 4.75333 59.275 4.88333 59.275 5.03C59.275 5.18333 59.2417 5.31333 59.175 5.42C59.115 5.53333 59.025 5.59 58.905 5.59C59.045 5.59 59.1517 5.65 59.225 5.77C59.305 5.89667 59.345 6.03667 59.345 6.19C59.345 6.35 59.305 6.49333 59.225 6.62C59.1517 6.74667 59.045 6.81 58.905 6.81C59.045 6.80333 59.155 6.85 59.235 6.95C59.315 7.05 59.3583 7.17333 59.365 7.32C59.365 7.46667 59.335 7.59 59.275 7.69C59.4417 7.67 59.6283 7.70333 59.835 7.79C60.0483 7.87667 60.215 7.98333 60.335 8.11C60.375 8.01 60.435 7.92 60.515 7.84C60.5883 7.76 60.6717 7.71 60.765 7.69C60.625 7.61667 60.5783 7.50667 60.625 7.36C60.665 7.20667 60.7917 7.13 61.005 7.13C60.8783 7.13 60.7783 7.04667 60.705 6.88C60.6383 6.71333 60.605 6.52 60.605 6.3C60.605 6.08 60.6383 5.88667 60.705 5.72C60.7783 5.56 60.8783 5.48 61.005 5.48C60.8183 5.48 60.695 5.43 60.635 5.33C60.575 5.22333 60.575 5.12 60.635 5.02C60.695 4.91333 60.8183 4.86 61.005 4.86C60.865 4.84667 60.765 4.77667 60.705 4.65C60.645 4.53 60.625 4.39667 60.645 4.25C60.665 4.09667 60.715 3.96667 60.795 3.86C60.8817 3.75333 60.9983 3.71 61.145 3.73C61.145 3.52333 61.1983 3.37 61.305 3.27C61.4117 3.16333 61.535 3.11 61.675 3.11C61.8083 3.11 61.9283 3.16333 62.035 3.27C62.1417 3.37 62.195 3.52333 62.195 3.73C62.195 3.51667 62.255 3.37333 62.375 3.3C62.5017 3.23333 62.625 3.23333 62.745 3.3C62.865 3.37333 62.925 3.51667 62.925 3.73C62.9983 3.59 63.095 3.51 63.215 3.49C63.3417 3.47 63.4583 3.49 63.565 3.55C63.6717 3.61667 63.745 3.70667 63.785 3.82C63.825 3.94 63.805 4.07 63.725 4.21C63.9117 4.21 64.0517 4.25667 64.145 4.35C64.2383 4.44333 64.285 4.55333 64.285 4.68C64.285 4.8 64.2383 4.91 64.145 5.01C64.0517 5.11 63.9117 5.16 63.725 5.16C63.9583 5.16 64.1117 5.22333 64.185 5.35C64.2583 5.47667 64.2583 5.60333 64.185 5.73C64.1117 5.86333 63.9583 5.93 63.725 5.93C63.8717 5.93 63.9817 6.01 64.055 6.17C64.135 6.33667 64.175 6.52667 64.175 6.74C64.175 6.95333 64.135 7.14333 64.055 7.31C63.9817 7.47 63.8717 7.55 63.725 7.55C63.9117 7.55 64.0483 7.61667 64.135 7.75C64.2217 7.89 64.265 8.04667 64.265 8.22C64.265 8.4 64.2217 8.55667 64.135 8.69C64.0483 8.81667 63.9117 8.88 63.725 8.88C63.8383 8.90667 63.9083 8.99667 63.935 9.15C63.9617 9.31 63.955 9.48333 63.915 9.67C63.8683 9.86333 63.8017 10.0267 63.715 10.16C63.6283 10.2867 63.5283 10.3367 63.415 10.31C63.415 10.55 63.3483 10.71 63.215 10.79C63.0883 10.87 62.9583 10.87 62.825 10.79C62.6983 10.71 62.635 10.55 62.635 10.31C62.635 10.5433 62.565 10.7 62.425 10.78C62.2917 10.86 62.155 10.8633 62.015 10.79C61.875 10.71 61.805 10.55 61.805 10.31C61.7383 10.5033 61.655 10.63 61.555 10.69C61.4483 10.7433 61.355 10.7367 61.275 10.67C61.2017 10.61 61.1683 10.5 61.175 10.34C61.1017 10.4867 60.965 10.5833 60.765 10.63C60.565 10.6767 60.375 10.6667 60.195 10.6C60.015 10.5267 59.925 10.3967 59.925 10.21C59.9383 10.3433 59.875 10.4533 59.735 10.54C59.595 10.6267 59.405 10.68 59.165 10.7C58.925 10.72 58.665 10.6967 58.385 10.63C58.105 10.5633 57.835 10.4367 57.575 10.25ZM70.125 10.42C70.045 10.5867 69.9217 10.6867 69.755 10.72C69.5883 10.7467 69.415 10.7233 69.235 10.65C69.0483 10.5833 68.9017 10.4833 68.795 10.35C68.7283 10.4367 68.635 10.49 68.515 10.51C68.4017 10.5367 68.2783 10.4967 68.145 10.39C68.1117 10.6567 68.0383 10.8267 67.925 10.9C67.8117 10.9733 67.7083 10.9633 67.615 10.87C67.5217 10.7767 67.495 10.61 67.535 10.37C67.5017 10.5167 67.4017 10.6267 67.235 10.7C67.0617 10.7733 66.865 10.81 66.645 10.81C66.425 10.8033 66.2317 10.7567 66.065 10.67C65.905 10.59 65.825 10.47 65.825 10.31C65.625 10.35 65.485 10.3233 65.405 10.23C65.3183 10.1367 65.295 10.0267 65.335 9.9C65.3683 9.78 65.485 9.70333 65.685 9.67C65.4117 9.67 65.2283 9.62333 65.135 9.53C65.0417 9.43667 65.0417 9.34333 65.135 9.25C65.2283 9.15667 65.4117 9.11 65.685 9.11C65.5517 9.11 65.4483 9.04 65.375 8.9C65.3017 8.76667 65.2517 8.6 65.225 8.4C65.1917 8.2 65.1917 8 65.225 7.8C65.2517 7.6 65.3017 7.43 65.375 7.29C65.4483 7.15667 65.5517 7.09 65.685 7.09C65.505 7.09 65.3683 7 65.275 6.82C65.1817 6.63333 65.135 6.42333 65.135 6.19C65.135 5.95667 65.1817 5.75 65.275 5.57C65.3683 5.39 65.505 5.3 65.685 5.3C65.485 5.3 65.3383 5.23667 65.245 5.11C65.1517 4.98333 65.105 4.84 65.105 4.68C65.105 4.52 65.1517 4.37667 65.245 4.25C65.3383 4.13 65.485 4.07 65.685 4.07C65.5317 4.07 65.4217 3.97667 65.355 3.79C65.2817 3.60333 65.245 3.38667 65.245 3.14C65.245 2.9 65.2817 2.68667 65.355 2.5C65.4217 2.31333 65.5317 2.22 65.685 2.22C65.5317 2.22 65.4183 2.16333 65.345 2.05C65.265 1.93667 65.225 1.80667 65.225 1.66C65.225 1.50667 65.265 1.37667 65.345 1.27C65.4183 1.15667 65.5317 1.1 65.685 1.1C65.685 0.946667 65.7583 0.83 65.905 0.75C66.0583 0.663333 66.235 0.62 66.435 0.62C66.635 0.62 66.8117 0.656667 66.965 0.73C67.1183 0.81 67.195 0.923333 67.195 1.07C67.195 0.89 67.255 0.756667 67.375 0.67C67.4883 0.583333 67.6217 0.536666 67.775 0.53C67.9283 0.523333 68.065 0.566666 68.185 0.66C68.2983 0.746666 68.355 0.883333 68.355 1.07C68.6017 1.07667 68.7617 1.14333 68.835 1.27C68.9083 1.39 68.9017 1.50667 68.815 1.62C68.7217 1.72667 68.5583 1.77667 68.325 1.77C68.505 1.77 68.6383 1.82667 68.725 1.94C68.8183 2.05333 68.865 2.18333 68.865 2.33C68.865 2.47667 68.8183 2.60667 68.725 2.72C68.6383 2.83333 68.505 2.89 68.325 2.89C68.485 2.89 68.605 2.92 68.685 2.98C68.765 3.04 68.8083 3.10667 68.815 3.18C68.975 3.18 69.125 3.23 69.265 3.33C69.405 3.43 69.465 3.55333 69.445 3.7C69.4917 3.58 69.6117 3.48333 69.805 3.41C69.9983 3.34333 70.2083 3.30667 70.435 3.3C70.6617 3.28667 70.8617 3.31333 71.035 3.38C71.2083 3.44667 71.3017 3.55 71.315 3.69C71.395 3.57667 71.5317 3.55 71.725 3.61C71.9183 3.67 72.1083 3.77667 72.295 3.93C72.4883 4.08333 72.635 4.24667 72.735 4.42C72.8417 4.58667 72.8517 4.72667 72.765 4.84C72.9517 4.8 73.115 4.85333 73.255 5C73.3883 5.15333 73.4817 5.34 73.535 5.56C73.5817 5.78667 73.5783 5.99667 73.525 6.19C73.465 6.37667 73.3417 6.49333 73.155 6.54C73.315 6.54 73.4317 6.61 73.505 6.75C73.585 6.88333 73.625 7.04 73.625 7.22C73.625 7.39333 73.5817 7.54667 73.495 7.68C73.4083 7.80667 73.2883 7.87 73.135 7.87C73.2817 7.91667 73.3683 8.03 73.395 8.21C73.415 8.39 73.395 8.58 73.335 8.78C73.275 8.98667 73.185 9.15667 73.065 9.29C72.9383 9.41667 72.805 9.45667 72.665 9.41C72.7717 9.53667 72.8083 9.66333 72.775 9.79C72.7417 9.92333 72.6717 10.0367 72.565 10.13C72.4583 10.23 72.3383 10.29 72.205 10.31C72.0783 10.33 71.9583 10.2833 71.845 10.17C71.8917 10.3633 71.855 10.5233 71.735 10.65C71.6217 10.77 71.465 10.8467 71.265 10.88C71.0717 10.92 70.8683 10.9033 70.655 10.83C70.4483 10.7567 70.2717 10.62 70.125 10.42ZM68.315 6.77C68.455 6.77 68.5483 6.80333 68.595 6.87C68.6417 6.93 68.6417 6.99333 68.595 7.06C68.5483 7.12667 68.455 7.16 68.315 7.16C68.4083 7.15333 68.4817 7.19667 68.535 7.29C68.5817 7.38333 68.6083 7.48667 68.615 7.6C68.6217 7.72 68.595 7.81 68.535 7.87C68.6417 7.85667 68.7617 7.88 68.895 7.94C69.0283 8 69.1583 8.08 69.285 8.18C69.4117 8.28667 69.5083 8.38667 69.575 8.48C69.575 8.34667 69.655 8.2 69.815 8.04C69.975 7.88 70.115 7.8 70.235 7.8C70.1417 7.74 70.0883 7.63 70.075 7.47C70.0617 7.31667 70.085 7.17667 70.145 7.05C70.205 6.91667 70.295 6.85667 70.415 6.87C70.3283 6.85667 70.2583 6.79 70.205 6.67C70.1517 6.55 70.115 6.41667 70.095 6.27C70.075 6.12333 70.0883 6.01 70.135 5.93C70.0417 5.97667 69.945 5.97 69.845 5.91C69.7383 5.85 69.675 5.76667 69.655 5.66C69.5817 5.77333 69.475 5.83333 69.335 5.84C69.1883 5.84 69.0783 5.79 69.005 5.69C68.9917 5.76333 68.9617 5.81333 68.915 5.84C68.8683 5.87333 68.8117 5.87 68.745 5.83C68.7917 5.93 68.785 6.03667 68.725 6.15C68.665 6.26333 68.5783 6.32333 68.465 6.33C68.625 6.37667 68.6917 6.46333 68.665 6.59C68.6383 6.71667 68.5217 6.77667 68.315 6.77ZM79.375 10.42C79.3017 10.5867 79.1817 10.6867 79.015 10.72C78.8417 10.7467 78.665 10.7233 78.485 10.65C78.305 10.5833 78.1583 10.4833 78.045 10.35C77.9783 10.4367 77.8883 10.49 77.775 10.51C77.655 10.5367 77.5317 10.4967 77.405 10.39C77.365 10.6567 77.2883 10.8267 77.175 10.9C77.0617 10.9733 76.9583 10.9633 76.865 10.87C76.7717 10.7767 76.745 10.61 76.785 10.37C76.7583 10.5167 76.6583 10.6267 76.485 10.7C76.3117 10.7733 76.115 10.81 75.895 10.81C75.675 10.8033 75.485 10.7567 75.325 10.67C75.1583 10.59 75.075 10.47 75.075 10.31C74.8817 10.35 74.7417 10.3233 74.655 10.23C74.575 10.1367 74.5517 10.0267 74.585 9.9C74.625 9.78 74.7417 9.70333 74.935 9.67C74.6683 9.67 74.4883 9.62333 74.395 9.53C74.3017 9.43667 74.3017 9.34333 74.395 9.25C74.4883 9.15667 74.6683 9.11 74.935 9.11C74.8083 9.11 74.705 9.04 74.625 8.9C74.5517 8.76667 74.5017 8.6 74.475 8.4C74.4483 8.2 74.4483 8 74.475 7.8C74.5017 7.6 74.5517 7.43 74.625 7.29C74.705 7.15667 74.8083 7.09 74.935 7.09C74.7617 7.09 74.6283 7 74.535 6.82C74.4417 6.63333 74.395 6.42333 74.395 6.19C74.395 5.95667 74.4417 5.75 74.535 5.57C74.6283 5.39 74.7617 5.3 74.935 5.3C74.7417 5.3 74.5983 5.23667 74.505 5.11C74.4117 4.98333 74.365 4.84 74.365 4.68C74.365 4.52 74.4117 4.37667 74.505 4.25C74.5983 4.13 74.7417 4.07 74.935 4.07C74.7883 4.07 74.6783 3.97667 74.605 3.79C74.5383 3.60333 74.505 3.38667 74.505 3.14C74.505 2.9 74.5383 2.68667 74.605 2.5C74.6783 2.31333 74.7883 2.22 74.935 2.22C74.7883 2.22 74.675 2.16333 74.595 2.05C74.515 1.93667 74.475 1.80667 74.475 1.66C74.475 1.50667 74.515 1.37667 74.595 1.27C74.675 1.15667 74.7883 1.1 74.935 1.1C74.935 0.946667 75.0117 0.83 75.165 0.75C75.3117 0.663333 75.485 0.62 75.685 0.62C75.885 0.62 76.0617 0.656667 76.215 0.73C76.3683 0.81 76.445 0.923333 76.445 1.07C76.445 0.89 76.505 0.756667 76.625 0.67C76.7383 0.583333 76.875 0.536666 77.035 0.53C77.1883 0.523333 77.3217 0.566666 77.435 0.66C77.555 0.746666 77.615 0.883333 77.615 1.07C77.855 1.07667 78.0117 1.14333 78.085 1.27C78.1583 1.39 78.1517 1.50667 78.065 1.62C77.9783 1.72667 77.8183 1.77667 77.585 1.77C77.7583 1.77 77.8917 1.82667 77.985 1.94C78.0717 2.05333 78.115 2.18333 78.115 2.33C78.115 2.47667 78.0717 2.60667 77.985 2.72C77.8917 2.83333 77.7583 2.89 77.585 2.89C77.745 2.89 77.865 2.92 77.945 2.98C78.0183 3.04 78.0617 3.10667 78.075 3.18C78.235 3.18 78.385 3.23 78.525 3.33C78.665 3.43 78.725 3.55333 78.705 3.7C78.7517 3.58 78.8717 3.48333 79.065 3.41C79.2517 3.34333 79.4617 3.30667 79.695 3.3C79.9217 3.28667 80.1217 3.31333 80.295 3.38C80.4683 3.44667 80.5583 3.55 80.565 3.69C80.6517 3.57667 80.7883 3.55 80.975 3.61C81.1683 3.67 81.3617 3.77667 81.555 3.93C81.7417 4.08333 81.8883 4.24667 81.995 4.42C82.095 4.58667 82.105 4.72667 82.025 4.84C82.2117 4.8 82.3717 4.85333 82.505 5C82.6383 5.15333 82.7317 5.34 82.785 5.56C82.8383 5.78667 82.835 5.99667 82.775 6.19C82.7217 6.37667 82.6017 6.49333 82.415 6.54C82.575 6.54 82.6917 6.61 82.765 6.75C82.8383 6.88333 82.875 7.04 82.875 7.22C82.875 7.39333 82.8317 7.54667 82.745 7.68C82.665 7.80667 82.545 7.87 82.385 7.87C82.5317 7.91667 82.6183 8.03 82.645 8.21C82.665 8.39 82.645 8.58 82.585 8.78C82.525 8.98667 82.435 9.15667 82.315 9.29C82.195 9.41667 82.065 9.45667 81.925 9.41C82.025 9.53667 82.0583 9.66333 82.025 9.79C81.9917 9.92333 81.9217 10.0367 81.815 10.13C81.7083 10.23 81.5917 10.29 81.465 10.31C81.3317 10.33 81.2083 10.2833 81.095 10.17C81.1417 10.3633 81.1083 10.5233 80.995 10.65C80.875 10.77 80.7183 10.8467 80.525 10.88C80.325 10.92 80.1217 10.9033 79.915 10.83C79.7017 10.7567 79.5217 10.62 79.375 10.42ZM77.565 6.77C77.705 6.77 77.7983 6.80333 77.845 6.87C77.8917 6.93 77.8917 6.99333 77.845 7.06C77.7983 7.12667 77.705 7.16 77.565 7.16C77.6583 7.15333 77.7317 7.19667 77.785 7.29C77.8383 7.38333 77.8683 7.48667 77.875 7.6C77.875 7.72 77.8483 7.81 77.795 7.87C77.895 7.85667 78.015 7.88 78.155 7.94C78.2883 8 78.4183 8.08 78.545 8.18C78.6717 8.28667 78.765 8.38667 78.825 8.48C78.825 8.34667 78.905 8.2 79.065 8.04C79.225 7.88 79.365 7.8 79.485 7.8C79.3917 7.74 79.3383 7.63 79.325 7.47C79.3117 7.31667 79.335 7.17667 79.395 7.05C79.455 6.91667 79.545 6.85667 79.665 6.87C79.585 6.85667 79.515 6.79 79.455 6.67C79.4017 6.55 79.365 6.41667 79.345 6.27C79.325 6.12333 79.3383 6.01 79.385 5.93C79.2917 5.97667 79.195 5.97 79.095 5.91C78.995 5.85 78.935 5.76667 78.915 5.66C78.8417 5.77333 78.7317 5.83333 78.585 5.84C78.4383 5.84 78.3283 5.79 78.255 5.69C78.2483 5.76333 78.2217 5.81333 78.175 5.84C78.1283 5.87333 78.0717 5.87 78.005 5.83C78.0517 5.93 78.045 6.03667 77.985 6.15C77.925 6.26333 77.8383 6.32333 77.725 6.33C77.885 6.37667 77.9483 6.46333 77.915 6.59C77.8883 6.71667 77.7717 6.77667 77.565 6.77ZM84.195 10.23C84.0683 10.23 83.9717 10.1633 83.905 10.03C83.8317 9.89667 83.7817 9.73333 83.755 9.54C83.7283 9.34667 83.7283 9.15 83.755 8.95C83.7817 8.75667 83.8317 8.59333 83.905 8.46C83.9717 8.33333 84.0683 8.27 84.195 8.27C84.015 8.27 83.8817 8.19 83.795 8.03C83.7017 7.87 83.655 7.68667 83.655 7.48C83.655 7.27333 83.7017 7.09333 83.795 6.94C83.8817 6.78 84.015 6.7 84.195 6.7C84.0083 6.7 83.8683 6.65667 83.775 6.57C83.6817 6.47667 83.635 6.37 83.635 6.25C83.635 6.13 83.6817 6.02333 83.775 5.93C83.8683 5.84333 84.0083 5.8 84.195 5.8C84.0083 5.8 83.8683 5.71333 83.775 5.54C83.6817 5.36667 83.635 5.16333 83.635 4.93C83.635 4.69667 83.6817 4.49333 83.775 4.32C83.8683 4.15333 84.0083 4.07 84.195 4.07C83.995 4.07 83.8483 4.02 83.755 3.92C83.655 3.82 83.605 3.71 83.605 3.59C83.605 3.47 83.655 3.36 83.755 3.26C83.8483 3.16 83.995 3.11 84.195 3.11C84.055 3.11 83.9383 3.04667 83.845 2.92C83.7583 2.78667 83.7017 2.62333 83.675 2.43C83.6483 2.23 83.6483 2.03333 83.675 1.84C83.7017 1.64667 83.7583 1.48333 83.845 1.35C83.9383 1.21667 84.055 1.15 84.195 1.15C84.155 0.936666 84.175 0.79 84.255 0.71C84.335 0.623333 84.425 0.606667 84.525 0.66C84.6183 0.72 84.685 0.856666 84.725 1.07C84.725 0.91 84.7917 0.783333 84.925 0.69C85.0583 0.596667 85.225 0.533333 85.425 0.5C85.6183 0.466667 85.815 0.466667 86.015 0.5C86.215 0.533333 86.385 0.596667 86.525 0.69C86.6583 0.783333 86.725 0.91 86.725 1.07C86.905 1.07 87.0383 1.16 87.125 1.34C87.2117 1.52667 87.2583 1.73667 87.265 1.97C87.2717 2.21 87.2317 2.42333 87.145 2.61C87.0583 2.79667 86.9283 2.89 86.755 2.89C86.9017 2.89 87.0217 2.96 87.115 3.1C87.2083 3.24 87.2683 3.41333 87.295 3.62C87.3283 3.82667 87.3283 4.03 87.295 4.23C87.2683 4.43667 87.2083 4.61 87.115 4.75C87.0217 4.89 86.9017 4.96 86.755 4.96C86.9283 4.96 87.0617 5.01333 87.155 5.12C87.2417 5.22 87.285 5.33667 87.285 5.47C87.285 5.59667 87.2417 5.71333 87.155 5.82C87.0617 5.92 86.9283 5.97 86.755 5.97C86.895 5.97 87.0017 6.02 87.075 6.12C87.1483 6.21333 87.185 6.32333 87.185 6.45C87.185 6.57 87.1483 6.68 87.075 6.78C87.0017 6.87333 86.895 6.92 86.755 6.92C86.9283 6.92 87.0617 7.01667 87.155 7.21C87.2417 7.40333 87.285 7.62333 87.285 7.87C87.285 8.12333 87.2417 8.34667 87.155 8.54C87.0617 8.73333 86.9283 8.83 86.755 8.83C86.9417 8.83 87.0783 8.88333 87.165 8.99C87.2517 9.10333 87.295 9.23667 87.295 9.39C87.295 9.53667 87.2517 9.66667 87.165 9.78C87.0783 9.89333 86.9417 9.95 86.755 9.95C86.875 10.1167 86.9083 10.26 86.855 10.38C86.8083 10.5 86.7217 10.56 86.595 10.56C86.4683 10.56 86.345 10.4767 86.225 10.31C86.225 10.5833 86.1483 10.7633 85.995 10.85C85.8483 10.9367 85.7017 10.9367 85.555 10.85C85.4083 10.7633 85.335 10.5833 85.335 10.31C85.335 10.4567 85.2783 10.57 85.165 10.65C85.045 10.7233 84.915 10.7567 84.775 10.75C84.6283 10.7433 84.4983 10.6967 84.385 10.61C84.265 10.5233 84.2017 10.3967 84.195 10.23ZM91.345 10.41C91.2917 10.6033 91.1883 10.73 91.035 10.79C90.8883 10.85 90.7317 10.86 90.565 10.82C90.405 10.78 90.2717 10.6933 90.165 10.56C90.065 10.4333 90.0417 10.27 90.095 10.07C89.995 10.21 89.875 10.2867 89.735 10.3C89.595 10.3133 89.4683 10.28 89.355 10.2C89.235 10.1133 89.1583 10.0033 89.125 9.87C89.0917 9.73667 89.1317 9.59333 89.245 9.44C89.105 9.50667 88.965 9.47667 88.825 9.35C88.685 9.22333 88.5683 9.05667 88.475 8.85C88.3817 8.63667 88.335 8.43667 88.335 8.25C88.335 8.06333 88.405 7.93667 88.545 7.87C88.3783 7.87 88.2517 7.79333 88.165 7.64C88.085 7.48 88.045 7.29333 88.045 7.08C88.045 6.86 88.085 6.67333 88.165 6.52C88.2517 6.36 88.375 6.28 88.535 6.28C88.2817 6.20667 88.1317 6.09333 88.085 5.94C88.0383 5.79333 88.0717 5.66667 88.185 5.56C88.305 5.46 88.4917 5.44667 88.745 5.52C88.6583 5.44667 88.6317 5.33667 88.665 5.19C88.6983 5.05 88.7717 4.9 88.885 4.74C88.9917 4.58 89.115 4.43667 89.255 4.31C89.395 4.18333 89.535 4.09333 89.675 4.04C89.8083 3.98 89.9183 3.99 90.005 4.07C89.9583 3.91 90.0017 3.77 90.135 3.65C90.2683 3.52333 90.4383 3.43 90.645 3.37C90.8517 3.31 91.0417 3.29667 91.215 3.33C91.395 3.36333 91.5083 3.46 91.555 3.62C91.5617 3.44 91.6683 3.31667 91.875 3.25C92.075 3.17667 92.2983 3.15 92.545 3.17C92.7917 3.19 93.0083 3.25 93.195 3.35C93.3817 3.45667 93.465 3.59667 93.445 3.77C93.5183 3.59667 93.625 3.5 93.765 3.48C93.8983 3.46667 94.0083 3.51333 94.095 3.62C94.1817 3.72 94.195 3.86 94.135 4.04C94.235 3.93333 94.3717 3.91667 94.545 3.99C94.7183 4.05667 94.885 4.17 95.045 4.33C95.2117 4.49 95.3283 4.66 95.395 4.84C95.4683 5.01333 95.4517 5.15333 95.345 5.26C95.485 5.22667 95.615 5.27333 95.735 5.4C95.8483 5.52 95.9417 5.67667 96.015 5.87C96.0817 6.07 96.1217 6.27333 96.135 6.48C96.1417 6.69333 96.1183 6.87667 96.065 7.03C96.005 7.19 95.9017 7.28333 95.755 7.31C96.0283 7.43667 96.1483 7.53 96.115 7.59C96.0883 7.65 95.9417 7.62 95.675 7.5C95.675 7.62 95.5983 7.71 95.445 7.77C95.285 7.83 95.1083 7.86 94.915 7.86C94.7217 7.86 94.5483 7.83 94.395 7.77C94.235 7.71 94.155 7.62 94.155 7.5C94.155 7.65333 94.085 7.77 93.945 7.85C93.805 7.93 93.645 7.97333 93.465 7.98C93.285 7.98667 93.125 7.95 92.985 7.87C92.845 7.79 92.775 7.67333 92.775 7.52C92.7817 7.68 92.705 7.81 92.545 7.91C92.3783 8.01 92.1917 8.06667 91.985 8.08C92.0783 8.19333 92.1583 8.31333 92.225 8.44C92.285 8.56667 92.3217 8.68 92.335 8.78C92.4283 8.68 92.5683 8.59333 92.755 8.52C92.9417 8.44667 93.135 8.4 93.335 8.38C93.5283 8.36 93.7017 8.37 93.855 8.41C94.0083 8.45667 94.1017 8.54333 94.135 8.67C94.135 8.51 94.1983 8.39 94.325 8.31C94.445 8.22333 94.5917 8.18 94.765 8.18C94.9317 8.18 95.0783 8.22333 95.205 8.31C95.3317 8.39 95.395 8.51 95.395 8.67C95.5817 8.71 95.6917 8.78667 95.725 8.9C95.765 9.02 95.7417 9.12333 95.655 9.21C95.575 9.29667 95.445 9.32333 95.265 9.29C95.3517 9.41 95.365 9.53333 95.305 9.66C95.2517 9.78667 95.1617 9.89333 95.035 9.98C94.9083 10.0667 94.7783 10.1167 94.645 10.13C94.505 10.1367 94.395 10.0833 94.315 9.97C94.3683 10.15 94.3417 10.3067 94.235 10.44C94.1283 10.5667 93.985 10.66 93.805 10.72C93.6317 10.7733 93.4617 10.7733 93.295 10.72C93.135 10.6733 93.025 10.56 92.965 10.38C92.985 10.6333 92.9183 10.8067 92.765 10.9C92.6117 10.9933 92.4083 11 92.155 10.92C91.895 10.84 91.625 10.67 91.345 10.41ZM91.915 6.45C91.915 6.26333 91.9683 6.15667 92.075 6.13C92.175 6.11 92.245 6.17 92.285 6.31C92.3117 6.22333 92.3683 6.14333 92.455 6.07C92.535 5.99667 92.6217 5.94333 92.715 5.91C92.6017 5.83 92.5083 5.71 92.435 5.55C92.3617 5.39 92.3383 5.25 92.365 5.13C92.285 5.17667 92.185 5.20333 92.065 5.21C91.9517 5.22333 91.8517 5.21 91.765 5.17C91.7917 5.27667 91.7883 5.4 91.755 5.54C91.715 5.68 91.655 5.80333 91.575 5.91C91.495 6.02333 91.405 6.08667 91.305 6.1C91.425 6.12667 91.515 6.19 91.575 6.29C91.635 6.39667 91.7483 6.45 91.915 6.45ZM99.325 10.34C99.2717 10.5933 99.1883 10.7467 99.075 10.8C98.9617 10.8533 98.8717 10.83 98.805 10.73C98.7317 10.63 98.7217 10.4567 98.775 10.21C98.715 10.35 98.6083 10.4267 98.455 10.44C98.3083 10.4533 98.1617 10.4267 98.015 10.36C97.8683 10.2867 97.7583 10.1867 97.685 10.06C97.605 9.94 97.595 9.80333 97.655 9.65C97.5083 9.60333 97.415 9.52333 97.375 9.41C97.3283 9.29 97.3283 9.17333 97.375 9.06C97.415 8.94 97.4883 8.84667 97.595 8.78C97.7017 8.72 97.8317 8.71667 97.985 8.77C97.985 8.63 98.0383 8.52333 98.145 8.45C98.2583 8.38333 98.3883 8.35 98.535 8.35C98.6817 8.35 98.8083 8.38333 98.915 8.45C99.0283 8.52333 99.085 8.63 99.085 8.77C99.1117 8.63 99.2117 8.53333 99.385 8.48C99.5517 8.42 99.745 8.4 99.965 8.42C100.192 8.44 100.395 8.49 100.575 8.57C100.582 8.51 100.608 8.46 100.655 8.42C100.608 8.33333 100.608 8.23 100.655 8.11C100.555 8.19667 100.405 8.24 100.205 8.24C100.012 8.24 99.815 8.20667 99.615 8.14C99.415 8.07333 99.2517 7.98333 99.125 7.87C99.005 7.76333 98.9583 7.64333 98.985 7.51C98.925 7.69667 98.8317 7.80333 98.705 7.83C98.585 7.85667 98.4883 7.82333 98.415 7.73C98.3417 7.63 98.3383 7.48333 98.405 7.29C98.2983 7.36333 98.1783 7.36 98.045 7.28C97.9117 7.2 97.775 7.08 97.635 6.92C97.5017 6.76 97.3883 6.58667 97.295 6.4C97.2017 6.21333 97.145 6.04333 97.125 5.89C97.105 5.73 97.1483 5.61667 97.255 5.55C97.1483 5.49667 97.105 5.39333 97.125 5.24C97.1383 5.09333 97.1883 4.94 97.275 4.78C97.3617 4.62 97.465 4.49333 97.585 4.4C97.6983 4.30667 97.8083 4.29 97.915 4.35C97.8217 4.19 97.815 4.05 97.895 3.93C97.9683 3.80333 98.075 3.73333 98.215 3.72C98.355 3.70667 98.4783 3.78 98.585 3.94C98.5583 3.79333 98.6017 3.66333 98.715 3.55C98.835 3.43667 98.9883 3.34667 99.175 3.28C99.3617 3.21333 99.555 3.18 99.755 3.18C99.955 3.17333 100.128 3.20333 100.275 3.27C100.428 3.33667 100.518 3.44333 100.545 3.59C100.565 3.41 100.638 3.28667 100.765 3.22C100.885 3.14667 101.018 3.12 101.165 3.14C101.312 3.16 101.435 3.22 101.535 3.32C101.642 3.42667 101.678 3.56333 101.645 3.73C101.705 3.55 101.788 3.44333 101.895 3.41C102.002 3.38333 102.092 3.41 102.165 3.49C102.238 3.57667 102.248 3.70667 102.195 3.88C102.268 3.74 102.385 3.67 102.545 3.67C102.705 3.67 102.862 3.71333 103.015 3.8C103.168 3.88667 103.285 4 103.365 4.14C103.445 4.28 103.442 4.42 103.355 4.56C103.568 4.62 103.692 4.72 103.725 4.86C103.758 5 103.722 5.12 103.615 5.22C103.508 5.32 103.352 5.33667 103.145 5.27C103.145 5.43667 103.082 5.56 102.955 5.64C102.822 5.72 102.672 5.76 102.505 5.76C102.338 5.76 102.192 5.72 102.065 5.64C101.938 5.56 101.875 5.43667 101.875 5.27C101.848 5.38333 101.765 5.45667 101.625 5.49C101.492 5.53 101.335 5.54 101.155 5.52C100.982 5.49333 100.815 5.44667 100.655 5.38C100.662 5.5 100.618 5.61333 100.525 5.72C100.732 5.76667 100.925 5.85 101.105 5.97C101.278 6.09 101.342 6.21 101.295 6.33C101.328 6.20333 101.408 6.11667 101.535 6.07C101.668 6.02333 101.808 6.01667 101.955 6.05C102.108 6.08333 102.235 6.14667 102.335 6.24C102.435 6.33333 102.472 6.44333 102.445 6.57C102.512 6.49667 102.618 6.48 102.765 6.52C102.905 6.56667 103.058 6.64667 103.225 6.76C103.385 6.88 103.535 7.01 103.675 7.15C103.815 7.29667 103.918 7.43667 103.985 7.57C104.052 7.71 104.052 7.81667 103.985 7.89C104.185 7.87667 104.332 7.91667 104.425 8.01C104.518 8.10333 104.565 8.21333 104.565 8.34C104.572 8.46 104.532 8.56667 104.445 8.66C104.352 8.75333 104.212 8.80333 104.025 8.81C104.138 8.89667 104.185 9.01333 104.165 9.16C104.138 9.31333 104.072 9.46 103.965 9.6C103.858 9.74 103.738 9.84 103.605 9.9C103.465 9.96 103.335 9.94667 103.215 9.86C103.288 10.0267 103.295 10.1733 103.235 10.3C103.168 10.42 103.068 10.5067 102.935 10.56C102.808 10.62 102.675 10.6267 102.535 10.58C102.402 10.5333 102.302 10.43 102.235 10.27C102.255 10.4367 102.175 10.57 101.995 10.67C101.808 10.7767 101.568 10.84 101.275 10.86C100.975 10.8733 100.655 10.84 100.315 10.76C99.975 10.6733 99.645 10.5333 99.325 10.34Z" fill="black"/>
</svg>
