<svg width="54" height="16" viewBox="0 0 54 16" fill="none" xmlns="http://www.w3.org/2000/svg">
<path d="M7.46 11.06C7.16 11.06 6.87333 10.98 6.6 10.82C6.33333 10.66 6.1 10.4567 5.9 10.21C5.70667 9.95667 5.56667 9.7 5.48 9.44C5.36 9.03333 5.27333 8.64667 5.22 8.28C5.16 7.91333 5.10333 7.53667 5.05 7.15C4.95667 7.18333 4.86667 7.20667 4.78 7.22C4.7 7.24 4.61333 7.25 4.52 7.25C4.43333 7.25 4.34 7.20333 4.24 7.11C4.13333 7.01 4.04 6.9 3.96 6.78C3.87333 6.65333 3.82 6.56 3.8 6.5C3.77333 6.36 3.76 6.22667 3.76 6.1C3.76 6.05333 3.76333 6.00667 3.77 5.96C3.77667 5.91333 3.78333 5.86667 3.79 5.82C3.83 5.66667 3.92 5.48667 4.06 5.28C4.20667 5.08 4.37667 4.98 4.57 4.98C4.71 4.98 4.82 5.02333 4.9 5.11C4.98 5.19667 5.04 5.28667 5.08 5.38C5.10667 5.48 5.14 5.55667 5.18 5.61C5.22667 5.67 5.25333 5.74667 5.26 5.84C5.28 5.93333 5.3 6.02667 5.32 6.12C5.33333 6.22 5.35 6.31667 5.37 6.41C5.57667 6.26333 5.77333 6.09 5.96 5.89C6.14667 5.69 6.30667 5.5 6.44 5.32C6.65333 5.04667 6.81 4.72 6.91 4.34C7.00333 3.96 7.08333 3.6 7.15 3.26C7.17667 3.09333 7.18667 2.97667 7.18 2.91C7.18 2.42333 7.07333 2.03 6.86 1.73C6.64 1.42333 6.36 1.2 6.02 1.06C5.68 0.913333 5.31 0.84 4.91 0.84C4.20333 0.84 3.55 1.02333 2.95 1.39C2.75667 1.49667 2.54667 1.60333 2.32 1.71C2.09333 1.82333 1.91 1.97333 1.77 2.16C1.53667 2.45333 1.31333 2.75 1.1 3.05C0.88 3.35 0.77 3.71 0.77 4.13C0.77 4.17 0.77 4.23667 0.77 4.33C0.77 4.43 0.78 4.52 0.8 4.6C0.826667 4.68 0.87 4.72 0.93 4.72C1.05667 4.72 1.16667 4.67 1.26 4.57C1.36 4.47 1.44 4.35 1.5 4.21C1.56 4.07 1.59 3.95 1.59 3.85C1.59 3.76333 1.63333 3.72 1.72 3.72C1.81333 3.72 1.86 3.76667 1.86 3.86H1.84C1.84 4 1.79333 4.16333 1.7 4.35C1.60667 4.53 1.49 4.68667 1.35 4.82C1.21 4.96 1.06333 5.03 0.91 5.03C0.756667 5.03 0.653333 4.97667 0.6 4.87C0.54 4.77 0.51 4.64667 0.51 4.5C0.503333 4.35333 0.5 4.23 0.5 4.13C0.5 3.68333 0.59 3.28667 0.77 2.94C0.956667 2.59333 1.18 2.24667 1.44 1.9C1.60667 1.68667 1.79 1.49667 1.99 1.33C2.19 1.16333 2.40333 1.01333 2.63 0.88C2.93 0.706667 3.19 0.55 3.41 0.41C3.62333 0.276667 3.90333 0.19 4.25 0.15C4.32333 0.143333 4.4 0.14 4.48 0.14C4.55333 0.14 4.62333 0.14 4.69 0.14C5.28333 0.14 5.83333 0.243334 6.34 0.45C6.84 0.663334 7.24333 0.976667 7.55 1.39C7.85 1.79667 8 2.30333 8 2.91C8 3.07 7.98667 3.23 7.96 3.39C7.92667 3.55 7.88667 3.70667 7.84 3.86C7.76 4.2 7.64 4.52333 7.48 4.83C7.31333 5.13667 7.13667 5.41333 6.95 5.66C6.78333 5.9 6.57333 6.14 6.32 6.38C6.06 6.62667 5.78 6.83 5.48 6.99C5.56 7.36333 5.65 7.73333 5.75 8.1C5.85 8.46667 5.96333 8.85 6.09 9.25C6.14333 9.43667 6.23667 9.62333 6.37 9.81C6.51 9.99667 6.67333 10.1533 6.86 10.28C7.05333 10.4 7.25667 10.46 7.47 10.46C7.65 10.46 7.78667 10.38 7.88 10.22C7.97333 10.06 8.03667 9.87 8.07 9.65C8.10333 9.43 8.12 9.22667 8.12 9.04C8.12 8.76 8.08333 8.49 8.01 8.23C7.94333 7.97 7.8 7.73667 7.58 7.53C7.48667 7.45 7.38667 7.41 7.28 7.41C7.26667 7.41 7.24333 7.41667 7.21 7.43C7.17667 7.44333 7.15667 7.45 7.15 7.45C7.14333 7.45667 7.13 7.46 7.11 7.46C7.09 7.46 7.07667 7.46667 7.07 7.48C6.98333 7.48 6.94 7.43333 6.94 7.34C6.94 7.26 6.97667 7.21333 7.05 7.2C7.09 7.18 7.12667 7.16333 7.16 7.15C7.2 7.14333 7.24 7.14333 7.28 7.15C7.48 7.15 7.64 7.21333 7.76 7.34C7.87333 7.46 7.98333 7.59 8.09 7.73C8.21 7.89667 8.33333 8.08667 8.46 8.3C8.58667 8.51333 8.65 8.75667 8.65 9.03C8.65 9.31 8.60667 9.61 8.52 9.93C8.42667 10.2433 8.29333 10.51 8.12 10.73C7.94667 10.95 7.72667 11.06 7.46 11.06ZM2.04 11.58C1.95333 11.58 1.85333 11.5467 1.74 11.48C1.62 11.4133 1.51333 11.34 1.42 11.26C1.32 11.1733 1.25 11.1067 1.21 11.06C1.15 10.96 1.10667 10.84 1.08 10.7C1.06 10.56 1.05 10.4333 1.05 10.32C1.05 10.1533 1.07667 9.94333 1.13 9.69C1.18333 9.43667 1.28 9.21 1.42 9.01C1.55333 8.81 1.73667 8.71333 1.97 8.72C2.11 8.72 2.22333 8.83333 2.31 9.06C2.39 9.28 2.43 9.51333 2.43 9.76C2.43 9.96667 2.39667 10.14 2.33 10.28C2.27 10.42 2.16 10.47 2 10.43C1.86 10.3833 1.79 10.3133 1.79 10.22C1.79 10.12 1.85 10.0767 1.97 10.09C1.99667 10.1033 2.02 10.1167 2.04 10.13C2.06 10.1433 2.07333 10.15 2.08 10.15C2.15333 10.13 2.20667 10.08 2.24 10C2.26667 9.92 2.28 9.83333 2.28 9.74C2.28 9.57333 2.24333 9.40667 2.17 9.24C2.10333 9.07333 2.02667 8.99 1.94 8.99C1.78 8.99 1.65333 9.08 1.56 9.26C1.46667 9.44 1.40333 9.63667 1.37 9.85C1.33 10.0567 1.31 10.2167 1.31 10.33C1.31 10.5433 1.35667 10.7367 1.45 10.91C1.49 10.9433 1.57333 10.9967 1.7 11.07C1.83333 11.15 1.94667 11.1933 2.04 11.2C2.24667 11.2 2.42333 11.1267 2.57 10.98C2.72333 10.8267 2.84333 10.6433 2.93 10.43C3.01667 10.2167 3.07 10.01 3.09 9.81C3.09667 9.65667 3.10333 9.50333 3.11 9.35C3.11667 9.19 3.12 9.01333 3.12 8.82C3.12 8.58667 3.1 8.38333 3.06 8.21C3.01333 8.03667 2.97 7.86333 2.93 7.69C2.89 7.51 2.86 7.30333 2.84 7.07C2.82667 6.91 2.80667 6.75333 2.78 6.6C2.75333 6.44667 2.73667 6.27667 2.73 6.09C2.71667 5.86333 2.71 5.62667 2.71 5.38C2.71 5.13333 2.7 4.91333 2.68 4.72C2.67333 4.67333 2.67 4.62333 2.67 4.57C2.67 4.51667 2.67 4.46667 2.67 4.42C2.67 4.01333 2.75333 3.64667 2.92 3.32C3.08667 2.99333 3.28667 2.65333 3.52 2.3C3.55333 2.26 3.58667 2.24 3.62 2.24C3.66667 2.24 3.70667 2.26333 3.74 2.31C3.77333 2.35667 3.77667 2.40667 3.75 2.46C3.63 2.64 3.54667 2.82333 3.5 3.01C3.45333 3.19667 3.43 3.38667 3.43 3.58C3.43 3.75333 3.43667 3.92333 3.45 4.09C3.47 4.26333 3.49 4.45 3.51 4.65C3.53 4.81 3.54 4.96667 3.54 5.12C3.54 5.28 3.54 5.44 3.54 5.6V6.33C3.54 6.45 3.54 6.57 3.54 6.69C3.54 6.80333 3.54333 6.92 3.55 7.04C3.57 7.27333 3.58333 7.48 3.59 7.66C3.59 7.83333 3.59 8.01333 3.59 8.2V8.82C3.59 9.01333 3.57 9.19 3.53 9.35C3.49 9.50333 3.46 9.65667 3.44 9.81C3.43333 10.0767 3.36667 10.3433 3.24 10.61C3.12 10.8833 2.95667 11.1133 2.75 11.3C2.55 11.4867 2.31333 11.58 2.04 11.58ZM4.53 6.75C4.60333 6.75 4.68 6.74 4.76 6.72C4.84 6.7 4.91667 6.67667 4.99 6.65H4.98C4.97333 6.53 4.96 6.40667 4.94 6.28C4.92 6.15333 4.89667 6.02333 4.87 5.89C4.85667 5.83667 4.85 5.75667 4.85 5.65C4.84333 5.54333 4.82333 5.44667 4.79 5.36C4.75667 5.28 4.69 5.24 4.59 5.24C4.51667 5.24 4.42667 5.31 4.32 5.45C4.20667 5.59 4.12667 5.73667 4.08 5.89C4.07333 5.97 4.09 6.08 4.13 6.22C4.16333 6.36 4.21667 6.48333 4.29 6.59C4.37 6.69667 4.45 6.75 4.53 6.75ZM12.47 9.87C12.3833 9.87 12.3033 9.84333 12.23 9.79C12.1567 9.74333 12.1 9.66667 12.06 9.56C11.98 9.28 11.93 8.97333 11.91 8.64C11.89 8.31333 11.8567 7.99 11.81 7.67C11.73 7.92333 11.6133 8.20333 11.46 8.51C11.3 8.81 11.11 9.07 10.89 9.29C10.6633 9.51 10.3933 9.62 10.08 9.62C9.9 9.62 9.74667 9.53 9.62 9.35C9.49333 9.17667 9.39667 8.97 9.33 8.73C9.25667 8.49 9.21667 8.28333 9.21 8.11C9.21 7.95 9.22667 7.8 9.26 7.66C9.3 7.52667 9.32333 7.36667 9.33 7.18C9.35 7.06667 9.38 6.98 9.42 6.92C9.45333 6.85333 9.48 6.76333 9.5 6.65C9.51333 6.57667 9.56 6.54 9.64 6.54C9.74667 6.54 9.79 6.58667 9.77 6.68C9.75667 6.71333 9.75 6.76 9.75 6.82C9.75 6.88667 9.75667 6.94333 9.77 6.99C9.77667 7.03667 9.78 7.09 9.78 7.15C9.78 7.35 9.76333 7.52 9.73 7.66C9.69 7.8 9.67 7.95333 9.67 8.12C9.67 8.23333 9.68 8.37 9.7 8.53C9.72 8.68333 9.75667 8.82333 9.81 8.95C9.86333 9.07667 9.95333 9.14 10.08 9.14C10.3 9.14 10.5 9.04 10.68 8.84C10.8533 8.64 11.0067 8.39667 11.14 8.11C11.2733 7.81667 11.38 7.53 11.46 7.25C11.5467 6.96333 11.6067 6.73 11.64 6.55C11.6733 6.45667 11.75 6.41 11.87 6.41C11.99 6.41 12.07 6.45333 12.11 6.54C12.1233 6.58667 12.1433 6.62667 12.17 6.66C12.19 6.7 12.2167 6.74333 12.25 6.79C12.3567 7.19 12.4567 7.62 12.55 8.08C12.6367 8.53333 12.7367 8.95667 12.85 9.35C12.8567 9.37667 12.8633 9.40333 12.87 9.43C12.8767 9.45 12.88 9.47 12.88 9.49C12.88 9.61 12.8367 9.70333 12.75 9.77C12.6633 9.83667 12.57 9.87 12.47 9.87ZM14.33 15.57C14.0967 15.57 13.8867 15.4833 13.7 15.31C13.5133 15.1367 13.3533 14.9233 13.22 14.67C13.0867 14.4167 12.9833 14.16 12.91 13.9C12.8433 13.64 12.81 13.4267 12.81 13.26C12.81 12.86 12.8967 12.4533 13.07 12.04C13.2367 11.6267 13.4767 11.2833 13.79 11.01C14.1033 10.7367 14.4767 10.6 14.91 10.6C15.1433 10.6 15.3133 10.6733 15.42 10.82C15.5333 10.96 15.6133 11.13 15.66 11.33C15.7 11.53 15.72 11.7167 15.72 11.89C15.72 12.0367 15.6933 12.2233 15.64 12.45C15.5867 12.6833 15.5133 12.9133 15.42 13.14C15.32 13.3667 15.1967 13.5567 15.05 13.71C14.8967 13.8567 14.7233 13.93 14.53 13.93C14.2767 13.93 14.1033 13.8467 14.01 13.68C13.9167 13.5133 13.87 13.33 13.87 13.13C13.87 13.0567 13.8833 12.94 13.91 12.78C13.93 12.62 13.9667 12.4567 14.02 12.29C14.0667 12.1233 14.1367 11.98 14.23 11.86C14.3167 11.74 14.4267 11.68 14.56 11.68C14.6133 11.68 14.6667 11.6933 14.72 11.72C14.74 11.7267 14.7667 11.7733 14.8 11.86C14.8333 11.94 14.85 11.98 14.85 11.98V12C14.85 12.0333 14.8333 12.0667 14.8 12.1C14.7667 12.1267 14.7333 12.14 14.7 12.14C14.6067 12.14 14.56 12.0967 14.56 12.01C14.56 12.01 14.5667 12.0033 14.58 11.99C14.6 11.9767 14.6167 11.97 14.63 11.97C14.5433 11.93 14.4667 11.9633 14.4 12.07C14.3333 12.17 14.2833 12.28 14.25 12.4C14.21 12.5267 14.1867 12.6133 14.18 12.66L14.15 13.06C14.1433 13.1667 14.17 13.26 14.23 13.34C14.2967 13.4133 14.3967 13.45 14.53 13.45C14.6433 13.45 14.7433 13.39 14.83 13.27C14.9167 13.1433 14.9933 12.9867 15.06 12.8C15.1267 12.62 15.1767 12.4467 15.21 12.28C15.2433 12.1133 15.26 11.9867 15.26 11.9C15.26 11.8267 15.2533 11.72 15.24 11.58C15.2333 11.44 15.2033 11.31 15.15 11.19C15.0967 11.0633 15.0167 11 14.91 11C14.55 10.9933 14.2467 11.11 14 11.35C13.7467 11.5833 13.5533 11.8767 13.42 12.23C13.28 12.5767 13.21 12.9233 13.21 13.27C13.21 13.39 13.2333 13.55 13.28 13.75C13.3267 13.9567 13.3967 14.16 13.49 14.36C13.5833 14.56 13.7 14.7267 13.84 14.86C13.9733 14.9933 14.1267 15.06 14.3 15.06C14.4267 15.06 14.5433 15.0233 14.65 14.95C14.7633 14.87 14.8667 14.7967 14.96 14.73C15.28 14.53 15.5033 14.32 15.63 14.1C15.7567 13.8733 15.8933 13.57 16.04 13.19C16.1867 12.7967 16.2933 12.3933 16.36 11.98C16.4267 11.5733 16.46 11.1133 16.46 10.6C16.46 10.4 16.4533 10.2033 16.44 10.01C16.4267 9.81667 16.41 9.62667 16.39 9.44C16.21 9.59333 15.9933 9.71 15.74 9.79C15.48 9.87 15.2167 9.91 14.95 9.91C14.6433 9.91 14.3567 9.82333 14.09 9.65C13.8233 9.47 13.6067 9.24333 13.44 8.97C13.28 8.69 13.2 8.40667 13.2 8.12C13.2 7.67333 13.2333 7.25333 13.3 6.86C13.3733 6.46667 13.53 6.12 13.77 5.82C14.0167 5.51333 14.39 5.28667 14.89 5.14C14.95 5.12 15.01 5.11 15.07 5.11C15.13 5.11 15.1933 5.11 15.26 5.11C15.5467 5.11 15.8033 5.24 16.03 5.5C16.25 5.75333 16.36 6.04333 16.36 6.37C16.36 6.55667 16.2967 6.75667 16.17 6.97C16.0367 7.18333 15.8733 7.29 15.68 7.29C15.6133 7.29 15.5467 7.24 15.48 7.14C15.4133 7.04 15.37 6.97 15.35 6.93C15.35 6.92333 15.35 6.91667 15.35 6.91C15.3433 6.90333 15.34 6.89667 15.34 6.89C15.34 6.79667 15.3867 6.75 15.48 6.75C15.5333 6.75 15.5767 6.77667 15.61 6.83V6.86C15.61 6.86667 15.6167 6.89 15.63 6.93C15.65 6.97 15.67 6.99 15.69 6.99C15.81 6.99 15.9067 6.92 15.98 6.78C16.06 6.64667 16.1 6.52 16.1 6.4C16.0867 6.18667 15.99 6.01667 15.81 5.89C15.63 5.77 15.4467 5.71 15.26 5.71C15.1933 5.71 15.1267 5.72333 15.06 5.75C14.9933 5.78333 14.9267 5.81333 14.86 5.84C14.5467 5.96 14.32 6.13 14.18 6.35C14.04 6.57 13.9567 6.83 13.93 7.13C13.8967 7.42333 13.88 7.75333 13.88 8.12C13.88 8.40667 13.9833 8.67667 14.19 8.93C14.39 9.18333 14.6333 9.31 14.92 9.31C15.2533 9.31 15.5367 9.28333 15.77 9.23C16.0033 9.18333 16.2 9.09 16.36 8.95C16.3533 8.82333 16.3467 8.70333 16.34 8.59C16.3333 8.47 16.33 8.35 16.33 8.23C16.33 8.13 16.3467 7.97333 16.38 7.76C16.4067 7.55333 16.4467 7.33333 16.5 7.1C16.5467 6.86667 16.6033 6.66667 16.67 6.5C16.7367 6.34 16.8067 6.26 16.88 6.26C16.98 6.26 17.06 6.32 17.12 6.44C17.1867 6.56 17.2367 6.69333 17.27 6.84C17.2967 6.98667 17.3067 7.10667 17.3 7.2L17.34 7.43C17.34 7.77 17.3067 8.04667 17.24 8.26C17.18 8.47333 17.0633 8.68667 16.89 8.9C16.9233 9.17333 16.9533 9.44667 16.98 9.72C17.0067 9.98667 17.02 10.2733 17.02 10.58C17.02 11.1533 16.98 11.66 16.9 12.1C16.82 12.5333 16.6967 12.9667 16.53 13.4C16.4167 13.6867 16.31 13.93 16.21 14.13C16.1033 14.33 15.9733 14.5067 15.82 14.66C15.6667 14.82 15.4633 14.9767 15.21 15.13C15.0633 15.2233 14.93 15.32 14.81 15.42C14.69 15.52 14.53 15.57 14.33 15.57ZM16.87 8.16V8.18C16.9633 7.96 17.0133 7.70333 17.02 7.41L17.03 7.18C17.0433 7.10667 17.04 7.00333 17.02 6.87C17 6.74333 16.9533 6.68 16.88 6.68C16.84 6.68 16.8133 6.71 16.8 6.77C16.7867 6.83 16.78 6.90667 16.78 7C16.78 7.18 16.7933 7.38667 16.82 7.62C16.8533 7.86 16.87 8.04 16.87 8.16ZM19.74 10.49C19.2533 10.4767 18.8667 10.3067 18.58 9.98C18.2933 9.65333 18.1 9.28667 18 8.88L17.99 8.82C17.99 8.44 18.0533 8.06 18.18 7.68C18.3 7.3 18.4933 6.96 18.76 6.66C19.02 6.36667 19.3467 6.16333 19.74 6.05C19.84 6.03 19.93 6.01667 20.01 6.01C20.09 6.01 20.1767 6.01 20.27 6.01C20.4167 6.01 20.5567 6.07333 20.69 6.2C20.83 6.32 20.94 6.46333 21.02 6.63C21.1067 6.79 21.15 6.93333 21.15 7.06C21.15 7.23333 21.11 7.41333 21.03 7.6C20.95 7.78 20.8367 7.93333 20.69 8.06C20.55 8.18667 20.38 8.25333 20.18 8.26C20.0867 8.26 19.9467 8.22667 19.76 8.16C19.5733 8.08667 19.3867 8 19.2 7.9C19.0133 7.80667 18.88 7.72667 18.8 7.66C18.7533 7.78 18.7167 7.90667 18.69 8.04C18.6567 8.16667 18.6333 8.29667 18.62 8.43V8.5C18.62 8.53333 18.62 8.57333 18.62 8.62C18.6267 8.66667 18.6333 8.71333 18.64 8.76C18.72 9.08667 18.8467 9.38333 19.02 9.65C19.2 9.91 19.42 10.04 19.68 10.04C19.8 10.04 19.9433 9.99667 20.11 9.91C20.27 9.83 20.42 9.72667 20.56 9.6C20.7 9.47333 20.79 9.35667 20.83 9.25C20.9033 9.06333 20.9833 8.97 21.07 8.97C21.1233 8.97 21.15 9.01333 21.15 9.1C21.15 9.14667 21.1367 9.21333 21.11 9.3C20.9967 9.58667 20.82 9.85667 20.58 10.11C20.3333 10.3633 20.0533 10.49 19.74 10.49ZM20.18 7.87C20.38 7.87 20.5233 7.78 20.61 7.6C20.6967 7.41333 20.74 7.23333 20.74 7.06C20.74 6.97333 20.71 6.88 20.65 6.78C20.5833 6.68667 20.5133 6.6 20.44 6.52C20.36 6.44667 20.3033 6.41 20.27 6.41C20.13 6.41 19.9933 6.44333 19.86 6.51C19.64 6.57667 19.45 6.69 19.29 6.85C19.13 7.00333 19.0033 7.18333 18.91 7.39C18.9167 7.39 18.93 7.4 18.95 7.42C18.9967 7.46 19.1067 7.51667 19.28 7.59C19.4533 7.66333 19.63 7.72667 19.81 7.78C19.9967 7.84 20.12 7.87 20.18 7.87ZM26.3 12.03C26.0133 12.03 25.7667 11.9267 25.56 11.72C25.3533 11.5133 25.2 11.2667 25.1 10.98C24.9933 10.6867 24.9367 10.4133 24.93 10.16C24.93 9.97333 24.95 9.79 24.99 9.61C25.0233 9.43 25.0633 9.26333 25.11 9.11C25.1233 9.05 25.1667 9.02 25.24 9.02C25.2733 9.02 25.3067 9.03333 25.34 9.06C25.3733 9.08667 25.38 9.12333 25.36 9.17C25.3267 9.29 25.31 9.45 25.31 9.65C25.31 9.73 25.3133 9.81333 25.32 9.9C25.32 9.98 25.32 10.0667 25.32 10.16C25.32 10.2867 25.3433 10.4033 25.39 10.51C25.43 10.6167 25.4733 10.7267 25.52 10.84C25.5867 11.0067 25.6833 11.14 25.81 11.24C25.93 11.3467 26.09 11.4 26.29 11.4C26.3367 11.4 26.3767 11.3767 26.41 11.33C26.45 11.2833 26.4933 11.2433 26.54 11.21C26.9533 10.9767 27.28 10.6333 27.52 10.18C27.76 9.72 27.9367 9.20667 28.05 8.64C28.1567 8.06667 28.21 7.5 28.21 6.94C28.21 5.93333 28.13 4.92667 27.97 3.92C27.9567 3.82 27.9433 3.70667 27.93 3.58C27.9167 3.46 27.91 3.33 27.91 3.19C27.91 3.09667 27.9133 3.00333 27.92 2.91C27.9267 2.81 27.9333 2.71333 27.94 2.62C27.7933 2.62667 27.6433 2.65 27.49 2.69C27.3433 2.72333 27.1933 2.76333 27.04 2.81C26.8867 2.85667 26.7 2.93333 26.48 3.04C26.26 3.15333 26.0467 3.28667 25.84 3.44C25.6333 3.59333 25.4633 3.76333 25.33 3.95C25.1967 4.13667 25.13 4.33667 25.13 4.55C25.13 4.67 25.1633 4.80667 25.23 4.96C25.3033 5.11333 25.3933 5.25 25.5 5.37C25.6133 5.48333 25.74 5.54667 25.88 5.56C25.9733 5.56 26.0567 5.55333 26.13 5.54C26.1967 5.52667 26.2767 5.52 26.37 5.52C26.4567 5.52 26.5 5.56 26.5 5.64C26.5 5.72667 26.4567 5.77 26.37 5.77C26.2767 5.77 26.1967 5.78333 26.13 5.81C26.0567 5.83667 25.9733 5.85 25.88 5.85C25.4867 5.85 25.19 5.73 24.99 5.49C24.79 5.24333 24.69 4.93333 24.69 4.56C24.69 4.3 24.7667 4.04333 24.92 3.79C25.0667 3.54333 25.2533 3.31 25.48 3.09C25.7 2.87667 25.9333 2.69333 26.18 2.54C26.4267 2.38667 26.65 2.28333 26.85 2.23C27.0433 2.16333 27.2367 2.1 27.43 2.04C27.6233 1.98667 27.82 1.94 28.02 1.9C28.0867 1.56667 28.18 1.25667 28.3 0.97C28.4133 0.676667 28.5667 0.443333 28.76 0.27C28.9533 0.09 29.1833 0 29.45 0C29.6367 0 29.8 0.0733336 29.94 0.22C30.08 0.36 30.15 0.523333 30.15 0.71C30.15 0.87 30.0933 1.00667 29.98 1.12C29.8733 1.23333 29.7667 1.33 29.66 1.41C29.64 1.43 29.6133 1.44 29.58 1.44C29.52 1.44 29.4767 1.41 29.45 1.35C29.4167 1.29 29.4267 1.24 29.48 1.2C29.5533 1.15333 29.6333 1.08667 29.72 1C29.8 0.913333 29.84 0.823333 29.84 0.73C29.8333 0.61 29.7967 0.503334 29.73 0.41C29.6633 0.323334 29.57 0.28 29.45 0.28C29.1167 0.286667 28.8767 0.446667 28.73 0.76C28.5833 1.07333 28.4967 1.43667 28.47 1.85L28.99 1.81C29.55 1.81 30.06 1.85667 30.52 1.95C30.9867 2.04333 31.4767 2.22 31.99 2.48C32.2033 2.59333 32.4133 2.72667 32.62 2.88C32.8333 3.04 33.0133 3.22667 33.16 3.44C33.3 3.66 33.37 3.91 33.37 4.19C33.37 4.62333 33.2767 5 33.09 5.32C32.9033 5.64 32.68 5.94333 32.42 6.23C32.6333 6.41 32.8 6.62333 32.92 6.87C33.0467 7.12333 33.11 7.38667 33.11 7.66C33.11 7.80667 33.0767 8.02667 33.01 8.32C32.9433 8.61333 32.8433 8.93667 32.71 9.29C32.57 9.63667 32.4033 9.97 32.21 10.29C32.0167 10.61 31.7867 10.87 31.52 11.07C31.26 11.2767 30.9733 11.38 30.66 11.38C30.5 11.38 30.34 11.3133 30.18 11.18C30.02 11.0467 29.89 10.88 29.79 10.68C29.6833 10.4867 29.63 10.3 29.63 10.12C29.63 10.02 29.65 9.93 29.69 9.85C29.73 9.77 29.7567 9.69333 29.77 9.62C29.79 9.55333 29.8267 9.49667 29.88 9.45C29.9333 9.40333 29.9633 9.35333 29.97 9.3C29.9967 9.24 30.04 9.21 30.1 9.21C30.1467 9.21 30.1867 9.22667 30.22 9.26C30.2467 9.29333 30.2533 9.33333 30.24 9.38C30.2267 9.43333 30.22 9.49 30.22 9.55C30.22 9.61667 30.21 9.68667 30.19 9.76C30.19 9.76667 30.19 9.77333 30.19 9.78C30.1833 9.78667 30.18 9.79667 30.18 9.81C30.18 9.85 30.1867 9.89333 30.2 9.94C30.2133 9.98667 30.22 10.0333 30.22 10.08C30.22 10.18 30.27 10.2833 30.37 10.39C30.47 10.5033 30.5667 10.56 30.66 10.56C30.9267 10.56 31.16 10.45 31.36 10.23C31.56 10.0167 31.73 9.75333 31.87 9.44C32.0033 9.12667 32.11 8.82333 32.19 8.53C32.27 8.23 32.32 7.99 32.34 7.81C32.3467 7.76333 32.3533 7.71333 32.36 7.66C32.3733 7.61333 32.37 7.56667 32.35 7.52C32.35 7.36 32.3133 7.20667 32.24 7.06C32.1667 6.90667 32.0667 6.77333 31.94 6.66C31.74 6.82 31.5233 6.94333 31.29 7.03C31.0567 7.12333 30.83 7.22 30.61 7.32L30.59 7.35C30.55 7.37 30.4567 7.42 30.31 7.5C30.1567 7.58 30.0067 7.65333 29.86 7.72C29.7067 7.79333 29.6067 7.83 29.56 7.83C29.28 7.83 29.09 7.75333 28.99 7.6C28.9633 8.12667 28.88 8.67 28.74 9.23C28.6 9.79667 28.3867 10.3167 28.1 10.79C27.8133 11.27 27.4233 11.65 26.93 11.93C26.83 11.9833 26.72 12.0133 26.6 12.02C26.4733 12.0267 26.3733 12.03 26.3 12.03ZM29.02 6.87V6.89C29.0933 6.75667 29.1867 6.64333 29.3 6.55C29.4133 6.45667 29.51 6.37667 29.59 6.31C29.89 6.11667 30.17 5.98667 30.43 5.92C30.69 5.85333 31.0033 5.82 31.37 5.82C31.4567 5.82 31.54 5.82667 31.62 5.84C31.6933 5.84667 31.7633 5.86 31.83 5.88C32.0567 5.64667 32.2433 5.39333 32.39 5.12C32.5433 4.84 32.62 4.51333 32.62 4.14C32.62 3.94 32.5133 3.75 32.3 3.57C32.0933 3.39 31.8367 3.23667 31.53 3.11C31.23 2.97667 30.9333 2.87 30.64 2.79C30.3533 2.70333 30.13 2.64667 29.97 2.62C29.6633 2.57333 29.34 2.55 29 2.55C28.9067 2.55 28.8133 2.55 28.72 2.55C28.6267 2.55 28.53 2.55333 28.43 2.56C28.4567 3.09333 28.4933 3.51 28.54 3.81C28.6133 4.30333 28.7133 4.81333 28.84 5.34C28.96 5.86667 29.02 6.37667 29.02 6.87ZM29.63 7.21H29.65C29.6767 7.23 29.75 7.23333 29.87 7.22C29.9833 7.20667 30.1 7.18333 30.22 7.15C30.34 7.12333 30.4167 7.10667 30.45 7.1L30.47 7.08C30.63 7.00667 30.7833 6.91333 30.93 6.8C31.0767 6.68 31.22 6.55667 31.36 6.43C31.0667 6.43 30.8167 6.45333 30.61 6.5C30.3967 6.54667 30.17 6.64333 29.93 6.79C29.87 6.83 29.81 6.88333 29.75 6.95C29.6833 7.02333 29.6433 7.11 29.63 7.21ZM35.63 10.84C35.45 10.8267 35.2433 10.7667 35.01 10.66C34.7767 10.5533 34.5933 10.4533 34.46 10.36C34.2133 10.1667 34.0033 9.88333 33.83 9.51C33.6633 9.13667 33.58 8.77667 33.58 8.43C33.58 8.25 33.5967 8.08 33.63 7.92C33.6633 7.76667 33.7 7.60333 33.74 7.43C33.7867 7.16333 33.8733 6.92667 34 6.72C34.12 6.51333 34.27 6.30667 34.45 6.1C34.6167 5.91333 34.7933 5.76667 34.98 5.66C35.16 5.54667 35.3833 5.49 35.65 5.49C35.8833 5.49 36.0933 5.55333 36.28 5.68C36.46 5.80667 36.55 6.00333 36.55 6.27C36.55 6.34333 36.5333 6.44333 36.5 6.57C36.4667 6.69667 36.4133 6.80667 36.34 6.9C36.2667 6.99333 36.1733 7.04 36.06 7.04C35.9 7.04 35.7667 6.98333 35.66 6.87C35.5533 6.76333 35.4633 6.64667 35.39 6.52C35.3767 6.50667 35.37 6.48333 35.37 6.45C35.37 6.40333 35.3967 6.37333 35.45 6.36C35.5033 6.34 35.5467 6.35333 35.58 6.4C35.6133 6.44667 35.6833 6.51667 35.79 6.61C35.9033 6.71 35.9933 6.76 36.06 6.76C36.16 6.76 36.22 6.69667 36.24 6.57C36.26 6.43667 36.2733 6.33667 36.28 6.27C36.28 6.11 36.21 6.02 36.07 6C35.9233 5.97333 35.7833 5.96 35.65 5.96C35.4633 5.96 35.3167 6.01333 35.21 6.12C35.0967 6.22 34.9833 6.33667 34.87 6.47C34.71 6.65667 34.61 6.83 34.57 6.99C34.53 7.14333 34.5067 7.31 34.5 7.49C34.4933 7.67 34.4667 7.87667 34.42 8.11C34.4133 8.17 34.4067 8.23333 34.4 8.3C34.3933 8.36667 34.39 8.43667 34.39 8.51C34.39 8.78333 34.4 9.06 34.42 9.34C34.44 9.62 34.5533 9.84 34.76 10C34.86 10.06 34.9967 10.1433 35.17 10.25C35.3433 10.35 35.49 10.4 35.61 10.4C35.8633 10.4 36.11 10.3 36.35 10.1C36.5967 9.9 36.7767 9.69667 36.89 9.49C36.99 9.29667 37.0667 9.11667 37.12 8.95C37.18 8.79 37.21 8.59333 37.21 8.36C37.21 8.01333 37.15 7.73667 37.03 7.53C36.9033 7.31667 36.8 7.21 36.72 7.21C36.66 7.21 36.63 7.26667 36.63 7.38C36.63 7.38667 36.6433 7.42 36.67 7.48C36.69 7.53333 36.7067 7.57 36.72 7.59C36.7267 7.61 36.73 7.63667 36.73 7.67C36.73 7.80333 36.66 7.87 36.52 7.87C36.44 7.87 36.3767 7.82667 36.33 7.74C36.31 7.67333 36.28 7.61333 36.24 7.56C36.2067 7.50667 36.19 7.44667 36.19 7.38C36.19 7.24667 36.25 7.11 36.37 6.97C36.49 6.83 36.5867 6.76 36.66 6.76C36.84 6.76 36.99 6.85667 37.11 7.05C37.23 7.24333 37.32 7.46333 37.38 7.71C37.44 7.95667 37.47 8.17333 37.47 8.36C37.47 8.62 37.4167 8.90333 37.31 9.21C37.2033 9.51667 37.0567 9.80333 36.87 10.07C36.6833 10.3367 36.47 10.53 36.23 10.65C36.1233 10.69 36.03 10.73 35.95 10.77C35.8633 10.8167 35.7567 10.84 35.63 10.84ZM40.15 10.84C39.97 10.8267 39.7633 10.7667 39.53 10.66C39.2967 10.5533 39.1167 10.4533 38.99 10.36C38.7367 10.1667 38.5267 9.88333 38.36 9.51C38.1867 9.13667 38.1 8.77667 38.1 8.43C38.1 8.25 38.1167 8.08 38.15 7.92C38.1833 7.76667 38.22 7.60333 38.26 7.43C38.3067 7.16333 38.3933 6.92667 38.52 6.72C38.6467 6.51333 38.7967 6.30667 38.97 6.1C39.1367 5.91333 39.3133 5.76667 39.5 5.66C39.68 5.54667 39.9067 5.49 40.18 5.49C40.4133 5.49 40.62 5.55333 40.8 5.68C40.98 5.80667 41.07 6.00333 41.07 6.27C41.07 6.34333 41.0533 6.44333 41.02 6.57C40.9867 6.69667 40.9333 6.80667 40.86 6.9C40.7867 6.99333 40.6933 7.04 40.58 7.04C40.42 7.04 40.2867 6.98333 40.18 6.87C40.0733 6.76333 39.9833 6.64667 39.91 6.52C39.9033 6.50667 39.9 6.48333 39.9 6.45C39.9 6.40333 39.9233 6.37333 39.97 6.36C40.0233 6.34 40.07 6.35333 40.11 6.4C40.1367 6.44667 40.2067 6.51667 40.32 6.61C40.4267 6.71 40.5133 6.76 40.58 6.76C40.6867 6.76 40.7467 6.69667 40.76 6.57C40.78 6.43667 40.7967 6.33667 40.81 6.27C40.81 6.11 40.7367 6.02 40.59 6C40.4433 5.97333 40.3067 5.96 40.18 5.96C39.9933 5.96 39.8433 6.01333 39.73 6.12C39.6167 6.22 39.5033 6.33667 39.39 6.47C39.23 6.65667 39.13 6.83 39.09 6.99C39.05 7.14333 39.0267 7.31 39.02 7.49C39.0133 7.67 38.9867 7.87667 38.94 8.11C38.9333 8.17 38.9267 8.23333 38.92 8.3C38.92 8.36667 38.92 8.43667 38.92 8.51C38.92 8.78333 38.9267 9.06 38.94 9.34C38.96 9.62 39.0733 9.84 39.28 10C39.38 10.06 39.5167 10.1433 39.69 10.25C39.8633 10.35 40.01 10.4 40.13 10.4C40.3833 10.4 40.6333 10.3 40.88 10.1C41.12 9.9 41.2967 9.69667 41.41 9.49C41.51 9.29667 41.59 9.11667 41.65 8.95C41.7033 8.79 41.73 8.59333 41.73 8.36C41.73 8.01333 41.67 7.73667 41.55 7.53C41.43 7.31667 41.3267 7.21 41.24 7.21C41.1867 7.21 41.16 7.26667 41.16 7.38C41.16 7.38667 41.17 7.42 41.19 7.48C41.2167 7.53333 41.2333 7.57 41.24 7.59C41.2467 7.61 41.25 7.63667 41.25 7.67C41.25 7.80333 41.18 7.87 41.04 7.87C40.96 7.87 40.8967 7.82667 40.85 7.74C40.83 7.67333 40.8 7.61333 40.76 7.56C40.7267 7.50667 40.71 7.44667 40.71 7.38C40.71 7.24667 40.77 7.11 40.89 6.97C41.01 6.83 41.1067 6.76 41.18 6.76C41.36 6.76 41.51 6.85667 41.63 7.05C41.75 7.24333 41.8433 7.46333 41.91 7.71C41.97 7.95667 42 8.17333 42 8.36C42 8.62 41.9467 8.90333 41.84 9.21C41.7267 9.51667 41.5767 9.80333 41.39 10.07C41.2033 10.3367 40.99 10.53 40.75 10.65C40.65 10.69 40.5567 10.73 40.47 10.77C40.3833 10.8167 40.2767 10.84 40.15 10.84ZM43.83 15.57C43.5967 15.57 43.3867 15.4833 43.2 15.31C43.0133 15.1367 42.8533 14.9233 42.72 14.67C42.58 14.4167 42.4767 14.16 42.41 13.9C42.3367 13.64 42.3 13.4267 42.3 13.26C42.3 12.86 42.3867 12.4533 42.56 12.04C42.7333 11.6267 42.9767 11.2833 43.29 11.01C43.6033 10.7367 43.9733 10.6 44.4 10.6C44.6333 10.6 44.8067 10.6733 44.92 10.82C45.0333 10.96 45.11 11.13 45.15 11.33C45.1967 11.53 45.22 11.7167 45.22 11.89C45.22 12.0367 45.1933 12.2233 45.14 12.45C45.0867 12.6833 45.0133 12.9133 44.92 13.14C44.82 13.3667 44.6933 13.5567 44.54 13.71C44.3933 13.8567 44.2233 13.93 44.03 13.93C43.7767 13.93 43.6033 13.8467 43.51 13.68C43.4167 13.5133 43.37 13.33 43.37 13.13C43.37 13.0567 43.38 12.94 43.4 12.78C43.4267 12.62 43.4667 12.4567 43.52 12.29C43.5667 12.1233 43.6367 11.98 43.73 11.86C43.8167 11.74 43.9233 11.68 44.05 11.68C44.11 11.68 44.1667 11.6933 44.22 11.72C44.24 11.7267 44.2667 11.7733 44.3 11.86C44.3333 11.94 44.35 11.98 44.35 11.98V12C44.35 12.0333 44.3333 12.0667 44.3 12.1C44.2667 12.1267 44.23 12.14 44.19 12.14C44.0967 12.14 44.05 12.0967 44.05 12.01C44.05 12.01 44.06 12.0033 44.08 11.99C44.1 11.9767 44.1133 11.97 44.12 11.97C44.04 11.93 43.9667 11.9633 43.9 12.07C43.8333 12.17 43.7833 12.28 43.75 12.4C43.71 12.5267 43.6867 12.6133 43.68 12.66L43.65 13.06C43.6367 13.1667 43.6633 13.26 43.73 13.34C43.7967 13.4133 43.8967 13.45 44.03 13.45C44.1367 13.45 44.2367 13.39 44.33 13.27C44.4167 13.1433 44.4933 12.9867 44.56 12.8C44.6267 12.62 44.6767 12.4467 44.71 12.28C44.7367 12.1133 44.75 11.9867 44.75 11.9C44.75 11.8267 44.7467 11.72 44.74 11.58C44.7333 11.44 44.7033 11.31 44.65 11.19C44.5967 11.0633 44.5133 11 44.4 11C44.0467 10.9933 43.7433 11.11 43.49 11.35C43.2433 11.5833 43.05 11.8767 42.91 12.23C42.7767 12.5767 42.71 12.9233 42.71 13.27C42.71 13.39 42.7333 13.55 42.78 13.75C42.8267 13.9567 42.8967 14.16 42.99 14.36C43.0833 14.56 43.1967 14.7267 43.33 14.86C43.47 14.9933 43.6267 15.06 43.8 15.06C43.92 15.06 44.0367 15.0233 44.15 14.95C44.2633 14.87 44.3667 14.7967 44.46 14.73C44.78 14.53 45 14.32 45.12 14.1C45.2467 13.8733 45.3867 13.57 45.54 13.19C45.6867 12.7967 45.7933 12.3933 45.86 11.98C45.9267 11.5733 45.96 11.1133 45.96 10.6C45.96 10.4 45.9533 10.2033 45.94 10.01C45.9267 9.81667 45.91 9.62667 45.89 9.44C45.71 9.59333 45.4933 9.71 45.24 9.79C44.98 9.87 44.7167 9.91 44.45 9.91C44.1367 9.91 43.85 9.82333 43.59 9.65C43.3233 9.47 43.1067 9.24333 42.94 8.97C42.78 8.69 42.7 8.40667 42.7 8.12C42.7 7.67333 42.7333 7.25333 42.8 6.86C42.8733 6.46667 43.03 6.12 43.27 5.82C43.51 5.51333 43.8833 5.28667 44.39 5.14C44.4433 5.12 44.5033 5.11 44.57 5.11C44.63 5.11 44.69 5.11 44.75 5.11C45.0433 5.11 45.3 5.24 45.52 5.5C45.7467 5.75333 45.86 6.04333 45.86 6.37C45.86 6.55667 45.7933 6.75667 45.66 6.97C45.5333 7.18333 45.37 7.29 45.17 7.29C45.11 7.29 45.0467 7.24 44.98 7.14C44.9133 7.04 44.87 6.97 44.85 6.93C44.85 6.92333 44.85 6.91667 44.85 6.91C44.8433 6.90333 44.84 6.89667 44.84 6.89C44.84 6.79667 44.8867 6.75 44.98 6.75C45.0333 6.75 45.0733 6.77667 45.1 6.83V6.86C45.1 6.86667 45.11 6.89 45.13 6.93C45.15 6.97 45.17 6.99 45.19 6.99C45.31 6.99 45.4067 6.92 45.48 6.78C45.5533 6.64667 45.59 6.52 45.59 6.4C45.5833 6.18667 45.49 6.01667 45.31 5.89C45.1233 5.77 44.9367 5.71 44.75 5.71C44.69 5.71 44.6267 5.72333 44.56 5.75C44.4933 5.78333 44.4267 5.81333 44.36 5.84C44.0467 5.96 43.82 6.13 43.68 6.35C43.54 6.57 43.4533 6.83 43.42 7.13C43.3933 7.42333 43.38 7.75333 43.38 8.12C43.38 8.40667 43.48 8.67667 43.68 8.93C43.88 9.18333 44.1267 9.31 44.42 9.31C44.7533 9.31 45.0367 9.28333 45.27 9.23C45.5033 9.18333 45.7 9.09 45.86 8.95C45.8533 8.82333 45.8467 8.70333 45.84 8.59C45.8333 8.47 45.83 8.35 45.83 8.23C45.83 8.13 45.8433 7.97333 45.87 7.76C45.9033 7.55333 45.9433 7.33333 45.99 7.1C46.0433 6.86667 46.1033 6.66667 46.17 6.5C46.2367 6.34 46.3067 6.26 46.38 6.26C46.48 6.26 46.56 6.32 46.62 6.44C46.68 6.56 46.7267 6.69333 46.76 6.84C46.7933 6.98667 46.8067 7.10667 46.8 7.2L46.84 7.43C46.84 7.77 46.8067 8.04667 46.74 8.26C46.6733 8.47333 46.5567 8.68667 46.39 8.9C46.4167 9.17333 46.4467 9.44667 46.48 9.72C46.5067 9.98667 46.52 10.2733 46.52 10.58C46.52 11.1533 46.48 11.66 46.4 12.1C46.32 12.5333 46.1967 12.9667 46.03 13.4C45.9167 13.6867 45.81 13.93 45.71 14.13C45.6033 14.33 45.4733 14.5067 45.32 14.66C45.1667 14.82 44.9633 14.9767 44.71 15.13C44.5633 15.2233 44.43 15.32 44.31 15.42C44.1833 15.52 44.0233 15.57 43.83 15.57ZM46.36 8.16V8.18C46.4533 7.96 46.5067 7.70333 46.52 7.41L46.53 7.18C46.5433 7.10667 46.54 7.00333 46.52 6.87C46.5 6.74333 46.4533 6.68 46.38 6.68C46.34 6.68 46.3133 6.71 46.3 6.77C46.2867 6.83 46.28 6.90667 46.28 7C46.28 7.18 46.2933 7.38667 46.32 7.62C46.3467 7.86 46.36 8.04 46.36 8.16ZM49.01 11.51C48.85 11.51 48.6833 11.44 48.51 11.3C48.33 11.1667 48.18 11.0067 48.06 10.82C47.9467 10.6267 47.89 10.44 47.89 10.26C47.89 10.04 47.9 9.82667 47.92 9.62C47.94 9.42 47.9667 9.22 48 9.02C48.0267 8.84 48.0467 8.66667 48.06 8.5C48.08 8.33333 48.1067 8.14667 48.14 7.94C48.16 7.83333 48.16 7.73 48.14 7.63C48.12 7.53 48.11 7.41667 48.11 7.29C48.11 7.23667 48.1133 7.19 48.12 7.15C48.1267 7.11667 48.13 7.08 48.13 7.04C48.13 6.99333 48.1233 6.94667 48.11 6.9C48.1033 6.85333 48.0767 6.79 48.03 6.71C47.9767 6.65 47.95 6.57333 47.95 6.48C47.95 6.4 47.9767 6.32 48.03 6.24C48.0833 6.16667 48.1667 6.13 48.28 6.13C48.2933 6.13 48.2967 6.12667 48.29 6.12C48.2833 6.10667 48.2867 6.1 48.3 6.1C48.5467 6.06667 48.7133 6.14667 48.8 6.34C48.8867 6.54 48.93 6.76333 48.93 7.01C48.93 7.21667 48.9133 7.41667 48.88 7.61C48.8533 7.80333 48.83 7.95 48.81 8.05C48.7833 8.25667 48.7433 8.44 48.69 8.6C48.63 8.76667 48.5867 8.94333 48.56 9.13C48.5333 9.31667 48.5067 9.50333 48.48 9.69C48.46 9.87667 48.45 10.0667 48.45 10.26C48.45 10.3733 48.4733 10.5067 48.52 10.66C48.5667 10.8133 48.6333 10.95 48.72 11.07C48.8 11.1833 48.8967 11.24 49.01 11.24C49.0767 11.24 49.1533 11.19 49.24 11.09C49.3267 10.9967 49.4167 10.9033 49.51 10.81C49.5967 10.7167 49.6633 10.67 49.71 10.67C49.75 10.67 49.77 10.7167 49.77 10.81V10.82C49.77 10.9067 49.7233 11.0033 49.63 11.11C49.5433 11.2167 49.4433 11.31 49.33 11.39C49.21 11.47 49.1033 11.51 49.01 11.51ZM48.48 5.22C48.2933 5.22 48.14 5.18 48.02 5.1C47.9067 5.02 47.85 4.90333 47.85 4.75C47.85 4.57667 47.9167 4.43667 48.05 4.33C48.1833 4.22333 48.3433 4.16667 48.53 4.16C48.6433 4.16 48.7433 4.21 48.83 4.31C48.91 4.41667 48.9567 4.52 48.97 4.62C48.97 4.75333 48.9167 4.88667 48.81 5.02C48.71 5.15333 48.6 5.22 48.48 5.22ZM51.71 10.49C51.2233 10.4767 50.84 10.3067 50.56 9.98C50.2733 9.65333 50.08 9.28667 49.98 8.88L49.96 8.82C49.96 8.44 50.0233 8.06 50.15 7.68C50.2767 7.3 50.47 6.96 50.73 6.66C50.99 6.36667 51.3167 6.16333 51.71 6.05C51.8167 6.03 51.9067 6.01667 51.98 6.01C52.06 6.01 52.1467 6.01 52.24 6.01C52.3933 6.01 52.5367 6.07333 52.67 6.2C52.8033 6.32 52.9133 6.46333 53 6.63C53.0867 6.79 53.13 6.93333 53.13 7.06C53.13 7.23333 53.09 7.41333 53.01 7.6C52.93 7.78 52.8167 7.93333 52.67 8.06C52.5233 8.18667 52.3533 8.25333 52.16 8.26C52.0667 8.26 51.9267 8.22667 51.74 8.16C51.5533 8.08667 51.3667 8 51.18 7.9C50.9933 7.80667 50.8567 7.72667 50.77 7.66C50.7233 7.78 50.6867 7.90667 50.66 8.04C50.6333 8.16667 50.61 8.29667 50.59 8.43V8.5C50.59 8.53333 50.5933 8.57333 50.6 8.62C50.6067 8.66667 50.6133 8.71333 50.62 8.76C50.6933 9.08667 50.82 9.38333 51 9.65C51.1733 9.91 51.3933 10.04 51.66 10.04C51.78 10.04 51.92 9.99667 52.08 9.91C52.2467 9.83 52.4 9.72667 52.54 9.6C52.68 9.47333 52.7667 9.35667 52.8 9.25C52.88 9.06333 52.96 8.97 53.04 8.97C53.1 8.97 53.13 9.01333 53.13 9.1C53.13 9.14667 53.1133 9.21333 53.08 9.3C52.9733 9.58667 52.7967 9.85667 52.55 10.11C52.31 10.3633 52.03 10.49 51.71 10.49ZM52.16 7.87C52.3533 7.87 52.4967 7.78 52.59 7.6C52.6767 7.41333 52.72 7.23333 52.72 7.06C52.72 6.97333 52.6867 6.88 52.62 6.78C52.5533 6.68667 52.4833 6.6 52.41 6.52C52.3367 6.44667 52.28 6.41 52.24 6.41C52.1 6.41 51.9667 6.44333 51.84 6.51C51.6133 6.57667 51.42 6.69 51.26 6.85C51.1067 7.00333 50.9833 7.18333 50.89 7.39C50.8967 7.39 50.91 7.4 50.93 7.42C50.9767 7.46 51.0867 7.51667 51.26 7.59C51.4333 7.66333 51.61 7.72667 51.79 7.78C51.97 7.84 52.0933 7.87 52.16 7.87Z" fill="black"/>
</svg>
