<svg width="34" height="13" viewBox="0 0 34 13" fill="none" xmlns="http://www.w3.org/2000/svg">
<path d="M13.17 12.58C12.5567 12.58 11.9133 12.2867 11.24 11.7C10.44 11.0067 9.70667 9.95667 9.04 8.55C8.96 8.38333 8.86 8.17667 8.74 7.93C8.61333 7.68333 8.47333 7.4 8.32 7.08H8.08C6.54667 10.2333 4.77667 11.81 2.77 11.81C2.08333 11.81 1.53333 11.5867 1.12 11.14C0.706667 10.7 0.5 10.1167 0.5 9.39C0.5 8.63667 0.72 7.97 1.16 7.39C1.65333 6.77 2.26667 6.46 3 6.46C3.21333 6.46 3.40667 6.52333 3.58 6.65C3.78 6.75 3.88 6.90667 3.88 7.12C3.88 7.16667 3.86667 7.2 3.84 7.22C3.80667 7.10667 3.76333 7.01667 3.71 6.95C3.61667 6.79667 3.42667 6.72 3.14 6.72C2.48667 6.72 1.95333 7.05 1.54 7.71C1.17333 8.27667 0.99 8.90667 0.99 9.6C0.99 10.1867 1.13 10.6633 1.41 11.03C1.71 11.45 2.15 11.66 2.73 11.66C3.82333 11.66 4.89333 10.9167 5.94 9.43C6.22 9.02333 6.48 8.61667 6.72 8.21C6.96 7.81 7.18 7.41 7.38 7.01C7.24667 6.99 7.11667 6.96 6.99 6.92C6.86333 6.88 6.73667 6.83667 6.61 6.79C6.37667 7.29 6.12333 7.76333 5.85 8.21C5.57 8.65 5.27667 9.07 4.97 9.47C4.09 10.65 3.29667 11.24 2.59 11.24C2.50333 11.24 2.46 11.2067 2.46 11.14C2.46 11.0867 2.50333 11.0533 2.59 11.04C2.63667 11.0333 2.7 11.0233 2.78 11.01C2.86 10.9967 2.95 10.9733 3.05 10.94C3.37667 10.8133 3.70667 10.5967 4.04 10.29C4.37333 9.99 4.71667 9.6 5.07 9.12C5.33 8.76667 5.57667 8.39 5.81 7.99C6.04333 7.59 6.26667 7.17 6.48 6.73C5.84667 6.43 5.53 6.10667 5.53 5.76C5.53 5.59333 5.62 5.43667 5.8 5.29C5.98667 5.15 6.16667 5.08 6.34 5.08C6.57333 5.08 6.81667 5.17333 7.07 5.36C7.63 3.88667 7.96667 2.51 8.08 1.23C7.22667 1.26333 6.4 1.41333 5.6 1.68C4.66667 1.97333 3.94333 2.39333 3.43 2.94C3.07667 3.28 2.9 3.67667 2.9 4.13C2.9 4.86333 3.29 5.38333 4.07 5.69C4.17667 5.75 4.36333 5.80667 4.63 5.86C4.69 5.87333 4.72 5.89667 4.72 5.93C4.72 5.95667 4.68667 5.97 4.62 5.97H4.59C4.31 5.97 4.04 5.91 3.78 5.79C3.52 5.67 3.26667 5.50667 3.02 5.3C2.50667 4.87333 2.25 4.38 2.25 3.82C2.25 3.43333 2.41333 3.07667 2.74 2.75C3.01333 2.48333 3.35667 2.23667 3.77 2.01C4.19 1.79 4.68333 1.6 5.25 1.44C6.13 1.19333 7.07667 1.04667 8.09 1V0.0900002C8.09 0.0300002 8.12 0 8.18 0C8.20667 0 8.22 0.0233335 8.22 0.0700002C8.25333 0.33 8.26667 0.636666 8.26 0.99H8.89C9.27 0.99 9.63333 1.01 9.98 1.05C10.3267 1.08333 10.6633 1.13333 10.99 1.2C11.81 1.38667 12.4867 1.66333 13.02 2.03C13.7267 2.52333 14.08 3.12333 14.08 3.83C14.08 4.52333 13.74 5.14333 13.06 5.69C12.54 6.12333 11.8767 6.46 11.07 6.7C10.71 6.81333 10.3267 6.9 9.92 6.96C9.51333 7.02 9.08667 7.06 8.64 7.08C8.94 7.48 9.23667 7.88333 9.53 8.29C9.83 8.69667 10.1333 9.10667 10.44 9.52C10.8533 10.08 11.2267 10.5367 11.56 10.89C11.9 11.2433 12.1867 11.5 12.42 11.66C12.8733 11.9733 13.27 12.13 13.61 12.13C14.11 12.13 14.36 11.7967 14.36 11.13C14.36 10.5233 14.17 9.95667 13.79 9.43C13.7633 9.40333 13.75 9.38 13.75 9.36C13.75 9.33333 13.7633 9.32 13.79 9.32C13.8433 9.32 13.89 9.34667 13.93 9.4C14.37 9.92667 14.59 10.4833 14.59 11.07C14.59 11.5167 14.46 11.8767 14.2 12.15C13.9333 12.4367 13.59 12.58 13.17 12.58ZM8.3 6.63L8.4 6.76C8.89333 6.76 9.35667 6.73667 9.79 6.69C10.2167 6.64333 10.62 6.56667 11 6.46C11.64 6.26667 12.1733 6.00667 12.6 5.68C13.12 5.24 13.38 4.73 13.38 4.15C13.38 3.49 13.0733 2.90667 12.46 2.4C12.2067 2.18667 11.9267 2.00667 11.62 1.86C11.3133 1.70667 10.9833 1.58 10.63 1.48C9.95667 1.3 9.25 1.21 8.51 1.21H8.25C8.16333 2.47 7.81333 3.88 7.2 5.44C7.3 5.52667 7.4 5.62 7.5 5.72C7.60667 5.81333 7.71 5.92 7.81 6.04C8.16333 5.18667 8.46333 4.21333 8.71 3.12C8.71667 3.07333 8.72667 3.01333 8.74 2.94C8.74667 2.87333 8.76333 2.79667 8.79 2.71C8.87667 2.43 9.06 2.29 9.34 2.29C9.50667 2.29 9.59 2.35667 9.59 2.49C9.59 2.53667 9.58 2.60667 9.56 2.7C9.54 2.8 9.51333 2.93 9.48 3.09C9.22667 4.25 8.83333 5.43 8.3 6.63ZM6.61 6.46C6.68333 6.30667 6.75333 6.15 6.82 5.99C6.88667 5.83 6.95 5.67 7.01 5.51C6.88333 5.43 6.76667 5.36667 6.66 5.32C6.55333 5.27333 6.44667 5.25 6.34 5.25C6.08 5.25 5.95 5.38 5.95 5.64C5.95 5.94667 6.17 6.22 6.61 6.46ZM7.52 6.73C7.55333 6.64333 7.59 6.56333 7.63 6.49C7.67 6.41 7.70667 6.32667 7.74 6.24C7.64667 6.10667 7.54667 5.99 7.44 5.89C7.33333 5.79 7.23 5.7 7.13 5.62C7.07 5.77333 7.00667 5.92 6.94 6.06C6.88 6.20667 6.81667 6.36 6.75 6.52C6.97 6.62 7.22667 6.69 7.52 6.73ZM13.79 9.87C13.69 9.87 13.64 9.84 13.64 9.78C13.64 9.44667 13.7733 9.01667 14.04 8.49C14.38 7.83667 14.5767 7.41333 14.63 7.22C14.7233 6.88667 14.77 6.49 14.77 6.03C14.75 6.12333 14.6933 6.26 14.6 6.44C14.5 6.62667 14.37 6.85333 14.21 7.12C14.0633 7.38 13.93 7.59667 13.81 7.77C13.6967 7.94333 13.6 8.08333 13.52 8.19C13.52 8.19667 13.5133 8.2 13.5 8.2C13.4533 8.2 13.43 8.18 13.43 8.14C13.43 8.14 13.4633 8.08 13.53 7.96C13.6033 7.84 13.71 7.66333 13.85 7.43C14.2967 6.64333 14.5833 5.98667 14.71 5.46C14.77 5.21333 14.8833 5.09 15.05 5.09C15.2167 5.09 15.3 5.28667 15.3 5.68C15.3 5.88667 15.2733 6.14333 15.22 6.45C15.16 6.75667 15.0667 7.11 14.94 7.51C14.8467 7.82333 14.75 8.13333 14.65 8.44C14.55 8.74667 14.45 9.05 14.35 9.35C14.6967 9.09 15.03 8.79 15.35 8.45C15.67 8.11667 15.9633 7.73 16.23 7.29L16.31 7.15C16.3567 6.81667 16.4167 6.54 16.49 6.32C16.5567 6.10667 16.6233 5.95333 16.69 5.86C16.7433 5.79333 16.8267 5.76 16.94 5.76C17.1333 5.76 17.23 5.81333 17.23 5.92C17.23 6.2 17.1433 6.45667 16.97 6.69C16.7633 7.39 16.66 8.07 16.66 8.73C16.66 9.17667 16.8 9.4 17.08 9.4C17.22 9.4 17.3833 9.32333 17.57 9.17C17.7567 9.01 17.8467 8.93 17.84 8.93C17.8667 8.93 17.88 8.95667 17.88 9.01V9.04C17.56 9.48667 17.2033 9.71 16.81 9.71C16.41 9.71 16.21 9.36667 16.21 8.68C16.21 8.50667 16.2167 8.32333 16.23 8.13C16.2433 7.93667 16.26 7.72333 16.28 7.49C15.9267 8.15667 15.3433 8.81 14.53 9.45C14.4833 9.48333 14.42 9.53333 14.34 9.6C14.2533 9.66667 14.16 9.73667 14.06 9.81C14.0133 9.85 13.9233 9.87 13.79 9.87ZM19.45 10.15C18.9833 10.15 18.75 9.86333 18.75 9.29C18.75 8.88333 18.85 8.37667 19.05 7.77C19.0167 7.64333 18.9533 7.53333 18.86 7.44C18.7667 7.34 18.6433 7.25667 18.49 7.19C18.37 7.13667 18.2467 7.08667 18.12 7.04C17.9933 6.99333 17.8667 6.94 17.74 6.88C17.62 6.82667 17.56 6.73 17.56 6.59C17.56 6.44333 17.6233 6.35333 17.75 6.32H18.13C18.6233 6.32 19.14 6.26667 19.68 6.16L19.7 6.13L20.62 4.08C20.6667 3.98 20.7233 3.85 20.79 3.69C20.8567 3.53 20.9367 3.35 21.03 3.15C21.1033 2.97667 21.2833 2.89 21.57 2.89C21.77 2.89 21.87 2.93667 21.87 3.03C21.87 3.06333 21.6967 3.45667 21.35 4.21C20.9967 4.99667 20.8 5.40667 20.76 5.44C20.74 5.46 20.71 5.49 20.67 5.53C20.63 5.57667 20.58 5.62333 20.52 5.67C20.4867 5.73 20.4333 5.84 20.36 6C20.5 5.95333 20.74 5.87333 21.08 5.76C21.42 5.64 21.86 5.48667 22.4 5.3C22.44 5.29333 22.4733 5.28667 22.5 5.28C22.5267 5.27333 22.5433 5.27 22.55 5.27C22.59 5.27 22.61 5.28 22.61 5.3C22.61 5.46 21.82 5.76333 20.24 6.21C20.0533 6.57667 19.8967 6.88667 19.77 7.14C19.6367 7.4 19.5367 7.61 19.47 7.77C19.35 8.06333 19.26 8.35 19.2 8.63C19.14 8.90333 19.11 9.17 19.11 9.43C19.11 9.73667 19.2133 9.89 19.42 9.89C19.6733 9.89 20.0033 9.71333 20.41 9.36C20.6233 9.17333 20.7833 9.03667 20.89 8.95C20.99 8.86333 21.04 8.82 21.04 8.82C21.0667 8.82 21.08 8.83333 21.08 8.86C21.08 8.88667 21.0667 8.92667 21.04 8.98C20.8933 9.20667 20.6567 9.44667 20.33 9.7C19.9433 10 19.65 10.15 19.45 10.15ZM19.11 7.57C19.1767 7.38333 19.25 7.19333 19.33 7C19.41 6.8 19.4967 6.59667 19.59 6.39C19.3567 6.45 19.12 6.50333 18.88 6.55C18.64 6.59667 18.4033 6.63667 18.17 6.67C18.6567 6.92333 18.97 7.22333 19.11 7.57ZM21.41 10.38C21.2967 10.38 21.25 10.3433 21.27 10.27C21.2367 10.1967 21.17 10.08 21.07 9.92C20.9567 9.75333 20.9 9.65 20.9 9.61C20.9 9.53667 20.9333 9.49667 21 9.49C21.0933 9.43 21.19 9.36 21.29 9.28C21.3967 9.19333 21.51 9.1 21.63 9C21.93 8.14 22.3233 7.12 22.81 5.94C23.29 4.76 23.8733 3.42333 24.56 1.93C24.6067 1.83667 24.6533 1.72333 24.7 1.59C24.7533 1.45 24.8267 1.29667 24.92 1.13C25.0333 0.916667 25.28 0.81 25.66 0.81C25.8 0.81 25.87 0.843333 25.87 0.91C25.87 0.923333 25.86 0.94 25.84 0.96C25.7467 1.12667 25.6367 1.33667 25.51 1.59C25.3767 1.84333 25.2167 2.14333 25.03 2.49C24.3967 3.70333 23.8533 4.79333 23.4 5.76C22.9467 6.73333 22.59 7.59 22.33 8.33C22.85 7.80333 23.2833 7.33333 23.63 6.92C23.97 6.50667 24.2267 6.14 24.4 5.82C24.4133 5.8 24.4267 5.77333 24.44 5.74C24.46 5.7 24.48 5.66 24.5 5.62C24.5533 5.52667 24.6467 5.48 24.78 5.48C24.8933 5.48 24.95 5.52 24.95 5.6C24.95 5.64667 24.9433 5.71 24.93 5.79C24.9233 5.87667 24.91 5.98 24.89 6.1C24.87 6.22 24.8533 6.32667 24.84 6.42C24.8267 6.51333 24.82 6.59333 24.82 6.66C24.82 7.22667 24.9033 7.8 25.07 8.38C25.3167 9.18667 25.65 9.59 26.07 9.59C26.1433 9.59 26.2367 9.56667 26.35 9.52C26.4633 9.47333 26.5267 9.45 26.54 9.45C26.62 9.45 26.66 9.48667 26.66 9.56C26.66 9.65333 26.5667 9.73667 26.38 9.81C26.18 9.88333 26.03 9.92 25.93 9.92C25.4633 9.92 25.0367 9.54333 24.65 8.79C24.3233 8.11 24.16 7.47333 24.16 6.88C24.16 6.83333 24.16 6.79333 24.16 6.76C24.16 6.72 24.1667 6.68333 24.18 6.65C24.0133 6.89 23.76 7.18667 23.42 7.54C23.0867 7.89333 22.6733 8.30333 22.18 8.77C22.1333 8.93 22.09 9.08667 22.05 9.24C22.01 9.38667 21.9733 9.52667 21.94 9.66C21.9267 9.69333 21.9167 9.74 21.91 9.8C21.9033 9.86 21.89 9.93 21.87 10.01C21.8033 10.2567 21.65 10.38 21.41 10.38ZM21.34 9.95C21.3533 9.87667 21.3733 9.79333 21.4 9.7C21.42 9.60667 21.45 9.51333 21.49 9.42C21.4367 9.46667 21.3867 9.50667 21.34 9.54C21.2933 9.58 21.2467 9.62 21.2 9.66C21.2467 9.72 21.2933 9.81667 21.34 9.95ZM28.1 5.09C27.9133 5.09 27.82 4.99333 27.82 4.8C27.82 4.69333 27.8767 4.58 27.99 4.46C28.05 4.38667 28.1067 4.32667 28.16 4.28C28.2133 4.23333 28.2633 4.2 28.31 4.18C28.6433 4.02 28.8433 3.94 28.91 3.94C28.9367 3.94 28.95 3.95 28.95 3.97C28.95 3.99667 28.8433 4.13333 28.63 4.38C28.6233 4.38667 28.6033 4.42667 28.57 4.5C28.5433 4.56667 28.4933 4.67 28.42 4.81C28.3333 4.99667 28.2267 5.09 28.1 5.09ZM27.26 9.59C26.78 9.59 26.54 9.35 26.54 8.87C26.54 8.51667 26.6333 8.07 26.82 7.53C26.7867 7.59667 26.7467 7.66 26.7 7.72C26.66 7.78667 26.6167 7.85333 26.57 7.92C26.45 8.12667 26.3667 8.23 26.32 8.23C26.3 8.23 26.29 8.21667 26.29 8.19C26.29 8.11 26.32 8.04 26.38 7.98C26.6 7.66667 26.8467 7.22333 27.12 6.65C27.1467 6.57 27.1867 6.47667 27.24 6.37C27.2867 6.25667 27.35 6.13 27.43 5.99C27.4767 5.90333 27.5933 5.86 27.78 5.86C27.9333 5.86 28.01 5.90667 28.01 6C28.01 6.09333 27.97 6.23333 27.89 6.42C27.7833 6.60667 27.7 6.71333 27.64 6.74C27.1533 7.71333 26.91 8.43 26.91 8.89C26.91 9.19667 27.0133 9.35 27.22 9.35C27.5533 9.35 27.92 9.10667 28.32 8.62C28.74 8.13333 28.9467 7.89 28.94 7.89C28.96 7.89 28.97 7.90333 28.97 7.93C28.97 7.94333 28.96 7.97667 28.94 8.03C28.8533 8.18333 28.7467 8.33667 28.62 8.49C28.4933 8.64333 28.3533 8.80333 28.2 8.97C27.7867 9.38333 27.4733 9.59 27.26 9.59ZM30.13 10.08C29.4633 10.08 29.13 9.65 29.13 8.79C29.13 8.65667 29.1367 8.51333 29.15 8.36C29.17 8.20667 29.1967 8.04 29.23 7.86C29.1967 7.83333 29.16 7.79667 29.12 7.75C29.08 7.69667 29.0433 7.63333 29.01 7.56C29.0433 7.56667 29.0833 7.58 29.13 7.6C29.17 7.62667 29.2233 7.65 29.29 7.67C29.39 7.20333 29.67 6.74 30.13 6.28C30.6233 5.78 31.09 5.53 31.53 5.53C31.63 5.53 31.68 5.54333 31.68 5.57C31.68 5.59 31.6167 5.63667 31.49 5.71C31.1433 5.89667 30.82 6.18667 30.52 6.58C30.2 6.96667 29.97 7.35667 29.83 7.75C29.8433 7.76333 29.85 7.77 29.85 7.77C29.85 7.77 29.8533 7.77333 29.86 7.78C30.3067 7.78 30.7733 7.56667 31.26 7.14C31.7467 6.70667 31.99 6.26667 31.99 5.82C31.99 5.68667 31.9533 5.56 31.88 5.44C31.8133 5.32667 31.71 5.27 31.57 5.27C31.39 5.27 31.18 5.34 30.94 5.48C30.7067 5.63333 30.5767 5.71 30.55 5.71C30.53 5.71 30.52 5.70333 30.52 5.69C30.52 5.58333 30.6833 5.46333 31.01 5.33C31.29 5.21667 31.51 5.16 31.67 5.16C31.89 5.16 32.0667 5.22 32.2 5.34C32.3467 5.46667 32.42 5.63667 32.42 5.85C32.42 6.34333 32.1 6.82333 31.46 7.29C30.88 7.70333 30.32 7.93333 29.78 7.98C29.7067 8.2 29.67 8.41333 29.67 8.62C29.67 9.39333 29.95 9.78 30.51 9.78C30.9367 9.78 31.3833 9.59333 31.85 9.22C32.2433 8.91333 32.57 8.54 32.83 8.1C32.9167 7.97333 32.9867 7.91 33.04 7.91C33.0467 7.91 33.05 7.91667 33.05 7.93C33.05 7.97 33.0133 8.05667 32.94 8.19C32.6533 8.64333 32.2467 9.06333 31.72 9.45C31.1533 9.87 30.6233 10.08 30.13 10.08Z" fill="black"/>
</svg>
