<svg width="126" height="11" viewBox="0 0 126 11" fill="none" xmlns="http://www.w3.org/2000/svg">
<path d="M3.64 10.51C3.15333 10.51 2.64667 10.4933 2.12 10.46C1.59333 10.4267 1.13333 10.38 0.74 10.32V9.36C1.72667 9.46667 2.58 9.52 3.3 9.52C3.74667 9.52 4.1 9.49667 4.36 9.45C4.61333 9.40333 4.82333 9.32 4.99 9.2C5.16333 9.08667 5.27333 8.91667 5.32 8.69C5.36667 8.45667 5.39 8.14333 5.39 7.75C5.39 7.25667 5.36667 6.91333 5.32 6.72C5.27333 6.52 5.16667 6.38 5 6.3C4.84 6.21333 4.55 6.14333 4.13 6.09L2.15 5.84C1.67667 5.77333 1.32 5.63667 1.08 5.43C0.84 5.22333 0.683333 4.95667 0.61 4.63C0.536667 4.30333 0.5 3.87333 0.5 3.34C0.5 2.62667 0.613333 2.07667 0.84 1.69C1.06 1.29667 1.38667 1.02667 1.82 0.88C2.25333 0.733333 2.82667 0.66 3.54 0.66C4.02667 0.66 4.5 0.68 4.96 0.72C5.42 0.76 5.8 0.813333 6.1 0.88V1.8C5.40667 1.7 4.63667 1.65 3.79 1.65C3.31667 1.65 2.94 1.67667 2.66 1.73C2.38 1.79 2.16333 1.88 2.01 2C1.85 2.12 1.74667 2.28 1.7 2.48C1.64667 2.68 1.62 2.96 1.62 3.32C1.62 3.72667 1.64333 4.02333 1.69 4.21C1.73667 4.39667 1.83 4.53 1.97 4.61C2.11 4.69 2.34 4.75 2.66 4.79L4.59 5.04C5.09 5.10667 5.47333 5.20667 5.74 5.34C6.00667 5.47333 6.20667 5.71667 6.34 6.07C6.46 6.37 6.52 6.89333 6.52 7.64C6.52 8.43333 6.41333 9.03667 6.2 9.45C5.98667 9.87 5.67667 10.15 5.27 10.29C4.86333 10.4367 4.32 10.51 3.64 10.51ZM10.03 10.51C9.28333 10.51 8.74667 10.36 8.42 10.06C8.09333 9.75333 7.93 9.21 7.93 8.43C7.93 7.88333 7.99 7.46 8.11 7.16C8.22333 6.85333 8.42333 6.63333 8.71 6.5C8.99667 6.36667 9.39667 6.3 9.91 6.3C10.17 6.3 10.93 6.32333 12.19 6.37V5.89C12.19 5.31 12.1433 4.89667 12.05 4.65C11.9567 4.40333 11.7867 4.24667 11.54 4.18C11.2933 4.10667 10.8767 4.07 10.29 4.07C10.0233 4.07 9.69333 4.08333 9.3 4.11C8.9 4.14333 8.58 4.17667 8.34 4.21V3.34C8.99333 3.21333 9.75333 3.15 10.62 3.15C11.3667 3.15 11.9267 3.23 12.3 3.39C12.6667 3.55667 12.9167 3.83 13.05 4.21C13.1833 4.59667 13.25 5.15667 13.25 5.89V10.4H12.3L12.25 9.41H12.18C12.0067 9.85667 11.7333 10.15 11.36 10.29C10.98 10.4367 10.5367 10.51 10.03 10.51ZM10.41 9.59C10.8033 9.59 11.1233 9.55 11.37 9.47C11.6167 9.39 11.8 9.23 11.92 8.99C12.1 8.62333 12.19 8.13333 12.19 7.52V7.11H10.19C9.84333 7.11 9.59 7.14 9.43 7.2C9.26333 7.26 9.14667 7.37667 9.08 7.55C9.01333 7.72333 8.98 7.99333 8.98 8.36C8.98 8.71333 9.02 8.97333 9.1 9.14C9.17333 9.30667 9.30667 9.42333 9.5 9.49C9.7 9.55667 10.0033 9.59 10.41 9.59ZM16.45 1.22H15.31V0H16.45V1.22ZM16.4 10.4H15.34V3.26H16.4V10.4ZM18.52 10.4V3.26H19.47L19.53 4.62H19.61C19.75 4.06 19.9933 3.67333 20.34 3.46C20.6933 3.25333 21.1533 3.15 21.72 3.15V4.23C21.16 4.23 20.7233 4.33 20.41 4.53C20.1033 4.73 19.8867 5.03333 19.76 5.44C19.64 5.84667 19.58 6.38333 19.58 7.05V10.4H18.52ZM24.65 10.51C23.9033 10.51 23.3667 10.36 23.04 10.06C22.7133 9.75333 22.55 9.21 22.55 8.43C22.55 7.88333 22.6067 7.46 22.72 7.16C22.84 6.85333 23.0433 6.63333 23.33 6.5C23.61 6.36667 24.0067 6.3 24.52 6.3C24.7867 6.3 25.55 6.32333 26.81 6.37V5.89C26.81 5.31 26.7633 4.89667 26.67 4.65C26.5767 4.40333 26.4033 4.24667 26.15 4.18C25.9033 4.10667 25.4867 4.07 24.9 4.07C24.64 4.07 24.31 4.08333 23.91 4.11C23.5167 4.14333 23.2 4.17667 22.96 4.21V3.34C23.6133 3.21333 24.3733 3.15 25.24 3.15C25.9867 3.15 26.5433 3.23 26.91 3.39C27.2767 3.55667 27.53 3.83 27.67 4.21C27.8033 4.59667 27.87 5.15667 27.87 5.89V10.4H26.92L26.86 9.41H26.79C26.6233 9.85667 26.35 10.15 25.97 10.29C25.5967 10.4367 25.1567 10.51 24.65 10.51ZM25.03 9.59C25.4233 9.59 25.7433 9.55 25.99 9.47C26.2367 9.39 26.42 9.23 26.54 8.99C26.72 8.62333 26.81 8.13333 26.81 7.52V7.11H24.8C24.46 7.11 24.2067 7.14 24.04 7.2C23.88 7.26 23.7667 7.37667 23.7 7.55C23.6333 7.72333 23.6 7.99333 23.6 8.36C23.6 8.71333 23.6367 8.97333 23.71 9.14C23.7833 9.30667 23.92 9.42333 24.12 9.49C24.3133 9.55667 24.6167 9.59 25.03 9.59ZM35.78 10.51C35.2933 10.51 34.7867 10.4933 34.26 10.46C33.7333 10.4267 33.2733 10.38 32.88 10.32V9.36C33.8733 9.46667 34.7267 9.52 35.44 9.52C35.8933 9.52 36.2467 9.49667 36.5 9.45C36.76 9.40333 36.9733 9.32 37.14 9.2C37.3067 9.08667 37.4133 8.91667 37.46 8.69C37.5067 8.45667 37.53 8.14333 37.53 7.75C37.53 7.25667 37.5067 6.91333 37.46 6.72C37.4133 6.52 37.3067 6.38 37.14 6.3C36.98 6.21333 36.69 6.14333 36.27 6.09L34.3 5.84C33.82 5.77333 33.46 5.63667 33.22 5.43C32.9867 5.22333 32.8333 4.95667 32.76 4.63C32.68 4.30333 32.64 3.87333 32.64 3.34C32.64 2.62667 32.7533 2.07667 32.98 1.69C33.2067 1.29667 33.5367 1.02667 33.97 0.88C34.4033 0.733333 34.9733 0.66 35.68 0.66C36.1667 0.66 36.64 0.68 37.1 0.72C37.5667 0.76 37.9467 0.813333 38.24 0.88V1.8C37.5533 1.7 36.7833 1.65 35.93 1.65C35.4567 1.65 35.08 1.67667 34.8 1.73C34.52 1.79 34.3067 1.88 34.16 2C34 2.12 33.8933 2.28 33.84 2.48C33.7867 2.68 33.76 2.96 33.76 3.32C33.76 3.72667 33.7833 4.02333 33.83 4.21C33.8767 4.39667 33.97 4.53 34.11 4.61C34.25 4.69 34.48 4.75 34.8 4.79L36.73 5.04C37.2367 5.10667 37.6233 5.20667 37.89 5.34C38.1567 5.47333 38.3533 5.71667 38.48 6.07C38.6 6.37 38.66 6.89333 38.66 7.64C38.66 8.43333 38.5533 9.03667 38.34 9.45C38.1267 9.87 37.8167 10.15 37.41 10.29C37.0033 10.4367 36.46 10.51 35.78 10.51ZM45.58 6.83V7.19H41.3C41.3 7.92333 41.34 8.44667 41.42 8.76C41.4933 9.08 41.67 9.3 41.95 9.42C42.2233 9.54 42.6767 9.6 43.31 9.6C43.91 9.6 44.5867 9.55 45.34 9.45V10.32C45.0867 10.3733 44.75 10.42 44.33 10.46C43.9033 10.4933 43.49 10.51 43.09 10.51C42.23 10.51 41.6 10.4 41.2 10.18C40.8 9.96 40.5367 9.60333 40.41 9.11C40.2833 8.61667 40.22 7.86 40.22 6.84C40.22 5.83333 40.2767 5.08667 40.39 4.6C40.4967 4.10667 40.75 3.74333 41.15 3.51C41.5433 3.27 42.17 3.15 43.03 3.15C43.8367 3.15 44.4167 3.26333 44.77 3.49C45.1233 3.71667 45.3467 4.07333 45.44 4.56C45.5333 5.04 45.58 5.79667 45.58 6.83ZM43 4.06C42.4733 4.06 42.0933 4.11667 41.86 4.23C41.6333 4.33667 41.4833 4.54667 41.41 4.86C41.3367 5.17333 41.3 5.68667 41.3 6.4H44.56V6.26C44.56 5.59333 44.5167 5.11 44.43 4.81C44.3367 4.50333 44.1867 4.3 43.98 4.2C43.7667 4.10667 43.44 4.06 43 4.06ZM55.3 10.4V6.28C55.3 5.6 55.27 5.11667 55.21 4.83C55.1433 4.55 55.0233 4.36333 54.85 4.27C54.67 4.17667 54.37 4.13 53.95 4.13C53.4767 4.13 53.1333 4.22 52.92 4.4C52.7 4.58 52.5633 4.84 52.51 5.18C52.4567 5.51333 52.43 6.01667 52.43 6.69V10.4H51.36V6.28C51.36 5.6 51.33 5.11667 51.27 4.83C51.21 4.55 51.09 4.36333 50.91 4.27C50.7367 4.17667 50.44 4.13 50.02 4.13C49.5533 4.13 49.21 4.22667 48.99 4.42C48.77 4.60667 48.6333 4.87 48.58 5.21C48.52 5.55 48.49 6.04333 48.49 6.69V10.4H47.43V3.26H48.38L48.44 4.27H48.51C48.6367 3.91667 48.85 3.64 49.15 3.44C49.45 3.24667 49.8833 3.15 50.45 3.15C51.0233 3.15 51.45 3.23667 51.73 3.41C52.01 3.58333 52.2 3.87 52.3 4.27H52.38C52.5133 3.91667 52.7367 3.64 53.05 3.44C53.3633 3.24667 53.8033 3.15 54.37 3.15C54.93 3.15 55.35 3.24333 55.63 3.43C55.91 3.61667 56.1033 3.9 56.21 4.28C56.31 4.66667 56.36 5.2 56.36 5.88V10.4H55.3ZM59.57 1.22H58.43V0H59.57V1.22ZM59.52 10.4H58.46V3.26H59.52V10.4ZM69.79 10.33C69.5367 10.3833 69.23 10.4267 68.87 10.46C68.51 10.4933 68.1667 10.51 67.84 10.51C66.8333 10.51 66.1 10.3867 65.64 10.14C65.1867 9.89333 64.88 9.43667 64.72 8.77C64.56 8.10333 64.48 7.04 64.48 5.58C64.48 4.13333 64.56 3.07667 64.72 2.41C64.88 1.74333 65.19 1.28333 65.65 1.03C66.11 0.783334 66.84 0.66 67.84 0.66C68.1667 0.66 68.51 0.676667 68.87 0.71C69.23 0.75 69.52 0.796667 69.74 0.85V1.78C69.2 1.69333 68.6567 1.65 68.11 1.65C67.2967 1.65 66.7267 1.73 66.4 1.89C66.0733 2.05 65.8567 2.38667 65.75 2.9C65.65 3.41333 65.6 4.30667 65.6 5.58C65.6 6.86 65.65 7.75667 65.75 8.27C65.8567 8.78333 66.0733 9.12 66.4 9.28C66.7267 9.44 67.2967 9.52 68.11 9.52C68.77 9.52 69.33 9.47667 69.79 9.39V10.33ZM74 10.51C73.12 10.51 72.49 10.41 72.11 10.21C71.73 10.01 71.4833 9.67 71.37 9.19C71.2633 8.71 71.21 7.92333 71.21 6.83C71.21 5.73667 71.2633 4.95 71.37 4.47C71.4833 3.99 71.73 3.65 72.11 3.45C72.49 3.25 73.12 3.15 74 3.15C74.88 3.15 75.51 3.25 75.89 3.45C76.27 3.65 76.5167 3.99 76.63 4.47C76.7367 4.95 76.79 5.73667 76.79 6.83C76.79 7.92333 76.7367 8.71 76.63 9.19C76.5167 9.67 76.27 10.01 75.89 10.21C75.51 10.41 74.88 10.51 74 10.51ZM74 9.59C74.58 9.59 74.9833 9.52667 75.21 9.4C75.4367 9.27333 75.58 9.04 75.64 8.7C75.6933 8.36 75.72 7.73667 75.72 6.83C75.72 5.92333 75.6933 5.3 75.64 4.96C75.58 4.62 75.4367 4.38667 75.21 4.26C74.9833 4.13333 74.58 4.07 74 4.07C73.42 4.07 73.02 4.13333 72.8 4.26C72.5733 4.38667 72.4333 4.62 72.38 4.96C72.32 5.3 72.29 5.92333 72.29 6.83C72.29 7.74333 72.32 8.37 72.38 8.71C72.4333 9.04333 72.5733 9.27333 72.8 9.4C73.02 9.52667 73.42 9.59 74 9.59ZM82.86 10.4V6.28C82.86 5.6 82.8267 5.11667 82.76 4.83C82.6867 4.55 82.55 4.36333 82.35 4.27C82.15 4.17667 81.8167 4.13 81.35 4.13C80.8367 4.13 80.46 4.22667 80.22 4.42C79.9867 4.60667 79.84 4.87333 79.78 5.22C79.7133 5.56667 79.68 6.05667 79.68 6.69V10.4H78.62V3.26H79.57L79.63 4.27H79.7C79.84 3.90333 80.07 3.62667 80.39 3.44C80.71 3.24667 81.1733 3.15 81.78 3.15C82.3867 3.15 82.8433 3.24333 83.15 3.43C83.45 3.61667 83.6533 3.9 83.76 4.28C83.8733 4.66667 83.93 5.20333 83.93 5.89V10.4H82.86ZM88.11 10.51C87.4767 10.51 86.9933 10.4067 86.66 10.2C86.3333 9.98667 86.1 9.62333 85.96 9.11C85.8267 8.59667 85.76 7.84 85.76 6.84C85.76 5.84667 85.8267 5.09 85.96 4.57C86.0867 4.05 86.3133 3.68333 86.64 3.47C86.9667 3.25667 87.4467 3.15 88.08 3.15C88.6067 3.15 89.0367 3.22667 89.37 3.38C89.6967 3.53333 89.94 3.78667 90.1 4.14H90.17V0H91.23V10.4H90.28L90.24 9.41H90.16C90 9.83667 89.7433 10.1267 89.39 10.28C89.0433 10.4333 88.6167 10.51 88.11 10.51ZM88.52 9.55C88.9267 9.55 89.25 9.48667 89.49 9.36C89.73 9.23333 89.8967 9.03 89.99 8.75C90.0633 8.51667 90.1133 8.25333 90.14 7.96C90.16 7.66667 90.17 7.25667 90.17 6.73C90.17 6.33 90.16 6 90.14 5.74C90.12 5.48667 90.0833 5.26333 90.03 5.07C89.9367 4.73 89.77 4.48667 89.53 4.34C89.2833 4.18667 88.9367 4.11 88.49 4.11C87.9767 4.11 87.61 4.17333 87.39 4.3C87.17 4.42 87.0233 4.66 86.95 5.02C86.8767 5.38 86.84 5.98333 86.84 6.83C86.84 7.67667 86.8767 8.28333 86.95 8.65C87.0233 9.01667 87.1733 9.25667 87.4 9.37C87.62 9.49 87.9933 9.55 88.52 9.55ZM98.44 6.83V7.19H94.16C94.16 7.92333 94.2 8.44667 94.28 8.76C94.36 9.08 94.5367 9.3 94.81 9.42C95.0833 9.54 95.54 9.6 96.18 9.6C96.7733 9.6 97.45 9.55 98.21 9.45V10.32C97.9567 10.3733 97.6167 10.42 97.19 10.46C96.7633 10.4933 96.35 10.51 95.95 10.51C95.09 10.51 94.46 10.4 94.06 10.18C93.66 9.96 93.3967 9.60333 93.27 9.11C93.1433 8.61667 93.08 7.86 93.08 6.84C93.08 5.83333 93.1367 5.08667 93.25 4.6C93.3633 4.10667 93.6167 3.74333 94.01 3.51C94.41 3.27 95.04 3.15 95.9 3.15C96.7 3.15 97.2767 3.26333 97.63 3.49C97.9833 3.71667 98.2067 4.07333 98.3 4.56C98.3933 5.04 98.44 5.79667 98.44 6.83ZM95.87 4.06C95.3367 4.06 94.9567 4.11667 94.73 4.23C94.4967 4.33667 94.3433 4.54667 94.27 4.86C94.1967 5.17333 94.16 5.68667 94.16 6.4H97.42V6.26C97.42 5.59333 97.3767 5.11 97.29 4.81C97.2033 4.50333 97.0533 4.3 96.84 4.2C96.6333 4.10667 96.31 4.06 95.87 4.06ZM104.53 10.4V6.28C104.53 5.6 104.497 5.11667 104.43 4.83C104.357 4.55 104.22 4.36333 104.02 4.27C103.82 4.17667 103.487 4.13 103.02 4.13C102.507 4.13 102.133 4.22667 101.9 4.42C101.66 4.60667 101.51 4.87333 101.45 5.22C101.39 5.56667 101.36 6.05667 101.36 6.69V10.4H100.29V3.26H101.24L101.3 4.27H101.37C101.51 3.90333 101.74 3.62667 102.06 3.44C102.387 3.24667 102.853 3.15 103.46 3.15C104.067 3.15 104.52 3.24333 104.82 3.43C105.127 3.61667 105.333 3.9 105.44 4.28C105.547 4.66667 105.6 5.20333 105.6 5.89V10.4H104.53ZM109.77 10.51C109.423 10.51 109.037 10.4933 108.61 10.46C108.177 10.42 107.807 10.3767 107.5 10.33V9.45C108.24 9.54333 108.973 9.59 109.7 9.59C110.113 9.59 110.417 9.55333 110.61 9.48C110.803 9.4 110.933 9.28333 111 9.13C111.067 8.97 111.1 8.74 111.1 8.44C111.1 8.11333 111.08 7.88 111.04 7.74C110.993 7.6 110.917 7.50667 110.81 7.46C110.703 7.41333 110.53 7.37667 110.29 7.35L108.66 7.14C108.133 7.07333 107.777 6.90333 107.59 6.63C107.403 6.35 107.31 5.88333 107.31 5.23C107.31 4.65667 107.407 4.21667 107.6 3.91C107.793 3.61 108.07 3.40667 108.43 3.3C108.783 3.2 109.25 3.15 109.83 3.15C110.143 3.15 110.487 3.16667 110.86 3.2C111.233 3.24 111.547 3.28667 111.8 3.34V4.23C111.247 4.12333 110.583 4.07 109.81 4.07C109.45 4.07 109.17 4.09333 108.97 4.14C108.777 4.18667 108.627 4.29 108.52 4.45C108.413 4.61 108.36 4.85333 108.36 5.18C108.36 5.48 108.38 5.69667 108.42 5.83C108.46 5.96333 108.533 6.05667 108.64 6.11C108.74 6.16333 108.907 6.20333 109.14 6.23L110.75 6.42C111.117 6.46 111.393 6.53667 111.58 6.65C111.773 6.76333 111.917 6.95333 112.01 7.22C112.103 7.49333 112.15 7.89 112.15 8.41C112.15 8.97 112.063 9.40333 111.89 9.71C111.717 10.01 111.46 10.22 111.12 10.34C110.78 10.4533 110.33 10.51 109.77 10.51ZM118.95 6.83V7.19H114.67C114.67 7.92333 114.71 8.44667 114.79 8.76C114.87 9.08 115.047 9.3 115.32 9.42C115.593 9.54 116.05 9.6 116.69 9.6C117.283 9.6 117.96 9.55 118.72 9.45V10.32C118.467 10.3733 118.127 10.42 117.7 10.46C117.273 10.4933 116.86 10.51 116.46 10.51C115.6 10.51 114.97 10.4 114.57 10.18C114.17 9.96 113.907 9.60333 113.78 9.11C113.653 8.61667 113.59 7.86 113.59 6.84C113.59 5.83333 113.647 5.08667 113.76 4.6C113.873 4.10667 114.127 3.74333 114.52 3.51C114.92 3.27 115.55 3.15 116.41 3.15C117.21 3.15 117.787 3.26333 118.14 3.49C118.493 3.71667 118.717 4.07333 118.81 4.56C118.903 5.04 118.95 5.79667 118.95 6.83ZM116.38 4.06C115.847 4.06 115.467 4.11667 115.24 4.23C115.007 4.33667 114.853 4.54667 114.78 4.86C114.707 5.17333 114.67 5.68667 114.67 6.4H117.93V6.26C117.93 5.59333 117.887 5.11 117.8 4.81C117.713 4.50333 117.563 4.3 117.35 4.2C117.143 4.10667 116.82 4.06 116.38 4.06ZM122.89 10.51C122.257 10.51 121.773 10.4067 121.44 10.2C121.107 9.98667 120.873 9.62333 120.74 9.11C120.607 8.59667 120.54 7.84 120.54 6.84C120.54 5.84667 120.603 5.09 120.73 4.57C120.863 4.05 121.093 3.68333 121.42 3.47C121.747 3.25667 122.227 3.15 122.86 3.15C123.38 3.15 123.807 3.22667 124.14 3.38C124.473 3.53333 124.72 3.78667 124.88 4.14H124.95V0H126.01V10.4H125.06L125.02 9.41H124.93C124.77 9.83667 124.517 10.1267 124.17 10.28C123.817 10.4333 123.39 10.51 122.89 10.51ZM123.29 9.55C123.703 9.55 124.03 9.48667 124.27 9.36C124.503 9.23333 124.667 9.03 124.76 8.75C124.84 8.51667 124.89 8.25333 124.91 7.96C124.937 7.66667 124.95 7.25667 124.95 6.73C124.95 6.33 124.94 6 124.92 5.74C124.9 5.48667 124.863 5.26333 124.81 5.07C124.717 4.73 124.547 4.48667 124.3 4.34C124.06 4.18667 123.717 4.11 123.27 4.11C122.757 4.11 122.39 4.17333 122.17 4.3C121.95 4.42 121.803 4.66 121.73 5.02C121.65 5.38 121.61 5.98333 121.61 6.83C121.61 7.67667 121.65 8.28333 121.73 8.65C121.803 9.01667 121.95 9.25667 122.17 9.37C122.397 9.49 122.77 9.55 123.29 9.55Z" fill="black"/>
</svg>
