<?xml version="1.0" encoding="utf-8" ?>
<svg baseProfile="tiny" height="100%" version="1.2" width="100%" xmlns="http://www.w3.org/2000/svg" xmlns:ev="http://www.w3.org/2001/xml-events" xmlns:xlink="http://www.w3.org/1999/xlink"><defs /><g><path d="M63 1Q54 1 54 7Q56 15 49.5 20.0Q43 25 42 31Q41 34 41.0 49.5Q41 65 41.0 85.0Q41 105 41.0 121.0Q41 137 41 141Q41 151 40.5 163.0Q40 175 47 182Q54 189 68.0 189.5Q82 190 93 190Q105 190 113.5 191.0Q122 192 131 184Q134 181 138.5 183.5Q143 186 146 188Q151 186 164.0 185.0Q177 184 189.0 183.5Q201 183 202 183Q207 183 218.0 182.0Q229 181 230 185Q232 193 230.0 200.0Q228 207 228 218V322Q228 326 227.5 330.0Q227 334 225 336Q223 338 218.5 338.5Q214 339 210 340Q203 343 196.0 343.0Q189 343 181 335Q175 341 158.0 342.0Q141 343 125.5 341.5Q110 340 105 336Q104 335 100.0 335.5Q96 336 94 337Q85 344 70.5 341.0Q56 338 51 346Q44 356 42.5 364.0Q41 372 41 385V498Q41 503 41.5 508.0Q42 513 46 516Q50 520 46 522Q37 532 45 546Q55 562 44 578Q40 584 41.0 590.5Q42 597 43 603Q47 622 47.5 636.0Q48 650 42 663Q37 675 44.0 681.5Q51 688 60 695Q66 698 81 692Q86 698 90.5 694.0Q95 690 98 692Q100 694 105.0 695.0Q110 696 125.5 696.5Q141 697 174.5 697.0Q208 697 266.0 697.0Q324 697 414 697Q423 697 426 696H430Q441 696 444.0 694.0Q447 692 453 679Q457 672 452.5 660.0Q448 648 453 638Q456 633 452.5 630.5Q449 628 450 625Q452 619 456.0 611.0Q460 603 456 598Q453 592 451.0 579.0Q449 566 448.5 554.0Q448 542 448 538Q450 513 440.5 515.0Q431 517 409 528Q399 533 389.5 538.5Q380 544 375 554Q369 567 351.0 579.5Q333 592 321 596Q314 598 300.0 615.5Q286 633 269 646Q264 650 259.0 654.5Q254 659 252 663Q248 663 241 668Q231 665 215.5 666.0Q200 667 194 667H80Q73 667 74.5 664.0Q76 661 77 657Q78 653 76.0 648.5Q74 644 79 639Q81 638 80.5 632.5Q80 627 78 625Q72 618 73.0 613.0Q74 608 79 602Q83 594 78 587Q72 581 72.0 561.0Q72 541 71.5 522.0Q71 503 64 496Q63 495 64.0 491.5Q65 488 67 487Q71 483 68.0 480.0Q65 477 65 474Q65 464 68.0 464.0Q71 464 71 453Q71 444 71.5 434.5Q72 425 72 416Q72 407 70.5 398.0Q69 389 64 380Q62 376 69.0 370.0Q76 364 83 364H214Q222 364 238.5 365.5Q255 367 258 364Q261 362 263.5 360.5Q266 359 271 361Q291 369 310.5 369.0Q330 369 355.0 366.5Q380 364 414 364Q428 364 438.0 355.5Q448 347 448 334Q449 287 449.0 228.0Q449 169 448 122Q448 115 448.5 108.5Q449 102 443 97Q439 83 439.5 65.5Q440 48 442 34Q452 27 447.0 20.5Q442 14 440 8Q435 1 426.5 1.0Q418 1 410 1Q368 1 321.0 0.5Q274 0 232 1Q227 1 206.0 3.0Q185 5 162.5 5.5Q140 6 130 2Q127 1 117.0 0.5Q107 0 63 1ZM422 559Q423 597 422.5 610.5Q422 624 421.5 626.5Q421 629 421 633Q421 652 421.5 657.5Q422 663 411 664Q398 664 368.5 665.5Q339 667 286 667Q298 657 316.5 640.5Q335 624 356.0 606.5Q377 589 394.5 575.5Q412 562 422 559ZM237 450Q219 450 212.0 462.5Q205 475 205 482Q205 494 215.5 502.5Q226 511 245 511Q255 513 261.5 509.0Q268 505 274 497Q282 486 274 474Q267 467 257.5 458.5Q248 450 237 450ZM240 473Q247 473 250 480Q252 482 250 486Q246 490 243 489Q233 489 233 482Q233 481 234.5 477.0Q236 473 240 473ZM404 23Q414 23 414 32L419 154Q419 158 419.0 163.0Q419 168 421 171Q429 181 428.0 196.5Q427 212 422 225Q421 228 420.5 247.5Q420 267 420.0 290.5Q420 314 419 329Q405 339 385.0 339.0Q365 339 351 339L267 340Q254 340 254 330V231Q254 228 255.0 225.0Q256 222 256 220Q253 194 255.5 188.5Q258 183 257 172Q257 168 252.5 163.0Q248 158 245 158Q227 158 218.5 159.0Q210 160 198 160H84Q73 160 71.0 155.5Q69 151 69 141V43Q69 36 73.5 31.0Q78 26 88 29Q92 29 110.5 30.0Q129 31 152.0 31.5Q175 32 193.5 31.5Q212 31 215 29Q223 23 227.5 27.0Q232 31 237 30Q240 30 243.5 30.5Q247 31 249 29Q255 26 275.5 24.5Q296 23 321.5 22.5Q347 22 369.5 22.5Q392 23 404 23Z" transform="translate(0.0, 72) scale(0.072, -0.072)" /><path d="M335 -4Q316 -4 285.0 0.5Q254 5 223.0 6.0Q192 7 173 -2Q165 3 148.5 3.0Q132 3 115.5 1.5Q99 0 89 -1H76Q51 -1 40.5 6.5Q30 14 30 24Q30 46 59 67Q70 75 80.0 84.5Q90 94 102 104Q115 120 132.5 131.0Q150 142 166.5 151.5Q183 161 192 173Q210 195 234.0 208.5Q258 222 277 238Q295 253 312.5 268.0Q330 283 348 299Q357 307 370.0 314.5Q383 322 403 329Q412 339 423.5 342.5Q435 346 443.5 351.0Q452 356 452 370Q452 383 445.5 402.0Q439 421 420 421Q416 421 395.5 420.0Q375 419 354.5 417.5Q334 416 328 416Q319 416 309.5 417.5Q300 419 291 424Q286 426 278.0 425.5Q270 425 262 425Q244 423 238.5 423.5Q233 424 214 425Q207 425 200.5 423.5Q194 422 186 420Q167 417 160.5 416.0Q154 415 150 415Q140 415 131.0 419.5Q122 424 113 426Q109 427 109.5 433.0Q110 439 113 440Q122 442 126.5 447.0Q131 452 141 452Q147 452 173.5 451.5Q200 451 236.5 451.0Q273 451 309.0 451.0Q345 451 370.5 451.0Q396 451 400 452Q428 457 447.0 454.5Q466 452 470 444Q475 440 477.0 428.0Q479 416 479 404Q479 349 480.0 316.0Q481 283 482.0 261.0Q483 239 483.0 220.0Q483 201 482.5 175.5Q482 150 479 108Q478 101 478.0 94.0Q478 87 478 80Q478 70 479.0 61.5Q480 53 484 44Q480 27 474.5 15.0Q469 3 453 4Q434 5 426.0 4.0Q418 3 413.5 1.5Q409 0 401.5 -1.0Q394 -2 375 -2Q365 -2 355.0 -3.0Q345 -4 335 -4ZM172 26Q181 31 202.0 33.0Q223 35 247.5 34.5Q272 34 292.5 33.0Q313 32 322 32Q340 32 358.5 32.0Q377 32 395 33Q403 33 415.5 34.5Q428 36 438.0 44.0Q448 52 447 72Q446 93 446.0 127.0Q446 161 446.5 199.5Q447 238 448.5 272.0Q450 306 452 327Q443 312 423.0 304.5Q403 297 384.0 289.5Q365 282 357 266Q334 248 313.5 226.0Q293 204 266 194Q259 191 251.0 183.5Q243 176 236 169Q222 155 197.5 138.0Q173 121 150.0 106.0Q127 91 118 83Q115 81 107.5 72.5Q100 64 93.0 54.5Q86 45 84.5 38.0Q83 31 92 31Q99 31 115.0 32.0Q131 33 147.5 32.0Q164 31 172 26ZM316 99Q298 99 291.0 111.5Q284 124 284 131Q284 143 294.5 151.5Q305 160 324 160Q334 162 340.5 158.0Q347 154 353 146Q361 135 353 123Q346 116 336.5 107.5Q327 99 316 99ZM319 122Q326 122 329 129Q331 131 329 135Q325 139 322 138Q312 138 312 131Q312 130 313.5 126.0Q315 122 319 122Z" transform="translate(35.784, 72) scale(0.072, -0.072)" /><path d="M431 0Q424 0 418.5 5.5Q413 11 413 21V85Q413 90 415.0 94.5Q417 99 418 103Q419 107 419.5 110.0Q420 113 420 116Q420 127 416.0 135.5Q412 144 412 157Q412 165 413.0 182.5Q414 200 415.0 219.5Q416 239 417.0 254.5Q418 270 418 274Q412 285 412.5 297.0Q413 309 413 319Q413 326 413.0 347.0Q413 368 414 410Q414 412 398.0 410.5Q382 409 369 413Q368 414 358.5 414.0Q349 414 340.0 414.5Q331 415 329 415Q328 415 327 415Q312 386 296.0 358.0Q280 330 259.0 297.5Q238 265 208 221Q162 153 130.0 94.0Q98 35 78 9Q67 -5 52 2Q40 7 40 26Q40 31 41.0 39.0Q42 47 43 50Q45 55 47.0 66.0Q49 77 47 83Q45 87 43.5 94.5Q42 102 43 105Q49 143 50.5 174.0Q52 205 52 239V429Q52 435 58.5 441.5Q65 448 70 448Q72 448 97.5 448.5Q123 449 162.0 449.0Q201 449 245.0 449.5Q289 450 328.5 450.0Q368 450 394.5 450.0Q421 450 425 450Q450 450 450 426V22Q450 11 444.0 5.5Q438 0 431 0ZM86 164Q86 153 84.0 135.0Q82 117 80.5 99.0Q79 81 80 70Q86 84 100.5 107.0Q115 130 131.5 156.5Q148 183 162.0 206.0Q176 229 183 242Q187 249 196.5 261.0Q206 273 215.5 285.5Q225 298 227 304Q235 327 242.5 335.5Q250 344 257.5 352.0Q265 360 273 381Q274 382 279.5 392.5Q285 403 291 413Q286 417 281 417Q277 417 273.5 415.0Q270 413 266 411Q262 409 260 409Q253 409 246.5 414.0Q240 419 232 417Q229 417 215.5 414.5Q202 412 185.5 410.0Q169 408 157 408Q144 408 141 411Q137 413 131.0 416.5Q125 420 116 420Q111 420 104.5 418.0Q98 416 90 411Q86 408 84.0 403.0Q82 398 86 393Q93 383 93 373Q93 365 87 357Q93 344 93 333Q93 324 91.0 315.5Q89 307 88 297Q87 286 86.5 268.5Q86 251 86 230ZM314 151Q310 151 299.0 150.5Q288 150 278.0 152.0Q268 154 266 159Q265 167 263.5 177.0Q262 187 270 197Q274 204 286.0 213.5Q298 223 305 218Q325 209 325 178Q325 171 322.5 161.0Q320 151 314 151ZM299 175Q301 175 301.5 178.0Q302 181 302 183Q302 191 298 194Q296 196 292.5 192.5Q289 189 288 187Q286 185 286.0 182.5Q286 180 286 177Q287 175 292.5 175.0Q298 175 299 175Z" transform="translate(73.512, 72) scale(0.072, -0.072)" /><path d="M60 1Q40 -3 40 15Q40 16 40.0 31.5Q40 47 41 62Q41 68 42.5 74.0Q44 80 49 85Q53 89 48 93Q46 95 44.5 100.0Q43 105 42.5 122.0Q42 139 42.0 175.5Q42 212 42.5 275.0Q43 338 43.5 435.5Q44 533 45 674Q45 678 45.5 688.0Q46 698 51 698Q58 698 62.0 700.5Q66 703 72 696L80 658Q80 652 81.5 643.0Q83 634 78 628Q77 626 78.0 620.0Q79 614 79 609L76 566Q78 499 78.5 430.0Q79 361 77 310L76 243L107 257Q109 264 115.0 267.0Q121 270 126 274Q142 285 154 302Q160 309 169.0 313.5Q178 318 183 327Q185 329 187.5 328.5Q190 328 208 341Q217 349 233.0 361.5Q249 374 274 396Q282 403 290.0 410.5Q298 418 308 426Q321 436 328.5 444.5Q336 453 343.5 454.5Q351 456 364 443Q364 433 364.5 432.5Q365 432 363 430Q354 426 348.0 418.0Q342 410 334 405Q326 400 320.0 392.5Q314 385 307 380Q300 373 277.5 355.0Q255 337 226 314Q226 311 226 308L319 183Q321 175 332.5 166.0Q344 157 348 146Q349 144 357.0 132.5Q365 121 376.0 106.5Q387 92 395.5 81.0Q404 70 407 68Q413 64 416.0 60.0Q419 56 420 48Q418 39 427 35Q433 28 440.0 22.0Q447 16 446 7Q445 3 440.0 1.5Q435 0 428 0Q424 1 417.0 6.0Q410 11 393 35Q363 61 351.0 85.5Q339 110 326 123Q312 139 289.5 168.5Q267 198 243.0 231.5Q219 265 200 293Q160 261 124.0 231.5Q88 202 76 188Q75 179 74.5 153.5Q74 128 74.0 97.5Q74 67 72.5 41.0Q71 15 67 4Q66 3 63.5 2.0Q61 1 60 1ZM206 100Q196 90 181.5 98.0Q167 106 160 115Q154 123 154 131Q154 139 159.5 148.5Q165 158 172 159Q183 161 198.5 159.5Q214 158 214 143Q214 132 221.0 127.0Q228 122 220 114ZM193 120 197 124Q199 126 197.0 127.0Q195 128 195 132Q195 136 191.0 136.5Q187 137 184 136Q179 134 179 128Q179 125 181 124Q183 122 186.5 119.5Q190 117 193 120Z" transform="translate(108.792, 72) scale(0.072, -0.072)" /><path d="M172 -4Q167 -1 159.5 -1.0Q152 -1 144 -1Q140 0 121.5 0.0Q103 0 84.5 0.0Q66 0 61 0Q42 0 40 21V449Q79 449 126.5 449.5Q174 450 224.0 450.0Q274 450 319.5 449.5Q365 449 399 449Q404 449 408.5 447.0Q413 445 413 440V23Q413 19 412.5 14.5Q412 10 410 8Q403 4 396.5 0.5Q390 -3 383 -3Q366 -3 352.0 -5.0Q338 -7 324 3Q317 -7 311.0 -1.5Q305 4 298 2Q295 1 281.5 0.5Q268 0 250.5 -0.5Q233 -1 218.5 -0.5Q204 0 198 0Q191 1 185.5 -4.0Q180 -9 172 -4ZM249 25Q257 25 278.0 26.5Q299 28 326.5 29.5Q354 31 379 31Q381 35 381.0 52.0Q381 69 380.0 87.0Q379 105 379 109V236Q382 276 383.0 295.5Q384 315 383.5 327.5Q383 340 382.0 358.5Q381 377 381 414Q378 414 363.5 415.5Q349 417 338 418Q335 418 313.5 418.0Q292 418 264.5 417.0Q237 416 215.5 415.5Q194 415 190 415Q184 424 178.0 418.5Q172 413 161 415Q154 423 147.0 422.5Q140 422 132 422Q121 422 101.0 421.0Q81 420 70 418Q66 408 65.0 399.5Q64 391 70 384Q72 383 73.0 379.0Q74 375 72 374V312Q75 307 73 304Q63 294 71 279Q73 275 74.0 270.0Q75 265 75 260Q75 249 68 239Q63 232 67 228Q73 220 73 205Q73 194 73.0 169.5Q73 145 72.5 121.0Q72 97 72 86Q72 79 71.5 71.0Q71 63 69 42Q69 30 76 30Q88 30 111.0 30.0Q134 30 155.0 29.5Q176 29 179 26Q183 23 187 27Q192 32 196.0 30.0Q200 28 204 26Q208 25 213.5 28.5Q219 32 221 30Q228 25 235.0 25.0Q242 25 249 25ZM241 193Q231 183 216.5 191.0Q202 199 195 208Q189 216 189 224Q189 232 194.5 241.5Q200 251 207 252Q218 254 233.5 252.5Q249 251 249 236Q249 225 256.0 220.0Q263 215 255 207ZM228 213 232 217Q234 219 232.0 220.0Q230 221 230 225Q230 229 226.0 229.5Q222 230 219 229Q214 227 214 221Q214 218 216 217Q218 215 221.5 212.5Q225 210 228 213Z" transform="translate(140.904, 72) scale(0.072, -0.072)" /><path d="M35 0Q23 0 20.0 3.0Q17 6 11 16Q7 24 18.5 28.5Q30 33 39 33H122Q130 34 132.5 36.0Q135 38 135 45V260L140 285L135 316L139 335L135 420Q123 420 118.5 419.0Q114 418 108.0 416.5Q102 415 83 415Q75 415 67 412L34 420Q30 428 37.5 439.0Q45 450 55 450H135Q135 467 134.0 479.5Q133 492 128 497Q133 503 134.5 528.0Q136 553 136.5 584.0Q137 615 136.5 640.5Q136 666 136 673Q136 680 141.5 685.5Q147 691 154 692Q161 693 163.0 693.0Q165 693 171 698Q172 699 180.0 699.5Q188 700 210.5 700.0Q233 700 276 700Q287 700 290.0 698.0Q293 696 299 683Q303 676 290.0 670.0Q277 664 261 665Q254 665 251.5 664.5Q249 664 243.5 664.0Q238 664 223.5 664.0Q209 664 178 664Q166 664 167.5 657.0Q169 650 169 646V450H291Q298 450 304.5 443.0Q311 436 309 430Q308 425 302.0 420.0Q296 415 291 415Q282 414 269.5 414.0Q257 414 250 419Q239 428 231.0 426.0Q223 424 216.5 419.0Q210 414 201 414Q194 415 187.0 416.0Q180 417 174 418Q168 419 167 412Q166 408 166.0 399.5Q166 391 166 378Q166 374 163.5 372.5Q161 371 166 363Q168 360 164.5 356.5Q161 353 165 344Q167 340 165.5 333.5Q164 327 163 320Q161 296 164.0 279.5Q167 263 165 230Q164 220 163.0 209.5Q162 199 167 188Q167 188 163.5 180.5Q160 173 164 165Q170 152 164 138Q160 131 166.5 121.5Q173 112 169 104Q166 97 167.5 91.0Q169 85 166 79Q162 71 166.0 61.0Q170 51 169 42Q170 40 172.5 37.0Q175 34 177 34Q204 34 212.0 34.0Q220 34 223.0 34.0Q226 34 236.0 34.0Q246 34 276 34Q284 34 299.5 27.5Q315 21 313 16L301 1Q270 1 254.0 0.5Q238 0 225.0 0.0Q212 0 192.5 0.0Q173 0 136.5 0.0Q100 0 35 0Z" transform="translate(173.51999999999998, 72) scale(0.072, -0.072)" /><path d="M335 -4Q316 -4 285.0 0.5Q254 5 223.0 6.0Q192 7 173 -2Q165 3 148.5 3.0Q132 3 115.5 1.5Q99 0 89 -1H76Q51 -1 40.5 6.5Q30 14 30 24Q30 46 59 67Q70 75 80.0 84.5Q90 94 102 104Q115 120 132.5 131.0Q150 142 166.5 151.5Q183 161 192 173Q210 195 234.0 208.5Q258 222 277 238Q295 253 312.5 268.0Q330 283 348 299Q357 307 370.0 314.5Q383 322 403 329Q412 339 423.5 342.5Q435 346 443.5 351.0Q452 356 452 370Q452 383 445.5 402.0Q439 421 420 421Q416 421 395.5 420.0Q375 419 354.5 417.5Q334 416 328 416Q319 416 309.5 417.5Q300 419 291 424Q286 426 278.0 425.5Q270 425 262 425Q244 423 238.5 423.5Q233 424 214 425Q207 425 200.5 423.5Q194 422 186 420Q167 417 160.5 416.0Q154 415 150 415Q140 415 131.0 419.5Q122 424 113 426Q109 427 109.5 433.0Q110 439 113 440Q122 442 126.5 447.0Q131 452 141 452Q147 452 173.5 451.5Q200 451 236.5 451.0Q273 451 309.0 451.0Q345 451 370.5 451.0Q396 451 400 452Q428 457 447.0 454.5Q466 452 470 444Q475 440 477.0 428.0Q479 416 479 404Q479 349 480.0 316.0Q481 283 482.0 261.0Q483 239 483.0 220.0Q483 201 482.5 175.5Q482 150 479 108Q478 101 478.0 94.0Q478 87 478 80Q478 70 479.0 61.5Q480 53 484 44Q480 27 474.5 15.0Q469 3 453 4Q434 5 426.0 4.0Q418 3 413.5 1.5Q409 0 401.5 -1.0Q394 -2 375 -2Q365 -2 355.0 -3.0Q345 -4 335 -4ZM172 26Q181 31 202.0 33.0Q223 35 247.5 34.5Q272 34 292.5 33.0Q313 32 322 32Q340 32 358.5 32.0Q377 32 395 33Q403 33 415.5 34.5Q428 36 438.0 44.0Q448 52 447 72Q446 93 446.0 127.0Q446 161 446.5 199.5Q447 238 448.5 272.0Q450 306 452 327Q443 312 423.0 304.5Q403 297 384.0 289.5Q365 282 357 266Q334 248 313.5 226.0Q293 204 266 194Q259 191 251.0 183.5Q243 176 236 169Q222 155 197.5 138.0Q173 121 150.0 106.0Q127 91 118 83Q115 81 107.5 72.5Q100 64 93.0 54.5Q86 45 84.5 38.0Q83 31 92 31Q99 31 115.0 32.0Q131 33 147.5 32.0Q164 31 172 26ZM316 99Q298 99 291.0 111.5Q284 124 284 131Q284 143 294.5 151.5Q305 160 324 160Q334 162 340.5 158.0Q347 154 353 146Q361 135 353 123Q346 116 336.5 107.5Q327 99 316 99ZM319 122Q326 122 329 129Q331 131 329 135Q325 139 322 138Q312 138 312 131Q312 130 313.5 126.0Q315 122 319 122Z" transform="translate(196.77599999999998, 72) scale(0.072, -0.072)" /><path d="M59 -11Q48 -11 44.5 -8.5Q41 -6 41 4V137Q41 143 42.5 148.5Q44 154 48 158Q50 160 49.5 164.5Q49 169 49 173V243Q49 248 48.0 254.0Q47 260 44 265Q42 268 46.0 274.0Q50 280 50 286Q50 293 47.0 297.5Q44 302 44 307Q44 313 48 318L45 364Q50 369 46.5 377.0Q43 385 41 392Q39 397 44.5 401.0Q50 405 44 411Q42 414 41.5 428.5Q41 443 41.5 460.5Q42 478 43.5 491.5Q45 505 47 506Q40 519 40.0 541.0Q40 563 49 572Q49 579 50.0 585.5Q51 592 45 598Q40 605 41.0 610.5Q42 616 46 623Q55 635 48 649Q39 660 41.0 670.5Q43 681 49 696Q52 698 56.0 699.5Q60 701 64 698Q67 696 76.5 690.5Q86 685 94.5 678.0Q103 671 103 664Q104 660 112.5 659.0Q121 658 119 649Q196 600 233.0 571.5Q270 543 276 535Q281 528 289.0 523.5Q297 519 304 514Q344 481 376.0 459.0Q408 437 437 414Q445 408 453.5 401.5Q462 395 466 387Q470 381 481.5 372.5Q493 364 503.0 355.5Q513 347 513 340Q513 337 497.0 320.5Q481 304 461.0 286.0Q441 268 428 257Q425 255 400.0 237.0Q375 219 338.0 191.5Q301 164 259.5 133.5Q218 103 181.0 75.0Q144 47 119.5 28.5Q95 10 93 6Q89 0 82 -4Q76 -6 71.0 -9.0Q66 -12 59 -11ZM68 32Q69 29 71.5 29.0Q74 29 83 36Q91 44 104.0 53.5Q117 63 124 71Q129 76 149.5 91.5Q170 107 196.0 124.5Q222 142 242.5 156.5Q263 171 268 175Q275 179 286.5 190.0Q298 201 304 206Q310 211 317.5 216.0Q325 221 333 224Q339 227 343.5 234.0Q348 241 357 242Q391 265 416.0 286.0Q441 307 466 330Q474 338 473.0 342.5Q472 347 468 348Q463 351 454.5 355.5Q446 360 444 365Q443 370 435.5 371.0Q428 372 428 379Q427 381 423.5 387.0Q420 393 417 394Q395 403 383.0 410.5Q371 418 353 431Q349 440 334.0 453.5Q319 467 300.0 481.5Q281 496 265.5 507.5Q250 519 245 523Q244 524 229.5 534.0Q215 544 194.0 559.0Q173 574 150.5 590.0Q128 606 109.5 620.0Q91 634 83 641Q80 644 78.0 638.0Q76 632 76 626Q75 575 75.0 529.5Q75 484 75 431Q75 425 81 417Q83 415 80 410Q77 408 76.0 395.0Q75 382 75.0 366.0Q75 350 75.5 337.5Q76 325 76 322L75 84Q75 79 71.0 73.0Q67 67 75 61Q76 60 73 55Q71 51 69.0 44.0Q67 37 68 32ZM221 304Q203 304 196.0 316.5Q189 329 189 336Q189 348 199.5 356.5Q210 365 229 365Q246 366 258 351Q266 340 258 328Q251 320 241.5 312.0Q232 304 221 304ZM224 327Q230 327 234 333Q236 335 234 339Q231 343 227 342Q217 342 217 335Q217 334 218.5 330.5Q220 327 224 327Z" transform="translate(248.90399999999997, 72) scale(0.072, -0.072)" /><path d="M254 -1Q238 1 231.5 1.0Q225 1 219 1H152L57 0Q41 0 34.5 4.0Q28 8 27 13Q26 19 29.5 24.5Q33 30 34 31Q41 33 73.5 31.0Q106 29 151 31Q154 31 156.5 32.0Q159 33 155 38Q152 43 153.5 51.5Q155 60 155 66Q155 73 153.0 80.0Q151 87 153 94Q155 101 157.5 106.5Q160 112 160 119V392Q160 400 158.0 408.5Q156 417 151 418Q140 422 120 422Q104 422 87.0 420.5Q70 419 57 419Q53 419 45.0 419.0Q37 419 32 421Q28 423 23.5 428.0Q19 433 20 435Q25 450 40 450H325Q334 448 334 433Q334 426 318.0 420.0Q302 414 285 414Q280 414 275.5 415.5Q271 417 267 418Q259 411 250 411L215 418Q203 418 197.0 408.5Q191 399 191 387V370Q189 356 187.0 342.5Q185 329 186 312Q188 304 189.5 294.5Q191 285 194 275Q194 263 192.0 250.5Q190 238 194 223Q196 217 193.5 210.5Q191 204 191 204Q187 197 191.0 191.0Q195 185 194 177Q193 170 191.5 162.0Q190 154 193 150Q198 143 195.0 134.5Q192 126 192 108Q192 108 191.0 84.5Q190 61 190 35Q190 35 195.0 33.0Q200 31 215 31H325Q329 31 332.0 25.5Q335 20 334 14Q334 10 323.0 7.0Q312 4 297.0 2.0Q282 0 269.5 -0.5Q257 -1 254 -1ZM177 482Q163 482 151.5 488.0Q140 494 137 502Q135 508 137.0 522.5Q139 537 153 544Q162 551 172.0 554.5Q182 558 189 553Q194 549 201.0 545.5Q208 542 214 539Q226 530 220 519Q213 506 204.5 494.0Q196 482 177 482Z" transform="translate(285.84, 72) scale(0.072, -0.072)" /><path d="M114 -2Q109 0 103.5 -1.5Q98 -3 93 -1Q85 1 80 1Q76 1 71.0 0.5Q66 0 61 0Q40 3 40 15Q39 22 46.5 27.0Q54 32 67 30Q80 30 92 36Q101 36 107 30Q108 29 110.0 29.5Q112 30 113 30Q131 37 143 37Q176 36 194.5 35.0Q213 34 227.5 33.5Q242 33 260.5 32.5Q279 32 312 32Q320 38 330.5 38.5Q341 39 348 39H352V206Q340 205 313.5 204.5Q287 204 254.0 204.5Q221 205 188.0 206.0Q155 207 129.5 207.5Q104 208 93 208Q70 208 61.0 213.0Q52 218 48 243Q48 293 47.0 316.5Q46 340 46 352Q46 363 48.0 373.0Q50 383 55 393Q58 396 55 398Q52 404 49.5 415.5Q47 427 47.5 437.5Q48 448 53 450Q61 453 75 453Q88 453 100.0 451.5Q112 450 113 450Q133 453 143 453Q155 453 171 450Q189 450 192.0 450.0Q195 450 198.0 450.0Q201 450 219 450Q256 449 275.5 449.0Q295 449 311 449Q322 453 338 453H350Q355 452 359.5 451.5Q364 451 369 450Q377 449 384.5 445.5Q392 442 384 433Q377 426 371.0 418.5Q365 411 359 403Q337 387 306.0 365.5Q275 344 240.5 321.0Q206 298 175.0 276.5Q144 255 122 238Q193 238 243.0 236.5Q293 235 297 235Q314 243 330.5 244.0Q347 245 365 238Q370 236 374.5 233.5Q379 231 381 228L383 217L385 201Q385 187 386.5 155.5Q388 124 388 95Q388 63 384.0 37.0Q380 11 366 9Q356 8 347.0 4.5Q338 1 328 1Q318 1 315.0 1.5Q312 2 301 2L139 -1Q133 7 127.0 2.0Q121 -3 114 -2ZM82 247Q100 260 129.0 281.0Q158 302 189.0 323.5Q220 345 244.0 360.0Q268 375 276 376Q286 388 304.0 401.0Q322 414 329 421H139Q132 429 126.0 423.5Q120 418 113 420Q109 422 98.0 425.0Q87 428 82 429Q82 423 81.5 403.0Q81 383 81.0 356.5Q81 330 81.0 305.0Q81 280 81.0 263.5Q81 247 82 247ZM238 96Q220 83 194 98Q187 102 179.5 108.5Q172 115 175 121Q177 125 182.0 134.5Q187 144 193.5 152.0Q200 160 205 159Q213 156 222.5 152.5Q232 149 237 137Q241 130 243.5 115.5Q246 101 238 96ZM221 114Q223 116 222.0 120.5Q221 125 219 126Q218 129 211 133Q209 133 206.5 128.0Q204 123 203 122Q202 121 204.5 119.0Q207 117 209 116Q212 115 215.0 114.0Q218 113 221 114Z" transform="translate(311.328, 72) scale(0.072, -0.072)" /><path d="M55 -200Q50 -199 45.5 -195.0Q41 -191 41 -181V69Q41 85 48 96Q43 102 41.5 108.5Q40 115 40 122L42 419V446Q42 449 46.0 455.0Q50 461 69 461L109 457Q115 456 121.5 455.5Q128 455 134 450Q138 447 144.5 448.0Q151 449 156 449H374Q379 449 385.0 449.0Q391 449 396 448Q402 448 407.5 442.5Q413 437 413 430V269Q413 264 408.5 259.5Q404 255 411 248Q416 244 411.5 239.5Q407 235 407 230Q406 208 406.0 184.5Q406 161 406 138Q418 125 407 113Q411 107 412.5 101.0Q414 95 407 88Q415 80 410.0 68.5Q405 57 405 43Q407 36 401.5 31.0Q396 26 390 25Q387 22 381 27Q374 31 351.5 53.5Q329 76 297.5 109.0Q266 142 232.0 178.0Q198 214 167.5 246.5Q137 279 117 300Q111 306 99.0 321.5Q87 337 75 356Q65 348 71.0 341.5Q77 335 75 329Q73 322 69.5 312.5Q66 303 71 298Q80 286 73 274Q66 265 67.0 254.5Q68 244 68 233Q76 225 76 213L75 -54Q75 -59 75.0 -64.0Q75 -69 76 -74Q76 -80 73.0 -85.0Q70 -90 69 -94Q69 -99 71.5 -103.0Q74 -107 69 -112Q66 -115 70.5 -122.5Q75 -130 75 -135Q76 -139 76.0 -151.0Q76 -163 76.0 -174.5Q76 -186 75 -190Q71 -200 55 -200ZM375 72Q375 77 378.5 95.0Q382 113 383 119Q384 123 384.5 128.0Q385 133 383 135Q376 147 381 156Q374 163 373.0 178.0Q372 193 371 200Q370 207 372.5 212.0Q375 217 376 223Q369 231 375.5 237.5Q382 244 379 253Q378 257 377.5 267.0Q377 277 377.5 307.5Q378 338 378 404Q378 415 370 415H125Q118 415 111.5 416.5Q105 418 99 422Q96 425 88.5 424.0Q81 423 77.0 418.5Q73 414 81 405Q85 401 96.5 386.5Q108 372 120.0 356.0Q132 340 134 332Q136 326 143.0 317.0Q150 308 155 303Q209 247 263.5 189.5Q318 132 375 72ZM292 282Q282 272 267.5 280.0Q253 288 246 297Q240 305 240 313Q240 321 245.5 330.5Q251 340 258 341Q269 343 284.5 341.5Q300 340 300 325Q300 314 307.0 309.0Q314 304 306 296ZM279 302 283 306Q285 308 283.0 309.0Q281 310 281 314Q281 318 277.0 318.5Q273 319 270 318Q265 316 265 310Q265 307 267 306Q269 304 272.5 301.5Q276 299 279 302Z" transform="translate(342.14399999999995, 72) scale(0.072, -0.072)" /><path d="M66 -10Q59 -9 53.5 -3.5Q48 2 47 9Q47 15 47.0 31.0Q47 47 47.5 65.5Q48 84 48.0 99.5Q48 115 48 121Q48 129 46.5 140.5Q45 152 40 181Q45 201 46.5 226.5Q48 252 48 272Q48 279 48.0 289.0Q48 299 47.5 321.0Q47 343 47 385Q47 406 49.5 423.0Q52 440 47 447Q43 454 43.0 464.5Q43 475 45.0 484.0Q47 493 47 493Q47 498 49.0 504.5Q51 511 47 515Q41 521 44.0 533.5Q47 546 47 557Q47 564 50.5 571.5Q54 579 47 586Q47 586 49.0 596.5Q51 607 47 618Q46 622 47.5 626.0Q49 630 47 633Q43 639 45.0 647.0Q47 655 47 662Q47 680 51.5 690.5Q56 701 74 698Q84 688 84.0 676.5Q84 665 81.0 655.5Q78 646 78 640V51Q78 44 85 42L201 119Q230 142 245.5 148.5Q261 155 266 146Q271 139 266.0 137.0Q261 135 261 126Q261 109 249.5 106.5Q238 104 228 96Q207 79 181.0 60.0Q155 41 130.0 25.0Q105 9 87.5 -0.5Q70 -10 66 -10Z" transform="translate(374.75999999999993, 72) scale(0.072, -0.072)" /><path d="M335 -4Q316 -4 285.0 0.5Q254 5 223.0 6.0Q192 7 173 -2Q165 3 148.5 3.0Q132 3 115.5 1.5Q99 0 89 -1H76Q51 -1 40.5 6.5Q30 14 30 24Q30 46 59 67Q70 75 80.0 84.5Q90 94 102 104Q115 120 132.5 131.0Q150 142 166.5 151.5Q183 161 192 173Q210 195 234.0 208.5Q258 222 277 238Q295 253 312.5 268.0Q330 283 348 299Q357 307 370.0 314.5Q383 322 403 329Q412 339 423.5 342.5Q435 346 443.5 351.0Q452 356 452 370Q452 383 445.5 402.0Q439 421 420 421Q416 421 395.5 420.0Q375 419 354.5 417.5Q334 416 328 416Q319 416 309.5 417.5Q300 419 291 424Q286 426 278.0 425.5Q270 425 262 425Q244 423 238.5 423.5Q233 424 214 425Q207 425 200.5 423.5Q194 422 186 420Q167 417 160.5 416.0Q154 415 150 415Q140 415 131.0 419.5Q122 424 113 426Q109 427 109.5 433.0Q110 439 113 440Q122 442 126.5 447.0Q131 452 141 452Q147 452 173.5 451.5Q200 451 236.5 451.0Q273 451 309.0 451.0Q345 451 370.5 451.0Q396 451 400 452Q428 457 447.0 454.5Q466 452 470 444Q475 440 477.0 428.0Q479 416 479 404Q479 349 480.0 316.0Q481 283 482.0 261.0Q483 239 483.0 220.0Q483 201 482.5 175.5Q482 150 479 108Q478 101 478.0 94.0Q478 87 478 80Q478 70 479.0 61.5Q480 53 484 44Q480 27 474.5 15.0Q469 3 453 4Q434 5 426.0 4.0Q418 3 413.5 1.5Q409 0 401.5 -1.0Q394 -2 375 -2Q365 -2 355.0 -3.0Q345 -4 335 -4ZM172 26Q181 31 202.0 33.0Q223 35 247.5 34.5Q272 34 292.5 33.0Q313 32 322 32Q340 32 358.5 32.0Q377 32 395 33Q403 33 415.5 34.5Q428 36 438.0 44.0Q448 52 447 72Q446 93 446.0 127.0Q446 161 446.5 199.5Q447 238 448.5 272.0Q450 306 452 327Q443 312 423.0 304.5Q403 297 384.0 289.5Q365 282 357 266Q334 248 313.5 226.0Q293 204 266 194Q259 191 251.0 183.5Q243 176 236 169Q222 155 197.5 138.0Q173 121 150.0 106.0Q127 91 118 83Q115 81 107.5 72.5Q100 64 93.0 54.5Q86 45 84.5 38.0Q83 31 92 31Q99 31 115.0 32.0Q131 33 147.5 32.0Q164 31 172 26ZM316 99Q298 99 291.0 111.5Q284 124 284 131Q284 143 294.5 151.5Q305 160 324 160Q334 162 340.5 158.0Q347 154 353 146Q361 135 353 123Q346 116 336.5 107.5Q327 99 316 99ZM319 122Q326 122 329 129Q331 131 329 135Q325 139 322 138Q312 138 312 131Q312 130 313.5 126.0Q315 122 319 122Z" transform="translate(394.0559999999999, 72) scale(0.072, -0.072)" /><path d="M141 -201Q132 -201 132 -191Q132 -184 136.0 -178.0Q140 -172 143 -165Q145 -163 145.0 -154.5Q145 -146 145 -145Q145 -140 147.0 -136.0Q149 -132 152 -127Q155 -124 161.0 -112.5Q167 -101 172.0 -89.0Q177 -77 178 -74Q179 -63 189.5 -52.0Q200 -41 199 -33L206 -12Q202 -4 198.5 4.0Q195 12 192 18Q176 44 168.0 65.5Q160 87 140 111Q139 124 132.5 143.5Q126 163 118.5 182.0Q111 201 106 212Q98 229 88.5 245.5Q79 262 74 279Q70 294 60.5 315.5Q51 337 41.0 358.5Q31 380 24.0 396.0Q17 412 17 416Q17 428 13.5 435.5Q10 443 10 446Q10 451 18.0 452.0Q26 453 51 453Q87 452 143.5 451.0Q200 450 263 450Q298 450 333.5 450.5Q369 451 403 453Q417 453 426.5 451.0Q436 449 438 444Q442 437 442 428Q442 415 435.0 402.0Q428 389 421.0 375.5Q414 362 414 348Q414 343 410 341Q400 331 394.5 319.0Q389 307 384 295Q376 276 362.0 246.5Q348 217 333.0 184.0Q318 151 305.5 121.5Q293 92 287 73Q282 58 269.5 34.5Q257 11 246.5 -7.5Q236 -26 236 -26Q236 -26 236.0 -26.0Q236 -26 236 -26Q230 -38 220.0 -59.5Q210 -81 205 -90Q199 -101 194.0 -116.5Q189 -132 175 -155Q166 -183 157.5 -192.0Q149 -201 141 -201ZM224 22Q228 28 239.0 52.0Q250 76 264.5 109.0Q279 142 293.5 176.0Q308 210 320.0 236.5Q332 263 338 273Q354 298 366.0 324.5Q378 351 393 376Q398 384 397.0 397.5Q396 411 405 421Q395 419 376.5 417.0Q358 415 341 415Q333 415 326.0 415.5Q319 416 314 417Q290 423 266 423Q251 423 226.5 422.5Q202 422 175.5 422.0Q149 422 128.0 422.0Q107 422 99 422Q97 423 87 423Q77 423 64.5 422.0Q52 421 49 422Q49 406 59.5 391.0Q70 376 74 362Q77 350 82.0 339.5Q87 329 91 318Q94 308 99.5 301.5Q105 295 106 284Q106 277 113.5 261.0Q121 245 129.5 228.5Q138 212 141 205Q145 198 156.0 173.5Q167 149 180.5 118.5Q194 88 206.0 61.5Q218 35 224 22ZM238 246Q205 246 202 249Q197 255 194.0 262.5Q191 270 188 277Q186 282 195.0 291.0Q204 300 211 301Q217 302 221.0 305.5Q225 309 234 306Q245 301 250.5 293.0Q256 285 260 276Q262 272 252.5 259.0Q243 246 238 246ZM228 268Q230 268 233.0 272.0Q236 276 235 277Q233 280 231.5 282.5Q230 285 227 286Q224 288 223.0 286.5Q222 285 220 285Q218 284 215.0 282.0Q212 280 213 278Q215 274 218 270Q219 268 228 268Z" transform="translate(431.78399999999993, 72) scale(0.072, -0.072)" /></g></svg>