<svg width="99" height="11" viewBox="0 0 99 11" fill="none" xmlns="http://www.w3.org/2000/svg">
<path d="M3.23 10.87C2.65 10.87 2.15667 10.7833 1.75 10.61C1.35 10.4367 1.04 10.1967 0.82 9.89C0.606667 9.58333 0.5 9.22333 0.5 8.81C0.5 8.46333 0.57 8.16333 0.71 7.91C0.843333 7.66333 1.02667 7.46667 1.26 7.32C1.49333 7.17333 1.75333 7.1 2.04 7.1C2.24667 7.1 2.42667 7.13667 2.58 7.21C2.73333 7.29 2.85 7.39333 2.93 7.52C3.01 7.64 3.05 7.79 3.05 7.97C3.05 8.01667 3.04667 8.06667 3.04 8.12C3.02667 8.18 3.01667 8.23333 3.01 8.28C2.97 8.26 2.92333 8.24667 2.87 8.24C2.82333 8.24 2.77667 8.24 2.73 8.24C2.54333 8.24 2.38333 8.30333 2.25 8.43C2.12333 8.55 2.06 8.73667 2.06 8.99C2.06 9.31667 2.19 9.56333 2.45 9.73C2.71667 9.89 3.04667 9.97 3.44 9.97C3.74 9.97 4.02 9.91 4.28 9.79C4.54 9.67 4.75333 9.49333 4.92 9.26C5.08 9.02667 5.16 8.73667 5.16 8.39C5.16 8.10333 5.09 7.84333 4.95 7.61C4.80333 7.37667 4.62 7.15667 4.4 6.95C4.18 6.74333 3.94333 6.54333 3.69 6.35C3.41 6.12333 3.14 5.89 2.88 5.65C2.62 5.41667 2.40333 5.14333 2.23 4.83C2.05667 4.52333 1.97 4.16667 1.97 3.76C1.97 3.32667 2.06333 2.94 2.25 2.6C2.43667 2.26 2.68667 1.97667 3 1.75C3.31333 1.51667 3.67333 1.34 4.08 1.22C4.48667 1.1 4.91 1.04 5.35 1.04C5.81667 1.04 6.22 1.10333 6.56 1.23C6.90667 1.35667 7.17667 1.53667 7.37 1.77C7.56333 2.00333 7.66 2.27667 7.66 2.59C7.66 2.88333 7.60333 3.14 7.49 3.36C7.37667 3.58667 7.22333 3.76333 7.03 3.89C6.84333 4.01667 6.63333 4.08 6.4 4.08C6.22 4.08 6.06333 4.05 5.93 3.99C5.80333 3.93667 5.71 3.86333 5.65 3.77C5.76333 3.70333 5.86667 3.58667 5.96 3.42C6.05333 3.25333 6.1 3.07 6.1 2.87C6.1 2.58333 6.01333 2.35333 5.84 2.18C5.66 2.00667 5.37 1.92 4.97 1.92C4.55667 1.92 4.21333 2.04333 3.94 2.29C3.66667 2.53 3.53 2.85667 3.53 3.27C3.53 3.55667 3.60333 3.82 3.75 4.06C3.89667 4.29333 4.09 4.51333 4.33 4.72C4.57 4.92 4.81667 5.11667 5.07 5.31C5.35 5.51667 5.61667 5.74 5.87 5.98C6.13 6.22667 6.34 6.50333 6.5 6.81C6.66667 7.12333 6.75 7.49 6.75 7.91C6.75 8.37667 6.64667 8.79667 6.44 9.17C6.24 9.53667 5.97 9.84667 5.63 10.1C5.29 10.3533 4.91 10.5433 4.49 10.67C4.07 10.8033 3.65 10.87 3.23 10.87ZM9.88 10.84C9.40667 10.84 9.02333 10.7267 8.73 10.5C8.43667 10.2667 8.22 9.95333 8.08 9.56C7.94667 9.16 7.88 8.70333 7.88 8.19C7.88 7.50333 7.97333 6.85333 8.16 6.24C8.34667 5.62667 8.61667 5.08667 8.97 4.62C9.31667 4.15333 9.72333 3.79 10.19 3.53C10.6567 3.27 11.17 3.14 11.73 3.14C12.19 3.14 12.67 3.23667 13.17 3.43L14.59 3.25L13.47 9.1C13.4567 9.18667 13.44 9.28667 13.42 9.4C13.4067 9.51333 13.4 9.61 13.4 9.69C13.4 9.83 13.4333 9.94333 13.5 10.03C13.5733 10.11 13.6833 10.1567 13.83 10.17C13.7833 10.33 13.7067 10.4567 13.6 10.55C13.4933 10.65 13.3733 10.7233 13.24 10.77C13.1 10.8167 12.9467 10.84 12.78 10.84C12.5267 10.84 12.3133 10.7733 12.14 10.64C11.96 10.5 11.8567 10.3 11.83 10.04C11.5833 10.2733 11.2967 10.4667 10.97 10.62C10.6367 10.7667 10.2733 10.84 9.88 10.84ZM10.5 10C10.8533 10 11.14 9.88333 11.36 9.65C11.58 9.41667 11.7533 9.12333 11.88 8.77C12.0133 8.42333 12.1133 8.08667 12.18 7.76L12.79 4.41C12.6033 4.26333 12.41 4.15333 12.21 4.08C12.01 4.01333 11.8267 3.98 11.66 3.98C11.3733 3.98 11.1133 4.06333 10.88 4.23C10.6533 4.39667 10.4533 4.62667 10.28 4.92C10.1067 5.20667 9.96333 5.54333 9.85 5.93C9.73 6.31 9.64333 6.71667 9.59 7.15C9.53 7.58333 9.5 8.02 9.5 8.46C9.5 8.88667 9.57 9.25 9.71 9.55C9.85 9.85 10.1133 10 10.5 10ZM20.42 10.84C20.1333 10.84 19.9033 10.76 19.73 10.6C19.5567 10.4333 19.47 10.1633 19.47 9.79C19.47 9.58333 19.5 9.31667 19.56 8.99C19.62 8.66333 19.6933 8.31667 19.78 7.95C19.8667 7.58333 19.95 7.21667 20.03 6.85C20.1167 6.48333 20.19 6.15333 20.25 5.86C20.31 5.56667 20.34 5.33667 20.34 5.17C20.34 4.86333 20.26 4.62667 20.1 4.46C19.94 4.3 19.73 4.22 19.47 4.22C19.11 4.22 18.8033 4.34667 18.55 4.6C18.2967 4.84667 18.09 5.16 17.93 5.54C17.77 5.92 17.6533 6.29667 17.58 6.67L16.83 10.56L15.23 10.73L16.66 3.42L17.99 3.25L17.82 4.51C18.0733 4.06333 18.41 3.72333 18.83 3.49C19.25 3.25667 19.6933 3.14 20.16 3.14C20.7267 3.14 21.16 3.28667 21.46 3.58C21.76 3.87333 21.91 4.28667 21.91 4.82C21.91 5.08 21.88 5.38333 21.82 5.73C21.7667 6.07667 21.6967 6.44333 21.61 6.83C21.5167 7.21667 21.43 7.59333 21.35 7.96C21.2633 8.32 21.19 8.65 21.13 8.95C21.07 9.25 21.04 9.48333 21.04 9.65C21.04 9.79 21.0667 9.90667 21.12 10C21.18 10.0933 21.2933 10.15 21.46 10.17C21.4067 10.4033 21.28 10.5733 21.08 10.68C20.8867 10.7867 20.6667 10.84 20.42 10.84ZM24.92 10.87C24.62 10.87 24.3267 10.84 24.04 10.78C23.76 10.72 23.5033 10.6267 23.27 10.5C23.0367 10.38 22.85 10.2267 22.71 10.04C22.5767 9.85333 22.51 9.64 22.51 9.4C22.51 9.12667 22.58 8.91667 22.72 8.77C22.86 8.61667 23.0267 8.50667 23.22 8.44C23.4067 8.36667 23.59 8.33 23.77 8.33C23.87 8.33 23.9733 8.34333 24.08 8.37C24.18 8.39 24.2633 8.44 24.33 8.52C24.2833 8.64667 24.24 8.77 24.2 8.89C24.1667 9.00333 24.15 9.13667 24.15 9.29C24.1567 9.52333 24.25 9.71 24.43 9.85C24.6033 9.99667 24.8467 10.07 25.16 10.07C25.4933 10.07 25.7733 9.98 26 9.8C26.2333 9.61333 26.35 9.37667 26.35 9.09C26.35 8.85 26.2833 8.63333 26.15 8.44C26.0167 8.24667 25.8467 8.07 25.64 7.91C25.4267 7.74333 25.21 7.58 24.99 7.42C24.7367 7.24667 24.49 7.06 24.25 6.86C24.0033 6.66 23.8033 6.43 23.65 6.17C23.4967 5.91667 23.42 5.61 23.42 5.25C23.42 4.91 23.51 4.60667 23.69 4.34C23.8633 4.07333 24.0967 3.85 24.39 3.67C24.6767 3.49667 25 3.36333 25.36 3.27C25.72 3.18333 26.0767 3.14 26.43 3.14C26.7567 3.14 27.08 3.18333 27.4 3.27C27.7267 3.35 27.9967 3.49 28.21 3.69C28.4233 3.89 28.5267 4.16333 28.52 4.51C28.52 4.87667 28.4033 5.15667 28.17 5.35C27.9433 5.55 27.6933 5.65 27.42 5.65C27.32 5.65 27.21 5.63667 27.09 5.61C26.97 5.59 26.8633 5.54 26.77 5.46C26.83 5.34 26.8767 5.21667 26.91 5.09C26.9433 4.95667 26.96 4.82333 26.96 4.69C26.96 4.45 26.88 4.26333 26.72 4.13C26.5533 3.99 26.32 3.92 26.02 3.92C25.7267 3.92 25.4733 4.00333 25.26 4.17C25.0533 4.33 24.95 4.55667 24.95 4.85C24.95 5.05667 25 5.24333 25.1 5.41C25.2 5.57667 25.3367 5.73333 25.51 5.88C25.6767 6.03333 25.8567 6.18 26.05 6.32C26.3433 6.51333 26.63 6.71667 26.91 6.93C27.1967 7.13667 27.4367 7.37667 27.63 7.65C27.8167 7.91667 27.9067 8.24667 27.9 8.64C27.9 9.1 27.7567 9.49667 27.47 9.83C27.19 10.1567 26.82 10.4133 26.36 10.6C25.9 10.78 25.42 10.87 24.92 10.87ZM30.04 10.84C29.74 10.84 29.5067 10.7567 29.34 10.59C29.1733 10.4233 29.09 10.19 29.09 9.89C29.09 9.77667 29.1 9.64 29.12 9.48C29.14 9.32 29.1633 9.15667 29.19 8.99C29.2167 8.81667 29.2467 8.65333 29.28 8.5C29.3133 8.34 29.34 8.20667 29.36 8.1L30.31 3.42L31.9 3.25L30.73 9.1C30.7167 9.18 30.7033 9.27667 30.69 9.39C30.67 9.51 30.66 9.61 30.66 9.69C30.66 9.83 30.6933 9.94333 30.76 10.03C30.8333 10.11 30.94 10.1567 31.08 10.17C31.02 10.4033 30.89 10.5733 30.69 10.68C30.49 10.7867 30.2733 10.84 30.04 10.84ZM31.46 2.19C31.16 2.19 30.91 2.11667 30.71 1.97C30.5167 1.82333 30.42 1.60667 30.42 1.32C30.42 1.01333 30.5233 0.786667 30.73 0.64C30.9367 0.493333 31.1867 0.42 31.48 0.42C31.78 0.42 32.03 0.493333 32.23 0.64C32.4233 0.786667 32.52 1.00333 32.52 1.29C32.52 1.59667 32.4167 1.82333 32.21 1.97C32.0033 2.11667 31.7533 2.19 31.46 2.19ZM34.1 10.85C33.84 10.85 33.6133 10.7667 33.42 10.6C33.22 10.4333 33.12 10.19 33.12 9.87C33.12 9.68333 33.15 9.42 33.21 9.08C33.2633 8.74 33.3267 8.38 33.4 8C33.4733 7.61333 33.55 7.24667 33.63 6.9C33.71 6.54667 33.77 6.26333 33.81 6.05L34.21 4.05H33.22L33.28 3.63C33.7267 3.46333 34.17 3.24 34.61 2.96C35.0433 2.68 35.43 2.37 35.77 2.03H36.2L35.92 3.42H37.01L36.89 4.05H35.78L34.82 8.81C34.7867 8.95667 34.7633 9.09 34.75 9.21C34.73 9.32333 34.7133 9.43333 34.7 9.54C34.6933 9.79333 34.74 9.96667 34.84 10.06C34.9467 10.16 35.1333 10.1833 35.4 10.13C35.32 10.3033 35.2167 10.4433 35.09 10.55C34.9633 10.65 34.8167 10.7267 34.65 10.78C34.4833 10.8267 34.3 10.85 34.1 10.85ZM38.97 10.84C38.4967 10.84 38.1133 10.7267 37.82 10.5C37.5267 10.2667 37.3133 9.95333 37.18 9.56C37.04 9.16 36.97 8.70333 36.97 8.19C36.97 7.50333 37.0633 6.85333 37.25 6.24C37.4367 5.62667 37.7067 5.08667 38.06 4.62C38.4067 4.15333 38.8133 3.79 39.28 3.53C39.7467 3.27 40.26 3.14 40.82 3.14C41.28 3.14 41.76 3.23667 42.26 3.43L43.68 3.25L42.56 9.1C42.5467 9.18667 42.5333 9.28667 42.52 9.4C42.5 9.51333 42.49 9.61 42.49 9.69C42.49 9.83 42.5233 9.94333 42.59 10.03C42.6633 10.11 42.7733 10.1567 42.92 10.17C42.8733 10.33 42.7967 10.4567 42.69 10.55C42.5833 10.65 42.4633 10.7233 42.33 10.77C42.19 10.8167 42.0367 10.84 41.87 10.84C41.6167 10.84 41.4033 10.7733 41.23 10.64C41.05 10.5 40.9467 10.3 40.92 10.04C40.68 10.2733 40.3933 10.4667 40.06 10.62C39.7267 10.7667 39.3633 10.84 38.97 10.84ZM39.59 10C39.9433 10 40.23 9.88333 40.45 9.65C40.67 9.41667 40.8467 9.12333 40.98 8.77C41.1067 8.42333 41.2033 8.08667 41.27 7.76L41.89 4.41C41.7033 4.26333 41.51 4.15333 41.31 4.08C41.1033 4.01333 40.9167 3.98 40.75 3.98C40.4633 3.98 40.2067 4.06333 39.98 4.23C39.7467 4.39667 39.5433 4.62667 39.37 4.92C39.1967 5.20667 39.0533 5.54333 38.94 5.93C38.82 6.31 38.7333 6.71667 38.68 7.15C38.6267 7.58333 38.6 8.02 38.6 8.46C38.6 8.88667 38.67 9.25 38.81 9.55C38.95 9.85 39.21 10 39.59 10ZM49.01 10.87C48.43 10.87 47.94 10.7833 47.54 10.61C47.1333 10.4367 46.82 10.1967 46.6 9.89C46.3867 9.58333 46.28 9.22333 46.28 8.81C46.28 8.46333 46.3467 8.16333 46.48 7.91C46.62 7.66333 46.8067 7.46667 47.04 7.32C47.2733 7.17333 47.5333 7.1 47.82 7.1C48.0267 7.1 48.2067 7.13667 48.36 7.21C48.5133 7.29 48.63 7.39333 48.71 7.52C48.79 7.64 48.83 7.79 48.83 7.97C48.83 8.01667 48.8267 8.06667 48.82 8.12C48.8067 8.18 48.7967 8.23333 48.79 8.28C48.75 8.26 48.7067 8.24667 48.66 8.24C48.6067 8.24 48.5567 8.24 48.51 8.24C48.3233 8.24 48.1633 8.30333 48.03 8.43C47.9033 8.55 47.84 8.73667 47.84 8.99C47.84 9.31667 47.97 9.56333 48.23 9.73C48.4967 9.89 48.8267 9.97 49.22 9.97C49.52 9.97 49.8 9.91 50.06 9.79C50.32 9.67 50.5333 9.49333 50.7 9.26C50.86 9.02667 50.94 8.73667 50.94 8.39C50.94 8.10333 50.87 7.84333 50.73 7.61C50.5833 7.37667 50.4 7.15667 50.18 6.95C49.96 6.74333 49.7233 6.54333 49.47 6.35C49.19 6.12333 48.92 5.89 48.66 5.65C48.4 5.41667 48.1833 5.14333 48.01 4.83C47.8367 4.52333 47.75 4.16667 47.75 3.76C47.75 3.32667 47.8433 2.94 48.03 2.6C48.2167 2.26 48.4667 1.97667 48.78 1.75C49.0933 1.51667 49.4533 1.34 49.86 1.22C50.2667 1.1 50.69 1.04 51.13 1.04C51.5967 1.04 52 1.10333 52.34 1.23C52.6867 1.35667 52.9567 1.53667 53.15 1.77C53.3433 2.00333 53.44 2.27667 53.44 2.59C53.44 2.88333 53.3833 3.14 53.27 3.36C53.1567 3.58667 53.0033 3.76333 52.81 3.89C52.6233 4.01667 52.4133 4.08 52.18 4.08C52 4.08 51.8433 4.05 51.71 3.99C51.5833 3.93667 51.49 3.86333 51.43 3.77C51.5433 3.70333 51.6467 3.58667 51.74 3.42C51.8333 3.25333 51.88 3.07 51.88 2.87C51.88 2.58333 51.7933 2.35333 51.62 2.18C51.44 2.00667 51.15 1.92 50.75 1.92C50.3367 1.92 49.9933 2.04333 49.72 2.29C49.4467 2.53 49.31 2.85667 49.31 3.27C49.31 3.55667 49.3833 3.82 49.53 4.06C49.6767 4.29333 49.87 4.51333 50.11 4.72C50.35 4.92 50.5967 5.11667 50.85 5.31C51.13 5.51667 51.3967 5.74 51.65 5.98C51.91 6.22667 52.12 6.50333 52.28 6.81C52.4467 7.12333 52.53 7.49 52.53 7.91C52.53 8.37667 52.43 8.79667 52.23 9.17C52.0233 9.53667 51.75 9.84667 51.41 10.1C51.07 10.3533 50.69 10.5433 50.27 10.67C49.85 10.8033 49.43 10.87 49.01 10.87ZM55.21 10.77C55.1367 10.77 55.0567 10.7667 54.97 10.76C54.8833 10.7467 54.7967 10.73 54.71 10.71C54.69 9.95 54.6667 9.21 54.64 8.49C54.6133 7.77 54.5767 7.09667 54.53 6.47C54.4833 5.83667 54.4233 5.28667 54.35 4.82C54.3033 4.44667 54.24 4.16333 54.16 3.97C54.08 3.77 53.95 3.62 53.77 3.52C53.8633 3.4 53.99 3.30667 54.15 3.24C54.31 3.17333 54.51 3.14 54.75 3.14C55.0567 3.14 55.2967 3.2 55.47 3.32C55.6367 3.44 55.76 3.62333 55.84 3.87C55.9267 4.12333 55.9833 4.44 56.01 4.82C56.03 4.98 56.0433 5.18333 56.05 5.43C56.0633 5.67667 56.0733 5.95667 56.08 6.27C56.0933 6.58333 56.1 6.93 56.1 7.31C56.1 7.70333 56.0933 8.1 56.08 8.5C56.0733 8.89333 56.0733 9.24333 56.08 9.55C56.3533 9.21667 56.61 8.83667 56.85 8.41C57.0833 7.98333 57.2933 7.53667 57.48 7.07C57.6667 6.60333 57.8133 6.13667 57.92 5.67C58.0267 5.20333 58.08 4.76 58.08 4.34C58.08 4.2 58.0733 4.06333 58.06 3.93C58.0467 3.79667 58.0233 3.66 57.99 3.52C58.09 3.43333 58.2233 3.35 58.39 3.27C58.55 3.18333 58.7267 3.14 58.92 3.14C59.1467 3.14 59.31 3.19667 59.41 3.31C59.5033 3.42333 59.5667 3.56667 59.6 3.74C59.6333 3.92 59.6567 4.11667 59.67 4.33C59.6833 4.54333 59.6967 4.79667 59.71 5.09C59.7167 5.37667 59.7233 5.67333 59.73 5.98C59.7367 6.28667 59.74 6.58 59.74 6.86C59.7467 7.13333 59.75 7.36667 59.75 7.56C59.75 7.82667 59.7467 8.12667 59.74 8.46C59.74 8.79333 59.7333 9.15667 59.72 9.55C59.9933 9.21667 60.25 8.83667 60.49 8.41C60.7367 7.98333 60.95 7.53667 61.13 7.07C61.31 6.60333 61.4533 6.13667 61.56 5.67C61.6667 5.20333 61.72 4.76 61.72 4.34C61.72 4.2 61.7133 4.06333 61.7 3.93C61.6867 3.79667 61.6633 3.66 61.63 3.52C61.7367 3.40667 61.89 3.31333 62.09 3.24C62.2833 3.17333 62.48 3.14 62.68 3.14C62.8733 3.14 63.03 3.17333 63.15 3.24C63.2633 3.31333 63.3433 3.41667 63.39 3.55C63.4367 3.69 63.46 3.86 63.46 4.06C63.46 4.36 63.4133 4.69333 63.32 5.06C63.2267 5.42 63.1 5.79667 62.94 6.19C62.78 6.57667 62.6 6.94667 62.4 7.3C62.2 7.65333 61.9967 7.98 61.79 8.28C61.4833 8.72 61.17 9.12667 60.85 9.5C60.53 9.87333 60.2 10.1767 59.86 10.41C59.5133 10.6433 59.15 10.76 58.77 10.76C58.7033 10.76 58.6367 10.7567 58.57 10.75C58.4967 10.7433 58.4267 10.73 58.36 10.71C58.36 10.17 58.35 9.68667 58.33 9.26C58.3033 8.82667 58.2833 8.40667 58.27 8C57.8367 8.68 57.4567 9.22333 57.13 9.63C56.8033 10.0367 56.49 10.3267 56.19 10.5C55.8967 10.68 55.57 10.77 55.21 10.77ZM65.7 10.84C65.2267 10.84 64.8433 10.7267 64.55 10.5C64.25 10.2667 64.0333 9.95333 63.9 9.56C63.7667 9.16 63.7 8.70333 63.7 8.19C63.7 7.50333 63.7933 6.85333 63.98 6.24C64.1667 5.62667 64.4333 5.08667 64.78 4.62C65.1333 4.15333 65.5433 3.79 66.01 3.53C66.4767 3.27 66.99 3.14 67.55 3.14C68.0033 3.14 68.4833 3.23667 68.99 3.43L70.4 3.25L69.28 9.1C69.2733 9.18667 69.26 9.28667 69.24 9.4C69.22 9.51333 69.21 9.61 69.21 9.69C69.21 9.83 69.2467 9.94333 69.32 10.03C69.3867 10.11 69.4967 10.1567 69.65 10.17C69.6033 10.33 69.5267 10.4567 69.42 10.55C69.3133 10.65 69.19 10.7233 69.05 10.77C68.9167 10.8167 68.7667 10.84 68.6 10.84C68.3467 10.84 68.13 10.7733 67.95 10.64C67.7767 10.5 67.6767 10.3 67.65 10.04C67.4033 10.2733 67.1133 10.4667 66.78 10.62C66.4533 10.7667 66.0933 10.84 65.7 10.84ZM66.32 10C66.6733 10 66.96 9.88333 67.18 9.65C67.4 9.41667 67.5733 9.12333 67.7 8.77C67.8333 8.42333 67.9333 8.08667 68 7.76L68.61 4.41C68.4233 4.26333 68.23 4.15333 68.03 4.08C67.83 4.01333 67.6467 3.98 67.48 3.98C67.1867 3.98 66.9267 4.06333 66.7 4.23C66.4733 4.39667 66.2733 4.62667 66.1 4.92C65.9267 5.20667 65.7833 5.54333 65.67 5.93C65.55 6.31 65.4633 6.71667 65.41 7.15C65.35 7.58333 65.32 8.02 65.32 8.46C65.32 8.88667 65.39 9.25 65.53 9.55C65.67 9.85 65.9333 10 66.32 10ZM73.06 10.87C72.7667 10.87 72.4767 10.84 72.19 10.78C71.9033 10.72 71.6433 10.6267 71.41 10.5C71.1767 10.38 70.9933 10.2267 70.86 10.04C70.7267 9.85333 70.66 9.64 70.66 9.4C70.66 9.12667 70.73 8.91667 70.87 8.77C71.01 8.61667 71.1733 8.50667 71.36 8.44C71.5533 8.36667 71.74 8.33 71.92 8.33C72.02 8.33 72.12 8.34333 72.22 8.37C72.3267 8.39 72.4133 8.44 72.48 8.52C72.4333 8.64667 72.39 8.77 72.35 8.89C72.31 9.00333 72.29 9.13667 72.29 9.29C72.3033 9.52333 72.3967 9.71 72.57 9.85C72.75 9.99667 72.9933 10.07 73.3 10.07C73.64 10.07 73.9233 9.98 74.15 9.8C74.3767 9.61333 74.49 9.37667 74.49 9.09C74.49 8.85 74.4267 8.63333 74.3 8.44C74.1667 8.24667 73.9967 8.07 73.79 7.91C73.5767 7.74333 73.3567 7.58 73.13 7.42C72.8833 7.24667 72.6367 7.06 72.39 6.86C72.15 6.66 71.9533 6.43 71.8 6.17C71.6467 5.91667 71.57 5.61 71.57 5.25C71.57 4.91 71.6567 4.60667 71.83 4.34C72.01 4.07333 72.2433 3.85 72.53 3.67C72.8233 3.49667 73.15 3.36333 73.51 3.27C73.8633 3.18333 74.22 3.14 74.58 3.14C74.9067 3.14 75.23 3.18333 75.55 3.27C75.87 3.35 76.1367 3.49 76.35 3.69C76.57 3.89 76.6733 4.16333 76.66 4.51C76.66 4.87667 76.5467 5.15667 76.32 5.35C76.0933 5.55 75.8433 5.65 75.57 5.65C75.47 5.65 75.3567 5.63667 75.23 5.61C75.11 5.59 75.0033 5.54 74.91 5.46C74.9767 5.34 75.0267 5.21667 75.06 5.09C75.0933 4.95667 75.11 4.82333 75.11 4.69C75.11 4.45 75.0267 4.26333 74.86 4.13C74.7 3.99 74.47 3.92 74.17 3.92C73.87 3.92 73.6167 4.00333 73.41 4.17C73.1967 4.33 73.09 4.55667 73.09 4.85C73.09 5.05667 73.1433 5.24333 73.25 5.41C73.35 5.57667 73.4833 5.73333 73.65 5.88C73.8167 6.03333 74 6.18 74.2 6.32C74.4867 6.51333 74.7733 6.71667 75.06 6.93C75.3467 7.13667 75.5833 7.37667 75.77 7.65C75.9633 7.91667 76.0567 8.24667 76.05 8.64C76.05 9.1 75.9067 9.49667 75.62 9.83C75.3333 10.1567 74.9633 10.4133 74.51 10.6C74.05 10.78 73.5667 10.87 73.06 10.87ZM82.42 10.84C82.1267 10.84 81.8933 10.76 81.72 10.6C81.5467 10.4333 81.46 10.1633 81.46 9.79C81.46 9.58333 81.4933 9.31667 81.56 8.99C81.62 8.66333 81.69 8.31667 81.77 7.95C81.8567 7.58333 81.94 7.21667 82.02 6.85C82.1067 6.48333 82.18 6.15333 82.24 5.86C82.3 5.56667 82.33 5.33667 82.33 5.17C82.33 4.86333 82.25 4.62667 82.09 4.46C81.9367 4.3 81.7267 4.22 81.46 4.22C81.1 4.22 80.7933 4.34667 80.54 4.6C80.2867 4.84667 80.08 5.16 79.92 5.54C79.7667 5.92 79.65 6.29667 79.57 6.67L78.82 10.56L77.22 10.73L78.47 4.33L79.76 4.55C80.04 4.10333 80.3833 3.75667 80.79 3.51C81.19 3.26333 81.6433 3.14 82.15 3.14C82.7167 3.14 83.15 3.28667 83.45 3.58C83.75 3.87333 83.9 4.28667 83.9 4.82C83.9 5.08 83.8733 5.38333 83.82 5.73C83.76 6.07667 83.6867 6.44333 83.6 6.83C83.5133 7.21667 83.4267 7.59333 83.34 7.96C83.2533 8.32 83.18 8.65 83.12 8.95C83.06 9.25 83.03 9.48333 83.03 9.65C83.03 9.79 83.06 9.90667 83.12 10C83.1733 10.0933 83.2833 10.15 83.45 10.17C83.3967 10.4033 83.27 10.5733 83.07 10.68C82.8767 10.7867 82.66 10.84 82.42 10.84ZM79.76 4.79L78.43 4.53C78.5033 4.14333 78.58 3.72 78.66 3.26C78.74 2.8 78.8033 2.34333 78.85 1.89C78.9033 1.44333 78.9333 1.05667 78.94 0.73C78.94 0.616667 78.94 0.52 78.94 0.44C78.9333 0.353333 78.92 0.273333 78.9 0.2C78.9933 0.133333 79.1067 0.083333 79.24 0.0499997C79.3667 0.0166664 79.4967 0 79.63 0C79.8833 0 80.1133 0.0733331 80.32 0.22C80.52 0.366666 80.62 0.626667 80.62 1C80.62 1.12 80.6033 1.3 80.57 1.54C80.53 1.77333 80.4767 2.04 80.41 2.34C80.35 2.64 80.28 2.94333 80.2 3.25C80.12 3.55667 80.0433 3.84667 79.97 4.12C79.89 4.39333 79.82 4.61667 79.76 4.79ZM87.51 10.84C86.9767 10.84 86.5167 10.74 86.13 10.54C85.7433 10.34 85.4467 10.0333 85.24 9.62C85.04 9.21333 84.94 8.69667 84.94 8.07C84.94 7.48333 85.02 6.89667 85.18 6.31C85.3467 5.73 85.5933 5.2 85.92 4.72C86.2467 4.24667 86.6633 3.86333 87.17 3.57C87.6767 3.28333 88.2767 3.14 88.97 3.14C89.33 3.14 89.6567 3.19 89.95 3.29C90.2367 3.39667 90.4633 3.56667 90.63 3.8C90.8033 4.03333 90.89 4.35 90.89 4.75C90.89 5.29 90.7267 5.74333 90.4 6.11C90.08 6.48333 89.6533 6.76333 89.12 6.95C88.5867 7.14333 88 7.24 87.36 7.24C87.24 7.24 87.1067 7.24 86.96 7.24C86.8133 7.23333 86.6933 7.22333 86.6 7.21C86.5933 7.36333 86.5833 7.51 86.57 7.65C86.5633 7.79667 86.56 7.93 86.56 8.05C86.56 8.55667 86.6533 8.95333 86.84 9.24C87.0267 9.52 87.3667 9.66 87.86 9.66C88.26 9.66 88.62 9.56667 88.94 9.38C89.26 9.18667 89.5067 8.91333 89.68 8.56C89.8133 8.59333 89.9033 8.66667 89.95 8.78C89.9967 8.89333 90.02 9.01 90.02 9.13C90.02 9.41 89.92 9.68 89.72 9.94C89.5267 10.2067 89.2433 10.4233 88.87 10.59C88.4967 10.7567 88.0433 10.84 87.51 10.84ZM86.7 6.53C87.02 6.53 87.3367 6.49667 87.65 6.43C87.9567 6.36333 88.2433 6.25667 88.51 6.11C88.77 5.97 88.9767 5.78667 89.13 5.56C89.2833 5.32667 89.36 5.05667 89.36 4.75C89.36 4.47667 89.2967 4.27333 89.17 4.14C89.0433 4.00667 88.8633 3.94 88.63 3.94C88.37 3.94 88.13 4.02 87.91 4.18C87.69 4.34667 87.5 4.56 87.34 4.82C87.1867 5.08 87.0567 5.36 86.95 5.66C86.8367 5.96 86.7533 6.25 86.7 6.53ZM93.34 10.84C92.86 10.84 92.4733 10.7267 92.18 10.5C91.8867 10.2667 91.6733 9.95333 91.54 9.56C91.4 9.16 91.33 8.70333 91.33 8.19C91.33 7.50333 91.4267 6.85333 91.62 6.24C91.8133 5.62667 92.08 5.08667 92.42 4.62C92.76 4.15333 93.1667 3.79 93.64 3.53C94.12 3.27 94.6333 3.14 95.18 3.14C95.46 3.14 95.7167 3.16667 95.95 3.22C96.1767 3.26667 96.42 3.34333 96.68 3.45L97.98 3.64C97.8133 4.54 97.6433 5.44333 97.47 6.35C97.2967 7.26333 97.1133 8.18 96.92 9.1C96.9133 9.18667 96.9 9.28667 96.88 9.4C96.86 9.51333 96.85 9.61 96.85 9.69C96.85 9.83 96.8867 9.94333 96.96 10.03C97.0267 10.11 97.1333 10.1567 97.28 10.17C97.2333 10.33 97.1567 10.4567 97.05 10.55C96.9433 10.65 96.8233 10.7233 96.69 10.77C96.5567 10.8167 96.4033 10.84 96.23 10.84C95.9833 10.84 95.77 10.7733 95.59 10.64C95.41 10.5 95.3067 10.3 95.28 10.04C95.04 10.2733 94.7533 10.4667 94.42 10.62C94.0867 10.7667 93.7267 10.84 93.34 10.84ZM93.95 10C94.3033 10 94.59 9.88333 94.81 9.65C95.03 9.41667 95.2067 9.12333 95.34 8.77C95.4667 8.42333 95.5633 8.08667 95.63 7.76L96.25 4.41C96.0633 4.26333 95.87 4.15333 95.67 4.08C95.47 4.01333 95.2833 3.98 95.11 3.98C94.8233 3.98 94.5667 4.06333 94.34 4.23C94.1067 4.39667 93.9067 4.62667 93.74 4.92C93.5667 5.20667 93.42 5.54333 93.3 5.93C93.1867 6.31 93.1 6.71667 93.04 7.15C92.9867 7.58333 92.96 8.02 92.96 8.46C92.96 8.88667 93.03 9.25 93.17 9.55C93.31 9.85 93.57 10 93.95 10ZM97.96 3.78L96.42 3.67C96.5133 3.15667 96.5933 2.64 96.66 2.12C96.7333 1.59333 96.7733 1.14333 96.78 0.77C96.78 0.663333 96.7767 0.563333 96.77 0.47C96.77 0.376666 96.76 0.286666 96.74 0.2C96.82 0.146666 96.9267 0.0999999 97.06 0.0599999C97.1933 0.0199999 97.3333 0 97.48 0C97.72 0 97.9433 0.0733331 98.15 0.22C98.3567 0.366666 98.46 0.626667 98.46 1C98.46 1.1 98.4333 1.3 98.38 1.6C98.3333 1.9 98.27 2.24667 98.19 2.64C98.1167 3.02667 98.04 3.40667 97.96 3.78Z" fill="black"/>
</svg>
