<svg width="65" height="12" viewBox="0 0 65 12" fill="none" xmlns="http://www.w3.org/2000/svg">
<path d="M6.11 8.11V5.83C6.11 5.65 6.08667 5.53333 6.04 5.48C5.98667 5.42 5.86667 5.39 5.68 5.39H1.61C0.87 5.39 0.5 5.02333 0.5 4.29V1.77C0.5 1.03 0.87 0.66 1.61 0.66H6.18C6.92 0.66 7.29 1.03 7.29 1.77V3.15H6.06V1.92C6.06 1.73333 6.03333 1.61667 5.98 1.57C5.92667 1.51667 5.80667 1.49 5.62 1.49H2.17C1.99 1.49 1.87333 1.51667 1.82 1.57C1.76 1.61667 1.73 1.73333 1.73 1.92V4.13C1.73 4.31667 1.76 4.43667 1.82 4.49C1.87333 4.54333 1.99 4.57 2.17 4.57H6.23C6.96333 4.57 7.33 4.93667 7.33 5.67V8.26C7.33 9 6.96333 9.37 6.23 9.37H1.63C0.896667 9.37 0.53 9 0.53 8.26V6.88H1.76V8.11C1.76 8.29667 1.78667 8.41667 1.84 8.47C1.9 8.51667 2.01667 8.54 2.19 8.54H5.68C5.86667 8.54 5.98667 8.51667 6.04 8.47C6.08667 8.41667 6.11 8.29667 6.11 8.11ZM11.21 8.54H14.29C14.4567 8.54 14.5767 8.50333 14.65 8.43C14.73 8.35667 14.77 8.23 14.77 8.05V3.9C14.77 3.72 14.73 3.59333 14.65 3.52C14.5767 3.44667 14.4567 3.41 14.29 3.41H11.21C11.03 3.41 10.9133 3.43667 10.86 3.49C10.8067 3.54333 10.78 3.66 10.78 3.84V8.11C10.78 8.29667 10.8067 8.41667 10.86 8.47C10.9133 8.51667 11.03 8.54 11.21 8.54ZM14.77 3.03V2.58H15.97V9.37H14.77V8.92C14.6433 9.22 14.3867 9.37 14 9.37H10.68C9.94 9.37 9.57 9 9.57 8.26V3.69C9.57 2.95 9.94 2.58 10.68 2.58H14C14.3867 2.58 14.6433 2.73 14.77 3.03ZM20.79 2.58H22.24V3.43H20.6C19.9933 3.43 19.69 3.78 19.69 4.48V9.37H18.49V2.58H19.69V3.43C19.8433 2.86333 20.21 2.58 20.79 2.58ZM28.98 8.11V3.84C28.98 3.66 28.9533 3.54333 28.9 3.49C28.8467 3.43667 28.7267 3.41 28.54 3.41H25.32C25.1533 3.41 25.0333 3.44667 24.96 3.52C24.8867 3.59333 24.85 3.72 24.85 3.9V8.05C24.85 8.23 24.8867 8.35667 24.96 8.43C25.0333 8.50333 25.1533 8.54 25.32 8.54H28.54C28.7267 8.54 28.8467 8.51667 28.9 8.47C28.9533 8.41667 28.98 8.29667 28.98 8.11ZM25.62 2.58H29.07C29.81 2.58 30.18 2.95 30.18 3.69V8.26C30.18 9 29.81 9.37 29.07 9.37H25.62C25.2267 9.37 24.97 9.22 24.85 8.92V11.34H23.64V2.58H24.85V3.03C24.97 2.73 25.2267 2.58 25.62 2.58ZM34.06 8.54H37.14C37.3067 8.54 37.4267 8.50333 37.5 8.43C37.5733 8.35667 37.61 8.23 37.61 8.05V3.9C37.61 3.72 37.5733 3.59333 37.5 3.52C37.4267 3.44667 37.3067 3.41 37.14 3.41H34.06C33.88 3.41 33.7633 3.43667 33.71 3.49C33.65 3.54333 33.62 3.66 33.62 3.84V8.11C33.62 8.29667 33.65 8.41667 33.71 8.47C33.7633 8.51667 33.88 8.54 34.06 8.54ZM37.61 3.03V2.58H38.82V9.37H37.61V8.92C37.49 9.22 37.2333 9.37 36.84 9.37H33.53C32.79 9.37 32.42 9 32.42 8.26V3.69C32.42 2.95 32.79 2.58 33.53 2.58H36.84C37.2333 2.58 37.49 2.73 37.61 3.03ZM43.33 2.58H46.63C47.37 2.58 47.74 2.95 47.74 3.69V9.37H46.53V3.84C46.53 3.66 46.5067 3.54333 46.46 3.49C46.4067 3.43667 46.2867 3.41 46.1 3.41H43.03C42.8633 3.41 42.7433 3.44667 42.67 3.52C42.5967 3.59333 42.56 3.72 42.56 3.9V4.36H42.54V9.37H41.34V2.58H42.54V3.07C42.6467 2.74333 42.91 2.58 43.33 2.58ZM56.22 3.69V4.79H55.02V3.84C55.02 3.66 54.99 3.54333 54.93 3.49C54.8767 3.43667 54.76 3.41 54.58 3.41H51.61C51.4367 3.41 51.32 3.43667 51.26 3.49C51.2067 3.54333 51.18 3.66 51.18 3.84V8.11C51.18 8.29667 51.2067 8.41667 51.26 8.47C51.32 8.51667 51.4367 8.54 51.61 8.54H54.58C54.76 8.54 54.8767 8.51667 54.93 8.47C54.99 8.41667 55.02 8.29667 55.02 8.11V7.16H56.22V8.26C56.22 9 55.85 9.37 55.11 9.37H51.08C50.3467 9.37 49.98 9 49.98 8.26V3.69C49.98 2.95 50.3467 2.58 51.08 2.58H55.11C55.85 2.58 56.22 2.95 56.22 3.69ZM60.31 2.58H63.63C64.3633 2.58 64.73 2.95 64.73 3.69V9.37H63.53V3.84C63.53 3.66 63.5 3.54333 63.44 3.49C63.3867 3.43667 63.27 3.41 63.09 3.41H60.01C59.8433 3.41 59.7233 3.44667 59.65 3.52C59.5767 3.59333 59.54 3.72 59.54 3.9V4.33H59.52V9.37H58.32V0H59.52V3.07C59.6267 2.74333 59.89 2.58 60.31 2.58Z" fill="black"/>
</svg>
