<svg width="103.35" height="19.348" viewBox="0 0 103.35 19.348" xmlns="http://www.w3.org/2000/svg"><path transform="translate(0 15.54) scale(.014 -.014)" d="m557 620q-42 111-247 111-117 0-179-48t-62-142v-4q0-119 139-171 263-71 263-184 0-115-178-115-126 0-182 86l-81-23q46-144 264-144 277 0 277 203 0 146-243 236-164 46-164 125 0 49 41 75t115 26q140 0 157-63z"/><path transform="translate(8.414 15.54) scale(.014 -.014)" d="m370 368-2-14q-244-5-303-98-30-50-30-114v-3q0-62 50-106t147-44q88 10 136 93 4-58 45-82l73-2q-30 60-30 100v226q0 214-197 214h-5q-135 0-214-79l50-48q60 56 170 56t110-99zm-228-270q-15 21-15 53 0 58 62 95 62 38 179 42v-79q0-11-7-31-17-57-51-79-33-23-93-23-61 0-75 22z"/><path transform="translate(15.708 15.54) scale(.014 -.014)" d="M378 437 486 0H586L734 533H638L533 110L436 522H324L219 107L125 533H30L167 0H270Z"/><path transform="translate(26.404 15.54) scale(.014 -.014)" d="m370 368-2-14q-244-5-303-98-30-50-30-114v-3q0-62 50-106t147-44q88 10 136 93 4-58 45-82l73-2q-30 60-30 100v226q0 214-197 214h-5q-135 0-214-79l50-48q60 56 170 56t110-99zm-228-270q-15 21-15 53 0 58 62 95 62 38 179 42v-79q0-11-7-31-17-57-51-79-33-23-93-23-61 0-75 22z"/><path transform="translate(33.698 15.54) scale(.014 -.014)" d="m311 538q-52 0-97-34-44-34-63-97v106h-93v-516h93v295q0 78 39 117t125 42q19 0 39-4l1 89q-34 2-44 2z"/><path transform="translate(39.018 15.54) scale(.014 -.014)" d="m370 368-2-14q-244-5-303-98-30-50-30-114v-3q0-62 50-106t147-44q88 10 136 93 4-58 45-82l73-2q-30 60-30 100v226q0 214-197 214h-5q-135 0-214-79l50-48q60 56 170 56t110-99zm-228-270q-15 21-15 53 0 58 62 95 62 38 179 42v-79q0-11-7-31-17-57-51-79-33-23-93-23-61 0-75 22z"/><path transform="translate(46.312 15.54) scale(.014 -.014)" d="m301 535q-97 0-142-92v297h-89v-743h89v75q31-87 143-87 96 0 154 79 59 80 59 205t-59 195q-58 71-155 71zm122-274q-2-83-36-134-36-51-98-51-117 0-130 154v69q8 145 130 146 128 0 134-184z"/><path transform="translate(54.082 15.54) scale(.014 -.014)" d="M80 601H180V699H80ZM87 -3H178V521H87Z"/><path transform="translate(61.922 15.54) scale(.014 -.014)" d="m671 37v345h-279v-73h186v-210q-64-26-133-26-297 0-297 290 0 285 300 285 160 0 198-59l10 93q-76 46-208 46-396 0-398-375 0-365 396-365 114 0 204 40z"/><path transform="translate(72.142 15.54) scale(.014 -.014)" d="m448 463q-73 79-180 79-108 0-178-79t-70-198 70-202 177-83 180 83q74 83 74 202t-73 198zm-295-55q41 59 112 59t113-59q42-58 42-141t-42-148q-43-64-114-64t-112 65q-40 64-40 146 0 83 41 142z"/><path transform="translate(79.702 15.54) scale(.014 -.014)" d="m337 92q-26-26-80-26-83 0-83 82v292h149v73h-149v155h-91v-155h-73v-73h73v-306q0-141 138-141 99 0 122 63z"/><path transform="translate(84.644 15.54) scale(.014 -.014)" d="m414-3h98v365q0 176-211 176-82 0-128-97v299h-93v-743h93v287q0 71 25 126 26 56 109 56 107 0 107-121z"/><path transform="translate(92.652 15.54) scale(.014 -.014)" d="M80 601H180V699H80ZM87 -3H178V521H87Z"/><path transform="translate(96.292 15.54) scale(.014 -.014)" d="m409 104q-10-34-91-34-82 0-128 60-47 59-47 140t53 133q52 52 126 52 73 0 88-49h69q-19 124-173 124-96 0-176-66-80-68-80-195t76-203q75-78 201-78t152 110z"/></svg>