<svg width="117" height="11" viewBox="0 0 117 11" fill="none" xmlns="http://www.w3.org/2000/svg">
<path d="M6.07 0.59C6.09667 0.57 6.08333 0.49 6.03 0.35C5.97667 0.21 5.94 0.0933333 5.92 0H6.62L7.98 2.36L7.58 2.68L7.29 2.3L6.73 1.77C6.42333 1.46333 6.12333 1.24333 5.83 1.11C5.53667 0.976666 5.09333 0.91 4.5 0.91C3.91333 0.91 3.41 1.11667 2.99 1.53C2.57 1.94333 2.36 2.36333 2.36 2.79C2.36 3.21667 2.5 3.54333 2.78 3.77C3.06 3.99667 3.4 4.19333 3.8 4.36C4.19333 4.52667 4.49 4.63333 4.69 4.68C5.73 4.93333 6.48333 5.21667 6.95 5.53C7.85 6.13 8.3 6.9 8.3 7.84C8.3 8.35333 8.16667 8.81 7.9 9.21C7.63333 9.60333 7.37 9.88667 7.11 10.06C6.45667 10.4867 5.58 10.7 4.48 10.7C3.81333 10.7 3.20667 10.54 2.66 10.22L2.45 10.1L2.47 10.35C2.50333 10.4433 2.53333 10.5333 2.56 10.62H1.86L0.5 8.26L0.89 7.94L1.19 8.32L1.75 8.85C2.43 9.55 3.18 9.9 4 9.9C4.02667 9.9 4.05333 9.9 4.08 9.9C4.93333 9.87333 5.61 9.64667 6.11 9.22C6.61 8.78667 6.86 8.33667 6.86 7.87C6.86 7.39667 6.76667 7.06667 6.58 6.88C6.17333 6.48 5.83 6.23667 5.55 6.15C4.18333 5.73667 3.11667 5.34333 2.35 4.97C1.45 4.52333 1 3.84333 1 2.93V2.87C1 2.41667 1.10667 2.00333 1.32 1.63C1.52667 1.25667 1.8 0.966666 2.14 0.76C2.82 0.346666 3.5 0.14 4.18 0.14C4.86 0.14 5.49 0.29 6.07 0.59ZM16.4 9.12V9.75C16.2533 10.3633 15.93 10.67 15.43 10.67C14.93 10.67 14.5767 10.34 14.37 9.68C13.8567 10.3533 13.27 10.69 12.61 10.69C11.81 10.69 11.1233 10.49 10.55 10.09C9.98333 9.69667 9.7 9.2 9.7 8.6V8.56C9.7 7.51333 10.2867 6.71333 11.46 6.16C12.1133 5.85333 12.6333 5.7 13.02 5.7C13.4 5.7 13.85 5.81333 14.37 6.04L14.39 5.42C14.39 4.90667 14.3067 4.56667 14.14 4.4C13.7733 4.06667 13.29 3.9 12.69 3.9C12.0967 3.9 11.2633 4.23333 10.19 4.9L10.16 3.81C11.0533 3.36333 11.9667 3.14 12.9 3.14H12.97C13.5433 3.14 14.1133 3.34667 14.68 3.76C14.98 3.97333 15.22 4.25667 15.4 4.61C15.5867 4.96333 15.68 5.36 15.68 5.8V9.57C15.7333 9.63 15.8033 9.66 15.89 9.66C15.9033 9.66 16.0733 9.48 16.4 9.12ZM14.37 7.82V7.14C14.2967 6.72 13.9567 6.51 13.35 6.51H13.27C12.8033 6.51 12.3233 6.72 11.83 7.14C11.33 7.56 11.08 8.01 11.08 8.49C11.08 8.55667 11.0867 8.62 11.1 8.68C11.1933 9.44667 11.71 9.83 12.65 9.83C13.1367 9.83 13.4967 9.71333 13.73 9.48C13.9633 9.24667 14.1133 9.05 14.18 8.89C14.2467 8.73667 14.2967 8.53667 14.33 8.29C14.3567 8.05 14.37 7.89333 14.37 7.82ZM17.52 4.09H16.96V3.46H20.3V4.09H19.67L19.46 4.27C19.38 4.37667 19.34 4.47 19.34 4.55V4.74L20.63 9.44L22.03 5.65L21.72 4.74C21.58 4.32667 21.44 4.11 21.3 4.09H20.91V3.46H23.77V4.09H23.31L23.1 4.27C23.02 4.37667 22.98 4.47 22.98 4.55V4.74L24.48 9.44L25.74 4.74H25.73V4.57C25.73 4.48333 25.72 4.39333 25.7 4.3L25.42 4.09H24.79V3.46H27.6V4.09H27.11C26.83 4.13667 26.6433 4.35333 26.55 4.74L24.89 10.56H23.63L22.35 6.74L21.04 10.56H19.78L18.08 4.74C17.9733 4.34667 17.7867 4.13 17.52 4.09ZM35.15 9.12V9.75C35.0033 10.3633 34.68 10.67 34.18 10.67C33.68 10.67 33.3267 10.34 33.12 9.68C32.6067 10.3533 32.02 10.69 31.36 10.69C30.5533 10.69 29.8667 10.49 29.3 10.09C28.7267 9.69667 28.44 9.2 28.44 8.6V8.56C28.44 7.51333 29.03 6.71333 30.21 6.16C30.8633 5.85333 31.38 5.7 31.76 5.7C32.1467 5.7 32.6 5.81333 33.12 6.04L33.13 5.42C33.13 4.90667 33.0467 4.56667 32.88 4.4C32.52 4.06667 32.04 3.9 31.44 3.9C30.84 3.9 30.0033 4.23333 28.93 4.9L28.91 3.81C29.8033 3.36333 30.7167 3.14 31.65 3.14H31.72C32.2867 3.14 32.8567 3.34667 33.43 3.76C33.73 3.97333 33.97 4.25667 34.15 4.61C34.33 4.96333 34.42 5.36 34.42 5.8V9.57C34.48 9.63 34.55 9.66 34.63 9.66C34.65 9.66 34.8233 9.48 35.15 9.12ZM33.12 7.82V7.14C33.0467 6.72 32.7067 6.51 32.1 6.51H32.01C31.5433 6.51 31.0633 6.72 30.57 7.14C30.0767 7.56 29.83 8.01 29.83 8.49C29.83 8.55667 29.8333 8.62 29.84 8.68C29.9333 9.44667 30.4533 9.83 31.4 9.83C31.8867 9.83 32.2467 9.71333 32.48 9.48C32.7133 9.24667 32.86 9.05 32.92 8.89C32.9867 8.73667 33.0367 8.53667 33.07 8.29C33.1033 8.05 33.12 7.89333 33.12 7.82ZM40.89 3.28H40.92C41.18 3.28 41.4 3.29 41.58 3.31C41.44 3.85 41.37 4.21667 41.37 4.41C41.1833 4.38333 40.9633 4.37 40.71 4.37C39.97 4.37 39.36 4.69 38.88 5.33C38.4 5.97 38.16 6.60667 38.16 7.24V9.44C38.2267 9.72 38.3933 9.86 38.66 9.86H39.34V10.49H35.82V9.86L36.56 9.85C36.7467 9.81 36.8933 9.67333 37 9.44V4.88H35.95V4.6L37.61 3.48H38.16V5.28C38.7133 3.94667 39.6233 3.28 40.89 3.28ZM49.12 9.12V9.75C48.9733 10.3633 48.65 10.67 48.15 10.67C47.65 10.67 47.2967 10.34 47.09 9.68C46.5767 10.3533 45.99 10.69 45.33 10.69C44.5233 10.69 43.8367 10.49 43.27 10.09C42.7033 9.69667 42.42 9.2 42.42 8.6V8.56C42.42 7.51333 43.0067 6.71333 44.18 6.16C44.8333 5.85333 45.35 5.7 45.73 5.7C46.1167 5.7 46.57 5.81333 47.09 6.04L47.11 5.42C47.11 4.90667 47.0233 4.56667 46.85 4.4C46.49 4.06667 46.01 3.9 45.41 3.9C44.8167 3.9 43.9833 4.23333 42.91 4.9L42.88 3.81C43.7733 3.36333 44.6867 3.14 45.62 3.14H45.69C46.2633 3.14 46.8333 3.34667 47.4 3.76C47.7 3.97333 47.94 4.25667 48.12 4.61C48.3 4.96333 48.39 5.36 48.39 5.8V9.57C48.45 9.63 48.52 9.66 48.6 9.66C48.62 9.66 48.7933 9.48 49.12 9.12ZM47.09 7.82V7.14C47.0167 6.72 46.6767 6.51 46.07 6.51H45.99C45.5233 6.51 45.04 6.72 44.54 7.14C44.0467 7.56 43.8 8.01 43.8 8.49C43.8 8.55667 43.8067 8.62 43.82 8.68C43.9133 9.44667 44.43 9.83 45.37 9.83C45.8567 9.83 46.2167 9.71333 46.45 9.48C46.6833 9.24667 46.8333 9.05 46.9 8.89C46.96 8.73667 47.0067 8.53667 47.04 8.29C47.0733 8.05 47.09 7.89333 47.09 7.82ZM53.52 9.79C54.1533 9.79 54.6467 9.53333 55 9.02C55.3533 8.50667 55.5367 7.82667 55.55 6.98C55.53 6.1 55.3333 5.41667 54.96 4.93C54.5867 4.44333 54.1067 4.2 53.52 4.2C52.2933 4.21333 51.64 4.99333 51.56 6.54V7.3C51.7 8.96 52.3533 9.79 53.52 9.79ZM51.56 0.13V4.34C52.1067 3.65333 52.84 3.31 53.76 3.31C54.6733 3.31 55.43 3.63 56.03 4.27C56.63 4.91667 56.93 5.80333 56.93 6.93C56.93 8.05 56.63 8.96 56.03 9.66C55.43 10.3533 54.6733 10.7 53.76 10.7C52.8533 10.7 52.12 10.3367 51.56 9.61V10.53H50.38V1.53H49.33V1.25L51 0.13H51.56ZM58.97 1.7C58.79 1.52 58.7 1.30333 58.7 1.05C58.7 0.803333 58.79 0.586666 58.97 0.4C59.15 0.22 59.3667 0.13 59.62 0.13C59.8733 0.13 60.09 0.22 60.27 0.4C60.4567 0.586666 60.55 0.803333 60.55 1.05C60.55 1.30333 60.4567 1.52 60.27 1.7C60.09 1.88667 59.8733 1.98 59.62 1.98C59.3667 1.98 59.15 1.88667 58.97 1.7ZM60.18 3.21V9.44C60.2467 9.72 60.4167 9.86 60.69 9.86H61.27V10.49H57.84V9.86L58.59 9.85C58.7767 9.81 58.92 9.67333 59.02 9.44V4.61H57.97V4.33L59.64 3.21H60.18ZM68.95 2.75V9.02C68.95 9.58 69.3467 9.86 70.14 9.86H70.5V10.49H66.52V9.86L67.01 9.85C67.73 9.83 68.09 9.55333 68.09 9.02V1.64C68.09 1.24 67.87 1.00667 67.43 0.94H66.52V0.31H68.93L73.37 8.19L77.35 0.31H80.22V0.94H79.24C78.8667 1.00667 78.68 1.24 78.68 1.64V9.02C78.68 9.58 79.07 9.86 79.85 9.86H80.22V10.49H75.76V9.86L76.25 9.85C76.97 9.83 77.33 9.55333 77.33 9.02V2.06L73.19 10.18L68.95 2.75ZM82.39 1.7C82.21 1.52 82.12 1.30333 82.12 1.05C82.12 0.803333 82.21 0.586666 82.39 0.4C82.5767 0.22 82.7933 0.13 83.04 0.13C83.2933 0.13 83.51 0.22 83.69 0.4C83.8767 0.586666 83.97 0.803333 83.97 1.05C83.97 1.30333 83.8767 1.52 83.69 1.7C83.51 1.88667 83.2933 1.98 83.04 1.98C82.7933 1.98 82.5767 1.88667 82.39 1.7ZM83.6 3.21V9.44C83.6667 9.72 83.8367 9.86 84.11 9.86H84.7V10.49H81.27V9.86L82.01 9.85C82.1967 9.81 82.34 9.67333 82.44 9.44V4.61H81.39V4.33L83.06 3.21H83.6ZM87.62 3.21V4.67C87.9667 3.78333 88.7267 3.34 89.9 3.34C91.7067 3.34667 92.61 4.49667 92.61 6.79V9.44C92.67 9.72 92.8367 9.86 93.11 9.86H93.64V10.49H90.41V9.86L91.01 9.85C91.1967 9.81 91.34 9.67333 91.44 9.44V7.07C91.44 5.09667 90.8967 4.11 89.81 4.11C88.35 4.11 87.62 5.05667 87.62 6.95V9.44C87.6867 9.72 87.8567 9.86 88.13 9.86H88.66V10.49H85.42V9.86L86.03 9.85C86.2167 9.81 86.36 9.67333 86.46 9.44V4.61H85.41V4.33L87.08 3.21H87.62ZM100.29 9.52V10.25C99.73 10.51 99.2067 10.64 98.72 10.64H98.54C97.4467 10.64 96.5333 10.29 95.8 9.59C95.06 8.88333 94.69 8.01667 94.69 6.99C94.69 5.96333 95.09 5.11 95.89 4.43C96.69 3.75 97.5933 3.41 98.6 3.41C99.3533 3.41 99.9467 3.55333 100.38 3.84L100.01 4.85C99.59 4.48333 99.1567 4.3 98.71 4.3C98.0167 4.3 97.4067 4.56667 96.88 5.1C96.3467 5.63333 96.08 6.27667 96.08 7.03C96.08 7.77667 96.3633 8.43667 96.93 9.01C97.5033 9.57667 98.18 9.86 98.96 9.86C99.4467 9.86 99.89 9.74667 100.29 9.52ZM103.57 0.13V4.81C104.01 3.90333 104.637 3.45 105.45 3.45C106.27 3.45 106.92 3.71333 107.4 4.24C107.887 4.76667 108.13 5.49333 108.13 6.42V9.44C108.197 9.72 108.32 9.86 108.5 9.86H109.1V10.49H105.93V9.86L106.61 9.85C106.637 9.81 106.733 9.67333 106.9 9.44V6.65C106.9 5.89 106.77 5.28333 106.51 4.83C106.25 4.38333 105.893 4.16 105.44 4.16C104.987 4.16 104.56 4.37333 104.16 4.8C103.767 5.22667 103.57 5.73667 103.57 6.33V9.44C103.637 9.72 103.757 9.86 103.93 9.86H104.53V10.49H101.44V9.86L102.11 9.85C102.137 9.81 102.237 9.67333 102.41 9.44V1.53H101.36V1.25L103.02 0.13H103.57ZM113.18 10.76C112.233 10.76 111.433 10.3933 110.78 9.66C110.127 8.93333 109.8 8.06333 109.8 7.05C109.8 6.03 110.127 5.14667 110.78 4.4C111.433 3.65333 112.233 3.28 113.18 3.28C114.127 3.28 114.943 3.65333 115.63 4.4C116.317 5.14667 116.66 6.03 116.66 7.05C116.66 8.06333 116.317 8.93333 115.63 9.66C114.943 10.3933 114.127 10.76 113.18 10.76ZM115.27 7.03C115.27 6.23 115.05 5.53667 114.61 4.95C114.163 4.37 113.657 4.08 113.09 4.08C112.517 4.08 112.043 4.37667 111.67 4.97C111.29 5.56333 111.1 6.26333 111.1 7.07C111.1 7.87667 111.323 8.56 111.77 9.12C112.21 9.68667 112.707 9.97 113.26 9.97C113.82 9.97 114.293 9.68 114.68 9.1C115.073 8.52667 115.27 7.83667 115.27 7.03Z" fill="black"/>
</svg>
