<svg width="74.676" height="19.004" viewBox="0 0 74.676 19.004" xmlns="http://www.w3.org/2000/svg"><path transform="translate(0 13.248) scale(.013672 -.013672)" d="m198 596q5 8 6 14.5t6 14.5q20 11 36 26.5t37 25.5q14 10 22.5 13.5t16.5 9.5q9 4 17.5 8t19.5 7q8 2 14 5.5t12 5.5q14 5 28 9t27 8q5 2 12 5t13 2q11-2 13.5-1t4.5 1q8 1 13.5-2t12.5-5q6-2 11.5-3t10.5-3 8.5-5.5 6.5-6.5q4-2 7.5-5t7.5-6q8-17 18-34t10-41q-6-9-7-9t-2-2q-11-7-16-12.5t-11-11.5l-14-14q-3-2-7-3.5t-5-6.5q-8-4-13-10t-13-9q-9-11-22-17.5t-24-14.5q-11-7-14.5-9t-6.5-5q-11-5-19.5-10t-19.5-9q-5-2-9.5-5t-11.5-2q-5 2-10 4.5t-9-4.5q-13-2-24.5 4.5t-12.5 18.5q-12 10-7 27 2 8 7.5 16t9.5 15q5 9 9 17.5t9 16.5q14 15 28.5 28t36.5 18q7 2 14 4t13 4q3-2 6 0t6 0q4-3 3-7t-1-9q-3-4-8-5.5t-9.5-3-8.5-4-5-8.5q-28-24-50-60 3-2 8-5t10-4q8-2 18.5 4t16.5 9q28 13 50 35 6 5 12.5 11t9.5 12q4 5 7 10t8 8q1 9-2.5 14.5t-8 11-9.5 10.5-7 12q-5 2-8.5 7t-8.5 7q-2 0-8.5 1t-7.5 1q-25-5-39-11t-28-12q-34-18-63-42-3-2-7-4t-6-4q-5-4-8.5-10t-8.5-12q-5-7-10.5-13.5t-7.5-14.5q-6-3-8-11.5t-7-13.5q-2-8-5-14.5t-5-15.5q9-18 13.5-28t9.5-20q1-11 6.5-19.5t10.5-19.5q14-23 25.5-48.5t25.5-48.5q6-14 11.5-27.5t16.5-23.5q2-7 5.5-13.5t6.5-13.5q4-12 11-26 3-8 7-14t6-12q4-9 6.5-22.5t1.5-22.5q0-10-1-14t-3-6.5-4-5.5-4-12q-9-16-21-29t-21-30q-6-8-13-14t-14-12q-7-5-14.5-9t-13.5-10q-17-15-35.5-21.5t-34.5-17.5q-6 0-12-1.5t-12-3.5q-5-2-10.5-4t-11.5-4q-5-2-8.5-4t-8.5-4q-14-3-30-3.5t-33 3.5q-19 7-29.5 6t-18.5 8q-5 2-5.5 5t-4.5 6q-11 9-14 11t-6 5q-15 12-24 28-3 5-6 10t-4 9q-2 6-0.5 12.5t-2.5 12.5q1 7 0 15t-1 14q0 9 2.5 18t-0.5 14q2 13 6 19.5t10 14.5q17 8 28.5 14.5t23.5 12.5q5 2 8.5 4t7.5 4q9 5 19 8t21 8q9 5 18.5 9t18.5 9q6 0 11.5 3t12.5 3q2 0 5-0.5t6-0.5q5 0 11 0t11-2 9-6 11-4q7-7 11.5-15.5t7.5-17.5q2-5 3.5-14t1.5-15q-1-15-10.5-23t-17.5-19q-14-5-31-17-10 1-18-3.5t-19-7.5q-5-1-11 0t-11-1q-5-1-10-4t-10-1-7.5 8-0.5 12q6 10 17.5 12.5t22.5 8.5q10 5 17.5 13t15.5 16q5 6 12 12t3 16q-9 7-20.5 4t-20.5-7q-18-8-35.5-17t-34.5-17q-8-3-12-7-2-3-3-8t-3-9q-7-15-4-30 2-5 5-9.5t3-9.5q4-4 7-7.5t6-7.5q3-2 5-2.5t6-1.5q10-6 24-11 6-2 18.5-6t17.5-4q5-1 13 2t14 5q23 11 47 23t47 23q8 5 15 11.5t12 14.5q9 11 15 27t9 33q1 4 1 7.5t0 6.5q-6 11-5.5 13.5t-1.5 4.5q-7 12-8.5 16.5t-3.5 8.5q-7 11-17 19t-13 24q-6 5-8.5 13t-10.5 10q-2 5-3.5 8.5t-3.5 9.5q-6 7-9 15-6 5-10 11t-9 13q-8 8-11 12-4 5-6.5 11t-7.5 11q-3 5-7.5 9t-6.5 10q-8 9-13 20.5t-8 25.5q2 12-4 21t-3 23q5 14 11 28t10 26q5 2 6 7.5t3 10.5z"/><path transform="translate(6.5762 13.248) scale(.013672 -.013672)" d="m169 285q-7-9-14-17t-16-15q-6-11-14-20t-16-17q-4-8-9-12.5t-11-9.5q-3-5-7.5-10t-8-10-5.5-11 1-13q11-2 22 3t19 9q8 5 16.5 8.5t15.5 8.5l26 26q7 6 12 13t11 15q2 10 8 20.5t5 20.5q-1 6-3.5 10.5t-3.5 9.5q-10 0-15.5-3.5t-12.5-5.5zm-161-64q2 1 8.5 8.5t14.5 17 15 17 10 8.5q3 5 5.5 8.5t7.5 6.5q8 15 21 24.5t25 22.5q19 8 38.5 20.5t43.5 13.5q11-5 21.5-3t19.5-5q5-9 9-11.5t6-5.5q4-13 6-16.5t3-8.5q1-15 2-21.5t0-12.5q-3-27-10-51-2-6-4-12.5t-5-11.5q-7-9-10.5-15.5t-6.5-10.5q-12-12-21-20-9-5-18-11t-20-8q-5-3-9-5.5t-10-3.5q-10-7-20-10.5t-21-8.5q-6-2-13-7t-14-8q-6-2-14.5-3.5t-13.5-3.5q5-11 4-25t5-25q13-3 28.5-4.5t29.5 0.5q5 1 11 3.5t12 3.5q11 2 21.5 5t18.5 8q29 10 56 27t47 37q12 8 26.5 22t22.5 26q15 16 26.5 25t21.5 8q8 0 15.5-9.5t-1.5-20.5q-10-6-21-18t-23-17q-9-6-22.5-22t-22.5-24q-4-4-10.5-9.5t-10.5-10.5q-14-12-30-22-6 2-9-2t-8-8q-3-2-6.5-4t-6.5-4q-8-7-17.5-14t-19.5-12q-20-12-40-20.5t-39-21.5q-6-1-11-1.5t-10-1.5q-6-2-10.5-2t-12.5 2q-18 5-30 12t-24 20q-6 6-13 11t-11 11q-3 5-7 16t-7 23.5-5 24.5-2 18q2 4 4.5 14t5 21.5 4 21.5 1.5 14q1 1 5 8.5t8.5 16.5 7.5 16.5 3 9.5z"/><path transform="translate(11.102 13.248) scale(.013672 -.013672)" d="m314 270q1-3-2-12-5-6-6-13-2-4-3.5-7t-2.5-8q-2-6-1.5-14t-0.5-15q-2-11-3-21.5t-2-21.5q0-11-2-25t-4-25q4-7 5-15t7-13q20 3 32 9.5t23 18.5q9 4 12.5 7t11.5 8q2 2 4 4t4 4q11 6 13.5 8t6.5 4q17 11 26 23 9 7 12.5 12.5t15.5 10.5q7 8 14.5 13.5t14.5 13.5q5 0 8-2t7-4q3-8 1-16.5t-7-15.5-5-8-1-2q-3-4-7.5-7.5t-7.5-7.5q-5-9-8-9t-5-2q-9-5-12.5-8t-11.5-8q-11-6-13-8t-4-3q-13-14-23.5-22.5t-22.5-22.5q-4-3-8-6t-7-8q-9-6-14.5-12t-12.5-14q-6-3-13-8.5t-15-9.5q-4-2-8.5-4.5t-9.5-2.5q-12-2-22 2t-19 6q-4 6-10 10-9 11-13 26t-8 32q-8-5-15-13t-18-13q-20-19-42.5-36.5t-45.5-36.5q-3-3-6-5t-5-1q-5-6-13.5-7.5t-18.5 0.5q-10 5-18 7t-16 6q-17 3-28.5 15t-19.5 28q-3 8-4.5 15t-3.5 16q-1 8-3 13.5t0 10.5q-2 3-1 6.5t1 7.5q-1 14 2.5 30t9.5 29q2 4 8 10 2 3 3 6t3 5q2 3 6 6t7 6q5 7 11.5 12.5t12.5 11.5q3 3 5.5 7t7.5 6q4 7 9 11.5t11 9.5q17 21 42 35t45 32q7 3 12 7t10 8q13 11 27 7t26-7q10-9 19.5-18t16.5-20q7 1 16 0.5t19 1.5q3 0 6 1.5t5 1.5q15-5 15-15zm-131-7q-27-13-49-30.5t-42-37.5q-5-5-10.5-9.5t-9.5-9.5-7.5-12-6.5-13q-2-4-4-6.5t-4-5.5q-2-5-1.5-10t0.5-11q0-5 0-10t1-10q3-11 3-22 0-8 1.5-19.5t7.5-15.5 12.5-2 11.5 3q35 27 66 56.5t55 66.5q-2 26-0.5 50.5t-4.5 45.5q-4 2-9.5 1.5t-9.5 0.5z"/><path transform="translate(16.898 13.248) scale(.013672 -.013672)" d="m68 71q12 5 24 14 8 11 17 21t19 20q6 6 11.5 12t12.5 13q2 2 4 3.5t4 4.5q5 7 9 13.5t10 13.5q7 4 13 11t12 13q2 2 4.5 4t4.5 4q3 3 4.5 7t3.5 8q8 14 16 25 22 12 45 21t44 8q2-2 6-4t6-7q5-8 2-19t-10-16q-8-23-11-52t-2-55q-2-3-1.5-8.5t-2.5-7.5q4-8 10-16t17-8q12 3 15 3t5 1q4 2 6.5 4.5t5.5 3.5q2 4 4 6t4 5q10 12 19.5 26t18.5 27q6 10 10.5 17t9.5 20q2 5 4.5 10.5t4.5 11.5 0 16.5 0 15.5q5 7 5 12 7 11 7 13t1 4q2 2 4 4.5t2 6.5q16 16 41 26 18 3 31.5 8.5t21.5-3.5q-2-3 1-5.5t3-5.5q1-5-0.5-8t-1.5-6q-6-11-7-11t-2-1q-2-4-3.5-9.5t-3.5-11.5q-3-8-7-17.5t-10-18.5q-5-12-1.5-15.5t3.5-8.5q3-2 6.5-3t6.5-3 5.5-5 7.5-5q3-1 8.5-0.5t11.5-0.5q8-1 10.5 0t7.5 5q11 6 13.5 9t4.5 5q5 2 9.5 2t8.5 2q11 4 24.5 10t24.5 12q5 2 9.5 4t6.5 7q4 1 5.5 1.5t6.5 0.5q2-5 5-9t-3-10q-11-11-26.5-20t-26.5-21q-12-5-22-11.5t-24-10.5q-15-9-22-13.5t-12-5.5q-18 0-33-1-5-1-8.5 1t-9.5 4q-14 4-20 10t-12 11q-7-11-12.5-24t-13.5-22q-3-10-8-17t-9-18q-10-11-17-24.5t-18-23.5q-23-29-59-49-7 2-14-2t-12-1q-21-5-27.5 3t-13.5 11q-9 14-10.5 25t-4.5 22q-2 6-4.5 10.5t-1.5 9.5q-3 13-6.5 21.5t-5.5 19.5q-1 9-0.5 18t-2.5 19q-18-3-22.5-12.5t-12.5-14.5q-4-11-11-16.5t-12-16.5q-11-6-19.5-16t-19.5-19q-10-6-13.5-10t-8.5-6q-3-5-8-9.5t-10-9.5-9-9.5-9-8.5q-4-5-7.5-7.5t-6.5-4.5-6-5.5-5-4.5q-14-9-22-13.5t-14-1.5q-8-2-15 2.5t-13 8.5q-5 7-10 13t-7 14q-6 8-11 18.5t-9 21.5q-1 20-3 30t-1 20q1 12 7.5 21.5t10.5 19.5q-1 8 3 12t3 10q9 24 19 36.5t15 29.5 12.5 29.5 12.5 28.5q4 7 6.5 15t7.5 16q3 3 5.5 6t5.5 5q8 2 14 7t14 7q7 2 11.5 2t9.5 3q13 8 17.5 9t9.5 3q7-6 11-12.5t2-16.5q-6-6-7-9.5t-3-6.5q-2-4-6-7t-6-7-3.5-7-3.5-6q-2-2-4.5-4t-4.5-5q-2-2-3-5t-3-6q-4-5-9.5-9t-7.5-8q-2-6-3.5-14.5t-3.5-16.5q-3-10-11-25.5t-12-26.5q-2-9-3.5-17.5t-3.5-16.5q-1-4-3-7t-3-6q-5-14-5.5-30t11.5-20z"/><path transform="translate(25.402 13.248) scale(.013672 -.013672)" d="m169 285q-7-9-14-17t-16-15q-6-11-14-20t-16-17q-4-8-9-12.5t-11-9.5q-3-5-7.5-10t-8-10-5.5-11 1-13q11-2 22 3t19 9q8 5 16.5 8.5t15.5 8.5l26 26q7 6 12 13t11 15q2 10 8 20.5t5 20.5q-1 6-3.5 10.5t-3.5 9.5q-10 0-15.5-3.5t-12.5-5.5zm-161-64q2 1 8.5 8.5t14.5 17 15 17 10 8.5q3 5 5.5 8.5t7.5 6.5q8 15 21 24.5t25 22.5q19 8 38.5 20.5t43.5 13.5q11-5 21.5-3t19.5-5q5-9 9-11.5t6-5.5q4-13 6-16.5t3-8.5q1-15 2-21.5t0-12.5q-3-27-10-51-2-6-4-12.5t-5-11.5q-7-9-10.5-15.5t-6.5-10.5q-12-12-21-20-9-5-18-11t-20-8q-5-3-9-5.5t-10-3.5q-10-7-20-10.5t-21-8.5q-6-2-13-7t-14-8q-6-2-14.5-3.5t-13.5-3.5q5-11 4-25t5-25q13-3 28.5-4.5t29.5 0.5q5 1 11 3.5t12 3.5q11 2 21.5 5t18.5 8q29 10 56 27t47 37q12 8 26.5 22t22.5 26q15 16 26.5 25t21.5 8q8 0 15.5-9.5t-1.5-20.5q-10-6-21-18t-23-17q-9-6-22.5-22t-22.5-24q-4-4-10.5-9.5t-10.5-10.5q-14-12-30-22-6 2-9-2t-8-8q-3-2-6.5-4t-6.5-4q-8-7-17.5-14t-19.5-12q-20-12-40-20.5t-39-21.5q-6-1-11-1.5t-10-1.5q-6-2-10.5-2t-12.5 2q-18 5-30 12t-24 20q-6 6-13 11t-11 11q-3 5-7 16t-7 23.5-5 24.5-2 18q2 4 4.5 14t5 21.5 4 21.5 1.5 14q1 1 5 8.5t8.5 16.5 7.5 16.5 3 9.5z"/><path transform="translate(29.928 13.248) scale(.013672 -.013672)" d="m169 285q-7-9-14-17t-16-15q-6-11-14-20t-16-17q-4-8-9-12.5t-11-9.5q-3-5-7.5-10t-8-10-5.5-11 1-13q11-2 22 3t19 9q8 5 16.5 8.5t15.5 8.5l26 26q7 6 12 13t11 15q2 10 8 20.5t5 20.5q-1 6-3.5 10.5t-3.5 9.5q-10 0-15.5-3.5t-12.5-5.5zm-161-64q2 1 8.5 8.5t14.5 17 15 17 10 8.5q3 5 5.5 8.5t7.5 6.5q8 15 21 24.5t25 22.5q19 8 38.5 20.5t43.5 13.5q11-5 21.5-3t19.5-5q5-9 9-11.5t6-5.5q4-13 6-16.5t3-8.5q1-15 2-21.5t0-12.5q-3-27-10-51-2-6-4-12.5t-5-11.5q-7-9-10.5-15.5t-6.5-10.5q-12-12-21-20-9-5-18-11t-20-8q-5-3-9-5.5t-10-3.5q-10-7-20-10.5t-21-8.5q-6-2-13-7t-14-8q-6-2-14.5-3.5t-13.5-3.5q5-11 4-25t5-25q13-3 28.5-4.5t29.5 0.5q5 1 11 3.5t12 3.5q11 2 21.5 5t18.5 8q29 10 56 27t47 37q12 8 26.5 22t22.5 26q15 16 26.5 25t21.5 8q8 0 15.5-9.5t-1.5-20.5q-10-6-21-18t-23-17q-9-6-22.5-22t-22.5-24q-4-4-10.5-9.5t-10.5-10.5q-14-12-30-22-6 2-9-2t-8-8q-3-2-6.5-4t-6.5-4q-8-7-17.5-14t-19.5-12q-20-12-40-20.5t-39-21.5q-6-1-11-1.5t-10-1.5q-6-2-10.5-2t-12.5 2q-18 5-30 12t-24 20q-6 6-13 11t-11 11q-3 5-7 16t-7 23.5-5 24.5-2 18q2 4 4.5 14t5 21.5 4 21.5 1.5 14q1 1 5 8.5t8.5 16.5 7.5 16.5 3 9.5z"/><path transform="translate(34.453 13.248) scale(.013672 -.013672)" d="m344 86q8 0 10-1t5-1q4 0 11.5 4.5t15 10.5 14 12 10.5 9q9 2 18 10t17 18 14.5 20 12.5 16q24 24 33.5 35t12.5 15 3.5 3.5 5.5-0.5q8 0 11.5-7.5t6.5-12.5q-2-2-2-6t-2-7-6-6-7-7l-10-12q-12-12-20.5-26t-16.5-27.5-16-25-18-17.5q-27-17-42.5-36t-34.5-30q-2 0-2.5 0.5t-1.5 0.5q-4 0-6.5-2t-5.5-2q-8 3-14 5.5t-12.5 7.5-14 14.5-17.5 26.5q-5 8-8 16.5t-8 17.5q-8 15-13.5 24.5t-5.5 33.5q0 10 2 30t4 32q-16-16-28.5-38.5t-24.5-41.5q-17-26-34.5-48.5t-18.5-35.5q-6-6-11-14t-8.5-14.5-5-11 0.5-2.5q-14-23-40.5-32.5t-49.5-9.5q-9 1-18 2t-17 7l-15 11q-16 8-22 25t-6 37q12 31 14.5 56.5t11.5 48.5q14 37 39.5 66t53.5 53 53.5 43 40.5 37q7 1 16 6t19 10.5 20.5 9.5 21.5 4q12 0 18.5-3t10.5-7.5 5.5-9.5 4.5-10q6 16 10 33.5t11 31.5q6 31 20.5 66t29 64.5 26 50 13.5 23.5q15 23 33.5 40.5t30.5 35.5q10 11 19.5 27.5t15.5 20.5q15-4 22-11.5t9-15.5 1-16-1-12q0-16-3-32l-34-71q-14-26-26.5-53t-23.5-55q-19-36-40.5-63t-39.5-58q-4-11-10.5-20.5t-12.5-19.5l-18-43q-6-8-6-15 2-5 2-8t0-5q0-9-0.5-18t-0.5-19q0-26 1-51.5t3-48.5q-2-4-2-5 0-7 7.5-14.5t9.5-12.5zm-96 243-25-16q-8-3-20-14.5t-21-19.5l-21-19q-7-13-19-22t-20-20q-11-14-21.5-33t-9.5-32q-5-18-11-31t-6-29q0-13 8.5-13.5t12.5-0.5q12 8 24.5 21.5t24 28 20 28.5 12.5 25q11 19 25 40.5t31 38.5l26 42q2 5 4 9t2 9q0 7-4 12-4 0-7-1.5t-5-2.5z"/><path transform="translate(44.898 13.248) scale(.013672 -.013672)" d="m198 596q5 8 6 14.5t6 14.5q20 11 36 26.5t37 25.5q14 10 22.5 13.5t16.5 9.5q9 4 17.5 8t19.5 7q8 2 14 5.5t12 5.5q14 5 28 9t27 8q5 2 12 5t13 2q11-2 13.5-1t4.5 1q8 1 13.5-2t12.5-5q6-2 11.5-3t10.5-3 8.5-5.5 6.5-6.5q4-2 7.5-5t7.5-6q8-17 18-34t10-41q-6-9-7-9t-2-2q-11-7-16-12.5t-11-11.5l-14-14q-3-2-7-3.5t-5-6.5q-8-4-13-10t-13-9q-9-11-22-17.5t-24-14.5q-11-7-14.5-9t-6.5-5q-11-5-19.5-10t-19.5-9q-5-2-9.5-5t-11.5-2q-5 2-10 4.5t-9-4.5q-13-2-24.5 4.5t-12.5 18.5q-12 10-7 27 2 8 7.5 16t9.5 15q5 9 9 17.5t9 16.5q14 15 28.5 28t36.5 18q7 2 14 4t13 4q3-2 6 0t6 0q4-3 3-7t-1-9q-3-4-8-5.5t-9.5-3-8.5-4-5-8.5q-28-24-50-60 3-2 8-5t10-4q8-2 18.5 4t16.5 9q28 13 50 35 6 5 12.5 11t9.5 12q4 5 7 10t8 8q1 9-2.5 14.5t-8 11-9.5 10.5-7 12q-5 2-8.5 7t-8.5 7q-2 0-8.5 1t-7.5 1q-25-5-39-11t-28-12q-34-18-63-42-3-2-7-4t-6-4q-5-4-8.5-10t-8.5-12q-5-7-10.5-13.5t-7.5-14.5q-6-3-8-11.5t-7-13.5q-2-8-5-14.5t-5-15.5q9-18 13.5-28t9.5-20q1-11 6.5-19.5t10.5-19.5q14-23 25.5-48.5t25.5-48.5q6-14 11.5-27.5t16.5-23.5q2-7 5.5-13.5t6.5-13.5q4-12 11-26 3-8 7-14t6-12q4-9 6.5-22.5t1.5-22.5q0-10-1-14t-3-6.5-4-5.5-4-12q-9-16-21-29t-21-30q-6-8-13-14t-14-12q-7-5-14.5-9t-13.5-10q-17-15-35.5-21.5t-34.5-17.5q-6 0-12-1.5t-12-3.5q-5-2-10.5-4t-11.5-4q-5-2-8.5-4t-8.5-4q-14-3-30-3.5t-33 3.5q-19 7-29.5 6t-18.5 8q-5 2-5.5 5t-4.5 6q-11 9-14 11t-6 5q-15 12-24 28-3 5-6 10t-4 9q-2 6-0.5 12.5t-2.5 12.5q1 7 0 15t-1 14q0 9 2.5 18t-0.5 14q2 13 6 19.5t10 14.5q17 8 28.5 14.5t23.5 12.5q5 2 8.5 4t7.5 4q9 5 19 8t21 8q9 5 18.5 9t18.5 9q6 0 11.5 3t12.5 3q2 0 5-0.5t6-0.5q5 0 11 0t11-2 9-6 11-4q7-7 11.5-15.5t7.5-17.5q2-5 3.5-14t1.5-15q-1-15-10.5-23t-17.5-19q-14-5-31-17-10 1-18-3.5t-19-7.5q-5-1-11 0t-11-1q-5-1-10-4t-10-1-7.5 8-0.5 12q6 10 17.5 12.5t22.5 8.5q10 5 17.5 13t15.5 16q5 6 12 12t3 16q-9 7-20.5 4t-20.5-7q-18-8-35.5-17t-34.5-17q-8-3-12-7-2-3-3-8t-3-9q-7-15-4-30 2-5 5-9.5t3-9.5q4-4 7-7.5t6-7.5q3-2 5-2.5t6-1.5q10-6 24-11 6-2 18.5-6t17.5-4q5-1 13 2t14 5q23 11 47 23t47 23q8 5 15 11.5t12 14.5q9 11 15 27t9 33q1 4 1 7.5t0 6.5q-6 11-5.5 13.5t-1.5 4.5q-7 12-8.5 16.5t-3.5 8.5q-7 11-17 19t-13 24q-6 5-8.5 13t-10.5 10q-2 5-3.5 8.5t-3.5 9.5q-6 7-9 15-6 5-10 11t-9 13q-8 8-11 12-4 5-6.5 11t-7.5 11q-3 5-7.5 9t-6.5 10q-8 9-13 20.5t-8 25.5q2 12-4 21t-3 23q5 14 11 28t10 26q5 2 6 7.5t3 10.5z"/><path transform="translate(51.475 13.248) scale(.013672 -.013672)" d="m416 230q10-12 9.5-17t-0.5-11q-5-6-8-12.5t-9-11.5q-5-4-10.5-5.5t-9.5-6.5q-6-2-10-5t-12-2q-24-24-42.5-39t-38.5-29q-15-13-31.5-24t-33.5-22q-5-5-9-9.5t-10-7.5q-12-12-24.5-21.5t-23.5-19.5q-11-8-23.5-11t-23.5-8q-19-8-29-3-11-2-18.5-3.5t-18.5 1.5q-3 1-6 3t-7 4q-10 4-15.5 8.5t-9.5 8.5q-3 3-7 8.5t-6 9.5q-5 8-6.5 19.5t-4.5 22.5q-2 11-6 22t-3 23q1 8 3.5 15.5t4.5 15.5q6 14 10 26t9 23q3 5 6.5 8t6.5 8q2 2 2.5 6t2.5 7q8 9 17 18.5t16 20.5q5 7 10.5 12.5t10.5 12.5q6 8 8.5 9.5t4.5 4.5q6 6 11 12.5t10 13.5q7 7 14.5 15t15.5 13q9 5 18.5 9t20.5 9q5 2 9.5 5t9.5 5q6 2 11 3t9 5q6-1 11 2t10 5q5 1 9.5 0t7.5 2q3-2 6.5-2t5.5-2q4-1 7.5-5t4.5-9q2-15-7.5-31t-16.5-24q-5-8-11-13.5t-14-10.5q-12 0-24.5-1.5t-22.5 0.5q-2-4-5.5-5.5t-1.5-5.5q-34-29-60-61.5t-41-76.5q-5-17-10-24.5t-5-15.5q6-21 20-35.5t28-16.5q16-2 28.5 6t23.5 14q14 10 27.5 18t28.5 17q4 2 8 4.5t8 5.5q13 9 23.5 17.5t21.5 16.5q5 1 7.5 3.5t7.5 2.5q18 16 39 28.5t44 25.5q7 7 14.5 12.5t14.5 12.5q7 0 10 3.5t9 3.5z"/><path transform="translate(56.164 13.248) scale(.013672 -.013672)" d="m291 79q4 5 6 7.5t6 4.5q7 15 15.5 24.5t17.5 18 19.5 16 23.5 18.5q5 0 8.5 3.5t8.5 5.5q7 6 11.5 9t7.5 8q12 6 21.5 15t20.5 17q9 2 17-2 4-8 3-17t-10-10q-3-3-6.5-6t-8.5-4q-6-1-8.5-2.5t-4.5-5.5q-1-10-2.5-11.5t-2.5-3.5q-6-10-12.5-17.5t-12.5-14-12-14-13-18.5q-6-4-9-11-18-10-26.5-15.5t-15.5-13.5q-6-4-6-6t-2-4q-10-8-11.5-12.5t-4.5-6.5q-10-7-15-12.5t-13-8.5q-6-5-17-12t-24-13-25.5-8.5-21.5 1.5q-4 3-7 5.5t-7 4.5q-7 8-14.5 13.5t-13.5 14.5q-7 10-9.5 21.5t-7.5 22.5q-1 12 0 23.5t4 19.5q11 34 26.5 59t21.5 57q-11 11-12.5 20.5t-5.5 26.5q-26-17-48-43t-39-53q-7-12-12-22t-12-18q-5-5-5-6.5t-2-3.5q-8-10-10-14t-4-7-5-6-5-6q-14-20-25.5-37.5t-23.5-35.5q-5-8-9-17t-10-16q-10-1-11.5 3t0.5 7q-6 4-9.5 12.5t-4 18.5 0.5 20 4 17q-3 9-2 10t1 3q13 18 26.5 36t28.5 34q5 7 9.5 14t10.5 13q9 16 20.5 30t19.5 31q5 5 7.5 11t8.5 10q7 12 11 23t11 19q2 7 5 11t8 9q1 5 5.5 8.5t7.5 8.5q2 7 5 9t3 7q5 5 10 10.5t9 13.5q14 8 19.5 8t8.5 5q8 0 19 0.5t12-7.5q1-2 0-5t-2-6q1-9 0-9.5t-1-1.5q-1-3-0.5-7t0.5-9q-1-8-2-12.5t4-11.5q2-3 6-5.5t7-6.5q3-3 3.5-6t3.5-6q2-3 6-5t6-7q5-4 3.5-5t4.5-4q12-15 17-31 6-12 11-20t0-16q-2-2-3.5-5t-3.5-7q-4-4-8-10-2-4-3-7.5t-3-6.5q-9-14-18.5-26t-16.5-25q1-29 11-42 12-14 15-14 6-1 14 4t13 8q4 2 7 4t7 3q11 4 10 2.5t1-1.5z"/><path transform="translate(61.496 13.248) scale(.013672 -.013672)" d="m231 498q2-3 2-6t3-5q-2-9-3.5-18.5t-1.5-18.5q0-4 2.5-7t2.5-6q-5-12-7.5-14t-2.5-5q-5-2-7.5-6t-8.5-4q-2-3-4.5-4.5t-3.5-5.5q-16-7-36 1-5 9-14 13-13 19-1 45 2 5 4.5 10.5t4.5 7.5q11 8 16 10 4 2 8.5 5t10.5 5q2 1 5.5 1t7.5 2q4 1 7 2t6 1zm-155-442q9 4 22 3t21 4q4 3 7 6t7 2q16 6 27 12t24 9q3 1 7.5 4t6.5 5q16 5 23 10t13.5 10 13 10.5 16.5 13.5q14 8 23.5 14t20.5 15q2 5 5.5 7.5t5.5 6.5q18 0 20-14-5-11-13.5-18t-15.5-16q-8-5-13-9t-10-12q-1 0-6-4.5t-6-4.5q-6-7-8.5-9t-4-2.5-4-2.5-9.5-8q-7-11-18-18-21-20-45.5-34.5t-44.5-28.5q-4-2-7-5.5t-7-6.5q-5-4-15.5-8t-18.5-7q-6-4-11-6-22-1-34 7-13 7-20 11t-12 13q-11 5-13.5 18.5t-5.5 26.5q-1 5-2 11.5t0 13.5q2 11 3 23.5t5 21.5q5 11 5.5 22t5.5 22q6 10 5.5 11t0.5 3q2 3 4.5 6t4.5 7l6 15q4 7 9 14t8 17q2 6 5.5 11t7.5 11q3 6 5 12.5t5 13.5q3 8 7.5 16t9.5 16q4 8 7 12t12 5q4 1 9-0.5t10 0.5q13 6 18 6t7 3q11-1 16-7t12-12q-6-29-13.5-44.5t-16.5-32.5q-5-8-10-18t-9-18q-5-11-10.5-19.5t-9.5-19.5q-2-5-4.5-9.5t-4.5-9.5q-2-7-5.5-12.5t-6.5-10.5q-3-6-6-12t-5-13q-5-12-6-14.5t-2-4.5q-2-11-6-18t3-10z"/><path transform="translate(65.146 13.248) scale(.013672 -.013672)" d="m271 116q17 5 34 9t35 6q16 1 33 6 7 2 14 4.5t13 4.5q7 2 13.5 3.5t11.5 2.5q8-6 7.5-6.5t1.5-2.5l-8-14q-4-3-9.5-4t-10.5-3q-4-2-6-4t-4-3q-4-1-6.5 0.5t-4.5 2.5q-24-16-55-22t-59-15q-10-5-20-10.5t-21-12.5q-8-16-22.5-31t-29.5-26q-3-2-6.5-4.5t-5.5-3.5q-7-3-15.5-5t-15.5-4q-2-2-5-4t-5-2q-6-1-12 2t-13 4q-5 10-6 12.5t-4 3.5q-3 11-11.5 19t-13.5 19q-2 4-3.5 8.5t-1.5 8.5q1 11 9 19t16 13q6-9 10.5-7t7.5 4q5 2 8.5 2.5t6.5 1.5q8 2 16 3.5t16 2.5q10 1 17-0.5t16 0.5q5 9 12.5 17t14.5 15q5 12 13 26t16 27l9 18q2 2 3.5 4t3.5 6q2 8 1.5 15.5t-1.5 16.5q-9 5-19 15-6-2-11.5 0t-11.5 0q-3-1-6-3t-7-4q-9-5-19.5-9t-16.5-12q-11-11-18-19t-15-17q-10-8-12.5-11.5t-4.5-5.5q-6-6-12-11t-11-11q-2-3-5.5-5.5t-5.5-5.5q-6-7-10.5-15t-9.5-16-10-16-10-16q-11-31-25-60.5t-25-61.5q-2-11-3-11.5t-1-2.5q-2-8-3.5-14.5t-4.5-12.5q-2-8-6-16.5t-8-16.5q-6-14-12-30.5t-12-31.5q-5-11-8.5-22t-7.5-22q-3-6-3.5-12t-2.5-12q-3-11-7.5-23t-5.5-23q-15-14-20-24-11-11-23-19.5t-27-14.5q-5 0-11.5 0t-12.5 1.5-11 4.5-5 9q-1 9 0.5 23t6.5 24q4 11 8.5 21t8.5 17q6 25 15 44 5 11 10 20.5t9 20.5q2 7 3 15t6 14q7 17 17.5 32t21.5 30q5 8 9 16.5t9 16.5q9 15 15 32t17 31q5 11 10 20.5t10 19.5q2 5 3.5 10.5t3.5 10.5q6 9 11 19 9 20 18.5 39.5t21.5 38.5q1 11 5.5 20t8.5 20q3 8 4.5 17t3.5 17q2 7 7 14t9 15q2 3 4 6.5t4 6.5q3 6 4.5 10.5t5.5 9.5q11 13 15.5 15.5t10.5 6.5q20 1 25-9.5t9-21.5q-2-8-4-16t-4-19q8 7 17.5 15t17.5 16q17 10 33 21.5t36 19.5q5 2 10.5 4t10.5 2 8.5-2.5 9.5-3.5q5-5 11.5-9.5t11.5-10.5q4-5 6-12t4-14 5.5-14 4.5-13q0-5-1-10t-1-10q0-3 0.5-6t0.5-8q-1-11-8-25t-12-25q-4-8-7-15t-7-15q-5-11-9-20t-8-18z"/><path transform="translate(70.52 13.248) scale(.013672 -.013672)" d="m305 552q13-2 22-3t16.5-1.5 15.5 0 20 2.5q22 3 39.5 5.5t38.5 4.5q6 1 12.5 0t12.5-1q13 0 25.5 1t23.5 2q4 1 7 2t6 0q9 0 18 0.5t16-6.5q3-10 2-11t-2-3q-1-13-3.5-13t-2.5-2q-8-2-13.5-3.5t-8.5-6.5q-17-4-31.5-1.5t-29.5-4.5q-7-3-14.5-7.5t-18.5-0.5q-10 0-23-1t-25-2q-23-2-39.5-3.5t-31.5-2-30.5-1.5-37.5-1q-8-7-10.5-17t-10.5-16q-8-19-13-25.5t-7-15.5q-14-18-25.5-37.5t-26.5-36.5q-2-11-7.5-19.5t-7.5-22.5q-11-15-16-33t-13-38q-2-8-4.5-15.5t-5.5-15.5q-4-10-9.5-18.5t-10.5-18.5q-2-2-2-5.5t-1-5.5q-3-7-6-12.5t-5-10.5-2.5-10.5-2.5-10.5q-1-3-2-5.5t-2-5.5q-3-14 0-19t5-10q2-6 4-10.5t3-9.5q5-2 9.5-4t9.5-2q6-1 13 5.5t12 7.5q7 2 13.5 2t11.5 3q6 5 10 10t11 7q16 4 17 6.5t7 7.5q7 5 12.5 9.5t13.5 9.5q10 5 11.5 6t8.5 7q10 5 17 11t16 11q10 4 12 5.5t2.5 2.5 2 3 9.5 7q4 8 9 13t12 13q6 7 12.5 12t11.5 10q3 2 5 4.5t7 3.5q6 5 9.5 8.5t11.5 10.5q2 2 5 5t5 4q4 0 6.5-3t6.5-3q-1-13-1-16.5t-2-7.5q-6-9-13.5-10t-11.5-11q-3 2-7.5 1t-6.5-3q2-4 2-7t1-7q-18-18-24-29-12-13-13-14.5t-1-1.5-1-1-7-7q-14-11-21-21t-21-18q-11-8-15-12t-12-11q-4-4-7.5-8.5t-8.5-8.5q-7-5-13.5-9t-11.5-10q-15-7-21.5-16t-19.5-17q-9-6-24.5-15t-26.5-13q-3-1-5.5-2t-5.5-2q-8 5-15.5 10t-12.5 14q-9 7-14.5 10t-10.5 8q-10 17-22.5 34t-19.5 38q-2 4-2.5 8.5t-1.5 9.5q-2 8-4 14t-1 15q0 6 2 13t4 15q4 13 9.5 25t8.5 26q3 11 6 20t7 20q2 5 2.5 9.5t5.5 6.5q4 20 13 38.5t18 35.5q11 21 20.5 43t20.5 43q1 12 8 20 1 11 8 21.5t10 21.5q-11 3-24.5 0.5t-23.5-4.5q-18-1-38 0-7 1-13.5 2.5t-12.5 1.5q-9-1-13.5 1.5t-9.5 0.5q-13 11-19 15t-11.5 7.5-10 8-7.5 13.5q0 3 3 5t5 4q8 2 18 1.5t16 3.5q16-2 29.5 2t28.5 3q3 0 6-1t6-1q5-1 8.5 0t8.5 2q6 1 13 0t14 0q13 1 31.5-2.5t32.5 1.5q5 14 11.5 28.5t10.5 28.5q4 6 8 13.5t6 14.5q6 10 9.5 16t8.5 12q7 14 10.5 27.5t9.5 29.5q13 14 26 34 7-1 11.5 4t13.5-1q0-3 2.5-5.5t0.5-7.5q5-5 8-9t5-9q2-8-1.5-18.5t1.5-19.5q2-5 1-9.5t1-8.5q2-5 5.5-10t3.5-13q0-3-1.5-7.5t-3.5-9.5q-4-15-6-21t-4-13q-7-8-7-10.5t-1-4.5q-3-6-6.5-14.5t-6.5-13.5z"/></svg>