<svg width="58.422" height="16.8" viewBox="0 0 58.422 16.8" xmlns="http://www.w3.org/2000/svg"><path transform="translate(0 13.3) scale(.014 -.014)" d="m490 171q0-55-33.5-96.5t-88-64.5-117.5-23q-43 0-80.5 10t-60.5 20l8-20q3-7-5-12t-17-5q-8 0-11 5-8 22-16.5 54.5t-14.5 68-8 65.5q0 5 5 7.5t12 2.5q5 0 10-1.5t6-5.5q6-19 19.5-44.5t35.5-50 53.5-40.5 71.5-16q62 0 94 33.5t32 73.5q0 48-22 81t-57.5 57-74.5 46-74.5 47-57.5 60.5-22 86.5q0 48 29.5 87.5t81.5 63 119 23.5q41 0 68.5-7.5t27.5-7.5q-1 3-2.5 12t-1.5 11q-1 5 4 7.5t11 2.5q12 0 15-8 12-42 19-85t8-74q-1-3-7.5-4.5t-13.5-1.5q-9 0-12 3-7 25-20 51t-39 44.5-72 18.5-71-16.5-34.5-41-9.5-48.5q0-40 22.5-68t58.5-50 75.5-44 75.5-49 58.5-65 22.5-93z"/><path transform="translate(7.532 13.3) scale(.014 -.014)" d="m387 250q-52-4-125-3t-169-5q0-47 17-79.5t44-52.5 58.5-29 60.5-9q41 0 66.5 8t40 18 22.5 18 15 8q11 0 11-12 0-6-9.5-26t-30-43-55.5-39.5-86-16.5q-60 0-107 31.5t-74 81.5-27 105q0 57 20.5 102.5t54 77 73.5 48 80 16.5q43 0 77.5-21t55.5-58.5 21-89.5q0-16-7-22t-27-8zm-147 145q-30 0-60.5-13.5t-53-40.5-30.5-68q35 4 75 7t76 6 56 6q18 2 25.5 6t7.5 13q0 34-27.5 59t-68.5 25z"/><path transform="translate(14.056 13.3) scale(.014 -.014)" d="m484 146q0-34 2.5-53t11.5-27q8-6 21-6 9 0 18 1.5t16 1.5q3 0 5.5-5t2.5-10q0-13-6-15-43-7-69-18t-39.5-19.5-20.5-8.5q-11 0-16 14.5t-6.5 32.5-2.5 28h-2q-25-31-66.5-53t-99.5-22q-91 0-142.5 60t-51.5 157q0 68 31.5 123.5t84.5 89 116 33.5q55 0 83.5-15.5t44.5-28.5v178q0 43-4 63.5t-9.5 27-11.5 6.5h-45q-3 0-5.5 5.5t-2.5 10.5q0 3 1 8.5t5 5.5q54 0 88.5 14t54.5 22q15 0 15-12 0-14 0-50.5t-0.5-87.5-0.5-108 0-113zm-85 127q-7 80-40.5 110.5t-84.5 30.5q-49 0-79-30t-43-74.5-13-89.5q0-44 18-83.5t52-64 82-24.5q47 0 70.5 17t37.5 29z"/><path transform="translate(22.078 13.3) scale(.014 -.014)" d="m375 324q0-30-2.5-67.5t-5-73-2.5-60.5q0-39 12-53t32-14q23 0 30.5 10.5t14.5 10.5q10 0 10-10 0-16-13.5-34.5t-34.5-31-45-12.5q-40 0-58 32t-17 79h-3q-17-48-60-80.5t-98-32.5q-40 0-65 19t-25 56q0 59 66.5 108t179.5 83q1 13 1.5 23.5t0.5 16.5q0 50-19 87t-66 37q-36 0-62.5-22t-26.5-69q0-5 0-10.5t1-11.5q-4-5-11.5-7.5t-15.5-2.5q-17 0-33.5 11t-16.5 36q0 32 28 56.5t69 38.5 80 14q71 0 113-28.5t42-97.5zm-193-282q38 0 71.5 47t37.5 135q-60-22-93-44t-46.5-44.5-13.5-46.5q0-21 10.5-34t33.5-13z"/><path transform="translate(28.672 13.3) scale(.014 -.014)" d="m193 388q30 28 70 45t73 17q74 0 120-43.5t46-148.5v-140q0-38 3-57t8-25 10-6h49q4 0 6-6t2-11q0-4-1.5-8.5t-4.5-4.5q-27 0-43 0.5t-30.5 0.5-35.5 0q-43 0-65-1.5t-51-1.5q-3 0-5 5.5t-2 9.5q0 5 1.5 10t3.5 5h58q12 0 12 17v169q0 68-11.5 107.5t-39 56.5-75.5 17q-30 0-56-11.5t-41-28.5v-237q0-38 3-57t8-25 10-6h49q4 0 6-6t2-11q0-4-1.5-8.5t-4.5-4.5q-27 0-43.5 0.5t-30.5 0.5-35 0q-43 0-65-1.5t-51-1.5q-3 0-5 5.5t-2 9.5q0 5 1.5 10t3.5 5h58q12 0 12 17v235q0 43-4 63.5t-10.5 27-13.5 6.5h-20q-3 0-5.5 5.5t-2.5 10.5q0 3 1 8.5t5 5.5q23 0 43 10.5t35.5 25 26.5 25 15 10.5q14 0 14-12 0-18-0.5-29.5t-1-21.5-0.5-27z"/><path transform="translate(40.712 13.3) scale(.014 -.014)" d="m490 171q0-55-33.5-96.5t-88-64.5-117.5-23q-43 0-80.5 10t-60.5 20l8-20q3-7-5-12t-17-5q-8 0-11 5-8 22-16.5 54.5t-14.5 68-8 65.5q0 5 5 7.5t12 2.5q5 0 10-1.5t6-5.5q6-19 19.5-44.5t35.5-50 53.5-40.5 71.5-16q62 0 94 33.5t32 73.5q0 48-22 81t-57.5 57-74.5 46-74.5 47-57.5 60.5-22 86.5q0 48 29.5 87.5t81.5 63 119 23.5q41 0 68.5-7.5t27.5-7.5q-1 3-2.5 12t-1.5 11q-1 5 4 7.5t11 2.5q12 0 15-8 12-42 19-85t8-74q-1-3-7.5-4.5t-13.5-1.5q-9 0-12 3-7 25-20 51t-39 44.5-72 18.5-71-16.5-34.5-41-9.5-48.5q0-40 22.5-68t58.5-50 75.5-44 75.5-49 58.5-65 22.5-93z"/><path transform="translate(48.244 13.3) scale(.014 -.014)" d="m46 313q0 90 34.5 159t93 116.5 132 71.5 152.5 24q47 0 88-11t73-28v23q0 5 5 7t11 2q13 0 13-9 0-37 2.5-75t7.5-73q1-5-4-7.5t-12-2.5q-6 0-11 2.5t-6 7.5l-8 47q-41 38-86 55t-95 17q-71 0-132-34t-97.5-101-36.5-168q0-102 39-169.5t103-101 140-33.5q98 0 186 60l6 47q2 11 18 11 6 0 11-3t4-8q-5-26-6.5-62.5t-1.5-74.5q0-8-15-8-6 0-11 2t-5 6v24q-97-39-192-39-82 0-154.5 21t-128 62.5-86.5 102.5-31 140z"/></svg>