<svg width="70.308" height="18.55" viewBox="0 0 70.308 18.55" xmlns="http://www.w3.org/2000/svg"><path transform="translate(0 13.65) scale(.014 -.014)" d="m219-50q-97 0-164 46-75 53-75 145 0 70 54 122 55 53 123 53 44 0 75.5-26.5t31.5-71.5q0-16-17-16-11 0-17 20-9 29-18 38-16 21-53 21-56 0-101-42-44-42-44-97 0-76 63-120 56-38 139-38 56 0 104.5 13.5t89.5 41.5q89 62 89 157 0 97-93 143l-171 63q-92 41-92 126 0 83 75 132 65 42 150 42 65 0 110-33 51-37 51-102 0-41-31-69-29-28-71-28-25 0-42 15t-17 40q0 17 17 17 12 0 18-23 4-16 25-16 23 0 44.5 18.5t21.5 45.5q0 51-40 78-35 23-90 23-68 0-124-35-63-40-63-102 0-71 92-107l172-66q92-53 92-161 0-112-98-183-89-64-216-64z"/><path transform="translate(7.532 13.65) scale(.014 -.014)" d="m165-13q-75 0-116 47t-41 122q0 112 75 182 65 62 143 62 41 0 66.5-20.5t25.5-58.5q0-60-68-98-59-32-135-32-41 0-67 10-2-11-3.5-22.5t-1.5-22.5q0-61 31-99.5t90-38.5q106 0 169 99 8 12 14 19t14 7q10 0 10-12 0-7-1.5-11t-2.5-6q-34-58-88-92.5t-114-34.5zm-53 238q64 0 114 25 58 28 58 73 0 43-61 43-55 0-102-41-42-36-64-91 23-9 55-9z"/><path transform="translate(12.194 13.65) scale(.014 -.014)" d="m304-8q-37 0-58 20t-21 56q0 13 7 41t19 62q14 41 21.5 66t9.5 35q2 11 3 20t1 17q0 57-48 57-68 0-131-106-32-54-76-169-4-14-12.5-34.5t-19.5-47.5q-5-11-13-11-7 0-13 6.5t-6 12.5q0 4 34 97 65 180 65 277 0 19 17 19 10 0 16-13.5t6-23.5q0-27-9-65 68 93 147 93 83 0 83-90 0-39-41-156-7-20-13.5-44t-6.5-44q0-18 7.5-29.5t27.5-11.5q22 0 47 13.5t48 34.5 37 44q9 14 14.5 21t13.5 7q12 0 12-14 0-2-2-9t-4-9q-17-32-44-60t-58-45-60-17z"/><path transform="translate(18.242 13.65) scale(.014 -.014)" d="m388-16q-84 0-104 98-70-88-157-88-59 0-92 47-30 42-30 102 0 104 83 181 74 69 154 69 40 0 63-23 68 252 163 252 53 0 53-53 0-65-84-226-11-21-42.5-76t-83.5-144q3-52 23-79.5t55-27.5q42 0 75.5 31.5t55.5 69.5q5 8 13.5 17t15.5 9q5 0 7-3.5t2-7.5q0-3-1.5-9.5t-2.5-8.5q-15-29-40.5-59.5t-57.5-50.5-68-20zm-77 210q37 64 62 107.5t38 67.5q67 126 76 183 1 4 1 7.5t0 6.5q0 23-18 23-26 0-60-49-40-60-69-164-25-93-30-182zm-183-166q85 0 149 103-1 9-1 18t0 18q0 20 1.5 40t3.5 42q-10-3-25-3-27 0-27 16 0 19 18 19 3 0 6-1h6q25 0 29 16l6 24q-4 37-55 37-78 0-139-67-60-67-60-146 0-48 20-80 24-36 68-36z"/><path transform="translate(29.022 13.65) scale(.014 -.014)" d="m226-31q-87 0-150 45-70 51-70 136 0 83 53 136t135 53q56 0 96-28 45-31 45-87 0-18-10-31-12-17-30-17-19 0-19 19 0 16 17 18 7 0 7 10 0 38-34 60-31 20-72 20-67 0-109-43t-42-110q0-70 59-111 52-34 129-34 257 0 344 395h-140q-17 0-17 18t17 18h147q24 99 76 172-35 7-136 45-82 32-152 32-79 0-138-38-66-43-66-116 0-31 15.5-52t43.5-21q14 0 29 7.5t21 7.5q16 0 16-17 0-13-23-24-21-10-38-10-46 0-73 31t-27 78q0 89 77 142 69 48 161 48 75 0 151-27l82-32q25-9 46-15t39-8q46 49 96 49 39 0 39-33 0-24-39-41-33-14-60-14-2 0-7.5 0t-14.5 1q-56-65-80-165h41q18 0 18-18t-18-18h-49q-92-431-386-431z"/><path transform="translate(38.458 13.65) scale(.014 -.014)" d="m107-16q-83 0-90 114-5 85 52 256 51 152 101 242 59 107 112 107 45 0 45-72 0-76-58-177-92-160-204-251-5-26-8-48.5t-3-42.5q0-95 59-95 35 0 68.5 19.5t74.5 80.5q3 4 12.5 16.5t16.5 12.5q10 0 10-13 0-2-1-8t-4-11q-16-31-42-61t-61.5-49.5-79.5-19.5zm-26 279q90 92 157 209 56 98 56 166 0 32-14 32-10 0-27-17-35-38-75-130-25-56-49-121t-48-139z"/><path transform="translate(42.042 13.65) scale(.014 -.014)" d="m142-9q-63 0-98 50-28 43-28 109 0 68 32 140 35 78 93 107 22 11 38 11 17 0 28-11 25 17 50 17 47 0 72-49 20-38 20-87 0-91-56-183-63-104-151-104zm-1 35q71 0 126 91 48 81 48 160 0 33-14 66-16 37-44 37-31 0-54-35t-23-69q0-42 31-42 16 0 16-17t-16-17q-64 0-64 74 0 56 35 100-1 1-3 1-5 0-23-8-47-26-78-94-28-60-28-122 0-50 20-85 25-40 71-40z"/><path transform="translate(47.082 13.65) scale(.014 -.014)" d="m106-11q-92 0-92 112 0 13 1.5 26t3.5 26q3 18 13 51t27 80q38 108 53 108 18 0 18-16 0-5-1-7-81-192-81-271 0-74 58-74 87 0 148 177 8 28 21.5 69t32.5 94q5 8 14 8 22 0 19-17-8-24-20-66t-29-103q-15-63-15-94 0-62 51-62 72 0 138 105 61 97 61 182 0 58-24 89-19 27-48 27-35 0-35-34 0-16 9.5-20.5t19-7 9.5-13.5q0-17-16-17-23 0-39.5 17t-16.5 40q0 31 20.5 49.5t49.5 18.5q41 0 71-35 35-41 35-113 0-99-62-200-74-122-180-122-76 0-77 100-60-107-137-107z"/><path transform="translate(55.23 13.65) scale(.014 -.014)" d="m165-13q-75 0-116 47t-41 122q0 112 75 182 65 62 143 62 41 0 66.5-20.5t25.5-58.5q0-60-68-98-59-32-135-32-41 0-67 10-2-11-3.5-22.5t-1.5-22.5q0-61 31-99.5t90-38.5q106 0 169 99 8 12 14 19t14 7q10 0 10-12 0-7-1.5-11t-2.5-6q-34-58-88-92.5t-114-34.5zm-53 238q64 0 114 25 58 28 58 73 0 43-61 43-55 0-102-41-42-36-64-91 23-9 55-9z"/><path transform="translate(59.892 13.65) scale(.014 -.014)" d="m268-10q-33 0-54.5 24.5t-21.5 70.5q0 84 71 215-30-11-54-11-49 0-86 40-6-33-21.5-72.5t-33.5-77-34-65.5q-4-8-10-10t-9-2q-15 0-15 15 20 32 40 74.5t37.5 89.5 26.5 91q-6 24-6 54 0 49 22 49 24 0 24-49 0-11-1.5-25t-3.5-30q4-21 25.5-34t45.5-13q34 0 87 35 11 8 13 8 19 0 19-18 0-2-0.5-4t-1.5-4q-25-43-45-82.5t-35-77.5q-20-51-20-93 0-64 42-64 33 0 60.5 29.5t49.5 63.5q5 8 14.5 21t16.5 13q5 0 7.5-2t2.5-10q0-5-2.5-14t-4.5-11q-27-49-61.5-86.5t-83.5-37.5z"/><path transform="translate(65.198 13.65) scale(.014 -.014)" d="m133-20q-56 0-94 29-43 33-43 89 0 36 18 69t49 51q20 29 47 63t61 74q-12 32-12 60 0 33 12 58 16 34 48 34 47 0 47-49 0-31-16-53l-38-54 63-88q18-25 26.5-51t8.5-51q0-75-51-128t-126-53zm64 405q14 16 24 32 14 26 14 40 0 15-16 15-27 0-27-58 0-7 1.5-14t3.5-15zm-65-370q63 0 103 42 41 43 41 104 0 42-32 86l-56 76-74-92q70-4 70-69 0-20-14-40-7-10-18-10-14 0-14 18 0 6 6 16t6 16q0 35-38 35-12 0-23-3 1-21-16.5-46.5t-41.5-42.5q6-90 101-90z"/></svg>