<svg width="58" height="10" viewBox="0 0 58 10" fill="none" xmlns="http://www.w3.org/2000/svg">
<path d="M5.11 7.42C5.11 8.21333 4.89333 8.80667 4.46 9.2C4.02 9.6 3.39667 9.8 2.59 9.8H0.74V8.74H2.73C3.07 8.74 3.35 8.63667 3.57 8.43C3.78333 8.22333 3.89 7.97667 3.89 7.69V6.23C3.89 5.95 3.81667 5.72333 3.67 5.55C3.52333 5.37667 3.30667 5.29 3.02 5.29H2.74C2.04667 5.29 1.5 5.08667 1.1 4.68C0.7 4.27333 0.5 3.68333 0.5 2.91V2.38C0.5 1.58667 0.716667 0.99 1.15 0.59C1.58333 0.196667 2.20667 0 3.02 0H4.88V1.06H2.88C2.53333 1.06 2.25333 1.16333 2.04 1.37C1.82667 1.57667 1.72 1.82333 1.72 2.11V3.18C1.72 3.46667 1.81333 3.70667 2 3.9C2.18667 4.09333 2.43 4.19 2.73 4.19H3.01C3.67 4.19 4.18333 4.38 4.55 4.76C4.92333 5.14 5.11 5.72 5.11 6.5V7.42ZM7 9.8V0H8.19V3.08C8.47 2.89333 8.82 2.8 9.24 2.8H9.6C10.3533 2.8 10.9167 2.97667 11.29 3.33C11.6567 3.68333 11.84 4.25333 11.84 5.04V9.8H10.65V4.76C10.65 4.48 10.57 4.25667 10.41 4.09C10.2433 3.93 10.02 3.85 9.74 3.85H9.1C8.8 3.85 8.57333 3.92667 8.42 4.08C8.26667 4.23333 8.19 4.4 8.19 4.58V9.8H7ZM18.14 9.8C18.02 9.8 17.8867 9.76333 17.74 9.69C17.5933 9.61667 17.47 9.51333 17.37 9.38C17.1567 9.66 16.8733 9.8 16.52 9.8H15.55C14.8433 9.8 14.3267 9.65667 14 9.37C13.68 9.09 13.52 8.60333 13.52 7.91V7.63C13.52 6.18333 14.2 5.46 15.56 5.46H17.02V4.76C17.02 4.47333 16.93 4.25 16.75 4.09C16.5767 3.93 16.3167 3.85 15.97 3.85H14.08V2.8H15.83C16.6433 2.8 17.2433 2.97667 17.63 3.33C18.0167 3.68333 18.21 4.25333 18.21 5.04V8.4C18.21 8.54 18.2633 8.64333 18.37 8.71C18.4767 8.78333 18.6567 8.82 18.91 8.82V9.8H18.14ZM16.38 8.75C16.66 8.75 16.8367 8.68333 16.91 8.55C16.9833 8.42333 17.02 8.25667 17.02 8.05V6.51H15.55C15.31 6.51 15.11 6.59 14.95 6.75C14.79 6.91 14.71 7.11 14.71 7.35V8.05C14.71 8.29 14.7667 8.46667 14.88 8.58C14.9933 8.69333 15.17 8.75 15.41 8.75H16.38ZM20.59 9.8V2.8H21.71V3.18C22.0167 2.92667 22.39 2.8 22.83 2.8H23.85V3.92H22.69C22.3833 3.92 22.1533 4.02333 22 4.23C21.8533 4.43667 21.78 4.63667 21.78 4.83V9.8H20.59ZM27.28 9.8C26.46 9.8 25.86 9.62333 25.48 9.27C25.0933 8.92333 24.9 8.35333 24.9 7.56V5.04C24.9 4.24 25.0733 3.66667 25.42 3.32C25.7667 2.97333 26.34 2.8 27.14 2.8H27.52C28.18 2.8 28.6833 2.98333 29.03 3.35C29.37 3.72333 29.54 4.26333 29.54 4.97V6.79H26.09V7.84C26.09 8.12667 26.18 8.35 26.36 8.51C26.5333 8.67 26.7933 8.75 27.14 8.75H29.09V9.8H27.28ZM26.09 5.74H28.37V4.69C28.37 4.45 28.2933 4.25 28.14 4.09C27.98 3.93 27.7767 3.85 27.53 3.85H27C26.6667 3.85 26.4333 3.92667 26.3 4.08C26.16 4.23333 26.09 4.46 26.09 4.76V5.74ZM39.83 1.06H37.67V9.8H36.45V1.06H34.3V0H39.83V1.06ZM42.42 9.8C41.5933 9.8 40.99 9.62333 40.61 9.27C40.23 8.92333 40.04 8.35333 40.04 7.56V5.04C40.04 4.24 40.21 3.66667 40.55 3.32C40.8967 2.97333 41.4733 2.8 42.28 2.8H42.65C43.3167 2.8 43.82 2.98333 44.16 3.35C44.5 3.72333 44.67 4.26333 44.67 4.97V6.79H41.23V7.84C41.23 8.12667 41.3167 8.35 41.49 8.51C41.67 8.67 41.9333 8.75 42.28 8.75H44.22V9.8H42.42ZM41.23 5.74H43.51V4.69C43.51 4.45 43.43 4.25 43.27 4.09C43.11 3.93 42.91 3.85 42.67 3.85H42.14C41.8 3.85 41.5633 3.92667 41.43 4.08C41.2967 4.23333 41.23 4.46 41.23 4.76V5.74ZM48.94 9.8C48.12 9.8 47.5167 9.62333 47.13 9.27C46.75 8.92333 46.56 8.35333 46.56 7.56V5.04C46.56 4.25333 46.7533 3.68333 47.14 3.33C47.5267 2.97667 48.1267 2.8 48.94 2.8H50.47V3.85H48.8C48.4533 3.85 48.1933 3.93 48.02 4.09C47.84 4.25 47.75 4.47333 47.75 4.76V7.84C47.75 8.12667 47.84 8.35 48.02 8.51C48.1933 8.67 48.4533 8.75 48.8 8.75H50.47V9.8H48.94ZM52.29 9.8V0H53.48V3.08C53.76 2.89333 54.11 2.8 54.53 2.8H54.89C55.6433 2.8 56.2067 2.97667 56.58 3.33C56.9467 3.68333 57.13 4.25333 57.13 5.04V9.8H55.94V4.76C55.94 4.48 55.86 4.25667 55.7 4.09C55.5333 3.93 55.31 3.85 55.03 3.85H54.39C54.09 3.85 53.8633 3.92667 53.71 4.08C53.5567 4.23333 53.48 4.4 53.48 4.58V9.8H52.29Z" fill="black"/>
</svg>
