<svg width="103" height="12" viewBox="0 0 103 12" fill="none" xmlns="http://www.w3.org/2000/svg">
<path d="M11.47 5.99C11.4833 6.09 11.49 6.19 11.49 6.29C11.4967 6.38333 11.5 6.47667 11.5 6.57C11.5 7.05 11.4233 7.5 11.27 7.92C11.1233 8.33333 10.92 8.71667 10.66 9.07C10.4 9.42333 10.0933 9.73667 9.74 10.01C9.38667 10.29 9.00333 10.5267 8.59 10.72C8.17667 10.9067 7.74333 11.0533 7.29 11.16C6.83667 11.26 6.38 11.31 5.92 11.31C5.49333 11.31 5.08333 11.2933 4.69 11.26C4.29 11.22 3.91333 11.2 3.56 11.2C3.28667 11.2 3.03 11.22 2.79 11.26C2.54333 11.3 2.32 11.38 2.12 11.5C1.94667 10.8733 1.76667 10.3067 1.58 9.8C1.39333 9.29333 1.22 8.86 1.06 8.5C0.873333 8.08 0.686667 7.70333 0.5 7.37C1.04 7.65 1.58333 7.87333 2.13 8.04C2.67 8.2 3.18667 8.32667 3.68 8.42C4.17333 8.50667 4.62333 8.56333 5.03 8.59C5.43667 8.61667 5.77333 8.63 6.04 8.63C6.34 8.63 6.64333 8.61 6.95 8.57C7.25667 8.53667 7.56333 8.48 7.87 8.4C7.79667 8.29333 7.71667 8.2 7.63 8.12C7.55 8.04 7.47667 7.97333 7.41 7.92C7.33 7.86 7.25 7.81 7.17 7.77C7.03667 7.71 6.85667 7.64667 6.63 7.58C6.40333 7.52 6.15333 7.45333 5.88 7.38C5.60667 7.30667 5.31333 7.22667 5 7.14C4.68667 7.05333 4.37667 6.95333 4.07 6.84C3.76333 6.72667 3.47 6.59667 3.19 6.45C2.91 6.30333 2.66 6.13667 2.44 5.95C2.26667 5.80333 2.12333 5.64 2.01 5.46C1.89667 5.28667 1.80667 5.10667 1.74 4.92C1.67333 4.74 1.62333 4.55667 1.59 4.37C1.56333 4.18333 1.54667 4.00667 1.54 3.84C1.38 3.90667 1.23667 3.97 1.11 4.03C0.983333 4.08333 0.873333 4.13333 0.78 4.18L0.51 4.31C0.676667 3.81667 0.906667 3.38333 1.2 3.01C1.49333 2.63 1.82333 2.3 2.19 2.02C2.55667 1.74667 2.94667 1.51333 3.36 1.32C3.78 1.12667 4.19667 0.97 4.61 0.85C5.56333 0.563333 6.6 0.396667 7.72 0.35C8.06667 0.35 8.43333 0.336667 8.82 0.31C9.16 0.29 9.54667 0.256667 9.98 0.21C10.4133 0.163333 10.87 0.0933333 11.35 0C11.2033 0.22 11.0833 0.456667 10.99 0.71C10.9033 0.963333 10.8367 1.22 10.79 1.48C10.7367 1.74 10.7 1.99667 10.68 2.25C10.6667 2.50333 10.66 2.73667 10.66 2.95C10.66 3.09 10.66 3.21667 10.66 3.33C10.6667 3.44333 10.6733 3.54 10.68 3.62C10.6933 3.72 10.7067 3.80667 10.72 3.88C9.92 3.52 9.14333 3.27 8.39 3.13C7.63 2.98333 6.89667 2.91 6.19 2.91C5.95 2.91 5.72 2.92 5.5 2.94C5.28 2.95333 5.06 2.97333 4.84 3C4.89333 3.22 4.98333 3.40333 5.11 3.55C5.24333 3.69667 5.37667 3.81333 5.51 3.9C5.66333 4.00667 5.83 4.09 6.01 4.15C6.35667 4.25667 6.73 4.39 7.13 4.55C7.53667 4.70333 7.94333 4.89667 8.35 5.13C8.75667 5.36333 9.14667 5.63667 9.52 5.95C9.89333 6.26333 10.2233 6.63 10.51 7.05C10.6767 6.90333 10.8433 6.74333 11.01 6.57C11.1767 6.39 11.33 6.19667 11.47 5.99ZM16.14 10.87C15.7267 10.7967 15.36 10.7433 15.04 10.71C14.7267 10.6767 14.4133 10.66 14.1 10.66C13.52 10.66 12.8333 10.7433 12.04 10.91C12.3867 10.1167 12.6533 9.30667 12.84 8.48C13.0267 7.66 13.12 6.81 13.12 5.93C13.12 5.39 13.0833 4.85 13.01 4.31C12.9367 3.77 12.8233 3.21333 12.67 2.64C12.9633 2.72667 13.25 2.8 13.53 2.86C13.8167 2.92667 14.1 2.98333 14.38 3.03C14.66 3.07667 14.9467 3.11 15.24 3.13C15.5333 3.15667 15.8333 3.17333 16.14 3.18C16.1867 4.34 16.2167 5.5 16.23 6.66C16.5767 6.62667 16.9167 6.59 17.25 6.55C17.5833 6.51 17.92 6.46667 18.26 6.42C18.3067 5.74667 18.3867 5.06667 18.5 4.38C18.6067 3.7 18.76 3.00667 18.96 2.3C19.22 2.4 19.4667 2.48667 19.7 2.56C19.9333 2.63333 20.1667 2.69 20.4 2.73C20.6333 2.77667 20.87 2.81 21.11 2.83C21.3433 2.85 21.5933 2.86 21.86 2.86H22.33C22.07 3.35333 21.8567 3.85 21.69 4.35C21.5167 4.85667 21.39 5.37333 21.31 5.9C21.5167 5.85333 21.7233 5.80667 21.93 5.76C22.1367 5.71333 22.3467 5.66667 22.56 5.62C22.4733 6.12 22.43 6.64 22.43 7.18C22.43 7.44 22.44 7.70333 22.46 7.97C22.4867 8.23 22.52 8.48667 22.56 8.74C22.34 8.72667 22.1267 8.71667 21.92 8.71C21.72 8.70333 21.5167 8.69333 21.31 8.68C21.3633 9.02 21.43 9.35667 21.51 9.69C21.59 10.03 21.6867 10.37 21.8 10.71C21.6733 10.7033 21.5667 10.7 21.48 10.7C21.3867 10.7 21.3033 10.6967 21.23 10.69C21.1633 10.69 21.1 10.69 21.04 10.69C20.98 10.6833 20.92 10.68 20.86 10.68C20.4667 10.68 20.07 10.7167 19.67 10.79C19.27 10.8633 18.8333 10.9667 18.36 11.1C18.3067 10.6333 18.2667 10.16 18.24 9.68C18.2133 9.20667 18.2 8.72 18.2 8.22C17.86 8.14667 17.5267 8.06 17.2 7.96C16.88 7.86667 16.5567 7.76667 16.23 7.66C16.2167 8.19333 16.2067 8.72667 16.2 9.26C16.1867 9.79333 16.1667 10.33 16.14 10.87ZM32.13 2.73H32.2C32.04 2.85667 31.89 2.99 31.75 3.13C31.61 3.27 31.4767 3.41667 31.35 3.57C31.7767 3.65667 32.18 3.79 32.56 3.97C32.9467 4.15 33.28 4.37667 33.56 4.65C33.8467 4.92333 34.0733 5.24 34.24 5.6C34.4067 5.96 34.49 6.36333 34.49 6.81C34.49 7.31 34.4067 7.76 34.24 8.16C34.0733 8.56667 33.8433 8.92667 33.55 9.24C33.25 9.56 32.9 9.83667 32.5 10.07C32.1 10.2967 31.6667 10.4833 31.2 10.63C30.7267 10.7767 30.23 10.8867 29.71 10.96C29.19 11.0333 28.6667 11.07 28.14 11.07C27.9533 11.07 27.76 11.0667 27.56 11.06C27.36 11.0533 27.1667 11.0433 26.98 11.03C26.7867 11.0167 26.61 10.9967 26.45 10.97C26.29 10.95 26.1533 10.92 26.04 10.88C26.1667 10.7733 26.29 10.6667 26.41 10.56C26.5233 10.4533 26.63 10.3467 26.73 10.24C26.2967 10.16 25.89 10.0367 25.51 9.87C25.13 9.70333 24.7967 9.49333 24.51 9.24C24.2167 8.98 23.9867 8.67667 23.82 8.33C23.66 7.98333 23.58 7.58333 23.58 7.13C23.58 6.60333 23.6767 6.12667 23.87 5.7C24.0633 5.27333 24.3267 4.89333 24.66 4.56C25 4.22667 25.3967 3.94 25.85 3.7C26.31 3.46667 26.8 3.27333 27.32 3.12C27.8467 2.96 28.3933 2.84333 28.96 2.77C29.5267 2.70333 30.09 2.67 30.65 2.67C30.8833 2.67 31.12 2.67333 31.36 2.68C31.6067 2.69333 31.8633 2.71 32.13 2.73ZM31.52 6.33C31.52 5.94333 31.4367 5.62667 31.27 5.38C31.1033 5.13333 30.8833 4.93667 30.61 4.79C30.5567 4.91 30.51 5.03333 30.47 5.16C30.4233 5.28 30.38 5.40667 30.34 5.54C30.02 5.45333 29.7533 5.39333 29.54 5.36C29.3267 5.32667 29.1467 5.31 29 5.31C28.7133 5.31 28.4233 5.35667 28.13 5.45C27.8367 5.55 27.5733 5.69 27.34 5.87C27.1067 6.05 26.9167 6.26667 26.77 6.52C26.6233 6.78 26.55 7.07333 26.55 7.4C26.55 7.70667 26.6267 7.99 26.78 8.25C26.94 8.50333 27.1467 8.74 27.4 8.96C27.4467 8.82 27.48 8.67667 27.5 8.53C27.52 8.38333 27.5333 8.23333 27.54 8.08C27.88 8.23333 28.18 8.34 28.44 8.4C28.7 8.46 28.9267 8.49 29.12 8.49C29.42 8.49 29.7133 8.44 30 8.34C30.2867 8.24667 30.5433 8.10667 30.77 7.92C30.9967 7.72667 31.1767 7.49667 31.31 7.23C31.45 6.97 31.52 6.67 31.52 6.33ZM43.29 7.68C42.9367 8.21333 42.51 8.69333 42.01 9.12C41.51 9.54667 40.93 9.91333 40.27 10.22C39.6033 10.5267 38.8567 10.7733 38.03 10.96C37.1967 11.1467 36.28 11.2733 35.28 11.34C35.28 11.0533 35.2767 10.7833 35.27 10.53C35.2633 10.2767 35.2433 10.0267 35.21 9.78C35.1767 9.53333 35.12 9.28667 35.04 9.04C34.96 8.78667 34.8433 8.52 34.69 8.24C35.33 8.42667 35.94 8.56333 36.52 8.65C37.0933 8.73667 37.6467 8.78 38.18 8.78C38.42 8.78 38.66 8.77333 38.9 8.76C39.14 8.74667 39.38 8.72333 39.62 8.69C39.54 7.58333 39.4033 6.47 39.21 5.35C39.0167 4.23 38.7667 3.15333 38.46 2.12C39.1267 2.35333 39.7667 2.54333 40.38 2.69C40.9933 2.83667 41.5867 2.91 42.16 2.91H42.63C42.5633 3.23667 42.5067 3.57667 42.46 3.93C42.4133 4.28333 42.37 4.64333 42.33 5.01C42.2967 5.37 42.27 5.73 42.25 6.09C42.23 6.45 42.22 6.79667 42.22 7.13C42.22 7.29 42.2233 7.44667 42.23 7.6C42.23 7.75333 42.2367 7.91 42.25 8.07C42.4167 8.01 42.59 7.94667 42.77 7.88C42.9433 7.81333 43.1167 7.74667 43.29 7.68ZM54.3 2.55C54.3 3.94333 54.1667 5.17 53.9 6.23C53.6333 7.29 53.2367 8.17667 52.71 8.89C52.1833 9.60333 51.5333 10.14 50.76 10.5C49.98 10.8667 49.0767 11.05 48.05 11.05C47.7767 11.05 47.5033 11.0333 47.23 11C46.95 10.9667 46.6667 10.9167 46.38 10.85C46.4333 10.8233 46.4933 10.79 46.56 10.75C46.6133 10.71 46.6767 10.6633 46.75 10.61C46.8167 10.5567 46.89 10.4967 46.97 10.43C46.49 10.2833 46.0667 10.04 45.7 9.7C45.3267 9.36667 45.0167 8.96 44.77 8.48C44.5233 8 44.3367 7.45667 44.21 6.85C44.0767 6.23667 44.01 5.58333 44.01 4.89C44.01 4.71667 44.0167 4.56333 44.03 4.43C44.0367 4.29 44.0467 4.15333 44.06 4.02C44.0733 3.88 44.09 3.73667 44.11 3.59C44.13 3.44333 44.1533 3.27333 44.18 3.08C44.2867 3.09333 44.4033 3.10333 44.53 3.11C44.63 3.11667 44.75 3.12333 44.89 3.13C45.0233 3.13667 45.1633 3.14 45.31 3.14C45.5033 3.14 45.7133 3.13333 45.94 3.12C46.1667 3.10667 46.4067 3.08 46.66 3.04C46.9133 3.00667 47.1767 2.96 47.45 2.9C47.7233 2.83333 47.9967 2.74667 48.27 2.64C48.1033 3.03333 47.9567 3.39 47.83 3.71C47.7033 4.03 47.5967 4.33333 47.51 4.62C47.4233 4.91333 47.36 5.19333 47.32 5.46C47.28 5.73333 47.26 6.01 47.26 6.29C47.26 6.75667 47.3167 7.19333 47.43 7.6C47.5433 8 47.72 8.37 47.96 8.71L47.99 8.5C48.31 8.58667 48.5633 8.63 48.75 8.63C49.0233 8.63 49.2667 8.58 49.48 8.48C49.6933 8.38 49.88 8.24667 50.04 8.08C50.2 7.91333 50.3367 7.72 50.45 7.5C50.5633 7.28 50.6533 7.05 50.72 6.81C50.7867 6.57667 50.8367 6.34 50.87 6.1C50.9033 5.86 50.92 5.63333 50.92 5.42C50.92 5.23333 50.8967 5.02 50.85 4.78C50.8033 4.54 50.7367 4.29 50.65 4.03C50.57 3.77 50.4767 3.50667 50.37 3.24C50.2633 2.97333 50.1467 2.71667 50.02 2.47C50.2067 2.52333 50.4133 2.57333 50.64 2.62C50.86 2.66667 51.0867 2.70667 51.32 2.74C51.5533 2.77333 51.7867 2.8 52.02 2.82C52.26 2.83333 52.4867 2.84 52.7 2.84C52.9667 2.84 53.2367 2.82 53.51 2.78C53.7767 2.74 54.04 2.66333 54.3 2.55ZM67.62 2.87C67.4467 3.22333 67.3 3.56667 67.18 3.9C67.06 4.22667 66.9633 4.54 66.89 4.84C66.8233 5.14 66.7733 5.43 66.74 5.71C66.7133 5.98333 66.7 6.24667 66.7 6.5C66.7 6.99333 66.7533 7.44333 66.86 7.85C66.9667 8.25667 67.1033 8.62667 67.27 8.96C67.4367 9.3 67.6267 9.60333 67.84 9.87C68.0533 10.1367 68.2633 10.3767 68.47 10.59C68.29 10.59 68.1233 10.58 67.97 10.56C67.8167 10.54 67.65 10.53 67.47 10.53C67.27 10.53 67.0767 10.5433 66.89 10.57C66.7033 10.5967 66.5133 10.6333 66.32 10.68C66.1267 10.7267 65.9267 10.7867 65.72 10.86C65.5067 10.9333 65.28 11.02 65.04 11.12C64.8333 10.58 64.6667 10.0367 64.54 9.49C64.4067 8.95 64.3133 8.41 64.26 7.87C64.0333 8.31667 63.8433 8.78667 63.69 9.28C63.5367 9.77333 63.4233 10.3033 63.35 10.87C63.2967 10.87 63.1833 10.8733 63.01 10.88C62.8367 10.88 62.6233 10.89 62.37 10.91C62.1167 10.93 61.84 10.9667 61.54 11.02C61.2333 11.0667 60.93 11.1333 60.63 11.22C60.57 10.6067 60.4633 10.03 60.31 9.49C60.1633 8.95 59.9733 8.44 59.74 7.96C59.6867 8.48 59.5933 9.00667 59.46 9.54C59.3267 10.0667 59.1567 10.5933 58.95 11.12C58.01 10.7267 57.0733 10.53 56.14 10.53C56 10.53 55.8333 10.54 55.64 10.56C55.44 10.5733 55.2433 10.5867 55.05 10.6C55.7633 9.91333 56.3067 9.14333 56.68 8.29C57.0533 7.43667 57.24 6.48333 57.24 5.43C57.24 5.31667 57.2333 5.19 57.22 5.05C57.2133 4.91667 57.2033 4.77667 57.19 4.63C56.8433 4.31 56.48 3.99333 56.1 3.68C55.7133 3.37333 55.3067 3.05667 54.88 2.73C55.0667 2.77 55.3233 2.82 55.65 2.88C55.97 2.94 56.3533 2.97 56.8 2.97C57.1867 2.97 57.6133 2.93333 58.08 2.86C58.5533 2.78 59.05 2.63 59.57 2.41C59.87 2.82333 60.17 3.30333 60.47 3.85C60.7233 4.31667 60.99 4.87333 61.27 5.52C61.55 6.16667 61.8033 6.89333 62.03 7.7L62.51 6.51C62.67 6.12333 62.82 5.75 62.96 5.39C63.1067 5.03 63.24 4.67667 63.36 4.33C63.4867 3.98333 63.6033 3.63333 63.71 3.28C63.81 2.92667 63.9 2.55667 63.98 2.17C64.3067 2.34333 64.6433 2.48 64.99 2.58C65.33 2.67333 65.66 2.74 65.98 2.78C66.3 2.82667 66.6033 2.85333 66.89 2.86C67.17 2.86667 67.4133 2.87 67.62 2.87ZM79.63 8.09C79.4367 8.18333 79.2467 8.27333 79.06 8.36C78.8733 8.44 78.6867 8.52 78.5 8.6C78.9133 9.35333 79.3733 10.0667 79.88 10.74C79.1733 10.74 78.5 10.81 77.86 10.95C77.22 11.09 76.5667 11.3033 75.9 11.59C75.9533 11.4767 75.9867 11.3567 76 11.23C76.0067 11.1033 76.01 10.9733 76.01 10.84C76.01 10.62 75.99 10.38 75.95 10.12C75.91 9.86 75.85 9.58667 75.77 9.3C75.5767 9.32667 75.3833 9.34333 75.19 9.35C75.0033 9.36333 74.8167 9.37 74.63 9.37C74.31 9.37 73.9933 9.35 73.68 9.31C73.3667 9.27 73.0667 9.20667 72.78 9.12C72.7 9.45333 72.63 9.79667 72.57 10.15C72.5033 10.5033 72.44 10.8667 72.38 11.24C72.1467 11.1267 71.89 11.02 71.61 10.92C71.3767 10.8467 71.1033 10.7733 70.79 10.7C70.4767 10.6333 70.1467 10.6 69.8 10.6C69.5067 10.6 69.1933 10.6267 68.86 10.68C68.5267 10.7267 68.16 10.8067 67.76 10.92C68.0667 10.6133 68.3567 10.3033 68.63 9.99C68.8967 9.67 69.1433 9.36333 69.37 9.07C69.5967 8.77667 69.7967 8.50333 69.97 8.25C70.15 7.99 70.3 7.76333 70.42 7.57C70.2867 7.41 70.1633 7.24 70.05 7.06C69.9367 6.88 69.83 6.68333 69.73 6.47C69.9167 6.56333 70.0967 6.64667 70.27 6.72C70.45 6.8 70.6267 6.87 70.8 6.93C71.0067 6.56333 71.2267 6.19333 71.46 5.82C71.6933 5.44667 71.9433 5.08 72.21 4.72C72.15 4.58667 72.08 4.43667 72 4.27C71.9133 4.10333 71.82 3.93 71.72 3.75C71.6267 3.57 71.5233 3.39 71.41 3.21C71.3033 3.03667 71.1967 2.87333 71.09 2.72C71.53 2.84 71.97 2.93333 72.41 3C72.85 3.06667 73.2867 3.11333 73.72 3.14C73.9733 2.93333 74.2367 2.74333 74.51 2.57C74.7833 2.40333 75.07 2.25333 75.37 2.12C75.2767 2.28 75.1833 2.44333 75.09 2.61C74.9967 2.77667 74.9067 2.94667 74.82 3.12C75.0533 3.1 75.2833 3.07333 75.51 3.04C75.7433 3.01333 75.9867 2.97333 76.24 2.92C76.4067 3.54 76.59 4.14 76.79 4.72C76.99 5.30667 77.2067 5.88333 77.44 6.45C77.64 6.33 77.84 6.21 78.04 6.09C78.24 5.97 78.4367 5.84 78.63 5.7C78.77 6.18 78.9233 6.62 79.09 7.02C79.2567 7.42 79.4367 7.77667 79.63 8.09ZM75.05 7.37C74.89 7.01667 74.7167 6.65667 74.53 6.29C74.3367 5.93 74.1333 5.56333 73.92 5.19C73.6467 5.91 73.4 6.67667 73.18 7.49C73.26 7.49667 73.34 7.5 73.42 7.5C73.5 7.5 73.58 7.5 73.66 7.5C73.8933 7.5 74.1267 7.49 74.36 7.47C74.5867 7.45 74.8167 7.41667 75.05 7.37ZM91.1 10.31C90.4333 10.3567 89.7867 10.47 89.16 10.65C88.5333 10.83 87.8967 11.0767 87.25 11.39C87.15 10.41 86.91 9.50667 86.53 8.68C86.35 8.72 86.1667 8.75333 85.98 8.78C85.7933 8.8 85.6 8.81 85.4 8.81C85.32 8.81 85.2433 8.81 85.17 8.81C85.0967 8.81 85.02 8.80667 84.94 8.8C84.9533 9.50667 84.98 10.21 85.02 10.91C84.8733 10.89 84.73 10.8733 84.59 10.86C84.4433 10.8533 84.3033 10.85 84.17 10.85C83.7167 10.85 83.2233 10.9033 82.69 11.01C82.15 11.11 81.57 11.2633 80.95 11.47C81.1833 10.8433 81.3833 10.22 81.55 9.6C81.7167 8.98 81.8467 8.35333 81.94 7.72C81.6333 7.51333 81.3667 7.31333 81.14 7.12C80.92 6.92 80.7533 6.75333 80.64 6.62C80.8667 6.68667 81.1 6.74667 81.34 6.8C81.5733 6.85333 81.8133 6.9 82.06 6.94C82.1133 6.42667 82.14 5.90333 82.14 5.37V5.11C81.8933 5.19 81.65 5.27333 81.41 5.36C81.17 5.44667 80.9267 5.54333 80.68 5.65C80.82 5.19 80.89 4.76667 80.89 4.38C80.89 4.06 80.85 3.75333 80.77 3.46C80.69 3.17333 80.5733 2.9 80.42 2.64C81.4 2.50667 82.2667 2.41667 83.02 2.37C83.7733 2.32333 84.4467 2.3 85.04 2.3C85.3133 2.3 85.6267 2.30333 85.98 2.31C86.3333 2.32333 86.6967 2.35333 87.07 2.4C87.4433 2.44667 87.8167 2.51333 88.19 2.6C88.5633 2.68667 88.9033 2.80333 89.21 2.95C89.5233 3.10333 89.79 3.29333 90.01 3.52C90.23 3.74667 90.38 4.02 90.46 4.34C90.5667 4.28667 90.67 4.23667 90.77 4.19C90.87 4.13667 90.97 4.08 91.07 4.02C91.0167 4.34667 90.9267 4.67333 90.8 5C90.6733 5.32667 90.5133 5.64333 90.32 5.95C90.1333 6.25 89.9167 6.53667 89.67 6.81C89.4233 7.08333 89.1533 7.33667 88.86 7.57C89.5133 8.61 90.26 9.52333 91.1 10.31ZM86.47 4.38C86.2833 4.38 86.0667 4.39 85.82 4.41C85.5667 4.43 85.2933 4.45333 85 4.48C84.9867 4.92 84.9733 5.35667 84.96 5.79C84.9467 6.23 84.94 6.66333 84.94 7.09C85.2133 7.05 85.47 6.98333 85.71 6.89C85.9567 6.79667 86.1733 6.67333 86.36 6.52C86.5467 6.37333 86.7 6.19 86.82 5.97C86.94 5.75667 87.0167 5.50333 87.05 5.21C87.2233 5.18333 87.4 5.15667 87.58 5.13C87.76 5.10333 87.9433 5.07 88.13 5.03C88.1233 5.03 88.12 5.02667 88.12 5.02H88.13C88.0433 4.92 87.95 4.83 87.85 4.75C87.75 4.67 87.6367 4.60333 87.51 4.55C87.3833 4.49 87.2367 4.44667 87.07 4.42C86.8967 4.39333 86.6967 4.38 86.47 4.38ZM102.15 2.55C102.15 3.94333 102.017 5.17 101.75 6.23C101.483 7.29 101.09 8.17667 100.57 8.89C100.043 9.60333 99.39 10.14 98.61 10.5C97.83 10.8667 96.9267 11.05 95.9 11.05C95.6333 11.05 95.36 11.0333 95.08 11C94.8 10.9667 94.5167 10.9167 94.23 10.85C94.2833 10.8233 94.3433 10.79 94.41 10.75C94.4633 10.71 94.5267 10.6633 94.6 10.61C94.6667 10.5567 94.74 10.4967 94.82 10.43C94.34 10.2833 93.9167 10.04 93.55 9.7C93.1767 9.36667 92.8667 8.96 92.62 8.48C92.3733 8 92.1867 7.45667 92.06 6.85C91.9333 6.23667 91.87 5.58333 91.87 4.89C91.87 4.71667 91.8733 4.56333 91.88 4.43C91.8867 4.29 91.8967 4.15333 91.91 4.02C91.9233 3.88 91.94 3.73667 91.96 3.59C91.98 3.44333 92.0033 3.27333 92.03 3.08C92.1367 3.09333 92.2533 3.10333 92.38 3.11C92.4867 3.11667 92.6067 3.12333 92.74 3.13C92.88 3.13667 93.0233 3.14 93.17 3.14C93.3567 3.14 93.5633 3.13333 93.79 3.12C94.0233 3.10667 94.2667 3.08 94.52 3.04C94.7667 3.00667 95.0267 2.96 95.3 2.9C95.5733 2.83333 95.85 2.74667 96.13 2.64C95.9567 3.03333 95.8067 3.39 95.68 3.71C95.5533 4.03 95.4467 4.33333 95.36 4.62C95.28 4.91333 95.2167 5.19333 95.17 5.46C95.13 5.73333 95.11 6.01 95.11 6.29C95.11 6.75667 95.1667 7.19333 95.28 7.6C95.4 8 95.5767 8.37 95.81 8.71L95.84 8.5C96.16 8.58667 96.4133 8.63 96.6 8.63C96.8733 8.63 97.1167 8.58 97.33 8.48C97.5433 8.38 97.73 8.24667 97.89 8.08C98.05 7.91333 98.1867 7.72 98.3 7.5C98.4133 7.28 98.5033 7.05 98.57 6.81C98.6367 6.57667 98.6867 6.34 98.72 6.1C98.7533 5.86 98.77 5.63333 98.77 5.42C98.77 5.23333 98.7467 5.02 98.7 4.78C98.6533 4.54 98.5867 4.29 98.5 4.03C98.42 3.77 98.3267 3.50667 98.22 3.24C98.1133 2.97333 98 2.71667 97.88 2.47C98.0667 2.52333 98.27 2.57333 98.49 2.62C98.7167 2.66667 98.9433 2.70667 99.17 2.74C99.4033 2.77333 99.6367 2.8 99.87 2.82C100.11 2.83333 100.337 2.84 100.55 2.84C100.817 2.84 101.087 2.82 101.36 2.78C101.627 2.74 101.89 2.66333 102.15 2.55Z" fill="black"/>
</svg>
