<svg width="94" height="9" viewBox="0 0 94 9" fill="none" xmlns="http://www.w3.org/2000/svg">
<path d="M7.5 1.75H2.25V0H7.5V1.75ZM7.5 7H5.75V5.25H2.25V3.5H0.5V1.75H2.25V3.5H5.75V5.25H7.5V7ZM5.75 8.75H0.5V7H5.75V8.75ZM12.75 8.75H11V0H12.75V8.75ZM21.5 8.75H16.25V0H18V7H21.5V8.75ZM26.75 8.75H25V0H26.75V3.5H28.5V5.25H30.25V7H32V8.75H30.25V7H28.5V5.25H26.75V8.75ZM32 1.75H30.25V0H32V1.75ZM30.25 3.5H28.5V1.75H30.25V3.5ZM42.5 1.75H37.25V0H42.5V1.75ZM42.5 7H40.75V5.25H37.25V3.5H35.5V1.75H37.25V3.5H40.75V5.25H42.5V7ZM40.75 8.75H35.5V7H40.75V8.75ZM53 3.5H51.25V1.75H47.75V0H51.25V1.75H53V3.5ZM51.25 8.75H47.75V7H46V1.75H47.75V7H51.25V8.75ZM53 7H51.25V5.25H53V7ZM58.25 8.75H56.5V0H61.75V1.75H63.5V3.5H61.75V7H63.5V8.75H61.75V7H60V5.25H58.25V8.75ZM58.25 1.75V3.5H61.68V1.75H58.25ZM72.25 8.75H67V0H72.25V1.75H68.75V3.5H72.25V5.25H68.75V7H72.25V8.75ZM81 8.75H75.75V0H81V1.75H77.5V3.5H81V5.25H77.5V7H81V8.75ZM86.25 8.75H84.5V0H86.25V1.75H88V3.5H89.75V5.25H91.5V0H93.25V8.75H91.5V7H89.75V5.25H88V3.5H86.25V8.75Z" fill="black"/>
</svg>
