<svg width="294" height="14" viewBox="0 0 294 14" xmlns="http://www.w3.org/2000/svg"><path transform="translate(0 12.25) scale(.013672 -.013672)" d="m291 14h442q28 0 44 15t16 35-16 35-44 15h-442q-28 0-44-15t-16-35 16-35 44-15zm-128 128h186q28 0 44 15t16 35-16 35-44 15h-186q-28 0-44-15t-16-35 16-35 44-15zm512 0h186q28 0 44 15t16 35-16 35-44 15h-186q-28 0-44-15t-16-35 16-35 44-15zm0 128h186q28 0 44 15t16 35-16 35-44 15h-186q-28 0-44-15t-16-35 16-35 44-15zm-384 128h442q28 0 44 15t16 35-16 35-44 15h-442q-28 0-44-15t-16-35 16-35 44-15zm-128 128h186q28 0 44 15t16 35-16 35-44 15h-186q-28 0-44-15t-16-35 16-35 44-15zm0 128h186q28 0 44 15t16 35-16 35-44 15h-186q-28 0-44-15t-16-35 16-35 44-15zm512 0h186q28 0 44 15t16 35-16 35-44 15h-186q-28 0-44-15t-16-35 16-35 44-15zm-384 128h442q28 0 44 15t16 35-16 35-44 15h-442q-28 0-44-15t-16-35 16-35 44-15z"/><path transform="translate(14 12.25) scale(.013672 -.013672)" d="m291 14h442q28 0 44 15t16 35-16 35-44 15h-442q-28 0-44-15t-16-35 16-35 44-15zm128 128h186q28 0 44 15t16 35-16 35-44 15h-186q-28 0-44-15t-16-35 16-35 44-15zm0 128h186q28 0 44 15t16 35-16 35-44 15h-186q-28 0-44-15t-16-35 16-35 44-15zm-128 128h314q28 0 44 15t16 35-16 35-44 15h-314q-28 0-44-15t-16-35 16-35 44-15zm128 256h186q28 0 44 15t16 35-16 35-44 15h-186q-28 0-44-15t-16-35 16-35 44-15z"/><path transform="translate(28 12.25) scale(.013672 -.013672)" d="m163 14h186q28 0 44 15t16 35-16 35-44 15h-186q-28 0-44-15t-16-35 16-35 44-15zm512 0h186q28 0 44 15t16 35-16 35-44 15h-186q-28 0-44-15t-16-35 16-35 44-15zm-384 128h442q28 0 44 15t16 35-16 35-44 15h-442q-28 0-44-15t-16-35 16-35 44-15zm128 128h186q28 0 44 15t16 35-16 35-44 15h-186q-28 0-44-15t-16-35 16-35 44-15zm-128 128h442q28 0 44 15t16 35-16 35-44 15h-442q-28 0-44-15t-16-35 16-35 44-15zm-128 128h186q28 0 44 15t16 35-16 35-44 15h-186q-28 0-44-15t-16-35 16-35 44-15zm512 0h186q28 0 44 15t16 35-16 35-44 15h-186q-28 0-44-15t-16-35 16-35 44-15z"/><path transform="translate(42 12.25) scale(.013672 -.013672)" d="m547 14h314q28 0 44 15t16 35-16 35-44 15h-314q-28 0-44-15t-16-35 16-35 44-15zm-128 128h186q28 0 44 15t16 35-16 35-44 15h-186q-28 0-44-15t-16-35 16-35 44-15zm0 128h186q28 0 44 15t16 35-16 35-44 15h-186q-28 0-44-15t-16-35 16-35 44-15zm0 128h186q28 0 44 15t16 35-16 35-44 15h-186q-28 0-44-15t-16-35 16-35 44-15zm-256 128h698q28 0 44 15t16 35-16 35-44 15h-698q-28 0-44-15t-16-35 16-35 44-15zm256 128h186q28 0 44 15t16 35-16 35-44 15h-186q-28 0-44-15t-16-35 16-35 44-15z"/><path transform="translate(56 12.25) scale(.013672 -.013672)" d="m163-114h570q28 0 44 15t16 35-16 35-44 15h-570q-28 0-44-15t-16-35 16-35 44-15zm512 128h186q28 0 44 15t16 35-16 35-44 15h-186q-28 0-44-15t-16-35 16-35 44-15zm-384 128h570q28 0 44 15t16 35-16 35-44 15h-570q-28 0-44-15t-16-35 16-35 44-15zm-128 128h186q28 0 44 15t16 35-16 35-44 15h-186q-28 0-44-15t-16-35 16-35 44-15zm512 0h186q28 0 44 15t16 35-16 35-44 15h-186q-28 0-44-15t-16-35 16-35 44-15zm-512 128h186q28 0 44 15t16 35-16 35-44 15h-186q-28 0-44-15t-16-35 16-35 44-15zm512 0h186q28 0 44 15t16 35-16 35-44 15h-186q-28 0-44-15t-16-35 16-35 44-15zm-512 128h186q28 0 44 15t16 35-16 35-44 15h-186q-28 0-44-15t-16-35 16-35 44-15zm512 0h186q28 0 44 15t16 35-16 35-44 15h-186q-28 0-44-15t-16-35 16-35 44-15z"/><path transform="translate(70 12.25) scale(.013672 -.013672)" d="m419 14h186q28 0 44 15t16 35-16 35-44 15h-186q-28 0-44-15t-16-35 16-35 44-15zm0 128h186q28 0 44 15t16 35-16 35-44 15h-186q-28 0-44-15t-16-35 16-35 44-15zm0 128h186q28 0 44 15t16 35-16 35-44 15h-186q-28 0-44-15t-16-35 16-35 44-15zm-128 128h570q28 0 44 15t16 35-16 35-44 15h-570q-28 0-44-15t-16-35 16-35 44-15zm128 128h186q28 0 44 15t16 35-16 35-44 15h-186q-28 0-44-15t-16-35 16-35 44-15zm128 128h314q28 0 44 15t16 35-16 35-44 15h-314q-28 0-44-15t-16-35 16-35 44-15z"/><path transform="translate(84 12.25) scale(.013672 -.013672)" d="m291 14h442q28 0 44 15t16 35-16 35-44 15h-442q-28 0-44-15t-16-35 16-35 44-15zm-128 128h186q28 0 44 15t16 35-16 35-44 15h-186q-28 0-44-15t-16-35 16-35 44-15zm512 0h186q28 0 44 15t16 35-16 35-44 15h-186q-28 0-44-15t-16-35 16-35 44-15zm-512 128h186q28 0 44 15t16 35-16 35-44 15h-186q-28 0-44-15t-16-35 16-35 44-15zm512 0h186q28 0 44 15t16 35-16 35-44 15h-186q-28 0-44-15t-16-35 16-35 44-15zm-512 128h186q28 0 44 15t16 35-16 35-44 15h-186q-28 0-44-15t-16-35 16-35 44-15zm512 0h186q28 0 44 15t16 35-16 35-44 15h-186q-28 0-44-15t-16-35 16-35 44-15zm-384 128h442q28 0 44 15t16 35-16 35-44 15h-442q-28 0-44-15t-16-35 16-35 44-15z"/><path transform="translate(98 12.25) scale(.013672 -.013672)" d="m291 14h570q28 0 44 15t16 35-16 35-44 15h-570q-28 0-44-15t-16-35 16-35 44-15zm-128 128h186q28 0 44 15t16 35-16 35-44 15h-186q-28 0-44-15t-16-35 16-35 44-15zm512 0h186q28 0 44 15t16 35-16 35-44 15h-186q-28 0-44-15t-16-35 16-35 44-15zm-512 128h186q28 0 44 15t16 35-16 35-44 15h-186q-28 0-44-15t-16-35 16-35 44-15zm512 0h186q28 0 44 15t16 35-16 35-44 15h-186q-28 0-44-15t-16-35 16-35 44-15zm-512 128h186q28 0 44 15t16 35-16 35-44 15h-186q-28 0-44-15t-16-35 16-35 44-15zm512 0h186q28 0 44 15t16 35-16 35-44 15h-186q-28 0-44-15t-16-35 16-35 44-15zm-512 128h186q28 0 44 15t16 35-16 35-44 15h-186q-28 0-44-15t-16-35 16-35 44-15zm512 0h186q28 0 44 15t16 35-16 35-44 15h-186q-28 0-44-15t-16-35 16-35 44-15z"/><path transform="translate(112 12.25) scale(.013672 -.013672)" d="m163 14h186q28 0 44 15t16 35-16 35-44 15h-186q-28 0-44-15t-16-35 16-35 44-15zm0 128h186q28 0 44 15t16 35-16 35-44 15h-186q-28 0-44-15t-16-35 16-35 44-15zm0 128h186q28 0 44 15t16 35-16 35-44 15h-186q-28 0-44-15t-16-35 16-35 44-15zm0 128h186q28 0 44 15t16 35-16 35-44 15h-186q-28 0-44-15t-16-35 16-35 44-15zm512 0h186q28 0 44 15t16 35-16 35-44 15h-186q-28 0-44-15t-16-35 16-35 44-15zm-512 128h570q28 0 44 15t16 35-16 35-44 15h-570q-28 0-44-15t-16-35 16-35 44-15z"/><path transform="translate(140 12.25) scale(.013672 -.013672)" d="m291 14h442q28 0 44 15t16 35-16 35-44 15h-442q-28 0-44-15t-16-35 16-35 44-15zm-128 128h186q28 0 44 15t16 35-16 35-44 15h-186q-28 0-44-15t-16-35 16-35 44-15zm512 0h186q28 0 44 15t16 35-16 35-44 15h-186q-28 0-44-15t-16-35 16-35 44-15zm-512 128h186q28 0 44 15t16 35-16 35-44 15h-186q-28 0-44-15t-16-35 16-35 44-15zm0 128h186q28 0 44 15t16 35-16 35-44 15h-186q-28 0-44-15t-16-35 16-35 44-15zm0 128h186q28 0 44 15t16 35-16 35-44 15h-186q-28 0-44-15t-16-35 16-35 44-15zm0 128h186q28 0 44 15t16 35-16 35-44 15h-186q-28 0-44-15t-16-35 16-35 44-15zm512 0h186q28 0 44 15t16 35-16 35-44 15h-186q-28 0-44-15t-16-35 16-35 44-15zm-384 128h442q28 0 44 15t16 35-16 35-44 15h-442q-28 0-44-15t-16-35 16-35 44-15z"/><path transform="translate(154 12.25) scale(.013672 -.013672)" d="m291 14h442q28 0 44 15t16 35-16 35-44 15h-442q-28 0-44-15t-16-35 16-35 44-15zm-128 128h186q28 0 44 15t16 35-16 35-44 15h-186q-28 0-44-15t-16-35 16-35 44-15zm512 0h186q28 0 44 15t16 35-16 35-44 15h-186q-28 0-44-15t-16-35 16-35 44-15zm-512 128h186q28 0 44 15t16 35-16 35-44 15h-186q-28 0-44-15t-16-35 16-35 44-15zm512 0h186q28 0 44 15t16 35-16 35-44 15h-186q-28 0-44-15t-16-35 16-35 44-15zm-512 128h186q28 0 44 15t16 35-16 35-44 15h-186q-28 0-44-15t-16-35 16-35 44-15zm512 0h186q28 0 44 15t16 35-16 35-44 15h-186q-28 0-44-15t-16-35 16-35 44-15zm-384 128h442q28 0 44 15t16 35-16 35-44 15h-442q-28 0-44-15t-16-35 16-35 44-15z"/><path transform="translate(168 12.25) scale(.013672 -.013672)" d="m163 14h186q28 0 44 15t16 35-16 35-44 15h-186q-28 0-44-15t-16-35 16-35 44-15zm512 0h186q28 0 44 15t16 35-16 35-44 15h-186q-28 0-44-15t-16-35 16-35 44-15zm-512 128h186q28 0 44 15t16 35-16 35-44 15h-186q-28 0-44-15t-16-35 16-35 44-15zm512 0h186q28 0 44 15t16 35-16 35-44 15h-186q-28 0-44-15t-16-35 16-35 44-15zm-512 128h186q28 0 44 15t16 35-16 35-44 15h-186q-28 0-44-15t-16-35 16-35 44-15zm512 0h186q28 0 44 15t16 35-16 35-44 15h-186q-28 0-44-15t-16-35 16-35 44-15zm-512 128h186q28 0 44 15t16 35-16 35-44 15h-186q-28 0-44-15t-16-35 16-35 44-15zm512 0h186q28 0 44 15t16 35-16 35-44 15h-186q-28 0-44-15t-16-35 16-35 44-15zm-512 128h570q28 0 44 15t16 35-16 35-44 15h-570q-28 0-44-15t-16-35 16-35 44-15z"/><path transform="translate(182 12.25) scale(.013672 -.013672)" d="m419 14h186q28 0 44 15t16 35-16 35-44 15h-186q-28 0-44-15t-16-35 16-35 44-15zm-128 128h442q28 0 44 15t16 35-16 35-44 15h-442q-28 0-44-15t-16-35 16-35 44-15zm-128 128h186q28 0 44 15t16 35-16 35-44 15h-186q-28 0-44-15t-16-35 16-35 44-15zm512 0h186q28 0 44 15t16 35-16 35-44 15h-186q-28 0-44-15t-16-35 16-35 44-15zm-512 128h186q28 0 44 15t16 35-16 35-44 15h-186q-28 0-44-15t-16-35 16-35 44-15zm512 0h186q28 0 44 15t16 35-16 35-44 15h-186q-28 0-44-15t-16-35 16-35 44-15zm-512 128h186q28 0 44 15t16 35-16 35-44 15h-186q-28 0-44-15t-16-35 16-35 44-15zm512 0h186q28 0 44 15t16 35-16 35-44 15h-186q-28 0-44-15t-16-35 16-35 44-15z"/><path transform="translate(196 12.25) scale(.013672 -.013672)" d="m291 14h442q28 0 44 15t16 35-16 35-44 15h-442q-28 0-44-15t-16-35 16-35 44-15zm-128 128h186q28 0 44 15t16 35-16 35-44 15h-186q-28 0-44-15t-16-35 16-35 44-15zm0 128h698q28 0 44 15t16 35-16 35-44 15h-698q-28 0-44-15t-16-35 16-35 44-15zm0 128h186q28 0 44 15t16 35-16 35-44 15h-186q-28 0-44-15t-16-35 16-35 44-15zm512 0h186q28 0 44 15t16 35-16 35-44 15h-186q-28 0-44-15t-16-35 16-35 44-15zm-384 128h442q28 0 44 15t16 35-16 35-44 15h-442q-28 0-44-15t-16-35 16-35 44-15z"/><path transform="translate(210 12.25) scale(.013672 -.013672)" d="m163 14h186q28 0 44 15t16 35-16 35-44 15h-186q-28 0-44-15t-16-35 16-35 44-15zm0 128h186q28 0 44 15t16 35-16 35-44 15h-186q-28 0-44-15t-16-35 16-35 44-15zm0 128h186q28 0 44 15t16 35-16 35-44 15h-186q-28 0-44-15t-16-35 16-35 44-15zm0 128h186q28 0 44 15t16 35-16 35-44 15h-186q-28 0-44-15t-16-35 16-35 44-15zm512 0h186q28 0 44 15t16 35-16 35-44 15h-186q-28 0-44-15t-16-35 16-35 44-15zm-512 128h570q28 0 44 15t16 35-16 35-44 15h-570q-28 0-44-15t-16-35 16-35 44-15z"/><path transform="translate(224 12.25) scale(.013672 -.013672)" d="m163-114h570q28 0 44 15t16 35-16 35-44 15h-570q-28 0-44-15t-16-35 16-35 44-15zm512 128h186q28 0 44 15t16 35-16 35-44 15h-186q-28 0-44-15t-16-35 16-35 44-15zm-384 128h570q28 0 44 15t16 35-16 35-44 15h-570q-28 0-44-15t-16-35 16-35 44-15zm-128 128h186q28 0 44 15t16 35-16 35-44 15h-186q-28 0-44-15t-16-35 16-35 44-15zm512 0h186q28 0 44 15t16 35-16 35-44 15h-186q-28 0-44-15t-16-35 16-35 44-15zm-512 128h186q28 0 44 15t16 35-16 35-44 15h-186q-28 0-44-15t-16-35 16-35 44-15zm512 0h186q28 0 44 15t16 35-16 35-44 15h-186q-28 0-44-15t-16-35 16-35 44-15zm-384 128h570q28 0 44 15t16 35-16 35-44 15h-570q-28 0-44-15t-16-35 16-35 44-15z"/><path transform="translate(238 12.25) scale(.013672 -.013672)" d="m291 14h442q28 0 44 15t16 35-16 35-44 15h-442q-28 0-44-15t-16-35 16-35 44-15zm-128 128h186q28 0 44 15t16 35-16 35-44 15h-186q-28 0-44-15t-16-35 16-35 44-15zm0 128h698q28 0 44 15t16 35-16 35-44 15h-698q-28 0-44-15t-16-35 16-35 44-15zm0 128h186q28 0 44 15t16 35-16 35-44 15h-186q-28 0-44-15t-16-35 16-35 44-15zm512 0h186q28 0 44 15t16 35-16 35-44 15h-186q-28 0-44-15t-16-35 16-35 44-15zm-384 128h442q28 0 44 15t16 35-16 35-44 15h-442q-28 0-44-15t-16-35 16-35 44-15z"/><path transform="translate(252 12.25) scale(.013672 -.013672)" d="m163 14h186q28 0 44 15t16 35-16 35-44 15h-186q-28 0-44-15t-16-35 16-35 44-15zm512 0h186q28 0 44 15t16 35-16 35-44 15h-186q-28 0-44-15t-16-35 16-35 44-15zm-512 128h186q28 0 44 15t16 35-16 35-44 15h-186q-28 0-44-15t-16-35 16-35 44-15zm512 0h186q28 0 44 15t16 35-16 35-44 15h-186q-28 0-44-15t-16-35 16-35 44-15zm-512 128h186q28 0 44 15t16 35-16 35-44 15h-186q-28 0-44-15t-16-35 16-35 44-15zm512 0h186q28 0 44 15t16 35-16 35-44 15h-186q-28 0-44-15t-16-35 16-35 44-15zm-512 128h186q28 0 44 15t16 35-16 35-44 15h-186q-28 0-44-15t-16-35 16-35 44-15zm512 0h186q28 0 44 15t16 35-16 35-44 15h-186q-28 0-44-15t-16-35 16-35 44-15zm-512 128h570q28 0 44 15t16 35-16 35-44 15h-570q-28 0-44-15t-16-35 16-35 44-15z"/><path transform="translate(266 12.25) scale(.013672 -.013672)" d="m291 14h442q28 0 44 15t16 35-16 35-44 15h-442q-28 0-44-15t-16-35 16-35 44-15zm-128 128h186q28 0 44 15t16 35-16 35-44 15h-186q-28 0-44-15t-16-35 16-35 44-15zm0 128h186q28 0 44 15t16 35-16 35-44 15h-186q-28 0-44-15t-16-35 16-35 44-15zm0 128h186q28 0 44 15t16 35-16 35-44 15h-186q-28 0-44-15t-16-35 16-35 44-15zm128 128h442q28 0 44 15t16 35-16 35-44 15h-442q-28 0-44-15t-16-35 16-35 44-15z"/><path transform="translate(280 12.25) scale(.013672 -.013672)" d="m291 14h442q28 0 44 15t16 35-16 35-44 15h-442q-28 0-44-15t-16-35 16-35 44-15zm-128 128h186q28 0 44 15t16 35-16 35-44 15h-186q-28 0-44-15t-16-35 16-35 44-15zm0 128h698q28 0 44 15t16 35-16 35-44 15h-698q-28 0-44-15t-16-35 16-35 44-15zm0 128h186q28 0 44 15t16 35-16 35-44 15h-186q-28 0-44-15t-16-35 16-35 44-15zm512 0h186q28 0 44 15t16 35-16 35-44 15h-186q-28 0-44-15t-16-35 16-35 44-15zm-384 128h442q28 0 44 15t16 35-16 35-44 15h-442q-28 0-44-15t-16-35 16-35 44-15z"/></svg>