<svg width="69" height="14" viewBox="0 0 69 14" fill="none" xmlns="http://www.w3.org/2000/svg">
<path d="M3.43 10.77C2.48333 10.77 1.53667 10.5733 0.59 10.18V7.9H1.67V9.51C2.21667 9.69 2.86333 9.78 3.61 9.78C4.36333 9.78 4.94667 9.63667 5.36 9.35C5.76667 9.06333 5.97 8.70667 5.97 8.28C5.97 8.04 5.92667 7.83333 5.84 7.66C5.75333 7.49333 5.61333 7.34667 5.42 7.22C5.22667 7.08667 4.98 6.96 4.68 6.84C4.38 6.72 4.02333 6.59333 3.61 6.46C3.25 6.34 2.88667 6.21 2.52 6.07C2.15333 5.92333 1.81667 5.75 1.51 5.55C1.21 5.34333 0.966667 5.08667 0.78 4.78C0.593333 4.48 0.5 4.11333 0.5 3.68C0.5 2.9 0.82 2.27333 1.46 1.8C2.1 1.32 2.95333 1.08 4.02 1.08C5 1.08 5.89 1.28333 6.69 1.69V3.95H5.62V2.35C5.16 2.15667 4.57667 2.06 3.87 2.06C3.15667 2.06 2.61 2.20667 2.23 2.5C1.85667 2.79333 1.67 3.14333 1.67 3.55C1.67 3.81667 1.72 4.03667 1.82 4.21C1.92 4.38333 2.07333 4.54 2.28 4.68C2.48 4.81333 2.73 4.93667 3.03 5.05C3.33 5.16333 3.68333 5.28667 4.09 5.42C4.45 5.54 4.81333 5.67333 5.18 5.82C5.54 5.96 5.86667 6.13 6.16 6.33C6.45333 6.52333 6.69 6.76667 6.87 7.06C7.05 7.35333 7.14 7.71 7.14 8.13C7.14 8.97 6.81 9.62 6.15 10.08C5.49667 10.54 4.59 10.77 3.43 10.77ZM8.13 10.77V9.78H9.21V0.99H8.13V0H10.28V9.78H11.36V10.77H8.13ZM12.8 4.85V3.86C13.6933 3.44 14.6067 3.23 15.54 3.23C16.3533 3.23 16.9667 3.41667 17.38 3.79C17.7933 4.15667 18 4.75333 18 5.58V9.78H19.08V10.77H17L16.92 9.68H16.87C16.2233 10.4067 15.4567 10.77 14.57 10.77C13.8567 10.77 13.3067 10.5867 12.92 10.22C12.54 9.86 12.35 9.35667 12.35 8.71C12.35 7.10333 13.6233 6.3 16.17 6.3H16.92V5.55C16.92 5.11667 16.8 4.78667 16.56 4.56C16.3133 4.33333 15.92 4.22 15.38 4.22C14.5933 4.22 13.7333 4.43 12.8 4.85ZM16.92 7.29H15.99C14.3367 7.29 13.51 7.73667 13.51 8.63C13.51 9.01667 13.6233 9.30667 13.85 9.5C14.07 9.68667 14.39 9.78 14.81 9.78C15.57 9.78 16.2733 9.41667 16.92 8.69V7.29ZM22.13 4.95V9.68C22.5567 9.77333 22.9867 9.82 23.42 9.82C24.2933 9.82 24.94 9.58 25.36 9.1C25.78 8.62 25.99 7.91333 25.99 6.98C25.99 6.13333 25.8067 5.46 25.44 4.96C25.0733 4.46667 24.5667 4.22 23.92 4.22C23.2733 4.22 22.6767 4.46333 22.13 4.95ZM22.13 0V4.02H22.15C22.7967 3.49333 23.5067 3.23 24.28 3.23C25.1533 3.23 25.85 3.57 26.37 4.25C26.89 4.93667 27.15 5.79333 27.15 6.82C27.15 7.98 26.8367 8.93 26.21 9.67C25.5833 10.4033 24.6767 10.77 23.49 10.77C22.7633 10.77 21.95 10.6567 21.05 10.43V0.99H19.97V0H22.13ZM28.95 7.04C28.95 5.86667 29.28 4.93667 29.94 4.25C30.5933 3.57 31.43 3.23 32.45 3.23C33.4567 3.23 34.26 3.55 34.86 4.19C35.4667 4.83 35.77 5.72667 35.77 6.88C35.77 8.07333 35.45 9.02 34.81 9.72C34.17 10.42 33.3367 10.77 32.31 10.77C31.3033 10.77 30.49 10.4333 29.87 9.76C29.2567 9.09333 28.95 8.18667 28.95 7.04ZM30.12 6.88C30.12 7.83333 30.3167 8.55667 30.71 9.05C31.1033 9.53667 31.67 9.78 32.41 9.78C33.1167 9.78 33.66 9.54667 34.04 9.08C34.4133 8.61333 34.6 7.92 34.6 7C34.6 6.06667 34.4133 5.37 34.04 4.91C33.66 4.45 33.0867 4.22 32.32 4.22C31.64 4.22 31.1033 4.43333 30.71 4.86C30.3167 5.28 30.12 5.95333 30.12 6.88ZM42.59 10.77H41.51V3.14H40.44V2.15H42.59V10.77ZM44.74 12.56V11.54C45.5067 11.8067 46.2867 11.94 47.08 11.94C47.8667 11.94 48.4767 11.75 48.91 11.37C49.3367 10.9967 49.55 10.4567 49.55 9.75C49.55 9.06333 49.35 8.55333 48.95 8.22C48.55 7.88667 47.9567 7.72 47.17 7.72H46.54V6.77H46.93C47.6167 6.77 48.14 6.6 48.5 6.26C48.8667 5.92667 49.05 5.43333 49.05 4.78C49.05 4.24 48.9067 3.83 48.62 3.55C48.3333 3.27667 47.9133 3.14 47.36 3.14C46.8 3.14 46.2867 3.25333 45.82 3.48V4.49H44.78V2.93C45.6067 2.41 46.4867 2.15 47.42 2.15C48.2933 2.15 48.99 2.38 49.51 2.84C50.03 3.29333 50.29 3.90333 50.29 4.67C50.29 5.77 49.71 6.57 48.55 7.07V7.09C49.2767 7.27 49.8433 7.58333 50.25 8.03C50.65 8.48333 50.85 9.04333 50.85 9.71C50.85 10.67 50.4933 11.4467 49.78 12.04C49.0667 12.6267 48.1467 12.92 47.02 12.92C46.2333 12.92 45.4733 12.8 44.74 12.56ZM54.44 13.01H55.51V14H52.28V13.01H53.36V4.22H52.28V3.23H54.36L54.44 4.09H54.51C55.13 3.51667 55.81 3.23 56.55 3.23C57.4167 3.23 58.1167 3.57 58.65 4.25C59.19 4.92333 59.46 5.79333 59.46 6.86C59.46 8.02 59.1467 8.96 58.52 9.68C57.8933 10.4067 57.09 10.77 56.11 10.77C55.5433 10.77 54.9967 10.6567 54.47 10.43L54.44 10.45V13.01ZM54.44 5.13V9.48C54.88 9.68 55.3867 9.78 55.96 9.78C56.7 9.78 57.2733 9.56333 57.68 9.13C58.0933 8.69 58.3 7.99333 58.3 7.04C58.3 6.14 58.1167 5.44333 57.75 4.95C57.3833 4.46333 56.8767 4.22 56.23 4.22C55.5967 4.22 55 4.52333 54.44 5.13ZM64.72 6.3H64.76L66.39 4.22H65.56V3.23H68.44V4.22H67.47L65.24 6.98L67.4 9.78H68.44V10.77H65.21V9.78H66L64.52 7.66H64.49L62.87 9.78H63.77V10.77H60.9V9.78H61.74L64 7L61.88 4.22H60.9V3.23H64.13V4.22H63.27L64.72 6.3Z" fill="black"/>
</svg>
