<svg width="68.923" height="17.231" viewBox="0 0 68.923 17.231" xmlns="http://www.w3.org/2000/svg"><path transform="translate(0 12.923) scale(.017949 -.017949)" d="m158 0q-79 0-158 33v127h60v-90q46-15 108-15 63 0 97.5 24t34.5 60q0 20-7.5 34t-23.5 25-41 21-60 21q-30 10-60.5 22t-56 29-41 42.5-15.5 61.5q0 65 53.5 105t142.5 40q82 0 149-34v-126h-60v89q-38 16-97 16-60 0-91.5-24.5t-31.5-58.5q0-22 8.5-36.5t25.5-26 42-21 59-20.5q30-10 60.5-22t55-28.5 39.5-41 15-59.5q0-70-55-108.5t-152-38.5z"/><path transform="translate(7.5385 12.923) scale(.017949 -.017949)" d="M0 55H60V545H0V600H120V55H180V0H0Z"/><path transform="translate(11.846 12.923) scale(.017949 -.017949)" d="m20 385q75 35 153 35 68 0 102.5-31t34.5-100v-234h60v-55h-116l-4 61h-3q-54-61-128-61-60 0-92 30.5t-32 84.5q0 134 213 134h42v42q0 36-20.5 55t-65.5 19q-66 0-144-35zm178-191q-138 0-138-75 0-32 18.5-48t53.5-16q64 0 118 61v78z"/><path transform="translate(19.385 12.923) scale(.017949 -.017949)" d="m120 61q36-8 72-8 73 0 108 40t35 118q0 71-30.5 112.5t-84.5 41.5-100-41zm0 315h1q54 44 119 44 73 0 116.5-57t43.5-143q0-97-52.5-158.5t-151.5-61.5q-61 0-136 19v526h-60v55h120z"/><path transform="translate(28 12.923) scale(.017949 -.017949)" d="m20 208q0 98 55 155t140 57q84 0 134.5-53.5t50.5-149.5q0-100-53.5-158.5t-139.5-58.5q-84 0-135.5 56t-51.5 152zm65 9q0-80 33-121t95-41q59 0 90.5 39t31.5 116q0 78-31.5 116.5t-95.5 38.5q-57 0-90-35.5t-33-112.5z"/><path transform="translate(39.846 12.923) scale(.017949 -.017949)" d="M60 0V425H0V480H120V0Z"/><path transform="translate(44.154 12.923) scale(.017949 -.017949)" d="m0-43q64-22 130-22t102 31.5 36 90.5q0 57-33.5 85t-99.5 28h-35v53h22q57 0 87.5 28t30.5 83q0 45-24 68t-70 23q-47 0-86-19v-56h-58v87q69 43 147 43 73 0 116.5-38t43.5-102q0-92-97-134v-1q61-15 94.5-52.5t33.5-93.5q0-80-59.5-129.5t-153.5-49.5q-66 0-127 20z"/><path transform="translate(51.692 12.923) scale(.017949 -.017949)" d="m180-125v-55h-180v55h60v490h-60v55h116l4-48h4q52 48 114 48 72 0 117-56.5t45-145.5q0-97-52.5-157.5t-134.5-60.5q-47 0-91 19l-2-1v-143zm-60 197q37-17 85-17 62 0 96 36.5t34 116.5q0 75-30.5 116t-84.5 41q-53 0-100-51z"/><path transform="translate(60.308 12.923) scale(.017949 -.017949)" d="M215 249 306 365H260V420H420V365H366L242 211L362 55H420V0H240V55H284L202 173H200L110 55H160V0H0V55H47L173 210L55 365H0V420H180V365H132L213 249Z"/></svg>