<svg width="158" height="10" viewBox="0 0 158 10" fill="none" xmlns="http://www.w3.org/2000/svg">
<path d="M3.4862 9.87C2.41287 9.87 1.6362 9.63667 1.1562 9.17C0.676203 8.69667 0.459536 8.06333 0.506203 7.27C0.512869 7.12333 0.559536 7.05 0.646203 7.05H1.4962C1.60954 7.05 1.6562 7.11333 1.6362 7.24C1.62954 7.81333 1.78287 8.23333 2.0962 8.5C2.4162 8.76 2.9062 8.89 3.5662 8.89C4.21287 8.89 4.69287 8.77333 5.0062 8.54C5.3262 8.3 5.4862 7.93667 5.4862 7.45C5.4862 7.19 5.44287 6.97 5.3562 6.79C5.2762 6.60333 5.1462 6.44 4.9662 6.3C4.77954 6.16 4.52954 6.02667 4.2162 5.9L2.3462 5.04C1.9462 4.85333 1.61954 4.65 1.3662 4.43C1.1062 4.21667 0.919536 3.97 0.806203 3.69C0.699536 3.41 0.646203 3.08333 0.646203 2.71C0.652869 1.95 0.899536 1.37667 1.3862 0.99C1.87287 0.603333 2.57287 0.41 3.4862 0.41C4.4462 0.41 5.1962 0.63 5.7362 1.07C6.26954 1.51 6.50287 2.13 6.4362 2.93C6.42954 3.07667 6.38287 3.15 6.2962 3.15H5.4462C5.4062 3.15 5.3762 3.13667 5.3562 3.11C5.32954 3.08333 5.32287 3.02333 5.3362 2.93C5.36287 2.43667 5.21287 2.05667 4.8862 1.79C4.55954 1.52333 4.08287 1.39 3.4562 1.39C2.9162 1.39 2.49954 1.49333 2.2062 1.7C1.91954 1.90667 1.77287 2.22333 1.7662 2.65C1.7662 2.89 1.80287 3.1 1.8762 3.28C1.9562 3.46 2.08954 3.62 2.2762 3.76C2.46287 3.9 2.7162 4.04 3.0362 4.18L4.8662 5.02C5.2862 5.21333 5.6262 5.41667 5.8862 5.63C6.13954 5.84333 6.32287 6.09667 6.4362 6.39C6.54954 6.67667 6.6062 7.02667 6.6062 7.44C6.6062 8.20667 6.3562 8.80333 5.8562 9.23C5.3562 9.65667 4.5662 9.87 3.4862 9.87ZM10.8762 9.87C9.98954 9.87 9.31287 9.64667 8.8462 9.2C8.37954 8.75333 8.1462 8.08667 8.1462 7.2V5.41C8.1462 4.52333 8.3762 3.85667 8.8362 3.41C9.30287 2.95667 9.98287 2.73 10.8762 2.73C11.7629 2.73 12.4395 2.95667 12.9062 3.41C13.3729 3.85667 13.6062 4.52333 13.6062 5.41V7.2C13.6062 8.08667 13.3762 8.75333 12.9162 9.2C12.4495 9.64667 11.7695 9.87 10.8762 9.87ZM10.8762 8.88C11.4295 8.88 11.8362 8.73667 12.0962 8.45C12.3562 8.15667 12.4862 7.71333 12.4862 7.12V5.51C12.4862 4.91 12.3562 4.46667 12.0962 4.18C11.8362 3.88667 11.4295 3.74 10.8762 3.74C10.3162 3.74 9.9062 3.88667 9.6462 4.18C9.3862 4.46667 9.2562 4.91 9.2562 5.51V7.12C9.2562 7.71333 9.3862 8.15667 9.6462 8.45C9.9062 8.73667 10.3162 8.88 10.8762 8.88ZM16.8662 9.72H15.9962C15.9629 9.72 15.9329 9.70667 15.9062 9.68C15.8862 9.66 15.8762 9.63 15.8762 9.59V3.87H14.8562C14.8162 3.87 14.7862 3.85667 14.7662 3.83C14.7395 3.81 14.7262 3.78 14.7262 3.74V3.03C14.7262 2.98333 14.7395 2.95 14.7662 2.93C14.7862 2.91 14.8162 2.9 14.8562 2.9H15.8762V2.15C15.8762 1.45667 16.0595 0.926667 16.4262 0.56C16.7929 0.186667 17.3195 0 18.0062 0C18.2195 0 18.4395 0.023333 18.6662 0.0699997C18.8929 0.11 19.0829 0.156666 19.2362 0.21C19.3762 0.27 19.4462 0.34 19.4462 0.42V1.12C19.4462 1.23333 19.3562 1.25333 19.1762 1.18C19.0295 1.12667 18.8595 1.07667 18.6662 1.03C18.4729 0.99 18.2995 0.97 18.1462 0.97C17.7529 0.97 17.4629 1.07 17.2762 1.27C17.0895 1.47 16.9962 1.77667 16.9962 2.19V2.9H18.9162C18.9962 2.9 19.0362 2.94333 19.0362 3.03V3.74C19.0362 3.78 19.0262 3.81 19.0062 3.83C18.9929 3.85667 18.9629 3.87 18.9162 3.87H16.9962V9.59C16.9962 9.67667 16.9529 9.72 16.8662 9.72ZM21.3062 9.72H20.4362C20.3562 9.72 20.3162 9.67667 20.3162 9.59V3.03C20.3162 2.94333 20.3562 2.9 20.4362 2.9H21.3062C21.3929 2.9 21.4362 2.94333 21.4362 3.03V9.59C21.4362 9.67667 21.3929 9.72 21.3062 9.72ZM20.8862 1.73C20.6329 1.73 20.4495 1.66 20.3362 1.52C20.2162 1.38667 20.1562 1.21667 20.1562 1.01V0.87C20.1562 0.656667 20.2162 0.483333 20.3362 0.35C20.4495 0.223333 20.6329 0.16 20.8862 0.16C21.1395 0.16 21.3229 0.223333 21.4362 0.35C21.5562 0.483333 21.6162 0.656667 21.6162 0.87V1.01C21.6162 1.21667 21.5562 1.38667 21.4362 1.52C21.3229 1.66 21.1395 1.73 20.8862 1.73ZM27.9862 9.72H27.2162C27.1429 9.72 27.0962 9.66333 27.0762 9.55C27.0562 9.43667 27.0329 9.26 27.0062 9.02C26.9795 8.78 26.9595 8.55667 26.9462 8.35L26.9062 7.93V4.99C26.9062 4.52333 26.8162 4.19333 26.6362 4C26.4495 3.80667 26.1395 3.71 25.7062 3.71C24.8929 3.71 24.4862 4.02333 24.4862 4.65C24.4862 4.73667 24.4495 4.78 24.3762 4.78H23.5162C23.4362 4.78 23.3895 4.70333 23.3762 4.55C23.3429 4.00333 23.5362 3.56667 23.9562 3.24C24.3762 2.91333 24.9662 2.74333 25.7262 2.73C26.5062 2.73 27.0829 2.91333 27.4562 3.28C27.8362 3.64667 28.0262 4.21 28.0262 4.97V8.04C28.0262 8.36667 28.0329 8.66 28.0462 8.92C28.0595 9.17333 28.0795 9.39333 28.1062 9.58C28.1262 9.67333 28.0862 9.72 27.9862 9.72ZM24.6762 9.87C24.1629 9.87 23.7695 9.71 23.4962 9.39C23.2229 9.07 23.0862 8.6 23.0862 7.98C23.0862 7.51333 23.1729 7.13 23.3462 6.83C23.5262 6.52333 23.8129 6.28333 24.2062 6.11C24.6062 5.94333 25.1295 5.83 25.7762 5.77L27.0862 5.65V6.49L25.7962 6.6C25.2029 6.65333 24.7895 6.77667 24.5562 6.97C24.3229 7.16333 24.2062 7.47333 24.2062 7.9C24.2062 8.22667 24.2695 8.47667 24.3962 8.65C24.5295 8.82333 24.7329 8.91 25.0062 8.91C25.2995 8.91 25.6095 8.80333 25.9362 8.59C26.2562 8.38333 26.6595 8.01333 27.1462 7.48L27.1562 8.42C26.6895 8.94 26.2662 9.31333 25.8862 9.54C25.4995 9.76 25.0962 9.87 24.6762 9.87ZM35.5262 9.87C34.4529 9.87 33.6762 9.63667 33.1962 9.17C32.7162 8.69667 32.4995 8.06333 32.5462 7.27C32.5595 7.12333 32.6062 7.05 32.6862 7.05H33.5462C33.6529 7.05 33.6995 7.11333 33.6862 7.24C33.6729 7.81333 33.8262 8.23333 34.1462 8.5C34.4595 8.76 34.9495 8.89 35.6162 8.89C36.2562 8.89 36.7362 8.77333 37.0562 8.54C37.3762 8.3 37.5362 7.93667 37.5362 7.45C37.5362 7.19 37.4929 6.97 37.4062 6.79C37.3195 6.60333 37.1862 6.44 37.0062 6.3C36.8262 6.16 36.5762 6.02667 36.2562 5.9L34.3962 5.04C33.9962 4.85333 33.6662 4.65 33.4062 4.43C33.1529 4.21667 32.9695 3.97 32.8562 3.69C32.7429 3.41 32.6862 3.08333 32.6862 2.71C32.6995 1.95 32.9462 1.37667 33.4262 0.99C33.9129 0.603333 34.6129 0.41 35.5262 0.41C36.4929 0.41 37.2429 0.63 37.7762 1.07C38.3162 1.51 38.5529 2.13 38.4862 2.93C38.4729 3.07667 38.4262 3.15 38.3462 3.15H37.4862C37.4529 3.15 37.4229 3.13667 37.3962 3.11C37.3762 3.08333 37.3695 3.02333 37.3762 2.93C37.4029 2.43667 37.2529 2.05667 36.9262 1.79C36.5995 1.52333 36.1262 1.39 35.5062 1.39C34.9595 1.39 34.5429 1.49333 34.2562 1.7C33.9695 1.90667 33.8195 2.22333 33.8062 2.65C33.8062 2.89 33.8462 3.1 33.9262 3.28C34.0062 3.46 34.1395 3.62 34.3262 3.76C34.5129 3.9 34.7662 4.04 35.0862 4.18L36.9162 5.02C37.3362 5.21333 37.6762 5.41667 37.9362 5.63C38.1895 5.84333 38.3729 6.09667 38.4862 6.39C38.5995 6.67667 38.6562 7.02667 38.6562 7.44C38.6562 8.20667 38.4062 8.80333 37.9062 9.23C37.4062 9.65667 36.6129 9.87 35.5262 9.87ZM44.9062 9.72H44.1362C44.0629 9.72 44.0162 9.66333 43.9962 9.55C43.9829 9.43667 43.9595 9.26 43.9262 9.02C43.8995 8.78 43.8829 8.55667 43.8762 8.35L43.8362 7.93V4.99C43.8362 4.52333 43.7429 4.19333 43.5562 4C43.3762 3.80667 43.0662 3.71 42.6262 3.71C41.8129 3.71 41.4062 4.02333 41.4062 4.65C41.4062 4.73667 41.3695 4.78 41.2962 4.78H40.4462C40.3595 4.78 40.3129 4.70333 40.3062 4.55C40.2662 4.00333 40.4562 3.56667 40.8762 3.24C41.2962 2.91333 41.8895 2.74333 42.6562 2.73C43.4295 2.73 44.0062 2.91333 44.3862 3.28C44.7662 3.64667 44.9562 4.21 44.9562 4.97V8.04C44.9562 8.36667 44.9629 8.66 44.9762 8.92C44.9895 9.17333 45.0095 9.39333 45.0362 9.58C45.0562 9.67333 45.0129 9.72 44.9062 9.72ZM41.6062 9.87C41.0929 9.87 40.6995 9.71 40.4262 9.39C40.1462 9.07 40.0062 8.6 40.0062 7.98C40.0062 7.51333 40.0962 7.13 40.2762 6.83C40.4562 6.52333 40.7429 6.28333 41.1362 6.11C41.5362 5.94333 42.0562 5.83 42.6962 5.77L44.0162 5.65V6.49L42.7262 6.6C42.1262 6.65333 41.7095 6.77667 41.4762 6.97C41.2429 7.16333 41.1262 7.47333 41.1262 7.9C41.1262 8.22667 41.1929 8.47667 41.3262 8.65C41.4595 8.82333 41.6595 8.91 41.9262 8.91C42.2262 8.91 42.5362 8.80333 42.8562 8.59C43.1829 8.38333 43.5862 8.01333 44.0662 7.48L44.0862 8.42C43.6195 8.94 43.1929 9.31333 42.8062 9.54C42.4262 9.76 42.0262 9.87 41.6062 9.87ZM52.2062 9.72H51.3362C51.2495 9.72 51.2062 9.67667 51.2062 9.59V5.06C51.2062 4.6 51.1195 4.26667 50.9462 4.06C50.7662 3.84667 50.4895 3.74 50.1162 3.74C49.7695 3.74 49.4262 3.84667 49.0862 4.06C48.7395 4.26667 48.3329 4.60333 47.8662 5.07L47.8362 4.13C48.1362 3.81667 48.4229 3.55667 48.6962 3.35C48.9695 3.14333 49.2462 2.99 49.5262 2.89C49.8062 2.78333 50.1029 2.73 50.4162 2.73C51.0495 2.73 51.5262 2.92 51.8462 3.3C52.1662 3.68 52.3262 4.24333 52.3262 4.99V9.59C52.3262 9.67667 52.2862 9.72 52.2062 9.72ZM47.9362 9.72H47.0662C46.9795 9.72 46.9362 9.67667 46.9362 9.59V4.6C46.9362 4.33333 46.9295 4.05333 46.9162 3.76C46.8962 3.46667 46.8762 3.23333 46.8562 3.06C46.8362 2.95333 46.8795 2.9 46.9862 2.9H47.7762C47.8562 2.9 47.9029 2.94333 47.9162 3.03C47.9495 3.17 47.9762 3.37333 47.9962 3.64C48.0229 3.91333 48.0395 4.14333 48.0462 4.33L48.0562 4.65V9.59C48.0562 9.67667 48.0162 9.72 47.9362 9.72ZM56.4162 9.87C55.6162 9.87 55.0162 9.69333 54.6162 9.34C54.2229 8.98 54.0295 8.43333 54.0362 7.7C54.0362 7.62 54.0829 7.58 54.1762 7.58H55.0362C55.1095 7.58 55.1462 7.61667 55.1462 7.69C55.1462 8.11667 55.2462 8.43 55.4462 8.63C55.6462 8.82333 55.9762 8.92 56.4362 8.92C56.8829 8.92 57.2162 8.84 57.4362 8.68C57.6562 8.52667 57.7662 8.29333 57.7662 7.98C57.7662 7.74667 57.7029 7.55333 57.5762 7.4C57.4495 7.24667 57.2395 7.10667 56.9462 6.98L55.4362 6.29C54.9695 6.07667 54.6329 5.83667 54.4262 5.57C54.2262 5.30333 54.1262 4.95667 54.1262 4.53C54.1262 3.93667 54.3129 3.49 54.6862 3.19C55.0662 2.88333 55.6262 2.73 56.3662 2.73C57.1395 2.73 57.7295 2.89667 58.1362 3.23C58.5429 3.56333 58.7395 4.02667 58.7262 4.62C58.7262 4.7 58.6862 4.74 58.6062 4.74H57.7462C57.6529 4.74 57.6062 4.67333 57.6062 4.54C57.6195 4.28 57.5195 4.07333 57.3062 3.92C57.0995 3.77333 56.7995 3.7 56.4062 3.7C56.0129 3.7 55.7195 3.76667 55.5262 3.9C55.3395 4.04 55.2462 4.25 55.2462 4.53C55.2462 4.75 55.2995 4.92 55.4062 5.04C55.5195 5.15333 55.7362 5.28667 56.0562 5.44L57.5562 6.12C58.0229 6.33333 58.3595 6.58 58.5662 6.86C58.7795 7.13333 58.8862 7.49 58.8862 7.93C58.8862 8.55667 58.6762 9.03667 58.2562 9.37C57.8362 9.70333 57.2229 9.87 56.4162 9.87ZM66.0062 9.87C64.9329 9.87 64.1562 9.63667 63.6762 9.17C63.1962 8.69667 62.9795 8.06333 63.0262 7.27C63.0329 7.12333 63.0795 7.05 63.1662 7.05H64.0162C64.1295 7.05 64.1762 7.11333 64.1562 7.24C64.1495 7.81333 64.3062 8.23333 64.6262 8.5C64.9395 8.76 65.4295 8.89 66.0962 8.89C66.7362 8.89 67.2162 8.77333 67.5362 8.54C67.8495 8.3 68.0062 7.93667 68.0062 7.45C68.0062 7.19 67.9662 6.97 67.8862 6.79C67.7995 6.60333 67.6662 6.44 67.4862 6.3C67.3062 6.16 67.0562 6.02667 66.7362 5.9L64.8762 5.04C64.4762 4.85333 64.1462 4.65 63.8862 4.43C63.6329 4.21667 63.4495 3.97 63.3362 3.69C63.2229 3.41 63.1662 3.08333 63.1662 2.71C63.1729 1.95 63.4195 1.37667 63.9062 0.99C64.3929 0.603333 65.0929 0.41 66.0062 0.41C66.9662 0.41 67.7162 0.63 68.2562 1.07C68.7895 1.51 69.0262 2.13 68.9662 2.93C68.9529 3.07667 68.9062 3.15 68.8262 3.15H67.9662C67.9329 3.15 67.9029 3.13667 67.8762 3.11C67.8562 3.08333 67.8495 3.02333 67.8562 2.93C67.8829 2.43667 67.7329 2.05667 67.4062 1.79C67.0795 1.52333 66.6029 1.39 65.9762 1.39C65.4362 1.39 65.0229 1.49333 64.7362 1.7C64.4429 1.90667 64.2929 2.22333 64.2862 2.65C64.2862 2.89 64.3262 3.1 64.4062 3.28C64.4862 3.46 64.6195 3.62 64.8062 3.76C64.9929 3.9 65.2429 4.04 65.5562 4.18L67.3962 5.02C67.8162 5.21333 68.1529 5.41667 68.4062 5.63C68.6662 5.84333 68.8529 6.09667 68.9662 6.39C69.0729 6.67667 69.1262 7.02667 69.1262 7.44C69.1262 8.20667 68.8762 8.80333 68.3762 9.23C67.8829 9.65667 67.0929 9.87 66.0062 9.87ZM73.3162 9.87C72.4562 9.87 71.7995 9.66333 71.3462 9.25C70.8929 8.83667 70.6662 8.22 70.6662 7.4V5.39C70.6662 4.52333 70.8929 3.86333 71.3462 3.41C71.7995 2.95667 72.4529 2.73 73.3062 2.73C74.1729 2.73 74.8295 2.95333 75.2762 3.4C75.7229 3.84 75.9462 4.48667 75.9462 5.34V6.43C75.9462 6.51667 75.9062 6.56 75.8262 6.56H71.7762V7.16C71.7762 7.76667 71.9029 8.20667 72.1562 8.48C72.4095 8.75333 72.8162 8.89 73.3762 8.89C73.8095 8.89 74.1429 8.81333 74.3762 8.66C74.6029 8.5 74.7129 8.27 74.7062 7.97C74.7062 7.87667 74.7529 7.83 74.8462 7.83H75.6962C75.7629 7.83 75.8062 7.86667 75.8262 7.94C75.8529 8.54 75.6429 9.01333 75.1962 9.36C74.7562 9.7 74.1295 9.87 73.3162 9.87ZM71.7762 5.41V5.63H74.8262V5.41C74.8262 4.83 74.7029 4.40333 74.4562 4.13C74.2095 3.85 73.8295 3.71 73.3162 3.71C72.8029 3.71 72.4162 3.85333 72.1562 4.14C71.9029 4.42667 71.7762 4.85 71.7762 5.41ZM78.7362 9.72H77.8662C77.7795 9.72 77.7362 9.67667 77.7362 9.59V4.6C77.7362 4.32667 77.7329 4.05333 77.7262 3.78C77.7195 3.51333 77.6962 3.27333 77.6562 3.06C77.6362 2.95333 77.6829 2.9 77.7962 2.9H78.5762C78.6562 2.9 78.6995 2.93333 78.7062 3C78.7262 3.14667 78.7462 3.3 78.7662 3.46C78.7929 3.62 78.8095 3.79 78.8162 3.97C79.2162 3.55667 79.5995 3.24667 79.9662 3.04C80.3329 2.83333 80.7262 2.73 81.1462 2.73C81.5795 2.73 81.9362 2.84 82.2162 3.06C82.4962 3.28 82.6895 3.6 82.7962 4.02C83.2162 3.58 83.6095 3.25667 83.9762 3.05C84.3429 2.83667 84.7429 2.73 85.1762 2.73C85.7562 2.73 86.1929 2.92 86.4862 3.3C86.7862 3.68 86.9362 4.23 86.9362 4.95V9.59C86.9362 9.67667 86.8962 9.72 86.8162 9.72H85.9462C85.8595 9.72 85.8162 9.67667 85.8162 9.59V5.03C85.8162 4.60333 85.7362 4.28 85.5762 4.06C85.4229 3.84667 85.1829 3.74 84.8562 3.74C84.5629 3.74 84.2595 3.83333 83.9462 4.02C83.6329 4.20667 83.2829 4.49667 82.8962 4.89V9.59C82.8962 9.67667 82.8529 9.72 82.7662 9.72H81.9162C81.8229 9.72 81.7762 9.67667 81.7762 9.59V5.03C81.7762 4.60333 81.6962 4.28 81.5362 4.06C81.3762 3.84667 81.1329 3.74 80.8062 3.74C80.5195 3.74 80.2195 3.83333 79.9062 4.02C79.5995 4.20667 79.2495 4.49667 78.8562 4.89V9.59C78.8562 9.67667 78.8162 9.72 78.7362 9.72ZM89.9362 9.72H89.0662C88.9795 9.72 88.9362 9.67667 88.9362 9.59V3.03C88.9362 2.94333 88.9795 2.9 89.0662 2.9H89.9362C90.0162 2.9 90.0562 2.94333 90.0562 3.03V9.59C90.0562 9.67667 90.0162 9.72 89.9362 9.72ZM89.5162 1.73C89.2629 1.73 89.0795 1.66 88.9662 1.52C88.8462 1.38667 88.7862 1.21667 88.7862 1.01V0.87C88.7862 0.656667 88.8462 0.483333 88.9662 0.35C89.0795 0.223333 89.2629 0.16 89.5162 0.16C89.7695 0.16 89.9529 0.223333 90.0662 0.35C90.1862 0.483333 90.2462 0.656667 90.2462 0.87V1.01C90.2462 1.21667 90.1862 1.38667 90.0662 1.52C89.9529 1.66 89.7695 1.73 89.5162 1.73ZM98.1662 9.87C97.0929 9.87 96.2762 9.59667 95.7162 9.05C95.1562 8.49667 94.8762 7.69667 94.8762 6.65V3.62C94.8762 2.58 95.1595 1.78333 95.7262 1.23C96.2862 0.676667 97.1029 0.4 98.1762 0.4C98.8695 0.4 99.4762 0.523333 99.9962 0.77C100.51 1.01667 100.896 1.37 101.156 1.83C101.41 2.29 101.496 2.84333 101.416 3.49C101.403 3.53 101.39 3.56667 101.376 3.6C101.356 3.64 101.323 3.66 101.276 3.66H100.406C100.313 3.66 100.276 3.61333 100.296 3.52C100.33 2.84 100.163 2.31667 99.7962 1.95C99.4295 1.58333 98.8962 1.4 98.1962 1.4C97.4829 1.4 96.9395 1.58667 96.5662 1.96C96.1862 2.33333 95.9962 2.88667 95.9962 3.62V6.65C95.9962 7.38333 96.1862 7.93667 96.5662 8.31C96.9395 8.68333 97.4829 8.87 98.1962 8.87C98.9162 8.87 99.4595 8.68333 99.8262 8.31C100.193 7.94333 100.35 7.42333 100.296 6.75C100.276 6.65667 100.313 6.61 100.406 6.61H101.256C101.35 6.61 101.403 6.67 101.416 6.79C101.47 7.41667 101.37 7.96333 101.116 8.43C100.856 8.89 100.476 9.24667 99.9762 9.5C99.4695 9.74667 98.8662 9.87 98.1662 9.87ZM105.876 9.87C104.99 9.87 104.313 9.64667 103.846 9.2C103.38 8.75333 103.146 8.08667 103.146 7.2V5.41C103.146 4.52333 103.38 3.85667 103.846 3.41C104.306 2.95667 104.983 2.73 105.876 2.73C106.763 2.73 107.44 2.95667 107.906 3.41C108.373 3.85667 108.606 4.52333 108.606 5.41V7.2C108.606 8.08667 108.376 8.75333 107.916 9.2C107.456 9.64667 106.776 9.87 105.876 9.87ZM105.876 8.88C106.43 8.88 106.836 8.73667 107.096 8.45C107.356 8.15667 107.486 7.71333 107.486 7.12V5.51C107.486 4.91 107.356 4.46667 107.096 4.18C106.836 3.88667 106.43 3.74 105.876 3.74C105.316 3.74 104.906 3.88667 104.646 4.18C104.386 4.46667 104.256 4.91 104.256 5.51V7.12C104.256 7.71333 104.386 8.15667 104.646 8.45C104.906 8.73667 105.316 8.88 105.876 8.88ZM115.696 9.72H114.826C114.74 9.72 114.696 9.67667 114.696 9.59V5.06C114.696 4.6 114.61 4.26667 114.436 4.06C114.256 3.84667 113.98 3.74 113.606 3.74C113.26 3.74 112.916 3.84667 112.576 4.06C112.23 4.26667 111.823 4.60333 111.356 5.07L111.326 4.13C111.626 3.81667 111.913 3.55667 112.186 3.35C112.46 3.14333 112.736 2.99 113.016 2.89C113.296 2.78333 113.593 2.73 113.906 2.73C114.54 2.73 115.016 2.92 115.336 3.3C115.656 3.68 115.816 4.24333 115.816 4.99V9.59C115.816 9.67667 115.776 9.72 115.696 9.72ZM111.426 9.72H110.556C110.47 9.72 110.426 9.67667 110.426 9.59V4.6C110.426 4.33333 110.42 4.05333 110.406 3.76C110.386 3.46667 110.366 3.23333 110.346 3.06C110.326 2.95333 110.37 2.9 110.476 2.9H111.266C111.346 2.9 111.393 2.94333 111.406 3.03C111.44 3.17 111.466 3.37333 111.486 3.64C111.513 3.91333 111.53 4.14333 111.536 4.33L111.546 4.65V9.59C111.546 9.67667 111.506 9.72 111.426 9.72ZM119.586 9.87C118.96 9.87 118.486 9.66667 118.166 9.26C117.846 8.86 117.686 8.25333 117.686 7.44V5.38C117.686 4.54 117.893 3.89 118.306 3.43C118.72 2.96333 119.296 2.73 120.036 2.73C120.396 2.73 120.763 2.78 121.136 2.88C121.503 2.98 121.803 3.11 122.036 3.27L122.096 4.2C121.796 4.04667 121.483 3.93 121.156 3.85C120.836 3.77 120.543 3.73 120.276 3.73C119.79 3.73 119.423 3.87667 119.176 4.17C118.93 4.46333 118.806 4.91 118.806 5.51V7.47C118.806 7.94333 118.896 8.29667 119.076 8.53C119.256 8.76333 119.533 8.88 119.906 8.88C120.253 8.88 120.586 8.77667 120.906 8.57C121.233 8.35667 121.636 8.00667 122.116 7.52V8.47C121.83 8.79 121.55 9.05333 121.276 9.26C121.01 9.46667 120.736 9.62 120.456 9.72C120.183 9.82 119.893 9.87 119.586 9.87ZM122.976 9.72H122.216C122.123 9.72 122.073 9.67333 122.066 9.58C122.046 9.42 122.026 9.23 122.006 9.01C121.98 8.78333 121.966 8.59 121.966 8.43L121.896 7.94V0.28C121.896 0.2 121.94 0.16 122.026 0.16H122.886C122.973 0.16 123.016 0.2 123.016 0.28V8.11C123.016 8.34333 123.026 8.60333 123.046 8.89C123.066 9.17 123.083 9.38667 123.096 9.54C123.13 9.66 123.09 9.72 122.976 9.72ZM127.496 9.87C126.636 9.87 125.98 9.66333 125.526 9.25C125.073 8.83667 124.846 8.22 124.846 7.4V5.39C124.846 4.52333 125.073 3.86333 125.526 3.41C125.98 2.95667 126.633 2.73 127.486 2.73C128.353 2.73 129.01 2.95333 129.456 3.4C129.903 3.84 130.126 4.48667 130.126 5.34V6.43C130.126 6.51667 130.086 6.56 130.006 6.56H125.956V7.16C125.956 7.76667 126.083 8.20667 126.336 8.48C126.59 8.75333 126.996 8.89 127.556 8.89C127.99 8.89 128.323 8.81333 128.556 8.66C128.783 8.5 128.893 8.27 128.886 7.97C128.886 7.87667 128.933 7.83 129.026 7.83H129.876C129.943 7.83 129.986 7.86667 130.006 7.94C130.033 8.54 129.823 9.01333 129.376 9.36C128.936 9.7 128.31 9.87 127.496 9.87ZM125.956 5.41V5.63H129.006V5.41C129.006 4.83 128.883 4.40333 128.636 4.13C128.39 3.85 128.01 3.71 127.496 3.71C126.983 3.71 126.6 3.85333 126.346 4.14C126.086 4.42667 125.956 4.85 125.956 5.41ZM137.186 9.72H136.316C136.23 9.72 136.186 9.67667 136.186 9.59V5.06C136.186 4.6 136.1 4.26667 135.926 4.06C135.746 3.84667 135.47 3.74 135.096 3.74C134.75 3.74 134.406 3.84667 134.066 4.06C133.72 4.26667 133.313 4.60333 132.846 5.07L132.816 4.13C133.116 3.81667 133.403 3.55667 133.676 3.35C133.95 3.14333 134.226 2.99 134.506 2.89C134.786 2.78333 135.083 2.73 135.396 2.73C136.03 2.73 136.506 2.92 136.826 3.3C137.146 3.68 137.306 4.24333 137.306 4.99V9.59C137.306 9.67667 137.266 9.72 137.186 9.72ZM132.916 9.72H132.046C131.96 9.72 131.916 9.67667 131.916 9.59V4.6C131.916 4.33333 131.91 4.05333 131.896 3.76C131.876 3.46667 131.856 3.23333 131.836 3.06C131.816 2.95333 131.86 2.9 131.966 2.9H132.756C132.836 2.9 132.883 2.94333 132.896 3.03C132.93 3.17 132.956 3.37333 132.976 3.64C133.003 3.91333 133.02 4.14333 133.026 4.33L133.036 4.65V9.59C133.036 9.67667 132.996 9.72 132.916 9.72ZM141.396 9.87C140.596 9.87 139.996 9.69333 139.596 9.34C139.203 8.98 139.01 8.43333 139.016 7.7C139.016 7.62 139.063 7.58 139.156 7.58H140.016C140.09 7.58 140.126 7.61667 140.126 7.69C140.126 8.11667 140.226 8.43 140.426 8.63C140.626 8.82333 140.956 8.92 141.416 8.92C141.863 8.92 142.196 8.84 142.416 8.68C142.636 8.52667 142.746 8.29333 142.746 7.98C142.746 7.74667 142.683 7.55333 142.556 7.4C142.43 7.24667 142.22 7.10667 141.926 6.98L140.416 6.29C139.95 6.07667 139.613 5.83667 139.406 5.57C139.206 5.30333 139.106 4.95667 139.106 4.53C139.106 3.93667 139.293 3.49 139.666 3.19C140.046 2.88333 140.606 2.73 141.346 2.73C142.12 2.73 142.71 2.89667 143.116 3.23C143.523 3.56333 143.72 4.02667 143.706 4.62C143.706 4.7 143.666 4.74 143.586 4.74H142.726C142.633 4.74 142.586 4.67333 142.586 4.54C142.6 4.28 142.5 4.07333 142.286 3.92C142.08 3.77333 141.78 3.7 141.386 3.7C140.993 3.7 140.7 3.76667 140.506 3.9C140.32 4.04 140.226 4.25 140.226 4.53C140.226 4.75 140.28 4.92 140.386 5.04C140.5 5.15333 140.716 5.28667 141.036 5.44L142.536 6.12C143.003 6.33333 143.34 6.58 143.546 6.86C143.76 7.13333 143.866 7.49 143.866 7.93C143.866 8.55667 143.656 9.03667 143.236 9.37C142.816 9.70333 142.203 9.87 141.396 9.87ZM147.946 9.87C147.093 9.87 146.44 9.66333 145.986 9.25C145.533 8.83667 145.306 8.22 145.306 7.4V5.39C145.306 4.52333 145.533 3.86333 145.986 3.41C146.44 2.95667 147.09 2.73 147.936 2.73C148.803 2.73 149.46 2.95333 149.906 3.4C150.36 3.84 150.586 4.48667 150.586 5.34V6.43C150.586 6.51667 150.543 6.56 150.456 6.56H146.406V7.16C146.406 7.76667 146.533 8.20667 146.786 8.48C147.04 8.75333 147.446 8.89 148.006 8.89C148.446 8.89 148.78 8.81333 149.006 8.66C149.233 8.5 149.343 8.27 149.336 7.97C149.336 7.87667 149.383 7.83 149.476 7.83H150.326C150.393 7.83 150.436 7.86667 150.456 7.94C150.483 8.54 150.276 9.01333 149.836 9.36C149.39 9.7 148.76 9.87 147.946 9.87ZM146.406 5.41V5.63H149.466V5.41C149.466 4.83 149.34 4.40333 149.086 4.13C148.84 3.85 148.46 3.71 147.946 3.71C147.433 3.71 147.05 3.85333 146.796 4.14C146.536 4.42667 146.406 4.85 146.406 5.41ZM154.136 9.87C153.51 9.87 153.036 9.66667 152.716 9.26C152.396 8.86 152.236 8.25333 152.236 7.44V5.38C152.236 4.54 152.443 3.89 152.856 3.43C153.27 2.96333 153.846 2.73 154.586 2.73C154.953 2.73 155.32 2.78 155.686 2.88C156.053 2.98 156.353 3.11 156.586 3.27L156.646 4.2C156.346 4.04667 156.036 3.93 155.716 3.85C155.39 3.77 155.093 3.73 154.826 3.73C154.34 3.73 153.973 3.87667 153.726 4.17C153.48 4.46333 153.356 4.91 153.356 5.51V7.47C153.356 7.94333 153.446 8.29667 153.626 8.53C153.806 8.76333 154.083 8.88 154.456 8.88C154.803 8.88 155.136 8.77667 155.456 8.57C155.783 8.35667 156.19 8.00667 156.676 7.52V8.47C156.383 8.79 156.103 9.05333 155.836 9.26C155.563 9.46667 155.29 9.62 155.016 9.72C154.736 9.82 154.443 9.87 154.136 9.87ZM157.526 9.72H156.766C156.673 9.72 156.623 9.67333 156.616 9.58C156.596 9.42 156.576 9.23 156.556 9.01C156.53 8.78333 156.516 8.59 156.516 8.43L156.446 7.94V0.28C156.446 0.2 156.49 0.16 156.576 0.16H157.446C157.526 0.16 157.566 0.2 157.566 0.28V8.11C157.566 8.34333 157.576 8.60333 157.596 8.89C157.616 9.17 157.636 9.38667 157.656 9.54C157.683 9.66 157.64 9.72 157.526 9.72Z" fill="black"/>
</svg>
