<svg width="106" height="10" viewBox="0 0 106 10" fill="none" xmlns="http://www.w3.org/2000/svg">
<path d="M2.44565 9.73C1.93899 9.73 1.53565 9.62 1.23565 9.4C0.942319 9.17333 0.738986 8.86667 0.625652 8.48C0.512319 8.09333 0.475652 7.65333 0.515652 7.16C0.522319 7.06667 0.552319 7.02 0.605652 7.02H1.30565C1.38565 7.02 1.41899 7.06667 1.40565 7.16C1.33899 7.72667 1.40232 8.15 1.59565 8.43C1.78899 8.71 2.08565 8.85 2.48565 8.85C2.85232 8.85 3.12565 8.74 3.30565 8.52C3.48565 8.3 3.57565 7.95667 3.57565 7.49C3.57565 7.08333 3.51899 6.74667 3.40565 6.48C3.29899 6.21333 3.10565 5.97667 2.82565 5.77L1.68565 4.88C1.30565 4.58 1.02232 4.24 0.835652 3.86C0.655652 3.48 0.565652 3.02667 0.565652 2.5C0.578986 1.83333 0.748986 1.31667 1.07565 0.95C1.40899 0.583334 1.86899 0.4 2.45565 0.4C3.14899 0.4 3.65565 0.623334 3.97565 1.07C4.29565 1.51667 4.41899 2.12667 4.34565 2.9C4.34565 3.00667 4.31232 3.06 4.24565 3.06H3.53565C3.46899 3.06 3.44232 3.00667 3.45565 2.9C3.50899 2.38 3.44565 1.98 3.26565 1.7C3.09232 1.42 2.82899 1.28 2.47565 1.28C2.17565 1.28 1.93565 1.37667 1.75565 1.57C1.58232 1.77 1.48899 2.07 1.47565 2.47C1.47565 2.84333 1.54232 3.16 1.67565 3.42C1.80232 3.68 2.00232 3.91667 2.27565 4.13L3.36565 4.99C3.63899 5.19667 3.85565 5.41333 4.01565 5.64C4.18232 5.86667 4.30232 6.12667 4.37565 6.42C4.44899 6.71333 4.48565 7.05667 4.48565 7.45C4.48565 8.16333 4.32232 8.72 3.99565 9.12C3.66232 9.52667 3.14565 9.73 2.44565 9.73ZM7.24565 9.73C6.61899 9.73 6.15565 9.54667 5.85565 9.18C5.56232 8.81333 5.41565 8.24667 5.41565 7.48V5.03C5.41565 4.25667 5.56232 3.68333 5.85565 3.31C6.15565 2.94333 6.61899 2.76 7.24565 2.76C7.87232 2.76 8.33565 2.94333 8.63565 3.31C8.92898 3.68333 9.07565 4.25667 9.07565 5.03V7.48C9.07565 8.24667 8.92898 8.81333 8.63565 9.18C8.33565 9.54667 7.87232 9.73 7.24565 9.73ZM7.24565 8.85C7.57232 8.85 7.80899 8.74333 7.95565 8.53C8.09565 8.31667 8.16565 7.96333 8.16565 7.47V5.06C8.16565 4.55333 8.09565 4.19 7.95565 3.97C7.80899 3.74333 7.57232 3.63 7.24565 3.63C6.91899 3.63 6.68232 3.74333 6.53565 3.97C6.39565 4.19 6.32565 4.55333 6.32565 5.06V7.47C6.32565 7.96333 6.39899 8.31667 6.54565 8.53C6.69232 8.74333 6.92565 8.85 7.24565 8.85ZM11.3757 9.65H10.6757C10.609 9.65 10.5757 9.60667 10.5757 9.52V3.71H9.96565C9.88565 3.71 9.84565 3.67333 9.84565 3.6V2.97C9.84565 2.89 9.88565 2.85 9.96565 2.85H10.5757V1.84C10.5757 1.22 10.6857 0.76 10.9057 0.46C11.1257 0.153333 11.4657 0 11.9257 0C12.1257 0 12.309 0.0166669 12.4757 0.0500002C12.6357 0.0833335 12.759 0.123333 12.8457 0.17C12.919 0.23 12.9557 0.296667 12.9557 0.37V0.96C12.9557 0.993333 12.939 1.02 12.9057 1.04C12.8723 1.06 12.8323 1.05667 12.7857 1.03C12.6923 0.99 12.5923 0.956667 12.4857 0.93C12.3723 0.903334 12.249 0.89 12.1157 0.89C11.8957 0.89 11.7357 0.96 11.6357 1.1C11.5357 1.24667 11.4857 1.49667 11.4857 1.85V2.85H12.5757C12.6557 2.85 12.6957 2.89 12.6957 2.97V3.6C12.6957 3.67333 12.6557 3.71 12.5757 3.71H11.4857V9.52C11.4857 9.60667 11.449 9.65 11.3757 9.65ZM14.4257 9.65H13.7157C13.649 9.65 13.6157 9.60667 13.6157 9.52V2.97C13.6157 2.89 13.649 2.85 13.7157 2.85H14.4257C14.4923 2.85 14.5257 2.89 14.5257 2.97V9.52C14.5257 9.60667 14.4923 9.65 14.4257 9.65ZM14.0757 1.6C13.869 1.6 13.7157 1.55 13.6157 1.45C13.5157 1.34333 13.4657 1.19333 13.4657 1V0.87C13.4657 0.676667 13.5157 0.526667 13.6157 0.42C13.7157 0.313333 13.869 0.26 14.0757 0.26C14.2823 0.26 14.4357 0.313333 14.5357 0.42C14.629 0.526667 14.6757 0.676667 14.6757 0.87V1C14.6757 1.19333 14.629 1.34333 14.5357 1.45C14.4357 1.55 14.2823 1.6 14.0757 1.6ZM18.9257 9.65H18.2757C18.2223 9.65 18.189 9.60667 18.1757 9.52C18.1623 9.35333 18.1457 9.14333 18.1257 8.89C18.1057 8.63 18.0957 8.41333 18.0957 8.24L18.0357 8.17V4.64C18.0357 4.25333 17.9923 3.99 17.9057 3.85C17.819 3.70333 17.639 3.63 17.3657 3.63C17.1057 3.63 16.9257 3.70333 16.8257 3.85C16.719 3.99 16.679 4.22333 16.7057 4.55C16.7057 4.63667 16.669 4.68 16.5957 4.68H15.9857C15.8923 4.68 15.839 4.62333 15.8257 4.51C15.779 3.96333 15.889 3.53333 16.1557 3.22C16.4223 2.91333 16.8323 2.76 17.3857 2.76C17.9523 2.76 18.3557 2.89667 18.5957 3.17C18.829 3.43667 18.9457 3.91667 18.9457 4.61V7.97C18.9457 8.34333 18.9523 8.66 18.9657 8.92C18.9723 9.18 18.9823 9.37667 18.9957 9.51C19.0023 9.60333 18.979 9.65 18.9257 9.65ZM16.7757 9.73C16.4157 9.73 16.1357 9.57333 15.9357 9.26C15.7357 8.94 15.6357 8.49667 15.6357 7.93C15.6357 7.29667 15.7757 6.78667 16.0557 6.4C16.3357 6.00667 16.7923 5.78 17.4257 5.72L18.1557 5.63V6.37L17.5257 6.46C17.199 6.49333 16.9523 6.62667 16.7857 6.86C16.6257 7.09333 16.5457 7.42667 16.5457 7.86C16.5457 8.16667 16.5923 8.41 16.6857 8.59C16.779 8.76333 16.9023 8.85 17.0557 8.85C17.2157 8.85 17.379 8.78667 17.5457 8.66C17.7057 8.53333 17.9157 8.3 18.1757 7.96L18.2257 8.77C17.9457 9.11667 17.7023 9.36333 17.4957 9.51C17.289 9.65667 17.049 9.73 16.7757 9.73ZM23.6857 9.73C23.179 9.73 22.7757 9.62 22.4757 9.4C22.1757 9.17333 21.9723 8.86667 21.8657 8.48C21.7523 8.09333 21.7123 7.65333 21.7457 7.16C21.759 7.06667 21.7923 7.02 21.8457 7.02H22.5457C22.619 7.02 22.6523 7.06667 22.6457 7.16C22.579 7.72667 22.6423 8.15 22.8357 8.43C23.029 8.71 23.3257 8.85 23.7257 8.85C24.0857 8.85 24.359 8.74 24.5457 8.52C24.7257 8.3 24.8157 7.95667 24.8157 7.49C24.8157 7.08333 24.759 6.74667 24.6457 6.48C24.5323 6.21333 24.3357 5.97667 24.0557 5.77L22.9257 4.88C22.5457 4.58 22.2623 4.24 22.0757 3.86C21.8957 3.48 21.8057 3.02667 21.8057 2.5C21.8123 1.83333 21.9823 1.31667 22.3157 0.95C22.649 0.583334 23.109 0.4 23.6957 0.4C24.389 0.4 24.8957 0.623334 25.2157 1.07C25.5357 1.51667 25.659 2.12667 25.5857 2.9C25.5857 3.00667 25.5523 3.06 25.4857 3.06H24.7757C24.709 3.06 24.679 3.00667 24.6857 2.9C24.7457 2.38 24.6857 1.98 24.5057 1.7C24.3323 1.42 24.0657 1.28 23.7057 1.28C23.4123 1.28 23.1757 1.37667 22.9957 1.57C22.8157 1.77 22.7223 2.07 22.7157 2.47C22.7157 2.84333 22.7823 3.16 22.9157 3.42C23.0423 3.68 23.2423 3.91667 23.5157 4.13L24.6057 4.99C24.879 5.19667 25.0957 5.41333 25.2557 5.64C25.4223 5.86667 25.5423 6.12667 25.6157 6.42C25.689 6.71333 25.7257 7.05667 25.7257 7.45C25.7257 8.16333 25.559 8.72 25.2257 9.12C24.899 9.52667 24.3857 9.73 23.6857 9.73ZM29.8657 9.65H29.2257C29.1723 9.65 29.139 9.60667 29.1257 9.52C29.1057 9.35333 29.089 9.14333 29.0757 8.89C29.0557 8.63 29.0457 8.41333 29.0457 8.24L28.9857 8.17V4.64C28.9857 4.25333 28.9423 3.99 28.8557 3.85C28.769 3.70333 28.589 3.63 28.3157 3.63C28.0557 3.63 27.8723 3.70333 27.7657 3.85C27.6657 3.99 27.629 4.22333 27.6557 4.55C27.6557 4.63667 27.619 4.68 27.5457 4.68H26.9257C26.8323 4.68 26.7823 4.62333 26.7757 4.51C26.729 3.96333 26.839 3.53333 27.1057 3.22C27.3723 2.91333 27.779 2.76 28.3257 2.76C28.899 2.76 29.3057 2.89667 29.5457 3.17C29.779 3.43667 29.8957 3.91667 29.8957 4.61V7.97C29.8957 8.34333 29.9023 8.66 29.9157 8.92C29.9223 9.18 29.929 9.37667 29.9357 9.51C29.949 9.60333 29.9257 9.65 29.8657 9.65ZM27.7257 9.73C27.3657 9.73 27.0857 9.57333 26.8857 9.26C26.679 8.94 26.5757 8.49667 26.5757 7.93C26.5757 7.29667 26.7157 6.78667 26.9957 6.4C27.2757 6.00667 27.7357 5.78 28.3757 5.72L29.0957 5.63V6.37L28.4657 6.46C28.139 6.49333 27.8957 6.62667 27.7357 6.86C27.569 7.09333 27.4857 7.42667 27.4857 7.86C27.4857 8.16667 27.5323 8.41 27.6257 8.59C27.719 8.76333 27.8457 8.85 28.0057 8.85C28.1657 8.85 28.329 8.78667 28.4957 8.66C28.6557 8.53333 28.8657 8.3 29.1257 7.96L29.1657 8.77C28.8857 9.11667 28.6457 9.36333 28.4457 9.51C28.239 9.65667 27.999 9.73 27.7257 9.73ZM34.6557 9.65H33.9457C33.879 9.65 33.8457 9.60667 33.8457 9.52V4.53C33.8457 4.21667 33.799 3.99 33.7057 3.85C33.6123 3.70333 33.4623 3.63 33.2557 3.63C33.069 3.63 32.8723 3.70667 32.6657 3.86C32.4523 4.01333 32.229 4.24 31.9957 4.54L31.9257 3.78C32.199 3.44667 32.469 3.19333 32.7357 3.02C33.0023 2.84667 33.289 2.76 33.5957 2.76C33.9757 2.76 34.2657 2.9 34.4657 3.18C34.659 3.46 34.7557 3.89 34.7557 4.47V9.52C34.7557 9.60667 34.7223 9.65 34.6557 9.65ZM31.9957 9.65H31.2857C31.219 9.65 31.1857 9.60667 31.1857 9.52V4.53C31.1857 4.13667 31.1823 3.81667 31.1757 3.57C31.1757 3.32333 31.1657 3.13333 31.1457 3C31.1323 2.9 31.159 2.85 31.2257 2.85H31.8257C31.9057 2.85 31.949 2.89 31.9557 2.97C31.9823 3.15 32.0023 3.37333 32.0157 3.64C32.029 3.91333 32.0357 4.12 32.0357 4.26L32.0957 4.34V9.52C32.0957 9.60667 32.0623 9.65 31.9957 9.65ZM37.4557 9.73C36.889 9.73 36.4757 9.55333 36.2157 9.2C35.949 8.84667 35.839 8.33 35.8857 7.65C35.8857 7.57667 35.919 7.54 35.9857 7.54H36.7057C36.759 7.54 36.7857 7.57 36.7857 7.63C36.779 8.08333 36.8223 8.40333 36.9157 8.59C37.0157 8.77667 37.2057 8.87 37.4857 8.87C37.959 8.87 38.1957 8.56 38.1957 7.94C38.1957 7.7 38.1557 7.49667 38.0757 7.33C38.0023 7.17 37.8723 7.01333 37.6857 6.86L36.7557 6.14C36.469 5.91333 36.259 5.65667 36.1257 5.37C35.999 5.09 35.9357 4.74667 35.9357 4.34C35.9357 3.84 36.0657 3.45 36.3257 3.17C36.5923 2.89667 36.979 2.76 37.4857 2.76C38.0057 2.76 38.399 2.92 38.6657 3.24C38.9323 3.55333 39.039 3.98667 38.9857 4.54C38.9857 4.61333 38.9523 4.65 38.8857 4.65H38.1857C38.1657 4.65 38.1457 4.64667 38.1257 4.64C38.099 4.62667 38.0923 4.58333 38.1057 4.51C38.119 4.23 38.0756 4.01 37.9757 3.85C37.8757 3.69667 37.7023 3.62 37.4557 3.62C37.029 3.62 36.8157 3.86 36.8157 4.34C36.8157 4.57333 36.859 4.77 36.9457 4.93C37.0323 5.09 37.1657 5.25 37.3457 5.41L38.2557 6.14C38.5757 6.4 38.7923 6.65667 38.9057 6.91C39.0257 7.15667 39.0857 7.48667 39.0857 7.9C39.0857 8.5 38.9457 8.95667 38.6657 9.27C38.3923 9.57667 37.989 9.73 37.4557 9.73ZM45.2457 9.65H42.0957C42.0157 9.65 41.9757 9.60667 41.9757 9.52V0.61C41.9757 0.523333 42.009 0.48 42.0757 0.48H45.2457C45.3057 0.48 45.3357 0.523333 45.3357 0.61V1.24C45.3357 1.32 45.3057 1.36 45.2457 1.36H42.8857V4.55H45.0457C45.1123 4.55 45.1457 4.59333 45.1457 4.68V5.27C45.1457 5.35 45.1123 5.39 45.0457 5.39H42.8857V8.77H45.2457C45.3057 8.77 45.3357 8.81 45.3357 8.89V9.52C45.3357 9.60667 45.3057 9.65 45.2457 9.65ZM46.8757 9.65H46.1557C46.1157 9.65 46.089 9.63333 46.0757 9.6C46.0623 9.56667 46.0657 9.53333 46.0857 9.5L47.5257 6.14L46.1957 2.99C46.1757 2.95 46.169 2.91667 46.1757 2.89C46.189 2.86333 46.2123 2.85 46.2457 2.85H47.0057C47.079 2.85 47.1257 2.87667 47.1457 2.93L47.6457 4.3C47.7257 4.48 47.799 4.67333 47.8657 4.88C47.939 5.09333 48.0056 5.29333 48.0657 5.48H48.0857C48.159 5.29333 48.2323 5.09333 48.3057 4.88C48.3723 4.67333 48.439 4.48 48.5057 4.3L49.0257 2.92C49.0523 2.87333 49.0923 2.85 49.1457 2.85H49.9057C49.939 2.85 49.9623 2.86333 49.9757 2.89C49.9823 2.91667 49.9757 2.95 49.9557 2.99L48.6157 6.11L50.0857 9.5C50.0923 9.53333 50.0923 9.56667 50.0857 9.6C50.079 9.63333 50.0557 9.65 50.0157 9.65H49.2357C49.1757 9.65 49.1323 9.62667 49.1057 9.58L48.5157 8.01C48.449 7.81667 48.379 7.61333 48.3057 7.4C48.2257 7.18 48.1457 6.97667 48.0657 6.79H48.0557C47.989 6.97667 47.919 7.18 47.8457 7.4C47.7723 7.62 47.699 7.82333 47.6257 8.01L47.0157 9.58C47.0023 9.62667 46.9557 9.65 46.8757 9.65ZM52.5357 9.73C52.0623 9.73 51.7223 9.58667 51.5157 9.3C51.309 9.01333 51.2057 8.52667 51.2057 7.84V3.71H50.6057C50.5323 3.71 50.4957 3.67333 50.4957 3.6V2.97C50.4957 2.89 50.5323 2.85 50.6057 2.85H51.2357L51.3457 1.14C51.3523 1.06667 51.389 1.03 51.4557 1.03H52.0357C52.089 1.03 52.1157 1.06667 52.1157 1.14V2.85H53.3757C53.449 2.85 53.4857 2.89 53.4857 2.97V3.6C53.4857 3.67333 53.449 3.71 53.3757 3.71H52.1157V7.82C52.1157 8.2 52.1623 8.47 52.2557 8.63C52.349 8.79 52.509 8.87 52.7357 8.87C52.8557 8.87 52.9723 8.85333 53.0857 8.82C53.1923 8.79333 53.2923 8.76333 53.3857 8.73C53.4657 8.69667 53.5057 8.72 53.5057 8.8V9.44C53.5057 9.52667 53.4723 9.57667 53.4057 9.59C53.2857 9.63 53.149 9.66333 52.9957 9.69C52.849 9.71667 52.6957 9.73 52.5357 9.73ZM55.2557 9.65H54.5357C54.469 9.65 54.4357 9.60667 54.4357 9.52V4.53C54.4357 4.13667 54.4357 3.81667 54.4357 3.57C54.429 3.32333 54.4157 3.13333 54.3957 3C54.389 2.9 54.419 2.85 54.4857 2.85H55.1257C55.1723 2.85 55.199 2.89 55.2057 2.97C55.2257 3.15667 55.2457 3.38333 55.2657 3.65C55.2857 3.91667 55.2957 4.12 55.2957 4.26L55.3457 4.34V9.52C55.3457 9.60667 55.3157 9.65 55.2557 9.65ZM55.2657 4.72L55.2057 3.84C55.319 3.66 55.449 3.49 55.5957 3.33C55.7423 3.16333 55.899 3.02667 56.0657 2.92C56.239 2.81333 56.4257 2.76 56.6257 2.76C56.7057 2.76 56.7757 2.76667 56.8357 2.78C56.869 2.78667 56.8923 2.80333 56.9057 2.83C56.9257 2.85667 56.9357 2.89333 56.9357 2.94C56.9357 3.1 56.9323 3.25 56.9257 3.39C56.919 3.53 56.9057 3.68 56.8857 3.84C56.879 3.90667 56.849 3.93333 56.7957 3.92C56.749 3.90667 56.699 3.89667 56.6457 3.89C56.5923 3.88333 56.5323 3.88 56.4657 3.88C56.2723 3.88 56.0623 3.95667 55.8357 4.11C55.6157 4.25667 55.4257 4.46 55.2657 4.72ZM60.9357 9.65H60.2957C60.2356 9.65 60.2023 9.60667 60.1957 9.52C60.1757 9.35333 60.1557 9.14333 60.1357 8.89C60.1157 8.63 60.1057 8.41333 60.1057 8.24L60.0557 8.17V4.64C60.0557 4.25333 60.009 3.99 59.9157 3.85C59.829 3.70333 59.6523 3.63 59.3857 3.63C59.119 3.63 58.9356 3.70333 58.8357 3.85C58.7357 3.99 58.699 4.22333 58.7257 4.55C58.7257 4.63667 58.689 4.68 58.6157 4.68H57.9957C57.9023 4.68 57.8523 4.62333 57.8457 4.51C57.799 3.96333 57.9057 3.53333 58.1657 3.22C58.4323 2.91333 58.8423 2.76 59.3957 2.76C59.9623 2.76 60.3657 2.89667 60.6057 3.17C60.8457 3.43667 60.9657 3.91667 60.9657 4.61V7.97C60.9657 8.34333 60.969 8.66 60.9757 8.92C60.989 9.18 60.999 9.37667 61.0057 9.51C61.0123 9.60333 60.989 9.65 60.9357 9.65ZM58.7957 9.73C58.429 9.73 58.1457 9.57333 57.9457 9.26C57.7457 8.94 57.6457 8.49667 57.6457 7.93C57.6457 7.29667 57.7857 6.78667 58.0657 6.4C58.3456 6.00667 58.8023 5.78 59.4357 5.72L60.1657 5.63V6.37L59.5357 6.46C59.209 6.49333 58.9623 6.62667 58.7957 6.86C58.6357 7.09333 58.5557 7.42667 58.5557 7.86C58.5557 8.16667 58.6023 8.41 58.6957 8.59C58.789 8.76333 58.9157 8.85 59.0757 8.85C59.2357 8.85 59.3957 8.78667 59.5557 8.66C59.7223 8.53333 59.9357 8.3 60.1957 7.96L60.2357 8.77C59.9557 9.11667 59.7123 9.36333 59.5057 9.51C59.299 9.65667 59.0623 9.73 58.7957 9.73ZM66.1457 9.73C65.4323 9.73 64.889 9.50333 64.5157 9.05C64.1423 8.59 63.9557 7.9 63.9557 6.98V3.15C63.9557 2.23 64.1423 1.54 64.5157 1.08C64.889 0.626667 65.4323 0.4 66.1457 0.4C66.659 0.4 67.0823 0.523333 67.4156 0.77C67.7556 1.01667 67.9957 1.36667 68.1357 1.82C68.2757 2.27333 68.3057 2.81 68.2257 3.43C68.2123 3.51 68.1823 3.55 68.1357 3.55H67.4156C67.3356 3.55 67.3023 3.50333 67.3157 3.41C67.3756 2.71 67.309 2.18 67.1157 1.82C66.9223 1.46 66.599 1.28 66.1457 1.28C65.7323 1.28 65.4156 1.43333 65.1956 1.74C64.9756 2.04667 64.8657 2.54 64.8657 3.22V6.91C64.8657 7.57667 64.9756 8.06667 65.1956 8.38C65.4156 8.69333 65.7323 8.85 66.1457 8.85C66.6323 8.85 66.9657 8.66 67.1457 8.28C67.3257 7.89333 67.3923 7.37333 67.3456 6.72C67.3257 6.62667 67.359 6.58 67.4456 6.58H68.1057C68.1857 6.58 68.2323 6.62667 68.2457 6.72C68.299 7.68667 68.149 8.43 67.7957 8.95C67.4423 9.47 66.8923 9.73 66.1457 9.73ZM71.2157 9.73C70.589 9.73 70.1257 9.54667 69.8257 9.18C69.5257 8.81333 69.3756 8.24667 69.3756 7.48V5.03C69.3756 4.25667 69.5257 3.68333 69.8257 3.31C70.1257 2.94333 70.589 2.76 71.2157 2.76C71.8357 2.76 72.2956 2.94333 72.5956 3.31C72.8957 3.68333 73.0457 4.25667 73.0457 5.03V7.48C73.0457 8.24667 72.8957 8.81333 72.5956 9.18C72.2956 9.54667 71.8357 9.73 71.2157 9.73ZM71.2157 8.85C71.5423 8.85 71.7757 8.74333 71.9156 8.53C72.0623 8.31667 72.1357 7.96333 72.1357 7.47V5.06C72.1357 4.55333 72.0623 4.19 71.9156 3.97C71.7757 3.74333 71.5423 3.63 71.2157 3.63C70.889 3.63 70.6523 3.74333 70.5057 3.97C70.359 4.19 70.2857 4.55333 70.2857 5.06V7.47C70.2857 7.96333 70.3623 8.31667 70.5157 8.53C70.6623 8.74333 70.8957 8.85 71.2157 8.85ZM77.6956 9.65H76.9757C76.9157 9.65 76.8857 9.60667 76.8857 9.52V4.53C76.8857 4.21667 76.839 3.99 76.7457 3.85C76.6523 3.70333 76.5023 3.63 76.2957 3.63C76.109 3.63 75.909 3.70667 75.6956 3.86C75.489 4.01333 75.269 4.24 75.0357 4.54L74.9657 3.78C75.2323 3.44667 75.499 3.19333 75.7657 3.02C76.0323 2.84667 76.319 2.76 76.6256 2.76C77.0123 2.76 77.3023 2.9 77.4957 3.18C77.6956 3.46 77.7957 3.89 77.7957 4.47V9.52C77.7957 9.60667 77.7623 9.65 77.6956 9.65ZM75.0357 9.65H74.3157C74.2557 9.65 74.2257 9.60667 74.2257 9.52V4.53C74.2257 4.13667 74.2223 3.81667 74.2157 3.57C74.209 3.32333 74.1956 3.13333 74.1757 3C74.169 2.9 74.199 2.85 74.2657 2.85H74.8657C74.939 2.85 74.9823 2.89 74.9957 2.97C75.0223 3.15 75.0423 3.37333 75.0556 3.64C75.069 3.91333 75.0757 4.12 75.0757 4.26L75.1357 4.34V9.52C75.1357 9.60667 75.1023 9.65 75.0357 9.65ZM80.2157 9.73C79.8157 9.73 79.5123 9.58333 79.3056 9.29C79.099 8.99667 78.9957 8.54667 78.9957 7.94V4.78C78.9957 4.11333 79.129 3.61 79.3957 3.27C79.6623 2.93 80.0323 2.76 80.5057 2.76C80.779 2.76 81.019 2.79667 81.2257 2.87C81.4257 2.93667 81.6057 3.01667 81.7657 3.11V3.98C81.339 3.74667 80.989 3.63 80.7157 3.63C80.4557 3.63 80.2557 3.73 80.1157 3.93C79.9757 4.13 79.9057 4.45333 79.9057 4.9V7.94C79.9057 8.28 79.9557 8.51667 80.0556 8.65C80.149 8.78333 80.299 8.85 80.5057 8.85C80.7057 8.85 80.9057 8.77 81.1057 8.61C81.3123 8.45667 81.5323 8.21667 81.7657 7.89L81.8056 8.71C81.5456 9.05 81.2923 9.30333 81.0457 9.47C80.799 9.64333 80.5223 9.73 80.2157 9.73ZM82.4856 9.65H81.8657C81.8123 9.65 81.7757 9.60667 81.7557 9.52C81.7357 9.32667 81.719 9.09667 81.7057 8.83C81.6923 8.56333 81.6857 8.36667 81.6857 8.24L81.6157 8.15V0.21C81.6157 0.13 81.6523 0.0900002 81.7257 0.0900002H82.4257C82.4923 0.0900002 82.5257 0.13 82.5257 0.21V7.97C82.5257 8.36333 82.529 8.68333 82.5357 8.93C82.549 9.17667 82.559 9.36667 82.5657 9.5C82.5723 9.6 82.5456 9.65 82.4856 9.65ZM85.5357 9.73C84.909 9.73 84.4457 9.53667 84.1457 9.15C83.8456 8.75667 83.6956 8.15 83.6956 7.33V4.99C83.6956 4.21667 83.8456 3.65 84.1457 3.29C84.4457 2.93667 84.889 2.76 85.4757 2.76C86.0557 2.76 86.4957 2.94333 86.7957 3.31C87.1023 3.68333 87.2557 4.23333 87.2557 4.96V6.35C87.2557 6.42333 87.2223 6.46 87.1557 6.46H84.6057V7.31C84.6057 7.85 84.679 8.24333 84.8257 8.49C84.9723 8.73 85.209 8.85 85.5357 8.85C85.8157 8.85 86.019 8.77333 86.1457 8.62C86.279 8.46667 86.3356 8.23667 86.3157 7.93C86.2957 7.83667 86.3257 7.79 86.4057 7.79H87.0757C87.1423 7.79 87.1757 7.82667 87.1757 7.9C87.189 8.48667 87.0556 8.94 86.7757 9.26C86.489 9.57333 86.0757 9.73 85.5357 9.73ZM84.6057 4.97V5.6H86.3456V4.97C86.3456 4.49667 86.279 4.15333 86.1457 3.94C86.0057 3.73333 85.7823 3.63 85.4757 3.63C85.1757 3.63 84.9557 3.73667 84.8157 3.95C84.6757 4.16333 84.6057 4.50333 84.6057 4.97ZM91.8657 9.65H91.1457C91.079 9.65 91.0457 9.60667 91.0457 9.52V4.53C91.0457 4.21667 90.999 3.99 90.9057 3.85C90.8123 3.70333 90.6656 3.63 90.4657 3.63C90.279 3.63 90.079 3.70667 89.8657 3.86C89.659 4.01333 89.439 4.24 89.2057 4.54L89.1357 3.78C89.4023 3.44667 89.669 3.19333 89.9357 3.02C90.2023 2.84667 90.489 2.76 90.7957 2.76C91.1823 2.76 91.4723 2.9 91.6656 3.18C91.859 3.46 91.9557 3.89 91.9557 4.47V9.52C91.9557 9.60667 91.9257 9.65 91.8657 9.65ZM89.2057 9.65H88.4856C88.419 9.65 88.3857 9.60667 88.3857 9.52V4.53C88.3857 4.13667 88.3857 3.81667 88.3857 3.57C88.379 3.32333 88.3656 3.13333 88.3456 3C88.339 2.9 88.369 2.85 88.4357 2.85H89.0357C89.109 2.85 89.149 2.89 89.1557 2.97C89.189 3.15 89.2123 3.37333 89.2257 3.64C89.239 3.91333 89.2457 4.12 89.2457 4.26L89.2957 4.34V9.52C89.2957 9.60667 89.2656 9.65 89.2057 9.65ZM94.6656 9.73C94.0923 9.73 93.6757 9.55333 93.4156 9.2C93.1556 8.84667 93.049 8.33 93.0956 7.65C93.0956 7.57667 93.129 7.54 93.1956 7.54H93.9057C93.959 7.54 93.9856 7.57 93.9856 7.63C93.979 8.08333 94.0257 8.40333 94.1256 8.59C94.219 8.77667 94.4057 8.87 94.6857 8.87C95.1657 8.87 95.4057 8.56 95.4057 7.94C95.4057 7.7 95.3657 7.49667 95.2857 7.33C95.2057 7.17 95.0723 7.01333 94.8857 6.86L93.9657 6.14C93.6723 5.91333 93.4623 5.65667 93.3357 5.37C93.2023 5.09 93.1357 4.74667 93.1357 4.34C93.1357 3.84 93.269 3.45 93.5357 3.17C93.8023 2.89667 94.1857 2.76 94.6857 2.76C95.2123 2.76 95.609 2.92 95.8756 3.24C96.1423 3.55333 96.2457 3.98667 96.1857 4.54C96.1857 4.61333 96.1523 4.65 96.0857 4.65H95.3857C95.3723 4.65 95.3523 4.64667 95.3257 4.64C95.3057 4.62667 95.299 4.58333 95.3056 4.51C95.3256 4.23 95.2823 4.01 95.1757 3.85C95.0757 3.69667 94.9056 3.62 94.6656 3.62C94.2323 3.62 94.0157 3.86 94.0157 4.34C94.0157 4.57333 94.0623 4.77 94.1557 4.93C94.2423 5.09 94.3723 5.25 94.5457 5.41L95.4557 6.14C95.7757 6.4 95.9957 6.65667 96.1157 6.91C96.229 7.15667 96.2857 7.48667 96.2857 7.9C96.2857 8.5 96.149 8.95667 95.8756 9.27C95.5956 9.57667 95.1923 9.73 94.6656 9.73ZM99.0757 9.73C98.449 9.73 97.9857 9.53667 97.6857 9.15C97.3857 8.75667 97.2356 8.15 97.2356 7.33V4.99C97.2356 4.21667 97.3857 3.65 97.6857 3.29C97.9857 2.93667 98.429 2.76 99.0157 2.76C99.5957 2.76 100.036 2.94333 100.336 3.31C100.642 3.68333 100.796 4.23333 100.796 4.96V6.35C100.796 6.42333 100.762 6.46 100.696 6.46H98.1457V7.31C98.1457 7.85 98.219 8.24333 98.3657 8.49C98.5123 8.73 98.749 8.85 99.0757 8.85C99.3557 8.85 99.559 8.77333 99.6857 8.62C99.819 8.46667 99.8756 8.23667 99.8557 7.93C99.8357 7.83667 99.8623 7.79 99.9357 7.79H100.616C100.676 7.79 100.706 7.82667 100.706 7.9C100.726 8.48667 100.596 8.94 100.316 9.26C100.029 9.57333 99.6157 9.73 99.0757 9.73ZM98.1457 4.97V5.6H99.8857V4.97C99.8857 4.49667 99.819 4.15333 99.6857 3.94C99.5457 3.73333 99.3223 3.63 99.0157 3.63C98.7157 3.63 98.4957 3.73667 98.3557 3.95C98.2157 4.16333 98.1457 4.50333 98.1457 4.97ZM103.066 9.73C102.659 9.73 102.356 9.58333 102.156 9.29C101.949 8.99667 101.846 8.54667 101.846 7.94V4.78C101.846 4.11333 101.979 3.61 102.246 3.27C102.512 2.93 102.882 2.76 103.356 2.76C103.629 2.76 103.866 2.79667 104.066 2.87C104.272 2.93667 104.456 3.01667 104.616 3.11V3.98C104.189 3.74667 103.839 3.63 103.566 3.63C103.306 3.63 103.106 3.73 102.966 3.93C102.826 4.13 102.756 4.45333 102.756 4.9V7.94C102.756 8.28 102.806 8.51667 102.906 8.65C102.999 8.78333 103.149 8.85 103.356 8.85C103.549 8.85 103.749 8.77 103.956 8.61C104.162 8.45667 104.382 8.21667 104.616 7.89L104.656 8.71C104.396 9.05 104.142 9.30333 103.896 9.47C103.649 9.64333 103.372 9.73 103.066 9.73ZM105.326 9.65H104.716C104.656 9.65 104.619 9.60667 104.606 9.52C104.586 9.32667 104.569 9.09667 104.556 8.83C104.542 8.56333 104.536 8.36667 104.536 8.24L104.466 8.15V0.21C104.466 0.13 104.502 0.0900002 104.576 0.0900002H105.276C105.342 0.0900002 105.376 0.13 105.376 0.21V7.97C105.376 8.36333 105.379 8.68333 105.386 8.93C105.392 9.17667 105.402 9.36667 105.416 9.5C105.422 9.6 105.392 9.65 105.326 9.65Z" fill="black"/>
</svg>
