<svg width="34" height="9" viewBox="0 0 34 9" fill="none" xmlns="http://www.w3.org/2000/svg">
<path d="M3.93 8.9C3.21667 8.9 2.6 8.79 2.08 8.57C1.56 8.35667 1.14667 8.08667 0.84 7.76C0.613333 7.56667 0.5 7.35 0.5 7.11C0.5 6.98333 0.546667 6.87 0.64 6.77C0.733333 6.67 0.86 6.62 1.02 6.62C1.16 6.62 1.28333 6.65667 1.39 6.73C1.49667 6.79667 1.6 6.88333 1.7 6.99C1.92 7.27 2.21333 7.50667 2.58 7.7C2.94667 7.88667 3.40333 7.98 3.95 7.98C4.32333 7.98 4.67333 7.92 5 7.8C5.32667 7.68667 5.59 7.52 5.79 7.3C5.99667 7.08 6.1 6.82 6.1 6.52C6.1 6.06667 5.9 5.71333 5.5 5.46C5.09333 5.20667 4.51 4.98 3.75 4.78C2.72333 4.52 1.96333 4.18667 1.47 3.78C0.976667 3.37333 0.73 2.84 0.73 2.18C0.73 1.72667 0.876667 1.33667 1.17 1.01C1.47 0.683334 1.86667 0.433334 2.36 0.26C2.84667 0.0866669 3.38667 0 3.98 0C4.55333 0 5.08 0.0966666 5.56 0.29C6.04 0.476667 6.42333 0.736666 6.71 1.07C6.81 1.15667 6.88667 1.25 6.94 1.35C7 1.45 7.03 1.56 7.03 1.68C7.03 1.82667 6.98 1.94333 6.88 2.03C6.78667 2.11667 6.67333 2.16 6.54 2.16C6.4 2.16 6.27667 2.11667 6.17 2.03C6.06333 1.95 5.97 1.86333 5.89 1.77C5.71667 1.53 5.46333 1.32667 5.13 1.16C4.79667 1 4.4 0.92 3.94 0.92C3.59333 0.92 3.26667 0.97 2.96 1.07C2.66 1.17 2.41667 1.31333 2.23 1.5C2.04333 1.68667 1.95 1.91 1.95 2.17C1.95 2.56333 2.13 2.88 2.49 3.12C2.85667 3.36 3.40667 3.58333 4.14 3.79C4.82667 3.97667 5.40667 4.18333 5.88 4.41C6.35333 4.64333 6.71 4.92333 6.95 5.25C7.19667 5.57667 7.32 5.97667 7.32 6.45C7.32 6.96333 7.16667 7.40333 6.86 7.77C6.56 8.13667 6.15 8.41667 5.63 8.61C5.12333 8.80333 4.55667 8.9 3.93 8.9ZM12.59 8.9C12.1833 8.9 11.7767 8.83333 11.37 8.7C10.9633 8.56667 10.5933 8.35667 10.26 8.07C9.92 7.79 9.65 7.43 9.45 6.99C9.25 6.54333 9.15 6.01333 9.15 5.4C9.15 4.79333 9.25 4.27 9.45 3.83C9.65 3.38333 9.92 3.02 10.26 2.74C10.5933 2.46 10.9633 2.25333 11.37 2.12C11.7767 1.99333 12.1833 1.93 12.59 1.93C12.9967 1.93 13.4 1.99333 13.8 2.12C14.2067 2.25333 14.5767 2.46 14.91 2.74C15.2433 3.02 15.5133 3.38333 15.72 3.83C15.92 4.27 16.02 4.79333 16.02 5.4C16.02 6.01333 15.92 6.54333 15.72 6.99C15.5133 7.43 15.2433 7.79 14.91 8.07C14.5767 8.35667 14.2067 8.56667 13.8 8.7C13.4 8.83333 12.9967 8.9 12.59 8.9ZM12.59 7.98C12.85 7.98 13.11 7.93333 13.37 7.84C13.63 7.74667 13.87 7.6 14.09 7.4C14.3033 7.19333 14.4767 6.92667 14.61 6.6C14.7433 6.26667 14.81 5.86667 14.81 5.4C14.81 4.94 14.7433 4.54667 14.61 4.22C14.4767 3.9 14.3033 3.63667 14.09 3.43C13.87 3.22333 13.63 3.07333 13.37 2.98C13.11 2.88667 12.85 2.84 12.59 2.84C12.3233 2.84 12.06 2.88667 11.8 2.98C11.5333 3.07333 11.29 3.22333 11.07 3.43C10.8567 3.63667 10.6833 3.9 10.55 4.22C10.4167 4.54667 10.35 4.94 10.35 5.4C10.35 5.86667 10.4167 6.26667 10.55 6.6C10.6833 6.92667 10.8567 7.19333 11.07 7.4C11.29 7.6 11.5333 7.74667 11.8 7.84C12.06 7.93333 12.3233 7.98 12.59 7.98ZM23.6 8.82C23.2067 8.82 23.01 8.56667 23.01 8.06V5.05C23.01 4.31 22.8933 3.76 22.66 3.4C22.4267 3.04 22.0467 2.86 21.52 2.86C21.2733 2.86 21.0333 2.91333 20.8 3.02C20.5667 3.12667 20.3633 3.27333 20.19 3.46C20.01 3.65333 19.8667 3.86333 19.76 4.09C19.6533 4.33 19.6 4.57 19.6 4.81V8.06C19.6 8.56667 19.4033 8.82 19.01 8.82C18.6167 8.82 18.42 8.56667 18.42 8.06V2.72C18.42 2.21333 18.6167 1.96 19.01 1.96C19.3433 1.96 19.5333 2.14667 19.58 2.52V3.18C19.82 2.82667 20.1367 2.53 20.53 2.29C20.9233 2.05 21.37 1.93 21.87 1.93C22.3567 1.93 22.7733 2.03333 23.12 2.24C23.4733 2.44 23.74 2.75667 23.92 3.19C24.1 3.62333 24.19 4.18667 24.19 4.88V8.06C24.19 8.30667 24.14 8.49333 24.04 8.62C23.94 8.75333 23.7933 8.82 23.6 8.82ZM29.92 8.9C29.5133 8.9 29.1067 8.83333 28.7 8.7C28.2933 8.56667 27.9233 8.35667 27.59 8.07C27.25 7.79 26.98 7.43 26.78 6.99C26.58 6.54333 26.48 6.01333 26.48 5.4C26.48 4.79333 26.58 4.27 26.78 3.83C26.98 3.38333 27.25 3.02 27.59 2.74C27.9233 2.46 28.2933 2.25333 28.7 2.12C29.1067 1.99333 29.5133 1.93 29.92 1.93C30.3267 1.93 30.73 1.99333 31.13 2.12C31.5367 2.25333 31.9067 2.46 32.24 2.74C32.58 3.02 32.85 3.38333 33.05 3.83C33.25 4.27 33.35 4.79333 33.35 5.4C33.35 6.01333 33.25 6.54333 33.05 6.99C32.85 7.43 32.58 7.79 32.24 8.07C31.9067 8.35667 31.5367 8.56667 31.13 8.7C30.73 8.83333 30.3267 8.9 29.92 8.9ZM29.92 7.98C30.18 7.98 30.44 7.93333 30.7 7.84C30.96 7.74667 31.2 7.6 31.42 7.4C31.6333 7.19333 31.8067 6.92667 31.94 6.6C32.0733 6.26667 32.14 5.86667 32.14 5.4C32.14 4.94 32.0733 4.54667 31.94 4.22C31.8067 3.9 31.6333 3.63667 31.42 3.43C31.2 3.22333 30.96 3.07333 30.7 2.98C30.44 2.88667 30.18 2.84 29.92 2.84C29.66 2.84 29.3967 2.88667 29.13 2.98C28.87 3.07333 28.63 3.22333 28.41 3.43C28.19 3.63667 28.0133 3.9 27.88 4.22C27.7533 4.54667 27.69 4.94 27.69 5.4C27.69 5.86667 27.7533 6.26667 27.88 6.6C28.0133 6.92667 28.19 7.19333 28.41 7.4C28.63 7.6 28.87 7.74667 29.13 7.84C29.3967 7.93333 29.66 7.98 29.92 7.98Z" fill="black"/>
</svg>
