<svg width="104.22" height="20.132" viewBox="0 0 104.22 20.132" xmlns="http://www.w3.org/2000/svg"><path transform="translate(0 13.44) scale(.014 -.014)" d="m455 689 23 8q13 0 15-8 21-121 21-142.5t-14-21.5q-9 0-17.5 21.5t-20 39.5-16.5 23-26 24q-54 48-123.5 48t-111.5-30-42-78 24.5-77 65.5-45 86-30q121-38 179-99 40-43 40-107 0-105-67-166.5t-166-61.5q-69 0-111 7.5t-86 30.5q-13 8-31 78t-18 87.5 13.5 17.5 16.5-10q37-89 87-126 54-41 130.5-41t122 39.5 45.5 103.5q0 47-31 78.5t-71 45.5q-149 50-202 81-91 54-91 145t64.5 144.5 167.5 53.5q38 0 90.5-16.5t53.5-16.5z"/><path transform="translate(8.344 13.44) scale(.014 -.014)" d="m262.5-18q-102.5 0-163 65.5t-60.5 156.5 62.5 159 165 68 172-59 69.5-164-71.5-165.5-174-60.5zm-11.5 422q-52 0-92.5-41t-40.5-135 55-155 118.5-61 102.5 43.5 39 127.5-48 152.5-134 68.5z"/><path transform="translate(16.002 13.44) scale(.014 -.014)" d="m52 363-11 1q-19 0-19 16 0 11 13.5 16.5t50 17 57.5 21 25 9.5q13 0 13-20l-1-27q0-36 2.5-39.5t5-3.5 15.5 20 37 40.5 47.5 20.5 48.5-16.5 25-33-8-30.5q-14-24-26-24-8 0-28.5 12t-47.5 12-50.5-22-23.5-40v-104l1-87 1-18q0-21 14-36t26.5-17 21.5-3 14-1.5 11-2.5q11-2 11-14.5t-12-12.5l-85 5-104-5q-18 0-20 4t-2 8q0 13 13 17 26 6 31.5 25.5t5.5 83.5l-1 161-1 30q0 11-3 18-8 19-47 19z"/><path transform="translate(21.252 13.44) scale(.014 -.014)" d="m63 371-19-1q-17 0-17 14 0 10 9 17 38 25 76 75 16 23 25.5 33.5t19.5 10.5 10-23q0 0-4-57 0-14 5.5-17t35.5-3h35q45 0 55 5 18 9 22 9 10 0 10-11 0-8-13-31.5t-19-23.5q-45 0-63 2t-24 2.5-10.5 1-6.5 0.5l-2 1q-19 0-24.5-6t-5.5-27l-4-186q0-65 16.5-90.5t69.5-25.5q21 0 46.5 9.5t27.5 9.5q10 0 10-13t-34.5-34.5-74.5-21.5q-135 0-135 117v15l4 233q0 10-4 13t-17 3z"/><path transform="translate(26.04 13.44) scale(.014 -.014)" d="m328 401 4-60q0-17-4-23t-11.5-6-16 14.5-19 31.5-34 31.5-53.5 14.5-49-14.5-19-31.5 3-27.5 10.5-18.5 13-13.5 18.5-11.5 19.5-8.5 21.5-8.5q91-32 117-62.5t26-87.5-53-105q-36-31-99-31-43 0-96 21-15 6-17.5 6.5t-8 2.5-8 2.5-6.5 2.5-5.5 3.5-3.5 4.5q-3 5-3 16v87q0 11 4.5 18.5t12.5 7.5 11.5-4.5 6.5-18.5 6-20q37-92 104-92 31 0 59 16.5t28 52-23 57.5-56 34.5-66 26-56 40-23 66.5q0 56 45 90t99 34 82-8.5 33.5-15.5 5.5-13z"/><path transform="translate(34.524 13.44) scale(.014 -.014)" d="m63-2q-21 0-21 16 0 13 30 14 11 1 25 16.5t20 41.5 13 178 7 238.5-19.5 124.5-84.5 53q-13 3-13 15 0 15 18 15l53-4 75 2q19 0 24-14 12-26 43-93.5t49.5-107.5 47.5-102 47-100.5 37.5-77.5 30-57.5 13.5-18.5 6.5 3.5 7 9.5 6 12 7 15.5 6.5 14.5l129 266q53 108 71 151l23 50q3 8 4.5 12.5t2.5 7 2 4.5 3.5 9 5.5 10q8 8 29 8l86-2q17 0 17-13 0-10-6.5-14.5t-29-7.5-32.5-25-10-120.5 6-208 6-137.5q0-100 16-127.5t67-27.5q7 0 12.5-5t5.5-9q0-16-11-16h-11l-102 4t-104-5q-18 0-18 14 0 15 27 18 10 1 21.5 12.5t16 33 4.5 59.5-1.5 83-3.5 87.5-4 80-3 61.5l-2 24q0 43-9 43-3 0-5.5-3t-4.5-5-4-6.5-4-7.5-5-8.5-5-9.5l-5-11q-4-7-6-12l-139-281q-24-49-46.5-96t-26.5-53.5-11.5-6.5-13.5 8.5-18 37.5-21 48q-183 372-187 377.5t-7 5.5q-8 0-8-40l-9-264v-45q0-82 33-101 17-10 33-11 25-3 25-13.5t-3-14-12-3.5l-104 4z"/><path transform="translate(47.39 13.44) scale(.014 -.014)" d="m159-4-71-2q-40 0-40 13.5t15 18.5q1 0 4 1 23 8 30 24t7 155v88q0 29-7 46t-13 21-20.5 6.5-21 5-6.5 8 2.5 8.5 10 6.5 15.5 6.5q28 8 46 16t27.5 12 12.5 6q7 3 17 3 15 0 15-19l-6-48v-274q0-30 9.5-47t20-21 24.5-5 18-1q14-2 14-14 0-17-17-17l-15 1zm-17 537q-20 0-34.5 21t-14.5 34.5 17.5 35 33 21.5 30.5-20.5 15-36.5-19-35.5-28-19.5z"/><path transform="translate(51.366 13.44) scale(.014 -.014)" d="m91 192 4 425q0 23-7.5 41.5t-16.5 22.5-40 4q-11 0-11 7t1.5 10 6.5 5.5 12 4.5q29 6 60 21 49 23 64 23 12 0 12-19 0-4-2-23-6-59-6-129v-56l-2-133v-298q0-21 3.5-34.5t23-26 54.5-12.5q5 0 9-5t4-10q0-14-31-14l-101 7q-26 0-49.5-4t-31-4-12 3.5-4.5 9 4.5 9 14.5 5.5q30 8 36 24.5t6 45.5l-1 26z"/><path transform="translate(55.272 13.44) scale(.014 -.014)" d="m91 192 4 425q0 23-7.5 41.5t-16.5 22.5-40 4q-11 0-11 7t1.5 10 6.5 5.5 12 4.5q29 6 60 21 49 23 64 23 12 0 12-19 0-4-2-23-6-59-6-129v-56l-2-133v-298q0-21 3.5-34.5t23-26 54.5-12.5q5 0 9-5t4-10q0-14-31-14l-101 7q-26 0-49.5-4t-31-4-12 3.5-4.5 9 4.5 9 14.5 5.5q30 8 36 24.5t6 45.5l-1 26z"/><path transform="translate(62.16 13.44) scale(.014 -.014)" d="m678 365 80 1h15q16 0 16-9 0-7-25.5-18t-28.5-28q-7-43-7-92.5t1-72.5 1.5-32.5 1.5-16.5 1-11-7.5-6.5-24.5-7-31-13-21-12.5-18.5-10-23.5-12-27-12.5-31-11.5-33-9q-38-9-72-9-109 0-189.5 29.5t-124.5 79.5q-86 99-86 237 0 109 43.5 196t133.5 140.5 214 53.5q119 0 206-45 20-11 30.5-18.5t13-7.5 13 7.5 14.5 7.5q15 0 15.5-24.5t4-56.5 6.5-53 3-25q0-17-12-17t-17 12q-35 76-117 128.5t-169 52.5q-125 0-206.5-78.5t-81.5-217.5q0-92 34-173t103.5-134 153-53 146 35 69.5 80q3 24 3 126 0 39-14.5 53.5t-45.5 18-34.5 10-3.5 12.5q0 11 18 11z"/><path transform="translate(73.612 13.44) scale(.014 -.014)" d="m262.5-18q-102.5 0-163 65.5t-60.5 156.5 62.5 159 165 68 172-59 69.5-164-71.5-165.5-174-60.5zm-11.5 422q-52 0-92.5-41t-40.5-135 55-155 118.5-61 102.5 43.5 39 127.5-48 152.5-134 68.5z"/><path transform="translate(81.27 13.44) scale(.014 -.014)" d="m94 156 1 180q0 20-10.5 32t-19.5 12h-18q-18 0-18 14t19.5 18 47.5 4l57 5q17 0 20-7t3-35-2.5-76.5-2.5-107.5q0-88 34-124.5t77-36.5q64 0 93 27t29 95l-2 138q0 50-8 67.5t-34 20-26 13.5q0 23 88 23l36 5q15 0 19.5-5t4.5-14.5-0.5-24-1-38.5-1.5-54q-2-60-2-134t6-96 22-22l26 1q24 0 24-12t-7-15-27-3-60.5-5.5-43.5-5.5q-7 0-11.5 25.5t-6 25.5-19.5-16-51.5-32-73.5-16q-161 0-161 174z"/><path transform="translate(89.334 13.44) scale(.014 -.014)" d="m394-3-3 37q0 17-9 17-3 0-14.5-10t-26.5-22.5-43.5-22.5-61.5-10q-93 0-145 61.5t-52 153 64.5 164.5 178.5 73q26 0 68.5-14.5t46.5-14.5 4 36l2 129q0 54-5.5 76t-17 29-30.5 7h-11q-15 0-18 1t-3 7v1q0 7 10 10.5t40.5 13 48 17.5 26.5 12q19 10 27 10 12 0 12-20 0-3-6.5-85t-6.5-132l-2-365q0-68 6.5-91t28.5-30q3-1 17-3.5t20-6 6-11.5q0-12-77-18-16-1-37-5.5t-26-4.5q-11 0-11 11zm-117 41q45 0 82 23t37 56l1 171q0 61-28 77-74 44-119 44-65 0-102-47.5t-37-121.5 46.5-138 119.5-64z"/><path transform="translate(97.244 13.44) scale(.014 -.014)" d="m204-190-43-1q-19 0-19 13 0 3 22.5 31t45.5 69 23 72.5-57 155.5-99 203q-11 20-22.5 31t-18.5 12q-16 2-16 15t20 13l107-2 57 2q7 0 12.5-3.5t5.5-7.5q0-18-24-18h-15q-16 0-16-25 0-30 53-144 8-17 24-54 30-68 36-68t46.5 115 40.5 137-9.5 31-21.5 9q-31-2-31 17 0 12 19 12l72-1 62 1q21 0 21-13 0-10-17.5-14.5t-23.5-12.5q-16-23-54-126l-89-237q-11-29-22-59.5t-18-49.5-14-38-11-29.5-8-19.5q-8-16-15-16z"/></svg>