<svg width="104" height="14" viewBox="0 0 104 14" fill="none" xmlns="http://www.w3.org/2000/svg">
<path d="M6.04 0.96L6.36 0.85C6.48 0.85 6.55 0.886667 6.57 0.96C6.77 2.09333 6.87 2.76 6.87 2.96C6.87 3.16 6.80333 3.26 6.67 3.26C6.58333 3.26 6.5 3.16 6.42 2.96C6.34667 2.76 6.25667 2.57667 6.15 2.41C6.03667 2.23667 5.95667 2.12667 5.91 2.08C5.86333 2.03333 5.74333 1.92333 5.55 1.75C5.04333 1.30333 4.46667 1.08 3.82 1.08C3.17333 1.08 2.65333 1.22 2.26 1.5C1.86667 1.78 1.67 2.14333 1.67 2.59C1.67 3.03667 1.78667 3.39667 2.02 3.67C2.24667 3.93667 2.55 4.14667 2.93 4.3C3.31667 4.44667 3.72 4.58667 4.14 4.72C5.26667 5.07333 6.1 5.53333 6.64 6.1C7.01333 6.5 7.2 7 7.2 7.6C7.2 8.58 6.88667 9.35667 6.26 9.93C5.64 10.5033 4.86667 10.79 3.94 10.79C3.29333 10.79 2.77667 10.7567 2.39 10.69C1.99667 10.6167 1.59333 10.4733 1.18 10.26C1.06 10.1867 0.916667 9.82333 0.75 9.17C0.583333 8.51667 0.5 8.10667 0.5 7.94C0.5 7.78 0.563333 7.7 0.69 7.7C0.81 7.7 0.886667 7.74667 0.92 7.84C1.26 8.66667 1.66333 9.25333 2.13 9.6C2.63667 9.98667 3.24667 10.18 3.96 10.18C4.67333 10.18 5.24333 9.99333 5.67 9.62C6.09667 9.25333 6.31 8.77 6.31 8.17C6.31 7.73667 6.16333 7.37 5.87 7.07C5.58333 6.77667 5.25333 6.56667 4.88 6.44C3.48667 5.97333 2.54333 5.59333 2.05 5.3C1.20333 4.8 0.78 4.12333 0.78 3.27C0.78 2.42333 1.08 1.75 1.68 1.25C2.28 0.75 3.06 0.5 4.02 0.5C4.38 0.5 4.80333 0.576667 5.29 0.73C5.78333 0.883333 6.03333 0.96 6.04 0.96ZM11.69 10.86C10.73 10.86 9.97 10.5567 9.41 9.95C8.84333 9.33667 8.56 8.60333 8.56 7.75C8.56 6.90333 8.85 6.16333 9.43 5.53C10.0167 4.89667 10.7867 4.58 11.74 4.58C12.7 4.58 13.5033 4.85333 14.15 5.4C14.8033 5.95333 15.13 6.72 15.13 7.7C15.13 8.68 14.7933 9.45 14.12 10.01C13.4533 10.5767 12.6433 10.86 11.69 10.86ZM11.53 4.95C11.0433 4.95 10.61 5.14333 10.23 5.53C9.85667 5.91 9.67 6.54 9.67 7.42C9.67 8.29333 9.92667 9.01667 10.44 9.59C10.9533 10.1567 11.5067 10.44 12.1 10.44C12.6867 10.44 13.1633 10.2367 13.53 9.83C13.8967 9.42333 14.08 8.83 14.08 8.05C14.08 7.26333 13.8533 6.55 13.4 5.91C12.9533 5.27 12.33 4.95 11.53 4.95ZM16.4 5.53L16.25 5.51C16.07 5.51 15.98 5.43667 15.98 5.29C15.98 5.19 16.0433 5.11333 16.17 5.06C16.2967 5.00667 16.53 4.92667 16.87 4.82C17.21 4.71333 17.4767 4.61667 17.67 4.53C17.87 4.43667 17.9867 4.39 18.02 4.39C18.1467 4.39 18.21 4.48333 18.21 4.67L18.19 5.05C18.19 5.39 18.2033 5.57667 18.23 5.61C18.25 5.63667 18.2733 5.65 18.3 5.65C18.32 5.65 18.39 5.55667 18.51 5.37C18.6367 5.18333 18.81 4.99667 19.03 4.81C19.2567 4.61667 19.48 4.52 19.7 4.52C19.92 4.52 20.1467 4.59667 20.38 4.75C20.6133 4.90333 20.73 5.05667 20.73 5.21C20.73 5.36333 20.69 5.50667 20.61 5.64C20.4833 5.86667 20.3633 5.98 20.25 5.98C20.1767 5.98 20.0433 5.92333 19.85 5.81C19.6567 5.69667 19.4367 5.64 19.19 5.64C18.9367 5.64 18.7 5.74333 18.48 5.95C18.26 6.15667 18.15 6.34333 18.15 6.51V7.96L18.16 9.18L18.18 9.43C18.18 9.63 18.2433 9.8 18.37 9.94C18.5033 10.08 18.6267 10.16 18.74 10.18C18.86 10.1933 18.9633 10.2067 19.05 10.22C19.13 10.2267 19.1933 10.2333 19.24 10.24C19.2867 10.2467 19.34 10.2567 19.4 10.27C19.5 10.29 19.55 10.36 19.55 10.48C19.55 10.5933 19.4933 10.65 19.38 10.65L18.19 10.58L16.74 10.65C16.5667 10.65 16.4733 10.6333 16.46 10.6C16.44 10.56 16.43 10.52 16.43 10.48C16.43 10.36 16.49 10.2833 16.61 10.25C16.85 10.19 16.9967 10.07 17.05 9.89C17.1033 9.71 17.13 9.32 17.13 8.72L17.11 6.47L17.1 6.05C17.1 5.94333 17.0867 5.85667 17.06 5.79C16.9867 5.61667 16.7667 5.53 16.4 5.53ZM21.8 5.42L21.54 5.43C21.38 5.43 21.3 5.36333 21.3 5.23C21.3 5.13667 21.3433 5.06 21.43 5C21.7833 4.76667 22.1367 4.41667 22.49 3.95C22.6367 3.73 22.7567 3.57333 22.85 3.48C22.9367 3.38 23.0267 3.33 23.12 3.33C23.2133 3.33 23.26 3.43667 23.26 3.65C23.26 3.65 23.24 3.91667 23.2 4.45C23.2 4.58333 23.2267 4.66333 23.28 4.69C23.3333 4.71667 23.5 4.73 23.78 4.73H24.27C24.69 4.73 24.9467 4.70667 25.04 4.66C25.2067 4.57333 25.31 4.53 25.35 4.53C25.4433 4.53 25.49 4.58333 25.49 4.69C25.49 4.76333 25.4267 4.91 25.3 5.13C25.18 5.35 25.0933 5.46 25.04 5.46C24.62 5.46 24.3267 5.45 24.16 5.43C23.9867 5.41 23.8733 5.4 23.82 5.4C23.7667 5.39333 23.7167 5.38667 23.67 5.38C23.63 5.37333 23.6 5.37 23.58 5.37L23.55 5.36C23.3767 5.36 23.2633 5.38667 23.21 5.44C23.1567 5.5 23.13 5.62667 23.13 5.82L23.08 8.43C23.08 9.03667 23.1567 9.45667 23.31 9.69C23.4633 9.93 23.7867 10.05 24.28 10.05C24.48 10.05 24.6967 10.0067 24.93 9.92C25.17 9.82667 25.3 9.78 25.32 9.78C25.4133 9.78 25.46 9.84333 25.46 9.97C25.46 10.09 25.2967 10.25 24.97 10.45C24.65 10.65 24.3033 10.75 23.93 10.75C22.67 10.75 22.04 10.2033 22.04 9.11V8.9L22.1 5.64C22.1 5.54667 22.08 5.48667 22.04 5.46C22.0067 5.43333 21.9267 5.42 21.8 5.42ZM30.3 5L30.36 5.84C30.36 5.99333 30.34 6.1 30.3 6.16C30.2667 6.21333 30.2133 6.24 30.14 6.24C30.0733 6.24 30 6.17333 29.92 6.04C29.84 5.90667 29.75 5.76 29.65 5.6C29.55 5.44 29.39 5.29333 29.17 5.16C28.9567 5.02 28.71 4.95 28.43 4.95C28.15 4.95 27.92 5.02 27.74 5.16C27.56 5.29333 27.47 5.44 27.47 5.6C27.47 5.76 27.4867 5.88667 27.52 5.98C27.5467 6.08 27.5933 6.16667 27.66 6.24C27.7333 6.31333 27.7967 6.37667 27.85 6.43C27.8967 6.48333 27.98 6.53667 28.1 6.59C28.2267 6.65 28.32 6.69 28.38 6.71C28.44 6.73667 28.54 6.77667 28.68 6.83C29.5267 7.13 30.0733 7.42 30.32 7.7C30.56 7.98667 30.68 8.39667 30.68 8.93C30.68 9.46333 30.4333 9.95333 29.94 10.4C29.6 10.6867 29.1367 10.83 28.55 10.83C28.15 10.83 27.7033 10.7333 27.21 10.54C27.07 10.4867 26.9867 10.4567 26.96 10.45C26.94 10.4433 26.9033 10.43 26.85 10.41C26.7967 10.3967 26.76 10.3867 26.74 10.38C26.7133 10.3733 26.6833 10.36 26.65 10.34C26.61 10.3267 26.5833 10.3133 26.57 10.3C26.5567 10.28 26.54 10.2567 26.52 10.23C26.4933 10.1833 26.48 10.11 26.48 10.01V8.79C26.48 8.69 26.5 8.60333 26.54 8.53C26.5867 8.46333 26.6467 8.43 26.72 8.43C26.7933 8.43 26.8467 8.45 26.88 8.49C26.9133 8.53 26.9433 8.61667 26.97 8.75C26.9967 8.87667 27.0233 8.97 27.05 9.03C27.3967 9.89 27.8833 10.32 28.51 10.32C28.7967 10.32 29.0733 10.24 29.34 10.08C29.6 9.92667 29.73 9.68667 29.73 9.36C29.73 9.02667 29.6233 8.75667 29.41 8.55C29.19 8.34333 28.9267 8.18333 28.62 8.07C28.3133 7.95 28.0067 7.82667 27.7 7.7C27.3933 7.58 27.13 7.39667 26.91 7.15C26.6967 6.89667 26.59 6.58333 26.59 6.21C26.59 5.69 26.8 5.27 27.22 4.95C27.64 4.63667 28.1033 4.48 28.61 4.48C29.11 4.48 29.4933 4.52 29.76 4.6C30.02 4.68 30.1733 4.75 30.22 4.81C30.2733 4.87667 30.3 4.94 30.3 5ZM36.22 10.6L35.08 10.64C34.88 10.64 34.78 10.5633 34.78 10.41C34.78 10.29 34.92 10.2267 35.2 10.22C35.3067 10.2067 35.4233 10.13 35.55 9.99C35.6833 9.84333 35.7767 9.65 35.83 9.41C35.89 9.16333 35.95 8.33 36.01 6.91C36.0767 5.49667 36.11 4.38333 36.11 3.57C36.11 2.76333 36.02 2.18333 35.84 1.83C35.66 1.47667 35.2667 1.23 34.66 1.09C34.5333 1.06333 34.47 0.993333 34.47 0.88C34.47 0.74 34.5567 0.67 34.73 0.67L35.47 0.73L36.52 0.7C36.6933 0.7 36.8033 0.763334 36.85 0.89C36.9633 1.13667 37.1667 1.57333 37.46 2.2C37.7467 2.83333 37.9767 3.33667 38.15 3.71C38.3233 4.08333 38.5433 4.56 38.81 5.14C39.0833 5.71333 39.3033 6.18 39.47 6.54C39.6367 6.9 39.8133 7.26333 40 7.63C40.18 7.99 40.32 8.25667 40.42 8.43C40.5133 8.60333 40.5767 8.69 40.61 8.69C40.6367 8.69 40.6667 8.67333 40.7 8.64C40.7333 8.60667 40.7667 8.56333 40.8 8.51C40.8267 8.45667 40.8533 8.4 40.88 8.34C40.9 8.28667 40.9333 8.21667 40.98 8.13C41.02 8.03667 41.05 7.96667 41.07 7.92L42.87 4.2C43.37 3.19333 43.7033 2.48667 43.87 2.08L44.19 1.38C44.2167 1.30667 44.2367 1.25 44.25 1.21C44.2633 1.17 44.2767 1.13667 44.29 1.11C44.2967 1.09 44.3067 1.07 44.32 1.05C44.3267 1.03 44.3433 0.986667 44.37 0.92C44.39 0.853333 44.4133 0.806667 44.44 0.78C44.5133 0.706667 44.65 0.67 44.85 0.67L46.05 0.7C46.21 0.7 46.29 0.76 46.29 0.88C46.29 0.973333 46.26 1.04 46.2 1.08C46.14 1.12667 46.0033 1.16333 45.79 1.19C45.5833 1.21667 45.4333 1.33333 45.34 1.54C45.2467 1.74667 45.2 2.31 45.2 3.23C45.2 4.14333 45.2267 5.11333 45.28 6.14C45.34 7.16 45.37 7.8 45.37 8.06C45.37 8.99333 45.4433 9.59 45.59 9.85C45.7367 10.1033 46.05 10.23 46.53 10.23C46.5967 10.23 46.6533 10.2533 46.7 10.3C46.7533 10.3467 46.78 10.39 46.78 10.43C46.78 10.5767 46.73 10.65 46.63 10.65H46.47L45.04 10.6C45.04 10.6 44.5567 10.6233 43.59 10.67C43.4233 10.67 43.34 10.6033 43.34 10.47C43.34 10.33 43.4633 10.2467 43.71 10.22C43.8033 10.2067 43.9033 10.1467 44.01 10.04C44.1233 9.93333 44.2 9.78 44.24 9.58C44.28 9.38 44.3 9.10333 44.3 8.75C44.3 8.39667 44.2933 8.01 44.28 7.59C44.2667 7.17 44.25 6.76 44.23 6.36C44.21 5.96667 44.1933 5.59333 44.18 5.24C44.16 4.89333 44.1433 4.60667 44.13 4.38L44.11 4.04C44.11 3.64 44.0667 3.44 43.98 3.44C43.9533 3.44 43.9267 3.45333 43.9 3.48C43.88 3.51333 43.86 3.53667 43.84 3.55C43.82 3.57 43.8 3.60333 43.78 3.65C43.7667 3.69 43.75 3.72333 43.73 3.75C43.71 3.77667 43.6867 3.81667 43.66 3.87C43.6333 3.92333 43.61 3.96667 43.59 4L43.52 4.16C43.48 4.22 43.45 4.27333 43.43 4.32L41.49 8.26C41.2633 8.71333 41.0467 9.16 40.84 9.6C40.6267 10.04 40.5033 10.29 40.47 10.35C40.43 10.41 40.3733 10.44 40.3 10.44C40.2333 10.44 40.1733 10.4 40.12 10.32C40.06 10.24 39.9733 10.0667 39.86 9.8C39.7533 9.52667 39.6567 9.30333 39.57 9.13C37.8633 5.65667 36.99 3.89333 36.95 3.84C36.9167 3.78667 36.8833 3.76 36.85 3.76C36.7767 3.76 36.74 3.94667 36.74 4.32L36.62 8.02V8.65C36.62 9.41667 36.7733 9.88667 37.08 10.06C37.24 10.1533 37.3933 10.2067 37.54 10.22C37.7733 10.2467 37.89 10.31 37.89 10.41C37.89 10.5033 37.8767 10.5667 37.85 10.6C37.8233 10.6333 37.7667 10.65 37.68 10.65L36.22 10.6ZM50.28 10.69L49.29 10.67L48.29 10.69C47.9167 10.69 47.73 10.6267 47.73 10.5C47.73 10.38 47.8 10.2967 47.94 10.25C47.9533 10.25 47.9733 10.2433 48 10.23C48.2133 10.1567 48.3533 10.0467 48.42 9.9C48.4867 9.74667 48.52 9.02333 48.52 7.73V6.49C48.52 6.22333 48.4867 6.01 48.42 5.85C48.3533 5.69 48.2933 5.59333 48.24 5.56C48.18 5.52 48.0833 5.49 47.95 5.47C47.8167 5.44333 47.7167 5.42 47.65 5.4C47.59 5.37333 47.56 5.33333 47.56 5.28C47.56 5.23333 47.5733 5.19333 47.6 5.16C47.62 5.13333 47.6667 5.10333 47.74 5.07C47.8067 5.03667 47.88 5.00667 47.96 4.98C48.22 4.90667 48.4333 4.83333 48.6 4.76C48.7667 4.68667 48.8933 4.63 48.98 4.59C49.0733 4.55 49.1333 4.52333 49.16 4.51C49.2267 4.47667 49.3067 4.46 49.4 4.46C49.54 4.46 49.61 4.55 49.61 4.73L49.52 5.4V9.24C49.52 9.52 49.5667 9.74 49.66 9.9C49.7467 10.0533 49.84 10.15 49.94 10.19C50.0333 10.23 50.1467 10.2533 50.28 10.26C50.4133 10.2667 50.4967 10.27 50.53 10.27C50.6633 10.29 50.73 10.3567 50.73 10.47C50.73 10.63 50.65 10.71 50.49 10.71L50.28 10.69ZM49.05 3.15C48.8633 3.15 48.7033 3.05 48.57 2.85C48.43 2.65667 48.36 2.49667 48.36 2.37C48.36 2.24333 48.4433 2.08 48.61 1.88C48.77 1.68 48.9233 1.58 49.07 1.58C49.2167 1.58 49.36 1.67667 49.5 1.87C49.64 2.05667 49.71 2.22667 49.71 2.38C49.71 2.52667 49.62 2.69333 49.44 2.88C49.26 3.06 49.13 3.15 49.05 3.15ZM52.31 8.96V7.92L52.37 1.97C52.37 1.75667 52.3333 1.56333 52.26 1.39C52.1933 1.21667 52.1167 1.11333 52.03 1.08C51.9433 1.04 51.7567 1.02 51.47 1.02C51.37 1.02 51.32 0.986667 51.32 0.92C51.32 0.853333 51.3267 0.806667 51.34 0.78C51.3533 0.753334 51.3833 0.73 51.43 0.71C51.4767 0.683333 51.5333 0.66 51.6 0.64C51.8667 0.586667 52.1467 0.49 52.44 0.35C52.8933 0.136667 53.19 0.0300002 53.33 0.0300002C53.4433 0.0300002 53.5 0.116667 53.5 0.29C53.5 0.33 53.49 0.436667 53.47 0.61C53.4167 1.16333 53.39 1.76667 53.39 2.42V3.2L53.36 5.07V9.24C53.36 9.43333 53.3767 9.59333 53.41 9.72C53.4433 9.84667 53.55 9.96667 53.73 10.08C53.91 10.2 54.1633 10.26 54.49 10.26C54.5367 10.26 54.58 10.2833 54.62 10.33C54.66 10.3767 54.68 10.4233 54.68 10.47C54.68 10.6033 54.5333 10.67 54.24 10.67L52.83 10.57C52.5833 10.57 52.35 10.5867 52.13 10.62C51.9167 10.66 51.7733 10.68 51.7 10.68C51.6333 10.68 51.5767 10.6633 51.53 10.63C51.49 10.5967 51.47 10.5533 51.47 10.5C51.47 10.4533 51.49 10.4133 51.53 10.38C51.5767 10.3467 51.6467 10.32 51.74 10.3C52.02 10.2267 52.1867 10.1133 52.24 9.96C52.2933 9.80667 52.32 9.59333 52.32 9.32L52.31 8.96ZM56.22 8.96V7.92L56.27 1.97C56.27 1.75667 56.2367 1.56333 56.17 1.39C56.0967 1.21667 56.02 1.11333 55.94 1.08C55.8533 1.04 55.6667 1.02 55.38 1.02C55.2733 1.02 55.22 0.986667 55.22 0.92C55.22 0.853333 55.2267 0.806667 55.24 0.78C55.2533 0.753334 55.2833 0.73 55.33 0.71C55.3767 0.683333 55.4333 0.66 55.5 0.64C55.7733 0.586667 56.0533 0.49 56.34 0.35C56.8 0.136667 57.1 0.0300002 57.24 0.0300002C57.3533 0.0300002 57.41 0.116667 57.41 0.29C57.41 0.33 57.4 0.436667 57.38 0.61C57.32 1.16333 57.29 1.76667 57.29 2.42V3.2L57.27 5.07V9.24C57.27 9.43333 57.2833 9.59333 57.31 9.72C57.3433 9.84667 57.4533 9.96667 57.64 10.08C57.82 10.2 58.0733 10.26 58.4 10.26C58.4467 10.26 58.49 10.2833 58.53 10.33C58.5633 10.3767 58.58 10.4233 58.58 10.47C58.58 10.6033 58.4367 10.67 58.15 10.67L56.73 10.57C56.49 10.57 56.26 10.5867 56.04 10.62C55.82 10.66 55.6767 10.68 55.61 10.68C55.5367 10.68 55.48 10.6633 55.44 10.63C55.4 10.5967 55.38 10.5533 55.38 10.5C55.38 10.4533 55.4 10.4133 55.44 10.38C55.48 10.3467 55.5467 10.32 55.64 10.3C55.92 10.2267 56.09 10.1133 56.15 9.96C56.2033 9.80667 56.23 9.59333 56.23 9.32L56.22 8.96ZM69.77 5.43L71.32 5.5L72.44 5.49H72.65C72.8033 5.49 72.88 5.53 72.88 5.61C72.88 5.67667 72.76 5.76 72.52 5.86C72.28 5.96667 72.1467 6.1 72.12 6.26C72.0533 6.66 72.02 7.09 72.02 7.55C72.02 8.01 72.0267 8.35 72.04 8.57C72.0467 8.78333 72.0533 8.93333 72.06 9.02C72.06 9.10667 72.0667 9.18333 72.08 9.25C72.0867 9.31667 72.09 9.37 72.09 9.41C72.09 9.44333 72.0567 9.47333 71.99 9.5C71.9167 9.52 71.8 9.55 71.64 9.59C71.4867 9.63667 71.3433 9.7 71.21 9.78C71.0767 9.86 70.98 9.91667 70.92 9.95C70.8533 9.99 70.7667 10.0367 70.66 10.09C70.5533 10.15 70.4433 10.2067 70.33 10.26C70.2167 10.3133 70.09 10.37 69.95 10.43C69.81 10.4967 69.6667 10.5533 69.52 10.6C69.3667 10.6467 69.21 10.6867 69.05 10.72C68.6967 10.8067 68.3633 10.85 68.05 10.85C67.03 10.85 66.1433 10.71 65.39 10.43C64.6433 10.1567 64.0633 9.78667 63.65 9.32C62.85 8.4 62.45 7.29333 62.45 6C62.45 4.98667 62.65 4.07333 63.05 3.26C63.4567 2.44667 64.08 1.79 64.92 1.29C65.76 0.79 66.76 0.54 67.92 0.54C69.0333 0.54 69.9933 0.75 70.8 1.17C70.9867 1.27667 71.13 1.36333 71.23 1.43C71.33 1.50333 71.39 1.54 71.41 1.54C71.4367 1.54 71.4967 1.50333 71.59 1.43C71.69 1.36333 71.76 1.33 71.8 1.33C71.94 1.33 72.01 1.44333 72.01 1.67C72.0167 1.89667 72.0367 2.16 72.07 2.46C72.1033 2.76 72.1333 3.00667 72.16 3.2C72.1867 3.4 72.2 3.51667 72.2 3.55C72.2 3.71 72.1467 3.79 72.04 3.79C71.9267 3.79 71.8467 3.73333 71.8 3.62C71.4733 2.91333 70.9267 2.31333 70.16 1.82C69.3933 1.33333 68.6033 1.09 67.79 1.09C66.6233 1.09 65.66 1.45667 64.9 2.19C64.14 2.92333 63.76 3.93667 63.76 5.23C63.76 6.09 63.92 6.9 64.24 7.66C64.5533 8.41333 65.0367 9.03667 65.69 9.53C66.3367 10.0233 67.05 10.27 67.83 10.27C68.61 10.27 69.29 10.1067 69.87 9.78C70.4567 9.45333 70.7833 9.08 70.85 8.66C70.8767 8.44 70.89 7.85333 70.89 6.9C70.89 6.53333 70.8233 6.28333 70.69 6.15C70.55 6.01667 70.3367 5.93333 70.05 5.9C69.7567 5.86667 69.5933 5.82 69.56 5.76C69.5333 5.7 69.52 5.64 69.52 5.58C69.52 5.48 69.6033 5.43 69.77 5.43ZM76.96 10.86C76 10.86 75.2367 10.5567 74.67 9.95C74.11 9.33667 73.83 8.60333 73.83 7.75C73.83 6.90333 74.12 6.16333 74.7 5.53C75.2867 4.89667 76.0567 4.58 77.01 4.58C77.97 4.58 78.7733 4.85333 79.42 5.4C80.0667 5.95333 80.39 6.72 80.39 7.7C80.39 8.68 80.0567 9.45 79.39 10.01C78.7233 10.5767 77.9133 10.86 76.96 10.86ZM76.8 4.95C76.3133 4.95 75.88 5.14333 75.5 5.53C75.12 5.91 74.93 6.54 74.93 7.42C74.93 8.29333 75.1867 9.01667 75.7 9.59C76.2133 10.1567 76.7667 10.44 77.36 10.44C77.9533 10.44 78.4333 10.2367 78.8 9.83C79.16 9.42333 79.34 8.83 79.34 8.05C79.34 7.26333 79.1167 6.55 78.67 5.91C78.2233 5.27 77.6 4.95 76.8 4.95ZM82.26 8.43L82.27 5.91C82.27 5.72333 82.22 5.57333 82.12 5.46C82.0267 5.34667 81.9367 5.29 81.85 5.29H81.6C81.4333 5.29 81.35 5.22333 81.35 5.09C81.35 4.96333 81.44 4.88 81.62 4.84C81.8 4.80667 82.02 4.79 82.28 4.79L83.08 4.72C83.24 4.72 83.3333 4.75 83.36 4.81C83.3867 4.87667 83.4 5.04 83.4 5.3C83.4 5.56667 83.39 5.92667 83.37 6.38C83.3433 6.82667 83.33 7.32667 83.33 7.88C83.33 8.7 83.49 9.28 83.81 9.62C84.13 9.96 84.49 10.13 84.89 10.13C85.4833 10.13 85.9167 10.0067 86.19 9.76C86.4633 9.50667 86.6 9.06333 86.6 8.43L86.57 6.49C86.57 6.02333 86.5333 5.71 86.46 5.55C86.38 5.38333 86.22 5.29 85.98 5.27C85.74 5.24333 85.62 5.18 85.62 5.08C85.62 4.86667 86.03 4.76 86.85 4.76L87.35 4.69C87.49 4.69 87.58 4.71333 87.62 4.76C87.6667 4.80667 87.69 4.87333 87.69 4.96C87.69 5.04667 87.6867 5.16 87.68 5.3C87.6733 5.43333 87.67 5.61333 87.67 5.84C87.6633 6.06 87.6567 6.31 87.65 6.59C87.63 7.15 87.62 7.77667 87.62 8.47C87.62 9.15667 87.6467 9.60333 87.7 9.81C87.76 10.0167 87.8633 10.12 88.01 10.12L88.37 10.11C88.5967 10.11 88.71 10.1633 88.71 10.27C88.71 10.3833 88.6767 10.4533 88.61 10.48C88.5433 10.5133 88.4167 10.53 88.23 10.53C88.0433 10.53 87.7633 10.5533 87.39 10.6C87.01 10.6533 86.8067 10.68 86.78 10.68C86.7133 10.68 86.66 10.56 86.62 10.32C86.5733 10.0867 86.5433 9.97 86.53 9.97C86.5167 9.97 86.4267 10.0433 86.26 10.19C86.0933 10.3367 85.8533 10.4867 85.54 10.64C85.2267 10.7867 84.8833 10.86 84.51 10.86C83.01 10.86 82.26 10.05 82.26 8.43ZM94.52 10.65L94.48 10.13C94.48 9.97667 94.4367 9.9 94.35 9.9C94.3233 9.9 94.2567 9.94667 94.15 10.04C94.0433 10.1333 93.92 10.2367 93.78 10.35C93.64 10.47 93.4367 10.5767 93.17 10.67C92.9033 10.7633 92.6167 10.81 92.31 10.81C91.4433 10.81 90.7667 10.5233 90.28 9.95C89.7933 9.37 89.55 8.65333 89.55 7.8C89.55 6.94667 89.85 6.18 90.45 5.5C91.0567 4.82 91.89 4.48 92.95 4.48C93.1967 4.48 93.5167 4.54667 93.91 4.68C94.31 4.81333 94.5267 4.88 94.56 4.88C94.6 4.88 94.62 4.71333 94.62 4.38L94.65 2.57C94.65 2.07 94.6233 1.71667 94.57 1.51C94.5167 1.30333 94.4367 1.16667 94.33 1.1C94.2233 1.04 94.08 1.01 93.9 1.01H93.75C93.61 1.01 93.5267 1.00333 93.5 0.99C93.4733 0.983334 93.46 0.95 93.46 0.89V0.88C93.46 0.813333 93.5067 0.763333 93.6 0.73C93.6933 0.696667 93.88 0.636667 94.16 0.55C94.4467 0.463334 94.6733 0.383333 94.84 0.31C95 0.23 95.1233 0.173334 95.21 0.14C95.3833 0.046667 95.5067 0 95.58 0C95.6933 0 95.75 0.0933335 95.75 0.28C95.75 0.306667 95.72 0.703334 95.66 1.47C95.6 2.23667 95.57 2.85333 95.57 3.32L95.54 8.43C95.54 9.06333 95.57 9.48667 95.63 9.7C95.69 9.91333 95.8233 10.0533 96.03 10.12C96.0567 10.1267 96.1367 10.1433 96.27 10.17C96.4033 10.19 96.4967 10.2167 96.55 10.25C96.6033 10.2833 96.63 10.3367 96.63 10.41C96.63 10.5233 96.2733 10.61 95.56 10.67C95.4067 10.6767 95.2333 10.7 95.04 10.74C94.84 10.7867 94.7167 10.81 94.67 10.81C94.57 10.81 94.52 10.7567 94.52 10.65ZM92.5 4.88C91.8933 4.88 91.42 5.10333 91.08 5.55C90.7333 5.99 90.56 6.55667 90.56 7.25C90.56 7.94333 90.7767 8.58667 91.21 9.18C91.6433 9.78 92.2 10.08 92.88 10.08C93.3 10.08 93.6833 9.97333 94.03 9.76C94.3767 9.54 94.55 9.27667 94.55 8.97L94.56 6.58C94.56 6.00667 94.43 5.64667 94.17 5.5C93.4767 5.08667 92.92 4.88 92.5 4.88ZM99.67 13.27H99.63L99.03 13.28C98.85 13.28 98.76 13.22 98.76 13.1C98.76 13.0733 98.8667 12.93 99.08 12.67C99.2867 12.41 99.4967 12.0867 99.71 11.7C99.93 11.32 100.04 10.9833 100.04 10.69C100.04 10.3967 99.7733 9.67 99.24 8.51C98.7067 7.35 98.2433 6.40333 97.85 5.67C97.75 5.48333 97.6467 5.33667 97.54 5.23C97.4333 5.13 97.3467 5.07667 97.28 5.07C97.1267 5.05 97.05 4.98 97.05 4.86C97.05 4.73333 97.1433 4.67 97.33 4.67L98.83 4.7L99.63 4.67C99.6967 4.67 99.7567 4.68667 99.81 4.72C99.8567 4.75333 99.88 4.79 99.88 4.83C99.88 4.99667 99.77 5.08 99.55 5.08H99.34C99.1867 5.08 99.11 5.19667 99.11 5.43C99.11 5.71 99.3567 6.38333 99.85 7.45C99.93 7.60333 100.043 7.85333 100.19 8.2C100.47 8.83333 100.637 9.15 100.69 9.15C100.75 9.15 100.967 8.61333 101.34 7.54C101.72 6.46667 101.91 5.83 101.91 5.63C101.91 5.42333 101.867 5.27667 101.78 5.19C101.693 5.11 101.593 5.07 101.48 5.07C101.187 5.08333 101.04 5.00333 101.04 4.83C101.04 4.71667 101.13 4.66 101.31 4.66L102.32 4.67L103.19 4.66C103.383 4.66 103.48 4.72 103.48 4.84C103.48 4.93333 103.397 5 103.23 5.04C103.07 5.08667 102.963 5.14667 102.91 5.22C102.757 5.43333 102.503 6.02 102.15 6.98L100.9 10.3C100.8 10.5733 100.7 10.85 100.6 11.13C100.493 11.4167 100.407 11.65 100.34 11.83C100.28 12.0033 100.217 12.18 100.15 12.36C100.083 12.54 100.03 12.6767 99.99 12.77C99.9567 12.87 99.92 12.9633 99.88 13.05C99.8067 13.1967 99.7367 13.27 99.67 13.27Z" fill="black"/>
</svg>
