<svg width="39.2" height="18.48" viewBox="0 0 39.2 18.48" xmlns="http://www.w3.org/2000/svg"><path transform="translate(0 12.88) scale(.014 -.014)" d="m80-43q-15 0-15 26 0 17 9 21 10 7 27.5 16t42.5 20q17 5 48 15 48 20 84 51 15 11 41 41 8 13 8 30 0 23-9.5 36.5t-23.5 22.5l-28 18q-7 6-18 15t-25 20q-12 5-33 23-19 13-38 53-14 29-21 50t-7 42q0 47 27 78 18 22 39.5 46t46.5 51q38 32 81 42 27 7 54 7 11 0 11-20 0-30-16-30-21 0-45-6-53-14-101-69-7-8-19.5-22.5t-29.5-34.5q-14-26-14-34 0-9 5-27t14-37q15-31 32-48l30-18q10-8 20.5-17t22.5-19q15-10 30-20.5t29-28.5q17-23 17-62 0-38-18-70-13-22-48-53-22-20-44.5-34.5t-45.5-24.5l-50-15-65-33z"/><path transform="translate(4.984 12.88) scale(.014 -.014)" d="m200-311q-21 0-33 28-7 21-9 44-6 207 81 374-9-4-69-50-51-40-69-57-16-19-50-19-18 0-31 19.5t-10 37.5q3 26 21 56.5t44.5 61 57 54 58.5 33.5q11 4 21 6t20 2q43 0 43-30 0-11-10-11-6 0-10 4-20 14-33 14-15 0-44-17-23-14-45-35t-42-47q-19-25-30-44.5t-13-34.5q-1-4-1-10 0-16 13-16 16 0 60 29 105 70 146 124 3 4 7.5 12.5t11.5 21.5q11 24 23 24 8 0 13-8h2q8 0 8-9 0-8-6-22-1-18-16-39-8-14-19.5-36t-26.5-51q-71-163-71-337 0-37 18-37t49 31q4 4 7 4 7 0 7-12t-7-19q-36-39-66-39z"/><path transform="translate(9.506 12.88) scale(.014 -.014)" d="m233 0q-22-1-34 26-2 5-5 17t-8 31q-4 25-13 20-16-25-46-55-38-38-57-38-21 0-36 32-13 25-13 48 0 77 20 135 5 12 15 12 9 0 17-9t8-20q0-6-8-24-19-37-19-83 0-50 19-50 9 0 44 29 62 53 89 138 5 12 16 12 18 0 18-15 0-10-2.5-22t-7.5-27q-4-15-6-27t-2-22q0-7 1-16.5t3-20.5q5-30 11-35 0 0 10.5 5.5t24 12 23 12 9.5 5.5q10 0 10-8t-16.5-23-35.5-27-29-13z"/><path transform="translate(13.65 12.88) scale(.014 -.014)" d="m282-12q-5 0-9 4-27 28-28 82 0 4 1 9.5t1 12.5l1 21v3q0 18-13 13-20-14-53.5-40.5t-80.5-64.5q-20-19-51-19-18 0-30.5 19.5t-9.5 37.5q3 26 21 56.5t44.5 61 57 54 58.5 33.5q11 4 21 6t20 2q43 0 43-30 0-10-8-10-3 0-6 0.5t-6 2.5q-18 15-33 15t-44-18q-23-14-45-35t-42-47q-19-25-30-44.5t-13-34.5q-1-4-1-10 0-16 13-16 16 0 60 29 105 70 146 124 10 13 18 35 5 14 21 14 18 0 18-20 0-16-15-40-24-73-24-101 2-43 21-69 3-3 3-8 0-9-9-18.5t-17-9.5z"/><path transform="translate(18.802 12.88) scale(.014 -.014)" d="m56 7q-10 0-13 23.5t-3 48.5q0 16 0.5 29.5t0.5 20.5q0 10 1 25.5t3 35.5q3 41 3 62 0 10-1 19.5t-1 17.5v4q0 12 13 12 10 0 11-12 2-11 3-45t2-90q0-15 6-15 7 0 21 23 29 48 63 81 25 23 46 23 25 0 43-22 6-7 6-15 0-13-11-13-4 0-9 3l-1-1q-19 14-25 14-24 0-45-26-73-90-90-182-4-21-23-21z"/><path transform="translate(22.274 12.88) scale(.014 -.014)" d="m125-21q-44 0-71.5 27t-27.5 73q0 10 1.5 20t3.5 20q11 43 61 92 56 53 97 53 34 0 32-38-1-49-54-96-23-19-47.5-35t-51.5-16h-1q3-65 67-65 21 0 47 10 2 1 6 1 13 0 13-13 0-9-9-14-28-19-66-19zm-31 147q31 7 53 26 39 33 39 63v2q0 7-5 11t-7 2q-31 0-66-45-5-7-12-18.5t-15-27.5q-1-2-1-4 0-9 14-9z"/><path transform="translate(27.944 12.88) scale(.014 -.014)" d="m108 227q-7 6-7 19 0 17 14 29l37 32q14 9 34.5 25t48.5 38q15 13 29 26.5t23 32.5q7 14 9 22t2 12q0 6-5 14.5t-7 14.5q-7 9-19 13-21 6-26 9-7 4-18.5 10.5t-26.5 15.5q-17 7-41.5 18.5t-55.5 27.5q-5 6-14 13.5t-21 17.5q-4 4-4 13 0 11 6 21.5t13 10.5q4 0 7-3l1-1q9-8 28-25 9-6 20-11.5t24-10.5q8-4 20-10t28-15q8-4 19.5-10.5t27.5-16.5l25-8q9-3 17-8.5t13-14.5q23-29 23-65 0-32-19-64-16-28-60-69-19-19-45-36-22-14-32.5-21t-20-16-31.5-29q-8-7-16-1zm-59-294q-6 0-10 7-15 33-15 78 0 16 3 47 1 15 1.5 26t0.5 18q0 22 2 44.5t5 46.5l11 87q4 28 10 73.5t13 108.5q4 34 6 61 1 25 18 25 19 0 19-27-2-10-5.5-25.5t-7.5-37.5l-19-181q-3-27-8-69t-9-101l-3-51q-1-14-1.5-24t-0.5-15q0-29 11-51 2-6 2-10 0-11-7.5-20.5t-15.5-9.5z"/><path transform="translate(31.976 12.88) scale(.014 -.014)" d="m125-21q-44 0-71.5 27t-27.5 73q0 10 1.5 20t3.5 20q11 43 61 92 56 53 97 53 34 0 32-38-1-49-54-96-23-19-47.5-35t-51.5-16h-1q3-65 67-65 21 0 47 10 2 1 6 1 13 0 13-13 0-9-9-14-28-19-66-19zm-31 147q31 7 53 26 39 33 39 63v2q0 7-5 11t-7 2q-31 0-66-45-5-7-12-18.5t-15-27.5q-1-2-1-4 0-9 14-9z"/><path transform="translate(35.266 12.88) scale(.014 -.014)" d="m18-393q-64 0-64 92 0 57 40 124 17 28 37 54t45 49l108 104q1 21 1.5 34.5t0.5 20.5q-12-14-47-31-39-19-71-19-22 0-34.5 16.5t-12.5 39.5q0 34 17.5 69t49.5 72q63 74 126 74 15 0 15-16t-15-16q-51 0-96-46-40-41-62-102-4-9-4-20 0-37 30-37 8 0 15 3 97 30 120 158 3 14 17 14 13 0 13-11 0-2-0.5-4.5t-1.5-5.5q-3-10-6.5-30t-6.5-42-5-39.5-2-23.5q0-12 10-12 6 0 10 4 9 5 29 19 10 7 17 7 8 0 8-12 0-11-10-15-14-7-31.5-19.5t-37.5-29.5q-5-52-9.5-90t-9.5-64q-18-103-57-173-52-96-126-96zm-8 32q132 0 166 310 0 3 0.5 6t0.5 5q0 19-9 19-7 0-19-12-10-10-20.5-19t-27.5-25q-49-46-84-105-43-68-43-120 0-59 36-59z"/></svg>