<svg width="52.514" height="24.78" viewBox="0 0 52.514 24.78" xmlns="http://www.w3.org/2000/svg"><path transform="translate(0 17.08) scale(.014 -.014)" d="m361 568q-59 0-92-33t-33-83q0-31 22.5-47.5t69.5-36.5l36-15 30-14q54-24 85.5-43.5t53.5-53.5 22-87q0-57-37.5-98.5t-104.5-63-156-21.5q-66 0-123.5 20.5t-91 51.5-33.5 61q0 29 25 47.5t71 25.5q5-29 34-52t67.5-36.5 67.5-13.5q53 0 94.5 21t41.5 58q0 31-29.5 51.5t-88.5 44.5l-53 24q-65 32-103 72t-38 106q0 73 41 118.5t99.5 65.5 114.5 20q89 0 146.5-23t83.5-58 26-72q0-21-10.5-51t-31-52-49.5-22q-50 0-50 52 2 16 9 52.5t10 43.5q-5 16-38.5 28.5t-87.5 12.5z"/><path transform="translate(8.792 17.08) scale(.014 -.014)" d="m72-17q-33 0-48 7t-15 30l48 191q40 165 53 210l-25 30q-3 3-3 7 0 10 22 16.5t61 6.5q35 0 47-19.5t15-50.5l-7-26q32 39 74.5 64.5t75.5 25.5q43 0 67-15t24-39q0-21-14.5-43.5t-36.5-38-43-17.5q-20 0-27 5t-7 15l6 33q-80-22-145-106l-58-231q-1-6-4.5-23.5t-17-24.5-42.5-7z"/><path transform="translate(14.532 17.08) scale(.014 -.014)" d="m209 673q37 0 64.5-23t27.5-52-28-50-65-21q-36 0-54.5 18.5t-18.5 48.5q0 31 19.5 55t54.5 24zm-50-581q-4-16-4-35l1-28q0-17-10.5-24t-44.5-8q-33 0-50 7t-17 30q0 11 25.5 117t69.5 276l-23 30q-3 3-3 7 0 10 22 16.5t61 6.5q34 0 43.5-19.5t10.5-50.5q-53-216-81-325z"/><path transform="translate(18.396 17.08) scale(.014 -.014)" d="m72-17q-33 0-48 7t-15 30l48 191q40 165 53 210l-25 30q-3 3-3 7 0 10 22 16.5t61 6.5q35 0 47-19.5t15-50.5l-7-26q32 39 74.5 64.5t75.5 25.5q43 0 67-15t24-39q0-21-14.5-43.5t-36.5-38-43-17.5q-20 0-27 5t-7 15l6 33q-80-22-145-106l-58-231q-1-6-4.5-23.5t-17-24.5-42.5-7z"/><path transform="translate(24.136 17.08) scale(.014 -.014)" d="m409 5q-2-6-17.5-12t-26.5-6q-36 0-51.5 10.5t-15.5 31.5q0 20 4 40-22-30-64.5-49.5t-68.5-19.5q-67 0-111.5 39t-44.5 125q0 81 38.5 152.5t106.5 115 151 43.5q16 0 42-8.5t52.5-29 44.5-52.5q8 0 19-8t11-16q0-9-3-18l-73-291q2-26 7-47zm-107 379q-46 0-86.5-32.5t-65.5-80.5-25-91q0-42 10-69t39-27q25 0 57.5 15t58 40.5 33.5 53.5l34 139q-6 22-23.5 37t-31.5 15z"/><path transform="translate(31.164 17.08) scale(.014 -.014)" d="m202-21q-98 0-145 40.5t-47 105.5q0 94 48 174.5t129 127.5 173 47q57 0 94.5-33.5t37.5-90.5q0-22-18-36.5t-48-14.5q-24 0-32.5 11t-8.5 29l1 23q0 12-13 19.5t-28 7.5q-31 0-83.5-37t-92-97.5-39.5-129.5q0-28 22-43t65-15q27 0 62 11t44 28q34 62 62 62 41 0 55.5-15.5t15.5-34.5q-12-32-47-64.5t-89-53.5-118-21z"/><path transform="translate(38.15 17.08) scale(.014 -.014)" d="m388 473q52 0 75-19.5t23-61.5q-59-154-78-332l14-49q-12-23-32-36.5t-61-13.5q-24 0-35 16t-11 40q0 67 19.5 147.5t45.5 164.5q10 32 10 33 0 14-16 14-21 0-61-31t-83-104.5-72-192.5q-1-5-5-21t-18-23-43-7q-35 0-54 7.5t-19 29.5q131 515 162 644-1 13-1.5 34.5t-0.5 33.5q3 14 21.5 21.5t37.5 7.5q32 0 54-17t24-43l-111-385q23 45 63.5 77t82.5 49 69 17z"/><path transform="translate(45.486 17.08) scale(.014 -.014)" d="m409 5q-2-6-17.5-12t-26.5-6q-36 0-51.5 10.5t-15.5 31.5q0 20 4 40-22-30-64.5-49.5t-68.5-19.5q-67 0-111.5 39t-44.5 125q0 81 38.5 152.5t106.5 115 151 43.5q16 0 42-8.5t52.5-29 44.5-52.5q8 0 19-8t11-16q0-9-3-18l-73-291q2-26 7-47zm-107 379q-46 0-86.5-32.5t-65.5-80.5-25-91q0-42 10-69t39-27q25 0 57.5 15t58 40.5 33.5 53.5l34 139q-6 22-23.5 37t-31.5 15z"/></svg>