<svg width="88.55" height="14" viewBox="0 0 88.55 14" xmlns="http://www.w3.org/2000/svg"><path transform="translate(0 10.668) scale(.014 -.014)" d="m75-15h-31l-9 216h31q18-69 42-105.5t59.5-50 86.5-13.5q38 0 65 10.5t42 34 15 61.5q0 44-24.5 73t-62.5 51.5-79 45.5q-40 23-77 49t-60.5 62-23.5 88q0 53 26 88.5t69 54.5 95 19q46 0 71-7.5t39.5-15.5 26.5-8 19.5 6.5 11.5 22.5h26l7-200h-30q-21 83-56 123t-111 39q-51 0-79-23.5t-28-70.5q0-37 21-63.5t55-47.5 71-43q33-19 66.5-38t61-43 44-56 16.5-77q0-58-26.5-98t-72.5-60.5-104-20.5q-52 0-84.5 7.5t-51 15-30.5 7.5q-10 0-18-9t-9-24z"/><path transform="translate(7.056 10.668) scale(.014 -.014)" d="m447 0h-290v30q42 0 63 6.5t28 28 7 66.5v481h-64q-55 0-82.5-11t-39.5-40-23-84h-31l11 180h553l8-180h-31q-11 55-23 84t-39 40-83 11h-63v-481q0-45 7-66.5t28-28 64-6.5z"/><path transform="translate(15.498 10.668) scale(.014 -.014)" d="m322 0h-288v30q45 0 66 7.5t27 29 6 64.5v394q0 39-5 61.5t-25.5 31.5-68.5 9v30h288v-30q-47 0-68-9t-25.5-31.5-4.5-61.5v-394q0-43 6-64.5t27-29 65-7.5z"/><path transform="translate(20.496 10.668) scale(.014 -.014)" d="m660 0h-280v29h10q29 0 41 6t12 22-8 35-28 50l-63 99-35 60-16 17-149 224q-24 35-39.5 53.5t-34 25-53.5 6.5v30h278v-30h-11q-28 0-40-6.5t-12-22.5q0-12 9.5-29t23.5-38 26-45l62-104 15-16 189-277q25-36 45.5-47.5t57.5-12.5zm-437 0h-221v29q27 1 44 7.5t33.5 23.5 40.5 48l174 229 33-46h-14l-121-171q-10-13-21.5-31t-11.5-32q0-13 12-20.5t52-7.5zm290 538-146-190-31 43h13l105 151q12 20 19.5 35t7.5 27q0 11-11.5 17t-47.5 6v30h230v-30q-32-1-52.5-8t-39.5-25.5-47-55.5z"/><path transform="translate(33.082 10.668) scale(.014 -.014)" d="m447 0h-290v30q42 0 63 6.5t28 28 7 66.5v481h-64q-55 0-82.5-11t-39.5-40-23-84h-31l11 180h553l8-180h-31q-11 55-23 84t-39 40-83 11h-63v-481q0-45 7-66.5t28-28 64-6.5z"/><path transform="translate(41.524 10.668) scale(.014 -.014)" d="m539-6h-48l-111 305-14 28-16 44q-12 33-22.5 48.5t-24.5 20-36 4.5v29h209v-29q-28 0-39-6.5t-11-18.5q0-9 2.5-19.5t6.5-21.5l81-219 18-58h6l20 58 79 224q1 4 3.5 13.5t2.5 22.5q0 14-14 19.5t-42 5.5v29h173v-29q-29 0-44-13.5t-30-52.5zm-275 0h-46l-150 377q-13 31-24 46.5t-25 21-36 5.5v29h215v-29q-30 0-41.5-6.5t-11.5-18.5q0-10 3.5-19t7.5-20l87-221 18-58h7l21 58 76 192 33-66h-17z"/><path transform="translate(52.01 10.668) scale(.014 -.014)" d="m258-10q-105 0-164.5 65.5t-59.5 186.5q0 73 28 127.5t78.5 85 117.5 30.5q103 0 162.5-64t59.5-175q0-84-28.5-141t-78.5-86-115-29zm4 40q41 0 69 19t42.5 65 14.5 127q0 92-33.5 149t-100.5 57q-57 0-92-48t-35-144q0-119 35.5-172.5t99.5-52.5z"/><path transform="translate(62.496 10.668) scale(.014 -.014)" d="m447 0h-290v30q42 0 63 6.5t28 28 7 66.5v481h-64q-55 0-82.5-11t-39.5-40-23-84h-31l11 180h553l8-180h-31q-11 55-23 84t-39 40-83 11h-63v-481q0-45 7-66.5t28-28 64-6.5z"/><path transform="translate(70.938 10.668) scale(.014 -.014)" d="m247-10q-60 0-108.5 28.5t-76.5 84-28 135.5q0 84 28.5 138.5t76.5 81.5 106 27q82 0 132-57t54-162h-325l-1 37h232q-1 37-13 69.5t-35 52.5-59 20q-58 0-87-45.5t-29-128.5q0-69 22-115t58-68.5 77-22.5 66.5 11 43.5 28.5 34 38.5l19-14q-13-28-30-53.5t-38.5-44.5-50.5-30-68-11z"/><path transform="translate(77.434 10.668) scale(.014 -.014)" d="m482 0h-209v29q26 0 36.5 4.5t10.5 17.5q0 10-7 21l-63 97-25 44-16 14-110 157q-17 25-29 38t-25 17.5-34 4.5v29h215v-28q-48 0-48-23 0-8 6-19t17.5-28.5 28.5-45.5l28-52 16-9 128-181q21-30 36.5-44t43.5-14zm-317 0h-167v29q26 0 43 10.5t42 39.5l126 164 31-39h-14l-82-118q-7-12-15.5-24t-8.5-18q0-8 10-11.5t35-3.5zm220 397-111-143-29 31h13l47 68q20 28 28 42t8 26q0 11-8.5 17.5t-32.5 6.5v28h165v-29q-25 0-44-12.5t-36-34.5z"/><path transform="translate(84.14 10.668) scale(.014 -.014)" d="m293 90 19-16q-19-27-35.5-45.5t-36.5-28.5-52-10q-50 0-73 29.5t-23 96.5v310h-55v23q35 22 60.5 59.5t52.5 101.5h25v-142h113v-42h-113v-282q0-53 9.5-74t38.5-21q24 0 37.5 10t32.5 31z"/></svg>