<svg width="75.045" height="27.289" viewBox="0 0 75.045 27.289" xmlns="http://www.w3.org/2000/svg"><path transform="translate(0 18.621) scale(.013672 -.013672)" d="m209 931q100 0 142-120 6-12 6-35 0-25-31-28-27 0-34 66-34 57-76 57h-14q-61 0-72-120v-3q0-144 183-435 57-111 57-186 0-102-104-158l-35-6q-92 0-176 126-16 28-16 60 0 51 35 57h9q22-15 22-28l-6-29v-2q0-65 107-120l19-4h9q52 0 76 89v12q0 107-139 315-100 197-100 309 0 126 97 176z"/><path transform="translate(5.4141 18.621) scale(.013672 -.013672)" d="m233 335q32 0 32-70 0-80 11-194 32-14 32-34v-4q0-25-34-31-22 0-38 42-42-55-82-55-89 3-114 89-9 96-9 204v19q0 35 32 35 23 0 28-38v-16q-20-238 63-227 55 37 57 97v28l-12 91v10q0 54 34 54z"/><path transform="translate(9.748 18.621) scale(.013672 -.013672)" d="m122 357q56 0 76-101-26-113-107-113h-4v-3q16-91 85-91 53 0 86 91l22 9q22 0 28-34 0-62-97-117l-48-9q-86 0-129 123-12 49-12 81v13q0 102 85 148zm-37-126v-2l22-23q15 0 28 41v16q-5 31-13 31h-6q-15 0-31-63z"/><path transform="translate(17.65 18.621) scale(.013672 -.013672)" d="m80 958q25 0 29-38h-3l3-10q34 0 189 21 25-9 25-31 0-32-135-41l-88-12v-44q0-47 38-381h128q26 0 32-29 0-31-47-31h-113v-4l-3-207q0-74 15-108l198 13q32-4 32-28 0-32-70-32-180-10-180-19-36 0-50 110l-5 76 2 227-37 413v31q0 124 37 124z"/><path transform="translate(23.229 18.621) scale(.013672 -.013672)" d="m82 886q15-1 28-25-7-11-9-40l-1-13 6-394q-5-268 6-393l2-8q-9-19-29-18-45 3-36 124-6 66-6 607-6 33-3 87v4q5 71 42 69z"/><path transform="translate(25.566 18.621) scale(.013672 -.013672)" d="m82 886q15-1 28-25-7-11-9-40l-1-13 6-394q-5-268 6-393l2-8q-9-19-29-18-45 3-36 124-6 66-6 607-6 33-3 87v4q5 71 42 69z"/><path transform="translate(27.904 18.621) scale(.013672 -.013672)" d="m122 357q56 0 76-101-26-113-107-113h-4v-3q16-91 85-91 53 0 86 91l22 9q22 0 28-34 0-62-97-117l-48-9q-86 0-129 123-12 49-12 81v13q0 102 85 148zm-37-126v-2l22-23q15 0 28 41v16q-5 31-13 31h-6q-15 0-31-63z"/><path transform="translate(32.307 18.621) scale(.013672 -.013672)" d="m200 354q101-8 82-243l-8-89q-6-36-35-34-27 2-24 36l7 97q14 171-30 174-47 4-68-178l4-108q-2-21-34-22-37 3-28 106l-24 229q2 23 37 25 21-1 25-45l4-1q45 56 92 53z"/><path transform="translate(40.182 18.621) scale(.013672 -.013672)" d="m66 916q22 0 28-38h176q35 0 35-34-6-26-38-26h-164l32-311h91q35 0 35-35-6-25-38-25h-82v-3q28-300 28-368v-61q0-38-28-38h-13q-18 12-18 28v48q0 173-76 838 7 25 32 25z"/><path transform="translate(44.83 18.621) scale(.013672 -.013672)" d="m40 402q27 0 41-65h3q38 45 82 45 72-13 72-45-9-28-31-28l-38 12h-10q-59-11-59-243v-47q-6-31-28-31-32 0-32 38v116q0 128-32 224 8 24 32 24z"/><path transform="translate(48.248 18.621) scale(.013672 -.013672)" d="m191 335 60-10v3q22 0 34-35l-3-63v-44q0-97 28-145-8-25-31-25-33 0-48 76l-2 16h-9q-36-85-102-113l-15-4q-86 24-86 126v6q0 127 123 202zm-114-231q7-50 32-50h3q35 0 110 211v3l-29 6h-2q-80 0-114-138z"/><path transform="translate(52.65 18.621) scale(.013672 -.013672)" d="m200 354q101-8 82-243l-8-89q-6-36-35-34-27 2-24 36l7 97q14 171-30 174-47 4-68-178l4-108q-2-21-34-22-37 3-28 106l-24 229q2 23 37 25 21-1 25-45l4-1q45 56 92 53z"/><path transform="translate(57.025 18.621) scale(.013672 -.013672)" d="m187 394q25 0 25-59l9-85q0-22-34-29-21 0-54 91l-3 4h-7q-39 0-44-111v-15q0-113 73-133h19q31 0 94 55h7v2q31-9 31-35-22-40-94-72l-48-12q-94 0-135 144l-6 54v6q0 153 92 177h9l31-3q14 21 35 21z"/><path transform="translate(61.387 18.621) scale(.013672 -.013672)" d="m87 508q26 0 32-34 0-16-22-31h-10q-28 0-28 34 8 31 28 31zm7-135q34-5 19-101-12-79-4-265-15-29-39-25-28 4-23 99-2 166 17 278 2 15 30 14z"/><path transform="translate(63.574 18.621) scale(.013672 -.013672)" d="m157 380q52 0 63-44 0-21-28-26h-9q-13 9-23 9h-9q-66-28-66-84v-9q5-33 31-33h9l69 13q51-6 51-50 0-65-79-139-37-28-75-28-69 15-69 57 10 25 34 25l31-22h16q73 28 73 91l-4 4q-25-9-56-9-74 0-91 96 0 87 97 142z"/><path transform="translate(67.129 18.621) scale(.013672 -.013672)" d="m187 394q25 0 25-59l9-85q0-22-34-29-21 0-54 91l-3 4h-7q-39 0-44-111v-15q0-113 73-133h19q31 0 94 55h7v2q31-9 31-35-22-40-94-72l-48-12q-94 0-135 144l-6 54v6q0 153 92 177h9l31-3q14 21 35 21z"/><path transform="translate(71.49 18.621) scale(.013672 -.013672)" d="m144 345q86-31 91-190v-6q-4-133-69-163l-28-4q-107 26-107 161v3q0 146 94 195zm-54-190v-22q11-94 58-94 27 30 27 116v6q-5 107-34 117-51-23-51-123z"/></svg>