<svg width="79" height="13" viewBox="0 0 79 13" fill="none" xmlns="http://www.w3.org/2000/svg">
<path d="M5.88 2.75V2.73C5.83333 2.37667 5.72 2.07 5.54 1.81C5.17333 1.25 4.57 0.97 3.73 0.97C3.03 0.97 2.52333 1.12667 2.21 1.44C1.91667 1.74 1.77 2.14667 1.77 2.66C1.77 3.23333 1.93 3.62667 2.25 3.84C2.57 4.05333 3.01333 4.18333 3.58 4.23C4.12 4.27667 4.57667 4.35 4.95 4.45C5.32333 4.54333 5.63667 4.67667 5.89 4.85C6.55 5.25667 6.88 5.9 6.88 6.78C6.88 7.12667 6.81333 7.45333 6.68 7.76C6.54667 8.06667 6.35333 8.34 6.1 8.58C5.53333 9.14 4.75333 9.42 3.76 9.42C2.76 9.42 1.97333 9.14667 1.4 8.6C0.9 8.14 0.6 7.52333 0.5 6.75H1.47C1.55 7.21667 1.74333 7.6 2.05 7.9C2.45667 8.27333 3.03333 8.46 3.78 8.46C4.41333 8.46 4.92667 8.30333 5.32 7.99C5.72 7.67667 5.92 7.27333 5.92 6.78C5.92 6.46 5.85667 6.19667 5.73 5.99C5.60333 5.77667 5.36333 5.60667 5.01 5.48C4.65667 5.34667 4.15333 5.25333 3.5 5.2C1.70667 5.04 0.81 4.19333 0.81 2.66C0.81 2.28 0.873333 1.93 1 1.61C1.12667 1.28333 1.30667 1.00333 1.54 0.77C2.05333 0.256667 2.78 0 3.72 0H3.73C4.69667 0.0133333 5.43333 0.276667 5.94 0.79C6.44667 1.31 6.74667 1.96333 6.84 2.75H5.88ZM10.65 9.4C10.1433 9.4 9.68 9.27667 9.26 9.03C8.83333 8.77667 8.49333 8.44 8.24 8.02C7.98667 7.59333 7.86 7.12667 7.86 6.62V2.34H8.83V6.62C8.83 6.94667 8.91333 7.25 9.08 7.53C9.24 7.81 9.46 8.03333 9.74 8.2C10.02 8.36 10.3233 8.44 10.65 8.44C10.9767 8.44 11.28 8.36 11.56 8.2C11.84 8.03333 12.0633 7.81 12.23 7.53C12.39 7.25 12.47 6.94667 12.47 6.62V2.34H13.42V9.27H12.47V8.6C12.2367 8.86 11.9633 9.05667 11.65 9.19C11.3367 9.33 11.0033 9.4 10.65 9.4ZM14.82 0.0300002H15.77V9.34H14.82V0.0300002ZM18.13 12.32H17.17V2.52H18.13V3.68C18.4567 3.22667 18.8367 2.88333 19.27 2.65C19.71 2.42333 20.1933 2.31 20.72 2.31C21.3533 2.31 21.94 2.47 22.48 2.79C23.02 3.10333 23.45 3.53333 23.77 4.08C24.0833 4.62 24.24 5.20667 24.24 5.84C24.24 6.47333 24.0833 7.06 23.77 7.6C23.45 8.14667 23.02 8.57667 22.48 8.89C21.94 9.21 21.3533 9.37 20.72 9.37C20.0533 9.37 19.5067 9.23333 19.08 8.96C18.6467 8.68 18.33 8.38333 18.13 8.07V12.32ZM20.72 3.28C20.2533 3.28 19.8233 3.39333 19.43 3.62C19.0367 3.84667 18.7233 4.15667 18.49 4.55C18.2567 4.94333 18.14 5.37333 18.14 5.84C18.14 6.30667 18.2567 6.73667 18.49 7.13C18.7233 7.52333 19.0367 7.83667 19.43 8.07C19.8233 8.30333 20.2533 8.42 20.72 8.42C21.1867 8.42 21.6133 8.30333 22 8.07C22.3933 7.83667 22.7067 7.52333 22.94 7.13C23.1667 6.73667 23.28 6.30667 23.28 5.84C23.28 5.37333 23.1667 4.94333 22.94 4.55C22.7067 4.15667 22.3933 3.84667 22 3.62C21.6133 3.39333 21.1867 3.28 20.72 3.28ZM28.29 2.28C28.7967 2.28 29.26 2.40333 29.68 2.65C30.1067 2.90333 30.4433 3.24 30.69 3.66C30.9367 4.08667 31.06 4.55333 31.06 5.06V9.34H30.1V5.06C30.1 4.73333 30.0167 4.43 29.85 4.15C29.69 3.87 29.47 3.64667 29.19 3.48C28.9167 3.32 28.6167 3.24 28.29 3.24C27.9633 3.24 27.66 3.32 27.38 3.48C27.1 3.64667 26.88 3.87 26.72 4.15C26.5533 4.43 26.47 4.73333 26.47 5.06V9.34H25.5V0H26.47V3.07C26.6967 2.81 26.9667 2.61333 27.28 2.48C27.5867 2.34667 27.9233 2.28 28.29 2.28ZM35.11 9.4C34.6033 9.4 34.14 9.27667 33.72 9.03C33.2933 8.77667 32.9533 8.44 32.7 8.02C32.4467 7.59333 32.32 7.12667 32.32 6.62V2.34H33.29V6.62C33.29 6.94667 33.37 7.25 33.53 7.53C33.6967 7.81 33.92 8.03333 34.2 8.2C34.48 8.36 34.7833 8.44 35.11 8.44C35.4367 8.44 35.74 8.36 36.02 8.2C36.3 8.03333 36.52 7.81 36.68 7.53C36.8467 7.25 36.93 6.94667 36.93 6.62V2.34H37.88V9.27H36.93V8.6C36.6967 8.86 36.4233 9.05667 36.11 9.19C35.7967 9.33 35.4633 9.4 35.11 9.4ZM42.49 3.38C42.27 3.28667 42.0533 3.24 41.84 3.24C41.4 3.24 41.0233 3.39667 40.71 3.71C40.39 4.03 40.23 4.41 40.23 4.85V9.34H39.28V4.85C39.28 4.34333 39.4133 3.88333 39.68 3.47C39.9467 3.05 40.2933 2.74 40.72 2.54L40.75 2.52C41.0967 2.36 41.46 2.28 41.84 2.28C42.44 2.28 42.9733 2.46333 43.44 2.83L42.49 3.38ZM53.6 0.0300002C54.14 0.0300002 54.64 0.166667 55.1 0.44C55.56 0.706667 55.9233 1.07 56.19 1.53C56.4633 1.98333 56.6 2.47667 56.6 3.01C56.6 3.54333 56.4633 4.04 56.19 4.5C55.9233 4.95333 55.56 5.31333 55.1 5.58C54.64 5.84667 54.14 5.98 53.6 5.98H51.96V9.34H51V0.0300002H53.6ZM53.6 5.04C53.9667 5.04 54.3067 4.95 54.62 4.77C54.9333 4.59 55.18 4.34333 55.36 4.03C55.54 3.71667 55.63 3.37667 55.63 3.01C55.63 2.65 55.54 2.31333 55.36 2C55.18 1.69333 54.9333 1.45 54.62 1.27C54.3067 1.09 53.9667 1 53.6 1H51.96V5.04H53.6ZM60.7 9.41C60.0667 9.41 59.4767 9.25 58.93 8.93C58.3833 8.61667 57.95 8.18667 57.63 7.64C57.3167 7.09333 57.16 6.50333 57.16 5.87C57.16 5.22333 57.3167 4.62667 57.63 4.08C57.95 3.53333 58.3833 3.1 58.93 2.78C59.4767 2.46 60.0667 2.3 60.7 2.3C61.3467 2.3 61.94 2.46 62.48 2.78C63.0267 3.1 63.4633 3.53333 63.79 4.08C64.11 4.62667 64.27 5.22333 64.27 5.87C64.27 6.50333 64.11 7.09333 63.79 7.64C63.4633 8.18667 63.0267 8.61667 62.48 8.93C61.94 9.25 61.3467 9.41 60.7 9.41ZM60.7 8.47C61.1733 8.47 61.61 8.35333 62.01 8.12C62.4033 7.88667 62.7167 7.57 62.95 7.17C63.1833 6.77 63.3 6.33667 63.3 5.87C63.3 5.39 63.1833 4.95 62.95 4.55C62.7167 4.15 62.4033 3.83333 62.01 3.6C61.61 3.36667 61.1733 3.25 60.7 3.25C60.2333 3.25 59.8 3.36667 59.4 3.6C59.0067 3.83333 58.6933 4.15 58.46 4.55C58.2267 4.95 58.11 5.39 58.11 5.87C58.11 6.33667 58.2267 6.77 58.46 7.17C58.6933 7.57 59.0067 7.88667 59.4 8.12C59.8 8.35333 60.2333 8.47 60.7 8.47ZM66.16 0.39C66.3267 0.39 66.47 0.453333 66.59 0.58C66.7167 0.7 66.78 0.843334 66.78 1.01C66.78 1.19 66.7167 1.34 66.59 1.46C66.47 1.58 66.3267 1.64 66.16 1.64C65.98 1.64 65.83 1.58 65.71 1.46C65.59 1.34 65.53 1.19 65.53 1.01C65.53 0.843334 65.59 0.7 65.71 0.58C65.83 0.453333 65.98 0.39 66.16 0.39ZM65.67 2.34H66.64V9.34H65.67V2.34ZM70.95 2.34C71.45 2.34 71.9133 2.46333 72.34 2.71C72.7667 2.95667 73.1067 3.29333 73.36 3.72C73.6067 4.14667 73.73 4.61 73.73 5.11V9.34H72.77V5.11C72.77 4.78333 72.6867 4.48333 72.52 4.21C72.36 3.93667 72.14 3.71667 71.86 3.55C71.58 3.39 71.2767 3.31 70.95 3.31C70.6233 3.31 70.32 3.39 70.04 3.55C69.76 3.71667 69.5367 3.93667 69.37 4.21C69.21 4.48333 69.13 4.78333 69.13 5.11V9.34H68.18V2.52H69.13V3.14C69.3633 2.88 69.6367 2.68 69.95 2.54C70.2633 2.40667 70.5967 2.34 70.95 2.34ZM78.14 2.34V3.29H76.98V9.34H76.02V3.29H74.85V2.34H76.02V0.0300002H76.98V2.34H78.14Z" fill="black"/>
</svg>
