<svg width="46" height="10" viewBox="0 0 46 10" fill="none" xmlns="http://www.w3.org/2000/svg">
<path d="M4.91 0.36L5.72 0H5.95V2.28H5.72L4.93 0.66C4.38333 0.4 3.78667 0.27 3.14 0.27C2.49333 0.27 1.98333 0.43 1.61 0.75C1.23667 1.07667 1.05 1.47333 1.05 1.94C1.05 2.40667 1.18333 2.75333 1.45 2.98C1.71 3.20667 2.09333 3.38667 2.6 3.52L4.59 4.05C5.23667 4.21 5.71667 4.48667 6.03 4.88C6.33667 5.27333 6.49 5.87333 6.49 6.68C6.49 7.49333 6.23667 8.13333 5.73 8.6C5.22333 9.07333 4.58333 9.31 3.81 9.31C3.03667 9.31 2.32 9.10667 1.66 8.7L0.73 9.19H0.5V6.35H0.73L1.68 8.4C2.29333 8.82667 2.95667 9.04 3.67 9.04C4.39 9.04 4.96333 8.87333 5.39 8.54C5.81667 8.20667 6.03 7.72333 6.03 7.09C6.03 6.63667 5.89333 6.28 5.62 6.02C5.35333 5.76 4.91 5.55333 4.29 5.4L2.45 4.93C1.81667 4.76333 1.33667 4.47333 1.01 4.06C0.683333 3.64667 0.52 3.16667 0.52 2.62C0.52 1.82667 0.75 1.19333 1.21 0.72C1.67 0.24 2.27 0 3.01 0C3.75 0 4.38333 0.12 4.91 0.36ZM7.12 3.35H9.02V7.59C9.02 8.39 9.33333 8.79 9.96 8.79C10.5933 8.79 11.2033 8.40333 11.79 7.63V3.68L11 3.57V3.35H12.88V8.76L13.67 8.85V9.08H11.79V8.02C11.2033 8.8 10.4833 9.19 9.63 9.19C9.09667 9.19 8.67667 9.05667 8.37 8.79C8.06333 8.53 7.91 8.13667 7.91 7.61V3.68L7.12 3.57V3.35ZM16.92 9.08H14.16V8.85L14.93 8.76V3.68L14.16 3.57V3.35H16.04V4.2C16.5067 3.56667 17.0333 3.25 17.62 3.25C17.8933 3.25 18.14 3.32 18.36 3.46C18.5733 3.60667 18.68 3.79667 18.68 4.03C18.68 4.26333 18.6133 4.44333 18.48 4.57C18.3533 4.69 18.1767 4.75 17.95 4.75C17.73 4.75 17.5533 4.66333 17.42 4.49C17.5067 4.37667 17.5467 4.26 17.54 4.14C17.5333 4.02 17.49 3.92 17.41 3.84C17.3233 3.75333 17.2067 3.71 17.06 3.71C16.7733 3.71 16.4333 4.01 16.04 4.61V8.76L16.92 8.85V9.08ZM22.75 7.99C22.5633 8.37 22.29 8.66333 21.93 8.87C21.57 9.08333 21.16 9.19 20.7 9.19C20.24 9.19 19.8633 9.06667 19.57 8.82C19.2767 8.57333 19.13 8.23667 19.13 7.81C19.13 7.37667 19.22 7.03333 19.4 6.78C19.9 6.12667 20.8867 5.8 22.36 5.8H22.75V4.72C22.75 3.90667 22.38 3.5 21.64 3.5C21.3067 3.5 21.0333 3.57667 20.82 3.73C20.6133 3.88333 20.51 4.06333 20.51 4.27C20.51 4.47 20.6067 4.6 20.8 4.66C20.8 4.85333 20.73 5.02 20.59 5.16C20.4567 5.29333 20.2933 5.36 20.1 5.36C19.92 5.36 19.76 5.29333 19.62 5.16C19.4867 5.02 19.42 4.85 19.42 4.65C19.42 4.26333 19.6333 3.93333 20.06 3.66C20.4933 3.38667 21.02 3.25 21.64 3.25C23.14 3.25 23.8833 3.81667 23.87 4.95V8.34C23.87 8.68 24.0067 8.85 24.28 8.85C24.5533 8.85 24.69 8.68667 24.69 8.36H24.93C24.93 8.61333 24.8433 8.81333 24.67 8.96C24.5033 9.11333 24.26 9.19 23.94 9.19C23.6133 9.19 23.3367 9.09 23.11 8.89C22.8833 8.69667 22.7633 8.39667 22.75 7.99ZM22.75 7.2V6.06H22.36C21.7867 6.06 21.3033 6.2 20.91 6.48C20.5233 6.75333 20.33 7.16667 20.33 7.72C20.33 8.01333 20.41 8.24667 20.57 8.42C20.7367 8.58667 20.98 8.67 21.3 8.67C21.6267 8.67 21.9367 8.53667 22.23 8.27C22.53 8.01 22.7033 7.65333 22.75 7.2ZM29.81 8.76V4.86C29.81 4.04667 29.4967 3.64 28.87 3.64C28.2367 3.64 27.6267 4.07 27.04 4.93V8.76L27.71 8.85V9.08H25.16V8.85L25.93 8.76V3.68L25.16 3.57V3.35H27.04V4.54C27.64 3.68 28.36 3.25 29.2 3.25C29.7267 3.25 30.1433 3.38333 30.45 3.65C30.7633 3.91667 30.92 4.31 30.92 4.83V8.76L31.67 8.85V9.08H29.14V8.85L29.81 8.76ZM36.79 8.76V4.86C36.79 4.04667 36.4767 3.64 35.85 3.64C35.2233 3.64 34.6167 4.07 34.03 4.93V8.76L34.69 8.85V9.08H32.14V8.85L32.91 8.76V3.68L32.14 3.57V3.35H34.03V4.54C34.6233 3.68 35.34 3.25 36.18 3.25C36.7067 3.25 37.1267 3.38333 37.44 3.65C37.7467 3.91667 37.9 4.31 37.9 4.83V8.76L38.66 8.85V9.08H36.13V8.85L36.79 8.76ZM42.87 7.99C42.6833 8.37 42.41 8.66333 42.05 8.87C41.69 9.08333 41.28 9.19 40.82 9.19C40.36 9.19 39.9833 9.06667 39.69 8.82C39.3967 8.57333 39.25 8.23667 39.25 7.81C39.25 7.37667 39.34 7.03333 39.52 6.78C40.02 6.12667 41.0067 5.8 42.48 5.8H42.87V4.72C42.87 3.90667 42.5 3.5 41.76 3.5C41.4267 3.5 41.1567 3.57667 40.95 3.73C40.7367 3.88333 40.63 4.06333 40.63 4.27C40.63 4.47 40.7267 4.6 40.92 4.66C40.92 4.85333 40.85 5.02 40.71 5.16C40.5767 5.29333 40.4133 5.36 40.22 5.36C40.04 5.36 39.88 5.29333 39.74 5.16C39.6067 5.02 39.54 4.85 39.54 4.65C39.54 4.26333 39.7533 3.93333 40.18 3.66C40.6133 3.38667 41.14 3.25 41.76 3.25C43.26 3.25 44.0033 3.81667 43.99 4.95V8.34C43.99 8.68 44.1267 8.85 44.4 8.85C44.6733 8.85 44.81 8.68667 44.81 8.36H45.05C45.05 8.61333 44.9667 8.81333 44.8 8.96C44.6267 9.11333 44.38 9.19 44.06 9.19C43.7333 9.19 43.4567 9.09 43.23 8.89C43.0033 8.69667 42.8833 8.39667 42.87 7.99ZM42.87 7.2V6.06H42.48C41.9067 6.06 41.4267 6.2 41.04 6.48C40.6467 6.75333 40.45 7.16667 40.45 7.72C40.45 8.01333 40.53 8.24667 40.69 8.42C40.8567 8.58667 41.1 8.67 41.42 8.67C41.7467 8.67 42.0567 8.53667 42.35 8.27C42.65 8.01 42.8233 7.65333 42.87 7.2Z" fill="black"/>
</svg>
