<svg width="113.59" height="20.535" viewBox="0 0 113.59 20.535" xmlns="http://www.w3.org/2000/svg"><path transform="translate(0 13.604) scale(.013672 -.013672)" d="m19 112q0 11 1 18t9 16q19-12 28.5-24t15.5-22.5 13-19.5 23-16 44-11 76-4q10 0 28 0t39.5 2.5 43.5 7 40 13 29.5 21 11.5 30.5q0 3-1 7.5t-1 5.5l-48 49-322 88q-9 2-13.5 7t-6.5 11-2 13v14q0 27 18.5 47t47 33 64 21.5 70 13 64 5.5 45.5 1h11q7 0 15.5 0t15.5 0h11q10-3 11-10.5t1-14.5q0-14-18.5-20.5t-47-10-64.5-6.5-69.5-8.5-61.5-16.5-42-30l18-10 283-78q17-5 32-18.5t25.5-31 16.5-37 6-35.5q0-24-11-42.5t-28-31-39-20-45-12-45.5-6-40.5-1.5q-19 0-45.5 0.5t-54.5 3.5-55 9.5-48.5 19-34.5 31.5-13 49z"/><path transform="translate(6.7812 13.604) scale(.013672 -.013672)" d="m19 273q0 13 7.5 26t22.5 13q19 0 26.5-15t10-35.5 1.5-42 1-34.5q0-7 2.5-23.5t5.5-35 6-35.5 5-24q1 0 7.5-1t7.5-1q19 0 32 11.5t21.5 28 15 36.5 14 36.5 18 27.5 25.5 11q21 0 35.5-12t28-29.5 25-38 26-38 31.5-29.5 39-12q1 0 7.5 1t7.5 1q9 13 18 38t18.5 54.5 19 59.5 19 55.5 19.5 40.5 18 15q1 0 1.5 0t2.5 0h1q2-1 4.5-3.5t6-6 6-6.5 3.5-4v-2q0-1 0.5-2t0.5-1-0.5-2-0.5-3q-3-8-8-25.5t-12-39.5-14-46.5-14-47.5-13-40-8-26q-7-16-14-29-6-11-12.5-20t-11.5-9h-98q-12 0-24.5 9t-24 22.5-23 30-21.5 31.5-19 27-15 17q-21-13-33-28t-20-31.5-15-32-18-28-28.5-19.5-47.5-7q-10 0-19.5 18t-17.5 45-14.5 60-11 63.5-7 53.5-2.5 33z"/><path transform="translate(15.176 13.604) scale(.013672 -.013672)" d="m297 49q-16 0-33.5-4.5t-34.5-10.5-35.5-10.5-37.5-4.5q-29 0-56 9t-47.5 27-32.5 43.5-12 57.5q0 28 17.5 52t43.5 40 56 25 54 9q11 0 27.5-1.5t36-5 39.5-9 36.5-14.5 28-20.5 13.5-26.5q0-5-2-17.5t-3-26.5-2.5-26.5-2.5-18.5v-6q0-22 10-33t24.5-15.5 30.5-4.5h32q15 0 19 0.5t5.5 0.5 5 0.5 19.5 0.5q13 0 20-5t7-21q0-17-11-24t-26-9.5-30-1.5-23 1q-23 0-43.5 8t-37.5 17.5-31 17-24 7.5zm-230 97q0-24 10.5-38.5t26-21 34.5-8 37-1.5q7 0 23.5 1t34.5 4.5 32.5 9.5 16.5 15l20 78q2 8-4 14t-16.5 10-23 7-24.5 5-21.5 3-11.5 1q-18 0-41.5-3.5t-44-12-34.5-23.5-14-40z"/><path transform="translate(22.135 13.604) scale(.013672 -.013672)" d="m261 215q-35 0-61.5-12.5t-47.5-32.5-35-42.5-24.5-42.5-16-33-7.5-13q-27 0-38 14t-14 34.5-0.5 43 2.5 39.5v17q0 12 0.5 25t0.5 24v17q3 8 8 9t11 1q9 0 15-10.5t11-25.5 8-29.5 5-22.5q12 2 22 10t20.5 19 22.5 23 28 22.5 37.5 17.5 49.5 7q56 0 92-24.5t55.5-64 26.5-89 7-100.5q-30 0-46.5 9.5t-23.5 25-8 35-1 40-2.5 40.5-12 35-29 24.5-55.5 9.5z"/><path transform="translate(28.26 13.604) scale(.013672 -.013672)" d="m136 167q-5 0-12.5-1.5t-7.5-9.5v-136q0-1-7-5t-11-6h-10q-9 5-16 7-5 4-9 7t-4 6v117q-2 0-8.5 4t-13 9-12 10.5-5.5 10.5q0 12 10 25t19 19v14q0 11 0 23t0 22v14q0 29 0 52.5t-2 45-6 46-12 55.5q0 4 3 9.5t7 11 9.5 9 10.5 0.5q11-5 20-24t15-46 10-58.5 6.5-60 4-51.5 1.5-33q16 13 34 21.5t36.5 16.5 35.5 17 31 23q6 6 13 17.5t14 23 16 19.5 21 8q6 0 9.5-2.5t4.5-7 1-9.5v-9q0-26-14-47t-34.5-38.5-44.5-31-44-20.5q40-47 76-79t75.5-54.5 87.5-37 112-24.5q12 0 16.5-5t4.5-14q0-1-1-5.5t-1-5.5q-18-6-32-8t-32-2q-23 0-49 2t-52.5 6.5-51 12-46.5 19.5-40 33-36.5 42.5-40 37-49.5 15.5z"/><path transform="translate(36.121 13.604) scale(.013672 -.013672)" d="m-78-338q0 12 1 29t6.5 33 15.5 28 26 14q0-1 0.5-4.5t0.5-5.5q0-14-6-25.5t-6-28.5q0-28 11-51t29-41 41.5-31 50-21.5 53.5-12.5 50-4q33 0 56 11t39.5 29.5 26.5 43 15.5 51 8 53.5 2.5 51q0 4-1 24.5t-3 48-5 58.5-8 58-12 44-16 17q-19 0-37.5-5t-36.5-11-37.5-11-40.5-5q-4 0-13.5 0t-20.5 0.5-20.5 1-13.5 0.5q-21 8-34.5 24t-21.5 36.5-11 43-3 41.5q0 28 1.5 50.5t10.5 47.5q1 2 7 2.5t7 0.5q18 0 24-15t7-37 1.5-47.5 7.5-47.5 23.5-36.5 50.5-14.5q46 0 72 11t39 33.5 15 55-1 76.5q-1 13 5 17t14 4q10 0 21.5-22t21.5-56 20-73.5 17-75.5 11.5-62.5 5.5-33.5q1-4 3-15.5t3.5-28 3.5-34 4-34 4-28.5 2-16v-5q0-52-12.5-100t-39-85.5-67-60-97.5-22.5q-24 0-53.5 4t-59.5 12.5-58.5 21.5-50.5 32.5-35.5 43.5-13.5 55z"/><path transform="translate(45.896 13.604) scale(.013672 -.013672)" d="m297 49q-16 0-33.5-4.5t-34.5-10.5-35.5-10.5-37.5-4.5q-29 0-56 9t-47.5 27-32.5 43.5-12 57.5q0 28 17.5 52t43.5 40 56 25 54 9q11 0 27.5-1.5t36-5 39.5-9 36.5-14.5 28-20.5 13.5-26.5q0-5-2-17.5t-3-26.5-2.5-26.5-2.5-18.5v-6q0-22 10-33t24.5-15.5 30.5-4.5h32q15 0 19 0.5t5.5 0.5 5 0.5 19.5 0.5q13 0 20-5t7-21q0-17-11-24t-26-9.5-30-1.5-23 1q-23 0-43.5 8t-37.5 17.5-31 17-24 7.5zm-230 97q0-24 10.5-38.5t26-21 34.5-8 37-1.5q7 0 23.5 1t34.5 4.5 32.5 9.5 16.5 15l20 78q2 8-4 14t-16.5 10-23 7-24.5 5-21.5 3-11.5 1q-18 0-41.5-3.5t-44-12-34.5-23.5-14-40z"/><path transform="translate(52.855 13.604) scale(.013672 -.013672)" d="m261 215q-35 0-61.5-12.5t-47.5-32.5-35-42.5-24.5-42.5-16-33-7.5-13q-27 0-38 14t-14 34.5-0.5 43 2.5 39.5v17q0 12 0.5 25t0.5 24v17q3 8 8 9t11 1q9 0 15-10.5t11-25.5 8-29.5 5-22.5q12 2 22 10t20.5 19 22.5 23 28 22.5 37.5 17.5 49.5 7q56 0 92-24.5t55.5-64 26.5-89 7-100.5q-30 0-46.5 9.5t-23.5 25-8 35-1 40-2.5 40.5-12 35-29 24.5-55.5 9.5z"/><path transform="translate(58.98 13.604) scale(.013672 -.013672)" d="m368 30q-33 0-64.5-5.5t-63.5-5.5q-22 0-47.5 0.5t-51 4-49.5 11-42.5 21-30 33.5-11.5 50q0 36 19.5 62t48 41.5 63 23 66.5 7.5q42 0 85.5-13.5t80.5-35.5v185q0 13 4.5 16.5t12.5 3.5q14 0 24-27.5t17-70.5 11.5-95 6.5-100 2.5-85.5 0.5-53.5q-16 0-27.5 5.5t-20 11.5-16.5 11-18 5zm-301 109q0-20 11-32.5t29-20.5 40-12 44-5.5 42-1.5h33q2 0 18.5-1t35.5 0.5 35 6 16 15.5v107q-11-11-19.5-16t-21.5-5q-1 0-11 6.5t-26.5 14-38 14-46.5 6.5q-17 0-41-3.5t-46.5-12-38-23.5-15.5-37z"/><path transform="translate(69.973 13.604) scale(.013672 -.013672)" d="m507 29q-1 9-2.5 27.5t-3 41.5-3.5 48.5-4.5 48.5-4 41-2.5 27q0 3-1 10.5t-3.5 16-7.5 15.5-13 7q-15 0-36-6t-43.5-13-44-12-39.5-5q-36 0-64 13t-53.5 28-52 28-59.5 13q0-59 4.5-115t4.5-113q0-5-0.5-12.5t-0.5-13.5q-1-8-1-16l-48-29-9 8q-1 1-1.5 12t-1.5 29-2 40-2.5 44.5-2 44-1.5 36.5v12q0 11-0.5 24.5t-0.5 27.5v41q0 13 0.5 27t0.5 26v17q2 9 10 10t15 1q1 0 7.5-1t7.5-1q34-24 64.5-46t62-38.5 65.5-26.5 76-10q21-7 45 0.5t47 21 43.5 28.5 34.5 24q10 0 18.5-6t15.5-15 10.5-19 4.5-20q0-10 2.5-30.5t5.5-46.5l12-109q3-25 5.5-46t3.5-30q1-10 4-18l7-18q4-8 7-17t3-16q0-8-5.5-12t-12-6-15.5-2h-13q-15 0-21.5 7.5t-11.5 22.5z"/><path transform="translate(78.094 13.604) scale(.013672 -.013672)" d="m19 118q0 34 12 70t34.5 66 53.5 49 71 19q56 0 94-11t62-33.5 34.5-58 10.5-83.5q0-3-0.5-11.5t-0.5-17.5-0.5-17.5-0.5-12.5q-7-25-26.5-40.5t-45-23.5-53-11-49.5-3q-31 0-65 4t-63.5 16.5-48.5 36-19 62.5zm50 13q0-26 15.5-42.5t37.5-25.5 47.5-12 43.5-3 31.5 0 26.5 3 27 9 33 17q10 16 11 31.5t1 32.5q0 34-13 60t-35 42-52.5 21.5-67.5-1.5q-15-3-34-18t-35-35-26.5-41.5-10.5-37.5z"/><path transform="translate(83.822 13.604) scale(.013672 -.013672)" d="m19 118q0 34 12 70t34.5 66 53.5 49 71 19q56 0 94-11t62-33.5 34.5-58 10.5-83.5q0-3-0.5-11.5t-0.5-17.5-0.5-17.5-0.5-12.5q-7-25-26.5-40.5t-45-23.5-53-11-49.5-3q-31 0-65 4t-63.5 16.5-48.5 36-19 62.5zm50 13q0-26 15.5-42.5t37.5-25.5 47.5-12 43.5-3 31.5 0 26.5 3 27 9 33 17q10 16 11 31.5t1 32.5q0 34-13 60t-35 42-52.5 21.5-67.5-1.5q-15-3-34-18t-35-35-26.5-41.5-10.5-37.5z"/><path transform="translate(94.008 13.604) scale(.013672 -.013672)" d="m507 29q-1 9-2.5 27.5t-3 41.5-3.5 48.5-4.5 48.5-4 41-2.5 27q0 3-1 10.5t-3.5 16-7.5 15.5-13 7q-15 0-36-6t-43.5-13-44-12-39.5-5q-36 0-64 13t-53.5 28-52 28-59.5 13q0-59 4.5-115t4.5-113q0-5-0.5-12.5t-0.5-13.5q-1-8-1-16l-48-29-9 8q-1 1-1.5 12t-1.5 29-2 40-2.5 44.5-2 44-1.5 36.5v12q0 11-0.5 24.5t-0.5 27.5v41q0 13 0.5 27t0.5 26v17q2 9 10 10t15 1q1 0 7.5-1t7.5-1q34-24 64.5-46t62-38.5 65.5-26.5 76-10q21-7 45 0.5t47 21 43.5 28.5 34.5 24q10 0 18.5-6t15.5-15 10.5-19 4.5-20q0-10 2.5-30.5t5.5-46.5l12-109q3-25 5.5-46t3.5-30q1-10 4-18l7-18q4-8 7-17t3-16q0-8-5.5-12t-12-6-15.5-2h-13q-15 0-21.5 7.5t-11.5 22.5z"/><path transform="translate(102.13 13.604) scale(.013672 -.013672)" d="m19 118q0 34 12 70t34.5 66 53.5 49 71 19q56 0 94-11t62-33.5 34.5-58 10.5-83.5q0-3-0.5-11.5t-0.5-17.5-0.5-17.5-0.5-12.5q-7-25-26.5-40.5t-45-23.5-53-11-49.5-3q-31 0-65 4t-63.5 16.5-48.5 36-19 62.5zm50 13q0-26 15.5-42.5t37.5-25.5 47.5-12 43.5-3 31.5 0 26.5 3 27 9 33 17q10 16 11 31.5t1 32.5q0 34-13 60t-35 42-52.5 21.5-67.5-1.5q-15-3-34-18t-35-35-26.5-41.5-10.5-37.5z"/><path transform="translate(107.86 13.604) scale(.013672 -.013672)" d="m19 118q0 34 12 70t34.5 66 53.5 49 71 19q56 0 94-11t62-33.5 34.5-58 10.5-83.5q0-3-0.5-11.5t-0.5-17.5-0.5-17.5-0.5-12.5q-7-25-26.5-40.5t-45-23.5-53-11-49.5-3q-31 0-65 4t-63.5 16.5-48.5 36-19 62.5zm50 13q0-26 15.5-42.5t37.5-25.5 47.5-12 43.5-3 31.5 0 26.5 3 27 9 33 17q10 16 11 31.5t1 32.5q0 34-13 60t-35 42-52.5 21.5-67.5-1.5q-15-3-34-18t-35-35-26.5-41.5-10.5-37.5z"/></svg>