<svg width="114" height="15" viewBox="0 0 114 15" fill="none" xmlns="http://www.w3.org/2000/svg">
<path d="M0.5 5.67778C0.5 5.57778 0.503333 5.49444 0.51 5.42778C0.523333 5.36778 0.566667 5.29444 0.64 5.20778C0.813333 5.32111 0.943333 5.43111 1.03 5.53778C1.11667 5.65111 1.18667 5.75444 1.24 5.84778C1.29333 5.94111 1.35333 6.03111 1.42 6.11778C1.48 6.19778 1.58333 6.27111 1.73 6.33778C1.87667 6.39778 2.07667 6.44778 2.33 6.48778C2.58333 6.52111 2.93 6.53778 3.37 6.53778C3.46333 6.53778 3.59 6.53778 3.75 6.53778C3.91667 6.53778 4.09667 6.52778 4.29 6.50778C4.49 6.48111 4.69 6.44778 4.89 6.40778C5.09 6.36778 5.27333 6.30778 5.44 6.22778C5.6 6.15444 5.73333 6.06111 5.84 5.94778C5.94667 5.82778 6 5.68778 6 5.52778C6 5.50111 5.99333 5.46778 5.98 5.42778C5.97333 5.38111 5.97 5.35444 5.97 5.34778L5.31 4.67778L0.91 3.47778C0.83 3.45778 0.77 3.42444 0.73 3.37778C0.683333 3.33111 0.653333 3.28111 0.64 3.22778C0.62 3.17444 0.61 3.11444 0.61 3.04778V2.85778C0.61 2.61111 0.693333 2.39778 0.86 2.21778C1.03333 2.03778 1.24667 1.88778 1.5 1.76778C1.76 1.64778 2.05333 1.54778 2.38 1.46778C2.70667 1.39444 3.02667 1.33778 3.34 1.29778C3.65333 1.25778 3.94333 1.23111 4.21 1.21778C4.48333 1.21111 4.69 1.20778 4.83 1.20778H4.98C5.04667 1.20778 5.12 1.20778 5.2 1.20778C5.27333 1.20778 5.34333 1.20778 5.41 1.20778H5.56C5.65333 1.23444 5.70333 1.28111 5.71 1.34778C5.71667 1.41444 5.72 1.48111 5.72 1.54778C5.72 1.67444 5.63667 1.76778 5.47 1.82778C5.30333 1.88778 5.09 1.93444 4.83 1.96778C4.57 1.99444 4.27667 2.02444 3.95 2.05778C3.61667 2.08444 3.29667 2.12111 2.99 2.16778C2.69 2.22111 2.41 2.29778 2.15 2.39778C1.89667 2.49778 1.70667 2.63444 1.58 2.80778L1.83 2.93778L5.7 4.00778C5.85333 4.05444 5.99667 4.13778 6.13 4.25778C6.27 4.38444 6.38667 4.52778 6.48 4.68778C6.57333 4.84778 6.65 5.01444 6.71 5.18778C6.76333 5.36778 6.79 5.53111 6.79 5.67778C6.79 5.89778 6.74 6.09111 6.64 6.25778C6.54 6.42444 6.41333 6.56444 6.26 6.67778C6.1 6.79111 5.92 6.88444 5.72 6.95778C5.52 7.02444 5.31667 7.07778 5.11 7.11778C4.89667 7.15778 4.69 7.18444 4.49 7.19778C4.28333 7.21111 4.09667 7.21778 3.93 7.21778C3.75667 7.21778 3.55 7.21778 3.31 7.21778C3.07 7.21111 2.82 7.19444 2.56 7.16778C2.30667 7.14111 2.05667 7.09778 1.81 7.03778C1.56333 6.97778 1.34333 6.89111 1.15 6.77778C0.956667 6.66444 0.8 6.52111 0.68 6.34778C0.56 6.17444 0.5 5.95111 0.5 5.67778ZM7.28 3.47778C7.28 3.35778 7.31333 3.23778 7.38 3.11778C7.45333 2.99778 7.55667 2.93778 7.69 2.93778C7.86333 2.93778 7.98333 3.00778 8.05 3.14778C8.12333 3.28111 8.17 3.44111 8.19 3.62778C8.21 3.82111 8.21667 4.01444 8.21 4.20778C8.20333 4.40111 8.20667 4.55778 8.22 4.67778C8.22 4.74444 8.23333 4.85111 8.26 4.99778C8.28 5.15111 8.30333 5.31111 8.33 5.47778C8.35667 5.64444 8.38667 5.80778 8.42 5.96778C8.44667 6.12111 8.46667 6.22778 8.48 6.28778C8.49333 6.28778 8.53 6.29444 8.59 6.30778C8.65 6.31444 8.68333 6.31778 8.69 6.31778C8.86333 6.31778 9.01 6.26444 9.13 6.15778C9.24333 6.05778 9.34 5.93111 9.42 5.77778C9.5 5.63111 9.57 5.46444 9.63 5.27778C9.68333 5.09778 9.74667 4.93111 9.82 4.77778C9.88667 4.63111 9.96667 4.50778 10.06 4.40778C10.16 4.30778 10.2767 4.25778 10.41 4.25778C10.6033 4.25778 10.7667 4.31111 10.9 4.41778C11.0333 4.53111 11.16 4.66444 11.28 4.81778C11.4 4.97778 11.5133 5.15111 11.62 5.33778C11.7267 5.52444 11.8467 5.69778 11.98 5.85778C12.1133 6.01778 12.2567 6.15444 12.41 6.26778C12.5633 6.37444 12.74 6.42778 12.94 6.42778C12.9467 6.42778 12.98 6.42444 13.04 6.41778C13.1 6.40444 13.1367 6.39778 13.15 6.39778C13.23 6.28444 13.31 6.11111 13.39 5.87778C13.4767 5.65111 13.5633 5.40444 13.65 5.13778C13.7367 4.87111 13.8233 4.60111 13.91 4.32778C13.99 4.05444 14.0733 3.80111 14.16 3.56778C14.2467 3.33444 14.3367 3.14778 14.43 3.00778C14.5233 2.87444 14.6067 2.80778 14.68 2.80778C14.6867 2.80778 14.6933 2.80778 14.7 2.80778C14.7 2.80778 14.71 2.80778 14.73 2.80778H14.75C14.7633 2.81444 14.7833 2.83111 14.81 2.85778C14.83 2.87778 14.8567 2.90444 14.89 2.93778C14.9233 2.97111 14.95 3.00111 14.97 3.02778C14.9967 3.05444 15.0133 3.07111 15.02 3.07778V3.10778C15.02 3.11444 15.0233 3.12444 15.03 3.13778C15.03 3.14444 15.03 3.14778 15.03 3.14778C15.03 3.14778 15.03 3.15778 15.03 3.17778C15.0233 3.19111 15.02 3.20444 15.02 3.21778C14.9933 3.29111 14.9567 3.40778 14.91 3.56778C14.8633 3.72778 14.81 3.90778 14.75 4.10778C14.6833 4.30778 14.6167 4.51778 14.55 4.73778C14.49 4.96444 14.4267 5.18111 14.36 5.38778C14.3 5.60111 14.2433 5.78444 14.19 5.93778C14.13 6.09111 14.0933 6.20778 14.08 6.28778C14.0133 6.43444 13.9467 6.56778 13.88 6.68778C13.8267 6.78778 13.77 6.87778 13.71 6.95778C13.65 7.04444 13.6 7.08778 13.56 7.08778H12.22C12.1067 7.08778 11.9933 7.04444 11.88 6.95778C11.7667 6.87778 11.6567 6.77778 11.55 6.65778C11.45 6.53111 11.3467 6.39444 11.24 6.24778C11.1333 6.09444 11.0367 5.95111 10.95 5.81778C10.8567 5.67778 10.77 5.55444 10.69 5.44778C10.6033 5.33444 10.5333 5.25444 10.48 5.20778C10.2867 5.32778 10.1367 5.45778 10.03 5.59778C9.92333 5.73111 9.83333 5.87444 9.76 6.02778C9.68667 6.17444 9.61667 6.31778 9.55 6.45778C9.48333 6.60444 9.4 6.73444 9.3 6.84778C9.2 6.96111 9.07 7.04778 8.91 7.10778C8.75667 7.17444 8.54333 7.20778 8.27 7.20778C8.17667 7.20778 8.08667 7.12444 8 6.95778C7.91333 6.79778 7.83333 6.59444 7.76 6.34778C7.68667 6.10111 7.62 5.82778 7.56 5.52778C7.5 5.22778 7.45 4.93778 7.41 4.65778C7.37 4.37778 7.34 4.13444 7.32 3.92778C7.29333 3.71444 7.28 3.56444 7.28 3.47778ZM19.48 6.53778C19.3333 6.53778 19.18 6.55778 19.02 6.59778C18.86 6.63778 18.7033 6.68778 18.55 6.74778C18.39 6.80111 18.2267 6.84778 18.06 6.88778C17.8933 6.92778 17.7233 6.94778 17.55 6.94778C17.2833 6.94778 17.0267 6.90778 16.78 6.82778C16.5333 6.74111 16.3167 6.61778 16.13 6.45778C15.9433 6.29111 15.7967 6.09111 15.69 5.85778C15.5833 5.62444 15.53 5.36444 15.53 5.07778C15.53 4.81778 15.6067 4.58111 15.76 4.36778C15.92 4.14778 16.12 3.96444 16.36 3.81778C16.5933 3.67111 16.8467 3.55778 17.12 3.47778C17.3933 3.39111 17.64 3.34778 17.86 3.34778C17.96 3.34778 18.0867 3.35778 18.24 3.37778C18.3867 3.39111 18.55 3.41111 18.73 3.43778C18.91 3.47111 19.09 3.51444 19.27 3.56778C19.45 3.61444 19.6167 3.67778 19.77 3.75778C19.9233 3.84444 20.05 3.93778 20.15 4.03778C20.2567 4.14444 20.32 4.26778 20.34 4.40778C20.34 4.45444 20.33 4.53444 20.31 4.64778C20.29 4.76111 20.2767 4.88111 20.27 5.00778C20.2633 5.13444 20.2533 5.25444 20.24 5.36778C20.22 5.48111 20.2067 5.56444 20.2 5.61778V5.70778C20.2 5.90778 20.2467 6.05778 20.34 6.15778C20.4267 6.25778 20.5367 6.32778 20.67 6.36778C20.8033 6.40778 20.9433 6.42778 21.09 6.42778H21.53C21.6633 6.42778 21.75 6.42444 21.79 6.41778C21.8233 6.41778 21.8467 6.41778 21.86 6.41778C21.8733 6.41778 21.8967 6.41444 21.93 6.40778C21.9633 6.40111 22.0533 6.39778 22.2 6.39778C22.3133 6.39778 22.4033 6.42111 22.47 6.46778C22.5367 6.51444 22.57 6.61111 22.57 6.75778C22.57 6.91111 22.52 7.02111 22.42 7.08778C22.32 7.14778 22.2 7.19111 22.06 7.21778C21.9267 7.23778 21.79 7.24444 21.65 7.23778C21.5167 7.22444 21.4133 7.21778 21.34 7.21778C21.1267 7.21778 20.9267 7.18111 20.74 7.10778C20.5533 7.03444 20.3833 6.95778 20.23 6.87778C20.0767 6.79111 19.9333 6.71111 19.8 6.63778C19.6733 6.57111 19.5667 6.53778 19.48 6.53778ZM16.33 5.20778C16.33 5.42778 16.38 5.60444 16.48 5.73778C16.5733 5.87111 16.69 5.96778 16.83 6.02778C16.97 6.08778 17.1267 6.12444 17.3 6.13778C17.4733 6.15111 17.6433 6.15778 17.81 6.15778C17.87 6.15778 17.9767 6.15111 18.13 6.13778C18.2833 6.13111 18.44 6.11111 18.6 6.07778C18.7667 6.04444 18.9167 6.00111 19.05 5.94778C19.1767 5.89444 19.25 5.82778 19.27 5.74778L19.54 4.67778C19.56 4.60444 19.5433 4.54111 19.49 4.48778C19.4367 4.43444 19.36 4.38778 19.26 4.34778C19.1667 4.31444 19.0633 4.28444 18.95 4.25778C18.8367 4.23111 18.7267 4.20778 18.62 4.18778C18.5067 4.16778 18.4067 4.15444 18.32 4.14778C18.2333 4.13444 18.18 4.12778 18.16 4.12778C18 4.12778 17.8133 4.14444 17.6 4.17778C17.3867 4.21111 17.1833 4.26778 16.99 4.34778C16.8033 4.42111 16.6467 4.52778 16.52 4.66778C16.3933 4.80111 16.33 4.98111 16.33 5.20778ZM25.94 4.26778C25.62 4.26778 25.34 4.32444 25.1 4.43778C24.86 4.55111 24.6433 4.70111 24.45 4.88778C24.2633 5.06778 24.1033 5.26111 23.97 5.46778C23.8433 5.66778 23.7333 5.86111 23.64 6.04778C23.5467 6.22778 23.4733 6.37778 23.42 6.49778C23.3733 6.61778 23.34 6.67778 23.32 6.67778C23.0733 6.67778 22.9 6.61444 22.8 6.48778C22.7 6.35444 22.6367 6.19444 22.61 6.00778C22.5833 5.82111 22.58 5.62778 22.6 5.42778C22.62 5.22111 22.63 5.04111 22.63 4.88778V4.64778C22.63 4.54111 22.6333 4.42778 22.64 4.30778C22.6467 4.18778 22.65 4.07778 22.65 3.97778V3.74778C22.6767 3.67444 22.7133 3.63444 22.76 3.62778C22.8067 3.61444 22.8567 3.60778 22.91 3.60778C22.99 3.60778 23.0567 3.65778 23.11 3.75778C23.17 3.85111 23.22 3.96778 23.26 4.10778C23.3067 4.24111 23.3433 4.37444 23.37 4.50778C23.3967 4.64111 23.42 4.74444 23.44 4.81778C23.5533 4.79778 23.6533 4.75111 23.74 4.67778C23.8333 4.60444 23.9267 4.51778 24.02 4.41778C24.12 4.31778 24.2233 4.21444 24.33 4.10778C24.4367 3.99444 24.5633 3.89111 24.71 3.79778C24.8567 3.70444 25.03 3.62444 25.23 3.55778C25.4233 3.49111 25.6467 3.45778 25.9 3.45778C26.4133 3.45778 26.8333 3.57111 27.16 3.79778C27.4867 4.01778 27.74 4.30778 27.92 4.66778C28.1 5.02778 28.22 5.43444 28.28 5.88778C28.3467 6.34111 28.38 6.79778 28.38 7.25778C28.1067 7.25778 27.8933 7.21444 27.74 7.12778C27.5933 7.04111 27.4867 6.92778 27.42 6.78778C27.3533 6.64778 27.3167 6.48778 27.31 6.30778C27.3033 6.13444 27.3 5.95444 27.3 5.76778C27.3 5.58111 27.2867 5.39444 27.26 5.20778C27.24 5.02778 27.1867 4.87111 27.1 4.73778C27.0133 4.59778 26.88 4.48444 26.7 4.39778C26.5267 4.31111 26.2733 4.26778 25.94 4.26778ZM30.36 4.92778C30.3133 4.92778 30.2567 4.93444 30.19 4.94778C30.1233 4.96111 30.09 5.00444 30.09 5.07778V6.93778C30.09 6.94444 30.0567 6.96444 29.99 6.99778C29.9233 7.03778 29.8733 7.06778 29.84 7.08778H29.7C29.62 7.04111 29.5467 7.00778 29.48 6.98778C29.44 6.95444 29.4 6.92444 29.36 6.89778C29.3267 6.86444 29.31 6.83444 29.31 6.80778V5.20778C29.29 5.20778 29.25 5.19111 29.19 5.15778C29.13 5.11778 29.07 5.07778 29.01 5.03778C28.95 4.99111 28.8967 4.94111 28.85 4.88778C28.7967 4.84111 28.77 4.79444 28.77 4.74778C28.77 4.64111 28.8167 4.52778 28.91 4.40778C29.0033 4.28778 29.09 4.20111 29.17 4.14778V3.95778C29.17 3.85778 29.17 3.75111 29.17 3.63778C29.17 3.53111 29.17 3.43111 29.17 3.33778V3.14778C29.17 2.88111 29.17 2.64111 29.17 2.42778C29.17 2.21444 29.16 2.01111 29.14 1.81778C29.1267 1.61778 29.1 1.40778 29.06 1.18778C29.0267 0.96111 28.9733 0.707778 28.9 0.427778C28.9 0.387778 28.9133 0.344444 28.94 0.297778C28.9667 0.244444 28.9967 0.194444 29.03 0.147777C29.07 0.0944439 29.1133 0.054444 29.16 0.0277774C29.2133 -0.00555598 29.2633 -0.00888859 29.31 0.0177781C29.41 0.0644448 29.5 0.174445 29.58 0.347778C29.66 0.521111 29.7267 0.731111 29.78 0.977778C29.84 1.21778 29.8867 1.48444 29.92 1.77778C29.96 2.06444 29.99 2.33778 30.01 2.59778C30.03 2.85778 30.05 3.09111 30.07 3.29778C30.0833 3.50444 30.09 3.65444 30.09 3.74778C30.23 3.62778 30.3833 3.53111 30.55 3.45778C30.7167 3.37778 30.8833 3.30111 31.05 3.22778C31.2167 3.15444 31.3767 3.07778 31.53 2.99778C31.69 2.91778 31.8333 2.81111 31.96 2.67778C32.0133 2.62444 32.0733 2.54778 32.14 2.44778C32.2 2.34111 32.2633 2.23444 32.33 2.12778C32.39 2.02111 32.4633 1.93111 32.55 1.85778C32.63 1.78444 32.7233 1.74778 32.83 1.74778C32.89 1.74778 32.9333 1.76111 32.96 1.78778C32.9933 1.80778 33.0167 1.83778 33.03 1.87778C33.0367 1.92444 33.04 1.96778 33.04 2.00778V2.13778C33.04 2.37111 32.9767 2.58444 32.85 2.77778C32.7233 2.97111 32.5667 3.14778 32.38 3.30778C32.1933 3.46778 31.99 3.60778 31.77 3.72778C31.55 3.85444 31.35 3.94778 31.17 4.00778C31.53 4.43444 31.8733 4.79444 32.2 5.08778C32.5333 5.38111 32.88 5.63111 33.24 5.83778C33.6 6.03778 33.9967 6.20444 34.43 6.33778C34.87 6.47111 35.38 6.58444 35.96 6.67778C36.0733 6.67778 36.15 6.70111 36.19 6.74778C36.23 6.78778 36.25 6.85111 36.25 6.93778C36.25 6.94444 36.2467 6.96778 36.24 7.00778C36.2267 7.04778 36.22 7.07444 36.22 7.08778C36.06 7.14111 35.9167 7.17778 35.79 7.19778C35.6633 7.21111 35.5167 7.21778 35.35 7.21778C35.1367 7.21778 34.9133 7.21111 34.68 7.19778C34.44 7.17778 34.2 7.14778 33.96 7.10778C33.72 7.06778 33.4867 7.01111 33.26 6.93778C33.04 6.87111 32.83 6.78444 32.63 6.67778C32.43 6.56444 32.2467 6.41444 32.08 6.22778C31.92 6.03444 31.7533 5.83778 31.58 5.63778C31.4133 5.44444 31.2333 5.27778 31.04 5.13778C30.84 4.99778 30.6133 4.92778 30.36 4.92778ZM35.29 11.8278C35.29 11.7211 35.2967 11.5878 35.31 11.4278C35.3167 11.2744 35.3467 11.1244 35.4 10.9778C35.4467 10.8311 35.5167 10.7044 35.61 10.5978C35.7033 10.4911 35.82 10.4278 35.96 10.4078C35.96 10.4144 35.9633 10.4344 35.97 10.4678C35.9767 10.5011 35.98 10.5278 35.98 10.5478C35.98 10.6744 35.9533 10.7878 35.9 10.8878C35.84 10.9944 35.81 11.1244 35.81 11.2778C35.81 11.5378 35.86 11.7711 35.96 11.9778C36.0667 12.1911 36.2 12.3778 36.36 12.5378C36.5267 12.7044 36.7167 12.8478 36.93 12.9678C37.1433 13.0811 37.37 13.1778 37.61 13.2578C37.85 13.3378 38.0933 13.3944 38.34 13.4278C38.5867 13.4678 38.8167 13.4878 39.03 13.4878C39.33 13.4878 39.5833 13.4378 39.79 13.3378C40.0033 13.2311 40.1833 13.0944 40.33 12.9278C40.4833 12.7611 40.6067 12.5644 40.7 12.3378C40.7867 12.1178 40.8567 11.8878 40.91 11.6478C40.9567 11.4011 40.9933 11.1578 41.02 10.9178C41.04 10.6711 41.05 10.4378 41.05 10.2178C41.05 10.1778 41.0467 10.0644 41.04 9.87778C41.0267 9.69111 41.0133 9.47445 41 9.22778C40.98 8.97445 40.9567 8.70778 40.93 8.42778C40.9033 8.14111 40.8667 7.87444 40.82 7.62778C40.7733 7.38111 40.7167 7.18111 40.65 7.02778C40.59 6.87444 40.52 6.79778 40.44 6.79778C40.2667 6.79778 40.0933 6.82111 39.92 6.86778C39.7533 6.91444 39.5867 6.96444 39.42 7.01778C39.26 7.07111 39.09 7.12111 38.91 7.16778C38.73 7.21444 38.5467 7.23778 38.36 7.23778C38.32 7.23778 38.2567 7.23778 38.17 7.23778C38.0833 7.23778 37.99 7.23444 37.89 7.22778C37.79 7.22111 37.6967 7.21778 37.61 7.21778C37.5233 7.21111 37.4633 7.20778 37.43 7.20778C37.2367 7.13444 37.08 7.02444 36.96 6.87778C36.8333 6.73111 36.7333 6.56444 36.66 6.37778C36.5867 6.19111 36.5367 5.99444 36.51 5.78778C36.4833 5.58778 36.47 5.40111 36.47 5.22778C36.47 4.96778 36.4767 4.73778 36.49 4.53778C36.5033 4.33111 36.55 4.11444 36.63 3.88778C36.6433 3.86778 36.6767 3.85444 36.73 3.84778C36.7833 3.84778 36.8167 3.84778 36.83 3.84778C36.99 3.84778 37.0967 3.91444 37.15 4.04778C37.21 4.18778 37.2433 4.35778 37.25 4.55778C37.2567 4.75778 37.2633 4.97444 37.27 5.20778C37.2767 5.44111 37.31 5.65778 37.37 5.85778C37.4367 6.05778 37.5433 6.22444 37.69 6.35778C37.8433 6.48444 38.0733 6.54778 38.38 6.54778C38.8 6.54778 39.13 6.49778 39.37 6.39778C39.6033 6.29778 39.78 6.14778 39.9 5.94778C40.02 5.74111 40.09 5.48778 40.11 5.18778C40.1233 4.89444 40.1167 4.54778 40.09 4.14778C40.0833 4.02778 40.1067 3.95111 40.16 3.91778C40.2133 3.87778 40.2767 3.85778 40.35 3.85778C40.4433 3.85778 40.5433 3.95778 40.65 4.15778C40.75 4.35778 40.8467 4.61444 40.94 4.92778C41.0333 5.23444 41.1233 5.56778 41.21 5.92778C41.3033 6.28778 41.3833 6.63111 41.45 6.95778C41.51 7.29111 41.56 7.57778 41.6 7.81778C41.6467 8.05778 41.6733 8.21111 41.68 8.27778C41.6867 8.31111 41.7 8.38111 41.72 8.48778C41.74 8.59445 41.7567 8.72111 41.77 8.86778C41.7833 9.02111 41.8 9.17778 41.82 9.33778C41.8333 9.49778 41.85 9.65111 41.87 9.79778C41.89 9.95111 41.91 10.0811 41.93 10.1878C41.9433 10.2944 41.95 10.3678 41.95 10.4078V10.4778C41.95 10.9511 41.8933 11.4044 41.78 11.8378C41.6667 12.2778 41.49 12.6678 41.25 13.0078C41.01 13.3544 40.7033 13.6278 40.33 13.8278C39.9633 14.0344 39.52 14.1378 39 14.1378C38.78 14.1378 38.5367 14.1211 38.27 14.0878C38.0033 14.0478 37.73 13.9911 37.45 13.9178C37.1767 13.8378 36.9133 13.7378 36.66 13.6178C36.4 13.4978 36.1667 13.3511 35.96 13.1778C35.76 12.9978 35.6 12.7978 35.48 12.5778C35.3533 12.3578 35.29 12.1078 35.29 11.8278ZM50.2 6.53778C50.0533 6.53778 49.9 6.55778 49.74 6.59778C49.58 6.63778 49.4233 6.68778 49.27 6.74778C49.11 6.80111 48.9467 6.84778 48.78 6.88778C48.6133 6.92778 48.4433 6.94778 48.27 6.94778C48.0033 6.94778 47.7467 6.90778 47.5 6.82778C47.2533 6.74111 47.0367 6.61778 46.85 6.45778C46.6633 6.29111 46.5167 6.09111 46.41 5.85778C46.3033 5.62444 46.25 5.36444 46.25 5.07778C46.25 4.81778 46.33 4.58111 46.49 4.36778C46.6433 4.14778 46.84 3.96444 47.08 3.81778C47.32 3.67111 47.5767 3.55778 47.85 3.47778C48.1233 3.39111 48.3667 3.34778 48.58 3.34778C48.68 3.34778 48.8067 3.35778 48.96 3.37778C49.1133 3.39111 49.2767 3.41111 49.45 3.43778C49.63 3.47111 49.81 3.51444 49.99 3.56778C50.1767 3.61444 50.3433 3.67778 50.49 3.75778C50.6433 3.84444 50.77 3.93778 50.87 4.03778C50.9767 4.14444 51.04 4.26778 51.06 4.40778C51.06 4.45444 51.05 4.53444 51.03 4.64778C51.01 4.76111 50.9967 4.88111 50.99 5.00778C50.9833 5.13444 50.9733 5.25444 50.96 5.36778C50.9467 5.48111 50.9333 5.56444 50.92 5.61778V5.70778C50.92 5.90778 50.9667 6.05778 51.06 6.15778C51.1533 6.25778 51.2633 6.32778 51.39 6.36778C51.5233 6.40778 51.6633 6.42778 51.81 6.42778H52.25C52.3833 6.42778 52.47 6.42444 52.51 6.41778C52.5433 6.41778 52.5667 6.41778 52.58 6.41778C52.5933 6.41778 52.6167 6.41444 52.65 6.40778C52.6833 6.40111 52.7733 6.39778 52.92 6.39778C53.04 6.39778 53.13 6.42111 53.19 6.46778C53.2567 6.51444 53.29 6.61111 53.29 6.75778C53.29 6.91111 53.24 7.02111 53.14 7.08778C53.04 7.14778 52.92 7.19111 52.78 7.21778C52.6467 7.23778 52.51 7.24444 52.37 7.23778C52.2367 7.22444 52.1333 7.21778 52.06 7.21778C51.8467 7.21778 51.6467 7.18111 51.46 7.10778C51.2733 7.03444 51.1033 6.95778 50.95 6.87778C50.7967 6.79111 50.6567 6.71111 50.53 6.63778C50.3967 6.57111 50.2867 6.53778 50.2 6.53778ZM47.05 5.20778C47.05 5.42778 47.1 5.60444 47.2 5.73778C47.2933 5.87111 47.41 5.96778 47.55 6.02778C47.69 6.08778 47.8467 6.12444 48.02 6.13778C48.1933 6.15111 48.3633 6.15778 48.53 6.15778C48.59 6.15778 48.6967 6.15111 48.85 6.13778C49.0033 6.13111 49.16 6.11111 49.32 6.07778C49.4867 6.04444 49.6367 6.00111 49.77 5.94778C49.8967 5.89444 49.97 5.82778 49.99 5.74778L50.27 4.67778C50.2833 4.60444 50.2633 4.54111 50.21 4.48778C50.1567 4.43444 50.0833 4.38778 49.99 4.34778C49.89 4.31444 49.7833 4.28444 49.67 4.25778C49.5567 4.23111 49.4467 4.20778 49.34 4.18778C49.2267 4.16778 49.1267 4.15444 49.04 4.14778C48.9533 4.13444 48.9 4.12778 48.88 4.12778C48.72 4.12778 48.5333 4.14444 48.32 4.17778C48.1067 4.21111 47.9067 4.26778 47.72 4.34778C47.5333 4.42111 47.3733 4.52778 47.24 4.66778C47.1133 4.80111 47.05 4.98111 47.05 5.20778ZM56.66 4.26778C56.3467 4.26778 56.0667 4.32444 55.82 4.43778C55.58 4.55111 55.3633 4.70111 55.17 4.88778C54.9833 5.06778 54.8267 5.26111 54.7 5.46778C54.5667 5.66778 54.4533 5.86111 54.36 6.04778C54.2667 6.22778 54.1933 6.37778 54.14 6.49778C54.0933 6.61778 54.06 6.67778 54.04 6.67778C53.7933 6.67778 53.62 6.61444 53.52 6.48778C53.42 6.35444 53.3567 6.19444 53.33 6.00778C53.3033 5.82111 53.3 5.62778 53.32 5.42778C53.3467 5.22111 53.36 5.04111 53.36 4.88778V4.64778C53.36 4.54111 53.36 4.42778 53.36 4.30778C53.3667 4.18778 53.37 4.07778 53.37 3.97778V3.74778C53.3967 3.67444 53.4333 3.63444 53.48 3.62778C53.5267 3.61444 53.5767 3.60778 53.63 3.60778C53.71 3.60778 53.7767 3.65778 53.83 3.75778C53.89 3.85111 53.94 3.96778 53.98 4.10778C54.0267 4.24111 54.0633 4.37444 54.09 4.50778C54.1167 4.64111 54.14 4.74444 54.16 4.81778C54.2733 4.79778 54.3733 4.75111 54.46 4.67778C54.5533 4.60444 54.6467 4.51778 54.74 4.41778C54.84 4.31778 54.9433 4.21444 55.05 4.10778C55.1567 3.99444 55.2833 3.89111 55.43 3.79778C55.5767 3.70444 55.75 3.62444 55.95 3.55778C56.1433 3.49111 56.3667 3.45778 56.62 3.45778C57.1333 3.45778 57.5533 3.57111 57.88 3.79778C58.2067 4.01778 58.46 4.30778 58.64 4.66778C58.82 5.02778 58.94 5.43444 59 5.88778C59.0667 6.34111 59.1 6.79778 59.1 7.25778C58.8267 7.25778 58.6133 7.21444 58.46 7.12778C58.3133 7.04111 58.2067 6.92778 58.14 6.78778C58.0733 6.64778 58.0367 6.48778 58.03 6.30778C58.0233 6.13444 58.02 5.95444 58.02 5.76778C58.02 5.58111 58.0067 5.39444 57.98 5.20778C57.96 5.02778 57.9067 4.87111 57.82 4.73778C57.7333 4.59778 57.6 4.48444 57.42 4.39778C57.2467 4.31111 56.9933 4.26778 56.66 4.26778ZM64.25 6.79778C63.95 6.79778 63.6567 6.82444 63.37 6.87778C63.0833 6.92444 62.7933 6.94778 62.5 6.94778C62.3 6.94778 62.0833 6.94444 61.85 6.93778C61.6167 6.93778 61.3867 6.92111 61.16 6.88778C60.9267 6.85444 60.7 6.80444 60.48 6.73778C60.26 6.67111 60.0667 6.57444 59.9 6.44778C59.7267 6.32778 59.59 6.17444 59.49 5.98778C59.3833 5.80778 59.33 5.58111 59.33 5.30778C59.33 4.98111 59.42 4.69778 59.6 4.45778C59.7733 4.22444 59.99 4.03444 60.25 3.88778C60.51 3.74778 60.7967 3.64444 61.11 3.57778C61.43 3.51111 61.7333 3.47778 62.02 3.47778C62.4067 3.47778 62.7967 3.53778 63.19 3.65778C63.59 3.78444 63.9567 3.94778 64.29 4.14778V1.61778C64.29 1.49778 64.31 1.42111 64.35 1.38778C64.3967 1.35444 64.4567 1.33778 64.53 1.33778C64.6567 1.33778 64.7633 1.46444 64.85 1.71778C64.9433 1.97111 65.0233 2.29111 65.09 2.67778C65.15 3.07111 65.2 3.50444 65.24 3.97778C65.28 4.45111 65.31 4.90778 65.33 5.34778C65.35 5.78778 65.3633 6.17778 65.37 6.51778C65.37 6.85778 65.37 7.10111 65.37 7.24778C65.2233 7.24778 65.1 7.22444 65 7.17778C64.8933 7.12444 64.8 7.07111 64.72 7.01778C64.6467 6.96444 64.5733 6.91444 64.5 6.86778C64.4267 6.82111 64.3433 6.79778 64.25 6.79778ZM60.14 5.30778C60.14 5.48778 60.19 5.63444 60.29 5.74778C60.39 5.86111 60.52 5.95444 60.68 6.02778C60.8467 6.10111 61.03 6.15778 61.23 6.19778C61.43 6.23111 61.63 6.25444 61.83 6.26778C62.03 6.28111 62.2233 6.28778 62.41 6.28778H62.86C62.8733 6.28778 62.9567 6.29444 63.11 6.30778C63.2633 6.31444 63.4267 6.31111 63.6 6.29778C63.7733 6.28444 63.93 6.25778 64.07 6.21778C64.2167 6.17778 64.29 6.10778 64.29 6.00778V4.53778C64.19 4.63778 64.1033 4.71111 64.03 4.75778C63.95 4.80444 63.85 4.82778 63.73 4.82778C63.7233 4.82778 63.6733 4.79778 63.58 4.73778C63.4933 4.67778 63.3733 4.61444 63.22 4.54778C63.0667 4.48111 62.8933 4.41778 62.7 4.35778C62.5067 4.29778 62.2933 4.26778 62.06 4.26778C61.9067 4.26778 61.72 4.28444 61.5 4.31778C61.2867 4.35111 61.0767 4.40444 60.87 4.47778C60.6633 4.55778 60.49 4.66444 60.35 4.79778C60.21 4.93778 60.14 5.10778 60.14 5.30778ZM77.14 6.80778C77.1333 6.72778 77.1233 6.60444 77.11 6.43778C77.0967 6.26444 77.0833 6.07444 77.07 5.86778C77.0567 5.66111 77.04 5.44111 77.02 5.20778C77 4.97444 76.98 4.75111 76.96 4.53778C76.94 4.33111 76.9233 4.14444 76.91 3.97778C76.89 3.81778 76.8767 3.69444 76.87 3.60778C76.87 3.58111 76.8667 3.53444 76.86 3.46778C76.8467 3.40111 76.83 3.32778 76.81 3.24778C76.79 3.17444 76.7567 3.10444 76.71 3.03778C76.6633 2.97111 76.6033 2.93778 76.53 2.93778C76.39 2.93778 76.2267 2.96778 76.04 3.02778C75.8467 3.08111 75.6467 3.13778 75.44 3.19778C75.2333 3.26444 75.0333 3.32111 74.84 3.36778C74.6467 3.41444 74.4667 3.43778 74.3 3.43778C73.9733 3.43778 73.6833 3.37778 73.43 3.25778C73.17 3.13778 72.9233 3.01111 72.69 2.87778C72.4633 2.73778 72.2267 2.60778 71.98 2.48778C71.74 2.37444 71.47 2.31778 71.17 2.31778C71.17 2.85111 71.19 3.37444 71.23 3.88778C71.27 4.39444 71.29 4.90778 71.29 5.42778C71.29 5.47444 71.29 5.53111 71.29 5.59778C71.2833 5.67111 71.28 5.73444 71.28 5.78778C71.2733 5.86111 71.27 5.93444 71.27 6.00778L70.61 6.39778L70.49 6.28778C70.4767 6.28111 70.47 6.22778 70.47 6.12778C70.4633 6.02778 70.4567 5.89444 70.45 5.72778C70.4367 5.56778 70.4267 5.38778 70.42 5.18778C70.4067 4.98778 70.3933 4.78444 70.38 4.57778C70.3667 4.37111 70.36 4.17111 70.36 3.97778C70.3533 3.77778 70.3467 3.61111 70.34 3.47778V3.30778C70.34 3.20778 70.3367 3.09778 70.33 2.97778C70.3233 2.85111 70.32 2.72444 70.32 2.59778V2.03778C70.32 1.91778 70.3233 1.79444 70.33 1.66778C70.3367 1.54111 70.34 1.42444 70.34 1.31778V1.08778C70.3533 1.00111 70.3967 0.954444 70.47 0.947777C70.5433 0.934444 70.6133 0.927778 70.68 0.927778C70.6867 0.927778 70.72 0.934444 70.78 0.947777C70.84 0.954444 70.8733 0.957778 70.88 0.957778C71.1933 1.17778 71.4867 1.38778 71.76 1.58778C72.04 1.78778 72.3233 1.96444 72.61 2.11778C72.8967 2.26444 73.1967 2.38444 73.51 2.47778C73.8167 2.57111 74.1633 2.61778 74.55 2.61778C74.7367 2.67778 74.94 2.67444 75.16 2.60778C75.38 2.54111 75.5933 2.44444 75.8 2.31778C76.0133 2.19778 76.2133 2.06778 76.4 1.92778C76.5867 1.79444 76.7433 1.68444 76.87 1.59778C76.9633 1.59778 77.0467 1.62778 77.12 1.68778C77.2 1.74111 77.2733 1.80778 77.34 1.88778C77.4 1.96778 77.4467 2.05444 77.48 2.14778C77.5133 2.24111 77.5333 2.33111 77.54 2.41778C77.54 2.51111 77.55 2.65111 77.57 2.83778C77.5967 3.02444 77.6233 3.23778 77.65 3.47778L77.81 4.96778C77.8433 5.19444 77.87 5.40444 77.89 5.59778C77.91 5.78444 77.9267 5.92111 77.94 6.00778C77.9467 6.09444 77.9633 6.17444 77.99 6.24778L78.09 6.49778C78.1233 6.57111 78.1533 6.64778 78.18 6.72778C78.2067 6.80778 78.22 6.88111 78.22 6.94778C78.22 7.02111 78.1967 7.07444 78.15 7.10778C78.0967 7.14778 78.0433 7.17778 77.99 7.19778C77.93 7.21111 77.8567 7.21778 77.77 7.21778H77.6C77.46 7.21778 77.36 7.18444 77.3 7.11778C77.24 7.05111 77.1867 6.94778 77.14 6.80778ZM78.59 5.59778C78.59 5.28444 78.6467 4.96444 78.76 4.63778C78.8667 4.31111 79.0233 4.01111 79.23 3.73778C79.4367 3.46444 79.68 3.24111 79.96 3.06778C80.24 2.89444 80.5633 2.80778 80.93 2.80778C81.4433 2.80778 81.8733 2.85778 82.22 2.95778C82.5667 3.05778 82.8467 3.21111 83.06 3.41778C83.28 3.61778 83.44 3.88111 83.54 4.20778C83.6333 4.52778 83.68 4.90778 83.68 5.34778C83.68 5.37444 83.6767 5.42778 83.67 5.50778C83.67 5.58111 83.67 5.66111 83.67 5.74778C83.67 5.82778 83.6667 5.90778 83.66 5.98778C83.6533 6.06111 83.65 6.11778 83.65 6.15778C83.59 6.38444 83.47 6.56778 83.29 6.70778C83.11 6.84778 82.9033 6.95444 82.67 7.02778C82.4433 7.10111 82.2033 7.15111 81.95 7.17778C81.6967 7.20444 81.47 7.21778 81.27 7.21778C80.99 7.21778 80.6933 7.20111 80.38 7.16778C80.0733 7.12778 79.7867 7.05111 79.52 6.93778C79.2467 6.82444 79.0233 6.66111 78.85 6.44778C78.6767 6.23444 78.59 5.95111 78.59 5.59778ZM79.28 5.41778C79.28 5.65111 79.35 5.84444 79.49 5.99778C79.63 6.15111 79.8 6.26778 80 6.34778C80.2 6.42778 80.4167 6.48111 80.65 6.50778C80.8833 6.53444 81.0833 6.54778 81.25 6.54778C81.41 6.54778 81.5533 6.54778 81.68 6.54778C81.8 6.54778 81.92 6.53444 82.04 6.50778C82.16 6.48111 82.2833 6.44111 82.41 6.38778C82.5367 6.33444 82.6867 6.25778 82.86 6.15778C82.9533 6.01111 83.0033 5.86778 83.01 5.72778C83.0167 5.58111 83.02 5.43111 83.02 5.27778C83.02 4.97111 82.9633 4.69778 82.85 4.45778C82.73 4.22444 82.57 4.03444 82.37 3.88778C82.17 3.74111 81.93 3.64111 81.65 3.58778C81.37 3.54111 81.0633 3.54778 80.73 3.60778C80.59 3.64111 80.4333 3.72444 80.26 3.85778C80.0867 3.99778 79.9267 4.15778 79.78 4.33778C79.6333 4.51778 79.5133 4.70778 79.42 4.90778C79.3267 5.10111 79.28 5.27111 79.28 5.41778ZM84.32 5.59778C84.32 5.28444 84.3767 4.96444 84.49 4.63778C84.5967 4.31111 84.7533 4.01111 84.96 3.73778C85.1667 3.46444 85.41 3.24111 85.69 3.06778C85.97 2.89444 86.2933 2.80778 86.66 2.80778C87.1733 2.80778 87.6033 2.85778 87.95 2.95778C88.29 3.05778 88.57 3.21111 88.79 3.41778C89.01 3.61778 89.1667 3.88111 89.26 4.20778C89.36 4.52778 89.41 4.90778 89.41 5.34778C89.41 5.37444 89.4067 5.42778 89.4 5.50778C89.3933 5.58111 89.39 5.66111 89.39 5.74778C89.39 5.82778 89.39 5.90778 89.39 5.98778C89.3833 6.06111 89.38 6.11778 89.38 6.15778C89.3133 6.38444 89.1933 6.56778 89.02 6.70778C88.84 6.84778 88.6333 6.95444 88.4 7.02778C88.1667 7.10111 87.9267 7.15111 87.68 7.17778C87.4267 7.20444 87.2 7.21778 87 7.21778C86.72 7.21778 86.4233 7.20111 86.11 7.16778C85.8033 7.12778 85.5133 7.05111 85.24 6.93778C84.9733 6.82444 84.7533 6.66111 84.58 6.44778C84.4067 6.23444 84.32 5.95111 84.32 5.59778ZM85.01 5.41778C85.01 5.65111 85.08 5.84444 85.22 5.99778C85.36 6.15111 85.53 6.26778 85.73 6.34778C85.93 6.42778 86.1467 6.48111 86.38 6.50778C86.6133 6.53444 86.81 6.54778 86.97 6.54778C87.1367 6.54778 87.2833 6.54778 87.41 6.54778C87.53 6.54778 87.65 6.53444 87.77 6.50778C87.89 6.48111 88.0133 6.44111 88.14 6.38778C88.2667 6.33444 88.4167 6.25778 88.59 6.15778C88.6767 6.01111 88.7267 5.86778 88.74 5.72778C88.7467 5.58111 88.75 5.43111 88.75 5.27778C88.75 4.97111 88.69 4.69778 88.57 4.45778C88.4567 4.22444 88.3 4.03444 88.1 3.88778C87.8933 3.74111 87.6533 3.64111 87.38 3.58778C87.1 3.54111 86.79 3.54778 86.45 3.60778C86.3167 3.64111 86.1633 3.72444 85.99 3.85778C85.8167 3.99778 85.6567 4.15778 85.51 4.33778C85.3633 4.51778 85.2433 4.70778 85.15 4.90778C85.0567 5.10111 85.01 5.27111 85.01 5.41778ZM101.18 6.80778C101.173 6.72778 101.163 6.60444 101.15 6.43778C101.13 6.26444 101.113 6.07444 101.1 5.86778C101.087 5.66111 101.073 5.44111 101.06 5.20778C101.04 4.97444 101.017 4.75111 100.99 4.53778C100.97 4.33111 100.953 4.14444 100.94 3.97778C100.927 3.81778 100.917 3.69444 100.91 3.60778C100.91 3.58111 100.903 3.53444 100.89 3.46778C100.883 3.40111 100.867 3.32778 100.84 3.24778C100.82 3.17444 100.787 3.10444 100.74 3.03778C100.693 2.97111 100.633 2.93778 100.56 2.93778C100.427 2.93778 100.263 2.96778 100.07 3.02778C99.8767 3.08111 99.68 3.13778 99.48 3.19778C99.2733 3.26444 99.0733 3.32111 98.88 3.36778C98.68 3.41444 98.5 3.43778 98.34 3.43778C98.0067 3.43778 97.7133 3.37778 97.46 3.25778C97.2067 3.13778 96.9633 3.01111 96.73 2.87778C96.4967 2.73778 96.26 2.60778 96.02 2.48778C95.78 2.37444 95.5067 2.31778 95.2 2.31778C95.2 2.85111 95.2233 3.37444 95.27 3.88778C95.31 4.39444 95.33 4.90778 95.33 5.42778C95.33 5.47444 95.3267 5.53111 95.32 5.59778C95.3133 5.67111 95.31 5.73444 95.31 5.78778C95.3033 5.86111 95.3 5.93444 95.3 6.00778L94.64 6.39778L94.52 6.28778C94.5133 6.28111 94.5067 6.22778 94.5 6.12778C94.4933 6.02778 94.4867 5.89444 94.48 5.72778C94.4733 5.56778 94.4633 5.38778 94.45 5.18778C94.4433 4.98778 94.4333 4.78444 94.42 4.57778C94.4067 4.37111 94.3967 4.17111 94.39 3.97778C94.3833 3.77778 94.3767 3.61111 94.37 3.47778V3.30778C94.37 3.20778 94.3667 3.09778 94.36 2.97778C94.36 2.85111 94.36 2.72444 94.36 2.59778V2.03778C94.36 1.91778 94.36 1.79444 94.36 1.66778C94.3667 1.54111 94.37 1.42444 94.37 1.31778V1.08778C94.39 1.00111 94.4367 0.954444 94.51 0.947777C94.5833 0.934444 94.65 0.927778 94.71 0.927778C94.7233 0.927778 94.76 0.934444 94.82 0.947777C94.8733 0.954444 94.9067 0.957778 94.92 0.957778C95.2267 1.17778 95.52 1.38778 95.8 1.58778C96.08 1.78778 96.3633 1.96444 96.65 2.11778C96.9367 2.26444 97.2333 2.38444 97.54 2.47778C97.8533 2.57111 98.2 2.61778 98.58 2.61778C98.7733 2.67778 98.98 2.67444 99.2 2.60778C99.42 2.54111 99.6333 2.44444 99.84 2.31778C100.047 2.19778 100.243 2.06778 100.43 1.92778C100.617 1.79444 100.777 1.68444 100.91 1.59778C100.997 1.59778 101.08 1.62778 101.16 1.68778C101.24 1.74111 101.31 1.80778 101.37 1.88778C101.437 1.96778 101.483 2.05444 101.51 2.14778C101.543 2.24111 101.567 2.33111 101.58 2.41778C101.58 2.51111 101.59 2.65111 101.61 2.83778C101.63 3.02444 101.657 3.23778 101.69 3.47778L101.85 4.96778C101.877 5.19444 101.9 5.40444 101.92 5.59778C101.947 5.78444 101.963 5.92111 101.97 6.00778C101.983 6.09444 102.003 6.17444 102.03 6.24778L102.12 6.49778C102.16 6.57111 102.193 6.64778 102.22 6.72778C102.247 6.80778 102.26 6.88111 102.26 6.94778C102.26 7.02111 102.233 7.07444 102.18 7.10778C102.133 7.14778 102.08 7.17778 102.02 7.19778C101.96 7.21111 101.89 7.21778 101.81 7.21778H101.63C101.497 7.21778 101.4 7.18444 101.34 7.11778C101.28 7.05111 101.227 6.94778 101.18 6.80778ZM102.63 5.59778C102.63 5.28444 102.683 4.96444 102.79 4.63778C102.903 4.31111 103.06 4.01111 103.26 3.73778C103.467 3.46444 103.713 3.24111 104 3.06778C104.28 2.89444 104.603 2.80778 104.97 2.80778C105.477 2.80778 105.903 2.85778 106.25 2.95778C106.597 3.05778 106.88 3.21111 107.1 3.41778C107.32 3.61778 107.477 3.88111 107.57 4.20778C107.663 4.52778 107.71 4.90778 107.71 5.34778C107.71 5.37444 107.71 5.42778 107.71 5.50778C107.703 5.58111 107.7 5.66111 107.7 5.74778C107.7 5.82778 107.697 5.90778 107.69 5.98778C107.69 6.06111 107.69 6.11778 107.69 6.15778C107.623 6.38444 107.5 6.56778 107.32 6.70778C107.147 6.84778 106.943 6.95444 106.71 7.02778C106.477 7.10111 106.237 7.15111 105.99 7.17778C105.737 7.20444 105.51 7.21778 105.31 7.21778C105.023 7.21778 104.727 7.20111 104.42 7.16778C104.107 7.12778 103.817 7.05111 103.55 6.93778C103.283 6.82444 103.063 6.66111 102.89 6.44778C102.717 6.23444 102.63 5.95111 102.63 5.59778ZM103.31 5.41778C103.31 5.65111 103.38 5.84444 103.52 5.99778C103.667 6.15111 103.84 6.26778 104.04 6.34778C104.24 6.42778 104.457 6.48111 104.69 6.50778C104.917 6.53444 105.113 6.54778 105.28 6.54778C105.447 6.54778 105.59 6.54778 105.71 6.54778C105.837 6.54778 105.957 6.53444 106.07 6.50778C106.19 6.48111 106.313 6.44111 106.44 6.38778C106.567 6.33444 106.717 6.25778 106.89 6.15778C106.983 6.01111 107.033 5.86778 107.04 5.72778C107.053 5.58111 107.06 5.43111 107.06 5.27778C107.06 4.97111 107 4.69778 106.88 4.45778C106.76 4.22444 106.6 4.03444 106.4 3.88778C106.2 3.74111 105.96 3.64111 105.68 3.58778C105.407 3.54111 105.1 3.54778 104.76 3.60778C104.627 3.64111 104.473 3.72444 104.3 3.85778C104.127 3.99778 103.967 4.15778 103.82 4.33778C103.673 4.51778 103.553 4.70778 103.46 4.90778C103.36 5.10111 103.31 5.27111 103.31 5.41778ZM108.36 5.59778C108.36 5.28444 108.413 4.96444 108.52 4.63778C108.633 4.31111 108.79 4.01111 108.99 3.73778C109.197 3.46444 109.44 3.24111 109.72 3.06778C110.007 2.89444 110.333 2.80778 110.7 2.80778C111.207 2.80778 111.633 2.85778 111.98 2.95778C112.327 3.05778 112.61 3.21111 112.83 3.41778C113.05 3.61778 113.207 3.88111 113.3 4.20778C113.393 4.52778 113.44 4.90778 113.44 5.34778C113.44 5.37444 113.44 5.42778 113.44 5.50778C113.433 5.58111 113.43 5.66111 113.43 5.74778C113.43 5.82778 113.427 5.90778 113.42 5.98778C113.42 6.06111 113.42 6.11778 113.42 6.15778C113.353 6.38444 113.23 6.56778 113.05 6.70778C112.877 6.84778 112.673 6.95444 112.44 7.02778C112.207 7.10111 111.963 7.15111 111.71 7.17778C111.463 7.20444 111.24 7.21778 111.04 7.21778C110.753 7.21778 110.457 7.20111 110.15 7.16778C109.837 7.12778 109.547 7.05111 109.28 6.93778C109.013 6.82444 108.793 6.66111 108.62 6.44778C108.447 6.23444 108.36 5.95111 108.36 5.59778ZM109.04 5.41778C109.04 5.65111 109.11 5.84444 109.25 5.99778C109.39 6.15111 109.563 6.26778 109.77 6.34778C109.97 6.42778 110.183 6.48111 110.41 6.50778C110.643 6.53444 110.843 6.54778 111.01 6.54778C111.177 6.54778 111.32 6.54778 111.44 6.54778C111.56 6.54778 111.68 6.53444 111.8 6.50778C111.92 6.48111 112.043 6.44111 112.17 6.38778C112.297 6.33444 112.447 6.25778 112.62 6.15778C112.713 6.01111 112.763 5.86778 112.77 5.72778C112.783 5.58111 112.79 5.43111 112.79 5.27778C112.79 4.97111 112.73 4.69778 112.61 4.45778C112.49 4.22444 112.33 4.03444 112.13 3.88778C111.93 3.74111 111.69 3.64111 111.41 3.58778C111.137 3.54111 110.83 3.54778 110.49 3.60778C110.35 3.64111 110.197 3.72444 110.03 3.85778C109.857 3.99778 109.697 4.15778 109.55 4.33778C109.403 4.51778 109.28 4.70778 109.18 4.90778C109.087 5.10111 109.04 5.27111 109.04 5.41778Z" fill="black"/>
</svg>
