<svg width="69.3" height="16.8" viewBox="0 0 69.3 16.8" xmlns="http://www.w3.org/2000/svg"><path transform="translate(0 12.95) scale(.014 -.014)" d="m89 211q36 0 40-64l98-82h123l68 57v80l-37 41-32 23q-25 10-60 21.5t-73 25.5l-80 38-62 74v106l49 81 93 48h163l108-113q-2-95-37-95-37 0-38 67l-76 65h-113l-69-50v-80l35-42 50-24q22-8 39.5-14t24.5-8q15-7 28-11 7-3 25-10.5t48-18.5l48-37 46-66v-134l-106-99h-178l-113 70-50 95q0 26-0.5 37.5t7 15 31.5 3.5z"/><path transform="translate(7.7 12.95) scale(.014 -.014)" d="m470 500q11 0 6.5-29.5t-19.5-79.5-37.5-112.5-49.5-128.5-55-128.5-53.5-112.5-45-79.5-30.5-29.5q-42 0 3 104 45 102-53 350-97 246-55 246t118-198q76-197 152 0 77 198 119 198z"/><path transform="translate(15.4 12.95) scale(.014 -.014)" d="m362 510 74-33 51-80v-231q0-166-40-166t-40 156v274h-179l-71-86q-14-54-14-198 0-146-40-146t-40 250 40 250 40-74q0-75 18-17l90 101z"/><path transform="translate(23.1 12.95) scale(.014 -.014)" d="m458 161q38 0 25-76l-105-95h-157l-109 66-61 118v150l59 119 107 67h178l109-145q-6-136-189-136-184 0-177-73l86-89h167q28 94 67 94zm-234 272-73-70q-15-62 125-62t136 64l-69 68z"/><path transform="translate(38.5 12.95) scale(.014 -.014)" d="m465 650q40 0 40-325t-40-325-40 215q0 213-55 0-56-215-95-215t-95 213q-55 211-55 0 0-213-40-213t-40 325 40 325 115-271 150 0 115 271z"/><path transform="translate(46.2 12.95) scale(.014 -.014)" d="m210-10-102 63-57 117v158l57 118 102 64h131l101-64 57-118v-158l-56-117-101-63zm131 77 78 96v172l-78 98h-130l-80-98v-172l79-96z"/><path transform="translate(53.9 12.95) scale(.014 -.014)" d="m362 510 74-33 51-80v-231q0-166-40-166t-40 156v274h-179l-71-86q-14-54-14-198 0-146-40-146t-40 250 40 250 40-74q0-75 18-17l90 101z"/><path transform="translate(61.6 12.95) scale(.014 -.014)" d="m210-10-102 63-57 117v158l57 118 102 64h131l101-64 57-118v-158l-56-117-101-63zm131 77 78 96v172l-78 98h-130l-80-98v-172l79-96z"/></svg>