<svg width="43" height="12" viewBox="0 0 43 12" fill="none" xmlns="http://www.w3.org/2000/svg">
<path d="M3.2 1.05H0.5V0.17H7.16V1.05H4.24V9.03H3.2V1.05ZM12.64 5.17V9.03H11.94L11.8 8.34C11.2267 8.91333 10.5167 9.2 9.67 9.2C9.02333 9.2 8.51 9.02 8.13 8.66C7.75 8.3 7.56 7.82 7.56 7.22C7.56 5.76667 8.62333 5.04 10.75 5.04H11.71V4.96C11.71 3.84667 11.17 3.29 10.09 3.29C9.47667 3.29 8.88333 3.49667 8.31 3.91L8 3.39C8.64667 2.80333 9.43333 2.51 10.36 2.51C11.0933 2.51 11.6567 2.73667 12.05 3.19C12.4433 3.65 12.64 4.31 12.64 5.17ZM11.71 7.45V5.73H10.86C9.32667 5.73 8.56 6.2 8.56 7.14C8.56 7.54 8.68 7.85333 8.92 8.08C9.16 8.31333 9.49333 8.43 9.92 8.43C10.2933 8.43 10.6533 8.33667 11 8.15C11.3467 7.96333 11.5833 7.73 11.71 7.45ZM14.88 2.67H15.8V9.95C15.8 10.5033 15.6633 10.9333 15.39 11.24C15.1167 11.5467 14.7367 11.7 14.25 11.7C13.7367 11.7 13.2567 11.5367 12.81 11.21L13.14 10.7C13.4333 10.8667 13.7367 10.95 14.05 10.95C14.6033 10.95 14.88 10.6033 14.88 9.91V2.67ZM14.71 0.6C14.71 0.44 14.77 0.3 14.89 0.18C15.01 0.0600003 15.1567 0 15.33 0C15.4967 0 15.64 0.0600003 15.76 0.18C15.88 0.3 15.94 0.44 15.94 0.6C15.94 0.78 15.88 0.926667 15.76 1.04C15.64 1.16 15.4967 1.22 15.33 1.22C15.15 1.22 15 1.16 14.88 1.04C14.7667 0.926667 14.71 0.78 14.71 0.6ZM22.75 5.17V9.03H22.05L21.91 8.34C21.3367 8.91333 20.6267 9.2 19.78 9.2C19.1333 9.2 18.62 9.02 18.24 8.66C17.8533 8.3 17.66 7.82 17.66 7.22C17.66 5.76667 18.7267 5.04 20.86 5.04H21.82V4.96C21.82 3.84667 21.28 3.29 20.2 3.29C19.58 3.29 18.9867 3.49667 18.42 3.91L18.11 3.39C18.7567 2.80333 19.54 2.51 20.46 2.51C21.2 2.51 21.7667 2.73667 22.16 3.19C22.5533 3.65 22.75 4.31 22.75 5.17ZM21.82 7.45V5.73H20.97C19.4367 5.73 18.67 6.2 18.67 7.14C18.67 7.54 18.79 7.85333 19.03 8.08C19.27 8.31333 19.6033 8.43 20.03 8.43C20.4033 8.43 20.7633 8.33667 21.11 8.15C21.4567 7.96333 21.6933 7.73 21.82 7.45ZM28.54 3.81L26.99 9.03H25.98L23.88 2.67H24.89L26.48 7.94L28.01 2.67H29.09L30.54 7.94L32.14 2.67H33.15L31.03 9.03H30.03L28.54 3.81ZM38.97 5.17V9.03H38.27L38.13 8.34C37.5633 8.91333 36.8533 9.2 36 9.2C35.36 9.2 34.8467 9.02 34.46 8.66C34.08 8.3 33.89 7.82 33.89 7.22C33.89 5.76667 34.9533 5.04 37.08 5.04H38.05V4.96C38.05 3.84667 37.5067 3.29 36.42 3.29C35.8067 3.29 35.2167 3.49667 34.65 3.91L34.34 3.39C34.98 2.80333 35.7633 2.51 36.69 2.51C37.43 2.51 37.9933 2.73667 38.38 3.19C38.7733 3.65 38.97 4.31 38.97 5.17ZM38.05 7.45V5.73H37.19C35.6633 5.73 34.9 6.2 34.9 7.14C34.9 7.54 35.0167 7.85333 35.25 8.08C35.49 8.31333 35.8267 8.43 36.26 8.43C36.6333 8.43 36.99 8.33667 37.33 8.15C37.6767 7.96333 37.9167 7.73 38.05 7.45ZM41.13 0.5L42.07 0V9.03H41.13V0.5Z" fill="black"/>
</svg>
