<svg width="38" height="16" viewBox="0 0 38 16" fill="none" xmlns="http://www.w3.org/2000/svg">
<path d="M8.682 0.0780003L8.762 0.108C8.80867 0.181333 8.822 0.268 8.802 0.368C8.79533 0.401334 8.76533 0.454667 8.712 0.528C8.692 0.554667 8.672 0.581333 8.652 0.608C8.62533 0.634667 8.60533 0.658 8.592 0.678C8.492 0.764667 8.43533 0.821334 8.422 0.848C8.40867 0.888 8.37533 0.918 8.322 0.938C8.15533 1.00467 8.02867 1.038 7.942 1.038C7.88867 1.038 7.832 1.03467 7.772 1.028C7.70533 1.028 7.63533 1.02467 7.562 1.018C7.44867 1.018 7.36867 1.02467 7.322 1.038C7.26867 1.04467 7.18867 1.06133 7.082 1.088C7.062 1.09467 7.04533 1.10133 7.032 1.108C7.01867 1.108 7.00533 1.11133 6.992 1.118C6.98533 1.12467 6.97533 1.128 6.962 1.128C6.942 1.13467 6.922 1.14133 6.902 1.148C6.862 1.16133 6.81867 1.168 6.772 1.168C6.732 1.168 6.69867 1.18467 6.672 1.218C6.62533 1.20467 6.59533 1.20467 6.582 1.218C6.582 1.218 6.55533 1.23133 6.502 1.258C6.442 1.26467 6.39867 1.27133 6.372 1.278C6.352 1.29133 6.322 1.30467 6.282 1.318C6.262 1.30467 6.22533 1.30467 6.172 1.318C6.152 1.318 6.132 1.32467 6.112 1.338C6.08533 1.34467 6.062 1.348 6.042 1.348C5.96867 1.368 5.90533 1.38133 5.852 1.388C5.812 1.39467 5.76533 1.41467 5.712 1.448C5.70533 1.48133 5.692 1.50467 5.672 1.518C5.652 1.538 5.64533 1.56467 5.652 1.598C5.59867 1.658 5.55533 1.73133 5.522 1.818C5.48867 1.89133 5.43867 1.958 5.372 2.018L5.292 2.168C5.25867 2.22133 5.222 2.26467 5.182 2.298C5.15533 2.37133 5.12533 2.43133 5.092 2.478C5.04533 2.53133 5.00533 2.58467 4.972 2.638C4.89867 2.758 4.822 2.93133 4.742 3.158C4.662 3.39133 4.58533 3.568 4.512 3.688C4.47867 3.79467 4.42867 3.898 4.362 3.998C4.28867 4.098 4.232 4.19133 4.192 4.278C4.15867 4.43133 4.11533 4.58133 4.062 4.728C4.01533 4.868 3.95867 5.00467 3.892 5.138C3.76533 5.40467 3.642 5.678 3.522 5.958C3.47533 6.058 3.44533 6.11467 3.432 6.128C3.41867 6.14133 3.412 6.16133 3.412 6.188C3.36533 6.24133 3.332 6.298 3.312 6.358C3.292 6.418 3.26533 6.48467 3.232 6.558C3.232 6.58467 3.202 6.62467 3.142 6.678C3.13533 6.70467 3.12533 6.73133 3.112 6.758C3.10533 6.778 3.09533 6.80133 3.082 6.828C3.07533 6.86133 3.06867 6.888 3.062 6.908C3.04867 6.93467 3.03867 6.96133 3.032 6.988C3.00533 7.01467 2.992 7.048 2.992 7.088C2.992 7.128 2.982 7.158 2.962 7.178C2.90867 7.278 2.882 7.34133 2.882 7.368C2.882 7.388 2.87867 7.41467 2.872 7.448C2.832 7.52133 2.802 7.58467 2.782 7.638C2.75533 7.698 2.73867 7.74467 2.732 7.778C2.70533 7.87133 2.672 7.94467 2.632 7.998C2.632 8.04467 2.62533 8.08467 2.612 8.118C2.59867 8.138 2.58867 8.15467 2.582 8.168C2.57533 8.188 2.56533 8.208 2.552 8.228C2.572 8.30133 2.55867 8.38133 2.512 8.468C2.492 8.51467 2.472 8.55467 2.452 8.588C2.42533 8.628 2.40533 8.668 2.392 8.708C2.33867 8.848 2.28867 8.95133 2.242 9.018C2.20867 9.058 2.17867 9.108 2.152 9.168C2.09867 9.29467 2.062 9.37133 2.042 9.398C2.00867 9.43133 1.97867 9.47467 1.952 9.528L1.822 9.818C1.77533 9.91133 1.72867 9.99467 1.682 10.068V10.188C1.682 10.2213 1.67533 10.2613 1.662 10.308C1.64867 10.3547 1.61867 10.4013 1.572 10.448C1.532 10.5013 1.49867 10.5313 1.472 10.538C1.37867 10.538 1.31533 10.5447 1.282 10.558C1.24867 10.5713 1.212 10.578 1.172 10.578C1.12533 10.558 1.07867 10.5313 1.032 10.498C0.992 10.458 0.952 10.4213 0.912 10.388C0.865333 10.328 0.818667 10.2747 0.772 10.228C0.725333 10.1747 0.682 10.1313 0.642 10.098C0.555333 10.018 0.508667 9.91467 0.502 9.788C0.495333 9.72133 0.505333 9.658 0.532 9.598C0.558667 9.53133 0.608667 9.488 0.682 9.468C0.788667 9.25467 0.862 9.078 0.902 8.938C0.928667 8.86467 0.955333 8.79133 0.982 8.718C1.01533 8.64467 1.04533 8.57133 1.072 8.498C1.092 8.46467 1.10867 8.43133 1.122 8.398C1.13533 8.36467 1.152 8.32467 1.172 8.278C1.192 8.23133 1.20533 8.19467 1.212 8.168C1.21867 8.14133 1.232 8.10133 1.252 8.048C1.27867 7.97467 1.312 7.908 1.352 7.848C1.38533 7.78133 1.42533 7.71133 1.472 7.638C1.53867 7.518 1.60867 7.38467 1.682 7.238C1.73533 7.12467 1.80867 6.99467 1.902 6.848C1.922 6.78133 1.94533 6.73133 1.972 6.698C1.99867 6.67133 2.02533 6.62467 2.052 6.558C2.06533 6.51133 2.06533 6.46467 2.052 6.418C2.03867 6.378 2.03867 6.33467 2.052 6.288C2.052 6.23467 2.07533 6.18467 2.122 6.138C2.162 6.098 2.182 6.05133 2.182 5.998L2.312 5.798C2.33867 5.76467 2.362 5.73133 2.382 5.698C2.402 5.66467 2.422 5.628 2.442 5.588C2.482 5.51467 2.512 5.45467 2.532 5.408C2.54533 5.368 2.56533 5.32467 2.592 5.278C2.632 5.21133 2.65533 5.16467 2.662 5.138C2.68867 5.06467 2.71533 4.99467 2.742 4.928C2.76867 4.868 2.80533 4.81467 2.852 4.768C2.872 4.67467 2.902 4.598 2.942 4.538C2.982 4.48467 3.02533 4.42467 3.072 4.358C3.112 4.238 3.15867 4.128 3.212 4.028C3.24533 3.97467 3.27533 3.92133 3.302 3.868C3.32867 3.81467 3.352 3.758 3.372 3.698C3.41867 3.60467 3.462 3.478 3.502 3.318C3.542 3.158 3.58533 3.03133 3.632 2.938C3.752 2.72467 3.862 2.51133 3.962 2.298C4.00867 2.198 4.05867 2.09133 4.112 1.978C4.16533 1.87133 4.21867 1.768 4.272 1.668C4.212 1.668 4.14867 1.668 4.082 1.668C4.00867 1.668 3.93533 1.668 3.862 1.668C3.722 1.68133 3.59533 1.67467 3.482 1.648C3.43533 1.648 3.40533 1.65467 3.392 1.668C3.37867 1.68133 3.34533 1.68467 3.292 1.678C3.26533 1.678 3.22867 1.67467 3.182 1.668C3.13533 1.65467 3.09533 1.648 3.062 1.648C2.97533 1.64133 2.88533 1.65467 2.792 1.688C2.74533 1.70133 2.69533 1.71467 2.642 1.728C2.59533 1.74133 2.552 1.75133 2.512 1.758C2.392 1.78467 2.322 1.81467 2.302 1.848C2.282 1.888 2.22533 1.918 2.132 1.938C2.092 1.958 2.042 1.96133 1.982 1.948C1.942 1.94133 1.89533 1.95467 1.842 1.988C1.742 1.97467 1.652 1.928 1.572 1.848C1.49867 1.77467 1.43533 1.69133 1.382 1.598C1.362 1.558 1.332 1.54467 1.292 1.558C1.252 1.56467 1.232 1.54467 1.232 1.498C1.212 1.42467 1.212 1.35133 1.232 1.278C1.232 1.258 1.24533 1.238 1.272 1.218C1.28533 1.198 1.292 1.17467 1.292 1.148C1.372 1.12133 1.43867 1.108 1.492 1.108C1.54533 1.10133 1.59867 1.07133 1.652 1.018C1.79867 0.991333 1.922 0.964667 2.022 0.938C2.07533 0.924667 2.132 0.911333 2.192 0.898C2.252 0.878 2.322 0.861334 2.402 0.848C2.49533 0.794667 2.542 0.771333 2.542 0.778C2.54867 0.784667 2.562 0.788 2.582 0.788L2.892 0.718C3.012 0.691333 3.13533 0.664667 3.262 0.638C3.38867 0.618 3.492 0.608 3.572 0.608C3.652 0.601333 3.762 0.601333 3.902 0.608C4.06867 0.614667 4.23533 0.608 4.402 0.588L4.862 0.528C4.89533 0.521333 4.92533 0.514667 4.952 0.508C4.972 0.501333 4.992 0.498 5.012 0.498L5.112 0.478C5.13867 0.471333 5.16533 0.468 5.192 0.468C5.212 0.461333 5.23533 0.458 5.262 0.458C5.30867 0.458 5.34533 0.441334 5.372 0.408C5.54533 0.368 5.70533 0.334667 5.852 0.308C5.99867 0.281334 6.13867 0.258 6.272 0.238C6.37867 0.218 6.522 0.191334 6.702 0.158C6.882 0.124667 7.03867 0.0980003 7.172 0.0780003C7.32533 0.0580003 7.44533 0.0379998 7.532 0.0179998C7.62533 -0.00200016 7.75533 -0.00533325 7.922 0.00800009C7.99533 0.0213334 8.052 0.0280001 8.092 0.0280001C8.11867 0.0280001 8.14867 0.0280001 8.182 0.0280001C8.21533 0.0280001 8.24867 0.0313336 8.282 0.0380003C8.302 0.044667 8.32867 0.0513336 8.362 0.0580003C8.39533 0.0646669 8.42867 0.0746667 8.462 0.088C8.54867 0.108 8.622 0.104667 8.682 0.0780003ZM9.122 6.478L9.112 6.588C9.11867 6.62133 9.10867 6.67467 9.082 6.748C9.03533 6.80133 9.00867 6.86133 9.002 6.928C8.982 6.968 8.96533 7.00133 8.952 7.028C8.93867 7.05467 8.92867 7.09133 8.922 7.138C8.902 7.19133 8.89533 7.25467 8.902 7.328C8.902 7.36133 8.902 7.39467 8.902 7.428C8.902 7.46133 8.89867 7.49467 8.892 7.528C8.872 7.628 8.85867 7.728 8.852 7.828C8.83867 7.92133 8.82867 8.018 8.822 8.118C8.822 8.218 8.812 8.33133 8.792 8.458C8.77867 8.58467 8.762 8.698 8.742 8.798C8.782 8.87133 8.80533 8.94133 8.812 9.008C8.812 9.07467 8.842 9.13467 8.902 9.188C9.08867 9.16133 9.23533 9.118 9.342 9.058C9.44867 8.998 9.552 8.91133 9.652 8.798C9.72533 8.77133 9.782 8.74133 9.822 8.708C9.862 8.67467 9.91533 8.638 9.982 8.598L10.092 8.488C10.2053 8.428 10.2687 8.39133 10.282 8.378C10.2887 8.37133 10.2987 8.36133 10.312 8.348C10.332 8.34133 10.3487 8.33133 10.362 8.318C10.522 8.218 10.642 8.11467 10.722 8.008C10.7887 7.95467 10.8453 7.898 10.892 7.838C10.932 7.78467 11.002 7.738 11.102 7.698C11.162 7.62467 11.2287 7.56133 11.302 7.508C11.3753 7.46133 11.442 7.40133 11.502 7.328C11.5487 7.328 11.5853 7.33467 11.612 7.348C11.6253 7.36133 11.6387 7.37133 11.652 7.378C11.672 7.39133 11.6887 7.40133 11.702 7.408C11.7353 7.48133 11.742 7.55467 11.722 7.628C11.702 7.708 11.6687 7.78133 11.622 7.848C11.5753 7.908 11.552 7.94467 11.552 7.958C11.552 7.96467 11.5487 7.97133 11.542 7.978C11.5153 8.01133 11.482 8.048 11.442 8.088C11.402 8.11467 11.3687 8.148 11.342 8.188C11.2953 8.268 11.2587 8.308 11.232 8.308C11.2053 8.308 11.182 8.318 11.162 8.338C11.0753 8.38467 11.0187 8.42133 10.992 8.448C10.952 8.48133 10.8987 8.518 10.832 8.558C10.7387 8.60467 10.6787 8.64133 10.652 8.668C10.632 8.688 10.6153 8.70133 10.602 8.708C10.4887 8.828 10.382 8.93133 10.282 9.018C10.182 9.08467 10.0787 9.18467 9.972 9.318C9.932 9.34467 9.89533 9.37467 9.862 9.408C9.822 9.43467 9.78867 9.468 9.762 9.508C9.682 9.568 9.61867 9.62467 9.572 9.678C9.51867 9.73133 9.45867 9.79467 9.392 9.868C9.33867 9.89467 9.282 9.93467 9.222 9.988C9.142 10.0413 9.072 10.0847 9.012 10.118C8.992 10.1313 8.95533 10.1513 8.902 10.178C8.85533 10.198 8.812 10.208 8.772 10.208C8.66533 10.228 8.562 10.218 8.462 10.178C8.37533 10.1513 8.28867 10.1247 8.202 10.098C8.16867 10.0447 8.12533 10.0013 8.072 9.968C7.98533 9.868 7.92533 9.748 7.892 9.608C7.85867 9.47467 7.822 9.328 7.782 9.168C7.702 9.22133 7.63533 9.28133 7.582 9.348C7.522 9.41467 7.43867 9.47467 7.332 9.528C7.23867 9.61467 7.14533 9.698 7.052 9.778C6.95867 9.86467 6.85867 9.948 6.752 10.028C6.652 10.1013 6.54867 10.1813 6.442 10.268C6.33533 10.3547 6.232 10.4413 6.132 10.528C6.05867 10.6013 6.00867 10.628 5.982 10.608C5.89533 10.708 5.74867 10.738 5.542 10.698C5.46867 10.6647 5.38533 10.6347 5.292 10.608C5.232 10.588 5.15867 10.5613 5.072 10.528C4.91867 10.5013 4.78867 10.4313 4.682 10.318C4.582 10.2113 4.49533 10.0847 4.422 9.938C4.39533 9.858 4.37533 9.788 4.362 9.728C4.35533 9.70133 4.34867 9.668 4.342 9.628C4.32867 9.59467 4.31867 9.55467 4.312 9.508C4.30533 9.43467 4.292 9.37467 4.272 9.328C4.252 9.27467 4.252 9.228 4.272 9.188C4.252 9.16133 4.24533 9.13133 4.252 9.098C4.26533 9.05133 4.272 9.01467 4.272 8.988C4.25867 8.86133 4.26867 8.72467 4.302 8.578C4.33533 8.438 4.37867 8.308 4.432 8.188C4.45867 8.14133 4.49533 8.09467 4.542 8.048C4.562 8.02133 4.57533 7.99467 4.582 7.968C4.58867 7.948 4.602 7.92467 4.622 7.898C4.64867 7.87133 4.67533 7.84467 4.702 7.818C4.74867 7.778 4.782 7.75133 4.802 7.738C4.822 7.70467 4.84533 7.67133 4.872 7.638C4.89867 7.61133 4.92867 7.588 4.962 7.568C4.99533 7.54133 5.02533 7.51467 5.052 7.488C5.07867 7.46133 5.10533 7.43467 5.132 7.408C5.16533 7.37467 5.18867 7.34133 5.202 7.308C5.22867 7.27467 5.26533 7.248 5.312 7.228C5.34533 7.168 5.38533 7.11467 5.432 7.068C5.47867 7.028 5.52867 6.98467 5.582 6.938C5.73533 6.75133 5.92533 6.59467 6.152 6.468C6.38533 6.33467 6.592 6.188 6.772 6.028C6.832 6.00133 6.88533 5.968 6.932 5.928C6.97867 5.89467 7.02533 5.858 7.072 5.818C7.18533 5.718 7.30867 5.688 7.442 5.728L7.792 5.818C7.88533 5.90467 7.97533 5.988 8.062 6.068C8.14867 6.148 8.22533 6.238 8.292 6.338C8.31867 6.338 8.352 6.33467 8.392 6.328C8.42533 6.328 8.46533 6.33133 8.512 6.338C8.592 6.34467 8.67867 6.338 8.772 6.318C8.79867 6.318 8.82533 6.308 8.852 6.288C8.87867 6.27467 8.902 6.268 8.922 6.268C9.05533 6.31467 9.122 6.38467 9.122 6.478ZM7.322 6.678C7.07533 6.798 6.852 6.938 6.652 7.098C6.452 7.258 6.25867 7.428 6.072 7.608C6.052 7.63467 6.02867 7.658 6.002 7.678C5.97533 7.698 5.952 7.718 5.932 7.738C5.90533 7.758 5.882 7.78133 5.862 7.808C5.842 7.828 5.822 7.848 5.802 7.868C5.762 7.91467 5.72867 7.97133 5.702 8.038C5.66867 8.098 5.63867 8.158 5.612 8.218C5.59867 8.23133 5.58867 8.248 5.582 8.268C5.57533 8.28133 5.56533 8.29133 5.552 8.298C5.54533 8.31133 5.53533 8.32467 5.522 8.338C5.51533 8.35133 5.50867 8.36467 5.502 8.378C5.482 8.42467 5.47533 8.47133 5.482 8.518C5.482 8.54467 5.482 8.59467 5.482 8.668V8.798C5.482 8.82467 5.48867 8.87133 5.502 8.938C5.52867 9.038 5.542 9.138 5.542 9.238C5.542 9.31133 5.54867 9.40133 5.562 9.508C5.57533 9.608 5.60867 9.678 5.662 9.718C5.722 9.75133 5.77867 9.76133 5.832 9.748C5.89867 9.72133 5.952 9.708 5.992 9.708C6.312 9.46133 6.612 9.20133 6.892 8.928C7.17867 8.66133 7.42867 8.358 7.642 8.018C7.62867 7.798 7.62867 7.568 7.642 7.328C7.65533 7.108 7.63533 6.90133 7.582 6.708C7.542 6.688 7.49867 6.68133 7.452 6.688C7.412 6.69467 7.36867 6.69133 7.322 6.678ZM14.322 8.688C14.4753 8.648 14.6287 8.608 14.782 8.568C14.9353 8.53467 15.0953 8.508 15.262 8.488C15.4087 8.48133 15.5587 8.45467 15.712 8.408L15.902 8.348C15.9353 8.33467 15.9653 8.32133 15.992 8.308C16.0253 8.30133 16.0553 8.29133 16.082 8.278C16.1487 8.26467 16.2087 8.25133 16.262 8.238C16.322 8.22467 16.3753 8.21133 16.422 8.198C16.4953 8.25133 16.5287 8.28133 16.522 8.288C16.522 8.29467 16.5287 8.30467 16.542 8.318L16.442 8.518C16.402 8.54467 16.3587 8.56133 16.312 8.568C16.2653 8.57467 16.2153 8.588 16.162 8.608C16.1153 8.63467 16.0887 8.65467 16.082 8.668C16.062 8.688 16.042 8.70133 16.022 8.708C15.982 8.71467 15.9553 8.71133 15.942 8.698C15.9153 8.678 15.892 8.668 15.872 8.668C15.652 8.81467 15.402 8.91467 15.122 8.968C14.8353 9.02133 14.5687 9.088 14.322 9.168C14.2287 9.21467 14.1353 9.26467 14.042 9.318C13.9553 9.36467 13.862 9.42133 13.762 9.488C13.6887 9.63467 13.5853 9.77467 13.452 9.908C13.3187 10.048 13.182 10.168 13.042 10.268C13.0087 10.2947 12.982 10.3147 12.962 10.328C12.942 10.3347 12.9253 10.3447 12.912 10.358C12.8987 10.3647 12.8887 10.3713 12.882 10.378C12.8487 10.3913 12.8153 10.4013 12.782 10.408C12.742 10.4213 12.7053 10.4313 12.672 10.438C12.632 10.4513 12.5953 10.4613 12.562 10.468C12.522 10.4813 12.4887 10.4913 12.462 10.498C12.402 10.5513 12.3553 10.578 12.322 10.578C12.262 10.5847 12.2087 10.5747 12.162 10.548C12.102 10.5213 12.042 10.5047 11.982 10.498C11.9353 10.418 11.9087 10.3613 11.902 10.328C11.8887 10.3013 11.8687 10.2847 11.842 10.278C11.822 10.1847 11.7687 10.098 11.682 10.018C11.6087 9.938 11.5487 9.85133 11.502 9.758C11.482 9.72467 11.4653 9.68467 11.452 9.638C11.4387 9.598 11.432 9.56133 11.432 9.528C11.4387 9.428 11.4787 9.34133 11.552 9.268C11.6253 9.19467 11.6987 9.13467 11.772 9.088C11.832 9.168 11.882 9.20133 11.922 9.188C11.962 9.168 11.9953 9.148 12.022 9.128C12.0553 9.11467 12.0953 9.10467 12.142 9.098L12.222 9.078C12.362 9.04467 12.5087 9.01467 12.662 8.988C12.762 8.98133 12.8387 8.98467 12.892 8.998C12.9653 9.01133 13.0387 9.008 13.112 8.988C13.1587 8.908 13.2153 8.83133 13.282 8.758C13.3553 8.68467 13.422 8.618 13.482 8.558C13.5287 8.44467 13.5887 8.32467 13.662 8.198C13.7353 8.07133 13.8087 7.948 13.882 7.828L14.002 7.588C14.022 7.568 14.0387 7.548 14.052 7.528C14.0653 7.508 14.082 7.48133 14.102 7.448C14.1153 7.37467 14.122 7.30467 14.122 7.238C14.1153 7.17133 14.1087 7.09467 14.102 7.008C14.0153 6.96133 13.9287 6.89467 13.842 6.808C13.7887 6.828 13.7353 6.828 13.682 6.808C13.6353 6.78133 13.582 6.78133 13.522 6.808C13.4953 6.808 13.4687 6.82133 13.442 6.848C13.4287 6.85467 13.4153 6.86467 13.402 6.878C13.382 6.88467 13.3653 6.89133 13.352 6.898C13.2653 6.94467 13.1753 6.988 13.082 7.028C12.9887 7.05467 12.912 7.108 12.852 7.188C12.8053 7.24133 12.762 7.288 12.722 7.328C12.6753 7.37467 12.6387 7.41467 12.612 7.448C12.5787 7.48133 12.5453 7.518 12.512 7.558C12.4787 7.598 12.442 7.638 12.402 7.678C12.3553 7.718 12.3187 7.748 12.292 7.768C12.2587 7.79467 12.2387 7.818 12.232 7.838C12.2187 7.858 12.1987 7.88133 12.172 7.908C12.1453 7.94133 12.1187 7.968 12.092 7.988C12.0653 8.01467 12.0387 8.04133 12.012 8.068C11.952 8.108 11.902 8.158 11.862 8.218C11.8287 8.25133 11.802 8.27467 11.782 8.288C11.762 8.30133 11.7353 8.328 11.702 8.368C11.6487 8.42133 11.602 8.488 11.562 8.568C11.5287 8.63467 11.4853 8.708 11.432 8.788L11.162 9.228C11.1087 9.368 11.0553 9.508 11.002 9.648C10.942 9.788 10.882 9.92133 10.822 10.048C10.7553 10.1813 10.692 10.318 10.632 10.458C10.5787 10.6047 10.5253 10.7513 10.472 10.898C10.4587 10.9913 10.4453 11.0413 10.432 11.048C10.4253 11.0613 10.422 11.0747 10.422 11.088C10.4153 11.1213 10.4087 11.1547 10.402 11.188C10.3953 11.2213 10.3853 11.2513 10.372 11.278C10.3587 11.338 10.3387 11.398 10.312 11.458C10.292 11.5313 10.2653 11.6047 10.232 11.678C10.192 11.758 10.1553 11.8347 10.122 11.908C10.062 12.0547 10.0053 12.1913 9.952 12.318C9.89867 12.4713 9.84533 12.6147 9.792 12.748C9.772 12.8013 9.752 12.8547 9.732 12.908C9.712 12.9547 9.692 13.0047 9.672 13.058L9.572 13.358C9.552 13.4047 9.53533 13.458 9.522 13.518C9.522 13.5447 9.51867 13.5713 9.512 13.598C9.50533 13.6247 9.49867 13.6513 9.492 13.678C9.46533 13.778 9.432 13.8847 9.392 13.998C9.34533 14.118 9.31867 14.2213 9.312 14.308C9.17867 14.4347 9.08867 14.5447 9.042 14.638C8.942 14.738 8.83533 14.828 8.722 14.908C8.61533 14.9813 8.49533 15.048 8.362 15.108C8.27533 15.108 8.162 15.098 8.022 15.078C7.882 15.0647 7.812 15.0047 7.812 14.898C7.79867 14.818 7.802 14.7147 7.822 14.588C7.83533 14.4613 7.862 14.3513 7.902 14.258C7.942 14.158 7.982 14.0613 8.022 13.968C8.062 13.8747 8.102 13.798 8.142 13.738C8.19533 13.498 8.262 13.298 8.342 13.138C8.36867 13.0847 8.392 13.0347 8.412 12.988C8.432 12.948 8.45533 12.9047 8.482 12.858C8.52867 12.758 8.56867 12.6647 8.602 12.578C8.62867 12.5113 8.642 12.4413 8.642 12.368C8.64867 12.2947 8.67533 12.2313 8.722 12.178C8.78867 12.0247 8.86867 11.878 8.962 11.738C9.062 11.6047 9.162 11.468 9.262 11.328C9.30867 11.2547 9.34867 11.1813 9.382 11.108C9.422 11.028 9.462 10.9513 9.502 10.878C9.58867 10.738 9.65867 10.5913 9.712 10.438C9.76533 10.2847 9.842 10.1447 9.942 10.018C9.96867 9.97133 9.992 9.92467 10.012 9.878C10.032 9.83133 10.0553 9.78467 10.082 9.738L10.212 9.468C10.2253 9.44133 10.242 9.39467 10.262 9.328C10.282 9.26133 10.2987 9.21467 10.312 9.188C10.3387 9.14133 10.3653 9.098 10.392 9.058C10.4187 9.01133 10.442 8.968 10.462 8.928C10.542 8.74133 10.6253 8.56133 10.712 8.388C10.7987 8.208 10.8987 8.03133 11.012 7.858C11.012 7.76467 11.0353 7.67467 11.082 7.588C11.1087 7.548 11.1287 7.50467 11.142 7.458C11.162 7.41133 11.182 7.36133 11.202 7.308C11.2287 7.23467 11.2487 7.158 11.262 7.078C11.282 6.98467 11.2987 6.908 11.312 6.848C11.3387 6.768 11.3687 6.70467 11.402 6.658C11.4553 6.59133 11.4987 6.52133 11.532 6.448C11.5387 6.43467 11.5453 6.42133 11.552 6.408C11.5653 6.39467 11.5753 6.378 11.582 6.358C11.5953 6.34467 11.6053 6.33133 11.612 6.318C11.6187 6.298 11.6287 6.28133 11.642 6.268C11.6687 6.21467 11.6887 6.168 11.702 6.128C11.7087 6.09467 11.732 6.05133 11.772 5.998C11.8853 5.87133 11.9553 5.80133 11.982 5.788C12.0087 5.78133 12.032 5.768 12.052 5.748C12.0787 5.73467 12.1053 5.718 12.132 5.698C12.312 5.69133 12.4253 5.73467 12.472 5.828C12.5187 5.92133 12.5587 6.018 12.592 6.118C12.5787 6.19133 12.562 6.26467 12.542 6.338C12.522 6.41133 12.502 6.498 12.482 6.598C12.522 6.56467 12.562 6.53133 12.602 6.498C12.6353 6.46467 12.6753 6.43133 12.722 6.398C12.8153 6.318 12.8953 6.24467 12.962 6.178C13.042 6.13133 13.1187 6.08133 13.192 6.028C13.2653 5.98133 13.3387 5.93133 13.412 5.878C13.5587 5.778 13.7253 5.69133 13.912 5.618C13.952 5.598 13.9987 5.578 14.052 5.558C14.0987 5.54467 14.1453 5.538 14.192 5.538C14.232 5.538 14.272 5.548 14.312 5.568C14.3587 5.59467 14.402 5.61133 14.442 5.618C14.4887 5.66467 14.542 5.708 14.602 5.748C14.6487 5.78133 14.6987 5.828 14.752 5.888C14.792 5.93467 14.822 5.99133 14.842 6.058C14.8487 6.08467 14.8553 6.11467 14.862 6.148C14.8753 6.18133 14.8853 6.21467 14.892 6.248C14.8987 6.27467 14.9087 6.30467 14.922 6.338C14.9353 6.37133 14.952 6.40467 14.972 6.438C14.9987 6.498 15.0187 6.558 15.032 6.618C15.032 6.64467 15.0253 6.688 15.012 6.748C15.0053 6.81467 15.002 6.86133 15.002 6.888C15.002 6.92133 15.0053 6.948 15.012 6.968C15.012 6.988 15.012 7.02467 15.012 7.078C15.012 7.16467 14.9753 7.278 14.902 7.418L14.742 7.758C14.722 7.798 14.7053 7.83467 14.692 7.868C14.672 7.90133 14.6553 7.93467 14.642 7.968L14.552 8.168C14.5053 8.268 14.4653 8.36133 14.432 8.448C14.392 8.528 14.3553 8.608 14.322 8.688ZM19.962 9.198C20.002 9.14467 20.0287 9.11133 20.042 9.098C20.0687 9.07133 20.0987 9.05133 20.132 9.038C20.2453 8.79133 20.392 8.598 20.572 8.458C20.7587 8.318 20.9587 8.158 21.172 7.978C21.212 7.978 21.2487 7.96467 21.282 7.938C21.3153 7.90467 21.3553 7.878 21.402 7.858C21.4553 7.80467 21.5087 7.76467 21.562 7.738C21.602 7.71133 21.6353 7.67467 21.662 7.628C21.7687 7.57467 21.8653 7.50467 21.952 7.418C22.052 7.33133 22.1453 7.25467 22.232 7.188C22.3053 7.168 22.382 7.178 22.462 7.218C22.502 7.29133 22.5187 7.368 22.512 7.448C22.4987 7.528 22.452 7.57467 22.372 7.588C22.3453 7.61467 22.3153 7.64133 22.282 7.668C22.2487 7.69467 22.2087 7.71133 22.162 7.718C22.0753 7.738 22.0187 7.77467 21.992 7.828C21.9853 7.91467 21.972 7.968 21.952 7.988C21.932 8.008 21.922 8.02467 21.922 8.038C21.822 8.20467 21.7087 8.348 21.582 8.468C21.462 8.588 21.3453 8.73467 21.232 8.908C21.1853 8.94133 21.1453 8.99133 21.112 9.058C20.9453 9.15133 20.8253 9.22467 20.752 9.278C20.672 9.32467 20.602 9.38467 20.542 9.458C20.482 9.49133 20.452 9.518 20.452 9.538C20.452 9.558 20.4453 9.578 20.432 9.598C20.3387 9.67133 20.2853 9.728 20.272 9.768C20.2587 9.80133 20.2387 9.83133 20.212 9.858C20.1653 9.88467 20.1253 9.91467 20.092 9.948C20.0587 9.97467 20.0287 10.0013 20.002 10.028C19.9487 10.0813 19.892 10.118 19.832 10.138C19.752 10.2047 19.6353 10.2813 19.482 10.368C19.3353 10.4613 19.182 10.5313 19.022 10.578C18.862 10.6247 18.7287 10.6247 18.622 10.578L18.532 10.508C18.512 10.4947 18.4787 10.4713 18.432 10.438C18.372 10.3647 18.3053 10.3047 18.232 10.258C18.172 10.2113 18.112 10.1447 18.052 10.058C17.9853 9.96467 17.942 9.868 17.922 9.768C17.902 9.66133 17.8687 9.558 17.822 9.458C17.7953 9.218 17.812 9.02133 17.872 8.868C17.9253 8.71467 17.9787 8.57133 18.032 8.438C18.092 8.30467 18.1587 8.18133 18.232 8.068C18.372 7.848 18.472 7.588 18.532 7.288C18.432 7.188 18.3753 7.09467 18.362 7.008C18.3553 6.96133 18.3453 6.908 18.332 6.848C18.3187 6.788 18.302 6.718 18.282 6.638C18.0487 6.798 17.8287 6.99467 17.622 7.228C17.422 7.468 17.2453 7.71133 17.092 7.958L16.932 8.258C16.8853 8.34467 16.8287 8.42467 16.762 8.498C16.7153 8.54467 16.692 8.57467 16.692 8.588C16.692 8.60133 16.6853 8.618 16.672 8.638C16.632 8.68467 16.602 8.72467 16.582 8.758C16.5553 8.78467 16.5387 8.808 16.532 8.828C16.5253 8.848 16.5153 8.86467 16.502 8.878C16.4953 8.898 16.4887 8.91467 16.482 8.928C16.4553 8.96133 16.432 8.988 16.412 9.008C16.392 9.028 16.3687 9.05467 16.342 9.088C16.2153 9.268 16.0987 9.438 15.992 9.598L15.672 10.088C15.6187 10.1613 15.5787 10.238 15.552 10.318C15.5187 10.398 15.472 10.4713 15.412 10.538C15.3187 10.5447 15.2653 10.5313 15.252 10.498C15.2387 10.458 15.242 10.4247 15.262 10.398C15.1553 10.3247 15.092 10.1847 15.072 9.978C15.0587 9.76467 15.082 9.59467 15.142 9.468C15.1153 9.388 15.1053 9.34467 15.112 9.338C15.1187 9.32467 15.122 9.31133 15.122 9.298C15.242 9.13133 15.362 8.96467 15.482 8.798C15.6087 8.638 15.7387 8.48467 15.872 8.338C15.8987 8.30467 15.922 8.27133 15.942 8.238C15.9687 8.21133 15.9887 8.18133 16.002 8.148C16.0487 8.07467 16.0987 8.01467 16.152 7.968C16.2253 7.83467 16.3187 7.698 16.432 7.558C16.5387 7.418 16.6253 7.278 16.692 7.138C16.7453 7.08467 16.782 7.03467 16.802 6.988C16.822 6.928 16.8587 6.88133 16.912 6.848C16.9453 6.79467 16.9753 6.74133 17.002 6.688C17.0287 6.63467 17.0487 6.58133 17.062 6.528C17.0953 6.44133 17.1453 6.35467 17.212 6.268C17.232 6.208 17.2553 6.158 17.282 6.118C17.3087 6.08467 17.3453 6.04467 17.392 5.998C17.3987 5.958 17.4253 5.918 17.472 5.878C17.5187 5.84467 17.552 5.808 17.572 5.768C17.592 5.70133 17.6153 5.66133 17.642 5.648C17.6687 5.62133 17.682 5.588 17.682 5.548C17.7287 5.50133 17.7753 5.45467 17.822 5.408C17.862 5.35467 17.902 5.29133 17.942 5.218C18.0687 5.14467 18.1587 5.108 18.212 5.108C18.2587 5.108 18.2953 5.08467 18.322 5.038C18.362 5.038 18.402 5.038 18.442 5.038C18.4887 5.038 18.5353 5.038 18.582 5.038C18.6887 5.02467 18.7453 5.058 18.752 5.138C18.752 5.158 18.752 5.18133 18.752 5.208C18.7453 5.22133 18.7387 5.23467 18.732 5.248C18.732 5.26133 18.7287 5.27467 18.722 5.288C18.7287 5.368 18.7287 5.41133 18.722 5.418C18.7087 5.42467 18.702 5.43133 18.702 5.438C18.6953 5.47133 18.6953 5.50467 18.702 5.538C18.702 5.558 18.702 5.598 18.702 5.658C18.702 5.69133 18.6987 5.72133 18.692 5.748C18.6853 5.78133 18.682 5.808 18.682 5.828C18.6687 5.87467 18.6853 5.928 18.732 5.988C18.7587 6.01467 18.7853 6.038 18.812 6.058C18.8453 6.078 18.8787 6.108 18.912 6.148C18.932 6.17467 18.9487 6.20133 18.962 6.228C18.9687 6.26133 18.9853 6.29133 19.012 6.318C19.0253 6.338 19.052 6.358 19.092 6.378C19.1253 6.40467 19.152 6.438 19.172 6.478C19.2187 6.51133 19.2353 6.53467 19.222 6.548C19.2087 6.55467 19.2287 6.57133 19.282 6.598C19.3887 6.73133 19.4653 6.87467 19.512 7.028C19.572 7.14133 19.622 7.23133 19.662 7.298C19.7087 7.37133 19.7087 7.44467 19.662 7.518C19.6353 7.54467 19.6053 7.598 19.572 7.678C19.5253 7.718 19.4887 7.76467 19.462 7.818C19.442 7.85133 19.4287 7.88467 19.422 7.918C19.4153 7.95133 19.3987 7.98133 19.372 8.008C19.292 8.14133 19.2087 8.26133 19.122 8.368C19.0353 8.468 18.962 8.58133 18.902 8.708C18.902 8.968 18.952 9.158 19.052 9.278C19.1587 9.40467 19.2253 9.468 19.252 9.468C19.312 9.48133 19.3753 9.46467 19.442 9.418L19.622 9.308C19.642 9.30133 19.6587 9.29133 19.672 9.278C19.692 9.27133 19.7087 9.26133 19.722 9.248C19.7487 9.23467 19.7787 9.22133 19.812 9.208C19.912 9.18133 19.9587 9.17133 19.952 9.178C19.9453 9.19133 19.9487 9.198 19.962 9.198ZM28.112 6.328C28.1587 6.33467 28.1887 6.35133 28.202 6.378C28.2153 6.40467 28.2387 6.418 28.272 6.418C28.292 6.50467 28.2753 6.568 28.222 6.608C28.1687 6.64133 28.152 6.69467 28.172 6.768C28.0853 6.82133 27.982 6.85467 27.862 6.868C27.742 6.88133 27.652 6.928 27.592 7.008C27.432 7.088 27.2653 7.138 27.092 7.158C27.0053 7.16467 26.9153 7.17467 26.822 7.188C26.7287 7.208 26.6353 7.22467 26.542 7.238C26.442 7.31133 26.3787 7.348 26.352 7.348C26.3253 7.35467 26.292 7.37133 26.252 7.398C26.1587 7.358 26.062 7.338 25.962 7.338C25.8687 7.338 25.7687 7.32467 25.662 7.298C25.6153 7.318 25.5653 7.328 25.512 7.328C25.452 7.328 25.3987 7.33467 25.352 7.348C25.312 7.43467 25.292 7.518 25.292 7.598C25.292 7.68467 25.2787 7.768 25.252 7.848L25.172 8.008L25.152 8.138C25.1453 8.19133 25.1353 8.23467 25.122 8.268C25.102 8.29467 25.082 8.328 25.062 8.368C25.0353 8.40133 25.022 8.44133 25.022 8.488C24.962 8.568 24.9153 8.65133 24.882 8.738C24.8553 8.838 24.8053 8.918 24.732 8.978C24.7053 9.07133 24.662 9.14467 24.602 9.198C24.5487 9.25133 24.492 9.31467 24.432 9.388C24.332 9.528 24.2453 9.648 24.172 9.748C24.092 9.848 23.9887 9.93467 23.862 10.008C23.8153 10.0813 23.7587 10.1313 23.692 10.158C23.652 10.2047 23.6187 10.248 23.592 10.288L23.312 10.458C23.2053 10.5247 23.102 10.568 23.002 10.588C22.8487 10.628 22.6987 10.6247 22.552 10.578C22.4053 10.5313 22.2687 10.468 22.142 10.388C22.0553 10.3947 21.9887 10.378 21.942 10.338C21.8953 10.3047 21.832 10.2747 21.752 10.248C21.652 10.1613 21.5453 10.0813 21.432 10.008C21.3053 9.928 21.2187 9.828 21.172 9.708L21.102 9.408C21.0887 9.31467 21.0687 9.22133 21.042 9.128C21.0287 9.05467 21.0287 8.968 21.042 8.868C21.0553 8.788 21.0553 8.698 21.042 8.598C21.042 8.54467 21.042 8.498 21.042 8.458C21.042 8.41133 21.042 8.37467 21.042 8.348C21.0353 8.27467 21.0553 8.188 21.102 8.088C21.1287 8.028 21.152 7.97467 21.172 7.928C21.1853 7.87467 21.1987 7.83133 21.212 7.798C21.2187 7.758 21.2253 7.72133 21.232 7.688C21.2453 7.65467 21.2553 7.62467 21.262 7.598C21.2753 7.578 21.2887 7.55467 21.302 7.528C21.3153 7.50133 21.3287 7.47467 21.342 7.448C21.3553 7.42133 21.372 7.39467 21.392 7.368C21.4053 7.34133 21.422 7.318 21.442 7.298C21.4953 7.218 21.5587 7.13467 21.632 7.048C21.7053 6.968 21.7787 6.89133 21.852 6.818C21.8987 6.75133 21.9487 6.69133 22.002 6.638C22.082 6.558 22.1587 6.49133 22.232 6.438C22.3053 6.38467 22.3887 6.31133 22.482 6.218C22.502 6.19133 22.5253 6.168 22.552 6.148L22.632 6.098C22.7253 6.038 22.8087 5.99133 22.882 5.958C22.962 5.92467 23.052 5.88467 23.152 5.838C23.2387 5.798 23.3087 5.77133 23.362 5.758C23.3953 5.75133 23.432 5.74467 23.472 5.738C23.512 5.73133 23.5553 5.72133 23.602 5.708H23.762C23.8153 5.708 23.862 5.70133 23.902 5.688C23.8753 5.61467 23.9087 5.56467 24.002 5.538C24.0887 5.50467 24.1553 5.49467 24.202 5.508C24.2953 5.508 24.3687 5.528 24.422 5.568C24.4753 5.608 24.5253 5.65467 24.572 5.708C24.6653 5.77467 24.7653 5.87133 24.872 5.998C24.892 6.018 24.9153 6.03133 24.942 6.038C24.962 6.04467 24.9853 6.058 25.012 6.078C25.0453 6.13133 25.0687 6.18133 25.082 6.228C25.0953 6.288 25.1253 6.338 25.172 6.378C25.1987 6.398 25.2253 6.42133 25.252 6.448C25.2787 6.47467 25.2987 6.51133 25.312 6.558C25.4053 6.598 25.492 6.62467 25.572 6.638C25.612 6.658 25.6587 6.66467 25.712 6.658C25.7653 6.64467 25.822 6.64467 25.882 6.658C25.922 6.658 25.9653 6.668 26.012 6.688C26.0453 6.70133 26.0853 6.708 26.132 6.708C26.1987 6.70133 26.272 6.68467 26.352 6.658C26.432 6.63133 26.522 6.62467 26.622 6.638C26.762 6.67133 26.9053 6.658 27.052 6.598C27.2053 6.538 27.3587 6.498 27.512 6.478C27.5587 6.478 27.592 6.47467 27.612 6.468C27.6253 6.468 27.6553 6.468 27.702 6.468C27.7487 6.428 27.8087 6.398 27.882 6.378C27.9553 6.36467 28.032 6.348 28.112 6.328ZM24.202 6.738C24.1087 6.658 24.0553 6.60467 24.042 6.578C24.0287 6.55133 24.0153 6.53467 24.002 6.528C23.9553 6.488 23.9087 6.468 23.862 6.468C23.8353 6.46133 23.8087 6.45467 23.782 6.448C23.7553 6.448 23.732 6.44467 23.712 6.438C23.5653 6.41133 23.4453 6.428 23.352 6.488C23.3053 6.51467 23.2587 6.54133 23.212 6.568C23.1587 6.60133 23.112 6.63133 23.072 6.658C22.9253 6.74467 22.7953 6.858 22.682 6.998C22.6553 7.04467 22.6253 7.09467 22.592 7.148C22.5653 7.20133 22.542 7.26133 22.522 7.328C22.482 7.40133 22.4487 7.468 22.422 7.528C22.3953 7.58133 22.3753 7.65133 22.362 7.738C22.3153 7.82467 22.2853 7.898 22.272 7.958C22.272 7.99133 22.2687 8.02133 22.262 8.048C22.2553 8.07467 22.252 8.098 22.252 8.118C22.2453 8.16467 22.2387 8.21133 22.232 8.258C22.2187 8.30467 22.2087 8.35467 22.202 8.408C22.1753 8.52133 22.162 8.608 22.162 8.668C22.1753 8.69467 22.1887 8.73133 22.202 8.778C22.222 8.818 22.242 8.848 22.262 8.868C22.282 8.91467 22.302 8.96467 22.322 9.018C22.3487 9.07133 22.3687 9.11467 22.382 9.148C22.4353 9.208 22.4953 9.248 22.562 9.268C22.5953 9.27467 22.6353 9.28467 22.682 9.298C22.722 9.31133 22.7653 9.32467 22.812 9.338C22.912 9.39133 22.9787 9.41467 23.012 9.408C23.0587 9.39467 23.0853 9.388 23.092 9.388C23.2187 9.368 23.3253 9.318 23.412 9.238C23.4853 9.16467 23.5753 9.10133 23.682 9.048C23.722 8.99467 23.7587 8.938 23.792 8.878C23.832 8.818 23.8753 8.758 23.922 8.698C23.9687 8.638 24.012 8.57467 24.052 8.508C24.092 8.448 24.1287 8.38467 24.162 8.318C24.182 8.29133 24.2053 8.25133 24.232 8.198C24.2387 8.178 24.2487 8.158 24.262 8.138C24.2687 8.118 24.2753 8.098 24.282 8.078C24.3487 7.998 24.3787 7.958 24.372 7.958C24.3653 7.95133 24.3687 7.93467 24.382 7.908C24.442 7.77467 24.4687 7.67133 24.462 7.598C24.4553 7.52467 24.4553 7.45133 24.462 7.378C24.442 7.33133 24.422 7.278 24.402 7.218C24.382 7.16467 24.362 7.108 24.342 7.048C24.3087 6.928 24.262 6.82467 24.202 6.738ZM27.452 8.538C27.4987 8.538 27.5353 8.518 27.562 8.478C27.582 8.458 27.6153 8.428 27.662 8.388C27.6753 8.38133 27.6887 8.37467 27.702 8.368C27.7153 8.35467 27.732 8.34467 27.752 8.338C27.772 8.32467 27.7887 8.31467 27.802 8.308C27.8153 8.30133 27.8287 8.29133 27.842 8.278C27.962 8.19133 28.0653 8.10133 28.152 8.008C28.232 7.91467 28.3287 7.828 28.442 7.748C28.502 7.68133 28.562 7.618 28.622 7.558C28.682 7.49133 28.742 7.428 28.802 7.368C28.9153 7.26133 29.0287 7.13467 29.142 6.988C29.2887 6.87467 29.4253 6.75467 29.552 6.628C29.6387 6.57467 29.7087 6.52133 29.762 6.468C29.8153 6.42133 29.8887 6.37133 29.982 6.318C30.0287 6.258 30.0787 6.198 30.132 6.138C30.192 6.07133 30.2587 6.01467 30.332 5.968C30.4053 5.89467 30.4853 5.84133 30.572 5.808C30.652 5.77467 30.7287 5.72133 30.802 5.648C30.942 5.57467 31.0653 5.56133 31.172 5.608C31.2853 5.66133 31.372 5.72467 31.432 5.798C31.4653 5.878 31.522 5.96467 31.602 6.058C31.6087 6.07133 31.6153 6.08467 31.622 6.098C31.6353 6.11133 31.6453 6.12133 31.652 6.128C31.672 6.148 31.682 6.18133 31.682 6.228C31.682 6.33467 31.6687 6.44133 31.642 6.548C31.6287 6.59467 31.6153 6.64467 31.602 6.698C31.5887 6.74467 31.5787 6.79467 31.572 6.848C31.5653 6.908 31.5587 6.97133 31.552 7.038C31.5453 7.098 31.542 7.158 31.542 7.218C31.5353 7.338 31.512 7.46467 31.472 7.598C31.5253 7.67133 31.5687 7.748 31.602 7.828C31.642 7.91467 31.6853 7.98467 31.732 8.038C31.7653 8.03133 31.8087 7.99467 31.862 7.928C31.882 7.908 31.9053 7.89133 31.932 7.878C31.9587 7.858 31.9853 7.84133 32.012 7.828C32.0787 7.788 32.132 7.748 32.172 7.708C32.212 7.67467 32.2453 7.64133 32.272 7.608C32.3053 7.57467 32.3387 7.54467 32.372 7.518C32.4387 7.458 32.4987 7.39467 32.552 7.328C32.5853 7.29467 32.6187 7.26133 32.652 7.228C32.6853 7.20133 32.7187 7.17467 32.752 7.148C32.7787 7.12133 32.8087 7.09133 32.842 7.058C32.882 7.03133 32.9187 7.00133 32.952 6.968C32.992 6.93467 33.0253 6.898 33.052 6.858C33.0853 6.818 33.1187 6.78133 33.152 6.748C33.1853 6.708 33.2153 6.668 33.242 6.628C33.2753 6.588 33.312 6.55133 33.352 6.518C33.3853 6.478 33.4153 6.45467 33.442 6.448C33.4687 6.428 33.492 6.398 33.512 6.358C33.5787 6.32467 33.642 6.27467 33.702 6.208C33.7487 6.14133 33.8187 6.09467 33.912 6.068C33.9987 6.06133 34.0587 6.06133 34.092 6.068C34.1187 6.07467 34.1587 6.10467 34.212 6.158C34.2587 6.19133 34.292 6.238 34.312 6.298C34.3387 6.358 34.372 6.40467 34.412 6.438C34.4987 6.598 34.5653 6.698 34.612 6.738C34.6387 6.81133 34.6453 6.88467 34.632 6.958L34.562 7.178C34.562 7.23133 34.5587 7.27467 34.552 7.308C34.5453 7.34133 34.542 7.368 34.542 7.388C34.5353 7.408 34.5287 7.42467 34.522 7.438C34.522 7.458 34.5187 7.478 34.512 7.498C34.4587 7.818 34.3753 8.128 34.262 8.428C34.2687 8.49467 34.2887 8.56133 34.322 8.628C34.3487 8.68133 34.3587 8.76133 34.352 8.868C34.4053 8.88133 34.4553 8.88133 34.502 8.868C34.5553 8.86133 34.5987 8.85133 34.632 8.838C34.8253 8.76467 35.0087 8.66467 35.182 8.538C35.302 8.45133 35.4253 8.36467 35.552 8.278C35.6853 8.18467 35.8087 8.09467 35.922 8.008C35.962 7.97467 35.9987 7.94133 36.032 7.908C36.0587 7.868 36.0953 7.83467 36.142 7.808C36.2287 7.73467 36.3153 7.67467 36.402 7.628C36.4887 7.58133 36.5787 7.53467 36.672 7.488C36.7187 7.46133 36.7553 7.43467 36.782 7.408C36.8087 7.38133 36.8387 7.348 36.872 7.308C36.9187 7.26133 36.9853 7.21467 37.072 7.168C37.152 7.11467 37.2287 7.07133 37.302 7.038C37.4287 7.03133 37.4953 7.05133 37.502 7.098L37.522 7.228C37.402 7.308 37.2887 7.39133 37.182 7.478C37.0753 7.56467 36.9687 7.65467 36.862 7.748C36.8353 7.768 36.812 7.78467 36.792 7.798C36.7653 7.81133 36.7287 7.828 36.682 7.848C36.6487 7.87467 36.6253 7.898 36.612 7.918C36.5987 7.94467 36.5687 7.97133 36.522 7.998C36.4953 8.018 36.4687 8.038 36.442 8.058C36.4153 8.078 36.3887 8.10133 36.362 8.128C36.302 8.168 36.2487 8.21133 36.202 8.258C36.142 8.298 36.0853 8.34133 36.032 8.388C35.972 8.43467 35.922 8.48133 35.882 8.528C35.8287 8.58133 35.7853 8.63133 35.752 8.678C35.7253 8.72467 35.682 8.77467 35.622 8.828C35.5753 8.848 35.5353 8.87133 35.502 8.898L35.402 8.978C35.382 9.03133 35.3687 9.078 35.362 9.118C35.3553 9.158 35.3253 9.20133 35.272 9.248C35.2053 9.31467 35.1653 9.358 35.152 9.378C35.132 9.40467 35.1087 9.43133 35.082 9.458C35.0687 9.47133 35.0387 9.488 34.992 9.508C34.972 9.508 34.952 9.51467 34.932 9.528C34.9187 9.53467 34.902 9.54467 34.882 9.558C34.842 9.578 34.802 9.608 34.762 9.648C34.742 9.668 34.722 9.688 34.702 9.708C34.682 9.72133 34.6587 9.738 34.632 9.758C34.5987 9.778 34.5653 9.798 34.532 9.818C34.4987 9.838 34.472 9.858 34.452 9.878C34.412 9.90467 34.3453 9.928 34.252 9.948C34.1587 10.0147 34.0887 10.0447 34.042 10.038C34.0153 10.0313 33.972 10.0347 33.912 10.048C33.8853 10.0547 33.8653 10.0447 33.852 10.018C33.832 9.99133 33.8053 9.978 33.772 9.978C33.712 9.92467 33.6653 9.90133 33.632 9.908C33.5987 9.91467 33.5687 9.91133 33.542 9.898C33.4487 9.79133 33.402 9.71133 33.402 9.658C33.402 9.63133 33.402 9.60467 33.402 9.578C33.402 9.54467 33.3987 9.51467 33.392 9.488C33.372 9.348 33.352 9.208 33.332 9.068C33.3187 8.928 33.3053 8.78133 33.292 8.628C33.292 8.56133 33.2987 8.50133 33.312 8.448C33.332 8.38133 33.3453 8.32133 33.352 8.268C33.352 8.248 33.3453 8.21467 33.332 8.168C33.3253 8.12133 33.322 8.09133 33.322 8.078C33.3287 7.998 33.342 7.928 33.362 7.868C33.382 7.81467 33.3853 7.75133 33.372 7.678C33.3187 7.74467 33.2687 7.80467 33.222 7.858C33.1753 7.90467 33.1353 7.94467 33.102 7.978C33.0687 8.00467 33.0387 8.03467 33.012 8.068C32.9787 8.10133 32.9487 8.13467 32.922 8.168C32.782 8.25467 32.6653 8.33467 32.572 8.408C32.472 8.49467 32.3487 8.56133 32.202 8.608C32.1353 8.67467 32.072 8.73467 32.012 8.788C31.952 8.848 31.892 8.90133 31.832 8.948C31.772 9.00133 31.712 9.05467 31.652 9.108C31.592 9.168 31.5287 9.23133 31.462 9.298C31.3087 9.49133 31.1453 9.63467 30.972 9.728C30.9053 9.748 30.8553 9.76133 30.822 9.768C30.782 9.768 30.7453 9.75467 30.712 9.728C30.5187 9.62133 30.4053 9.48133 30.372 9.308C30.332 9.13467 30.3353 8.94467 30.382 8.738C30.342 8.65133 30.3487 8.52467 30.402 8.358C30.4553 8.198 30.462 8.08133 30.422 8.008C30.4353 7.94133 30.452 7.87133 30.472 7.798C30.492 7.73133 30.512 7.66133 30.532 7.588C30.5587 7.51467 30.5787 7.44133 30.592 7.368C30.6053 7.30133 30.6187 7.23133 30.632 7.158C30.672 7.098 30.6787 7.048 30.652 7.008C30.6187 6.97467 30.5887 6.94467 30.562 6.918C30.4087 7.00467 30.2587 7.11133 30.112 7.238C29.972 7.358 29.8287 7.48133 29.682 7.608C29.6487 7.64133 29.6153 7.67467 29.582 7.708C29.5487 7.73467 29.512 7.76467 29.472 7.798C29.4387 7.83133 29.4053 7.86133 29.372 7.888C29.332 7.92133 29.2953 7.95133 29.262 7.978L29.042 8.168C28.962 8.228 28.8987 8.29467 28.852 8.368C28.792 8.448 28.7453 8.50133 28.712 8.528L28.622 8.598C28.582 8.618 28.5453 8.64467 28.512 8.678C28.492 8.698 28.4653 8.72133 28.432 8.748C28.3987 8.768 28.362 8.788 28.322 8.808L28.192 8.858C28.1387 8.89133 28.082 8.938 28.022 8.998C27.962 9.058 27.9087 9.11133 27.862 9.158C27.8287 9.19133 27.7887 9.228 27.742 9.268C27.6953 9.308 27.6587 9.34467 27.632 9.378C27.5787 9.45133 27.512 9.53133 27.432 9.618C27.4053 9.658 27.3753 9.698 27.342 9.738C27.302 9.77133 27.2687 9.81133 27.242 9.858C27.2353 9.898 27.2087 9.94133 27.162 9.988L27.032 10.118C27.012 10.1313 26.9953 10.148 26.982 10.168C26.962 10.188 26.9387 10.2113 26.912 10.238C26.8787 10.278 26.8353 10.308 26.782 10.328L26.692 10.358C26.6387 10.3647 26.602 10.3747 26.582 10.388C26.5553 10.3947 26.5253 10.4047 26.492 10.418C26.4653 10.4313 26.4353 10.4447 26.402 10.458C26.342 10.4847 26.2753 10.4947 26.202 10.488L26.032 10.458C25.992 10.458 25.9487 10.438 25.902 10.398C25.902 10.3247 25.8787 10.2747 25.832 10.248C25.852 10.128 25.882 10.018 25.922 9.918C25.9553 9.818 25.9853 9.71467 26.012 9.608C26.0787 9.51467 26.1287 9.41133 26.162 9.298C26.202 9.19133 26.252 9.08133 26.312 8.968C26.352 8.85467 26.3987 8.73467 26.452 8.608L26.592 8.278C26.612 8.22467 26.6287 8.17467 26.642 8.128C26.662 8.07467 26.6787 8.02467 26.692 7.978C26.7187 7.88467 26.7553 7.80467 26.802 7.738C26.862 7.638 26.892 7.568 26.892 7.528C26.992 7.408 27.042 7.28467 27.042 7.158C27.0953 7.10467 27.132 7.028 27.152 6.928C27.1787 6.83467 27.2087 6.748 27.242 6.668C27.2553 6.63467 27.2687 6.60133 27.282 6.568C27.2953 6.54133 27.3087 6.508 27.322 6.468C27.3287 6.408 27.3287 6.36467 27.322 6.338C27.322 6.298 27.3353 6.25467 27.362 6.208C27.382 6.18133 27.3987 6.158 27.412 6.138C27.432 6.12467 27.452 6.108 27.472 6.088C27.492 6.068 27.5087 6.048 27.522 6.028C27.542 6.01467 27.562 5.99467 27.582 5.968C27.622 5.968 27.652 5.948 27.672 5.908C27.6987 5.868 27.7287 5.838 27.762 5.818C27.862 5.79133 27.9187 5.768 27.932 5.748C27.9453 5.73467 27.9553 5.728 27.962 5.728L28.172 5.618C28.1853 5.61133 28.1987 5.60467 28.212 5.598C28.2253 5.59133 28.242 5.58467 28.262 5.578C28.282 5.56467 28.2987 5.558 28.312 5.558C28.3253 5.55133 28.3353 5.54467 28.342 5.538C28.3553 5.538 28.3687 5.53467 28.382 5.528C28.3953 5.52133 28.412 5.51467 28.432 5.508C28.452 5.48133 28.4853 5.45467 28.532 5.428C28.5853 5.39467 28.622 5.36467 28.642 5.338C28.7353 5.378 28.8153 5.438 28.882 5.518C28.942 5.59133 28.9587 5.69133 28.932 5.818C28.9253 5.86467 28.912 5.908 28.892 5.948C28.872 5.988 28.8553 6.028 28.842 6.068C28.8287 6.10133 28.8153 6.14467 28.802 6.198C28.7953 6.25133 28.7853 6.29133 28.772 6.318C28.7053 6.43133 28.662 6.51467 28.642 6.568C28.622 6.63467 28.602 6.69133 28.582 6.738C28.542 6.798 28.5087 6.858 28.482 6.918C28.4553 6.99133 28.4287 7.048 28.402 7.088C28.382 7.13467 28.3487 7.18133 28.302 7.228C28.2687 7.27467 28.242 7.308 28.222 7.328C28.1887 7.35467 28.162 7.39133 28.142 7.438C28.1087 7.478 28.0753 7.52133 28.042 7.568C28.0087 7.608 27.9787 7.65467 27.952 7.708C27.892 7.80133 27.822 7.89133 27.742 7.978L27.602 8.258C27.5553 8.34467 27.5053 8.438 27.452 8.538Z" fill="black"/>
</svg>
