<svg width="45.78" height="18.2" viewBox="0 0 45.78 18.2" xmlns="http://www.w3.org/2000/svg"><path transform="translate(0 14) scale(.014 -.014)" d="M235 0V620H20V700H540V620H325V0Z"/><path transform="translate(7.84 14) scale(.014 -.014)" d="M55 90V470L145 560H535V250H145V80H515V0H145ZM145 320 449 330V480H145Z"/><path transform="translate(16.1 14) scale(.014 -.014)" d="M60 0V700H150V331H328L478 560H581L405 302L590 0H488L337 251H150V0Z"/><path transform="translate(24.5 14) scale(.014 -.014)" d="M60 650 150 700V540H410V460H150V80H410V0H150L60 90Z"/><path transform="translate(30.52 14) scale(.014 -.014)" d="M560 560V0H150L60 90V560H150V80H470V560Z"/><path transform="translate(39.2 14) scale(.014 -.014)" d="M60 0V470L150 560H450V480H150V0Z"/></svg>