<svg width="54" height="11" viewBox="0 0 54 11" fill="none" xmlns="http://www.w3.org/2000/svg">
<path d="M6.79 0.34C6.81667 0.393333 6.83 0.45 6.83 0.51C6.83 0.603333 6.79667 0.673333 6.73 0.72C6.65667 0.766666 6.55667 0.79 6.43 0.79H3.93V9.71C3.93 10.0367 3.81333 10.2 3.58 10.2C3.52667 10.2 3.46667 10.18 3.4 10.14V0.79H0.55C0.516667 0.73 0.5 0.673333 0.5 0.62C0.5 0.526667 0.536667 0.456667 0.61 0.41C0.676667 0.363333 0.776667 0.34 0.91 0.34H6.79ZM8.47 10.2C8.41667 10.2 8.35667 10.18 8.29 10.14V0.49C8.29 0.163333 8.4 0 8.62 0C8.68 0 8.74333 0.0199999 8.81 0.0599999V4.43C9.00333 3.96333 9.29667 3.58333 9.69 3.29C10.0833 3.00333 10.55 2.86 11.09 2.86C11.81 2.86 12.38 3.09333 12.8 3.56C13.2267 4.02667 13.44 4.65667 13.44 5.45V9.71C13.44 10.0367 13.3267 10.2 13.1 10.2C13.0467 10.2 12.9867 10.18 12.92 10.14V5.45C12.92 4.79 12.7567 4.26333 12.43 3.87C12.0967 3.48333 11.65 3.29 11.09 3.29C10.63 3.29 10.2267 3.42333 9.88 3.69C9.54 3.95667 9.27667 4.33 9.09 4.81C8.90333 5.28333 8.81 5.83333 8.81 6.46V9.71C8.81 10.0367 8.69667 10.2 8.47 10.2ZM17.21 10.28C16.5433 10.28 16.0133 10.0833 15.62 9.69C15.2333 9.29667 15.04 8.77 15.04 8.11C15.04 7.43 15.26 6.89 15.7 6.49C16.1467 6.09667 16.7433 5.9 17.49 5.9C17.9167 5.9 18.2967 5.96 18.63 6.08C18.97 6.2 19.2433 6.36667 19.45 6.58V5.52C19.45 4.84 19.27 4.29667 18.91 3.89C18.55 3.48333 18.0667 3.28 17.46 3.28C16.7467 3.28 16.1067 3.58 15.54 4.18C15.3533 4.18 15.26 4.09333 15.26 3.92C15.26 3.82 15.3667 3.68333 15.58 3.51C15.7867 3.33667 16.0633 3.18667 16.41 3.06C16.7567 2.92667 17.1233 2.86 17.51 2.86C18.25 2.86 18.8433 3.10333 19.29 3.59C19.7367 4.07667 19.96 4.72 19.96 5.52V9.71C19.96 10.0367 19.85 10.2 19.63 10.2C19.57 10.2 19.51 10.18 19.45 10.14V9.24C19.1833 9.56 18.8567 9.81333 18.47 10C18.0767 10.1867 17.6567 10.28 17.21 10.28ZM17.15 9.86C17.5233 9.86 17.8867 9.78333 18.24 9.63C18.5933 9.47667 18.8833 9.26 19.11 8.98C19.3367 8.7 19.45 8.37667 19.45 8.01V7.55C19.45 7.15 19.25 6.84333 18.85 6.63C18.4567 6.42333 17.98 6.32 17.42 6.32C16.8467 6.32 16.3967 6.48333 16.07 6.81C15.7367 7.13667 15.57 7.57333 15.57 8.12C15.57 8.65333 15.7133 9.07667 16 9.39C16.28 9.70333 16.6633 9.86 17.15 9.86ZM23.63 10.28C23.19 10.28 22.7967 10.2167 22.45 10.09C22.0967 9.96333 21.8233 9.81333 21.63 9.64C21.4367 9.46667 21.34 9.33 21.34 9.23C21.34 9.06333 21.4333 8.98 21.62 8.98C21.8667 9.26 22.1633 9.47667 22.51 9.63C22.8567 9.78333 23.22 9.86 23.6 9.86C24.1333 9.86 24.5633 9.72 24.89 9.44C25.21 9.16 25.37 8.78667 25.37 8.32C25.37 7.92 25.2267 7.58667 24.94 7.32C24.6533 7.05333 24.16 6.80333 23.46 6.57C22.7267 6.31667 22.2067 6.04 21.9 5.74C21.6 5.44667 21.45 5.07333 21.45 4.62C21.45 4.08 21.6367 3.65333 22.01 3.34C22.3833 3.02 22.8833 2.86 23.51 2.86C23.9167 2.86 24.2833 2.92333 24.61 3.05C24.9367 3.17667 25.1967 3.32667 25.39 3.5C25.5833 3.67333 25.68 3.81 25.68 3.91C25.68 4.07667 25.5867 4.16 25.4 4.16C25.1333 3.86 24.8533 3.64 24.56 3.5C24.26 3.35333 23.9233 3.28 23.55 3.28C23.0567 3.28 22.67 3.39667 22.39 3.63C22.1167 3.86333 21.98 4.17667 21.98 4.57C21.98 4.93 22.1233 5.23 22.41 5.47C22.7033 5.71 23.2133 5.95667 23.94 6.21C24.6467 6.45667 25.15 6.74 25.45 7.06C25.75 7.38 25.9 7.79 25.9 8.29C25.9 8.91667 25.7 9.40667 25.3 9.76C24.9 10.1067 24.3433 10.28 23.63 10.28ZM29.27 10.28C28.61 10.28 28.0833 10.0833 27.69 9.69C27.2967 9.29667 27.1 8.77 27.1 8.11C27.1 7.43 27.3233 6.89 27.77 6.49C28.21 6.09667 28.8033 5.9 29.55 5.9C29.9833 5.9 30.3667 5.96 30.7 6.08C31.04 6.2 31.31 6.36667 31.51 6.58V5.52C31.51 4.84 31.3333 4.29667 30.98 3.89C30.62 3.48333 30.1367 3.28 29.53 3.28C28.8167 3.28 28.1767 3.58 27.61 4.18C27.4233 4.18 27.33 4.09333 27.33 3.92C27.33 3.82 27.4333 3.68333 27.64 3.51C27.8533 3.33667 28.1333 3.18667 28.48 3.06C28.82 2.92667 29.1867 2.86 29.58 2.86C30.32 2.86 30.9133 3.10333 31.36 3.59C31.8067 4.07667 32.03 4.72 32.03 5.52V9.71C32.03 10.0367 31.92 10.2 31.7 10.2C31.64 10.2 31.5767 10.18 31.51 10.14V9.24C31.25 9.56 30.9233 9.81333 30.53 10C30.1433 10.1867 29.7233 10.28 29.27 10.28ZM29.22 9.86C29.5933 9.86 29.9567 9.78333 30.31 9.63C30.6633 9.47667 30.9533 9.26 31.18 8.98C31.4 8.7 31.51 8.37667 31.51 8.01V7.55C31.51 7.15 31.3133 6.84333 30.92 6.63C30.52 6.42333 30.04 6.32 29.48 6.32C28.9133 6.32 28.4633 6.48333 28.13 6.81C27.8033 7.13667 27.64 7.57333 27.64 8.12C27.64 8.65333 27.78 9.07667 28.06 9.39C28.3467 9.70333 28.7333 9.86 29.22 9.86ZM36.26 10.28C35.4133 10.28 34.74 9.96667 34.24 9.34C33.74 8.71333 33.49 7.85 33.49 6.75C33.49 5.97667 33.6167 5.29667 33.87 4.71C34.1167 4.12333 34.4733 3.66667 34.94 3.34C35.4 3.02 35.9433 2.86 36.57 2.86C37.0433 2.86 37.4633 2.95 37.83 3.13C38.19 3.31667 38.4933 3.55667 38.74 3.85V0.49C38.74 0.163333 38.85 0 39.07 0C39.13 0 39.1933 0.0199999 39.26 0.0599999V9.71C39.26 10.0367 39.1467 10.2 38.92 10.2C38.8667 10.2 38.8067 10.18 38.74 10.14V8.8C38.4667 9.26667 38.12 9.63 37.7 9.89C37.28 10.15 36.8 10.28 36.26 10.28ZM36.26 9.86C36.7333 9.86 37.16 9.73667 37.54 9.49C37.92 9.24333 38.2133 8.90333 38.42 8.47C38.6333 8.03667 38.74 7.54333 38.74 6.99V5.37C38.74 4.73 38.5333 4.22333 38.12 3.85C37.7 3.47 37.1833 3.28 36.57 3.28C35.7767 3.28 35.1533 3.59667 34.7 4.23C34.2467 4.85667 34.02 5.69667 34.02 6.75C34.02 7.73 34.2167 8.49333 34.61 9.04C35.0033 9.58667 35.5533 9.86 36.26 9.86ZM41.72 1.59C41.6067 1.59 41.5167 1.55333 41.45 1.48C41.3767 1.41333 41.34 1.32333 41.34 1.21C41.34 1.09667 41.3767 1.00333 41.45 0.93C41.5167 0.863333 41.6067 0.83 41.72 0.83C41.8333 0.83 41.9267 0.863333 42 0.93C42.0733 1.00333 42.11 1.09667 42.11 1.21C42.11 1.32333 42.0733 1.41333 42 1.48C41.9267 1.55333 41.8333 1.59 41.72 1.59ZM41.65 10.2C41.5967 10.2 41.5367 10.18 41.47 10.14V3.43C41.47 3.10333 41.58 2.94 41.8 2.94C41.86 2.94 41.9233 2.96 41.99 3V9.71C41.99 10.0367 41.8767 10.2 41.65 10.2ZM46.59 9.37C46.7433 9.37 46.82 9.44333 46.82 9.59C46.82 9.75 46.72 9.89 46.52 10.01C46.3133 10.1367 46.0667 10.2 45.78 10.2C45.4067 10.2 45.12 10.0833 44.92 9.85C44.72 9.62333 44.62 9.3 44.62 8.88V3.42H43.6C43.5667 3.36667 43.55 3.31667 43.55 3.27C43.55 3.18333 43.5867 3.11667 43.66 3.07C43.7267 3.02333 43.8267 3 43.96 3H44.62V1.67C44.62 1.34333 44.73 1.18 44.95 1.18C45.01 1.18 45.0733 1.2 45.14 1.24V3H46.77C46.8033 3.05333 46.82 3.10333 46.82 3.15C46.82 3.23667 46.7833 3.30333 46.71 3.35C46.6433 3.39667 46.5433 3.42 46.41 3.42H45.14V8.82C45.14 9.13333 45.1967 9.37 45.31 9.53C45.43 9.69667 45.6067 9.78 45.84 9.78C46.1733 9.78 46.4233 9.64333 46.59 9.37ZM48.43 10.2C48.37 10.2 48.3067 10.18 48.24 10.14V0.49C48.24 0.163333 48.3533 0 48.58 0C48.6333 0 48.6933 0.0199999 48.76 0.0599999V4.43C48.96 3.96333 49.2533 3.58333 49.64 3.29C50.0333 3.00333 50.5 2.86 51.04 2.86C51.76 2.86 52.3333 3.09333 52.76 3.56C53.1867 4.02667 53.4 4.65667 53.4 5.45V9.71C53.4 10.0367 53.2867 10.2 53.06 10.2C53.0067 10.2 52.9467 10.18 52.88 10.14V5.45C52.88 4.79 52.7133 4.26333 52.38 3.87C52.0467 3.48333 51.6 3.29 51.04 3.29C50.5867 3.29 50.1867 3.42333 49.84 3.69C49.4933 3.95667 49.2267 4.33 49.04 4.81C48.8533 5.28333 48.76 5.83333 48.76 6.46V9.71C48.76 10.0367 48.65 10.2 48.43 10.2Z" fill="black"/>
</svg>
