<svg width="53.13" height="16.8" viewBox="0 0 53.13 16.8" xmlns="http://www.w3.org/2000/svg"><path transform="translate(0 12.18) scale(.014 -.014)" d="m878 409q-4 0-4 2 0 3 7 7 22 14 42.5 39.5t20.5 56.5q0 24-17.5 38t-44 21.5-52.5 10-43 2.5q-88 0-171-18.5t-163-43.5-161.5-47-168.5-30q-40-4-62.5 21.5t-22.5 60.5q0 14 19.5 31.5t50.5 34.5 66.5 31.5 69.5 23.5 59 9h3q5 0 10.5-1t5.5-3q0-3-16-6-17-3-47-12t-64-22-65-28.5-51-31-20-29.5q0-15 28-23t71-8q75 0 154 18.5t159.5 43 161 43 156.5 18.5q38 0 75-6 15-2 31-5t29-11q14-7 22-19.5t5-34.5q5-8 12.5-23.5t7.5-32.5q0-12-7-23t-27-19l-22-9q-5-2-14.5-11.5t-14.5-12.5q-4-2-8-2zm-488-471q-29 0-40.5 23.5t-11.5 44.5q0 38 21.5 89.5t56 108.5 74 111 76.5 98 62 68q-6 8-6 15 0 12 12 24t27 21.5 23 15.5q14-1 31-8t17-22-16.5-31-26.5-25q-7-7-14.5-13t-14.5-12-12.5-11.5-9.5-9.5q-25-26-60.5-65.5t-72.5-86.5-69-97-52-97.5-20-87.5q0-16 6.5-29.5t23.5-18.5q2-1 3-1.5t1-0.5q0-3-8-3z"/><path transform="translate(7.126 12.18) scale(.014 -.014)" d="m196-78q-27 0-35.5 16.5t-8.5 31.5q0 24 13 58t30.5 70 32.5 63q12 21 12 33 0 8-6 8-8 0-27.5-17t-40.5-40.5-36-43.5-28.5-45-24.5-42q-5-9-12-9t-14 8-7 29q0 9 8.5 41.5t23.5 77.5 34.5 93 41.5 90q29 53 63 103.5t68 91.5 64 65 49 24q17 0 22-7.5t8.5-17 14.5-16.5q-4-25-24.5-63t-59.5-80q-54-58-109-126.5t-99-134.5q-4-5-7.5-5t0.5 6q34 60 76.5 114t87 107.5 83.5 109.5q12 17 17 28.5t5 18.5q0 11-11 11-23 0-55-34-32-35-69.5-84t-66.5-93q-16-24-36.5-61.5t-40-78-32-74.5-12.5-51q0-9 7-9 4 0 8 3t8 7q24 24 51.5 53t55.5 58.5 51 52.5q11-4 19.5-4t19.5-5q10-4 10-16 0-7-4-17t-10-21q-22-37-48-71.5t-47.5-71-31.5-80.5q-1-5-1.5-11t-0.5-11q0-26 15-26 9 0 19 9l28 25q-8-18-17.5-29t-23.5-11z"/><path transform="translate(11.06 12.18) scale(.014 -.014)" d="m106-13q-27 0-49.5 19.5t-22.5 57.5q0 30 16 65t41.5 67 54.5 53 54 22q4-4 9.5-6t10.5-4l26-6q22-6 22-28 0-13-8.5-28t-25.5-26q-9-6-19.5-12t-21.5-12l-45-24q-21-11-37-23.5t-23-26.5q0 0-2.5-0.5t-1.5 3.5q7 17 27.5 34.5t41.5 30.5q10 8 20.5 14t20.5 13 19.5 14.5 16.5 14.5q8 8 11.5 16t3.5 14q0 19-22 19-14 0-32-12-22-15-42-35.5t-38-44.5q-19-26-33.5-60t-14.5-57 13.5-32.5 31.5-9.5q25 0 48 13 17 10 32 25.5t25 27.5q8 10 18.5 24t14.5 21q2 2 3 0t1-3q-4-7-13.5-22.5t-27.5-38.5q-21-27-44-42t-59-15z"/><path transform="translate(16.338 12.18) scale(.014 -.014)" d="m436-49q-15 0-32.5 10t-17.5 34q0 13 21 44.5t52.5 74.5 63.5 89q19 27 51 68.5t69.5 89 72 93.5 58.5 83q13 20 21 38t8 31q0 19-17 29.5t-57 10.5q-32 0-88.5-9.5t-125-27.5-139.5-42q-59-20-115.5-44t-102.5-49.5-75-50.5q-7-7-12.5-16.5t-5.5-17.5q0-7 6-13.5t22-6.5q13 0 13-5 0-2-5-4t-11-1q-43 15-61.5 33t-18.5 37q0 15 30 36t81 44.5 115.5 47 133.5 43.5q89 26 177 42.5t158 16.5q67 0 108.5-18.5t41.5-61.5q0-19-19.5-52.5t-52-76-70.5-88.5-75-90.5-67-81.5-46-62q-4-8-4-14v-1q0-6 4-7t8 4q20 23 57 61t84 83 97.5 87.5 98.5 73.5q35 23 71 36t59 13q17 0 27.5-18t10.5-28q0-18-15-48t-37.5-67.5-47-79.5-44.5-84.5-28-82.5q-1-4-1.5-8t-0.5-8q0-19 14-19 2 0 4.5 0.5t5.5 1.5q18 6 33.5 21.5t25.5 33.5q3 5 6 3.5t1-6.5q-6-10-11.5-20t-10.5-21q-9-16-18.5-25.5t-19.5-9.5q-6 0-19 5.5t-30 18.5q-14 10-14 36 0 22 9 49.5t21.5 55 23.5 49.5 16 32q17 31 37.5 69t34.5 73q6 14 6 23 0 15-10 20.5t-21 5.5q-28-1-71-30t-94-75.5-103-101.5-98-109-80-97.5-49-66.5q-5-5-17-5z"/><path transform="translate(29.904 12.18) scale(.014 -.014)" d="m64-11q-21 0-31.5 20.5t-10.5 35.5q0 35 21 73t53.5 72 68.5 55 67 21q9 0 20.5-7.5t21.5-23.5q2-2 5-8.5t0-11.5l-1 2q-2 5-9 8.5t-21 3.5q-23 0-51.5-16t-57-43-51.5-59-34-65q-7-17-7-29 0-15 11-15 8 0 19 8 21 16 44 41t44.5 52 38 50 23.5 34q3 4 7.5 4.5t11.5 0.5q20 0 25.5-6.5t0.5-13.5q-13-19-27.5-44t-25-49-10.5-43q0-15 12-15 11 0 24 13 12 11 28.5 32t33 44 27.5 40q4 5 6.5 4.5t-0.5-6.5q-16-25-33-51.5t-36-49.5q-36-46-54-46-16 0-30 10t-14 29q0 20 8.5 46.5t15.5 41.5q-21-32-48-64t-50.5-53.5-34.5-21.5z"/><path transform="translate(33.684 12.18) scale(.014 -.014)" d="m72-3q-22 0-33.5 10t-9.5 26q2 11 6 25t10 28l24 56q-1 2-1.5 3.5t-0.5 2.5q-1 4 1 7 26 40 48 67t29 27q14 0 33-19-13-16-27-35.5t-27-39.5q-14-21-29.5-45.5t-21.5-44.5q-6-18-6-28 0-14 10-14 13 0 38 27 17 18 37.5 44.5t39.5 53.5q20 28 37.5 52.5t29.5 39.5q11 14 20 14 13 0 30-22-14-20-34-51.5t-36.5-64-21.5-57.5q-1-4-1.5-8t-0.5-9q0-29 15-29 8 0 19.5 9t22.5 21 17 20q32 43 61 89 6 9 8 9t1.5-3.5-1.5-5.5q-20-33-46.5-72t-52.5-64q-14-14-28-14-27 0-40 13t-13 29q0 10 3 21.5t7 23.5l27 71q-15-19-25-31.5t-18-23.5q-7-10-16-22.5t-19-24.5q-19-25-37-43t-28-18z"/><path transform="translate(37.674 12.18) scale(.014 -.014)" d="m94-15q-21 0-36.5 17t-15.5 49q0 24 11.5 58.5t29 73 37 73 34.5 58.5q-17 0-30 0.5t-21-0.5q-7 0-8.5 2.5t-0.5 3.5q0 3 3.5 8t6.5 5h61q5 6 13.5 21t17.5 32 15.5 30.5 6.5 16.5q0 9-6 13-4 2-4 2-1 0-1 0.5t-1 0.5q-1 1-1 3 0 3 3 4.5t5 1.5q6 0 11.5-2.5t18.5-9.5q6-3 12.5-5.5t10.5-5.5l8-5q-6-10-18.5-28t-24.5-37-20-32h179q12 0 12-3t-8.5-6.5-12.5-3.5q-13-1-36.5-1t-50-0.5-49-2-31.5-4.5q-15-5-34-32.5t-36.5-64.5-31.5-72q-3-8-10.5-27t-14-41-6.5-41q0-18 7-26t17-8q12 0 27.5 14t34.5 36q20 25 37.5 50.5t22.5 34.5q8 13 10 13 1 0 1-0.5t0-0.5q0-3-3-10.5t-6-12.5q-18-26-39-58t-43-55q-26-26-53-26z"/><path transform="translate(40.096 12.18) scale(.014 -.014)" d="m226 289q-15 6-25.5 19.5t-7.5 29.5q2 9 5.5 11.5t20.5 3.5l53 9q9 2 9 0 0-4-7-6-16-4-28-12t-20-22q-2-3-2-9t2.5-11.5 5.5-9.5 0.5-4-6.5 1zm-117-303q-34 0-47.5 21.5t-13.5 51.5q0 23 6.5 47t16.5 43q-9 4-6 7 7 10 17.5 25t21.5 30q13 17 23.5 28t22.5 11q8 0 14.5-5t13.5-10q-23-24-46-59t-37.5-73.5-14.5-75.5q0-16 7.5-22.5t18.5-6.5q23 0 41 16 19 17 44.5 49.5t48.5 68.5q6 8 9.5 9t0.5-4q-8-16-24.5-40.5t-34.5-48.5-31-37-26.5-19-24.5-6z"/><path transform="translate(42.518 12.18) scale(.014 -.014)" d="m-114-315q-14 0-31 10t-28.5 24.5-11.5 29.5q0 16 18 40t44 49 51.5 46 40.5 32q57 39 120 68.5t123 48.5q8 14 16 40t14 53 6 43q-15-20-36.5-44.5t-44.5-47.5-45.5-38-39.5-15q-21 0-37 11t-16 35q0 12 5 27t16 34q12 20 34.5 46t50 50.5 55.5 41 50 16.5q13 0 27.5-10.5t18.5-23.5q4-10 3.5-14.5t-1.5-6.5q-2-2-6 3-3 5-14.5 8t-23.5 3q-5 0-10-1t-10-3q-21-10-46-28.5t-48-41.5q-34-34-48.5-61.5t-14.5-44.5q0-28 23-28 14 0 30 13 29 23 52 45.5t41 42.5q17 20 29.5 36t20.5 27q15 0 18.5-5t3.5-11q0-10-4.5-39t-12.5-61-20-54q27-4 40.5-21.5t13.5-40.5q0-4 0-8t-1-8q-1-7-5.5-6.5t-3.5 6.5q2 26-7 45.5t-42 19.5q-18-35-48-79t-67.5-88.5-79-82-83-60-79.5-22.5zm-12 19q24 0 65 23 29 16 62 45t65.5 64.5 61 70.5 48.5 64.5 28 45.5q-27-6-67-23t-84.5-43.5-86.5-59.5-74-70q-17-22-30-47t-13-43q0-27 25-27z"/><path transform="translate(46.508 12.18) scale(.014 -.014)" d="m64-11q-21 0-31.5 20.5t-10.5 35.5q0 35 21 73t53.5 72 68.5 55 67 21q9 0 20.5-7.5t21.5-23.5q2-2 5-8.5t0-11.5l-1 2q-2 5-9 8.5t-21 3.5q-23 0-51.5-16t-57-43-51.5-59-34-65q-7-17-7-29 0-15 11-15 8 0 19 8 21 16 44 41t44.5 52 38 50 23.5 34q3 4 7.5 4.5t11.5 0.5q20 0 25.5-6.5t0.5-13.5q-13-19-27.5-44t-25-49-10.5-43q0-15 12-15 11 0 24 13 12 11 28.5 32t33 44 27.5 40q4 5 6.5 4.5t-0.5-6.5q-16-25-33-51.5t-36-49.5q-36-46-54-46-16 0-30 10t-14 29q0 20 8.5 46.5t15.5 41.5q-21-32-48-64t-50.5-53.5-34.5-21.5z"/><path transform="translate(50.288 12.18) scale(.014 -.014)" d="m105-18q-25 0-43 17.5t-18 56.5q0 50 26 122t66 151q31 59 66 113t69 96.5 62.5 67 46.5 24.5q17 0 25.5-9t15-20 17.5-18q-1-23-24-58t-55-76q-21-25-59.5-70.5t-76.5-93.5q-31-38-55-73t-37-58q-4-7-6-5t0 6q10 20 31.5 51.5t48.5 67.5 53 69.5 45 58.5 26 33q15 19 29 36.5t25 33.5q12 18 17.5 32t5.5 23q0 16-13 16-9 0-22.5-9t-30.5-29q-25-30-58.5-73.5t-68.5-95.5-64.5-108.5-48-113-18.5-108.5q0-24 10-34t24-10q15 0 31.5 8.5t27.5 21.5q17 18 33.5 40t30 41.5 19.5 29.5q3 5 6 5 5 0 0-8-16-27-37.5-56.5t-38.5-50.5q-16-20-38.5-32t-44.5-12z"/></svg>