<svg width="66" height="10" viewBox="0 0 66 10" fill="none" xmlns="http://www.w3.org/2000/svg">
<path d="M4.1 1.12H6.73V0.89H4.1H1.48V1.12H4.1ZM4.21 8.76V1.01H3.98V8.76H4.21ZM4.04 8.86L5.43 9.73L5.54 9.53L4.15 8.66C4.14333 8.65333 4.12667 8.65 4.1 8.65C4.08 8.65 4.06 8.65333 4.04 8.66L2.67 9.53L2.78 9.73L4.15 8.86C4.17 8.84 4.15333 8.83 4.1 8.83C4.04 8.83 4.02 8.84 4.04 8.86ZM6.81 1.09L7.68 0.19L7.51 0.0300002L6.64 0.92C6.63333 0.94 6.62667 0.963334 6.62 0.99C6.62 1.01667 6.62333 1.04 6.63 1.06L7.5 2.35L7.69 2.24L6.83 0.95C6.81667 0.923334 6.80667 0.943334 6.8 1.01C6.78667 1.07 6.79 1.09667 6.81 1.09ZM1.38 0.95L0.51 2.24L0.71 2.35L1.58 1.06C1.59333 1.04 1.6 1.01667 1.6 0.99C1.59333 0.963334 1.58 0.94 1.56 0.92L0.69 0.0300002L0.53 0.19L1.39 1.09C1.41 1.09667 1.42 1.07 1.42 1.01C1.41333 0.943334 1.4 0.923334 1.38 0.95ZM4.03 0.92L2.99 1.8L3.13 1.97L4.17 1.09C4.18333 1.07 4.16 1.06 4.1 1.06C4.03333 1.06 4.01 1.07 4.03 1.09L5.08 1.97L5.22 1.8L4.17 0.92C4.15 0.9 4.12667 0.89 4.1 0.89C4.06667 0.89 4.04333 0.9 4.03 0.92ZM2.72 9.74H5.48C5.52667 9.74 5.56 9.72333 5.58 9.69C5.6 9.65 5.6 9.61 5.58 9.57C5.51333 9.43 5.45667 9.26667 5.41 9.08C5.35667 8.88667 5.31667 8.61667 5.29 8.27C5.27 7.92333 5.25333 7.47 5.24 6.91C5.22667 6.34333 5.22 5.62 5.22 4.74C5.22 4.08667 5.22333 3.53 5.23 3.07C5.23667 2.61 5.24667 2.21667 5.26 1.89L5.15 2C5.63 2.00667 6.02333 2.03 6.33 2.07C6.63 2.11 6.87333 2.15333 7.06 2.2C7.24667 2.25333 7.40667 2.31667 7.54 2.39C7.58667 2.41 7.62667 2.40667 7.66 2.38C7.69333 2.36 7.71 2.33 7.71 2.29V0.11C7.71 0.0833335 7.69667 0.0566669 7.67 0.0300002C7.65 0.0100002 7.62667 0 7.6 0H0.61C0.583333 0 0.556667 0.0100002 0.53 0.0300002C0.51 0.0566669 0.5 0.0833335 0.5 0.11V2.29C0.5 2.33 0.516667 2.36 0.55 2.38C0.59 2.40667 0.63 2.41 0.67 2.39C0.796667 2.31667 0.953333 2.25333 1.14 2.2C1.32 2.15333 1.56333 2.11 1.87 2.07C2.17667 2.03 2.57333 2.00667 3.06 2L2.95 1.89C2.97 2.21667 2.98 2.61 2.98 3.07C2.98667 3.53 2.99 4.08667 2.99 4.74C2.99 5.62 2.98333 6.34333 2.97 6.91C2.95667 7.47 2.93667 7.92333 2.91 8.27C2.89 8.61667 2.85667 8.88667 2.81 9.08C2.76333 9.26667 2.70333 9.43 2.63 9.57C2.61 9.61 2.61 9.65 2.63 9.69C2.65667 9.72333 2.68667 9.74 2.72 9.74ZM5.48 9.52H2.72L2.82 9.69C2.89333 9.55 2.95333 9.37667 3 9.17C3.04667 8.97 3.08667 8.69667 3.12 8.35C3.15333 7.99667 3.17667 7.53333 3.19 6.96C3.20333 6.38 3.21 5.64 3.21 4.74C3.21 4.08667 3.21 3.53 3.21 3.07C3.20333 2.61 3.19 2.21667 3.17 1.89C3.17 1.85 3.16 1.82 3.14 1.8C3.11333 1.78667 3.08667 1.78 3.06 1.78C2.55333 1.78667 2.14333 1.81 1.83 1.85C1.51 1.89667 1.25333 1.94667 1.06 2C0.86 2.05333 0.69 2.12 0.55 2.2L0.72 2.29V0.11L0.61 0.22H7.6L7.48 0.11V2.29L7.65 2.2C7.51 2.12 7.34333 2.05333 7.15 2C6.95 1.94667 6.69333 1.89667 6.38 1.85C6.06 1.81 5.65 1.78667 5.15 1.78C5.11667 1.78 5.09 1.78667 5.07 1.8C5.04333 1.82 5.03 1.85 5.03 1.89C5.02333 2.21667 5.01667 2.61 5.01 3.07C4.99667 3.53 4.99 4.08667 4.99 4.74C4.99 5.64 4.99667 6.38 5.01 6.96C5.02333 7.53333 5.04667 7.99667 5.08 8.35C5.11333 8.69667 5.15667 8.97 5.21 9.17C5.26333 9.37667 5.32 9.55 5.38 9.69L5.48 9.52ZM9.82 8.76V2.38H9.6V8.76H9.82ZM9.65 8.86L10.98 9.73L11.1 9.53L9.77 8.66C9.75667 8.65333 9.74 8.65 9.72 8.65C9.69333 8.65 9.67 8.65333 9.65 8.66L8.31 9.53L8.42 9.73L9.77 8.86C9.78333 8.84 9.76333 8.83 9.71 8.83C9.65667 8.83 9.63667 8.84 9.65 8.86ZM9.77 2.28L8.42 1.41L8.31 1.61L9.65 2.48C9.67 2.48667 9.69333 2.49 9.72 2.49C9.74 2.49 9.75667 2.48667 9.77 2.48L11.1 1.61L10.98 1.41L9.65 2.28C9.63667 2.28667 9.65667 2.29 9.71 2.29C9.76333 2.29 9.78333 2.28667 9.77 2.28ZM8.37 9.74H11.04C11.0867 9.74 11.12 9.72333 11.14 9.69C11.16 9.65 11.16 9.61 11.14 9.57C11.0733 9.45 11.0167 9.31 10.97 9.15C10.9233 8.98333 10.8867 8.75333 10.86 8.46C10.8333 8.16667 10.8133 7.78 10.8 7.3C10.78 6.82 10.77 6.2 10.77 5.44C10.77 4.74 10.78 4.16667 10.8 3.72C10.8133 3.26667 10.8333 2.90333 10.86 2.63C10.8867 2.35667 10.9233 2.14333 10.97 1.99C11.0167 1.83 11.0733 1.69 11.14 1.57C11.16 1.52333 11.16 1.48333 11.14 1.45C11.12 1.41667 11.0867 1.4 11.04 1.4H8.37C8.33 1.4 8.3 1.41667 8.28 1.45C8.25333 1.48333 8.25 1.52333 8.27 1.57C8.33667 1.69 8.39333 1.83 8.44 1.99C8.48667 2.14333 8.52333 2.35667 8.55 2.63C8.57667 2.90333 8.59667 3.26667 8.61 3.72C8.62333 4.16667 8.63 4.74 8.63 5.44C8.63 6.2 8.62333 6.82 8.61 7.3C8.59667 7.78 8.57667 8.16667 8.55 8.46C8.52333 8.75333 8.48667 8.98333 8.44 9.15C8.39333 9.31 8.33667 9.45 8.27 9.57C8.25 9.61 8.25333 9.65 8.28 9.69C8.3 9.72333 8.33 9.74 8.37 9.74ZM11.04 9.52H8.37L8.46 9.69C8.52667 9.55667 8.58333 9.40667 8.63 9.24C8.67667 9.07333 8.71667 8.84 8.75 8.54C8.78333 8.24 8.81 7.84333 8.83 7.35C8.85 6.85667 8.86 6.22 8.86 5.44C8.86 4.72667 8.85 4.13667 8.83 3.67C8.81 3.21 8.78333 2.84 8.75 2.56C8.71667 2.28 8.67667 2.05667 8.63 1.89C8.58333 1.72333 8.52667 1.57667 8.46 1.45L8.37 1.62H11.04L10.94 1.45C10.8733 1.57667 10.8167 1.72333 10.77 1.89C10.7233 2.05667 10.6833 2.28 10.65 2.56C10.6233 2.84 10.6 3.21 10.58 3.67C10.56 4.13667 10.55 4.72667 10.55 5.44C10.55 6.22 10.56 6.85667 10.58 7.35C10.6 7.84333 10.6233 8.24 10.65 8.54C10.6833 8.84 10.7233 9.07333 10.77 9.24C10.8167 9.40667 10.8733 9.55667 10.94 9.69L11.04 9.52ZM13.97 8.73V2.38H13.74V8.73C13.74 8.76333 13.75 8.79 13.77 8.81C13.79 8.83667 13.8167 8.85 13.85 8.85C14.5367 8.85667 15.1233 8.85667 15.61 8.85C16.1033 8.83667 16.4933 8.81667 16.78 8.79L16.75 8.57C16.4633 8.59667 16.08 8.61333 15.6 8.62C15.12 8.63333 14.5367 8.63333 13.85 8.62C13.8233 8.62 13.8367 8.64667 13.89 8.7C13.9433 8.75333 13.97 8.76333 13.97 8.73ZM13.91 2.28L12.57 1.41L12.45 1.61L13.8 2.48C13.82 2.48667 13.84 2.49 13.86 2.49C13.8867 2.49 13.9033 2.48667 13.91 2.48L15.24 1.61L15.13 1.41L13.8 2.28C13.78 2.28667 13.7967 2.29 13.85 2.29C13.91 2.29 13.93 2.28667 13.91 2.28ZM16.68 8.75L17.55 9.7L17.72 9.56L16.85 8.61C16.83 8.59 16.8233 8.61333 16.83 8.68C16.8367 8.74667 16.8433 8.77 16.85 8.75L18 7.39L17.83 7.25L16.68 8.61C16.66 8.63 16.65 8.65333 16.65 8.68C16.65 8.70667 16.66 8.73 16.68 8.75ZM13.8 8.64L12.45 9.53L12.57 9.73L13.91 8.83C13.9167 8.82333 13.92 8.82 13.92 8.82L14.92 7.95L14.78 7.78L13.78 8.65C13.7733 8.65 13.7733 8.64667 13.78 8.64C13.7933 8.64 13.8 8.64 13.8 8.64ZM12.51 9.74H17.63C17.6633 9.74 17.6867 9.73 17.7 9.71C17.72 9.69667 17.7367 9.67333 17.75 9.64L18.03 7.33C18.0367 7.28333 18.02 7.24667 17.98 7.22C17.9333 7.19333 17.8867 7.2 17.84 7.24C17.7 7.34667 17.5233 7.44 17.31 7.52C17.09 7.6 16.7867 7.66 16.4 7.7C16.02 7.73333 15.5033 7.75 14.85 7.75L14.96 7.87C14.9533 7.57667 14.9433 7.23333 14.93 6.84C14.9233 6.45333 14.92 5.98667 14.92 5.44C14.92 4.74 14.9267 4.16667 14.94 3.72C14.9533 3.26667 14.9733 2.90333 15 2.63C15.0267 2.35667 15.0633 2.14333 15.11 1.99C15.1567 1.83 15.2133 1.69 15.28 1.57C15.3 1.52333 15.3 1.48333 15.28 1.45C15.26 1.41667 15.2267 1.4 15.18 1.4H12.51C12.47 1.4 12.44 1.41667 12.42 1.45C12.3933 1.48333 12.39 1.52333 12.41 1.57C12.4767 1.69 12.5333 1.83 12.58 1.99C12.6267 2.14333 12.6633 2.35667 12.69 2.63C12.7167 2.90333 12.74 3.26667 12.76 3.72C12.7733 4.16667 12.78 4.74 12.78 5.44C12.78 6.2 12.7733 6.82 12.76 7.3C12.74 7.78 12.7167 8.16667 12.69 8.46C12.6633 8.75333 12.6267 8.98333 12.58 9.15C12.5333 9.31 12.4767 9.45 12.41 9.57C12.39 9.61 12.3933 9.65 12.42 9.69C12.44 9.72333 12.47 9.74 12.51 9.74ZM17.63 9.52H12.51L12.61 9.69C12.6767 9.55667 12.7333 9.40667 12.78 9.24C12.8267 9.07333 12.8667 8.84 12.9 8.54C12.9267 8.24 12.95 7.84333 12.97 7.35C12.99 6.85667 13 6.22 13 5.44C13 4.72667 12.99 4.13667 12.97 3.67C12.95 3.21 12.9267 2.84 12.9 2.56C12.8667 2.28 12.8267 2.05667 12.78 1.89C12.7333 1.72333 12.6767 1.57667 12.61 1.45L12.51 1.62H15.18L15.09 1.45C15.0233 1.57667 14.9667 1.72333 14.92 1.89C14.8733 2.05667 14.8333 2.28 14.8 2.56C14.7667 2.84 14.74 3.21 14.72 3.67C14.7 4.13667 14.69 4.72667 14.69 5.44C14.69 5.98667 14.6967 6.45333 14.71 6.84C14.7167 7.23333 14.7267 7.57667 14.74 7.87C14.74 7.90333 14.75 7.93 14.77 7.95C14.7967 7.97 14.8233 7.98 14.85 7.98C15.5367 7.98 16.0833 7.96 16.49 7.92C16.89 7.87333 17.2 7.80667 17.42 7.72C17.6467 7.63333 17.8333 7.52667 17.98 7.4L17.8 7.31L17.52 9.62L17.63 9.52ZM23.3 2.55L23.33 2.32C23.05 2.29333 22.71 2.27333 22.31 2.26C21.91 2.24667 21.43 2.24 20.87 2.24C20.3167 2.24 19.84 2.24667 19.44 2.26C19.04 2.27333 18.7 2.29333 18.42 2.32L18.45 2.55C18.73 2.51667 19.0633 2.49333 19.45 2.48C19.8433 2.46667 20.3167 2.46 20.87 2.46C21.43 2.46 21.9067 2.46667 22.3 2.48C22.6867 2.49333 23.02 2.51667 23.3 2.55ZM20.98 8.76V2.35H20.76V8.76H20.98ZM20.81 8.86L22.16 9.73L22.27 9.53L20.92 8.66C20.9133 8.65333 20.9 8.65 20.88 8.65C20.8533 8.65 20.83 8.65333 20.81 8.66L19.48 9.53L19.59 9.73L20.92 8.86C20.94 8.84 20.9233 8.83 20.87 8.83C20.81 8.83 20.79 8.84 20.81 8.86ZM23.4 2.5L24.27 1.58L24.1 1.44L23.23 2.36C23.2233 2.37333 23.2167 2.39667 23.21 2.43C23.21 2.46333 23.2167 2.48667 23.23 2.5L24.1 3.68L24.27 3.54L23.4 2.36C23.3933 2.34667 23.3867 2.37 23.38 2.43C23.3733 2.49667 23.38 2.52 23.4 2.5ZM18.35 2.36L17.48 3.54L17.65 3.68L18.52 2.5C18.5333 2.48667 18.54 2.46333 18.54 2.43C18.54 2.39667 18.5333 2.37333 18.52 2.36L17.65 1.44L17.48 1.58L18.35 2.5C18.37 2.52 18.38 2.49667 18.38 2.43C18.38 2.37 18.37 2.34667 18.35 2.36ZM20.8 2.27L19.8 3.12L19.94 3.29L20.94 2.43C20.96 2.41667 20.9367 2.41 20.87 2.41C20.8033 2.41 20.78 2.41667 20.8 2.43L21.81 3.29L21.95 3.12L20.94 2.27C20.92 2.25 20.8967 2.24 20.87 2.24C20.8433 2.24 20.82 2.25 20.8 2.27ZM19.54 9.74H22.21C22.2567 9.74 22.29 9.72333 22.31 9.69C22.33 9.65 22.33 9.61 22.31 9.57C22.2433 9.45 22.1867 9.31 22.14 9.15C22.0933 8.98333 22.0567 8.75333 22.03 8.46C22.0033 8.16667 21.9833 7.78 21.97 7.3C21.9567 6.82 21.95 6.2 21.95 5.44C21.95 4.94667 21.9533 4.51667 21.96 4.15C21.9667 3.78333 21.9767 3.46667 21.99 3.2L21.88 3.32C22.56 3.34667 23.0567 3.39333 23.37 3.46C23.69 3.52 23.9433 3.60333 24.13 3.71C24.1767 3.73 24.2167 3.72667 24.25 3.7C24.2833 3.68 24.3 3.65 24.3 3.61V1.51C24.3 1.48333 24.2867 1.45667 24.26 1.43C24.24 1.41 24.2167 1.4 24.19 1.4H17.56C17.5333 1.4 17.51 1.41 17.49 1.43C17.4633 1.45667 17.45 1.48333 17.45 1.51V3.61C17.45 3.65 17.47 3.68 17.51 3.7C17.5433 3.72667 17.58 3.73 17.62 3.71C17.8067 3.60333 18.06 3.51667 18.38 3.45C18.6933 3.37667 19.19 3.33333 19.87 3.32L19.76 3.2C19.78 3.46667 19.7933 3.78333 19.8 4.15C19.8 4.51667 19.8 4.94667 19.8 5.44C19.8 6.2 19.7933 6.82 19.78 7.3C19.7667 7.78 19.7467 8.16667 19.72 8.46C19.6933 8.75333 19.6567 8.98333 19.61 9.15C19.5633 9.31 19.5067 9.45 19.44 9.57C19.42 9.61 19.4233 9.65 19.45 9.69C19.47 9.72333 19.5 9.74 19.54 9.74ZM22.21 9.52H19.54L19.64 9.69C19.7 9.55667 19.7533 9.40667 19.8 9.24C19.8467 9.07333 19.8867 8.84 19.92 8.54C19.9533 8.24 19.98 7.84333 20 7.35C20.02 6.85667 20.03 6.22 20.03 5.44C20.03 4.94667 20.0267 4.51667 20.02 4.15C20.0133 3.78333 20.0033 3.46667 19.99 3.2C19.99 3.16667 19.9767 3.14 19.95 3.12C19.93 3.1 19.9033 3.09 19.87 3.09C19.1633 3.11 18.6433 3.16 18.31 3.24C17.97 3.32 17.7033 3.41 17.51 3.51L17.68 3.61V1.51L17.56 1.62H24.19L24.07 1.51V3.61L24.24 3.51C24.0333 3.41 23.7667 3.32333 23.44 3.25C23.1067 3.17 22.5867 3.11667 21.88 3.09C21.8467 3.09 21.82 3.1 21.8 3.12C21.7733 3.14 21.76 3.16667 21.76 3.2C21.7533 3.46667 21.7467 3.78333 21.74 4.15C21.7267 4.51667 21.72 4.94667 21.72 5.44C21.72 6.22 21.73 6.85667 21.75 7.35C21.77 7.84333 21.7967 8.24 21.83 8.54C21.8633 8.84 21.9033 9.07333 21.95 9.24C21.9967 9.40667 22.05 9.55667 22.11 9.69L22.21 9.52ZM32.05 5.43H29.8V5.65H32.05C32.8633 5.65 33.5 5.43 33.96 4.99C34.4133 4.54333 34.64 3.96667 34.64 3.26C34.64 2.55333 34.4133 1.97667 33.96 1.53C33.5 1.09 32.8633 0.87 32.05 0.87H29.8C29.7733 0.87 29.7467 0.88 29.72 0.9C29.7 0.926667 29.69 0.953333 29.69 0.98V8.76H29.91V0.98C29.91 0.953333 29.8867 0.963334 29.84 1.01C29.7867 1.06333 29.7733 1.09 29.8 1.09H32.05C32.7967 1.09 33.38 1.28667 33.8 1.68C34.2133 2.08 34.42 2.60667 34.42 3.26C34.42 3.91333 34.2133 4.44 33.8 4.84C33.38 5.23333 32.7967 5.43 32.05 5.43ZM29.87 5.63L30.86 4.74L30.72 4.58L29.73 5.46C29.7033 5.48 29.69 5.50667 29.69 5.54C29.69 5.58 29.7033 5.61 29.73 5.63L30.74 6.49L30.88 6.33L29.87 5.46C29.85 5.44 29.84 5.46667 29.84 5.54C29.84 5.61333 29.85 5.64333 29.87 5.63ZM29.74 8.86L31.12 9.73L31.23 9.53L29.86 8.66C29.8467 8.65333 29.83 8.65 29.81 8.65C29.7833 8.65 29.76 8.65333 29.74 8.66L28.36 9.53L28.47 9.73L29.86 8.86C29.8733 8.84 29.8533 8.83 29.8 8.83C29.7467 8.83 29.7267 8.84 29.74 8.86ZM29.86 0.88L28.47 0.0100002L28.36 0.21L29.74 1.08C29.74 1.08 29.74 1.07667 29.74 1.07C29.7333 1.06333 29.73 1.06 29.73 1.06L30.78 1.94L30.92 1.78L29.87 0.89C29.87 0.883334 29.8667 0.88 29.86 0.88ZM28.41 9.74H31.17C31.2167 9.74 31.25 9.72333 31.27 9.69C31.29 9.65667 31.29 9.62333 31.27 9.59C31.1967 9.43 31.1367 9.24 31.09 9.02C31.0433 8.8 31.0067 8.48667 30.98 8.08C30.9467 7.66667 30.9267 7.11 30.92 6.41L30.81 6.52H32.04C32.7933 6.52 33.4433 6.38333 33.99 6.11C34.53 5.83667 34.9467 5.45 35.24 4.95C35.5333 4.45667 35.68 3.89 35.68 3.25C35.68 2.59667 35.5333 2.02667 35.24 1.54C34.9467 1.05333 34.53 0.673333 33.99 0.4C33.4433 0.133333 32.7933 0 32.04 0H28.41C28.3767 0 28.3467 0.0166669 28.32 0.0500002C28.3 0.0833335 28.3 0.123333 28.32 0.17C28.3933 0.296667 28.4533 0.453334 28.5 0.64C28.5467 0.826667 28.58 1.08333 28.6 1.41C28.6267 1.73667 28.6467 2.16667 28.66 2.7C28.6733 3.23333 28.68 3.91333 28.68 4.74C28.68 5.62 28.6733 6.34333 28.66 6.91C28.6467 7.47 28.6267 7.92333 28.6 8.27C28.58 8.61667 28.5467 8.88667 28.5 9.08C28.4533 9.26667 28.3933 9.43 28.32 9.57C28.3 9.61 28.3 9.65 28.32 9.69C28.3467 9.72333 28.3767 9.74 28.41 9.74ZM30.79 4.55L30.91 4.66C30.91 4.04667 30.9133 3.50667 30.92 3.04C30.9267 2.58 30.94 2.19 30.96 1.87L30.85 1.97H32.07C32.49 1.97 32.8167 2.09 33.05 2.33C33.2833 2.57 33.4 2.88333 33.4 3.27C33.4 3.66333 33.2833 3.97333 33.05 4.2C32.8167 4.43333 32.49 4.55 32.07 4.55H30.79ZM31.17 9.52H28.41L28.51 9.69C28.5833 9.55 28.6433 9.37667 28.69 9.17C28.7367 8.97 28.7767 8.69667 28.81 8.35C28.8433 7.99667 28.8667 7.53333 28.88 6.96C28.8933 6.38 28.9 5.64 28.9 4.74C28.9 3.89333 28.8933 3.19667 28.88 2.65C28.8667 2.10333 28.8433 1.66667 28.81 1.34C28.7767 1.00667 28.7367 0.743334 28.69 0.55C28.6433 0.356667 28.5833 0.19 28.51 0.0500002L28.41 0.22H32.04C32.7467 0.22 33.3567 0.343333 33.87 0.59C34.3767 0.836667 34.7667 1.18667 35.04 1.64C35.32 2.09333 35.46 2.63 35.46 3.25C35.46 3.85667 35.32 4.39 35.04 4.85C34.7667 5.31 34.3767 5.66667 33.87 5.92C33.3567 6.17333 32.7467 6.3 32.04 6.3H30.81C30.7833 6.3 30.7567 6.31 30.73 6.33C30.71 6.35667 30.7 6.38333 30.7 6.41C30.7067 7.13667 30.7267 7.71 30.76 8.13C30.7933 8.55 30.8367 8.87333 30.89 9.1C30.9367 9.32 30.9967 9.51 31.07 9.67L31.17 9.52ZM30.68 4.66C30.68 4.68667 30.6933 4.71333 30.72 4.74C30.74 4.76 30.7633 4.77 30.79 4.77H32.07C32.5633 4.77 32.9467 4.63333 33.22 4.36C33.4867 4.08667 33.62 3.72333 33.62 3.27C33.62 2.82333 33.4867 2.45667 33.22 2.17C32.9467 1.89 32.5633 1.75 32.07 1.75H30.85C30.8233 1.75 30.7967 1.76 30.77 1.78C30.75 1.79333 30.74 1.81667 30.74 1.85C30.72 2.18333 30.7067 2.58 30.7 3.04C30.6867 3.50667 30.68 4.04667 30.68 4.66ZM37.92 5.99V8.76H38.14V5.99V2.35C38.14 2.32333 38.1167 2.33333 38.07 2.38C38.0167 2.43333 38.0033 2.46 38.03 2.46H39.87C40.53 2.46 41.0467 2.61333 41.42 2.92C41.7933 3.23333 41.98 3.65 41.98 4.17C41.98 4.61667 41.8433 4.99333 41.57 5.3C41.29 5.61333 40.9233 5.80667 40.47 5.88C40.4567 5.88 40.4567 5.88 40.47 5.88C40.4767 5.88 40.48 5.88 40.48 5.88H38.03V6.1H40.48C40.48 6.1 40.4833 6.1 40.49 6.1C40.4967 6.1 40.5 6.1 40.5 6.1C41.0133 6.00667 41.4267 5.78667 41.74 5.44C42.0467 5.1 42.2 4.67667 42.2 4.17C42.2 3.59 41.9933 3.12333 41.58 2.77C41.1667 2.41667 40.5967 2.24 39.87 2.24H38.03C38.0033 2.24 37.98 2.25 37.96 2.27C37.9333 2.29667 37.92 2.32333 37.92 2.35V5.99ZM42.37 8.71L40.58 5.93L40.38 6.05L42.18 8.82L42.37 8.71ZM37.98 8.86L39.31 9.73L39.42 9.53L38.09 8.66C38.0767 8.65333 38.06 8.65 38.04 8.65C38.0133 8.65 37.9933 8.65333 37.98 8.66L36.63 9.53L36.74 9.73L38.09 8.86C38.11 8.84 38.09 8.83 38.03 8.83C37.9767 8.83 37.96 8.84 37.98 8.86ZM42.23 8.86L44.33 9.73L44.42 9.53L42.32 8.66C42.3 8.64667 42.28 8.64 42.26 8.64C42.24 8.64667 42.22 8.66 42.2 8.68L41.22 9.55L41.36 9.71L42.34 8.85C42.36 8.83 42.3433 8.82333 42.29 8.83C42.23 8.84333 42.21 8.85333 42.23 8.86ZM38.09 2.25L36.74 1.41L36.63 1.61L37.98 2.45C37.98 2.45 37.9767 2.44667 37.97 2.44C37.9633 2.43333 37.96 2.43 37.96 2.43L38.96 3.26L39.1 3.09L38.1 2.27C38.1 2.27 38.1 2.26667 38.1 2.26C38.1 2.25333 38.0967 2.25 38.09 2.25ZM38.1 6.07L39.05 5.28L38.91 5.11L37.96 5.91C37.9333 5.92333 37.92 5.95 37.92 5.99C37.92 6.03 37.9333 6.05667 37.96 6.07L38.93 6.87L39.07 6.7L38.1 5.91C38.0733 5.89 38.06 5.91667 38.06 5.99C38.06 6.06333 38.0733 6.09 38.1 6.07ZM40.38 5.92L39.84 6.72L40.03 6.86L40.58 6.06C40.6 6.04 40.5767 6.04 40.51 6.06C40.4433 6.08 40.4233 6.09333 40.45 6.1L41.77 6.48L41.83 6.26L40.51 5.88C40.49 5.86667 40.47 5.86667 40.45 5.88C40.4233 5.88667 40.4 5.9 40.38 5.92ZM36.69 9.74H39.36C39.4067 9.74 39.44 9.72333 39.46 9.69C39.48 9.65 39.48 9.61 39.46 9.57C39.3933 9.44333 39.3333 9.28333 39.28 9.09C39.2333 8.89667 39.1967 8.62 39.17 8.26C39.1367 7.90667 39.1167 7.41667 39.11 6.79L39 6.9H39.94L39.84 6.84C40.24 7.48667 40.5333 7.99 40.72 8.35C40.9067 8.71 41.0267 8.98 41.08 9.16C41.14 9.34 41.1733 9.5 41.18 9.64C41.18 9.67333 41.1933 9.69667 41.22 9.71C41.24 9.73 41.2633 9.74 41.29 9.74H44.37C44.4167 9.74 44.4533 9.71667 44.48 9.67C44.5 9.62333 44.4867 9.58333 44.44 9.55C44.3 9.42333 44.1633 9.29333 44.03 9.16C43.8967 9.02667 43.74 8.85 43.56 8.63C43.3733 8.41 43.1467 8.11667 42.88 7.75C42.6133 7.37667 42.2867 6.89667 41.9 6.31L41.85 6.47C42.2633 6.22333 42.59 5.90333 42.83 5.51C43.0767 5.11 43.2 4.65333 43.2 4.14C43.2 3.6 43.0633 3.12333 42.79 2.71C42.5233 2.30333 42.14 1.98333 41.64 1.75C41.14 1.51667 40.5433 1.4 39.85 1.4H36.69C36.65 1.4 36.62 1.41667 36.6 1.45C36.5733 1.48333 36.57 1.52333 36.59 1.57C36.6567 1.69 36.7133 1.83 36.76 1.99C36.8067 2.14333 36.8433 2.35667 36.87 2.63C36.8967 2.90333 36.9167 3.26667 36.93 3.72C36.9433 4.16667 36.95 4.74 36.95 5.44C36.95 6.2 36.9433 6.82 36.93 7.3C36.9167 7.78 36.8967 8.16667 36.87 8.46C36.8433 8.75333 36.8067 8.98333 36.76 9.15C36.7133 9.31 36.6567 9.45 36.59 9.57C36.57 9.61 36.5733 9.65 36.6 9.69C36.62 9.72333 36.65 9.74 36.69 9.74ZM39.03 3.29H39.88C40.2333 3.29 40.5067 3.37 40.7 3.53C40.8933 3.68333 40.99 3.9 40.99 4.18C40.99 4.46 40.9 4.68 40.72 4.84C40.54 5 40.3067 5.08 40.02 5.08H38.98L39.1 5.19C39.1 4.75 39.1033 4.36667 39.11 4.04C39.1167 3.70667 39.1267 3.42 39.14 3.18L39.03 3.29ZM39.36 9.52H36.69L36.79 9.69C36.85 9.55667 36.9033 9.40667 36.95 9.24C36.9967 9.07333 37.0367 8.84 37.07 8.54C37.1033 8.24 37.13 7.84333 37.15 7.35C37.17 6.85667 37.18 6.22 37.18 5.44C37.18 4.72667 37.17 4.13667 37.15 3.67C37.13 3.21 37.1033 2.84 37.07 2.56C37.0367 2.28 36.9967 2.05667 36.95 1.89C36.9033 1.72333 36.85 1.57667 36.79 1.45L36.69 1.62H39.85C40.4967 1.62 41.0533 1.72667 41.52 1.94C41.9867 2.14667 42.3467 2.44 42.6 2.82C42.8467 3.2 42.97 3.64 42.97 4.14C42.97 4.60667 42.8633 5.02333 42.65 5.39C42.43 5.75 42.1267 6.04333 41.74 6.27C41.7133 6.27667 41.6967 6.3 41.69 6.34C41.69 6.38 41.6933 6.40667 41.7 6.42C42.1 7.01333 42.4367 7.49667 42.71 7.87C42.9767 8.25 43.2033 8.55333 43.39 8.78C43.5767 9 43.74 9.18 43.88 9.32C44.02 9.46 44.16 9.59 44.3 9.71L44.37 9.52H41.29L41.41 9.62C41.3967 9.48 41.36 9.31333 41.3 9.12C41.24 8.92667 41.1167 8.64667 40.93 8.28C40.7433 7.91333 40.4433 7.39667 40.03 6.73C40.0033 6.69667 39.9733 6.68 39.94 6.68H39C38.9733 6.68 38.9467 6.69 38.92 6.71C38.9 6.73667 38.89 6.76333 38.89 6.79C38.8967 7.44333 38.9167 7.95333 38.95 8.32C38.9833 8.68667 39.0267 8.97 39.08 9.17C39.14 9.37667 39.2 9.55 39.26 9.69L39.36 9.52ZM39.88 3.06H39.03C38.9967 3.06 38.97 3.07 38.95 3.09C38.9233 3.11 38.91 3.14 38.91 3.18C38.9033 3.42 38.8967 3.70667 38.89 4.04C38.8767 4.36667 38.87 4.75 38.87 5.19C38.87 5.21667 38.8833 5.24333 38.91 5.27C38.93 5.29 38.9533 5.3 38.98 5.3H40.02C40.3667 5.3 40.65 5.2 40.87 5C41.0967 4.79333 41.21 4.52 41.21 4.18C41.21 3.84667 41.0933 3.57667 40.86 3.37C40.6267 3.16333 40.3 3.06 39.88 3.06ZM46.25 8.76V2.38H46.03V8.76H46.25ZM46.08 8.86L47.41 9.73L47.52 9.53L46.19 8.66C46.1833 8.65333 46.17 8.65 46.15 8.65C46.1233 8.65 46.1 8.65333 46.08 8.66L44.74 9.53L44.85 9.73L46.19 8.86C46.21 8.84 46.1933 8.83 46.14 8.83C46.08 8.83 46.06 8.84 46.08 8.86ZM46.19 2.28L44.85 1.41L44.74 1.61L46.08 2.48C46.1 2.48667 46.1233 2.49 46.15 2.49C46.17 2.49 46.1833 2.48667 46.19 2.48L47.52 1.61L47.41 1.41L46.08 2.28C46.06 2.28667 46.08 2.29 46.14 2.29C46.1933 2.29 46.21 2.28667 46.19 2.28ZM44.79 9.74H47.47C47.5167 9.74 47.55 9.72333 47.57 9.69C47.5833 9.65 47.5833 9.61 47.57 9.57C47.5033 9.45 47.4467 9.31 47.4 9.15C47.3533 8.98333 47.3167 8.75333 47.29 8.46C47.2567 8.16667 47.2333 7.78 47.22 7.3C47.2067 6.82 47.2 6.2 47.2 5.44C47.2 4.74 47.2067 4.16667 47.22 3.72C47.2333 3.26667 47.2567 2.90333 47.29 2.63C47.3167 2.35667 47.3533 2.14333 47.4 1.99C47.4467 1.83 47.5033 1.69 47.57 1.57C47.5833 1.52333 47.5833 1.48333 47.57 1.45C47.55 1.41667 47.5167 1.4 47.47 1.4H44.79C44.7567 1.4 44.7267 1.41667 44.7 1.45C44.68 1.48333 44.68 1.52333 44.7 1.57C44.76 1.69 44.8133 1.83 44.86 1.99C44.9067 2.14333 44.9467 2.35667 44.98 2.63C45.0067 2.90333 45.0267 3.26667 45.04 3.72C45.0533 4.16667 45.06 4.74 45.06 5.44C45.06 6.2 45.0533 6.82 45.04 7.3C45.0267 7.78 45.0067 8.16667 44.98 8.46C44.9467 8.75333 44.9067 8.98333 44.86 9.15C44.8133 9.31 44.76 9.45 44.7 9.57C44.68 9.61 44.68 9.65 44.7 9.69C44.7267 9.72333 44.7567 9.74 44.79 9.74ZM47.47 9.52H44.79L44.89 9.69C44.9567 9.55667 45.0133 9.40667 45.06 9.24C45.1067 9.07333 45.1467 8.84 45.18 8.54C45.2133 8.24 45.24 7.84333 45.26 7.35C45.2733 6.85667 45.28 6.22 45.28 5.44C45.28 4.72667 45.2733 4.13667 45.26 3.67C45.24 3.21 45.2133 2.84 45.18 2.56C45.1467 2.28 45.1067 2.05667 45.06 1.89C45.0133 1.72333 44.9567 1.57667 44.89 1.45L44.79 1.62H47.47L47.37 1.45C47.3033 1.57667 47.2467 1.72333 47.2 1.89C47.1533 2.05667 47.1133 2.28 47.08 2.56C47.0467 2.84 47.0233 3.21 47.01 3.67C46.99 4.13667 46.98 4.72667 46.98 5.44C46.98 6.22 46.99 6.85667 47.01 7.35C47.0233 7.84333 47.0467 8.24 47.08 8.54C47.1133 8.84 47.1533 9.07333 47.2 9.24C47.2467 9.40667 47.3033 9.55667 47.37 9.69L47.47 9.52ZM49.88 8.55L49.79 8.78C50.07 8.87333 50.35 8.94667 50.63 9C50.9033 9.05333 51.17 9.08 51.43 9.08C52.15 9.08 52.73 8.92333 53.17 8.61C53.6033 8.29 53.82 7.86333 53.82 7.33C53.82 6.99 53.7267 6.70333 53.54 6.47C53.3533 6.24333 53.1133 6.05333 52.82 5.9C52.52 5.74667 52.2 5.60333 51.86 5.47C51.5733 5.35 51.29 5.22 51.01 5.08C50.73 4.94 50.5 4.76667 50.32 4.56C50.1333 4.35333 50.04 4.09333 50.04 3.78C50.04 3.33333 50.2267 2.97667 50.6 2.71C50.9733 2.44333 51.4733 2.31 52.1 2.31C52.3133 2.31 52.53 2.33333 52.75 2.38C52.97 2.42667 53.1867 2.48667 53.4 2.56L53.49 2.34C53.2567 2.26 53.0233 2.19667 52.79 2.15C52.5567 2.10333 52.3267 2.08 52.1 2.08C51.4 2.08 50.8467 2.23667 50.44 2.55C50.0267 2.86333 49.82 3.27333 49.82 3.78C49.82 4.13333 49.9167 4.42667 50.11 4.66C50.2967 4.89333 50.54 5.08667 50.84 5.24C51.14 5.39333 51.4533 5.53667 51.78 5.67C52.08 5.79 52.3667 5.92 52.64 6.06C52.9133 6.2 53.1433 6.37 53.33 6.57C53.51 6.77 53.6 7.02333 53.6 7.33C53.6 7.81 53.4033 8.18333 53.01 8.45C52.61 8.72333 52.0833 8.86 51.43 8.86C51.19 8.86 50.9367 8.83333 50.67 8.78C50.41 8.72 50.1467 8.64333 49.88 8.55ZM53.52 2.53L54.38 1.82L54.24 1.65L53.38 2.36C53.36 2.37333 53.3467 2.39667 53.34 2.43C53.3333 2.46333 53.3367 2.48667 53.35 2.5L54.22 4L54.41 3.89L53.54 2.39C53.5333 2.37 53.5233 2.39333 53.51 2.46C53.4967 2.52667 53.5 2.55 53.52 2.53ZM49.76 8.58L48.9 9.34L49.04 9.5L49.9 8.75C49.92 8.73 49.9367 8.70667 49.95 8.68C49.9567 8.65333 49.95 8.63 49.93 8.61L49.06 7.12L48.87 7.24L49.74 8.72C49.7533 8.74 49.7667 8.71667 49.78 8.65C49.7867 8.58333 49.78 8.56 49.76 8.58ZM54.2 3.95L54.38 3.86C54.0067 3.56 53.6167 3.32667 53.21 3.16C52.7967 2.99333 52.4 2.91 52.02 2.91C51.6267 2.91 51.3333 2.99 51.14 3.15C50.94 3.31667 50.84 3.51333 50.84 3.74C50.84 4.02 50.9933 4.23667 51.3 4.39C51.6 4.54333 51.9733 4.71333 52.42 4.9C52.76 5.04 53.0967 5.20667 53.43 5.4C53.77 5.58667 54.05 5.82667 54.27 6.12C54.4967 6.41333 54.61 6.79333 54.61 7.26C54.61 7.78667 54.47 8.23 54.19 8.59C53.91 8.95667 53.5233 9.23333 53.03 9.42C52.5433 9.60667 51.9833 9.7 51.35 9.7C50.9767 9.7 50.5933 9.66333 50.2 9.59C49.8067 9.51667 49.4033 9.42333 48.99 9.31L49.08 9.42V7.18L48.9 7.26C49.3 7.58 49.7267 7.82333 50.18 7.99C50.64 8.15667 51.0833 8.24 51.51 8.24C51.95 8.24 52.2767 8.15667 52.49 7.99C52.71 7.81667 52.82 7.61667 52.82 7.39C52.82 7.11 52.6733 6.89667 52.38 6.75C52.08 6.59667 51.6967 6.42333 51.23 6.23C50.8967 6.07667 50.56 5.90667 50.22 5.72C49.88 5.53333 49.5967 5.29333 49.37 5C49.1367 4.7 49.02 4.31 49.02 3.83C49.02 3.35 49.1533 2.93333 49.42 2.58C49.6867 2.23333 50.0567 1.96333 50.53 1.77C51.01 1.57667 51.5667 1.48 52.2 1.48C52.5267 1.48 52.8633 1.51667 53.21 1.59C53.5567 1.65667 53.9167 1.74333 54.29 1.85L54.2 1.73V3.95ZM54.24 4.03C54.28 4.05667 54.32 4.06 54.36 4.04C54.4067 4.02667 54.43 3.99667 54.43 3.95V1.73C54.43 1.70333 54.4233 1.68 54.41 1.66C54.39 1.64667 54.3667 1.63333 54.34 1.62C53.96 1.52 53.5933 1.43333 53.24 1.36C52.8933 1.29333 52.5467 1.26 52.2 1.26C51.52 1.26 50.9267 1.36667 50.42 1.58C49.9067 1.79333 49.51 2.09333 49.23 2.48C48.9433 2.86 48.8 3.31 48.8 3.83C48.8 4.34333 48.92 4.76333 49.16 5.09C49.4067 5.41667 49.7067 5.68 50.06 5.88C50.42 6.08667 50.7833 6.26667 51.15 6.42C51.3833 6.52667 51.61 6.62667 51.83 6.72C52.05 6.81333 52.2333 6.91333 52.38 7.02C52.52 7.12667 52.59 7.25 52.59 7.39C52.59 7.57 52.4967 7.72 52.31 7.84C52.1233 7.96 51.8567 8.02 51.51 8.02C51.11 8.02 50.69 7.93667 50.25 7.77C49.8167 7.61 49.4133 7.38667 49.04 7.1C49 7.06667 48.96 7.06 48.92 7.08C48.8733 7.1 48.85 7.13333 48.85 7.18V9.42C48.85 9.44667 48.86 9.47 48.88 9.49C48.8933 9.51 48.9133 9.52333 48.94 9.53C49.3667 9.64333 49.78 9.73667 50.18 9.81C50.5733 9.88333 50.9633 9.92 51.35 9.92C52.03 9.92 52.63 9.81667 53.15 9.61C53.6767 9.39667 54.0867 9.09333 54.38 8.7C54.68 8.3 54.83 7.82 54.83 7.26C54.83 6.76 54.7133 6.34667 54.48 6.02C54.24 5.7 53.9433 5.43667 53.59 5.23C53.23 5.03 52.87 4.85333 52.51 4.7C52.2833 4.6 52.06 4.50333 51.84 4.41C51.6133 4.31667 51.4267 4.21667 51.28 4.11C51.14 4.00333 51.07 3.88 51.07 3.74C51.07 3.56 51.15 3.41333 51.31 3.3C51.4767 3.18667 51.7133 3.13 52.02 3.13C52.3733 3.13 52.7467 3.21333 53.14 3.38C53.5333 3.54 53.9 3.75667 54.24 4.03ZM64.09 2.36V8.76H64.31V2.36C64.31 2.33333 64.3 2.31 64.28 2.29C64.2533 2.26333 64.2267 2.25 64.2 2.25H62.97C62.9233 2.25 62.8833 2.27333 62.85 2.32L60.53 8.71C60.5233 8.75667 60.5633 8.78 60.65 8.78C60.7367 8.78 60.77 8.75667 60.75 8.71L58.5 2.32C58.4733 2.27333 58.4367 2.25 58.39 2.25H57.1C57.0733 2.25 57.0467 2.26333 57.02 2.29C57 2.31 56.99 2.33333 56.99 2.36V8.76H57.21V2.36C57.21 2.33333 57.1867 2.34667 57.14 2.4C57.0867 2.45333 57.0733 2.48 57.1 2.48H58.39C58.41 2.48 58.3933 2.46 58.34 2.42C58.2867 2.38 58.2667 2.37667 58.28 2.41L60.53 8.79C60.55 8.83667 60.5867 8.86 60.64 8.86C60.7 8.86 60.7367 8.83667 60.75 8.79L63.08 2.41C63.0867 2.39 63.0667 2.39667 63.02 2.43C62.9667 2.46333 62.95 2.48 62.97 2.48H64.2C64.2267 2.48 64.2133 2.45333 64.16 2.4C64.1133 2.34667 64.09 2.33333 64.09 2.36ZM57.03 8.86L58.28 9.73L58.42 9.53L57.17 8.66C57.15 8.65333 57.1267 8.65 57.1 8.65C57.0733 8.65 57.05 8.65333 57.03 8.66L55.8 9.53L55.94 9.73L57.17 8.86C57.19 8.84 57.17 8.83 57.11 8.83C57.05 8.83 57.0233 8.84 57.03 8.86ZM64.13 8.86L65.4 9.73L65.54 9.53L64.27 8.66C64.25 8.65333 64.2267 8.65 64.2 8.65C64.1733 8.65 64.15 8.65333 64.13 8.66L62.85 9.53L62.99 9.73L64.27 8.86C64.29 8.84 64.27 8.83 64.21 8.83C64.1433 8.83 64.1167 8.84 64.13 8.86ZM57.17 2.27L55.94 1.41L55.8 1.61L57.03 2.46C57.0367 2.46 57.0333 2.45 57.02 2.43C57.0067 2.41667 57 2.41333 57 2.42L57.88 3.92C57.9133 3.95333 57.9533 3.97 58 3.97C58.0533 3.96333 58.0833 3.93667 58.09 3.89L58.5 2.39C58.5 2.38333 58.49 2.39333 58.47 2.42C58.45 2.44667 58.4467 2.45667 58.46 2.45L59.38 1.59L59.24 1.43L58.32 2.28C58.3067 2.28667 58.3 2.29333 58.3 2.3C58.2933 2.30667 58.2867 2.32 58.28 2.34L57.87 3.83C57.8633 3.87667 57.9 3.89333 57.98 3.88C58.0667 3.86667 58.1 3.84333 58.08 3.81L57.2 2.31C57.1867 2.29667 57.18 2.29 57.18 2.29C57.18 2.28333 57.1767 2.27667 57.17 2.27ZM63.05 2.28L62.24 1.43L62.07 1.59L62.88 2.45C62.8933 2.45667 62.8933 2.44333 62.88 2.41C62.86 2.37667 62.85 2.37 62.85 2.39L63.18 3.82C63.1933 3.86667 63.2233 3.89333 63.27 3.9C63.3167 3.9 63.3567 3.88333 63.39 3.85L64.3 2.42C64.3 2.41333 64.2933 2.41667 64.28 2.43C64.26 2.45 64.25 2.46 64.25 2.46L65.53 1.61L65.42 1.41L64.14 2.27C64.1333 2.27667 64.1267 2.28333 64.12 2.29C64.1133 2.29 64.1067 2.29667 64.1 2.31L63.19 3.74C63.1633 3.77333 63.1933 3.79667 63.28 3.81C63.3667 3.82333 63.4067 3.80667 63.4 3.76L63.08 2.34C63.0667 2.32667 63.06 2.31667 63.06 2.31C63.06 2.29667 63.0567 2.28667 63.05 2.28ZM60.56 8.68L59.9 9.56L60.07 9.7L60.73 8.82C60.7567 8.78 60.7267 8.76 60.64 8.76C60.56 8.75333 60.5267 8.76667 60.54 8.8L61.08 9.69L61.27 9.57L60.74 8.69C60.72 8.65667 60.69 8.64 60.65 8.64C60.61 8.64 60.58 8.65333 60.56 8.68ZM60.59 6.41L60.53 8.75H60.75L60.81 6.41H60.59ZM55.87 9.74H58.35C58.3967 9.74 58.4267 9.72333 58.44 9.69C58.46 9.65 58.46 9.61 58.44 9.57C58.38 9.45 58.3267 9.31 58.28 9.15C58.2333 8.98333 58.1933 8.75333 58.16 8.46C58.1333 8.16667 58.1133 7.78 58.1 7.3C58.0867 6.82 58.08 6.2 58.08 5.44C58.08 5.12667 58.08 4.84 58.08 4.58C58.08 4.31333 58.0833 4.07333 58.09 3.86L57.88 3.9C57.9867 4.14667 58.0967 4.42 58.21 4.72C58.3167 5.02667 58.4333 5.36667 58.56 5.74C58.8267 6.44667 59.04 7.03333 59.2 7.5C59.36 7.96 59.4833 8.32667 59.57 8.6C59.6567 8.87333 59.7233 9.09 59.77 9.25C59.81 9.41 59.8433 9.54667 59.87 9.66C59.8833 9.68 59.8967 9.69667 59.91 9.71C59.93 9.73 59.9533 9.74 59.98 9.74H61.17C61.2033 9.74 61.2267 9.73333 61.24 9.72C61.26 9.70667 61.2767 9.68667 61.29 9.66C61.3167 9.54667 61.3567 9.41 61.41 9.25C61.4567 9.09 61.5267 8.87333 61.62 8.6C61.7133 8.32667 61.8433 7.96 62.01 7.5C62.1833 7.03333 62.4 6.44667 62.66 5.74C62.8067 5.34667 62.94 4.99 63.06 4.67C63.1733 4.35667 63.2833 4.07667 63.39 3.83L63.18 3.79C63.1867 4.01667 63.19 4.26333 63.19 4.53C63.19 4.80333 63.19 5.10667 63.19 5.44C63.19 6.2 63.1833 6.82 63.17 7.3C63.1567 7.78 63.1367 8.16667 63.11 8.46C63.0767 8.75333 63.0367 8.98333 62.99 9.15C62.9433 9.31 62.89 9.45 62.83 9.57C62.81 9.61 62.81 9.65 62.83 9.69C62.8567 9.72333 62.8867 9.74 62.92 9.74H65.47C65.5167 9.74 65.55 9.72333 65.57 9.69C65.59 9.65 65.59 9.61 65.57 9.57C65.5033 9.45 65.4467 9.31 65.4 9.15C65.3533 8.98333 65.3167 8.75333 65.29 8.46C65.2633 8.16667 65.2433 7.78 65.23 7.3C65.2167 6.82 65.21 6.2 65.21 5.44C65.21 4.74 65.2167 4.16667 65.23 3.72C65.2433 3.26667 65.2633 2.90333 65.29 2.63C65.3167 2.35667 65.3533 2.14333 65.4 1.99C65.4467 1.83 65.5033 1.69 65.57 1.57C65.59 1.52333 65.59 1.48333 65.57 1.45C65.55 1.41667 65.5167 1.4 65.47 1.4H62.15C62.1233 1.4 62.1 1.41 62.08 1.43C62.0533 1.45667 62.04 1.48333 62.04 1.51C62.04 1.65667 62.03 1.81667 62.01 1.99C61.9967 2.15667 61.95 2.38333 61.87 2.67C61.7967 2.95 61.68 3.33 61.52 3.81C61.3533 4.28333 61.13 4.89667 60.85 5.65L60.6 6.37H60.81L60.57 5.65C60.3167 4.89667 60.1133 4.28333 59.96 3.81C59.8 3.34333 59.68 2.96667 59.6 2.68C59.52 2.39333 59.47 2.16333 59.45 1.99C59.4233 1.81667 59.4133 1.65667 59.42 1.51C59.42 1.48333 59.4133 1.45667 59.4 1.43C59.38 1.41 59.35 1.4 59.31 1.4H55.87C55.83 1.4 55.8 1.41667 55.78 1.45C55.7533 1.48333 55.75 1.52333 55.77 1.57C55.8367 1.69 55.8933 1.83 55.94 1.99C55.9867 2.14333 56.0233 2.35667 56.05 2.63C56.0767 2.90333 56.0967 3.26667 56.11 3.72C56.1233 4.16667 56.13 4.74 56.13 5.44C56.13 6.2 56.1233 6.82 56.11 7.3C56.0967 7.78 56.0767 8.16667 56.05 8.46C56.0233 8.75333 55.9867 8.98333 55.94 9.15C55.8933 9.31 55.8367 9.45 55.77 9.57C55.75 9.61 55.7533 9.65 55.78 9.69C55.8 9.72333 55.83 9.74 55.87 9.74ZM58.35 9.52H55.87L55.97 9.69C56.03 9.55667 56.0833 9.40667 56.13 9.24C56.1767 9.07333 56.2167 8.84 56.25 8.54C56.2833 8.24 56.31 7.84333 56.33 7.35C56.35 6.85667 56.36 6.22 56.36 5.44C56.36 4.72667 56.35 4.13667 56.33 3.67C56.31 3.21 56.2833 2.84 56.25 2.56C56.2167 2.28 56.1767 2.05667 56.13 1.89C56.0833 1.72333 56.03 1.57667 55.97 1.45L55.87 1.62H59.31L59.2 1.51C59.1933 1.65667 59.2 1.81667 59.22 1.99C59.2467 2.16333 59.3 2.39667 59.38 2.69C59.4533 2.97667 59.57 3.36333 59.73 3.85C59.89 4.33667 60.0967 4.96667 60.35 5.74L60.59 6.45C60.6033 6.49667 60.64 6.52 60.7 6.52C60.7533 6.52 60.7867 6.49667 60.8 6.45L61.08 5.74C61.36 4.96667 61.58 4.33667 61.74 3.85C61.9067 3.36333 62.0267 2.97667 62.1 2.69C62.1733 2.39667 62.22 2.16333 62.24 1.99C62.26 1.81667 62.27 1.65667 62.27 1.51L62.15 1.62H65.47L65.37 1.45C65.31 1.57667 65.2567 1.72333 65.21 1.89C65.1633 2.05667 65.1233 2.28 65.09 2.56C65.0567 2.84 65.03 3.21 65.01 3.67C64.99 4.13667 64.98 4.72667 64.98 5.44C64.98 6.22 64.99 6.85667 65.01 7.35C65.03 7.84333 65.0567 8.24 65.09 8.54C65.1233 8.84 65.1633 9.07333 65.21 9.24C65.2567 9.40667 65.31 9.55667 65.37 9.69L65.47 9.52H62.92L63.02 9.69C63.0867 9.55667 63.1433 9.40667 63.19 9.24C63.2367 9.07333 63.2767 8.84 63.31 8.54C63.3433 8.24 63.37 7.84333 63.39 7.35C63.4033 6.85667 63.41 6.22 63.41 5.44C63.41 5.10667 63.41 4.80333 63.41 4.53C63.41 4.26333 63.4067 4.01667 63.4 3.79C63.4 3.72333 63.37 3.68667 63.31 3.68C63.25 3.67333 63.21 3.69667 63.19 3.75C63.09 3.99 62.98 4.27 62.86 4.59C62.7467 4.91 62.6133 5.26333 62.46 5.65C62.1933 6.37 61.9733 6.96 61.8 7.42C61.6267 7.88667 61.4933 8.26 61.4 8.54C61.3067 8.82 61.2333 9.04 61.18 9.2C61.1267 9.35333 61.0867 9.48667 61.06 9.6L61.17 9.52H59.98L60.1 9.6C60.0667 9.48667 60.03 9.35333 59.99 9.2C59.95 9.04 59.8867 8.82 59.8 8.54C59.7067 8.26 59.58 7.88667 59.42 7.42C59.2667 6.96 59.0533 6.37 58.78 5.65C58.64 5.27667 58.5133 4.94 58.4 4.64C58.2867 4.33333 58.18 4.06 58.08 3.82C58.06 3.76667 58.02 3.74333 57.96 3.75C57.9 3.75667 57.87 3.79333 57.87 3.86C57.8633 4.07333 57.86 4.31333 57.86 4.58C57.86 4.84 57.86 5.12667 57.86 5.44C57.86 6.22 57.8667 6.85667 57.88 7.35C57.9 7.84333 57.9267 8.24 57.96 8.54C57.9933 8.84 58.0333 9.07333 58.08 9.24C58.1267 9.40667 58.1833 9.55667 58.25 9.69L58.35 9.52Z" fill="black"/>
</svg>
