<?xml version="1.0" encoding="utf-8" ?>
<svg baseProfile="tiny" height="100%" version="1.2" width="100%" xmlns="http://www.w3.org/2000/svg" xmlns:ev="http://www.w3.org/2001/xml-events" xmlns:xlink="http://www.w3.org/1999/xlink"><defs /><g><path d="M256 0H128V512H0V640H384V512H256Z" transform="translate(0.0, 72) scale(0.0703125, -0.0703125)" /><path d="M0 640V768H128V640ZM128 0H0V512H128Z" transform="translate(36.0, 72) scale(0.0703125, -0.0703125)" /><path d="M128 0H0V512H256V384H128ZM384 0H256V384H384Z" transform="translate(54.0, 72) scale(0.0703125, -0.0703125)" /><path d="M128 128H0V512H128ZM384 128H256V512H384ZM256 128V0H128V128ZM0 -128V0H128V-128Z" transform="translate(90.0, 72) scale(0.0703125, -0.0703125)" /><path d="M128 384H256V256H0V640H384V512H128ZM384 128H256V256H384ZM256 128V0H0V128Z" transform="translate(126.0, 72) scale(0.0703125, -0.0703125)" /></g></svg>