<svg width="31.5" height="15.75" viewBox="0 0 31.5 15.75" xmlns="http://www.w3.org/2000/svg"><path transform="translate(0 12.25) scale(.013672 -.013672)" d="M256 0H128V512H0V640H384V512H256Z"/><path transform="translate(7 12.25) scale(.013672 -.013672)" d="M0 640V768H128V640ZM128 0H0V512H128Z"/><path transform="translate(10.5 12.25) scale(.013672 -.013672)" d="M128 0H0V512H256V384H128ZM384 0H256V384H384Z"/><path transform="translate(17.5 12.25) scale(.013672 -.013672)" d="M128 128H0V512H128ZM384 128H256V512H384ZM256 128V0H128V128ZM0 -128V0H128V-128Z"/><path transform="translate(24.5 12.25) scale(.013672 -.013672)" d="M128 384H256V256H0V640H384V512H128ZM384 128H256V256H384ZM256 128V0H0V128Z"/></svg>