<svg width="89" height="13" viewBox="0 0 89 13" fill="none" xmlns="http://www.w3.org/2000/svg">
<path d="M10.45 0.101667C10.4433 0.148333 10.44 0.195 10.44 0.241667C10.44 0.295 10.4333 0.341667 10.42 0.381667C10.3467 0.448333 10.2867 0.491667 10.24 0.511667C10.1867 0.525 10.1433 0.568333 10.11 0.641667C10.0833 0.688333 10.07 0.738333 10.07 0.791667C10.07 0.851667 10.0567 0.901667 10.03 0.941667C9.99667 1.00833 9.93 1.075 9.83 1.14167C9.72333 1.215 9.64667 1.25833 9.6 1.27167C9.54667 1.29833 9.49 1.32167 9.43 1.34167C9.37 1.36167 9.31333 1.385 9.26 1.41167C9.18 1.445 9.11333 1.47167 9.06 1.49167C9.01333 1.51167 8.96 1.525 8.9 1.53167C8.84667 1.53167 8.79 1.535 8.73 1.54167C8.66333 1.54833 8.58 1.55833 8.48 1.57167C8.45333 1.57167 8.43667 1.57833 8.43 1.59167C8.41667 1.605 8.39667 1.62167 8.37 1.64167C8.34333 1.66167 8.30333 1.67833 8.25 1.69167C8.19667 1.705 8.11333 1.715 8 1.72167C7.9 1.735 7.82667 1.74167 7.78 1.74167C7.72667 1.74833 7.64667 1.76167 7.54 1.78167C7.47333 1.80167 7.41333 1.82833 7.36 1.86167C7.30667 1.90167 7.24667 1.935 7.18 1.96167C7.05333 2.035 6.96 2.105 6.9 2.17167C6.84 2.23833 6.79333 2.29833 6.76 2.35167C6.70667 2.445 6.68 2.54833 6.68 2.66167C6.68667 2.775 6.66667 2.895 6.62 3.02167C6.58667 3.115 6.52667 3.20833 6.44 3.30167C6.36 3.38833 6.30333 3.48167 6.27 3.58167C6.25667 3.62833 6.25667 3.67833 6.27 3.73167C6.27667 3.79167 6.27667 3.85167 6.27 3.91167C6.25 4.03167 6.20667 4.15167 6.14 4.27167C6.08 4.39833 6.02667 4.52833 5.98 4.66167C5.96 4.735 5.95333 4.80833 5.96 4.88167C5.96667 4.955 5.96 5.02833 5.94 5.10167C5.91333 5.275 5.87 5.45833 5.81 5.65167C5.75667 5.85167 5.70667 6.04833 5.66 6.24167C5.64667 6.34833 5.64 6.45833 5.64 6.57167C5.64667 6.685 5.63667 6.78167 5.61 6.86167C5.59 6.94833 5.55667 7.02833 5.51 7.10167C5.45667 7.175 5.41 7.24833 5.37 7.32167C5.33 7.40167 5.30333 7.485 5.29 7.57167C5.27667 7.65833 5.29667 7.75167 5.35 7.85167C5.32333 8.185 5.27667 8.525 5.21 8.87167C5.15 9.21833 5.07 9.55167 4.97 9.87167C4.94333 9.97167 4.9 10.105 4.84 10.2717C4.78 10.4317 4.72333 10.535 4.67 10.5817C4.61 10.6283 4.53667 10.6583 4.45 10.6717C4.36333 10.685 4.27667 10.685 4.19 10.6717C4.10333 10.6517 4.02667 10.6183 3.96 10.5717C3.88667 10.525 3.83667 10.4717 3.81 10.4117C3.75 10.445 3.7 10.495 3.66 10.5617C3.62 10.6217 3.56333 10.6717 3.49 10.7117C3.39667 10.7517 3.30333 10.7683 3.21 10.7617C3.11667 10.755 3.02 10.775 2.92 10.8217C2.82667 10.855 2.74333 10.8983 2.67 10.9517C2.59667 10.9983 2.52333 11.0317 2.45 11.0517C2.40333 11.0717 2.36 11.0783 2.32 11.0717C2.28 11.065 2.24333 11.0717 2.21 11.0917C2.15 11.1183 2.10667 11.165 2.08 11.2317C2.05333 11.2917 2.01333 11.3417 1.96 11.3817C1.88667 11.3617 1.80333 11.3483 1.71 11.3417C1.62333 11.3417 1.55667 11.3183 1.51 11.2717C1.49 11.0317 1.52667 10.8217 1.62 10.6417C1.70667 10.4683 1.77333 10.295 1.82 10.1217C1.86 10.0217 1.88667 9.925 1.9 9.83167C1.91333 9.73833 1.93 9.635 1.95 9.52167C1.98333 9.395 2.02667 9.25833 2.08 9.11167C2.13333 8.97167 2.17667 8.82833 2.21 8.68167C2.23667 8.58167 2.25 8.48167 2.25 8.38167C2.25667 8.275 2.27667 8.17167 2.31 8.07167C2.33 7.99833 2.37667 7.91833 2.45 7.83167C2.52333 7.745 2.58 7.65167 2.62 7.55167C2.65333 7.45167 2.68333 7.33833 2.71 7.21167C2.73667 7.07833 2.77333 6.955 2.82 6.84167C2.86667 6.68167 2.93333 6.54833 3.02 6.44167C3.10667 6.335 3.14667 6.21167 3.14 6.07167C3.14 6.01167 3.12333 5.96167 3.09 5.92167C3.06333 5.88833 3.05 5.84833 3.05 5.80167C3.04333 5.72833 3.05333 5.62833 3.08 5.50167C3.10667 5.375 3.13333 5.26167 3.16 5.16167C3.20667 4.96833 3.25333 4.795 3.3 4.64167C3.34667 4.48167 3.39333 4.325 3.44 4.17167C3.45333 4.09833 3.46667 4.02833 3.48 3.96167C3.49333 3.895 3.51 3.83167 3.53 3.77167C3.55 3.705 3.58 3.645 3.62 3.59167C3.66 3.53833 3.69 3.485 3.71 3.43167C3.73 3.37167 3.74667 3.295 3.76 3.20167C3.77333 3.10833 3.79333 3.02167 3.82 2.94167C3.84667 2.875 3.87667 2.815 3.91 2.76167C3.94333 2.70833 3.96333 2.655 3.97 2.60167C3.99 2.48167 3.97333 2.37167 3.92 2.27167C3.87333 2.17167 3.85 2.06833 3.85 1.96167C3.75 1.88833 3.63 1.845 3.49 1.83167C3.35667 1.81833 3.22333 1.815 3.09 1.82167C2.96333 1.82833 2.85 1.835 2.75 1.84167C2.65 1.84833 2.53667 1.855 2.41 1.86167C2.20333 1.86833 2.02 1.88833 1.86 1.92167C1.70667 1.94833 1.56 1.975 1.42 2.00167C1.28 2.02833 1.13667 2.04833 0.99 2.06167C0.843333 2.075 0.68 2.07833 0.5 2.07167C0.513333 1.97167 0.523333 1.86167 0.53 1.74167C0.536667 1.62833 0.553333 1.535 0.58 1.46167C0.633333 1.42167 0.686667 1.39833 0.74 1.39167C0.793333 1.385 0.853333 1.37833 0.92 1.37167C0.886667 1.31833 0.87 1.26833 0.87 1.22167C0.876667 1.175 0.886667 1.13167 0.9 1.09167C0.913333 1.05167 0.93 1.00833 0.95 0.961667C0.976667 0.921667 0.993333 0.885 1 0.851667C1.02 0.758333 1.02667 0.668333 1.02 0.581667C1.02 0.488333 1.06 0.415 1.14 0.361667C1.26667 0.348333 1.38 0.348333 1.48 0.361667C1.58 0.368333 1.67667 0.378333 1.77 0.391667C1.85667 0.405 1.95 0.415 2.05 0.421667C2.14333 0.435 2.25333 0.435 2.38 0.421667C2.67333 0.408333 2.91333 0.388333 3.1 0.361667C3.28667 0.335 3.51667 0.315 3.79 0.301667C3.98333 0.301667 4.17 0.305 4.35 0.311667C4.52333 0.318333 4.68667 0.328333 4.84 0.341667C5.00667 0.368333 5.13 0.381667 5.21 0.381667C5.28333 0.381667 5.35333 0.381667 5.42 0.381667C5.48 0.375 5.54667 0.368333 5.62 0.361667C5.69333 0.348333 5.80333 0.341667 5.95 0.341667C6.10333 0.341667 6.25333 0.331667 6.4 0.311667C6.54 0.285 6.68667 0.278333 6.84 0.291667C7.01333 0.291667 7.13333 0.301667 7.2 0.321667C7.27333 0.348334 7.33 0.368333 7.37 0.381667C7.41667 0.401667 7.46667 0.418333 7.52 0.431666C7.58 0.445 7.68 0.441667 7.82 0.421667C7.92667 0.408333 7.99333 0.388333 8.02 0.361667C8.04667 0.341667 8.11 0.321667 8.21 0.301667C8.29667 0.295 8.38667 0.291667 8.48 0.291667C8.57333 0.298333 8.67 0.298333 8.77 0.291667C9.04333 0.265 9.32 0.215 9.6 0.141667C9.87333 0.0749999 10.1567 0.0616666 10.45 0.101667ZM12.05 3.32167H13.87C13.9433 3.34167 14.0167 3.35167 14.09 3.35167C14.1633 3.35167 14.2367 3.36167 14.31 3.38167C14.3367 3.38167 14.3633 3.39167 14.39 3.41167C14.4167 3.425 14.4433 3.43833 14.47 3.45167C14.4967 3.45833 14.5233 3.45833 14.55 3.45167C14.5767 3.43833 14.6033 3.43833 14.63 3.45167C14.8433 3.505 15.0133 3.58833 15.14 3.70167C15.2667 3.815 15.3933 3.955 15.52 4.12167C15.5733 4.20833 15.6433 4.315 15.73 4.44167C15.81 4.56167 15.8767 4.69833 15.93 4.85167C15.9833 4.99833 16.0167 5.155 16.03 5.32167C16.0367 5.48833 16.0033 5.65167 15.93 5.81167C15.91 5.85833 15.8833 5.915 15.85 5.98167C15.8167 6.055 15.78 6.125 15.74 6.19167C15.6867 6.29167 15.62 6.39833 15.54 6.51167C15.4533 6.61833 15.3667 6.695 15.28 6.74167C15.2067 6.78833 15.1433 6.82833 15.09 6.86167C15.0433 6.90167 14.9833 6.93833 14.91 6.97167C14.7833 7.01833 14.6567 7.085 14.53 7.17167C14.41 7.25833 14.2833 7.32833 14.15 7.38167C14.11 7.40167 14.0633 7.415 14.01 7.42167C13.9633 7.42167 13.9167 7.43167 13.87 7.45167C13.8033 7.49167 13.7533 7.54167 13.72 7.60167C13.68 7.66833 13.61 7.715 13.51 7.74167C13.7367 7.795 13.9467 7.92167 14.14 8.12167C14.3333 8.315 14.48 8.515 14.58 8.72167C14.6267 8.855 14.69 8.97167 14.77 9.07167C14.85 9.17167 14.8867 9.285 14.88 9.41167C14.9467 9.465 15 9.535 15.04 9.62167C15.08 9.70833 15.1133 9.80167 15.14 9.90167C15.1667 10.0017 15.19 10.105 15.21 10.2117C15.2367 10.3117 15.2667 10.405 15.3 10.4917C15.36 10.6117 15.42 10.7083 15.48 10.7817C15.5467 10.8617 15.6167 10.935 15.69 11.0017C15.7633 11.0683 15.8333 11.1417 15.9 11.2217C15.9733 11.3017 16.04 11.3983 16.1 11.5117C16.1333 11.505 16.1633 11.495 16.19 11.4817C16.21 11.4683 16.2433 11.465 16.29 11.4717C16.4233 11.5717 16.5767 11.6483 16.75 11.7017C16.9167 11.7617 17.1233 11.8083 17.37 11.8417C17.5767 11.8817 17.7733 11.895 17.96 11.8817C18.1467 11.8617 18.34 11.835 18.54 11.8017C18.6067 11.795 18.6867 11.7683 18.78 11.7217C18.88 11.6817 18.9767 11.6483 19.07 11.6217C19.1633 11.595 19.2467 11.585 19.32 11.5917C19.3933 11.5917 19.43 11.6383 19.43 11.7317C19.43 11.7983 19.39 11.875 19.31 11.9617C19.23 12.055 19.1567 12.125 19.09 12.1717C18.9367 12.2783 18.76 12.365 18.56 12.4317C18.36 12.4917 18.15 12.545 17.93 12.5917C17.71 12.6317 17.4867 12.6583 17.26 12.6717C17.0333 12.6917 16.82 12.7083 16.62 12.7217C16.4867 12.7217 16.37 12.6983 16.27 12.6517C16.1633 12.6117 16.07 12.585 15.99 12.5717C15.8033 12.5383 15.64 12.505 15.5 12.4717C15.36 12.4383 15.2267 12.385 15.1 12.3117C14.9867 12.245 14.89 12.155 14.81 12.0417C14.73 11.9283 14.6167 11.8583 14.47 11.8317C14.23 11.6183 13.9933 11.405 13.76 11.1917C13.52 10.9783 13.3333 10.7117 13.2 10.3917C13.1533 10.3117 13.1033 10.2317 13.05 10.1517C12.9967 10.0783 12.9533 9.995 12.92 9.90167C12.8933 9.835 12.88 9.765 12.88 9.69167C12.8733 9.625 12.86 9.545 12.84 9.45167C12.82 9.35167 12.7933 9.245 12.76 9.13167C12.7267 9.01833 12.69 8.91167 12.65 8.81167C12.6433 8.77833 12.63 8.74833 12.61 8.72167C12.59 8.695 12.5767 8.66833 12.57 8.64167C12.55 8.58833 12.53 8.52167 12.51 8.44167C12.4967 8.36833 12.4667 8.30833 12.42 8.26167C12.3733 8.22167 12.2967 8.18167 12.19 8.14167C12.09 8.095 12.0033 8.06167 11.93 8.04167C11.83 8.02167 11.73 8.025 11.63 8.05167C11.5367 8.07833 11.45 8.09833 11.37 8.11167C11.25 8.13167 11.1333 8.135 11.02 8.12167C10.9133 8.10167 10.8233 8.10833 10.75 8.14167C10.6233 8.18167 10.52 8.29833 10.44 8.49167C10.3533 8.685 10.3033 8.885 10.29 9.09167C10.25 9.305 10.1933 9.50833 10.12 9.70167C10.0467 9.90167 9.98667 10.0917 9.94 10.2717C9.90667 10.3917 9.85 10.4883 9.77 10.5617C9.68333 10.6417 9.56667 10.6717 9.42 10.6517C9.34667 10.645 9.29 10.6383 9.25 10.6317C9.21 10.625 9.16 10.605 9.1 10.5717C9.05333 10.5917 8.97333 10.635 8.86 10.7017C8.74667 10.7683 8.66667 10.815 8.62 10.8417C8.32 10.935 8.14667 10.9117 8.1 10.7717C8.06 10.6383 8.07667 10.4217 8.15 10.1217C8.19667 9.92833 8.26667 9.74167 8.36 9.56167C8.46 9.375 8.52667 9.21833 8.56 9.09167C8.58 9.01167 8.58667 8.93833 8.58 8.87167C8.58 8.79833 8.57333 8.73167 8.56 8.67167C8.55333 8.605 8.55 8.54833 8.55 8.50167C8.55 8.44833 8.56667 8.39833 8.6 8.35167C8.61333 8.25167 8.64333 8.175 8.69 8.12167C8.73 8.06167 8.76 7.98167 8.78 7.88167C8.8 7.78833 8.82333 7.69167 8.85 7.59167C8.87667 7.49167 8.89333 7.395 8.9 7.30167C8.91333 7.195 8.92333 7.09167 8.93 6.99167C8.93 6.89833 8.95667 6.78833 9.01 6.66167C9.05667 6.54167 9.10667 6.42167 9.16 6.30167C9.20667 6.175 9.24 6.05167 9.26 5.93167C9.28 5.845 9.29 5.75167 9.29 5.65167C9.29667 5.55833 9.32 5.465 9.36 5.37167C9.37333 5.29833 9.41 5.24167 9.47 5.20167C9.53 5.155 9.57 5.095 9.59 5.02167C9.59667 4.96833 9.59 4.91833 9.57 4.87167C9.55667 4.825 9.55667 4.77833 9.57 4.73167C9.63 4.55167 9.65 4.40833 9.63 4.30167C9.61 4.195 9.58 4.10833 9.54 4.04167C9.5 3.975 9.46333 3.90833 9.43 3.84167C9.39667 3.78167 9.39333 3.695 9.42 3.58167C9.46667 3.575 9.51 3.53833 9.55 3.47167C9.58333 3.39833 9.63333 3.355 9.7 3.34167C9.73333 3.32833 9.8 3.32167 9.9 3.32167C10 3.315 10.11 3.30833 10.23 3.30167C10.35 3.30167 10.4633 3.30167 10.57 3.30167C10.6833 3.30833 10.77 3.31167 10.83 3.31167C10.9033 3.31833 10.9967 3.315 11.11 3.30167C11.2167 3.28833 11.33 3.28167 11.45 3.28167C11.57 3.275 11.68 3.27167 11.78 3.27167C11.8867 3.27167 11.9767 3.28833 12.05 3.32167ZM11.79 6.81167C11.8633 6.81167 11.9333 6.79167 12 6.75167C12.0667 6.71833 12.1333 6.71167 12.2 6.73167C12.2933 6.745 12.3833 6.75833 12.47 6.77167C12.5633 6.77833 12.6633 6.79167 12.77 6.81167C12.8167 6.81833 12.8633 6.815 12.91 6.80167C12.9567 6.78167 13.0167 6.775 13.09 6.78167C13.2367 6.675 13.3667 6.595 13.48 6.54167C13.5933 6.48167 13.7 6.37167 13.8 6.21167C13.8467 6.13167 13.8967 6.05167 13.95 5.97167C14.0033 5.89167 14.04 5.825 14.06 5.77167C14.12 5.565 14.11 5.385 14.03 5.23167C13.95 5.07833 13.8733 4.945 13.8 4.83167C13.7067 4.69167 13.62 4.59167 13.54 4.53167C13.46 4.47167 13.3233 4.45167 13.13 4.47167C12.9767 4.485 12.8167 4.48167 12.65 4.46167C12.4833 4.44833 12.3267 4.44833 12.18 4.46167C12.0267 4.46833 11.8933 4.495 11.78 4.54167C11.66 4.58833 11.5733 4.67167 11.52 4.79167C11.4733 4.925 11.4167 5.075 11.35 5.24167C11.29 5.40167 11.23 5.56833 11.17 5.74167C11.1167 5.90833 11.0733 6.07833 11.04 6.25167C11 6.425 10.98 6.59167 10.98 6.75167C11.12 6.73833 11.2567 6.74833 11.39 6.78167C11.53 6.80833 11.6633 6.81833 11.79 6.81167ZM19.21 4.23167C19.3833 4.11167 19.5333 3.975 19.66 3.82167C19.7933 3.66167 19.9167 3.505 20.03 3.35167C20.1033 3.35833 20.17 3.345 20.23 3.31167C20.2833 3.27167 20.34 3.245 20.4 3.23167C20.5267 3.19167 20.6567 3.19167 20.79 3.23167C20.9233 3.27833 21.0533 3.295 21.18 3.28167C21.3333 3.26167 21.4833 3.22167 21.63 3.16167C21.77 3.095 21.9367 3.06167 22.13 3.06167C22.19 3.06167 22.2467 3.085 22.3 3.13167C22.36 3.17167 22.4167 3.195 22.47 3.20167C22.5433 3.22167 22.61 3.21167 22.67 3.17167C22.7233 3.13833 22.7867 3.12167 22.86 3.12167C22.9933 3.12167 23.0933 3.16167 23.16 3.24167C23.2267 3.32167 23.3067 3.405 23.4 3.49167C23.4467 3.69833 23.45 3.90167 23.41 4.10167C23.3767 4.30167 23.3667 4.50833 23.38 4.72167C23.4 4.855 23.42 4.985 23.44 5.11167C23.4667 5.245 23.48 5.37833 23.48 5.51167C23.4867 5.63167 23.48 5.75833 23.46 5.89167C23.4333 6.025 23.4267 6.155 23.44 6.28167C23.4467 6.32167 23.46 6.365 23.48 6.41167C23.5 6.45833 23.5033 6.505 23.49 6.55167C23.4767 6.65167 23.4367 6.72833 23.37 6.78167C23.3033 6.835 23.2667 6.90833 23.26 7.00167C23.24 7.14167 23.27 7.26833 23.35 7.38167C23.43 7.50167 23.4767 7.625 23.49 7.75167C23.5033 7.81167 23.5 7.87167 23.48 7.93167C23.46 7.99833 23.45 8.05833 23.45 8.11167C23.43 8.31167 23.4333 8.535 23.46 8.78167C23.48 9.02833 23.4967 9.255 23.51 9.46167C23.51 9.535 23.5167 9.60833 23.53 9.68167C23.5433 9.755 23.54 9.815 23.52 9.86167C23.5133 9.90833 23.4933 9.945 23.46 9.97167C23.4267 9.99833 23.4 10.0283 23.38 10.0617C23.3733 10.1083 23.3767 10.1717 23.39 10.2517C23.4033 10.3383 23.41 10.4183 23.41 10.4917C23.41 10.5517 23.4067 10.6117 23.4 10.6717C23.3867 10.7317 23.38 10.785 23.38 10.8317C23.3933 10.8583 23.4067 10.8883 23.42 10.9217C23.4333 10.955 23.4333 10.985 23.42 11.0117C23.4067 11.0917 23.3467 11.1783 23.24 11.2717C23.1333 11.3717 23.0267 11.415 22.92 11.4017C22.8667 11.395 22.7867 11.3517 22.68 11.2717C22.5733 11.1983 22.4967 11.1383 22.45 11.0917C22.37 10.9917 22.32 10.865 22.3 10.7117C22.2867 10.5517 22.2467 10.4083 22.18 10.2817C22.1533 10.235 22.1133 10.1917 22.06 10.1517C22.0133 10.1117 21.97 10.065 21.93 10.0117C21.8767 9.91167 21.84 9.80833 21.82 9.70167C21.8067 9.595 21.7967 9.49167 21.79 9.39167C21.7833 9.285 21.7767 9.17833 21.77 9.07167C21.7633 8.97167 21.74 8.865 21.7 8.75167C21.68 8.71833 21.6533 8.68833 21.62 8.66167C21.58 8.62833 21.5467 8.59167 21.52 8.55167C21.4667 8.45833 21.43 8.37833 21.41 8.31167C21.3967 8.25167 21.34 8.20167 21.24 8.16167C20.92 8.16167 20.5967 8.155 20.27 8.14167C19.95 8.12167 19.6333 8.12833 19.32 8.16167C19.2467 8.175 19.1833 8.19167 19.13 8.21167C19.0767 8.23833 19.0133 8.255 18.94 8.26167C18.9067 8.26167 18.87 8.25833 18.83 8.25167C18.7967 8.23833 18.7633 8.23167 18.73 8.23167C18.6033 8.25167 18.4833 8.30833 18.37 8.40167C18.25 8.50167 18.1567 8.595 18.09 8.68167C18.0567 8.735 18.0367 8.80167 18.03 8.88167C18.0233 8.96167 18.0067 9.03833 17.98 9.11167C17.9533 9.185 17.91 9.24833 17.85 9.30167C17.7833 9.36167 17.76 9.43833 17.78 9.53167C17.68 9.605 17.5933 9.695 17.52 9.80167C17.4533 9.915 17.39 10.0283 17.33 10.1417C17.2633 10.255 17.19 10.3617 17.11 10.4617C17.0367 10.5617 16.9433 10.635 16.83 10.6817C16.79 10.7017 16.7467 10.725 16.7 10.7517C16.66 10.7783 16.6167 10.7917 16.57 10.7917C16.53 10.7783 16.5067 10.765 16.5 10.7517C16.4933 10.7317 16.4633 10.705 16.41 10.6717C16.3567 10.6317 16.29 10.5883 16.21 10.5417C16.1367 10.495 16.0633 10.445 15.99 10.3917C15.9167 10.3383 15.85 10.2817 15.79 10.2217C15.73 10.1617 15.6867 10.105 15.66 10.0517C15.5867 9.89833 15.5733 9.785 15.62 9.71167C15.6667 9.645 15.7267 9.56167 15.8 9.46167C15.9 9.315 16.0133 9.15167 16.14 8.97167C16.2667 8.79167 16.38 8.61833 16.48 8.45167C16.5333 8.35833 16.58 8.27167 16.62 8.19167C16.66 8.11167 16.7133 8.035 16.78 7.96167C16.8533 7.86167 16.9467 7.77833 17.06 7.71167C17.1733 7.65167 17.2533 7.57167 17.3 7.47167C17.32 7.425 17.33 7.375 17.33 7.32167C17.33 7.275 17.3367 7.225 17.35 7.17167C17.4233 6.985 17.54 6.81833 17.7 6.67167C17.8533 6.525 17.97 6.36167 18.05 6.18167C18.07 6.135 18.0833 6.09167 18.09 6.05167C18.09 6.01167 18.1 5.96833 18.12 5.92167C18.2667 5.58833 18.4467 5.28833 18.66 5.02167C18.8733 4.755 19.0567 4.49167 19.21 4.23167ZM21.17 4.21167L21.13 4.18167C21.0167 4.26833 20.9233 4.36167 20.85 4.46167C20.77 4.56833 20.6667 4.64833 20.54 4.70167C20.5 4.78833 20.4567 4.86833 20.41 4.94167C20.3567 5.015 20.29 5.07167 20.21 5.11167C20.1833 5.25833 20.13 5.385 20.05 5.49167C19.9633 5.59833 19.8833 5.70167 19.81 5.80167C19.7767 5.835 19.7467 5.87167 19.72 5.91167C19.6933 5.95833 19.66 6.00167 19.62 6.04167C19.58 6.08833 19.5367 6.125 19.49 6.15167C19.4433 6.17167 19.4 6.20167 19.36 6.24167C19.3067 6.30833 19.25 6.40833 19.19 6.54167C19.1233 6.66833 19.0633 6.77167 19.01 6.85167C18.9633 6.89833 18.9167 6.945 18.87 6.99167C18.8233 7.03833 18.81 7.09833 18.83 7.17167C18.8567 7.23833 18.91 7.285 18.99 7.31167C19.0767 7.33167 19.17 7.345 19.27 7.35167C19.3767 7.35833 19.48 7.355 19.58 7.34167C19.68 7.335 19.7633 7.33167 19.83 7.33167C19.9567 7.33167 20.0867 7.335 20.22 7.34167C20.3533 7.34167 20.48 7.33833 20.6 7.33167C20.7267 7.325 20.8367 7.30167 20.93 7.26167C21.0233 7.22833 21.0967 7.175 21.15 7.10167C21.2433 6.80833 21.2667 6.51167 21.22 6.21167C21.1733 5.91833 21.1333 5.625 21.1 5.33167C21.08 5.25167 21.0667 5.16167 21.06 5.06167C21.0533 4.96167 21.0533 4.87167 21.06 4.79167C21.0667 4.69833 21.0967 4.60833 21.15 4.52167C21.1967 4.435 21.2033 4.33167 21.17 4.21167ZM24.63 9.64167C24.69 9.495 24.7433 9.355 24.79 9.22167C24.8367 9.08833 24.8967 8.94167 24.97 8.78167C25.0033 8.68833 25.03 8.59167 25.05 8.49167C25.07 8.39167 25.1033 8.29167 25.15 8.19167C25.1967 8.11167 25.2533 8.02833 25.32 7.94167C25.3867 7.86167 25.44 7.77167 25.48 7.67167C25.5333 7.51833 25.5367 7.34167 25.49 7.14167C25.4433 6.94833 25.4467 6.75167 25.5 6.55167C25.5467 6.35833 25.6 6.16833 25.66 5.98167C25.72 5.795 25.76 5.62833 25.78 5.48167C25.7933 5.38167 25.8 5.28167 25.8 5.18167C25.8 5.075 25.81 4.965 25.83 4.85167C25.85 4.73833 25.8867 4.625 25.94 4.51167C25.9933 4.39833 26.0267 4.28833 26.04 4.18167C26.0533 3.975 26.0033 3.78833 25.89 3.62167C25.7767 3.44833 25.66 3.305 25.54 3.19167C25.5533 3.13167 25.5833 3.08833 25.63 3.06167C25.6833 3.02833 25.7233 3.015 25.75 3.02167C25.8567 3.04167 25.98 3.07833 26.12 3.13167C26.2533 3.185 26.3833 3.22167 26.51 3.24167C26.6233 3.26167 26.7467 3.26167 26.88 3.24167C27.0067 3.22167 27.1433 3.22167 27.29 3.24167C27.45 3.26167 27.6367 3.28167 27.85 3.30167C28.07 3.315 28.2867 3.32167 28.5 3.32167C28.7333 3.335 28.96 3.33167 29.18 3.31167C29.4 3.29167 29.6133 3.295 29.82 3.32167C29.98 3.34167 30.1233 3.385 30.25 3.45167C30.3767 3.51167 30.5167 3.53167 30.67 3.51167C30.7967 3.65833 30.9433 3.77167 31.11 3.85167C31.2833 3.93167 31.4367 4.02833 31.57 4.14167C31.7633 4.30167 31.9267 4.48833 32.06 4.70167C32.2 4.915 32.3667 5.09833 32.56 5.25167C32.56 5.325 32.5767 5.395 32.61 5.46167C32.65 5.52167 32.6733 5.59167 32.68 5.67167C32.68 5.71833 32.67 5.77167 32.65 5.83167C32.6367 5.89167 32.63 5.94833 32.63 6.00167C32.6367 6.08833 32.6633 6.155 32.71 6.20167C32.7567 6.255 32.7733 6.33167 32.76 6.43167C32.7533 6.75167 32.6733 7.065 32.52 7.37167C32.36 7.685 32.2033 7.95833 32.05 8.19167C31.95 8.19833 31.88 8.23833 31.84 8.31167C31.8 8.385 31.7467 8.46833 31.68 8.56167C31.5933 8.68833 31.4867 8.795 31.36 8.88167C31.24 8.96833 31.13 9.075 31.03 9.20167C30.83 9.275 30.6433 9.37167 30.47 9.49167C30.3033 9.61167 30.1133 9.72167 29.9 9.82167C29.8333 9.855 29.76 9.88833 29.68 9.92167C29.6 9.955 29.5233 9.98833 29.45 10.0217C29.3633 10.0483 29.2767 10.0817 29.19 10.1217C29.11 10.155 29.0333 10.1817 28.96 10.2017C28.9067 10.2217 28.85 10.225 28.79 10.2117C28.73 10.205 28.6733 10.2117 28.62 10.2317C28.5 10.2583 28.3867 10.305 28.28 10.3717C28.1667 10.4383 28.0567 10.4817 27.95 10.5017C27.8233 10.5217 27.6967 10.5117 27.57 10.4717C27.4433 10.4383 27.32 10.4083 27.2 10.3817C27.0467 10.4017 26.89 10.4083 26.73 10.4017C26.5767 10.395 26.4167 10.3883 26.25 10.3817C26.09 10.3683 25.9167 10.3683 25.73 10.3817C25.55 10.3883 25.3567 10.4117 25.15 10.4517C25.09 10.4583 25.0333 10.475 24.98 10.5017C24.92 10.5283 24.8633 10.5483 24.81 10.5617C24.7033 10.575 24.59 10.5817 24.47 10.5817C24.35 10.5817 24.2333 10.5817 24.12 10.5817C24.0733 10.5817 24.02 10.5817 23.96 10.5817C23.8933 10.575 23.83 10.5683 23.77 10.5617C23.71 10.5483 23.66 10.5317 23.62 10.5117C23.5733 10.485 23.5433 10.455 23.53 10.4217C23.5233 10.3683 23.54 10.3217 23.58 10.2817C23.62 10.235 23.67 10.1983 23.73 10.1717C23.79 10.1383 23.8533 10.1083 23.92 10.0817C23.98 10.0617 24.03 10.0417 24.07 10.0217C24.1767 9.96167 24.27 9.89167 24.35 9.81167C24.4233 9.73167 24.5167 9.675 24.63 9.64167ZM28.26 4.35167C28.1867 4.425 28.1367 4.51167 28.11 4.61167C28.0767 4.71167 28.0467 4.81833 28.02 4.93167C28 5.045 27.98 5.16167 27.96 5.28167C27.9467 5.40167 27.92 5.515 27.88 5.62167C27.8467 5.695 27.81 5.765 27.77 5.83167C27.7367 5.89833 27.71 5.96833 27.69 6.04167C27.6433 6.215 27.6167 6.385 27.61 6.55167C27.5967 6.71833 27.57 6.89167 27.53 7.07167C27.51 7.17167 27.4733 7.26833 27.42 7.36167C27.3733 7.46167 27.34 7.56167 27.32 7.66167C27.3 7.76167 27.3 7.855 27.32 7.94167C27.34 8.035 27.34 8.13167 27.32 8.23167C27.3 8.305 27.2767 8.375 27.25 8.44167C27.2167 8.50167 27.19 8.56833 27.17 8.64167C27.1233 8.88833 27.17 9.06833 27.31 9.18167C27.4433 9.295 27.6067 9.375 27.8 9.42167C28.1267 9.495 28.43 9.475 28.71 9.36167C28.99 9.24833 29.21 9.11833 29.37 8.97167C29.49 8.83167 29.6133 8.685 29.74 8.53167C29.8667 8.37167 29.9667 8.195 30.04 8.00167C30.0667 7.92833 30.0933 7.83167 30.12 7.71167C30.1467 7.585 30.18 7.46167 30.22 7.34167C30.2467 7.24167 30.28 7.14833 30.32 7.06167C30.36 6.975 30.3933 6.88833 30.42 6.80167C30.52 6.56167 30.56 6.30833 30.54 6.04167C30.52 5.76833 30.4733 5.555 30.4 5.40167C30.3733 5.34833 30.33 5.28833 30.27 5.22167C30.21 5.16167 30.1533 5.09833 30.1 5.03167C30.0333 4.95833 29.9767 4.885 29.93 4.81167C29.8767 4.73833 29.8333 4.685 29.8 4.65167C29.6667 4.53167 29.5133 4.44833 29.34 4.40167C29.16 4.34833 28.9967 4.26167 28.85 4.14167C28.6967 4.155 28.5833 4.185 28.51 4.23167C28.4367 4.27167 28.3533 4.31167 28.26 4.35167ZM39.97 4.08167C39.7233 4.195 39.4767 4.25167 39.23 4.25167C38.9833 4.25167 38.71 4.245 38.41 4.23167C38.33 4.23167 38.24 4.235 38.14 4.24167C38.0467 4.24833 37.96 4.25833 37.88 4.27167C37.4467 4.31833 37.0867 4.47833 36.8 4.75167C36.5067 5.03167 36.29 5.38167 36.15 5.80167C36.1033 5.955 36.0667 6.095 36.04 6.22167C36.0133 6.34833 36.0733 6.42167 36.22 6.44167C36.3133 6.46167 36.4033 6.46167 36.49 6.44167C36.5833 6.42167 36.6767 6.39833 36.77 6.37167C36.87 6.33833 36.9667 6.30833 37.06 6.28167C37.1467 6.255 37.2367 6.24167 37.33 6.24167C37.3633 6.24167 37.3967 6.24833 37.43 6.26167C37.4633 6.28167 37.4967 6.29167 37.53 6.29167C37.69 6.31167 37.8567 6.30167 38.03 6.26167C38.2033 6.215 38.36 6.21167 38.5 6.25167C38.5333 6.25833 38.56 6.275 38.58 6.30167C38.6 6.32167 38.6333 6.34167 38.68 6.36167C38.8 6.40833 38.9433 6.43833 39.11 6.45167C39.27 6.465 39.4 6.495 39.5 6.54167C39.5467 6.555 39.5933 6.58833 39.64 6.64167C39.6867 6.68833 39.71 6.72167 39.71 6.74167C39.71 6.84167 39.65 6.905 39.53 6.93167C39.41 6.95833 39.31 6.97833 39.23 6.99167C39.1567 6.99833 39.0833 6.99833 39.01 6.99167C38.9367 6.97833 38.8633 6.98167 38.79 7.00167C38.6633 7.02167 38.54 7.04833 38.42 7.08167C38.3 7.10833 38.1733 7.145 38.04 7.19167C37.8867 7.245 37.74 7.31167 37.6 7.39167C37.4667 7.47167 37.3167 7.51833 37.15 7.53167C37.03 7.55167 36.9167 7.55167 36.81 7.53167C36.7033 7.51833 36.5833 7.51833 36.45 7.53167C36.41 7.545 36.3667 7.56167 36.32 7.58167C36.28 7.595 36.2367 7.60833 36.19 7.62167C36.11 7.635 36.05 7.645 36.01 7.65167C35.97 7.65833 35.9367 7.66833 35.91 7.68167C35.89 7.70167 35.87 7.73167 35.85 7.77167C35.8233 7.805 35.7867 7.85833 35.74 7.93167C35.6667 8.09833 35.6233 8.275 35.61 8.46167C35.59 8.64833 35.57 8.845 35.55 9.05167C35.65 9.15167 35.7467 9.23167 35.84 9.29167C35.9333 9.35167 36.0733 9.38167 36.26 9.38167C36.36 9.38167 36.44 9.37167 36.5 9.35167C36.56 9.325 36.64 9.30833 36.74 9.30167C36.84 9.30167 36.94 9.30833 37.04 9.32167C37.14 9.335 37.2533 9.33833 37.38 9.33167C37.6467 9.31167 37.87 9.275 38.05 9.22167C38.2367 9.175 38.46 9.15833 38.72 9.17167C38.78 9.17167 38.88 9.17833 39.02 9.19167C39.16 9.19833 39.3033 9.20833 39.45 9.22167C39.5967 9.235 39.7267 9.255 39.84 9.28167C39.9533 9.315 40.01 9.35167 40.01 9.39167C40.01 9.45167 39.9767 9.50833 39.91 9.56167C39.8367 9.62167 39.7567 9.67833 39.67 9.73167C39.5833 9.77833 39.4967 9.81833 39.41 9.85167C39.3233 9.885 39.2667 9.905 39.24 9.91167C39.0867 9.95833 38.9367 9.97167 38.79 9.95167C38.6433 9.925 38.4833 9.92167 38.31 9.94167C38.1833 9.96167 38.07 9.98833 37.97 10.0217C37.87 10.0617 37.77 10.1017 37.67 10.1417C37.57 10.1817 37.4667 10.2217 37.36 10.2617C37.26 10.3017 37.14 10.3283 37 10.3417C36.82 10.355 36.6667 10.375 36.54 10.4017C36.4067 10.4217 36.2533 10.4517 36.08 10.4917C36.0133 10.505 35.9467 10.525 35.88 10.5517C35.8133 10.5717 35.7433 10.5917 35.67 10.6117C35.41 10.665 35.1267 10.675 34.82 10.6417C34.5133 10.615 34.1833 10.6183 33.83 10.6517C33.6033 10.6783 33.4 10.7117 33.22 10.7517C33.04 10.7983 32.86 10.8117 32.68 10.7917C32.6133 10.7783 32.5533 10.7717 32.5 10.7717C32.44 10.765 32.3867 10.7383 32.34 10.6917C32.36 10.6183 32.4 10.555 32.46 10.5017C32.5267 10.4483 32.59 10.3983 32.65 10.3517C32.7167 10.2983 32.78 10.2417 32.84 10.1817C32.9 10.1217 32.9567 10.065 33.01 10.0117C33.0633 9.93833 33.11 9.84833 33.15 9.74167C33.1833 9.64167 33.2167 9.535 33.25 9.42167C33.2833 9.315 33.32 9.21167 33.36 9.11167C33.4 9.01833 33.45 8.935 33.51 8.86167C33.4367 8.695 33.44 8.50833 33.52 8.30167C33.6 8.095 33.67 7.875 33.73 7.64167C33.75 7.58833 33.76 7.535 33.76 7.48167C33.76 7.42833 33.77 7.37833 33.79 7.33167C33.8033 7.23833 33.8433 7.15833 33.91 7.09167C33.9767 7.025 34.0167 6.955 34.03 6.88167C34.0433 6.835 34.0467 6.78833 34.04 6.74167C34.0333 6.695 34.0367 6.64833 34.05 6.60167C34.0633 6.46833 34.0967 6.33833 34.15 6.21167C34.2033 6.09167 34.2367 5.98167 34.25 5.88167C34.27 5.80833 34.2733 5.73167 34.26 5.65167C34.2467 5.57833 34.2433 5.505 34.25 5.43167C34.27 5.25167 34.31 5.07833 34.37 4.91167C34.43 4.745 34.4633 4.59833 34.47 4.47167C34.4767 4.37167 34.4633 4.26167 34.43 4.14167C34.3967 4.02833 34.36 3.93833 34.32 3.87167C34.2933 3.825 34.2533 3.77833 34.2 3.73167C34.1467 3.67833 34.09 3.62833 34.03 3.58167C33.9767 3.535 33.93 3.49167 33.89 3.45167C33.85 3.41167 33.83 3.375 33.83 3.34167C33.8367 3.24167 33.8767 3.18833 33.95 3.18167C34.0233 3.175 34.0933 3.145 34.16 3.09167C34.4867 3.09833 34.7967 3.135 35.09 3.20167C35.39 3.26833 35.7 3.30833 36.02 3.32167C36.1333 3.34167 36.2567 3.34167 36.39 3.32167C36.5167 3.295 36.6367 3.27833 36.75 3.27167C36.9433 3.25833 37.16 3.285 37.4 3.35167C37.6467 3.41833 37.8867 3.44167 38.12 3.42167C38.44 3.40167 38.74 3.39167 39.02 3.39167C39.3067 3.39167 39.6033 3.38167 39.91 3.36167C39.9633 3.40833 40.0467 3.43167 40.16 3.43167C40.2667 3.425 40.3767 3.415 40.49 3.40167C40.6033 3.38833 40.71 3.385 40.81 3.39167C40.9033 3.405 40.97 3.445 41.01 3.51167C41.0633 3.645 41.0533 3.755 40.98 3.84167C40.9067 3.935 40.8067 3.995 40.68 4.02167C40.64 4.02167 40.59 4.025 40.53 4.03167C40.4633 4.045 40.3933 4.055 40.32 4.06167C40.2467 4.075 40.1767 4.08167 40.11 4.08167C40.0433 4.08167 39.9967 4.08167 39.97 4.08167ZM61.47 1.09167C61.4233 1.105 61.3833 1.12167 61.35 1.14167C61.3167 1.155 61.2767 1.16833 61.23 1.18167C61.07 1.36833 60.9333 1.57833 60.82 1.81167C60.7067 2.03833 60.5867 2.26833 60.46 2.50167C60.4133 2.60167 60.3567 2.71833 60.29 2.85167C60.2233 2.985 60.17 3.11833 60.13 3.25167C60.0567 3.53167 59.9933 3.82167 59.94 4.12167C59.8867 4.42167 59.7867 4.68167 59.64 4.90167C59.62 4.935 59.59 4.97833 59.55 5.03167C59.5033 5.085 59.4567 5.135 59.41 5.18167C59.37 5.22833 59.32 5.275 59.26 5.32167C59.1933 5.36833 59.1567 5.40833 59.15 5.44167C59.1433 5.495 59.1533 5.55167 59.18 5.61167C59.2067 5.665 59.2133 5.71833 59.2 5.77167C59.1933 5.85167 59.1567 5.92833 59.09 6.00167C59.0167 6.075 58.96 6.15833 58.92 6.25167C58.88 6.33167 58.8467 6.41167 58.82 6.49167C58.7933 6.565 58.7567 6.64833 58.71 6.74167C58.63 6.895 58.53 7.05833 58.41 7.23167C58.29 7.405 58.1867 7.57833 58.1 7.75167C57.96 8.025 57.83 8.305 57.71 8.59167C57.5833 8.87833 57.4333 9.14167 57.26 9.38167C57.2 9.475 57.1333 9.55167 57.06 9.61167C56.9933 9.67833 56.9367 9.76167 56.89 9.86167C56.8767 9.895 56.87 9.93167 56.87 9.97167C56.87 10.005 56.86 10.0417 56.84 10.0817C56.7933 10.1683 56.7233 10.255 56.63 10.3417C56.53 10.4217 56.44 10.5083 56.36 10.6017C56.2867 10.7017 56.2067 10.7917 56.12 10.8717C56.0333 10.9517 55.9433 11.015 55.85 11.0617C55.6633 11.0283 55.4833 10.9917 55.31 10.9517C55.1367 10.905 54.9633 10.8617 54.79 10.8217C54.7367 10.8083 54.6933 10.7783 54.66 10.7317C54.6333 10.6917 54.6133 10.6483 54.6 10.6017C54.5 10.6817 54.42 10.705 54.36 10.6717C54.3 10.6317 54.2233 10.5883 54.13 10.5417C54.0833 10.5217 54.04 10.505 54 10.4917C53.96 10.4783 53.9267 10.465 53.9 10.4517C53.7267 10.3583 53.6067 10.2583 53.54 10.1517C53.5 9.805 53.46 9.455 53.42 9.10167C53.3867 8.74833 53.34 8.405 53.28 8.07167C53.2667 7.985 53.2467 7.90167 53.22 7.82167C53.2 7.74167 53.2 7.65167 53.22 7.55167C53.2333 7.43833 53.27 7.325 53.33 7.21167C53.39 7.09833 53.42 6.98833 53.42 6.88167C53.4267 6.80833 53.41 6.745 53.37 6.69167C53.3233 6.645 53.2867 6.585 53.26 6.51167C53.24 6.445 53.22 6.36167 53.2 6.26167C53.18 6.155 53.1633 6.05167 53.15 5.95167C53.11 5.705 53.11 5.43167 53.15 5.13167C53.1967 4.83167 53.24 4.535 53.28 4.24167C53.3267 3.94833 53.3567 3.67167 53.37 3.41167C53.3767 3.145 53.3267 2.92167 53.22 2.74167C53.1333 2.74167 53.0667 2.76167 53.02 2.80167C52.98 2.84167 52.9467 2.89167 52.92 2.95167C52.9 3.01167 52.88 3.07833 52.86 3.15167C52.84 3.21833 52.8133 3.285 52.78 3.35167C52.7333 3.445 52.67 3.525 52.59 3.59167C52.5167 3.65833 52.4467 3.74167 52.38 3.84167C52.2867 3.96833 52.21 4.125 52.15 4.31167C52.0833 4.49167 52.01 4.65833 51.93 4.81167C51.8767 4.93167 51.81 5.05833 51.73 5.19167C51.6567 5.325 51.61 5.48167 51.59 5.66167C51.5433 5.68167 51.5067 5.70833 51.48 5.74167C51.4533 5.78167 51.4167 5.81167 51.37 5.83167C51.2433 6.065 51.1033 6.30167 50.95 6.54167C50.8033 6.775 50.65 7.01167 50.49 7.25167C50.3367 7.49833 50.1867 7.745 50.04 7.99167C49.8933 8.245 49.77 8.495 49.67 8.74167C49.6367 8.78833 49.5833 8.835 49.51 8.88167C49.4367 8.935 49.3767 8.99833 49.33 9.07167C49.3033 9.125 49.2867 9.185 49.28 9.25167C49.28 9.31833 49.2667 9.38833 49.24 9.46167C49.2 9.56167 49.1433 9.66167 49.07 9.76167C48.9967 9.855 48.94 9.95167 48.9 10.0517C48.8133 10.2317 48.71 10.4083 48.59 10.5817C48.4633 10.7483 48.3233 10.8917 48.17 11.0117C48.1033 11.0583 48.02 11.1017 47.92 11.1417C47.82 11.1883 47.7133 11.1983 47.6 11.1717C47.5533 11.165 47.51 11.145 47.47 11.1117C47.4233 11.0783 47.38 11.045 47.34 11.0117C47.2933 10.985 47.2433 10.965 47.19 10.9517C47.13 10.9317 47.0633 10.9317 46.99 10.9517C46.9233 10.8917 46.8733 10.8283 46.84 10.7617C46.8133 10.7017 46.7633 10.6383 46.69 10.5717C46.65 10.5317 46.6033 10.5017 46.55 10.4817C46.5033 10.4617 46.4533 10.4383 46.4 10.4117C46.3467 10.3783 46.3 10.3417 46.26 10.3017C46.22 10.2617 46.19 10.205 46.17 10.1317C46.1433 10.0117 46.1267 9.87167 46.12 9.71167C46.1133 9.545 46.11 9.375 46.11 9.20167C46.1167 9.02167 46.12 8.83833 46.12 8.65167C46.12 8.465 46.1167 8.27833 46.11 8.09167C46.09 7.905 46.08 7.73167 46.08 7.57167C46.08 7.41167 46.07 7.255 46.05 7.10167C46.05 7.055 46.04 7.005 46.02 6.95167C46.0067 6.89167 46 6.84167 46 6.80167C46.0067 6.70167 46.0367 6.61167 46.09 6.53167C46.1433 6.45167 46.17 6.375 46.17 6.30167C46.17 6.195 46.15 6.08167 46.11 5.96167C46.0367 5.815 45.9767 5.64833 45.93 5.46167C45.8833 5.275 45.87 5.05833 45.89 4.81167C45.9033 4.63167 45.9233 4.44167 45.95 4.24167C45.97 4.04167 45.9733 3.82833 45.96 3.60167C45.9467 3.38167 45.93 3.17833 45.91 2.99167C45.8833 2.805 45.89 2.59167 45.93 2.35167C45.9367 2.25167 45.96 2.14167 46 2.02167C46.0333 1.895 46.04 1.755 46.02 1.60167C46.0133 1.535 45.99 1.46167 45.95 1.38167C45.91 1.295 45.8633 1.205 45.81 1.11167C45.75 1.01833 45.7 0.925 45.66 0.831667C45.62 0.731667 45.5967 0.641667 45.59 0.561667C45.69 0.441667 45.8133 0.391667 45.96 0.411667C46.1 0.431667 46.25 0.455 46.41 0.481667C46.4833 0.488333 46.5567 0.488333 46.63 0.481667C46.6967 0.475 46.7667 0.475 46.84 0.481667C47.08 0.501667 47.3333 0.531667 47.6 0.571667C47.86 0.611667 48.1133 0.621667 48.36 0.601667C48.7733 0.568333 49.1667 0.538334 49.54 0.511667C49.9133 0.491667 50.29 0.468333 50.67 0.441667C50.67 0.495 50.6667 0.555 50.66 0.621667C50.6533 0.681667 50.6333 0.735 50.6 0.781667C50.5467 0.855 50.4533 0.928333 50.32 1.00167C50.18 1.075 50.05 1.12833 49.93 1.16167C49.8233 1.20167 49.7367 1.225 49.67 1.23167C49.61 1.245 49.53 1.27833 49.43 1.33167C49.3167 1.39167 49.2367 1.45833 49.19 1.53167C49.1367 1.605 49.0733 1.68167 49 1.76167C48.96 1.98167 48.9467 2.23167 48.96 2.51167C48.9733 2.79167 48.97 3.06833 48.95 3.34167C48.93 3.48833 48.9133 3.62833 48.9 3.76167C48.88 3.90167 48.87 4.035 48.87 4.16167C48.87 4.28833 48.87 4.405 48.87 4.51167C48.87 4.625 48.82 4.73167 48.72 4.83167C48.7467 5.185 48.7533 5.55167 48.74 5.93167C48.7333 6.31833 48.75 6.68833 48.79 7.04167C48.87 7.015 48.96 6.955 49.06 6.86167C49.16 6.775 49.2333 6.685 49.28 6.59167C49.3067 6.51833 49.3233 6.44167 49.33 6.36167C49.33 6.28167 49.3433 6.205 49.37 6.13167C49.4167 5.985 49.48 5.84833 49.56 5.72167C49.6467 5.60167 49.73 5.47833 49.81 5.35167C49.89 5.23167 49.9667 5.10833 50.04 4.98167C50.1133 4.855 50.17 4.71167 50.21 4.55167C50.2567 4.545 50.2933 4.53167 50.32 4.51167C50.3533 4.49833 50.39 4.48167 50.43 4.46167C50.47 4.335 50.5 4.22167 50.52 4.12167C50.54 4.02167 50.6 3.92167 50.7 3.82167C50.7333 3.775 50.78 3.735 50.84 3.70167C50.9 3.66833 50.9567 3.635 51.01 3.60167C51.07 3.56167 51.12 3.525 51.16 3.49167C51.2 3.45167 51.23 3.40167 51.25 3.34167C51.2633 3.28167 51.26 3.23167 51.24 3.19167C51.22 3.145 51.2167 3.08833 51.23 3.02167C51.2433 2.94833 51.2867 2.86167 51.36 2.76167C51.44 2.655 51.5033 2.55167 51.55 2.45167C51.6567 2.265 51.7467 2.115 51.82 2.00167C51.8933 1.88833 51.99 1.755 52.11 1.60167C52.23 1.455 52.33 1.33833 52.41 1.25167C52.49 1.15833 52.59 1.04167 52.71 0.901667C52.7833 0.821667 52.8533 0.735 52.92 0.641667C52.9867 0.555 53.0433 0.501667 53.09 0.481667C53.19 0.428333 53.3067 0.411666 53.44 0.431666C53.5733 0.458333 53.7067 0.461667 53.84 0.441667C53.9267 0.428333 54.02 0.395 54.12 0.341667C54.22 0.288333 54.33 0.251667 54.45 0.231667C54.6033 0.205 54.76 0.198333 54.92 0.211667C55.0867 0.218333 55.2433 0.241667 55.39 0.281667C55.5367 0.321667 55.66 0.385 55.76 0.471667C55.86 0.551667 55.92 0.658333 55.94 0.791667C55.9 0.925 55.8967 1.05833 55.93 1.19167C55.9633 1.33167 55.9667 1.47833 55.94 1.63167C55.8933 1.85167 55.8033 2.06167 55.67 2.26167C55.5367 2.46167 55.4533 2.67833 55.42 2.91167C55.4 3.07167 55.4133 3.23167 55.46 3.39167C55.5133 3.55833 55.55 3.73167 55.57 3.91167C55.5767 3.97833 55.5733 4.04167 55.56 4.10167C55.5467 4.16833 55.55 4.23833 55.57 4.31167C55.5967 4.57167 55.6233 4.845 55.65 5.13167C55.6567 5.25167 55.6467 5.37167 55.62 5.49167C55.5933 5.61167 55.5633 5.735 55.53 5.86167C55.4967 5.98167 55.4667 6.10167 55.44 6.22167C55.4067 6.34167 55.39 6.455 55.39 6.56167C55.3967 6.72167 55.41 6.89167 55.43 7.07167C55.45 7.25167 55.4767 7.39167 55.51 7.49167C55.53 7.53833 55.5633 7.585 55.61 7.63167C55.6633 7.67833 55.7 7.725 55.72 7.77167C55.7533 7.87167 55.76 7.975 55.74 8.08167C55.7133 8.195 55.7233 8.285 55.77 8.35167C55.8833 8.33833 55.94 8.29167 55.94 8.21167C55.94 8.13167 55.9533 8.06167 55.98 8.00167C56.0267 7.875 56.1 7.74167 56.2 7.60167C56.3 7.46833 56.4 7.325 56.5 7.17167C56.6867 6.87833 56.8467 6.595 56.98 6.32167C57.0333 6.22833 57.0733 6.12833 57.1 6.02167C57.1333 5.90833 57.1733 5.815 57.22 5.74167C57.2733 5.66167 57.3367 5.595 57.41 5.54167C57.4767 5.495 57.52 5.42167 57.54 5.32167C57.5733 5.24167 57.58 5.16167 57.56 5.08167C57.5467 5.00167 57.5433 4.925 57.55 4.85167C57.5567 4.75167 57.59 4.64833 57.65 4.54167C57.71 4.435 57.7767 4.32167 57.85 4.20167C57.9233 4.08167 57.9933 3.96167 58.06 3.84167C58.1267 3.715 58.1833 3.585 58.23 3.45167C58.2767 3.285 58.3233 3.135 58.37 3.00167C58.4167 2.86833 58.4767 2.735 58.55 2.60167C58.5967 2.50167 58.6533 2.40833 58.72 2.32167C58.7867 2.235 58.84 2.15167 58.88 2.07167C58.92 1.97167 58.9467 1.865 58.96 1.75167C58.9733 1.645 59 1.54167 59.04 1.44167C59.0667 1.34167 59.1033 1.23833 59.15 1.13167C59.1967 1.025 59.2233 0.935 59.23 0.861667C59.23 0.815 59.2267 0.775 59.22 0.741667C59.2067 0.701667 59.2067 0.668333 59.22 0.641667C59.2267 0.588333 59.2567 0.538334 59.31 0.491667C59.37 0.438334 59.4333 0.388333 59.5 0.341667C59.5667 0.295 59.64 0.255 59.72 0.221667C59.7933 0.188334 59.8567 0.161667 59.91 0.141667C60.0967 0.0949999 60.3167 0.0883332 60.57 0.121667C60.8233 0.155 61.0667 0.178333 61.3 0.191667C61.4333 0.205 61.5967 0.201666 61.79 0.181666C61.9767 0.161666 62.1667 0.141667 62.36 0.121667C62.58 0.108333 62.8 0.0816666 63.02 0.0416666C63.2467 0.0083333 63.45 -0.005 63.63 0.00166667C63.6767 0.00166667 63.7367 0.015 63.81 0.0416666C63.8833 0.0616666 63.92 0.0949999 63.92 0.141667C63.9267 0.188333 63.91 0.225 63.87 0.251667C63.83 0.285 63.78 0.318333 63.72 0.351667C63.66 0.385 63.5967 0.411666 63.53 0.431666C63.4633 0.458333 63.4033 0.475 63.35 0.481667C63.1767 0.528333 63 0.565 62.82 0.591667C62.64 0.618333 62.47 0.648333 62.31 0.681666C62.1433 0.715 61.9867 0.761667 61.84 0.821667C61.6933 0.888333 61.57 0.978333 61.47 1.09167ZM60.5 9.76167C60.52 9.555 60.59 9.36833 60.71 9.20167C60.8367 9.02833 60.93 8.85167 60.99 8.67167C61.03 8.55167 61.0567 8.425 61.07 8.29167C61.0833 8.15833 61.0933 8.02833 61.1 7.90167C61.1 7.76833 61.11 7.635 61.13 7.50167C61.15 7.36833 61.1833 7.23833 61.23 7.11167C61.1833 7.03167 61.1633 6.94167 61.17 6.84167C61.1833 6.74167 61.19 6.635 61.19 6.52167C61.23 6.46167 61.2667 6.38833 61.3 6.30167C61.3267 6.22167 61.39 6.16833 61.49 6.14167C61.5767 5.94167 61.62 5.735 61.62 5.52167C61.62 5.30833 61.6433 5.085 61.69 4.85167C61.7033 4.81167 61.7233 4.77167 61.75 4.73167C61.7767 4.69833 61.7967 4.65833 61.81 4.61167C61.8767 4.41833 61.91 4.215 61.91 4.00167C61.91 3.78833 61.9467 3.585 62.02 3.39167C62.0733 3.37167 62.1433 3.34167 62.23 3.30167C62.31 3.26167 62.3933 3.22167 62.48 3.18167C62.5667 3.14167 62.65 3.10833 62.73 3.08167C62.81 3.055 62.8833 3.045 62.95 3.05167C62.9967 3.07167 63.0433 3.09833 63.09 3.13167C63.13 3.15833 63.1833 3.195 63.25 3.24167C63.2967 3.26833 63.34 3.30167 63.38 3.34167C63.42 3.375 63.4633 3.405 63.51 3.43167C63.5433 3.45167 63.59 3.46833 63.65 3.48167C63.71 3.495 63.75 3.51167 63.77 3.53167C63.7767 3.53833 63.8067 3.56833 63.86 3.62167C63.9067 3.68167 63.9567 3.74167 64.01 3.80167C64.0567 3.86833 64.1033 3.93167 64.15 3.99167C64.1967 4.05167 64.2233 4.08833 64.23 4.10167C64.2433 4.155 64.24 4.21833 64.22 4.29167C64.2 4.35833 64.1767 4.425 64.15 4.49167C64.1167 4.55833 64.0833 4.62833 64.05 4.70167C64.0167 4.76833 63.9933 4.82833 63.98 4.88167C63.9467 4.98167 63.9167 5.08167 63.89 5.18167C63.8633 5.275 63.8267 5.37167 63.78 5.47167C63.74 5.59167 63.69 5.72833 63.63 5.88167C63.5767 6.035 63.54 6.19833 63.52 6.37167C63.5067 6.49833 63.46 6.595 63.38 6.66167C63.3 6.72167 63.2467 6.81167 63.22 6.93167C63.2067 7.01833 63.2 7.105 63.2 7.19167C63.2 7.285 63.2 7.375 63.2 7.46167C63.2067 7.54833 63.2067 7.63167 63.2 7.71167C63.2 7.79833 63.18 7.875 63.14 7.94167C63.1133 7.98833 63.0733 8.025 63.02 8.05167C62.9667 8.07167 62.92 8.105 62.88 8.15167C62.8267 8.245 62.78 8.35833 62.74 8.49167C62.7 8.63167 62.6667 8.775 62.64 8.92167C62.6067 9.075 62.5933 9.225 62.6 9.37167C62.6067 9.525 62.6333 9.66167 62.68 9.78167C62.6333 9.92833 62.5533 10.055 62.44 10.1617C62.3267 10.2683 62.19 10.3517 62.03 10.4117C61.8767 10.4717 61.71 10.505 61.53 10.5117C61.3567 10.5117 61.1767 10.4817 60.99 10.4217C60.9233 10.3083 60.8367 10.205 60.73 10.1117C60.63 10.0183 60.5533 9.90167 60.5 9.76167ZM64.96 10.2117C64.7667 10.2783 64.5967 10.255 64.45 10.1417C64.3033 10.0283 64.2133 9.895 64.18 9.74167C64.16 9.66833 64.16 9.555 64.18 9.40167C64.2 9.24833 64.2267 9.12833 64.26 9.04167C64.3 8.94167 64.3767 8.82167 64.49 8.68167C64.61 8.54833 64.7033 8.395 64.77 8.22167C64.83 8.055 64.8833 7.89833 64.93 7.75167C64.97 7.59833 65.03 7.475 65.11 7.38167C65.1767 7.32167 65.2433 7.265 65.31 7.21167C65.3833 7.165 65.4267 7.09833 65.44 7.01167C65.44 6.945 65.42 6.88167 65.38 6.82167C65.3333 6.76833 65.3167 6.695 65.33 6.60167C65.33 6.52167 65.3533 6.41833 65.4 6.29167C65.4533 6.165 65.5033 6.05167 65.55 5.95167C65.65 5.73167 65.7267 5.50833 65.78 5.28167C65.8 5.215 65.8167 5.13833 65.83 5.05167C65.8433 4.965 65.86 4.89833 65.88 4.85167C65.9067 4.81833 65.9333 4.76167 65.96 4.68167C65.9933 4.595 66.0333 4.51167 66.08 4.43167C66.1267 4.35167 66.1767 4.27833 66.23 4.21167C66.2833 4.13833 66.3433 4.08833 66.41 4.06167C66.4833 4.035 66.5633 4.015 66.65 4.00167C66.7367 3.98833 66.8167 3.96167 66.89 3.92167C66.97 3.895 67.02 3.865 67.04 3.83167C67.0533 3.79167 67.0967 3.755 67.17 3.72167C67.23 3.70167 67.29 3.69167 67.35 3.69167C67.4033 3.69167 67.4633 3.685 67.53 3.67167C67.6033 3.63833 67.68 3.595 67.76 3.54167C67.8467 3.48833 67.9433 3.495 68.05 3.56167C68.0967 3.58833 68.1433 3.66833 68.19 3.80167C68.23 3.94167 68.2733 4.06833 68.32 4.18167C68.34 4.24833 68.3667 4.32833 68.4 4.42167C68.4333 4.50833 68.4633 4.60167 68.49 4.70167C68.5167 4.795 68.5433 4.88167 68.57 4.96167C68.5967 5.035 68.62 5.09167 68.64 5.13167C68.6867 5.21833 68.7167 5.315 68.73 5.42167C68.75 5.52167 68.7767 5.61167 68.81 5.69167C68.8567 5.785 68.9033 5.87167 68.95 5.95167C68.9967 6.03167 69.0433 6.12167 69.09 6.22167C69.1367 6.32167 69.1767 6.41833 69.21 6.51167C69.25 6.605 69.2967 6.70167 69.35 6.80167C69.3833 6.875 69.4367 6.93833 69.51 6.99167C69.5833 7.05167 69.63 7.11833 69.65 7.19167C69.6767 7.265 69.6767 7.345 69.65 7.43167C69.6233 7.51833 69.62 7.59833 69.64 7.67167C69.6667 7.77167 69.7233 7.855 69.81 7.92167C69.9033 7.98167 69.9867 8.04833 70.06 8.12167C70.1067 8.175 70.1333 8.23167 70.14 8.29167C70.1467 8.345 70.1867 8.38167 70.26 8.40167C70.28 8.22833 70.3033 8.075 70.33 7.94167C70.35 7.815 70.3733 7.69167 70.4 7.57167C70.4267 7.445 70.4533 7.31833 70.48 7.19167C70.5067 7.05833 70.53 6.90833 70.55 6.74167C70.6433 6.62167 70.7267 6.51167 70.8 6.41167C70.8733 6.305 70.9033 6.165 70.89 5.99167C70.8833 5.93833 70.87 5.885 70.85 5.83167C70.8233 5.77167 70.8133 5.71167 70.82 5.65167C70.8333 5.55833 70.8533 5.475 70.88 5.40167C70.9067 5.32833 70.9433 5.23833 70.99 5.13167C71.0167 5.05833 71.04 4.98167 71.06 4.90167C71.0733 4.82833 71.0967 4.745 71.13 4.65167C71.1567 4.57833 71.18 4.51833 71.2 4.47167C71.22 4.425 71.2467 4.38167 71.28 4.34167C71.3067 4.30167 71.3267 4.25833 71.34 4.21167C71.36 4.15833 71.38 4.08167 71.4 3.98167C71.4267 3.82833 71.44 3.695 71.44 3.58167C71.44 3.475 71.4633 3.365 71.51 3.25167C71.5833 3.09167 71.7 2.955 71.86 2.84167C72.02 2.72833 72.17 2.635 72.31 2.56167C72.57 2.56833 72.78 2.635 72.94 2.76167C73.1067 2.88167 73.2133 3.02833 73.26 3.20167C73.32 3.36833 73.3133 3.50167 73.24 3.60167C73.1733 3.70833 73.1033 3.825 73.03 3.95167C72.9833 4.03833 72.9467 4.115 72.92 4.18167C72.9 4.255 72.8833 4.32833 72.87 4.40167C72.8567 4.46833 72.8433 4.53833 72.83 4.61167C72.8167 4.685 72.79 4.765 72.75 4.85167C72.7233 4.945 72.6833 5.02167 72.63 5.08167C72.5767 5.14167 72.54 5.20167 72.52 5.26167C72.5467 5.395 72.5567 5.50167 72.55 5.58167C72.55 5.66167 72.5367 5.735 72.51 5.80167C72.49 5.875 72.4667 5.945 72.44 6.01167C72.42 6.07833 72.4 6.155 72.38 6.24167C72.3667 6.30167 72.36 6.365 72.36 6.43167C72.36 6.49167 72.35 6.54833 72.33 6.60167C72.3033 6.715 72.2667 6.81833 72.22 6.91167C72.1733 6.99833 72.1267 7.085 72.08 7.17167C72.02 7.305 71.95 7.43167 71.87 7.55167C71.79 7.67167 71.7433 7.83167 71.73 8.03167C71.7167 8.15833 71.71 8.26833 71.71 8.36167C71.7033 8.455 71.6967 8.545 71.69 8.63167C71.69 8.71167 71.6767 8.79833 71.65 8.89167C71.63 8.97833 71.6 9.08833 71.56 9.22167C71.5467 9.295 71.5233 9.365 71.49 9.43167C71.4567 9.49833 71.43 9.56833 71.41 9.64167C71.3567 9.88167 71.28 10.0617 71.18 10.1817C71.08 10.3017 70.93 10.4283 70.73 10.5617C70.6167 10.5883 70.5067 10.615 70.4 10.6417C70.2933 10.6683 70.1867 10.6817 70.08 10.6817C69.9733 10.6817 69.8767 10.665 69.79 10.6317C69.6967 10.5983 69.6167 10.5317 69.55 10.4317C69.5033 10.3583 69.4567 10.2517 69.41 10.1117C69.3567 9.97167 69.3 9.83167 69.24 9.69167C69.2133 9.63167 69.1833 9.57167 69.15 9.51167C69.1167 9.45167 69.09 9.39167 69.07 9.33167C69.03 9.225 69.0033 9.13833 68.99 9.07167C68.9767 8.99833 68.9467 8.895 68.9 8.76167C68.8333 8.56167 68.7333 8.41167 68.6 8.31167C68.46 8.21167 68.34 8.105 68.24 7.99167C68.2333 7.89833 68.22 7.815 68.2 7.74167C68.18 7.66833 68.14 7.60833 68.08 7.56167C68.06 7.54167 68.0367 7.53167 68.01 7.53167C67.9833 7.525 67.96 7.50833 67.94 7.48167C67.9133 7.44167 67.8967 7.39833 67.89 7.35167C67.8767 7.29833 67.8567 7.25833 67.83 7.23167C67.81 7.21833 67.7833 7.17833 67.75 7.11167C67.71 7.045 67.6767 6.98167 67.65 6.92167C67.6167 6.855 67.58 6.79833 67.54 6.75167C67.5067 6.69833 67.48 6.67833 67.46 6.69167C67.4133 6.69167 67.37 6.72833 67.33 6.80167C67.29 6.875 67.25 6.955 67.21 7.04167C67.17 7.135 67.13 7.225 67.09 7.31167C67.0567 7.39833 67.0267 7.45833 67 7.49167C66.9533 7.55833 66.9167 7.65167 66.89 7.77167C66.87 7.89833 66.8433 7.99833 66.81 8.07167C66.7433 8.17833 66.6833 8.28833 66.63 8.40167C66.5833 8.50833 66.5967 8.625 66.67 8.75167C66.67 8.81833 66.6533 8.87167 66.62 8.91167C66.5867 8.95167 66.58 9.01833 66.6 9.11167C66.5467 9.21167 66.4933 9.325 66.44 9.45167C66.3933 9.57833 66.3433 9.71833 66.29 9.87167C66.2567 9.965 66.2333 10.0583 66.22 10.1517C66.2 10.2517 66.1767 10.345 66.15 10.4317C66.1233 10.5183 66.0833 10.5917 66.03 10.6517C65.9833 10.7183 65.9167 10.755 65.83 10.7617C65.7233 10.7817 65.6333 10.7683 65.56 10.7217C65.4867 10.675 65.42 10.6217 65.36 10.5617C65.2933 10.5017 65.2267 10.4383 65.16 10.3717C65.1 10.305 65.0333 10.2517 64.96 10.2117ZM73.33 9.64167C73.39 9.495 73.4433 9.355 73.49 9.22167C73.5367 9.08833 73.5967 8.94167 73.67 8.78167C73.7033 8.68833 73.73 8.59167 73.75 8.49167C73.77 8.39167 73.8033 8.29167 73.85 8.19167C73.89 8.11167 73.9467 8.02833 74.02 7.94167C74.0867 7.86167 74.1367 7.77167 74.17 7.67167C74.23 7.51833 74.2367 7.34167 74.19 7.14167C74.1433 6.94833 74.1467 6.75167 74.2 6.55167C74.2467 6.35833 74.3 6.16833 74.36 5.98167C74.42 5.795 74.46 5.62833 74.48 5.48167C74.4933 5.38167 74.5 5.28167 74.5 5.18167C74.5 5.075 74.51 4.965 74.53 4.85167C74.55 4.73833 74.5867 4.625 74.64 4.51167C74.6933 4.39833 74.7233 4.28833 74.73 4.18167C74.75 3.975 74.7033 3.78833 74.59 3.62167C74.4767 3.44833 74.36 3.305 74.24 3.19167C74.2533 3.13167 74.2833 3.08833 74.33 3.06167C74.3833 3.02833 74.4233 3.015 74.45 3.02167C74.5567 3.04167 74.68 3.07833 74.82 3.13167C74.9533 3.185 75.0833 3.22167 75.21 3.24167C75.3233 3.26167 75.4467 3.26167 75.58 3.24167C75.7067 3.22167 75.8433 3.22167 75.99 3.24167C76.15 3.26167 76.3367 3.28167 76.55 3.30167C76.77 3.315 76.9867 3.32167 77.2 3.32167C77.4333 3.335 77.66 3.33167 77.88 3.31167C78.1 3.29167 78.3133 3.295 78.52 3.32167C78.6733 3.34167 78.8167 3.385 78.95 3.45167C79.0767 3.51167 79.2167 3.53167 79.37 3.51167C79.4967 3.65833 79.6433 3.77167 79.81 3.85167C79.9833 3.93167 80.1367 4.02833 80.27 4.14167C80.4633 4.30167 80.6267 4.48833 80.76 4.70167C80.9 4.915 81.0667 5.09833 81.26 5.25167C81.26 5.325 81.2767 5.395 81.31 5.46167C81.35 5.52167 81.3733 5.59167 81.38 5.67167C81.38 5.71833 81.37 5.77167 81.35 5.83167C81.33 5.89167 81.32 5.94833 81.32 6.00167C81.3333 6.08833 81.3633 6.155 81.41 6.20167C81.4567 6.255 81.4733 6.33167 81.46 6.43167C81.4533 6.75167 81.3733 7.065 81.22 7.37167C81.06 7.685 80.9033 7.95833 80.75 8.19167C80.65 8.19833 80.58 8.23833 80.54 8.31167C80.5 8.385 80.4467 8.46833 80.38 8.56167C80.2867 8.68833 80.18 8.795 80.06 8.88167C79.94 8.96833 79.83 9.075 79.73 9.20167C79.5233 9.275 79.3367 9.37167 79.17 9.49167C79.0033 9.61167 78.8133 9.72167 78.6 9.82167C78.5267 9.855 78.4533 9.88833 78.38 9.92167C78.3 9.955 78.2233 9.98833 78.15 10.0217C78.0633 10.0483 77.9767 10.0817 77.89 10.1217C77.81 10.155 77.7333 10.1817 77.66 10.2017C77.6067 10.2217 77.55 10.225 77.49 10.2117C77.43 10.205 77.3733 10.2117 77.32 10.2317C77.2 10.2583 77.0867 10.305 76.98 10.3717C76.8667 10.4383 76.7567 10.4817 76.65 10.5017C76.5233 10.5217 76.3967 10.5117 76.27 10.4717C76.1367 10.4383 76.0133 10.4083 75.9 10.3817C75.74 10.4017 75.5833 10.4083 75.43 10.4017C75.2767 10.395 75.1167 10.3883 74.95 10.3817C74.79 10.3683 74.6167 10.3683 74.43 10.3817C74.25 10.3883 74.0567 10.4117 73.85 10.4517C73.79 10.4583 73.7333 10.475 73.68 10.5017C73.62 10.5283 73.56 10.5483 73.5 10.5617C73.4 10.575 73.29 10.5817 73.17 10.5817C73.0433 10.5817 72.9267 10.5817 72.82 10.5817C72.7733 10.5817 72.72 10.5817 72.66 10.5817C72.5933 10.575 72.53 10.5683 72.47 10.5617C72.41 10.5483 72.3567 10.5317 72.31 10.5117C72.27 10.485 72.2433 10.455 72.23 10.4217C72.2233 10.3683 72.24 10.3217 72.28 10.2817C72.32 10.235 72.37 10.1983 72.43 10.1717C72.49 10.1383 72.5533 10.1083 72.62 10.0817C72.68 10.0617 72.73 10.0417 72.77 10.0217C72.8767 9.96167 72.97 9.89167 73.05 9.81167C73.1233 9.73167 73.2167 9.675 73.33 9.64167ZM76.96 4.35167C76.8867 4.425 76.8367 4.51167 76.81 4.61167C76.7767 4.71167 76.7467 4.81833 76.72 4.93167C76.7 5.045 76.68 5.16167 76.66 5.28167C76.6467 5.40167 76.62 5.515 76.58 5.62167C76.5467 5.695 76.51 5.765 76.47 5.83167C76.4367 5.89833 76.41 5.96833 76.39 6.04167C76.3433 6.215 76.3167 6.385 76.31 6.55167C76.2967 6.71833 76.27 6.89167 76.23 7.07167C76.21 7.17167 76.1733 7.26833 76.12 7.36167C76.0733 7.46167 76.04 7.56167 76.02 7.66167C76 7.76167 76 7.855 76.02 7.94167C76.04 8.035 76.04 8.13167 76.02 8.23167C76 8.305 75.9733 8.375 75.94 8.44167C75.9133 8.50167 75.89 8.56833 75.87 8.64167C75.8233 8.88833 75.87 9.06833 76.01 9.18167C76.1433 9.295 76.3067 9.375 76.5 9.42167C76.8267 9.495 77.13 9.475 77.41 9.36167C77.6833 9.24833 77.9033 9.11833 78.07 8.97167C78.19 8.83167 78.3133 8.685 78.44 8.53167C78.5667 8.37167 78.6667 8.195 78.74 8.00167C78.7667 7.92833 78.7933 7.83167 78.82 7.71167C78.8467 7.585 78.88 7.46167 78.92 7.34167C78.9467 7.24167 78.98 7.14833 79.02 7.06167C79.06 6.975 79.0933 6.88833 79.12 6.80167C79.22 6.56167 79.26 6.30833 79.24 6.04167C79.22 5.76833 79.1733 5.555 79.1 5.40167C79.0733 5.34833 79.03 5.28833 78.97 5.22167C78.91 5.16167 78.8533 5.09833 78.8 5.03167C78.7333 4.95833 78.6733 4.885 78.62 4.81167C78.5733 4.73833 78.53 4.685 78.49 4.65167C78.3633 4.53167 78.2133 4.44833 78.04 4.40167C77.86 4.34833 77.6967 4.26167 77.55 4.14167C77.3967 4.155 77.2833 4.185 77.21 4.23167C77.1367 4.27167 77.0533 4.31167 76.96 4.35167ZM86.42 4.75167C86.5067 4.785 86.5633 4.83167 86.59 4.89167C86.6167 4.95167 86.6367 5.01167 86.65 5.07167C86.6633 5.13833 86.68 5.20167 86.7 5.26167C86.72 5.32833 86.7633 5.38167 86.83 5.42167C86.85 5.435 86.8833 5.455 86.93 5.48167C86.9767 5.50833 87.0267 5.53833 87.08 5.57167C87.1333 5.605 87.1867 5.63167 87.24 5.65167C87.2867 5.67833 87.3233 5.685 87.35 5.67167C87.41 5.665 87.46 5.625 87.5 5.55167C87.5467 5.47833 87.5867 5.395 87.62 5.30167C87.6533 5.20833 87.6733 5.10833 87.68 5.00167C87.6933 4.90167 87.69 4.82167 87.67 4.76167C87.65 4.735 87.6 4.695 87.52 4.64167C87.44 4.595 87.3767 4.56167 87.33 4.54167C87.2033 4.495 87.0833 4.44167 86.97 4.38167C86.8633 4.315 86.7467 4.25833 86.62 4.21167C86.56 4.19167 86.5 4.16167 86.44 4.12167C86.3867 4.08167 86.33 4.06167 86.27 4.06167C86.2367 4.055 86.1967 4.06167 86.15 4.08167C86.1033 4.10833 86.0567 4.12167 86.01 4.12167C85.9567 4.12833 85.8933 4.12833 85.82 4.12167C85.74 4.12167 85.66 4.125 85.58 4.13167C85.4933 4.13833 85.4067 4.15167 85.32 4.17167C85.2333 4.19167 85.16 4.225 85.1 4.27167C84.98 4.37167 84.8967 4.48167 84.85 4.60167C84.7967 4.72833 84.73 4.86833 84.65 5.02167C84.63 5.055 84.5967 5.095 84.55 5.14167C84.5033 5.18833 84.48 5.245 84.48 5.31167C84.48 5.345 84.4967 5.375 84.53 5.40167C84.5633 5.42833 84.59 5.46833 84.61 5.52167C84.6367 5.58167 84.6533 5.64167 84.66 5.70167C84.6667 5.755 84.68 5.805 84.7 5.85167C84.7267 5.87833 84.7533 5.905 84.78 5.93167C84.8067 5.95167 84.83 5.97167 84.85 5.99167C84.8767 6.01833 84.8967 6.05167 84.91 6.09167C84.9233 6.125 84.9467 6.15167 84.98 6.17167C85.02 6.19833 85.0967 6.245 85.21 6.31167C85.33 6.37833 85.44 6.42167 85.54 6.44167C85.7133 6.48167 85.87 6.53833 86.01 6.61167C86.15 6.69167 86.2867 6.75833 86.42 6.81167C86.52 6.85833 86.6 6.91167 86.66 6.97167C86.72 7.03167 86.7733 7.08833 86.82 7.14167C86.8667 7.20167 86.9133 7.26167 86.96 7.32167C87.0133 7.375 87.0867 7.415 87.18 7.44167C87.22 7.46167 87.26 7.47167 87.3 7.47167C87.3333 7.47167 87.3733 7.47833 87.42 7.49167C87.4667 7.51167 87.5133 7.54167 87.56 7.58167C87.6067 7.62167 87.6567 7.665 87.71 7.71167C87.7433 7.75167 87.7767 7.79167 87.81 7.83167C87.8433 7.87167 87.87 7.90833 87.89 7.94167C87.9167 8.00167 87.9333 8.075 87.94 8.16167C87.9533 8.24833 87.96 8.31833 87.96 8.37167C87.9667 8.59167 87.96 8.765 87.94 8.89167C87.92 9.01833 87.89 9.135 87.85 9.24167C87.8033 9.355 87.7467 9.465 87.68 9.57167C87.6067 9.685 87.53 9.82833 87.45 10.0017C87.33 10.055 87.2067 10.115 87.08 10.1817C86.9533 10.2483 86.8433 10.3183 86.75 10.3917C86.7033 10.4317 86.64 10.4783 86.56 10.5317C86.48 10.585 86.4067 10.6217 86.34 10.6417C86.2133 10.6883 86.06 10.715 85.88 10.7217C85.6933 10.7283 85.5233 10.7617 85.37 10.8217C85.2767 10.8483 85.17 10.8517 85.05 10.8317C84.93 10.8117 84.82 10.8083 84.72 10.8217C84.6 10.835 84.4967 10.855 84.41 10.8817C84.33 10.9017 84.2367 10.9017 84.13 10.8817C84.0033 10.8683 83.86 10.8217 83.7 10.7417C83.5467 10.6617 83.41 10.585 83.29 10.5117C83.25 10.4983 83.2133 10.475 83.18 10.4417C83.1533 10.4083 83.1167 10.3783 83.07 10.3517C83.01 10.3183 82.9467 10.295 82.88 10.2817C82.82 10.2617 82.7633 10.2317 82.71 10.1917C82.65 10.145 82.6 10.1017 82.56 10.0617C82.5133 10.0217 82.4667 9.97833 82.42 9.93167C82.3067 9.85833 82.1867 9.78167 82.06 9.70167C81.9267 9.62833 81.8333 9.54833 81.78 9.46167C81.74 9.415 81.7167 9.355 81.71 9.28167C81.71 9.20167 81.69 9.125 81.65 9.05167C81.6367 8.99167 81.6067 8.93833 81.56 8.89167C81.5133 8.845 81.4867 8.79833 81.48 8.75167C81.4467 8.625 81.46 8.485 81.52 8.33167C81.5733 8.17167 81.6233 8.03833 81.67 7.93167C81.8433 7.905 81.9867 7.92167 82.1 7.98167C82.2133 8.04167 82.31 8.12167 82.39 8.22167C82.47 8.32167 82.5433 8.43167 82.61 8.55167C82.6767 8.67833 82.74 8.785 82.8 8.87167C82.8733 8.99167 82.9867 9.085 83.14 9.15167C83.3 9.21167 83.45 9.275 83.59 9.34167C83.65 9.36833 83.7033 9.39167 83.75 9.41167C83.8033 9.43833 83.8533 9.46167 83.9 9.48167C84.0133 9.52167 84.1133 9.56833 84.2 9.62167C84.2867 9.66833 84.38 9.69833 84.48 9.71167C84.5733 9.71167 84.6633 9.705 84.75 9.69167C84.8367 9.67833 84.9333 9.66167 85.04 9.64167C85.1533 9.60833 85.2633 9.59167 85.37 9.59167C85.4833 9.59833 85.59 9.57833 85.69 9.53167C85.8033 9.485 85.87 9.43167 85.89 9.37167C85.91 9.305 85.95 9.21833 86.01 9.11167C85.9767 8.93833 85.9367 8.815 85.89 8.74167C85.8433 8.66833 85.7633 8.58167 85.65 8.48167C85.6033 8.44167 85.55 8.41167 85.49 8.39167C85.43 8.365 85.3767 8.33833 85.33 8.31167C85.1367 8.19833 84.9267 8.08167 84.7 7.96167C84.4733 7.84167 84.2233 7.75833 83.95 7.71167C83.7767 7.65833 83.5967 7.585 83.41 7.49167C83.2233 7.39167 83.09 7.26167 83.01 7.10167C82.9833 7.06167 82.9667 7.025 82.96 6.99167C82.9533 6.95167 82.94 6.90833 82.92 6.86167C82.8467 6.68167 82.7467 6.50833 82.62 6.34167C82.4867 6.18167 82.3967 5.995 82.35 5.78167C82.33 5.72167 82.3267 5.65833 82.34 5.59167C82.3467 5.51833 82.3567 5.45167 82.37 5.39167C82.3833 5.325 82.3933 5.255 82.4 5.18167C82.4133 5.10833 82.41 5.03167 82.39 4.95167C82.43 4.91833 82.4533 4.88167 82.46 4.84167C82.4667 4.80833 82.48 4.77167 82.5 4.73167C82.54 4.67833 82.5667 4.62167 82.58 4.56167C82.5933 4.50167 82.63 4.445 82.69 4.39167C82.7567 4.33833 82.81 4.28167 82.85 4.22167C82.89 4.16167 82.9333 4.115 82.98 4.08167C83.0067 4.06167 83.0367 4.04833 83.07 4.04167C83.11 4.035 83.1433 4.025 83.17 4.01167C83.2167 3.985 83.2567 3.94833 83.29 3.90167C83.33 3.86167 83.3733 3.825 83.42 3.79167C83.6 3.65167 83.8033 3.535 84.03 3.44167C84.2567 3.34833 84.49 3.27167 84.73 3.21167C84.7633 3.17167 84.8233 3.135 84.91 3.10167C84.99 3.06833 85.0767 3.045 85.17 3.03167C85.27 3.01833 85.3633 3.00833 85.45 3.00167C85.5433 2.98833 85.6233 2.97833 85.69 2.97167C85.97 3.005 86.1933 3.04833 86.36 3.10167C86.5333 3.16167 86.6933 3.22167 86.84 3.28167C86.9933 3.335 87.1567 3.39167 87.33 3.45167C87.5033 3.505 87.7267 3.54833 88 3.58167C88.1067 3.66833 88.2233 3.76833 88.35 3.88167C88.47 3.995 88.5767 4.11833 88.67 4.25167C88.7567 4.39167 88.82 4.535 88.86 4.68167C88.9067 4.835 88.8967 4.98833 88.83 5.14167C88.7833 5.235 88.7467 5.33833 88.72 5.45167C88.6933 5.565 88.6533 5.66833 88.6 5.76167C88.5533 5.835 88.5033 5.92167 88.45 6.02167C88.4033 6.12167 88.3467 6.20167 88.28 6.26167C88.1533 6.38833 87.99 6.48167 87.79 6.54167C87.59 6.595 87.3933 6.61167 87.2 6.59167C87.1467 6.49833 87.0633 6.42167 86.95 6.36167C86.8367 6.295 86.7233 6.22833 86.61 6.16167C86.4967 6.095 86.39 6.01833 86.29 5.93167C86.1967 5.845 86.1367 5.73833 86.11 5.61167C86.0833 5.45167 86.09 5.285 86.13 5.11167C86.17 4.93833 86.2667 4.81833 86.42 4.75167Z" fill="black"/>
</svg>
