<svg width="88.184" height="20.344" viewBox="0 0 88.184 20.344" xmlns="http://www.w3.org/2000/svg"><path transform="translate(0 13.932) scale(.013672 -.013672)" d="m708 758q-1-5-1-10.5t-1-10.5q-8-7-13.5-9t-9.5-10q-3-5-3-11t-3-11q-3-7-14.5-14.5t-16.5-9.5q-6-3-12.5-5t-12.5-5q-9-4-14.5-6t-11.5-2.5-13-1-18-2.5q-3 0-4-1.5t-4-3.5-9-3.5-18-2.5q-11-1-16.5-1.5t-17.5-2.5q-7-2-13-6t-13-7q-14-8-20.5-15.5t-10.5-13.5q-6-10-5.5-22.5t-4.5-26.5q-4-10-13-20t-13-21q-1-5 0-11t0-13q-2-13-9-26.5t-12-28.5q-2-8-1.5-16t-1.5-16q-3-19-9-40.5t-11-42.5q-2-12-1.5-24.5t-2.5-21.5q-2-9-7.5-17t-10-16.5-6-18 4.5-20.5q-3-37-10-75t-18-73q-3-11-9.5-29t-12.5-23-15.5-6.5-19 0.5-17.5 7-11 12q-6-4-10.5-11t-12.5-11q-10-5-20.5-4t-21.5-4q-10-4-18-9.5t-16-7.5q-5-2-9.5-1.5t-8.5-1.5q-6-3-9-10t-9-11q-8 2-18 2.5t-15 5.5q-2 26 8 45.5t15 38.5q4 11 5.5 21t3.5 23q4 14 10 29.5t9 31.5q3 11 3.5 22.5t4.5 22.5q2 8 10 17.5t12 20.5 7 25 8 27q5 17 14.5 29t8.5 27q0 7-3 11t-3 9q-1 8 2 22t6 25q5 21 10 38t10 34q2 8 3.5 15.5t3.5 13.5q2 8 6.5 13.5t6.5 11.5q2 7 3.5 17t4.5 19q3 7 6.5 13t4.5 12q2 13-3.5 24t-5.5 23q-11 8-26 9.5t-29 0.5-25-1.5-25-1.5q-23-1-40-4t-32.5-6-31.5-4.5-36-0.5q2 11 2.5 23.5t3.5 20.5q6 5 12 5.5t13 1.5q-4 6-3.5 11t2 9.5 4 9 3.5 8.5q2 10 1.5 20t8.5 16q14 1 25 0t21-2.5 20.5-2.5 24.5 0q32 2 52.5 5t50.5 4q21 0 40.5-0.5t36.5-2.5q18-3 26.5-3t15.5 0.5 15 1.5 24 1q17 0 32.5 2.5t32.5 1.5q19 0 26.5-2.5t12.5-4.5 11-3.5 22 0.5q11 2 14 4.5t14 4.5q10 1 20 0.5t21 0.5q30 3 60.5 10.5t62.5 3.5z"/><path transform="translate(7.3008 13.932) scale(.013672 -.013672)" d="m424 522q8-2 16-2t16-2q3 0 6-2t6-3 6 0 6 0q23-6 37-18.5t28-30.5q6-10 15-23.5t15-30 7-34.5-7-36q-2-5-6-12.5t-8-15.5q-6-11-15-23t-19-17q-8-5-13.5-9t-13.5-8q-14-5-27.5-14.5t-27.5-15.5q-5-2-10.5-2.5t-10.5-2.5q-7-4-11-11t-15-10q25-6 46-27.5t32-44.5q5-14 14-25t8-25q7-6 11.5-15.5t7.5-20.5 5.5-22.5 6.5-20.5q6-13 13-21.5t15-16 16-16 14-21.5q4 1 6.5 2.5t7.5 0.5q15-11 33.5-17t45.5-10q23-4 43.5-2.5t42.5 5.5q7 1 17.5 5.5t21 7.5 18.5 2.5 8-10.5q0-7-9-17t-16-15q-17-12-39-19t-46-11.5-49-6.5-47-3q-14 0-25.5 4.5t-20.5 6.5q-20 3-35.5 7t-29.5 12q-12 7-21 19.5t-25 15.5q-26 23-52 46.5t-41 58.5q-5 9-11 17.5t-9 18.5q-3 7-3.5 15t-2.5 18q-2 11-6 23.5t-8 23.5q-1 3-3 6t-3 6q-2 6-4 14.5t-7 13.5q-5 4-16.5 9t-19.5 7q-11 2-21.5-1t-19.5-4q-13-2-25-0.5t-20-1.5q-14-5-23-26t-11-44q-4-23-12-44.5t-13-41.5q-4-13-13-21.5t-25-6.5q-8 1-12.5 1.5t-11.5 4.5q-5-2-17.5-9.5t-17.5-10.5q-33-10-37.5 5t3.5 48q5 21 15.5 41t14.5 34q2 9 1.5 16.5t-1.5 14.5-1 12.5 4 10.5q1 11 6 17.5t7 17.5q2 10 5 21t4 21q1 12 1.5 22.5t6.5 24.5q5 13 10.5 26.5t7.5 26.5q2 10 2.5 20.5t4.5 20.5q2 8 8.5 13t8.5 13q1 6-1 11t0 10q6 20 4 31.5t-6.5 19-8 14.5-0.5 19q5 1 9 8.5t11 9.5q4 1 15 1.5t24 1 25 0 19-0.5q8-1 20 0.5t25 2 24.5 0.5 19.5-4zm-152-255q8 0 15.5 4t14.5 2q10-2 20-3t22-3q5-1 10 1t13 1q16 12 28.5 18t23.5 24q5 9 11 17.5t8 14.5q7 23-2 39.5t-17 29.5q-10 15-19 21.5t-30 4.5q-17-1-35 0.5t-34.5 0.5-29.5-6-19-18q-5-15-12-33t-13-36.5-10-37.5-4-37q15 2 30-1.5t29-2.5z"/><path transform="translate(15.586 13.932) scale(.013672 -.013672)" d="m209 456q19 13 33 30t27 34q8-1 14 3t13 6q14 4 28.5-0.5t28.5-3.5q17 2 32.5 9t36.5 7q7 0 13-4.5t12-5.5q8-2 14.5 2t14.5 4q14 0 21.5-9t17.5-18q5-23 1-45t-2-45q2-15 4.5-29t2.5-29q1-13-1.5-27.5t-1.5-28.5q1-5 3-10t1-10q-2-11-9-17t-8-16q-2-15 6.5-28t10.5-27q1-6-1-13t-2-13q-2-22 0.5-49t3.5-50q0-8 1.5-16t-0.5-13q-1-5-4.5-8t-5.5-7q-1-5 0.5-14t1.5-17q0-7-1-13.5t-1-11.5q1-3 2.5-6.5t0.5-6.5q-2-9-13.5-19.5t-23.5-9.5q-6 1-17.5 9.5t-16.5 13.5q-9 11-11 28t-9 31q-3 5-8.5 9.5t-9.5 10.5q-6 11-8 22.5t-2.5 23-1.5 23-5 23.5q-2 4-6 7t-7 8q-6 10-8 17t-13 11q-35 0-70.5 2t-69.5-2q-8-1-14-3.5t-14-3.5q-4 0-8 1t-7 1q-14-2-27-12.5t-20-20.5q-4-6-4.5-14.5t-3.5-16.5-10-14.5-5-16.5q-11-8-18.5-20t-14.5-24.5-15.5-23.5-20.5-16q-5-2-9.5-5t-9.5-3q-5 1-5.5 3t-6.5 6-14.5 9-16.5 11-14.5 12.5-9.5 12.5q-8 17-3 24.5t13 18.5q11 16 25 36t25 38q6 10 10.5 19t11.5 17q8 11 20.5 18t17.5 18q2 5 2 10.5t2 11.5q8 20 25 36t26 36q2 5 2.5 9.5t2.5 9.5q16 37 39.5 66t40.5 58zm140 3q-12-9-20.5-20.5t-22.5-17.5q-4-9-9.5-17t-14.5-13q-3-16-12-27.5t-17-22.5q-4-4-7-8.5t-7-9.5q-5-5-10-7.5t-9-6.5q-6-8-13-22t-13-23q-5-5-10-10t-3-13q3-8 12-10.5t20.5-3 22.5 0.5 18 1q14 0 28.5-0.5t28 0.5 24 5 16.5 12q10 32 5 64.5t-9 64.5q-2 9-3 20t0 20q1 10 6.5 19.5t1.5 22.5z"/><path transform="translate(23.68 13.932) scale(.013672 -.013672)" d="m13 60q7 16 12 30.5t13 32.5q4 10 6 21t7 22q5 9 12.5 18t11.5 20q6 17 1 38.5t1 43.5q5 21 11.5 41.5t8.5 36.5q2 11 2 22.5t2 23.5q2 13 8 25.5t7 23.5q2 23-10.5 41.5t-25.5 31.5q1 6 6.5 9.5t8.5 2.5q12-2 27-8t29-8q12-2 26.5 0t30.5 0q17-2 41-4t47-2q26-1 50 1t47-1q17-2 31-9t31-5q14-16 32.5-24.5t33.5-21.5q21-17 36-40.5t36-40.5q0-8 4-15t5-16q0-5-2-11.5t-2-12.5q1-9 6-14.5t4-16.5q-1-35-18-69t-34-60q-11-1-15.5-9t-11.5-18q-10-14-23.5-23.5t-24.5-23.5q-22-8-40.5-21t-41.5-24q-8-4-16.5-7.5t-16.5-7.5q-10-3-19-7t-17-6q-6-2-12.5-1t-12.5-1q-13-3-25-10.5t-24-9.5q-14-2-28 2t-27 7q-17-2-34-1.5t-35 1.5-38 0-43-5q-6-1-12.5-4t-12.5-4q-11-2-24.5-2t-25.5 0q-5 0-12 0.5t-13.5 1.5-11.5 3.5-6 6.5q-1 6 3.5 10.5t11 8 13.5 6 11 4.5q12 7 20.5 15.5t20.5 12.5zm266 387q-8-8-11.5-19t-6-23.5-4.5-25.5-6-25q-4-8-8-15.5t-6-15.5q-5-19-6-37t-6-38q-2-11-7.5-21.5t-7.5-21.5 0-21 0-21q-2-8-5.5-15t-5.5-15q-5-27 10-39.5t36-17.5q36-8 66.5 4.5t48.5 28.5q13 15 27 32.5t22 38.5q3 8 6 21.5t7 26.5q3 11 7.5 20.5t7.5 19.5q11 26 8.5 55.5t-10.5 46.5q-3 6-9.5 13t-12.5 14q-7 8-12.5 16t-9.5 12q-14 13-33.5 18.5t-35.5 18.5q-17-1-25-6t-18-9z"/><path transform="translate(32.061 13.932) scale(.013672 -.013672)" d="m522 467q-27-13-54-13t-60 2q-9 0-19.5-1t-19.5-2q-47-5-79-35.5t-47-76.5q-5-17-8-31t13-16q10-2 20 0t20.5 5.5 20.5 6.5 20 3q4 0 7.5-2t7.5-2q17-2 36 2.5t35 0.5q3-1 5.5-3.5t7.5-4.5q13-5 31-6.5t29-6.5q5-2 10-7.5t5-7.5q0-11-13-14t-22-4q-8-1-16 0t-16-1q-14-2-27-5.5t-28-8.5q-17-6-32-14.5t-33-10.5q-13-2-25 0t-26 0q-5-1-9.5-3t-9.5-3q-9-2-13.5-2.5t-7-2.5-5-6-7.5-12q-8-18-10-38.5t-4-43.5q11-11 21-17.5t31-6.5q11 0 17.5 2.5t17.5 3.5q11 0 22-1.5t25-0.5q29 2 49 7.5t49 3.5q6 0 21.5-1t31.5-2.5 28.5-4.5 12.5-8q0-6-7.5-12.5t-17-12-19-9-12.5-4.5q-17-5-33-2.5t-35 0.5q-14-2-25-6t-22-8.5-22.5-9-26.5-5.5q-20-2-34-4.5t-33-6.5q-8-2-15-4.5t-15-4.5q-29-6-62.5-2.5t-72.5-0.5q-25-3-44.5-7.5t-39.5-2.5q-7 1-13.5 1.5t-11.5 5.5q2 8 9 14t14 11q7 6 13.5 12.5t12.5 12.5q6 8 10 19.5t7.5 23.5 8 22.5 11.5 18.5q-8 18 0.5 41t15.5 48q2 6 2 12t2 11q2 10 9 17.5t9 15.5q1 5 0.5 10t0.5 10q2 15 7.5 28.5t7.5 24.5q2 8 0.5 16.5t-0.5 16.5q2 20 8.5 38t7.5 32q1 11-3 24t-8 20q-3 5-9 10.5t-12 10.5-10.5 9.5-4.5 8.5q1 11 9 11.5t15 6.5q36-1 68.5-8t67.5-9q13-2 27 0.5t27 3.5q21 1 47.5-6t52.5-5q35 2 66 2t65 2q6-5 18-4.5t24.5 2 23 0.5 14.5-9q6-14-2-24t-22-13q-4 0-11-1t-15-2-15.5-1-10.5 0z"/><path transform="translate(44.256 13.932) scale(.013672 -.013672)" d="m1203 685q-5-1-9-3t-9-3q-17-21-29.5-46t-26.5-51q-5-11-12.5-25.5t-11.5-29.5q-8-30-14-63t-22-57q-2-4-7-10t-10-11q-4-5-11-10t-8-9q-1-6 2-12t2-12q-1-9-8.5-17t-12.5-18q-4-9-7-17.5t-8-18.5q-9-17-22-36t-23-38q-15-30-28.5-61.5t-32.5-57.5q-7-10-14.5-17t-12.5-18q-2-4-2-8t-2-8q-5-10-15.5-19t-19.5-19q-8-11-17.5-20t-19.5-14q-21 4-40 8.5t-38 9.5q-6 1-9 6t-5 10q-11-9-17.5-5t-16.5 9q-5 2-9.5 3.5t-7.5 3.5q-19 10-26 22-5 38-9 76.5t-10 75.5q-2 9-4.5 18t-0.5 20q2 12 8.5 24.5t6.5 24.5q1 8-4 13.5t-8 13.5q-2 7-4 18.5t-4 22.5q-4 27 0.5 60t9.5 65 6 61-11 49q-9 0-14-4.5t-7.5-11-4.5-14.5-6-15q-5-10-13.5-17.5t-15.5-18.5q-10-14-17-34t-16-37q-6-13-14.5-27.5t-10.5-34.5q-5-2-8-6t-8-6q-14-26-30.5-52t-33.5-52.5-33-54-27-54.5q-4-5-12-10.5t-13-13.5q-3-6-3.5-13.5t-3.5-15.5q-4-11-12-21.5t-13-21.5q-9-20-22.5-38.5t-30.5-31.5q-7-5-18-10t-24-2q-5 1-9.5 4.5t-9.5 7-11 5-14-0.5q-8 7-11 14t-11 14q-5 4-10.5 6.5t-11 5.5-10 7.5-6.5 12.5q-3 13-4 31t-0.5 37.5 0.5 40-1 40.5q-2 21-2 38.5t-2 34.5q0 5-2 11t-2 11q1 11 7 19.5t6 16.5q0 12-5 25-8 16-13 36.5t-3 47.5q2 20 4.5 42t0.5 47q-1 24-3.5 44.5t1.5 46.5q1 11 5 24.5t2 30.5q-1 7-5.5 16.5t-10.5 19.5-10.5 20.5-5.5 19.5q11 13 27 11t33-5q8-1 16 0t16 0q26-2 55-6.5t56-2.5q45 4 86 6.5t83 5.5q0-6-1-13t-4-12q-6-8-21-16t-28-12q-12-4-19-5t-18-7q-12-7-17.5-15t-13.5-17q-5-24-3.5-54.5t-0.5-60.5q-2-16-4-31t-2-29 0-26-11-23q3-39 2-81t3-81q9 3 20 13t16 20q3 8 3.5 17t3.5 17q5 16 14 29.5t18 27 17 27.5 12 31q5 1 8.5 3t7.5 4q5 14 7 25t13 22q4 5 10.5 8.5t12.5 7.5 10.5 8 6.5 11q2 6-0.5 11t-0.5 12q1 8 9.5 19.5t13.5 22.5q12 20 20 32.5t21 29.5q13 16 22 26t22 25q8 9 15.5 19t12.5 12q11 6 25.5 3.5t29.5-0.5q9 1 20 7t24 8q17 3 35 2t34-5.5 27-13.5 13-24q-4-14-0.5-29t0.5-32q-5-24-19.5-46t-18.5-48q-2-17 3.5-35t7.5-38q1-7-0.5-14t0.5-15q3-29 6-60 1-13-2-26.5t-6.5-27-7-26.5-3.5-25q1-17 3-37t6-31q2-5 7.5-10t7.5-10q4-11 1.5-23t2.5-20q12 2 12 10.5t3 15.5q5 14 16 29t22 32q21 32 35 62 6 10 9.5 22t8.5 20q6 9 13.5 14.5t9.5 16.5q4 9 2 17.5t-1 16.5q1 11 7.5 23t14.5 25 15.5 26.5 12.5 28.5q5 18 10 32.5t13 29.5q5 11 12.5 20.5t11.5 18.5q5 11 6.5 23t5.5 23q3 11 8 22.5t6 19.5q0 5-1 9t0 7q1 6 7 11.5t13.5 10.5 16 9 14.5 6q20 5 48 1.5t53-5.5q15-1 36 1t42 4q24 2 48.5 6t44.5 3q5 0 13-2.5t8-7.5q1-5-3.5-8.5t-11-7-14-6-13.5-3.5q-19-5-38.5-8t-37.5-6.5-34-10.5-27-20z"/><path transform="translate(59.664 13.932) scale(.013672 -.013672)" d="m5 51q2 23 15.5 41.5t20.5 38.5q4 13 5.5 27.5t2 29 2.5 29 7 28.5q-5 9-4 20t1 23q5 7 8 16t14 12q10 22 10 45.5t5 48.5q1 5 4 9t5 9q7 21 7 44.5t8 44.5q6 2 15 6.5t18.5 9 18.5 7.5 16 2q5-2 10-5.5t12-8.5q5-3 9.5-7t9.5-7q4-2 10.5-3.5t8.5-3.5q1-1 6.5-7t11-13 10.5-13.5 6-8.5q1-6-1-13.5t-5.5-15-7-15-5.5-13.5q-3-11-6-21.5t-8-21.5q-5-13-11-30t-8-36q-2-14-10.5-21t-11.5-20q-2-9-2-19t0.5-19.5 0-18.5-4.5-17q-3-5-9-7.5t-10-7.5q-6-10-10.5-25t-7.5-31.5-2.5-33 5.5-29.5q-5-16-17.5-28t-29.5-18.5-36.5-7-39.5 6.5q-8 12-19 22.5t-17 25.5z"/><path transform="translate(63.533 13.932) scale(.013672 -.013672)" d="m48 18q-21-7-37 5.5t-20 29.5q-2 8 0 24.5t6 26.5q4 11 17 26t20 34q7 18 11.5 34.5t13.5 26.5q7 7 15 12.5t9 14.5q0 8-4.5 14t-3.5 16q0 9 5.5 23t10.5 25q11 24 17 49 2 7 3.5 16.5t3.5 14.5q3 4 6.5 13t8.5 18 11 16.5 13 10.5q8 3 17.5 4.5t17.5 5.5q9 3 11 7t10 8q6 2 12.5 2t13.5 2q8 3 17 9t21-1q5-3 10-18t10-28q2-7 5.5-17t6.5-20.5 6-19 5-12.5q5-10 7-21t6-20q5-10 10-19t10-20 9-21 10-21q4-8 12-14.5t10-14.5q3-8 0-17.5t-1-17.5q3-11 13-18t18-15q5-6 6-12t9-8q2 19 4.5 33t5.5 27.5 6 28 5 32.5q10 13 18 24.5t7 30.5q-1 6-3.5 12t-1.5 13q1 10 4 18t8 20q3 8 5 16.5t5 18.5q3 8 5.5 13t5.5 9.5 5 10 4 16.5q3 17 3 29t5 24q8 18 25.5 30.5t33.5 20.5q28-1 46-14.5t23-32.5q7-18-1-29.5t-16-25.5q-5-9-7.5-17t-4-15.5-3-15.5-5.5-18q-3-10-9-16.5t-8-13.5q3-14 2.5-23t-3-16.5-5-15-4.5-16.5q-2-7-2-14t-2-13q-3-12-8-22t-10-19q-7-15-15.5-28t-10.5-35q-1-14-1.5-24.5t-1-19.5-3-19-6.5-24q-2-8-5.5-15.5t-5.5-15.5q-6-26-17-39.5t-33-27.5q-12-3-24-6t-23.5-3-21.5 3.5-17 14.5q-5 8-10.5 23.5t-12.5 30.5q-3 7-6.5 13.5t-5.5 13.5q-5 11-6.5 19t-6.5 22q-7 22-22 33t-26 24q-1 10-3 18t-9 13q-2 2-5 2.5t-5 3.5q-3 4-4 9.5t-4 8.5q-2 2-6 9t-7.5 14-7.5 12.5-6 4.5q-5 0-9.5-8t-9-18-8.5-19.5-7-13.5q-5-7-7.5-20.5t-6.5-21.5q-7-12-12.5-24t2.5-26q0-7-3.5-11.5t-1.5-14.5q-6-11-11.5-25t-11.5-31q-3-10-5-20.5t-5-20-8.5-16.5-14.5-8q-12-2-20 3t-15 11.5-14 14-15 11.5z"/><path transform="translate(72.379 13.932) scale(.013672 -.013672)" d="m13 60q7 16 12 30.5t13 32.5q4 10 6 21t7 22q5 9 12.5 18t11.5 20q6 17 1 38.5t1 43.5q5 21 11.5 41.5t8.5 36.5q2 11 2 22.5t2 23.5q2 13 8 25.5t7 23.5q2 23-10.5 41.5t-25.5 31.5q1 6 6.5 9.5t8.5 2.5q12-2 27-8t29-8q12-2 26.5 0t30.5 0q17-2 41-4t47-2q26-1 50 1t47-1q17-2 31-9t31-5q14-16 32.5-24.5t33.5-21.5q21-17 36-40.5t36-40.5q0-8 4-15t5-16q0-5-2-11.5t-2-12.5q1-9 6-14.5t4-16.5q-1-35-18-69t-34-60q-11-1-15.5-9t-11.5-18q-10-14-23.5-23.5t-24.5-23.5q-22-8-40.5-21t-41.5-24q-8-4-16.5-7.5t-16.5-7.5q-10-3-19-7t-17-6q-6-2-12.5-1t-12.5-1q-13-3-25-10.5t-24-9.5q-14-2-28 2t-27 7q-17-2-34-1.5t-35 1.5-38 0-43-5q-6-1-12.5-4t-12.5-4q-11-2-24.5-2t-25.5 0q-5 0-12 0.5t-13.5 1.5-11.5 3.5-6 6.5q-1 6 3.5 10.5t11 8 13.5 6 11 4.5q12 7 20.5 15.5t20.5 12.5zm266 387q-8-8-11.5-19t-6-23.5-4.5-25.5-6-25q-4-8-8-15.5t-6-15.5q-5-19-6-37t-6-38q-2-11-7.5-21.5t-7.5-21.5 0-21 0-21q-2-8-5.5-15t-5.5-15q-5-27 10-39.5t36-17.5q36-8 66.5 4.5t48.5 28.5q13 15 27 32.5t22 38.5q3 8 6 21.5t7 26.5q3 11 7.5 20.5t7.5 19.5q11 26 8.5 55.5t-10.5 46.5q-3 6-9.5 13t-12.5 14q-7 8-12.5 16t-9.5 12q-14 13-33.5 18.5t-35.5 18.5q-17-1-25-6t-18-9z"/><path transform="translate(80.76 13.932) scale(.013672 -.013672)" d="m358 418q9-4 12-10.5t4.5-13.5 3.5-14 10-11q2-2 7-5t11-6.5 11.5-6 8.5-1.5q6 1 11 9t8.5 18.5 4.5 21.5-1 18q-2 3-11 8.5t-14 7.5q-14 5-26 12t-26 12q-6 2-12.5 6.5t-12.5 4.5q-4 1-9-1.5t-10-2.5q-6-1-14.5-0.5t-17.5-0.5-18.5-3-16.5-7q-13-11-18.5-24.5t-14.5-30.5q-2-4-7-9t-5-12q0-4 3.5-7t5.5-9q3-6 4-12.5t3-11.5q3-3 6-5.5t5-4.5q3-3 4.5-7t4.5-6q5-3 17.5-10.5t23.5-9.5q19-4 34.5-12.5t30.5-14.5q11-5 17.5-11.5t11.5-13 10.5-12.5 15.5-9q5-2 9-2t9-2 10-6.5 11-9.5q4-4 7.5-8.5t5.5-8.5q3-6 4-15.5t1-15.5q1-24-1-38t-7-26-12.5-24-16.5-31q-13-6-27-13.5t-24-15.5q-5-4-14-10t-16-8q-14-5-34-6t-37-7q-10-3-23.5-1t-24.5 1q-13-2-22-4.5t-21-0.5q-14 2-31 10.5t-30 16.5q-5 2-8 5.5t-8 6.5q-7 4-14 5.5t-13 6.5-11 9.5-10 9.5q-12 8-26.5 16.5t-20.5 17.5q-4 5-4.5 13.5t-4.5 16.5q-2 7-7 12t-6 10q-3 14 3 31t11 29q19 3 31.5-3.5t21.5-17.5 16-24.5 14-23.5q8-13 25-20t33-14q6-3 11.5-5.5t10.5-4.5q13-5 22.5-10.5t20.5-6.5q10 0 19.5 1.5t21.5 3.5q12 4 24 3.5t23 4.5q13 5 15 12t9 19q-4 19-9 27t-18 19q-5 4-11.5 6.5t-11.5 5.5q-21 13-46 26t-55 18q-19 6-39.5 16.5t-29.5 28.5q-3 4-3.5 8t-2.5 9q-8 20-22.5 38t-19.5 41q-2 7-1 14.5t2.5 14.5 2.5 15-1 17q4 4 5 8t3 8q4 6 5.5 12.5t8.5 12.5 11.5 12.5 9.5 10.5q3 2 7 2.5t7 2.5q5 3 9 7.5t9 8.5q20 15 45 25.5t51 16.5q4 5 13 8.5t19.5 5 20.5 2.5 17 2q31-4 49.5-10t35-12.5 35.5-12.5 49-10q12-9 25.5-21.5t23.5-27.5 14.5-31.5-2.5-33.5q-5-10-8-22.5t-9-22.5q-5-8-10.5-19t-12.5-18q-14-14-36-20t-43-4q-6 10-18.5 17t-25 14.5-23 17-13.5 23.5q-3 17 1.5 36t21.5 27z"/></svg>