<svg width="71.988" height="20.272" viewBox="0 0 71.988 20.272" xmlns="http://www.w3.org/2000/svg"><path transform="translate(0 16.24) scale(.014 -.014)" d="M16 780H617V732H16ZM361 676H617V628H409V0H361ZM223 628H16V676H271V0H223Z"/><path transform="translate(8.862 16.24) scale(.014 -.014)" d="m422 521q-61 0-106-12t-80-41-65-82v171h48v-55q30 36 73.5 51.5t121.5 16.5zm-354 36h48v-557h-48zm127-192q31 59 75.5 84.5t114.5 25.5q11 0 22-0.5t23-1.5l9-52q-17 4-33.5 5.5t-31.5 1.5q-98 0-131-74v-354h-48z"/><path transform="translate(15.162 16.24) scale(.014 -.014)" d="m601 89q-7-1-13.5-1.5t-12.5-0.5q-44 0-66.5 23t-22.5 63v212q0 72-48.5 104.5t-143.5 32.5q-70 0-123.5-20.5t-97.5-64.5l-23 41q41 44 101.5 68t142.5 24q122 0 181-46.5t59-138.5v-212q0-22 14.5-31.5t36.5-9.5q7 0 13.5 0.5t13.5 1.5zm-23-95q-25-6-51-6-44 0-80 16.5t-45 46.5q-27-34-78.5-48.5t-110.5-14.5q-85 0-129.5 41t-45.5 112v3q0 79 46.5 126t147.5 69q54 11 86.5 25.5t32.5 31.5q0 24-15.5 31.5t-56.5 7.5q-22 0-53-10.5t-60-28.5-47-42l-25 44q41 41 93 63t92 22q74 0 97-21.5t23-65.5q0-25-40-56t-117-48q-79-16-117.5-51t-38.5-97v-2q1-51 34-79t93-28q39 0 73.5 4.5t67 23 64.5 59.5q11-55 42.5-72.5t67.5-17.5q16 0 31.5 2t29.5 4zm-174 184q-8-33-31.5-57.5t-53-37.5-57.5-13q-53 0-78 25t-25 65q0 50 26.5 75t77.5 37q24 6 61 18.5t80 54.5zm-48 87q-24-21-80-36-37-10-53-23.5t-16-45.5q0-42 55-42 28 0 57.5 17.5t36.5 46.5z"/><path transform="translate(23.744 16.24) scale(.014 -.014)" d="M201 780H249V624H201ZM68 780H116V624H68ZM199 557H247V0H199ZM71 557H119V0H71Z"/><path transform="translate(28.182 16.24) scale(.014 -.014)" d="m558 366q0 43-19 78.5t-53.5 56.5-82.5 21q-38 0-76-7t-75-32-73-80v154h48v-51q21 30 64.5 47t111.5 17q62 0 107.5-27.5t70.5-74 25-102.5v-366h-48zm-490 191h48v-557h-48zm362-221q0 42-22 64.5t-57 22.5q-37 0-67-20t-41-57v-346h-48v352q17 59 59.5 89t96.5 30q56 0 91.5-34.5t35.5-100.5v-336h-48z"/><path transform="translate(42.434 16.24) scale(.014 -.014)" d="m408-20q-108 0-189 50t-126 142.5-45 219.5q0 124 45 216t126 142.5 189 50.5 188.5-51 124.5-143 44-215q0-127-44-219.5t-124.5-142.5-188.5-50zm0 47q95 0 164 45t107 127 38 193q0 108-38 189t-107 126.5-164 45.5-165-45-108.5-126-38.5-190q0-111 38.5-193t108.5-127 165-45zm0 61q-60 0-110.5 35t-80.5 102.5-30 166.5q0 100 32 166.5t82.5 100 106.5 33.5q60 0 109.5-33.5t79-100 29.5-166.5q0-99-31-166.5t-80.5-102.5-106.5-35zm0 48q47 0 85.5 30t61.5 87.5 23 138.5q0 122-48 187t-122 65q-46 0-85.5-29t-63.5-85-24-138q0-81 22.5-138.5t62-87.5 88.5-30z"/><path transform="translate(53.844 16.24) scale(.014 -.014)" d="m558 366q0 43-19 78.5t-53.5 56.5-82.5 21q-38 0-76-7t-75-32-73-80v154h48v-51q21 30 64.5 47t111.5 17q62 0 107.5-27.5t70.5-74 25-102.5v-366h-48zm-490 191h48v-557h-48zm362-221q0 42-22 64.5t-57 22.5q-37 0-67-20t-41-57v-346h-48v352q17 59 59.5 89t96.5 30q56 0 91.5-34.5t35.5-100.5v-336h-48z"/><path transform="translate(63.266 16.24) scale(.014 -.014)" d="m581 102q-49-58-107-86t-152-28q-85 0-149 35.5t-99.5 101-35.5 154.5q0 80 32.5 146t95 105.5 152.5 39.5q83 0 143-35.5t93-100 33-153.5q0-5-0.5-10.5t-0.5-11.5l-386-48q8-38 45.5-62t89.5-24q49 0 92 20t70 59l31-38q-42-47-88-68t-105-21q-70 0-121.5 41.5t-70.5 134.5l395 49q-6 102-64 161t-156 59q-75 0-127-33t-78.5-88-26.5-122q0-74 29-129t82-85 125-30q57 0 97.5 12t72 35 59.5 56zm-440 189q11 98 58 144.5t118 46.5q65 0 106-39t52-109zm279 79q-3 23-31 43.5t-72 20.5q-34 0-61-13.5t-43-35-19-44.5z"/></svg>