<svg width="117" height="13" viewBox="0 0 117 13" fill="none" xmlns="http://www.w3.org/2000/svg">
<path d="M0.92 1.33H7.67C7.79 1.33 7.89 1.37 7.97 1.45C8.05 1.53 8.09 1.63 8.09 1.75C8.09 1.87 8.05 1.97 7.97 2.05C7.89 2.13 7.79 2.17 7.67 2.17H4.74V12.08C4.74 12.1933 4.69667 12.2933 4.61 12.38C4.53 12.46 4.43 12.5 4.31 12.5C4.18333 12.5 4.07667 12.46 3.99 12.38C3.90333 12.2933 3.86 12.1933 3.86 12.08V2.17H0.92C0.8 2.17 0.7 2.13 0.62 2.05C0.54 1.97 0.5 1.87 0.5 1.75C0.5 1.63 0.54 1.53 0.62 1.45C0.7 1.37 0.8 1.33 0.92 1.33ZM11.43 12.68C10.91 12.68 10.37 12.54 9.81 12.26C9.25667 11.9733 8.84667 11.6167 8.58 11.19C8.54 11.1233 8.52 11.0533 8.52 10.98C8.52 10.8533 8.56 10.75 8.64 10.67C8.72 10.5967 8.82 10.56 8.94 10.56C9.1 10.56 9.21667 10.6233 9.29 10.75C9.47 11.0767 9.76667 11.3467 10.18 11.56C10.5933 11.7667 11.01 11.87 11.43 11.87C12.01 11.87 12.47 11.78 12.81 11.6C13.15 11.42 13.32 11.1667 13.32 10.84C13.32 10.5267 13.1767 10.26 12.89 10.04C12.5967 9.81333 12.0933 9.57 11.38 9.31C10.66 9.05 10.0733 8.76333 9.62 8.45C9.16667 8.13667 8.94 7.71 8.94 7.17C8.94 6.81667 9.05333 6.49667 9.28 6.21C9.51333 5.92333 9.82333 5.7 10.21 5.54C10.5967 5.37333 11.0233 5.29 11.49 5.29C12.1033 5.29 12.65 5.43 13.13 5.71C13.61 5.98333 13.9433 6.34333 14.13 6.79C14.15 6.83 14.16 6.89 14.16 6.97C14.16 7.10333 14.1233 7.20667 14.05 7.28C13.9767 7.35333 13.88 7.39 13.76 7.39C13.68 7.39 13.6067 7.37 13.54 7.33C13.4667 7.29 13.4067 7.23 13.36 7.15C13.22 6.84333 12.98 6.59333 12.64 6.4C12.2933 6.2 11.9 6.1 11.46 6.1C10.9733 6.1 10.5733 6.20333 10.26 6.41C9.94 6.61 9.78 6.86333 9.78 7.17C9.78 7.47667 9.95333 7.74 10.3 7.96C10.6533 8.18 11.13 8.38333 11.73 8.57C12.5967 8.85 13.2167 9.15667 13.59 9.49C13.97 9.83 14.16 10.28 14.16 10.84C14.16 11.4133 13.9167 11.8633 13.43 12.19C12.95 12.5167 12.2833 12.68 11.43 12.68ZM22.46 11.96C22.6933 12.08 22.81 12.22 22.81 12.38C22.81 12.5 22.7633 12.59 22.67 12.65C22.5767 12.71 22.47 12.74 22.35 12.74C22.0633 12.74 21.8133 12.62 21.6 12.38C21.3933 12.1333 21.2667 11.8 21.22 11.38C20.96 11.7667 20.6333 12.0767 20.24 12.31C19.8533 12.55 19.4133 12.67 18.92 12.67C18.4533 12.67 18.0333 12.5633 17.66 12.35C17.2867 12.1433 16.9933 11.8533 16.78 11.48C16.5667 11.1067 16.46 10.6833 16.46 10.21C16.46 8.89 16.4633 7.83333 16.47 7.04C16.47 6.86667 16.43 6.68333 16.35 6.49C16.2633 6.29667 16.17 6.17333 16.07 6.12C15.9567 6.04667 15.87 5.97667 15.81 5.91C15.75 5.85 15.72 5.78 15.72 5.7C15.72 5.58 15.7667 5.48667 15.86 5.42C15.9533 5.35333 16.06 5.32 16.18 5.32C16.5067 5.32 16.7767 5.47333 16.99 5.78C17.2033 6.08 17.31 6.48667 17.31 7L17.3 10.12C17.3 10.6133 17.4567 11.0233 17.77 11.35C18.09 11.67 18.4833 11.83 18.95 11.83C19.3033 11.83 19.6533 11.7233 20 11.51C20.3467 11.3033 20.63 11.03 20.85 10.69C21.0767 10.35 21.2033 9.99667 21.23 9.63L21.3 5.82C21.3133 5.71333 21.3567 5.62 21.43 5.54C21.51 5.46667 21.6067 5.43 21.72 5.43C21.8333 5.43 21.9333 5.47 22.02 5.55C22.1 5.63 22.14 5.72667 22.14 5.84L22.06 11.02C22.0467 11.1867 22.0867 11.37 22.18 11.57C22.2667 11.77 22.36 11.9 22.46 11.96ZM26.43 8.19L30.61 11.89C30.6967 11.95 30.74 12.05 30.74 12.19C30.74 12.3167 30.7 12.4167 30.62 12.49C30.54 12.57 30.44 12.61 30.32 12.61C30.2067 12.61 30.1067 12.57 30.02 12.49L25.77 8.71L25.74 12.17C25.74 12.29 25.6967 12.39 25.61 12.47C25.5167 12.55 25.4167 12.59 25.31 12.59C25.1833 12.59 25.0833 12.55 25.01 12.47C24.9367 12.39 24.9 12.29 24.9 12.17C24.9 11.15 24.91 9.49333 24.93 7.2C24.95 4.9 24.9733 3.07333 25 1.72C25 1.54667 24.9567 1.36333 24.87 1.17C24.79 0.976667 24.6967 0.853333 24.59 0.8C24.4767 0.726667 24.39 0.656667 24.33 0.59C24.27 0.53 24.24 0.46 24.24 0.38C24.24 0.26 24.2867 0.166667 24.38 0.0999999C24.4733 0.0333332 24.58 0 24.7 0C25.0267 0 25.3 0.15 25.52 0.45C25.7333 0.756667 25.84 1.16667 25.84 1.68C25.84 2.16667 25.83 3.15667 25.81 4.65C25.8033 4.96333 25.7933 5.37 25.78 5.87C25.7733 6.36333 25.77 6.94667 25.77 7.62L30 5.35C30.0467 5.31 30.1167 5.29 30.21 5.29C30.3167 5.29 30.4133 5.33 30.5 5.41C30.5867 5.49 30.63 5.59 30.63 5.71C30.63 5.78333 30.61 5.85333 30.57 5.92C30.53 5.98667 30.48 6.03333 30.42 6.06L26.43 8.19ZM33.47 3.22C33.2833 3.22 33.13 3.16 33.01 3.04C32.8833 2.92 32.82 2.77 32.82 2.59C32.82 2.42333 32.8833 2.28 33.01 2.16C33.1367 2.03333 33.29 1.97 33.47 1.97C33.6367 1.97 33.7767 2.03 33.89 2.15C34.01 2.26333 34.07 2.41 34.07 2.59C34.07 2.77 34.01 2.92 33.89 3.04C33.7767 3.16 33.6367 3.22 33.47 3.22ZM33.47 12.7C33.3567 12.7 33.2567 12.66 33.17 12.58C33.09 12.5 33.05 12.4033 33.05 12.29L33.09 9.41L33.13 7.04C33.1433 6.86667 33.1067 6.68333 33.02 6.49C32.9333 6.29667 32.84 6.17333 32.74 6.12C32.6267 6.04667 32.54 5.98 32.48 5.92C32.42 5.86667 32.39 5.79667 32.39 5.71C32.39 5.59 32.4367 5.49333 32.53 5.42C32.6233 5.35333 32.73 5.32 32.85 5.32C33.1767 5.32 33.4467 5.46667 33.66 5.76C33.8667 6.05333 33.97 6.44667 33.97 6.94C33.97 7.44667 33.9633 8.13333 33.95 9C33.9367 9.86667 33.9267 10.53 33.92 10.99L33.89 12.29C33.89 12.41 33.8467 12.51 33.76 12.59C33.68 12.6633 33.5833 12.7 33.47 12.7ZM47.4 11.98C47.5133 12.0467 47.6 12.11 47.66 12.17C47.7267 12.23 47.76 12.3033 47.76 12.39C47.76 12.51 47.7133 12.6033 47.62 12.67C47.5267 12.7367 47.4167 12.77 47.29 12.77C46.95 12.77 46.6733 12.6167 46.46 12.31C46.2467 11.9967 46.1433 11.58 46.15 11.06L46.18 8.23C46.18 7.57 46.0333 7.06333 45.74 6.71C45.4467 6.35 45.01 6.17 44.43 6.17C43.8433 6.17 43.3733 6.35667 43.02 6.73C42.66 7.10333 42.4533 7.58 42.4 8.16C42.4 8.65333 42.3967 9.40333 42.39 10.41C42.3767 11.41 42.3667 12 42.36 12.18C42.3467 12.2933 42.3 12.3833 42.22 12.45C42.1333 12.5233 42.0333 12.56 41.92 12.56C41.8 12.56 41.7033 12.5233 41.63 12.45C41.5567 12.37 41.52 12.28 41.52 12.18C41.5267 11.8933 41.5367 11.25 41.55 10.25C41.5567 9.25 41.56 8.52 41.56 8.06C41.56 7.49333 41.41 7.03667 41.11 6.69C40.8033 6.33667 40.4033 6.16 39.91 6.16C39.3367 6.16 38.86 6.33667 38.48 6.69C38.1 7.04333 37.87 7.49333 37.79 8.04L37.71 12.18C37.71 12.3 37.6667 12.3967 37.58 12.47C37.5 12.55 37.4 12.59 37.28 12.59C37.1667 12.59 37.07 12.55 36.99 12.47C36.91 12.39 36.87 12.2933 36.87 12.18L36.97 7.04C36.97 6.86667 36.9267 6.68333 36.84 6.49C36.76 6.29667 36.6667 6.17333 36.56 6.12C36.4467 6.04667 36.36 5.97667 36.3 5.91C36.24 5.85 36.21 5.78 36.21 5.7C36.21 5.58 36.2567 5.48667 36.35 5.42C36.4433 5.35333 36.55 5.32 36.67 5.32C36.9433 5.32 37.1767 5.42667 37.37 5.64C37.57 5.84667 37.7033 6.13667 37.77 6.51C38.03 6.13667 38.3533 5.85333 38.74 5.66C39.1267 5.46 39.53 5.36 39.95 5.36C40.4433 5.36 40.8867 5.49667 41.28 5.77C41.6733 6.03667 41.9633 6.40333 42.15 6.87C42.39 6.39 42.7167 6.01667 43.13 5.75C43.5367 5.49 43.9833 5.36 44.47 5.36C45.2833 5.36 45.9133 5.61 46.36 6.11C46.8 6.61 47.02 7.30667 47.02 8.2L46.99 11.05C46.99 11.2233 47.0333 11.41 47.12 11.61C47.2 11.8033 47.2933 11.9267 47.4 11.98ZM50.46 3.22C50.2733 3.22 50.12 3.16 50 3.04C49.88 2.92 49.82 2.77 49.82 2.59C49.82 2.42333 49.8833 2.28 50.01 2.16C50.1367 2.03333 50.2867 1.97 50.46 1.97C50.6333 1.97 50.7767 2.03 50.89 2.15C51.01 2.26333 51.07 2.41 51.07 2.59C51.07 2.77 51.01 2.92 50.89 3.04C50.7767 3.16 50.6333 3.22 50.46 3.22ZM50.46 12.7C50.3533 12.7 50.2567 12.66 50.17 12.58C50.0833 12.5 50.04 12.4033 50.04 12.29L50.09 9.41L50.13 7.04C50.1367 6.86667 50.1 6.68333 50.02 6.49C49.9333 6.29667 49.84 6.17333 49.74 6.12C49.6267 6.04667 49.54 5.98 49.48 5.92C49.42 5.86667 49.39 5.79667 49.39 5.71C49.39 5.59 49.4367 5.49333 49.53 5.42C49.6233 5.35333 49.73 5.32 49.85 5.32C50.1767 5.32 50.4433 5.46667 50.65 5.76C50.8633 6.05333 50.97 6.44667 50.97 6.94C50.97 7.44667 50.9633 8.13333 50.95 9C50.9367 9.86667 50.9233 10.53 50.91 10.99L50.88 12.29C50.88 12.41 50.84 12.51 50.76 12.59C50.6733 12.6633 50.5733 12.7 50.46 12.7ZM64.76 11.9C64.9333 12.0333 65.02 12.1633 65.02 12.29C65.02 12.41 64.98 12.51 64.9 12.59C64.8267 12.6633 64.7267 12.7 64.6 12.7C64.5067 12.7 64.4333 12.6867 64.38 12.66C63.84 12.38 63.48 11.6333 63.3 10.42C63.2733 10.2133 63.2433 9.90333 63.21 9.49C63.1767 9.08333 63.1567 8.75333 63.15 8.5C63.13 8.1 62.9833 7.76333 62.71 7.49C62.43 7.21667 62.0933 7.01667 61.7 6.89C61.3 6.75667 60.91 6.69 60.53 6.69H58.98V12.17C58.98 12.29 58.94 12.39 58.86 12.47C58.78 12.55 58.68 12.59 58.56 12.59C58.4333 12.59 58.33 12.55 58.25 12.47C58.1767 12.39 58.14 12.29 58.14 12.17V1.76C58.14 1.61333 58.1767 1.5 58.25 1.42C58.33 1.34 58.4467 1.29667 58.6 1.29C58.9133 1.27667 59.3533 1.27 59.92 1.27C60.4867 1.26333 60.95 1.26 61.31 1.26C62.29 1.26 63.0667 1.49667 63.64 1.97C64.2067 2.43667 64.49 3.09 64.49 3.93C64.49 4.57 64.2867 5.10667 63.88 5.54C63.4667 5.98 62.93 6.26667 62.27 6.4C63.35 6.78 63.9233 7.45 63.99 8.41C63.9967 8.66333 64.0167 9 64.05 9.42C64.0833 9.84 64.1133 10.1433 64.14 10.33C64.2067 10.77 64.2833 11.11 64.37 11.35C64.4633 11.5967 64.5933 11.78 64.76 11.9ZM58.98 2.11V5.88H61.05C61.8433 5.88 62.4733 5.72 62.94 5.4C63.4133 5.07333 63.65 4.58333 63.65 3.93C63.65 3.32333 63.45 2.86667 63.05 2.56C62.65 2.25333 62.07 2.1 61.31 2.1C59.9033 2.1 59.1267 2.10333 58.98 2.11ZM69.94 12.71C69.2667 12.71 68.67 12.55 68.15 12.23C67.6233 11.91 67.2167 11.4667 66.93 10.9C66.6367 10.3333 66.49 9.7 66.49 9C66.49 8.3 66.6367 7.67 66.93 7.11C67.2167 6.55 67.6233 6.11 68.15 5.79C68.67 5.47 69.2667 5.31 69.94 5.31C70.6 5.31 71.19 5.47 71.71 5.79C72.23 6.11 72.6333 6.55 72.92 7.11C73.2067 7.67 73.35 8.3 73.35 9C73.35 9.7 73.2067 10.3333 72.92 10.9C72.6333 11.4667 72.23 11.91 71.71 12.23C71.19 12.55 70.6 12.71 69.94 12.71ZM69.94 11.87C70.44 11.87 70.8867 11.7467 71.28 11.5C71.6733 11.2533 71.9767 10.9133 72.19 10.48C72.4033 10.0467 72.51 9.55333 72.51 9C72.51 8.46 72.4033 7.97333 72.19 7.54C71.9767 7.10667 71.6733 6.76667 71.28 6.52C70.8867 6.27333 70.44 6.15 69.94 6.15C69.4267 6.15 68.97 6.27333 68.57 6.52C68.1767 6.76667 67.8733 7.10667 67.66 7.54C67.44 7.97333 67.33 8.46 67.33 9C67.33 9.55333 67.44 10.0467 67.66 10.48C67.8733 10.9133 68.1767 11.2533 68.57 11.5C68.97 11.7467 69.4267 11.87 69.94 11.87ZM81.63 11.96C81.8633 12.08 81.98 12.22 81.98 12.38C81.98 12.5 81.9333 12.59 81.84 12.65C81.7467 12.71 81.64 12.74 81.52 12.74C81.2267 12.74 80.9767 12.62 80.77 12.38C80.5567 12.1333 80.4267 11.8 80.38 11.38C80.12 11.7667 79.7967 12.0767 79.41 12.31C79.0233 12.55 78.5833 12.67 78.09 12.67C77.6233 12.67 77.2033 12.5633 76.83 12.35C76.4567 12.1433 76.16 11.8533 75.94 11.48C75.7267 11.1067 75.62 10.6833 75.62 10.21C75.62 8.89 75.6267 7.83333 75.64 7.04C75.64 6.86667 75.5967 6.68333 75.51 6.49C75.4233 6.29667 75.33 6.17333 75.23 6.12C75.1167 6.04667 75.03 5.97667 74.97 5.91C74.91 5.85 74.88 5.78 74.88 5.7C74.88 5.58 74.9267 5.48667 75.02 5.42C75.1133 5.35333 75.22 5.32 75.34 5.32C75.6667 5.32 75.9367 5.47333 76.15 5.78C76.37 6.08 76.48 6.48667 76.48 7L76.46 10.12C76.46 10.6133 76.62 11.0233 76.94 11.35C77.2533 11.67 77.6433 11.83 78.11 11.83C78.47 11.83 78.82 11.7233 79.16 11.51C79.5067 11.3033 79.7933 11.03 80.02 10.69C80.24 10.35 80.3667 9.99667 80.4 9.63L80.47 5.82C80.4767 5.71333 80.52 5.62 80.6 5.54C80.68 5.46667 80.7767 5.43 80.89 5.43C80.9967 5.43 81.0933 5.47 81.18 5.55C81.2667 5.63 81.31 5.72667 81.31 5.84L81.22 11.02C81.2133 11.1867 81.2533 11.37 81.34 11.57C81.4267 11.77 81.5233 11.9 81.63 11.96ZM90.08 11.94C90.1933 12.0133 90.28 12.0833 90.34 12.15C90.4 12.21 90.43 12.28 90.43 12.36C90.43 12.48 90.3833 12.5733 90.29 12.64C90.1967 12.7067 90.09 12.74 89.97 12.74C89.6433 12.74 89.3733 12.59 89.16 12.29C88.9467 11.9833 88.84 11.5733 88.84 11.06L88.85 9.23C88.8633 8.93667 88.87 8.57 88.87 8.13C88.87 7.52333 88.7 7.04667 88.36 6.7C88.0133 6.34667 87.5533 6.17 86.98 6.17C86.4 6.17 85.9333 6.37333 85.58 6.78C85.22 7.18 85.0167 7.68667 84.97 8.3V8.29C84.9233 10.11 84.9 11.4033 84.9 12.17C84.9 12.2967 84.86 12.3967 84.78 12.47C84.6933 12.55 84.6 12.59 84.5 12.59C84.3867 12.59 84.2867 12.55 84.2 12.47C84.1067 12.3967 84.06 12.2967 84.06 12.17L84.11 9.34L84.15 7.04C84.1567 6.86667 84.12 6.68333 84.04 6.49C83.9533 6.29667 83.86 6.17333 83.76 6.12C83.6467 6.04667 83.56 5.97667 83.5 5.91C83.44 5.85 83.41 5.78 83.41 5.7C83.41 5.58 83.4567 5.48667 83.55 5.42C83.6433 5.35333 83.75 5.32 83.87 5.32C84.1367 5.32 84.37 5.42333 84.57 5.63C84.7633 5.83667 84.89 6.12667 84.95 6.5C85.1967 6.13333 85.5 5.85333 85.86 5.66C86.2133 5.46 86.5867 5.36 86.98 5.36C87.8 5.36 88.46 5.60333 88.96 6.09C89.46 6.57667 89.71 7.21667 89.71 8.01L89.68 11.02C89.68 11.1933 89.72 11.3767 89.8 11.57C89.8867 11.7633 89.98 11.8867 90.08 11.94ZM99.09 11.94C99.21 12.0133 99.3 12.0833 99.36 12.15C99.42 12.21 99.45 12.28 99.45 12.36C99.45 12.48 99.4033 12.5733 99.31 12.64C99.2167 12.7067 99.1033 12.74 98.97 12.74C98.6767 12.74 98.4233 12.61 98.21 12.35C98.0033 12.0967 97.88 11.7467 97.84 11.3C97.54 11.7267 97.1667 12.0633 96.72 12.31C96.2733 12.55 95.7833 12.67 95.25 12.67C94.57 12.67 93.96 12.51 93.42 12.19C92.8733 11.8633 92.4467 11.4133 92.14 10.84C91.8333 10.26 91.68 9.61 91.68 8.89C91.68 8.19667 91.8367 7.57 92.15 7.01C92.4633 6.45 92.89 6.01 93.43 5.69C93.97 5.37 94.5767 5.21 95.25 5.21C95.79 5.21 96.2867 5.33333 96.74 5.58C97.1933 5.82667 97.57 6.17 97.87 6.61C97.9033 3.23 97.93 1.18667 97.95 0.48C97.95 0.353333 97.99 0.25 98.07 0.17C98.15 0.0966667 98.2467 0.0599999 98.36 0.0599999C98.48 0.0599999 98.5833 0.0966667 98.67 0.17C98.75 0.25 98.79 0.353333 98.79 0.48C98.7633 1.47333 98.7267 4.39 98.68 9.23L98.67 11.02C98.67 11.1867 98.7133 11.3667 98.8 11.56C98.8867 11.76 98.9833 11.8867 99.09 11.94ZM95.25 11.83C95.7367 11.83 96.1767 11.7033 96.57 11.45C96.97 11.1967 97.28 10.85 97.5 10.41C97.7267 9.96333 97.84 9.45667 97.84 8.89C97.84 8.35 97.7267 7.86333 97.5 7.43C97.28 7.00333 96.97 6.66667 96.57 6.42C96.1767 6.17333 95.7367 6.05 95.25 6.05C94.7367 6.05 94.2733 6.17333 93.86 6.42C93.44 6.66667 93.1133 7.00667 92.88 7.44C92.64 7.87333 92.52 8.35667 92.52 8.89C92.52 9.45667 92.64 9.96333 92.88 10.41C93.1133 10.85 93.44 11.1967 93.86 11.45C94.2733 11.7033 94.7367 11.83 95.25 11.83ZM106.91 10.98C107.03 10.98 107.127 11.0167 107.2 11.09C107.267 11.1633 107.3 11.2567 107.3 11.37C107.3 11.47 107.263 11.5733 107.19 11.68C106.923 12.0067 106.52 12.2633 105.98 12.45C105.447 12.6433 104.867 12.74 104.24 12.74C103.567 12.74 102.96 12.59 102.42 12.29C101.88 11.9833 101.453 11.56 101.14 11.02C100.833 10.48 100.68 9.86667 100.68 9.18C100.68 8.46667 100.843 7.81667 101.17 7.23C101.49 6.65 101.927 6.19 102.48 5.85C103.033 5.51667 103.653 5.35 104.34 5.35C104.867 5.35 105.34 5.44 105.76 5.62C106.173 5.8 106.497 6.05333 106.73 6.38C106.963 6.7 107.08 7.05667 107.08 7.45C107.08 7.99667 106.83 8.44 106.33 8.78C105.83 9.12667 105.17 9.3 104.35 9.3C103.81 9.3 103.29 9.22667 102.79 9.08C102.29 8.93333 101.89 8.74333 101.59 8.51C101.543 8.77 101.52 9.01333 101.52 9.24C101.52 9.75333 101.637 10.2133 101.87 10.62C102.103 11.0267 102.427 11.34 102.84 11.56C103.247 11.7867 103.713 11.9 104.24 11.9C104.787 11.9 105.263 11.8333 105.67 11.7C106.07 11.56 106.373 11.36 106.58 11.1C106.66 11.02 106.77 10.98 106.91 10.98ZM104.34 6.19C103.787 6.19 103.29 6.32333 102.85 6.59C102.41 6.86333 102.073 7.24333 101.84 7.73C102.107 7.94333 102.46 8.12333 102.9 8.27C103.347 8.42333 103.83 8.5 104.35 8.5C104.93 8.5 105.39 8.40667 105.73 8.22C106.07 8.03333 106.24 7.78667 106.24 7.48C106.24 7.11333 106.063 6.80667 105.71 6.56C105.357 6.31333 104.9 6.19 104.34 6.19ZM116.05 11.94C116.177 12.0133 116.27 12.0833 116.33 12.15C116.39 12.21 116.42 12.28 116.42 12.36C116.42 12.48 116.373 12.5733 116.28 12.64C116.187 12.7067 116.073 12.74 115.94 12.74C115.64 12.74 115.387 12.61 115.18 12.35C114.967 12.0967 114.843 11.7467 114.81 11.3C114.51 11.7267 114.137 12.0633 113.69 12.31C113.243 12.55 112.753 12.67 112.22 12.67C111.54 12.67 110.927 12.51 110.38 12.19C109.84 11.8633 109.417 11.4133 109.11 10.84C108.803 10.26 108.65 9.61 108.65 8.89C108.65 8.19667 108.807 7.57 109.12 7.01C109.433 6.45 109.86 6.01 110.4 5.69C110.94 5.37 111.547 5.21 112.22 5.21C112.76 5.21 113.257 5.33333 113.71 5.58C114.163 5.82667 114.54 6.17 114.84 6.61C114.873 3.23 114.9 1.18667 114.92 0.48C114.92 0.353333 114.96 0.25 115.04 0.17C115.12 0.0966667 115.217 0.0599999 115.33 0.0599999C115.45 0.0599999 115.55 0.0966667 115.63 0.17C115.717 0.25 115.76 0.353333 115.76 0.48C115.733 1.47333 115.697 4.39 115.65 9.23L115.63 11.02C115.63 11.1867 115.677 11.3667 115.77 11.56C115.857 11.76 115.95 11.8867 116.05 11.94ZM112.22 11.83C112.707 11.83 113.147 11.7033 113.54 11.45C113.94 11.1967 114.25 10.85 114.47 10.41C114.697 9.96333 114.81 9.45667 114.81 8.89C114.81 8.35 114.697 7.86333 114.47 7.43C114.25 7.00333 113.94 6.66667 113.54 6.42C113.147 6.17333 112.707 6.05 112.22 6.05C111.707 6.05 111.24 6.17333 110.82 6.42C110.407 6.66667 110.08 7.00667 109.84 7.44C109.607 7.87333 109.49 8.35667 109.49 8.89C109.49 9.45667 109.607 9.96333 109.84 10.41C110.08 10.85 110.407 11.1967 110.82 11.45C111.24 11.7033 111.707 11.83 112.22 11.83Z" fill="black"/>
</svg>
