<svg width="32.833" height="20.761" viewBox="0 0 32.833 20.761" xmlns="http://www.w3.org/2000/svg"><path transform="translate(0 15.996) scale(.0068359 -.0068359)" d="M88 1456H1180V1315H723V0H565V1315H88Z"/><path transform="translate(8.4971 15.996) scale(.0068359 -.0068359)" d="m795 1073h152v-1073h-152v181q-19-60-62.5-107.5t-106-75-136.5-27.5q-114 0-197 62.5t-128 188-45 310.5v541h151v-541q0-299 140-391 51-33 130-33 78 0 139 60 115 112 115 365z"/><path transform="translate(15.771 15.996) scale(.0068359 -.0068359)" d="m416 938v-938h-152v938h-139v135h138v135q0 58 28.5 111.5t74.5 88.5q94 73 166 73 67 0 105.5-18.5t85.5-63.5l-109-105q-25 32-47.5 42t-58.5 10-63.5-27-27.5-70v-176h195v-135z"/><path transform="translate(20.665 15.996) scale(.0068359 -.0068359)" d="m416 938v-938h-152v938h-139v135h138v135q0 58 28.5 111.5t74.5 88.5q94 73 166 73 67 0 105.5-18.5t85.5-63.5l-109-105q-25 32-47.5 42t-58.5 10-63.5-27-27.5-70v-176h195v-135z"/><path transform="translate(25.56 15.996) scale(.0068359 -.0068359)" d="m947-18q0-96-37-179.5t-100-138.5q-131-113-290-113-213 0-363 174l106 85q104-123 257-123 69 0 132 32t103 95.5 40 152.5v214q-19-60-62.5-107.5t-106-75-136.5-27.5q-114 0-197 62.5t-128 188-45 310.5v541h151v-541q0-299 140-391 51-33 130-33 78 0 139 60 115 112 115 365v540h152z"/></svg>