<svg width="79.506" height="15.302" viewBox="0 0 79.506 15.302" xmlns="http://www.w3.org/2000/svg"><path transform="translate(0 11.9) scale(.014 -.014)" d="m409 647-69-92v-555h-53v555l-70 92h-177v53h203l70-91 70 91h206v-53z"/><path transform="translate(8.806 11.9) scale(.014 -.014)" d="M434 0V44L375 0H146L40 78V477H94V108L163 54H364L434 108V477H487V0Z"/><path transform="translate(16.324 11.9) scale(.014 -.014)" d="m359 396-38 28h-148l-69-51v-373h-54v478h54v-47l59 47h176l52-39z"/><path transform="translate(22.358 11.9) scale(.014 -.014)" d="m359 396-38 28h-148l-69-51v-373h-54v478h54v-47l59 47h176l52-39z"/><path transform="translate(28.392 11.9) scale(.014 -.014)" d="m94 226v-120l69-52h239l63 53 36-42-81-65h-274l-106 78v322l105 77h275l96-78v-173zm368 148-60 51h-239l-69-53v-95h368z"/><path transform="translate(36.176 11.9) scale(.014 -.014)" d="M220 426V0H166V426H40V478H166V699H220V478H350V426Z"/><path transform="translate(47.236 11.9) scale(.014 -.014)" d="M471 323H427L570 0H510L370 323H102V0H50V700H536L586 585V486ZM533 574 501 647H103V376H444L533 503Z"/><path transform="translate(56 11.9) scale(.014 -.014)" d="m403-2h-257l-106 78v324l106 77h257l105-77v-324zm51 375-70 52h-220l-70-52v-269l70-52h220l70 52z"/><path transform="translate(63.672 11.9) scale(.014 -.014)" d="m463 1v41l-56-42h-271l-96 80v319l96 78h272l55-56v56h52v-476zm0 345-73 79h-235l-61-51v-270l61-50h238l70 54z"/><path transform="translate(71.582 11.9) scale(.014 -.014)" d="m462 0v42l-56-42h-270l-96 78v323l96 77h272l54-55v274h54v-697zm0 349-71 77h-236l-61-50v-273l61-49h238l69 53z"/></svg>