<svg width="98.238" height="15.694" viewBox="0 0 98.238 15.694" xmlns="http://www.w3.org/2000/svg"><path transform="translate(0 13.048) scale(.014 -.014)" d="m272-15q-97 0-145.5 55t-48.5 174v479h90v-471q0-79 23-118.5t83-39.5q62 0 84.5 40.5t22.5 117.5v471h90v-479q0-117-50-173t-149-56z"/><path transform="translate(7.686 13.048) scale(.014 -.014)" d="m163 70q14-4 27-5.5t24-1.5q58 0 86.5 46.5t28.5 154.5q0 56-7 94t-20.5 61-32.5 33-44 10q-33 0-62-16zm0 451q16 8 32.5 12.5t39.5 4.5q49 0 84-19.5t57-55 32.5-86 10.5-113.5q0-139-49.5-208t-155.5-69q-37 0-73 7.5t-64 19.5v747l86 15z"/><path transform="translate(14.224 13.048) scale(.014 -.014)" d="m403 15q-13-5-31.5-9.5t-39-8-41-6-37.5-2.5q-41 0-75 9.5t-58 33.5-37 65.5-13 104.5v323h86v-320q0-77 23.5-108.5t71.5-31.5q16 0 32 1.5t33 6.5v452h86z"/><path transform="translate(20.944 13.048) scale(.014 -.014)" d="m78 510q37 11 80 18.5t79 7.5q39 0 71-10.5t54.5-35.5 35-67.5 12.5-105.5v-317h-86v310q0 78-20 114t-75 36q-29 0-65-10v-450h-86z"/><path transform="translate(27.692 13.048) scale(.014 -.014)" d="m158 525h132v-74h-132v-289q0-54 19.5-75.5t52.5-21.5q17 0 32.5 5t26.5 12l17-69q-41-24-87-24-74 0-110.5 41.5t-36.5 137.5v498l86 15z"/><path transform="translate(32.186 13.048) scale(.014 -.014)" d="m403 15q-13-5-31.5-9.5t-39-8-41-6-37.5-2.5q-41 0-75 9.5t-58 33.5-37 65.5-13 104.5v323h86v-320q0-77 23.5-108.5t71.5-31.5q16 0 32 1.5t33 6.5v452h86z"/><path transform="translate(41.636 13.048) scale(.014 -.014)" d="m307-15q-122 0-187 91t-65 281q0 97 18.5 164t51.5 109 78 60.5 98 18.5q44 0 82-11.5t62-28.5l-27-75q-24 16-51.5 26t-63.5 10q-80 0-116-66.5t-36-206.5q0-141 38-217t124-76q41 0 66.5 10t49.5 26l25-71q-23-18-60.5-31t-86.5-13z"/><path transform="translate(48.202 13.048) scale(.014 -.014)" d="m415 262q0-62-11-112.5t-33.5-86.5-57-56-81.5-20-82 20-57.5 56-33.5 86.5-11 112.5q0 61 11 112t33.5 87.5 57.5 56.5 82 20 81.5-20 57-56.5 33.5-87.5 11-112zm-90 0q0 44-5 80.5t-16 63-29 41-43 14.5q-26 0-43.5-14.5t-29-41-16.5-63-5-80.5 5-80.5 16.5-62.5 29-40.5 43.5-14.5q25 0 43 14.5t29 40.5 16 62.5 5 80.5z"/><path transform="translate(54.684 13.048) scale(.014 -.014)" d="m78 510q37 11 80 18.5t79 7.5q39 0 71-10.5t54.5-35.5 35-67.5 12.5-105.5v-317h-86v310q0 78-20 114t-75 36q-29 0-65-10v-450h-86z"/><path transform="translate(61.432 13.048) scale(.014 -.014)" d="m304 446q-29 16-62 16-25 0-44-10t-32.5-33-20.5-61-7-94q0-108 28.5-154.5t86.5-46.5q11 0 24 1.5t27 5.5zm0 315 86 15v-762q-28-12-64-19.5t-73-7.5q-108 0-156.5 69t-48.5 208q0 63 10.5 113.5t33 86 57.5 55 83 19.5q23 0 39.5-4.5t32.5-12.5z"/><path transform="translate(67.97 13.048) scale(.014 -.014)" d="m137 237q1-38 7-69.5t19.5-55 36-36.5 57.5-13q29 0 53.5 8.5t35.5 14.5l16-69q-13-9-43.5-19.5t-72.5-10.5q-55 0-92.5 20t-61 56-33.5 86-10 110q0 145 48 212t127 67q89 0 126-67t37-188q0-11 0-22.5t-1-23.5zm87 228q-43 0-62.5-43t-23.5-115h159q0 73-15 115.5t-58 42.5z"/><path transform="translate(74.074 13.048) scale(.014 -.014)" d="m78 510q37 11 80 18.5t79 7.5q39 0 71-10.5t54.5-35.5 35-67.5 12.5-105.5v-317h-86v310q0 78-20 114t-75 36q-29 0-65-10v-450h-86z"/><path transform="translate(80.822 13.048) scale(.014 -.014)" d="m151 61q38 0 57.5 21.5t19.5 56.5q0 22-8 37.5t-21 27.5-30 21.5-34 20.5q-17 10-33 23.5t-28.5 31-20 40-7.5 52.5q0 65 40.5 105t109.5 40q29 0 55-7.5t43-16.5l-19-69q-18 10-36 15t-39 5q-32 0-51-18.5t-19-53.5q0-20 7-34.5t18.5-26 26-21.5 30.5-19q19-11 37.5-24t33-30.5 23.5-41 9-56.5q0-69-40.5-111t-118.5-42q-40 0-72 11t-48 20l18 71q15-8 40.5-18t56.5-10z"/><path transform="translate(85.596 13.048) scale(.014 -.014)" d="m137 237q1-38 7-69.5t19.5-55 36-36.5 57.5-13q29 0 53.5 8.5t35.5 14.5l16-69q-13-9-43.5-19.5t-72.5-10.5q-55 0-92.5 20t-61 56-33.5 86-10 110q0 145 48 212t127 67q89 0 126-67t37-188q0-11 0-22.5t-1-23.5zm87 228q-43 0-62.5-43t-23.5-115h159q0 73-15 115.5t-58 42.5z"/><path transform="translate(91.7 13.048) scale(.014 -.014)" d="m304 446q-29 16-62 16-25 0-44-10t-32.5-33-20.5-61-7-94q0-108 28.5-154.5t86.5-46.5q11 0 24 1.5t27 5.5zm0 315 86 15v-762q-28-12-64-19.5t-73-7.5q-108 0-156.5 69t-48.5 208q0 63 10.5 113.5t33 86 57.5 55 83 19.5q23 0 39.5-4.5t32.5-12.5z"/></svg>