<svg width="125.44" height="16.8" viewBox="0 0 125.44 16.8" xmlns="http://www.w3.org/2000/svg"><path transform="translate(0 13.16) scale(.014 -.014)" d="m281-15q-79 0-128.5 30.5t-72.5 87-23 132.5v458h78v-447q0-74 18.5-116t51.5-59.5 75-17.5q43 0 75.5 17t51 59 18.5 116v448h78v-458q0-76-22.5-132.5t-71-87-128.5-30.5z"/><path transform="translate(7.84 13.16) scale(.014 -.014)" d="m265-12q-42 0-76.5 4.5t-61 11-44.5 11.5v747l79 14v-279q14 9 47 21t76 12q70 0 121-34.5t78.5-95.5 27.5-141q0-84-31.5-144.5t-87-93.5-128.5-33zm-14 70q83 0 131 51.5t48 148.5q0 56-15 101.5t-48.5 72.5-87.5 27q-34 0-67.5-14.5t-49.5-30.5v-342q23-7 45.5-10.5t43.5-3.5z"/><path transform="translate(15.68 13.16) scale(.014 -.014)" d="m284-11q-75 0-120 30t-65 83.5-20 122.5v293h78v-271q0-68 14-109.5t44-59.5 78-18q35 0 67 4t39 7v447h78v-504q-28-7-76.5-16t-116.5-9z"/><path transform="translate(23.52 13.16) scale(.014 -.014)" d="m83 0v504q53 14 102 19.5t86 5.5q65 0 112-21.5t72.5-70 25.5-130.5v-307h-78v291q0 72-18 107.5t-48.5 47.5-68.5 12q-25 0-53-3t-54-8v-447z"/><path transform="translate(31.36 13.16) scale(.014 -.014)" d="m373-12q-81 0-121 26.5t-53 74.5-13 112v250h-106v67h106v149l78 14v-163h220v-67h-220v-251q0-55 11-85.5t36.5-42.5 68.5-12q40 0 63.5 7.5t41.5 15.5l12-66q-8-4-40-16.5t-84-12.5z"/><path transform="translate(39.2 13.16) scale(.014 -.014)" d="m284-11q-75 0-120 30t-65 83.5-20 122.5v293h78v-271q0-68 14-109.5t44-59.5 78-18q35 0 67 4t39 7v447h78v-504q-28-7-76.5-16t-116.5-9z"/><path transform="translate(54.88 13.16) scale(.014 -.014)" d="m263-15q-48 0-87.5 8.5t-67.5 20-41 19.5l25 65q19-11 63.5-27.5t107.5-16.5q47 0 81 12t53 37 19 64q0 48-24 77.5t-61.5 49.5-78.5 36q-34 14-64.5 31.5t-53.5 39.5-36 51.5-13 67.5q0 89 55.5 139t155.5 50q56 0 104.5-12.5t69.5-29.5l-26-68q-22 13-62.5 27t-88.5 14q-33 0-62.5-12t-48.5-35.5-19-58.5q0-42 18-68t50.5-44 73.5-37q45-19 80-38t59-42.5 36.5-56 12.5-78.5q0-88-60.5-136.5t-169.5-48.5z"/><path transform="translate(62.72 13.16) scale(.014 -.014)" d="m294-12q-40 0-79.5 6.5t-72 24.5-52.5 50.5-20 83.5q0 59 33 94t84 50.5 105 15.5q29 0 56.5-3.5t53.5-9.5v28q0 33-9.5 64t-37 51-81.5 20q-50 0-86.5-7.5t-53.5-14.5l-9 67q17 8 60 15t94 7q76 0 120-25t63-68.5 19-100.5v-328q-34-6-85-13t-102-7zm-6 68q38 0 67.5 3t46.5 7v164q-18 6-45.5 10.5t-58.5 4.5q-35 0-69-8t-56-28-22-56q0-55 36.5-76t100.5-21z"/><path transform="translate(70.56 13.16) scale(.014 -.014)" d="m83 0v504q53 14 102 19.5t86 5.5q65 0 112-21.5t72.5-70 25.5-130.5v-307h-78v291q0 72-18 107.5t-48.5 47.5-68.5 12q-25 0-53-3t-54-8v-447z"/><path transform="translate(78.4 13.16) scale(.014 -.014)" d="m259-12q-32 0-62.5 3t-59.5 10.5-59 20.5l17 74q39-19 82.5-30t93.5-11q66 0 99 17.5t33 54.5q0 27-20.5 45.5t-53 32.5-69.5 26q-31 11-62 24.5t-56 31-40 42.5-15 59q0 41 22.5 73t68.5 50.5 116 18.5q41 0 86-6t76-14l-14-73q-12 8-36.5 13.5t-53.5 9-57 3.5q-64 0-97.5-17t-33.5-57q0-21 17-36.5t45-27 61-23.5q34-13 68.5-27.5t63.5-33.5 46.5-45.5 17.5-62.5q0-48-24.5-80.5t-74-48.5-125.5-16z"/><path transform="translate(94.08 13.16) scale(.014 -.014)" d="m39 0q3 86 8 174t11.5 176 15 174.5 19.5 168.5h77q20-65 38.5-123.5t37-115.5 36.5-117q18 59 35.5 116t36 116 38.5 124h78q16-104 25-216.5t14.5-231.5 11.5-245h-78q-3 78-5.5 177.5t-5.5 206.5-8 207l-105-323h-74l-110 323q-1-99-5-206t-7.5-207-5.5-178z"/><path transform="translate(101.92 13.16) scale(.014 -.014)" d="m278-11q-66 0-117.5 33.5t-81.5 94-30 142.5 29.5 142.5 81.5 94.5 118 34q68 0 120.5-34t82.5-94.5 30-142.5-30-142.5-82.5-94-120.5-33.5zm1 72q45 0 79 23.5t53 68 19 106.5-19 107-53.5 69-79.5 24q-44 0-77.5-24t-52-69-18.5-107 19-106.5 53-68 77-23.5z"/><path transform="translate(109.76 13.16) scale(.014 -.014)" d="m83 0v504q53 14 102 19.5t86 5.5q65 0 112-21.5t72.5-70 25.5-130.5v-307h-78v291q0 72-18 107.5t-48.5 47.5-68.5 12q-25 0-53-3t-54-8v-447z"/><path transform="translate(117.6 13.16) scale(.014 -.014)" d="m278-11q-66 0-117.5 33.5t-81.5 94-30 142.5 29.5 142.5 81.5 94.5 118 34q68 0 120.5-34t82.5-94.5 30-142.5-30-142.5-82.5-94-120.5-33.5zm1 72q45 0 79 23.5t53 68 19 106.5-19 107-53.5 69-79.5 24q-44 0-77.5-24t-52-69-18.5-107 19-106.5 53-68 77-23.5z"/></svg>