<svg width="77" height="10" viewBox="0 0 77 10" fill="none" xmlns="http://www.w3.org/2000/svg">
<path d="M3.33 9.88C2.81667 9.88 2.38 9.80667 2.02 9.66C1.66 9.50667 1.37 9.29667 1.15 9.03C0.923333 8.75667 0.76 8.42333 0.66 8.03C0.553333 7.64333 0.5 7.20667 0.5 6.72V1.03H1.65V6.59C1.65 7.03 1.69 7.39667 1.77 7.69C1.85 7.98333 1.96 8.22 2.1 8.4C2.24667 8.57333 2.42333 8.7 2.63 8.78C2.83667 8.85333 3.07 8.89 3.33 8.89C3.59 8.89 3.82333 8.85333 4.03 8.78C4.23667 8.7 4.41333 8.57333 4.56 8.4C4.7 8.22 4.81 7.98333 4.89 7.69C4.97 7.39667 5.01 7.03 5.01 6.59V1.03H6.16V6.72C6.16 7.20667 6.10667 7.64333 6 8.03C5.9 8.42333 5.73667 8.75667 5.51 9.03C5.29 9.29667 5 9.50667 4.64 9.66C4.28 9.80667 3.84333 9.88 3.33 9.88ZM8.99 0V3.44C9.13 3.36 9.33333 3.27333 9.6 3.18C9.86 3.09333 10.1533 3.05 10.48 3.05C10.92 3.05 11.3133 3.13333 11.66 3.3C12.0067 3.46667 12.3 3.7 12.54 4C12.7733 4.3 12.9533 4.65667 13.08 5.07C13.2067 5.49 13.27 5.95 13.27 6.45C13.27 6.97667 13.1967 7.45 13.05 7.87C12.8967 8.29 12.6867 8.64667 12.42 8.94C12.1467 9.23333 11.82 9.46 11.44 9.62C11.0533 9.77333 10.6267 9.85 10.16 9.85C9.64667 9.85 9.19 9.81333 8.79 9.74C8.39 9.66667 8.06667 9.59333 7.82 9.52V0.19L8.99 0ZM8.99 4.58V8.69C9.16333 8.73667 9.34 8.77333 9.52 8.8C9.69333 8.82 9.86 8.83 10.02 8.83C10.6667 8.83 11.17 8.63333 11.53 8.24C11.8967 7.84 12.08 7.24333 12.08 6.45C12.08 6.11667 12.0467 5.80333 11.98 5.51C11.9133 5.21667 11.81 4.96333 11.67 4.75C11.53 4.54333 11.35 4.37667 11.13 4.25C10.9167 4.13 10.6533 4.07 10.34 4.07C10.0733 4.07 9.81333 4.12333 9.56 4.23C9.30667 4.33667 9.11667 4.45333 8.99 4.58ZM19.84 3.2V9.52C19.5867 9.58667 19.25 9.65667 18.83 9.73C18.4167 9.80333 17.93 9.84 17.37 9.84C16.8767 9.84 16.4667 9.76667 16.14 9.62C15.8133 9.48 15.5467 9.27667 15.34 9.01C15.1333 8.74333 14.99 8.42667 14.91 8.06C14.8233 7.7 14.78 7.3 14.78 6.86V3.2H15.93V6.61C15.93 7.41 16.05 7.97667 16.29 8.31C16.5233 8.65 16.92 8.82 17.48 8.82C17.6067 8.82 17.73 8.81333 17.85 8.8C17.9767 8.79333 18.0967 8.78333 18.21 8.77C18.3233 8.75667 18.4233 8.74333 18.51 8.73C18.59 8.71667 18.6433 8.70333 18.67 8.69V3.2H19.84ZM21.82 9.7V3.39C22.24 3.28333 22.66 3.20333 23.08 3.15C23.4933 3.09 23.8833 3.06 24.25 3.06C25.1167 3.06 25.77 3.28667 26.21 3.74C26.6567 4.18667 26.88 4.90333 26.88 5.89V9.7H25.73V6.1C25.73 5.68 25.6933 5.34 25.62 5.08C25.5467 4.82 25.44 4.61667 25.3 4.47C25.1667 4.32333 25.0033 4.22333 24.81 4.17C24.6233 4.11667 24.4167 4.09 24.19 4.09C24.0033 4.09 23.8067 4.1 23.6 4.12C23.3867 4.14667 23.1833 4.17667 22.99 4.21V9.7H21.82ZM31.23 1.19V3.2H33.98V4.17H31.23V7.19C31.23 7.51667 31.2533 7.78333 31.3 7.99C31.3467 8.19667 31.4233 8.36333 31.53 8.49C31.6367 8.61667 31.7767 8.70333 31.95 8.75C32.1167 8.79667 32.32 8.82 32.56 8.82C32.9 8.82 33.17 8.79 33.37 8.73C33.5767 8.67667 33.7733 8.60333 33.96 8.51L34.13 9.49C33.9967 9.54333 33.79 9.61667 33.51 9.71C33.2233 9.80333 32.87 9.85 32.45 9.85C31.9633 9.85 31.5667 9.79667 31.26 9.69C30.9533 9.57667 30.7133 9.40667 30.54 9.18C30.3667 8.96 30.2467 8.68333 30.18 8.35C30.1133 8.01667 30.08 7.63 30.08 7.19V4.17H28.71V3.2H30.08V1.38L31.23 1.19ZM40.84 3.2V9.52C40.5867 9.58667 40.2533 9.65667 39.84 9.73C39.42 9.80333 38.93 9.84 38.37 9.84C37.8767 9.84 37.4667 9.76667 37.14 9.62C36.8133 9.48 36.5467 9.27667 36.34 9.01C36.1333 8.74333 35.99 8.42667 35.91 8.06C35.8233 7.7 35.78 7.3 35.78 6.86V3.2H36.93V6.61C36.93 7.41 37.05 7.97667 37.29 8.31C37.5233 8.65 37.92 8.82 38.48 8.82C38.6067 8.82 38.73 8.81333 38.85 8.8C38.9767 8.79333 39.0967 8.78333 39.21 8.77C39.3233 8.75667 39.4233 8.74333 39.51 8.73C39.59 8.71667 39.6433 8.70333 39.67 8.69V3.2H40.84ZM50.99 1.03L52.34 5.35L53.69 1.03H54.77C54.9567 2.39667 55.09 3.79333 55.17 5.22C55.2433 6.64667 55.3133 8.14 55.38 9.7H54.26C54.2533 9.19333 54.2433 8.64667 54.23 8.06C54.2233 7.47333 54.2133 6.86667 54.2 6.24C54.1867 5.61333 54.1733 4.98 54.16 4.34C54.1467 3.69333 54.13 3.06667 54.11 2.46L52.85 6.41H51.84L50.55 2.46C50.5433 3.06667 50.5333 3.69 50.52 4.33C50.5067 4.97 50.4933 5.60667 50.48 6.24C50.46 6.86667 50.4433 7.47333 50.43 8.06C50.4167 8.64667 50.4067 9.19333 50.4 9.7H49.28C49.3067 8.99333 49.34 8.26667 49.38 7.52C49.4133 6.77333 49.4567 6.03 49.51 5.29C49.5633 4.55 49.6233 3.82333 49.69 3.11C49.7633 2.39 49.84 1.69667 49.92 1.03H50.99ZM62.27 6.45C62.27 6.96333 62.1967 7.42667 62.05 7.84C61.91 8.26 61.7067 8.62 61.44 8.92C61.18 9.21333 60.87 9.44333 60.51 9.61C60.1433 9.77 59.7467 9.85 59.32 9.85C58.9 9.85 58.51 9.77 58.15 9.61C57.79 9.44333 57.48 9.21333 57.22 8.92C56.9533 8.62 56.75 8.26 56.61 7.84C56.4633 7.42667 56.39 6.96333 56.39 6.45C56.39 5.93667 56.4633 5.47 56.61 5.05C56.75 4.63 56.9533 4.27333 57.22 3.98C57.48 3.68667 57.79 3.45667 58.15 3.29C58.51 3.13 58.9 3.05 59.32 3.05C59.7467 3.05 60.1433 3.13 60.51 3.29C60.87 3.45667 61.18 3.68667 61.44 3.98C61.7067 4.27333 61.91 4.63 62.05 5.05C62.1967 5.47 62.27 5.93667 62.27 6.45ZM61.08 6.45C61.08 5.71667 60.92 5.13667 60.6 4.71C60.2867 4.28333 59.86 4.07 59.32 4.07C58.7867 4.07 58.3633 4.28333 58.05 4.71C57.7367 5.13667 57.58 5.71667 57.58 6.45C57.58 7.17667 57.7367 7.75333 58.05 8.18C58.3633 8.60667 58.7867 8.82 59.32 8.82C59.86 8.82 60.2867 8.60667 60.6 8.18C60.92 7.75333 61.08 7.17667 61.08 6.45ZM63.82 9.7V3.39C64.24 3.28333 64.66 3.20333 65.08 3.15C65.4933 3.09 65.8833 3.06 66.25 3.06C67.1167 3.06 67.77 3.28667 68.21 3.74C68.6567 4.18667 68.88 4.90333 68.88 5.89V9.7H67.73V6.1C67.73 5.68 67.6933 5.34 67.62 5.08C67.5467 4.82 67.44 4.61667 67.3 4.47C67.1667 4.32333 67.0033 4.22333 66.81 4.17C66.6233 4.11667 66.4167 4.09 66.19 4.09C66.0033 4.09 65.8067 4.1 65.6 4.12C65.3867 4.14667 65.1833 4.17667 64.99 4.21V9.7H63.82ZM76.27 6.45C76.27 6.96333 76.1967 7.42667 76.05 7.84C75.91 8.26 75.7067 8.62 75.44 8.92C75.18 9.21333 74.87 9.44333 74.51 9.61C74.1433 9.77 73.7467 9.85 73.32 9.85C72.9 9.85 72.51 9.77 72.15 9.61C71.79 9.44333 71.48 9.21333 71.22 8.92C70.9533 8.62 70.75 8.26 70.61 7.84C70.4633 7.42667 70.39 6.96333 70.39 6.45C70.39 5.93667 70.4633 5.47 70.61 5.05C70.75 4.63 70.9533 4.27333 71.22 3.98C71.48 3.68667 71.79 3.45667 72.15 3.29C72.51 3.13 72.9 3.05 73.32 3.05C73.7467 3.05 74.1433 3.13 74.51 3.29C74.87 3.45667 75.18 3.68667 75.44 3.98C75.7067 4.27333 75.91 4.63 76.05 5.05C76.1967 5.47 76.27 5.93667 76.27 6.45ZM75.08 6.45C75.08 5.71667 74.92 5.13667 74.6 4.71C74.2867 4.28333 73.86 4.07 73.32 4.07C72.7867 4.07 72.3633 4.28333 72.05 4.71C71.7367 5.13667 71.58 5.71667 71.58 6.45C71.58 7.17667 71.7367 7.75333 72.05 8.18C72.3633 8.60667 72.7867 8.82 73.32 8.82C73.86 8.82 74.2867 8.60667 74.6 8.18C74.92 7.75333 75.08 7.17667 75.08 6.45Z" fill="black"/>
</svg>
