<svg width="118" height="14" viewBox="0 0 118 14" fill="none" xmlns="http://www.w3.org/2000/svg">
<path d="M7.26 1.23V0.98H11.84V1.23C11.5933 1.23 11.3933 1.25667 11.24 1.31C11.08 1.36333 10.9567 1.43333 10.87 1.52C10.7833 1.60667 10.7233 1.70667 10.69 1.82C10.6567 1.94 10.64 2.06333 10.64 2.19V9.58C10.64 9.66667 10.6533 9.76667 10.68 9.88C10.7133 9.98667 10.7733 10.09 10.86 10.19C10.94 10.2833 11.06 10.3633 11.22 10.43C11.3733 10.4967 11.58 10.53 11.84 10.53V10.78H8.47V9.75C8.31 9.93 8.13 10.1 7.93 10.26C7.73667 10.4133 7.52 10.55 7.28 10.67C7.04 10.79 6.78 10.8833 6.5 10.95C6.21333 11.0233 5.90333 11.06 5.57 11.06C5.16333 11.06 4.75333 11.0167 4.34 10.93C3.93333 10.8433 3.54333 10.7133 3.17 10.54C2.79 10.3667 2.44 10.15 2.12 9.89C1.79333 9.63667 1.51 9.34 1.27 9C1.03 8.66 0.843333 8.27667 0.71 7.85C0.57 7.42333 0.5 6.95667 0.5 6.45C0.5 5.90333 0.563333 5.4 0.69 4.94C0.816667 4.47333 0.983333 4.05 1.19 3.67C1.39667 3.29 1.63333 2.95 1.9 2.65C2.16 2.34333 2.43 2.07667 2.71 1.85C3.36333 1.30333 4.10333 0.863334 4.93 0.53L5.11 0.7C5.09 0.713334 5.02333 0.77 4.91 0.87C4.79667 0.976667 4.65667 1.13333 4.49 1.34C4.33 1.54667 4.15667 1.80667 3.97 2.12C3.78333 2.42667 3.61 2.79667 3.45 3.23C3.29 3.66333 3.15667 4.16 3.05 4.72C2.95 5.28 2.9 5.91 2.9 6.61C2.9 7.27 2.97 7.84667 3.11 8.34C3.25667 8.83333 3.45667 9.24667 3.71 9.58C3.96333 9.91333 4.26333 10.16 4.61 10.32C4.96333 10.4867 5.34333 10.57 5.75 10.57C6.12333 10.57 6.47333 10.5 6.8 10.36C7.12667 10.2133 7.41333 10.0133 7.66 9.76C7.91333 9.50667 8.11 9.20333 8.25 8.85C8.39667 8.49667 8.47 8.10667 8.47 7.68V2.19C8.47 2.09667 8.45667 1.99333 8.43 1.88C8.39667 1.77333 8.34 1.67 8.26 1.57C8.17333 1.47667 8.05 1.39667 7.89 1.33C7.73 1.26333 7.52 1.23 7.26 1.23ZM16.64 10.53V10.78H12.79V10.53C12.9833 10.53 13.14 10.51 13.26 10.47C13.38 10.43 13.4767 10.3767 13.55 10.31C13.6167 10.2433 13.6633 10.17 13.69 10.09C13.71 10.0033 13.72 9.91333 13.72 9.82V4.37C13.72 4.30333 13.71 4.23 13.69 4.15C13.6633 4.07 13.6167 3.99667 13.55 3.93C13.4767 3.86333 13.38 3.80667 13.26 3.76C13.14 3.72 12.9833 3.7 12.79 3.7V3.43H16.64V3.7C16.4533 3.7 16.3 3.71667 16.18 3.75C16.06 3.79 15.9633 3.84 15.89 3.9C15.8233 3.96 15.7767 4.02667 15.75 4.1C15.7233 4.18 15.71 4.26333 15.71 4.35V6.09C15.8633 6.40333 16.0533 6.74 16.28 7.1C16.5 7.46 16.7633 7.81667 17.07 8.17C17.37 8.52333 17.7133 8.86333 18.1 9.19C18.4867 9.52333 18.92 9.81667 19.4 10.07V4.41C19.4 4.34333 19.39 4.26667 19.37 4.18C19.35 4.09333 19.3067 4.01667 19.24 3.95C19.1733 3.87667 19.08 3.81667 18.96 3.77C18.84 3.72333 18.68 3.7 18.48 3.7V3.43H22.32V3.7C22.1333 3.7 21.98 3.71667 21.86 3.75C21.7467 3.79 21.6533 3.84 21.58 3.9C21.5133 3.96 21.4633 4.02667 21.43 4.1C21.4033 4.18 21.39 4.26333 21.39 4.35V9.86C21.39 9.92667 21.4033 10 21.43 10.08C21.4567 10.1533 21.5033 10.2233 21.57 10.29C21.6367 10.3567 21.73 10.4133 21.85 10.46C21.97 10.5067 22.1267 10.53 22.32 10.53V10.78H19.4C19.0667 10.7 18.73 10.56 18.39 10.36C18.0433 10.1667 17.71 9.94667 17.39 9.7C17.07 9.44667 16.7633 9.18333 16.47 8.91C16.1833 8.63667 15.93 8.38333 15.71 8.15V9.82C15.71 9.88667 15.72 9.96 15.74 10.04C15.76 10.12 15.8033 10.1967 15.87 10.27C15.9367 10.3433 16.03 10.4033 16.15 10.45C16.27 10.5033 16.4333 10.53 16.64 10.53ZM30.48 5.26L30.25 5.28C30.15 5.06667 30.0167 4.87333 29.85 4.7C29.6833 4.53333 29.5033 4.39333 29.31 4.28C29.11 4.16 28.9 4.07 28.68 4.01C28.4667 3.95 28.2567 3.92 28.05 3.92C27.6433 3.92 27.2767 4.02 26.95 4.22C26.6233 4.42667 26.3433 4.69333 26.11 5.02C25.8767 5.34667 25.6967 5.71333 25.57 6.12C25.4433 6.52667 25.38 6.92667 25.38 7.32C25.38 7.74 25.45 8.14333 25.59 8.53C25.73 8.91667 25.93 9.25667 26.19 9.55C26.45 9.84333 26.7667 10.0767 27.14 10.25C27.5133 10.4233 27.9333 10.51 28.4 10.51C28.78 10.51 29.0967 10.4567 29.35 10.35C29.6033 10.2433 29.8067 10.1233 29.96 9.99C30.1133 9.85667 30.2267 9.73 30.3 9.61C30.3667 9.49 30.41 9.41667 30.43 9.39L30.33 10.19C30.25 10.31 30.1333 10.4233 29.98 10.53C29.82 10.63 29.6333 10.72 29.42 10.8C29.2067 10.88 28.97 10.94 28.71 10.98C28.45 11.0267 28.17 11.05 27.87 11.05C27.1967 11.05 26.58 10.9767 26.02 10.83C25.46 10.69 24.98 10.4733 24.58 10.18C24.1733 9.88 23.86 9.51 23.64 9.07C23.42 8.62333 23.31 8.10333 23.31 7.51C23.3233 6.97 23.3967 6.49333 23.53 6.08C23.67 5.67333 23.86 5.31667 24.1 5.01C24.34 4.70333 24.6267 4.44667 24.96 4.24C25.3 4.04 25.6733 3.87667 26.08 3.75C26.48 3.62333 26.9167 3.53333 27.39 3.48C27.8633 3.42667 28.3533 3.4 28.86 3.4C29.2 3.4 29.4967 3.40667 29.75 3.42C30.0033 3.42667 30.2333 3.43 30.44 3.43C30.4 3.59 30.3733 3.76 30.36 3.94C30.34 4.11333 30.33 4.26 30.33 4.38C30.33 4.54 30.3433 4.69 30.37 4.83C30.3967 4.97 30.4333 5.11333 30.48 5.26ZM35.24 10.53V10.78H31.39V10.53C31.5833 10.53 31.74 10.51 31.86 10.47C31.98 10.43 32.0767 10.3767 32.15 10.31C32.2167 10.2433 32.2633 10.17 32.29 10.09C32.31 10.0033 32.32 9.91333 32.32 9.82V4.41C32.32 4.34333 32.31 4.26667 32.29 4.18C32.27 4.09333 32.2267 4.01667 32.16 3.95C32.0933 3.87667 32 3.81667 31.88 3.77C31.7533 3.72333 31.59 3.7 31.39 3.7V3.43H35.24V3.7C35.0533 3.7 34.9 3.71667 34.78 3.75C34.66 3.79 34.5633 3.84 34.49 3.9C34.4233 3.96 34.3767 4.02667 34.35 4.1C34.3233 4.18 34.31 4.26333 34.31 4.35V9.82C34.31 9.88667 34.32 9.96 34.34 10.04C34.36 10.12 34.4033 10.1967 34.47 10.27C34.5367 10.3433 34.63 10.4033 34.75 10.45C34.8767 10.5033 35.04 10.53 35.24 10.53ZM32.26 1.61C32.26 1.46333 32.29 1.32667 32.35 1.2C32.4033 1.06667 32.48 0.953333 32.58 0.86C32.6733 0.766667 32.7867 0.69 32.92 0.63C33.0467 0.576667 33.1833 0.55 33.33 0.55C33.4767 0.55 33.6133 0.576667 33.74 0.63C33.8733 0.69 33.9867 0.766667 34.08 0.86C34.1733 0.953333 34.25 1.06667 34.31 1.2C34.37 1.32667 34.4 1.46333 34.4 1.61C34.4 1.75667 34.37 1.89667 34.31 2.03C34.25 2.15667 34.1733 2.26667 34.08 2.36C33.9867 2.46 33.8733 2.53667 33.74 2.59C33.6133 2.64333 33.4767 2.67 33.33 2.67C33.1833 2.67 33.0467 2.64333 32.92 2.59C32.7867 2.53667 32.6733 2.46 32.58 2.36C32.48 2.26667 32.4033 2.15667 32.35 2.03C32.29 1.89667 32.26 1.75667 32.26 1.61ZM40.4 3.14C40.74 3.14 41.0533 3.17667 41.34 3.25C41.62 3.32333 41.8733 3.41 42.1 3.51C42.32 3.61667 42.51 3.73 42.67 3.85C42.83 3.97 42.96 4.07667 43.06 4.17C43.2 4.06333 43.35 3.96333 43.51 3.87C43.6767 3.78333 43.8433 3.70667 44.01 3.64C44.1833 3.58 44.3533 3.53333 44.52 3.5C44.6867 3.46667 44.8433 3.44333 44.99 3.43L45.07 3.66C44.89 3.73333 44.7267 3.85 44.58 4.01C44.46 4.15 44.3467 4.34333 44.24 4.59C44.1333 4.83667 44.0767 5.16 44.07 5.56C44.0633 5.79333 44.06 6.03333 44.06 6.28C44.06 6.53333 44.06 6.78 44.06 7.02C44.0533 7.26667 44.05 7.5 44.05 7.72C44.05 7.94 44.0467 8.13667 44.04 8.31C44.04 8.48333 44.04 8.62333 44.04 8.73C44.04 8.83667 44.04 8.9 44.04 8.92C44.04 9.32 44.09 9.64 44.19 9.88C44.2967 10.1267 44.4133 10.3233 44.54 10.47C44.6933 10.63 44.8633 10.7467 45.05 10.82L44.96 11.05C44.74 11.0367 44.5033 10.9967 44.25 10.93C43.99 10.8633 43.74 10.7667 43.5 10.64C43.26 10.52 43.0367 10.3733 42.83 10.2C42.6233 10.0333 42.4567 9.84 42.33 9.62C42.2367 9.79333 42.12 9.96 41.98 10.12C41.84 10.2867 41.6667 10.4333 41.46 10.56C41.26 10.6867 41.02 10.79 40.74 10.87C40.46 10.95 40.14 10.99 39.78 10.99C39.1867 10.99 38.6667 10.8833 38.22 10.67C37.7733 10.4633 37.4 10.1867 37.1 9.84C36.7933 9.49333 36.5667 9.10333 36.42 8.67C36.2667 8.24333 36.19 7.80667 36.19 7.36C36.19 7.02667 36.23 6.69333 36.31 6.36C36.39 6.02 36.5067 5.69333 36.66 5.38C36.82 5.06667 37.0167 4.77333 37.25 4.5C37.4833 4.22667 37.7567 3.99 38.07 3.79C38.3833 3.59 38.7333 3.43 39.12 3.31C39.5067 3.19667 39.9333 3.14 40.4 3.14ZM40.42 10.27C40.74 10.27 41.0067 10.2 41.22 10.06C41.4267 9.91333 41.5933 9.73333 41.72 9.52C41.8467 9.31333 41.94 9.09333 42 8.86C42.06 8.62667 42.1 8.42 42.12 8.24L42.17 5.65C42.1633 5.55667 42.1467 5.44 42.12 5.3C42.1 5.16667 42.0633 5.02667 42.01 4.88C41.9633 4.73333 41.9 4.58667 41.82 4.44C41.74 4.29333 41.6367 4.16333 41.51 4.05C41.39 3.93667 41.2433 3.84333 41.07 3.77C40.8967 3.69667 40.6967 3.66 40.47 3.66C40.13 3.66 39.82 3.74667 39.54 3.92C39.2667 4.09333 39.03 4.32667 38.83 4.62C38.6367 4.92 38.4867 5.27 38.38 5.67C38.2733 6.06333 38.22 6.48333 38.22 6.93C38.22 7.51667 38.28 8.02 38.4 8.44C38.5267 8.85333 38.6933 9.19667 38.9 9.47C39.1067 9.74333 39.3433 9.94667 39.61 10.08C39.8767 10.2067 40.1467 10.27 40.42 10.27ZM45.83 10.78V10.53C46.01 10.53 46.16 10.5133 46.28 10.48C46.3933 10.44 46.4867 10.3933 46.56 10.34C46.6333 10.28 46.6833 10.21 46.71 10.13C46.7367 10.05 46.75 9.96333 46.75 9.87V0.94C46.75 0.866667 46.74 0.79 46.72 0.71C46.6933 0.63 46.6467 0.56 46.58 0.5C46.5067 0.433333 46.4133 0.376667 46.3 0.33C46.18 0.29 46.0233 0.27 45.83 0.27V0H48.74V9.86C48.74 9.92667 48.7533 10 48.78 10.08C48.8067 10.1533 48.8533 10.2233 48.92 10.29C48.9867 10.3567 49.0833 10.4133 49.21 10.46C49.33 10.5067 49.4833 10.53 49.67 10.53V10.78H45.83ZM65.3 10.11L65.4 10.42C64.9867 10.5867 64.61 10.7 64.27 10.76C63.93 10.82 63.6233 10.85 63.35 10.85C63.13 10.85 62.94 10.8367 62.78 10.81C62.62 10.7833 62.4833 10.7533 62.37 10.72C62.2367 10.68 62.1233 10.6333 62.03 10.58C61.83 10.4667 61.6533 10.32 61.5 10.14C61.3467 9.95333 61.21 9.75667 61.09 9.55C60.97 9.34333 60.8633 9.12667 60.77 8.9C60.67 8.68 60.5767 8.47 60.49 8.27L60.32 7.91C59.86 8.04333 59.43 8.19333 59.03 8.36C58.63 8.53333 58.2767 8.70333 57.97 8.87C57.6567 9.03667 57.3933 9.19 57.18 9.33C56.9667 9.47 56.82 9.57 56.74 9.63C56.5667 9.81667 56.3767 9.98333 56.17 10.13C55.9567 10.2767 55.72 10.4 55.46 10.5C55.2 10.6067 54.9133 10.6867 54.6 10.74C54.28 10.7933 53.9267 10.82 53.54 10.82L53.47 10.53C53.9167 10.4567 54.3 10.3133 54.62 10.1C54.94 9.89333 55.2167 9.63667 55.45 9.33C55.6833 9.02333 55.88 8.67667 56.04 8.29C56.2067 7.90333 56.3533 7.49667 56.48 7.07C56.5533 6.82333 56.65 6.56333 56.77 6.29C56.89 6.01667 57.0367 5.75 57.21 5.49C57.3833 5.23667 57.58 4.99667 57.8 4.77C58.02 4.54333 58.27 4.35333 58.55 4.2C58.4767 4.05333 58.4 3.90333 58.32 3.75C58.2467 3.59667 58.1767 3.44333 58.11 3.29C58.0167 3.10333 57.92 2.9 57.82 2.68C57.7267 2.46 57.6133 2.25667 57.48 2.07C57.3533 1.87667 57.2033 1.71667 57.03 1.59C56.85 1.46333 56.63 1.4 56.37 1.4C56.19 1.4 56.0133 1.42 55.84 1.46C55.66 1.5 55.49 1.55 55.33 1.61L55.24 1.33C55.6333 1.19667 56.0333 1.08333 56.44 0.99C56.8533 0.896667 57.26 0.85 57.66 0.85C57.8467 0.85 58.0367 0.863334 58.23 0.89C58.4167 0.916667 58.5967 0.963334 58.77 1.03C58.9167 1.08333 59.06 1.17333 59.2 1.3C59.34 1.42 59.4767 1.56667 59.61 1.74C59.7367 1.91333 59.8533 2.09667 59.96 2.29C60.0733 2.48333 60.18 2.68 60.28 2.88C60.38 3.07333 60.47 3.25667 60.55 3.43C60.63 3.61 60.6967 3.76333 60.75 3.89C61.1567 4.75 61.5567 5.61333 61.95 6.48C62.35 7.34 62.7767 8.19 63.23 9.03C63.31 9.18333 63.3967 9.33 63.49 9.47C63.5833 9.61667 63.69 9.74667 63.81 9.86C63.9233 9.97333 64.05 10.0667 64.19 10.14C64.33 10.2067 64.49 10.2367 64.67 10.23C64.7367 10.23 64.8233 10.2233 64.93 10.21C65.0433 10.1967 65.1667 10.1633 65.3 10.11ZM60.1 7.44L58.94 4.98C58.82 5.17333 58.71 5.37333 58.61 5.58C58.51 5.78667 58.42 5.99333 58.34 6.2C58.26 6.41333 58.1867 6.62667 58.12 6.84C58.0467 7.04667 57.9767 7.24667 57.91 7.44C57.8433 7.64667 57.77 7.85 57.69 8.05C57.61 8.25 57.52 8.44333 57.42 8.63C57.76 8.43 58.16 8.22 58.62 8C59.08 7.78 59.5733 7.59333 60.1 7.44ZM68.88 10.53V10.78H65.03V10.53C65.2233 10.53 65.38 10.51 65.5 10.47C65.62 10.43 65.7167 10.3767 65.79 10.31C65.8567 10.2433 65.9033 10.17 65.93 10.09C65.95 10.0033 65.96 9.91333 65.96 9.82V4.37C65.96 4.30333 65.95 4.23 65.93 4.15C65.9033 4.07 65.8567 3.99667 65.79 3.93C65.7167 3.86333 65.62 3.80667 65.5 3.76C65.38 3.72 65.2233 3.7 65.03 3.7V3.43H68.88V3.7C68.6933 3.7 68.54 3.71667 68.42 3.75C68.3 3.79 68.2033 3.84 68.13 3.9C68.0633 3.96 68.0167 4.02667 67.99 4.1C67.9633 4.18 67.95 4.26333 67.95 4.35V6.09C68.11 6.40333 68.3 6.74 68.52 7.1C68.7467 7.46 69.01 7.81667 69.31 8.17C69.61 8.52333 69.9533 8.86333 70.34 9.19C70.7267 9.52333 71.16 9.81667 71.64 10.07V4.41C71.64 4.34333 71.63 4.26667 71.61 4.18C71.59 4.09333 71.5467 4.01667 71.48 3.95C71.4133 3.87667 71.32 3.81667 71.2 3.77C71.08 3.72333 70.92 3.7 70.72 3.7V3.43H74.56V3.7C74.3733 3.7 74.2233 3.71667 74.11 3.75C73.99 3.79 73.8933 3.84 73.82 3.9C73.7533 3.96 73.7033 4.02667 73.67 4.1C73.6433 4.18 73.63 4.26333 73.63 4.35V9.86C73.63 9.92667 73.6433 10 73.67 10.08C73.6967 10.1533 73.7433 10.2233 73.81 10.29C73.8767 10.3567 73.97 10.4133 74.09 10.46C74.21 10.5067 74.3667 10.53 74.56 10.53V10.78H71.64C71.3133 10.7 70.9767 10.56 70.63 10.36C70.2833 10.1667 69.95 9.94667 69.63 9.7C69.31 9.44667 69.0033 9.18333 68.71 8.91C68.4233 8.63667 68.17 8.38333 67.95 8.15V9.82C67.95 9.88667 67.96 9.96 67.98 10.04C68 10.12 68.0433 10.1967 68.11 10.27C68.1767 10.3433 68.27 10.4033 68.39 10.45C68.51 10.5033 68.6733 10.53 68.88 10.53ZM78.32 3.86H75.31C75.4367 3.61333 75.5167 3.36333 75.55 3.11C75.5833 2.86333 75.6 2.64667 75.6 2.46C75.6 2.41333 75.6 2.37 75.6 2.33C75.6 2.29 75.6 2.25667 75.6 2.23C75.5933 2.19667 75.59 2.16667 75.59 2.14L75.84 2.1C75.8533 2.30667 75.91 2.48 76.01 2.62C76.11 2.76667 76.23 2.89 76.37 2.99C76.5167 3.09 76.6767 3.17 76.85 3.23C77.0233 3.29 77.1933 3.33333 77.36 3.36C77.5267 3.38667 77.6833 3.40667 77.83 3.42C77.97 3.42667 78.0867 3.43 78.18 3.43H83.53C83.4033 3.68333 83.3233 3.93333 83.29 4.18C83.25 4.42667 83.23 4.64333 83.23 4.83C83.23 4.88333 83.23 4.93 83.23 4.97C83.23 5.00333 83.2333 5.03667 83.24 5.07C83.24 5.09667 83.24 5.12333 83.24 5.15L83 5.2C82.98 4.99333 82.92 4.81667 82.82 4.67C82.7267 4.52333 82.6067 4.4 82.46 4.3C82.32 4.20667 82.1633 4.13 81.99 4.07C81.8167 4.01 81.6467 3.96333 81.48 3.93C81.3133 3.90333 81.1567 3.88667 81.01 3.88C80.8633 3.86667 80.7467 3.86 80.66 3.86H80.53C80.0967 3.88667 79.71 3.99333 79.37 4.18C79.03 4.36667 78.7433 4.61667 78.51 4.93C78.2767 5.23667 78.0967 5.58667 77.97 5.98C77.8433 6.38 77.78 6.79667 77.78 7.23C77.78 7.65667 77.8167 8.07 77.89 8.47C77.9567 8.87 78.07 9.22333 78.23 9.53C78.39 9.83667 78.6 10.08 78.86 10.26C79.12 10.44 79.4367 10.53 79.81 10.53C80.0767 10.53 80.3067 10.4867 80.5 10.4C80.7 10.3133 80.87 10.1933 81.01 10.04C81.15 9.88667 81.27 9.70667 81.37 9.5C81.47 9.29333 81.56 9.07 81.64 8.83L83.24 9.38C83.08 9.61333 82.8933 9.82667 82.68 10.02C82.4667 10.22 82.2233 10.39 81.95 10.53C81.6767 10.6767 81.3667 10.79 81.02 10.87C80.6733 10.95 80.2833 10.99 79.85 10.99C79.39 10.99 78.97 10.94 78.59 10.84C78.21 10.74 77.8667 10.6 77.56 10.42C77.26 10.2467 76.9967 10.04 76.77 9.8C76.5433 9.56 76.3533 9.3 76.2 9.02C76.0533 8.74667 75.9433 8.46 75.87 8.16C75.7967 7.85333 75.76 7.55 75.76 7.25C75.76 6.87 75.8167 6.50667 75.93 6.16C76.0433 5.82 76.21 5.50333 76.43 5.21C76.6433 4.92333 76.91 4.66667 77.23 4.44C77.55 4.20667 77.9133 4.01333 78.32 3.86ZM88.04 10.53V10.78H84.19V10.53C84.3833 10.53 84.54 10.51 84.66 10.47C84.78 10.43 84.8767 10.3767 84.95 10.31C85.0167 10.2433 85.0633 10.17 85.09 10.09C85.11 10.0033 85.12 9.91333 85.12 9.82V4.41C85.12 4.34333 85.11 4.26667 85.09 4.18C85.07 4.09333 85.0267 4.01667 84.96 3.95C84.8933 3.87667 84.8 3.81667 84.68 3.77C84.56 3.72333 84.3967 3.7 84.19 3.7V3.43H88.04V3.7C87.8533 3.7 87.7 3.71667 87.58 3.75C87.46 3.79 87.3667 3.84 87.3 3.9C87.2267 3.96 87.1767 4.02667 87.15 4.1C87.1233 4.18 87.11 4.26333 87.11 4.35V9.82C87.11 9.88667 87.12 9.96 87.14 10.04C87.1667 10.12 87.21 10.1967 87.27 10.27C87.3367 10.3433 87.43 10.4033 87.55 10.45C87.6767 10.5033 87.84 10.53 88.04 10.53ZM85.06 1.61C85.06 1.46333 85.09 1.32667 85.15 1.2C85.2033 1.06667 85.28 0.953333 85.38 0.86C85.4733 0.766667 85.5867 0.69 85.72 0.63C85.8467 0.576667 85.9833 0.55 86.13 0.55C86.2767 0.55 86.4133 0.576667 86.54 0.63C86.6733 0.69 86.7867 0.766667 86.88 0.86C86.98 0.953333 87.0567 1.06667 87.11 1.2C87.17 1.32667 87.2 1.46333 87.2 1.61C87.2 1.75667 87.17 1.89667 87.11 2.03C87.0567 2.15667 86.98 2.26667 86.88 2.36C86.7867 2.46 86.6733 2.53667 86.54 2.59C86.4133 2.64333 86.2767 2.67 86.13 2.67C85.9833 2.67 85.8467 2.64333 85.72 2.59C85.5867 2.53667 85.4733 2.46 85.38 2.36C85.28 2.26667 85.2033 2.15667 85.15 2.03C85.09 1.89667 85.06 1.75667 85.06 1.61ZM89.04 7.48C89.04 6.95333 89.1167 6.49 89.27 6.09C89.43 5.68333 89.64 5.33 89.9 5.03C90.1667 4.73667 90.4767 4.48667 90.83 4.28C91.1767 4.07333 91.5433 3.90667 91.93 3.78C92.3167 3.66 92.7133 3.57 93.12 3.51C93.5267 3.45667 93.9167 3.43 94.29 3.43H97.48V3.7C97.28 3.7 97.12 3.72333 97 3.77C96.88 3.81667 96.7867 3.87667 96.72 3.95C96.6533 4.01667 96.61 4.09333 96.59 4.18C96.57 4.26667 96.56 4.34333 96.56 4.41V12.58C96.56 12.6533 96.57 12.73 96.59 12.81C96.61 12.89 96.6533 12.9667 96.72 13.04C96.7867 13.1133 96.88 13.1767 97 13.23C97.12 13.2767 97.28 13.3 97.48 13.3V13.56H93.65V13.3C93.97 13.3 94.2033 13.25 94.35 13.15C94.49 13.0433 94.56 12.9133 94.56 12.76V10.36C94.3267 10.5667 94.0667 10.7367 93.78 10.87C93.4933 10.9967 93.1733 11.06 92.82 11.06C92.3267 11.06 91.8533 11 91.4 10.88C90.9467 10.76 90.5433 10.5633 90.19 10.29C89.8433 10.01 89.5667 9.64 89.36 9.18C89.1467 8.72667 89.04 8.16 89.04 7.48ZM93.01 10.64C93.1433 10.64 93.3 10.6067 93.48 10.54C93.6533 10.48 93.8233 10.39 93.99 10.27C94.15 10.1567 94.2833 10.0167 94.39 9.85C94.5033 9.68333 94.56 9.50333 94.56 9.31V3.86H94.54C94.3667 3.86 94.1633 3.88 93.93 3.92C93.6967 3.96667 93.4533 4.04 93.2 4.14C92.9467 4.24 92.6933 4.38 92.44 4.56C92.1867 4.74 91.9633 4.97 91.77 5.25C91.57 5.52333 91.4067 5.85333 91.28 6.24C91.16 6.62667 91.1 7.07667 91.1 7.59C91.1 7.93 91.14 8.28 91.22 8.64C91.3 9.00667 91.4167 9.33667 91.57 9.63C91.73 9.93 91.93 10.1733 92.17 10.36C92.41 10.5467 92.69 10.64 93.01 10.64ZM101.87 3.43V3.68C101.677 3.68 101.52 3.7 101.4 3.74C101.28 3.78 101.187 3.83333 101.12 3.9C101.053 3.96667 101.007 4.04333 100.98 4.13C100.953 4.21 100.94 4.3 100.94 4.4V8.44C100.94 8.8 100.997 9.1 101.11 9.34C101.217 9.58667 101.357 9.78333 101.53 9.93C101.703 10.07 101.897 10.1633 102.11 10.21C102.323 10.2567 102.53 10.2567 102.73 10.21C103.023 10.1367 103.283 10.0133 103.51 9.84C103.73 9.66667 103.917 9.45333 104.07 9.2C104.223 8.94667 104.34 8.66667 104.42 8.36C104.5 8.05333 104.54 7.73333 104.54 7.4V4.4C104.54 4.32667 104.53 4.25 104.51 4.17C104.49 4.09 104.447 4.01333 104.38 3.94C104.313 3.86667 104.22 3.80667 104.1 3.76C103.98 3.70667 103.82 3.68 103.62 3.68V3.43H107.53V3.68C107.343 3.68 107.19 3.7 107.07 3.74C106.95 3.78 106.857 3.83333 106.79 3.9C106.723 3.96667 106.677 4.04333 106.65 4.13C106.623 4.21 106.61 4.3 106.61 4.4V9.82C106.61 9.88667 106.62 9.96 106.64 10.04C106.667 10.12 106.71 10.1967 106.77 10.27C106.837 10.3433 106.93 10.4033 107.05 10.45C107.17 10.5033 107.33 10.53 107.53 10.53V10.78H104.54V9.39C104.447 9.57 104.333 9.74333 104.2 9.91C104.067 10.0767 103.91 10.2333 103.73 10.38C103.543 10.52 103.333 10.6433 103.1 10.75C102.867 10.8567 102.603 10.9367 102.31 10.99C101.923 11.0567 101.573 11.07 101.26 11.03C100.947 10.9833 100.663 10.8967 100.41 10.77C100.163 10.6367 99.95 10.4733 99.77 10.28C99.5833 10.08 99.43 9.86 99.31 9.62C99.19 9.38 99.1 9.12333 99.04 8.85C98.98 8.57667 98.95 8.30333 98.95 8.03V4.35C98.95 4.28333 98.94 4.21333 98.92 4.14C98.8933 4.06 98.8467 3.98667 98.78 3.92C98.7067 3.85333 98.61 3.79667 98.49 3.75C98.37 3.70333 98.2167 3.68 98.03 3.68V3.43H101.87ZM112.7 3.14C113.04 3.14 113.353 3.17667 113.64 3.25C113.927 3.32333 114.18 3.41 114.4 3.51C114.62 3.61667 114.81 3.73 114.97 3.85C115.137 3.97 115.267 4.07667 115.36 4.17C115.5 4.06333 115.653 3.96333 115.82 3.87C115.98 3.78333 116.147 3.70667 116.32 3.64C116.487 3.58 116.653 3.53333 116.82 3.5C116.987 3.46667 117.143 3.44333 117.29 3.43L117.38 3.66C117.193 3.73333 117.027 3.85 116.88 4.01C116.76 4.15 116.647 4.34333 116.54 4.59C116.44 4.83667 116.383 5.16 116.37 5.56C116.363 5.79333 116.36 6.03333 116.36 6.28C116.36 6.53333 116.36 6.78 116.36 7.02C116.36 7.26667 116.357 7.5 116.35 7.72C116.35 7.94 116.35 8.13667 116.35 8.31C116.343 8.48333 116.34 8.62333 116.34 8.73C116.34 8.83667 116.34 8.9 116.34 8.92C116.34 9.32 116.393 9.64 116.5 9.88C116.6 10.1267 116.713 10.3233 116.84 10.47C116.993 10.63 117.163 10.7467 117.35 10.82L117.27 11.05C117.043 11.0367 116.803 10.9967 116.55 10.93C116.297 10.8633 116.047 10.7667 115.8 10.64C115.56 10.52 115.337 10.3733 115.13 10.2C114.93 10.0333 114.767 9.84 114.64 9.62C114.547 9.79333 114.43 9.96 114.29 10.12C114.143 10.2867 113.97 10.4333 113.77 10.56C113.563 10.6867 113.32 10.79 113.04 10.87C112.767 10.95 112.45 10.99 112.09 10.99C111.497 10.99 110.973 10.8833 110.52 10.67C110.073 10.4633 109.7 10.1867 109.4 9.84C109.1 9.49333 108.873 9.10333 108.72 8.67C108.567 8.24333 108.49 7.80667 108.49 7.36C108.49 7.02667 108.53 6.69333 108.61 6.36C108.69 6.02 108.807 5.69333 108.96 5.38C109.12 5.06667 109.317 4.77333 109.55 4.5C109.783 4.22667 110.057 3.99 110.37 3.79C110.683 3.59 111.033 3.43 111.42 3.31C111.807 3.19667 112.233 3.14 112.7 3.14ZM112.73 10.27C113.05 10.27 113.313 10.2 113.52 10.06C113.733 9.91333 113.9 9.73333 114.02 9.52C114.147 9.31333 114.24 9.09333 114.3 8.86C114.36 8.62667 114.4 8.42 114.42 8.24L114.48 5.65C114.467 5.55667 114.45 5.44 114.43 5.3C114.403 5.16667 114.363 5.02667 114.31 4.88C114.263 4.73333 114.2 4.58667 114.12 4.44C114.04 4.29333 113.94 4.16333 113.82 4.05C113.693 3.93667 113.543 3.84333 113.37 3.77C113.203 3.69667 113.007 3.66 112.78 3.66C112.433 3.66 112.123 3.74667 111.85 3.92C111.57 4.09333 111.333 4.32667 111.14 4.62C110.94 4.92 110.787 5.27 110.68 5.67C110.573 6.06333 110.52 6.48333 110.52 6.93C110.52 7.51667 110.583 8.02 110.71 8.44C110.837 8.85333 111.003 9.19667 111.21 9.47C111.417 9.74333 111.65 9.94667 111.91 10.08C112.177 10.2067 112.45 10.27 112.73 10.27Z" fill="black"/>
</svg>
