<svg width="28.616" height="17.5" viewBox="0 0 28.616 17.5" xmlns="http://www.w3.org/2000/svg"><path transform="translate(0 12.6) scale(.014 -.014)" d="m631-103q-43 0-64 34.5t-27.5 91.5-6.5 124q0 27 3.5 59t8.5 63.5 9 55.5q-20-72-40.5-134.5t-47-109.5-61.5-73.5-83-26.5q-49 0-69.5 28.5t-20.5 74.5q0 43 13.5 95.5t33.5 107.5q17 47 26.5 92.5t9.5 85.5q0 67-30.5 110.5t-100.5 43.5q-56 0-104.5-29t-78-76.5-29.5-104.5q0-39 14.5-73t42-54.5 64.5-20.5q46 0 75 29t29 75v11q0 8 6 8t6-19q0-54-36-86.5t-86-32.5q-46 0-78.5 22.5t-50 59-17.5 76.5q0 46 20 87t53.5 72 77 49 89.5 18q95 0 140-46t45-123q0-69-35-157-24-62-44-126t-20-111q0-33 13.5-53t45.5-20q46 0 79 32t58.5 88 48.5 129.5 49 157.5q9 25 25 49.5t38 40.5 49 16q33 0 33-15 0-9-15-9 2 0-4.5 0.5t-13.5 0.5q-55 0-76-87-11-45-16.5-100t-5.5-131q0-84 10.5-143.5t30.5-90.5q11-17 24-17 7 0 14.5 8t11.5 22q7 0 7-6 0-19-14-30.5t-28-11.5z"/><path transform="translate(9.212 12.6) scale(.014 -.014)" d="m-71-277q-20 0-37.5 16t-21.5 42q2 12 8 12 5 0 5-9 14-45 33-45 22 0 44 48 11 24 20 55t14 69q9 63 18 192 7 110 24 196 7 35 20 65t30 49 34 19q21 0 21-17 0-10-12-15-42-18-68-113-4-16-6.5-29.5t-3.5-25.5q17 60 40 85.5t51 25.5q24 0 41.5-19.5t27.5-51.5 10-71q0-46-11.5-89t-36-72-63.5-34q5-1 10-1t10 0q59 0 96.5 40.5t54.5 126.5q1 6 7 6 5 0 5-6-13-81-53.5-129.5t-110.5-48.5q-31 0-55.5 10t-29.5 35q0-48-2-87.5t-6-68.5q-22-160-107-160zm167 292q18 0 33.5 17.5t27 45 17.5 60 6 62.5q0 27-4.5 56t-15 49-28.5 20q-20 0-35.5-22t-26-54.5-16-67-5.5-60.5q0-54 11-80t36-26z"/><path transform="translate(12.894 12.6) scale(.014 -.014)" d="m98-4q-37 0-59 42t-22 109q0 73 31 134 35 68 89 68 34 0 50-27 15-24 15-61l49 297q4-1 7.5-1.5t7.5-0.5q22 0 34 23 2 2 3 2 6 0 4-6-4-13-17-70t-33-158q-4-20-7-39.5t-6-37.5q-7-46-13.5-96.5t-6.5-89.5q0-33 6-53.5t21-20.5 32 15.5 33 54.5q10 23 17.5 49.5t10.5 42.5q1 7 7 7t5-7q-7-30-14.5-54.5t-15.5-44.5q-17-40-36-58t-39-18q-33 0-47.5 32.5t-16.5 91.5q-28-125-89-125zm8 13q16 2 31.5 25.5t28.5 60.5 19 79q2 14 4 27.5t2 27.5q0 45-13 76.5t-36 31.5q-19 0-33.5-23t-25-57-16-69.5-5.5-59.5q0-28 5-57t14.5-47 24.5-15z"/><path transform="translate(17.458 12.6) scale(.014 -.014)" d="m124-9q-54 0-80.5 41t-26.5 119q0 38 7.5 69t20.5 56q4 53 31.5 88.5t68.5 35.5q35 0 59-24.5t36-64 12-83.5q0-38-5-70t-16-62q19 2 41 20t33 56q1 7 7 7t5-7q-10-44-35-65t-56-26q-39-90-102-90zm86 103q11 29 15 62.5t4 70.5q0 41-8.5 77.5t-27 59-48.5 22.5q-29 0-48-19.5t-26-54.5q26 27 72 29 33 0 33-13 0-7-8-4-13 5-22 5-39 0-63-70-8-24-8-47 0-17 5-30 18-46 51-69t79-19zm-81-88q45 0 76 75-5-1-10-1t-10 0q-46 0-78 29t-43 68q-1-12-1-24t0-24q0-32 5-60.5t19-45.5 42-17z"/><path transform="translate(21.476 12.6) scale(.014 -.014)" d="m120-3q-42 0-64 25.5t-30 64-8 76.5q0 49 15 92.5t42.5 71 63.5 27.5q61 0 61-73 0-16-4-35t-12-32.5-22-13.5q-16 0-16 18t10 29 20 21 10 23q0 45-33 45-20 0-36-18t-27.5-47.5-18-63.5-6.5-66q0-35 5-65t18-47.5 37-17.5q32 0 57 24t42.5 61 24.5 76q2 9 7 9 7 0 5-9-8-44-26.5-84.5t-47-65.5-67.5-25z"/><path transform="translate(24.71 12.6) scale(.014 -.014)" d="m7-7q-5 0-5 8 4 71 18 187 8 68 19.5 137.5t27.5 132 37.5 111.5 49.5 77.5 64 28.5q56 0 56-63 0-35-16-77t-43-82.5-59.5-70-66.5-38.5q-24-106-36-205 4 13 9 31t12 43q15 46 37 83t47.5 59.5 49.5 22.5q47 0 47-52 0-32-20-56t-50-39-60-21q14 0 24-13 15-20 21-65 2-21 4-42t4-41q2-18 9.5-26t17.5-8q18 0 33 17t27 42 20.5 52 11.5 46q2 8 6 8 5 0 5.5-3t0.5-5q-9-46-24-85t-37.5-63.5-55.5-24.5q-21 0-38.5 12.5t-24.5 34.5q-5 18-6.5 43t-1.5 48-1 33q-1 20-7.5 29t-24.5 10l-2-7q-46-159-46-197l-13 1q-11 2-16-11-1-2-4-2zm86 366q27 9 56.5 37t54 65.5 40 76.5 15.5 70q0 48-31 48-28 0-52-38t-49-125q-6-22-14.5-55t-19.5-79zm1-139q21-1 44 10.5t43 29.5 32.5 38 12.5 37-6 23-18 6q-18 0-39.5-24t-40-57.5-28.5-62.5z"/></svg>