<svg width="90" height="11" viewBox="0 0 90 11" fill="none" xmlns="http://www.w3.org/2000/svg">
<path d="M5.17 10.36H4.86C4.48 10.36 4.19333 10.1467 4 9.72L0.54 1.33C0.513333 1.25667 0.5 1.17667 0.5 1.09C0.5 0.903333 0.553333 0.75 0.66 0.63C0.773333 0.51 0.93 0.45 1.13 0.45C1.41 0.45 1.61 0.593333 1.73 0.88L5.02 9.09L8.31 0.88C8.43 0.593333 8.63 0.45 8.91 0.45C9.10333 0.45 9.25667 0.51 9.37 0.63C9.48333 0.75 9.54 0.903333 9.54 1.09C9.54 1.17667 9.52667 1.25667 9.5 1.33L6.04 9.72C5.84667 10.1467 5.55667 10.36 5.17 10.36ZM12.8 10.43C12.4 10.43 12.0267 10.3467 11.68 10.18C11.3267 10.0133 11.0467 9.77333 10.84 9.46C10.6267 9.14667 10.52 8.77 10.52 8.33C10.52 7.67 10.7833 7.12667 11.31 6.7C11.8367 6.27333 12.6467 6.06 13.74 6.06H15.43V5.95C15.43 5.32333 15.2767 4.87667 14.97 4.61C14.6633 4.34333 14.1933 4.21 13.56 4.21C13.1667 4.21 12.8233 4.24667 12.53 4.32C12.2367 4.38667 11.96 4.46333 11.7 4.55C11.62 4.57 11.5567 4.58 11.51 4.58C11.37 4.58 11.25 4.52667 11.15 4.42C11.05 4.32 11 4.19667 11 4.05C11 3.79667 11.12 3.61667 11.36 3.51C11.6867 3.37 12.05 3.25333 12.45 3.16C12.8433 3.06 13.2867 3.01 13.78 3.01C14.46 3.01 15.0167 3.14667 15.45 3.42C15.8767 3.68667 16.1933 4.03 16.4 4.45C16.6067 4.87 16.71 5.31 16.71 5.77V9.73C16.71 9.91 16.6467 10.06 16.52 10.18C16.3933 10.3 16.24 10.36 16.06 10.36C15.8867 10.36 15.74 10.3 15.62 10.18C15.4933 10.06 15.43 9.91 15.43 9.73V9.37C15.1833 9.63 14.85 9.87 14.43 10.09C14.01 10.3167 13.4667 10.43 12.8 10.43ZM13.28 9.31C13.72 9.31 14.13 9.20333 14.51 8.99C14.89 8.77667 15.1967 8.53333 15.43 8.26V7.08H13.91C13.2567 7.08 12.74 7.16667 12.36 7.34C11.98 7.50667 11.79 7.79 11.79 8.19C11.79 8.49 11.8967 8.75 12.11 8.97C12.3167 9.19667 12.7067 9.31 13.28 9.31ZM19.48 10.36C19.3 10.36 19.15 10.3 19.03 10.18C18.91 10.06 18.85 9.91 18.85 9.73V3.72C18.85 3.54667 18.91 3.39667 19.03 3.27C19.15 3.14333 19.3 3.08 19.48 3.08C19.66 3.08 19.8133 3.14333 19.94 3.27C20.06 3.39667 20.12 3.54667 20.12 3.72V4.33C20.3733 3.99 20.6833 3.68667 21.05 3.42C21.41 3.14667 21.8333 3.01 22.32 3.01H22.39C22.57 3.01 22.7167 3.07 22.83 3.19C22.95 3.31 23.01 3.46 23.01 3.64C23.01 3.82 22.95 3.96333 22.83 4.07C22.7033 4.18333 22.5467 4.24 22.36 4.24H22.29C21.8367 4.24 21.4233 4.35333 21.05 4.58C20.6767 4.81333 20.3667 5.11 20.12 5.47V9.73C20.12 9.91 20.06 10.06 19.94 10.18C19.8133 10.3 19.66 10.36 19.48 10.36ZM27.4 10.43C26.2667 10.43 25.38 10.1067 24.74 9.46C24.1 8.80667 23.78 7.89333 23.78 6.72C23.78 6.08667 23.8967 5.48667 24.13 4.92C24.3633 4.35333 24.7267 3.89333 25.22 3.54C25.7133 3.18667 26.3467 3.01 27.12 3.01C27.84 3.01 28.4467 3.17667 28.94 3.51C29.44 3.83667 29.8167 4.26667 30.07 4.8C30.33 5.33333 30.46 5.91333 30.46 6.54C30.46 6.71333 30.4 6.86333 30.28 6.99C30.1667 7.11 30.01 7.17 29.81 7.17H25.07C25.1433 7.79667 25.38 8.29667 25.78 8.67C26.18 9.05 26.76 9.24 27.52 9.24C27.94 9.24 28.2933 9.2 28.58 9.12C28.8667 9.04 29.1433 8.93667 29.41 8.81C29.4833 8.77 29.5667 8.75 29.66 8.75C29.8067 8.75 29.9367 8.8 30.05 8.9C30.1633 9.00667 30.22 9.14 30.22 9.3C30.22 9.40667 30.1833 9.50667 30.11 9.6C30.0433 9.68667 29.9567 9.75667 29.85 9.81C29.5433 9.99 29.21 10.1367 28.85 10.25C28.49 10.37 28.0067 10.43 27.4 10.43ZM25.07 6.13H29.2C29.1667 5.64333 29.0433 5.25333 28.83 4.96C28.61 4.66 28.3433 4.44 28.03 4.3C27.7233 4.16 27.42 4.09 27.12 4.09C26.8267 4.09 26.5233 4.16 26.21 4.3C25.9033 4.44 25.6433 4.66 25.43 4.96C25.2167 5.25333 25.0967 5.64333 25.07 6.13ZM32.77 10.36C32.59 10.36 32.44 10.3 32.32 10.18C32.2 10.06 32.14 9.91 32.14 9.73V0.64C32.14 0.453333 32.2 0.3 32.32 0.18C32.44 0.0599998 32.59 0 32.77 0C32.9567 0 33.11 0.0599998 33.23 0.18C33.35 0.3 33.41 0.453333 33.41 0.64V9.73C33.41 9.91 33.35 10.06 33.23 10.18C33.11 10.3 32.9567 10.36 32.77 10.36ZM37.44 10.43C37.04 10.43 36.6667 10.3467 36.32 10.18C35.9667 10.0133 35.6867 9.77333 35.48 9.46C35.2667 9.14667 35.16 8.77 35.16 8.33C35.16 7.67 35.4233 7.12667 35.95 6.7C36.4767 6.27333 37.2867 6.06 38.38 6.06H40.07V5.95C40.07 5.32333 39.9167 4.87667 39.61 4.61C39.3033 4.34333 38.8333 4.21 38.2 4.21C37.8067 4.21 37.4633 4.24667 37.17 4.32C36.8767 4.38667 36.6 4.46333 36.34 4.55C36.26 4.57 36.1967 4.58 36.15 4.58C36.01 4.58 35.89 4.52667 35.79 4.42C35.69 4.32 35.64 4.19667 35.64 4.05C35.64 3.79667 35.76 3.61667 36 3.51C36.3267 3.37 36.69 3.25333 37.09 3.16C37.4833 3.06 37.9267 3.01 38.42 3.01C39.1 3.01 39.6567 3.14667 40.09 3.42C40.5167 3.68667 40.8333 4.03 41.04 4.45C41.2467 4.87 41.35 5.31 41.35 5.77V9.73C41.35 9.91 41.2867 10.06 41.16 10.18C41.0333 10.3 40.88 10.36 40.7 10.36C40.5267 10.36 40.38 10.3 40.26 10.18C40.1333 10.06 40.07 9.91 40.07 9.73V9.37C39.8233 9.63 39.49 9.87 39.07 10.09C38.65 10.3167 38.1067 10.43 37.44 10.43ZM37.92 9.31C38.36 9.31 38.77 9.20333 39.15 8.99C39.53 8.77667 39.8367 8.53333 40.07 8.26V7.08H38.55C37.8967 7.08 37.38 7.16667 37 7.34C36.62 7.50667 36.43 7.79 36.43 8.19C36.43 8.49 36.5367 8.75 36.75 8.97C36.9567 9.19667 37.3467 9.31 37.92 9.31ZM48.01 10.36C47.8367 10.36 47.6867 10.3 47.56 10.18C47.44 10.06 47.38 9.91 47.38 9.73V1.16C47.38 0.986667 47.44 0.836667 47.56 0.71C47.6867 0.583333 47.8367 0.52 48.01 0.52H51.27C52.1567 0.52 52.88 0.646667 53.44 0.9C54 1.14667 54.4133 1.48333 54.68 1.91C54.9467 2.33667 55.08 2.82 55.08 3.36C55.08 3.9 54.93 4.40333 54.63 4.87C54.3233 5.33667 53.8633 5.67667 53.25 5.89C53.6433 5.99667 53.9567 6.18333 54.19 6.45C54.4233 6.71667 54.5967 7.01667 54.71 7.35C54.83 7.68333 54.9067 8.00667 54.94 8.32C54.98 8.63333 55 8.89 55 9.09V9.73C55 9.91 54.94 10.06 54.82 10.18C54.6933 10.3 54.5433 10.36 54.37 10.36C54.17 10.36 54.0133 10.3 53.9 10.18C53.78 10.0667 53.72 9.91667 53.72 9.73V9.31C53.72 9.07667 53.7067 8.8 53.68 8.48C53.6467 8.16667 53.5633 7.85667 53.43 7.55C53.2967 7.23667 53.0833 6.98 52.79 6.78C52.4967 6.58 52.0833 6.48 51.55 6.48H48.66V9.73C48.66 9.91 48.5967 10.06 48.47 10.18C48.3433 10.3 48.19 10.36 48.01 10.36ZM48.66 1.72V5.28H51.19C51.9767 5.28 52.61 5.12667 53.09 4.82C53.57 4.50667 53.81 4.05333 53.81 3.46C53.81 3.11333 53.73 2.81 53.57 2.55C53.41 2.29 53.1333 2.08667 52.74 1.94C52.3533 1.79333 51.8133 1.72 51.12 1.72H48.66ZM60.25 10.43C59.53 10.43 58.9 10.2733 58.36 9.96C57.82 9.64667 57.4033 9.21333 57.11 8.66C56.81 8.10667 56.66 7.46 56.66 6.72C56.66 5.98 56.81 5.33333 57.11 4.78C57.4033 4.22667 57.82 3.79333 58.36 3.48C58.9 3.16667 59.53 3.01 60.25 3.01C60.97 3.01 61.5967 3.16667 62.13 3.48C62.67 3.79333 63.0867 4.22667 63.38 4.78C63.68 5.33333 63.83 5.98 63.83 6.72C63.83 7.46 63.68 8.10667 63.38 8.66C63.0867 9.21333 62.67 9.64667 62.13 9.96C61.5967 10.2733 60.97 10.43 60.25 10.43ZM60.25 9.27C60.6033 9.27 60.9567 9.18667 61.31 9.02C61.6633 8.84667 61.96 8.57333 62.2 8.2C62.44 7.82 62.56 7.32333 62.56 6.71C62.56 6.09 62.44 5.59333 62.2 5.22C61.96 4.84667 61.6633 4.58 61.31 4.42C60.9567 4.25333 60.6033 4.17 60.25 4.17C59.8967 4.17 59.54 4.25333 59.18 4.42C58.82 4.58 58.5233 4.84667 58.29 5.22C58.0567 5.59333 57.94 6.09 57.94 6.71C57.94 7.32333 58.0567 7.82 58.29 8.2C58.5233 8.57333 58.82 8.84667 59.18 9.02C59.54 9.18667 59.8967 9.27 60.25 9.27ZM68.05 10.43C67.5167 10.43 67.0633 10.3067 66.69 10.06C66.3167 9.81333 66.03 9.48 65.83 9.06C65.6367 8.64 65.54 8.18333 65.54 7.69V3.71C65.54 3.53 65.6033 3.38 65.73 3.26C65.8567 3.14 66.0067 3.08 66.18 3.08C66.36 3.08 66.51 3.14 66.63 3.26C66.75 3.38 66.81 3.53 66.81 3.71V7.55C66.81 8.07667 66.9333 8.49333 67.18 8.8C67.42 9.1 67.81 9.25 68.35 9.25C68.8567 9.25 69.2967 9.11333 69.67 8.84C70.0433 8.56667 70.37 8.25667 70.65 7.91V3.71C70.65 3.53 70.7133 3.38 70.84 3.26C70.9667 3.14 71.1167 3.08 71.29 3.08C71.47 3.08 71.62 3.14 71.74 3.26C71.86 3.38 71.92 3.53 71.92 3.71V9.72C71.92 9.89333 71.86 10.0433 71.74 10.17C71.62 10.2967 71.47 10.36 71.29 10.36C71.1167 10.36 70.9667 10.2967 70.84 10.17C70.7133 10.0433 70.65 9.89333 70.65 9.72V9.14C70.3633 9.46 70.0133 9.75333 69.6 10.02C69.1867 10.2933 68.67 10.43 68.05 10.43ZM74.77 10.36C74.59 10.36 74.44 10.3 74.32 10.18C74.2 10.06 74.14 9.91 74.14 9.73V3.72C74.14 3.53333 74.2 3.38 74.32 3.26C74.44 3.14 74.59 3.08 74.77 3.08C74.9433 3.08 75.0933 3.14 75.22 3.26C75.3467 3.38 75.41 3.53333 75.41 3.72V4.3C75.71 3.97333 76.0633 3.67667 76.47 3.41C76.8767 3.14333 77.39 3.01 78.01 3.01C78.5433 3.01 78.9967 3.13333 79.37 3.38C79.7433 3.62667 80.03 3.96 80.23 4.38C80.4233 4.79333 80.52 5.25 80.52 5.75V9.73C80.52 9.91 80.4567 10.06 80.33 10.18C80.2033 10.3 80.0533 10.36 79.88 10.36C79.7 10.36 79.55 10.3 79.43 10.18C79.31 10.06 79.25 9.91 79.25 9.73V5.89C79.25 5.36333 79.13 4.94667 78.89 4.64C78.65 4.34 78.2567 4.19 77.71 4.19C77.2033 4.19 76.7633 4.32333 76.39 4.59C76.0167 4.86333 75.69 5.17667 75.41 5.53V9.73C75.41 9.91 75.3467 10.06 75.22 10.18C75.0933 10.3 74.9433 10.36 74.77 10.36ZM85.62 10.43C85.06 10.43 84.52 10.2867 84 10C83.48 9.70667 83.0533 9.28667 82.72 8.74C82.3933 8.18667 82.23 7.51333 82.23 6.72C82.23 5.92667 82.3933 5.25333 82.72 4.7C83.0533 4.15333 83.48 3.73333 84 3.44C84.52 3.15333 85.06 3.01 85.62 3.01C86.1133 3.01 86.5567 3.10333 86.95 3.29C87.3367 3.47667 87.69 3.73667 88.01 4.07V0.64C88.01 0.453333 88.0733 0.3 88.2 0.18C88.3267 0.0599998 88.4767 0 88.65 0C88.83 0 88.98 0.0599998 89.1 0.18C89.22 0.3 89.28 0.453333 89.28 0.64V9.73C89.28 9.91 89.22 10.06 89.1 10.18C88.98 10.3 88.83 10.36 88.65 10.36C88.4767 10.36 88.3267 10.3 88.2 10.18C88.0733 10.06 88.01 9.91 88.01 9.73V9.37C87.69 9.70333 87.3367 9.96333 86.95 10.15C86.5567 10.3367 86.1133 10.43 85.62 10.43ZM85.8 9.24C86.2533 9.24 86.6667 9.14 87.04 8.94C87.4133 8.74 87.7367 8.49 88.01 8.19V5.25C87.7367 4.95 87.4133 4.7 87.04 4.5C86.6667 4.3 86.2533 4.2 85.8 4.2C85.1333 4.2 84.5833 4.41333 84.15 4.84C83.7167 5.26 83.5 5.88667 83.5 6.72C83.5 7.54 83.7167 8.16667 84.15 8.6C84.5833 9.02667 85.1333 9.24 85.8 9.24Z" fill="black"/>
</svg>
