<svg width="66.234" height="20.72" viewBox="0 0 66.234 20.72" xmlns="http://www.w3.org/2000/svg"><path transform="translate(0 15.26) scale(.014 -.014)" d="M269 0 31 700H123L320 98H315L514 700H605L366 0Z"/><path transform="translate(8.904 15.26) scale(.014 -.014)" d="m286-15q-80 0-135.5 37t-83.5 104-28 156q0 86 30.5 149.5t85 98.5 127.5 35q70 0 121-30.5t79-91 28-150.5v-34h-415v68h344l-18-7q1 5 1 11t0 11q0 68-35 108.5t-107 40.5q-71 0-112.5-46t-41.5-158q0-118 36.5-173t122.5-55q51 0 91 26t53 87l76-19q-17-70-53-106t-79.5-49-86.5-13z"/><path transform="translate(16.59 15.26) scale(.014 -.014)" d="m441 0v324q0 165-133 165-72 0-112.5-48t-40.5-142l-9 109q4 75 55 115.5t129 40.5q104 0 150.5-60t46.5-165v-339zm-372 0v550h86v-550z"/><path transform="translate(24.878 15.26) scale(.014 -.014)" d="m267-15q-63 0-115.5 32t-84.5 96.5-32 161.5q0 98 32 162t84.5 96 115.5 32q47 0 88.5-21.5t68.5-60.5 32-93l50-115-50-115q-5-53-32-92.5t-68-61-89-21.5zm19 75q51 0 85 28.5t51 77 17 109.5-17 109.5-51 77-85 28.5q-79 0-122-56.5t-43-158.5 43-158.5 122-56.5zm153-60v760h86v-760z"/><path transform="translate(36.05 15.26) scale(.014 -.014)" d="m298-15q-68 0-123.5 22.5t-91 70-44.5 123.5l89 13q6-49 23-79.5t40.5-47 50.5-22.5 51-6q31 0 60.5 12t49.5 37 22 66q4 63-40 96.5t-143 56.5q-66 15-105.5 45.5t-56.5 70-17 81.5q0 58 26 100.5t74.5 66.5 115.5 24q33 0 69-7.5t69-27 57-57 32-97.5l-86-19q-8 53-29 82t-50 40.5-65 11.5q-32 0-60.5-11.5t-45.5-34-17-56.5q0-30 9-54.5t38-43 87-33.5q82-21 132-49.5t73-69 23-97.5q0-55-19-94t-51-64-70.5-37-76.5-12z"/><path transform="translate(43.806 15.26) scale(.014 -.014)" d="m373 0v384q0 56-31.5 81t-79.5 25q-54 0-92-24.5t-55-69.5l-69 45q32 63 88.5 93.5t130.5 30.5q55 0 99.5-18t70.5-59 26-111v-377zm-166-11q-81 0-124.5 44.5t-43.5 111.5q0 75 51 119t151 60l145 21v-70l-143-22q-58-12-87.5-35t-29.5-67q0-47 29-68t71-21q69 0 108 46.5t39 132.5l14-85q-2-78-47.5-122.5t-132.5-44.5z"/><path transform="translate(51.17 15.26) scale(.014 -.014)" d="m441 0v324q0 165-133 165-72 0-112.5-48t-40.5-142l-9 109q4 75 55 115.5t129 40.5q104 0 150.5-60t46.5-165v-339zm-372 0v550h86v-550z"/><path transform="translate(59.458 15.26) scale(.014 -.014)" d="m251-15q-89 0-146 37.5t-74 116.5l79 22q9-56 48.5-81t94.5-25q51 0 82 24t31 59q0 44-33 68t-114 42q-86 18-126.5 61t-40.5 103q0 45 24 79.5t66.5 54 98.5 19.5q85 0 135.5-34t68.5-113l-78-25q-12 60-46.5 81t-79.5 21q-44 0-72.5-19.5t-28.5-53.5q0-37 27-61t99-40q93-21 140.5-60.5t47.5-106.5q0-78-56-123.5t-147-45.5z"/></svg>