<svg width="75" height="14" viewBox="0 0 75 14" fill="none" xmlns="http://www.w3.org/2000/svg">
<path d="M5.68 8.68L8.05 1.47L6.81 1.24L6.93 0.6H10.05L9.92 1.25L9.04 1.5L5.89 10.06L4.88 10.3L1.42 1.5L0.5 1.26L0.61 0.6H4.25L4.14 1.23L3 1.52L5.68 8.68ZM12.38 9.25C12.5867 9.25 12.8133 9.22 13.06 9.16C13.3133 9.1 13.5433 9.03 13.75 8.95C13.9567 8.87 14.1067 8.80333 14.2 8.75L14.37 8.99C14.2167 9.17 14.01 9.35667 13.75 9.55C13.4967 9.73667 13.21 9.89667 12.89 10.03C12.57 10.1633 12.2567 10.23 11.95 10.23C11.4233 10.23 10.95 10.12 10.53 9.9C10.11 9.67333 9.77667 9.31667 9.53 8.83C9.27667 8.34333 9.15 7.72 9.15 6.96C9.15 6.3 9.28 5.7 9.54 5.16C9.8 4.61333 10.1667 4.18333 10.64 3.87C11.1067 3.55 11.6433 3.39 12.25 3.39C12.6967 3.39 13.0833 3.49 13.41 3.69C13.7367 3.88333 13.9867 4.14333 14.16 4.47C14.3267 4.80333 14.41 5.17333 14.41 5.58C14.41 5.88 14.3633 6.18333 14.27 6.49C14.2433 6.57 14.21 6.63 14.17 6.67C14.13 6.70333 14.07 6.72 13.99 6.72H10.32C10.3533 7.16 10.46 7.57333 10.64 7.96C10.82 8.34667 11.06 8.65667 11.36 8.89C11.6667 9.13 12.0067 9.25 12.38 9.25ZM11.58 4.19C11.2333 4.19 11.0033 4.25 10.89 4.37C10.7567 4.49667 10.6333 4.72333 10.52 5.05C10.4067 5.37667 10.34 5.76333 10.32 6.21L13.28 5.98C13.28 5.6 13.2033 5.27667 13.05 5.01C12.8967 4.73667 12.6933 4.53333 12.44 4.4C12.1867 4.26 11.9 4.19 11.58 4.19ZM18.51 4C18.2233 4.02667 17.9267 4.08667 17.62 4.18C17.3067 4.27333 17.05 4.39333 16.85 4.54C16.7167 4.64 16.65 4.8 16.65 5.02C16.65 5.37333 16.8767 5.66667 17.33 5.9C17.4433 5.96667 17.5633 6.02 17.69 6.06C17.8167 6.10667 17.9933 6.16333 18.22 6.23C18.4867 6.31 18.7033 6.38333 18.87 6.45C19.0367 6.51 19.2 6.59 19.36 6.69C19.58 6.83 19.7533 7.01667 19.88 7.25C20.0067 7.49 20.07 7.77 20.07 8.09C20.07 8.55667 19.9633 8.95 19.75 9.27C19.5367 9.59 19.2467 9.83 18.88 9.99C18.5067 10.15 18.09 10.23 17.63 10.23C17.2433 10.23 16.9133 10.1967 16.64 10.13C16.36 10.0633 16.1233 9.97667 15.93 9.87C15.7433 9.76333 15.55 9.63 15.35 9.47L15.66 7.98L16.38 8.14L16.63 9.46C17.03 9.46 17.4233 9.42667 17.81 9.36C18.2033 9.3 18.5133 9.19667 18.74 9.05C18.9067 8.94333 18.99 8.76 18.99 8.5C18.99 8.32667 18.95 8.17 18.87 8.03C18.7967 7.89 18.67 7.76 18.49 7.64C18.3767 7.56 18.2467 7.49333 18.1 7.44C17.9533 7.38 17.7667 7.31333 17.54 7.24C17.5067 7.23333 17.4233 7.20667 17.29 7.16C17.1633 7.11333 17.0467 7.07 16.94 7.03C16.8267 6.98333 16.7267 6.93667 16.64 6.89C16.3333 6.72333 16.0933 6.5 15.92 6.22C15.74 5.94 15.65 5.61667 15.65 5.25C15.65 4.83667 15.7667 4.49 16 4.21C16.2333 3.93 16.5433 3.72333 16.93 3.59C17.31 3.45667 17.7233 3.39 18.17 3.39C18.69 3.39 19.1233 3.49333 19.47 3.7C19.7833 3.88667 19.94 4.10333 19.94 4.35C19.94 4.48333 19.9 4.61333 19.82 4.74C19.74 4.86667 19.6367 4.97 19.51 5.05C19.3833 5.13 19.26 5.17 19.14 5.17C18.9867 5.17 18.8467 5.13667 18.72 5.07L18.51 4ZM23.09 12.45L24.79 12.77L24.68 13.31H20.78L20.88 12.71L21.86 12.38V4.76L20.81 4.23L20.87 3.91L22.75 3.5L22.98 4.42C23.2867 4.20667 23.5467 4.03333 23.76 3.9C23.98 3.77333 24.22 3.66 24.48 3.56C24.74 3.46 25 3.41 25.26 3.41C25.7333 3.41 26.1433 3.53333 26.49 3.78C26.8367 4.03333 27.1033 4.4 27.29 4.88C27.4767 5.36 27.57 5.93 27.57 6.59C27.57 7.21 27.4433 7.79667 27.19 8.35C26.9367 8.91 26.5933 9.36 26.16 9.7C25.9533 9.86 25.7267 9.98667 25.48 10.08C25.24 10.18 24.9933 10.23 24.74 10.23C24.3933 10.23 24.0767 10.17 23.79 10.05C23.4967 9.93667 23.2633 9.75667 23.09 9.51V12.45ZM23.06 4.8C23.08 4.94 23.09 5.10333 23.09 5.29V8.42C23.3233 8.71333 23.63 8.92667 24.01 9.06C24.39 9.18667 24.77 9.25 25.15 9.25C25.4367 9.25 25.6467 9.21667 25.78 9.15C25.8667 9.11 25.9567 8.99333 26.05 8.8C26.1367 8.61333 26.21 8.37333 26.27 8.08C26.33 7.78667 26.36 7.47667 26.36 7.15C26.36 6.53667 26.2633 6.00667 26.07 5.56C25.8833 5.11333 25.6333 4.77 25.32 4.53C25.1933 4.43 25.0433 4.38 24.87 4.38C24.6767 4.38 24.4 4.42333 24.04 4.51C23.6867 4.59 23.36 4.68667 23.06 4.8ZM31.85 9.25C32.05 9.25 32.2767 9.22 32.53 9.16C32.7767 9.1 33.0033 9.03 33.21 8.95C33.4233 8.87 33.5733 8.80333 33.66 8.75L33.83 8.99C33.6767 9.17 33.4733 9.35667 33.22 9.55C32.96 9.73667 32.67 9.89667 32.35 10.03C32.03 10.1633 31.7167 10.23 31.41 10.23C30.8833 10.23 30.41 10.12 29.99 9.9C29.57 9.67333 29.2367 9.31667 28.99 8.83C28.7367 8.34333 28.61 7.72 28.61 6.96C28.61 6.3 28.74 5.7 29 5.16C29.26 4.61333 29.6267 4.18333 30.1 3.87C30.5733 3.55 31.11 3.39 31.71 3.39C32.1633 3.39 32.55 3.49 32.87 3.69C33.1967 3.88333 33.4467 4.14333 33.62 4.47C33.7933 4.80333 33.88 5.17333 33.88 5.58C33.88 5.88 33.83 6.18333 33.73 6.49C33.7033 6.57 33.67 6.63 33.63 6.67C33.59 6.70333 33.53 6.72 33.45 6.72H29.78C29.8133 7.16 29.92 7.57333 30.1 7.96C30.28 8.34667 30.52 8.65667 30.82 8.89C31.1267 9.13 31.47 9.25 31.85 9.25ZM31.05 4.19C30.6967 4.19 30.4633 4.25 30.35 4.37C30.2233 4.49667 30.1033 4.72333 29.99 5.05C29.87 5.37667 29.8 5.76333 29.78 6.21L32.74 5.98C32.74 5.6 32.6633 5.27667 32.51 5.01C32.3567 4.73667 32.1533 4.53333 31.9 4.4C31.6467 4.26 31.3633 4.19 31.05 4.19ZM35.89 4.76L34.84 4.23L34.9 3.9L36.77 3.5L37.07 4.86C37.3767 4.32667 37.66 3.95667 37.92 3.75C38.18 3.53667 38.4633 3.43 38.77 3.43C38.8767 3.43 38.9967 3.44667 39.13 3.48C39.2567 3.50667 39.3767 3.55333 39.49 3.62C39.61 3.68667 39.7067 3.77 39.78 3.87C39.8533 3.97 39.89 4.08333 39.89 4.21C39.89 4.35 39.8467 4.49667 39.76 4.65C39.68 4.80333 39.5733 4.93 39.44 5.03C39.3133 5.13 39.1867 5.18 39.06 5.18C38.9733 5.18 38.89 5.17 38.81 5.15C38.7233 5.13 38.65 5.10667 38.59 5.08L38.45 4.32C38.25 4.4 38.0267 4.53 37.78 4.71C37.5333 4.89667 37.3133 5.07667 37.12 5.25V9.21L38.87 9.52L38.76 10.06H34.78L34.89 9.47L35.89 9.13V4.76ZM50.49 9L51.38 7.72L51.89 7.86L51.4 10.06H44.26L44.36 9.47L45.59 9.1V1.53L44.31 1.17L44.42 0.6H48.29L48.18 1.19L46.9 1.56V9.38L50.49 9ZM54.53 2.03C54.4767 2.07667 54.35 2.1 54.15 2.1C53.97 2.1 53.7967 2.08 53.63 2.04C53.4633 2 53.3533 1.94667 53.3 1.88C53.2467 1.80667 53.22 1.68 53.22 1.5C53.22 1.32 53.2433 1.14 53.29 0.96C53.3367 0.78 53.39 0.67 53.45 0.63C53.5233 0.583333 53.6467 0.56 53.82 0.56C53.9933 0.56 54.17 0.583333 54.35 0.63C54.53 0.676667 54.6433 0.73 54.69 0.79C54.7433 0.856667 54.77 0.97 54.77 1.13C54.77 1.30333 54.7433 1.48333 54.69 1.67C54.6433 1.85667 54.59 1.97667 54.53 2.03ZM52.4 9.49L53.4 9.2V4.76L52.35 4.23L52.41 3.91L54.62 3.46V9.2L55.75 9.5L55.63 10.06H52.3L52.4 9.49ZM58.19 9.35L56.8 10.23L56.47 9.81L57.12 8.62V1.26L56.07 0.73L56.13 0.41L58.33 0V4.41C58.6633 4.13667 59.04 3.9 59.46 3.7C59.8733 3.49333 60.2467 3.39 60.58 3.39C61.1133 3.39 61.5467 3.54333 61.88 3.85C62.2133 4.15667 62.4533 4.55 62.6 5.03C62.7533 5.51 62.83 6.03 62.83 6.59C62.83 7.10333 62.7467 7.58667 62.58 8.04C62.42 8.49333 62.1933 8.89 61.9 9.23C61.64 9.53 61.35 9.77333 61.03 9.96C60.7167 10.14 60.36 10.23 59.96 10.23C59.58 10.23 59.2533 10.1667 58.98 10.04C58.7067 9.90667 58.4433 9.67667 58.19 9.35ZM58.33 8.42C58.5767 8.71333 58.8867 8.92333 59.26 9.05C59.6333 9.18333 60.0067 9.25 60.38 9.25C60.6867 9.25 60.9133 9.21333 61.06 9.14C61.1667 9.08667 61.2633 8.94 61.35 8.7C61.4433 8.46 61.5133 8.18 61.56 7.86C61.6067 7.53333 61.63 7.23667 61.63 6.97C61.63 6.44333 61.5433 5.95667 61.37 5.51C61.2033 5.06333 60.97 4.73 60.67 4.51C60.5567 4.43 60.4167 4.39 60.25 4.39C60.0633 4.39 59.7733 4.43 59.38 4.51C58.98 4.59667 58.63 4.69 58.33 4.79V8.42ZM64.88 4.76L63.83 4.23L63.89 3.9L65.76 3.5L66.07 4.86C66.37 4.32667 66.65 3.95667 66.91 3.75C67.17 3.53667 67.4533 3.43 67.76 3.43C67.8733 3.43 67.9933 3.44667 68.12 3.48C68.2467 3.50667 68.3667 3.55333 68.48 3.62C68.6 3.68667 68.6967 3.77 68.77 3.87C68.8433 3.97 68.88 4.08333 68.88 4.21C68.88 4.35 68.84 4.49667 68.76 4.65C68.6733 4.80333 68.5633 4.93 68.43 5.03C68.3033 5.13 68.1767 5.18 68.05 5.18C67.97 5.18 67.8867 5.17 67.8 5.15C67.7133 5.13 67.64 5.10667 67.58 5.08L67.44 4.32C67.2467 4.4 67.0233 4.53 66.77 4.71C66.5233 4.89667 66.3033 5.07667 66.11 5.25V9.21L67.86 9.52L67.75 10.06H63.77L63.89 9.47L64.88 9.13V4.76ZM72.76 9.25C72.9667 9.25 73.1933 9.22 73.44 9.16C73.6867 9.1 73.9167 9.03 74.13 8.95C74.3367 8.87 74.4867 8.80333 74.58 8.75L74.74 8.99C74.5867 9.17 74.3833 9.35667 74.13 9.55C73.87 9.73667 73.58 9.89667 73.26 10.03C72.9467 10.1633 72.6333 10.23 72.32 10.23C71.7933 10.23 71.3233 10.12 70.91 9.9C70.49 9.67333 70.1533 9.31667 69.9 8.83C69.6467 8.34333 69.52 7.72 69.52 6.96C69.52 6.3 69.65 5.7 69.91 5.16C70.17 4.61333 70.5367 4.18333 71.01 3.87C71.4833 3.55 72.02 3.39 72.62 3.39C73.0733 3.39 73.4633 3.49 73.79 3.69C74.1167 3.88333 74.3633 4.14333 74.53 4.47C74.7033 4.80333 74.79 5.17333 74.79 5.58C74.79 5.88 74.74 6.18333 74.64 6.49C74.6133 6.57 74.5833 6.63 74.55 6.67C74.51 6.70333 74.4467 6.72 74.36 6.72H70.69C70.7233 7.16 70.83 7.57333 71.01 7.96C71.19 8.34667 71.4333 8.65667 71.74 8.89C72.04 9.13 72.38 9.25 72.76 9.25ZM71.96 4.19C71.6067 4.19 71.3733 4.25 71.26 4.37C71.1333 4.49667 71.0133 4.72333 70.9 5.05C70.7867 5.37667 70.7167 5.76333 70.69 6.21L73.65 5.98C73.65 5.6 73.5733 5.27667 73.42 5.01C73.2733 4.73667 73.07 4.53333 72.81 4.4C72.5567 4.26 72.2733 4.19 71.96 4.19Z" fill="black"/>
</svg>
