<svg width="54" height="11" viewBox="0 0 54 11" fill="none" xmlns="http://www.w3.org/2000/svg">
<path d="M1.54 0.95L0.5 0.88V0.58H4.3V0.88L3.37 0.95L6.09 7.88H6.12L8.49 0.95L7.57 0.88V0.58H9.75V0.88L8.93 0.95L5.68 10.47H5.37L1.54 0.95ZM10.88 4.01H10.04V3.73L11.47 3.58L12.43 3.33L12.56 3.53V9.98L13.26 10.05V10.33H10.18V10.05L10.88 9.98V4.01ZM10.78 0.9C10.78 0.773333 10.8067 0.656666 10.86 0.55C10.9067 0.436666 10.97 0.34 11.05 0.26C11.13 0.18 11.2267 0.116666 11.34 0.0699997C11.4467 0.023333 11.5633 0 11.69 0C11.81 0 11.9267 0.023333 12.04 0.0699997C12.1467 0.116666 12.2433 0.183333 12.33 0.27C12.41 0.35 12.4733 0.443333 12.52 0.55C12.5733 0.663333 12.6 0.78 12.6 0.9C12.6 1.02667 12.5733 1.14333 12.52 1.25C12.4733 1.36333 12.41 1.46 12.33 1.54C12.25 1.62667 12.1533 1.69333 12.04 1.74C11.9333 1.78667 11.8167 1.81 11.69 1.81C11.5633 1.81 11.4433 1.78667 11.33 1.74C11.2233 1.69333 11.1267 1.63 11.04 1.55C10.96 1.46333 10.8967 1.36667 10.85 1.26C10.8033 1.14667 10.78 1.02667 10.78 0.9ZM14.22 7.07C14.22 6.67 14.2567 6.29 14.33 5.93C14.4033 5.56333 14.5167 5.21667 14.67 4.89C14.83 4.56333 15.0267 4.28 15.26 4.04C15.4933 3.80667 15.78 3.61667 16.12 3.47C16.46 3.33 16.8333 3.26 17.24 3.26C17.4133 3.26 17.62 3.29 17.86 3.35C18.0933 3.40333 18.28 3.49 18.42 3.61V1.12H17.58V0.83L19.01 0.68L19.97 0.43L20.1 0.63V9.98L20.8 10.05V10.33H18.52L18.43 9.36H18.41C18.15 9.81333 17.8767 10.1233 17.59 10.29C17.3033 10.4567 16.9567 10.54 16.55 10.54C16.45 10.54 16.34 10.5267 16.22 10.5C16.1 10.48 15.9633 10.4367 15.81 10.37C15.6567 10.3033 15.5067 10.2167 15.36 10.11C15.22 10.01 15.0767 9.87 14.93 9.69C14.79 9.50333 14.6667 9.29667 14.56 9.07C14.46 8.83667 14.3767 8.54667 14.31 8.2C14.25 7.85333 14.22 7.47667 14.22 7.07ZM15.97 7C15.97 8.97333 16.3767 9.96 17.19 9.96C17.5167 9.96 17.8033 9.76667 18.05 9.38C18.2967 8.99333 18.42 8.58 18.42 8.14V3.95C18.16 3.75 17.87 3.65 17.55 3.65C17.3433 3.65 17.1567 3.69333 16.99 3.78C16.8233 3.86667 16.6833 3.97667 16.57 4.11C16.4633 4.24333 16.37 4.41 16.29 4.61C16.2167 4.81667 16.16 5.01333 16.12 5.2C16.08 5.38667 16.0467 5.6 16.02 5.84C15.9933 6.08 15.9767 6.28333 15.97 6.45C15.97 6.61 15.97 6.79333 15.97 7ZM21.71 8.85C21.71 8.62333 21.7433 8.40667 21.81 8.2C21.8833 7.99333 22 7.79333 22.16 7.6C22.32 7.41333 22.5167 7.24667 22.75 7.1C22.9833 6.96 23.27 6.85 23.61 6.77C23.9567 6.68333 24.34 6.64 24.76 6.64C24.98 6.64 25.19 6.65 25.39 6.67V5.72C25.39 5.42 25.3867 5.17667 25.38 4.99C25.3667 4.80333 25.3367 4.61 25.29 4.41C25.2433 4.21667 25.18 4.06667 25.1 3.96C25.0133 3.84667 24.8933 3.75667 24.74 3.69C24.5867 3.61667 24.4 3.58 24.18 3.58C23.52 3.58 23.0367 3.84333 22.73 4.37V4.4C22.8033 4.38667 22.8733 4.38 22.94 4.38C23.1733 4.38 23.36 4.45 23.5 4.59C23.6333 4.73667 23.7 4.94667 23.7 5.22C23.7 5.46 23.62 5.66 23.46 5.82C23.2933 5.98 23.0867 6.06 22.84 6.06C22.5733 6.06 22.3633 5.97 22.21 5.79C22.0567 5.61 21.98 5.39667 21.98 5.15C21.98 4.61 22.2267 4.16 22.72 3.8C23.2133 3.44 23.78 3.26 24.42 3.26C24.88 3.26 25.27 3.31 25.59 3.41C25.91 3.50333 26.1667 3.62667 26.36 3.78C26.5467 3.94 26.6933 4.15667 26.8 4.43C26.9133 4.69667 26.9867 4.97333 27.02 5.26C27.0533 5.54 27.07 5.88667 27.07 6.3V9.98L27.77 10.05V10.33H25.6L25.41 9.25H25.39C25.17 9.68333 24.9 10.0067 24.58 10.22C24.2667 10.4333 23.8833 10.54 23.43 10.54C22.8767 10.54 22.45 10.3733 22.15 10.04C21.8567 9.70667 21.71 9.31 21.71 8.85ZM23.36 8.7C23.36 9.06667 23.43 9.36333 23.57 9.59C23.7033 9.81667 23.9033 9.93 24.17 9.93C24.4767 9.93 24.7567 9.73667 25.01 9.35C25.2633 8.95667 25.39 8.48 25.39 7.92V6.98C25.21 6.96 25.0633 6.95 24.95 6.95C24.71 6.95 24.5 6.98 24.32 7.04C24.1333 7.10667 23.9867 7.19333 23.88 7.3C23.7667 7.41333 23.6733 7.53 23.6 7.65C23.5267 7.77 23.4733 7.90333 23.44 8.05C23.4133 8.19667 23.3933 8.31667 23.38 8.41C23.3667 8.50333 23.36 8.6 23.36 8.7ZM29.21 1.12H28.37V0.83L29.8 0.68L30.76 0.43L30.88 0.63V9.98L31.59 10.05V10.33H28.5V10.05L29.21 9.98V1.12ZM32.54 6.94C32.54 6.25333 32.6733 5.63 32.94 5.07C33.2067 4.51 33.58 4.06667 34.06 3.74C34.5467 3.42 35.09 3.26 35.69 3.26C36.1967 3.26 36.65 3.36333 37.05 3.57C37.4567 3.77667 37.78 4.05333 38.02 4.4C38.2667 4.74667 38.4533 5.13333 38.58 5.56C38.7133 5.98667 38.78 6.43333 38.78 6.9C38.78 7.56667 38.6533 8.17667 38.4 8.73C38.14 9.28333 37.7733 9.72333 37.3 10.05C36.82 10.3767 36.28 10.54 35.68 10.54C35.1467 10.54 34.6767 10.4433 34.27 10.25C33.8633 10.0633 33.5367 9.80333 33.29 9.47C33.0367 9.13 32.85 8.75 32.73 8.33C32.6033 7.90333 32.54 7.44 32.54 6.94ZM34.29 6.86C34.29 7.36667 34.3167 7.81667 34.37 8.21C34.4167 8.61 34.4933 8.96333 34.6 9.27C34.7067 9.58333 34.8467 9.82 35.02 9.98C35.2 10.1467 35.41 10.23 35.65 10.23C36.57 10.23 37.03 9.13333 37.03 6.94C37.03 6.38667 37.0067 5.91333 36.96 5.52C36.92 5.12 36.8467 4.77 36.74 4.47C36.64 4.16333 36.5 3.93667 36.32 3.79C36.1333 3.64333 35.91 3.57 35.65 3.57C35.41 3.57 35.2 3.65333 35.02 3.82C34.8467 3.98 34.7067 4.21 34.6 4.51C34.4933 4.81 34.4167 5.15333 34.37 5.54C34.3167 5.93333 34.29 6.37333 34.29 6.86ZM39.61 1.12L39.6 0.83L41.03 0.68L41.99 0.43L42.11 0.63V9.98L42.82 10.05V10.33H39.73V10.05L40.44 9.98V1.1L39.61 1.12ZM44.2 9.98L42.11 6.76V6.59L44.77 3.82L44.01 3.75V3.47H46.05V3.75L45.28 3.82L43.32 5.91L46.06 9.98L46.78 10.05V10.33H43.65V10.05L44.2 9.98ZM47.19 8.85C47.19 8.62333 47.2267 8.40667 47.3 8.2C47.3667 7.99333 47.48 7.79333 47.64 7.6C47.8 7.41333 47.9967 7.24667 48.23 7.1C48.4633 6.96 48.7533 6.85 49.1 6.77C49.44 6.68333 49.82 6.64 50.24 6.64C50.4667 6.64 50.68 6.65 50.88 6.67V5.72C50.88 5.42 50.8733 5.17667 50.86 4.99C50.8467 4.80333 50.8167 4.61 50.77 4.41C50.73 4.21667 50.6667 4.06667 50.58 3.96C50.4933 3.84667 50.3733 3.75667 50.22 3.69C50.0733 3.61667 49.89 3.58 49.67 3.58C49.0033 3.58 48.5167 3.84333 48.21 4.37V4.4C48.29 4.38667 48.36 4.38 48.42 4.38C48.66 4.38 48.8467 4.45 48.98 4.59C49.12 4.73667 49.19 4.94667 49.19 5.22C49.19 5.46 49.1067 5.66 48.94 5.82C48.78 5.98 48.5767 6.06 48.33 6.06C48.0567 6.06 47.8433 5.97 47.69 5.79C47.5367 5.61 47.46 5.39667 47.46 5.15C47.46 4.61 47.7067 4.16 48.2 3.8C48.6933 3.44 49.2633 3.26 49.91 3.26C50.3633 3.26 50.75 3.31 51.07 3.41C51.39 3.50333 51.6467 3.62667 51.84 3.78C52.0333 3.94 52.1833 4.15667 52.29 4.43C52.3967 4.69667 52.4667 4.97333 52.5 5.26C52.5333 5.54 52.55 5.88667 52.55 6.3V9.98L53.26 10.05V10.33H51.08L50.89 9.25H50.88C50.6533 9.68333 50.3833 10.0067 50.07 10.22C49.75 10.4333 49.3667 10.54 48.92 10.54C48.36 10.54 47.9333 10.3733 47.64 10.04C47.34 9.70667 47.19 9.31 47.19 8.85ZM48.85 8.7C48.85 9.06667 48.9167 9.36333 49.05 9.59C49.19 9.81667 49.39 9.93 49.65 9.93C49.9633 9.93 50.2467 9.73667 50.5 9.35C50.7533 8.95667 50.88 8.48 50.88 7.92V6.98C50.6933 6.96 50.5433 6.95 50.43 6.95C50.1967 6.95 49.9867 6.98 49.8 7.04C49.6133 7.10667 49.4667 7.19333 49.36 7.3C49.2533 7.41333 49.1633 7.53 49.09 7.65C49.0167 7.77 48.9633 7.90333 48.93 8.05C48.8967 8.19667 48.8733 8.31667 48.86 8.41C48.8533 8.50333 48.85 8.6 48.85 8.7Z" fill="black"/>
</svg>
