<svg width="55" height="11" viewBox="0 0 55 11" fill="none" xmlns="http://www.w3.org/2000/svg">
<path d="M4.66 10.12C4.32 9.22 3.98 8.32667 3.64 7.44C3.3 6.56 2.97333 5.72 2.66 4.92C2.34 4.11333 2.04 3.39 1.76 2.75C1.56667 2.29 1.41333 1.94667 1.3 1.72C1.18667 1.5 1.08 1.35333 0.98 1.28C0.873333 1.2 0.736667 1.15333 0.57 1.14C0.543333 1.02667 0.523333 0.916667 0.51 0.81C0.503333 0.703333 0.5 0.61 0.5 0.53C0.593333 0.543333 0.706667 0.553333 0.84 0.56C0.966667 0.56 1.10667 0.563334 1.26 0.57C1.41333 0.576667 1.57 0.58 1.73 0.58C1.89 0.58 2.04333 0.58 2.19 0.58C2.49 0.58 2.78333 0.573333 3.07 0.56C3.35667 0.553333 3.63 0.543333 3.89 0.53C3.89 0.616666 3.88333 0.713333 3.87 0.82C3.85667 0.926667 3.84 1.03333 3.82 1.14C3.51333 1.15333 3.28333 1.2 3.13 1.28C2.98333 1.36 2.92 1.50667 2.94 1.72C2.96667 1.92667 3.07333 2.24667 3.26 2.68C3.51333 3.27333 3.76 3.88 4 4.5C4.24 5.11333 4.48 5.73333 4.72 6.36C4.96 6.99333 5.2 7.64667 5.44 8.32H5.23C5.50333 7.71333 5.76333 7.11 6.01 6.51C6.25667 5.91667 6.5 5.31333 6.74 4.7C6.97333 4.08667 7.20333 3.46667 7.43 2.84C7.61 2.32 7.66333 1.91667 7.59 1.63C7.52333 1.35 7.28 1.18667 6.86 1.14C6.82667 1.03333 6.80667 0.923333 6.8 0.81C6.79333 0.703333 6.79 0.61 6.79 0.53C6.93 0.543333 7.06333 0.553333 7.19 0.56C7.31 0.56 7.43667 0.563334 7.57 0.57C7.70333 0.576667 7.84 0.58 7.98 0.58C8.19333 0.58 8.43333 0.573333 8.7 0.56C8.96667 0.553333 9.2 0.543333 9.4 0.53C9.4 0.636666 9.39667 0.736667 9.39 0.83C9.38333 0.93 9.36333 1.03333 9.33 1.14C9.04333 1.2 8.81667 1.37333 8.65 1.66C8.48333 1.94667 8.31 2.32333 8.13 2.79C7.66333 3.99 7.18333 5.19667 6.69 6.41C6.20333 7.62333 5.70667 8.84333 5.2 10.07C5.10667 10.09 5.02 10.1033 4.94 10.11C4.86667 10.1167 4.77333 10.12 4.66 10.12ZM13.48 10.17C12.8467 10.17 12.29 10.03 11.81 9.75C11.3367 9.47667 10.97 9.09 10.71 8.59C10.4433 8.09 10.31 7.50333 10.31 6.83C10.31 6.19667 10.4467 5.63 10.72 5.13C10.9933 4.62333 11.3667 4.22667 11.84 3.94C12.3133 3.64667 12.86 3.5 13.48 3.5C14.14 3.5 14.7067 3.64 15.18 3.92C15.6533 4.2 16.0133 4.59 16.26 5.09C16.5133 5.59 16.64 6.17 16.64 6.83C16.64 7.47 16.5067 8.04 16.24 8.54C15.9733 9.04667 15.6067 9.44333 15.14 9.73C14.6667 10.0233 14.1133 10.17 13.48 10.17ZM13.59 9.49C14.15 9.49 14.5667 9.26 14.84 8.8C15.1067 8.34 15.24 7.74 15.24 7C15.24 6.42 15.1533 5.92 14.98 5.5C14.8067 5.07333 14.5767 4.74667 14.29 4.52C14.0033 4.28667 13.6867 4.17 13.34 4.17C12.8 4.17 12.3967 4.39 12.13 4.83C11.8633 5.27 11.73 5.84 11.73 6.54C11.73 7.16667 11.8067 7.7 11.96 8.14C12.1133 8.58667 12.33 8.92333 12.61 9.15C12.89 9.37667 13.2167 9.49 13.59 9.49ZM17.71 10.08C17.71 9.98667 17.7133 9.88667 17.72 9.78C17.7267 9.67333 17.7467 9.57333 17.78 9.48C18.1533 9.48 18.4067 9.39333 18.54 9.22C18.6733 9.04667 18.74 8.72667 18.74 8.26V1.99C18.74 1.76333 18.72 1.58 18.68 1.44C18.64 1.29333 18.5433 1.18333 18.39 1.11C18.2433 1.03667 18.01 1 17.69 1C17.69 0.893333 17.7 0.8 17.72 0.72C17.74 0.633333 17.7733 0.553333 17.82 0.48C17.96 0.48 18.1567 0.456667 18.41 0.41C18.67 0.363333 18.92 0.303333 19.16 0.23C19.4067 0.15 19.5833 0.0733333 19.69 0C19.7767 0.0266667 19.85 0.0833334 19.91 0.17C19.97 0.256667 20 0.386667 20 0.56V8.26C20 8.72667 20.0633 9.04667 20.19 9.22C20.3167 9.39333 20.53 9.48 20.83 9.48C20.8567 9.57333 20.8733 9.68 20.88 9.8C20.8933 9.92 20.9 10.0133 20.9 10.08C20.74 10.0733 20.57 10.0667 20.39 10.06C20.2167 10.0533 20.0367 10.05 19.85 10.05C19.67 10.0433 19.4933 10.04 19.32 10.04C19.14 10.04 18.9533 10.0433 18.76 10.05C18.5733 10.05 18.39 10.0533 18.21 10.06C18.03 10.0667 17.8633 10.0733 17.71 10.08ZM21.89 10.08C21.89 9.98667 21.8967 9.88667 21.91 9.78C21.9167 9.67333 21.9333 9.57333 21.96 9.48C22.3333 9.48 22.5867 9.39333 22.72 9.22C22.86 9.04667 22.93 8.72667 22.93 8.26V1.99C22.93 1.76333 22.9067 1.58 22.86 1.44C22.82 1.29333 22.7267 1.18333 22.58 1.11C22.4267 1.03667 22.1933 1 21.88 1C21.88 0.893333 21.89 0.8 21.91 0.72C21.9233 0.633333 21.9533 0.553333 22 0.48C22.14 0.48 22.34 0.456667 22.6 0.41C22.8533 0.363333 23.1033 0.303333 23.35 0.23C23.59 0.15 23.7667 0.0733333 23.88 0C23.9667 0.0266667 24.04 0.0833334 24.1 0.17C24.16 0.256667 24.19 0.386667 24.19 0.56V8.26C24.19 8.72667 24.2533 9.04667 24.38 9.22C24.5067 9.39333 24.7167 9.48 25.01 9.48C25.0433 9.57333 25.0633 9.68 25.07 9.8C25.0767 9.92 25.08 10.0133 25.08 10.08C24.9267 10.0733 24.76 10.0667 24.58 10.06C24.4 10.0533 24.22 10.05 24.04 10.05C23.86 10.0433 23.68 10.04 23.5 10.04C23.3267 10.04 23.1433 10.0433 22.95 10.05C22.7567 10.05 22.5733 10.0533 22.4 10.06C22.22 10.0667 22.05 10.0733 21.89 10.08ZM26.08 10.08C26.08 9.98667 26.0833 9.88667 26.09 9.78C26.1033 9.67333 26.1233 9.57333 26.15 9.48C26.5233 9.48 26.7767 9.39333 26.91 9.22C27.0433 9.04667 27.11 8.72667 27.11 8.26V1.99C27.11 1.76333 27.09 1.58 27.05 1.44C27.01 1.29333 26.9133 1.18333 26.76 1.11C26.6133 1.03667 26.38 1 26.06 1C26.06 0.893333 26.07 0.8 26.09 0.72C26.11 0.633333 26.1433 0.553333 26.19 0.48C26.33 0.48 26.5267 0.456667 26.78 0.41C27.04 0.363333 27.29 0.303333 27.53 0.23C27.7767 0.15 27.9567 0.0733333 28.07 0C28.15 0.0266667 28.22 0.0833334 28.28 0.17C28.34 0.256667 28.37 0.386667 28.37 0.56V8.26C28.37 8.72667 28.4333 9.04667 28.56 9.22C28.6867 9.39333 28.9 9.48 29.2 9.48C29.2267 9.57333 29.2467 9.68 29.26 9.8C29.2667 9.92 29.27 10.0133 29.27 10.08C29.03 10.06 28.7733 10.05 28.5 10.05C28.2267 10.0433 27.9567 10.04 27.69 10.04C27.51 10.04 27.3233 10.0433 27.13 10.05C26.9433 10.05 26.76 10.0533 26.58 10.06C26.4067 10.0667 26.24 10.0733 26.08 10.08ZM31.06 10.17C30.9 9.92333 30.71 9.65 30.49 9.35C30.2633 9.05667 30.02 8.74667 29.76 8.42C29.5 8.1 29.23 7.79 28.95 7.49C28.6767 7.18333 28.4133 6.91 28.16 6.67L29.41 5.52C29.73 5.22667 29.96 4.99 30.1 4.81C30.24 4.63 30.31 4.49333 30.31 4.4C30.31 4.32667 30.2733 4.27 30.2 4.23C30.1333 4.19 30.0333 4.17 29.9 4.17C29.8733 4.07667 29.8533 3.98333 29.84 3.89C29.8267 3.79667 29.82 3.7 29.82 3.6C30.02 3.60667 30.2067 3.61333 30.38 3.62C30.5533 3.62667 30.7167 3.63 30.87 3.63C31.0167 3.63 31.15 3.63 31.27 3.63C31.43 3.63 31.6267 3.62667 31.86 3.62C32.0933 3.61333 32.3367 3.60667 32.59 3.6C32.59 3.69333 32.5833 3.79333 32.57 3.9C32.5567 4.00667 32.53 4.10333 32.49 4.19C32.31 4.19 32.1333 4.21667 31.96 4.27C31.7933 4.33 31.6133 4.42 31.42 4.54C31.2267 4.66 31.0133 4.82667 30.78 5.04L29.24 6.44L29.21 5.99C29.5367 6.33 29.8733 6.69333 30.22 7.08C30.5667 7.46667 30.9833 7.96 31.47 8.56C31.6567 8.78 31.8167 8.95 31.95 9.07C32.0833 9.19667 32.2267 9.28333 32.38 9.33C32.5267 9.38333 32.7067 9.42 32.92 9.44C32.92 9.56667 32.9167 9.68 32.91 9.78C32.9033 9.88 32.8833 9.96667 32.85 10.04C32.63 10.04 32.42 10.0433 32.22 10.05C32.0267 10.0633 31.8367 10.0767 31.65 10.09C31.4633 10.1033 31.2667 10.13 31.06 10.17ZM36.93 10.17C36.2967 10.17 35.74 10.03 35.26 9.75C34.7867 9.47667 34.42 9.09 34.16 8.59C33.8933 8.09 33.76 7.50333 33.76 6.83C33.76 6.19667 33.8967 5.63 34.17 5.13C34.4433 4.62333 34.8167 4.22667 35.29 3.94C35.7633 3.64667 36.31 3.5 36.93 3.5C37.59 3.5 38.1567 3.64 38.63 3.92C39.1033 4.2 39.4633 4.59 39.71 5.09C39.9633 5.59 40.09 6.17 40.09 6.83C40.09 7.47 39.9567 8.04 39.69 8.54C39.4233 9.04667 39.0567 9.44333 38.59 9.73C38.1167 10.0233 37.5633 10.17 36.93 10.17ZM37.04 9.49C37.6 9.49 38.0167 9.26 38.29 8.8C38.5567 8.34 38.69 7.74 38.69 7C38.69 6.42 38.6033 5.92 38.43 5.5C38.2567 5.07333 38.0267 4.74667 37.74 4.52C37.4533 4.28667 37.1367 4.17 36.79 4.17C36.25 4.17 35.8467 4.39 35.58 4.83C35.3133 5.27 35.18 5.84 35.18 6.54C35.18 7.16667 35.2567 7.7 35.41 8.14C35.5633 8.58667 35.78 8.92333 36.06 9.15C36.34 9.37667 36.6667 9.49 37.04 9.49ZM43.47 6.86V7.98C43.47 8.38 43.51 8.68667 43.59 8.9C43.6767 9.10667 43.8133 9.25 44 9.33C44.1867 9.41 44.4233 9.46 44.71 9.48C44.7367 9.55333 44.7567 9.64 44.77 9.74C44.7767 9.84 44.78 9.95333 44.78 10.08C44.64 10.0733 44.4767 10.0667 44.29 10.06C44.0967 10.0533 43.8933 10.05 43.68 10.05C43.46 10.0433 43.24 10.04 43.02 10.04C42.6933 10.04 42.35 10.0433 41.99 10.05C41.63 10.05 41.3567 10.06 41.17 10.08C41.17 9.95333 41.1733 9.84 41.18 9.74C41.1933 9.64 41.2133 9.55333 41.24 9.48C41.4933 9.46 41.69 9.41667 41.83 9.35C41.97 9.27667 42.0667 9.15333 42.12 8.98C42.18 8.80667 42.21 8.56667 42.21 8.26V6.86H43.47ZM43.23 5.74L43.47 5.94V7.04H42.21V5.49L43.47 4.12C43.47 4.43333 43.44 4.72 43.38 4.98C43.3267 5.23333 43.2767 5.48667 43.23 5.74ZM43.47 6.64L43.16 5.83C43.26 5.56333 43.34 5.34667 43.4 5.18C43.4533 5.01333 43.5133 4.87333 43.58 4.76C43.7867 4.43333 44.03 4.16333 44.31 3.95C44.59 3.73667 44.91 3.63 45.27 3.63C45.6233 3.63 45.9467 3.74 46.24 3.96C46.22 4.11333 46.2 4.28667 46.18 4.48C46.16 4.68 46.15 4.87667 46.15 5.07C46.1433 5.26333 46.14 5.44667 46.14 5.62C46.0533 5.64667 45.94 5.67333 45.8 5.7C45.6533 5.72667 45.5 5.74 45.34 5.74C45.32 5.29333 45.25 5 45.13 4.86C45.0033 4.72 44.8467 4.65 44.66 4.65C44.5 4.65 44.3267 4.74 44.14 4.92C43.9533 5.10667 43.7933 5.34667 43.66 5.64C43.5333 5.94 43.47 6.27333 43.47 6.64ZM43.47 4.12L42.21 7.04V5.49C42.21 5.26333 42.1867 5.08 42.14 4.94C42.0933 4.8 41.9933 4.69333 41.84 4.62C41.6933 4.54667 41.4667 4.50667 41.16 4.5C41.16 4.39333 41.1667 4.3 41.18 4.22C41.2 4.13333 41.2333 4.05333 41.28 3.98C41.5733 3.96 41.9067 3.90333 42.28 3.81C42.6533 3.71667 42.9467 3.61333 43.16 3.5C43.24 3.52667 43.3133 3.58667 43.38 3.68C43.44 3.76667 43.47 3.91333 43.47 4.12ZM49.33 4.12L48.07 7.04V5.49C48.07 5.26333 48.0467 5.08 48 4.94C47.9533 4.8 47.8567 4.69333 47.71 4.62C47.5567 4.54667 47.3267 4.50667 47.02 4.5C47.02 4.39333 47.03 4.3 47.05 4.22C47.07 4.13333 47.1033 4.05333 47.15 3.98C47.4367 3.96 47.7667 3.90333 48.14 3.81C48.5133 3.71667 48.8067 3.61333 49.02 3.5C49.1067 3.52667 49.18 3.58667 49.24 3.68C49.3 3.76667 49.33 3.91333 49.33 4.12ZM53.48 5.85V8.26C53.48 8.74667 53.5467 9.07333 53.68 9.24C53.8133 9.4 54.02 9.48 54.3 9.48C54.3267 9.56667 54.3467 9.65667 54.36 9.75C54.3667 9.84333 54.37 9.95333 54.37 10.08C54.1633 10.06 53.93 10.05 53.67 10.05C53.41 10.0433 53.1367 10.04 52.85 10.04C52.6633 10.04 52.4667 10.0433 52.26 10.05C52.0533 10.05 51.86 10.0533 51.68 10.06C51.4933 10.0667 51.3267 10.0733 51.18 10.08C51.18 9.95333 51.1833 9.84 51.19 9.74C51.2033 9.64 51.2233 9.55333 51.25 9.48C51.5833 9.48 51.83 9.39333 51.99 9.22C52.1433 9.04667 52.22 8.72667 52.22 8.26V6.13C52.22 5.47 52.0967 5.02 51.85 4.78C51.61 4.54667 51.2967 4.43 50.91 4.43C50.67 4.43 50.43 4.50667 50.19 4.66C49.9433 4.81333 49.74 5.06 49.58 5.4C49.4133 5.74 49.33 6.19333 49.33 6.76V8.26C49.33 8.72667 49.4 9.04667 49.54 9.22C49.68 9.39333 49.9333 9.48 50.3 9.48C50.3267 9.56667 50.3433 9.65667 50.35 9.75C50.3633 9.84333 50.37 9.95333 50.37 10.08C50.2367 10.0733 50.0767 10.0667 49.89 10.06C49.7033 10.0533 49.5067 10.05 49.3 10.05C49.1 10.0433 48.9 10.04 48.7 10.04C48.5133 10.04 48.3167 10.0433 48.11 10.05C47.91 10.05 47.7167 10.0533 47.53 10.06C47.3433 10.0667 47.18 10.0733 47.04 10.08C47.04 9.95333 47.0433 9.84 47.05 9.74C47.0567 9.64 47.0767 9.55333 47.11 9.48C47.47 9.48 47.72 9.39333 47.86 9.22C48 9.04667 48.07 8.72667 48.07 8.26V5.49L49.33 4.12C49.33 4.23333 49.3267 4.36 49.32 4.5C49.3067 4.64 49.2767 4.78667 49.23 4.94C49.2633 4.89333 49.2933 4.84 49.32 4.78C49.3467 4.72 49.3867 4.65333 49.44 4.58C49.6 4.36667 49.8567 4.14667 50.21 3.92C50.5567 3.68667 50.9767 3.57 51.47 3.57C51.83 3.57 52.16 3.64333 52.46 3.79C52.7667 3.93667 53.0133 4.17333 53.2 4.5C53.3867 4.83333 53.48 5.28333 53.48 5.85Z" fill="black"/>
</svg>
