<svg width="28" height="8" viewBox="0 0 28 8" fill="none" xmlns="http://www.w3.org/2000/svg">
<path d="M5.04 1.12C5.08 1.26667 5.1 1.45333 5.1 1.68C5.1 1.89333 5.08 2.08 5.04 2.24C5.08 2.38667 5.1 2.57333 5.1 2.8C5.1 3.01333 5.08 3.2 5.04 3.36H4.62C4.66 3.50667 4.68 3.69333 4.68 3.92C4.68 4.13333 4.66 4.32 4.62 4.48H4.2C4.24 4.62667 4.26 4.81333 4.26 5.04C4.26 5.25333 4.24 5.44 4.2 5.6H3.92C3.96 5.74667 3.98 5.93333 3.98 6.16C3.98 6.37333 3.96 6.56 3.92 6.72H3.36C3.4 6.86667 3.42 7.05333 3.42 7.28C3.42 7.49333 3.4 7.68 3.36 7.84H2.24C2.2 7.68 2.18 7.49333 2.18 7.28C2.18 7.05333 2.2 6.86667 2.24 6.72H1.68C1.64 6.56 1.62 6.37333 1.62 6.16C1.62 5.93333 1.64 5.74667 1.68 5.6H1.4C1.36 5.44 1.34 5.25333 1.34 5.04C1.34 4.81333 1.36 4.62667 1.4 4.48H0.98C0.94 4.32 0.92 4.13333 0.92 3.92C0.92 3.69333 0.94 3.50667 0.98 3.36H0.56C0.52 3.2 0.5 3.01333 0.5 2.8C0.5 2.57333 0.52 2.38667 0.56 2.24C0.52 2.08 0.5 1.89333 0.5 1.68C0.5 1.45333 0.52 1.26667 0.56 1.12C0.52 0.96 0.5 0.773334 0.5 0.56C0.5 0.333334 0.52 0.146667 0.56 0H1.68C1.72 0.146667 1.74 0.333334 1.74 0.56C1.74 0.773334 1.72 0.96 1.68 1.12C1.72 1.26667 1.74 1.45333 1.74 1.68C1.74 1.89333 1.72 2.08 1.68 2.24C1.72 2.38667 1.74 2.57333 1.74 2.8C1.74 3.01333 1.72 3.2 1.68 3.36H2.1C2.14 3.50667 2.16 3.69333 2.16 3.92C2.16 4.13333 2.14 4.32 2.1 4.48H2.52C2.56 4.62667 2.58 4.81333 2.58 5.04C2.58 5.25333 2.56 5.44 2.52 5.6H3.08C3.04 5.44 3.02 5.25333 3.02 5.04C3.02 4.81333 3.04 4.62667 3.08 4.48H3.5C3.46 4.32 3.44 4.13333 3.44 3.92C3.44 3.69333 3.46 3.50667 3.5 3.36H3.92C3.88 3.2 3.86 3.01333 3.86 2.8C3.86 2.57333 3.88 2.38667 3.92 2.24C3.88 2.08 3.86 1.89333 3.86 1.68C3.86 1.45333 3.88 1.26667 3.92 1.12C3.88 0.96 3.86 0.773334 3.86 0.56C3.86 0.333334 3.88 0.146667 3.92 0H5.04C5.08 0.146667 5.1 0.333334 5.1 0.56C5.1 0.773334 5.08 0.96 5.04 1.12ZM10.7 0.56C10.7 0.773334 10.68 0.96 10.64 1.12H8.96C9 1.26667 9.02 1.45333 9.02 1.68C9.02 1.89333 9 2.08 8.96 2.24C9 2.38667 9.02 2.57333 9.02 2.8C9.02 3.01333 9 3.2 8.96 3.36C9 3.50667 9.02 3.69333 9.02 3.92C9.02 4.13333 9 4.32 8.96 4.48C9 4.62667 9.02 4.81333 9.02 5.04C9.02 5.25333 9 5.44 8.96 5.6C9 5.74667 9.02 5.93333 9.02 6.16C9.02 6.37333 9 6.56 8.96 6.72C9 6.86667 9.02 7.05333 9.02 7.28C9.02 7.49333 9 7.68 8.96 7.84H7.84C7.8 7.68 7.78 7.49333 7.78 7.28C7.78 7.05333 7.8 6.86667 7.84 6.72C7.8 6.56 7.78 6.37333 7.78 6.16C7.78 5.93333 7.8 5.74667 7.84 5.6C7.8 5.44 7.78 5.25333 7.78 5.04C7.78 4.81333 7.8 4.62667 7.84 4.48C7.8 4.32 7.78 4.13333 7.78 3.92C7.78 3.69333 7.8 3.50667 7.84 3.36C7.8 3.2 7.78 3.01333 7.78 2.8C7.78 2.57333 7.8 2.38667 7.84 2.24C7.8 2.08 7.78 1.89333 7.78 1.68C7.78 1.45333 7.8 1.26667 7.84 1.12H6.16C6.12 0.96 6.1 0.773334 6.1 0.56C6.1 0.333334 6.12 0.146667 6.16 0H10.64C10.68 0.146667 10.7 0.333334 10.7 0.56ZM16.02 2.8C16.02 3.01333 16 3.2 15.96 3.36H15.4C15.44 3.50667 15.46 3.69333 15.46 3.92C15.46 4.13333 15.44 4.32 15.4 4.48H15.96C16 4.62667 16.02 4.81333 16.02 5.04C16.02 5.25333 16 5.44 15.96 5.6C16 5.74667 16.02 5.93333 16.02 6.16C16.02 6.37333 16 6.56 15.96 6.72H15.4C15.44 6.86667 15.46 7.05333 15.46 7.28C15.46 7.49333 15.44 7.68 15.4 7.84H12.6C12.56 7.68 12.54 7.49333 12.54 7.28C12.54 7.05333 12.56 6.86667 12.6 6.72H12.04C12 6.56 11.98 6.37333 11.98 6.16C11.98 5.93333 12 5.74667 12.04 5.6H13.16C13.2 5.74667 13.22 5.93333 13.22 6.16C13.22 6.37333 13.2 6.56 13.16 6.72H14.84C14.8 6.56 14.78 6.37333 14.78 6.16C14.78 5.93333 14.8 5.74667 14.84 5.6C14.8 5.44 14.78 5.25333 14.78 5.04C14.78 4.81333 14.8 4.62667 14.84 4.48H13.44C13.4 4.32 13.38 4.13333 13.38 3.92C13.38 3.69333 13.4 3.50667 13.44 3.36H14.84C14.8 3.2 14.78 3.01333 14.78 2.8C14.78 2.57333 14.8 2.38667 14.84 2.24C14.8 2.08 14.78 1.89333 14.78 1.68C14.78 1.45333 14.8 1.26667 14.84 1.12H13.16C13.2 1.26667 13.22 1.45333 13.22 1.68C13.22 1.89333 13.2 2.08 13.16 2.24H12.04C12 2.08 11.98 1.89333 11.98 1.68C11.98 1.45333 12 1.26667 12.04 1.12H12.6C12.56 0.96 12.54 0.773334 12.54 0.56C12.54 0.333334 12.56 0.146667 12.6 0H15.4C15.44 0.146667 15.46 0.333334 15.46 0.56C15.46 0.773334 15.44 0.96 15.4 1.12H15.96C16 1.26667 16.02 1.45333 16.02 1.68C16.02 1.89333 16 2.08 15.96 2.24C16 2.38667 16.02 2.57333 16.02 2.8ZM21.62 2.8C21.62 3.01333 21.6 3.2 21.56 3.36H20.86C20.9 3.50667 20.92 3.69333 20.92 3.92C20.92 4.13333 20.9 4.32 20.86 4.48H20.16C20.2 4.62667 20.22 4.81333 20.22 5.04C20.22 5.25333 20.2 5.44 20.16 5.6H19.46C19.5 5.74667 19.52 5.93333 19.52 6.16C19.52 6.37333 19.5 6.56 19.46 6.72H21.56C21.6 6.86667 21.62 7.05333 21.62 7.28C21.62 7.49333 21.6 7.68 21.56 7.84H17.64C17.6 7.68 17.58 7.49333 17.58 7.28C17.58 7.05333 17.6 6.86667 17.64 6.72H18.34C18.3 6.56 18.28 6.37333 18.28 6.16C18.28 5.93333 18.3 5.74667 18.34 5.6H19.04C19 5.44 18.98 5.25333 18.98 5.04C18.98 4.81333 19 4.62667 19.04 4.48H19.74C19.7 4.32 19.68 4.13333 19.68 3.92C19.68 3.69333 19.7 3.50667 19.74 3.36H20.44C20.4 3.2 20.38 3.01333 20.38 2.8C20.38 2.57333 20.4 2.38667 20.44 2.24C20.4 2.08 20.38 1.89333 20.38 1.68C20.38 1.45333 20.4 1.26667 20.44 1.12H18.48C18.52 1.26667 18.54 1.45333 18.54 1.68C18.54 1.89333 18.52 2.08 18.48 2.24H17.64C17.6 2.08 17.58 1.89333 17.58 1.68C17.58 1.45333 17.6 1.26667 17.64 1.12H18.2C18.16 0.96 18.14 0.773334 18.14 0.56C18.14 0.333334 18.16 0.146667 18.2 0H21C21.04 0.146667 21.06 0.333334 21.06 0.56C21.06 0.773334 21.04 0.96 21 1.12H21.56C21.6 1.26667 21.62 1.45333 21.62 1.68C21.62 1.89333 21.6 2.08 21.56 2.24C21.6 2.38667 21.62 2.57333 21.62 2.8ZM27.22 2.8C27.22 3.01333 27.2 3.2 27.16 3.36H26.6C26.64 3.50667 26.66 3.69333 26.66 3.92C26.66 4.13333 26.64 4.32 26.6 4.48H27.16C27.2 4.62667 27.22 4.81333 27.22 5.04C27.22 5.25333 27.2 5.44 27.16 5.6C27.2 5.74667 27.22 5.93333 27.22 6.16C27.22 6.37333 27.2 6.56 27.16 6.72H26.6C26.64 6.86667 26.66 7.05333 26.66 7.28C26.66 7.49333 26.64 7.68 26.6 7.84H23.8C23.76 7.68 23.74 7.49333 23.74 7.28C23.74 7.05333 23.76 6.86667 23.8 6.72H23.24C23.2 6.56 23.18 6.37333 23.18 6.16C23.18 5.93333 23.2 5.74667 23.24 5.6H24.36C24.4 5.74667 24.42 5.93333 24.42 6.16C24.42 6.37333 24.4 6.56 24.36 6.72H26.04C26 6.56 25.98 6.37333 25.98 6.16C25.98 5.93333 26 5.74667 26.04 5.6C26 5.44 25.98 5.25333 25.98 5.04C25.98 4.81333 26 4.62667 26.04 4.48H24.64C24.6 4.32 24.58 4.13333 24.58 3.92C24.58 3.69333 24.6 3.50667 24.64 3.36H26.04C26 3.2 25.98 3.01333 25.98 2.8C25.98 2.57333 26 2.38667 26.04 2.24C26 2.08 25.98 1.89333 25.98 1.68C25.98 1.45333 26 1.26667 26.04 1.12H24.36C24.4 1.26667 24.42 1.45333 24.42 1.68C24.42 1.89333 24.4 2.08 24.36 2.24H23.24C23.2 2.08 23.18 1.89333 23.18 1.68C23.18 1.45333 23.2 1.26667 23.24 1.12H23.8C23.76 0.96 23.74 0.773334 23.74 0.56C23.74 0.333334 23.76 0.146667 23.8 0H26.6C26.64 0.146667 26.66 0.333334 26.66 0.56C26.66 0.773334 26.64 0.96 26.6 1.12H27.16C27.2 1.26667 27.22 1.45333 27.22 1.68C27.22 1.89333 27.2 2.08 27.16 2.24C27.2 2.38667 27.22 2.57333 27.22 2.8Z" fill="black"/>
</svg>
