<?xml version="1.0" encoding="utf-8" ?>
<svg baseProfile="tiny" height="100%" version="1.2" width="100%" xmlns="http://www.w3.org/2000/svg" xmlns:ev="http://www.w3.org/2001/xml-events" xmlns:xlink="http://www.w3.org/1999/xlink"><defs /><g><path d="M26 14H102Q124 14 138.5 29.0Q153 44 153.0 64.0Q153 84 138.5 99.0Q124 114 102 114H26Q4 114 -10.5 99.0Q-25 84 -25.0 64.0Q-25 44 -10.5 29.0Q4 14 26 14ZM346 14H422Q444 14 458.5 29.0Q473 44 473.0 64.0Q473 84 458.5 99.0Q444 114 422 114H346Q324 114 309.5 99.0Q295 84 295.0 64.0Q295 44 309.5 29.0Q324 14 346 14ZM26 142H166Q188 142 202.5 157.0Q217 172 217.0 192.0Q217 212 202.5 227.0Q188 242 166 242H26Q4 242 -10.5 227.0Q-25 212 -25.0 192.0Q-25 172 -10.5 157.0Q4 142 26 142ZM282 142H422Q444 142 458.5 157.0Q473 172 473.0 192.0Q473 212 458.5 227.0Q444 242 422 242H282Q260 242 245.5 227.0Q231 212 231.0 192.0Q231 172 245.5 157.0Q260 142 282 142ZM35 270H413Q441 270 457.0 285.0Q473 300 473.0 320.0Q473 340 457.0 355.0Q441 370 413 370H35Q7 370 -9.0 355.0Q-25 340 -25.0 320.0Q-25 300 -9.0 285.0Q7 270 35 270ZM26 398H102Q124 398 138.5 413.0Q153 428 153.0 448.0Q153 468 138.5 483.0Q124 498 102 498H26Q4 498 -10.5 483.0Q-25 468 -25.0 448.0Q-25 428 -10.5 413.0Q4 398 26 398ZM207 398H241Q258 398 269.5 413.0Q281 428 281.0 448.0Q281 468 269.5 483.0Q258 498 241 498H207Q190 498 178.5 483.0Q167 468 167.0 448.0Q167 428 178.5 413.0Q190 398 207 398ZM346 398H422Q444 398 458.5 413.0Q473 428 473.0 448.0Q473 468 458.5 483.0Q444 498 422 498H346Q324 498 309.5 483.0Q295 468 295.0 448.0Q295 428 309.5 413.0Q324 398 346 398ZM26 526H102Q124 526 138.5 541.0Q153 556 153.0 576.0Q153 596 138.5 611.0Q124 626 102 626H26Q4 626 -10.5 611.0Q-25 596 -25.0 576.0Q-25 556 -10.5 541.0Q4 526 26 526ZM346 526H422Q444 526 458.5 541.0Q473 556 473.0 576.0Q473 596 458.5 611.0Q444 626 422 626H346Q324 626 309.5 611.0Q295 596 295.0 576.0Q295 556 309.5 541.0Q324 526 346 526ZM26 654H102Q124 654 138.5 669.0Q153 684 153.0 704.0Q153 724 138.5 739.0Q124 754 102 754H26Q4 754 -10.5 739.0Q-25 724 -25.0 704.0Q-25 684 -10.5 669.0Q4 654 26 654ZM346 654H422Q444 654 458.5 669.0Q473 684 473.0 704.0Q473 724 458.5 739.0Q444 754 422 754H346Q324 754 309.5 739.0Q295 724 295.0 704.0Q295 684 309.5 669.0Q324 654 346 654ZM26 782H102Q124 782 138.5 797.0Q153 812 153.0 832.0Q153 852 138.5 867.0Q124 882 102 882H26Q4 882 -10.5 867.0Q-25 852 -25.0 832.0Q-25 812 -10.5 797.0Q4 782 26 782ZM346 782H422Q444 782 458.5 797.0Q473 812 473.0 832.0Q473 852 458.5 867.0Q444 882 422 882H346Q324 882 309.5 867.0Q295 852 295.0 832.0Q295 812 309.5 797.0Q324 782 346 782Z" transform="translate(0.0, 72) scale(0.0703125, -0.0703125)" /><path d="M163 14H349Q377 14 393.0 29.0Q409 44 409.0 64.0Q409 84 393.0 99.0Q377 114 349 114H163Q135 114 119.0 99.0Q103 84 103.0 64.0Q103 44 119.0 29.0Q135 14 163 14ZM90 142H166Q188 142 202.5 157.0Q217 172 217.0 192.0Q217 212 202.5 227.0Q188 242 166 242H90Q68 242 53.5 227.0Q39 212 39.0 192.0Q39 172 53.5 157.0Q68 142 90 142ZM346 142H422Q444 142 458.5 157.0Q473 172 473.0 192.0Q473 212 458.5 227.0Q444 242 422 242H346Q324 242 309.5 227.0Q295 212 295.0 192.0Q295 172 309.5 157.0Q324 142 346 142ZM90 270H166Q188 270 202.5 285.0Q217 300 217.0 320.0Q217 340 202.5 355.0Q188 370 166 370H90Q68 370 53.5 355.0Q39 340 39.0 320.0Q39 300 53.5 285.0Q68 270 90 270ZM346 270H422Q444 270 458.5 285.0Q473 300 473.0 320.0Q473 340 458.5 355.0Q444 370 422 370H346Q324 370 309.5 355.0Q295 340 295.0 320.0Q295 300 309.5 285.0Q324 270 346 270ZM90 398H166Q188 398 202.5 413.0Q217 428 217.0 448.0Q217 468 202.5 483.0Q188 498 166 498H90Q68 498 53.5 483.0Q39 468 39.0 448.0Q39 428 53.5 413.0Q68 398 90 398ZM346 398H422Q444 398 458.5 413.0Q473 428 473.0 448.0Q473 468 458.5 483.0Q444 498 422 498H346Q324 498 309.5 483.0Q295 468 295.0 448.0Q295 428 309.5 413.0Q324 398 346 398ZM163 526H349Q377 526 393.0 541.0Q409 556 409.0 576.0Q409 596 393.0 611.0Q377 626 349 626H163Q135 626 119.0 611.0Q103 596 103.0 576.0Q103 556 119.0 541.0Q135 526 163 526Z" transform="translate(36.0, 72) scale(0.0703125, -0.0703125)" /><path d="M35 14H221Q249 14 265.0 29.0Q281 44 281.0 64.0Q281 84 265.0 99.0Q249 114 221 114H35Q7 114 -9.0 99.0Q-25 84 -25.0 64.0Q-25 44 -9.0 29.0Q7 14 35 14ZM90 142H166Q188 142 202.5 157.0Q217 172 217.0 192.0Q217 212 202.5 227.0Q188 242 166 242H90Q68 242 53.5 227.0Q39 212 39.0 192.0Q39 172 53.5 157.0Q68 142 90 142ZM90 270H166Q188 270 202.5 285.0Q217 300 217.0 320.0Q217 340 202.5 355.0Q188 370 166 370H90Q68 370 53.5 355.0Q39 340 39.0 320.0Q39 300 53.5 285.0Q68 270 90 270ZM346 270H422Q444 270 458.5 285.0Q473 300 473.0 320.0Q473 340 458.5 355.0Q444 370 422 370H346Q324 370 309.5 355.0Q295 340 295.0 320.0Q295 300 309.5 285.0Q324 270 346 270ZM90 398H230Q252 398 266.5 413.0Q281 428 281.0 448.0Q281 468 266.5 483.0Q252 498 230 498H90Q68 498 53.5 483.0Q39 468 39.0 448.0Q39 428 53.5 413.0Q68 398 90 398ZM346 398H422Q444 398 458.5 413.0Q473 428 473.0 448.0Q473 468 458.5 483.0Q444 498 422 498H346Q324 498 309.5 483.0Q295 468 295.0 448.0Q295 428 309.5 413.0Q324 398 346 398ZM26 526H166Q188 526 202.5 541.0Q217 556 217.0 576.0Q217 596 202.5 611.0Q188 626 166 626H26Q4 626 -10.5 611.0Q-25 596 -25.0 576.0Q-25 556 -10.5 541.0Q4 526 26 526ZM282 526H358Q380 526 394.5 541.0Q409 556 409.0 576.0Q409 596 394.5 611.0Q380 626 358 626H282Q260 626 245.5 611.0Q231 596 231.0 576.0Q231 556 245.5 541.0Q260 526 282 526Z" transform="translate(72.0, 72) scale(0.0703125, -0.0703125)" /><path d="M26 14H166Q188 14 202.5 29.0Q217 44 217.0 64.0Q217 84 202.5 99.0Q188 114 166 114H26Q4 114 -10.5 99.0Q-25 84 -25.0 64.0Q-25 44 -10.5 29.0Q4 14 26 14ZM346 14H422Q444 14 458.5 29.0Q473 44 473.0 64.0Q473 84 458.5 99.0Q444 114 422 114H346Q324 114 309.5 99.0Q295 84 295.0 64.0Q295 44 309.5 29.0Q324 14 346 14ZM90 142H166Q188 142 202.5 157.0Q217 172 217.0 192.0Q217 212 202.5 227.0Q188 242 166 242H90Q68 242 53.5 227.0Q39 212 39.0 192.0Q39 172 53.5 157.0Q68 142 90 142ZM282 142H358Q380 142 394.5 157.0Q409 172 409.0 192.0Q409 212 394.5 227.0Q380 242 358 242H282Q260 242 245.5 227.0Q231 212 231.0 192.0Q231 172 245.5 157.0Q260 142 282 142ZM99 270H285Q313 270 329.0 285.0Q345 300 345.0 320.0Q345 340 329.0 355.0Q313 370 285 370H99Q71 370 55.0 355.0Q39 340 39.0 320.0Q39 300 55.0 285.0Q71 270 99 270ZM90 398H166Q188 398 202.5 413.0Q217 428 217.0 448.0Q217 468 202.5 483.0Q188 498 166 498H90Q68 498 53.5 483.0Q39 468 39.0 448.0Q39 428 53.5 413.0Q68 398 90 398ZM282 398H358Q380 398 394.5 413.0Q409 428 409.0 448.0Q409 468 394.5 483.0Q380 498 358 498H282Q260 498 245.5 483.0Q231 468 231.0 448.0Q231 428 245.5 413.0Q260 398 282 398ZM90 526H166Q188 526 202.5 541.0Q217 556 217.0 576.0Q217 596 202.5 611.0Q188 626 166 626H90Q68 626 53.5 611.0Q39 596 39.0 576.0Q39 556 53.5 541.0Q68 526 90 526ZM346 526H422Q444 526 458.5 541.0Q473 556 473.0 576.0Q473 596 458.5 611.0Q444 626 422 626H346Q324 626 309.5 611.0Q295 596 295.0 576.0Q295 556 309.5 541.0Q324 526 346 526ZM90 654H166Q188 654 202.5 669.0Q217 684 217.0 704.0Q217 724 202.5 739.0Q188 754 166 754H90Q68 754 53.5 739.0Q39 724 39.0 704.0Q39 684 53.5 669.0Q68 654 90 654ZM26 782H166Q188 782 202.5 797.0Q217 812 217.0 832.0Q217 852 202.5 867.0Q188 882 166 882H26Q4 882 -10.5 867.0Q-25 852 -25.0 832.0Q-25 812 -10.5 797.0Q4 782 26 782Z" transform="translate(108.0, 72) scale(0.0703125, -0.0703125)" /><path d="M163 14H349Q377 14 393.0 29.0Q409 44 409.0 64.0Q409 84 393.0 99.0Q377 114 349 114H163Q135 114 119.0 99.0Q103 84 103.0 64.0Q103 44 119.0 29.0Q135 14 163 14ZM90 142H166Q188 142 202.5 157.0Q217 172 217.0 192.0Q217 212 202.5 227.0Q188 242 166 242H90Q68 242 53.5 227.0Q39 212 39.0 192.0Q39 172 53.5 157.0Q68 142 90 142ZM346 142H422Q444 142 458.5 157.0Q473 172 473.0 192.0Q473 212 458.5 227.0Q444 242 422 242H346Q324 242 309.5 227.0Q295 212 295.0 192.0Q295 172 309.5 157.0Q324 142 346 142ZM90 270H166Q188 270 202.5 285.0Q217 300 217.0 320.0Q217 340 202.5 355.0Q188 370 166 370H90Q68 370 53.5 355.0Q39 340 39.0 320.0Q39 300 53.5 285.0Q68 270 90 270ZM346 270H422Q444 270 458.5 285.0Q473 300 473.0 320.0Q473 340 458.5 355.0Q444 370 422 370H346Q324 370 309.5 355.0Q295 340 295.0 320.0Q295 300 309.5 285.0Q324 270 346 270ZM90 398H230Q252 398 266.5 413.0Q281 428 281.0 448.0Q281 468 266.5 483.0Q252 498 230 498H90Q68 498 53.5 483.0Q39 468 39.0 448.0Q39 428 53.5 413.0Q68 398 90 398ZM346 398H422Q444 398 458.5 413.0Q473 428 473.0 448.0Q473 468 458.5 483.0Q444 498 422 498H346Q324 498 309.5 483.0Q295 468 295.0 448.0Q295 428 309.5 413.0Q324 398 346 398ZM90 526H166Q188 526 202.5 541.0Q217 556 217.0 576.0Q217 596 202.5 611.0Q188 626 166 626H90Q68 626 53.5 611.0Q39 596 39.0 576.0Q39 556 53.5 541.0Q68 526 90 526ZM282 526H358Q380 526 394.5 541.0Q409 556 409.0 576.0Q409 596 394.5 611.0Q380 626 358 626H282Q260 626 245.5 611.0Q231 596 231.0 576.0Q231 556 245.5 541.0Q260 526 282 526ZM90 654H166Q188 654 202.5 669.0Q217 684 217.0 704.0Q217 724 202.5 739.0Q188 754 166 754H90Q68 754 53.5 739.0Q39 724 39.0 704.0Q39 684 53.5 669.0Q68 654 90 654ZM26 782H166Q188 782 202.5 797.0Q217 812 217.0 832.0Q217 852 202.5 867.0Q188 882 166 882H26Q4 882 -10.5 867.0Q-25 852 -25.0 832.0Q-25 812 -10.5 797.0Q4 782 26 782Z" transform="translate(144.0, 72) scale(0.0703125, -0.0703125)" /><path d="M163 14H349Q377 14 393.0 29.0Q409 44 409.0 64.0Q409 84 393.0 99.0Q377 114 349 114H163Q135 114 119.0 99.0Q103 84 103.0 64.0Q103 44 119.0 29.0Q135 14 163 14ZM90 142H166Q188 142 202.5 157.0Q217 172 217.0 192.0Q217 212 202.5 227.0Q188 242 166 242H90Q68 242 53.5 227.0Q39 212 39.0 192.0Q39 172 53.5 157.0Q68 142 90 142ZM99 270H413Q441 270 457.0 285.0Q473 300 473.0 320.0Q473 340 457.0 355.0Q441 370 413 370H99Q71 370 55.0 355.0Q39 340 39.0 320.0Q39 300 55.0 285.0Q71 270 99 270ZM90 398H166Q188 398 202.5 413.0Q217 428 217.0 448.0Q217 468 202.5 483.0Q188 498 166 498H90Q68 498 53.5 483.0Q39 468 39.0 448.0Q39 428 53.5 413.0Q68 398 90 398ZM346 398H422Q444 398 458.5 413.0Q473 428 473.0 448.0Q473 468 458.5 483.0Q444 498 422 498H346Q324 498 309.5 483.0Q295 468 295.0 448.0Q295 428 309.5 413.0Q324 398 346 398ZM163 526H349Q377 526 393.0 541.0Q409 556 409.0 576.0Q409 596 393.0 611.0Q377 626 349 626H163Q135 626 119.0 611.0Q103 596 103.0 576.0Q103 556 119.0 541.0Q135 526 163 526Z" transform="translate(180.0, 72) scale(0.0703125, -0.0703125)" /><path d="M90 14H166Q188 14 202.5 29.0Q217 44 217.0 64.0Q217 84 202.5 99.0Q188 114 166 114H90Q68 114 53.5 99.0Q39 84 39.0 64.0Q39 44 53.5 29.0Q68 14 90 14ZM346 14H422Q444 14 458.5 29.0Q473 44 473.0 64.0Q473 84 458.5 99.0Q444 114 422 114H346Q324 114 309.5 99.0Q295 84 295.0 64.0Q295 44 309.5 29.0Q324 14 346 14ZM90 142H166Q188 142 202.5 157.0Q217 172 217.0 192.0Q217 212 202.5 227.0Q188 242 166 242H90Q68 242 53.5 227.0Q39 212 39.0 192.0Q39 172 53.5 157.0Q68 142 90 142ZM346 142H422Q444 142 458.5 157.0Q473 172 473.0 192.0Q473 212 458.5 227.0Q444 242 422 242H346Q324 242 309.5 227.0Q295 212 295.0 192.0Q295 172 309.5 157.0Q324 142 346 142ZM90 270H166Q188 270 202.5 285.0Q217 300 217.0 320.0Q217 340 202.5 355.0Q188 370 166 370H90Q68 370 53.5 355.0Q39 340 39.0 320.0Q39 300 53.5 285.0Q68 270 90 270ZM346 270H422Q444 270 458.5 285.0Q473 300 473.0 320.0Q473 340 458.5 355.0Q444 370 422 370H346Q324 370 309.5 355.0Q295 340 295.0 320.0Q295 300 309.5 285.0Q324 270 346 270ZM90 398H166Q188 398 202.5 413.0Q217 428 217.0 448.0Q217 468 202.5 483.0Q188 498 166 498H90Q68 498 53.5 483.0Q39 468 39.0 448.0Q39 428 53.5 413.0Q68 398 90 398ZM346 398H422Q444 398 458.5 413.0Q473 428 473.0 448.0Q473 468 458.5 483.0Q444 498 422 498H346Q324 498 309.5 483.0Q295 468 295.0 448.0Q295 428 309.5 413.0Q324 398 346 398ZM99 526H349Q377 526 393.0 541.0Q409 556 409.0 576.0Q409 596 393.0 611.0Q377 626 349 626H99Q71 626 55.0 611.0Q39 596 39.0 576.0Q39 556 55.0 541.0Q71 526 99 526Z" transform="translate(216.0, 72) scale(0.0703125, -0.0703125)" /><path d="M163 14H349Q377 14 393.0 29.0Q409 44 409.0 64.0Q409 84 393.0 99.0Q377 114 349 114H163Q135 114 119.0 99.0Q103 84 103.0 64.0Q103 44 119.0 29.0Q135 14 163 14ZM90 142H166Q188 142 202.5 157.0Q217 172 217.0 192.0Q217 212 202.5 227.0Q188 242 166 242H90Q68 242 53.5 227.0Q39 212 39.0 192.0Q39 172 53.5 157.0Q68 142 90 142ZM346 142H422Q444 142 458.5 157.0Q473 172 473.0 192.0Q473 212 458.5 227.0Q444 242 422 242H346Q324 242 309.5 227.0Q295 212 295.0 192.0Q295 172 309.5 157.0Q324 142 346 142ZM90 270H166Q188 270 202.5 285.0Q217 300 217.0 320.0Q217 340 202.5 355.0Q188 370 166 370H90Q68 370 53.5 355.0Q39 340 39.0 320.0Q39 300 53.5 285.0Q68 270 90 270ZM90 398H166Q188 398 202.5 413.0Q217 428 217.0 448.0Q217 468 202.5 483.0Q188 498 166 498H90Q68 498 53.5 483.0Q39 468 39.0 448.0Q39 428 53.5 413.0Q68 398 90 398ZM346 398H422Q444 398 458.5 413.0Q473 428 473.0 448.0Q473 468 458.5 483.0Q444 498 422 498H346Q324 498 309.5 483.0Q295 468 295.0 448.0Q295 428 309.5 413.0Q324 398 346 398ZM163 526H349Q377 526 393.0 541.0Q409 556 409.0 576.0Q409 596 393.0 611.0Q377 626 349 626H163Q135 626 119.0 611.0Q103 596 103.0 576.0Q103 556 119.0 541.0Q135 526 163 526Z" transform="translate(252.0, 72) scale(0.0703125, -0.0703125)" /><path d="M26 14H166Q188 14 202.5 29.0Q217 44 217.0 64.0Q217 84 202.5 99.0Q188 114 166 114H26Q4 114 -10.5 99.0Q-25 84 -25.0 64.0Q-25 44 -10.5 29.0Q4 14 26 14ZM346 14H422Q444 14 458.5 29.0Q473 44 473.0 64.0Q473 84 458.5 99.0Q444 114 422 114H346Q324 114 309.5 99.0Q295 84 295.0 64.0Q295 44 309.5 29.0Q324 14 346 14ZM90 142H166Q188 142 202.5 157.0Q217 172 217.0 192.0Q217 212 202.5 227.0Q188 242 166 242H90Q68 242 53.5 227.0Q39 212 39.0 192.0Q39 172 53.5 157.0Q68 142 90 142ZM346 142H422Q444 142 458.5 157.0Q473 172 473.0 192.0Q473 212 458.5 227.0Q444 242 422 242H346Q324 242 309.5 227.0Q295 212 295.0 192.0Q295 172 309.5 157.0Q324 142 346 142ZM90 270H166Q188 270 202.5 285.0Q217 300 217.0 320.0Q217 340 202.5 355.0Q188 370 166 370H90Q68 370 53.5 355.0Q39 340 39.0 320.0Q39 300 53.5 285.0Q68 270 90 270ZM346 270H422Q444 270 458.5 285.0Q473 300 473.0 320.0Q473 340 458.5 355.0Q444 370 422 370H346Q324 370 309.5 355.0Q295 340 295.0 320.0Q295 300 309.5 285.0Q324 270 346 270ZM90 398H230Q252 398 266.5 413.0Q281 428 281.0 448.0Q281 468 266.5 483.0Q252 498 230 498H90Q68 498 53.5 483.0Q39 468 39.0 448.0Q39 428 53.5 413.0Q68 398 90 398ZM346 398H422Q444 398 458.5 413.0Q473 428 473.0 448.0Q473 468 458.5 483.0Q444 498 422 498H346Q324 498 309.5 483.0Q295 468 295.0 448.0Q295 428 309.5 413.0Q324 398 346 398ZM90 526H166Q188 526 202.5 541.0Q217 556 217.0 576.0Q217 596 202.5 611.0Q188 626 166 626H90Q68 626 53.5 611.0Q39 596 39.0 576.0Q39 556 53.5 541.0Q68 526 90 526ZM282 526H358Q380 526 394.5 541.0Q409 556 409.0 576.0Q409 596 394.5 611.0Q380 626 358 626H282Q260 626 245.5 611.0Q231 596 231.0 576.0Q231 556 245.5 541.0Q260 526 282 526ZM90 654H166Q188 654 202.5 669.0Q217 684 217.0 704.0Q217 724 202.5 739.0Q188 754 166 754H90Q68 754 53.5 739.0Q39 724 39.0 704.0Q39 684 53.5 669.0Q68 654 90 654ZM26 782H166Q188 782 202.5 797.0Q217 812 217.0 832.0Q217 852 202.5 867.0Q188 882 166 882H26Q4 882 -10.5 867.0Q-25 852 -25.0 832.0Q-25 812 -10.5 797.0Q4 782 26 782Z" transform="translate(288.0, 72) scale(0.0703125, -0.0703125)" /></g></svg>