<svg width="63" height="16.66" viewBox="0 0 63 16.66" xmlns="http://www.w3.org/2000/svg"><path transform="translate(0 13.58) scale(.014 -.014)" d="M16 0V34H87L213 363L81 706H10V740H223V706H153L254 443L355 706H300V740H458V706H387L270 402L412 34H483V0H263V34H340L229 321L119 34H179V0Z"/><path transform="translate(7 13.58) scale(.014 -.014)" d="m184-10q-55 0-86.5 33.5t-31.5 81.5q0 45 22.5 74.5t56.5 49.5 67 35l102 47v97q0 49-31 77t-78 28q-43 0-71-21t-39-41q23-24 34.5-38t11.5-33q0-17-11.5-32t-34.5-15q-22 0-34.5 15.5t-12.5 38.5 11.5 50.5 35 53.5 59.5 42.5 85 16.5q53 0 84.5-21t45-53.5 13.5-67.5v-324q0-42 29-42 19 0 30 15.5t15 30.5l18-6q-3-20-14-41.5t-29.5-36-45.5-14.5q-30 0-50.5 20t-20.5 62q-8-18-26-37t-44-32-60-13zm-57 138q0-39 24-66.5t64-27.5q26 0 46.5 11.5t34 27.5 18.5 31v183l-95-47q-23-11-44-24.5t-34.5-33.5-13.5-54z"/><path transform="translate(14 13.58) scale(.014 -.014)" d="m14 0v28l84 8v452h-102v24l102 13 44 25h24v-81h3q8 18 25 36.5t43 31.5 60 13q49 0 77.5-30.5t28.5-89.5v-396h84v-34h-152v424q0 80-70 80-28 0-48.5-13t-33-32.5-17.5-37.5v-385l99-8v-28z"/><path transform="translate(21 13.58) scale(.014 -.014)" d="m14 0v34h84v654h-102v24l102 13 44 25h24v-281h3q8 18 25 36.5t43 31.5 60 13q49 0 77.5-30.5t28.5-89.5v-396h84v-34h-152v424q0 80-70 80-28 0-48.5-13t-33-32.5-17.5-37.5v-387h59v-1h40v-33z"/><path transform="translate(35 13.58) scale(.014 -.014)" d="M1 0V34H61V706H1V740H99L244 116L389 740H502V706H438V34H502V0H316V34H370V526L248 0H217L95 526V34H159V0Z"/><path transform="translate(42 13.58) scale(.014 -.014)" d="m250-10q-50 0-87 23.5t-61.5 64-36.5 90.5-12 102q0 53 12 102.5t36.5 90 61.5 64 87 23.5 87-23.5 61.5-64 36.5-90 12-102.5q0-52-12-102t-36.5-90.5-61.5-64-87-23.5zm0 32q63 0 95 52.5t32 145.5v100q0 93-32 145.5t-95 52.5-95-52.5-32-145.5v-100q0-93 32-145.5t95-52.5z"/><path transform="translate(49 13.58) scale(.014 -.014)" d="m14 0v28l84 8v452h-102v24l102 13 44 25h24v-81h3q8 18 25 36.5t43 31.5 60 13q49 0 77.5-30.5t28.5-89.5v-396h84v-34h-152v424q0 80-70 80-28 0-48.5-13t-33-32.5-17.5-37.5v-385l99-8v-28z"/><path transform="translate(56 13.58) scale(.014 -.014)" d="m250-10q-50 0-87 23.5t-61.5 64-36.5 90.5-12 102q0 53 12 102.5t36.5 90 61.5 64 87 23.5 87-23.5 61.5-64 36.5-90 12-102.5q0-52-12-102t-36.5-90.5-61.5-64-87-23.5zm0 32q63 0 95 52.5t32 145.5v100q0 93-32 145.5t-95 52.5-95-52.5-32-145.5v-100q0-93 32-145.5t95-52.5z"/></svg>