<?xml version="1.0" encoding="utf-8" ?>
<svg baseProfile="tiny" height="100%" version="1.2" width="100%" xmlns="http://www.w3.org/2000/svg" xmlns:ev="http://www.w3.org/2001/xml-events" xmlns:xlink="http://www.w3.org/1999/xlink"><defs /><g><path d="M325 260H390V195H325ZM325 195H390V130H325ZM390 195H455V130H390ZM390 260H455V195H390ZM390 325H455V260H390ZM325 325H390V260H325ZM455 260H520V195H455ZM455 195H520V130H455ZM455 130H520V65H455ZM390 130H455V65H390ZM455 390H520V325H455ZM455 455H520V390H455ZM520 455H585V390H520ZM585 455H650V390H585ZM585 390H650V325H585ZM520 390H585V325H520ZM520 520H585V455H520ZM585 520H650V455H585ZM650 520H715V455H650ZM650 455H715V390H650ZM390 520H455V455H390ZM325 520H390V455H325ZM325 585H390V520H325ZM325 650H390V585H325ZM390 650H455V585H390ZM390 585H455V520H390ZM260 585H325V520H260ZM260 650H325V585H260ZM260 715H325V650H260ZM325 715H390V650H325ZM260 455H325V390H260ZM260 390H325V325H260ZM195 390H260V325H195ZM130 390H195V325H130ZM130 455H195V390H130ZM195 455H260V390H195ZM195 325H260V260H195ZM130 325H195V260H130ZM65 325H130V260H65ZM65 390H130V325H65Z" transform="translate(0.0, 72) scale(0.06923076923076923, -0.06923076923076923)" /><path d="M390 390H455V325H390ZM325 455H390V390H325ZM260 585H325V520H260ZM195 520H260V455H195ZM325 325H390V260H325ZM195 260H260V195H195ZM260 195H325V130H260ZM455 325H520V260H455ZM520 195H585V130H520ZM585 260H650V195H585ZM455 455H520V390H455ZM520 585H585V520H520ZM585 520H650V455H585ZM325 130H390V65H325ZM455 130H520V65H455ZM650 455H715V390H650ZM650 325H715V260H650ZM715 325H780V260H715ZM715 455H780V390H715ZM325 715H390V650H325ZM325 650H390V585H325ZM455 650H520V585H455ZM455 715H520V650H455ZM65 455H130V390H65ZM130 455H195V390H130ZM130 325H195V260H130ZM65 325H130V260H65ZM260 715H325V650H260ZM195 650H260V585H195ZM65 520H130V455H65ZM130 585H195V520H130ZM520 715H585V650H520ZM585 650H650V585H585ZM650 585H715V520H650ZM715 520H780V455H715ZM650 195H715V130H650ZM715 260H780V195H715ZM585 130H650V65H585ZM520 65H585V0H520ZM195 130H260V65H195ZM260 65H325V0H260ZM65 260H130V195H65ZM130 195H195V130H130ZM455 65H520V0H455ZM325 65H390V0H325ZM195 390H260V325H195ZM585 390H650V325H585ZM390 585H455V520H390ZM390 195H455V130H390ZM195 585H260V520H195ZM585 585H650V520H585ZM585 195H650V130H585ZM195 195H260V130H195ZM130 130H195V65H130ZM650 130H715V65H650ZM650 650H715V585H650ZM130 650H195V585H130Z" transform="translate(54.0, 72) scale(0.06923076923076923, -0.06923076923076923)" /><path d="M65 390H130V325H65ZM130 455H195V390H130ZM130 390H195V325H130ZM130 325H195V260H130ZM260 390H325V325H260ZM650 390H715V325H650ZM520 390H585V325H520ZM455 715V650H390V715ZM520 650V585H455V650ZM455 650V585H390V650ZM390 650V585H325V650ZM585 585V520H520V585ZM520 585V520H455V585ZM390 585V520H325V585ZM325 585V520H260V585ZM455 0H390V65H455ZM520 65H455V130H520ZM455 65H390V130H455ZM390 65H325V130H390ZM585 130H520V195H585ZM520 130H455V195H520ZM390 130H325V195H390ZM325 130H260V195H325ZM585 520H650V455H585ZM585 455H650V390H585ZM585 325H650V260H585ZM585 260H650V195H585ZM650 325H715V260H650ZM650 455H715V390H650ZM715 390H780V325H715ZM195 520H260V455H195ZM195 455H260V390H195ZM195 325H260V260H195ZM195 260H260V195H195ZM325 455H390V390H325ZM325 325H390V260H325ZM455 325H520V260H455ZM455 455H520V390H455ZM260 520H325V455H260ZM520 520H585V455H520ZM520 260H585V195H520ZM260 260H325V195H260ZM390 260H455V195H390ZM390 325H455V260H390ZM455 390H520V325H455ZM390 455H455V390H390ZM325 390H390V325H325ZM390 520H455V455H390Z" transform="translate(112.15384615384616, 72) scale(0.06923076923076923, -0.06923076923076923)" /><path d="M325 455H390V390H325ZM325 390H390V325H325ZM390 390H455V325H390ZM390 455H455V390H390ZM325 520H390V455H325ZM260 455H325V390H260ZM260 520H325V455H260ZM260 585H325V520H260ZM195 585H260V520H195ZM195 520H260V455H195ZM195 650H260V585H195ZM130 585H195V520H130ZM455 455H520V390H455ZM455 390H520V325H455ZM455 325H520V260H455ZM390 325H455V260H390ZM325 325H390V260H325ZM455 520H520V455H455ZM520 520H585V455H520ZM520 455H585V390H520ZM520 585H585V520H520ZM585 585H650V520H585ZM585 520H650V455H585ZM585 650H650V585H585ZM650 585H715V520H650ZM520 325H585V260H520ZM455 260H520V195H455ZM520 260H585V195H520ZM585 260H650V195H585ZM520 195H585V130H520ZM585 195H650V130H585ZM650 195H715V130H650ZM585 130H650V65H585ZM260 325H325V260H260ZM260 260H325V195H260ZM325 260H390V195H325ZM195 260H260V195H195ZM195 195H260V130H195ZM260 195H325V130H260ZM130 195H195V130H130ZM195 130H260V65H195ZM650 650H715V585H650ZM715 650H780V585H715ZM650 715H715V650H650ZM130 650H195V585H130ZM130 715H195V650H130ZM65 650H130V585H65ZM130 130H195V65H130ZM130 65H195V0H130ZM65 130H130V65H65ZM390 715H455V650H390ZM390 650H455V585H390ZM390 585H455V520H390ZM390 520H455V455H390ZM390 260H455V195H390ZM390 195H455V130H390ZM390 130H455V65H390ZM390 65H455V0H390ZM65 390H130V325H65ZM130 390H195V325H130ZM195 390H260V325H195ZM260 390H325V325H260ZM520 390H585V325H520ZM585 390H650V325H585ZM650 390H715V325H650ZM715 390H780V325H715ZM65 520H130V455H65ZM260 715H325V650H260ZM520 715H585V650H520ZM715 520H780V455H715ZM715 260H780V195H715ZM520 65H585V0H520ZM260 65H325V0H260ZM65 260H130V195H65ZM130 325H195V260H130ZM130 455H195V390H130ZM325 650H390V585H325ZM455 650H520V585H455ZM650 455H715V390H650ZM650 325H715V260H650ZM455 130H520V65H455ZM325 130H390V65H325ZM715 130H780V65H715ZM650 130H715V65H650ZM650 65H715V0H650Z" transform="translate(170.65384615384616, 72) scale(0.06923076923076923, -0.06923076923076923)" /><path d="M65 455H130V390H65ZM65 520H130V455H65ZM65 325H130V260H65ZM65 260H130V195H65ZM130 520H195V455H130ZM130 455H195V390H130ZM130 390H195V325H130ZM130 325H195V260H130ZM130 260H195V195H130ZM195 260H260V195H195ZM195 325H260V260H195ZM195 390H260V325H195ZM195 455H260V390H195ZM195 520H260V455H195ZM260 455H325V390H260ZM260 390H325V325H260ZM260 325H325V260H260ZM325 390H390V325H325ZM390 455H455V390H390ZM325 520H390V455H325ZM390 520H455V455H390ZM455 520H520V455H455ZM260 585H325V520H260ZM325 585H390V520H325ZM390 585H455V520H390ZM455 585H520V520H455ZM520 585H585V520H520ZM520 650H585V585H520ZM520 715H585V650H520ZM455 715H520V650H455ZM325 715H390V650H325ZM260 715H325V650H260ZM260 650H325V585H260ZM325 650H390V585H325ZM390 650H455V585H390ZM455 650H520V585H455ZM455 390H520V325H455ZM520 455H585V390H520ZM585 520H650V455H585ZM650 520H715V455H650ZM715 520H780V455H715ZM715 455H780V390H715ZM715 325H780V260H715ZM715 260H780V195H715ZM520 325H585V260H520ZM585 260H650V195H585ZM650 260H715V195H650ZM650 325H715V260H650ZM650 390H715V325H650ZM650 455H715V390H650ZM585 455H650V390H585ZM585 390H650V325H585ZM585 325H650V260H585ZM520 390H585V325H520ZM390 325H455V260H390ZM325 260H390V195H325ZM390 260H455V195H390ZM455 260H520V195H455ZM325 195H390V130H325ZM390 195H455V130H390ZM455 195H520V130H455ZM520 195H585V130H520ZM260 195H325V130H260ZM260 130H325V65H260ZM260 65H325V0H260ZM325 65H390V0H325ZM455 65H520V0H455ZM520 65H585V0H520ZM520 130H585V65H520ZM455 130H520V65H455ZM390 130H455V65H390ZM325 130H390V65H325Z" transform="translate(233.65384615384616, 72) scale(0.06923076923076923, -0.06923076923076923)" /><path d="M325 195H390V130H325ZM325 130H390V65H325ZM130 260H195V195H130ZM65 260H130V195H65ZM260 130H325V65H260ZM260 65H325V0H260ZM260 260H325V195H260ZM195 195H260V130H195ZM130 130H195V65H130ZM195 325H260V260H195ZM130 325H195V260H130ZM520 195V130H455V195ZM520 130V65H455V130ZM715 260V195H650V260ZM780 260V195H715V260ZM585 130V65H520V130ZM585 65V0H520V65ZM585 260V195H520V260ZM650 195V130H585V195ZM715 130V65H650V130ZM650 325V260H585V325ZM715 325V260H650V325ZM325 520V585H390V520ZM325 585V650H390V585ZM130 455V520H195V455ZM65 455V520H130V455ZM260 585V650H325V585ZM260 650V715H325V650ZM260 455V520H325V455ZM195 520V585H260V520ZM130 585V650H195V585ZM195 390V455H260V390ZM130 390V455H195V390ZM520 520H455V585H520ZM520 585H455V650H520ZM715 455H650V520H715ZM780 455H715V520H780ZM585 585H520V650H585ZM585 650H520V715H585ZM585 455H520V520H585ZM650 520H585V585H650ZM715 585H650V650H715ZM650 390H585V455H650ZM715 390H650V455H715ZM390 325H455V260H390ZM325 390H390V325H325ZM390 455H455V390H390ZM455 390H520V325H455Z" transform="translate(292.1538461538462, 72) scale(0.06923076923076923, -0.06923076923076923)" /><path d="M325 455H390V390H325ZM325 390H390V325H325ZM390 390H455V325H390ZM390 455H455V390H390ZM325 520H390V455H325ZM260 455H325V390H260ZM260 520H325V455H260ZM260 585H325V520H260ZM195 585H260V520H195ZM195 520H260V455H195ZM195 650H260V585H195ZM130 585H195V520H130ZM455 455H520V390H455ZM455 390H520V325H455ZM455 325H520V260H455ZM390 325H455V260H390ZM325 325H390V260H325ZM455 520H520V455H455ZM520 520H585V455H520ZM520 455H585V390H520ZM520 585H585V520H520ZM585 585H650V520H585ZM585 520H650V455H585ZM585 650H650V585H585ZM650 585H715V520H650ZM520 325H585V260H520ZM455 260H520V195H455ZM520 260H585V195H520ZM585 260H650V195H585ZM520 195H585V130H520ZM585 195H650V130H585ZM650 195H715V130H650ZM585 130H650V65H585ZM260 325H325V260H260ZM260 260H325V195H260ZM325 260H390V195H325ZM195 260H260V195H195ZM195 195H260V130H195ZM260 195H325V130H260ZM130 195H195V130H130ZM195 130H260V65H195ZM650 650H715V585H650ZM715 650H780V585H715ZM650 715H715V650H650ZM130 650H195V585H130ZM130 715H195V650H130ZM65 650H130V585H65ZM130 130H195V65H130ZM130 65H195V0H130ZM65 130H130V65H65ZM390 715H455V650H390ZM390 650H455V585H390ZM390 585H455V520H390ZM390 520H455V455H390ZM390 260H455V195H390ZM390 195H455V130H390ZM390 130H455V65H390ZM390 65H455V0H390ZM65 390H130V325H65ZM130 390H195V325H130ZM195 390H260V325H195ZM260 390H325V325H260ZM520 390H585V325H520ZM585 390H650V325H585ZM650 390H715V325H650ZM715 390H780V325H715ZM65 520H130V455H65ZM260 715H325V650H260ZM520 715H585V650H520ZM715 520H780V455H715ZM715 260H780V195H715ZM520 65H585V0H520ZM260 65H325V0H260ZM65 260H130V195H65ZM130 325H195V260H130ZM130 455H195V390H130ZM325 650H390V585H325ZM455 650H520V585H455ZM650 455H715V390H650ZM650 325H715V260H650ZM455 130H520V65H455ZM325 130H390V65H325ZM715 130H780V65H715ZM650 130H715V65H650ZM650 65H715V0H650Z" transform="translate(350.6538461538462, 72) scale(0.06923076923076923, -0.06923076923076923)" /><path d="M260 65H325V0H260ZM325 65H390V0H325ZM390 65H455V0H390ZM455 65H520V0H455ZM520 65H585V0H520ZM390 130H455V65H390ZM390 195H455V130H390ZM390 260H455V195H390ZM390 325H455V260H390ZM390 390H455V325H390ZM390 455H455V390H390ZM390 520H455V455H390ZM455 585H520V520H455ZM455 650H520V585H455ZM325 650H390V585H325ZM325 585H390V520H325ZM390 585H455V520H390ZM325 715H390V650H325ZM390 715H455V650H390ZM455 715H520V650H455ZM260 650H325V585H260ZM520 650H585V585H520ZM390 780H455V715H390ZM260 780H325V715H260ZM520 780H585V715H520ZM325 260H390V195H325ZM455 260H520V195H455ZM585 455H650V390H585ZM650 455H715V390H650ZM260 130H325V65H260ZM325 130H390V65H325ZM455 130H520V65H455ZM520 130H585V65H520ZM325 325H390V260H325ZM455 325H520V260H455ZM260 390H325V325H260ZM195 390H260V325H195ZM260 455H325V390H260ZM195 455H260V390H195ZM195 520H260V455H195ZM130 520H195V455H130ZM130 455H195V390H130ZM520 390H585V325H520ZM585 390H650V325H585ZM520 455H585V390H520ZM585 520H650V455H585ZM650 520H715V455H650Z" transform="translate(413.6538461538462, 72) scale(0.06923076923076923, -0.06923076923076923)" /><path d="M65 65H130V0H65ZM130 130H195V65H130ZM195 195H260V130H195ZM260 260H325V195H260ZM325 325H390V260H325ZM390 390H455V325H390ZM455 455H520V390H455ZM520 520H585V455H520ZM585 585H650V520H585ZM650 650H715V585H650ZM715 715H780V650H715ZM65 715H130V650H65ZM130 650H195V585H130ZM195 585H260V520H195ZM260 520H325V455H260ZM325 455H390V390H325ZM455 325H520V260H455ZM520 260H585V195H520ZM585 195H650V130H585ZM650 130H715V65H650ZM715 65H780V0H715ZM520 390H585V325H520ZM585 390H650V325H585ZM585 455H650V390H585ZM585 325H650V260H585ZM650 325H715V260H650ZM650 260H715V195H650ZM650 390H715V325H650ZM650 455H715V390H650ZM650 520H715V455H650ZM715 455H780V390H715ZM715 390H780V325H715ZM715 325H780V260H715ZM390 520H455V455H390ZM390 585H455V520H390ZM455 585H520V520H455ZM325 585H390V520H325ZM325 650H390V585H325ZM260 650H325V585H260ZM390 650H455V585H390ZM455 650H520V585H455ZM520 650H585V585H520ZM455 715H520V650H455ZM390 715H455V650H390ZM325 715H390V650H325ZM390 260H455V195H390ZM390 195H455V130H390ZM455 195H520V130H455ZM325 195H390V130H325ZM325 130H390V65H325ZM390 130H455V65H390ZM455 130H520V65H455ZM520 130H585V65H520ZM260 130H325V65H260ZM325 65H390V0H325ZM455 65H520V0H455ZM390 65H455V0H390ZM260 390H325V325H260ZM195 390H260V325H195ZM195 455H260V390H195ZM195 325H260V260H195ZM130 325H195V260H130ZM130 390H195V325H130ZM130 455H195V390H130ZM130 520H195V455H130ZM130 260H195V195H130ZM65 325H130V260H65ZM65 390H130V325H65ZM65 455H130V390H65Z" transform="translate(471.8076923076924, 72) scale(0.06923076923076923, -0.06923076923076923)" /><path d="M260 650H325V585H260ZM260 585H325V520H260ZM325 650H390V585H325ZM390 650H455V585H390ZM390 585H455V520H390ZM325 585H390V520H325ZM325 520H390V455H325ZM260 520H325V455H260ZM390 520H455V455H390ZM455 455H520V390H455ZM455 390H520V325H455ZM455 325H520V260H455ZM520 325H585V260H520ZM520 390H585V325H520ZM585 390H650V325H585ZM520 455H585V390H520ZM585 325H650V260H585ZM585 455H650V390H585ZM195 455H260V390H195ZM195 390H260V325H195ZM195 325H260V260H195ZM130 325H195V260H130ZM65 325H130V260H65ZM65 390H130V325H65ZM65 455H130V390H65ZM130 455H195V390H130ZM130 390H195V325H130ZM260 260H325V195H260ZM325 260H390V195H325ZM390 260H455V195H390ZM390 195H455V130H390ZM390 130H455V65H390ZM325 130H390V65H325ZM260 130H325V65H260ZM260 195H325V130H260ZM325 195H390V130H325Z" transform="translate(543.8076923076924, 72) scale(0.06923076923076923, -0.06923076923076923)" /><path d="M260 650H325V585H260ZM260 585H325V520H260ZM325 650H390V585H325ZM390 650H455V585H390ZM390 585H455V520H390ZM325 585H390V520H325ZM325 520H390V455H325ZM260 520H325V455H260ZM390 520H455V455H390ZM455 455H520V390H455ZM455 390H520V325H455ZM455 325H520V260H455ZM520 325H585V260H520ZM520 390H585V325H520ZM585 390H650V325H585ZM520 455H585V390H520ZM585 325H650V260H585ZM585 455H650V390H585ZM195 455H260V390H195ZM195 390H260V325H195ZM195 325H260V260H195ZM130 325H195V260H130ZM65 325H130V260H65ZM65 390H130V325H65ZM65 455H130V390H65ZM130 455H195V390H130ZM130 390H195V325H130ZM260 260H325V195H260ZM325 260H390V195H325ZM390 260H455V195H390ZM390 195H455V130H390ZM390 130H455V65H390ZM325 130H390V65H325ZM260 130H325V65H260ZM260 195H325V130H260ZM325 195H390V130H325ZM260 455H325V390H260ZM325 455H390V390H325ZM390 455H455V390H390ZM390 390H455V325H390ZM325 390H390V325H325ZM260 390H325V325H260ZM260 325H325V260H260ZM325 325H390V260H325ZM390 325H455V260H390Z" transform="translate(593.3076923076924, 72) scale(0.06923076923076923, -0.06923076923076923)" /></g></svg>