<svg width="122.5" height="14" viewBox="0 0 122.5 14" xmlns="http://www.w3.org/2000/svg"><path transform="translate(0 12.833) scale(.014583 -.014583)" d="m360 360h40v-40h-40zm40 0h40v-40h-40zm40 0h40v-40h-40zm0 40h40v-40h-40zm-40 0h40v-40h-40zm-40 0h40v-40h-40zm40 40h40v-40h-40zm40 0h40v-40h-40zm40 0h40v-40h-40zm0-40h40v-40h-40zm-160 40h40v-40h-40zm-40 0h40v-40h-40zm0 80h40v-40h-40zm40 0h40v-40h-40zm0-40h40v-40h-40zm-40 0h40v-40h-40zm-40 0h40v-40h-40zm0 40h40v-40h-40zm0 40h40v-40h-40zm40 0h40v-40h-40zm-40-160h40v-40h-40zm0-40h40v-40h-40zm-40 0h40v-40h-40zm-40 0h40v-40h-40zm0 40h40v-40h-40zm40 0h40v-40h-40zm0-80h40v-40h-40zm-40 0h40v-40h-40zm-40 0h40v-40h-40zm0 40h40v-40h-40zm160-40h40v-40h-40zm40 0h40v-40h-40zm0-40h40v-40h-40zm0-40h40v-40h-40zm-40 0h40v-40h-40zm0 40h40v-40h-40zm80 0h40v-40h-40zm0-40h40v-40h-40zm0-40h40v-40h-40zm-40 0h40v-40h-40zm0 360h40v-40h-40zm-40 40h40v-40h-40zm-40 0h40v-40h-40zm0 40h40v-40h-40zm-40-120h40v-40h-40zm0 40h40v-40h-40zm0 40h40v-40h-40zm0 40h40v-40h-40zm-80-240h40v-40h-40zm-40-80h40v-40h-40zm0 40h40v-40h-40zm440 40h40v-40h-40zm0 40h40v-40h-40zm-40-80h40v-40h-40zm-40 120h40v-40h-40zm40 0h40v-40h-40zm40 0h40v-40h-40zm40 0h40v-40h-40zm0-40h40v-40h-40zm-280-240h40v-40h-40zm40-40h40v-40h-40zm40 0h40v-40h-40zm40 80h40v-40h-40zm0-40h40v-40h-40zm0-40h40v-40h-40zm0-40h40v-40h-40zm-40 0h40v-40h-40zm-320 200h40v-40h-40zm0-40h40v-40h-40zm40 0h40v-40h-40zm40 0h40v-40h-40zm40 0h40v-40h-40z"/><path transform="translate(9.3333 12.833) scale(.014583 -.014583)" d="m240 760h40v-40h-40zm40 0h40v-40h-40zm40 0h40v-40h-40zm40 0h40v-40h-40zm-160-40h40v-40h-40zm40 0h40v-40h-40zm40 0h40v-40h-40zm40 0h40v-40h-40zm40 0h40v-40h-40zm80 0h40v-40h-40zm40 0h40v-40h-40zm40 0h40v-40h-40zm40 0h40v-40h-40zm-120 40h40v-40h-40zm40 0h40v-40h-40zm40 0h40v-40h-40zm40 0h40v-40h-40zm40-40h40v-40h-40zm0-40h40v-40h-40zm0-40h40v-40h-40zm-400 40h40v-40h-40zm0-40h40v-40h-40zm200 40h40v-40h-40zm-40 0h40v-40h-40zm-40 0h40v-40h-40zm-40 0h40v-40h-40zm-40 0h40v-40h-40zm200 0h40v-40h-40zm40 0h40v-40h-40zm40 0h40v-40h-40zm40 0h40v-40h-40zm-200-40h40v-40h-40zm0-40h40v-40h-40zm-40 40h40v-40h-40zm120-40h40v-40h-40zm0 40h40v-40h-40zm40 0h40v-40h-40zm-320-40h40v-40h-40zm-40 0h40v-40h-40zm-40 0h40v-40h-40zm80-40h40v-40h-40zm-40 0h40v-40h-40zm-40 0h40v-40h-40zm-40 0h40v-40h-40zm80-40h40v-40h-40zm-40 0h40v-40h-40zm-40 0h40v-40h-40zm0-40h40v-40h-40zm40 0h40v-40h-40zm40 0h40v-40h-40zm-80-40h40v-40h-40zm40 0h40v-40h-40zm0-80h40v-40h-40zm-40 0h40v-40h-40zm40-40h40v-40h-40zm-40 0h40v-40h-40zm0-40h40v-40h-40zm40 0h40v-40h-40zm40 120h40v-40h-40zm0 40h40v-40h-40zm0-120h40v-40h-40zm0-40h40v-40h-40zm0-40h40v-40h-40zm0 120h40v-40h-40zm40 80h40v-40h-40zm0-80h40v-40h-40zm0-40h40v-40h-40zm0 160h40v-40h-40zm40-40h40v-40h-40zm0-80h40v-40h-40zm-40-120h40v-40h-40zm40 320h40v-40h-40zm40 80h40v-40h-40zm0-40h40v-40h-40zm0-40h40v-40h-40zm40 0h40v-40h-40zm0-40h40v-40h-40zm-40 0h40v-40h-40zm80-40h40v-40h-40zm40-40h40v-40h-40zm0-40h40v-40h-40zm0-40h40v-40h-40zm40 0h40v-40h-40zm40 0h40v-40h-40zm0 40h40v-40h-40zm0 40h40v-40h-40zm-40 0h40v-40h-40zm0-40h40v-40h-40zm80 80h40v-40h-40zm0-160h40v-40h-40zm-160 0h40v-40h-40zm80 0h40v-40h-40zm0 160h40v-40h-40zm80-80h40v-40h-40zm-160 0h40v-40h-40zm480 160v-40h-40v40zm0-40v-40h-40v40zm0-40v-40h-40v40zm0-40v-40h-40v40zm-40 160v-40h-40v40zm0-40v-40h-40v40zm0-40v-40h-40v40zm0-40v-40h-40v40zm0-40v-40h-40v40zm-40-240v-40h-40v40zm0 400v-40h-40v40zm-40 0v-40h-40v40zm40-200v-40h-40v40zm0 40v-40h-40v40zm0 40v-40h-40v40zm0 40v-40h-40v40zm0 40v-40h-40v40zm0-200v-40h-40v40zm0-40v-40h-40v40zm0-40v-40h-40v40zm0-40v-40h-40v40zm-40 200v-40h-40v40zm-40 0v-40h-40v40zm40 40v-40h-40v40zm-40-120v-40h-40v40zm40 0v-40h-40v40zm0-40v-40h-40v40zm-80 280v-40h-40v40zm80-40v-40h-40v40zm-40 0v-40h-40v40zm-40 0v-40h-40v40zm0-40v-40h-40v40zm-40 0v-40h-40v40zm0 40v-40h-40v40zm-520-320h40v-40h-40zm40-40h40v-40h-40zm0 40h40v-40h-40zm40-40h40v-40h-40zm40 0h40v-40h-40zm480 0h40v-40h-40zm0 40h40v-40h-40zm-40 0h40v-40h-40zm-40 0h40v-40h-40zm0-40h40v-40h-40zm0-40h40v-40h-40zm-320-160v40h40v-40zm40 0v40h40v-40zm40 0v40h40v-40zm40 0v40h40v-40zm-160 40v40h40v-40zm40 0v40h40v-40zm40 0v40h40v-40zm40 0v40h40v-40zm40 0v40h40v-40zm80 0v40h40v-40zm40 0v40h40v-40zm40 0v40h40v-40zm40 0v40h40v-40zm-120-40v40h40v-40zm40 0v40h40v-40zm40 0v40h40v-40zm40 0v40h40v-40zm40 40v40h40v-40zm0 40v40h40v-40zm0 40v40h40v-40zm-400-40v40h40v-40zm0 40v40h40v-40zm200-40v40h40v-40zm-40 0v40h40v-40zm-40 0v40h40v-40zm-40 0v40h40v-40zm-40 0v40h40v-40zm200 0v40h40v-40zm40 0v40h40v-40zm40 0v40h40v-40zm40 0v40h40v-40zm-200 40v40h40v-40zm0 40v40h40v-40zm-40-40v40h40v-40zm120 40v40h40v-40zm0-40v40h40v-40zm40 0v40h40v-40zm-280 80v40h40v-40zm40-80v40h40v-40zm0 40v40h40v-40zm0 40v40h40v-40zm40 0v40h40v-40zm0 40v40h40v-40zm-40 0v40h40v-40zm280 40h40v-40h-40zm0-40h40v-40h-40zm40 40h40v-40h-40zm160 80h40v-40h-40zm0-40h40v-40h-40zm0-40h40v-40h-40zm0-40h40v-40h-40zm0-40h40v-40h-40zm40 160h40v-40h-40zm0-40h40v-40h-40zm0-40h40v-40h-40zm0-40h40v-40h-40z"/><path transform="translate(21.583 12.833) scale(.014583 -.014583)" d="m240 400h40v-40h-40zm40 40h40v-40h-40zm40 40h40v-40h-40zm40 40h40v-40h-40zm40 40h40v-40h-40zm40-40h40v-40h-40zm40-40h40v-40h-40zm40-40h40v-40h-40zm40-40h40v-40h-40zm-40-40h40v-40h-40zm-40-40h40v-40h-40zm-40-40h40v-40h-40zm-40-40h40v-40h-40zm-40 40h40v-40h-40zm-40 40h40v-40h-40zm-40 40h40v-40h-40zm-240 40h40v-40h-40zm40 40h40v-40h-40zm40 40h40v-40h-40zm0-160h40v-40h-40zm-40 40h40v-40h-40zm80 160h40v-40h-40zm40 40h40v-40h-40zm40 40h40v-40h-40zm40 40h40v-40h-40zm40 40h40v-40h-40zm40 40h40v-40h-40zm40 40h40v-40h-40zm-240-480h40v-40h-40zm40-40h40v-40h-40zm40-40h40v-40h-40zm40-40h40v-40h-40zm40-40h40v-40h-40zm40-40h40v-40h-40zm40-40h40v-40h-40zm40 40h40v-40h-40zm40 40h40v-40h-40zm40 40h40v-40h-40zm40 40h40v-40h-40zm40 40h40v-40h-40zm40 40h40v-40h-40zm40 40h40v-40h-40zm40 40h40v-40h-40zm40 40h40v-40h-40zm-120 120h40v-40h-40zm40-40h40v-40h-40zm40-40h40v-40h-40zm-120 120h40v-40h-40zm-40 40h40v-40h-40zm-40 40h40v-40h-40zm-40 40h40v-40h-40zm-40 40h40v-40h-40zm-360-320h40v-40h-40zm40-40h40v-40h-40zm40-40h40v-40h-40zm40-40h40v-40h-40zm40-40h40v-40h-40zm40-40h40v-40h-40zm40-40h40v-40h-40zm40-40h40v-40h-40zm40-40h40v-40h-40zm40 40h40v-40h-40zm40 40h40v-40h-40zm40 40h40v-40h-40zm40 40h40v-40h-40zm40 40h40v-40h-40zm40 40h40v-40h-40zm40 40h40v-40h-40zm40 40h40v-40h-40zm-40 40h40v-40h-40zm-40 40h40v-40h-40zm-40 40h40v-40h-40zm-40 40h40v-40h-40zm-40 40h40v-40h-40zm-40 40h40v-40h-40zm-40 40h40v-40h-40zm-40 40h40v-40h-40zm-40-40h40v-40h-40zm-40-40h40v-40h-40zm-40-40h40v-40h-40zm-40-40h40v-40h-40zm-40-40h40v-40h-40zm-40-40h40v-40h-40zm-40-40h40v-40h-40zm160-40h40v-40h-40zm40 40h40v-40h-40zm40 40h40v-40h-40zm40 40h40v-40h-40zm40-40h40v-40h-40zm40-40h40v-40h-40zm40-40h40v-40h-40zm-40-40h40v-40h-40zm-40-40h40v-40h-40zm-40-40h40v-40h-40zm-40 40h40v-40h-40zm-40 40h40v-40h-40zm0 40h40v-40h-40zm40 40h40v-40h-40zm40 40h40v-40h-40zm40-40h40v-40h-40zm40-40h40v-40h-40zm-40-40h40v-40h-40zm-40-40h40v-40h-40zm-40 40h40v-40h-40zm40-240h40v-40h-40zm-40 40h40v-40h-40zm-40 40h40v-40h-40zm-40 40h40v-40h-40zm-40 40h40v-40h-40zm-40 40h40v-40h-40zm-40 40h40v-40h-40zm-40 40h40v-40h-40zm40 40h40v-40h-40zm40 40h40v-40h-40zm40 40h40v-40h-40zm40 40h40v-40h-40zm40 40h40v-40h-40zm40 40h40v-40h-40zm40 40h40v-40h-40zm40-40h40v-40h-40zm40-40h40v-40h-40zm40-40h40v-40h-40zm40-40h40v-40h-40zm40-40h40v-40h-40zm40-40h40v-40h-40zm40-40h40v-40h-40zm-40-40h40v-40h-40zm-40-40h40v-40h-40zm-40-40h40v-40h-40zm-40-40h40v-40h-40zm-40-40h40v-40h-40zm-40-40h40v-40h-40z"/><path transform="translate(33.833 12.833) scale(.014583 -.014583)" d="m40 440h40v-40h-40zm0-40h40v-40h-40zm80 40h40v-40h-40zm-40 0h40v-40h-40zm0-40h40v-40h-40zm40 0h40v-40h-40zm40 0h40v-40h-40zm40 0h40v-40h-40zm40 0h40v-40h-40zm40 0h40v-40h-40zm0 40h40v-40h-40zm-40 0h40v-40h-40zm-40 0h40v-40h-40zm-40 0h40v-40h-40zm240-400h40v-40h-40zm40 0h40v-40h-40zm-40 240h40v-40h-40zm0-40h40v-40h-40zm0-40h40v-40h-40zm0-40h40v-40h-40zm0-40h40v-40h-40zm0-40h40v-40h-40zm40 0h40v-40h-40zm0 40h40v-40h-40zm0 40h40v-40h-40zm0 40h40v-40h-40zm0 40h40v-40h-40zm0 40h40v-40h-40zm0 520h40v-40h-40zm-40 0h40v-40h-40zm0-40h40v-40h-40zm40 0h40v-40h-40zm0-40h40v-40h-40zm0-40h40v-40h-40zm0-40h40v-40h-40zm0-40h40v-40h-40zm0-40h40v-40h-40zm-40 0h40v-40h-40zm0 40h40v-40h-40zm0 40h40v-40h-40zm0 40h40v-40h-40zm0 40h40v-40h-40zm400-320h40v-40h-40zm-40 40h40v-40h-40zm-200 0h40v-40h-40zm40 0h40v-40h-40zm40 0h40v-40h-40zm40 0h40v-40h-40zm40 0h40v-40h-40zm80 0h40v-40h-40zm-40-40h40v-40h-40zm-40 0h40v-40h-40zm-40 0h40v-40h-40zm-40 0h40v-40h-40zm-40 0h40v-40h-40zm-40 0h40v-40h-40zm-160-80h40v-40h-40zm0 40h40v-40h-40zm0 40h40v-40h-40zm0 40h40v-40h-40zm0 40h40v-40h-40zm0 40h40v-40h-40zm40 0h40v-40h-40zm0-40h40v-40h-40zm0-40h40v-40h-40zm0-40h40v-40h-40zm0-40h40v-40h-40zm0-40h40v-40h-40zm80 120h40v-40h-40zm-40 0h40v-40h-40zm-120 0h40v-40h-40zm-40 0h40v-40h-40zm0-40h40v-40h-40zm40 0h40v-40h-40zm120 0h40v-40h-40zm40 0h40v-40h-40zm-160 80h40v-40h-40zm0 40h40v-40h-40zm-40 0h40v-40h-40zm0-40h40v-40h-40zm0 80h40v-40h-40zm-40 0h40v-40h-40zm0-40h40v-40h-40zm0 80h40v-40h-40zm-40 0h40v-40h-40zm0-40h40v-40h-40zm0 80h40v-40h-40zm-40 0h40v-40h-40zm0-40h40v-40h-40zm0 80h40v-40h-40zm-40 0h40v-40h-40zm0-40h40v-40h-40zm0 80h40v-40h-40zm-40 0h40v-40h-40zm0-40h40v-40h-40zm0 80h40v-40h-40zm-40-40h40v-40h-40zm160 0h40v-40h-40zm40 40h40v-40h-40zm40-40h40v-40h-40zm40-40h40v-40h-40zm-240-80h40v-40h-40zm-40-40h40v-40h-40zm40-40h40v-40h-40zm40-40h40v-40h-40zm200-120h40v-40h-40zm-40 0h40v-40h-40zm0-40h40v-40h-40zm40 0h40v-40h-40zm120 0h40v-40h-40zm0 40h40v-40h-40zm40 0h40v-40h-40zm0-40h40v-40h-40zm0 160h40v-40h-40zm-40 0h40v-40h-40zm0 40h40v-40h-40zm40 0h40v-40h-40zm0 40h40v-40h-40zm40 0h40v-40h-40zm0-40h40v-40h-40zm0 80h40v-40h-40zm40-40h40v-40h-40zm0 40h40v-40h-40zm0 40h40v-40h-40zm40 0h40v-40h-40zm0-40h40v-40h-40zm0 80h40v-40h-40zm40 0h40v-40h-40zm0-40h40v-40h-40zm0 80h40v-40h-40zm40 0h40v-40h-40zm0-40h40v-40h-40zm0 80h40v-40h-40zm40-40h40v-40h-40zm-40-200h40v-40h-40zm0 80h40v-40h-40zm40-40h40v-40h-40zm-80-80h40v-40h-40zm-80 240h40v-40h-40zm-40 40h40v-40h-40zm-40-40h40v-40h-40zm-40-40h40v-40h-40zm80-360h40v-40h-40zm0-40h40v-40h-40zm-40 0h40v-40h-40zm80 0h40v-40h-40zm-40-40h40v-40h-40zm40 0h40v-40h-40zm40 0h40v-40h-40zm-40-40h40v-40h-40zm40 0h40v-40h-40zm40 0h40v-40h-40zm-40-40h40v-40h-40zm40 0h40v-40h-40zm40 0h40v-40h-40zm0-40h40v-40h-40zm-40 0h40v-40h-40zm80 0h40v-40h-40zm-40-40h40v-40h-40zm0 160h40v-40h-40zm40 40h40v-40h-40zm-40 40h40v-40h-40zm-40 40h40v-40h-40zm-80-240h40v-40h-40zm-40-40h40v-40h-40zm-40 40h40v-40h-40zm-40 40h40v-40h-40zm-200 160h40v-40h-40zm0-40h40v-40h-40zm40 0h40v-40h-40zm-80 0h40v-40h-40zm40-40h40v-40h-40zm-40 0h40v-40h-40zm-40 0h40v-40h-40zm0-40h40v-40h-40zm40 0h40v-40h-40zm-80 0h40v-40h-40zm40-40h40v-40h-40zm-40 0h40v-40h-40zm-40 0h40v-40h-40zm0-40h40v-40h-40zm40 0h40v-40h-40zm-80 0h40v-40h-40zm40-40h40v-40h-40zm120 40h40v-40h-40zm40-40h40v-40h-40zm40 40h40v-40h-40zm40 40h40v-40h-40zm-240 80h40v-40h-40zm-40 40h40v-40h-40zm40 40h40v-40h-40zm40 40h40v-40h-40z"/><path transform="translate(46.667 12.833) scale(.014583 -.014583)" d="m240 440h40v-40h-40zm0-40h40v-40h-40zm0-40h40v-40h-40zm40 120h40v-40h-40zm40 40h40v-40h-40zm40 0h40v-40h-40zm40-40h40v-40h-40zm40-40h40v-40h-40zm0-40h40v-40h-40zm0-40h40v-40h-40zm-40-40h40v-40h-40zm-120 0h40v-40h-40zm40-40h40v-40h-40zm40 0h40v-40h-40zm-80 0h40v-40h-40zm-40 0h40v-40h-40zm0 40h40v-40h-40zm-40 0h40v-40h-40zm0 40h40v-40h-40zm0 40h40v-40h-40zm0 40h40v-40h-40zm120 120h40v-40h-40zm40 0h40v-40h-40zm40 0h40v-40h-40zm40-40h40v-40h-40zm-40 0h40v-40h-40zm40-40h40v-40h-40zm40 0h40v-40h-40zm0-40h40v-40h-40zm0-40h40v-40h-40zm0-40h40v-40h-40zm0-40h40v-40h-40zm-40 0h40v-40h-40zm0-40h40v-40h-40zm-40 0h40v-40h-40zm-160 200h40v-40h-40zm40 40h40v-40h-40zm0 40h40v-40h-40zm-40-40h40v-40h-40zm0 40h40v-40h-40zm-40 0h40v-40h-40zm0-40h40v-40h-40zm0-40h40v-40h-40zm240 80h40v-40h-40zm40 0h40v-40h-40zm0-40h40v-40h-40zm0-240h40v-40h-40zm0-40h40v-40h-40zm-40 0h40v-40h-40zm-40 0h40v-40h-40zm-40 0h40v-40h-40zm-80 0h40v-40h-40zm-40 0h40v-40h-40zm-40 0h40v-40h-40zm-40 0h40v-40h-40zm0 40h40v-40h-40zm40 0h40v-40h-40zm120-40h40v-40h-40zm-160 80h40v-40h-40zm0 40h40v-40h-40zm0 120h40v-40h-40zm0 40h40v-40h-40zm0 40h40v-40h-40zm0-120h40v-40h-40zm0 160h40v-40h-40zm40 0h40v-40h-40zm40 0h40v-40h-40zm80 0h40v-40h-40zm40 0h40v-40h-40zm40 0h40v-40h-40zm40 0h40v-40h-40zm40 0h40v-40h-40zm-200 0h40v-40h-40zm240 0h40v-40h-40zm0-40h40v-40h-40zm0-40h40v-40h-40zm0-40h40v-40h-40zm0-40h40v-40h-40zm0-40h40v-40h-40zm0-40h40v-40h-40zm0-40h40v-40h-40zm0-40h40v-40h-40zm0-40h40v-40h-40zm0-40h40v-40h-40zm-40 0h40v-40h-40zm-40 0h40v-40h-40zm-40 0h40v-40h-40zm-40 0h40v-40h-40zm-40 0h40v-40h-40zm-40 0h40v-40h-40zm-40 0h40v-40h-40zm-40 0h40v-40h-40zm-40 0h40v-40h-40zm400 0h40v-40h-40zm0 40h40v-40h-40zm0 40h40v-40h-40zm0 40h40v-40h-40zm0 40h40v-40h-40zm0 80h40v-40h-40zm0 40h40v-40h-40zm0 40h40v-40h-40zm0 40h40v-40h-40zm0 40h40v-40h-40zm0 40h40v-40h-40zm-40 0h40v-40h-40zm-40 0h40v-40h-40zm-80 0h40v-40h-40zm-40 0h40v-40h-40zm-40 0h40v-40h-40zm-40 0h40v-40h-40zm-80 0h40v-40h-40zm-40 0h40v-40h-40zm-40 0h40v-40h-40zm0-40h40v-40h-40zm0-40h40v-40h-40zm0-40h40v-40h-40zm0-40h40v-40h-40zm0-40h40v-40h-40zm0-80h40v-40h-40zm0-40h40v-40h-40zm0-40h40v-40h-40zm0-40h40v-40h-40zm0-40h40v-40h-40zm0-40h40v-40h-40zm40 0h40v-40h-40zm40 0h40v-40h-40zm80 0h40v-40h-40zm40 0h40v-40h-40zm40 0h40v-40h-40zm40 0h40v-40h-40zm80 0h40v-40h-40zm40 0h40v-40h-40zm40 0h40v-40h-40zm-280-40h40v-40h-40zm40 0h40v-40h-40zm40 0h40v-40h-40zm40 0h40v-40h-40zm0-80h40v-40h-40zm-40 0h40v-40h-40zm-40 0h40v-40h-40zm0 40h40v-40h-40zm40 0h40v-40h-40zm40 0h40v-40h-40zm-120-40h40v-40h-40zm0 40h40v-40h-40zm160 0h40v-40h-40zm0 40h40v-40h-40zm-200-40h40v-40h-40zm0 40h40v-40h-40zm-80 0h40v-40h-40zm-40 0h40v-40h-40zm-40 40h40v-40h-40zm-40 40h40v-40h-40zm0 40h40v-40h-40zm0 40h40v-40h-40zm0 40h40v-40h-40zm40 40h40v-40h-40zm0-40h40v-40h-40zm0-40h40v-40h-40zm0-40h40v-40h-40zm0-40h40v-40h-40zm80 200h40v-40h-40zm-80 40h40v-40h-40zm-40 40h40v-40h-40zm0 40h40v-40h-40zm0 40h40v-40h-40zm0 40h40v-40h-40zm40 40h40v-40h-40zm40 40h40v-40h-40zm40 0h40v-40h-40zm-80-80h40v-40h-40zm0-40h40v-40h-40zm0-40h40v-40h-40zm0-40h40v-40h-40zm360 240h40v-40h-40zm-200 0h40v-40h-40zm0-40h40v-40h-40zm280-560h40v-40h-40zm40 0h40v-40h-40zm40 40h40v-40h-40zm40 40h40v-40h-40zm0 40h40v-40h-40zm0 40h40v-40h-40zm0 40h40v-40h-40zm-40 40h40v-40h-40zm0-40h40v-40h-40zm0-40h40v-40h-40zm0-40h40v-40h-40zm0-40h40v-40h-40zm0 280h40v-40h-40zm40 40h40v-40h-40zm0 40h40v-40h-40zm0 40h40v-40h-40zm-40 40h40v-40h-40zm0-40h40v-40h-40zm0-40h40v-40h-40zm0-40h40v-40h-40zm-40 160h40v-40h-40zm-120 0h40v-40h-40zm-160 80h40v-40h-40zm40 0h40v-40h-40zm40 0h40v-40h-40zm40 0h40v-40h-40zm0-40h40v-40h-40zm0-40h40v-40h-40zm-40 0h40v-40h-40zm0 40h40v-40h-40zm-40 0h40v-40h-40zm-40 0h40v-40h-40zm0-40h40v-40h-40zm40 0h40v-40h-40zm200 0h40v-40h-40zm120-200h40v-40h-40zm-40-40h40v-40h-40z"/><path transform="translate(57.167 12.833) scale(.014583 -.014583)" d="m120 480h40v-40h-40zm40 0h40v-40h-40zm40 0h40v-40h-40zm-120 40h40v-40h-40zm80-80h40v-40h-40zm40 0h40v-40h-40zm0 80h40v-40h-40zm-80 0h40v-40h-40zm40 0h40v-40h-40zm0-160h40v-40h-40zm40 0h40v-40h-40zm-40-40h40v-40h-40zm-40 0h40v-40h-40zm0-40h40v-40h-40zm-40 0h40v-40h-40zm120 0h40v-40h-40zm0 40h40v-40h-40zm-40-40h40v-40h-40zm120-200h40v-40h-40zm40 40h40v-40h-40zm40 40h40v-40h-40zm0 40h40v-40h-40zm-40 0h40v-40h-40zm-40 0h40v-40h-40zm0-40h40v-40h-40zm0-40h40v-40h-40zm40 40h40v-40h-40zm120 0h40v-40h-40zm0 40h40v-40h-40zm40-80h40v-40h-40zm40-40h40v-40h-40zm0 120h40v-40h-40zm-40 0h40v-40h-40zm0-40h40v-40h-40zm40 0h40v-40h-40zm0-40h40v-40h-40zm-280 240h40v-40h-40zm40 0h40v-40h-40zm80-80h40v-40h-40zm0-40h40v-40h-40zm-120 200h40v-40h-40zm40 0h40v-40h-40zm80 80h40v-40h-40zm0 40h40v-40h-40zm-40 0h40v-40h-40zm-80-80h40v-40h-40zm80-240h40v-40h-40zm-80 80h40v-40h-40zm40 280h40v-40h-40zm0 40h40v-40h-40zm0 40h40v-40h-40zm0 40h40v-40h-40zm40-120h40v-40h-40zm0 40h40v-40h-40zm0 40h40v-40h-40zm40-80h40v-40h-40zm80-80h40v-40h-40zm0 40h40v-40h-40zm0 40h40v-40h-40zm0 40h40v-40h-40zm40-80h40v-40h-40zm0 40h40v-40h-40zm0 40h40v-40h-40zm0 40h40v-40h-40zm40-80h40v-40h-40zm0 40h40v-40h-40zm0 40h40v-40h-40zm0 40h40v-40h-40zm40-240h40v-40h-40zm-40-40h40v-40h-40zm40 0h40v-40h-40zm-40-80h40v-40h-40zm40 0h40v-40h-40zm-120-80h40v-40h-40zm0-40h40v-40h-40zm40 0h40v-40h-40zm80 80h40v-40h-40zm120-40h40v-40h-40zm-40 0h40v-40h-40zm-40 0h40v-40h-40zm40 40h40v-40h-40zm-40 0h40v-40h-40zm0 40h40v-40h-40zm0 160h40v-40h-40zm40 0h40v-40h-40zm40 0h40v-40h-40zm-80-80h40v-40h-40zm0 40h40v-40h-40zm40 0h40v-40h-40zm0-40h40v-40h-40zm40 40h40v-40h-40zm40 40h40v-40h-40zm-80-160h40v-40h-40zm40-40h40v-40h-40zm40-40h40v-40h-40zm-360 360h40v-40h-40zm-40-160h40v-40h-40zm-40 40h40v-40h-40zm-40 40h40v-40h-40zm80-240h40v-40h-40zm-40-40h40v-40h-40zm-40-40h40v-40h-40zm280 40h40v-40h-40zm-40 40h40v-40h-40zm80-80h40v-40h-40zm0 320h40v-40h-40zm-40-40h40v-40h-40zm-40-40h40v-40h-40zm40-440h40v-40h-40zm-40 40h40v-40h-40zm-40 40h40v-40h-40zm-160-80h40v-40h-40zm40 40h40v-40h-40zm40 40h40v-40h-40zm-240 320h40v-40h-40zm-40 40h40v-40h-40zm-40 40h40v-40h-40zm80-160h40v-40h-40zm-40-40h40v-40h-40zm-40-40h40v-40h-40zm640 80h40v-40h-40zm40-40h40v-40h-40zm40-40h40v-40h-40zm-80 160h40v-40h-40zm40 40h40v-40h-40zm40 40h40v-40h-40zm-320 160h40v-40h-40zm40 40h40v-40h-40zm40 40h40v-40h-40zm-160-80h40v-40h-40zm-40 40h40v-40h-40zm-40 40h40v-40h-40zm120-320h40v-40h-40zm-40-40h40v-40h-40zm40-40h40v-40h-40zm40 40h40v-40h-40zm160 200h40v-40h-40zm40 40h40v-40h-40zm40 40h40v-40h-40zm-40 40h40v-40h-40zm80 0h40v-40h-40zm0-80h40v-40h-40zm-520-40h40v-40h-40zm-40 40h40v-40h-40zm-40 40h40v-40h-40zm-40 40h40v-40h-40zm80 0h40v-40h-40zm-80-80h40v-40h-40zm120-440h40v-40h-40zm-40-40h40v-40h-40zm-40-40h40v-40h-40zm40-40h40v-40h-40zm-80 0h40v-40h-40zm0 80h40v-40h-40zm520 40h40v-40h-40zm40-40h40v-40h-40zm40-40h40v-40h-40zm40 40h40v-40h-40zm0-80h40v-40h-40zm-80 0h40v-40h-40z"/><path transform="translate(69.417 12.833) scale(.014583 -.014583)" d="m40 440h40v-40h-40zm0-40h40v-40h-40zm80 40h40v-40h-40zm-40 0h40v-40h-40zm0-40h40v-40h-40zm40 0h40v-40h-40zm40 0h40v-40h-40zm40 0h40v-40h-40zm40 0h40v-40h-40zm40 0h40v-40h-40zm0 40h40v-40h-40zm-40 0h40v-40h-40zm-40 0h40v-40h-40zm-40 0h40v-40h-40zm240-400h40v-40h-40zm40 0h40v-40h-40zm-40 240h40v-40h-40zm0-40h40v-40h-40zm0-40h40v-40h-40zm0-40h40v-40h-40zm0-40h40v-40h-40zm0-40h40v-40h-40zm40 0h40v-40h-40zm0 40h40v-40h-40zm0 40h40v-40h-40zm0 40h40v-40h-40zm0 40h40v-40h-40zm0 40h40v-40h-40zm0 520h40v-40h-40zm-40 0h40v-40h-40zm0-40h40v-40h-40zm40 0h40v-40h-40zm0-40h40v-40h-40zm0-40h40v-40h-40zm0-40h40v-40h-40zm0-40h40v-40h-40zm0-40h40v-40h-40zm-40 0h40v-40h-40zm0 40h40v-40h-40zm0 40h40v-40h-40zm0 40h40v-40h-40zm0 40h40v-40h-40zm400-320h40v-40h-40zm-40 40h40v-40h-40zm-200 0h40v-40h-40zm40 0h40v-40h-40zm40 0h40v-40h-40zm40 0h40v-40h-40zm40 0h40v-40h-40zm80 0h40v-40h-40zm-40-40h40v-40h-40zm-40 0h40v-40h-40zm-40 0h40v-40h-40zm-40 0h40v-40h-40zm-40 0h40v-40h-40zm-40 0h40v-40h-40zm-160-80h40v-40h-40zm0 40h40v-40h-40zm0 40h40v-40h-40zm0 40h40v-40h-40zm0 40h40v-40h-40zm0 40h40v-40h-40zm40 0h40v-40h-40zm0-40h40v-40h-40zm0-40h40v-40h-40zm0-40h40v-40h-40zm0-40h40v-40h-40zm0-40h40v-40h-40zm80 120h40v-40h-40zm-40 0h40v-40h-40zm-120 0h40v-40h-40zm-40 0h40v-40h-40zm0-40h40v-40h-40zm40 0h40v-40h-40zm120 0h40v-40h-40zm40 0h40v-40h-40zm-160 80h40v-40h-40zm0 40h40v-40h-40zm-40 0h40v-40h-40zm0-40h40v-40h-40zm0 80h40v-40h-40zm-40 0h40v-40h-40zm0-40h40v-40h-40zm0 80h40v-40h-40zm-40 0h40v-40h-40zm0-40h40v-40h-40zm0 80h40v-40h-40zm-40 0h40v-40h-40zm0-40h40v-40h-40zm0 80h40v-40h-40zm-40 0h40v-40h-40zm0-40h40v-40h-40zm0 80h40v-40h-40zm-40 0h40v-40h-40zm0-40h40v-40h-40zm0 80h40v-40h-40zm-40-40h40v-40h-40zm160 0h40v-40h-40zm40 40h40v-40h-40zm40-40h40v-40h-40zm40-40h40v-40h-40zm-240-80h40v-40h-40zm-40-40h40v-40h-40zm40-40h40v-40h-40zm40-40h40v-40h-40zm200-120h40v-40h-40zm-40 0h40v-40h-40zm0-40h40v-40h-40zm40 0h40v-40h-40zm120 0h40v-40h-40zm0 40h40v-40h-40zm40 0h40v-40h-40zm0-40h40v-40h-40zm0 160h40v-40h-40zm-40 0h40v-40h-40zm0 40h40v-40h-40zm40 0h40v-40h-40zm0 40h40v-40h-40zm40 0h40v-40h-40zm0-40h40v-40h-40zm0 80h40v-40h-40zm40-40h40v-40h-40zm0 40h40v-40h-40zm0 40h40v-40h-40zm40 0h40v-40h-40zm0-40h40v-40h-40zm0 80h40v-40h-40zm40 0h40v-40h-40zm0-40h40v-40h-40zm0 80h40v-40h-40zm40 0h40v-40h-40zm0-40h40v-40h-40zm0 80h40v-40h-40zm40-40h40v-40h-40zm-40-200h40v-40h-40zm0 80h40v-40h-40zm40-40h40v-40h-40zm-80-80h40v-40h-40zm-80 240h40v-40h-40zm-40 40h40v-40h-40zm-40-40h40v-40h-40zm-40-40h40v-40h-40zm80-360h40v-40h-40zm0-40h40v-40h-40zm-40 0h40v-40h-40zm80 0h40v-40h-40zm-40-40h40v-40h-40zm40 0h40v-40h-40zm40 0h40v-40h-40zm-40-40h40v-40h-40zm40 0h40v-40h-40zm40 0h40v-40h-40zm-40-40h40v-40h-40zm40 0h40v-40h-40zm40 0h40v-40h-40zm0-40h40v-40h-40zm-40 0h40v-40h-40zm80 0h40v-40h-40zm-40-40h40v-40h-40zm0 160h40v-40h-40zm40 40h40v-40h-40zm-40 40h40v-40h-40zm-40 40h40v-40h-40zm-80-240h40v-40h-40zm-40-40h40v-40h-40zm-40 40h40v-40h-40zm-40 40h40v-40h-40zm-200 160h40v-40h-40zm0-40h40v-40h-40zm40 0h40v-40h-40zm-80 0h40v-40h-40zm40-40h40v-40h-40zm-40 0h40v-40h-40zm-40 0h40v-40h-40zm0-40h40v-40h-40zm40 0h40v-40h-40zm-80 0h40v-40h-40zm40-40h40v-40h-40zm-40 0h40v-40h-40zm-40 0h40v-40h-40zm0-40h40v-40h-40zm40 0h40v-40h-40zm-80 0h40v-40h-40zm40-40h40v-40h-40zm120 40h40v-40h-40zm40-40h40v-40h-40zm40 40h40v-40h-40zm40 40h40v-40h-40zm-240 80h40v-40h-40zm-40 40h40v-40h-40zm40 40h40v-40h-40zm40 40h40v-40h-40z"/><path transform="translate(82.25 12.833) scale(.014583 -.014583)" d="m400 40h40v-40h-40zm0 40h40v-40h-40zm-40 0h40v-40h-40zm-40 0h40v-40h-40zm-40 0h40v-40h-40zm-40 0h40v-40h-40zm-40 0h40v-40h-40zm0-40h40v-40h-40zm40 0h40v-40h-40zm200 40h40v-40h-40zm40 0h40v-40h-40zm40 0h40v-40h-40zm40 0h40v-40h-40zm0-40h40v-40h-40zm-40 0h40v-40h-40zm-40 0h40v-40h-40zm-40 0h40v-40h-40zm-80 0h40v-40h-40zm-40 0h40v-40h-40zm-40 0h40v-40h-40zm80 80h40v-40h-40zm40 0h40v-40h-40zm0 40h40v-40h-40zm-40 0h40v-40h-40zm-40 40h40v-40h-40zm-40 0h40v-40h-40zm80 0h40v-40h-40zm0 40h40v-40h-40zm-40 0h40v-40h-40zm-40 0h40v-40h-40zm120 0h40v-40h-40zm40 0h40v-40h-40zm40 0h40v-40h-40zm0-40h40v-40h-40zm-40 0h40v-40h-40zm-40 0h40v-40h-40zm-40 80h40v-40h-40zm0 40h40v-40h-40zm0 40h40v-40h-40zm0 40h40v-40h-40zm0 40h40v-40h-40zm40 0h40v-40h-40zm0-40h40v-40h-40zm0-40h40v-40h-40zm0-40h40v-40h-40zm0-40h40v-40h-40zm-120 200h40v-40h-40zm0 40h40v-40h-40zm40 0h40v-40h-40zm0-40h40v-40h-40zm40 0h40v-40h-40zm40 0h40v-40h-40zm40 0h40v-40h-40zm40 0h40v-40h-40zm0 40h40v-40h-40zm-40 0h40v-40h-40zm-40 0h40v-40h-40zm-40 0h40v-40h-40zm-80 40h40v-40h-40zm0 40h40v-40h-40zm0 40h40v-40h-40zm40 0h40v-40h-40zm0-40h40v-40h-40zm0-40h40v-40h-40zm-40 120h40v-40h-40zm40 0h40v-40h-40zm120-120h40v-40h-40zm0 40h40v-40h-40zm0 40h40v-40h-40zm0 40h40v-40h-40zm40 0h40v-40h-40zm0-40h40v-40h-40zm0-40h40v-40h-40zm0-40h40v-40h-40zm-120 120h40v-40h-40zm40 0h40v-40h-40zm0-40h40v-40h-40zm-40 0h40v-40h-40zm160 80h40v-40h-40zm0 40h40v-40h-40zm40-40h40v-40h-40zm0 40h40v-40h-40zm-320-40h40v-40h-40zm0 40h40v-40h-40zm-40 0h40v-40h-40zm0-40h40v-40h-40zm320-120h40v-40h-40zm40 0h40v-40h-40zm0-40h40v-40h-40zm-40 0h40v-40h-40zm-280 40h40v-40h-40zm-40 0h40v-40h-40zm40-40h40v-40h-40zm-40 0h40v-40h-40zm160 160h40v-40h-40zm0 40h40v-40h-40zm40 0h40v-40h-40zm0-40h40v-40h-40zm-160-440h40v-40h-40zm0 40h40v-40h-40zm-40 0h40v-40h-40zm0-40h40v-40h-40zm-40 80h40v-40h-40zm0 40h40v-40h-40zm-40 0h40v-40h-40zm0-40h40v-40h-40zm40-80h40v-40h-40zm0 40h40v-40h-40zm-80 80h40v-40h-40zm-40 0h40v-40h-40zm480-120h40v-40h-40zm0 40h40v-40h-40zm80 80h40v-40h-40zm40 0h40v-40h-40zm40 0h40v-40h-40zm40 0h40v-40h-40zm0-40h40v-40h-40zm-40 0h40v-40h-40zm-40 0h40v-40h-40zm-40 0h40v-40h-40zm-40 0h40v-40h-40zm0-80h40v-40h-40zm40 0h40v-40h-40zm40 0h40v-40h-40zm40 40h40v-40h-40zm-40 0h40v-40h-40zm-40 0h40v-40h-40zm-40 0h40v-40h-40zm-480 40h40v-40h-40zm-40 0h40v-40h-40zm80-40h40v-40h-40zm0-40h40v-40h-40zm-40 40h40v-40h-40zm120 40h40v-40h-40z"/><path transform="translate(93.917 12.833) scale(.014583 -.014583)" d="m40 480h40v-40h-40zm0-40h40v-40h-40zm0-40h40v-40h-40zm40 120h40v-40h-40zm0-40h40v-40h-40zm0-40h40v-40h-40zm0-40h40v-40h-40zm0-40h40v-40h-40zm40 160h40v-40h-40zm0-40h40v-40h-40zm0-40h40v-40h-40zm0-40h40v-40h-40zm0-80h40v-40h-40zm40 160h40v-40h-40zm0-40h40v-40h-40zm0-80h40v-40h-40zm0-80h40v-40h-40zm40 200h40v-40h-40zm0-160h40v-40h-40zm0-80h40v-40h-40zm40 440h40v-40h-40zm0-240h40v-40h-40zm0-80h40v-40h-40zm0-80h40v-40h-40zm0-40h40v-40h-40zm0-40h40v-40h-40zm0 440h40v-40h-40zm40 80h40v-40h-40zm0-40h40v-40h-40zm0-80h40v-40h-40zm0-200h40v-40h-40zm0-80h40v-40h-40zm0-40h40v-40h-40zm0-40h40v-40h-40zm0-40h40v-40h-40zm0-40h40v-40h-40zm0 480h40v-40h-40zm40 80h40v-40h-40zm0-40h40v-40h-40zm0-40h40v-40h-40zm0-40h40v-40h-40zm0-40h40v-40h-40zm0-120h40v-40h-40zm0-80h40v-40h-40zm0-40h40v-40h-40zm0-40h40v-40h-40zm0-40h40v-40h-40zm0-40h40v-40h-40zm0-40h40v-40h-40zm-120 240h40v-40h-40zm80 80h40v-40h-40zm40 40h40v-40h-40zm-40 40h40v-40h-40zm-40-40h40v-40h-40zm0 80h40v-40h-40zm-40 40h40v-40h-40zm-40-120h40v-40h-40zm40 40h40v-40h-40zm-80 0h40v-40h-40zm40 40h40v-40h-40zm-40-240h40v-40h-40zm40 40h40v-40h-40zm40 40h40v-40h-40zm160 280h40v-40h-40zm0-40h40v-40h-40zm0-40h40v-40h-40zm0-40h40v-40h-40zm0-40h40v-40h-40zm0-80h40v-40h-40zm0-80h40v-40h-40zm0-80h40v-40h-40zm0-40h40v-40h-40zm0-40h40v-40h-40zm0-40h40v-40h-40zm0-40h40v-40h-40zm40 40h40v-40h-40zm0 40h40v-40h-40zm0 40h40v-40h-40zm0 80h40v-40h-40zm40 40h40v-40h-40zm-40 40h40v-40h-40zm0 80h40v-40h-40zm0 80h40v-40h-40zm0 40h40v-40h-40zm0 40h40v-40h-40zm40-40h40v-40h-40zm0-80h40v-40h-40zm0-80h40v-40h-40zm0-160h40v-40h-40zm0-80h40v-40h-40zm40 120h40v-40h-40zm0 80h40v-40h-40zm40-120h40v-40h-40zm-40 200h40v-40h-40zm0 80h40v-40h-40zm40-120h40v-40h-40zm0-40h40v-40h-40zm0-40h40v-40h-40zm40-40h40v-40h-40zm0 40h40v-40h-40zm0 40h40v-40h-40zm0 40h40v-40h-40zm40-40h40v-40h-40zm0-40h40v-40h-40zm-120 80h40v-40h-40zm0-80h40v-40h-40zm-40 40h40v-40h-40zm80-80h40v-40h-40zm0 160h40v-40h-40zm80-40h40v-40h-40zm-40 40h40v-40h-40zm-40 40h40v-40h-40zm-40-280h40v-40h-40zm40 360h40v-40h-40zm-400 0h40v-40h-40zm0-400h40v-40h-40zm400 0h40v-40h-40zm40-40h40v-40h-40zm-480 0h40v-40h-40zm0 480h40v-40h-40zm480 0h40v-40h-40zm40-520h40v-40h-40zm-560 0h40v-40h-40zm0 560h40v-40h-40zm560 0h40v-40h-40z"/><path transform="translate(106.17 12.833) scale(.014583 -.014583)" d="m40 480h40v-40h-40zm40 0h40v-40h-40zm40 0h40v-40h-40zm40 0h40v-40h-40zm0-40h40v-40h-40zm0-40h40v-40h-40zm0-40h40v-40h-40zm-40 0h40v-40h-40zm-40 0h40v-40h-40zm-40 0h40v-40h-40zm0 40h40v-40h-40zm0 40h40v-40h-40zm40 0h40v-40h-40zm40 0h40v-40h-40zm0-40h40v-40h-40zm-40 0h40v-40h-40zm120 120h40v-40h-40zm0 40h40v-40h-40zm0 40h40v-40h-40zm0 40h40v-40h-40zm40 0h40v-40h-40zm40 0h40v-40h-40zm0-40h40v-40h-40zm40 0h40v-40h-40zm0-40h40v-40h-40zm0 80h40v-40h-40zm0-120h40v-40h-40zm-40 0h40v-40h-40zm-40 0h40v-40h-40zm0 40h40v-40h-40zm0 40h40v-40h-40zm40-40h40v-40h-40zm200-80h40v-40h-40zm-40 0h40v-40h-40zm-40 0h40v-40h-40zm0-40h40v-40h-40zm0-40h40v-40h-40zm0-40h40v-40h-40zm-40 80h40v-40h-40zm0 40h40v-40h-40zm80-120h40v-40h-40zm40 0h40v-40h-40zm0 40h40v-40h-40zm0 40h40v-40h-40zm-40 0h40v-40h-40zm0-40h40v-40h-40zm-240-80h40v-40h-40zm40 0h40v-40h-40zm40 0h40v-40h-40zm40 0h40v-40h-40zm0-40h40v-40h-40zm0-40h40v-40h-40zm0-40h40v-40h-40zm-40 0h40v-40h-40zm-40 0h40v-40h-40zm-40 0h40v-40h-40zm0 40h40v-40h-40zm0 40h40v-40h-40zm40 0h40v-40h-40zm40 0h40v-40h-40zm0-40h40v-40h-40zm-40 0h40v-40h-40zm120 160h40v-40h-40zm0-40h40v-40h-40zm-160 120h40v-40h-40zm40 0h40v-40h-40zm40 0h40v-40h-40zm40 0h40v-40h-40zm0-40h40v-40h-40zm0-40h40v-40h-40zm-40 0h40v-40h-40zm-40 0h40v-40h-40zm0 40h40v-40h-40zm-40 0h40v-40h-40zm80 0h40v-40h-40zm-80-40h40v-40h-40zm0-40h40v-40h-40zm40 0h40v-40h-40zm40 0h40v-40h-40zm40 0h40v-40h-40z"/><path transform="translate(114.33 12.833) scale(.014583 -.014583)" d="m80 600h40v-40h-40zm40 0h40v-40h-40zm40 0h40v-40h-40zm0-40h40v-40h-40zm0-40h40v-40h-40zm-40 0h40v-40h-40zm-40 0h40v-40h-40zm0 40h40v-40h-40zm40 0h40v-40h-40zm80-120h40v-40h-40zm40 0h40v-40h-40zm40 0h40v-40h-40zm0-40h40v-40h-40zm0-40h40v-40h-40zm-40 0h40v-40h-40zm-40 40h40v-40h-40zm40 0h40v-40h-40zm-40-40h40v-40h-40zm160 160h40v-40h-40zm0 40h40v-40h-40zm0 40h40v-40h-40zm40 0h40v-40h-40zm40 0h40v-40h-40zm0-40h40v-40h-40zm0-40h40v-40h-40zm-40 40h40v-40h-40zm0-40h40v-40h-40zm-40-200h40v-40h-40zm40 0h40v-40h-40zm0-40h40v-40h-40zm40 0h40v-40h-40zm0-40h40v-40h-40zm-40 0h40v-40h-40zm-40 0h40v-40h-40zm0 40h40v-40h-40zm80 40h40v-40h-40zm-280 0h40v-40h-40zm0-40h40v-40h-40zm-40-40h40v-40h-40zm-40 0h40v-40h-40zm0 40h40v-40h-40zm0 40h40v-40h-40zm40 0h40v-40h-40zm0-40h40v-40h-40zm40-40h40v-40h-40zm200 400h40v-40h-40zm40 0h40v-40h-40zm40 0h40v-40h-40zm40 0h40v-40h-40zm0-40h40v-40h-40zm0-40h40v-40h-40zm0-40h40v-40h-40zm0-200h40v-40h-40zm0-40h40v-40h-40zm0-40h40v-40h-40zm0-40h40v-40h-40zm-40 0h40v-40h-40zm-40 0h40v-40h-40zm-40 0h40v-40h-40zm-200 0h40v-40h-40zm-40 0h40v-40h-40zm-40 0h40v-40h-40zm-40 40h40v-40h-40zm0-40h40v-40h-40zm0 80h40v-40h-40zm0 40h40v-40h-40zm120 320h40v-40h-40zm-40 0h40v-40h-40zm-40 0h40v-40h-40zm-40 0h40v-40h-40zm0-40h40v-40h-40zm0-40h40v-40h-40zm0-40h40v-40h-40zm160-40h40v-40h-40zm40 0h40v-40h-40zm40 0h40v-40h-40zm40 0h40v-40h-40zm0-40h40v-40h-40zm0-40h40v-40h-40zm0-40h40v-40h-40z"/></svg>