<svg width="57.624" height="14" viewBox="0 0 57.624 14" xmlns="http://www.w3.org/2000/svg"><path transform="translate(0 11.2) scale(.014 -.014)" d="m201 329q-13 25-30.5 57.5t-36.5 65.5-37 62.5-32 49.5q-7 10-15 19.5t-14.5 17.5-10 15-0.5 11q5 9 18.5 9t28.5-5 30-13 23-15q14-13 31-36t34.5-49 33-51.5 25.5-43.5q7 13 24 36.5t36.5 49 38.5 49.5 32 39q14 16 33 27.5t38 17.5 34.5 5.5 21.5-7.5q3-4-1.5-11.5t-12-16-15.5-17-12-14.5q-15-21-37.5-53t-46.5-67-46-69-37-59q0-13 0-42.5t-1-63.5-2-66-2-48q-2-18-6.5-39.5t-19.5-41.5q-7-9-17-17t-21.5-13.5-23-6.5-21.5 5q-5 3-5 10.5t2.5 16 5 16.5 3.5 12q7 39 8.5 76.5t1.5 54.5z"/><path transform="translate(6.972 11.2) scale(.014 -.014)" d="m222-11q-52 1-90.5 23.5t-62.5 58-33 79-3 85.5q6 46 25.5 84t49.5 64 70 39.5 87 10.5q40-3 67-21t44-41 25-46 10-35q10-8 17-21t7-18q-3-15-41-23-15-3-50-7t-75.5-8-79-6-59.5-1q-2-19 0-43t12-45.5 30-36.5 54-16q22-2 47.5 3t35.5 9q38 13 55 21t24 0q6-6-1.5-27t-37.5-45q-30-23-65-30t-62-7zm102 303q-3 15-11.5 30.5t-22 27-31 17.5-37.5 2q-19-3-33.5-14t-25.5-26-18-32-10-33q54 8 99 15t90 13z"/><path transform="translate(13.132 11.2) scale(.014 -.014)" d="m23 206q0 47 17.5 90t49.5 76 76 52.5 97 19.5q44 0 80.5-19t62.5-51 40.5-73 14.5-85q0-45-16.5-89.5t-46.5-79-72-56-93-21.5q-48 0-87 17.5t-66.5 49-42 75-14.5 94.5zm238 152q-33 0-61-12.5t-49-34-32.5-50-11.5-59.5q0-26 9.5-51.5t26.5-46.5 41.5-34 53.5-13 55.5 14.5 46 37.5 31 52.5 11.5 59.5q0 24-8.5 48t-24 44-38 32.5-50.5 12.5z"/><path transform="translate(19.908 11.2) scale(.014 -.014)" d="m152 358q6 9 17.5 17t25 14 28.5 9.5 27 3.5q81 0 122.5-53t41.5-162q0-25-2.5-51t-3-53 2-53 12.5-51q3-6 6.5-13.5t6.5-15 3-13.5-5-10q-4-3-12-2.5t-17 3-17.5 5.5-12.5 6q-18 12-28.5 34t-15.5 49.5-6 57-1 56.5q0 31-3 60.5t-12 53-25.5 39-42.5 18.5q-19 2-43.5-2.5t-42.5-25.5q0-54-1-108.5t-3-111.5q-1-29-8-53.5t-17.5-43-23-29-25.5-10.5q-8 0-10 20t-1.5 46.5 2 53.5 1.5 42q0 60 1.5 125.5t-3.5 140.5q-14 9-25.5 22t-15.5 30q-1 4-1 10.5t1 12.5 3.5 10.5 7.5 4.5 12-2 13-4q7-3 17-7t20-8.5 19.5-9.5 15.5-9q9-7 13.5-16.5t4.5-24.5z"/><path transform="translate(30.618 11.2) scale(.014 -.014)" d="m39 472q0 43 15.5 77.5t43.5 57.5 66 34.5 83 10.5q47-2 84-17.5t58-35.5q7-6 15.5-17t14-23 6-23-8.5-17q-6-5-15.5-5t-19.5 2.5-19 7-14 8.5q-21 17-49.5 27.5t-51.5 11.5q-30 1-53-5.5t-38.5-18.5-23.5-27.5-8-31.5q0-28 22-48.5t48-32.5q28-12 58.5-24.5t60.5-27.5 57-33 47.5-41.5 32.5-54 12-69.5q0-32-14-62.5t-40-55.5-63.5-41-84.5-17q-35-1-73 7t-70 26-55.5 46.5-29.5 69.5q-2 15 1 28t9 22.5 13.5 15 14.5 5.5 14-7.5 12-17 8.5-18.5 5.5-13q10-23 27-39t36.5-26 40.5-14.5 38-3.5q23 1 44 8t37 19.5 25.5 31 9.5 41.5q0 25-19.5 49.5t-49 45.5-65 38.5-67.5 29.5q-56 22-92 60.5t-36 86.5z"/><path transform="translate(37.422 11.2) scale(.014 -.014)" d="m158 235q0-31 1.5-59.5t9-51 22.5-37 41-17.5q18-2 36.5 2t33.5 11q4 1 14.5 6t21.5 8l14 4v302q-14 9-24 22t-14 30q-1 4-1 10.5t1 12.5 3.5 10.5 7.5 4.5 12-2 13-4q14-5 35.5-15t34.5-19q9-7 13.5-16.5t4.5-24.5v-341q0-13 3.5-26.5t8.5-23.5q6-14 10.5-25.5t-1.5-16.5q-3-3-10-3t-16 1.5-17.5 4-14.5 5.5q-25 13-38 34-2 4-3.5 7.5t-3.5 7.5l-13-12q-21-20-52.5-34.5t-67.5-14.5q-69 0-111 50.5t-44 158.5q0 22 1 49t0.5 55-3 55.5-9.5 50.5q-2 6-5.5 13.5t-6 14.5-2.5 13.5 5 10.5q4 3 12 2.5t17-3 17.5-5.5 12.5-6q16-10 26-25.5t15.5-34.5 7.5-41 2-44z"/><path transform="translate(44.506 11.2) scale(.014 -.014)" d="m152 358q6 9 17.5 17t25 14 28.5 9.5 27 3.5q81 0 122.5-53t41.5-162q0-25-2.5-51t-3-53 2-53 12.5-51q3-6 6.5-13.5t6.5-15 3-13.5-5-10q-4-3-12-2.5t-17 3-17.5 5.5-12.5 6q-18 12-28.5 34t-15.5 49.5-6 57-1 56.5q0 31-3 60.5t-12 53-25.5 39-42.5 18.5q-19 2-43.5-2.5t-42.5-25.5q0-54-1-108.5t-3-111.5q-1-29-8-53.5t-17.5-43-23-29-25.5-10.5q-8 0-10 20t-1.5 46.5 2 53.5 1.5 42q0 60 1.5 125.5t-3.5 140.5q-14 9-25.5 22t-15.5 30q-1 4-1 10.5t1 12.5 3.5 10.5 7.5 4.5 12-2 13-4q7-3 17-7t20-8.5 19.5-9.5 15.5-9q9-7 13.5-16.5t4.5-24.5z"/><path transform="translate(51.016 11.2) scale(.014 -.014)" d="m130 1q-30 6-46.5 16.5t-24 22-8.5 21-1 13.5q0 14 7.5 28.5t18 27.5 23 23 23.5 15q-31 21-50.5 51t-19.5 59q0 22 9.5 49t31 50 57 39 88.5 17q19 0 37.5-6.5t35.5-17.5q12 24 37 42t57 26q6 2 20 3.5t18-2.5 4.5-13.5-0.5-19.5-3.5-18.5-4.5-10.5q-5-5-16-11.5t-24-12.5-26-11-23-8q17-18 24-43t5-50q-2-30-15-56t-35-45-52-29.5-66-9.5q-12 0-15 1-14 0-27.5-6.5t-24-15.5-17-18.5-6.5-14.5q1-11 14.5-17t30.5-8l141-19q45-6 73.5-21.5t45-35 22.5-40.5 6-39q-1-36-14-67t-39.5-53.5-67.5-35-98-12.5-95 14-61 34.5-32.5 43.5-9.5 42q-1 21 9.5 45t21.5 39q9 12 19 20t18 4 5-15-5-27q-2-12-2.5-23t4.5-28q1-3 5.5-13.5t17.5-21.5 38-19.5 67-8.5q48 0 75.5 9t42 22 18 27 3.5 24q0 15-18 33t-71 29zm72 198q43 4 69.5 28.5t26.5 54.5q0 33-24.5 52.5t-63.5 19.5q-14 0-29-2.5t-27.5-9.5-21-20-9.5-33q-1-14 6.5-22.5t18.5-17.5q22-14 37-25.5t17-24.5z"/></svg>