<svg width="80.29" height="16.17" viewBox="0 0 80.29 16.17" xmlns="http://www.w3.org/2000/svg"><path transform="translate(0 12.81) scale(.014 -.014)" d="m195 15 60 15v230l-205 410-50 15v15h125q52 0 83.5-22t51.5-63l148-295 152 335-75 30v15h190v-15l-80-30-175-385v-240l60-15v-15h-285z"/><path transform="translate(9.31 12.81) scale(.014 -.014)" d="m40 250q0 81 31 141t86.5 92 127.5 32 126.5-27 84-72.5 29.5-100.5q0-25-5-43l-5-17q-43-9-93-15-105-15-212-15 0-116 32-165.5t88-49.5q39 0 72.5 18.5t53 49 19.5 62.5h25q0-40-24-76t-67-57.5-99-21.5q-128 0-199 70.5t-71 194.5zm274 5q17 1 36 5 1 5 5 22 5 25 5 53 0 83-22 121.5t-53 38.5q-75 0-75-245 64 0 104 5z"/><path transform="translate(17.15 12.81) scale(.014 -.014)" d="m164 12q-24 13-39 28-16-22-35-34-9-6-20-11h-25v170h40q13-42 38-78 53-77 132-77 42 0 63.5 20.5t21.5 59.5q0 33-29.5 55.5t-92.5 55.5q-54 27-87.5 48.5t-57 54-23.5 76.5q0 60 51.5 97.5t158.5 37.5q53 0 98-28 22-13 38-27 13 18 35 34 17 10 20 11h25v-170h-40q-15 43-37 77-50 78-119 78-27 0-46-20t-19-50q0-38 32-63.5t97-58.5q53-27 84.5-47.5t54-50.5 22.5-70q0-145-230-145-62 0-111 27z"/><path transform="translate(24.71 12.81) scale(.014 -.014)" d="m40 250q0 81 31 141t86.5 92 127.5 32 126.5-27 84-72.5 29.5-100.5q0-25-5-43l-5-17q-43-9-93-15-105-15-212-15 0-116 32-165.5t88-49.5q39 0 72.5 18.5t53 49 19.5 62.5h25q0-40-24-76t-67-57.5-99-21.5q-128 0-199 70.5t-71 194.5zm274 5q17 1 36 5 1 5 5 22 5 25 5 53 0 83-22 121.5t-53 38.5q-75 0-75-245 64 0 104 5z"/><path transform="translate(32.55 12.81) scale(.014 -.014)" d="m30 470-50 15v15h125q52 0 82.5-21.5t52.5-63.5l119-231 111 271-75 30v15h185v-15l-80-30-190-465h-30z"/><path transform="translate(40.39 12.81) scale(.014 -.014)" d="m50 120q0 39 17 77 7 18 18 33 41 10 89 18 108 18 191 22v30q0 111-27 153t-83 42q-21 0-36-5l-14-5v-150l-13-3q-16-2-27-2-34 0-54.5 20.5t-20.5 54.5q0 46 46.5 78t138.5 32q78 0 134.5-27.5t86-76 29.5-111.5v-270l60-15v-15h-90q-60 0-93 37-14 15-22 38-14-25-33-45-45-45-112-45-89 0-137 38t-48 97zm292-60q11 15 23 40v145q-46 0-88-5-31-4-42-5-5-11-10-30-10-38-10-75 0-56 17-83t43-27q37 0 67 40z"/><path transform="translate(52.78 12.81) scale(.014 -.014)" d="m45 350q0 116 40 198t113.5 124.5 171.5 42.5 171.5-42.5 113.5-124.5 40-198-40-198-113.5-124.5-171.5-42.5-171.5 42.5-113.5 124.5-40 198zm475 0q0 125-22 202t-55.5 110-72.5 33-72.5-33-55.5-110-22-202 22-202 55.5-110 72.5-33 72.5 33 55.5 110 22 202z"/><path transform="translate(63.14 12.81) scale(.014 -.014)" d="m40 15 60 15v440l-60 15v15h90q59 0 93-38 13-15 22-37 14 26 33 45 45 45 112 45 56 0 100.5-23.5t69.5-61.5 25-80v-320l60-15v-15h-130q-90 0-90 90v260q0 63-22.5 96.5t-52.5 33.5q-38 0-68-40-13-17-22-40v-370l60-15v-15h-280z"/><path transform="translate(72.45 12.81) scale(.014 -.014)" d="m40 250q0 81 31 141t86.5 92 127.5 32 126.5-27 84-72.5 29.5-100.5q0-25-5-43l-5-17q-43-9-93-15-105-15-212-15 0-116 32-165.5t88-49.5q39 0 72.5 18.5t53 49 19.5 62.5h25q0-40-24-76t-67-57.5-99-21.5q-128 0-199 70.5t-71 194.5zm274 5q17 1 36 5 1 5 5 22 5 25 5 53 0 83-22 121.5t-53 38.5q-75 0-75-245 64 0 104 5z"/></svg>