<svg width="42" height="20.272" viewBox="0 0 42 20.272" xmlns="http://www.w3.org/2000/svg"><path transform="translate(0 16.24) scale(.014 -.014)" d="m458 684q-60-180-193-396l1-247q-3-33-23-31-19 0-19 31v251q-138 227-191 388-8 30 14 39 20 9 29-18 47-151 166-350 119 181 173 354 11 27 32 21 21-9 11-42z"/><path transform="translate(7 16.24) scale(.014 -.014)" d="m272 479q58 2 104-36 48-37 69-108 22-70 4-152-18-84-78-135-61-52-139-43-81 9-127 57-45 45-59 123-14 74 12 152 24 77 81 113 56 37 133 29zm13-39q-78 5-123-26-48-31-66-94-21-64-11-125 5-31 16-56t30-45q35-39 101-45 64-6 117 37 50 42 63 110t-6 128-52 83q-15 11-32 20t-37 13z"/><path transform="translate(14 16.24) scale(.014 -.014)" d="m80 348q9 47 34 76 26 24 60 23 17-1 30.5-8.5t23.5-21.5q19-30 29-90 5 27 13 50t21 39q26 34 77 28 53-6 80-77 29-72 18-345 0-23-22-24-23 0-21 35 11 206-12 282-23 79-55 80-32 2-53-60-11-31-18.5-110t-9.5-206q-24-41-44 6-1 113-4 187t-9 110q-12 73-48 74-37 0-59-79-23-80-26-163-2-42-3-75.5t-1-57.5q-22-43-44-7l-2 453q2 34 23 34 21-1 21-26z"/><path transform="translate(21 16.24) scale(.014 -.014)" d="m272 479q58 2 104-36 48-37 69-108 22-70 4-152-18-84-78-135-61-52-139-43-81 9-127 57-45 45-59 123-14 74 12 152 24 77 81 113 56 37 133 29zm13-39q-78 5-123-26-48-31-66-94-21-64-11-125 5-31 16-56t30-45q35-39 101-45 64-6 117 37 50 42 63 110t-6 128-52 83q-15 11-32 20t-37 13z"/><path transform="translate(28 16.24) scale(.014 -.014)" d="m379 415q3 28 18 30 16 1 20-26 5-105 3-195t-11-167q-19-153-118-181-100-27-171 49-19 24-7 38t33-6q57-62 136-37t85 184q-31-29-68-40-40-11-85-5-49 6-90 47-42 43-52 116-10 71 22 137 31 66 84 87 54 23 104 16 52-8 97-47zm-21-65q-25 46-50 59-25 10-55 12-30 0-63-18-33-17-56-67-24-50-17-106 8-58 37-87 30-33 73-39 40-6 78 11 36 19 49 47 14 27 19 85 4 55-15 103z"/><path transform="translate(35 16.24) scale(.014 -.014)" d="m276 574q-35-24-70-1t-35 62 30 57q29 19 65 5 35-14 41-56 4-43-31-67zm-17-548q-7-33-31-31-25 2-20 31l-4 427q1 33 25 32 25-2 26-31z"/></svg>