<svg width="83.958" height="19.768" viewBox="0 0 83.958 19.768" xmlns="http://www.w3.org/2000/svg"><path transform="translate(0 14.644) scale(.014 -.014)" d="m769 750q15 0 15-15v-30q0-15-15-15-33 0-64.5-23t-60.5-73l-154-261q-5-7-5-19v-159q0-40 14.5-67.5t52.5-27.5h7q15 0 15-15v-30q0-15-15-15h-308q-15 0-15 15v30q0 15 15 15h6q38 0 53 27.5t15 67.5v154q0 9-6 18l-180 267q-34 50-58 73t-56 23q-15 0-15 15v30q0 15 15 15h347q15 0 15-15v-30q0-15-15-15-27 0-48.5-10.5t-21.5-36.5q0-21 17-49l117-187 108 187q22 40 22 63 0 33-46 33-15 0-15 15v30q0 15 15 15z"/><path transform="translate(11.116 14.644) scale(.014 -.014)" d="m281 513q57 0 105.5-22.5t83.5-61 54.5-86 19.5-98.5q0-74-35-132.5t-92-92-124-33.5q-57 0-105 22t-83.5 59.5-55 86-19.5 101.5q0 73 34 131t91 92 126 34zm43-445q19 0 42 10t40.5 35 17.5 69q0 35-13.5 77.5t-37 82-55 65-68.5 25.5q-41 0-71-30.5t-30-83.5q0-34 13.5-77t37-82.5 55.5-65 69-25.5z"/><path transform="translate(19.152 14.644) scale(.014 -.014)" d="m578 202q0-26 3.5-51.5t16-43 39.5-20.5q8-1 9.5-4.5t1.5-8.5v-33q0-14-14-14-49 0-81.5-5.5t-56-14-46.5-18.5q-4-2-8-2h-2q-2 0-2 3t3.5 30.5 12.5 95.5q-14-28-39-58t-60.5-50.5-81.5-20.5q-54 0-87.5 16.5t-51.5 44-24.5 62-6.5 70.5v165q0 41-18.5 68t-55.5 27h-4q-15 0-15 15v30q0 15 15 15h203q15 0 15-15v-311q0-27 5-49.5t20.5-36 46.5-13.5q25 0 50 12.5t44.5 32 27.5 40.5v185q0 41-18.5 68t-54.5 27h-2q-15 0-15 15v30q0 15 15 15h201q15 0 15-15z"/><path transform="translate(28.378 14.644) scale(.014 -.014)" d="m579 326v-171q0-55 17.5-75t46.5-20h8q15 0 15-15v-30q0-15-15-15h-266q-15 0-15 15v30q0 15 15 15h7q21 0 34 20t13 75v171q0 48-15 73.5t-57 25.5q-25 0-50-12.5t-44-32-28-41.5v-184q0-40 17.5-67.5t46.5-27.5h2q15 0 15-15v-30q0-15-15-15h-281q-15 0-15 15v30q0 15 15 15h2q37 0 55 27.5t18 67.5v126q0 27-3.5 52t-16 42.5-40.5 20.5q-11 1-11 13v34q0 10 14 13 72 11 123.5 34t71.5 37q5 4 8 4h1q2 0 2-2t-1-8l-17-123q14 23 37 49.5t57 46 79 19.5q54 0 88-16t51.5-43 24-60 6.5-68z"/><path transform="translate(37.912 14.644) scale(.014 -.014)" d="m506 530q4 1 8 1 5 0 5-15 0-49-18.5-76t-52.5-27q24-40 24-92 0-53-26.5-96.5t-75.5-69-118-25.5q-70 0-121 28-13-10-13-25t11-25.5 42.5-17 92.5-9.5q44-2 85.5-9t74.5-22.5 52.5-43.5 19.5-73q0-41-21.5-69.5t-58-45.5-80.5-25-89-8q-61 0-112.5 13t-83 40-31.5 69q0 33 17.5 56.5t42.5 37.5q-51 32-51 91 0 34 17.5 58t44.5 35q-59 54-59 136 0 53 26.5 96.5t76 69.5 117.5 26q42 0 76.5-10.5t61.5-28.5q5-3 8.5-3.5t5.5-0.5q8 0 13 5.5t5 20.5v3q0 13 11 15zm-254-77q-38 0-59.5-21t-30-51.5-8.5-59.5 8.5-59.5 30-51.5 59.5-21 57.5 21 26.5 51.5 7 59.5-7 59.5-26.5 51.5-57.5 21zm-4-599q74 0 113.5 14t39.5 37q0 32-42 42.5t-118 14.5q-54 3-93 12-28-19-28-53 0-15 11-30.5t39-26 78-10.5z"/><path transform="translate(48.72 14.644) scale(.014 -.014)" d="m619 523q-3-1-6-2.5t-6-1.5q-8 0-17 12-64 80-126 115t-128 35q-40 0-68.5-21t-28.5-66q0-37 23-61t59.5-39.5 74.5-26.5q57-16 112.5-36t100.5-47.5 72-67 27-95.5q0-68-34.5-121t-99.5-83-157-30q-45 0-84.5 11.5t-76.5 29.5q-8 4-15 4-9 0-9-10 0-3 2-11 3-7 3-12 0-11-17-11h-50q-18 0-25 14l-121 227q-4 8-4 12 0 11 11 17l44 25q3 2 6 3t6 1q10 0 17-12 68-103 150.5-153t168.5-50q65 0 100 29.5t35 74.5q0 44-22 69t-68 42-118 38q-49 14-97 34t-87 48.5-62.5 68-23.5 93.5q0 66 33.5 109t90.5 63.5 129 20.5q56 0 95-14t60-26q17-10 23-10 5 0 5 6 0 5-2.5 14t-2.5 19q0 15 18 15h36q18 0 25-17l70-179q2-4 3-7.5t1-6.5q0-9-11-15z"/><path transform="translate(58.842 14.644) scale(.014 -.014)" d="m175 179q17-42 54.5-75t95.5-33q32 0 67 18t61 56q3 5 8 5t10.5-3 29.5-17q4-3 4-8 0-7-6-17-28-52-76-85t-125-33q-83 0-143 37t-92.5 98-32.5 133q0 69 20.5 118.5t54.5 80 76.5 45 86.5 14.5q50 0 88-19.5t64.5-49.5 40-63.5 13.5-62.5q0-8-9-12zm149 143q0 48-23 79t-58 31q-41 0-65-32.5t-24-81.5q0-15 1.5-37t7.5-40z"/><path transform="translate(66.052 14.644) scale(.014 -.014)" d="m231 395q27 58 75 88t101 30q47 0 80-26t33-77q0-22-4-39t-22-25l-94-38q-6-2-9-2-9 0-9 9 0 3 2 9 6 14 7.5 27t1.5 23q0 27-13.5 39.5t-33.5 12.5q-23 0-43-14t-35-34-22-39v-184q0-40 18-67.5t55-27.5h2q15 0 15-15v-30q0-15-15-15h-291q-15 0-15 15v30q0 15 15 15h2q37 0 55 27.5t18 67.5v126q0 27-3.5 52t-15.5 42.5-40 20.5q-12 1-12 13v34q0 10 15 13 71 11 124.5 35t72.5 38q3 2 5 2h2q2 0 2-2 0-1-2.5-15t-6-35.5-8-44-7.5-39.5z"/><path transform="translate(73.472 14.644) scale(.014 -.014)" d="m317 60q15 0 15-15v-30q0-15-17-15h-283q-17 0-17 15v30q0 15 15 15h2q37 0 54.5 27.5t17.5 67.5v106q0 23-3.5 46t-15.5 40-40 20q-12 1-12 13v34q0 6 4 8.5t11 4.5q79 26 121.5 53.5t62.5 48.5q2 2 4 2h3q2 0 2-2v-373q0-40 18-68t55-28zm-143 680q26 0 51-25t25-50-25-50-51-25q-24 0-50 25-25 24-25 50 0 25 25 50t50 25z"/><path transform="translate(78.33 14.644) scale(.014 -.014)" d="m109 508q0 45 11 95.5t36.5 95 69 73 109.5 28.5q80 0 118.5-30.5t38.5-75.5q0-26-10-50-3-7-8.5-12t-16.5-7q-18-4-42.5-9.5t-44-9.5-22.5-4q-6 0-6 9 0 5 3 11 19 38 19 66t-14.5 42.5-32.5 14.5q-24 0-42-22-19-22-25.5-61t-6.5-96v-66h134q15 0 15-15v-43q0-15-15-15h-134v-272q0-40 18.5-67.5t55.5-27.5q15 0 15-15v-30q0-15-15-15h-282q-15 0-15 15v30q0 15 15 15 37 0 55 27.5t18 67.5v171q0 27-3 53.5t-18.5 43.5-51.5 17q-15 0-15 15v30q0 15 15 15h74z"/></svg>