<svg width="90.244" height="18.802" viewBox="0 0 90.244 18.802" xmlns="http://www.w3.org/2000/svg"><path transform="translate(0 14.756) scale(.014 -.014)" d="m293 248-266 410h91l224-366zm-15-248v293h75v-293zm62 251-41 41 227 366h79z"/><path transform="translate(8.848 14.756) scale(.014 -.014)" d="m182-9q-30 0-57.5 5.5t-49.5 15-38 19.5l20 56q24-22 59.5-35.5t68.5-13.5q41 0 64.5 20.5t23.5 48.5q0 25-15.5 40.5t-40 25.5-51.5 19.5-51.5 23-40.5 35-16 55.5q0 39 20 65t52 39 72 13q30 0 61.5-7.5t54.5-22.5l-20-53q-19 19-48 28.5t-52 9.5q-37 0-57.5-17t-20.5-42q0-23 16-38t40.5-24.5 52-19.5 52-23.5 40.5-36 16-57.5q0-26-10.5-49.5t-30.5-41.5-49-28-65-10z"/><path transform="translate(14.14 14.756) scale(.014 -.014)" d="m234-6q-58 0-101 26.5t-67 72.5-24 104q0 64 28.5 115t77 80 107.5 29q36 0 65.5-11.5t52.5-34 37-56.5l-19-31q-20 41-52.5 62t-74.5 21q-43 0-77-21t-53-58.5-19-87.5q0-46 16.5-82.5t46.5-57.5 72-21q37 0 74.5 19.5t64.5 67.5l28-17q-22-40-49.5-66.5t-61-39.5-72.5-13zm161 0-11 93v235l11 86 57 12v-414z"/><path transform="translate(21.546 14.756) scale(.014 -.014)" d="m249-6q-50 0-96.5 13.5t-69.5 37.5l67 36q20-20 52.5-30.5t66.5-10.5q47 0 79 21.5t48 58 16 81.5q0 52-17 89.5t-47 57.5-71 20q-37 0-77-23t-67-73l-24 32q23 35 52.5 61t64.5 40.5 76 14.5q39 0 72-13.5t58-39.5 39-62.5 14-83.5q0-60-26.5-112t-79-83.5-130.5-31.5zm-166 51v660l67 12v-636z"/><path transform="translate(28.924 14.756) scale(.014 -.014)" d="m247-9q-59 0-104 24.5t-70.5 70-25.5 107.5q0 69 28.5 120.5t77 80 109.5 28.5q74 0 111-42t37-115q0-8-0.5-17.5t-1.5-17.5h-59v35q0 54-22 81.5t-69 27.5q-44 0-77-21.5t-51-59.5-18-91q0-72 41-114.5t107-42.5q34 0 65 12t60 39l25-37q-27-25-54.5-40t-54.5-21.5-54-6.5zm-162 239 9 43h305v-43z"/><path transform="translate(35.308 14.756) scale(.014 -.014)" d="m234-6q-58 0-101 26.5t-67 72.5-24 104q0 64 28.5 115t77 80 107.5 29q36 0 65.5-11.5t52.5-34 37-56.5l-19-31q-20 41-52.5 62t-74.5 21q-43 0-77-21t-53-58.5-19-87.5q0-46 16.5-82.5t46.5-57.5 72-21q37 0 74.5 19.5t64.5 67.5l28-17q-22-40-49.5-66.5t-61-39.5-72.5-13zm161 0-11 93v235l11 86 57 12v-414z"/><path transform="translate(42.714 14.756) scale(.014 -.014)" d="m219-5q-62 0-101.5 41.5t-39.5 114.5v257l68 12v-247q0-59 26.5-93t74.5-34q26 0 53 10.5t51.5 33 40.5 57.5l25-23q-22-44-54.5-72.5t-69.5-42.5-74-14zm168-1-12 102v312l69 12v-414z"/><path transform="translate(53.466 14.756) scale(.014 -.014)" d="M116 0V658H193V0Z"/><path transform="translate(57.792 14.756) scale(.014 -.014)" d="m384 0v240q0 61-27 94.5t-77 33.5q-26 0-54.5-10.5t-54-32.5-43.5-57l-23 23q23 45 56.5 73.5t72 42 73.5 13.5q44 0 76.5-18.5t50.5-53.5 18-85v-263zm-306 0v408l56 12 12-99v-321z"/><path transform="translate(65.212 14.756) scale(.014 -.014)" d="m114 0v428q0 94 29 156.5t81.5 94.5 120.5 32q31 0 59.5-8t51.5-24l-29-51q-21 15-47.5 24.5t-55.5 9.5q-46 0-74-21t-42.5-54-20-70.5-5.5-70.5v-446zm-85 358 5 45 313 4-5-50z"/><path transform="translate(70.098 14.756) scale(.014 -.014)" d="m234-6q-58 0-101 26.5t-67 72.5-24 104q0 64 28.5 115t77 80 107.5 29q36 0 65.5-11.5t52.5-34 37-56.5l-19-31q-20 41-52.5 62t-74.5 21q-43 0-77-21t-53-58.5-19-87.5q0-46 16.5-82.5t46.5-57.5 72-21q37 0 74.5 19.5t64.5 67.5l28-17q-22-40-49.5-66.5t-61-39.5-72.5-13zm161 0-11 93v235l11 86 57 12v-414z"/><path transform="translate(77.504 14.756) scale(.014 -.014)" d="m384 0v240q0 61-27 94.5t-77 33.5q-26 0-54.5-10.5t-54-32.5-43.5-57l-23 23q23 45 56.5 73.5t72 42 73.5 13.5q44 0 76.5-18.5t50.5-53.5 18-85v-263zm-306 0v408l56 12 12-99v-321z"/><path transform="translate(84.924 14.756) scale(.014 -.014)" d="m234-7q-36 0-65 15t-45 43-16 69v274l23 108 46 9v-380q0-43 20-65t55-22q22 0 44 8t43 25l20-33q-28-26-60.5-38.5t-64.5-12.5zm103 364-313 1 5 45 311 4z"/></svg>