<?xml version="1.0" encoding="utf-8" ?>
<svg baseProfile="tiny" height="100%" version="1.2" width="100%" xmlns="http://www.w3.org/2000/svg" xmlns:ev="http://www.w3.org/2001/xml-events" xmlns:xlink="http://www.w3.org/1999/xlink"><defs /><g><path d="M486 -171Q379 -171 336 -80Q331 -70 330.5 -50.0Q330 -30 334.5 -10.0Q339 10 351.0 23.0Q363 36 382 31Q400 27 400.5 12.0Q401 -3 398 -20Q396 -31 394.5 -42.0Q393 -53 395 -63Q403 -99 431.0 -112.5Q459 -126 494.0 -121.5Q529 -117 560.0 -96.5Q591 -76 604 -44Q619 -13 626.0 28.5Q633 70 638 114Q641 140 644.5 165.5Q648 191 653 215Q634 207 612.5 186.0Q591 165 576 155Q536 130 489.0 118.5Q442 107 396.5 111.5Q351 116 314.5 138.0Q278 160 258.0 201.0Q238 242 243 304Q245 333 252.5 363.0Q260 393 269 424Q274 440 278.0 456.0Q282 472 286 489Q287 494 288.5 498.5Q290 503 291 508Q298 536 304.0 566.5Q310 597 309.5 624.5Q309 652 297 671Q278 700 244.5 702.5Q211 705 178 693Q154 684 133.0 662.5Q112 641 97.5 612.5Q83 584 78.5 554.5Q74 525 81 499Q89 473 105.0 461.0Q121 449 145 437Q156 431 169.5 424.0Q183 417 196 408Q183 381 156.5 377.5Q130 374 101.0 389.5Q72 405 48 434Q21 469 18.5 513.0Q16 557 32.5 601.5Q49 646 78 682Q109 719 149.0 741.5Q189 764 234.0 762.5Q279 761 323 727Q361 697 367.0 652.5Q373 608 361.0 555.5Q349 503 334 451L333 449Q323 415 313.5 381.5Q304 348 301 319Q292 237 329.5 196.0Q367 155 444 164Q527 173 589.0 229.0Q651 285 679 375Q695 423 702.5 472.5Q710 522 717 573Q722 614 728.0 655.5Q734 697 744 740Q748 757 765.0 762.0Q782 767 786 757Q801 723 796.0 683.0Q791 643 782 601V600Q779 585 776.0 569.5Q773 554 771 538Q764 493 757.0 450.0Q750 407 742 365Q733 311 723.5 255.5Q714 200 705 137Q696 82 686.0 27.5Q676 -27 655.0 -72.0Q634 -117 594.0 -144.0Q554 -171 486 -171Z" transform="translate(0.0, 72) scale(0.072, -0.072)" /><path d="M303 -44Q254 -42 210.5 -18.5Q167 5 140.0 50.5Q113 96 112 164Q112 201 117.5 240.0Q123 279 130 316Q130 317 131 320Q138 363 143.0 404.0Q148 445 143 480Q139 511 128.0 520.5Q117 530 94 527Q94 527 93 527Q84 526 73.0 527.0Q62 528 57 538Q48 547 52.0 560.5Q56 574 68 575Q99 587 127.5 580.5Q156 574 176.0 552.0Q196 530 201 497Q207 459 201.0 413.5Q195 368 187 321V319Q187 318 186 316Q179 268 173.5 221.0Q168 174 172.5 132.5Q177 91 199 60Q222 28 256.5 16.5Q291 5 329.0 10.0Q367 15 402.0 34.0Q437 53 461 81Q483 108 505.0 149.0Q527 190 532 227Q534 237 534.0 249.5Q534 262 533 275V276Q532 285 532.0 294.5Q532 304 532 313Q533 330 534.5 348.0Q536 366 537 385Q539 399 539.5 413.0Q540 427 541 440Q542 447 542.0 454.0Q542 461 543 468Q543 469 543 474Q542 484 542.0 502.0Q542 520 545.0 539.0Q548 558 556.5 570.0Q565 582 582 578Q600 574 602.0 535.5Q604 497 598 414Q597 407 597.0 401.5Q597 396 597 390Q596 374 595.0 358.5Q594 343 592 330Q591 308 589.5 288.5Q588 269 588 252Q588 199 591.5 146.0Q595 93 606.0 55.5Q617 18 640 9Q642 8 645.0 7.5Q648 7 654 6H660Q672 6 687.0 2.5Q702 -1 703 -19Q703 -38 689.0 -43.5Q675 -49 655.0 -46.0Q635 -43 617.5 -36.5Q600 -30 594 -25Q571 -8 559.0 26.5Q547 61 538 95Q529 88 522.5 78.5Q516 69 510 60Q495 38 487 29Q449 -9 400.5 -27.5Q352 -46 303 -44Z" transform="translate(61.70399999999999, 72) scale(0.072, -0.072)" /><path d="M376 10Q345 -21 302.5 -34.0Q260 -47 215.0 -43.5Q170 -40 131.0 -21.5Q92 -3 67.0 29.5Q42 62 40 108Q35 175 82 234Q114 276 136.5 288.0Q159 300 187 289Q191 270 185.5 257.5Q180 245 157 231Q143 222 138 217Q94 168 97 111Q99 57 140.0 30.0Q181 3 251 11Q297 16 324.5 41.5Q352 67 366.5 107.0Q381 147 386.5 197.5Q392 248 394 304Q396 360 401.0 411.0Q406 462 420 508Q404 514 377.0 514.0Q350 514 319 512H317H292Q287 512 282.5 512.0Q278 512 274 512Q265 512 257.0 512.0Q249 512 242 512Q117 518 170 608L175 609Q206 615 209 581Q210 576 211.0 573.0Q212 570 213 568Q256 565 317.0 564.5Q378 564 442 565Q480 565 505.0 565.5Q530 566 540 566H547Q588 568 605.5 563.5Q623 559 626 545Q629 527 616.0 520.5Q603 514 582.0 513.5Q561 513 541 514H540Q498 517 485 514Q463 467 457.0 410.5Q451 354 449 291Q447 236 442.5 183.5Q438 131 423.5 86.5Q409 42 376 10Z" transform="translate(114.47999999999999, 72) scale(0.072, -0.072)" /><path d="M260 -8Q228 -32 194.5 -33.0Q161 -34 131.0 -18.0Q101 -2 78.0 23.0Q55 48 44 76Q29 111 27.0 134.5Q25 158 39 172L41 174Q64 173 73.5 163.0Q83 153 90 121Q92 114 93.5 108.0Q95 102 97 97Q106 76 122.5 57.0Q139 38 159.5 27.5Q180 17 201.0 20.5Q222 24 239 48Q211 74 190.0 118.0Q169 162 156.5 217.0Q144 272 141.0 331.0Q138 390 145.5 446.0Q153 502 173.0 548.0Q193 594 225 622Q253 647 277.0 647.0Q301 647 320.0 630.0Q339 613 353.0 585.5Q367 558 375.0 526.5Q383 495 385 467Q390 401 384.0 329.0Q378 257 362.0 189.5Q346 122 320.5 70.0Q295 18 260 -8ZM268 98Q293 140 308.5 198.5Q324 257 330.5 325.5Q337 394 332 463Q331 476 326.5 499.0Q322 522 314.5 545.0Q307 568 297.0 581.0Q287 594 274 586Q239 565 220.0 518.5Q201 472 195.5 412.0Q190 352 197.5 291.0Q205 230 223.0 178.5Q241 127 268 98Z" transform="translate(158.112, 72) scale(0.072, -0.072)" /><path d="M93 -32Q87 -9 97.5 6.5Q108 22 121 35Q122 36 122 37Q136 51 143 62Q182 127 203.0 209.5Q224 292 235 388Q222 396 204.5 397.0Q187 398 167 398Q142 398 117.0 401.5Q92 405 77 423Q63 441 64.5 458.5Q66 476 76.0 488.5Q86 501 98.5 503.5Q111 506 121.0 495.0Q131 484 131 454Q154 448 182.0 447.5Q210 447 235 451Q243 546 223.5 609.0Q204 672 163 682Q154 685 137 682Q105 677 85 690Q76 713 88.0 724.0Q100 735 121.0 737.5Q142 740 162.5 738.0Q183 736 191 733Q226 722 247.0 692.0Q268 662 279.0 621.5Q290 581 295.0 537.5Q300 494 303 455Q347 449 400.0 447.5Q453 446 507.5 447.5Q562 449 613 451Q620 451 626.5 451.5Q633 452 640 452Q654 543 671.5 604.5Q689 666 719.5 702.5Q750 739 803 754Q829 744 829.0 731.0Q829 718 816.0 704.5Q803 691 789 680L788 679Q742 642 727.0 586.0Q712 530 702 460Q710 450 726.0 447.5Q742 445 777 448Q803 450 826.0 448.5Q849 447 853 427Q856 409 844.0 402.5Q832 396 811.5 395.5Q791 395 770 396Q767 396 765 396Q747 398 731.0 398.0Q715 398 706 395Q700 327 709.0 253.5Q718 180 729 109Q730 99 731.5 88.5Q733 78 735 68Q736 64 736.0 60.5Q736 57 737 52Q745 9 741.0 -10.5Q737 -30 717 -32Q702 -33 693.0 -18.5Q684 -4 678.0 32.0Q672 68 664 132Q662 150 658.0 184.5Q654 219 649.5 259.0Q645 299 642.0 334.5Q639 370 639 390Q594 396 541.0 397.5Q488 399 433.0 397.5Q378 396 328 394Q321 394 314.5 393.5Q308 393 302 393Q289 331 274.5 266.0Q260 201 239.5 140.0Q219 79 187 28Q168 -3 154.5 -19.0Q141 -35 127.5 -37.5Q114 -40 93 -32Z" transform="translate(209.16, 72) scale(0.072, -0.072)" /><path d="M326 -21Q264 -18 207.0 3.5Q150 25 112.5 66.5Q75 108 70 169Q62 266 157 335Q156 336 155.0 337.0Q154 338 153 339Q149 342 145.0 345.5Q141 349 134 353Q111 370 90.5 391.5Q70 413 67 450Q63 494 88.5 531.0Q114 568 162.0 591.5Q210 615 271 617Q318 619 366.5 608.5Q415 598 456.5 578.5Q498 559 522 533Q532 523 541.0 505.0Q550 487 553.5 467.0Q557 447 548.0 432.0Q539 417 513 412H508Q496 421 493.5 429.5Q491 438 495 451Q498 466 497 472Q493 492 470.0 508.5Q447 525 414.5 537.5Q382 550 347.5 556.5Q313 563 286 563Q252 563 216.0 551.5Q180 540 153.5 520.0Q127 500 120.5 473.5Q114 447 139 418Q161 393 207.0 376.5Q253 360 312 356Q319 356 326.0 356.5Q333 357 340 358Q382 365 402 348L403 344Q399 313 376.0 305.5Q353 298 295 306Q294 306 293 306Q282 308 272.5 309.0Q263 310 255 309Q200 308 163.5 273.5Q127 239 125 189Q123 135 151.5 100.0Q180 65 227.5 48.5Q275 32 329 31Q394 30 452.5 51.5Q511 73 540 110Q541 111 543.0 115.0Q545 119 549 130Q562 158 571.0 169.0Q580 180 590 180Q613 181 617.0 162.5Q621 144 605 111Q588 79 566 57Q527 18 463.5 -2.5Q400 -23 326 -21Z" transform="translate(274.96799999999996, 72) scale(0.072, -0.072)" /><path d="M66 -110Q20 -126 -9.0 -123.5Q-38 -121 -40 -99Q-43 -72 35 -63Q58 -59 77.0 -46.5Q96 -34 106 -16Q124 12 129.5 55.5Q135 99 133.5 151.0Q132 203 129 258Q129 264 129 267Q124 346 123.5 420.5Q123 495 144 545Q176 625 230 601Q238 585 236.0 576.5Q234 568 214 549Q206 542 200.0 535.5Q194 529 194 518Q195 502 214.0 482.0Q233 462 253 442Q280 415 317.0 373.0Q354 331 393.5 282.5Q433 234 469.0 188.5Q505 143 529 110Q525 331 563.0 475.0Q601 619 678 680Q699 698 720 677Q721 670 721.0 665.5Q721 661 720 658Q719 651 712.5 643.5Q706 636 691 618Q656 576 633.5 511.5Q611 447 599.5 369.0Q588 291 586.0 208.5Q584 126 590 48Q591 44 591.5 39.0Q592 34 593 29Q598 -7 595.0 -22.0Q592 -37 576 -51Q559 -48 550.0 -40.0Q541 -32 526 -4Q523 1 520.5 4.5Q518 8 516 12Q458 108 374.5 215.0Q291 322 187 432Q176 389 177.5 335.0Q179 281 183 224Q187 170 188.0 117.5Q189 65 180.0 20.0Q171 -25 145 -57Q142 -60 130.0 -70.5Q118 -81 101.0 -92.0Q84 -103 66 -110Z" transform="translate(322.84799999999996, 72) scale(0.072, -0.072)" /><path d="M260 -49Q220 -46 190.0 -26.0Q160 -6 144.0 24.0Q128 54 128.0 89.0Q128 124 148 157Q149 158 150 160Q155 168 166.0 181.0Q177 194 191.0 200.0Q205 206 220 192Q230 183 225.5 170.0Q221 157 202 131Q183 106 182 97Q176 52 210.5 25.0Q245 -2 301 5Q335 9 367.5 29.5Q400 50 419 79Q447 122 453.0 181.5Q459 241 461 308Q462 361 465.5 416.5Q469 472 484 524Q474 524 464.5 524.5Q455 525 444 526Q434 527 424.0 527.5Q414 528 403 528Q401 528 397 528Q344 532 288.5 533.5Q233 535 186.5 528.5Q140 522 113.5 501.5Q87 481 91 441Q95 408 131.5 386.5Q168 365 217 368Q229 369 240.0 372.5Q251 376 261 380Q286 389 300.0 389.5Q314 390 324 382L325 379Q326 353 308.0 339.5Q290 326 267.0 321.0Q244 316 229 314Q192 311 154.5 321.5Q117 332 88.0 352.0Q59 372 47 397Q26 440 33.0 473.5Q40 507 65.5 531.0Q91 555 127.0 568.0Q163 581 200 584Q264 589 342.5 589.5Q421 590 503.5 588.5Q586 587 663 585Q676 585 689.0 584.5Q702 584 715 584Q717 584 722 584Q740 584 758.5 581.0Q777 578 778 559Q782 524 692 530Q689 531 677.0 531.0Q665 531 651.5 531.5Q638 532 630 532Q609 534 591.0 534.0Q573 534 562 531Q544 527 535.0 506.0Q526 485 522.5 458.0Q519 431 517 407Q516 391 516.0 375.0Q516 359 515 343Q515 335 514.5 327.0Q514 319 514 311Q512 237 505.5 170.0Q499 103 466 50Q450 25 420.5 0.5Q391 -24 351.0 -38.5Q311 -53 260 -49Z" transform="translate(374.75999999999993, 72) scale(0.072, -0.072)" /><path d="M95 -24Q80 -20 76.0 -3.0Q72 14 73.5 34.5Q75 55 77 68Q78 72 78 73Q86 146 105.5 203.5Q125 261 147 314Q140 316 133.0 316.5Q126 317 118 318Q93 321 68.5 328.0Q44 335 37 362Q33 384 41.0 399.0Q49 414 65 414Q79 414 86.5 403.0Q94 392 94 375Q98 374 106 373Q125 369 145.0 367.0Q165 365 182 372Q193 377 215.0 406.5Q237 436 265 468Q303 511 379.0 560.5Q455 610 554 644Q562 647 573.0 644.0Q584 641 593 629Q593 604 589.0 577.5Q585 551 580 525Q579 521 578.5 516.0Q578 511 577 507Q572 475 567.5 438.0Q563 401 566 372Q571 368 581.5 367.5Q592 367 614 369Q646 371 659.0 367.0Q672 363 675 348Q678 331 668.0 324.5Q658 318 641.5 317.5Q625 317 609 318H608H606Q593 319 581.0 319.0Q569 319 561 317Q554 271 556.0 215.5Q558 160 569 98Q571 90 573.0 81.0Q575 72 577 64Q588 27 589.0 8.5Q590 -10 581 -19L580 -20Q560 -26 549.5 -16.5Q539 -7 533.5 9.5Q528 26 525 41Q525 42 525 43Q524 47 523.5 51.0Q523 55 523 59Q512 108 507.0 174.0Q502 240 505 309Q479 312 441.0 314.5Q403 317 361.5 318.0Q320 319 281 317Q265 316 249.0 315.5Q233 315 219 315Q197 286 177.5 242.5Q158 199 145.0 148.5Q132 98 128 49Q127 43 127 29Q127 17 125.5 3.0Q124 -11 117.5 -19.0Q111 -27 95 -24ZM265 374Q300 370 343.0 368.5Q386 367 429.0 368.5Q472 370 506 375Q508 392 510.5 410.5Q513 429 517 451Q522 483 526.0 514.0Q530 545 529 573Q446 543 379.0 489.5Q312 436 265 374Z" transform="translate(428.3999999999999, 72) scale(0.072, -0.072)" /><path d="M260 -8Q228 -32 194.5 -33.0Q161 -34 131.0 -18.0Q101 -2 78.0 23.0Q55 48 44 76Q29 111 27.0 134.5Q25 158 39 172L41 174Q64 173 73.5 163.0Q83 153 90 121Q92 114 93.5 108.0Q95 102 97 97Q106 76 122.5 57.0Q139 38 159.5 27.5Q180 17 201.0 20.5Q222 24 239 48Q211 74 190.0 118.0Q169 162 156.5 217.0Q144 272 141.0 331.0Q138 390 145.5 446.0Q153 502 173.0 548.0Q193 594 225 622Q253 647 277.0 647.0Q301 647 320.0 630.0Q339 613 353.0 585.5Q367 558 375.0 526.5Q383 495 385 467Q390 401 384.0 329.0Q378 257 362.0 189.5Q346 122 320.5 70.0Q295 18 260 -8ZM268 98Q293 140 308.5 198.5Q324 257 330.5 325.5Q337 394 332 463Q331 476 326.5 499.0Q322 522 314.5 545.0Q307 568 297.0 581.0Q287 594 274 586Q239 565 220.0 518.5Q201 472 195.5 412.0Q190 352 197.5 291.0Q205 230 223.0 178.5Q241 127 268 98Z" transform="translate(480.0239999999999, 72) scale(0.072, -0.072)" /><path d="M289 -85Q270 -83 249.0 -75.5Q228 -68 218 -59Q193 -37 185.5 -10.0Q178 17 188.5 39.5Q199 62 227 68L230 67Q239 58 240.5 46.5Q242 35 241 24Q241 23 241 22Q240 15 240.0 10.0Q240 5 242 -1Q249 -23 274.0 -31.5Q299 -40 333 -33Q372 -23 391.5 9.0Q411 41 419.5 85.5Q428 130 433 175Q434 181 434.5 186.5Q435 192 436 198Q437 204 438.0 210.0Q439 216 440 221Q436 219 432.0 214.5Q428 210 425 206Q423 203 420.5 200.5Q418 198 417 197Q396 175 364.0 156.5Q332 138 294.0 128.5Q256 119 217.5 124.5Q179 130 145 155Q47 227 58 364Q64 437 105.5 496.0Q147 555 211 589Q273 621 348.5 623.5Q424 626 499 586Q596 536 583 481L571 475Q547 476 534.0 487.5Q521 499 510 511Q504 519 498.5 524.0Q493 529 487 533Q434 567 359 567Q289 568 233.0 537.5Q177 507 144.5 454.0Q112 401 112 334Q112 258 153.5 215.0Q195 172 267 176Q302 178 333.5 195.5Q365 213 390.5 240.0Q416 267 433.5 296.0Q451 325 458 349Q462 365 462 380V391Q462 430 471.0 445.0Q480 460 502 455Q519 450 519.5 433.0Q520 416 518 401Q517 396 517 394Q515 368 511.5 338.5Q508 309 504 279Q502 264 500.0 249.0Q498 234 496 219Q495 211 494.0 203.5Q493 196 492 187Q485 140 475.0 89.5Q465 39 445.0 -3.0Q425 -45 387.5 -68.5Q350 -92 289 -85Z" transform="translate(513.0719999999999, 72) scale(0.072, -0.072)" /><path d="M95 -24Q80 -20 76.0 -3.0Q72 14 73.5 34.5Q75 55 77 68Q78 72 78 73Q86 146 105.5 203.5Q125 261 147 314Q140 316 133.0 316.5Q126 317 118 318Q93 321 68.5 328.0Q44 335 37 362Q33 384 41.0 399.0Q49 414 65 414Q79 414 86.5 403.0Q94 392 94 375Q98 374 106 373Q125 369 145.0 367.0Q165 365 182 372Q193 377 215.0 406.5Q237 436 265 468Q303 511 379.0 560.5Q455 610 554 644Q562 647 573.0 644.0Q584 641 593 629Q593 604 589.0 577.5Q585 551 580 525Q579 521 578.5 516.0Q578 511 577 507Q572 475 567.5 438.0Q563 401 566 372Q571 368 581.5 367.5Q592 367 614 369Q646 371 659.0 367.0Q672 363 675 348Q678 331 668.0 324.5Q658 318 641.5 317.5Q625 317 609 318H608H606Q593 319 581.0 319.0Q569 319 561 317Q554 271 556.0 215.5Q558 160 569 98Q571 90 573.0 81.0Q575 72 577 64Q588 27 589.0 8.5Q590 -10 581 -19L580 -20Q560 -26 549.5 -16.5Q539 -7 533.5 9.5Q528 26 525 41Q525 42 525 43Q524 47 523.5 51.0Q523 55 523 59Q512 108 507.0 174.0Q502 240 505 309Q479 312 441.0 314.5Q403 317 361.5 318.0Q320 319 281 317Q265 316 249.0 315.5Q233 315 219 315Q197 286 177.5 242.5Q158 199 145.0 148.5Q132 98 128 49Q127 43 127 29Q127 17 125.5 3.0Q124 -11 117.5 -19.0Q111 -27 95 -24ZM265 374Q300 370 343.0 368.5Q386 367 429.0 368.5Q472 370 506 375Q508 392 510.5 410.5Q513 429 517 451Q522 483 526.0 514.0Q530 545 529 573Q446 543 379.0 489.5Q312 436 265 374Z" transform="translate(557.1359999999999, 72) scale(0.072, -0.072)" /><path d="M66 -110Q20 -126 -9.0 -123.5Q-38 -121 -40 -99Q-43 -72 35 -63Q58 -59 77.0 -46.5Q96 -34 106 -16Q124 12 129.5 55.5Q135 99 133.5 151.0Q132 203 129 258Q129 264 129 267Q124 346 123.5 420.5Q123 495 144 545Q176 625 230 601Q238 585 236.0 576.5Q234 568 214 549Q206 542 200.0 535.5Q194 529 194 518Q195 502 214.0 482.0Q233 462 253 442Q280 415 317.0 373.0Q354 331 393.5 282.5Q433 234 469.0 188.5Q505 143 529 110Q525 331 563.0 475.0Q601 619 678 680Q699 698 720 677Q721 670 721.0 665.5Q721 661 720 658Q719 651 712.5 643.5Q706 636 691 618Q656 576 633.5 511.5Q611 447 599.5 369.0Q588 291 586.0 208.5Q584 126 590 48Q591 44 591.5 39.0Q592 34 593 29Q598 -7 595.0 -22.0Q592 -37 576 -51Q559 -48 550.0 -40.0Q541 -32 526 -4Q523 1 520.5 4.5Q518 8 516 12Q458 108 374.5 215.0Q291 322 187 432Q176 389 177.5 335.0Q179 281 183 224Q187 170 188.0 117.5Q189 65 180.0 20.0Q171 -25 145 -57Q142 -60 130.0 -70.5Q118 -81 101.0 -92.0Q84 -103 66 -110Z" transform="translate(608.7599999999999, 72) scale(0.072, -0.072)" /><path d="M95 -24Q80 -20 76.0 -3.0Q72 14 73.5 34.5Q75 55 77 68Q78 72 78 73Q86 146 105.5 203.5Q125 261 147 314Q140 316 133.0 316.5Q126 317 118 318Q93 321 68.5 328.0Q44 335 37 362Q33 384 41.0 399.0Q49 414 65 414Q79 414 86.5 403.0Q94 392 94 375Q98 374 106 373Q125 369 145.0 367.0Q165 365 182 372Q193 377 215.0 406.5Q237 436 265 468Q303 511 379.0 560.5Q455 610 554 644Q562 647 573.0 644.0Q584 641 593 629Q593 604 589.0 577.5Q585 551 580 525Q579 521 578.5 516.0Q578 511 577 507Q572 475 567.5 438.0Q563 401 566 372Q571 368 581.5 367.5Q592 367 614 369Q646 371 659.0 367.0Q672 363 675 348Q678 331 668.0 324.5Q658 318 641.5 317.5Q625 317 609 318H608H606Q593 319 581.0 319.0Q569 319 561 317Q554 271 556.0 215.5Q558 160 569 98Q571 90 573.0 81.0Q575 72 577 64Q588 27 589.0 8.5Q590 -10 581 -19L580 -20Q560 -26 549.5 -16.5Q539 -7 533.5 9.5Q528 26 525 41Q525 42 525 43Q524 47 523.5 51.0Q523 55 523 59Q512 108 507.0 174.0Q502 240 505 309Q479 312 441.0 314.5Q403 317 361.5 318.0Q320 319 281 317Q265 316 249.0 315.5Q233 315 219 315Q197 286 177.5 242.5Q158 199 145.0 148.5Q132 98 128 49Q127 43 127 29Q127 17 125.5 3.0Q124 -11 117.5 -19.0Q111 -27 95 -24ZM265 374Q300 370 343.0 368.5Q386 367 429.0 368.5Q472 370 506 375Q508 392 510.5 410.5Q513 429 517 451Q522 483 526.0 514.0Q530 545 529 573Q446 543 379.0 489.5Q312 436 265 374Z" transform="translate(660.6719999999999, 72) scale(0.072, -0.072)" /><path d="M133 -33Q117 -29 112.5 -11.0Q108 7 109.5 29.5Q111 52 114 68Q115 76 115 79Q125 167 149.0 236.5Q173 306 201 373Q191 375 181.5 376.5Q172 378 161 379Q141 381 121.0 384.5Q101 388 86.0 398.0Q71 408 66 428Q60 456 71.0 470.5Q82 485 97 485Q110 485 121.0 473.5Q132 462 130 437Q134 436 141 435Q165 431 191.0 428.0Q217 425 239 434Q250 439 267.5 460.0Q285 481 302 501Q313 515 319.5 521.5Q326 528 331 534Q405 608 492.5 655.5Q580 703 684 745Q692 748 706.0 744.5Q720 741 727 731Q727 702 722.5 670.5Q718 639 712 607Q705 566 699.5 521.0Q694 476 698 435Q706 430 719.0 429.0Q732 428 759 430Q782 432 804.0 430.5Q826 429 830 409Q833 391 821.5 384.5Q810 378 791.0 377.5Q772 377 753 378Q752 378 751 378Q734 380 719.0 380.0Q704 380 693 377Q675 263 702 108Q704 98 706.5 87.5Q709 77 712 66Q724 21 724.5 1.5Q725 -18 717 -29Q694 -36 681.5 -25.5Q669 -15 663.5 4.0Q658 23 654 41Q654 42 654 43Q653 48 652.5 53.0Q652 58 651 62Q638 122 632.0 203.0Q626 284 630 368Q598 372 552.0 374.5Q506 377 455.0 378.0Q404 379 357 377Q338 376 319.0 375.5Q300 375 283 375Q255 341 231.0 287.5Q207 234 191.0 172.0Q175 110 171 49Q170 44 170.0 38.0Q170 32 170 25Q170 10 168.5 -5.0Q167 -20 159.5 -28.5Q152 -37 133 -33ZM331 437Q374 431 427.5 429.5Q481 428 535.0 430.0Q589 432 631 438Q634 476 641 516Q647 556 651.5 595.0Q656 634 655 670Q546 631 466.0 571.5Q386 512 331 437Z" transform="translate(730.2959999999999, 72) scale(0.072, -0.072)" /><path d="M494 -12Q464 5 451.0 34.5Q438 64 435.0 100.5Q432 137 432 172Q432 219 428.0 258.5Q424 298 398 318Q363 347 329 322Q311 309 300.0 307.5Q289 306 278 310Q261 324 261.0 341.0Q261 358 274.5 372.0Q288 386 311 389Q406 484 489.0 536.0Q572 588 661 606Q699 588 684.5 572.0Q670 556 619 541Q613 539 609 537Q600 534 597 533Q542 509 484.5 468.0Q427 427 387 384Q402 378 421.5 366.0Q441 354 457 332Q480 301 484.0 258.0Q488 215 487 174Q487 137 489.0 105.0Q491 73 503.5 52.5Q516 32 546 27Q567 24 595.0 30.5Q623 37 654 51Q683 64 697.5 63.5Q712 63 726 48Q724 23 711.0 14.0Q698 5 666 -6Q614 -22 572.0 -26.5Q530 -31 494 -12ZM52 -27 50 -25Q43 -11 47.5 3.5Q52 18 71 40Q82 53 84 58Q112 102 132.5 161.0Q153 220 163.5 289.5Q174 359 168 432Q165 466 156.5 495.5Q148 525 131.0 542.0Q114 559 85 556Q66 552 57.5 555.0Q49 558 41 564H40Q35 585 47.5 597.0Q60 609 82.0 611.5Q104 614 127.5 607.0Q151 600 169 584Q197 557 210.0 513.0Q223 469 224.5 415.5Q226 362 219.0 307.0Q212 252 200.0 203.5Q188 155 175 121Q159 81 150.5 61.5Q142 42 134 28Q108 -11 91.5 -22.5Q75 -34 52 -27Z" transform="translate(793.656, 72) scale(0.072, -0.072)" /><path d="M326 -21Q264 -18 207.0 3.5Q150 25 112.5 66.5Q75 108 70 169Q62 266 157 335Q156 336 155.0 337.0Q154 338 153 339Q149 342 145.0 345.5Q141 349 134 353Q111 370 90.5 391.5Q70 413 67 450Q63 494 88.5 531.0Q114 568 162.0 591.5Q210 615 271 617Q318 619 366.5 608.5Q415 598 456.5 578.5Q498 559 522 533Q532 523 541.0 505.0Q550 487 553.5 467.0Q557 447 548.0 432.0Q539 417 513 412H508Q496 421 493.5 429.5Q491 438 495 451Q498 466 497 472Q493 492 470.0 508.5Q447 525 414.5 537.5Q382 550 347.5 556.5Q313 563 286 563Q252 563 216.0 551.5Q180 540 153.5 520.0Q127 500 120.5 473.5Q114 447 139 418Q161 393 207.0 376.5Q253 360 312 356Q319 356 326.0 356.5Q333 357 340 358Q382 365 402 348L403 344Q399 313 376.0 305.5Q353 298 295 306Q294 306 293 306Q282 308 272.5 309.0Q263 310 255 309Q200 308 163.5 273.5Q127 239 125 189Q123 135 151.5 100.0Q180 65 227.5 48.5Q275 32 329 31Q394 30 452.5 51.5Q511 73 540 110Q541 111 543.0 115.0Q545 119 549 130Q562 158 571.0 169.0Q580 180 590 180Q613 181 617.0 162.5Q621 144 605 111Q588 79 566 57Q527 18 463.5 -2.5Q400 -23 326 -21Z" transform="translate(845.784, 72) scale(0.072, -0.072)" /><path d="M122 8Q119 8 115.5 8.5Q112 9 109 10Q89 12 78.5 16.5Q68 21 71 41Q72 61 97.5 62.0Q123 63 166 59Q169 59 172.0 58.5Q175 58 178 58Q315 48 410.0 73.5Q505 99 540 157Q551 174 557.5 205.0Q564 236 553 263Q546 283 526.0 301.0Q506 319 481.0 330.0Q456 341 434 340Q424 339 412.5 335.5Q401 332 390 327Q374 320 357.0 315.0Q340 310 320 312Q290 316 277.5 333.5Q265 351 272 375L273 377Q292 393 319 373Q322 371 325.5 369.0Q329 367 336 366Q371 363 400.5 381.5Q430 400 446.5 430.0Q463 460 459.0 492.0Q455 524 423 547Q397 565 344.5 575.0Q292 585 239 583Q210 581 182.5 572.0Q155 563 136.0 548.0Q117 533 114.5 514.5Q112 496 133 475Q134 477 134.0 479.5Q134 482 135 486Q136 495 140.5 505.0Q145 515 161 514Q178 513 183.0 493.0Q188 473 186 429Q186 420 185 416V174Q185 168 185.0 162.0Q185 156 186 150Q188 104 182.5 85.5Q177 67 161 67Q141 67 136.0 105.5Q131 144 135 220V238Q135 295 135.0 325.5Q135 356 134.5 374.0Q134 392 132 408L117 418Q101 429 85.5 443.0Q70 457 62.0 478.0Q54 499 60 531Q67 565 97.5 590.0Q128 615 176.0 628.0Q224 641 283 638Q329 636 372.5 623.0Q416 610 450.0 586.0Q484 562 501.0 526.0Q518 490 510 442Q508 429 501.0 413.0Q494 397 486 386Q521 367 552.0 345.0Q583 323 600.5 291.0Q618 259 613 208Q610 180 593.5 150.0Q577 120 555.5 95.0Q534 70 514 57Q484 38 439.0 25.5Q394 13 340.5 7.0Q287 1 230.5 1.0Q174 1 122 8Z" transform="translate(893.664, 72) scale(0.072, -0.072)" /><path d="M331 -55Q271 -51 221.5 -22.5Q172 6 136.5 51.0Q101 96 81 151Q53 228 61.5 314.0Q70 400 117 470Q126 483 145.0 504.5Q164 526 188.0 545.5Q212 565 237.5 572.5Q263 580 285 563Q286 564 289 565Q309 576 326.5 584.0Q344 592 367.5 595.5Q391 599 426 595Q503 587 559.0 539.0Q615 491 643.5 415.0Q672 339 665 245Q660 177 632.5 120.0Q605 63 559.5 22.5Q514 -18 455.5 -38.5Q397 -59 331 -55ZM325 -1Q388 -8 438.5 10.5Q489 29 525.0 65.0Q561 101 582.0 147.5Q603 194 607 245Q614 325 593.0 389.5Q572 454 528.0 494.0Q484 534 421 542Q372 548 332.5 528.5Q293 509 273.0 473.0Q253 437 262 393Q267 371 285.0 349.0Q303 327 328 313Q332 311 333 311Q338 310 341.0 309.0Q344 308 349 306Q364 302 380.5 293.5Q397 285 400 262L397 256Q365 228 296 269Q279 279 260.0 297.5Q241 316 228 336Q209 369 207.5 412.0Q206 455 225 502Q170 472 143.5 416.5Q117 361 116.5 295.5Q116 230 137 169Q160 103 207.5 54.5Q255 6 325 -1Z" transform="translate(941.328, 72) scale(0.072, -0.072)" /><path d="M66 -110Q20 -126 -9.0 -123.5Q-38 -121 -40 -99Q-43 -72 35 -63Q58 -59 77.0 -46.5Q96 -34 106 -16Q124 12 129.5 55.5Q135 99 133.5 151.0Q132 203 129 258Q129 264 129 267Q124 346 123.5 420.5Q123 495 144 545Q176 625 230 601Q238 585 236.0 576.5Q234 568 214 549Q206 542 200.0 535.5Q194 529 194 518Q195 502 214.0 482.0Q233 462 253 442Q280 415 317.0 373.0Q354 331 393.5 282.5Q433 234 469.0 188.5Q505 143 529 110Q525 331 563.0 475.0Q601 619 678 680Q699 698 720 677Q721 670 721.0 665.5Q721 661 720 658Q719 651 712.5 643.5Q706 636 691 618Q656 576 633.5 511.5Q611 447 599.5 369.0Q588 291 586.0 208.5Q584 126 590 48Q591 44 591.5 39.0Q592 34 593 29Q598 -7 595.0 -22.0Q592 -37 576 -51Q559 -48 550.0 -40.0Q541 -32 526 -4Q523 1 520.5 4.5Q518 8 516 12Q458 108 374.5 215.0Q291 322 187 432Q176 389 177.5 335.0Q179 281 183 224Q187 170 188.0 117.5Q189 65 180.0 20.0Q171 -25 145 -57Q142 -60 130.0 -70.5Q118 -81 101.0 -92.0Q84 -103 66 -110Z" transform="translate(993.6, 72) scale(0.072, -0.072)" /><path d="M331 -55Q271 -51 221.5 -22.5Q172 6 136.5 51.0Q101 96 81 151Q53 228 61.5 314.0Q70 400 117 470Q126 483 145.0 504.5Q164 526 188.0 545.5Q212 565 237.5 572.5Q263 580 285 563Q286 564 289 565Q309 576 326.5 584.0Q344 592 367.5 595.5Q391 599 426 595Q503 587 559.0 539.0Q615 491 643.5 415.0Q672 339 665 245Q660 177 632.5 120.0Q605 63 559.5 22.5Q514 -18 455.5 -38.5Q397 -59 331 -55ZM325 -1Q388 -8 438.5 10.5Q489 29 525.0 65.0Q561 101 582.0 147.5Q603 194 607 245Q614 325 593.0 389.5Q572 454 528.0 494.0Q484 534 421 542Q372 548 332.5 528.5Q293 509 273.0 473.0Q253 437 262 393Q267 371 285.0 349.0Q303 327 328 313Q332 311 333 311Q338 310 341.0 309.0Q344 308 349 306Q364 302 380.5 293.5Q397 285 400 262L397 256Q365 228 296 269Q279 279 260.0 297.5Q241 316 228 336Q209 369 207.5 412.0Q206 455 225 502Q170 472 143.5 416.5Q117 361 116.5 295.5Q116 230 137 169Q160 103 207.5 54.5Q255 6 325 -1Z" transform="translate(1045.512, 72) scale(0.072, -0.072)" /></g></svg>