<svg width="21.406" height="19.6" viewBox="0 0 21.406 19.6" xmlns="http://www.w3.org/2000/svg"><path transform="translate(0 12.6) scale(.014 -.014)" d="m124 71h245q23 0 34-12t11-32v-16q0-11-12-11h-361q-8 0-8 9v42q0 11 3 18.5t10 18.5l282 397h-280q-8 0-8 9v53q0 9 8 9h308q25 0 40.5-11t15.5-40v-13q0-17-13-37z"/><path transform="translate(6.286 12.6) scale(.014 -.014)" d="m331 52q-22-31-53-46t-69-15q-55 0-93.5 26t-58.5 70-20 97q0 56 22 99.5t61.5 68.5 91.5 25q42 0 73.5-16t49.5-42q5 26 20 37.5t38 11.5h5q7 0 7-9v-350q0-9-7-9h-59q-8 0-8 9zm-111 9q25 0 50.5 10.5t43 37.5 17.5 75q0 49-17.5 75.5t-42.5 36.5-48 10q-43 0-76-30t-33-92q0-45 16.5-72t41-39 48.5-12z"/><path transform="translate(12.712 12.6) scale(.014 -.014)" d="m46 467q0 20 13 33t32 13q18 0 31-13t13-33q0-19-13-32t-31-13q-19 0-32 13t-13 32zm15-467q-8 0-8 9v350q0 9 8 9h5q29 0 45.5-17t16.5-52v-290q0-9-8-9z"/><path transform="translate(15.232 12.6) scale(.014 -.014)" d="m124 318q16 25 46 41.5t70 16.5q70 0 110-43t40-117v-207q0-9-8-9h-59q-8 0-8 9v193q0 53-25 79t-67 26q-45 0-71-26.5t-26-82.5v-189q0-9-7-9h-59q-8 0-8 9v350q0 9 8 9h5q23 0 39-13t20-37z"/></svg>