<svg width="100.91" height="20.272" viewBox="0 0 100.91 20.272" xmlns="http://www.w3.org/2000/svg"><path transform="translate(0 16.24) scale(.014 -.014)" d="m80 0q-33 0-33 30v7q0 21 13 41l367 564h-333q-33 0-33 29t33 29h375q33 0 33-29v-7q0-21-13-41l-367-564h350q33 0 33-29 0-30-33-30z"/><path transform="translate(7.728 16.24) scale(.014 -.014)" d="m270-11q-65 0-115.5 30.5t-79 87-28.5 133.5q0 75 28.5 131t78.5 87.5 114 31.5q65 0 110.5-32t69.5-81 24-100q0-18-8.5-25t-24.5-7h-331q-2-90 42.5-145.5t120.5-55.5q94 0 140 85 20 26 41 14 26-17 7-45-63-109-189-109zm-158 308h300q-5 39-24.5 71t-50 51-69.5 19q-61 0-102.5-37.5t-53.5-103.5z"/><path transform="translate(15.064 16.24) scale(.014 -.014)" d="m105 0q-31 0-31 33v413q0 33 29 33t29-22l1-46q23 34 61.5 57t87.5 23q77 0 124-49t47-140v-269q0-33-30-33t-30 33v260q0 70-33.5 105t-86.5 35q-40 0-71.5-17.5t-49-47-17.5-65.5v-270q0-33-30-33z"/><path transform="translate(26.376 16.24) scale(.014 -.014)" d="m115 0q-31 0-31 33v634q0 33 36 33 26 0 39-22l227-339 225 339q8 13 18 17.5t25 4.5q33 0 33-33v-634q0-33-31-33-32 0-32 33v560l-208-315q-13-22-30-22-18 0-31 22l-209 315v-560q0-33-31-33z"/><path transform="translate(37.17 16.24) scale(.014 -.014)" d="m202-9q-70-1-113.5 32t-43.5 96q0 48 32.5 84t83 56.5 104.5 20.5q74 0 117-35v82q0 67-28 87.5t-90 20.5q-33 0-72.5-10t-71.5-26q-30-12-43 9-15 26 16 40 37 19 83.5 31t87.5 12q91 0 134-35t43-129v-265q0-13 5-16t21-3q13 0 22-4.5t9-14.5q0-25-25-29-8-2-17-3t-17-1q-34 0-44 14t-12 53q-31-34-82-50t-99-17zm3 55q48 1 89.5 15t66 40.5 22.5 64.5q-3 31-34 46.5t-80 14.5q-41 0-79-14t-61.5-38.5-23.5-56.5q0-37 28-54.5t72-17.5z"/><path transform="translate(44.66 16.24) scale(.014 -.014)" d="m105 0q-31 0-31 33v413q0 33 32 33 12 0 20.5-6.5t8.5-21.5v-55q20 42 63.5 68.5t96.5 26.5q26 0 41-7.5t15-25.5q0-15-8.5-22t-20.5-6q-7 0-15.5 1t-17.5 1q-42 0-77-19.5t-55.5-52-20.5-73.5v-254q0-33-31-33z"/><path transform="translate(49.924 16.24) scale(.014 -.014)" d="m236-11q-76 0-123 49t-47 140v268q0 33 30 33t30-33v-260q0-70 33.5-105t86.5-35q61 0 99 38t38 93v269q0 33 31 33 30 0 30-33v-412q0-33-28-33-29 0-29 22l-2 45q-21-33-60-56t-89-23z"/><path transform="translate(61.11 16.24) scale(.014 -.014)" d="m372-13q-94 0-167.5 46t-115.5 128-42 190 42 190 115.5 128 167.5 46q63 0 116-19.5t94-56.5q26-21 4-45-18-21-45-1-69 61-169 61-78 0-137-38.5t-92-106.5-33-158q0-89 33-158t92-107.5 137-38.5q55 0 95 11t77 33v208h-117q-33 0-33 30 0 29 33 29h146q33 0 33-33v-246q0-27-14-35-32-19-85.5-38t-134.5-19z"/><path transform="translate(70.532 16.24) scale(.014 -.014)" d="m269-11q-64 0-114 32t-79 88.5-29 130.5 29 130.5 79 88.5 114 32q65 0 115-32t79-88.5 29-130.5-29-130.5-79-88.5-115-32zm0 57q47 0 83.5 24t57.5 67.5 21 102.5-21 102.5-57.5 67.5-83.5 24q-70 0-115.5-52.5t-45.5-141.5q0-88 45.5-141t115.5-53z"/><path transform="translate(78.078 16.24) scale(.014 -.014)" d="m261-11q-64 0-96 27t-32 97v310h-71q-33 0-33 29 0 27 33 27h71v143q0 33 30 33t30-33v-143h113q33 0 33-27 0-29-33-29h-113v-300q0-45 19-61.5t59-16.5q5 0 10.5 0.5t10.5 0.5q20 1 33.5-1.5t13.5-21.5q0-22-24-28t-54-6z"/><path transform="translate(83.356 16.24) scale(.014 -.014)" d="m105 0q-31 0-31 33v656q0 33 31 33 30 0 30-33v-278q21 34 59.5 57t87.5 23q77 0 124-49t47-140v-269q0-33-30-33t-30 33v260q0 70-33.5 105t-86.5 35q-40 0-71.5-17.5t-49-47-17.5-65.5v-270q0-33-30-33z"/><path transform="translate(90.748 16.24) scale(.014 -.014)" d="m121 0q-30 0-30 33v413q0 33 30 33t30-33v-413q0-33-30-33zm0 583q-19 0-33 13.5t-14 32.5q0 20 14 33t33 13 32-13 13-33q0-19-13-32.5t-32-13.5z"/><path transform="translate(94.122 16.24) scale(.014 -.014)" d="m269-11q-64 0-114 31.5t-79 88.5-29 131 29 130.5 79 88 114 31.5q86 0 145-56 13-10 12-22t-12-21q-12-8-21.5-7t-22.5 11q-43 38-101 38-70 0-115.5-52.5t-45.5-140.5 45.5-141 115.5-53q59 0 100 38 12 10 22.5 11.5t22.5-6.5q11-9 12-20.5t-11-22.5q-60-57-146-57z"/></svg>