<svg width="33.67" height="15.75" viewBox="0 0 33.67 15.75" xmlns="http://www.w3.org/2000/svg"><path transform="translate(0 11.9) scale(.014 -.014)" d="m25 0q-10 0-10 9 0 4 2 10l242 650h-224q-10 0-10 11 0 10 10 10h239q10 0 10-8 0-3-2-9l-243-652h245q10 0 10-10 0-11-10-11z"/><path transform="translate(4.326 11.9) scale(.014 -.014)" d="m156-5q-34 0-60.5 31.5t-41 86.5-14.5 126 14.5 126 40 86 59.5 31q31 0 53.5-25.5t35-70 12.5-101.5q0-16-16-16h-176q-1-15-1-30 0-64 12-114.5t33.5-79.5 48.5-29q26 0 44.5 22t29.5 58q3 9 11 9 7 0 9-5.5t0-11.5q-14-43-37-68t-57-25zm-2 466q-34 0-58.5-48t-31.5-123h170q-2 73-23.5 122t-56.5 49z"/><path transform="translate(8.316 11.9) scale(.014 -.014)" d="m70 0q-10 0-10 10v457q0 10 10 10 11 0 11-10v-40q20 30 43 42.5t50 12.5q83 0 83-111v-361q0-10-11-10-10 0-10 10v361q0 49-16 69.5t-46 20.5q-31 0-54.5-18.5t-38.5-46.5v-386q0-10-11-10z"/><path transform="translate(15.974 11.9) scale(.014 -.014)" d="m70 0q-10 0-10 10v670q0 10 10 10 11 0 11-10v-659h226q10 0 10-10 0-11-10-11z"/><path transform="translate(20.832 11.9) scale(.014 -.014)" d="m154-5q-34 0-59.5 31t-40 86-14.5 127 14.5 126.5 40 85.5 59.5 31 59.5-31.5 40.5-86 15-125.5-15-126-40.5-86.5-59.5-31.5zm0 21q27 0 48 29t33 79.5 12 114.5-12 114-33 79-48 29q-26 0-47-29t-33-79-12-114 12-114.5 33-79.5 47-29z"/><path transform="translate(25.158 11.9) scale(.014 -.014)" d="m154-5q-34 0-59.5 31t-40 86-14.5 127 14.5 126.5 40 85.5 59.5 31 59.5-31.5 40.5-86 15-125.5-15-126-40.5-86.5-59.5-31.5zm0 21q27 0 48 29t33 79.5 12 114.5-12 114-33 79-48 29q-26 0-47-29t-33-79-12-114 12-114.5 33-79.5 47-29z"/><path transform="translate(29.484 11.9) scale(.014 -.014)" d="m154-5q-42 0-72 44v-216q0-10-11-10-10 0-10 10v611q-17-9-33-22-3-3-7-3-11 0-11 11 0 5 4 8 23 18 47 31v57q0 10 10 10 11 0 11-10v-48q34 14 62 14 60 0 87.5-64t27.5-179q0-71-11.5-126t-35-86.5-58.5-31.5zm-10 466q-27 0-62-16v-371q13-28 33-43t39-15q28 0 46.5 29t27.5 79.5 9 114.5q0 104-21.5 163t-71.5 59z"/></svg>