<svg width="96.474" height="20.272" viewBox="0 0 96.474 20.272" xmlns="http://www.w3.org/2000/svg"><path transform="translate(0 16.24) scale(.014 -.014)" d="m593-1q-2 0-14 0-24 1-90 2.5t-170 0.5l-269-2q-20 0-23.5 13t9.5 28q15 18 46 59.5t71.5 97 84.5 118 86 123 77.5 111 58 84 26.5 39.5q5 8 2 13t-12 5h-212q-50 0-84-20.5t-54.5-50.5-32.5-59q-3-7-8.5-9t-10.5-1q-13 1-13 14 0 4 1 22.5t2 42.5 2.5 44.5 1.5 27.5q1 24 26 24 5 0 27-0.5t71-1 134-0.5h258q17 0 22.5-13.5t-5.5-27.5q-3-4-22.5-32.5t-51.5-73.5-71-100-80-113.5-80-113.5-70.5-100-51.5-72.5-22-31.5q-4-5-2-9t9-4l279 2q40 0 67 15t44.5 38 28 48 17.5 44q2 8 6.5 9.5t11.5 0.5q14-3 14-14 0-4-1-24.5t-2-47-2.5-49.5-1.5-32q-1-24-27-24z"/><path transform="translate(9.352 16.24) scale(.014 -.014)" d="m266-12q-65 0-114.5 29t-76.5 78.5-27 112.5q0 44 15.5 85.5t44 75 67.5 53.5 85 20q49 0 84-21t58-53.5 34-68 11-64.5q0-15-18-15h-269q-10 0-13-3t-3-11q0-66 18-104t48-54 65-16q36 0 63 13t45 30 28 30q10 14 24 4 13-8 5-22-10-17-32.5-40.5t-57.5-41-84-17.5zm-103 271h167q19 0 19 17 0 28-8 59t-28 52.5-55 21.5q-30 0-51.5-20t-35-51-20.5-66q-3-13 12-13z"/><path transform="translate(16.1 16.24) scale(.014 -.014)" d="m57 0q-14 0-14 16t14 16q30 0 39 11t9 39v267q0 17-2 27.5t-16 13.5q-7 2-16.5 3.5t-15.5 2.5q-13 1-13 16 0 6 3.5 11t10.5 5q3 0 17.5 0.5t33 0.5 34.5 0.5 21 0.5q23 0 23-24v-36q0-3 2.5-3.5t6.5 3.5q19 26 51 49t73 23q32 0 61-11.5t47.5-41.5 18.5-86v-219q0-29 8-40.5t30-11.5q14 0 14-16t-14-16q-10 0-33 1t-46 1q-24 0-46.5-1t-33.5-1q-14 0-14 16t14 16q28 0 33.5 11t5.5 39v209q0 51-18.5 72.5t-53.5 21.5q-26 0-50-16t-39-42.5-15-58.5v-184q0-29 7-40.5t28-11.5q14 0 14-16t-14-16q-10 0-31 1t-45 1-51.5-1-37.5-1z"/><path transform="translate(27.258 16.24) scale(.014 -.014)" d="m358-12q-65 0-122 26t-100.5 75.5-68.5 118.5-25 154q0 86 26 155t70.5 118.5 101 76 118.5 26.5 119-26.5 101.5-76 70.5-118.5 26-155q0-85-25-154t-68.5-118.5-101-75.5-122.5-26zm0 35q55 0 102.5 31.5t77 105.5 29.5 202-29.5 202.5-77 106-102.5 31.5q-54 0-101.5-31.5t-77-106-29.5-202.5 29.5-202 77-105.5 101.5-31.5z"/><path transform="translate(37.38 16.24) scale(.014 -.014)" d="m64 0q-14 0-14 16t14 16q35 0 44 11t9 39v561q0 25-5 33.5t-18 9.5q-7 2-19 3t-18 2q-13 3-13 17 0 6 4 11t10 5q3 0 19.5 0.5t37.5 0.5 38.5 0.5 22.5 0.5q23 0 23-24v-618q0-29 9.5-40.5t41.5-11.5q14 0 14-16t-14-16q-10 0-39.5 1t-52.5 1q-24 0-53.5-1t-40.5-1z"/><path transform="translate(41.412 16.24) scale(.014 -.014)" d="m227-12q-39 0-80.5 22t-70 69.5-28.5 125.5q0 60 17.5 105t44.5 74 57.5 43.5 56.5 14.5q45 0 73-16t46-33q6-6 9-3.5t3 8.5v245q0 21-6.5 31t-23.5 12q-7 2-21.5 3.5t-20.5 2.5q-13 2-13 16 0 6 4 11t10 5q3 0 21 0.5t41.5 0.5 43 0.5 24.5 0.5q23 0 23-24v-618q0-25 4.5-33.5t17.5-11.5q6-1 14.5-2t13.5-3q13-1 13-16 0-16-14-16-3 0-18-0.5t-34-0.5-35.5-0.5-21.5-0.5q-23 0-23 21v25q0 6-3 6.5t-8-4.5q-8-9-23-23.5t-37.5-25.5-55.5-11zm20 38q25 0 49.5 17t41.5 49.5 17 77.5v112q0 31-12.5 58.5t-36.5 45-58 17.5q-60 0-85-56t-25-148q0-58 10.5-92.5t27.5-52 36-23 35-5.5z"/><path transform="translate(52.612 16.24) scale(.014 -.014)" d="m47 0q-14 0-14 16 0 7 3.5 12t10.5 5q35 0 56 29.5t21 104.5v457q0 46-21 57.5t-52 11.5q-7 0-10.5 5t-3.5 12q0 6 3.5 11t10.5 5q8 0 44.5-1.5t111.5-1.5q19 0 29-6.5t14-19.5q2-6 13-36.5t27.5-76.5 35.5-99 38-105.5 35-96.5 25.5-71 10.5-29q2-5 6-4.5t5 4.5q2 6 12 35t25.5 73.5 34 96.5 36.5 103.5 33.5 95.5 25.5 72.5 12 33.5q6 17 17.5 23.5t27.5 6.5q74 0 106.5 1.5t39.5 1.5 10.5-5 3.5-11q0-7-3.5-12t-10.5-5q-30 0-48-12t-18-48v-536q0-40 15-52t46-12q7 0 10.5-5t3.5-12q0-16-14-16-10 0-40 1t-76 1-75-1-40-1q-14 0-14 16 0 7 4 12t10 5q38 0 59.5 10.5t21.5 53.5v558q0 6-4.5 7t-6.5-4q-1-4-13.5-38.5t-31.5-88.5-41.5-118.5-45.5-129.5-42.5-120.5-32-91.5-14.5-42q-4-10-13-10t-12 9q-1 3-14 37.5t-34 89-45.5 118.5-49 127.5-45 117-33 86-12.5 32.5q-1 3-5 2.5t-4-5.5v-465q0-52 12.5-81t32-41.5 40.5-12.5q7 0 10.5-5t3.5-12q0-16-14-16-10 0-32.5 1t-67.5 1q-52 0-70.5-1t-29.5-1z"/><path transform="translate(64.638 16.24) scale(.014 -.014)" d="m64 0q-14 0-14 16t14 16q35 0 44 12t9 39v264q0 25-5 33.5t-18 9.5q-7 2-19 3t-18 2q-13 3-13 17 0 6 4 11t10 5q3 0 19.5 0.5t37.5 0.5 38.5 0.5 22.5 0.5q23 0 23-24v-323q0-27 8.5-39t37.5-12q14 0 14-16t-14-16q-10 0-37 1t-50 1q-24 0-53.5-1t-40.5-1zm87 573q-23 0-39 16.5t-16 38.5q0 23 16 39t39 16 39-16 16-39q0-22-16-38.5t-39-16.5z"/><path transform="translate(68.67 16.24) scale(.014 -.014)" d="m57 0q-14 0-14 16t14 16q30 0 39 11t9 39v267q0 17-2 27.5t-16 13.5q-7 2-16.5 3.5t-15.5 2.5q-13 1-13 16 0 6 3.5 11t10.5 5q3 0 17.5 0.5t33 0.5 34.5 0.5 21 0.5q23 0 23-24v-36q0-3 2.5-3.5t6.5 3.5q19 26 51 49t73 23q32 0 61-11.5t47.5-41.5 18.5-86v-219q0-29 8-40.5t30-11.5q14 0 14-16t-14-16q-10 0-33 1t-46 1q-24 0-46.5-1t-33.5-1q-14 0-14 16t14 16q28 0 33.5 11t5.5 39v209q0 51-18.5 72.5t-53.5 21.5q-26 0-50-16t-39-42.5-15-58.5v-184q0-29 7-40.5t28-11.5q14 0 14-16t-14-16q-10 0-31 1t-45 1-51.5-1-37.5-1z"/><path transform="translate(75.908 16.24) scale(.014 -.014)" d="m258-12q-52 0-100 23.5t-79 72-31 123.5q0 63 28 116.5t78.5 86 117.5 32.5q36 0 69-12t54.5-35 21.5-55q0-24-16.5-45t-41.5-21q-21 0-37.5 13t-16.5 35q0 28 28 48 12 9-0.5 21.5t-54.5 12.5q-18 0-41-9.5t-44.5-32-35-60.5-13.5-95q0-80 37-127.5t93-47.5q38 0 65.5 16.5t45 39 24.5 38.5q7 15 23 8 14-6 9-20-8-23-29-52.5t-58-51.5-96-22z"/><path transform="translate(82.376 16.24) scale(.014 -.014)" d="m52 0q-7 0-10.5 5t-3.5 11q0 7 3.5 12t10.5 5q35 0 44 10.5t9 38.5v561q0 25-5 33.5t-18 9.5q-7 1-19 2.5t-18 2.5q-13 2-13 16 0 7 4 12t10 5q3 0 19.5 0.5t37.5 0.5 38.5 0.5 22.5 0.5q23 0 23-24v-331q0-3 2.5-4t5.5 3q22 27 53.5 49.5t73.5 22.5q32 0 60-12t45.5-45.5 17.5-96.5v-204q0-29 6.5-40t24.5-11q7 0 10.5-5t3.5-12q0-6-3.5-11t-10.5-5q-10 0-29.5 1t-42.5 1q-24 0-46.5-1t-33.5-1q-6 0-10 5t-4 11q0 7 4 12t10 5q28 0 33.5 10.5t5.5 38.5v198q0 58-18 83.5t-55 25.5q-25 0-48.5-15.5t-39-41-15.5-57.5v-191q0-29 8.5-40t32.5-11q7 0 10.5-5t3.5-12q0-6-3.5-11t-10.5-5q-10 0-34 1t-48 1-53.5-1-40.5-1z"/><path transform="translate(89.6 16.24) scale(.014 -.014)" d="m253-12q-57 0-104.5 31t-75.5 82.5-28 113.5 28 113.5 75.5 82.5 104.5 31q58 0 105.5-31t75.5-82.5 28-113.5-28-113.5-75.5-82.5-105.5-31zm0 31q56 0 84 54t28 142-28 142-84 54q-55 0-83.5-54t-28.5-142 28.5-142 83.5-54z"/></svg>