<svg width="116" height="16.8" viewBox="0 0 116 16.8" xmlns="http://www.w3.org/2000/svg"><path transform="translate(0 13.216) scale(.014 -.014)" d="m-12-213v1130h598v-1130zm44 213h480l26 193-63 9-28-138h-314v3l386 543-2 40h-448l-25-188 62-9 28 133h280v-3l-384-539z"/><path transform="translate(8.036 13.216) scale(.014 -.014)" d="M-12 -213V917H289V-213ZM103 651V560H179V651ZM32 0H258V57H180V445H30V388H110V57H32Z"/><path transform="translate(11.914 13.216) scale(.014 -.014)" d="M-12 -213V917H274V-213ZM18 0H244V57H166V688H17V631H96V57H18Z"/><path transform="translate(15.582 13.216) scale(.014 -.014)" d="M-12 -213V917H274V-213ZM18 0H244V57H166V688H17V631H96V57H18Z"/><path transform="translate(19.25 13.216) scale(.014 -.014)" d="m-12-213v1130h503v-1130zm91 624-16-103 58-7 17 77q37 18 86 18 60 0 80.5-30t20.5-78v-40q-18 2-38.5 3t-40.5 1q-75 0-141.5-26.5t-66.5-110.5q0-71 45.5-98t89.5-27q54 0 92.5 28t59.5 64v-2q2-90 81-90 31 0 58 15l-1 46q-13-6-30-6-38 0-38 48v212q0 149-159 149-44 0-83-10t-74-33zm246-244q-4-55-44.5-87t-86.5-32q-29 0-56 16t-27 59q0 52 40.5 67.5t90.5 15.5q22 0 43-2t40-3z"/><path transform="translate(29.442 13.216) scale(.014 -.014)" d="m-12-213v1130h553v-1130zm500 395q0 74-35.5 111.5t-85 53-93.5 25.5q-55 13-100 34t-45 82q0 52 37.5 79.5t98.5 27.5q29 0 61-5.5t63-21.5l10-97 60 6-6 129q-31 24-86 39t-109 15q-84 0-145.5-44t-61.5-136q0-64 30-97.5t75-49 91-25.5q60-14 111-36.5t51-96.5q0-66-46.5-93.5t-110.5-27.5q-36 0-69 6t-66 23l4 82-60 6-14-128q73-53 209-53 99 0 165.5 49t66.5 143z"/><path transform="translate(36.848 13.216) scale(.014 -.014)" d="M-12 -213V917H274V-213ZM18 0H244V57H166V688H17V631H96V57H18Z"/><path transform="translate(40.516 13.216) scale(.014 -.014)" d="m-12-213v1130h503v-1130zm91 624-16-103 58-7 17 77q37 18 86 18 60 0 80.5-30t20.5-78v-40q-18 2-38.5 3t-40.5 1q-75 0-141.5-26.5t-66.5-110.5q0-71 45.5-98t89.5-27q54 0 92.5 28t59.5 64v-2q2-90 81-90 31 0 58 15l-1 46q-13-6-30-6-38 0-38 48v212q0 149-159 149-44 0-83-10t-74-33zm246-244q-4-55-44.5-87t-86.5-32q-29 0-56 16t-27 59q0 52 40.5 67.5t90.5 15.5q22 0 43-2t40-3z"/><path transform="translate(47.222 13.216) scale(.014 -.014)" d="m-12-213v1130h551v-1130zm505 447q0 106-54 163t-137 57q-64 0-101.5-30t-57.5-71v335h-147v-57h76v-501q0-33-4-67t-9-63h70q1 4 5 37t4 37q45-84 156-84 71 0 115 36.5t64 92.5 20 115zm-74-7q0-69-32.5-123t-106.5-54q-58 0-97.5 39t-39.5 95v67q1 49 39 96t102 47q57 0 96-42t39-125z"/><path transform="translate(58.086 13.216) scale(.014 -.014)" d="M-12 -213V917H764V-213ZM474 0H711V64H629V586H711V650H474V586H556V362H195V586H277V650H40V586H122V64H40V0H277V64H195V300H556V64H474Z"/><path transform="translate(68.614 13.216) scale(.014 -.014)" d="M-12 -213V917H289V-213ZM103 651V560H179V651ZM32 0H258V57H180V445H30V388H110V57H32Z"/><path transform="translate(72.492 13.216) scale(.014 -.014)" d="m-12-213v1130h569v-1130h-309q100 4 154.5 65.5t54.5 163.5v372h72v57h-143v-70q-45 79-151 79-103 0-151-77t-48-166q0-105 56-161t135-56q63 0 101 29t58 68v-72q0-83-40.5-127t-104.5-44q-45 0-87 23t-59 75l-56-28q17-64 68.5-96t116.5-35zm398 482v-77q-2-50-41.5-93.5t-102.5-43.5q-55 0-93 39.5t-38 121.5q0 70 33.5 123.5t109.5 53.5q54 0 93-34t39-90z"/><path transform="translate(80.122 13.216) scale(.014 -.014)" d="m-12-213v1130h580v-1130zm335 213h226v57h-77v228q0 89-44 129t-109 40q-107 0-156-89v323h-148v-57h77v-574h-77v-57h225v57h-77v210q2 49 38.5 88.5t94.5 39.5q46 0 75.5-29.5t29.5-101.5v-207h-78z"/><path transform="translate(87.906 13.216) scale(.014 -.014)" d="M-12 -213V917H274V-213ZM18 0H244V57H166V688H17V631H96V57H18Z"/><path transform="translate(91.574 13.216) scale(.014 -.014)" d="M-12 -213V917H289V-213ZM103 651V560H179V651ZM32 0H258V57H180V445H30V388H110V57H32Z"/><path transform="translate(95.452 13.216) scale(.014 -.014)" d="m-12-213v1130h569v-1130h-309q100 4 154.5 65.5t54.5 163.5v372h72v57h-143v-70q-45 79-151 79-103 0-151-77t-48-166q0-105 56-161t135-56q63 0 101 29t58 68v-72q0-83-40.5-127t-104.5-44q-45 0-87 23t-59 75l-56-28q17-64 68.5-96t116.5-35zm398 482v-77q-2-50-41.5-93.5t-102.5-43.5q-55 0-93 39.5t-38 121.5q0 70 33.5 123.5t109.5 53.5q54 0 93-34t39-90z"/><path transform="translate(103.08 13.216) scale(.014 -.014)" d="m-12-213v1130h580v-1130zm335 213h226v57h-77v228q0 89-44 129t-109 40q-107 0-156-89v323h-148v-57h77v-574h-77v-57h225v57h-77v210q2 49 38.5 88.5t94.5 39.5q46 0 75.5-29.5t29.5-101.5v-207h-78z"/><path transform="translate(110.87 13.216) scale(.014 -.014)" d="m-12-213v1130h391v-1130zm365 333-54 17q-10-54-28.5-70t-43.5-16q-41 0-56.5 24.5t-15.5 64.5v249h174v56h-174v143h-70v-143h-72v-56h72v-258q0-65 33.5-103t100.5-38q114 0 134 130z"/></svg>