<svg width="54.81" height="16.8" viewBox="0 0 54.81 16.8" xmlns="http://www.w3.org/2000/svg"><path transform="translate(0 13.216) scale(.014 -.014)" d="m514 0h-480l-2 44 384 539v3h-280l-28-133-62 9 25 188h448l2-40-386-543v-3h314l28 138 63-9z"/><path transform="translate(8.078 13.216) scale(.014 -.014)" d="M105 560V651H181V560ZM260 0H34V57H112V388H32V445H182V57H260Z"/><path transform="translate(11.998 13.216) scale(.014 -.014)" d="M246 0H20V57H98V631H19V688H168V57H246Z"/><path transform="translate(15.722 13.216) scale(.014 -.014)" d="M246 0H20V57H98V631H19V688H168V57H246Z"/><path transform="translate(19.446 13.216) scale(.014 -.014)" d="m81 411q35 23 74 33t83 10q159 0 159-149v-212q0-48 38-48 17 0 30 6l1-46q-27-15-58-15-79 0-81 90v2q-21-36-59.5-64t-92.5-28q-44 0-89.5 27t-45.5 98q0 84 66.5 110.5t141.5 26.5q20 0 40.5-1t38.5-3v40q0 48-20.5 78t-80.5 30q-49 0-86-18l-17-77-58 7zm246-244v34q-19 1-40 3t-43 2q-50 0-90.5-15.5t-40.5-67.5q0-43 27-59t56-16q46 0 86.5 32t44.5 87z"/><path transform="translate(29.386 13.216) scale(.014 -.014)" d="m490 182q0-94-66.5-143t-165.5-49q-136 0-209 53l14 128 60-6-4-82q33-17 66-23t69-6q64 0 110.5 27.5t46.5 93.5q0 74-51 96.5t-111 36.5q-46 10-91 25.5t-75 49-30 97.5q0 92 61.5 136t145.5 44q54 0 109-15t86-39l6-129-60-6-10 97q-31 16-63 21.5t-61 5.5q-61 0-98.5-27.5t-37.5-79.5q0-61 45-82t100-34q44-10 93.5-25.5t85-53 35.5-111.5z"/><path transform="translate(36.848 13.216) scale(.014 -.014)" d="M246 0H20V57H98V631H19V688H168V57H246Z"/><path transform="translate(40.572 13.216) scale(.014 -.014)" d="m81 411q35 23 74 33t83 10q159 0 159-149v-212q0-48 38-48 17 0 30 6l1-46q-27-15-58-15-79 0-81 90v2q-21-36-59.5-64t-92.5-28q-44 0-89.5 27t-45.5 98q0 84 66.5 110.5t141.5 26.5q20 0 40.5-1t38.5-3v40q0 48-20.5 78t-80.5 30q-49 0-86-18l-17-77-58 7zm246-244v34q-19 1-40 3t-43 2q-50 0-90.5-15.5t-40.5-67.5q0-43 27-59t56-16q46 0 86.5 32t44.5 87z"/><path transform="translate(47.334 13.216) scale(.014 -.014)" d="m496 234q0-59-20-115t-64-92.5-114-36.5q-112 0-156 84l-10-74h-70q4 29 9 63t5 67v501h-77v57h147v-335q20 41 57.5 71t101.5 30q83 0 137-57t54-163zm-74-7q0 83-39 125t-95 42q-64 0-102-47t-40-96v-67q0-56 39.5-95t97.5-39q73 0 106 54t33 123z"/></svg>